<?xml version="1.0" encoding="UTF-8"?>
<!DOCTYPE svg PUBLIC "-//W3C//DTD SVG 1.1//EN" "http://www.w3.org/Graphics/SVG/1.1/DTD/svg11.dtd">
<!-- Creator: CorelDRAW X7 -->
<svg xmlns="http://www.w3.org/2000/svg" xml:space="preserve" width="6264px" height="4226px" version="1.1" style="shape-rendering:geometricPrecision; text-rendering:geometricPrecision; image-rendering:optimizeQuality; fill-rule:evenodd; clip-rule:evenodd"
viewBox="0 0 6264 4226"
 xmlns:xlink="http://www.w3.org/1999/xlink">
 <defs>
  <style type="text/css">
   <![CDATA[
    .str0 {stroke:#848688;stroke-width:12.4998;stroke-dasharray:24.999533 37.499300}
    .fil48 {fill:none}
    .fil2 {fill:#FEFEFE}
    .fil3 {fill:#FEFEFE}
    .fil19 {fill:#DA514E}
    .fil20 {fill:#BB4647}
    .fil1 {fill:#FEFEFE;fill-rule:nonzero}
    .fil51 {fill:#FEFEFE;fill-rule:nonzero}
    .fil4 {fill:#E6E7E8;fill-rule:nonzero}
    .fil52 {fill:#D2D3D5;fill-rule:nonzero}
    .fil17 {fill:#BDBFC1;fill-rule:nonzero}
    .fil49 {fill:#848688;fill-rule:nonzero}
    .fil11 {fill:#848688;fill-rule:nonzero}
    .fil50 {fill:#606062;fill-rule:nonzero}
    .fil39 {fill:#FED7AF;fill-rule:nonzero}
    .fil36 {fill:#FBB12F;fill-rule:nonzero}
    .fil43 {fill:#F27463;fill-rule:nonzero}
    .fil29 {fill:#F3734F;fill-rule:nonzero}
    .fil28 {fill:#F9FCFE;fill-rule:nonzero}
    .fil46 {fill:#F7BA31;fill-rule:nonzero}
    .fil31 {fill:#F1BA38;fill-rule:nonzero}
    .fil22 {fill:#E9ECEF;fill-rule:nonzero}
    .fil35 {fill:#EAA236;fill-rule:nonzero}
    .fil21 {fill:#DA514E;fill-rule:nonzero}
    .fil45 {fill:#E4A644;fill-rule:nonzero}
    .fil44 {fill:#DFDFE9;fill-rule:nonzero}
    .fil30 {fill:#E4AE3E;fill-rule:nonzero}
    .fil40 {fill:#D9B89B;fill-rule:nonzero}
    .fil53 {fill:#D2E28B;fill-rule:nonzero}
    .fil34 {fill:#B6B6B7;fill-rule:nonzero}
    .fil25 {fill:#A2CFD0;fill-rule:nonzero}
    .fil26 {fill:#A5A4A4;fill-rule:nonzero}
    .fil54 {fill:#91D8F7;fill-rule:nonzero}
    .fil56 {fill:#A8CF45;fill-rule:nonzero}
    .fil55 {fill:#A8CF45;fill-rule:nonzero}
    .fil41 {fill:#8AC4C1;fill-rule:nonzero}
    .fil18 {fill:#7AC5E3;fill-rule:nonzero}
    .fil27 {fill:#82A7B6;fill-rule:nonzero}
    .fil38 {fill:#62A1B0;fill-rule:nonzero}
    .fil42 {fill:#302F2F;fill-rule:nonzero}
    .fil33 {fill:#2BB5A7;fill-rule:nonzero}
    .fil32 {fill:#269F8E;fill-rule:nonzero}
    .fil37 {fill:#3E505D;fill-rule:nonzero}
    .fil23 {fill:#2E587D;fill-rule:nonzero}
    .fil24 {fill:#2C445C;fill-rule:nonzero}
    .fil12 {fill:#343B43;fill-rule:nonzero}
    .fil13 {fill:#495057;fill-rule:nonzero}
    .fil14 {fill:#58B4D9;fill-rule:nonzero}
    .fil6 {fill:#606E65;fill-rule:nonzero}
    .fil5 {fill:#829589;fill-rule:nonzero}
    .fil15 {fill:#8FDEF6;fill-rule:nonzero}
    .fil8 {fill:#B9B7A8;fill-rule:nonzero}
    .fil7 {fill:#CDCBBB;fill-rule:nonzero}
    .fil10 {fill:#D95B46;fill-rule:nonzero}
    .fil47 {fill:#EA6552;fill-rule:nonzero}
    .fil9 {fill:#F16A54;fill-rule:nonzero}
    .fil16 {fill:white;fill-rule:nonzero}
    .fil0 {fill:#00A3E0;fill-rule:nonzero}
   ]]>
  </style>
 </defs>
 <g id="Layer_x0020_1">
  <metadata id="CorelCorpID_0Corel-Layer"/>
  <g id="_935420604192">
   <g>
    <g>
     <path class="fil0" d="M3025 1776c41,-42 98,-69 162,-69 84,0 157,47 196,116 34,-15 71,-23 111,-23 151,0 274,124 274,277 0,152 -123,276 -274,276 -19,0 -37,-2 -54,-5 -34,61 -100,103 -175,103 -32,0 -61,-8 -88,-21 -35,82 -116,140 -211,140 -98,0 -182,-62 -214,-150 -14,3 -29,5 -44,5 -117,0 -212,-96 -212,-215 0,-79 42,-149 106,-186 -13,-30 -20,-63 -20,-98 0,-136 110,-247 247,-247 80,0 151,38 196,97z"/>
    </g>
    <g>
     <g>
      <path class="fil1" d="M2680 2141c-1,2 0,3 1,3 2,2 4,3 7,4 13,7 25,9 38,9 26,0 42,-14 42,-36l0 0c0,-21 -18,-29 -35,-34l-2 -1c-13,-4 -25,-8 -25,-16l0 -1c0,-7 7,-12 17,-12 11,0 25,4 33,8 0,0 3,2 4,-1 0,-1 5,-13 5,-14 0,-1 0,-2 -1,-3 -10,-6 -24,-10 -38,-10l-2 0c-24,0 -41,15 -41,35l0 1c0,22 19,29 36,34l3 0c12,4 23,8 23,16l0 1c0,8 -7,14 -18,14 -5,0 -19,0 -34,-10 -2,-1 -3,-2 -4,-2 -1,-1 -3,-2 -4,1l-5 14z"/>
      <path class="fil1" d="M3062 2141c-1,2 0,3 1,3 2,2 5,3 7,4 13,7 25,9 38,9 26,0 42,-14 42,-36l0 0c0,-21 -18,-29 -35,-34l-2 -1c-13,-4 -24,-8 -24,-16l0 -1c0,-7 6,-12 16,-12 11,0 25,4 33,8 0,0 3,2 4,-1 0,-1 5,-13 5,-14 1,-1 0,-2 -1,-3 -10,-6 -24,-10 -38,-10l-2 0c-24,0 -41,15 -41,35l0 1c0,22 19,29 36,34l3 0c12,4 23,8 23,16l0 1c0,8 -7,14 -18,14 -5,0 -19,0 -34,-10 -2,-1 -3,-1 -4,-2 -1,-1 -3,-2 -4,1l-5 14z"/>
      <path class="fil1" d="M3345 2074c-2,-7 -6,-14 -10,-19 -4,-5 -10,-10 -17,-13 -6,-3 -14,-4 -23,-4 -9,0 -17,1 -24,4 -6,3 -12,8 -16,13 -5,5 -8,12 -10,19 -2,7 -3,15 -3,23 0,9 1,17 3,24 2,7 5,13 10,19 4,5 10,9 16,12 7,3 15,5 24,5 9,0 17,-2 23,-5 7,-3 12,-7 17,-12 4,-6 8,-12 10,-19 2,-7 3,-15 3,-24 0,-8 -1,-16 -3,-23zm-22 23l0 0c0,13 -2,23 -7,30 -5,7 -11,10 -21,10 -10,0 -17,-3 -21,-10 -5,-7 -7,-17 -7,-30 0,-12 2,-22 7,-29 4,-7 11,-10 21,-10 10,0 16,3 21,10 5,7 7,17 7,29z"/>
      <path class="fil2" d="M3524 2134c-1,-2 -3,-1 -3,-1 -3,1 -7,2 -10,2 -4,1 -8,1 -12,1 -11,0 -19,-3 -25,-9 -6,-6 -9,-16 -9,-30 0,-12 3,-21 8,-28 5,-8 13,-11 24,-11 9,0 16,1 23,3 0,0 2,1 3,-1 2,-6 3,-9 5,-15 1,-2 -1,-3 -1,-3 -3,-1 -10,-3 -15,-3 -4,-1 -10,-2 -16,-2 -9,0 -17,2 -24,5 -7,3 -13,7 -18,13 -5,5 -8,12 -11,19 -2,7 -3,15 -3,23 0,18 5,33 14,44 10,10 25,16 43,16 12,0 23,-2 31,-6 0,0 2,0 1,-2l-5 -15z"/>
      <path class="fil2" d="M3635 2070c-2,-7 -6,-14 -9,-17 -5,-6 -10,-9 -14,-11 -6,-3 -13,-4 -21,-4 -9,0 -18,1 -25,4 -6,3 -12,8 -17,13 -4,6 -7,12 -10,19 -2,8 -3,16 -3,24 0,8 1,16 4,23 2,8 5,14 10,19 5,6 11,10 19,13 7,2 16,4 27,4 21,0 32,-5 37,-8 0,0 1,-1 0,-3l-5 -14c0,-2 -2,-1 -2,-1 -6,2 -13,6 -31,6 -11,0 -20,-4 -25,-9 -5,-5 -8,-13 -8,-25l73 0c0,0 2,0 2,-1 1,-1 3,-16 -2,-32zm-73 15l0 0c1,-7 3,-13 6,-17 4,-7 11,-11 21,-11 10,0 16,4 21,11 3,4 4,10 5,17l-53 0z"/>
      <path class="fil2" d="M3045 2070c-2,-7 -7,-14 -10,-17 -5,-6 -9,-9 -14,-11 -6,-3 -13,-4 -21,-4 -9,0 -18,1 -24,4 -7,3 -13,8 -17,13 -5,6 -8,12 -10,19 -3,8 -4,16 -4,24 0,8 2,16 4,23 2,8 6,14 10,19 5,6 12,10 19,13 7,2 16,4 27,4 21,0 32,-5 37,-8 1,0 2,-1 1,-3l-5 -14c-1,-2 -3,-1 -3,-1 -5,2 -13,6 -30,6 -12,0 -20,-4 -26,-9 -5,-5 -8,-13 -8,-25l74 0c0,0 2,0 2,-1 0,-1 2,-16 -2,-32zm-74 15l0 0c1,-7 3,-13 6,-17 5,-7 12,-11 21,-11 10,0 16,4 21,11 3,4 4,10 5,17l-53 0z"/>
      <path class="fil1" d="M2841 2082c-3,-1 -7,-1 -11,-1 -7,0 -13,1 -19,3 -5,1 -11,4 -15,7 -4,3 -8,7 -11,12 -2,5 -4,11 -4,17 0,7 2,12 4,17 2,4 5,8 9,11 4,3 10,6 15,7 6,1 13,2 20,2 8,0 15,-1 22,-2 8,-1 16,-3 19,-4 2,0 5,-1 5,-1 2,0 2,-2 2,-2l0 -68c0,-15 -4,-26 -12,-32 -8,-7 -19,-11 -34,-11 -5,0 -14,1 -20,2 0,0 -16,3 -22,9 0,0 -2,0 -1,3l5 14c1,1 3,1 3,1 0,0 0,0 1,-1 14,-8 32,-7 32,-7 8,0 14,1 18,4 4,4 6,8 6,18l0 3c-6,-1 -12,-1 -12,-1zm-29 51l0 0c-3,-2 -4,-2 -5,-4 -1,-2 -2,-5 -2,-9 0,-7 2,-12 7,-15 0,0 6,-5 21,-5 11,0 20,2 20,2l0 33 0 0c0,0 -9,2 -20,3 -15,1 -21,-5 -21,-5z"/>
      <path class="fil2" d="M3436 2044c1,-2 -1,-3 -1,-3 -1,0 -8,-2 -12,-2 -10,-1 -15,1 -19,3 -5,2 -10,5 -13,9l0 -9c0,-1 -1,-2 -2,-2l-19 0c-1,0 -2,1 -2,2l0 110c0,1 1,2 2,2l20 0c1,0 2,-1 2,-2l0 -55c0,-7 1,-15 2,-19 2,-5 4,-8 7,-11 2,-3 5,-4 9,-5 3,-2 7,-2 10,-2 4,0 8,1 8,1 1,0 2,-1 2,-2 2,-3 5,-13 6,-15z"/>
      <path class="fil2" d="M3254 1993c-2,-1 -4,-2 -7,-2 -3,-1 -6,-1 -10,-1 -14,0 -24,4 -31,11 -8,8 -13,19 -15,34l-1 5 -17 0c0,0 -2,0 -2,2l-3 15c0,2 0,3 2,3l17 0 -17 92c-1,7 -3,14 -4,18 -2,5 -4,8 -6,11 -1,2 -3,4 -6,5 -3,1 -6,1 -9,1 -2,0 -4,0 -6,-1 -2,0 -3,0 -4,-1 0,0 -2,-1 -3,1 0,2 -4,14 -5,15 0,2 0,3 1,3 2,1 4,2 7,2 4,1 7,1 11,1 6,0 13,-1 18,-2 5,-2 9,-6 13,-10 5,-5 7,-10 10,-17 3,-6 5,-15 7,-24l16 -94 24 0c0,0 2,0 3,-2l3 -16c0,-1 -1,-2 -3,-2l-23 0c0,-1 1,-9 4,-17 1,-3 3,-6 5,-8 2,-1 4,-3 6,-4 2,0 5,-1 8,-1 2,0 4,1 6,1 2,0 3,1 4,1 2,1 2,0 3,-1l5 -16c1,-1 0,-2 -1,-2z"/>
      <path class="fil2" d="M2925 2152c0,1 -1,2 -3,2l-19 0c-1,0 -2,-1 -2,-2l0 -157c0,-1 1,-2 2,-2l19 0c2,0 3,1 3,2l0 157z"/>
     </g>
    </g>
   </g>
   <g>
    <circle class="fil3" cx="305" cy="305" r="305"/>
    <g>
     <polygon class="fil4" points="130,440 480,440 480,259 130,259 "/>
     <polygon class="fil5" points="119,459 491,459 491,440 119,440 "/>
     <polygon class="fil6" points="105,475 505,475 505,457 105,457 "/>
     <polygon class="fil7" points="146,402 346,402 346,259 146,259 "/>
     <polygon class="fil8" points="154,395 154,259 146,259 146,402 346,402 346,395 "/>
     <polygon class="fil7" points="362,440 464,440 464,298 362,298 "/>
     <polygon class="fil8" points="362,440 369,440 369,298 362,298 "/>
     <path class="fil9" d="M109 232l0 50c0,13 11,24 25,24 13,0 24,-11 24,-24l0 -50 -49 0z"/>
     <path class="fil10" d="M158 232l0 50c0,13 11,24 25,24 13,0 24,-11 24,-24l0 -50 -49 0z"/>
     <path class="fil9" d="M207 232l0 50c0,13 11,24 25,24 13,0 24,-11 24,-24l0 -50 -49 0z"/>
     <path class="fil10" d="M256 232l0 50c0,13 11,24 24,24 14,0 25,-11 25,-24l0 -50 -49 0z"/>
     <path class="fil9" d="M305 232l0 50c0,13 11,24 24,24 14,0 25,-11 25,-24l0 -50 -49 0z"/>
     <path class="fil10" d="M354 232l0 50c0,13 11,24 24,24 14,0 25,-11 25,-24l0 -50 -49 0z"/>
     <path class="fil9" d="M403 232l0 50c0,13 11,24 24,24 14,0 25,-11 25,-24l0 -50 -49 0z"/>
     <path class="fil10" d="M452 232l0 50c0,13 11,24 24,24 14,0 25,-11 25,-24l0 -50 -49 0z"/>
     <path class="fil10" d="M180 151c-24,27 -47,54 -71,80 17,0 33,0 49,0 18,-26 35,-53 53,-80 -10,0 -21,0 -31,0z"/>
     <path class="fil9" d="M211 151c-18,27 -35,54 -53,80 16,0 33,0 49,0 12,-26 24,-53 35,-80 -10,0 -20,0 -31,0z"/>
     <path class="fil10" d="M242 151c-11,27 -23,54 -35,80 16,0 33,0 49,0 6,-26 12,-53 18,-80 -11,0 -21,0 -32,0z"/>
     <path class="fil9" d="M274 151c-6,27 -12,54 -18,80 16,0 33,0 49,0 0,-26 0,-53 0,-80 -11,0 -21,0 -31,0z"/>
     <path class="fil10" d="M305 151c0,27 0,54 0,80 16,0 33,0 49,0 -6,-26 -12,-53 -18,-80 -10,0 -21,0 -31,0z"/>
     <path class="fil9" d="M336 151c6,27 12,54 18,80 16,0 32,0 49,0 -12,-26 -24,-53 -36,-80 -10,0 -20,0 -31,0z"/>
     <path class="fil10" d="M367 151c12,27 24,54 36,80 16,0 32,0 49,0 -18,-26 -36,-53 -53,-80 -11,0 -21,0 -32,0z"/>
     <path class="fil9" d="M452 231c16,0 32,0 49,0 -24,-26 -47,-53 -71,-80 -10,0 -21,0 -31,0 17,27 35,54 53,80z"/>
     <polygon class="fil10" points="180,151 211,151 211,135 180,135 "/>
     <polygon class="fil10" points="211,151 242,151 242,135 211,135 "/>
     <polygon class="fil10" points="242,151 274,151 274,135 242,135 "/>
     <polygon class="fil10" points="274,151 305,151 305,135 274,135 "/>
     <polygon class="fil10" points="305,151 336,151 336,135 305,135 "/>
     <polygon class="fil10" points="336,151 368,151 368,135 336,135 "/>
     <polygon class="fil10" points="368,151 399,151 399,135 368,135 "/>
     <polygon class="fil10" points="399,151 430,151 430,135 399,135 "/>
    </g>
   </g>
   <path class="fil11" d="M216 810c-3,1 -8,2 -12,2 -14,0 -22,-9 -22,-22 0,-16 9,-24 22,-24 5,0 9,2 12,3l2 -9c-2,-1 -7,-3 -15,-3 -19,0 -33,12 -33,33 0,19 12,32 32,32 7,0 13,-2 16,-3l-2 -9z"/>
   <path id="1" class="fil11" d="M246 774c-13,0 -23,9 -23,24 0,15 10,24 22,24 12,0 24,-8 24,-24 0,-14 -9,-24 -23,-24zm0 9c8,0 11,8 11,15 0,9 -5,15 -11,15 -7,0 -11,-6 -11,-15 0,-7 3,-15 11,-15z"/>
   <path id="2" class="fil11" d="M278 821l12 0 0 -27c0,-1 0,-3 0,-4 1,-3 5,-6 9,-6 6,0 9,5 9,11l0 26 11 0 0 -27c0,-15 -8,-20 -16,-20 -7,0 -12,5 -14,8l-1 0 0 -7 -10 0c0,4 0,9 0,14l0 32z"/>
   <path id="3" class="fil11" d="M333 765l0 10 -7 0 0 9 7 0 0 21c0,6 1,10 3,13 3,2 6,4 10,4 4,0 7,-1 9,-1l-1 -9c-1,0 -2,0 -4,0 -5,0 -6,-3 -6,-8l0 -20 11 0 0 -9 -11 0 0 -13 -11 3z"/>
   <path id="4" class="fil11" d="M399 821c0,-3 0,-7 0,-11l0 -17c0,-9 -4,-19 -19,-19 -7,0 -13,2 -16,4l2 8c3,-2 8,-4 12,-4 8,0 9,5 9,8l0 1c-16,0 -27,6 -27,17 0,7 5,14 15,14 5,0 10,-3 13,-6l0 0 1 5 10 0zm-11 -16c0,1 -1,1 -1,2 -1,4 -4,7 -9,7 -3,0 -6,-2 -6,-7 0,-7 7,-9 16,-8l0 6z"/>
   <path id="5" class="fil11" d="M408 818c3,2 8,4 14,4 12,0 18,-6 18,-14 0,-7 -4,-11 -12,-14 -6,-2 -8,-4 -8,-7 0,-2 2,-4 7,-4 4,0 7,1 9,2l2 -8c-2,-1 -7,-3 -12,-3 -10,0 -17,7 -17,15 0,5 4,10 13,13 5,2 7,3 7,6 0,3 -2,5 -7,5 -4,0 -9,-1 -12,-3l-2 8z"/>
   <path class="fil11" d="M994 709c-17,0 -29,13 -29,32 0,19 11,32 28,32 18,0 30,-12 30,-33 0,-18 -10,-31 -29,-31zm0 9c12,0 17,11 17,23 0,13 -6,23 -17,23 -11,0 -17,-10 -17,-23 0,-13 6,-23 17,-23z"/>
   <path id="1" class="fil11" d="M1033 772l12 0 0 -23c0,-1 0,-3 0,-4 1,-5 5,-8 10,-8 2,0 3,0 4,0l0 -11c-1,0 -2,0 -3,0 -5,0 -10,3 -13,10l0 0 0 -9 -10 0c0,4 0,8 0,15l0 30z"/>
   <path id="2" class="fil11" d="M1078 772l0 -45 -12 0 0 45 12 0zm-6 -64c-4,0 -6,3 -6,6 0,4 2,6 6,6 4,0 6,-2 6,-6 0,-3 -2,-6 -6,-6z"/>
   <path id="3" class="fil11" d="M1122 727l-1 6 0 0c-2,-4 -6,-7 -13,-7 -11,0 -21,9 -21,24 0,13 8,22 19,22 6,0 11,-3 14,-7l0 0 0 4c0,10 -6,14 -13,14 -6,0 -10,-2 -13,-4l-3 9c4,3 10,4 16,4 6,0 13,-2 17,-6 5,-4 7,-11 7,-20l0 -26c0,-6 0,-10 1,-13l-10 0zm-2 25c0,2 -1,3 -1,5 -1,4 -5,6 -9,6 -7,0 -11,-6 -11,-14 0,-9 5,-14 11,-14 5,0 8,3 9,7 1,1 1,2 1,3l0 7z"/>
   <path id="4" class="fil11" d="M1182 753c0,-1 0,-3 0,-5 0,-10 -5,-22 -19,-22 -15,0 -22,12 -22,24 0,14 8,23 23,23 6,0 12,-1 16,-3l-2 -8c-3,2 -7,3 -13,3 -7,0 -13,-4 -13,-12l30 0zm-30 -8c0,-5 3,-11 10,-11 8,0 10,7 9,11l-19 0z"/>
   <path id="5" class="fil11" d="M1191 772l12 0 0 -27c0,-1 0,-2 0,-3 1,-3 4,-7 8,-7 6,0 8,5 8,11l0 26 11 0 0 -27c0,-1 1,-3 1,-4 1,-3 4,-6 8,-6 5,0 8,5 8,12l0 25 11 0 0 -26c0,-15 -7,-20 -15,-20 -4,0 -7,1 -9,3 -2,1 -4,3 -6,5l0 0c-2,-5 -6,-8 -12,-8 -8,0 -12,4 -14,8l-1 0 0 -7 -10 0c0,4 0,8 0,13l0 32z"/>
   <path id="6" class="fil11" d="M931 804l0 25 0 0c-2,-3 -7,-6 -13,-6 -11,0 -20,9 -20,24 0,14 8,24 19,24 7,0 12,-4 15,-9l0 0 0 8 11 0c0,-3 -1,-8 -1,-13l0 -53 -11 0zm0 46c0,1 0,2 0,3 -2,5 -6,8 -10,8 -8,0 -12,-6 -12,-14 0,-8 4,-15 12,-15 5,0 9,4 10,8 0,1 0,2 0,3l0 7z"/>
   <path id="7" class="fil11" d="M990 870c0,-3 0,-7 0,-11l0 -17c0,-10 -4,-19 -19,-19 -7,0 -13,2 -16,4l2 8c3,-2 8,-4 12,-4 8,0 9,5 9,8l0 1c-16,0 -27,6 -27,17 0,7 6,14 15,14 6,0 10,-3 13,-6l0 0 1 5 10 0zm-11 -16c0,0 0,1 -1,2 -1,3 -4,6 -9,6 -3,0 -6,-2 -6,-6 0,-7 8,-9 16,-9l0 7z"/>
   <path id="8" class="fil11" d="M999 867c3,2 8,4 14,4 12,0 18,-6 18,-15 0,-6 -4,-10 -12,-13 -6,-3 -8,-4 -8,-7 0,-3 3,-5 7,-5 4,0 7,2 9,3l2 -8c-2,-1 -7,-3 -12,-3 -10,0 -17,7 -17,15 0,5 4,10 13,13 5,2 7,3 7,6 0,3 -2,5 -7,5 -4,0 -9,-1 -12,-3l-2 8z"/>
   <path id="9" class="fil11" d="M1103 859c-2,1 -7,2 -12,2 -14,0 -22,-9 -22,-23 0,-15 9,-23 22,-23 5,0 9,1 12,3l3 -9c-2,-2 -8,-3 -15,-3 -20,0 -34,12 -34,33 0,19 12,32 32,32 8,0 14,-2 16,-3l-2 -9z"/>
   <path id="10" class="fil11" d="M1134 823c-14,0 -24,9 -24,24 0,15 10,24 23,24 12,0 23,-8 23,-24 0,-14 -9,-24 -22,-24zm-1 9c8,0 11,8 11,15 0,9 -4,15 -11,15 -7,0 -11,-6 -11,-15 0,-8 3,-15 11,-15z"/>
   <path id="11" class="fil11" d="M1166 870l11 0 0 -27c0,-1 0,-3 1,-4 1,-3 4,-6 9,-6 6,0 8,5 8,11l0 26 12 0 0 -27c0,-15 -9,-20 -16,-20 -8,0 -13,5 -15,8l0 0 -1 -7 -10 0c1,4 1,9 1,14l0 32z"/>
   <path id="12" class="fil11" d="M1220 814l0 10 -6 0 0 9 6 0 0 21c0,6 1,10 4,13 2,2 6,4 10,4 3,0 6,-1 8,-2l0 -8c-1,0 -3,0 -5,0 -4,0 -5,-3 -5,-8l0 -20 10 0 0 -9 -10 0 0 -13 -12 3z"/>
   <path id="13" class="fil11" d="M1287 870c-1,-3 -1,-7 -1,-11l0 -17c0,-10 -4,-19 -18,-19 -8,0 -13,2 -17,4l2 8c3,-2 8,-4 13,-4 8,0 9,5 9,8l0 1c-17,0 -27,6 -27,17 0,7 5,14 14,14 6,0 11,-3 14,-6l0 0 1 5 10 0zm-12 -16c0,0 0,1 0,2 -1,3 -5,6 -9,6 -4,0 -7,-2 -7,-6 0,-7 8,-9 16,-9l0 7z"/>
   <path id="14" class="fil11" d="M1296 867c3,2 8,4 13,4 12,0 19,-6 19,-15 0,-6 -4,-10 -12,-13 -6,-3 -8,-4 -8,-7 0,-3 2,-5 6,-5 4,0 8,2 10,3l2 -8c-3,-1 -7,-3 -12,-3 -11,0 -17,7 -17,15 0,5 3,10 12,13 6,2 8,3 8,6 0,3 -3,5 -8,5 -4,0 -9,-1 -11,-3l-2 8z"/>
   <g>
    <circle class="fil3" cx="1113" cy="305" r="305"/>
    <g>
     <path class="fil12" d="M1068 222c0,24 -20,44 -45,44 -24,0 -44,-20 -44,-44 0,-24 20,-44 44,-44 25,0 45,20 45,44z"/>
     <path class="fil12" d="M1246 222c0,24 -20,44 -44,44 -24,0 -44,-20 -44,-44 0,-24 20,-44 44,-44 24,0 44,20 44,44z"/>
     <path class="fil13" d="M1266 231c-16,-16 -37,-24 -58,-24l-67 0c0,16 -12,29 -28,29 -16,0 -29,-13 -29,-29l-67 0c-21,0 -41,8 -58,24 -16,16 -24,37 -24,58l0 41 355 0 0 -41c0,-21 -8,-42 -24,-58z"/>
     <polygon class="fil12" points="1052,379 1173,379 1173,308 1052,308 "/>
     <path class="fil12" d="M1075 344c0,49 -40,88 -89,88 -49,0 -89,-39 -89,-88 0,-49 40,-89 89,-89 49,0 89,40 89,89z"/>
     <path class="fil14" d="M1051 344c0,35 -29,64 -65,64 -36,0 -65,-29 -65,-64 0,-36 29,-65 65,-65 36,0 65,29 65,65z"/>
     <path class="fil15" d="M1035 344c0,26 -22,48 -49,48 -27,0 -49,-22 -49,-48 0,-27 22,-49 49,-49 27,0 49,22 49,49z"/>
     <path class="fil16" d="M980 317c0,11 -10,20 -21,20 -11,0 -20,-9 -20,-20 0,-11 9,-21 20,-21 11,0 21,10 21,21z"/>
     <path class="fil16" d="M994 344c0,4 -4,8 -8,8 -4,0 -8,-4 -8,-8 0,-5 4,-8 8,-8 4,0 8,3 8,8z"/>
     <path class="fil12" d="M1328 344c0,49 -40,88 -89,88 -49,0 -88,-39 -88,-88 0,-49 39,-89 88,-89 49,0 89,40 89,89z"/>
     <path class="fil14" d="M1304 344c0,35 -29,64 -65,64 -35,0 -64,-29 -64,-64 0,-36 29,-65 64,-65 36,0 65,29 65,65z"/>
     <path class="fil15" d="M1288 344c0,26 -22,48 -49,48 -27,0 -48,-22 -48,-48 0,-27 21,-49 48,-49 27,0 49,22 49,49z"/>
     <path class="fil16" d="M1233 317c0,11 -9,20 -20,20 -12,0 -21,-9 -21,-20 0,-11 9,-21 21,-21 11,0 20,10 20,21z"/>
     <path class="fil16" d="M1247 344c0,4 -3,8 -8,8 -4,0 -8,-4 -8,-8 0,-5 4,-8 8,-8 5,0 8,3 8,8z"/>
     <path class="fil16" d="M1126 344c0,7 -6,13 -13,13 -8,0 -14,-6 -14,-13 0,-8 6,-14 14,-14 7,0 13,6 13,14z"/>
    </g>
   </g>
   <path class="fil11" d="M1789 810c-3,1 -7,2 -12,2 -14,0 -22,-9 -22,-22 0,-16 9,-24 22,-24 5,0 9,2 12,3l3 -9c-2,-1 -8,-3 -15,-3 -20,0 -34,12 -34,33 0,19 12,32 32,32 8,0 14,-2 16,-3l-2 -9z"/>
   <path id="1" class="fil11" d="M1820 774c-14,0 -24,9 -24,24 0,15 10,24 23,24 11,0 23,-8 23,-24 0,-14 -9,-24 -22,-24zm-1 9c8,0 11,8 11,15 0,9 -4,15 -11,15 -7,0 -11,-6 -11,-15 0,-7 3,-15 11,-15z"/>
   <path id="2" class="fil11" d="M1852 821l11 0 0 -27c0,-1 0,-3 1,-4 1,-3 4,-6 9,-6 6,0 8,5 8,11l0 26 12 0 0 -27c0,-15 -9,-20 -16,-20 -8,0 -13,5 -15,8l0 0 -1 -7 -10 0c0,4 1,9 1,14l0 32z"/>
   <path id="3" class="fil11" d="M1906 765l0 10 -6 0 0 9 6 0 0 21c0,6 1,10 4,13 2,2 6,4 10,4 3,0 6,-1 8,-1l0 -9c-1,0 -3,0 -5,0 -4,0 -6,-3 -6,-8l0 -20 11 0 0 -9 -11 0 0 -13 -11 3z"/>
   <path id="4" class="fil11" d="M1973 821c-1,-3 -1,-7 -1,-11l0 -17c0,-9 -4,-19 -19,-19 -7,0 -13,2 -16,4l2 8c3,-2 8,-4 13,-4 8,0 9,5 9,8l0 1c-17,0 -27,6 -27,17 0,7 5,14 14,14 6,0 11,-3 13,-6l1 0 0 5 11 0zm-12 -16c0,1 0,1 0,2 -1,4 -5,7 -9,7 -4,0 -7,-2 -7,-7 0,-7 8,-9 16,-8l0 6z"/>
   <path id="5" class="fil11" d="M1986 765l0 10 -7 0 0 9 7 0 0 21c0,6 1,10 3,13 2,2 6,4 10,4 4,0 7,-1 8,-1l0 -9c-1,0 -2,0 -4,0 -5,0 -6,-3 -6,-8l0 -20 11 0 0 -9 -11 0 0 -13 -11 3z"/>
   <path id="6" class="fil11" d="M2036 774c-13,0 -23,9 -23,24 0,15 10,24 23,24 11,0 23,-8 23,-24 0,-14 -9,-24 -23,-24zm0 9c8,0 11,8 11,15 0,9 -4,15 -11,15 -7,0 -11,-6 -11,-15 0,-7 3,-15 11,-15z"/>
   <path id="7" class="fil11" d="M2065 818c4,2 9,4 14,4 12,0 19,-6 19,-14 0,-7 -4,-11 -12,-14 -6,-2 -8,-4 -8,-7 0,-2 2,-4 6,-4 4,0 8,1 10,2l2 -8c-3,-1 -7,-3 -12,-3 -11,0 -17,7 -17,15 0,5 3,10 12,13 6,2 8,3 8,6 0,3 -3,5 -8,5 -4,0 -9,-1 -11,-3l-3 8z"/>
   <path class="fil11" d="M2546 774l11 0 0 -24c2,0 4,0 6,0 8,0 15,-2 20,-6 3,-4 5,-9 5,-14 0,-6 -2,-11 -6,-14 -4,-4 -10,-5 -18,-5 -8,0 -14,0 -18,1l0 62zm11 -54c2,0 4,-1 7,-1 8,0 13,4 13,11 0,7 -5,12 -14,12 -2,0 -4,-1 -6,-1l0 -21z"/>
   <path id="1" class="fil11" d="M2634 754c0,-1 0,-2 0,-5 0,-10 -5,-22 -19,-22 -15,0 -23,12 -23,25 0,14 9,23 24,23 6,0 12,-2 16,-3l-2 -8c-4,1 -7,2 -13,2 -7,0 -13,-4 -14,-12l31 0zm-31 -8c1,-4 4,-11 11,-11 8,0 9,7 9,11l-20 0z"/>
   <path id="2" class="fil11" d="M2643 774l12 0 0 -24c0,-1 0,-2 0,-3 1,-5 5,-9 10,-9 2,0 3,0 4,0l0 -10c-1,-1 -2,-1 -3,-1 -5,0 -10,4 -12,10l-1 0 0 -9 -10 0c0,4 0,9 0,15l0 31z"/>
   <path id="3" class="fil11" d="M2692 774l0 -37 15 0 0 37 12 0 0 -46 -27 0 0 -1c0,-6 2,-11 10,-11 5,0 8,1 10,2l3 -8c-3,-2 -8,-3 -13,-3 -13,0 -22,7 -22,19l0 2 -6 0 0 9 6 0 0 37 12 0z"/>
   <polygon id="4" class="fil11" points="2731,774 2743,774 2743,708 2731,708 "/>
   <path id="5" class="fil11" d="M2805 708l0 25 -1 0c-2,-3 -6,-6 -12,-6 -11,0 -21,9 -21,25 0,14 9,23 20,23 6,0 12,-3 14,-8l1 0 0 7 10 0c0,-3 0,-8 0,-13l0 -53 -11 0zm0 46c0,1 -1,2 -1,3 -1,5 -5,9 -10,9 -7,0 -11,-7 -11,-15 0,-8 4,-15 11,-15 6,0 9,4 10,8 0,1 1,2 1,3l0 7z"/>
   <path id="6" class="fil11" d="M2849 727c-14,0 -24,9 -24,24 0,15 10,24 23,24 12,0 23,-8 23,-24 0,-14 -9,-24 -22,-24zm0 9c7,0 11,8 11,15 0,9 -5,15 -12,15 -6,0 -11,-6 -11,-15 0,-7 3,-15 12,-15z"/>
   <path id="7" class="fil11" d="M2878 771c3,2 8,4 14,4 12,0 18,-6 18,-15 0,-6 -4,-10 -12,-13 -6,-2 -8,-4 -8,-7 0,-2 2,-4 6,-4 4,0 8,1 10,2l2 -8c-2,-1 -7,-3 -12,-3 -10,0 -17,7 -17,15 0,5 4,10 13,13 5,2 7,3 7,6 0,3 -2,5 -7,5 -4,0 -9,-1 -12,-3l-2 8z"/>
   <path id="8" class="fil11" d="M2596 860c-3,2 -8,3 -13,3 -14,0 -22,-9 -22,-23 0,-15 9,-23 22,-23 5,0 9,1 12,2l3 -9c-2,-1 -8,-3 -15,-3 -19,0 -34,13 -34,33 0,20 12,32 32,32 8,0 14,-1 16,-3l-1 -9z"/>
   <path id="9" class="fil11" d="M2626 825c-14,0 -24,9 -24,24 0,14 10,23 23,23 12,0 23,-7 23,-24 0,-14 -9,-23 -22,-23zm0 8c7,0 10,8 10,15 0,9 -4,16 -11,16 -7,0 -11,-7 -11,-16 0,-7 3,-15 12,-15z"/>
   <path id="10" class="fil11" d="M2658 871l11 0 0 -27c0,-1 0,-2 1,-3 1,-4 4,-7 9,-7 6,0 8,5 8,11l0 26 12 0 0 -27c0,-14 -8,-19 -16,-19 -8,0 -13,4 -15,8l0 0 -1 -7 -10 0c1,4 1,8 1,13l0 32z"/>
   <path id="11" class="fil11" d="M2712 816l0 10 -6 0 0 8 6 0 0 22c0,6 2,10 4,12 2,3 6,4 10,4 3,0 6,0 8,-1l0 -9c-1,0 -3,1 -5,1 -4,0 -5,-3 -5,-9l0 -20 10 0 0 -8 -10 0 0 -13 -12 3z"/>
   <path id="12" class="fil11" d="M2779 871c-1,-3 -1,-7 -1,-11l0 -16c0,-10 -4,-19 -18,-19 -8,0 -13,2 -17,4l2 7c4,-2 8,-3 13,-3 8,0 9,5 9,8l0 0c-17,0 -27,6 -27,18 0,6 5,13 14,13 6,0 11,-2 14,-6l0 0 1 5 10 0zm-12 -16c0,1 0,2 0,3 -1,3 -5,6 -9,6 -4,0 -7,-2 -7,-7 0,-6 8,-8 16,-8l0 6z"/>
   <path id="13" class="fil11" d="M2792 816l0 10 -7 0 0 8 7 0 0 22c0,6 1,10 3,12 2,3 6,4 10,4 4,0 7,0 8,-1l0 -9c-1,0 -2,1 -4,1 -5,0 -6,-3 -6,-9l0 -20 11 0 0 -8 -11 0 0 -13 -11 3z"/>
   <path id="14" class="fil11" d="M2842 825c-13,0 -23,9 -23,24 0,14 10,23 23,23 11,0 23,-7 23,-24 0,-14 -9,-23 -23,-23zm0 8c8,0 11,8 11,15 0,9 -4,16 -11,16 -7,0 -11,-7 -11,-16 0,-7 3,-15 11,-15z"/>
   <path id="15" class="fil11" d="M2872 869c3,2 8,3 13,3 12,0 19,-6 19,-14 0,-7 -4,-11 -12,-14 -6,-2 -8,-3 -8,-6 0,-3 2,-5 6,-5 4,0 8,1 10,3l2 -9c-3,-1 -7,-2 -12,-2 -11,0 -17,6 -17,14 0,5 3,10 12,13 6,2 8,4 8,7 0,3 -3,5 -8,5 -4,0 -9,-2 -11,-3l-2 8z"/>
   <path class="fil11" d="M3263 749c-18,0 -30,14 -30,33 0,19 11,32 29,32 17,0 30,-12 30,-33 0,-18 -11,-32 -29,-32zm-1 10c12,0 18,11 18,23 0,13 -7,23 -18,23 -11,0 -17,-10 -17,-23 0,-13 6,-23 17,-23z"/>
   <path id="1" class="fil11" d="M3301 832l12 0 0 -24 0 0c2,4 7,6 13,6 10,0 20,-8 20,-24 0,-14 -8,-23 -19,-23 -7,0 -12,3 -15,8l0 0 -1 -7 -10 0c0,4 0,9 0,15l0 49zm12 -45c0,-1 0,-2 0,-3 1,-5 6,-8 10,-8 8,0 12,6 12,14 0,9 -5,15 -12,15 -5,0 -9,-3 -10,-8 0,-1 0,-2 0,-3l0 -7z"/>
   <path id="2" class="fil11" d="M3376 767c-13,0 -23,9 -23,24 0,14 10,23 23,23 11,0 23,-7 23,-24 0,-14 -9,-23 -23,-23zm0 8c8,0 11,8 11,15 0,9 -5,16 -11,16 -7,0 -11,-7 -11,-15 0,-8 3,-16 11,-16z"/>
   <path id="3" class="fil11" d="M3408 813l12 0 0 -23c0,-2 0,-3 0,-4 1,-5 5,-8 10,-8 2,0 3,0 4,0l0 -11c-1,0 -2,0 -3,0 -5,0 -10,3 -12,10l-1 0 0 -9 -10 0c0,4 0,8 0,14l0 31z"/>
   <path id="4" class="fil11" d="M3445 758l0 10 -6 0 0 8 6 0 0 22c0,6 2,10 4,12 2,3 6,4 10,4 4,0 6,0 8,-1l0 -9c-1,1 -3,1 -4,1 -5,0 -6,-3 -6,-9l0 -20 11 0 0 -8 -11 0 0 -13 -12 3z"/>
   <path id="5" class="fil11" d="M3517 768l-12 0 0 27c0,2 0,3 0,4 -2,3 -5,6 -9,6 -6,0 -9,-5 -9,-12l0 -25 -11 0 0 26c0,15 8,20 16,20 8,0 12,-4 14,-8l1 0 0 7 10 0c0,-4 0,-8 0,-13l0 -32z"/>
   <path id="6" class="fil11" d="M3529 813l12 0 0 -26c0,-2 0,-3 0,-4 1,-4 4,-7 9,-7 6,0 9,5 9,12l0 25 11 0 0 -27c0,-14 -8,-19 -16,-19 -7,0 -12,4 -14,8l-1 0 0 -7 -10 0c0,4 0,8 0,13l0 32z"/>
   <path id="7" class="fil11" d="M3594 813l0 -45 -12 0 0 45 12 0zm-6 -64c-4,0 -6,3 -6,6 0,4 2,6 6,6 4,0 7,-2 7,-6 -1,-3 -3,-6 -7,-6z"/>
   <path id="8" class="fil11" d="M3636 747l0 26 0 0c-2,-4 -6,-6 -12,-6 -11,0 -21,9 -21,24 0,14 9,23 20,23 6,0 12,-3 14,-8l1 0 0 7 10 0c0,-3 0,-8 0,-13l0 -53 -12 0zm0 47c0,1 0,2 0,3 -1,5 -5,8 -10,8 -7,0 -11,-6 -11,-14 0,-9 4,-15 11,-15 6,0 9,3 10,8 0,1 0,2 0,3l0 7z"/>
   <path id="9" class="fil11" d="M3696 813c0,-3 -1,-7 -1,-11l0 -16c0,-10 -4,-19 -18,-19 -7,0 -13,2 -17,4l3 7c3,-2 7,-3 12,-3 8,0 9,5 9,8l0 1c-17,-1 -27,5 -27,17 0,7 5,13 14,13 6,0 11,-2 14,-6l0 0 1 5 10 0zm-12 -16c0,1 0,2 0,3 -1,3 -5,6 -9,6 -4,0 -7,-2 -7,-7 0,-6 8,-8 16,-8l0 6z"/>
   <path id="10" class="fil11" d="M3738 747l0 26 0 0c-2,-4 -7,-6 -13,-6 -11,0 -20,9 -20,24 0,14 8,23 19,23 7,0 12,-3 15,-8l0 0 0 7 11 0c-1,-3 -1,-8 -1,-13l0 -53 -11 0zm0 47c0,1 0,2 -1,3 -1,5 -5,8 -9,8 -8,0 -12,-6 -12,-14 0,-9 4,-15 12,-15 5,0 9,3 10,8 0,1 0,2 0,3l0 7z"/>
   <path id="11" class="fil11" d="M3800 794c0,-1 0,-3 0,-5 0,-10 -5,-22 -19,-22 -15,0 -22,12 -22,24 0,14 8,23 23,23 7,0 12,-1 16,-3l-2 -8c-3,2 -7,2 -12,2 -8,0 -14,-3 -14,-11l30 0zm-30 -8c0,-5 3,-11 10,-11 8,0 10,7 10,11l-20 0z"/>
   <path id="12" class="fil11" d="M3807 811c3,2 8,3 14,3 12,0 18,-6 18,-14 0,-7 -4,-11 -12,-14 -6,-2 -8,-3 -8,-6 0,-3 2,-5 6,-5 4,0 8,2 10,3l2 -8c-3,-2 -7,-3 -12,-3 -10,0 -17,6 -17,14 0,5 4,10 12,13 6,2 8,4 8,7 0,3 -2,5 -7,5 -4,0 -9,-2 -12,-3l-2 8z"/>
   <path class="fil11" d="M4142 762c3,2 10,3 17,3 16,0 24,-8 24,-18 0,-9 -6,-15 -17,-19 -8,-3 -12,-5 -12,-10 0,-4 4,-8 11,-8 6,0 10,2 12,3l3 -9c-3,-2 -8,-3 -15,-3 -14,0 -22,8 -22,18 0,9 6,14 17,18 8,3 11,6 11,10 0,6 -4,9 -11,9 -6,0 -12,-2 -16,-4l-2 10z"/>
   <path id="1" class="fil11" d="M4194 709l0 10 -6 0 0 9 6 0 0 21c0,6 1,10 4,13 2,2 5,3 9,3 4,0 7,0 9,-1l0 -8c-1,0 -3,0 -5,0 -4,0 -6,-3 -6,-8l0 -20 11 0 0 -9 -11 0 0 -13 -11 3z"/>
   <path id="2" class="fil11" d="M4261 764c-1,-2 -1,-6 -1,-10l0 -17c0,-10 -4,-19 -19,-19 -7,0 -13,2 -16,4l2 8c3,-2 8,-4 12,-4 8,0 9,5 9,8l0 1c-16,0 -26,6 -26,17 0,7 5,14 14,14 6,0 10,-3 13,-7l0 0 1 5 11 0zm-12 -15c0,0 0,1 -1,2 -1,3 -4,6 -9,6 -3,0 -6,-2 -6,-6 0,-7 8,-9 16,-9l0 7z"/>
   <path id="3" class="fil11" d="M4273 709l0 10 -6 0 0 9 6 0 0 21c0,6 2,10 4,13 2,2 6,3 10,3 3,0 6,0 8,-1l0 -8c-1,0 -3,0 -5,0 -4,0 -5,-3 -5,-8l0 -20 10 0 0 -9 -10 0 0 -13 -12 3z"/>
   <path id="4" class="fil11" d="M4345 719l-12 0 0 28c0,1 0,2 0,3 -2,3 -5,6 -9,6 -6,0 -9,-5 -9,-12l0 -25 -11 0 0 27c0,15 7,20 16,20 8,0 12,-5 14,-8l0 0 1 6 10 0c0,-3 0,-8 0,-13l0 -32z"/>
   <path id="5" class="fil11" d="M4354 762c4,2 9,3 14,3 12,0 18,-6 18,-14 0,-6 -3,-11 -12,-14 -5,-2 -8,-3 -8,-6 0,-3 3,-5 7,-5 4,0 7,2 9,3l3 -8c-3,-2 -7,-3 -12,-3 -11,0 -18,6 -18,14 0,6 4,11 13,14 6,2 7,3 7,6 0,3 -2,5 -7,5 -4,0 -9,-1 -12,-3l-2 8z"/>
   <path id="6" class="fil11" d="M4445 698l0 26 0 0c-2,-3 -6,-6 -12,-6 -11,0 -21,9 -21,24 0,14 9,24 20,24 6,0 12,-4 14,-9l1 0 0 7 10 0c0,-3 0,-8 0,-12l0 -54 -12 0zm0 47c0,1 0,2 0,3 -1,5 -5,8 -10,8 -7,0 -11,-6 -11,-14 0,-8 4,-15 11,-15 6,0 9,4 10,8 0,1 0,2 0,3l0 7z"/>
   <path id="7" class="fil11" d="M4505 764c0,-2 -1,-6 -1,-10l0 -17c0,-10 -4,-19 -18,-19 -8,0 -13,2 -17,4l2 8c4,-2 8,-4 13,-4 8,0 9,5 9,8l0 1c-17,0 -27,6 -27,17 0,7 5,14 14,14 6,0 11,-3 14,-7l0 0 1 5 10 0zm-12 -15c0,0 0,1 0,2 -1,3 -5,6 -9,6 -4,0 -7,-2 -7,-6 0,-7 8,-9 16,-9l0 7z"/>
   <path id="8" class="fil11" d="M4514 762c3,2 8,3 13,3 12,0 19,-6 19,-14 0,-6 -4,-11 -12,-14 -6,-2 -8,-3 -8,-6 0,-3 2,-5 6,-5 4,0 8,2 10,3l2 -8c-3,-2 -7,-3 -12,-3 -11,0 -17,6 -17,14 0,6 3,11 12,14 6,2 8,3 8,6 0,3 -2,5 -7,5 -5,0 -10,-1 -12,-3l-2 8z"/>
   <path id="9" class="fil11" d="M4070 798c-17,0 -29,14 -29,33 0,18 11,32 28,32 18,0 30,-12 30,-33 0,-18 -10,-32 -29,-32zm0 9c11,0 17,11 17,23 0,13 -6,24 -17,24 -11,0 -17,-10 -17,-23 0,-13 6,-24 17,-24z"/>
   <path id="10" class="fil11" d="M4109 880l12 0 0 -23 0 0c2,3 7,6 12,6 11,0 21,-8 21,-24 0,-15 -9,-23 -19,-23 -7,0 -12,2 -15,8l-1 0 0 -7 -10 0c0,4 0,9 0,15l0 48zm12 -44c0,-1 0,-2 0,-3 1,-5 5,-8 10,-8 8,0 11,6 11,14 0,9 -4,15 -11,15 -5,0 -9,-3 -10,-8 0,-1 0,-2 0,-3l0 -7z"/>
   <path id="11" class="fil11" d="M4184 816c-14,0 -23,9 -23,24 0,14 9,23 22,23 12,0 24,-8 24,-24 0,-14 -9,-23 -23,-23zm0 8c8,0 11,8 11,15 0,9 -5,16 -11,16 -7,0 -12,-7 -12,-16 0,-7 4,-15 12,-15z"/>
   <path id="12" class="fil11" d="M4216 862l11 0 0 -24c0,-1 1,-2 1,-3 1,-5 5,-9 10,-9 1,0 2,0 3,1l0 -11c-1,0 -1,0 -2,0 -5,0 -10,3 -13,9l0 0 0 -8 -10 0c0,4 0,8 0,14l0 31z"/>
   <path id="13" class="fil11" d="M4253 806l0 11 -6 0 0 8 6 0 0 21c0,6 1,10 4,13 2,2 5,4 10,4 3,0 6,-1 8,-1l0 -9c-1,0 -3,0 -5,0 -4,0 -6,-2 -6,-8l0 -20 11 0 0 -8 -11 0 0 -13 -11 2z"/>
   <path id="14" class="fil11" d="M4324 817l-11 0 0 27c0,1 0,2 -1,3 -1,3 -4,7 -8,7 -6,0 -9,-5 -9,-13l0 -24 -11 0 0 26c0,15 7,20 16,20 8,0 12,-5 14,-8l0 0 1 7 10 0c0,-4 -1,-8 -1,-14l0 -31z"/>
   <path id="15" class="fil11" d="M4337 862l11 0 0 -27c0,-1 0,-2 1,-3 1,-4 4,-7 9,-7 6,0 8,5 8,11l0 26 12 0 0 -27c0,-14 -8,-19 -16,-19 -8,0 -13,4 -15,7l0 0 0 -6 -11 0c1,3 1,8 1,13l0 32z"/>
   <path id="16" class="fil11" d="M4402 862l0 -45 -12 0 0 45 12 0zm-6 -64c-4,0 -7,2 -7,6 0,3 3,6 7,6 4,0 6,-3 6,-6 0,-4 -2,-6 -6,-6z"/>
   <path id="17" class="fil11" d="M4444 796l0 25 0 0c-2,-3 -6,-5 -13,-5 -11,0 -20,9 -20,24 0,14 9,23 19,23 7,0 12,-3 15,-8l0 0 1 7 10 0c0,-3 0,-8 0,-13l0 -53 -12 0zm0 46c0,1 0,3 0,4 -1,5 -5,8 -10,8 -7,0 -11,-6 -11,-15 0,-8 4,-15 11,-15 5,0 9,4 10,8 0,1 0,2 0,3l0 7z"/>
   <path id="18" class="fil11" d="M4504 862c-1,-3 -1,-7 -1,-11l0 -16c0,-10 -4,-19 -19,-19 -7,0 -13,1 -16,4l2 7c3,-2 8,-3 12,-3 8,0 10,5 10,8l0 0c-17,0 -27,6 -27,17 0,7 5,14 14,14 6,0 11,-3 13,-6l1 0 0 5 11 0zm-12 -16c0,1 0,2 0,2 -1,4 -5,7 -9,7 -4,0 -7,-2 -7,-7 0,-7 8,-8 16,-8l0 6z"/>
   <path id="19" class="fil11" d="M4546 796l0 25 -1 0c-2,-3 -6,-5 -12,-5 -11,0 -21,9 -21,24 0,14 9,23 20,23 6,0 12,-3 14,-8l1 0 0 7 10 0c0,-3 0,-8 0,-13l0 -53 -11 0zm0 46c0,1 -1,3 -1,4 -1,5 -5,8 -10,8 -7,0 -11,-6 -11,-15 0,-8 4,-15 11,-15 6,0 9,4 10,8 0,1 1,2 1,3l0 7z"/>
   <path id="20" class="fil11" d="M4608 842c0,-1 0,-2 0,-4 0,-10 -5,-22 -19,-22 -15,0 -23,11 -23,24 0,14 9,23 24,23 6,0 12,-1 16,-3l-2 -8c-4,1 -7,2 -13,2 -7,0 -13,-3 -14,-12l31 0zm-31 -8c1,-4 4,-11 11,-11 8,0 9,7 9,11l-20 0z"/>
   <path id="21" class="fil11" d="M4614 860c4,1 9,3 14,3 12,0 19,-6 19,-14 0,-7 -4,-11 -12,-14 -6,-2 -8,-4 -8,-7 0,-2 2,-4 6,-4 4,0 8,1 10,2l2 -8c-3,-1 -7,-2 -12,-2 -11,0 -17,6 -17,14 0,5 3,10 12,13 6,2 8,4 8,7 0,3 -3,5 -8,5 -4,0 -9,-2 -11,-4l-3 9z"/>
   <path class="fil11" d="M4977 804l6 18 12 0 -20 -63 -15 0 -20 63 12 0 5 -18 20 0zm-18 -9l5 -15c1,-4 2,-8 3,-12l0 0c1,4 2,8 3,12l5 15 -16 0z"/>
   <path id="1" class="fil11" d="M5004 766l0 11 -6 0 0 8 6 0 0 21c0,6 1,10 4,13 2,2 5,4 9,4 4,0 7,-1 9,-1l0 -9c-1,0 -3,1 -5,1 -4,0 -6,-3 -6,-9l0 -20 11 0 0 -8 -11 0 0 -13 -11 2z"/>
   <path id="2" class="fil11" d="M5046 822l0 -45 -11 0 0 45 11 0zm-5 -64c-4,0 -7,2 -7,6 0,3 3,6 6,6 4,0 7,-3 7,-6 0,-4 -3,-6 -6,-6z"/>
   <path id="3" class="fil11" d="M5054 777l16 45 12 0 17 -45 -12 0 -7 23c-2,4 -3,7 -3,11l-1 0c-1,-4 -1,-7 -3,-11l-7 -23 -12 0z"/>
   <path id="4" class="fil11" d="M5117 822l0 -45 -11 0 0 45 11 0zm-5 -64c-4,0 -7,2 -7,6 0,3 3,6 7,6 4,0 6,-3 6,-6 0,-4 -2,-6 -6,-6z"/>
   <path id="5" class="fil11" d="M5160 756l0 25 0 0c-2,-3 -7,-5 -13,-5 -11,0 -20,9 -20,24 0,14 8,23 19,23 7,0 12,-3 15,-8l0 0 1 7 10 0c0,-3 -1,-8 -1,-13l0 -53 -11 0zm0 46c0,1 0,3 0,4 -1,5 -6,8 -10,8 -7,0 -12,-6 -12,-15 0,-8 5,-15 12,-15 5,0 9,4 10,8 0,1 0,3 0,3l0 7z"/>
   <path id="6" class="fil11" d="M5220 822c-1,-3 -1,-7 -1,-11l0 -16c0,-10 -4,-19 -19,-19 -7,0 -13,1 -16,4l2 7c3,-2 8,-3 12,-3 8,0 9,5 9,8l0 0c-16,0 -26,6 -26,17 0,7 5,14 14,14 6,0 10,-3 13,-6l1 0 0 5 11 0zm-12 -16c0,1 0,2 -1,2 -1,4 -4,7 -9,7 -3,0 -6,-2 -6,-7 0,-7 8,-8 16,-8l0 6z"/>
   <path id="7" class="fil11" d="M5261 756l0 25 0 0c-2,-3 -6,-5 -13,-5 -10,0 -20,9 -20,24 0,14 9,23 19,23 7,0 13,-3 15,-8l0 0 1 7 10 0c0,-3 0,-8 0,-13l0 -53 -12 0zm0 46c0,1 0,3 0,4 -1,5 -5,8 -10,8 -7,0 -11,-6 -11,-15 0,-8 4,-15 11,-15 5,0 9,4 10,8 0,1 0,3 0,3l0 7z"/>
   <path id="8" class="fil11" d="M5324 802c0,-1 0,-2 0,-4 0,-10 -5,-22 -20,-22 -14,0 -22,11 -22,24 0,14 9,23 24,23 6,0 11,-1 15,-3l-1 -8c-4,1 -8,2 -13,2 -7,0 -14,-3 -14,-12l31 0zm-31 -8c1,-4 4,-11 11,-11 7,0 9,7 9,11l-20 0z"/>
   <path id="9" class="fil11" d="M5330 820c4,2 9,3 14,3 12,0 18,-6 18,-14 0,-7 -3,-11 -12,-14 -5,-2 -8,-4 -8,-7 0,-2 3,-4 7,-4 4,0 7,1 9,2l3 -8c-3,-1 -7,-2 -12,-2 -11,0 -17,6 -17,14 -1,5 3,10 12,13 6,2 7,4 7,7 0,3 -2,5 -7,5 -4,0 -9,-2 -11,-4l-3 9z"/>
   <path class="fil11" d="M5843 795l6 18 12 0 -21 -63 -14 0 -20 63 12 0 5 -18 20 0zm-18 -9l5 -15c1,-4 2,-8 3,-12l0 0c1,4 2,8 3,12l5 15 -16 0z"/>
   <path id="1" class="fil11" d="M5899 767l0 6 0 0c-2,-3 -6,-7 -13,-7 -11,0 -21,9 -21,24 0,13 8,22 19,22 6,0 11,-2 14,-6l0 0 0 4c0,9 -6,13 -13,13 -6,0 -11,-1 -14,-3l-2 8c4,3 10,4 16,4 6,0 13,-1 17,-5 5,-5 7,-11 7,-21l0 -26c0,-6 0,-10 0,-13l-10 0zm-1 26c0,1 -1,3 -1,4 -1,4 -5,7 -9,7 -7,0 -11,-6 -11,-14 0,-9 4,-15 11,-15 5,0 8,3 9,7 0,1 1,2 1,3l0 8z"/>
   <path id="2" class="fil11" d="M5960 793c0,-1 0,-2 0,-5 0,-10 -5,-22 -19,-22 -15,0 -23,12 -23,25 0,14 9,23 24,23 6,0 12,-2 16,-3l-2 -8c-4,1 -7,2 -13,2 -7,0 -13,-4 -14,-12l31 0zm-31 -8c1,-4 4,-11 11,-11 7,0 9,7 9,11l-20 0z"/>
   <path id="3" class="fil11" d="M5969 813l12 0 0 -27c0,-1 0,-3 0,-4 1,-3 5,-6 9,-6 6,0 9,5 9,11l0 26 11 0 0 -27c0,-15 -8,-20 -16,-20 -7,0 -12,5 -14,8l-1 0 0 -7 -10 0c0,4 0,9 0,14l0 32z"/>
   <path id="4" class="fil11" d="M6053 747l0 25 0 0c-2,-3 -7,-6 -13,-6 -11,0 -20,9 -20,25 0,13 8,23 19,23 7,0 12,-3 15,-8l0 0 0 7 11 0c-1,-3 -1,-8 -1,-13l0 -53 -11 0zm0 46c0,1 0,2 -1,3 -1,5 -5,8 -9,8 -8,0 -12,-6 -12,-14 0,-8 4,-15 12,-15 5,0 9,4 10,8 0,1 0,2 0,3l0 7z"/>
   <path id="5" class="fil11" d="M6112 813c0,-3 0,-7 0,-11l0 -17c0,-9 -4,-19 -19,-19 -7,0 -13,2 -16,4l2 8c3,-2 8,-4 12,-4 8,0 9,5 9,8l0 1c-16,0 -27,6 -27,17 0,7 5,14 15,14 5,0 10,-3 13,-6l0 0 1 5 10 0zm-11 -16c0,1 -1,1 -1,2 -1,4 -4,7 -9,7 -3,0 -6,-3 -6,-7 0,-7 7,-9 16,-8l0 6z"/>
   <g>
    <circle class="fil3" cx="1920" cy="305" r="305"/>
    <g>
     <path class="fil12" d="M2071 286c0,5 -4,10 -10,10l-26 0c-6,0 -10,-5 -10,-10l0 -3c0,-5 4,-10 10,-10l26 0c6,0 10,5 10,10l0 3z"/>
     <path class="fil12" d="M1770 286c0,5 4,10 10,10l26 0c5,0 10,-5 10,-10l0 -3c0,-5 -5,-10 -10,-10l-26 0c-6,0 -10,5 -10,10l0 3z"/>
     <path class="fil12" d="M1927 505l-13 0c-2,0 -4,2 -4,4l0 18c0,3 2,4 4,4l13 0c2,0 4,-1 4,-4l0 -18c0,-2 -2,-4 -4,-4z"/>
     <path class="fil12" d="M2026 505l-13 0c-2,0 -4,2 -4,4l0 18c0,3 2,4 4,4l13 0c2,0 4,-1 4,-4l0 -18c0,-2 -2,-4 -4,-4z"/>
     <path class="fil12" d="M1827 505l-12 0c-2,0 -4,2 -4,4l0 18c0,3 2,4 4,4l12 0c3,0 5,-1 5,-4l0 -18c0,-2 -2,-4 -5,-4z"/>
     <polygon class="fil17" points="1902,425 1939,425 1939,396 1902,396 "/>
     <polygon class="fil17" points="1914,505 1927,505 1927,425 1914,425 "/>
     <polygon class="fil12" points="1871,343 1970,343 1970,324 1871,324 "/>
     <path class="fil17" d="M2013 505l0 -9c0,-4 -1,-7 -3,-9 -3,-2 -6,-4 -9,-4l-74 0 0 -12 74 0c7,0 13,3 17,7 5,5 8,11 8,18l0 9 -13 0z"/>
     <path class="fil17" d="M1815 505l0 -9c0,-7 3,-13 7,-18 5,-4 11,-7 18,-7l74 0 0 12 -74 0c-4,0 -7,2 -9,4 -2,2 -4,5 -4,9l0 9 -12 0z"/>
     <path class="fil13" d="M2014 113c0,-19 -16,-35 -35,-35l-117 0c-19,0 -35,16 -35,35l0 176c0,19 16,35 35,35l117 0c19,0 35,-16 35,-35l0 -176z"/>
     <path class="fil17" d="M1815 383c-8,0 -15,-3 -20,-9 -6,-5 -9,-13 -9,-20l0 -58 13 0 0 58c0,4 2,8 5,11 3,3 7,5 11,5l0 13z"/>
     <path class="fil17" d="M2026 370c4,0 8,-2 11,-5 3,-3 4,-7 4,-11l0 -58 14 0 0 58c0,7 -3,15 -9,20 -5,6 -13,9 -20,9l0 -13z"/>
     <path class="fil13" d="M2026 390c0,2 -1,3 -2,4 -1,2 -3,2 -4,2l-199 0c-2,0 -3,0 -4,-2 -1,-1 -2,-2 -2,-4l0 -23c0,-6 2,-12 7,-17 4,-4 10,-7 16,-7l164 0c6,0 12,3 17,7 4,5 7,11 7,17l0 23z"/>
     <path class="fil12" d="M1969 155c0,3 -2,7 -5,10 -2,3 -6,4 -10,4l-67 0c-4,0 -8,-1 -11,-4 -3,-3 -4,-7 -4,-10l0 -77 97 0 0 77z"/>
    </g>
   </g>
   <g>
    <circle class="fil3" cx="2728" cy="305" r="305"/>
    <g>
     <path class="fil18" d="M2737 143l-164 0c-20,0 -36,16 -36,35l0 97c0,19 15,34 33,35l0 39 37 -39 130 0c19,0 35,-15 35,-35l0 -97c0,-19 -16,-35 -35,-35z"/>
     <path class="fil19" d="M2652 280c-13,-9 -25,-18 -38,-27 -20,-13 -30,-36 -23,-53 5,-13 15,-21 30,-22 13,-2 23,3 29,15 1,2 2,5 2,7 0,27 0,54 0,80z"/>
     <path class="fil20" d="M2652 280c13,-9 25,-18 38,-27 20,-13 30,-36 23,-53 -5,-13 -15,-21 -29,-22 -14,-2 -23,3 -30,15 -1,2 -2,5 -2,7 0,27 0,54 0,80z"/>
     <path class="fil21" d="M2883 259l-163 0c-20,0 -36,16 -36,35l0 97c0,19 16,35 36,35l9 0 40 41 0 -41 114 0c20,0 36,-16 36,-35l0 -97c0,-19 -16,-35 -36,-35z"/>
     <path class="fil22" d="M2771 335c0,0 1,-1 2,-3 4,-8 16,-31 16,-33 1,-4 1,-26 1,-26 0,0 15,-9 20,16 6,26 -1,29 -1,29l5 0 35 -3c4,-1 8,3 8,8 1,5 -2,9 -7,9l-10 1 0 1 13 -2c5,0 9,4 10,8 0,5 -3,10 -8,10l-1 0c3,1 6,4 7,8 0,5 -3,9 -7,9l-3 1c3,1 5,4 5,7 1,5 -2,9 -6,10l-21 2c-9,1 -19,3 -27,3 -11,0 -19,-2 -25,-4 -3,-1 -6,-2 -8,-3 -1,0 -2,0 -2,-1l0 -46c0,-2 4,-1 4,-1z"/>
     <path class="fil23" d="M2763 360l0 -25c0,-2 -2,-4 -5,-4l-19 0c-2,0 -4,2 -4,4l0 25 28 0z"/>
     <path class="fil24" d="M2763 385l0 -25 -28 0 0 25c0,3 2,5 4,5l19 0c3,0 5,-2 5,-5z"/>
     <path class="fil18" d="M2749 384c-2,0 -4,-2 -4,-4 0,-3 2,-5 4,-5 3,0 5,2 5,5 0,2 -2,4 -5,4z"/>
    </g>
   </g>
   <g>
    <circle class="fil3" cx="3536" cy="305" r="305"/>
    <g>
     <polygon class="fil25" points="3392,104 3392,492 3680,492 3680,182 3602,105 "/>
     <polygon class="fil26" points="3680,182 3602,105 3602,183 "/>
     <polygon class="fil27" points="3612,183 3680,261 3680,182 "/>
     <polygon class="fil28" points="3419,229 3612,229 3612,221 3419,221 "/>
     <polygon class="fil28" points="3419,249 3612,249 3612,241 3419,241 "/>
     <polygon class="fil28" points="3419,268 3612,268 3612,260 3419,260 "/>
     <polygon class="fil28" points="3419,288 3612,288 3612,280 3419,280 "/>
     <polygon class="fil28" points="3419,307 3612,307 3612,299 3419,299 "/>
     <polygon class="fil28" points="3419,327 3612,327 3612,319 3419,319 "/>
     <polygon class="fil28" points="3419,346 3612,346 3612,339 3419,339 "/>
     <polygon class="fil28" points="3419,366 3612,366 3612,358 3419,358 "/>
     <polygon class="fil28" points="3419,385 3612,385 3612,378 3419,378 "/>
     <polygon class="fil28" points="3419,405 3612,405 3612,397 3419,397 "/>
     <polygon class="fil28" points="3419,424 3612,424 3612,417 3419,417 "/>
     <polygon class="fil28" points="3419,444 3612,444 3612,436 3419,436 "/>
     <polygon class="fil28" points="3419,463 3612,463 3612,456 3419,456 "/>
     <polygon class="fil29" points="3419,168 3535,168 3535,130 3419,130 "/>
     <path class="fil29" d="M3451 498l1 8 0 0 2 -9c-1,1 -2,1 -3,1 0,0 0,0 0,0z"/>
     <path class="fil29" d="M3448 498l4 8 -1 -8c-1,1 -2,0 -3,0z"/>
     <path class="fil30" d="M3451 497l-5 -30 -19 3 0 -1c0,1 0,1 0,1 2,13 11,27 21,28l-1 -1 4 0z"/>
     <path class="fil31" d="M3446 467l5 30 4 -1 -1 1c9,-4 14,-20 12,-33 0,0 0,0 0,0l0 0 -20 3z"/>
     <path class="fil31" d="M3451 497l0 1c0,0 0,0 0,0 1,0 2,0 3,-1l1 -1 -4 1z"/>
     <path class="fil31" d="M3451 497l-4 0 1 1c1,0 2,1 3,0l0 -1z"/>
     <path class="fil30" d="M3417 271l-2 -18c-11,2 -19,11 -17,20 0,1 0,1 0,2l0 -1 19 -3z"/>
     <path class="fil31" d="M3438 268l0 1c0,-1 0,-1 -1,-2 -1,-9 -11,-16 -22,-14 0,0 0,0 0,0l2 18 21 -3z"/>
     <path class="fil32" d="M3429 453l-4 1c0,0 0,0 -1,0l1 1c0,0 0,0 0,0l4 -1 15 -2 0 -1 -15 2z"/>
     <path class="fil33" d="M3464 448l-5 1 -15 2 0 1 16 -2 4 -1c0,0 0,0 0,0l0 -1c0,0 0,0 0,0z"/>
     <path class="fil32" d="M3428 457l-3 1c0,0 0,0 0,0l2 11 0 1 19 -3 -2 -12 -16 2z"/>
     <path class="fil33" d="M3464 452l-2 0 -18 3 2 12 20 -3 0 0 -1 -12c0,0 0,0 -1,0z"/>
     <path class="fil33" d="M3439 283l-10 1 -10 1 1 2 23 155 0 6 14 -2 7 -1c0,0 0,0 0,0l-24 -163c-1,0 -1,1 -1,1z"/>
     <path class="fil32" d="M3398 274l0 1 1 7c0,0 1,0 1,0l2 0 17 -3 -2 -8 -19 3z"/>
     <path class="fil33" d="M3417 271l2 8 17 -2 2 0c0,0 0,0 1,0l-1 -8 0 -1 -21 3z"/>
     <path class="fil32" d="M3411 287l-10 1c0,0 -1,0 -1,0l24 163c0,0 0,0 0,0l7 -1 12 -2 0 -6 -23 -155 -1 -2 -8 2z"/>
     <path class="fil30" d="M3402 282l-2 0c0,0 -1,0 -1,0 -1,1 -2,2 -2,4 1,1 2,2 3,2 0,0 1,0 1,0l10 -1 8 -2 0 -6 -17 3z"/>
     <path class="fil31" d="M3440 277c0,0 -1,0 -1,0 -1,0 -1,0 -1,0l-2 0 -17 2 0 6 10 -1 10 -1c0,0 0,-1 1,-1 0,0 1,0 1,-1l5 -1 8 55c-3,0 -6,4 -5,8 0,5 4,8 8,7l0 0 4 0 -11 -74 -10 1z"/>
     <path class="fil31" d="M3464 445c0,0 0,0 0,0l-7 1 -14 2 1 3 15 -2 5 -1c0,0 0,0 0,0 1,0 1,-1 1,-1 0,-1 -1,-2 -1,-2z"/>
     <path class="fil30" d="M3431 450l-7 1c0,0 0,0 0,0 -1,0 -1,1 -1,2 0,0 1,1 1,1 1,0 1,0 1,0l4 -1 15 -2 -1 -3 -12 2z"/>
     <path class="fil31" d="M3464 449c0,0 0,0 0,0l-4 1 -16 2 0 3 18 -3 2 0c1,0 1,0 1,0 0,0 1,-1 1,-2 0,0 -1,-1 -2,-1z"/>
     <path class="fil30" d="M3429 454l-4 1c0,0 0,0 0,0 -1,0 -2,1 -1,2 0,0 0,1 1,1 0,0 0,0 0,0l3 -1 16 -2 0 -3 -15 2z"/>
    </g>
   </g>
   <g>
    <circle class="fil3" cx="4344" cy="305" r="305"/>
    <g>
     <polygon class="fil34" points="4552,263 4566,291 4596,295 4574,317 4579,347 4552,333 4525,347 4530,317 4508,295 4538,291 "/>
     <polygon class="fil35" points="4122,291 4091,295 4113,317 4108,347 4135,333 4135,263 "/>
     <polygon class="fil36" points="4179,295 4149,291 4135,263 4135,333 4163,347 4157,317 "/>
     <polygon class="fil35" points="4239,263 4226,291 4195,295 4217,317 4212,347 4239,333 "/>
     <polygon class="fil36" points="4261,317 4284,295 4253,291 4239,263 4239,333 4267,347 "/>
     <polygon class="fil35" points="4344,263 4330,291 4300,295 4322,317 4316,347 4344,333 "/>
     <polygon class="fil36" points="4366,317 4388,295 4357,291 4344,263 4344,333 4371,347 "/>
     <polygon class="fil35" points="4434,291 4403,295 4426,317 4420,347 4448,333 4448,263 "/>
     <polygon class="fil36" points="4492,295 4461,291 4448,263 4448,333 4475,347 4470,317 "/>
    </g>
   </g>
   <g>
    <circle class="fil3" cx="5151" cy="305" r="305"/>
    <g>
     <path class="fil18" d="M5104 475c-1,-3 -2,-6 -2,-9 -1,-3 -2,-6 -3,-9 -1,-2 -2,-5 -3,-8 -1,-3 -2,-5 -3,-8 -1,-2 -2,-4 -3,-6 -1,-2 -2,-4 -3,-6 -1,-2 -2,-3 -2,-4 -2,-3 -3,-4 -3,-4 0,0 2,1 4,3 2,2 5,4 8,8 2,2 3,4 5,7 1,2 3,4 4,7 1,3 2,6 4,9 1,3 2,6 3,9 0,3 1,6 2,9 0,1 0,2 0,2l82 0 3 -36 -13 -25 2 -7 13 -7 6 -1 22 4 -6 11 -12 25 3 36 81 0c0,-2 1,-5 1,-7 1,-4 2,-7 3,-10 2,-3 3,-6 4,-8 1,-3 3,-6 4,-8 2,-2 4,-4 5,-6 3,-4 6,-7 8,-9 2,-2 4,-2 4,-2 0,0 -1,1 -3,3 0,1 -1,3 -2,5 -1,1 -2,3 -3,5 -1,2 -2,4 -3,7 -1,2 -2,5 -3,8 -1,2 -2,5 -3,8 -1,3 -2,6 -3,9 0,2 -1,3 -1,5l52 0c-7,-29 -32,-98 -96,-111l-54 35 -50 -34c0,0 -86,12 -102,110l53 0c0,0 0,0 0,0z"/>
     <polygon class="fil37" points="5221,414 5220,407 5205,399 5199,400 5187,409 5184,414 5197,439 5194,475 5212,475 5209,439 "/>
     <path class="fil38" d="M5110 464c-1,-3 -2,-6 -3,-9 -2,-3 -3,-6 -4,-9 -1,-3 -3,-5 -4,-7 -2,-3 -3,-5 -5,-7 -3,-4 -6,-6 -8,-8 -2,-2 -4,-3 -4,-3 0,0 1,1 3,4 0,1 1,2 2,4 1,2 2,4 3,6 1,2 2,4 3,6 1,3 2,5 3,8 1,3 2,6 3,8 1,3 2,6 3,9 0,3 1,6 2,9 0,0 0,0 0,0l8 0c0,0 0,-1 0,-2 -1,-3 -2,-6 -2,-9z"/>
     <path class="fil38" d="M5305 461c1,-3 2,-6 3,-8 1,-3 2,-6 3,-8 1,-3 2,-5 3,-7 1,-2 2,-4 3,-5 1,-2 2,-4 2,-5 2,-2 3,-3 3,-3 0,0 -2,0 -4,2 -2,2 -5,5 -8,9 -1,2 -3,4 -5,6 -1,2 -3,5 -4,8 -1,2 -2,5 -4,8 -1,3 -2,6 -3,10 0,2 -1,5 -1,7l8 0c0,-2 1,-3 1,-5 1,-3 2,-6 3,-9z"/>
     <polygon class="fil39" points="5164,399 5240,399 5240,310 5164,310 "/>
     <polygon class="fil40" points="5164,357 5242,313 5164,296 "/>
     <polygon class="fil41" points="5221,414 5227,403 5205,399 "/>
     <polygon class="fil41" points="5199,400 5186,407 5184,414 5187,409 "/>
     <polygon class="fil38" points="5158,354 5203,399 5175,422 5149,364 "/>
     <polygon class="fil38" points="5248,354 5203,399 5233,423 5257,364 "/>
     <path class="fil39" d="M5107 201c0,67 41,121 93,122l0 -221c-51,1 -93,32 -93,99z"/>
     <path class="fil39" d="M5205 102c-2,0 -3,0 -5,0l0 221c1,0 2,1 3,1 53,0 96,-56 96,-123 0,-68 -41,-99 -94,-99z"/>
     <path class="fil42" d="M5305 182c-2,-30 -14,-52 -14,-52 8,-37 -27,-47 -63,-48 -34,-1 -69,6 -74,8 -5,2 -12,2 -17,3 -5,0 -9,0 -9,0 0,0 1,2 2,4 1,2 1,4 1,4 -1,0 -2,-1 -4,-1 -8,-3 -20,-10 -20,-10 -1,10 1,19 4,26 3,6 6,10 6,10 -2,0 -8,-2 -8,-2 1,8 3,12 3,12 -13,9 -16,36 -16,58l22 26 8 -19c0,0 0,0 0,0 6,-19 10,-49 10,-49 58,37 112,8 121,2 2,-2 2,-3 2,-3 4,37 29,62 29,62 -2,-16 16,-28 17,-29 0,0 0,0 0,0 0,-1 0,-1 0,-2z"/>
     <path class="fil1" d="M5289 208c-2,14 2,27 9,28 7,1 14,-10 16,-24 2,-14 -2,-27 -9,-28 -7,-1 -14,10 -16,24z"/>
     <path class="fil39" d="M5113 207c1,14 -3,26 -9,27 -6,0 -13,-11 -14,-25 -1,-14 3,-26 9,-26 6,-1 13,10 14,24z"/>
     <path class="fil18" d="M5107 185c0,0 16,-80 92,-80 77,0 97,69 97,69l-12 2c0,0 -19,-53 -83,-53 -63,0 -86,62 -86,62l-8 0z"/>
     <path class="fil18" d="M5287 180c0,0 7,63 6,67 0,0 24,3 25,-16l0 -34c0,0 -1,-11 -16,-17l-12 0 -3 0z"/>
     <path class="fil37" d="M5220 282c0,0 54,-4 76,-29 0,0 5,-4 9,3 4,8 -54,34 -85,36 0,0 -2,5 -17,6 -16,0 -19,-5 -19,-5 0,0 -7,-9 1,-15 9,-6 16,-3 16,-3 0,0 16,0 19,7z"/>
     <g>
      <path class="fil43" d="M5058 302l109 87c-1,0 -3,10 -3,10l-14 52 -182 -3 -15 -53c0,0 -3,-6 -3,-6l108 -87z"/>
      <polygon class="fil44" points="4970,443 5143,443 5143,345 4970,345 "/>
      <path class="fil1" d="M5157 451l-4 0 0 -48 -20 15c4,2 7,5 7,8 0,4 -5,8 -11,8l-15 0 -4 3 -37 30 -3 23 -27 -12 6 -6 -46 -38 -16 0c-6,0 -10,-4 -10,-8 0,-4 3,-7 7,-8l-21 -18 0 51 -4 0c-6,0 -10,5 -10,10l0 57c0,6 4,10 10,10l198 0c5,0 10,-4 10,-10l0 -57c0,-5 -5,-10 -10,-10z"/>
      <path class="fil26" d="M4987 394l142 0c6,0 11,4 11,8 0,5 -5,8 -11,8l-142 0c-6,0 -10,-3 -10,-8 0,-4 4,-8 10,-8zm0 -23l142 0c6,0 11,3 11,8 0,4 -5,8 -11,8l-142 0c-6,0 -10,-4 -10,-8 0,-5 4,-8 10,-8zm0 -24l142 0c6,0 11,4 11,8 0,5 -5,8 -11,8l-142 0c-6,0 -10,-3 -10,-8 0,-4 4,-8 10,-8zm0 71l142 0c2,0 3,0 4,0l20 -15 0 -59c0,-4 -3,-6 -7,-6l-176 0c-4,0 -7,2 -7,6l0 56 21 18c1,0 2,0 3,0z"/>
      <polygon class="fil26" points="5049,472 5043,478 5070,490 5073,467 5110,437 5114,434 5003,434 "/>
      <path class="fil45" d="M5088 455l-27 22c-1,1 -2,1 -3,1 -1,0 -2,0 -3,-1l-26 -22 -73 73c1,0 2,0 2,0l200 0c1,0 2,0 2,0l-72 -73z"/>
      <path class="fil46" d="M5167 392c0,-1 0,-2 0,-3l-72 60 72 72c0,-1 0,-1 0,-2l0 -127z"/>
      <path class="fil46" d="M4950 389c-1,1 -1,2 -1,3l0 127c0,1 0,1 1,2l72 -72 -72 -60z"/>
     </g>
    </g>
   </g>
   <g>
    <circle class="fil3" cx="5959" cy="305" r="305"/>
    <g>
     <path class="fil12" d="M6154 447c0,8 -6,14 -14,14l-362 0c-8,0 -14,-6 -14,-14l0 -245c0,-8 6,-14 14,-14l362 0c8,0 14,6 14,14l0 245z"/>
     <polygon class="fil13" points="5778,447 6140,447 6140,202 5778,202 "/>
     <polygon class="fil12" points="5812,188 5867,188 5867,180 5812,180 "/>
     <polygon class="fil12" points="6051,188 6106,188 6106,180 6051,180 "/>
     <polygon class="fil12" points="6022,188 6006,188 6006,164 5912,164 5912,188 5897,188 5897,149 6022,149 "/>
     <path class="fil12" d="M5959 242c-46,0 -83,37 -83,82 0,46 37,83 83,83 46,0 83,-37 83,-83 0,-45 -37,-82 -83,-82z"/>
     <path class="fil16" d="M6028 324c0,38 -31,69 -69,69 -38,0 -69,-31 -69,-69 0,-37 31,-68 69,-68 38,0 69,31 69,68z"/>
     <polygon class="fil47" points="5968,328 5999,328 5999,321 5968,321 "/>
     <polygon class="fil13" points="5955,364 5963,364 5963,333 5955,333 "/>
     <path class="fil47" d="M5959 339c-8,0 -14,-7 -14,-15 0,-7 6,-14 14,-14 8,0 14,7 14,14 0,8 -6,15 -14,15z"/>
     <path class="fil16" d="M5959 331c-4,0 -7,-3 -7,-7 0,-3 3,-6 7,-6 4,0 7,3 7,6 0,4 -3,7 -7,7z"/>
     <path class="fil13" d="M5959 328c-2,0 -4,-1 -4,-4 0,-2 2,-3 4,-3 2,0 4,1 4,3 0,3 -2,4 -4,4z"/>
     <path class="fil13" d="M5959 270c-2,0 -4,-2 -4,-4 0,-2 2,-4 4,-4 2,0 4,2 4,4 0,2 -2,4 -4,4z"/>
     <path class="fil13" d="M5932 277c-2,1 -4,1 -5,-1 -2,-2 -1,-4 1,-5 2,-1 4,-1 5,1 1,2 1,4 -1,5z"/>
     <path class="fil13" d="M5912 297c-1,2 -3,3 -5,2 -2,-1 -3,-4 -2,-6 1,-1 4,-2 6,-1 1,1 2,3 1,5z"/>
     <path class="fil13" d="M5905 324c0,3 -2,4 -4,4 -2,0 -4,-1 -4,-4 0,-2 2,-3 4,-3 2,0 4,1 4,3z"/>
     <path class="fil13" d="M5912 352c1,2 0,4 -1,5 -2,1 -5,0 -6,-1 -1,-2 0,-5 2,-6 2,-1 4,0 5,2z"/>
     <path class="fil13" d="M5932 372c2,1 2,3 1,5 -1,2 -3,2 -5,1 -2,-1 -3,-3 -1,-5 1,-2 3,-3 5,-1z"/>
     <path class="fil13" d="M5959 379c2,0 4,2 4,4 0,2 -2,4 -4,4 -2,0 -4,-2 -4,-4 0,-2 2,-4 4,-4z"/>
     <path class="fil13" d="M5986 372c2,-2 4,-1 6,1 1,2 0,4 -2,5 -2,1 -4,1 -5,-1 -1,-2 -1,-4 1,-5z"/>
     <path class="fil13" d="M6006 352c1,-2 4,-3 5,-2 2,1 3,4 2,6 -1,1 -4,2 -5,1 -2,-1 -3,-3 -2,-5z"/>
     <path class="fil13" d="M6013 324c0,-2 2,-3 4,-3 2,0 4,1 4,3 0,3 -2,4 -4,4 -2,0 -4,-1 -4,-4z"/>
     <path class="fil13" d="M6006 297c-1,-2 0,-4 2,-5 1,-1 4,0 5,1 1,2 0,5 -2,6 -1,1 -4,0 -5,-2z"/>
     <path class="fil13" d="M5986 277c-2,-1 -2,-3 -1,-5 1,-2 3,-2 5,-1 2,1 3,3 2,5 -1,2 -4,2 -6,1z"/>
    </g>
   </g>
   <g>
    <line class="fil48 str0" x1="305" y1="995" x2="305" y2= "1274" />
    <g>
     <path class="fil49" d="M3192 1299l-12 0 0 -25 12 0 0 25zm0 63l-12 0 0 -25 12 0 0 25zm0 62l-12 0 0 -25 12 0 0 25zm0 63l-12 0 0 -25 12 0 0 25zm0 62l-12 0 0 -25 12 0 0 25zm-6 76l-37 -88 2 1 2 1 3 1 2 1 2 1 3 1 2 1 2 0 3 1 2 0 2 1 3 0 2 0 2 0 3 0 2 0 2 0 3 0 2 0 2 0 3 0 2 -1 2 0 3 -1 2 0 2 -1 3 -1 2 -1 3 -1 2 -1 2 -1 3 -1 0 0 -38 88z"/>
    </g>
    <line class="fil48 str0" x1="5959" y1="1274" x2="305" y2= "1274" />
    <line class="fil48 str0" x1="1113" y1="995" x2="1113" y2= "1274" />
    <line class="fil48 str0" x1="1920" y1="995" x2="1920" y2= "1274" />
    <line class="fil48 str0" x1="2728" y1="995" x2="2728" y2= "1274" />
    <line class="fil48 str0" x1="3536" y1="995" x2="3536" y2= "1274" />
    <line class="fil48 str0" x1="4344" y1="995" x2="4344" y2= "1274" />
    <line class="fil48 str0" x1="5151" y1="995" x2="5151" y2= "1274" />
    <line class="fil48 str0" x1="5959" y1="995" x2="5959" y2= "1274" />
   </g>
   <line class="fil48 str0" x1="3186" y1="2943" x2="3186" y2= "2593" />
   <line class="fil48 str0" x1="4344" y1="2943" x2="1920" y2= "2943" />
   <g>
    <path class="fil49" d="M1920 3222l-37 -87 0 0 2 1 3 1 2 1 2 1 3 1 2 1 2 0 3 1 2 0 2 1 3 0 2 1 2 0 3 0 2 0 2 0 3 0 2 0 2 0 3 0 2 -1 2 0 3 -1 2 0 2 -1 3 0 2 -1 3 -1 2 -1 2 -1 3 -1 2 -1 -38 87zm-6 -69l13 0 0 25 -13 0 0 -25zm0 -62l13 0 0 25 -13 0 0 -25zm0 -63l13 0 0 25 -13 0 0 -25zm0 -62l13 0 0 25 -13 0 0 -25z"/>
   </g>
   <g>
    <path class="fil49" d="M2728 3222l-37 -87 0 0 2 1 2 1 3 1 2 1 2 1 3 1 2 0 2 1 3 0 2 1 2 0 3 1 2 0 2 0 3 0 2 0 2 0 3 0 2 0 3 0 2 -1 2 0 3 -1 2 0 2 -1 3 0 2 -1 2 -1 3 -1 2 -1 2 -1 3 -1 -38 87zm-6 -69l12 0 0 25 -12 0 0 -25zm0 -62l12 0 0 25 -12 0 0 -25zm0 -63l12 0 0 25 -12 0 0 -25zm0 -62l12 0 0 25 -12 0 0 -25z"/>
   </g>
   <g>
    <path class="fil49" d="M3536 3222l-38 -87 0 0 3 1 2 1 2 1 3 1 2 1 2 1 3 0 2 1 2 0 3 1 2 0 2 1 3 0 2 0 3 0 2 0 2 0 3 0 2 0 2 0 3 -1 2 0 2 -1 3 0 2 -1 2 0 3 -1 2 -1 2 -1 3 -1 2 -1 2 -1 -37 87zm-6 -69l12 0 0 25 -12 0 0 -25zm0 -62l12 0 0 25 -12 0 0 -25zm0 -63l12 0 0 25 -12 0 0 -25zm0 -62l12 0 0 25 -12 0 0 -25z"/>
   </g>
   <g>
    <path class="fil49" d="M4344 3222l-38 -87 0 0 2 1 3 1 2 1 2 1 3 1 2 1 3 0 2 1 2 0 3 1 2 0 2 1 3 0 2 0 2 0 3 0 2 0 2 0 3 0 2 0 2 -1 3 0 2 -1 2 0 3 -1 2 0 2 -1 3 -1 2 -1 2 -1 3 -1 2 -1 -37 87zm-7 -69l13 0 0 25 -13 0 0 -25zm0 -62l13 0 0 25 -13 0 0 -25zm0 -63l13 0 0 25 -13 0 0 -25zm0 -62l13 0 0 25 -13 0 0 -25z"/>
   </g>
   <path class="fil11" d="M1741 4128l11 0 -4 -63 -15 0 -8 25c-3,8 -5,15 -6,22l-1 0c-1,-7 -3,-14 -5,-22l-9 -25 -15 0 -4 63 11 0 1 -25c1,-9 1,-19 1,-27l0 0c2,8 4,16 7,24l8 27 9 0 9 -27c3,-8 6,-16 8,-24l0 0c0,8 0,18 1,26l1 26z"/>
   <path id="1" class="fil11" d="M1802 4108c0,-1 0,-2 0,-4 0,-10 -4,-22 -19,-22 -15,0 -22,11 -22,24 0,14 8,23 23,23 7,0 12,-1 16,-3l-2 -8c-3,1 -7,2 -12,2 -8,0 -14,-3 -14,-12l30 0zm-30 -8c0,-4 3,-11 10,-11 8,0 10,7 10,11l-20 0z"/>
   <polygon id="2" class="fil11" points="1812,4128 1823,4128 1823,4062 1812,4062 "/>
   <path id="3" class="fil11" d="M1836 4128l11 0 0 -27c0,-1 0,-3 1,-4 1,-3 4,-6 8,-6 7,0 9,5 9,12l0 25 12 0 0 -27c0,-14 -9,-19 -16,-19 -3,0 -6,0 -8,2 -2,1 -4,3 -6,5l0 0 0 -27 -11 0 0 66z"/>
   <path id="4" class="fil11" d="M1909 4082c-13,0 -23,9 -23,24 0,14 10,23 23,23 11,0 23,-7 23,-24 0,-14 -9,-23 -23,-23zm0 8c8,0 11,8 11,15 0,9 -5,16 -11,16 -7,0 -11,-7 -11,-16 0,-7 3,-15 11,-15z"/>
   <path id="5" class="fil11" d="M1941 4128l12 0 0 -24c0,-1 0,-2 0,-3 1,-5 5,-9 10,-9 2,0 3,0 4,1l0 -11c-1,0 -2,0 -3,0 -5,0 -10,3 -12,9l-1 0 0 -8 -10 0c0,4 0,8 0,14l0 31z"/>
   <path id="6" class="fil11" d="M1986 4128l0 -45 -12 0 0 45 12 0zm-6 -64c-4,0 -6,2 -6,6 0,3 2,6 6,6 4,0 7,-3 7,-6 -1,-4 -3,-6 -7,-6z"/>
   <path id="7" class="fil11" d="M2034 4128c0,-3 -1,-7 -1,-11l0 -16c0,-10 -4,-19 -18,-19 -8,0 -13,2 -17,4l3 7c3,-2 7,-3 12,-3 8,0 9,5 9,8l0 0c-17,0 -27,6 -27,17 0,7 5,14 14,14 6,0 11,-3 14,-6l0 0 1 5 10 0zm-12 -16c0,1 0,2 0,3 -1,3 -5,6 -9,6 -4,0 -7,-2 -7,-7 0,-7 8,-8 16,-8l0 6z"/>
   <path id="8" class="fil11" d="M2095 4062l0 26 0 0c-2,-4 -7,-6 -13,-6 -11,0 -20,9 -20,24 0,14 8,23 19,23 7,0 12,-3 15,-8l0 0 1 7 10 0c0,-3 -1,-8 -1,-13l0 -53 -11 0zm0 46c0,2 0,3 0,4 -1,5 -6,8 -10,8 -7,0 -12,-6 -12,-15 0,-8 5,-15 12,-15 5,0 9,4 10,9 0,0 0,2 0,3l0 6z"/>
   <path id="9" class="fil11" d="M2157 4108c0,-1 1,-2 1,-4 0,-10 -5,-22 -20,-22 -14,0 -22,11 -22,24 0,14 9,23 23,23 7,0 12,-1 16,-3l-2 -8c-3,1 -7,2 -12,2 -7,0 -14,-3 -14,-12l30 0zm-30 -8c0,-4 3,-11 10,-11 8,0 10,7 10,11l-20 0z"/>
   <path id="10" class="fil11" d="M1730 4225l12 0 0 -23c1,0 3,0 5,0 8,0 15,-2 20,-7 4,-3 5,-8 5,-14 0,-6 -2,-11 -6,-14 -4,-3 -10,-5 -18,-5 -8,0 -14,1 -18,1l0 62zm12 -54c1,0 3,0 6,0 8,0 13,4 13,11 0,7 -5,11 -14,11 -2,0 -4,0 -5,0l0 -22z"/>
   <path id="11" class="fil11" d="M1781 4225l11 0 0 -23c0,-1 0,-3 0,-4 1,-5 5,-8 11,-8 1,0 2,0 3,0l0 -11c-1,0 -2,0 -3,0 -4,0 -10,3 -12,10l0 0 -1 -9 -10 0c1,4 1,8 1,15l0 30z"/>
   <path id="12" class="fil11" d="M1833 4179c-13,0 -23,9 -23,24 0,14 10,23 23,23 11,0 23,-7 23,-24 0,-14 -9,-23 -23,-23zm0 8c8,0 11,8 11,16 0,9 -4,15 -11,15 -7,0 -11,-7 -11,-15 0,-8 3,-16 11,-16z"/>
   <path id="13" class="fil11" d="M1897 4215c-2,1 -5,2 -9,2 -8,0 -14,-5 -14,-14 0,-9 5,-15 14,-15 4,0 7,1 9,2l2 -9c-3,-1 -7,-2 -11,-2 -16,0 -25,11 -25,24 0,14 9,23 23,23 6,0 10,-1 13,-2l-2 -9z"/>
   <path id="14" class="fil11" d="M1945 4206c0,-1 0,-3 0,-5 0,-10 -5,-22 -19,-22 -15,0 -23,12 -23,24 0,14 9,23 24,23 6,0 12,-1 16,-3l-2 -7c-3,1 -7,2 -13,2 -7,0 -13,-4 -14,-12l31 0zm-31 -8c1,-5 4,-11 11,-11 8,0 9,7 9,11l-20 0z"/>
   <path id="15" class="fil11" d="M1952 4223c3,2 8,3 13,3 12,0 19,-6 19,-14 0,-7 -4,-11 -12,-14 -6,-2 -8,-3 -8,-6 0,-3 2,-5 6,-5 4,0 8,2 10,3l2 -8c-3,-2 -7,-3 -12,-3 -11,0 -17,6 -17,14 0,6 3,10 12,13 6,2 8,4 8,7 0,3 -3,5 -8,5 -4,0 -9,-2 -11,-3l-2 8z"/>
   <path id="16" class="fil11" d="M1990 4223c4,2 9,3 14,3 12,0 19,-6 19,-14 -1,-7 -4,-11 -13,-14 -5,-2 -7,-3 -7,-6 0,-3 2,-5 6,-5 4,0 8,2 9,3l3 -8c-3,-2 -7,-3 -12,-3 -11,0 -17,6 -17,14 -1,6 3,10 12,13 6,2 7,4 7,7 0,3 -2,5 -7,5 -4,0 -9,-2 -11,-3l-3 8z"/>
   <path id="17" class="fil11" d="M2053 4179c-14,0 -24,9 -24,24 0,14 10,23 23,23 11,0 23,-7 23,-24 0,-14 -9,-23 -22,-23zm-1 8c8,0 11,8 11,16 0,9 -4,15 -11,15 -7,0 -11,-7 -11,-15 0,-8 3,-16 11,-16z"/>
   <path id="18" class="fil11" d="M2082 4223c3,2 8,3 13,3 12,0 19,-6 19,-14 0,-7 -4,-11 -12,-14 -6,-2 -8,-3 -8,-6 0,-3 2,-5 6,-5 4,0 8,2 10,3l2 -8c-3,-2 -7,-3 -12,-3 -11,0 -17,6 -17,14 0,6 3,10 12,13 6,2 8,4 8,7 0,3 -2,5 -7,5 -5,0 -10,-2 -12,-3l-2 8z"/>
   <path class="fil11" d="M2531 4064c-17,0 -30,14 -30,33 0,18 12,32 29,32 18,0 30,-12 30,-33 0,-18 -10,-32 -29,-32zm0 9c11,0 17,12 17,23 0,14 -6,24 -17,24 -11,0 -17,-10 -17,-23 0,-13 6,-24 17,-24z"/>
   <path id="1" class="fil11" d="M2573 4072l0 11 -6 0 0 8 6 0 0 21c0,6 1,11 4,13 2,2 5,4 9,4 4,0 7,-1 9,-1l0 -9c-1,0 -3,1 -5,1 -4,0 -6,-3 -6,-9l0 -20 11 0 0 -8 -11 0 0 -13 -11 2z"/>
   <path id="2" class="fil11" d="M2615 4128l0 -45 -11 0 0 45 11 0zm-5 -64c-4,0 -7,2 -7,6 0,3 3,6 6,6 4,0 7,-3 7,-6 0,-4 -3,-6 -6,-6z"/>
   <path id="3" class="fil11" d="M2628 4128l11 0 0 -27c0,-1 0,-2 0,-4 1,-3 4,-6 9,-6 5,0 7,4 7,11l0 26 12 0 0 -27c0,-2 0,-3 0,-4 1,-3 4,-6 8,-6 6,0 8,4 8,12l0 25 11 0 0 -27c0,-14 -7,-19 -15,-19 -3,0 -6,1 -9,2 -2,2 -4,3 -5,6l-1 0c-2,-5 -6,-8 -12,-8 -8,0 -12,4 -14,7l0 0 -1 -6 -10 0c1,4 1,8 1,13l0 32z"/>
   <path id="4" class="fil11" d="M2718 4128l0 -45 -12 0 0 45 12 0zm-6 -64c-4,0 -6,2 -6,6 0,3 2,6 6,6 4,0 7,-3 7,-6 0,-4 -3,-6 -7,-6z"/>
   <path id="5" class="fil11" d="M2726 4128l38 0 0 -9 -24 0 0 0c3,-3 5,-5 7,-8l17 -21 0 -7 -36 0 0 9 22 0 0 0c-3,3 -5,5 -7,8l-17 21 0 7z"/>
   <path id="6" class="fil11" d="M2808 4128c0,-3 -1,-7 -1,-11l0 -16c0,-10 -4,-19 -18,-19 -8,0 -13,2 -17,4l3 7c3,-2 7,-3 12,-3 8,0 9,5 9,8l0 0c-17,0 -27,6 -27,17 0,7 5,14 14,14 6,0 11,-3 14,-6l0 0 1 5 10 0zm-12 -16c0,1 0,2 0,3 -1,3 -5,6 -9,6 -4,0 -7,-2 -7,-7 0,-7 8,-8 16,-8l0 6z"/>
   <path id="7" class="fil11" d="M2851 4118c-2,1 -5,2 -9,2 -8,0 -14,-5 -14,-15 0,-8 5,-14 14,-14 4,0 7,0 9,1l2 -8c-3,-1 -7,-2 -11,-2 -16,0 -25,10 -25,24 0,12 7,21 19,23l-4 7c5,1 7,2 7,4 0,2 -2,2 -4,2 -1,0 -3,0 -5,-1l-1 5c2,1 4,2 7,2 5,0 10,-2 10,-9 0,-4 -3,-6 -6,-7l2 -3c5,0 9,-1 11,-2l-2 -9z"/>
   <path id="8" class="fil11" d="M2897 4128c0,-3 -1,-7 -1,-11l0 -16c0,-10 -4,-19 -18,-19 -7,0 -13,2 -17,4l3 7c3,-2 7,-3 12,-3 8,0 9,5 9,8l0 0c-17,0 -27,6 -27,17 0,7 5,14 14,14 6,0 11,-3 14,-6l0 0 1 5 10 0zm-12 -16c0,1 0,2 0,3 -1,3 -5,6 -9,6 -4,0 -7,-2 -7,-7 0,-7 8,-8 16,-8l0 6zm-14 -36c1,-3 1,-5 3,-5 1,0 2,1 3,2 2,1 4,2 7,2 4,0 7,-3 7,-11l-6 0c0,3 -1,4 -2,4 -2,0 -3,-1 -4,-1 -2,-1 -4,-2 -6,-2 -5,0 -8,4 -7,11l5 0z"/>
   <path id="9" class="fil11" d="M2929 4082c-14,0 -23,9 -23,24 0,14 9,23 22,23 12,0 24,-7 24,-24 0,-14 -9,-23 -23,-23zm0 8c8,0 11,8 11,15 0,9 -5,16 -11,16 -7,0 -12,-7 -12,-16 0,-7 4,-15 12,-15z"/>
   <path id="10" class="fil11" d="M2523 4159l0 26 0 0c-3,-3 -7,-6 -13,-6 -11,0 -21,9 -21,24 0,14 9,23 20,23 6,0 12,-3 15,-8l0 0 0 7 11 0c-1,-3 -1,-8 -1,-12l0 -54 -11 0zm0 47c0,1 0,2 -1,3 -1,5 -5,8 -10,8 -7,0 -11,-6 -11,-14 0,-9 4,-15 12,-15 5,0 8,3 9,8 1,1 1,2 1,3l0 7z"/>
   <path id="11" class="fil11" d="M2585 4206c0,-1 0,-3 0,-5 0,-10 -5,-22 -19,-22 -15,0 -22,12 -22,24 0,14 8,23 23,23 6,0 12,-1 16,-3l-2 -7c-3,1 -7,2 -13,2 -7,0 -13,-4 -13,-12l30 0zm-30 -8c0,-5 3,-11 10,-11 8,0 10,7 9,11l-19 0z"/>
   <path id="12" class="fil11" d="M2614 4225l12 0 0 -25 5 0c7,0 10,2 12,11 1,7 3,12 4,14l12 0c-2,-2 -3,-9 -5,-17 -2,-6 -5,-11 -9,-12l0 -1c6,-2 11,-7 11,-15 0,-6 -2,-10 -5,-13 -4,-3 -11,-5 -20,-5 -6,0 -13,1 -17,1l0 62zm12 -54c1,0 3,0 7,0 7,0 12,3 12,10 0,6 -5,10 -13,10l-6 0 0 -20z"/>
   <path id="13" class="fil11" d="M2705 4206c1,-1 1,-3 1,-5 0,-10 -5,-22 -20,-22 -14,0 -22,12 -22,24 0,14 9,23 23,23 7,0 12,-1 16,-3l-1 -7c-4,1 -8,2 -13,2 -7,0 -14,-4 -14,-12l30 0zm-30 -8c0,-5 3,-11 11,-11 7,0 9,7 9,11l-20 0z"/>
   <path id="14" class="fil11" d="M2747 4215c-3,1 -5,2 -9,2 -8,0 -14,-5 -14,-14 0,-9 5,-15 14,-15 4,0 6,1 8,2l2 -9c-2,-1 -7,-2 -11,-2 -16,0 -25,11 -25,24 0,14 9,23 23,23 6,0 11,-1 13,-2l-1 -9z"/>
   <path id="15" class="fil11" d="M2797 4180l-11 0 0 27c0,2 0,3 -1,4 -1,3 -4,6 -9,6 -6,0 -8,-5 -8,-12l0 -25 -11 0 0 27c0,14 7,19 15,19 8,0 13,-4 15,-8l0 0 1 7 10 0c-1,-3 -1,-8 -1,-13l0 -32z"/>
   <path id="16" class="fil11" d="M2810 4225l11 0 0 -23c0,-1 0,-3 0,-4 1,-5 5,-8 11,-8 1,0 2,0 3,0l0 -11c-1,0 -2,0 -3,0 -4,0 -10,3 -12,10l0 0 -1 -9 -10 0c1,4 1,8 1,15l0 30z"/>
   <path id="17" class="fil11" d="M2840 4223c3,2 8,3 14,3 12,0 18,-6 18,-14 0,-7 -4,-11 -12,-14 -6,-2 -8,-3 -8,-6 0,-3 2,-5 6,-5 4,0 8,2 10,3l2 -8c-2,-2 -7,-3 -12,-3 -10,0 -17,6 -17,14 0,6 4,10 13,13 5,2 7,4 7,7 0,3 -2,5 -7,5 -4,0 -9,-2 -12,-3l-2 8z"/>
   <path id="18" class="fil11" d="M2902 4179c-14,0 -23,9 -23,24 0,14 10,23 22,23 12,0 24,-7 24,-24 0,-14 -9,-23 -23,-23zm0 8c8,0 11,8 11,16 0,9 -5,15 -11,15 -7,0 -12,-7 -12,-15 0,-8 4,-16 12,-16z"/>
   <path id="19" class="fil11" d="M2931 4223c4,2 9,3 14,3 12,0 18,-6 18,-14 0,-7 -3,-11 -12,-14 -5,-2 -8,-3 -8,-6 0,-3 3,-5 7,-5 4,0 7,2 9,3l3 -8c-3,-2 -7,-3 -12,-3 -11,0 -18,6 -18,14 0,6 4,10 13,13 6,2 7,4 7,7 0,3 -2,5 -7,5 -4,0 -9,-2 -12,-3l-2 8z"/>
   <path class="fil11" d="M4195 4101l6 18 12 0 -20 -63 -15 0 -20 63 12 0 5 -18 20 0zm-18 -9l5 -15c1,-4 2,-8 3,-12l0 0c1,4 2,8 3,12l5 15 -16 0z"/>
   <path id="1" class="fil11" d="M4261 4073l-12 0 0 28c0,1 0,2 0,3 -2,3 -5,6 -9,6 -6,0 -9,-4 -9,-12l0 -25 -11 0 0 27c0,15 7,20 16,20 8,0 12,-5 14,-8l0 0 1 7 10 0c0,-4 0,-8 0,-14l0 -32z"/>
   <path id="2" class="fil11" d="M4273 4119l11 0 0 -27c0,-1 0,-3 1,-4 1,-3 4,-6 8,-6 5,0 8,4 8,10l0 27 11 0 0 -27c0,-2 0,-3 1,-4 1,-4 4,-6 8,-6 5,0 8,4 8,12l0 25 11 0 0 -27c0,-14 -8,-20 -15,-20 -4,0 -7,1 -9,3 -3,1 -4,3 -6,6l0 0c-2,-5 -7,-9 -13,-9 -7,0 -12,5 -14,8l0 0 -1 -7 -9 0c0,4 0,9 0,14l0 32z"/>
   <path id="3" class="fil11" d="M4390 4099c0,-1 1,-2 1,-5 0,-10 -5,-22 -20,-22 -14,0 -22,12 -22,25 0,14 9,23 23,23 7,0 12,-2 16,-3l-2 -8c-3,1 -7,2 -12,2 -7,0 -14,-4 -14,-12l30 0zm-30 -8c0,-4 3,-11 10,-11 8,0 10,7 10,11l-20 0z"/>
   <path id="4" class="fil11" d="M4400 4119l11 0 0 -27c0,-1 1,-3 1,-4 1,-3 4,-6 9,-6 6,0 8,5 8,11l0 26 12 0 0 -27c0,-14 -8,-20 -16,-20 -8,0 -13,5 -15,8l0 0 0 -7 -10 0c0,4 0,9 0,14l0 32z"/>
   <path id="5" class="fil11" d="M4455 4063l0 10 -7 0 0 9 7 0 0 21c0,6 1,10 3,13 2,2 6,4 10,4 4,0 7,-1 8,-1l0 -9c-1,0 -2,0 -4,0 -5,0 -6,-3 -6,-8l0 -20 11 0 0 -9 -11 0 0 -13 -11 3z"/>
   <path id="6" class="fil11" d="M4505 4072c-13,0 -23,10 -23,24 0,15 10,24 23,24 11,0 23,-8 23,-24 0,-14 -9,-24 -23,-24zm0 9c8,0 11,8 11,15 0,9 -5,15 -11,15 -7,0 -11,-6 -11,-15 0,-7 3,-15 11,-15z"/>
   <path id="7" class="fil11" d="M4174 4150l0 26 0 0c-2,-4 -7,-6 -13,-6 -11,0 -20,9 -20,24 0,14 9,23 19,23 7,0 12,-3 15,-8l0 0 1 7 10 0c0,-3 0,-8 0,-13l0 -53 -12 0zm0 46c0,2 0,3 0,4 -1,5 -5,8 -10,8 -7,0 -11,-6 -11,-14 0,-9 4,-15 11,-15 5,0 9,3 10,8 0,1 0,2 0,3l0 6z"/>
   <path id="8" class="fil11" d="M4236 4197c1,-1 1,-3 1,-5 0,-10 -5,-22 -20,-22 -14,0 -22,12 -22,24 0,14 9,23 23,23 7,0 12,-1 16,-3l-1 -8c-4,2 -8,2 -13,2 -7,0 -14,-3 -14,-11l30 0zm-30 -8c0,-5 3,-11 11,-11 7,0 9,6 9,11l-20 0z"/>
   <path id="9" class="fil11" d="M4290 4216l21 -63 -12 0 -9 29c-2,8 -5,15 -6,23l-1 0c-1,-8 -3,-15 -6,-23l-8 -29 -13 0 21 63 13 0z"/>
   <path id="10" class="fil11" d="M4353 4197c0,-1 0,-3 0,-5 0,-10 -5,-22 -20,-22 -14,0 -22,12 -22,24 0,14 9,23 24,23 6,0 12,-1 15,-3l-1 -8c-4,2 -7,2 -13,2 -7,0 -13,-3 -14,-11l31 0zm-31 -8c1,-5 4,-11 11,-11 7,0 9,6 9,11l-20 0z"/>
   <path id="11" class="fil11" d="M4362 4216l12 0 0 -27c0,-1 0,-2 0,-3 1,-4 5,-7 9,-7 6,0 9,5 9,12l0 25 11 0 0 -27c0,-14 -8,-19 -16,-19 -7,0 -12,4 -14,8l-1 0 0 -7 -10 0c0,4 0,8 0,13l0 32z"/>
   <path id="12" class="fil11" d="M4446 4150l0 26 0 0c-2,-4 -7,-6 -13,-6 -11,0 -21,9 -20,24 0,14 8,23 19,23 7,0 12,-3 15,-8l0 0 0 7 11 0c-1,-3 -1,-8 -1,-13l0 -53 -11 0zm0 46c0,2 0,3 -1,4 -1,5 -5,8 -9,8 -8,0 -12,-6 -12,-14 0,-9 4,-15 12,-15 5,0 8,3 9,8 1,1 1,2 1,3l0 6z"/>
   <path id="13" class="fil11" d="M4505 4216c0,-3 0,-7 0,-11l0 -16c0,-10 -5,-19 -19,-19 -7,0 -13,2 -16,4l2 7c3,-2 8,-3 12,-3 8,0 9,5 9,8l0 1c-17,-1 -27,5 -27,17 0,7 5,13 15,13 5,0 10,-2 13,-6l0 0 1 5 10 0zm-12 -16c0,1 0,2 0,3 -1,3 -4,6 -9,6 -3,0 -6,-2 -6,-7 0,-6 7,-8 15,-8l0 6z"/>
   <path id="14" class="fil11" d="M4514 4214c3,2 8,3 14,3 12,0 18,-6 18,-14 0,-7 -4,-11 -12,-14 -6,-2 -8,-3 -8,-6 0,-3 2,-5 6,-5 4,0 8,1 10,3l2 -9c-2,-1 -7,-2 -12,-2 -10,0 -17,6 -17,14 0,5 4,10 13,13 5,2 7,4 7,7 0,3 -2,5 -7,5 -4,0 -9,-2 -12,-3l-2 8z"/>
   <circle class="fil3" cx="1920" cy="3659" r="305"/>
   <circle class="fil3" cx="2728" cy="3659" r="305"/>
   <circle class="fil3" cx="3536" cy="3659" r="305"/>
   <circle class="fil3" cx="4344" cy="3659" r="305"/>
   <g>
    <path class="fil50" d="M3419 3842c-7,0 -13,-6 -13,-13l0 -339c0,-7 6,-13 13,-13l234 0c7,0 13,6 13,13l0 339c0,7 -6,13 -13,13l-234 0z"/>
    <polygon class="fil51" points="3426,3791 3645,3791 3645,3512 3426,3512 "/>
    <path class="fil51" d="M3557 3818c0,3 -2,5 -5,5l-32 0c-3,0 -6,-2 -6,-5l0 -3c0,-3 3,-5 6,-5l32 0c3,0 5,2 5,5l0 3z"/>
    <path class="fil51" d="M3563 3495c0,1 -1,3 -3,3l-48 0c-2,0 -3,-2 -3,-3l0 -1c0,-1 1,-2 3,-2l48 0c2,0 3,1 3,2l0 1z"/>
    <path class="fil52" d="M3587 3703c-13,14 -31,22 -51,22 -40,0 -73,-33 -73,-73 0,-31 19,-57 45,-68l28 68 51 51z"/>
    <path class="fil53" d="M3609 3652l-73 0 0 -73c40,0 73,33 73,73z"/>
    <path class="fil54" d="M3609 3652c0,20 -8,38 -22,51l-51 -51 73 0z"/>
    <path class="fil55" d="M3536 3579l0 73 -28 -68c9,-3 18,-5 28,-5z"/>
   </g>
   <path class="fil11" d="M3355 4117c-3,1 -8,2 -13,2 -13,0 -21,-8 -21,-22 0,-15 9,-23 21,-23 6,0 10,1 13,2l2 -9c-2,-1 -7,-3 -15,-3 -19,0 -33,13 -33,33 0,19 12,32 32,32 7,0 13,-2 16,-3l-2 -9z"/>
   <path id="1" class="fil11" d="M3385 4082c-14,0 -23,9 -23,24 0,14 10,23 22,23 12,0 24,-7 24,-24 0,-14 -9,-23 -23,-23zm0 8c8,0 11,8 11,15 0,9 -5,16 -11,16 -7,0 -12,-7 -12,-16 0,-7 4,-15 12,-15z"/>
   <path id="2" class="fil11" d="M3417 4128l12 0 0 -27c0,-1 0,-2 0,-3 1,-4 4,-7 9,-7 6,0 9,5 9,11l0 26 11 0 0 -27c0,-14 -8,-19 -16,-19 -8,0 -13,4 -14,7l-1 0 0 -6 -10 0c0,4 0,8 0,13l0 32z"/>
   <path id="3" class="fil11" d="M3472 4072l0 11 -7 0 0 8 7 0 0 21c0,6 1,11 3,13 2,2 6,4 10,4 4,0 7,-1 8,-1l0 -9c-1,0 -2,1 -4,1 -5,0 -6,-3 -6,-9l0 -20 11 0 0 -8 -11 0 0 -13 -11 2z"/>
   <path id="4" class="fil11" d="M3502 4128l12 0 0 -24c0,-1 0,-2 0,-3 1,-5 5,-9 10,-9 2,0 3,0 4,1l0 -11c-1,0 -2,0 -3,0 -5,0 -10,3 -12,9l-1 0 0 -8 -10 0c0,4 0,8 0,14l0 31z"/>
   <path id="5" class="fil11" d="M3555 4082c-13,0 -23,9 -23,24 0,14 10,23 23,23 11,0 23,-7 23,-24 0,-14 -9,-23 -23,-23zm0 8c8,0 11,8 11,15 0,9 -5,16 -11,16 -7,0 -11,-7 -11,-16 0,-7 3,-15 11,-15z"/>
   <polygon id="6" class="fil11" points="3587,4128 3599,4128 3599,4062 3587,4062 "/>
   <path id="7" class="fil11" d="M3650 4108c0,-1 0,-2 0,-4 0,-10 -5,-22 -20,-22 -14,0 -22,11 -22,24 0,14 9,23 24,23 6,0 11,-1 15,-3l-1 -8c-4,1 -8,2 -13,2 -7,0 -14,-3 -14,-12l31 0zm-31 -8c1,-4 4,-11 11,-11 7,0 9,7 9,11l-20 0z"/>
   <path id="8" class="fil11" d="M3656 4126c4,2 9,3 14,3 12,0 19,-6 19,-14 -1,-7 -4,-11 -13,-14 -5,-2 -8,-4 -8,-6 0,-3 3,-5 7,-5 4,0 7,1 9,2l3 -8c-3,-1 -7,-2 -12,-2 -11,0 -17,6 -17,14 -1,5 3,10 12,13 6,2 7,4 7,7 0,3 -2,5 -7,5 -4,0 -9,-2 -11,-4l-3 9z"/>
   <polygon id="9" class="fil11" points="3735,4078 3735,4099 3715,4099 3715,4107 3735,4107 3735,4128 3743,4128 3743,4107 3763,4107 3763,4099 3743,4099 3743,4078 "/>
   <path id="10" class="fil11" d="M3329 4214c-3,2 -7,3 -12,3 -14,0 -22,-9 -22,-23 0,-15 9,-23 22,-23 5,0 9,1 12,2l3 -9c-2,-1 -8,-2 -15,-2 -20,0 -34,12 -34,33 0,19 12,31 32,31 8,0 14,-1 16,-3l-2 -9z"/>
   <path id="11" class="fil11" d="M3360 4179c-14,0 -24,9 -24,24 0,14 10,23 23,23 11,0 23,-7 23,-24 0,-14 -9,-23 -22,-23zm-1 8c8,0 11,8 11,16 0,9 -4,15 -11,15 -7,0 -11,-7 -11,-15 0,-8 3,-16 11,-16z"/>
   <path id="12" class="fil11" d="M3392 4225l11 0 0 -26c0,-2 0,-3 1,-4 1,-3 4,-7 9,-7 6,0 8,5 8,12l0 25 12 0 0 -27c0,-14 -9,-19 -16,-19 -8,0 -13,4 -15,8l0 0 -1 -7 -10 0c1,4 1,8 1,13l0 32z"/>
   <path id="13" class="fil11" d="M3442 4223c3,2 8,3 14,3 12,0 18,-6 18,-14 0,-7 -4,-11 -12,-14 -6,-2 -8,-3 -8,-6 0,-3 2,-5 7,-5 4,0 7,2 9,3l2 -8c-2,-2 -7,-3 -12,-3 -10,0 -17,6 -17,14 0,6 4,10 13,13 5,2 7,4 7,7 0,3 -2,5 -7,5 -4,0 -9,-2 -12,-3l-2 8z"/>
   <path id="14" class="fil11" d="M3495 4225l0 -45 -11 0 0 45 11 0zm-6 -64c-3,0 -6,3 -6,6 0,4 2,6 6,6 4,0 7,-2 7,-6 0,-3 -3,-6 -7,-6z"/>
   <path id="15" class="fil11" d="M3505 4223c3,2 8,3 13,3 12,0 19,-6 19,-14 0,-7 -4,-11 -12,-14 -6,-2 -8,-3 -8,-6 0,-3 2,-5 6,-5 4,0 8,2 10,3l2 -8c-3,-2 -7,-3 -12,-3 -11,0 -17,6 -17,14 0,6 3,10 12,13 6,2 8,4 8,7 0,3 -2,5 -7,5 -5,0 -10,-2 -12,-3l-2 8z"/>
   <path id="16" class="fil11" d="M3548 4170l0 10 -6 0 0 9 6 0 0 21c0,6 1,10 4,13 2,2 5,3 10,3 3,0 6,0 8,-1l0 -9c-1,1 -3,1 -5,1 -4,0 -6,-3 -6,-8l0 -20 11 0 0 -9 -11 0 0 -13 -11 3z"/>
   <path id="17" class="fil11" d="M3617 4206c0,-1 0,-3 0,-5 0,-10 -5,-22 -19,-22 -15,0 -23,12 -23,24 0,14 9,23 24,23 6,0 12,-1 16,-3l-2 -7c-3,1 -7,2 -13,2 -7,0 -13,-4 -14,-12l31 0zm-31 -8c1,-5 4,-11 11,-11 8,0 9,7 9,11l-20 0z"/>
   <path id="18" class="fil11" d="M3626 4225l12 0 0 -26c0,-2 0,-3 0,-4 2,-3 5,-7 9,-7 7,0 9,5 9,12l0 25 11 0 0 -27c0,-14 -8,-19 -16,-19 -7,0 -12,4 -14,8l0 0 -1 -7 -10 0c0,4 0,8 0,13l0 32z"/>
   <path id="19" class="fil11" d="M3681 4170l0 10 -6 0 0 9 6 0 0 21c0,6 1,10 4,13 2,2 5,3 9,3 4,0 7,0 9,-1l0 -9c-1,1 -3,1 -5,1 -4,0 -6,-3 -6,-8l0 -20 11 0 0 -9 -11 0 0 -13 -11 3z"/>
   <path id="20" class="fil11" d="M3750 4206c0,-1 0,-3 0,-5 0,-10 -5,-22 -20,-22 -14,0 -22,12 -22,24 0,14 9,23 24,23 6,0 12,-1 15,-3l-1 -7c-4,1 -7,2 -13,2 -7,0 -13,-4 -14,-12l31 0zm-31 -8c1,-5 4,-11 11,-11 7,0 9,7 9,11l-20 0z"/>
   <path id="21" class="fil11" d="M3756 4223c4,2 9,3 14,3 12,0 19,-6 19,-14 0,-7 -4,-11 -12,-14 -6,-2 -8,-3 -8,-6 0,-3 2,-5 6,-5 4,0 8,2 10,3l2 -8c-3,-2 -7,-3 -12,-3 -11,0 -17,6 -17,14 0,6 3,10 12,13 6,2 8,4 8,7 0,3 -3,5 -8,5 -4,0 -9,-2 -11,-3l-3 8z"/>
   <path class="fil56" d="M4499 3654c0,-3 -1,-6 -3,-9 -2,-2 -5,-3 -9,-3l-287 0c-3,0 -6,1 -9,3 -2,3 -3,6 -3,9l0 126c0,3 1,6 3,9 3,2 6,3 9,3l287 0c4,0 7,-1 9,-3 2,-3 3,-6 3,-9l0 -126z"/>
   <path class="fil50" d="M4499 3643c0,-3 -1,-6 -3,-8 -2,-3 -5,-4 -9,-4l-287 0c-3,0 -6,1 -9,4 -2,2 -3,5 -3,8l0 127c0,3 1,6 3,8 3,3 6,4 9,4l287 0c4,0 7,-1 9,-4 2,-2 3,-5 3,-8l0 -127z"/>
   <path class="fil56" d="M4499 3633c0,-3 -1,-6 -3,-9 -2,-2 -5,-3 -9,-3l-287 0c-3,0 -6,1 -9,3 -2,3 -3,6 -3,9l0 126c0,3 1,6 3,9 3,2 6,3 9,3l287 0c4,0 7,-1 9,-3 2,-3 3,-6 3,-9l0 -126z"/>
   <path class="fil50" d="M4499 3622c0,-3 -1,-6 -3,-8 -2,-3 -5,-4 -9,-4l-287 0c-3,0 -6,1 -9,4 -2,2 -3,5 -3,8l0 127c0,3 1,6 3,8 3,3 6,4 9,4l287 0c4,0 7,-1 9,-4 2,-2 3,-5 3,-8l0 -127z"/>
   <path class="fil56" d="M4499 3612c0,-3 -1,-6 -3,-9 -2,-2 -5,-3 -9,-3l-287 0c-3,0 -6,1 -9,3 -2,3 -3,6 -3,9l0 126c0,3 1,6 3,9 3,2 6,3 9,3l287 0c4,0 7,-1 9,-3 2,-3 3,-6 3,-9l0 -126z"/>
   <path class="fil50" d="M4499 3601c0,-3 -1,-6 -3,-8 -2,-3 -5,-4 -9,-4l-287 0c-3,0 -6,1 -9,4 -2,2 -3,5 -3,8l0 127c0,3 1,6 3,8 3,3 6,4 9,4l287 0c4,0 7,-1 9,-4 2,-2 3,-5 3,-8l0 -127z"/>
   <path class="fil56" d="M4499 3591c0,-3 -1,-7 -3,-9 -2,-2 -5,-3 -9,-3l-287 0c-3,0 -6,1 -9,3 -2,2 -3,6 -3,9l0 126c0,3 1,6 3,9 3,2 6,3 9,3l287 0c4,0 7,-1 9,-3 2,-3 3,-6 3,-9l0 -126z"/>
   <path class="fil50" d="M4499 3580c0,-3 -1,-6 -3,-8 -2,-3 -5,-4 -9,-4l-287 0c-3,0 -6,1 -9,4 -2,2 -3,5 -3,8l0 127c0,3 1,6 3,8 3,2 6,4 9,4l287 0c4,0 7,-2 9,-4 2,-2 3,-5 3,-8l0 -127z"/>
   <path class="fil56" d="M4499 3570c0,-4 -1,-7 -3,-9 -2,-2 -5,-3 -9,-3l-287 0c-3,0 -6,1 -9,3 -2,2 -3,5 -3,9l0 126c0,3 1,6 3,9 3,2 6,3 9,3l287 0c4,0 7,-1 9,-3 2,-3 3,-6 3,-9l0 -126z"/>
   <path class="fil50" d="M4499 3559c0,-3 -1,-6 -3,-8 -2,-3 -5,-4 -9,-4l-287 0c-3,0 -6,1 -9,4 -2,2 -3,5 -3,8l0 127c0,3 1,6 3,8 3,2 6,4 9,4l287 0c4,0 7,-2 9,-4 2,-2 3,-5 3,-8l0 -127z"/>
   <path class="fil56" d="M4499 3549c0,-4 -1,-7 -3,-9 -2,-2 -5,-3 -9,-3l-287 0c-3,0 -6,1 -9,3 -2,2 -3,5 -3,9l0 126c0,3 1,6 3,9 3,2 6,3 9,3l287 0c4,0 7,-1 9,-3 2,-3 3,-6 3,-9l0 -126z"/>
   <path class="fil50" d="M4499 3538c0,-3 -1,-6 -3,-8 -2,-3 -5,-4 -9,-4l-287 0c-3,0 -6,1 -9,4 -2,2 -3,5 -3,8l0 127c0,3 1,6 3,8 3,2 6,4 9,4l287 0c4,0 7,-2 9,-4 2,-2 3,-5 3,-8l0 -127z"/>
   <path class="fil56" d="M4483 3643c-10,0 -17,7 -17,17l-244 0c0,-10 -8,-17 -18,-17l0 -83c10,0 18,-8 18,-17l244 0c0,9 7,17 17,17l0 83z"/>
   <path class="fil50" d="M4344 3566c-20,0 -36,16 -36,35 0,20 16,36 36,36 19,0 35,-16 35,-36 0,-19 -16,-35 -35,-35zm0 81c-26,0 -46,-20 -46,-46 0,-25 20,-46 46,-46 25,0 46,21 46,46 0,26 -21,46 -46,46z"/>
   <path class="fil50" d="M4348 3607l-9 0c-5,0 -9,-2 -12,-5 -3,-3 -5,-7 -5,-12 0,-4 2,-8 5,-11 3,-4 7,-5 12,-5l9 0 0 10 -9 0c-2,0 -3,1 -4,2 -1,1 -2,3 -2,4 0,2 1,3 2,4 1,1 2,2 4,2l9 0 0 11z"/>
   <path class="fil50" d="M4365 3590l-11 0c0,-1 0,-3 -2,-4 -1,-1 -2,-2 -4,-2l0 -10c5,0 9,1 12,5 3,3 5,7 5,11z"/>
   <path class="fil50" d="M4339 3629c-5,0 -9,-2 -12,-5 -3,-3 -5,-7 -5,-12l11 0c0,2 1,3 2,5 1,1 2,1 4,1l0 11z"/>
   <path class="fil50" d="M4348 3629l-9 0 0 -11 9 0c2,0 3,0 5,-1 1,-2 1,-3 1,-5 0,-1 0,-3 -2,-4 -1,-1 -2,-1 -4,-1l0 -11c5,0 9,2 12,5 3,3 5,7 5,11 0,5 -2,9 -5,12 -3,3 -7,5 -12,5z"/>
   <polygon class="fil50" points="4338,3633 4349,3633 4349,3569 4338,3569 "/>
   <polygon class="fil50" points="4384,3607 4445,3607 4445,3596 4384,3596 "/>
   <polygon class="fil50" points="4243,3607 4303,3607 4303,3596 4243,3596 "/>
   <polygon class="fil50" points="4378,3584 4408,3584 4408,3574 4378,3574 "/>
   <polygon class="fil50" points="4279,3584 4309,3584 4309,3574 4279,3574 "/>
   <polygon class="fil50" points="4376,3629 4408,3629 4408,3618 4376,3618 "/>
   <polygon class="fil50" points="4279,3629 4309,3629 4309,3618 4279,3618 "/>
   <g>
    <path class="fil55" d="M1999 3659c0,44 -35,79 -79,79 -43,0 -78,-35 -78,-79 0,-43 35,-79 78,-79 44,0 79,36 79,79z"/>
    <path class="fil55" d="M1983 3659c0,35 -28,63 -63,63 -34,0 -63,-28 -63,-63 0,-35 29,-63 63,-63 35,0 63,28 63,63z"/>
    <path class="fil16" d="M1927 3664l-13 0c-6,0 -11,-2 -15,-6 -4,-4 -6,-9 -6,-14 0,-6 2,-11 6,-15 4,-4 9,-6 15,-6l28 0 0 11 -28 0c-3,0 -6,1 -7,3 -2,1 -3,4 -3,7 0,2 1,5 3,7 2,2 4,3 7,3l13 0 0 10z"/>
    <path class="fil16" d="M1927 3695l-29 0 0 -10 29 0c3,0 5,-1 7,-3 2,-2 3,-5 3,-7 0,-3 -1,-6 -3,-8 -2,-2 -4,-3 -7,-3l-13 0 0 -10 13 0c6,0 11,2 15,6 3,4 6,9 6,15 0,5 -3,10 -6,14 -4,4 -10,6 -15,6z"/>
    <polygon class="fil16" points="1915,3699 1926,3699 1926,3620 1915,3620 "/>
    <polygon class="fil50" points="1934,3478 1907,3478 1899,3518 1942,3518 "/>
    <polygon class="fil50" points="1842,3496 1818,3509 1831,3548 1869,3526 "/>
    <polygon class="fil50" points="1771,3557 1757,3581 1788,3608 1809,3570 "/>
    <polygon class="fil50" points="1740,3645 1740,3673 1780,3681 1780,3637 "/>
    <polygon class="fil50" points="1757,3738 1771,3761 1809,3748 1788,3711 "/>
    <polygon class="fil50" points="1818,3809 1842,3823 1869,3792 1831,3770 "/>
    <polygon class="fil50" points="1907,3840 1934,3840 1942,3800 1899,3800 "/>
    <polygon class="fil50" points="1999,3823 2023,3809 2010,3770 1972,3792 "/>
    <polygon class="fil50" points="2070,3761 2084,3738 2053,3711 2032,3748 "/>
    <polygon class="fil50" points="2101,3673 2101,3645 2061,3637 2061,3681 "/>
    <polygon class="fil50" points="2084,3581 2070,3557 2032,3570 2053,3608 "/>
    <polygon class="fil50" points="2023,3509 1999,3496 1972,3526 2010,3548 "/>
    <path class="fil50" d="M1920 3768c-59,0 -108,-49 -108,-109 0,-60 49,-108 108,-108 60,0 109,48 109,108 0,60 -49,109 -109,109zm0 -251c-78,0 -142,63 -142,142 0,79 64,143 142,143 79,0 143,-64 143,-143 0,-79 -64,-142 -143,-142z"/>
   </g>
   <g>
    <path class="fil50" d="M2907 3649c0,79 -77,144 -173,144 -95,0 -172,-65 -172,-144 0,-80 77,-144 172,-144 96,0 173,64 173,144z"/>
    <path class="fil50" d="M2572 3692l-32 0c-3,0 -7,-2 -10,-4 -3,-3 -4,-7 -4,-10l0 -58c0,-4 1,-8 4,-10 3,-3 7,-5 10,-5l32 0 0 87z"/>
    <path class="fil51" d="M2652 3612c-4,0 -7,-3 -7,-7 0,-5 -4,-9 -8,-9 -5,0 -9,4 -9,9 0,4 -3,7 -7,7 -4,0 -8,-3 -8,-7 0,-13 11,-23 24,-23 12,0 23,10 23,23 0,4 -4,7 -8,7z"/>
    <path class="fil50" d="M2637 3544l56 0 0 -12c0,-14 -5,-29 -16,-40 -11,-11 -26,-16 -40,-16l0 68z"/>
    <path class="fil50" d="M2930 3649c0,-4 -1,-8 -4,-11 -3,-3 -7,-5 -11,-5l-11 0 0 31 11 0c4,0 8,-2 11,-5 3,-3 4,-7 4,-10l0 0z"/>
    <path class="fil50" d="M2693 3764l-56 0 0 33c0,4 1,7 4,10 2,3 6,4 10,4l28 0c4,0 7,-1 10,-4 3,-3 4,-6 4,-10l0 -33z"/>
    <path class="fil50" d="M2832 3764l-56 0 0 33c0,4 1,7 4,10 3,3 6,4 10,4l28 0c4,0 7,-1 10,-4 3,-3 4,-6 4,-10l0 -33z"/>
    <path class="fil51" d="M2684 3545c-3,0 -6,-2 -7,-5 -1,-4 1,-8 5,-9 34,-10 71,-10 105,0 4,1 6,5 5,9 -2,4 -6,6 -9,5 -31,-9 -66,-9 -97,0 -1,0 -1,0 -2,0z"/>
    <polygon class="fil55" points="2751,3474 2751,3451 2717,3451 2717,3474 2694,3474 2734,3514 2775,3474 "/>
    <path class="fil55" d="M2783 3649c0,27 -22,49 -49,49 -27,0 -49,-22 -49,-49 0,-27 22,-49 49,-49 27,0 49,22 49,49z"/>
    <path class="fil16" d="M2740 3653l-11 0c-4,0 -8,-2 -11,-5 -4,-3 -5,-7 -5,-11 0,-5 1,-9 4,-12 4,-3 8,-5 12,-5l23 0 0 9 -23 0c-2,0 -4,1 -5,2 -1,2 -2,4 -2,6 0,2 1,3 2,5 1,1 3,2 5,2l11 0 0 9z"/>
    <path class="fil16" d="M2740 3677l-23 0 0 -9 23 0c2,0 3,-1 5,-2 1,-1 2,-3 2,-5 0,-2 -1,-4 -2,-6 -2,-1 -3,-2 -5,-2l-11 0 0 -9 11 0c4,0 8,2 11,5 3,3 5,7 5,12 0,4 -2,8 -5,11 -3,4 -7,5 -11,5z"/>
    <polygon class="fil16" points="2730,3680 2739,3680 2739,3618 2730,3618 "/>
   </g>
  </g>
 </g>
</svg>
