<?xml version="1.0" encoding="utf-8"?>
<!-- Generator: Adobe Illustrator 15.0.0, SVG Export Plug-In . SVG Version: 6.00 Build 0)  -->
<!DOCTYPE svg PUBLIC "-//W3C//DTD SVG 1.1//EN" "http://www.w3.org/Graphics/SVG/1.1/DTD/svg11.dtd">
<svg version="1.1" id="Layer_1" xmlns="http://www.w3.org/2000/svg" xmlns:xlink="http://www.w3.org/1999/xlink" x="0px" y="0px"
	 width="170.079px" height="170.079px" viewBox="0 0 170.079 170.079" enable-background="new 0 0 170.079 170.079"
	 xml:space="preserve">
<g id="Layer_3">
</g>
<g>
	<g>
		<polygon fill="#795082" points="154.227,118.922 153.92,119.245 140.581,128.965 139.506,121.193 		"/>
		<path fill="#57125F" d="M153.454,116.361l0.252,0.55c1.612,3.512,0.294,7.621-2.938,9.573l-0.027,0.017l-11.439,6.934
			l-3.901-6.499l11.468-6.886l0,0l-0.252-0.547L153.454,116.361z"/>
		<path fill="#571260" d="M67.8,114.278l-5.415,5.422l12.765,12.742l10.735-10.734l-7.466-7.443
			C75.477,117.176,70.729,117.207,67.8,114.278z"/>
		<path fill="#E9E4CF" d="M54.576,87.941l16.562,6.984l-5.848,10.452c-0.378,0.675-0.311,1.513,0.17,2.119l0.783,0.988
			c0.656,0.828,1.857,0.967,2.685,0.312c0.823-0.652,0.965-1.844,0.323-2.671l6.266-11.199c0.266-0.476,0.316-1.039,0.14-1.554
			c-0.071-0.207-0.176-0.398-0.309-0.566c-0.197-0.249-0.457-0.447-0.755-0.573l-18.508-7.806L54.576,87.941z"/>
		<path fill="#E9E4CF" d="M51.155,82.545c-0.973-0.408-2.094,0.047-2.503,1.02c-0.41,0.972,0.045,2.093,1.018,2.502l2.649,1.117
			l1.507-3.512L51.155,82.545z"/>
		
			<rect x="47.461" y="74.285" transform="matrix(0.7071 -0.7071 0.7071 0.7071 -55.7332 68.6973)" fill="#FFFFFF" width="15.195" height="54.678"/>
		<polygon fill="#E9E4CF" points="66.572,113.139 56.777,114.086 30.355,87.665 35.727,82.292 		"/>
		<path fill="#E9E4CF" d="M56.777,114.086c-7.947-7.946-18.727-7.638-27.764-1.699c0,0,4.747-16.949,4.886-17.088
			c0.137-0.137,12.847,4.221,12.847,4.221L56.777,114.086z"/>
		<path fill="#FFFFFF" d="M67.52,103.343c-7.946-7.946-7.639-18.725-1.701-27.761c0,0-16.95,4.748-17.088,4.885
			c-0.136,0.137,4.221,12.847,4.221,12.847L67.52,103.343z"/>
		
			<rect x="11.024" y="68.957" transform="matrix(0.7071 -0.7071 0.7071 0.7071 -48.2747 50.6875)" fill="#FFFFFF" width="52.051" height="29.321"/>
		<polygon fill="#E9E4CF" points="47.782,94.353 29.013,112.387 8.28,91.654 26.684,73.256 		"/>
		<circle fill="#0D7B6C" cx="45.233" cy="76.102" r="3.331"/>
		<path fill="#0D7B6C" d="M50.271,71.063c-1.301-1.301-1.3-3.412,0-4.713c1.3-1.299,3.411-1.301,4.712,0.002
			c1.299,1.299,1.299,3.408-0.001,4.709C53.682,72.362,51.571,72.364,50.271,71.063z"/>
		<path fill="#157B6D" d="M61.87,108.348l-5.415,5.422l12.764,12.742l10.735-10.734l-7.466-7.443
			C69.547,111.246,64.799,111.278,61.87,108.348z"/>
		<path fill="#571260" d="M45.088,54.852c0,0-11.293-8.803-22.142-3.428l7.552,5.232c0,0-11.098,4.354-14.487,5.649l6.709,4.34
			l-12.189,4.415l6.551,6.438L6.441,82.925l7.094,3.476L8.28,91.654c3.845,3.845,20.733,20.733,20.733,20.733l8.37-28.437
			C37.383,83.951,27.607,72.333,45.088,54.852z"/>
		<circle fill="#FFFFFF" cx="37.384" cy="83.951" r="3.33"/>
		<path fill="#7B4E7F" d="M59.479,74.461c0,0,0.253,3.504-2.081,5.838c-2.333,2.334-5.863,2.105-5.863,2.105L59.479,74.461z"/>
		<path fill="#FFFFFF" d="M45.423,98.038l3.66,17.599l11.385-3.725c0.735-0.239,1.544-0.013,2.046,0.576l0.82,0.958
			c0.685,0.804,0.59,2.009-0.213,2.695c-0.797,0.682-1.995,0.592-2.682-0.199l-12.197,3.99c-0.518,0.168-1.081,0.111-1.551-0.162
			c-0.19-0.11-0.357-0.25-0.496-0.413c-0.207-0.241-0.352-0.534-0.417-0.852l-4.09-19.665L45.423,98.038z"/>
		<path fill="#FFFFFF" d="M41.096,96.001c-0.215-1.034,0.449-2.046,1.481-2.261c1.033-0.215,2.046,0.449,2.26,1.482l0.585,2.814
			l-3.736,0.803L41.096,96.001z"/>
		<path fill="#571260" d="M75.193,132.406l-3.903-3.903l21.905-21.906c1.077-1.076,2.825-1.076,3.903,0l21.474,21.475l-3.903,3.902
			l-19.521-19.521L75.193,132.406z"/>
		<path fill="#0D7B6C" d="M123.893,132.397h-9.261c0-2.555,2.071-4.627,4.631-4.627C121.821,127.77,123.893,129.842,123.893,132.397
			z"/>
		<rect x="6.441" y="132.055" fill="#0D7B6C" width="130.272" height="1.943"/>
		
			<rect x="29.849" y="52.726" transform="matrix(0.7072 0.707 -0.707 0.7072 65.1005 0.3035)" fill="#9DD5BD" width="4.67" height="52.051"/>
		<polygon fill="#FFFFFF" points="135.839,97.674 150.646,95.428 145.217,58.786 130.412,61.036 		"/>
		<polygon fill="#E9E4CF" points="143.25,97.49 150.832,96.342 145.217,58.786 137.815,59.909 		"/>
		<path fill="#E9E4CF" d="M150.833,97.311c-1.664-10.951,4.8-21.441,14.796-25.144c0,0-16.231-6.136-16.421-6.106
			s-4.158,12.666-4.158,12.666L150.833,97.311z"/>
		<path fill="#FFFFFF" d="M136.495,99.49c-1.664-10.952-10.951-19.048-21.596-19.614c0,0,13.676-10.679,13.867-10.709
			c0.188-0.029,7.731,10.859,7.731,10.859L136.495,99.49z"/>
		<polygon fill="#0D7B6C" points="150.333,96.008 153.762,118.995 139.506,121.193 135.944,97.45 		"/>
		<path fill="#571260" d="M112.209,79.434c0.298,1.963,2.148,3.325,4.111,3.027l48.719-7.402c1.963-0.299,3.325-2.149,3.027-4.113
			l-4.184-27.529c-0.299-1.964-2.149-3.326-4.113-3.027l-48.717,7.4c-1.963,0.299-3.325,2.149-3.027,4.113L112.209,79.434z"/>
		
			<rect x="112.39" y="46.66" transform="matrix(-0.9887 0.1502 -0.1502 -0.9887 283.7525 101.4145)" fill="#FFFFFF" width="51.312" height="29.529"/>
		
			<rect x="137.901" y="44.733" transform="matrix(-0.9886 0.1502 -0.1502 -0.9886 308.6851 95.6743)" fill="#E9E4CF" width="25.655" height="29.529"/>
		<path fill="#571260" d="M155.7,134.67h-23.626c-1.26,0-2.36-0.854-2.673-2.074c-0.313-1.221,0.24-2.498,1.344-3.105l14.951-8.214
			l2.658,4.838l-5.523,3.034H155.7V134.67z"/>
		<path fill="#FFFFFF" d="M121.418,131.088c-0.267,0-0.537-0.057-0.796-0.175c-0.96-0.44-1.38-1.574-0.94-2.532l2.427-5.289
			c0.44-0.958,1.574-1.381,2.533-0.939c0.959,0.439,1.38,1.574,0.94,2.534l-2.426,5.287
			C122.834,130.674,122.142,131.088,121.418,131.088z"/>
		<path fill="#9ED6BE" d="M125.583,124.686l-3.474-1.592l11.192-24.401c0.271-0.587,0.819-0.999,1.459-1.093l9.644-1.421l0.557,3.78
			l-8.617,1.27L125.583,124.686z"/>
		<polygon fill="#FFFFFF" points="155.7,129.177 155.7,133.999 162.411,133.999 		"/>
		<path fill="#571260" d="M145.256,58.588c2.855,1.092,3.246,3.562,0.873,5.488l-0.008,0.009c-2.378,1.925-6.265,5.076-8.64,7.006
			l-0.007,0.007c-2.378,1.922-4.713,1.029-5.195-1.993v-0.009c-0.48-3.022-1.268-7.966-1.746-10.984l-0.002-0.012
			c-0.479-3.019,1.461-4.596,4.32-3.502l0.008,0.004c2.855,1.094,7.527,2.885,10.387,3.98L145.256,58.588z"/>
		<polygon fill="#9DD5BD" points="150.646,95.428 154.313,118.91 146.868,120.049 143.286,96.334 		"/>
	</g>
	<rect x="0.463" y="133.995" fill="#57125F" width="170.131" height="36.54"/>
	<rect x="0.463" y="0.404" fill="none" width="170.131" height="170.131"/>
</g>
</svg>
