<?xml version="1.0" encoding="UTF-8"?>
<!DOCTYPE svg PUBLIC "-//W3C//DTD SVG 1.1//EN" "http://www.w3.org/Graphics/SVG/1.1/DTD/svg11.dtd">
<!-- Creator: CorelDRAW X7 -->
<svg xmlns="http://www.w3.org/2000/svg" xml:space="preserve" width="7366px" height="7953px" version="1.1" style="shape-rendering:geometricPrecision; text-rendering:geometricPrecision; image-rendering:optimizeQuality; fill-rule:evenodd; clip-rule:evenodd"
viewBox="0 0 24177 26105"
 xmlns:xlink="http://www.w3.org/1999/xlink">
 <defs>
  <style type="text/css">
   <![CDATA[
    .str0 {stroke:#848688;stroke-width:41.0286;stroke-dasharray:82.057240 123.085860}
    .fil0 {fill:none}
    .fil14 {fill:#FEFEFE}
    .fil13 {fill:#D2D3D5}
    .fil24 {fill:#848688;fill-rule:nonzero}
    .fil19 {fill:#F3734F;fill-rule:nonzero}
    .fil18 {fill:#F9FCFE;fill-rule:nonzero}
    .fil21 {fill:#F1BA38;fill-rule:nonzero}
    .fil20 {fill:#E4AE3E;fill-rule:nonzero}
    .fil15 {fill:#A2CFD0;fill-rule:nonzero}
    .fil16 {fill:#A5A4A4;fill-rule:nonzero}
    .fil17 {fill:#82A7B6;fill-rule:nonzero}
    .fil23 {fill:#2BB5A7;fill-rule:nonzero}
    .fil22 {fill:#269F8E;fill-rule:nonzero}
    .fil10 {fill:url(#id0)}
    .fil9 {fill:url(#id1)}
    .fil7 {fill:url(#id2)}
    .fil3 {fill:url(#id3)}
    .fil4 {fill:url(#id4)}
    .fil12 {fill:url(#id5)}
    .fil11 {fill:url(#id6)}
    .fil1 {fill:url(#id7)}
    .fil2 {fill:url(#id8)}
    .fil6 {fill:url(#id9)}
    .fil5 {fill:url(#id10)}
    .fil8 {fill:url(#id11)}
   ]]>
  </style>
  <linearGradient id="id0" gradientUnits="userSpaceOnUse" x1="1233.77" y1="6924.39" x2="14881.1" y2="6924.39">
   <stop offset="0" style="stop-opacity:1; stop-color:#002045"/>
   <stop offset="0.529412" style="stop-opacity:1; stop-color:#225999"/>
   <stop offset="1" style="stop-opacity:1; stop-color:#002045"/>
  </linearGradient>
  <linearGradient id="id1" gradientUnits="userSpaceOnUse" x1="1233.77" y1="8918.68" x2="14881.1" y2="8918.68">
   <stop offset="0" style="stop-opacity:1; stop-color:#006A9C"/>
   <stop offset="0.509804" style="stop-opacity:1; stop-color:#0096A3"/>
   <stop offset="0.988235" style="stop-opacity:1; stop-color:#006A9C"/>
   <stop offset="1" style="stop-opacity:1; stop-color:#006A9C"/>
  </linearGradient>
  <linearGradient id="id2" gradientUnits="userSpaceOnUse" x1="2599.93" y1="13023.2" x2="13515" y2="13023.2">
   <stop offset="0" style="stop-opacity:1; stop-color:#00818A"/>
   <stop offset="0.501961" style="stop-opacity:1; stop-color:#00B0A5"/>
   <stop offset="1" style="stop-opacity:1; stop-color:#00818A"/>
  </linearGradient>
  <linearGradient id="id3" gradientUnits="userSpaceOnUse" x1="5276.43" y1="20393.2" x2="10838.5" y2="20393.2">
   <stop offset="0" style="stop-opacity:1; stop-color:#D42222"/>
   <stop offset="0.509804" style="stop-opacity:1; stop-color:#FF7640"/>
   <stop offset="1" style="stop-opacity:1; stop-color:#D42B21"/>
  </linearGradient>
  <linearGradient id="id4" gradientUnits="userSpaceOnUse" xlink:href="#id0" x1="5276.43" y1="18799.5" x2="10838.5" y2="18799.5">
  </linearGradient>
  <linearGradient id="id5" gradientUnits="userSpaceOnUse" xlink:href="#id0" x1="-0" y1="2929.75" x2="16114.9" y2="2929.75">
  </linearGradient>
  <linearGradient id="id6" gradientUnits="userSpaceOnUse" x1="-0" y1="4828.42" x2="16114.9" y2="4828.42">
   <stop offset="0" style="stop-opacity:1; stop-color:#005282"/>
   <stop offset="0.501961" style="stop-opacity:1; stop-color:#0081C2"/>
   <stop offset="1" style="stop-opacity:1; stop-color:#004F7D"/>
  </linearGradient>
  <linearGradient id="id7" gradientUnits="userSpaceOnUse" x1="6433.5" y1="24107.6" x2="9681.4" y2="24107.6">
   <stop offset="0" style="stop-opacity:1; stop-color:#FDB040"/>
   <stop offset="0.160784" style="stop-opacity:1; stop-color:#FECB41"/>
   <stop offset="0.478431" style="stop-opacity:1; stop-color:#FFE642"/>
   <stop offset="0.831373" style="stop-opacity:1; stop-color:#FEC741"/>
   <stop offset="1" style="stop-opacity:1; stop-color:#FDA840"/>
  </linearGradient>
  <linearGradient id="id8" gradientUnits="userSpaceOnUse" xlink:href="#id0" x1="6433.5" y1="22110.6" x2="9681.4" y2="22110.6">
  </linearGradient>
  <linearGradient id="id9" gradientUnits="userSpaceOnUse" xlink:href="#id0" x1="3966.05" y1="15137.3" x2="12148.8" y2="15137.3">
  </linearGradient>
  <linearGradient id="id10" gradientUnits="userSpaceOnUse" x1="3966.05" y1="16955" x2="12148.8" y2="16955">
   <stop offset="0" style="stop-opacity:1; stop-color:#009EA3"/>
   <stop offset="0.509804" style="stop-opacity:1; stop-color:#00C8CF"/>
   <stop offset="1" style="stop-opacity:1; stop-color:#009EA3"/>
  </linearGradient>
  <linearGradient id="id11" gradientUnits="userSpaceOnUse" xlink:href="#id0" x1="2599.93" y1="11029.8" x2="13515" y2="11029.8">
  </linearGradient>
 </defs>
 <g id="Layer_x0020_1">
  <metadata id="CorelCorpID_0Corel-Layer"/>
  <g id="_935414667808">
   <line class="fil0 str0" x1="17653" y1="4828" x2="12935" y2= "4828" />
   <line class="fil0 str0" x1="17653" y1="8919" x2="12935" y2= "8919" />
   <line class="fil0 str0" x1="17653" y1="13023" x2="8156" y2= "13023" />
   <line class="fil0 str0" x1="17653" y1="16955" x2="8156" y2= "16955" />
   <line class="fil0 str0" x1="17653" y1="20393" x2="8156" y2= "20393" />
   <line class="fil0 str0" x1="17653" y1="24108" x2="8156" y2= "24108" />
   <polygon class="fil1" points="6433,22111 8057,26105 9681,22111 8023,22282 "/>
   <path class="fil2" d="M9681 22111c0,147 -727,267 -1624,267 -896,0 -1624,-120 -1624,-267 0,-148 728,-268 1624,-268 897,0 1624,120 1624,268z"/>
   <path class="fil3" d="M9681 21645l1157 -2845 -2712 171 -2850 -171 1157 2845c0,0 458,342 1616,342 1157,0 1632,-342 1632,-342z"/>
   <path class="fil4" d="M10838 18800c0,221 -1245,400 -2781,400 -1535,0 -2781,-179 -2781,-400 0,-221 1246,-401 2781,-401 1536,0 2781,180 2781,401z"/>
   <path class="fil5" d="M10838 18360l1311 -3223 -4126 171 -4057 -171 1310 3223c0,0 844,388 2876,412 2031,24 2686,-412 2686,-412z"/>
   <path class="fil6" d="M12149 15137c0,298 -1832,539 -4092,539 -2259,0 -4091,-241 -4091,-539 0,-297 1832,-538 4091,-538 2260,0 4092,241 4092,538z"/>
   <path class="fil7" d="M12149 14390l1366 -3360 -5569 171 -5346 -171 1366 3360c0,0 868,675 3928,624 3061,-52 4255,-624 4255,-624z"/>
   <path class="fil8" d="M13515 11030c0,368 -2444,666 -5458,666 -3014,0 -5457,-298 -5457,-666 0,-368 2443,-667 5457,-667 3014,0 5458,299 5458,667z"/>
   <path class="fil9" d="M13515 10284l1366 -3360 -6909 171 -6738 -171 1366 3360c0,0 1502,642 5430,629 3928,-13 5485,-629 5485,-629z"/>
   <path class="fil10" d="M14881 6924c0,440 -3055,797 -6824,797 -3768,0 -6823,-357 -6823,-797 0,-440 3055,-796 6823,-796 3769,0 6824,356 6824,796z"/>
   <path class="fil11" d="M14881 5964l1234 -3034c0,0 -3514,657 -8221,683 -4706,26 -7894,-683 -7894,-683l1234 3034c0,0 2366,709 6609,761 4243,51 7038,-761 7038,-761z"/>
   <path class="fil12" d="M16115 2930c0,440 -3608,796 -8058,796 -4450,0 -8057,-356 -8057,-796 0,-440 3607,-797 8057,-797 4450,0 8058,357 8058,797z"/>
   <circle class="fil13" cx="8147" cy="2738" r="2648"/>
   <circle class="fil14" cx="8057" cy="2648" r="2648"/>
   <g>
    <polygon class="fil15" points="6808,901 6808,4275 9307,4275 9307,1584 8631,908 "/>
    <polygon class="fil16" points="9307,1584 8631,908 8631,1587 "/>
    <polygon class="fil17" points="8720,1587 9307,2262 9307,1584 "/>
    <polygon class="fil18" points="7044,1989 8720,1989 8720,1923 7044,1923 "/>
    <polygon class="fil18" points="7044,2159 8720,2159 8720,2092 7044,2092 "/>
    <polygon class="fil18" points="7044,2328 8720,2328 8720,2262 7044,2262 "/>
    <polygon class="fil18" points="7044,2497 8720,2497 8720,2431 7044,2431 "/>
    <polygon class="fil18" points="7044,2667 8720,2667 8720,2601 7044,2601 "/>
    <polygon class="fil18" points="7044,2836 8720,2836 8720,2770 7044,2770 "/>
    <polygon class="fil18" points="7044,3005 8720,3005 8720,2939 7044,2939 "/>
    <polygon class="fil18" points="7044,3175 8720,3175 8720,3109 7044,3109 "/>
    <polygon class="fil18" points="7044,3344 8720,3344 8720,3278 7044,3278 "/>
    <polygon class="fil18" points="7044,3514 8720,3514 8720,3448 7044,3448 "/>
    <polygon class="fil18" points="7044,3683 8720,3683 8720,3617 7044,3617 "/>
    <polygon class="fil18" points="7044,3852 8720,3852 8720,3786 7044,3786 "/>
    <polygon class="fil18" points="7044,4022 8720,4022 8720,3956 7044,3956 "/>
    <polygon class="fil19" points="7044,1457 8050,1457 8050,1130 7044,1130 "/>
    <path class="fil19" d="M7319 4328l10 64 1 3 20 -76c-9,4 -18,7 -27,9 -1,0 -2,0 -4,0z"/>
    <path class="fil19" d="M7294 4327l35 65 -10 -64c-8,1 -17,1 -25,-1z"/>
    <path class="fil20" d="M7318 4314l-38 -256 -169 25 -1 -7c0,2 1,4 1,7 16,108 97,230 183,244l-5 -9 29 -4z"/>
    <path class="fil21" d="M7280 4058l38 256 35 -5 -3 10c78,-37 121,-178 105,-287 0,-2 -1,-5 -1,-7l1 7 -175 26z"/>
    <path class="fil21" d="M7318 4314l1 14c2,0 3,0 4,0 9,-2 18,-5 27,-9l3 -10 -35 5z"/>
    <path class="fil21" d="M7318 4314l-29 4 5 9c8,2 17,2 25,1l-1 -14z"/>
    <path class="fil20" d="M7029 2357l-24 -159c-93,15 -159,93 -147,174 1,5 2,10 3,14l-1 -4 169 -25z"/>
    <path class="fil21" d="M7204 2331l0 5c0,-5 0,-10 -1,-15 -12,-82 -99,-138 -194,-123 -1,0 -3,0 -4,0l24 159 175 -26z"/>
    <path class="fil22" d="M7130 3936l-38 6c-1,0 -1,0 -2,0l2 9c0,0 0,-1 1,-1l33 -5 134 -19 -1 -9 -129 19z"/>
    <path class="fil23" d="M7433 3892l-39 5 -135 20 1 9 141 -21 33 -5c1,0 1,0 1,0l-1 -9c0,0 -1,1 -1,1z"/>
    <path class="fil22" d="M7117 3972l-21 3c0,0 0,0 -1,0l15 101 1 7 169 -25 -16 -108 -147 22z"/>
    <path class="fil23" d="M7438 3925l-21 3 -153 22 16 108 175 -26 -1 -7 -15 -100c0,0 -1,0 -1,0z"/>
    <path class="fil23" d="M7215 2454l-84 12 -84 12 2 18 198 1343 8 53 116 -17 58 -8c1,0 1,0 1,0l-208 -1415c-2,1 -5,1 -7,2z"/>
    <path class="fil22" d="M6860 2382l1 4 10 67c2,-1 4,-2 6,-2l20 -3 142 -21 -10 -70 -169 25z"/>
    <path class="fil23" d="M7029 2357l10 70 149 -22 19 -3c3,0 5,0 7,0l-10 -66 0 -5 -175 26z"/>
    <path class="fil22" d="M6969 2490l-84 12c-2,1 -5,1 -7,0l209 1415c0,0 0,0 1,0l58 -9 109 -16 -8 -53 -198 -1343 -2 -18 -78 12z"/>
    <path class="fil20" d="M6897 2448l-20 3c-2,0 -4,1 -6,2 -11,4 -17,15 -16,27 2,12 12,21 23,22 2,1 5,1 7,0l84 -12 78 -12 -8 -51 -142 21z"/>
    <path class="fil21" d="M7226 2406c-4,-2 -8,-3 -12,-4 -2,0 -4,0 -7,0l-19 3 -149 22 8 51 84 -12 84 -12c2,-1 5,-1 7,-2 5,-3 9,-6 12,-11l45 -7 70 472c-32,5 -54,39 -48,76 5,37 36,64 68,59l0 1 35 -6 -95 -642 -83 12z"/>
    <path class="fil21" d="M7430 3867c0,0 0,0 -1,0l-58 8 -116 17 4 25 135 -20 39 -5c0,0 1,-1 1,-1 6,-1 10,-7 9,-14 0,-6 -6,-11 -13,-10z"/>
    <path class="fil20" d="M7146 3908l-58 9c-1,0 -1,0 -1,0 -6,2 -11,8 -10,14 1,7 7,11 13,11 1,0 1,0 2,0l38 -6 129 -19 -4 -25 -109 16z"/>
    <path class="fil21" d="M7435 3900c0,0 0,0 -1,0l-33 5 -141 21 4 24 153 -22 21 -3c0,0 1,0 1,0 6,-2 10,-8 9,-14 -1,-7 -6,-11 -13,-11z"/>
    <path class="fil20" d="M7126 3945l-33 5c-1,0 -1,1 -1,1 -7,1 -11,7 -10,14 1,6 7,11 13,10 1,0 1,0 1,0l21 -3 147 -22 -4 -24 -134 19z"/>
   </g>
   <polygon class="fil24" points="18401,5053 18760,5053 18760,4960 18511,4960 18511,4447 18401,4447 "/>
   <path id="1" class="fil24" d="M19201 4865c2,-10 4,-26 4,-47 0,-96 -47,-213 -189,-213 -141,0 -214,114 -214,236 0,134 83,221 225,221 63,0 116,-12 153,-27l-16 -77c-33,13 -70,20 -121,20 -70,0 -133,-34 -135,-113l293 0zm-293 -77c4,-45 33,-107 101,-107 74,0 92,66 91,107l-192 0z"/>
   <path id="2" class="fil24" d="M19640 5053c-5,-27 -6,-66 -6,-105l0 -159c0,-95 -41,-184 -181,-184 -69,0 -126,19 -158,39l21 72c30,-19 75,-33 118,-33 77,0 89,48 89,77l0 7c-162,-1 -260,55 -260,165 0,67 49,131 138,131 56,0 102,-25 129,-59l3 0 7 49 100 0zm-114 -154c0,7 -1,16 -4,24 -10,32 -42,61 -86,61 -35,0 -63,-20 -63,-63 0,-67 74,-84 153,-82l0 60z"/>
   <path id="3" class="fil24" d="M20044 4414l0 249 -2 0c-20,-33 -63,-58 -123,-58 -106,0 -197,87 -196,234 0,135 82,224 187,224 64,0 117,-31 143,-79l1 0 5 69 99 0c-2,-30 -4,-78 -4,-123l0 -516 -110 0zm0 449c0,12 -1,23 -4,32 -11,48 -50,79 -95,79 -70,0 -110,-59 -110,-139 0,-82 40,-145 111,-145 50,0 85,35 95,79 2,9 3,19 3,28l0 66z"/>
   <path id="4" class="fil24" d="M20246 5031c32,18 80,31 133,31 116,0 178,-58 178,-137 -1,-65 -38,-105 -117,-134 -55,-20 -76,-33 -76,-61 0,-27 21,-46 61,-46 39,0 74,14 93,25l21 -78c-25,-13 -67,-26 -116,-26 -101,0 -165,60 -165,138 -1,51 35,98 120,127 54,19 72,34 72,64 0,29 -21,49 -70,49 -40,0 -87,-17 -112,-32l-22 80z"/>
   <path class="fil24" d="M18401 9143l109 0 0 -228c15,2 34,3 54,3 78,0 148,-20 192,-65 34,-32 52,-80 52,-137 0,-57 -23,-104 -59,-134 -39,-32 -98,-50 -179,-50 -75,0 -130,6 -169,13l0 598zm109 -521c12,-2 34,-5 64,-5 77,0 123,36 123,103 0,71 -50,112 -133,112 -22,0 -40,-1 -54,-5l0 -205z"/>
   <path id="1" class="fil24" d="M18888 9143l111 0 0 -227c0,-12 1,-24 3,-34 10,-49 46,-83 99,-83 14,0 24,1 33,3l0 -104c-9,-2 -16,-3 -27,-3 -46,0 -98,32 -119,94l-4 0 -3 -84 -97 0c3,40 4,82 4,141l0 297z"/>
   <path id="2" class="fil24" d="M19399 8695c-132,0 -227,88 -227,232 0,141 96,226 220,226 111,0 224,-72 224,-233 0,-133 -87,-225 -217,-225zm-3 81c76,0 106,78 106,147 0,88 -44,150 -107,150 -67,0 -109,-64 -109,-148 0,-73 32,-149 110,-149z"/>
   <path id="3" class="fil24" d="M19680 9121c33,18 80,31 133,31 116,0 178,-57 178,-137 0,-64 -37,-105 -116,-134 -56,-19 -77,-33 -77,-61 0,-27 22,-46 61,-46 39,0 74,15 93,26l22 -79c-26,-13 -68,-26 -117,-26 -101,0 -165,60 -165,138 -1,51 35,98 121,128 53,18 71,34 71,63 0,29 -21,49 -70,49 -39,0 -87,-16 -112,-32l-22 80z"/>
   <path id="4" class="fil24" d="M20082 9321l111 0 0 -226 2 0c22,35 68,58 123,58 100,0 200,-76 200,-235 0,-136 -84,-223 -185,-223 -66,0 -118,28 -150,78l-2 0 -5 -68 -97 0c2,41 3,88 3,146l0 470zm111 -429c0,-9 2,-19 4,-28 11,-48 53,-82 99,-82 71,0 109,63 109,141 0,86 -41,145 -111,145 -47,0 -87,-33 -97,-78 -3,-10 -4,-20 -4,-30l0 -68z"/>
   <path id="5" class="fil24" d="M20980 8955c2,-10 3,-26 3,-47 0,-96 -46,-213 -188,-213 -141,0 -214,114 -214,236 0,134 83,221 225,221 63,0 115,-12 153,-27l-16 -76c-33,12 -70,19 -121,19 -71,0 -133,-34 -135,-113l293 0zm-293 -77c4,-45 33,-107 101,-107 74,0 92,66 91,107l-192 0z"/>
   <path id="6" class="fil24" d="M21379 9048c-21,9 -48,17 -87,17 -76,0 -134,-51 -134,-141 -1,-80 49,-142 134,-142 40,0 66,9 84,17l19 -83c-25,-12 -66,-21 -107,-21 -153,0 -243,103 -243,234 0,136 89,223 225,223 55,0 101,-12 124,-22l-15 -82z"/>
   <path id="7" class="fil24" d="M21509 8606l0 99 -63 0 0 83 63 0 0 206c0,57 10,97 34,122 21,23 55,36 95,36 35,0 64,-4 80,-11l-2 -84c-9,2 -24,5 -43,5 -42,0 -56,-28 -56,-81l0 -193 105 0 0 -83 -105 0 0 -125 -108 26z"/>
   <path id="8" class="fil24" d="M21778 9121c33,18 81,31 134,31 116,0 178,-57 178,-137 -1,-64 -38,-105 -117,-134 -56,-19 -77,-33 -77,-61 0,-27 22,-46 61,-46 39,0 74,15 93,26l22 -79c-26,-13 -68,-26 -116,-26 -102,0 -166,60 -166,138 -1,51 35,98 121,128 54,18 72,34 72,63 0,29 -22,49 -71,49 -39,0 -87,-16 -112,-32l-22 80z"/>
   <polygon class="fil24" points="18549,13239 18656,13239 18656,12655 18563,12655 18421,12725 18440,12809 18547,12755 18549,12755 "/>
   <path id="1" class="fil24" d="M19111 13000c-4,-19 -5,-44 -5,-70l0 -96c0,-66 -30,-126 -124,-126 -47,0 -88,13 -112,29l17 49c20,-14 49,-23 80,-23 53,0 60,33 60,44l0 7c-110,-1 -179,37 -179,104 0,48 36,87 95,87 39,0 70,-17 90,-38l2 0 5 33 71 0zm-82 -100c0,7 -2,15 -6,22 -9,16 -30,30 -52,30 -25,0 -45,-16 -45,-40 0,-40 51,-52 103,-51l0 39z"/>
   <path id="2" class="fil24" d="M19395 13239l110 0 0 -249 56 0c63,2 91,27 109,106 17,76 31,125 40,143l114 0c-12,-23 -29,-93 -47,-169 -16,-58 -42,-100 -85,-117l0 -2c57,-21 110,-74 110,-152 0,-51 -19,-94 -52,-122 -41,-34 -100,-48 -187,-48 -64,0 -126,5 -168,12l0 598zm110 -521c11,-3 33,-6 68,-6 72,0 119,31 119,98 0,60 -47,99 -121,99l-66 0 0 -191z"/>
   <path id="3" class="fil24" d="M20277 13052c1,-10 3,-27 3,-47 0,-96 -47,-213 -189,-213 -140,0 -214,114 -214,235 0,134 84,221 226,221 63,0 115,-11 153,-27l-16 -76c-34,13 -70,20 -122,20 -70,0 -132,-34 -135,-113l294 0zm-294 -78c5,-45 34,-107 102,-107 74,0 92,67 91,107l-193 0z"/>
   <path id="4" class="fil24" d="M20761 12801l-110 0 0 265c0,12 -3,24 -7,34 -11,28 -40,59 -84,59 -59,0 -82,-46 -82,-119l0 -239 -111 0 0 258c0,143 73,190 153,190 79,0 122,-45 141,-76l1 0 6 66 97 0c-2,-36 -4,-79 -4,-131l0 -307z"/>
   <path id="5" class="fil24" d="M20881 13239l111 0 0 -257c0,-12 1,-26 5,-36 12,-33 42,-64 86,-64 61,0 84,47 84,110l0 247 111 0 0 -259c0,-139 -80,-188 -156,-188 -73,0 -121,41 -139,75l-3 0 -6 -66 -97 0c3,38 4,81 4,131l0 307z"/>
   <path id="6" class="fil24" d="M21507 13239l0 -438 -112 0 0 438 112 0zm-56 -620c-37,0 -62,26 -62,60 0,33 24,60 61,60 39,0 63,-27 63,-60 -1,-34 -24,-60 -62,-60z"/>
   <path id="7" class="fil24" d="M21972 13239c-5,-27 -6,-65 -6,-105l0 -158c0,-95 -41,-184 -181,-184 -69,0 -126,18 -159,38l22 72c30,-19 75,-32 118,-32 77,0 89,48 89,76l0 7c-162,0 -260,55 -260,166 0,67 49,130 138,130 56,0 102,-24 129,-58l3 0 7 48 100 0zm-114 -153c0,7 -1,16 -4,24 -10,31 -42,60 -86,60 -35,0 -63,-20 -63,-63 0,-66 74,-83 153,-82l0 61zm-134 -352c1,-26 9,-40 22,-40 11,0 20,5 36,15 19,10 37,19 59,19 45,0 71,-33 69,-105l-54 0c-2,31 -10,39 -24,39 -11,0 -24,-8 -38,-16 -19,-10 -36,-19 -58,-19 -42,0 -70,39 -67,107l55 0z"/>
   <path id="8" class="fil24" d="M22281 12792c-132,0 -226,88 -226,232 0,140 95,225 219,225 112,0 225,-72 225,-233 0,-133 -87,-224 -218,-224zm-2 81c75,0 106,78 106,146 0,88 -44,150 -107,150 -68,0 -109,-64 -109,-148 0,-73 31,-148 110,-148z"/>
   <path class="fil24" d="M18401 17260l109 0 0 -228c15,3 34,3 54,3 78,0 148,-20 192,-64 34,-33 52,-80 52,-138 0,-57 -23,-104 -59,-134 -39,-32 -98,-49 -179,-49 -75,0 -130,5 -169,12l0 598zm109 -520c12,-3 34,-6 64,-6 77,0 123,36 123,104 0,71 -50,111 -133,111 -22,0 -40,-1 -54,-4l0 -205z"/>
   <path id="1" class="fil24" d="M18888 17260l111 0 0 -226c0,-13 1,-25 3,-34 10,-50 46,-84 99,-84 14,0 24,2 33,3l0 -104c-9,-2 -16,-3 -27,-3 -46,0 -98,32 -119,94l-4 0 -3 -84 -97 0c3,40 4,82 4,142l0 296z"/>
   <path id="2" class="fil24" d="M19399 16812c-132,0 -227,89 -227,232 0,141 96,226 220,226 111,0 224,-72 224,-233 0,-133 -87,-225 -217,-225zm-3 81c76,0 106,79 106,147 0,88 -44,150 -107,150 -67,0 -109,-64 -109,-148 0,-73 32,-149 110,-149z"/>
   <path id="3" class="fil24" d="M19707 17438l111 0 0 -226 2 0c22,35 68,58 123,58 100,0 200,-76 200,-235 0,-136 -84,-223 -185,-223 -66,0 -118,28 -150,78l-2 0 -5 -68 -97 0c1,42 3,88 3,146l0 470zm111 -429c0,-9 2,-18 4,-27 11,-49 53,-82 99,-82 71,0 109,63 109,140 0,86 -41,145 -111,145 -47,0 -87,-33 -97,-78 -3,-9 -4,-19 -4,-30l0 -68z"/>
   <path id="4" class="fil24" d="M20432 16812c-132,0 -226,89 -226,232 0,141 95,226 219,226 111,0 225,-72 225,-233 0,-133 -87,-225 -218,-225zm-3 81c76,0 107,79 107,147 0,88 -44,150 -107,150 -68,0 -109,-64 -109,-148 0,-73 31,-149 109,-149z"/>
   <path id="5" class="fil24" d="M20714 17239c32,18 80,30 133,30 116,0 178,-57 178,-136 -1,-65 -38,-106 -117,-134 -56,-20 -77,-34 -77,-62 0,-27 22,-45 62,-45 38,0 73,14 92,25l22 -78c-25,-14 -68,-27 -116,-27 -102,0 -166,61 -166,138 -1,51 35,98 121,128 54,19 72,34 72,64 0,28 -22,48 -70,48 -40,0 -88,-16 -113,-31l-21 80z"/>
   <path id="6" class="fil24" d="M21135 16723l0 99 -63 0 0 83 63 0 0 206c0,58 10,97 34,122 20,23 55,36 95,36 35,0 64,-4 80,-10l-2 -85c-10,3 -24,5 -43,5 -42,0 -57,-27 -57,-81l0 -193 106 0 0 -83 -106 0 0 -125 -107 26z"/>
   <path id="7" class="fil24" d="M21778 17260c-5,-27 -7,-65 -7,-105l0 -158c0,-96 -40,-185 -180,-185 -70,0 -126,19 -159,39l22 72c29,-19 74,-32 118,-32 77,0 89,47 89,76l0 7c-162,-1 -260,55 -260,166 0,66 49,130 137,130 57,0 103,-24 130,-58l3 0 7 48 100 0zm-115 -153c0,7 -1,16 -3,24 -10,31 -43,60 -87,60 -35,0 -63,-20 -63,-63 0,-66 75,-84 153,-82l0 61z"/>
   <polygon class="fil24" points="18740,20251 18511,20251 18511,20094 18753,20094 18753,20003 18401,20003 18401,20610 18767,20610 18767,20519 18511,20519 18511,20341 18740,20341 "/>
   <path id="1" class="fil24" d="M18859 20610l108 0 0 -259c0,-13 2,-26 6,-36 10,-31 38,-63 80,-63 51,0 75,43 75,104l0 254 108 0 0 -263c0,-13 3,-26 5,-37 12,-31 40,-58 78,-58 53,0 78,43 78,116l0 242 108 0 0 -259c0,-140 -74,-189 -147,-189 -36,0 -63,9 -88,26 -20,12 -38,30 -54,55l-2 0c-18,-49 -63,-81 -121,-81 -74,0 -113,40 -135,74l-3 0 -4 -64 -95 0c2,37 3,80 3,130l0 308z"/>
   <path id="2" class="fil24" d="M19808 20610l112 0 0 -258c0,-12 0,-26 4,-36 12,-33 42,-64 86,-64 61,0 84,47 84,110l0 248 111 0 0 -260c0,-139 -80,-188 -156,-188 -73,0 -120,41 -139,75l-3 0 -5 -65 -98 0c3,37 4,80 4,130l0 308z"/>
   <path id="3" class="fil24" d="M20694 20422c2,-10 3,-27 3,-47 0,-96 -46,-213 -188,-213 -141,0 -214,114 -214,235 0,134 83,222 225,222 63,0 115,-12 153,-27l-16 -77c-33,13 -70,20 -121,20 -71,0 -133,-34 -135,-113l293 0zm-293 -78c4,-45 33,-107 101,-107 74,0 92,67 91,107l-192 0z"/>
   <path id="4" class="fil24" d="M21090 20172l-4 58 -2 0c-21,-36 -60,-68 -127,-68 -105,0 -198,87 -198,231 0,124 77,214 186,214 57,0 102,-26 127,-65l2 0 0 38c0,94 -54,132 -126,132 -53,0 -99,-17 -127,-33l-25 83c38,24 98,35 153,35 61,0 123,-12 169,-53 46,-41 65,-107 65,-198l0 -249c0,-60 2,-96 4,-125l-97 0zm-18 246c0,13 -1,28 -4,40 -13,39 -49,66 -90,66 -69,0 -107,-60 -107,-135 0,-89 46,-143 108,-143 47,0 78,31 90,71 3,9 3,20 3,30l0 71z"/>
   <path id="5" class="fil24" d="M21501 20162c-133,0 -227,88 -227,232 0,140 95,225 219,225 112,0 225,-72 225,-233 0,-133 -87,-224 -217,-224zm-3 81c75,0 106,78 106,146 0,88 -44,150 -107,150 -67,0 -109,-63 -109,-148 0,-73 32,-148 110,-148z"/>
   <path id="6" class="fil24" d="M22116 20514c-22,9 -49,17 -88,17 -75,0 -134,-51 -134,-141 0,-80 50,-142 134,-142 40,0 66,9 84,17l20 -83c-25,-11 -67,-20 -107,-20 -154,0 -244,102 -244,233 0,136 89,224 226,224 55,0 101,-12 124,-23l-15 -82z"/>
   <path id="7" class="fil24" d="M22324 20610l0 -438 -111 0 0 438 111 0zm-55 -621c-37,0 -62,26 -62,60 0,34 24,60 61,60 38,0 63,-26 63,-60 -1,-34 -25,-60 -62,-60z"/>
   <path id="8" class="fil24" d="M22789 20610c-4,-27 -6,-66 -6,-106l0 -158c0,-95 -40,-184 -181,-184 -69,0 -126,19 -158,38l22 72c29,-19 74,-32 117,-32 78,0 89,48 89,76l0 8c-161,-1 -259,54 -259,165 0,67 49,130 137,130 57,0 103,-24 130,-58l2 0 8 49 99 0zm-114 -154c0,7 -1,16 -3,24 -10,32 -43,60 -87,60 -35,0 -63,-20 -63,-63 0,-66 75,-83 153,-82l0 61z"/>
   <path id="9" class="fil24" d="M23207 20514c-22,9 -50,17 -88,17 -75,0 -134,-51 -134,-141 -1,-80 50,-142 134,-142 40,0 66,9 84,17l20 -83c-25,-11 -67,-20 -107,-20 -154,0 -244,102 -244,233 0,121 71,205 184,220l-37 73c46,4 70,14 71,35 0,19 -17,25 -36,25 -17,0 -36,-4 -50,-13l-15 49c18,12 46,17 70,17 50,0 101,-21 101,-80 0,-40 -31,-62 -64,-69l19 -33c48,-1 87,-13 107,-23l-15 -82z"/>
   <path id="10" class="fil24" d="M23650 20610c-5,-27 -6,-66 -6,-106l0 -158c0,-95 -41,-184 -181,-184 -69,0 -126,19 -158,38l21 72c30,-19 75,-32 118,-32 77,0 89,48 89,76l0 8c-162,-1 -260,54 -260,165 0,67 50,130 138,130 56,0 102,-24 129,-58l3 0 7 49 100 0zm-114 -154c0,7 -1,16 -4,24 -10,32 -42,60 -86,60 -35,0 -63,-20 -63,-63 0,-66 75,-83 153,-82l0 61zm-134 -352c2,-26 9,-40 22,-40 11,0 20,5 36,15 19,10 37,19 60,19 45,0 70,-33 68,-105l-54 0c-2,31 -10,39 -23,39 -12,0 -25,-8 -39,-16 -19,-10 -36,-19 -58,-19 -42,0 -70,39 -67,107l55 0z"/>
   <path id="11" class="fil24" d="M23959 20162c-132,0 -226,88 -226,232 0,140 95,225 219,225 112,0 225,-72 225,-233 0,-133 -87,-224 -218,-224zm-2 81c75,0 106,78 106,146 0,88 -44,150 -107,150 -68,0 -109,-63 -109,-148 0,-73 31,-148 110,-148z"/>
   <path class="fil24" d="M18886 23988l-214 0 0 87 107 0 0 151c-14,7 -44,13 -83,13 -126,0 -211,-82 -211,-220 0,-141 91,-218 220,-218 64,0 105,12 138,27l24 -90c-28,-13 -86,-28 -161,-28 -200,0 -337,123 -337,314 -1,92 31,172 85,224 57,54 135,80 237,80 81,0 157,-19 195,-34l0 -306z"/>
   <path id="1" class="fil24" d="M19348 24322c-4,-27 -6,-65 -6,-105l0 -158c0,-96 -40,-185 -181,-185 -69,0 -126,19 -158,39l22 72c29,-19 74,-32 118,-32 77,0 89,47 89,76l0 7c-162,-1 -260,55 -260,166 0,66 49,130 137,130 57,0 103,-24 130,-58l2 0 8 48 99 0zm-114 -154c0,8 -1,17 -3,25 -10,31 -43,60 -87,60 -35,0 -63,-20 -63,-63 0,-67 75,-84 153,-82l0 60z"/>
   <path id="2" class="fil24" d="M19459 24322l112 0 0 -257c0,-13 1,-26 4,-36 12,-33 42,-65 86,-65 61,0 84,48 84,111l0 247 111 0 0 -260c0,-138 -79,-188 -156,-188 -73,0 -120,42 -139,76l-3 0 -5 -66 -98 0c3,38 4,80 4,131l0 307z"/>
   <path id="3" class="fil24" d="M19974 24322l111 0 0 -262c0,-12 1,-24 5,-33 11,-33 42,-62 85,-62 61,0 84,48 84,112l0 245 111 0 0 -258c0,-140 -78,-190 -153,-190 -28,0 -54,7 -75,20 -24,13 -42,30 -55,50l-2 0 0 -260 -111 0 0 638z"/>
   <path id="4" class="fil24" d="M20834 24322c-4,-27 -6,-65 -6,-105l0 -158c0,-96 -41,-185 -181,-185 -69,0 -126,19 -158,39l21 72c30,-19 75,-32 118,-32 78,0 89,47 89,76l0 7c-162,-1 -260,55 -260,166 0,66 50,130 138,130 57,0 102,-24 129,-58l3 0 7 48 100 0zm-114 -154c0,8 -1,17 -4,25 -10,31 -42,60 -86,60 -35,0 -63,-20 -63,-63 0,-67 75,-84 153,-82l0 60z"/>
   <path id="5" class="fil24" d="M20945 24322l108 0 0 -259c0,-12 2,-25 6,-36 10,-30 38,-63 79,-63 51,0 76,43 76,105l0 253 108 0 0 -262c0,-13 2,-27 5,-37 12,-32 40,-59 77,-59 53,0 79,43 79,116l0 242 108 0 0 -258c0,-140 -74,-190 -147,-190 -36,0 -64,9 -88,26 -21,13 -39,31 -54,55l-2 0c-19,-48 -64,-81 -121,-81 -74,0 -114,41 -135,75l-3 0 -4 -65 -96 0c3,38 4,80 4,131l0 307z"/>
   <path id="6" class="fil24" d="M21906 23874c-132,0 -226,88 -226,232 0,141 95,226 219,226 112,0 225,-72 225,-233 0,-133 -87,-225 -218,-225zm-3 81c76,0 107,78 107,147 0,88 -44,150 -107,150 -68,0 -109,-64 -109,-148 0,-73 31,-149 109,-149z"/>
   <path id="7" class="fil24" d="M22188 24301c32,18 80,30 133,30 116,0 178,-57 178,-137 -1,-64 -38,-105 -117,-134 -56,-19 -77,-33 -77,-61 0,-27 22,-46 62,-46 38,0 73,15 92,26l22 -79c-25,-13 -68,-26 -116,-26 -102,0 -166,61 -166,138 -1,51 35,98 121,128 54,18 72,34 72,63 0,29 -22,49 -70,49 -40,0 -88,-16 -113,-31l-21 80z"/>
  </g>
 </g>
</svg>
