<?xml version="1.0" encoding="utf-8"?>
<!-- Generator: Adobe Illustrator 19.2.1, SVG Export Plug-In . SVG Version: 6.00 Build 0)  -->
<!DOCTYPE svg PUBLIC "-//W3C//DTD SVG 1.1//EN" "http://www.w3.org/Graphics/SVG/1.1/DTD/svg11.dtd">
<svg version="1.1" id="Ebene_1" xmlns="http://www.w3.org/2000/svg" xmlns:xlink="http://www.w3.org/1999/xlink" x="0px" y="0px"
	 viewBox="0 0 500 500" style="enable-background:new 0 0 500 500;" xml:space="preserve">
<g>
	<path d="M372,347.6l-2.5,31c-6.9,2.5-17.2,4.9-29.5,4.9c-24.1,0-39.9-8.9-44.3-36.4c-15.8,23.1-47.8,36.4-79.3,36.4
		c-46.3,0-83.7-21.7-83.7-66c0-36.9,32.5-66,96-76.8l65.5-10.8v-13.8c0-32.5-20.7-54.2-57.6-54.2c-32.5,0-57.1,15.8-70.4,46.8
		l-29-21.2c12.8-36.4,51.7-60.1,99.4-60.1c56.1,0,97,26.6,97,83.7v121.1c0,11.8,4.9,17.7,18.7,17.7
		C358.7,350.1,366.1,349.1,372,347.6z M294.2,295.9v-34l-55.1,10.3c-43.3,7.9-65.5,22.2-65.5,45.3c0,20.7,16.7,31.5,44.8,31.5
		C257.8,349.1,294.2,328.4,294.2,295.9z"/>
</g>
</svg>
