<?xml version="1.0" encoding="utf-8"?>
<!-- Generator: Adobe Illustrator 19.2.0, SVG Export Plug-In . SVG Version: 6.00 Build 0)  -->
<svg version="1.1" xmlns="http://www.w3.org/2000/svg" xmlns:xlink="http://www.w3.org/1999/xlink" x="0px" y="0px"
	 viewBox="0 0 170.1 170.1" style="enable-background:new 0 0 170.1 170.1;" xml:space="preserve">
<style type="text/css">
	.st0{fill:#EEEADC;}
	.st1{opacity:0.5;fill:url(#);}
	.st2{opacity:0.3;fill:#CAC5B2;}
	.st3{fill:#CAC5B2;}
	.st4{opacity:0.3;}
	.st5{fill:#FFFFFF;}
	.st6{fill:#E7D7EB;}
	.st7{fill:url(#);}
	.st8{fill:#993A8E;}
	.st9{fill:#EAC000;}
	.st10{fill:#F1ECDA;}
	.st11{fill:#DEC8E3;}
	.st12{fill:none;stroke:#993A8E;stroke-width:4;stroke-miterlimit:10;}
	.st13{fill:none;stroke:#000000;stroke-width:3.3493;stroke-miterlimit:10;}
	.st14{fill:none;stroke:#000000;stroke-miterlimit:10;}
	.st15{fill:#DAD5C0;}
	.st16{fill:none;stroke:#000000;stroke-width:11;stroke-miterlimit:10;}
	.st17{fill:#F3D570;}
	.st18{fill:#EAC100;}
	.st19{fill:#9D4291;}
	.st20{fill:#FBEECB;}
	.st21{fill:#F8E6AF;}
	.st22{fill:#13336D;}
	.st23{fill:#ACD7C1;}
	.st24{fill:#C8E4D5;}
	.st25{fill:#332E70;}
	.st26{fill:#F4F2E9;}
	.st27{fill:#D2B3D6;}
	.st28{fill:url(#SVGID_1_);}
	.st29{fill:#F6DD8E;}
	.st30{fill:url(#SVGID_2_);}
	.st31{fill:none;stroke:#F6DD8E;stroke-width:1.7967;stroke-miterlimit:10;}
	.st32{fill:none;stroke:#F6DD8E;stroke-width:4.4917;stroke-miterlimit:10;}
	.st33{fill:url(#SVGID_3_);}
	.st34{fill:#BEBAA8;}
	.st35{fill:none;stroke:#000000;stroke-width:1.7338;stroke-miterlimit:10;}
	.st36{fill:#FCFBF9;}
	.st37{fill:#E6C983;}
	.st38{fill:#BDB6A2;}
	.st39{fill:#EFEAD8;}
	.st40{fill:#EDE9D7;}
	.st41{fill:#9CC3AF;}
	.st42{fill:url(#SVGID_4_);}
	.st43{fill:#E4DEC8;}
	.st44{fill:none;stroke:#E4DEC8;stroke-width:1.9388;stroke-miterlimit:10;}
	.st45{fill:none;stroke:#E4DEC8;stroke-width:4.8471;stroke-miterlimit:10;}
	.st46{fill:#A28450;}
	.st47{fill:#E9F5FA;}
	.st48{fill:#88CCE3;}
	.st49{fill:#3D235F;}
	.st50{fill:#B2A4BF;}
	.st51{fill:#E1F1F8;}
	.st52{fill:#52366E;}
	.st53{fill:#C3B8CE;}
	.st54{fill:#CE89BB;}
	.st55{fill:#6A5081;}
	.st56{fill:#755C8A;}
	.st57{fill:#3E2460;}
	.st58{fill:#8ECEE5;}
	.st59{fill:url(#SVGID_5_);}
	.st60{fill:#8B769D;}
	.st61{fill:none;stroke:#8B769D;stroke-width:1.9388;stroke-miterlimit:10;}
	.st62{fill:none;stroke:#8B769D;stroke-width:4.8471;stroke-miterlimit:10;}
	.st63{fill:#983B8E;}
	.st64{fill:#C8C1AC;}
	.st65{opacity:0.5;fill:url(#);enable-background:new    ;}
	.st66{fill:#F1EEE6;}
	.st67{fill:#DDC7E2;}
	.st68{fill:#F2D262;}
	.st69{fill:#9EA8B0;}
	.st70{fill:#DFBA5C;}
	.st71{fill:#4E718D;}
	.st72{fill:#3B5365;}
	.st73{fill:#BC970C;}
	.st74{fill:#E8CC89;}
	.st75{fill:#FBFAF7;}
	.st76{fill:#FDFCFB;}
	.st77{fill:#FBC58B;}
	.st78{fill:#7E1267;}
	.st79{fill:#530D50;}
	.st80{fill:#E49D3F;}
	.st81{fill:#B2B2B2;}
	.st82{fill:#AE2417;}
	.st83{fill:#575756;}
	.st84{fill:#931008;}
	.st85{fill:#D0CBA1;}
	.st86{fill:#F9F8F2;}
	.st87{fill:#835182;}
	.st88{fill:#6D9A91;}
	.st89{fill:#0E786A;}
	.st90{fill:#5B175B;}
	.st91{fill:#546093;}
	.st92{fill:#60AB5D;}
	.st93{fill:#FFDE00;}
	.st94{fill:#C93821;}
	.st95{fill:#D73B24;}
	.st96{fill:#588FC4;}
	.st97{fill:#00983A;}
	.st98{fill:#4569B1;}
	.st99{fill:#282727;}
	.st100{fill:#B71918;}
	.st101{fill:#72BB6F;}
	.st102{fill:#62A060;}
	.st103{fill:#8D1A14;}
	.st104{fill:#DEE1EE;}
	.st105{fill:#403C90;}
	.st106{fill:#E981AC;}
	.st107{fill:#E56199;}
	.st108{fill:#68265B;}
	.st109{fill:#26A5B8;}
	.st110{fill:#E45F8A;}
	.st111{fill:#007375;}
	.st112{fill:#005859;}
	.st113{fill:#C25376;}
	.st114{fill:#E45C41;}
	.st115{fill:#24536D;}
	.st116{fill:#1D4459;}
	.st117{fill:#C15036;}
</style>
<g id="Layer_3">
</g>
<g id="Layer_2">
	<g>
		<path class="st17" d="M155.9,30.1L155.9,30.1h-20.1v18.6c0,0,0,0,0,0c-1.4,0-2.6,1.1-2.6,2.6c0,1.4,1.1,2.6,2.6,2.6c0,0,0,0,0,0
			v8.4v0.1c0,0-0.1,0-0.1,0c0,0,0,0,0.1,0v16.6h12.9c-0.1,0.1-0.2,0.3-0.3,0.5l-4.4,10.1c-0.1,0.2-0.2,0.5-0.2,0.8v23.2h0v1.8
			c0,1.1,0.9,1.9,1.9,1.9c1.1,0,1.9-0.9,1.9-1.9v-4.4h0V90.7l2.2-5.1v6.6l-3.9,55.4h3.9v19.6c-1,0.6-1.6,1.7-1.6,3h7.1
			c0-1.1-0.5-2-1.2-2.7v-19.8h3.1v19.7c-0.8,0.7-1.4,1.7-1.4,2.8h7.1c0-1.2-0.6-2.2-1.4-2.8v-19.7h3.9l-3.9-55.4v-0.6v-6.1l2.2,5.1
			v20.1h0v4.4c0,1.1,0.9,1.9,1.9,1.9c1.1,0,1.9-0.9,1.9-1.9v-4.4h0V90.3c0-0.3-0.1-0.5-0.2-0.8l-4.4-10.1c-0.1-0.2-0.2-0.3-0.3-0.5
			h7.1V30.1H155.9z"/>
		<g>
			<path class="st17" d="M33.8,53.8c1.4,0,2.5-1.2,2.5-2.6c0-1.4-1.1-2.5-2.5-2.6V30.1H13.7h0H0V65c4.2,2.8,7.2,7.2,7.9,12.4v0.9
				c-0.7,0.1-1.3,0.5-1.6,1.2L1.9,89.5c-0.1,0.2-0.2,0.5-0.2,0.8v23.2h0v1.8c0,1.1,0.9,1.9,1.9,1.9c1.1,0,1.9-0.9,1.9-1.9v-4.4h0
				V90.7l2.2-5.1v6.6h0v75c-1,0.6-1.6,1.7-1.6,3h7.1c0-1.1-0.5-2-1.2-2.7V99.9h1.5h0.7h0.9v67.4c-0.8,0.7-1.4,1.7-1.4,2.8H21
				c0-1.2-0.6-2.2-1.4-2.8V92.2v-0.6v-6.1l2.2,5.1v20.1h0v4.4c0,1.1,0.9,1.9,1.9,1.9c1.1,0,1.9-0.9,1.9-1.9v-4.4h0V90.3
				c0-0.3-0.1-0.5-0.2-0.8l-4.4-10.1c-0.3-0.6-0.9-1.1-1.6-1.2v-0.9c1.1-7.5,6.9-13.5,14.3-15c0,0-0.1,0-0.2-0.1h0.2V53.8z"/>
		</g>
		<g>
			<path class="st17" d="M72.1,48.7V30.1H52h0H32v18.6c0,0,0,0,0,0c-1.4,0-2.6,1.1-2.6,2.6c0,1.4,1.1,2.6,2.6,2.6c0,0,0,0,0,0v8.4
				h0.2c-0.1,0.1-0.2,0.1-0.2,0.1c7.4,1.5,13.2,7.5,14.3,15.1v0.9c-0.7,0.1-1.3,0.5-1.6,1.2l-4.4,10.1c-0.1,0.2-0.2,0.5-0.2,0.8
				v23.2h0v1.8c0,1.1,0.9,1.9,1.9,1.9c1.1,0,1.9-0.9,1.9-1.9v-4.4h0V90.7l2.2-5.1v6.6h0v75c-1,0.6-1.6,1.7-1.6,3h7.1
				c0-1.1-0.5-2-1.2-2.7V99.9H52h0.7h0.9v67.4c-0.8,0.7-1.4,1.7-1.4,2.8h7.1c0-1.2-0.6-2.2-1.4-2.8V92.2v-0.6v-6.1l2.2,5.1v20.1l0,0
				v4.4c0,1.1,0.9,1.9,1.9,1.9c1.1,0,1.9-0.9,1.9-1.9v-4.4h0V90.3c0-0.3-0.1-0.5-0.2-0.8l-4.4-10.1c-0.3-0.6-0.9-1.1-1.6-1.2v-0.9
				c1.1-7.5,6.9-13.5,14.3-15c0,0-0.1,0-0.2-0.1h0.2v-8.4c1.4,0,2.5-1.2,2.5-2.6C74.6,49.9,73.5,48.7,72.1,48.7z"/>
		</g>
		<path class="st18" d="M105.2,62.1v-8.4c1.4,0,2.5-1.2,2.5-2.6c0-1.4-1.1-2.5-2.5-2.6V30H85.1h0H65.1v18.7c0,0,0,0,0,0
			c-1.4,0-2.6,1.1-2.6,2.6c0,1.4,1.1,2.6,2.6,2.6c0,0,0,0,0,0v8.4l0,0v0.1c0,0-0.1,0-0.1,0c0,0,0,0,0.1,0v16.6h13
			c-0.1,0.1-0.2,0.3-0.3,0.5l-4.4,10.1c-0.1,0.2-0.2,0.5-0.2,0.8v23.2h0v1.8c0,1.1,0.9,1.9,1.9,1.9c1.1,0,1.9-0.9,1.9-1.9v-4.4h0
			V90.6l2.2-5.1v6.6l0,0l-3.9,55.5h3.9v19.6c-1,0.6-1.6,1.7-1.6,3h7.1c0-1.1-0.5-2-1.2-2.7v-19.8h3.1v19.7c-0.8,0.6-1.4,1.7-1.4,2.8
			h7.1c0-1.2-0.6-2.2-1.4-2.8v-19.7h3.9L91,92.1v-0.6v-6.1l2.2,5.1v20.2h0v4.4c0,1.1,0.9,1.9,1.9,1.9c1.1,0,1.9-0.9,1.9-1.9v-4.4h0
			V90.2c0-0.3-0.1-0.5-0.2-0.8l-4.4-10.1c-0.1-0.2-0.2-0.3-0.3-0.5h12.9V62.3c0,0,0.1,0,0.1,0C105.3,62.3,105.2,62.2,105.2,62.1
			L105.2,62.1L105.2,62.1z"/>
		<g>
			<path class="st18" d="M55.6,48.6V30H35.6h0H15.5v18.7c0,0,0,0,0,0c-1.4,0-2.6,1.1-2.6,2.6c0,1.4,1.1,2.6,2.6,2.6c0,0,0,0,0,0v8.4
				h0.2c-0.1,0.1-0.2,0.1-0.2,0.1c7.4,1.5,13.2,7.5,14.3,15.1v0.9c-0.7,0.1-1.3,0.5-1.6,1.2l-4.4,10.1c-0.1,0.2-0.2,0.5-0.2,0.8
				v23.2h0v1.8c0,1.1,0.9,1.9,1.9,1.9c1.1,0,1.9-0.9,1.9-1.9v-4.4h0V90.6l2.2-5.1v6.6h0v75c-1,0.6-1.6,1.7-1.6,3h7.1
				c0-1.1-0.5-2-1.2-2.7V99.9h1.5h0.7h0.9v67.4c-0.8,0.6-1.4,1.7-1.4,2.8h7.1c0-1.2-0.6-2.2-1.4-2.8V92.1v-0.6v-6.1l2.2,5.1v20.2h0
				v4.4c0,1.1,0.9,1.9,1.9,1.9c1.1,0,1.9-0.9,1.9-1.9v-4.4h0V90.2c0-0.3-0.1-0.5-0.2-0.8L43,79.4c-0.3-0.6-0.9-1.1-1.6-1.2v-0.9
				c1.1-7.5,6.9-13.5,14.3-15c0,0-0.1,0-0.2-0.1h0.2v-8.4c1.4,0,2.5-1.2,2.5-2.6C58.2,49.8,57,48.6,55.6,48.6z"/>
		</g>
		<g>
			<path class="st18" d="M153.4,48.6V30h-20.1h0h-20.1v18.7c0,0,0,0,0,0c-1.4,0-2.6,1.1-2.6,2.6c0,1.4,1.2,2.6,2.6,2.6c0,0,0,0,0,0
				v8.4h0.2c-0.1,0.1-0.2,0.1-0.2,0.1c7.4,1.5,13.2,7.5,14.3,15.1v0.9c-0.7,0.1-1.3,0.5-1.6,1.2l-4.4,10.1c-0.1,0.2-0.2,0.5-0.2,0.8
				v23.2h0v1.8c0,1.1,0.9,1.9,1.9,1.9c1.1,0,1.9-0.9,1.9-1.9v-4.4h0V90.6l2.2-5.1v6.6h0v75c-1,0.6-1.6,1.7-1.6,3h7.1
				c0-1.1-0.5-2-1.2-2.7V99.9h1.5h0.7h0.9v67.4c-0.8,0.6-1.4,1.7-1.4,2.8h7.1c0-1.2-0.6-2.2-1.4-2.8V92.1v-0.6v-6.1l2.2,5.1v20.2h0
				v4.4c0,1.1,0.9,1.9,1.9,1.9c1.1,0,1.9-0.9,1.9-1.9v-4.4h0V90.2c0-0.3-0.1-0.5-0.2-0.8l-4.4-10.1c-0.3-0.6-0.9-1.1-1.6-1.2v-0.9
				c1.1-7.5,6.9-13.5,14.3-15c0,0-0.1,0-0.2-0.1h0.2v-8.4c1.4,0,2.5-1.2,2.5-2.6C155.9,49.8,154.8,48.6,153.4,48.6z"/>
		</g>
		<rect x="88.8" y="38.5" class="st8" width="41.8" height="36.7"/>
		<g>
			<circle class="st5" cx="83.3" cy="46.3" r="2.7"/>
			<circle class="st10" cx="41.5" cy="46.3" r="2.7"/>
			<rect x="56.3" y="44.4" class="st5" width="12.2" height="43.9"/>
			<rect x="56.3" y="44.4" class="st10" width="6.1" height="43.9"/>
			<path class="st10" d="M56.5,76.2c0-9-6.5-16.6-15-18.3c0,0,12.4-7.1,12.5-7.1c0.2,0,4.9,9.7,4.9,9.7L56.5,76.2z"/>
			<path class="st5" d="M68.3,76.2c0-9,6.5-16.6,15-18.3c0,0-12.4-7.1-12.5-7.1c-0.2,0-4.9,9.7-4.9,9.7L68.3,76.2z"/>
			<polygon class="st8" points="56.3,88.9 56.3,169.6 60.8,169.6 60.8,97 63.1,97 63.1,88.9 			"/>
			<polygon class="st8" points="62.4,88.9 62.4,97 64,97 64,169.6 68.5,169.6 68.5,88.9 			"/>
			<path class="st11" d="M65.7,74.5c0,1.8-1.5,3.3-3.3,3.3c-1.8,0-3.3-1.5-3.3-3.3h-2.8v14.5h12.2V74.5H65.7z"/>
			<path class="st6" d="M59.2,74.5h-2.8v14.5h6.1V77.7C60.6,77.7,59.2,76.2,59.2,74.5z"/>
			<rect x="62.4" y="24.2" class="st5" width="20.9" height="33.5"/>
			<rect x="41.5" y="24.2" class="st10" width="20.9" height="33.5"/>
			<circle class="st8" cx="57.6" cy="46.3" r="2.7"/>
			<circle class="st8" cx="67.3" cy="46.3" r="2.7"/>
			<path class="st6" d="M54,111.1h-4V87c0-0.3,0.1-0.6,0.2-0.8l4.6-10.5c0.3-0.7,1-1.2,1.9-1.2h0.8v2.4l1.1,0.5L54,87.4V111.1
				L54,111.1z"/>
			<path class="st11" d="M74.9,111.1h-4V87.4l-4.4-10.1l1.1-0.5v-2.4h0.8c0.8,0,1.5,0.5,1.9,1.2l4.6,10.5c0.1,0.3,0.2,0.5,0.2,0.8
				V111.1L74.9,111.1z"/>
			<path class="st8" d="M41.5,24.2v33.5l5.9-27.6c0,0,9.4,1.8,15,1.8c5.7,0,15-1.8,15-1.8l5.9,27.6V24.2H41.5z"/>
			<path class="st11" d="M70,170.1h-7.4c0-2,1.7-3.7,3.7-3.7C68.3,166.4,70,168.1,70,170.1z"/>
			<path class="st11" d="M62.1,170.1h-7.4c0-2,1.7-3.7,3.7-3.7C60.5,166.4,62.1,168.1,62.1,170.1z"/>
			<path class="st5" d="M50,113v-4.6h4v4.6c0,1.1-0.9,2-2,2C50.9,115,50,114.1,50,113z"/>
			<path class="st5" d="M70.9,113v-4.6h4v4.6c0,1.1-0.9,2-2,2C71.8,115,70.9,114.1,70.9,113z"/>
			<path class="st11" d="M67.3,58.8c0,0.6-0.5,1-1,1h-7.6c-0.6,0-1-0.5-1-1l0,0c0-0.6,0.5-1,1-1h7.6C66.8,57.7,67.3,58.2,67.3,58.8
				L67.3,58.8z"/>
		</g>
		<g>
			<circle class="st5" cx="130.6" cy="46.3" r="2.7"/>
			<circle class="st10" cx="88.8" cy="46.3" r="2.7"/>
			<rect x="103.6" y="44.4" class="st5" width="12.2" height="43.9"/>
			<rect x="103.6" y="44.4" class="st10" width="6.1" height="43.9"/>
			<path class="st10" d="M103.8,76.2c0-9-6.5-16.6-15-18.3c0,0,12.4-7.1,12.5-7.1c0.2,0,4.9,9.7,4.9,9.7L103.8,76.2z"/>
			<path class="st5" d="M115.6,76.2c0-9,6.5-16.6,15-18.3c0,0-12.4-7.1-12.5-7.1c-0.2,0-4.9,9.7-4.9,9.7L115.6,76.2z"/>
			<polygon class="st5" points="103.6,88.9 103.6,169.6 108.1,169.6 108.1,97 110.4,97 110.4,88.9 			"/>
			<polygon class="st5" points="109.7,88.9 109.7,97 111.3,97 111.3,169.6 115.8,169.6 115.8,88.9 			"/>
			<path class="st11" d="M113,74.5c0,1.8-1.5,3.3-3.3,3.3c-1.8,0-3.3-1.5-3.3-3.3h-2.8v14.5h12.2V74.5H113z"/>
			<path class="st6" d="M106.4,74.5h-2.8v14.5h6.1V77.7C107.9,77.7,106.4,76.2,106.4,74.5z"/>
			<rect x="109.7" y="24.2" class="st5" width="20.9" height="33.5"/>
			<rect x="88.8" y="24.2" class="st10" width="20.9" height="33.5"/>
			<circle class="st8" cx="104.8" cy="46.3" r="2.7"/>
			<circle class="st8" cx="114.6" cy="46.3" r="2.7"/>
			<path class="st6" d="M101.3,111.1h-4V87c0-0.3,0.1-0.6,0.2-0.8l4.6-10.5c0.3-0.7,1-1.2,1.9-1.2h0.8v2.4l1.1,0.5l-4.4,10.1V111.1
				L101.3,111.1z"/>
			<path class="st11" d="M122.2,111.1h-4V87.4l-4.4-10.1l1.1-0.5v-2.4h0.8c0.8,0,1.5,0.5,1.9,1.2l4.6,10.5c0.1,0.3,0.2,0.5,0.2,0.8
				V111.1L122.2,111.1z"/>
			<path class="st8" d="M88.8,24.2v33.5l5.9-27.6c0,0,9.4,1.8,15,1.8c5.7,0,15-1.8,15-1.8l5.9,27.6V24.2H88.8z"/>
			<path class="st11" d="M117.3,170.1h-7.4c0-2,1.7-3.7,3.7-3.7C115.6,166.4,117.3,168.1,117.3,170.1z"/>
			<path class="st11" d="M109.4,170.1H102c0-2,1.7-3.7,3.7-3.7C107.7,166.4,109.4,168.1,109.4,170.1z"/>
			<path class="st5" d="M97.2,113v-4.6h4v4.6c0,1.1-0.9,2-2,2C98.2,115,97.2,114.1,97.2,113z"/>
			<path class="st5" d="M118.1,113v-4.6h4.1v4.6c0,1.1-0.9,2-2,2C119.1,115,118.1,114.1,118.1,113z"/>
			<path class="st11" d="M114.5,58.8c0,0.6-0.5,1-1,1h-7.6c-0.6,0-1-0.5-1-1l0,0c0-0.6,0.5-1,1-1h7.6
				C114.1,57.7,114.5,58.2,114.5,58.8L114.5,58.8z"/>
		</g>
		<polygon class="st11" points="99.5,146.7 119.9,146.7 115.8,88.9 103.6,88.9 		"/>
		<circle class="st11" cx="88.8" cy="49" r="2.5"/>
		<circle class="st11" cx="130.6" cy="49" r="2.5"/>
		<circle class="st5" cx="59" cy="46.3" r="1.1"/>
		<circle class="st5" cx="68.5" cy="46.3" r="1.1"/>
		<circle class="st5" cx="103.4" cy="46.3" r="1.1"/>
		<circle class="st5" cx="113.2" cy="46.3" r="1.1"/>
	</g>
</g>
<g id="Layer_4">
</g>
</svg>
