<?xml version="1.0" standalone="no"?>
<!DOCTYPE svg PUBLIC "-//W3C//DTD SVG 20010904//EN"
 "http://www.w3.org/TR/2001/REC-SVG-20010904/DTD/svg10.dtd">
<svg version="1.0" xmlns="http://www.w3.org/2000/svg"
 width="563.000000pt" height="548.000000pt" viewBox="0 0 563.000000 548.000000"
 preserveAspectRatio="xMidYMid meet">
<metadata>
Created by potrace 1.11, written by Peter Selinger 2001-2013
</metadata>
<g transform="translate(0.000000,548.000000) scale(0.100000,-0.100000)"
fill="#000000" stroke="none">
<path d="M490 5386 c0 -2 17 -33 37 -68 113 -194 146 -344 109 -485 -21 -80
-49 -131 -118 -213 -67 -80 -223 -258 -242 -275 -48 -44 -187 -239 -240 -338
-36 -67 -36 -69 -36 -186 0 -132 29 -272 76 -368 34 -70 147 -174 209 -192 38
-11 45 -17 40 -32 -4 -11 -18 -72 -31 -137 -75 -354 -23 -591 205 -935 50 -75
93 -146 96 -159 3 -13 -3 -66 -15 -118 -32 -143 -12 -209 77 -253 68 -34 496
-175 568 -187 33 -5 76 -10 96 -10 20 0 56 -9 80 -20 58 -26 161 -27 211 -2
l36 19 11 -54 c12 -63 49 -120 119 -185 67 -62 129 -101 298 -186 l141 -71 6
-53 c11 -102 82 -225 155 -269 20 -13 54 -37 74 -55 61 -54 113 -76 200 -81
59 -5 88 -2 122 11 41 16 47 16 83 0 44 -19 154 -22 197 -5 35 14 24 21 232
-145 254 -203 367 -256 476 -226 31 9 43 6 85 -15 44 -23 56 -24 153 -21 113
5 156 19 222 76 18 15 55 33 83 40 62 16 104 48 144 109 103 154 92 388 -24
548 -14 20 -13 20 123 19 301 -4 488 42 600 150 88 83 117 186 108 376 -7 150
-46 443 -81 606 -38 175 -120 454 -168 574 l-43 105 101 -4 c197 -7 303 31
426 151 90 88 111 134 117 255 l4 93 -50 103 c-43 88 -61 113 -129 178 -47 45
-156 127 -278 209 -110 73 -273 186 -361 249 l-161 116 -23 70 c-116 363 -375
603 -727 676 -35 7 -63 16 -63 20 0 11 50 44 95 62 36 14 37 16 13 16 -14 1
-56 -15 -93 -34 -77 -40 -78 -37 -19 75 19 35 34 69 34 75 0 20 -68 -86 -90
-140 -12 -30 -26 -55 -31 -55 -4 0 -23 18 -40 40 -18 22 -49 53 -68 67 -39 30
-33 18 28 -52 l35 -40 -29 -6 c-17 -4 -63 -12 -104 -18 -41 -7 -115 -25 -164
-42 -89 -29 -91 -30 -241 -23 -140 6 -314 -1 -302 -13 2 -3 62 -6 133 -7 233
-4 257 -6 247 -15 -5 -6 -45 -30 -89 -54 -67 -37 -99 -47 -200 -65 -126 -22
-268 -62 -248 -69 7 -2 56 5 110 15 54 11 118 23 143 27 l45 6 -30 -22 c-30
-23 -151 -143 -215 -215 -20 -21 -55 -54 -79 -73 -23 -18 -40 -35 -38 -37 2
-2 20 3 40 11 21 8 37 13 37 10 0 -14 -30 -61 -48 -78 -18 -17 -23 -17 -49 -4
-101 52 -442 134 -652 157 -394 43 -761 -32 -1027 -210 -139 -93 -288 -258
-410 -454 l-49 -78 -13 33 c-10 23 -13 58 -10 105 6 94 58 202 175 360 293
398 359 541 351 753 -3 85 -9 119 -30 169 -42 102 -88 169 -176 258 -66 67
-99 92 -166 124 -75 36 -106 47 -106 36z m3131 -1409 c47 -32 88 -102 99 -172
23 -141 -28 -337 -98 -374 -15 -8 -17 -2 -17 48 -1 41 -9 73 -31 121 -40 86
-77 127 -124 141 -34 10 -43 9 -74 -9 l-36 -21 0 38 c0 87 47 187 109 228 47
32 125 32 172 0z m-682 -44 c57 -43 99 -180 86 -278 -3 -27 -18 -76 -32 -108
l-26 -57 -22 65 c-22 67 -60 116 -107 141 -39 20 -62 17 -99 -13 l-32 -27 5
85 c6 97 28 151 80 194 27 23 39 26 76 22 24 -3 56 -14 71 -24z m-796 -430
c67 -7 58 -22 -13 -23 -40 -1 -73 -9 -132 -35 -14 -5 -18 -2 -18 12 0 34 48
66 85 57 11 -3 46 -8 78 -11z m91 -39 c-41 -61 -200 -100 -224 -54 -10 18 -7
22 24 35 20 8 57 15 83 15 26 0 66 9 88 19 22 10 41 17 43 15 2 -1 -4 -15 -14
-30z m-277 -22 c8 -5 2 -12 -18 -21 -16 -7 -48 -37 -70 -66 -33 -44 -88 -85
-113 -85 -3 0 18 34 45 76 58 87 115 122 156 96z m37 -38 c11 -30 6 -71 -13
-95 -41 -52 -162 -91 -228 -74 l-28 7 30 11 c45 15 107 63 135 103 13 20 38
43 55 50 39 17 42 17 49 -2z m269 -27 c24 -18 67 -43 95 -55 29 -13 51 -26 49
-30 -2 -4 -7 -15 -10 -25 -6 -15 -10 -16 -29 -6 -22 12 -22 11 -6 -8 16 -17
16 -22 3 -39 -13 -18 -14 -17 -21 16 -6 25 -26 53 -76 99 -37 36 -68 69 -68
73 0 16 20 8 63 -25z m-26 -39 c59 -57 83 -95 83 -128 0 -49 -76 -155 -126
-176 -54 -23 -154 -34 -204 -23 -25 6 -65 11 -90 12 -39 2 -45 5 -48 26 -3 22
-1 23 33 19 l37 -4 -5 65 c-2 36 -8 73 -11 81 -4 10 8 24 38 43 39 25 76 76
76 106 0 7 21 11 53 12 28 0 61 4 72 9 32 14 36 12 92 -42z m-340 -192 l6 -56
-31 0 c-25 0 -33 -5 -38 -24 -12 -48 40 -90 84 -68 18 10 82 -11 82 -26 0 -16
-32 -52 -46 -52 -8 0 -15 10 -15 23 l-2 22 -4 -22 c-3 -18 -11 -23 -34 -23
-25 0 -29 4 -30 28 l-2 27 -4 -28 c-4 -26 -8 -28 -41 -25 -29 2 -38 8 -43 28
-7 24 -7 24 -8 3 -1 -19 -7 -23 -37 -23 -30 0 -35 3 -29 18 4 9 10 68 15 130
4 63 12 117 16 122 11 10 135 18 147 9 5 -3 11 -32 14 -63z m546 -3 c-5 -13
-2 -15 11 -10 12 5 8 -4 -13 -28 -17 -20 -31 -40 -31 -45 0 -6 -9 -6 -22 -1
-26 10 -26 32 2 71 21 29 63 39 53 13z m-129 -114 c-12 -25 -18 -29 -25 -18
-6 10 -2 19 14 31 30 23 30 23 11 -13z m73 4 c9 -24 -36 -103 -72 -124 -16
-11 -42 -19 -57 -19 -26 0 -26 2 -17 30 6 16 19 32 30 35 11 4 27 19 36 33 39
63 67 79 80 45z m-119 -25 c16 -16 15 -28 -3 -28 -9 0 -25 -19 -35 -42 l-20
-43 0 35 0 35 -20 -44 c-24 -52 -36 -49 -21 5 13 48 7 54 -24 24 -27 -25 -32
-21 -14 11 24 45 109 75 137 47z m-155 -60 c-6 -38 -4 -41 15 -36 15 4 19 2
15 -9 -4 -10 -17 -12 -52 -8 -44 6 -45 5 -21 -9 20 -11 78 -22 143 -26 17 -1
5 -55 -35 -156 l-42 -106 -55 6 c-89 11 -201 73 -201 112 0 6 35 68 77 137 62
101 82 127 102 130 60 9 59 10 54 -35z m-216 -529 c27 -9 32 -17 43 -70 7 -33
11 -61 9 -63 -2 -2 -18 -7 -35 -10 l-30 -7 -12 64 c-12 65 -15 97 -8 97 1 0
17 -5 33 -11z m203 -55 c14 -40 14 -40 -21 -49 -23 -6 -27 -2 -37 33 -16 53
-16 52 17 52 25 0 31 -6 41 -36z m50 -114 c0 -5 -1 -10 -3 -10 -1 0 -17 -4
-35 -9 -25 -8 -32 -7 -32 4 0 13 18 22 53 24 9 0 17 -3 17 -9z m-170 -54 c0
-14 -56 -30 -71 -20 -18 11 -8 24 24 32 36 10 47 7 47 -12z m206 -44 c-3 -5
-22 -12 -41 -14 -28 -3 -35 -1 -33 11 2 9 17 18 33 22 32 6 51 -3 41 -19z
m-176 -57 c0 -8 -4 -15 -9 -15 -5 0 -23 -3 -40 -6 -24 -5 -31 -3 -31 9 0 16
18 24 58 26 13 1 22 -5 22 -14z m210 -25 c-8 -5 -23 -10 -32 -10 -9 0 -24 -3
-34 -7 -11 -4 -15 -2 -12 7 6 18 70 40 83 28 6 -6 5 -12 -5 -18z m-180 -69 c0
-13 -8 -17 -47 -26 -26 -5 -33 -3 -33 8 0 9 8 18 18 20 31 8 62 7 62 -2z m274
-20 l29 -30 -26 -6 c-42 -11 -163 37 -126 49 65 22 93 19 123 -13z m-193 -93
c38 -30 38 -32 18 -46 -18 -12 -26 -11 -74 8 -71 29 -87 47 -48 55 15 4 33 8
38 10 21 7 27 4 66 -27z"/>
<path d="M2145 3360 c3 -5 16 -10 28 -10 18 0 19 2 7 10 -20 13 -43 13 -35 0z"/>
<path d="M2022 3313 c-7 -12 -12 -32 -11 -45 1 -20 3 -18 15 11 17 38 13 67
-4 34z"/>
<path d="M2170 3315 c0 -8 5 -15 10 -15 6 0 10 7 10 15 0 8 -4 15 -10 15 -5 0
-10 -7 -10 -15z"/>
<path d="M2080 3266 c0 -9 5 -16 10 -16 6 0 10 4 10 9 0 6 -4 13 -10 16 -5 3
-10 -1 -10 -9z"/>
<path d="M2160 3251 c-12 -24 -13 -31 -1 -31 5 0 11 10 14 21 4 15 11 20 21
16 9 -4 16 -2 16 3 0 18 -39 10 -50 -9z"/>
<path d="M2235 3190 c-27 -30 -97 -60 -139 -60 -34 0 -37 2 -31 23 6 22 6 22
-10 2 -9 -11 -21 -28 -27 -38 -8 -16 -7 -18 11 -12 14 4 31 -1 51 -15 47 -34
96 -37 125 -10 14 13 25 34 25 46 0 13 5 35 10 50 13 34 8 39 -15 14z m-40
-100 c-3 -5 -17 -10 -31 -10 -13 0 -24 5 -24 10 0 6 14 10 31 10 17 0 28 -4
24 -10z"/>
<path d="M2143 2825 c-8 -22 6 -33 17 -15 13 20 12 30 0 30 -6 0 -13 -7 -17
-15z"/>
<path d="M2104 2705 c-7 -17 4 -37 17 -30 12 8 12 45 -1 45 -6 0 -13 -7 -16
-15z"/>
</g>
</svg>
