<?xml version="1.0"?>
<svg width="930" height="820" xmlns="http://www.w3.org/2000/svg" xmlns:xlink="http://www.w3.org/1999/xlink" viewBox="0 0 930 820">
<rect x="0" y="0" width="930" height="820" style="fill:#e0e0e0"/>
<rect x="50" y="50" width="850" height="400" style="fill:#f0f0f0"/>
<rect x="50" y="450" width="850" height="350" style="fill:#d0d0d0"/>
<text x="465" y="20" style="text-anchor:middle;font-size:12pt">Which of these retailers did you use to buy your Linux games last month?</text><g text-anchor="end" font-size="10pt"><text x="45" y="452">0%</text><text x="45" y="412">10%</text><text x="45" y="372">20%</text><text x="45" y="332">30%</text><text x="45" y="292">40%</text><text x="45" y="252">50%</text><text x="45" y="212">60%</text><text x="45" y="172">70%</text><text x="45" y="132">80%</text><text x="45" y="92">90%</text><text x="45" y="52">100%</text></g><g text-anchor="middle" font-size="10pt"><text x="75" y="465">Sep/14</text><text x="125" y="465">Oct/14</text><text x="175" y="465">Nov/14</text><text x="225" y="465">Dec/14</text><text x="275" y="465">Jan/15</text><text x="325" y="465">Feb/15</text><text x="375" y="465">Mar/15</text><text x="425" y="465">Apr/15</text><text x="475" y="465">May/15</text><text x="525" y="465">Jun/15</text><text x="575" y="465">Jul/15</text><text x="625" y="465">Aug/15</text><text x="675" y="465">Sep/15</text><text x="725" y="465">Oct/15</text><text x="775" y="465">Nov/15</text><text x="825" y="465">Dec/15</text><text x="875" y="465">Jan/16</text></g><g text-anchor="end" font-size="10pt"><text x="90" y="500">92.5</text><text x="140" y="500">91.0</text><text x="190" y="500">90.4</text><text x="240" y="500">94.9</text><text x="290" y="500">88.2</text><text x="340" y="500">86.1</text><text x="390" y="500">92.8</text><text x="440" y="500">86.8</text><text x="490" y="500">82.8</text><text x="540" y="500">92.5</text><text x="590" y="500">88.7</text><text x="640" y="500">86.0</text><text x="690" y="500">84.9</text><text x="740" y="500">89.0</text><text x="790" y="500">92.5</text><text x="840" y="500">93.4</text><text x="890" y="500">74.1</text><text x="90" y="530">60.6</text><text x="140" y="530">59.9</text><text x="190" y="530">45.2</text><text x="240" y="530">36.3</text><text x="290" y="530">38.2</text><text x="340" y="530">38.3</text><text x="390" y="530">44.0</text><text x="440" y="530">48.3</text><text x="490" y="530">45.9</text><text x="540" y="530">33.1</text><text x="590" y="530">33.4</text><text x="640" y="530">36.3</text><text x="690" y="530">43.5</text><text x="740" y="530">42.5</text><text x="790" y="530">30.2</text><text x="840" y="530">26.6</text><text x="890" y="530">27.2</text><text x="90" y="560">28.2</text><text x="140" y="560">28.0</text><text x="190" y="560">26.0</text><text x="240" y="560">19.7</text><text x="290" y="560">21.2</text><text x="340" y="560">22.6</text><text x="390" y="560">16.9</text><text x="440" y="560">19.3</text><text x="490" y="560">26.6</text><text x="540" y="560">24.0</text><text x="590" y="560">18.6</text><text x="640" y="560">21.6</text><text x="690" y="560">19.8</text><text x="740" y="560">15.8</text><text x="790" y="560">18.9</text><text x="840" y="560">20.4</text><text x="890" y="560">15.6</text><text x="90" y="590">0.2</text><text x="140" y="590">0.3</text><text x="190" y="590">0.0</text><text x="240" y="590">0.5</text><text x="290" y="590">1.3</text><text x="340" y="590">1.8</text><text x="390" y="590">0.5</text><text x="440" y="590">0.8</text><text x="490" y="590">1.3</text><text x="540" y="590">0.5</text><text x="590" y="590">3.8</text><text x="640" y="590">5.1</text><text x="690" y="590">4.5</text><text x="740" y="590">4.4</text><text x="790" y="590">3.4</text><text x="840" y="590">4.1</text><text x="890" y="590">4.2</text><text x="90" y="620">10.1</text><text x="140" y="620">6.5</text><text x="190" y="620">5.7</text><text x="240" y="620">3.9</text><text x="290" y="620">7.5</text><text x="340" y="620">8.1</text><text x="390" y="620">4.9</text><text x="440" y="620">4.2</text><text x="490" y="620">7.3</text><text x="540" y="620">6.4</text><text x="590" y="620">4.4</text><text x="640" y="620">5.1</text><text x="690" y="620">5.1</text><text x="740" y="620">5.1</text><text x="790" y="620">3.5</text><text x="840" y="620">2.3</text><text x="890" y="620">1.8</text><text x="90" y="650">5.7</text><text x="140" y="650">4.7</text><text x="190" y="650">5.5</text><text x="240" y="650">4.3</text><text x="290" y="650">4.0</text><text x="340" y="650">5.2</text><text x="390" y="650">2.7</text><text x="440" y="650">3.8</text><text x="490" y="650">5.7</text><text x="540" y="650">3.1</text><text x="590" y="650">3.8</text><text x="640" y="650">3.7</text><text x="690" y="650">3.8</text><text x="740" y="650">3.6</text><text x="790" y="650">3.3</text><text x="840" y="650">4.1</text><text x="890" y="650">3.1</text><text x="90" y="680">-</text><text x="140" y="680">-</text><text x="190" y="680">-</text><text x="240" y="680">-</text><text x="290" y="680">-</text><text x="340" y="680">-</text><text x="390" y="680">-</text><text x="440" y="680">-</text><text x="490" y="680">-</text><text x="540" y="680">-</text><text x="590" y="680">-</text><text x="640" y="680">-</text><text x="690" y="680">-</text><text x="740" y="680">-</text><text x="790" y="680">-</text><text x="840" y="680">-</text><text x="890" y="680">17.2</text><text x="90" y="710">9.6</text><text x="140" y="710">5.2</text><text x="190" y="710">3.3</text><text x="240" y="710">4.1</text><text x="290" y="710">3.1</text><text x="340" y="710">3.0</text><text x="390" y="710">2.1</text><text x="440" y="710">1.8</text><text x="490" y="710">2.7</text><text x="540" y="710">2.0</text><text x="590" y="710">5.4</text><text x="640" y="710">3.1</text><text x="690" y="710">2.4</text><text x="740" y="710">3.2</text><text x="790" y="710">2.1</text><text x="840" y="710">1.2</text><text x="890" y="710">1.2</text><text x="90" y="740">0.4</text><text x="140" y="740">0.2</text><text x="190" y="740">0.0</text><text x="240" y="740">0.1</text><text x="290" y="740">0.2</text><text x="340" y="740">0.3</text><text x="390" y="740">0.2</text><text x="440" y="740">0.2</text><text x="490" y="740">0.1</text><text x="540" y="740">0.2</text><text x="590" y="740">1.6</text><text x="640" y="740">1.1</text><text x="690" y="740">1.0</text><text x="740" y="740">0.8</text><text x="790" y="740">0.7</text><text x="840" y="740">1.3</text><text x="890" y="740">1.6</text><text x="90" y="770">18.9</text><text x="140" y="770">15.4</text><text x="190" y="770">17.0</text><text x="240" y="770">13.2</text><text x="290" y="770">14.1</text><text x="340" y="770">14.7</text><text x="390" y="770">8.6</text><text x="440" y="770">11.6</text><text x="490" y="770">17.5</text><text x="540" y="770">7.0</text><text x="590" y="770">10.6</text><text x="640" y="770">9.1</text><text x="690" y="770">6.3</text><text x="740" y="770">6.2</text><text x="790" y="770">7.5</text><text x="840" y="770">5.4</text><text x="890" y="770">4.3</text></g><g fill="#777777" text-anchor="start" font-size="10pt"><text x="55" y="485">Steam</text><text x="55" y="515">Humble Store/Bundle</text><text x="55" y="545">GOG</text><text x="55" y="575">Bundlestars</text><text x="55" y="605">Kickstarter</text><text x="55" y="635">Indie Gala</text><text x="55" y="665">Didn&#39;t buy any</text><text x="55" y="695">Developer Website</text><text x="55" y="725">itch.io</text><text x="55" y="755">Other</text></g>
<g stroke="#000000" stroke-width="1px"><path d="M50.00 50.00v400.00"/><path d="M50.00 450.00h850.00"/></g><g stroke="#707070" stroke-width="1px" stroke-dasharray="5 5"><path d="M50.00 450.00h850.00"/><path d="M50.00 410.00h850.00"/><path d="M50.00 370.00h850.00"/><path d="M50.00 330.00h850.00"/><path d="M50.00 290.00h850.00"/><path d="M50.00 250.00h850.00"/><path d="M50.00 210.00h850.00"/><path d="M50.00 170.00h850.00"/><path d="M50.00 130.00h850.00"/><path d="M50.00 90.00h850.00"/><path d="M50.00 50.00h850.00"/></g><g fill="none" stroke="#00c000" stroke-width="2px"><path d="M75.00 80.17L125.00 85.94,175.00 88.23,225.00 70.45,275.00 97.06,325.00 105.45,375.00 78.88,425.00 102.63,475.00 118.85,525.00 80.05,575.00 95.38,625.00 106.09,675.00 110.28,725.00 94.12,775.00 79.90,825.00 76.40,875.00 153.69"/></g><g fill="none" stroke="#8b008b" stroke-width="2px"><path d="M75.00 207.66L125.00 210.50,175.00 269.39,225.00 304.78,275.00 297.06,325.00 296.86,375.00 274.13,425.00 256.62,475.00 266.22,525.00 317.47,575.00 316.54,625.00 304.71,675.00 276.19,725.00 280.07,775.00 329.04,825.00 343.67,875.00 341.32"/></g><g fill="none" stroke="#008b8b" stroke-width="2px"><path d="M75.00 337.10L125.00 337.90,175.00 345.84,225.00 371.36,275.00 365.20,325.00 359.79,375.00 382.37,425.00 372.71,475.00 343.60,525.00 353.83,575.00 375.77,625.00 363.56,675.00 370.70,725.00 386.60,775.00 374.40,825.00 368.29,875.00 387.54"/></g><g fill="none" stroke="#ff8c00" stroke-width="2px"><path d="M75.00 449.03L125.00 448.93,175.00 450.00,225.00 447.90,275.00 444.61,325.00 442.96,375.00 448.14,425.00 446.99,475.00 444.88,525.00 448.20,575.00 434.62,625.00 429.77,675.00 431.86,725.00 432.35,775.00 436.25,825.00 433.59,875.00 433.01"/></g><g fill="none" stroke="#4169e1" stroke-width="2px"><path d="M75.00 409.61L125.00 424.02,175.00 427.29,225.00 434.27,275.00 420.10,325.00 417.44,375.00 430.44,425.00 433.16,475.00 420.98,525.00 424.46,575.00 432.31,625.00 429.77,675.00 429.52,725.00 429.74,775.00 435.91,825.00 440.72,875.00 442.75"/></g><g fill="none" stroke="#daa520" stroke-width="2px"><path d="M75.00 427.13L125.00 431.14,175.00 427.84,225.00 432.70,275.00 433.82,325.00 429.32,375.00 439.01,425.00 434.66,475.00 427.24,525.00 437.68,575.00 435.00,625.00 435.29,675.00 434.78,725.00 435.62,775.00 436.94,825.00 433.59,875.00 437.76"/></g><g fill="none" stroke="#8fbc8f" stroke-width="2px"><path d="M875.00 381.29"/></g><g fill="none" stroke="#800080" stroke-width="2px"><path d="M75.00 411.56L125.00 429.00,175.00 436.70,225.00 433.75,275.00 437.75,325.00 438.12,375.00 441.62,425.00 442.78,475.00 439.19,525.00 442.19,575.00 428.46,625.00 437.43,675.00 440.34,725.00 437.25,775.00 441.75,825.00 445.36,875.00 445.00"/></g><g fill="none" stroke="#4682b4" stroke-width="2px"><path d="M75.00 448.54L125.00 449.29,175.00 450.00,225.00 449.48,275.00 449.02,325.00 448.68,375.00 449.25,425.00 449.10,475.00 449.43,525.00 449.40,575.00 443.46,625.00 445.40,675.00 445.90,725.00 446.73,775.00 447.25,825.00 444.65,875.00 443.50"/></g><g fill="none" stroke="#8b0000" stroke-width="2px"><path d="M75.00 374.57L125.00 388.43,175.00 381.86,225.00 397.05,275.00 393.63,325.00 391.03,375.00 415.53,425.00 403.68,475.00 380.01,525.00 422.05,575.00 407.69,625.00 413.52,675.00 424.84,725.00 425.16,775.00 420.10,825.00 428.23,875.00 432.76"/></g>
<g stroke="none">
<rect x="40" y="475" width="10" height="25" style="fill:#00c000"/><rect x="40" y="505" width="10" height="25" style="fill:#8b008b"/><rect x="40" y="535" width="10" height="25" style="fill:#008b8b"/><rect x="40" y="565" width="10" height="25" style="fill:#ff8c00"/><rect x="40" y="595" width="10" height="25" style="fill:#4169e1"/><rect x="40" y="625" width="10" height="25" style="fill:#daa520"/><rect x="40" y="655" width="10" height="25" style="fill:#8fbc8f"/><rect x="40" y="685" width="10" height="25" style="fill:#800080"/><rect x="40" y="715" width="10" height="25" style="fill:#4682b4"/><rect x="40" y="745" width="10" height="25" style="fill:#8b0000"/>
</g>
</svg>