<?xml version="1.0" standalone="no"?>
<!DOCTYPE svg PUBLIC "-//W3C//DTD SVG 20010904//EN"
 "http://www.w3.org/TR/2001/REC-SVG-20010904/DTD/svg10.dtd">
<svg version="1.0" xmlns="http://www.w3.org/2000/svg"
 width="540.000000pt" height="260.000000pt" viewBox="0 0 540.000000 260.000000"
 preserveAspectRatio="xMidYMid meet">
<metadata>
Created by potrace 1.11, written by Peter Selinger 2001-2013
</metadata>
<g transform="translate(0.000000,260.000000) scale(0.100000,-0.100000)"
fill="#000000" stroke="none">
<path d="M0 2550 c0 -33 4 -50 13 -50 6 0 22 -3 34 -6 19 -5 26 0 38 27 l15
34 -2 -40 -3 -40 -47 -3 -48 -3 0 -90 0 -89 28 -1 c15 0 333 -2 707 -5 374 -2
725 -8 780 -13 55 -5 103 -7 108 -4 4 2 7 -1 7 -6 0 -13 -29 -13 -967 -11
l-663 1 0 -111 c0 -60 4 -110 8 -110 5 0 17 7 28 15 24 18 64 19 64 2 0 -16
-72 -87 -88 -87 -8 0 -12 -18 -12 -51 0 -50 0 -51 28 -45 35 8 77 -14 77 -39
0 -18 10 -21 115 -28 63 -5 185 -5 270 -1 227 11 255 12 490 15 118 1 199 4
180 6 -38 5 -65 22 -37 24 9 1 22 3 27 4 6 1 137 3 292 4 l281 1 -7 108 c-4
59 -7 122 -6 140 0 20 -4 32 -12 32 -7 0 -5 5 5 11 23 14 53 4 40 -14 -5 -6
-10 -72 -12 -144 l-3 -133 38 1 c22 1 31 3 21 6 -24 6 -11 23 19 23 25 0 33
-15 12 -23 -7 -3 43 -5 112 -5 69 0 119 2 112 5 -6 2 -12 18 -12 34 0 16 -4
29 -10 29 -5 0 -10 7 -10 15 0 8 5 15 12 15 6 0 8 3 5 6 -4 4 -13 1 -22 -6
-23 -19 -29 -5 -8 19 11 13 29 21 50 21 33 0 33 0 29 -44 -4 -42 -3 -44 25
-48 16 -3 31 -2 34 0 3 3 5 43 5 89 l0 83 -197 1 c-220 2 -203 16 22 20 105 2
119 4 70 9 l-60 7 60 3 60 3 -65 7 c-36 4 -101 9 -145 10 l-80 3 95 7 c52 4
373 8 713 9 l617 1 0 -45 0 -45 -112 0 c-62 -1 -207 -2 -322 -3 l-209 -2 -1
-101 -2 -102 66 -4 c80 -6 138 1 119 13 -10 6 -10 9 -2 9 6 0 14 -4 18 -9 3
-5 50 -10 105 -10 l100 -1 0 90 c0 53 4 90 10 90 10 0 15 -69 11 -142 l-3 -38
111 0 c94 0 111 -2 111 -16 0 -13 -15 -15 -99 -12 -55 2 -103 0 -107 -5 -4 -4
-9 -39 -10 -77 l-3 -70 110 0 109 0 0 -25 0 -25 -110 6 -110 7 0 -47 0 -47 83
4 c84 4 123 18 131 47 2 8 4 -263 5 -602 l1 -618 -27 1 c-16 1 -39 4 -53 8
-24 7 -24 8 8 15 46 11 33 19 -49 32 -78 12 -91 8 -87 -27 2 -18 -2 -24 -17
-24 -15 0 -20 7 -20 27 -1 37 -32 59 -70 52 -38 -8 -39 -8 -26 -32 16 -31 14
-39 -15 -46 -36 -9 -64 2 -64 25 0 15 -7 19 -35 19 -29 0 -37 5 -45 25 -10 26
-4 55 11 55 5 0 9 4 9 9 0 15 -70 42 -98 38 -25 -4 -24 -4 6 -6 23 -1 32 -6
32 -18 0 -10 3 -28 6 -40 6 -23 -20 -38 -49 -27 -15 5 -15 8 0 30 9 14 14 26
12 27 -59 33 -69 32 -61 -8 7 -37 -13 -57 -43 -43 -13 6 -39 8 -60 4 -30 -6
-36 -11 -33 -29 3 -20 10 -22 65 -25 72 -3 92 -19 75 -57 -15 -32 -30 -32 -42
0 -8 22 -15 25 -62 25 -60 0 -74 7 -74 35 0 11 -3 32 -7 46 -6 23 -3 28 21 37
15 6 42 13 61 14 19 2 36 8 38 14 4 13 -115 24 -269 24 l-108 0 0 -95 0 -95
-27 6 c-36 9 -42 14 -15 14 21 0 22 4 22 85 l0 85 -100 0 c-92 0 -100 -2 -100
-19 0 -15 8 -21 33 -23 27 -2 32 -7 32 -28 0 -17 -6 -26 -20 -28 -29 -6 -45
-21 -38 -37 3 -10 28 -15 86 -18 45 -1 -5 -4 -110 -5 l-193 -2 0 -58 c0 -39 4
-59 13 -61 38 -6 499 -13 959 -14 l528 -2 0 -33 0 -32 -347 5 c-428 7 -505 10
-663 24 -168 16 -373 22 -437 15 l-53 -6 0 -114 0 -114 841 0 c557 0 838 3
834 10 -3 6 1 10 9 10 8 0 18 -5 21 -10 4 -7 88 -9 248 -5 288 7 250 7 422 2
91 -3 146 -1 157 7 13 8 21 7 30 -2 9 -9 141 -12 560 -12 l548 0 0 86 0 87
-127 -9 c-71 -5 -198 -8 -283 -6 -89 1 -176 -2 -205 -8 -29 -7 -133 -11 -251
-10 -162 2 -207 -1 -231 -13 -16 -9 -35 -12 -43 -7 -8 4 -103 10 -210 13 -107
3 -229 13 -270 21 -41 8 -167 20 -280 26 -254 14 -260 15 -260 46 0 24 2 24
93 25 50 0 144 0 208 -1 91 -1 117 2 122 12 3 8 25 20 48 28 l44 14 -45 8
c-25 5 -87 18 -138 30 -72 16 -99 18 -117 10 -19 -9 -28 -7 -47 8 -13 10 -40
20 -59 22 -28 2 -34 7 -33 26 0 16 -5 22 -22 22 -40 0 -54 11 -54 41 0 26 3
29 33 29 49 0 54 13 10 26 -36 10 -38 13 -40 52 l-2 42 40 0 c36 0 40 2 37 23
-2 16 -13 24 -40 31 l-38 10 0 362 0 363 28 4 27 4 -27 2 c-27 1 -28 3 -28 61
l0 60 45 0 c45 0 45 0 45 34 0 33 2 35 38 39 20 2 0 4 -45 5 -81 2 -83 2 -83
27 0 25 1 25 85 25 l85 0 0 46 c0 41 -2 45 -20 39 -11 -3 -28 -2 -37 4 -14 8
-15 10 -3 11 12 0 13 2 1 9 -11 7 -10 10 6 15 28 9 59 -3 41 -16 -10 -8 -10
-9 2 -5 13 3 16 34 5 45 -2 2 -40 6 -84 9 -101 7 -107 25 -8 23 98 -3 97 -3
97 24 0 30 9 56 20 56 4 0 10 -18 14 -40 l6 -40 90 0 c50 0 90 3 90 8 0 12 95
42 134 42 20 0 48 7 61 16 14 9 30 12 37 8 7 -4 203 -9 436 -11 262 -2 430 -7
442 -13 30 -16 80 -12 107 10 16 12 41 20 65 20 31 0 46 -7 74 -36 l36 -35
106 7 c59 3 111 9 116 12 16 9 -19 22 -62 22 -30 0 -42 4 -40 12 6 16 42 26
101 27 58 1 87 -12 87 -40 0 -34 19 -59 45 -59 25 0 25 1 25 91 0 76 -3 96
-21 120 -21 30 -47 37 -67 17 -8 -8 -76 -12 -233 -12 -199 -1 -221 -3 -230
-18 -7 -14 -23 -18 -60 -18 -42 0 -51 3 -59 23 l-9 22 0 -22 c-1 -29 -31 -31
-31 -3 0 11 -4 20 -10 20 -5 0 -10 -8 -10 -19 0 -15 -8 -19 -42 -19 -23 -1
-48 4 -55 10 -9 7 -13 7 -13 -1 0 -18 -28 -13 -33 7 -4 16 -5 16 -6 0 -1 -23
-28 -23 -34 0 -4 16 -5 16 -6 0 -1 -18 -31 -26 -31 -9 0 5 -11 4 -25 -2 -14
-7 -25 -18 -25 -24 0 -7 -7 -13 -15 -13 -10 0 -15 10 -15 28 0 15 -4 22 -8 15
-4 -7 -37 -11 -85 -11 -68 0 -79 3 -92 22 l-15 21 -6 -22 c-9 -33 -40 -29 -49
5 -4 15 -10 21 -12 15 -3 -7 -16 -13 -29 -13 -13 0 -24 -5 -24 -10 0 -6 11 -8
26 -4 19 5 25 4 20 -5 -9 -15 -49 -14 -64 1 -9 9 -12 9 -12 -1 0 -8 -12 -11
-37 -9 -31 2 -39 7 -41 26 -3 16 -8 22 -19 18 -8 -3 -23 -6 -34 -6 -24 0 -25
-27 -1 -33 10 -3 5 -5 -11 -6 -21 -1 -30 5 -34 19 -7 25 -21 27 -19 3 1 -16
-10 -18 -92 -20 -87 -2 -94 0 -102 20 l-9 22 0 -22 c-1 -21 -5 -23 -56 -22
-47 1 -55 4 -55 20 0 14 -7 19 -30 19 -23 0 -30 -4 -30 -20 0 -28 -30 -26 -31
3 l0 22 -11 -22 c-15 -31 -67 -32 -75 -3 -4 14 -14 20 -33 20 -48 0 -60 9 -60
46 l0 34 150 0 c132 0 156 3 190 20 48 24 51 32 10 24 -17 -4 -36 -1 -44 5 -9
8 -16 8 -20 2 -4 -5 -33 -10 -66 -10 -62 1 -87 15 -76 44 3 9 0 15 -9 15 -10
0 -15 -10 -15 -30 0 -20 -5 -30 -15 -30 -10 0 -15 10 -15 34 l0 34 213 1 c292
0 277 -1 277 16 0 8 7 15 15 15 8 0 15 -6 15 -14 0 -9 18 -17 48 -23 31 -5 47
-13 47 -23 0 -10 -8 -14 -22 -13 -15 2 -23 -3 -23 -12 0 -8 -7 -15 -15 -15 -8
0 -15 7 -15 15 0 8 -4 15 -10 15 -5 0 -10 -7 -10 -15 0 -11 -12 -15 -44 -15
-46 0 -72 19 -62 45 3 9 0 15 -9 15 -10 0 -15 -10 -15 -30 0 -28 -2 -30 -39
-30 -36 0 -72 -22 -58 -36 3 -4 55 -7 114 -8 87 -1 116 3 148 18 43 20 50 19
50 -4 0 -23 422 -37 465 -15 16 8 35 15 42 15 7 0 31 5 53 12 37 10 38 12 15
18 -35 8 -40 40 -6 40 32 0 34 17 4 24 -13 2 -6 4 15 2 30 -2 37 1 37 16 0 10
7 18 15 18 8 0 15 -7 15 -15 0 -16 8 -17 108 -16 49 0 64 -3 69 -15 3 -9 0
-20 -8 -25 -9 -6 -10 -9 -2 -9 6 0 15 5 18 10 3 6 15 10 26 10 26 0 24 18 -3
22 -13 3 10 5 50 5 43 1 72 -3 72 -9 0 -6 -9 -8 -20 -5 -11 3 -20 2 -20 -3 0
-4 9 -10 21 -13 12 -3 19 -12 17 -19 -7 -19 -203 -21 -219 -2 -6 7 -9 21 -5
29 3 9 0 15 -9 15 -10 0 -15 -10 -15 -30 0 -20 -5 -30 -15 -30 -8 0 -15 5 -15
12 0 9 -3 9 -12 0 -7 -7 -28 -12 -48 -12 -30 0 -35 -3 -36 -24 -1 -17 5 -26
20 -30 37 -10 98 -6 164 10 60 15 64 15 77 -2 12 -18 32 -19 257 -19 134 0
264 4 291 8 l47 8 -1 235 0 234 -1625 0 c-1292 0 -1624 -3 -1624 -12 0 -7 -14
-21 -30 -30 -29 -17 -30 -17 -20 2 21 39 16 40 -180 40 -155 0 -190 -3 -190
-14 0 -8 -9 -24 -19 -37 -19 -23 -20 -23 -40 -5 -13 12 -42 20 -86 24 -43 3
-69 10 -72 18 -4 12 -99 14 -539 14 l-534 0 -12 -27 -12 -28 -4 28 -3 27 -205
0 -204 0 0 -50z m1105 -5 c0 -15 -8 -21 -32 -23 -27 -3 -33 0 -33 16 0 26 10
33 40 30 17 -2 25 -9 25 -23z m-577 -56 c98 -1 107 -17 12 -20 -134 -3 -141
-1 -132 47 l4 24 30 -25 c24 -20 41 -25 86 -26z m1752 16 c16 -20 -3 -45 -35
-45 -32 0 -51 25 -35 45 7 8 23 15 35 15 12 0 28 -7 35 -15z m1120 -75 c13 -9
13 -10 0 -10 -12 0 -12 -2 -2 -9 19 -12 -8 -22 -38 -14 -16 4 -18 8 -8 14 10
7 10 9 -2 9 -13 0 -13 1 0 10 8 5 20 10 25 10 6 0 17 -5 25 -10z m270 -9 c0
-15 5 -18 23 -13 19 5 20 3 9 -10 -7 -9 -10 -23 -6 -32 8 -22 23 -20 17 2 -6
24 19 44 49 40 33 -5 37 -38 4 -38 -14 0 -26 -5 -26 -11 0 -7 10 -9 26 -5 15
4 23 3 20 -3 -9 -14 -218 -9 -223 6 -3 7 7 15 21 19 32 8 34 21 4 28 -13 2 -6
4 15 2 30 -2 37 1 37 16 0 10 7 18 15 18 8 0 15 -9 15 -19z m490 0 c0 -15 5
-18 23 -14 18 5 20 3 10 -8 -17 -17 -16 -24 2 -42 12 -13 6 -15 -52 -16 -38 0
-72 4 -80 11 -11 9 -16 9 -22 0 -4 -7 -29 -10 -61 -9 -50 2 -55 4 -60 27 -3
17 -12 25 -27 26 -29 1 -30 -12 -2 -19 12 -3 19 -12 17 -19 -6 -16 -68 -24
-68 -8 0 7 8 9 20 5 11 -3 20 -2 20 3 0 5 -9 12 -21 15 -33 9 -17 32 24 35 20
2 37 7 37 13 0 5 7 9 15 9 8 0 15 -4 15 -10 0 -5 20 -10 44 -10 26 0 46 -5 49
-12 4 -10 7 -10 18 0 7 6 26 12 41 12 18 0 28 5 28 15 0 8 7 15 15 15 8 0 15
-9 15 -19z m220 9 c-13 -9 -13 -11 0 -20 10 -6 11 -10 3 -10 -8 0 -13 -13 -13
-30 0 -43 -27 -39 -32 5 -5 43 7 65 35 65 18 0 19 -2 7 -10z m80 -4 c0 -7 11
-16 25 -18 19 -4 25 -1 25 13 0 11 7 19 15 19 10 0 15 -10 15 -27 0 -21 3 -24
12 -15 15 15 55 16 64 1 4 -8 9 -8 17 0 13 13 54 15 61 2 8 -12 56 11 56 27 0
7 13 12 33 11 17 -1 24 -3 15 -6 -36 -9 -17 -23 31 -23 28 0 53 -5 57 -11 4
-8 9 -8 17 0 6 6 24 11 39 11 25 0 28 -3 28 -34 0 -52 -9 -66 -41 -66 -16 0
-29 5 -29 11 0 6 9 8 20 4 11 -4 20 -2 20 4 0 6 -9 11 -20 11 -11 0 -20 6 -21
13 0 10 -2 10 -6 0 -10 -26 -33 -13 -33 17 0 17 -4 30 -10 30 -5 0 -10 -14
-10 -30 l0 -30 -100 1 c-71 1 -103 6 -111 15 -13 16 -59 19 -59 4 0 -6 11 -8
26 -4 19 5 25 4 20 -5 -9 -15 -49 -14 -64 1 -9 9 -12 9 -12 0 0 -7 -7 -12 -15
-12 -8 0 -15 5 -15 12 0 9 -3 9 -12 0 -7 -7 -25 -12 -40 -12 -27 0 -28 2 -28
50 0 38 4 50 15 50 8 0 15 -6 15 -14z m720 -13 c0 -21 3 -24 12 -15 15 15 68
16 68 1 0 -8 4 -8 14 1 20 16 60 9 64 -12 3 -13 -3 -18 -22 -18 -14 0 -26 -5
-26 -11 0 -7 10 -9 26 -5 17 5 23 3 19 -4 -8 -13 -48 -13 -62 1 -7 7 -12 3
-17 -15 -5 -21 -13 -26 -36 -26 -17 0 -30 5 -30 11 0 6 9 8 20 4 11 -4 20 -2
20 4 0 6 -9 11 -20 11 -11 0 -20 6 -21 13 0 10 -2 10 -6 0 -7 -18 -70 -16 -77
2 -6 17 -56 21 -56 4 0 -7 10 -9 26 -5 17 5 23 3 19 -4 -10 -15 -51 -12 -66 6
-25 30 35 74 63 46 12 -12 58 8 58 26 0 6 7 12 15 12 10 0 15 -10 15 -27z m93
20 c-7 -2 -19 -2 -25 0 -7 3 -2 5 12 5 14 0 19 -2 13 -5z m-1725 -10 c-13 -3
-18 -15 -18 -44 0 -28 -4 -39 -15 -39 -11 0 -15 11 -15 39 0 33 -4 40 -22 44
-13 2 2 4 32 4 30 1 47 -1 38 -4z m777 -32 c10 -33 -5 -52 -39 -49 -31 3 -44
23 -32 54 8 21 63 18 71 -5z m-2578 -120 c15 -23 -5 -34 -43 -25 -29 7 -30 12
-6 30 24 18 35 17 49 -5z m2243 -11 c0 -5 20 -10 44 -10 47 0 62 -15 50 -52
-5 -16 -14 -19 -62 -16 -54 3 -57 4 -63 33 -3 17 -3 36 -1 43 5 14 32 16 32 2z
m262 0 c2 -5 30 -10 63 -11 33 -1 64 -7 68 -13 6 -8 10 -7 14 2 4 11 33 18 33
8 0 -2 -9 -25 -20 -50 -21 -49 -51 -64 -43 -22 3 13 0 32 -6 43 -9 16 -10 15
-11 -10 0 -28 0 -28 -62 -25 -58 3 -63 5 -68 28 -3 17 -12 25 -27 26 -29 1
-30 -12 -2 -19 12 -3 19 -12 17 -19 -6 -16 -68 -24 -68 -8 0 7 8 9 20 5 11 -3
20 -2 20 3 0 5 -9 12 -21 15 -33 9 -17 32 24 35 20 2 37 7 37 13 0 12 27 12
32 -1z m708 0 c0 -5 8 -11 18 -11 16 -1 16 -2 0 -6 -11 -3 -18 -14 -18 -28 0
-14 7 -26 18 -29 9 -2 4 -4 -13 -3 -28 2 -30 5 -33 45 -2 33 0 42 12 42 9 0
16 -4 16 -10z m-70 -230 c0 -5 -7 -10 -15 -10 -8 0 -15 5 -15 10 0 6 7 10 15
10 8 0 15 -4 15 -10z m-3316 -52 c0 -10 -1 -40 -2 -68 -2 -35 -6 -50 -16 -50
-8 0 -16 7 -20 15 -3 8 -14 15 -25 15 -28 0 -36 18 -9 22 33 4 32 52 -1 56
-13 2 -28 -1 -34 -7 -13 -13 -57 -15 -57 -2 0 6 20 13 45 17 25 3 48 11 51 16
3 5 20 8 37 6 23 -2 32 -8 31 -20z m116 -13 c0 -32 -2 -35 -30 -35 -28 0 -30
3 -30 35 0 32 2 35 30 35 28 0 30 -3 30 -35z m230 15 c0 -13 -7 -20 -20 -20
-27 0 -25 -18 3 -23 16 -3 13 -5 -10 -6 -27 -1 -33 3 -33 19 0 13 7 20 20 20
27 0 25 18 -2 23 -17 3 -14 5 10 6 26 1 32 -3 32 -19z m80 10 c0 -5 -7 -10
-15 -10 -8 0 -15 5 -15 10 0 6 7 10 15 10 8 0 15 -4 15 -10z m776 -30 c13 -5
24 -17 24 -25 0 -24 -64 -16 -68 8 -5 24 8 57 15 39 3 -7 16 -17 29 -22z m123
21 c10 -7 11 -10 1 -16 -10 -6 -9 -11 4 -21 21 -15 8 -25 -23 -17 -14 4 -20
11 -16 21 3 8 0 21 -6 28 -9 11 -7 14 7 14 11 0 25 -4 33 -9z m-1109 -31 c0
-5 -7 -10 -15 -10 -8 0 -15 5 -15 10 0 6 7 10 15 10 8 0 15 -4 15 -10z m880
-4 c0 -11 -19 -15 -25 -6 -3 5 1 10 9 10 9 0 16 -2 16 -4z m-1747 -43 c26 -8
21 -17 -16 -28 -31 -10 -87 0 -87 15 0 10 54 28 70 23 8 -3 23 -8 33 -10z
m1285 -1435 c19 -19 14 -28 -13 -28 -18 0 -25 5 -25 20 0 22 20 26 38 8z m25
-89 c-6 -21 -7 -21 -20 -4 -10 15 -10 21 -1 26 18 11 27 2 21 -22z m157 11 c0
-5 -16 -10 -35 -10 -19 0 -35 5 -35 10 0 6 16 10 35 10 19 0 35 -4 35 -10z
m-306 -266 c23 -9 20 -24 -4 -24 -11 0 -20 7 -20 15 0 17 2 18 24 9z m-253
-44 c-18 -10 -91 -11 -91 -1 0 16 23 25 57 23 21 -2 33 2 34 10 1 7 3 5 6 -6
3 -10 0 -22 -6 -26z m3542 -1 c19 -31 1 -49 -48 -49 -45 0 -46 1 -43 27 3 32
38 46 38 16 0 -15 2 -15 9 -3 6 8 7 18 4 23 -3 5 3 7 12 5 10 -1 22 -10 28
-19z m-359 -5 c25 -10 8 -24 -30 -24 -24 0 -34 5 -34 15 0 15 35 20 64 9z
m189 -23 c16 -16 -28 -35 -74 -32 -19 1 -32 27 -23 43 7 11 84 2 97 -11z"/>
<path d="M3740 2390 c0 -5 5 -10 10 -10 6 0 10 5 10 10 0 6 -4 10 -10 10 -5 0
-10 -4 -10 -10z"/>
<path d="M3590 2360 c0 -5 5 -10 10 -10 6 0 10 5 10 10 0 6 -4 10 -10 10 -5 0
-10 -4 -10 -10z"/>
<path d="M3950 2375 c0 -14 6 -25 14 -25 9 0 12 8 8 25 -2 14 -8 25 -13 25 -5
0 -9 -11 -9 -25z"/>
<path d="M4000 2375 c0 -14 5 -25 10 -25 6 0 10 11 10 25 0 14 -4 25 -10 25
-5 0 -10 -11 -10 -25z"/>
<path d="M4083 2384 c-8 -20 9 -36 30 -28 21 8 22 30 1 38 -22 8 -24 8 -31
-10z"/>
<path d="M4460 2375 c0 -14 5 -25 10 -25 6 0 10 11 10 25 0 14 -4 25 -10 25
-5 0 -10 -11 -10 -25z"/>
<path d="M4570 2390 c0 -5 5 -10 10 -10 6 0 10 5 10 10 0 6 -4 10 -10 10 -5 0
-10 -4 -10 -10z"/>
<path d="M4650 2390 c0 -5 5 -10 10 -10 6 0 10 5 10 10 0 6 -4 10 -10 10 -5 0
-10 -4 -10 -10z"/>
<path d="M4737 2393 c-11 -10 -8 -43 3 -43 6 0 10 11 10 25 0 26 -2 29 -13 18z"/>
<path d="M4920 2375 c0 -14 5 -25 10 -25 6 0 10 11 10 25 0 14 -4 25 -10 25
-5 0 -10 -11 -10 -25z"/>
<path d="M4650 2360 c0 -12 8 -12 35 0 18 8 17 9 -7 9 -16 1 -28 -3 -28 -9z"/>
<path d="M5050 2390 c0 -5 5 -10 10 -10 6 0 10 5 10 10 0 6 -4 10 -10 10 -5 0
-10 -4 -10 -10z"/>
<path d="M5137 2393 c-11 -10 -8 -43 3 -43 6 0 10 11 10 25 0 26 -2 29 -13 18z"/>
<path d="M5210 2375 c0 -14 5 -25 10 -25 6 0 10 11 10 25 0 14 -4 25 -10 25
-5 0 -10 -11 -10 -25z"/>
<path d="M5290 2390 c0 -5 5 -10 10 -10 6 0 10 5 10 10 0 6 -4 10 -10 10 -5 0
-10 -4 -10 -10z"/>
<path d="M4280 2375 c0 -14 5 -25 10 -25 6 0 10 11 10 25 0 14 -4 25 -10 25
-5 0 -10 -11 -10 -25z"/>
<path d="M3990 2215 c0 -14 5 -25 10 -25 6 0 10 11 10 25 0 14 -4 25 -10 25
-5 0 -10 -11 -10 -25z"/>
<path d="M4040 2215 c0 -14 5 -25 10 -25 6 0 10 11 10 25 0 14 -4 25 -10 25
-5 0 -10 -11 -10 -25z"/>
<path d="M4250 2215 c0 -27 15 -34 24 -10 3 8 15 15 26 15 11 0 20 5 20 10 0
6 -16 10 -35 10 -31 0 -35 -3 -35 -25z"/>
<path d="M4300 2200 c0 -5 5 -10 10 -10 6 0 10 5 10 10 0 6 -4 10 -10 10 -5 0
-10 -4 -10 -10z"/>
<path d="M1650 1965 c0 -17 5 -25 13 -22 6 2 12 12 12 22 0 10 -6 20 -12 23
-8 2 -13 -6 -13 -23z"/>
<path d="M3410 2230 c0 -5 5 -10 10 -10 6 0 10 5 10 10 0 6 -4 10 -10 10 -5 0
-10 -4 -10 -10z"/>
<path d="M3490 2230 c0 -5 5 -10 11 -10 5 0 7 5 4 10 -3 6 -8 10 -11 10 -2 0
-4 -4 -4 -10z"/>
<path d="M3645 2230 c3 -5 8 -10 11 -10 2 0 4 5 4 10 0 6 -5 10 -11 10 -5 0
-7 -4 -4 -10z"/>
<path d="M3774 2225 c-6 -15 2 -35 14 -35 4 0 13 4 21 9 12 8 12 12 -2 25 -19
20 -26 20 -33 1z"/>
<path d="M4590 2214 c0 -14 4 -23 10 -19 6 3 10 15 10 26 0 10 -4 19 -10 19
-5 0 -10 -12 -10 -26z"/>
<path d="M3438 2212 c-44 -5 -32 -17 17 -17 25 0 45 3 45 6 0 10 -31 15 -62
11z"/>
<path d="M4850 2210 c0 -7 24 -20 36 -20 13 0 1 19 -16 23 -11 3 -20 2 -20 -3z"/>
<path d="M3560 2200 c0 -12 8 -12 35 0 18 8 17 9 -7 9 -16 1 -28 -3 -28 -9z"/>
<path d="M3640 2200 c0 -5 5 -10 10 -10 6 0 10 5 10 10 0 6 -4 10 -10 10 -5 0
-10 -4 -10 -10z"/>
<path d="M4800 2200 c0 -5 5 -10 10 -10 6 0 10 5 10 10 0 6 -4 10 -10 10 -5 0
-10 -4 -10 -10z"/>
<path d="M2160 1988 c0 -63 4 -86 17 -100 15 -17 15 -20 3 -28 -10 -6 34 -9
120 -8 74 0 118 4 97 7 l-39 6 26 24 c14 13 23 27 20 32 -2 4 4 12 13 18 10 5
14 13 10 17 -4 5 -16 3 -25 -3 -20 -12 -122 -5 -122 8 0 5 11 9 24 9 13 0 29
7 36 15 16 20 106 21 117 1 9 -16 24 -19 68 -17 l30 2 -25 12 -25 11 33 4 c28
3 32 7 32 32 0 16 -7 30 -16 34 -9 3 -101 6 -205 6 l-189 0 0 -82z"/>
<path d="M3360 2050 c0 -11 5 -20 10 -20 6 0 10 9 10 20 0 11 -4 20 -10 20 -5
0 -10 -9 -10 -20z"/>
<path d="M3970 2050 c0 -11 5 -20 10 -20 6 0 10 9 10 20 0 11 -4 20 -10 20 -5
0 -10 -9 -10 -20z"/>
<path d="M3660 2045 c0 -8 7 -15 15 -15 9 0 12 6 9 15 -4 8 -10 15 -15 15 -5
0 -9 -7 -9 -15z"/>
<path d="M3738 2052 c-44 -5 -32 -17 17 -17 25 0 45 3 45 6 0 10 -31 15 -62
11z"/>
<path d="M4320 2045 c0 -8 5 -15 10 -15 6 0 10 7 10 15 0 8 -4 15 -10 15 -5 0
-10 -7 -10 -15z"/>
<path d="M4760 2045 c0 -6 14 -12 30 -12 17 0 30 4 30 8 0 3 -13 9 -30 11 -19
3 -30 0 -30 -7z"/>
<path d="M3570 2040 c0 -5 5 -10 10 -10 6 0 10 5 10 10 0 6 -4 10 -10 10 -5 0
-10 -4 -10 -10z"/>
<path d="M4210 2040 c0 -12 8 -12 35 0 18 8 17 9 -7 9 -16 1 -28 -3 -28 -9z"/>
<path d="M4400 2039 c0 -5 5 -7 10 -4 6 3 10 8 10 11 0 2 -4 4 -10 4 -5 0 -10
-5 -10 -11z"/>
<path d="M4590 2040 c0 -12 8 -12 35 0 18 8 17 9 -7 9 -16 1 -28 -3 -28 -9z"/>
<path d="M2535 1950 c-3 -5 1 -10 10 -10 9 0 13 5 10 10 -3 6 -8 10 -10 10 -2
0 -7 -4 -10 -10z"/>
<path d="M2458 1914 c-21 -13 -38 -28 -38 -32 0 -11 51 -32 77 -32 13 0 23 4
23 9 0 5 10 11 23 13 14 2 23 11 25 26 3 18 -1 22 -25 22 -16 0 -33 4 -38 9
-6 5 -25 -1 -47 -15z"/>
<path d="M2070 1860 c-11 -7 -4 -10 28 -10 23 0 42 5 42 10 0 13 -50 13 -70 0z"/>
<path d="M2538 1853 c6 -2 18 -2 25 0 6 3 1 5 -13 5 -14 0 -19 -2 -12 -5z"/>
<path d="M1237 1834 c-15 -15 -6 -24 24 -24 20 0 29 4 27 13 -5 14 -40 21 -51
11z"/>
<path d="M1566 1825 c-18 -14 -12 -15 68 -15 66 0 87 3 84 13 -7 19 -128 21
-152 2z"/>
<path d="M1310 1818 c0 -5 20 -8 45 -8 25 0 45 5 45 10 0 6 -19 10 -45 8 -25
-2 -45 -6 -45 -10z"/>
<path d="M1430 1820 c0 -5 7 -10 16 -10 8 0 12 5 9 10 -3 6 -10 10 -16 10 -5
0 -9 -4 -9 -10z"/>
<path d="M1735 1820 c-4 -6 10 -10 35 -10 23 0 39 4 36 8 -7 12 -64 14 -71 2z"/>
<path d="M1840 1820 c0 -5 23 -10 51 -10 31 0 48 4 44 10 -3 6 -26 10 -51 10
-24 0 -44 -4 -44 -10z"/>
<path d="M1975 1820 c-3 -5 1 -10 9 -10 8 0 18 5 21 10 3 6 -1 10 -9 10 -8 0
-18 -4 -21 -10z"/>
<path d="M2255 1819 c44 -9 181 -12 174 -4 -3 2 -52 6 -110 8 -68 3 -90 1 -64
-4z"/>
<path d="M2495 1820 c-16 -7 -12 -9 18 -9 23 -1 36 3 32 9 -7 12 -23 12 -50 0z"/>
<path d="M2588 1823 c-2 -5 -5 -33 -7 -63 -2 -52 -1 -56 27 -72 26 -15 56 -18
206 -18 l176 0 0 70 c0 48 -4 72 -12 74 -51 16 -70 17 -65 2 10 -25 -10 -28
-50 -9 -40 18 -73 19 -85 0 -4 -7 -10 -8 -20 0 -23 18 -67 24 -88 11 -15 -10
-22 -10 -32 0 -13 13 -45 16 -50 5z m172 -85 c7 -18 9 -19 9 -5 1 23 17 22 24
-2 6 -23 -12 -53 -20 -33 -2 6 -11 12 -19 12 -8 0 -14 10 -14 25 0 31 8 32 20
3z m133 -20 c-9 -10 -23 -18 -31 -18 -12 0 -12 4 3 20 17 19 17 20 1 20 -9 0
-15 4 -12 9 4 5 16 4 30 -2 23 -11 23 -13 9 -29z m-228 -8 c3 -5 -1 -10 -9
-10 -9 0 -16 5 -16 10 0 6 4 10 9 10 6 0 13 -4 16 -10z m250 -10 c3 -5 -1 -10
-9 -10 -9 0 -16 5 -16 10 0 6 4 10 9 10 6 0 13 -4 16 -10z"/>
<path d="M3454 1808 c-5 -7 -9 -41 -9 -75 l0 -63 115 1 c83 1 105 4 80 9 -19
5 -51 13 -71 18 -19 5 -51 8 -70 6 -19 -2 -26 -1 -16 2 20 6 24 69 5 77 -7 3
-1 6 15 6 16 1 27 -4 27 -12 0 -9 10 -12 31 -9 20 3 34 0 40 -9 6 -10 9 -11 9
-1 0 8 17 12 51 12 42 0 52 -3 56 -20 3 -12 14 -20 25 -20 18 0 19 2 7 18 -8
9 -18 20 -24 24 -5 4 1 8 15 9 18 1 14 4 -15 11 -22 5 -57 7 -78 3 -25 -3 -36
-2 -32 5 4 6 -15 10 -52 10 -32 0 -68 3 -79 6 -13 3 -25 0 -30 -8z"/>
<path d="M5365 1800 c-3 -5 -3 -10 2 -10 18 0 -25 -21 -64 -31 -36 -9 -43 -16
-43 -35 0 -15 -6 -24 -15 -24 -9 0 -15 9 -15 25 0 14 -4 25 -10 25 -5 0 -10
-11 -10 -25 0 -16 -6 -25 -15 -25 -8 0 -15 6 -15 13 0 9 -2 9 -8 0 -11 -18
-141 -16 -149 2 -9 24 -18 17 -18 -15 -1 -35 11 -41 82 -40 26 0 108 -3 181
-6 l132 -6 0 81 c0 64 -3 81 -14 81 -8 0 -18 -4 -21 -10z"/>
<path d="M2380 1797 c0 -9 121 -48 130 -42 6 3 10 0 10 -8 0 -14 20 -27 41
-27 6 0 9 17 7 38 l-3 37 -92 3 c-51 1 -93 1 -93 -1z"/>
<path d="M765 1779 c-154 -4 -389 -8 -522 -8 l-243 0 0 -56 c0 -47 3 -55 19
-55 10 0 36 -7 57 -16 34 -14 68 -16 250 -11 136 4 221 11 240 19 19 8 78 13
169 13 104 0 140 3 141 13 1 6 2 16 3 21 1 10 51 2 51 -9 0 -5 -8 -11 -17 -13
-10 -3 72 -5 182 -6 l200 -1 -3 60 -4 60 -37 0 c-37 0 -71 -23 -71 -48 0 -7
-5 -12 -11 -12 -7 0 -9 11 -5 30 l6 30 -63 -2 c-34 -1 -188 -5 -342 -9z m-92
-96 c-7 -2 -21 -2 -30 0 -10 3 -4 5 12 5 17 0 24 -2 18 -5z"/>
<path d="M1310 1730 l0 -60 205 0 205 0 0 60 0 60 -148 0 c-119 0 -152 -3
-170 -16 -13 -9 -21 -22 -18 -30 3 -8 -1 -14 -9 -14 -18 0 -20 31 -3 48 9 9 4
12 -25 12 l-37 0 0 -60z m290 31 c0 -6 -5 -13 -10 -16 -15 -9 -43 3 -35 15 8
13 45 13 45 1z"/>
<path d="M1826 1783 c-4 -4 -23 -6 -42 -4 -29 2 -34 -1 -34 -18 0 -18 6 -21
40 -21 22 0 40 -4 40 -9 0 -4 -22 -7 -50 -6 -49 2 -50 2 -50 -26 l0 -29 174 0
174 0 6 26 c4 14 4 41 0 60 -6 31 -9 34 -43 34 -27 0 -44 -7 -61 -25 -13 -14
-30 -25 -38 -25 -12 0 -9 7 8 25 l23 25 -70 0 c-38 0 -73 -3 -77 -7z m214 -42
c0 -15 -16 -22 -34 -15 -25 9 -19 24 9 24 14 0 25 -4 25 -9z"/>
<path d="M3560 1735 c0 -14 5 -25 10 -25 6 0 10 11 10 25 0 14 -4 25 -10 25
-5 0 -10 -11 -10 -25z"/>
<path d="M3670 1745 c0 -8 5 -15 10 -15 6 0 10 7 10 15 0 8 -4 15 -10 15 -5 0
-10 -7 -10 -15z"/>
<path d="M5050 1730 c0 -11 5 -20 10 -20 6 0 10 9 10 20 0 11 -4 20 -10 20 -5
0 -10 -9 -10 -20z"/>
<path d="M5130 1725 c0 -8 5 -15 10 -15 6 0 10 7 10 15 0 8 -4 15 -10 15 -5 0
-10 -7 -10 -15z"/>
<path d="M1118 1643 c34 -2 88 -2 120 0 31 2 3 3 -63 3 -66 0 -92 -1 -57 -3z"/>
<path d="M1485 1640 l170 -6 -126 -2 c-69 -1 -147 -5 -173 -8 -47 -7 -47 -7
-44 -43 3 -33 5 -36 32 -33 16 2 37 14 47 25 17 21 17 22 -4 29 -20 5 -19 6 6
7 27 1 38 -21 17 -34 -24 -15 -6 -25 41 -25 36 0 69 9 113 29 34 17 83 36 109
43 26 6 47 15 47 18 0 3 -91 6 -202 6 l-203 0 170 -6z m53 -47 c-2 -11 -13
-19 -28 -20 -15 -1 -18 0 -7 3 24 7 21 22 -5 27 -16 3 -13 5 10 6 27 1 33 -2
30 -16z"/>
<path d="M1738 1643 c7 -3 16 -2 19 1 4 3 -2 6 -13 5 -11 0 -14 -3 -6 -6z"/>
<path d="M1980 1588 l0 -48 50 0 50 0 0 40 c0 32 -4 40 -18 40 -10 0 -22 3
-26 7 -4 4 -18 8 -31 9 -23 1 -25 -2 -25 -48z"/>
<path d="M2580 1585 c0 -44 0 -45 33 -45 19 0 36 2 38 4 3 3 3 23 1 45 -4 39
-6 41 -38 41 -34 0 -34 -1 -34 -45z"/>
<path d="M2672 1603 c4 -38 38 -45 38 -9 0 36 30 35 31 -1 1 -16 1 -34 0 -40
-1 -9 14 -13 51 -13 49 0 57 4 102 45 42 38 46 45 27 45 -12 0 -30 -7 -39 -16
-14 -15 -17 -15 -27 0 -10 13 -31 16 -99 16 l-87 0 3 -27z"/>
<path d="M2955 1621 c3 -6 -10 -22 -30 -38 -19 -15 -35 -30 -35 -33 0 -3 23
-5 50 -6 l50 0 0 43 c0 37 -3 43 -21 43 -11 0 -18 -4 -14 -9z"/>
<path d="M737 1608 c-15 -11 -16 -18 -8 -41 10 -25 14 -27 71 -27 46 0 62 4
67 16 3 8 16 20 29 25 33 12 30 28 -3 27 -16 0 -53 2 -83 6 -40 6 -60 4 -73
-6z"/>
<path d="M953 1597 c-15 -13 -37 -27 -47 -31 -14 -5 -16 -10 -8 -18 12 -12 82
-2 82 12 0 14 48 12 52 -2 3 -8 45 -13 131 -16 112 -4 127 -3 127 12 0 10 -9
16 -22 17 l-23 1 23 6 c13 4 23 10 23 15 -1 4 -1 12 -1 17 0 6 -58 10 -154 10
-147 0 -156 -1 -183 -23z"/>
<path d="M2534 1597 c-28 -19 -30 -25 -19 -40 7 -9 22 -17 34 -17 18 0 21 6
21 40 0 22 -1 40 -2 40 -2 -1 -17 -11 -34 -23z"/>
<path d="M3452 1593 c5 -26 38 -29 38 -4 0 15 -6 21 -21 21 -14 0 -19 -5 -17
-17z"/>
<path d="M3520 1600 c0 -5 5 -10 10 -10 6 0 10 5 10 10 0 6 -4 10 -10 10 -5 0
-10 -4 -10 -10z"/>
<path d="M5290 1597 c-123 -11 -110 -26 24 -26 79 0 86 1 86 19 0 11 -1 19 -2
19 -2 -1 -50 -6 -108 -12z"/>
<path d="M78 1593 c-25 -6 -22 -16 12 -41 17 -13 30 -27 30 -32 0 -5 -27 -12
-60 -16 l-60 -7 0 -90 0 -90 46 6 c27 3 54 13 68 26 27 26 37 26 57 3 28 -32
293 -39 464 -12 33 6 97 10 142 10 45 0 85 5 88 10 9 15 25 12 25 -5 0 -13 25
-15 163 -15 l163 0 11 28 10 27 8 -27 c4 -16 13 -28 19 -28 21 0 31 42 28 118
l-3 72 -193 -1 c-107 -1 -199 -5 -205 -9 -6 -3 -10 -16 -9 -28 2 -11 -1 -20
-7 -19 -5 1 -10 13 -10 27 0 24 -2 25 -70 25 -38 -1 -105 -3 -147 -5 -43 -2
-80 -1 -84 2 -3 4 3 16 14 28 13 14 22 18 27 11 11 -18 70 -13 89 8 10 10 14
21 9 24 -10 6 -602 6 -625 0z m905 -110 c-7 -2 -19 -2 -25 0 -7 3 -2 5 12 5
14 0 19 -2 13 -5z"/>
<path d="M3390 1575 c0 -14 2 -25 4 -25 2 0 6 11 8 25 3 14 1 25 -3 25 -5 0
-9 -11 -9 -25z"/>
<path d="M0 1576 c0 -9 5 -16 10 -16 6 0 10 4 10 9 0 6 -4 13 -10 16 -5 3 -10
-1 -10 -9z"/>
<path d="M2675 1550 c3 -5 13 -10 21 -10 8 0 14 5 14 10 0 6 -9 10 -21 10 -11
0 -17 -4 -14 -10z"/>
<path d="M1310 1460 l0 -71 30 34 c17 19 30 40 30 46 0 6 8 11 18 11 9 1 31
12 47 25 l30 25 -77 0 -78 0 0 -70z"/>
<path d="M2008 1500 c3 -23 0 -30 -12 -30 -9 0 -16 -5 -16 -11 0 -5 4 -8 9 -4
5 3 12 1 16 -5 3 -5 -1 -10 -10 -10 -13 0 -16 -9 -13 -47 l3 -48 50 0 c47 0
50 2 50 25 0 23 -5 26 -50 31 l-50 6 54 1 54 2 -7 52 c-4 29 -8 53 -9 54 -1 1
-18 4 -38 8 -35 6 -36 6 -31 -24z m55 -17 c-7 -2 -19 -2 -25 0 -7 3 -2 5 12 5
14 0 19 -2 13 -5z m15 -105 c-3 -7 -13 -13 -23 -13 -10 0 -20 6 -22 13 -3 7 5
12 22 12 17 0 25 -5 23 -12z"/>
<path d="M2365 1475 c-44 -30 -81 -60 -83 -65 -2 -6 -9 -10 -15 -10 -7 0 -28
-14 -47 -30 l-35 -29 43 -1 c23 0 42 5 42 11 0 6 22 9 58 8 42 -2 64 2 85 15
15 10 27 19 27 21 0 1 -32 3 -72 4 -103 3 -98 11 6 11 86 0 88 0 141 40 75 56
73 74 -8 78 -61 3 -63 2 -142 -53z m148 8 c-24 -2 -62 -2 -85 0 -24 2 -5 4 42
4 47 0 66 -2 43 -4z"/>
<path d="M2580 1514 c0 -14 3 -14 15 -4 8 7 15 14 15 16 0 2 -7 4 -15 4 -8 0
-15 -7 -15 -16z"/>
<path d="M2729 1519 c-6 -3 -4 -11 6 -19 8 -7 15 -8 15 -3 0 5 14 10 32 11 18
2 34 4 36 6 6 7 -79 12 -89 5z"/>
<path d="M2843 1513 c9 -2 23 -2 30 0 6 3 -1 5 -18 5 -16 0 -22 -2 -12 -5z"/>
<path d="M2788 1443 c24 -33 25 -33 113 -33 l89 0 -2 38 -1 37 -4 -34 -4 -33
-47 5 c-26 2 -56 8 -66 12 -14 6 -17 5 -12 -3 4 -7 -8 -4 -27 5 -24 13 -32 22
-26 29 7 9 3 11 -14 10 l-24 -1 25 -32z"/>
<path d="M2866 1463 c-6 -14 -5 -15 5 -6 7 7 10 15 7 18 -3 3 -9 -2 -12 -12z"/>
<path d="M3033 1413 c15 -2 37 -2 50 0 12 2 0 4 -28 4 -27 0 -38 -2 -22 -4z"/>
<path d="M2838 1373 c16 -26 24 -30 16 -9 -4 11 4 16 33 18 36 3 35 4 -13 8
-51 5 -51 5 -36 -17z"/>
<path d="M2966 1382 c6 -4 14 -14 17 -22 4 -10 6 -8 6 8 1 15 -5 22 -16 22
-11 0 -14 -3 -7 -8z"/>
<path d="M2160 1281 c0 -46 1 -47 30 -45 16 1 44 12 62 25 l32 23 -24 7 c-21
6 -22 7 -5 8 32 2 -2 17 -52 24 l-43 5 0 -47z"/>
<path d="M895 1310 c-4 -7 57 -10 177 -10 122 0 178 4 168 10 -20 13 -337 13
-345 0z"/>
<path d="M2001 1311 c-11 -7 -10 -10 5 -14 15 -4 15 -5 3 -6 -11 -1 -16 -9
-15 -25 1 -23 5 -25 74 -28 l72 -3 0 30 c0 23 -3 26 -10 15 -7 -12 -13 -13
-27 -3 -10 6 -17 16 -15 22 3 14 -15 14 -23 1 -3 -5 -13 -10 -22 -10 -13 0
-13 3 -3 15 10 12 9 15 -6 15 -11 0 -25 -4 -33 -9z"/>
<path d="M455 1303 c-22 -2 -50 -5 -61 -8 -24 -5 -36 -34 -23 -58 6 -9 3 -28
-6 -50 -8 -20 -12 -43 -9 -51 9 -24 48 -19 74 9 18 19 26 22 37 14 7 -6 13
-18 13 -25 0 -9 11 -14 30 -14 34 0 34 1 20 -34 -9 -26 -9 -26 35 -26 35 0 45
4 45 16 0 9 -8 23 -17 30 -17 13 -17 13 -1 14 18 0 21 31 5 46 -21 22 9 30
153 43 l85 8 -80 3 -80 3 82 6 c45 3 87 11 94 18 17 17 3 43 -23 44 -19 1 -18
3 7 9 29 7 -299 10 -380 3z m59 -68 c19 -14 18 -15 -17 -15 -35 0 -45 8 -30
23 10 11 26 8 47 -8z"/>
<path d="M2921 1298 c-1 -22 11 -29 29 -17 13 7 12 9 -2 9 -9 0 -19 6 -21 13
-3 7 -6 6 -6 -5z"/>
<path d="M903 1265 c12 -25 12 -25 160 -25 92 0 147 -4 147 -10 0 -7 -40 -8
-112 -5 -135 7 -205 0 -205 -21 0 -8 7 -14 16 -15 12 0 11 -2 -3 -8 -14 -5
-20 -18 -21 -48 -1 -23 1 -47 6 -54 9 -15 122 -30 127 -17 2 4 10 8 18 8 8 0
14 8 14 19 0 12 9 20 29 24 16 3 31 13 34 21 5 12 -2 14 -36 11 -33 -3 -38 -2
-24 7 11 5 32 8 48 6 23 -4 29 -1 29 14 0 11 7 18 20 18 35 0 66 21 78 54 7
18 12 35 12 39 0 4 -78 7 -174 7 l-174 0 11 -25z m117 -109 c0 -9 -39 -13 -51
-5 -10 6 -4 9 19 9 17 0 32 -2 32 -4z m-83 -12 c-3 -3 -12 -4 -19 -1 -8 3 -5
6 6 6 11 1 17 -2 13 -5z"/>
<path d="M60 1271 c-8 -6 -25 -11 -37 -11 -21 0 -23 -5 -23 -55 0 -52 1 -55
25 -55 14 0 42 9 62 20 21 11 51 20 68 20 35 0 49 8 58 33 5 12 17 17 48 17
61 0 45 25 -17 26 -27 1 -76 4 -109 8 -37 4 -66 3 -75 -3z"/>
<path d="M2977 1260 c3 -11 7 -20 9 -20 2 0 4 9 4 20 0 11 -4 20 -9 20 -5 0
-7 -9 -4 -20z"/>
<path d="M3020 1270 c-9 -6 -10 -10 -3 -10 6 0 15 5 18 10 8 12 4 12 -15 0z"/>
<path d="M2883 1255 c0 -11 12 -15 46 -14 25 1 37 3 26 6 -11 3 -24 9 -29 14
-16 14 -43 10 -43 -6z"/>
<path d="M1198 1189 c-21 -12 -24 -29 -4 -29 7 0 16 9 19 20 3 11 4 20 4 20
-1 0 -10 -5 -19 -11z"/>
<path d="M1980 1188 c0 -5 27 -8 60 -8 36 0 60 4 60 11 0 6 -22 9 -60 7 -33
-1 -60 -6 -60 -10z"/>
<path d="M772 1173 c-25 -3 -45 -10 -49 -19 -3 -8 -12 -14 -20 -14 -8 0 -11
-4 -8 -10 3 -5 36 -11 73 -12 51 -1 56 -2 22 -5 -99 -8 -89 -28 15 -31 l65 -2
0 50 c0 56 8 52 -98 43z"/>
<path d="M1132 1134 c-15 -12 -15 -15 -2 -24 14 -9 7 -15 -14 -11 -11 2 -36
-19 -36 -30 0 -5 29 -9 65 -9 l65 0 0 43 c0 40 -2 42 -30 43 -17 1 -38 -5 -48
-12z"/>
<path d="M1980 1128 c0 -16 10 -18 80 -18 70 0 80 2 80 18 0 15 -10 17 -80 17
-70 0 -80 -2 -80 -17z"/>
<path d="M2160 1131 c0 -18 6 -21 43 -21 24 0 52 7 63 15 10 8 15 15 9 15 -5
1 -34 3 -62 6 -49 5 -53 4 -53 -15z"/>
<path d="M2556 1133 c-6 -14 -5 -15 5 -6 7 7 10 15 7 18 -3 3 -9 -2 -12 -12z"/>
<path d="M2396 1131 c5 -5 29 -5 54 -1 l45 7 -54 2 c-33 0 -51 -3 -45 -8z"/>
<path d="M950 1036 c4 -4 16 -4 26 2 16 9 14 10 -8 9 -15 -1 -23 -6 -18 -11z"/>
<path d="M1143 1038 c-9 -15 9 -28 38 -28 21 0 29 5 29 18 0 12 -8 17 -31 17
-17 0 -33 -3 -36 -7z"/>
<path d="M993 1029 c-18 -5 -33 -11 -33 -13 0 -1 35 -2 77 -1 49 1 78 5 81 13
5 15 -76 15 -125 1z"/>
<path d="M760 1019 c0 -5 5 -7 10 -4 6 3 10 8 10 11 0 2 -4 4 -10 4 -5 0 -10
-5 -10 -11z"/>
<path d="M807 1023 c-3 -5 10 -8 29 -8 19 0 34 3 34 8 0 4 -13 7 -29 7 -17 0
-32 -3 -34 -7z"/>
<path d="M845 960 c-3 -6 1 -7 9 -4 18 7 21 14 7 14 -6 0 -13 -4 -16 -10z"/>
<path d="M1010 960 c-8 -5 -10 -10 -5 -10 6 0 17 5 25 10 8 5 11 10 5 10 -5 0
-17 -5 -25 -10z"/>
<path d="M510 879 c-121 -11 -126 -11 -327 -4 l-183 7 0 -31 c0 -19 4 -30 10
-26 15 9 51 -5 44 -17 -3 -5 -17 -7 -30 -4 -22 6 -24 4 -24 -34 l0 -40 63 -2
c34 -1 71 -1 82 0 11 0 138 1 281 2 l262 0 5 23 c2 12 8 30 12 40 7 16 -3 17
-119 17 l-126 0 -1 -32 -1 -33 -9 33 c-6 19 -16 32 -26 32 -9 0 -13 3 -9 7 7
8 43 10 202 12 108 1 111 1 131 29 l20 28 -86 0 c-47 0 -124 -3 -171 -7z
m-127 -48 c3 -14 -2 -21 -16 -25 -28 -7 -31 -2 -15 23 16 26 24 27 31 2z
m-228 -41 c3 -5 -1 -10 -9 -10 -8 0 -18 5 -21 10 -3 6 1 10 9 10 8 0 18 -4 21
-10z m-115 -40 c0 -5 -7 -10 -16 -10 -8 0 -12 5 -9 10 3 6 10 10 16 10 5 0 9
-4 9 -10z"/>
<path d="M995 880 c3 -5 18 -10 32 -10 32 0 28 5 -10 14 -19 4 -26 3 -22 -4z"/>
<path d="M2678 873 c7 -3 16 -2 19 1 4 3 -2 6 -13 5 -11 0 -14 -3 -6 -6z"/>
<path d="M1070 845 c0 -8 4 -15 10 -15 5 0 7 7 4 15 -4 8 -8 15 -10 15 -2 0
-4 -7 -4 -15z"/>
<path d="M2636 833 c-13 -13 -5 -18 31 -16 21 1 47 2 57 2 33 2 11 11 -36 16
-25 2 -48 1 -52 -2z"/>
<path d="M2798 823 c7 -3 16 -2 19 1 4 3 -2 6 -13 5 -11 0 -14 -3 -6 -6z"/>
<path d="M1070 806 c0 -2 6 -9 14 -15 10 -9 15 -8 20 4 4 10 -1 15 -14 15 -11
0 -20 -2 -20 -4z"/>
<path d="M1117 776 c-8 -20 25 -46 58 -46 l29 0 -29 30 c-31 33 -50 38 -58 16z"/>
<path d="M2598 743 c12 -2 30 -2 40 0 9 3 -1 5 -23 4 -22 0 -30 -2 -17 -4z"/>
<path d="M2723 743 c9 -2 25 -2 35 0 9 3 1 5 -18 5 -19 0 -27 -2 -17 -5z"/>
<path d="M2838 743 c7 -3 16 -2 19 1 4 3 -2 6 -13 5 -11 0 -14 -3 -6 -6z"/>
<path d="M0 700 c0 -5 5 -10 11 -10 5 0 7 5 4 10 -3 6 -8 10 -11 10 -2 0 -4
-4 -4 -10z"/>
<path d="M295 700 c-3 -6 5 -10 19 -10 14 0 28 5 31 10 3 6 -5 10 -19 10 -14
0 -28 -4 -31 -10z"/>
<path d="M418 703 c6 -2 18 -2 25 0 6 3 1 5 -13 5 -14 0 -19 -2 -12 -5z"/>
<path d="M535 699 c108 -11 122 -16 50 -18 -68 -1 -114 -20 -55 -22 32 -1 30
-2 -15 -11 -27 -5 -51 -11 -54 -13 -4 -5 37 -40 73 -63 21 -13 21 -13 -1 -9
-13 3 -26 1 -29 -4 -7 -13 -48 -11 -61 2 -8 8 -21 7 -47 -2 -36 -13 -53 -9
-41 10 3 6 24 11 45 11 21 0 42 5 45 10 4 6 11 8 16 5 5 -4 9 -1 9 4 0 6 -21
12 -47 13 -41 1 -43 2 -13 5 35 5 35 5 11 18 l-24 13 21 6 c43 14 21 22 -50
18 -89 -4 -99 -7 -92 -27 8 -20 -32 -21 -43 -1 -5 9 -31 15 -72 18 -60 3 -64
1 -66 -18 -1 -19 6 -23 49 -30 l51 -7 -65 -8 c-70 -7 -80 -5 -80 17 0 8 -5 14
-10 14 -6 0 -10 8 -8 17 2 10 -4 19 -14 21 -17 3 -18 -9 -18 -139 l0 -142 342
7 c188 4 344 9 346 10 1 2 -10 23 -26 47 -42 63 -56 115 -53 192 l1 29 98 -6
c53 -4 112 -9 130 -12 30 -5 32 -3 32 26 l0 30 -207 -1 c-175 -1 -195 -3 -128
-10z m178 -16 c-7 -2 -21 -2 -30 0 -10 3 -4 5 12 5 17 0 24 -2 18 -5z m-140
-70 c-13 -2 -35 -2 -50 0 -16 2 -5 4 22 4 28 0 40 -2 28 -4z m-468 -53 c3 -6
-5 -10 -19 -10 -14 0 -28 5 -31 10 -3 6 5 10 19 10 14 0 28 -4 31 -10z m95 0
c0 -5 -9 -10 -21 -10 -11 0 -17 5 -14 10 3 6 13 10 21 10 8 0 14 -4 14 -10z
m410 -30 c0 -5 -7 -10 -15 -10 -8 0 -15 5 -15 10 0 6 7 10 15 10 8 0 15 -4 15
-10z"/>
<path d="M884 686 c2 -14 7 -30 10 -35 7 -11 86 -19 86 -9 0 5 -19 9 -42 10
l-43 1 38 4 c29 3 37 9 37 24 0 13 -7 19 -22 19 -13 0 -33 3 -46 6 -20 6 -22
4 -18 -20z"/>
<path d="M1175 700 c3 -5 10 -10 16 -10 5 0 9 5 9 10 0 6 -7 10 -16 10 -8 0
-12 -4 -9 -10z"/>
<path d="M1197 666 c-24 -43 -24 -46 -6 -46 10 0 19 4 19 9 0 5 8 12 18 14 9
2 7 3 -5 2 -13 -1 -23 2 -23 6 0 5 3 9 8 10 4 0 15 2 24 4 10 2 22 -4 27 -12
4 -9 13 -14 18 -12 6 2 -4 19 -22 38 l-32 33 -26 -46z"/>
<path d="M2455 678 c-27 -17 -66 -37 -85 -44 -32 -12 -25 -13 83 -14 l117 0 0
45 c0 44 -1 45 -32 45 -20 0 -54 -14 -83 -32z m100 -28 c-3 -5 -17 -10 -31
-10 -13 0 -24 5 -24 10 0 6 14 10 31 10 17 0 28 -4 24 -10z"/>
<path d="M2580 666 c0 -46 5 -51 34 -40 19 7 21 50 4 57 -7 3 -3 6 10 6 15 1
22 -5 22 -18 0 -10 7 -22 16 -25 8 -3 12 -10 9 -16 -4 -6 6 -10 24 -10 40 0
62 35 34 56 -17 12 -16 13 10 14 20 0 27 -5 27 -20 0 -11 5 -20 10 -20 6 0 10
-7 10 -15 0 -12 15 -15 78 -15 56 0 79 4 79 13 0 6 2 18 4 26 5 17 -58 32
-106 25 -25 -4 -26 -3 -10 5 16 8 11 10 -25 11 -25 0 -87 3 -137 7 l-93 6 0
-47z m310 -26 c0 -5 -9 -10 -20 -10 -11 0 -20 5 -20 10 0 6 9 10 20 10 11 0
20 -4 20 -10z"/>
<path d="M153 693 c9 -2 25 -2 35 0 9 3 1 5 -18 5 -19 0 -27 -2 -17 -5z"/>
<path d="M985 682 c3 -8 5 -16 5 -18 0 -10 49 -2 59 10 10 11 4 15 -29 18 -31
3 -39 0 -35 -10z"/>
<path d="M1070 675 c0 -8 21 -13 57 -14 68 -2 63 10 -7 19 -35 5 -50 3 -50 -5z"/>
<path d="M3034 645 c0 -14 7 -25 14 -25 7 0 11 4 7 9 -3 5 0 13 6 17 8 4 7 9
-2 15 -22 14 -27 11 -25 -16z"/>
<path d="M1000 640 c0 -5 10 -10 23 -10 18 0 19 2 7 10 -19 13 -30 13 -30 0z"/>
<path d="M1058 633 c-8 -10 2 -13 45 -13 38 0 57 4 60 14 5 11 -5 14 -44 13
-28 -1 -55 -8 -61 -14z"/>
<path d="M3368 623 c6 -2 18 -2 25 0 6 3 1 5 -13 5 -14 0 -19 -2 -12 -5z"/>
<path d="M1065 579 c-40 -23 -49 -32 -47 -51 5 -33 7 -33 52 -13 26 12 46 30
60 56 18 36 18 39 2 38 -9 -1 -39 -14 -67 -30z"/>
<path d="M1156 588 c-9 -12 -14 -23 -13 -25 2 -2 26 8 53 22 l49 24 -37 0
c-27 1 -41 -5 -52 -21z"/>
<path d="M2271 599 c-13 -5 -22 -12 -19 -15 3 -2 17 1 31 7 15 7 34 8 44 4 10
-5 21 -8 25 -7 3 1 54 3 112 4 58 1 106 6 106 10 0 11 -270 9 -299 -3z"/>
<path d="M2580 600 c0 -12 16 -13 215 -11 191 1 199 2 145 12 -67 11 -360 11
-360 -1z"/>
<path d="M1801 528 c-7 -11 -10 -22 -8 -24 8 -9 37 8 37 21 0 23 -15 25 -29 3z"/>
<path d="M977 505 c-22 -47 -22 -48 12 -31 23 12 27 20 24 41 -7 34 -16 32
-36 -10z"/>
<path d="M923 504 c-42 -25 -48 -46 -16 -58 16 -6 41 4 42 17 0 4 8 21 16 37
19 36 13 37 -42 4z"/>
<path d="M2905 520 c-9 -15 3 -30 24 -30 25 0 33 11 20 27 -13 15 -35 17 -44
3z"/>
<path d="M1753 450 c-32 -39 -29 -50 15 -50 58 0 66 11 34 47 l-27 32 -22 -29z"/>
<path d="M1840 448 c0 -26 3 -28 40 -28 22 0 40 4 40 9 0 5 3 18 7 28 6 17 5
17 -15 -1 -23 -20 -31 -9 -10 12 10 10 5 12 -25 10 -33 -2 -37 -5 -37 -30z"/>
<path d="M800 438 l-65 -33 64 -3 c35 -2 65 -1 68 2 2 2 3 18 1 36 l-3 31 -65
-33z"/>
<path d="M880 430 c0 -5 4 -10 9 -10 6 0 13 5 16 10 3 6 -1 10 -9 10 -9 0 -16
-4 -16 -10z"/>
<path d="M3345 410 c3 -5 13 -10 21 -10 8 0 14 5 14 10 0 6 -9 10 -21 10 -11
0 -17 -4 -14 -10z"/>
<path d="M268 383 l-268 -3 0 -65 0 -64 258 5 c141 3 310 6 375 7 64 0 117 5
117 9 0 5 9 4 20 -2 27 -14 89 -9 99 8 7 12 9 12 14 -1 4 -11 25 -14 91 -14
47 0 86 4 86 9 0 5 -6 6 -12 3 -7 -4 -5 0 4 8 16 13 15 15 -21 32 -21 9 -58
30 -82 46 -24 16 -49 29 -56 29 -7 0 -13 -19 -16 -47 l-3 -48 -2 48 -2 47
-167 -2 c-93 -2 -288 -4 -435 -5z m712 -73 c11 -7 6 -10 -20 -10 -26 0 -31 3
-20 10 8 5 17 10 20 10 3 0 12 -5 20 -10z"/>
<path d="M1670 371 c-34 -26 -142 -81 -166 -86 -10 -2 -27 -4 -36 -4 -10 -1
-18 -5 -18 -11 0 -14 54 -12 68 2 7 7 12 8 12 3 0 -6 5 -3 10 5 9 13 12 13 21
-2 11 -19 54 -25 64 -9 3 6 18 6 38 0 55 -16 57 -14 57 56 0 71 -7 78 -50 46z"/>
<path d="M5320 329 c-95 -22 -190 -40 -258 -49 -64 -7 -84 -23 -52 -40 21 -11
376 -17 387 -6 2 2 3 28 1 58 l-3 54 -75 -17z"/>
<path d="M1081 284 c0 -11 3 -14 6 -6 3 7 2 16 -1 19 -3 4 -6 -2 -5 -13z"/>
<path d="M1105 279 c-8 -12 17 -21 47 -17 21 3 20 4 -9 15 -20 7 -35 8 -38 2z"/>
<path d="M508 233 c-34 -3 -46 -8 -42 -17 8 -21 -25 -46 -61 -46 -24 0 -38 7
-52 25 -17 23 -24 25 -136 29 l-117 4 -21 -47 c-14 -30 -23 -41 -27 -31 -6 18
-22 30 -39 30 -9 0 -13 -16 -13 -45 0 -38 3 -43 17 -38 10 3 24 13 30 21 11
13 13 8 14 -34 1 -27 2 -56 3 -64 1 -13 28 -15 164 -18 l162 -2 97 95 c53 52
104 95 112 95 9 0 -27 -43 -79 -95 l-95 -95 648 0 647 0 0 118 0 118 -135 1
c-74 0 -133 -3 -130 -7 2 -4 -14 -4 -38 0 -41 7 -818 9 -909 3z m685 -80 c-13
-2 -35 -2 -50 0 -16 2 -5 4 22 4 28 0 40 -2 28 -4z m334 -67 c-4 -13 -61 -20
-85 -11 -14 5 -14 7 -2 15 21 13 92 10 87 -4z"/>
<path d="M0 30 c0 -25 4 -30 25 -30 29 0 33 21 9 44 -23 24 -34 19 -34 -14z"/>
</g>
</svg>
