<?xml version="1.0" standalone="no"?>
<!DOCTYPE svg PUBLIC "-//W3C//DTD SVG 20010904//EN"
 "http://www.w3.org/TR/2001/REC-SVG-20010904/DTD/svg10.dtd">
<svg version="1.0" xmlns="http://www.w3.org/2000/svg"
 width="2053.000000pt" height="3383.000000pt" viewBox="0 0 2053.000000 3383.000000"
 preserveAspectRatio="xMidYMid meet">
<metadata>
Created by potrace 1.11, written by Peter Selinger 2001-2013
</metadata>
<g transform="translate(0.000000,3383.000000) scale(0.100000,-0.100000)"
fill="#000000" stroke="none">
<path d="M11236 33675 c-3 -8 -3 -45 0 -82 4 -45 2 -63 -4 -54 -7 10 -11 3
-15 -25 -3 -22 -14 -70 -26 -109 -11 -38 -21 -79 -21 -90 0 -11 -4 -26 -9 -34
-8 -12 -13 -12 -35 3 -14 9 -26 12 -26 7 0 -5 7 -11 15 -15 16 -6 21 -36 6
-36 -13 0 -116 101 -130 128 -16 31 -24 22 -12 -12 11 -28 5 -59 -10 -50 -5 3
-9 10 -9 15 0 6 5 7 10 4 6 -3 10 -2 10 4 0 5 -4 13 -10 16 -5 3 -10 1 -10 -6
0 -7 -8 -5 -21 7 -12 10 2 -15 31 -56 48 -68 49 -72 16 -41 -20 19 -36 30 -36
24 0 -6 6 -13 13 -16 6 -2 9 -8 5 -12 -4 -4 -20 6 -37 22 -31 32 -99 68 -108
59 -3 -3 5 -10 19 -15 13 -5 30 -17 38 -27 12 -14 7 -13 -25 5 -22 13 -47 32
-57 42 -9 11 -25 19 -36 19 -26 0 -82 20 -112 40 -22 14 -70 25 -70 16 0 -2
32 -22 70 -45 39 -23 70 -44 70 -46 0 -8 -46 12 -107 46 -32 18 -52 26 -45 17
10 -12 10 -17 1 -20 -7 -2 21 -21 62 -43 41 -21 103 -58 139 -83 74 -50 190
-160 190 -179 0 -7 7 -13 15 -13 16 0 21 -16 8 -23 -5 -3 -37 -8 -72 -12 -49
-6 -62 -4 -56 5 6 9 1 10 -16 5 -20 -7 -22 -6 -11 7 10 13 7 15 -20 14 -18 -1
-35 -4 -38 -8 -15 -20 -216 42 -419 129 -37 16 6 -20 62 -52 70 -40 113 -73
104 -81 -7 -7 -62 22 -119 63 -26 19 -52 32 -58 28 -5 -3 -16 -3 -22 2 -7 4
-24 9 -38 9 -48 3 -51 4 -44 16 4 7 3 8 -5 4 -6 -4 -34 7 -62 24 -28 17 -53
29 -56 27 -2 -3 21 -26 53 -53 31 -27 52 -50 46 -52 -13 -4 -94 36 -104 52 -5
7 -8 4 -8 -7 0 -15 54 -72 148 -153 34 -30 42 -54 18 -54 -15 0 -209 97 -279
140 -21 12 -41 20 -44 16 -4 -3 -4 -7 -2 -9 37 -23 118 -82 167 -121 57 -45
61 -52 46 -63 -12 -8 -21 -9 -29 -3 -7 6 -25 11 -41 12 -38 2 -49 9 -33 19 10
6 6 9 -13 9 -14 0 -28 6 -31 13 -2 6 -8 9 -12 5 -4 -4 -2 -14 5 -23 34 -41
-43 8 -165 104 -30 24 -58 41 -61 38 -4 -3 34 -44 82 -91 49 -47 84 -86 77
-86 -6 0 -24 10 -40 23 -15 13 -46 37 -68 53 l-39 29 21 -30 c28 -40 121 -135
132 -135 5 0 11 -8 13 -18 4 -15 -4 -21 -40 -32 -51 -15 -57 -15 -207 -7 -60
4 -130 4 -155 0 l-45 -6 50 -17 50 -17 -57 -8 c-32 -4 -56 -11 -53 -15 7 -12
-97 -19 -124 -9 -36 14 -36 4 0 -19 l33 -20 -42 -12 c-23 -6 -42 -13 -42 -16
0 -3 9 -2 20 1 24 8 129 -12 148 -28 11 -9 9 -13 -10 -21 -21 -8 -18 -10 24
-16 27 -3 54 -12 60 -19 11 -10 2 -11 -47 -6 -33 4 -75 11 -93 17 -39 12 -53
5 -23 -12 44 -23 23 -33 -56 -27 l-78 5 70 -15 c39 -8 77 -21 85 -29 12 -12
12 -14 -1 -14 -9 0 -16 -7 -16 -15 0 -11 12 -15 44 -15 31 0 43 -4 43 -14 0
-8 10 -17 23 -19 12 -2 -5 -5 -38 -6 -90 -2 -48 -21 47 -21 42 0 80 -4 83 -10
3 -5 1 -10 -6 -10 -7 0 -10 -2 -7 -5 3 -3 18 -1 33 5 15 6 37 8 48 4 18 -6 17
-8 -14 -35 -19 -16 -38 -28 -44 -27 -5 1 -23 -2 -38 -7 -26 -7 -26 -8 -10 -21
12 -9 13 -13 5 -14 -7 0 -11 -4 -7 -9 3 -6 0 -13 -7 -18 -27 -17 -140 -152
-134 -161 3 -5 -7 -29 -23 -53 -28 -44 -71 -89 -71 -74 0 4 -14 -12 -32 -36
-36 -50 -67 -78 -86 -79 -28 0 1 -20 31 -20 29 -1 30 -2 13 -12 -34 -19 -119
-50 -171 -61 -27 -5 -52 -14 -55 -18 -3 -4 -43 -12 -90 -17 -81 -9 -82 -9 -30
-12 47 -2 51 -3 25 -10 -27 -7 -24 -8 20 -9 52 -2 45 -12 -20 -26 -29 -7 -29
-8 20 -21 29 -8 100 -14 168 -15 64 0 117 -2 117 -4 0 -3 -15 -9 -32 -15 l-33
-10 39 5 c22 2 42 8 45 13 11 17 50 32 81 32 l31 0 -16 -30 c-8 -16 -35 -52
-60 -80 -24 -27 -49 -60 -56 -72 -14 -27 -6 -20 45 45 21 26 42 45 47 42 5 -4
9 -1 9 6 0 7 3 10 6 6 3 -3 -8 -30 -25 -60 -39 -68 -40 -82 -3 -31 16 21 36
45 45 52 14 12 15 11 8 -15 -5 -15 -20 -48 -34 -73 -19 -32 -23 -46 -14 -52 9
-5 9 -10 -1 -20 -9 -9 -12 -9 -12 3 -1 8 -7 3 -15 -11 -19 -32 -19 -44 0 -36
18 7 18 7 0 -38 -23 -54 -7 -44 17 12 30 67 33 38 5 -49 -14 -41 -27 -90 -31
-109 l-6 -35 14 30 14 30 0 -40 c-1 -41 -52 -190 -69 -200 -5 -4 -9 -11 -9
-17 0 -6 6 -6 15 2 13 11 14 10 9 -6 -4 -10 -5 -17 -2 -14 3 3 22 55 42 115
21 61 42 115 48 120 8 7 9 5 5 -7 -4 -10 -14 -70 -22 -134 -9 -64 -21 -128
-26 -142 -5 -13 -8 -27 -5 -29 2 -2 12 20 22 49 12 34 20 46 22 33 1 -11 -6
-45 -16 -76 -11 -30 -18 -69 -16 -85 1 -17 -6 -44 -18 -64 l-20 -35 21 19 c34
30 26 -3 -10 -48 -24 -28 -34 -34 -40 -24 -7 10 -9 10 -9 0 0 -7 -10 -23 -23
-35 -13 -12 -15 -16 -5 -8 10 8 21 11 24 8 9 -9 -61 -77 -79 -77 -8 0 -20 -6
-26 -14 -10 -12 -6 -13 24 -6 20 5 45 16 56 26 10 9 22 14 27 10 4 -5 -9 -22
-28 -38 l-35 -30 45 23 c85 43 86 43 50 4 -19 -21 -51 -49 -70 -64 -51 -39
-49 -57 3 -27 59 35 64 33 27 -13 l-31 -40 33 10 c18 5 35 9 37 9 2 0 -5 -12
-15 -27 l-17 -28 28 19 c15 10 24 13 21 7 -5 -7 -1 -9 8 -5 9 3 16 10 16 14 0
4 15 13 33 20 17 6 40 16 49 21 10 5 28 9 40 9 22 -1 22 -1 -5 -25 -15 -14
-24 -25 -18 -25 11 0 65 43 99 80 16 17 25 21 29 12 7 -17 23 -5 16 13 -3 8 0
15 7 15 6 0 8 -4 5 -10 -3 -5 -1 -10 4 -10 17 0 13 -31 -6 -54 -10 -12 -11
-15 -3 -8 21 18 29 15 23 -10 -4 -19 -3 -20 6 -8 14 20 14 8 0 -27 -6 -15 -11
-46 -10 -69 1 -27 -8 -60 -28 -100 -16 -32 -27 -61 -24 -64 3 -3 8 1 10 8 3 6
11 12 18 12 8 0 20 7 28 15 22 22 37 -2 43 -67 5 -48 1 -61 -35 -132 -23 -44
-41 -91 -41 -105 l0 -25 31 30 30 29 -11 -29 c-16 -43 -6 -41 24 4 14 22 28
40 30 40 2 0 -7 -30 -20 -67 l-23 -68 39 45 c28 31 40 40 40 28 0 -17 1 -17
18 0 10 10 22 26 25 36 9 23 23 13 44 -32 14 -29 18 -63 18 -151 0 -63 1 -107
3 -98 10 49 31 -11 33 -93 l1 -35 11 32 c7 18 18 38 26 45 11 11 13 9 9 -14
-3 -17 -1 -25 5 -21 7 4 8 -6 3 -27 l-6 -33 21 24 21 24 -4 -37 c-2 -21 0 -39
5 -41 5 -1 12 -18 17 -37 l8 -35 1 42 c2 72 76 258 92 232 7 -11 9 -10 9 4 0
10 5 15 10 12 6 -3 10 -15 10 -26 0 -29 26 -74 65 -114 19 -19 35 -44 35 -55
0 -12 -4 -19 -9 -16 -5 4 -7 -3 -4 -14 8 -31 23 -35 23 -6 0 14 5 28 12 32 8
5 9 -4 5 -34 -5 -27 -3 -43 5 -48 8 -5 9 -2 5 10 -4 10 -4 22 -1 28 9 14 42
-20 54 -58 6 -18 20 -36 31 -39 20 -7 43 -50 34 -65 -3 -4 2 -13 10 -20 8 -7
16 -24 16 -39 1 -20 2 -22 6 -6 5 16 8 14 24 -15 l18 -35 1 35 c0 47 15 24 32
-50 10 -45 13 -50 16 -27 l3 29 28 -44 c15 -24 31 -52 36 -63 6 -15 11 -1 19
57 6 42 17 83 24 90 9 9 12 8 12 -6 0 -29 17 -9 24 29 4 20 11 33 17 30 5 -4
9 1 9 10 0 30 17 6 30 -42 7 -27 19 -61 27 -78 l14 -30 -21 24 c-11 13 -20 21
-20 18 0 -8 41 -79 56 -97 14 -18 50 -122 57 -165 4 -28 5 -29 12 -7 19 56 43
9 41 -81 0 -37 2 -67 7 -67 4 0 7 17 8 38 1 33 1 34 9 11 4 -15 1 -54 -7 -95
-13 -58 -13 -98 -4 -259 21 -341 22 -357 11 -300 -13 74 -30 294 -30 389 0 55
-5 94 -15 112 -12 24 -15 25 -15 9 0 -11 -6 -29 -14 -40 -34 -51 -24 -300 18
-438 14 -44 14 -51 -4 -93 -21 -48 -27 -99 -10 -89 5 3 12 -5 15 -17 6 -24
-28 -99 -60 -135 -41 -45 -184 -258 -190 -282 -6 -26 -29 -58 -149 -202 -53
-63 -60 -76 -60 -115 -1 -26 -5 -44 -12 -44 -6 0 -41 -29 -77 -64 -35 -35 -88
-76 -117 -92 -122 -66 -197 -171 -205 -285 -2 -33 -6 -63 -9 -67 -10 -9 -7
-42 4 -42 6 0 10 -9 10 -21 0 -11 5 -17 10 -14 19 12 10 -14 -15 -42 -13 -15
-25 -22 -25 -15 0 6 -4 12 -10 12 -5 0 -6 -8 -3 -17 5 -13 2 -15 -11 -10 -10
4 -15 3 -11 -3 3 -6 2 -10 -4 -10 -5 0 -11 6 -14 13 -2 7 -10 1 -17 -15 -7
-15 -17 -25 -21 -22 -5 3 -16 -12 -24 -33 -17 -38 -15 -107 2 -124 4 -4 62
-13 128 -19 182 -17 375 -53 729 -136 176 -41 384 -89 461 -105 77 -16 176
-39 219 -50 153 -39 508 -158 589 -198 155 -75 330 -227 422 -365 55 -83 118
-117 154 -83 11 10 13 10 7 0 -5 -9 1 -13 21 -13 23 0 35 -12 73 -68 25 -37
72 -103 105 -147 71 -93 125 -177 125 -193 0 -7 3 -12 8 -12 8 0 23 -33 54
-113 21 -56 27 -87 33 -157 2 -25 4 -47 4 -50 1 -3 12 12 25 32 12 21 30 45
38 55 15 17 15 22 -7 68 -23 49 -55 161 -55 192 0 8 -13 31 -30 49 -19 22 -27
40 -23 51 4 11 3 14 -5 9 -7 -4 -12 -1 -12 7 0 23 -45 96 -69 113 -11 8 -21
19 -21 24 0 6 -14 23 -31 40 -18 17 -29 35 -26 44 3 8 2 16 -2 18 -12 5 -88
168 -101 218 -22 77 -21 218 0 301 11 41 20 81 20 89 0 24 -52 -66 -99 -172
-47 -104 -65 -129 -75 -103 -3 8 -2 15 3 15 5 0 12 21 16 47 4 26 23 81 42
122 20 42 36 83 36 91 0 8 10 23 22 32 12 10 28 32 35 50 8 18 21 40 29 49 9
9 23 26 31 39 34 51 83 110 91 110 5 0 9 7 9 15 0 8 3 15 8 15 4 0 19 11 35
24 23 20 25 25 11 30 -20 8 -24 8 -23 -1 4 -24 -4 -33 -30 -33 -17 0 -32 4
-35 9 -7 11 22 23 36 14 6 -3 8 -2 5 3 -3 6 -2 15 2 22 6 9 22 6 67 -14 61
-27 77 -41 70 -61 -3 -6 9 -17 26 -24 49 -20 145 -86 184 -126 20 -20 63 -72
95 -114 62 -82 115 -142 263 -298 144 -153 329 -395 356 -467 6 -14 35 -123
66 -242 30 -120 62 -239 70 -265 15 -46 15 -55 -16 -220 -37 -199 -76 -347
-96 -363 -8 -6 -14 -21 -14 -32 0 -32 -47 -131 -65 -139 -34 -12 -82 23 -110
82 -25 50 -27 63 -22 128 3 43 15 96 30 132 56 135 34 114 -27 -27 -52 -120
-110 -176 -236 -227 l-25 -10 28 0 c15 -1 27 -5 27 -10 0 -17 -104 -101 -125
-101 -24 1 -82 110 -63 121 6 4 8 14 5 23 -3 8 -2 18 3 21 6 4 10 15 10 26 0
10 5 19 10 19 6 0 10 6 10 13 0 6 16 30 35 52 19 22 38 45 43 50 4 6 25 39 46
75 22 36 47 76 56 90 21 31 70 126 70 136 0 4 -41 -55 -91 -130 -51 -76 -102
-144 -116 -153 -19 -13 -37 -14 -91 -8 -124 15 -218 5 -208 -22 4 -11 2 -14
-9 -9 -14 5 -19 -4 -16 -31 3 -23 -19 -13 -25 11 -6 25 9 91 26 116 8 11 9 7
5 -15 -6 -29 -6 -29 16 8 13 20 28 37 34 37 6 0 22 10 35 23 14 12 28 21 33
19 5 -1 6 2 3 7 -4 5 -3 11 1 13 8 3 64 89 112 169 20 35 30 96 13 85 -5 -3
-35 -50 -67 -106 -49 -83 -66 -103 -99 -120 -42 -20 -72 -20 -117 -2 -28 11
-174 11 -185 -1 -16 -16 33 -36 89 -37 42 0 56 -3 51 -12 -11 -17 -12 -68 -2
-68 4 0 8 -7 8 -15 0 -8 -5 -15 -11 -15 -6 0 -8 -8 -4 -19 3 -10 1 -30 -4 -44
-7 -18 -7 -27 2 -31 9 -5 9 -7 0 -12 -8 -4 -11 -15 -7 -31 5 -17 3 -24 -3 -20
-7 4 -13 -7 -16 -26 -10 -63 -38 -160 -49 -168 -5 -3 -4 -16 1 -30 5 -13 10
-18 10 -10 1 8 4 12 7 9 3 -3 -11 -40 -31 -83 -32 -67 -38 -75 -52 -63 -14 11
-15 11 -6 -7 9 -16 6 -27 -13 -55 -27 -39 -33 -33 -7 8 l17 27 -22 -19 c-12
-10 -24 -27 -27 -37 -4 -11 -13 -19 -21 -19 -8 0 -14 -7 -14 -16 0 -14 2 -15
17 -3 15 12 16 12 8 -1 -21 -35 -70 -88 -78 -83 -5 3 4 16 19 29 19 15 24 23
14 24 -8 0 -31 -17 -50 -37 -19 -21 -28 -32 -18 -25 25 20 29 -1 5 -30 -27
-31 -101 -88 -115 -88 -6 0 -12 -4 -14 -9 -4 -11 -158 -111 -216 -140 -236
-119 -782 -202 -1227 -186 -400 14 -700 39 -945 80 -782 129 -1187 254 -1505
463 -188 124 -372 378 -449 618 -48 151 -58 214 -63 389 -7 244 20 390 121
657 14 38 22 67 18 66 -4 -1 -32 4 -62 10 -72 16 -222 22 -237 9 -9 -7 -13 -5
-13 7 0 9 -5 16 -10 16 -6 0 -9 -3 -9 -7 4 -22 -3 -24 -19 -10 -10 9 -32 20
-49 23 -29 6 -31 4 -29 -20 l3 -26 -21 22 c-18 19 -19 24 -6 30 9 4 1 7 -20 7
-19 0 -30 -3 -24 -7 9 -5 8 -11 -2 -20 -12 -11 -14 -10 -14 3 0 9 -6 15 -12
12 -7 -2 -12 -12 -12 -21 1 -9 -5 -16 -12 -16 -12 0 -12 4 -4 20 12 23 13 23
-29 9 -17 -6 -31 -15 -31 -21 0 -6 7 -8 14 -5 10 4 13 1 9 -9 -3 -7 -12 -14
-20 -14 -13 0 -13 -3 -3 -15 10 -12 10 -15 -4 -15 -9 0 -16 7 -16 15 0 8 -8
15 -19 15 -22 0 -45 -25 -36 -40 3 -5 -1 -10 -9 -10 -9 0 -16 -4 -16 -10 0 -5
9 -10 20 -10 11 0 20 -4 20 -10 0 -5 0 -13 0 -17 0 -5 -12 -11 -25 -15 -14 -3
-23 -2 -19 3 3 5 15 9 27 10 14 0 8 5 -18 13 -42 13 -59 11 -35 -4 13 -8 12
-10 -2 -10 -9 0 -19 6 -21 13 -4 7 -6 6 -6 -5 -1 -9 -9 -19 -18 -21 -14 -4
-12 -5 5 -6 31 -1 28 -21 -4 -21 -17 0 -28 -6 -31 -20 -3 -11 -10 -20 -16 -20
-6 0 -7 -3 -4 -6 10 -10 -12 -44 -28 -44 -25 0 -16 -16 10 -18 18 -1 23 2 19
13 -7 16 54 77 68 69 12 -8 0 -24 -18 -24 -8 0 -14 -10 -14 -23 0 -13 -10 -34
-21 -46 -20 -21 -20 -23 -3 -17 14 4 25 -3 41 -29 14 -21 19 -36 12 -40 -5 -4
-7 -15 -4 -26 4 -13 2 -19 -9 -19 -9 0 -16 -7 -16 -15 0 -12 -9 -14 -42 -10
-47 6 -64 15 -29 15 14 0 21 5 18 13 -2 6 -16 11 -31 9 -24 -3 -26 0 -22 25 3
15 15 35 27 44 13 9 17 19 12 22 -6 4 -19 -4 -29 -18 -10 -13 -21 -22 -25 -19
-4 2 -10 -3 -13 -12 -3 -8 -2 -12 3 -9 5 3 12 1 16 -5 3 -5 -3 -10 -14 -10
-12 0 -21 -7 -21 -15 0 -8 5 -15 10 -15 6 0 10 -5 10 -11 0 -5 -5 -7 -11 -3
-17 10 -58 -16 -52 -34 4 -10 2 -13 -6 -8 -9 6 -10 0 -6 -21 5 -20 4 -24 -3
-14 -8 11 -12 10 -21 -8 -7 -12 -17 -19 -22 -15 -6 3 -5 -3 1 -13 11 -16 8
-26 -16 -61 -16 -23 -35 -41 -41 -42 -7 0 -13 -5 -13 -10 0 -6 -12 -18 -27
-28 -16 -9 -30 -26 -31 -36 -3 -17 -2 -18 12 -7 9 8 14 16 11 19 -3 3 9 14 26
24 26 16 34 17 40 6 5 -7 16 -13 26 -13 11 0 19 -9 21 -24 l4 -23 -29 26 c-15
14 -30 26 -33 26 -16 0 -42 -28 -36 -38 10 -17 26 -15 20 3 -8 20 20 20 41 -1
18 -19 19 -18 -20 -39 l-30 -17 28 6 c34 8 36 -10 2 -18 -28 -7 -34 -26 -8
-26 28 0 1 -18 -32 -22 -16 -2 -29 -7 -27 -13 1 -5 -14 -13 -35 -16 l-38 -6
45 -2 c30 -1 40 -4 31 -10 -7 -5 -10 -14 -7 -20 5 -7 -1 -11 -16 -11 -17 0
-19 3 -9 9 11 7 10 10 -5 14 -33 9 -80 0 -118 -21 -5 -3 -6 3 -2 14 6 16 5 16
-13 -3 -24 -25 -26 -35 -8 -31 6 1 22 -3 35 -10 14 -8 22 -9 22 -2 0 5 8 10
18 11 11 1 8 4 -8 9 -22 6 -23 8 -7 15 10 4 24 2 32 -5 10 -9 15 -9 15 -1 0 6
5 11 10 11 21 0 9 -18 -20 -30 -16 -7 -30 -16 -30 -19 0 -4 20 -21 44 -38 29
-21 48 -28 57 -22 18 11 29 11 29 0 0 -5 -8 -11 -17 -13 -13 -2 -8 -12 25 -46
22 -23 44 -42 47 -42 9 0 35 -27 35 -37 0 -5 14 -17 30 -26 17 -10 30 -25 30
-33 0 -8 6 -14 13 -14 14 0 167 -159 167 -174 0 -14 -44 26 -104 94 -12 14
-58 56 -101 95 -44 38 -89 79 -101 90 -63 62 -85 79 -78 62 3 -10 3 -17 -2
-15 -5 2 -11 -1 -14 -7 -3 -8 -46 -35 -55 -35 -2 0 2 14 8 30 6 17 17 30 23
30 17 0 23 23 10 35 -16 15 -64 45 -72 45 -3 0 0 -8 7 -17 9 -11 10 -14 2 -9
-15 8 -73 -32 -73 -51 0 -7 5 -13 11 -13 6 0 16 -6 23 -12 7 -7 27 -24 45 -38
18 -14 43 -35 55 -48 21 -21 25 -22 38 -8 24 23 64 30 71 12 4 -11 1 -13 -10
-9 -10 4 -14 2 -10 -4 4 -6 -3 -8 -17 -6 -39 8 -38 -12 2 -38 28 -19 37 -31
35 -49 -1 -14 1 -19 3 -12 8 18 28 15 49 -8 24 -26 11 -39 -15 -15 -11 10 -20
13 -20 7 0 -7 6 -12 13 -12 8 0 7 -4 -3 -11 -13 -9 -12 -10 2 -5 10 3 20 1 23
-4 4 -6 1 -10 -5 -10 -7 0 -5 -7 4 -16 21 -20 20 -35 0 -27 -26 10 -8 -15 85
-115 46 -50 86 -94 90 -99 3 -5 23 -22 44 -38 21 -15 36 -33 33 -40 -2 -6 5
-11 18 -11 15 1 21 -5 19 -18 0 -10 11 -30 25 -43 43 -39 0 -13 -77 47 -41 32
-69 61 -66 68 3 7 0 10 -6 6 -6 -3 -19 2 -29 12 -242 246 -383 375 -456 417
-111 65 -147 62 -124 -8 9 -27 75 -129 107 -165 3 -3 10 3 17 13 18 23 29 22
84 -10 81 -47 152 -115 212 -205 77 -114 102 -184 98 -265 -2 -35 1 -63 5 -63
5 0 -2 -14 -14 -31 l-22 -31 38 -72 c99 -188 151 -259 221 -303 17 -10 17 -13
4 -23 -55 -42 219 59 373 137 98 49 136 78 137 103 0 13 1 13 10 0 7 -12 11
-10 19 10 5 14 10 22 10 18 1 -10 17 4 129 109 51 48 90 93 88 99 -3 7 3 10
15 7 11 -3 19 0 19 6 0 7 5 9 12 5 6 -4 8 -3 5 3 -4 6 0 14 9 17 9 4 14 9 11
12 -3 3 -13 1 -24 -4 -26 -14 -124 -52 -134 -52 -5 0 -9 4 -9 9 0 9 132 215
150 234 4 5 36 -10 70 -32 35 -23 76 -49 93 -57 35 -18 29 -26 -38 -48 -27 -9
-61 -23 -75 -31 l-25 -15 25 3 c14 1 28 6 31 10 3 4 18 3 34 -3 20 -8 31 -7
41 1 10 8 14 8 14 0 0 -6 6 -11 14 -11 7 0 19 -7 26 -15 10 -12 15 -13 21 -4
5 9 13 8 33 -4 14 -9 33 -17 43 -17 10 0 31 -7 47 -15 15 -8 33 -12 39 -8 6 3
7 1 3 -5 -4 -7 4 -14 21 -17 15 -3 57 -14 93 -25 151 -45 245 -70 262 -70 10
0 18 -3 18 -7 0 -5 17 -9 37 -10 20 -1 39 -6 42 -12 4 -6 15 -10 26 -11 47 -1
63 -5 58 -13 -3 -5 4 -6 15 -3 11 4 23 3 26 -3 3 -5 25 -12 49 -16 23 -4 78
-16 122 -27 44 -11 94 -22 110 -24 17 -2 57 -11 89 -19 32 -9 61 -13 63 -11 2
2 20 0 40 -6 43 -12 70 -18 103 -23 14 -2 90 -15 170 -29 188 -32 438 -62 690
-82 36 -3 101 -9 145 -14 151 -19 540 -6 765 25 291 40 405 65 630 143 166 57
161 56 153 36 -4 -10 -2 -15 4 -11 13 8 86 -14 98 -31 11 -14 60 -8 338 43 85
16 90 16 151 -5 35 -11 84 -34 110 -50 26 -17 49 -30 51 -30 18 0 160 -118
183 -153 53 -78 56 -94 49 -270 l-6 -162 29 47 c33 53 38 57 79 62 28 3 31 1
31 -23 0 -45 -88 -112 -127 -97 -7 3 -13 -1 -13 -9 0 -18 58 -3 120 32 25 14
40 20 33 13 -14 -15 5 -40 30 -40 23 0 35 -22 39 -75 4 -44 -15 -175 -28 -197
-3 -4 -7 -16 -9 -25 -3 -10 -14 -43 -24 -73 -11 -30 -20 -65 -21 -77 0 -13 -4
-23 -9 -23 -7 0 -29 -85 -37 -145 -3 -24 -24 -94 -64 -215 -16 -47 -36 -110
-46 -140 -18 -59 -28 -155 -17 -180 3 -8 7 -40 7 -70 3 -78 41 -135 140 -210
70 -53 288 -270 436 -435 58 -65 96 -94 147 -112 25 -8 35 -8 40 0 5 7 15 12
23 12 18 0 22 31 45 360 35 501 44 585 65 585 5 0 7 6 4 13 -7 19 35 54 82 66
54 14 227 15 289 1 50 -11 143 -57 182 -89 34 -28 64 -94 70 -154 6 -61 -10
-142 -109 -527 -79 -307 -75 -280 -48 -280 61 0 280 76 314 110 29 28 37 97
21 171 -14 60 -36 185 -49 272 -5 29 -2 41 15 58 17 17 19 23 8 30 -11 7 -11
11 -1 17 18 12 12 70 -8 75 -10 3 -21 25 -29 60 -7 31 -17 59 -22 63 -5 3 -7
10 -3 15 7 13 25 -21 43 -81 11 -38 15 -42 22 -25 4 11 8 30 8 41 1 12 7 24
14 27 9 3 11 -13 9 -67 -4 -80 6 -80 32 -1 17 54 32 164 18 130 -6 -14 -11 5
-16 65 -12 150 -13 229 -4 242 6 8 7 4 3 -12 -5 -19 -4 -22 4 -10 6 8 11 29
11 47 0 17 3 39 7 49 6 16 7 16 15 -2 6 -14 7 -12 3 9 -4 18 -1 29 8 33 9 3
12 14 9 31 -3 18 -1 24 6 19 8 -4 10 -2 6 7 -3 8 -1 18 5 22 6 3 11 21 11 39
0 19 7 53 15 76 17 49 19 64 6 56 -6 -4 -6 5 -1 21 14 44 55 226 55 248 1 11
5 54 9 96 8 77 1 143 -14 134 -4 -3 -10 2 -14 10 -3 8 -1 15 4 15 13 0 13 47
0 55 -5 3 -10 -2 -11 -12 0 -10 -15 -56 -34 -103 l-33 -85 5 62 c3 36 1 74 -6
90 -6 15 -12 38 -14 50 -2 12 -6 26 -10 29 -10 11 -9 24 3 24 6 0 10 -4 10
-10 0 -5 10 -35 22 -67 21 -58 21 -58 30 -28 13 46 9 290 -5 385 -9 57 -10 98
-4 125 8 38 -2 240 -13 240 -1 0 -3 11 -4 23 -2 13 -9 27 -16 32 -7 4 -10 13
-6 18 8 13 -24 53 -35 46 -12 -7 -51 49 -46 67 4 14 -1 16 -27 13 -23 -4 -27
-2 -16 5 13 9 13 11 -2 11 -10 0 -18 5 -18 10 0 6 5 10 11 10 32 0 -64 62
-116 75 -5 1 -25 6 -44 10 -26 6 -30 10 -17 17 9 5 23 5 34 -1 10 -5 24 -6 32
-1 8 5 -7 11 -45 15 -47 6 -54 10 -39 18 16 9 15 12 -16 23 -19 7 -60 13 -91
13 -31 1 -94 8 -140 17 -56 11 -116 15 -181 12 -54 -3 -95 -1 -92 4 3 4 33 8
67 8 34 0 101 9 149 19 60 12 112 17 165 13 58 -3 75 -1 67 7 -6 6 -27 12 -48
13 -20 1 -39 5 -42 10 -3 4 2 5 10 2 9 -3 16 -2 16 2 0 17 -15 29 -40 32 -14
1 -26 7 -28 12 -2 6 -12 10 -23 10 -21 0 -27 19 -6 21 28 2 -105 28 -203 39
-58 7 -98 15 -90 17 8 3 22 7 30 10 8 4 18 5 23 5 4 -1 7 2 7 7 0 5 24 13 53
17 48 7 50 8 22 15 -30 7 -30 7 -3 8 15 0 38 -3 53 -9 17 -6 24 -6 20 0 -10
16 -105 40 -157 40 -26 0 -47 3 -47 8 4 21 -2 34 -14 29 -8 -3 -20 -1 -28 5
-9 6 10 8 60 6 40 -2 68 -2 62 0 -6 2 -9 7 -6 12 3 4 -9 13 -25 20 -30 12 -44
35 -15 24 8 -4 15 -4 15 0 0 3 -21 12 -47 21 -44 14 -45 15 -12 11 86 -10 309
-149 309 -192 0 -8 3 -14 8 -14 4 0 21 -20 37 -45 27 -40 52 -61 61 -52 2 1
-17 29 -43 61 l-45 59 42 -24 c24 -13 66 -50 95 -81 30 -34 60 -58 72 -58 11
0 31 -8 44 -18 34 -26 87 -43 115 -36 31 8 27 14 -81 113 -138 128 -163 142
-242 143 -64 0 -68 2 -100 37 -18 20 -33 42 -33 49 0 6 -4 12 -10 12 -5 0 -10
6 -10 13 0 7 -13 23 -30 37 -16 14 -30 30 -30 37 0 7 -4 13 -9 13 -5 0 -11 8
-13 18 -2 10 -6 13 -10 6 -4 -5 14 -36 39 -68 25 -31 43 -59 40 -62 -3 -4 -39
24 -79 60 -103 94 -218 209 -213 214 2 3 26 -9 52 -26 26 -17 50 -28 53 -25 3
3 -6 13 -19 22 -35 23 -97 92 -93 103 1 5 -2 6 -8 3 -7 -4 -14 2 -17 14 -8 32
-20 16 -28 -39 -4 -27 -16 -71 -26 -97 -16 -40 -19 -42 -12 -13 8 36 8 129 2
287 -3 68 -1 94 9 98 6 2 12 13 12 24 0 10 7 22 16 25 8 3 12 11 9 16 -8 13 4
72 14 66 4 -3 13 -1 21 5 8 5 11 9 5 9 -10 0 -12 79 -3 96 8 15 10 71 12 271
0 106 5 193 9 193 5 0 5 5 2 11 -13 20 -12 115 2 154 18 51 25 132 13 140 -6
3 -10 1 -10 -4 0 -6 -5 -11 -11 -11 -5 0 -7 5 -3 11 17 28 33 159 29 234 -17
304 -72 621 -127 728 -11 22 -17 44 -15 51 3 7 -6 35 -19 62 -13 27 -24 55
-24 62 0 6 -4 12 -9 12 -15 0 -26 62 -35 209 -10 152 -29 235 -75 336 -10 22
-21 69 -24 105 -9 98 -19 150 -28 150 -5 0 -9 7 -9 15 0 14 -23 74 -68 175 -9
19 -16 37 -17 40 -2 14 -41 88 -58 113 l-19 27 32 30 c44 41 29 37 -33 -9
-108 -80 -253 -261 -351 -438 -89 -163 -116 -215 -130 -256 -8 -23 -26 -69
-39 -102 -14 -33 -27 -69 -31 -79 -4 -10 -9 -16 -12 -13 -4 3 1 24 9 45 12 30
13 42 4 51 -9 9 -8 11 6 6 26 -10 21 14 -5 25 -22 8 -22 9 5 9 30 1 28 21 -2
21 -28 0 -17 33 71 212 117 239 224 382 378 507 25 20 46 41 47 46 1 6 -15 33
-35 60 -20 28 -35 53 -34 58 1 4 -5 7 -13 7 -19 0 -19 27 0 37 25 14 77 105
82 144 3 21 -1 48 -10 65 -8 16 -20 53 -28 82 -7 28 -16 52 -20 52 -4 0 -9 10
-12 23 -4 22 -4 22 -15 -3 -9 -21 -10 -16 -10 38 0 63 -12 96 -27 72 -4 -7
-16 15 -29 52 -32 97 -76 156 -199 269 -128 118 -204 193 -232 229 l-20 25 23
-19 c25 -22 28 -15 7 17 -9 15 -11 27 -5 37 7 12 16 7 44 -25 l35 -39 -6 39
c-3 22 -13 48 -21 58 -13 15 -14 20 -3 26 11 7 11 16 2 43 -6 19 -11 68 -10
110 2 41 -1 79 -4 85 -12 19 -35 143 -26 143 4 0 11 -21 14 -47 11 -79 15 -73
10 11 -3 43 -9 86 -13 95 -4 9 -6 41 -4 71 5 81 -1 173 -14 210 -3 8 -8 40
-10 70 -2 41 -1 51 7 37 5 -9 7 -22 3 -29 -5 -8 -2 -9 11 -5 15 6 17 3 12 -20
-2 -16 -1 -37 3 -48 7 -19 8 -19 15 5 11 31 7 82 -7 95 -8 7 -8 6 -3 -4 5 -9
4 -12 -3 -7 -13 8 -17 46 -5 46 4 0 18 -12 30 -27 13 -14 23 -21 23 -15 0 6
-4 14 -10 17 -11 7 -14 45 -3 45 3 0 14 -7 23 -15 15 -14 16 -12 12 18 -3 17
-11 43 -20 57 -12 22 -12 23 1 7 8 -10 21 -15 31 -11 10 4 33 -9 66 -39 27
-25 67 -55 87 -67 l38 -22 -26 29 c-14 15 -41 48 -59 73 l-34 45 48 -45 48
-45 -22 39 c-31 57 -17 55 21 -3 18 -28 34 -51 37 -51 10 0 -12 88 -29 116
-30 49 -22 53 17 9 31 -34 35 -36 29 -15 -4 14 -14 29 -21 33 -8 4 -14 16 -14
25 0 14 2 15 10 2 5 -8 11 -12 15 -9 3 3 -5 21 -18 40 -12 19 -29 50 -36 69
-8 19 -23 51 -35 70 -19 33 -19 34 -1 20 17 -13 18 -13 10 0 -5 8 -18 29 -31
45 -26 36 -47 75 -40 75 3 0 15 -10 27 -22 l22 -23 -7 30 -7 30 17 -24 c9 -13
17 -31 18 -40 2 -23 37 -123 42 -118 2 2 -1 18 -7 35 -6 17 -9 37 -6 44 2 7 1
20 -4 29 -4 9 -13 44 -18 78 -6 34 -19 73 -31 88 -18 24 -19 28 -5 35 14 8 14
11 0 31 -8 12 -15 36 -15 55 0 18 -6 45 -14 60 -19 37 -30 106 -17 97 18 -11
12 11 -7 29 -22 19 -59 122 -49 132 4 4 23 -10 43 -32 30 -33 33 -34 18 -9
-61 100 -102 208 -73 189 6 -3 4 8 -5 24 -23 44 -20 63 4 25 11 -18 21 -33 23
-33 8 0 -5 50 -14 56 -5 3 -9 10 -9 15 0 6 16 1 36 -11 25 -16 39 -19 46 -12
8 8 3 13 -15 17 -24 6 -44 32 -32 43 2 3 18 5 35 6 l30 1 -25 18 c-27 20 -29
25 -16 46 7 11 18 8 55 -14 25 -15 46 -22 46 -17 0 5 -27 36 -60 68 -55 53
-77 85 -47 68 6 -4 -4 10 -23 30 -26 28 -30 36 -15 31 11 -4 -2 14 -30 40
l-50 46 71 -35 c39 -20 73 -36 77 -36 13 0 7 30 -5 31 -26 1 -50 8 -56 15 -4
4 1 4 10 1 9 -3 18 -1 20 5 4 10 86 33 156 43 13 2 29 8 36 14 7 6 31 17 52
25 l39 15 -40 1 c-22 1 -52 1 -67 0 -14 -1 -29 3 -33 9 -3 6 2 12 12 12 47 4
64 7 71 14 4 4 -13 5 -38 2 l-45 -6 24 20 c13 10 31 19 40 20 12 0 11 2 -4 9
-17 7 -14 11 28 29 26 12 47 23 47 25 0 7 -129 0 -137 -7 -4 -5 4 -6 20 -2 17
5 27 3 27 -4 0 -16 -29 -14 -99 9 -58 18 -118 50 -95 50 6 0 19 -7 30 -15 10
-8 35 -14 54 -14 34 0 33 1 -25 26 -33 14 -82 44 -110 66 -27 23 -41 31 -31
19 30 -35 5 -26 -61 22 -63 47 -79 63 -69 73 3 4 29 -14 58 -38 29 -24 49 -38
44 -31 -12 21 -139 118 -181 140 -22 11 -51 32 -64 46 l-24 26 31 0 c21 0 36
-7 44 -20 7 -11 17 -20 22 -20 6 0 5 5 -2 12 -24 24 -13 38 28 38 22 0 40 4
40 9 0 6 19 14 43 19 23 6 32 10 20 11 -16 1 -21 6 -18 21 3 13 -2 20 -13 21
-9 0 6 7 33 16 39 12 46 17 31 23 -14 4 -16 9 -8 14 7 4 10 11 7 16 -3 4 9 13
25 19 17 5 30 16 30 22 0 10 -3 10 -12 1 -7 -7 -16 -12 -22 -12 -5 0 4 12 20
26 34 30 29 29 -51 -11 -57 -28 -66 -30 -175 -29 -115 1 -154 5 -166 16 -3 4
-20 4 -37 2 -29 -5 -142 18 -155 31 -7 7 90 -2 111 -10 10 -4 17 -3 17 4 0 6
12 8 33 4 17 -3 29 -3 25 1 -3 4 -39 12 -79 17 -40 5 -75 13 -78 18 -3 5 -15
10 -25 12 -25 5 -33 29 -10 29 18 0 78 17 104 30 9 4 30 11 48 15 35 7 42 21
15 28 -14 2 -9 8 17 20 l35 17 -55 -5 c-55 -5 -54 -3 10 23 24 10 24 11 -10
11 -19 0 -64 -4 -100 -9 -36 -5 -80 -5 -100 0 -21 5 -27 9 -15 10 12 1 15 4 7
7 -8 3 7 18 38 39 29 19 55 34 58 34 9 0 57 69 66 95 6 17 4 17 -18 -4 -42
-40 -38 -19 7 34 23 28 33 43 23 35 -18 -14 -19 -14 -7 8 7 13 19 21 26 18 7
-2 20 3 29 13 24 27 19 33 -11 14 -19 -13 -25 -14 -18 -4 6 11 4 13 -9 8 -14
-6 -15 -4 -5 16 7 12 -15 -4 -47 -35 -81 -78 -110 -99 -127 -92 -9 3 -28 -7
-46 -25 -18 -17 -27 -31 -21 -31 5 0 19 9 30 20 24 24 49 28 30 4 -21 -24 -48
-35 -103 -41 -29 -3 -56 -9 -61 -14 -5 -4 2 -5 15 -2 20 5 22 3 12 -8 -10 -9
-47 -13 -140 -12 -111 0 -143 4 -238 31 -85 23 -118 29 -145 22 -19 -4 -29 -8
-22 -9 23 -2 12 -21 -12 -21 -24 0 -24 1 -20 78 8 123 9 131 35 159 13 14 18
23 12 19 -23 -13 -13 18 17 53 16 19 27 38 24 42 -2 5 18 26 47 49 62 49 56
52 -16 6 -29 -19 -56 -32 -59 -29 -17 17 -157 -170 -171 -229 -4 -16 -9 -28
-12 -28 -5 0 -79 57 -117 90 -33 29 -89 113 -124 185 -13 28 -32 59 -42 70
-10 11 -21 31 -25 44 -6 18 -9 20 -16 10 -6 -10 -9 -7 -9 12 0 15 -6 32 -14
38 -8 7 -20 34 -26 62 -13 53 -24 68 -34 44z m11 -306 c3 -59 1 -110 -7 -138
l-12 -44 -24 25 c-33 33 -35 49 -11 133 10 38 21 85 24 103 9 59 24 19 30 -79z
m131 36 c-3 -3 -9 2 -12 12 -6 14 -5 15 5 6 7 -7 10 -15 7 -18z m-14 -55 c5
-17 4 -20 -2 -10 -5 8 -13 26 -16 40 -5 17 -4 20 2 10 5 -8 13 -26 16 -40z
m46 -4 c0 -5 -7 -1 -15 10 -8 10 -14 24 -14 29 0 6 6 1 14 -9 8 -11 15 -24 15
-30z m420 21 c0 -2 -17 -19 -37 -38 l-37 -34 30 37 c25 31 44 46 44 35z
m-1035 -77 c3 -6 -1 -7 -9 -4 -18 7 -21 14 -7 14 6 0 13 -4 16 -10z m1796
-271 c-13 -11 -27 -17 -30 -13 -7 7 28 34 43 34 6 -1 0 -10 -13 -21z m-708 -6
c-7 -2 -21 -2 -30 0 -10 3 -4 5 12 5 17 0 24 -2 18 -5z m-1186 -19 c-3 -3 -12
-4 -19 -1 -8 3 -5 6 6 6 11 1 17 -2 13 -5z m1400 -130 c-3 -3 -12 -4 -19 -1
-8 3 -5 6 6 6 11 1 17 -2 13 -5z m-2377 -228 c0 -2 -9 -6 -20 -9 -11 -3 -18
-1 -14 4 5 9 34 13 34 5z m3240 -301 c20 -24 6 -28 -15 -5 -10 11 -13 20 -8
20 6 0 16 -7 23 -15z m-45 -33 c-3 -3 -11 0 -18 7 -9 10 -8 11 6 5 10 -3 15
-9 12 -12z m225 -137 c14 -8 21 -14 15 -14 -5 0 -21 6 -35 14 -14 8 -20 14
-15 14 6 0 21 -6 35 -14z m85 -86 c5 -5 -5 -4 -23 2 -17 6 -32 13 -32 16 0 7
43 -8 55 -18z m92 -135 c-3 -3 -12 -4 -19 -1 -8 3 -5 6 6 6 11 1 17 -2 13 -5z
m-114 -11 c-7 -2 -21 -2 -30 0 -10 3 -4 5 12 5 17 0 24 -2 18 -5z m-3863 -22
c0 -11 -52 -63 -57 -57 -2 2 9 17 24 34 32 34 33 35 33 23z m-25 -81 c-3 -5
-11 -10 -16 -10 -6 0 -7 5 -4 10 3 6 11 10 16 10 6 0 7 -4 4 -10z m3832 -199
c26 -13 36 -14 29 -2 -3 5 0 11 8 14 14 6 16 -16 3 -29 -4 -4 -1 -14 6 -22 10
-12 7 -12 -18 1 -43 23 -71 49 -79 72 -6 19 -5 19 11 -1 10 -12 28 -27 40 -33z
m23 -67 c0 -2 -9 0 -20 6 -11 6 -20 13 -20 16 0 2 9 0 20 -6 11 -6 20 -13 20
-16z m-3816 -154 c-10 -16 -19 -28 -21 -26 -6 6 20 56 29 56 5 0 1 -13 -8 -30z
m1508 -235 c-2 -14 0 -25 6 -25 6 0 13 -9 17 -19 4 -13 12 -18 23 -15 13 5 14
4 3 -4 -9 -7 -10 -15 -3 -28 5 -11 7 -25 5 -31 -3 -7 3 -13 12 -13 13 0 16 -6
11 -26 -5 -20 -3 -27 13 -31 11 -3 22 -12 25 -20 4 -9 2 -11 -5 -7 -7 4 -2 -7
11 -24 12 -16 20 -36 18 -43 -6 -18 42 -71 59 -65 12 5 32 -47 34 -89 0 -11 5
-29 10 -40 7 -15 8 -11 4 15 l-6 35 16 -34 c18 -39 20 -241 3 -241 -5 0 -7 4
-4 9 6 9 -26 41 -59 59 -11 6 -14 12 -7 12 6 0 12 4 12 10 0 5 -6 7 -14 4 -8
-3 -22 3 -32 13 -11 11 -44 34 -74 53 -30 19 -57 35 -59 37 -3 2 5 10 17 19
24 16 27 44 16 127 -5 38 -10 46 -31 50 -14 2 -27 -1 -29 -8 -3 -7 -26 -12
-56 -13 -28 0 -56 -6 -61 -11 -12 -12 -56 -14 -81 -5 -18 7 -22 30 -5 36 5 2
11 10 13 18 2 8 7 26 13 40 6 14 13 42 17 63 4 20 11 37 17 37 6 0 7 4 4 10
-9 14 26 70 45 71 10 0 9 3 -5 8 -20 8 -20 8 1 15 12 4 21 12 20 19 0 7 3 13
8 14 5 1 12 5 15 10 9 11 44 32 57 32 7 1 9 -9 6 -24z m1048 -172 c0 -10 -11
-23 -25 -30 -30 -13 -34 1 -8 29 20 23 33 23 33 1z m0 -58 c-7 -8 -16 -12 -21
-9 -13 8 -1 24 18 24 13 0 13 -3 3 -15z m-117 -86 c-9 -24 -29 -64 -43 -89
-44 -75 -60 -138 -53 -210 9 -109 27 -193 42 -198 10 -3 12 0 6 14 -4 11 -9
51 -12 89 -4 57 0 83 21 140 l25 70 0 -45 c4 -159 201 -230 296 -106 32 42 43
107 26 159 -15 43 -71 96 -112 104 -46 9 -34 23 21 23 102 0 231 -44 263 -91
15 -20 15 -20 22 10 5 24 10 29 25 23 60 -22 218 -206 274 -318 44 -89 59
-198 53 -389 -7 -248 -35 -358 -144 -583 -36 -73 -96 -180 -134 -237 l-69
-104 20 -53 c11 -29 24 -77 30 -107 16 -85 53 -124 86 -91 6 6 23 -3 47 -25
21 -19 42 -35 47 -35 5 0 33 -15 62 -34 64 -40 138 -79 138 -71 0 11 56 -24
82 -52 22 -23 28 -40 32 -91 3 -47 1 -65 -9 -68 -7 -3 -16 -12 -19 -20 -3 -9
-1 -12 4 -9 13 8 -7 -38 -37 -87 -13 -21 -23 -41 -23 -45 0 -5 -11 -17 -25
-27 -14 -10 -25 -23 -25 -28 0 -32 -212 -327 -272 -377 -15 -13 -28 -28 -28
-34 0 -5 7 -3 17 4 15 13 15 12 2 -8 -8 -13 -23 -23 -35 -23 -12 0 -27 -7 -34
-15 -7 -8 -18 -15 -26 -15 -7 0 -20 -8 -30 -17 -9 -9 -35 -18 -58 -19 -92 -5
-176 -13 -184 -18 -5 -3 -26 4 -48 14 -21 11 -43 19 -48 17 -6 -2 -20 8 -31
21 -13 15 -32 25 -49 25 -16 0 -23 3 -17 6 8 5 5 14 -9 26 -18 17 -20 17 -14
2 11 -31 -20 -9 -34 23 -8 17 -18 28 -23 24 -5 -3 -9 2 -9 11 0 8 -12 38 -27
66 -14 28 -29 67 -34 87 -4 21 -11 47 -14 59 -6 18 2 14 34 -19 31 -31 45 -38
53 -30 8 8 15 9 25 1 9 -8 13 -8 13 0 0 6 7 11 15 11 23 0 31 35 31 127 -1 46
3 83 7 83 4 0 7 6 6 13 -4 30 1 40 14 29 21 -18 41 1 28 27 -10 18 -9 20 6 14
16 -6 16 -5 5 10 -8 9 -13 26 -12 39 3 37 1 50 -9 43 -6 -3 -7 9 -4 30 3 22 2
35 -5 35 -6 0 -11 8 -12 18 -9 183 -8 190 16 203 37 19 22 22 -61 9 -113 -17
-248 11 -278 58 -4 6 -16 12 -27 12 -10 0 -31 13 -47 28 -28 28 -132 86 -140
78 -6 -5 -128 66 -171 101 -51 41 -150 141 -162 164 -6 10 -18 19 -26 19 -10
0 -14 6 -10 15 3 8 1 15 -4 15 -6 0 -10 6 -10 13 0 18 -24 67 -32 67 -5 0 -8
6 -8 13 0 7 -13 26 -29 41 -19 18 -27 34 -24 47 4 13 -2 21 -22 29 -15 6 -29
19 -32 30 -3 11 -11 20 -17 20 -6 0 -19 12 -28 28 -9 15 -35 47 -57 72 -23 25
-48 52 -55 60 -7 8 -16 24 -20 35 -3 11 -27 43 -52 70 -51 55 -76 112 -73 165
1 19 -2 43 -5 52 -4 9 -3 25 3 36 8 15 6 23 -10 38 -12 10 -25 26 -30 36 -7
13 -1 12 34 -7 23 -13 60 -26 82 -30 l40 -6 -42 18 c-50 21 -79 50 -99 98 -34
81 -9 146 78 205 40 27 136 64 146 55 1 -1 -13 -18 -32 -39 -99 -104 -38 -270
103 -284 93 -9 159 51 180 161 l8 42 38 -80 c21 -44 39 -81 39 -82 4 -7 64 -9
78 -2 11 6 22 4 32 -6 8 -8 26 -15 39 -15 32 0 40 28 38 136 -1 61 4 95 20
138 23 62 28 64 38 14 7 -31 9 -28 46 69 22 56 42 98 45 93 3 -5 22 44 43 108
41 129 72 176 125 187 l32 7 2 -74 c2 -67 3 -85 8 -128 1 -9 8 -2 16 15 l15
30 -6 -42 c-3 -24 -3 -43 -1 -43 3 0 12 24 20 53 30 99 58 124 36 32 -16 -69
-3 -50 21 32 21 69 24 75 29 48 6 -30 7 -29 35 27 34 67 44 70 18 7z m1428 4
c13 -16 12 -17 -3 -4 -10 7 -18 15 -18 17 0 8 8 3 21 -13z m24 -33 c-3 -6 2
-13 12 -17 24 -9 33 -23 32 -53 0 -24 0 -24 -13 5 -7 17 -20 36 -29 44 -15 12
-15 31 -1 31 3 0 2 -5 -1 -10z m-1210 -106 c21 -22 14 -38 -18 -42 -31 -4 -46
20 -27 43 16 19 25 19 45 -1z m-180 -184 c3 -5 1 -10 -4 -10 -6 0 -11 5 -11
10 0 6 2 10 4 10 3 0 8 -4 11 -10z m76 -30 c5 0 9 -4 9 -10 0 -5 -10 -8 -22
-6 -13 3 -27 5 -31 5 -5 1 -5 6 -2 12 4 6 14 8 22 5 8 -3 19 -6 24 -6z m49
-10 c-8 -5 -17 -7 -19 -4 -3 3 1 9 9 14 8 5 17 7 19 4 3 -3 -1 -9 -9 -14z
m-1092 -99 c21 -13 10 -46 -16 -49 -27 -4 -40 22 -22 43 14 17 20 18 38 6z
m2169 -123 c-3 -7 -5 -2 -5 12 0 14 2 19 5 13 2 -7 2 -19 0 -25z m-2357 -38
c0 -5 -2 -10 -4 -10 -3 0 -8 5 -11 10 -3 6 -1 10 4 10 6 0 11 -4 11 -10z m40
-41 c0 -14 -17 -10 -23 5 -4 10 -1 13 9 9 7 -3 14 -9 14 -14z m90 -29 c0 -4
-10 -6 -22 -5 -30 3 -30 3 -24 14 7 10 46 3 46 -9z m-1171 -69 c0 -9 -7 -32
-14 -51 -10 -25 -14 -29 -15 -15 -1 11 -4 31 -6 45 -2 13 -2 30 0 37 7 18 36
5 35 -16z m3371 -546 c0 -5 -5 -3 -10 5 -5 8 -10 20 -10 25 0 6 5 3 10 -5 5
-8 10 -19 10 -25z m30 -92 c0 -22 -8 -14 -19 20 -10 29 -9 30 4 13 8 -11 15
-26 15 -33z m-2950 7 c6 -11 8 -20 6 -20 -3 0 -10 9 -16 20 -6 11 -8 20 -6 20
3 0 10 -9 16 -20z m-174 -16 c-4 -9 -9 -15 -11 -12 -3 3 -3 13 1 22 4 9 9 15
11 12 3 -3 3 -13 -1 -22z m3158 -20 c3 -8 2 -12 -4 -9 -6 3 -10 10 -10 16 0
14 7 11 14 -7z m-2587 -476 c-3 -8 -6 -5 -6 6 -1 11 2 17 5 13 3 -3 4 -12 1
-19z m2484 -45 c71 -14 149 -127 209 -301 27 -80 30 -101 24 -150 -7 -57 -38
-156 -56 -179 -5 -7 -7 -16 -5 -21 3 -4 1 -14 -5 -22 -8 -12 -9 -11 -4 4 5 16
4 17 -9 6 -8 -7 -13 -16 -10 -20 2 -4 -3 -14 -13 -23 -46 -44 -326 -252 -428
-319 -23 -15 -68 -48 -99 -73 l-57 -47 18 33 c11 19 22 36 27 37 4 2 7 7 7 12
0 4 17 37 39 71 39 65 81 154 81 171 0 6 25 59 55 119 30 60 70 146 89 191 19
46 47 108 63 138 17 32 35 87 42 131 l12 76 -36 39 c-27 28 -46 39 -78 43 -46
7 -59 28 -32 55 9 9 13 20 10 26 -7 11 103 14 156 3z m426 -440 c-4 -27 -28
-66 -35 -58 -5 5 26 75 35 75 1 0 2 -8 0 -17z m-2262 -67 c7 -37 17 -118 23
-201 6 -68 12 -89 44 -140 68 -112 107 -237 159 -510 20 -110 46 -207 72 -275
50 -133 54 -147 72 -250 15 -91 37 -398 29 -411 -5 -8 -130 33 -221 72 -26 11
-79 29 -118 38 l-69 17 -13 50 c-7 27 -15 65 -18 84 -3 19 -7 42 -10 50 -8 26
-34 212 -45 322 -6 58 -19 138 -28 177 -17 65 -17 77 -4 149 18 93 17 209 -3
315 -8 43 -18 126 -21 185 -5 91 -3 121 16 197 21 89 41 125 67 125 7 0 13 6
13 14 0 23 50 17 55 -8z m2209 -30 c-3 -9 -10 -16 -15 -16 -5 0 -4 9 3 20 14
22 21 20 12 -4z m-2544 -447 c0 -6 -4 -7 -10 -4 -5 3 -10 11 -10 16 0 6 5 7
10 4 6 -3 10 -11 10 -16z m32 -61 c-9 -9 -12 -1 -11 33 l1 44 11 -33 c7 -24 7
-36 -1 -44z m873 -28 c16 -17 16 -20 3 -15 -9 4 -19 13 -22 21 -7 19 -2 18 19
-6z m-857 -50 c0 -9 -3 -7 -8 5 -5 11 -8 29 -8 40 0 16 2 15 8 -5 4 -14 8 -32
8 -40z m922 -22 c0 -6 -6 -5 -15 2 -8 7 -15 14 -15 16 0 2 7 1 15 -2 8 -4 15
-11 15 -16z m185 -108 c3 -5 2 -10 -4 -10 -5 0 -13 5 -16 10 -3 6 -2 10 4 10
5 0 13 -4 16 -10z m42 -16 c-3 -3 -12 -4 -19 -1 -8 3 -5 6 6 6 11 1 17 -2 13
-5z m128 -14 c-3 -5 -13 -10 -21 -10 -8 0 -12 5 -9 10 3 6 13 10 21 10 8 0 12
-4 9 -10z m58 3 c-7 -2 -21 -2 -30 0 -10 3 -4 5 12 5 17 0 24 -2 18 -5z m-465
-330 c23 -25 24 -28 8 -31 -18 -4 -45 23 -46 46 0 19 10 15 38 -15z m541 -17
c9 -11 9 -24 0 -58 -20 -68 -18 -429 4 -559 24 -152 35 -207 54 -272 16 -57
16 -58 -8 -84 -23 -24 -23 -25 -2 -14 12 6 23 16 25 23 2 6 10 8 17 4 8 -6
-13 -31 -68 -82 -51 -48 -106 -113 -152 -182 -82 -122 -159 -263 -159 -292 0
-11 -4 -20 -8 -20 -16 0 -6 77 12 95 12 12 14 20 7 25 -8 4 -7 18 3 46 46 129
161 292 278 391 21 17 33 33 28 35 -6 2 -11 18 -13 36 -1 17 -6 32 -11 32 -4
0 -6 9 -3 20 3 11 1 20 -5 20 -6 0 -8 7 -4 15 3 8 1 15 -3 15 -5 0 -8 16 -7
35 2 19 -1 35 -6 35 -6 0 -8 7 -5 15 4 8 2 17 -3 20 -5 3 -9 13 -8 23 0 9 -5
42 -10 72 -5 30 -9 66 -8 80 1 14 0 30 -3 35 -3 6 -6 46 -7 91 0 44 -4 86 -8
92 -4 7 -1 15 9 18 14 6 14 8 -2 20 -10 7 -13 14 -6 14 6 0 9 9 6 20 -3 13 0
20 8 20 11 0 11 2 0 9 -12 8 -12 12 -2 24 9 12 9 16 -1 21 -11 5 -11 7 0 12 9
4 10 9 2 19 -6 8 -7 16 -2 19 5 3 8 21 6 41 -2 27 1 35 14 35 14 0 15 2 3 9
-12 8 -12 12 -2 25 17 20 25 20 40 2z m-328 -66 c5 0 9 -5 9 -12 0 -6 -3 -8
-7 -5 -3 4 -12 2 -18 -3 -9 -8 -14 -6 -19 5 -3 8 -1 15 4 15 6 0 9 3 9 8 -3
17 4 25 8 10 2 -10 9 -18 14 -18z m-156 -10 c3 -5 1 -10 -4 -10 -6 0 -11 5
-11 10 0 6 2 10 4 10 3 0 8 -4 11 -10z m23 -32 c7 -7 12 -20 12 -31 0 -10 4
-16 9 -12 5 3 12 1 16 -5 3 -5 1 -10 -5 -10 -6 0 -14 -10 -19 -22 -7 -18 -9
-15 -15 22 -4 24 -12 50 -18 57 -13 16 4 17 20 1z m142 -8 c0 -5 -2 -10 -4
-10 -3 0 -8 5 -11 10 -3 6 -1 10 4 10 6 0 11 -4 11 -10z m1140 -56 c-13 -38
-23 -38 -25 0 0 17 4 22 14 18 9 -3 12 -1 7 6 -4 7 -4 17 0 24 14 22 16 -10 4
-48z m-1240 -26 l9 -23 0 23 c1 12 5 22 11 22 11 0 50 -73 50 -95 0 -19 -36
-20 -44 0 -3 9 -12 12 -23 9 -14 -5 -15 -4 -4 4 15 11 6 36 -10 27 -5 -4 -9 8
-9 24 0 37 7 40 20 9z m-130 -13 c7 -9 10 -18 7 -22 -8 -7 -37 15 -37 28 0 14
16 11 30 -6z m30 -45 c0 -5 -2 -10 -4 -10 -3 0 -8 5 -11 10 -3 6 -1 10 4 10 6
0 11 -4 11 -10z m1308 -7 c-4 -22 -24 -28 -32 -8 -3 9 -2 13 4 10 6 -3 10 -1
10 4 0 6 5 11 11 11 6 0 9 -8 7 -17z m-2648 -135 c-14 -6 -38 -17 -54 -25 -34
-15 -36 -16 -36 -4 0 4 21 15 48 24 54 18 79 21 42 5z m-110 -43 c-7 -8 -19
-15 -26 -15 -8 0 -14 -4 -14 -9 0 -5 -7 -12 -16 -15 -10 -4 -13 -2 -9 7 4 6 0
4 -9 -7 -8 -10 -19 -15 -25 -12 -6 4 -19 1 -30 -6 -11 -7 -23 -9 -27 -5 -10
10 -9 10 81 45 94 37 91 36 75 17z m-178 -77 c-7 -7 -12 -8 -12 -2 0 14 12 26
19 19 2 -3 -1 -11 -7 -17z m1375 -464 c-3 -3 -12 -4 -19 -1 -8 3 -5 6 6 6 11
1 17 -2 13 -5z m-70 -10 c-3 -3 -12 -4 -19 -1 -8 3 -5 6 6 6 11 1 17 -2 13 -5z
m-3750 -1086 c-3 -8 -6 -5 -6 6 -1 11 2 17 5 13 3 -3 4 -12 1 -19z m48 2 c-3
-5 -11 -10 -16 -10 -6 0 -7 5 -4 10 3 6 11 10 16 10 6 0 7 -4 4 -10z m-195
-34 c-8 -8 -13 -7 -20 4 -12 20 -1 33 16 19 11 -9 12 -15 4 -23z m-80 -86 c0
-5 -4 -10 -10 -10 -5 0 -10 5 -10 10 0 6 5 10 10 10 6 0 10 -4 10 -10z m-19
-127 c-8 -15 -10 -15 -11 -2 0 17 10 32 18 25 2 -3 -1 -13 -7 -23z m-141 -193
c0 -5 -4 -10 -10 -10 -5 0 -10 5 -10 10 0 6 5 10 10 10 6 0 10 -4 10 -10z
m-30 -24 c0 -3 -4 -8 -10 -11 -5 -3 -10 -1 -10 4 0 6 5 11 10 11 6 0 10 -2 10
-4z m-140 -306 c0 -5 -5 -10 -11 -10 -5 0 -7 5 -4 10 3 6 8 10 11 10 2 0 4 -4
4 -10z m-13 -106 c-3 -3 -12 -4 -19 -1 -8 3 -5 6 6 6 11 1 17 -2 13 -5z m-117
-34 c0 -5 -4 -10 -10 -10 -5 0 -10 5 -10 10 0 6 5 10 10 10 6 0 10 -4 10 -10z
m5947 -118 c-4 -37 -4 -37 -5 7 -2 37 -4 42 -17 31 -18 -15 -20 -5 -2 14 18
20 29 -4 24 -52z m1260 62 c-3 -3 -12 -4 -19 -1 -8 3 -5 6 6 6 11 1 17 -2 13
-5z m99 -30 c31 -14 54 -28 51 -30 -4 -4 -126 42 -135 51 -15 14 36 2 84 -21z
m-7390 -49 c1 -14 -2 -22 -7 -19 -11 6 -12 44 -1 44 4 0 8 -11 8 -25z m101
-21 c-3 -3 -12 -4 -19 -1 -8 3 -5 6 6 6 11 1 17 -2 13 -5z m7260 0 c-3 -3 -12
-4 -19 -1 -8 3 -5 6 6 6 11 1 17 -2 13 -5z m-1337 -76 c0 -23 -3 -29 -9 -19
-8 12 -4 51 5 51 2 0 4 -15 4 -32z m-5900 -18 c0 -5 -2 -10 -4 -10 -3 0 -8 5
-11 10 -3 6 -1 10 4 10 6 0 11 -4 11 -10z m132 -29 c15 -18 15 -20 0 -27 -9
-4 -20 -6 -24 -6 -5 1 -8 -3 -8 -8 0 -6 -6 -5 -14 2 -10 9 -11 17 -4 26 14 17
28 15 28 -4 0 -8 5 -12 11 -9 7 5 4 14 -7 26 -9 10 -13 19 -8 19 5 0 17 -9 26
-19z m5748 -51 c-7 -28 -14 -49 -16 -47 -3 2 1 27 8 55 6 29 13 50 16 47 2 -2
-1 -27 -8 -55z m1408 43 c-16 -2 -40 -2 -55 0 -16 2 -3 4 27 4 30 0 43 -2 28
-4z m-7135 -123 c20 -22 40 -40 43 -40 11 0 103 -97 97 -103 -5 -6 -25 10
-129 111 -25 23 -51 42 -59 42 -9 0 -12 6 -9 15 9 22 15 19 57 -25z m217 -76
c0 -8 5 -13 11 -11 6 1 14 -4 16 -10 3 -7 -1 -13 -7 -13 -15 0 -50 42 -43 53
7 11 23 -2 23 -19z m5451 -21 c-12 -20 -14 -14 -5 12 4 9 9 14 11 11 3 -2 0
-13 -6 -23z m-5400 -36 c-1 -12 -15 -9 -19 4 -3 6 1 10 8 8 6 -3 11 -8 11 -12z
m-66 -69 c3 -9 12 -19 20 -22 8 -3 15 -13 15 -22 0 -14 -7 -11 -30 12 -16 16
-30 35 -30 42 0 6 -7 12 -15 12 -8 0 -15 7 -15 15 0 14 3 13 25 -2 13 -10 27
-25 30 -35z m103 33 c3 -8 -1 -12 -9 -9 -7 2 -15 10 -17 17 -3 8 1 12 9 9 7
-2 15 -10 17 -17z m32 -37 c0 -8 7 -14 15 -14 8 0 15 -8 15 -17 0 -13 -6 -11
-30 12 -16 15 -27 32 -24 37 7 12 24 0 24 -18z m7200 -44 c0 -5 -4 -10 -10
-10 -5 0 -10 5 -10 10 0 6 5 10 10 10 6 0 10 -4 10 -10z m55 0 c3 -5 -3 -10
-14 -10 -12 0 -21 5 -21 10 0 6 6 10 14 10 8 0 18 -4 21 -10z m-7187 -19 c3
-8 -1 -12 -9 -9 -7 2 -15 10 -17 17 -3 8 1 12 9 9 7 -2 15 -10 17 -17z m-130
-10 c3 -8 -1 -12 -9 -9 -7 2 -15 10 -17 17 -3 8 1 12 9 9 7 -2 15 -10 17 -17z
m166 -33 c-3 -5 -12 -4 -20 3 -7 6 -11 15 -8 21 3 5 12 4 20 -3 7 -6 11 -15 8
-21z m-124 0 c0 -13 -23 -5 -28 10 -2 7 2 10 12 6 9 -3 16 -11 16 -16z m5810
-38 c52 -17 118 -45 148 -62 69 -39 169 -122 175 -145 13 -47 17 -77 9 -65 -5
7 -16 10 -25 6 -13 -5 -16 -2 -11 12 5 16 4 16 -5 4 -6 -9 -7 -18 -1 -24 6 -6
10 -14 10 -19 0 -6 -21 10 -48 35 -118 110 -387 225 -535 229 -28 1 -35 3 -22
7 27 9 33 36 5 29 -30 -8 -24 10 8 22 47 19 189 5 292 -29z m-5645 19 c12 -19
-5 -23 -22 -6 -16 16 -16 17 -1 17 9 0 20 -5 23 -11z m-115 -28 c18 -16 28
-31 23 -33 -4 -3 -24 10 -43 29 -42 40 -24 45 20 4z m-102 -10 c3 -8 -1 -12
-9 -9 -7 2 -15 10 -17 17 -3 8 1 12 9 9 7 -2 15 -10 17 -17z m260 -17 c-10
-10 -28 6 -28 24 0 15 1 15 17 -1 9 -9 14 -19 11 -23z m7248 1 c3 -17 1 -24
-6 -20 -5 3 -10 -1 -10 -9 0 -9 5 -15 11 -13 6 1 14 -4 16 -10 9 -25 -32 -13
-44 12 -9 21 -9 25 4 25 10 0 13 6 9 16 -6 16 2 39 10 31 3 -3 7 -17 10 -32z
m-7466 -10 c10 -12 10 -15 -4 -15 -9 0 -16 7 -16 15 0 8 2 15 4 15 2 0 9 -7
16 -15z m7357 -17 c-3 -7 -5 -2 -5 12 0 14 2 19 5 13 2 -7 2 -19 0 -25z
m-7082 -16 c-9 -9 -35 8 -35 24 0 16 2 16 20 -1 11 -10 18 -20 15 -23z m-157
16 c14 -14 16 -28 2 -28 -5 0 -14 9 -20 20 -12 22 -1 27 18 8z m7292 -13 c0
-21 29 -45 45 -39 8 4 15 1 15 -4 0 -15 -18 -24 -25 -13 -3 6 -12 8 -20 4 -19
-6 -20 -53 -2 -53 7 0 22 -7 33 -15 18 -14 17 -14 -9 -5 -16 6 -34 7 -40 3 -7
-3 -9 -2 -4 2 4 5 -5 15 -20 22 -18 8 -21 12 -9 10 10 -1 21 4 23 11 3 7 -5
12 -21 12 -24 0 -55 35 -42 48 3 3 6 0 6 -6 0 -7 5 -12 10 -12 6 0 10 7 10 15
0 8 5 15 11 15 6 0 9 -6 7 -12 -5 -13 19 -44 28 -36 2 3 -2 18 -11 34 -19 37
-19 45 0 38 8 -4 15 -12 15 -19z m-7362 -21 c-10 -10 -28 6 -28 24 0 15 1 15
17 -1 9 -9 14 -19 11 -23z m7476 30 c9 -3 16 -10 16 -14 0 -10 -38 -1 -46 11
-6 10 7 12 30 3z m-7349 -35 c12 -19 -5 -23 -22 -6 -16 16 -16 17 -1 17 9 0
20 -5 23 -11z m162 -35 c-10 -10 -48 27 -41 38 4 6 16 1 27 -11 12 -11 18 -24
14 -27z m6983 36 c0 -5 -5 -10 -11 -10 -5 0 -7 5 -4 10 3 6 8 10 11 10 2 0 4
-4 4 -10z m-7232 -19 c3 -8 -1 -12 -9 -9 -7 2 -15 10 -17 17 -3 8 1 12 9 9 7
-2 15 -10 17 -17z m7442 9 c13 -9 13 -10 0 -10 -8 0 -22 5 -30 10 -13 9 -13
10 0 10 8 0 22 -5 30 -10z m38 -17 c-2 -9 -8 -18 -15 -20 -7 -3 -9 3 -6 16 6
25 26 28 21 4z m-7333 -23 c3 -6 0 -10 -7 -10 -15 0 -38 19 -38 32 0 10 36 -8
45 -22z m6992 14 c-3 -3 -12 -4 -19 -1 -8 3 -5 6 6 6 11 1 17 -2 13 -5z m98
-9 l30 -15 -35 6 c-19 4 -42 10 -50 15 -27 15 22 10 55 -6z m193 -4 c3 -8 -1
-12 -9 -9 -7 2 -15 10 -17 17 -3 8 1 12 9 9 7 -2 15 -10 17 -17z m-7383 -2
c12 -19 -5 -23 -22 -6 -16 16 -16 17 -1 17 9 0 20 -5 23 -11z m273 -30 c45
-43 40 -57 -8 -19 -37 29 -51 50 -32 50 4 0 22 -14 40 -31z m6770 24 c-10 -2
-26 -2 -35 0 -10 3 -2 5 17 5 19 0 27 -2 18 -5z m422 -3 c0 -5 -4 -10 -10 -10
-5 0 -10 5 -10 10 0 6 5 10 10 10 6 0 10 -4 10 -10z m-7312 -22 c19 -19 14
-29 -8 -16 -20 13 -27 28 -12 28 4 0 13 -5 20 -12z m-88 -13 c10 -12 10 -15
-3 -15 -8 0 -20 7 -27 15 -10 12 -10 15 3 15 8 0 20 -7 27 -15z m7157 9 c-3
-3 -12 -4 -19 -1 -8 3 -5 6 6 6 11 1 17 -2 13 -5z m-7099 -46 c19 -19 14 -30
-8 -18 -11 6 -20 15 -20 20 0 14 14 12 28 -2z m91 -2 c7 -8 8 -17 3 -19 -4 -3
-13 3 -20 14 -14 22 0 26 17 5z m7189 -7 c3 -11 2 -11 -7 1 -8 12 -13 12 -23
2 -6 -6 -17 -12 -22 -12 -6 0 -2 7 9 15 22 17 37 15 43 -6z m-7064 -15 c3 -9
6 -23 6 -32 0 -21 -15 -5 -25 26 -7 25 9 31 19 6z m6786 -14 c8 -5 11 -10 5
-10 -5 0 -17 5 -25 10 -8 5 -10 10 -5 10 6 0 17 -5 25 -10z m-6939 -16 c12
-14 11 -16 -5 -13 -11 2 -21 10 -24 17 -5 17 13 15 29 -4z m77 -6 c7 -7 12
-16 12 -20 0 -15 -15 -8 -28 12 -13 22 -3 27 16 8z m-28 -55 c0 -13 -3 -13
-15 -3 -8 7 -15 19 -15 27 0 13 3 13 15 3 8 -7 15 -19 15 -27z m65 -2 c3 -5 1
-12 -5 -16 -5 -3 -10 1 -10 9 0 18 6 21 15 7z m5141 -19 c8 -12 24 -22 35 -22
10 0 19 -6 19 -14 0 -8 12 -17 28 -21 32 -8 121 -72 175 -127 21 -21 42 -38
45 -38 13 0 72 -96 72 -117 0 -12 5 -25 10 -28 6 -3 10 -21 10 -38 l0 -32 -21
33 c-12 17 -26 32 -31 32 -6 0 -8 6 -5 14 3 8 -3 22 -14 32 -10 9 -19 21 -19
26 0 12 -16 27 -57 57 -18 12 -33 28 -33 36 0 7 -12 23 -27 34 -16 12 -35 26
-43 33 -28 25 -188 108 -207 108 -7 0 -13 4 -13 9 0 5 -10 7 -22 3 -14 -3 -19
-1 -14 6 5 8 2 10 -9 6 -8 -4 -30 0 -48 7 l-32 14 30 6 c17 3 58 5 93 4 52 -1
65 -5 78 -23z m-5186 -24 c0 -18 -2 -20 -9 -8 -6 8 -7 18 -5 22 9 14 14 9 14
-14z m7149 -348 c1 22 41 20 41 -2 0 -9 4 -19 9 -22 15 -10 18 -89 4 -116 -7
-14 -13 -22 -13 -17 0 18 -2 23 -17 39 -8 10 -13 24 -10 32 9 23 -6 27 -37 11
-14 -8 -33 -12 -41 -8 -11 4 -13 1 -9 -11 3 -9 10 -16 15 -16 15 0 10 -18 -8
-24 -22 -9 -40 9 -26 26 6 7 9 25 7 41 -1 15 1 25 7 22 5 -4 9 1 9 9 0 9 5 16
10 16 6 0 10 -9 10 -20 0 -22 12 -25 41 -10 22 12 26 35 4 27 -18 -8 -29 9
-20 31 6 15 8 15 15 -3 6 -14 9 -15 9 -5z m-116 -107 c-15 -12 -16 -15 -3 -23
13 -9 13 -11 0 -21 -12 -8 -11 -9 6 -4 14 4 24 0 28 -10 3 -8 1 -15 -5 -15 -6
0 -7 -4 -4 -10 3 -5 2 -10 -4 -10 -5 0 -16 -3 -24 -6 -8 -3 -17 2 -21 12 -4
12 -2 15 9 11 8 -4 17 -1 21 5 5 7 -1 9 -18 6 -14 -3 -34 1 -44 9 -16 12 -17
15 -4 23 8 5 11 10 7 10 -5 0 -21 -9 -35 -21 -15 -12 -20 -20 -12 -18 22 4 60
-10 60 -23 0 -7 -5 -6 -15 2 -8 6 -26 13 -40 14 -20 3 -23 1 -14 -11 7 -7 9
-17 5 -21 -4 -4 -14 2 -22 12 -7 11 -17 17 -20 13 -4 -4 16 -27 45 -53 56 -50
58 -55 36 -78 -14 -13 -13 -16 2 -25 10 -6 13 -11 8 -11 -6 0 -23 12 -39 26
-22 21 -25 29 -14 35 22 15 30 10 22 -13 -6 -20 -5 -21 9 -10 13 11 14 17 4
33 -20 33 -63 36 -50 4 3 -9 -1 -15 -8 -15 -7 0 7 -21 32 -47 25 -27 51 -57
59 -68 8 -11 -4 -2 -26 20 -29 31 -48 41 -74 43 -34 2 -34 1 -15 -14 18 -15
18 -16 2 -10 -10 3 -22 6 -25 6 -4 0 -13 9 -19 19 -11 18 -9 19 21 17 18 -2
39 -7 47 -11 8 -4 3 2 -10 15 -19 18 -25 20 -32 9 -7 -11 -9 -11 -9 2 0 9 -9
24 -20 34 -18 17 -20 17 -14 2 7 -20 -6 -23 -24 -5 -9 9 -12 9 -12 0 0 -7 3
-12 8 -12 4 0 14 -4 22 -10 12 -7 10 -12 -10 -31 -21 -18 -22 -21 -5 -15 16 5
20 1 21 -18 1 -14 -5 -27 -13 -30 -8 -4 -11 -1 -8 5 4 6 0 18 -9 27 -9 11 -12
23 -6 31 5 9 3 19 -5 28 -18 18 -30 17 -15 -2 18 -21 3 -19 -27 5 -14 11 -31
20 -37 20 -6 0 4 -10 22 -22 26 -16 30 -23 20 -30 -10 -8 -9 -9 4 -4 12 3 15
1 11 -9 -3 -8 2 -18 11 -21 9 -3 16 -11 16 -17 0 -5 -8 -3 -18 6 -10 10 -26
17 -35 17 -22 0 -33 20 -16 31 16 10 8 12 -15 3 -9 -3 -16 -15 -16 -26 0 -10
-4 -17 -9 -13 -5 3 -12 1 -16 -5 -3 -5 -15 -10 -25 -10 -10 0 -26 -7 -35 -16
-16 -17 -65 -12 -65 5 0 16 84 98 108 105 12 4 20 11 18 15 -3 4 -1 13 4 21 7
11 11 11 24 1 9 -8 16 -9 16 -3 0 6 -6 13 -12 16 -10 5 -10 7 0 12 6 3 10 10
6 15 -9 15 7 10 51 -15 39 -24 41 -24 42 -5 1 11 -5 23 -13 26 -23 8 -16 25 7
18 13 -4 19 -3 16 2 -4 6 5 8 21 6 l27 -5 -25 21 c-14 11 -20 21 -14 21 6 0
17 -7 24 -15 7 -8 20 -15 29 -15 11 1 7 8 -14 25 -16 14 -27 25 -24 25 15 0
69 -33 69 -42 0 -5 6 -8 13 -5 6 2 12 12 12 23 0 14 7 19 30 20 17 1 37 -3 45
-7 10 -6 11 -8 3 -9 -18 0 -16 -20 2 -20 14 0 20 23 18 68 -1 8 5 11 14 8 10
-4 13 -2 10 8 -3 8 -3 17 1 21 4 4 9 -3 10 -16 3 -14 -3 -28 -15 -36z m-35 7
c4 -12 3 -13 -10 -2 -9 7 -24 10 -34 6 -16 -5 -16 -4 -4 5 19 14 42 10 48 -9z
m-1178 -62 c0 -30 -25 -145 -39 -181 l-11 -28 -28 19 c-15 11 -44 36 -64 55
-21 19 -38 30 -38 24 0 -6 -3 -7 -6 -4 -4 4 -2 12 3 19 6 7 15 26 20 42 8 25
20 33 74 52 82 29 89 29 89 2z m1284 0 c-5 -8 -1 -9 12 -4 14 5 16 4 8 -4 -12
-12 -47 -3 -38 11 3 5 10 9 15 9 6 0 7 -5 3 -12z m-324 -60 c0 -15 -17 -8 -41
19 l-24 26 33 -19 c17 -10 32 -22 32 -26z m190 20 c13 -14 20 -17 20 -8 0 9
11 4 28 -13 29 -28 48 -36 36 -14 -4 6 -3 9 1 4 5 -4 10 -18 12 -30 2 -18 1
-19 -8 -7 -8 12 -12 12 -16 2 -4 -10 -8 -9 -18 5 -21 28 -29 8 -9 -24 l17 -28
-25 26 c-14 14 -38 36 -54 48 -15 12 -24 24 -21 28 4 3 13 0 22 -7 8 -7 15 -8
15 -2 0 5 -7 12 -15 16 -8 3 -15 10 -15 16 0 15 7 12 30 -12z m-40 -68 c0 -5
-2 -10 -4 -10 -3 0 -8 5 -11 10 -3 6 -1 10 4 10 6 0 11 -4 11 -10z m-90 -30
c0 -5 -2 -10 -4 -10 -3 0 -8 5 -11 10 -3 6 -1 10 4 10 6 0 11 -4 11 -10z m170
-25 c14 -19 14 -19 -2 -6 -10 7 -18 18 -18 24 0 6 1 8 3 6 1 -2 9 -13 17 -24z
m64 -1 c3 -8 2 -12 -4 -9 -6 3 -10 10 -10 16 0 14 7 11 14 -7z m-226 -68 c-18
-14 -14 -28 5 -20 8 3 12 -8 12 -30 0 -25 -3 -32 -12 -24 -6 5 -9 16 -7 23 3
8 -3 19 -14 26 -15 9 -17 15 -8 25 6 7 18 13 26 13 12 0 12 -2 -2 -13z m-80
-17 c-11 -7 -10 -9 1 -9 8 0 12 -3 8 -6 -3 -3 -14 -1 -24 5 -11 6 -13 11 -5
11 7 0 10 4 7 10 -3 6 1 7 10 3 13 -5 14 -7 3 -14z m466 -57 c-4 -34 -10 -59
-14 -57 -4 2 -3 26 1 52 4 26 8 54 8 62 1 8 3 12 6 9 3 -2 2 -32 -1 -66z
m-494 34 c0 -3 -4 -8 -10 -11 -5 -3 -10 -1 -10 4 0 6 5 11 10 11 6 0 10 -2 10
-4z m90 -6 c0 -5 -2 -10 -4 -10 -3 0 -8 5 -11 10 -3 6 -1 10 4 10 6 0 11 -4
11 -10z m-38 -27 c17 -15 21 -15 29 -3 9 13 10 13 7 1 -6 -23 -23 -23 -49 -2
-13 11 -20 20 -15 21 5 0 18 -8 28 -17z m-382 -33 c0 -5 -4 -10 -10 -10 -5 0
-10 5 -10 10 0 6 5 10 10 10 6 0 10 -4 10 -10z m-60 -50 c-20 -13 -33 -13 -25
0 3 6 14 10 23 10 15 0 15 -2 2 -10z m-40 -25 c0 -2 -10 -10 -22 -16 -21 -11
-22 -11 -9 4 13 16 31 23 31 12z m924 -22 c-10 -40 -14 -41 -14 -5 0 18 5 32
10 32 6 0 8 -11 4 -27z m-474 -123 c0 -5 -2 -10 -4 -10 -3 0 -8 5 -11 10 -3 6
-1 10 4 10 6 0 11 -4 11 -10z m387 -22 c-15 -9 -19 -4 -11 16 5 14 9 15 15 5
5 -8 3 -17 -4 -21z m-367 -32 c0 -3 -7 -3 -15 0 -11 5 -13 2 -9 -11 6 -16 5
-16 -17 -4 -20 11 -21 14 -6 17 9 2 17 10 17 18 0 14 2 14 15 0 8 -8 15 -17
15 -20z m346 -21 c-4 -14 -13 -25 -21 -25 -12 0 -11 5 3 29 19 34 27 33 18 -4z
m-306 0 c11 -13 10 -14 -4 -9 -11 4 -15 2 -13 -7 2 -8 2 -11 0 -6 -3 4 -12 7
-20 7 -13 0 -13 3 -3 15 16 19 24 19 40 0z m-70 -27 c0 -13 -23 -5 -28 10 -2
7 2 10 12 6 9 -3 16 -11 16 -16z m402 10 c-5 -7 -15 -39 -22 -70 -6 -32 -16
-61 -22 -64 -6 -4 -8 1 -4 12 3 11 10 41 15 68 5 27 15 52 22 57 20 12 23 11
11 -3z m-370 -40 c-9 -9 -12 -7 -12 12 0 19 3 21 12 12 9 -9 9 -15 0 -24z
m283 -104 l-16 -29 7 40 c8 49 18 67 22 39 2 -11 -4 -33 -13 -50z m-908 10
c-3 -3 -12 -4 -19 -1 -8 3 -5 6 6 6 11 1 17 -2 13 -5z m30 -20 c-3 -3 -12 -4
-19 -1 -8 3 -5 6 6 6 11 1 17 -2 13 -5z m393 -49 c0 -20 -19 -29 -26 -11 -3 8
-16 18 -27 22 -22 7 -22 7 -2 14 24 9 55 -5 55 -25z m-144 7 c1 -7 0 -8 -3 -2
-2 5 -14 10 -26 10 -18 0 -19 -2 -7 -10 13 -8 13 -10 0 -14 -8 -3 -28 -4 -45
-4 -51 1 -149 -14 -162 -24 -7 -5 -17 -7 -23 -3 -5 3 -10 0 -10 -7 0 -8 -3 -9
-8 -3 -4 6 -17 11 -30 11 -12 1 -20 -1 -17 -4 6 -6 -107 -41 -132 -42 -7 0
-13 4 -13 9 0 5 20 12 44 15 24 4 50 14 56 21 7 8 19 15 27 15 8 0 12 4 8 9
-11 18 42 26 162 23 78 -1 124 2 128 8 9 15 48 8 51 -8z m649 -43 c-2 -22 -9
-65 -16 -97 -7 -31 -12 -60 -11 -64 1 -5 -2 -8 -8 -8 -13 0 -13 -3 5 85 11 54
13 80 5 94 -15 29 -12 40 9 34 16 -4 19 -12 16 -44z m-510 -14 c22 -3 63 -12
90 -19 28 -8 56 -10 64 -6 9 5 24 2 35 -5 12 -8 41 -17 66 -20 25 -4 48 -11
51 -17 3 -5 9 -9 13 -9 8 1 37 -9 61 -20 36 -18 52 -34 59 -59 7 -25 7 -25
-11 3 -11 15 -23 24 -27 20 -4 -4 -10 -3 -14 3 -9 13 -66 39 -114 52 -30 8
-38 8 -38 -3 0 -8 -5 -17 -11 -21 -8 -4 -9 1 -4 16 6 20 4 22 -19 18 -14 -3
-26 -2 -26 2 0 8 -44 19 -100 26 -44 5 -60 9 -85 19 -11 5 -64 9 -117 9 -91 1
-107 4 -92 18 6 7 161 2 219 -7z m-235 -5 c0 -5 -8 -10 -17 -10 -10 0 -28 -3
-40 -6 -13 -4 -23 -2 -23 4 0 9 17 14 68 21 6 0 12 -3 12 -9z m-90 -10 c0 -6
-10 -10 -23 -10 -13 0 -28 -5 -35 -12 -7 -7 -12 -9 -12 -5 0 4 -9 -2 -21 -14
-27 -27 -38 -16 -13 13 14 17 15 19 2 9 -9 -7 -23 -9 -29 -5 -9 5 -8 10 4 19
19 14 127 18 127 5z m800 -4 c0 -7 -9 -16 -20 -19 -13 -3 -20 0 -20 8 0 8 8
16 18 18 9 3 18 5 20 6 1 0 2 -5 2 -13z m-1170 -7 c0 -5 7 -9 15 -9 8 0 15 6
15 13 0 8 4 7 10 -3 9 -13 11 -13 20 0 8 13 10 12 10 -2 0 -12 -8 -18 -24 -18
-14 0 -27 -4 -30 -9 -3 -5 -14 -8 -24 -6 -9 1 -11 0 -4 -2 19 -7 14 -20 -9
-26 -15 -4 -23 0 -26 13 -6 23 -42 34 -50 14 -3 -8 -9 -12 -13 -9 -5 3 -16 2
-26 -2 -15 -5 -14 -8 7 -15 19 -7 21 -11 9 -18 -23 -14 -40 -12 -40 6 0 8 -4
12 -10 9 -5 -3 -10 3 -10 15 0 15 12 26 42 39 45 19 138 26 138 10z m218 -11
c-5 -14 -88 -22 -88 -9 0 9 26 16 73 20 11 0 17 -4 15 -11z m514 -13 c22 7 22
6 4 -7 -23 -18 -12 -27 41 -34 66 -9 88 -13 88 -14 0 -1 11 -3 25 -4 47 -5
120 -28 120 -38 0 -6 -11 -7 -27 -3 -16 4 -37 9 -48 10 -38 6 -90 14 -139 21
-37 5 -47 4 -42 -5 5 -7 16 -9 29 -5 19 6 20 5 9 -9 -11 -13 -7 -15 35 -19 26
-3 54 0 61 5 8 7 18 5 30 -6 9 -8 32 -18 50 -22 18 -4 37 -15 42 -25 13 -23
69 -64 77 -56 4 3 -2 12 -12 20 -17 12 -17 13 5 19 15 4 21 11 17 21 -3 8 0
19 7 26 11 8 15 3 18 -25 2 -20 0 -38 -4 -41 -4 -3 -8 -10 -8 -15 0 -6 5 -7
12 -3 7 5 9 0 6 -14 -4 -13 0 -23 8 -26 19 -7 18 -26 -1 -26 -17 0 -11 -46 12
-90 7 -14 13 -33 13 -42 0 -22 31 -101 42 -109 5 -3 2 -18 -5 -32 l-14 -27
-16 57 c-8 32 -18 76 -22 98 -4 22 -13 54 -20 70 -22 51 -29 70 -30 81 -1 17
-26 44 -41 44 -8 0 -14 5 -14 10 0 6 -3 9 -7 8 -5 -1 -17 3 -28 9 -11 6 -54
19 -95 28 -41 10 -84 23 -95 29 -11 5 -24 11 -30 12 -5 0 -12 2 -15 3 -3 2
-38 4 -78 6 -40 2 -76 6 -79 9 -11 10 -24 6 -17 -5 5 -8 1 -8 -14 0 -27 15
-63 14 -59 -1 1 -8 -52 -19 -173 -33 -97 -12 -225 -34 -286 -49 -61 -14 -126
-26 -145 -26 -44 0 -185 -25 -223 -39 -16 -7 -31 -9 -34 -6 -7 7 79 44 103 45
15 0 17 2 6 9 -8 5 -27 3 -47 -5 -39 -16 -44 -17 -44 -5 0 8 32 23 57 25 6 1
15 5 19 9 4 4 20 7 36 7 19 0 27 4 22 11 -5 8 -1 8 14 0 11 -6 23 -16 25 -23
4 -9 6 -7 6 3 1 11 14 19 42 23 49 8 60 1 33 -19 -22 -17 -12 -20 16 -5 11 6
17 16 14 24 -4 10 10 15 53 21 46 6 54 9 38 16 -17 8 -17 9 5 5 14 -2 36 0 50
4 14 5 19 8 12 9 -21 2 -3 21 19 21 16 0 19 5 14 20 -5 16 -2 20 19 20 14 0
26 -4 26 -10 0 -5 -7 -10 -16 -10 -22 0 -12 -24 12 -28 16 -3 17 -1 4 8 -12 9
-11 10 8 5 13 -4 22 -2 22 4 0 6 8 11 18 11 14 0 15 -2 2 -10 -21 -13 -5 -24
17 -12 11 6 25 7 33 2 7 -4 18 -6 24 -4 34 12 218 17 296 8 79 -10 101 -10
106 -2 5 7 -13 12 -43 11 -7 -1 -10 3 -7 8 3 5 1 9 -5 9 -5 0 -11 -5 -13 -11
-2 -7 -11 -7 -28 0 -14 5 -19 10 -12 10 7 1 10 7 7 14 -4 6 0 4 8 -6 13 -16
15 -16 21 -1 8 22 8 24 -5 22 -6 -2 -14 3 -16 11 -4 10 3 12 31 9 24 -3 33 -1
26 6 -16 16 -12 30 5 16 8 -7 24 -9 37 -5z m-617 -16 c-8 -12 -45 -12 -45 0 0
10 30 20 43 14 4 -3 5 -9 2 -14z m-60 -9 c-3 -5 -15 -10 -26 -10 -10 0 -19 5
-19 10 0 6 12 10 26 10 14 0 23 -4 19 -10z m565 -1 c0 -5 -17 -9 -37 -10 -21
0 -71 -2 -110 -3 -40 -2 -73 0 -73 5 0 10 33 14 138 16 46 1 82 -2 82 -8z
m245 1 c3 -5 12 -7 20 -3 8 3 15 0 15 -7 0 -6 -4 -8 -10 -5 -5 3 -10 0 -10 -7
-1 -9 -5 -7 -14 4 -10 13 -15 15 -24 6 -8 -8 -12 -8 -12 -2 0 22 24 32 35 14z
m-925 -15 c0 -8 -9 -15 -20 -15 -25 0 -26 17 -2 23 9 3 18 5 20 6 1 0 2 -6 2
-14z m215 5 c3 -6 -1 -7 -9 -4 -18 7 -21 14 -7 14 6 0 13 -4 16 -10z m226 -5
c-1 -6 -11 -10 -23 -11 -13 0 -51 -4 -85 -8 -38 -4 -63 -3 -63 3 0 5 26 12 58
16 31 3 66 7 77 9 28 4 37 2 36 -9z m-551 -23 c0 -13 -12 -22 -22 -16 -10 6
-1 24 13 24 5 0 9 -4 9 -8z m310 -7 c0 -8 -6 -15 -14 -15 -7 0 -28 -3 -45 -6
-20 -4 -31 -3 -31 5 0 6 10 11 23 11 12 0 29 5 37 10 21 14 30 12 30 -5z m380
5 c0 -5 -2 -10 -4 -10 -3 0 -8 5 -11 10 -3 6 -1 10 4 10 6 0 11 -4 11 -10z
m-730 -14 c0 -4 -59 -36 -67 -36 -12 0 1 17 20 26 23 12 47 17 47 10z m250
-16 c0 -6 -6 -10 -12 -10 -7 0 -31 -3 -53 -6 -34 -5 -38 -3 -24 8 19 16 89 22
89 8z m1036 -27 c-10 -10 -19 5 -10 18 6 11 8 11 12 0 2 -7 1 -15 -2 -18z
m-39 -8 c9 -20 8 -25 -2 -25 -17 0 -38 27 -30 40 10 16 19 12 32 -15z m-1171
-7 c-10 -6 -20 -7 -24 -3 -9 8 20 25 31 18 5 -3 2 -10 -7 -15z m59 12 c-3 -5
-10 -10 -16 -10 -5 0 -9 5 -9 10 0 6 7 10 16 10 8 0 12 -4 9 -10z m1251 -48
c-9 -8 -14 0 -21 33 l-6 30 16 -28 c9 -16 14 -31 11 -35z m-1351 38 c-3 -5
-13 -10 -21 -10 -8 0 -12 5 -9 10 3 6 13 10 21 10 8 0 12 -4 9 -10z m-50 -20
c-3 -5 -13 -10 -21 -10 -8 0 -14 5 -14 10 0 6 9 10 21 10 11 0 17 -4 14 -10z
m-45 -9 c0 -5 -8 -11 -17 -15 -10 -3 -24 -9 -30 -12 -23 -10 -14 11 10 22 29
15 37 16 37 5z m1470 -30 c0 -5 3 -18 7 -28 6 -16 5 -16 -10 -4 -19 15 -23 41
-7 41 6 0 10 -4 10 -9z m87 -53 c-3 -8 -6 -5 -6 6 -1 11 2 17 5 13 3 -3 4 -12
1 -19z m-57 -19 c0 -11 4 -28 9 -37 13 -25 17 -71 6 -69 -5 1 -9 5 -8 8 1 3
-5 28 -13 54 -17 57 -17 65 -4 65 6 0 10 -9 10 -21z m50 -9 c0 -5 -2 -10 -4
-10 -3 0 -8 5 -11 10 -3 6 -1 10 4 10 6 0 11 -4 11 -10z m-110 -41 c0 -11 -4
-17 -10 -14 -5 3 -10 13 -10 21 0 8 5 14 10 14 6 0 10 -9 10 -21z m120 -9 c0
-5 -8 -10 -17 -10 -15 0 -16 2 -3 10 19 12 20 12 20 0z"/>
<path d="M11243 29803 c-10 -26 -14 -56 -10 -93 11 -121 40 -142 188 -133 118
6 156 21 139 53 -6 11 -19 20 -28 20 -10 0 -27 7 -38 15 -10 8 -28 15 -40 15
-11 0 -24 3 -28 8 -4 4 -15 7 -24 8 -30 1 -82 28 -82 41 0 7 -7 13 -15 13 -8
0 -15 9 -15 19 0 11 -5 23 -11 27 -6 3 -9 15 -6 25 9 34 -14 20 -30 -18z"/>
<path d="M12163 29790 c-33 -13 -29 -32 5 -24 61 13 65 16 51 25 -17 11 -27
10 -56 -1z"/>
<path d="M11675 29740 c-16 -16 -26 -32 -24 -34 7 -7 82 37 87 52 7 24 -34 12
-63 -18z"/>
<path d="M11208 29359 c-32 -18 -19 -36 42 -59 87 -33 200 -30 252 6 39 27 52
52 21 39 -33 -13 -200 -18 -207 -6 -4 6 -20 11 -36 11 -16 0 -32 5 -35 10 -8
12 -15 12 -37 -1z"/>
<path d="M11590 29360 c-9 -6 -10 -10 -3 -10 6 0 15 5 18 10 8 12 4 12 -15 0z"/>
<path d="M12790 28641 c0 -5 5 -13 10 -16 6 -3 10 -2 10 4 0 5 -4 13 -10 16
-5 3 -10 2 -10 -4z"/>
<path d="M12270 26270 c-6 -11 -16 -17 -22 -14 -6 4 -8 3 -5 -3 3 -5 -5 -21
-19 -36 -13 -14 -24 -29 -24 -33 0 -9 99 89 100 99 0 15 -20 6 -30 -13z"/>
<path d="M12170 26149 c0 -5 5 -7 10 -4 6 3 10 8 10 11 0 2 -4 4 -10 4 -5 0
-10 -5 -10 -11z"/>
<path d="M12026 25944 c-8 -22 -4 -25 11 -9 7 8 9 16 4 19 -5 3 -12 -1 -15
-10z"/>
<path d="M14858 23413 c7 -3 16 -2 19 1 4 3 -2 6 -13 5 -11 0 -14 -3 -6 -6z"/>
<path d="M14950 22679 c0 -5 5 -7 10 -4 6 3 10 8 10 11 0 2 -4 4 -10 4 -5 0
-10 -5 -10 -11z"/>
<path d="M14730 22610 c0 -5 5 -10 10 -10 6 0 10 5 10 10 0 6 -4 10 -10 10 -5
0 -10 -4 -10 -10z"/>
<path d="M14690 22600 c0 -5 4 -10 9 -10 5 0 8 -7 7 -16 0 -9 14 -27 32 -41
17 -14 32 -21 32 -16 0 5 -13 17 -30 26 -16 10 -30 22 -30 28 0 12 53 0 62
-15 11 -15 10 6 0 22 -5 7 -16 10 -24 7 -8 -3 -22 1 -31 9 -18 18 -27 20 -27
6z"/>
<path d="M14871 22571 c-10 -7 -10 -10 -1 -16 6 -4 16 -3 22 3 13 13 -4 23
-21 13z"/>
<path d="M14460 21630 c8 -5 20 -10 25 -10 6 0 3 5 -5 10 -8 5 -19 10 -25 10
-5 0 -3 -5 5 -10z"/>
<path d="M14515 21590 c3 -5 11 -10 16 -10 6 0 7 5 4 10 -3 6 -11 10 -16 10
-6 0 -7 -4 -4 -10z"/>
<path d="M14155 21568 c-21 -4 -12 -6 30 -6 33 1 69 5 80 9 24 10 -64 8 -110
-3z"/>
<path d="M14583 21554 c8 -8 67 -13 63 -5 -3 4 -19 8 -37 9 -17 0 -29 -1 -26
-4z"/>
<path d="M14737 21529 c7 -7 15 -10 18 -7 3 3 -2 9 -12 12 -14 6 -15 5 -6 -5z"/>
<path d="M13820 21520 c-9 -6 -10 -10 -3 -10 6 0 15 5 18 10 8 12 4 12 -15 0z"/>
<path d="M13763 21513 c-21 -8 -15 -22 7 -16 11 3 20 9 20 14 0 10 -8 10 -27
2z"/>
<path d="M10279 33197 c14 -18 51 -42 51 -33 0 3 -15 15 -32 27 -24 17 -29 18
-19 6z"/>
<path d="M10863 33043 c9 -2 23 -2 30 0 6 3 -1 5 -18 5 -16 0 -22 -2 -12 -5z"/>
<path d="M12198 33013 c6 -2 18 -2 25 0 6 3 1 5 -13 5 -14 0 -19 -2 -12 -5z"/>
<path d="M12268 32983 c6 -2 18 -2 25 0 6 3 1 5 -13 5 -14 0 -19 -2 -12 -5z"/>
<path d="M12560 32750 c0 -5 5 -10 11 -10 5 0 7 5 4 10 -3 6 -8 10 -11 10 -2
0 -4 -4 -4 -10z"/>
<path d="M13180 32720 c-9 -6 -10 -10 -3 -10 6 0 15 5 18 10 8 12 4 12 -15 0z"/>
<path d="M9228 32533 c6 -2 18 -2 25 0 6 3 1 5 -13 5 -14 0 -19 -2 -12 -5z"/>
<path d="M9491 32290 l-23 -20 23 0 c12 0 19 3 16 7 -4 3 -2 12 4 20 16 18 8
16 -20 -7z"/>
<path d="M9380 32035 c-18 -19 -32 -36 -29 -38 2 -2 19 14 38 35 42 48 36 50
-9 3z"/>
<path d="M13225 31544 c36 -28 61 -36 30 -10 -16 14 -34 25 -40 25 -5 0 -1 -7
10 -15z"/>
<path d="M9210 31399 c-7 -11 -10 -23 -7 -25 2 -2 9 7 15 21 14 30 7 33 -8 4z"/>
<path d="M9262 31351 c-6 -17 -9 -31 -6 -31 7 0 25 52 20 57 -2 2 -8 -10 -14
-26z"/>
<path d="M9261 31194 c0 -11 3 -14 6 -6 3 7 2 16 -1 19 -3 4 -6 -2 -5 -13z"/>
<path d="M9122 31150 c0 -14 2 -19 5 -12 2 6 2 18 0 25 -3 6 -5 1 -5 -13z"/>
<path d="M9112 31085 c0 -16 2 -22 5 -12 2 9 2 23 0 30 -3 6 -5 -1 -5 -18z"/>
<path d="M9258 31022 c-9 -34 -12 -60 -8 -57 11 7 33 91 28 106 -3 8 -11 -15
-20 -49z"/>
<path d="M9211 31014 c0 -11 3 -14 6 -6 3 7 2 16 -1 19 -3 4 -6 -2 -5 -13z"/>
<path d="M9196 30883 c-6 -14 -5 -15 5 -6 7 7 10 15 7 18 -3 3 -9 -2 -12 -12z"/>
<path d="M9202 30831 c-12 -21 -22 -43 -22 -47 0 -5 12 11 25 35 14 24 24 45
22 47 -2 2 -13 -14 -25 -35z"/>
<path d="M9206 30744 c-9 -26 -14 -49 -12 -51 2 -2 11 17 20 43 9 26 14 49 12
51 -2 2 -11 -17 -20 -43z"/>
<path d="M9241 30594 c0 -11 3 -14 6 -6 3 7 2 16 -1 19 -3 4 -6 -2 -5 -13z"/>
<path d="M13341 30530 c0 -8 4 -22 9 -30 12 -18 12 -2 0 25 -6 13 -9 15 -9 5z"/>
<path d="M13175 30310 c10 -11 20 -20 23 -20 3 0 -3 9 -13 20 -10 11 -20 20
-23 20 -3 0 3 -9 13 -20z"/>
<path d="M9756 29664 c-5 -14 -4 -15 9 -4 17 14 19 20 6 20 -5 0 -12 -7 -15
-16z"/>
<path d="M13140 29351 c0 -6 4 -13 10 -16 6 -3 7 1 4 9 -7 18 -14 21 -14 7z"/>
<path d="M10611 29090 c0 -8 4 -22 9 -30 12 -18 12 -2 0 25 -6 13 -9 15 -9 5z"/>
<path d="M10691 28884 c0 -11 3 -14 6 -6 3 7 2 16 -1 19 -3 4 -6 -2 -5 -13z"/>
<path d="M13546 27994 c-23 -23 -20 -30 4 -9 11 10 20 20 20 22 0 7 -9 2 -24
-13z"/>
<path d="M13324 27748 c-5 -7 -2 -9 9 -5 9 3 18 1 21 -6 2 -7 5 -4 5 6 1 19
-24 23 -35 5z"/>
<path d="M13320 27720 c12 -7 11 -12 -8 -28 -20 -17 -20 -21 -6 -38 14 -18 15
-18 8 5 -4 16 -3 21 5 17 6 -4 11 -1 11 8 0 8 5 16 12 18 16 6 0 28 -20 28
-14 0 -15 -2 -2 -10z"/>
<path d="M13280 27641 c0 -5 5 -13 10 -16 6 -3 10 -2 10 4 0 5 -4 13 -10 16
-5 3 -10 2 -10 -4z"/>
<path d="M13270 27606 c0 -9 5 -16 10 -16 6 0 10 4 10 9 0 6 -4 13 -10 16 -5
3 -10 -1 -10 -9z"/>
<path d="M13250 27581 c0 -5 5 -13 10 -16 6 -3 10 -2 10 4 0 5 -4 13 -10 16
-5 3 -10 2 -10 -4z"/>
<path d="M13240 27550 c0 -5 5 -10 11 -10 5 0 7 5 4 10 -3 6 -8 10 -11 10 -2
0 -4 -4 -4 -10z"/>
<path d="M13220 27531 c0 -5 5 -13 10 -16 6 -3 10 -2 10 4 0 5 -4 13 -10 16
-5 3 -10 2 -10 -4z"/>
<path d="M13215 27490 c3 -5 8 -10 11 -10 2 0 4 5 4 10 0 6 -5 10 -11 10 -5 0
-7 -4 -4 -10z"/>
<path d="M13180 27462 c-10 -11 -11 -17 -2 -20 7 -2 12 -8 12 -13 0 -6 -4 -7
-10 -4 -5 3 -10 2 -10 -4 0 -19 16 -20 28 -1 8 14 8 21 1 26 -8 4 -7 9 1 14 7
4 8 10 4 13 -5 3 -16 -2 -24 -11z"/>
<path d="M13160 27380 c0 -5 5 -10 10 -10 6 0 10 5 10 10 0 6 -4 10 -10 10 -5
0 -10 -4 -10 -10z"/>
<path d="M9453 25256 c-58 -19 -104 -49 -153 -102 -148 -160 -128 -402 40
-478 111 -49 260 -9 357 98 l49 53 125 -13 c160 -16 1219 -153 1435 -185 l74
-11 24 -54 c31 -68 102 -139 172 -171 47 -21 67 -25 129 -21 62 3 80 8 117 33
117 83 148 257 72 408 -97 190 -325 249 -451 116 -46 -49 -74 -120 -76 -191
l-2 -60 -40 5 c-22 3 -211 28 -420 56 -209 28 -429 58 -490 66 -60 8 -229 29
-375 46 -146 17 -266 32 -268 34 -1 1 2 15 9 31 17 44 14 153 -5 199 -51 120
-191 182 -323 141z"/>
<path d="M7545 25240 c-3 -5 -2 -10 4 -10 5 0 13 5 16 10 3 6 2 10 -4 10 -5 0
-13 -4 -16 -10z"/>
<path d="M14227 25010 c-6 -27 -36 -213 -47 -295 -4 -27 -15 -70 -24 -94 -9
-24 -16 -51 -16 -61 0 -20 40 -77 93 -131 45 -46 56 -50 28 -10 -22 31 -40 99
-46 176 -5 59 10 95 20 52 4 -16 14 -27 24 -27 16 0 48 -49 39 -59 -1 -2 6 -7
17 -11 11 -4 48 -52 81 -106 78 -125 97 -164 128 -256 14 -40 26 -67 26 -59 0
39 -51 175 -130 341 -90 189 -124 283 -155 425 -10 44 -21 94 -25 110 -7 30
-7 30 -13 5z m31 -375 c-3 -3 -9 2 -12 12 -6 14 -5 15 5 6 7 -7 10 -15 7 -18z"/>
<path d="M12855 24920 c3 -5 8 -10 11 -10 2 0 4 5 4 10 0 6 -5 10 -11 10 -5 0
-7 -4 -4 -10z"/>
<path d="M7365 24910 c-3 -5 1 -10 9 -10 9 0 16 5 16 10 0 6 -4 10 -9 10 -6 0
-13 -4 -16 -10z"/>
<path d="M7382 24868 c-14 -14 -16 -28 -2 -28 5 0 14 9 20 20 12 22 1 27 -18
8z"/>
<path d="M7023 24494 c-8 -8 -9 -15 -3 -19 6 -3 10 -1 10 5 0 6 5 8 10 5 6 -3
10 -2 10 4 0 17 -14 20 -27 5z"/>
<path d="M12842 24465 c-13 -7 -29 -18 -35 -24 -19 -19 6 -12 48 14 41 25 29
34 -13 10z"/>
<path d="M6926 24424 c-4 -9 -4 -19 -1 -22 3 -3 5 0 5 7 0 7 4 9 10 6 6 -3 7
1 4 9 -8 20 -10 20 -18 0z"/>
<path d="M6800 24305 c-5 -14 -17 -40 -26 -58 -16 -30 -16 -31 0 -18 19 16 50
71 40 71 -4 0 -1 7 6 15 9 11 9 15 1 15 -6 0 -16 -11 -21 -25z"/>
<path d="M14350 24279 c0 -5 5 -7 10 -4 6 3 10 8 10 11 0 2 -4 4 -10 4 -5 0
-10 -5 -10 -11z"/>
<path d="M6792 24159 c-10 -15 -10 -19 0 -17 7 2 16 8 20 13 4 6 8 0 8 -12 0
-13 -5 -23 -12 -23 -9 0 -9 -3 0 -12 9 -9 16 -7 32 7 26 24 25 27 -8 47 -27
16 -29 16 -40 -3z"/>
<path d="M13015 24149 c-4 -6 -5 -12 -2 -15 2 -3 7 2 10 11 7 17 1 20 -8 4z"/>
<path d="M6871 24111 c-10 -6 -5 -11 15 -19 18 -6 22 -11 12 -11 -10 -1 -18
-9 -18 -18 0 -10 4 -14 8 -8 11 15 39 17 48 4 4 -7 3 -10 -2 -7 -5 3 -15 0
-22 -8 -8 -9 -9 -14 -2 -14 6 0 22 -11 36 -25 14 -14 37 -33 52 -41 22 -13 20
-10 -8 16 -19 18 -27 30 -17 26 11 -3 16 -2 12 4 -3 6 0 10 7 10 7 1 2 10 -12
21 -14 11 -34 28 -45 37 -46 38 -51 41 -64 33z m103 -80 c3 -5 0 -11 -8 -14
-15 -6 -26 1 -26 15 0 11 27 10 34 -1z"/>
<path d="M14773 23998 c32 -18 90 -61 128 -96 38 -36 72 -62 75 -59 11 11 -27
66 -73 105 -27 24 -73 49 -108 61 -85 29 -90 26 -22 -11z"/>
<path d="M7007 24006 c-4 -10 -1 -13 8 -9 8 3 12 9 9 14 -7 12 -11 11 -17 -5z"/>
<path d="M7046 23987 c3 -10 9 -15 12 -12 3 3 0 11 -7 18 -10 9 -11 8 -5 -6z"/>
<path d="M14495 23990 c3 -5 14 -10 23 -10 15 0 15 2 2 10 -20 13 -33 13 -25
0z"/>
<path d="M7065 23940 c3 -5 8 -10 11 -10 2 0 4 5 4 10 0 6 -5 10 -11 10 -5 0
-7 -4 -4 -10z"/>
<path d="M14742 23793 c2 -10 11 -19 21 -21 16 -3 17 -1 5 17 -16 25 -31 27
-26 4z"/>
<path d="M15167 23774 c-32 -38 -55 -48 -73 -33 -13 10 -17 10 -24 0 -11 -18
-156 -15 -211 4 -23 9 -44 13 -47 11 -5 -6 83 -48 151 -71 66 -23 159 -96 195
-153 16 -26 42 -82 57 -125 15 -42 30 -76 32 -73 10 10 13 285 3 291 -5 3 -10
-1 -10 -9 0 -23 -11 -20 -49 15 -41 37 -34 49 13 21 24 -14 36 -17 40 -9 3 9
5 9 5 0 1 -7 6 -13 12 -13 7 0 9 10 6 28 -8 40 -57 142 -68 142 -5 0 -19 -12
-32 -26z m-32 -74 c3 -5 1 -10 -4 -10 -6 0 -11 5 -11 10 0 6 2 10 4 10 3 0 8
-4 11 -10z"/>
<path d="M12810 23736 c0 -31 6 -34 13 -6 3 11 1 23 -4 26 -5 3 -9 -6 -9 -20z"/>
<path d="M12776 23655 c-9 -26 -7 -32 5 -12 6 10 9 21 6 23 -2 3 -7 -2 -11
-11z"/>
<path d="M14900 23629 c0 -5 4 -9 9 -9 5 0 17 -3 27 -7 11 -4 15 -3 11 4 -9
14 -47 24 -47 12z"/>
<path d="M14997 23589 c7 -7 15 -10 18 -7 3 3 -2 9 -12 12 -14 6 -15 5 -6 -5z"/>
<path d="M12650 23485 c7 -9 15 -13 17 -11 7 7 -7 26 -19 26 -6 0 -6 -6 2 -15z"/>
<path d="M15070 23460 c0 -5 5 -10 11 -10 5 0 7 5 4 10 -3 6 -8 10 -11 10 -2
0 -4 -4 -4 -10z"/>
<path d="M15177 23315 c2 -55 9 -124 14 -152 6 -29 7 -73 4 -98 -6 -36 -4 -45
8 -45 8 0 18 -10 21 -22 6 -23 7 -23 19 -3 8 13 12 61 11 140 0 95 -4 129 -20
163 -10 23 -22 42 -26 42 -5 0 -8 10 -9 23 0 21 -1 21 -9 2 -6 -17 -8 -15 -13
15 -2 19 -3 -10 0 -65z"/>
<path d="M12553 23383 c-17 -6 -17 -23 0 -23 8 0 14 7 14 15 0 8 -1 15 -1 14
-1 0 -7 -3 -13 -6z"/>
<path d="M12510 23340 c-9 -6 -10 -10 -3 -10 6 0 15 5 18 10 8 12 4 12 -15 0z"/>
<path d="M12283 22760 c-6 -14 -14 -33 -17 -42 -3 -10 -11 -15 -19 -12 -8 3
-17 -2 -20 -10 -4 -9 -12 -16 -20 -16 -7 0 -19 -6 -25 -12 -7 -7 -16 -13 -20
-14 -4 0 -59 -26 -122 -57 -101 -50 -111 -57 -80 -57 39 0 140 -43 140 -60 0
-23 45 19 100 95 73 101 103 158 98 187 l-4 23 -11 -25z"/>
<path d="M3475 22701 c-14 -6 4 -10 55 -14 92 -6 174 -33 302 -97 84 -42 267
-157 362 -228 17 -12 43 -30 57 -40 39 -26 121 -95 243 -207 105 -95 169 -156
486 -460 197 -189 311 -276 530 -406 14 -9 42 -26 64 -39 37 -23 38 -23 27 -2
-11 21 -11 21 19 4 23 -13 26 -18 13 -23 -10 -3 22 -29 101 -78 227 -142 351
-249 377 -328 10 -31 9 -38 -5 -48 -9 -7 -16 -22 -16 -35 0 -31 -51 -190 -61
-190 -4 0 -11 17 -14 38 -15 86 -147 232 -315 346 -30 21 -57 41 -60 44 -3 4
-50 37 -105 74 -149 100 -278 190 -344 243 -141 112 -190 153 -266 224 -156
148 -222 208 -375 341 -91 79 -172 151 -181 159 -9 9 -34 30 -55 47 -22 18
-61 53 -89 78 -27 25 -53 46 -57 46 -3 0 -30 20 -60 44 -87 71 -245 168 -378
234 -276 135 -439 130 -480 -16 -33 -121 21 -321 134 -495 84 -129 166 -216
321 -341 39 -31 81 -65 93 -76 13 -11 25 -20 27 -20 2 0 73 -46 158 -103 84
-57 160 -106 168 -110 7 -4 59 -36 114 -72 55 -35 129 -81 164 -102 35 -21 71
-42 80 -48 9 -5 63 -39 120 -75 136 -85 412 -250 431 -258 8 -3 78 -43 155
-90 152 -92 342 -190 417 -216 73 -24 154 -35 259 -33 63 1 101 7 112 15 16
14 149 277 162 322 4 14 11 30 15 35 22 32 75 231 90 340 13 96 10 86 64 220
109 265 139 333 182 405 80 133 106 196 98 238 -6 27 -10 29 -82 40 -43 7
-149 11 -237 10 -153 -2 -164 -1 -245 26 -47 16 -100 28 -117 27 -46 -2 -42
16 16 73 104 102 123 240 42 303 -23 18 -30 16 -24 -7 8 -30 -18 -151 -33
-157 -8 -3 -14 -11 -14 -18 0 -17 -35 -47 -45 -38 -4 5 -4 -3 0 -16 6 -20 4
-23 -9 -18 -17 7 -40 -25 -28 -38 4 -5 1 -5 -5 -1 -9 5 -4 25 22 76 30 60 64
169 65 206 0 7 -18 19 -40 28 -52 21 -111 12 -141 -20 -26 -28 -27 -28 34 -9
54 16 82 11 71 -14 -18 -40 -73 -214 -79 -251 -7 -42 -3 -45 52 -43 7 1 10 -4
7 -9 -3 -5 2 -18 11 -28 21 -23 16 -79 -7 -94 -14 -9 -25 -3 -62 33 -24 24
-42 49 -40 56 7 16 -22 39 -41 32 -8 -4 -19 1 -25 11 -8 14 -11 14 -19 3 -14
-21 -24 5 -11 30 13 23 8 35 -9 24 -6 -3 -9 -11 -6 -16 4 -5 2 -9 -4 -9 -5 0
-13 9 -16 20 -7 21 -25 28 -25 9 0 -22 44 -105 62 -117 27 -20 20 -58 -9 -54
-35 5 -27 -14 10 -26 17 -5 24 -10 15 -11 -10 -1 -28 -11 -40 -23 -21 -21 -22
-21 -29 -2 -14 36 -22 59 -24 64 -9 36 -19 51 -30 47 -7 -3 -17 -1 -23 5 -16
16 -59 1 -65 -23 -5 -18 -11 -20 -34 -15 -15 4 -42 21 -60 38 -27 26 -36 29
-65 23 -18 -4 -37 -11 -43 -15 -20 -16 -66 3 -92 36 -30 40 -82 47 -106 14
-12 -18 -15 -18 -42 -4 -16 8 -41 29 -55 46 -18 21 -32 29 -45 25 -19 -5 -19
-5 3 -12 12 -4 22 -14 22 -22 0 -13 -3 -13 -25 1 -22 14 -25 15 -25 1 0 -8 -4
-15 -10 -15 -5 0 -10 8 -10 18 0 14 -2 15 -10 2 -12 -20 -20 -9 -23 33 -4 47
-17 60 -17 18 0 -38 -18 -38 -37 0 -21 44 -45 59 -78 50 l-30 -7 34 -12 c18
-6 37 -9 42 -6 5 3 9 -2 9 -10 0 -21 -21 -31 -31 -15 -6 9 -12 10 -16 4 -9
-12 -63 -14 -63 -2 0 5 -4 5 -10 2 -5 -3 -19 -1 -30 5 -13 7 -20 7 -20 0 0 -5
6 -10 14 -10 7 0 20 -8 27 -17 12 -15 12 -16 -6 -9 -11 4 -25 9 -30 10 -6 1
-21 12 -33 24 -12 12 -29 22 -37 22 -8 0 -15 7 -15 16 0 8 -4 13 -9 9 -5 -3
-12 -1 -16 5 -3 5 -18 10 -32 10 -15 0 -23 3 -20 7 4 3 -1 15 -10 25 -16 18
-16 18 3 12 10 -4 22 -13 26 -19 4 -6 24 -12 45 -13 34 0 36 0 13 9 -13 6 -47
23 -76 39 l-51 30 5 -50 c5 -52 2 -58 -20 -37 -52 49 -201 160 -323 240 -212
139 -459 224 -550 188z m985 -451 c0 -5 -5 -10 -11 -10 -5 0 -7 5 -4 10 3 6 8
10 11 10 2 0 4 -4 4 -10z m-30 -20 c0 -5 -5 -10 -11 -10 -5 0 -7 5 -4 10 3 6
8 10 11 10 2 0 4 -4 4 -10z m37 -15 c-9 -8 -22 -15 -29 -15 -7 0 -2 9 12 20
28 21 40 19 17 -5z m193 -87 c0 -6 -7 -5 -15 2 -8 7 -15 17 -15 22 0 6 7 5 15
-2 8 -7 15 -17 15 -22z m141 22 c10 -6 19 -15 19 -20 0 -17 -26 -11 -45 10
-20 22 -7 27 26 10z m-161 -35 c7 -8 8 -15 2 -15 -5 0 -15 7 -22 15 -7 8 -8
15 -2 15 5 0 15 -7 22 -15z m-60 -13 c0 -5 -7 -9 -15 -9 -8 0 -15 4 -15 9 0 4
7 8 15 8 8 0 15 -4 15 -8z m121 -9 c13 -16 12 -17 -3 -4 -10 7 -18 15 -18 17
0 8 8 3 21 -13z m314 -11 c39 -20 19 -26 -30 -10 -43 14 -65 46 -24 33 13 -4
38 -14 54 -23z m115 -3 c8 -10 34 -25 58 -35 41 -16 44 -16 57 2 7 11 17 15
21 11 4 -4 -1 -17 -13 -28 -28 -28 -74 -18 -117 25 -24 24 -38 30 -63 28 -24
-2 -33 1 -33 12 0 21 70 10 90 -15z m-510 11 c0 -5 -2 -10 -4 -10 -3 0 -8 5
-11 10 -3 6 -1 10 4 10 6 0 11 -4 11 -10z m45 -20 c3 -5 1 -10 -4 -10 -6 0
-11 5 -11 10 0 6 2 10 4 10 3 0 8 -4 11 -10z m-25 -4 c0 -11 -19 -15 -25 -6
-3 5 1 10 9 10 9 0 16 -2 16 -4z m111 -9 c8 -7 18 -20 22 -30 6 -17 3 -18 -35
-12 -47 8 -60 15 -40 22 10 4 9 8 -4 17 -15 11 -14 13 12 14 16 0 36 -5 45
-11z m579 -7 c0 -5 -4 -10 -9 -10 -6 0 -13 5 -16 10 -3 6 1 10 9 10 9 0 16 -4
16 -10z m-510 -20 c0 -5 -4 -10 -9 -10 -6 0 -13 5 -16 10 -3 6 1 10 9 10 9 0
16 -4 16 -10z m45 -10 c3 -5 -1 -10 -9 -10 -8 0 -18 5 -21 10 -3 6 1 10 9 10
8 0 18 -4 21 -10z m843 -8 c3 -9 -2 -13 -14 -10 -9 1 -19 9 -22 16 -3 9 2 13
14 10 9 -1 19 -9 22 -16z m212 2 c0 -2 -12 -4 -26 -4 -14 0 -23 4 -20 9 6 8
46 4 46 -5z m-995 -20 c16 -25 16 -26 -2 -22 -10 2 -17 10 -15 16 1 7 -2 12
-8 12 -5 0 -10 5 -10 10 0 18 17 10 35 -16z m1051 0 c-3 -8 2 -14 12 -15 15
-1 15 -2 -1 -6 -11 -3 -24 3 -32 14 -20 25 -18 32 6 26 12 -3 18 -11 15 -19z
m-1294 -6 c-7 -7 -12 -8 -12 -2 0 14 12 26 19 19 2 -3 -1 -11 -7 -17z m53 13
c3 -5 1 -12 -5 -16 -5 -3 -10 1 -10 9 0 18 6 21 15 7z m95 -1 c0 -5 -4 -10 -9
-10 -6 0 -13 5 -16 10 -3 6 1 10 9 10 9 0 16 -4 16 -10z m50 -10 c0 -13 -11
-13 -30 0 -12 8 -11 10 8 10 12 0 22 -4 22 -10z m90 0 c0 -5 -4 -10 -9 -10 -6
0 -13 5 -16 10 -3 6 1 10 9 10 9 0 16 -4 16 -10z m455 0 c3 -5 -3 -10 -14 -10
-11 0 -23 5 -26 10 -3 6 3 10 14 10 11 0 23 -4 26 -10z m510 0 c3 -5 -1 -10
-9 -10 -9 0 -16 5 -16 10 0 6 4 10 9 10 6 0 13 -4 16 -10z m110 0 c3 -5 -3
-10 -14 -10 -12 0 -21 5 -21 10 0 6 6 10 14 10 8 0 18 -4 21 -10z m-1010 -10
c3 -5 -3 -10 -14 -10 -12 0 -21 5 -21 10 0 6 6 10 14 10 8 0 18 -4 21 -10z
m818 -33 c6 3 7 1 3 -5 -16 -26 -106 3 -106 33 0 11 11 9 46 -10 26 -14 51
-22 57 -18z m257 12 c0 -21 -8 -23 -30 -9 -9 6 -11 10 -3 10 7 0 10 7 7 15 -5
11 -2 13 10 9 9 -3 16 -15 16 -25z m-1025 11 c3 -5 -1 -10 -9 -10 -8 0 -18 5
-21 10 -3 6 1 10 9 10 8 0 18 -4 21 -10z m-108 -6 c-3 -3 -12 -4 -19 -1 -8 3
-5 6 6 6 11 1 17 -2 13 -5z m1070 0 c-3 -3 -12 -4 -19 -1 -8 3 -5 6 6 6 11 1
17 -2 13 -5z m120 -14 c1 -11 -4 -20 -12 -20 -8 0 -13 9 -12 20 1 11 6 20 12
20 6 0 11 -9 12 -20z m-1117 0 c0 -5 -9 -10 -20 -10 -11 0 -20 5 -20 10 0 6 9
10 20 10 11 0 20 -4 20 -10z m90 -6 c0 -2 -7 -4 -15 -4 -8 0 -15 4 -15 10 0 5
7 7 15 4 8 -4 15 -8 15 -10z m1090 6 c0 -5 -6 -10 -12 -10 -9 0 -8 -4 2 -10
12 -8 11 -10 -5 -10 -14 0 -21 6 -21 20 0 13 7 20 18 20 10 0 18 -4 18 -10z
m-1135 -10 c3 -5 2 -10 -4 -10 -5 0 -13 5 -16 10 -3 6 -2 10 4 10 5 0 13 -4
16 -10z m1185 0 c0 -5 -4 -10 -9 -10 -6 0 -13 5 -16 10 -3 6 1 10 9 10 9 0 16
-4 16 -10z m45 0 c3 -5 -1 -10 -9 -10 -9 0 -16 5 -16 10 0 6 4 10 9 10 6 0 13
-4 16 -10z m-1122 -7 c-7 -2 -19 -2 -25 0 -7 3 -2 5 12 5 14 0 19 -2 13 -5z
m-53 -13 c0 -5 -4 -10 -9 -10 -6 0 -13 5 -16 10 -3 6 1 10 9 10 9 0 16 -4 16
-10z m113 3 c-7 -2 -19 -2 -25 0 -7 3 -2 5 12 5 14 0 19 -2 13 -5z m1144 1
c-3 -3 -12 -4 -19 -1 -8 3 -5 6 6 6 11 1 17 -2 13 -5z m-1187 -14 c0 -13 -11
-13 -30 0 -12 8 -11 10 8 10 12 0 22 -4 22 -10z m108 -10 c11 -18 10 -20 -10
-20 -12 0 -18 3 -15 7 4 3 2 12 -4 20 -9 10 -8 13 2 13 8 0 20 -9 27 -20z
m952 10 c12 -8 11 -10 -7 -10 -13 0 -23 5 -23 10 0 13 11 13 30 0z m-1010 -10
c13 -8 13 -10 -2 -10 -9 0 -20 5 -23 10 -8 13 5 13 25 0z m113 3 c-7 -2 -19
-2 -25 0 -7 3 -2 5 12 5 14 0 19 -2 13 -5z m62 -3 c3 -5 -3 -10 -14 -10 -12 0
-21 5 -21 10 0 6 6 10 14 10 8 0 18 -4 21 -10z m65 -16 c0 -2 -7 -4 -15 -4 -8
0 -15 4 -15 10 0 5 7 7 15 4 8 -4 15 -8 15 -10z m820 6 c0 -5 -7 -7 -15 -4 -8
4 -15 8 -15 10 0 2 7 4 15 4 8 0 15 -4 15 -10z m50 0 c0 -5 -4 -10 -10 -10 -5
0 -10 5 -10 10 0 6 5 10 10 10 6 0 10 -4 10 -10z m-985 -20 c-3 -5 -12 -7 -20
-3 -21 7 -19 13 6 13 11 0 18 -4 14 -10z m69 1 c8 -13 -3 -19 -24 -14 -11 3
-17 9 -14 14 7 11 31 12 38 0z m106 -7 c0 -2 -9 -4 -20 -4 -11 0 -20 4 -20 9
0 5 9 7 20 4 11 -3 20 -7 20 -9z m-50 -10 c0 -2 -7 -4 -15 -4 -8 0 -15 4 -15
10 0 5 7 7 15 4 8 -4 15 -8 15 -10z m102 4 c-9 -9 -15 -9 -24 0 -9 9 -7 12 12
12 19 0 21 -3 12 -12z m43 -8 c3 -5 2 -10 -4 -10 -5 0 -13 5 -16 10 -3 6 -2
10 4 10 5 0 13 -4 16 -10z m-95 -10 c0 -5 -4 -10 -9 -10 -6 0 -13 5 -16 10 -3
6 1 10 9 10 9 0 16 -4 16 -10z m57 -6 c-3 -3 -12 -4 -19 -1 -8 3 -5 6 6 6 11
1 17 -2 13 -5z m158 -4 c3 -5 -3 -10 -14 -10 -12 0 -21 5 -21 10 0 6 6 10 14
10 8 0 18 -4 21 -10z m-100 -10 c3 -5 -1 -10 -9 -10 -8 0 -18 5 -21 10 -3 6 1
10 9 10 8 0 18 -4 21 -10z m155 0 c12 -8 11 -10 -7 -10 -13 0 -23 5 -23 10 0
13 11 13 30 0z m-100 -10 c0 -13 -11 -13 -30 0 -12 8 -11 10 8 10 12 0 22 -4
22 -10z m60 -10 c0 -5 -6 -10 -14 -10 -8 0 -18 5 -21 10 -3 6 3 10 14 10 12 0
21 -4 21 -10z m100 0 c0 -5 -4 -10 -9 -10 -6 0 -13 5 -16 10 -3 6 1 10 9 10 9
0 16 -4 16 -10z m-45 -10 c3 -5 -1 -10 -9 -10 -9 0 -16 5 -16 10 0 6 4 10 9
10 6 0 13 -4 16 -10z m92 4 c-3 -3 -12 -4 -19 -1 -8 3 -5 6 6 6 11 1 17 -2 13
-5z m43 -14 c0 -5 -4 -10 -9 -10 -6 0 -13 5 -16 10 -3 6 1 10 9 10 9 0 16 -4
16 -10z m-80 -10 c0 -5 -7 -7 -15 -4 -8 4 -15 8 -15 10 0 2 7 4 15 4 8 0 15
-4 15 -10z m125 0 c3 -5 1 -10 -4 -10 -6 0 -11 5 -11 10 0 6 2 10 4 10 3 0 8
-4 11 -10z m-78 -6 c-3 -3 -12 -4 -19 -1 -8 3 -5 6 6 6 11 1 17 -2 13 -5z m43
-14 c0 -5 -7 -7 -15 -4 -8 4 -15 8 -15 10 0 2 7 4 15 4 8 0 15 -4 15 -10z
m100 0 c0 -5 -7 -7 -15 -4 -8 4 -15 8 -15 10 0 2 7 4 15 4 8 0 15 -4 15 -10z
m-40 -16 c0 -2 -7 -4 -15 -4 -8 0 -15 4 -15 10 0 5 7 7 15 4 8 -4 15 -8 15
-10z m95 6 c3 -5 -1 -10 -9 -10 -9 0 -16 5 -16 10 0 6 4 10 9 10 6 0 13 -4 16
-10z m-45 -20 c0 -5 -4 -10 -9 -10 -6 0 -13 5 -16 10 -3 6 1 10 9 10 9 0 16
-4 16 -10z m87 4 c-3 -3 -12 -4 -19 -1 -8 3 -5 6 6 6 11 1 17 -2 13 -5z m-32
-14 c3 -5 -1 -10 -9 -10 -9 0 -16 5 -16 10 0 6 4 10 9 10 6 0 13 -4 16 -10z
m82 -14 c-3 -8 -1 -17 6 -20 7 -2 4 -5 -7 -5 -12 -1 -16 4 -13 13 3 8 1 17 -6
20 -7 2 -4 5 7 5 12 1 16 -4 13 -13z m-40 -2 c-3 -3 -12 -4 -19 -1 -8 3 -5 6
6 6 11 1 17 -2 13 -5z m93 -15 c0 -4 -7 -6 -15 -3 -8 4 -15 10 -15 15 0 4 7 6
15 3 8 -4 15 -10 15 -15z m35 -19 c3 -5 1 -10 -4 -10 -6 0 -11 5 -11 10 0 6 2
10 4 10 3 0 8 -4 11 -10z m-35 -10 c0 -5 -2 -10 -4 -10 -3 0 -8 5 -11 10 -3 6
-1 10 4 10 6 0 11 -4 11 -10z m40 -20 c0 -5 -2 -10 -4 -10 -3 0 -8 5 -11 10
-3 6 -1 10 4 10 6 0 11 -4 11 -10z m93 -5 c-3 -9 -8 -14 -10 -11 -3 3 -2 9 2
15 9 16 15 13 8 -4z m-918 -355 c3 -6 -1 -7 -9 -4 -18 7 -21 14 -7 14 6 0 13
-4 16 -10z m210 -120 c3 -5 1 -10 -4 -10 -6 0 -11 5 -11 10 0 6 2 10 4 10 3 0
8 -4 11 -10z m-955 -180 c0 -5 -2 -10 -4 -10 -3 0 -8 5 -11 10 -3 6 -1 10 4
10 6 0 11 -4 11 -10z m1441 -103 c-10 -9 -11 -8 -5 6 3 10 9 15 12 12 3 -3 0
-11 -7 -18z"/>
<path d="M4725 22040 c3 -5 11 -10 16 -10 6 0 7 5 4 10 -3 6 -11 10 -16 10 -6
0 -7 -4 -4 -10z"/>
<path d="M11520 22515 c18 -17 137 -45 190 -44 22 1 1 8 -55 19 -49 9 -103 23
-120 29 -27 11 -29 11 -15 -4z"/>
<path d="M12538 22486 c-7 -7 -33 -35 -57 -62 -25 -27 -73 -79 -108 -116 -54
-56 -63 -71 -63 -103 0 -25 4 -34 12 -29 8 5 9 2 5 -9 -3 -10 -2 -17 3 -17 6
0 10 6 10 13 0 18 58 69 62 55 2 -6 35 47 73 118 88 161 99 187 63 150z"/>
<path d="M5615 22311 c-3 -6 -10 -9 -15 -6 -11 7 -40 -22 -40 -40 0 -8 9 -29
20 -47 21 -35 29 -28 34 32 1 17 9 35 17 40 10 7 11 12 3 20 -9 9 -14 9 -19 1z"/>
<path d="M5730 22300 c0 -5 5 -10 10 -10 6 0 10 5 10 10 0 6 -4 10 -10 10 -5
0 -10 -4 -10 -10z"/>
<path d="M12808 22273 c-31 -36 -97 -141 -150 -238 -95 -173 -190 -357 -186
-360 7 -7 175 269 243 400 37 72 79 149 92 173 26 44 26 54 1 25z"/>
<path d="M5561 22214 c0 -11 3 -14 6 -6 3 7 2 16 -1 19 -3 4 -6 -2 -5 -13z"/>
<path d="M12376 22184 c-5 -14 -4 -15 9 -4 17 14 19 20 6 20 -5 0 -12 -7 -15
-16z"/>
<path d="M5465 22100 c-3 -5 -1 -10 4 -10 6 0 11 5 11 10 0 6 -2 10 -4 10 -3
0 -8 -4 -11 -10z"/>
<path d="M12317 22073 c-4 -3 -7 -11 -7 -17 0 -6 5 -5 12 2 6 6 9 14 7 17 -3
3 -9 2 -12 -2z"/>
<path d="M12287 22033 c-4 -3 -7 -13 -7 -22 1 -13 3 -13 11 2 11 19 8 33 -4
20z"/>
<path d="M12966 21957 c-10 -12 -29 -44 -42 -72 -19 -40 -21 -51 -10 -53 23
-5 32 -108 13 -141 -11 -18 -13 -32 -6 -41 8 -13 10 -13 19 0 5 8 10 21 10 28
0 6 4 12 9 12 5 0 12 8 16 18 6 16 18 272 13 272 -2 0 -11 -10 -22 -23z m-26
-103 c0 -8 -5 -12 -10 -9 -6 4 -8 11 -5 16 9 14 15 11 15 -7z"/>
<path d="M12338 21464 c-30 -40 -33 -50 -24 -70 16 -34 23 -30 30 18 4 23 10
47 15 53 10 12 22 45 17 45 -2 0 -20 -21 -38 -46z"/>
<path d="M12908 21173 c7 -3 16 -2 19 1 4 3 -2 6 -13 5 -11 0 -14 -3 -6 -6z"/>
<path d="M14158 19476 c-40 -17 -79 -56 -95 -95 -18 -42 -43 -191 -32 -191 16
0 79 34 79 42 0 4 -4 8 -9 8 -4 0 -11 16 -14 36 -5 28 0 51 19 91 28 58 64
103 83 103 6 0 11 5 11 10 0 12 -8 12 -42 -4z"/>
<path d="M14205 19453 c-27 -22 -75 -149 -75 -200 0 -33 1 -35 28 -28 36 9 35
7 67 108 21 65 32 87 45 87 10 0 74 -20 144 -46 69 -25 131 -42 138 -38 6 4 8
3 5 -3 -3 -5 34 -36 83 -67 50 -32 90 -64 90 -72 0 -18 -49 -116 -90 -180
l-30 -48 38 -13 37 -13 38 42 c41 47 72 116 64 144 -4 16 -5 15 -6 -3 0 -13
-5 -23 -11 -23 -5 0 -10 -9 -10 -21 0 -16 -4 -19 -22 -14 -23 6 -23 6 -3 -11
20 -16 19 -16 -5 -9 -22 7 -23 6 -11 -9 12 -14 12 -16 -4 -10 -15 6 -17 3 -13
-13 4 -15 1 -20 -11 -19 -9 1 -15 -6 -15 -16 1 -10 -4 -14 -12 -11 -9 3 -4 22
22 71 18 37 39 90 45 118 12 54 7 90 -11 79 -6 -3 -7 0 -4 9 8 20 -89 117
-146 146 -87 44 -153 61 -255 66 -55 3 -104 2 -110 -3z m325 -93 c0 -5 -4 -10
-10 -10 -5 0 -10 5 -10 10 0 6 5 10 10 10 6 0 10 -4 10 -10z m68 -19 c11 -6
10 -10 -4 -15 -9 -3 -19 -4 -22 -1 -3 3 1 5 9 5 11 0 11 2 -1 10 -8 5 -10 10
-5 10 6 0 16 -4 23 -9z m89 -71 l15 -25 -21 23 c-11 13 -25 21 -31 17 -5 -3
-10 -1 -10 5 0 20 32 6 47 -20z"/>
<path d="M13868 19362 c-33 -7 -18 -21 16 -15 19 3 42 0 52 -6 18 -10 17 -10
-3 -11 -14 0 -23 -6 -23 -15 0 -8 -4 -15 -10 -15 -5 0 -7 -6 -4 -13 2 -7 -9
-28 -25 -46 -33 -37 -43 -30 -43 32 l0 42 -15 -35 c-9 -19 -17 -73 -19 -120
-2 -47 -6 -107 -10 -135 -7 -65 -129 -316 -199 -410 -29 -38 -100 -142 -158
-230 -59 -88 -123 -178 -143 -200 l-36 -39 138 -18 c152 -19 194 -15 249 26
83 61 191 108 304 132 81 17 329 23 451 11 117 -12 292 -49 365 -77 11 -5 40
-16 65 -25 25 -9 66 -30 93 -46 26 -16 51 -29 56 -29 5 0 11 -7 15 -15 3 -8
10 -15 15 -15 6 0 33 -21 61 -47 63 -58 147 -181 156 -228 6 -34 24 -59 24
-33 -1 63 -56 175 -126 257 -75 87 -238 183 -391 230 -170 52 -265 65 -498 65
-115 1 -211 4 -212 9 -6 16 -2 21 6 9 6 -11 15 -8 37 13 17 16 22 25 12 21
-10 -3 -20 -1 -23 5 -7 10 14 35 30 36 5 1 11 7 14 14 2 7 -1 9 -9 4 -8 -5
-11 -3 -8 5 5 16 38 23 38 8 0 -6 6 -5 15 2 25 21 17 30 -24 25 -32 -4 -39 -2
-37 11 1 8 8 19 15 23 16 11 -12 23 -34 15 -18 -7 -37 4 -29 18 4 6 9 5 15 -3
6 -10 11 -6 18 14 16 42 14 47 -24 47 -27 0 -35 4 -34 18 0 9 3 12 5 6 5 -13
78 -9 117 5 16 6 40 11 55 11 18 0 23 3 15 11 -7 7 -28 6 -71 -5 -75 -20 -72
-20 -72 7 1 28 22 57 43 57 9 0 19 5 23 12 5 8 -5 9 -36 5 -24 -3 -46 -11 -51
-18 -6 -10 -10 -9 -15 5 -4 10 -2 27 4 37 7 10 9 26 6 36 -4 13 -3 14 3 5 7
-9 17 -10 43 -1 31 11 105 4 177 -16 10 -3 -1 3 -24 14 -24 11 -59 23 -78 27
-19 3 -38 10 -41 15 -8 14 -24 11 -24 -5 0 -8 -7 -17 -16 -20 -22 -9 -24 -8
-18 8 5 14 -22 30 -36 21 -5 -3 -7 -12 -4 -19 3 -9 -3 -17 -17 -21 -12 -4 -48
-28 -80 -53 -33 -25 -61 -43 -63 -41 -2 2 -7 14 -10 27 -5 15 -3 22 6 22 20 0
142 98 150 121 4 10 28 31 53 47 26 15 60 35 77 45 44 26 29 31 -25 7 -46 -21
-86 -20 -114 3 -9 7 -13 5 -13 -6 0 -8 -12 -17 -26 -20 l-25 -4 25 26 c22 24
23 28 10 46 -17 22 -15 58 10 170 8 39 15 89 16 112 0 39 -3 43 -27 48 -47 10
-57 11 -75 7z m-24 -266 c-3 -9 -1 -16 5 -16 6 0 11 -5 11 -10 0 -13 -38 10
-44 27 -3 8 1 10 12 6 12 -4 11 0 -5 16 -13 12 -23 26 -23 32 0 5 11 -1 25
-15 15 -15 22 -31 19 -40z m61 -26 c3 -5 1 -10 -4 -10 -6 0 -11 5 -11 10 0 6
2 10 4 10 3 0 8 -4 11 -10z m70 -156 c-16 -6 -36 -9 -44 -6 -10 4 -3 10 20 17
43 15 64 6 24 -11z m-57 -23 c-14 -5 -31 15 -23 29 5 8 11 6 20 -7 9 -11 10
-19 3 -22z m-111 -173 c-3 -8 -6 -5 -6 6 -1 11 2 17 5 13 3 -3 4 -12 1 -19z
m50 -50 c-3 -8 -6 -5 -6 6 -1 11 2 17 5 13 3 -3 4 -12 1 -19z m43 -98 c0 -11
-2 -20 -4 -20 -2 0 -6 9 -9 20 -3 11 -1 20 4 20 5 0 9 -9 9 -20z m17 -82 c-3
-8 -6 -5 -6 6 -1 11 2 17 5 13 3 -3 4 -12 1 -19z m13 -39 c0 -6 -4 -7 -10 -4
-5 3 -10 11 -10 16 0 6 5 7 10 4 6 -3 10 -11 10 -16z m104 -72 c-6 -16 -44
-17 -44 -1 0 12 29 24 42 17 4 -2 5 -9 2 -16z m-102 -14 c-6 -2 -10 -9 -6 -14
3 -5 0 -9 -5 -9 -6 0 -11 7 -11 15 0 8 8 15 18 14 10 0 12 -3 4 -6z m-35 -45
c-3 -7 -5 -2 -5 12 0 14 2 19 5 13 2 -7 2 -19 0 -25z m83 13 c0 -5 -7 -11 -15
-15 -15 -5 -20 5 -8 17 9 10 23 9 23 -2z"/>
<path d="M14275 19249 c-4 -6 -5 -12 -2 -15 2 -3 7 2 10 11 7 17 1 20 -8 4z"/>
<path d="M14310 19225 c7 -9 15 -13 17 -11 7 7 -7 26 -19 26 -6 0 -6 -6 2 -15z"/>
<path d="M14432 19180 c0 -14 2 -19 5 -12 2 6 2 18 0 25 -3 6 -5 1 -5 -13z"/>
<path d="M14105 19169 c-45 -14 -69 -36 -71 -67 -1 -15 -2 -32 -3 -39 0 -6
-10 -10 -21 -8 -11 2 -18 0 -15 -5 3 -5 1 -11 -4 -15 -7 -4 -6 -15 1 -30 14
-32 59 -34 87 -3 23 24 18 42 -10 35 -11 -3 -19 -1 -19 4 0 21 134 31 199 15
29 -8 33 -7 29 10 -3 18 -12 24 -98 63 -47 22 -58 17 -61 -24 -1 -13 -4 -9 -8
10 -5 23 -3 32 11 37 10 4 18 12 18 18 0 5 -1 10 -2 9 -2 0 -16 -5 -33 -10z"/>
<path d="M14400 19130 c8 -5 20 -10 25 -10 6 0 3 5 -5 10 -8 5 -19 10 -25 10
-5 0 -3 -5 5 -10z"/>
<path d="M14745 19120 c3 -5 8 -10 11 -10 2 0 4 5 4 10 0 6 -5 10 -11 10 -5 0
-7 -4 -4 -10z"/>
<path d="M14445 19113 c6 -6 28 -20 50 -32 22 -13 31 -15 20 -6 -22 18 -86 53
-70 38z"/>
<path d="M14547 19049 c7 -7 15 -10 18 -7 3 3 -2 9 -12 12 -14 6 -15 5 -6 -5z"/>
<path d="M14375 18969 l7 -31 -31 16 c-47 25 -93 20 -155 -16 -31 -18 -56 -35
-56 -38 0 -4 28 -14 62 -24 111 -31 205 -92 321 -208 46 -47 57 -54 57 -37 0
11 5 17 10 14 6 -3 10 -19 10 -35 0 -16 4 -31 9 -35 18 -11 0 138 -21 172 -28
48 -104 106 -127 100 -11 -3 -21 -1 -23 5 -2 5 -12 10 -23 12 -17 2 -20 11
-21 57 -1 73 -2 79 -15 79 -7 0 -8 -11 -4 -31z m164 -272 c1 -5 -3 -5 -9 -2
-5 3 -10 16 -9 28 0 21 1 21 9 2 5 -11 9 -24 9 -28z"/>
<path d="M14118 18959 c-27 -17 -48 -35 -48 -40 0 -10 96 47 105 62 11 17 -10
9 -57 -22z"/>
<path d="M14520 18955 c0 -11 11 -15 43 -15 44 1 37 11 -15 24 -21 5 -28 3
-28 -9z"/>
<path d="M14506 18895 c-3 -8 11 -24 33 -38 45 -30 85 -95 103 -163 15 -61 28
-78 28 -37 0 32 -13 78 -35 128 -8 17 -20 45 -27 62 -10 25 -23 36 -55 47 -34
12 -42 12 -47 1z"/>
<path d="M14817 18703 c47 -83 32 -212 -29 -244 -13 -7 -40 -11 -62 -11 -38 2
-39 1 -20 -13 16 -11 30 -12 54 -5 90 26 127 156 75 268 -13 28 -28 52 -34 52
-5 0 2 -21 16 -47z"/>
<path d="M14385 18665 c39 -25 75 -45 80 -45 12 0 10 1 -68 53 -32 20 -63 37
-70 37 -6 0 20 -21 58 -45z"/>
<path d="M14150 18527 l-35 -10 46 -11 c41 -10 46 -13 39 -32 -4 -11 -24 -33
-45 -48 -20 -15 -35 -30 -33 -32 2 -2 40 11 84 28 66 26 93 31 171 32 50 1 89
3 87 5 -2 3 -21 11 -42 18 -182 67 -204 71 -272 50z"/>
<path d="M13820 18221 c-58 -23 -121 -55 -193 -99 -47 -28 -73 -37 -130 -43
l-72 -7 76 1 c69 2 81 6 130 38 60 40 148 83 224 110 27 10 41 17 30 17 -11 0
-40 -8 -65 -17z"/>
<path d="M13905 18103 c-90 -13 -203 -51 -305 -101 l-115 -57 -164 -4 c-91 -2
-176 -7 -188 -12 -53 -20 -17 -77 89 -139 40 -24 81 -50 91 -58 9 -8 25 -20
36 -26 10 -6 36 -21 57 -34 22 -12 62 -36 89 -52 28 -16 49 -34 48 -39 -2 -6
3 -8 11 -5 7 3 32 -5 54 -16 59 -31 255 -82 367 -96 22 -3 126 -16 230 -29
105 -13 224 -27 266 -30 41 -4 89 -8 105 -10 16 -2 81 -7 144 -10 63 -4 120
-8 126 -10 26 -8 170 16 208 34 58 28 80 69 78 148 -1 76 -31 137 -112 228
-176 197 -546 323 -945 323 -77 0 -153 -3 -170 -5z"/>
<path d="M15201 17744 c0 -11 3 -14 6 -6 3 7 2 16 -1 19 -3 4 -6 -2 -5 -13z"/>
<path d="M15205 17700 c-3 -5 -1 -10 4 -10 6 0 11 5 11 10 0 6 -2 10 -4 10 -3
0 -8 -4 -11 -10z"/>
<path d="M15200 17660 c0 -5 5 -10 10 -10 6 0 10 5 10 10 0 6 -4 10 -10 10 -5
0 -10 -4 -10 -10z"/>
<path d="M13411 17637 c2 -1 13 -9 24 -17 19 -14 19 -14 6 3 -7 9 -18 17 -24
17 -6 0 -8 -1 -6 -3z"/>
<path d="M18178 8485 c-3 -14 -1 -28 3 -31 5 -3 9 9 9 25 0 38 -6 40 -12 6z"/>
<path d="M2337 8459 c7 -7 15 -10 18 -7 3 3 -2 9 -12 12 -14 6 -15 5 -6 -5z"/>
<path d="M2240 8381 c0 -5 5 -13 10 -16 6 -3 10 -2 10 4 0 5 -4 13 -10 16 -5
3 -10 2 -10 -4z"/>
<path d="M2160 8339 c0 -5 5 -7 10 -4 6 3 10 8 10 11 0 2 -4 4 -10 4 -5 0 -10
-5 -10 -11z"/>
<path d="M2088 8323 c7 -3 16 -2 19 1 4 3 -2 6 -13 5 -11 0 -14 -3 -6 -6z"/>
<path d="M2157 8293 c3 -7 6 -13 8 -13 2 0 5 6 8 13 3 8 -1 14 -8 14 -7 0 -11
-6 -8 -14z"/>
<path d="M2208 8303 c15 -6 6 -23 -11 -19 -7 1 -9 1 -4 -1 13 -8 7 -25 -7 -20
-11 4 -13 1 -9 -10 5 -13 10 -11 29 12 23 29 23 46 1 44 -9 0 -8 -2 1 -6z"/>
<path d="M865 8221 c-3 -5 -1 -12 5 -16 5 -3 10 1 10 9 0 18 -6 21 -15 7z"/>
<path d="M882 8170 c0 -14 2 -19 5 -12 2 6 2 18 0 25 -3 6 -5 1 -5 -13z"/>
<path d="M2101 8164 c-7 -8 -11 -17 -9 -20 3 -2 13 5 23 16 10 11 14 20 9 20
-5 -1 -15 -8 -23 -16z"/>
<path d="M2031 7970 c-1 -19 -4 -51 -7 -70 -5 -34 -3 -37 63 -84 41 -29 58
-38 44 -22 -17 18 -20 26 -10 26 12 0 12 2 0 9 -11 7 -11 9 0 14 12 5 12 7 0
15 -7 5 -11 14 -7 20 3 6 -4 18 -16 26 -12 9 -18 16 -13 16 6 0 2 5 -7 11 -10
5 -18 17 -18 24 0 8 -4 15 -9 15 -5 0 -12 8 -14 18 -3 9 -5 1 -6 -18z"/>
<path d="M18503 7955 c0 -27 2 -38 4 -22 2 15 2 37 0 50 -2 12 -4 0 -4 -28z"/>
<path d="M2948 7713 c6 -2 18 -2 25 0 6 3 1 5 -13 5 -14 0 -19 -2 -12 -5z"/>
<path d="M17523 7713 c9 -2 25 -2 35 0 9 3 1 5 -18 5 -19 0 -27 -2 -17 -5z"/>
<path d="M1181 7423 c7 -12 15 -20 18 -17 3 2 -3 12 -13 22 -17 16 -18 16 -5
-5z"/>
<path d="M1186 7378 c3 -4 9 -8 15 -8 5 0 9 4 9 8 0 5 -7 9 -15 9 -8 0 -12 -4
-9 -9z"/>
<path d="M1221 7349 c-1 -8 20 -35 47 -60 82 -77 99 -86 34 -18 -34 36 -59 69
-55 74 4 4 3 5 -4 2 -6 -4 -14 -1 -16 5 -4 9 -6 8 -6 -3z"/>
<path d="M18052 6883 c2 -13 -2 -17 -17 -15 -18 2 -17 0 5 -18 23 -18 110 -52
118 -45 4 4 -74 76 -95 88 -10 7 -13 4 -11 -10z"/>
<path d="M1920 6826 c0 -2 7 -9 15 -16 9 -7 15 -8 15 -2 0 5 -7 12 -15 16 -8
3 -15 4 -15 2z"/>
<path d="M1970 6800 c-9 -6 -10 -10 -3 -10 6 0 15 5 18 10 8 12 4 12 -15 0z"/>
<path d="M2035 6776 c22 -7 42 -12 44 -10 9 8 -8 15 -45 19 l-39 5 40 -14z"/>
<path d="M2090 6771 c0 -11 51 -21 99 -20 36 1 36 1 -9 10 -25 5 -55 11 -67
14 -13 3 -23 1 -23 -4z"/>
<path d="M18279 6761 c48 -14 155 -11 184 5 9 6 -32 9 -108 9 -120 0 -122 0
-76 -14z"/>
<path d="M11110 4950 c0 -5 5 -10 11 -10 5 0 7 5 4 10 -3 6 -8 10 -11 10 -2 0
-4 -4 -4 -10z"/>
<path d="M10348 4786 c-15 -8 -29 -12 -32 -9 -6 7 -13 -26 -20 -94 -3 -31 -1
-53 4 -53 9 0 16 57 11 84 -3 18 11 46 21 40 6 -4 5 -9 -3 -15 -7 -4 -10 -11
-7 -14 10 -10 28 4 28 22 0 9 7 25 17 35 19 22 16 22 -19 4z"/>
<path d="M10291 4594 c0 -11 3 -14 6 -6 3 7 2 16 -1 19 -3 4 -6 -2 -5 -13z"/>
<path d="M5332 3440 c0 -19 2 -27 5 -17 2 9 2 25 0 35 -3 9 -5 1 -5 -18z"/>
<path d="M15192 3450 c0 -14 2 -19 5 -12 2 6 2 18 0 25 -3 6 -5 1 -5 -13z"/>
<path d="M9460 1370 c20 -13 33 -13 25 0 -3 6 -14 10 -23 10 -15 0 -15 -2 -2
-10z"/>
<path d="M11048 1373 c-10 -2 -18 -9 -18 -14 0 -6 7 -6 18 -1 9 5 24 12 32 15
13 5 13 5 0 5 -8 0 -23 -2 -32 -5z"/>
<path d="M10130 1360 c0 -5 5 -10 11 -10 5 0 7 5 4 10 -3 6 -8 10 -11 10 -2 0
-4 -4 -4 -10z"/>
<path d="M10113 1292 c-6 -4 -11 -26 -11 -50 -1 -24 -4 -58 -8 -75 -3 -18 -4
-29 0 -26 6 6 38 150 33 155 -1 2 -8 0 -14 -4z"/>
<path d="M10413 1273 c0 -17 2 -21 8 -12 7 11 16 11 54 -3 25 -9 45 -15 45
-13 0 4 -16 12 -91 46 -13 6 -16 2 -16 -18z"/>
<path d="M10421 1224 c0 -11 3 -14 6 -6 3 7 2 16 -1 19 -3 4 -6 -2 -5 -13z"/>
<path d="M10710 1180 c8 -5 20 -10 25 -10 6 0 3 5 -5 10 -8 5 -19 10 -25 10
-5 0 -3 -5 5 -10z"/>
<path d="M10778 1163 c7 -3 16 -2 19 1 4 3 -2 6 -13 5 -11 0 -14 -3 -6 -6z"/>
<path d="M13518 1133 c7 -3 16 -2 19 1 4 3 -2 6 -13 5 -11 0 -14 -3 -6 -6z"/>
<path d="M6890 1100 c-8 -5 -10 -10 -5 -10 6 0 17 5 25 10 8 5 11 10 5 10 -5
0 -17 -5 -25 -10z"/>
<path d="M13620 1100 c8 -5 20 -10 25 -10 6 0 3 5 -5 10 -8 5 -19 10 -25 10
-5 0 -3 -5 5 -10z"/>
<path d="M10460 1085 c0 -5 6 -21 13 -35 7 -14 23 -53 36 -88 13 -34 26 -61
28 -58 3 3 -7 35 -22 73 -31 77 -54 123 -55 108z"/>
<path d="M13700 1046 c0 -3 11 -22 25 -42 26 -38 34 -39 13 -1 -12 23 -38 52
-38 43z"/>
<path d="M10551 880 c0 -8 3 -21 8 -28 6 -10 11 -9 22 4 12 16 12 17 -3 11
-11 -4 -18 0 -21 11 -4 13 -5 13 -6 2z"/>
<path d="M13760 858 c0 -12 12 -19 48 -24 26 -3 71 -12 100 -20 29 -7 92 -15
140 -18 93 -5 76 -1 -88 24 -163 25 -183 29 -191 42 -7 10 -9 9 -9 -4z"/>
<path d="M6730 848 c-25 -5 -73 -16 -107 -24 -34 -8 -81 -14 -105 -15 -66 0
-127 -14 -106 -23 22 -10 178 10 236 30 23 8 55 14 70 14 16 0 37 7 48 15 10
8 17 14 14 13 -3 0 -25 -5 -50 -10z"/>
<path d="M10582 838 c-9 -9 -2 -29 30 -87 93 -173 181 -288 327 -430 60 -58
78 -81 61 -76 -22 7 -23 6 -12 -7 10 -13 10 -17 -2 -21 -9 -4 -12 -14 -9 -27
6 -22 57 -70 75 -70 6 0 19 -6 27 -13 19 -16 166 -50 306 -71 189 -29 499 -38
1115 -33 480 3 616 7 706 21 117 17 248 55 244 70 -1 5 6 13 15 18 13 8 14 13
4 24 -14 17 6 43 60 76 42 26 66 48 53 48 -5 0 -15 -7 -22 -15 -7 -8 -30 -20
-51 -27 -22 -6 -39 -15 -39 -20 0 -5 -4 -7 -8 -4 -5 3 -24 1 -43 -4 -96 -26
-168 -40 -183 -34 -9 3 -16 2 -16 -4 0 -10 -30 -23 -62 -27 -10 -1 -25 -8 -33
-15 -9 -7 -18 -10 -22 -6 -3 3 -1 6 5 6 7 0 12 5 12 10 0 17 -29 11 -50 -10
-18 -18 -32 -20 -90 -18 -38 1 -67 6 -64 10 3 4 1 8 -5 8 -5 0 -13 -5 -17 -11
-4 -8 -9 -7 -15 2 -7 11 -9 10 -9 -3 0 -9 6 -19 13 -21 8 -4 7 -6 -4 -6 -8 -1
-20 4 -26 10 -14 14 -76 15 -81 1 -5 -17 -22 -15 -22 3 0 18 -16 20 -23 3 -4
-10 -6 -10 -6 0 -1 14 -51 17 -51 2 0 -5 -4 -10 -10 -10 -5 0 -10 6 -10 13 0
13 -37 17 -56 5 -12 -8 -34 -6 -52 6 -7 4 -19 3 -26 -3 -8 -7 -23 -7 -44 -2
-17 5 -48 8 -69 6 -21 -1 -42 0 -48 4 -5 3 -36 6 -68 7 -31 0 -60 4 -63 7 -4
4 -18 4 -30 1 -13 -4 -24 -2 -24 2 0 8 -15 11 -98 14 -17 1 -34 6 -37 11 -3 4
-19 6 -35 2 -17 -3 -36 -1 -43 6 -12 9 -81 21 -129 22 -10 0 -20 4 -23 9 -3 4
-14 6 -26 3 -12 -4 -25 0 -29 8 -5 7 -17 14 -27 15 -10 0 -38 2 -63 3 -37 2
-41 4 -25 12 15 7 8 8 -27 5 -27 -2 -48 0 -48 5 0 5 -11 9 -24 9 -14 0 -28 5
-31 11 -4 6 -26 9 -49 7 -32 -2 -41 0 -39 12 2 12 -10 16 -55 18 -31 1 -66 4
-77 6 -11 3 -32 5 -47 5 -23 1 -28 6 -28 26 0 14 -4 25 -10 25 -6 0 -9 -5 -8
-11 2 -6 -3 -14 -9 -16 -7 -3 -13 0 -13 6 0 6 -9 11 -20 11 -11 0 -20 5 -20
11 0 5 -4 8 -9 5 -5 -3 -14 0 -20 8 -6 7 -23 11 -39 9 -15 -3 -22 -1 -16 4 7
5 6 16 -3 33 l-13 25 0 -27 c0 -16 -4 -28 -10 -28 -5 0 -10 10 -10 23 0 17 -2
19 -10 7 -8 -12 -10 -12 -16 3 -4 12 -13 16 -26 11 -13 -4 -19 -1 -17 8 4 32
-1 41 -16 28 -8 -6 -19 -9 -26 -5 -8 6 -7 10 2 16 11 7 9 10 -8 15 -13 4 -23
13 -23 21 0 10 -7 14 -20 10 -16 -4 -20 0 -20 21 0 20 -3 23 -12 14 -18 -18
-30 -14 -23 7 4 15 0 20 -17 23 -13 2 -23 10 -24 18 -2 34 -5 40 -15 40 -6 0
-9 -6 -6 -14 4 -10 0 -14 -13 -13 -15 1 -17 8 -15 37 3 31 2 33 -10 17 -8 -12
-15 -14 -20 -8 -3 6 -2 11 4 11 5 0 5 12 -2 30 -9 23 -16 29 -30 24 -16 -5
-18 -2 -12 16 5 16 4 20 -4 15 -8 -5 -10 1 -5 19 4 16 2 26 -5 26 -6 0 -11 -6
-11 -12 0 -9 -4 -8 -10 2 -5 8 -7 23 -4 33 6 20 3 22 -14 5z m485 -484 c-3 -3
-12 -4 -19 -1 -8 3 -5 6 6 6 11 1 17 -2 13 -5z"/>
<path d="M6520 631 c0 -38 272 -285 418 -380 169 -110 188 -124 174 -129 -16
-5 -15 -22 2 -22 8 0 16 -7 20 -15 3 -8 14 -15 25 -15 11 0 22 -4 25 -9 6 -10
146 -35 276 -51 133 -16 1252 -12 1440 5 285 25 540 94 513 138 -4 6 0 8 8 5
10 -4 15 1 15 12 0 11 -5 16 -15 12 -26 -10 -3 14 48 48 60 41 68 60 14 32
-40 -21 -117 -46 -143 -47 -8 0 -21 -4 -28 -8 -7 -5 -38 -13 -70 -17 -99 -16
-197 -40 -200 -49 -2 -6 -9 -8 -15 -5 -7 2 -35 -2 -62 -10 -35 -11 -51 -12
-56 -4 -4 6 -10 4 -17 -8 -8 -15 -14 -16 -34 -7 -39 18 -101 -2 -69 -21 5 -4
11 -2 13 4 2 6 14 6 33 1 l30 -9 -33 -1 c-18 -1 -31 -4 -29 -9 3 -4 -8 -7 -24
-8 -15 -1 -26 3 -23 7 3 5 -4 9 -15 9 -12 0 -21 4 -21 9 0 5 -18 7 -40 4 -29
-4 -40 -2 -40 7 0 9 -6 8 -19 -4 -11 -10 -25 -15 -31 -11 -6 4 -18 1 -26 -6
-13 -10 -17 -10 -24 0 -4 8 -10 9 -14 3 -3 -6 -56 -9 -130 -8 -68 0 -122 -2
-119 -6 2 -5 0 -8 -6 -8 -5 0 -12 4 -15 9 -3 5 -26 7 -52 5 -38 -2 -45 0 -40
13 6 13 3 13 -20 -1 -16 -11 -32 -15 -42 -10 -9 4 -22 8 -28 9 -6 0 -19 7 -28
14 -13 11 -16 11 -14 1 2 -7 -3 -15 -9 -17 -7 -3 -13 1 -13 9 0 9 -15 13 -45
14 -24 0 -51 7 -60 14 -11 9 -19 10 -26 3 -7 -7 -27 -7 -56 -2 -25 5 -49 7
-53 4 -5 -3 -11 -1 -14 4 -3 5 -22 12 -41 15 -19 4 -35 12 -35 19 0 7 -4 6
-10 -3 -7 -11 -12 -12 -17 -4 -5 7 -20 11 -35 9 -15 -2 -32 3 -39 11 -6 8 -24
14 -39 14 -37 0 -91 20 -84 31 7 12 -3 11 -26 -1 -14 -8 -22 -6 -32 7 -7 10
-22 20 -33 21 -11 2 -21 8 -23 13 -5 13 -80 11 -84 -3 -3 -7 -10 -8 -17 -4
-11 7 -11 10 0 17 10 6 5 9 -15 9 -20 0 -27 4 -23 14 4 10 1 13 -9 9 -17 -6
-18 -15 -2 -31 9 -9 7 -12 -10 -12 -13 0 -22 6 -22 15 0 18 -16 20 -26 4 -5
-8 -10 -6 -16 5 -5 9 -19 16 -31 16 -43 0 -68 11 -57 25 6 7 7 15 3 18 -14 9
-78 11 -91 3 -15 -9 -15 -1 -1 26 9 17 8 19 -9 14 -33 -11 -112 33 -112 62 0
15 -43 25 -71 17 -14 -5 -19 -3 -15 3 3 6 2 13 -4 17 -5 3 -10 1 -10 -6 0 -7
-3 -9 -6 -6 -4 4 -1 13 6 22 10 12 10 15 -4 15 -20 0 -56 20 -74 40 -11 13
-12 11 -6 -10 6 -22 5 -23 -9 -11 -9 7 -14 18 -10 24 4 6 0 8 -9 4 -11 -4 -18
1 -21 15 -3 11 -10 17 -16 13 -6 -3 -11 -2 -11 3 0 5 -9 19 -20 32 -11 13 -20
17 -20 11z m801 -398 c12 -15 12 -16 -5 -10 -12 5 -22 3 -27 -5 -5 -8 -8 -5
-6 10 2 26 19 29 38 5z m249 -63 c0 -5 -5 -10 -11 -10 -5 0 -7 5 -4 10 3 6 8
10 11 10 2 0 4 -4 4 -10z m1090 -94 c0 -2 -7 -6 -15 -10 -8 -3 -15 -1 -15 4 0
6 7 10 15 10 8 0 15 -2 15 -4z"/>
<path d="M6750 489 c0 -5 5 -7 10 -4 6 3 10 8 10 11 0 2 -4 4 -10 4 -5 0 -10
-5 -10 -11z"/>
<path d="M11230 330 c0 -5 5 -10 10 -10 6 0 10 5 10 10 0 6 -4 10 -10 10 -5 0
-10 -4 -10 -10z"/>
<path d="M7065 320 c-3 -5 1 -10 10 -10 9 0 13 5 10 10 -3 6 -8 10 -10 10 -2
0 -7 -4 -10 -10z"/>
<path d="M9539 293 c-13 -16 -12 -17 4 -4 16 13 21 21 13 21 -2 0 -10 -8 -17
-17z"/>
<path d="M13605 270 c-3 -6 1 -7 9 -4 18 7 21 14 7 14 -6 0 -13 -4 -16 -10z"/>
<path d="M7415 240 c-3 -5 -1 -10 4 -10 6 0 11 5 11 10 0 6 -2 10 -4 10 -3 0
-8 -4 -11 -10z"/>
<path d="M11860 190 c0 -5 5 -10 11 -10 5 0 7 5 4 10 -3 6 -8 10 -11 10 -2 0
-4 -4 -4 -10z"/>
<path d="M7720 160 c0 -5 5 -10 10 -10 6 0 10 5 10 10 0 6 -4 10 -10 10 -5 0
-10 -4 -10 -10z"/>
<path d="M12960 110 c0 -5 5 -10 11 -10 5 0 7 5 4 10 -3 6 -8 10 -11 10 -2 0
-4 -4 -4 -10z"/>
<path d="M13000 110 c0 -5 7 -10 16 -10 8 0 12 5 9 10 -3 6 -10 10 -16 10 -5
0 -9 -4 -9 -10z"/>
</g>
</svg>
