<?xml version="1.0" standalone="no"?>
<!DOCTYPE svg PUBLIC "-//W3C//DTD SVG 20010904//EN"
 "http://www.w3.org/TR/2001/REC-SVG-20010904/DTD/svg10.dtd">
<svg version="1.0" xmlns="http://www.w3.org/2000/svg"
 width="298.000000pt" height="294.000000pt" viewBox="0 0 298.000000 294.000000"
 preserveAspectRatio="xMidYMid meet">
<metadata>
Created by potrace 1.11, written by Peter Selinger 2001-2013
</metadata>
<g transform="translate(0.000000,294.000000) scale(0.100000,-0.100000)"
fill="#000000" stroke="none">
<path d="M0 1470 l0 -1470 1490 0 1490 0 0 1470 0 1470 -1490 0 -1490 0 0
-1470z m1492 1333 c63 -67 146 -232 294 -585 46 -112 91 -208 100 -214 8 -7
54 -15 102 -18 472 -37 787 -112 866 -207 33 -39 33 -65 -2 -120 -62 -96 -231
-212 -526 -359 -109 -55 -204 -105 -212 -111 -23 -19 -17 -48 42 -194 177
-441 261 -788 208 -864 -14 -20 -22 -22 -56 -17 -108 17 -303 150 -684 467
-163 135 -177 144 -203 130 -10 -6 -62 -59 -114 -118 -135 -154 -361 -371
-443 -425 -39 -26 -92 -53 -118 -60 -46 -12 -49 -12 -66 10 -66 81 -26 377
122 918 18 67 20 86 11 107 -16 34 -132 126 -268 211 -402 252 -484 327 -429
387 70 78 378 156 809 205 33 3 67 10 77 15 9 5 46 84 84 181 101 261 161 402
217 516 51 103 111 182 138 182 8 0 31 -17 51 -37z"/>
</g>
</svg>
