<?xml version="1.0" encoding="UTF-8"?>
<!DOCTYPE svg PUBLIC "-//W3C//DTD SVG 1.1//EN"
    "http://www.w3.org/Graphics/SVG/1.1/DTD/svg11.dtd">
<svg xmlns="http://www.w3.org/2000/svg" xmlns:xlink="http://www.w3.org/1999/xlink" version="1.1" width="5341.045123833606" height="4691.205667176864" font-size="1" viewBox="0 0 5341 4691"><g><g transform="matrix(1.0,0.0,0.0,1.0,23.622047244094574,23.622047244094574)"><g stroke="rgb(0,0,0)" stroke-opacity="1.0" fill="rgb(255,255,255)" fill-opacity="1.0" stroke-width="2.362204724409449" font-size="1.0em"><path d="M 5341.045123833607,4691.205667176864 l -1.185950254408398e-12,-9382.411334353728 h -10682.090247667213 l -1.185950254408398e-12,9382.411334353728 Z" /></g></g><g transform="matrix(1.0,0.0,0.0,1.0,23.622047244094574,23.622047244094574)"><g stroke="rgb(0,0,0)" stroke-opacity="1.0" fill="rgb(0,0,0)" fill-opacity="0.0" stroke-width="2.362204724409449" font-size="1.0em"></g></g><g transform="matrix(1.0,0.0,0.0,1.0,23.622047244094574,23.622047244094574)"><g stroke="rgb(0,0,0)" stroke-opacity="1.0" fill="rgb(0,0,0)" fill-opacity="0.0" stroke-width="2.362204724409449" font-size="1.0em"></g></g><g transform="matrix(1.0,0.0,0.0,1.0,23.622047244094574,23.622047244094574)"><g stroke="rgb(0,0,0)" stroke-opacity="1.0" fill="rgb(128,255,0)" fill-opacity="0.25" stroke-width="2.362204724409449" font-size="1.0em"></g></g><g transform="matrix(1.0,0.0,0.0,1.0,23.622047244094574,23.622047244094574)"><g stroke="rgb(0,0,0)" stroke-opacity="1.0" fill="rgb(128,255,0)" fill-opacity="0.25" stroke-width="2.362204724409449" font-size="1.0em"></g></g><g transform="matrix(1.0,0.0,0.0,1.0,23.622047244094574,23.622047244094574)"><g stroke="rgb(0,0,0)" stroke-opacity="1.0" fill="rgb(128,255,0)" fill-opacity="0.25" stroke-width="2.362204724409449" font-size="1.0em"><path d="M 323.00503157226285,4573.095430956391 h 4647.7909662008915 v -144.63625790176621 h -4647.7909662008915 v 144.63625790176621 Z" /></g></g><g transform="matrix(1.0,0.0,0.0,1.0,23.622047244094574,23.622047244094574)"><g stroke="rgb(0,0,0)" stroke-opacity="1.0" fill="rgb(128,255,0)" fill-opacity="0.25" stroke-width="2.362204724409449" font-size="1.0em"></g></g><g transform="matrix(1.0,0.0,0.0,1.0,23.622047244094574,23.622047244094574)"><g stroke="rgb(0,0,0)" stroke-opacity="1.0" fill="rgb(128,255,0)" fill-opacity="0.25" stroke-width="2.362204724409449" font-size="1.0em"></g></g><g transform="matrix(1.0,0.0,0.0,1.0,23.622047244094574,23.622047244094574)"><g stroke="rgb(0,0,0)" stroke-opacity="1.0" fill="rgb(128,255,0)" fill-opacity="0.25" stroke-width="2.362204724409449" font-size="1.0em"></g></g><g transform="matrix(1.0,0.0,0.0,1.0,23.622047244094574,23.622047244094574)"><g stroke="rgb(0,0,0)" stroke-opacity="1.0" fill="rgb(128,255,0)" fill-opacity="0.25" stroke-width="2.362204724409449" font-size="1.0em"></g></g><g transform="matrix(1.0,0.0,0.0,1.0,23.622047244094574,23.622047244094574)"><g stroke="rgb(0,0,0)" stroke-opacity="1.0" fill="rgb(128,255,0)" fill-opacity="0.25" stroke-width="2.362204724409449" font-size="1.0em"><path d="M 2412.2864755066744,4260.1377132783855 h 1710.598173325602 v -141.5827241074518 h -1710.598173325602 v 141.5827241074518 Z" /></g></g><g transform="matrix(1.0,0.0,0.0,1.0,23.622047244094574,23.622047244094574)"><g stroke="rgb(0,0,0)" stroke-opacity="1.0" fill="rgb(128,255,0)" fill-opacity="0.25" stroke-width="2.362204724409449" font-size="1.0em"></g></g><g transform="matrix(1.0,0.0,0.0,1.0,23.622047244094574,23.622047244094574)"><g stroke="rgb(0,0,0)" stroke-opacity="1.0" fill="rgb(128,255,0)" fill-opacity="0.25" stroke-width="2.362204724409449" font-size="1.0em"></g></g><g transform="matrix(1.0,0.0,0.0,1.0,23.622047244094574,23.622047244094574)"><g stroke="rgb(0,0,0)" stroke-opacity="1.0" fill="rgb(0,255,255)" fill-opacity="0.25" stroke-width="2.362204724409449" font-size="1.0em"></g></g><g transform="matrix(1.0,0.0,0.0,1.0,23.622047244094574,23.622047244094574)"><g stroke="rgb(0,0,0)" stroke-opacity="1.0" fill="rgb(0,255,255)" fill-opacity="0.25" stroke-width="2.362204724409449" font-size="1.0em"></g></g><g transform="matrix(1.0,0.0,0.0,1.0,23.622047244094574,23.622047244094574)"><g stroke="rgb(0,0,0)" stroke-opacity="1.0" fill="rgb(0,255,255)" fill-opacity="0.25" stroke-width="2.362204724409449" font-size="1.0em"><path d="M 4066.757061910288,2746.459660193072 l -101.22049666902168,94.09684230646408 l -60.57987807415617,124.21708034924717 l -11.823094775517802,137.69538520916421 l 38.51768287168909,132.72600643493723 l 83.69806950900224,109.97471454128535 l 117.66504107982493,72.48960467304335 l 135.86788628329055,25.29272928890464 l 135.86788628329055,-25.29272928890464 l 117.66504107982493,-72.48960467304335 l 83.69806950900224,-109.97471454128535 l 38.51768287168909,-132.72600643493723 l -11.823094775517802,-137.69538520916421 l -60.57987807415617,-124.21708034924717 l -101.22049666902168,-94.09684230646408 l 77.42735561577203,-122.16649173228723 l 139.994657410618,130.14217115717798 l 83.78598758213815,171.8004572226344 l 16.3521238988194,190.44184640203997 l -53.27250898111072,183.56886610718607 l -115.75997898090645,152.10232109787336 l -162.7385525388135,100.2579290360236 l -187.91429423162805,34.98152141416409 l -187.91429423162805,-34.98152141416409 l -162.7385525388135,-100.2579290360236 l -115.75997898090645,-152.10232109787336 l -53.27250898111072,-183.56886610718607 l 16.3521238988194,-190.44184640203997 l 83.78598758213815,-171.8004572226344 l 139.994657410618,-130.14217115717798 Z" /></g></g><g transform="matrix(1.0,0.0,0.0,1.0,23.622047244094574,23.622047244094574)"><g stroke="rgb(0,0,0)" stroke-opacity="1.0" fill="rgb(0,255,255)" fill-opacity="0.25" stroke-width="2.362204724409449" font-size="1.0em"><path d="M 3833.0993468774354,2377.789658683537 l -218.23187758401684,202.87324452095368 l -130.61050845426269,267.81262258829963 l -25.490649192839328,296.8719126829476 l 83.04430950146696,286.15790814815625 l 180.45344036231427,237.10601341532595 l 253.6863944149116,156.28793627489597 l 292.9318162103896,54.53124597867338 l 292.9318162103896,-54.53124597867338 l 253.6863944149116,-156.28793627489597 l 180.45344036231427,-237.10601341532595 l 83.04430950146696,-286.15790814815625 l -25.490649192839328,-296.8719126829476 l -130.61050845426269,-267.81262258829963 l -218.23187758401684,-202.87324452095368 l 77.42735561577206,-122.16649173228711 l 257.0060383256131,238.91857337166755 l 153.81661796224466,315.3959994616869 l 30.019678316140926,349.6183738758233 l -97.79913561088858,337.00076782040503 l -212.51534983421857,279.2336199719139 l -298.7599058739001,184.05626063787622 l -344.9782241587271,64.22003810393278 l -344.9782241587271,-64.22003810393278 l -298.7599058739001,-184.05626063787622 l -212.51534983421857,-279.2336199719139 l -97.79913561088858,-337.00076782040503 l 30.019678316140926,-349.6183738758233 l 153.81661796224466,-315.3959994616869 l 257.0060383256131,-238.91857337166755 Z" /></g></g><g transform="matrix(1.0,0.0,0.0,1.0,23.622047244094574,23.622047244094574)"><g stroke="rgb(0,0,0)" stroke-opacity="1.0" fill="rgb(0,255,255)" fill-opacity="0.25" stroke-width="2.362204724409449" font-size="1.0em"></g></g><g transform="matrix(1.0,0.0,0.0,1.0,23.622047244094574,23.622047244094574)"><g stroke="rgb(0,0,0)" stroke-opacity="1.0" fill="rgb(0,255,255)" fill-opacity="0.25" stroke-width="2.362204724409449" font-size="1.0em"></g></g><g transform="matrix(1.0,0.0,0.0,1.0,23.622047244094574,23.622047244094574)"><g stroke="rgb(0,0,0)" stroke-opacity="1.0" fill="rgb(0,255,255)" fill-opacity="0.25" stroke-width="2.362204724409449" font-size="1.0em"></g></g><g transform="matrix(1.0,0.0,0.0,1.0,23.622047244094574,23.622047244094574)"><g stroke="rgb(0,0,0)" stroke-opacity="1.0" fill="rgb(0,255,255)" fill-opacity="0.25" stroke-width="2.362204724409449" font-size="1.0em"></g></g><g transform="matrix(1.0,0.0,0.0,1.0,23.622047244094574,23.622047244094574)"><g stroke="rgb(0,0,0)" stroke-opacity="1.0" fill="rgb(0,255,255)" fill-opacity="0.25" stroke-width="2.362204724409449" font-size="1.0em"><path d="M 2064.1636419784413,2746.459660193072 l -101.22049666902168,94.09684230646408 l -60.57987807415617,124.21708034924717 l -11.823094775517802,137.69538520916421 l 38.51768287168909,132.72600643493723 l 83.69806950900224,109.97471454128535 l 117.66504107982493,72.48960467304335 l 135.86788628329055,25.29272928890464 l 135.86788628329055,-25.29272928890464 l 117.66504107982493,-72.48960467304335 l 83.69806950900224,-109.97471454128535 l 38.51768287168909,-132.72600643493723 l -11.823094775517802,-137.69538520916421 l -60.57987807415617,-124.21708034924717 l -101.22049666902168,-94.09684230646408 l 77.42735561577203,-122.16649173228723 l 139.994657410618,130.14217115717798 l 83.78598758213815,171.8004572226344 l 16.3521238988194,190.44184640203997 l -53.27250898111072,183.56886610718607 l -115.75997898090645,152.10232109787336 l -162.7385525388135,100.2579290360236 l -187.91429423162805,34.98152141416409 l -187.91429423162805,-34.98152141416409 l -162.7385525388135,-100.2579290360236 l -115.75997898090645,-152.10232109787336 l -53.27250898111072,-183.56886610718607 l 16.3521238988194,-190.44184640203997 l 83.78598758213815,-171.8004572226344 l 139.994657410618,-130.14217115717798 Z" /></g></g><g transform="matrix(1.0,0.0,0.0,1.0,23.622047244094574,23.622047244094574)"><g stroke="rgb(0,0,0)" stroke-opacity="1.0" fill="rgb(0,255,255)" fill-opacity="0.25" stroke-width="2.362204724409449" font-size="1.0em"><path d="M 1830.5059269455887,2377.789658683537 l -218.23187758401684,202.87324452095368 l -130.61050845426269,267.81262258829963 l -25.490649192839328,296.8719126829476 l 83.04430950146696,286.15790814815625 l 180.45344036231427,237.10601341532595 l 253.6863944149116,156.28793627489597 l 292.9318162103896,54.53124597867338 l 292.9318162103896,-54.53124597867338 l 253.6863944149116,-156.28793627489597 l 180.45344036231427,-237.10601341532595 l 83.04430950146696,-286.15790814815625 l -25.490649192839328,-296.8719126829476 l -130.61050845426269,-267.81262258829963 l -218.23187758401684,-202.87324452095368 l 77.42735561577206,-122.16649173228711 l 257.0060383256131,238.91857337166755 l 153.81661796224466,315.3959994616869 l 30.019678316140926,349.6183738758233 l -97.79913561088858,337.00076782040503 l -212.51534983421857,279.2336199719139 l -298.7599058739001,184.05626063787622 l -344.9782241587271,64.22003810393278 l -344.9782241587271,-64.22003810393278 l -298.7599058739001,-184.05626063787622 l -212.51534983421857,-279.2336199719139 l -97.79913561088858,-337.00076782040503 l 30.019678316140926,-349.6183738758233 l 153.81661796224466,-315.3959994616869 l 257.0060383256131,-238.91857337166755 Z" /></g></g><g transform="matrix(1.0,0.0,0.0,1.0,23.622047244094574,23.622047244094574)"><g stroke="rgb(0,0,0)" stroke-opacity="1.0" fill="rgb(0,255,255)" fill-opacity="0.25" stroke-width="2.362204724409449" font-size="1.0em"></g></g><g transform="matrix(1.0,0.0,0.0,1.0,23.622047244094574,23.622047244094574)"><g stroke="rgb(0,0,0)" stroke-opacity="1.0" fill="rgb(0,255,255)" fill-opacity="0.25" stroke-width="2.362204724409449" font-size="1.0em"></g></g><g transform="matrix(1.0,0.0,0.0,1.0,23.622047244094574,23.622047244094574)"><g stroke="rgb(0,0,0)" stroke-opacity="1.0" fill="rgb(128,255,0)" fill-opacity="0.25" stroke-width="2.362204724409449" font-size="1.0em"></g></g><g transform="matrix(1.0,0.0,0.0,1.0,23.622047244094574,23.622047244094574)"><g stroke="rgb(0,0,0)" stroke-opacity="1.0" fill="rgb(128,255,0)" fill-opacity="0.25" stroke-width="2.362204724409449" font-size="1.0em"></g></g><g transform="matrix(1.0,0.0,0.0,1.0,23.622047244094574,23.622047244094574)"><g stroke="rgb(0,0,0)" stroke-opacity="1.0" fill="rgb(128,255,0)" fill-opacity="0.25" stroke-width="2.362204724409449" fill-rule="evenodd" font-size="1.0em"></g></g><g transform="matrix(1.0,0.0,0.0,1.0,23.622047244094574,23.622047244094574)"><g stroke="rgb(0,0,0)" stroke-opacity="1.0" fill="rgb(128,255,0)" fill-opacity="0.25" stroke-width="2.362204724409449" fill-rule="evenodd" font-size="1.0em"></g></g><g transform="matrix(1.0,0.0,0.0,1.0,23.622047244094574,23.622047244094574)"><g stroke="rgb(0,0,0)" stroke-opacity="1.0" fill="rgb(128,255,0)" fill-opacity="0.25" stroke-width="2.362204724409449" fill-rule="evenodd" font-size="1.0em"><path d="M 1030.796056336128,3656.9706259266745 l -103.55940514299482,-179.37015130927676 l -179.37015130927665,-103.55940514299482 l -207.1188102859896,-5.684341886080802e-14 l -179.3701513092767,103.5594051429947 l -103.55940514299493,179.37015130927665 l -1.7053025658242404e-13,207.1188102859896 l 103.55940514299465,179.37015130927682 l 179.37015130927674,103.55940514299505 l 207.11881028598978,1.1368683772161603e-13 l 179.37015130927688,-103.55940514299482 l 103.55940514299488,-179.37015130927682 ZM 1170.5039532612504,3619.5360077693376 l -140.9940233003319,-244.20881191972495 l -244.2088119197249,-140.99402330033195 l -281.9880466006637,-1.1368683772161603e-13 l -244.20881191972495,140.99402330033183 l -140.994023300332,244.20881191972478 l -2.2737367544323206e-13,281.9880466006637 l 140.9940233003316,244.20881191972506 l 244.20881191972498,140.99402330033217 l 281.988046600664,2.2737367544323206e-13 l 244.20881191972512,-140.99402330033195 l 140.994023300332,-244.2088119197251 Z" /></g></g><g transform="matrix(1.0,0.0,0.0,1.0,23.622047244094574,23.622047244094574)"><g stroke="rgb(0,0,0)" stroke-opacity="1.0" fill="rgb(128,255,0)" fill-opacity="0.25" stroke-width="2.362204724409449" fill-rule="evenodd" font-size="1.0em"></g></g><g transform="matrix(1.0,0.0,0.0,1.0,23.622047244094574,23.622047244094574)"><g stroke="rgb(0,0,0)" stroke-opacity="1.0" fill="rgb(128,255,0)" fill-opacity="0.25" stroke-width="2.362204724409449" fill-rule="evenodd" font-size="1.0em"></g></g><g transform="matrix(1.0,0.0,0.0,1.0,23.622047244094574,23.622047244094574)"><g stroke="rgb(0,0,0)" stroke-opacity="1.0" fill="rgb(128,255,0)" fill-opacity="0.25" stroke-width="2.362204724409449" font-size="1.0em"></g></g><g transform="matrix(1.0,0.0,0.0,1.0,23.622047244094574,23.622047244094574)"><g stroke="rgb(0,0,0)" stroke-opacity="1.0" fill="rgb(128,255,0)" fill-opacity="0.25" stroke-width="2.362204724409449" font-size="1.0em"></g></g><g transform="matrix(1.0,0.0,0.0,1.0,23.622047244094574,23.622047244094574)"><g stroke="rgb(0,0,0)" stroke-opacity="1.0" fill="rgb(128,255,0)" fill-opacity="0.25" stroke-width="2.362204724409449" font-size="1.0em"></g></g><g transform="matrix(1.0,0.0,0.0,1.0,23.622047244094574,23.622047244094574)"><g stroke="rgb(0,0,0)" stroke-opacity="1.0" fill="rgb(128,255,0)" fill-opacity="0.25" stroke-width="2.362204724409449" font-size="1.0em"></g></g><g transform="matrix(1.0,0.0,0.0,1.0,23.622047244094574,23.622047244094574)"><g stroke="rgb(0,0,0)" stroke-opacity="1.0" fill="rgb(128,255,0)" fill-opacity="0.25" stroke-width="2.362204724409449" fill-rule="evenodd" font-size="1.0em"></g></g><g transform="matrix(1.0,0.0,0.0,1.0,23.622047244094574,23.622047244094574)"><g stroke="rgb(0,0,0)" stroke-opacity="1.0" fill="rgb(128,255,0)" fill-opacity="0.25" stroke-width="2.362204724409449" fill-rule="evenodd" font-size="1.0em"></g></g><g transform="matrix(1.0,0.0,0.0,1.0,23.622047244094574,23.622047244094574)"><g stroke="rgb(0,0,0)" stroke-opacity="1.0" fill="rgb(128,255,0)" fill-opacity="0.25" stroke-width="2.362204724409449" fill-rule="evenodd" font-size="1.0em"><path d="M 1030.796056336128,2415.600530933141 l -103.55940514299482,-179.37015130927676 l -179.37015130927665,-103.55940514299482 l -207.1188102859896,-5.684341886080802e-14 l -179.3701513092767,103.5594051429947 l -103.55940514299493,179.37015130927665 l -1.7053025658242404e-13,207.1188102859896 l 103.55940514299465,179.37015130927682 l 179.37015130927674,103.55940514299505 l 207.11881028598978,1.1368683772161603e-13 l 179.37015130927688,-103.55940514299482 l 103.55940514299488,-179.37015130927682 ZM 1170.5039532612504,2378.165912775804 l -140.9940233003319,-244.20881191972495 l -244.2088119197249,-140.99402330033195 l -281.9880466006637,-1.1368683772161603e-13 l -244.20881191972495,140.99402330033183 l -140.994023300332,244.20881191972478 l -2.2737367544323206e-13,281.9880466006637 l 140.9940233003316,244.20881191972506 l 244.20881191972498,140.99402330033217 l 281.988046600664,2.2737367544323206e-13 l 244.20881191972512,-140.99402330033195 l 140.994023300332,-244.2088119197251 Z" /></g></g><g transform="matrix(1.0,0.0,0.0,1.0,23.622047244094574,23.622047244094574)"><g stroke="rgb(0,0,0)" stroke-opacity="1.0" fill="rgb(128,255,0)" fill-opacity="0.25" stroke-width="2.362204724409449" fill-rule="evenodd" font-size="1.0em"></g></g><g transform="matrix(1.0,0.0,0.0,1.0,23.622047244094574,23.622047244094574)"><g stroke="rgb(0,0,0)" stroke-opacity="1.0" fill="rgb(128,255,0)" fill-opacity="0.25" stroke-width="2.362204724409449" fill-rule="evenodd" font-size="1.0em"></g></g><g transform="matrix(1.0,0.0,0.0,1.0,23.622047244094574,23.622047244094574)"><g stroke="rgb(0,0,0)" stroke-opacity="1.0" fill="rgb(128,255,0)" fill-opacity="0.25" stroke-width="2.362204724409449" font-size="1.0em"></g></g><g transform="matrix(1.0,0.0,0.0,1.0,23.622047244094574,23.622047244094574)"><g stroke="rgb(0,0,0)" stroke-opacity="1.0" fill="rgb(128,255,0)" fill-opacity="0.25" stroke-width="2.362204724409449" font-size="1.0em"></g></g><g transform="matrix(1.0,0.0,0.0,1.0,23.622047244094574,23.622047244094574)"><g stroke="rgb(0,0,0)" stroke-opacity="1.0" fill="rgb(128,0,255)" fill-opacity="0.25" stroke-width="2.362204724409449" font-size="1.0em"></g></g><g transform="matrix(1.0,0.0,0.0,1.0,23.622047244094574,23.622047244094574)"><g stroke="rgb(0,0,0)" stroke-opacity="1.0" fill="rgb(128,0,255)" fill-opacity="0.25" stroke-width="2.362204724409449" font-size="1.0em"></g></g><g transform="matrix(1.0,0.0,0.0,1.0,23.622047244094574,23.622047244094574)"><g stroke="rgb(0,0,0)" stroke-opacity="1.0" fill="rgb(128,0,255)" fill-opacity="0.25" stroke-width="2.362204724409449" font-size="1.0em"><path d="M 4806.489982180574,1851.2307940911796 h 255.18763666455644 l 33.08784043772761,-177.74178858289338 v -180.79532237720778 l -33.08784043772761,-177.74178858289338 l -46.79327269667131,-174.6348711564029 l -33.08784043772762,-177.74178858289338 v -180.79532237720778 l 33.08784043772762,-177.74178858289338 l 46.79327269667131,-174.6348711564029 l 33.08784043772761,-177.74178858289338 v -180.79532237720778 h -321.3633175400117 v 180.79532237720778 l 33.08784043772761,177.74178858289338 l 46.79327269667131,174.6348711564029 l 33.08784043772762,177.74178858289338 v 180.79532237720778 l -33.08784043772762,177.74178858289338 l -46.79327269667131,174.6348711564029 l -33.08784043772761,177.74178858289338 v 180.79532237720778 l 33.08784043772761,177.74178858289338 Z" /></g></g><g transform="matrix(1.0,0.0,0.0,1.0,23.622047244094574,23.622047244094574)"><g stroke="rgb(0,0,0)" stroke-opacity="1.0" fill="rgb(128,0,255)" fill-opacity="0.25" stroke-width="2.362204724409449" font-size="1.0em"></g></g><g transform="matrix(1.0,0.0,0.0,1.0,23.622047244094574,23.622047244094574)"><g stroke="rgb(0,0,0)" stroke-opacity="1.0" fill="rgb(128,0,255)" fill-opacity="0.25" stroke-width="2.362204724409449" font-size="1.0em"></g></g><g transform="matrix(1.0,0.0,0.0,1.0,23.622047244094574,23.622047244094574)"><g stroke="rgb(0,0,0)" stroke-opacity="1.0" fill="rgb(255,0,0)" fill-opacity="0.25" stroke-width="2.362204724409449" font-size="1.0em"></g></g><g transform="matrix(1.0,0.0,0.0,1.0,23.622047244094574,23.622047244094574)"><g stroke="rgb(0,0,0)" stroke-opacity="1.0" fill="rgb(255,0,0)" fill-opacity="0.25" stroke-width="2.362204724409449" font-size="1.0em"></g></g><g transform="matrix(1.0,0.0,0.0,1.0,23.622047244094574,23.622047244094574)"><g stroke="rgb(0,0,0)" stroke-opacity="1.0" fill="rgb(255,0,0)" fill-opacity="0.25" stroke-width="2.362204724409449" font-size="1.0em"><path d="M 4390.638475664185,1851.2307940911796 h 255.18763666455644 l 33.08784043772761,-177.74178858289338 v -180.79532237720778 l -33.08784043772761,-177.74178858289338 l -46.79327269667131,-174.6348711564029 l -33.08784043772762,-177.74178858289338 v -180.79532237720778 l 33.08784043772762,-177.74178858289338 l 46.79327269667131,-174.6348711564029 l 33.08784043772761,-177.74178858289338 v -180.79532237720778 h -321.3633175400117 v 180.79532237720778 l 33.08784043772761,177.74178858289338 l 46.79327269667131,174.6348711564029 l 33.08784043772762,177.74178858289338 v 180.79532237720778 l -33.08784043772762,177.74178858289338 l -46.79327269667131,174.6348711564029 l -33.08784043772761,177.74178858289338 v 180.79532237720778 l 33.08784043772761,177.74178858289338 Z" /></g></g><g transform="matrix(1.0,0.0,0.0,1.0,23.622047244094574,23.622047244094574)"><g stroke="rgb(0,0,0)" stroke-opacity="1.0" fill="rgb(255,0,0)" fill-opacity="0.25" stroke-width="2.362204724409449" font-size="1.0em"></g></g><g transform="matrix(1.0,0.0,0.0,1.0,23.622047244094574,23.622047244094574)"><g stroke="rgb(0,0,0)" stroke-opacity="1.0" fill="rgb(255,0,0)" fill-opacity="0.25" stroke-width="2.362204724409449" font-size="1.0em"></g></g><g transform="matrix(1.0,0.0,0.0,1.0,23.622047244094574,23.622047244094574)"><g stroke="rgb(0,0,0)" stroke-opacity="1.0" fill="rgb(128,0,255)" fill-opacity="0.25" stroke-width="2.362204724409449" font-size="1.0em"></g></g><g transform="matrix(1.0,0.0,0.0,1.0,23.622047244094574,23.622047244094574)"><g stroke="rgb(0,0,0)" stroke-opacity="1.0" fill="rgb(128,0,255)" fill-opacity="0.25" stroke-width="2.362204724409449" font-size="1.0em"></g></g><g transform="matrix(1.0,0.0,0.0,1.0,23.622047244094574,23.622047244094574)"><g stroke="rgb(0,0,0)" stroke-opacity="1.0" fill="rgb(128,0,255)" fill-opacity="0.25" stroke-width="2.362204724409449" font-size="1.0em"><path d="M 3974.786969147794,1851.2307940911796 h 255.18763666455644 l 33.08784043772761,-177.74178858289338 v -180.79532237720778 l -33.08784043772761,-177.74178858289338 l -46.79327269667131,-174.6348711564029 l -33.08784043772762,-177.74178858289338 v -180.79532237720778 l 33.08784043772762,-177.74178858289338 l 46.79327269667131,-174.6348711564029 l 33.08784043772761,-177.74178858289338 v -180.79532237720778 h -321.3633175400117 v 180.79532237720778 l 33.08784043772761,177.74178858289338 l 46.79327269667131,174.6348711564029 l 33.08784043772762,177.74178858289338 v 180.79532237720778 l -33.08784043772762,177.74178858289338 l -46.79327269667131,174.6348711564029 l -33.08784043772761,177.74178858289338 v 180.79532237720778 l 33.08784043772761,177.74178858289338 Z" /></g></g><g transform="matrix(1.0,0.0,0.0,1.0,23.622047244094574,23.622047244094574)"><g stroke="rgb(0,0,0)" stroke-opacity="1.0" fill="rgb(128,0,255)" fill-opacity="0.25" stroke-width="2.362204724409449" font-size="1.0em"></g></g><g transform="matrix(1.0,0.0,0.0,1.0,23.622047244094574,23.622047244094574)"><g stroke="rgb(0,0,0)" stroke-opacity="1.0" fill="rgb(128,0,255)" fill-opacity="0.25" stroke-width="2.362204724409449" font-size="1.0em"></g></g><g transform="matrix(1.0,0.0,0.0,1.0,23.622047244094574,23.622047244094574)"><g stroke="rgb(0,0,0)" stroke-opacity="1.0" fill="rgb(255,0,0)" fill-opacity="0.25" stroke-width="2.362204724409449" font-size="1.0em"></g></g><g transform="matrix(1.0,0.0,0.0,1.0,23.622047244094574,23.622047244094574)"><g stroke="rgb(0,0,0)" stroke-opacity="1.0" fill="rgb(255,0,0)" fill-opacity="0.25" stroke-width="2.362204724409449" font-size="1.0em"></g></g><g transform="matrix(1.0,0.0,0.0,1.0,23.622047244094574,23.622047244094574)"><g stroke="rgb(0,0,0)" stroke-opacity="1.0" fill="rgb(255,0,0)" fill-opacity="0.25" stroke-width="2.362204724409449" font-size="1.0em"><path d="M 3558.935462631405,1851.2307940911796 h 255.18763666455644 l 33.08784043772761,-177.74178858289338 v -180.79532237720778 l -33.08784043772761,-177.74178858289338 l -46.79327269667131,-174.6348711564029 l -33.08784043772762,-177.74178858289338 v -180.79532237720778 l 33.08784043772762,-177.74178858289338 l 46.79327269667131,-174.6348711564029 l 33.08784043772761,-177.74178858289338 v -180.79532237720778 h -321.3633175400117 v 180.79532237720778 l 33.08784043772761,177.74178858289338 l 46.79327269667131,174.6348711564029 l 33.08784043772762,177.74178858289338 v 180.79532237720778 l -33.08784043772762,177.74178858289338 l -46.79327269667131,174.6348711564029 l -33.08784043772761,177.74178858289338 v 180.79532237720778 l 33.08784043772761,177.74178858289338 Z" /></g></g><g transform="matrix(1.0,0.0,0.0,1.0,23.622047244094574,23.622047244094574)"><g stroke="rgb(0,0,0)" stroke-opacity="1.0" fill="rgb(255,0,0)" fill-opacity="0.25" stroke-width="2.362204724409449" font-size="1.0em"></g></g><g transform="matrix(1.0,0.0,0.0,1.0,23.622047244094574,23.622047244094574)"><g stroke="rgb(0,0,0)" stroke-opacity="1.0" fill="rgb(255,0,0)" fill-opacity="0.25" stroke-width="2.362204724409449" font-size="1.0em"></g></g><g transform="matrix(1.0,0.0,0.0,1.0,23.622047244094574,23.622047244094574)"><g stroke="rgb(0,0,0)" stroke-opacity="1.0" fill="rgb(128,0,255)" fill-opacity="0.25" stroke-width="2.362204724409449" font-size="1.0em"></g></g><g transform="matrix(1.0,0.0,0.0,1.0,23.622047244094574,23.622047244094574)"><g stroke="rgb(0,0,0)" stroke-opacity="1.0" fill="rgb(128,0,255)" fill-opacity="0.25" stroke-width="2.362204724409449" font-size="1.0em"></g></g><g transform="matrix(1.0,0.0,0.0,1.0,23.622047244094574,23.622047244094574)"><g stroke="rgb(0,0,0)" stroke-opacity="1.0" fill="rgb(128,0,255)" fill-opacity="0.25" stroke-width="2.362204724409449" font-size="1.0em"><path d="M 3143.083956115015,1851.2307940911796 h 255.18763666455644 l 33.08784043772761,-177.74178858289338 v -180.79532237720778 l -33.08784043772761,-177.74178858289338 l -46.79327269667131,-174.6348711564029 l -33.08784043772762,-177.74178858289338 v -180.79532237720778 l 33.08784043772762,-177.74178858289338 l 46.79327269667131,-174.6348711564029 l 33.08784043772761,-177.74178858289338 v -180.79532237720778 h -321.3633175400117 v 180.79532237720778 l 33.08784043772761,177.74178858289338 l 46.79327269667131,174.6348711564029 l 33.08784043772762,177.74178858289338 v 180.79532237720778 l -33.08784043772762,177.74178858289338 l -46.79327269667131,174.6348711564029 l -33.08784043772761,177.74178858289338 v 180.79532237720778 l 33.08784043772761,177.74178858289338 Z" /></g></g><g transform="matrix(1.0,0.0,0.0,1.0,23.622047244094574,23.622047244094574)"><g stroke="rgb(0,0,0)" stroke-opacity="1.0" fill="rgb(128,0,255)" fill-opacity="0.25" stroke-width="2.362204724409449" font-size="1.0em"></g></g><g transform="matrix(1.0,0.0,0.0,1.0,23.622047244094574,23.622047244094574)"><g stroke="rgb(0,0,0)" stroke-opacity="1.0" fill="rgb(128,0,255)" fill-opacity="0.25" stroke-width="2.362204724409449" font-size="1.0em"></g></g><g transform="matrix(1.0,0.0,0.0,1.0,23.622047244094574,23.622047244094574)"><g stroke="rgb(0,0,0)" stroke-opacity="1.0" fill="rgb(255,0,0)" fill-opacity="0.25" stroke-width="2.362204724409449" font-size="1.0em"></g></g><g transform="matrix(1.0,0.0,0.0,1.0,23.622047244094574,23.622047244094574)"><g stroke="rgb(0,0,0)" stroke-opacity="1.0" fill="rgb(255,0,0)" fill-opacity="0.25" stroke-width="2.362204724409449" font-size="1.0em"></g></g><g transform="matrix(1.0,0.0,0.0,1.0,23.622047244094574,23.622047244094574)"><g stroke="rgb(0,0,0)" stroke-opacity="1.0" fill="rgb(255,0,0)" fill-opacity="0.25" stroke-width="2.362204724409449" font-size="1.0em"><path d="M 2727.2324495986254,1851.2307940911796 h 255.18763666455644 l 33.08784043772761,-177.74178858289338 v -180.79532237720778 l -33.08784043772761,-177.74178858289338 l -46.79327269667131,-174.6348711564029 l -33.08784043772762,-177.74178858289338 v -180.79532237720778 l 33.08784043772762,-177.74178858289338 l 46.79327269667131,-174.6348711564029 l 33.08784043772761,-177.74178858289338 v -180.79532237720778 h -321.3633175400117 v 180.79532237720778 l 33.08784043772761,177.74178858289338 l 46.79327269667131,174.6348711564029 l 33.08784043772762,177.74178858289338 v 180.79532237720778 l -33.08784043772762,177.74178858289338 l -46.79327269667131,174.6348711564029 l -33.08784043772761,177.74178858289338 v 180.79532237720778 l 33.08784043772761,177.74178858289338 Z" /></g></g><g transform="matrix(1.0,0.0,0.0,1.0,23.622047244094574,23.622047244094574)"><g stroke="rgb(0,0,0)" stroke-opacity="1.0" fill="rgb(255,0,0)" fill-opacity="0.25" stroke-width="2.362204724409449" font-size="1.0em"></g></g><g transform="matrix(1.0,0.0,0.0,1.0,23.622047244094574,23.622047244094574)"><g stroke="rgb(0,0,0)" stroke-opacity="1.0" fill="rgb(255,0,0)" fill-opacity="0.25" stroke-width="2.362204724409449" font-size="1.0em"></g></g><g transform="matrix(1.0,0.0,0.0,1.0,23.622047244094574,23.622047244094574)"><g stroke="rgb(0,0,0)" stroke-opacity="1.0" fill="rgb(128,0,255)" fill-opacity="0.25" stroke-width="2.362204724409449" font-size="1.0em"></g></g><g transform="matrix(1.0,0.0,0.0,1.0,23.622047244094574,23.622047244094574)"><g stroke="rgb(0,0,0)" stroke-opacity="1.0" fill="rgb(128,0,255)" fill-opacity="0.25" stroke-width="2.362204724409449" font-size="1.0em"></g></g><g transform="matrix(1.0,0.0,0.0,1.0,23.622047244094574,23.622047244094574)"><g stroke="rgb(0,0,0)" stroke-opacity="1.0" fill="rgb(128,0,255)" fill-opacity="0.25" stroke-width="2.362204724409449" font-size="1.0em"><path d="M 2311.380943082236,1851.2307940911796 h 255.18763666455644 l 33.08784043772761,-177.74178858289338 v -180.79532237720778 l -33.08784043772761,-177.74178858289338 l -46.79327269667131,-174.6348711564029 l -33.08784043772762,-177.74178858289338 v -180.79532237720778 l 33.08784043772762,-177.74178858289338 l 46.79327269667131,-174.6348711564029 l 33.08784043772761,-177.74178858289338 v -180.79532237720778 h -321.3633175400117 v 180.79532237720778 l 33.08784043772761,177.74178858289338 l 46.79327269667131,174.6348711564029 l 33.08784043772762,177.74178858289338 v 180.79532237720778 l -33.08784043772762,177.74178858289338 l -46.79327269667131,174.6348711564029 l -33.08784043772761,177.74178858289338 v 180.79532237720778 l 33.08784043772761,177.74178858289338 Z" /></g></g><g transform="matrix(1.0,0.0,0.0,1.0,23.622047244094574,23.622047244094574)"><g stroke="rgb(0,0,0)" stroke-opacity="1.0" fill="rgb(128,0,255)" fill-opacity="0.25" stroke-width="2.362204724409449" font-size="1.0em"></g></g><g transform="matrix(1.0,0.0,0.0,1.0,23.622047244094574,23.622047244094574)"><g stroke="rgb(0,0,0)" stroke-opacity="1.0" fill="rgb(128,0,255)" fill-opacity="0.25" stroke-width="2.362204724409449" font-size="1.0em"></g></g><g transform="matrix(1.0,0.0,0.0,1.0,23.622047244094574,23.622047244094574)"><g stroke="rgb(0,0,0)" stroke-opacity="1.0" fill="rgb(255,0,0)" fill-opacity="0.25" stroke-width="2.362204724409449" font-size="1.0em"></g></g><g transform="matrix(1.0,0.0,0.0,1.0,23.622047244094574,23.622047244094574)"><g stroke="rgb(0,0,0)" stroke-opacity="1.0" fill="rgb(255,0,0)" fill-opacity="0.25" stroke-width="2.362204724409449" font-size="1.0em"></g></g><g transform="matrix(1.0,0.0,0.0,1.0,23.622047244094574,23.622047244094574)"><g stroke="rgb(0,0,0)" stroke-opacity="1.0" fill="rgb(255,0,0)" fill-opacity="0.25" stroke-width="2.362204724409449" font-size="1.0em"><path d="M 1895.5294365658463,1851.2307940911796 h 255.18763666455644 l 33.08784043772761,-177.74178858289338 v -180.79532237720778 l -33.08784043772761,-177.74178858289338 l -46.79327269667131,-174.6348711564029 l -33.08784043772762,-177.74178858289338 v -180.79532237720778 l 33.08784043772762,-177.74178858289338 l 46.79327269667131,-174.6348711564029 l 33.08784043772761,-177.74178858289338 v -180.79532237720778 h -321.3633175400117 v 180.79532237720778 l 33.08784043772761,177.74178858289338 l 46.79327269667131,174.6348711564029 l 33.08784043772762,177.74178858289338 v 180.79532237720778 l -33.08784043772762,177.74178858289338 l -46.79327269667131,174.6348711564029 l -33.08784043772761,177.74178858289338 v 180.79532237720778 l 33.08784043772761,177.74178858289338 Z" /></g></g><g transform="matrix(1.0,0.0,0.0,1.0,23.622047244094574,23.622047244094574)"><g stroke="rgb(0,0,0)" stroke-opacity="1.0" fill="rgb(255,0,0)" fill-opacity="0.25" stroke-width="2.362204724409449" font-size="1.0em"></g></g><g transform="matrix(1.0,0.0,0.0,1.0,23.622047244094574,23.622047244094574)"><g stroke="rgb(0,0,0)" stroke-opacity="1.0" fill="rgb(255,0,0)" fill-opacity="0.25" stroke-width="2.362204724409449" font-size="1.0em"></g></g><g transform="matrix(1.0,0.0,0.0,1.0,23.622047244094574,23.622047244094574)"><g stroke="rgb(0,0,0)" stroke-opacity="1.0" fill="rgb(128,0,255)" fill-opacity="0.25" stroke-width="2.362204724409449" font-size="1.0em"></g></g><g transform="matrix(1.0,0.0,0.0,1.0,23.622047244094574,23.622047244094574)"><g stroke="rgb(0,0,0)" stroke-opacity="1.0" fill="rgb(128,0,255)" fill-opacity="0.25" stroke-width="2.362204724409449" font-size="1.0em"></g></g><g transform="matrix(1.0,0.0,0.0,1.0,23.622047244094574,23.622047244094574)"><g stroke="rgb(0,0,0)" stroke-opacity="1.0" fill="rgb(128,0,255)" fill-opacity="0.25" stroke-width="2.362204724409449" font-size="1.0em"><path d="M 1479.6779300494566,1851.2307940911796 h 255.18763666455644 l 33.08784043772761,-177.74178858289338 v -180.79532237720778 l -33.08784043772761,-177.74178858289338 l -46.79327269667131,-174.6348711564029 l -33.08784043772762,-177.74178858289338 v -180.79532237720778 l 33.08784043772762,-177.74178858289338 l 46.79327269667131,-174.6348711564029 l 33.08784043772761,-177.74178858289338 v -180.79532237720778 h -321.3633175400117 v 180.79532237720778 l 33.08784043772761,177.74178858289338 l 46.79327269667131,174.6348711564029 l 33.08784043772762,177.74178858289338 v 180.79532237720778 l -33.08784043772762,177.74178858289338 l -46.79327269667131,174.6348711564029 l -33.08784043772761,177.74178858289338 v 180.79532237720778 l 33.08784043772761,177.74178858289338 Z" /></g></g><g transform="matrix(1.0,0.0,0.0,1.0,23.622047244094574,23.622047244094574)"><g stroke="rgb(0,0,0)" stroke-opacity="1.0" fill="rgb(128,0,255)" fill-opacity="0.25" stroke-width="2.362204724409449" font-size="1.0em"></g></g><g transform="matrix(1.0,0.0,0.0,1.0,23.622047244094574,23.622047244094574)"><g stroke="rgb(0,0,0)" stroke-opacity="1.0" fill="rgb(128,0,255)" fill-opacity="0.25" stroke-width="2.362204724409449" font-size="1.0em"></g></g><g transform="matrix(1.0,0.0,0.0,1.0,23.622047244094574,23.622047244094574)"><g stroke="rgb(0,0,0)" stroke-opacity="1.0" fill="rgb(255,0,0)" fill-opacity="0.25" stroke-width="2.362204724409449" font-size="1.0em"></g></g><g transform="matrix(1.0,0.0,0.0,1.0,23.622047244094574,23.622047244094574)"><g stroke="rgb(0,0,0)" stroke-opacity="1.0" fill="rgb(255,0,0)" fill-opacity="0.25" stroke-width="2.362204724409449" font-size="1.0em"></g></g><g transform="matrix(1.0,0.0,0.0,1.0,23.622047244094574,23.622047244094574)"><g stroke="rgb(0,0,0)" stroke-opacity="1.0" fill="rgb(255,0,0)" fill-opacity="0.25" stroke-width="2.362204724409449" font-size="1.0em"><path d="M 1063.826423533067,1851.2307940911796 h 255.18763666455644 l 33.08784043772761,-177.74178858289338 v -180.79532237720778 l -33.08784043772761,-177.74178858289338 l -46.79327269667131,-174.6348711564029 l -33.08784043772762,-177.74178858289338 v -180.79532237720778 l 33.08784043772762,-177.74178858289338 l 46.79327269667131,-174.6348711564029 l 33.08784043772761,-177.74178858289338 v -180.79532237720778 h -321.3633175400117 v 180.79532237720778 l 33.08784043772761,177.74178858289338 l 46.79327269667131,174.6348711564029 l 33.08784043772762,177.74178858289338 v 180.79532237720778 l -33.08784043772762,177.74178858289338 l -46.79327269667131,174.6348711564029 l -33.08784043772761,177.74178858289338 v 180.79532237720778 l 33.08784043772761,177.74178858289338 Z" /></g></g><g transform="matrix(1.0,0.0,0.0,1.0,23.622047244094574,23.622047244094574)"><g stroke="rgb(0,0,0)" stroke-opacity="1.0" fill="rgb(255,0,0)" fill-opacity="0.25" stroke-width="2.362204724409449" font-size="1.0em"></g></g><g transform="matrix(1.0,0.0,0.0,1.0,23.622047244094574,23.622047244094574)"><g stroke="rgb(0,0,0)" stroke-opacity="1.0" fill="rgb(255,0,0)" fill-opacity="0.25" stroke-width="2.362204724409449" font-size="1.0em"></g></g><g transform="matrix(1.0,0.0,0.0,1.0,23.622047244094574,23.622047244094574)"><g stroke="rgb(0,0,0)" stroke-opacity="1.0" fill="rgb(128,0,255)" fill-opacity="0.25" stroke-width="2.362204724409449" font-size="1.0em"></g></g><g transform="matrix(1.0,0.0,0.0,1.0,23.622047244094574,23.622047244094574)"><g stroke="rgb(0,0,0)" stroke-opacity="1.0" fill="rgb(128,0,255)" fill-opacity="0.25" stroke-width="2.362204724409449" font-size="1.0em"></g></g><g transform="matrix(1.0,0.0,0.0,1.0,23.622047244094574,23.622047244094574)"><g stroke="rgb(0,0,0)" stroke-opacity="1.0" fill="rgb(128,0,255)" fill-opacity="0.25" stroke-width="2.362204724409449" font-size="1.0em"><path d="M 647.9749170166776,1851.2307940911796 h 255.18763666455644 l 33.08784043772761,-177.74178858289338 v -180.79532237720778 l -33.08784043772761,-177.74178858289338 l -46.79327269667131,-174.6348711564029 l -33.08784043772762,-177.74178858289338 v -180.79532237720778 l 33.08784043772762,-177.74178858289338 l 46.79327269667131,-174.6348711564029 l 33.08784043772761,-177.74178858289338 v -180.79532237720778 h -321.3633175400117 v 180.79532237720778 l 33.08784043772761,177.74178858289338 l 46.79327269667131,174.6348711564029 l 33.08784043772762,177.74178858289338 v 180.79532237720778 l -33.08784043772762,177.74178858289338 l -46.79327269667131,174.6348711564029 l -33.08784043772761,177.74178858289338 v 180.79532237720778 l 33.08784043772761,177.74178858289338 Z" /></g></g><g transform="matrix(1.0,0.0,0.0,1.0,23.622047244094574,23.622047244094574)"><g stroke="rgb(0,0,0)" stroke-opacity="1.0" fill="rgb(128,0,255)" fill-opacity="0.25" stroke-width="2.362204724409449" font-size="1.0em"></g></g><g transform="matrix(1.0,0.0,0.0,1.0,23.622047244094574,23.622047244094574)"><g stroke="rgb(0,0,0)" stroke-opacity="1.0" fill="rgb(128,0,255)" fill-opacity="0.25" stroke-width="2.362204724409449" font-size="1.0em"></g></g><g transform="matrix(1.0,0.0,0.0,1.0,23.622047244094574,23.622047244094574)"><g stroke="rgb(0,0,0)" stroke-opacity="1.0" fill="rgb(255,0,0)" fill-opacity="0.25" stroke-width="2.362204724409449" font-size="1.0em"></g></g><g transform="matrix(1.0,0.0,0.0,1.0,23.622047244094574,23.622047244094574)"><g stroke="rgb(0,0,0)" stroke-opacity="1.0" fill="rgb(255,0,0)" fill-opacity="0.25" stroke-width="2.362204724409449" font-size="1.0em"></g></g><g transform="matrix(1.0,0.0,0.0,1.0,23.622047244094574,23.622047244094574)"><g stroke="rgb(0,0,0)" stroke-opacity="1.0" fill="rgb(255,0,0)" fill-opacity="0.25" stroke-width="2.362204724409449" font-size="1.0em"><path d="M 232.1234105002881,1851.2307940911796 h 255.18763666455644 l 33.08784043772761,-177.74178858289338 v -180.79532237720778 l -33.08784043772761,-177.74178858289338 l -46.79327269667131,-174.6348711564029 l -33.08784043772762,-177.74178858289338 v -180.79532237720778 l 33.08784043772762,-177.74178858289338 l 46.79327269667131,-174.6348711564029 l 33.08784043772761,-177.74178858289338 v -180.79532237720778 h -321.3633175400117 v 180.79532237720778 l 33.08784043772761,177.74178858289338 l 46.79327269667131,174.6348711564029 l 33.08784043772762,177.74178858289338 v 180.79532237720778 l -33.08784043772762,177.74178858289338 l -46.79327269667131,174.6348711564029 l -33.08784043772761,177.74178858289338 v 180.79532237720778 l 33.08784043772761,177.74178858289338 Z" /></g></g><g transform="matrix(1.0,0.0,0.0,1.0,23.622047244094574,23.622047244094574)"><g stroke="rgb(0,0,0)" stroke-opacity="1.0" fill="rgb(255,0,0)" fill-opacity="0.25" stroke-width="2.362204724409449" font-size="1.0em"></g></g><g transform="matrix(1.0,0.0,0.0,1.0,23.622047244094574,23.622047244094574)"><g stroke="rgb(0,0,0)" stroke-opacity="1.0" fill="rgb(255,0,0)" fill-opacity="0.25" stroke-width="2.362204724409449" font-size="1.0em"></g></g><g transform="matrix(1.0,0.0,0.0,1.0,23.622047244094574,23.622047244094574)"><g stroke="rgb(0,0,0)" stroke-opacity="1.0" fill="rgb(0,0,0)" fill-opacity="0.0" stroke-width="2.362204724409449" font-size="1.0em"></g></g><g transform="matrix(1.0,0.0,0.0,1.0,23.622047244094574,23.622047244094574)"><g stroke="rgb(0,0,0)" stroke-opacity="1.0" fill="rgb(0,0,0)" fill-opacity="0.0" stroke-width="2.362204724409449" font-size="1.0em"></g></g></g></svg>