<?xml version="1.0" standalone="no"?>
<!DOCTYPE svg PUBLIC "-//W3C//DTD SVG 20010904//EN"
 "http://www.w3.org/TR/2001/REC-SVG-20010904/DTD/svg10.dtd">
<svg version="1.0" xmlns="http://www.w3.org/2000/svg"
 width="750.000000pt" height="500.000000pt" viewBox="0 0 750.000000 500.000000"
 preserveAspectRatio="xMidYMid meet">
<metadata>
Created by potrace 1.11, written by Peter Selinger 2001-2013
</metadata>
<g transform="translate(0.000000,500.000000) scale(0.100000,-0.100000)"
fill="#000000" stroke="none">
<path d="M176 4984 c-20 -20 -21 -38 -1 -30 10 4 15 -1 15 -14 0 -10 7 -23 16
-28 25 -14 -1 -25 -27 -12 -11 7 -23 9 -26 6 -3 -3 6 -11 20 -17 34 -15 43
-40 21 -56 -10 -7 -12 -13 -6 -13 17 0 52 -37 52 -55 0 -8 9 -19 20 -25 11 -6
19 -14 18 -18 -3 -14 16 -47 37 -64 20 -17 20 -17 -4 -18 -24 0 -24 0 -5 -15
24 -18 44 -19 44 -2 0 7 9 33 21 56 17 35 19 53 14 94 -7 49 -7 51 10 37 16
-13 18 -13 13 0 -3 8 -17 15 -31 15 -31 0 -37 19 -8 23 11 2 29 -6 40 -17 28
-28 31 -27 31 13 0 19 4 37 9 40 13 8 50 -37 61 -74 12 -41 1 -61 -45 -90 -19
-12 -36 -27 -36 -33 -1 -7 -3 -29 -5 -51 -2 -21 -14 -53 -29 -71 -26 -35 -32
-55 -15 -55 12 0 13 -40 1 -59 -5 -8 -23 -14 -40 -15 -17 -1 -33 -8 -37 -16
-4 -12 -9 -9 -19 10 -17 30 -21 6 -5 -34 9 -26 4 -56 -10 -56 -4 0 -5 12 -3
28 l5 27 -26 -27 c-15 -16 -37 -28 -48 -28 -17 0 -19 3 -10 12 7 7 12 19 12
27 0 11 -6 9 -20 -9 -11 -14 -19 -18 -18 -10 2 9 -6 16 -19 18 -13 2 -23 8
-23 13 0 6 -5 7 -10 4 -6 -4 -7 -11 -4 -17 5 -7 2 -8 -6 -3 -8 5 -10 20 -6 48
6 35 5 39 -9 27 -8 -7 -15 -9 -15 -4 0 5 -5 2 -11 -6 -8 -11 -12 -12 -16 -2
-2 6 -13 12 -24 12 -17 0 -19 -8 -19 -90 0 -86 1 -92 27 -114 18 -15 23 -27
18 -36 -13 -21 -6 -102 11 -127 18 -28 18 -33 0 -33 -8 0 -17 14 -21 30 -4 17
-10 30 -15 30 -5 0 -11 10 -13 23 -2 12 -5 4 -6 -18 0 -23 5 -47 12 -54 9 -11
9 -14 0 -18 -15 -5 -18 -33 -4 -33 6 0 13 5 16 10 4 6 12 10 18 9 27 -3 37 2
37 18 0 40 21 -7 26 -58 5 -52 17 -79 36 -79 6 0 8 7 5 14 -4 10 -1 13 8 10 7
-3 16 3 20 15 8 27 21 27 28 0 3 -12 10 -18 16 -15 11 7 45 -63 36 -72 -3 -3
0 -11 7 -19 6 -8 13 -27 15 -44 2 -23 -1 -29 -16 -29 -11 0 -22 -4 -26 -9 -8
-15 15 -25 28 -12 18 18 37 13 37 -9 0 -11 7 -20 15 -20 8 0 19 -9 25 -20 10
-19 8 -20 -42 -19 -60 2 -138 -19 -138 -35 0 -13 99 -139 143 -182 54 -53 205
-225 297 -339 98 -121 124 -146 220 -218 52 -38 115 -87 140 -107 43 -35 49
-37 138 -43 82 -5 92 -4 93 11 1 9 3 28 5 42 2 14 5 35 5 47 1 12 7 24 14 27
8 3 11 13 8 24 -5 21 33 56 49 46 5 -4 24 -7 41 -8 17 -1 33 -8 35 -14 6 -18
63 -14 78 6 12 16 14 14 26 -15 15 -41 21 -41 35 -3 6 17 18 30 26 30 10 0 13
7 10 19 -3 14 3 24 24 35 22 12 24 15 9 16 -11 0 -16 3 -13 6 3 4 0 16 -8 28
-8 11 -15 35 -15 53 0 18 -4 33 -9 33 -16 0 -31 55 -27 103 2 26 0 49 -4 52
-11 7 -9 55 2 55 6 0 8 7 5 15 -4 8 -2 17 3 20 6 4 10 14 10 23 0 22 12 40 29
44 7 2 28 16 46 32 18 15 36 28 39 27 3 -1 14 7 24 17 10 10 46 24 80 32 34 7
62 16 62 19 0 6 68 7 80 1 3 -1 8 -2 13 -1 4 0 6 -2 6 -6 -3 -20 3 -23 21 -13
18 10 20 8 20 -19 0 -29 1 -30 27 -16 34 18 40 13 19 -17 -18 -26 -22 -48 -5
-31 6 6 19 8 30 6 15 -4 17 -9 8 -19 -8 -10 -5 -15 15 -20 14 -3 23 -10 20
-15 -3 -5 4 -9 16 -9 12 0 19 -4 15 -10 -3 -5 -6 -25 -7 -45 -1 -20 -7 -39
-15 -42 -7 -3 -11 -9 -8 -13 3 -4 -2 -13 -10 -20 -8 -7 -15 -18 -15 -24 0 -6
4 -5 9 3 5 8 11 9 15 3 3 -5 -3 -17 -14 -27 -11 -10 -20 -23 -20 -28 0 -6 7
-2 15 9 13 18 14 18 15 1 0 -10 4 -15 10 -12 11 7 12 4 14 -36 1 -15 8 -34 15
-43 9 -11 10 -16 2 -16 -6 0 -10 -5 -9 -11 2 -6 -3 -14 -11 -17 -8 -3 -11 0
-7 7 4 6 3 11 -3 11 -5 0 -13 -5 -17 -11 -4 -8 -9 -7 -16 2 -6 10 -7 6 -2 -11
12 -42 12 -101 0 -97 -5 2 -20 -12 -33 -30 -18 -27 -21 -38 -13 -59 13 -33 13
-91 0 -99 -13 -8 -13 -55 0 -75 8 -12 10 -9 10 13 0 15 5 27 10 27 6 0 10 -4
10 -10 0 -12 27 -13 32 -1 2 4 13 12 25 15 25 8 25 6 27 -64 1 -48 33 -63 91
-43 55 18 71 43 80 123 19 174 136 278 355 315 133 23 143 31 175 134 61 199
83 248 110 237 28 -10 40 13 40 78 0 35 3 62 7 60 12 -8 28 34 20 53 -9 23
-45 27 -39 4 2 -9 9 -15 15 -13 16 3 15 -15 0 -21 -8 -2 -18 9 -24 27 -6 17
-21 36 -34 43 -23 11 -68 58 -97 101 -21 31 -60 50 -119 57 -55 7 -177 -9
-182 -25 -2 -5 -10 -10 -18 -10 -7 0 -11 6 -8 14 5 14 125 46 189 51 37 3 40
15 26 101 -8 53 -7 75 4 108 8 22 15 51 15 63 0 29 45 80 89 101 26 12 52 41
92 101 75 110 170 215 270 294 158 127 288 171 559 189 198 14 270 13 316 -2
27 -9 32 -15 28 -36 -3 -15 1 -26 10 -30 8 -3 17 -12 20 -19 4 -11 0 -12 -20
-4 -14 5 -29 7 -33 5 -4 -3 -7 4 -8 14 -1 11 2 22 8 25 23 15 7 27 -27 22 -44
-7 -88 -57 -51 -57 7 0 13 -9 13 -19 0 -11 -4 -17 -8 -15 -4 3 -8 -2 -8 -11 0
-9 -4 -14 -9 -10 -5 3 -12 1 -16 -5 -13 -21 -25 -9 -37 35 -7 25 -15 45 -18
45 -4 0 -13 -18 -20 -40 -13 -41 -27 -49 -47 -29 -9 9 -16 8 -27 -4 -9 -9 -16
-20 -16 -26 0 -17 -17 -22 -45 -11 -20 8 -27 7 -31 -5 -5 -13 -10 -13 -33 0
-27 14 -28 13 -23 -11 3 -17 0 -24 -12 -24 -8 0 -25 -13 -37 -30 -12 -16 -26
-27 -31 -24 -4 3 -8 -1 -8 -9 0 -16 -21 -27 -52 -27 -21 0 -48 -22 -48 -39 0
-6 -7 -11 -16 -11 -9 0 -18 -9 -21 -20 -4 -16 -14 -20 -47 -20 -67 0 -81 -23
-26 -43 12 -4 12 -6 -2 -6 -22 -1 -43 -37 -25 -44 9 -3 9 -9 1 -23 -6 -11 -10
-29 -8 -40 3 -15 -3 -23 -18 -27 -13 -4 -19 -11 -15 -21 4 -10 -2 -20 -14 -27
-12 -6 -18 -17 -15 -25 3 -8 -1 -14 -8 -14 -13 0 -31 -27 -28 -42 1 -4 -14 -7
-33 -6 -40 1 -57 -9 -34 -22 9 -5 27 -18 40 -30 19 -16 20 -19 5 -13 -15 5
-17 3 -11 -8 5 -8 -3 -4 -17 9 -13 12 -27 22 -31 22 -4 0 -5 -10 -3 -22 4 -26
-19 -58 -42 -58 -12 0 -12 -3 4 -15 10 -8 14 -15 7 -15 -6 0 -15 -9 -18 -20
-3 -11 -14 -20 -23 -21 -14 0 -15 -2 -2 -7 8 -4 16 -20 17 -37 3 -34 35 -65
67 -65 26 0 102 -47 131 -80 l20 -23 -31 22 c-30 22 -31 22 -61 4 -34 -19 -43
-47 -43 -145 0 -32 -4 -58 -10 -58 -5 0 -10 10 -11 23 -3 92 -3 92 -24 89 -11
-2 -23 -9 -26 -14 -4 -6 -9 -5 -12 3 -3 11 -7 11 -17 2 -7 -6 -19 -9 -26 -6
-8 3 -14 -1 -14 -11 0 -9 7 -16 15 -16 8 0 15 -5 15 -11 0 -5 5 -7 10 -4 6 3
10 2 10 -3 0 -6 8 -8 18 -5 10 2 24 -2 30 -10 10 -11 8 -20 -8 -40 -11 -14
-20 -31 -20 -39 -1 -17 -39 -63 -47 -55 -6 7 -7 44 -2 66 2 8 -3 16 -13 18
-11 3 -18 -5 -24 -29 -4 -18 -9 -27 -11 -20 -3 6 -9 12 -15 12 -6 0 -4 -8 5
-18 9 -10 19 -37 23 -61 l7 -44 -30 5 c-18 2 -35 -2 -44 -11 -18 -20 -25 -151
-7 -151 9 0 9 -3 0 -12 -16 -16 -15 -53 2 -67 11 -9 14 -1 19 46 3 31 10 59
15 62 5 3 12 16 16 27 8 26 44 22 45 -4 1 -23 1 -54 0 -72 0 -8 1 -22 3 -30 2
-10 -7 -16 -29 -18 -36 -4 -46 -22 -13 -22 27 0 25 -25 -2 -44 -20 -15 -21
-16 -5 -34 10 -10 43 -31 75 -47 31 -15 78 -45 104 -67 49 -40 56 -41 94 -6
17 15 23 16 27 5 3 -8 -10 -26 -31 -43 -21 -16 -37 -27 -37 -24 0 2 -10 -4
-22 -15 -17 -14 -20 -23 -12 -37 7 -13 6 -18 -2 -18 -8 0 -9 -11 -4 -37 4 -21
8 -49 8 -62 1 -13 8 -26 15 -29 17 -5 15 -32 -3 -32 -8 0 -15 -4 -15 -10 0
-27 -28 -4 -48 40 -13 28 -27 48 -33 45 -5 -4 -9 -1 -9 5 0 6 -10 8 -25 4 -23
-6 -25 -4 -19 24 6 28 4 29 -20 25 -14 -3 -26 -10 -26 -16 0 -6 -7 -19 -17
-29 -13 -15 -14 -23 -4 -44 6 -14 20 -28 31 -31 11 -3 17 -9 14 -14 -3 -5 2
-9 12 -9 13 0 14 -3 4 -15 -10 -12 -10 -15 4 -15 9 0 16 -4 16 -10 0 -5 8 -10
18 -10 16 -1 16 -1 0 -11 -10 -5 -18 -16 -18 -23 0 -18 -25 -27 -38 -14 -6 6
-8 18 -5 27 3 12 2 11 -7 -2 -7 -10 -10 -27 -7 -38 4 -14 -3 -24 -21 -34 -15
-8 -21 -14 -13 -15 8 0 11 -3 8 -7 -4 -3 10 -14 30 -24 22 -10 31 -18 21 -18
-21 -1 -24 -17 -5 -24 7 -3 4 -6 -6 -6 -11 -1 -15 -6 -11 -12 4 -8 -4 -9 -27
-5 l-34 6 40 -20 c22 -11 31 -18 21 -15 -17 5 -17 3 -5 -12 12 -15 12 -16 -3
-10 -10 3 -17 3 -17 -1 3 -19 -3 -22 -22 -11 -18 9 -20 8 -15 -9 5 -15 1 -22
-14 -27 -11 -3 -20 -11 -20 -16 0 -6 3 -8 8 -5 4 2 18 -2 32 -10 23 -14 23
-14 3 -9 -19 5 -23 2 -23 -18 0 -18 -8 -28 -31 -38 -31 -12 -31 -13 -9 -21 18
-7 20 -11 10 -23 -6 -7 -18 -11 -26 -8 -8 3 -17 -3 -21 -13 -4 -10 -2 -19 5
-22 25 -8 10 -20 -35 -27 -39 -7 -44 -9 -24 -14 14 -4 27 -13 29 -20 3 -10 -1
-12 -13 -7 -16 6 -16 4 -4 -10 12 -15 12 -16 -6 -11 -11 4 -42 0 -69 -8 -49
-15 -73 -12 -46 5 10 7 1 8 -28 6 -50 -5 -57 -9 -58 -39 0 -12 -1 -50 -2 -84
-2 -78 -24 -106 -74 -96 -18 3 -40 10 -49 14 -20 10 -32 98 -17 117 7 8 7 12
-1 12 -6 0 -11 4 -11 10 0 14 52 38 99 46 46 7 64 36 38 62 -14 13 -17 13 -32
-2 -24 -24 -30 -20 -11 9 23 34 20 38 -11 18 -27 -17 -27 -17 -14 0 12 15 12
17 -3 11 -13 -5 -16 0 -16 25 0 17 -4 31 -10 31 -5 0 -10 -6 -10 -12 0 -7 -8
-1 -17 12 -9 14 -18 27 -19 29 -2 2 -10 -1 -17 -7 -8 -7 -17 -9 -21 -5 -14 15
-95 30 -99 19 -2 -6 -16 -10 -32 -8 -15 1 -45 -3 -65 -8 -44 -12 -123 -80
-101 -87 7 -3 44 -32 82 -65 78 -67 129 -89 187 -81 45 6 66 -12 24 -20 -20
-4 -37 -22 -67 -74 -22 -37 -43 -79 -47 -91 -6 -23 -77 -132 -85 -132 -2 0 -1
21 3 46 4 31 3 49 -5 53 -7 4 -13 27 -14 50 -1 24 -3 38 -5 32 -2 -6 -10 -11
-18 -11 -8 0 -23 -15 -34 -32 -11 -18 -20 -27 -20 -20 0 7 -11 17 -25 22 -26
10 -31 29 -16 59 12 22 4 58 -15 65 -8 3 -25 1 -39 -4 -22 -8 -25 -7 -26 13
-2 40 3 57 24 81 9 11 17 23 17 28 0 14 -20 9 -26 -7 -8 -20 -54 -20 -54 0 0
9 7 18 15 21 23 9 7 24 -27 24 -22 0 -29 4 -25 15 8 20 -8 28 -23 10 -7 -8
-17 -12 -22 -9 -5 3 1 18 14 32 l23 25 -23 -6 c-17 -4 -21 -2 -14 6 6 7 12 23
14 37 5 40 60 35 128 -12 54 -37 72 -45 68 -30 -5 19 17 78 48 129 19 31 34
61 34 66 0 5 13 28 29 52 16 24 32 54 36 67 11 33 84 135 102 142 11 5 13 2 9
-9 -3 -10 -2 -13 5 -10 6 4 14 18 20 32 5 13 14 23 21 21 6 -2 21 5 34 16 12
12 29 27 38 34 20 16 21 42 1 42 -8 0 -19 9 -25 20 -6 11 -18 20 -26 20 -8 0
-12 5 -9 10 4 7 -3 8 -22 4 -36 -9 -44 -14 -39 -23 3 -4 -6 -18 -21 -31 -19
-17 -27 -19 -33 -9 -5 8 -11 -5 -15 -34 -5 -33 -3 -52 6 -63 11 -14 9 -19 -11
-34 -14 -11 -25 -24 -25 -30 0 -10 -23 -30 -36 -30 -4 0 -18 18 -33 41 -21 31
-31 39 -46 34 -11 -4 -20 -2 -20 4 0 5 -12 -1 -27 -15 -24 -22 -28 -23 -33 -9
-3 9 -10 16 -15 16 -6 -1 -14 11 -18 27 -15 49 -38 92 -48 92 -6 0 -9 -8 -7
-18 3 -20 -60 -152 -73 -152 -13 0 -11 17 4 48 29 57 41 121 28 146 -11 19
-10 30 8 66 28 58 36 107 21 125 -16 20 -5 45 20 45 16 0 20 7 20 30 0 28 -2
29 -20 18 -16 -10 -24 -10 -40 0 -11 7 -20 8 -20 3 0 -13 -58 -41 -86 -41 -14
0 -28 -9 -35 -22 -6 -13 -21 -33 -32 -46 -18 -20 -19 -26 -9 -55 14 -39 15
-50 4 -43 -4 2 -18 -2 -32 -9 -19 -10 -27 -26 -35 -65 -11 -59 -8 -140 6 -140
5 0 9 6 9 14 0 8 5 18 11 22 8 5 10 -1 7 -20 -4 -21 -3 -24 8 -15 23 19 17
-15 -5 -35 -18 -17 -19 -17 -24 1 -4 14 -5 15 -6 2 0 -9 -10 -19 -22 -22 -13
-4 -18 -10 -14 -17 4 -7 3 -15 -3 -19 -6 -4 -5 -11 4 -19 8 -7 14 -8 14 -2 0
13 37 13 45 0 3 -5 18 -7 33 -4 35 7 78 -25 85 -63 3 -16 12 -59 20 -96 8 -40
10 -70 5 -73 -5 -3 -7 -11 -5 -18 3 -6 -1 -20 -8 -29 -12 -17 -15 -17 -51 2
-29 16 -40 18 -46 8 -6 -9 -10 -9 -17 2 -5 7 -14 10 -20 7 -6 -4 -11 -1 -11 6
0 8 -3 9 -8 3 -19 -26 -72 -13 -72 17 0 15 -5 19 -20 15 -10 -3 -25 1 -31 9
-7 8 -20 12 -29 9 -24 -8 -73 12 -67 28 2 6 12 13 23 13 10 1 27 2 36 3 11 1
15 6 12 16 -7 17 7 20 23 4 6 -6 21 -8 34 -4 22 7 22 8 4 21 -10 8 -29 14 -42
14 -12 0 -37 9 -55 20 -25 15 -28 20 -14 20 11 0 17 3 14 6 -11 10 -123 12
-135 2 -7 -5 -24 -11 -38 -12 -20 -3 -25 1 -25 20 0 13 -5 24 -11 24 -26 0
-66 41 -78 79 -17 57 -70 111 -109 111 -17 0 -34 -5 -37 -10 -7 -12 -49 -34
-82 -44 -21 -7 -22 -5 -17 21 9 48 -11 56 -87 33 -35 -10 -57 -19 -49 -20 10
-1 8 -5 -7 -12 -12 -6 -24 -19 -26 -29 -5 -20 7 -161 18 -213 4 -21 1 -34 -14
-48 -57 -53 -78 -169 -50 -280 10 -38 19 -50 51 -68 21 -12 38 -26 38 -31 0
-6 4 -8 8 -5 5 3 16 -6 26 -19 l19 -25 34 38 c38 41 73 112 73 148 0 25 7 29
28 15 19 -12 35 -90 22 -106 -6 -7 -8 -19 -5 -27 4 -9 -6 -28 -24 -46 -17 -17
-31 -35 -31 -41 0 -5 -8 -16 -18 -23 -10 -7 -21 -21 -25 -30 -11 -30 -37 -22
-37 11 0 17 4 33 10 36 5 3 10 11 10 17 0 6 -8 4 -18 -5 -22 -20 -36 -22 -26
-5 6 10 4 10 -7 2 -8 -6 -23 -14 -33 -18 -17 -6 -17 -5 -5 11 12 15 12 16 -3
10 -13 -5 -18 -1 -18 13 0 12 -5 17 -13 14 -7 -2 -23 6 -35 18 -12 13 -30 32
-41 42 -11 10 -18 23 -14 29 3 6 1 7 -5 3 -6 -3 -15 1 -21 11 -9 17 -10 17
-30 -1 -12 -11 -21 -14 -21 -8 0 7 6 12 13 12 7 0 5 5 -5 11 -10 5 -15 17 -12
27 5 15 4 15 -8 1 -7 -8 -26 -24 -42 -34 -28 -19 -29 -19 -22 1 9 29 -35 26
-70 -6 -26 -24 -26 -24 -15 -2 6 12 9 22 7 22 -3 0 -12 -13 -20 -29 -8 -15
-27 -36 -41 -45 l-26 -17 16 25 c10 15 13 26 6 26 -6 0 -18 -15 -27 -33 -10
-17 -19 -27 -21 -20 -3 8 -16 3 -40 -13 -36 -24 -54 -25 -36 -2 5 7 13 22 17
32 7 20 6 20 -14 1 -20 -19 -21 -19 -15 1 6 17 6 17 -5 2 -6 -10 -16 -18 -23
-18 -16 0 -17 58 -1 64 7 3 12 19 12 36 -1 20 -4 26 -9 18 -13 -21 -18 -4 -10
35 9 35 8 37 -15 31 -19 -5 -24 -2 -24 11 0 17 -1 17 -20 0 -11 -10 -18 -20
-16 -22 2 -3 -4 -30 -15 -61 -11 -31 -18 -61 -15 -67 2 -5 -5 -25 -16 -42 -15
-26 -18 -44 -14 -85 5 -50 4 -48 -20 32 -24 79 -28 109 -22 142 2 7 -4 13 -12
13 -13 0 -15 -104 -18 -865 -2 -761 0 -865 13 -873 8 -4 15 -21 15 -37 0 -19
10 -38 30 -57 16 -15 30 -37 30 -49 0 -11 18 -40 40 -65 22 -24 40 -49 40 -55
0 -21 30 -24 267 -24 198 0 237 2 250 15 14 14 17 14 33 0 15 -13 51 -15 256
-13 l239 3 -104 65 -104 66 2 99 c3 143 25 230 101 390 15 33 47 100 70 150
41 90 56 112 161 248 31 40 62 84 69 97 27 50 112 150 146 171 34 21 37 21 70
6 26 -13 34 -23 35 -44 1 -16 2 -32 4 -38 1 -5 3 -25 3 -42 1 -22 7 -33 17
-33 8 0 15 -7 15 -15 0 -8 -6 -15 -12 -15 -23 0 -44 -19 -32 -27 6 -5 14 -19
18 -33 6 -25 6 -25 -5 -2 -7 12 -16 22 -21 22 -5 0 -7 -4 -4 -9 4 -5 0 -12 -6
-14 -8 -3 -6 -6 5 -6 9 -1 17 -6 17 -12 0 -5 -5 -7 -11 -3 -7 4 -10 1 -7 -7 3
-8 11 -13 18 -11 7 1 17 -4 24 -12 6 -9 20 -14 31 -12 11 2 25 -4 32 -13 11
-14 12 -14 13 4 1 17 3 17 11 -5 7 -17 6 -31 -2 -46 -6 -12 -8 -28 -4 -35 5
-8 4 -10 -3 -5 -7 4 -12 3 -12 -3 0 -5 5 -13 10 -16 6 -3 10 -15 10 -27 0 -12
5 -18 13 -15 14 5 39 -17 30 -27 -4 -3 -1 -6 5 -6 7 0 12 7 12 15 0 9 6 12 16
8 11 -4 12 -8 4 -13 -8 -5 -9 -10 -2 -14 6 -3 13 -24 17 -45 5 -30 10 -38 22
-34 12 5 14 1 9 -15 -12 -35 4 -48 25 -21 16 21 19 22 19 5 0 -13 3 -16 13 -8
8 7 16 6 24 -4 10 -10 10 -15 0 -21 -19 -12 -48 -50 -51 -65 -1 -7 -9 -24 -18
-38 -9 -14 -19 -35 -23 -47 -3 -13 -11 -23 -16 -23 -14 0 -11 9 12 47 21 33
21 35 3 47 -15 12 -16 16 -5 30 7 9 20 16 27 16 8 0 14 5 14 10 0 6 -4 10 -10
10 -15 0 -50 -33 -50 -48 0 -7 -4 -11 -9 -7 -15 9 -35 -35 -23 -47 7 -7 7 -19
2 -34 -6 -15 -6 -24 0 -24 16 0 12 -30 -5 -36 -8 -4 -12 -10 -9 -15 3 -5 9 -7
14 -4 4 3 6 -4 3 -16 -3 -11 -11 -18 -18 -15 -14 5 -28 -18 -18 -28 14 -14 33
-4 39 19 6 24 24 35 24 15 0 -22 -41 -90 -50 -85 -6 4 -10 -4 -10 -17 0 -18
-2 -20 -10 -8 -9 14 -14 7 -11 -14 1 -4 -4 -15 -11 -24 -11 -13 -10 -15 3 -10
12 5 15 1 11 -18 -2 -14 0 -24 7 -24 6 0 11 -7 11 -17 0 -9 3 -14 6 -10 11 10
34 -20 34 -45 0 -13 4 -30 10 -38 5 -8 5 -19 0 -25 -5 -6 -7 -20 -4 -32 6 -20
12 -21 223 -22 120 -1 229 2 243 8 34 13 41 36 22 72 l-15 30 26 -17 c24 -15
26 -23 22 -56 l-5 -38 598 0 c398 0 609 4 629 11 20 7 31 18 31 30 0 20 -15
26 -25 9 -4 -6 -10 -8 -15 -5 -5 3 4 20 20 38 51 56 60 67 60 75 0 4 20 30 45
57 25 28 42 41 39 30 -4 -12 4 -6 20 15 15 19 34 34 42 32 7 -2 14 2 14 8 0 5
6 10 14 10 7 0 20 7 27 16 21 25 51 33 68 17 8 -8 22 -12 32 -10 10 3 26 -4
36 -15 9 -11 25 -17 35 -15 20 6 25 -9 6 -16 -7 -2 -10 -8 -6 -12 4 -4 13 -3
21 3 7 6 46 18 87 27 42 10 85 26 98 38 20 19 21 22 7 43 -14 21 -13 24 15 44
17 12 30 28 30 36 0 21 -15 17 -34 -9 l-17 -22 5 23 c2 12 1 22 -2 22 -4 0 -8
12 -9 27 0 15 -6 29 -12 31 -6 2 -11 11 -11 19 0 9 -10 25 -23 37 -12 11 -21
29 -19 40 3 11 0 16 -7 12 -7 -4 -11 1 -11 13 0 12 -4 21 -10 21 -17 0 -54 43
-72 83 -27 59 -3 98 107 173 88 60 100 69 117 89 13 15 17 16 18 6 0 -11 6 -8
21 7 11 12 25 20 31 16 6 -4 14 -1 18 5 4 7 13 14 21 15 23 5 112 49 146 74
17 12 36 22 41 22 6 0 17 6 24 13 7 6 56 34 108 61 80 41 110 63 190 145 148
151 239 211 359 237 98 20 185 18 278 -10 70 -20 107 -37 183 -86 39 -25 119
-56 151 -58 38 -3 43 1 150 131 36 43 46 45 60 14 8 -18 5 -33 -15 -73 -14
-28 -35 -59 -48 -70 -19 -16 -20 -16 -9 -1 12 16 12 18 0 15 -8 -2 -20 -11
-28 -22 -11 -14 -23 -17 -57 -13 -24 2 -44 1 -44 -4 0 -5 3 -9 8 -9 4 0 13
-13 20 -29 21 -47 52 -81 74 -81 21 0 42 12 208 118 102 66 141 97 155 125 14
28 66 57 72 40 6 -17 23 -8 307 170 131 82 246 150 255 151 9 0 23 9 31 18 14
16 134 95 384 253 l96 60 0 733 0 732 -30 0 c-17 0 -38 -4 -48 -9 -132 -68
-216 -102 -239 -97 -18 5 -34 0 -58 -19 -19 -14 -36 -25 -40 -25 -8 0 -54 -53
-55 -62 0 -13 -39 -48 -52 -48 -9 0 -8 -4 2 -10 8 -5 10 -10 3 -10 -6 0 -9 -9
-6 -20 5 -19 4 -19 -30 -5 -32 13 -37 13 -59 -4 -12 -10 -42 -28 -65 -40 -24
-12 -43 -24 -43 -27 0 -3 5 -2 10 1 24 15 7 -4 -32 -35 -29 -24 -40 -28 -35
-16 6 16 5 17 -7 7 -8 -7 -13 -18 -10 -25 3 -7 -6 -18 -19 -25 -13 -7 -32 -29
-41 -48 -16 -33 -20 -35 -51 -30 -33 5 -35 4 -35 -24 0 -17 -6 -32 -15 -35
-20 -8 -19 -24 1 -24 24 0 11 -24 -15 -28 -12 -2 -29 2 -38 10 -12 9 -15 10
-9 1 5 -9 1 -13 -11 -13 -10 0 -36 -6 -57 -14 -22 -7 -56 -11 -76 -9 -42 6
-61 -11 -38 -33 7 -7 29 -15 48 -17 48 -6 49 -28 2 -65 -29 -24 -42 -28 -50
-20 -7 7 -12 8 -12 2 0 -18 80 -94 99 -94 11 0 22 -4 25 -9 7 -11 125 27 149
47 9 8 36 16 60 16 42 1 42 1 40 -33 -1 -35 -17 -53 -39 -44 -7 3 -20 -10 -30
-29 -26 -50 -49 -62 -169 -85 -16 -3 -35 -13 -41 -21 -8 -12 -23 -13 -68 -8
-48 6 -55 10 -45 22 6 8 18 14 26 14 8 0 11 5 8 10 -3 6 -17 10 -31 10 -18 0
-29 9 -42 38 -9 20 -21 40 -27 44 -6 5 -6 11 1 18 12 12 -3 60 -19 60 -5 0 -1
10 7 22 10 14 12 26 6 33 -7 8 -3 20 13 36 39 40 50 80 37 129 -14 52 -14 192
0 240 19 67 12 111 -25 163 -33 44 -55 59 -55 37 0 -5 -8 -10 -18 -10 -9 0
-28 -14 -42 -31 -23 -29 -109 -79 -137 -79 -6 0 -13 10 -15 23 -4 27 -48 38
-48 12 0 -9 -4 -14 -9 -10 -5 3 -12 1 -16 -5 -8 -13 -45 -13 -45 1 0 6 9 13
20 16 11 3 17 9 15 14 -3 4 12 13 33 18 21 6 49 23 63 37 13 15 47 43 74 64
28 21 66 53 85 71 19 19 54 46 78 61 36 24 42 32 42 63 0 32 2 35 30 35 23 0
30 -4 30 -20 0 -14 5 -18 17 -13 10 4 14 2 10 -4 -3 -5 3 -20 14 -31 21 -24
35 -29 23 -10 -5 8 2 9 24 5 20 -4 32 -2 32 4 0 7 9 9 22 6 32 -9 78 19 78 48
0 13 5 27 11 30 5 4 9 17 8 28 0 12 -1 36 0 52 l2 30 19 -24 c11 -13 20 -38
20 -57 0 -18 5 -36 10 -39 7 -4 7 -12 0 -25 -8 -16 -7 -18 9 -15 14 3 18 -1
14 -11 -5 -15 -2 -16 65 -19 25 -1 46 3 53 11 13 16 49 19 49 4 0 -17 29 -11
51 11 23 23 21 43 -7 46 -108 10 -133 23 -182 88 l-40 53 67 31 c184 86 268
90 427 22 28 -12 51 -28 51 -36 0 -8 -3 -12 -7 -10 -4 2 -17 -14 -29 -35 -12
-22 -27 -40 -33 -40 -5 0 -8 -6 -5 -13 2 -7 -4 -23 -14 -36 -15 -19 -19 -20
-19 -6 0 15 -2 15 -15 1 -8 -8 -15 -22 -15 -31 0 -11 5 -15 15 -11 17 6 21 -9
5 -19 -8 -5 -7 -11 1 -21 6 -7 15 -11 20 -8 5 3 9 -2 9 -11 0 -42 42 -51 145
-30 39 8 111 19 160 25 50 6 98 13 108 16 16 5 17 44 17 630 l0 624 -2801 0
c-2792 0 -2801 0 -2806 -20 -3 -11 -12 -20 -19 -20 -17 0 -18 12 -2 28 9 9 -1
12 -44 12 -31 0 -60 -4 -63 -10 -3 -5 -15 -10 -27 -10 -17 0 -18 -2 -8 -15 11
-13 8 -21 -15 -45 -16 -17 -39 -30 -52 -30 -14 0 -21 -4 -18 -10 3 -5 2 -10
-3 -10 -6 0 -13 -11 -16 -25 -4 -17 -16 -27 -39 -33 -22 -6 -31 -14 -29 -25 2
-10 -4 -17 -13 -17 -9 0 -14 -4 -10 -9 3 -5 -8 -24 -25 -42 -26 -29 -32 -42
-29 -65 1 -10 -56 -54 -70 -54 -10 0 -11 -3 -2 -14 9 -11 6 -17 -15 -31 -21
-13 -24 -19 -13 -26 8 -5 10 -9 4 -9 -5 0 -4 -5 3 -12 16 -16 15 -41 -2 -35
-9 4 -13 -3 -12 -21 1 -23 -3 -27 -29 -28 -16 0 -43 3 -59 8 -16 4 -34 4 -40
0 -6 -3 -18 -7 -26 -7 -8 0 -17 -11 -18 -24 -3 -16 1 -22 10 -19 7 3 22 -6 32
-20 18 -23 18 -25 3 -37 -16 -12 -16 -13 3 -18 11 -3 18 -1 14 4 -3 5 0 9 6 9
18 0 6 -24 -18 -35 -27 -12 -28 -20 -1 -38 12 -9 19 -23 17 -35 -2 -12 10 -35
30 -56 31 -35 34 -36 60 -22 15 8 43 29 62 46 54 50 136 110 148 110 7 0 12
13 12 29 0 37 11 44 38 25 30 -21 30 -49 1 -33 -20 10 -21 9 -14 -29 4 -25 2
-42 -4 -47 -6 -3 -11 1 -11 9 0 9 -2 16 -4 16 -15 0 -89 -48 -131 -84 -45 -39
-48 -45 -35 -61 12 -15 12 -19 -6 -33 -11 -10 -32 -34 -48 -55 -44 -60 -80
-92 -99 -89 -10 2 -24 -2 -32 -8 -10 -8 -16 -7 -24 7 -6 10 -11 12 -11 6 0
-18 -40 -16 -40 1 0 30 -51 41 -91 21 -24 -13 -30 -13 -42 0 -9 8 -17 19 -19
25 -2 6 -14 12 -28 14 -39 4 -60 17 -60 35 0 10 -10 27 -22 39 -64 60 -81 85
-122 181 -31 71 -42 108 -36 120 4 9 30 61 57 115 64 134 68 140 128 221 59
80 164 185 244 245 l55 40 -516 0 c-456 0 -518 -2 -532 -16z m2096 -182 c-10
-43 -1 -121 19 -164 8 -20 34 -38 83 -62 72 -34 152 -101 107 -89 -17 4 -20 2
-15 -12 6 -15 2 -17 -29 -13 -26 3 -37 0 -37 -9 0 -7 -4 -13 -9 -13 -5 0 -12
-16 -15 -36 -6 -29 -10 -33 -22 -23 -12 10 -12 8 1 -17 9 -18 11 -32 5 -39 -6
-7 -7 -15 -3 -18 3 -4 1 -7 -5 -7 -7 0 -8 -10 -2 -30 5 -19 5 -28 -1 -25 -5 4
-13 -5 -18 -18 -5 -13 -17 -27 -26 -30 -12 -5 -14 -11 -5 -26 13 -26 13 -31
-3 -25 -10 3 -14 -4 -14 -25 0 -18 -8 -38 -20 -48 -11 -10 -18 -23 -16 -30 2
-6 -5 -18 -16 -25 -12 -8 -18 -18 -15 -21 4 -4 -4 -16 -17 -27 l-24 -21 29 6
30 6 -25 -20 c-20 -17 -21 -22 -10 -30 10 -7 12 -13 5 -23 -6 -7 -9 -25 -8
-40 2 -19 -2 -28 -12 -28 -8 0 -13 -4 -10 -9 8 -12 -19 -33 -30 -23 -5 4 -6 3
-2 -2 4 -5 2 -16 -5 -24 -10 -13 -9 -14 10 -8 17 6 20 3 16 -11 -6 -22 -39
-48 -74 -56 -21 -5 -31 -1 -53 23 -14 16 -26 35 -26 41 0 6 -7 9 -15 5 -9 -3
-15 0 -15 9 0 8 -8 15 -18 15 -10 0 -24 9 -32 20 -8 11 -20 20 -26 20 -7 0
-14 6 -17 14 -11 29 -99 61 -169 61 -57 0 -70 -4 -92 -24 -14 -14 -26 -19 -26
-13 0 6 4 13 9 16 22 14 43 153 39 263 -1 61 0 109 5 106 4 -2 7 -11 7 -19 0
-24 20 -16 32 14 7 15 33 59 59 97 25 39 57 94 69 123 41 96 115 140 261 157
96 11 128 41 160 155 24 85 48 110 31 32z m2128 18 c0 -5 -4 -10 -10 -10 -5 0
-10 5 -10 10 0 6 5 10 10 10 6 0 10 -4 10 -10z m-3890 -174 c0 -3 -4 -8 -10
-11 -5 -3 -10 -1 -10 4 0 6 5 11 10 11 6 0 10 -2 10 -4z m130 -163 c17 -17 21
-27 13 -30 -13 -5 -18 -65 -6 -76 3 -4 17 0 30 8 25 17 53 11 35 -7 -7 -7 -7
-19 -2 -34 23 -60 -39 -27 -94 51 -18 25 -35 42 -39 39 -8 -9 3 -96 14 -108
17 -19 9 -36 -16 -36 -16 0 -25 -6 -25 -15 0 -8 -5 -15 -10 -15 -17 0 -24 31
-13 50 6 9 9 38 6 64 -4 32 -1 57 10 79 9 18 18 40 21 50 8 24 41 15 76 -20z
m3373 0 c4 -3 -6 -14 -23 -24 -34 -21 -46 -55 -35 -107 4 -20 9 -54 10 -75 2
-30 10 -44 41 -71 21 -18 47 -35 57 -39 10 -4 16 -11 12 -16 -3 -5 4 -12 15
-16 18 -6 30 -27 13 -23 -15 3 -63 -22 -63 -32 0 -5 9 -19 20 -30 11 -11 20
-25 20 -31 0 -6 -9 -13 -20 -16 -25 -7 -26 -25 -1 -47 11 -10 16 -25 14 -40
-5 -24 10 -40 36 -41 8 0 15 -8 17 -18 1 -10 8 -25 16 -34 7 -9 12 -24 10 -35
-2 -13 3 -18 17 -18 24 0 24 -1 12 -51 -7 -29 -5 -38 10 -47 10 -7 15 -19 12
-30 -2 -11 2 -26 10 -33 11 -10 12 -21 6 -38 -8 -18 -5 -27 12 -42 16 -13 19
-22 11 -31 -5 -7 -10 -46 -9 -85 0 -57 -4 -77 -18 -93 -10 -11 -23 -20 -30
-20 -6 0 -21 -11 -33 -25 -12 -14 -29 -25 -37 -25 -8 0 -15 -4 -15 -10 0 -5 5
-10 10 -10 6 0 10 -7 10 -15 0 -8 -6 -15 -12 -15 -7 0 -2 -7 10 -16 12 -8 22
-24 22 -35 0 -10 6 -19 14 -19 8 0 21 -2 29 -6 10 -3 16 5 21 28 l7 33 25 -29
c20 -22 24 -35 19 -55 -4 -14 -6 -37 -5 -51 6 -72 -7 -339 -17 -350 -2 -2 -8
2 -12 9 -9 15 -6 70 8 147 5 26 7 59 3 73 -3 14 -5 36 -5 49 1 22 0 22 -14 5
-13 -17 -14 -17 -8 4 9 33 -28 19 -70 -28 -43 -48 -44 -62 -4 -55 29 4 30 3
27 -27 -2 -18 -9 -32 -15 -32 -15 0 -53 -67 -53 -93 0 -27 -23 -72 -37 -72 -6
0 -18 -9 -26 -20 -8 -11 -16 -18 -19 -15 -3 3 -11 -2 -18 -11 -11 -12 -11 -17
-1 -23 26 -17 -29 -41 -61 -27 -27 12 -50 -1 -46 -26 2 -15 15 -28 36 -37 17
-8 32 -17 32 -20 0 -11 -62 -41 -71 -35 -11 6 -48 -34 -49 -53 0 -15 -37 -28
-69 -24 -22 3 -23 0 -17 -30 3 -18 1 -37 -5 -45 -9 -11 -8 -14 1 -14 10 0 10
-3 0 -15 -10 -12 -9 -15 6 -15 17 -1 17 -2 3 -13 -11 -9 -13 -21 -8 -47 4 -19
3 -42 -2 -52 -5 -10 -7 -29 -3 -42 5 -22 3 -24 -18 -19 -18 5 -21 3 -11 -7 7
-8 9 -20 3 -35 -5 -14 -4 -27 3 -34 8 -8 -6 -11 -54 -10 -167 3 -283 -97 -224
-191 13 -20 11 -19 -7 3 -21 26 -38 68 -113 276 -33 91 -41 212 -21 303 8 40
19 100 23 133 6 56 7 58 14 25 7 -36 9 -29 14 43 1 21 9 46 18 55 8 9 13 22
10 28 -2 6 3 17 12 24 8 7 15 18 15 26 0 16 32 84 39 84 3 0 7 12 8 26 2 44
18 47 29 4 6 -22 8 -37 4 -35 -10 6 -33 -51 -26 -64 4 -5 14 -9 24 -9 9 1 29
-2 45 -5 19 -5 27 -4 27 5 0 10 2 10 9 -1 6 -9 11 -10 15 -2 11 16 39 -16 32
-35 -4 -10 -1 -14 6 -11 7 2 21 -2 31 -11 15 -14 19 -13 36 2 11 10 24 15 30
12 12 -8 43 36 33 46 -5 5 -19 10 -32 13 -23 5 -41 17 -96 72 -18 17 -46 39
-62 48 -21 13 -38 39 -61 97 -21 50 -43 86 -60 99 l-28 21 43 81 c24 44 51 88
59 97 8 9 13 19 10 22 -3 3 0 18 6 34 18 46 13 75 -25 148 -34 66 -35 71 -32
159 2 51 9 114 15 141 8 31 9 92 5 170 -6 117 -5 124 19 172 28 56 94 115 153
138 23 9 79 17 139 18 l99 3 14 60 c26 118 33 136 55 145 27 11 42 12 50 3z
m-683 -43 c0 -13 -11 -13 -30 0 -12 8 -11 10 8 10 12 0 22 -4 22 -10z m-3130
-140 c0 -5 -4 -10 -10 -10 -5 0 -10 5 -10 10 0 6 5 10 10 10 6 0 10 -4 10 -10z
m557 -107 c2 -40 -1 -92 -6 -115 -9 -36 -7 -44 16 -73 26 -32 26 -32 69 -19
27 8 46 9 49 3 4 -5 15 -9 26 -9 21 0 25 -10 8 -27 -6 -6 -8 -20 -5 -31 8 -24
96 -49 107 -30 4 7 9 6 14 -2 4 -6 13 -9 21 -6 10 4 14 -2 14 -18 0 -13 7 -26
15 -30 9 -3 15 0 15 9 0 8 9 15 20 15 14 0 20 7 20 22 0 21 0 21 18 2 9 -11
25 -18 35 -16 9 2 17 -1 17 -6 0 -6 9 -8 20 -5 11 3 27 0 35 -7 13 -10 11 -17
-15 -48 -17 -20 -30 -42 -30 -49 0 -6 -9 -11 -20 -10 -11 1 -20 4 -20 8 0 4
-9 9 -20 12 -14 4 -20 0 -21 -11 0 -11 -2 -12 -6 -4 -7 17 -23 5 -23 -19 0
-11 4 -18 9 -14 5 3 20 -9 32 -27 13 -18 26 -35 30 -38 7 -6 29 -46 29 -54 0
-3 -6 -6 -14 -6 -24 0 -28 -17 -12 -49 14 -27 14 -30 -2 -37 -9 -4 -25 -6 -34
-5 -10 1 -18 -3 -18 -8 0 -7 23 -11 54 -11 30 0 57 -4 60 -9 3 -4 -6 -6 -19
-3 -46 8 -195 -110 -195 -156 0 -9 9 -30 20 -47 21 -32 25 -45 13 -45 -5 0
-21 23 -36 50 -16 28 -34 50 -40 49 -9 0 -8 -2 1 -6 6 -2 9 -9 6 -14 -3 -5
-15 2 -26 16 -21 27 -43 24 -35 -5 3 -13 0 -16 -14 -13 -11 3 -19 0 -19 -7 0
-8 -9 -10 -27 -5 -35 8 -85 44 -78 55 3 5 -3 13 -12 19 -13 8 -14 10 -4 11 11
0 12 3 4 11 -15 15 -34 2 -26 -18 4 -10 2 -14 -4 -10 -5 3 -18 34 -27 69 -10
35 -27 89 -38 121 -18 50 -19 65 -10 115 9 45 8 70 -3 117 -8 33 -15 66 -15
73 0 23 26 12 37 -15 10 -25 11 -26 12 -6 1 12 -10 34 -24 49 -28 30 -31 47
-12 66 27 26 41 64 42 113 1 28 8 61 15 75 17 32 18 65 4 117 -6 23 -9 45 -6
48 13 13 26 -34 29 -102z m-477 77 c0 -5 -4 -10 -10 -10 -5 0 -10 5 -10 10 0
6 5 10 10 10 6 0 10 -4 10 -10z m-43 -22 c-3 -8 -6 -5 -6 6 -1 11 2 17 5 13 3
-3 4 -12 1 -19z m123 -2 c0 -8 15 -10 43 -8 45 4 43 -13 -3 -20 -14 -1 -28 -7
-31 -11 -3 -4 -16 -9 -28 -10 -13 -1 -20 -6 -17 -14 6 -13 -26 -35 -59 -40
-10 -2 -23 -9 -27 -16 -5 -7 -6 6 -2 28 8 49 12 57 26 49 6 -4 8 -3 5 2 -3 6
-2 16 4 24 7 12 9 11 9 -5 0 -16 4 -15 22 11 22 31 58 37 58 10z m295 4 c-3
-5 -10 -10 -16 -10 -5 0 -9 5 -9 10 0 6 7 10 16 10 8 0 12 -4 9 -10z m-75 -15
c0 -8 -6 -15 -12 -16 -7 -1 -22 -2 -33 -3 -14 -1 -21 -9 -23 -29 -5 -39 -27
-28 -27 13 0 28 5 35 25 41 44 12 70 10 70 -6z m-363 -57 c-3 -8 -6 -5 -6 6
-1 11 2 17 5 13 3 -3 4 -12 1 -19z m6163 -28 c0 -11 7 -20 16 -20 11 0 14 6 9
20 -4 12 -2 20 5 20 6 0 9 -4 6 -9 -3 -5 1 -11 9 -15 8 -3 15 -14 15 -25 0
-15 -5 -19 -16 -14 -9 3 -20 0 -25 -8 -7 -12 -10 -12 -18 -1 -6 11 -10 9 -14
-7 -6 -25 -22 -27 -31 -5 -7 17 21 84 35 84 5 0 9 -9 9 -20z m-5830 -32 c-1
-21 -50 -52 -62 -40 -6 6 -8 17 -5 26 5 12 15 17 60 25 4 0 7 -5 7 -11z m2630
2 c0 -5 -2 -10 -4 -10 -3 0 -8 5 -11 10 -3 6 -1 10 4 10 6 0 11 -4 11 -10z
m-2621 -102 c-7 -13 -16 -26 -21 -29 -11 -7 -18 -57 -11 -76 3 -8 15 -10 34
-6 42 8 36 -13 -11 -37 -44 -22 -54 -25 -45 -10 3 6 -1 10 -9 10 -19 0 -20 13
-6 41 8 13 7 19 0 19 -6 0 -9 4 -5 9 3 5 1 12 -5 16 -29 18 4 65 55 78 35 8
36 7 24 -15z m5821 13 c0 -10 -40 -22 -52 -15 -18 11 -6 24 22 24 17 0 30 -4
30 -9z m146 -26 c0 -35 -4 -35 -42 0 -16 15 -5 35 20 35 18 0 22 -6 22 -35z
m-166 -26 c0 -3 -9 -14 -19 -23 -15 -13 -20 -14 -24 -4 -4 10 -9 9 -20 -4 -16
-20 -27 -14 -27 16 0 18 6 21 45 21 25 0 45 -3 45 -6z m-6220 -15 c0 -8 -5
-12 -10 -9 -6 4 -8 11 -5 16 9 14 15 11 15 -7z m6178 -74 c29 0 21 -14 -19
-34 -26 -13 -31 -13 -35 0 -2 7 -6 21 -9 30 -4 13 0 15 17 10 13 -3 33 -6 46
-6z m-3919 -53 c-2 -1 -13 -9 -24 -17 -19 -14 -19 -14 -6 3 7 9 18 17 24 17 6
0 8 -1 6 -3z m2346 -80 c47 -17 378 -184 452 -227 l51 -31 21 33 c31 49 71 91
79 84 3 -4 2 -10 -3 -14 -6 -4 -16 -20 -24 -37 -7 -16 -17 -37 -21 -45 -11
-22 4 -53 40 -83 35 -30 40 -31 92 -17 71 20 173 27 257 18 59 -7 92 -6 109 2
29 13 40 6 22 -15 -10 -12 -10 -15 4 -15 9 0 16 -4 16 -10 0 -6 -10 -5 -25 2
-20 9 -28 8 -43 -5 -20 -19 -52 -23 -52 -7 0 15 -57 12 -72 -4 -8 -7 -28 -17
-46 -21 -17 -3 -34 -11 -37 -16 -4 -5 -15 -9 -26 -9 -25 0 -119 -47 -119 -60
0 -6 5 -10 10 -10 6 0 23 -12 37 -26 18 -18 29 -22 36 -15 6 6 15 11 20 11 5
0 1 -7 -7 -16 -25 -24 -20 -34 30 -55 25 -12 62 -36 82 -55 20 -19 42 -34 49
-34 7 0 13 -4 13 -9 0 -13 70 -84 103 -105 16 -10 33 -30 38 -44 5 -15 22 -33
37 -39 17 -8 39 -34 57 -67 16 -30 31 -53 34 -50 4 4 101 -93 101 -103 0 -3
-7 -2 -16 1 -14 5 -15 4 -4 -9 7 -8 19 -15 26 -15 8 0 14 -4 14 -10 0 -5 21
-29 47 -52 25 -24 59 -56 75 -73 15 -16 28 -27 28 -23 0 3 14 -7 31 -23 17
-15 56 -43 87 -60 92 -52 258 -170 356 -253 51 -42 83 -44 72 -2 -6 25 35 78
88 110 23 15 30 16 37 5 8 -12 10 -12 18 0 8 12 12 12 26 -2 13 -13 21 -15 37
-6 11 6 23 7 27 3 11 -15 46 -10 49 8 4 21 46 18 73 -6 21 -18 16 -41 -7 -32
-7 3 -16 1 -19 -4 -4 -6 -3 -10 2 -10 4 0 8 -15 8 -32 0 -31 -2 -33 -40 -36
-51 -3 -126 -22 -145 -36 -59 -44 -150 -68 -150 -40 0 8 -12 19 -26 24 -34 13
-34 13 -34 -12 0 -17 -3 -19 -12 -10 -20 20 -69 14 -104 -13 -18 -14 -39 -25
-48 -25 -8 0 -18 -4 -21 -10 -3 -5 -19 -10 -35 -10 -16 0 -37 -8 -47 -19 -10
-10 -39 -22 -65 -25 -53 -8 -69 -23 -45 -41 25 -18 21 -23 -25 -31 -24 -4 -37
-9 -30 -11 21 -8 13 -21 -18 -28 -30 -7 -60 -38 -60 -64 0 -11 12 -12 65 -7
55 6 65 4 73 -11 19 -36 -30 -92 -78 -88 -8 1 -19 -2 -25 -6 -13 -10 -85 -7
-85 3 0 4 -9 8 -19 8 -11 0 -23 5 -26 10 -3 5 -15 10 -25 10 -13 0 -17 5 -14
15 4 9 0 15 -9 15 -24 0 -26 23 -6 65 22 46 56 75 78 68 13 -4 13 -3 3 5 -11
7 -8 14 14 31 18 14 22 21 11 21 -8 0 -17 -4 -19 -9 -1 -5 -15 -13 -30 -16
-23 -6 -28 -4 -28 11 0 9 -3 14 -7 11 -3 -4 -12 1 -19 11 -9 13 -9 19 -1 24 7
5 3 8 -10 8 -29 0 -44 28 -29 52 9 16 7 23 -13 39 l-24 20 32 29 c20 19 27 30
17 30 -8 0 -18 -4 -21 -10 -10 -16 -22 -12 -28 10 -4 15 -14 20 -36 20 -17 0
-31 -5 -31 -11 0 -7 10 -9 27 -4 23 5 25 4 14 -9 -10 -12 -18 -13 -32 -5 -10
5 -19 15 -19 22 0 7 -4 6 -10 -3 -7 -11 -10 -12 -10 -2 0 8 -6 12 -12 9 -7 -2
-12 -10 -10 -16 1 -6 -5 -11 -13 -11 -9 0 -12 6 -8 16 4 12 0 14 -22 8 -20 -5
-26 -4 -21 5 4 6 2 11 -4 11 -6 0 -18 7 -27 15 -9 10 -23 13 -35 9 -14 -4 -18
-3 -13 6 4 7 -1 13 -14 17 -12 3 -21 11 -21 18 0 7 -13 23 -29 36 -16 13 -27
27 -25 31 3 4 1 8 -5 8 -6 0 -7 8 -4 17 5 12 2 15 -10 10 -11 -4 -18 1 -22 14
-4 10 -14 19 -24 19 -19 0 -106 75 -107 93 -2 26 -24 68 -39 73 -12 5 -13 9
-4 21 11 12 8 13 -14 8 -41 -11 -33 11 9 25 34 12 38 22 9 26 -7 1 -16 -4 -19
-12 -3 -8 -13 -14 -21 -14 -28 0 -48 -28 -40 -58 l7 -27 -24 30 c-13 16 -22
32 -21 36 1 3 -3 6 -10 6 -7 0 -36 10 -65 22 -29 12 -51 17 -47 11 3 -5 0 -10
-7 -10 -8 -1 -6 -6 6 -15 15 -12 17 -17 7 -29 -7 -9 -10 -24 -6 -36 5 -15 1
-26 -12 -36 -17 -13 -17 -14 2 -8 15 4 13 1 -5 -10 -14 -8 -20 -16 -15 -16 6
-1 2 -5 -9 -9 -17 -7 -17 -8 -2 -24 10 -9 13 -17 7 -17 -6 0 -11 -7 -11 -15 0
-8 -4 -15 -10 -15 -5 0 -10 5 -10 10 0 7 -6 7 -20 0 -11 -6 -17 -17 -14 -24 4
-11 0 -13 -14 -9 -14 3 -24 -2 -31 -16 -7 -12 -9 -21 -5 -21 4 0 -1 -9 -11
-20 -10 -11 -24 -20 -32 -20 -8 0 -11 -4 -8 -10 4 -6 -8 -10 -27 -11 -30 0
-31 -1 -10 -10 13 -5 20 -14 17 -20 -4 -6 -13 -8 -20 -5 -7 2 -18 -1 -24 -7
-8 -8 -11 -6 -11 7 0 14 -7 17 -40 15 -21 -2 -43 1 -47 6 -4 4 -3 5 4 1 6 -3
14 -2 18 4 4 6 10 8 15 5 5 -3 11 -1 15 5 4 6 11 8 16 5 5 -4 9 1 9 9 0 18
-11 21 -26 6 -6 -6 -15 -6 -24 0 -13 9 -13 11 0 20 13 8 12 10 -3 10 -10 0
-16 3 -14 8 5 7 -17 33 -28 32 -21 -1 -25 1 -20 9 3 5 1 12 -5 16 -5 3 -10 1
-10 -5 0 -6 -4 -9 -9 -6 -5 4 -12 0 -14 -6 -3 -8 -6 -6 -6 4 -1 10 -10 22 -20
28 -25 13 -34 13 -26 0 3 -5 1 -10 -4 -10 -6 0 -11 8 -11 18 0 12 -3 13 -8 4
-6 -9 -14 -4 -30 18 -22 29 -25 30 -90 26 -37 -2 -87 -7 -111 -11 -44 -8 -44
-8 -37 18 6 27 52 100 93 150 12 15 28 47 34 70 26 94 43 128 85 167 23 21 55
43 71 47 36 10 119 9 206 -2 73 -9 85 1 49 41 -10 10 -16 27 -14 36 2 13 -1
16 -12 12 -11 -4 -16 -1 -16 11 0 9 -13 30 -30 47 -16 16 -30 33 -30 36 0 4
-18 22 -40 41 -22 19 -40 40 -40 48 0 7 -7 16 -15 19 -8 4 -15 12 -15 20 0 8
-4 14 -9 14 -5 0 -12 11 -15 24 -3 13 -17 34 -31 47 -13 13 -25 29 -25 35 0 6
-11 20 -25 32 -32 28 -165 207 -165 223 0 6 -7 17 -15 23 -8 6 -21 36 -29 66
-17 67 -8 87 50 108 87 31 192 31 279 -1z m-4395 16 c0 -5 -7 -17 -16 -28 -14
-19 -14 -19 -10 5 2 14 5 26 5 28 2 6 21 1 21 -5z m2775 -238 c-11 -8 -28 -22
-37 -31 -10 -10 -18 -13 -18 -6 0 13 48 52 64 52 6 0 2 -7 -9 -15z m2565 -149
c0 -1 -5 -17 -11 -35 -8 -21 -17 -31 -32 -31 -20 0 -20 0 1 23 12 13 22 29 22
35 0 7 5 12 10 12 6 0 10 -2 10 -4z m-87 -100 c-12 -15 -24 -21 -32 -17 -9 6
-5 14 16 29 35 25 41 21 16 -12z m-4604 -45 c30 -38 39 -61 24 -61 -32 1 -95
100 -64 100 5 0 23 -18 40 -39z m4995 -2 c-8 -8 -14 -31 -14 -51 0 -39 -19
-62 -69 -79 -18 -6 -47 -27 -65 -45 -18 -19 -39 -34 -45 -34 -7 0 -38 26 -69
57 -48 49 -54 58 -37 61 11 3 33 15 51 28 17 13 55 37 85 53 44 25 63 29 115
28 57 -2 61 -3 48 -18z m-2681 -41 c34 -77 47 -118 41 -133 -4 -10 -10 -9 -25
6 -10 10 -19 23 -19 28 0 5 -11 16 -24 24 -22 15 -26 15 -47 -3 -27 -24 -35
-25 -47 -3 -13 21 4 70 28 83 15 8 20 4 29 -20 14 -41 31 -38 24 5 -5 32 0 65
11 65 3 0 16 -24 29 -52z m-119 -155 c23 3 50 7 61 9 11 2 21 -3 22 -13 3 -12
-7 -16 -44 -17 -37 -2 -53 -8 -70 -27 -28 -32 -40 -31 -55 0 -8 19 -8 31 0 51
11 23 13 24 29 9 12 -12 27 -15 57 -12z m-1164 -73 c0 -5 -5 -10 -11 -10 -5 0
-7 5 -4 10 3 6 8 10 11 10 2 0 4 -4 4 -10z m43 -22 c-6 -31 -19 -38 -20 -10 0
16 17 46 23 40 1 -2 0 -15 -3 -30z m3892 -148 c3 -5 1 -10 -4 -10 -6 0 -11 5
-11 10 0 6 2 10 4 10 3 0 8 -4 11 -10z m495 -167 c0 -12 -33 -43 -45 -43 -7 0
-18 -7 -25 -15 -7 -8 -21 -15 -31 -15 -35 0 -19 29 29 54 47 25 72 32 72 19z
m-4523 -35 c-3 -8 -6 -5 -6 6 -1 11 2 17 5 13 3 -3 4 -12 1 -19z m1293 -2 c0
-2 -7 -6 -15 -10 -8 -3 -15 -1 -15 4 0 6 7 10 15 10 8 0 15 -2 15 -4z m2045
-26 c8 -13 -5 -13 -25 0 -13 8 -13 10 2 10 9 0 20 -4 23 -10z m-3404 -74 c-6
-14 -13 -26 -16 -26 -4 0 -3 5 0 10 11 17 -11 11 -39 -11 -14 -11 -26 -17 -26
-12 1 8 83 72 88 68 1 -1 -2 -14 -7 -29z m-11 -41 c0 -2 -10 -9 -22 -15 -22
-11 -22 -10 -4 4 21 17 26 19 26 11z m1927 -101 c-3 -3 -12 -4 -19 -1 -8 3 -5
6 6 6 11 1 17 -2 13 -5z m-687 -14 c0 -5 -4 -10 -10 -10 -5 0 -10 5 -10 10 0
6 5 10 10 10 6 0 10 -4 10 -10z m1781 -139 c-10 -6 -10 -10 -1 -16 7 -5 2 -12
-16 -21 -34 -18 -46 -14 -50 13 -4 21 6 26 66 31 12 1 12 0 1 -7z m-78 -16 c4
-8 1 -17 -4 -21 -6 -3 -2 -12 10 -21 12 -8 19 -19 16 -24 -4 -5 -1 -9 4 -9 6
0 11 -4 11 -10 0 -5 -7 -6 -17 -3 -10 4 -14 2 -9 -5 3 -6 2 -13 -3 -17 -6 -3
-8 -12 -5 -19 7 -18 -28 -16 -39 2 -4 6 -19 12 -32 12 -14 0 -25 5 -25 10 0 6
-10 10 -22 10 l-23 0 25 -20 c14 -11 31 -20 39 -20 8 0 11 -6 7 -16 -3 -8 -2
-13 3 -10 4 3 16 -3 26 -14 15 -17 16 -20 3 -20 -9 0 -29 -7 -44 -15 -16 -8
-25 -15 -21 -15 5 0 1 -7 -7 -16 -10 -10 -24 -13 -37 -9 -19 6 -21 4 -16 -15
4 -16 2 -20 -9 -16 -17 7 -18 -6 -2 -22 10 -10 5 -11 -25 -8 -28 4 -37 2 -37
-10 0 -8 4 -13 9 -9 5 3 12 1 16 -5 9 -15 -12 -12 -48 7 -18 9 -48 16 -67 15
-33 0 -33 0 -10 9 13 6 26 12 28 14 9 8 -24 31 -38 28 -10 -3 -8 1 4 11 19 16
19 16 -2 16 -12 0 -22 2 -22 5 0 11 43 86 54 93 20 13 47 62 40 74 -4 7 -3 8
4 4 7 -4 12 -14 12 -23 0 -16 14 -9 16 8 1 5 2 13 3 19 0 5 11 15 24 21 20 11
21 11 8 -5 -12 -14 -12 -16 3 -10 9 3 16 10 16 14 0 15 82 39 166 49 7 0 14
-6 17 -14z m86 -55 c-11 -8 -49 -2 -49 7 0 3 9 3 21 0 16 -4 19 -2 15 10 -6
13 -4 14 9 3 12 -10 13 -15 4 -20z m2091 -94 c0 -2 -7 -7 -16 -10 -8 -3 -12
-2 -9 4 6 10 25 14 25 6z m-243 -62 c-3 -3 -12 -4 -19 -1 -8 3 -5 6 6 6 11 1
17 -2 13 -5z m-6317 -37 c0 -2 -12 -14 -27 -28 -24 -22 -24 -13 0 19 8 11 27
17 27 9z m2303 -4 c-7 -2 -19 -2 -25 0 -7 3 -2 5 12 5 14 0 19 -2 13 -5z
m-803 -13 c13 -9 11 -13 -9 -29 -45 -34 -103 -14 -71 24 14 17 58 20 80 5z
m-1683 -16 c-3 -3 -12 -4 -19 -1 -8 3 -5 6 6 6 11 1 17 -2 13 -5z m2502 -117
c1 -4 -7 -3 -16 2 -10 5 -35 12 -56 15 -33 5 -40 3 -44 -14 -6 -23 -19 -26
-26 -6 -9 24 15 75 38 78 19 4 102 -56 104 -75z m-623 -55 c-18 -16 -18 -16
-6 6 6 13 14 21 18 18 3 -4 -2 -14 -12 -24z m747 -12 c32 -12 69 -32 83 -44
l26 -22 -29 1 c-25 0 -163 87 -163 102 0 3 6 1 13 -5 7 -6 38 -20 70 -32z
m704 -25 c55 -16 83 -37 83 -61 0 -7 9 -24 19 -36 72 -83 70 -81 44 -71 -10 4
-14 2 -10 -4 4 -6 -4 -10 -20 -10 -14 0 -32 -8 -38 -17 -7 -9 -17 -16 -23 -16
-6 0 -18 -13 -27 -30 -16 -32 -20 -54 -5 -30 5 8 12 12 15 8 9 -9 -14 -50 -25
-43 -5 3 -5 -7 0 -25 11 -37 55 -77 95 -85 42 -9 95 -59 95 -90 0 -29 -7 -31
-32 -8 -17 15 -18 15 -18 -5 0 -30 -13 -34 -49 -16 -25 13 -35 13 -46 4 -8 -7
-15 -9 -15 -6 0 4 -8 2 -19 -3 -25 -14 -24 -67 2 -63 9 2 25 -2 35 -7 14 -9
12 -10 -14 -11 -36 0 -72 -39 -139 -148 -42 -69 -52 -79 -66 -65 -18 18 42
152 93 206 27 27 27 29 9 48 -17 19 -18 19 -40 0 -12 -10 -34 -24 -50 -30 -31
-13 -36 -38 -12 -61 13 -13 12 -15 -7 -18 -13 -2 -22 -11 -22 -20 0 -13 -2
-14 -8 -4 -7 9 -17 6 -43 -13 -19 -13 -45 -29 -57 -35 -13 -6 -54 -29 -90 -53
-37 -23 -84 -50 -106 -60 -33 -15 -38 -16 -33 -2 6 13 3 13 -18 -1 -22 -14
-30 -27 -23 -36 5 -8 -24 -48 -32 -43 -5 3 -11 1 -15 -4 -3 -6 -13 -7 -22 -4
-11 4 -14 2 -9 -5 9 -15 -11 -53 -26 -49 -7 1 -14 -6 -16 -16 -5 -26 -35 -53
-66 -61 -22 -5 -26 -11 -21 -27 5 -14 0 -29 -17 -46 -23 -24 -23 -25 -3 -40
20 -15 20 -15 -2 -10 -13 3 -25 2 -28 -3 -2 -4 -16 -5 -30 -2 -18 3 -25 0 -25
-11 0 -8 5 -17 11 -19 5 -2 7 -11 4 -20 -5 -12 -19 -17 -53 -17 -26 0 -73 -2
-104 -4 -59 -4 -69 1 -44 22 7 6 16 30 19 52 6 48 14 59 27 39 9 -14 12 -11
14 19 1 14 16 25 49 35 21 7 23 26 2 26 -18 0 -18 2 -3 35 13 29 23 32 36 9 7
-12 10 -13 19 -2 22 28 23 48 3 48 -10 0 -22 -5 -26 -11 -10 -16 -26 5 -18 24
3 9 10 17 15 17 5 0 9 8 9 18 0 11 9 29 20 42 11 13 20 29 20 37 0 8 29 43 64
78 63 63 63 63 68 130 3 37 11 72 17 78 6 6 11 19 11 30 0 10 5 15 11 12 6 -4
13 2 16 14 3 12 9 21 14 21 12 0 11 47 -1 55 -18 11 -10 79 13 106 28 33 55
47 104 55 57 8 67 12 80 33 9 14 9 24 -2 44 -7 13 -14 43 -17 66 -3 34 -1 40
12 35 8 -3 33 -8 55 -11 34 -4 45 0 74 25 35 31 107 66 194 97 27 9 54 23 60
30 13 15 27 14 104 -10z m-3409 -250 l1 -20 -9 20 c-5 11 -8 31 -8 45 l0 25 8
-25 c4 -14 8 -34 8 -45z m1537 -255 c3 -5 1 -10 -4 -10 -6 0 -11 5 -11 10 0 6
2 10 4 10 3 0 8 -4 11 -10z m25 -40 c0 -5 -4 -10 -9 -10 -6 0 -13 5 -16 10 -3
6 1 10 9 10 9 0 16 -4 16 -10z m270 -532 c0 6 5 12 10 12 7 0 7 -7 -1 -22 -10
-18 -9 -20 5 -15 11 4 15 3 11 -4 -4 -6 -13 -8 -20 -5 -18 7 -55 -31 -55 -57
-1 -18 -2 -19 -10 -6 -6 11 -4 27 8 50 31 60 33 63 43 48 6 -10 9 -11 9 -1z
m40 -58 c0 -5 -4 -10 -10 -10 -5 0 -10 5 -10 10 0 6 5 10 10 10 6 0 10 -4 10
-10z m530 6 c0 -3 -4 -8 -10 -11 -5 -3 -10 -1 -10 4 0 6 5 11 10 11 6 0 10 -2
10 -4z m-495 -26 c-3 -5 -12 -10 -18 -10 -7 0 -6 4 3 10 19 12 23 12 15 0z
m745 -95 c-7 -8 -20 -15 -29 -15 -9 0 -22 -5 -29 -12 -6 -6 -15 -9 -19 -5 -10
11 13 30 50 43 37 13 45 10 27 -11z m-922 -15 c-7 -10 -14 -18 -15 -16 -6 6 9
36 18 36 5 0 4 -9 -3 -20z m-935 -14 c8 -21 -10 -242 -21 -263 -9 -16 -12 -14
-23 12 -7 17 -19 38 -27 48 -13 15 -13 17 1 17 21 0 22 22 1 62 -19 36 -13 66
22 107 29 34 39 38 47 17z m1625 -118 c20 -20 14 -36 -13 -30 -24 4 -33 21
-18 35 9 10 17 9 31 -5z m-1750 -29 c7 -12 12 -22 10 -22 -2 -1 -17 -10 -35
-19 -39 -22 -43 -22 -43 -1 0 16 37 63 49 63 4 0 12 -9 19 -21z m1499 -50 c15
-6 36 -12 46 -14 23 -5 117 -52 137 -68 36 -30 72 -76 66 -85 -3 -6 -27 -5
-62 4 -31 7 -62 10 -70 7 -24 -9 -72 18 -93 52 -15 26 -24 32 -44 28 -35 -7
-67 13 -67 42 0 39 37 54 87 34z m-1597 -49 c0 -13 54 -40 80 -40 11 0 20 -5
20 -11 0 -13 -40 -8 -88 12 -31 13 -35 12 -48 -5 -15 -22 -18 -9 -8 32 6 21
44 32 44 12z"/>
<path d="M3793 4173 c9 -9 20 -13 24 -9 4 4 1 11 -7 16 -25 16 -35 11 -17 -7z"/>
<path d="M3696 4131 c-3 -5 0 -11 8 -14 15 -6 26 1 26 15 0 11 -27 10 -34 -1z"/>
<path d="M4206 3495 c-3 -8 -1 -15 3 -15 5 0 11 7 15 15 3 8 1 15 -3 15 -5 0
-11 -7 -15 -15z"/>
<path d="M3940 3341 c0 -5 5 -13 10 -16 6 -3 10 -2 10 4 0 5 -4 13 -10 16 -5
3 -10 2 -10 -4z"/>
<path d="M4095 3086 c10 -7 15 -18 11 -24 -4 -7 -1 -12 8 -12 9 0 16 -4 16
-10 0 -5 -7 -10 -15 -10 -9 0 -12 -6 -8 -16 5 -12 12 -9 39 17 l34 32 -28 17
c-15 9 -38 17 -51 17 -21 2 -22 1 -6 -11z"/>
<path d="M4025 2960 c-11 -4 -33 -6 -50 -3 l-30 4 28 -16 c15 -9 27 -24 27
-35 0 -27 16 -25 31 2 7 12 21 29 31 38 19 15 19 16 1 17 -10 0 -27 -3 -38 -7z"/>
<path d="M3953 2897 c4 -10 7 -24 7 -30 0 -8 3 -8 11 0 9 9 7 16 -7 30 -17 17
-18 17 -11 0z"/>
<path d="M3770 2689 c0 -5 5 -7 10 -4 6 3 10 8 10 11 0 2 -4 4 -10 4 -5 0 -10
-5 -10 -11z"/>
<path d="M3421 2501 c-17 -11 -7 -41 14 -41 8 0 15 4 15 9 0 5 3 16 6 25 7 18
-12 21 -35 7z"/>
<path d="M3760 2409 c0 -5 5 -7 10 -4 6 3 10 8 10 11 0 2 -4 4 -10 4 -5 0 -10
-5 -10 -11z"/>
<path d="M3694 2344 c3 -9 6 -18 6 -20 0 -2 5 -4 10 -4 6 0 10 9 10 20 0 12
-7 20 -16 20 -11 0 -14 -5 -10 -16z"/>
<path d="M3635 2100 c3 -5 17 -10 31 -10 14 0 22 4 19 10 -3 6 -17 10 -31 10
-14 0 -22 -4 -19 -10z"/>
<path d="M1021 3844 c0 -11 3 -14 6 -6 3 7 2 16 -1 19 -3 4 -6 -2 -5 -13z"/>
<path d="M860 3843 c-22 -8 -50 -35 -50 -47 0 -6 5 -3 11 6 5 10 25 20 44 24
19 3 35 10 35 15 0 10 -16 11 -40 2z"/>
<path d="M1051 3834 c0 -11 3 -14 6 -6 3 7 2 16 -1 19 -3 4 -6 -2 -5 -13z"/>
<path d="M855 3800 c-17 -7 -17 -9 -2 -9 9 -1 17 -6 17 -12 0 -5 -4 -8 -9 -5
-12 8 -41 -3 -41 -15 0 -19 36 -49 58 -49 22 0 23 3 17 43 -8 51 -14 57 -40
47z"/>
<path d="M1023 3754 c-18 -18 -16 -31 4 -38 17 -7 38 14 24 24 -4 3 -10 10
-12 17 -3 8 -8 7 -16 -3z"/>
<path d="M887 3685 c3 -8 9 -12 14 -9 12 7 11 11 -5 17 -10 4 -13 1 -9 -8z"/>
<path d="M850 3655 c-8 -9 -8 -15 -2 -15 12 0 26 19 19 26 -2 2 -10 -2 -17
-11z"/>
<path d="M295 4190 c-3 -5 -1 -10 4 -10 6 0 11 5 11 10 0 6 -2 10 -4 10 -3 0
-8 -4 -11 -10z"/>
<path d="M5405 3320 c-8 -13 5 -13 25 0 13 8 13 10 -2 10 -9 0 -20 -4 -23 -10z"/>
<path d="M5093 2966 c-27 -23 -27 -26 -15 -60 8 -20 15 -50 17 -67 6 -44 39
-84 106 -130 l59 -40 -31 52 c-39 67 -36 85 14 81 30 -3 37 0 37 15 0 39 -75
132 -107 133 -7 0 -17 9 -23 20 -14 26 -23 25 -57 -4z"/>
<path d="M5770 2848 c1 -26 16 -48 45 -64 11 -6 25 -21 31 -33 17 -33 34 -49
34 -31 0 7 3 11 6 7 3 -3 -1 -16 -10 -28 -16 -23 -7 -49 18 -49 6 0 2 7 -8 15
-22 16 -10 20 14 5 8 -5 11 -12 7 -16 -4 -4 -2 -13 3 -19 9 -10 17 -46 22 -92
1 -7 4 -11 6 -8 3 3 10 1 16 -5 7 -5 17 -5 26 2 12 8 11 9 -4 4 -16 -5 -17 -4
-7 8 7 8 19 12 27 9 10 -4 14 3 14 25 0 33 -14 50 -26 31 -4 -8 -9 -7 -15 2
-5 8 -3 16 4 21 8 5 6 12 -6 26 -9 10 -17 24 -17 30 0 15 -110 122 -122 119
-6 -1 -18 13 -27 30 -19 38 -31 42 -31 11z m181 -245 c13 -16 12 -17 -3 -4
-10 7 -18 15 -18 17 0 8 8 3 21 -13z"/>
<path d="M5295 2780 c3 -5 10 -10 16 -10 5 0 9 5 9 10 0 6 -7 10 -16 10 -8 0
-12 -4 -9 -10z"/>
<path d="M5893 2526 c4 -9 1 -16 -6 -17 -7 0 -2 -5 11 -11 13 -7 21 -17 18
-25 -3 -7 1 -13 9 -13 8 0 18 -1 23 -2 4 -2 7 10 7 26 1 17 -5 30 -15 33 -8 2
-24 9 -34 15 -15 8 -18 7 -13 -6z"/>
<path d="M4920 2280 c-12 -8 -10 -9 7 -7 12 2 26 6 29 10 11 11 -19 8 -36 -3z"/>
<path d="M6047 2039 c8 -8 16 -8 30 0 16 9 14 10 -11 11 -22 0 -27 -3 -19 -11z"/>
<path d="M4750 2141 c0 -10 19 -25 25 -20 1 2 -3 10 -11 17 -8 7 -14 8 -14 3z"/>
<path d="M1375 4870 c-3 -5 3 -10 15 -10 12 0 18 5 15 10 -3 6 -10 10 -15 10
-5 0 -12 -4 -15 -10z"/>
<path d="M180 4791 c0 -5 5 -13 10 -16 6 -3 10 -2 10 4 0 5 -4 13 -10 16 -5 3
-10 2 -10 -4z"/>
<path d="M3720 4769 c0 -4 7 -12 15 -19 12 -10 18 -10 30 0 22 19 18 25 -15
25 -16 0 -30 -3 -30 -6z"/>
<path d="M3250 4570 c0 -13 18 -22 24 -11 3 5 -1 11 -9 15 -8 3 -15 1 -15 -4z"/>
<path d="M3200 4525 c0 -8 7 -15 15 -15 8 0 15 7 15 15 0 8 -7 15 -15 15 -8 0
-15 -7 -15 -15z"/>
<path d="M3230 4490 c0 -5 7 -10 15 -10 8 0 15 5 15 10 0 6 -7 10 -15 10 -8 0
-15 -4 -15 -10z"/>
<path d="M1165 4439 c-10 -15 1 -23 20 -15 9 3 13 10 10 16 -8 13 -22 13 -30
-1z"/>
<path d="M0 3857 c0 -56 1 -57 62 -117 58 -56 98 -82 98 -63 0 5 -11 17 -25
27 -14 10 -25 25 -25 33 0 8 -7 22 -16 31 -15 14 -15 17 1 29 10 7 22 10 27 6
6 -3 8 3 6 13 -2 14 -16 21 -51 28 -35 6 -47 13 -47 26 0 10 -7 23 -15 30 -13
11 -15 5 -15 -43z"/>
<path d="M136 3842 c-3 -6 -1 -14 5 -17 15 -10 25 3 12 16 -7 7 -13 7 -17 1z"/>
<path d="M6874 3794 c3 -9 6 -18 6 -20 0 -2 7 -4 15 -4 13 0 13 3 3 20 -15 24
-33 27 -24 4z"/>
<path d="M6507 3743 c-4 -3 -7 -11 -7 -17 0 -6 5 -5 12 2 6 6 9 14 7 17 -3 3
-9 2 -12 -2z"/>
<path d="M6378 3623 c7 -3 16 -2 19 1 4 3 -2 6 -13 5 -11 0 -14 -3 -6 -6z"/>
<path d="M6496 3497 c-14 -10 -16 -16 -7 -22 15 -9 35 8 30 24 -3 8 -10 7 -23
-2z"/>
<path d="M6715 3350 c-10 -11 -13 -20 -7 -20 6 0 14 5 17 10 4 6 10 8 15 5 4
-3 10 2 14 10 8 22 -18 18 -39 -5z"/>
<path d="M2935 3249 c-4 -6 -5 -13 -2 -16 7 -7 27 6 27 18 0 12 -17 12 -25 -2z"/>
<path d="M1901 3092 c0 -13 8 -32 19 -44 16 -17 20 -18 20 -6 0 9 -6 18 -14
21 -8 3 -16 16 -19 29 l-4 23 -2 -23z"/>
<path d="M1385 2880 c4 -6 11 -8 16 -5 14 9 11 15 -7 15 -8 0 -12 -5 -9 -10z"/>
<path d="M2924 2655 c5 -30 4 -36 -4 -25 -8 11 -9 8 -4 -14 5 -19 2 -31 -7
-37 -8 -5 -9 -9 -3 -9 31 0 51 84 26 109 -13 14 -14 11 -8 -24z"/>
<path d="M2474 2615 c-4 -8 -16 -15 -28 -15 -11 0 -30 -7 -40 -15 -19 -14 -19
-15 8 -15 30 0 96 27 96 40 0 15 -31 19 -36 5z"/>
<path d="M1552 2510 c14 -22 24 -19 15 5 -4 8 -11 15 -17 15 -6 0 -6 -7 2 -20z"/>
<path d="M1500 2484 c1 -23 18 -35 43 -28 27 6 37 24 15 24 -7 0 -23 3 -35 6
-13 4 -23 2 -23 -2z"/>
<path d="M2387 2484 c-13 -13 -7 -24 14 -24 11 0 19 5 17 12 -5 14 -22 21 -31
12z"/>
<path d="M1443 2453 c-1 -12 6 -18 21 -19 32 -2 76 -33 76 -53 0 -11 9 -17 25
-19 23 -2 24 0 13 18 -7 11 -21 23 -30 26 -10 3 -18 9 -18 14 0 9 -62 50 -77
50 -5 0 -9 -8 -10 -17z"/>
<path d="M2940 2440 c0 -5 5 -10 11 -10 5 0 7 5 4 10 -3 6 -8 10 -11 10 -2 0
-4 -4 -4 -10z"/>
<path d="M1470 2395 c0 -9 6 -12 15 -9 8 4 12 10 9 15 -8 14 -24 10 -24 -6z"/>
<path d="M2878 2353 c7 -3 16 -2 19 1 4 3 -2 6 -13 5 -11 0 -14 -3 -6 -6z"/>
<path d="M315 2340 c-4 -6 -11 -8 -16 -5 -5 4 -9 1 -9 -4 0 -16 16 -13 30 4 7
8 10 15 7 15 -3 0 -9 -5 -12 -10z"/>
<path d="M293 2301 c-27 -22 -19 -35 11 -19 11 7 24 11 29 10 4 -1 7 5 7 13 0
20 -20 18 -47 -4z"/>
<path d="M318 2261 c-18 -16 -30 -33 -26 -37 9 -8 45 21 59 48 14 26 4 22 -33
-11z"/>
<path d="M265 2250 c-3 -5 -1 -10 4 -10 6 0 11 5 11 10 0 6 -2 10 -4 10 -3 0
-8 -4 -11 -10z"/>
<path d="M30 2198 c-12 -22 -12 -22 6 -6 10 10 15 20 12 24 -4 3 -12 -5 -18
-18z"/>
<path d="M30 2160 c-6 -12 -9 -24 -7 -27 3 -2 11 5 17 17 6 12 9 24 7 27 -3 2
-11 -5 -17 -17z"/>
<path d="M2780 2155 c0 -15 -10 -19 -45 -15 -15 1 -17 -1 -8 -10 12 -13 73 -4
73 11 0 5 7 9 16 9 8 0 12 5 9 10 -10 16 -45 12 -45 -5z"/>
<path d="M2720 2090 c20 -13 40 -13 40 0 0 6 -12 10 -27 10 -22 0 -25 -2 -13
-10z"/>
<path d="M10 2060 c-8 -5 -12 -11 -9 -14 2 -3 11 -1 19 4 8 5 12 11 9 14 -2 3
-11 1 -19 -4z"/>
<path d="M7265 2050 c-3 -5 -1 -10 4 -10 6 0 11 5 11 10 0 6 -2 10 -4 10 -3 0
-8 -4 -11 -10z"/>
<path d="M7304 1923 c-104 -71 -232 -154 -282 -187 -51 -32 -98 -64 -105 -70
-17 -16 -112 -76 -121 -76 -4 0 -34 -20 -66 -45 -32 -25 -68 -45 -79 -45 -12
0 -21 -6 -21 -13 0 -7 -53 -48 -117 -91 -65 -43 -136 -92 -158 -107 -22 -16
-111 -75 -197 -132 -87 -56 -231 -150 -320 -208 -366 -239 -428 -279 -433
-279 -3 0 -25 -15 -49 -32 -24 -18 -67 -46 -95 -63 -28 -16 -122 -76 -209
-132 -226 -146 -280 -180 -447 -283 -82 -51 -172 -108 -200 -127 l-50 -34 910
5 c501 2 915 4 920 4 133 -6 1255 -6 1255 -1 0 5 -7 17 -15 27 -8 11 -15 32
-15 46 0 14 -5 31 -12 38 -14 14 -45 150 -53 232 -3 30 -8 71 -12 90 -3 19 -6
37 -6 40 1 3 3 39 7 80 3 41 12 101 21 133 8 32 15 65 15 73 0 38 33 82 81
108 l49 27 0 575 c0 316 -1 574 -3 574 -1 0 -88 -57 -193 -127z m-647 -899
c-3 -3 -12 -4 -19 -1 -8 3 -5 6 6 6 11 1 17 -2 13 -5z m752 -137 c-59 -40 -91
-105 -100 -205 -5 -48 -12 -114 -18 -147 -5 -33 -12 -80 -16 -105 -11 -76 -15
-91 -25 -85 -6 4 -9 -7 -8 -27 2 -24 -1 -33 -12 -33 -10 0 -14 8 -12 23 3 18
-1 22 -15 20 -13 -2 -19 4 -21 24 -2 16 -11 30 -23 33 -10 4 -19 11 -19 17 0
6 -7 16 -15 22 -9 7 -16 33 -18 66 -4 59 -27 140 -39 140 -5 0 -8 5 -8 11 0 5
6 7 13 3 9 -6 9 -5 1 7 -17 21 -10 68 19 124 59 112 95 129 286 134 l64 1 -34
-23z m-363 -94 c-29 -55 -64 -139 -71 -173 -6 -29 -18 -57 -42 -99 -2 -2 -9 1
-17 8 -20 17 -26 59 -9 73 8 7 12 21 9 34 -4 13 2 31 15 48 12 15 19 29 16 32
-7 8 55 74 70 74 8 0 16 7 19 15 4 8 10 15 16 15 5 0 2 -12 -6 -27z m-1626
-647 c0 -3 -4 -8 -10 -11 -5 -3 -10 -1 -10 4 0 6 5 11 10 11 6 0 10 -2 10 -4z"/>
<path d="M2060 1953 c0 -4 5 -15 10 -23 7 -11 10 -11 10 -2 0 7 5 10 11 6 7
-4 10 -1 7 7 -5 15 -38 26 -38 12z"/>
<path d="M2135 1920 c-16 -16 -34 -30 -39 -30 -6 0 -12 -12 -13 -26 0 -14 2
-22 6 -18 5 5 27 30 51 57 46 51 42 66 -5 17z"/>
<path d="M1790 433 c0 -29 2 -29 19 5 10 18 9 22 -4 22 -10 0 -15 -9 -15 -27z"/>
<path d="M3891 324 c0 -11 3 -14 6 -6 3 7 2 16 -1 19 -3 4 -6 -2 -5 -13z"/>
</g>
</svg>
