<?xml version="1.0" standalone="no"?>
<!DOCTYPE svg PUBLIC "-//W3C//DTD SVG 20010904//EN"
 "http://www.w3.org/TR/2001/REC-SVG-20010904/DTD/svg10.dtd">
<svg version="1.0" xmlns="http://www.w3.org/2000/svg"
 width="456.000000pt" height="352.000000pt" viewBox="0 0 456.000000 352.000000"
 preserveAspectRatio="xMidYMid meet">
<metadata>
Created by potrace 1.11, written by Peter Selinger 2001-2013
</metadata>
<g transform="translate(0.000000,352.000000) scale(0.100000,-0.100000)"
fill="#000000" stroke="none">
<path d="M0 1898 c0 -1611 0 -1623 20 -1591 21 36 55 58 65 43 3 -5 12 -7 20
-3 8 3 15 1 15 -5 0 -6 2 -17 5 -24 4 -11 -3 -14 -27 -13 -22 1 -44 -7 -65
-23 l-33 -24 0 -129 0 -129 1844 0 1843 0 11 43 c7 23 16 61 22 84 12 48 13
48 127 57 67 6 71 5 66 -14 -3 -11 0 -20 6 -20 22 0 11 -40 -13 -50 -33 -12
-42 -30 -19 -36 14 -4 19 -13 18 -35 -2 -29 -1 -29 51 -29 l52 0 33 58 c36 63
52 58 20 -7 -12 -22 -21 -43 -21 -46 0 -3 117 -5 260 -5 l260 0 0 155 0 155
-47 1 c-61 2 -82 4 -113 13 l-25 7 24 -19 25 -20 -86 3 c-47 1 -92 6 -99 10
-11 6 -12 5 -1 -6 6 -7 12 -16 12 -20 0 -10 -122 -2 -155 11 -17 6 -24 7 -20
0 3 -6 13 -10 21 -10 9 0 14 -6 11 -12 -4 -14 -88 -13 -144 2 -32 8 -45 -1
-22 -16 8 -5 7 -9 -4 -15 -9 -6 -44 -3 -87 6 -88 19 -83 19 -70 -5 10 -20 9
-20 -47 -14 -77 9 -110 21 -95 36 6 6 19 11 29 12 10 1 39 6 64 10 l46 8 24
71 c13 40 23 80 21 91 -1 10 3 25 9 32 6 7 8 17 5 23 -9 13 20 258 39 330 27
106 66 203 106 267 41 64 46 80 28 86 -6 2 7 26 28 53 30 40 38 46 41 31 2
-10 -5 -31 -17 -47 -12 -15 -21 -38 -21 -51 l1 -23 19 25 c11 14 24 30 28 35
4 6 8 19 8 30 1 11 4 42 9 70 8 47 7 49 -10 35 -17 -14 -18 -12 -11 40 4 30
11 58 15 63 4 4 20 -6 36 -23 28 -29 28 -30 9 -46 -10 -8 -14 -13 -7 -10 19
10 43 -5 43 -25 0 -11 -7 -22 -15 -25 -9 -4 -15 -19 -15 -38 0 -18 -5 -37 -12
-44 -9 -9 -7 -16 6 -31 17 -18 16 -21 -7 -58 -24 -37 -44 -141 -73 -388 -4
-33 -13 -76 -20 -97 -7 -20 -10 -39 -7 -42 9 -9 -40 -116 -54 -116 -7 0 -13
-4 -13 -10 0 -5 7 -10 16 -10 12 0 15 -6 11 -22 -11 -45 -27 -113 -32 -136 -4
-15 -1 -22 9 -22 10 0 17 17 22 56 5 45 9 53 16 39 6 -9 8 -33 5 -52 l-6 -36
87 7 c48 3 107 8 132 11 25 3 86 9 135 14 50 5 99 12 110 14 11 3 35 6 53 6
l32 1 0 706 0 706 -57 -6 c-32 -4 -67 -7 -79 -8 -19 0 -18 -3 10 -34 16 -19
35 -34 41 -34 6 0 27 -16 46 -37 18 -20 28 -33 22 -29 -9 5 -11 -2 -7 -26 4
-28 1 -25 -26 25 -17 31 -33 57 -36 57 -2 0 0 -9 6 -20 11 -21 3 -69 -28 -160
-15 -43 -20 -51 -25 -35 -4 11 0 45 8 75 29 108 16 163 -44 193 -25 12 -29 12
-24 1 3 -8 11 -14 18 -14 16 0 45 -33 45 -51 -1 -9 -8 -5 -22 11 l-21 25 6
-25 c18 -79 20 -103 6 -98 -8 2 -15 21 -17 41 -4 41 -24 51 -59 29 -17 -11
-23 -11 -23 -2 0 9 -4 9 -12 3 -26 -20 -75 -32 -87 -20 -17 17 -13 62 9 90 11
14 20 30 20 36 0 18 -35 13 -58 -9 -21 -19 -22 -20 -65 -2 -36 14 -44 21 -41
39 2 12 -1 25 -6 28 -6 3 -10 0 -10 -7 0 -8 -5 -7 -16 4 -15 15 -15 18 0 39 9
13 16 33 16 46 0 12 5 25 10 28 6 3 10 -1 10 -9 0 -10 9 -16 23 -16 13 0 26
-9 32 -22 15 -34 72 -27 105 12 32 38 50 38 50 1 0 -16 8 -39 19 -52 16 -20
21 -21 35 -10 11 9 20 10 29 3 15 -12 77 -8 86 7 4 6 23 10 42 9 18 -1 42 2
52 6 16 8 17 57 17 832 l0 824 -2280 0 -2280 0 0 -1622z m1645 1376 c1 -10 6
-18 12 -17 6 1 10 -5 9 -14 -2 -22 19 -27 37 -8 22 21 61 20 53 -2 -4 -9 -1
-20 6 -24 9 -6 9 -11 -1 -23 -20 -24 6 -29 69 -13 45 12 50 15 29 20 -20 6
-21 9 -9 17 13 8 12 10 -5 11 -11 1 -23 1 -28 0 -4 -1 -2 8 5 19 13 20 38 28
38 11 0 -13 54 -21 62 -8 3 5 2 21 -3 34 -7 19 -5 23 10 23 10 0 24 -7 31 -15
7 -8 18 -15 26 -15 17 0 37 -37 24 -45 -6 -4 -6 -15 0 -30 5 -14 6 -25 2 -25
-4 0 0 -6 10 -13 17 -13 43 -95 34 -105 -3 -3 -18 -7 -32 -8 -22 -2 -25 0 -20
19 4 18 1 23 -14 24 -11 1 -19 -4 -17 -10 2 -12 -50 -14 -61 -2 -10 9 19 24
37 18 9 -2 4 3 -11 12 -31 18 -37 35 -11 35 14 0 15 2 4 13 -11 10 -14 10 -18
0 -3 -7 -11 -13 -19 -13 -8 0 -14 -4 -14 -10 0 -6 -10 -5 -25 2 -13 6 -22 15
-19 19 3 5 -2 9 -11 9 -11 0 -15 -5 -11 -15 3 -8 2 -16 -2 -16 -4 -1 -19 -3
-34 -4 -15 -2 -38 -11 -52 -20 -24 -16 -28 -16 -60 3 -36 22 -55 23 -77 6 -8
-6 -29 -16 -47 -22 l-33 -11 6 32 c22 101 129 233 130 161z m155 -28 c0 -3 -4
-8 -10 -11 -5 -3 -10 -1 -10 4 0 6 5 11 10 11 6 0 10 -2 10 -4z m-259 -191 c0
-6 -10 -12 -23 -13 -19 -4 -20 -2 -9 12 15 17 33 18 32 1z m179 -69 c0 17 48
14 94 -5 24 -11 47 -17 50 -14 3 4 6 0 6 -8 0 -10 12 -16 34 -17 37 -3 56 12
29 22 -22 9 -8 21 46 40 41 14 46 13 57 -2 8 -11 9 -24 2 -44 -6 -16 -8 -44
-6 -64 3 -28 1 -34 -11 -29 -17 7 -88 22 -135 30 -16 2 -47 21 -69 42 -32 31
-38 34 -32 15 6 -20 4 -21 -18 -13 -14 6 -27 8 -28 7 -2 -2 -31 -6 -63 -10
-52 -6 -57 -5 -46 9 22 26 3 16 -33 -17 -19 -18 -49 -41 -66 -51 -27 -16 -31
-16 -31 -3 0 9 -5 16 -11 16 -6 0 -9 12 -7 28 2 21 9 28 31 30 19 2 27 -1 27
-12 0 -9 3 -16 7 -16 13 0 133 84 133 93 0 6 9 0 20 -13 11 -13 20 -19 20 -14z
m30 30 c0 -3 -4 -8 -10 -11 -5 -3 -10 -1 -10 4 0 6 5 11 10 11 6 0 10 -2 10
-4z m320 -6 c0 -5 -5 -10 -11 -10 -5 0 -7 5 -4 10 3 6 8 10 11 10 2 0 4 -4 4
-10z m-133 -6 c-3 -3 -12 -4 -19 -1 -8 3 -5 6 6 6 11 1 17 -2 13 -5z m-392
-24 c-3 -5 -12 -10 -18 -10 -7 0 -6 4 3 10 19 12 23 12 15 0z m553 -26 l2 -29
-14 25 c-19 31 -20 43 -3 38 6 -3 13 -18 15 -34z m66 -9 c-15 -13 -31 -22 -33
-19 -6 6 39 43 53 44 5 0 -4 -11 -20 -25z m30 -63 c24 -47 30 -97 12 -111 -17
-14 -56 -6 -56 12 0 7 9 19 20 27 24 17 26 62 5 80 -8 7 -15 17 -15 22 0 15
19 -2 34 -30z m-385 -47 c13 -25 22 -48 19 -51 -3 -3 -23 4 -44 15 -40 20
-120 26 -130 10 -11 -18 -32 -9 -27 10 5 20 33 38 33 21 0 -5 20 -9 45 -8 32
2 44 6 41 15 -3 8 3 13 15 13 11 0 17 5 14 10 -3 6 -3 10 2 10 4 0 19 -20 32
-45z m331 25 c4 0 10 -9 13 -20 3 -13 0 -20 -9 -20 -8 0 -14 -6 -15 -12 0 -10
-2 -10 -5 -1 -3 7 -12 9 -20 6 -10 -3 -14 2 -14 19 0 30 9 40 28 33 7 -3 17
-5 22 -5z m30 -175 c7 -24 13 -56 13 -70 0 -23 3 -25 44 -25 49 0 87 -15 77
-31 -3 -6 -12 -8 -20 -5 -7 3 -27 -6 -44 -20 -34 -29 -38 -25 -14 12 l17 25
-36 -3 c-46 -3 -52 4 -52 55 0 28 -4 41 -12 40 -14 -3 -16 10 -7 45 9 34 20
27 34 -23z m-306 -41 c6 18 34 -26 28 -46 -2 -10 -13 -24 -23 -31 -12 -9 -15
-17 -8 -27 11 -19 12 -43 0 -36 -5 4 -11 1 -13 -4 -4 -13 -115 -23 -122 -11
-3 4 -31 2 -63 -4 -46 -9 -61 -9 -70 1 -18 17 -16 37 2 31 8 -4 17 -2 20 3 8
13 42 13 47 0 2 -5 23 0 47 11 26 11 51 17 60 12 9 -4 28 -7 43 -8 20 0 24 3
17 11 -7 8 -5 17 6 27 8 9 15 19 15 23 0 6 -83 1 -163 -11 l-32 -5 30 14 c29
14 29 15 6 16 -14 0 -32 -7 -41 -15 -9 -8 -26 -16 -39 -18 -12 -2 -27 -10 -32
-18 -6 -10 -9 -7 -9 13 0 15 5 30 10 33 6 3 10 1 10 -4 0 -19 21 -12 40 12 15
18 30 24 72 26 29 1 54 3 55 5 2 1 25 0 53 -4 32 -4 51 -2 54 4z m753 -49 c51
-8 125 -26 165 -39 118 -40 372 -142 440 -177 85 -45 302 -261 381 -380 31
-48 70 -102 85 -121 15 -20 36 -54 47 -77 15 -35 16 -45 6 -65 -11 -20 -10
-34 4 -82 9 -32 26 -71 37 -87 17 -24 19 -37 14 -79 -4 -28 -14 -64 -22 -79
-8 -16 -14 -31 -14 -34 2 -65 -1 -75 -22 -75 -26 0 -64 55 -46 66 7 4 5 10 -5
15 -9 5 -15 23 -15 43 0 19 -3 43 -7 55 -9 28 -54 51 -81 41 -11 -5 -27 -4
-35 1 -8 5 -25 9 -38 9 -23 0 -24 2 -18 53 3 28 7 59 9 67 2 9 -6 16 -20 18
-13 2 -26 10 -29 18 -7 20 26 81 54 99 12 8 21 23 21 32 0 10 3 27 7 37 7 16
5 18 -9 13 -10 -4 -19 -1 -22 8 -4 8 -12 15 -19 15 -8 0 -20 7 -28 15 -8 8
-33 17 -55 21 -38 6 -40 5 -35 -15 5 -22 39 -29 45 -10 4 12 38 1 38 -13 0 -6
-7 -7 -15 -4 -9 3 -24 0 -35 -6 -28 -18 -50 6 -50 53 0 22 -4 39 -10 39 -5 0
-10 5 -10 11 0 5 5 7 10 4 6 -3 10 3 10 13 0 11 7 23 17 26 14 6 14 8 -3 21
-10 8 -28 15 -40 15 -11 0 -29 9 -39 20 -10 11 -24 20 -32 20 -8 0 -12 4 -9 9
3 5 -2 8 -12 7 -11 -1 -16 5 -14 18 3 14 -1 18 -16 14 -11 -3 -19 0 -19 8 0 7
4 11 9 8 14 -9 9 14 -8 31 -17 17 -41 15 -36 -4 1 -6 -5 -11 -13 -11 -8 0 -15
5 -15 10 0 6 -11 10 -25 10 -21 0 -24 3 -17 18 5 9 7 23 5 30 -3 8 1 10 12 6
15 -6 15 -4 4 14 -7 11 -17 18 -21 16 -4 -3 -8 0 -8 6 0 6 -5 8 -12 4 -9 -5
-9 -3 1 9 7 9 17 15 21 12 5 -3 10 0 12 6 5 16 35 0 42 -23 3 -12 1 -29 -5
-39 -6 -12 -5 -20 2 -25 8 -4 7 -9 -2 -15 -8 -5 -9 -9 -3 -9 18 0 31 23 29 50
-1 14 5 30 13 36 13 9 11 14 -9 32 -12 12 -28 22 -35 22 -7 0 -14 10 -16 22
-3 21 -11 27 -79 58 -31 14 -75 9 -71 -8 3 -17 -23 -15 -59 4 -24 12 -30 20
-25 38 5 19 0 24 -32 33 -20 6 -67 23 -104 37 -43 16 -67 21 -65 14 1 -7 -9
-14 -23 -16 -19 -2 -21 -1 -11 7 17 11 19 10 -118 37 -46 9 -100 14 -120 11
-33 -6 -34 -5 -17 8 26 19 115 19 233 0z m-1127 -35 c0 -5 -19 -10 -42 -10
-24 0 -70 -4 -103 -9 -93 -15 -210 -20 -224 -11 -19 11 34 22 159 30 163 11
210 11 210 0z m1036 -35 c-8 -8 -17 -15 -20 -15 -3 0 -3 7 0 15 4 8 13 15 21
15 12 0 12 -2 -1 -15z m-49 -42 c14 -32 17 -35 22 -18 8 28 51 31 58 5 4 -16
8 -18 19 -9 11 9 14 8 14 -3 0 -14 48 -43 57 -34 3 2 0 14 -7 25 -12 23 3 30
17 8 11 -19 37 -27 54 -16 12 8 11 12 -4 23 -16 13 -16 14 4 19 11 3 31 2 42
-3 17 -7 18 -9 5 -9 -12 -1 -16 -9 -15 -28 2 -27 4 -28 60 -27 l58 1 -6 -29
c-5 -22 -3 -28 10 -28 9 0 23 7 31 15 22 22 40 19 21 -3 -22 -24 -21 -32 2
-32 11 0 27 10 36 23 12 17 18 19 24 9 6 -10 10 -10 21 3 12 15 40 21 40 8 0
-3 -7 -14 -15 -23 -14 -16 -14 -17 10 -13 29 6 32 -7 10 -41 -14 -22 -14 -25
0 -40 18 -18 16 -52 -3 -48 -7 1 -12 -3 -12 -9 0 -5 -6 -7 -12 -3 -16 10 -48
13 -48 4 0 -8 -47 -32 -72 -36 -23 -5 -12 32 15 51 34 24 4 17 -46 -10 -27
-14 -49 -20 -52 -15 -4 6 -2 10 3 10 6 0 12 6 15 14 5 11 -2 13 -31 10 -20 -3
-33 -2 -30 1 7 7 -38 55 -51 55 -5 0 -20 12 -35 27 -29 29 -55 35 -98 22 -19
-5 -28 -3 -32 7 -9 22 -23 16 -29 -11 -2 -14 4 -41 13 -60 10 -19 14 -35 8
-35 -5 0 -14 -13 -19 -30 -6 -16 -15 -30 -20 -30 -5 0 -9 -5 -9 -11 0 -6 -7
-17 -15 -25 -15 -16 -20 -69 -9 -99 5 -13 63 -45 81 -45 3 0 -7 14 -22 31 -28
34 -27 47 2 30 10 -6 14 -11 10 -11 -4 0 -2 -10 5 -22 7 -13 13 -42 13 -65 0
-34 -4 -44 -23 -52 -20 -10 -24 -7 -33 16 -6 15 -13 30 -17 33 -17 13 -41 70
-36 84 3 9 2 16 -4 16 -6 0 -8 9 -5 20 4 15 0 20 -16 20 -12 0 -31 4 -41 10
-33 18 -57 129 -25 116 10 -3 15 1 15 12 0 27 19 86 34 107 13 18 15 18 39
-11 32 -35 36 -18 5 21 -21 27 -21 28 -2 42 13 10 15 16 7 21 -21 13 -34 61
-23 83 15 26 19 24 37 -18z m103 17 c18 -12 2 -12 -25 0 -13 6 -15 9 -5 9 8 0
22 -4 30 -9z m-1498 -30 c-36 -34 -33 -39 6 -12 45 31 52 34 47 20 -3 -7 8
-20 24 -30 16 -9 37 -29 47 -45 10 -15 35 -46 56 -68 l38 -40 -21 -43 c-12
-23 -27 -42 -35 -42 -7 0 -18 -9 -24 -20 -8 -15 -8 -20 2 -20 7 0 4 -8 -8 -20
-38 -38 -44 -48 -32 -52 9 -3 9 -6 0 -12 -7 -4 -14 3 -18 19 -7 27 -15 30 -45
15 -10 -6 -19 -7 -19 -2 0 5 11 15 25 22 17 9 22 17 15 24 -12 12 -13 29 -1
22 5 -4 4 5 -2 18 -7 13 -14 23 -18 20 -3 -2 -15 3 -25 11 -18 14 -43 21 -31
9 7 -8 -16 -33 -25 -28 -4 3 -3 16 2 29 5 14 6 25 1 25 -9 0 -22 -23 -27 -48
-5 -28 -14 -24 -14 6 0 28 -3 30 -27 27 -16 -1 -27 -8 -25 -15 1 -7 -5 -24
-14 -38 l-17 -25 -17 23 c-21 28 -39 20 -32 -15 2 -14 -1 -31 -7 -39 -16 -19
-61 -8 -61 15 0 14 -7 19 -25 19 -21 0 -25 -5 -25 -30 0 -16 -4 -30 -10 -30
-5 0 -10 5 -10 10 0 6 -4 10 -10 10 -5 0 -10 -5 -10 -10 0 -6 -13 -24 -29 -40
-28 -30 -29 -30 -34 -9 -5 19 -7 20 -21 7 -8 -9 -18 -27 -22 -41 -5 -24 -8
-25 -21 -11 -13 13 -18 12 -42 -12 -14 -15 -38 -31 -53 -36 -27 -10 -39 -28
-18 -28 19 0 10 -32 -10 -37 -23 -6 -25 -14 -8 -31 8 -8 4 -11 -18 -9 -23 2
-29 -2 -30 -18 -2 -40 -4 -44 -19 -39 -16 6 -36 -31 -28 -52 2 -7 0 -15 -6
-19 -6 -3 -11 -13 -11 -22 0 -9 -16 -31 -35 -50 -19 -19 -35 -40 -35 -48 0 -8
-4 -15 -9 -15 -17 0 -71 -61 -72 -81 -2 -32 -4 -37 -11 -45 -5 -4 -8 -15 -8
-24 0 -10 -6 -23 -14 -30 -16 -13 -10 -44 7 -33 6 3 7 1 3 -5 -4 -6 -13 -9
-21 -5 -8 3 -15 0 -15 -6 0 -6 5 -11 10 -11 16 0 12 -36 -5 -50 -9 -7 -14 -19
-11 -27 4 -8 -4 -17 -20 -23 -15 -6 -23 -15 -19 -22 4 -7 -1 -4 -9 6 -31 38
-23 132 19 226 18 41 36 90 40 107 3 18 34 74 69 125 34 51 81 129 105 173 62
112 112 185 158 225 94 84 129 110 160 125 18 9 33 18 33 21 0 3 -5 2 -12 -2
-7 -4 -8 -3 -4 5 4 6 15 10 24 9 10 -2 16 3 14 10 -1 8 2 11 8 7 13 -8 60 21
60 38 0 14 79 62 88 53 3 -3 -1 -6 -8 -6 -7 0 -11 -3 -8 -6 3 -3 29 9 57 26
28 17 55 29 59 26 5 -3 28 3 50 14 23 11 47 20 55 20 8 0 22 9 32 20 10 11 23
20 29 20 6 0 -4 -14 -22 -30z m1731 14 c9 -4 17 -10 17 -16 0 -9 -20 0 -50 22
-13 10 -13 11 0 6 8 -3 23 -9 33 -12z m-682 -22 c-12 -22 -41 -48 -41 -36 0 8
40 54 47 54 2 0 -1 -8 -6 -18z m236 -12 c-1 -16 -5 -30 -9 -30 -9 0 -10 8 -2
38 9 31 14 28 11 -8z m57 -42 c-3 -4 -13 -2 -24 4 -17 11 -18 14 -2 42 l16 31
7 -35 c4 -19 5 -38 3 -42z m-235 -18 c-17 -136 8 -586 46 -820 17 -103 16
-160 -2 -160 -7 0 -13 4 -13 8 0 5 -18 18 -40 31 -37 21 -52 45 -31 53 4 2 5
12 0 23 -7 19 -8 19 -8 -2 -1 -12 -14 -31 -32 -43 l-30 -22 -52 19 c-31 12
-56 28 -62 41 -5 12 -13 22 -18 22 -5 0 -6 9 -2 19 3 11 0 23 -6 27 -9 5 -10
2 -6 -9 3 -10 2 -17 -3 -17 -5 0 -8 29 -7 64 1 35 5 62 9 60 5 -3 26 40 32 66
1 3 5 12 10 20 6 9 1 7 -12 -4 -12 -11 -22 -25 -22 -33 0 -24 -15 -14 -27 18
-10 25 -16 29 -32 24 -22 -7 -29 9 -9 21 20 13 62 13 70 1 5 -9 10 -9 20 1 19
19 -8 34 -49 28 -22 -3 -33 -1 -33 7 0 8 -3 7 -9 -2 -5 -8 -14 -10 -22 -5 -11
6 -11 4 0 -10 8 -9 10 -16 5 -15 -5 1 -18 -2 -29 -6 -19 -9 -19 -9 5 -16 l25
-7 -26 -1 c-30 -1 -58 24 -37 32 8 4 7 6 -4 6 -10 1 -18 -4 -18 -10 0 -17 40
-49 62 -49 10 0 18 -6 18 -12 0 -9 4 -8 10 2 8 12 10 12 10 1 0 -19 -30 -40
-57 -41 -12 0 -29 10 -37 22 -9 12 -16 17 -16 10 0 -8 -5 -10 -12 -6 -9 5 -9
2 1 -9 11 -14 11 -20 1 -32 -10 -12 -9 -15 7 -15 11 0 33 -12 50 -27 26 -23
28 -30 17 -40 -7 -7 -20 -13 -28 -13 -8 0 -22 -7 -31 -17 -14 -14 -18 -14 -26
-2 -7 12 -9 12 -9 -1 0 -15 -14 -19 -65 -20 -11 -1 -15 -4 -10 -8 13 -9 18
-35 5 -27 -5 3 -10 0 -10 -8 0 -16 -27 -31 -49 -28 -7 1 -10 -2 -6 -8 3 -6 0
-11 -8 -11 -14 0 -32 -27 -29 -42 1 -5 -3 -8 -8 -8 -6 0 -10 5 -10 12 0 7 -7
5 -18 -5 -9 -9 -41 -18 -69 -20 -46 -4 -53 -2 -59 16 -5 15 -8 17 -14 6 -5 -7
-7 -17 -4 -21 3 -4 -9 -5 -26 -1 -26 5 -32 2 -37 -15 -9 -37 -115 -61 -134
-31 -17 27 -9 93 26 197 20 58 49 160 65 227 38 162 107 389 131 437 21 41 38
49 45 21 8 -31 6 -38 -18 -44 -22 -7 -22 -7 10 -20 18 -7 31 -18 29 -24 -4
-11 55 -55 73 -55 6 0 8 -4 5 -10 -3 -5 -2 -10 4 -10 5 0 14 8 20 17 9 16 11
16 28 2 10 -9 23 -14 30 -12 6 2 33 -12 60 -31 40 -29 54 -34 86 -29 36 4 104
32 82 33 -5 1 4 8 20 17 17 9 25 18 18 20 -7 3 -13 9 -13 15 0 11 81 6 110 -6
9 -4 25 2 37 14 16 14 24 16 29 8 5 -7 10 -3 16 11 6 18 11 21 22 12 7 -6 16
-8 19 -4 4 3 13 0 22 -7 18 -15 19 -7 3 20 -10 15 -9 29 4 69 9 28 13 51 9 51
-12 0 5 111 23 154 9 22 18 37 20 35 2 -2 0 -33 -5 -69z m-910 20 c11 -24 11
-24 -3 -6 -9 11 -16 24 -16 30 0 12 5 7 19 -24z m257 -46 c3 -19 2 -40 -3 -45
-5 -5 -9 0 -10 14 -1 12 -5 32 -8 45 -3 12 -1 22 4 22 6 0 13 -16 17 -36z
m857 30 c9 -9 -4 -35 -14 -28 -5 3 -9 12 -9 20 0 14 12 19 23 8z m-1070 -49
c8 -17 6 -16 -17 4 -19 18 -23 27 -14 33 8 4 15 2 17 -5 2 -7 8 -21 14 -32z
m3131 -6 c8 -8 0 -9 -29 -3 -74 13 -94 24 -36 19 30 -2 59 -9 65 -16z m-187
-25 c-1 -1 -14 -4 -29 -8 -21 -5 -28 -3 -28 8 0 19 21 25 42 12 9 -6 16 -11
15 -12z m-1904 -19 c-3 -9 -8 -14 -10 -11 -3 3 -2 9 2 15 9 16 15 13 8 -4z
m1155 -2 c2 -8 -5 -13 -17 -13 -12 0 -21 6 -21 16 0 18 31 15 38 -3z m-1158
-33 c0 -5 -5 -10 -11 -10 -5 0 -7 5 -4 10 3 6 8 10 11 10 2 0 4 -4 4 -10z
m-1277 -88 c5 -28 -9 -56 -24 -46 -5 3 -7 10 -4 15 4 5 1 9 -5 9 -6 0 -9 4 -5
9 3 5 1 12 -5 16 -17 11 -11 21 14 23 19 1 25 -4 29 -26z m1474 -9 c4 -12 -23
-43 -38 -43 -13 0 -11 34 3 48 14 14 30 11 35 -5z m583 -19 c-6 -6 -7 -13 -5
-16 5 -4 -31 -4 -44 1 -11 4 24 29 39 28 13 -1 16 -5 10 -13z m1188 -95 c21 1
32 -4 32 -13 0 -13 40 -27 86 -30 19 -2 87 -66 78 -75 -2 -2 -18 8 -37 22 -31
23 -108 39 -172 35 -80 -5 -235 3 -235 13 0 4 13 18 28 31 25 21 36 23 107 20
44 -2 95 -3 113 -3z m-1885 -119 c3 -13 0 -20 -9 -20 -8 0 -14 10 -14 26 0 28
15 25 23 -6z m1592 -150 c3 -5 1 -10 -4 -10 -6 0 -11 5 -11 10 0 6 2 10 4 10
3 0 8 -4 11 -10z m48 -49 c24 -25 26 -30 12 -41 -13 -10 -15 -9 -15 10 0 13
-8 24 -20 27 -11 3 -20 12 -20 19 0 21 12 17 43 -15z m-1563 -52 c0 -6 -4 -7
-10 -4 -5 3 -10 11 -10 16 0 6 5 7 10 4 6 -3 10 -11 10 -16z m60 1 c0 -14 37
-12 43 3 7 16 27 -11 21 -28 -3 -7 9 -27 26 -44 16 -18 30 -39 30 -47 0 -8 9
-19 20 -26 24 -16 25 -22 3 -43 -13 -14 -14 -18 -3 -25 7 -4 20 -6 29 -3 12 4
13 3 3 -5 -18 -12 -22 -44 -8 -61 8 -11 8 -15 -3 -19 -11 -4 -11 -6 0 -13 11
-6 11 -11 2 -20 -14 -14 -56 -21 -133 -23 -49 -1 -55 1 -55 19 0 11 -17 36
-37 56 -42 39 -49 77 -20 107 16 17 18 17 34 -3 9 -11 20 -17 24 -13 4 4 1 14
-6 23 -10 12 -10 15 3 15 23 0 11 25 -19 38 -14 7 -24 20 -24 32 0 16 4 18 23
11 32 -12 51 -3 32 15 -8 9 -19 13 -24 10 -5 -4 -17 -3 -26 0 -16 6 -16 8 -1
16 9 5 21 6 28 2 7 -5 9 -2 5 9 -3 9 -1 18 6 21 20 8 27 7 27 -4z m-675 -21
c10 -15 2 -19 -24 -12 -17 4 -19 8 -9 14 18 12 26 11 33 -2z m-5 -43 c0 -3 -4
-8 -10 -11 -5 -3 -10 -1 -10 4 0 6 5 11 10 11 6 0 10 -2 10 -4z m-900 -54 c-7
-3 -20 -12 -30 -21 -30 -29 -43 -24 -24 9 10 16 22 30 27 30 4 0 5 -4 2 -10
-3 -5 -2 -10 3 -10 6 0 13 8 17 18 6 14 8 14 13 3 3 -8 -1 -17 -8 -19z m800
14 c0 -3 -4 -8 -10 -11 -5 -3 -10 -1 -10 4 0 6 5 11 10 11 6 0 10 -2 10 -4z
m-820 -86 c0 -5 -6 -10 -12 -11 -10 0 -10 -2 0 -6 20 -8 14 -33 -9 -33 -12 0
-23 -8 -26 -20 -3 -11 -11 -20 -18 -20 -8 0 -17 -9 -20 -20 -9 -30 -23 -24
-17 8 2 15 15 38 27 52 12 14 25 33 28 43 7 18 47 24 47 7z m1220 -70 c13 -8
13 -10 -2 -10 -9 0 -20 5 -23 10 -8 13 5 13 25 0z m1382 -22 c-15 -15 -24 -6
-16 16 5 12 10 14 17 7 8 -8 8 -14 -1 -23z m-1328 -30 c-3 -4 -17 -8 -32 -8
-20 0 -23 3 -13 9 18 11 52 10 45 -1z m286 -40 c0 -6 -7 -5 -15 2 -8 7 -15 17
-15 22 0 6 7 5 15 -2 8 -7 15 -17 15 -22z m-1312 -35 c-15 -19 -35 -16 -58 7
-30 30 -16 41 29 22 30 -13 37 -20 29 -29z m1490 19 c2 -7 -6 -12 -17 -12 -21
0 -27 11 -14 24 9 9 26 2 31 -12z m-470 -4 c-3 -7 -13 -13 -23 -13 -10 0 -20
6 -22 13 -3 7 5 12 22 12 17 0 25 -5 23 -12z m1707 -58 c-10 -11 -22 -20 -27
-20 -5 0 -14 -5 -21 -10 -63 -54 -73 -58 -62 -29 6 15 103 79 119 79 5 0 1 -9
-9 -20z m335 -74 c0 -3 -4 -8 -10 -11 -5 -3 -10 -1 -10 4 0 6 5 11 10 11 6 0
10 -2 10 -4z m-2370 -80 c0 -9 -51 1 -64 14 -4 4 -5 13 -2 19 7 11 66 -18 66
-33z m2335 -8 c-4 -18 -7 -49 -6 -68 1 -19 -1 -50 -4 -69 l-6 -34 -13 25 c-34
66 -24 178 16 178 18 0 20 -4 13 -32z m-4167 -30 c1 -26 -2 -48 -7 -48 -5 0
-7 -9 -4 -20 3 -11 1 -20 -5 -20 -13 0 -21 55 -15 101 8 53 28 44 31 -13z
m2912 -132 c0 -19 -7 -25 -34 -30 -72 -14 -90 21 -23 45 49 18 57 16 57 -15z
m603 -12 c-3 -9 0 -20 7 -24 16 -10 6 -39 -12 -36 -31 7 -46 19 -41 32 3 8 11
14 18 14 7 0 15 7 19 15 3 8 8 15 10 15 3 0 3 -7 -1 -16z m-3513 -28 c0 -3 -4
-8 -10 -11 -5 -3 -10 -1 -10 4 0 6 5 11 10 11 6 0 10 -2 10 -4z m160 -96 c0
-5 -7 -10 -15 -10 -8 0 -15 5 -15 10 0 6 7 10 15 10 8 0 15 -4 15 -10z m-6
-47 c9 -23 -7 -35 -38 -27 -19 5 -24 10 -16 19 5 6 7 15 3 18 -3 4 5 7 19 7
15 0 29 -7 32 -17z m3336 -23 c12 -8 12 -10 -5 -10 -11 0 -27 5 -35 10 -12 8
-12 10 5 10 11 0 27 -5 35 -10z m-3440 -20 c0 -5 -7 -10 -16 -10 -8 0 -12 5
-9 10 3 6 10 10 16 10 5 0 9 -4 9 -10z m70 -5 c10 -13 9 -15 -9 -15 -12 0 -21
6 -21 15 0 8 4 15 9 15 5 0 14 -7 21 -15z m3360 -5 c8 -5 12 -12 8 -15 -9 -9
-48 4 -48 16 0 12 21 11 40 -1z m87 4 c-3 -3 -12 -4 -19 -1 -8 3 -5 6 6 6 11
1 17 -2 13 -5z m-3407 -29 c0 -9 -9 -15 -22 -15 -22 1 -23 1 -4 15 25 19 26
19 26 0z m3400 -10 c11 -13 10 -14 -4 -9 -9 3 -16 10 -16 15 0 13 6 11 20 -6z
m-80 -5 c12 -8 9 -10 -12 -10 -15 0 -30 5 -33 10 -8 13 25 13 45 0z m-3322
-37 c-2 -11 -14 -19 -31 -21 -22 -3 -27 1 -27 17 0 17 6 21 31 21 24 0 30 -4
27 -17z m3304 -5 c-17 -8 -26 -8 -34 0 -9 9 -4 12 23 11 32 0 33 -1 11 -11z
m-3404 -20 c-3 -7 -13 -15 -24 -17 -16 -3 -17 -1 -5 13 16 19 34 21 29 4z
m3417 -8 c3 -5 -2 -11 -12 -11 -17 -1 -17 -2 0 -6 19 -5 24 -33 5 -33 -20 0
-43 18 -35 26 4 4 2 13 -4 21 -9 10 -6 13 14 13 14 0 29 -4 32 -10z m65 -10
c0 -5 -4 -10 -9 -10 -6 0 -13 5 -16 10 -3 6 1 10 9 10 9 0 16 -4 16 -10z
m-3380 -30 c0 -10 -59 -25 -67 -17 -7 7 50 36 59 30 5 -2 8 -8 8 -13z m3374 1
c3 -5 -1 -11 -9 -15 -9 -3 -15 0 -15 9 0 16 16 20 24 6z m-61 -28 c-7 -2 -19
-2 -25 0 -7 3 -2 5 12 5 14 0 19 -2 13 -5z m-3413 -12 c0 -5 -7 -11 -15 -15
-15 -5 -20 5 -8 17 9 10 23 9 23 -2z m83 -8 c-7 -2 -21 -2 -30 0 -10 3 -4 5
12 5 17 0 24 -2 18 -5z m3362 -57 c18 -8 32 -20 33 -27 1 -8 4 -28 8 -45 5
-26 1 -35 -21 -53 -15 -11 -40 -21 -56 -21 -15 0 -31 -5 -34 -10 -7 -12 -51
-3 -82 16 -17 10 -29 11 -49 4 -17 -7 -30 -7 -33 -2 -3 6 -15 12 -26 14 -12 2
-1 7 26 12 26 4 55 16 64 26 10 11 31 20 47 20 15 0 28 5 28 11 0 6 7 9 15 5
8 -3 15 -1 15 5 0 6 5 7 11 3 12 -7 29 13 29 35 0 9 -8 12 -25 9 -13 -3 -22
-2 -20 3 3 4 -1 10 -7 13 -24 12 46 -5 77 -18z m-205 -22 c0 -7 -8 -10 -20 -7
-21 6 -151 -30 -190 -53 -20 -12 -19 -9 6 12 44 38 164 83 187 70 9 -6 17 -16
17 -22z m-3245 -15 c-5 -24 -15 -39 -15 -22 0 6 -10 9 -22 6 l-23 -5 24 21
c30 27 41 27 36 0z m243 -4 c17 -14 33 -25 37 -25 14 0 65 -42 86 -72 l22 -31
-26 17 c-15 9 -39 24 -54 34 -16 9 -46 22 -67 27 -35 9 -39 14 -40 43 -1 39 4
39 42 7z m2882 -85 c0 -5 -2 -10 -4 -10 -3 0 -8 5 -11 10 -3 6 -1 10 4 10 6 0
11 -4 11 -10z m-3090 -9 c0 -5 -7 -11 -15 -15 -15 -5 -20 5 -8 17 9 10 23 9
23 -2z m47 -18 c3 -7 -4 -11 -16 -10 -12 1 -21 7 -21 15 0 16 32 12 37 -5z
m123 -13 c0 -5 -5 -10 -11 -10 -5 0 -7 5 -4 10 3 6 8 10 11 10 2 0 4 -4 4 -10z
m2620 -31 c0 9 20 11 68 9 59 -3 67 -6 67 -23 0 -21 -1 -21 -54 -11 -29 5 -32
4 -21 -9 19 -23 9 -26 -46 -15 -27 6 -58 12 -69 14 -11 2 -29 7 -40 11 -17 5
-16 3 5 -15 l25 -22 -45 7 c-25 3 -67 13 -94 21 -61 17 -59 18 -47 -5 12 -21
3 -35 -13 -22 -6 5 -24 11 -41 14 -16 3 -47 10 -68 15 -36 10 -38 9 -23 -7 9
-10 16 -20 16 -24 0 -8 -66 2 -115 18 -40 13 -69 10 -59 -6 9 -15 -40 -10
-105 10 -34 10 -61 15 -61 11 0 -5 5 -12 10 -15 6 -3 10 -13 10 -21 0 -11 -5
-12 -17 -6 -10 5 -39 14 -64 20 -26 7 -55 15 -65 19 -18 7 -18 6 -2 -18 l16
-26 -49 9 c-27 5 -69 15 -94 22 -51 16 -55 13 -22 -15 12 -10 18 -18 12 -19
-22 0 -159 32 -179 42 -21 11 -21 11 -2 -11 21 -23 15 -41 -7 -23 -8 7 -16 10
-19 7 -3 -3 -24 2 -48 10 -62 22 -78 20 -55 -5 18 -19 17 -20 -6 -20 -14 0
-30 5 -35 10 -6 6 -34 12 -62 13 -43 3 -52 1 -47 -11 4 -10 0 -12 -12 -7 -10
4 -38 8 -63 10 -25 2 -58 9 -75 15 l-29 11 19 -22 c20 -22 20 -22 0 -16 -11 4
-38 9 -59 13 -22 3 -50 10 -63 15 -25 9 -30 0 -11 -19 18 -18 5 -23 -33 -11
-19 6 -50 14 -69 19 -19 4 -44 11 -55 15 -20 8 -20 8 -1 -13 23 -27 17 -36
-15 -24 -23 9 -66 22 -119 37 -20 6 -23 5 -13 -6 33 -34 6 -37 -74 -9 -74 26
-81 25 -54 -4 l22 -23 -25 4 c-59 9 -72 12 -98 22 -16 6 -28 8 -28 6 0 -2 -12
0 -27 6 -27 10 -27 10 -8 -11 10 -11 16 -22 14 -25 -6 -5 -146 39 -156 50 -5
4 7 6 24 3 18 -2 33 0 33 5 0 6 8 3 18 -6 23 -21 33 -22 26 -3 -4 12 23 14
159 15 91 0 172 3 180 7 8 3 31 -2 51 -10 20 -8 34 -11 31 -6 -7 11 4 11 370
16 127 2 349 5 495 7 145 2 277 1 292 -4 16 -4 28 -4 28 2 0 13 89 10 133 -5
31 -12 37 -11 37 0 0 15 62 12 128 -6 26 -7 32 -5 32 7 0 13 9 15 54 9 30 -3
62 -9 72 -13 10 -4 15 -2 11 4 -4 6 20 10 63 10 39 1 72 -3 76 -8 3 -5 10 -9
15 -9 6 0 8 4 4 10 -7 12 116 18 133 6 7 -5 12 -4 12 3z m680 -24 c8 -9 8 -15
2 -15 -18 0 -42 12 -42 21 0 14 26 10 40 -6z m-3150 -46 c0 -13 -38 -11 -46 2
-9 16 18 30 33 17 7 -6 13 -14 13 -19z"/>
<path d="M1682 3141 c-10 -6 -10 -10 2 -20 10 -9 16 -9 21 -1 10 16 -7 31 -23
21z"/>
<path d="M1735 2970 c3 -5 11 -10 16 -10 6 0 7 5 4 10 -3 6 -11 10 -16 10 -6
0 -7 -4 -4 -10z"/>
<path d="M2912 2461 c-11 -7 -10 -10 3 -15 9 -3 24 -1 33 5 16 10 16 10 0 5
-9 -3 -18 -1 -20 4 -2 5 -9 6 -16 1z"/>
<path d="M3371 2194 c13 -17 26 -30 28 -27 3 2 -8 16 -24 31 l-28 27 24 -31z"/>
<path d="M3569 1643 c-10 -19 -9 -26 5 -42 22 -24 56 -23 56 0 0 10 7 19 16
21 14 3 14 5 -3 23 -25 27 -59 27 -74 -2z"/>
<path d="M2860 2239 c0 -5 5 -7 10 -4 6 3 10 8 10 11 0 2 -4 4 -10 4 -5 0 -10
-5 -10 -11z"/>
<path d="M1096 2442 c-15 -18 -15 -20 4 -37 11 -10 20 -24 20 -30 0 -12 74
-85 85 -85 3 0 -3 12 -15 28 -11 15 -24 49 -29 76 -12 64 -34 81 -65 48z"/>
<path d="M1028 2396 c-17 -12 -17 -14 1 -31 24 -21 41 -12 41 21 0 27 -16 30
-42 10z"/>
<path d="M640 2124 c0 -8 5 -12 10 -9 6 4 8 11 5 16 -9 14 -15 11 -15 -7z"/>
<path d="M1390 2085 c-14 -16 -10 -18 14 -9 9 3 16 10 16 15 0 14 -16 11 -30
-6z"/>
<path d="M1503 2055 c0 -8 4 -15 9 -15 4 0 8 7 8 15 0 8 -4 15 -8 15 -5 0 -9
-7 -9 -15z"/>
<path d="M1950 1970 c0 -5 5 -10 10 -10 6 0 10 5 10 10 0 6 -4 10 -10 10 -5 0
-10 -4 -10 -10z"/>
<path d="M1960 1939 c0 -8 29 -39 36 -39 3 0 0 9 -6 19 -7 14 -6 21 3 24 6 3
2 4 -10 4 -13 -1 -23 -4 -23 -8z"/>
<path d="M1937 1894 c3 -9 0 -19 -6 -24 -10 -5 -9 -9 3 -13 12 -5 16 0 16 23
0 17 -4 30 -10 30 -5 0 -7 -7 -3 -16z"/>
<path d="M1365 1891 c-3 -5 -1 -12 5 -16 5 -3 10 1 10 9 0 18 -6 21 -15 7z"/>
<path d="M1330 1881 c0 -6 4 -12 8 -15 5 -3 9 1 9 9 0 8 -4 15 -9 15 -4 0 -8
-4 -8 -9z"/>
<path d="M1960 1580 c17 -22 34 -40 37 -40 3 0 0 7 -7 15 -7 9 -10 18 -7 22 6
6 -35 43 -48 43 -4 0 8 -18 25 -40z"/>
<path d="M1538 1443 c7 -3 16 -2 19 1 4 3 -2 6 -13 5 -11 0 -14 -3 -6 -6z"/>
<path d="M2710 1389 c0 -5 5 -7 10 -4 6 3 10 8 10 11 0 2 -4 4 -10 4 -5 0 -10
-5 -10 -11z"/>
<path d="M4316 1806 c8 -21 34 -21 33 2 0 11 -2 12 -6 4 -4 -10 -8 -10 -19 -1
-12 10 -13 9 -8 -5z"/>
<path d="M4300 1740 c-8 -5 -11 -12 -8 -16 10 -9 38 3 38 16 0 12 -10 13 -30
0z"/>
<path d="M3936 564 c-5 -14 -4 -15 9 -4 17 14 19 20 6 20 -5 0 -12 -7 -15 -16z"/>
<path d="M3885 359 c-4 -6 -5 -12 -2 -15 7 -7 37 7 37 17 0 13 -27 11 -35 -2z"/>
<path d="M3865 280 c3 -5 8 -10 11 -10 2 0 4 5 4 10 0 6 -5 10 -11 10 -5 0 -7
-4 -4 -10z"/>
<path d="M3811 91 c-12 -8 -11 -12 3 -27 15 -14 19 -15 27 -3 20 33 3 50 -30
30z"/>
<path d="M3790 20 c0 -13 7 -20 20 -20 13 0 20 7 20 20 0 13 -7 20 -20 20 -13
0 -20 -7 -20 -20z"/>
</g>
</svg>
