<?xml version="1.0" encoding="UTF-8"?>
<svg width="469pt" version="1.1" xmlns="http://www.w3.org/2000/svg" height="128pt" viewBox="0 0 469 128" xmlns:xlink="http://www.w3.org/1999/xlink">
 <defs>
  <clipPath id="Clip0">
   <path d="M0 0 L469 0 L469 128 L0 128 L0 0 Z" transform="translate(0, 0)"/>
  </clipPath>
 </defs>
 <g id="Background">
  <g id="Group1" clip-path="url(#Clip0)">
   <path style="fill:#000000; fill-rule:nonzero;stroke:none;" d="M3.5996 31.1504 L0 31.6006 L0.2002 30.8008 L93.55 0 L94 0.6006 L93.7 1.4502 L3.5996 31.1504 Z" transform="translate(46.25, 41.8496)"/>
   <path style="fill:#000000; fill-rule:nonzero;stroke:none;" d="M67.8 42.25 L67.95 43.2002 L65.2 42.25 L2.25 2.5 L0 0.2002 L1 0 L67.8 42.25 Z" transform="translate(140.25, 42.25)"/>
   <path style="fill:#000000; fill-rule:evenodd;stroke:none;" d="M1.302 5.8106 L4.662 5.8106 C5.824 5.8106 6.342 6.3702 6.342 7.6299 L6.328 8.5401 C6.328 9.17 6.44 9.7862 6.622 10.2061 L8.204 10.2061 L8.204 9.8838 C7.714 9.5479 7.616 9.1836 7.588 7.8262 C7.574 6.1465 7.308 5.6416 6.202 5.1661 C7.35 4.6065 7.812 3.8916 7.812 2.7305 C7.812 0.9659 6.706 0 4.704 0 L0 0 L0 10.2061 L1.302 10.2061 L1.302 5.8106 Z M1.302 4.6622 L1.302 1.1485 L4.452 1.1485 C5.18 1.1485 5.6 1.2598 5.922 1.5401 C6.272 1.834 6.454 2.2959 6.454 2.9122 C6.454 4.1163 5.838 4.6622 4.452 4.6622 L1.302 4.6622 Z" transform="translate(236.052, 44.2939)"/>
   <path style="fill:#000000; fill-rule:evenodd;stroke:none;" d="M4.956 6.5312 L1.039 6.5312 C1.134 5.9218 1.47 5.5332 2.383 4.998 L3.433 4.4306 C4.473 3.8642 5.008 3.0976 5.008 2.1836 C5.008 1.5644 4.756 0.9873 4.316 0.5879 C3.874 0.1884 3.329 0 2.625 0 C1.68 0 0.977 0.3359 0.567 0.9658 C0.304 1.3652 0.189 1.8271 0.168 2.583 L1.092 2.583 C1.123 2.0791 1.187 1.7744 1.313 1.5332 C1.554 1.081 2.037 0.8086 2.593 0.8086 C3.433 0.8086 4.064 1.4072 4.064 2.205 C4.064 2.7929 3.717 3.2968 3.055 3.6748 L2.089 4.2207 C0.536 5.1025 0.084 5.8066 0 7.4443 L4.956 7.4443 L4.956 6.5312 Z" transform="translate(245.357, 41.8057)"/>
   <path style="fill:#000000; fill-rule:nonzero;stroke:none;" d="M25.6 0 L26.65 0.9004 L1.1 30.6006 L0.15 30.6006 L0 29.6504 L25.6 0 Z" transform="translate(208.05, 54.8496)"/>
   <path style="fill:#000000; fill-rule:evenodd;stroke:none;" d="M1.302 5.81 L4.662 5.81 C5.824 5.81 6.342 6.37 6.342 7.63 L6.328 8.54 C6.328 9.17 6.44 9.786 6.622 10.206 L8.204 10.206 L8.204 9.884 C7.714 9.548 7.616 9.184 7.588 7.826 C7.574 6.146 7.308 5.642 6.202 5.166 C7.35 4.606 7.812 3.892 7.812 2.73 C7.812 0.966 6.706 0 4.704 0 L0 0 L0 10.206 L1.302 10.206 L1.302 5.81 Z M1.302 4.662 L1.302 1.148 L4.452 1.148 C5.18 1.148 5.6 1.26 5.922 1.54 C6.272 1.834 6.454 2.296 6.454 2.912 C6.454 4.116 5.838 4.662 4.452 4.662 L1.302 4.662 Z" transform="translate(235.052, 114.294)"/>
   <path style="fill:#000000; fill-rule:evenodd;stroke:none;" d="M1.984 4.032 L2.1 4.032 L2.488 4.021 C3.507 4.021 4.032 4.483 4.032 5.376 C4.032 6.31 3.454 6.867 2.488 6.867 C1.48 6.867 0.987 6.363 0.924 5.281 L0 5.281 C0.042 5.88 0.147 6.268 0.325 6.604 C0.703 7.318 1.438 7.685 2.457 7.685 C3.99 7.685 4.977 6.772 4.977 5.365 C4.977 4.42 4.609 3.895 3.717 3.59 C4.41 3.317 4.757 2.793 4.757 2.047 C4.757 0.766 3.906 0 2.488 0 C0.987 0 0.189 0.818 0.157 2.404 L1.082 2.404 C1.092 1.953 1.134 1.701 1.25 1.469 C1.46 1.06 1.922 0.808 2.499 0.808 C3.318 0.808 3.811 1.291 3.811 2.079 C3.811 2.603 3.623 2.919 3.213 3.087 C2.961 3.191 2.636 3.233 1.984 3.244 L1.984 4.032 Z" transform="translate(244.336, 111.806)"/>
   <path style="fill:#000000; fill-rule:nonzero;stroke:none;" d="M25.8 27.7498 L24.75 28.6998 L0 0.6494 L0.35 0 L1.3 0 L25.8 27.7498 Z" transform="translate(207.85, 85.4502)"/>
   <path style="fill:#000000; fill-rule:evenodd;stroke:none;" d="M1.302 5.81055 L4.662 5.81055 C5.824 5.81055 6.342 6.37015 6.342 7.62985 L6.328 8.54005 C6.328 9.16995 6.44 9.78615 6.622 10.2061 L8.204 10.2061 L8.204 9.88375 C7.714 9.54785 7.616 9.18355 7.588 7.82615 C7.574 6.14645 7.308 5.64155 6.202 5.16605 C7.35 4.60644 7.812 3.8916 7.812 2.73046 C7.812 0.96582 6.706 0 4.704 0 L0 0 L0 10.2061 L1.302 10.2061 L1.302 5.81055 Z M1.302 4.6621 L1.302 1.14843 L4.452 1.14843 C5.18 1.14843 5.6 1.25976 5.922 1.54003 C6.272 1.83398 6.454 2.29589 6.454 2.9121 C6.454 4.11621 5.838 4.6621 4.452 4.6621 L1.302 4.6621 Z" transform="translate(162.052, 5.29395)"/>
   <path style="fill:#000000; fill-rule:evenodd;stroke:none;" d="M1.649 2.14161 L1.649 7.44434 L2.573 7.44434 L2.573 0 L1.963 0 C1.638 1.14454 1.428 1.30176 0 1.48047 L0 2.14161 L1.649 2.14161 Z" transform="translate(172.071, 2.80566)"/>
   <path style="fill:#000000; fill-rule:nonzero;stroke:none;" d="M20.1 0 L21.2 0.8496 L1.45 26.0996 L0.45 26.2998 L0 25.6992 L20.1 0 Z" transform="translate(139.8, 16.1504)"/>
   <path style="fill:#000000; fill-rule:evenodd;stroke:none;" d="M1.302 5.8106 L4.662 5.8106 C5.824 5.8106 6.342 6.3702 6.342 7.6299 L6.328 8.5401 C6.328 9.17 6.44 9.7862 6.622 10.2061 L8.204 10.2061 L8.204 9.8838 C7.714 9.5479 7.616 9.1836 7.588 7.8262 C7.574 6.1465 7.308 5.6416 6.202 5.1661 C7.35 4.6065 7.812 3.8916 7.812 2.7305 C7.812 0.9659 6.706 0 4.704 0 L0 0 L0 10.2061 L1.302 10.2061 L1.302 5.8106 Z M1.302 4.6622 L1.302 1.1485 L4.452 1.1485 C5.18 1.1485 5.6 1.2598 5.922 1.5401 C6.272 1.834 6.454 2.2959 6.454 2.9122 C6.454 4.1163 5.838 4.6622 4.452 4.6622 L1.302 4.6622 Z" transform="translate(168.052, 86.2939)"/>
   <path style="fill:#000000; fill-rule:evenodd;stroke:none;" d="M3.14 5.6591 L3.14 7.4443 L4.063 7.4443 L4.063 5.6591 L5.166 5.6591 L5.166 4.83 L4.063 4.83 L4.063 0 L3.381 0 L0 4.6826 L0 5.6591 L3.14 5.6591 Z M3.14 4.83 L0.809 4.83 L3.14 1.5752 L3.14 4.83 Z" transform="translate(177.294, 83.8057)"/>
   <path style="fill:#000000; fill-rule:nonzero;stroke:none;" d="M0.3 0.4004 L0 0 L0.85 0.0508 L0.3 0.4004 Z" transform="translate(166.2, 84.8496)"/>
   <path style="fill:#000000; fill-rule:nonzero;stroke:none;" d="M0 0.8496 L0.3 0 L2.55 2.2998 L24.7 37.25 L22.9 37.0996 L0 0.8496 Z" transform="translate(139.95, 42.4502)"/>
   <path style="fill:#000000; fill-rule:nonzero;stroke:none;" d="M159.2 11.5 L161.95 12.4502 L161.6 13.0996 L0.25 1.1504 L0 0.4502 L3.5996 0 L159.2 11.5 Z" transform="translate(46.25, 73)"/>
   <path style="fill:#000000; fill-rule:evenodd;stroke:none;" d="M1.30176 5.8106 L4.66211 5.8106 C5.82422 5.8106 6.34184 6.3702 6.34184 7.6299 L6.32814 8.5401 C6.32814 9.17 6.44044 9.7862 6.62204 10.2061 L8.20414 10.2061 L8.20414 9.8838 C7.71384 9.5479 7.61624 9.1836 7.58784 7.8262 C7.57424 6.1465 7.30864 5.6416 6.20214 5.1661 C7.35054 4.6065 7.81254 3.8916 7.81254 2.7305 C7.81254 0.9659 6.70604 0 4.7041 0 L0 0 L0 10.2061 L1.30176 10.2061 L1.30176 5.8106 Z M1.30176 4.6622 L1.30176 1.1485 L4.45215 1.1485 C5.18066 1.1485 5.60058 1.2598 5.92187 1.5401 C6.27244 1.834 6.45414 2.2959 6.45414 2.9122 C6.45414 4.1163 5.83789 4.6622 4.45215 4.6622 L1.30176 4.6622 Z" transform="translate(3.80176, 31.2939)"/>
   <path style="fill:#000000; fill-rule:evenodd;stroke:none;" d="M4.6308 0 L0.7881 0 L0.2314 4.0527 L1.082 4.0527 C1.5127 3.5381 1.8691 3.3593 2.4473 3.3593 C3.4443 3.3593 4.0742 4.042 4.0742 5.1445 C4.0742 6.2158 3.4551 6.8672 2.4473 6.8672 C1.6387 6.8672 1.1445 6.457 0.9238 5.6172 L0 5.6172 C0.126 6.2265 0.2314 6.5205 0.4521 6.7929 C0.8721 7.3603 1.6279 7.6855 2.4678 7.6855 C3.9697 7.6855 5.0195 6.5937 5.0195 5.0185 C5.0195 3.5488 4.043 2.541 2.6152 2.541 C2.0898 2.541 1.6699 2.6777 1.2392 2.9922 L1.5332 0.9131 L4.6308 0.9131 L4.6308 0 Z" transform="translate(12.8672, 28.8057)"/>
   <path style="fill:#000000; fill-rule:nonzero;stroke:none;" d="M0 1 L1 0 L32.7998 30.9502 L32.5996 31.75 L31.5498 31.7002 L0 1 Z" transform="translate(13.6504, 41.7002)"/>
   <path style="fill:#000000; fill-rule:evenodd;stroke:none;" d="M1.30176 5.81 L4.66214 5.81 C5.82424 5.81 6.34184 6.37 6.34184 7.63 L6.32814 8.54 C6.32814 9.17 6.44044 9.786 6.62204 10.206 L8.20414 10.206 L8.20414 9.884 C7.71384 9.548 7.61624 9.184 7.58784 7.826 C7.57424 6.146 7.30864 5.642 6.20214 5.166 C7.35054 4.606 7.81254 3.892 7.81254 2.73 C7.81254 0.966 6.70604 0 4.70414 0 L0 0 L0 10.206 L1.30176 10.206 L1.30176 5.81 Z M1.30176 4.662 L1.30176 1.148 L4.45214 1.148 C5.18064 1.148 5.60054 1.26 5.92184 1.54 C6.27244 1.834 6.45414 2.296 6.45414 2.912 C6.45414 4.116 5.83784 4.662 4.45214 4.662 L1.30176 4.662 Z" transform="translate(6.80176, 100.294)"/>
   <path style="fill:#000000; fill-rule:evenodd;stroke:none;" d="M4.7783 1.9423 C4.5996 0.7246 3.8017 0 2.667 0 C1.8486 0 1.1133 0.3984 0.6718 1.0605 C0.2099 1.7851 0 2.6983 0 4.0523 C0 5.3023 0.1894 6.1003 0.6299 6.7613 C1.0293 7.3603 1.6806 7.6853 2.499 7.6853 C3.917 7.6853 4.9355 6.6353 4.9355 5.1763 C4.9355 3.7903 3.9902 2.8133 2.6572 2.8133 C1.9218 2.8133 1.3447 3.0973 0.9453 3.6433 C0.956 1.8271 1.5439 0.8183 2.6045 0.8183 C3.2549 0.8183 3.707 1.2285 3.8535 1.9423 L4.7783 1.9423 Z M2.541 3.6323 C3.4336 3.6323 3.9902 4.2523 3.9902 5.2503 C3.9902 6.1843 3.3603 6.8673 2.5097 6.8673 C1.6484 6.8673 0.998 6.1533 0.998 5.1973 C0.998 4.2733 1.6279 3.6323 2.541 3.6323 Z" transform="translate(15.9512, 97.8057)"/>
   <path style="fill:#000000; fill-rule:nonzero;stroke:none;" d="M0.9492 23.75 L0 22.6992 L24.7998 0 L25.8496 0.0498 L26.0996 0.75 L0.9492 23.75 Z" transform="translate(20.4004, 73.4004)"/>
   <path style="fill:#ffffff; fill-rule:nonzero;stroke:#000000; stroke-width:1.41732; stroke-linecap:butt; stroke-linejoin:miter; stroke-dasharray:none;" d="M24 48 C10.75 48 0 37.25 0 24 C0 10.75 10.75 0 24 0 C37.25 0 48 10.75 48 24 C48 37.25 37.25 48 24 48 " transform="translate(390.15, 49.4502)"/>
   <path style="fill:#000000; fill-rule:nonzero;stroke:none;" d="M0.3 1.4004 L0 0.7002 L0.35 0 L69.65 0 L69.95 0.7002 L69.65 1.4004 L0.3 1.4004 Z" transform="translate(343.2, 74.75)"/>
   <path style="fill:#000000; fill-rule:evenodd;stroke:none;" d="M1.302 5.8106 L4.662 5.8106 C5.824 5.8106 6.342 6.3702 6.342 7.6299 L6.328 8.5401 C6.328 9.17 6.44 9.7862 6.622 10.2061 L8.204 10.2061 L8.204 9.8838 C7.714 9.5479 7.616 9.1836 7.588 7.8262 C7.574 6.1465 7.308 5.6416 6.202 5.1661 C7.35 4.6065 7.812 3.8916 7.812 2.7305 C7.812 0.9659 6.706 0 4.704 0 L0 0 L0 10.2061 L1.302 10.2061 L1.302 5.8106 Z M1.302 4.6622 L1.302 1.1485 L4.452 1.1485 C5.18 1.1485 5.6 1.2598 5.922 1.5401 C6.272 1.834 6.454 2.2959 6.454 2.9122 C6.454 4.1163 5.838 4.6622 4.452 4.6622 L1.302 4.6622 Z" transform="translate(449.052, 31.2939)"/>
   <path style="fill:#000000; fill-rule:evenodd;stroke:none;" d="M4.956 6.5312 L1.039 6.5312 C1.134 5.9218 1.47 5.5332 2.383 4.998 L3.433 4.4306 C4.473 3.8642 5.008 3.0976 5.008 2.1836 C5.008 1.5644 4.756 0.9873 4.316 0.5879 C3.874 0.1884 3.329 0 2.625 0 C1.68 0 0.977 0.3359 0.567 0.9658 C0.304 1.3652 0.189 1.8271 0.168 2.583 L1.092 2.583 C1.123 2.0791 1.187 1.7744 1.313 1.5332 C1.554 1.081 2.037 0.8086 2.593 0.8086 C3.433 0.8086 4.064 1.4072 4.064 2.205 C4.064 2.7929 3.717 3.2968 3.055 3.6748 L2.089 4.2207 C0.536 5.1025 0.084 5.8066 0 7.4443 L4.956 7.4443 L4.956 6.5312 Z" transform="translate(458.357, 28.8057)"/>
   <path style="fill:#000000; fill-rule:nonzero;stroke:none;" d="M33.4 0 L34.4 1 L1.3 34.1006 L0.3 34.1006 L0 33.4004 L33.4 0 Z" transform="translate(412.85, 41.3496)"/>
   <path style="fill:#000000; fill-rule:evenodd;stroke:none;" d="M1.302 5.81 L4.662 5.81 C5.824 5.81 6.342 6.37 6.342 7.63 L6.328 8.54 C6.328 9.17 6.44 9.786 6.622 10.206 L8.204 10.206 L8.204 9.884 C7.714 9.548 7.616 9.184 7.588 7.826 C7.574 6.146 7.308 5.642 6.202 5.166 C7.35 4.606 7.812 3.892 7.812 2.73 C7.812 0.966 6.706 0 4.704 0 L0 0 L0 10.206 L1.302 10.206 L1.302 5.81 Z M1.302 4.662 L1.302 1.148 L4.452 1.148 C5.18 1.148 5.6 1.26 5.922 1.54 C6.272 1.834 6.454 2.296 6.454 2.912 C6.454 4.116 5.838 4.662 4.452 4.662 L1.302 4.662 Z" transform="translate(452.052, 112.294)"/>
   <path style="fill:#000000; fill-rule:evenodd;stroke:none;" d="M1.984 4.032 L2.1 4.032 L2.488 4.021 C3.507 4.021 4.032 4.483 4.032 5.376 C4.032 6.31 3.454 6.867 2.488 6.867 C1.48 6.867 0.987 6.363 0.924 5.281 L0 5.281 C0.042 5.88 0.147 6.268 0.325 6.604 C0.703 7.318 1.438 7.685 2.457 7.685 C3.99 7.685 4.977 6.772 4.977 5.365 C4.977 4.42 4.609 3.895 3.717 3.59 C4.41 3.317 4.757 2.793 4.757 2.047 C4.757 0.766 3.906 0 2.488 0 C0.987 0 0.189 0.818 0.157 2.404 L1.082 2.404 C1.092 1.953 1.134 1.701 1.25 1.469 C1.46 1.06 1.922 0.808 2.499 0.808 C3.318 0.808 3.811 1.291 3.811 2.079 C3.811 2.603 3.623 2.919 3.213 3.087 C2.961 3.191 2.636 3.233 1.984 3.244 L1.984 4.032 Z" transform="translate(461.336, 109.806)"/>
   <path style="fill:#000000; fill-rule:nonzero;stroke:none;" d="M37.4 36.0998 L36.4 37.0998 L0 0.7002 L0.3 0 L1.3 0 L37.4 36.0998 Z" transform="translate(412.85, 75.4502)"/>
   <path style="fill:#000000; fill-rule:evenodd;stroke:none;" d="M1.302 5.81 L4.662 5.81 C5.824 5.81 6.342 6.37 6.342 7.63 L6.328 8.54 C6.328 9.17 6.44 9.786 6.622 10.206 L8.204 10.206 L8.204 9.884 C7.714 9.548 7.616 9.184 7.588 7.826 C7.574 6.146 7.308 5.642 6.202 5.166 C7.35 4.606 7.812 3.892 7.812 2.73 C7.812 0.966 6.706 0 4.704 0 L0 0 L0 10.206 L1.302 10.206 L1.302 5.81 Z M1.302 4.662 L1.302 1.148 L4.452 1.148 C5.18 1.148 5.6 1.26 5.922 1.54 C6.272 1.834 6.454 2.296 6.454 2.912 C6.454 4.116 5.838 4.662 4.452 4.662 L1.302 4.662 Z" transform="translate(440.052, 115.294)"/>
   <path style="fill:#000000; fill-rule:evenodd;stroke:none;" d="M3.14 5.659 L3.14 7.444 L4.063 7.444 L4.063 5.659 L5.166 5.659 L5.166 4.83 L4.063 4.83 L4.063 0 L3.381 0 L0 4.682 L0 5.659 L3.14 5.659 Z M3.14 4.83 L0.809 4.83 L3.14 1.575 L3.14 4.83 Z" transform="translate(449.294, 112.806)"/>
   <path style="fill:#000000; fill-rule:nonzero;stroke:none;" d="M19.6 18.5998 L18.6 19.5998 L0 1 L1 0 L19.6 18.5998 Z" transform="translate(418.65, 95.9502)"/>
   <path style="fill:#000000; fill-rule:evenodd;stroke:none;" d="M1.302 5.8106 L4.662 5.8106 C5.824 5.8106 6.342 6.3702 6.342 7.6299 L6.328 8.5401 C6.328 9.17 6.44 9.7862 6.622 10.2061 L8.204 10.2061 L8.204 9.8838 C7.714 9.5479 7.616 9.1836 7.588 7.8262 C7.574 6.1465 7.308 5.6416 6.202 5.1661 C7.35 4.6065 7.812 3.8916 7.812 2.7305 C7.812 0.9659 6.706 0 4.704 0 L0 0 L0 10.2061 L1.302 10.2061 L1.302 5.8106 Z M1.302 4.6622 L1.302 1.1485 L4.452 1.1485 C5.18 1.1485 5.6 1.2598 5.922 1.5401 C6.272 1.834 6.454 2.2959 6.454 2.9122 C6.454 4.1163 5.838 4.6622 4.452 4.6622 L1.302 4.6622 Z" transform="translate(311.802, 35.2939)"/>
   <path style="fill:#000000; fill-rule:evenodd;stroke:none;" d="M4.631 0 L0.788 0 L0.232 4.0527 L1.082 4.0527 C1.513 3.5381 1.869 3.3593 2.447 3.3593 C3.445 3.3593 4.074 4.042 4.074 5.1445 C4.074 6.2158 3.455 6.8672 2.447 6.8672 C1.639 6.8672 1.145 6.457 0.924 5.6172 L0 5.6172 C0.126 6.2265 0.232 6.5205 0.452 6.7929 C0.872 7.3603 1.628 7.6855 2.468 7.6855 C3.97 7.6855 5.02 6.5937 5.02 5.0185 C5.02 3.5488 4.043 2.541 2.615 2.541 C2.09 2.541 1.67 2.6777 1.239 2.9922 L1.533 0.9131 L4.631 0.9131 L4.631 0 Z" transform="translate(320.867, 32.8057)"/>
   <path style="fill:#000000; fill-rule:nonzero;stroke:none;" d="M0 0.9004 L1.1 0 L22.85 28.2002 L22.5 28.9004 L21.55 28.8506 L0 0.9004 Z" transform="translate(320.7, 46.5498)"/>
   <path style="fill:#000000; fill-rule:evenodd;stroke:none;" d="M1.302 5.81 L4.662 5.81 C5.824 5.81 6.342 6.37 6.342 7.63 L6.328 8.54 C6.328 9.17 6.44 9.786 6.622 10.206 L8.204 10.206 L8.204 9.884 C7.714 9.548 7.616 9.184 7.588 7.826 C7.574 6.146 7.308 5.642 6.202 5.166 C7.35 4.606 7.812 3.892 7.812 2.73 C7.812 0.966 6.706 0 4.704 0 L0 0 L0 10.206 L1.302 10.206 L1.302 5.81 Z M1.302 4.662 L1.302 1.148 L4.452 1.148 C5.18 1.148 5.6 1.26 5.922 1.54 C6.272 1.834 6.454 2.296 6.454 2.912 C6.454 4.116 5.838 4.662 4.452 4.662 L1.302 4.662 Z" transform="translate(305.802, 104.294)"/>
   <path style="fill:#000000; fill-rule:evenodd;stroke:none;" d="M4.778 1.942 C4.6 0.724 3.802 0 2.667 0 C1.849 0 1.113 0.398 0.672 1.06 C0.21 1.785 0 2.698 0 4.052 C0 5.302 0.19 6.1 0.63 6.761 C1.029 7.36 1.681 7.685 2.499 7.685 C3.917 7.685 4.936 6.635 4.936 5.176 C4.936 3.79 3.99 2.813 2.657 2.813 C1.922 2.813 1.345 3.097 0.945 3.643 C0.956 1.827 1.544 0.818 2.605 0.818 C3.255 0.818 3.707 1.228 3.854 1.942 L4.778 1.942 Z M2.541 3.632 C3.434 3.632 3.99 4.252 3.99 5.25 C3.99 6.184 3.361 6.867 2.51 6.867 C1.649 6.867 0.998 6.153 0.998 5.197 C0.998 4.273 1.628 3.632 2.541 3.632 Z" transform="translate(314.951, 101.806)"/>
   <path style="fill:#000000; fill-rule:nonzero;stroke:none;" d="M1 25.2496 L0 24.25 L23.55 0 L24.5 0.0498 L24.8 0.75 L1 25.2496 Z" transform="translate(318.7, 75.4004)"/>
   <path style="fill:#000000; fill-rule:evenodd;stroke:none;" d="M1.302 5.8106 L4.662 5.8106 C5.824 5.8106 6.342 6.3702 6.342 7.6299 L6.328 8.5401 C6.328 9.17 6.44 9.7862 6.622 10.2061 L8.204 10.2061 L8.204 9.8838 C7.714 9.5479 7.616 9.1836 7.588 7.8262 C7.574 6.1465 7.308 5.6416 6.202 5.1661 C7.35 4.6065 7.812 3.8916 7.812 2.7305 C7.812 0.9659 6.706 0 4.704 0 L0 0 L0 10.2061 L1.302 10.2061 L1.302 5.8106 Z M1.302 4.6622 L1.302 1.1485 L4.452 1.1485 C5.18 1.1485 5.6 1.2598 5.922 1.5401 C6.272 1.834 6.454 2.2959 6.454 2.9122 C6.454 4.1163 5.838 4.6622 4.452 4.6622 L1.302 4.6622 Z" transform="translate(455.052, 47.2939)"/>
   <path style="fill:#000000; fill-rule:evenodd;stroke:none;" d="M1.649 2.1416 L1.649 7.4443 L2.573 7.4443 L2.573 0 L1.963 0 C1.638 1.1445 1.428 1.3017 0 1.4804 L0 2.1416 L1.649 2.1416 Z" transform="translate(454.821, 49.0557)"/>
   <path style="fill:#000000; fill-rule:nonzero;stroke:none;" d="M15.85 0 L16.6 1.2002 L0.75 11.2998 L0 10.0996 L15.85 0 Z" transform="translate(435.8, 55.75)"/>
  </g>
 </g>
</svg>
