<?xml version="1.0" encoding="iso-8859-1"?>
<!-- Generator: Adobe Illustrator 16.0.0, SVG Export Plug-In . SVG Version: 6.00 Build 0)  -->
<!DOCTYPE svg PUBLIC "-//W3C//DTD SVG 1.1//EN" "http://www.w3.org/Graphics/SVG/1.1/DTD/svg11.dtd">
<svg version="1.1" id="Capa_1" xmlns="http://www.w3.org/2000/svg" xmlns:xlink="http://www.w3.org/1999/xlink" x="0px" y="0px"
	 width="456.454px" height="456.454px" viewBox="0 0 456.454 456.454" style="enable-background:new 0 0 456.454 456.454;"
	 xml:space="preserve">
<g>
	<g>
		<path d="M329.21,0H127.241c-13.985,0-25.352,11.37-25.352,25.352V431.11c0,13.975,11.375,25.344,25.352,25.344H329.21
			c13.975,0,25.354-11.369,25.354-25.344V25.352C354.564,11.37,343.194,0,329.21,0z M329.21,444.607H127.241
			c-7.442,0-13.502-6.063-13.502-13.497v-11.659c2.852,6.556,9.372,11.156,16.963,11.156h195.005
			c7.622,0,14.188-4.646,17.017-11.243v11.746C342.712,438.544,336.654,444.607,329.21,444.607z M127.241,11.852H329.21
			c7.444,0,13.502,6.058,13.502,13.5v270.852c-0.675-0.554-1.508-0.924-2.458-0.924h-21.459H296.37h-22.419h-22.419h-7.394
			c7.992-3.991,13.553-12.172,13.553-21.703v-10.191c0-13.421-10.918-24.339-24.328-24.339h-10.202
			c-13.413,0-24.331,10.918-24.331,24.339v10.191c0,9.531,5.553,17.712,13.556,21.703h-5.688h-22.435h-22.421h-22.419h-23.282
			c-0.924,0-1.737,0.365-2.41,0.894V25.352C113.738,17.902,119.792,11.852,127.241,11.852z M157.899,303.181v24.867h-14.52v-24.867
			H157.899z M180.313,303.181v24.867h-14.521v-24.867H180.313z M202.748,303.181v24.867h-14.536v-24.867H202.748z M225.169,303.181
			v24.867h-14.52v-24.867H225.169z M270.011,303.181v24.867h-14.523v-24.867H270.011z M292.43,303.181v24.867h-14.518v-24.867
			H292.43z M314.85,303.181v24.867h-14.519v-24.867H314.85z M336.313,303.181v24.867H322.75v-24.867H336.313z M233.068,389.938
			v-23.038h14.523v23.038H233.068z M210.649,389.938v-23.038h14.52v23.038H210.649z M188.212,389.938v-23.038h14.536v23.038H188.212
			z M336.313,359.003H322.75v-23.055h13.563V359.003z M314.85,359.003h-14.519v-23.055h14.519V359.003z M292.43,359.003h-14.518
			v-23.055h14.518V359.003z M270.011,359.003h-14.523v-23.055h14.523V359.003z M247.592,359.003h-14.523v-23.055h14.523V359.003z
			 M225.169,359.003h-14.52v-23.055h14.52V359.003z M202.748,359.003h-14.536v-23.055h14.536V359.003z M180.313,359.003h-14.521
			v-23.055h14.521V359.003z M157.899,359.003h-14.52v-23.055h14.52V359.003z M135.48,359.003h-15.381v-23.055h15.381V359.003z
			 M120.091,366.899h15.381v23.038h-15.381V366.899z M143.379,366.899h14.52v23.038h-14.52V366.899z M165.8,366.899h14.521v23.038
			H165.8V366.899z M255.487,366.899h14.523v23.038h-14.523V366.899z M277.912,366.899h14.518v23.038h-14.518V366.899z
			 M300.331,366.899h14.519v23.038h-14.519V366.899z M322.75,366.899h13.563v23.038H322.75V366.899z M247.592,328.048h-14.523
			v-24.867h14.523V328.048z M231.898,282.736h-7.267c-5.853,0-10.618-4.768-10.618-10.618v-7.286
			c0-5.855,4.766-10.618,10.618-10.618h7.267c5.863,0,10.635,4.763,10.635,10.618v7.286
			C242.523,277.969,237.761,282.736,231.898,282.736z M135.48,328.048h-15.381v-24.867h15.381V328.048z M120.091,397.839h15.381
			v24.867h-4.781c-5.845,0-10.601-4.764-10.601-10.618V397.839L120.091,397.839z M143.379,397.839h14.52v24.867h-14.52V397.839z
			 M165.8,397.839h14.521v24.867H165.8V397.839z M188.212,397.839h15.666c0.718,0.731,1.713,1.193,2.82,1.193
			c1.107,0,2.103-0.462,2.821-1.193h16.78c0.719,0.731,1.714,1.193,2.818,1.193c1.107,0,2.102-0.462,2.821-1.193h16.78
			c0.721,0.731,1.711,1.193,2.818,1.193c1.106,0,2.103-0.462,2.823-1.193h15.65v24.867h-81.799V397.839z M277.912,397.839h14.518
			v24.867h-14.518V397.839z M300.331,397.839h14.519v24.867h-14.519V397.839z M322.75,397.839h13.563v14.259
			c0,5.855-4.763,10.618-10.618,10.618h-2.945V397.839L322.75,397.839z"/>
		<path d="M209.385,30.699h35.795c2.178,0,3.95-1.77,3.95-3.948c0-2.181-1.772-3.951-3.95-3.951h-35.795
			c-2.181,0-3.951,1.77-3.951,3.951C205.434,28.929,207.204,30.699,209.385,30.699z"/>
		<path d="M130.496,218.206h196.007c2.179,0,3.951-1.768,3.951-3.948V66.194c0-2.178-1.772-3.948-3.951-3.948H130.496
			c-2.181,0-3.951,1.77-3.951,3.948v148.064C126.545,216.438,128.307,218.206,130.496,218.206z M134.444,70.145h188.109v140.162
			H134.444V70.145z"/>
		<path d="M174.964,256.031h-3.413c-5.926,0-10.737,4.819-10.737,10.745v3.397c0,5.926,4.811,10.745,10.737,10.745h3.413
			c5.926,0,10.737-4.819,10.737-10.745v-3.397C185.701,260.851,180.89,256.031,174.964,256.031z M177.8,270.174
			c0,1.563-1.272,2.844-2.836,2.844h-3.413c-1.564,0-2.836-1.28-2.836-2.844v-3.397c0-1.563,1.272-2.844,2.836-2.844h3.413
			c1.564,0,2.836,1.28,2.836,2.844V270.174L177.8,270.174z"/>
		<path d="M284.92,256.031h-3.402c-5.932,0-10.75,4.819-10.75,10.745v3.397c0,5.926,4.818,10.745,10.75,10.745h3.402
			c5.931,0,10.75-4.819,10.75-10.745v-3.397C295.67,260.851,290.851,256.031,284.92,256.031z M287.769,270.174
			c0,1.563-1.28,2.844-2.849,2.844h-3.402c-1.569,0-2.849-1.28-2.849-2.844v-3.397c0-1.563,1.279-2.844,2.849-2.844h3.402
			c1.568,0,2.849,1.28,2.849,2.844V270.174z"/>
		<path d="M129.523,255.026h19.812c2.181,0,3.951-1.768,3.951-3.945c0-2.184-1.77-3.951-3.951-3.951h-19.812
			c-2.181,0-3.951,1.768-3.951,3.951C125.573,253.259,127.335,255.026,129.523,255.026z"/>
		<path d="M326.945,247.13h-19.83c-2.178,0-3.95,1.768-3.95,3.951c0,2.178,1.772,3.945,3.95,3.945h19.83
			c2.178,0,3.95-1.768,3.95-3.945C330.896,248.897,329.123,247.13,326.945,247.13z"/>
		<path d="M151.358,279.67c-1.833-4.291-7.883-6.241-12.735-6.241c-5.149,0-11.154,2.179-12.164,6.978l-0.808,3.858
			c-0.449,2.133,0.935,4.221,3.075,4.662c2.029,0.492,4.225-0.93,4.659-3.072l0.571-3.28c0.378-0.427,2.178-1.244,4.667-1.244
			c2.996,0,5.2,1.157,5.459,1.411l1.604,3.84c0.632,1.518,2.103,2.432,3.641,2.432c0.508,0,1.028-0.102,1.518-0.305
			c2.014-0.838,2.963-3.148,2.125-5.159L151.358,279.67z"/>
		<path d="M328.966,279.695c-1.808-4.307-7.876-6.267-12.74-6.267c-5.154,0-11.156,2.179-12.172,7.008l-0.803,3.793
			c-0.457,2.138,0.904,4.23,3.037,4.697c2.112,0.406,4.011-0.822,4.59-2.772c0.533,2.98,3.021,5.291,6.155,5.291
			c3.092,0,5.56-2.249,6.144-5.164l0.132,0.325c0.641,1.508,2.103,2.417,3.642,2.417c0.513,0,1.036-0.102,1.533-0.31
			c2.011-0.844,2.956-3.159,2.112-5.175L328.966,279.695z M315.515,285.062c0-0.833,0.681-1.514,1.508-1.514
			c0.838,0,1.523,0.676,1.523,1.514C318.557,286.738,315.515,286.753,315.515,285.062z"/>
	</g>
</g>
<g>
</g>
<g>
</g>
<g>
</g>
<g>
</g>
<g>
</g>
<g>
</g>
<g>
</g>
<g>
</g>
<g>
</g>
<g>
</g>
<g>
</g>
<g>
</g>
<g>
</g>
<g>
</g>
<g>
</g>
</svg>
