<?xml version="1.0" encoding="iso-8859-1"?>
<!-- Generator: Adobe Illustrator 16.0.0, SVG Export Plug-In . SVG Version: 6.00 Build 0)  -->
<!DOCTYPE svg PUBLIC "-//W3C//DTD SVG 1.1//EN" "http://www.w3.org/Graphics/SVG/1.1/DTD/svg11.dtd">
<svg version="1.1" id="Capa_1" xmlns="http://www.w3.org/2000/svg" xmlns:xlink="http://www.w3.org/1999/xlink" x="0px" y="0px"
	 width="137.705px" height="137.705px" viewBox="0 0 137.705 137.705" style="enable-background:new 0 0 137.705 137.705;"
	 xml:space="preserve">
<g>
	<g>
		<path d="M23.956,103.164c0,3.108,2.516,5.617,5.621,5.617c3.103,0,5.622-2.52,5.622-5.617c0-3.103-2.519-5.616-5.622-5.616
			C26.472,97.548,23.956,100.066,23.956,103.164z M31.821,103.164c0,1.239-1.008,2.245-2.245,2.245
			c-1.239,0-2.247-1.001-2.247-2.245c0-1.238,1.008-2.244,2.247-2.244C30.813,100.92,31.821,101.926,31.821,103.164z"/>
		<path d="M30.014,83.289c0-3.103-2.517-5.616-5.622-5.616s-5.621,2.519-5.621,5.616c0,3.107,2.516,5.627,5.621,5.627
			S30.014,86.396,30.014,83.289z M22.15,83.289c0-1.233,1.01-2.244,2.247-2.244c1.236,0,2.247,1.011,2.247,2.244
			c0,1.239-1.011,2.25-2.247,2.25C23.153,85.539,22.15,84.533,22.15,83.289z"/>
		<path d="M24.204,65.024c3.105,0,5.622-2.516,5.622-5.622c0-3.103-2.516-5.616-5.622-5.616c-3.105,0-5.621,2.519-5.621,5.616
			C18.588,62.513,21.099,65.024,24.204,65.024z M24.204,57.163c1.239,0,2.247,1.008,2.247,2.244c0,1.239-1.008,2.247-2.247,2.247
			c-1.236,0-2.247-1.008-2.247-2.247C21.957,58.166,22.968,57.163,24.204,57.163z"/>
		<path d="M30.768,31.402c-3.105,0-5.621,2.517-5.621,5.622c0,3.103,2.516,5.622,5.621,5.622c3.103,0,5.621-2.524,5.621-5.622
			C36.389,33.919,33.87,31.402,30.768,31.402z M30.768,39.269c-1.239,0-2.247-1.008-2.247-2.245c0-1.239,1.008-2.247,2.247-2.247
			c1.236,0,2.245,1.008,2.245,2.247C33.02,38.26,32.009,39.269,30.768,39.269z"/>
		<path d="M43.064,15.595c-3.103,0-5.622,2.516-5.622,5.621c0,3.103,2.519,5.616,5.622,5.616c3.105,0,5.616-2.513,5.616-5.616
			C48.68,18.111,46.164,15.595,43.064,15.595z M43.064,23.463c-1.237,0-2.245-1.01-2.245-2.247c0-1.239,1.008-2.247,2.245-2.247
			c1.239,0,2.247,1.008,2.247,2.247C45.311,22.453,44.303,23.463,43.064,23.463z"/>
		<path d="M59.532,7.265c-3.103,0-5.622,2.516-5.622,5.621s2.519,5.621,5.622,5.621c3.105,0,5.622-2.516,5.622-5.621
			S62.637,7.265,59.532,7.265z M59.532,15.133c-1.236,0-2.245-1.011-2.245-2.247s1.008-2.247,2.245-2.247
			c1.239,0,2.247,1.011,2.247,2.247S60.776,15.133,59.532,15.133z"/>
		<path d="M78.171,7.265c-3.108,0-5.627,2.516-5.627,5.621s2.519,5.621,5.627,5.621c3.103,0,5.616-2.516,5.616-5.621
			S81.273,7.265,78.171,7.265z M78.171,15.133c-1.239,0-2.245-1.011-2.245-2.247s1.006-2.247,2.245-2.247
			c1.238,0,2.244,1.011,2.244,2.247S79.409,15.133,78.171,15.133z"/>
		<path d="M94.644,15.595c-3.107,0-5.626,2.516-5.626,5.621c0,3.103,2.519,5.622,5.626,5.622c3.103,0,5.616-2.519,5.616-5.622
			C100.26,18.111,97.741,15.595,94.644,15.595z M94.644,23.463c-1.239,0-2.245-1.01-2.245-2.247c0-1.239,1.006-2.247,2.245-2.247
			s2.244,1.008,2.244,2.247C96.888,22.453,95.883,23.463,94.644,23.463z"/>
		<path d="M112.549,37.024c0-3.105-2.52-5.622-5.617-5.622c-3.107,0-5.615,2.517-5.615,5.622c0,3.103,2.513,5.622,5.615,5.622
			C110.04,42.64,112.549,40.121,112.549,37.024z M104.688,37.024c0-1.239,1.006-2.247,2.244-2.247c1.239,0,2.25,1.008,2.25,2.247
			c0,1.236-1.011,2.245-2.25,2.245C105.693,39.269,104.688,38.26,104.688,37.024z"/>
		<path d="M107.882,59.407c0,3.105,2.514,5.622,5.611,5.622c3.107,0,5.616-2.516,5.616-5.622c0-3.103-2.514-5.616-5.616-5.616
			C110.396,53.786,107.882,56.305,107.882,59.407z M113.493,57.163c1.239,0,2.249,1.008,2.249,2.244c0,1.239-1.01,2.247-2.249,2.247
			c-1.234,0-2.245-1.008-2.245-2.247C111.248,58.166,112.259,57.163,113.493,57.163z"/>
		<path d="M118.926,83.289c0-3.103-2.519-5.616-5.615-5.616c-3.108,0-5.622,2.519-5.622,5.616c0,3.107,2.514,5.627,5.622,5.627
			C116.407,88.916,118.926,86.396,118.926,83.289z M113.311,85.539c-1.239,0-2.245-1.011-2.245-2.25
			c0-1.233,1.006-2.244,2.245-2.244c1.238,0,2.244,1.011,2.244,2.244C115.555,84.533,114.549,85.539,113.311,85.539z"/>
		<path d="M108.125,97.548c-3.103,0-5.615,2.519-5.615,5.616c0,3.108,2.513,5.617,5.615,5.617c3.104,0,5.617-2.52,5.617-5.617
			C113.747,100.066,111.229,97.548,108.125,97.548z M108.125,105.409c-1.238,0-2.249-1.006-2.249-2.245
			c0-1.238,1.011-2.244,2.249-2.244c1.234,0,2.25,1.006,2.25,2.244C110.375,104.408,109.369,105.409,108.125,105.409z"/>
		<path d="M119.973,105.14c3.93-10.709,6.002-22.663,6.002-34.624C125.975,29.656,101.945,0,68.85,0S11.73,29.656,11.73,70.516
			c0,11.824,2.028,23.641,5.865,34.264l-3.092,11.182l-0.262,0.935l0.277,0.924l4.773,16.148l1.107,3.737l3.542-1.63l23.737-10.953
			l2.933-1.356l-1.227-2.99l-8.315-20.252c-0.14-0.604-0.317-1.188-0.536-1.736c-3.407-8.531-5.205-18.301-5.205-28.271
			c0-27.627,13.784-46.918,33.522-46.918c19.741,0,33.522,19.291,33.522,46.918c0,9.26-1.554,18.354-4.499,26.434l-0.935,2.27
			l-8.846,21.557l-1.229,2.99l2.935,1.356l23.734,10.953l3.54,1.63l1.111-3.737l4.773-16.148l0.274-0.924l-0.264-0.935
			L119.973,105.14z M114.945,133.018l-23.734-10.953l8.846-21.561l0.046,0.121c0.061-0.192,0.116-0.386,0.198-0.578
			c3.56-8.928,5.443-19.134,5.443-29.526c0-29.607-15.173-50.292-36.895-50.292c-21.718,0-36.891,20.68-36.891,50.287
			c0,10.397,1.881,20.604,5.443,29.525c0.198,0.488,0.338,0.99,0.437,1.488l8.429,20.535l-23.737,10.953l-4.773-16.152l3.369-12.172
			l0.051,0.045c-3.961-10.511-6.068-22.292-6.068-34.218c0-38.905,22.605-67.146,53.751-67.146
			c31.146,0,53.753,28.241,53.753,67.146c0,12.022-2.144,23.899-6.165,34.472l3.29,11.873L114.945,133.018z"/>
	</g>
</g>
<g>
</g>
<g>
</g>
<g>
</g>
<g>
</g>
<g>
</g>
<g>
</g>
<g>
</g>
<g>
</g>
<g>
</g>
<g>
</g>
<g>
</g>
<g>
</g>
<g>
</g>
<g>
</g>
<g>
</g>
</svg>
