<?xml version="1.0" encoding="utf-8"?>
<!-- Generator: Adobe Illustrator 19.2.1, SVG Export Plug-In . SVG Version: 6.00 Build 0)  -->
<svg version="1.1" id="Layer_1" xmlns="http://www.w3.org/2000/svg" xmlns:xlink="http://www.w3.org/1999/xlink" x="0px" y="0px"
	 viewBox="0 0 792 278.7" style="enable-background:new 0 0 792 278.7;" xml:space="preserve">
<metadata><?xpacket begin="﻿" id="W5M0MpCehiHzreSzNTczkc9d"?>
<x:xmpmeta xmlns:x="adobe:ns:meta/" x:xmptk="Adobe XMP Core 5.6-c111 79.158366, 2015/09/25-01:12:00        ">
   <rdf:RDF xmlns:rdf="http://www.w3.org/1999/02/22-rdf-syntax-ns#">
      <rdf:Description rdf:about=""/>
   </rdf:RDF>
</x:xmpmeta>
                                                                                                    
                                                                                                    
                                                                                                    
                                                                                                    
                                                                                                    
                                                                                                    
                                                                                                    
                                                                                                    
                                                                                                    
                                                                                                    
                                                                                                    
                                                                                                    
                                                                                                    
                                                                                                    
                                                                                                    
                                                                                                    
                                                                                                    
                                                                                                    
                                                                                                    
                                                                                                    
                           
<?xpacket end="w"?></metadata>
<style type="text/css">
	.st0{fill:#4785C5;}
	.st1{fill:#F1F2F2;}
</style>
<g>
	<path class="st0" d="M159.9,9.3H770c9,0,16.3,7.3,16.3,16.3v222.1c0,9-7.3,16.3-16.3,16.3H159.9c-9,0-6.8-4,0-4H770
		c6.8,0,12.3-5.5,12.3-12.3v-222c0-6.8-5.5-12.3-12.3-12.3H159.9C153.1,13.3,150.9,9.3,159.9,9.3z"/>
</g>
<g>
	<path class="st0" d="M139.3,270.1C66.5,270.1,7.2,210.9,7.2,138S66.5,6,139.3,6s132.1,59.2,132.1,132.1S212.2,270.1,139.3,270.1z
		 M139.3,61.6c-42.2,0-76.5,34.3-76.5,76.5s34.3,76.5,76.5,76.5s76.5-34.3,76.5-76.5S181.5,61.6,139.3,61.6z"/>
</g>
<g>
	<path class="st0" d="M139.3,182.5c-24.5,0-44.5-20-44.5-44.5s20-44.5,44.5-44.5s44.5,20,44.5,44.5S163.9,182.5,139.3,182.5z"/>
</g>
<g>
	<path class="st1" d="M309.2,80.7c4.3,0,7.6,4.5,7.8,12.6c7.5-2.4,9.1-9.9,11.9-9.9c1.6,0,2.5,0.8,2.5,2.2c0,1.7-1,3.3-2.9,5.2
		c-3.8,5.7-8.1,8.9-12.7,9.7c-4.6,16.4-12.1,24.8-21.3,24.8c-6.8,0-11.6-4.6-11.6-12.9c0-6,3-16.7,9.4-26.6c3.2-5.1,6.4-7.6,9.5-7.6
		c2.1,0,3.8,1,4.6,2.7C307.4,80.9,308.2,80.7,309.2,80.7z M295.5,118.3c5.2,0,13.7-15,13.7-26.6c0-2.9-1.1-4.5-2.9-4.5
		c-4.8,0-14.2,14.5-14.2,26.1C292.2,116.7,293.3,118.3,295.5,118.3z"/>
	<path class="st1" d="M321,61.6c-4.6,0-7-1.6-7-4.1c0-3,7.5-3.7,22.9-4.8c2.7-8.7,4.1-12.6,8.1-12.6c2.9,0,4.8,1.4,4.8,3
		c0,0.6-1.9,3.3-3.3,9.1c6-0.5,10.8-0.6,14.2-0.6c9.1,0,13.2,1.1,13.2,4.8c0,1.6-1.6,1.7-5.1,1.7c-6.2,0-14.5,1.1-25,1.8
		c-10.3,27.4-13.7,45.5-13.7,51.7c0,3,1.1,4.6,2.7,4.6c2.5,0,6-3.3,9.9-9.9c4.3-7.3,5.1-12.6,6.5-12.6c1.9,0,3.8,1.4,3.8,3
		c0,1.1-2.7,8.9-10,18.8c-3.3,4.6-7.6,7-12.1,7c-4.8,0-8.6-4.3-8.6-12.6c0-8.4,3.5-24.8,11.5-49C326.9,61.5,322.6,61.6,321,61.6z"/>
	<path class="st1" d="M345.8,125.1c-3.3,0-4.8-1.3-4.8-4.5c0-5.1,6-26.4,21.2-62.8c6.8-16.4,9.2-23.5,15.1-23.5
		c1.4,0,2.7,1.3,2.7,2.4c0,2.1-14,26.9-30.9,78.4c16.5-24.3,22-37.9,29.7-37.9c2.1,0,3.7,1.6,3.7,4c0,2.1-0.6,3.5-1.4,5.1
		c-6.7,14.3-10.3,23.4-10.3,27.7c0,1.4,0.5,2.2,1.3,2.2c2.5,0,6.2-4.6,11.8-13.4c1.4-2.2,2.2-3.8,3.3-3.8c0.5,0,2.9,2.1,2.9,3.5
		c0,1-2.9,8-9.2,14.8c-3.3,3.5-6.5,5.2-10.2,5.2c-4.6,0-7.2-2.9-7.2-8.1c0-4.5,1.4-10.2,3.7-17.7
		C355.8,115.4,352.3,125.1,345.8,125.1z"/>
	<path class="st1" d="M391.3,109.5c0,5.9,1.6,9.1,4.8,9.1c5.1,0,14.2-7,20.7-19.2c1.8-3.3,2.4-5.2,3.5-5.2c0.8,0,2.4,1.1,2.4,3
		c0,1.6-1.9,6.4-6.8,12.7c-7.2,9.2-13.4,13.8-21.5,13.8c-8,0-11.9-4.6-11.9-13.8c0-8.9,4.6-24.2,12.2-35.5c2.2-3.2,4.9-5.1,7.6-5.1
		c1.6,0,2.9,0.6,4.3,1.6c6.2,1.9,7.5,1.1,7.5,6.4c0,14-9.7,26.1-16.9,26.1c-1.6,0-3.2-0.6-4.8-2.2
		C391.6,104,391.3,106.7,391.3,109.5z M405.6,81.5c0-1.3-1-2.4-1.9-2.4c-3,0-8.7,10.2-8.7,14.5c0,3,1.3,4.8,3,4.8
		C401.5,98.4,405.6,88.7,405.6,81.5z"/>
	<path class="st1" d="M421,76c0-3,4.1-7.3,8.9-7.3c2.2,0,4,1.4,4,3.3c0,1-0.3,2.5-0.8,4.3l5.2,1.6c0.8-1.4,1.9-2.5,3.3-3.7
		c1-0.3,1.8-0.5,2.1-0.5c2.4,0,5.6,2.1,5.6,4.1c0,1.6-1.1,3-3.3,4.8c-6.8,11.5-10,21.3-10,28.8c0,2.7,1.1,4.3,2.2,4.3
		c3,0,7.3-4.8,12.1-14.5c1.6-3.2,2.2-5.6,3.7-5.6c1.3,0,2.9,1.3,2.9,2.7s-1.6,5.1-4.9,10.5c-5.7,9.2-9.5,13.5-15.4,13.5
		s-9.4-4-9.4-10.3c0-6.7,2.2-15.1,6.5-25.8l-4.3-1.3c-4.9,13.7-8.6,20.8-11.9,20.8c-1.1,0-2.1-0.8-2.1-2.4c0-1.1,4.8-8.9,8.4-24
		C422,78.3,421,77.4,421,76z"/>
	<path class="st1" d="M492.8,123.7c-4.6,0-8-3.8-8-9.7c0-6.8,2.5-15.4,8.1-25.1c5.9-10.3,12.6-15.4,17.3-15.4c3,0,5.2,1.6,7.5,4.6
		c1.6-0.5,2.9-0.8,4.3-0.8c3.8,0,6.4,1.9,6.4,4.1c0,1.8-2.2,5.1-4.9,11.1c-4.6,10.3-6.4,17.2-6.4,19.4c0,1.4,0.3,2.1,1.4,2.1
		c1.8,0,4.9-4.1,10.5-11.9c2.5-3.5,3.2-5.4,4.1-5.4c1.3,0,2.5,2.4,2.5,3.5c0,1-2.4,6.7-8.6,14.6c-3.3,4.3-6.2,6.7-9.9,6.7
		c-4.5,0-7.2-3.3-7.2-9.4c0-1,0-2.1,0.2-3.2C504.8,118.7,498.5,123.7,492.8,123.7z M513,82c-3.2,0-8,4.3-12.9,13.5
		c-5.2,9.7-7.2,17-7.2,19.9c0,1.3,0.3,1.7,1.3,1.7c1.8,0,5.7-3.2,10.2-9.9c8.1-12.1,11-22.3,11-22.9C515.3,83,514.4,82,513,82z"/>
	<path class="st1" d="M536,76c0-3,4.1-7.3,8.9-7.3c2.2,0,4,1.4,4,3.3c0,1-0.3,2.5-0.8,4.3l5.2,1.6c0.8-1.4,1.9-2.5,3.3-3.7
		c1-0.3,1.8-0.5,2.1-0.5c2.4,0,5.6,2.1,5.6,4.1c0,1.6-1.1,3-3.3,4.8c-6.8,11.5-10,21.3-10,28.8c0,2.7,1.1,4.3,2.2,4.3
		c3,0,7.3-4.8,12.1-14.5c1.6-3.2,2.2-5.6,3.7-5.6c1.3,0,2.9,1.3,2.9,2.7s-1.6,5.1-4.9,10.5c-5.7,9.2-9.5,13.5-15.4,13.5
		s-9.4-4-9.4-10.3c0-6.7,2.2-15.1,6.5-25.8l-4.3-1.3c-4.9,13.7-8.6,20.8-11.9,20.8c-1.1,0-2.1-0.8-2.1-2.4c0-1.1,4.8-8.9,8.4-24
		C537,78.3,536,77.4,536,76z"/>
	<path class="st1" d="M564,61.6c-4.6,0-7-1.6-7-4.1c0-3,7.5-3.7,22.9-4.8c2.7-8.7,4.1-12.6,8.1-12.6c2.9,0,4.8,1.4,4.8,3
		c0,0.6-1.9,3.3-3.3,9.1c6-0.5,10.8-0.6,14.2-0.6c9.1,0,13.2,1.1,13.2,4.8c0,1.6-1.6,1.7-5.1,1.7c-6.2,0-14.5,1.1-25,1.8
		c-10.3,27.4-13.7,45.5-13.7,51.7c0,3,1.1,4.6,2.7,4.6c2.5,0,6-3.3,9.9-9.9c4.3-7.3,5.1-12.6,6.5-12.6c1.9,0,3.8,1.4,3.8,3
		c0,1.1-2.7,8.9-10,18.8c-3.3,4.6-7.6,7-12.1,7c-4.8,0-8.6-4.3-8.6-12.6c0-8.4,3.5-24.8,11.5-49C569.9,61.5,565.6,61.6,564,61.6z"/>
	<path class="st1" d="M588.4,109.4c0-11,4.6-25.1,7-28.6c1.3-2.1,4.5-3.2,7.5-3.2c1.9,0,3,1,3,2.5c0,0.8-1,2.9-2.2,6.4
		c-4.5,12.2-7.6,20.5-7.6,25.6c0,2.4,1,3.5,2.7,3.5c2.4,0,7.8-4.8,13.4-14c1.8-3,2.4-5.1,3.3-5.1c1,0,2.9,1.1,2.9,3
		c0,0.8-1.8,3.5-4.8,8.7c-5.6,9.4-10.2,14.2-16.1,14.2C592,122.4,588.4,117.6,588.4,109.4z M598.1,68.8c0-4.8,6.7-6.7,9.4-6.7
		s4.1,1.3,4.1,4c0,3.7-4,7.3-8.1,7.3C600.6,73.4,598.1,72,598.1,68.8z"/>
	<path class="st1" d="M636.9,78.7c-1.4,0-3,1-4.6,3c-8.4,10.8-12.9,25.8-12.9,32.3c0,4.8,1.6,7.3,5.1,7.3c5.6,0,11.5-4.3,18.3-12.9
		c4.9-6.2,6.2-10.8,7.3-10.8c0.5,0,2.9,1,2.9,2.4c0,1.3-1.4,5.2-5.1,10.7c-6.5,9.7-14.6,14.8-22.6,14.8c-8.6,0-14.2-5.4-14.2-14
		c0-11.5,7.3-29.3,15.7-37.5c2.2-2.1,4.5-2.9,7.6-2.9c2.4,0,4.3,0.8,6.4,2.2c3.5,0.6,5.6,3.7,5.6,8.3c0,6.5-4.3,16.9-8.6,16.9
		c-2.4,0-4.5-2.1-4.5-4.1c0-4.3,2.9-9.4,4.1-15.6C637.2,78.7,636.9,78.7,636.9,78.7z"/>
	<path class="st1" d="M651.3,103.8c-2.1,0-3.3-2.7-3.3-4.5c0-2.7,3.5-0.2,7.2-3.8c6-22.9,12.9-44.5,20.5-64.9
		c-0.2-0.6-0.2-1.1-0.2-1.6c0-2.9,4.8-5.7,7.8-5.7c4.8,0,10,6,10,9.4c0,4.3-7,30.4-31.3,66.8c-0.6,3.5-1,6.4-1,8.7
		c0,6.4,1,9.5,4.1,9.5c3,0,6.4-3.8,11-11.3c3.5-5.6,4.5-8.9,5.6-8.9c1,0,3.5,1.9,3.5,3c0,0.2-0.2,0.6-0.5,1.3c-4,7.8-7.2,14-11.1,18
		c-3.2,3.2-6,4.6-9.7,4.6c-5.6,0-11.3-6.7-11.3-13.8c0-2.5,0.2-4.9,0.5-7.2C652.5,103.6,651.8,103.8,651.3,103.8z M686.2,33.6
		c0-1.1-0.6-1.7-1.4-1.7c-0.3,0-0.8,0.2-1.4,0.3c-8.6,22-15.3,41.2-19.9,57.4C680.8,57.2,686.2,36.8,686.2,33.6z"/>
	<path class="st1" d="M685.9,109.5c0,5.9,1.6,9.1,4.8,9.1c5.1,0,14.2-7,20.7-19.2c1.8-3.3,2.4-5.2,3.5-5.2c0.8,0,2.4,1.1,2.4,3
		c0,1.6-1.9,6.4-6.8,12.7c-7.2,9.2-13.4,13.8-21.5,13.8c-8,0-11.9-4.6-11.9-13.8c0-8.9,4.6-24.2,12.2-35.5c2.2-3.2,4.9-5.1,7.6-5.1
		c1.6,0,2.9,0.6,4.3,1.6c6.2,1.9,7.5,1.1,7.5,6.4c0,14-9.7,26.1-16.9,26.1c-1.6,0-3.2-0.6-4.8-2.2
		C686.2,104,685.9,106.7,685.9,109.5z M700.2,81.5c0-1.3-1-2.4-1.9-2.4c-3,0-8.7,10.2-8.7,14.5c0,3,1.3,4.8,3,4.8
		C696,98.4,700.2,88.7,700.2,81.5z"/>
	<path class="st1" d="M701.8,122.4c-1.4,0-1.9-1-1.9-4c0-1.4,13.8-15.1,20.7-46.6c0-0.6,0.2-1.3,0.2-1.8c0-2.7,1.4-4.3,3.5-4.3
		c2.7,0,7.8,3.2,7.8,4.6c0,0.6-6.8,6.2-6.8,20.4c0,10.8,4.8,19.9,4.8,27.4c0,6.7-4.6,10.5-7.5,10.5c-4.6,0-9.5-6.5-15.7-9.1
		C704.3,121.1,702.7,122.4,701.8,122.4z M721.7,118.6c0-4.1-2.2-10.5-3.5-20.2c-1.6,4.9-4.3,10.2-8,15.9
		C713.7,115.9,717.5,117.3,721.7,118.6z"/>
</g>
<g>
	<path class="st1" d="M315.8,223c-2.7,0-4.1-1.1-4.1-3.3c0-3,2.5-13.4,8.3-30.5c-0.2,0-0.3,0-0.5,0c-4.1,0-6.2-1.8-6.2-3.7
		c0-1.8,3-2.9,8.9-3.7c10.5-39.8,25.9-58.1,34.8-58.1c1.6,0,3,1.6,4.5,4.9c3.2,3.7,5.2,5.6,5.2,7.2s-2.2,3.2-3.8,3.2
		c-3.5,0-2.7-4.8-6.4-4.8c-9.1,0-14.3,15.6-25.5,47.1c1,0,1.9,0.2,2.9,0.2c6.5,0,8,0.8,8,3.7c0,4-3.7,4.1-11.6,4.1
		c-0.5,0-1.1,0-1.7,0C319.5,215.4,324.4,223,315.8,223z"/>
	<path class="st1" d="M362.8,180.9c4.3,0,7.6,4.5,7.8,12.6c7.5-2.4,9.1-9.9,11.9-9.9c1.6,0,2.5,0.8,2.5,2.2c0,1.7-1,3.3-2.9,5.2
		c-3.8,5.7-8.1,8.9-12.7,9.7c-4.6,16.4-12.1,24.8-21.3,24.8c-6.8,0-11.6-4.6-11.6-12.9c0-6,3-16.7,9.4-26.6c3.2-5.1,6.4-7.6,9.5-7.6
		c2.1,0,3.8,1,4.6,2.7C361,181,361.8,180.9,362.8,180.9z M349.1,218.4c5.2,0,13.7-15,13.7-26.6c0-2.9-1.1-4.5-2.9-4.5
		c-4.8,0-14.2,14.5-14.2,26.1C345.7,216.8,346.9,218.4,349.1,218.4z"/>
	<path class="st1" d="M380.4,176.1c0-3,4.1-7.3,8.9-7.3c2.2,0,4,1.4,4,3.3c0,1-0.3,2.5-0.8,4.3l5.2,1.6c0.8-1.4,1.9-2.5,3.3-3.7
		c1-0.3,1.7-0.5,2.1-0.5c2.4,0,5.6,2.1,5.6,4.1c0,1.6-1.1,3-3.3,4.8c-6.8,11.5-10,21.3-10,28.8c0,2.7,1.1,4.3,2.2,4.3
		c3,0,7.3-4.8,12.1-14.5c1.6-3.2,2.2-5.6,3.7-5.6c1.3,0,2.9,1.3,2.9,2.7s-1.6,5.1-4.9,10.5c-5.7,9.2-9.5,13.5-15.4,13.5
		s-9.4-4-9.4-10.3c0-6.7,2.2-15.1,6.5-25.8l-4.3-1.3c-4.9,13.7-8.6,20.8-11.9,20.8c-1.1,0-2.1-0.8-2.1-2.4c0-1.1,4.8-8.9,8.4-24
		C381.4,178.5,380.4,177.5,380.4,176.1z"/>
	<path class="st1" d="M455.7,219.2c-1.6,0-2.5-0.6-3.3-2.1c-2.2-1.7-3.3-4.5-3.3-8.4c0-15.6,7.6-33.4,13-33.4c2.5,0,5.9,2.2,5.9,4.1
		c0,1-0.6,1.6-1.9,2.1c-6.8,14-8.6,24.8-8.6,28.2c0,1,0.3,1.6,1,1.6c1.9,0,11.6-12.4,18-31.8c1.4-4.5,0.2-8.7,6.2-8.7
		c3,0,5.1,1.3,5.6,3.3c0.6,0.6,1,1.3,1,2.2c0,1.3-0.8,2.1-2.2,2.9c-12.9,23.7-11.9,44.4-15.3,56.5c-2.7,9.7-13.8,15.6-21.6,15.6
		c-5.4,0-8.9-2.2-12.9-7.6c-2.1-1.4-3.2-3.3-3.2-5.9c0-2.5,0.8-3.8,3.5-3.8c2.4,0,2.1,2.4,3.2,6.7c3.2,2.7,7.5,4.1,12.6,4.1
		c1.4,0,2.9-0.2,4.3-0.3c4.5-2.2,5.9-14.5,10-36.4C463.4,215.6,459,219.2,455.7,219.2z"/>
	<path class="st1" d="M510.7,180.9c4.3,0,7.6,4.5,7.8,12.6c7.5-2.4,9.1-9.9,11.9-9.9c1.6,0,2.5,0.8,2.5,2.2c0,1.7-1,3.3-2.9,5.2
		c-3.8,5.7-8.1,8.9-12.7,9.7c-4.6,16.4-12.1,24.8-21.3,24.8c-6.8,0-11.6-4.6-11.6-12.9c0-6,3-16.7,9.4-26.6c3.2-5.1,6.4-7.6,9.5-7.6
		c2.1,0,3.8,1,4.6,2.7C508.9,181,509.7,180.9,510.7,180.9z M497,218.4c5.2,0,13.7-15,13.7-26.6c0-2.9-1.1-4.5-2.9-4.5
		c-4.8,0-14.2,14.5-14.2,26.1C493.7,216.8,494.8,218.4,497,218.4z"/>
	<path class="st1" d="M532.3,222.4c-2.5,0-4.5-1-6.2-3c-2.2-2.2-3-4.3-3-7.5c0-7.2,3-21.6,10-34.7c1.3-2.4,2.7-3.5,4.6-3.5
		c3.2,0,5.2,2.9,5.2,5.2c0,0.8-0.5,1.6-1.3,2.5c-7.3,15.1-10.2,25.8-10.2,30.7c0,2.9,0.6,4.3,2.7,4.3c4.3,0,10.3-11.9,18.9-35.6
		c0.5-4,2.5-6.2,5.2-6.2s5.9,2.5,5.9,5.1c0,2.1-10,16.7-10,33.2c0,2.9,0.6,4.3,1.4,4.3c3.3,0,7.2-5.4,11.9-16.2
		c1-2.2,1.1-3.3,2.7-3.3c1,0,3.5,1.9,3.5,3c0,0.3-2.5,8.3-8.3,16.1c-3.3,4.6-6.5,6.8-10.8,6.8c-4.9,0-8.7-4.1-8.7-11.3
		c0-0.8,0.2-2.4,0.5-4.6C541.7,217.5,536.9,222.4,532.3,222.4z"/>
</g>
</svg>
