<?xml version="1.0" standalone="no"?>
<!DOCTYPE svg PUBLIC "-//W3C//DTD SVG 20010904//EN"
 "http://www.w3.org/TR/2001/REC-SVG-20010904/DTD/svg10.dtd">
<svg version="1.0" xmlns="http://www.w3.org/2000/svg"
 width="9700.000000pt" height="7200.000000pt" viewBox="0 0 9700.000000 7200.000000"
 preserveAspectRatio="xMidYMid meet">
<metadata>
Created by potrace 1.11, written by Peter Selinger 2001-2013
</metadata>
<g transform="translate(0.000000,7200.000000) scale(0.100000,-0.100000)"
fill="#000000" stroke="none">
<path d="M19719 71578 c-1443 -1475 -2036 -2143 -3292 -3711 -889 -1109 -1260
-1609 -2138 -2877 -628 -906 -1040 -1533 -1479 -2250 -303 -495 -765 -1273
-1010 -1700 -390 -683 -654 -1179 -1079 -2030 -501 -1004 -712 -1469 -1134
-2490 -416 -1009 -677 -1726 -1086 -2990 -308 -951 -760 -2597 -1016 -3695
-250 -1073 -419 -1877 -554 -2645 -28 -157 -60 -334 -70 -395 -20 -110 -97
-574 -126 -757 -123 -783 -285 -2166 -350 -2993 -83 -1058 -104 -1461 -136
-2526 -14 -457 -7 -2082 11 -2489 16 -386 58 -1215 75 -1480 88 -1366 278
-3137 475 -4430 11 -74 25 -166 31 -205 65 -455 168 -1059 295 -1734 302
-1597 724 -3267 1254 -4956 15 -49 65 -209 111 -355 46 -146 172 -530 280
-855 640 -1917 1227 -3400 1947 -4920 258 -545 746 -1530 782 -1580 4 -5 38
-71 76 -145 450 -891 1609 -2964 2267 -4055 124 -207 431 -704 520 -845 23
-36 99 -157 171 -270 147 -233 287 -451 422 -657 51 -78 125 -192 166 -255
417 -646 1113 -1667 1648 -2418 353 -495 1202 -1644 1516 -2050 27 -36 104
-135 169 -220 1601 -2084 2734 -3387 4256 -4895 445 -441 652 -638 989 -945
328 -299 381 -346 634 -563 l229 -197 628 0 c346 0 629 2 629 4 0 2 -84 77
-187 167 -809 708 -1763 1661 -2684 2684 -536 595 -1259 1439 -1259 1470 0 7
15 49 34 93 l34 79 -78 156 c-89 178 -78 181 -101 -28 -7 -60 -15 -118 -18
-128 -7 -20 -26 2 -413 488 -738 927 -1676 2208 -2625 3585 -210 304 -910
1361 -1105 1670 -404 637 -399 629 -394 675 3 22 8 87 11 145 6 100 32 410 55
645 10 95 35 296 70 560 30 228 121 688 190 965 83 333 128 494 220 800 23 74
52 173 66 220 38 129 225 687 284 845 243 659 505 1302 890 2185 40 91 84 194
100 230 37 89 129 296 205 465 34 77 93 208 130 290 151 338 203 450 464 1010
270 578 851 1719 1131 2220 43 77 122 219 175 315 54 96 117 207 140 245 23
39 59 102 82 140 112 193 371 625 438 730 283 444 465 717 715 1075 357 512
989 1334 1475 1919 61 73 124 149 140 170 279 345 733 871 1400 1620 287 323
813 891 824 891 7 -1 41 -72 41 -87 0 -6 7 -16 15 -23 8 -7 15 -21 15 -31 0
-11 5 -19 10 -19 6 0 10 -9 10 -19 0 -11 5 -23 10 -26 6 -3 19 -26 30 -50 11
-24 24 -47 30 -50 5 -3 10 -15 10 -26 0 -10 5 -19 10 -19 6 0 10 -9 10 -20 0
-11 7 -23 15 -26 8 -4 15 -17 15 -30 0 -13 5 -24 10 -24 6 0 10 -6 10 -14 0
-8 6 -21 13 -28 19 -21 37 -56 37 -72 0 -8 7 -16 15 -20 8 -3 15 -13 15 -22 0
-10 11 -32 25 -50 14 -18 25 -40 25 -48 0 -9 5 -16 10 -16 6 0 10 -6 10 -14 0
-8 6 -21 13 -28 7 -7 21 -30 30 -50 10 -21 22 -38 27 -38 6 0 10 -7 10 -17 0
-9 11 -31 25 -49 14 -18 25 -40 25 -48 0 -9 3 -16 8 -16 4 0 16 -17 27 -37 11
-21 26 -44 32 -51 7 -7 13 -20 13 -28 0 -8 5 -14 10 -14 6 0 10 -7 10 -15 0
-8 4 -15 10 -15 5 0 12 -11 16 -25 3 -14 10 -25 15 -25 5 0 9 -7 9 -15 0 -8 4
-15 10 -15 5 0 12 -11 16 -25 3 -14 10 -25 15 -25 5 0 9 -7 9 -15 0 -8 4 -15
9 -15 5 0 13 -10 17 -22 3 -12 17 -33 30 -47 13 -14 24 -31 24 -37 0 -6 11
-23 25 -38 14 -15 25 -33 25 -40 0 -7 11 -25 25 -40 14 -15 25 -29 25 -32 0
-8 84 -129 93 -132 4 -2 7 -8 7 -13 0 -6 11 -22 25 -37 14 -15 25 -32 25 -38
0 -6 11 -23 25 -38 14 -15 25 -29 25 -32 0 -5 49 -73 60 -84 3 -3 17 -23 31
-45 15 -22 38 -53 53 -70 14 -16 29 -38 32 -47 3 -10 10 -18 15 -18 5 0 9 -5
9 -10 0 -6 11 -21 25 -34 14 -13 25 -26 25 -30 0 -11 51 -78 77 -102 13 -12
23 -26 23 -32 0 -5 7 -12 15 -16 8 -3 15 -11 15 -18 0 -7 16 -31 35 -53 19
-22 35 -43 35 -47 0 -5 7 -8 15 -8 8 0 15 -5 15 -11 0 -6 6 -17 13 -24 27 -31
37 -44 37 -51 0 -4 11 -17 25 -30 14 -13 25 -26 25 -29 0 -4 12 -19 28 -35 43
-46 66 -72 98 -114 16 -22 47 -59 69 -82 22 -23 67 -72 99 -108 32 -37 68 -77
80 -89 12 -13 57 -64 101 -113 83 -93 544 -556 656 -659 215 -198 261 -239
281 -254 13 -8 32 -25 43 -36 19 -20 116 -104 179 -156 16 -13 38 -32 48 -41
10 -10 20 -18 23 -18 3 0 25 -18 47 -40 23 -22 45 -40 49 -40 4 0 27 -18 50
-40 24 -22 47 -40 52 -40 4 0 25 -16 45 -35 20 -19 40 -35 44 -35 4 0 13 -6
20 -13 7 -7 33 -28 58 -47 25 -19 47 -37 50 -40 16 -17 161 -120 169 -120 5 0
11 -4 13 -9 2 -5 71 -57 153 -116 83 -58 158 -113 168 -121 9 -8 19 -14 21
-14 2 0 41 -25 86 -55 45 -30 84 -55 87 -55 2 0 11 -6 18 -13 25 -22 40 -32
67 -46 l27 -14 -42 -47 c-23 -25 -123 -136 -223 -247 -942 -1043 -1825 -2238
-2556 -3458 -243 -405 -358 -607 -546 -960 -642 -1204 -1103 -2303 -1417
-3380 -339 -1162 -482 -2297 -502 -3975 -6 -539 2 -886 32 -1460 25 -469 42
-652 106 -1165 124 -990 346 -1929 718 -3045 296 -887 653 -1747 1112 -2678
226 -459 327 -651 554 -1047 419 -730 719 -1193 1173 -1807 l94 -128 9347 0
9347 0 123 732 c67 403 145 861 171 1018 168 991 300 1838 390 2515 27 209 57
430 65 490 32 242 112 930 164 1415 141 1308 342 3500 417 4535 14 196 16 211
37 227 12 9 91 59 175 110 85 51 225 139 312 195 87 56 213 133 279 171 l122
69 112 7 c840 51 1469 114 2262 227 1058 150 2511 432 3870 750 1369 321 3134
860 4360 1331 284 109 646 257 898 366 l207 90 0 -166 c1 -317 25 -1121 50
-1667 82 -1744 229 -3374 425 -4705 260 -1761 636 -3236 1258 -4940 191 -521
168 -463 380 -995 183 -459 463 -1125 612 -1450 48 -104 101 -220 117 -257
l31 -68 6069 0 6069 0 -5 43 c-6 40 -23 236 -66 732 -38 443 -127 1747 -150
2195 -6 113 -17 331 -25 485 -82 1592 -95 3262 -35 4700 24 571 64 1282 95
1670 8 105 22 276 30 380 21 272 33 416 45 525 5 52 17 167 25 255 57 590 113
1076 180 1555 14 102 30 217 35 255 5 39 16 120 25 180 9 61 21 142 26 180 5
39 18 124 28 190 11 66 29 179 41 250 31 196 123 737 171 1000 11 61 27 148
35 194 41 233 191 988 304 1531 22 107 45 218 50 245 6 28 24 111 40 185 16
74 50 227 75 340 24 113 69 315 100 450 30 135 71 317 91 405 20 88 45 196 55
240 10 44 34 148 53 230 19 83 53 229 76 325 23 96 48 200 55 230 7 30 34 141
59 245 25 105 63 266 86 358 39 165 360 1442 418 1667 17 63 51 196 77 295 26
99 78 297 117 440 38 143 76 285 83 315 8 30 44 163 80 295 77 281 147 536
180 655 73 264 397 1379 475 1635 10 33 33 110 50 170 18 61 49 166 70 235 21
69 61 202 89 295 327 1097 463 1553 491 1645 16 52 62 201 101 330 131 431
199 653 255 830 209 658 309 962 519 1575 515 1506 591 1731 688 2035 77 239
271 862 295 950 5 19 53 184 105 365 253 874 463 1707 682 2703 66 298 285
1427 285 1466 0 2 44 36 98 77 752 562 1624 1391 2348 2230 l31 36 244 27
c134 15 282 31 329 36 132 15 455 50 560 60 52 5 163 17 245 25 327 34 646 65
666 65 15 0 17 -27 24 -227 l8 -228 23 105 c13 58 38 164 55 236 l31 131 77 6
c42 4 103 9 136 13 l60 6 -7 -108 c-60 -942 -241 -2410 -419 -3399 -155 -862
-410 -1913 -910 -3750 -66 -242 -126 -462 -134 -490 -21 -79 -271 -979 -331
-1195 -129 -454 -378 -1332 -514 -1810 -78 -273 -309 -1118 -390 -1425 -23
-88 -55 -207 -71 -265 -94 -348 -447 -1758 -635 -2540 -52 -216 -323 -1354
-365 -1530 -11 -47 -27 -112 -34 -145 -165 -684 -753 -3327 -989 -4440 -373
-1764 -891 -4507 -1060 -5615 -8 -52 -35 -228 -60 -390 -45 -294 -139 -951
-215 -1510 -204 -1485 -293 -2394 -361 -3690 -77 -1468 -78 -2464 -5 -3535
118 -1720 195 -2290 535 -3950 28 -137 53 -258 56 -267 5 -17 47 -18 699 -18
l693 0 -9 38 c-34 155 -207 1092 -268 1457 -133 793 -202 1480 -261 2585 -50
939 -53 1724 -10 2585 42 835 102 1668 165 2300 51 502 160 1357 245 1910 11
72 47 312 81 535 248 1653 384 2413 779 4340 50 245 120 587 155 760 66 326
207 992 270 1280 70 321 80 365 245 1090 39 170 90 392 183 785 25 105 66 280
92 390 25 110 59 254 75 320 16 66 81 341 144 610 212 897 419 1733 651 2620
46 176 140 543 210 815 70 272 137 533 150 580 13 47 39 148 60 225 46 174
202 747 294 1080 38 138 110 399 161 580 128 464 143 517 316 1110 86 292 178
609 206 705 27 96 90 312 140 480 152 520 174 595 277 960 206 730 208 737
368 1315 14 50 29 104 33 120 4 17 23 86 43 155 164 583 498 1840 656 2470
379 1511 511 2213 726 3880 72 558 141 1291 186 1977 l12 182 41 5 c23 3 70 8
106 11 36 3 164 14 285 25 121 11 297 27 390 35 94 8 190 17 215 20 25 3 126
12 225 20 99 8 257 22 350 30 158 14 409 34 850 70 99 8 254 19 345 26 91 6
168 14 171 18 4 3 -2 74 -12 156 -11 83 -28 222 -38 310 -11 88 -58 464 -105
835 -47 371 -99 799 -116 950 -35 306 -33 290 -89 825 -5 50 -16 151 -25 225
-8 74 -22 203 -31 285 -8 83 -20 186 -25 230 -5 44 -16 145 -25 225 -40 372
-206 1650 -296 2275 -126 880 -385 2466 -430 2639 -23 90 -181 566 -188 566
-4 0 -45 -16 -91 -36 -47 -19 -143 -59 -215 -89 -71 -29 -161 -67 -200 -83
-38 -16 -169 -71 -290 -122 -121 -51 -263 -110 -315 -132 -52 -22 -116 -48
-141 -58 l-45 -19 33 192 c144 829 211 1543 234 2472 22 926 -23 1862 -141
2945 -109 1003 -243 2061 -320 2525 -5 33 -19 119 -31 190 -35 225 -119 658
-183 950 -189 860 -477 1868 -769 2695 -462 1307 -1197 2972 -1809 4100 -23
41 -57 104 -76 140 -549 1017 -987 1773 -1325 2292 -642 983 -1407 1869 -2395
2771 -488 446 -903 773 -1386 1093 l-233 154 -2424 -1 c-1333 -1 -2415 -3
-2404 -6 416 -95 693 -169 985 -265 940 -308 2058 -806 2781 -1239 554 -331
1121 -776 1689 -1325 69 -66 147 -141 174 -165 75 -68 465 -477 615 -644 442
-495 819 -997 1212 -1617 326 -513 1124 -1949 1494 -2688 187 -374 475 -992
605 -1300 29 -69 83 -195 120 -280 432 -992 732 -1834 1148 -3210 390 -1288
514 -1848 826 -3725 269 -1616 358 -2481 372 -3630 11 -819 -25 -1411 -132
-2220 -52 -394 -121 -806 -136 -820 -7 -7 -47 -26 -88 -43 -65 -26 -151 -62
-450 -187 -30 -13 -93 -39 -140 -58 -47 -19 -213 -89 -370 -157 -157 -67 -321
-137 -365 -155 -44 -18 -116 -49 -160 -68 -310 -133 -517 -223 -625 -270 -69
-30 -251 -109 -405 -177 -154 -67 -318 -139 -365 -160 -47 -21 -184 -82 -305
-135 -227 -100 -435 -192 -564 -251 -41 -19 -76 -32 -78 -30 -3 2 22 48 55
103 408 678 770 1527 922 2166 111 465 144 756 144 1257 0 290 -3 378 -23 555
-78 729 -250 1332 -551 1940 -240 484 -517 901 -858 1287 -282 321 -589 602
-1432 1313 -91 77 -221 187 -290 245 -484 411 -1126 935 -1450 1184 -131 101
-494 374 -527 396 -11 8 -110 78 -220 156 -109 77 -439 301 -733 496 -589 391
-936 635 -1285 905 -847 654 -1251 1028 -1522 1408 -325 458 -524 1013 -574
1604 -16 195 -6 616 20 817 77 600 286 1321 551 1904 244 538 553 1040 949
1540 364 461 619 700 1065 999 109 73 195 135 193 138 -10 10 -380 -153 -608
-267 -406 -204 -748 -456 -1208 -890 -388 -365 -748 -805 -1077 -1315 -307
-474 -623 -1140 -810 -1705 -140 -421 -231 -863 -265 -1284 -17 -212 -7 -682
20 -896 128 -1032 499 -1814 1281 -2694 463 -522 1020 -973 2015 -1634 850
-564 1031 -689 1364 -940 405 -306 700 -542 1216 -971 285 -237 796 -667 1080
-910 896 -765 1393 -1279 1707 -1766 229 -356 396 -739 507 -1165 194 -748
193 -1365 -4 -2162 -196 -794 -482 -1498 -871 -2148 -170 -283 -191 -311 -259
-344 -33 -15 -438 -204 -900 -419 -462 -214 -1108 -515 -1435 -667 -327 -152
-597 -276 -598 -274 -2 1 23 51 56 111 159 288 351 699 485 1038 304 770 398
1328 398 2380 0 734 -43 1174 -167 1720 -161 704 -421 1314 -807 1895 -213
320 -703 942 -1106 1405 -98 112 -563 584 -659 670 -64 57 -71 34 -16 -55 77
-125 217 -378 279 -505 133 -273 171 -357 373 -815 50 -113 123 -277 162 -365
374 -833 506 -1266 581 -1895 26 -226 37 -701 20 -927 -49 -651 -265 -1566
-584 -2473 -319 -908 -755 -1702 -1447 -2635 -187 -253 -566 -713 -652 -793
l-25 -23 -13 33 c-13 32 -50 112 -112 248 -51 111 -230 469 -283 570 -104 192
-137 252 -156 283 -10 18 -22 39 -26 47 -4 8 -24 43 -45 78 -21 34 -38 65 -38
67 0 12 -258 428 -398 639 l-52 80 62 56 c386 344 1053 1387 1457 2278 230
507 334 883 391 1412 98 915 9 1779 -260 2532 -254 710 -718 1390 -1345 1971
-217 201 -585 488 -875 683 -25 17 -101 70 -170 119 -229 162 -240 169 -250
159 -6 -6 21 -50 76 -124 706 -950 845 -1161 1088 -1661 330 -678 463 -1238
442 -1864 -23 -711 -187 -1270 -723 -2475 -114 -255 -277 -564 -466 -880 -169
-283 -403 -633 -494 -738 l-38 -44 -152 164 c-83 89 -196 210 -251 267 l-100
103 13 42 c85 273 129 440 185 707 31 144 83 409 100 504 5 28 18 102 29 165
118 669 175 1184 175 1590 1 368 -26 612 -105 960 -29 124 -144 524 -168 580
-6 14 -33 90 -61 169 -162 459 -412 1007 -634 1391 -400 693 -969 1338 -1765
1998 -42 35 -150 125 -241 200 -91 75 -201 169 -246 208 -90 80 -132 110 -141
101 -12 -12 8 -55 65 -142 100 -152 358 -561 518 -823 437 -712 725 -1407 860
-2077 133 -660 191 -1376 165 -2030 -32 -783 -84 -1258 -215 -1970 -49 -263
-47 -257 -61 -251 -7 2 -64 42 -128 88 -182 131 -318 224 -552 378 -95 63
-544 340 -550 340 -3 0 -34 18 -70 40 -36 22 -68 40 -70 40 -3 0 -23 11 -45
25 -22 14 -80 46 -128 72 -48 26 -109 59 -137 75 -27 15 -165 85 -305 156
-236 118 -327 161 -500 240 -36 16 -90 41 -121 55 -31 14 -150 64 -265 112
-189 79 -252 104 -379 152 -22 9 -53 21 -70 28 -16 7 -50 20 -75 29 -25 8 -83
29 -130 46 -92 34 -471 160 -560 187 -30 9 -86 26 -125 38 -38 13 -99 30 -135
40 -36 9 -76 21 -90 26 -14 4 -61 18 -105 29 -44 12 -132 35 -195 52 -63 16
-131 34 -150 38 -80 19 -179 42 -235 56 -33 8 -72 17 -87 21 -16 3 -28 9 -28
13 0 4 -24 10 -53 13 -29 4 -89 15 -133 26 -43 11 -104 22 -134 26 -30 3 -64
10 -75 15 -11 5 -83 18 -160 30 -262 40 -280 43 -288 54 -4 6 -56 162 -117
346 -492 1508 -811 3029 -989 4715 -87 825 -121 1673 -101 2579 27 1261 94
2078 256 3146 211 1391 388 2126 755 3135 503 1387 818 2044 1327 2770 655
934 1355 1676 2122 2251 473 354 1002 667 1445 854 334 141 836 296 1350 415
l230 54 -26787 0 -26786 1 -413 -422z m24811 -7141 c202 -135 366 -300 811
-817 350 -407 484 -571 864 -1055 142 -181 295 -376 339 -431 491 -617 757
-979 1127 -1531 196 -293 220 -333 299 -508 48 -104 104 -228 125 -275 22 -47
105 -217 185 -378 l147 -293 -51 -43 c-127 -106 -326 -253 -536 -393 -480
-322 -994 -564 -1660 -781 -383 -125 -623 -184 -1355 -332 -302 -61 -560 -113
-572 -115 -16 -4 -23 -1 -23 10 0 8 -16 217 -35 463 -29 380 -69 958 -90 1297
-45 741 -63 2580 -31 3160 45 808 86 1231 146 1480 56 238 197 614 224 598 6
-4 45 -29 86 -56z m21031 -1869 c-81 -793 -110 -1354 -118 -2328 -16 -1929 95
-3128 448 -4834 234 -1133 628 -2454 1038 -3484 23 -56 41 -105 41 -108 0 -8
-139 2 -305 21 -77 9 -212 19 -300 23 -88 4 -167 11 -175 17 -17 11 -549 27
-890 27 -396 0 -876 -16 -891 -29 -10 -8 -70 -14 -169 -16 -85 -3 -220 -12
-300 -21 -80 -9 -193 -20 -253 -25 -59 -4 -113 -13 -119 -19 -7 -7 -46 -12
-99 -12 -48 0 -90 -4 -93 -9 -3 -4 -42 -11 -86 -13 -44 -3 -86 -10 -92 -16 -7
-7 -43 -12 -84 -12 -51 0 -77 -4 -88 -15 -10 -10 -35 -15 -80 -15 -36 0 -68
-4 -71 -10 -3 -5 -30 -10 -58 -10 -29 0 -65 -7 -81 -15 -15 -8 -52 -15 -81
-15 -33 0 -57 -5 -64 -14 -7 -8 -38 -17 -69 -19 -104 -10 -186 -25 -190 -36
-2 -6 -26 -11 -52 -11 -27 0 -51 -4 -55 -9 -3 -5 -30 -13 -60 -16 -31 -4 -58
-11 -61 -16 -3 -5 -24 -9 -48 -9 -23 0 -51 -7 -62 -15 -10 -8 -38 -15 -61 -15
-23 0 -45 -4 -48 -10 -3 -5 -18 -10 -33 -10 -15 0 -40 -7 -56 -15 -15 -8 -43
-15 -61 -15 -19 0 -40 -6 -47 -14 -8 -7 -32 -16 -54 -19 -72 -10 -139 -27
-142 -37 -2 -6 -21 -10 -42 -10 -21 0 -43 -6 -50 -15 -7 -8 -25 -15 -41 -15
-16 0 -37 -4 -47 -9 -9 -6 -34 -13 -54 -16 -21 -3 -38 -10 -38 -15 0 -6 -15
-10 -34 -10 -18 0 -39 -7 -46 -15 -7 -8 -27 -15 -46 -15 -18 0 -36 -4 -39 -10
-3 -5 -19 -10 -35 -10 -16 0 -35 -7 -44 -15 -8 -8 -27 -15 -43 -15 -15 0 -37
-7 -47 -15 -11 -8 -30 -15 -42 -15 -13 0 -26 -4 -29 -10 -3 -5 -16 -10 -29
-10 -12 0 -31 -7 -42 -15 -10 -8 -29 -15 -40 -15 -12 0 -35 -7 -50 -15 -16 -8
-37 -15 -46 -15 -10 0 -18 -4 -18 -10 0 -5 -13 -10 -29 -10 -16 0 -34 -7 -41
-15 -7 -8 -23 -15 -36 -15 -14 0 -32 -4 -42 -9 -48 -23 -90 -40 -114 -45 -16
-4 -28 -11 -28 -16 0 -6 -13 -10 -30 -10 -16 0 -30 -4 -30 -10 0 -5 -10 -10
-23 -10 -13 0 -32 -7 -43 -15 -10 -8 -29 -15 -42 -15 -12 0 -25 -7 -28 -15 -4
-8 -17 -15 -29 -15 -13 0 -27 -4 -30 -10 -3 -5 -17 -10 -30 -10 -13 0 -30 -7
-39 -15 -8 -8 -21 -15 -29 -15 -9 0 -30 -8 -49 -17 -60 -30 -68 -33 -82 -33
-7 0 -19 -7 -26 -15 -7 -8 -23 -15 -36 -15 -13 0 -24 -4 -24 -9 0 -5 -13 -12
-30 -16 -16 -4 -30 -11 -30 -16 0 -5 -11 -9 -24 -9 -13 0 -29 -7 -36 -15 -7
-8 -18 -15 -26 -15 -17 0 -88 -33 -92 -42 -2 -5 -15 -8 -28 -8 -14 0 -27 -7
-30 -15 -4 -8 -13 -15 -22 -15 -21 0 -92 -32 -92 -42 0 -4 -11 -8 -24 -8 -13
0 -26 -7 -30 -15 -3 -8 -14 -15 -25 -15 -11 0 -23 -4 -26 -10 -3 -5 -15 -10
-26 -10 -11 0 -22 -7 -25 -15 -4 -8 -17 -15 -30 -15 -14 0 -27 -7 -30 -15 -4
-8 -17 -15 -30 -15 -13 0 -24 -4 -24 -9 0 -5 -11 -12 -25 -15 -14 -4 -25 -11
-25 -16 0 -6 -6 -10 -14 -10 -17 0 -80 -32 -84 -42 -2 -5 -12 -8 -22 -8 -10 0
-22 -5 -25 -10 -4 -6 -29 -20 -56 -32 -27 -12 -49 -25 -49 -30 0 -4 -8 -8 -19
-8 -10 0 -24 -7 -31 -15 -7 -8 -21 -15 -31 -15 -11 0 -19 -4 -19 -10 0 -5 -6
-10 -14 -10 -7 0 -19 -7 -26 -15 -7 -8 -20 -15 -30 -15 -10 0 -20 -7 -24 -15
-3 -8 -15 -15 -26 -15 -11 0 -20 -4 -20 -9 0 -5 -11 -12 -25 -15 -14 -4 -25
-11 -25 -16 0 -6 -9 -10 -20 -10 -11 0 -20 -4 -20 -10 0 -5 -11 -12 -25 -16
-14 -3 -25 -10 -25 -14 0 -4 -11 -11 -25 -14 -14 -4 -25 -11 -25 -16 0 -6 -4
-10 -10 -10 -5 0 -39 -18 -75 -40 -36 -22 -70 -40 -75 -40 -6 0 -10 -4 -10
-10 0 -5 -6 -10 -14 -10 -8 0 -21 -6 -28 -12 -18 -16 -42 -32 -95 -59 -24 -13
-43 -26 -43 -31 0 -4 -6 -8 -14 -8 -8 0 -16 -7 -20 -15 -3 -8 -14 -15 -24 -15
-11 0 -31 -11 -46 -25 -15 -14 -34 -25 -42 -25 -8 0 -17 -7 -20 -15 -4 -8 -12
-15 -20 -15 -8 0 -14 -4 -14 -9 0 -5 -11 -12 -25 -15 -14 -4 -25 -11 -25 -16
0 -6 -7 -10 -15 -10 -8 0 -15 -4 -15 -9 0 -5 -10 -13 -22 -17 -12 -3 -33 -17
-47 -30 -14 -13 -30 -24 -36 -24 -6 0 -21 -10 -35 -23 -14 -13 -32 -26 -40
-30 -24 -11 -52 -30 -79 -54 -14 -13 -32 -23 -39 -23 -7 0 -15 -7 -18 -15 -4
-8 -12 -15 -20 -15 -8 0 -14 -4 -14 -10 0 -5 -6 -10 -13 -10 -7 0 -27 -13 -45
-30 -18 -16 -37 -30 -43 -30 -5 0 -9 -4 -9 -10 0 -5 -5 -10 -11 -10 -12 0 -92
-59 -97 -72 -2 -5 -8 -8 -14 -8 -11 0 -91 -60 -96 -72 -2 -5 -10 -8 -18 -8 -8
0 -14 -5 -14 -10 0 -6 -8 -14 -17 -17 -17 -7 -49 -32 -85 -65 -10 -10 -21 -18
-26 -18 -4 0 -19 -11 -34 -25 -15 -14 -30 -25 -33 -25 -3 0 -16 -11 -29 -25
-13 -14 -29 -25 -35 -25 -6 0 -14 -7 -17 -15 -4 -8 -10 -15 -15 -15 -5 0 -18
-8 -28 -17 -26 -24 -61 -53 -113 -94 -48 -38 -47 -36 -120 -101 -29 -26 -84
-73 -123 -105 -38 -32 -87 -75 -107 -95 -21 -21 -40 -38 -43 -38 -3 0 -18 -12
-34 -27 -15 -16 -54 -50 -86 -78 -31 -27 -89 -80 -128 -117 -38 -38 -74 -68
-78 -68 -5 0 -9 -7 -9 -15 0 -8 -4 -15 -10 -15 -14 0 -560 -550 -560 -564 0
-1 -30 -34 -67 -72 -76 -79 -153 -165 -153 -170 0 -2 -15 -18 -33 -36 -18 -18
-55 -60 -82 -93 -28 -33 -60 -69 -72 -81 -13 -12 -23 -24 -23 -28 0 -3 -8 -14
-17 -25 -67 -71 -93 -102 -93 -110 0 -5 -7 -11 -15 -15 -8 -3 -15 -12 -15 -20
0 -8 -6 -19 -13 -23 -16 -10 -97 -107 -97 -116 0 -3 -12 -19 -27 -35 -38 -40
-133 -161 -133 -170 0 -4 -18 -27 -40 -52 -22 -25 -40 -48 -40 -51 0 -4 -13
-22 -30 -40 -16 -19 -35 -45 -42 -58 -7 -14 -25 -38 -40 -55 -16 -17 -28 -36
-28 -42 0 -7 -6 -14 -13 -17 -8 -3 -22 -21 -31 -41 -9 -20 -21 -36 -26 -36 -6
0 -10 -7 -10 -15 0 -8 -3 -15 -8 -15 -4 0 -18 -18 -32 -40 -14 -22 -28 -40
-31 -40 -4 0 -9 -8 -13 -17 -6 -19 -27 -54 -37 -63 -5 -5 -74 -106 -94 -138
-5 -9 -16 -22 -22 -30 -7 -7 -13 -20 -13 -28 0 -8 -4 -14 -10 -14 -5 0 -10 -7
-10 -15 0 -8 -4 -15 -9 -15 -5 0 -13 -9 -16 -21 -4 -12 -16 -30 -26 -40 -11
-11 -24 -30 -30 -42 -13 -29 -29 -56 -56 -94 -13 -17 -23 -38 -23 -47 0 -9 -4
-16 -9 -16 -11 0 -101 -147 -101 -165 0 -8 -4 -15 -9 -15 -5 0 -19 -19 -30
-41 -12 -23 -28 -48 -36 -56 -8 -8 -15 -21 -15 -29 0 -8 -4 -14 -10 -14 -5 0
-10 -9 -10 -19 0 -11 -5 -23 -10 -26 -6 -3 -19 -25 -30 -48 -12 -23 -29 -55
-40 -72 -11 -16 -24 -40 -29 -52 -5 -11 -15 -24 -20 -28 -6 -3 -11 -15 -11
-26 0 -10 -4 -19 -9 -19 -5 0 -12 -11 -15 -25 -4 -14 -11 -25 -16 -25 -6 0
-10 -7 -10 -15 0 -8 -13 -36 -28 -62 -15 -26 -36 -64 -45 -83 -10 -19 -22 -42
-27 -50 -5 -8 -24 -46 -42 -85 -18 -38 -35 -72 -38 -75 -11 -10 -40 -72 -40
-85 0 -7 -7 -18 -15 -25 -8 -7 -15 -21 -15 -31 0 -11 -4 -19 -10 -19 -5 0 -10
-9 -10 -21 0 -11 -7 -27 -15 -35 -8 -9 -15 -24 -15 -35 0 -10 -4 -19 -10 -19
-5 0 -10 -4 -10 -10 0 -5 -13 -38 -30 -72 -16 -34 -30 -69 -30 -79 0 -9 -7
-19 -15 -23 -8 -3 -15 -14 -15 -25 0 -11 -4 -23 -10 -26 -5 -3 -10 -17 -10
-30 0 -13 -4 -27 -10 -30 -11 -7 -50 -92 -50 -110 0 -7 -7 -18 -15 -25 -8 -7
-15 -23 -15 -36 0 -12 -4 -26 -10 -29 -5 -3 -10 -17 -10 -30 0 -12 -7 -25 -15
-29 -8 -3 -15 -15 -15 -26 0 -11 -4 -28 -9 -38 -6 -9 -20 -39 -32 -67 -12 -27
-25 -58 -30 -67 -5 -10 -9 -26 -9 -35 0 -10 -7 -27 -15 -37 -8 -11 -15 -28
-15 -38 0 -10 -4 -26 -9 -36 -25 -45 -41 -87 -41 -104 0 -11 -7 -26 -15 -34
-8 -9 -15 -25 -15 -37 0 -12 -7 -31 -15 -41 -8 -11 -15 -32 -15 -48 0 -15 -4
-28 -10 -28 -5 0 -12 -16 -16 -35 -3 -19 -10 -38 -15 -41 -5 -3 -9 -18 -9 -33
0 -16 -7 -42 -15 -57 -8 -16 -15 -37 -15 -46 0 -9 -4 -19 -9 -22 -5 -3 -12
-22 -16 -42 -3 -20 -10 -44 -14 -53 -13 -25 -33 -84 -38 -111 -3 -14 -11 -39
-19 -57 -8 -17 -14 -43 -14 -57 0 -14 -4 -26 -10 -26 -5 0 -10 -17 -10 -39 0
-21 -6 -44 -14 -50 -8 -6 -16 -26 -19 -44 -7 -45 -28 -119 -39 -140 -10 -21
-27 -94 -35 -152 -3 -22 -12 -49 -19 -60 -8 -11 -14 -36 -14 -57 0 -20 -4 -39
-9 -42 -4 -3 -11 -26 -14 -51 -4 -24 -11 -53 -16 -62 -12 -21 -29 -96 -40
-168 -4 -27 -12 -60 -19 -72 -7 -12 -12 -40 -12 -62 0 -22 -4 -43 -10 -46 -5
-3 -10 -30 -10 -58 0 -30 -7 -60 -15 -71 -8 -11 -15 -41 -15 -67 0 -26 -7 -60
-15 -75 -8 -16 -15 -52 -15 -79 0 -28 -5 -56 -10 -61 -10 -10 -23 -92 -39
-239 -4 -38 -13 -80 -19 -92 -7 -12 -12 -55 -12 -95 0 -41 -4 -78 -9 -83 -6
-6 -15 -53 -20 -105 -6 -52 -18 -151 -26 -220 -9 -69 -19 -183 -23 -255 -4
-71 -12 -137 -17 -145 -5 -8 -13 -103 -17 -210 -5 -107 -12 -269 -17 -360 -12
-217 -12 -771 0 -985 6 -93 13 -255 17 -360 4 -104 11 -196 16 -204 5 -8 13
-76 17 -150 4 -75 11 -150 14 -166 l7 -31 -549 -283 c-301 -157 -588 -305
-638 -331 -438 -229 -479 -248 -553 -259 -40 -6 -77 -9 -82 -6 -5 3 -12 46
-16 95 -3 50 -11 93 -15 96 -5 3 -9 35 -9 72 0 37 -7 85 -15 107 -8 22 -14 63
-15 92 0 28 -4 55 -10 58 -5 3 -10 34 -10 68 -1 35 -7 73 -15 87 -8 14 -14 48
-15 77 0 28 -4 55 -10 58 -5 3 -10 30 -10 59 0 30 -6 60 -15 72 -8 11 -15 41
-15 71 0 28 -4 55 -10 58 -5 3 -10 25 -10 48 -1 23 -7 53 -15 67 -8 14 -14 44
-15 67 0 23 -4 45 -10 48 -5 3 -10 25 -10 49 0 23 -7 51 -15 62 -8 10 -15 38
-15 61 0 23 -4 45 -10 48 -5 3 -10 23 -10 44 0 20 -7 46 -15 57 -8 10 -15 36
-15 56 0 20 -4 39 -9 42 -4 3 -11 27 -14 53 -3 26 -10 49 -16 51 -6 2 -11 21
-11 42 0 21 -4 42 -10 45 -5 3 -10 21 -10 39 0 18 -7 41 -15 52 -8 10 -15 31
-15 47 0 15 -4 35 -9 45 -6 9 -13 34 -16 55 -3 20 -10 37 -15 37 -6 0 -10 12
-10 27 0 30 -16 85 -36 126 -8 16 -14 41 -14 57 0 16 -4 32 -10 35 -5 3 -10
14 -10 23 0 9 -7 30 -15 46 -8 15 -15 39 -15 52 0 12 -4 25 -9 28 -5 4 -12 24
-16 46 -4 22 -11 40 -16 40 -5 0 -9 11 -9 25 0 22 -16 68 -41 117 -5 10 -9 28
-9 40 0 13 -7 32 -15 42 -8 11 -15 30 -15 43 0 13 -4 23 -10 23 -5 0 -10 13
-10 29 0 16 -7 34 -15 41 -8 7 -15 23 -15 36 0 12 -4 26 -10 29 -5 3 -10 16
-10 29 0 12 -7 31 -15 42 -8 10 -15 29 -15 42 0 12 -4 22 -10 22 -5 0 -10 11
-10 24 0 14 -7 31 -15 40 -8 8 -15 26 -15 40 0 14 -4 26 -10 26 -5 0 -10 11
-10 24 0 13 -7 29 -15 36 -8 7 -15 23 -15 36 0 12 -4 26 -10 29 -5 3 -10 15
-10 25 0 10 -7 25 -15 34 -8 8 -15 24 -15 35 0 11 -4 23 -10 26 -5 3 -10 15
-10 25 0 10 -7 25 -15 34 -8 8 -15 21 -15 30 0 8 -11 36 -25 62 -14 26 -25 55
-25 65 0 11 -4 19 -10 19 -5 0 -10 9 -10 19 0 11 -7 26 -15 35 -8 8 -15 21
-15 29 0 8 -11 37 -25 64 -40 79 -105 223 -105 234 0 5 -4 9 -10 9 -5 0 -10 8
-10 19 0 10 -7 24 -15 31 -8 7 -15 18 -15 25 0 7 -15 44 -34 81 -19 38 -37 76
-40 84 -3 8 -15 29 -25 45 -11 17 -20 38 -20 48 -1 9 -8 17 -16 17 -9 0 -15 9
-15 25 0 14 -4 25 -10 25 -5 0 -10 8 -10 19 0 10 -7 24 -15 31 -8 7 -15 18
-15 25 0 17 -33 75 -42 75 -5 0 -8 9 -8 20 0 11 -4 20 -10 20 -5 0 -10 9 -10
20 0 11 -7 23 -15 26 -8 4 -15 14 -16 23 0 9 -9 30 -20 46 -10 17 -22 37 -26
45 -3 8 -9 17 -12 20 -4 3 -21 35 -40 73 -18 37 -37 67 -42 67 -5 0 -9 7 -9
16 0 9 -10 30 -22 47 -13 18 -28 42 -35 54 -28 54 -49 89 -60 101 -7 7 -13 20
-13 28 0 8 -4 14 -9 14 -5 0 -11 8 -15 18 -6 18 -27 53 -37 62 -3 3 -8 12 -12
20 -8 17 -30 53 -37 60 -10 10 -31 45 -36 63 -4 9 -10 17 -14 17 -4 0 -10 8
-14 18 -7 23 -35 65 -63 97 -7 7 -13 17 -13 21 0 4 -11 22 -25 40 -14 18 -25
37 -25 43 0 6 -4 11 -10 11 -5 0 -10 7 -10 15 0 8 -7 15 -15 15 -8 0 -15 8
-15 19 0 10 -10 29 -22 43 -13 13 -32 41 -43 61 -11 20 -23 37 -27 37 -5 0 -8
6 -8 14 0 8 -3 16 -7 18 -5 2 -21 23 -37 48 -16 25 -35 49 -43 53 -7 4 -13 13
-13 20 0 7 -11 24 -25 39 -14 15 -25 30 -25 33 0 3 -5 11 -10 18 -17 20 -68
90 -97 132 -15 22 -38 50 -50 62 -13 12 -23 27 -23 33 0 5 -3 10 -8 10 -4 0
-16 16 -26 35 -11 19 -23 35 -28 35 -4 0 -8 7 -8 15 0 8 -7 15 -15 15 -8 0
-15 5 -15 10 0 6 -11 23 -25 38 -14 15 -25 31 -25 36 0 5 -11 19 -25 32 -14
13 -25 26 -25 30 0 4 -11 17 -25 30 -14 13 -25 26 -25 29 0 4 -6 12 -12 20 -7
7 -24 28 -38 46 -14 19 -42 51 -62 72 -21 22 -38 43 -38 47 0 5 -3 10 -8 12
-4 2 -23 23 -42 48 -19 25 -45 55 -57 67 -13 12 -23 24 -23 27 0 3 -24 30 -52
60 -29 29 -60 62 -68 72 -24 29 -105 121 -184 208 -109 121 -454 466 -465 466
-6 0 -11 5 -11 11 0 11 -127 137 -178 177 -18 14 -64 55 -101 91 -37 36 -91
86 -120 110 l-52 44 39 22 c53 30 359 176 912 435 256 120 536 252 624 294 87
42 160 76 163 76 7 0 922 458 1078 540 235 123 457 241 525 280 46 27 111 50
225 80 405 106 997 328 1495 560 846 394 1674 939 2455 1614 447 386 852 825
1183 1282 82 113 97 128 251 250 287 226 519 412 765 613 131 108 255 210 276
226 21 17 102 85 181 151 257 217 340 287 584 490 241 201 466 387 540 448 22
18 119 97 215 176 185 152 335 273 469 379 45 36 154 144 244 240 89 97 257
275 372 396 116 122 316 333 445 470 129 137 271 288 316 335 45 47 121 128
170 181 138 150 473 508 624 669 75 80 179 190 231 246 52 55 168 179 259 275
91 96 192 213 225 259 62 88 163 226 306 415 83 110 404 507 505 624 27 31
178 217 269 331 81 101 197 244 261 320 83 100 244 298 533 655 281 348 606
786 1026 1385 273 389 376 539 758 1100 258 378 379 553 685 985 352 497 443
632 642 957 80 130 146 230 148 223 2 -8 -6 -106 -17 -217z m-15990 -4900 c7
-13 127 -203 267 -423 546 -856 1082 -1729 1082 -1762 0 -12 -245 -252 -441
-433 -639 -587 -1422 -1096 -2099 -1363 -329 -130 -441 -162 -1335 -386 -840
-211 -1230 -284 -1730 -326 -179 -15 -567 -37 -571 -32 -6 5 -113 820 -143
1087 -6 47 -37 319 -71 605 -33 286 -74 639 -90 785 -17 146 -33 281 -36 301
l-5 37 183 6 c409 16 775 64 1211 162 894 199 1804 533 2502 917 369 202 851
526 1184 795 35 29 68 52 72 52 5 0 14 -10 20 -22z m2463 -4098 c74 -129 245
-433 381 -675 300 -531 901 -1595 1054 -1865 61 -107 110 -198 108 -201 -2 -7
-210 -180 -317 -264 -603 -476 -857 -665 -1210 -897 -324 -214 -467 -298 -920
-541 -593 -317 -1110 -565 -1430 -683 -239 -89 -707 -243 -965 -319 -44 -13
-134 -39 -200 -58 -341 -100 -671 -174 -1085 -242 -52 -9 -156 -31 -230 -50
-446 -113 -871 -172 -1322 -182 l-256 -6 -11 39 c-15 60 -125 588 -202 979
-139 698 -227 1216 -340 1997 -16 117 -48 335 -70 483 -21 149 -47 321 -56
383 -9 62 -14 115 -11 117 3 3 72 -4 154 -15 489 -65 824 -84 1404 -77 623 7
911 35 1370 133 942 201 1748 547 2635 1132 429 283 809 580 1200 936 145 133
161 145 173 129 7 -10 73 -124 146 -253z m13141 -5929 l230 -6 39 -65 c223
-370 662 -1199 654 -1235 -8 -36 -836 -731 -1614 -1357 -995 -800 -1595 -1242
-3104 -2289 -1039 -721 -1817 -1213 -2965 -1876 -429 -248 -961 -550 -1455
-825 -426 -238 -1039 -575 -1065 -584 -15 -6 -16 4 -11 112 16 301 56 589 121
869 19 82 44 179 55 215 42 131 80 269 110 390 17 66 69 244 81 275 4 11 17
47 28 80 11 33 30 85 41 115 12 30 24 64 27 75 3 11 9 25 13 30 3 6 15 33 25
60 17 46 42 103 139 307 20 42 36 80 36 84 0 3 6 20 14 37 7 18 24 57 36 87
54 133 170 374 244 507 88 158 99 177 219 358 22 33 52 83 67 110 57 104 74
133 133 228 34 54 67 106 72 115 74 125 307 427 476 617 15 17 62 75 104 130
103 133 182 222 340 385 72 74 148 155 170 180 146 171 336 359 540 535 38 33
106 94 150 135 44 41 118 109 164 150 46 41 89 80 95 85 6 6 31 26 56 45 25
19 47 37 50 40 10 13 221 167 299 220 45 30 164 114 264 186 165 118 391 265
522 339 101 57 412 213 490 244 44 18 157 70 250 116 94 46 222 104 285 130
63 26 124 51 135 56 65 29 357 127 470 157 22 6 65 18 95 26 30 8 87 22 125
32 39 9 104 27 145 40 258 82 458 133 670 169 52 9 118 20 145 25 28 5 77 12
110 15 33 3 76 10 95 15 144 36 447 82 660 100 74 7 142 13 150 15 26 5 536 3
775 -4z m1580 -3212 c62 -304 111 -638 146 -1009 27 -276 37 -873 20 -1151
-63 -1038 -362 -2269 -811 -3339 -421 -1003 -970 -2008 -1513 -2767 -507 -710
-1233 -1525 -1717 -1929 -460 -383 -1087 -788 -1679 -1084 -572 -285 -1024
-452 -1566 -575 -531 -120 -1025 -190 -1435 -201 -193 -6 -547 7 -580 21 -8 4
-60 64 -115 135 -55 71 -108 140 -118 152 -17 21 -113 160 -147 213 -19 29
-122 194 -135 217 -74 125 -208 397 -270 544 -31 76 -63 153 -70 169 -7 17
-20 52 -29 78 -9 27 -25 67 -37 90 -19 41 -95 222 -126 302 -8 22 -19 49 -24
60 -14 36 -87 258 -104 320 -9 33 -23 83 -30 110 -18 65 -40 156 -54 225 -6
30 -18 91 -26 135 -9 44 -22 100 -29 125 -29 97 -45 164 -80 335 -41 198 -53
284 -81 580 -9 88 -22 203 -29 255 -22 147 -36 289 -36 360 0 36 -5 83 -11
105 -6 22 -14 56 -19 75 -4 19 -20 82 -34 140 -42 172 -46 189 -46 218 0 25
15 35 208 136 567 298 1611 871 2264 1242 2089 1187 2774 1616 4503 2828 878
615 1525 1086 1915 1395 63 50 142 112 175 138 376 295 1051 883 1470 1278
166 157 219 205 222 201 2 -1 14 -58 28 -127z m-29340 -790 c338 -9 457 -17
610 -38 142 -20 313 -54 490 -98 77 -19 151 -37 165 -40 194 -38 279 -56 375
-82 149 -40 252 -71 300 -91 11 -5 47 -18 80 -29 51 -17 128 -46 210 -80 11
-5 72 -25 135 -46 183 -59 489 -185 640 -264 110 -58 205 -111 250 -139 30
-19 98 -57 150 -85 143 -75 220 -117 276 -151 27 -17 58 -35 67 -41 51 -30
181 -115 237 -155 71 -49 86 -59 142 -89 102 -56 537 -362 568 -401 7 -9 122
-102 154 -125 53 -38 260 -199 276 -215 3 -3 43 -39 90 -80 82 -72 627 -614
720 -716 25 -27 72 -80 104 -119 32 -38 67 -81 78 -93 11 -13 66 -85 123 -160
57 -76 116 -150 131 -167 110 -124 274 -353 433 -605 40 -63 108 -167 152
-230 128 -184 222 -345 339 -580 40 -80 92 -179 115 -220 85 -150 226 -442
276 -574 11 -28 24 -60 28 -71 25 -55 96 -263 140 -410 16 -55 44 -138 61
-185 48 -129 89 -258 125 -390 9 -36 21 -76 25 -90 5 -14 16 -59 25 -100 9
-41 20 -93 25 -115 22 -96 42 -218 81 -475 10 -74 26 -171 35 -215 45 -233 65
-457 76 -845 21 -716 15 -1011 -27 -1310 -22 -155 -34 -253 -45 -370 -23 -240
-65 -490 -120 -710 -20 -80 -40 -169 -50 -230 -7 -36 -18 -94 -26 -130 -8 -36
-20 -87 -26 -115 -6 -27 -16 -70 -23 -95 -7 -25 -17 -63 -23 -85 -6 -22 -36
-119 -66 -215 -49 -154 -66 -211 -92 -310 -26 -102 -118 -384 -144 -445 -5
-11 -29 -69 -53 -130 -25 -60 -61 -146 -82 -190 -54 -115 -105 -235 -105 -246
0 -5 -11 -32 -25 -61 -14 -28 -25 -55 -25 -59 0 -5 -20 -51 -45 -104 -41 -88
-46 -95 -73 -95 -16 0 -139 20 -273 45 -921 168 -2027 449 -2759 700 -442 152
-656 239 -960 392 -140 71 -300 146 -355 167 -563 217 -1494 926 -2235 1701
-704 737 -1433 1833 -1888 2840 -552 1221 -872 2480 -992 3895 -54 649 -56
1435 -4 2135 30 406 120 1114 180 1407 6 30 21 36 149 61 152 30 190 36 245
42 30 3 71 10 90 15 38 9 153 33 240 50 107 20 247 39 375 50 72 7 137 13 145
15 33 6 465 3 785 -6z m47458 -3963 c-11 -19 -236 -275 -422 -480 -217 -239
-762 -782 -971 -967 -625 -555 -1172 -931 -1840 -1265 -745 -373 -1485 -612
-2224 -719 -177 -26 -672 -75 -754 -75 -42 0 -43 1 -38 28 3 15 12 68 21 117
9 50 23 124 30 165 8 41 21 125 30 185 9 61 20 135 25 165 5 30 12 78 15 105
3 28 10 79 15 115 9 63 28 241 50 460 29 296 48 734 49 1122 1 136 4 249 9
252 4 2 41 9 82 15 41 6 152 22 245 36 196 29 632 93 720 105 33 5 186 27 340
49 519 74 853 120 1540 211 83 11 182 24 220 30 39 5 295 39 570 75 275 35
536 69 580 75 44 6 112 15 150 20 386 51 1068 133 1280 155 145 15 275 30 283
34 2 0 -1 -5 -5 -13z m-13327 -522 c76 -14 195 -39 264 -55 69 -16 207 -45
308 -65 465 -88 843 -213 1262 -416 275 -133 453 -236 683 -396 l107 -75 0
-98 c0 -69 -4 -99 -12 -101 -9 -3 -14 -38 -16 -114 -2 -60 -8 -113 -13 -119
-5 -5 -9 -41 -9 -80 0 -43 -5 -76 -12 -83 -8 -8 -16 -61 -20 -140 -11 -195
-23 -304 -36 -335 -7 -16 -12 -48 -12 -71 0 -24 -7 -60 -15 -79 -8 -20 -15
-54 -15 -76 0 -22 -4 -42 -9 -45 -5 -3 -12 -33 -16 -66 -4 -33 -11 -63 -16
-66 -5 -3 -9 -20 -9 -38 0 -19 -7 -47 -15 -62 -8 -16 -15 -46 -15 -66 0 -20
-4 -40 -10 -43 -5 -3 -10 -26 -10 -51 0 -25 -7 -61 -15 -81 -8 -19 -15 -48
-15 -63 0 -15 -7 -44 -15 -63 -8 -20 -15 -50 -15 -66 0 -16 -4 -32 -9 -35 -5
-3 -12 -26 -15 -51 -4 -24 -11 -47 -17 -50 -5 -4 -9 -19 -9 -34 0 -16 -7 -42
-15 -57 -8 -16 -15 -38 -15 -50 0 -11 -3 -24 -6 -27 -13 -12 -73 -191 -97
-289 -7 -25 -15 -50 -20 -54 -4 -4 -7 -20 -7 -35 0 -15 -6 -40 -14 -56 -8 -15
-28 -71 -45 -123 -35 -112 -50 -154 -67 -195 -6 -16 -17 -43 -24 -60 -6 -16
-18 -43 -26 -58 -8 -16 -14 -33 -14 -38 0 -8 -34 -84 -98 -219 -10 -19 -26
-51 -38 -70 -11 -19 -35 -71 -53 -115 -19 -44 -44 -104 -57 -133 -13 -29 -24
-55 -24 -58 0 -6 -131 -269 -157 -314 -41 -73 -99 -174 -122 -213 -13 -23 -70
-109 -126 -192 -56 -82 -113 -169 -126 -192 -13 -23 -48 -79 -77 -125 -29 -46
-58 -92 -65 -103 -7 -10 -18 -26 -25 -34 -8 -8 -25 -32 -39 -54 -14 -22 -36
-52 -49 -66 -13 -14 -24 -29 -24 -33 0 -4 -42 -58 -93 -120 -50 -62 -102 -126
-114 -142 -21 -26 -23 -27 -29 -10 -91 259 -271 615 -435 860 -152 227 -390
489 -589 648 -171 136 -557 374 -677 418 -18 7 -33 18 -33 25 0 22 48 178 101
332 28 80 72 225 99 321 26 96 70 247 98 335 27 88 66 232 87 320 21 88 57
228 81 311 37 131 67 263 128 564 9 41 29 131 46 200 16 69 41 195 55 280 14
85 41 236 60 335 19 99 42 234 50 300 9 66 29 192 45 280 30 160 54 328 65
460 4 39 17 135 30 215 13 80 26 166 30 193 4 28 11 47 19 47 7 0 75 -12 152
-26z m7445 -3224 l148 0 -20 -72 c-50 -183 -167 -574 -236 -788 -41 -129 -87
-271 -100 -315 -48 -152 -265 -769 -375 -1064 -421 -1130 -869 -2090 -1456
-3121 -484 -851 -1126 -1835 -1864 -2860 -306 -426 -603 -826 -828 -1115 -259
-335 -355 -457 -494 -630 -1196 -1494 -2427 -2831 -3536 -3841 -241 -220 -516
-463 -740 -655 -555 -474 -646 -550 -1125 -943 -154 -126 -316 -259 -360 -295
-82 -67 -606 -486 -776 -620 -802 -633 -1458 -1117 -2044 -1508 -887 -592
-2252 -1376 -3210 -1843 -942 -461 -1701 -768 -2785 -1130 -1449 -485 -2752
-835 -4275 -1151 -2305 -478 -3647 -648 -5520 -699 -1462 -40 -2808 36 -4000
225 -745 118 -1208 205 -1940 361 -2868 615 -5817 1616 -7542 2560 -531 291
-1103 653 -1668 1058 -1103 789 -2105 1633 -3046 2567 -382 379 -869 888 -869
907 0 13 233 291 479 572 324 371 611 678 991 1063 l165 167 40 -19 c22 -10
85 -40 140 -66 55 -26 102 -52 103 -56 2 -5 10 -9 18 -9 8 0 22 -4 32 -9 15
-9 89 -43 217 -101 22 -10 74 -32 115 -50 41 -17 94 -40 117 -51 24 -10 46
-19 50 -19 3 0 34 -13 67 -29 34 -16 72 -32 86 -36 14 -4 45 -16 70 -27 25
-11 59 -25 75 -32 17 -7 55 -21 85 -31 30 -10 59 -22 64 -26 6 -5 17 -9 25 -9
9 0 27 -6 41 -13 14 -7 52 -21 85 -31 33 -10 65 -22 70 -26 6 -3 39 -15 75
-25 36 -10 70 -22 75 -26 6 -4 26 -10 45 -14 19 -4 41 -11 50 -16 8 -4 62 -22
120 -39 58 -17 114 -35 125 -40 11 -5 52 -16 90 -25 39 -9 77 -20 85 -25 9 -4
31 -11 50 -15 19 -4 41 -11 50 -15 8 -4 40 -13 70 -20 30 -6 78 -18 105 -25
28 -8 75 -21 105 -29 106 -29 241 -59 475 -106 61 -12 119 -26 130 -30 11 -4
74 -16 140 -25 66 -10 129 -21 140 -26 11 -4 49 -11 85 -15 36 -3 70 -10 75
-14 6 -4 39 -10 75 -14 136 -14 295 -34 295 -36 0 -12 624 -70 756 -70 38 0
70 -5 77 -12 17 -17 1357 -19 1393 -2 21 10 217 25 547 41 45 3 82 8 82 13 0
4 51 11 113 15 61 4 117 11 122 15 6 4 44 10 85 14 120 10 244 27 260 36 9 4
49 11 90 14 41 4 84 11 95 16 23 10 196 40 232 40 13 0 31 4 41 10 9 5 42 13
72 18 102 17 275 54 295 62 11 5 58 16 105 25 47 9 92 20 100 25 9 4 36 11 60
15 24 4 51 11 60 16 20 10 144 39 170 39 11 0 20 4 20 9 0 5 20 12 45 15 25 4
57 14 72 21 15 8 53 19 83 25 30 6 69 18 87 26 17 8 37 14 45 14 8 0 18 4 24
8 5 5 45 17 89 27 44 10 82 21 85 24 3 4 52 22 110 41 58 19 110 37 115 41 6
3 40 14 78 25 37 10 67 22 67 25 0 4 17 10 38 14 20 4 42 10 47 14 6 4 33 15
60 25 28 10 59 21 70 26 11 5 41 18 67 29 26 12 52 21 58 21 5 0 29 9 53 19
119 54 159 71 184 77 16 4 30 10 33 14 3 4 41 21 85 39 84 34 138 58 270 121
115 55 152 70 164 70 6 0 11 3 11 8 0 4 21 16 48 26 26 11 49 22 52 25 3 4 41
25 85 47 44 22 141 73 215 112 74 39 160 83 190 99 30 15 57 30 60 33 3 3 25
16 50 29 25 13 68 38 96 56 27 19 68 42 90 52 21 10 45 24 52 31 7 6 19 12 26
12 8 0 20 7 27 17 8 9 28 22 44 30 17 7 42 21 56 31 50 33 125 80 188 119 35
21 75 48 90 59 14 12 52 36 83 54 32 17 61 36 64 42 3 5 16 14 27 19 12 5 40
23 62 39 22 17 72 51 110 77 39 26 84 57 100 70 46 36 48 37 85 63 19 13 53
39 74 57 22 18 43 33 48 33 5 0 19 9 31 21 12 12 38 32 57 45 19 13 58 42 85
64 28 22 74 59 104 83 126 99 245 196 292 238 15 13 42 35 60 49 18 14 40 32
48 41 9 9 43 39 76 66 33 27 76 65 96 84 20 19 98 90 173 159 170 156 624 605
691 684 28 33 84 96 125 140 42 45 96 103 120 130 25 27 52 57 61 67 9 9 36
41 59 70 23 30 66 81 95 114 29 33 81 96 115 140 35 44 76 93 91 109 16 15 29
32 29 36 0 5 24 38 53 74 28 36 75 95 102 131 28 36 65 84 84 108 19 23 49 65
68 92 18 28 52 75 74 105 50 67 107 151 135 196 11 19 30 44 41 56 11 13 22
28 24 33 2 6 26 44 53 85 27 41 70 107 95 145 25 39 49 72 52 75 3 3 14 21 24
40 10 19 21 37 24 40 3 3 15 22 26 43 11 20 23 37 26 37 4 0 9 10 13 23 3 12
13 31 23 42 10 11 24 31 30 45 7 14 31 54 52 90 22 36 59 99 82 140 23 41 45
77 49 80 3 3 14 25 25 50 10 25 24 52 31 60 7 8 31 51 54 95 23 44 46 85 50
90 5 6 82 157 172 336 143 286 184 372 246 519 8 19 25 58 37 85 64 139 74
162 80 185 4 14 20 52 35 85 15 33 31 71 35 85 4 14 15 43 25 65 26 55 59 139
94 235 9 25 21 54 26 65 5 11 14 38 20 60 7 22 18 54 25 70 7 17 21 55 30 85
10 30 21 60 25 65 4 6 15 37 25 70 10 33 22 67 26 75 4 8 15 44 24 80 10 36
20 70 24 75 4 6 16 42 26 80 10 39 21 75 25 80 4 6 15 43 25 83 9 40 21 75 26
78 5 3 9 16 9 28 0 24 26 119 40 146 4 8 15 51 25 95 9 44 21 89 26 100 8 20
26 90 74 290 13 55 28 118 34 140 18 69 73 324 96 450 13 66 28 145 34 175 10
49 22 121 52 305 32 202 78 562 79 620 0 23 4 45 9 50 4 6 13 78 20 160 6 83
14 159 17 171 6 23 -18 17 719 184 274 63 788 183 1285 302 201 48 516 118
529 118 11 0 29 -38 56 -115 9 -27 23 -64 31 -82 8 -17 14 -36 14 -41 0 -6 11
-32 24 -59 35 -71 74 -164 81 -195 4 -16 11 -28 15 -28 4 0 11 -12 15 -27 3
-15 17 -50 30 -78 78 -168 95 -206 95 -211 0 -4 38 -84 85 -179 47 -95 85
-178 85 -184 0 -6 4 -11 9 -11 5 0 12 -12 16 -27 3 -15 10 -30 13 -33 4 -3 36
-61 71 -130 99 -195 115 -225 124 -228 4 -2 7 -9 7 -16 0 -10 57 -114 111
-201 10 -16 28 -50 41 -75 12 -25 41 -74 63 -110 76 -121 115 -188 115 -199 0
-6 3 -11 8 -11 4 -1 25 -30 47 -66 22 -36 55 -88 73 -116 17 -27 32 -53 32
-57 0 -4 11 -18 25 -31 14 -13 25 -29 25 -35 0 -6 7 -20 15 -30 9 -11 35 -48
58 -82 112 -167 162 -239 175 -252 8 -8 25 -33 39 -55 14 -23 29 -43 33 -46 4
-3 15 -22 25 -42 9 -21 21 -38 25 -38 5 0 18 -16 31 -36 12 -20 31 -46 41 -58
35 -39 104 -131 123 -163 11 -18 22 -33 26 -33 4 0 17 -17 30 -37 12 -21 36
-52 53 -68 17 -17 44 -49 59 -73 15 -24 39 -53 53 -65 14 -12 32 -33 39 -47 8
-14 27 -39 42 -55 15 -17 46 -53 68 -80 22 -27 47 -57 55 -65 27 -28 84 -95
119 -139 19 -23 51 -59 70 -79 20 -20 54 -57 75 -82 184 -214 842 -872 941
-940 23 -16 55 -45 151 -137 34 -33 79 -72 100 -88 22 -16 46 -36 55 -44 9 -9
40 -36 69 -61 29 -25 61 -53 71 -62 11 -10 22 -18 27 -18 4 0 39 -30 77 -65
39 -36 75 -65 81 -65 6 0 30 -18 54 -40 24 -22 45 -40 47 -40 8 0 77 -55 117
-92 21 -21 44 -38 50 -38 6 0 31 -18 56 -40 25 -22 50 -40 55 -40 6 0 25 -13
42 -29 18 -16 87 -68 155 -117 68 -48 139 -99 158 -113 19 -14 42 -30 52 -36
9 -5 42 -28 74 -50 31 -22 64 -44 73 -50 9 -5 76 -49 149 -97 73 -49 134 -88
137 -88 2 0 30 -17 62 -39 32 -21 68 -41 81 -45 12 -4 22 -11 22 -15 0 -4 24
-21 53 -36 28 -16 98 -57 155 -92 56 -35 106 -63 110 -63 4 -1 43 -23 87 -50
44 -27 100 -59 125 -71 25 -13 62 -33 82 -46 21 -12 135 -73 255 -134 120 -61
223 -114 228 -118 6 -4 26 -14 45 -21 19 -7 42 -19 50 -25 8 -7 51 -27 94 -45
44 -17 87 -36 95 -41 41 -22 252 -118 296 -135 28 -10 80 -33 118 -51 37 -18
73 -33 80 -33 7 0 22 -7 33 -15 10 -8 26 -15 34 -15 8 0 38 -12 65 -25 28 -14
55 -25 60 -25 6 0 22 -6 37 -14 14 -8 43 -19 65 -26 21 -7 52 -18 68 -25 50
-22 158 -62 185 -70 14 -3 34 -10 45 -15 67 -29 96 -40 145 -55 30 -9 64 -20
75 -25 31 -14 248 -85 365 -120 58 -17 112 -35 120 -39 8 -4 49 -16 90 -26 41
-10 80 -21 85 -25 6 -4 27 -11 49 -14 21 -4 46 -11 55 -16 9 -5 50 -16 91 -25
41 -9 84 -21 95 -26 22 -9 60 -19 200 -50 50 -11 99 -24 110 -29 22 -9 164
-42 265 -61 36 -6 70 -15 75 -19 6 -4 35 -10 65 -14 30 -4 91 -16 135 -26 44
-10 107 -21 140 -25 33 -4 65 -11 70 -15 6 -4 71 -15 145 -25 74 -9 144 -21
155 -26 31 -13 332 -54 465 -64 47 -4 94 -10 105 -15 37 -16 634 -68 790 -69
59 -1 95 -5 103 -13 10 -10 175 -13 757 -13 582 0 747 3 756 13 8 7 42 12 94
12 117 0 557 30 580 40 11 5 71 12 133 16 62 3 115 10 118 15 3 5 22 9 42 9
54 0 314 31 337 40 11 4 56 13 100 18 44 6 105 15 135 21 30 5 96 15 145 22
50 6 94 15 100 20 5 5 20 9 35 9 26 0 333 58 360 68 8 3 62 16 120 28 152 33
203 45 220 51 8 4 60 16 115 29 128 29 185 44 210 54 11 5 54 16 95 25 41 9
82 20 90 24 9 5 31 12 50 16 19 4 41 11 50 16 8 4 49 16 90 25 41 9 82 21 90
25 8 4 62 22 120 39 58 17 114 35 125 40 11 4 65 22 120 39 55 18 109 36 120
41 11 5 45 16 75 26 30 9 59 20 65 25 5 5 15 9 23 9 8 0 28 6 45 14 18 8 56
22 86 31 29 10 65 24 80 31 14 8 33 14 42 14 8 0 19 4 25 9 5 4 32 16 59 26
28 10 73 28 101 40 27 13 72 30 99 40 27 9 54 20 60 24 5 5 44 21 85 36 41 15
86 34 100 41 25 13 84 39 200 89 36 15 108 48 160 72 115 54 118 56 155 75 17
9 138 70 270 136 132 66 267 136 300 156 33 20 63 36 67 36 4 0 64 33 133 73
70 39 155 88 190 107 34 19 69 40 77 47 7 6 25 17 38 22 31 14 57 30 93 59 16
12 33 22 38 22 5 0 22 8 37 19 15 10 59 38 97 61 39 24 81 50 94 59 13 9 59
39 102 66 110 71 428 287 478 326 14 11 121 90 236 175 116 86 217 162 225
170 13 12 130 104 221 174 18 14 37 30 43 35 6 6 52 44 101 85 50 40 115 96
145 124 31 28 87 77 125 110 39 32 102 88 140 125 39 36 118 110 175 163 180
166 617 607 666 670 11 14 59 68 107 120 47 51 123 136 167 188 45 52 102 119
128 149 26 29 54 64 62 77 9 12 31 40 50 61 36 39 119 142 180 223 19 25 37
47 40 50 3 3 17 21 32 42 15 20 33 42 40 50 7 7 29 36 48 63 19 28 40 56 47
63 7 7 13 17 13 21 0 5 12 21 26 36 14 15 36 44 49 64 13 20 47 68 74 106 55
77 180 257 196 283 6 9 31 45 56 81 25 36 70 105 100 154 30 48 66 106 81 130
15 23 31 49 35 57 3 8 17 29 29 45 13 17 31 48 41 70 16 35 69 121 83 135 3 3
15 25 28 50 12 25 36 68 53 95 33 53 64 109 119 215 19 36 39 72 46 80 12 15
195 377 275 545 24 50 46 92 50 95 3 3 14 28 24 55 10 28 21 55 25 60 4 6 15
33 25 60 10 28 23 57 30 65 6 8 18 31 25 50 7 19 24 59 37 88 12 29 23 55 23
58 0 3 6 20 14 37 8 18 28 63 45 100 17 38 31 73 31 79 0 5 6 22 14 36 8 15
27 61 42 102 15 41 35 93 44 115 10 22 24 58 31 80 7 22 17 44 21 49 4 6 8 16
8 24 0 8 6 28 14 45 8 18 22 57 31 87 9 30 23 69 31 87 8 17 14 38 14 46 0 9
5 19 10 22 6 3 10 15 10 27 0 11 6 34 14 51 7 18 21 59 31 92 9 33 20 69 25
80 4 11 16 52 25 90 10 39 22 75 27 81 4 6 17 47 28 90 11 44 24 88 29 99 5
11 18 61 30 110 12 50 29 115 37 145 9 30 20 73 25 95 5 22 13 49 18 60 6 11
12 34 14 50 13 82 30 161 38 170 4 6 10 42 13 81 9 115 -2 108 154 100 74 -3
202 -6 283 -6z m-9296 -2304 c442 -77 754 -203 1023 -413 289 -225 577 -627
763 -1061 27 -63 49 -121 49 -129 0 -9 -14 -32 -30 -52 -140 -167 -191 -223
-310 -341 -74 -74 -165 -160 -200 -190 -35 -30 -82 -71 -104 -91 -23 -20 -90
-73 -151 -119 -94 -72 -218 -172 -235 -190 -52 -56 -410 -316 -586 -425 -74
-46 -154 -97 -177 -115 -180 -133 -362 -247 -577 -363 -41 -22 -82 -45 -90
-52 -23 -18 -218 -138 -285 -175 -33 -18 -74 -41 -90 -50 -83 -46 -743 -372
-830 -410 -27 -11 -59 -25 -70 -30 -11 -4 -56 -22 -100 -40 -44 -17 -89 -35
-100 -40 -11 -5 -42 -16 -70 -25 -27 -9 -58 -21 -67 -26 -10 -5 -23 -9 -29 -9
-12 0 -69 -24 -112 -47 -19 -10 -32 -12 -39 -5 -25 25 -122 454 -157 697 -67
461 -43 1014 60 1410 34 132 162 512 229 680 187 469 388 791 669 1073 275
276 570 452 891 531 140 35 196 40 390 36 143 -2 219 -9 335 -29z m-38533
-1221 c220 -408 404 -726 691 -1190 173 -280 607 -925 789 -1173 149 -203 333
-444 470 -615 87 -109 158 -200 158 -202 0 -2 -28 -20 -62 -41 -361 -217 -645
-493 -929 -904 -222 -320 -446 -782 -568 -1170 -23 -74 -44 -141 -46 -148 -6
-17 -26 1 -245 215 -102 99 -225 219 -274 265 -150 140 -265 259 -351 363 -28
33 -52 62 -55 65 -15 15 -68 80 -85 104 -11 16 -32 43 -46 60 -14 17 -55 74
-92 126 -80 113 -85 120 -122 162 -17 18 -50 60 -74 93 -25 33 -47 62 -50 65
-3 3 -22 29 -41 57 -19 29 -38 53 -42 53 -5 0 -8 7 -8 15 0 8 -3 15 -7 15 -5
0 -24 27 -43 60 -19 33 -38 60 -42 60 -5 0 -8 5 -8 11 0 6 -11 25 -25 43 -14
18 -25 38 -25 44 0 7 -4 12 -10 12 -5 0 -12 11 -16 25 -3 14 -10 25 -14 25 -4
0 -10 8 -13 18 -3 9 -20 40 -37 67 -16 28 -33 58 -36 68 -4 9 -10 17 -15 17
-5 0 -9 9 -9 19 0 11 -4 22 -9 25 -7 5 -75 137 -95 186 -3 8 -10 22 -15 30 -5
8 -21 42 -36 75 -15 33 -31 68 -36 77 -5 10 -9 25 -9 33 0 9 -7 18 -15 21 -9
4 -15 19 -15 35 0 16 -4 29 -10 29 -5 0 -10 14 -10 30 0 18 -6 33 -15 36 -9 4
-15 19 -15 35 0 16 -4 29 -10 29 -5 0 -10 15 -10 34 0 21 -6 36 -15 40 -9 3
-15 18 -15 35 0 16 -4 33 -10 36 -5 3 -10 19 -10 36 0 19 -5 29 -15 29 -11 0
-15 11 -15 40 0 22 -4 40 -10 40 -5 0 -10 11 -10 25 0 16 -6 25 -15 25 -10 0
-15 10 -15 30 0 17 -4 30 -10 30 -5 0 -10 14 -10 30 0 19 -6 33 -16 37 -12 5
-7 15 28 52 102 108 96 96 109 221 l12 114 74 71 73 70 27 144 27 143 71 58
c70 57 71 59 89 131 9 41 34 128 54 194 l37 120 66 45 66 45 57 145 c146 368
359 752 603 1088 l76 104 99 -194 c55 -106 136 -260 180 -343z m3773 -4104
c503 -89 810 -200 1012 -365 10 -8 41 -32 68 -54 81 -63 359 -317 410 -374
149 -169 370 -613 500 -1003 100 -302 186 -730 230 -1145 17 -167 42 -657 33
-666 -3 -3 -71 -12 -150 -20 -78 -8 -179 -19 -223 -24 -103 -13 -677 -12 -775
1 -41 5 -113 14 -160 19 -432 46 -948 196 -1378 401 -56 27 -107 49 -112 49
-6 0 -18 4 -28 9 -9 5 -80 36 -157 67 -165 69 -399 186 -530 266 -16 10 -37
21 -45 25 -32 14 -221 142 -355 238 -77 56 -147 104 -155 108 -71 35 -328 216
-470 332 -41 33 -116 91 -167 128 l-92 68 25 67 c171 456 535 986 882 1286
209 180 550 400 744 480 128 53 227 79 498 130 54 10 282 -3 395 -23z m3176
-2862 c294 -136 436 -199 638 -279 106 -43 189 -79 185 -82 -5 -3 -56 -19
-114 -37 -58 -18 -113 -37 -122 -42 -10 -5 -25 -9 -34 -9 -9 0 -37 -7 -63 -15
-25 -7 -64 -18 -86 -24 -22 -5 -68 -17 -102 -25 -35 -9 -72 -16 -83 -16 -10 0
-34 -6 -52 -14 -18 -8 -53 -20 -78 -26 -25 -7 -65 -18 -90 -26 -78 -23 -245
-63 -249 -58 -2 2 6 75 18 161 12 87 29 251 38 366 10 114 18 207 18 207 1 0
80 -36 176 -81z"/>
<path d="M52485 29523 c-344 -12 -746 -65 -1013 -133 -231 -58 -408 -127 -687
-267 -542 -272 -914 -536 -1203 -853 -227 -250 -439 -536 -549 -740 -61 -114
-61 -114 45 -48 988 617 1705 914 3247 1348 230 64 504 130 875 210 192 41
679 126 865 150 50 7 97 14 105 17 17 5 -140 87 -258 134 -203 81 -472 135
-812 163 -182 15 -477 24 -615 19z"/>
<path d="M54992 26402 c-15 -175 -53 -388 -92 -522 -37 -123 -208 -584 -254
-685 -18 -39 -72 -135 -120 -214 -48 -79 -85 -145 -83 -147 8 -8 191 57 249
88 144 77 271 219 366 413 131 267 190 509 171 706 -12 117 -30 180 -80 283
-31 61 -134 216 -144 216 -1 0 -7 -62 -13 -138z"/>
<path d="M49376 25793 c-14 -47 -26 -186 -26 -297 0 -324 112 -610 298 -760
93 -75 194 -127 352 -180 212 -71 514 -112 578 -77 20 11 16 15 -76 77 -160
109 -328 250 -492 414 -225 224 -392 441 -561 728 -49 84 -68 109 -73 95z"/>
<path d="M55320 23230 c-335 -19 -592 -107 -859 -295 -463 -325 -769 -800
-846 -1315 -49 -327 -36 -644 41 -994 42 -195 126 -422 160 -433 5 -2 18 29
28 69 69 272 259 699 367 822 20 22 69 107 108 188 40 81 103 194 141 250 71
106 159 222 165 216 2 -1 -10 -59 -26 -127 -41 -180 -59 -341 -59 -527 0 -501
110 -827 397 -1182 296 -364 725 -572 1184 -572 433 0 865 208 1077 518 140
205 226 437 257 695 8 62 23 155 34 207 19 92 27 165 52 490 35 455 -39 763
-268 1110 -218 330 -564 633 -869 760 -95 39 -230 75 -379 101 -139 24 -466
33 -705 19z m1080 -2150 c214 -27 392 -117 534 -271 63 -68 63 -68 41 -209
-39 -235 -146 -452 -299 -606 -205 -205 -487 -265 -748 -159 -131 53 -311 196
-419 331 l-52 65 5 87 c11 181 101 373 243 516 154 155 350 239 590 255 11 0
59 -4 105 -9z"/>
<path d="M70950 64216 c0 -10 109 -150 121 -154 5 -2 9 5 9 15 0 10 -29 48
-65 83 -36 35 -65 61 -65 56z"/>
</g>
</svg>
