<?xml version="1.0" encoding="UTF-8" standalone="no"?>
<svg width="450px" height="280px" viewBox="0 0 450 280" version="1.1" xmlns="http://www.w3.org/2000/svg" xmlns:xlink="http://www.w3.org/1999/xlink">
    <!-- Generator: Sketch 3.7.2 (28276) - http://www.bohemiancoding.com/sketch -->
    <title>Group 2</title>
    <desc>Created with Sketch.</desc>
    <defs>
        <path d="M427.974808,58.9998351 L448.695962,39.6702131 C449.016154,39.3719313 449.200769,38.955299 449.208462,38.5174983 C449.216154,38.0796976 449.046923,37.6572921 448.736346,37.3484261 L443.222885,31.8302131 L436.533462,15.9770172 C436.384423,15.6229278 436.113269,15.3333058 435.769038,15.1610722 L432.184423,13.3675326 C431.960385,13.2559175 431.713269,13.1972234 431.462308,13.1972234 L423.934423,13.1972234 C423.395,13.1972234 422.891154,13.4666392 422.592115,13.9159863 L419.006538,19.297567 C418.830577,19.563134 418.736346,19.8739244 418.736346,20.1933746 L418.736346,42.4172921 L418.736346,42.7405911 L416.515192,43.1254708 L413.870962,43.5834777 L402.434423,46.8761237 L388.354615,50.9298694 C388.112308,50.9991478 387.890192,51.1242337 387.705577,51.294543 L383.045962,55.5994227 C382.829615,55.7995601 382.671923,56.054543 382.590192,56.3374296 L378.215192,71.4930309 L363.098846,73.8456082 C362.313269,73.9678076 361.733462,74.6451959 361.733462,75.4409347 L361.733462,81.9155739 C359.47,84.035299 350.22,92.7047148 344.312308,98.305677 C342.613269,99.9163986 340.559423,100.732344 338.211346,100.732344 C335.524808,100.733306 333.024808,99.6873952 331.555577,98.9262955 L333.660385,93.1319313 L336.17,86.6746117 C336.276731,86.4003849 336.306538,86.1021031 336.255577,85.8124811 L334.821923,77.561622 C334.723846,76.996811 334.334423,76.5272577 333.798846,76.3261581 L328.961346,74.5114502 L327.301731,62.5484261 C327.220962,61.9701443 326.834423,61.4794227 326.291154,61.2667766 L318.413269,58.1819656 L317.918077,57.6161924 C317.379615,57.0013471 316.467115,56.8839588 315.792115,57.3467766 L306.149808,63.9493883 C305.870962,64.1399038 305.659423,64.4131684 305.544038,64.729732 L302.676731,72.6226529 C302.580577,72.8853333 302.554615,73.1691821 302.602692,73.4443711 L305.412308,89.9614845 L303.187308,98.3701443 L302.689231,100.253168 L302.431538,100.266639 L297.281538,104.875574 L296.904615,100.694818 L295.478654,99.0966048 L295.411346,98.7357801 L293.452692,88.2834089 L294.844038,74.0072577 L298.253654,64.6585292 L299.424808,61.4467079 L310.790192,54.316811 L315.203654,52.9225842 C315.565192,52.8080825 315.875769,52.5704192 316.078654,52.2490447 L317.205577,50.4766735 C317.445,50.1004536 317.518077,49.6414845 317.4075,49.2104192 C317.296923,48.7783918 317.012308,48.4108316 316.621923,48.195299 L309.451731,44.2493196 C309.193077,44.1078763 308.900769,44.0357113 308.6075,44.0511065 L282.616154,45.1278076 C282.512308,45.1316564 282.410385,45.1460893 282.310385,45.1701443 L271.445,47.7498007 L270.673846,47.9326186 L270.673846,47.9326186 L261.728654,50.0561924 L260.705577,49.5452646 L269.821923,40.7267079 C270.312308,40.2523436 270.451731,39.5191478 270.169038,38.897567 L268.377692,34.9515876 C268.171923,34.4974296 267.767115,34.1645086 267.283462,34.0490447 L234.300769,26.1561237 C234.165192,26.1243711 234.027692,26.1080137 233.888269,26.1128247 C229.223846,26.2196289 224.467115,26.273512 219.747885,26.273512 C118.201731,26.2744742 37.6738462,1.32560825 36.8719231,1.07351203 C36.4613462,0.94457732 36.0171154,0.984989691 35.6363462,1.18608935 C35.2555769,1.387189 34.9709615,1.73165636 34.845,2.14347766 C34.8286538,2.19543643 33.1728846,7.32684536 29.7632692,7.32684536 C28.1171154,7.32684536 26.0921154,6.17124399 23.9065385,3.98416495 C23.4623077,3.53962887 22.8017308,3.39241237 22.2113462,3.60890722 C21.6219231,3.82443986 21.2103846,4.36327148 21.1584615,4.98966323 L19.0286538,30.198323 L6.58538462,59.0152302 C6.53923077,59.1220344 6.50557692,59.2336495 6.4825,59.3481512 L3.97384615,72.2627904 C3.96615385,72.3032027 3.95942308,72.3426529 3.95557692,72.3830653 L0.0103846154,106.106227 C-0.0136538462,106.315024 0.00365384616,106.526708 0.0594230769,106.72877 L11.7325,148.444921 L11.7325,148.444921 L11.7325,148.444921 L15.1171154,160.541691 C15.1757692,160.754337 15.2776923,160.951588 15.4161538,161.122859 L38.3613462,189.46444 C38.6392308,189.806983 39.0469231,190.021553 39.4863462,190.057155 L57.0132692,191.461003 L90.0171154,212.412893 C90.22,212.541828 90.4498077,212.623615 90.6892308,212.652481 L117.577692,215.88066 C118.015192,215.934543 118.458462,215.802722 118.799808,215.520797 C119.140192,215.237911 119.349808,214.828014 119.378654,214.385402 L119.627692,210.653993 L133.130577,211.882722 L146.766154,226.892069 L149.180577,237.246296 C149.258462,237.579216 149.440192,237.879423 149.698846,238.102653 L160.095,247.071313 C160.550769,247.464852 161.188269,247.571656 161.747885,247.347464 L165.333462,245.911863 C165.665192,245.779079 165.943077,245.539491 166.124808,245.231588 L169.262308,239.894268 L177.065192,239.5931 L181.750769,243.65743 L198.464231,273.192137 C198.652692,273.524096 198.951731,273.780041 199.311346,273.911863 L216.877692,280.369182 C217.059423,280.435574 217.247885,280.468289 217.434423,280.468289 C217.825769,280.468289 218.211346,280.324921 218.512308,280.054543 C218.9575,279.65523 219.144038,279.042309 218.999808,278.462103 C217.036346,270.604784 217.979615,263.496055 221.804615,257.335093 C230.159423,243.872962 249.748846,238.771381 252.281538,238.161347 L284.966154,242.78279 C285.302692,242.829938 285.644038,242.771244 285.944038,242.613443 L292.755577,239.026364 C293.392115,238.690557 293.729615,237.972756 293.5825,237.268426 L292.1325,230.299216 L300.533462,228.874199 L306.777692,227.814818 L311.497885,227.014268 L339.975769,227.014268 L352.288269,234.00657 L357.130577,251.657155 C357.201731,251.917911 357.338269,252.157498 357.525769,252.351863 L378.319038,273.877223 C378.867115,274.442997 379.744038,274.531519 380.393077,274.086021 L386.129615,270.139079 C386.579615,269.829251 386.842115,269.31255 386.828654,268.766021 L386.47,255.133581 C386.465192,254.961347 386.4325,254.791038 386.374808,254.628426 L383.147885,245.660729 C383.12,245.581828 383.084423,245.504852 383.045,245.430763 L367.629615,217.300866 L365.075769,212.642859 L367.395,204.291931 L368.385385,200.722172 L388.883462,177.734268 L402.458462,164.865814 C402.621923,164.709938 402.752692,164.521347 402.839231,164.311588 L407.141154,153.907326 C407.311346,153.496467 407.303654,153.033649 407.121923,152.627601 L404.320962,146.40121 L400.902692,138.797911 L403.169038,130.157361 L404.919038,123.484509 L405.404615,121.634199 L408.286346,110.649732 C408.298846,110.605471 408.3075,110.560247 408.316154,110.515024 L410.671923,96.891244 L411.241154,93.6024467 L411.420962,92.5623093 L427.67,82.1821031 C427.748846,82.1330309 427.822885,82.075299 427.892115,82.0117938 L428.570962,81.3892509 L432.195,78.0658144 C432.845,77.4682887 432.895962,76.4579794 432.306538,75.7998351 L426.698846,69.5272577 L427.459423,63.2508316 L427.974808,58.9998351 Z" id="path-1"></path>
    </defs>
    <g id="Ads-Landing-Page" stroke="none" stroke-width="1" fill="none" fill-rule="evenodd">
        <g id="Snapchat-Ads---Landing-Page-v5-3-(Desktop)" transform="translate(-240.000000, -588.000000)">
            <g id="Map-of-41%" transform="translate(240.000000, 587.000000)">
                <g id="Group-2">
                    <g id="Rectangle-134">
                        <mask id="mask-2" fill="white">
                            <use xlink:href="#path-1"></use>
                        </mask>
                        <use id="Mask" fill="#DEE0E3" xlink:href="#path-1"></use>
                        <rect fill="#FFFC00" mask="url(#mask-2)" x="-92" y="-51" width="286" height="378"></rect>
                    </g>
                    <text id="3V-Ads-Tag-Copy-2" font-family="AvenirNext-DemiBold, Avenir Next" font-size="36" font-weight="500" line-spacing="65.2" letter-spacing="-3" fill="#000000">
                        <tspan x="79.8" y="121">41%</tspan>
                    </text>
                </g>
            </g>
        </g>
    </g>
</svg>