<?xml version="1.0" standalone="no"?>
<!DOCTYPE svg PUBLIC "-//W3C//DTD SVG 20010904//EN"
 "http://www.w3.org/TR/2001/REC-SVG-20010904/DTD/svg10.dtd">
<svg version="1.0" xmlns="http://www.w3.org/2000/svg"
 width="650.000000pt" height="366.000000pt" viewBox="0 0 650.000000 366.000000"
 preserveAspectRatio="xMidYMid meet">
<metadata>
Created by potrace 1.11, written by Peter Selinger 2001-2013
</metadata>
<g transform="translate(0.000000,366.000000) scale(0.100000,-0.100000)"
fill="#000000" stroke="none">
<path d="M0 2425 l0 -1235 28 0 c40 0 396 -27 547 -42 158 -15 229 -15 748 -5
426 8 423 8 397 -33 -7 -12 -12 -12 -22 -2 -15 15 -58 16 -58 1 0 -7 -14 -9
-42 -5 -24 3 -50 6 -58 6 -8 -1 -90 -2 -181 -4 -91 -2 -171 -6 -177 -10 -6 -3
-13 -2 -17 4 -8 13 -52 13 -60 0 -9 -14 -61 -13 -85 2 -14 9 -24 9 -42 0 -20
-10 -221 -12 -253 -2 -5 2 -18 0 -27 -4 -10 -5 -37 -2 -60 7 -30 10 -49 11
-65 4 -15 -7 -34 -5 -66 6 -27 9 -50 11 -59 6 -9 -5 -36 -3 -66 5 -29 7 -57 9
-64 4 -15 -9 -64 -1 -90 15 -12 8 -23 8 -40 -2 -20 -10 -32 -9 -71 4 -31 10
-53 13 -64 7 -9 -5 -24 -7 -34 -5 -18 5 -19 -7 -19 -301 l0 -307 108 6 c105 5
267 14 347 19 22 1 85 4 140 6 74 2 91 5 65 10 l-35 7 45 3 c58 2 60 2 474
-11 276 -9 350 -9 356 1 6 9 9 9 12 -1 4 -12 136 -14 783 -16 428 -2 780 -5
783 -7 2 -3 79 -3 171 0 91 3 217 6 279 8 84 2 116 6 124 17 7 11 11 11 15 2
6 -16 53 -17 53 -2 0 6 7 8 17 5 9 -4 19 -3 22 2 3 5 42 3 86 -4 l80 -13 -77
4 c-43 2 -80 -1 -84 -6 -9 -15 457 -11 475 4 12 9 13 9 7 -1 -6 -9 24 -12 136
-11 87 1 133 4 118 9 l-25 8 25 3 c14 1 -2 5 -35 9 -33 4 125 7 350 8 226 1
405 -2 398 -6 -8 -5 -8 -12 3 -27 14 -19 29 -20 394 -23 306 -2 380 0 380 10
0 9 3 9 10 -2 11 -18 0 -17 261 -19 183 -1 210 -3 199 -15 -6 -8 -17 -14 -23
-12 -7 1 -9 1 -4 -1 4 -3 -2 -16 -13 -30 -33 -43 -6 -57 49 -26 l31 18 0 447
c0 348 -3 447 -12 451 -10 4 -9 8 2 16 13 10 13 12 0 21 -12 8 -13 11 -1 19
11 7 11 10 0 15 -11 5 -11 7 -1 12 9 4 12 99 12 425 l0 419 -23 6 c-13 3 -101
3 -195 0 -103 -3 -172 -1 -172 4 0 5 14 24 31 42 17 18 28 27 24 20 -6 -11 24
-13 161 -10 l169 3 3 79 c2 55 -1 82 -9 87 -10 6 -10 11 -1 21 8 10 11 165 12
566 l0 552 -3250 0 -3250 0 0 -1235z m3898 1080 c-3 -3 -9 2 -12 12 -6 14 -5
15 5 6 7 -7 10 -15 7 -18z m-28 -5 c0 -11 -4 -20 -10 -20 -5 0 -10 9 -10 20 0
11 5 20 10 20 6 0 10 -9 10 -20z m-2433 -18 c-10 -2 -14 -9 -11 -15 5 -9 4 -9
-6 0 -17 15 -4 34 18 25 16 -6 16 -7 -1 -10z m103 -8 c0 -8 -4 -14 -10 -14 -5
0 -10 2 -10 4 0 2 -3 12 -6 20 -5 12 -2 15 10 10 9 -3 16 -12 16 -20z m353 -2
c4 9 6 10 6 1 2 -21 -20 -25 -34 -7 -21 28 -17 42 4 16 13 -15 21 -18 24 -10z
m1869 12 c-9 -7 -19 -9 -22 -6 -3 4 -9 10 -13 13 -4 3 6 6 23 6 26 0 27 -2 12
-13z m-1762 -4 c0 -5 -2 -10 -4 -10 -3 0 -8 5 -11 10 -3 6 -1 10 4 10 6 0 11
-4 11 -10z m-50 -20 c9 -17 8 -19 -12 -11 -26 9 -36 31 -14 31 8 0 20 -9 26
-20z m1590 10 c0 -5 -4 -10 -10 -10 -5 0 -10 5 -10 10 0 6 5 10 10 10 6 0 10
-4 10 -10z m-1720 -14 c0 -8 -5 -18 -11 -21 -6 -4 -8 -13 -5 -20 2 -7 -2 -16
-10 -19 -8 -3 -14 -10 -14 -16 0 -6 4 -9 8 -6 4 2 8 -4 8 -14 0 -10 -4 -16 -8
-14 -4 3 -8 0 -8 -5 0 -6 -4 -11 -8 -11 -5 0 -9 7 -9 15 0 8 4 12 9 9 11 -7
10 3 -3 28 -8 16 -8 19 1 13 8 -5 11 -3 8 6 -6 17 18 69 32 69 6 0 10 -6 10
-14z m260 -2 c0 -8 -4 -12 -10 -9 -5 3 -10 10 -10 16 0 5 5 9 10 9 6 0 10 -7
10 -16z m1532 -26 c-12 -12 -25 -18 -29 -14 -4 4 3 16 17 26 32 24 40 16 12
-12z m73 22 c-3 -5 -12 -10 -18 -10 -7 0 -6 4 3 10 19 12 23 12 15 0z m-1685
-20 c0 -5 -2 -10 -4 -10 -3 0 -8 5 -11 10 -3 6 -1 10 4 10 6 0 11 -4 11 -10z
m334 -16 c15 -14 26 -28 23 -31 -4 -3 -2 -13 3 -23 7 -12 18 -15 42 -12 30 5
32 3 19 -12 -11 -12 -17 -14 -28 -5 -11 10 -12 8 -7 -7 7 -19 6 -19 -8 0 -9
12 -20 16 -28 11 -9 -5 -11 -4 -6 4 4 6 2 18 -4 26 -10 12 -10 15 0 15 8 0 11
3 8 6 -7 6 -32 12 -68 14 l-25 2 25 8 c14 4 19 8 13 9 -7 1 -13 6 -13 11 0 17
24 10 54 -16z m-1348 -19 c1 -8 -2 -15 -7 -15 -5 0 -9 10 -9 22 0 23 12 17 16
-7z m40 0 c-2 -17 -22 -21 -20 -5 3 27 5 31 13 26 5 -4 8 -13 7 -21z m516 18
c-6 -2 -10 -9 -7 -13 3 -5 1 -11 -5 -15 -5 -3 -10 0 -10 8 0 17 10 27 24 26 6
0 5 -3 -2 -6z m55 -23 c0 -20 -3 -26 -9 -18 -4 7 -8 9 -8 3 0 -5 -3 -20 -6
-32 -4 -15 -2 -23 6 -23 7 0 10 7 6 18 -5 14 -4 14 9 -2 16 -21 5 -46 -22 -46
-7 0 -16 -7 -19 -15 -4 -8 -10 -12 -15 -9 -14 8 -10 24 6 24 9 0 12 6 8 16 -3
9 -13 14 -23 11 -13 -3 -16 0 -13 14 3 11 0 19 -8 19 -7 0 -9 3 -6 6 4 4 14 1
24 -7 15 -12 16 -12 10 5 -6 14 -4 17 9 12 12 -5 14 -1 9 17 -5 16 -4 18 3 8
8 -11 12 -10 21 8 15 28 18 27 18 -9z m368 20 c3 -5 1 -10 -4 -10 -6 0 -11 5
-11 10 0 6 2 10 4 10 3 0 8 -4 11 -10z m125 0 c0 -5 6 -10 13 -10 16 0 20 -37
5 -46 -7 -5 -9 -1 -5 9 3 9 2 19 -3 22 -6 4 -10 1 -10 -6 0 -18 -10 -5 -15 20
-2 11 0 21 6 21 5 0 9 -4 9 -10z m97 -12 c-3 -8 -6 -5 -6 6 -1 11 2 17 5 13 3
-3 4 -12 1 -19z m57 7 c4 -11 -1 -15 -19 -15 -14 0 -25 5 -25 11 0 5 5 7 10 4
6 -3 10 -1 10 4 0 16 17 13 24 -4z m-187 -1 c-3 -3 -12 -4 -19 -1 -8 3 -5 6 6
6 11 1 17 -2 13 -5z m146 -24 c9 0 17 -4 17 -10 0 -5 -9 -10 -20 -10 -23 0
-70 20 -70 31 0 14 25 16 41 3 8 -8 23 -14 32 -14z m1348 6 c12 6 12 5 0 -9
-19 -23 -31 -21 -31 6 0 16 3 18 9 8 5 -8 14 -10 22 -5z m-1151 -12 c0 -14 -3
-14 -15 -4 -8 7 -15 14 -15 16 0 2 7 4 15 4 8 0 15 -7 15 -16z m-720 -4 c0 -5
-4 -10 -10 -10 -5 0 -10 5 -10 10 0 6 5 10 10 10 6 0 10 -4 10 -10z m1010 1
c0 -22 34 -41 71 -41 30 0 39 -4 40 -17 0 -14 3 -13 11 5 6 12 19 22 28 22 9
0 22 -10 28 -22 8 -18 11 -19 11 -5 1 15 12 17 81 17 64 0 80 -3 80 -15 0 -11
11 -15 40 -15 29 0 40 4 40 15 0 11 11 15 40 15 22 0 40 -4 40 -10 0 -5 18
-10 40 -10 22 0 40 5 40 10 0 6 23 10 50 10 43 0 50 -3 50 -19 0 -24 25 -22
43 4 9 12 16 14 21 7 8 -13 -3 -62 -14 -62 -4 0 -5 -12 -2 -26 3 -16 7 -21 12
-14 4 6 5 -11 2 -39 -3 -33 -1 -51 6 -51 8 0 9 -8 3 -22 -5 -13 -6 -38 -4 -55
3 -20 1 -33 -6 -33 -6 0 -17 -13 -26 -30 -9 -16 -22 -30 -29 -30 -8 0 -16 -5
-18 -12 -3 -7 -18 -13 -34 -14 -22 -1 -28 -6 -27 -20 1 -10 0 -13 -3 -6 -4 8
-17 11 -40 6 -26 -5 -35 -2 -40 10 -4 10 -13 15 -21 12 -8 -3 -24 1 -36 9 -18
13 -19 15 -4 15 9 0 17 4 17 9 0 15 -32 22 -46 10 -19 -16 -18 -1 2 18 13 13
13 17 2 24 -10 7 -9 9 4 9 12 0 15 6 10 22 -5 21 -6 21 -13 2 -4 -10 -8 -14
-8 -7 -1 7 -8 10 -18 6 -9 -4 -14 -2 -11 3 4 5 -7 9 -22 9 -15 0 -26 -3 -23
-8 2 -4 -4 -10 -14 -14 -10 -4 -22 -11 -26 -17 -5 -7 -6 -3 -3 8 5 14 3 17
-11 11 -10 -4 -24 -8 -30 -8 -14 0 -18 -47 -4 -47 5 0 11 -11 13 -25 4 -19 1
-25 -13 -25 -11 0 -19 -5 -19 -11 0 -5 -4 -8 -8 -5 -5 3 -7 -8 -4 -23 3 -22
-1 -29 -18 -34 -12 -3 -19 -10 -15 -16 3 -6 -1 -11 -9 -11 -9 0 -16 -5 -16
-10 0 -7 -6 -7 -19 0 -11 5 -28 7 -38 3 -22 -7 -62 -53 -63 -70 0 -16 -30 -17
-30 -2 0 5 4 8 9 4 6 -3 5 10 -1 31 -7 25 -6 40 1 47 22 22 2 143 -26 154 -7
3 -10 9 -7 14 3 5 -1 9 -10 9 -8 0 -16 5 -18 10 -6 18 -66 0 -71 -21 -3 -10
-11 -19 -17 -19 -7 0 -10 7 -6 16 3 8 2 12 -4 9 -6 -3 -10 1 -10 9 0 8 -8 19
-17 25 -12 6 -14 13 -7 23 11 14 11 24 0 50 -4 9 -3 25 3 36 9 17 8 20 -7 18
-9 -2 -20 1 -23 6 -3 5 -13 6 -23 2 -14 -5 -15 -9 -4 -16 10 -7 9 -8 -4 -4
-10 3 -18 0 -18 -6 0 -6 -3 -8 -6 -5 -4 4 -2 13 5 21 9 10 9 20 0 40 -9 20 -9
29 1 41 11 13 10 14 -4 9 -9 -3 -16 -1 -16 5 0 6 6 11 14 11 24 0 26 28 3 45
-12 9 -16 13 -9 10 6 -3 12 -1 12 5 0 9 28 11 95 8 84 -3 96 -1 101 15 6 18
24 24 24 8z m58 -3 c18 -18 15 -28 -8 -28 -13 0 -20 7 -20 20 0 23 10 26 28 8z
m-595 -12 c4 -10 1 -13 -9 -9 -15 6 -19 23 -5 23 5 0 11 -7 14 -14z m1786 -13
c2 -2 -3 -3 -11 -3 -9 0 -19 7 -22 16 -6 15 -4 15 11 3 10 -7 20 -15 22 -16z
m-826 0 c-7 -2 -19 -2 -25 0 -7 3 -2 5 12 5 14 0 19 -2 13 -5z m504 -8 c0 -8
-4 -12 -9 -9 -4 3 -8 0 -8 -7 0 -7 -3 -9 -6 -6 -4 4 -1 13 6 22 15 19 17 19
17 0z m-3289 -9 c-7 -8 -15 -12 -17 -11 -5 6 10 25 20 25 5 0 4 -6 -3 -14z
m542 -1 c0 -8 -4 -15 -10 -15 -5 0 -7 7 -4 15 4 8 8 15 10 15 2 0 4 -7 4 -15z
m224 -17 c4 -17 2 -28 -4 -28 -5 0 -10 14 -10 32 0 36 4 35 14 -4z m596 22
c14 -14 80 -38 80 -30 0 6 -7 10 -15 10 -8 0 -15 5 -15 10 0 12 3 12 24 4 9
-3 16 -17 16 -30 0 -13 5 -24 11 -24 6 0 9 7 5 15 -3 9 3 19 14 25 22 12 27 1
8 -18 -9 -9 -9 -12 3 -12 7 -1 1 -7 -16 -15 -16 -7 -24 -14 -17 -14 9 -1 11
-8 7 -22 -4 -12 -3 -19 2 -16 5 3 9 -3 9 -13 0 -18 -1 -18 -17 -2 -9 9 -14 23
-12 29 3 7 -8 18 -24 24 -65 27 -71 31 -65 52 3 14 1 18 -6 13 -7 -4 -12 -14
-12 -22 0 -20 -13 -17 -28 6 -10 17 -10 20 3 20 8 0 15 5 15 10 0 10 20 10 30
0z m1788 -10 c11 -17 9 -24 -8 -42 -15 -16 -20 -18 -20 -7 0 8 6 21 13 28 10
11 10 14 0 18 -7 3 -13 9 -13 14 0 16 15 10 28 -11z m62 8 c0 6 5 12 11 12 5
0 7 -4 4 -10 -3 -5 -1 -10 4 -10 6 0 11 -5 11 -11 0 -5 -5 -7 -10 -4 -6 4 -17
2 -24 -4 -11 -9 -13 -6 -13 15 0 18 2 22 8 13 6 -10 9 -11 9 -1z m-2567 -9
c-9 -9 -7 -18 5 -37 16 -25 16 -26 -1 -19 -9 3 -17 2 -17 -3 0 -5 -12 -7 -27
-4 -16 2 -23 1 -16 -4 15 -10 -7 -58 -25 -55 -6 2 -9 -4 -6 -12 4 -10 0 -13
-16 -10 -33 6 -33 9 0 45 16 18 30 37 30 42 0 13 59 68 73 68 8 0 8 -3 0 -11z
m66 -28 c14 -12 12 -13 -14 -6 -38 9 -40 11 -24 28 10 10 15 11 18 4 2 -7 11
-18 20 -26z m95 15 c-6 -15 -24 -23 -24 -11 0 8 24 34 28 30 1 -1 0 -10 -4
-19z m1236 10 c0 -3 -4 -8 -10 -11 -5 -3 -10 -1 -10 4 0 6 5 11 10 11 6 0 10
-2 10 -4z m-887 -20 c3 -8 0 -19 -6 -24 -9 -8 -12 -4 -12 14 0 27 10 32 18 10z
m-636 -16 c1 -11 -2 -20 -7 -20 -5 0 -10 -15 -12 -32 l-3 -33 -85 -1 c-99 -1
-183 -28 -188 -59 -3 -19 -3 -19 12 1 25 35 120 50 232 36 53 -6 103 -18 118
-27 14 -10 47 -47 73 -84 60 -85 119 -153 146 -168 60 -34 326 -96 345 -80 10
8 12 7 10 -3 -3 -14 66 -34 89 -26 7 3 13 2 13 -3 0 -5 28 -14 63 -21 34 -6
157 -36 272 -65 116 -29 253 -60 305 -70 52 -9 149 -27 215 -40 157 -31 276
-43 575 -60 229 -12 476 -13 580 0 25 3 137 12 250 21 113 9 212 17 220 18 8
2 42 6 75 11 64 8 108 24 68 25 -12 0 -28 8 -35 18 -13 19 -42 34 -67 36 -19
1 -21 66 -3 66 7 0 11 4 8 8 -3 5 4 24 16 42 19 32 19 34 2 47 -10 7 -13 13
-8 13 6 0 15 -5 22 -12 9 -9 13 -7 18 8 3 10 12 33 20 51 18 40 18 49 -2 57
-11 4 -15 15 -12 36 4 24 2 27 -9 18 -11 -8 -12 -7 -7 6 4 10 0 18 -10 22 -9
3 -13 10 -10 15 3 5 0 9 -5 9 -6 0 -11 -5 -11 -12 0 -6 -3 -9 -6 -6 -8 9 15
49 40 70 12 9 16 17 10 18 -8 0 -9 13 -4 40 5 26 3 41 -4 43 -6 2 -7 8 -3 13
5 5 14 1 21 -9 7 -9 20 -17 29 -17 8 0 18 -6 20 -12 4 -10 8 -10 15 0 13 19
162 6 162 -14 0 -11 19 -14 80 -14 64 0 80 -3 80 -15 0 -11 12 -15 43 -17 l42
-1 -45 -7 c-36 -6 -28 -8 43 -7 86 0 89 -1 123 -34 25 -25 34 -29 34 -16 0 13
9 17 40 17 35 0 40 3 40 22 0 20 3 19 35 -12 27 -27 43 -34 66 -32 16 2 44 0
62 -4 28 -6 30 -8 12 -15 -12 -5 13 -8 68 -7 87 1 89 0 123 -33 l34 -33 1 40
1 39 10 -42 c9 -41 28 -60 28 -28 0 8 5 15 10 15 6 0 10 -6 10 -14 0 -18 31
-28 75 -25 28 3 41 -3 70 -31 26 -25 35 -30 35 -17 0 13 9 17 39 17 42 0 61
14 42 33 -16 16 -14 27 5 27 10 0 14 -6 11 -14 -7 -18 11 -36 29 -29 8 3 14 1
14 -5 0 -5 -10 -9 -22 -8 -13 1 -29 -6 -35 -15 -11 -14 -8 -22 16 -48 16 -17
37 -31 48 -30 16 0 16 1 1 7 -15 6 -58 54 -58 64 0 3 10 4 23 3 12 -1 25 3 29
9 5 6 8 2 8 -11 0 -20 20 -26 36 -10 4 3 15 2 25 -4 22 -11 26 3 6 19 -8 7
-18 7 -27 2 -22 -14 -28 -12 -36 13 -4 12 -12 25 -18 29 -6 5 -2 8 12 8 14 0
22 6 23 18 0 10 3 12 6 5 2 -7 8 -13 13 -13 4 0 3 11 -3 25 -7 14 -15 25 -19
25 -5 0 -8 16 -8 35 0 19 -4 35 -10 35 -16 0 -12 17 6 24 8 3 13 2 10 -3 -3
-5 1 -14 9 -21 9 -7 13 -22 10 -34 -3 -12 -2 -15 1 -8 3 6 10 9 15 6 6 -3 5
-12 -2 -21 -11 -12 -9 -13 13 -8 23 6 25 4 24 -22 0 -15 -8 -31 -16 -35 -9 -4
1 -7 23 -7 23 -1 36 3 32 9 -3 5 1 10 9 10 26 0 18 -15 -16 -32 -27 -13 -29
-16 -10 -15 12 1 22 4 22 8 0 4 9 5 20 2 11 -3 20 -8 20 -12 0 -14 -26 -39
-45 -44 -11 -3 -6 -5 12 -4 17 1 29 5 26 10 -3 5 3 7 13 5 11 -2 19 -8 19 -15
0 -6 4 -15 9 -20 5 -4 6 -3 2 4 -4 8 8 11 43 10 27 -1 47 -5 44 -9 -2 -5 -12
-8 -23 -8 -18 0 -34 -23 -23 -34 10 -10 51 -7 58 4 4 6 11 8 16 4 5 -3 7 -9 5
-13 -3 -4 4 -18 15 -29 11 -12 17 -22 14 -22 -3 0 5 -10 16 -21 17 -17 23 -19
30 -8 6 10 9 8 9 -9 0 -13 -4 -20 -10 -17 -5 3 -10 1 -10 -4 0 -19 19 -12 31
12 7 12 16 25 22 28 13 9 47 -1 47 -13 0 -7 20 -9 50 -6 51 5 58 -1 51 -44 0
-5 4 -8 9 -8 6 0 10 8 8 17 -2 10 5 19 16 21 11 2 16 0 12 -6 -6 -10 44 -65
52 -58 7 8 -28 65 -45 75 -10 5 -14 13 -9 18 5 4 11 2 13 -4 3 -7 11 -13 19
-13 8 0 14 -5 14 -11 0 -5 3 -8 8 -6 8 6 33 -19 26 -26 -3 -3 6 -14 20 -25 26
-20 36 -40 14 -26 -7 4 -8 3 -4 -5 10 -15 -1 -61 -14 -61 -6 0 -10 7 -10 16 0
8 -4 12 -10 9 -5 -3 -18 -1 -29 4 -16 9 -18 8 -14 -9 3 -11 9 -17 14 -14 5 3
15 2 21 -2 9 -6 5 -10 -12 -14 -29 -8 -52 -2 -44 11 3 5 0 9 -5 9 -6 0 -11 -7
-11 -16 0 -8 -5 -12 -10 -9 -6 4 -8 10 -5 14 2 5 -8 7 -22 5 -27 -3 -83 23
-83 39 0 4 -10 18 -21 30 -15 15 -23 18 -26 9 -3 -6 -9 -9 -14 -6 -6 4 -6 11
1 19 8 10 5 12 -15 13 -36 0 -52 -24 -26 -37 13 -8 18 -17 14 -28 -4 -10 -2
-14 4 -10 6 4 16 0 23 -8 7 -8 21 -15 31 -15 21 0 34 -16 19 -25 -5 -3 -10 -2
-10 3 0 17 -26 8 -28 -10 -1 -10 -2 -24 -3 -30 -1 -7 1 -39 5 -70 5 -50 3 -60
-16 -77 -11 -11 -26 -18 -31 -14 -6 3 -7 1 -3 -5 3 -6 -3 -16 -14 -22 -11 -6
-27 -27 -35 -46 -8 -20 -19 -33 -25 -29 -5 3 -10 1 -10 -4 0 -6 5 -11 11 -11
7 0 9 -10 5 -27 -10 -42 -10 -44 -41 -104 l-28 -57 -24 29 c-14 16 -29 29 -35
29 -6 0 -35 -25 -66 -56 -61 -60 -108 -91 -114 -73 -2 7 -32 -3 -75 -25 -38
-20 -80 -36 -92 -36 -12 0 -47 -11 -79 -24 -31 -13 -68 -27 -82 -31 -29 -9
-139 -55 -230 -97 -35 -16 -94 -39 -130 -49 -36 -11 -90 -31 -120 -46 -70 -32
-90 -40 -117 -48 -13 -3 -30 -13 -38 -22 -9 -8 -32 -16 -53 -17 -53 -4 -132
-27 -132 -38 0 -6 -20 -8 -45 -6 -31 2 -45 -1 -45 -9 0 -7 -3 -13 -7 -14 -5 0
-18 -2 -30 -5 -13 -2 -23 1 -23 6 0 6 11 10 25 10 14 0 25 5 25 10 0 6 -18 10
-40 10 -29 0 -42 -5 -50 -20 -9 -16 -19 -19 -57 -16 -26 2 -49 9 -51 15 -7 20
-38 11 -70 -20 -27 -27 -32 -29 -33 -13 -1 17 -2 17 -6 2 -6 -22 -38 -23 -77
-3 -19 10 -33 12 -40 6 -7 -6 -26 -8 -44 -6 -18 2 -32 0 -32 -5 0 -5 -19 -10
-42 -10 -287 -4 -344 -6 -350 -15 -4 -6 -8 -2 -8 8 0 9 -2 17 -4 17 -2 0 -13
3 -23 6 -15 5 -15 4 -3 -5 13 -9 13 -11 -1 -11 -9 0 -34 6 -55 13 -47 16 -71
12 -79 -13 -4 -12 -12 -17 -21 -13 -13 5 -13 7 -3 14 8 4 11 10 9 13 -3 2 -13
-2 -23 -9 -18 -13 -18 -14 2 -25 27 -14 27 -26 0 -41 -13 -6 -19 -7 -15 -1 3
6 -13 26 -36 46 -31 27 -37 36 -23 36 10 0 16 3 13 6 -4 3 -22 1 -40 -4 -25
-7 -46 -6 -73 3 -37 13 -38 13 -82 -28 l-45 -41 26 -21 c75 -59 86 -65 121
-65 22 0 47 8 62 20 27 21 48 27 38 10 -3 -6 1 -13 10 -16 14 -6 14 -8 -1 -25
-12 -13 -19 -43 -22 -94 -4 -71 -6 -75 -28 -75 -13 0 -24 -4 -24 -8 0 -4 12
-8 27 -7 31 0 39 -21 51 -138 l8 -77 -41 0 c-35 0 -41 3 -42 21 -2 26 -17 44
-30 36 -5 -3 -8 -20 -7 -37 2 -26 -1 -30 -14 -24 -10 4 -33 9 -52 11 -34 5
-35 6 -35 47 1 23 4 46 7 51 3 6 4 21 3 35 -4 45 12 70 45 70 16 0 30 5 30 11
0 7 -11 9 -31 5 l-30 -6 2 48 c1 26 -3 57 -9 69 -7 12 -12 28 -12 36 0 8 -7
20 -15 27 -8 7 -12 16 -9 21 3 5 1 9 -5 9 -5 0 -19 16 -31 36 -15 23 -27 33
-38 29 -12 -4 -13 -3 -3 9 11 13 5 14 -40 10 -39 -4 -63 0 -94 15 -50 24 -125
37 -125 21 0 -18 -29 -11 -42 10 -16 26 -31 26 -23 0 5 -16 2 -20 -15 -20 -12
0 -19 4 -16 9 7 11 -22 23 -35 16 -4 -3 -20 1 -33 10 -14 9 -29 14 -34 12 -4
-3 -14 -2 -22 3 -9 5 -20 5 -27 -2 -10 -8 -24 -8 -51 0 -92 26 -114 30 -152
25 -43 -6 -51 2 -22 23 15 12 14 14 -13 15 -16 1 -33 1 -37 0 -5 0 -8 4 -8 10
0 6 7 8 16 5 8 -3 12 -2 9 4 -3 6 -1 10 6 10 8 0 9 3 0 13 -6 8 -8 17 -4 20 3
4 1 7 -6 7 -8 0 -10 -7 -6 -20 5 -15 0 -21 -20 -26 -14 -3 -31 -1 -39 5 -8 6
-30 14 -50 16 -20 3 -50 12 -68 20 l-33 15 50 -5 c28 -3 69 -8 93 -10 49 -6
58 10 10 18 -32 4 -73 14 -273 65 -118 30 -287 105 -280 124 3 7 -12 24 -32
38 -21 14 -47 33 -58 43 -34 31 -158 112 -192 126 -18 8 -33 17 -33 21 0 4
-13 13 -30 20 -16 7 -30 16 -30 21 0 5 -11 9 -24 9 -14 0 -38 12 -54 28 -16
15 -50 44 -76 65 -25 21 -46 45 -46 53 0 8 -4 14 -8 14 -18 0 -149 137 -161
167 -8 19 -18 30 -24 26 -6 -4 -8 0 -4 10 3 8 -1 21 -9 28 -9 7 -22 26 -31 42
-14 27 -14 29 1 24 20 -8 20 -5 -4 45 -11 23 -20 50 -20 59 0 10 -4 20 -9 23
-5 3 -6 40 -4 82 6 89 27 123 66 104 13 -7 4 6 -21 30 -39 38 -47 42 -80 37
-55 -9 -75 11 -78 75 -1 29 -2 56 -3 60 -1 9 -61 7 -67 -3 -2 -5 -11 -6 -20
-2 -8 3 -21 -3 -29 -13 -12 -17 -13 -16 -8 10 4 17 1 31 -6 36 -9 5 -9 11 3
23 9 8 16 19 16 24 0 5 9 9 20 10 11 1 35 9 52 17 19 10 60 16 107 17 52 0 70
3 56 9 -17 7 -17 9 -2 9 12 1 17 9 17 30 0 27 5 32 40 40 3 0 6 -8 7 -19z
m670 5 c0 -8 -4 -15 -9 -15 -4 0 -8 7 -8 15 0 8 4 15 8 15 5 0 9 -7 9 -15z
m103 0 c-7 -9 -15 -13 -17 -11 -7 7 7 26 19 26 6 0 6 -6 -2 -15z m-440 -28 c0
-5 -4 -5 -10 -2 -5 3 -10 14 -10 23 0 15 2 15 10 2 5 -8 10 -19 10 -23z m2820
17 c0 -2 -9 -4 -20 -4 -11 0 -20 4 -20 9 0 5 9 7 20 4 11 -3 20 -7 20 -9z
m-66 -26 c6 -4 18 -8 26 -8 13 0 13 1 0 11 -12 9 -12 10 -1 7 24 -7 24 -26 -1
-30 -12 -2 -27 -12 -33 -23 -13 -26 -39 -26 -44 0 -3 16 -1 17 11 8 11 -10 17
-7 27 10 8 12 10 19 6 15 -5 -4 -14 -3 -22 3 -10 9 -11 15 -1 26 10 13 13 13
17 2 2 -8 9 -17 15 -21z m-3850 13 c3 -5 -1 -11 -9 -14 -9 -4 -12 -1 -8 9 6
16 10 17 17 5z m-40 -16 c-4 -8 -11 -15 -16 -15 -6 0 -5 6 2 15 7 8 14 15 16
15 2 0 1 -7 -2 -15z m1180 6 c4 -5 -3 -7 -14 -4 -23 6 -26 13 -6 13 8 0 17 -4
20 -9z m353 -23 c-17 -11 -28 1 -14 16 8 10 14 11 19 3 4 -6 2 -15 -5 -19z
m-312 12 c-4 -6 -2 -16 4 -23 7 -9 5 -13 -9 -13 -10 0 -16 4 -14 8 3 4 -1 8
-8 8 -8 1 -6 6 6 15 23 18 30 19 21 5z m-785 -15 c0 -8 -4 -15 -10 -15 -5 0
-10 7 -10 15 0 8 5 15 10 15 6 0 10 -7 10 -15z m258 8 c-10 -2 -26 -2 -35 0
-10 3 -2 5 17 5 19 0 27 -2 18 -5z m-338 -43 c5 0 12 5 15 10 13 22 23 8 19
-26 -3 -22 -1 -33 6 -29 5 3 10 -1 10 -9 0 -9 9 -16 20 -16 20 0 26 -11 14
-23 -4 -3 -12 -1 -20 6 -7 7 -21 18 -30 26 -8 7 -13 22 -11 32 3 11 1 19 -4
19 -5 0 -9 -10 -9 -22 -1 -19 -3 -17 -15 11 -8 18 -14 41 -14 50 1 9 4 6 6 -6
2 -13 8 -23 13 -23z m3836 -7 c-10 -10 -19 5 -10 18 6 11 8 11 12 0 2 -7 1
-15 -2 -18z m-2581 -1 c-3 -3 -11 0 -18 7 -9 10 -8 11 6 5 10 -3 15 -9 12 -12z
m-1141 -34 c-8 -12 -32 -9 -37 5 -3 6 -6 3 -7 -8 l-1 -20 -8 20 c-6 14 -4 22
8 26 18 7 52 -11 45 -23z m978 0 c-9 -9 -12 -7 -12 12 0 19 3 21 12 12 9 -9 9
-15 0 -24z m2378 10 c0 6 4 12 10 12 13 0 2 -27 -14 -33 -7 -3 -13 4 -14 16
-1 17 1 19 8 7 7 -10 10 -11 10 -2z m-2565 -16 c-3 -3 -11 0 -18 7 -9 10 -8
11 6 5 10 -3 15 -9 12 -12z m2655 -2 c0 -5 -2 -10 -4 -10 -3 0 -8 5 -11 10 -3
6 -1 10 4 10 6 0 11 -4 11 -10z m-2935 -30 c20 -11 41 -17 47 -14 15 10 58 14
57 6 -1 -4 -1 -14 0 -22 1 -12 3 -12 9 -2 7 9 13 7 28 -9 l19 -22 -47 6 c-41
6 -48 4 -53 -13 -10 -33 -75 -20 -75 15 0 5 5 3 11 -5 9 -13 10 -13 6 0 -2 8
-12 14 -21 12 -13 -2 -16 3 -12 22 3 15 0 26 -6 26 -6 0 -7 -8 -3 -17 4 -13 3
-15 -5 -7 -9 9 -5 44 6 44 2 0 20 -9 39 -20z m2883 0 c-7 -11 -16 -21 -20 -21
-20 -3 -24 -5 -38 -13 -8 -4 0 6 18 23 37 35 58 41 40 11z m-2198 -23 c0 -3
-23 -7 -50 -9 -28 -1 -50 -2 -50 -1 0 1 13 8 30 16 21 11 30 12 34 3 2 -6 5
-3 5 7 1 16 3 17 16 3 8 -8 15 -17 15 -19z m2264 18 c3 -9 0 -15 -9 -15 -9 0
-12 6 -9 15 4 8 7 15 9 15 2 0 5 -7 9 -15z m80 2 c-7 -19 35 -15 47 4 7 11 9
9 10 -8 1 -13 2 -28 3 -35 1 -6 -5 -13 -13 -16 -9 -3 -11 1 -7 15 5 17 2 20
-16 18 -13 -2 -31 -6 -40 -10 -15 -6 -16 -4 -5 19 12 26 31 37 21 13z m-3524
-18 c0 -5 -9 -9 -20 -9 -17 0 -19 2 -8 14 13 14 28 12 28 -5z m759 2 c-23 -18
-59 -18 -59 1 0 6 9 8 19 5 10 -2 25 -1 32 4 26 16 31 9 8 -10z m498 -9 c3
-24 -21 -21 -31 4 -3 9 -11 12 -17 8 -7 -4 -9 -3 -6 3 11 18 50 8 54 -15z
m2243 18 c0 -5 -4 -10 -10 -10 -5 0 -10 5 -10 10 0 6 5 10 10 10 6 0 10 -4 10
-10z m1730 -33 c0 -5 -4 -5 -10 -2 -5 3 -10 14 -10 23 0 15 2 15 10 2 5 -8 10
-19 10 -23z m-4060 -17 c0 -11 -2 -20 -4 -20 -2 0 -6 9 -9 20 -3 11 -1 20 4
20 5 0 9 -9 9 -20z m-440 0 c0 -5 -2 -10 -4 -10 -3 0 -8 5 -11 10 -3 6 -1 10
4 10 6 0 11 -4 11 -10z m258 -9 c2 -6 1 -19 -2 -28 -8 -19 -21 -9 -30 24 -5
17 -3 21 11 19 9 -2 19 -8 21 -15z m2312 9 c0 -5 -5 -10 -11 -10 -5 0 -7 5 -4
10 3 6 8 10 11 10 2 0 4 -4 4 -10z m-2440 -35 c0 -5 -5 -3 -10 5 -5 8 -10 20
-10 25 0 6 5 3 10 -5 5 -8 10 -19 10 -25z m285 25 c3 -5 1 -10 -4 -10 -6 0
-11 5 -11 10 0 6 2 10 4 10 3 0 8 -4 11 -10z m2051 -27 c-10 -10 -19 5 -10 18
6 11 8 11 12 0 2 -7 1 -15 -2 -18z m86 -38 c-19 -65 -32 -79 -32 -33 0 20 5
40 11 44 6 3 9 14 6 24 -3 13 0 18 12 17 16 -1 17 -5 3 -52z m-73 10 c-12 -19
-23 -35 -26 -35 -2 0 -3 3 -1 8 22 45 33 62 39 62 5 0 -1 -16 -12 -35z m1886
25 c-3 -5 -11 -10 -16 -10 -6 0 -7 5 -4 10 3 6 11 10 16 10 6 0 7 -4 4 -10z
m-1775 -4 c0 -3 -4 -8 -10 -11 -5 -3 -10 -1 -10 4 0 6 5 11 10 11 6 0 10 -2
10 -4z m29 -3 c-3 -21 2 -34 11 -28 6 4 18 1 26 -6 12 -9 14 -9 11 2 -2 8 -2
11 0 7 3 -5 12 -8 21 -8 13 0 11 -4 -6 -16 -24 -16 -30 -44 -9 -44 8 0 7 -4
-3 -10 -13 -9 -13 -10 0 -11 8 -1 19 -1 24 0 5 1 4 -4 -2 -11 -7 -10 -8 -18 0
-28 8 -12 9 -11 4 4 -5 15 -4 17 8 7 11 -9 15 -8 20 5 6 16 8 15 22 -2 9 -10
13 -14 10 -8 -3 6 2 11 10 11 8 0 13 -6 10 -12 -2 -7 -1 -16 4 -21 5 -5 10
-27 11 -49 1 -22 6 -45 11 -51 5 -7 -1 -15 -16 -22 -23 -10 -23 -9 -16 22 5
25 4 32 -9 33 -9 0 -26 3 -39 6 -25 7 -54 -1 -47 -12 7 -12 -39 -7 -52 6 -7 6
-22 9 -33 6 -11 -3 -20 -1 -20 5 0 6 -3 17 -6 25 -3 10 1 15 12 14 13 -2 20 7
24 27 3 17 8 29 13 28 4 -1 10 -2 15 -2 12 0 1 83 -14 105 -17 23 -18 35 -4
35 6 0 9 -3 9 -7z m-2329 -58 c16 3 18 -1 13 -26 -4 -24 -2 -29 13 -29 16 -1
15 -3 -6 -15 -33 -19 -47 -19 -54 1 -3 8 -2 12 4 9 11 -7 13 9 4 42 -4 14 -11
20 -22 16 -10 -4 -13 -2 -8 5 4 6 2 22 -4 34 -8 15 -2 12 14 -9 17 -21 33 -30
46 -28z m110 24 c0 -4 -7 -6 -15 -3 -8 4 -15 10 -15 15 0 4 7 6 15 3 8 -4 15
-10 15 -15z m4030 11 c0 -5 -4 -10 -9 -10 -6 0 -13 5 -16 10 -3 6 1 10 9 10 9
0 16 -4 16 -10z m-4286 -15 c3 -8 1 -15 -4 -15 -6 0 -10 7 -10 15 0 8 2 15 4
15 2 0 6 -7 10 -15z m1129 1 c3 -8 0 -19 -7 -25 -10 -9 -12 -6 -8 14 5 29 8
31 15 11z m-848 -5 c3 -5 2 -12 -3 -15 -5 -3 -9 1 -9 9 0 17 3 19 12 6z m1390
-11 c-3 -5 -12 -10 -18 -10 -7 0 -6 4 3 10 19 12 23 12 15 0z m2845 0 c0 -6
-6 -13 -14 -16 -22 -8 -27 -43 -8 -54 15 -8 15 -9 1 -10 -9 0 -24 9 -34 21
-19 20 -18 20 10 44 33 27 45 31 45 15z m-3256 -25 c14 -13 21 -27 17 -29 -4
-3 -19 8 -33 25 -32 35 -19 39 16 4z m1293 3 c-3 -8 -6 -5 -6 6 -1 11 2 17 5
13 3 -3 4 -12 1 -19z m-1403 -13 c-3 -16 0 -25 8 -25 9 0 13 -16 14 -44 0 -32
-3 -43 -13 -39 -7 3 -13 13 -13 22 0 12 -2 13 -9 3 -6 -11 -10 -10 -15 3 -3
10 -12 15 -21 12 -9 -4 -12 -1 -8 8 3 8 8 13 13 10 4 -2 13 14 20 35 15 44 31
54 24 15z m1574 -24 c-10 -3 -37 28 -38 44 0 5 11 -2 24 -15 12 -14 19 -27 14
-29z m-2498 14 c0 -14 -4 -25 -10 -25 -5 0 -10 7 -10 15 0 9 -6 12 -17 9 -15
-5 -15 -3 1 10 27 22 36 20 36 -9z m1410 -20 c11 -13 10 -14 -4 -9 -9 3 -16
10 -16 15 0 13 6 11 20 -6z m3299 -18 c8 -10 7 -14 -4 -14 -8 0 -15 6 -15 14
0 7 2 13 4 13 2 0 9 -6 15 -13z m-3949 -7 c0 -5 -7 -10 -16 -10 -8 0 -12 5 -9
10 3 6 10 10 16 10 5 0 9 -4 9 -10z m-890 -10 c-8 -5 -22 -9 -30 -9 -10 0 -8
3 5 9 27 12 43 12 25 0z m4534 2 c3 -5 -1 -9 -9 -9 -8 0 -15 4 -15 9 0 4 4 8
9 8 6 0 12 -4 15 -8z m-2931 -18 c-7 -3 -9 -13 -6 -22 4 -14 3 -14 -5 -2 -12
16 -7 30 11 29 9 0 9 -2 0 -5z m2857 -8 c0 -3 -4 -8 -10 -11 -5 -3 -10 -1 -10
4 0 6 5 11 10 11 6 0 10 -2 10 -4z m-3283 -64 c19 -40 20 -49 8 -58 -8 -6 -12
-14 -8 -17 3 -4 2 -7 -4 -7 -19 0 -35 28 -28 50 4 12 2 20 -5 20 -8 0 -10 9
-6 24 4 15 1 26 -7 29 -6 3 -3 6 8 6 14 1 26 -12 42 -47z m3403 28 c0 -5 11
-10 25 -10 14 0 25 -4 25 -10 0 -5 -6 -10 -14 -10 -7 0 -27 -3 -43 -6 -23 -4
-32 -2 -37 11 -4 13 -2 16 9 11 9 -3 15 0 15 9 0 8 5 15 10 15 6 0 10 -4 10
-10z m240 -20 c0 -5 -4 -10 -9 -10 -6 0 -13 5 -16 10 -3 6 1 10 9 10 9 0 16
-4 16 -10z m125 -36 c-28 -26 -28 -47 0 -24 10 8 15 9 15 1 0 -6 -5 -11 -11
-11 -5 0 -8 -4 -5 -9 3 -5 -1 -12 -10 -15 -8 -3 -13 -2 -10 3 3 5 -1 14 -9 21
-14 12 -13 16 6 37 13 12 29 23 37 23 10 0 5 -9 -13 -26z m-3705 -4 c0 -5 -4
-10 -10 -10 -5 0 -10 5 -10 10 0 6 5 10 10 10 6 0 10 -4 10 -10z m420 -10 c0
-5 -5 -10 -11 -10 -5 0 -7 5 -4 10 3 6 8 10 11 10 2 0 4 -4 4 -10z m-430 -20
c0 -5 -4 -10 -10 -10 -5 0 -10 5 -10 10 0 6 5 10 10 10 6 0 10 -4 10 -10z
m3671 -7 c13 -16 12 -17 -3 -4 -10 7 -18 15 -18 17 0 8 8 3 21 -13z m-3224
-34 c-4 -22 -4 -21 -6 4 -1 19 -5 26 -13 21 -7 -5 -8 -3 -3 5 11 19 27 -3 22
-30z m903 15 c0 -8 -5 -12 -10 -9 -6 4 -8 11 -5 16 9 14 15 11 15 -7z m2340
-19 c7 -9 8 -15 2 -15 -5 0 -12 7 -16 15 -3 8 -4 15 -2 15 2 0 9 -7 16 -15z
m-220 -130 c0 -2 -10 -10 -22 -16 -21 -11 -22 -11 -9 4 13 16 31 23 31 12z
m-5475 -45 c3 -5 1 -10 -4 -10 -6 0 -11 5 -11 10 0 6 2 10 4 10 3 0 8 -4 11
-10z m53 -50 c-7 -11 -17 -20 -22 -20 -5 0 -1 9 9 20 10 11 20 20 22 20 2 0
-2 -9 -9 -20z m37 -16 c-8 -6 -15 -19 -15 -28 0 -9 -4 -16 -9 -16 -6 0 -6 12
-1 30 13 44 21 55 31 39 6 -9 3 -18 -6 -25z m5420 -3 c3 -5 2 -12 -3 -15 -5
-3 -9 1 -9 9 0 17 3 19 12 6z m80 -11 c3 -5 1 -10 -4 -10 -6 0 -11 5 -11 10 0
6 2 10 4 10 3 0 8 -4 11 -10z m-6015 -110 c5 -8 10 -22 10 -31 0 -15 -13 -17
-102 -15 -97 3 -103 4 -106 24 -2 13 -11 22 -20 22 -12 0 -13 3 -5 8 7 4 58 8
113 7 78 0 103 -4 110 -15z m-170 -104 c0 -3 -4 -8 -10 -11 -5 -3 -10 -1 -10
4 0 6 5 11 10 11 6 0 10 -2 10 -4z m5565 -246 c-3 -5 -12 -10 -18 -10 -7 0 -6
4 3 10 19 12 23 12 15 0z m-5125 -120 c8 -5 11 -12 7 -16 -4 -4 -15 0 -24 9
-18 18 -8 23 17 7z m219 -34 c-2 -2 -17 -6 -34 -10 -22 -5 -26 -4 -15 4 14 9
59 15 49 6z m711 -71 c7 -8 8 -15 2 -15 -5 0 -15 7 -22 15 -7 8 -8 15 -2 15 5
0 15 -7 22 -15z m-786 -10 c11 -8 18 -17 15 -19 -2 -3 -15 4 -29 14 -14 11
-20 20 -15 19 6 0 19 -6 29 -14z m4783 -11 c-3 -3 -12 -4 -19 -1 -8 3 -5 6 6
6 11 1 17 -2 13 -5z m200 -1 c-20 -2 -52 -2 -70 0 -17 2 0 4 38 4 39 0 53 -2
32 -4z m140 1 c-3 -3 -12 -4 -19 -1 -8 3 -5 6 6 6 11 1 17 -2 13 -5z m410 -20
c-3 -3 -12 -4 -19 -1 -8 3 -5 6 6 6 11 1 17 -2 13 -5z m-4833 -19 c-7 -17 -20
-20 -28 -6 -7 10 3 21 20 21 8 0 11 -6 8 -15z m136 0 c10 -12 9 -15 -4 -15
-10 0 -15 4 -12 9 4 5 0 12 -6 14 -8 4 -9 6 -2 6 6 1 17 -6 24 -14z m3465 -25
c3 -5 1 -10 -4 -10 -6 0 -11 5 -11 10 0 6 2 10 4 10 3 0 8 -4 11 -10z m-30
-10 c-3 -5 1 -10 9 -10 12 0 13 -5 7 -22 -5 -13 -16 -22 -24 -22 -9 1 -15 -3
-14 -10 1 -6 -10 -11 -25 -10 -16 0 -28 -4 -28 -8 0 -4 -18 -8 -40 -8 -59 0
-51 24 18 55 31 14 64 29 72 35 20 12 33 12 25 0z m1072 -16 c-3 -3 -12 -4
-19 -1 -8 3 -5 6 6 6 11 1 17 -2 13 -5z m-1259 -78 c-10 -7 -15 -16 -12 -19 3
-3 -3 -3 -15 0 -22 6 -131 -35 -131 -49 0 -5 -5 -6 -11 -2 -6 3 -15 0 -20 -7
-7 -11 -9 -11 -9 3 0 11 12 21 33 27 17 5 56 19 85 30 28 12 52 18 52 15 0 -3
7 2 16 11 9 9 19 13 23 10 3 -4 -2 -12 -11 -19z m145 -11 c-3 -9 -8 -14 -10
-11 -3 3 -2 9 2 15 9 16 15 13 8 -4z m-2303 -55 c0 -5 -2 -10 -4 -10 -3 0 -8
5 -11 10 -3 6 -1 10 4 10 6 0 11 -4 11 -10z m578 -45 c-11 -11 -37 7 -31 22 5
13 8 13 21 -1 9 -9 13 -18 10 -21z m322 25 c0 -5 -5 -10 -11 -10 -5 0 -7 5 -4
10 3 6 8 10 11 10 2 0 4 -4 4 -10z m345 0 c3 -5 -1 -10 -9 -10 -9 0 -16 5 -16
10 0 6 4 10 9 10 6 0 13 -4 16 -10z m692 -4 c0 -8 -8 -13 -17 -11 -9 2 -40 -3
-70 -11 -29 -8 -56 -12 -58 -9 -2 2 9 7 24 10 16 4 45 12 64 20 47 17 57 18
57 1z m-1362 -61 c0 -12 -8 -21 -20 -24 -16 -3 -17 -1 -7 12 11 13 10 17 -5
26 -16 10 -15 11 7 9 17 -2 25 -9 25 -23z m3215 15 c0 -5 -12 -10 -27 -10 -22
0 -25 2 -13 10 20 13 40 13 40 0z m-443 -156 c-3 -4 0 -13 8 -21 24 -23 17
-36 -9 -16 -23 17 -25 43 -3 43 6 0 8 -3 4 -6z m-901 -31 l10 -28 385 -53
c211 -30 424 -60 473 -68 76 -13 356 -81 364 -89 8 -8 -12 -34 -22 -27 -6 4
-28 7 -49 8 -21 0 -42 6 -47 14 -5 8 -24 13 -46 12 -22 -1 -45 5 -56 14 -9 9
-24 14 -33 10 -18 -7 -103 12 -122 26 -7 6 -30 7 -52 3 -28 -5 -50 -2 -72 9
-21 10 -45 13 -75 9 -31 -4 -50 -1 -68 11 -18 11 -37 14 -70 10 -32 -5 -50 -2
-67 10 -18 12 -36 14 -70 10 -35 -5 -53 -2 -69 9 -17 11 -36 14 -71 10 -34 -4
-54 -2 -65 8 -11 9 -37 13 -75 11 -33 -2 -59 1 -59 6 0 5 -16 13 -35 16 -20 4
-33 11 -30 16 3 5 0 12 -6 16 -16 10 -178 7 -192 -4 -7 -5 -23 -9 -36 -10 -18
-1 -22 3 -18 18 4 17 1 19 -29 15 -19 -2 -34 0 -34 5 0 6 -7 10 -16 10 -9 0
-14 -6 -11 -12 3 -10 -11 -13 -53 -13 -32 0 -56 3 -53 8 2 4 -11 7 -29 6 -27
0 -30 -2 -13 -9 11 -5 16 -9 10 -9 -5 -1 -20 -4 -32 -7 -18 -5 -23 -2 -23 11
0 15 -6 17 -40 11 -25 -4 -40 -2 -40 4 0 6 -26 10 -61 10 -37 0 -58 -4 -54
-10 3 -5 1 -10 -4 -10 -6 0 -11 4 -11 10 0 6 -75 9 -206 7 -113 -2 -207 0
-210 5 -3 4 257 9 578 11 321 1 585 3 588 5 3 1 10 -10 16 -25z m-1759 1 c-3
-3 -12 -4 -19 -1 -8 3 -5 6 6 6 11 1 17 -2 13 -5z m71 -1 c-10 -2 -28 -2 -40
0 -13 2 -5 4 17 4 22 1 32 -1 23 -4z m165 0 c-23 -2 -64 -2 -90 0 -26 2 -7 3
42 3 50 0 71 -1 48 -3z m127 -4 c-19 -4 -47 -11 -63 -15 -22 -5 -26 -4 -21 10
5 12 19 16 63 15 52 -1 54 -2 21 -10z m-1910 -9 c0 -5 -2 -10 -4 -10 -3 0 -8
5 -11 10 -3 6 -1 10 4 10 6 0 11 -4 11 -10z m1900 -26 c0 -8 -5 -12 -10 -9 -6
4 -8 11 -5 16 9 14 15 11 15 -7z m2208 9 c-10 -2 -26 -2 -35 0 -10 3 -2 5 17
5 19 0 27 -2 18 -5z m-4129 -47 c-9 -8 -10 -7 -5 7 3 10 7 24 7 30 1 7 3 4 6
-7 3 -10 -1 -23 -8 -30z m2439 29 c3 -3 -42 -5 -99 -5 -67 0 -99 4 -89 10 14
9 178 5 188 -5z m172 5 c0 -5 -5 -10 -11 -10 -5 0 -7 5 -4 10 3 6 8 10 11 10
2 0 4 -4 4 -10z m608 -7 c-16 -2 -40 -2 -55 0 -16 2 -3 4 27 4 30 0 43 -2 28
-4z m124 -37 c6 -10 12 -32 13 -50 2 -17 8 -44 14 -59 6 -16 11 -29 11 -30 0
-1 -42 -1 -92 0 -51 1 -147 3 -213 4 -69 1 -107 4 -90 8 l30 7 -36 7 c-20 4
-44 5 -53 1 -9 -3 -16 -1 -16 5 0 6 -8 11 -18 11 -10 0 -27 7 -38 15 -17 14
-11 15 69 14 69 -1 90 -5 97 -18 5 -9 10 -11 10 -6 0 6 5 3 11 -5 8 -12 9 -10
4 8 l-7 23 150 -3 c120 -2 148 0 144 10 -2 7 -11 11 -19 8 -8 -3 -12 -2 -9 2
2 4 1 14 -3 20 -10 16 -193 18 -264 4 -27 -5 -50 -6 -53 -1 -3 5 2 9 10 9 9 0
16 5 16 11 0 18 -24 4 -35 -19 -8 -17 -18 -22 -45 -21 l-35 2 35 7 35 7 -45 2
c-25 1 -54 8 -64 16 -26 19 -42 19 -26 0 10 -12 10 -15 -3 -15 -9 0 -18 4 -22
10 -3 6 -15 6 -30 0 -19 -7 -23 -6 -18 5 3 9 -1 15 -8 16 -9 0 -7 3 3 7 10 4
144 7 298 7 264 0 282 -1 292 -19z m-1205 8 c-3 -3 -12 -4 -19 -1 -8 3 -5 6 6
6 11 1 17 -2 13 -5z m53 2 c0 -2 -7 -6 -15 -10 -8 -3 -15 -1 -15 4 0 6 7 10
15 10 8 0 15 -2 15 -4z m147 -3 c-33 -4 -38 -7 -34 -24 4 -15 0 -19 -18 -19
-13 0 -27 5 -30 10 -3 6 1 10 9 10 36 0 13 19 -26 23 -24 2 -2 4 47 4 50 0 73
-2 52 -4z m73 -3 c13 -8 13 -10 -2 -10 -9 0 -20 5 -23 10 -8 13 5 13 25 0z
m223 -10 c-6 -22 -23 -38 -23 -21 0 5 -7 17 -16 25 -14 15 -13 16 14 16 25 0
29 -3 25 -20z m-1376 -12 c-3 -8 -6 -5 -6 6 -1 11 2 17 5 13 3 -3 4 -12 1 -19z
m1288 12 c18 -8 17 -9 -7 -9 -16 -1 -28 4 -28 9 0 12 8 12 35 0z m-2545 -22
c0 -17 -20 -47 -20 -31 0 6 -3 18 -6 27 -4 11 -1 16 10 16 9 0 16 -6 16 -12z
m3145 -8 c-3 -5 -10 -10 -16 -10 -5 0 -9 5 -9 10 0 6 7 10 16 10 8 0 12 -4 9
-10z m125 0 l25 -8 -25 0 c-14 0 -36 4 -50 8 l-25 8 25 0 c14 0 36 -4 50 -8z
m-4767 -7 c-7 -2 -19 -2 -25 0 -7 3 -2 5 12 5 14 0 19 -2 13 -5z m4364 1 c-3
-3 -12 -4 -19 -1 -8 3 -5 6 6 6 11 1 17 -2 13 -5z m-4230 -10 c-3 -3 -12 -4
-19 -1 -8 3 -5 6 6 6 11 1 17 -2 13 -5z m3550 0 c-3 -3 -12 -4 -19 -1 -8 3 -5
6 6 6 11 1 17 -2 13 -5z m-3274 -21 c-7 -2 -19 -2 -25 0 -7 3 -2 5 12 5 14 0
19 -2 13 -5z m4670 0 c-7 -2 -19 -2 -25 0 -7 3 -2 5 12 5 14 0 19 -2 13 -5z
m-3606 -45 c-3 -8 -6 -5 -6 6 -1 11 2 17 5 13 3 -3 4 -12 1 -19z m4163 -28
c13 -9 13 -10 0 -9 -8 0 -24 4 -35 9 l-20 9 20 0 c11 0 27 -4 35 -9z m-706
-16 c8 -21 8 -24 -3 -24 -5 0 -11 9 -14 20 -6 24 8 27 17 4z m-50 -18 c3 -13
8 -30 11 -38 4 -10 -5 -13 -37 -12 -24 1 -106 2 -183 3 -94 1 -135 4 -125 11
8 5 10 10 5 10 -6 0 -16 -5 -22 -11 -16 -16 -77 -7 -81 12 -4 19 38 31 62 17
10 -6 16 -5 16 2 0 6 5 8 10 5 6 -3 15 -3 22 1 8 5 6 10 -8 15 -10 4 58 8 152
8 l172 1 6 -24z m-3421 -26 c-3 -11 -8 -20 -12 -20 -4 0 -7 9 -7 20 0 11 6 20
12 20 7 0 10 -8 7 -20z m1444 -1 c7 -7 8 -24 1 -52 -5 -23 -8 -95 -6 -159 4
-126 4 -128 -49 -128 -25 0 -26 0 -8 20 10 11 15 23 12 27 -4 3 -2 12 3 18 6
7 12 50 14 96 2 46 7 93 11 104 5 16 5 17 -4 5 -5 -8 -12 -12 -15 -10 -4 5 -9
65 -7 83 2 11 36 8 48 -4z m1463 -9 c0 -5 -5 -10 -11 -10 -5 0 -7 5 -4 10 3 6
8 10 11 10 2 0 4 -4 4 -10z m-4591 -54 l-1 -31 -7 31 c-4 17 -12 37 -16 45 -8
12 -6 12 8 0 10 -8 17 -26 16 -45z m3229 29 c3 -10 0 -15 -7 -11 -6 4 -11 0
-11 -8 0 -9 4 -16 9 -16 10 0 3 -108 -9 -130 -5 -9 -8 -44 -7 -78 2 -61 2 -62
-25 -62 -23 0 -28 4 -28 24 0 13 7 40 15 59 8 20 18 61 21 92 4 30 11 58 15
61 5 2 4 16 -2 31 -11 30 -3 66 14 60 7 -2 14 -12 15 -22z m2445 8 c-13 -2
-33 -2 -45 0 -13 2 -3 4 22 4 25 0 35 -2 23 -4z m-1104 -40 c-1 -22 -2 -23 -6
-8 -3 11 -10 23 -17 27 -7 5 -5 8 7 8 12 0 17 -7 16 -27z m48 21 c-3 -3 -12
-4 -19 -1 -8 3 -5 6 6 6 11 1 17 -2 13 -5z m103 -4 l-45 -7 60 -1 c42 -1 55 1
45 8 -12 8 -10 10 11 10 39 0 34 -30 -5 -31 -31 -2 -31 -2 -3 -6 15 -2 40 -11
55 -19 25 -13 17 -14 -88 -12 -63 1 -92 3 -63 5 35 3 53 9 57 20 5 12 0 14
-31 10 -21 -3 -49 -8 -63 -11 -14 -4 -18 -3 -9 1 9 5 15 16 13 26 -2 15 6 17
54 15 l57 -1 -45 -7z m215 1 c3 -5 1 -12 -4 -15 -5 -4 -11 -1 -13 5 -6 19 -50
0 -46 -19 2 -12 16 -18 47 -20 28 -2 41 0 36 7 -4 7 6 11 25 11 28 0 30 2 16
15 -16 17 -41 21 -31 5 3 -5 1 -10 -4 -10 -6 0 -11 7 -11 15 0 12 16 15 83 15
l83 0 12 -33 c7 -18 12 -35 12 -38 0 -2 -59 -2 -132 0 -133 3 -158 10 -158 44
0 9 -6 18 -12 20 -7 3 10 6 39 6 28 1 54 -3 58 -8z m-3274 -55 c-11 -27 -24
-37 -16 -11 3 8 7 22 10 31 3 9 8 15 11 12 2 -3 0 -17 -5 -32z m2932 -3 c-7
-2 -19 -2 -25 0 -7 3 -2 5 12 5 14 0 19 -2 13 -5z m-4599 -38 c-4 -8 -1 -15 6
-15 6 0 8 -5 4 -11 -5 -8 -10 -6 -16 5 -5 9 -6 21 -3 26 9 15 15 12 9 -5z
m210 0 c3 -8 1 -15 -4 -15 -6 0 -10 7 -10 15 0 8 2 15 4 15 2 0 6 -7 10 -15z
m340 0 c-4 -8 -8 -15 -10 -15 -2 0 -4 7 -4 15 0 8 4 15 10 15 5 0 7 -7 4 -15z
m4050 0 c-6 -16 11 -21 20 -7 3 5 33 7 68 5 44 -2 59 0 48 7 -20 13 -4 13 21
0 13 -7 19 -7 19 0 0 14 57 13 64 -2 5 -10 7 -10 12 1 5 11 8 11 15 0 6 -10 9
-11 9 -1 0 8 16 12 48 12 26 0 54 -6 61 -12 11 -10 13 -10 7 0 -6 9 11 12 71
12 l78 0 19 -35 c20 -37 18 -56 -4 -30 -10 12 -15 13 -24 3 -9 -10 -100 -12
-431 -8 -231 3 -410 6 -397 8 13 1 20 7 17 12 -3 6 1 10 9 10 9 0 16 -5 16
-11 0 -16 141 -4 151 13 5 7 22 11 42 10 21 -2 38 3 46 12 17 20 22 20 15 1z
m-4254 -19 c0 -8 -4 -18 -10 -21 -5 -3 -10 3 -10 14 0 12 5 21 10 21 6 0 10
-6 10 -14z m230 4 c0 -5 -4 -10 -10 -10 -5 0 -10 5 -10 10 0 6 5 10 10 10 6 0
10 -4 10 -10z m-300 -32 c0 -12 -6 -9 -26 13 -19 22 -19 22 4 8 12 -8 22 -17
22 -21z m99 18 c7 -8 8 -17 3 -20 -6 -3 -12 3 -15 14 -6 24 -4 25 12 6z m1275
-13 c-8 -32 -24 -55 -24 -32 0 26 12 59 21 59 5 0 6 -12 3 -27z m391 17 c3 -5
1 -10 -4 -10 -6 0 -11 5 -11 10 0 6 2 10 4 10 3 0 8 -4 11 -10z m-1925 -4 c0
-3 -4 -8 -10 -11 -5 -3 -10 -1 -10 4 0 6 5 11 10 11 6 0 10 -2 10 -4z m2847
-33 c-3 -10 -5 -4 -5 12 0 17 2 24 5 18 2 -7 2 -21 0 -30z m-2777 20 c0 -5 -5
-15 -10 -23 -8 -12 -10 -11 -10 8 0 12 5 22 10 22 6 0 10 -3 10 -7z m417 -15
c-3 -8 -6 -5 -6 6 -1 11 2 17 5 13 3 -3 4 -12 1 -19z m3003 7 c0 -8 -2 -15 -4
-15 -2 0 -6 7 -10 15 -3 8 -1 15 4 15 6 0 10 -7 10 -15z m365 4 c10 -15 -1
-23 -20 -15 -9 3 -13 10 -10 16 8 13 22 13 30 -1z m55 1 c0 -5 -4 -10 -10 -10
-5 0 -10 5 -10 10 0 6 5 10 10 10 6 0 10 -4 10 -10z m70 0 c0 -5 -4 -10 -10
-10 -5 0 -10 5 -10 10 0 6 5 10 10 10 6 0 10 -4 10 -10z m-3580 -4 c0 -2 -7
-7 -16 -10 -8 -3 -12 -2 -9 4 6 10 25 14 25 6z m2560 -8 c0 -4 -7 -8 -15 -8
-8 0 -15 4 -15 8 0 5 7 9 15 9 8 0 15 -4 15 -9z m305 2 c3 -5 1 -10 -4 -10 -6
0 -11 5 -11 10 0 6 2 10 4 10 3 0 8 -4 11 -10z m-88 -6 c-3 -3 -12 -4 -19 -1
-8 3 -5 6 6 6 11 1 17 -2 13 -5z m-2817 -24 c0 -5 -2 -10 -4 -10 -3 0 -8 5
-11 10 -3 6 -1 10 4 10 6 0 11 -4 11 -10z m3624 -6 c3 -8 10 -12 16 -9 5 3 10
1 10 -4 0 -6 -11 -11 -25 -11 -18 0 -25 5 -25 20 0 24 15 27 24 4z m103 10
c-3 -3 -12 -4 -19 -1 -8 3 -5 6 6 6 11 1 17 -2 13 -5z m158 -15 c-6 -29 -14
-36 -25 -20 -6 11 -9 9 -12 -7 -4 -27 -28 -15 -31 16 0 11 -5 18 -9 16 -4 -3
-16 0 -25 5 -14 8 -3 10 44 11 58 0 62 -1 58 -21z m805 17 c0 -2 6 -19 14 -38
l15 -34 -97 2 c-53 2 -225 4 -382 5 -157 1 -264 4 -237 6 26 2 47 8 47 13 0 5
-7 7 -15 4 -8 -4 -21 -2 -28 4 -6 6 -28 12 -47 15 l-35 4 40 3 40 3 -35 7
c-19 4 135 8 343 9 207 0 377 -1 377 -3z m-4942 -26 c-7 -11 -17 -20 -22 -20
-5 0 -1 9 9 20 10 11 20 20 22 20 2 0 -2 -9 -9 -20z m2856 4 c9 -24 2 -26 -12
-4 -7 11 -8 20 -3 20 5 0 12 -7 15 -16z m168 1 c0 -5 -5 -11 -11 -13 -6 -2
-11 4 -11 13 0 9 5 15 11 13 6 -2 11 -8 11 -13z m425 9 c-3 -3 -12 -4 -19 -1
-8 3 -5 6 6 6 11 1 17 -2 13 -5z m63 -9 c13 -16 3 -20 -24 -9 -9 3 -13 10 -10
15 8 13 20 11 34 -6z m100 -11 c0 -2 -7 -4 -15 -4 -8 0 -15 4 -15 10 0 5 7 7
15 4 8 -4 15 -8 15 -10z m50 6 c0 -5 -10 -10 -22 -10 -19 0 -20 2 -8 10 19 13
30 13 30 0z m125 0 c4 -6 -11 -10 -37 -9 -33 0 -38 2 -23 9 28 12 53 12 60 0z
m40 0 c3 -5 -1 -10 -10 -10 -9 0 -13 5 -10 10 3 6 8 10 10 10 2 0 7 -4 10 -10z
m-2421 -22 c-10 -36 -26 -58 -20 -28 3 14 6 31 6 38 0 6 5 12 11 12 6 0 8 -9
3 -22z m2533 16 c-3 -3 -12 -4 -19 -1 -8 3 -5 6 6 6 11 1 17 -2 13 -5z m-4137
-19 c0 -8 -4 -15 -9 -15 -13 0 -22 16 -14 24 11 11 23 6 23 -9z m2968 -5 c7
-11 11 -20 9 -20 -2 0 -12 9 -22 20 -10 11 -14 20 -9 20 5 0 15 -9 22 -20z
m889 -12 c-3 -8 -6 -5 -6 6 -1 11 2 17 5 13 3 -3 4 -12 1 -19z m128 12 c3 -5
-1 -10 -9 -10 -9 0 -16 5 -16 10 0 6 4 10 9 10 6 0 13 -4 16 -10z m-3400 -10
c3 -5 2 -10 -4 -10 -5 0 -13 5 -16 10 -3 6 -2 10 4 10 5 0 13 -4 16 -10z
m-559 -20 c0 -11 -6 -22 -13 -24 -7 -3 -10 1 -6 10 3 8 -1 14 -8 14 -11 0 -11
3 1 10 22 14 26 12 26 -10z m74 10 c0 -5 -8 -10 -17 -10 -15 0 -16 2 -3 10 19
12 20 12 20 0z m263 -5 c-3 -9 -8 -14 -10 -11 -3 3 -2 9 2 15 9 16 15 13 8 -4z
m197 -16 c0 -5 -4 -9 -8 -9 -5 0 -9 7 -9 15 0 8 4 12 9 9 4 -3 8 -9 8 -15z
m-386 -5 c3 -8 2 -12 -4 -9 -6 3 -10 10 -10 16 0 14 7 11 14 -7z m3976 6 c-19
-4 -26 -8 -16 -9 11 0 16 -4 13 -7 -4 -4 -21 -1 -39 7 -24 10 -33 10 -36 1 -5
-16 -62 -16 -63 1 0 10 -2 10 -6 0 -2 -7 -11 -13 -19 -13 -8 0 -11 6 -8 15 5
12 26 15 108 14 71 -1 91 -4 66 -9z m1057 -22 c-3 -7 -5 -2 -5 12 0 14 2 19 5
13 2 -7 2 -19 0 -25z m1203 -93 c0 -2 -10 -9 -22 -15 -22 -11 -22 -10 -4 4 21
17 26 19 26 11z"/>
<path d="M2512 3318 c-19 -39 -19 -72 0 -76 12 -2 19 5 23 25 4 15 10 38 15
51 8 18 6 22 -9 22 -9 0 -23 -10 -29 -22z"/>
<path d="M3400 3165 c0 -8 4 -15 9 -15 5 0 11 7 15 15 3 9 0 15 -9 15 -8 0
-15 -7 -15 -15z"/>
<path d="M1710 3292 c0 -12 19 -26 26 -19 2 2 -2 10 -11 17 -9 8 -15 8 -15 2z"/>
<path d="M888 3213 c7 -3 16 -2 19 1 4 3 -2 6 -13 5 -11 0 -14 -3 -6 -6z"/>
<path d="M4191 3004 c0 -11 3 -14 6 -6 3 7 2 16 -1 19 -3 4 -6 -2 -5 -13z"/>
<path d="M4960 3010 c0 -5 5 -10 10 -10 6 0 10 5 10 10 0 6 -4 10 -10 10 -5 0
-10 -4 -10 -10z"/>
<path d="M5720 2979 c0 -5 5 -7 10 -4 6 3 10 8 10 11 0 2 -4 4 -10 4 -5 0 -10
-5 -10 -11z"/>
<path d="M4180 2967 c0 -19 16 -31 24 -18 3 5 -1 14 -9 21 -12 10 -15 10 -15
-3z"/>
<path d="M5705 2920 c3 -5 13 -10 21 -10 8 0 12 5 9 10 -3 6 -13 10 -21 10 -8
0 -12 -4 -9 -10z"/>
<path d="M5590 2835 c-11 -13 -10 -14 5 -9 14 6 16 4 10 -6 -5 -8 -4 -11 3 -6
6 4 9 13 5 21 -7 19 -8 19 -23 0z"/>
<path d="M5675 2840 c-3 -6 1 -7 9 -4 18 7 21 14 7 14 -6 0 -13 -4 -16 -10z"/>
<path d="M5813 2835 c-3 -9 -3 -18 -1 -21 3 -3 8 4 11 16 6 23 -1 27 -10 5z"/>
<path d="M5540 2829 c0 -5 5 -7 10 -4 6 3 10 8 10 11 0 2 -4 4 -10 4 -5 0 -10
-5 -10 -11z"/>
<path d="M5723 2810 c-4 -15 -9 -18 -18 -10 -7 6 -16 7 -18 2 -3 -4 3 -13 13
-19 14 -9 22 -9 36 2 13 10 15 14 5 15 -7 0 -11 6 -7 15 3 8 3 15 0 15 -3 0
-8 -9 -11 -20z"/>
<path d="M5870 2805 c0 -8 2 -15 4 -15 2 0 6 7 10 15 3 8 1 15 -4 15 -6 0 -10
-7 -10 -15z"/>
<path d="M4695 2788 c-14 -11 -25 -26 -25 -34 0 -16 -16 -19 -25 -5 -5 10 -36
7 -54 -3 -5 -4 -12 0 -14 6 -3 8 -6 6 -6 -4 -1 -19 -21 -26 -21 -8 0 14 -43
13 -58 -2 -15 -15 -16 -52 -1 -42 7 4 10 1 7 -7 -3 -8 -19 -14 -39 -14 -47 0
-89 -28 -71 -46 10 -11 36 -9 150 10 191 32 349 69 298 70 -31 1 -36 4 -27 15
14 17 -9 39 -31 31 -12 -5 -14 0 -11 18 4 20 0 25 -21 29 -17 4 -35 -2 -51
-14z"/>
<path d="M5780 2790 c0 -5 5 -10 11 -10 5 0 7 5 4 10 -3 6 -8 10 -11 10 -2 0
-4 -4 -4 -10z"/>
<path d="M5807 2776 c-14 -11 -15 -15 -5 -20 7 -3 1 -4 -15 -1 -27 5 -27 5 -9
-13 19 -19 77 -28 66 -11 -3 5 0 9 7 9 7 0 10 3 7 6 -4 3 -15 1 -25 -5 -16 -8
-19 -7 -18 7 0 10 4 23 9 30 9 15 6 15 -17 -2z"/>
<path d="M5973 2783 c4 -3 0 -15 -10 -25 -15 -17 -15 -18 10 -18 21 0 25 -4
21 -17 -5 -15 -4 -16 5 -3 15 21 14 30 -4 30 -8 0 -15 5 -15 11 0 5 6 7 13 3
8 -5 8 -2 -2 9 -7 9 -16 17 -19 17 -3 0 -2 -3 1 -7z"/>
<path d="M5518 2774 c-3 -3 -66 -8 -140 -11 -73 -3 -135 -7 -137 -9 -2 -2 81
-2 185 -1 104 1 168 3 141 5 -26 2 -45 7 -42 13 7 10 2 12 -7 3z"/>
<path d="M5945 2770 c-3 -5 -1 -10 4 -10 6 0 11 5 11 10 0 6 -2 10 -4 10 -3 0
-8 -4 -11 -10z"/>
<path d="M5628 2763 c6 -2 10 -9 6 -14 -3 -5 2 -9 10 -9 9 0 16 4 16 9 0 9
-25 22 -38 20 -4 0 -1 -3 6 -6z"/>
<path d="M5685 2759 c-4 -6 -5 -12 -2 -15 2 -3 7 2 10 11 7 17 1 20 -8 4z"/>
<path d="M5873 2755 c0 -8 7 -17 15 -20 21 -8 22 -3 2 17 -13 14 -17 15 -17 3z"/>
<path d="M5713 2745 c0 -8 4 -15 9 -15 4 0 8 4 8 9 0 6 -4 12 -8 15 -5 3 -9
-1 -9 -9z"/>
<path d="M5143 2743 c15 -2 37 -2 50 0 12 2 0 4 -28 4 -27 0 -38 -2 -22 -4z"/>
<path d="M5038 2733 c12 -2 32 -2 45 0 12 2 2 4 -23 4 -25 0 -35 -2 -22 -4z"/>
<path d="M5748 2733 c7 -3 16 -2 19 1 4 3 -2 6 -13 5 -11 0 -14 -3 -6 -6z"/>
<path d="M4905 2720 c-27 -7 -28 -8 -5 -8 14 0 45 3 70 7 l45 8 -40 1 c-22 0
-53 -4 -70 -8z"/>
<path d="M5920 2706 c0 -2 9 -6 20 -9 11 -3 18 -1 14 4 -5 9 -34 13 -34 5z"/>
<path d="M6107 2693 c-12 -12 -7 -22 8 -17 8 4 15 10 15 15 0 11 -14 12 -23 2z"/>
<path d="M6145 2690 c-3 -5 -1 -10 4 -10 6 0 11 5 11 10 0 6 -2 10 -4 10 -3 0
-8 -4 -11 -10z"/>
<path d="M6203 2693 c9 -2 23 -2 30 0 6 3 -1 5 -18 5 -16 0 -22 -2 -12 -5z"/>
<path d="M6210 2626 c0 -8 3 -17 8 -20 10 -6 43 19 35 27 -12 13 -43 7 -43 -7z"/>
<path d="M6276 2624 c-4 -10 -1 -14 6 -12 15 5 23 28 10 28 -5 0 -13 -7 -16
-16z"/>
<path d="M4348 2613 c7 -3 16 -2 19 1 4 3 -2 6 -13 5 -11 0 -14 -3 -6 -6z"/>
<path d="M6313 2606 c-13 -6 -23 -14 -23 -18 0 -12 24 -5 36 11 8 10 13 11 18
3 4 -7 12 -12 17 -12 6 0 4 7 -5 15 -8 8 -16 14 -18 14 -2 -1 -13 -6 -25 -13z"/>
<path d="M6376 2608 c3 -5 10 -6 15 -3 13 9 11 12 -6 12 -8 0 -12 -4 -9 -9z"/>
<path d="M4273 2603 c9 -2 23 -2 30 0 6 3 -1 5 -18 5 -16 0 -22 -2 -12 -5z"/>
<path d="M6248 2593 c7 -3 16 -2 19 1 4 3 -2 6 -13 5 -11 0 -14 -3 -6 -6z"/>
<path d="M3418 2340 c19 -8 22 -16 22 -69 0 -47 -4 -62 -17 -70 -14 -8 -2 -10
47 -11 72 0 110 17 110 51 0 12 -10 23 -27 30 -26 10 -27 12 -10 23 21 16 22
42 1 50 -9 3 -46 6 -82 5 -50 0 -61 -3 -44 -9z m105 -14 c3 -8 0 -22 -7 -32
-18 -24 -46 -11 -46 21 0 20 5 25 24 25 13 0 26 -6 29 -14z m23 -85 c9 -14 13
-23 9 -18 -5 4 -16 0 -26 -9 -28 -25 -53 -14 -59 26 -6 35 -6 35 26 32 22 -3
39 -13 50 -31z"/>
<path d="M3588 2343 c8 -3 12 -26 12 -65 0 -49 3 -59 15 -54 9 3 15 0 15 -10
0 -11 -6 -13 -19 -9 -11 3 -22 1 -26 -5 -4 -6 9 -10 37 -9 24 0 37 3 31 6 -9
3 -13 28 -13 73 0 46 4 70 13 73 6 2 -8 4 -33 4 -25 0 -39 -2 -32 -4z"/>
<path d="M3705 2338 c-53 -28 -59 -76 -16 -119 46 -45 141 -35 141 15 0 13 6
27 13 29 6 3 -6 6 -28 6 -26 0 -35 -2 -27 -8 8 -4 12 -19 10 -32 -2 -18 -10
-25 -31 -27 -36 -4 -55 12 -63 53 -7 39 9 73 39 85 21 8 21 9 2 9 -11 0 -29
-5 -40 -11z"/>
<path d="M3780 2343 c8 -3 25 -14 37 -25 22 -20 22 -20 16 0 -2 11 -15 23 -26
26 -27 7 -47 6 -27 -1z"/>
<path d="M2765 2329 c-4 -6 -4 -13 0 -17 4 -4 10 -1 12 6 3 6 16 12 29 12 23
0 24 -3 24 -61 0 -44 -4 -65 -15 -73 -12 -9 -5 -10 31 -7 36 2 43 6 31 13 -20
11 -24 97 -5 116 16 16 55 15 61 0 3 -8 6 -6 6 5 1 15 -9 17 -83 17 -49 0 -88
-4 -91 -11z"/>
<path d="M2970 2325 c15 -18 5 -116 -13 -127 -7 -4 8 -8 33 -8 33 1 41 3 29
10 -11 6 -15 18 -11 35 4 22 9 25 48 25 38 0 43 -2 42 -22 -1 -13 -6 -29 -11
-35 -7 -10 0 -13 29 -12 22 0 33 3 27 6 -9 3 -13 27 -13 68 0 41 4 65 13 68 6
3 -6 6 -27 6 -31 1 -37 -2 -28 -11 32 -32 2 -61 -52 -51 -27 6 -35 30 -16 49
8 8 -1 11 -26 12 -31 1 -34 -1 -24 -13z"/>
<path d="M3178 2333 c8 -3 12 -27 12 -68 0 -52 -3 -64 -17 -68 -10 -3 16 -5
58 -6 60 -1 78 2 83 14 6 17 -9 21 -19 5 -7 -12 -62 -14 -68 -2 -3 4 -3 19 0
35 6 29 30 36 51 15 9 -9 12 -6 12 17 0 23 -3 26 -12 17 -21 -21 -48 -14 -48
12 0 18 7 26 23 29 12 2 -3 5 -33 5 -30 0 -49 -2 -42 -5z"/>
<path d="M3280 2336 c0 -2 7 -9 15 -16 12 -10 15 -10 15 4 0 9 -7 16 -15 16
-8 0 -15 -2 -15 -4z"/>
<path d="M3930 2320 c-6 -12 -9 -24 -6 -27 3 -3 8 2 12 11 9 22 24 10 24 -20
0 -13 4 -24 9 -24 6 0 21 -19 35 -42 18 -31 22 -46 14 -55 -5 -7 -8 -20 -4
-28 3 -8 1 -15 -5 -15 -6 0 -7 -6 -3 -12 4 -8 3 -10 -2 -5 -5 5 -9 13 -9 18 0
5 -4 8 -10 7 -5 -1 -9 -8 -7 -14 1 -7 -11 -17 -28 -22 -34 -12 -41 -27 -9 -19
38 10 67 -9 80 -54 12 -39 11 -43 -9 -59 -12 -10 -22 -21 -22 -24 0 -3 47 -5
105 -4 58 0 105 4 105 9 0 5 -4 9 -10 9 -14 0 -70 57 -70 72 0 7 -8 23 -18 36
l-18 23 -1 -22 c-2 -27 -8 -33 -23 -24 -7 4 -9 16 -7 27 5 19 5 19 -13 3 -17
-16 -19 -15 -29 4 -10 18 -9 20 6 14 12 -5 15 -2 10 9 -3 10 1 19 10 22 11 4
14 2 9 -9 -3 -8 -1 -15 4 -15 17 0 20 18 9 47 -6 15 -13 22 -16 16 -3 -7 -9
-13 -14 -13 -7 0 -6 6 0 17 7 13 3 30 -17 65 -15 27 -30 48 -34 48 -5 0 -8 8
-8 18 0 9 -7 25 -15 35 -13 18 -14 18 -25 -3z"/>
<path d="M2380 2308 c0 -5 8 -8 18 -8 11 0 27 -8 36 -19 15 -17 16 -31 7 -137
-6 -66 -11 -129 -11 -142 0 -13 -11 -34 -25 -47 -15 -13 -22 -25 -18 -28 4 -2
74 -1 155 3 127 5 152 9 175 27 78 57 81 142 7 178 l-41 20 33 31 c42 38 43
67 5 105 l-29 29 -156 -2 c-86 -2 -156 -6 -156 -10z m255 -23 c43 -42 28 -106
-29 -125 -54 -18 -76 -1 -76 58 0 49 13 75 40 85 29 10 41 7 65 -18z m20 -180
c50 -49 20 -138 -51 -151 -20 -4 -46 -2 -60 5 -22 10 -24 16 -24 84 0 41 3 77
7 80 3 4 28 7 55 7 39 0 54 -5 73 -25z"/>
<path d="M5946 2264 c-11 -7 -18 -16 -15 -18 2 -2 13 2 23 10 11 7 18 16 15
18 -2 2 -13 -2 -23 -10z"/>
<path d="M3960 2240 c0 -5 5 -10 11 -10 5 0 7 5 4 10 -3 6 -8 10 -11 10 -2 0
-4 -4 -4 -10z"/>
<path d="M3896 2228 c3 -5 10 -6 15 -3 13 9 11 12 -6 12 -8 0 -12 -4 -9 -9z"/>
<path d="M3960 2206 c0 -8 -4 -16 -9 -18 -5 -2 -4 -14 4 -27 12 -24 13 -23 17
17 2 23 0 42 -4 42 -5 0 -8 -6 -8 -14z"/>
<path d="M5868 2195 c-15 -14 -31 -25 -35 -25 -4 0 -21 -11 -38 -25 -22 -18
-26 -24 -13 -25 43 -1 122 57 116 85 -2 12 -8 11 -30 -10z"/>
<path d="M3843 2147 c-17 -36 -19 -46 -8 -61 8 -11 15 -13 20 -7 3 6 0 11 -7
11 -9 0 -9 3 2 10 8 5 11 10 6 10 -5 0 -4 6 2 13 6 7 15 25 21 40 18 46 -12
33 -36 -16z"/>
<path d="M3179 2141 c17 -11 21 -24 21 -69 l0 -56 -68 67 c-64 63 -70 67 -112
66 -25 0 -38 -3 -30 -6 24 -10 30 -25 30 -83 0 -60 -8 -100 -20 -100 -4 0 -27
43 -51 95 -24 52 -48 94 -53 92 -5 -2 -35 -51 -67 -110 l-57 -107 40 0 c40 0
40 0 19 18 -20 16 -21 18 -6 40 11 15 26 22 48 22 47 0 61 -13 54 -47 l-6 -30
75 1 c72 1 94 8 54 19 -18 5 -20 14 -20 76 0 39 3 71 7 71 4 0 47 -39 96 -87
l88 -88 -5 108 c-4 89 -3 107 9 107 8 0 15 3 15 8 0 4 -18 7 -41 7 -37 0 -39
-1 -20 -14z m-285 -80 c9 -16 12 -31 9 -35 -8 -8 -48 -8 -55 0 -5 5 22 64 29
64 1 0 9 -13 17 -29z"/>
<path d="M3450 2151 c0 -6 9 -11 19 -11 10 0 21 -6 23 -12 9 -23 -7 -161 -18
-165 -6 -2 -33 39 -60 92 -27 52 -51 95 -54 95 -3 0 -30 -50 -61 -110 l-55
-110 40 1 c37 0 39 1 19 11 -26 12 -28 21 -13 49 8 14 21 19 56 19 37 0 46 -4
53 -22 5 -13 5 -27 0 -32 -17 -19 -9 -21 71 -21 67 0 78 2 63 13 -9 6 -20 12
-25 12 -10 0 -10 40 -2 103 l7 46 86 -85 86 -85 3 97 c2 72 7 100 18 108 11 9
4 11 -32 12 -46 1 -46 1 -20 -13 23 -12 26 -19 26 -68 0 -30 -4 -55 -8 -55 -4
0 -36 29 -70 63 -52 53 -69 64 -98 65 -19 1 -39 4 -44 7 -6 4 -10 1 -10 -4z
m86 -24 c4 -4 0 -7 -9 -7 -9 0 -18 4 -21 9 -7 10 20 9 30 -2z m-171 -67 c20
-39 20 -40 -13 -40 -38 0 -42 6 -29 41 14 37 23 37 42 -1z"/>
<path d="M5715 2113 c-11 -3 -24 -10 -30 -17 -5 -6 -44 -24 -85 -40 -41 -15
-106 -41 -145 -57 -38 -16 -78 -29 -89 -29 -10 0 -31 -11 -48 -25 -16 -14 -38
-25 -48 -25 -10 0 -22 -4 -25 -10 -3 -5 -25 -14 -48 -21 -23 -6 -55 -17 -72
-25 -54 -24 -279 -104 -375 -132 l-35 -10 33 -1 c19 -1 48 5 65 13 40 17 86
30 112 31 11 0 52 12 90 27 39 15 97 34 130 43 33 9 67 21 75 26 35 21 91 43
104 40 5 -1 13 3 17 10 4 7 21 13 38 14 16 1 28 -2 25 -7 -8 -12 0 -10 53 16
26 14 76 36 110 50 34 14 78 35 98 46 20 11 41 20 49 20 17 0 58 49 51 60 -6
10 -16 11 -50 3z"/>
<path d="M3866 2085 c4 -8 15 -15 25 -15 10 0 19 7 19 15 0 9 -9 15 -25 15
-18 0 -23 -4 -19 -15z"/>
<path d="M3785 2038 c-15 -29 -39 -63 -54 -75 l-26 -23 67 0 c36 0 73 -3 82
-6 9 -3 16 -2 16 4 0 5 -11 13 -25 16 -37 9 -49 39 -30 76 9 16 11 30 6 30 -6
0 -8 7 -5 15 13 33 -4 12 -31 -37z"/>
<path d="M3284 1855 c1 -46 16 -46 16 0 0 19 -4 35 -8 35 -5 0 -8 -16 -8 -35z"/>
<path d="M3335 1879 c-12 -18 -13 -59 -1 -59 6 0 11 16 11 35 0 38 -1 40 -10
24z"/>
<path d="M3450 1857 c0 -20 4 -37 9 -37 10 0 9 55 -2 66 -4 4 -7 -9 -7 -29z"/>
<path d="M3483 1854 c-2 -20 2 -34 8 -34 6 0 9 6 6 14 -3 7 -1 18 4 23 6 6 5
14 -3 21 -10 8 -14 3 -15 -24z"/>
<path d="M3522 1853 c-1 -18 3 -33 8 -33 6 0 10 7 10 15 0 8 5 15 10 15 6 0
10 -7 10 -15 0 -8 5 -15 10 -15 6 0 8 11 4 28 -9 38 -12 41 -33 39 -13 -1 -18
-10 -19 -34z m38 17 c0 -5 -4 -10 -10 -10 -5 0 -10 5 -10 10 0 6 5 10 10 10 6
0 10 -4 10 -10z"/>
<path d="M3596 1874 c-19 -19 -20 -25 -3 -48 18 -24 51 -17 55 12 3 23 -13 52
-29 52 -4 0 -15 -7 -23 -16z m39 -15 c8 -23 -7 -45 -24 -35 -12 8 -15 39 -4
49 12 12 22 7 28 -14z"/>
<path d="M3670 1851 c4 -30 9 -36 30 -36 21 0 26 6 31 38 4 24 2 37 -6 37 -7
0 -9 -13 -7 -35 3 -27 1 -35 -12 -35 -16 0 -32 42 -22 58 3 5 -1 9 -8 9 -9 0
-11 -11 -6 -36z"/>
<path d="M3755 1850 c0 -22 3 -40 6 -40 4 0 9 18 11 40 2 24 -1 40 -7 40 -6 0
-10 -18 -10 -40z"/>
<path d="M3793 1853 c1 -20 7 -38 13 -40 6 -2 8 10 6 32 -6 48 -20 54 -19 8z"/>
<path d="M2905 1860 c-11 -33 32 -69 49 -41 3 5 -2 8 -12 7 -12 -1 -17 6 -17
27 1 32 -11 36 -20 7z"/>
<path d="M2973 1864 c-7 -19 7 -46 27 -52 9 -3 9 1 -3 18 -8 12 -13 29 -10 36
3 8 2 14 -1 14 -4 0 -9 -7 -13 -16z"/>
<path d="M3018 1850 c3 -21 8 -28 14 -22 12 12 7 44 -8 49 -7 2 -9 -8 -6 -27z"/>
<path d="M3050 1850 c0 -16 5 -30 10 -30 6 0 10 14 10 30 0 17 -4 30 -10 30
-5 0 -10 -13 -10 -30z"/>
<path d="M3120 1850 c0 -16 5 -30 10 -30 6 0 9 6 8 13 -2 6 3 11 10 10 6 -2
12 2 12 7 0 6 -7 10 -16 10 -8 0 -12 5 -9 10 3 6 1 10 -4 10 -6 0 -11 -13 -11
-30z"/>
<path d="M3185 1852 c17 -16 34 -25 39 -21 11 10 -2 29 -20 29 -8 0 -14 5 -14
10 0 6 -8 10 -17 10 -14 0 -11 -6 12 -28z"/>
<path d="M3398 1850 c22 -39 37 -39 17 0 -9 17 -20 30 -25 30 -5 0 -1 -13 8
-30z"/>
<path d="M3366 1835 c-3 -8 -1 -15 3 -15 5 0 11 7 15 15 3 8 1 15 -3 15 -5 0
-11 -7 -15 -15z"/>
<path d="M1661 1831 c-10 -7 -8 -10 8 -16 27 -8 36 -2 18 13 -7 6 -18 7 -26 3z"/>
<path d="M3170 1830 c0 -5 5 -10 11 -10 5 0 7 5 4 10 -3 6 -8 10 -11 10 -2 0
-4 -4 -4 -10z"/>
<path d="M4185 1639 c-49 -5 -142 -15 -205 -23 l-115 -16 105 6 c58 4 144 7
192 8 49 0 88 4 88 8 0 4 12 6 26 5 15 -1 29 4 31 11 3 7 -3 11 -14 11 -10 -1
-58 -6 -108 -10z"/>
<path d="M2481 1606 c2 -2 38 -6 79 -9 49 -4 70 -3 60 3 -14 9 -149 15 -139 6z"/>
<path d="M2950 1591 c-44 -7 -43 -7 30 -14 41 -4 137 -9 212 -12 112 -3 137
-1 142 11 5 12 -19 14 -147 14 -84 0 -161 2 -172 4 -11 2 -40 0 -65 -3z"/>
<path d="M3698 1593 c12 -2 32 -2 45 0 12 2 2 4 -23 4 -25 0 -35 -2 -22 -4z"/>
<path d="M3788 1593 c12 -2 30 -2 40 0 9 3 -1 5 -23 4 -22 0 -30 -2 -17 -4z"/>
<path d="M3350 1564 c0 -9 11 -14 31 -14 35 0 31 15 -6 22 -17 4 -25 1 -25 -8z"/>
<path d="M2488 1553 c6 -2 18 -2 25 0 6 3 1 5 -13 5 -14 0 -19 -2 -12 -5z"/>
<path d="M3200 1140 c0 -5 7 -10 16 -10 8 0 12 5 9 10 -3 6 -10 10 -16 10 -5
0 -9 -4 -9 -10z"/>
<path d="M3223 1048 c3 -19 0 -25 -10 -21 -17 7 -17 -5 1 -23 16 -16 30 -19
22 -5 -4 5 -2 11 3 13 5 1 3 17 -5 33 -14 30 -14 30 -11 3z"/>
<path d="M1041 3044 c0 -11 3 -14 6 -6 3 7 2 16 -1 19 -3 4 -6 -2 -5 -13z"/>
<path d="M3881 2834 c0 -11 3 -14 6 -6 3 7 2 16 -1 19 -3 4 -6 -2 -5 -13z"/>
<path d="M120 2281 c0 -8 41 -23 47 -17 2 1 -8 8 -22 14 -14 6 -25 8 -25 3z"/>
<path d="M4912 1586 c-31 -18 -34 -22 -14 -22 9 0 25 9 35 18 19 21 12 22 -21
4z"/>
<path d="M4855 1550 c3 -5 11 -10 16 -10 6 0 7 5 4 10 -3 6 -11 10 -16 10 -6
0 -7 -4 -4 -10z"/>
<path d="M4875 1199 c-16 -6 -14 -8 13 -8 33 -1 41 4 20 12 -7 2 -22 1 -33 -4z"/>
<path d="M5070 1090 c0 -5 5 -10 11 -10 5 0 7 5 4 10 -3 6 -8 10 -11 10 -2 0
-4 -4 -4 -10z"/>
<path d="M4638 1033 c6 -2 18 -2 25 0 6 3 1 5 -13 5 -14 0 -19 -2 -12 -5z"/>
<path d="M4720 910 c0 -5 7 -10 15 -10 8 0 15 5 15 10 0 6 -7 10 -15 10 -8 0
-15 -4 -15 -10z"/>
<path d="M4543 575 c0 -11 10 -15 36 -14 20 1 28 3 18 6 -9 2 -15 9 -12 14 4
5 -5 9 -18 9 -14 0 -24 -6 -24 -15z"/>
<path d="M4652 585 c3 -3 21 -6 41 -7 20 -1 34 -5 31 -10 -3 -4 14 -8 37 -8
36 0 40 2 29 15 -9 11 -32 15 -78 15 -36 0 -63 -2 -60 -5z"/>
<path d="M4813 583 c9 -2 23 -2 30 0 6 3 -1 5 -18 5 -16 0 -22 -2 -12 -5z"/>
<path d="M4954 582 c5 -8 -1 -12 -16 -13 -20 -1 -19 -2 6 -10 17 -4 32 -6 35
-4 2 3 -1 5 -8 5 -7 0 -10 4 -6 9 3 5 0 13 -6 17 -8 4 -9 3 -5 -4z"/>
<path d="M5048 573 c6 -2 18 -2 25 0 6 3 1 5 -13 5 -14 0 -19 -2 -12 -5z"/>
<path d="M4628 563 c6 -2 18 -2 25 0 6 3 1 5 -13 5 -14 0 -19 -2 -12 -5z"/>
<path d="M4853 563 c9 -2 25 -2 35 0 9 3 1 5 -18 5 -19 0 -27 -2 -17 -5z"/>
<path d="M5090 560 c0 -6 7 -10 15 -10 8 0 15 2 15 4 0 2 -7 6 -15 10 -8 3
-15 1 -15 -4z"/>
<path d="M5038 553 c6 -2 18 -2 25 0 6 3 1 5 -13 5 -14 0 -19 -2 -12 -5z"/>
<path d="M5168 553 c6 -2 18 -2 25 0 6 3 1 5 -13 5 -14 0 -19 -2 -12 -5z"/>
<path d="M1780 530 c-18 -12 -2 -12 25 0 13 6 15 9 5 9 -8 0 -22 -4 -30 -9z"/>
<path d="M1858 533 c7 -3 16 -2 19 1 4 3 -2 6 -13 5 -11 0 -14 -3 -6 -6z"/>
<path d="M1923 533 c9 -2 23 -2 30 0 6 3 -1 5 -18 5 -16 0 -22 -2 -12 -5z"/>
<path d="M2010 528 c0 -5 4 -7 9 -3 5 3 12 1 16 -5 4 -7 12 -7 25 0 13 7 20 6
23 -3 2 -6 8 -9 12 -5 4 4 4 11 0 17 -7 13 -85 12 -85 -1z"/>
<path d="M2110 529 c0 -6 7 -8 16 -5 9 4 24 1 32 -6 13 -11 14 -11 8 0 -6 10
3 12 44 9 28 -2 53 0 56 5 3 4 -31 8 -75 8 -53 0 -81 -4 -81 -11z"/>
<path d="M2310 531 c0 -6 4 -12 8 -15 5 -3 9 1 9 9 0 8 -4 15 -9 15 -4 0 -8
-4 -8 -9z"/>
<path d="M2389 519 c19 -23 22 -24 15 -5 -3 8 2 16 13 19 10 2 4 4 -13 4 -29
0 -30 -1 -15 -18z"/>
<path d="M2463 533 c16 -3 25 -9 21 -15 -4 -7 -2 -8 4 -4 22 14 12 26 -20 25
-31 -2 -31 -2 -5 -6z"/>
<path d="M2548 533 c7 -3 16 -2 19 1 4 3 -2 6 -13 5 -11 0 -14 -3 -6 -6z"/>
<path d="M2588 515 c2 -14 8 -25 13 -25 10 0 11 12 3 34 -10 25 -22 19 -16 -9z"/>
<path d="M2630 518 c14 -15 25 -18 54 -13 19 4 40 13 46 20 9 11 -2 13 -54 13
-63 -1 -64 -1 -46 -20z"/>
<path d="M2770 530 c0 -13 20 -13 40 0 12 8 9 10 -12 10 -16 0 -28 -4 -28 -10z"/>
<path d="M2948 533 c7 -3 16 -2 19 1 4 3 -2 6 -13 5 -11 0 -14 -3 -6 -6z"/>
<path d="M3018 533 c7 -3 16 -2 19 1 4 3 -2 6 -13 5 -11 0 -14 -3 -6 -6z"/>
<path d="M3103 533 c30 -3 36 -7 28 -17 -9 -10 -4 -13 19 -12 26 1 28 3 14 13
-14 10 -12 12 13 16 15 2 -3 4 -42 4 -38 0 -53 -2 -32 -4z"/>
<path d="M3217 520 c3 -11 7 -20 9 -20 2 0 4 9 4 20 0 11 -4 20 -9 20 -5 0 -7
-9 -4 -20z"/>
<path d="M3314 528 c-4 -6 -3 -8 4 -4 5 3 12 1 14 -6 3 -8 6 -9 11 -1 4 6 0
13 -8 17 -8 3 -17 0 -21 -6z"/>
<path d="M3414 531 c5 -8 56 -3 56 5 0 2 -14 4 -31 4 -16 0 -28 -4 -25 -9z"/>
<path d="M3490 530 c0 -5 5 -10 11 -10 5 0 7 5 4 10 -3 6 -8 10 -11 10 -2 0
-4 -4 -4 -10z"/>
<path d="M3530 536 c0 -2 7 -6 15 -10 8 -3 15 -1 15 4 0 6 -7 10 -15 10 -8 0
-15 -2 -15 -4z"/>
<path d="M3583 522 c-4 -9 -1 -18 6 -20 9 -3 9 -7 0 -18 -13 -15 -5 -18 41
-14 14 1 22 -1 18 -5 -4 -4 -31 -7 -60 -7 -38 0 -47 -2 -33 -8 11 -5 57 -9
103 -9 51 -1 82 -5 82 -12 0 -13 -206 -2 -234 13 -13 7 -16 7 -12 -1 10 -16
-19 -14 -33 2 -6 8 -7 18 -3 22 4 5 2 5 -5 1 -6 -3 -20 3 -31 14 -15 16 -24
19 -43 11 l-24 -10 28 0 c15 -1 27 -5 27 -10 0 -7 -53 -8 -198 -2 -7 1 -10 6
-7 11 3 6 1 10 -4 10 -6 0 -11 -5 -11 -10 0 -7 -6 -7 -19 0 -25 13 -41 13 -21
0 8 -5 10 -10 4 -10 -6 0 -13 3 -17 6 -3 3 -93 7 -199 8 -164 1 -193 3 -190
16 3 11 -1 10 -16 -3 -11 -10 -22 -14 -23 -8 -3 7 -18 7 -44 1 -40 -9 -127
-11 -302 -6 -60 1 -93 -2 -93 -9 0 -6 -3 -7 -8 0 -7 10 -170 15 -367 12 -55 0
-127 0 -159 1 -33 1 -66 -4 -73 -10 -9 -7 -13 -7 -13 0 0 7 -65 10 -195 9
-107 -1 -195 0 -195 3 0 3 -44 4 -97 2 -230 -7 -493 -8 -504 -1 -7 4 -20 4
-29 -1 -9 -5 -38 -10 -63 -11 -26 -2 -47 -7 -47 -11 0 -5 -8 -5 -17 0 -10 5
-88 8 -173 6 -85 -2 -189 -4 -231 -5 -42 -1 -82 -5 -89 -9 -6 -4 -10 -22 -8
-41 3 -33 5 -34 43 -33 22 1 287 2 588 3 350 1 546 5 542 11 -3 6 1 10 9 10 9
0 15 -6 14 -12 -2 -10 34 -13 155 -14 86 -1 159 2 162 6 2 4 -19 7 -48 7 -147
0 -161 5 -92 29 28 9 37 9 46 -2 7 -9 18 -10 34 -4 28 11 85 -5 85 -23 0 -9
68 -13 243 -15 133 -1 275 -5 315 -8 48 -3 72 -2 72 5 0 6 -12 10 -27 10 -53
-3 -69 3 -33 11 25 6 41 5 57 -6 27 -17 60 -18 66 -1 4 9 6 9 6 0 1 -9 9 -9
34 -1 17 6 35 16 38 21 4 5 9 5 13 -2 4 -6 20 -11 37 -11 32 0 40 -16 12 -23
-14 -4 -12 -5 5 -6 12 0 22 5 22 12 0 9 3 8 9 -2 9 -14 76 -11 101 4 9 5 11 4
6 -3 -4 -7 -2 -12 4 -12 6 0 13 6 16 14 3 8 12 12 20 9 9 -3 13 -12 10 -19 -4
-11 26 -14 169 -13 96 1 173 4 171 8 -3 4 -1 13 4 21 7 12 12 12 22 2 9 -9 9
-12 0 -12 -7 0 -12 -4 -12 -9 0 -5 26 -9 58 -9 38 1 50 3 37 9 -33 13 -4 10
33 -3 30 -11 35 -11 48 7 13 17 14 17 14 1 0 -15 10 -17 68 -16 37 1 90 -1
117 -4 28 -3 207 -8 399 -10 322 -5 350 -4 363 12 12 16 13 16 7 0 -3 -10 -2
-18 2 -19 5 0 20 -2 33 -3 13 -2 32 5 43 16 21 21 88 25 88 6 0 -9 3 -10 8 -2
10 16 60 26 67 14 3 -5 1 -10 -4 -10 -6 0 -11 -7 -11 -15 0 -9 10 -15 26 -15
17 0 23 4 18 13 -6 9 -3 8 8 -1 11 -9 40 -13 86 -11 38 1 74 -1 80 -5 6 -3 14
-2 17 4 4 7 11 8 18 2 10 -8 153 -13 752 -27 67 -2 154 -6 195 -9 41 -3 125
-8 185 -11 61 -3 130 -10 154 -14 25 -5 51 -6 59 -3 10 3 13 1 8 -6 -4 -7 10
-22 36 -39 24 -16 50 -34 58 -41 8 -7 49 -37 90 -68 41 -30 77 -60 79 -67 2
-7 -6 -3 -18 7 -11 11 -21 14 -21 8 0 -6 -6 -10 -12 -7 -23 7 -197 13 -203 7
-10 -11 -38 -11 -57 -1 -10 5 -18 6 -18 1 0 -4 -9 -8 -19 -8 -11 0 -17 4 -15
8 3 4 -18 8 -45 8 -28 0 -51 -4 -51 -10 0 -15 -28 -12 -37 5 -8 13 -12 13 -37
0 -16 -9 -31 -13 -34 -10 -3 3 0 5 6 5 7 0 12 4 12 9 0 4 -10 8 -22 7 -13 -1
-22 -7 -20 -14 2 -9 -5 -9 -26 2 -22 11 -32 12 -40 4 -9 -9 -16 -8 -29 3 -16
12 -44 15 -126 10 -11 -1 -15 -6 -11 -12 3 -6 -6 -3 -21 7 -21 14 -31 15 -46
6 -13 -8 -20 -8 -25 -1 -3 6 -18 9 -32 6 -14 -3 -37 -1 -50 4 -15 6 -21 5 -17
-1 3 -6 2 -10 -4 -10 -5 0 -12 4 -16 9 -7 12 -203 12 -211 0 -3 -5 -53 -6
-112 -3 -125 7 -171 7 -231 -2 -30 -4 -46 -2 -51 6 -5 9 -25 12 -57 10 -91 -5
-168 -4 -208 2 -22 4 -48 2 -60 -4 -17 -10 -18 -9 -8 3 10 12 8 15 -8 16 -11
1 -17 -2 -14 -7 4 -6 -43 -7 -117 -4 -106 5 -277 6 -358 2 -14 0 -117 2 -230
5 -117 3 -210 1 -216 -4 -7 -5 -33 -5 -66 1 -61 12 -79 10 -90 -5 -5 -6 -8 -5
-8 2 0 10 -18 12 -67 8 -92 -7 -133 -6 -152 4 -9 5 -35 6 -59 1 -35 -6 -40 -5
-31 6 15 18 4 18 -14 0 -10 -10 -24 -12 -48 -7 -33 7 -269 7 -319 -1 -14 -2
-28 1 -32 7 -5 6 -11 6 -20 -3 -6 -6 -19 -12 -28 -12 -10 0 -11 3 -3 8 6 4
-39 6 -100 5 -65 -1 -117 3 -124 9 -9 7 -13 7 -13 0 0 -7 -94 -10 -282 -10
-336 1 -380 -1 -371 -16 4 -6 1 -6 -8 1 -13 11 -208 18 -351 14 -25 -1 -38 3
-38 11 0 9 -3 9 -9 -1 -10 -15 -34 -16 -558 -24 -131 -1 -173 -5 -173 -14 0
-7 -5 -13 -11 -13 -5 0 -8 4 -5 9 7 11 -22 23 -35 15 -6 -3 -59 -6 -119 -5
l-110 0 0 -49 0 -49 2212 -1 c1606 0 2215 3 2225 11 9 8 13 8 13 0 0 -8 274
-11 1025 -11 l1025 0 0 100 0 100 -42 1 c-24 1 -47 1 -52 0 -5 -1 -22 3 -39
10 -24 10 -26 14 -13 21 9 5 26 6 37 3 15 -5 20 -3 17 6 -5 17 -48 25 -48 10
0 -15 -12 -14 -35 3 -18 13 -18 14 8 9 16 -3 27 -1 27 6 0 5 7 8 15 5 8 -4 15
-1 15 5 0 6 -17 11 -40 11 -22 0 -40 5 -40 10 0 6 -5 10 -11 10 -5 0 -7 -5 -4
-10 3 -6 3 -10 -2 -11 -4 0 -17 -2 -28 -5 -11 -2 -35 -6 -54 -10 -26 -5 -33
-4 -29 7 3 8 15 13 29 11 15 -2 20 0 14 5 -20 18 -118 35 -213 38 -102 2 -193
22 -170 37 8 4 -16 8 -55 8 -46 0 -73 -5 -83 -14 -20 -20 -57 -9 -51 16 3 10
0 18 -6 17 -22 -3 -37 1 -37 9 0 4 34 8 75 10 41 2 75 -1 75 -5 0 -5 37 -9 82
-8 73 0 83 -2 86 -19 2 -10 0 -16 -5 -13 -4 2 -17 1 -28 -4 -15 -6 -12 -7 15
-6 19 1 41 8 49 15 7 7 27 12 43 10 17 -2 33 3 38 12 5 8 10 11 10 6 0 -6 -10
-20 -22 -33 l-21 -23 41 0 c31 0 42 4 42 15 0 8 -5 15 -11 15 -6 0 -9 6 -6 14
9 23 -47 44 -94 36 -22 -4 -57 -4 -77 1 -52 12 -122 11 -122 -2 0 -5 -5 -7
-12 -3 -6 4 -142 8 -302 10 -326 3 -366 6 -386 33 -12 18 -15 18 -37 4 -19
-13 -21 -18 -11 -25 8 -6 5 -7 -11 -3 -13 4 -221 8 -462 10 -366 2 -439 0
-439 -11 0 -8 -4 -14 -10 -14 -5 0 -10 6 -10 14 0 12 -30 15 -175 15 -135 1
-183 4 -212 16 -30 13 -35 18 -23 25 8 5 10 10 5 10 -6 0 -16 -5 -22 -11 -15
-15 -59 -4 -67 16 -4 11 -2 14 7 8 19 -13 55 -10 50 3 -7 18 -73 15 -80 -4z
m-2153 -52 c0 -5 -2 -10 -4 -10 -3 0 -8 5 -11 10 -3 6 -1 10 4 10 6 0 11 -4
11 -10z m3645 -10 c3 -5 1 -10 -4 -10 -6 0 -11 5 -11 10 0 6 2 10 4 10 3 0 8
-4 11 -10z m-2015 -9 c0 -5 -9 -11 -20 -14 -22 -6 -28 8 -7 16 19 8 27 8 27
-2z m260 -18 c0 -10 -4 -14 -8 -8 -4 6 -11 13 -16 18 -5 4 -2 7 7 7 10 0 17
-8 17 -17z m460 -15 c0 -5 -7 -3 -15 6 -8 8 -15 18 -15 22 0 3 7 1 15 -6 8 -7
15 -17 15 -22z m-530 18 c0 -3 -4 -8 -10 -11 -5 -3 -10 -1 -10 4 0 6 5 11 10
11 6 0 10 -2 10 -4z m817 -11 c-10 -7 -26 -12 -35 -10 -9 2 -33 4 -52 5 l-35
2 30 7 c16 3 47 7 69 7 35 2 38 0 23 -11z m83 5 c0 -5 -4 -10 -10 -10 -5 0
-10 5 -10 10 0 6 5 10 10 10 6 0 10 -4 10 -10z m-2863 -26 c-2 -2 -12 -1 -22
3 -18 6 -18 7 1 13 17 7 33 -5 21 -16z m2093 16 c0 -5 -5 -10 -11 -10 -5 0 -7
5 -4 10 3 6 8 10 11 10 2 0 4 -4 4 -10z m2200 0 c0 -5 -5 -10 -11 -10 -5 0 -7
5 -4 10 3 6 8 10 11 10 2 0 4 -4 4 -10z m-4340 -10 c0 -5 -7 -10 -15 -10 -8 0
-15 5 -15 10 0 6 7 10 15 10 8 0 15 -4 15 -10z m524 -7 c-21 -15 -54 -17 -54
-4 0 9 24 16 59 17 9 0 8 -4 -5 -13z m906 7 c-13 -8 -11 -11 8 -16 12 -4 22
-10 22 -16 0 -10 -45 -6 -56 5 -9 8 15 37 30 37 6 0 4 -5 -4 -10z m-727 -17
c-7 -2 -19 -2 -25 0 -7 3 -2 5 12 5 14 0 19 -2 13 -5z m834 -15 c-3 -8 -6 -5
-6 6 -1 11 2 17 5 13 3 -3 4 -12 1 -19z m-27 2 c0 -5 -2 -10 -4 -10 -3 0 -8 5
-11 10 -3 6 -1 10 4 10 6 0 11 -4 11 -10z m584 -1 c-2 -4 2 -10 8 -12 7 -3 8
-6 2 -6 -5 -1 -18 5 -28 12 -16 12 -16 13 3 13 11 0 18 -3 15 -7z m1491 -9
c13 -6 15 -9 5 -9 -8 0 -22 4 -30 9 -18 12 -2 12 25 0z m-1228 -6 c-3 -3 -12
-4 -19 -1 -8 3 -5 6 6 6 11 1 17 -2 13 -5z m788 -22 c-3 -3 -11 0 -18 7 -9 10
-8 11 6 5 10 -3 15 -9 12 -12z m152 12 c-3 -3 -12 -4 -19 -1 -8 3 -5 6 6 6 11
1 17 -2 13 -5z m360 -20 c-3 -3 -12 -4 -19 -1 -8 3 -5 6 6 6 11 1 17 -2 13 -5z
m850 -7 c3 -4 -8 -7 -25 -7 -18 0 -32 4 -32 8 0 9 47 8 57 -1z m296 -48 c-11
-4 -30 -5 -42 -2 -36 9 -23 19 22 14 34 -3 38 -5 20 -12z m-73 1 c0 -5 -4 -10
-10 -10 -5 0 -10 5 -10 10 0 6 5 10 10 10 6 0 10 -4 10 -10z m-4055 -191 c-9
-13 -45 -11 -45 2 0 6 7 9 15 5 8 -3 15 -1 15 5 0 6 5 7 10 4 6 -4 8 -11 5
-16z m-1375 1 c0 -5 -5 -10 -11 -10 -5 0 -7 5 -4 10 3 6 8 10 11 10 2 0 4 -4
4 -10z m590 0 c0 -5 -5 -10 -11 -10 -5 0 -7 5 -4 10 3 6 8 10 11 10 2 0 4 -4
4 -10z m695 0 c3 -6 -1 -7 -9 -4 -18 7 -21 14 -7 14 6 0 13 -4 16 -10z m140 0
c3 -5 -1 -10 -9 -10 -8 0 -18 5 -21 10 -3 6 1 10 9 10 8 0 18 -4 21 -10z m368
-4 c3 4 5 -2 4 -13 0 -11 -7 -20 -14 -20 -8 0 -12 6 -9 14 3 7 1 13 -4 13 -6
0 -10 -10 -10 -22 -1 -20 -2 -21 -10 -6 -15 25 -2 50 20 38 9 -5 20 -7 23 -4z
m-316 -2 c-3 -3 -12 -4 -19 -1 -8 3 -5 6 6 6 11 1 17 -2 13 -5z m-1097 -20 c0
-2 -7 -4 -15 -4 -8 0 -15 4 -15 10 0 5 7 7 15 4 8 -4 15 -8 15 -10z m103 9
c-7 -2 -19 -2 -25 0 -7 3 -2 5 12 5 14 0 19 -2 13 -5z m1517 -9 c0 -2 -9 -4
-20 -4 -11 0 -20 4 -20 9 0 5 9 7 20 4 11 -3 20 -7 20 -9z m94 -3 c4 -5 -1 -8
-9 -7 -21 3 -31 16 -12 16 9 0 18 -4 21 -9z m469 -6 c-3 -9 -8 -14 -10 -11 -3
3 -2 9 2 15 9 16 15 13 8 -4z m-1349 -11 c3 -8 2 -12 -4 -9 -6 3 -10 10 -10
16 0 14 7 11 14 -7z m163 -6 c-3 -8 -6 -5 -6 6 -1 11 2 17 5 13 3 -3 4 -12 1
-19z m1248 12 c3 -5 -1 -10 -10 -10 -9 0 -13 5 -10 10 3 6 8 10 10 10 2 0 7
-4 10 -10z m445 0 c0 -5 -8 -10 -17 -10 -15 0 -16 2 -3 10 19 12 20 12 20 0z
m-1950 -10 c0 -5 -2 -10 -4 -10 -3 0 -8 5 -11 10 -3 6 -1 10 4 10 6 0 11 -4
11 -10z m360 -6 c0 -2 -9 -4 -21 -4 -11 0 -18 4 -14 10 5 8 35 3 35 -6z m-460
2 c0 -3 -4 -8 -10 -11 -5 -3 -10 -1 -10 4 0 6 5 11 10 11 6 0 10 -2 10 -4z
m503 -3 c-7 -2 -19 -2 -25 0 -7 3 -2 5 12 5 14 0 19 -2 13 -5z m1572 -3 c3 -5
1 -10 -4 -10 -6 0 -11 5 -11 10 0 6 2 10 4 10 3 0 8 -4 11 -10z m520 0 c-3 -5
-10 -10 -16 -10 -5 0 -9 5 -9 10 0 6 7 10 16 10 8 0 12 -4 9 -10z m-3398 -6
c-3 -3 -12 -4 -19 -1 -8 3 -5 6 6 6 11 1 17 -2 13 -5z m1573 2 c0 -11 -19 -15
-25 -6 -3 5 1 10 9 10 9 0 16 -2 16 -4z"/>
<path d="M3688 533 c7 -3 16 -2 19 1 4 3 -2 6 -13 5 -11 0 -14 -3 -6 -6z"/>
<path d="M3730 520 c13 -24 26 -26 34 -4 9 23 8 24 -19 24 -23 0 -24 -2 -15
-20z m30 6 c0 -3 -4 -8 -10 -11 -5 -3 -10 -1 -10 4 0 6 5 11 10 11 6 0 10 -2
10 -4z"/>
<path d="M3825 530 c4 -6 11 -8 16 -5 14 9 11 15 -7 15 -8 0 -12 -5 -9 -10z"/>
<path d="M3977 524 c5 -12 3 -15 -6 -9 -10 6 -11 3 -2 -12 10 -19 7 -20 -36
-16 -26 2 -44 0 -40 -3 4 -4 27 -9 52 -11 44 -5 45 -5 45 25 0 17 -4 34 -10
37 -6 4 -7 -1 -3 -11z"/>
<path d="M4010 520 c-6 -11 -8 -20 -5 -20 3 0 14 9 25 20 15 15 16 20 5 20 -8
0 -19 -9 -25 -20z"/>
<path d="M4078 533 c7 -3 16 -2 19 1 4 3 -2 6 -13 5 -11 0 -14 -3 -6 -6z"/>
<path d="M4180 525 c0 -8 -7 -15 -15 -15 -8 0 -15 -2 -15 -4 0 -2 -3 -11 -6
-20 -5 -13 3 -16 47 -16 49 0 51 1 33 15 -13 11 -14 13 -3 9 10 -3 19 1 22 10
4 9 16 16 27 16 12 0 18 5 15 10 -13 20 -61 11 -75 -15 -15 -28 -31 -25 -23 5
3 11 3 20 -1 20 -3 0 -6 -7 -6 -15z"/>
<path d="M4315 523 c1 -10 -2 -24 -8 -30 -6 -8 -6 -13 0 -13 10 0 34 25 48 50
8 13 7 13 -8 1 -11 -9 -17 -10 -17 -2 0 6 -4 11 -9 11 -5 0 -8 -8 -6 -17z"/>
<path d="M4368 518 c-22 -26 -20 -28 26 -30 20 -1 36 -5 36 -10 0 -4 5 -8 11
-8 5 0 7 5 3 12 -5 8 -2 9 9 5 10 -3 17 -3 17 2 0 11 -48 24 -59 16 -5 -3 -12
2 -15 11 -4 11 -2 15 7 11 8 -3 20 -1 28 4 10 6 5 9 -16 9 -19 0 -36 -8 -47
-22z"/>
<path d="M4450 528 c0 -7 23 -12 43 -9 4 1 10 -6 13 -14 4 -8 17 -15 31 -15
13 0 21 4 18 10 -3 6 -15 10 -26 10 -10 0 -19 5 -19 11 0 7 16 9 45 6 25 -2
45 0 45 5 0 5 -34 8 -75 6 -41 -1 -75 -6 -75 -10z"/>
<path d="M4620 520 c0 -11 4 -20 10 -20 5 0 7 7 4 15 -6 15 16 21 29 9 12 -13
100 -9 105 4 3 9 -17 12 -72 12 -69 0 -76 -2 -76 -20z"/>
<path d="M4780 530 c0 -5 7 -10 15 -10 8 0 15 5 15 10 0 6 -7 10 -15 10 -8 0
-15 -4 -15 -10z"/>
<path d="M4830 525 c0 -16 17 -19 44 -9 26 10 18 24 -14 24 -20 0 -30 -5 -30
-15z"/>
<path d="M4906 533 c-15 -16 -3 -25 29 -21 29 3 32 2 22 -11 -10 -12 -9 -13 8
-4 11 6 25 8 32 6 7 -2 21 1 32 7 16 8 21 8 21 -2 0 -9 2 -10 8 -2 12 19 53
-2 46 -23 -5 -16 -4 -16 10 1 17 21 51 14 42 -9 -8 -22 18 -19 39 5 19 21 37
18 28 -5 -3 -11 -1 -13 10 -9 23 8 30 34 9 35 -10 1 -7 4 8 8 14 4 26 4 28 0
2 -4 10 -5 18 -2 10 4 13 0 8 -13 -4 -14 0 -13 16 6 13 15 20 18 17 9 -4 -12
1 -17 16 -16 12 0 36 -1 52 -1 17 -1 39 -1 50 0 11 0 28 -2 38 -7 13 -5 17 -2
17 13 0 15 5 18 25 14 14 -2 25 0 25 5 0 5 -20 10 -45 12 -26 1 -45 -2 -45 -9
0 -5 -12 -10 -26 -10 -14 0 -23 4 -19 10 7 11 -366 19 -396 8 -10 -4 -19 -4
-19 0 0 9 -96 13 -104 5z m479 -23 c8 -13 -5 -13 -25 0 -13 8 -13 10 2 10 9 0
20 -4 23 -10z"/>
<path d="M695 520 c-3 -5 -1 -10 4 -10 6 0 11 5 11 10 0 6 -2 10 -4 10 -3 0
-8 -4 -11 -10z"/>
<path d="M755 520 c-19 -8 -19 -9 2 -9 12 -1 25 4 28 9 7 12 -2 12 -30 0z"/>
<path d="M808 523 c7 -3 16 -2 19 1 4 3 -2 6 -13 5 -11 0 -14 -3 -6 -6z"/>
<path d="M1185 520 c-4 -6 6 -7 27 -3 44 8 48 13 10 13 -17 0 -34 -4 -37 -10z"/>
<path d="M1303 523 c9 -2 25 -2 35 0 9 3 1 5 -18 5 -19 0 -27 -2 -17 -5z"/>
<path d="M3895 521 c-11 -5 -24 -6 -29 -3 -5 3 -6 0 -2 -7 9 -14 58 -9 64 7 4
14 -4 14 -33 3z"/>
<path d="M5620 514 c0 -19 12 -24 31 -13 13 6 19 6 19 -1 0 -5 5 -10 11 -10 5
0 8 4 5 9 -3 5 1 11 8 14 8 3 16 1 19 -6 2 -6 6 -4 10 5 5 15 -2 17 -49 15
-31 -1 -54 -7 -54 -13z"/>
<path d="M5780 521 c0 -18 15 -19 40 -5 l25 13 -32 1 c-18 0 -33 -4 -33 -9z"/>
<path d="M5860 519 c0 -5 5 -7 10 -4 6 3 10 8 10 11 0 2 -4 4 -10 4 -5 0 -10
-5 -10 -11z"/>
<path d="M5925 519 c-20 -8 -19 -8 90 -13 17 0 36 -5 43 -9 7 -5 18 -2 27 6
13 13 6 15 -55 15 -37 0 -72 2 -77 5 -4 2 -17 1 -28 -4z"/>
<path d="M58 513 c7 -3 16 -2 19 1 4 3 -2 6 -13 5 -11 0 -14 -3 -6 -6z"/>
<path d="M130 505 c7 -9 16 -12 19 -8 3 4 17 9 31 11 20 2 22 1 10 -7 -12 -9
-12 -11 6 -11 12 0 21 6 21 15 0 11 -13 15 -50 15 -43 0 -48 -2 -37 -15z"/>
<path d="M310 510 c0 -12 34 -12 70 0 20 7 16 8 -22 9 -27 1 -48 -3 -48 -9z"/>
<path d="M414 513 c7 -7 87 -5 95 3 2 2 -20 4 -49 4 -29 0 -50 -3 -46 -7z"/>
<path d="M593 513 c9 -2 25 -2 35 0 9 3 1 5 -18 5 -19 0 -27 -2 -17 -5z"/>
<path d="M2270 510 c-8 -5 -10 -10 -5 -10 6 0 17 5 25 10 8 5 11 10 5 10 -5 0
-17 -5 -25 -10z"/>
<path d="M4083 507 c5 -17 21 -19 41 -4 17 13 16 14 -13 15 -20 0 -31 -4 -28
-11z"/>
<path d="M5563 505 c-17 -18 -16 -25 1 -25 7 0 16 9 19 20 6 23 -3 25 -20 5z"/>
<path d="M6128 513 c7 -3 16 -2 19 1 4 3 -2 6 -13 5 -11 0 -14 -3 -6 -6z"/>
<path d="M6230 495 c0 -14 3 -16 8 -8 4 7 24 14 44 15 47 4 38 13 -13 13 -32
0 -39 -3 -39 -20z"/>
<path d="M4567 496 c-4 -10 -5 -21 -2 -24 9 -9 17 6 13 25 -3 17 -4 17 -11 -1z"/>
<path d="M3537 493 c-13 -13 -7 -21 13 -16 11 3 17 9 14 14 -6 11 -18 12 -27
2z"/>
<path d="M6166 491 c-6 -9 35 -24 43 -15 6 5 -18 24 -31 24 -4 0 -9 -4 -12 -9z"/>
<path d="M3298 483 c12 -2 30 -2 40 0 9 3 -1 5 -23 4 -22 0 -30 -2 -17 -4z"/>
<path d="M3468 483 c6 -2 18 -2 25 0 6 3 1 5 -13 5 -14 0 -19 -2 -12 -5z"/>
<path d="M3780 479 c0 -5 9 -9 20 -9 11 0 20 2 20 4 0 2 -9 6 -20 9 -11 3 -20
1 -20 -4z"/>
<path d="M4256 482 c-2 -4 4 -9 15 -9 11 -1 17 2 14 8 -7 11 -22 12 -29 1z"/>
<path d="M5278 463 c6 -2 18 -2 25 0 6 3 1 5 -13 5 -14 0 -19 -2 -12 -5z"/>
<path d="M5508 453 c6 -2 18 -2 25 0 6 3 1 5 -13 5 -14 0 -19 -2 -12 -5z"/>
<path d="M6480 440 c-9 -6 -10 -10 -3 -10 6 0 14 -8 16 -17 3 -11 5 -7 6 10 1
30 1 30 -19 17z"/>
<path d="M6411 408 c0 -10 -9 -18 -18 -18 -16 0 -16 2 -3 11 12 9 11 9 -5 3
-11 -4 -54 -8 -95 -10 -41 -1 -80 -3 -87 -3 -18 -1 28 -47 56 -56 16 -5 21 -4
17 4 -4 6 0 11 8 11 9 0 16 5 16 10 0 6 7 10 15 10 8 0 15 -4 15 -9 0 -5 10
-13 23 -17 21 -8 21 -8 -8 -15 -21 -4 -6 -7 47 -8 42 0 83 -4 92 -7 10 -4 16
-1 16 9 0 8 -6 18 -12 20 -10 4 -10 6 0 6 6 1 12 10 12 21 0 17 -7 20 -39 20
-29 0 -41 5 -44 18 -4 16 -5 16 -6 0z m-147 -37 c4 -5 -3 -7 -14 -4 -23 6 -26
13 -6 13 8 0 17 -4 20 -9z m209 -16 c-3 -9 -8 -14 -10 -11 -3 3 -2 9 2 15 9
16 15 13 8 -4z"/>
<path d="M2285 380 c-3 -5 1 -10 9 -10 9 0 16 5 16 10 0 6 -4 10 -9 10 -6 0
-13 -4 -16 -10z"/>
<path d="M4160 339 c0 -5 5 -7 10 -4 6 3 10 8 10 11 0 2 -4 4 -10 4 -5 0 -10
-5 -10 -11z"/>
<path d="M6143 343 c9 -2 25 -2 35 0 9 3 1 5 -18 5 -19 0 -27 -2 -17 -5z"/>
<path d="M6428 283 c6 -2 18 -2 25 0 6 3 1 5 -13 5 -14 0 -19 -2 -12 -5z"/>
<path d="M6460 265 c-11 -13 -8 -15 14 -15 16 0 26 5 26 15 0 8 -6 15 -14 15
-7 0 -19 -7 -26 -15z"/>
<path d="M6430 226 c0 -2 7 -6 15 -10 8 -3 15 -1 15 4 0 6 -7 10 -15 10 -8 0
-15 -2 -15 -4z"/>
<path d="M1198 163 c6 -2 18 -2 25 0 6 3 1 5 -13 5 -14 0 -19 -2 -12 -5z"/>
<path d="M1242 159 c2 -6 8 -10 13 -10 5 0 11 4 13 10 2 6 -4 11 -13 11 -9 0
-15 -5 -13 -11z"/>
<path d="M2118 163 c7 -3 16 -2 19 1 4 3 -2 6 -13 5 -11 0 -14 -3 -6 -6z"/>
<path d="M950 149 c0 -5 5 -7 10 -4 6 3 10 8 10 11 0 2 -4 4 -10 4 -5 0 -10
-5 -10 -11z"/>
<path d="M2058 153 c7 -3 16 -2 19 1 4 3 -2 6 -13 5 -11 0 -14 -3 -6 -6z"/>
</g>
</svg>
