<?xml version="1.0" encoding="utf-8"?>
<!-- Generator: Adobe Illustrator 17.1.0, SVG Export Plug-In . SVG Version: 6.00 Build 0)  -->
<!DOCTYPE svg PUBLIC "-//W3C//DTD SVG 1.1//EN" "http://www.w3.org/Graphics/SVG/1.1/DTD/svg11.dtd">
<svg version="1.1" id="Layer_1" xmlns="http://www.w3.org/2000/svg" xmlns:xlink="http://www.w3.org/1999/xlink" x="0px" y="0px"
	 viewBox="0 0 547.627 448.604" enable-background="new 0 0 547.627 448.604" xml:space="preserve">
<g>
	<circle fill="#595A5C" cx="27.965" cy="344.029" r="10.225"/>
	<path fill="#595A5C" d="M28.353,407.585h-0.777c-9.707,0-17.577-7.869-17.577-17.577v-22.362c0-5.801,4.702-10.503,10.503-10.503
		h14.924c5.801,0,10.503,4.702,10.503,10.503v22.362C45.93,399.715,38.061,407.585,28.353,407.585z"/>
	<path fill="#595A5C" d="M31.855,448.604h-7.78c-3.498,0-6.334-2.836-6.334-6.334v-59.906H38.19v59.906
		C38.19,445.768,35.354,448.604,31.855,448.604z"/>
</g>
<g>
	<circle fill="#595A5C" cx="90.552" cy="344.029" r="10.225"/>
	<path fill="#595A5C" d="M90.941,407.585h-0.777c-9.707,0-17.577-7.869-17.577-17.577v-22.362c0-5.801,4.702-10.503,10.503-10.503
		h14.924c5.801,0,10.503,4.702,10.503,10.503v22.362C108.517,399.715,100.648,407.585,90.941,407.585z"/>
	<path fill="#595A5C" d="M94.442,448.604h-7.78c-3.498,0-6.334-2.836-6.334-6.334v-59.906h20.449v59.906
		C100.777,445.768,97.941,448.604,94.442,448.604z"/>
</g>
<g>
	<circle fill="#595A5C" cx="153.139" cy="344.029" r="10.225"/>
	<path fill="#595A5C" d="M153.528,407.585h-0.777c-9.707,0-17.577-7.869-17.577-17.577v-22.362c0-5.801,4.702-10.503,10.503-10.503
		h14.924c5.801,0,10.503,4.702,10.503,10.503v22.362C171.104,399.715,163.235,407.585,153.528,407.585z"/>
	<path fill="#595A5C" d="M157.029,448.604h-7.78c-3.498,0-6.334-2.836-6.334-6.334v-59.906h20.449v59.906
		C163.364,445.768,160.528,448.604,157.029,448.604z"/>
</g>
<g>
	<circle fill="#595A5C" cx="215.726" cy="344.029" r="10.225"/>
	<path fill="#595A5C" d="M216.115,407.585h-0.777c-9.707,0-17.577-7.869-17.577-17.577v-22.362c0-5.801,4.702-10.503,10.503-10.503
		h14.924c5.801,0,10.503,4.702,10.503,10.503v22.362C233.691,399.715,225.822,407.585,216.115,407.585z"/>
	<path fill="#595A5C" d="M219.617,448.604h-7.78c-3.498,0-6.334-2.836-6.334-6.334v-59.906h20.449v59.906
		C225.951,445.768,223.115,448.604,219.617,448.604z"/>
</g>
<g>
	<circle fill="#595A5C" cx="278.313" cy="344.029" r="10.225"/>
	<path fill="#595A5C" d="M278.702,407.585h-0.777c-9.707,0-17.577-7.869-17.577-17.577v-22.362c0-5.801,4.702-10.503,10.503-10.503
		h14.924c5.801,0,10.503,4.702,10.503,10.503v22.362C296.278,399.715,288.409,407.585,278.702,407.585z"/>
	<path fill="#595A5C" d="M282.204,448.604h-7.78c-3.498,0-6.334-2.836-6.334-6.334v-59.906h20.449v59.906
		C288.538,445.768,285.702,448.604,282.204,448.604z"/>
</g>
<g>
	<circle fill="#595A5C" cx="340.901" cy="344.029" r="10.225"/>
	<path fill="#595A5C" d="M341.289,407.585h-0.777c-9.707,0-17.577-7.869-17.577-17.577v-22.362c0-5.801,4.702-10.503,10.503-10.503
		h14.924c5.801,0,10.503,4.702,10.503,10.503v22.362C358.866,399.715,350.996,407.585,341.289,407.585z"/>
	<path fill="#595A5C" d="M344.791,448.604h-7.78c-3.498,0-6.334-2.836-6.334-6.334v-59.906h20.449v59.906
		C351.125,445.768,348.289,448.604,344.791,448.604z"/>
</g>
<g>
	<circle fill="#595A5C" cx="403.488" cy="344.029" r="10.225"/>
	<path fill="#595A5C" d="M403.876,407.585h-0.777c-9.707,0-17.577-7.869-17.577-17.577v-22.362c0-5.801,4.702-10.503,10.503-10.503
		h14.924c5.801,0,10.503,4.702,10.503,10.503v22.362C421.453,399.715,413.583,407.585,403.876,407.585z"/>
	<path fill="#595A5C" d="M407.378,448.604h-7.78c-3.498,0-6.334-2.836-6.334-6.334v-59.906h20.449v59.906
		C413.712,445.768,410.876,448.604,407.378,448.604z"/>
</g>
<g>
	<circle fill="#595A5C" cx="466.075" cy="344.029" r="10.225"/>
	<path fill="#595A5C" d="M466.463,407.585h-0.777c-9.707,0-17.577-7.869-17.577-17.577v-22.362c0-5.801,4.702-10.503,10.503-10.503
		h14.924c5.801,0,10.503,4.702,10.503,10.503v22.362C484.04,399.715,476.17,407.585,466.463,407.585z"/>
	<path fill="#595A5C" d="M469.965,448.604h-7.78c-3.498,0-6.334-2.836-6.334-6.334v-59.906h20.449v59.906
		C476.299,445.768,473.463,448.604,469.965,448.604z"/>
</g>
<g>
	<circle fill="#595A5C" cx="528.662" cy="344.029" r="10.225"/>
	<path fill="#595A5C" d="M529.05,407.585h-0.777c-9.707,0-17.577-7.869-17.577-17.577v-22.362c0-5.801,4.702-10.503,10.503-10.503
		h14.924c5.801,0,10.503,4.702,10.503,10.503v22.362C546.627,399.715,538.758,407.585,529.05,407.585z"/>
	<path fill="#595A5C" d="M532.552,448.604h-7.78c-3.498,0-6.334-2.836-6.334-6.334v-59.906h20.449v59.906
		C538.886,445.768,536.05,448.604,532.552,448.604z"/>
</g>
<g>
	<path fill="#6E6F72" d="M100.274,214.295l158.069,40.624c-2.479-4.621-3.627-10.018-2.977-15.622
		c0.669-5.774,3.145-10.897,6.79-14.881l-161.405-14.235C98.189,210.084,97.758,213.804,100.274,214.295z"/>
	<path fill="#6E6F72" d="M295.126,211.632c13.638,5.909,21.651,19.807,19.939,34.583c-2.126,18.341-18.777,31.534-37.118,29.408
		c-3.278-0.38-6.464-1.233-9.469-2.535c-13.639-5.909-21.652-19.807-19.939-34.583c2.125-18.341,18.776-31.534,37.118-29.408
		C288.935,209.477,292.121,210.33,295.126,211.632z M273.942,260.476c1.768,0.766,3.648,1.268,5.587,1.493
		c10.812,1.253,20.629-6.524,21.882-17.337c0.994-8.576-3.838-16.96-11.749-20.388c-1.768-0.766-3.648-1.269-5.587-1.494
		c-10.812-1.253-20.628,6.524-21.881,17.336C261.199,248.664,266.03,257.048,273.942,260.476z"/>
	<g>
		<path fill="#EC2227" d="M448.205,126.612c27.629,32.721,44.74,72.186,49.714,114.471h23.249
			c-5.081-47.818-24.156-92.475-55.313-129.375L448.205,126.612z"/>
		<path fill="#6E6F72" d="M27.333,241.083c6.243-62.374,35.129-120.069,81.528-162.706c47.323-43.486,108.806-67.435,173.122-67.435
			c64.316,0,125.799,23.949,173.122,67.435c46.399,42.637,75.285,100.331,81.528,162.706h10.993
			c-6.282-65.467-36.466-126.057-85.117-170.763C413.162,24.974,349.05,0,281.984,0c-67.066,0-131.178,24.974-180.526,70.32
			c-48.651,44.706-78.835,105.296-85.117,170.763H27.333z"/>
		<path fill="#6E6F72" d="M378.257,46.308c-30.42-13.299-62.811-20.042-96.273-20.042c-60.45,0-118.238,22.51-162.719,63.385
			c-43.233,39.727-70.287,93.374-76.467,151.432h23.251c6.076-51.525,30.371-99.067,68.847-134.422
			c40.206-36.947,92.443-57.294,147.088-57.294c30.258,0,59.536,6.092,87.019,18.108c26.555,11.61,50.213,28.177,70.315,49.24
			l16.712-15.949C433.802,77.474,407.635,59.152,378.257,46.308z"/>
	</g>
</g>
<g>
</g>
<g>
</g>
<g>
</g>
<g>
</g>
<g>
</g>
<g>
</g>
</svg>
