<?xml version="1.0" encoding="utf-8"?>
<!-- Generator: Adobe Illustrator 17.1.0, SVG Export Plug-In . SVG Version: 6.00 Build 0)  -->
<!DOCTYPE svg PUBLIC "-//W3C//DTD SVG 1.1//EN" "http://www.w3.org/Graphics/SVG/1.1/DTD/svg11.dtd">
<svg version="1.1" id="Layer_1" xmlns="http://www.w3.org/2000/svg" xmlns:xlink="http://www.w3.org/1999/xlink" x="0px" y="0px"
	 viewBox="0 0 537.627 584.604" enable-background="new 0 0 537.627 584.604" xml:space="preserve">
<g>
	<g>
		<circle fill="#595A5C" cx="17.965" cy="344.029" r="10.225"/>
		<path fill="#595A5C" d="M18.353,407.585h-0.777C7.869,407.585,0,399.715,0,390.008v-22.362c0-5.801,4.702-10.503,10.503-10.503
			h14.924c5.801,0,10.503,4.702,10.503,10.503v22.362C35.93,399.715,28.061,407.585,18.353,407.585z"/>
		<path fill="#595A5C" d="M21.855,448.604h-7.78c-3.498,0-6.334-2.836-6.334-6.334v-59.906H28.19v59.906
			C28.19,445.768,25.354,448.604,21.855,448.604z"/>
	</g>
	<g>
		<circle fill="#595A5C" cx="80.552" cy="344.029" r="10.225"/>
		<path fill="#595A5C" d="M80.941,407.585h-0.777c-9.707,0-17.577-7.869-17.577-17.577v-22.362c0-5.801,4.702-10.503,10.503-10.503
			h14.924c5.801,0,10.503,4.702,10.503,10.503v22.362C98.517,399.715,90.648,407.585,80.941,407.585z"/>
		<path fill="#595A5C" d="M84.442,448.604h-7.78c-3.498,0-6.334-2.836-6.334-6.334v-59.906h20.449v59.906
			C90.777,445.768,87.941,448.604,84.442,448.604z"/>
	</g>
	<g>
		<circle fill="#595A5C" cx="143.139" cy="344.029" r="10.225"/>
		<path fill="#595A5C" d="M143.528,407.585h-0.777c-9.707,0-17.577-7.869-17.577-17.577v-22.362c0-5.801,4.702-10.503,10.503-10.503
			h14.924c5.801,0,10.503,4.702,10.503,10.503v22.362C161.104,399.715,153.235,407.585,143.528,407.585z"/>
		<path fill="#595A5C" d="M147.029,448.604h-7.78c-3.498,0-6.334-2.836-6.334-6.334v-59.906h20.449v59.906
			C153.364,445.768,150.528,448.604,147.029,448.604z"/>
	</g>
	<g>
		<circle fill="#595A5C" cx="205.726" cy="344.029" r="10.225"/>
		<path fill="#595A5C" d="M206.115,407.585h-0.777c-9.707,0-17.577-7.869-17.577-17.577v-22.362c0-5.801,4.702-10.503,10.503-10.503
			h14.924c5.801,0,10.503,4.702,10.503,10.503v22.362C223.691,399.715,215.822,407.585,206.115,407.585z"/>
		<path fill="#595A5C" d="M209.617,448.604h-7.78c-3.498,0-6.334-2.836-6.334-6.334v-59.906h20.449v59.906
			C215.951,445.768,213.115,448.604,209.617,448.604z"/>
	</g>
	<g>
		<circle fill="#595A5C" cx="268.313" cy="344.029" r="10.225"/>
		<path fill="#595A5C" d="M268.702,407.585h-0.777c-9.707,0-17.577-7.869-17.577-17.577v-22.362c0-5.801,4.702-10.503,10.503-10.503
			h14.924c5.801,0,10.503,4.702,10.503,10.503v22.362C286.278,399.715,278.409,407.585,268.702,407.585z"/>
		<path fill="#595A5C" d="M272.204,448.604h-7.78c-3.498,0-6.334-2.836-6.334-6.334v-59.906h20.449v59.906
			C278.538,445.768,275.702,448.604,272.204,448.604z"/>
	</g>
	<g>
		<circle fill="#595A5C" cx="330.901" cy="344.029" r="10.225"/>
		<path fill="#595A5C" d="M331.289,407.585h-0.777c-9.707,0-17.577-7.869-17.577-17.577v-22.362c0-5.801,4.702-10.503,10.503-10.503
			h14.924c5.801,0,10.503,4.702,10.503,10.503v22.362C348.866,399.715,340.996,407.585,331.289,407.585z"/>
		<path fill="#595A5C" d="M334.791,448.604h-7.78c-3.498,0-6.334-2.836-6.334-6.334v-59.906h20.449v59.906
			C341.125,445.768,338.289,448.604,334.791,448.604z"/>
	</g>
	<g>
		<circle fill="#595A5C" cx="393.488" cy="344.029" r="10.225"/>
		<path fill="#595A5C" d="M393.876,407.585h-0.777c-9.707,0-17.577-7.869-17.577-17.577v-22.362c0-5.801,4.702-10.503,10.503-10.503
			h14.924c5.801,0,10.503,4.702,10.503,10.503v22.362C411.453,399.715,403.583,407.585,393.876,407.585z"/>
		<path fill="#595A5C" d="M397.378,448.604h-7.78c-3.498,0-6.334-2.836-6.334-6.334v-59.906h20.449v59.906
			C403.712,445.768,400.876,448.604,397.378,448.604z"/>
	</g>
	<g>
		<circle fill="#595A5C" cx="456.075" cy="344.029" r="10.225"/>
		<path fill="#595A5C" d="M456.463,407.585h-0.777c-9.707,0-17.577-7.869-17.577-17.577v-22.362c0-5.801,4.702-10.503,10.503-10.503
			h14.924c5.801,0,10.503,4.702,10.503,10.503v22.362C474.04,399.715,466.17,407.585,456.463,407.585z"/>
		<path fill="#595A5C" d="M459.965,448.604h-7.78c-3.498,0-6.334-2.836-6.334-6.334v-59.906h20.449v59.906
			C466.299,445.768,463.463,448.604,459.965,448.604z"/>
	</g>
	<g>
		<circle fill="#595A5C" cx="518.662" cy="344.029" r="10.225"/>
		<path fill="#595A5C" d="M519.05,407.585h-0.777c-9.707,0-17.577-7.869-17.577-17.577v-22.362c0-5.801,4.702-10.503,10.503-10.503
			h14.924c5.801,0,10.503,4.702,10.503,10.503v22.362C536.627,399.715,528.758,407.585,519.05,407.585z"/>
		<path fill="#595A5C" d="M522.552,448.604h-7.78c-3.498,0-6.334-2.836-6.334-6.334v-59.906h20.449v59.906
			C528.886,445.768,526.05,448.604,522.552,448.604z"/>
	</g>
</g>
<g>
	<g>
		<circle fill="#595A5C" cx="17.965" cy="480.029" r="10.225"/>
		<path fill="#595A5C" d="M18.353,543.585h-0.777C7.869,543.585,0,535.715,0,526.008v-22.362c0-5.801,4.702-10.503,10.503-10.503
			h14.924c5.801,0,10.503,4.702,10.503,10.503v22.362C35.93,535.715,28.061,543.585,18.353,543.585z"/>
		<path fill="#595A5C" d="M21.855,584.604h-7.78c-3.498,0-6.334-2.836-6.334-6.334v-59.906H28.19v59.906
			C28.19,581.768,25.354,584.604,21.855,584.604z"/>
	</g>
	<g>
		<circle fill="#595A5C" cx="80.552" cy="480.029" r="10.225"/>
		<path fill="#595A5C" d="M80.941,543.585h-0.777c-9.707,0-17.577-7.869-17.577-17.577v-22.362c0-5.801,4.702-10.503,10.503-10.503
			h14.924c5.801,0,10.503,4.702,10.503,10.503v22.362C98.517,535.715,90.648,543.585,80.941,543.585z"/>
		<path fill="#595A5C" d="M84.442,584.604h-7.78c-3.498,0-6.334-2.836-6.334-6.334v-59.906h20.449v59.906
			C90.777,581.768,87.941,584.604,84.442,584.604z"/>
	</g>
	<g>
		<circle fill="#595A5C" cx="143.139" cy="480.029" r="10.225"/>
		<path fill="#595A5C" d="M143.528,543.585h-0.777c-9.707,0-17.577-7.869-17.577-17.577v-22.362c0-5.801,4.702-10.503,10.503-10.503
			h14.924c5.801,0,10.503,4.702,10.503,10.503v22.362C161.104,535.715,153.235,543.585,143.528,543.585z"/>
		<path fill="#595A5C" d="M147.029,584.604h-7.78c-3.498,0-6.334-2.836-6.334-6.334v-59.906h20.449v59.906
			C153.364,581.768,150.528,584.604,147.029,584.604z"/>
	</g>
	<g>
		<circle fill="#595A5C" cx="205.726" cy="480.029" r="10.225"/>
		<path fill="#595A5C" d="M206.115,543.585h-0.777c-9.707,0-17.577-7.869-17.577-17.577v-22.362c0-5.801,4.702-10.503,10.503-10.503
			h14.924c5.801,0,10.503,4.702,10.503,10.503v22.362C223.691,535.715,215.822,543.585,206.115,543.585z"/>
		<path fill="#595A5C" d="M209.617,584.604h-7.78c-3.498,0-6.334-2.836-6.334-6.334v-59.906h20.449v59.906
			C215.951,581.768,213.115,584.604,209.617,584.604z"/>
	</g>
	<g>
		<circle fill="#595A5C" cx="268.313" cy="480.029" r="10.225"/>
		<path fill="#595A5C" d="M268.702,543.585h-0.777c-9.707,0-17.577-7.869-17.577-17.577v-22.362c0-5.801,4.702-10.503,10.503-10.503
			h14.924c5.801,0,10.503,4.702,10.503,10.503v22.362C286.278,535.715,278.409,543.585,268.702,543.585z"/>
		<path fill="#595A5C" d="M272.204,584.604h-7.78c-3.498,0-6.334-2.836-6.334-6.334v-59.906h20.449v59.906
			C278.538,581.768,275.702,584.604,272.204,584.604z"/>
	</g>
	<g>
		<circle fill="#595A5C" cx="330.901" cy="480.029" r="10.225"/>
		<path fill="#595A5C" d="M331.289,543.585h-0.777c-9.707,0-17.577-7.869-17.577-17.577v-22.362c0-5.801,4.702-10.503,10.503-10.503
			h14.924c5.801,0,10.503,4.702,10.503,10.503v22.362C348.866,535.715,340.996,543.585,331.289,543.585z"/>
		<path fill="#595A5C" d="M334.791,584.604h-7.78c-3.498,0-6.334-2.836-6.334-6.334v-59.906h20.449v59.906
			C341.125,581.768,338.289,584.604,334.791,584.604z"/>
	</g>
	<g>
		<circle fill="#595A5C" cx="393.488" cy="480.029" r="10.225"/>
		<path fill="#595A5C" d="M393.876,543.585h-0.777c-9.707,0-17.577-7.869-17.577-17.577v-22.362c0-5.801,4.702-10.503,10.503-10.503
			h14.924c5.801,0,10.503,4.702,10.503,10.503v22.362C411.453,535.715,403.583,543.585,393.876,543.585z"/>
		<path fill="#595A5C" d="M397.378,584.604h-7.78c-3.498,0-6.334-2.836-6.334-6.334v-59.906h20.449v59.906
			C403.712,581.768,400.876,584.604,397.378,584.604z"/>
	</g>
	<g>
		<circle fill="#595A5C" cx="456.075" cy="480.029" r="10.225"/>
		<path fill="#595A5C" d="M456.463,543.585h-0.777c-9.707,0-17.577-7.869-17.577-17.577v-22.362c0-5.801,4.702-10.503,10.503-10.503
			h14.924c5.801,0,10.503,4.702,10.503,10.503v22.362C474.04,535.715,466.17,543.585,456.463,543.585z"/>
		<path fill="#595A5C" d="M459.965,584.604h-7.78c-3.498,0-6.334-2.836-6.334-6.334v-59.906h20.449v59.906
			C466.299,581.768,463.463,584.604,459.965,584.604z"/>
	</g>
	<g>
		<circle fill="#595A5C" cx="518.662" cy="480.029" r="10.225"/>
		<path fill="#595A5C" d="M519.05,543.585h-0.777c-9.707,0-17.577-7.869-17.577-17.577v-22.362c0-5.801,4.702-10.503,10.503-10.503
			h14.924c5.801,0,10.503,4.702,10.503,10.503v22.362C536.627,535.715,528.758,543.585,519.05,543.585z"/>
		<path fill="#595A5C" d="M522.552,584.604h-7.78c-3.498,0-6.334-2.836-6.334-6.334v-59.906h20.449v59.906
			C528.886,581.768,526.05,584.604,522.552,584.604z"/>
	</g>
</g>
<g>
	<path fill="#6E6F72" d="M452.592,212.058l-162.806,11.42c3.813,3.601,6.607,8.358,7.762,13.88c1.19,5.69,0.461,11.332-1.738,16.265
		l157.63-37.511C455.9,215.395,455.133,211.729,452.592,212.058z"/>
	<path fill="#6E6F72" d="M268.57,276.172c-14.807-1.295-26.802-11.948-29.848-26.508c-3.781-18.073,7.847-35.852,25.92-39.633
		c3.23-0.676,6.522-0.873,9.785-0.588c14.807,1.295,26.802,11.949,29.848,26.508c3.781,18.073-7.847,35.852-25.92,39.633
		C275.125,276.26,271.833,276.458,268.57,276.172z M273.23,223.137c-1.92-0.168-3.862-0.05-5.772,0.349
		c-10.654,2.229-17.509,12.71-15.28,23.364c1.768,8.451,9.001,14.877,17.591,15.629c1.92,0.168,3.862,0.05,5.773-0.349
		c10.654-2.229,17.508-12.71,15.28-23.364C289.053,230.315,281.82,223.888,273.23,223.137z"/>
	<g>
		<path fill="#EC2227" d="M438.205,126.612c27.629,32.721,44.74,72.186,49.714,114.471h23.249
			c-5.081-47.818-24.156-92.475-55.313-129.375L438.205,126.612z"/>
		<path fill="#6E6F72" d="M17.333,241.083c6.243-62.374,35.129-120.069,81.528-162.706c47.323-43.486,108.806-67.435,173.122-67.435
			c64.316,0,125.799,23.949,173.122,67.435c46.399,42.637,75.285,100.331,81.528,162.706h10.993
			c-6.282-65.467-36.466-126.057-85.117-170.763C403.162,24.974,339.05,0,271.984,0C204.918,0,140.806,24.974,91.458,70.32
			C42.807,115.026,12.623,175.616,6.341,241.083H17.333z"/>
		<path fill="#6E6F72" d="M368.257,46.308c-30.42-13.299-62.811-20.042-96.273-20.042c-60.45,0-118.238,22.51-162.719,63.385
			c-43.233,39.727-70.287,93.374-76.467,151.432h23.251c6.076-51.525,30.371-99.067,68.847-134.422
			c40.206-36.947,92.443-57.294,147.088-57.294c30.258,0,59.536,6.092,87.019,18.108c26.555,11.61,50.213,28.177,70.315,49.24
			l16.712-15.949C423.802,77.474,397.635,59.152,368.257,46.308z"/>
	</g>
</g>
<g>
</g>
<g>
</g>
<g>
</g>
<g>
</g>
<g>
</g>
<g>
</g>
</svg>
