<?xml version="1.0" encoding="UTF-8" standalone="no"?>
<svg width="1024px" height="406px" viewBox="0 0 1024 406" version="1.1" xmlns="http://www.w3.org/2000/svg" xmlns:xlink="http://www.w3.org/1999/xlink" xmlns:sketch="http://www.bohemiancoding.com/sketch/ns">
    <!-- Generator: Sketch 3.4.4 (17249) - http://www.bohemiancoding.com/sketch -->
    <title>Desktop Copy</title>
    <desc>Created with Sketch.</desc>
    <defs></defs>
    <g id="Page-1" stroke="none" stroke-width="1" fill="none" fill-rule="evenodd" sketch:type="MSPage">
        <g id="Desktop-Copy" sketch:type="MSArtboardGroup">
            <g id="Speech-Bubble-Thought" sketch:type="MSLayerGroup" transform="translate(454.000000, 37.000000)" fill="#2D2E2B">
                <path d="M260.46073,134.6224 C258.103688,140.835272 254.12618,144.674239 248.759701,148.473326 C246.297434,150.217548 242.972321,151.308998 240.089154,152.062519 C237.984652,152.610343 236.132691,152.526385 234.322819,153.890698 C234.112369,154.056515 233.922964,154.24542 233.775649,154.436424 C232.239363,154.415434 230.682032,155.441817 230.892482,157.20493 C231.629057,163.501759 232.618173,169.275952 228.24081,174.565289 C224.389572,179.243833 218.433832,182.119385 212.667498,183.525677 C207.048478,184.892089 201.345279,184.577248 195.915665,182.728079 C191.727706,181.302896 185.119571,178.57427 183.015069,174.458243 C182.341629,173.156898 180.847433,172.967993 179.647867,173.45075 C178.258896,172.884035 176.63843,173.198877 175.691404,175.006067 C170.156564,185.477694 161.443928,192.698059 148.985278,190.727151 C143.660889,189.887574 138.42068,188.586229 133.874956,185.62462 C130.255213,183.275903 125.96203,178.509203 125.120229,174.18538 C124.930824,173.240856 124.278429,172.71612 123.499763,172.527215 C122.889458,171.353906 121.542577,170.554208 120.00629,170.932018 C116.070872,171.899631 112.66158,174.017465 108.831387,175.318809 C104.096258,176.914006 99.9082997,176.347291 95.4257112,174.397373 C88.1651805,171.20698 82.6303412,160.689175 84.6296178,152.883206 C85.0715631,151.117994 83.4300518,149.921597 81.9989907,150.217548 C81.2413701,149.377971 80.0628492,148.851136 78.6949232,149.103009 C76.0011611,149.564777 73.4336691,150.9081 70.739907,151.180963 C67.2253892,151.537783 64.4684921,151.222942 60.9960644,150.404354 C54.5562893,148.893115 49.4423503,144.27544 46.1803728,138.629283 C43.3182506,133.675777 45.3175271,122.656325 50.3893761,118.164587 C50.6208713,118.185576 50.8523664,118.229654 51.1049066,118.250643 C52.6832829,118.334601 53.6513536,117.453045 53.9880739,116.319616 C54.3247942,116.256647 54.6825594,116.212569 55.0403247,116.212569 C56.5134759,116.19158 56.4503408,114.113626 55.0403247,113.9667 C54.6404694,113.924721 54.2616591,113.903732 53.8618038,113.903732 C53.5250835,113.087243 52.893733,112.392493 51.9467073,112.037771 C46.2014178,109.978708 42.2449547,106.746336 40.5823984,100.743358 C38.772527,94.1736661 41.1506139,85.8429606 48.6426397,84.5605063 C50.6840063,84.203686 50.1999709,81.4120915 48.4953246,80.9734124 C49.4002603,79.9848102 49.8001156,78.4945605 48.958315,77.2351946 C44.9597619,71.2951854 39.9089579,63.592064 43.1498904,56.0988368 C44.6440866,52.658669 49.8632507,49.5102542 53.0620932,47.8290007 C57.3131865,45.6041209 62.4481705,45.1423534 67.0359841,46.3828289 C69.8770613,47.1573389 71.2660324,44.1768396 70.1716915,42.1849425 C70.2979616,41.9519598 70.4031867,41.7000866 70.4663217,41.3852451 C71.3502124,36.8956057 70.9714021,32.2968212 72.2551481,27.8680511 C73.7072543,22.809598 77.9162575,19.1574369 82.7987014,17.564339 C91.5744732,14.6866879 106.095535,16.4099203 111.672464,24.3649149 C113.33502,26.7136323 116.849538,25.2023932 116.618043,22.8515769 C116.807448,22.7067498 116.996853,22.5577248 117.165213,22.3268411 C120.321966,18.4647856 123.205133,14.352956 127.435181,11.580252 C132.00195,8.60185165 137.515744,8.01414756 142.840133,8.38985839 C155.530278,9.31339339 164.242915,18.1730325 168.851773,29.4842373 C169.777754,31.751096 172.808237,31.2053707 172.976597,29.0455582 C173.692127,28.8125755 174.323478,28.3717974 174.702288,27.6182768 C176.97515,23.252475 181.310423,19.9970142 185.519426,17.6273073 C190.31769,14.9595505 198.798832,18.3808279 203.32351,20.4587817 C208.795215,22.9775135 213.109443,29.6122729 215.95052,34.6056587 C218.959958,39.9159849 221.295954,45.0604947 223.274186,50.7255423 C223.042691,52.1969015 223.842401,53.7480205 225.041967,54.5875977 C225.378688,54.8625593 225.757498,55.0283758 226.157353,55.1123335 L226.346758,55.1543124 L226.599298,55.1753018 C227.293784,55.2613585 228.009315,55.0913441 228.7038,54.5875977 C234.764765,50.0958593 241.225585,47.2412966 248.885971,47.5141592 C252.547804,47.6400958 258.461453,50.4526797 260.397595,53.6010944 C261.954926,56.1198263 261.997016,60.0049701 262.775682,62.8364444 C267.153045,78.4106028 256.125456,93.2921099 245.413543,103.22221 C245.034733,103.57903 244.803238,103.99672 244.676968,104.416509 C243.835167,105.256086 243.456357,106.57842 244.235022,107.606902 C247.349685,111.720831 252.316309,111.364011 256.630537,113.693838 C263.301807,117.306119 262.649412,128.829317 260.46073,134.6224 L260.46073,134.6224 Z M253.57901,104.355639 C255.830826,102.592527 257.998463,100.722369 259.892514,98.5625563 C263.112402,94.8663173 265.595714,90.1248047 267.679171,85.7380134 C272.288029,76.0178076 271.319958,66.9083942 269.425907,56.7704986 C268.605151,52.4466757 267.42663,48.668578 264.059428,45.6670892 C260.79745,42.7705476 254.778575,39.9369744 250.422257,39.5612635 C242.067386,38.8665133 234.554315,41.1543614 228.03036,45.8161142 C223.989716,32.2758318 217.044861,17.5412506 203.44978,12.1679561 C196.65224,9.48130885 188.381549,7.4033551 181.520873,10.805742 C177.375005,12.8815968 172.997642,16.0719904 170.535375,20.1859191 C166.115921,9.7562704 157.277014,3.01656386 145.281355,0.581789772 C132.612255,-1.95583253 116.302367,3.85824007 112.409039,17.0375043 C104.369843,9.35537225 91.4271581,7.78116487 80.7152447,10.0270341 C68.8879455,12.5247765 58.8284277,27.9960866 64.0265467,39.580154 C59.8806785,38.8875028 55.6716752,39.3072914 51.588942,40.650615 C46.5802281,42.3087801 39.6353727,46.4436982 36.8574305,51.0634721 C30.7964658,61.0943216 35.2369643,74.5485474 44.0337811,81.2021972 C36.120855,82.8414719 32.4379771,90.8993147 33.0693276,99.3181758 C33.6796331,107.522945 38.8356621,114.848256 46.432913,117.345999 C45.2754371,118.563386 44.2652763,119.990667 43.4234757,121.524995 C41.0874788,125.741771 38.2674466,133.591819 39.1934274,138.461367 C40.7718036,146.752193 47.2536686,153.365963 54.8088295,156.764152 C62.9532509,160.416313 70.9293121,160.374334 78.484473,156.682293 C76.6956466,165.411798 81.6412255,175.069035 88.8596661,180.148478 C97.5512579,186.275293 112.9983,186.75805 120.869136,178.784165 C123.626033,190.829999 137.157979,196.560114 148.438108,198.5751 C161.065117,200.841958 177.05933,193.896555 181.331468,181.132882 C184.256725,184.094491 188.255279,186.088487 191.875021,188.061493 C198.714652,191.797612 207.111613,191.671676 214.519459,190.307363 C229.819186,187.515768 243.456357,173.681634 237.416437,158.403426 C238.468688,158.065496 239.920794,158.29638 240.952,158.319469 C242.677691,158.338359 244.529652,157.645708 246.171164,157.141961 C249.854042,156.010631 252.674074,154.497293 255.788736,152.272413 C262.396871,147.593869 265.700939,142.346511 268.542016,134.956132 C271.319958,127.798736 269.888897,117.115115 265.132724,111.112138 C261.975971,107.145135 258.019508,105.237196 253.57901,104.355639 L253.57901,104.355639 Z" id="Fill-6068" sketch:type="MSShapeGroup"></path>
                <path d="M30.7450241,177.434133 C25.0188464,178.082043 21.3124478,172.024404 22.1245239,167.013066 C22.9157775,162.083502 26.9553356,157.260875 31.8486147,156.862484 C35.3259662,159.672189 39.3030569,160.995266 39.4696366,166.801289 C39.6153939,171.68682 35.6591257,176.867999 30.7450241,177.434133 L30.7450241,177.434133 Z M32.6190459,151.0963 C31.1614734,150.700006 30.0162378,151.580659 29.6414335,152.752767 C17.1479549,153.656486 8.46498732,177.159453 25.4977631,183.177253 C33.9725061,186.177766 41.8433976,180.579325 44.9667672,172.735217 C48.7564557,163.1969 41.5518831,153.656486 32.6190459,151.0963 L32.6190459,151.0963 Z" id="Fill-6069" sketch:type="MSShapeGroup"></path>
                <path d="M11.3667411,200.088477 C10.0243741,201.706439 7.6332829,201.747873 5.9133752,200.712045 C4.00469714,199.549847 4.17249301,196.320136 5.43096206,194.805757 C6.52163524,193.52133 7.96887465,192.879117 9.52098647,192.734102 C11.2408942,195.075072 13.7368578,197.210948 11.3667411,200.088477 L11.3667411,200.088477 Z M14.785582,192.112605 C14.9743524,191.449675 14.827531,190.70388 14.1143985,190.333053 C9.96145064,188.072878 4.57100821,188.611508 1.63458043,192.526936 C-1.02917906,196.110899 -0.399944535,201.683651 3.24961571,204.376803 C6.7104056,206.947727 11.7023328,206.367663 14.6597351,203.32233 C18.078576,199.819162 17.428367,195.406537 14.785582,192.112605 L14.785582,192.112605 Z" id="Fill-6070" sketch:type="MSShapeGroup"></path>
            </g>
            <g id="Speech-Bubble-Thought" sketch:type="MSLayerGroup" transform="translate(207.000000, 174.000000) scale(-1, 1) translate(-207.000000, -174.000000) translate(18.000000, 30.000000)" fill="#2D2E2B">
                <path d="M363.298161,187.388969 C360.010187,196.037037 354.46173,201.380725 346.975717,206.668901 C343.540958,209.096788 338.902566,210.616043 334.880669,211.664913 C331.944977,212.427462 329.361569,212.310597 326.836874,214.209666 C326.543305,214.440476 326.279093,214.703424 326.073594,214.969293 C323.93054,214.940077 321.758128,216.368761 322.051697,218.822942 C323.079189,227.587876 324.458964,235.62532 318.352726,242.987864 C312.980411,249.50021 304.672404,253.502863 296.62861,255.460365 C288.790314,257.362355 280.834591,256.924109 273.260507,254.35014 C267.418481,252.366343 258.20041,248.568205 255.264719,242.83886 C254.325298,241.027441 252.240957,240.764493 250.567613,241.436471 C248.630056,240.647627 246.369574,241.085874 245.048513,243.60141 C237.327645,258.177494 225.173882,268.227951 207.794589,265.484527 C200.36729,264.315869 193.057419,262.50445 186.716325,258.382009 C181.666936,255.112689 175.678126,248.477634 174.503849,242.459047 C174.239637,241.144306 173.329573,240.413895 172.243367,240.150947 C171.392016,238.517748 169.513174,237.404602 167.370119,237.930498 C161.880376,239.277376 157.124556,242.225315 151.781598,244.036735 C145.176293,246.257184 139.334267,245.46834 133.081244,242.754133 C122.953109,238.313233 115.232241,223.672872 118.021147,212.807276 C118.637643,210.350173 116.347803,208.684836 114.351533,209.096788 C113.294684,207.92813 111.650697,207.194797 109.742498,207.545394 C105.984813,208.188156 102.403269,210.058009 98.6455845,210.437823 C93.7429799,210.934502 89.8972242,210.496255 85.0533335,209.356814 C76.0701179,207.25323 68.9363879,200.825612 64.3860663,192.966388 C60.393526,186.071307 63.1824328,170.732673 70.257449,164.480354 C70.580375,164.509571 70.9033011,164.570925 71.2555841,164.600142 C73.4573526,164.717007 74.8077706,163.489917 75.2774812,161.912229 C75.7471918,161.824579 76.2462594,161.763225 76.7453269,161.763225 C78.8003109,161.734008 78.7122401,158.84158 76.7453269,158.637065 C76.1875455,158.578632 75.6591211,158.549416 75.1013397,158.549416 C74.6316291,157.412896 73.7509217,156.445832 72.4298606,155.952074 C64.4154232,153.085941 58.8963234,148.586608 56.5771272,140.230705 C54.0524327,131.085957 57.3697639,119.48995 67.8208252,117.704825 C70.6684458,117.208146 69.9932368,113.322359 67.6153268,112.711735 C68.877674,111.33564 69.4354554,109.261273 68.2611789,107.508286 C62.6833653,99.240032 55.637706,88.5175966 60.1586707,78.0873256 C62.2430116,73.2987503 69.5235261,68.9162835 73.985777,66.5760462 C79.9158736,63.479103 87.0789605,62.8363412 93.4787677,64.5630331 C97.441951,65.64112 99.3795073,61.4923847 97.8529478,58.7197441 C98.0290893,58.3954415 98.1758739,58.0448442 98.2639446,57.6065975 C99.496935,51.3571999 98.9685105,44.9558767 100.759282,38.7912068 C102.784909,31.7500435 108.656292,26.666382 115.467096,24.4488538 C127.708929,20.4432792 147.965199,22.8419493 155.744782,33.9149821 C158.063978,37.1843023 162.966582,35.0807182 162.643656,31.8084764 C162.907868,31.6068829 163.172081,31.3994461 163.406936,31.0780652 C167.810473,25.7022393 171.83237,19.9787377 177.73311,16.1192453 C184.10356,11.9734317 191.795071,11.1553712 199.222371,11.6783456 C216.92459,12.9638692 229.078352,25.2961307 235.507516,41.0408731 C236.79922,44.1962492 241.026616,43.4366216 241.261471,40.4302494 C242.259606,40.1059468 243.140313,39.4924015 243.668738,38.4435311 C246.839285,32.3665105 252.886809,27.8350398 258.758192,24.5365032 C265.451568,20.823093 277.282404,25.5853735 283.59414,28.4778016 C291.226938,31.983775 297.245105,41.2190934 301.208289,48.1696857 C305.406327,55.5614463 308.664945,62.7223971 311.424495,70.6079156 C311.101569,72.6559885 312.217131,74.8150838 313.890475,75.9837416 C314.360186,76.366477 314.88861,76.5972869 315.446392,76.7141527 L315.710604,76.7725856 L316.062887,76.801802 C317.031665,76.9215895 318.0298,76.6849363 318.998578,75.9837416 C327.453369,69.7314223 336.465942,65.7579857 347.151858,66.1377995 C352.259961,66.3130982 360.509254,70.2281019 363.21009,74.6105686 C365.382502,78.1165421 365.441216,83.5245061 366.527422,87.4658045 C372.63366,109.144407 357.250637,129.858867 342.307968,143.681167 C341.779543,144.177846 341.456617,144.759254 341.280476,145.343583 C340.106199,146.51224 339.577775,148.352876 340.663981,149.784482 C345.008804,155.510906 351.937035,155.014226 357.955203,158.257251 C367.261344,163.285402 366.35128,179.32523 363.298161,187.388969 L363.298161,187.388969 Z M353.69845,145.258855 C356.83964,142.804673 359.863402,140.201488 362.505524,137.195116 C366.997132,132.0501 370.461248,125.450105 373.367582,119.343868 C379.796746,105.813732 378.446328,93.1337949 375.804206,79.0222519 C374.659287,73.0036642 373.015299,67.744704 368.318193,63.5667523 C363.767872,59.5348829 355.371794,55.5906628 349.294913,55.0676884 C337.640218,54.1006241 327.1598,57.2852166 318.059157,63.7741891 C312.42263,44.9266603 302.734848,24.4167157 283.770282,16.9373057 C274.287999,13.1976008 262.750732,10.3051727 253.180378,15.0411584 C247.397066,17.9306649 241.290828,22.3715646 237.856069,28.0979878 C231.691117,13.5803362 219.361213,4.19893562 202.627773,0.809827974 C184.954911,-2.72244026 162.203303,5.37051508 156.772274,23.715521 C145.557932,13.0223021 127.503431,10.8310687 112.560762,13.9572283 C96.0621761,17.4339853 82.0295714,38.9694271 89.280729,55.0939832 C83.497417,54.1298405 77.6260343,54.7141694 71.9307931,56.5840219 C64.9438476,58.8921211 55.2560661,64.6477608 51.3809535,71.0783004 C42.9261624,85.0408396 49.1204712,103.768581 61.3916611,113.030194 C50.3534615,115.311999 45.2160017,126.528192 46.0967091,138.246908 C46.9480596,149.667616 54.1405034,159.864156 64.7383492,163.340913 C63.123719,165.035467 61.7145871,167.022185 60.5403106,169.157907 C57.2816932,175.027491 53.3478667,185.954441 54.6395709,192.732657 C56.8413395,204.273153 65.8832689,213.479255 76.4224009,218.209397 C87.7835264,223.293058 98.9097967,223.234626 109.448929,218.095453 C106.953591,230.246572 113.852466,243.689059 123.921887,250.759439 C136.046292,259.287719 157.594267,259.959697 168.573753,248.86037 C172.419508,265.627688 191.296004,273.603777 207.03131,276.408556 C224.645458,279.563932 246.956712,269.89621 252.916166,252.12969 C256.996777,256.25213 262.57459,259.027693 267.623979,261.774038 C277.164976,266.974566 288.878385,266.799267 299.212019,264.900198 C320.554495,261.014411 339.577775,241.757852 331.152341,220.491201 C332.620186,220.020817 334.645813,220.342197 336.084302,220.374336 C338.491569,220.40063 341.074977,219.436488 343.364817,218.735293 C348.502277,217.160527 352.436103,215.054021 356.780926,211.957078 C365.998997,205.444732 370.608032,198.140621 374.571216,187.85351 C378.446328,177.890703 376.450058,163.019532 369.815396,154.663629 C365.411859,149.14172 359.892759,146.485946 353.69845,145.258855 L353.69845,145.258855 Z" id="Fill-6068" sketch:type="MSShapeGroup"></path>
                <path d="M42.6430337,247.84758 C34.626385,248.750726 29.4374269,240.306745 30.5743334,233.321243 C31.6820885,226.44973 37.3374698,219.727281 44.1880606,219.171948 C49.0563527,223.088505 54.6242797,224.932795 54.8574913,233.02604 C55.0615514,239.836173 49.5227759,247.058423 42.6430337,247.84758 L42.6430337,247.84758 Z M45.2666642,211.134236 C43.2260627,210.581826 41.622733,211.809404 41.0980069,213.443251 C23.6071369,214.70298 11.4509822,247.464692 35.2968683,255.85314 C47.1615085,260.035673 58.1807566,252.231786 62.5534741,241.297575 C67.859038,228.001739 57.7726363,214.70298 45.2666642,211.134236 L45.2666642,211.134236 Z" id="Fill-6069" sketch:type="MSShapeGroup"></path>
                <path d="M16.0471639,279.65432 C14.1520575,281.938503 10.7763994,281.996997 8.3482944,280.534652 C5.65369008,278.893901 5.89057837,274.33431 7.66724056,272.196362 C9.20701446,270.383055 11.250176,269.476401 13.4413927,269.271673 C15.8694977,272.576572 19.393211,275.591927 16.0471639,279.65432 L16.0471639,279.65432 Z M20.8737628,268.394266 C21.1402622,267.458365 20.9329849,266.405477 19.9262097,265.881958 C14.0632244,262.691122 6.45318806,263.451541 2.30764296,268.979204 C-1.45295867,274.038917 -0.564627579,281.906331 4.58769277,285.708427 C9.47351378,289.337967 16.5209405,288.519054 20.6960966,284.219761 C25.5226955,279.274111 24.6047534,273.044522 20.8737628,268.394266 L20.8737628,268.394266 Z" id="Fill-6070" sketch:type="MSShapeGroup"></path>
            </g>
            <g id="Speech-Bubble-Thought" sketch:type="MSLayerGroup" transform="translate(892.500000, 205.000000) rotate(-62.000000) translate(-892.500000, -205.000000) translate(757.000000, 101.000000)" fill="#2D2E2B">
                <path d="M260.46073,134.6224 C258.103688,140.835272 254.12618,144.674239 248.759701,148.473326 C246.297434,150.217548 242.972321,151.308998 240.089154,152.062519 C237.984652,152.610343 236.132691,152.526385 234.322819,153.890698 C234.112369,154.056515 233.922964,154.24542 233.775649,154.436424 C232.239363,154.415434 230.682032,155.441817 230.892482,157.20493 C231.629057,163.501759 232.618173,169.275952 228.24081,174.565289 C224.389572,179.243833 218.433832,182.119385 212.667498,183.525677 C207.048478,184.892089 201.345279,184.577248 195.915665,182.728079 C191.727706,181.302896 185.119571,178.57427 183.015069,174.458243 C182.341629,173.156898 180.847433,172.967993 179.647867,173.45075 C178.258896,172.884035 176.63843,173.198877 175.691404,175.006067 C170.156564,185.477694 161.443928,192.698059 148.985278,190.727151 C143.660889,189.887574 138.42068,188.586229 133.874956,185.62462 C130.255213,183.275903 125.96203,178.509203 125.120229,174.18538 C124.930824,173.240856 124.278429,172.71612 123.499763,172.527215 C122.889458,171.353906 121.542577,170.554208 120.00629,170.932018 C116.070872,171.899631 112.66158,174.017465 108.831387,175.318809 C104.096258,176.914006 99.9082997,176.347291 95.4257112,174.397373 C88.1651805,171.20698 82.6303412,160.689175 84.6296178,152.883206 C85.0715631,151.117994 83.4300518,149.921597 81.9989907,150.217548 C81.2413701,149.377971 80.0628492,148.851136 78.6949232,149.103009 C76.0011611,149.564777 73.4336691,150.9081 70.739907,151.180963 C67.2253892,151.537783 64.4684921,151.222942 60.9960644,150.404354 C54.5562893,148.893115 49.4423503,144.27544 46.1803728,138.629283 C43.3182506,133.675777 45.3175271,122.656325 50.3893761,118.164587 C50.6208713,118.185576 50.8523664,118.229654 51.1049066,118.250643 C52.6832829,118.334601 53.6513536,117.453045 53.9880739,116.319616 C54.3247942,116.256647 54.6825594,116.212569 55.0403247,116.212569 C56.5134759,116.19158 56.4503408,114.113626 55.0403247,113.9667 C54.6404694,113.924721 54.2616591,113.903732 53.8618038,113.903732 C53.5250835,113.087243 52.893733,112.392493 51.9467073,112.037771 C46.2014178,109.978708 42.2449547,106.746336 40.5823984,100.743358 C38.772527,94.1736661 41.1506139,85.8429606 48.6426397,84.5605063 C50.6840063,84.203686 50.1999709,81.4120915 48.4953246,80.9734124 C49.4002603,79.9848102 49.8001156,78.4945605 48.958315,77.2351946 C44.9597619,71.2951854 39.9089579,63.592064 43.1498904,56.0988368 C44.6440866,52.658669 49.8632507,49.5102542 53.0620932,47.8290007 C57.3131865,45.6041209 62.4481705,45.1423534 67.0359841,46.3828289 C69.8770613,47.1573389 71.2660324,44.1768396 70.1716915,42.1849425 C70.2979616,41.9519598 70.4031867,41.7000866 70.4663217,41.3852451 C71.3502124,36.8956057 70.9714021,32.2968212 72.2551481,27.8680511 C73.7072543,22.809598 77.9162575,19.1574369 82.7987014,17.564339 C91.5744732,14.6866879 106.095535,16.4099203 111.672464,24.3649149 C113.33502,26.7136323 116.849538,25.2023932 116.618043,22.8515769 C116.807448,22.7067498 116.996853,22.5577248 117.165213,22.3268411 C120.321966,18.4647856 123.205133,14.352956 127.435181,11.580252 C132.00195,8.60185165 137.515744,8.01414756 142.840133,8.38985839 C155.530278,9.31339339 164.242915,18.1730325 168.851773,29.4842373 C169.777754,31.751096 172.808237,31.2053707 172.976597,29.0455582 C173.692127,28.8125755 174.323478,28.3717974 174.702288,27.6182768 C176.97515,23.252475 181.310423,19.9970142 185.519426,17.6273073 C190.31769,14.9595505 198.798832,18.3808279 203.32351,20.4587817 C208.795215,22.9775135 213.109443,29.6122729 215.95052,34.6056587 C218.959958,39.9159849 221.295954,45.0604947 223.274186,50.7255423 C223.042691,52.1969015 223.842401,53.7480205 225.041967,54.5875977 C225.378688,54.8625593 225.757498,55.0283758 226.157353,55.1123335 L226.346758,55.1543124 L226.599298,55.1753018 C227.293784,55.2613585 228.009315,55.0913441 228.7038,54.5875977 C234.764765,50.0958593 241.225585,47.2412966 248.885971,47.5141592 C252.547804,47.6400958 258.461453,50.4526797 260.397595,53.6010944 C261.954926,56.1198263 261.997016,60.0049701 262.775682,62.8364444 C267.153045,78.4106028 256.125456,93.2921099 245.413543,103.22221 C245.034733,103.57903 244.803238,103.99672 244.676968,104.416509 C243.835167,105.256086 243.456357,106.57842 244.235022,107.606902 C247.349685,111.720831 252.316309,111.364011 256.630537,113.693838 C263.301807,117.306119 262.649412,128.829317 260.46073,134.6224 L260.46073,134.6224 Z M253.57901,104.355639 C255.830826,102.592527 257.998463,100.722369 259.892514,98.5625563 C263.112402,94.8663173 265.595714,90.1248047 267.679171,85.7380134 C272.288029,76.0178076 271.319958,66.9083942 269.425907,56.7704986 C268.605151,52.4466757 267.42663,48.668578 264.059428,45.6670892 C260.79745,42.7705476 254.778575,39.9369744 250.422257,39.5612635 C242.067386,38.8665133 234.554315,41.1543614 228.03036,45.8161142 C223.989716,32.2758318 217.044861,17.5412506 203.44978,12.1679561 C196.65224,9.48130885 188.381549,7.4033551 181.520873,10.805742 C177.375005,12.8815968 172.997642,16.0719904 170.535375,20.1859191 C166.115921,9.7562704 157.277014,3.01656386 145.281355,0.581789772 C132.612255,-1.95583253 116.302367,3.85824007 112.409039,17.0375043 C104.369843,9.35537225 91.4271581,7.78116487 80.7152447,10.0270341 C68.8879455,12.5247765 58.8284277,27.9960866 64.0265467,39.580154 C59.8806785,38.8875028 55.6716752,39.3072914 51.588942,40.650615 C46.5802281,42.3087801 39.6353727,46.4436982 36.8574305,51.0634721 C30.7964658,61.0943216 35.2369643,74.5485474 44.0337811,81.2021972 C36.120855,82.8414719 32.4379771,90.8993147 33.0693276,99.3181758 C33.6796331,107.522945 38.8356621,114.848256 46.432913,117.345999 C45.2754371,118.563386 44.2652763,119.990667 43.4234757,121.524995 C41.0874788,125.741771 38.2674466,133.591819 39.1934274,138.461367 C40.7718036,146.752193 47.2536686,153.365963 54.8088295,156.764152 C62.9532509,160.416313 70.9293121,160.374334 78.484473,156.682293 C76.6956466,165.411798 81.6412255,175.069035 88.8596661,180.148478 C97.5512579,186.275293 112.9983,186.75805 120.869136,178.784165 C123.626033,190.829999 137.157979,196.560114 148.438108,198.5751 C161.065117,200.841958 177.05933,193.896555 181.331468,181.132882 C184.256725,184.094491 188.255279,186.088487 191.875021,188.061493 C198.714652,191.797612 207.111613,191.671676 214.519459,190.307363 C229.819186,187.515768 243.456357,173.681634 237.416437,158.403426 C238.468688,158.065496 239.920794,158.29638 240.952,158.319469 C242.677691,158.338359 244.529652,157.645708 246.171164,157.141961 C249.854042,156.010631 252.674074,154.497293 255.788736,152.272413 C262.396871,147.593869 265.700939,142.346511 268.542016,134.956132 C271.319958,127.798736 269.888897,117.115115 265.132724,111.112138 C261.975971,107.145135 258.019508,105.237196 253.57901,104.355639 L253.57901,104.355639 Z" id="Fill-6068" sketch:type="MSShapeGroup"></path>
                <path d="M30.7450241,177.434133 C25.0188464,178.082043 21.3124478,172.024404 22.1245239,167.013066 C22.9157775,162.083502 26.9553356,157.260875 31.8486147,156.862484 C35.3259662,159.672189 39.3030569,160.995266 39.4696366,166.801289 C39.6153939,171.68682 35.6591257,176.867999 30.7450241,177.434133 L30.7450241,177.434133 Z M32.6190459,151.0963 C31.1614734,150.700006 30.0162378,151.580659 29.6414335,152.752767 C17.1479549,153.656486 8.46498732,177.159453 25.4977631,183.177253 C33.9725061,186.177766 41.8433976,180.579325 44.9667672,172.735217 C48.7564557,163.1969 41.5518831,153.656486 32.6190459,151.0963 L32.6190459,151.0963 Z" id="Fill-6069" sketch:type="MSShapeGroup"></path>
                <path d="M11.3667411,200.088477 C10.0243741,201.706439 7.6332829,201.747873 5.9133752,200.712045 C4.00469714,199.549847 4.17249301,196.320136 5.43096206,194.805757 C6.52163524,193.52133 7.96887465,192.879117 9.52098647,192.734102 C11.2408942,195.075072 13.7368578,197.210948 11.3667411,200.088477 L11.3667411,200.088477 Z M14.785582,192.112605 C14.9743524,191.449675 14.827531,190.70388 14.1143985,190.333053 C9.96145064,188.072878 4.57100821,188.611508 1.63458043,192.526936 C-1.02917906,196.110899 -0.399944535,201.683651 3.24961571,204.376803 C6.7104056,206.947727 11.7023328,206.367663 14.6597351,203.32233 C18.078576,199.819162 17.428367,195.406537 14.785582,192.112605 L14.785582,192.112605 Z" id="Fill-6070" sketch:type="MSShapeGroup"></path>
            </g>
            <g id="How" sketch:type="MSLayerGroup" transform="translate(80.000000, 150.000000)" fill="#2C3133">
                <path d="M24.9682617,9.59423828 L24.8657227,9.57714844 L18.2006836,28 L14.8510742,28 L8.22021484,9.64550781 L8.11767578,9.66259766 L8.59619141,20.5830078 L8.59619141,24.496582 L11.262207,25.0092773 L11.262207,28 L0.95703125,28 L0.95703125,25.0092773 L3.60595703,24.496582 L3.60595703,6.63769531 L0.95703125,6.125 L0.95703125,3.1171875 L3.60595703,3.1171875 L10.1171875,3.1171875 L16.4575195,21.4545898 L16.5600586,21.4545898 L22.9516602,3.1171875 L32.1459961,3.1171875 L32.1459961,6.125 L29.4799805,6.63769531 L29.4799805,24.496582 L32.1459961,25.0092773 L32.1459961,28 L21.8408203,28 L21.8408203,25.0092773 L24.4897461,24.496582 L24.4897461,20.5830078 L24.9682617,9.59423828 Z M45.8178711,28 C45.6811517,27.6923813 45.561524,27.3762223 45.4589844,27.0515137 C45.3564448,26.726805 45.276693,26.399253 45.2197266,26.0688477 C44.6272757,26.7524448 43.9066611,27.3050109 43.0578613,27.7265625 C42.2090615,28.1481141 41.2377984,28.3588867 40.144043,28.3588867 C38.3325105,28.3588867 36.8941297,27.8661345 35.8288574,26.8806152 C34.7635852,25.895096 34.230957,24.5535567 34.230957,22.855957 C34.230957,21.1241775 34.9259371,19.7854865 36.315918,18.8398438 C37.7058989,17.894201 39.7452665,17.4213867 42.434082,17.4213867 L44.9804688,17.4213867 L44.9804688,15.6098633 C44.9804688,14.721187 44.7241237,14.0319035 44.2114258,13.5419922 C43.6987279,13.0520809 42.9410857,12.8071289 41.9384766,12.8071289 C41.3688123,12.8071289 40.8618186,12.8726393 40.4174805,13.0036621 C39.9731423,13.1346849 39.6142592,13.2913402 39.3408203,13.4736328 L39.0161133,15.4560547 L35.2563477,15.4560547 L35.2734375,11.3544922 C36.1849004,10.7392547 37.2302187,10.220868 38.4094238,9.79931641 C39.5886289,9.37776482 40.8732027,9.16699219 42.2631836,9.16699219 C44.5532341,9.16699219 46.4131602,9.72810311 47.8430176,10.8503418 C49.272875,11.9725805 49.987793,13.5704649 49.987793,15.644043 L49.987793,23.2832031 C49.987793,23.5680353 49.9906412,23.8357735 49.9963379,24.0864258 C50.0020345,24.3370781 50.0219725,24.5763335 50.0561523,24.8041992 L51.5771484,25.0092773 L51.5771484,28 L45.8178711,28 Z M41.4941406,24.6674805 C42.2460975,24.6674805 42.9296844,24.5051286 43.5449219,24.1804199 C44.1601593,23.8557113 44.6386702,23.4484074 44.9804688,22.9584961 L44.9804688,20.1386719 L42.434082,20.1386719 C41.3745064,20.1386719 40.5712918,20.3864721 40.0244141,20.8820801 C39.4775363,21.377688 39.2041016,21.9729783 39.2041016,22.6679688 C39.2041016,23.2945995 39.4063294,23.7845034 39.810791,24.1376953 C40.2152527,24.4908872 40.7763636,24.6674805 41.4941406,24.6674805 L41.4941406,24.6674805 Z M72.1533203,12.5166016 L70.4272461,12.7729492 L63.6254883,30.7685547 C63.0900038,32.1015692 62.3750859,33.2180945 61.4807129,34.1181641 C60.5863399,35.0182337 59.2391041,35.4682617 57.4389648,35.4682617 C57.0174133,35.4682617 56.6215025,35.4340824 56.2512207,35.3657227 C55.8809389,35.2973629 55.4451522,35.2005215 54.9438477,35.0751953 L55.5249023,31.4350586 C55.6844083,31.4578452 55.8496085,31.4806314 56.0205078,31.503418 C56.1914071,31.5262045 56.3395176,31.5375977 56.4648438,31.5375977 C57.2965536,31.5375977 57.9345681,31.3353699 58.3789062,30.9309082 C58.8232444,30.5264465 59.1650379,30.0223012 59.4042969,29.418457 L59.9682617,28.0170898 L54.1064453,12.7900391 L52.3803711,12.5166016 L52.3803711,9.50878906 L61.4379883,9.50878906 L61.4379883,12.5166016 L59.3701172,12.8583984 L61.8994141,20.2412109 L62.1557617,21.5742188 L62.2583008,21.5913086 L65.1806641,12.8583984 L63.0957031,12.5166016 L63.0957031,9.50878906 L72.1533203,9.50878906 L72.1533203,12.5166016 Z M91.6015625,19.2670898 C91.6015625,22.0242651 90.9863343,24.2288329 89.7558594,25.8808594 C88.5253845,27.5328859 86.7480585,28.3588867 84.4238281,28.3588867 C83.3414659,28.3588867 82.4015339,28.1338727 81.6040039,27.6838379 C80.8064739,27.2338031 80.1342801,26.5815472 79.5874023,25.7270508 L79.2285156,28 L74.921875,28 L74.921875,4.86035156 L72.2729492,4.34765625 L72.2729492,1.33984375 L79.8950195,1.33984375 L79.8950195,11.4741211 C80.430504,10.7335575 81.0713667,10.1639017 81.817627,9.76513672 C82.5638872,9.3663717 83.4212191,9.16699219 84.3896484,9.16699219 C86.7366654,9.16699219 88.5253845,10.0528069 89.7558594,11.8244629 C90.9863343,13.5961189 91.6015625,15.957342 91.6015625,18.9082031 L91.6015625,19.2670898 Z M86.628418,18.9082031 C86.628418,17.1080639 86.363528,15.6810762 85.8337402,14.6271973 C85.3039524,13.5733183 84.401048,13.0463867 83.125,13.0463867 C82.3502565,13.0463867 81.6951524,13.2087386 81.159668,13.5334473 C80.6241835,13.8581559 80.2026383,14.3224254 79.8950195,14.9262695 L79.8950195,22.7363281 C80.2026383,23.3059924 80.6270318,23.7389308 81.1682129,24.0351562 C81.709394,24.3313817 82.3730429,24.4794922 83.1591797,24.4794922 C84.446621,24.4794922 85.3466771,24.0266159 85.859375,23.1208496 C86.3720729,22.2150834 86.628418,20.9305096 86.628418,19.2670898 L86.628418,18.9082031 Z M102.76123,28.3588867 C100.095202,28.3588867 97.964689,27.5044031 96.3696289,25.7954102 C94.7745688,24.0864172 93.9770508,21.9160288 93.9770508,19.2841797 L93.9770508,18.6005859 C93.9770508,15.854804 94.7318447,13.5932706 96.2414551,11.815918 C97.7510655,10.0385653 99.7761917,9.1555989 102.316895,9.16699219 C104.812024,9.16699219 106.748854,9.91893779 108.127441,11.4228516 C109.506029,12.9267653 110.195312,14.9604364 110.195312,17.5239258 L110.195312,20.2412109 L99.1552734,20.2412109 L99.1210938,20.34375 C99.21224,21.5628316 99.6195439,22.5654258 100.343018,23.3515625 C101.066491,24.1376992 102.049147,24.5307617 103.291016,24.5307617 C104.396164,24.5307617 105.31331,24.4196788 106.04248,24.1975098 C106.771651,23.9753407 107.569169,23.6250024 108.435059,23.1464844 L109.785156,26.2226562 C109.021806,26.8265004 108.033453,27.333494 106.820068,27.7436523 C105.606683,28.1538106 104.253751,28.3588867 102.76123,28.3588867 L102.76123,28.3588867 Z M102.316895,13.012207 C101.394038,13.012207 100.664879,13.3653936 100.129395,14.0717773 C99.5939101,14.7781611 99.2635097,15.7067 99.1381836,16.8574219 L99.1894531,16.9428711 L105.307617,16.9428711 L105.307617,16.4985352 C105.307617,15.4389595 105.059817,14.5930207 104.564209,13.9606934 C104.068601,13.328366 103.319504,13.012207 102.316895,13.012207 L102.316895,13.012207 Z M120.979004,25.0092773 L123.388672,24.496582 L123.388672,13.0292969 L120.722656,12.5166016 L120.722656,9.50878906 L128.378906,9.50878906 L128.378906,24.496582 L130.771484,25.0092773 L130.771484,28 L120.979004,28 L120.979004,25.0092773 Z M128.378906,5.08251953 L123.388672,5.08251953 L123.388672,1.33984375 L128.378906,1.33984375 L128.378906,5.08251953 Z M132.685547,25.0092773 L135.095215,24.496582 L135.095215,13.012207 L132.34375,13.012207 L132.34375,9.50878906 L135.095215,9.50878906 L135.095215,7.45800781 C135.095215,5.38442974 135.693353,3.78654532 136.889648,2.66430664 C138.085943,1.54206796 139.766428,0.980957031 141.931152,0.980957031 C142.352704,0.980957031 142.782794,1.0122881 143.221436,1.07495117 C143.660077,1.13761425 144.141436,1.22591089 144.665527,1.33984375 L144.238281,5.04833984 C143.964842,5.0027667 143.699952,4.9628908 143.443604,4.92871094 C143.187255,4.89453108 142.888185,4.87744141 142.546387,4.87744141 C141.737463,4.87744141 141.125083,5.09960715 140.709229,5.54394531 C140.293374,5.98828347 140.085449,6.62629792 140.085449,7.45800781 L140.085449,9.50878906 L143.759766,9.50878906 L143.759766,13.012207 L140.085449,13.012207 L140.085449,24.496582 L142.495117,25.0092773 L142.495117,28 L132.685547,28 L132.685547,25.0092773 Z M180.366211,12.5166016 L178.503418,12.7558594 L174.641113,28 L170.471191,28 L167.036133,16.9941406 L166.933594,16.9941406 L163.498535,28 L159.345703,28 L155.466309,12.7558594 L153.603516,12.5166016 L153.603516,9.50878906 L161.977539,9.50878906 L161.977539,12.5166016 L160.012207,12.8925781 L161.755371,21.3520508 L161.85791,21.3520508 L165.310059,9.50878906 L168.659668,9.50878906 L172.145996,21.3862305 L172.248535,21.3862305 L173.974609,12.909668 L171.992188,12.5166016 L171.992188,9.50878906 L180.366211,9.50878906 L180.366211,12.5166016 Z M190.927734,28.3588867 C188.261705,28.3588867 186.131193,27.5044031 184.536133,25.7954102 C182.941073,24.0864172 182.143555,21.9160288 182.143555,19.2841797 L182.143555,18.6005859 C182.143555,15.854804 182.898349,13.5932706 184.407959,11.815918 C185.917569,10.0385653 187.942696,9.1555989 190.483398,9.16699219 C192.978528,9.16699219 194.915358,9.91893779 196.293945,11.4228516 C197.672533,12.9267653 198.361816,14.9604364 198.361816,17.5239258 L198.361816,20.2412109 L187.321777,20.2412109 L187.287598,20.34375 C187.378744,21.5628316 187.786048,22.5654258 188.509521,23.3515625 C189.232995,24.1376992 190.215651,24.5307617 191.45752,24.5307617 C192.562668,24.5307617 193.479814,24.4196788 194.208984,24.1975098 C194.938155,23.9753407 195.735673,23.6250024 196.601562,23.1464844 L197.95166,26.2226562 C197.18831,26.8265004 196.199957,27.333494 194.986572,27.7436523 C193.773187,28.1538106 192.420255,28.3588867 190.927734,28.3588867 L190.927734,28.3588867 Z M190.483398,13.012207 C189.560542,13.012207 188.831383,13.3653936 188.295898,14.0717773 C187.760414,14.7781611 187.430014,15.7067 187.304688,16.8574219 L187.355957,16.9428711 L193.474121,16.9428711 L193.474121,16.4985352 C193.474121,15.4389595 193.226321,14.5930207 192.730713,13.9606934 C192.235105,13.328366 191.486008,13.012207 190.483398,13.012207 L190.483398,13.012207 Z M206.821289,28 L201.848145,28 L201.848145,23.625 L206.821289,23.625 L206.821289,28 Z M215.742188,28 L210.769043,28 L210.769043,23.625 L215.742188,23.625 L215.742188,28 Z M224.663086,28 L219.689941,28 L219.689941,23.625 L224.663086,23.625 L224.663086,28 Z" id="Maybe-if-we..." sketch:type="MSShapeGroup"></path>
            </g>
            <path d="M551.550781,132.5 L549.910156,132.705078 L545.876953,150 L542.171875,150 L538.521484,136.861328 L538.439453,136.861328 L534.789062,150 L531.083984,150 L527.023438,132.705078 L525.396484,132.5 L525.396484,130.09375 L532.724609,130.09375 L532.724609,132.5 L530.90625,132.814453 L533.189453,143.724609 L533.271484,143.738281 L537.003906,130.09375 L539.943359,130.09375 L543.703125,143.738281 L543.785156,143.724609 L546.054688,132.814453 L544.236328,132.5 L544.236328,130.09375 L551.550781,130.09375 L551.550781,132.5 Z M552.603516,147.607422 L554.53125,147.197266 L554.53125,131.488281 L552.398438,131.078125 L552.398438,128.671875 L558.509766,128.671875 L558.509766,137.09375 C558.974612,136.410153 559.544267,135.879234 560.21875,135.500977 C560.893233,135.122719 561.640621,134.933594 562.460938,134.933594 C564.010424,134.933594 565.22493,135.446284 566.104492,136.47168 C566.984054,137.497075 567.423828,139.080718 567.423828,141.222656 L567.423828,147.197266 L569.337891,147.607422 L569.337891,150 L561.708984,150 L561.708984,147.607422 L563.431641,147.197266 L563.431641,141.195312 C563.431641,140.046869 563.228843,139.233401 562.823242,138.754883 C562.417641,138.276365 561.813806,138.037109 561.011719,138.037109 C560.455726,138.037109 559.97038,138.137369 559.555664,138.337891 C559.140948,138.538412 558.792319,138.820962 558.509766,139.185547 L558.509766,147.197266 L560.232422,147.607422 L560.232422,150 L552.603516,150 L552.603516,147.607422 Z M580.042969,150 C579.933593,149.753905 579.837891,149.500978 579.755859,149.241211 C579.673828,148.981444 579.610026,148.719402 579.564453,148.455078 C579.090492,149.001956 578.514001,149.444009 577.834961,149.78125 C577.155921,150.118491 576.378911,150.287109 575.503906,150.287109 C574.05468,150.287109 572.903976,149.892908 572.051758,149.104492 C571.19954,148.316077 570.773438,147.242845 570.773438,145.884766 C570.773438,144.499342 571.329422,143.428389 572.441406,142.671875 C573.553391,141.915361 575.184885,141.537109 577.335938,141.537109 L579.373047,141.537109 L579.373047,140.087891 C579.373047,139.37695 579.167971,138.825523 578.757812,138.433594 C578.347654,138.041665 577.74154,137.845703 576.939453,137.845703 C576.483722,137.845703 576.078127,137.898111 575.722656,138.00293 C575.367186,138.107748 575.080079,138.233072 574.861328,138.378906 L574.601562,139.964844 L571.59375,139.964844 L571.607422,136.683594 C572.336592,136.191404 573.172847,135.776694 574.116211,135.439453 C575.059575,135.102212 576.087234,134.933594 577.199219,134.933594 C579.031259,134.933594 580.5192,135.382482 581.663086,136.280273 C582.806972,137.178064 583.378906,138.456372 583.378906,140.115234 L583.378906,146.226562 C583.378906,146.454428 583.381185,146.668619 583.385742,146.869141 C583.3903,147.069662 583.40625,147.261067 583.433594,147.443359 L584.650391,147.607422 L584.650391,150 L580.042969,150 Z M576.583984,147.333984 C577.18555,147.333984 577.732419,147.204103 578.224609,146.944336 C578.716799,146.684569 579.099608,146.358726 579.373047,145.966797 L579.373047,143.710938 L577.335938,143.710938 C576.488277,143.710938 575.845705,143.909178 575.408203,144.305664 C574.970701,144.70215 574.751953,145.178383 574.751953,145.734375 C574.751953,146.23568 574.913735,146.627603 575.237305,146.910156 C575.560874,147.19271 576.009763,147.333984 576.583984,147.333984 L576.583984,147.333984 Z M590.802734,131.583984 L590.802734,135.207031 L593.400391,135.207031 L593.400391,138.009766 L590.802734,138.009766 L590.802734,145.542969 C590.802734,146.11719 590.921223,146.527343 591.158203,146.773438 C591.395183,147.019532 591.714191,147.142578 592.115234,147.142578 C592.388673,147.142578 592.627929,147.131185 592.833008,147.108398 C593.038087,147.085612 593.268228,147.046875 593.523438,146.992188 L593.865234,149.876953 C593.418618,150.013673 592.976565,150.116211 592.539062,150.18457 C592.10156,150.25293 591.627607,150.287109 591.117188,150.287109 C589.740879,150.287109 588.681319,149.908858 587.938477,149.152344 C587.195634,148.39583 586.824219,147.197274 586.824219,145.556641 L586.824219,138.009766 L584.650391,138.009766 L584.650391,135.207031 L586.824219,135.207031 L586.824219,131.583984 L590.802734,131.583984 Z M602.095703,147.607422 L604.023438,147.197266 L604.023438,138.023438 L601.890625,137.613281 L601.890625,135.207031 L608.015625,135.207031 L608.015625,147.197266 L609.929688,147.607422 L609.929688,150 L602.095703,150 L602.095703,147.607422 Z M608.015625,131.666016 L604.023438,131.666016 L604.023438,128.671875 L608.015625,128.671875 L608.015625,131.666016 Z M611.460938,147.607422 L613.388672,147.197266 L613.388672,138.009766 L611.1875,138.009766 L611.1875,135.207031 L613.388672,135.207031 L613.388672,133.566406 C613.388672,131.907544 613.867183,130.629236 614.824219,129.731445 C615.781255,128.833654 617.125642,128.384766 618.857422,128.384766 C619.194663,128.384766 619.538735,128.40983 619.889648,128.459961 C620.240562,128.510091 620.625649,128.580729 621.044922,128.671875 L620.703125,131.638672 C620.484374,131.602213 620.272462,131.570313 620.067383,131.542969 C619.862304,131.515625 619.623048,131.501953 619.349609,131.501953 C618.702471,131.501953 618.212567,131.679686 617.879883,132.035156 C617.547199,132.390627 617.380859,132.901038 617.380859,133.566406 L617.380859,135.207031 L620.320312,135.207031 L620.320312,138.009766 L617.380859,138.009766 L617.380859,147.197266 L619.308594,147.607422 L619.308594,150 L611.460938,150 L611.460938,147.607422 Z M649.605469,137.613281 L648.115234,137.804688 L645.025391,150 L641.689453,150 L638.941406,141.195312 L638.859375,141.195312 L636.111328,150 L632.789062,150 L629.685547,137.804688 L628.195312,137.613281 L628.195312,135.207031 L634.894531,135.207031 L634.894531,137.613281 L633.322266,137.914062 L634.716797,144.681641 L634.798828,144.681641 L637.560547,135.207031 L640.240234,135.207031 L643.029297,144.708984 L643.111328,144.708984 L644.492188,137.927734 L642.90625,137.613281 L642.90625,135.207031 L649.605469,135.207031 L649.605469,137.613281 Z M658.054688,150.287109 C655.921864,150.287109 654.217454,149.603522 652.941406,148.236328 C651.665358,146.869134 651.027344,145.132823 651.027344,143.027344 L651.027344,142.480469 C651.027344,140.283843 651.631179,138.474616 652.838867,137.052734 C654.046556,135.630852 655.666657,134.924479 657.699219,134.933594 C659.695322,134.933594 661.244786,135.53515 662.347656,136.738281 C663.450526,137.941412 664.001953,139.568349 664.001953,141.619141 L664.001953,143.792969 L655.169922,143.792969 L655.142578,143.875 C655.215495,144.850265 655.541338,145.652341 656.120117,146.28125 C656.698896,146.910159 657.485021,147.224609 658.478516,147.224609 C659.362635,147.224609 660.096351,147.135743 660.679688,146.958008 C661.263024,146.780273 661.901038,146.500002 662.59375,146.117188 L663.673828,148.578125 C663.063148,149.0612 662.272466,149.466795 661.301758,149.794922 C660.33105,150.123049 659.248704,150.287109 658.054688,150.287109 L658.054688,150.287109 Z M657.699219,138.009766 C656.960934,138.009766 656.377606,138.292315 655.949219,138.857422 C655.520831,139.422529 655.256511,140.16536 655.15625,141.085938 L655.197266,141.154297 L660.091797,141.154297 L660.091797,140.798828 C660.091797,139.951168 659.893557,139.274417 659.49707,138.768555 C659.100584,138.262693 658.501306,138.009766 657.699219,138.009766 L657.699219,138.009766 Z M670.878906,150 L666.900391,150 L666.900391,146.5 L670.878906,146.5 L670.878906,150 Z M677.345703,150 L673.367188,150 L673.367188,146.5 L677.345703,146.5 L677.345703,150 Z M683.703125,150 L679.724609,150 L679.724609,146.5 L683.703125,146.5 L683.703125,150 Z" id="What-if-we…" fill="#2C3133" sketch:type="MSShapeGroup"></path>
            <path d="M835.957031,186.125 L835.957031,183.117188 L846.262207,183.117188 L846.262207,186.125 L843.596191,186.637695 L843.596191,193.81543 L853.747559,193.81543 L853.747559,186.637695 L851.081543,186.125 L851.081543,183.117188 L853.747559,183.117188 L858.720703,183.117188 L861.386719,183.117188 L861.386719,186.125 L858.720703,186.637695 L858.720703,204.496582 L861.386719,205.009277 L861.386719,208 L851.081543,208 L851.081543,205.009277 L853.747559,204.496582 L853.747559,197.660645 L843.596191,197.660645 L843.596191,204.496582 L846.262207,205.009277 L846.262207,208 L835.957031,208 L835.957031,205.009277 L838.605957,204.496582 L838.605957,186.637695 L835.957031,186.125 Z M862.856445,192.516602 L862.856445,189.508789 L870.153809,189.508789 L870.358887,191.952637 C870.951338,191.06396 871.694738,190.377525 872.589111,189.893311 C873.483484,189.409096 874.517409,189.166992 875.690918,189.166992 C876.87582,189.166992 877.889807,189.429034 878.73291,189.953125 C879.576013,190.477216 880.214028,191.269038 880.646973,192.328613 C881.216637,191.337397 881.957189,190.562666 882.868652,190.004395 C883.780115,189.446124 884.851068,189.166992 886.081543,189.166992 C887.904469,189.166992 889.34285,189.796462 890.396729,191.05542 C891.450607,192.314378 891.977539,194.23127 891.977539,196.806152 L891.977539,204.496582 L894.387207,205.009277 L894.387207,208 L884.833984,208 L884.833984,205.009277 L886.987305,204.496582 L886.987305,196.789062 C886.987305,195.387688 886.759442,194.413577 886.303711,193.866699 C885.847979,193.319821 885.170089,193.046387 884.27002,193.046387 C883.563636,193.046387 882.951256,193.203042 882.432861,193.516357 C881.914467,193.829673 881.501466,194.265459 881.193848,194.82373 C881.193848,195.040203 881.199544,195.225341 881.210938,195.37915 C881.222331,195.53296 881.228027,195.689615 881.228027,195.849121 L881.228027,204.496582 L883.244629,205.009277 L883.244629,208 L874.238281,208 L874.238281,205.009277 L876.254883,204.496582 L876.254883,196.789062 C876.254883,195.421868 876.027021,194.456302 875.571289,193.892334 C875.115558,193.328366 874.431971,193.046387 873.520508,193.046387 C872.848304,193.046387 872.25871,193.174559 871.751709,193.430908 C871.244708,193.687257 870.826011,194.048989 870.495605,194.516113 L870.495605,204.496582 L872.648926,205.009277 L872.648926,208 L863.112793,208 L863.112793,205.009277 L865.522461,204.496582 L865.522461,193.029297 L862.856445,192.516602 Z M895.412598,192.516602 L895.412598,189.508789 L902.709961,189.508789 L902.915039,191.952637 C903.50749,191.06396 904.250891,190.377525 905.145264,189.893311 C906.039637,189.409096 907.073562,189.166992 908.24707,189.166992 C909.431972,189.166992 910.445959,189.429034 911.289062,189.953125 C912.132166,190.477216 912.77018,191.269038 913.203125,192.328613 C913.772789,191.337397 914.513342,190.562666 915.424805,190.004395 C916.336268,189.446124 917.40722,189.166992 918.637695,189.166992 C920.460621,189.166992 921.899002,189.796462 922.952881,191.05542 C924.00676,192.314378 924.533691,194.23127 924.533691,196.806152 L924.533691,204.496582 L926.943359,205.009277 L926.943359,208 L917.390137,208 L917.390137,205.009277 L919.543457,204.496582 L919.543457,196.789062 C919.543457,195.387688 919.315595,194.413577 918.859863,193.866699 C918.404132,193.319821 917.726241,193.046387 916.826172,193.046387 C916.119788,193.046387 915.507408,193.203042 914.989014,193.516357 C914.470619,193.829673 914.057619,194.265459 913.75,194.82373 C913.75,195.040203 913.755697,195.225341 913.76709,195.37915 C913.778483,195.53296 913.78418,195.689615 913.78418,195.849121 L913.78418,204.496582 L915.800781,205.009277 L915.800781,208 L906.794434,208 L906.794434,205.009277 L908.811035,204.496582 L908.811035,196.789062 C908.811035,195.421868 908.583173,194.456302 908.127441,193.892334 C907.67171,193.328366 906.988123,193.046387 906.07666,193.046387 C905.404456,193.046387 904.814863,193.174559 904.307861,193.430908 C903.80086,193.687257 903.382163,194.048989 903.051758,194.516113 L903.051758,204.496582 L905.205078,205.009277 L905.205078,208 L895.668945,208 L895.668945,205.009277 L898.078613,204.496582 L898.078613,193.029297 L895.412598,192.516602 Z M934.650879,208 L929.677734,208 L929.677734,203.625 L934.650879,203.625 L934.650879,208 Z M943.571777,208 L938.598633,208 L938.598633,203.625 L943.571777,203.625 L943.571777,208 Z M952.492676,208 L947.519531,208 L947.519531,203.625 L952.492676,203.625 L952.492676,208 Z" id="Hmm..." fill="#2C3133" sketch:type="MSShapeGroup"></path>
        </g>
    </g>
</svg>