<?xml version="1.0" encoding="utf-8"?>
<!-- Generator: Adobe Illustrator 20.0.0, SVG Export Plug-In . SVG Version: 6.00 Build 0)  -->
<svg version="1.1" id="Layer_1" xmlns="http://www.w3.org/2000/svg" xmlns:xlink="http://www.w3.org/1999/xlink" x="0px" y="0px"
	 viewBox="0 0 668.3 309.6" style="enable-background:new 0 0 668.3 309.6;" xml:space="preserve">
<style type="text/css">
	.st0{fill:#F9AFA3;}
	.st1{fill:#E7FF5C;}
	.st2{fill:none;stroke:#000000;stroke-width:2.18;stroke-miterlimit:10;}
	.st3{fill:none;stroke:#000000;stroke-width:2.18;stroke-linecap:round;stroke-miterlimit:10;}
	.st4{clip-path:url(#SVGID_2_);}
	.st5{fill:none;stroke:#000000;stroke-width:1.43;stroke-miterlimit:10;}
</style>
<title>Asset 4</title>
<g id="Layer_2">
	<g id="Layer_2-2">
		<path class="st0" d="M43.9,155c-17.2,17.3-26.8,40.8-26.6,65.2c0,103.3,132.8,86.6,132.8,86.6c-106.9,6.8-147.2-24.7-148.9-95
			c-1.8-73.6,61.5-96.1,61.5-96.1L43.9,155z"/>
		<path class="st0" d="M597.8,279.7c-1.5-24.1-22.2-42.4-46.3-40.9c-9.5,0.6-18.5,4.3-25.7,10.4l12.2,4.6c15.6-9,35.6-3.7,44.6,11.9
			c3.7,6.3,5.1,13.7,4.1,21c-0.7,6.7,2.3,7.6,5.6,7.6c3,0,4.8-3.1,5.2-6C597.9,285.6,598,282.7,597.8,279.7z"/>
		<path class="st0" d="M454.8,214.3c-4.5,2.1-10.3,0-15.2-4.9c-2.7-2.8-4.9-6-6.6-9.6c-5.1-11.2-3.7-22.8,3.2-25.9
			s16.6,3.3,21.7,14.5c1.6,3.5,2.7,7.3,3,11.2"/>
		<path class="st0" d="M388.7,187.3c-60.2-15.5-121.2-14.4-169.1-40.8c-52.1-28.7-70.1-50.4-124.7-50.4c-52.3,0-84.3,45.6-84.3,91.7
			s37.4,83.5,83.5,83.5l0,0c6.1,0,275.2-4.5,294.6-4.5C410.5,227.4,388.7,187.3,388.7,187.3z"/>
		<path class="st0" d="M232.2,260.3h-60.5c30.9-34.2,28.2-87-6-117.9s-87-28.2-117.9,6s-28.2,87,6,117.9
			c13.8,12.5,31.4,20,49.9,21.3c0.4,0.2,0.9,0.2,1.3,0.2h146.9c2.2,0,3.9-1.8,3.9-3.9C255.9,271,245.3,260.4,232.2,260.3z"/>
		<path class="st0" d="M390.1,253.4h-41.9c3.2-18.1-8.8-35.4-26.9-38.6s-35.4,8.8-38.6,26.9c-3.2,18.1,8.8,35.4,26.9,38.6
			c1,0.2,1.9,0.3,2.9,0.4c0.3,0.1,0.6,0.1,0.9,0.1h97.5c1.8,0,3.3-1.5,3.3-3.3C414.1,264.3,403.4,253.5,390.1,253.4z"/>
		<path class="st0" d="M430.6,267.4h152.5v-1.5c0.1-5.9,2.3-11.3,6.2-13.1c6.9-3.2,16.6,3.3,21.7,14.5c0,0.1,0.1,0.2,0.1,0.4
			c32.6,0.7,10.1-16.6,4.4-21.7c-62.3-54.9-182.8-58.8-184.9-58.7L430.6,267.4"/>
		<path class="st1" d="M667.2,70.3c0-38.2-101.9-69.2-227.6-69.2S212,32.1,212,70.3s101.9,69.2,227.6,69.2
			c30.2,0.1,60.3-1.8,90.2-5.6c13.3-0.6,26.7,0.3,31.7,7.4c6.3,9,3.7,18.6-1.7,25.9c-8.3,11-0.5,15.3,3,16.3
			c4,1.2,11.3,0.2,13.5-10.8c2.3-11.1-14.1-34.9,33.4-51.4c25.4-8.8,55.9-30.1,56.2-43.6C666.8,75.3,667.2,72.8,667.2,70.3z"/>
		<circle class="st1" cx="549.9" cy="194.1" r="6.8"/>
		<circle class="st1" cx="535" cy="206.4" r="3.8"/>
		<ellipse class="st0" cx="430.6" cy="227.4" rx="11.8" ry="40"/>
		<ellipse class="st0" cx="429.7" cy="227.4" rx="3.9" ry="16.1"/>
		<path class="st0" d="M466.1,211c-4.5,2.1-10.3,0-15.2-4.9c-2.7-2.8-4.9-6-6.5-9.6c-5.1-11.2-3.7-22.8,3.2-25.9s16.6,3.3,21.7,14.5
			c1.6,3.5,2.7,7.3,3,11.2"/>
		<path class="st0" d="M492.6,211.8c13.7,2.1,27.2,5.2,40.5,9.2"/>
		<path class="st2" d="M17.2,220.2c0,103.3,132.8,85.7,132.8,85.7C53.8,318.5,1.1,285.4,1.1,211.7c0-26.8,7.3-46.8,16.6-61.5"/>
		<path class="st3" d="M583,266.7c3.4,6.2,4.7,13.3,3.7,20.2c-0.7,6.7,2.3,7.6,5.6,7.6c3,0,4.8-3.1,5.2-6c1.7-12.4-2-24.9-10.1-34.3
			"/>
		<path class="st3" d="M430.1,187.5c-0.2-6.4,1.9-11.7,6.2-13.7c2.4-1,5.2-1.1,7.6-0.1"/>
		<line class="st2" x1="249.7" y1="268.1" x2="289.2" y2="268.1"/>
		<path class="st2" d="M394.4,253.8c11.6-34.7-5.7-66.6-5.7-66.6c-60.2-15.5-121.2-14.4-169.1-40.8C167.5,117.7,149.5,96,94.9,96
			c-52.3,0-84.3,45.6-84.3,91.7c0,25.2,11.4,49.1,31,65"/>
		<path class="st2" d="M232.2,260.3h-60.5c30.9-34.2,28.2-87-6-117.9s-87-28.2-117.9,6s-28.2,87,6,117.9
			c13.8,12.5,31.4,20,49.9,21.3c0.4,0.2,0.9,0.2,1.3,0.2h146.9c2.2,0,3.9-1.8,3.9-3.9C255.9,271,245.3,260.4,232.2,260.3z"/>
		<path class="st2" d="M390.1,253.4h-41.9c3.2-18.1-8.8-35.4-26.9-38.6s-35.4,8.8-38.6,26.9c-3.2,18.1,8.8,35.4,26.9,38.6
			c1,0.2,1.9,0.3,2.9,0.4c0.3,0.1,0.6,0.1,0.9,0.1h97.5c1.8,0,3.3-1.5,3.3-3.3C414.1,264.3,403.4,253.5,390.1,253.4z"/>
		<path class="st2" d="M430.6,267.4"/>
		<path class="st2" d="M441.3,187.9c-6.5-0.4-10.4-0.6-10.7-0.5"/>
		<path class="st2" d="M531.7,203.7c-19.5-5.6-39.3-9.8-59.4-12.5"/>
		<path class="st2" d="M435.1,267.4h148v-1.5c0.1-5.9,2.3-11.3,6.2-13.1c6.9-3.2,16.6,3.3,21.7,14.5c0,0.1,0.1,0.2,0.1,0.4
			c32.6,0.7,10.1-16.6,4.4-21.7c-21-18.6-48.8-31.3-76.3-40"/>
		<line class="st2" x1="430.6" y1="267.4" x2="435" y2="267.4"/>
		<path class="st2" d="M667.2,70.3c0-38.2-101.9-69.2-227.6-69.2S212,32.1,212,70.3s101.9,69.2,227.6,69.2
			c30.2,0.1,60.3-1.8,90.2-5.6c13.3-0.6,26.7,0.3,31.7,7.4c6.3,9,3.7,18.6-1.7,25.9c-8.3,11-0.5,15.3,3,16.3
			c4,1.2,11.3,0.2,13.5-10.8c2.3-11.1-14.1-34.9,33.4-51.4c25.4-8.8,55.9-30.1,56.2-43.6C666.8,75.3,667.2,72.8,667.2,70.3z"/>
		<circle class="st2" cx="549.9" cy="194.1" r="6.8"/>
		<circle class="st2" cx="535" cy="206.4" r="3.8"/>
		<ellipse class="st2" cx="430.6" cy="227.4" rx="11.8" ry="40"/>
		<ellipse class="st2" cx="429.7" cy="227.4" rx="3.9" ry="16.1"/>
		<path class="st3" d="M466.1,211c-4.5,2.1-10.3,0-15.2-4.9c-2.7-2.8-4.9-6-6.5-9.6c-5.1-11.2-3.7-22.8,3.2-25.9s16.6,3.3,21.7,14.5
			c1.6,3.5,2.7,7.3,3,11.2"/>
		<path class="st3" d="M492.6,211.8c13.7,2.1,27.2,5.2,40.5,9.2"/>
		<g>
			<g>
				<defs>
					<path id="SVGID_1_" d="M667.2,70.3c0-38.2-101.9-69.2-227.6-69.2S212,32.1,212,70.3s101.9,69.2,227.6,69.2
						c30.2,0.1,60.3-1.8,90.2-5.6c13.3-0.6,26.7,0.3,31.7,7.4c6.3,9,3.7,18.6-1.7,25.9c-8.3,11-0.5,15.3,3,16.3
						c4,1.2,11.3,0.2,13.5-10.8c2.3-11.1-14.1-34.9,33.4-51.4c25.4-8.8,55.9-30.1,56.2-43.6C666.8,75.3,667.2,72.8,667.2,70.3z"/>
				</defs>
				<clipPath id="SVGID_2_">
					<use xlink:href="#SVGID_1_"  style="overflow:visible;"/>
				</clipPath>
				<g class="st4">
					<polyline class="st5" points="222.6,110.2 336,100.3 333.8,75 305.4,77.5 303.2,52.1 388.3,44.7 394.9,120.6 480,113.2 
						475.6,62.6 503.9,60.1 510.6,136 397.2,146 399.4,171.3 541.2,158.9 534.5,82.9 562.9,80.4 574,207 602.3,204.5 589,52.6 
						532.3,57.6 530.1,32.3 615.2,24.8 612.9,-0.5 641.3,-3 643.5,22.3 647.9,73 619.6,75.5 624,126.1 652.4,123.6 654.6,148.9 
						597.9,153.9 600.1,179.2 685.2,171.8 					"/>
					<polyline class="st5" points="366.6,123.1 375.5,224.4 545.6,209.5 543.4,184.2 571.7,181.7 					"/>
					<polyline class="st5" points="362.1,72.5 366.6,123.1 281.5,130.6 283.7,155.9 340.4,150.9 344.9,201.6 259.8,209 253.1,133.1 
											"/>
					<polyline class="st5" points="364.7,97.8 421.1,92.8 418.9,67.5 447.2,65 449.4,90.4 					"/>
					<polyline class="st5" points="416.6,42.2 414.4,16.9 329.3,24.3 327.1,-1 					"/>
					<polyline class="st5" points="440.6,-10.9 445,39.7 501.7,34.7 499.5,9.4 471.1,11.9 					"/>
					<line class="st5" x1="527.9" y1="6.9" x2="612.9" y2="-0.5"/>
					<polyline class="st5" points="403.8,221.9 401.6,196.6 399.4,171.3 					"/>
					<line class="st5" x1="401.6" y1="196.6" x2="515" y2="186.7"/>
					<path class="st5" d="M347.1,226.9l-113.4,9.9l-20-227.9L440.6-11l226.8-19.8l20,227.9l-141.8,12.4"/>
					<line class="st5" x1="425.6" y1="144.8" x2="432.2" y2="219.5"/>
					<line class="st5" x1="621.8" y1="100.8" x2="650.2" y2="98.3"/>
					<line class="st5" x1="615.2" y1="24.8" x2="617.4" y2="50.1"/>
					<line class="st5" x1="270.4" y1="4" x2="277.1" y2="79.9"/>
					<polyline class="st5" points="250.9,107.8 244.3,31.8 215.9,34.3 					"/>
				</g>
			</g>
		</g>
	</g>
</g>
</svg>
