<?xml version="1.0" encoding="utf-8"?>
<!-- Generator: Adobe Illustrator 12.0.0, SVG Export Plug-In . SVG Version: 6.00 Build 51448)  -->
<!DOCTYPE svg PUBLIC "-//W3C//DTD SVG 1.1//EN" "http://www.w3.org/Graphics/SVG/1.1/DTD/svg11.dtd" [
	<!ENTITY ns_svg "http://www.w3.org/2000/svg">
	<!ENTITY ns_xlink "http://www.w3.org/1999/xlink">
]>
<svg  version="1.1" id="Layer_1" xmlns="&ns_svg;" xmlns:xlink="&ns_xlink;" width="459.757" height="327.937"
	 viewBox="0 0 459.757 327.937" overflow="visible" enable-background="new 0 0 459.757 327.937" xml:space="preserve">
<g enable-background="new    ">
	<path d="M1.067,6.928c0-1.094,0.164-2.011,0.491-2.753c0.244-0.547,0.577-1.038,1-1.472c0.422-0.434,0.885-0.756,1.388-0.966
		c0.668-0.283,1.44-0.425,2.314-0.425c1.582,0,2.848,0.491,3.797,1.472c0.949,0.981,1.424,2.346,1.424,4.093
		c0,1.733-0.471,3.089-1.414,4.068c-0.942,0.979-2.202,1.468-3.779,1.468c-1.597,0-2.866-0.487-3.808-1.461S1.067,8.637,1.067,6.928
		z M3.301,6.854c0,1.216,0.281,2.138,0.843,2.765c0.562,0.627,1.275,0.941,2.141,0.941c0.865,0,1.575-0.311,2.129-0.934
		C8.969,9.004,9.247,8.07,9.247,6.825c0-1.23-0.27-2.148-0.81-2.754c-0.54-0.605-1.257-0.908-2.151-0.908
		c-0.895,0-1.615,0.307-2.163,0.919C3.575,4.695,3.301,5.619,3.301,6.854z"/>
	<path d="M15.396,12.233l-3.134-7.781h2.164l1.459,3.971l0.423,1.326c0.112-0.337,0.183-0.56,0.212-0.667
		c0.068-0.22,0.142-0.439,0.22-0.659l1.481-3.971h2.117l-3.09,7.781H15.396z"/>
	<path d="M25.81,9.756l2.055,0.344c-0.264,0.754-0.68,1.328-1.249,1.722s-1.281,0.591-2.135,0.591c-1.353,0-2.354-0.442-3.003-1.326
		c-0.513-0.708-0.769-1.602-0.769-2.682c0-1.29,0.337-2.299,1.011-3.03c0.674-0.73,1.526-1.095,2.556-1.095
		c1.157,0,2.07,0.382,2.739,1.148c0.669,0.765,0.989,1.937,0.959,3.516h-5.156c0.015,0.609,0.18,1.083,0.498,1.422
		c0.317,0.338,0.712,0.508,1.185,0.508c0.322,0,0.593-0.088,0.812-0.265C25.532,10.433,25.698,10.148,25.81,9.756z M25.927,7.686
		c-0.015-0.597-0.168-1.051-0.461-1.362c-0.292-0.311-0.649-0.466-1.068-0.466c-0.449,0-0.82,0.164-1.112,0.492
		c-0.293,0.328-0.437,0.773-0.432,1.336H25.927z"/>
	<path d="M31.609,12.233h-2.055V4.452h1.914v1.106c0.326-0.522,0.619-0.866,0.879-1.031c0.261-0.165,0.556-0.247,0.887-0.247
		c0.467,0,0.917,0.129,1.351,0.388L33.949,6.46c-0.346-0.225-0.668-0.337-0.965-0.337c-0.288,0-0.531,0.08-0.731,0.238
		c-0.2,0.159-0.357,0.446-0.472,0.861c-0.115,0.415-0.172,1.284-0.172,2.607V12.233z"/>
	<path d="M37.009,6.834l-1.867-0.336c0.21-0.754,0.572-1.312,1.086-1.675c0.514-0.362,1.277-0.543,2.29-0.543
		c0.919,0,1.604,0.109,2.055,0.326c0.45,0.218,0.767,0.493,0.95,0.828s0.275,0.949,0.275,1.842l-0.031,2.402
		c0,0.684,0.033,1.188,0.099,1.512c0.066,0.325,0.189,0.672,0.37,1.043h-2.039c-0.054-0.137-0.12-0.339-0.198-0.607
		c-0.034-0.122-0.059-0.203-0.073-0.242c-0.352,0.343-0.728,0.6-1.128,0.771s-0.828,0.257-1.282,0.257
		c-0.801,0-1.432-0.217-1.893-0.652c-0.461-0.434-0.692-0.983-0.692-1.647c0-0.439,0.105-0.831,0.315-1.175
		c0.21-0.344,0.504-0.608,0.883-0.791c0.378-0.183,0.924-0.343,1.637-0.479c0.962-0.181,1.629-0.349,2-0.505V6.958
		c0-0.396-0.098-0.678-0.293-0.847s-0.565-0.253-1.107-0.253c-0.367,0-0.653,0.072-0.858,0.217
		C37.302,6.219,37.136,6.472,37.009,6.834z M39.767,8.506c-0.264,0.087-0.683,0.192-1.255,0.314s-0.947,0.241-1.123,0.357
		c-0.269,0.19-0.403,0.431-0.403,0.723c0,0.287,0.107,0.536,0.323,0.745c0.215,0.209,0.489,0.314,0.822,0.314
		c0.372,0,0.727-0.122,1.064-0.365c0.25-0.185,0.413-0.412,0.492-0.679c0.054-0.175,0.081-0.509,0.081-1V8.506z"/>
	<path d="M43.778,12.233V1.491h2.055v10.742H43.778z"/>
	<path d="M47.863,12.233V1.491h2.055v10.742H47.863z"/>
	<path d="M56.19,12.233V1.491h3.243l1.941,7.328l1.925-7.328h3.25v10.742h-2.008l-0.004-8.456l-2.134,8.456h-2.087l-2.115-8.456
		l-0.004,8.456H56.19z"/>
	<path d="M73.789,12.233v-1.165c-0.283,0.415-0.656,0.743-1.117,0.983s-0.948,0.361-1.461,0.361c-0.523,0-0.992-0.115-1.407-0.344
		c-0.415-0.23-0.715-0.553-0.901-0.968c-0.186-0.416-0.278-0.99-0.278-1.723V4.452h2.055v3.572c0,1.093,0.038,1.763,0.114,2.01
		c0.076,0.246,0.214,0.441,0.416,0.585c0.201,0.144,0.455,0.216,0.764,0.216c0.353,0,0.668-0.096,0.948-0.289
		s0.47-0.432,0.573-0.717c0.103-0.286,0.154-0.984,0.154-2.097V4.452h2.055v7.781H73.789z"/>
	<path d="M77.12,10.014l2.062-0.312c0.088,0.402,0.267,0.707,0.536,0.915s0.646,0.312,1.13,0.312c0.533,0,0.935-0.098,1.204-0.293
		c0.181-0.137,0.271-0.32,0.271-0.55c0-0.156-0.049-0.286-0.146-0.389c-0.103-0.098-0.332-0.188-0.688-0.271
		c-1.66-0.367-2.712-0.702-3.156-1.004C77.717,8,77.409,7.416,77.409,6.668c0-0.674,0.266-1.241,0.798-1.7
		c0.532-0.459,1.356-0.689,2.474-0.689c1.063,0,1.854,0.173,2.371,0.519c0.517,0.346,0.873,0.858,1.068,1.536l-1.938,0.359
		c-0.083-0.303-0.24-0.535-0.472-0.696s-0.562-0.242-0.991-0.242c-0.541,0-0.929,0.076-1.163,0.228
		c-0.156,0.107-0.234,0.247-0.234,0.418c0,0.147,0.068,0.271,0.205,0.374c0.185,0.137,0.825,0.331,1.92,0.58
		c1.095,0.25,1.859,0.555,2.294,0.917c0.429,0.367,0.644,0.877,0.644,1.532c0,0.713-0.298,1.327-0.894,1.839
		c-0.596,0.513-1.477,0.77-2.644,0.77c-1.06,0-1.898-0.215-2.516-0.646C77.715,11.337,77.311,10.752,77.12,10.014z"/>
	<path d="M86.042,12.233V1.491h2.055v10.742H86.042z"/>
	<path d="M90.131,3.397V1.491h2.055v1.906H90.131z M90.131,12.233V4.452h2.055v7.781H90.131z"/>
	<path d="M94.143,4.452h1.898v1.062c0.677-0.822,1.483-1.234,2.418-1.234c0.497,0,0.928,0.103,1.293,0.308
		c0.365,0.206,0.665,0.517,0.899,0.933c0.342-0.416,0.71-0.727,1.105-0.933c0.396-0.205,0.818-0.308,1.267-0.308
		c0.571,0,1.054,0.116,1.45,0.348c0.396,0.231,0.691,0.572,0.886,1.021c0.142,0.332,0.212,0.869,0.212,1.611v4.973h-2.055V7.79
		c0-0.771-0.071-1.269-0.213-1.493c-0.19-0.292-0.484-0.439-0.88-0.439c-0.288,0-0.56,0.088-0.813,0.264
		c-0.254,0.175-0.438,0.433-0.55,0.772c-0.112,0.339-0.168,0.875-0.168,1.606v3.733h-2.055v-4.26c0-0.756-0.037-1.244-0.11-1.464
		c-0.073-0.219-0.187-0.383-0.34-0.49c-0.153-0.107-0.362-0.161-0.625-0.161c-0.317,0-0.603,0.085-0.856,0.256
		s-0.435,0.417-0.545,0.739c-0.11,0.322-0.165,0.856-0.165,1.603v3.777h-2.055V4.452z"/>
	<path d="M111.827,12.233V1.491h3.477c1.317,0,2.176,0.054,2.576,0.161c0.614,0.161,1.129,0.512,1.544,1.051
		c0.415,0.54,0.622,1.236,0.622,2.091c0,0.66-0.12,1.214-0.358,1.663s-0.542,0.802-0.91,1.059c-0.368,0.256-0.742,0.426-1.123,0.509
		c-0.517,0.103-1.265,0.154-2.245,0.154h-1.411v4.055H111.827z M113.999,3.311v3.047h1.183c0.852,0,1.422-0.056,1.709-0.168
		c0.288-0.112,0.513-0.288,0.676-0.527s0.245-0.518,0.245-0.835c0-0.391-0.114-0.713-0.343-0.967s-0.519-0.413-0.869-0.476
		c-0.258-0.049-0.777-0.073-1.556-0.073H113.999z"/>
	<path d="M120.964,8.236c0-0.684,0.168-1.346,0.505-1.985c0.337-0.64,0.815-1.128,1.433-1.466c0.618-0.337,1.308-0.505,2.07-0.505
		c1.177,0,2.142,0.382,2.895,1.147c0.752,0.764,1.128,1.73,1.128,2.897c0,1.177-0.38,2.153-1.14,2.927
		c-0.759,0.774-1.716,1.161-2.869,1.161c-0.713,0-1.394-0.161-2.041-0.483c-0.647-0.323-1.139-0.795-1.477-1.418
		C121.133,9.889,120.964,9.13,120.964,8.236z M123.074,8.346c0,0.771,0.183,1.362,0.55,1.772c0.367,0.41,0.819,0.615,1.356,0.615
		c0.538,0,0.989-0.205,1.353-0.615c0.364-0.41,0.546-1.006,0.546-1.787c0-0.761-0.182-1.347-0.546-1.757
		c-0.364-0.41-0.814-0.615-1.353-0.615c-0.537,0-0.989,0.205-1.356,0.615C123.257,6.984,123.074,7.575,123.074,8.346z"/>
	<path d="M130.523,4.452h1.922v1.143c0.249-0.391,0.586-0.708,1.011-0.95s0.896-0.364,1.414-0.364c0.904,0,1.671,0.354,2.301,1.062
		c0.63,0.708,0.945,1.695,0.945,2.96c0,1.299-0.318,2.309-0.954,3.03c-0.636,0.72-1.406,1.081-2.311,1.081
		c-0.431,0-0.821-0.085-1.17-0.256s-0.718-0.464-1.104-0.879v3.917h-2.055V4.452z M132.546,8.214c0,0.875,0.174,1.521,0.523,1.939
		c0.349,0.417,0.773,0.626,1.274,0.626c0.481,0,0.881-0.192,1.2-0.576c0.319-0.383,0.479-1.013,0.479-1.888
		c0-0.816-0.165-1.422-0.494-1.818s-0.736-0.594-1.223-0.594c-0.506,0-0.926,0.194-1.259,0.583
		C132.713,6.876,132.546,7.452,132.546,8.214z"/>
	<path d="M144.858,12.233v-1.165c-0.283,0.415-0.656,0.743-1.117,0.983s-0.949,0.361-1.461,0.361c-0.522,0-0.991-0.115-1.406-0.344
		c-0.415-0.23-0.715-0.553-0.901-0.968c-0.186-0.416-0.278-0.99-0.278-1.723V4.452h2.055v3.572c0,1.093,0.038,1.763,0.114,2.01
		c0.076,0.246,0.214,0.441,0.415,0.585c0.201,0.144,0.456,0.216,0.765,0.216c0.353,0,0.668-0.096,0.948-0.289
		s0.47-0.432,0.573-0.717c0.103-0.286,0.154-0.984,0.154-2.097V4.452h2.055v7.781H144.858z"/>
	<path d="M148.812,12.233V1.491h2.055v10.742H148.812z"/>
	<path d="M154.511,6.834l-1.867-0.336c0.21-0.754,0.572-1.312,1.086-1.675c0.514-0.362,1.277-0.543,2.29-0.543
		c0.919,0,1.604,0.109,2.055,0.326c0.45,0.218,0.767,0.493,0.95,0.828s0.275,0.949,0.275,1.842l-0.031,2.402
		c0,0.684,0.033,1.188,0.099,1.512c0.066,0.325,0.189,0.672,0.37,1.043h-2.039c-0.054-0.137-0.12-0.339-0.198-0.607
		c-0.034-0.122-0.059-0.203-0.073-0.242c-0.352,0.343-0.728,0.6-1.128,0.771s-0.828,0.257-1.282,0.257
		c-0.801,0-1.432-0.217-1.893-0.652c-0.461-0.434-0.692-0.983-0.692-1.647c0-0.439,0.105-0.831,0.315-1.175
		c0.21-0.344,0.504-0.608,0.883-0.791c0.378-0.183,0.924-0.343,1.637-0.479c0.962-0.181,1.629-0.349,2-0.505V6.958
		c0-0.396-0.098-0.678-0.293-0.847s-0.565-0.253-1.107-0.253c-0.367,0-0.653,0.072-0.858,0.217
		C154.804,6.219,154.638,6.472,154.511,6.834z M157.269,8.506c-0.264,0.087-0.683,0.192-1.255,0.314s-0.947,0.241-1.123,0.357
		c-0.269,0.19-0.403,0.431-0.403,0.723c0,0.287,0.107,0.536,0.323,0.745c0.215,0.209,0.489,0.314,0.822,0.314
		c0.372,0,0.727-0.122,1.064-0.365c0.25-0.185,0.413-0.412,0.492-0.679c0.054-0.175,0.081-0.509,0.081-1V8.506z"/>
	<path d="M164.89,4.452v1.641h-1.406v3.142c0,0.636,0.014,1.007,0.041,1.112s0.088,0.192,0.183,0.26
		c0.096,0.069,0.212,0.103,0.349,0.103c0.191,0,0.467-0.066,0.83-0.198l0.176,1.594c-0.478,0.205-1.019,0.307-1.623,0.307
		c-0.371,0-0.705-0.062-1.001-0.187c-0.297-0.125-0.516-0.286-0.654-0.484s-0.235-0.465-0.289-0.803
		c-0.044-0.24-0.066-0.724-0.066-1.452V6.092h-0.945V4.452h0.945V2.905l2.055-1.211v2.758H164.89z"/>
	<path d="M166.416,3.397V1.491h2.055v1.906H166.416z M166.416,12.233V4.452h2.055v7.781H166.416z"/>
	<path d="M170.066,8.236c0-0.684,0.168-1.346,0.505-1.985c0.337-0.64,0.815-1.128,1.433-1.466c0.618-0.337,1.308-0.505,2.07-0.505
		c1.177,0,2.142,0.382,2.895,1.147c0.752,0.764,1.128,1.73,1.128,2.897c0,1.177-0.38,2.153-1.14,2.927
		c-0.759,0.774-1.716,1.161-2.869,1.161c-0.713,0-1.394-0.161-2.041-0.483c-0.647-0.323-1.139-0.795-1.477-1.418
		C170.234,9.889,170.066,9.13,170.066,8.236z M172.175,8.346c0,0.771,0.183,1.362,0.55,1.772c0.367,0.41,0.819,0.615,1.356,0.615
		c0.538,0,0.989-0.205,1.353-0.615c0.364-0.41,0.546-1.006,0.546-1.787c0-0.761-0.182-1.347-0.546-1.757
		c-0.364-0.41-0.814-0.615-1.353-0.615c-0.537,0-0.989,0.205-1.356,0.615C172.358,6.984,172.175,7.575,172.175,8.346z"/>
	<path d="M186.75,12.233h-2.055V8.266c0-0.839-0.044-1.382-0.133-1.628c-0.088-0.247-0.232-0.438-0.431-0.575
		c-0.199-0.137-0.438-0.205-0.718-0.205c-0.359,0-0.681,0.098-0.965,0.293c-0.285,0.195-0.48,0.454-0.586,0.776
		c-0.106,0.322-0.159,0.917-0.159,1.786v3.521h-2.055V4.452h1.914v1.143c0.68-0.876,1.536-1.314,2.568-1.314
		c0.455,0,0.871,0.082,1.248,0.246c0.376,0.163,0.662,0.372,0.855,0.626c0.193,0.254,0.328,0.542,0.403,0.864
		s0.114,0.783,0.114,1.384V12.233z"/>
</g>
<g>
	<g>
		<g>
			<g>
				<path fill="#D899B5" d="M109.816,142.53L3.297,169.231c-2.242-8.939-3.285-17.34-3.297-26.559L109.816,142.53z"/>
			</g>
		</g>
		<g>
			<g>
				<path fill="#99CAD2" d="M109.816,142.53l-95.979,53.361c-4.836-8.689-8.121-17.012-10.541-26.66L109.816,142.53z"/>
			</g>
		</g>
		<g>
			<g>
				<path fill="#AFAAA9" d="M109.816,142.53L43.84,230.319c-12.801-9.621-22.221-20.434-30.002-34.428L109.816,142.53z"/>
			</g>
		</g>
		<g>
			<g>
				<path fill="#FFD441" d="M109.816,142.53L92.777,251.014c-18.695-2.938-33.812-9.328-48.938-20.695L109.816,142.53z"/>
			</g>
		</g>
		<g>
			<g>
				<path fill="#9E0047" d="M109.816,142.53l49.984,97.783c-21.82,11.15-42.818,14.508-67.023,10.701L109.816,142.53z"/>
			</g>
		</g>
		<g>
			<g>
				<path fill="#3395A5" d="M109.816,142.53L0,142.672C-0.078,82.022,49.025,32.792,109.672,32.713
					c60.652-0.08,109.88,49.025,109.958,109.676c0.057,42.693-21.816,78.488-59.83,97.923L109.816,142.53z"/>
			</g>
		</g>
	</g>
	<g>
		<g>
		</g>
		<g>
		</g>
		<g>
		</g>
		<g>
		</g>
		<g>
		</g>
		<g>
		</g>
	</g>
</g>
<circle fill="#FFFFFF" cx="109.837" cy="142.672" r="43.17"/>
<rect x="239.861" y="63.256" fill="#3395A5" width="35" height="35"/>
<g enable-background="new    ">
	<path d="M284.166,86.668l4.119-10.742h1.542l4.384,10.742h-1.618l-1.241-3.25h-4.508l-1.173,3.25H284.166z M287.254,82.262h3.651
		l-1.123-2.977c-0.341-0.903-0.596-1.648-0.764-2.234c-0.142,0.692-0.336,1.377-0.583,2.056L287.254,82.262z"/>
	<path d="M294.664,84.34l1.305-0.203c0.074,0.522,0.278,0.922,0.613,1.2c0.336,0.278,0.805,0.417,1.407,0.417
		c0.607,0,1.058-0.123,1.352-0.369c0.294-0.246,0.44-0.535,0.44-0.866c0-0.297-0.131-0.531-0.393-0.702
		c-0.183-0.117-0.634-0.266-1.354-0.446c-0.969-0.244-1.64-0.455-2.014-0.633c-0.373-0.178-0.656-0.425-0.849-0.74
		c-0.193-0.314-0.29-0.662-0.29-1.043c0-0.347,0.08-0.667,0.238-0.963c0.159-0.295,0.375-0.541,0.649-0.736
		c0.205-0.151,0.485-0.28,0.839-0.384c0.354-0.105,0.734-0.158,1.141-0.158c0.611,0,1.147,0.088,1.609,0.263
		c0.462,0.176,0.803,0.414,1.022,0.713s0.372,0.701,0.454,1.203l-1.289,0.18c-0.059-0.4-0.229-0.712-0.51-0.937
		c-0.281-0.224-0.679-0.336-1.192-0.336c-0.606,0-1.04,0.1-1.299,0.299c-0.26,0.2-0.39,0.434-0.39,0.702
		c0,0.17,0.055,0.324,0.162,0.46c0.107,0.141,0.276,0.258,0.506,0.351c0.133,0.049,0.521,0.161,1.167,0.336
		c0.935,0.249,1.587,0.453,1.956,0.612s0.66,0.389,0.87,0.692s0.315,0.678,0.315,1.127c0,0.439-0.128,0.853-0.385,1.241
		c-0.257,0.388-0.627,0.688-1.111,0.901s-1.031,0.318-1.643,0.318c-1.012,0-1.783-0.21-2.314-0.63
		C295.15,85.79,294.811,85.167,294.664,84.34z"/>
	<path d="M302.54,77.442v-1.516h1.32v1.516H302.54z M302.54,86.668v-7.781h1.32v7.781H302.54z"/>
	<path d="M310.797,85.708c-0.488,0.414-0.958,0.707-1.41,0.877c-0.451,0.17-0.936,0.256-1.453,0.256
		c-0.855,0-1.512-0.208-1.972-0.626c-0.459-0.417-0.688-0.95-0.688-1.599c0-0.381,0.087-0.729,0.26-1.043
		c0.174-0.315,0.4-0.567,0.682-0.758s0.598-0.334,0.949-0.432c0.259-0.068,0.649-0.134,1.172-0.198
		c1.064-0.126,1.849-0.278,2.352-0.454c0.006-0.18,0.008-0.294,0.008-0.343c0-0.536-0.125-0.914-0.374-1.133
		c-0.337-0.297-0.838-0.446-1.502-0.446c-0.62,0-1.079,0.109-1.374,0.327c-0.296,0.218-0.515,0.604-0.656,1.157l-1.289-0.18
		c0.117-0.552,0.311-0.999,0.579-1.338s0.657-0.602,1.165-0.785c0.508-0.183,1.098-0.275,1.767-0.275
		c0.665,0,1.204,0.078,1.62,0.235c0.415,0.156,0.721,0.354,0.916,0.59c0.195,0.237,0.332,0.537,0.41,0.899
		c0.045,0.225,0.066,0.63,0.066,1.215v1.756c0,1.224,0.027,1.999,0.084,2.324c0.055,0.325,0.166,0.636,0.33,0.935h-1.375
		C310.925,86.395,310.836,86.074,310.797,85.708z M310.688,82.762c-0.479,0.195-1.197,0.361-2.154,0.498
		c-0.542,0.078-0.926,0.166-1.15,0.264s-0.398,0.241-0.52,0.428c-0.123,0.188-0.184,0.397-0.184,0.626
		c0,0.352,0.133,0.645,0.399,0.879s0.655,0.352,1.169,0.352c0.508,0,0.959-0.111,1.355-0.333c0.396-0.222,0.687-0.525,0.872-0.911
		c0.142-0.298,0.212-0.738,0.212-1.319V82.762z"/>
	<path d="M313.9,86.668v-7.781h1.188v1.106c0.571-0.852,1.396-1.278,2.476-1.278c0.468,0,0.899,0.084,1.292,0.252
		c0.393,0.169,0.688,0.39,0.883,0.663s0.332,0.598,0.41,0.974c0.049,0.244,0.072,0.672,0.072,1.282v4.782h-1.32v-4.732
		c0-0.537-0.051-0.939-0.153-1.205s-0.284-0.479-0.545-0.637s-0.567-0.238-0.918-0.238c-0.562,0-1.045,0.178-1.452,0.535
		s-0.611,1.033-0.611,2.029v4.249H313.9z"/>
	<path d="M321.329,86.848l3.109-11.102h1.062l-3.109,11.102H321.329z"/>
	<path d="M324.954,86.668l4.12-10.742h1.541l4.384,10.742h-1.618l-1.241-3.25h-4.508l-1.173,3.25H324.954z M328.043,82.262h3.65
		l-1.123-2.977c-0.342-0.903-0.596-1.648-0.764-2.234c-0.142,0.692-0.336,1.377-0.584,2.056L328.043,82.262z"/>
	<path d="M335.452,84.34l1.305-0.203c0.073,0.522,0.278,0.922,0.613,1.2c0.336,0.278,0.805,0.417,1.407,0.417
		c0.606,0,1.058-0.123,1.352-0.369c0.293-0.246,0.44-0.535,0.44-0.866c0-0.297-0.131-0.531-0.393-0.702
		c-0.184-0.117-0.635-0.266-1.354-0.446c-0.969-0.244-1.64-0.455-2.014-0.633c-0.373-0.178-0.656-0.425-0.85-0.74
		c-0.192-0.314-0.289-0.662-0.289-1.043c0-0.347,0.079-0.667,0.238-0.963s0.375-0.541,0.648-0.736
		c0.206-0.151,0.485-0.28,0.84-0.384c0.354-0.105,0.734-0.158,1.14-0.158c0.611,0,1.147,0.088,1.609,0.263
		c0.462,0.176,0.803,0.414,1.023,0.713c0.22,0.3,0.371,0.701,0.454,1.203l-1.289,0.18c-0.059-0.4-0.229-0.712-0.51-0.937
		c-0.281-0.224-0.679-0.336-1.192-0.336c-0.607,0-1.04,0.1-1.3,0.299c-0.259,0.2-0.389,0.434-0.389,0.702
		c0,0.17,0.054,0.324,0.161,0.46c0.107,0.141,0.276,0.258,0.507,0.351c0.132,0.049,0.521,0.161,1.167,0.336
		c0.935,0.249,1.586,0.453,1.956,0.612c0.369,0.159,0.659,0.389,0.87,0.692c0.21,0.303,0.315,0.678,0.315,1.127
		c0,0.439-0.128,0.853-0.385,1.241c-0.257,0.388-0.628,0.688-1.111,0.901c-0.484,0.212-1.032,0.318-1.643,0.318
		c-1.013,0-1.784-0.21-2.314-0.63S335.599,85.167,335.452,84.34z"/>
	<path d="M343.328,77.442v-1.516h1.32v1.516H343.328z M343.328,86.668v-7.781h1.32v7.781H343.328z"/>
	<path d="M351.585,85.708c-0.488,0.414-0.958,0.707-1.409,0.877c-0.452,0.17-0.938,0.256-1.455,0.256
		c-0.854,0-1.512-0.208-1.971-0.626c-0.459-0.417-0.688-0.95-0.688-1.599c0-0.381,0.087-0.729,0.26-1.043
		c0.174-0.315,0.401-0.567,0.682-0.758c0.281-0.19,0.597-0.334,0.949-0.432c0.259-0.068,0.649-0.134,1.172-0.198
		c1.065-0.126,1.849-0.278,2.353-0.454c0.004-0.18,0.007-0.294,0.007-0.343c0-0.536-0.125-0.914-0.374-1.133
		c-0.337-0.297-0.838-0.446-1.502-0.446c-0.621,0-1.079,0.109-1.374,0.327c-0.296,0.218-0.515,0.604-0.656,1.157l-1.289-0.18
		c0.117-0.552,0.311-0.999,0.579-1.338s0.657-0.602,1.165-0.785c0.509-0.183,1.098-0.275,1.767-0.275
		c0.665,0,1.205,0.078,1.62,0.235c0.415,0.156,0.721,0.354,0.916,0.59c0.195,0.237,0.332,0.537,0.411,0.899
		c0.043,0.225,0.065,0.63,0.065,1.215v1.756c0,1.224,0.028,1.999,0.083,2.324c0.057,0.325,0.166,0.636,0.331,0.935h-1.375
		C351.713,86.395,351.624,86.074,351.585,85.708z M351.476,82.762c-0.479,0.195-1.196,0.361-2.154,0.498
		c-0.542,0.078-0.926,0.166-1.15,0.264s-0.397,0.241-0.521,0.428c-0.121,0.188-0.183,0.397-0.183,0.626
		c0,0.352,0.133,0.645,0.399,0.879c0.266,0.234,0.656,0.352,1.169,0.352c0.508,0,0.96-0.111,1.355-0.333s0.687-0.525,0.872-0.911
		c0.142-0.298,0.213-0.738,0.213-1.319L351.476,82.762z"/>
	<path d="M354.688,86.668v-7.781h1.188v1.106c0.571-0.852,1.396-1.278,2.475-1.278c0.469,0,0.899,0.084,1.293,0.252
		c0.393,0.169,0.687,0.39,0.882,0.663s0.332,0.598,0.41,0.974c0.049,0.244,0.073,0.672,0.073,1.282v4.782h-1.32v-4.732
		c0-0.537-0.052-0.939-0.153-1.205c-0.103-0.266-0.284-0.479-0.545-0.637c-0.262-0.159-0.567-0.238-0.918-0.238
		c-0.562,0-1.045,0.178-1.453,0.535c-0.406,0.356-0.61,1.033-0.61,2.029v4.249H354.688z"/>
	<path d="M367.308,86.668V75.926h4.027c0.82,0,1.478,0.109,1.974,0.327c0.495,0.217,0.883,0.552,1.164,1.004
		c0.28,0.453,0.421,0.925,0.421,1.419c0,0.459-0.124,0.892-0.373,1.298c-0.249,0.406-0.625,0.733-1.128,0.983
		c0.65,0.19,1.15,0.515,1.5,0.974c0.35,0.459,0.524,1.001,0.524,1.625c0,0.503-0.106,0.97-0.318,1.402
		c-0.213,0.432-0.476,0.765-0.788,0.999c-0.312,0.234-0.704,0.412-1.176,0.531c-0.471,0.12-1.049,0.179-1.732,0.179H367.308z
		 M368.729,80.442h2.32c0.63,0,1.081-0.042,1.354-0.125c0.361-0.108,0.633-0.286,0.816-0.536c0.183-0.25,0.274-0.562,0.274-0.939
		c0-0.357-0.085-0.671-0.256-0.943s-0.415-0.458-0.732-0.558s-0.861-0.15-1.633-0.15h-2.145V80.442z M368.729,85.403h2.675
		c0.46,0,0.782-0.017,0.968-0.051c0.327-0.059,0.602-0.156,0.821-0.293c0.22-0.137,0.4-0.336,0.542-0.597
		c0.142-0.262,0.213-0.563,0.213-0.906c0-0.401-0.104-0.749-0.311-1.045c-0.207-0.295-0.493-0.503-0.856-0.623
		s-0.887-0.18-1.57-0.18h-2.481V85.403z"/>
	<path d="M377.094,86.668v-7.781h1.188v1.18c0.302-0.551,0.581-0.914,0.836-1.089c0.256-0.175,0.537-0.263,0.844-0.263
		c0.443,0,0.894,0.14,1.352,0.421l-0.461,1.219c-0.32-0.188-0.64-0.281-0.96-0.281c-0.286,0-0.543,0.087-0.771,0.26
		s-0.391,0.414-0.488,0.722c-0.146,0.469-0.219,0.981-0.219,1.538v4.074H377.094z"/>
	<path d="M382.22,77.442v-1.516h1.32v1.516H382.22z M382.22,86.668v-7.781h1.32v7.781H382.22z"/>
	<path d="M388.308,85.488l0.188,1.165c-0.371,0.079-0.703,0.118-0.996,0.118c-0.479,0-0.851-0.076-1.114-0.227
		s-0.449-0.351-0.557-0.598c-0.107-0.247-0.161-0.766-0.161-1.557v-4.478h-0.977v-1.023h0.977v-1.926l1.32-0.791v2.717h1.32v1.023
		h-1.32v4.548c0,0.376,0.023,0.618,0.069,0.725s0.121,0.193,0.227,0.256c0.104,0.063,0.254,0.095,0.448,0.095
		C387.877,85.536,388.069,85.52,388.308,85.488z"/>
	<path d="M389.543,77.442v-1.516h1.32v1.516H389.543z M389.543,86.668v-7.781h1.32v7.781H389.543z"/>
	<path d="M392.21,84.34l1.305-0.203c0.073,0.522,0.278,0.922,0.613,1.2c0.336,0.278,0.805,0.417,1.407,0.417
		c0.606,0,1.058-0.123,1.352-0.369c0.293-0.246,0.44-0.535,0.44-0.866c0-0.297-0.131-0.531-0.393-0.702
		c-0.184-0.117-0.635-0.266-1.354-0.446c-0.969-0.244-1.64-0.455-2.014-0.633c-0.373-0.178-0.656-0.425-0.85-0.74
		c-0.192-0.314-0.289-0.662-0.289-1.043c0-0.347,0.079-0.667,0.238-0.963s0.375-0.541,0.648-0.736
		c0.206-0.151,0.485-0.28,0.84-0.384c0.354-0.105,0.734-0.158,1.14-0.158c0.611,0,1.147,0.088,1.609,0.263
		c0.462,0.176,0.803,0.414,1.023,0.713c0.22,0.3,0.371,0.701,0.454,1.203l-1.289,0.18c-0.059-0.4-0.229-0.712-0.51-0.937
		c-0.281-0.224-0.679-0.336-1.192-0.336c-0.607,0-1.04,0.1-1.3,0.299c-0.259,0.2-0.389,0.434-0.389,0.702
		c0,0.17,0.054,0.324,0.161,0.46c0.107,0.141,0.276,0.258,0.507,0.351c0.132,0.049,0.521,0.161,1.167,0.336
		c0.935,0.249,1.586,0.453,1.956,0.612c0.369,0.159,0.659,0.389,0.87,0.692c0.21,0.303,0.315,0.678,0.315,1.127
		c0,0.439-0.128,0.853-0.385,1.241c-0.257,0.388-0.628,0.688-1.111,0.901c-0.484,0.212-1.032,0.318-1.643,0.318
		c-1.013,0-1.784-0.21-2.314-0.63S392.356,85.167,392.21,84.34z"/>
	<path d="M400.078,86.668V75.926h1.32v3.856c0.615-0.711,1.391-1.067,2.328-1.067c0.576,0,1.076,0.114,1.501,0.34
		c0.425,0.228,0.729,0.541,0.912,0.941c0.183,0.4,0.274,0.981,0.274,1.743v4.929h-1.32v-4.93c0-0.659-0.143-1.139-0.428-1.439
		c-0.286-0.3-0.689-0.451-1.211-0.451c-0.391,0-0.758,0.102-1.102,0.304s-0.589,0.478-0.735,0.824s-0.22,0.825-0.22,1.436v4.256
		H400.078z"/>
</g>
<g enable-background="new    ">
	<path d="M240.288,53.002V42.26h1.422v5.324l5.333-5.324h1.925l-4.505,4.359l4.7,6.383h-1.875l-3.818-5.422l-1.76,1.703v3.719
		H240.288z"/>
	<path d="M255.11,50.479l1.361,0.18c-0.215,0.797-0.613,1.416-1.194,1.855s-1.323,0.66-2.227,0.66c-1.139,0-2.041-0.35-2.707-1.05
		c-0.667-0.7-1-1.683-1-2.946c0-1.308,0.337-2.323,1.011-3.045s1.548-1.083,2.623-1.083c1.04,0,1.89,0.354,2.549,1.061
		c0.659,0.708,0.989,1.703,0.989,2.986c0,0.078-0.002,0.195-0.008,0.351h-5.812c0.049,0.854,0.291,1.507,0.728,1.96
		c0.436,0.454,0.979,0.68,1.631,0.68c0.484,0,0.898-0.128,1.241-0.384S254.91,51.04,255.11,50.479z M250.766,48.362h4.359
		c-0.059-0.652-0.226-1.141-0.5-1.467c-0.422-0.506-0.968-0.759-1.639-0.759c-0.608,0-1.119,0.202-1.533,0.606
		S250.81,47.686,250.766,48.362z"/>
	<path d="M257.674,55.998l-0.148-1.237c0.289,0.078,0.541,0.117,0.756,0.117c0.294,0,0.529-0.049,0.705-0.146s0.32-0.234,0.433-0.41
		c0.083-0.132,0.218-0.459,0.403-0.982c0.024-0.073,0.064-0.181,0.117-0.322l-2.953-7.795h1.412l1.623,4.504
		c0.21,0.571,0.398,1.172,0.564,1.802c0.154-0.603,0.338-1.192,0.549-1.768l1.664-4.538h1.318l-2.953,7.916
		c-0.318,0.854-0.565,1.441-0.742,1.763c-0.234,0.434-0.504,0.752-0.808,0.955s-0.667,0.304-1.088,0.304
		C258.271,56.159,257.988,56.105,257.674,55.998z"/>
</g>
<g>
	<g enable-background="new    ">
		<path fill="#FFFFFF" d="M251.088,78.69l-1.992,0.219c-0.049-0.408-0.176-0.709-0.383-0.904c-0.205-0.194-0.471-0.292-0.799-0.292
			c-0.436,0-0.805,0.195-1.105,0.584s-0.49,1.2-0.568,2.434c0.514-0.605,1.15-0.908,1.912-0.908c0.861,0,1.598,0.327,2.211,0.981
			s0.92,1.499,0.92,2.534c0,1.099-0.322,1.98-0.967,2.645s-1.473,0.996-2.484,0.996c-1.084,0-1.975-0.421-2.674-1.263
			c-0.699-0.842-1.047-2.222-1.047-4.14c0-1.967,0.363-3.385,1.092-4.254c0.727-0.869,1.672-1.303,2.836-1.303
			c0.816,0,1.49,0.228,2.025,0.685C250.6,77.159,250.941,77.822,251.088,78.69z M246.416,83.179c0,0.67,0.154,1.187,0.461,1.551
			c0.309,0.364,0.66,0.546,1.057,0.546c0.381,0,0.697-0.149,0.953-0.447c0.254-0.298,0.381-0.787,0.381-1.466
			c0-0.699-0.137-1.211-0.41-1.536c-0.275-0.325-0.617-0.488-1.027-0.488c-0.396,0-0.73,0.155-1.004,0.466
			S246.416,82.573,246.416,83.179z"/>
		<path fill="#FFFFFF" d="M252.346,78.12v-1.914h7.039v1.492c-0.582,0.572-1.172,1.393-1.771,2.462
			c-0.602,1.07-1.059,2.207-1.373,3.411c-0.314,1.205-0.471,2.28-0.465,3.228h-1.984c0.033-1.484,0.34-2.998,0.918-4.541
			s1.352-2.923,2.318-4.139H252.346z"/>
		<path fill="#FFFFFF" d="M259.637,86.8v-2.055h2.055V86.8H259.637z"/>
		<path fill="#FFFFFF" d="M270.146,78.69l-1.992,0.219c-0.049-0.408-0.176-0.709-0.381-0.904s-0.473-0.292-0.801-0.292
			c-0.436,0-0.803,0.195-1.104,0.584c-0.303,0.389-0.492,1.2-0.57,2.434c0.514-0.605,1.152-0.908,1.914-0.908
			c0.859,0,1.596,0.327,2.209,0.981s0.92,1.499,0.92,2.534c0,1.099-0.322,1.98-0.967,2.645s-1.473,0.996-2.482,0.996
			c-1.086,0-1.977-0.421-2.674-1.263c-0.699-0.842-1.049-2.222-1.049-4.14c0-1.967,0.365-3.385,1.092-4.254
			c0.729-0.869,1.674-1.303,2.836-1.303c0.816,0,1.492,0.228,2.027,0.685C269.66,77.159,270,77.822,270.146,78.69z M265.475,83.179
			c0,0.67,0.154,1.187,0.463,1.551c0.307,0.364,0.658,0.546,1.055,0.546c0.381,0,0.699-0.149,0.953-0.447
			c0.254-0.298,0.381-0.787,0.381-1.466c0-0.699-0.137-1.211-0.41-1.536c-0.273-0.325-0.615-0.488-1.025-0.488
			c-0.396,0-0.73,0.155-1.006,0.466C265.611,82.115,265.475,82.573,265.475,83.179z"/>
	</g>
</g>
<rect x="239.861" y="108.422" fill="#9E0047" width="35" height="35"/>
<g enable-background="new    ">
	<path d="M285.288,122.169v-10.742h4.027c0.82,0,1.478,0.109,1.974,0.327c0.495,0.217,0.883,0.552,1.164,1.004
		c0.28,0.453,0.421,0.925,0.421,1.419c0,0.459-0.124,0.892-0.374,1.298c-0.248,0.406-0.624,0.733-1.127,0.983
		c0.65,0.19,1.15,0.515,1.5,0.974c0.35,0.459,0.524,1.001,0.524,1.625c0,0.503-0.106,0.97-0.319,1.402
		c-0.212,0.432-0.475,0.765-0.787,0.999c-0.312,0.234-0.704,0.412-1.176,0.531c-0.471,0.12-1.049,0.179-1.732,0.179H285.288z
		 M286.71,115.943h2.32c0.63,0,1.081-0.042,1.354-0.125c0.361-0.108,0.633-0.286,0.816-0.536c0.183-0.25,0.274-0.562,0.274-0.939
		c0-0.357-0.085-0.671-0.257-0.943c-0.17-0.271-0.414-0.458-0.731-0.558s-0.861-0.15-1.632-0.15h-2.146V115.943z M286.71,120.904
		h2.675c0.46,0,0.782-0.017,0.968-0.051c0.327-0.059,0.601-0.156,0.821-0.293c0.22-0.137,0.4-0.336,0.542-0.597
		c0.142-0.262,0.213-0.563,0.213-0.906c0-0.401-0.104-0.749-0.311-1.045c-0.208-0.295-0.493-0.503-0.856-0.623
		s-0.887-0.18-1.57-0.18h-2.481V120.904z"/>
	<path d="M295.058,122.169v-10.742h1.32v10.742H295.058z"/>
	<path d="M303.355,121.208c-0.488,0.414-0.958,0.707-1.41,0.877c-0.451,0.17-0.936,0.256-1.453,0.256
		c-0.855,0-1.512-0.208-1.972-0.626c-0.459-0.417-0.688-0.95-0.688-1.599c0-0.381,0.087-0.729,0.26-1.043
		c0.174-0.315,0.4-0.567,0.682-0.758s0.598-0.334,0.949-0.432c0.259-0.068,0.649-0.134,1.172-0.198
		c1.064-0.126,1.849-0.278,2.352-0.454c0.006-0.18,0.008-0.294,0.008-0.343c0-0.536-0.125-0.914-0.374-1.133
		c-0.337-0.297-0.838-0.446-1.502-0.446c-0.62,0-1.079,0.109-1.374,0.327c-0.296,0.218-0.515,0.604-0.656,1.157l-1.289-0.18
		c0.117-0.552,0.311-0.999,0.579-1.338s0.657-0.602,1.165-0.785c0.508-0.183,1.098-0.275,1.767-0.275
		c0.665,0,1.204,0.078,1.62,0.235c0.415,0.156,0.721,0.354,0.916,0.59c0.195,0.237,0.332,0.537,0.41,0.899
		c0.045,0.225,0.066,0.63,0.066,1.215v1.756c0,1.224,0.027,1.999,0.084,2.324c0.055,0.325,0.166,0.636,0.33,0.935h-1.375
		C303.483,121.896,303.395,121.575,303.355,121.208z M303.246,118.263c-0.479,0.195-1.197,0.361-2.154,0.498
		c-0.542,0.078-0.926,0.166-1.15,0.264s-0.398,0.241-0.52,0.428c-0.123,0.188-0.184,0.397-0.184,0.626
		c0,0.352,0.133,0.645,0.399,0.879s0.655,0.352,1.169,0.352c0.508,0,0.959-0.111,1.355-0.333c0.396-0.222,0.687-0.525,0.872-0.911
		c0.142-0.298,0.212-0.738,0.212-1.319V118.263z"/>
	<path d="M311.518,119.318l1.297,0.18c-0.142,0.89-0.504,1.586-1.088,2.089c-0.583,0.503-1.299,0.754-2.148,0.754
		c-1.064,0-1.92-0.348-2.566-1.043c-0.647-0.695-0.971-1.692-0.971-2.99c0-0.839,0.139-1.574,0.418-2.203
		c0.277-0.629,0.701-1.102,1.27-1.417s1.188-0.472,1.856-0.472c0.845,0,1.535,0.213,2.072,0.641c0.536,0.427,0.881,1.034,1.032,1.82
		l-1.281,0.195c-0.122-0.521-0.338-0.913-0.648-1.176c-0.311-0.263-0.686-0.395-1.125-0.395c-0.664,0-1.204,0.238-1.619,0.713
		c-0.416,0.475-0.623,1.227-0.623,2.256c0,1.043,0.2,1.802,0.601,2.274c0.4,0.473,0.923,0.709,1.568,0.709
		c0.518,0,0.95-0.158,1.297-0.475S311.425,119.976,311.518,119.318z"/>
	<path d="M313.945,122.169v-10.742h1.32v6.126l3.118-3.165h1.706l-2.971,2.891l3.268,4.89h-1.625l-2.576-3.982l-0.92,0.896v3.086
		H313.945z"/>
	<path d="M321.018,122.349l3.109-11.102h1.062l-3.109,11.102H321.018z"/>
	<path d="M324.643,122.169l4.119-10.742h1.542l4.384,10.742h-1.618l-1.241-3.25h-4.508l-1.173,3.25H324.643z M327.73,117.763h3.651
		l-1.123-2.977c-0.341-0.903-0.596-1.648-0.764-2.234c-0.142,0.692-0.336,1.377-0.583,2.056L327.73,117.763z"/>
	<path d="M335.938,122.169v-6.758h-1.164v-1.023h1.164v-0.827c0-0.522,0.047-0.91,0.14-1.164c0.127-0.341,0.351-0.619,0.671-0.831
		s0.768-0.318,1.344-0.318c0.371,0,0.781,0.044,1.23,0.132l-0.197,1.152c-0.273-0.049-0.532-0.073-0.776-0.073
		c-0.4,0-0.684,0.085-0.85,0.256s-0.249,0.49-0.249,0.958v0.716h1.516v1.023h-1.508v6.758H335.938z"/>
	<path d="M339.777,122.169v-7.781h1.188v1.18c0.302-0.551,0.581-0.914,0.836-1.089c0.256-0.175,0.537-0.263,0.844-0.263
		c0.443,0,0.894,0.14,1.352,0.421l-0.461,1.219c-0.32-0.188-0.64-0.281-0.96-0.281c-0.286,0-0.543,0.087-0.771,0.26
		s-0.391,0.414-0.488,0.722c-0.146,0.469-0.219,0.981-0.219,1.538v4.074H339.777z"/>
	<path d="M344.904,112.943v-1.516h1.32v1.516H344.904z M344.904,122.169v-7.781h1.32v7.781H344.904z"/>
	<path d="M353.176,119.318l1.297,0.18c-0.142,0.89-0.504,1.586-1.088,2.089c-0.583,0.503-1.299,0.754-2.148,0.754
		c-1.064,0-1.92-0.348-2.566-1.043c-0.647-0.695-0.971-1.692-0.971-2.99c0-0.839,0.139-1.574,0.417-2.203s0.702-1.102,1.271-1.417
		s1.188-0.472,1.856-0.472c0.845,0,1.535,0.213,2.072,0.641c0.537,0.427,0.881,1.034,1.032,1.82l-1.281,0.195
		c-0.122-0.521-0.338-0.913-0.648-1.176c-0.311-0.263-0.686-0.395-1.125-0.395c-0.664,0-1.204,0.238-1.619,0.713
		c-0.416,0.475-0.623,1.227-0.623,2.256c0,1.043,0.2,1.802,0.601,2.274c0.4,0.473,0.923,0.709,1.568,0.709
		c0.518,0,0.95-0.158,1.297-0.475S353.083,119.976,353.176,119.318z"/>
	<path d="M360.829,121.208c-0.488,0.414-0.958,0.707-1.409,0.877c-0.452,0.17-0.938,0.256-1.455,0.256
		c-0.854,0-1.512-0.208-1.971-0.626c-0.459-0.417-0.688-0.95-0.688-1.599c0-0.381,0.087-0.729,0.26-1.043
		c0.174-0.315,0.401-0.567,0.682-0.758c0.281-0.19,0.597-0.334,0.949-0.432c0.259-0.068,0.649-0.134,1.172-0.198
		c1.065-0.126,1.849-0.278,2.353-0.454c0.004-0.18,0.007-0.294,0.007-0.343c0-0.536-0.125-0.914-0.374-1.133
		c-0.337-0.297-0.838-0.446-1.502-0.446c-0.621,0-1.079,0.109-1.374,0.327c-0.296,0.218-0.515,0.604-0.656,1.157l-1.289-0.18
		c0.117-0.552,0.311-0.999,0.579-1.338s0.657-0.602,1.165-0.785c0.509-0.183,1.098-0.275,1.767-0.275
		c0.665,0,1.205,0.078,1.62,0.235c0.415,0.156,0.721,0.354,0.916,0.59c0.195,0.237,0.332,0.537,0.411,0.899
		c0.043,0.225,0.065,0.63,0.065,1.215v1.756c0,1.224,0.028,1.999,0.083,2.324c0.057,0.325,0.166,0.636,0.331,0.935h-1.375
		C360.957,121.896,360.868,121.575,360.829,121.208z M360.72,118.263c-0.479,0.195-1.196,0.361-2.154,0.498
		c-0.542,0.078-0.926,0.166-1.15,0.264s-0.397,0.241-0.521,0.428c-0.121,0.188-0.183,0.397-0.183,0.626
		c0,0.352,0.133,0.645,0.399,0.879c0.266,0.234,0.656,0.352,1.169,0.352c0.508,0,0.96-0.111,1.355-0.333s0.687-0.525,0.872-0.911
		c0.142-0.298,0.213-0.738,0.213-1.319L360.72,118.263z"/>
	<path d="M363.934,122.169v-7.781h1.188v1.106c0.571-0.852,1.396-1.278,2.475-1.278c0.469,0,0.899,0.084,1.293,0.252
		c0.393,0.169,0.687,0.39,0.882,0.663s0.332,0.598,0.41,0.974c0.049,0.244,0.073,0.672,0.073,1.282v4.782h-1.32v-4.732
		c0-0.537-0.051-0.939-0.153-1.205s-0.284-0.479-0.545-0.637c-0.262-0.159-0.567-0.238-0.919-0.238
		c-0.561,0-1.045,0.178-1.451,0.535c-0.408,0.356-0.611,1.033-0.611,2.029v4.249H363.934z"/>
	<path d="M371.361,122.349l3.109-11.102h1.062l-3.11,11.102H371.361z"/>
	<path d="M384.093,118.398l1.422,0.359c-0.298,1.168-0.834,2.059-1.607,2.672c-0.774,0.613-1.72,0.92-2.839,0.92
		c-1.156,0-2.098-0.236-2.823-0.707c-0.725-0.472-1.276-1.154-1.655-2.048c-0.378-0.894-0.567-1.854-0.567-2.88
		c0-1.119,0.214-2.095,0.642-2.928c0.427-0.833,1.035-1.465,1.824-1.898c0.788-0.432,1.656-0.648,2.604-0.648
		c1.074,0,1.979,0.274,2.711,0.821s1.243,1.317,1.531,2.309l-1.398,0.33c-0.249-0.781-0.61-1.35-1.084-1.707
		s-1.069-0.535-1.787-0.535c-0.825,0-1.515,0.198-2.069,0.593c-0.554,0.396-0.943,0.927-1.168,1.593
		c-0.225,0.667-0.337,1.354-0.337,2.062c0,0.913,0.133,1.71,0.398,2.391c0.267,0.682,0.68,1.19,1.241,1.527
		c0.561,0.337,1.168,0.505,1.822,0.505c0.795,0,1.469-0.229,2.02-0.688C383.524,119.983,383.897,119.302,384.093,118.398z"/>
	<path d="M392.088,121.208c-0.488,0.414-0.958,0.707-1.409,0.877c-0.452,0.17-0.937,0.256-1.455,0.256
		c-0.854,0-1.512-0.208-1.971-0.626c-0.459-0.417-0.688-0.95-0.688-1.599c0-0.381,0.087-0.729,0.26-1.043
		c0.174-0.315,0.4-0.567,0.682-0.758s0.598-0.334,0.949-0.432c0.259-0.068,0.649-0.134,1.172-0.198
		c1.064-0.126,1.849-0.278,2.352-0.454c0.006-0.18,0.008-0.294,0.008-0.343c0-0.536-0.125-0.914-0.374-1.133
		c-0.337-0.297-0.838-0.446-1.502-0.446c-0.621,0-1.079,0.109-1.374,0.327c-0.296,0.218-0.515,0.604-0.656,1.157l-1.289-0.18
		c0.117-0.552,0.311-0.999,0.579-1.338s0.657-0.602,1.165-0.785c0.509-0.183,1.098-0.275,1.767-0.275
		c0.665,0,1.205,0.078,1.62,0.235c0.415,0.156,0.721,0.354,0.916,0.59c0.195,0.237,0.332,0.537,0.41,0.899
		c0.045,0.225,0.066,0.63,0.066,1.215v1.756c0,1.224,0.027,1.999,0.084,2.324c0.055,0.325,0.165,0.636,0.33,0.935h-1.375
		C392.216,121.896,392.127,121.575,392.088,121.208z M391.979,118.263c-0.479,0.195-1.197,0.361-2.154,0.498
		c-0.542,0.078-0.926,0.166-1.15,0.264s-0.398,0.241-0.52,0.428c-0.123,0.188-0.184,0.397-0.184,0.626
		c0,0.352,0.133,0.645,0.399,0.879s0.655,0.352,1.169,0.352c0.508,0,0.96-0.111,1.355-0.333s0.687-0.525,0.872-0.911
		c0.142-0.298,0.212-0.738,0.212-1.319V118.263z"/>
	<path d="M395.184,122.169v-7.781h1.188v1.18c0.302-0.551,0.581-0.914,0.836-1.089c0.256-0.175,0.537-0.263,0.844-0.263
		c0.443,0,0.894,0.14,1.352,0.421l-0.461,1.219c-0.32-0.188-0.64-0.281-0.96-0.281c-0.286,0-0.543,0.087-0.771,0.26
		s-0.391,0.414-0.488,0.722c-0.146,0.469-0.219,0.981-0.219,1.538v4.074H395.184z"/>
	<path d="M400.311,112.943v-1.516h1.32v1.516H400.311z M400.311,122.169v-7.781h1.32v7.781H400.311z"/>
	<path d="M404.697,122.169h-1.227v-10.742h1.32v3.838c0.556-0.7,1.266-1.049,2.129-1.049c0.479,0,0.931,0.096,1.357,0.289
		s0.778,0.464,1.054,0.812c0.275,0.349,0.491,0.77,0.647,1.263c0.156,0.493,0.234,1.02,0.234,1.581c0,1.333-0.329,2.362-0.987,3.089
		c-0.659,0.727-1.448,1.09-2.37,1.09c-0.917,0-1.637-0.384-2.158-1.152V122.169z M404.682,118.22c0,0.931,0.127,1.604,0.38,2.019
		c0.414,0.678,0.975,1.017,1.681,1.017c0.575,0,1.072-0.25,1.49-0.75c0.42-0.5,0.629-1.245,0.629-2.234
		c0-1.014-0.201-1.763-0.603-2.245c-0.402-0.483-0.888-0.724-1.458-0.724c-0.575,0-1.072,0.25-1.49,0.75
		C404.891,116.552,404.682,117.274,404.682,118.22z"/>
	<path d="M412.918,122.169h-1.227v-10.742h1.32v3.838c0.556-0.7,1.266-1.049,2.129-1.049c0.479,0,0.931,0.096,1.357,0.289
		s0.778,0.464,1.054,0.812c0.275,0.349,0.491,0.77,0.647,1.263c0.156,0.493,0.234,1.02,0.234,1.581c0,1.333-0.329,2.362-0.987,3.089
		c-0.659,0.727-1.448,1.09-2.37,1.09c-0.917,0-1.637-0.384-2.158-1.152V122.169z M412.902,118.22c0,0.931,0.127,1.604,0.38,2.019
		c0.414,0.678,0.975,1.017,1.681,1.017c0.575,0,1.072-0.25,1.49-0.75c0.42-0.5,0.629-1.245,0.629-2.234
		c0-1.014-0.201-1.763-0.603-2.245c-0.402-0.483-0.888-0.724-1.458-0.724c-0.575,0-1.072,0.25-1.49,0.75
		C413.111,116.552,412.902,117.274,412.902,118.22z"/>
	<path d="M425.274,119.646l1.361,0.18c-0.215,0.797-0.613,1.416-1.194,1.855s-1.323,0.66-2.227,0.66c-1.139,0-2.041-0.35-2.707-1.05
		c-0.667-0.7-1-1.683-1-2.946c0-1.308,0.337-2.323,1.011-3.045s1.548-1.083,2.623-1.083c1.04,0,1.89,0.354,2.549,1.061
		c0.659,0.708,0.989,1.703,0.989,2.986c0,0.078-0.002,0.195-0.008,0.351h-5.812c0.049,0.854,0.291,1.507,0.728,1.96
		c0.436,0.454,0.979,0.68,1.631,0.68c0.484,0,0.898-0.128,1.241-0.384S425.073,120.207,425.274,119.646z M420.93,117.529h4.359
		c-0.059-0.652-0.226-1.141-0.5-1.467c-0.422-0.506-0.968-0.759-1.64-0.759c-0.607,0-1.118,0.202-1.532,0.606
		S420.974,116.853,420.93,117.529z"/>
	<path d="M433.263,121.208c-0.488,0.414-0.958,0.707-1.409,0.877c-0.452,0.17-0.938,0.256-1.455,0.256
		c-0.854,0-1.512-0.208-1.971-0.626c-0.459-0.417-0.688-0.95-0.688-1.599c0-0.381,0.087-0.729,0.26-1.043
		c0.174-0.315,0.401-0.567,0.682-0.758c0.281-0.19,0.597-0.334,0.949-0.432c0.259-0.068,0.649-0.134,1.172-0.198
		c1.065-0.126,1.849-0.278,2.353-0.454c0.004-0.18,0.007-0.294,0.007-0.343c0-0.536-0.125-0.914-0.374-1.133
		c-0.337-0.297-0.838-0.446-1.502-0.446c-0.621,0-1.079,0.109-1.374,0.327c-0.296,0.218-0.515,0.604-0.656,1.157l-1.289-0.18
		c0.117-0.552,0.311-0.999,0.579-1.338s0.657-0.602,1.165-0.785c0.509-0.183,1.098-0.275,1.767-0.275
		c0.665,0,1.205,0.078,1.62,0.235c0.415,0.156,0.721,0.354,0.916,0.59c0.195,0.237,0.332,0.537,0.411,0.899
		c0.043,0.225,0.065,0.63,0.065,1.215v1.756c0,1.224,0.028,1.999,0.083,2.324c0.057,0.325,0.166,0.636,0.331,0.935h-1.375
		C433.391,121.896,433.302,121.575,433.263,121.208z M433.153,118.263c-0.479,0.195-1.196,0.361-2.154,0.498
		c-0.542,0.078-0.926,0.166-1.15,0.264s-0.397,0.241-0.521,0.428c-0.121,0.188-0.183,0.397-0.183,0.626
		c0,0.352,0.133,0.645,0.399,0.879c0.266,0.234,0.656,0.352,1.169,0.352c0.508,0,0.96-0.111,1.355-0.333s0.687-0.525,0.872-0.911
		c0.142-0.298,0.213-0.738,0.213-1.319L433.153,118.263z"/>
	<path d="M436.366,122.169v-7.781h1.188v1.106c0.571-0.852,1.396-1.278,2.475-1.278c0.469,0,0.899,0.084,1.293,0.252
		c0.393,0.169,0.687,0.39,0.882,0.663s0.332,0.598,0.41,0.974c0.049,0.244,0.073,0.672,0.073,1.282v4.782h-1.32v-4.732
		c0-0.537-0.052-0.939-0.153-1.205c-0.103-0.266-0.284-0.479-0.545-0.637c-0.262-0.159-0.567-0.238-0.918-0.238
		c-0.562,0-1.045,0.178-1.453,0.535c-0.406,0.356-0.61,1.033-0.61,2.029v4.249H436.366z"/>
	<path d="M443.795,122.349l3.109-11.102h1.062l-3.11,11.102H443.795z"/>
	<path d="M285.288,142.169v-10.742h4.027c0.82,0,1.478,0.109,1.974,0.327c0.495,0.217,0.883,0.552,1.164,1.004
		c0.28,0.453,0.421,0.925,0.421,1.419c0,0.459-0.124,0.892-0.374,1.298c-0.248,0.406-0.624,0.733-1.127,0.983
		c0.65,0.19,1.15,0.515,1.5,0.974c0.35,0.459,0.524,1.001,0.524,1.625c0,0.503-0.106,0.97-0.319,1.402
		c-0.212,0.432-0.475,0.765-0.787,0.999c-0.312,0.234-0.704,0.412-1.176,0.531c-0.471,0.12-1.049,0.179-1.732,0.179H285.288z
		 M286.71,135.943h2.32c0.63,0,1.081-0.042,1.354-0.125c0.361-0.108,0.633-0.286,0.816-0.536c0.183-0.25,0.274-0.562,0.274-0.939
		c0-0.357-0.085-0.671-0.257-0.943c-0.17-0.271-0.414-0.458-0.731-0.558s-0.861-0.15-1.632-0.15h-2.146V135.943z M286.71,140.904
		h2.675c0.46,0,0.782-0.017,0.968-0.051c0.327-0.059,0.601-0.156,0.821-0.293c0.22-0.137,0.4-0.336,0.542-0.597
		c0.142-0.262,0.213-0.563,0.213-0.906c0-0.401-0.104-0.749-0.311-1.045c-0.208-0.295-0.493-0.503-0.856-0.623
		s-0.887-0.18-1.57-0.18h-2.481V140.904z"/>
	<path d="M295.058,142.169v-10.742h1.32v10.742H295.058z"/>
	<path d="M303.355,141.208c-0.488,0.414-0.958,0.707-1.41,0.877c-0.451,0.17-0.936,0.256-1.453,0.256
		c-0.855,0-1.512-0.208-1.972-0.626c-0.459-0.417-0.688-0.95-0.688-1.599c0-0.381,0.087-0.729,0.26-1.043
		c0.174-0.315,0.4-0.567,0.682-0.758s0.598-0.334,0.949-0.432c0.259-0.068,0.649-0.134,1.172-0.198
		c1.064-0.126,1.849-0.278,2.352-0.454c0.006-0.18,0.008-0.294,0.008-0.343c0-0.536-0.125-0.914-0.374-1.133
		c-0.337-0.297-0.838-0.446-1.502-0.446c-0.62,0-1.079,0.109-1.374,0.327c-0.296,0.218-0.515,0.604-0.656,1.157l-1.289-0.18
		c0.117-0.552,0.311-0.999,0.579-1.338s0.657-0.602,1.165-0.785c0.508-0.183,1.098-0.275,1.767-0.275
		c0.665,0,1.204,0.078,1.62,0.235c0.415,0.156,0.721,0.354,0.916,0.59c0.195,0.237,0.332,0.537,0.41,0.899
		c0.045,0.225,0.066,0.63,0.066,1.215v1.756c0,1.224,0.027,1.999,0.084,2.324c0.055,0.325,0.166,0.636,0.33,0.935h-1.375
		C303.483,141.896,303.395,141.575,303.355,141.208z M303.246,138.263c-0.479,0.195-1.197,0.361-2.154,0.498
		c-0.542,0.078-0.926,0.166-1.15,0.264s-0.398,0.241-0.52,0.428c-0.123,0.188-0.184,0.397-0.184,0.626
		c0,0.352,0.133,0.645,0.399,0.879s0.655,0.352,1.169,0.352c0.508,0,0.959-0.111,1.355-0.333c0.396-0.222,0.687-0.525,0.872-0.911
		c0.142-0.298,0.212-0.738,0.212-1.319V138.263z"/>
	<path d="M311.518,139.318l1.297,0.18c-0.142,0.89-0.504,1.586-1.088,2.089c-0.583,0.503-1.299,0.754-2.148,0.754
		c-1.064,0-1.92-0.348-2.566-1.043c-0.647-0.695-0.971-1.692-0.971-2.99c0-0.839,0.139-1.574,0.418-2.203
		c0.277-0.629,0.701-1.102,1.27-1.417s1.188-0.472,1.856-0.472c0.845,0,1.535,0.213,2.072,0.641c0.536,0.427,0.881,1.034,1.032,1.82
		l-1.281,0.195c-0.122-0.521-0.338-0.913-0.648-1.176c-0.311-0.263-0.686-0.395-1.125-0.395c-0.664,0-1.204,0.238-1.619,0.713
		c-0.416,0.475-0.623,1.227-0.623,2.256c0,1.043,0.2,1.802,0.601,2.274c0.4,0.473,0.923,0.709,1.568,0.709
		c0.518,0,0.95-0.158,1.297-0.475S311.425,139.976,311.518,139.318z"/>
	<path d="M313.945,142.169v-10.742h1.32v6.126l3.118-3.165h1.706l-2.971,2.891l3.268,4.89h-1.625l-2.576-3.982l-0.92,0.896v3.086
		H313.945z"/>
	<path d="M325.719,142.169v-10.742h4.027c0.819,0,1.478,0.109,1.973,0.327c0.496,0.217,0.884,0.552,1.164,1.004
		c0.281,0.453,0.422,0.925,0.422,1.419c0,0.459-0.125,0.892-0.374,1.298c-0.249,0.406-0.625,0.733-1.128,0.983
		c0.65,0.19,1.15,0.515,1.5,0.974c0.35,0.459,0.525,1.001,0.525,1.625c0,0.503-0.106,0.97-0.319,1.402
		c-0.212,0.432-0.475,0.765-0.787,0.999c-0.312,0.234-0.704,0.412-1.176,0.531s-1.049,0.179-1.732,0.179H325.719z M327.141,135.943
		h2.32c0.629,0,1.08-0.042,1.354-0.125c0.361-0.108,0.634-0.286,0.816-0.536c0.184-0.25,0.275-0.562,0.275-0.939
		c0-0.357-0.086-0.671-0.257-0.943s-0.415-0.458-0.731-0.558c-0.318-0.1-0.861-0.15-1.633-0.15h-2.145V135.943z M327.141,140.904
		h2.675c0.46,0,0.782-0.017,0.968-0.051c0.327-0.059,0.601-0.156,0.82-0.293c0.221-0.137,0.4-0.336,0.543-0.597
		c0.142-0.262,0.213-0.563,0.213-0.906c0-0.401-0.104-0.749-0.312-1.045c-0.207-0.295-0.492-0.503-0.856-0.623
		c-0.363-0.12-0.887-0.18-1.569-0.18h-2.481V140.904z"/>
	<path d="M335.504,142.169v-7.781h1.188v1.18c0.302-0.551,0.581-0.914,0.836-1.089c0.256-0.175,0.537-0.263,0.844-0.263
		c0.443,0,0.894,0.14,1.352,0.421l-0.461,1.219c-0.32-0.188-0.64-0.281-0.96-0.281c-0.286,0-0.543,0.087-0.771,0.26
		s-0.391,0.414-0.488,0.722c-0.146,0.469-0.219,0.981-0.219,1.538v4.074H335.504z"/>
	<path d="M340.63,132.943v-1.516h1.32v1.516H340.63z M340.63,142.169v-7.781h1.32v7.781H340.63z"/>
	<path d="M346.718,140.989l0.188,1.165c-0.371,0.079-0.703,0.118-0.996,0.118c-0.479,0-0.851-0.076-1.114-0.227
		s-0.449-0.351-0.557-0.598c-0.107-0.247-0.161-0.766-0.161-1.557v-4.478h-0.977v-1.023h0.977v-1.926l1.32-0.791v2.717h1.32v1.023
		h-1.32v4.548c0,0.376,0.023,0.618,0.069,0.725s0.121,0.193,0.227,0.256c0.104,0.063,0.254,0.095,0.448,0.095
		C346.287,141.037,346.479,141.021,346.718,140.989z"/>
	<path d="M347.953,132.943v-1.516h1.32v1.516H347.953z M347.953,142.169v-7.781h1.32v7.781H347.953z"/>
	<path d="M350.621,139.841l1.305-0.203c0.073,0.522,0.278,0.922,0.613,1.2c0.336,0.278,0.805,0.417,1.407,0.417
		c0.606,0,1.058-0.123,1.352-0.369c0.294-0.246,0.44-0.535,0.44-0.866c0-0.297-0.131-0.531-0.393-0.702
		c-0.184-0.117-0.635-0.266-1.354-0.446c-0.969-0.244-1.64-0.455-2.014-0.633c-0.373-0.178-0.656-0.425-0.85-0.74
		c-0.192-0.314-0.289-0.662-0.289-1.043c0-0.347,0.079-0.667,0.238-0.963s0.375-0.541,0.648-0.736
		c0.206-0.151,0.485-0.28,0.84-0.384c0.354-0.105,0.734-0.158,1.14-0.158c0.611,0,1.147,0.088,1.609,0.263
		c0.462,0.176,0.803,0.414,1.022,0.713c0.221,0.3,0.372,0.701,0.455,1.203l-1.289,0.18c-0.059-0.4-0.229-0.712-0.51-0.937
		c-0.281-0.224-0.68-0.336-1.193-0.336c-0.606,0-1.039,0.1-1.299,0.299c-0.259,0.2-0.389,0.434-0.389,0.702
		c0,0.17,0.054,0.324,0.161,0.46c0.108,0.141,0.276,0.258,0.507,0.351c0.132,0.049,0.521,0.161,1.167,0.336
		c0.935,0.249,1.586,0.453,1.956,0.612c0.369,0.159,0.659,0.389,0.87,0.692c0.21,0.303,0.315,0.678,0.315,1.127
		c0,0.439-0.129,0.853-0.385,1.241c-0.257,0.388-0.627,0.688-1.111,0.901s-1.032,0.318-1.643,0.318c-1.013,0-1.784-0.21-2.314-0.63
		S350.768,140.667,350.621,139.841z"/>
	<path d="M358.488,142.169v-10.742h1.32v3.856c0.615-0.711,1.391-1.067,2.328-1.067c0.576,0,1.076,0.114,1.501,0.34
		c0.425,0.228,0.729,0.541,0.912,0.941c0.183,0.4,0.274,0.981,0.274,1.743v4.929h-1.32v-4.93c0-0.659-0.143-1.139-0.428-1.439
		c-0.286-0.3-0.689-0.451-1.211-0.451c-0.391,0-0.758,0.102-1.102,0.304s-0.589,0.478-0.735,0.824s-0.22,0.825-0.22,1.436v4.256
		H358.488z"/>
</g>
<g>
	<g enable-background="new    ">
		<path fill="#FFFFFF" d="M249.535,131.967h-2.055v-7.755c-0.75,0.703-1.637,1.223-2.656,1.56v-1.867
			c0.537-0.176,1.119-0.509,1.748-1c0.629-0.491,1.061-1.064,1.295-1.719h1.668V131.967z"/>
		<path fill="#FFFFFF" d="M255.521,121.186c1.039,0,1.852,0.371,2.438,1.113c0.697,0.879,1.047,2.336,1.047,4.372
			c0,2.03-0.352,3.49-1.055,4.378c-0.58,0.732-1.391,1.098-2.43,1.098c-1.045,0-1.887-0.401-2.525-1.205
			c-0.641-0.803-0.959-2.234-0.959-4.294c0-2.021,0.352-3.475,1.053-4.364C253.672,121.552,254.48,121.186,255.521,121.186z
			 M255.521,122.889c-0.248,0-0.471,0.08-0.664,0.238c-0.195,0.159-0.346,0.443-0.453,0.854c-0.141,0.532-0.211,1.429-0.211,2.689
			c0,1.26,0.062,2.126,0.189,2.598c0.127,0.471,0.285,0.785,0.479,0.941c0.191,0.156,0.412,0.234,0.66,0.234
			s0.469-0.079,0.664-0.238c0.193-0.159,0.346-0.443,0.451-0.854c0.143-0.527,0.213-1.421,0.213-2.682
			c0-1.261-0.064-2.126-0.189-2.598c-0.127-0.472-0.287-0.787-0.479-0.945C255.988,122.968,255.77,122.889,255.521,122.889z"/>
		<path fill="#FFFFFF" d="M260.602,131.967v-2.055h2.055v2.055H260.602z"/>
		<path fill="#FFFFFF" d="M268.262,131.967h-2.055v-7.755c-0.75,0.703-1.637,1.223-2.656,1.56v-1.867
			c0.537-0.176,1.119-0.509,1.748-1c0.629-0.491,1.061-1.064,1.295-1.719h1.668V131.967z"/>
	</g>
</g>
<rect x="239.861" y="153.922" fill="#FFD441" width="35" height="35"/>
<g enable-background="new    ">
	<path d="M287.207,178.002l-2.841-10.742h1.458l1.63,7.045c0.177,0.737,0.329,1.469,0.455,2.195
		c0.275-1.147,0.438-1.809,0.485-1.985l2.038-7.255h1.714l1.534,5.443c0.384,1.348,0.663,2.614,0.838,3.797
		c0.142-0.679,0.32-1.458,0.536-2.337l1.68-6.902h1.429l-2.938,10.742h-1.377l-2.248-8.182c-0.192-0.683-0.309-1.104-0.347-1.264
		c-0.118,0.493-0.226,0.913-0.319,1.26l-2.26,8.185H287.207z"/>
	<path d="M299.363,178.002V167.26h1.32v3.856c0.615-0.711,1.391-1.067,2.328-1.067c0.576,0,1.076,0.114,1.501,0.34
		c0.425,0.228,0.729,0.541,0.912,0.941c0.183,0.4,0.274,0.981,0.274,1.743v4.929h-1.32v-4.93c0-0.659-0.143-1.139-0.428-1.439
		s-0.689-0.451-1.211-0.451c-0.391,0-0.758,0.102-1.102,0.304s-0.59,0.478-0.735,0.824c-0.146,0.347-0.22,0.825-0.22,1.436v4.256
		H299.363z"/>
	<path d="M307.527,168.776v-1.516h1.32v1.516H307.527z M307.527,178.002v-7.781h1.32v7.781H307.527z"/>
	<path d="M313.615,176.822l0.188,1.165c-0.371,0.079-0.703,0.118-0.996,0.118c-0.479,0-0.851-0.076-1.114-0.227
		s-0.449-0.351-0.557-0.598c-0.107-0.247-0.161-0.766-0.161-1.557v-4.478h-0.977v-1.023h0.977v-1.926l1.32-0.791v2.717h1.32v1.023
		h-1.32v4.548c0,0.376,0.023,0.618,0.069,0.725s0.122,0.193,0.226,0.256c0.105,0.063,0.254,0.095,0.449,0.095
		C313.185,176.87,313.377,176.854,313.615,176.822z"/>
	<path d="M319.999,175.479l1.361,0.18c-0.215,0.797-0.613,1.416-1.194,1.855s-1.323,0.66-2.227,0.66c-1.139,0-2.041-0.35-2.707-1.05
		c-0.667-0.7-1-1.683-1-2.946c0-1.308,0.337-2.323,1.011-3.045s1.548-1.083,2.623-1.083c1.04,0,1.89,0.354,2.549,1.061
		c0.659,0.708,0.989,1.703,0.989,2.986c0,0.078-0.002,0.195-0.008,0.351h-5.812c0.049,0.854,0.291,1.507,0.728,1.96
		c0.436,0.454,0.979,0.68,1.631,0.68c0.484,0,0.898-0.128,1.241-0.384S319.799,176.04,319.999,175.479z M315.654,173.362h4.359
		c-0.059-0.652-0.226-1.141-0.5-1.467c-0.422-0.506-0.968-0.759-1.639-0.759c-0.608,0-1.119,0.202-1.533,0.606
		S315.698,172.686,315.654,173.362z"/>
</g>
<g>
	<g enable-background="new    ">
		<path fill="#FFFFFF" d="M248.117,168.787v-1.914h7.039v1.492c-0.58,0.572-1.172,1.393-1.771,2.462s-1.059,2.207-1.373,3.411
			c-0.314,1.205-0.469,2.28-0.465,3.228h-1.984c0.035-1.484,0.342-2.998,0.92-4.541s1.35-2.923,2.316-4.139H248.117z"/>
		<path fill="#FFFFFF" d="M255.41,177.467v-2.055h2.055v2.055H255.41z"/>
		<path fill="#FFFFFF" d="M260.93,171.674c-0.533-0.225-0.92-0.534-1.162-0.927c-0.24-0.393-0.361-0.824-0.361-1.293
			c0-0.801,0.279-1.462,0.838-1.985s1.354-0.784,2.385-0.784c1.02,0,1.812,0.261,2.377,0.784c0.562,0.522,0.846,1.184,0.846,1.985
			c0,0.498-0.131,0.941-0.389,1.33c-0.26,0.388-0.625,0.685-1.094,0.89c0.596,0.239,1.049,0.588,1.359,1.046
			c0.311,0.459,0.467,0.988,0.467,1.589c0,0.991-0.316,1.796-0.949,2.416c-0.633,0.62-1.475,0.93-2.523,0.93
			c-0.977,0-1.791-0.256-2.439-0.769c-0.768-0.605-1.15-1.435-1.15-2.489c0-0.581,0.145-1.114,0.432-1.599
			C259.854,172.312,260.309,171.937,260.93,171.674z M261.164,174.199c0,0.565,0.145,1.007,0.436,1.324
			c0.289,0.317,0.652,0.476,1.086,0.476c0.424,0,0.775-0.152,1.053-0.457c0.279-0.305,0.418-0.745,0.418-1.32
			c0-0.502-0.143-0.906-0.426-1.211c-0.281-0.305-0.641-0.457-1.074-0.457c-0.502,0-0.877,0.173-1.123,0.52
			S261.164,173.794,261.164,174.199z M261.352,169.601c0,0.41,0.115,0.73,0.348,0.959c0.23,0.229,0.541,0.344,0.926,0.344
			c0.391,0,0.703-0.116,0.938-0.348c0.234-0.232,0.352-0.553,0.352-0.964c0-0.386-0.117-0.694-0.348-0.926
			c-0.232-0.232-0.539-0.348-0.92-0.348c-0.395,0-0.709,0.117-0.943,0.352S261.352,169.215,261.352,169.601z"/>
	</g>
</g>
<rect x="239.861" y="198.922" fill="#AFAAA9" width="35" height="35"/>
<g enable-background="new    ">
	<path d="M284.166,223.243l4.119-10.742h1.542l4.384,10.742h-1.618l-1.241-3.25h-4.508l-1.173,3.25H284.166z M287.254,218.836h3.651
		l-1.123-2.977c-0.341-0.903-0.596-1.648-0.764-2.234c-0.142,0.692-0.336,1.377-0.583,2.056L287.254,218.836z"/>
	<path d="M295.293,223.243v-7.781h1.188v1.18c0.301-0.551,0.58-0.914,0.836-1.089s0.537-0.263,0.844-0.263
		c0.443,0,0.894,0.14,1.352,0.421l-0.461,1.219c-0.32-0.188-0.641-0.281-0.96-0.281c-0.286,0-0.544,0.087-0.771,0.26
		c-0.229,0.173-0.391,0.414-0.488,0.722c-0.146,0.469-0.219,0.981-0.219,1.538v4.074H295.293z"/>
	<path d="M305.3,222.282c-0.487,0.414-0.958,0.707-1.409,0.877c-0.452,0.17-0.938,0.256-1.455,0.256
		c-0.854,0-1.512-0.208-1.971-0.626c-0.459-0.417-0.688-0.95-0.688-1.599c0-0.381,0.087-0.729,0.261-1.043
		c0.173-0.315,0.4-0.567,0.681-0.758s0.597-0.334,0.949-0.432c0.259-0.068,0.649-0.134,1.172-0.198
		c1.065-0.126,1.849-0.278,2.353-0.454c0.004-0.18,0.007-0.294,0.007-0.343c0-0.536-0.124-0.914-0.374-1.133
		c-0.337-0.297-0.838-0.446-1.502-0.446c-0.621,0-1.078,0.109-1.375,0.327c-0.295,0.218-0.514,0.604-0.655,1.157l-1.289-0.18
		c0.117-0.552,0.31-0.999,0.579-1.338c0.269-0.34,0.657-0.602,1.165-0.785c0.509-0.183,1.097-0.275,1.767-0.275
		c0.665,0,1.205,0.078,1.62,0.235c0.415,0.156,0.721,0.354,0.916,0.59c0.195,0.237,0.333,0.537,0.411,0.899
		c0.043,0.225,0.065,0.63,0.065,1.215v1.756c0,1.224,0.028,1.999,0.083,2.324c0.057,0.325,0.166,0.636,0.331,0.935h-1.375
		C305.428,222.969,305.339,222.648,305.3,222.282z M305.19,219.336c-0.479,0.195-1.196,0.361-2.154,0.498
		c-0.542,0.078-0.926,0.166-1.15,0.264s-0.397,0.241-0.521,0.428c-0.121,0.188-0.183,0.397-0.183,0.626
		c0,0.352,0.133,0.645,0.399,0.879c0.266,0.234,0.656,0.352,1.169,0.352c0.508,0,0.96-0.111,1.355-0.333s0.687-0.525,0.872-0.911
		c0.142-0.298,0.213-0.738,0.213-1.319L305.19,219.336z"/>
	<path d="M309.638,223.243h-1.227V212.5h1.32v3.838c0.556-0.7,1.266-1.049,2.13-1.049c0.478,0,0.93,0.096,1.356,0.289
		s0.778,0.464,1.054,0.812c0.275,0.349,0.492,0.77,0.647,1.263c0.156,0.493,0.234,1.02,0.234,1.581c0,1.333-0.329,2.362-0.987,3.089
		c-0.658,0.727-1.449,1.09-2.37,1.09c-0.917,0-1.637-0.384-2.158-1.152V223.243z M309.622,219.293c0,0.931,0.126,1.604,0.38,2.019
		c0.414,0.678,0.975,1.017,1.681,1.017c0.575,0,1.071-0.25,1.491-0.75c0.418-0.5,0.628-1.245,0.628-2.234
		c0-1.014-0.201-1.763-0.603-2.245c-0.402-0.483-0.889-0.724-1.458-0.724c-0.575,0-1.071,0.25-1.491,0.75
		C309.832,217.625,309.622,218.348,309.622,219.293z"/>
</g>
<g>
	<g enable-background="new    ">
		<path fill="#FFFFFF" d="M254.453,214.357l-1.992,0.219c-0.049-0.408-0.176-0.709-0.383-0.904
			c-0.205-0.194-0.471-0.292-0.799-0.292c-0.436,0-0.805,0.195-1.105,0.584s-0.49,1.2-0.568,2.434
			c0.514-0.605,1.15-0.908,1.912-0.908c0.861,0,1.598,0.327,2.211,0.981s0.92,1.499,0.92,2.534c0,1.099-0.322,1.98-0.967,2.645
			s-1.473,0.996-2.484,0.996c-1.084,0-1.975-0.421-2.674-1.263c-0.699-0.842-1.047-2.222-1.047-4.14
			c0-1.967,0.363-3.385,1.092-4.254c0.727-0.869,1.672-1.303,2.836-1.303c0.816,0,1.49,0.228,2.025,0.685
			C253.965,212.826,254.307,213.489,254.453,214.357z M249.781,218.846c0,0.67,0.154,1.187,0.461,1.551
			c0.309,0.364,0.66,0.546,1.057,0.546c0.381,0,0.697-0.149,0.953-0.447c0.254-0.298,0.381-0.787,0.381-1.466
			c0-0.699-0.137-1.211-0.41-1.536c-0.275-0.325-0.617-0.488-1.027-0.488c-0.396,0-0.73,0.155-1.004,0.466
			S249.781,218.24,249.781,218.846z"/>
		<path fill="#FFFFFF" d="M256.271,222.467v-2.055h2.055v2.055H256.271z"/>
		<path fill="#FFFFFF" d="M266.783,214.357l-1.992,0.219c-0.049-0.408-0.176-0.709-0.383-0.904
			c-0.205-0.194-0.471-0.292-0.799-0.292c-0.436,0-0.805,0.195-1.105,0.584s-0.49,1.2-0.568,2.434
			c0.514-0.605,1.15-0.908,1.912-0.908c0.861,0,1.598,0.327,2.211,0.981s0.92,1.499,0.92,2.534c0,1.099-0.322,1.98-0.967,2.645
			s-1.473,0.996-2.484,0.996c-1.084,0-1.975-0.421-2.674-1.263c-0.699-0.842-1.047-2.222-1.047-4.14
			c0-1.967,0.363-3.385,1.092-4.254c0.727-0.869,1.672-1.303,2.836-1.303c0.816,0,1.49,0.228,2.025,0.685
			C266.295,212.826,266.637,213.489,266.783,214.357z M262.111,218.846c0,0.67,0.154,1.187,0.461,1.551
			c0.309,0.364,0.66,0.546,1.057,0.546c0.381,0,0.697-0.149,0.953-0.447c0.254-0.298,0.381-0.787,0.381-1.466
			c0-0.699-0.137-1.211-0.41-1.536c-0.275-0.325-0.617-0.488-1.027-0.488c-0.396,0-0.73,0.155-1.004,0.466
			S262.111,218.24,262.111,218.846z"/>
	</g>
</g>
<rect x="239.861" y="244.256" fill="#99CAD2" width="35" height="35"/>
<g enable-background="new    ">
	<path d="M284.166,268.576l4.119-10.742h1.542l4.384,10.742h-1.618l-1.241-3.25h-4.508l-1.173,3.25H284.166z M287.254,264.17h3.651
		l-1.123-2.977c-0.341-0.904-0.596-1.648-0.764-2.234c-0.142,0.691-0.336,1.377-0.583,2.056L287.254,264.17z"/>
	<path d="M295.301,268.576v-7.781h1.188v1.105c0.571-0.852,1.396-1.277,2.475-1.277c0.469,0,0.899,0.084,1.293,0.252
		c0.393,0.169,0.687,0.39,0.882,0.663s0.332,0.599,0.41,0.974c0.049,0.244,0.073,0.672,0.073,1.281v4.783h-1.32v-4.732
		c0-0.537-0.051-0.939-0.154-1.205c-0.102-0.266-0.283-0.479-0.545-0.637c-0.26-0.159-0.566-0.238-0.918-0.238
		c-0.561,0-1.045,0.178-1.451,0.534c-0.408,0.356-0.611,1.033-0.611,2.029v4.249H295.301z"/>
	<path d="M303.166,271.57l-0.148-1.236c0.289,0.078,0.541,0.117,0.756,0.117c0.294,0,0.529-0.049,0.705-0.146s0.32-0.234,0.433-0.41
		c0.083-0.133,0.218-0.46,0.403-0.982c0.024-0.073,0.064-0.181,0.117-0.322l-2.953-7.795h1.412l1.623,4.504
		c0.21,0.57,0.398,1.172,0.564,1.801c0.154-0.603,0.338-1.191,0.549-1.768l1.664-4.537h1.318l-2.953,7.915
		c-0.318,0.854-0.565,1.441-0.742,1.763c-0.234,0.435-0.504,0.753-0.808,0.955c-0.304,0.203-0.667,0.305-1.088,0.305
		C303.764,271.732,303.48,271.678,303.166,271.57z"/>
	<path d="M314.631,263.344c0-1.782,0.479-3.178,1.436-4.186c0.956-1.008,2.191-1.512,3.705-1.512c0.99,0,1.884,0.236,2.68,0.71
		c0.795,0.474,1.402,1.134,1.819,1.981c0.417,0.847,0.626,1.807,0.626,2.881c0,1.089-0.22,2.062-0.659,2.922
		s-1.062,1.51-1.867,1.952s-1.674,0.663-2.606,0.663c-1.011,0-1.914-0.244-2.709-0.732c-0.796-0.488-1.398-1.154-1.809-2
		C314.836,265.18,314.631,264.285,314.631,263.344z M316.1,263.365c0,1.293,0.348,2.312,1.042,3.056
		c0.694,0.743,1.566,1.116,2.614,1.116c1.068,0,1.947-0.376,2.637-1.127c0.69-0.752,1.035-1.817,1.035-3.198
		c0-0.873-0.147-1.636-0.442-2.286c-0.295-0.652-0.727-1.156-1.294-1.516c-0.568-0.358-1.206-0.537-1.913-0.537
		c-1.005,0-1.868,0.345-2.593,1.035S316.1,261.751,316.1,263.365z"/>
	<path d="M329.543,267.395l0.188,1.165c-0.372,0.079-0.704,0.118-0.997,0.118c-0.479,0-0.85-0.076-1.113-0.228
		c-0.265-0.151-0.45-0.351-0.558-0.598s-0.16-0.766-0.16-1.558v-4.477h-0.977v-1.023h0.977v-1.927l1.32-0.791v2.718h1.32v1.023
		h-1.32v4.548c0,0.376,0.022,0.618,0.068,0.726c0.047,0.107,0.122,0.192,0.227,0.256s0.254,0.096,0.449,0.096
		C329.112,267.443,329.305,267.427,329.543,267.395z"/>
	<path d="M330.771,268.576v-10.742h1.32v3.855c0.615-0.711,1.392-1.066,2.328-1.066c0.576,0,1.076,0.113,1.501,0.34
		c0.425,0.228,0.729,0.541,0.912,0.941c0.183,0.4,0.274,0.981,0.274,1.742v4.93h-1.32v-4.931c0-0.659-0.143-1.14-0.428-1.439
		c-0.286-0.3-0.689-0.45-1.211-0.45c-0.391,0-0.758,0.102-1.102,0.304s-0.589,0.478-0.735,0.824s-0.22,0.825-0.22,1.436v4.257
		H330.771z"/>
	<path d="M344.281,266.053l1.361,0.18c-0.215,0.797-0.613,1.415-1.194,1.855c-0.581,0.439-1.323,0.66-2.227,0.66
		c-1.138,0-2.04-0.351-2.707-1.051s-1-1.683-1-2.946c0-1.308,0.337-2.323,1.011-3.045s1.549-1.083,2.623-1.083
		c1.04,0,1.89,0.354,2.549,1.061s0.989,1.703,0.989,2.986c0,0.078-0.003,0.195-0.007,0.352h-5.813
		c0.049,0.854,0.291,1.506,0.728,1.96c0.436,0.454,0.979,0.681,1.631,0.681c0.484,0,0.898-0.129,1.241-0.385
		S344.08,266.613,344.281,266.053z M339.937,263.936h4.359c-0.059-0.652-0.226-1.142-0.5-1.468c-0.421-0.506-0.968-0.759-1.64-0.759
		c-0.607,0-1.118,0.201-1.532,0.605S339.98,263.259,339.937,263.936z"/>
	<path d="M347.157,268.576v-7.781h1.188v1.18c0.302-0.551,0.581-0.914,0.836-1.089c0.256-0.175,0.537-0.263,0.844-0.263
		c0.443,0,0.894,0.14,1.352,0.421l-0.461,1.22c-0.32-0.188-0.64-0.281-0.96-0.281c-0.286,0-0.543,0.086-0.771,0.26
		s-0.391,0.414-0.488,0.722c-0.146,0.469-0.219,0.981-0.219,1.538v4.074H347.157z"/>
	<path d="M356.531,268.576v-10.742h7.766v1.266h-6.344v3.289h5.938v1.266h-5.938v3.656h6.594v1.266H356.531z"/>
	<path d="M368.797,267.395l0.188,1.165c-0.371,0.079-0.703,0.118-0.996,0.118c-0.479,0-0.851-0.076-1.114-0.228
		s-0.449-0.351-0.557-0.598s-0.161-0.766-0.161-1.558v-4.477h-0.977v-1.023h0.977v-1.927l1.32-0.791v2.718h1.32v1.023h-1.32v4.548
		c0,0.376,0.023,0.618,0.069,0.726s0.121,0.192,0.226,0.256c0.105,0.063,0.255,0.096,0.449,0.096
		C368.366,267.443,368.559,267.427,368.797,267.395z"/>
	<path d="M370.024,268.576v-10.742h1.32v3.855c0.615-0.711,1.392-1.066,2.328-1.066c0.576,0,1.076,0.113,1.501,0.34
		c0.425,0.228,0.729,0.541,0.912,0.941c0.183,0.4,0.274,0.981,0.274,1.742v4.93h-1.32v-4.931c0-0.659-0.143-1.14-0.428-1.439
		c-0.286-0.3-0.689-0.45-1.211-0.45c-0.391,0-0.758,0.102-1.102,0.304s-0.589,0.478-0.735,0.824s-0.22,0.825-0.22,1.436v4.257
		H370.024z"/>
	<path d="M378.181,268.576v-7.781h1.188v1.105c0.571-0.852,1.396-1.277,2.475-1.277c0.469,0,0.899,0.084,1.293,0.252
		c0.393,0.169,0.687,0.39,0.882,0.663s0.332,0.599,0.41,0.974c0.049,0.244,0.073,0.672,0.073,1.281v4.783h-1.32v-4.732
		c0-0.537-0.052-0.939-0.153-1.205c-0.103-0.266-0.284-0.479-0.545-0.637c-0.262-0.159-0.567-0.238-0.918-0.238
		c-0.562,0-1.045,0.178-1.453,0.534c-0.406,0.356-0.61,1.033-0.61,2.029v4.249H378.181z"/>
	<path d="M386.346,259.35v-1.516h1.32v1.516H386.346z M386.346,268.576v-7.781h1.32v7.781H386.346z"/>
	<path d="M394.617,265.725l1.297,0.18c-0.142,0.889-0.504,1.586-1.088,2.089c-0.583,0.503-1.299,0.755-2.148,0.755
		c-1.064,0-1.92-0.348-2.566-1.043c-0.647-0.695-0.971-1.692-0.971-2.99c0-0.84,0.139-1.574,0.417-2.203
		c0.278-0.63,0.702-1.103,1.271-1.417s1.188-0.472,1.856-0.472c0.845,0,1.535,0.213,2.072,0.641c0.537,0.427,0.881,1.033,1.032,1.82
		l-1.281,0.195c-0.122-0.521-0.338-0.914-0.648-1.176c-0.311-0.264-0.686-0.395-1.125-0.395c-0.664,0-1.204,0.237-1.619,0.713
		c-0.416,0.475-0.623,1.227-0.623,2.256c0,1.043,0.2,1.802,0.601,2.274c0.4,0.474,0.923,0.71,1.568,0.71
		c0.518,0,0.95-0.158,1.297-0.476S394.524,266.383,394.617,265.725z"/>
	<path d="M406.402,264.365V263.1h4.547v3.98c-0.698,0.556-1.418,0.975-2.16,1.255s-1.504,0.421-2.285,0.421
		c-1.054,0-2.012-0.227-2.874-0.678c-0.861-0.453-1.512-1.105-1.951-1.961s-0.659-1.811-0.659-2.865
		c0-1.045,0.219-2.021,0.655-2.928s1.065-1.579,1.886-2.019c0.82-0.44,1.765-0.659,2.834-0.659c0.776,0,1.478,0.125,2.105,0.377
		c0.627,0.252,1.119,0.604,1.476,1.054s0.627,1.038,0.812,1.762l-1.28,0.352c-0.162-0.548-0.361-0.978-0.601-1.291
		s-0.581-0.563-1.024-0.752c-0.444-0.188-0.938-0.282-1.479-0.282c-0.649,0-1.211,0.099-1.684,0.297
		c-0.474,0.197-0.855,0.457-1.146,0.779s-0.517,0.677-0.677,1.062c-0.273,0.664-0.41,1.385-0.41,2.162
		c0,0.957,0.165,1.758,0.494,2.403c0.329,0.645,0.809,1.123,1.438,1.437c0.629,0.312,1.298,0.469,2.005,0.469
		c0.615,0,1.215-0.119,1.801-0.355s1.029-0.488,1.332-0.757v-1.997H406.402z"/>
	<path d="M412.839,268.576v-7.781h1.188v1.18c0.302-0.551,0.581-0.914,0.836-1.089c0.256-0.175,0.537-0.263,0.844-0.263
		c0.443,0,0.894,0.14,1.352,0.421l-0.461,1.22c-0.32-0.188-0.64-0.281-0.96-0.281c-0.286,0-0.543,0.086-0.771,0.26
		s-0.391,0.414-0.488,0.722c-0.146,0.469-0.219,0.981-0.219,1.538v4.074H412.839z"/>
	<path d="M417.278,264.686c0-1.439,0.4-2.506,1.201-3.199c0.669-0.576,1.485-0.863,2.447-0.863c1.069,0,1.943,0.35,2.622,1.05
		s1.019,1.668,1.019,2.902c0,1.001-0.15,1.787-0.45,2.36c-0.301,0.574-0.738,1.02-1.312,1.336c-0.574,0.317-1.2,0.477-1.879,0.477
		c-1.089,0-1.97-0.35-2.642-1.047C417.614,267.003,417.278,265.998,417.278,264.686z M418.63,264.686
		c0,0.994,0.218,1.739,0.653,2.234c0.435,0.494,0.982,0.742,1.644,0.742c0.655,0,1.2-0.249,1.636-0.746
		c0.436-0.498,0.653-1.256,0.653-2.274c0-0.96-0.219-1.688-0.657-2.183c-0.438-0.495-0.981-0.742-1.632-0.742
		c-0.661,0-1.209,0.246-1.644,0.738C418.848,262.947,418.63,263.691,418.63,264.686z"/>
	<path d="M431.073,268.576v-1.145c-0.605,0.877-1.428,1.316-2.468,1.316c-0.458,0-0.887-0.088-1.284-0.264
		c-0.398-0.176-0.693-0.396-0.886-0.663c-0.193-0.267-0.329-0.592-0.406-0.978c-0.055-0.259-0.081-0.669-0.081-1.23v-4.818h1.32
		v4.314c0,0.688,0.026,1.152,0.08,1.392c0.083,0.347,0.259,0.619,0.527,0.817c0.268,0.197,0.6,0.297,0.994,0.297
		c0.396,0,0.766-0.102,1.111-0.305c0.347-0.202,0.592-0.479,0.735-0.828c0.144-0.349,0.216-0.855,0.216-1.52v-4.168h1.32v7.781
		H431.073z"/>
	<path d="M434.12,271.561v-10.766h1.203v1.013c0.283-0.396,0.603-0.691,0.959-0.889c0.355-0.198,0.787-0.296,1.295-0.296
		c0.663,0,1.249,0.17,1.756,0.512c0.508,0.342,0.891,0.824,1.149,1.445c0.259,0.623,0.388,1.305,0.388,2.047
		c0,0.795-0.143,1.512-0.428,2.148c-0.286,0.637-0.7,1.125-1.244,1.463c-0.544,0.34-1.116,0.51-1.716,0.51
		c-0.439,0-0.833-0.094-1.182-0.279c-0.35-0.186-0.636-0.421-0.86-0.704v3.796H434.12z M435.315,264.727
		c0,1.001,0.202,1.74,0.606,2.218c0.404,0.479,0.895,0.718,1.47,0.718c0.585,0,1.085-0.248,1.502-0.743s0.625-1.263,0.625-2.302
		c0-0.99-0.203-1.731-0.61-2.225c-0.407-0.492-0.893-0.738-1.458-0.738c-0.561,0-1.057,0.262-1.488,0.786
		C435.531,262.965,435.315,263.727,435.315,264.727z"/>
</g>
<g>
	<g enable-background="new    ">
		<path fill="#FFFFFF" d="M252.043,267.8v-2.164h-4.391v-1.798l4.654-6.819h1.729v6.812h1.336v1.805h-1.336v2.164H252.043z
			 M252.043,263.831v-3.671l-2.467,3.671H252.043z"/>
		<path fill="#FFFFFF" d="M256.867,267.8v-2.055h2.055v2.055H256.867z"/>
		<path fill="#FFFFFF" d="M264.527,267.8h-2.055v-7.755c-0.752,0.703-1.637,1.223-2.656,1.56v-1.867
			c0.535-0.176,1.119-0.509,1.748-1s1.061-1.063,1.295-1.719h1.668V267.8z"/>
	</g>
</g>
<rect x="239.861" y="289.557" fill="#D899B5" width="35" height="35"/>
<g enable-background="new    ">
	<path d="M285.304,303.436v-10.742h2.135l2.544,7.602c0.234,0.709,0.405,1.238,0.513,1.59c0.122-0.391,0.313-0.965,0.573-1.721
		l2.577-7.471h1.908v10.742h-1.367v-8.992l-3.128,8.992h-1.281l-3.106-9.148v9.148H285.304z"/>
	<path d="M297.64,294.209v-1.516h1.32v1.516H297.64z M297.64,303.436v-7.781h1.32v7.781H297.64z"/>
	<path d="M300.031,303.436l2.846-4.027l-2.635-3.754h1.626l1.22,1.824c0.224,0.348,0.404,0.637,0.54,0.867
		c0.222-0.312,0.421-0.596,0.599-0.847l1.305-1.845h1.586l-2.635,3.735l2.83,4.046h-1.607l-1.61-2.416l-0.376-0.59l-2.092,3.006
		H300.031z"/>
	<path d="M313.319,300.912l1.361,0.18c-0.215,0.797-0.613,1.415-1.194,1.855c-0.581,0.439-1.323,0.66-2.227,0.66
		c-1.139,0-2.041-0.351-2.707-1.051c-0.667-0.7-1-1.683-1-2.946c0-1.308,0.337-2.323,1.011-3.045s1.548-1.083,2.623-1.083
		c1.04,0,1.89,0.354,2.549,1.061s0.989,1.703,0.989,2.986c0,0.078-0.002,0.195-0.008,0.352h-5.812
		c0.049,0.854,0.291,1.506,0.728,1.96c0.436,0.454,0.979,0.681,1.631,0.681c0.484,0,0.898-0.129,1.241-0.385
		S313.119,301.473,313.319,300.912z M308.975,298.795h4.359c-0.059-0.652-0.226-1.142-0.5-1.468
		c-0.422-0.506-0.968-0.759-1.639-0.759c-0.608,0-1.119,0.201-1.533,0.605S309.019,298.118,308.975,298.795z"/>
	<path d="M321.32,303.436v-0.988c-0.492,0.773-1.217,1.16-2.172,1.16c-0.619,0-1.189-0.172-1.709-0.513
		c-0.519-0.342-0.921-0.819-1.207-1.431c-0.285-0.613-0.428-1.316-0.428-2.112c0-0.776,0.129-1.479,0.388-2.112
		c0.259-0.631,0.646-1.115,1.162-1.452s1.093-0.505,1.731-0.505c0.468,0,0.885,0.099,1.25,0.297s0.662,0.456,0.891,0.774v-3.86h1.32
		v10.742H321.32z M317.156,299.552c0,0.995,0.211,1.738,0.63,2.23c0.42,0.493,0.915,0.739,1.486,0.739
		c0.576,0,1.065-0.236,1.468-0.706c0.402-0.471,0.604-1.188,0.604-2.153c0-1.062-0.205-1.844-0.614-2.34
		c-0.41-0.498-0.915-0.746-1.516-0.746c-0.586,0-1.075,0.238-1.468,0.717C317.354,297.77,317.156,298.523,317.156,299.552z"/>
	<path d="M323.68,303.615l3.109-11.102h1.062l-3.109,11.102H323.68z"/>
	<path d="M329.09,303.436v-10.742h2.135l2.544,7.602c0.234,0.709,0.405,1.238,0.513,1.59c0.123-0.391,0.313-0.965,0.573-1.721
		l2.577-7.471h1.908v10.742h-1.367v-8.992l-3.128,8.992h-1.28l-3.107-9.148v9.148H329.09z"/>
	<path d="M346.506,303.436v-1.145c-0.605,0.877-1.428,1.316-2.467,1.316c-0.459,0-0.888-0.088-1.285-0.264
		c-0.398-0.176-0.693-0.396-0.887-0.663c-0.192-0.267-0.328-0.592-0.406-0.978c-0.053-0.259-0.08-0.669-0.08-1.23v-4.818h1.32v4.314
		c0,0.688,0.026,1.152,0.08,1.392c0.083,0.347,0.259,0.619,0.527,0.817c0.268,0.197,0.6,0.297,0.994,0.297s0.766-0.102,1.111-0.305
		c0.347-0.202,0.592-0.479,0.735-0.828c0.144-0.349,0.216-0.855,0.216-1.52v-4.168h1.32v7.781H346.506z"/>
	<path d="M349.536,303.436v-10.742h1.32v10.742H349.536z"/>
	<path d="M355.647,302.254l0.188,1.165c-0.371,0.079-0.703,0.118-0.996,0.118c-0.479,0-0.851-0.076-1.114-0.228
		s-0.449-0.351-0.557-0.598s-0.161-0.766-0.161-1.558v-4.477h-0.977v-1.023h0.977v-1.927l1.32-0.791v2.718h1.32v1.023h-1.32v4.548
		c0,0.376,0.023,0.618,0.069,0.726s0.121,0.192,0.227,0.256c0.104,0.063,0.254,0.096,0.448,0.096
		C355.217,302.303,355.409,302.286,355.647,302.254z"/>
	<path d="M356.883,294.209v-1.516h1.32v1.516H356.883z M356.883,303.436v-7.781h1.32v7.781H356.883z"/>
	<path d="M360.037,306.42v-10.766h1.203v1.013c0.283-0.396,0.603-0.691,0.959-0.889c0.355-0.198,0.787-0.296,1.295-0.296
		c0.663,0,1.249,0.17,1.756,0.512c0.508,0.342,0.891,0.824,1.149,1.445c0.259,0.623,0.388,1.305,0.388,2.047
		c0,0.795-0.143,1.512-0.428,2.148c-0.286,0.637-0.7,1.125-1.244,1.463c-0.544,0.34-1.116,0.51-1.716,0.51
		c-0.439,0-0.833-0.094-1.183-0.279c-0.349-0.186-0.635-0.421-0.859-0.704v3.796H360.037z M361.232,299.586
		c0,1.001,0.202,1.74,0.606,2.218c0.404,0.479,0.895,0.718,1.47,0.718c0.584,0,1.085-0.248,1.502-0.743s0.625-1.263,0.625-2.302
		c0-0.99-0.203-1.731-0.61-2.225c-0.407-0.492-0.894-0.738-1.458-0.738c-0.561,0-1.057,0.262-1.488,0.786
		C361.448,297.824,361.232,298.586,361.232,299.586z"/>
	<path d="M368.233,303.436v-10.742h1.32v10.742H368.233z"/>
	<path d="M376.796,300.912l1.361,0.18c-0.215,0.797-0.613,1.415-1.194,1.855c-0.581,0.439-1.323,0.66-2.227,0.66
		c-1.139,0-2.041-0.351-2.707-1.051c-0.667-0.7-1-1.683-1-2.946c0-1.308,0.337-2.323,1.011-3.045s1.548-1.083,2.623-1.083
		c1.04,0,1.89,0.354,2.549,1.061s0.989,1.703,0.989,2.986c0,0.078-0.002,0.195-0.008,0.352h-5.812
		c0.049,0.854,0.291,1.506,0.728,1.96c0.436,0.454,0.979,0.681,1.631,0.681c0.484,0,0.898-0.129,1.241-0.385
		S376.595,301.473,376.796,300.912z M372.451,298.795h4.359c-0.059-0.652-0.226-1.142-0.5-1.468
		c-0.422-0.506-0.968-0.759-1.64-0.759c-0.607,0-1.118,0.201-1.532,0.605S372.495,298.118,372.451,298.795z"/>
	<path d="M384.18,303.436v-10.742h7.766v1.266h-6.344v3.289h5.938v1.266h-5.938v3.656h6.594v1.266H384.18z"/>
	<path d="M396.446,302.254l0.188,1.165c-0.371,0.079-0.703,0.118-0.996,0.118c-0.479,0-0.851-0.076-1.114-0.228
		s-0.449-0.351-0.557-0.598s-0.161-0.766-0.161-1.558v-4.477h-0.977v-1.023h0.977v-1.927l1.32-0.791v2.718h1.32v1.023h-1.32v4.548
		c0,0.376,0.023,0.618,0.069,0.726s0.121,0.192,0.227,0.256c0.104,0.063,0.254,0.096,0.448,0.096
		C396.016,302.303,396.208,302.286,396.446,302.254z"/>
	<path d="M397.674,303.436v-10.742h1.32v3.855c0.615-0.711,1.391-1.066,2.328-1.066c0.576,0,1.076,0.113,1.501,0.34
		c0.425,0.228,0.729,0.541,0.912,0.941c0.183,0.4,0.274,0.981,0.274,1.742v4.93h-1.32v-4.931c0-0.659-0.143-1.14-0.428-1.439
		c-0.286-0.3-0.689-0.45-1.211-0.45c-0.391,0-0.758,0.102-1.102,0.304s-0.589,0.478-0.735,0.824s-0.22,0.825-0.22,1.436v4.257
		H397.674z"/>
	<path d="M405.83,303.436v-7.781h1.188v1.105c0.571-0.852,1.396-1.277,2.475-1.277c0.469,0,0.899,0.084,1.293,0.252
		c0.393,0.169,0.687,0.39,0.882,0.663s0.332,0.599,0.41,0.974c0.049,0.244,0.073,0.672,0.073,1.281v4.783h-1.32v-4.732
		c0-0.537-0.051-0.939-0.153-1.205s-0.284-0.479-0.545-0.637c-0.262-0.159-0.567-0.238-0.919-0.238
		c-0.561,0-1.045,0.178-1.451,0.534c-0.408,0.356-0.611,1.033-0.611,2.029v4.249H405.83z"/>
	<path d="M413.994,294.209v-1.516h1.32v1.516H413.994z M413.994,303.436v-7.781h1.32v7.781H413.994z"/>
	<path d="M422.267,300.584l1.297,0.18c-0.142,0.889-0.504,1.586-1.088,2.089c-0.583,0.503-1.3,0.755-2.148,0.755
		c-1.064,0-1.92-0.348-2.567-1.043c-0.646-0.695-0.97-1.692-0.97-2.99c0-0.84,0.139-1.574,0.417-2.203
		c0.278-0.63,0.702-1.103,1.271-1.417c0.569-0.314,1.188-0.472,1.856-0.472c0.845,0,1.535,0.213,2.072,0.641
		c0.537,0.427,0.881,1.033,1.032,1.82l-1.281,0.195c-0.122-0.521-0.339-0.914-0.648-1.176c-0.311-0.264-0.686-0.395-1.125-0.395
		c-0.664,0-1.204,0.237-1.619,0.713c-0.415,0.475-0.623,1.227-0.623,2.256c0,1.043,0.2,1.802,0.601,2.274
		c0.4,0.474,0.924,0.71,1.568,0.71c0.518,0,0.95-0.158,1.297-0.476S422.174,301.242,422.267,300.584z"/>
	<path d="M290.366,319.225v-1.266h4.547v3.98c-0.698,0.556-1.418,0.975-2.16,1.255s-1.504,0.421-2.284,0.421
		c-1.055,0-2.014-0.227-2.875-0.678c-0.861-0.453-1.512-1.105-1.951-1.961s-0.659-1.811-0.659-2.865
		c0-1.045,0.218-2.021,0.655-2.928s1.065-1.579,1.886-2.019c0.82-0.44,1.765-0.659,2.834-0.659c0.776,0,1.478,0.125,2.105,0.377
		c0.627,0.252,1.119,0.604,1.476,1.054c0.355,0.45,0.627,1.038,0.812,1.762l-1.281,0.352c-0.16-0.548-0.361-0.978-0.6-1.291
		c-0.239-0.313-0.581-0.563-1.025-0.752c-0.443-0.188-0.937-0.282-1.478-0.282c-0.649,0-1.21,0.099-1.684,0.297
		c-0.474,0.197-0.855,0.457-1.146,0.779c-0.291,0.322-0.516,0.677-0.677,1.062c-0.273,0.664-0.41,1.385-0.41,2.162
		c0,0.957,0.165,1.758,0.494,2.403c0.329,0.645,0.809,1.123,1.438,1.437c0.629,0.312,1.298,0.469,2.005,0.469
		c0.615,0,1.216-0.119,1.801-0.355s1.029-0.488,1.332-0.757v-1.997H290.366z"/>
	<path d="M296.804,323.436v-7.781h1.188v1.18c0.302-0.551,0.581-0.914,0.837-1.089c0.255-0.175,0.536-0.263,0.843-0.263
		c0.443,0,0.894,0.14,1.352,0.421l-0.461,1.22c-0.319-0.188-0.64-0.281-0.96-0.281c-0.286,0-0.543,0.086-0.771,0.26
		s-0.391,0.414-0.487,0.722c-0.146,0.469-0.22,0.981-0.22,1.538v4.074H296.804z"/>
	<path d="M301.242,319.545c0-1.439,0.4-2.506,1.202-3.199c0.669-0.576,1.484-0.863,2.446-0.863c1.07,0,1.943,0.35,2.623,1.05
		c0.679,0.7,1.018,1.668,1.018,2.902c0,1.001-0.15,1.787-0.45,2.36c-0.3,0.574-0.737,1.02-1.312,1.336
		c-0.573,0.317-1.199,0.477-1.879,0.477c-1.089,0-1.969-0.35-2.641-1.047C301.578,321.862,301.242,320.857,301.242,319.545z
		 M302.594,319.545c0,0.994,0.219,1.739,0.653,2.234c0.436,0.494,0.983,0.742,1.644,0.742c0.656,0,1.201-0.249,1.637-0.746
		c0.436-0.498,0.652-1.256,0.652-2.274c0-0.96-0.219-1.688-0.656-2.183c-0.438-0.495-0.982-0.742-1.633-0.742
		c-0.66,0-1.208,0.246-1.644,0.738C302.812,317.807,302.594,318.551,302.594,319.545z"/>
	<path d="M315.037,323.436v-1.145c-0.605,0.877-1.428,1.316-2.467,1.316c-0.459,0-0.888-0.088-1.285-0.264
		c-0.398-0.176-0.693-0.396-0.887-0.663c-0.192-0.267-0.328-0.592-0.406-0.978c-0.053-0.259-0.08-0.669-0.08-1.23v-4.818h1.32v4.314
		c0,0.688,0.027,1.152,0.08,1.392c0.083,0.347,0.259,0.619,0.527,0.817c0.268,0.197,0.6,0.297,0.994,0.297s0.766-0.102,1.111-0.305
		c0.347-0.202,0.592-0.479,0.735-0.828c0.144-0.349,0.216-0.855,0.216-1.52v-4.168h1.32v7.781H315.037z"/>
	<path d="M318.085,326.42v-10.766h1.203v1.013c0.283-0.396,0.603-0.691,0.958-0.889c0.356-0.198,0.789-0.296,1.296-0.296
		c0.663,0,1.249,0.17,1.757,0.512c0.507,0.342,0.89,0.824,1.148,1.445c0.258,0.623,0.388,1.305,0.388,2.047
		c0,0.795-0.143,1.512-0.429,2.148c-0.285,0.637-0.699,1.125-1.243,1.463c-0.544,0.34-1.116,0.51-1.716,0.51
		c-0.439,0-0.834-0.094-1.182-0.279c-0.35-0.186-0.636-0.421-0.86-0.704v3.796H318.085z M319.28,319.586
		c0,1.001,0.202,1.74,0.606,2.218c0.404,0.479,0.895,0.718,1.47,0.718c0.585,0,1.085-0.248,1.502-0.743s0.625-1.263,0.625-2.302
		c0-0.99-0.204-1.731-0.61-2.225c-0.407-0.492-0.893-0.738-1.459-0.738c-0.56,0-1.056,0.262-1.486,0.786
		C319.496,317.824,319.28,318.586,319.28,319.586z"/>
</g>
<g>
	<g enable-background="new    ">
		<path fill="#FFFFFF" d="M247.314,310.25l1.992-0.242c0.062,0.509,0.234,0.897,0.512,1.167c0.279,0.269,0.615,0.403,1.01,0.403
			c0.426,0,0.783-0.161,1.074-0.482c0.289-0.322,0.436-0.757,0.436-1.303c0-0.518-0.139-0.928-0.418-1.23
			c-0.277-0.302-0.615-0.453-1.016-0.453c-0.262,0-0.576,0.051-0.941,0.154l0.227-1.678c0.559,0.015,0.984-0.105,1.277-0.362
			c0.295-0.257,0.441-0.597,0.441-1.021c0-0.361-0.107-0.649-0.324-0.864c-0.215-0.215-0.5-0.322-0.857-0.322
			c-0.354,0-0.654,0.122-0.902,0.367c-0.25,0.244-0.402,0.602-0.455,1.07l-1.898-0.322c0.131-0.65,0.33-1.171,0.596-1.56
			c0.268-0.389,0.639-0.694,1.115-0.917s1.01-0.334,1.602-0.334c1.01,0,1.822,0.322,2.432,0.967
			c0.504,0.528,0.756,1.124,0.756,1.789c0,0.942-0.516,1.695-1.543,2.257c0.611,0.132,1.102,0.427,1.469,0.886
			c0.367,0.458,0.551,1.012,0.551,1.66c0,0.941-0.346,1.744-1.033,2.407s-1.545,0.995-2.57,0.995c-0.971,0-1.777-0.279-2.416-0.838
			C247.787,311.884,247.416,311.153,247.314,310.25z"/>
		<path fill="#FFFFFF" d="M256.137,313.102v-2.055h2.055v2.055H256.137z"/>
		<path fill="#FFFFFF" d="M261.656,307.309c-0.533-0.225-0.92-0.533-1.162-0.927c-0.24-0.394-0.361-0.824-0.361-1.293
			c0-0.801,0.279-1.462,0.838-1.985c0.559-0.521,1.354-0.783,2.385-0.783c1.02,0,1.812,0.262,2.377,0.783
			c0.562,0.523,0.846,1.185,0.846,1.985c0,0.498-0.131,0.941-0.389,1.329c-0.26,0.389-0.625,0.686-1.094,0.891
			c0.596,0.238,1.049,0.588,1.359,1.047s0.467,0.988,0.467,1.588c0,0.991-0.316,1.797-0.949,2.416
			c-0.633,0.62-1.475,0.93-2.523,0.93c-0.977,0-1.791-0.256-2.439-0.769c-0.768-0.605-1.15-1.435-1.15-2.489
			c0-0.58,0.145-1.113,0.432-1.6C260.58,307.946,261.035,307.572,261.656,307.309z M261.891,309.834
			c0,0.564,0.145,1.006,0.436,1.323c0.289,0.317,0.652,0.476,1.086,0.476c0.424,0,0.775-0.152,1.053-0.457
			c0.279-0.305,0.418-0.745,0.418-1.32c0-0.502-0.143-0.906-0.426-1.211c-0.281-0.305-0.641-0.457-1.074-0.457
			c-0.502,0-0.877,0.174-1.123,0.52S261.891,309.429,261.891,309.834z M262.078,305.235c0,0.41,0.115,0.729,0.348,0.96
			c0.23,0.229,0.541,0.344,0.926,0.344c0.391,0,0.703-0.116,0.938-0.348c0.234-0.232,0.352-0.553,0.352-0.964
			c0-0.386-0.117-0.694-0.348-0.927c-0.232-0.231-0.539-0.348-0.92-0.348c-0.395,0-0.709,0.117-0.943,0.352
			S262.078,304.85,262.078,305.235z"/>
	</g>
</g>
<g>
	<g enable-background="new    ">
		<path d="M101.765,138.368c0-1.341,0.296-2.336,0.888-2.982c0.592-0.647,1.395-0.971,2.407-0.971c1.047,0,1.866,0.322,2.458,0.965
			s0.888,1.64,0.888,2.988c0,1.342-0.296,2.336-0.888,2.982c-0.592,0.647-1.395,0.971-2.407,0.971c-1.047,0-1.866-0.322-2.458-0.965
			S101.765,139.717,101.765,138.368z M104.015,138.368c0,0.974,0.112,1.627,0.339,1.96c0.171,0.245,0.406,0.368,0.708,0.368
			c0.308,0,0.548-0.123,0.719-0.368c0.219-0.333,0.328-0.987,0.328-1.96s-0.109-1.624-0.328-1.95
			c-0.171-0.252-0.411-0.378-0.719-0.378c-0.302,0-0.537,0.123-0.708,0.368C104.127,136.741,104.015,137.395,104.015,138.368z
			 M107.256,150.274h-2.133l8.005-15.859h2.081L107.256,150.274z M111.905,146.324c0-1.348,0.296-2.347,0.888-2.997
			c0.592-0.649,1.401-0.975,2.428-0.975c1.033,0,1.846,0.325,2.438,0.975c0.592,0.65,0.888,1.649,0.888,2.997
			c0,1.354-0.296,2.356-0.888,3.007c-0.592,0.649-1.395,0.975-2.407,0.975c-1.047,0-1.866-0.325-2.458-0.975
			C112.201,148.681,111.905,147.679,111.905,146.324z M114.155,146.329c0,0.983,0.112,1.64,0.339,1.97
			c0.171,0.255,0.406,0.382,0.708,0.382c0.308,0,0.544-0.124,0.708-0.371c0.226-0.337,0.339-0.997,0.339-1.98
			s-0.109-1.644-0.328-1.98c-0.171-0.247-0.411-0.371-0.719-0.371s-0.544,0.124-0.708,0.371
			C114.268,144.686,114.155,145.346,114.155,146.329z"/>
	</g>
</g>
</svg>
