<?xml version="1.0" standalone="no"?>
<!DOCTYPE svg PUBLIC "-//W3C//DTD SVG 20010904//EN"
 "http://www.w3.org/TR/2001/REC-SVG-20010904/DTD/svg10.dtd">
<svg version="1.0" xmlns="http://www.w3.org/2000/svg"
 width="1024.000000pt" height="1024.000000pt" viewBox="0 0 1024.000000 1024.000000"
 preserveAspectRatio="xMidYMid meet">
<metadata>
Created by potrace 1.11, written by Peter Selinger 2001-2013
</metadata>
<g transform="translate(0.000000,1024.000000) scale(0.100000,-0.100000)"
fill="#000000" stroke="none">
<path d="M6150 10010 c-167 -12 -282 -48 -407 -127 -100 -62 -263 -229 -247
-254 6 -11 44 -12 44 -1 0 13 114 139 165 181 65 55 190 116 290 143 111 29
372 32 490 4 250 -58 407 -185 523 -423 60 -120 83 -198 97 -315 5 -35 13 -59
21 -62 52 -20 12 206 -66 372 -164 350 -474 514 -910 482z"/>
<path d="M4080 9940 c-25 -15 2 -28 72 -35 153 -15 289 -63 384 -135 97 -73
206 -251 233 -378 20 -98 10 -355 -19 -462 -23 -83 -70 -299 -70 -320 0 -15 5
-20 17 -18 14 3 25 35 50 153 18 83 37 164 43 180 36 110 41 400 9 515 -22 82
-71 178 -127 252 -48 64 -164 149 -254 186 -102 42 -309 80 -338 62z"/>
<path d="M3840 9925 c-181 -37 -356 -145 -461 -287 -97 -131 -179 -322 -150
-351 16 -16 25 -2 59 95 57 168 192 339 332 421 72 41 190 82 269 93 41 5 51
10 51 25 0 22 -9 22 -100 4z"/>
<path d="M5421 9518 c-63 -148 -74 -228 -67 -487 9 -313 17 -374 46 -345 5 5
5 80 0 174 -5 91 -5 242 -1 335 7 162 10 174 42 256 19 47 33 91 31 98 -8 24
-34 9 -51 -31z"/>
<path d="M3895 9507 c-136 -56 -233 -192 -243 -341 -4 -61 0 -84 27 -161 54
-154 95 -210 294 -389 78 -70 177 -189 177 -212 0 -5 -36 -17 -81 -27 -45 -10
-125 -33 -179 -52 l-99 -33 -28 30 c-15 16 -53 52 -84 79 -45 39 -59 46 -68
36 -8 -10 6 -29 59 -83 38 -38 70 -72 70 -75 0 -4 -39 -25 -87 -48 -221 -106
-441 -259 -628 -436 l-90 -85 -81 0 c-314 0 -583 -154 -777 -447 -68 -102
-133 -229 -143 -283 -5 -25 -3 -31 17 -39 15 -6 18 -10 8 -10 -10 -1 -19 -13
-23 -32 -3 -18 -17 -42 -30 -54 -34 -31 -50 -175 -43 -376 4 -127 10 -170 31
-242 25 -85 80 -205 116 -257 17 -24 17 -30 -10 -170 -38 -196 -56 -348 -43
-361 19 -19 40 18 47 83 7 69 56 351 62 357 2 2 37 -27 77 -65 129 -122 256
-180 417 -191 235 -15 441 70 635 262 145 142 242 290 306 462 l21 56 112 -6
c61 -2 133 -10 160 -17 l48 -13 -5 -46 c-8 -73 11 -287 32 -365 36 -131 60
-184 89 -199 22 -10 27 -19 25 -43 -2 -25 11 -47 65 -115 119 -147 249 -240
412 -291 64 -20 95 -23 215 -23 103 1 158 6 209 19 172 46 299 120 430 251
167 167 269 335 321 528 l18 69 139 -7 c101 -6 138 -4 138 4 0 15 81 2 95 -15
9 -10 357 -49 520 -57 l49 -2 -2 -55 c-8 -167 -53 -461 -107 -705 -25 -108
-23 -134 8 -122 34 13 147 644 147 825 l0 52 99 -2 c87 -3 103 0 128 18 58 42
85 158 55 231 -16 38 -71 63 -136 63 -24 0 -63 3 -88 6 l-45 6 -6 167 c-11
268 -43 453 -123 691 -46 139 -65 173 -85 153 -8 -8 0 -39 24 -104 74 -196
120 -434 137 -704 5 -88 10 -171 10 -183 l0 -24 -170 7 c-124 6 -170 4 -170
-4 0 -16 -77 -14 -83 3 -7 17 -71 24 -297 32 -102 3 -191 7 -197 9 -8 3 -13
24 -13 58 0 121 -45 299 -107 422 -66 129 -233 318 -273 308 -11 -3 -20 -10
-20 -15 0 -6 39 -52 88 -103 48 -50 95 -107 105 -126 17 -33 17 -33 0 -9 -10
14 -33 42 -52 63 l-34 38 -171 -1 c-137 -1 -180 2 -216 15 -25 9 -88 19 -140
22 -79 5 -110 2 -180 -17 -74 -19 -108 -22 -265 -20 l-181 1 -54 -63 c-71 -84
-75 -87 -60 -58 11 21 92 108 215 232 l20 20 -23 -12 c-13 -6 -31 -9 -40 -5
-11 4 -44 -23 -113 -92 -101 -103 -201 -244 -241 -341 l-23 -54 -44 6 c-24 3
-99 6 -167 6 l-124 0 0 99 c0 110 -20 244 -52 341 -40 127 -149 307 -214 354
-22 16 -27 17 -40 5 -12 -13 -8 -21 29 -61 88 -96 185 -296 201 -413 l5 -40
-10 38 -11 37 -90 0 c-89 0 -90 0 -84 -22 18 -65 14 -75 -7 -18 -30 82 -40
100 -94 177 -94 133 -217 208 -364 223 -244 24 -450 -87 -610 -329 -29 -44
-55 -78 -58 -75 -3 2 1 10 7 16 23 23 11 28 -69 28 l-80 0 -25 -52 c-13 -29
-22 -42 -18 -28 12 52 93 208 149 285 72 101 102 133 194 207 140 113 280 165
466 175 129 7 200 -7 311 -62 40 -19 77 -35 83 -35 21 0 11 38 -15 57 l-25 19
58 43 c87 65 228 129 347 158 86 22 106 30 106 45 0 24 -16 23 -130 -7 -119
-32 -252 -94 -350 -164 l-75 -54 -50 16 c-27 9 -56 18 -63 19 -8 2 30 46 85
99 285 277 671 480 1073 564 179 38 322 50 555 49 196 -1 317 -13 468 -45 159
-33 167 -37 167 -66 0 -21 -47 -174 -76 -246 -6 -16 -3 -18 17 -15 20 3 28 17
56 98 42 125 64 240 66 342 2 68 -1 83 -13 83 -12 0 -17 -22 -25 -95 -12 -112
7 -106 -185 -61 -100 23 -183 34 -317 43 -176 12 -183 13 -183 33 0 12 -3 24
-6 28 -12 12 -34 -6 -34 -27 0 -21 -6 -23 -152 -34 -84 -7 -170 -15 -191 -19
l-38 -6 7 39 c3 21 31 113 61 204 83 253 95 354 61 500 -45 193 -220 348 -400
356 -43 2 -85 -1 -103 -9z m228 -60 c118 -54 213 -177 242 -314 28 -130 12
-236 -69 -471 -25 -73 -50 -159 -57 -192 -7 -37 -17 -60 -25 -60 -7 0 -32 28
-55 63 -24 34 -83 100 -132 147 -204 193 -231 223 -268 300 -57 117 -72 173
-67 248 6 115 84 238 180 286 46 24 62 27 124 23 47 -2 88 -12 127 -30z
m-1220 -2072 c118 -31 210 -101 287 -220 73 -112 93 -187 98 -360 3 -127 1
-163 -17 -239 -42 -175 -121 -315 -249 -438 -109 -105 -213 -154 -352 -165
-142 -11 -261 37 -370 150 -36 37 -71 67 -78 67 -16 0 -35 39 -38 80 -1 19
-12 67 -25 105 -20 61 -23 90 -22 225 0 128 4 169 21 234 30 108 89 226 159
316 159 204 383 298 586 245z m1647 -325 c-33 -23 -50 -30 -50 -22 0 5 10 14
23 20 28 14 47 15 27 2z m391 -4 c166 -36 297 -149 378 -328 81 -178 80 -445
-3 -647 -89 -218 -277 -404 -469 -462 -56 -18 -88 -20 -190 -18 -118 4 -126 5
-198 41 -81 40 -180 131 -228 209 -78 124 -106 248 -98 432 6 150 26 237 84
350 163 325 436 484 724 423z m183 -1 c14 -11 16 -15 5 -15 -8 0 -23 7 -33 15
-14 11 -16 15 -5 15 8 0 23 -7 33 -15z m99 -84 c16 -14 38 -39 50 -56 12 -16
-3 -5 -33 26 -30 30 -66 63 -80 73 -24 17 -24 17 5 0 17 -9 43 -28 58 -43z
m-763 36 c0 -2 -19 -18 -42 -36 l-43 -32 39 35 c37 34 46 40 46 33z m-943 -54
c-3 -10 -5 -2 -5 17 0 19 2 27 5 18 2 -10 2 -26 0 -35z m-180 -15 c-3 -7 -5
-2 -5 12 0 14 2 19 5 13 2 -7 2 -19 0 -25z m2183 -29 c12 -23 20 -43 18 -45
-3 -2 -14 17 -26 41 -27 56 -20 60 8 4z m-2173 -171 c-2 -35 -3 -9 -3 57 0 66
1 94 3 63 2 -32 2 -86 0 -120z m180 65 c-2 -21 -4 -4 -4 37 0 41 2 58 4 38 2
-21 2 -55 0 -75z m0 -75 c-3 -7 -5 -2 -5 12 0 14 2 19 5 13 2 -7 2 -19 0 -25z
m-1440 0 c-3 -8 -6 -5 -6 6 -1 11 2 17 5 13 3 -3 4 -12 1 -19z m-10 -155 c-3
-10 -5 -4 -5 12 0 17 2 24 5 18 2 -7 2 -21 0 -30z"/>
<path d="M2852 6660 c-47 -29 -72 -76 -72 -135 0 -123 123 -194 231 -133 78
43 101 155 49 228 -42 60 -144 79 -208 40z"/>
<path d="M4732 6379 c-127 -82 -71 -289 78 -289 94 1 160 67 160 161 0 116
-139 191 -238 128z"/>
<path d="M6104 9511 c-129 -31 -240 -160 -279 -322 -20 -85 -20 -169 -1 -169
10 0 17 16 21 48 33 253 160 412 330 412 38 0 65 13 65 32 0 10 -93 9 -136 -1z"/>
<path d="M6390 9459 c0 -6 21 -35 48 -63 85 -94 132 -222 132 -366 0 -95 -20
-173 -69 -275 -52 -106 -117 -189 -237 -305 -123 -119 -456 -372 -470 -357 -3
2 0 33 6 68 17 99 40 439 40 592 0 124 -2 138 -17 135 -14 -3 -17 -20 -19
-113 -7 -272 -39 -616 -65 -702 -6 -19 -24 -41 -45 -53 -19 -12 -34 -28 -34
-35 0 -25 29 -24 67 3 22 15 107 73 189 129 473 323 693 613 694 911 0 148
-52 297 -136 391 -42 47 -84 67 -84 40z"/>
<path d="M3206 9161 c-7 -48 9 -172 29 -215 8 -17 23 -56 34 -86 42 -114 208
-350 246 -350 31 0 23 23 -29 86 -152 178 -224 333 -235 504 -5 76 -9 95 -22
98 -12 2 -18 -8 -23 -37z"/>
<path d="M7116 8993 c-3 -21 -6 -53 -6 -71 0 -47 -28 -176 -52 -240 -26 -70
-119 -209 -197 -294 -75 -81 -201 -182 -341 -273 -347 -226 -424 -280 -504
-356 -78 -73 -106 -119 -75 -119 6 0 52 38 101 85 50 47 96 85 102 85 20 0
124 -139 222 -297 14 -23 44 -22 44 1 0 19 -87 154 -157 244 -35 45 -62 86
-59 91 3 4 43 32 88 61 247 158 432 286 504 349 130 111 268 296 314 418 42
114 67 353 36 353 -8 0 -16 -15 -20 -37z"/>
<path d="M4756 7791 c-11 -18 1 -29 59 -50 160 -60 323 -171 403 -275 22 -29
52 -30 52 -3 0 22 -122 139 -205 197 -79 54 -223 126 -273 136 -17 4 -32 1
-36 -5z"/>
<path d="M4705 7379 c-91 -13 -161 -36 -262 -85 -72 -34 -93 -49 -93 -65 0
-33 24 -32 86 5 201 119 524 137 715 40 58 -29 79 -30 79 -5 0 26 -16 36 -96
67 -133 50 -279 65 -429 43z"/>
<path d="M1941 5337 c-7 -9 -14 -87 -19 -211 l-7 -197 -74 -5 c-151 -9 -257
-70 -437 -249 -139 -137 -294 -328 -294 -361 0 -32 -32 -84 -52 -84 -12 0 -31
-29 -62 -92 -65 -135 -91 -264 -161 -794 -25 -191 -69 -439 -105 -589 -14 -60
-34 -105 -79 -179 -33 -54 -72 -132 -87 -173 l-27 -75 23 -132 c24 -135 72
-319 108 -416 43 -114 180 -373 218 -410 14 -14 98 184 91 212 -7 24 39 136
63 157 11 9 59 117 108 241 101 254 140 336 242 506 146 242 278 414 445 579
177 176 345 295 450 319 17 4 37 9 47 12 11 3 36 -22 86 -88 92 -122 265 -289
377 -364 180 -120 383 -201 625 -250 l135 -28 153 -120 c84 -67 158 -121 165
-121 19 0 21 37 3 47 -15 8 -206 157 -230 179 -6 5 45 9 117 9 l126 0 49 -72
c45 -66 92 -150 92 -162 0 -3 -17 -8 -37 -12 -87 -15 -218 -138 -385 -359 -50
-66 -95 -124 -99 -129 -4 -4 -21 2 -39 15 -45 34 -152 38 -251 10 -45 -13 -75
-17 -77 -11 -6 17 -52 12 -52 -5 0 -29 -43 -38 -95 -21 -35 12 -51 14 -61 6
-21 -18 -6 -36 39 -50 225 -67 380 -332 451 -775 9 -55 19 -115 22 -133 6 -37
31 -53 48 -30 7 9 37 18 80 22 37 5 97 16 132 26 l64 17 0 -36 c-1 -60 -38
-211 -69 -277 -35 -75 -74 -106 -167 -132 l-71 -20 18 76 c10 41 19 111 21
156 3 75 2 81 -17 84 -19 3 -22 -5 -32 -110 -7 -62 -21 -140 -32 -172 -12 -33
-21 -63 -21 -68 0 -23 167 0 231 33 42 21 93 76 117 125 9 20 23 34 34 34 10
0 18 -3 18 -6 0 -3 -36 -47 -79 -98 l-79 -92 111 2 c62 1 198 2 303 3 l192 1
79 122 c117 181 148 236 177 308 25 63 28 67 72 78 84 23 172 129 188 228 5
29 2 55 -13 93 l-19 52 30 57 c28 54 30 62 25 142 -2 47 -2 104 2 127 l6 43
95 -71 c202 -149 364 -229 467 -229 56 0 58 1 113 58 127 130 286 544 335 869
8 57 15 106 15 110 0 3 23 -27 51 -68 28 -41 57 -80 64 -88 12 -12 11 -19 -2
-45 -10 -18 -18 -65 -21 -115 -4 -70 -9 -92 -32 -128 -15 -23 -33 -63 -40 -88
-16 -56 -9 -159 14 -202 10 -20 16 -56 16 -96 0 -66 12 -114 39 -156 9 -14 16
-48 16 -80 1 -66 18 -101 77 -160 44 -44 92 -73 141 -85 24 -6 27 -11 27 -45
0 -75 72 -300 115 -357 13 -18 15 -18 30 -3 15 15 15 20 -8 65 -33 66 -75 202
-83 268 -6 48 -4 55 14 60 35 11 136 -62 183 -133 22 -33 44 -63 49 -66 12 -7
73 103 67 119 -3 8 -24 17 -46 21 -85 14 -217 113 -287 216 -30 44 -54 69 -64
67 -30 -6 -21 -44 26 -108 l46 -63 -35 6 c-115 18 -205 117 -194 214 10 93 95
150 244 161 79 6 88 9 88 27 0 19 -7 20 -100 20 -92 0 -104 -2 -150 -29 -27
-16 -62 -40 -77 -53 -14 -14 -31 -23 -36 -19 -5 3 -15 26 -22 51 -18 63 -7
132 26 166 26 27 29 59 7 66 -7 3 -23 -7 -37 -22 -30 -32 -36 -24 -43 55 -5
50 -2 67 20 112 65 132 157 190 314 196 64 3 108 -1 146 -12 72 -21 79 -20 75
6 -2 17 -17 29 -58 46 -47 19 -70 22 -155 20 -93 -3 -106 -6 -177 -41 -42 -20
-80 -37 -84 -37 -15 0 10 99 37 143 16 27 27 52 24 57 -6 10 14 26 45 33 14 3
59 18 100 33 145 51 328 42 437 -21 50 -30 73 -32 73 -6 0 38 -83 81 -230 120
-21 5 -26 15 -33 61 -5 30 -16 62 -23 71 -22 25 -39 146 -24 174 14 26 -3 127
-55 330 -62 240 -148 458 -250 633 -43 73 -41 73 80 -13 178 -127 362 -298
490 -455 70 -86 199 -267 266 -374 55 -87 76 -107 91 -84 14 22 10 31 -73 158
-257 394 -548 687 -884 890 -47 28 -85 54 -85 56 0 3 13 24 29 47 151 221 347
631 448 936 44 133 47 161 19 161 -16 0 -15 3 -71 -160 -121 -351 -258 -635
-441 -914 -54 -80 -84 -136 -82 -150 2 -14 -4 -24 -20 -31 -13 -5 -67 -64
-120 -130 -112 -141 -391 -423 -512 -519 -349 -276 -721 -434 -1135 -481 -215
-24 -406 -17 -640 26 -208 38 -433 129 -604 244 -152 102 -318 274 -432 448
-70 106 -194 350 -239 469 -21 56 -39 88 -50 91 -22 6 -36 62 -21 81 8 10 3
43 -19 127 -33 127 -63 293 -81 444 -10 83 -13 465 -6 654 2 46 -11 62 -32 38z
m3897 -1724 c118 -251 174 -477 189 -771 4 -90 10 -125 20 -129 17 -7 16 -63
-2 -87 -8 -11 -15 -36 -15 -57 0 -68 -34 -219 -50 -219 -5 0 -44 52 -87 116
-98 147 -166 230 -206 255 -42 25 -116 25 -165 0 -49 -25 -214 -170 -209 -184
7 -23 25 -15 96 48 41 36 77 65 81 65 8 0 -12 -158 -35 -286 -26 -139 -119
-387 -155 -409 -15 -9 -93 29 -179 87 -138 94 -412 315 -559 450 -42 38 -43
40 -27 64 25 39 92 68 158 67 83 0 182 -53 291 -154 46 -44 91 -79 100 -79 32
0 15 33 -46 92 -123 117 -258 188 -357 188 -56 0 -139 -37 -169 -74 l-20 -27
-41 78 c-22 42 -37 80 -33 84 4 4 45 19 92 34 47 15 127 46 177 67 l93 40 87
-68 c152 -119 283 -254 389 -399 14 -20 25 -27 37 -22 21 8 12 29 -40 93 -18
23 -33 48 -33 56 0 8 29 114 64 234 36 120 85 299 110 397 l45 179 104 112
c57 62 132 147 167 189 34 42 66 77 70 77 4 0 30 -48 58 -107z m-470 -370
c-36 -136 -181 -649 -185 -656 -3 -5 -55 41 -116 100 -62 60 -140 131 -174
157 -35 27 -63 50 -63 52 0 2 21 15 48 28 110 56 424 282 471 339 22 28 30 19
19 -20z m281 -558 c16 -8 50 -38 76 -67 l47 -53 -5 -85 c-3 -47 -15 -130 -26
-185 -21 -102 -77 -309 -91 -334 -5 -10 -17 6 -39 52 -18 37 -57 94 -87 127
l-56 60 21 87 c11 49 28 157 38 242 16 135 20 154 38 162 30 12 53 10 84 -6z
m-755 -530 l78 -60 -6 -63 c-9 -82 -49 -209 -80 -247 l-23 -29 -34 28 c-47 40
-79 135 -82 246 -2 72 -7 93 -32 138 -16 29 -48 71 -72 93 -31 28 -51 59 -68
106 -14 36 -25 67 -25 69 0 3 60 -46 133 -108 73 -62 168 -140 211 -173z
m-769 255 c3 -5 35 -10 69 -10 95 0 162 -16 252 -61 146 -72 254 -194 254
-286 l0 -32 -37 25 c-65 44 -157 84 -218 95 -33 5 -78 14 -100 19 -22 5 -44 5
-50 0 -5 -4 -29 -13 -51 -19 -43 -12 -65 -38 -39 -47 8 -3 37 -1 65 5 110 24
199 6 312 -60 108 -64 148 -125 156 -242 l5 -81 -37 37 c-57 57 -148 99 -228
105 -55 4 -68 2 -68 -10 0 -24 22 -38 62 -38 100 0 230 -89 256 -176 18 -62
15 -134 -8 -171 l-20 -33 -52 40 c-64 48 -126 69 -234 77 -68 5 -82 3 -87 -10
-9 -25 13 -34 99 -40 128 -8 206 -51 259 -142 50 -87 41 -154 -31 -234 -36
-40 -57 -54 -101 -67 -30 -9 -57 -14 -59 -11 -3 3 3 18 13 33 14 22 24 28 46
26 37 -5 36 23 -3 43 -42 21 -45 20 -75 -30 -42 -72 -141 -171 -231 -231 -46
-31 -84 -62 -84 -70 0 -15 -3 -15 -60 -19 -19 -2 -66 -12 -105 -24 -38 -12
-103 -24 -144 -28 -67 -6 -74 -4 -68 10 20 51 39 206 39 307 0 228 -47 397
-184 665 -26 50 -58 105 -72 124 -14 19 -22 39 -19 45 32 53 188 249 258 324
86 91 139 131 206 153 19 7 45 20 58 31 26 20 47 23 56 8z m1396 -344 c73
-102 93 -157 79 -219 -20 -90 -116 -272 -172 -324 l-23 -22 3 117 c4 121 -11
218 -44 287 -14 31 -14 34 31 125 25 52 45 100 45 108 0 27 26 4 81 -72z
m-425 -62 c89 -60 157 -94 188 -94 21 0 28 -9 45 -55 40 -107 50 -265 21 -341
-11 -28 -40 -23 -145 25 -75 35 -278 161 -290 181 -3 5 8 30 25 56 31 50 55
121 72 216 6 32 11 58 13 58 1 0 33 -21 71 -46z m-1633 -117 c20 -15 59 -62
87 -105 l51 -77 -68 -6 c-62 -6 -175 -29 -214 -44 -11 -4 -27 11 -54 50 -21
31 -65 81 -98 111 -33 30 -56 54 -51 54 5 1 45 12 89 25 111 34 207 31 258 -8z
m164 -249 c6 -7 29 -58 53 -113 66 -155 117 -445 82 -472 -18 -15 -131 -41
-212 -50 -56 -5 -59 -5 -64 18 -2 13 -16 87 -30 164 -22 113 -83 321 -120 407
-15 34 266 78 291 46z"/>
<path d="M4283 1853 c-7 -2 -13 -14 -13 -24 0 -17 6 -20 43 -17 35 2 43 7 45
26 3 19 -1 22 -30 21 -18 0 -39 -3 -45 -6z"/>
<path d="M3977 4034 c-27 -28 20 -149 79 -204 l45 -42 -39 -51 c-94 -124 -236
-248 -346 -304 -163 -83 -409 -115 -587 -78 -94 20 -230 75 -296 121 -104 72
-214 204 -302 367 -24 42 -46 77 -51 77 -4 0 -13 -7 -20 -15 -10 -12 -2 -31
40 -105 100 -175 212 -305 323 -376 43 -26 47 -33 77 -127 18 -54 55 -135 82
-180 85 -142 162 -205 314 -259 219 -76 449 -33 640 120 162 130 238 311 267
635 l12 139 93 0 c113 0 147 8 147 34 0 18 -7 19 -110 15 -116 -3 -186 10
-240 45 -34 22 -74 91 -83 145 -7 41 -27 60 -45 43z m182 -306 c-2 -31 -3 -35
-6 -15 -2 15 -9 25 -14 21 -6 -3 -5 3 3 15 7 12 14 21 15 21 2 0 2 -19 2 -42z
m-159 -151 c0 -2 -10 -12 -22 -23 l-23 -19 19 23 c18 21 26 27 26 19z m105
-264 c-47 -162 -164 -302 -315 -378 -62 -31 -179 -69 -187 -61 -11 10 27 112
67 179 73 124 227 254 379 318 77 33 81 29 56 -58z m-375 57 c-8 -5 -19 -10
-25 -10 -5 0 -3 5 5 10 8 5 20 10 25 10 6 0 3 -5 -5 -10z m-760 -26 c0 -2 -7
-4 -15 -4 -8 0 -15 4 -15 10 0 5 7 7 15 4 8 -4 15 -8 15 -10z m97 -30 c-3 -3
-12 -4 -19 -1 -8 3 -5 6 6 6 11 1 17 -2 13 -5z m510 0 c-3 -3 -12 -4 -19 -1
-8 3 -5 6 6 6 11 1 17 -2 13 -5z m263 2 c0 -2 -8 -10 -17 -17 -16 -13 -17 -12
-4 4 13 16 21 21 21 13z m-303 -12 c-3 -3 -12 -4 -19 -1 -8 3 -5 6 6 6 11 1
17 -2 13 -5z m-390 -10 c-3 -3 -12 -4 -19 -1 -8 3 -5 6 6 6 11 1 17 -2 13 -5z
m336 -1 c-7 -2 -21 -2 -30 0 -10 3 -4 5 12 5 17 0 24 -2 18 -5z m-260 -10 c-7
-2 -21 -2 -30 0 -10 3 -4 5 12 5 17 0 24 -2 18 -5z m195 0 c-10 -2 -26 -2 -35
0 -10 3 -2 5 17 5 19 0 27 -2 18 -5z m382 3 c0 -2 -8 -10 -17 -17 -16 -13 -17
-12 -4 4 13 16 21 21 21 13z m-187 -221 c-3 -9 -8 -14 -10 -11 -3 3 -2 9 2 15
9 16 15 13 8 -4z m-508 -15 c10 -11 16 -20 13 -20 -3 0 -13 9 -23 20 -10 11
-16 20 -13 20 3 0 13 -9 23 -20z m488 -25 c-3 -9 -8 -14 -10 -11 -3 3 -2 9 2
15 9 16 15 13 8 -4z m-46 -127 c-3 -8 -6 -5 -6 6 -1 11 2 17 5 13 3 -3 4 -12
1 -19z m-170 -4 c-3 -3 -12 -4 -19 -1 -8 3 -5 6 6 6 11 1 17 -2 13 -5z m50
-10 c-3 -3 -12 -4 -19 -1 -8 3 -5 6 6 6 11 1 17 -2 13 -5z m96 -11 c-13 -2
-35 -2 -50 0 -16 2 -5 4 22 4 28 0 40 -2 28 -4z"/>
<path d="M2780 4014 c0 -9 10 -24 23 -34 13 -10 32 -34 42 -54 19 -35 47 -47
60 -26 8 13 -10 44 -52 91 -36 40 -73 52 -73 23z"/>
<path d="M3360 3899 c-76 -36 -101 -56 -93 -75 7 -20 20 -18 84 15 30 15 70
33 88 39 23 8 32 17 29 29 -5 28 -38 26 -108 -8z"/>
<path d="M8276 2861 l-29 -6 -1 -247 -1 -247 46 -6 c25 -4 80 -7 121 -7 132
-2 218 61 218 159 0 38 -5 50 -35 80 l-35 35 20 25 c31 40 28 122 -7 164 -15
17 -42 38 -60 45 -33 14 -181 17 -237 5z m192 -113 c6 -6 12 -23 12 -39 0 -34
-23 -49 -74 -49 l-36 0 0 49 c0 30 5 51 13 54 16 7 69 -3 85 -15z m10 -204
c50 -35 9 -97 -61 -92 l-42 3 -3 53 -3 52 43 0 c24 0 54 -7 66 -16z"/>
<path d="M7925 2813 c-21 -4 -138 -44 -143 -48 -1 -1 11 -51 28 -110 16 -59
41 -167 55 -239 14 -71 27 -132 29 -134 3 -2 32 4 66 14 l62 17 -5 36 c-3 20
-8 50 -12 67 -7 30 -6 31 47 48 101 33 158 101 158 188 -1 102 -81 169 -199
167 -36 -1 -75 -3 -86 -6z m125 -123 c20 -20 26 -65 12 -87 -9 -14 -82 -46
-89 -40 -4 5 -32 113 -33 129 0 3 8 9 18 11 40 11 73 6 92 -13z"/>
<path d="M8760 2809 c-60 -24 -101 -87 -103 -156 0 -63 24 -91 126 -141 65
-32 87 -48 87 -62 0 -47 -75 -46 -136 2 l-26 21 -34 -39 c-18 -21 -33 -44 -34
-51 -1 -32 115 -83 190 -83 102 0 188 85 176 174 -8 69 -35 92 -177 156 -43
19 -46 50 -6 64 21 8 38 5 77 -11 l49 -21 37 41 37 40 -29 24 c-58 46 -172 67
-234 42z"/>
<path d="M6727 2323 c-14 -14 -6 -40 21 -66 31 -30 42 -27 42 13 0 38 -43 74
-63 53z"/>
<path d="M8257 2263 c-11 -3 -16 -10 -13 -20 3 -8 6 -60 6 -114 l0 -100 33 3
c18 2 32 8 31 16 -1 6 -2 59 -2 117 -2 112 -2 112 -55 98z"/>
<path d="M8390 2160 c0 -60 -1 -113 -2 -117 -5 -13 85 -15 124 -4 20 6 49 26
63 43 23 27 26 39 22 75 -8 74 -63 113 -157 113 l-50 0 0 -110z m133 28 c9
-11 17 -31 17 -44 0 -29 -36 -64 -67 -64 -22 0 -23 4 -23 63 0 35 3 67 7 70
10 11 46 -3 66 -25z"/>
<path d="M8672 2227 c-25 -26 -28 -64 -9 -90 6 -9 35 -26 62 -36 28 -10 50
-25 50 -32 0 -22 -63 -14 -89 10 -23 21 -23 21 -41 2 -24 -28 -13 -48 37 -71
58 -26 101 -25 132 3 58 51 34 113 -54 142 -52 17 -62 28 -34 39 21 8 53 -1
77 -22 16 -14 19 -14 39 5 24 25 20 35 -26 57 -52 24 -118 21 -144 -7z"/>
<path d="M8076 2190 c-26 -27 -49 -50 -51 -50 -2 0 -7 20 -11 45 -4 32 -11 45
-23 45 -41 -1 -43 -12 -23 -124 10 -59 21 -107 25 -106 4 0 18 0 32 0 21 0 24
4 20 23 -3 12 1 31 9 42 14 20 15 19 49 -14 30 -28 40 -32 66 -26 17 4 31 8
31 11 0 2 -20 22 -45 45 -25 23 -45 46 -45 51 0 6 14 23 32 40 25 24 30 33 21
46 -18 30 -39 24 -87 -28z"/>
<path d="M8145 1964 c-137 -25 -424 -110 -448 -134 -5 -4 14 -29 43 -56 l51
-48 -93 -33 c-51 -18 -100 -35 -108 -39 -10 -3 13 -23 67 -59 l83 -53 -90 -33
c-50 -18 -90 -37 -90 -41 0 -4 38 -34 85 -66 l84 -59 -28 -21 c-37 -27 -71
-98 -71 -148 1 -53 31 -116 71 -146 39 -30 99 -51 131 -47 17 2 46 -20 113
-88 110 -110 210 -165 345 -189 220 -40 427 23 581 176 198 196 243 475 118
730 -83 168 -251 298 -453 350 -95 24 -268 26 -391 4z m669 -226 c126 -126
176 -242 176 -413 0 -166 -48 -284 -165 -401 -189 -191 -482 -227 -713 -87
-228 138 -341 415 -267 658 8 28 19 56 23 63 10 14 792 259 835 261 22 1 45
-16 111 -81z m-1040 -504 c4 -31 18 -86 32 -121 14 -35 24 -66 22 -69 -9 -8
-72 17 -94 37 -30 28 -47 81 -39 119 7 30 50 90 65 90 4 0 10 -25 14 -56z"/>
<path d="M8712 1604 c-55 -28 -86 -78 -86 -138 0 -90 60 -150 150 -151 89 0
149 60 149 150 0 57 -18 91 -67 128 -36 27 -105 32 -146 11z m134 -68 c48 -48
47 -95 -1 -143 -32 -32 -40 -35 -77 -30 -22 3 -48 13 -57 23 -15 16 -15 16 3
10 29 -10 66 19 66 52 0 16 -5 33 -12 40 -17 17 -58 15 -81 -5 -19 -17 -19
-17 -12 7 24 82 112 105 171 46z"/>
<path d="M8153 1540 c-139 -28 -231 -164 -202 -299 41 -194 276 -274 421 -143
140 126 107 348 -62 420 -58 25 -105 32 -157 22z m156 -88 c151 -92 102 -331
-73 -357 -77 -12 -173 33 -207 98 -11 19 -10 19 12 3 54 -37 129 0 129 64 0
41 -39 80 -80 80 -22 0 -41 -10 -62 -30 l-30 -31 7 38 c10 53 30 88 70 120 72
58 155 64 234 15z"/>
<path d="M8586 1159 c-52 -41 -23 -129 43 -129 71 0 101 80 47 127 -33 28 -56
29 -90 2z m62 -57 c2 -7 -6 -12 -17 -12 -21 0 -27 11 -14 24 9 9 26 2 31 -12z"/>
<path d="M8747 1005 c-114 -105 -316 -129 -492 -59 -71 29 -98 26 -93 -8 2
-17 19 -29 70 -50 151 -63 323 -61 461 6 88 42 157 108 141 134 -18 28 -37 24
-87 -23z"/>
<path d="M2630 1919 c-183 -20 -225 -29 -438 -95 -153 -47 -186 -64 -164 -86
13 -13 12 -14 282 66 131 39 185 50 350 68 188 20 231 32 216 57 -9 14 -44 13
-246 -10z"/>
<path d="M6153 1930 c-76 -16 -133 -46 -133 -71 0 -18 4 -20 28 -16 15 3 47
13 72 22 30 11 75 17 138 17 73 0 95 3 99 15 3 8 1 19 -4 24 -13 13 -151 20
-200 9z"/>
<path d="M1860 1721 c-52 -16 -156 -38 -230 -50 -189 -31 -182 -29 -178 -49 5
-26 65 -27 192 -2 143 27 327 78 345 95 16 16 6 35 -17 34 -9 0 -60 -13 -112
-28z"/>
<path d="M9380 1100 c-42 -42 -13 -110 46 -110 36 0 74 28 74 56 0 19 -19 56
-34 66 -21 14 -66 8 -86 -12z m98 -23 c32 -66 -62 -109 -97 -46 -13 24 -13 29
3 53 24 37 75 33 94 -7z"/>
<path d="M9400 1055 c0 -19 5 -35 10 -35 6 0 10 8 10 18 0 14 4 12 20 -8 11
-14 20 -20 20 -13 0 6 -5 15 -11 19 -8 4 -8 9 0 17 20 20 12 37 -19 37 -28 0
-30 -3 -30 -35z m50 15 c0 -5 -7 -10 -15 -10 -8 0 -15 5 -15 10 0 6 7 10 15
10 8 0 15 -4 15 -10z"/>
</g>
</svg>
