<?xml version="1.0" encoding="utf-8"?>
<!-- Generator: Adobe Illustrator 19.1.0, SVG Export Plug-In . SVG Version: 6.00 Build 0)  -->
<svg version="1.1" id="Layer_1" xmlns="http://www.w3.org/2000/svg" xmlns:xlink="http://www.w3.org/1999/xlink" x="0px" y="0px"
	 viewBox="0 0 232.1 232.1" style="enable-background:new 0 0 232.1 232.1;" xml:space="preserve">
<style type="text/css">
	.st0{fill:#A1A1A1;}
	.st1{fill:#F2F2F2;}
	.st2{fill:#808080;}
	.st3{fill:#FFFFFF;}
	.st4{fill:#666666;}
	.st5{fill:none;stroke:#666666;stroke-miterlimit:10;}
	.st6{fill:#B3B3B3;}
	.st7{fill:#CCCCCC;}
</style>
<g>
	<path class="st0" d="M116,232.1c-64,0-116-52-116-116S52,0,116,0s116,52,116,116S180,232.1,116,232.1z"/>
	<circle class="st1" cx="116" cy="116" r="104.2"/>
	<g>
		<g>
			<path class="st2" d="M70.4,45c0,0,1.5,0.8,2.9,1.7c1.4,0.9,2.9,1.8,2.9,1.8s0.5-0.2,1.1-0.4c0.7-0.2,1.6-0.5,2.5-0.8
				c0.9-0.3,1.8-0.6,2.5-0.7c0.7-0.2,1.2-0.3,1.2-0.3s-0.9,1.6-1.6,3.2c-0.7,1.6-1.5,3.2-1.5,3.2s1,1.4,1.9,2.7
				c0.9,1.4,1.9,2.8,1.9,2.8s-0.4,0-1.1-0.1c-0.6-0.1-1.5-0.1-2.3-0.2c-0.9,0-1.7-0.1-2.4-0.1c-0.7,0-1.1,0-1.1,0s-1,1.3-2,2.7
				c-0.9,1.3-1.9,2.7-1.9,2.7s-0.6-1.4-1.1-2.9c-0.6-1.4-1.1-2.9-1.1-2.9s-0.4-0.1-1.1-0.2c-0.6-0.1-1.5-0.2-2.3-0.3
				c-1.7-0.1-3.4-0.2-3.4-0.2s1.4-1.3,2.8-2.5c1.5-1.2,3-2.4,3-2.4s0-0.4,0-1c0-0.6,0-1.5,0.1-2.3C70.3,46.8,70.4,45,70.4,45z"/>
		</g>
		<g>
			<path class="st2" d="M92,33.8c0,0,1.4,1.4,2.7,2.9c0.7,0.7,1.3,1.5,1.8,2c0.5,0.6,0.8,0.9,0.8,0.9s0.5,0,1.3-0.1
				c0.8,0,1.8-0.1,2.9-0.1c1.1,0,2.1,0,2.9,0c0.4,0,0.7,0,1,0c0.2,0,0.4,0,0.4,0s-0.3,0.4-0.8,1c-0.5,0.6-1.1,1.4-1.8,2.2
				c-0.6,0.8-1.2,1.6-1.7,2.1c-0.4,0.6-0.7,1-0.7,1s0.7,1.8,1.3,3.7c0.6,1.9,1.3,3.7,1.3,3.7s-0.4-0.2-1.1-0.4
				c-0.7-0.2-1.6-0.5-2.4-0.8c-0.9-0.3-1.8-0.6-2.5-0.8c-0.7-0.2-1.2-0.3-1.2-0.3s-0.4,0.3-0.9,0.8c-0.5,0.4-1.2,1.1-1.9,1.7
				c-0.7,0.6-1.3,1.3-1.8,1.7c-0.5,0.5-0.8,0.8-0.8,0.8s-0.3-1.9-0.6-3.7c-0.3-1.9-0.5-3.8-0.5-3.8s-1.7-0.8-3.6-1.6
				c-1.8-0.8-3.7-1.4-3.7-1.4s0.5-0.3,1.2-0.6c0.7-0.4,1.6-0.8,2.6-1.3c0.9-0.5,1.9-1,2.6-1.3c0.7-0.3,1.2-0.5,1.2-0.5
				s0.4-1.9,0.9-3.9C91.4,35.7,92,33.8,92,33.8z"/>
		</g>
		<g>
			<path class="st2" d="M115.8,26.3c0,0,0.3,0.6,0.8,1.4c0.4,0.8,1,2,1.6,3.1c1.1,2.3,2.2,4.5,2.2,4.5s0.6,0.1,1.6,0.3
				c1,0.2,2.2,0.5,3.5,0.8c1.3,0.3,2.5,0.6,3.5,0.9c0.9,0.3,1.6,0.4,1.6,0.4s-0.5,0.4-1.3,0.9c-0.8,0.6-1.8,1.3-2.8,2
				c-2,1.5-3.9,3.1-3.9,3.1s0.2,2.5,0.4,4.9c0.2,2.5,0.3,4.9,0.3,4.9s-0.5-0.3-1.2-0.8c-0.7-0.5-1.7-1.2-2.7-1.8
				c-1-0.6-2-1.2-2.7-1.7c-0.8-0.5-1.3-0.8-1.3-0.8s-2,1.1-4.1,2.3c-2,1.2-3.9,2.4-3.9,2.4s0.2-2.4,0.5-4.8c0.3-2.4,0.6-4.9,0.6-4.9
				s-0.5-0.4-1.2-1c-0.7-0.6-1.7-1.4-2.6-2.2c-1.9-1.5-4-3-4-3s0.6-0.2,1.6-0.4c1-0.2,2.2-0.6,3.5-0.8c1.3-0.2,2.6-0.5,3.5-0.7
				c1-0.2,1.6-0.3,1.6-0.3s1.1-2.2,2.3-4.4C114.5,28.5,115.8,26.3,115.8,26.3z"/>
		</g>
		<g>
			<path class="st2" d="M139.5,34.2c0,0,0.5,2,0.9,4c0.4,2,0.8,4,0.8,4s0.5,0.2,1.2,0.6c0.7,0.4,1.7,0.9,2.6,1.3
				c0.9,0.5,1.8,1,2.5,1.4c0.7,0.4,1.1,0.7,1.1,0.7s-0.5,0.2-1.2,0.4c-0.7,0.3-1.7,0.6-2.6,1c-0.9,0.4-1.8,0.8-2.5,1.1
				c-0.7,0.3-1.1,0.5-1.1,0.5s-0.3,1.9-0.6,3.8c-0.3,1.9-0.7,3.8-0.7,3.8s-0.3-0.3-0.8-0.8c-0.5-0.5-1.1-1.2-1.7-1.8
				c-0.7-0.7-1.3-1.3-1.8-1.8c-0.5-0.5-0.9-0.8-0.9-0.8s-0.5,0.1-1.2,0.3c-0.7,0.2-1.6,0.5-2.5,0.7c-0.9,0.3-1.8,0.6-2.5,0.8
				c-0.7,0.2-1.1,0.4-1.1,0.4s0.7-1.9,1.4-3.7c0.7-1.9,1.4-3.7,1.4-3.7s-0.3-0.4-0.7-1c-0.4-0.6-1-1.4-1.6-2.2
				c-0.6-0.8-1.2-1.6-1.7-2.2c-0.5-0.6-0.8-1-0.8-1s0.5,0,1.3,0c0.8,0,1.8,0.1,2.9,0.1c1.1,0.1,2.1,0.1,2.9,0.2
				c0.8,0.1,1.3,0.1,1.3,0.1s1.3-1.5,2.7-3C138.1,35.6,139.5,34.2,139.5,34.2z"/>
		</g>
		<g>
			<path class="st2" d="M160.9,46.2c0,0,0,1.8,0,3.5c0,1.7-0.1,3.4-0.1,3.4s1.5,1.2,2.9,2.6c0.7,0.6,1.4,1.3,1.9,1.8
				c0.5,0.5,0.9,0.8,0.9,0.8s-1.7,0-3.4,0.1c-1.7,0.1-3.4,0.3-3.4,0.3s-0.6,1.5-1.2,2.9c-0.6,1.4-1.2,2.8-1.2,2.8s-0.2-0.3-0.6-0.8
				c-0.3-0.5-0.8-1.2-1.3-1.9c-0.5-0.7-0.9-1.4-1.3-1.9c-0.4-0.5-0.6-0.9-0.6-0.9s-0.4,0-1.1,0c-0.7,0-1.5,0-2.4,0
				c-0.9,0-1.7,0.1-2.4,0.1c-0.6,0-1.1,0.1-1.1,0.1s1-1.4,2-2.8c1-1.4,2-2.8,2-2.8s-0.2-0.4-0.4-1c-0.3-0.6-0.6-1.4-0.9-2.2
				c-0.4-0.8-0.7-1.6-1-2.3c-0.3-0.6-0.5-1-0.5-1s0.5,0.1,1.1,0.3c0.7,0.2,1.6,0.5,2.5,0.8c0.9,0.3,1.8,0.6,2.5,0.9
				c0.7,0.3,1.1,0.4,1.1,0.4s1.4-0.9,2.9-1.8C159.4,47,160.9,46.2,160.9,46.2z"/>
		</g>
	</g>
	<g>
		<g>
			<path class="st0" d="M74,86.5l-2-2.2c5.2-4.9,23.7-14.3,40.2-15c0,0,0,0,0,0c14.1-0.5,28.1,2.9,41.4,10.1l-1.4,2.6
				c-12.9-7-26.3-10.3-39.9-9.8c0,0,0,0,0,0C96.7,72.9,78.8,82,74,86.5z"/>
		</g>
		<g>
			<g>
				<g>
					
						<rect x="153.6" y="71.5" transform="matrix(0.8635 0.5043 -0.5043 0.8635 62.9089 -67.419)" class="st0" width="4.7" height="22"/>
				</g>
			</g>
			<g>
				<g>
					
						<rect x="159.1" y="77.8" transform="matrix(0.8703 0.4925 -0.4925 0.8703 63.0761 -67.9953)" class="st0" width="3.2" height="15.8"/>
				</g>
			</g>
			<g>
				<g>
					
						<rect x="163.5" y="83.7" transform="matrix(0.8695 0.4939 -0.4939 0.8695 64.8405 -69.8624)" class="st0" width="2.4" height="8.2"/>
				</g>
			</g>
		</g>
		<g>
			<g>
				<g>
					
						<rect x="68.1" y="76.9" transform="matrix(-0.7609 0.6489 -0.6489 -0.7609 181.1673 109.0109)" class="st0" width="4.7" height="22"/>
				</g>
			</g>
			<g>
				<g>
					
						<rect x="64.9" y="84" transform="matrix(-0.7696 0.6385 -0.6385 -0.7696 176.389 120.1581)" class="st0" width="3.2" height="15.8"/>
				</g>
			</g>
			<g>
				<g>
					
						<rect x="61.7" y="90.5" transform="matrix(-0.7686 0.6397 -0.6397 -0.7686 171.8189 127.0613)" class="st0" width="2.4" height="8.2"/>
				</g>
			</g>
		</g>
		<g>
			<path class="st3" d="M120.2,128.3c-0.1-0.4-0.1-0.8-0.1-1.1C120.1,127.6,120.2,127.9,120.2,128.3z"/>
		</g>
		<g>
			<path class="st0" d="M138.8,146.5c0,0-6.5-3.6-10.3-4.4c-0.1,0-0.3-0.1-0.4-0.1c-3.7-0.4-9.2,4.1-9.2,4.1s-6.8,7.2-7.7,9.3
				c-0.9,2-0.4,3.6,2,4.6l-12.1,0.6c0,0-1.4-2.1,1.2-5.7c2.6-3.7,11.9-17.1,11.9-17.1s-8.6-32.5-15.6-44.6
				c-7-12.1-8.4-12.4-8.4-12.4l-5.3-2.9c-1.2-2.2,0-4.7,2.9-6.2c3.4-1.8,8.2-2.6,9.3,0.4c0.8,2.4-1.8,5.1-1.8,5.1
				s10.5,17.6,12.8,26.5l17-2.9l2.7-0.5c0,0,1.8-18.8,3-22.6l4.4,0.5c0,0-5.5,25.5-5.5,42c0.1,16.5,0.6,13.4,0.6,13.4
				s9.4,3,12.5,7.5C145.8,145.6,138.8,146.5,138.8,146.5z"/>
		</g>
		<g>
			<path class="st2" d="M147.8,159.9l-11.2,0.4l2.2-13.8c0,0-6.5-3.6-10.3-4.4c-0.1,0-0.3-0.1-0.4-0.1c-1-3.1-2.7-9-4.1-16.1
				c-1.2-6.4,0.8-13.7,0.9-25l2.7-0.5c0,0,1.6-16.2,2.7-21.5c0.2-1.1,0.4-2,0.6-2.9c1.1,0,3.3-0.1,4.5-0.2c-0.1,1-0.3,2-0.5,3.3
				c-0.8,4-5.4,26.4-5.3,41.4c0.1,16.5,0.6,13.4,0.6,13.4s9.4,3,12.5,7.5c3.2,4.4,1.8,12.6,2.6,15.3
				C145.3,156.5,145.9,159.3,147.8,159.9z"/>
		</g>
		<g>
			<circle class="st0" cx="120.6" cy="105.9" r="12.1"/>
		</g>
		<g>
			<path class="st2" d="M136.5,75.5l-1.7,0.6c-1.2,0.1-1.9,0.2-3,0.1c-0.3,0-1.8-0.5-1.9-0.5c-1.1-0.5-1-1.2-2-2
				c-1-0.8-2.7-0.9-2.9-2.9c-0.2-1.9,0.8-2.2,2.4-2.9c1.6-0.7,4.2-1.2,7.1-0.3c2.9,0.9,2.6,1.9,3.2,2.4
				C138.2,70.7,139,74.3,136.5,75.5z"/>
		</g>
	</g>
	<g>
		<g>
			<path class="st4" d="M61.6,124.5v3.6h1.5c8.1,0,13.4,3.9,13.4,10.1c0,7.2-5.6,12-14.3,12c-4.8,0-10.2-1.8-13.9-4.5l4.4-8.4
				c2.4,3.1,5.1,4.7,8.1,4.7c2.4,0,3.6-1,3.6-3c0-1.8-1.2-2.7-3.6-2.7h-9.5V116h23.5v8.5H61.6z"/>
		</g>
	</g>
	<line class="st5" x1="99.3" y1="165.8" x2="188.2" y2="165.8"/>
	<g>
		<path class="st6" d="M45.2,152.5h1.9v11.4h2.6v1.8h-4.5V152.5z"/>
		<path class="st6" d="M55.5,162.2v1.1c-0.1,1-0.3,1.6-1,2.1c-0.3,0.3-0.8,0.4-1.4,0.4c-1.2,0-1.8-0.6-2.1-1.3
			c-0.2-0.4-0.3-0.8-0.3-1.3v-5c0.1-1,0.4-1.7,1-2.2c0.3-0.3,0.8-0.4,1.4-0.4c1.2,0,1.8,0.6,2.1,1.3c0.2,0.4,0.3,0.8,0.3,1.3v2.9h-3
			v2.1c0,0.4,0.1,0.6,0.3,0.8c0.1,0.1,0.2,0.1,0.4,0.1c0.3,0,0.5-0.2,0.6-0.5c0.1-0.1,0.1-0.3,0.1-0.5v-1.1H55.5z M52.4,159.7h1.3
			v-1.4c0-0.4-0.1-0.6-0.3-0.9c-0.1-0.1-0.2-0.1-0.4-0.1c-0.3,0-0.5,0.2-0.6,0.5c-0.1,0.1-0.1,0.3-0.1,0.5V159.7z"/>
		<path class="st6" d="M59.7,158.4c0-0.2,0-0.5-0.1-0.8c-0.1-0.2-0.2-0.4-0.5-0.4c-0.2,0-0.4,0.2-0.5,0.4c-0.1,0.2-0.1,0.5-0.1,0.8
			c0,0.3,0.2,0.6,0.4,0.9c0.2,0.3,0.5,0.6,0.8,0.8c0.4,0.4,0.8,0.8,1.1,1.3c0.3,0.5,0.5,1.1,0.5,1.7c0,0.6-0.1,1.3-0.5,1.8
			c-0.4,0.5-1,0.9-1.8,0.9c-1.1,0-1.7-0.5-2.1-1.1c-0.4-0.6-0.4-1.4-0.4-1.9h1.7c0,0.3,0,0.6,0.1,0.9c0.1,0.3,0.3,0.6,0.7,0.6
			c0.5,0,0.6-0.6,0.6-1.2c0-0.6-0.6-1.2-1.1-1.7c-0.4-0.4-0.8-0.8-1.2-1.3c-0.3-0.5-0.6-1-0.6-1.7c0-0.6,0.1-1.2,0.5-1.8
			c0.3-0.5,0.9-0.9,1.8-0.9c1.1,0,1.7,0.4,2,0.9c0.3,0.5,0.4,1.2,0.4,1.8H59.7z"/>
		<path class="st6" d="M65.6,158.4c0-0.2,0-0.5-0.1-0.8c-0.1-0.2-0.2-0.4-0.5-0.4c-0.2,0-0.4,0.2-0.5,0.4c-0.1,0.2-0.1,0.5-0.1,0.8
			c0,0.3,0.2,0.6,0.4,0.9c0.2,0.3,0.5,0.6,0.8,0.8c0.4,0.4,0.8,0.8,1.1,1.3c0.3,0.5,0.5,1.1,0.5,1.7c0,0.6-0.1,1.3-0.5,1.8
			c-0.4,0.5-1,0.9-1.8,0.9c-1.1,0-1.7-0.5-2.1-1.1c-0.4-0.6-0.4-1.4-0.4-1.9h1.7c0,0.3,0,0.6,0.1,0.9c0.1,0.3,0.3,0.6,0.7,0.6
			c0.5,0,0.6-0.6,0.6-1.2c0-0.6-0.6-1.2-1.1-1.7c-0.4-0.4-0.8-0.8-1.2-1.3c-0.3-0.5-0.6-1-0.6-1.7c0-0.6,0.1-1.2,0.5-1.8
			c0.3-0.5,0.9-0.9,1.8-0.9c1.1,0,1.7,0.4,2,0.9c0.3,0.5,0.4,1.2,0.4,1.8H65.6z"/>
		<path class="st6" d="M73.3,163.3c-0.1,1-0.3,1.6-1,2.1c-0.3,0.3-0.8,0.4-1.4,0.4c-1.2,0-1.7-0.6-2-1.3c-0.2-0.4-0.3-0.8-0.3-1.3
			v-5c0.1-1,0.3-1.7,1-2.2c0.3-0.3,0.8-0.4,1.4-0.4c1.2,0,1.8,0.6,2.1,1.3c0.2,0.4,0.3,0.8,0.3,1.3V163.3z M71.6,158.3
			c0-0.4-0.1-0.6-0.2-0.9c-0.1-0.1-0.2-0.1-0.4-0.1c-0.3,0-0.5,0.2-0.6,0.5c-0.1,0.1-0.1,0.3-0.1,0.5v5c0,0.4,0.1,0.6,0.2,0.8
			c0.1,0.1,0.2,0.1,0.4,0.1c0.3,0,0.5-0.2,0.6-0.5c0.1-0.1,0.1-0.3,0.1-0.5V158.3z"/>
		<path class="st6" d="M76.7,165.7h-1.8v-9.8h1.8v0.8c0,0,0.1-0.1,0.2-0.2c0.2-0.2,0.5-0.5,0.8-0.6c0.2-0.1,0.3-0.1,0.5-0.1
			c0.5,0,0.8,0.3,1,0.6c0.2,0.4,0.3,0.9,0.3,1.3v8.1h-1.8v-7.8c0-0.4-0.2-0.4-0.4-0.4c-0.2,0-0.3,0.1-0.4,0.2
			c-0.1,0.1-0.1,0.1-0.2,0.2V165.7z"/>
		<path class="st6" d="M84,158.4c0-0.2,0-0.5-0.1-0.8c-0.1-0.2-0.2-0.4-0.5-0.4c-0.2,0-0.4,0.2-0.5,0.4c-0.1,0.2-0.1,0.5-0.1,0.8
			c0,0.3,0.2,0.6,0.4,0.9c0.2,0.3,0.5,0.6,0.8,0.8c0.4,0.4,0.8,0.8,1.1,1.3c0.3,0.5,0.5,1.1,0.5,1.7c0,0.6-0.1,1.3-0.5,1.8
			c-0.4,0.5-1,0.9-1.8,0.9c-1.1,0-1.7-0.5-2.1-1.1c-0.4-0.6-0.4-1.4-0.4-1.9h1.7c0,0.3,0,0.6,0.1,0.9c0.1,0.3,0.3,0.6,0.7,0.6
			c0.5,0,0.6-0.6,0.6-1.2c0-0.6-0.6-1.2-1.1-1.7c-0.4-0.4-0.8-0.8-1.2-1.3c-0.3-0.5-0.6-1-0.6-1.7c0-0.6,0.1-1.2,0.5-1.8
			c0.3-0.5,0.9-0.9,1.8-0.9c1.1,0,1.7,0.4,2,0.9c0.3,0.5,0.4,1.2,0.4,1.8H84z"/>
	</g>
	<g>
		<circle class="st7" cx="178.2" cy="134.8" r="3.7"/>
		<circle class="st7" cx="178.2" cy="144.7" r="3.7"/>
		<circle class="st7" cx="178.2" cy="154.5" r="3.7"/>
		<circle class="st7" cx="166" cy="134.8" r="3.7"/>
		<circle class="st7" cx="166" cy="144.7" r="3.7"/>
		<circle class="st7" cx="166" cy="154.5" r="3.7"/>
	</g>
	<g>
		<path class="st4" d="M61.5,178.3v-2.9h8.1v2.9h-2.7v16.2h-2.8v-16.2H61.5z"/>
		<path class="st4" d="M72.8,194.5h-2.6v-19.1h2.6v6.1c0.1,0,0.2-0.1,0.3-0.3c0.3-0.3,0.7-0.7,1.1-0.9c0.2-0.1,0.4-0.2,0.7-0.2
			c0.7,0,1.2,0.4,1.5,0.9c0.3,0.5,0.5,1.2,0.5,1.8v11.6h-2.6v-11.3c0-0.5-0.3-0.6-0.6-0.6c-0.3,0-0.4,0.2-0.6,0.3
			c-0.1,0.1-0.2,0.2-0.2,0.3V194.5z"/>
		<path class="st4" d="M85,189.4v1.6c-0.1,1.4-0.5,2.3-1.4,3.1c-0.5,0.4-1.1,0.6-2,0.6c-1.7,0-2.5-0.9-3-1.9
			c-0.2-0.5-0.4-1.2-0.4-1.9v-7.2c0.1-1.4,0.5-2.4,1.5-3.2c0.4-0.4,1.1-0.6,2-0.6c1.7,0,2.5,0.9,3,1.8c0.2,0.5,0.4,1.1,0.4,1.8v4.1
			h-4.3v3.1c0,0.5,0.2,0.9,0.4,1.2c0.1,0.1,0.3,0.2,0.5,0.2c0.5,0,0.7-0.3,0.8-0.7c0.1-0.2,0.1-0.4,0.1-0.7v-1.6H85z M80.6,185.8
			h1.9v-2c0-0.5-0.1-0.9-0.4-1.2c-0.1-0.1-0.3-0.2-0.6-0.2c-0.5,0-0.7,0.3-0.8,0.7c-0.1,0.2-0.1,0.4-0.1,0.7V185.8z"/>
		<path class="st4" d="M94.7,186.2h-2.2v8.3h-2.8v-19.1h2.8v7.9h2.2v-7.9h2.8v19.1h-2.8V186.2z"/>
		<path class="st4" d="M105.7,189.4v1.6c-0.1,1.4-0.5,2.3-1.4,3.1c-0.5,0.4-1.1,0.6-2,0.6c-1.7,0-2.5-0.9-3-1.9
			c-0.2-0.5-0.4-1.2-0.4-1.9v-7.2c0.1-1.4,0.5-2.4,1.5-3.2c0.4-0.4,1.1-0.6,2-0.6c1.7,0,2.5,0.9,3,1.8c0.2,0.5,0.4,1.1,0.4,1.8v4.1
			h-4.3v3.1c0,0.5,0.2,0.9,0.4,1.2c0.1,0.1,0.3,0.2,0.5,0.2c0.5,0,0.7-0.3,0.8-0.7c0.1-0.2,0.1-0.4,0.1-0.7v-1.6H105.7z
			 M101.3,185.8h1.9v-2c0-0.5-0.1-0.9-0.4-1.2c-0.1-0.1-0.3-0.2-0.6-0.2c-0.5,0-0.7,0.3-0.8,0.7c-0.1,0.2-0.1,0.4-0.1,0.7V185.8z"/>
		<path class="st4" d="M110.8,183.6c0-0.2,0-0.6-0.1-0.9c-0.1-0.3-0.3-0.4-0.7-0.4c-0.4,0-0.6,0.3-0.7,0.8c0,0.2-0.1,0.4-0.1,0.7
			s0,0.5,0,0.7h-2.6v-0.6c0-1,0.4-2,1-2.7s1.5-1.1,2.5-1.1c0.9,0,1.6,0.3,2.2,0.9c0.6,0.6,1,1.4,1,2.3v8.7c0,1.3,0.1,1.8,0.2,2.5
			H111c-0.2-0.3-0.2-1-0.2-1.1h-0.2c-0.1,0.2-0.4,0.6-0.7,0.9c-0.4,0.3-0.9,0.5-1.4,0.5c-0.3,0-0.9-0.1-1.3-0.6
			c-0.4-0.5-0.8-1.4-0.8-2.9c0-1.6,0.5-2.7,1.1-3.5c0.6-0.8,1.4-1.3,2.1-1.6c0.6-0.3,1.1-0.6,1.2-0.9V183.6z M110.8,187.6
			c-1.3,0.5-1.8,1.8-1.8,3.2c0,0.2,0,0.5,0.1,0.8c0.1,0.3,0.3,0.5,0.6,0.5c0.6,0,1.1-0.4,1.1-0.9V187.6z"/>
		<path class="st4" d="M116.1,194.5l-2.3-14.2h2.5l0.9,8.2l0.1,0.9h0.2l0.1-0.9l0.9-8.2h2.5l-2.3,14.2H116.1z"/>
		<path class="st4" d="M121.1,197.2c0,0,0.1,0,0.2,0c0.1,0,0.8,0.1,1.2-0.2s0.7-0.8,0.9-1.3c0.1-0.3,0.1-0.5,0.1-0.8l-2.4-14.6h2.6
			l1,8.7l0.1,0.7h0.1l0.1-0.7l1-8.7h2.6l-2.5,15.3c-0.1,1-0.5,2-1.1,2.8s-1.5,1.3-2.5,1.3c-0.1,0-0.2,0-0.3,0c-0.2,0-0.5,0-0.9-0.1
			V197.2z"/>
		<path class="st4" d="M135.2,194.5l-1-6.8l-0.1-0.8h-0.1l-0.1,0.8l-1,6.8h-2.2l-2.1-14.2h2.4l0.8,7.4l0.1,0.8h0.2l0.1-0.8l1.1-7.4
			h1.6l1.1,7.4l0.1,0.8h0.2l0.1-0.8l0.8-7.4h2.4l-2.1,14.2H135.2z"/>
		<path class="st4" d="M146.7,189.4v1.6c-0.1,1.4-0.5,2.3-1.4,3.1c-0.5,0.4-1.1,0.6-2,0.6c-1.7,0-2.5-0.9-3-1.9
			c-0.2-0.5-0.4-1.2-0.4-1.9v-7.2c0.1-1.4,0.5-2.4,1.5-3.2c0.4-0.4,1.1-0.6,2-0.6c1.7,0,2.5,0.9,3,1.8c0.2,0.5,0.4,1.1,0.4,1.8v4.1
			h-4.3v3.1c0,0.5,0.2,0.9,0.4,1.2c0.1,0.1,0.3,0.2,0.5,0.2c0.5,0,0.7-0.3,0.8-0.7c0.1-0.2,0.1-0.4,0.1-0.7v-1.6H146.7z
			 M142.4,185.8h1.9v-2c0-0.5-0.1-0.9-0.4-1.2c-0.1-0.1-0.3-0.2-0.6-0.2c-0.5,0-0.7,0.3-0.8,0.7c-0.1,0.2-0.1,0.4-0.1,0.7V185.8z"/>
		<path class="st4" d="M147.9,175.4h2.6v2.6h-2.6V175.4z M147.9,194.5v-14.2h2.6v14.2H147.9z"/>
		<path class="st4" d="M158.6,187.6c-0.1,1.3-0.5,2.3-1.5,3c-0.5,0.4-1.1,0.5-1.9,0.5c-0.1,0-0.2,0-0.2,0c-0.1,0-0.2,0-0.3,0
			c-0.2,0.2-0.4,0.4-0.4,0.6c0,0.3,0.3,0.5,0.7,0.6c0.4,0.1,0.9,0.2,1.4,0.3c0.8,0.1,1.7,0.3,2.4,0.8c0.7,0.5,1.2,1.2,1.2,2.5
			c0,1.4-0.6,2.3-1.4,2.9c-0.9,0.5-2,0.8-3.1,0.8c-1.2,0-2.3-0.2-3-0.6c-0.8-0.4-1.2-1.1-1.2-2.1c0-0.5,0.3-0.9,0.6-1.3
			c0.4-0.4,0.9-0.6,1.4-0.9c-0.9-0.2-1.6-0.8-1.6-1.9c0-0.4,0.2-0.8,0.5-1.2c0.3-0.4,0.7-0.7,1.1-0.9c-0.8-0.5-1.1-1.3-1.3-1.9
			c-0.1-0.4-0.2-0.8-0.2-1.2v-3.9c0.1-1.3,0.5-2.3,1.4-3c0.4-0.4,1.1-0.6,1.9-0.6c1.3,0,2.1,0.6,2.6,1.3c0.2-0.2,0.5-0.5,0.9-0.8
			c0.4-0.3,0.8-0.5,1.2-0.5v2.3c-0.7,0-1.2,0.1-1.5,0.3c0,0.1,0.1,0.3,0.1,0.3c0,0.1,0,0.2,0,0.3c0,0.1,0,0.2,0,0.3V187.6z
			 M154.8,195.1c-0.5,0.3-1,0.7-1,1.2c0,0.5,0.5,1,1.7,1c0.4,0,0.9-0.1,1.3-0.2c0.4-0.2,0.7-0.4,0.7-0.7c0-0.2,0-0.4-0.2-0.6
			c-0.2-0.2-0.5-0.3-1.2-0.4L154.8,195.1z M156,183.8c0-0.5-0.1-0.8-0.3-1.1c-0.1-0.1-0.3-0.2-0.5-0.2c-0.4,0-0.6,0.3-0.7,0.7
			c-0.1,0.2-0.1,0.4-0.1,0.6v3.9c0,0.5,0.1,0.8,0.3,1.1c0.1,0.1,0.3,0.2,0.5,0.2c0.4,0,0.6-0.3,0.7-0.6c0.1-0.2,0.1-0.4,0.1-0.7
			V183.8z"/>
		<path class="st4" d="M163.1,194.5h-2.6v-19.1h2.6v6.1c0.1,0,0.2-0.1,0.3-0.3c0.3-0.3,0.7-0.7,1.1-0.9c0.2-0.1,0.4-0.2,0.7-0.2
			c0.7,0,1.2,0.4,1.5,0.9c0.3,0.5,0.5,1.2,0.5,1.8v11.6h-2.6v-11.3c0-0.5-0.3-0.6-0.6-0.6c-0.3,0-0.4,0.2-0.6,0.3
			c-0.1,0.1-0.2,0.2-0.2,0.3V194.5z"/>
		<path class="st4" d="M171.8,176.8v3.5h1.8v2.4h-1.8v7.1c0,0.4,0,1,0.1,1.5c0.1,0.5,0.3,0.9,0.7,0.9c0.2,0,0.5,0,0.7-0.1
			c0.1,0,0.2,0,0.3-0.1v2.6c-0.1,0-0.3,0.1-0.4,0.1c-0.3,0.1-0.6,0.1-1,0.1c-1.5,0-2.3-0.8-2.6-1.8c-0.4-1-0.4-2.2-0.4-3v-7.3h-1.3
			v-2.4h1.3v-3.5H171.8z"/>
	</g>
</g>
</svg>
