<?xml version="1.0" encoding="UTF-8" standalone="no"?>
<svg width="6909px" height="5941px" viewBox="0 0 6909 5941" version="1.1" xmlns="http://www.w3.org/2000/svg" xmlns:xlink="http://www.w3.org/1999/xlink" xmlns:sketch="http://www.bohemiancoding.com/sketch/ns">
    <!-- Generator: Sketch 3.4.4 (17249) - http://www.bohemiancoding.com/sketch -->
    <title>02</title>
    <desc>Created with Sketch.</desc>
    <defs></defs>
    <g id="Page-1" stroke="none" stroke-width="1" fill="none" fill-rule="evenodd" sketch:type="MSPage">
        <rect id="Rectangle-2" fill="#00ACEC" sketch:type="MSShapeGroup" x="0" y="0" width="6909" height="5941"></rect>
        <path d="M1390.41953,713.2576 L1234.84193,713.2576 L1234.84193,1126 L1165.22273,1126 L1165.22273,713.2576 L1008.93473,713.2576 L1008.93473,664.9504 L1390.41953,664.9504 L1390.41953,713.2576 Z M1879.30631,789.2704 L1879.30631,1008.0736 C1879.30631,1033.17453 1873.26797,1054.48631 1861.19111,1072.0096 C1849.11424,1089.53289 1832.65681,1102.43836 1811.81831,1110.7264 C1790.9798,1119.01444 1770.37841,1124.81598 1750.01351,1128.1312 C1729.6486,1131.44642 1707.62642,1133.104 1683.94631,1133.104 C1555.12646,1133.104 1490.71751,1091.42762 1490.71751,1008.0736 L1490.71751,789.9808 C1490.71751,701.89076 1555.12646,657.8464 1683.94631,657.8464 C1814.18696,657.8464 1879.30631,701.653962 1879.30631,789.2704 L1879.30631,789.2704 Z M1812.52871,1007.3632 L1812.52871,787.8496 C1812.52871,731.017316 1769.90513,702.6016 1684.65671,702.6016 C1666.65982,702.6016 1650.79437,703.667189 1637.05991,705.7984 C1623.32544,707.929611 1610.06477,711.95517 1597.27751,717.8752 C1584.49024,723.79523 1574.54474,732.556742 1567.44071,744.16 C1560.33667,755.763258 1556.78471,770.326312 1556.78471,787.8496 L1556.78471,1007.3632 C1556.78471,1060.40667 1599.64508,1086.928 1685.36711,1086.928 C1770.14193,1086.928 1812.52871,1060.40667 1812.52871,1007.3632 L1812.52871,1007.3632 Z M2390.92588,1126 L2322.01708,1126 L2322.01708,712.5472 L2091.13708,712.5472 L2091.13708,1126 L2022.22828,1126 L2022.22828,664.9504 L2390.92588,664.9504 L2390.92588,1126 Z M3115.08664,1126 L3046.17784,1126 L3046.17784,712.5472 L2815.29784,712.5472 L2815.29784,1126 L2746.38904,1126 L2746.38904,664.9504 L3115.08664,664.9504 L3115.08664,1126 Z M3584.08221,755.8816 L3584.08221,851.7856 C3584.08221,891.094597 3568.80876,918.918318 3538.26141,935.2576 C3507.71406,951.596882 3464.49849,959.7664 3408.61341,959.7664 L3339.70461,959.7664 L3339.70461,1126 L3270.79581,1126 L3270.79581,664.9504 L3421.40061,664.9504 C3440.34471,664.9504 3456.68374,665.423995 3470.41821,666.3712 C3484.15268,667.318405 3498.71573,669.567982 3514.10781,673.12 C3529.49989,676.672018 3541.81337,681.644768 3551.04861,688.0384 C3560.28386,694.432032 3568.09818,703.311943 3574.49181,714.6784 C3580.88544,726.044857 3584.08221,739.779119 3584.08221,755.8816 L3584.08221,755.8816 Z M3516.59421,848.2336 L3516.59421,764.4064 C3516.59421,751.619136 3513.27904,741.081641 3506.64861,732.7936 C3500.01818,724.505559 3490.54627,718.704017 3478.23261,715.3888 C3465.91895,712.073583 3455.61825,710.060804 3447.33021,709.3504 C3439.04217,708.639996 3428.74147,708.2848 3416.42781,708.2848 L3338.99421,708.2848 L3338.99421,916.432 L3417.84861,916.432 C3445.31755,916.432 3468.64212,911.340851 3487.82301,901.1584 C3507.00391,890.975949 3516.59421,873.334526 3516.59421,848.2336 L3516.59421,848.2336 Z M4087.88739,789.2704 L4087.88739,1008.0736 C4087.88739,1033.17453 4081.84905,1054.48631 4069.77219,1072.0096 C4057.69533,1089.53289 4041.23789,1102.43836 4020.39939,1110.7264 C3999.56088,1119.01444 3978.95949,1124.81598 3958.59459,1128.1312 C3938.22969,1131.44642 3916.20751,1133.104 3892.52739,1133.104 C3763.70754,1133.104 3699.29859,1091.42762 3699.29859,1008.0736 L3699.29859,789.9808 C3699.29859,701.89076 3763.70754,657.8464 3892.52739,657.8464 C4022.76804,657.8464 4087.88739,701.653962 4087.88739,789.2704 L4087.88739,789.2704 Z M4021.10979,1007.3632 L4021.10979,787.8496 C4021.10979,731.017316 3978.48621,702.6016 3893.23779,702.6016 C3875.2409,702.6016 3859.37546,703.667189 3845.64099,705.7984 C3831.90652,707.929611 3818.64585,711.95517 3805.85859,717.8752 C3793.07132,723.79523 3783.12582,732.556742 3776.02179,744.16 C3768.91775,755.763258 3765.36579,770.326312 3765.36579,787.8496 L3765.36579,1007.3632 C3765.36579,1060.40667 3808.22616,1086.928 3893.94819,1086.928 C3978.72301,1086.928 4021.10979,1060.40667 4021.10979,1007.3632 L4021.10979,1007.3632 Z M4272.01256,664.9504 L4560.43496,664.9504 L4560.43496,1073.4304 L4605.90056,1073.4304 L4605.90056,1243.9264 L4546.22696,1243.9264 L4546.22696,1126 L4231.51976,1126 L4231.51976,1243.9264 L4171.13576,1243.9264 L4171.13576,1073.4304 L4210.91816,1073.4304 C4232.23027,1041.22544 4247.74052,1000.14105 4257.44936,950.176 C4267.15821,900.21095 4272.01256,830.000452 4272.01256,739.5424 L4272.01256,664.9504 Z M4492.94696,718.2304 L4336.65896,718.2304 L4336.65896,750.9088 C4336.65896,818.160336 4331.21262,881.503703 4320.31976,940.9408 C4309.42691,1000.3779 4295.92945,1044.54066 4279.82696,1073.4304 L4492.94696,1073.4304 L4492.94696,718.2304 Z M5119.65134,1126 L5047.90094,1126 L4995.33134,986.0512 L4797.84014,986.0512 L4745.98094,1126 L4677.78254,1126 L4861.06574,664.9504 L4940.63054,664.9504 L5119.65134,1126 Z M4978.28174,938.4544 L4900.13774,730.3072 L4893.74414,730.3072 L4815.60014,938.4544 L4978.28174,938.4544 Z M5470.72052,864.5728 L5470.72052,664.9504 L5539.62932,664.9504 L5539.62932,864.5728 C5559.99422,864.5728 5573.72848,862.56002 5580.83252,858.5344 C5587.93655,854.50878 5596.22447,844.918476 5605.69652,829.7632 L5668.92212,731.0176 C5688.33982,701.180651 5704.08686,682.710436 5716.16372,675.6064 C5728.24058,668.502364 5751.09155,664.9504 5784.71732,664.9504 L5816.68532,664.9504 L5816.68532,713.2576 L5780.45492,713.2576 C5768.61486,713.2576 5758.07736,717.164761 5748.84212,724.9792 C5739.60687,732.793639 5729.54297,745.69911 5718.65012,763.696 L5673.89492,837.5776 C5664.89647,853.206478 5656.01656,864.927961 5647.25492,872.7424 C5638.49327,880.556839 5627.48218,886.121583 5614.22132,889.4368 C5631.74461,893.699221 5666.55386,924.719711 5718.65012,982.4992 L5847.94292,1126 L5766.24692,1126 L5635.53332,982.4992 C5607.59078,952.188648 5587.34458,932.889641 5574.79412,924.6016 C5562.24366,916.313559 5550.52217,912.1696 5539.62932,912.1696 L5539.62932,1126 L5470.72052,1126 L5470.72052,912.1696 C5459.82766,912.1696 5448.10618,916.313559 5435.55572,924.6016 C5423.00526,932.889641 5402.75906,952.188648 5374.81652,982.4992 L5244.10292,1126 L5162.40692,1126 L5291.69972,982.4992 C5343.79598,924.719711 5378.60523,893.699221 5396.12852,889.4368 C5382.86765,886.121583 5371.85656,880.556839 5363.09492,872.7424 C5354.33327,864.927961 5345.45336,853.206478 5336.45492,837.5776 L5291.69972,763.696 C5280.80686,745.69911 5270.74296,732.793639 5261.50772,724.9792 C5252.27247,717.164761 5241.73498,713.2576 5229.89492,713.2576 L5193.66452,713.2576 L5193.66452,664.9504 L5225.63252,664.9504 C5259.25829,664.9504 5282.10926,668.502364 5294.18612,675.6064 C5306.26298,682.710436 5322.01002,701.180651 5341.42772,731.0176 L5404.65332,829.7632 C5414.12537,844.918476 5422.41328,854.50878 5429.51732,858.5344 C5436.62135,862.56002 5450.35562,864.5728 5470.72052,864.5728 L5470.72052,864.5728 Z M1092.59082,1640.992 L1061.09642,1640.992 L1019.65642,1561.4272 L1061.09642,1481.8624 L1092.59082,1481.8624 L1054.46602,1561.4272 L1092.59082,1640.992 Z M1163.03882,1640.992 L1131.54442,1640.992 L1090.10442,1561.4272 L1131.54442,1481.8624 L1163.03882,1481.8624 L1124.91402,1561.4272 L1163.03882,1640.992 Z M1479.9496,1670 L1438.0952,1670 L1407.4296,1588.3632 L1292.2264,1588.3632 L1261.9752,1670 L1222.1928,1670 L1329.108,1401.0544 L1375.5208,1401.0544 L1479.9496,1670 Z M1397.484,1560.5984 L1351.9,1439.1792 L1348.1704,1439.1792 L1302.5864,1560.5984 L1397.484,1560.5984 Z M1726.82678,1496.7808 L1648.50518,1496.7808 L1648.50518,1670 L1611.20918,1670 L1611.20918,1496.7808 L1532.47318,1496.7808 L1532.47318,1469.4304 L1726.82678,1469.4304 L1726.82678,1496.7808 Z M1800.48475,1614.4704 L1800.48475,1469.4304 L1960.85755,1469.4304 L1960.85755,1670 L1923.97595,1670 L1923.97595,1496.7808 L1837.36635,1496.7808 L1837.36635,1611.5696 C1837.36635,1625.10673 1835.91597,1636.08822 1833.01515,1644.5144 C1830.11434,1652.94058 1825.41785,1659.15651 1818.92555,1663.1624 C1812.43325,1667.16829 1805.59572,1669.79279 1798.41275,1671.036 C1791.22978,1672.27921 1781.69868,1672.9008 1769.81915,1672.9008 C1764.29379,1672.9008 1759.87357,1672.76267 1756.55835,1672.4864 L1756.55835,1649.28 C1774.23951,1649.28 1785.98072,1647.00082 1791.78235,1642.4424 C1797.58398,1637.88398 1800.48475,1628.56007 1800.48475,1614.4704 L1800.48475,1614.4704 Z M2220.16673,1670 L2184.11393,1670 L2184.11393,1650.9376 C2181.07498,1666.40861 2160.90772,1674.144 2123.61153,1674.144 C2095.98472,1674.144 2076.85345,1669.93098 2066.21713,1661.5048 C2055.58081,1653.07862 2050.26273,1636.01933 2050.26273,1610.3264 C2050.26273,1587.94869 2055.23548,1572.54698 2065.18113,1564.1208 C2075.12678,1555.69462 2094.32712,1551.4816 2122.78273,1551.4816 L2182.87073,1551.4816 L2182.87073,1519.5728 C2182.87073,1508.52208 2179.4865,1501.06295 2172.71793,1497.1952 C2165.94936,1493.32745 2153.17216,1491.3936 2134.38593,1491.3936 C2113.94209,1491.3936 2091.01219,1493.05118 2065.59553,1496.3664 L2065.59553,1469.016 C2092.94607,1466.52959 2117.67168,1465.2864 2139.77313,1465.2864 C2173.47783,1465.2864 2195.30268,1469.36129 2205.24833,1477.5112 C2215.19398,1485.66111 2220.16673,1502.58227 2220.16673,1528.2752 L2220.16673,1670 Z M2182.87073,1630.2176 L2182.87073,1574.688 L2125.26913,1574.688 C2108.14051,1574.688 2097.43528,1576.89811 2093.15313,1581.3184 C2088.87097,1585.73869 2086.72993,1595.82232 2086.72993,1611.5696 C2086.72993,1625.93554 2089.00911,1636.01917 2093.56753,1641.8208 C2098.12595,1647.62243 2107.72612,1650.5232 2122.36833,1650.5232 L2129.82753,1650.5232 C2137.0105,1650.5232 2143.01924,1650.38507 2147.85393,1650.1088 C2152.68862,1649.83253 2158.14483,1649.07281 2164.22273,1647.8296 C2170.30063,1646.58639 2174.92805,1644.51441 2178.10513,1641.6136 C2181.28221,1638.71279 2182.87073,1634.91416 2182.87073,1630.2176 L2182.87073,1630.2176 Z M2494.39431,1670 L2457.09831,1670 L2457.09831,1580.0752 L2358.47111,1580.0752 L2358.47111,1670 L2321.17511,1670 L2321.17511,1469.4304 L2358.47111,1469.4304 L2358.47111,1552.7248 L2457.09831,1552.7248 L2457.09831,1469.4304 L2494.39431,1469.4304 L2494.39431,1670 Z M2767.37868,1496.7808 L2689.05708,1496.7808 L2689.05708,1670 L2651.76108,1670 L2651.76108,1496.7808 L2573.02508,1496.7808 L2573.02508,1469.4304 L2767.37868,1469.4304 L2767.37868,1496.7808 Z M2945.46546,1566.4 L2830.26226,1566.4 L2830.26226,1536.5632 L2945.46546,1536.5632 L2945.46546,1566.4 Z M3320.39224,1670 L3285.16824,1670 L3285.16824,1442.4944 L3283.09624,1442.4944 L3196.48664,1670 L3160.43384,1670 L3071.33784,1442.4944 L3069.26584,1442.4944 L3069.26584,1670 L3033.21304,1670 L3033.21304,1401.0544 L3093.30104,1401.0544 L3179.49624,1624.8304 L3180.73944,1625.2448 L3262.37624,1401.0544 L3320.39224,1401.0544 L3320.39224,1670 Z M3740.79779,1571.7872 L3740.79779,1611.5696 C3740.79779,1650.52339 3709.16557,1670 3645.90019,1670 L3558.04739,1670 L3558.04739,1401.0544 L3705.57379,1401.0544 L3705.57379,1429.648 L3598.24419,1429.648 L3598.24419,1517.0864 L3638.44099,1517.0864 C3651.97812,1517.0864 3663.37401,1517.43173 3672.62899,1518.1224 C3681.88397,1518.81307 3691.13881,1520.26346 3700.39379,1522.4736 C3709.64877,1524.68374 3717.03883,1527.72265 3722.56419,1531.5904 C3728.08955,1535.45815 3732.50977,1540.77623 3735.82499,1547.5448 C3739.1402,1554.31337 3740.79779,1562.39409 3740.79779,1571.7872 L3740.79779,1571.7872 Z M3701.42979,1609.912 L3701.42979,1576.3456 C3701.42979,1564.46607 3696.9405,1556.17816 3687.96179,1551.4816 C3678.98308,1546.78504 3664.27202,1544.4368 3643.82819,1544.4368 L3597.82979,1544.4368 L3597.82979,1642.6496 L3642.99939,1642.6496 C3650.18236,1642.6496 3656.1911,1642.4424 3661.02579,1642.028 C3665.86048,1641.6136 3671.86922,1640.43948 3679.05219,1638.5056 C3686.23516,1636.57172 3691.76044,1633.18749 3695.62819,1628.3528 C3699.49594,1623.51811 3701.42979,1617.37124 3701.42979,1609.912 L3701.42979,1609.912 Z M4010.88136,1522.0592 L4010.88136,1604.5248 C4010.88136,1616.68059 4009.08565,1627.17862 4005.49416,1636.0192 C4001.90268,1644.85978 3997.41339,1651.69731 3992.02616,1656.532 C3986.63894,1661.36669 3979.52514,1665.16532 3970.68456,1667.928 C3961.84399,1670.69068 3953.55607,1672.41733 3945.82056,1673.108 C3938.08506,1673.79867 3928.69209,1674.144 3917.64136,1674.144 C3906.59064,1674.144 3895.81635,1672.76268 3885.31816,1670 C3874.81998,1667.23732 3868.18965,1662.95523 3865.42696,1657.1536 L3865.42696,1752.0512 L3828.13096,1752.0512 L3828.13096,1469.4304 L3865.42696,1469.4304 L3865.42696,1490.9792 C3868.46591,1473.85058 3891.25769,1465.2864 3933.80296,1465.2864 C3960.60097,1465.2864 3980.14664,1470.88074 3992.44056,1482.0696 C4004.73449,1493.25846 4010.88136,1506.58819 4010.88136,1522.0592 L4010.88136,1522.0592 Z M3972.75656,1609.0832 L3972.75656,1535.32 C3972.75656,1516.81004 3968.75074,1504.99976 3960.73896,1499.8888 C3952.72719,1494.77784 3938.4996,1492.2224 3918.05576,1492.2224 C3897.33566,1492.2224 3883.039,1494.77784 3875.16536,1499.8888 C3867.29173,1504.99976 3863.35496,1516.81004 3863.35496,1535.32 L3863.35496,1609.0832 C3863.35496,1625.93555 3867.42986,1636.77891 3875.57976,1641.6136 C3883.72967,1646.44829 3898.02633,1648.8656 3918.47016,1648.8656 C3938.914,1648.8656 3953.07253,1646.44829 3960.94616,1641.6136 C3968.8198,1636.77891 3972.75656,1625.93555 3972.75656,1609.0832 L3972.75656,1609.0832 Z M4152.91534,1670 L4104.43054,1670 L4104.43054,1469.4304 L4139.65454,1469.4304 L4139.65454,1631.4608 L4239.11054,1469.4304 L4287.59534,1469.4304 L4287.59534,1670 L4252.37134,1670 L4252.37134,1504.24 L4152.91534,1670 Z M4560.57972,1496.7808 L4482.25812,1496.7808 L4482.25812,1670 L4444.96212,1670 L4444.96212,1496.7808 L4366.22612,1496.7808 L4366.22612,1469.4304 L4560.57972,1469.4304 L4560.57972,1496.7808 Z M4797.51129,1670 L4761.45849,1670 L4761.45849,1650.9376 C4758.41955,1666.40861 4738.25228,1674.144 4700.95609,1674.144 C4673.32929,1674.144 4654.19801,1669.93098 4643.56169,1661.5048 C4632.92537,1653.07862 4627.60729,1636.01933 4627.60729,1610.3264 C4627.60729,1587.94869 4632.58005,1572.54698 4642.52569,1564.1208 C4652.47134,1555.69462 4671.67169,1551.4816 4700.12729,1551.4816 L4760.21529,1551.4816 L4760.21529,1519.5728 C4760.21529,1508.52208 4756.83106,1501.06295 4750.06249,1497.1952 C4743.29393,1493.32745 4730.51672,1491.3936 4711.73049,1491.3936 C4691.28666,1491.3936 4668.35676,1493.05118 4642.94009,1496.3664 L4642.94009,1469.016 C4670.29063,1466.52959 4695.01625,1465.2864 4717.11769,1465.2864 C4750.8224,1465.2864 4772.64725,1469.36129 4782.59289,1477.5112 C4792.53854,1485.66111 4797.51129,1502.58227 4797.51129,1528.2752 L4797.51129,1670 Z M4760.21529,1630.2176 L4760.21529,1574.688 L4702.61369,1574.688 C4685.48508,1574.688 4674.77985,1576.89811 4670.49769,1581.3184 C4666.21554,1585.73869 4664.07449,1595.82232 4664.07449,1611.5696 C4664.07449,1625.93554 4666.35367,1636.01917 4670.91209,1641.8208 C4675.47052,1647.62243 4685.07069,1650.5232 4699.71289,1650.5232 L4707.17209,1650.5232 C4714.35506,1650.5232 4720.3638,1650.38507 4725.19849,1650.1088 C4730.03319,1649.83253 4735.4894,1649.07281 4741.56729,1647.8296 C4747.64519,1646.58639 4752.27261,1644.51441 4755.44969,1641.6136 C4758.62678,1638.71279 4760.21529,1634.91416 4760.21529,1630.2176 L4760.21529,1630.2176 Z M5071.73887,1670 L5034.44287,1670 L5034.44287,1580.0752 L4935.81567,1580.0752 L4935.81567,1670 L4898.51967,1670 L4898.51967,1469.4304 L4935.81567,1469.4304 L4935.81567,1552.7248 L5034.44287,1552.7248 L5034.44287,1469.4304 L5071.73887,1469.4304 L5071.73887,1670 Z M5221.23205,1670 L5172.74725,1670 L5172.74725,1469.4304 L5207.97125,1469.4304 L5207.97125,1631.4608 L5307.42725,1469.4304 L5355.91205,1469.4304 L5355.91205,1670 L5320.68805,1670 L5320.68805,1504.24 L5221.23205,1670 Z M5482.19882,1670 L5432.88522,1670 L5510.79242,1584.6336 C5469.90475,1584.6336 5449.46122,1570.68227 5449.46122,1542.7792 L5449.46122,1521.2304 C5449.46122,1500.23403 5454.15771,1486.35177 5463.55082,1479.5832 C5472.94394,1472.81463 5491.45362,1469.4304 5519.08042,1469.4304 L5621.85162,1469.4304 L5621.85162,1670 L5584.55562,1670 L5584.55562,1589.6064 L5550.98922,1589.6064 L5482.19882,1670 Z M5487.17162,1524.5456 L5487.17162,1530.3472 C5487.17162,1544.98941 5489.03641,1554.24425 5492.76602,1558.112 C5496.49564,1561.97975 5503.60944,1563.9136 5514.10762,1563.9136 L5584.55562,1563.9136 L5584.55562,1495.1232 L5522.81002,1495.1232 C5507.89155,1495.1232 5498.22231,1497.12611 5493.80202,1501.132 C5489.38174,1505.13789 5487.17162,1512.94234 5487.17162,1524.5456 L5487.17162,1524.5456 Z M5782.5336,1561.4272 L5741.0936,1640.992 L5709.5992,1640.992 L5747.724,1561.4272 L5709.5992,1481.8624 L5741.0936,1481.8624 L5782.5336,1561.4272 Z M5852.9816,1561.4272 L5811.5416,1640.992 L5780.0472,1640.992 L5818.172,1561.4272 L5780.0472,1481.8624 L5811.5416,1481.8624 L5852.9816,1561.4272 Z" id="ТОП-ПРОДАЖ-" fill="#FFFFFF" sketch:type="MSShapeGroup"></path>
        <rect id="Rectangle-10" stroke="#FFFFFF" stroke-width="56.8" sketch:type="MSShapeGroup" x="590" y="2350" width="1696" height="2986.4"></rect>
        <rect id="Rectangle-11" fill="#FFFFFF" sketch:type="MSShapeGroup" x="873.2" y="2613.2" width="1134.4" height="914.4"></rect>
        <path d="M878.469861,3739.48352 L878.469861,4019.6 L934.963941,4019.6 L934.963941,3901.11936 L965.17258,3901.11936 C976.942239,3901.11936 985.311649,3904.25789 990.28106,3910.53504 C995.250471,3916.81219 997.996684,3925.44315 998.51978,3936.42816 L1000.08906,3990.176 C1000.35061,3995.66851 1000.8737,4000.96477 1001.65834,4006.06496 C1002.44298,4011.16515 1004.27379,4015.67678 1007.15082,4019.6 L1068.35274,4019.6 L1068.35274,4017.24608 C1063.12178,4014.36905 1059.72171,4009.0074 1058.15242,4001.16096 C1057.10623,3993.31452 1056.3216,3981.93736 1055.7985,3967.02912 C1055.53695,3959.44423 1055.27541,3952.5787 1055.01386,3946.43232 C1054.75231,3940.28594 1054.36,3934.59736 1053.8369,3929.3664 C1052.26761,3913.67352 1048.21368,3902.29636 1041.67498,3895.23456 C1035.13628,3888.17277 1024.80529,3883.59575 1010.6817,3881.50336 L1010.6817,3880.71872 C1026.63613,3877.3186 1038.40561,3869.66843 1045.9905,3857.768 C1053.57539,3845.86757 1057.36778,3830.50186 1057.36778,3811.6704 C1057.36778,3787.34644 1050.82918,3769.23452 1037.75178,3757.33408 C1024.67438,3745.43365 1006.3663,3739.48352 982.82698,3739.48352 L878.469861,3739.48352 Z M934.963941,3861.88736 L934.963941,3781.06944 L961.6417,3781.06944 C987.796497,3781.06944 1000.8737,3794.01587 1000.8737,3819.90912 C1000.8737,3835.0789 997.212083,3845.8676 989.88874,3852.27552 C982.565397,3858.68345 972.103635,3861.88736 958.50314,3861.88736 L934.963941,3861.88736 Z M1233.59212,3914.06592 L1206.52204,3788.1312 L1205.7374,3788.1312 L1178.66732,3914.06592 L1233.59212,3914.06592 Z M1241.0462,3739.48352 L1315.19468,4019.6 L1256.34668,4019.6 L1243.40012,3960.35968 L1168.85932,3960.35968 L1155.91276,4019.6 L1097.06476,4019.6 L1171.21324,3739.48352 L1241.0462,3739.48352 Z M1420.01679,3739.48352 L1354.89167,3739.48352 L1354.89167,4019.6 L1406.67791,4019.6 L1406.67791,3823.44 L1407.46255,3823.44 L1476.51087,4019.6 L1540.85135,4019.6 L1540.85135,3739.48352 L1489.06511,3739.48352 L1489.06511,3931.328 L1488.28047,3931.328 L1420.01679,3739.48352 Z M1724.52977,3822.65536 L1778.66993,3822.65536 C1778.66993,3794.14663 1771.86978,3772.24232 1758.26929,3756.94176 C1744.66879,3741.64121 1722.43755,3733.99104 1691.57489,3733.99104 C1673.52808,3733.99104 1658.4893,3736.9988 1646.45809,3743.0144 C1634.42688,3749.03001 1624.74975,3757.98789 1617.42641,3769.88832 C1610.10307,3781.78876 1604.93757,3796.63138 1601.92977,3814.41664 C1598.92197,3832.2019 1597.41809,3852.86388 1597.41809,3876.4032 C1597.41809,3900.72716 1598.46427,3922.10839 1600.55665,3940.54752 C1602.64903,3958.98665 1606.76835,3974.48314 1612.91473,3987.03744 C1619.06111,3999.59174 1627.56129,4008.87656 1638.41553,4014.89216 C1649.26977,4020.90776 1663.32776,4023.91552 1680.58993,4023.91552 C1693.92888,4023.91552 1705.37143,4021.62701 1714.91793,4017.04992 C1724.46443,4012.47283 1732.63768,4004.6919 1739.43793,3993.70688 L1740.22257,3993.70688 L1740.22257,4019.6 L1781.80849,4019.6 L1781.80849,3868.5568 L1690.39793,3868.5568 L1690.39793,3910.14272 L1727.66833,3910.14272 L1727.66833,3938.78208 C1727.66833,3946.36697 1726.49138,3952.97096 1724.13745,3958.59424 C1721.78352,3964.21752 1718.84115,3968.85993 1715.31025,3972.5216 C1711.77935,3976.18327 1707.98696,3978.92948 1703.93297,3980.76032 C1699.87898,3982.59116 1696.15197,3983.50656 1692.75185,3983.50656 C1684.64386,3983.50656 1678.03988,3980.95651 1672.93969,3975.85632 C1667.8395,3970.75614 1663.91634,3963.4329 1661.17009,3953.8864 C1658.42384,3944.3399 1656.52764,3932.76658 1655.48145,3919.16608 C1654.43526,3905.56559 1653.91217,3890.39603 1653.91217,3873.65696 C1653.91217,3838.60953 1656.91993,3813.50131 1662.93553,3798.33152 C1668.95113,3783.16174 1678.75904,3775.57696 1692.35953,3775.57696 C1698.11359,3775.57696 1703.01754,3777.08084 1707.07153,3780.08864 C1711.12552,3783.09644 1714.46021,3786.88883 1717.07569,3791.46592 C1719.69117,3796.04301 1721.58736,3801.07774 1722.76433,3806.57024 C1723.9413,3812.06275 1724.52977,3817.4244 1724.52977,3822.65536 L1724.52977,3822.65536 Z M1994.91091,3739.48352 L1838.37523,3739.48352 L1838.37523,4019.6 L1998.83411,4019.6 L1998.83411,3973.30624 L1894.86931,3973.30624 L1894.86931,3897.9808 L1989.02611,3897.9808 L1989.02611,3851.68704 L1894.86931,3851.68704 L1894.86931,3785.77728 L1994.91091,3785.77728 L1994.91091,3739.48352 Z M877.962957,4084.55642 L877.962957,4370.3849 L935.609036,4370.3849 L935.609036,4249.48826 L966.433676,4249.48826 C978.443336,4249.48826 986.98341,4252.69079 992.054155,4259.09594 C997.124901,4265.50109 999.927113,4274.30804 1000.46088,4285.51706 L1002.06216,4340.3609 C1002.32904,4345.96541 1002.86279,4351.36967 1003.66344,4356.57386 C1004.46408,4361.77805 1006.33222,4366.38168 1009.26792,4370.3849 L1071.71783,4370.3849 L1071.71783,4367.98298 C1066.38021,4365.04729 1062.9108,4359.5763 1061.30951,4351.56986 C1060.24199,4343.56342 1059.44136,4331.95426 1058.90759,4316.74202 C1058.64071,4309.00246 1058.37384,4301.99693 1058.10695,4295.72522 C1057.84007,4289.45351 1057.43976,4283.64893 1056.90599,4278.3113 C1055.30471,4262.29842 1051.16811,4250.68926 1044.49607,4243.48346 C1037.82404,4236.27767 1027.28239,4231.60731 1012.8708,4229.47226 L1012.8708,4228.67162 C1029.15056,4225.20216 1041.16004,4217.396 1048.89959,4205.2529 C1056.63915,4193.1098 1060.50887,4177.43076 1060.50887,4158.2153 C1060.50887,4133.39534 1053.83694,4114.91408 1040.49287,4102.77098 C1027.14881,4090.62788 1008.4674,4084.55642 984.448075,4084.55642 L877.962957,4084.55642 Z M935.609036,4209.45626 L935.609036,4126.99034 L962.830796,4126.99034 C989.518929,4126.99034 1002.8628,4140.20077 1002.8628,4166.62202 C1002.8628,4182.10114 999.126513,4193.10983 991.653835,4199.64842 C984.181158,4206.18701 973.506065,4209.45626 959.628236,4209.45626 L935.609036,4209.45626 Z M1172.67262,4227.47066 C1172.67262,4208.25521 1173.13966,4191.97569 1174.07374,4178.63162 C1175.00783,4165.28756 1176.87597,4154.34559 1179.67822,4145.80538 C1182.48048,4137.26518 1186.48363,4131.06028 1191.68782,4127.1905 C1196.89201,4123.32072 1203.7641,4121.38586 1212.3043,4121.38586 C1220.8445,4121.38586 1227.71659,4123.32072 1232.92078,4127.1905 C1238.12497,4131.06028 1242.12813,4137.26518 1244.93038,4145.80538 C1247.73263,4154.34559 1249.60078,4165.28756 1250.53486,4178.63162 C1251.46894,4191.97569 1251.93598,4208.25521 1251.93598,4227.47066 C1251.93598,4246.68612 1251.46894,4263.03235 1250.53486,4276.50986 C1249.60078,4289.98737 1247.73263,4300.92934 1244.93038,4309.3361 C1242.12813,4317.74286 1238.12497,4323.88104 1232.92078,4327.75082 C1227.71659,4331.6206 1220.8445,4333.55546 1212.3043,4333.55546 C1203.7641,4333.55546 1196.89201,4331.6206 1191.68782,4327.75082 C1186.48363,4323.88104 1182.48048,4317.74286 1179.67822,4309.3361 C1176.87597,4300.92934 1175.00783,4289.98737 1174.07374,4276.50986 C1173.13966,4263.03235 1172.67262,4246.68612 1172.67262,4227.47066 L1172.67262,4227.47066 Z M1115.02654,4227.47066 C1115.02654,4249.35493 1116.02733,4269.37073 1118.02894,4287.51866 C1120.03055,4305.66659 1124.43403,4321.27891 1131.2395,4334.3561 C1138.04498,4347.43329 1147.85272,4357.44119 1160.66302,4364.3801 C1173.47333,4371.31901 1190.68691,4374.78842 1212.3043,4374.78842 C1233.92169,4374.78842 1251.13528,4371.31901 1263.94558,4364.3801 C1276.75588,4357.44119 1286.56363,4347.43329 1293.3691,4334.3561 C1300.17457,4321.27891 1304.57805,4305.66659 1306.57966,4287.51866 C1308.58127,4269.37073 1309.58206,4249.35493 1309.58206,4227.47066 C1309.58206,4205.85327 1308.58127,4185.90419 1306.57966,4167.62282 C1304.57805,4149.34145 1300.17457,4133.66241 1293.3691,4120.58522 C1286.56363,4107.50804 1276.75588,4097.29998 1263.94558,4089.96074 C1251.13528,4082.62151 1233.92169,4078.95194 1212.3043,4078.95194 C1190.68691,4078.95194 1173.47333,4082.62151 1160.66302,4089.96074 C1147.85272,4097.29998 1138.04498,4107.50804 1131.2395,4120.58522 C1124.43403,4133.66241 1120.03055,4149.34145 1118.02894,4167.62282 C1116.02733,4185.90419 1115.02654,4205.85327 1115.02654,4227.47066 L1115.02654,4227.47066 Z M1406.93397,4084.55642 L1345.28469,4084.55642 L1410.93717,4370.3849 L1484.99637,4370.3849 L1550.64884,4084.55642 L1491.00117,4084.55642 L1448.56725,4295.92538 L1447.36629,4295.92538 L1406.93397,4084.55642 Z M1752.08395,4084.55642 L1592.35627,4084.55642 L1592.35627,4370.3849 L1756.08715,4370.3849 L1756.08715,4323.14714 L1650.00235,4323.14714 L1650.00235,4246.2857 L1746.07915,4246.2857 L1746.07915,4199.04794 L1650.00235,4199.04794 L1650.00235,4131.79418 L1752.08395,4131.79418 L1752.08395,4084.55642 Z M1805.40066,4084.55642 L1805.40066,4370.3849 L1863.04674,4370.3849 L1863.04674,4249.48826 L1893.87138,4249.48826 C1905.88104,4249.48826 1914.42111,4252.69079 1919.49186,4259.09594 C1924.5626,4265.50109 1927.36481,4274.30804 1927.89858,4285.51706 L1929.49986,4340.3609 C1929.76674,4345.96541 1930.30049,4351.36967 1931.10114,4356.57386 C1931.90178,4361.77805 1933.76992,4366.38168 1936.70562,4370.3849 L1999.15554,4370.3849 L1999.15554,4367.98298 C1993.81791,4365.04729 1990.3485,4359.5763 1988.74722,4351.56986 C1987.67969,4343.56342 1986.87906,4331.95426 1986.3453,4316.74202 C1986.07841,4309.00246 1985.81154,4301.99693 1985.54466,4295.72522 C1985.27777,4289.45351 1984.87746,4283.64893 1984.3437,4278.3113 C1982.74241,4262.29842 1978.60581,4250.68926 1971.93378,4243.48346 C1965.26174,4236.27767 1954.72009,4231.60731 1940.3085,4229.47226 L1940.3085,4228.67162 C1956.58826,4225.20216 1968.59774,4217.396 1976.3373,4205.2529 C1984.07685,4193.1098 1987.94658,4177.43076 1987.94658,4158.2153 C1987.94658,4133.39534 1981.27464,4114.91408 1967.93058,4102.77098 C1954.58651,4090.62788 1935.9051,4084.55642 1911.88578,4084.55642 L1805.40066,4084.55642 Z M1863.04674,4209.45626 L1863.04674,4126.99034 L1890.2685,4126.99034 C1916.95663,4126.99034 1930.3005,4140.20077 1930.3005,4166.62202 C1930.3005,4182.10114 1926.56421,4193.10983 1919.09154,4199.64842 C1911.61886,4206.18701 1900.94377,4209.45626 1887.06594,4209.45626 L1863.04674,4209.45626 Z M931.38665,5004.02965 L872.47721,5004.02965 L872.47721,5005.31029 C872.47721,5034.62286 879.734097,5057.24728 894.24809,5073.18421 C908.762082,5089.12114 930.675036,5097.08949 959.98761,5097.08949 C981.047128,5097.08949 998.051012,5094.38594 1010.99977,5088.97877 C1023.94853,5083.5716 1034.1224,5076.457 1041.52169,5067.63477 C1048.92098,5058.81254 1053.9012,5048.9944 1056.46249,5038.18005 C1059.02378,5027.3657 1060.30441,5016.8361 1060.30441,5006.59093 C1060.30441,4987.52353 1056.24909,4971.65798 1048.13833,4958.99381 C1040.02757,4946.32964 1026.15411,4938.43244 1006.51753,4935.30197 L1006.51753,4934.44821 C1021.03152,4931.31774 1032.34373,4923.98971 1040.45449,4912.46389 C1048.56525,4900.93807 1052.62057,4886.06857 1052.62057,4867.85493 C1052.62057,4841.10365 1045.00795,4821.46737 1029.78249,4808.94549 C1014.55703,4796.42361 993.142094,4790.16277 965.53705,4790.16277 C936.509065,4790.16277 914.453818,4797.4908 899.37065,4812.14709 C884.287481,4826.80338 876.74601,4849.21435 876.74601,4879.38069 L933.09417,4879.38069 C933.09417,4872.26599 933.449899,4865.72056 934.16137,4859.74421 C934.87284,4853.76786 936.366905,4848.57421 938.64361,4844.16309 C940.920314,4839.75198 944.121882,4836.33697 948.24841,4833.91797 C952.374937,4831.49897 957.710884,4830.28949 964.25641,4830.28949 C974.216993,4830.28949 981.616172,4833.27762 986.45417,4839.25397 C991.292167,4845.23032 993.71113,4855.47534 993.71113,4869.98933 C993.71113,4876.25027 993.070816,4882.22653 991.79017,4887.91829 C990.509523,4893.61005 988.517437,4898.66142 985.81385,4903.07253 C983.110263,4907.48365 979.552965,4911.04094 975.14185,4913.74453 C970.730734,4916.44812 965.252496,4917.79989 958.70697,4917.79989 L938.64361,4917.79989 L938.64361,4957.92661 L959.13385,4957.92661 C967.671492,4957.92661 974.501504,4959.34953 979.62409,4962.19541 C984.746675,4965.04129 988.730849,4968.88317 991.57673,4973.72117 C994.422611,4978.55917 996.343551,4984.03741 997.33961,4990.15605 C998.335668,4996.27469 998.83369,5002.74898 998.83369,5009.57909 C998.83369,5016.12462 998.47796,5022.38546 997.76649,5028.36181 C997.055019,5034.33816 995.489808,5039.53182 993.07081,5043.94293 C990.651811,5048.35405 987.236805,5051.8402 982.82569,5054.40149 C978.414574,5056.96278 972.50946,5058.24341 965.11017,5058.24341 C951.734529,5058.24341 942.841285,5053.61892 938.43017,5044.36981 C934.019054,5035.1207 931.671238,5021.67411 931.38665,5004.02965 L931.38665,5004.02965 Z M1158.139,5006.16405 C1158.139,4998.76476 1158.63702,4991.93475 1159.63308,4985.67381 C1160.62914,4979.41287 1162.47893,4973.93463 1165.18252,4969.23893 C1167.8861,4964.54323 1171.51455,4960.84364 1176.06796,4958.14005 C1180.62137,4955.43646 1186.31304,4954.08469 1193.14316,4954.08469 C1199.97327,4954.08469 1205.66495,4955.43646 1210.21836,4958.14005 C1214.77177,4960.84364 1218.40021,4964.54323 1221.1038,4969.23893 C1223.80738,4973.93463 1225.65718,4979.41287 1226.65324,4985.67381 C1227.6493,4991.93475 1228.14732,4998.76476 1228.14732,5006.16405 C1228.14732,5013.27875 1227.6493,5020.03762 1226.65324,5026.44085 C1225.65718,5032.84408 1223.80738,5038.39347 1221.1038,5043.08917 C1218.40021,5047.78487 1214.77177,5051.48446 1210.21836,5054.18805 C1205.66495,5056.89164 1199.97327,5058.24341 1193.14316,5058.24341 C1186.31304,5058.24341 1180.62137,5056.89164 1176.06796,5054.18805 C1171.51455,5051.48446 1167.8861,5047.78487 1165.18252,5043.08917 C1162.47893,5038.39347 1160.62914,5032.84408 1159.63308,5026.44085 C1158.63702,5020.03762 1158.139,5013.27875 1158.139,5006.16405 L1158.139,5006.16405 Z M1163.26156,4871.69685 C1163.26156,4844.09181 1173.22199,4830.28949 1193.14316,4830.28949 C1213.06432,4830.28949 1223.02476,4844.09181 1223.02476,4871.69685 C1223.02476,4886.21084 1220.32121,4896.88274 1214.91404,4903.71285 C1209.50686,4910.54296 1202.24998,4913.95797 1193.14316,4913.95797 C1184.03634,4913.95797 1176.77945,4910.54296 1171.37228,4903.71285 C1165.9651,4896.88274 1163.26156,4886.21084 1163.26156,4871.69685 L1163.26156,4871.69685 Z M1096.66828,5007.01781 C1096.66828,5015.84004 1097.73547,5025.51589 1099.86988,5036.04565 C1102.00429,5046.57541 1106.48648,5056.39355 1113.3166,5065.50037 C1120.14671,5074.60719 1129.89371,5082.14866 1142.55788,5088.12501 C1155.22205,5094.10136 1172.08364,5097.08949 1193.14316,5097.08949 C1214.20268,5097.08949 1231.06427,5094.10136 1243.72844,5088.12501 C1256.39261,5082.14866 1266.1396,5074.60719 1272.96972,5065.50037 C1279.79983,5056.39355 1284.28203,5046.57541 1286.41644,5036.04565 C1288.55085,5025.51589 1289.61804,5015.84004 1289.61804,5007.01781 C1289.61804,4987.95041 1285.34928,4971.58684 1276.81164,4957.92661 C1268.274,4944.26638 1255.46772,4935.72887 1238.39244,4932.31381 L1238.39244,4931.46005 C1246.3609,4929.46793 1253.11977,4926.33751 1258.66924,4922.06869 C1264.21871,4917.79987 1268.7009,4912.96194 1272.11596,4907.55477 C1275.53101,4902.1476 1278.02112,4896.45592 1279.58636,4890.47957 C1281.15159,4884.50322 1281.9342,4878.81154 1281.9342,4873.40437 C1281.9342,4843.80721 1274.037,4822.53457 1258.24236,4809.58581 C1242.44772,4796.63705 1220.7482,4790.16277 1193.14316,4790.16277 C1165.53811,4790.16277 1143.8386,4796.63705 1128.04396,4809.58581 C1112.24932,4822.53457 1104.35212,4843.80721 1104.35212,4873.40437 C1104.35212,4878.81154 1105.06358,4884.50322 1106.48652,4890.47957 C1107.90946,4896.45592 1110.32842,4902.1476 1113.74348,4907.55477 C1117.15853,4912.96194 1121.64073,4917.79987 1127.1902,4922.06869 C1132.73967,4926.33751 1139.64082,4929.46793 1147.89388,4931.46005 L1147.89388,4932.31381 C1130.81859,4935.72887 1118.01232,4944.26638 1109.47468,4957.92661 C1100.93704,4971.58684 1096.66828,4987.95041 1096.66828,5007.01781 L1096.66828,5007.01781 Z M1396.84399,5025.80053 L1340.49583,5025.80053 L1340.49583,5092.39381 L1362.69359,5092.39381 L1362.69359,5097.94325 C1362.69359,5105.91172 1360.84379,5113.1686 1357.14415,5119.71413 C1353.4445,5126.25966 1347.89512,5130.24383 1340.49583,5131.66677 L1340.49583,5161.54837 C1351.87935,5160.41002 1361.19947,5157.63533 1368.45647,5153.22421 C1375.71346,5148.8131 1381.47628,5143.12142 1385.74511,5136.14901 C1390.01393,5129.1766 1392.93091,5120.92367 1394.49615,5111.38997 C1396.06138,5101.85627 1396.84399,5091.82469 1396.84399,5081.29493 L1396.84399,5025.80053 Z M1447.72177,4979.27061 L1447.72177,5029.64245 L1555.29553,5029.64245 L1555.29553,5092.39381 L1611.64369,5092.39381 L1611.64369,5029.64245 L1640.67153,5029.64245 L1640.67153,4981.83189 L1611.64369,4981.83189 L1611.64369,4790.16277 L1548.03857,4790.16277 L1447.72177,4979.27061 Z M1555.29553,4867.00117 L1555.29553,4981.83189 L1495.53233,4981.83189 L1554.44177,4867.00117 L1555.29553,4867.00117 Z M1901.57428,4782.90581 L1728.261,5104.34645 L1766.25332,5104.34645 L1939.5666,4782.90581 L1901.57428,4782.90581 Z M1725.27284,4869.98933 C1725.27284,4854.62157 1726.26889,4842.88249 1728.261,4834.77173 C1730.25312,4826.66097 1735.51792,4822.60565 1744.05556,4822.60565 C1752.5932,4822.60565 1757.85801,4826.66097 1759.85012,4834.77173 C1761.84224,4842.88249 1762.83828,4854.62157 1762.83828,4869.98933 C1762.83828,4887.06462 1761.84224,4899.79974 1759.85012,4908.19509 C1757.85801,4916.59044 1752.5932,4920.78805 1744.05556,4920.78805 C1735.51792,4920.78805 1730.25312,4916.59044 1728.261,4908.19509 C1726.26889,4899.79974 1725.27284,4887.06462 1725.27284,4869.98933 L1725.27284,4869.98933 Z M1680.02356,4871.69685 C1680.02356,4885.35708 1680.87731,4897.3096 1682.58484,4907.55477 C1684.29237,4917.79994 1687.49394,4926.33746 1692.18964,4933.16757 C1696.88535,4939.99768 1703.43077,4945.04905 1711.82612,4948.32181 C1720.22147,4951.59457 1730.96451,4953.23093 1744.05556,4953.23093 C1757.4312,4953.23093 1768.24539,4951.59457 1776.49844,4948.32181 C1784.7515,4945.04905 1791.22578,4939.99768 1795.92148,4933.16757 C1800.61719,4926.33746 1803.81875,4917.79994 1805.52628,4907.55477 C1807.23381,4897.3096 1808.08756,4885.35708 1808.08756,4871.69685 C1808.08756,4858.03662 1807.23381,4846.0841 1805.52628,4835.83893 C1803.81875,4825.59376 1800.61719,4817.05624 1795.92148,4810.22613 C1791.22578,4803.39602 1784.7515,4798.34465 1776.49844,4795.07189 C1768.24539,4791.79913 1757.4312,4790.16277 1744.05556,4790.16277 C1730.96451,4790.16277 1720.22147,4791.79913 1711.82612,4795.07189 C1703.43077,4798.34465 1696.88535,4803.39602 1692.18964,4810.22613 C1687.49394,4817.05624 1684.29237,4825.59376 1682.58484,4835.83893 C1680.87731,4846.0841 1680.02356,4858.03662 1680.02356,4871.69685 L1680.02356,4871.69685 Z M1861.02068,5016.83605 C1861.02068,5030.78087 1861.87443,5042.80453 1863.58196,5052.90741 C1865.28949,5063.01029 1868.49106,5071.40551 1873.18676,5078.09333 C1877.88247,5084.78115 1884.42789,5089.61908 1892.82324,5092.60725 C1901.21859,5095.59543 1911.96163,5097.08949 1925.05268,5097.08949 C1938.42832,5097.08949 1949.24251,5095.59543 1957.49556,5092.60725 C1965.74862,5089.61908 1972.2229,5084.78115 1976.9186,5078.09333 C1981.61431,5071.40551 1984.81587,5063.01029 1986.5234,5052.90741 C1988.23093,5042.80453 1989.08468,5030.78087 1989.08468,5016.83605 C1989.08468,5003.17582 1988.23093,4991.2233 1986.5234,4980.97813 C1984.81587,4970.73296 1981.61431,4962.19544 1976.9186,4955.36533 C1972.2229,4948.53522 1965.74862,4943.48385 1957.49556,4940.21109 C1949.24251,4936.93833 1938.42832,4935.30197 1925.05268,4935.30197 C1911.96163,4935.30197 1901.21859,4936.93833 1892.82324,4940.21109 C1884.42789,4943.48385 1877.88247,4948.53522 1873.18676,4955.36533 C1868.49106,4962.19544 1865.28949,4970.73296 1863.58196,4980.97813 C1861.87443,4991.2233 1861.02068,5003.17582 1861.02068,5016.83605 L1861.02068,5016.83605 Z M1906.26996,5015.12853 C1906.26996,4999.76077 1907.26601,4988.02169 1909.25812,4979.91093 C1911.25024,4971.80017 1916.51504,4967.74485 1925.05268,4967.74485 C1933.59032,4967.74485 1938.85513,4971.80017 1940.84724,4979.91093 C1942.83936,4988.02169 1943.8354,4999.76077 1943.8354,5015.12853 C1943.8354,5032.20382 1942.83936,5044.93894 1940.84724,5053.33429 C1938.85513,5061.72964 1933.59032,5065.92725 1925.05268,5065.92725 C1916.51504,5065.92725 1911.25024,5061.72964 1909.25812,5053.33429 C1907.26601,5044.93894 1906.26996,5032.20382 1906.26996,5015.12853 L1906.26996,5015.12853 Z" id="RANGE" fill="#FFFFFF" sketch:type="MSShapeGroup"></path>
        <path d="M1389.87613,3432.6 L1532.72413,3432.6 L1532.72413,2730.264 L1427.57213,2730.264 C1420.29742,2769.9442 1402.9376,2798.71191 1375.49213,2816.568 C1348.04666,2834.42409 1310.51637,2843.352 1262.90013,2843.352 L1250.00413,2843.352 L1250.00413,2936.6 L1389.87613,2936.6 L1389.87613,3432.6 Z" id="1" fill="#00ACEC" sketch:type="MSShapeGroup"></path>
        <rect id="Rectangle-10" stroke="#FFFFFF" stroke-width="56.8" sketch:type="MSShapeGroup" x="2614" y="2350" width="1696" height="2986.4"></rect>
        <rect id="Rectangle-11" fill="#FFFFFF" sketch:type="MSShapeGroup" x="2897.2" y="2613.2" width="1134.4" height="914.4"></rect>
        <path d="M2902.46986,3739.48352 L2902.46986,4019.6 L2958.96394,4019.6 L2958.96394,3901.11936 L2989.17258,3901.11936 C3000.94224,3901.11936 3009.31165,3904.25789 3014.28106,3910.53504 C3019.25047,3916.81219 3021.99668,3925.44315 3022.51978,3936.42816 L3024.08906,3990.176 C3024.35061,3995.66851 3024.8737,4000.96477 3025.65834,4006.06496 C3026.44298,4011.16515 3028.27379,4015.67678 3031.15082,4019.6 L3092.35274,4019.6 L3092.35274,4017.24608 C3087.12178,4014.36905 3083.72171,4009.0074 3082.15242,4001.16096 C3081.10623,3993.31452 3080.3216,3981.93736 3079.7985,3967.02912 C3079.53695,3959.44423 3079.27541,3952.5787 3079.01386,3946.43232 C3078.75231,3940.28594 3078.36,3934.59736 3077.8369,3929.3664 C3076.26761,3913.67352 3072.21368,3902.29636 3065.67498,3895.23456 C3059.13628,3888.17277 3048.80529,3883.59575 3034.6817,3881.50336 L3034.6817,3880.71872 C3050.63613,3877.3186 3062.40561,3869.66843 3069.9905,3857.768 C3077.57539,3845.86757 3081.36778,3830.50186 3081.36778,3811.6704 C3081.36778,3787.34644 3074.82918,3769.23452 3061.75178,3757.33408 C3048.67438,3745.43365 3030.3663,3739.48352 3006.82698,3739.48352 L2902.46986,3739.48352 Z M2958.96394,3861.88736 L2958.96394,3781.06944 L2985.6417,3781.06944 C3011.7965,3781.06944 3024.8737,3794.01587 3024.8737,3819.90912 C3024.8737,3835.0789 3021.21208,3845.8676 3013.88874,3852.27552 C3006.5654,3858.68345 2996.10363,3861.88736 2982.50314,3861.88736 L2958.96394,3861.88736 Z M3257.59212,3914.06592 L3230.52204,3788.1312 L3229.7374,3788.1312 L3202.66732,3914.06592 L3257.59212,3914.06592 Z M3265.0462,3739.48352 L3339.19468,4019.6 L3280.34668,4019.6 L3267.40012,3960.35968 L3192.85932,3960.35968 L3179.91276,4019.6 L3121.06476,4019.6 L3195.21324,3739.48352 L3265.0462,3739.48352 Z M3444.01679,3739.48352 L3378.89167,3739.48352 L3378.89167,4019.6 L3430.67791,4019.6 L3430.67791,3823.44 L3431.46255,3823.44 L3500.51087,4019.6 L3564.85135,4019.6 L3564.85135,3739.48352 L3513.06511,3739.48352 L3513.06511,3931.328 L3512.28047,3931.328 L3444.01679,3739.48352 Z M3748.52977,3822.65536 L3802.66993,3822.65536 C3802.66993,3794.14663 3795.86978,3772.24232 3782.26929,3756.94176 C3768.66879,3741.64121 3746.43755,3733.99104 3715.57489,3733.99104 C3697.52808,3733.99104 3682.4893,3736.9988 3670.45809,3743.0144 C3658.42688,3749.03001 3648.74975,3757.98789 3641.42641,3769.88832 C3634.10307,3781.78876 3628.93757,3796.63138 3625.92977,3814.41664 C3622.92197,3832.2019 3621.41809,3852.86388 3621.41809,3876.4032 C3621.41809,3900.72716 3622.46427,3922.10839 3624.55665,3940.54752 C3626.64903,3958.98665 3630.76835,3974.48314 3636.91473,3987.03744 C3643.06111,3999.59174 3651.56129,4008.87656 3662.41553,4014.89216 C3673.26977,4020.90776 3687.32776,4023.91552 3704.58993,4023.91552 C3717.92888,4023.91552 3729.37143,4021.62701 3738.91793,4017.04992 C3748.46443,4012.47283 3756.63768,4004.6919 3763.43793,3993.70688 L3764.22257,3993.70688 L3764.22257,4019.6 L3805.80849,4019.6 L3805.80849,3868.5568 L3714.39793,3868.5568 L3714.39793,3910.14272 L3751.66833,3910.14272 L3751.66833,3938.78208 C3751.66833,3946.36697 3750.49138,3952.97096 3748.13745,3958.59424 C3745.78352,3964.21752 3742.84115,3968.85993 3739.31025,3972.5216 C3735.77935,3976.18327 3731.98696,3978.92948 3727.93297,3980.76032 C3723.87898,3982.59116 3720.15197,3983.50656 3716.75185,3983.50656 C3708.64386,3983.50656 3702.03988,3980.95651 3696.93969,3975.85632 C3691.8395,3970.75614 3687.91634,3963.4329 3685.17009,3953.8864 C3682.42384,3944.3399 3680.52764,3932.76658 3679.48145,3919.16608 C3678.43526,3905.56559 3677.91217,3890.39603 3677.91217,3873.65696 C3677.91217,3838.60953 3680.91993,3813.50131 3686.93553,3798.33152 C3692.95113,3783.16174 3702.75904,3775.57696 3716.35953,3775.57696 C3722.11359,3775.57696 3727.01754,3777.08084 3731.07153,3780.08864 C3735.12552,3783.09644 3738.46021,3786.88883 3741.07569,3791.46592 C3743.69117,3796.04301 3745.58736,3801.07774 3746.76433,3806.57024 C3747.9413,3812.06275 3748.52977,3817.4244 3748.52977,3822.65536 L3748.52977,3822.65536 Z M4018.91091,3739.48352 L3862.37523,3739.48352 L3862.37523,4019.6 L4022.83411,4019.6 L4022.83411,3973.30624 L3918.86931,3973.30624 L3918.86931,3897.9808 L4013.02611,3897.9808 L4013.02611,3851.68704 L3918.86931,3851.68704 L3918.86931,3785.77728 L4018.91091,3785.77728 L4018.91091,3739.48352 Z M2901.96296,4084.55642 L2901.96296,4370.3849 L2959.60904,4370.3849 L2959.60904,4249.48826 L2990.43368,4249.48826 C3002.44334,4249.48826 3010.98341,4252.69079 3016.05416,4259.09594 C3021.1249,4265.50109 3023.92711,4274.30804 3024.46088,4285.51706 L3026.06216,4340.3609 C3026.32904,4345.96541 3026.86279,4351.36967 3027.66344,4356.57386 C3028.46408,4361.77805 3030.33222,4366.38168 3033.26792,4370.3849 L3095.71783,4370.3849 L3095.71783,4367.98298 C3090.38021,4365.04729 3086.9108,4359.5763 3085.30951,4351.56986 C3084.24199,4343.56342 3083.44136,4331.95426 3082.90759,4316.74202 C3082.64071,4309.00246 3082.37384,4301.99693 3082.10695,4295.72522 C3081.84007,4289.45351 3081.43976,4283.64893 3080.90599,4278.3113 C3079.30471,4262.29842 3075.16811,4250.68926 3068.49607,4243.48346 C3061.82404,4236.27767 3051.28239,4231.60731 3036.8708,4229.47226 L3036.8708,4228.67162 C3053.15056,4225.20216 3065.16004,4217.396 3072.89959,4205.2529 C3080.63915,4193.1098 3084.50887,4177.43076 3084.50887,4158.2153 C3084.50887,4133.39534 3077.83694,4114.91408 3064.49287,4102.77098 C3051.14881,4090.62788 3032.4674,4084.55642 3008.44808,4084.55642 L2901.96296,4084.55642 Z M2959.60904,4209.45626 L2959.60904,4126.99034 L2986.8308,4126.99034 C3013.51893,4126.99034 3026.8628,4140.20077 3026.8628,4166.62202 C3026.8628,4182.10114 3023.12651,4193.10983 3015.65384,4199.64842 C3008.18116,4206.18701 2997.50606,4209.45626 2983.62824,4209.45626 L2959.60904,4209.45626 Z M3196.67262,4227.47066 C3196.67262,4208.25521 3197.13966,4191.97569 3198.07374,4178.63162 C3199.00783,4165.28756 3200.87597,4154.34559 3203.67822,4145.80538 C3206.48048,4137.26518 3210.48363,4131.06028 3215.68782,4127.1905 C3220.89201,4123.32072 3227.7641,4121.38586 3236.3043,4121.38586 C3244.8445,4121.38586 3251.71659,4123.32072 3256.92078,4127.1905 C3262.12497,4131.06028 3266.12813,4137.26518 3268.93038,4145.80538 C3271.73263,4154.34559 3273.60078,4165.28756 3274.53486,4178.63162 C3275.46894,4191.97569 3275.93598,4208.25521 3275.93598,4227.47066 C3275.93598,4246.68612 3275.46894,4263.03235 3274.53486,4276.50986 C3273.60078,4289.98737 3271.73263,4300.92934 3268.93038,4309.3361 C3266.12813,4317.74286 3262.12497,4323.88104 3256.92078,4327.75082 C3251.71659,4331.6206 3244.8445,4333.55546 3236.3043,4333.55546 C3227.7641,4333.55546 3220.89201,4331.6206 3215.68782,4327.75082 C3210.48363,4323.88104 3206.48048,4317.74286 3203.67822,4309.3361 C3200.87597,4300.92934 3199.00783,4289.98737 3198.07374,4276.50986 C3197.13966,4263.03235 3196.67262,4246.68612 3196.67262,4227.47066 L3196.67262,4227.47066 Z M3139.02654,4227.47066 C3139.02654,4249.35493 3140.02733,4269.37073 3142.02894,4287.51866 C3144.03055,4305.66659 3148.43403,4321.27891 3155.2395,4334.3561 C3162.04498,4347.43329 3171.85272,4357.44119 3184.66302,4364.3801 C3197.47333,4371.31901 3214.68691,4374.78842 3236.3043,4374.78842 C3257.92169,4374.78842 3275.13528,4371.31901 3287.94558,4364.3801 C3300.75588,4357.44119 3310.56363,4347.43329 3317.3691,4334.3561 C3324.17457,4321.27891 3328.57805,4305.66659 3330.57966,4287.51866 C3332.58127,4269.37073 3333.58206,4249.35493 3333.58206,4227.47066 C3333.58206,4205.85327 3332.58127,4185.90419 3330.57966,4167.62282 C3328.57805,4149.34145 3324.17457,4133.66241 3317.3691,4120.58522 C3310.56363,4107.50804 3300.75588,4097.29998 3287.94558,4089.96074 C3275.13528,4082.62151 3257.92169,4078.95194 3236.3043,4078.95194 C3214.68691,4078.95194 3197.47333,4082.62151 3184.66302,4089.96074 C3171.85272,4097.29998 3162.04498,4107.50804 3155.2395,4120.58522 C3148.43403,4133.66241 3144.03055,4149.34145 3142.02894,4167.62282 C3140.02733,4185.90419 3139.02654,4205.85327 3139.02654,4227.47066 L3139.02654,4227.47066 Z M3430.93397,4084.55642 L3369.28469,4084.55642 L3434.93717,4370.3849 L3508.99637,4370.3849 L3574.64884,4084.55642 L3515.00117,4084.55642 L3472.56725,4295.92538 L3471.36629,4295.92538 L3430.93397,4084.55642 Z M3776.08395,4084.55642 L3616.35627,4084.55642 L3616.35627,4370.3849 L3780.08715,4370.3849 L3780.08715,4323.14714 L3674.00235,4323.14714 L3674.00235,4246.2857 L3770.07915,4246.2857 L3770.07915,4199.04794 L3674.00235,4199.04794 L3674.00235,4131.79418 L3776.08395,4131.79418 L3776.08395,4084.55642 Z M3829.40066,4084.55642 L3829.40066,4370.3849 L3887.04674,4370.3849 L3887.04674,4249.48826 L3917.87138,4249.48826 C3929.88104,4249.48826 3938.42111,4252.69079 3943.49186,4259.09594 C3948.5626,4265.50109 3951.36481,4274.30804 3951.89858,4285.51706 L3953.49986,4340.3609 C3953.76674,4345.96541 3954.30049,4351.36967 3955.10114,4356.57386 C3955.90178,4361.77805 3957.76992,4366.38168 3960.70562,4370.3849 L4023.15554,4370.3849 L4023.15554,4367.98298 C4017.81791,4365.04729 4014.3485,4359.5763 4012.74722,4351.56986 C4011.67969,4343.56342 4010.87906,4331.95426 4010.3453,4316.74202 C4010.07841,4309.00246 4009.81154,4301.99693 4009.54466,4295.72522 C4009.27777,4289.45351 4008.87746,4283.64893 4008.3437,4278.3113 C4006.74241,4262.29842 4002.60581,4250.68926 3995.93378,4243.48346 C3989.26174,4236.27767 3978.72009,4231.60731 3964.3085,4229.47226 L3964.3085,4228.67162 C3980.58826,4225.20216 3992.59774,4217.396 4000.3373,4205.2529 C4008.07685,4193.1098 4011.94658,4177.43076 4011.94658,4158.2153 C4011.94658,4133.39534 4005.27464,4114.91408 3991.93058,4102.77098 C3978.58651,4090.62788 3959.9051,4084.55642 3935.88578,4084.55642 L3829.40066,4084.55642 Z M3887.04674,4209.45626 L3887.04674,4126.99034 L3914.2685,4126.99034 C3940.95663,4126.99034 3954.3005,4140.20077 3954.3005,4166.62202 C3954.3005,4182.10114 3950.56421,4193.10983 3943.09154,4199.64842 C3935.61886,4206.18701 3924.94377,4209.45626 3911.06594,4209.45626 L3887.04674,4209.45626 Z M3081.74313,5092.39381 L3081.74313,5044.58325 L2967.76617,5044.58325 C2969.18911,5038.89149 2972.46182,5032.13262 2977.58441,5024.30645 C2982.707,5016.48028 2989.82159,5008.44079 2998.92841,5000.18773 L3033.07881,4968.59861 C3041.61645,4960.91473 3048.87334,4953.44441 3054.84969,4946.18741 C3060.82604,4938.93041 3065.66396,4931.46009 3069.36361,4923.77621 C3073.06325,4916.09233 3075.7668,4908.05284 3077.47433,4899.65749 C3079.18186,4891.26214 3080.03561,4882.22661 3080.03561,4872.55061 C3080.03561,4846.08392 3072.63643,4825.73618 3057.83785,4811.50677 C3043.03927,4797.27737 3020.27256,4790.16277 2989.53705,4790.16277 C2957.09401,4790.16277 2933.33126,4797.70424 2918.24809,4812.78741 C2903.16492,4827.87058 2895.62345,4849.49895 2895.62345,4877.67317 L2895.62345,4889.19893 L2954.53289,4889.19893 C2954.53289,4881.23046 2954.88862,4873.68899 2955.60009,4866.57429 C2956.31156,4859.45959 2957.87677,4853.19874 2960.29577,4847.79157 C2962.71477,4842.3844 2966.12977,4838.11564 2970.54089,4834.98517 C2974.95201,4831.8547 2980.99941,4830.28949 2988.68329,4830.28949 C3008.60446,4830.28949 3018.56489,4842.81118 3018.56489,4867.85493 C3018.56489,4875.53881 3018.20916,4882.36882 3017.49769,4888.34517 C3016.78622,4894.32152 3015.29215,4899.87091 3013.01545,4904.99349 C3010.73874,4910.11608 3007.53718,4915.23859 3003.41065,4920.36117 C2999.28412,4925.48376 2993.80588,4931.03314 2986.97577,4937.00949 L2962.21673,4960.06101 C2951.11779,4970.30618 2941.3708,4980.48005 2932.97545,4990.58293 C2924.5801,5000.68581 2917.6078,5011.00197 2912.05833,5021.53173 C2906.50886,5032.06149 2902.3824,5043.16026 2899.67881,5054.82837 C2896.97522,5066.49648 2895.62345,5079.01817 2895.62345,5092.39381 L3081.74313,5092.39381 Z M3182.139,5004.02965 L3123.22956,5004.02965 L3123.22956,5005.31029 C3123.22956,5034.62286 3130.48645,5057.24728 3145.00044,5073.18421 C3159.51443,5089.12114 3181.42738,5097.08949 3210.73996,5097.08949 C3231.79948,5097.08949 3248.80336,5094.38594 3261.75212,5088.97877 C3274.70088,5083.5716 3284.87475,5076.457 3292.27404,5067.63477 C3299.67333,5058.81254 3304.65355,5048.9944 3307.21484,5038.18005 C3309.77613,5027.3657 3311.05676,5016.8361 3311.05676,5006.59093 C3311.05676,4987.52353 3307.00144,4971.65798 3298.89068,4958.99381 C3290.77992,4946.32964 3276.90646,4938.43244 3257.26988,4935.30197 L3257.26988,4934.44821 C3271.78387,4931.31774 3283.09608,4923.98971 3291.20684,4912.46389 C3299.3176,4900.93807 3303.37292,4886.06857 3303.37292,4867.85493 C3303.37292,4841.10365 3295.7603,4821.46737 3280.53484,4808.94549 C3265.30938,4796.42361 3243.89444,4790.16277 3216.2894,4790.16277 C3187.26141,4790.16277 3165.20617,4797.4908 3150.123,4812.14709 C3135.03983,4826.80338 3127.49836,4849.21435 3127.49836,4879.38069 L3183.84652,4879.38069 C3183.84652,4872.26599 3184.20225,4865.72056 3184.91372,4859.74421 C3185.62519,4853.76786 3187.11925,4848.57421 3189.39596,4844.16309 C3191.67266,4839.75198 3194.87423,4836.33697 3199.00076,4833.91797 C3203.12729,4831.49897 3208.46323,4830.28949 3215.00876,4830.28949 C3224.96934,4830.28949 3232.36852,4833.27762 3237.20652,4839.25397 C3242.04452,4845.23032 3244.46348,4855.47534 3244.46348,4869.98933 C3244.46348,4876.25027 3243.82316,4882.22653 3242.54252,4887.91829 C3241.26187,4893.61005 3239.26978,4898.66142 3236.5662,4903.07253 C3233.86261,4907.48365 3230.30531,4911.04094 3225.8942,4913.74453 C3221.48308,4916.44812 3216.00484,4917.79989 3209.45932,4917.79989 L3189.39596,4917.79989 L3189.39596,4957.92661 L3209.8862,4957.92661 C3218.42384,4957.92661 3225.25385,4959.34953 3230.37644,4962.19541 C3235.49902,4965.04129 3239.4832,4968.88317 3242.32908,4973.72117 C3245.17496,4978.55917 3247.0959,4984.03741 3248.09196,4990.15605 C3249.08802,4996.27469 3249.58604,5002.74898 3249.58604,5009.57909 C3249.58604,5016.12462 3249.23031,5022.38546 3248.51884,5028.36181 C3247.80737,5034.33816 3246.24216,5039.53182 3243.82316,5043.94293 C3241.40416,5048.35405 3237.98915,5051.8402 3233.57804,5054.40149 C3229.16692,5056.96278 3223.26181,5058.24341 3215.86252,5058.24341 C3202.48688,5058.24341 3193.59363,5053.61892 3189.18252,5044.36981 C3184.7714,5035.1207 3182.42359,5021.67411 3182.139,5004.02965 L3182.139,5004.02965 Z M3420.84399,5025.80053 L3364.49583,5025.80053 L3364.49583,5092.39381 L3386.69359,5092.39381 L3386.69359,5097.94325 C3386.69359,5105.91172 3384.84379,5113.1686 3381.14415,5119.71413 C3377.4445,5126.25966 3371.89512,5130.24383 3364.49583,5131.66677 L3364.49583,5161.54837 C3375.87935,5160.41002 3385.19947,5157.63533 3392.45647,5153.22421 C3399.71346,5148.8131 3405.47628,5143.12142 3409.74511,5136.14901 C3414.01393,5129.1766 3416.93091,5120.92367 3418.49615,5111.38997 C3420.06138,5101.85627 3420.84399,5091.82469 3420.84399,5081.29493 L3420.84399,5025.80053 Z M3536.18065,4998.48021 C3536.18065,4977.98987 3538.74191,4963.3338 3543.86449,4954.51157 C3548.98708,4945.68934 3557.66689,4941.27829 3569.90417,4941.27829 C3581.85687,4941.27829 3590.39439,4945.68934 3595.51697,4954.51157 C3600.63956,4963.3338 3603.20081,4977.98987 3603.20081,4998.48021 C3603.20081,5007.01785 3602.84508,5014.91505 3602.13361,5022.17205 C3601.42214,5029.42905 3599.92808,5035.76104 3597.65137,5041.16821 C3595.37467,5046.57538 3592.03081,5050.773 3587.61969,5053.76117 C3583.20858,5056.74935 3577.30346,5058.24341 3569.90417,5058.24341 C3562.78947,5058.24341 3557.02665,5056.74935 3552.61553,5053.76117 C3548.20442,5050.773 3544.78941,5046.64653 3542.37041,5041.38165 C3539.95142,5036.11677 3538.31506,5029.78478 3537.46129,5022.38549 C3536.60753,5014.9862 3536.18065,5007.01785 3536.18065,4998.48021 L3536.18065,4998.48021 Z M3598.50513,4867.00117 L3657.41457,4867.00117 C3657.12999,4852.48718 3654.63988,4840.32122 3649.94417,4830.50293 C3645.24847,4820.68464 3639.05877,4812.78744 3631.37489,4806.81109 C3623.69102,4800.83474 3614.79777,4796.56598 3604.69489,4794.00469 C3594.59202,4791.4434 3584.13356,4790.16277 3573.31921,4790.16277 C3548.27546,4790.16277 3528.92376,4794.8584 3515.26353,4804.24981 C3501.60331,4813.64122 3491.57173,4826.09176 3485.16849,4841.60181 C3478.76526,4857.11186 3474.92338,4874.89835 3473.64273,4894.96181 C3472.36209,4915.02527 3471.72177,4935.72874 3471.72177,4957.07285 C3471.72177,4975.57108 3472.71782,4993.35757 3474.70993,5010.43285 C3476.70205,5027.50814 3481.04195,5042.51993 3487.72977,5055.46869 C3494.41759,5068.41745 3504.0223,5078.59132 3516.54417,5085.99061 C3529.06605,5093.3899 3545.8565,5097.08949 3566.91601,5097.08949 C3601.06658,5097.08949 3625.89652,5088.05395 3641.40657,5069.98261 C3656.91662,5051.91127 3664.67153,5025.37383 3664.67153,4990.36949 C3664.67153,4976.70926 3663.31976,4964.11643 3660.61617,4952.59061 C3657.91259,4941.06479 3653.64383,4931.10436 3647.80977,4922.70901 C3641.97572,4914.31366 3634.3631,4907.76823 3624.97169,4903.07253 C3615.58029,4898.37683 3604.19693,4896.02901 3590.82129,4896.02901 C3577.16107,4896.02901 3565.56428,4898.37683 3556.03057,4903.07253 C3546.49687,4907.76823 3539.16884,4914.10022 3534.04625,4922.06869 L3533.19249,4922.06869 L3533.19249,4907.12789 C3533.19249,4896.02896 3533.61937,4885.78394 3534.47313,4876.39253 C3535.3269,4867.00112 3537.10555,4858.89048 3539.80913,4852.06037 C3542.51272,4845.23026 3546.3546,4839.89431 3551.33489,4836.05237 C3556.31519,4832.21043 3562.78947,4830.28949 3570.75793,4830.28949 C3581.00311,4830.28949 3588.18885,4833.41991 3592.31537,4839.68085 C3596.4419,4845.94179 3598.50513,4855.04847 3598.50513,4867.00117 L3598.50513,4867.00117 Z M3925.57428,4782.90581 L3752.261,5104.34645 L3790.25332,5104.34645 L3963.5666,4782.90581 L3925.57428,4782.90581 Z M3749.27284,4869.98933 C3749.27284,4854.62157 3750.26889,4842.88249 3752.261,4834.77173 C3754.25312,4826.66097 3759.51792,4822.60565 3768.05556,4822.60565 C3776.5932,4822.60565 3781.85801,4826.66097 3783.85012,4834.77173 C3785.84224,4842.88249 3786.83828,4854.62157 3786.83828,4869.98933 C3786.83828,4887.06462 3785.84224,4899.79974 3783.85012,4908.19509 C3781.85801,4916.59044 3776.5932,4920.78805 3768.05556,4920.78805 C3759.51792,4920.78805 3754.25312,4916.59044 3752.261,4908.19509 C3750.26889,4899.79974 3749.27284,4887.06462 3749.27284,4869.98933 L3749.27284,4869.98933 Z M3704.02356,4871.69685 C3704.02356,4885.35708 3704.87731,4897.3096 3706.58484,4907.55477 C3708.29237,4917.79994 3711.49394,4926.33746 3716.18964,4933.16757 C3720.88535,4939.99768 3727.43077,4945.04905 3735.82612,4948.32181 C3744.22147,4951.59457 3754.96451,4953.23093 3768.05556,4953.23093 C3781.4312,4953.23093 3792.24539,4951.59457 3800.49844,4948.32181 C3808.7515,4945.04905 3815.22578,4939.99768 3819.92148,4933.16757 C3824.61719,4926.33746 3827.81875,4917.79994 3829.52628,4907.55477 C3831.23381,4897.3096 3832.08756,4885.35708 3832.08756,4871.69685 C3832.08756,4858.03662 3831.23381,4846.0841 3829.52628,4835.83893 C3827.81875,4825.59376 3824.61719,4817.05624 3819.92148,4810.22613 C3815.22578,4803.39602 3808.7515,4798.34465 3800.49844,4795.07189 C3792.24539,4791.79913 3781.4312,4790.16277 3768.05556,4790.16277 C3754.96451,4790.16277 3744.22147,4791.79913 3735.82612,4795.07189 C3727.43077,4798.34465 3720.88535,4803.39602 3716.18964,4810.22613 C3711.49394,4817.05624 3708.29237,4825.59376 3706.58484,4835.83893 C3704.87731,4846.0841 3704.02356,4858.03662 3704.02356,4871.69685 L3704.02356,4871.69685 Z M3885.02068,5016.83605 C3885.02068,5030.78087 3885.87443,5042.80453 3887.58196,5052.90741 C3889.28949,5063.01029 3892.49106,5071.40551 3897.18676,5078.09333 C3901.88247,5084.78115 3908.42789,5089.61908 3916.82324,5092.60725 C3925.21859,5095.59543 3935.96163,5097.08949 3949.05268,5097.08949 C3962.42832,5097.08949 3973.24251,5095.59543 3981.49556,5092.60725 C3989.74862,5089.61908 3996.2229,5084.78115 4000.9186,5078.09333 C4005.61431,5071.40551 4008.81587,5063.01029 4010.5234,5052.90741 C4012.23093,5042.80453 4013.08468,5030.78087 4013.08468,5016.83605 C4013.08468,5003.17582 4012.23093,4991.2233 4010.5234,4980.97813 C4008.81587,4970.73296 4005.61431,4962.19544 4000.9186,4955.36533 C3996.2229,4948.53522 3989.74862,4943.48385 3981.49556,4940.21109 C3973.24251,4936.93833 3962.42832,4935.30197 3949.05268,4935.30197 C3935.96163,4935.30197 3925.21859,4936.93833 3916.82324,4940.21109 C3908.42789,4943.48385 3901.88247,4948.53522 3897.18676,4955.36533 C3892.49106,4962.19544 3889.28949,4970.73296 3887.58196,4980.97813 C3885.87443,4991.2233 3885.02068,5003.17582 3885.02068,5016.83605 L3885.02068,5016.83605 Z M3930.26996,5015.12853 C3930.26996,4999.76077 3931.26601,4988.02169 3933.25812,4979.91093 C3935.25024,4971.80017 3940.51504,4967.74485 3949.05268,4967.74485 C3957.59032,4967.74485 3962.85513,4971.80017 3964.84724,4979.91093 C3966.83936,4988.02169 3967.8354,4999.76077 3967.8354,5015.12853 C3967.8354,5032.20382 3966.83936,5044.93894 3964.84724,5053.33429 C3962.85513,5061.72964 3957.59032,5065.92725 3949.05268,5065.92725 C3940.51504,5065.92725 3935.25024,5061.72964 3933.25812,5053.33429 C3931.26601,5044.93894 3930.26996,5032.20382 3930.26996,5015.12853 L3930.26996,5015.12853 Z" id="RANGE" fill="#FFFFFF" sketch:type="MSShapeGroup"></path>
        <path d="M3696.70013,3432.6 L3696.70013,3321.496 L3431.83613,3321.496 C3435.14281,3308.26927 3442.74807,3292.56276 3454.65213,3274.376 C3466.55619,3256.18924 3483.08936,3237.50676 3504.25213,3218.328 L3583.61213,3144.92 C3603.45223,3127.06391 3620.31606,3109.70408 3634.20413,3092.84 C3648.0922,3075.97592 3659.33475,3058.61609 3667.93213,3040.76 C3676.5295,3022.90391 3682.81211,3004.22143 3686.78013,2984.712 C3690.74815,2965.20257 3692.73213,2944.20545 3692.73213,2921.72 C3692.73213,2860.21569 3675.53763,2812.93083 3641.14813,2779.864 C3606.75862,2746.79717 3553.85248,2730.264 3482.42813,2730.264 C3407.03575,2730.264 3351.81497,2747.78916 3316.76413,2782.84 C3281.71329,2817.89084 3264.18813,2868.15167 3264.18813,2933.624 L3264.18813,2960.408 L3401.08413,2960.408 C3401.08413,2941.89057 3401.91079,2924.36542 3403.56413,2907.832 C3405.21747,2891.29858 3408.85477,2876.7494 3414.47613,2864.184 C3420.09749,2851.6186 3428.03341,2841.6987 3438.28413,2834.424 C3448.53485,2827.1493 3462.58804,2823.512 3480.44413,2823.512 C3526.73769,2823.512 3549.88413,2852.61038 3549.88413,2910.808 C3549.88413,2928.66409 3549.05747,2944.53593 3547.40413,2958.424 C3545.75079,2972.31207 3542.27882,2985.20794 3536.98813,2997.112 C3531.69743,3009.01606 3524.25751,3020.91994 3514.66813,3032.824 C3505.07875,3044.72806 3492.34821,3057.62393 3476.47613,3071.512 L3418.94013,3125.08 C3393.148,3148.88812 3370.49756,3172.53055 3350.98813,3196.008 C3331.4787,3219.48545 3315.27619,3243.45854 3302.38013,3267.928 C3289.48406,3292.39746 3279.89483,3318.1892 3273.61213,3345.304 C3267.32943,3372.4188 3264.18813,3401.51718 3264.18813,3432.6 L3696.70013,3432.6 Z" id="2" fill="#00ACEC" sketch:type="MSShapeGroup"></path>
        <rect id="Rectangle-10" stroke="#FFFFFF" stroke-width="56.8" sketch:type="MSShapeGroup" x="4634" y="2350" width="1696" height="2986.4"></rect>
        <rect id="Rectangle-11" fill="#FFFFFF" sketch:type="MSShapeGroup" x="4917.2" y="2613.2" width="1134.4" height="914.4"></rect>
        <path d="M4922.46986,3739.48352 L4922.46986,4019.6 L4978.96394,4019.6 L4978.96394,3901.11936 L5009.17258,3901.11936 C5020.94224,3901.11936 5029.31165,3904.25789 5034.28106,3910.53504 C5039.25047,3916.81219 5041.99668,3925.44315 5042.51978,3936.42816 L5044.08906,3990.176 C5044.35061,3995.66851 5044.8737,4000.96477 5045.65834,4006.06496 C5046.44298,4011.16515 5048.27379,4015.67678 5051.15082,4019.6 L5112.35274,4019.6 L5112.35274,4017.24608 C5107.12178,4014.36905 5103.72171,4009.0074 5102.15242,4001.16096 C5101.10623,3993.31452 5100.3216,3981.93736 5099.7985,3967.02912 C5099.53695,3959.44423 5099.27541,3952.5787 5099.01386,3946.43232 C5098.75231,3940.28594 5098.36,3934.59736 5097.8369,3929.3664 C5096.26761,3913.67352 5092.21368,3902.29636 5085.67498,3895.23456 C5079.13628,3888.17277 5068.80529,3883.59575 5054.6817,3881.50336 L5054.6817,3880.71872 C5070.63613,3877.3186 5082.40561,3869.66843 5089.9905,3857.768 C5097.57539,3845.86757 5101.36778,3830.50186 5101.36778,3811.6704 C5101.36778,3787.34644 5094.82918,3769.23452 5081.75178,3757.33408 C5068.67438,3745.43365 5050.3663,3739.48352 5026.82698,3739.48352 L4922.46986,3739.48352 Z M4978.96394,3861.88736 L4978.96394,3781.06944 L5005.6417,3781.06944 C5031.7965,3781.06944 5044.8737,3794.01587 5044.8737,3819.90912 C5044.8737,3835.0789 5041.21208,3845.8676 5033.88874,3852.27552 C5026.5654,3858.68345 5016.10363,3861.88736 5002.50314,3861.88736 L4978.96394,3861.88736 Z M5277.59212,3914.06592 L5250.52204,3788.1312 L5249.7374,3788.1312 L5222.66732,3914.06592 L5277.59212,3914.06592 Z M5285.0462,3739.48352 L5359.19468,4019.6 L5300.34668,4019.6 L5287.40012,3960.35968 L5212.85932,3960.35968 L5199.91276,4019.6 L5141.06476,4019.6 L5215.21324,3739.48352 L5285.0462,3739.48352 Z M5464.01679,3739.48352 L5398.89167,3739.48352 L5398.89167,4019.6 L5450.67791,4019.6 L5450.67791,3823.44 L5451.46255,3823.44 L5520.51087,4019.6 L5584.85135,4019.6 L5584.85135,3739.48352 L5533.06511,3739.48352 L5533.06511,3931.328 L5532.28047,3931.328 L5464.01679,3739.48352 Z M5768.52977,3822.65536 L5822.66993,3822.65536 C5822.66993,3794.14663 5815.86978,3772.24232 5802.26929,3756.94176 C5788.66879,3741.64121 5766.43755,3733.99104 5735.57489,3733.99104 C5717.52808,3733.99104 5702.4893,3736.9988 5690.45809,3743.0144 C5678.42688,3749.03001 5668.74975,3757.98789 5661.42641,3769.88832 C5654.10307,3781.78876 5648.93757,3796.63138 5645.92977,3814.41664 C5642.92197,3832.2019 5641.41809,3852.86388 5641.41809,3876.4032 C5641.41809,3900.72716 5642.46427,3922.10839 5644.55665,3940.54752 C5646.64903,3958.98665 5650.76835,3974.48314 5656.91473,3987.03744 C5663.06111,3999.59174 5671.56129,4008.87656 5682.41553,4014.89216 C5693.26977,4020.90776 5707.32776,4023.91552 5724.58993,4023.91552 C5737.92888,4023.91552 5749.37143,4021.62701 5758.91793,4017.04992 C5768.46443,4012.47283 5776.63768,4004.6919 5783.43793,3993.70688 L5784.22257,3993.70688 L5784.22257,4019.6 L5825.80849,4019.6 L5825.80849,3868.5568 L5734.39793,3868.5568 L5734.39793,3910.14272 L5771.66833,3910.14272 L5771.66833,3938.78208 C5771.66833,3946.36697 5770.49138,3952.97096 5768.13745,3958.59424 C5765.78352,3964.21752 5762.84115,3968.85993 5759.31025,3972.5216 C5755.77935,3976.18327 5751.98696,3978.92948 5747.93297,3980.76032 C5743.87898,3982.59116 5740.15197,3983.50656 5736.75185,3983.50656 C5728.64386,3983.50656 5722.03988,3980.95651 5716.93969,3975.85632 C5711.8395,3970.75614 5707.91634,3963.4329 5705.17009,3953.8864 C5702.42384,3944.3399 5700.52764,3932.76658 5699.48145,3919.16608 C5698.43526,3905.56559 5697.91217,3890.39603 5697.91217,3873.65696 C5697.91217,3838.60953 5700.91993,3813.50131 5706.93553,3798.33152 C5712.95113,3783.16174 5722.75904,3775.57696 5736.35953,3775.57696 C5742.11359,3775.57696 5747.01754,3777.08084 5751.07153,3780.08864 C5755.12552,3783.09644 5758.46021,3786.88883 5761.07569,3791.46592 C5763.69117,3796.04301 5765.58736,3801.07774 5766.76433,3806.57024 C5767.9413,3812.06275 5768.52977,3817.4244 5768.52977,3822.65536 L5768.52977,3822.65536 Z M6038.91091,3739.48352 L5882.37523,3739.48352 L5882.37523,4019.6 L6042.83411,4019.6 L6042.83411,3973.30624 L5938.86931,3973.30624 L5938.86931,3897.9808 L6033.02611,3897.9808 L6033.02611,3851.68704 L5938.86931,3851.68704 L5938.86931,3785.77728 L6038.91091,3785.77728 L6038.91091,3739.48352 Z M4921.96296,4084.55642 L4921.96296,4370.3849 L4979.60904,4370.3849 L4979.60904,4249.48826 L5010.43368,4249.48826 C5022.44334,4249.48826 5030.98341,4252.69079 5036.05416,4259.09594 C5041.1249,4265.50109 5043.92711,4274.30804 5044.46088,4285.51706 L5046.06216,4340.3609 C5046.32904,4345.96541 5046.86279,4351.36967 5047.66344,4356.57386 C5048.46408,4361.77805 5050.33222,4366.38168 5053.26792,4370.3849 L5115.71783,4370.3849 L5115.71783,4367.98298 C5110.38021,4365.04729 5106.9108,4359.5763 5105.30951,4351.56986 C5104.24199,4343.56342 5103.44136,4331.95426 5102.90759,4316.74202 C5102.64071,4309.00246 5102.37384,4301.99693 5102.10695,4295.72522 C5101.84007,4289.45351 5101.43976,4283.64893 5100.90599,4278.3113 C5099.30471,4262.29842 5095.16811,4250.68926 5088.49607,4243.48346 C5081.82404,4236.27767 5071.28239,4231.60731 5056.8708,4229.47226 L5056.8708,4228.67162 C5073.15056,4225.20216 5085.16004,4217.396 5092.89959,4205.2529 C5100.63915,4193.1098 5104.50887,4177.43076 5104.50887,4158.2153 C5104.50887,4133.39534 5097.83694,4114.91408 5084.49287,4102.77098 C5071.14881,4090.62788 5052.4674,4084.55642 5028.44808,4084.55642 L4921.96296,4084.55642 Z M4979.60904,4209.45626 L4979.60904,4126.99034 L5006.8308,4126.99034 C5033.51893,4126.99034 5046.8628,4140.20077 5046.8628,4166.62202 C5046.8628,4182.10114 5043.12651,4193.10983 5035.65384,4199.64842 C5028.18116,4206.18701 5017.50606,4209.45626 5003.62824,4209.45626 L4979.60904,4209.45626 Z M5216.67262,4227.47066 C5216.67262,4208.25521 5217.13966,4191.97569 5218.07374,4178.63162 C5219.00783,4165.28756 5220.87597,4154.34559 5223.67822,4145.80538 C5226.48048,4137.26518 5230.48363,4131.06028 5235.68782,4127.1905 C5240.89201,4123.32072 5247.7641,4121.38586 5256.3043,4121.38586 C5264.8445,4121.38586 5271.71659,4123.32072 5276.92078,4127.1905 C5282.12497,4131.06028 5286.12813,4137.26518 5288.93038,4145.80538 C5291.73263,4154.34559 5293.60078,4165.28756 5294.53486,4178.63162 C5295.46894,4191.97569 5295.93598,4208.25521 5295.93598,4227.47066 C5295.93598,4246.68612 5295.46894,4263.03235 5294.53486,4276.50986 C5293.60078,4289.98737 5291.73263,4300.92934 5288.93038,4309.3361 C5286.12813,4317.74286 5282.12497,4323.88104 5276.92078,4327.75082 C5271.71659,4331.6206 5264.8445,4333.55546 5256.3043,4333.55546 C5247.7641,4333.55546 5240.89201,4331.6206 5235.68782,4327.75082 C5230.48363,4323.88104 5226.48048,4317.74286 5223.67822,4309.3361 C5220.87597,4300.92934 5219.00783,4289.98737 5218.07374,4276.50986 C5217.13966,4263.03235 5216.67262,4246.68612 5216.67262,4227.47066 L5216.67262,4227.47066 Z M5159.02654,4227.47066 C5159.02654,4249.35493 5160.02733,4269.37073 5162.02894,4287.51866 C5164.03055,4305.66659 5168.43403,4321.27891 5175.2395,4334.3561 C5182.04498,4347.43329 5191.85272,4357.44119 5204.66302,4364.3801 C5217.47333,4371.31901 5234.68691,4374.78842 5256.3043,4374.78842 C5277.92169,4374.78842 5295.13528,4371.31901 5307.94558,4364.3801 C5320.75588,4357.44119 5330.56363,4347.43329 5337.3691,4334.3561 C5344.17457,4321.27891 5348.57805,4305.66659 5350.57966,4287.51866 C5352.58127,4269.37073 5353.58206,4249.35493 5353.58206,4227.47066 C5353.58206,4205.85327 5352.58127,4185.90419 5350.57966,4167.62282 C5348.57805,4149.34145 5344.17457,4133.66241 5337.3691,4120.58522 C5330.56363,4107.50804 5320.75588,4097.29998 5307.94558,4089.96074 C5295.13528,4082.62151 5277.92169,4078.95194 5256.3043,4078.95194 C5234.68691,4078.95194 5217.47333,4082.62151 5204.66302,4089.96074 C5191.85272,4097.29998 5182.04498,4107.50804 5175.2395,4120.58522 C5168.43403,4133.66241 5164.03055,4149.34145 5162.02894,4167.62282 C5160.02733,4185.90419 5159.02654,4205.85327 5159.02654,4227.47066 L5159.02654,4227.47066 Z M5450.93397,4084.55642 L5389.28469,4084.55642 L5454.93717,4370.3849 L5528.99637,4370.3849 L5594.64884,4084.55642 L5535.00117,4084.55642 L5492.56725,4295.92538 L5491.36629,4295.92538 L5450.93397,4084.55642 Z M5796.08395,4084.55642 L5636.35627,4084.55642 L5636.35627,4370.3849 L5800.08715,4370.3849 L5800.08715,4323.14714 L5694.00235,4323.14714 L5694.00235,4246.2857 L5790.07915,4246.2857 L5790.07915,4199.04794 L5694.00235,4199.04794 L5694.00235,4131.79418 L5796.08395,4131.79418 L5796.08395,4084.55642 Z M5849.40066,4084.55642 L5849.40066,4370.3849 L5907.04674,4370.3849 L5907.04674,4249.48826 L5937.87138,4249.48826 C5949.88104,4249.48826 5958.42111,4252.69079 5963.49186,4259.09594 C5968.5626,4265.50109 5971.36481,4274.30804 5971.89858,4285.51706 L5973.49986,4340.3609 C5973.76674,4345.96541 5974.30049,4351.36967 5975.10114,4356.57386 C5975.90178,4361.77805 5977.76992,4366.38168 5980.70562,4370.3849 L6043.15554,4370.3849 L6043.15554,4367.98298 C6037.81791,4365.04729 6034.3485,4359.5763 6032.74722,4351.56986 C6031.67969,4343.56342 6030.87906,4331.95426 6030.3453,4316.74202 C6030.07841,4309.00246 6029.81154,4301.99693 6029.54466,4295.72522 C6029.27777,4289.45351 6028.87746,4283.64893 6028.3437,4278.3113 C6026.74241,4262.29842 6022.60581,4250.68926 6015.93378,4243.48346 C6009.26174,4236.27767 5998.72009,4231.60731 5984.3085,4229.47226 L5984.3085,4228.67162 C6000.58826,4225.20216 6012.59774,4217.396 6020.3373,4205.2529 C6028.07685,4193.1098 6031.94658,4177.43076 6031.94658,4158.2153 C6031.94658,4133.39534 6025.27464,4114.91408 6011.93058,4102.77098 C5998.58651,4090.62788 5979.9051,4084.55642 5955.88578,4084.55642 L5849.40066,4084.55642 Z M5907.04674,4209.45626 L5907.04674,4126.99034 L5934.2685,4126.99034 C5960.95663,4126.99034 5974.3005,4140.20077 5974.3005,4166.62202 C5974.3005,4182.10114 5970.56421,4193.10983 5963.09154,4199.64842 C5955.61886,4206.18701 5944.94377,4209.45626 5931.06594,4209.45626 L5907.04674,4209.45626 Z M4985.63177,5092.39381 L5047.10249,5092.39381 L5047.10249,4790.16277 L5001.85321,4790.16277 C4998.72274,4807.23806 4991.25242,4819.61745 4979.44201,4827.30133 C4967.6316,4834.98521 4951.48147,4838.82709 4930.99113,4838.82709 L4925.44169,4838.82709 L4925.44169,4878.95381 L4985.63177,4878.95381 L4985.63177,5092.39381 Z M5328.49548,5092.39381 L5328.49548,5044.58325 L5214.51852,5044.58325 C5215.94146,5038.89149 5219.21417,5032.13262 5224.33676,5024.30645 C5229.45934,5016.48028 5236.57394,5008.44079 5245.68076,5000.18773 L5279.83116,4968.59861 C5288.3688,4960.91473 5295.62569,4953.44441 5301.60204,4946.18741 C5307.57839,4938.93041 5312.41631,4931.46009 5316.11596,4923.77621 C5319.8156,4916.09233 5322.51915,4908.05284 5324.22668,4899.65749 C5325.93421,4891.26214 5326.78796,4882.22661 5326.78796,4872.55061 C5326.78796,4846.08392 5319.38878,4825.73618 5304.5902,4811.50677 C5289.79162,4797.27737 5267.02491,4790.16277 5236.2894,4790.16277 C5203.84636,4790.16277 5180.08361,4797.70424 5165.00044,4812.78741 C5149.91727,4827.87058 5142.3758,4849.49895 5142.3758,4877.67317 L5142.3758,4889.19893 L5201.28524,4889.19893 C5201.28524,4881.23046 5201.64097,4873.68899 5202.35244,4866.57429 C5203.06391,4859.45959 5204.62912,4853.19874 5207.04812,4847.79157 C5209.46712,4842.3844 5212.88212,4838.11564 5217.29324,4834.98517 C5221.70435,4831.8547 5227.75176,4830.28949 5235.43564,4830.28949 C5255.3568,4830.28949 5265.31724,4842.81118 5265.31724,4867.85493 C5265.31724,4875.53881 5264.96151,4882.36882 5264.25004,4888.34517 C5263.53857,4894.32152 5262.0445,4899.87091 5259.7678,4904.99349 C5257.49109,4910.11608 5254.28953,4915.23859 5250.163,4920.36117 C5246.03647,4925.48376 5240.55823,4931.03314 5233.72812,4937.00949 L5208.96908,4960.06101 C5197.87014,4970.30618 5188.12315,4980.48005 5179.7278,4990.58293 C5171.33245,5000.68581 5164.36015,5011.00197 5158.81068,5021.53173 C5153.26121,5032.06149 5149.13474,5043.16026 5146.43116,5054.82837 C5143.72757,5066.49648 5142.3758,5079.01817 5142.3758,5092.39381 L5328.49548,5092.39381 Z M5440.84399,5025.80053 L5384.49583,5025.80053 L5384.49583,5092.39381 L5406.69359,5092.39381 L5406.69359,5097.94325 C5406.69359,5105.91172 5404.84379,5113.1686 5401.14415,5119.71413 C5397.4445,5126.25966 5391.89512,5130.24383 5384.49583,5131.66677 L5384.49583,5161.54837 C5395.87935,5160.41002 5405.19947,5157.63533 5412.45647,5153.22421 C5419.71346,5148.8131 5425.47628,5143.12142 5429.74511,5136.14901 C5434.01393,5129.1766 5436.93091,5120.92367 5438.49615,5111.38997 C5440.06138,5101.85627 5440.84399,5091.82469 5440.84399,5081.29493 L5440.84399,5025.80053 Z M5553.19249,5004.02965 L5494.28305,5004.02965 L5494.28305,5005.31029 C5494.28305,5034.62286 5501.53994,5057.24728 5516.05393,5073.18421 C5530.56793,5089.12114 5552.48088,5097.08949 5581.79345,5097.08949 C5602.85297,5097.08949 5619.85686,5094.38594 5632.80561,5088.97877 C5645.75437,5083.5716 5655.92824,5076.457 5663.32753,5067.63477 C5670.72682,5058.81254 5675.70704,5048.9944 5678.26833,5038.18005 C5680.82963,5027.3657 5682.11025,5016.8361 5682.11025,5006.59093 C5682.11025,4987.52353 5678.05493,4971.65798 5669.94417,4958.99381 C5661.83341,4946.32964 5647.95995,4938.43244 5628.32337,4935.30197 L5628.32337,4934.44821 C5642.83737,4931.31774 5654.14957,4923.98971 5662.26033,4912.46389 C5670.37109,4900.93807 5674.42641,4886.06857 5674.42641,4867.85493 C5674.42641,4841.10365 5666.8138,4821.46737 5651.58833,4808.94549 C5636.36287,4796.42361 5614.94794,4790.16277 5587.34289,4790.16277 C5558.31491,4790.16277 5536.25966,4797.4908 5521.17649,4812.14709 C5506.09333,4826.80338 5498.55185,4849.21435 5498.55185,4879.38069 L5554.90001,4879.38069 C5554.90001,4872.26599 5555.25574,4865.72056 5555.96721,4859.74421 C5556.67868,4853.76786 5558.17275,4848.57421 5560.44945,4844.16309 C5562.72616,4839.75198 5565.92773,4836.33697 5570.05425,4833.91797 C5574.18078,4831.49897 5579.51673,4830.28949 5586.06225,4830.28949 C5596.02284,4830.28949 5603.42202,4833.27762 5608.26001,4839.25397 C5613.09801,4845.23032 5615.51697,4855.47534 5615.51697,4869.98933 C5615.51697,4876.25027 5614.87666,4882.22653 5613.59601,4887.91829 C5612.31537,4893.61005 5610.32328,4898.66142 5607.61969,4903.07253 C5604.91611,4907.48365 5601.35881,4911.04094 5596.94769,4913.74453 C5592.53658,4916.44812 5587.05834,4917.79989 5580.51281,4917.79989 L5560.44945,4917.79989 L5560.44945,4957.92661 L5580.93969,4957.92661 C5589.47734,4957.92661 5596.30735,4959.34953 5601.42993,4962.19541 C5606.55252,4965.04129 5610.53669,4968.88317 5613.38257,4973.72117 C5616.22845,4978.55917 5618.1494,4984.03741 5619.14545,4990.15605 C5620.14151,4996.27469 5620.63953,5002.74898 5620.63953,5009.57909 C5620.63953,5016.12462 5620.2838,5022.38546 5619.57233,5028.36181 C5618.86086,5034.33816 5617.29565,5039.53182 5614.87665,5043.94293 C5612.45766,5048.35405 5609.04265,5051.8402 5604.63153,5054.40149 C5600.22042,5056.96278 5594.3153,5058.24341 5586.91601,5058.24341 C5573.54037,5058.24341 5564.64713,5053.61892 5560.23601,5044.36981 C5555.8249,5035.1207 5553.47708,5021.67411 5553.19249,5004.02965 L5553.19249,5004.02965 Z M5945.57428,4782.90581 L5772.261,5104.34645 L5810.25332,5104.34645 L5983.5666,4782.90581 L5945.57428,4782.90581 Z M5769.27284,4869.98933 C5769.27284,4854.62157 5770.26889,4842.88249 5772.261,4834.77173 C5774.25312,4826.66097 5779.51792,4822.60565 5788.05556,4822.60565 C5796.5932,4822.60565 5801.85801,4826.66097 5803.85012,4834.77173 C5805.84224,4842.88249 5806.83828,4854.62157 5806.83828,4869.98933 C5806.83828,4887.06462 5805.84224,4899.79974 5803.85012,4908.19509 C5801.85801,4916.59044 5796.5932,4920.78805 5788.05556,4920.78805 C5779.51792,4920.78805 5774.25312,4916.59044 5772.261,4908.19509 C5770.26889,4899.79974 5769.27284,4887.06462 5769.27284,4869.98933 L5769.27284,4869.98933 Z M5724.02356,4871.69685 C5724.02356,4885.35708 5724.87731,4897.3096 5726.58484,4907.55477 C5728.29237,4917.79994 5731.49394,4926.33746 5736.18964,4933.16757 C5740.88535,4939.99768 5747.43077,4945.04905 5755.82612,4948.32181 C5764.22147,4951.59457 5774.96451,4953.23093 5788.05556,4953.23093 C5801.4312,4953.23093 5812.24539,4951.59457 5820.49844,4948.32181 C5828.7515,4945.04905 5835.22578,4939.99768 5839.92148,4933.16757 C5844.61719,4926.33746 5847.81875,4917.79994 5849.52628,4907.55477 C5851.23381,4897.3096 5852.08756,4885.35708 5852.08756,4871.69685 C5852.08756,4858.03662 5851.23381,4846.0841 5849.52628,4835.83893 C5847.81875,4825.59376 5844.61719,4817.05624 5839.92148,4810.22613 C5835.22578,4803.39602 5828.7515,4798.34465 5820.49844,4795.07189 C5812.24539,4791.79913 5801.4312,4790.16277 5788.05556,4790.16277 C5774.96451,4790.16277 5764.22147,4791.79913 5755.82612,4795.07189 C5747.43077,4798.34465 5740.88535,4803.39602 5736.18964,4810.22613 C5731.49394,4817.05624 5728.29237,4825.59376 5726.58484,4835.83893 C5724.87731,4846.0841 5724.02356,4858.03662 5724.02356,4871.69685 L5724.02356,4871.69685 Z M5905.02068,5016.83605 C5905.02068,5030.78087 5905.87443,5042.80453 5907.58196,5052.90741 C5909.28949,5063.01029 5912.49106,5071.40551 5917.18676,5078.09333 C5921.88247,5084.78115 5928.42789,5089.61908 5936.82324,5092.60725 C5945.21859,5095.59543 5955.96163,5097.08949 5969.05268,5097.08949 C5982.42832,5097.08949 5993.24251,5095.59543 6001.49556,5092.60725 C6009.74862,5089.61908 6016.2229,5084.78115 6020.9186,5078.09333 C6025.61431,5071.40551 6028.81587,5063.01029 6030.5234,5052.90741 C6032.23093,5042.80453 6033.08468,5030.78087 6033.08468,5016.83605 C6033.08468,5003.17582 6032.23093,4991.2233 6030.5234,4980.97813 C6028.81587,4970.73296 6025.61431,4962.19544 6020.9186,4955.36533 C6016.2229,4948.53522 6009.74862,4943.48385 6001.49556,4940.21109 C5993.24251,4936.93833 5982.42832,4935.30197 5969.05268,4935.30197 C5955.96163,4935.30197 5945.21859,4936.93833 5936.82324,4940.21109 C5928.42789,4943.48385 5921.88247,4948.53522 5917.18676,4955.36533 C5912.49106,4962.19544 5909.28949,4970.73296 5907.58196,4980.97813 C5905.87443,4991.2233 5905.02068,5003.17582 5905.02068,5016.83605 L5905.02068,5016.83605 Z M5950.26996,5015.12853 C5950.26996,4999.76077 5951.26601,4988.02169 5953.25812,4979.91093 C5955.25024,4971.80017 5960.51504,4967.74485 5969.05268,4967.74485 C5977.59032,4967.74485 5982.85513,4971.80017 5984.84724,4979.91093 C5986.83936,4988.02169 5987.8354,4999.76077 5987.8354,5015.12853 C5987.8354,5032.20382 5986.83936,5044.93894 5984.84724,5053.33429 C5982.85513,5061.72964 5977.59032,5065.92725 5969.05268,5065.92725 C5960.51504,5065.92725 5955.25024,5061.72964 5953.25812,5053.33429 C5951.26601,5044.93894 5950.26996,5032.20382 5950.26996,5015.12853 L5950.26996,5015.12853 Z" id="RANGE" fill="#FFFFFF" sketch:type="MSShapeGroup"></path>
        <path d="M5416.06813,3227.256 L5279.17213,3227.256 L5279.17213,3230.232 C5279.17213,3298.34967 5296.03596,3350.92515 5329.76413,3387.96 C5363.4923,3424.99485 5414.41445,3443.512 5482.53213,3443.512 C5531.47104,3443.512 5570.98531,3437.2294 5601.07613,3424.664 C5631.16694,3412.0986 5654.80938,3395.56544 5672.00413,3375.064 C5689.19888,3354.56256 5700.7721,3331.74679 5706.72413,3306.616 C5712.67616,3281.48521 5715.65213,3257.01612 5715.65213,3233.208 C5715.65213,3188.89845 5706.22822,3152.02948 5687.38013,3122.6 C5668.53203,3093.17052 5636.29236,3074.8187 5590.66013,3067.544 L5590.66013,3065.56 C5624.3883,3058.2853 5650.67603,3041.25613 5669.52413,3014.472 C5688.37222,2987.68787 5697.79613,2953.13354 5697.79613,2910.808 C5697.79613,2848.64236 5680.10564,2803.01081 5644.72413,2773.912 C5609.34262,2744.81319 5559.57778,2730.264 5495.42813,2730.264 C5427.97179,2730.264 5376.71897,2747.29316 5341.66813,2781.352 C5306.61729,2815.41084 5289.09213,2867.49032 5289.09213,2937.592 L5420.03613,2937.592 C5420.03613,2921.05858 5420.86279,2905.84807 5422.51613,2891.96 C5424.16947,2878.07193 5427.64143,2866.00272 5432.93213,2855.752 C5438.22282,2845.50128 5445.66275,2837.56536 5455.25213,2831.944 C5464.84151,2826.32264 5477.24138,2823.512 5492.45213,2823.512 C5515.59891,2823.512 5532.7934,2830.45593 5544.03613,2844.344 C5555.27885,2858.23207 5560.90013,2882.03983 5560.90013,2915.768 C5560.90013,2930.31741 5559.41214,2944.20527 5556.43613,2957.432 C5553.46011,2970.65873 5548.83083,2982.39728 5542.54813,2992.648 C5536.26543,3002.89872 5527.99885,3011.1653 5517.74813,3017.448 C5507.49741,3023.7307 5494.76687,3026.872 5479.55613,3026.872 L5432.93213,3026.872 L5432.93213,3120.12 L5480.54813,3120.12 C5500.38823,3120.12 5516.26007,3123.42663 5528.16413,3130.04 C5540.06819,3136.65337 5549.32676,3145.58128 5555.94013,3156.824 C5562.55349,3168.06672 5567.01745,3180.79726 5569.33213,3195.016 C5571.64681,3209.23474 5572.80413,3224.27992 5572.80413,3240.152 C5572.80413,3255.36274 5571.97747,3269.91193 5570.32413,3283.8 C5568.67079,3297.68807 5565.03349,3309.75728 5559.41213,3320.008 C5553.79077,3330.25872 5545.85485,3338.35997 5535.60413,3344.312 C5525.35341,3350.26403 5511.63088,3353.24 5494.43613,3353.24 C5463.35331,3353.24 5442.68685,3342.49344 5432.43613,3321 C5422.18541,3299.50656 5416.72946,3268.25887 5416.06813,3227.256 L5416.06813,3227.256 Z" id="3" fill="#00ACEC" sketch:type="MSShapeGroup"></path>
        <path d="M2941.172,4554.834 L2906.324,4554.834 L2906.324,4561.852 C2906.324,4577.82408 2910.55896,4590.08529 2919.029,4598.636 C2927.49904,4607.18671 2941.57523,4611.462 2961.258,4611.462 C2980.13409,4611.462 2994.85561,4607.30771 3005.423,4598.999 C3015.99039,4590.69029 3021.274,4577.42076 3021.274,4559.19 C3021.274,4553.86597 3020.79,4549.02602 3019.822,4544.67 C3018.854,4540.31398 3017.11968,4536.32102 3014.619,4532.691 C3012.11832,4529.06098 3008.77069,4525.67302 3004.576,4522.527 C3000.38131,4519.38098 2994.9767,4516.35601 2988.362,4513.452 L2961.5,4501.836 C2954.07863,4498.77065 2949.23868,4495.42302 2946.98,4491.793 C2944.72132,4488.16298 2943.592,4483.68603 2943.592,4478.362 C2943.592,4475.78065 2943.87433,4473.28001 2944.439,4470.86 C2945.00367,4468.43999 2946.05233,4466.30234 2947.585,4464.447 C2949.11767,4462.59166 2951.17465,4461.09934 2953.756,4459.97 C2956.33735,4458.84066 2959.56398,4458.276 2963.436,4458.276 C2970.21203,4458.276 2975.05199,4460.49431 2977.956,4464.931 C2980.86001,4469.36769 2982.312,4475.69996 2982.312,4483.928 L3015.708,4483.928 L3015.708,4479.088 C3015.708,4470.85996 3014.37701,4463.8017 3011.715,4457.913 C3009.05299,4452.0243 3005.34236,4447.18435 3000.583,4443.393 C2995.82364,4439.60165 2990.17703,4436.85901 2983.643,4435.165 C2977.10897,4433.47099 2969.97004,4432.624 2962.226,4432.624 C2945.60858,4432.624 2932.54071,4436.81862 2923.022,4445.208 C2913.50329,4453.59738 2908.744,4466.34258 2908.744,4483.444 C2908.744,4490.5427 2909.63132,4496.79431 2911.406,4502.199 C2913.18068,4507.60369 2915.96365,4512.36298 2919.755,4516.477 C2923.54635,4520.59102 2928.26531,4524.18065 2933.912,4527.246 C2939.55869,4530.31135 2946.25396,4533.13465 2953.998,4535.716 C2959.80603,4537.65201 2964.68631,4539.54766 2968.639,4541.403 C2972.59169,4543.25834 2975.77799,4545.31532 2978.198,4547.574 C2980.61801,4549.83268 2982.35233,4552.37365 2983.401,4555.197 C2984.44967,4558.02035 2984.974,4561.36798 2984.974,4565.24 C2984.974,4572.50004 2982.83635,4577.86432 2978.561,4581.333 C2974.28565,4584.80168 2969.48603,4586.536 2964.162,4586.536 C2959.64464,4586.536 2955.89368,4585.89067 2952.909,4584.6 C2949.92432,4583.30933 2947.54468,4581.53468 2945.77,4579.276 C2943.99532,4577.01732 2942.78534,4574.23435 2942.14,4570.927 C2941.49466,4567.61965 2941.172,4563.94935 2941.172,4559.916 L2941.172,4554.834 Z M3193.706,4514.178 L3193.706,4461.664 L3208.226,4461.664 C3216.93805,4461.664 3223.14932,4463.92264 3226.86,4468.44 C3230.57069,4472.95736 3232.426,4479.57196 3232.426,4488.284 C3232.426,4497.15738 3230.28836,4503.69131 3226.013,4507.886 C3221.73765,4512.08069 3216.13137,4514.178 3209.194,4514.178 L3193.706,4514.178 Z M3158.858,4436.012 L3158.858,4608.8 L3193.706,4608.8 L3193.706,4539.83 L3212.34,4539.83 C3220.56804,4539.83 3228.06997,4538.78134 3234.846,4536.684 C3241.62204,4534.58666 3247.38965,4531.44069 3252.149,4527.246 C3256.90836,4523.05131 3260.61899,4517.6467 3263.281,4511.032 C3265.94302,4504.4173 3267.274,4496.67338 3267.274,4487.8 C3267.274,4481.34663 3266.46735,4475.01436 3264.854,4468.803 C3263.24066,4462.59164 3260.57869,4457.06602 3256.868,4452.226 C3253.15732,4447.38598 3248.27703,4443.47368 3242.227,4440.489 C3236.17697,4437.50432 3228.71538,4436.012 3219.842,4436.012 L3158.858,4436.012 Z M3435.83401,4522.406 C3435.83401,4510.78994 3436.11634,4500.94871 3436.68101,4492.882 C3437.24568,4484.81529 3438.375,4478.20069 3440.06901,4473.038 C3441.76302,4467.87531 3444.18299,4464.12435 3447.32901,4461.785 C3450.47502,4459.44565 3454.62931,4458.276 3459.79201,4458.276 C3464.9547,4458.276 3469.10899,4459.44565 3472.25501,4461.785 C3475.40102,4464.12435 3477.821,4467.87531 3479.51501,4473.038 C3481.20902,4478.20069 3482.33834,4484.81529 3482.90301,4492.882 C3483.46768,4500.94871 3483.75001,4510.78994 3483.75001,4522.406 C3483.75001,4534.02206 3483.46768,4543.90363 3482.90301,4552.051 C3482.33834,4560.19837 3481.20902,4566.81297 3479.51501,4571.895 C3477.821,4576.97703 3475.40102,4580.68765 3472.25501,4583.027 C3469.10899,4585.36635 3464.9547,4586.536 3459.79201,4586.536 C3454.62931,4586.536 3450.47502,4585.36635 3447.32901,4583.027 C3444.18299,4580.68765 3441.76302,4576.97703 3440.06901,4571.895 C3438.375,4566.81297 3437.24568,4560.19837 3436.68101,4552.051 C3436.11634,4543.90363 3435.83401,4534.02206 3435.83401,4522.406 L3435.83401,4522.406 Z M3400.98601,4522.406 C3400.98601,4535.6354 3401.591,4547.73528 3402.80101,4558.706 C3404.01101,4569.67672 3406.67299,4579.11463 3410.78701,4587.02 C3414.90103,4594.92537 3420.82997,4600.97531 3428.57401,4605.17 C3436.31805,4609.36469 3446.72394,4611.462 3459.79201,4611.462 C3472.86007,4611.462 3483.26597,4609.36469 3491.01001,4605.17 C3498.75405,4600.97531 3504.68299,4594.92537 3508.79701,4587.02 C3512.91103,4579.11463 3515.573,4569.67672 3516.78301,4558.706 C3517.99301,4547.73528 3518.59801,4535.6354 3518.59801,4522.406 C3518.59801,4509.33793 3517.99301,4497.27839 3516.78301,4486.227 C3515.573,4475.17561 3512.91103,4465.69737 3508.79701,4457.792 C3504.68299,4449.88663 3498.75405,4443.71569 3491.01001,4439.279 C3483.26597,4434.84231 3472.86007,4432.624 3459.79201,4432.624 C3446.72394,4432.624 3436.31805,4434.84231 3428.57401,4439.279 C3420.82997,4443.71569 3414.90103,4449.88663 3410.78701,4457.792 C3406.67299,4465.69737 3404.01101,4475.17561 3402.80101,4486.227 C3401.591,4497.27839 3400.98601,4509.33793 3400.98601,4522.406 L3400.98601,4522.406 Z M3659.32801,4436.012 L3659.32801,4608.8 L3694.17601,4608.8 L3694.17601,4535.716 L3712.81001,4535.716 C3720.07005,4535.716 3725.23266,4537.65198 3728.29801,4541.524 C3731.36336,4545.39602 3733.05734,4550.71997 3733.38001,4557.496 L3734.34801,4590.65 C3734.50935,4594.03802 3734.83201,4597.30498 3735.31601,4600.451 C3735.80001,4603.59702 3736.92934,4606.37999 3738.70401,4608.8 L3776.45601,4608.8 L3776.45601,4607.348 C3773.22933,4605.57332 3771.13202,4602.26602 3770.16401,4597.426 C3769.51867,4592.58598 3769.03468,4585.56805 3768.71201,4576.372 C3768.55068,4571.69331 3768.38935,4567.45835 3768.22801,4563.667 C3768.06668,4559.87565 3767.82468,4556.36668 3767.50201,4553.14 C3766.53401,4543.45995 3764.03336,4536.44202 3760.00001,4532.086 C3755.96666,4527.72998 3749.59405,4524.90667 3740.88201,4523.616 L3740.88201,4523.132 C3750.72339,4521.03466 3757.98332,4516.3157 3762.66201,4508.975 C3767.3407,4501.6343 3769.68001,4492.15606 3769.68001,4480.54 C3769.68001,4465.53592 3765.64672,4454.3637 3757.58001,4447.023 C3749.5133,4439.6823 3738.22008,4436.012 3723.70001,4436.012 L3659.32801,4436.012 Z M3694.17601,4511.516 L3694.17601,4461.664 L3710.63201,4461.664 C3726.76542,4461.664 3734.83201,4469.64992 3734.83201,4485.622 C3734.83201,4494.97938 3732.57337,4501.63431 3728.05601,4505.587 C3723.53866,4509.53969 3717.08539,4511.516 3708.69601,4511.516 L3694.17601,4511.516 Z M4015.19601,4436.012 L3904.84401,4436.012 L3904.84401,4464.568 L3942.59601,4464.568 L3942.59601,4608.8 L3977.44401,4608.8 L3977.44401,4464.568 L4015.19601,4464.568 L4015.19601,4436.012 Z" id="SPORT" fill="#FFFFFF" sketch:type="MSShapeGroup"></path>
        <path d="M5016.658,4428.212 L4920.1,4428.212 L4920.1,4601 L5019.078,4601 L5019.078,4572.444 L4954.948,4572.444 L4954.948,4525.98 L5013.028,4525.98 L5013.028,4497.424 L4954.948,4497.424 L4954.948,4456.768 L5016.658,4456.768 L5016.658,4428.212 Z M5139.956,4428.212 L5102.688,4428.212 L5142.376,4601 L5187.146,4601 L5226.834,4428.212 L5190.776,4428.212 L5165.124,4555.988 L5164.398,4555.988 L5139.956,4428.212 Z M5348.438,4514.606 C5348.438,4502.98994 5348.72033,4493.14871 5349.285,4485.082 C5349.84966,4477.01529 5350.97899,4470.40069 5352.673,4465.238 C5354.367,4460.07531 5356.78698,4456.32435 5359.933,4453.985 C5363.07901,4451.64565 5367.2333,4450.476 5372.396,4450.476 C5377.55869,4450.476 5381.71298,4451.64565 5384.859,4453.985 C5388.00501,4456.32435 5390.42499,4460.07531 5392.119,4465.238 C5393.813,4470.40069 5394.94233,4477.01529 5395.507,4485.082 C5396.07166,4493.14871 5396.354,4502.98994 5396.354,4514.606 C5396.354,4526.22206 5396.07166,4536.10363 5395.507,4544.251 C5394.94233,4552.39837 5393.813,4559.01297 5392.119,4564.095 C5390.42499,4569.17703 5388.00501,4572.88765 5384.859,4575.227 C5381.71298,4577.56635 5377.55869,4578.736 5372.396,4578.736 C5367.2333,4578.736 5363.07901,4577.56635 5359.933,4575.227 C5356.78698,4572.88765 5354.367,4569.17703 5352.673,4564.095 C5350.97899,4559.01297 5349.84966,4552.39837 5349.285,4544.251 C5348.72033,4536.10363 5348.438,4526.22206 5348.438,4514.606 L5348.438,4514.606 Z M5313.59,4514.606 C5313.59,4527.8354 5314.19499,4539.93528 5315.405,4550.906 C5316.615,4561.87672 5319.27697,4571.31463 5323.391,4579.22 C5327.50502,4587.12537 5333.43396,4593.17531 5341.178,4597.37 C5348.92203,4601.56469 5359.32793,4603.662 5372.396,4603.662 C5385.46406,4603.662 5395.86996,4601.56469 5403.614,4597.37 C5411.35803,4593.17531 5417.28697,4587.12537 5421.401,4579.22 C5425.51502,4571.31463 5428.17699,4561.87672 5429.387,4550.906 C5430.597,4539.93528 5431.202,4527.8354 5431.202,4514.606 C5431.202,4501.53793 5430.597,4489.47839 5429.387,4478.427 C5428.17699,4467.37561 5425.51502,4457.89737 5421.401,4449.992 C5417.28697,4442.08663 5411.35803,4435.91569 5403.614,4431.479 C5395.86996,4427.04231 5385.46406,4424.824 5372.396,4424.824 C5359.32793,4424.824 5348.92203,4427.04231 5341.178,4431.479 C5333.43396,4435.91569 5327.50502,4442.08663 5323.391,4449.992 C5319.27697,4457.89737 5316.615,4467.37561 5315.405,4478.427 C5314.19499,4489.47839 5313.59,4501.53793 5313.59,4514.606 L5313.59,4514.606 Z M5560.54999,4514.606 C5560.54999,4502.98994 5560.83232,4493.14871 5561.39699,4485.082 C5561.96166,4477.01529 5563.09098,4470.40069 5564.78499,4465.238 C5566.479,4460.07531 5568.89898,4456.32435 5572.04499,4453.985 C5575.19101,4451.64565 5579.3453,4450.476 5584.50799,4450.476 C5589.67069,4450.476 5593.82498,4451.64565 5596.97099,4453.985 C5600.11701,4456.32435 5602.53698,4460.07531 5604.23099,4465.238 C5605.925,4470.40069 5607.05432,4477.01529 5607.61899,4485.082 C5608.18366,4493.14871 5608.46599,4502.98994 5608.46599,4514.606 C5608.46599,4526.22206 5608.18366,4536.10363 5607.61899,4544.251 C5607.05432,4552.39837 5605.925,4559.01297 5604.23099,4564.095 C5602.53698,4569.17703 5600.11701,4572.88765 5596.97099,4575.227 C5593.82498,4577.56635 5589.67069,4578.736 5584.50799,4578.736 C5579.3453,4578.736 5575.19101,4577.56635 5572.04499,4575.227 C5568.89898,4572.88765 5566.479,4569.17703 5564.78499,4564.095 C5563.09098,4559.01297 5561.96166,4552.39837 5561.39699,4544.251 C5560.83232,4536.10363 5560.54999,4526.22206 5560.54999,4514.606 L5560.54999,4514.606 Z M5628.06799,4621.57 L5648.63799,4602.936 L5630.00399,4584.786 C5635.65069,4576.55796 5639.28065,4566.47473 5640.89399,4554.536 C5642.50733,4542.59727 5643.31399,4529.28741 5643.31399,4514.606 C5643.31399,4501.53793 5642.709,4489.47839 5641.49899,4478.427 C5640.28899,4467.37561 5637.62701,4457.89737 5633.51299,4449.992 C5629.39897,4442.08663 5623.47003,4435.91569 5615.72599,4431.479 C5607.98195,4427.04231 5597.57606,4424.824 5584.50799,4424.824 C5571.43993,4424.824 5561.03403,4427.04231 5553.28999,4431.479 C5545.54595,4435.91569 5539.61701,4442.08663 5535.50299,4449.992 C5531.38897,4457.89737 5528.727,4467.37561 5527.51699,4478.427 C5526.30699,4489.47839 5525.70199,4501.53793 5525.70199,4514.606 C5525.70199,4527.8354 5526.30699,4539.93528 5527.51699,4550.906 C5528.727,4561.87672 5531.38897,4571.31463 5535.50299,4579.22 C5539.61701,4587.12537 5545.54595,4593.17531 5553.28999,4597.37 C5561.03403,4601.56469 5571.43993,4603.662 5584.50799,4603.662 C5593.38137,4603.662 5601.04463,4602.77468 5607.49799,4601 L5628.06799,4621.57 Z M5774.11399,4428.212 L5739.26599,4428.212 L5739.26599,4548.728 C5739.26599,4560.34406 5740.79864,4569.78196 5743.86399,4577.042 C5746.92934,4584.30204 5751.0433,4589.90831 5756.20599,4593.861 C5761.36868,4597.81369 5767.25729,4600.43533 5773.87199,4601.726 C5780.48669,4603.01667 5787.34329,4603.662 5794.44199,4603.662 C5801.54069,4603.662 5808.39729,4602.93601 5815.01199,4601.484 C5821.62669,4600.03199 5827.5153,4597.20869 5832.67799,4593.014 C5837.84068,4588.81931 5841.95464,4583.13237 5845.01999,4575.953 C5848.08534,4568.77363 5849.61799,4559.69872 5849.61799,4548.728 L5849.61799,4428.212 L5814.76999,4428.212 L5814.76999,4548.728 C5814.76999,4553.08402 5814.48766,4557.07698 5813.92299,4560.707 C5813.35832,4564.33702 5812.30966,4567.48299 5810.77699,4570.145 C5809.24432,4572.80701 5807.18734,4574.90433 5804.60599,4576.437 C5802.02464,4577.96967 5798.63668,4578.736 5794.44199,4578.736 C5790.40864,4578.736 5787.061,4577.96967 5784.39899,4576.437 C5781.73698,4574.90433 5779.63966,4572.80701 5778.10699,4570.145 C5776.57432,4567.48299 5775.52566,4564.33702 5774.96099,4560.707 C5774.39632,4557.07698 5774.11399,4553.08402 5774.11399,4548.728 L5774.11399,4428.212 Z M6045.75799,4428.212 L5949.19999,4428.212 L5949.19999,4601 L6048.17799,4601 L6048.17799,4572.444 L5984.04799,4572.444 L5984.04799,4525.98 L6042.12799,4525.98 L6042.12799,4497.424 L5984.04799,4497.424 L5984.04799,4456.768 L6045.75799,4456.768 L6045.75799,4428.212 Z" id="EVOQUE" fill="#FFFFFF" sketch:type="MSShapeGroup"></path>
    </g>
</svg>