<?xml version="1.0" standalone="no"?>
<!DOCTYPE svg PUBLIC "-//W3C//DTD SVG 20010904//EN"
 "http://www.w3.org/TR/2001/REC-SVG-20010904/DTD/svg10.dtd">
<svg version="1.0" xmlns="http://www.w3.org/2000/svg"
 width="600.000000pt" height="442.000000pt" viewBox="0 0 600.000000 442.000000"
 preserveAspectRatio="xMidYMid meet">
<metadata>
Created by potrace 1.11, written by Peter Selinger 2001-2013
</metadata>
<g transform="translate(0.000000,442.000000) scale(0.100000,-0.100000)"
fill="#000000" stroke="none">
<path d="M2050 4300 c-176 -21 -282 -41 -333 -64 -18 -8 -60 -19 -95 -26 -105
-19 -211 -58 -332 -122 -264 -139 -375 -217 -556 -394 -186 -183 -233 -245
-416 -554 -61 -104 -169 -360 -192 -455 -9 -38 -21 -99 -26 -135 -6 -36 -14
-87 -19 -115 -14 -72 -12 -184 3 -227 17 -48 77 -126 121 -158 28 -20 35 -32
35 -60 1 -120 45 -265 152 -499 109 -239 196 -453 213 -526 9 -33 22 -127 30
-210 9 -82 19 -165 24 -185 5 -19 15 -91 22 -160 8 -79 19 -139 31 -162 21
-44 133 -122 202 -143 150 -45 471 -40 534 9 8 5 35 9 61 7 56 -3 121 21 121
44 0 25 40 34 80 17 19 -8 68 -16 110 -19 71 -5 77 -4 103 21 21 20 38 26 71
26 24 0 57 5 74 11 26 9 31 16 34 47 3 33 6 37 43 44 21 5 50 19 63 31 20 19
23 28 18 65 -9 68 -85 198 -168 288 -45 49 -47 34 38 208 35 71 67 146 70 167
8 47 1 47 194 15 80 -13 172 -27 205 -31 33 -3 116 -18 185 -32 118 -25 142
-27 412 -27 l288 -1 1 -105 c1 -58 0 -172 -2 -255 -6 -243 -3 -323 15 -350 25
-38 100 -76 221 -111 144 -42 262 -58 391 -52 87 4 108 8 147 31 36 22 58 27
109 27 51 0 69 4 86 20 12 12 22 27 22 34 0 26 70 24 145 -3 66 -25 80 -26
268 -26 l199 0 22 26 c20 23 32 27 104 31 84 5 108 15 123 55 5 13 17 23 28
23 32 0 68 20 82 47 10 19 10 33 1 71 -19 75 -98 226 -153 294 l-51 63 6 70
c16 172 37 516 43 687 l6 187 30 12 c17 7 50 28 74 46 24 18 47 33 52 33 26 0
104 43 152 84 30 25 72 60 93 78 47 39 83 95 107 163 9 27 31 76 48 107 16 32
33 79 36 105 3 27 13 68 22 92 12 33 14 67 10 140 -8 160 -55 328 -133 480
l-43 84 28 41 c30 44 61 149 61 207 0 142 -105 254 -257 275 -45 6 -58 3 -110
-25 -33 -18 -76 -48 -96 -67 l-37 -36 -57 52 c-53 47 -179 120 -210 120 -6 0
-28 10 -48 21 -29 17 -62 24 -158 30 -130 9 -177 5 -217 -18 -24 -13 -31 -11
-120 40 -119 69 -221 111 -475 199 -226 78 -286 95 -400 114 -44 7 -136 29
-205 49 -69 19 -165 42 -215 50 -253 41 -290 47 -296 50 -3 2 -111 9 -240 14
-129 6 -281 13 -339 15 -69 4 -161 -1 -270 -14z m2593 -1300 c14 -11 28 -35
31 -56 9 -45 1 -55 -20 -25 -21 29 -64 25 -80 -7 l-11 -23 -7 23 c-10 38 -7
54 15 82 25 31 38 32 72 6z m514 -32 c17 -16 23 -32 23 -62 -1 -34 -3 -38 -13
-25 -21 28 -55 41 -76 29 -31 -16 -32 -13 -16 27 24 58 45 66 82 31z m-187
-252 c113 -31 182 -64 257 -120 118 -90 200 -197 239 -316 26 -79 24 -208 -4
-285 -24 -66 -48 -91 -152 -159 -99 -65 -118 -73 -215 -95 -177 -40 -335 -37
-463 9 -31 12 -76 25 -99 30 -23 5 -59 20 -80 33 -21 13 -59 34 -85 46 -62 30
-120 96 -148 170 -20 54 -21 66 -11 133 6 40 23 96 37 123 46 89 138 218 199
280 77 76 126 110 201 136 127 45 205 48 324 15z m-524 -1706 c-4 -41 -18
-133 -31 -205 -14 -71 -28 -151 -33 -176 l-7 -46 -74 48 c-40 27 -78 50 -83
51 -6 2 -1 47 10 108 11 58 26 148 33 201 l12 96 89 -1 90 0 -6 -76z m751
-645 c9 -25 -2 -27 -22 -5 -17 18 -17 20 -1 20 9 0 19 -7 23 -15z m-3157 -71
c0 -8 -4 -12 -10 -9 -5 3 -10 13 -10 21 0 8 5 12 10 9 6 -3 10 -13 10 -21z
m2950 -17 c0 -6 -9 -2 -20 8 -11 10 -20 23 -20 28 0 6 9 2 20 -8 11 -10 20
-23 20 -28z m-640 -5 c0 -13 -3 -12 -20 3 -11 10 -17 22 -14 27 8 12 34 -11
34 -30z m-170 -28 c0 -14 -3 -14 -15 -4 -8 7 -15 14 -15 16 0 2 7 4 15 4 8 0
15 -7 15 -16z m-2642 -23 c3 -8 -1 -12 -9 -9 -7 2 -15 10 -17 17 -3 8 1 12 9
9 7 -2 15 -10 17 -17z m-188 -15 c0 -2 3 -12 7 -21 5 -15 3 -16 -15 -6 -25 13
-29 31 -7 31 8 0 15 -2 15 -4z"/>
<path d="M4750 2662 c-14 -11 -24 -31 -25 -51 -2 -27 8 -41 69 -99 l71 -66 -2
-216 c-2 -207 -2 -215 -23 -232 -35 -28 -102 -24 -140 9 -17 14 -36 37 -41 50
-5 12 -15 23 -24 23 -19 0 -19 -4 1 -46 34 -71 144 -105 209 -65 30 18 31 18
65 -5 50 -35 137 -34 178 1 32 27 57 81 42 90 -5 3 -16 -9 -23 -28 -17 -41
-73 -71 -114 -61 -49 10 -81 25 -87 40 -3 8 -9 116 -12 239 -6 197 -5 225 8
225 22 0 118 99 118 121 0 66 -209 121 -270 71z"/>
</g>
</svg>
