<?xml version="1.0" encoding="utf-8"?>
<!-- Generator: Adobe Illustrator 12.0.0, SVG Export Plug-In . SVG Version: 6.00 Build 51448)  -->
<!DOCTYPE svg PUBLIC "-//W3C//DTD SVG 1.1//EN" "http://www.w3.org/Graphics/SVG/1.1/DTD/svg11.dtd" [
	<!ENTITY ns_svg "http://www.w3.org/2000/svg">
	<!ENTITY ns_xlink "http://www.w3.org/1999/xlink">
]>
<svg  version="1.1" id="Layer_1" xmlns="&ns_svg;" xmlns:xlink="&ns_xlink;" width="460" height="400" viewBox="0 0 460 400"
	 overflow="visible" enable-background="new 0 0 460 400" xml:space="preserve">
<rect fill="#F5F5F2" width="460" height="400"/>
<rect x="35.6" y="68.7" fill="#FFFFFF" width="414.4" height="253.4"/>
<g>
	
		<line fill="none" stroke="#CFCCCB" stroke-linecap="round" stroke-linejoin="round" stroke-dasharray="0 2" x1="110.7" y1="322" x2="110.7" y2="68.7"/>
	
		<line fill="none" stroke="#CFCCCB" stroke-linecap="round" stroke-linejoin="round" stroke-dasharray="0 2" x1="185.8" y1="322" x2="185.8" y2="68.7"/>
	
		<line fill="none" stroke="#CFCCCB" stroke-linecap="round" stroke-linejoin="round" stroke-dasharray="0 2" x1="260.9" y1="322" x2="260.9" y2="68.7"/>
	
		<line fill="none" stroke="#CFCCCB" stroke-linecap="round" stroke-linejoin="round" stroke-dasharray="0 2" x1="336.1" y1="322" x2="336.1" y2="68.7"/>
	
		<line fill="none" stroke="#CFCCCB" stroke-linecap="round" stroke-linejoin="round" stroke-dasharray="0 2" x1="411.2" y1="322" x2="411.2" y2="68.7"/>
</g>
<g>
	<line fill="none" stroke="#CFCCCB" stroke-width="0.5" x1="450" y1="279.8" x2="35.6" y2="279.8"/>
	<line fill="none" stroke="#CFCCCB" stroke-width="0.5" x1="450" y1="237.6" x2="35.6" y2="237.6"/>
	<line fill="none" stroke="#CFCCCB" stroke-width="0.5" x1="450" y1="195.3" x2="35.6" y2="195.3"/>
	<line fill="none" stroke="#CFCCCB" stroke-width="0.5" x1="450" y1="153.1" x2="35.6" y2="153.1"/>
	<line fill="none" stroke="#CFCCCB" stroke-width="0.5" x1="450" y1="110.9" x2="35.6" y2="110.9"/>
</g>
<polyline fill="none" stroke="#00A0C6" stroke-width="2" points="417.1,143.7 403.5,147.9 394.7,141.5 387,139.2 375.3,139.2 
	363.5,147.9 352.2,153 336,154.3 318.8,169.4 294.6,180.6 289.8,181.6 268.9,191.2 259.8,189.6 244.4,194.1 232.3,199.5 218.7,204 
	207.7,213 200,218.1 193.4,215.2 186.8,216.5 177.3,214.6 166.3,218.8 156.4,224.9 148.3,229 132.5,225.8 118.6,233.8 110.9,236.4 
	102.5,234.8 91.1,239.3 81.9,240.9 69.1,247.3 55.2,254.3 44.5,256.6 35.7,258.2 "/>
<polyline fill="none" stroke="#9E0047" stroke-width="2" points="417.4,109.1 410.8,112.3 402.8,134.1 388.1,107.8 373.1,128.3 
	367.9,140.2 361.7,160.7 357.7,176.4 349.2,179 342.3,186.7 335.3,181.9 331.6,191.5 327.2,204.7 320.3,209.1 313.7,203 306,214.3 
	295.7,218.1 286.2,226.8 281.8,230.3 273,238 259.8,243.8 243.6,254.7 231.5,260.4 222.4,258.8 216.5,255 201.5,263.6 184.2,271.3 
	168.5,280.3 164.8,282.6 149.8,286.1 138,288.3 121.2,295.1 93.7,304.7 70.9,309.5 57.7,308.9 36.8,311.1 "/>
<polyline fill="none" stroke="#FFD441" stroke-width="2" points="417.4,265.9 403.5,271.7 395.4,266.2 387.4,272 374.2,273.9 
	355.8,281.3 338.2,283.5 336.4,279.7 320.6,284.5 315.1,279.7 303.4,281 277.4,290.6 256.1,295.4 243.3,295.7 230.8,298.6 
	215,293.1 207.3,295.7 191.6,297 187.2,295.4 171,300.2 160.4,299.2 147.2,304.7 139.1,303.1 125.6,308.5 120.8,307.3 114.9,308.9 
	97.3,310.5 82.7,310.8 68,310.8 57.4,311.1 36.8,311.1 "/>
<g>
	<g>
		<g>
			<line fill="none" stroke="#FF0000" stroke-width="2" stroke-linecap="round" x1="44.3" y1="262.8" x2="36.8" y2="263.8"/>
			<line fill="none" stroke="#FF0000" stroke-width="2" stroke-linecap="round" x1="51.8" y1="262.6" x2="44.3" y2="262.8"/>
			<line fill="none" stroke="#FF0000" stroke-width="2" stroke-linecap="round" x1="59.3" y1="260.2" x2="51.8" y2="262.6"/>
			<line fill="none" stroke="#FF0000" stroke-width="2" stroke-linecap="round" x1="66.8" y1="257.2" x2="59.3" y2="260.2"/>
			<line fill="none" stroke="#FF0000" stroke-width="2" stroke-linecap="round" x1="74.3" y1="256.3" x2="66.8" y2="257.2"/>
			<line fill="none" stroke="#FF0000" stroke-width="2" stroke-linecap="round" x1="81.7" y1="255.6" x2="74.3" y2="256.3"/>
			<line fill="none" stroke="#FF0000" stroke-width="2" stroke-linecap="round" x1="89.2" y1="254.2" x2="81.7" y2="255.6"/>
			<line fill="none" stroke="#FF0000" stroke-width="2" stroke-linecap="round" x1="96.7" y1="250.9" x2="89.2" y2="254.2"/>
			<line fill="none" stroke="#FF0000" stroke-width="2" stroke-linecap="round" x1="104.2" y1="249.8" x2="96.7" y2="250.9"/>
			<line fill="none" stroke="#FF0000" stroke-width="2" stroke-linecap="round" x1="111.7" y1="248.1" x2="104.2" y2="249.8"/>
			<line fill="none" stroke="#FF0000" stroke-width="2" stroke-linecap="round" x1="119.2" y1="246" x2="111.7" y2="248.1"/>
			<line fill="none" stroke="#FF0000" stroke-width="2" stroke-linecap="round" x1="126.6" y1="243" x2="119.2" y2="246"/>
			<line fill="none" stroke="#FF0000" stroke-width="2" stroke-linecap="round" x1="134.1" y1="238.1" x2="126.6" y2="243"/>
			<line fill="none" stroke="#FF0000" stroke-width="2" stroke-linecap="round" x1="141.6" y1="240.2" x2="134.1" y2="238.1"/>
			<line fill="none" stroke="#FF0000" stroke-width="2" stroke-linecap="round" x1="149.1" y1="241.5" x2="141.6" y2="240.2"/>
			<line fill="none" stroke="#FF0000" stroke-width="2" stroke-linecap="round" x1="156.6" y1="239" x2="149.1" y2="241.5"/>
			<line fill="none" stroke="#FF0000" stroke-width="2" stroke-linecap="round" x1="164.1" y1="236.9" x2="156.6" y2="239"/>
			<line fill="none" stroke="#FF0000" stroke-width="2" stroke-linecap="round" x1="171.5" y1="233.4" x2="164.1" y2="236.9"/>
			<line fill="none" stroke="#FF0000" stroke-width="2" stroke-linecap="round" x1="179" y1="230.3" x2="171.5" y2="233.4"/>
			<line fill="none" stroke="#FF0000" stroke-width="2" stroke-linecap="round" x1="186.5" y1="232.4" x2="179" y2="230.3"/>
			<line fill="none" stroke="#FF0000" stroke-width="2" stroke-linecap="round" x1="194" y1="233.2" x2="186.5" y2="232.4"/>
			<line fill="none" stroke="#FF0000" stroke-width="2" stroke-linecap="round" x1="201.5" y1="231.2" x2="194" y2="233.2"/>
			<line fill="none" stroke="#FF0000" stroke-width="2" stroke-linecap="round" x1="209" y1="227.5" x2="201.5" y2="231.2"/>
			<line fill="none" stroke="#FF0000" stroke-width="2" stroke-linecap="round" x1="216.4" y1="225.6" x2="209" y2="227.5"/>
			<line fill="none" stroke="#FF0000" stroke-width="2" stroke-linecap="round" x1="223.9" y1="222.4" x2="216.4" y2="225.6"/>
			<line fill="none" stroke="#FF0000" stroke-width="2" stroke-linecap="round" x1="231.4" y1="219.5" x2="223.9" y2="222.4"/>
			<line fill="none" stroke="#FF0000" stroke-width="2" stroke-linecap="round" x1="238.9" y1="214.1" x2="231.4" y2="219.5"/>
			<line fill="none" stroke="#FF0000" stroke-width="2" stroke-linecap="round" x1="246.4" y1="208" x2="238.9" y2="214.1"/>
			<line fill="none" stroke="#FF0000" stroke-width="2" stroke-linecap="round" x1="253.9" y1="205.5" x2="246.4" y2="208"/>
			<line fill="none" stroke="#FF0000" stroke-width="2" stroke-linecap="round" x1="261.3" y1="205.2" x2="253.9" y2="205.5"/>
			<line fill="none" stroke="#FF0000" stroke-width="2" stroke-linecap="round" x1="268.8" y1="207" x2="261.3" y2="205.2"/>
			<line fill="none" stroke="#FF0000" stroke-width="2" stroke-linecap="round" x1="276.3" y1="206.8" x2="268.8" y2="207"/>
			<line fill="none" stroke="#FF0000" stroke-width="2" stroke-linecap="round" x1="283.8" y1="204.1" x2="276.3" y2="206.8"/>
			<line fill="none" stroke="#FF0000" stroke-width="2" stroke-linecap="round" x1="291.3" y1="199.7" x2="283.8" y2="204.1"/>
			<line fill="none" stroke="#FF0000" stroke-width="2" stroke-linecap="round" x1="298.8" y1="197" x2="291.3" y2="199.7"/>
			<line fill="none" stroke="#FF0000" stroke-width="2" stroke-linecap="round" x1="306.2" y1="194" x2="298.8" y2="197"/>
			<line fill="none" stroke="#FF0000" stroke-width="2" stroke-linecap="round" x1="313.7" y1="191" x2="306.2" y2="194"/>
			<line fill="none" stroke="#FF0000" stroke-width="2" stroke-linecap="round" x1="321.2" y1="186.9" x2="313.7" y2="191"/>
			<line fill="none" stroke="#FF0000" stroke-width="2" stroke-linecap="round" x1="328.7" y1="183.1" x2="321.2" y2="186.9"/>
			<line fill="none" stroke="#FF0000" stroke-width="2" stroke-linecap="round" x1="336.2" y1="178.4" x2="328.7" y2="183.1"/>
			<line fill="none" stroke="#FF0000" stroke-width="2" stroke-linecap="round" x1="343.7" y1="175.2" x2="336.2" y2="178.4"/>
			<line fill="none" stroke="#FF0000" stroke-width="2" stroke-linecap="round" x1="351.2" y1="172.2" x2="343.7" y2="175.2"/>
			<line fill="none" stroke="#FF0000" stroke-width="2" stroke-linecap="round" x1="358.6" y1="166.5" x2="351.2" y2="172.2"/>
			<line fill="none" stroke="#FF0000" stroke-width="2" stroke-linecap="round" x1="366.1" y1="163.6" x2="358.6" y2="166.5"/>
			<line fill="none" stroke="#FF0000" stroke-width="2" stroke-linecap="round" x1="373.6" y1="160.4" x2="366.1" y2="163.6"/>
			<line fill="none" stroke="#FF0000" stroke-width="2" stroke-linecap="round" x1="381.1" y1="156.6" x2="373.6" y2="160.4"/>
			<line fill="none" stroke="#FF0000" stroke-width="2" stroke-linecap="round" x1="388.6" y1="153.8" x2="381.1" y2="156.6"/>
			<line fill="none" stroke="#FF0000" stroke-width="2" stroke-linecap="round" x1="396.1" y1="155.7" x2="388.6" y2="153.8"/>
			<line fill="none" stroke="#FF0000" stroke-width="2" stroke-linecap="round" x1="403.5" y1="163.9" x2="396.1" y2="155.7"/>
			<line fill="none" stroke="#FF0000" stroke-width="2" stroke-linecap="round" x1="411" y1="162.2" x2="403.5" y2="163.9"/>
			<line fill="none" stroke="#FF0000" stroke-width="2" stroke-linecap="round" x1="418.5" y1="160.9" x2="411" y2="162.2"/>
		</g>
	</g>
</g>
<polyline fill="none" stroke="#356406" stroke-width="2" points="416.7,303.7 402,306 380,307.3 355.5,309.8 337.9,308.2 
	320.6,308.2 311.5,305 297.5,306.3 271.9,309.5 251,311.1 234.8,313.7 216.5,312.4 203.3,312.4 180.9,315.3 163,316.9 141,317.2 
	118.2,318.5 108.7,317.8 86,318.8 70.6,318.2 51.9,319.4 36.8,318.2 "/>
<polyline fill="none" stroke="#FF7F00" stroke-width="2" points="417.8,288.7 393.2,294.7 385.9,294.4 349.2,305 332,308.5 
	302.7,309.8 296.4,309.5 273.7,313.7 257.6,313.3 234.1,312.1 212.8,314 202.9,315.9 186.4,315.9 156,317.8 127.8,318.5 
	110.9,317.5 91.1,318.8 78.6,317.8 51.9,319.4 38.3,317.8 "/>
<polyline fill="none" stroke="#00A33D" stroke-width="2" points="417.1,195 409,193.4 403.1,198.6 395.4,193.1 386.3,190.9 
	377.8,192.1 372,192.1 366.5,194.1 355.8,196.3 345.9,199.5 337.5,199.8 327.2,204.7 318.1,202.7 313.7,199.8 303.4,199.8 
	294.6,203 283.2,207.9 270,212.7 251.7,227.1 238.5,239.9 227.5,246.7 216.5,252.7 205.5,252.1 192.7,247.9 184.2,247.9 
	172.9,251.8 163.7,256.9 152.3,262.4 141.7,264.9 134,263.6 125.6,267.8 116,271.7 109.4,274.2 102.1,285.1 89.3,290.6 73.1,297 
	62.1,298.6 48.9,302.8 37.2,304.4 "/>
<polyline fill="none" stroke="#0060B6" stroke-width="2" stroke-linecap="round" points="417.1,162.6 409,166.8 404.6,173.6 
	394.7,168.7 387,168.4 380,176.1 371.2,183.2 362.8,191.5 359.5,195 350.3,194.4 345.6,198.6 337.5,199.8 328.7,206.6 320.3,204.3 
	314.4,193.4 304.5,196.3 298.3,202.4 288.7,202.1 274.8,218.8 261.6,228.1 241.1,234.5 228.6,248.3 216.5,252.7 204.8,260.8 
	188.6,264 174.3,271.3 157.5,276.8 149.8,284.5 137.3,284.5 134.4,282.9 113.5,291.5 88.9,298.3 73.1,298.6 63.6,301.2 56.6,302.1 
	46,306 37.2,306.6 "/>
<g>
	<path d="M18.6,17.8l2.8,5.3v0.2h-3.5l-2.4-4.9h-1.4v4.9h-3.3V9.9H16c3.2,0,5,1.4,5,4.2C21,16.1,20,17.3,18.6,17.8z M14.1,12.1v4.3
		h1.4c1.5,0,2.3-0.7,2.3-2.2c0-1.5-0.8-2.1-2.2-2.1H14.1z"/>
	<path d="M25.4,18.8c0.1,1.8,1,2.6,2.7,2.6c0.9,0,1.6-0.3,2.2-0.8h0.3l0.9,1.6c-0.8,0.7-2.1,1.3-4,1.3c-3.2,0-5.3-2-5.3-5.3
		c0-3.4,2.2-5.3,4.9-5.3c3.1,0,4.4,2,4.4,5.9H25.4z M25.4,17.4l3.2,0c0-1.7-0.4-2.6-1.5-2.6C26.1,14.8,25.6,15.6,25.4,17.4z"/>
	<path d="M32.8,13.9c1.1-0.5,2.5-0.9,4.2-0.9c2.7,0,4.1,0.9,4.1,3v5.1c0,0.4,0.1,0.6,0.5,0.6c0.2,0,0.3,0,0.4-0.1h0.1l0.4,1.5
		c-0.4,0.3-1.2,0.5-2,0.5c-1.2,0-2-0.5-2.2-1.5h-0.2c-0.4,0.8-1.4,1.5-2.7,1.5c-1.8,0-2.9-1-2.9-2.7c0-1.7,1-2.4,2.8-2.9l2.6-0.8
		v-0.6c0-1-0.4-1.5-1.7-1.5c-1,0-1.8,0.3-2.5,0.6h-0.2L32.8,13.9z M37.9,18.6L36.6,19c-0.8,0.2-1.2,0.7-1.2,1.5
		c0,0.9,0.5,1.2,1.1,1.2c0.5,0,1.1-0.2,1.4-0.6V18.6z"/>
	<path d="M46.6,23.3h-3.2v-14L46.2,9h0.5V23.3z"/>
	<path d="M56,16.7c0,3.1,1.5,4.5,3.6,4.5c0.8,0,1.4-0.2,1.8-0.3v-2.5h-2.8v-2.2h5.5v6.3c-0.9,0.5-2.7,1.1-4.8,1.1
		c-4.1,0-6.6-2.8-6.6-6.9c0-4.4,2.8-7,6.9-7c2,0,3.4,0.6,4.4,1.4l-1,2.1h-0.3c-0.6-0.6-1.6-1-2.9-1C57.4,12.2,56,13.7,56,16.7z"/>
	<path d="M66.3,9.9h4.5c4.8,0,6.9,2.2,6.9,6.6c0,4.4-2.1,6.8-6.5,6.8h-4.9V9.9z M74.3,16.5c0-3.1-1-4.3-3.3-4.3h-1.4v8.9H71
		C73.4,21.1,74.3,19.9,74.3,16.5z"/>
	<path d="M84.2,9.9c3.6,0,5.3,1.6,5.3,4.4c0,2.9-1.8,4.4-5.4,4.4h-1.2v4.6h-3.3V9.9H84.2z M86.2,14.3c0-1.7-0.8-2.3-2.1-2.3h-1.3
		v4.7H84C85.5,16.6,86.2,16,86.2,14.3z"/>
	<path d="M97.7,13.1h0.4l0.1,1.3h0.2c0.5-0.7,1.5-1.4,2.8-1.4c2.4,0,3.8,1.6,3.8,5.2c0,3.9-2,5.4-4.6,5.4c-0.8,0-1.4-0.2-2-0.4v4.4
		h-3.1V13.4L97.7,13.1z M98.5,21.2c0.4,0.2,0.8,0.4,1.3,0.4c1.2,0,2.1-0.7,2.1-3.3c0-2.5-0.6-3.1-1.8-3.1c-0.6,0-1.1,0.3-1.5,0.6
		V21.2z"/>
	<path d="M109.4,18.8c0.1,1.8,1,2.6,2.7,2.6c0.9,0,1.6-0.3,2.2-0.8h0.3l0.9,1.6c-0.8,0.7-2.1,1.3-4,1.3c-3.2,0-5.3-2-5.3-5.3
		c0-3.4,2.2-5.3,4.9-5.3c3.1,0,4.4,2,4.4,5.9H109.4z M109.4,17.4l3.2,0c0-1.7-0.4-2.6-1.5-2.6C110.1,14.8,109.5,15.6,109.4,17.4z"/>
	<path d="M120.1,14.7c0.4-1,1.4-1.7,2.5-1.7c0.4,0,0.7,0.1,0.9,0.1l-0.4,2.8h-0.3c-0.2-0.1-0.5-0.2-0.8-0.2c-0.8,0-1.5,0.4-1.9,1
		v6.6h-3.2v-10l2.4-0.3h0.4l0.1,1.6H120.1z"/>
	<path d="M131.3,13.1h0.4l0.1,1.3h0.2c0.5-0.7,1.5-1.4,2.8-1.4c2.4,0,3.8,1.6,3.8,5.2c0,3.9-2,5.4-4.6,5.4c-0.8,0-1.4-0.2-2-0.4v4.4
		H129V13.4L131.3,13.1z M132.1,21.2c0.4,0.2,0.8,0.4,1.3,0.4c1.2,0,2.1-0.7,2.1-3.3c0-2.5-0.6-3.1-1.8-3.1c-0.6,0-1.1,0.3-1.5,0.6
		V21.2z"/>
	<path d="M143,18.8c0.1,1.8,1,2.6,2.7,2.6c0.9,0,1.6-0.3,2.2-0.8h0.3l0.9,1.6c-0.8,0.7-2.1,1.3-4,1.3c-3.2,0-5.3-2-5.3-5.3
		c0-3.4,2.2-5.3,4.9-5.3c3.1,0,4.4,2,4.4,5.9H143z M143,17.4l3.2,0c0-1.7-0.4-2.6-1.5-2.6C143.7,14.8,143.1,15.6,143,17.4z"/>
	<path d="M153.7,14.7c0.4-1,1.4-1.7,2.5-1.7c0.4,0,0.7,0.1,0.9,0.1l-0.4,2.8h-0.3c-0.2-0.1-0.5-0.2-0.8-0.2c-0.8,0-1.5,0.4-1.9,1
		v6.6h-3.2v-10l2.4-0.3h0.4l0.1,1.6H153.7z"/>
	<path d="M164.5,15.7h-0.3c-0.4-0.4-1.4-0.8-2.3-0.8c-0.8,0-1.2,0.3-1.2,0.8c0,0.6,0.6,0.9,2,1.3c2.1,0.6,3.1,1.3,3.1,3.2
		c0,2.2-1.3,3.4-4.1,3.4c-1.7,0-3.2-0.6-4.1-1.3l0.9-1.7h0.3c0.6,0.6,1.7,1.1,2.8,1.1c1,0,1.3-0.2,1.3-0.9c0-0.7-0.5-0.9-2.3-1.5
		c-1.8-0.6-2.6-1.6-2.6-3.1c0-2.2,1.8-3.2,4-3.2c1.6,0,2.7,0.5,3.4,1L164.5,15.7z"/>
	<path d="M171.8,13c2.9,0,5,1.7,5,5.3c0,3.4-2,5.3-5,5.3c-2.9,0-5-1.7-5-5.3C166.8,14.9,168.8,13,171.8,13z M171.8,14.9
		c-1.2,0-1.8,1-1.8,3.4c0,2.5,0.7,3.3,1.8,3.3c1.2,0,1.8-0.9,1.8-3.4C173.6,15.7,173,14.9,171.8,14.9z"/>
	<path d="M180.7,13.1h0.4l0.1,1.5h0.2c0.6-0.9,1.9-1.6,3.4-1.6c2,0,2.8,1.1,2.8,2.9v7.5h-3.1v-6.6c0-0.9-0.3-1.3-1.2-1.3
		c-0.6,0-1.3,0.3-1.8,0.8v7.1h-3.2v-10L180.7,13.1z"/>
	<path d="M10.5,34c0.8-0.4,1.8-0.7,2.9-0.7c1.9,0,2.8,0.8,2.8,2.3v4.3c0,0.5,0.2,0.7,0.5,0.7c0.2,0,0.3-0.1,0.4-0.1h0.1l0.2,0.8
		c-0.3,0.2-0.7,0.3-1.1,0.3c-0.8,0-1.3-0.3-1.4-1.1h-0.1c-0.3,0.6-1.2,1.1-2.2,1.1c-1.3,0-2.2-0.6-2.2-2c0-1.2,0.7-1.8,2.1-2.2
		l2.3-0.7v-0.6c0-1-0.3-1.5-1.6-1.5c-0.8,0-1.5,0.2-2.1,0.5h-0.2L10.5,34z M14.7,37.4L12.9,38c-0.9,0.3-1.2,0.7-1.2,1.4
		c0,0.9,0.5,1.2,1.1,1.2s1.4-0.3,1.8-0.8V37.4z"/>
	<path d="M19.9,31.3h0.2v2.2H22v1h-1.9v4.9c0,0.7,0.3,1,0.9,1c0.4,0,0.7-0.1,0.9-0.2H22l0.3,0.9c-0.4,0.2-1,0.4-1.8,0.4
		c-1.2,0-1.9-0.6-1.9-1.9v-5.1h-1.1v-0.9l1.1-0.1l0.1-2L19.9,31.3z"/>
	<path d="M28.2,33.4h0.3l0,1h0.1c0.5-0.6,1.3-1.1,2.4-1.1c1.9,0,3.1,1.3,3.1,4c0,3-1.6,4.2-3.7,4.2c-0.7,0-1.3-0.1-1.8-0.4v3.6h-1.5
		V33.5L28.2,33.4z M28.6,40c0.5,0.3,1,0.5,1.6,0.5c1.4,0,2.4-0.7,2.4-3.1c0-2.2-0.8-2.9-2.1-2.9c-0.7,0-1.4,0.3-1.9,0.8V40z"/>
	<path d="M42.2,41.3H41l-0.1-1h-0.1c-0.5,0.7-1.2,1.2-2.5,1.2c-1.7,0-2.6-0.8-2.6-2.5v-5.4l1.2-0.1h0.2v5.4c0,1.2,0.5,1.6,1.5,1.6
		c0.9,0,1.5-0.3,2-0.9v-6l1.2-0.1h0.3V41.3z"/>
	<path d="M45.6,34.6c0.3-0.7,1.1-1.3,2-1.3c0.4,0,0.6,0,0.8,0.1l-0.2,1.4h-0.2c-0.2-0.1-0.4-0.1-0.7-0.1c-0.7,0-1.3,0.4-1.6,0.9v5.7
		h-1.5v-7.8l1.1-0.1h0.2l0.1,1.2H45.6z"/>
	<path d="M55.4,40.5c-0.5,0.5-1.4,1-2.8,1c-2.5,0-3.8-1.7-3.8-4.1c0-2.7,1.8-4,3.8-4c1.1,0,2,0.3,2.5,0.7l-0.5,1h-0.2
		c-0.3-0.3-0.9-0.6-1.7-0.6c-1.3,0-2.4,0.9-2.4,2.9c0,2,0.8,3,2.5,3c0.9,0,1.5-0.4,1.9-0.8h0.2L55.4,40.5z"/>
	<path d="M57.8,30H58v4.6h0.1c0.6-0.7,1.6-1.3,2.8-1.3c1.6,0,2.3,0.8,2.3,2.3l0,5.7h-1.5V36c0-1.1-0.3-1.5-1.4-1.5
		c-0.8,0-1.6,0.4-2.2,1l0,5.9h-1.5V30.2L57.8,30z"/>
	<path d="M64.7,34c0.8-0.4,1.8-0.7,2.9-0.7c1.9,0,2.8,0.8,2.8,2.3v4.3c0,0.5,0.2,0.7,0.5,0.7c0.2,0,0.3-0.1,0.4-0.1h0.1l0.2,0.8
		c-0.3,0.2-0.7,0.3-1.1,0.3c-0.8,0-1.3-0.3-1.4-1.1H69c-0.3,0.6-1.2,1.1-2.2,1.1c-1.3,0-2.2-0.6-2.2-2c0-1.2,0.7-1.8,2.1-2.2
		l2.3-0.7v-0.6c0-1-0.3-1.5-1.6-1.5c-0.8,0-1.5,0.2-2.1,0.5h-0.2L64.7,34z M68.9,37.4L67.2,38c-0.9,0.3-1.2,0.7-1.2,1.4
		c0,0.9,0.5,1.2,1.1,1.2s1.4-0.3,1.8-0.8V37.4z"/>
	<path d="M77.4,35h-0.2c-0.4-0.4-0.9-0.6-1.8-0.6s-1.4,0.3-1.4,1c0,0.7,0.5,1,1.7,1.4c1.6,0.5,2.5,1,2.5,2.4c0,1.5-1,2.4-2.9,2.4
		c-1.2,0-2.2-0.4-2.8-0.9l0.5-0.9h0.2c0.5,0.5,1.3,0.9,2.2,0.9c1,0,1.5-0.3,1.5-1.1c0-0.8-0.4-1-2-1.5c-1.4-0.4-2.1-1.1-2.1-2.4
		c0-1.4,1.2-2.2,2.7-2.2c1.1,0,1.9,0.3,2.5,0.8L77.4,35z"/>
	<path d="M80.4,30.3c0.5,0,0.9,0.3,0.9,0.8c0,0.5-0.4,0.8-0.9,0.8c-0.5,0-0.8-0.3-0.8-0.8S79.9,30.3,80.4,30.3z M80.9,33.4h0.2v7.9
		h-1.5v-7.8L80.9,33.4z"/>
	<path d="M84.1,33.4h0.2l0.1,1.2h0.1c0.5-0.7,1.7-1.3,2.8-1.3c1.6,0,2.3,0.8,2.3,2.3v5.7h-1.5V36c0-1-0.4-1.5-1.4-1.5
		c-0.8,0-1.6,0.4-2.2,1v5.9H83l0-7.8L84.1,33.4z"/>
	<path d="M94.2,38.8c-0.4,0-0.8-0.1-1.2-0.2c-0.2,0.1-0.3,0.4-0.3,0.7c0,0.5,0.3,0.8,1,0.8h2.1c1.6,0,2.4,0.7,2.4,2
		c0,1.5-1.5,2.7-4,2.7c-2.4,0-3.7-0.7-3.7-2.1c0-0.8,0.7-1.5,1.6-1.6v-0.1c-0.5-0.3-0.7-0.7-0.7-1.2c0-0.6,0.4-1.1,0.9-1.2v-0.1
		c-0.8-0.5-1.2-1.3-1.2-2.3c0-1.5,1.1-2.8,3-2.8c0.8,0,1.5,0.2,2,0.6h0.1c0.3-0.6,1.2-1.1,1.8-1.1l0,1.1c-0.5,0-1,0.3-1.3,0.6
		c0.3,0.4,0.5,1,0.5,1.6C97.2,37.6,96.2,38.8,94.2,38.8z M93.1,41.2c-0.7,0.1-1.3,0.5-1.3,1.3c0,0.9,0.9,1.3,2.5,1.3
		c1.7,0,2.7-0.6,2.7-1.5c0-0.8-0.4-1-1.3-1H93.1z M94.2,34.2c-1,0-1.7,0.6-1.7,1.9c0,1.2,0.6,1.8,1.7,1.8c1.1,0,1.7-0.6,1.7-1.8
		C95.9,34.9,95.3,34.2,94.2,34.2z"/>
	<path d="M98.9,36.6h4.3v1.2h-4.3V36.6z"/>
	<path d="M106.2,33.4h0.3l0,1h0.1c0.5-0.6,1.3-1.1,2.4-1.1c1.9,0,3.1,1.3,3.1,4c0,3-1.6,4.2-3.7,4.2c-0.7,0-1.3-0.1-1.8-0.4v3.6
		h-1.5V33.5L106.2,33.4z M106.6,40c0.5,0.3,1,0.5,1.6,0.5c1.4,0,2.4-0.7,2.4-3.1c0-2.2-0.8-2.9-2.1-2.9c-0.7,0-1.4,0.3-1.9,0.8V40z"
		/>
	<path d="M116.9,33.3c2.1,0,3.7,1.4,3.7,4.1c0,2.6-1.5,4.1-3.7,4.1c-2.1,0-3.7-1.4-3.7-4.1C113.3,34.8,114.8,33.3,116.9,33.3z
		 M116.9,34.3c-1.3,0-2.2,0.9-2.2,3.1s0.8,3,2.2,3c1.4,0,2.2-0.9,2.2-3.1C119.1,35.2,118.3,34.3,116.9,34.3z"/>
	<path d="M129.3,39.6l1.6-6.1h1.4v0.2l-2.2,7.7h-1.5l-1.7-6h-0.1l-1.8,6h-1.5l-2.2-7.7v-0.2h1.4l1.6,6.1h0.1l1.7-6.1h1.3l1.7,6.1
		H129.3z"/>
	<path d="M134.4,37.7c0.1,1.7,0.8,2.8,2.6,2.8c1,0,1.5-0.3,2.1-0.8h0.2l0.5,0.8c-0.6,0.6-1.6,1-3,1c-2.4,0-3.8-1.6-3.8-4.2
		c0-2.6,1.6-4,3.5-4c2.3,0,3.3,1.4,3.3,4.4H134.4z M134.4,36.8l3.8-0.1c0-1.6-0.5-2.5-1.8-2.5C135.1,34.3,134.5,35.3,134.4,36.8z"/>
	<path d="M142.7,34.6c0.3-0.7,1.1-1.3,2-1.3c0.4,0,0.6,0,0.8,0.1l-0.2,1.4H145c-0.2-0.1-0.4-0.1-0.7-0.1c-0.7,0-1.3,0.4-1.6,0.9v5.7
		h-1.5v-7.8l1.1-0.1h0.2l0.1,1.2H142.7z"/>
	<path d="M151.1,33.4h0.3l0,1h0.1c0.5-0.6,1.3-1.1,2.4-1.1c1.9,0,3.1,1.3,3.1,4c0,3-1.6,4.2-3.7,4.2c-0.7,0-1.3-0.1-1.8-0.4v3.6
		h-1.5V33.5L151.1,33.4z M151.5,40c0.5,0.3,1,0.5,1.6,0.5c1.4,0,2.4-0.7,2.4-3.1c0-2.2-0.8-2.9-2.1-2.9c-0.7,0-1.4,0.3-1.9,0.8V40z"
		/>
	<path d="M158.3,34c0.8-0.4,1.8-0.7,2.9-0.7c1.9,0,2.8,0.8,2.8,2.3v4.3c0,0.5,0.2,0.7,0.5,0.7c0.2,0,0.3-0.1,0.4-0.1h0.1l0.2,0.8
		c-0.3,0.2-0.7,0.3-1.1,0.3c-0.8,0-1.3-0.3-1.4-1.1h-0.1c-0.3,0.6-1.2,1.1-2.2,1.1c-1.3,0-2.2-0.6-2.2-2c0-1.2,0.7-1.8,2.1-2.2
		l2.3-0.7v-0.6c0-1-0.3-1.5-1.6-1.5c-0.8,0-1.5,0.2-2.1,0.5h-0.2L158.3,34z M162.5,37.4l-1.8,0.6c-0.9,0.3-1.2,0.7-1.2,1.4
		c0,0.9,0.5,1.2,1.1,1.2s1.4-0.3,1.8-0.8V37.4z"/>
	<path d="M167.8,34.6c0.3-0.7,1.1-1.3,2-1.3c0.4,0,0.6,0,0.8,0.1l-0.2,1.4h-0.2c-0.2-0.1-0.4-0.1-0.7-0.1c-0.7,0-1.3,0.4-1.6,0.9
		v5.7h-1.5v-7.8l1.1-0.1h0.2l0.1,1.2H167.8z"/>
	<path d="M172.4,30.3c0.5,0,0.9,0.3,0.9,0.8c0,0.5-0.4,0.8-0.9,0.8c-0.5,0-0.8-0.3-0.8-0.8S171.9,30.3,172.4,30.3z M172.9,33.4h0.2
		v7.9h-1.5v-7.8L172.9,33.4z"/>
	<path d="M176.7,31.3h0.2v2.2h1.9v1h-1.9v4.9c0,0.7,0.3,1,0.9,1c0.4,0,0.7-0.1,0.9-0.2h0.2l0.3,0.9c-0.4,0.2-1,0.4-1.8,0.4
		c-1.2,0-1.9-0.6-1.9-1.9v-5.1h-1.1v-0.9l1.1-0.1l0.1-2L176.7,31.3z"/>
	<path d="M182.4,42.3l0.3-0.9l-2.9-7.8v-0.2h1.5l1.7,5.2l0.3,1.1h0.1l0.3-1.1l1.8-5.2h1.2v0.2l-3.2,8.8c-0.6,1.6-1.1,2.2-2.4,2.2
		c-0.5,0-0.9-0.1-1.2-0.2l0.2-1h0.1c0.2,0.1,0.5,0.2,0.7,0.2C181.7,43.7,182,43.4,182.4,42.3z"/>
	<path d="M188.9,39.7l-0.9,3.4h-1.1l0.5-3.4H188.9z"/>
	<path d="M193.5,32l0-1.2h8.1l0,1.2h-3.3v9.3h-1.6V32H193.5z"/>
	<path d="M204.1,30h0.2v4.6h0.1c0.6-0.7,1.6-1.3,2.8-1.3c1.6,0,2.3,0.8,2.3,2.3l0,5.7H208V36c0-1.1-0.3-1.5-1.4-1.5
		c-0.8,0-1.6,0.4-2.2,1l0,5.9h-1.5V30.2L204.1,30z"/>
	<path d="M214.7,33.3c2.1,0,3.7,1.4,3.7,4.1c0,2.6-1.5,4.1-3.7,4.1c-2.1,0-3.7-1.4-3.7-4.1C211,34.8,212.5,33.3,214.7,33.3z
		 M214.7,34.3c-1.3,0-2.2,0.9-2.2,3.1s0.8,3,2.2,3c1.4,0,2.2-0.9,2.2-3.1C216.8,35.2,216,34.3,214.7,34.3z"/>
	<path d="M226.4,41.3h-1.2l-0.1-1h-0.1c-0.5,0.7-1.2,1.2-2.5,1.2c-1.7,0-2.6-0.8-2.6-2.5v-5.4l1.2-0.1h0.2v5.4
		c0,1.2,0.5,1.6,1.5,1.6c0.9,0,1.5-0.3,2-0.9v-6l1.2-0.1h0.3V41.3z"/>
	<path d="M232.7,35h-0.2c-0.4-0.4-0.9-0.6-1.8-0.6c-0.8,0-1.4,0.3-1.4,1c0,0.7,0.5,1,1.7,1.4c1.6,0.5,2.5,1,2.5,2.4
		c0,1.5-1,2.4-2.9,2.4c-1.2,0-2.2-0.4-2.8-0.9l0.5-0.9h0.2c0.5,0.5,1.3,0.9,2.2,0.9c1,0,1.5-0.3,1.5-1.1c0-0.8-0.4-1-2-1.5
		c-1.4-0.4-2.1-1.1-2.1-2.4c0-1.4,1.2-2.2,2.7-2.2c1.1,0,1.9,0.3,2.5,0.8L232.7,35z"/>
	<path d="M234.9,34c0.8-0.4,1.8-0.7,2.9-0.7c1.9,0,2.8,0.8,2.8,2.3v4.3c0,0.5,0.2,0.7,0.5,0.7c0.2,0,0.3-0.1,0.4-0.1h0.1l0.2,0.8
		c-0.3,0.2-0.7,0.3-1.1,0.3c-0.8,0-1.3-0.3-1.4-1.1h-0.1c-0.3,0.6-1.2,1.1-2.2,1.1c-1.3,0-2.2-0.6-2.2-2c0-1.2,0.7-1.8,2.1-2.2
		l2.3-0.7v-0.6c0-1-0.3-1.5-1.6-1.5c-0.8,0-1.5,0.2-2.1,0.5h-0.2L234.9,34z M239.1,37.4l-1.8,0.6c-0.9,0.3-1.2,0.7-1.2,1.4
		c0,0.9,0.5,1.2,1.1,1.2s1.4-0.3,1.8-0.8V37.4z"/>
	<path d="M244,33.4h0.2l0.1,1.2h0.1c0.5-0.7,1.7-1.3,2.8-1.3c1.6,0,2.3,0.8,2.3,2.3v5.7H248V36c0-1-0.4-1.5-1.4-1.5
		c-0.8,0-1.6,0.4-2.2,1v5.9h-1.5l0-7.8L244,33.4z"/>
	<path d="M257.6,30h0.2v11.3h-1.2l-0.1-0.9h-0.1c-0.4,0.7-1.2,1.1-2.2,1.1c-2,0-3.3-1.3-3.3-4.1c0-2.8,1.7-4.1,3.6-4.1
		c0.9,0,1.3,0.2,1.8,0.4v-3.5L257.6,30z M256.4,34.7c-0.4-0.3-0.9-0.4-1.6-0.4c-1.3,0-2.3,0.9-2.3,3.1c0,2.2,0.9,3.1,2.1,3.1
		c0.8,0,1.4-0.4,1.8-0.9V34.7z"/>
	<path d="M264.2,35H264c-0.4-0.4-0.9-0.6-1.8-0.6s-1.4,0.3-1.4,1c0,0.7,0.5,1,1.7,1.4c1.6,0.5,2.5,1,2.5,2.4c0,1.5-1,2.4-2.9,2.4
		c-1.2,0-2.2-0.4-2.8-0.9l0.5-0.9h0.2c0.5,0.5,1.3,0.9,2.2,0.9c1,0,1.5-0.3,1.5-1.1c0-0.8-0.4-1-2-1.5c-1.4-0.4-2.1-1.1-2.1-2.4
		c0-1.4,1.2-2.2,2.7-2.2c1.1,0,1.9,0.3,2.5,0.8L264.2,35z"/>
	<path d="M273.4,33.3c2.1,0,3.7,1.4,3.7,4.1c0,2.6-1.5,4.1-3.7,4.1c-2.1,0-3.7-1.4-3.7-4.1C269.7,34.8,271.3,33.3,273.4,33.3z
		 M273.4,34.3c-1.3,0-2.2,0.9-2.2,3.1s0.8,3,2.2,3c1.4,0,2.2-0.9,2.2-3.1C275.6,35.2,274.8,34.3,273.4,34.3z"/>
	<path d="M277.8,34.5v-0.9l1-0.1v-1.1c0-1.7,1.2-2.4,2.6-2.4c0.7,0,1.3,0.2,1.6,0.3l-0.3,1h-0.2c-0.2-0.1-0.6-0.3-1-0.3
		c-0.8,0-1.3,0.4-1.3,1.4v1h1.6v1h-1.6v6.9h-1.5v-6.9H277.8z"/>
	<path d="M293,30h0.2v11.3h-1.2l-0.1-0.9h-0.1c-0.4,0.7-1.2,1.1-2.2,1.1c-2,0-3.3-1.3-3.3-4.1c0-2.8,1.7-4.1,3.6-4.1
		c0.9,0,1.3,0.2,1.8,0.4v-3.5L293,30z M291.8,34.7c-0.4-0.3-0.9-0.4-1.6-0.4c-1.3,0-2.3,0.9-2.3,3.1c0,2.2,0.9,3.1,2.1,3.1
		c0.8,0,1.4-0.4,1.8-0.9V34.7z"/>
	<path d="M298.5,33.3c2.1,0,3.7,1.4,3.7,4.1c0,2.6-1.5,4.1-3.7,4.1c-2.1,0-3.7-1.4-3.7-4.1C294.8,34.8,296.3,33.3,298.5,33.3z
		 M298.5,34.3c-1.3,0-2.2,0.9-2.2,3.1s0.8,3,2.2,3c1.4,0,2.2-0.9,2.2-3.1C300.6,35.2,299.8,34.3,298.5,34.3z"/>
	<path d="M305.2,41.3h-1.5V30.2l1.2-0.2h0.3V41.3z"/>
	<path d="M308.6,41.3h-1.5V30.2l1.2-0.2h0.3V41.3z"/>
	<path d="M310.2,34c0.8-0.4,1.8-0.7,2.9-0.7c1.9,0,2.8,0.8,2.8,2.3v4.3c0,0.5,0.2,0.7,0.5,0.7c0.2,0,0.3-0.1,0.4-0.1h0.1l0.2,0.8
		c-0.3,0.2-0.7,0.3-1.1,0.3c-0.8,0-1.3-0.3-1.4-1.1h-0.1c-0.3,0.6-1.2,1.1-2.2,1.1c-1.3,0-2.2-0.6-2.2-2c0-1.2,0.7-1.8,2.1-2.2
		l2.3-0.7v-0.6c0-1-0.3-1.5-1.6-1.5c-0.8,0-1.5,0.2-2.1,0.5h-0.2L310.2,34z M314.4,37.4l-1.8,0.6c-0.9,0.3-1.2,0.7-1.2,1.4
		c0,0.9,0.5,1.2,1.1,1.2s1.4-0.3,1.8-0.8V37.4z"/>
	<path d="M319.7,34.6c0.3-0.7,1.1-1.3,2-1.3c0.4,0,0.6,0,0.8,0.1l-0.2,1.4H322c-0.2-0.1-0.4-0.1-0.7-0.1c-0.7,0-1.3,0.4-1.6,0.9v5.7
		h-1.5v-7.8l1.1-0.1h0.2l0.1,1.2H319.7z"/>
	<path d="M327.9,35h-0.2c-0.4-0.4-0.9-0.6-1.8-0.6s-1.4,0.3-1.4,1c0,0.7,0.5,1,1.7,1.4c1.6,0.5,2.5,1,2.5,2.4c0,1.5-1,2.4-2.9,2.4
		c-1.2,0-2.2-0.4-2.8-0.9l0.5-0.9h0.2c0.5,0.5,1.3,0.9,2.2,0.9c1,0,1.5-0.3,1.5-1.1c0-0.8-0.4-1-2-1.5c-1.4-0.4-2.1-1.1-2.1-2.4
		c0-1.4,1.2-2.2,2.7-2.2c1.1,0,1.9,0.3,2.5,0.8L327.9,35z"/>
</g>
<g>
	<g>
		<path d="M436.4,341.3h2l-0.1-1.7v-4.7l0.3-2h-0.2c-0.6,0.4-1.1,0.7-1.8,0.9h-0.2l-0.2-1c0.9-0.2,1.8-0.6,2.6-1l0.8,0.2v7.7
			l-0.1,1.7h2v0.9h-5.1V341.3z"/>
		<path d="M443.9,340.5h0.3c0.4,0.5,1,0.8,1.9,0.8c1.2,0,1.8-0.9,1.8-2.4s-0.7-2.3-1.8-2.3c-0.8,0-1.2,0.3-1.6,0.6l-0.6-0.4l0.4-5.1
			h4.5l-0.1,1.1h-3.5l0.1,1.1l-0.1,1l-0.3,1.2h0.2c0.4-0.3,0.8-0.5,1.6-0.5c1.5,0,2.6,1.1,2.6,3.2c0,1.9-0.9,3.4-3,3.4
			c-1.4,0-2.3-0.5-2.8-0.9L443.9,340.5z"/>
	</g>
	<g>
		<path d="M405.5,341.3h2l-0.1-1.7v-4.7l0.3-2h-0.2c-0.6,0.4-1.1,0.7-1.8,0.9h-0.2l-0.2-1c0.9-0.2,1.8-0.6,2.6-1l0.8,0.2v7.7
			l-0.1,1.7h2v0.9h-5.1V341.3z"/>
		<path d="M412.1,337c0-3.1,0.7-5.4,3-5.4c2.2,0,3,2.2,3,5.4c0,3.2-0.8,5.4-3,5.4C412.8,342.4,412.1,340.2,412.1,337z M416.7,337
			c0-2.9-0.4-4.3-1.6-4.3c-1.2,0-1.6,1.4-1.6,4.3c0,2.9,0.4,4.3,1.6,4.3C416.3,341.3,416.7,339.9,416.7,337z"/>
	</g>
	<g>
		<path d="M329.5,337c0-3.1,0.7-5.4,3-5.4c2.2,0,3,2.2,3,5.4c0,3.2-0.8,5.4-3,5.4C330.2,342.4,329.5,340.2,329.5,337z M334.1,337
			c0-2.9-0.4-4.3-1.6-4.3c-1.2,0-1.6,1.4-1.6,4.3c0,2.9,0.4,4.3,1.6,4.3C333.7,341.3,334.1,339.9,334.1,337z"/>
		<path d="M337.3,337c0-3.1,0.7-5.4,3-5.4c2.2,0,3,2.2,3,5.4c0,3.2-0.8,5.4-3,5.4C338,342.4,337.3,340.2,337.3,337z M341.9,337
			c0-2.9-0.4-4.3-1.6-4.3c-1.2,0-1.6,1.4-1.6,4.3c0,2.9,0.4,4.3,1.6,4.3C341.5,341.3,341.9,339.9,341.9,337z"/>
	</g>
	<g>
		<path d="M255.1,340.9h0.3c0.2,0.3,0.6,0.4,1.2,0.4c1.5,0,2.1-0.9,2.5-3.8h-0.2c-0.5,0.6-1.1,0.9-2,0.9c-1.6,0-2.6-1.1-2.6-3.2
			c0-2,1-3.5,2.9-3.5c2,0,3,1.5,3,4.5c0,4-0.9,6.3-3.7,6.3c-0.8,0-1.4-0.2-1.9-0.5L255.1,340.9z M259,335.8c0-2.5-0.6-3.1-1.6-3.1
			c-1.1,0-1.6,0.8-1.6,2.5c0,1.6,0.4,2.2,1.6,2.2c0.7,0,1.3-0.3,1.6-0.8V335.8z"/>
		<path d="M262.2,337c0-3.1,0.7-5.4,3-5.4c2.2,0,3,2.2,3,5.4c0,3.2-0.8,5.4-3,5.4C262.9,342.4,262.2,340.2,262.2,337z M266.7,337
			c0-2.9-0.4-4.3-1.6-4.3c-1.2,0-1.6,1.4-1.6,4.3c0,2.9,0.4,4.3,1.6,4.3C266.3,341.3,266.7,339.9,266.7,337z"/>
	</g>
	<g>
		<path d="M179.2,339.6c0-1.3,0.7-2.2,2-2.6v-0.1c-0.9-0.5-1.7-1.2-1.7-2.6c0-1.5,1.2-2.6,2.8-2.6c1.8,0,2.8,0.9,2.8,2.6
			c0,1.1-0.5,2-1.7,2.4v0.1c1,0.5,2.1,1.2,2.1,2.7c0,1.6-1,2.9-3.1,2.9C180.3,342.4,179.2,341.2,179.2,339.6z M181.8,337.2
			c-0.8,0.5-1.4,1.2-1.4,2.3c0,1.2,0.7,1.9,1.9,1.9c1.3,0,1.8-0.8,1.8-1.8c0-1.1-0.5-1.6-1.4-2C182.4,337.5,182.1,337.3,181.8,337.2
			z M182.6,336.5c0.8-0.4,1.2-1.3,1.2-2.2c0-1-0.4-1.7-1.6-1.7c-1,0-1.6,0.6-1.6,1.6c0,0.8,0.3,1.3,0.8,1.7
			C181.8,336.1,182.2,336.3,182.6,336.5z"/>
		<path d="M187,337c0-3.1,0.7-5.4,3-5.4c2.2,0,3,2.2,3,5.4c0,3.2-0.8,5.4-3,5.4C187.8,342.4,187,340.2,187,337z M191.6,337
			c0-2.9-0.4-4.3-1.6-4.3c-1.2,0-1.6,1.4-1.6,4.3c0,2.9,0.4,4.3,1.6,4.3C191.2,341.3,191.6,339.9,191.6,337z"/>
	</g>
	<g>
		<path d="M108.1,334.9l1.1-2v-0.2l-1.5,0.1h-3.3l0.1-1.1h5.4l0.2,1.1l-3.6,9.3h-1.4L108.1,334.9z"/>
		<path d="M111.7,337c0-3.1,0.7-5.4,3-5.4c2.2,0,3,2.2,3,5.4c0,3.2-0.8,5.4-3,5.4C112.4,342.4,111.7,340.2,111.7,337z M116.2,337
			c0-2.9-0.4-4.3-1.6-4.3c-1.2,0-1.6,1.4-1.6,4.3c0,2.9,0.4,4.3,1.6,4.3C115.8,341.3,116.2,339.9,116.2,337z"/>
	</g>
	<g>
		<path d="M22,341.3h2l-0.1-1.7v-4.7l0.3-2H24c-0.6,0.4-1.1,0.7-1.8,0.9H22l-0.2-1c0.9-0.2,1.8-0.6,2.6-1l0.8,0.2v7.7l-0.1,1.7h2
			v0.9H22V341.3z"/>
		<path d="M29.6,340.9h0.3c0.2,0.3,0.6,0.4,1.2,0.4c1.5,0,2.1-0.9,2.5-3.8h-0.2c-0.5,0.6-1.1,0.9-1.9,0.9c-1.6,0-2.6-1.1-2.6-3.2
			c0-2,1-3.5,2.9-3.5c2,0,3,1.5,3,4.5c0,4-0.9,6.3-3.7,6.3c-0.8,0-1.4-0.2-1.9-0.5L29.6,340.9z M33.4,335.8c0-2.5-0.6-3.1-1.6-3.1
			c-1.1,0-1.6,0.8-1.6,2.5c0,1.6,0.4,2.2,1.6,2.2c0.7,0,1.3-0.3,1.6-0.8V335.8z"/>
		<path d="M36.6,337.9c0-3.6,1-6.3,3.7-6.3c0.8,0,1.4,0.2,1.8,0.5l-0.4,1h-0.3c-0.2-0.3-0.6-0.4-1.1-0.4c-1.5,0-2.1,1.3-2.5,3.8H38
			c0.5-0.6,1.1-0.9,2-0.9c1.7,0,2.6,1,2.6,3.2c0,2-0.9,3.5-2.9,3.5C37.6,342.4,36.6,340.5,36.6,337.9z M41.2,338.9
			c0-1.6-0.4-2.2-1.6-2.2c-0.7,0-1.3,0.3-1.6,0.8v0.8c0,2.1,0.6,3.1,1.7,3.1C40.7,341.3,41.2,340.6,41.2,338.9z"/>
		<path d="M44.2,337c0-3.1,0.7-5.4,3-5.4c2.2,0,3,2.2,3,5.4c0,3.2-0.8,5.4-3,5.4C45,342.4,44.2,340.2,44.2,337z M48.8,337
			c0-2.9-0.4-4.3-1.6-4.3c-1.2,0-1.6,1.4-1.6,4.3c0,2.9,0.4,4.3,1.6,4.3C48.4,341.3,48.8,339.9,48.8,337z"/>
	</g>
</g>
<g>
	<g>
		<g>
			<path d="M11.5,111.2h0.3c0.4,0.5,1,0.8,1.9,0.8c1.2,0,1.8-0.9,1.8-2.4c0-1.5-0.7-2.3-1.8-2.3c-0.8,0-1.2,0.3-1.6,0.6l-0.6-0.4
				l0.4-5.1h4.5l-0.1,1.1h-3.5l0.1,1.1l-0.1,1l-0.3,1.2h0.2c0.4-0.3,0.8-0.4,1.6-0.4c1.5,0,2.6,1.1,2.6,3.2c0,1.9-0.9,3.4-3,3.4
				c-1.3,0-2.3-0.5-2.8-0.9L11.5,111.2z"/>
			<path d="M18.7,107.7c0-3.1,0.7-5.4,3-5.4c2.2,0,3,2.2,3,5.4s-0.8,5.4-3,5.4C19.4,113.1,18.7,110.9,18.7,107.7z M23.2,107.7
				c0-2.9-0.4-4.3-1.6-4.3c-1.2,0-1.6,1.4-1.6,4.3c0,2.9,0.4,4.3,1.6,4.3C22.8,112,23.2,110.7,23.2,107.7z"/>
		</g>
	</g>
	<g>
		<g>
			<path d="M11,68.6c0-3.6,1-6.3,3.7-6.3c0.8,0,1.4,0.2,1.8,0.5l-0.4,1h-0.3c-0.2-0.3-0.6-0.4-1.1-0.4c-1.5,0-2.1,1.3-2.5,3.8h0.2
				c0.5-0.6,1.1-0.9,2-0.9c1.7,0,2.6,1,2.6,3.2c0,2-0.9,3.5-2.9,3.5C12,73.1,11,71.2,11,68.6z M15.6,69.6c0-1.6-0.4-2.2-1.6-2.2
				c-0.7,0-1.3,0.3-1.6,0.8v0.8c0,2.1,0.6,3.1,1.7,3.1C15.1,72.1,15.6,71.3,15.6,69.6z"/>
			<path d="M18.7,67.7c0-3.1,0.7-5.4,3-5.4c2.2,0,3,2.2,3,5.4s-0.8,5.4-3,5.4C19.4,73.1,18.7,70.9,18.7,67.7z M23.2,67.7
				c0-2.9-0.4-4.3-1.6-4.3c-1.2,0-1.6,1.4-1.6,4.3c0,2.9,0.4,4.3,1.6,4.3C22.8,72,23.2,70.7,23.2,67.7z"/>
		</g>
	</g>
	<g>
		<g>
			<path d="M14.4,154.4l0.1-1.3h-3.8l-0.2-1.1l3.8-6.7h1.3v5.4l-0.1,1.4h1.5l-0.1,1h-1.4l0.1,1.3v1.3h-1.2V154.4z M12.9,152.1h1.6
				l-0.1-1.4V149l0.3-2.4h-0.1l-1.1,2.5l-0.8,1.5l-1.2,1.5l0,0.1L12.9,152.1z"/>
			<path d="M18.7,150.5c0-3.1,0.7-5.4,3-5.4c2.2,0,3,2.2,3,5.4s-0.8,5.4-3,5.4C19.4,155.9,18.7,153.7,18.7,150.5z M23.2,150.5
				c0-2.9-0.4-4.3-1.6-4.3c-1.2,0-1.6,1.4-1.6,4.3c0,2.9,0.4,4.3,1.6,4.3C22.8,154.8,23.2,153.5,23.2,150.5z"/>
		</g>
	</g>
	<g>
		<g>
			<path d="M11,197.8l0.5-1h0.2c0.5,0.5,1.1,0.8,1.9,0.8c1.3,0,1.9-0.8,1.9-1.9c0-1.3-0.6-2-2.2-2h-0.7l-0.1-1h0.7
				c1.4,0,2-0.8,2-1.9c0-1.2-0.5-1.7-1.5-1.7c-0.7,0-1.2,0.3-1.6,0.7h-0.2l-0.4-0.9c0.5-0.5,1.4-0.9,2.4-0.9c1.7,0,2.7,0.8,2.7,2.6
				c0,1.3-1,2.2-1.9,2.4v0.2c1.5,0.1,2.4,1.1,2.4,2.6c0,1.7-1,2.9-3.2,2.9C12.6,198.7,11.5,198.3,11,197.8z"/>
			<path d="M18.7,193.3c0-3.2,0.7-5.4,3-5.4c2.2,0,3,2.2,3,5.4c0,3.1-0.8,5.4-3,5.4C19.4,198.7,18.7,196.5,18.7,193.3z M23.2,193.3
				c0-2.9-0.4-4.3-1.6-4.3c-1.2,0-1.6,1.4-1.6,4.3c0,2.9,0.4,4.3,1.6,4.3C22.8,197.6,23.2,196.3,23.2,193.3z"/>
		</g>
	</g>
	<g>
		<g>
			<path d="M14.4,237c0.7-1.2,1-2,1-3.2c0-1.2-0.5-1.9-1.5-1.9c-0.7,0-1.3,0.3-1.7,0.9h-0.3l-0.5-0.9c0.5-0.5,1.4-1.1,2.5-1.1
				c1.8,0,2.9,0.9,2.9,3c0,1.5-0.5,2.7-1.5,3.9c-1,1.3-1.7,1.9-2.6,2.4l0,0.1h4.2l-0.1,1.1h-5.2l-0.2-1.1
				C12.9,238.9,13.8,237.9,14.4,237z"/>
			<path d="M18.7,236.1c0-3.1,0.7-5.4,3-5.4c2.2,0,3,2.2,3,5.4c0,3.2-0.8,5.4-3,5.4C19.4,241.5,18.7,239.3,18.7,236.1z M23.2,236.1
				c0-2.9-0.4-4.3-1.6-4.3c-1.2,0-1.6,1.4-1.6,4.3c0,2.9,0.4,4.3,1.6,4.3C22.8,240.4,23.2,239.1,23.2,236.1z"/>
		</g>
	</g>
	<g>
		<g>
			<path d="M12,283.2h2l-0.1-1.7v-4.7l0.3-2H14c-0.6,0.4-1.1,0.7-1.8,0.9H12l-0.2-1c0.9-0.2,1.8-0.6,2.6-1l0.8,0.2v7.7l-0.1,1.7h2
				v0.9H12V283.2z"/>
			<path d="M18.7,278.9c0-3.1,0.7-5.4,3-5.4c2.2,0,3,2.2,3,5.4c0,3.2-0.8,5.4-3,5.4C19.4,284.3,18.7,282.1,18.7,278.9z M23.2,278.9
				c0-2.9-0.4-4.3-1.6-4.3c-1.2,0-1.6,1.4-1.6,4.3c0,2.9,0.4,4.3,1.6,4.3C22.8,283.2,23.2,281.9,23.2,278.9z"/>
		</g>
	</g>
	<g>
		<path d="M18.7,320.8c0-3.2,0.7-5.4,3-5.4c2.2,0,3,2.2,3,5.4c0,3.1-0.8,5.4-3,5.4C19.4,326.1,18.7,323.9,18.7,320.8z M23.2,320.8
			c0-2.9-0.4-4.3-1.6-4.3c-1.2,0-1.6,1.4-1.6,4.3c0,2.9,0.4,4.3,1.6,4.3C22.8,325.1,23.2,323.7,23.2,320.8z"/>
	</g>
</g>
<rect x="43.5" y="76.7" fill="#FFFFFF" width="223.7" height="81.7"/>
<g>
	<g>
		<g>
			<path d="M204.5,132.2c-0.7,0.6-1.8,1.2-3.4,1.2c-3.2,0-5-2.3-5-5.5c0-3.2,2-5.5,5.1-5.5c1.4,0,2.5,0.5,3.2,1l-0.6,1.1h-0.2
				c-0.6-0.5-1.3-0.9-2.3-0.9c-2.2,0-3.6,1.6-3.6,4.2c0,2.6,1.4,4.3,3.6,4.3c1.1,0,1.8-0.4,2.3-0.9h0.2L204.5,132.2z"/>
			<path d="M207,121.9h0.2v4.6h0.1c0.6-0.7,1.6-1.3,2.8-1.3c1.6,0,2.3,0.8,2.3,2.3l0,5.7h-1.5v-5.4c0-1.1-0.3-1.5-1.4-1.5
				c-0.8,0-1.6,0.4-2.2,1l0,5.9h-1.5V122L207,121.9z"/>
			<path d="M215,122.2c0.5,0,0.9,0.3,0.9,0.8c0,0.5-0.4,0.8-0.9,0.8s-0.8-0.3-0.8-0.8S214.6,122.2,215,122.2z M215.6,125.2h0.2v7.9
				h-1.5v-7.8L215.6,125.2z"/>
			<path d="M218.8,125.2h0.2l0.1,1.2h0.1c0.5-0.7,1.6-1.3,2.8-1.3c1.6,0,2.3,0.8,2.3,2.3v5.7h-1.5v-5.4c0-1-0.4-1.5-1.4-1.5
				c-0.8,0-1.6,0.4-2.2,1v5.9h-1.5l0-7.8L218.8,125.2z"/>
			<path d="M225.9,125.8c0.8-0.4,1.8-0.7,2.9-0.7c1.9,0,2.8,0.8,2.8,2.3v4.3c0,0.5,0.2,0.7,0.5,0.7c0.2,0,0.3-0.1,0.4-0.1h0.1
				l0.2,0.8c-0.3,0.2-0.7,0.3-1.1,0.3c-0.8,0-1.3-0.3-1.4-1.1h-0.1c-0.3,0.6-1.2,1.1-2.2,1.1c-1.3,0-2.2-0.6-2.2-2
				c0-1.2,0.7-1.8,2.1-2.2l2.3-0.7v-0.6c0-1-0.3-1.5-1.6-1.5c-0.8,0-1.5,0.2-2.1,0.5h-0.2L225.9,125.8z M230.1,129.3l-1.8,0.6
				c-0.9,0.3-1.2,0.7-1.2,1.4c0,0.9,0.5,1.2,1.1,1.2c0.6,0,1.4-0.3,1.8-0.8V129.3z"/>
		</g>
		<g>
			<path d="M198.4,80.2h1.6v8.3c0,1.6-1,2.4-2.5,2.4c-0.8,0-1.5-0.2-1.8-0.4l0.4-1.1h0.1c0.2,0.1,0.6,0.3,0.9,0.3
				c0.9,0,1.2-0.3,1.2-1.3V80.2z"/>
			<path d="M201.7,83.5c0.8-0.4,1.8-0.7,2.9-0.7c1.9,0,2.8,0.8,2.8,2.3v4.3c0,0.5,0.2,0.7,0.5,0.7c0.2,0,0.3-0.1,0.4-0.1h0.1
				l0.2,0.8c-0.3,0.2-0.7,0.3-1.1,0.3c-0.8,0-1.3-0.3-1.4-1.1H206c-0.3,0.6-1.2,1.1-2.2,1.1c-1.3,0-2.2-0.6-2.2-2
				c0-1.2,0.7-1.8,2.1-2.2l2.3-0.7v-0.6c0-1-0.3-1.5-1.6-1.5c-0.8,0-1.5,0.2-2.1,0.5h-0.2L201.7,83.5z M205.9,86.9l-1.8,0.6
				c-0.9,0.3-1.2,0.7-1.2,1.4c0,0.9,0.5,1.2,1.1,1.2c0.6,0,1.4-0.3,1.8-0.8V86.9z"/>
			<path d="M210.8,82.9h0.3l0,1h0.1c0.5-0.6,1.3-1.1,2.4-1.1c1.9,0,3.1,1.3,3.1,4c0,3-1.6,4.2-3.7,4.2c-0.7,0-1.3-0.1-1.8-0.4v3.6
				h-1.5V83L210.8,82.9z M211.2,89.5c0.5,0.3,1,0.5,1.6,0.5c1.4,0,2.4-0.7,2.4-3.1c0-2.2-0.8-2.9-2.1-2.9c-0.7,0-1.4,0.3-1.9,0.8
				V89.5z"/>
			<path d="M218,83.5c0.8-0.4,1.8-0.7,2.9-0.7c1.9,0,2.8,0.8,2.8,2.3v4.3c0,0.5,0.2,0.7,0.5,0.7c0.2,0,0.3-0.1,0.4-0.1h0.1l0.2,0.8
				c-0.3,0.2-0.7,0.3-1.1,0.3c-0.8,0-1.3-0.3-1.4-1.1h-0.1c-0.3,0.6-1.2,1.1-2.2,1.1c-1.3,0-2.2-0.6-2.2-2c0-1.2,0.7-1.8,2.1-2.2
				l2.3-0.7v-0.6c0-1-0.3-1.5-1.6-1.5c-0.8,0-1.5,0.2-2.1,0.5h-0.2L218,83.5z M222.2,86.9l-1.8,0.6c-0.9,0.3-1.2,0.7-1.2,1.4
				c0,0.9,0.5,1.2,1.1,1.2c0.6,0,1.4-0.3,1.8-0.8V86.9z"/>
			<path d="M227,82.9h0.2l0.1,1.2h0.1c0.5-0.7,1.6-1.3,2.8-1.3c1.6,0,2.3,0.8,2.3,2.3v5.7H231v-5.4c0-1-0.4-1.5-1.4-1.5
				c-0.8,0-1.6,0.4-2.2,1v5.9H226l0-7.8L227,82.9z"/>
		</g>
		<g>
			<path d="M198.6,101.4l3,8.5h0.1l3-8.5h2V112h-1.4c0-0.2,0-8.6,0-8.8h-0.1l-3,8.8h-1.3l-3-8.8h-0.1l0,8.8h-1.3v-10.6H198.6z"/>
			<path d="M208.4,104.7c0.8-0.4,1.8-0.7,2.9-0.7c1.9,0,2.8,0.8,2.8,2.3v4.3c0,0.5,0.2,0.7,0.5,0.7c0.2,0,0.3-0.1,0.4-0.1h0.1
				l0.2,0.8c-0.3,0.2-0.7,0.3-1.1,0.3c-0.8,0-1.3-0.3-1.4-1.1h-0.1c-0.3,0.6-1.2,1.1-2.2,1.1c-1.3,0-2.2-0.6-2.2-2
				c0-1.2,0.7-1.8,2.1-2.2l2.3-0.7v-0.6c0-1-0.3-1.5-1.6-1.5c-0.8,0-1.5,0.2-2.1,0.5h-0.2L208.4,104.7z M212.6,108.1l-1.8,0.6
				c-0.9,0.3-1.2,0.7-1.2,1.4c0,0.9,0.5,1.2,1.1,1.2c0.6,0,1.4-0.3,1.8-0.8V108.1z"/>
			<path d="M217.9,112h-1.5v-11.1l1.2-0.2h0.3V112z"/>
			<path d="M219.5,104.7c0.8-0.4,1.8-0.7,2.9-0.7c1.9,0,2.8,0.8,2.8,2.3v4.3c0,0.5,0.2,0.7,0.5,0.7c0.2,0,0.3-0.1,0.4-0.1h0.1
				l0.2,0.8c-0.3,0.2-0.7,0.3-1.1,0.3c-0.8,0-1.3-0.3-1.4-1.1h-0.1c-0.3,0.6-1.2,1.1-2.2,1.1c-1.3,0-2.2-0.6-2.2-2
				c0-1.2,0.7-1.8,2.1-2.2l2.3-0.7v-0.6c0-1-0.3-1.5-1.6-1.5c-0.8,0-1.5,0.2-2.1,0.5h-0.2L219.5,104.7z M223.7,108.1l-1.8,0.6
				c-0.9,0.3-1.2,0.7-1.2,1.4c0,0.9,0.5,1.2,1.1,1.2c0.6,0,1.4-0.3,1.8-0.8V108.1z"/>
			<path d="M228.9,113l0.3-0.9l-2.9-7.8v-0.2h1.5l1.7,5.2l0.3,1.1h0.1l0.3-1.1l1.8-5.2h1.2v0.2l-3.2,8.8c-0.6,1.6-1.1,2.2-2.4,2.2
				c-0.5,0-0.9-0.1-1.2-0.2l0.2-1h0.1c0.2,0.1,0.5,0.2,0.7,0.2C228.2,114.3,228.5,114.1,228.9,113z"/>
			<path d="M238.9,105.7h-0.2c-0.4-0.4-0.9-0.6-1.8-0.6s-1.4,0.3-1.4,1c0,0.7,0.5,1,1.7,1.4c1.6,0.5,2.5,1,2.5,2.4
				c0,1.5-1,2.4-2.9,2.4c-1.2,0-2.2-0.4-2.8-0.9l0.5-0.9h0.2c0.5,0.5,1.3,0.9,2.2,0.9c1,0,1.5-0.3,1.5-1.1c0-0.8-0.4-1-2-1.5
				c-1.4-0.4-2.1-1.1-2.1-2.4c0-1.4,1.2-2.2,2.7-2.2c1.1,0,1.9,0.3,2.5,0.8L238.9,105.7z"/>
			<path d="M241.9,101c0.5,0,0.9,0.3,0.9,0.8c0,0.5-0.4,0.8-0.9,0.8c-0.5,0-0.8-0.3-0.8-0.8S241.4,101,241.9,101z M242.4,104.1h0.2
				v7.9h-1.5v-7.8L242.4,104.1z"/>
			<path d="M244.3,104.7c0.8-0.4,1.8-0.7,2.9-0.7c1.9,0,2.8,0.8,2.8,2.3v4.3c0,0.5,0.2,0.7,0.5,0.7c0.2,0,0.3-0.1,0.4-0.1h0.1
				l0.2,0.8c-0.3,0.2-0.7,0.3-1.1,0.3c-0.8,0-1.3-0.3-1.4-1.1h-0.1c-0.3,0.6-1.2,1.1-2.2,1.1c-1.3,0-2.2-0.6-2.2-2
				c0-1.2,0.7-1.8,2.1-2.2l2.3-0.7v-0.6c0-1-0.3-1.5-1.6-1.5c-0.8,0-1.5,0.2-2.1,0.5h-0.2L244.3,104.7z M248.5,108.1l-1.8,0.6
				c-0.9,0.3-1.2,0.7-1.2,1.4c0,0.9,0.5,1.2,1.1,1.2s1.4-0.3,1.8-0.8V108.1z"/>
		</g>
		<g>
			<path d="M196.5,154.3v-10.6h1.6v10.6H196.5z"/>
			<path d="M201.2,146.4h0.2l0.1,1.2h0.1c0.5-0.7,1.6-1.3,2.8-1.3c1.6,0,2.3,0.8,2.3,2.3v5.7h-1.5V149c0-1-0.4-1.5-1.4-1.5
				c-0.8,0-1.6,0.4-2.2,1v5.9h-1.5l0-7.8L201.2,146.4z"/>
			<path d="M214.8,143h0.2v11.3h-1.2l-0.1-0.9h-0.1c-0.4,0.7-1.2,1.1-2.2,1.1c-2,0-3.3-1.3-3.3-4.1c0-2.8,1.7-4.1,3.6-4.1
				c0.9,0,1.3,0.2,1.8,0.4v-3.5L214.8,143z M213.6,147.7c-0.4-0.3-0.9-0.4-1.6-0.4c-1.3,0-2.3,0.9-2.3,3.1c0,2.2,0.9,3.1,2.1,3.1
				c0.8,0,1.4-0.4,1.8-0.9V147.7z"/>
			<path d="M220.3,146.3c2.1,0,3.7,1.4,3.7,4.1c0,2.6-1.5,4.1-3.7,4.1c-2.1,0-3.7-1.4-3.7-4.1C216.6,147.8,218.1,146.3,220.3,146.3z
				 M220.3,147.3c-1.4,0-2.2,0.9-2.2,3.1s0.8,3,2.2,3c1.3,0,2.2-0.9,2.2-3.1C222.5,148.2,221.6,147.3,220.3,147.3z"/>
			<path d="M226.6,146.4h0.2l0.1,1.2h0.1c0.5-0.7,1.6-1.3,2.8-1.3c1.6,0,2.3,0.8,2.3,2.3v5.7h-1.5V149c0-1-0.4-1.5-1.4-1.5
				c-0.8,0-1.6,0.4-2.2,1v5.9h-1.5l0-7.8L226.6,146.4z"/>
			<path d="M235.1,150.7c0.1,1.7,0.8,2.8,2.6,2.8c1,0,1.5-0.3,2.1-0.8h0.2l0.5,0.8c-0.6,0.6-1.6,1-3,1c-2.4,0-3.8-1.6-3.8-4.2
				c0-2.6,1.6-4,3.5-4c2.3,0,3.3,1.4,3.3,4.4H235.1z M235.1,149.8l3.8-0.1c0-1.6-0.5-2.5-1.8-2.5
				C235.8,147.3,235.2,148.3,235.1,149.8z"/>
			<path d="M246.4,148h-0.2c-0.4-0.4-0.9-0.6-1.8-0.6s-1.4,0.3-1.4,1c0,0.7,0.5,1,1.7,1.4c1.6,0.5,2.5,1,2.5,2.4
				c0,1.5-1,2.4-2.9,2.4c-1.2,0-2.2-0.4-2.8-0.9l0.5-0.9h0.2c0.5,0.5,1.3,0.9,2.2,0.9c1,0,1.5-0.3,1.5-1.1c0-0.8-0.4-1-2-1.5
				c-1.4-0.4-2.1-1.1-2.1-2.4c0-1.4,1.2-2.2,2.7-2.2c1.1,0,1.9,0.3,2.5,0.8L246.4,148z"/>
			<path d="M249.4,143.3c0.5,0,0.9,0.3,0.9,0.8c0,0.5-0.4,0.8-0.9,0.8c-0.5,0-0.8-0.3-0.8-0.8S248.9,143.3,249.4,143.3z
				 M249.9,146.4h0.2v7.9h-1.5v-7.8L249.9,146.4z"/>
			<path d="M251.8,147c0.8-0.4,1.8-0.7,2.9-0.7c1.9,0,2.8,0.8,2.8,2.3v4.3c0,0.5,0.2,0.7,0.5,0.7c0.2,0,0.3-0.1,0.4-0.1h0.1l0.2,0.8
				c-0.3,0.2-0.7,0.3-1.1,0.3c-0.8,0-1.3-0.3-1.4-1.1H256c-0.3,0.6-1.2,1.1-2.2,1.1c-1.3,0-2.2-0.6-2.2-2c0-1.2,0.7-1.8,2.1-2.2
				l2.3-0.7v-0.6c0-1-0.3-1.5-1.6-1.5c-0.8,0-1.5,0.2-2.1,0.5h-0.2L251.8,147z M256,150.4l-1.8,0.6c-0.9,0.3-1.2,0.7-1.2,1.4
				c0,0.9,0.5,1.2,1.1,1.2s1.4-0.3,1.8-0.8V150.4z"/>
		</g>
		<line fill="none" stroke="#00A33D" stroke-width="2" x1="184.2" y1="85.6" x2="168.3" y2="85.6"/>
		<line fill="none" stroke="#FFD441" stroke-width="2" x1="184.2" y1="106.6" x2="168.3" y2="106.6"/>
		<line fill="none" stroke="#FF7F00" stroke-width="2" x1="184.2" y1="127.6" x2="168.3" y2="127.6"/>
		<line fill="none" stroke="#356406" stroke-width="2" x1="184.2" y1="148.6" x2="168.3" y2="148.6"/>
	</g>
	<g>
		<g>
			<path d="M80,108.1v-6.7h1.6v6.8c0,3.1-1.8,4-4.2,4s-4.2-1-4.2-4v-6.8h1.6v6.7c0,2.2,1.1,2.9,2.6,2.9C78.9,111,80,110.3,80,108.1z
				"/>
			<path d="M83.4,109.9h0.2c0.6,0.6,1.5,1.1,2.8,1.1c1.5,0,2.1-0.5,2.1-1.6c0-1-0.6-1.5-2.4-2.2c-2-0.8-2.8-1.6-2.8-3.2
				c0-1.8,1.5-2.8,3.5-2.8c1.4,0,2.3,0.5,2.9,1l-0.6,1h-0.2c-0.5-0.5-1.2-0.9-2.1-0.9c-1.2,0-2,0.5-2,1.5c0,0.9,0.5,1.3,2.1,2
				c2.1,0.8,3,1.6,3,3.4c0,1.9-1.3,2.9-3.5,2.9c-1.5,0-2.8-0.6-3.6-1.3L83.4,109.9z"/>
		</g>
		<g>
			<path d="M80,129.3v-6.7h1.6v6.8c0,3.1-1.8,4-4.2,4s-4.2-1-4.2-4v-6.8h1.6v6.7c0,2.2,1.1,2.9,2.6,2.9
				C78.9,132.2,80,131.5,80,129.3z"/>
			<path d="M85.3,122.6v4.9h0.1l4.1-4.9H91v0.1l-3.8,4.4l4.1,5.9v0.1h-1.7l-3.5-5l-0.9,1.1v3.9h-1.6v-10.6H85.3z"/>
		</g>
		<g>
			<path d="M73.2,154.3v-10.6h1.6v4.4h5.1v-4.4h1.6v10.6h-1.6v-4.9h-5.1v4.9H73.2z"/>
			<path d="M86.8,146.3c2.1,0,3.7,1.4,3.7,4.1c0,2.6-1.5,4.1-3.7,4.1c-2.1,0-3.7-1.4-3.7-4.1C83.1,147.8,84.6,146.3,86.8,146.3z
				 M86.8,147.3c-1.4,0-2.2,0.9-2.2,3.1s0.8,3,2.2,3c1.3,0,2.2-0.9,2.2-3.1C89,148.2,88.1,147.3,86.8,147.3z"/>
			<path d="M93.1,146.4h0.2l0.1,1.2h0.1c0.5-0.7,1.6-1.3,2.8-1.3c1.6,0,2.3,0.8,2.3,2.3v5.7h-1.5V149c0-1-0.4-1.5-1.4-1.5
				c-0.8,0-1.6,0.4-2.2,1v5.9H92l0-7.8L93.1,146.4z"/>
			<path d="M103.2,151.8c-0.4,0-0.8-0.1-1.2-0.2c-0.2,0.1-0.3,0.4-0.3,0.7c0,0.5,0.3,0.8,1,0.8h2.1c1.6,0,2.4,0.7,2.4,2
				c0,1.5-1.5,2.7-4,2.7c-2.4,0-3.7-0.7-3.7-2.1c0-0.8,0.7-1.5,1.6-1.6v-0.1c-0.4-0.3-0.7-0.7-0.7-1.2c0-0.6,0.4-1.1,0.9-1.2v-0.1
				c-0.8-0.5-1.2-1.3-1.2-2.3c0-1.5,1-2.8,3-2.8c0.8,0,1.5,0.2,2,0.6h0.1c0.3-0.6,1.2-1.1,1.8-1.1l0,1.1c-0.5,0-1.1,0.3-1.4,0.6
				c0.3,0.4,0.5,1,0.5,1.6C106.2,150.6,105.1,151.8,103.2,151.8z M102.1,154.2c-0.7,0.1-1.3,0.5-1.3,1.3c0,0.9,0.9,1.3,2.5,1.3
				c1.7,0,2.7-0.6,2.7-1.5c0-0.8-0.4-1-1.3-1H102.1z M103.2,147.2c-1,0-1.7,0.6-1.7,1.9c0,1.2,0.6,1.8,1.7,1.8
				c1.1,0,1.7-0.6,1.7-1.8C104.9,147.9,104.3,147.2,103.2,147.2z"/>
			<path d="M113.4,143.7v4.9h0.1l4.1-4.9h1.5v0.1l-3.8,4.4l4.1,5.9v0.1h-1.7l-3.5-5l-0.9,1.1v3.9h-1.6v-10.6H113.4z"/>
			<path d="M123.5,146.3c2.1,0,3.7,1.4,3.7,4.1c0,2.6-1.5,4.1-3.7,4.1c-2.1,0-3.7-1.4-3.7-4.1C119.8,147.8,121.3,146.3,123.5,146.3z
				 M123.5,147.3c-1.4,0-2.2,0.9-2.2,3.1s0.8,3,2.2,3c1.3,0,2.2-0.9,2.2-3.1C125.7,148.2,124.9,147.3,123.5,147.3z"/>
			<path d="M129.8,146.4h0.2l0.1,1.2h0.1c0.5-0.7,1.6-1.3,2.8-1.3c1.6,0,2.3,0.8,2.3,2.3v5.7h-1.5V149c0-1-0.4-1.5-1.4-1.5
				c-0.8,0-1.6,0.4-2.2,1v5.9h-1.5l0-7.8L129.8,146.4z"/>
			<path d="M139.9,151.8c-0.4,0-0.8-0.1-1.2-0.2c-0.2,0.1-0.3,0.4-0.3,0.7c0,0.5,0.3,0.8,1,0.8h2.1c1.6,0,2.4,0.7,2.4,2
				c0,1.5-1.5,2.7-4,2.7c-2.4,0-3.7-0.7-3.7-2.1c0-0.8,0.7-1.5,1.6-1.6v-0.1c-0.4-0.3-0.7-0.7-0.7-1.2c0-0.6,0.4-1.1,0.9-1.2v-0.1
				c-0.8-0.5-1.2-1.3-1.2-2.3c0-1.5,1-2.8,3-2.8c0.8,0,1.5,0.2,2,0.6h0.1c0.3-0.6,1.2-1.1,1.8-1.1l0,1.1c-0.5,0-1.1,0.3-1.4,0.6
				c0.3,0.4,0.5,1,0.5,1.6C142.9,150.6,141.8,151.8,139.9,151.8z M138.8,154.2c-0.7,0.1-1.3,0.5-1.3,1.3c0,0.9,0.9,1.3,2.5,1.3
				c1.7,0,2.7-0.6,2.7-1.5c0-0.8-0.4-1-1.3-1H138.8z M139.9,147.2c-1,0-1.7,0.6-1.7,1.9c0,1.2,0.6,1.8,1.7,1.8
				c1.1,0,1.7-0.6,1.7-1.8C141.6,147.9,141,147.2,139.9,147.2z"/>
		</g>
		<g>
			<path d="M73.1,88.7h0.2c0.6,0.6,1.5,1.1,2.8,1.1c1.5,0,2.1-0.5,2.1-1.6c0-1-0.6-1.5-2.4-2.2c-2-0.8-2.8-1.6-2.8-3.2
				c0-1.8,1.5-2.8,3.5-2.8c1.4,0,2.3,0.5,2.9,1l-0.6,1h-0.2c-0.5-0.5-1.2-0.9-2.1-0.9c-1.2,0-2,0.5-2,1.5c0,0.9,0.5,1.3,2.1,2
				c2.1,0.8,3,1.6,3,3.4c0,1.9-1.3,2.9-3.5,2.9c-1.5,0-2.8-0.6-3.6-1.3L73.1,88.7z"/>
			<path d="M81.9,79.8c0.5,0,0.9,0.3,0.9,0.8c0,0.5-0.4,0.8-0.9,0.8s-0.8-0.3-0.8-0.8S81.4,79.8,81.9,79.8z M82.4,82.9h0.2v7.9h-1.5
				V83L82.4,82.9z"/>
			<path d="M85.7,82.9h0.2l0.1,1.2h0.1c0.5-0.7,1.6-1.3,2.8-1.3c1.6,0,2.3,0.8,2.3,2.3v5.7h-1.5v-5.4c0-1-0.4-1.5-1.4-1.5
				c-0.8,0-1.6,0.4-2.2,1v5.9h-1.5l0-7.8L85.7,82.9z"/>
			<path d="M95.8,88.3c-0.4,0-0.8-0.1-1.2-0.2c-0.2,0.1-0.3,0.4-0.3,0.7c0,0.5,0.3,0.8,1,0.8h2.1c1.6,0,2.4,0.7,2.4,2
				c0,1.5-1.5,2.7-4,2.7c-2.4,0-3.7-0.7-3.7-2.1c0-0.8,0.7-1.5,1.6-1.6v-0.1c-0.4-0.3-0.7-0.7-0.7-1.2c0-0.6,0.4-1.1,0.9-1.2v-0.1
				c-0.8-0.5-1.2-1.3-1.2-2.3c0-1.5,1-2.8,3-2.8c0.8,0,1.5,0.2,2,0.6h0.1c0.3-0.6,1.2-1.1,1.8-1.1l0,1.1c-0.5,0-1.1,0.3-1.4,0.6
				c0.3,0.4,0.5,1,0.5,1.6C98.8,87.1,97.7,88.3,95.8,88.3z M94.7,90.7c-0.7,0.1-1.3,0.5-1.3,1.3c0,0.9,0.9,1.3,2.5,1.3
				c1.7,0,2.7-0.6,2.7-1.5c0-0.8-0.4-1-1.3-1H94.7z M95.8,83.7c-1,0-1.7,0.6-1.7,1.9c0,1.2,0.6,1.8,1.7,1.8c1.1,0,1.7-0.6,1.7-1.8
				C97.4,84.4,96.8,83.7,95.8,83.7z"/>
			<path d="M100.7,83.5c0.8-0.4,1.8-0.7,2.9-0.7c1.9,0,2.8,0.8,2.8,2.3v4.3c0,0.5,0.2,0.7,0.5,0.7c0.2,0,0.3-0.1,0.4-0.1h0.1
				l0.2,0.8c-0.3,0.2-0.7,0.3-1.1,0.3c-0.8,0-1.3-0.3-1.4-1.1H105c-0.3,0.6-1.2,1.1-2.2,1.1c-1.3,0-2.2-0.6-2.2-2
				c0-1.2,0.7-1.8,2.1-2.2l2.3-0.7v-0.6c0-1-0.3-1.5-1.6-1.5c-0.8,0-1.5,0.2-2.1,0.5h-0.2L100.7,83.5z M104.9,86.9l-1.8,0.6
				c-0.9,0.3-1.2,0.7-1.2,1.4c0,0.9,0.5,1.2,1.1,1.2c0.6,0,1.4-0.3,1.8-0.8V86.9z"/>
			<path d="M109.8,82.9h0.3l0,1h0.1c0.5-0.6,1.3-1.1,2.4-1.1c1.9,0,3.1,1.3,3.1,4c0,3-1.6,4.2-3.7,4.2c-0.7,0-1.3-0.1-1.8-0.4v3.6
				h-1.5V83L109.8,82.9z M110.2,89.5c0.5,0.3,1,0.5,1.6,0.5c1.4,0,2.4-0.7,2.4-3.1c0-2.2-0.8-2.9-2.1-2.9c-0.7,0-1.4,0.3-1.9,0.8
				V89.5z"/>
			<path d="M120.6,82.8c2.1,0,3.7,1.4,3.7,4.1c0,2.6-1.5,4.1-3.7,4.1c-2.1,0-3.7-1.4-3.7-4.1C116.9,84.3,118.4,82.8,120.6,82.8z
				 M120.6,83.8c-1.4,0-2.2,0.9-2.2,3.1s0.8,3,2.2,3c1.3,0,2.2-0.9,2.2-3.1C122.8,84.7,121.9,83.8,120.6,83.8z"/>
			<path d="M127.3,84.1c0.3-0.7,1.1-1.3,2-1.3c0.4,0,0.6,0,0.8,0.1l-0.2,1.4h-0.2c-0.2-0.1-0.4-0.1-0.7-0.1c-0.7,0-1.3,0.4-1.6,0.9
				v5.7h-1.5V83l1.1-0.1h0.2l0.1,1.2H127.3z"/>
			<path d="M132,87.2c0.1,1.7,0.8,2.8,2.6,2.8c1,0,1.5-0.3,2.1-0.8h0.2l0.5,0.8c-0.6,0.6-1.6,1-3,1c-2.4,0-3.8-1.6-3.8-4.2
				c0-2.6,1.6-4,3.5-4c2.3,0,3.3,1.4,3.3,4.4H132z M132,86.3l3.8-0.1c0-1.6-0.5-2.5-1.8-2.5C132.7,83.8,132.1,84.8,132,86.3z"/>
		</g>
		<line fill="none" stroke="#9E0047" stroke-width="2" x1="62.4" y1="85.6" x2="46.4" y2="85.6"/>
		<line fill="none" stroke="#00A0C6" stroke-width="2" x1="62.4" y1="106.6" x2="46.4" y2="106.6"/>
		<line fill="none" stroke="#FF0000" stroke-width="2" stroke-linecap="round" x1="62.4" y1="127.6" x2="46.4" y2="127.6"/>
		<line fill="none" stroke="#0060B6" stroke-width="2" stroke-linecap="round" x1="62.4" y1="148.6" x2="46.4" y2="148.6"/>
	</g>
</g>
<g>
	<g>
		<path fill="#AFAAA9" d="M12.6,368.7h0.2c0.5,0.6,1.4,1.3,2.9,1.3c1.3,0,2.3-0.6,2.3-1.8c0-1.1-0.7-1.8-2-2.5
			c-1.6-0.9-2.4-1.7-2.4-2.9c0-1.7,1.2-2.8,3.4-2.8c1.5,0,2.4,0.6,2.9,1.1l-0.6,0.7h-0.2c-0.4-0.4-1-0.9-2.1-0.9
			c-1.5,0-2.3,0.7-2.3,1.8c0,0.7,0.5,1.4,1.8,2.2c1.9,1.1,2.6,1.9,2.6,3.4c0,1.6-1.1,2.8-3.4,2.8c-1.7,0-2.9-0.6-3.7-1.5L12.6,368.7
			z"/>
		<path fill="#AFAAA9" d="M24.4,362.7c2,0,3.1,1.4,3.1,3.3c0,2.7-1.6,4.8-4,4.8c-2.1,0-3.1-1.4-3.1-3.3
			C20.4,364.9,22,362.7,24.4,362.7z M24.4,363.5c-1.3,0-2.1,0.9-2.6,2c-0.2,0.6-0.3,1.3-0.3,2c0,1.6,0.7,2.5,2.1,2.5
			c1.3,0,2.1-0.9,2.5-2.1c0.2-0.6,0.3-1.3,0.3-2C26.3,364.4,25.6,363.5,24.4,363.5z"/>
		<path fill="#AFAAA9" d="M29.6,362.9l1-0.1h0.1l-1,5c-0.1,0.3-0.1,0.6-0.1,0.8c0,1,0.5,1.3,1.4,1.3c0.8,0,1.6-0.4,2.3-1.3l1.1-5.8
			l0.9-0.1h0.2l-1.5,7.9h-0.8l0.1-1.2h-0.1c-0.5,0.7-1.5,1.3-2.6,1.3c-1.5,0-2.2-0.9-2.2-2.1c0-0.3,0-0.6,0.1-0.9L29.6,362.9z"/>
		<path fill="#AFAAA9" d="M38.3,362.8h0.1l0,1.3h0.1c0.5-0.9,1.2-1.4,2.1-1.4c0.3,0,0.5,0,0.6,0.1l-0.3,1h-0.1
			c-0.1-0.1-0.2-0.1-0.5-0.1c-0.6,0-1.2,0.3-2.1,1.4l-1.1,5.5H36l1.5-7.8L38.3,362.8z"/>
		<path fill="#AFAAA9" d="M45.1,362.7c1,0,1.9,0.3,2.4,0.7l-0.5,0.7h-0.2c-0.3-0.3-1-0.6-1.7-0.6c-1.9,0-2.9,1.7-2.9,4
			c0,1.6,0.9,2.4,2.2,2.4c0.8,0,1.4-0.3,1.9-0.8h0.1l0.3,0.7c-0.4,0.5-1.3,1-2.5,1c-1.9,0-3.1-1.2-3.1-3.3
			C41.1,364.5,42.7,362.7,45.1,362.7z"/>
		<path fill="#AFAAA9" d="M51.8,362.7c1.6,0,2.2,0.8,2.2,1.9c0,1.1-0.5,1.8-2.6,2.3c-0.8,0.2-1.6,0.4-2.7,0.5v0.3
			c0,1.5,0.8,2.3,2,2.3c0.8,0,1.5-0.3,2.2-0.9h0.1l0.3,0.7c-0.8,0.8-1.6,1-2.6,1c-2,0-3.1-1.3-3.1-3.2
			C47.6,365.2,49.1,362.7,51.8,362.7z M48.8,366.7c0.8-0.1,1.6-0.3,2.3-0.5c1.4-0.4,1.8-0.8,1.8-1.6c0-0.6-0.3-1.2-1.3-1.2
			C50.3,363.5,49.1,364.8,48.8,366.7z"/>
		<path fill="#AFAAA9" d="M54.8,369h0.1c0.5,0.6,1.2,1,2.2,1c1,0,1.6-0.5,1.6-1.3c0-0.7-0.4-1.1-1.6-1.6c-1.2-0.6-1.8-1.2-1.8-2.2
			c0-1.5,1.2-2.1,2.6-2.1c1.2,0,1.9,0.4,2.3,0.8l-0.5,0.7h-0.1c-0.4-0.4-0.9-0.7-1.7-0.7c-1,0-1.5,0.5-1.5,1.2c0,0.7,0.5,1,1.4,1.4
			c1.4,0.7,2,1.3,2,2.4c0,1.4-0.9,2.3-2.6,2.3c-1.3,0-2.4-0.6-2.9-1.2L54.8,369z"/>
		<path fill="#AFAAA9" d="M62.3,370.1c0,0.4-0.3,0.8-0.8,0.8c-0.5,0-0.8-0.3-0.8-0.8c0-0.4,0.3-0.8,0.8-0.8
			C62,369.3,62.3,369.6,62.3,370.1z M63.4,364.1c0,0.4-0.3,0.8-0.8,0.8c-0.5,0-0.8-0.3-0.8-0.8c0-0.4,0.3-0.8,0.8-0.8
			C63.1,363.3,63.4,363.7,63.4,364.1z"/>
		<path fill="#AFAAA9" d="M72.7,359.9c2.3,0,4.2,1.4,4.2,4.3c0,3.5-1.7,6.6-5.3,6.6c-2.6,0-4.3-1.8-4.3-4.4
			C67.4,363.3,69.1,359.9,72.7,359.9z M75.8,364.3c0-2.6-1.3-3.6-3.1-3.6c-1.8,0-3.1,1.2-3.7,2.8c-0.3,0.9-0.5,1.8-0.5,2.8
			c0,2.2,1.2,3.6,3.1,3.6c1.9,0,3.1-1.3,3.7-3C75.7,366.1,75.8,365.2,75.8,364.3z"/>
		<path fill="#AFAAA9" d="M80.9,360.1l3.5,8.6h0.1l1.7-8.6h1l-2.1,10.6h-1l-3.6-9h-0.1l-1.7,9h-1l2.1-10.6H80.9z"/>
		<path fill="#AFAAA9" d="M87.6,368.7h0.2c0.5,0.6,1.4,1.3,2.9,1.3c1.3,0,2.3-0.6,2.3-1.8c0-1.1-0.7-1.8-2-2.5
			c-1.6-0.9-2.4-1.7-2.4-2.9c0-1.7,1.2-2.8,3.4-2.8c1.5,0,2.4,0.6,2.9,1.1l-0.6,0.7h-0.2c-0.4-0.4-1-0.9-2.1-0.9
			c-1.5,0-2.3,0.7-2.3,1.8c0,0.7,0.5,1.4,1.8,2.2c1.9,1.1,2.6,1.9,2.6,3.4c0,1.6-1.1,2.8-3.4,2.8c-1.7,0-2.9-0.6-3.7-1.5L87.6,368.7
			z"/>
		<path fill="#AFAAA9" d="M95.9,369.3h1.2l-1.5,3.2h-0.8v-0.1L95.9,369.3z"/>
		<path fill="#AFAAA9" d="M106.3,360.1c2.2,0,3.4,1,3.4,3c0,2.3-1.4,3.5-4.2,3.5h-2l-0.8,4.1h-1.1l2.1-10.6H106.3z M108.5,363
			c0-1.2-0.7-2-2.3-2h-1.6l-0.9,4.6h1.9C107.6,365.6,108.5,364.7,108.5,363z"/>
		<path fill="#AFAAA9" d="M114.2,362.7c1.6,0,2.2,0.8,2.2,1.9c0,1.1-0.5,1.8-2.6,2.3c-0.8,0.2-1.6,0.4-2.7,0.5v0.3
			c0,1.5,0.8,2.3,2,2.3c0.8,0,1.5-0.3,2.2-0.9h0.1l0.3,0.7c-0.8,0.8-1.6,1-2.6,1c-2,0-3.1-1.3-3.1-3.2
			C110,365.2,111.5,362.7,114.2,362.7z M111.2,366.7c0.8-0.1,1.6-0.3,2.3-0.5c1.4-0.4,1.8-0.8,1.8-1.6c0-0.6-0.3-1.2-1.3-1.2
			C112.6,363.5,111.5,364.8,111.2,366.7z"/>
		<path fill="#AFAAA9" d="M119,362.8h0.1l0,1.1h0.1c0.5-0.6,1.4-1.2,2.7-1.2c1.3,0,2.1,0.8,2.1,1.9c0,0.3,0,0.6-0.1,0.8l-1,5.3h-1.1
			l1-5.4c0-0.2,0.1-0.4,0.1-0.6c0-0.8-0.5-1.2-1.3-1.2c-1,0-1.8,0.5-2.5,1.2l-1.1,5.9h-1.1l1.5-7.8L119,362.8z"/>
		<path fill="#AFAAA9" d="M126.9,362.8h0.1l0,1.1h0.1c0.5-0.6,1.4-1.2,2.7-1.2c1.3,0,2.1,0.8,2.1,1.9c0,0.3,0,0.6-0.1,0.8l-1,5.3
			h-1.1l1-5.4c0-0.2,0.1-0.4,0.1-0.6c0-0.8-0.5-1.2-1.3-1.2c-1,0-1.8,0.5-2.5,1.2l-1.1,5.9h-1.1l1.5-7.8L126.9,362.8z"/>
		<path fill="#AFAAA9" d="M136.9,360.1h1l0.6,9.2h0.1l4.2-9.2h1l0.5,9.2h0.1l4.3-9.2h1v0.2l-4.8,10.4h-1.4l-0.5-8.6h-0.1l-3.9,8.6
			h-1.3l-0.8-10.4V360.1z"/>
		<path fill="#AFAAA9" d="M152.8,362.7c2,0,3.1,1.4,3.1,3.3c0,2.7-1.6,4.8-4,4.8c-2.1,0-3.1-1.4-3.1-3.3
			C148.8,364.9,150.4,362.7,152.8,362.7z M152.8,363.5c-1.3,0-2.1,0.9-2.6,2c-0.2,0.6-0.3,1.3-0.3,2c0,1.6,0.7,2.5,2.1,2.5
			c1.3,0,2.1-0.9,2.5-2.1c0.2-0.6,0.3-1.3,0.3-2C154.7,364.4,154,363.5,152.8,363.5z"/>
		<path fill="#AFAAA9" d="M158.8,362.8h0.1l0,1.3h0.1c0.5-0.9,1.2-1.4,2.1-1.4c0.3,0,0.5,0,0.6,0.1l-0.3,1h-0.1
			c-0.1-0.1-0.2-0.1-0.5-0.1c-0.6,0-1.2,0.3-2.1,1.4l-1.1,5.5h-1.1l1.5-7.8L158.8,362.8z"/>
		<path fill="#AFAAA9" d="M164.6,359.4h0.2l-2.2,11.3h-1.1l2.2-11.2L164.6,359.4z"/>
		<path fill="#AFAAA9" d="M169.1,362.7c0.8,0,1.2,0.2,1.6,0.3l0.7-3.5l1-0.1h0.1l-2.2,11.3h-0.8l0-1h-0.1c-0.5,0.7-1.4,1.2-2.3,1.2
			c-1.6,0-2.5-1.2-2.5-3.1C164.7,365.3,166.2,362.7,169.1,362.7z M170.6,363.7c-0.4-0.2-0.8-0.3-1.5-0.3c-2.3,0-3.3,2.2-3.3,4.3
			c0,1.3,0.6,2.3,1.7,2.3c0.9,0,1.6-0.6,2.1-1.1L170.6,363.7z"/>
		<path fill="#AFAAA9" d="M176.3,361l0.2-0.9h7.8l-0.2,0.9h-3.3l-1.9,9.7h-1.1l1.9-9.7H176.3z"/>
		<path fill="#AFAAA9" d="M187.3,362.7c0.8,0,1.5,0.2,2.1,0.3l-1.5,7.6h-0.8l0-1h-0.1c-0.6,0.7-1.4,1.2-2.3,1.2
			c-1.6,0-2.4-1.2-2.4-2.9C182.4,364.7,184.3,362.7,187.3,362.7z M188.2,363.6c-0.3-0.1-0.7-0.2-1-0.2c-2.2,0-3.7,1.7-3.7,4.4
			c0,1.3,0.5,2.1,1.6,2.1c0.9,0,1.8-0.7,2.1-1.2L188.2,363.6z"/>
		<path fill="#AFAAA9" d="M192.1,359.5l1-0.1h0.1l-0.9,4.5h0.1c0.5-0.6,1.3-1.1,2.3-1.1c1.5,0,2.5,1,2.5,3c0,3.1-1.5,5.1-4.4,5.1
			c-1.3,0-2.3-0.3-2.8-0.6L192.1,359.5z M194.4,363.6c-0.9,0-1.7,0.6-2.3,1.3l-1,4.9c0.5,0.2,0.9,0.3,1.7,0.3c2,0,3.2-1.6,3.2-4.4
			C196.1,364.3,195.4,363.6,194.4,363.6z"/>
		<path fill="#AFAAA9" d="M201,359.4h0.2l-2.2,11.3h-1.1l2.2-11.2L201,359.4z"/>
		<path fill="#AFAAA9" d="M205.4,362.7c1.6,0,2.2,0.8,2.2,1.9c0,1.1-0.5,1.8-2.6,2.3c-0.8,0.2-1.6,0.4-2.7,0.5v0.3
			c0,1.5,0.8,2.3,2,2.3c0.8,0,1.5-0.3,2.2-0.9h0.1l0.3,0.7c-0.8,0.8-1.6,1-2.6,1c-2,0-3.1-1.3-3.1-3.2
			C201.2,365.2,202.7,362.7,205.4,362.7z M202.4,366.7c0.8-0.1,1.6-0.3,2.3-0.5c1.4-0.4,1.8-0.8,1.8-1.6c0-0.6-0.3-1.2-1.3-1.2
			C203.9,363.5,202.7,364.8,202.4,366.7z"/>
		<path fill="#AFAAA9" d="M208.4,369h0.1c0.5,0.6,1.2,1,2.2,1c1,0,1.6-0.5,1.6-1.3c0-0.7-0.4-1.1-1.6-1.6c-1.2-0.6-1.8-1.2-1.8-2.2
			c0-1.5,1.2-2.1,2.6-2.1c1.2,0,1.9,0.4,2.3,0.8l-0.5,0.7h-0.1c-0.4-0.4-0.9-0.7-1.7-0.7c-1,0-1.5,0.5-1.5,1.2c0,0.7,0.5,1,1.4,1.4
			c1.4,0.7,2,1.3,2,2.4c0,1.4-0.9,2.3-2.6,2.3c-1.3,0-2.4-0.6-2.9-1.2L208.4,369z"/>
		<path fill="#AFAAA9" d="M215.1,369.3h1.2l-1.5,3.2H214v-0.1L215.1,369.3z"/>
		<path fill="#AFAAA9" d="M221.5,366.4l1.2-6.3h1.1l-1.3,6.5c-0.1,0.3-0.1,0.7-0.1,0.9c0,1.6,1,2.3,2.6,2.3c1.7,0,2.7-0.7,3.1-3.2
			l1.3-6.6h1.1l-1.3,6.8c-0.6,3-2.1,3.9-4.3,3.9c-2.3,0-3.7-1.1-3.7-3.3C221.4,367.2,221.4,366.8,221.5,366.4z"/>
		<path fill="#AFAAA9" d="M232.9,362.8h0.1l0,1.1h0.1c0.5-0.6,1.4-1.2,2.7-1.2c1.3,0,2.1,0.8,2.1,1.9c0,0.3,0,0.6-0.1,0.8l-1,5.3
			h-1.1l1-5.4c0-0.2,0.1-0.4,0.1-0.6c0-0.8-0.5-1.2-1.3-1.2c-1,0-1.8,0.5-2.5,1.2l-1.1,5.9h-1.1l1.5-7.8L232.9,362.8z"/>
		<path fill="#AFAAA9" d="M241.1,362.8h0.2l-1.5,7.9h-1.1l1.5-7.8L241.1,362.8z M241.1,360c0.4,0,0.7,0.3,0.7,0.7
			c0,0.4-0.3,0.6-0.6,0.6c-0.3,0-0.6-0.3-0.6-0.6C240.5,360.3,240.7,360,241.1,360z"/>
		<path fill="#AFAAA9" d="M242.4,362.9h1.1l1,6.3h0.1l3.4-6.3h1.1v0.2l-4.3,7.7h-1.1l-1.3-7.7V362.9z"/>
		<path fill="#AFAAA9" d="M252.9,362.7c1.6,0,2.2,0.8,2.2,1.9c0,1.1-0.5,1.8-2.6,2.3c-0.8,0.2-1.6,0.4-2.7,0.5v0.3
			c0,1.5,0.8,2.3,2,2.3c0.8,0,1.5-0.3,2.2-0.9h0.1l0.3,0.7c-0.8,0.8-1.6,1-2.6,1c-2,0-3.1-1.3-3.1-3.2
			C248.8,365.2,250.2,362.7,252.9,362.7z M250,366.7c0.8-0.1,1.6-0.3,2.3-0.5c1.4-0.4,1.8-0.8,1.8-1.6c0-0.6-0.3-1.2-1.3-1.2
			C251.4,363.5,250.2,364.8,250,366.7z"/>
		<path fill="#AFAAA9" d="M257.8,362.8h0.1l0,1.3h0.1c0.5-0.9,1.2-1.4,2.1-1.4c0.3,0,0.5,0,0.6,0.1l-0.3,1h-0.1
			c-0.1-0.1-0.2-0.1-0.5-0.1c-0.6,0-1.2,0.3-2.1,1.4l-1.1,5.5h-1.1l1.5-7.8L257.8,362.8z"/>
		<path fill="#AFAAA9" d="M260.8,369h0.1c0.5,0.6,1.2,1,2.2,1c1,0,1.6-0.5,1.6-1.3c0-0.7-0.4-1.1-1.6-1.6c-1.2-0.6-1.8-1.2-1.8-2.2
			c0-1.5,1.2-2.1,2.6-2.1c1.2,0,1.9,0.4,2.3,0.8l-0.5,0.7h-0.1c-0.4-0.4-0.9-0.7-1.7-0.7c-1,0-1.5,0.5-1.5,1.2c0,0.7,0.5,1,1.4,1.4
			c1.4,0.7,2,1.3,2,2.4c0,1.4-0.9,2.3-2.6,2.3c-1.3,0-2.4-0.6-2.9-1.2L260.8,369z"/>
		<path fill="#AFAAA9" d="M269.2,362.8h0.2l-1.5,7.9h-1.1l1.5-7.8L269.2,362.8z M269.2,360c0.4,0,0.7,0.3,0.7,0.7
			c0,0.4-0.3,0.6-0.6,0.6c-0.3,0-0.6-0.3-0.6-0.6C268.6,360.3,268.8,360,269.2,360z"/>
		<path fill="#AFAAA9" d="M270.4,368.9l1-5.2h-0.9l0.2-0.7l0.9-0.1l0.5-2.1l0.9-0.1h0.1l-0.5,2.2h1.8l-0.2,0.8h-1.8l-1,5.2
			c0,0.1-0.1,0.3-0.1,0.5c0,0.4,0.2,0.6,0.8,0.6c0.3,0,0.8-0.2,1-0.3h0.1l0.1,0.7c-0.3,0.2-0.9,0.5-1.5,0.5c-1,0-1.5-0.5-1.5-1.3
			C270.4,369.3,270.4,369,270.4,368.9z"/>
		<path fill="#AFAAA9" d="M273.4,373h0.1c0.2,0.1,0.4,0.2,0.8,0.2c0.5,0,1.1-0.3,1.6-1.3l0.6-1.1l-1.1-7.9v-0.2h1.1l0.8,6.5h0.1
			l3.5-6.5h1v0.2l-5.1,9.3c-0.8,1.4-1.7,1.7-2.4,1.7c-0.6,0-1-0.2-1.2-0.3L273.4,373z"/>
		<path fill="#AFAAA9" d="M288.7,362.7c2,0,3.1,1.4,3.1,3.3c0,2.7-1.6,4.8-4,4.8c-2.1,0-3.1-1.4-3.1-3.3
			C284.7,364.9,286.4,362.7,288.7,362.7z M288.7,363.5c-1.3,0-2.1,0.9-2.6,2c-0.2,0.6-0.3,1.3-0.3,2c0,1.6,0.7,2.5,2.1,2.5
			c1.3,0,2.1-0.9,2.5-2.1c0.2-0.6,0.3-1.3,0.3-2C290.7,364.4,290,363.5,288.7,363.5z"/>
		<path fill="#AFAAA9" d="M293.1,363.6l0.1-0.6l1-0.1l0.2-1.3c0.3-1.6,1.4-2.2,2.7-2.2c0.5,0,0.9,0.1,1.1,0.3l-0.3,0.8h-0.1
			c-0.2-0.1-0.4-0.2-0.8-0.2c-0.8,0-1.3,0.4-1.5,1.4l-0.2,1.3h1.7l-0.1,0.8h-1.7l-1.4,7h-1.1l1.4-7H293.1z"/>
		<path fill="#AFAAA9" d="M303.3,359.9c1.2,0,2.5,0.4,3.1,0.9l-0.5,0.8h-0.1c-0.5-0.5-1.4-0.8-2.4-0.8c-3.4,0-4.8,2.9-4.8,5.4
			c0,2,1,3.6,3.4,3.6c0.7,0,1.4-0.1,1.9-0.5l0.6-2.9h-2.6l0.2-0.9h3.7l-0.9,4.3c-0.8,0.6-1.7,0.9-2.8,0.9c-3.1,0-4.5-2-4.5-4.6
			C297.4,363,299.3,359.9,303.3,359.9z"/>
		<path fill="#AFAAA9" d="M308.7,362.8h0.1l0,1.3h0.1c0.5-0.9,1.2-1.4,2.1-1.4c0.3,0,0.5,0,0.6,0.1l-0.3,1h-0.1
			c-0.1-0.1-0.2-0.1-0.5-0.1c-0.6,0-1.2,0.3-2.1,1.4l-1.1,5.5h-1.1l1.5-7.8L308.7,362.8z"/>
		<path fill="#AFAAA9" d="M315.5,362.7c2,0,3.1,1.4,3.1,3.3c0,2.7-1.6,4.8-4,4.8c-2.1,0-3.1-1.4-3.1-3.3
			C311.5,364.9,313.1,362.7,315.5,362.7z M315.5,363.5c-1.3,0-2.1,0.9-2.6,2c-0.2,0.6-0.3,1.3-0.3,2c0,1.6,0.7,2.5,2.1,2.5
			c1.3,0,2.1-0.9,2.5-2.1c0.2-0.6,0.3-1.3,0.3-2C317.4,364.4,316.7,363.5,315.5,363.5z"/>
		<path fill="#AFAAA9" d="M321.5,362.8h0.1l0,1.1h0.1c0.5-0.6,1.4-1.2,2.7-1.2c1.3,0,2.1,0.8,2.1,1.9c0,0.3,0,0.6-0.1,0.8l-1,5.3
			h-1.1l1-5.4c0-0.2,0.1-0.4,0.1-0.6c0-0.8-0.5-1.2-1.3-1.2c-1,0-1.8,0.5-2.5,1.2l-1.1,5.9h-1.1l1.5-7.8L321.5,362.8z"/>
		<path fill="#AFAAA9" d="M329.7,362.8h0.2l-1.5,7.9h-1.1l1.5-7.8L329.7,362.8z M329.7,360c0.4,0,0.7,0.3,0.7,0.7
			c0,0.4-0.3,0.6-0.6,0.6c-0.3,0-0.6-0.3-0.6-0.6C329.1,360.3,329.3,360,329.7,360z"/>
		<path fill="#AFAAA9" d="M332.5,362.8h0.1l0,1.1h0.1c0.5-0.6,1.4-1.2,2.7-1.2c1.3,0,2.1,0.8,2.1,1.9c0,0.3,0,0.6-0.1,0.8l-1,5.3
			h-1.1l1-5.4c0-0.2,0.1-0.4,0.1-0.6c0-0.8-0.5-1.2-1.3-1.2c-1,0-1.8,0.5-2.5,1.2l-1.1,5.9h-1.1l1.5-7.8L332.5,362.8z"/>
		<path fill="#AFAAA9" d="M338.2,372.6h0.1c0.5,0.4,1.3,0.6,2,0.6c1.4,0,2.2-0.6,2.5-2.1l0.3-1.4h-0.1c-0.6,0.7-1.4,1.1-2.2,1.1
			c-1.6,0-2.5-1.1-2.5-2.9c0-3.1,1.9-5.2,4.8-5.2c0.8,0,1.6,0.1,2.2,0.3l-1.5,8.1c-0.4,2.1-1.6,3-3.5,3c-0.9,0-2-0.3-2.6-0.7
			L338.2,372.6z M344.3,363.6c-0.3-0.1-0.6-0.2-1.1-0.2c-2.6,0-3.6,2.1-3.6,4.3c0,1.5,0.6,2.3,1.6,2.3c0.8,0,1.7-0.6,2.1-1.2
			L344.3,363.6z"/>
		<path fill="#AFAAA9" d="M350.4,362.7c1.6,0,2.2,0.8,2.2,1.9c0,1.1-0.5,1.8-2.6,2.3c-0.8,0.2-1.6,0.4-2.7,0.5v0.3
			c0,1.5,0.8,2.3,2,2.3c0.8,0,1.5-0.3,2.2-0.9h0.1l0.3,0.7c-0.8,0.8-1.6,1-2.6,1c-2,0-3.1-1.3-3.1-3.2
			C346.3,365.2,347.7,362.7,350.4,362.7z M347.5,366.7c0.8-0.1,1.6-0.3,2.3-0.5c1.4-0.4,1.8-0.8,1.8-1.6c0-0.6-0.3-1.2-1.3-1.2
			C348.9,363.5,347.8,364.8,347.5,366.7z"/>
		<path fill="#AFAAA9" d="M355.3,362.8h0.1l0,1.1h0.1c0.5-0.6,1.4-1.2,2.7-1.2c1.3,0,2.1,0.8,2.1,1.9c0,0.3,0,0.6-0.1,0.8l-1,5.3
			H358l1-5.4c0-0.2,0.1-0.4,0.1-0.6c0-0.8-0.5-1.2-1.3-1.2c-1,0-1.8,0.5-2.5,1.2l-1.1,5.9h-1.1l1.5-7.8L355.3,362.8z"/>
		<path fill="#AFAAA9" d="M361.1,369.3h1.2l-1.5,3.2h-0.8v-0.1L361.1,369.3z M362.5,363.3c0.5,0,0.8,0.3,0.8,0.8
			c0,0.4-0.3,0.8-0.8,0.8s-0.8-0.3-0.8-0.8C361.7,363.7,362.1,363.3,362.5,363.3z"/>
		<path fill="#AFAAA9" d="M367.5,366.4l1.2-6.3h1.1l-1.3,6.5c-0.1,0.3-0.1,0.7-0.1,0.9c0,1.6,1,2.3,2.6,2.3c1.7,0,2.7-0.7,3.1-3.2
			l1.3-6.6h1.1l-1.3,6.8c-0.6,3-2.1,3.9-4.3,3.9c-2.3,0-3.7-1.1-3.7-3.3C367.4,367.2,367.4,366.8,367.5,366.4z"/>
		<path fill="#AFAAA9" d="M380.2,360.1l3.5,8.6h0.1l1.7-8.6h1l-2.1,10.6h-1l-3.6-9h-0.1l-1.7,9h-1.1l2.1-10.6H380.2z"/>
		<path fill="#AFAAA9" d="M386.8,369.3h1.2l-1.5,3.2h-0.8v-0.1L386.8,369.3z M388.2,363.3c0.5,0,0.8,0.3,0.8,0.8
			c0,0.4-0.3,0.8-0.8,0.8s-0.8-0.3-0.8-0.8C387.4,363.7,387.7,363.3,388.2,363.3z"/>
		<path fill="#AFAAA9" d="M12.6,386.7h0.2c0.5,0.6,1.4,1.3,2.9,1.3c1.3,0,2.3-0.6,2.3-1.8c0-1.1-0.7-1.8-2-2.5
			c-1.6-0.9-2.4-1.7-2.4-2.9c0-1.7,1.2-2.8,3.4-2.8c1.5,0,2.4,0.6,2.9,1.1l-0.6,0.7h-0.2c-0.4-0.4-1-0.9-2.1-0.9
			c-1.5,0-2.3,0.7-2.3,1.8c0,0.7,0.5,1.4,1.8,2.2c1.9,1.1,2.6,1.9,2.6,3.4c0,1.6-1.1,2.8-3.4,2.8c-1.7,0-2.9-0.6-3.7-1.5L12.6,386.7
			z"/>
		<path fill="#AFAAA9" d="M20.6,386.9l1-5.2h-0.9l0.2-0.7l0.9-0.1l0.5-2.1l0.9-0.1h0.1l-0.4,2.2h1.8l-0.2,0.8h-1.8l-1,5.2
			c0,0.1-0.1,0.3-0.1,0.5c0,0.4,0.2,0.6,0.8,0.6c0.3,0,0.8-0.2,1-0.3h0.1l0.1,0.7c-0.3,0.2-0.9,0.5-1.5,0.5c-1.1,0-1.5-0.5-1.5-1.3
			C20.5,387.3,20.5,387,20.6,386.9z"/>
		<path fill="#AFAAA9" d="M29.5,380.7c0.8,0,1.5,0.2,2.1,0.3l-1.5,7.6h-0.8l0-1h-0.1c-0.6,0.7-1.4,1.2-2.3,1.2
			c-1.6,0-2.4-1.2-2.4-2.9C24.6,382.7,26.5,380.7,29.5,380.7z M30.4,381.6c-0.3-0.1-0.7-0.2-1.1-0.2c-2.2,0-3.7,1.7-3.7,4.4
			c0,1.3,0.5,2.1,1.6,2.1c0.9,0,1.8-0.7,2.1-1.2L30.4,381.6z"/>
		<path fill="#AFAAA9" d="M32.7,386.9l1-5.2h-0.9L33,381l0.9-0.1l0.5-2.1l0.9-0.1h0.1l-0.4,2.2h1.8l-0.2,0.8h-1.8l-1,5.2
			c0,0.1-0.1,0.3-0.1,0.5c0,0.4,0.2,0.6,0.8,0.6c0.3,0,0.8-0.2,1-0.3h0.1l0.1,0.7c-0.3,0.2-0.9,0.5-1.5,0.5c-1.1,0-1.5-0.5-1.5-1.3
			C32.6,387.3,32.6,387,32.7,386.9z"/>
		<path fill="#AFAAA9" d="M39.2,380.8h0.2l-1.5,7.9h-1.1l1.5-7.8L39.2,380.8z M39.2,378c0.4,0,0.7,0.3,0.7,0.7
			c0,0.4-0.3,0.6-0.6,0.6c-0.3,0-0.6-0.3-0.6-0.6C38.6,378.3,38.9,378,39.2,378z"/>
		<path fill="#AFAAA9" d="M40,387h0.1c0.5,0.6,1.2,1,2.2,1c1,0,1.6-0.5,1.6-1.3c0-0.7-0.4-1.1-1.6-1.6c-1.2-0.6-1.8-1.2-1.8-2.2
			c0-1.5,1.2-2.1,2.6-2.1c1.2,0,1.9,0.4,2.3,0.8l-0.5,0.7h-0.1c-0.4-0.4-0.9-0.7-1.7-0.7c-1,0-1.5,0.5-1.5,1.2c0,0.7,0.5,1,1.4,1.4
			c1.4,0.7,2,1.3,2,2.4c0,1.4-0.9,2.3-2.6,2.3c-1.3,0-2.4-0.6-2.9-1.2L40,387z"/>
		<path fill="#AFAAA9" d="M46.6,386.9l1-5.2h-0.9l0.2-0.7l0.9-0.1l0.5-2.1l0.9-0.1h0.1l-0.4,2.2h1.8l-0.2,0.8h-1.8l-1,5.2
			c0,0.1-0.1,0.3-0.1,0.5c0,0.4,0.2,0.6,0.8,0.6c0.3,0,0.8-0.2,1-0.3h0.1l0.1,0.7c-0.3,0.2-0.9,0.5-1.5,0.5c-1.1,0-1.5-0.5-1.5-1.3
			C46.6,387.3,46.6,387,46.6,386.9z"/>
		<path fill="#AFAAA9" d="M53.2,380.8h0.2l-1.5,7.9h-1.1l1.5-7.8L53.2,380.8z M53.2,378c0.4,0,0.7,0.3,0.7,0.7
			c0,0.4-0.3,0.6-0.6,0.6c-0.3,0-0.6-0.3-0.6-0.6C52.6,378.3,52.9,378,53.2,378z"/>
		<path fill="#AFAAA9" d="M58.1,380.7c1,0,1.9,0.3,2.4,0.7l-0.5,0.7h-0.2c-0.3-0.3-1-0.6-1.7-0.6c-1.9,0-2.9,1.7-2.9,4
			c0,1.6,0.9,2.4,2.2,2.4c0.8,0,1.4-0.3,1.9-0.8h0.1l0.3,0.7c-0.4,0.5-1.3,1-2.5,1c-1.9,0-3.1-1.2-3.1-3.3
			C54.1,382.5,55.7,380.7,58.1,380.7z"/>
		<path fill="#AFAAA9" d="M61.1,387h0.1c0.5,0.6,1.2,1,2.2,1c1,0,1.6-0.5,1.6-1.3c0-0.7-0.4-1.1-1.6-1.6c-1.2-0.6-1.8-1.2-1.8-2.2
			c0-1.5,1.2-2.1,2.6-2.1c1.2,0,1.9,0.4,2.3,0.8l-0.5,0.7H66c-0.4-0.4-0.9-0.7-1.7-0.7c-1,0-1.5,0.5-1.5,1.2c0,0.7,0.5,1,1.4,1.4
			c1.4,0.7,2,1.3,2,2.4c0,1.4-0.9,2.3-2.6,2.3c-1.3,0-2.4-0.6-2.9-1.2L61.1,387z"/>
		<path fill="#AFAAA9" d="M70.5,386.7h0.2c0.5,0.6,1.4,1.3,2.9,1.3c1.3,0,2.3-0.6,2.3-1.8c0-1.1-0.7-1.8-2-2.5
			c-1.6-0.9-2.4-1.7-2.4-2.9c0-1.7,1.2-2.8,3.4-2.8c1.5,0,2.4,0.6,2.9,1.1l-0.6,0.7H77c-0.4-0.4-1-0.9-2.1-0.9
			c-1.5,0-2.3,0.7-2.3,1.8c0,0.7,0.5,1.4,1.8,2.2c1.9,1.1,2.6,1.9,2.6,3.4c0,1.6-1.1,2.8-3.4,2.8c-1.7,0-2.9-0.6-3.7-1.5L70.5,386.7
			z"/>
		<path fill="#AFAAA9" d="M80.4,380.8h0.2l-1.5,7.9H78l1.5-7.8L80.4,380.8z M80.4,378c0.4,0,0.7,0.3,0.7,0.7c0,0.4-0.3,0.6-0.6,0.6
			c-0.3,0-0.6-0.3-0.6-0.6C79.8,378.3,80.1,378,80.4,378z"/>
		<path fill="#AFAAA9" d="M83.3,380.8h0.1l0,1.1h0.1c0.5-0.6,1.4-1.2,2.7-1.2c1.3,0,2.1,0.8,2.1,1.9c0,0.3,0,0.6-0.1,0.8l-1,5.3H86
			l1-5.4c0-0.2,0.1-0.4,0.1-0.6c0-0.8-0.5-1.2-1.3-1.2c-1,0-1.8,0.5-2.5,1.2l-1.1,5.9h-1.1l1.5-7.8L83.3,380.8z"/>
		<path fill="#AFAAA9" d="M88.9,390.6h0.1c0.5,0.4,1.3,0.6,2,0.6c1.3,0,2.2-0.6,2.5-2.1l0.3-1.4h-0.1c-0.6,0.7-1.4,1.1-2.2,1.1
			c-1.6,0-2.5-1.1-2.5-2.9c0-3.1,1.9-5.2,4.8-5.2c0.8,0,1.6,0.1,2.2,0.3l-1.5,8.1c-0.4,2.1-1.6,3-3.5,3c-0.9,0-2-0.3-2.6-0.7
			L88.9,390.6z M95,381.6c-0.3-0.1-0.6-0.2-1.1-0.2c-2.6,0-3.6,2.1-3.6,4.3c0,1.5,0.6,2.3,1.6,2.3c0.8,0,1.7-0.6,2.1-1.2L95,381.6z"
			/>
		<path fill="#AFAAA9" d="M101.9,380.7c0.8,0,1.5,0.2,2.1,0.3l-1.5,7.6h-0.8l0-1h-0.1c-0.6,0.7-1.4,1.2-2.3,1.2
			c-1.6,0-2.4-1.2-2.4-2.9C96.9,382.7,98.9,380.7,101.9,380.7z M102.8,381.6c-0.3-0.1-0.7-0.2-1-0.2c-2.2,0-3.7,1.7-3.7,4.4
			c0,1.3,0.5,2.1,1.6,2.1c0.9,0,1.8-0.7,2.1-1.2L102.8,381.6z"/>
		<path fill="#AFAAA9" d="M106.7,380.8h0.1l-0.1,1.2h0.1c0.5-0.8,1.4-1.3,2.4-1.3c1.5,0,2.6,1,2.6,3.1c0,2.7-1.3,5-4.1,5
			c-0.9,0-1.6-0.2-2-0.5l-0.7,3.6h-1.1l2.1-11.1L106.7,380.8z M108.9,381.6c-0.8,0-1.7,0.5-2.2,1.3l-0.9,4.7c0.4,0.3,1,0.6,1.8,0.6
			c2.1,0,3.1-1.9,3.1-4.2C110.7,382.2,110,381.6,108.9,381.6z"/>
		<path fill="#AFAAA9" d="M116.9,380.7c2,0,3.1,1.4,3.1,3.3c0,2.7-1.6,4.8-4,4.8c-2.1,0-3.1-1.4-3.1-3.3
			C112.8,382.9,114.5,380.7,116.9,380.7z M116.9,381.5c-1.3,0-2.1,0.9-2.6,2c-0.2,0.6-0.3,1.3-0.3,2c0,1.6,0.7,2.5,2.1,2.5
			c1.3,0,2.1-0.9,2.5-2.1c0.2-0.6,0.3-1.3,0.3-2C118.8,382.4,118.1,381.5,116.9,381.5z"/>
		<path fill="#AFAAA9" d="M122.9,380.8h0.1l0,1.3h0.1c0.5-0.9,1.2-1.4,2.1-1.4c0.3,0,0.5,0,0.6,0.1l-0.3,1h-0.1
			c-0.1-0.1-0.2-0.1-0.5-0.1c-0.6,0-1.2,0.3-2.1,1.4l-1.1,5.5h-1.1l1.5-7.8L122.9,380.8z"/>
		<path fill="#AFAAA9" d="M129.8,380.7c1.6,0,2.2,0.8,2.2,1.9c0,1.1-0.5,1.8-2.6,2.3c-0.8,0.2-1.6,0.4-2.7,0.5v0.3
			c0,1.5,0.8,2.3,2,2.3c0.8,0,1.5-0.3,2.2-0.9h0.1l0.3,0.7c-0.8,0.8-1.6,1-2.6,1c-2,0-3.1-1.3-3.1-3.2
			C125.6,383.2,127,380.7,129.8,380.7z M126.8,384.7c0.8-0.1,1.6-0.3,2.3-0.5c1.4-0.4,1.8-0.8,1.8-1.6c0-0.6-0.3-1.2-1.3-1.2
			C128.2,381.5,127.1,382.8,126.8,384.7z"/>
		<path fill="#AFAAA9" d="M132.7,387.3h1.2l-1.5,3.2h-0.8v-0.1L132.7,387.3z M134.1,381.3c0.5,0,0.8,0.3,0.8,0.8
			c0,0.4-0.3,0.8-0.8,0.8s-0.8-0.3-0.8-0.8C133.3,381.7,133.7,381.3,134.1,381.3z"/>
		<path fill="#AFAAA9" d="M139.4,379l0.2-0.9h7.8l-0.2,0.9h-3.3l-1.9,9.7h-1.1l1.9-9.7H139.4z"/>
		<path fill="#AFAAA9" d="M149.5,377.4h0.2l-0.8,4.5h0.1c0.7-0.7,1.5-1.1,2.6-1.1c1.3,0,2,0.8,2,1.9c0,0.3,0,0.6-0.1,0.9l-1,5.2
			h-1.1l1-5.4c0-0.2,0.1-0.4,0.1-0.5c0-0.8-0.5-1.2-1.3-1.2c-0.9,0-1.7,0.4-2.4,1.2l-1.1,5.9h-1.1l2.1-11.2L149.5,377.4z"/>
		<path fill="#AFAAA9" d="M158.7,380.7c1.6,0,2.2,0.8,2.2,1.9c0,1.1-0.5,1.8-2.6,2.3c-0.8,0.2-1.6,0.4-2.7,0.5v0.3
			c0,1.5,0.8,2.3,2,2.3c0.8,0,1.5-0.3,2.2-0.9h0.1l0.3,0.7c-0.8,0.8-1.6,1-2.6,1c-2,0-3.1-1.3-3.1-3.2
			C154.5,383.2,156,380.7,158.7,380.7z M155.7,384.7c0.8-0.1,1.6-0.3,2.3-0.5c1.4-0.4,1.8-0.8,1.8-1.6c0-0.6-0.3-1.2-1.3-1.2
			C157.2,381.5,156,382.8,155.7,384.7z"/>
		<path fill="#AFAAA9" d="M172.5,378.1l-0.2,0.9h-5l-0.7,3.6h3.8l-0.2,0.9h-3.7l-0.8,4.2h5.1l-0.2,0.9h-6.2l2.1-10.6H172.5z"/>
		<path fill="#AFAAA9" d="M175.7,380.7c1,0,1.9,0.3,2.4,0.7l-0.5,0.7h-0.2c-0.3-0.3-1-0.6-1.7-0.6c-1.9,0-2.9,1.7-2.9,4
			c0,1.6,0.9,2.4,2.2,2.4c0.8,0,1.4-0.3,1.9-0.8h0.1l0.3,0.7c-0.4,0.5-1.3,1-2.5,1c-1.9,0-3.1-1.2-3.1-3.3
			C171.8,382.5,173.4,380.7,175.7,380.7z"/>
		<path fill="#AFAAA9" d="M182.3,380.7c2,0,3.1,1.4,3.1,3.3c0,2.7-1.6,4.8-4,4.8c-2.1,0-3.1-1.4-3.1-3.3
			C178.3,382.9,180,380.7,182.3,380.7z M182.3,381.5c-1.3,0-2.1,0.9-2.6,2c-0.2,0.6-0.3,1.3-0.3,2c0,1.6,0.7,2.5,2.1,2.5
			c1.3,0,2.1-0.9,2.5-2.1c0.2-0.6,0.3-1.3,0.3-2C184.3,382.4,183.6,381.5,182.3,381.5z"/>
		<path fill="#AFAAA9" d="M188.3,380.8h0.1l0,1.1h0.1c0.5-0.6,1.4-1.2,2.7-1.2c1.3,0,2.1,0.8,2.1,1.9c0,0.3,0,0.6-0.1,0.8l-1,5.3
			H191l1-5.4c0-0.2,0.1-0.4,0.1-0.6c0-0.8-0.5-1.2-1.3-1.2c-1,0-1.8,0.5-2.5,1.2l-1.1,5.9h-1.1l1.5-7.8L188.3,380.8z"/>
		<path fill="#AFAAA9" d="M198.3,380.7c2,0,3.1,1.4,3.1,3.3c0,2.7-1.6,4.8-4,4.8c-2.1,0-3.1-1.4-3.1-3.3
			C194.3,382.9,195.9,380.7,198.3,380.7z M198.3,381.5c-1.3,0-2.1,0.9-2.6,2c-0.2,0.6-0.3,1.3-0.3,2c0,1.6,0.7,2.5,2.1,2.5
			c1.3,0,2.1-0.9,2.5-2.1c0.2-0.6,0.3-1.3,0.3-2C200.3,382.4,199.6,381.5,198.3,381.5z"/>
		<path fill="#AFAAA9" d="M204.3,380.8h0.1l0,1.1h0.1c0.5-0.6,1.4-1.2,2.7-1.2c1.3,0,2.1,0.8,2.1,1.9c0,0.3,0,0.6-0.1,0.8l-1,5.3
			H207l1-5.4c0-0.2,0.1-0.4,0.1-0.6c0-0.8-0.5-1.2-1.3-1.2c-1,0-1.8,0.5-2.5,1.2l-1.1,5.9h-1.1l1.5-7.8L204.3,380.8z"/>
		<path fill="#AFAAA9" d="M212.2,380.8h0.2l0,1.1h0.1c0.5-0.5,1.4-1.2,2.5-1.2c1,0,1.6,0.4,1.9,1.2h0.1c0.5-0.5,1.4-1.2,2.7-1.2
			c1.4,0,2,0.8,2,2c0,0.2,0,0.5-0.1,0.7l-1,5.3h-1.1l1-5.4c0-0.2,0-0.4,0-0.5c0-0.8-0.4-1.2-1.2-1.2c-0.8,0-1.5,0.3-2.3,1
			c0,0.3,0,0.5-0.1,0.8l-1,5.3h-1.1l1-5.4c0-0.2,0.1-0.4,0.1-0.5c0-0.7-0.4-1.2-1.2-1.2c-0.9,0-1.8,0.6-2.4,1.2l-1.1,5.9h-1.1
			l1.5-7.8L212.2,380.8z"/>
		<path fill="#AFAAA9" d="M224.9,380.8h0.2l-1.5,7.9h-1.1l1.5-7.8L224.9,380.8z M224.9,378c0.4,0,0.7,0.3,0.7,0.7
			c0,0.4-0.3,0.6-0.6,0.6c-0.3,0-0.6-0.3-0.6-0.6C224.3,378.3,224.6,378,224.9,378z"/>
		<path fill="#AFAAA9" d="M225.7,387h0.1c0.5,0.6,1.2,1,2.3,1c1,0,1.6-0.5,1.6-1.3c0-0.7-0.4-1.1-1.6-1.6c-1.2-0.6-1.8-1.2-1.8-2.2
			c0-1.5,1.2-2.1,2.6-2.1c1.2,0,1.9,0.4,2.3,0.8l-0.5,0.7h-0.1c-0.4-0.4-0.9-0.7-1.7-0.7c-1,0-1.5,0.5-1.5,1.2c0,0.7,0.5,1,1.4,1.4
			c1.4,0.7,2,1.3,2,2.4c0,1.4-0.9,2.3-2.6,2.3c-1.3,0-2.4-0.6-2.9-1.2L225.7,387z"/>
		<path fill="#AFAAA9" d="M232.3,386.9l1-5.2h-0.9l0.2-0.7l0.9-0.1l0.5-2.1l0.9-0.1h0.1l-0.5,2.2h1.8l-0.2,0.8h-1.8l-1,5.2
			c0,0.1-0.1,0.3-0.1,0.5c0,0.4,0.2,0.6,0.8,0.6c0.3,0,0.8-0.2,1-0.3h0.1l0.1,0.7c-0.3,0.2-0.9,0.5-1.5,0.5c-1,0-1.5-0.5-1.5-1.3
			C232.3,387.3,232.3,387,232.3,386.9z"/>
	</g>
</g>
</svg>
