<?xml version="1.0" encoding="utf-8"?>
<!-- Generator: Adobe Illustrator 19.1.0, SVG Export Plug-In . SVG Version: 6.00 Build 0)  -->
<svg version="1.1" xmlns="http://www.w3.org/2000/svg" xmlns:xlink="http://www.w3.org/1999/xlink" x="0px" y="0px"
	 viewBox="0 0 209 125" style="enable-background:new 0 0 209 125;" xml:space="preserve">
<style type="text/css">
	.st0{display:none;}
	.st1{clip-path:url(#SVGID_2_);}
	.st2{display:inline;}
	.st3{fill:#090927;}
	.st4{clip-path:url(#XMLID_18_);}
	.st5{fill:#FFFFFF;}
	.st6{fill:#80B749;}
	.st7{fill:#1A5A2D;}
	.st8{fill:#F1F1F2;}
	.st9{fill:none;stroke:#FFFFFF;stroke-miterlimit:10;}
	.st10{fill:#231F20;}
	.st11{fill:#F2F2F2;}
	.st12{fill:#8AC652;}
	.st13{fill:#00AFE2;}
	.st14{fill:#F3F4F2;}
	.st15{fill:#37B34A;}
	.st16{fill:#D7CEBD;}
	.st17{fill:#A6A8AB;}
	.st18{fill:#26A9E0;}
	.st19{fill:#E3DCD0;}
	.st20{fill:#009345;}
	.st21{fill:none;stroke:#CCCCCC;stroke-miterlimit:10;}
	.st22{clip-path:url(#XMLID_33_);}
	.st23{opacity:0.3;fill:#080072;}
	.st24{fill:none;stroke:#CCCCCC;stroke-width:0.25;stroke-miterlimit:10;}
</style>
<g id="Guides" class="st0">
</g>
<g id="Layer_3">
	<g>
		<g>
			<path class="st12" d="M66.8,98.7l-2.9,4c-1.6-1.3-3.1-1.8-4.9-1.8c-3.4,0-5.3,2.4-5.3,8.2c0,5.8,2.1,7.8,5.3,7.8
				c1.8,0,3.1-0.6,4.9-1.9l3,4.3c-2.3,1.8-4.9,2.9-8.2,2.9c-7.5,0-12.1-5.1-12.1-13.1c0-7.9,4.6-13.5,12-13.5
				C61.8,95.6,64.4,96.6,66.8,98.7z"/>
			<path class="st12" d="M78.1,87.4c0,2.2-1.7,3.9-4.1,3.9c-2.4,0-4.1-1.7-4.1-3.9c0-2.2,1.7-3.9,4.1-3.9
				C76.4,83.5,78.1,85.2,78.1,87.4z M70.6,121.4V96.4h6.7v25.1H70.6z"/>
			<path class="st12" d="M92.4,122.2c-5.2,0-7.8-3-7.8-8.6v-12.5h-3.7v-4.7h3.7v-5.5l6.7-0.8v6.3h5.8l-0.7,4.7h-5.1v12.3
				c0,2.5,0.8,3.4,2.5,3.4c0.9,0,1.8-0.3,2.8-0.9l2.3,4.3C97.1,121.5,94.7,122.2,92.4,122.2z"/>
			<path class="st12" d="M109.4,87.4c0,2.2-1.7,3.9-4.1,3.9c-2.4,0-4.1-1.7-4.1-3.9c0-2.2,1.7-3.9,4.1-3.9
				C107.7,83.5,109.4,85.2,109.4,87.4z M101.9,121.4V96.4h6.7v25.1H101.9z"/>
			<path class="st12" d="M136.3,111h-15.7c0.5,4.8,2.7,6.2,6,6.2c2.1,0,3.9-0.7,6.1-2.2l2.8,3.8c-2.5,2-5.6,3.4-9.5,3.4
				c-8,0-12.2-5.3-12.2-13.1c0-7.6,4.1-13.4,11.4-13.4c7.1,0,11.3,4.7,11.3,12.7C136.5,109.2,136.4,110.2,136.3,111z M129.8,106.5
				c0-3.8-1.3-6.2-4.5-6.2c-2.6,0-4.3,1.8-4.6,6.5h9.1V106.5z"/>
			<path class="st12" d="M158.8,98.7l-2.6,3.9c-2-1.4-4.1-2.1-6.1-2.1c-2.4,0-3.6,0.9-3.6,2.3c0,1.5,0.9,2.1,5.2,3.4
				c5,1.4,7.8,3.5,7.8,7.9c0,5.2-4.9,8.1-10.8,8.1c-4.3,0-7.8-1.5-10.2-3.6l3.4-3.7c1.8,1.5,4.2,2.5,6.6,2.5c2.6,0,4.2-1,4.2-2.7
				c0-1.9-0.9-2.6-5.5-3.8c-5.1-1.4-7.4-3.9-7.4-7.7c0-4.3,3.9-7.5,9.9-7.5C153.4,95.6,156.5,96.8,158.8,98.7z"/>
		</g>
		<g>
			<path class="st13" d="M87.6,42.6c0-13.6,7-25.6,17.7-32.5C98.9,5.5,91,2.8,82.5,2.8c-21.4,0-38.7,17.3-38.7,38.7
				c0,21.4,17.3,38.7,38.7,38.7c7.8,0,15-2.3,21.1-6.2C93.9,67,87.6,55.6,87.6,42.6"/>
		</g>
		<g>
			<path class="st12" d="M126.3,3.9c-7.8,0-15,2.3-21.1,6.2c9,6.5,15,16.7,15.9,28.4l-2.4,2.8l2.5,1.4c-0.4,13.1-7.3,24.5-17.6,31.2
				c6.4,4.6,14.2,7.4,22.7,7.4c21.4,0,38.7-17.3,38.7-38.7C165.1,21.3,147.7,3.9,126.3,3.9"/>
		</g>
		<g>
			<path class="st5" d="M83.9,51.5c0,6.1-5.3,11-14.2,11c-8.7,0-13.9-4.8-13.9-10.8c0-4.5,2.7-7.5,7-9.4c-4-2.3-5.5-5.3-5.5-8.8
				c0-6.1,5.5-9.9,12.6-9.9c7,0,12.6,3.4,12.6,9.6c0,3.3-1.9,6.2-6.1,8.4C81.5,43.9,83.9,47.1,83.9,51.5z M76,51.4
				c0-3.3-1.7-4.8-6.3-6.4l-1.8-0.6c-2.8,1.4-4.1,3.8-4.1,6.9c0,3.3,2.4,5.4,6.2,5.4C73.9,56.7,76,54.5,76,51.4z M65,33.6
				c0,2.9,1.8,4.3,5.1,5.6l1.1,0.4c2.8-1.8,3.7-3.5,3.7-6c0-2.7-1.7-4.6-4.9-4.6C66.9,28.9,65,30.5,65,33.6z"/>
		</g>
		<g>
			<polygon class="st12" points="121.4,48.3 115.4,43.3 120.7,37.8 123.8,42 			"/>
		</g>
		<g>
			<path class="st7" d="M104.2,45.3l-1.7-0.6c-2.7,1.4-4.1,3.7-4.1,6.8c0,3.3,2.3,5.3,6.1,5.3c3.9,0,5.9-2.2,5.9-5.2
				C110.4,48.4,108.7,47,104.2,45.3z"/>
			<path class="st7" d="M104.6,39.6l1.1,0.4c2.7-1.7,3.6-3.5,3.6-5.9c0-2.7-1.6-4.5-4.8-4.5c-3,0-4.9,1.6-4.9,4.6
				C99.6,36.9,101.3,38.3,104.6,39.6z"/>
			<path class="st7" d="M105.3,10.2C94.6,17.1,87.6,29,87.6,42.6c0,12.9,6.3,24.3,16,31.4c10.6-6.9,17.7-18.9,17.7-32.5
				C121.3,28.6,115,17.2,105.3,10.2z M104.3,62.4c-8.5,0-13.6-4.7-13.6-10.6c0-4.5,2.6-7.3,6.9-9.2c-3.9-2.2-5.4-5.2-5.4-8.6
				c0-6,5.4-9.7,12.3-9.7c6.8,0,12.3,3.3,12.3,9.4c0,3.3-1.8,6.1-6,8.3c5,2.3,7.4,5.5,7.4,9.8C118.2,57.7,113,62.4,104.3,62.4z"/>
		</g>
		<g>
			<path class="st12" d="M126.5,3.9c-7.8,0-15,2.3-21.1,6.2c9,6.5,15,16.7,15.9,28.4c0,0,0,2.3,0,3.4c0,0.3,0,0.5,0,0.8l0.1,0.1
				c-0.4,13.1-7.3,24.5-17.6,31.2c6.4,4.6,14.2,7.4,22.7,7.4c21.4,0,38.7-17.3,38.7-38.7C165.2,21.3,147.8,3.9,126.5,3.9"/>
		</g>
		<g>
			<path class="st14" d="M154.4,43c0,12.4-5,19.5-14.7,19.5c-9.6,0-14.6-7-14.6-19.5c0-12.5,5-19.4,14.6-19.4
				C149.4,23.6,154.4,30.5,154.4,43z M133.8,43c0,10.1,1.8,13.6,6,13.6c4.1,0,6-3.3,6-13.6c0-10.3-1.9-13.6-6-13.6
				C135.6,29.4,133.8,32.9,133.8,43z"/>
		</g>
	</g>
</g>
<g id="Layer_4">
</g>
</svg>
