<?xml version="1.0" standalone="no"?>
<!DOCTYPE svg PUBLIC "-//W3C//DTD SVG 20001102//EN" "http://www.w3.org/TR/2000/CR-SVG-20001102/DTD/svg-20001102.dtd">
<svg xmlns="http://www.w3.org/2000/svg" width="478" x="5" y="5" height="285" id="/Users/hrzepa/Downloads/8dm" >
 <g style="stroke:rgb(0,0,0);stroke-width:0.9;fill:none;" >
  <g style="stroke:rgb(0,0,0);stroke-width:0.9;fill:none;" >
   <rect width="425" x="52" y="5" height="16" style="stroke:rgb(0,0,0);stroke-width:0;fill:none;" />
  </g>
  <g style="stroke:rgb(0,0,0);stroke-width:0.9;fill:none;" >
   <text x="264" y="20" style="fill:rgb(0,0,0);stroke-width:0;font-size:14;font-style:normal;font-weight:700;font-family:Lucida Grande;" text-anchor="middle" >Dipole Moment along IRC</text>
  </g>
  <g style="stroke:rgb(0,0,0);stroke-width:0.9;fill:none;" >
   <g style="stroke:rgb(0,0,0);stroke-width:0.9;fill:none;" >
    <rect width="222" x="28" y="-1" height="47" transform="matrix(6.12323e-17,-1,1,6.12323e-17,6,275)" style="stroke:rgb(0,0,0);stroke-width:0;fill:none;" />
   </g>
   <g style="stroke:rgb(0,0,0);stroke-width:0.9;fill:none;" >
    <text x="139" y="11" transform="matrix(6.12323e-17,-1,1,6.12323e-17,6,275)" style="fill:rgb(0,0,0);stroke-width:0;font-size:12;font-style:normal;font-weight:700;font-family:Lucida Grande;" text-anchor="middle" >Dipole Moment (Debye)</text>
   </g>
  </g>
  <g style="stroke:rgb(0,0,0);stroke-width:0.9;fill:none;" >
   <line style="stroke:rgb(0,0,0);stroke-width:0.9;fill:none;" y1="243" y2="243" x1="50" x2="42" />
   <g style="stroke:rgb(0,0,0);stroke-width:0.9;fill:none;" >
    <text x="-3" y="-27" transform="translate(29,274)" style="fill:rgb(0,0,0);stroke-width:0;font-size:12;font-style:normal;font-weight:400;font-family:Lucida Grande;" >8.0</text>
   </g>
   <line style="stroke:rgb(0,0,0);stroke-width:0.9;fill:none;" y1="217" y2="217" x1="50" x2="42" />
   <g style="stroke:rgb(0,0,0);stroke-width:0.9;fill:none;" >
    <text x="-3" y="-24" transform="translate(29,245)" style="fill:rgb(0,0,0);stroke-width:0;font-size:12;font-style:normal;font-weight:400;font-family:Lucida Grande;" >8.5</text>
   </g>
   <line style="stroke:rgb(0,0,0);stroke-width:0.9;fill:none;" y1="190" y2="190" x1="50" x2="42" />
   <g style="stroke:rgb(0,0,0);stroke-width:0.9;fill:none;" >
    <text x="-3" y="-21" transform="translate(29,215)" style="fill:rgb(0,0,0);stroke-width:0;font-size:12;font-style:normal;font-weight:400;font-family:Lucida Grande;" >9.0</text>
   </g>
   <line style="stroke:rgb(0,0,0);stroke-width:0.9;fill:none;" y1="164" y2="164" x1="50" x2="42" />
   <g style="stroke:rgb(0,0,0);stroke-width:0.9;fill:none;" >
    <text x="-3" y="-19" transform="translate(29,186)" style="fill:rgb(0,0,0);stroke-width:0;font-size:12;font-style:normal;font-weight:400;font-family:Lucida Grande;" >9.5</text>
   </g>
   <line style="stroke:rgb(0,0,0);stroke-width:0.9;fill:none;" y1="137" y2="137" x1="50" x2="42" />
   <g style="stroke:rgb(0,0,0);stroke-width:0.9;fill:none;" >
    <text x="-2" y="-16" transform="translate(23,156)" style="fill:rgb(0,0,0);stroke-width:0;font-size:12;font-style:normal;font-weight:400;font-family:Lucida Grande;" >10.0</text>
   </g>
   <line style="stroke:rgb(0,0,0);stroke-width:0.9;fill:none;" y1="111" y2="111" x1="50" x2="42" />
   <g style="stroke:rgb(0,0,0);stroke-width:0.9;fill:none;" >
    <text x="-2" y="-13" transform="translate(23,127)" style="fill:rgb(0,0,0);stroke-width:0;font-size:12;font-style:normal;font-weight:400;font-family:Lucida Grande;" >10.5</text>
   </g>
   <line style="stroke:rgb(0,0,0);stroke-width:0.9;fill:none;" y1="84" y2="84" x1="50" x2="42" />
   <g style="stroke:rgb(0,0,0);stroke-width:0.9;fill:none;" >
    <text x="-2" y="-10" transform="translate(23,97)" style="fill:rgb(0,0,0);stroke-width:0;font-size:12;font-style:normal;font-weight:400;font-family:Lucida Grande;" >11.0</text>
   </g>
   <line style="stroke:rgb(0,0,0);stroke-width:0.9;fill:none;" y1="58" y2="58" x1="50" x2="42" />
   <g style="stroke:rgb(0,0,0);stroke-width:0.9;fill:none;" >
    <text x="-2" y="-7" transform="translate(23,68)" style="fill:rgb(0,0,0);stroke-width:0;font-size:12;font-style:normal;font-weight:400;font-family:Lucida Grande;" >11.5</text>
   </g>
   <line style="stroke:rgb(0,0,0);stroke-width:0.9;fill:none;" y1="31" y2="31" x1="50" x2="42" />
   <g style="stroke:rgb(0,0,0);stroke-width:0.9;fill:none;" >
    <text x="-2" y="-4" transform="translate(23,38)" style="fill:rgb(0,0,0);stroke-width:0;font-size:12;font-style:normal;font-weight:400;font-family:Lucida Grande;" >12.0</text>
   </g>
   <line style="stroke:rgb(0,0,0);stroke-width:0.9;fill:none;" y1="31" y2="243" x1="50" x2="50" />
  </g>
  <g style="stroke:rgb(0,0,0);stroke-width:0.9;fill:none;" >
   <g style="stroke:rgb(0,0,0);stroke-width:0.9;fill:none;" >
    <rect width="429" x="-5" y="-27" height="37" transform="translate(53,275)" style="stroke:rgb(0,0,0);stroke-width:0;fill:none;" />
   </g>
   <g style="stroke:rgb(0,0,0);stroke-width:0.9;fill:none;" >
    <text x="209" y="9" transform="translate(53,275)" style="fill:rgb(0,0,0);stroke-width:0;font-size:12;font-style:normal;font-weight:700;font-family:Lucida Grande;" text-anchor="middle" >Intrinsic Reaction Coordinate</text>
   </g>
  </g>
  <g style="stroke:rgb(0,0,0);stroke-width:0.9;fill:none;" >
   <line style="stroke:rgb(0,0,0);stroke-width:0.9;fill:none;" y1="249" y2="257" x1="56" x2="56" />
   <g style="stroke:rgb(0,0,0);stroke-width:0.9;fill:none;" >
    <text x="-5" y="-30" transform="translate(53,297)" style="fill:rgb(0,0,0);stroke-width:0;font-size:12;font-style:normal;font-weight:400;font-family:Lucida Grande;" >-1.0</text>
   </g>
   <line style="stroke:rgb(0,0,0);stroke-width:0.9;fill:none;" y1="249" y2="257" x1="107" x2="107" />
   <g style="stroke:rgb(0,0,0);stroke-width:0.9;fill:none;" >
    <text x="-11" y="-30" transform="translate(110,297)" style="fill:rgb(0,0,0);stroke-width:0;font-size:12;font-style:normal;font-weight:400;font-family:Lucida Grande;" >-0.5</text>
   </g>
   <line style="stroke:rgb(0,0,0);stroke-width:0.9;fill:none;" y1="249" y2="257" x1="159" x2="159" />
   <g style="stroke:rgb(0,0,0);stroke-width:0.9;fill:none;" >
    <text x="-17" y="-30" transform="translate(171,297)" style="fill:rgb(0,0,0);stroke-width:0;font-size:12;font-style:normal;font-weight:400;font-family:Lucida Grande;" >0.0</text>
   </g>
   <line style="stroke:rgb(0,0,0);stroke-width:0.9;fill:none;" y1="249" y2="257" x1="211" x2="211" />
   <g style="stroke:rgb(0,0,0);stroke-width:0.9;fill:none;" >
    <text x="-23" y="-30" transform="translate(228,297)" style="fill:rgb(0,0,0);stroke-width:0;font-size:12;font-style:normal;font-weight:400;font-family:Lucida Grande;" >0.5</text>
   </g>
   <line style="stroke:rgb(0,0,0);stroke-width:0.9;fill:none;" y1="249" y2="257" x1="262" x2="262" />
   <g style="stroke:rgb(0,0,0);stroke-width:0.9;fill:none;" >
    <text x="-28" y="-30" transform="translate(285,297)" style="fill:rgb(0,0,0);stroke-width:0;font-size:12;font-style:normal;font-weight:400;font-family:Lucida Grande;" >1.0</text>
   </g>
   <line style="stroke:rgb(0,0,0);stroke-width:0.9;fill:none;" y1="249" y2="257" x1="313" x2="313" />
   <g style="stroke:rgb(0,0,0);stroke-width:0.9;fill:none;" >
    <text x="-34" y="-30" transform="translate(342,297)" style="fill:rgb(0,0,0);stroke-width:0;font-size:12;font-style:normal;font-weight:400;font-family:Lucida Grande;" >1.5</text>
   </g>
   <line style="stroke:rgb(0,0,0);stroke-width:0.9;fill:none;" y1="249" y2="257" x1="365" x2="365" />
   <g style="stroke:rgb(0,0,0);stroke-width:0.9;fill:none;" >
    <text x="-40" y="-30" transform="translate(400,297)" style="fill:rgb(0,0,0);stroke-width:0;font-size:12;font-style:normal;font-weight:400;font-family:Lucida Grande;" >2.0</text>
   </g>
   <line style="stroke:rgb(0,0,0);stroke-width:0.9;fill:none;" y1="249" y2="257" x1="417" x2="417" />
   <g style="stroke:rgb(0,0,0);stroke-width:0.9;fill:none;" >
    <text x="-46" y="-30" transform="translate(457,297)" style="fill:rgb(0,0,0);stroke-width:0;font-size:12;font-style:normal;font-weight:400;font-family:Lucida Grande;" >2.5</text>
   </g>
   <line style="stroke:rgb(0,0,0);stroke-width:0.9;fill:none;" y1="249" y2="257" x1="468" x2="468" />
   <g style="stroke:rgb(0,0,0);stroke-width:0.9;fill:none;" >
    <text x="-51" y="-30" transform="translate(514,297)" style="fill:rgb(0,0,0);stroke-width:0;font-size:12;font-style:normal;font-weight:400;font-family:Lucida Grande;" >3.0</text>
   </g>
   <line style="stroke:rgb(0,0,0);stroke-width:0.9;fill:none;" y1="249" y2="253" x1="61" x2="61" />
   <line style="stroke:rgb(0,0,0);stroke-width:0.9;fill:none;" y1="249" y2="253" x1="66" x2="66" />
   <line style="stroke:rgb(0,0,0);stroke-width:0.9;fill:none;" y1="249" y2="253" x1="71" x2="71" />
   <line style="stroke:rgb(0,0,0);stroke-width:0.9;fill:none;" y1="249" y2="253" x1="77" x2="77" />
   <line style="stroke:rgb(0,0,0);stroke-width:0.9;fill:none;" y1="249" y2="255" x1="82" x2="82" />
   <line style="stroke:rgb(0,0,0);stroke-width:0.9;fill:none;" y1="249" y2="253" x1="86" x2="86" />
   <line style="stroke:rgb(0,0,0);stroke-width:0.9;fill:none;" y1="249" y2="253" x1="92" x2="92" />
   <line style="stroke:rgb(0,0,0);stroke-width:0.9;fill:none;" y1="249" y2="253" x1="97" x2="97" />
   <line style="stroke:rgb(0,0,0);stroke-width:0.9;fill:none;" y1="249" y2="253" x1="103" x2="103" />
   <line style="stroke:rgb(0,0,0);stroke-width:0.9;fill:none;" y1="249" y2="253" x1="113" x2="113" />
   <line style="stroke:rgb(0,0,0);stroke-width:0.9;fill:none;" y1="249" y2="253" x1="118" x2="118" />
   <line style="stroke:rgb(0,0,0);stroke-width:0.9;fill:none;" y1="249" y2="253" x1="122" x2="122" />
   <line style="stroke:rgb(0,0,0);stroke-width:0.9;fill:none;" y1="249" y2="253" x1="128" x2="128" />
   <line style="stroke:rgb(0,0,0);stroke-width:0.9;fill:none;" y1="249" y2="255" x1="133" x2="133" />
   <line style="stroke:rgb(0,0,0);stroke-width:0.9;fill:none;" y1="249" y2="253" x1="139" x2="139" />
   <line style="stroke:rgb(0,0,0);stroke-width:0.9;fill:none;" y1="249" y2="253" x1="143" x2="143" />
   <line style="stroke:rgb(0,0,0);stroke-width:0.9;fill:none;" y1="249" y2="253" x1="149" x2="149" />
   <line style="stroke:rgb(0,0,0);stroke-width:0.9;fill:none;" y1="249" y2="253" x1="154" x2="154" />
   <line style="stroke:rgb(0,0,0);stroke-width:0.9;fill:none;" y1="249" y2="253" x1="164" x2="164" />
   <line style="stroke:rgb(0,0,0);stroke-width:0.9;fill:none;" y1="249" y2="253" x1="169" x2="169" />
   <line style="stroke:rgb(0,0,0);stroke-width:0.9;fill:none;" y1="249" y2="253" x1="175" x2="175" />
   <line style="stroke:rgb(0,0,0);stroke-width:0.9;fill:none;" y1="249" y2="253" x1="179" x2="179" />
   <line style="stroke:rgb(0,0,0);stroke-width:0.9;fill:none;" y1="249" y2="255" x1="185" x2="185" />
   <line style="stroke:rgb(0,0,0);stroke-width:0.9;fill:none;" y1="249" y2="253" x1="190" x2="190" />
   <line style="stroke:rgb(0,0,0);stroke-width:0.9;fill:none;" y1="249" y2="253" x1="195" x2="195" />
   <line style="stroke:rgb(0,0,0);stroke-width:0.9;fill:none;" y1="249" y2="253" x1="200" x2="200" />
   <line style="stroke:rgb(0,0,0);stroke-width:0.9;fill:none;" y1="249" y2="253" x1="205" x2="205" />
   <line style="stroke:rgb(0,0,0);stroke-width:0.9;fill:none;" y1="249" y2="253" x1="215" x2="215" />
   <line style="stroke:rgb(0,0,0);stroke-width:0.9;fill:none;" y1="249" y2="253" x1="221" x2="221" />
   <line style="stroke:rgb(0,0,0);stroke-width:0.9;fill:none;" y1="249" y2="253" x1="226" x2="226" />
   <line style="stroke:rgb(0,0,0);stroke-width:0.9;fill:none;" y1="249" y2="253" x1="231" x2="231" />
   <line style="stroke:rgb(0,0,0);stroke-width:0.9;fill:none;" y1="249" y2="255" x1="236" x2="236" />
   <line style="stroke:rgb(0,0,0);stroke-width:0.9;fill:none;" y1="249" y2="253" x1="241" x2="241" />
   <line style="stroke:rgb(0,0,0);stroke-width:0.9;fill:none;" y1="249" y2="253" x1="247" x2="247" />
   <line style="stroke:rgb(0,0,0);stroke-width:0.9;fill:none;" y1="249" y2="253" x1="252" x2="252" />
   <line style="stroke:rgb(0,0,0);stroke-width:0.9;fill:none;" y1="249" y2="253" x1="257" x2="257" />
   <line style="stroke:rgb(0,0,0);stroke-width:0.9;fill:none;" y1="249" y2="253" x1="267" x2="267" />
   <line style="stroke:rgb(0,0,0);stroke-width:0.9;fill:none;" y1="249" y2="253" x1="272" x2="272" />
   <line style="stroke:rgb(0,0,0);stroke-width:0.9;fill:none;" y1="249" y2="253" x1="277" x2="277" />
   <line style="stroke:rgb(0,0,0);stroke-width:0.9;fill:none;" y1="249" y2="253" x1="283" x2="283" />
   <line style="stroke:rgb(0,0,0);stroke-width:0.9;fill:none;" y1="249" y2="255" x1="288" x2="288" />
   <line style="stroke:rgb(0,0,0);stroke-width:0.9;fill:none;" y1="249" y2="253" x1="293" x2="293" />
   <line style="stroke:rgb(0,0,0);stroke-width:0.9;fill:none;" y1="249" y2="253" x1="298" x2="298" />
   <line style="stroke:rgb(0,0,0);stroke-width:0.9;fill:none;" y1="249" y2="253" x1="303" x2="303" />
   <line style="stroke:rgb(0,0,0);stroke-width:0.9;fill:none;" y1="249" y2="253" x1="309" x2="309" />
   <line style="stroke:rgb(0,0,0);stroke-width:0.9;fill:none;" y1="249" y2="253" x1="319" x2="319" />
   <line style="stroke:rgb(0,0,0);stroke-width:0.9;fill:none;" y1="249" y2="253" x1="324" x2="324" />
   <line style="stroke:rgb(0,0,0);stroke-width:0.9;fill:none;" y1="249" y2="253" x1="329" x2="329" />
   <line style="stroke:rgb(0,0,0);stroke-width:0.9;fill:none;" y1="249" y2="253" x1="334" x2="334" />
   <line style="stroke:rgb(0,0,0);stroke-width:0.9;fill:none;" y1="249" y2="255" x1="339" x2="339" />
   <line style="stroke:rgb(0,0,0);stroke-width:0.9;fill:none;" y1="249" y2="253" x1="345" x2="345" />
   <line style="stroke:rgb(0,0,0);stroke-width:0.9;fill:none;" y1="249" y2="253" x1="349" x2="349" />
   <line style="stroke:rgb(0,0,0);stroke-width:0.9;fill:none;" y1="249" y2="253" x1="355" x2="355" />
   <line style="stroke:rgb(0,0,0);stroke-width:0.9;fill:none;" y1="249" y2="253" x1="360" x2="360" />
   <line style="stroke:rgb(0,0,0);stroke-width:0.9;fill:none;" y1="249" y2="253" x1="370" x2="370" />
   <line style="stroke:rgb(0,0,0);stroke-width:0.9;fill:none;" y1="249" y2="253" x1="375" x2="375" />
   <line style="stroke:rgb(0,0,0);stroke-width:0.9;fill:none;" y1="249" y2="253" x1="381" x2="381" />
   <line style="stroke:rgb(0,0,0);stroke-width:0.9;fill:none;" y1="249" y2="253" x1="385" x2="385" />
   <line style="stroke:rgb(0,0,0);stroke-width:0.9;fill:none;" y1="249" y2="255" x1="391" x2="391" />
   <line style="stroke:rgb(0,0,0);stroke-width:0.9;fill:none;" y1="249" y2="253" x1="396" x2="396" />
   <line style="stroke:rgb(0,0,0);stroke-width:0.9;fill:none;" y1="249" y2="253" x1="401" x2="401" />
   <line style="stroke:rgb(0,0,0);stroke-width:0.9;fill:none;" y1="249" y2="253" x1="406" x2="406" />
   <line style="stroke:rgb(0,0,0);stroke-width:0.9;fill:none;" y1="249" y2="253" x1="411" x2="411" />
   <line style="stroke:rgb(0,0,0);stroke-width:0.9;fill:none;" y1="249" y2="253" x1="421" x2="421" />
   <line style="stroke:rgb(0,0,0);stroke-width:0.9;fill:none;" y1="249" y2="253" x1="427" x2="427" />
   <line style="stroke:rgb(0,0,0);stroke-width:0.9;fill:none;" y1="249" y2="253" x1="432" x2="432" />
   <line style="stroke:rgb(0,0,0);stroke-width:0.9;fill:none;" y1="249" y2="253" x1="437" x2="437" />
   <line style="stroke:rgb(0,0,0);stroke-width:0.9;fill:none;" y1="249" y2="255" x1="442" x2="442" />
   <line style="stroke:rgb(0,0,0);stroke-width:0.9;fill:none;" y1="249" y2="253" x1="447" x2="447" />
   <line style="stroke:rgb(0,0,0);stroke-width:0.9;fill:none;" y1="249" y2="253" x1="453" x2="453" />
   <line style="stroke:rgb(0,0,0);stroke-width:0.9;fill:none;" y1="249" y2="253" x1="458" x2="458" />
   <line style="stroke:rgb(0,0,0);stroke-width:0.9;fill:none;" y1="249" y2="253" x1="463" x2="463" />
   <line style="stroke:rgb(0,0,0);stroke-width:0.9;fill:none;" y1="249" y2="249" x1="56" x2="468" />
  </g>
  <rect width="424" x="52" y="26" height="220" style="stroke:rgb(0,0,0);stroke-width:0;fill:rgb(255,255,255);" />
   <g style="stroke:rgb(192,192,192);stroke-width:0.9;fill:none;" >
   <polyline points="73 56 82 54 92 55 102 54 110 56 119 45 129 63 139 65 149 79 159 104 169 129 180 155 190 180 200 201 210 216 221 223 231 228 241 230 251 232 262 232 272 234 282 235 293 235 303 236 313 237 323 238 334 239 344 240 354 241 364 241 375 241 385 242 395 242 405 242 415 241 426 241" style="stroke:rgb(0,0,0);stroke-width:2.0;fill:none;" />
  </g>
  <g style="stroke:rgb(192,192,192);stroke-width:0.9;fill:none;" >
   <circle cx="73.5" cy="56.5" style="stroke:rgb(0,0,255);stroke-width:0.9;fill:rgb(192,192,192);" r="2.5" />
   <circle cx="82.5" cy="54.5" style="stroke:rgb(0,0,255);stroke-width:0.9;fill:rgb(192,192,192);" r="2.5" />
   <circle cx="92.5" cy="55.5" style="stroke:rgb(0,0,255);stroke-width:0.9;fill:rgb(192,192,192);" r="2.5" />
   <circle cx="102.5" cy="54.5" style="stroke:rgb(0,0,255);stroke-width:0.9;fill:rgb(192,192,192);" r="2.5" />
   <circle cx="110.5" cy="56.5" style="stroke:rgb(0,0,255);stroke-width:0.9;fill:rgb(192,192,192);" r="2.5" />
   <circle cx="119.5" cy="45.5" style="stroke:rgb(0,0,255);stroke-width:0.9;fill:rgb(192,192,192);" r="2.5" />
   <circle cx="129.5" cy="63.5" style="stroke:rgb(0,0,255);stroke-width:0.9;fill:rgb(192,192,192);" r="2.5" />
   <circle cx="139.5" cy="65.5" style="stroke:rgb(0,0,255);stroke-width:0.9;fill:rgb(192,192,192);" r="2.5" />
   <circle cx="149.5" cy="79.5" style="stroke:rgb(0,0,255);stroke-width:0.9;fill:rgb(192,192,192);" r="2.5" />
   <circle cx="159.5" cy="104.5" style="stroke:rgb(0,0,255);stroke-width:0.9;fill:rgb(192,192,192);" r="2.5" />
   <circle cx="169.5" cy="129.5" style="stroke:rgb(0,0,255);stroke-width:0.9;fill:rgb(192,192,192);" r="2.5" />
   <circle cx="180.5" cy="155.5" style="stroke:rgb(0,0,255);stroke-width:0.9;fill:rgb(192,192,192);" r="2.5" />
   <circle cx="190.5" cy="180.5" style="stroke:rgb(0,0,255);stroke-width:0.9;fill:rgb(192,192,192);" r="2.5" />
   <circle cx="200.5" cy="201.5" style="stroke:rgb(0,0,255);stroke-width:0.9;fill:rgb(192,192,192);" r="2.5" />
   <circle cx="210.5" cy="216.5" style="stroke:rgb(0,0,255);stroke-width:0.9;fill:rgb(192,192,192);" r="2.5" />
   <circle cx="221.5" cy="223.5" style="stroke:rgb(0,0,255);stroke-width:0.9;fill:rgb(192,192,192);" r="2.5" />
   <circle cx="231.5" cy="228.5" style="stroke:rgb(0,0,255);stroke-width:0.9;fill:rgb(192,192,192);" r="2.5" />
   <circle cx="241.5" cy="230.5" style="stroke:rgb(0,0,255);stroke-width:0.9;fill:rgb(192,192,192);" r="2.5" />
   <circle cx="251.5" cy="232.5" style="stroke:rgb(0,0,255);stroke-width:0.9;fill:rgb(192,192,192);" r="2.5" />
   <circle cx="262.5" cy="232.5" style="stroke:rgb(0,0,255);stroke-width:0.9;fill:rgb(192,192,192);" r="2.5" />
   <circle cx="272.5" cy="234.5" style="stroke:rgb(0,0,255);stroke-width:0.9;fill:rgb(192,192,192);" r="2.5" />
   <circle cx="282.5" cy="235.5" style="stroke:rgb(0,0,255);stroke-width:0.9;fill:rgb(192,192,192);" r="2.5" />
   <circle cx="293.5" cy="235.5" style="stroke:rgb(0,0,255);stroke-width:0.9;fill:rgb(192,192,192);" r="2.5" />
   <circle cx="303.5" cy="236.5" style="stroke:rgb(0,0,255);stroke-width:0.9;fill:rgb(192,192,192);" r="2.5" />
   <circle cx="313.5" cy="237.5" style="stroke:rgb(0,0,255);stroke-width:0.9;fill:rgb(192,192,192);" r="2.5" />
   <circle cx="323.5" cy="238.5" style="stroke:rgb(0,0,255);stroke-width:0.9;fill:rgb(192,192,192);" r="2.5" />
   <circle cx="334.5" cy="239.5" style="stroke:rgb(0,0,255);stroke-width:0.9;fill:rgb(192,192,192);" r="2.5" />
   <circle cx="344.5" cy="240.5" style="stroke:rgb(0,0,255);stroke-width:0.9;fill:rgb(192,192,192);" r="2.5" />
   <circle cx="354.5" cy="241.5" style="stroke:rgb(0,0,255);stroke-width:0.9;fill:rgb(192,192,192);" r="2.5" />
   <circle cx="364.5" cy="241.5" style="stroke:rgb(0,0,255);stroke-width:0.9;fill:rgb(192,192,192);" r="2.5" />
   <circle cx="375.5" cy="241.5" style="stroke:rgb(0,0,255);stroke-width:0.9;fill:rgb(192,192,192);" r="2.5" />
   <circle cx="385.5" cy="242.5" style="stroke:rgb(0,0,255);stroke-width:0.9;fill:rgb(192,192,192);" r="2.5" />
   <circle cx="395.5" cy="242.5" style="stroke:rgb(0,0,255);stroke-width:0.9;fill:rgb(192,192,192);" r="2.5" />
   <circle cx="405.5" cy="242.5" style="stroke:rgb(0,0,255);stroke-width:0.9;fill:rgb(192,192,192);" r="2.5" />
   <circle cx="415.5" cy="241.5" style="stroke:rgb(0,0,255);stroke-width:0.9;fill:rgb(192,192,192);" r="2.5" />
   <circle cx="426.5" cy="241.5" style="stroke:rgb(0,0,255);stroke-width:0.9;fill:rgb(192,192,192);" r="2.5" />
  </g>
 </g>
</svg>
