<svg id="Layer_1" data-name="Layer 1" xmlns="http://www.w3.org/2000/svg" viewBox="0 0 1000 1000"><defs><style>.cls-1{fill:#fd6925;}.cls-2{fill:#fff;}</style></defs><title>9</title><g id="_Group_" data-name="&lt;Group&gt;"><rect id="_Path_" data-name="&lt;Path&gt;" class="cls-1" y="-0.01" width="1000" height="1000.02"/><path id="_Compound_Path_" data-name="&lt;Compound Path&gt;" class="cls-2" d="M183.15,134.53c0-31.22-13.68-53.8-49.35-53.8-36,0-49.93,19.61-49.93,50.82v29.73c0,33,13.07,49.64,37.45,49.64,14.27,0,22.88-6.55,27.93-16.34h0.29V238c0,12.19-4.76,20.81-16.94,20.81S116,251.64,116,239.15V225.78H85.05v10.7c0,29.72,10.71,50.52,48.17,50.52,35.65,0,49.94-22.89,49.94-54.4V134.53Zm-33.6,30.91c-0.59,11.29-5.35,18.42-16,18.42-11.58,0-16.05-7.13-16.05-20.22V128.58c0-12.78,4.75-20.21,16.35-20.21,11.29,0,15.75,7.72,15.75,20.21v36.87Z"/><path id="_Compound_Path_2" data-name="&lt;Compound Path&gt;" class="cls-2" d="M755.45,657.28L636.57,588.67V451.42a8.11,8.11,0,0,0-4.05-7l-122.9-71a8.13,8.13,0,0,0-8.11,0l-122.91,71a8.11,8.11,0,0,0-4.05,7V588.67L255.69,657.28a8.1,8.1,0,0,0-4.05,7V806.25a8.11,8.11,0,0,0,4.05,7L378.6,884.22a8.11,8.11,0,0,0,8.11,0l118.86-68.61,118.85,68.61a8.11,8.11,0,0,0,8.11,0l122.93-70.95a8.1,8.1,0,0,0,4.05-7V664.3A8.1,8.1,0,0,0,755.45,657.28Zm-258,134.93-98.59-56.93,98.59-56.93V792.2ZM612.24,593.36l-98.57,56.9V536.43Zm-114.79,56.9-98.58-56.9,98.58-56.93V650.26Zm24.33,14,106.68-61.58L735.17,664.3,628.47,725.91Zm98.57-85-98.57-56.93,98.57-56.91V579.31Zm-131-56.93-98.58,56.93V465.47ZM374.55,863.15l-106.7-61.59V678.35L374.55,740V863.15Zm16.21,0V749.32l98.58,56.93Zm352.53-61.59L636.57,863.15V740l106.72-61.61V801.56Z"/><g id="_Group_2" data-name="&lt;Group&gt;"><path id="_Compound_Path_3" data-name="&lt;Compound Path&gt;" class="cls-2" d="M236.07,85.38h13.11v77.94H236.07V85.38Z"/><path id="_Compound_Path_4" data-name="&lt;Compound Path&gt;" class="cls-2" d="M266.07,114.35v49H255V85.38h12.88l14.14,44.72V85.38H293v77.94h-11.5Z"/><path id="_Compound_Path_5" data-name="&lt;Compound Path&gt;" class="cls-2" d="M337.92,106.31v36.1c0,12-4.94,20.92-19,20.92H298.72V85.38H319C333,85.38,337.92,94.24,337.92,106.31Zm-20.58,46.33c5.4,0,7.47-3.22,7.47-7.93V103.89c0-4.6-2.07-7.82-7.47-7.82h-5.52v56.56h5.52Z"/><path id="_Compound_Path_6" data-name="&lt;Compound Path&gt;" class="cls-2" d="M381.72,85.38v59c0,12.07-5.17,19.89-18.51,19.89-13.79,0-19.54-7.82-19.54-19.89v-59h13.11v60.24c0,4.6,1.84,7.7,6.44,7.7s6.44-3.1,6.44-7.7V85.38h12.07Z"/><path id="_Compound_Path_7" data-name="&lt;Compound Path&gt;" class="cls-2" d="M386.78,146.54V136.08H399v10.69c0,4.37,2,6.9,6.44,6.9,4.14,0,6-2.76,6-6.9v-3c0-4.48-1.84-7.24-5.86-11l-7.7-7.7c-7.47-7.36-10.92-11.84-10.92-20.81v-2.64c0-9.66,5.63-17.13,18.39-17.13,13.11,0,18.28,6.44,18.28,17.7v6.32h-12v-6.78c0-4.48-2.07-6.67-6.21-6.67-3.68,0-6.21,2.07-6.21,6.44v1.61c0,4.37,2.41,6.9,6.21,10.58l8.39,8.28c7.13,7.24,10.58,11.61,10.58,20.23V146c0,10.69-5.75,18.28-19.08,18.28S386.78,156.77,386.78,146.54Z"/><path id="_Compound_Path_8" data-name="&lt;Compound Path&gt;" class="cls-2" d="M425.18,85.38H460V96.08H449.2v67.25H436V96.08H425.18V85.38Z"/><path id="_Compound_Path_9" data-name="&lt;Compound Path&gt;" class="cls-2" d="M477.48,127.57v35.75H464.38V85.38h19.08c13.22,0,18,6.55,18,17.47v10c0,8.39-3,13.34-10.46,15.06l12.53,35.41H489.78Zm0-31.5v24.26h4.37c4.48,0,6.44-2.3,6.44-6.44V102.4c0-4.25-2-6.32-6.44-6.32h-4.37Z"/><path id="_Compound_Path_10" data-name="&lt;Compound Path&gt;" class="cls-2" d="M529.56,133.67v29.66H516.45V133.67l-14.6-48.28h13.68l7.93,29.54h0.12l7.93-29.54H544Z"/><path id="_Compound_Path_11" data-name="&lt;Compound Path&gt;" class="cls-2" d="M555.31,151.83l-6.67,17.59h-7.36l1.61-18.62h12.42v1Z"/><path id="_Compound_Path_12" data-name="&lt;Compound Path&gt;" class="cls-2" d="M571.41,85.38h13.1v77.94h-13.1V85.38Z"/><path id="_Compound_Path_13" data-name="&lt;Compound Path&gt;" class="cls-2" d="M601.41,114.35v49h-11V85.38h12.88l14.14,44.72V85.38h10.92v77.94h-11.5Z"/><path id="_Compound_Path_14" data-name="&lt;Compound Path&gt;" class="cls-2" d="M645.09,114.35v49h-11V85.38h12.88l14.14,44.72V85.38H672v77.94H660.5Z"/><path id="_Compound_Path_15" data-name="&lt;Compound Path&gt;" class="cls-2" d="M677.74,143.21V105.5c0-12.19,6-21,19.77-21s19.89,8.85,19.89,21v37.71c0,12.07-6,21-19.89,21S677.74,155.28,677.74,143.21Zm26.55,2.07V103.43c0-4.71-2.07-8-6.78-8s-6.67,3.33-6.67,8v41.85c0,4.71,2.07,8,6.67,8S704.3,150,704.3,145.28Z"/><path id="_Compound_Path_16" data-name="&lt;Compound Path&gt;" class="cls-2" d="M765.11,85.38l-14.83,77.94H736L721.2,85.38h13.33l9,54.38h0.12l9.2-54.38h12.3Z"/><path id="_Compound_Path_17" data-name="&lt;Compound Path&gt;" class="cls-2" d="M761,163.33l14.71-77.94h14.94l14.83,77.94H792l-2.41-14.25H775.68l-2.3,14.25H761Zm16.44-24.72h10.46l-5.17-31.27h-0.12Z"/><path id="_Compound_Path_18" data-name="&lt;Compound Path&gt;" class="cls-2" d="M801.9,85.38h34.83V96.08H825.92v67.25H812.7V96.08H801.9V85.38Z"/><path id="_Compound_Path_19" data-name="&lt;Compound Path&gt;" class="cls-2" d="M841.1,85.38H854.2v77.94H841.1V85.38Z"/><path id="_Compound_Path_20" data-name="&lt;Compound Path&gt;" class="cls-2" d="M860.06,143.21V105.5c0-12.19,6-21,19.77-21s19.89,8.85,19.89,21v37.71c0,12.07-6,21-19.89,21S860.06,155.28,860.06,143.21Zm26.55,2.07V103.43c0-4.71-2.07-8-6.78-8s-6.67,3.33-6.67,8v41.85c0,4.71,2.07,8,6.67,8S886.62,150,886.62,145.28Z"/><path id="_Compound_Path_21" data-name="&lt;Compound Path&gt;" class="cls-2" d="M916.51,114.35v49h-11V85.38h12.88l14.14,44.72V85.38h10.92v77.94h-11.5Z"/></g><g id="_Group_3" data-name="&lt;Group&gt;"><path id="_Compound_Path_22" data-name="&lt;Compound Path&gt;" class="cls-2" d="M233.95,283.44l14.71-77.94H263.6l14.83,77.94H265l-2.41-14.25H248.66l-2.3,14.25H233.95Zm16.44-24.72h10.46l-5.17-31.27h-0.12Z"/><path id="_Compound_Path_23" data-name="&lt;Compound Path&gt;" class="cls-2" d="M294.3,234.47v49h-11V205.5h12.87l14.14,44.72V205.5H321.2v77.94H309.7Z"/><path id="_Compound_Path_24" data-name="&lt;Compound Path&gt;" class="cls-2" d="M367.3,226.42v36.1c0,12-4.94,20.92-19,20.92H328.1V205.5h20.23C362.35,205.5,367.3,214.35,367.3,226.42Zm-20.58,46.33c5.4,0,7.47-3.22,7.47-7.93V224c0-4.6-2.07-7.82-7.47-7.82H341.2v56.56h5.52Z"/><path id="_Compound_Path_25" data-name="&lt;Compound Path&gt;" class="cls-2" d="M385.69,205.5H398.8v77.94H385.69V205.5Z"/><path id="_Compound_Path_26" data-name="&lt;Compound Path&gt;" class="cls-2" d="M416.84,234.47v49h-11V205.5h12.88l14.14,44.72V205.5h10.92v77.94h-11.5Z"/><path id="_Compound_Path_27" data-name="&lt;Compound Path&gt;" class="cls-2" d="M450.64,205.5h30.69v10.69H463.75v22.3h13.11v10.58H463.75v34.37H450.64V205.5Z"/><path id="_Compound_Path_28" data-name="&lt;Compound Path&gt;" class="cls-2" d="M499.61,247.69v35.75H486.51V205.5h19.08c13.22,0,18,6.55,18,17.47v10c0,8.39-3,13.34-10.46,15.06l12.53,35.41H511.91Zm0-31.5v24.26H504c4.48,0,6.44-2.3,6.44-6.44v-11.5c0-4.25-2-6.32-6.44-6.32h-4.37Z"/><path id="_Compound_Path_29" data-name="&lt;Compound Path&gt;" class="cls-2" d="M528.12,283.44l14.71-77.94h14.94l14.83,77.94H559.16l-2.41-14.25H542.84l-2.3,14.25H528.12Zm16.44-24.72H555l-5.17-31.27h-0.12Z"/><path id="_Compound_Path_30" data-name="&lt;Compound Path&gt;" class="cls-2" d="M575.6,266.66V256.2h12.18v10.69c0,4.37,2,6.9,6.44,6.9,4.14,0,6-2.76,6-6.9v-3c0-4.48-1.84-7.24-5.86-11l-7.7-7.7c-7.47-7.36-10.92-11.84-10.92-20.81v-2.64c0-9.66,5.63-17.13,18.39-17.13,13.11,0,18.28,6.44,18.28,17.7v6.32h-12v-6.78c0-4.48-2.07-6.67-6.21-6.67-3.68,0-6.21,2.07-6.21,6.44v1.61c0,4.37,2.41,6.9,6.21,10.58l8.39,8.28c7.13,7.24,10.58,11.61,10.58,20.23v3.79c0,10.69-5.75,18.28-19.08,18.28S575.6,276.89,575.6,266.66Z"/><path id="_Compound_Path_31" data-name="&lt;Compound Path&gt;" class="cls-2" d="M616.3,205.5h34.83v10.69H640.32v67.25H627.1V216.19H616.3V205.5Z"/><path id="_Compound_Path_32" data-name="&lt;Compound Path&gt;" class="cls-2" d="M669.75,247.69v35.75H656.65V205.5h19.08c13.22,0,18,6.55,18,17.47v10c0,8.39-3,13.34-10.46,15.06l12.53,35.41H682.05Zm0-31.5v24.26h4.37c4.48,0,6.44-2.3,6.44-6.44v-11.5c0-4.25-2-6.32-6.44-6.32h-4.37Z"/><path id="_Compound_Path_33" data-name="&lt;Compound Path&gt;" class="cls-2" d="M738.38,205.5v59c0,12.07-5.17,19.89-18.51,19.89-13.79,0-19.54-7.82-19.54-19.89v-59h13.11v60.24c0,4.6,1.84,7.7,6.44,7.7s6.44-3.1,6.44-7.7V205.5h12.07Z"/><path id="_Compound_Path_34" data-name="&lt;Compound Path&gt;" class="cls-2" d="M745.28,263.33V225.62c0-12.19,5.75-21,19.54-21,14.48,0,18.51,8,18.51,19.54v9.2h-12V223.09c0-4.83-1.61-7.59-6.32-7.59s-6.67,3.33-6.67,8V265.4c0,4.71,2,8,6.67,8s6.32-3,6.32-7.59V251.49h12v13.45c0,11.15-4.6,19.43-18.51,19.43S745.28,275.4,745.28,263.33Z"/><path id="_Compound_Path_35" data-name="&lt;Compound Path&gt;" class="cls-2" d="M785.52,205.5h34.83v10.69H809.54v67.25H796.32V216.19H785.52V205.5Z"/><path id="_Compound_Path_36" data-name="&lt;Compound Path&gt;" class="cls-2" d="M863.92,205.5v59c0,12.07-5.17,19.89-18.51,19.89-13.79,0-19.54-7.82-19.54-19.89v-59H839v60.24c0,4.6,1.84,7.7,6.44,7.7s6.44-3.1,6.44-7.7V205.5h12.07Z"/><path id="_Compound_Path_37" data-name="&lt;Compound Path&gt;" class="cls-2" d="M883.92,247.69v35.75h-13.1V205.5H889.9c13.22,0,18,6.55,18,17.47v10c0,8.39-3,13.34-10.46,15.06L910,283.44H896.22Zm0-31.5v24.26h4.37c4.48,0,6.44-2.3,6.44-6.44v-11.5c0-4.25-2-6.32-6.44-6.32h-4.37Z"/><path id="_Compound_Path_38" data-name="&lt;Compound Path&gt;" class="cls-2" d="M914.5,205.5h31.27v10.69H927.61v22.3h13v10.58h-13v23.68h18.16v10.69H914.5V205.5Z"/></g></g></svg>