<?xml version="1.0" encoding="UTF-8" standalone="no"?>
<svg width="683px" height="331px" viewBox="0 0 683 331" version="1.1" xmlns="http://www.w3.org/2000/svg" xmlns:xlink="http://www.w3.org/1999/xlink" xmlns:sketch="http://www.bohemiancoding.com/sketch/ns">
    <!-- Generator: Sketch 3.3.2 (12043) - http://www.bohemiancoding.com/sketch -->
    <title>Group</title>
    <desc>Created with Sketch.</desc>
    <defs></defs>
    <g id="Page-1" stroke="none" stroke-width="1" fill="none" fill-rule="evenodd" sketch:type="MSPage">
        <g id="Desktop" sketch:type="MSArtboardGroup" transform="translate(-225.000000, -355.000000)">
            <g id="Group" sketch:type="MSLayerGroup" transform="translate(225.000000, 353.000000)">
                <path d="M0,283.5 C0,282.671573 0.67474084,282 1.50764494,282 L540.687531,282 C541.520181,282 542.195176,282.665797 542.195176,283.5 C542.195176,284.328427 541.520435,285 540.687531,285 L1.50764494,285 C0.674995632,285 0,284.334203 0,283.5 Z M550,283.5 C550,282.671573 550.664258,282 551.490752,282 L570.704424,282 C571.527744,282 572.195176,282.665797 572.195176,283.5 C572.195176,284.328427 571.530919,285 570.704424,285 L551.490752,285 C550.667433,285 550,284.334203 550,283.5 Z M580,283.5 C580,282.671573 580.664258,282 581.490752,282 L600.704424,282 C601.527744,282 602.195176,282.665797 602.195176,283.5 C602.195176,284.328427 601.530919,285 600.704424,285 L581.490752,285 C580.667433,285 580,284.334203 580,283.5 Z M610,283.5 C610,282.671573 610.664258,282 611.490752,282 L630.704424,282 C631.527744,282 632.195176,282.665797 632.195176,283.5 C632.195176,284.328427 631.530919,285 630.704424,285 L611.490752,285 C610.667433,285 610,284.334203 610,283.5 Z M640,283.5 C640,282.671573 640.662785,282 641.501749,282 L680.693428,282 C681.52282,282 682.195176,282.665797 682.195176,283.5 C682.195176,284.328427 681.532391,285 680.693428,285 L641.501749,285 C640.672356,285 640,284.334203 640,283.5 Z" id="Rectangle-87-Copy-6" fill="#F1666A" sketch:type="MSShapeGroup"></path>
                <path d="M3,285.15201 L572.332445,285.15201 L572.332445,33 L537.339844,51.8160725 L474.050781,110.745758 L376.816406,163.972321 C376.816406,163.972321 347.299506,220.500257 319.335938,228.827789 C281.268256,240.16432 177.84375,252.83951 177.84375,252.83951 L3,285.15201 Z" id="Path-434-Copy" opacity="0.1" fill="#E94E03" sketch:type="MSShapeGroup"></path>
                <rect id="Rectangle-87-Copy-11" opacity="0.2" fill="#F1666A" sketch:type="MSShapeGroup" x="0" y="243" width="572.195176" height="1" rx="40"></rect>
                <rect id="Rectangle-87-Copy-12" opacity="0.2" fill="#F1666A" sketch:type="MSShapeGroup" x="0" y="142" width="572.195176" height="1" rx="40"></rect>
                <rect id="Rectangle-87-Copy-15" opacity="0.2" fill="#F1666A" sketch:type="MSShapeGroup" x="0" y="92" width="572.195176" height="1" rx="40"></rect>
                <text id="2012" sketch:type="MSTextLayer" font-family="Museo Sans Rounded" font-size="12" font-weight="260" sketch:alignment="middle" fill="#000000">
                    <tspan x="45.202" y="322">2012</tspan>
                </text>
                <circle id="Oval-8" fill="#F1666A" sketch:type="MSShapeGroup" cx="215.5" cy="282.5" r="9.5"></circle>
                <circle id="Oval-8-Copy" fill="#FFFFFF" sketch:type="MSShapeGroup" cx="215.5" cy="282.5" r="1.83333333"></circle>
                <text id="2013" sketch:type="MSTextLayer" font-family="Museo Sans Rounded" font-size="12" font-weight="260" sketch:alignment="middle" fill="#000000">
                    <tspan x="204.178" y="322">2013</tspan>
                </text>
                <circle id="Oval-8" fill="#F1666A" sketch:type="MSShapeGroup" cx="376.5" cy="282.5" r="9.5"></circle>
                <circle id="Oval-8-Copy" fill="#FFFFFF" sketch:type="MSShapeGroup" cx="376.5" cy="282.5" r="1.83333333"></circle>
                <text id="2014" sketch:type="MSTextLayer" font-family="Museo Sans Rounded" font-size="12" font-weight="260" sketch:alignment="middle" fill="#000000">
                    <tspan x="364.492" y="322">2014</tspan>
                </text>
                <circle id="Oval-8" fill="#F1666A" sketch:type="MSShapeGroup" cx="511.5" cy="282.5" r="9.5"></circle>
                <circle id="Oval-8-Copy" fill="#FFFFFF" sketch:type="MSShapeGroup" cx="511.5" cy="282.5" r="1.83333333"></circle>
                <text id="2015" sketch:type="MSTextLayer" font-family="Museo Sans Rounded" font-size="12" font-weight="260" sketch:alignment="middle" fill="#000000">
                    <tspan x="500.22" y="322">2015</tspan>
                </text>
                <text id="Customers" sketch:type="MSTextLayer" font-family="Museo Sans Rounded" font-size="12" font-weight="260" sketch:alignment="middle" fill="#000000">
                    <tspan x="600.158" y="322">Customers</tspan>
                </text>
                <text id="1,000" sketch:type="MSTextLayer" font-family="Museo Sans Rounded" font-size="12" font-weight="260" sketch:alignment="middle" fill="#000000">
                    <tspan x="600.476" y="246">1,000</tspan>
                </text>
                <text id="3,000" sketch:type="MSTextLayer" font-family="Museo Sans Rounded" font-size="12" font-weight="260" sketch:alignment="middle" fill="#000000">
                    <tspan x="600.25" y="145">3,000</tspan>
                </text>
                <rect id="Rectangle-87-Copy-14" opacity="0.2" fill="#F1666A" sketch:type="MSShapeGroup" x="0" y="192" width="572.195176" height="1" rx="40"></rect>
                <rect id="Rectangle-87-Copy-16" opacity="0.2" fill="#F1666A" sketch:type="MSShapeGroup" x="571" y="22" width="1" height="311" rx="40"></rect>
                <text id="2,000" sketch:type="MSTextLayer" font-family="Museo Sans Rounded" font-size="12" font-weight="260" sketch:alignment="middle" fill="#000000">
                    <tspan x="600.274" y="195">2,000</tspan>
                </text>
                <text id="4,000" sketch:type="MSTextLayer" font-family="Museo Sans Rounded" font-size="12" font-weight="260" sketch:alignment="middle" fill="#000000">
                    <tspan x="600.064" y="95">4,000</tspan>
                </text>
                <path d="M571.5,246 C572.880712,246 574,244.880712 574,243.5 C574,242.119288 572.880712,241 571.5,241 C570.119288,241 569,242.119288 569,243.5 C569,244.880712 570.119288,246 571.5,246 Z" id="Oval-8-Copy-9" fill="#F1666A" sketch:type="MSShapeGroup"></path>
                <path d="M571.5,195 C572.880712,195 574,193.880712 574,192.5 C574,191.119288 572.880712,190 571.5,190 C570.119288,190 569,191.119288 569,192.5 C569,193.880712 570.119288,195 571.5,195 Z" id="Oval-8-Copy-15" fill="#F1666A" sketch:type="MSShapeGroup"></path>
                <path d="M571.5,145 C572.880712,145 574,143.880712 574,142.5 C574,141.119288 572.880712,140 571.5,140 C570.119288,140 569,141.119288 569,142.5 C569,143.880712 570.119288,145 571.5,145 Z" id="Oval-8-Copy-16" fill="#F1666A" sketch:type="MSShapeGroup"></path>
                <path d="M571.5,95 C572.880712,95 574,93.8807119 574,92.5 C574,91.1192881 572.880712,90 571.5,90 C570.119288,90 569,91.1192881 569,92.5 C569,93.8807119 570.119288,95 571.5,95 Z" id="Oval-8-Copy-17" fill="#F1666A" sketch:type="MSShapeGroup"></path>
                <g id="Rectangle-110-_x2B_-Rectangle-109-_x2B_-Rectangle-111-_x2B_-Shape-6-_x2B_-Group-_x2B_-Rectangle-166_6_" transform="translate(30.298507, 201.928959)" sketch:type="MSShapeGroup">
                    <path d="M30.2204869,45.6907976 L30.2204869,37.8674085 C30.2204869,30.5458547 24.4127961,24.5259104 16.9918579,24.5259104 L13.6040383,24.5259104 C6.34442484,24.5259104 0.375409333,30.3831535 0.375409333,37.8674085 L0.375409333,45.6907976 L30.2204869,45.6907976 Z" id="Shape" fill="#F1666A"></path>
                    <path d="M6.25896876,10.8215218 L6.25896876,19.5962266 C6.25896876,24.7286011 10.01435,28.8676128 14.8650508,28.8676128 L17.0556899,28.8676128 C21.7499165,28.8676128 25.6617719,24.7286011 25.6617719,19.5962266 L25.6617719,10.8215218 L6.25896876,10.8215218 L6.25896876,10.8215218 Z" id="Shape-7_19_" fill="#FCD3CA"></path>
                    <path d="M25.5052977,18.1061823 L25.5052977,9.33147754 C25.5052977,4.19910303 21.7499165,0.0600913343 16.8992157,0.0600913343 L14.7085766,0.0600913343 C10.01435,0.0600913343 6.10249454,4.19910303 6.10249454,9.33147754 L6.10249454,18.1061823 L25.5052977,18.1061823 L25.5052977,18.1061823 Z" id="Shape-3_19_" fill="#FCD3CA"></path>
                    <path d="M20.0287,19.4306661 L11.5790922,19.4306661 C11.5790922,22.0796336 13.4567828,24.0663592 15.8038961,24.0663592 C18.1510094,24.0663592 20.0287,22.0796336 20.0287,19.4306661 Z" id="Shape-4_19_" fill="#AA6354"></path>
                    <path d="M16.8992157,0.0600913343 L14.7085766,0.0600913343 C9.8578758,0.0600913343 5.78954611,4.3646635 5.78954611,9.66259848 L5.78954611,12.311566 C8.60608205,11.8148846 10.9531953,8.83479614 11.5790922,5.02690537 C12.6744117,6.02026818 13.9262055,6.51694959 15.3344735,6.51694959 C17.0556899,6.51694959 18.6204321,5.68914725 19.7157516,4.19910303 C20.1851743,8.5036752 22.6887618,11.8148846 25.6617719,12.311566 L25.6617719,9.66259848 C25.8182461,4.3646635 21.9063907,0.0600913343 16.8992157,0.0600913343" id="Shape-5_19_" fill="#2C2627"></path>
                    <rect id="Rectangle-path-2_19_" fill="#231F20" x="10.9531953" y="13.3049288" width="3.2859586" height="0.82780234"></rect>
                    <rect id="Rectangle-path-3_19_" fill="#231F20" x="17.6815868" y="13.3049288" width="3.2859586" height="0.82780234"></rect>
                </g>
                <g id="noun_132466_cc" transform="translate(27.802765, 216.333333)" fill="#2C2627" sketch:type="MSShapeGroup">
                    <path d="M13.7096438,18.3116028 C13.7309646,18.2226529 13.7457251,18.1277731 13.7457251,18.0286575 C13.7457251,17.3484028 13.2102455,16.7977607 12.5517614,16.7977607 L9.01497174,16.7977607 C8.06291685,16.1480031 4.66635238,13.4202071 4.66635238,7.59271993 C4.66635238,5.29442473 6.5688221,4.55232868 6.95587628,4.42356315 L7.90711114,5.28934188 C7.34703062,6.27202616 7.07560067,7.40126593 7.13628289,8.56269708 C7.22074599,10.1510876 7.90711114,11.6081712 9.07319387,12.6679453 C9.22489943,12.8043351 9.41186628,12.8738008 9.59965317,12.8738008 C9.8161411,12.8738008 10.0293489,12.7823095 10.1859747,12.606104 L16.9126812,4.99707803 C17.0570065,4.83357969 17.1316292,4.61755858 17.1193287,4.39645462 C17.1070283,4.17789208 17.0110848,3.97203667 16.852819,3.82548117 C15.7810397,2.85042117 14.4001091,2.31418053 12.9658765,2.31418053 C11.7145107,2.31418053 10.5057864,2.72589136 9.51355001,3.46544599 L6.45565795,0.682585783 C5.9603598,0.233600727 5.20675218,0.282734941 4.77131622,0.791867051 C4.3367003,1.30354059 4.38180195,2.08291087 4.8771001,2.53189593 L5.01404512,2.6555786 C3.69789689,3.48069454 2.28088496,5.05637794 2.28088496,7.59271993 C2.28088496,12.0249649 3.93816569,14.9984319 5.4855624,16.8155507 C4.91400145,16.907042 4.47446535,17.4136327 4.47446535,18.0295046 C4.47446535,18.1286202 4.48922589,18.2235001 4.50808658,18.3124499 L2.03815606,18.3124499 C1.37967193,18.3116028 0.846652398,18.8656334 0.846652398,19.545041 L0.699300699,20.7767849 L59.5047892,20.7767849 L59.3960559,19.545041 C59.3960559,18.8656334 58.8630364,18.3116028 58.2045522,18.3116028 L13.7096438,18.3116028 Z" id="Shape" transform="translate(30.102045, 10.576132) scale(-1, 1) translate(-30.102045, -10.576132) "></path>
                </g>
                <rect id="Rectangle-16" fill="#F1666A" sketch:type="MSShapeGroup" x="24.4524793" y="236.681592" width="67.768595" height="45.7711443" rx="1"></rect>
                <rect id="Rectangle-165" opacity="0.2" fill="#2C2627" sketch:type="MSShapeGroup" x="27.7582645" y="247" width="61.1570248" height="1"></rect>
                <rect id="Rectangle-56" fill="#2C2627" sketch:type="MSShapeGroup" x="31" y="220" width="30" height="15" rx="2"></rect>
                <circle id="Oval-8-Copy-12" fill="#F1666A" sketch:type="MSShapeGroup" cx="444.5" cy="252.5" r="2.5"></circle>
                <circle id="Oval-8-Copy-13" fill="#F1666A" sketch:type="MSShapeGroup" cx="444.5" cy="272.5" r="2.5"></circle>
                <path d="M444.5,235 C445.880712,235 447,233.880712 447,232.5 C447,231.119288 445.880712,230 444.5,230 C443.119288,230 442,231.119288 442,232.5 C442,233.880712 443.119288,235 444.5,235 Z" id="Oval-8-Copy-11" fill="#F1666A" sketch:type="MSShapeGroup"></path>
                <path d="M444.5,215 C445.880712,215 447,213.880712 447,212.5 C447,211.119288 445.880712,210 444.5,210 C443.119288,210 442,211.119288 442,212.5 C442,213.880712 443.119288,215 444.5,215 Z" id="Oval-8-Copy-14" fill="#F1666A" sketch:type="MSShapeGroup"></path>
                <path d="M444.5,195 C445.880712,195 447,193.880712 447,192.5 C447,191.119288 445.880712,190 444.5,190 C443.119288,190 442,191.119288 442,192.5 C442,193.880712 443.119288,195 444.5,195 Z" id="Oval-8-Copy-18" fill="#F1666A" sketch:type="MSShapeGroup"></path>
                <rect id="Rectangle-16-Copy-2" stroke="#F1666A" fill="#FFFFFF" sketch:type="MSShapeGroup" x="377" y="17" width="135" height="155" rx="5"></rect>
                <text id="customers" sketch:type="MSTextLayer" font-family="Museo Sans Rounded" font-size="14" font-weight="260" sketch:alignment="middle" fill="#000000">
                    <tspan x="411.677" y="149">customers</tspan>
                </text>
                <text id="Over-3000" sketch:type="MSTextLayer" font-family="Museo Sans Rounded" font-size="16" font-weight="normal" sketch:alignment="middle" fill="#000000">
                    <tspan x="405.428" y="130">Over 3000</tspan>
                </text>
                <g id="Group-+-Rectangle-93-+-Rectangle-96" transform="translate(417.500000, 41.446689)" sketch:type="MSShapeGroup">
                    <g id="Group">
                        <rect id="Rectangle-87" fill="#FCD3C9" x="1.10204082" y="43.4092996" width="51.8293135" height="5.56529482" rx="40"></rect>
                        <rect id="Rectangle-92" fill="#FCD3C9" x="6.6122449" y="20.0350614" width="40.7755102" height="23.3742383"></rect>
                        <path d="M4.90909091,11.1305896 L49.0909091,11.1305896 L54,21.1481203 L0,21.1481203 L4.90909091,11.1305896 Z" id="Rectangle-90" fill="#F1666A"></path>
                        <rect id="Rectangle-94" fill="#F1666A" x="13.2244898" y="6.67835379" width="27.5510204" height="6.67835379"></rect>
                        <ellipse id="Oval-190" fill="#F1666A" cx="26.4489796" cy="7.79141275" rx="7.71428571" ry="7.79141275"></ellipse>
                        <rect id="Rectangle-93" fill="#AA6354" x="12.122449" y="25.6003562" width="12.122449" height="12.2436486"></rect>
                        <rect id="Rectangle-95" fill="#AA6354" x="33.0612245" y="25.6003562" width="6.6122449" height="17.8089434"></rect>
                    </g>
                    <g id="Rectangle-93-+-Rectangle-96" transform="translate(22.040816, 5.565295)" fill="#FFFFFF">
                        <rect id="Rectangle-93" x="0" y="4.45223586" width="8.81632653" height="2.22611793"></rect>
                        <path d="M5.09433962,1.11305896 L5.09433962,10.0175307 L3.05660377,10.0175307 L3.05660377,1.11305896 L5.09433962,1.11305896 L5.09433962,1.11305896 Z" id="Rectangle-97"></path>
                    </g>
                </g>
                <circle id="Oval-8-Copy-3" fill="#F1666A" sketch:type="MSShapeGroup" cx="186.5" cy="252.5" r="2.5"></circle>
                <path d="M186.5,235 C187.880712,235 189,233.880712 189,232.5 C189,231.119288 187.880712,230 186.5,230 C185.119288,230 184,231.119288 184,232.5 C184,233.880712 185.119288,235 186.5,235 Z" id="Oval-8-Copy-4" fill="#F1666A" sketch:type="MSShapeGroup"></path>
                <circle id="Oval-8-Copy-5" fill="#F1666A" sketch:type="MSShapeGroup" cx="186.5" cy="212.5" r="2.5"></circle>
                <circle id="Oval-8-Copy-19" fill="#F1666A" sketch:type="MSShapeGroup" cx="186.5" cy="272.5" r="2.5"></circle>
                <circle id="Oval-8-Copy-3" fill="#F1666A" sketch:type="MSShapeGroup" cx="81.5" cy="192.5" r="2.5"></circle>
                <path d="M81.5,175 C82.8807119,175 84,173.880712 84,172.5 C84,171.119288 82.8807119,170 81.5,170 C80.1192881,170 79,171.119288 79,172.5 C79,173.880712 80.1192881,175 81.5,175 Z" id="Oval-8-Copy-4" fill="#F1666A" sketch:type="MSShapeGroup"></path>
                <circle id="Oval-8-Copy-5" fill="#F1666A" sketch:type="MSShapeGroup" cx="81.5" cy="152.5" r="2.5"></circle>
                <circle id="Oval-8" fill="#F1666A" sketch:type="MSShapeGroup" cx="57.5" cy="283.5" r="9.5"></circle>
                <circle id="Oval-8-Copy" fill="#FFFFFF" sketch:type="MSShapeGroup" cx="57.5" cy="283.5" r="1.83333333"></circle>
                <circle id="Oval-8-Copy-3" fill="#F1666A" sketch:type="MSShapeGroup" cx="287.5" cy="252.5" r="2.5"></circle>
                <path d="M287.5,235 C288.880712,235 290,233.880712 290,232.5 C290,231.119288 288.880712,230 287.5,230 C286.119288,230 285,231.119288 285,232.5 C285,233.880712 286.119288,235 287.5,235 Z" id="Oval-8-Copy-4" fill="#F1666A" sketch:type="MSShapeGroup"></path>
                <circle id="Oval-8-Copy-5" fill="#F1666A" sketch:type="MSShapeGroup" cx="287.5" cy="212.5" r="2.5"></circle>
                <circle id="Oval-8-Copy-6" fill="#F1666A" sketch:type="MSShapeGroup" cx="287.5" cy="192.5" r="2.5"></circle>
                <circle id="Oval-8-Copy-19" fill="#F1666A" sketch:type="MSShapeGroup" cx="287.5" cy="272.5" r="2.5"></circle>
                <circle id="Oval-8-Copy-8" fill="#F1666A" sketch:type="MSShapeGroup" cx="287.5" cy="172.5" r="2.5"></circle>
                <circle id="Oval-8-Copy-7" fill="#F1666A" sketch:type="MSShapeGroup" cx="287.5" cy="152.5" r="2.5"></circle>
                <rect id="Rectangle-16-Copy-3" stroke="#F1666A" fill="#FFFFFF" sketch:type="MSShapeGroup" x="21" y="7" width="115" height="125" rx="5"></rect>
                <path d="M101.503548,6.82073177 L70.5211234,6.82073177 C67.9559923,6.82073177 65.8688553,9.02197387 65.8688553,11.7273423 L65.8688553,64.5711107 C65.8688553,67.2764791 67.9559923,69.4769002 70.5211234,69.4769002 L101.503548,69.4769002 C104.068679,69.4769002 106.155037,67.2764791 106.155037,64.5711107 L106.155037,11.7273423 C106.155037,9.02197387 104.068679,6.82073177 101.503548,6.82073177 L101.503548,6.82073177 Z M86.0940772,67.0605423 C85.1217407,67.0605423 84.3331283,66.228816 84.3331283,65.2033212 C84.3331283,64.1778265 85.1217407,63.3461002 86.0940772,63.3461002 C87.0656352,63.3461002 87.8550261,64.1778265 87.8550261,65.2033212 C87.8550261,66.228816 87.0656352,67.0605423 86.0940772,67.0605423 L86.0940772,67.0605423 Z M102.102986,60.8886897 L69.922463,60.8886897 L69.922463,15.124037 L102.102986,15.124037 L102.102986,60.8886897 L102.102986,60.8886897 Z" id="Shape-Copy-3" fill="#000000" sketch:type="MSShapeGroup" transform="translate(86.011946, 38.148816) rotate(-330.000000) translate(-86.011946, -38.148816) "></path>
                <path d="M88.5853694,65.871655 L88.5853694,65.871655 L88.3608644,65.6399585 C87.1260867,64.3656279 85.2177939,64.3656279 83.9830162,65.6399585 C82.7482385,66.9142892 82.7482385,68.8837094 83.9830162,70.1580401 L85.1055414,71.3165225 L86.7893291,73.0542462 C88.0241068,74.3285769 89.9323996,74.3285769 91.1671773,73.0542462 C92.401955,71.7799155 92.401955,69.8104953 91.1671773,68.5361646 L88.5853694,65.871655 L88.5853694,65.871655 Z" id="Shape-Copy-7" fill="#FCD3C9" sketch:type="MSShapeGroup"></path>
                <path d="M93.5057714,60.6731831 L93.5057714,60.6731831 L90.3627009,57.4294322 C89.1279232,56.1551015 87.2196305,56.1551015 85.9848528,57.4294322 C84.7500751,58.7037629 84.7500751,60.6731831 85.9848528,61.9475138 L90.0259434,66.1180505 L93.1690138,69.3618014 C94.4037915,70.6361321 96.3120843,70.6361321 97.546862,69.3618014 C98.7816397,68.0874707 98.7816397,66.1180505 97.546862,64.8437199 L93.5057714,60.6731831 L93.5057714,60.6731831 Z" id="Shape-Copy" fill="#FCD3C9" sketch:type="MSShapeGroup"></path>
                <path d="M98.5103628,54.5152883 L98.5103628,54.5152883 L95.3672923,51.2715375 C94.1325146,49.9972068 92.2242218,49.9972068 90.9894441,51.2715375 C89.7546665,52.5458682 89.7546665,54.5152883 90.9894441,55.789619 L95.0305347,59.9601558 L98.1736052,63.2039066 C99.4083829,64.4782373 101.316676,64.4782373 102.551453,63.2039066 C103.786231,61.929576 103.786231,59.9601558 102.551453,58.6858251 L98.5103628,54.5152883 L98.5103628,54.5152883 Z" id="Shape-Copy-2" fill="#FCD3C9" sketch:type="MSShapeGroup"></path>
                <path d="M104.057508,49.9303138 L104.057508,49.9303138 L102.37372,48.1925901 C101.138943,46.9182594 99.2306497,46.9182594 97.9958721,48.1925901 C96.7610944,49.4669208 96.7610944,51.436341 97.9958721,52.7106716 L100.57768,55.3751813 L100.802185,55.6068778 C102.036963,56.8812084 103.945255,56.8812084 105.180033,55.6068778 C106.414811,54.3325471 106.414811,52.3631269 105.180033,51.0887962 L104.057508,49.9303138 L104.057508,49.9303138 Z" id="Shape-Copy-4" fill="#FCD3C9" sketch:type="MSShapeGroup"></path>
                <path d="M59.5868026,42.7008797 L59.5868026,42.7008797 L62.1686105,40.2680665 L62.280863,40.1522183 L62.505368,40.03637 L62.505368,40.03637 L75.8634175,28.2198491 L83.0475786,35.6341368 C83.8333462,36.4450745 85.1803764,37.1401639 87.6499318,36.4450745 C89.5582246,35.8658333 90.9052548,34.4756543 90.9052548,34.4756543 L80.8025283,24.0493123 L80.2412657,23.4700711 L79.3432455,22.5432852 C78.4452254,21.6164992 77.2104477,21.3848027 76.2001751,21.7323475 L76.2001751,21.7323475 C76.2001751,21.7323475 66.7709637,23.5859194 65.760691,26.3662772 L55.0967019,21.7323475 L48.0247934,38.9937358 L58.6887825,43.6276656 L58.9132875,43.1642726 C58.9132875,43.2801209 58.801035,43.3959691 58.801035,43.5118174 C59.02554,43.2801209 59.2500451,42.9325761 59.5868026,42.7008797 L59.5868026,42.7008797 Z" id="Shape-Copy-5" fill="#FCD3C9" sketch:type="MSShapeGroup"></path>
                <path d="M21,34.8982567 L50.2979069,47.5257153 L60.7373909,21.6915568 L26.9493834,7.21052632 C22.5209612,7.99138118 21,7.5259325 21,17.1413368 L21,34.8982567 Z" id="Shape-Copy-6" fill="#F1666A" sketch:type="MSShapeGroup"></path>
                <path d="M37.0146924,41.7065833 L43.9312593,24.6578947 L45.0193718,25.1280704 L38.1028049,42.176759 L37.0146924,41.7065833 L37.0146924,41.7065833 Z" id="Rectangle-path-Copy" fill-opacity="0.200000003" fill="#000000" sketch:type="MSShapeGroup"></path>
                <text id="iMedicare" sketch:type="MSTextLayer" font-family="Museo Sans Rounded" font-size="16" font-weight="normal" sketch:alignment="middle" fill="#000000">
                    <tspan x="43.476" y="107">iMedicare</tspan>
                </text>
                <rect id="Rectangle-16-Copy" stroke="#F1666A" fill="#FFFFFF" sketch:type="MSShapeGroup" x="126" y="72" width="115" height="125" rx="5"></rect>
                <text id="RevTech" sketch:type="MSTextLayer" font-family="Museo Sans Rounded" font-size="16" font-weight="normal" sketch:alignment="middle" fill="#000000">
                    <tspan x="153.452" y="175">RevTech</tspan>
                </text>
                <path d="M172.498667,132.820475 L177.309208,130.091797 L183.95816,141.825968 L172.635035,141.825968 L172.498667,132.820475 Z" id="Path-433" fill="#000000" sketch:type="MSShapeGroup"></path>
                <path d="M191.941465,141.937337 L200.725056,141.937337 L193.105416,128.399048 C193.105416,128.399048 199.156314,126.924194 199.156314,121.28654 C199.156314,115.648885 197.80657,113.851888 197.80657,113.851888 C197.80657,113.851888 197.129297,112.715882 196.79066,112.293713 C196.501835,111.933642 195.924185,111.505168 195.924185,111.505168 L188.999567,116.474325 L191.445927,121.251221 L183.144356,126.287313 L191.941465,141.937337 Z" id="Path-434" fill="#000000" sketch:type="MSShapeGroup"></path>
                <path d="M172.52725,122.5566 L195.069155,111.233724 C195.069155,111.233724 193.479966,110.271712 186.813603,110.1722 C186.279124,110.164221 185.099025,110.159912 185.099025,110.159912 L172.408794,110.051676 L172.52725,122.5566 Z" id="Path-435" fill="#000000" sketch:type="MSShapeGroup"></path>
                <path d="M206.886216,107.061523 C206.886216,107.061523 193.224422,110.575195 176.730668,122.587077 C160.236913,134.598958 162.814921,137.91923 162.814921,137.91923 C162.814921,137.91923 163.209139,140.324829 170.342557,138.224531 C170.660355,138.130961 171.336639,137.916382 171.336639,137.916382 L171.563383,139.404338 C171.563383,139.404338 166.581891,141.310425 164.046483,140.78776 C161.511076,140.265096 161.199406,139.648153 161.199406,139.648153 C161.199406,139.648153 157.579476,136.955078 164.571429,130.633545 C168.723252,126.879818 172.523326,123.463454 180.445538,118.781345 C185.745493,115.649018 191.735086,112.080732 202.905317,107.771151 C203.156925,107.674078 205.07309,107.187134 205.07309,107.187134 L206.886216,107.061523 Z" id="Path-436" fill="#000000" sketch:type="MSShapeGroup"></path>
                <rect id="Rectangle-16-Copy" stroke="#F1666A" fill="#FFFFFF" sketch:type="MSShapeGroup" x="230" y="7" width="115" height="125" rx="5"></rect>
                <path d="M289.358974,53.9895042 C289.482456,53.9857576 289.606397,53.983871 289.730769,53.983871 C296.506878,53.983871 302,59.5839222 302,66.4919355 C302,73.3999488 296.506878,79 289.730769,79 C283.330645,79 278.07508,74.0041653 277.511556,67.6290323 L277.461538,67.6290323 L277.461538,51.0552545 L273,42.6129032 L289.358974,42.6129032 L289.358974,53.9895042 Z" id="Oval-35" stroke="#000000" stroke-width="4" stroke-linecap="round" stroke-linejoin="round" sketch:type="MSShapeGroup"></path>
                <ellipse id="Oval-36" fill="#000000" sketch:type="MSShapeGroup" cx="284.897436" cy="34.0322581" rx="2.97435897" ry="3.03225806"></ellipse>
                <ellipse id="Oval-36-Copy" fill="#000000" sketch:type="MSShapeGroup" cx="278.076923" cy="36.9532814" rx="2.35897436" ry="2.40489433"></ellipse>
                <ellipse id="Oval-36-Copy-2" fill="#000000" sketch:type="MSShapeGroup" cx="278.820513" cy="30.6468298" rx="1.61538462" ry="1.64682981"></ellipse>
                <path d="M290.10196,60.3861612 C290.10196,60.3861612 295.15823,60.3677937 295.15823,65.9760707" id="Path-446" stroke="#000000" sketch:type="MSShapeGroup"></path>
                <text id="Blueprint" sketch:type="MSTextLayer" font-family="Museo Sans Rounded" font-size="15.5454545" font-weight="normal" sketch:alignment="middle" fill="#000000">
                    <tspan x="255.476364" y="107">Blueprint</tspan>
                </text>
            </g>
        </g>
    </g>
</svg>