<svg width="717" height="357" viewBox="0 0 717 357" version="1.1" xmlns="http://www.w3.org/2000/svg"><title>accessible-image</title><g stroke="none" stroke-width="1" fill="none" fill-rule="evenodd"><g><g><g><g><g><path d="M298.226 114.03c15.53-14.797 15.786-39.037.574-54.142-15.212-15.105-40.133-15.355-55.663-.558-12.857 12.251-15.234 30.97-7.04 45.624l-5.797 20.202 20.885-5.22c14.893 8.27 34.184 6.345 47.041-5.906M193.96 37.06c3.811-16.255-6.647-32.437-23.359-36.144-16.712-3.707-33.35 6.465-37.16 22.72-3.156 13.46 3.476 26.86 15.335 33.18l5.014 15.803 11.562-12.126c13.503-.694 25.453-9.973 28.608-23.432M25.623 31.656C2.653 43.557-6.05 71.317 6.186 93.66c10.131 18.498 31.437 27.47 51.506 23.259l21.903 13.29.882-25.095c14.79-13.85 19.024-36.055 8.893-54.553-12.236-22.344-40.776-30.808-63.747-18.906" fill="#FFD180"/><g><path d="M705.039 114.938c15.529-14.797 15.786-39.037.574-54.142C690.4 45.69 665.48 45.44 649.95 60.238c-12.857 12.251-15.234 30.97-7.041 45.624l-5.796 20.202 20.885-5.22c14.893 8.27 34.184 6.345 47.04-5.906M600.773 37.969c3.81-16.256-6.647-32.438-23.36-36.145-16.711-3.707-33.35 6.465-37.16 22.72-3.155 13.46 3.477 26.86 15.336 33.18l5.014 15.803L572.165 61.4c13.503-.694 25.453-9.973 28.608-23.432M432.436 32.564c-22.97 11.901-31.673 39.661-19.437 62.005 10.13 18.498 31.437 27.47 51.506 23.259l21.903 13.29.882-25.095c14.79-13.85 19.024-36.055 8.893-54.553-12.236-22.344-40.776-30.808-63.747-18.906" fill="#FFD180"/><path d="M486.743 356.313v-16.205c0-40.17 33.48-72.736 74.78-72.736 41.3 0 74.779 32.565 74.779 72.736v16.205" fill="#14D4F4"/><path d="M590.294 308.963v-32.936c0-15.138-13.073-27.523-29.052-27.523s-29.052 12.385-29.052 27.523v26.466" stroke="#424242" stroke-width="8.315"/><path d="M605.555 318.31c0 8.199-6.832 14.844-15.26 14.844s-15.261-6.645-15.261-14.843 6.833-14.843 15.26-14.843c8.429 0 15.26 6.645 15.26 14.843" fill="#F0F0F0"/><path d="M513.99 333.945v-13.329c0-9.777 8.149-17.704 18.2-17.704 10.052 0 18.201 7.927 18.201 17.704v13.329" stroke="#424242" stroke-width="8.315"/><path d="M597.626 318.31c0 3.94-3.282 7.131-7.331 7.131-4.05 0-7.332-3.192-7.332-7.13 0-3.939 3.283-7.13 7.332-7.13 4.049 0 7.33 3.191 7.33 7.13z" stroke="#424242" stroke-width="3.519"/><path d="M550.39 329.026v8.523c0 5.453-4.544 9.874-10.151 9.874M524.142 347.423c-5.607 0-10.152-4.42-10.152-9.874v-8.523" stroke="#424242" stroke-width="8.315" stroke-linecap="round" stroke-linejoin="round"/><path d="M112.654 156.846c-19.752 0-35.914 15.719-35.914 34.932v101.526h.001c19.752 0 35.913-15.719 35.913-34.932V156.846z" fill="#4C241C"/><path d="M155.79 243.384c-33.111 0-60.202-26.35-60.202-58.557v-14.822c0-32.207 27.09-58.557 60.202-58.557 33.11 0 60.202 26.35 60.202 58.557v14.822c0 32.207-27.091 58.557-60.202 58.557" fill="#4C241C"/><path d="M82.639 355.301V337.69c0-39.661 33.055-71.813 73.83-71.813 40.777 0 73.832 32.152 73.832 71.813v17.612" fill="#0F446B"/><path d="M183.008 281.347l-26.576 59.134-26.576-59.134h53.152z" fill="#FFF"/><path d="M195.186 309.264v-29.548c0-20.818-17.351-37.695-38.754-37.695-21.404 0-38.754 16.877-38.754 37.695v29.548l38.754-15.503 38.754 15.503z" fill="#FFF"/><path d="M221.512 204.39c0 6.65-5.541 12.04-12.377 12.04-6.835 0-12.377-5.39-12.377-12.04 0-6.648 5.542-12.038 12.377-12.038 6.836 0 12.377 5.39 12.377 12.039M174.895 281.855l-18.312 39.3-18.312-39.3h36.624zM116.181 204.39c0 6.65-5.54 12.04-12.377 12.04-6.835 0-12.377-5.39-12.377-12.04 0-6.648 5.542-12.038 12.377-12.038 6.836 0 12.377 5.39 12.377 12.039" fill="#B25C4B"/><path d="M156.599 293.115c-11.233 0-20.34-8.857-20.34-19.784v-23.722c0-10.927 9.107-19.784 20.34-19.784s20.34 8.857 20.34 19.784v23.722c0 10.927-9.107 19.784-20.34 19.784" fill="#B25C4B"/><path d="M156.497 266.307c-29.174 0-52.825-23.004-52.825-51.381v-31.937c0-28.377 23.651-51.381 52.825-51.381 29.174 0 52.825 23.004 52.825 51.38v31.938c0 28.377-23.651 51.381-52.825 51.381" fill="#BF7358"/><path d="M135.925 190.891c0 3.562-2.968 6.45-6.63 6.45s-6.63-2.888-6.63-6.45c0-3.562 2.968-6.448 6.63-6.448s6.63 2.886 6.63 6.448M190.198 190.891c0 3.562-2.968 6.45-6.63 6.45s-6.63-2.888-6.63-6.45c0-3.562 2.968-6.448 6.63-6.448s6.63 2.886 6.63 6.448" fill="#A85F48"/><path d="M165.31 207.807h-17.626v-23.421h17.626v23.42z" fill="#B25C4B"/><path d="M183.89 215.66c0 14.699-12.25 26.613-27.36 26.613-15.111 0-27.36-11.914-27.36-26.612" fill="#933634"/><path d="M130.618 224.155h51.823a25.878 25.878 0 0 0 1.45-8.494h-54.722c0 2.974.524 5.824 1.45 8.494" fill="#FFF"/><path d="M172.474 237.258c-3.727-4.527-9.448-7.433-15.875-7.433-6.456 0-12.198 2.935-15.924 7.497a27.721 27.721 0 0 0 15.855 4.951 27.716 27.716 0 0 0 15.944-5.015" fill="#AF3F3F"/><path d="M518.533 156.846c-19.753 0-35.914 15.719-35.914 34.932v101.526h.001c19.752 0 35.913-15.719 35.913-34.932V156.846z" fill="#4C241C"/><path d="M561.669 243.384c-33.111 0-60.202-26.35-60.202-58.557v-14.822c0-32.207 27.09-58.557 60.202-58.557 33.11 0 60.202 26.35 60.202 58.557v14.822c0 32.207-27.091 58.557-60.202 58.557" fill="#4C241C"/><path d="M627.391 204.39c0 6.65-5.541 12.04-12.377 12.04-6.835 0-12.377-5.39-12.377-12.04 0-6.648 5.542-12.038 12.377-12.038 6.836 0 12.377 5.39 12.377 12.039M580.774 281.855l-18.312 39.3-18.312-39.3h36.624zM522.06 204.39c0 6.65-5.54 12.04-12.377 12.04-6.835 0-12.377-5.39-12.377-12.04 0-6.648 5.542-12.038 12.377-12.038 6.836 0 12.377 5.39 12.377 12.039" fill="#B25C4B"/><path d="M562.478 293.115c-11.233 0-20.34-8.857-20.34-19.784v-23.722c0-10.927 9.107-19.784 20.34-19.784s20.34 8.857 20.34 19.784v23.722c0 10.927-9.107 19.784-20.34 19.784" fill="#B25C4B"/><path d="M562.376 266.307c-29.174 0-52.825-23.004-52.825-51.381v-31.937c0-28.377 23.65-51.381 52.825-51.381 29.174 0 52.825 23.004 52.825 51.38v31.938c0 28.377-23.651 51.381-52.825 51.381" fill="#BF7358"/><path d="M541.804 190.891c0 3.562-2.968 6.45-6.63 6.45s-6.63-2.888-6.63-6.45c0-3.562 2.968-6.448 6.63-6.448s6.63 2.886 6.63 6.448M596.077 190.891c0 3.562-2.968 6.45-6.63 6.45s-6.63-2.888-6.63-6.45c0-3.562 2.968-6.448 6.63-6.448s6.63 2.886 6.63 6.448" fill="#A85F48"/><path d="M571.189 207.807h-17.626v-23.421h17.626v23.42z" fill="#B25C4B"/><path d="M589.769 215.66c0 14.699-12.25 26.613-27.36 26.613-15.111 0-27.36-11.914-27.36-26.612" fill="#933634"/><path d="M536.497 224.155h51.823a25.878 25.878 0 0 0 1.45-8.494h-54.722c0 2.974.524 5.824 1.45 8.494" fill="#FFF"/><path d="M578.353 237.258c-3.727-4.527-9.448-7.433-15.875-7.433-6.456 0-12.198 2.935-15.924 7.497a27.721 27.721 0 0 0 15.855 4.951 27.716 27.716 0 0 0 15.944-5.015" fill="#AF3F3F"/></g></g></g></g></g></g></g></svg>