<?xml version="1.0" encoding="UTF-8"?>
<svg width="404pt" version="1.1" xmlns="http://www.w3.org/2000/svg" height="269pt" viewBox="0 0 404 269" xmlns:xlink="http://www.w3.org/1999/xlink">
 <defs>
  <clipPath id="Clip0">
   <path d="M0 0 L404 0 L404 269 L0 269 L0 0 Z" transform="translate(0, 0)"/>
  </clipPath>
 </defs>
 <g id="Background">
  <g id="Group1" clip-path="url(#Clip0)">
   <path style="fill:#40ff40; fill-rule:nonzero;stroke:none;" d="M6 121.05 L133.05 121.05 C136.35 121.05 139.05 118.35 139.05 115.05 L139.05 6 C139.05 2.7 136.35 0 133.05 0 L6 0 C2.7 0 0 2.7 0 6 L0 115.05 C0 118.35 2.7 121.05 6 121.05 " transform="translate(261.95, 144.95)"/>
   <path style="fill:#ffffff; fill-rule:nonzero;stroke:#00ff00; stroke-width:1; stroke-linecap:butt; stroke-linejoin:miter; stroke-dasharray:none;" d="M6 121.05 L133.05 121.05 C136.35 121.05 139.05 118.35 139.05 115.05 L139.05 6 C139.05 2.7 136.35 0 133.05 0 L6 0 C2.7 0 0 2.7 0 6 L0 115.05 C0 118.35 2.7 121.05 6 121.05 " transform="translate(257.95, 140.95)"/>
   <path style="fill:#000000; fill-rule:evenodd;stroke:none;" d="M5.4795 2.2598 C5.4697 0.8301 4.4892 0 2.8095 0 C1.2099 0 0.2197 0.8204 0.2197 2.1407 C0.2197 3.0303 0.6894 3.5899 1.6494 3.8399 L3.4599 4.3204 C4.3799 4.5606 4.7998 4.9297 4.7998 5.5 C4.7998 5.8907 4.5898 6.2901 4.2793 6.5098 C3.9892 6.71 3.5293 6.8204 2.9394 6.8204 C2.1494 6.8204 1.6093 6.6299 1.2597 6.21 C0.9892 5.8907 0.8691 5.5401 0.8799 5.0899 L0 5.0899 C0.0097 5.7598 0.1396 6.2002 0.4297 6.6006 C0.9297 7.2803 1.7695 7.6407 2.8799 7.6407 C3.75 7.6407 4.4599 7.4405 4.9297 7.0801 C5.4199 6.6905 5.7295 6.0401 5.7295 5.4102 C5.7295 4.5098 5.1699 3.8506 4.1797 3.5801 L2.3496 3.0899 C1.4697 2.8506 1.1494 2.5704 1.1494 2.0098 C1.1494 1.2706 1.7998 0.7803 2.7793 0.7803 C3.9394 0.7803 4.5898 1.3106 4.5996 2.2598 L5.4795 2.2598 Z" transform="translate(66.7305, 44.3398)"/>
   <path style="fill:#000000; fill-rule:nonzero;stroke:none;" d="M21.2998 0 L21.7998 0.8496 L0.7002 13.0498 L0 12.8496 L0.0996 12.25 L21.2998 0 Z" transform="translate(43, 50.1504)"/>
   <path style="fill:#000000; fill-rule:evenodd;stroke:none;" d="M3.93 7.29 L5.98 1.1796 L5.98 7.29 L6.86 7.29 L6.86 0 L5.57 0 L3.45 6.3496 L1.29 0 L0 0 L0 7.29 L0.88 7.29 L0.88 1.1796 L2.95 7.29 L3.93 7.29 Z" transform="translate(115, 23.21)"/>
   <path style="fill:#000000; fill-rule:evenodd;stroke:none;" d="M4.73 3.0498 C4.73 2.25 4.67 1.7695 4.52 1.3798 C4.18 0.5195 3.38 0 2.4 0 C0.94 0 0 1.1201 0 2.8398 C0 4.5595 0.91 5.6201 2.38 5.6201 C3.58 5.6201 4.41 4.9394 4.62 3.7998 L3.78 3.7998 C3.55 4.4892 3.08 4.8496 2.41 4.8496 C1.88 4.8496 1.43 4.6093 1.15 4.1699 C0.95 3.8701 0.88 3.5693 0.87 3.0498 L4.73 3.0498 Z M0.89 2.3701 C0.96 1.3994 1.55 0.7695 2.39 0.7695 C3.21 0.7695 3.84 1.4492 3.84 2.3095 C3.84 2.33 3.84 2.3496 3.83 2.3701 L0.89 2.3701 Z" transform="translate(122.9, 25.1104)"/>
   <path style="fill:#000000; fill-rule:nonzero;stroke:none;" d="M13.1 21.2002 L11.9 21.2002 L0 0.5 L0.85 0 L13.1 21.2002 Z" transform="translate(127.5, 31.7998)"/>
   <path style="fill:#000000; fill-rule:evenodd;stroke:none;" d="M3.51 0 C1.42 0 0 1.5401 0 3.8204 C0 6.1006 1.42 7.6407 3.52 7.6407 C4.4 7.6407 5.19 7.3702 5.78 6.8702 C6.57 6.2002 7.04 5.0704 7.04 3.8799 C7.04 1.5303 5.65 0 3.51 0 Z M3.51 0.8204 C5.09 0.8204 6.11 2.0206 6.11 3.8604 C6.11 5.6202 5.06 6.8204 3.52 6.8204 C1.97 6.8204 0.93 5.6202 0.93 3.8204 C0.93 2.0206 1.97 0.8204 3.51 0.8204 Z" transform="translate(166.88, 49.3398)"/>
   <path style="fill:#000000; fill-rule:nonzero;stroke:none;" d="M25.95 0 L25.95 1 L0 1 L0 0 L25.95 0 Z" transform="translate(138.95, 50.7002)"/>
   <path style="fill:#000000; fill-rule:nonzero;stroke:none;" d="M25.95 0 L25.95 1 L0 1 L0 0 L25.95 0 Z" transform="translate(138.95, 54.2998)"/>
   <path style="fill:#000000; fill-rule:nonzero;stroke:none;" d="M0.9 26.2002 L0 25.7002 L14.85 0 L16.05 0 L0.9 26.2002 Z" transform="translate(124.55, 53)"/>
   <path style="fill:#000000; fill-rule:evenodd;stroke:none;" d="M0.9307 4.1504 L3.3301 4.1504 C4.1601 4.1504 4.5303 4.5498 4.5303 5.4502 L4.5205 6.0996 C4.5205 6.5498 4.6006 6.9902 4.7305 7.29 L5.8603 7.29 L5.8603 7.0595 C5.5107 6.8203 5.4404 6.5595 5.4199 5.5898 C5.4101 4.3896 5.2207 4.0302 4.4307 3.6904 C5.25 3.29 5.5801 2.7802 5.5801 1.9502 C5.5801 0.6904 4.79 0 3.3603 0 L0 0 L0 7.29 L0.9307 7.29 L0.9307 4.1504 Z M0.9307 3.33 L0.9307 0.8203 L3.1807 0.8203 C3.7002 0.8203 4 0.9004 4.2305 1.0996 C4.4805 1.3105 4.6103 1.6396 4.6103 2.08 C4.6103 2.9404 4.1699 3.33 3.1807 3.33 L0.9307 3.33 Z" transform="translate(19.6797, 38.21)"/>
   <path style="fill:#000000; fill-rule:nonzero;stroke:none;" d="M0 0.75 L0.75 0 L16.5498 15.8506 L16.4502 16.4502 L15.75 16.4502 L0 0.75 Z" transform="translate(26.5498, 46.5498)"/>
   <path style="fill:#ff0000; fill-rule:evenodd;stroke:none;" d="M4.6797 3.9697 L4.6797 7.29 L5.6103 7.29 L5.6103 0 L4.6797 0 L4.6797 3.1504 L0.9297 3.1504 L0.9297 0 L0 0 L0 7.29 L0.9394 7.29 L0.9394 3.9697 L4.6797 3.9697 Z" transform="translate(19.8301, 80.46)"/>
   <path style="fill:#ff0000; fill-rule:nonzero;stroke:none;" d="M0.7002 16.5498 L0 15.8496 L15.8496 0 L16.5498 0 L16.4502 0.7998 L0.7002 16.5498 Z" transform="translate(26.4502, 63)"/>
   <path style="fill:#ff0000; fill-rule:evenodd;stroke:none;" d="M4.6797 3.9697 L4.6797 7.29 L5.6103 7.29 L5.6103 0 L4.6797 0 L4.6797 3.1504 L0.9297 3.1504 L0.9297 0 L0 0 L0 7.29 L0.9394 7.29 L0.9394 3.9697 L4.6797 3.9697 Z" transform="translate(56.0801, 85.21)"/>
   <path style="fill:#ff0000; fill-rule:nonzero;stroke:none;" d="M12.5 20.4502 L11.6494 20.9502 L0 0.7998 L0.0996 0 L0.7998 0.2002 L12.5 20.4502 Z" transform="translate(42.9004, 63)"/>
   <path style="fill:#000000; fill-rule:evenodd;stroke:none;" d="M4.6797 3.9697 L4.6797 7.29 L5.6103 7.29 L5.6103 0 L4.6797 0 L4.6797 3.1504 L0.9297 3.1504 L0.9297 0 L0 0 L0 7.29 L0.9394 7.29 L0.9394 3.9697 L4.6797 3.9697 Z" transform="translate(67.0801, 14.21)"/>
   <path style="fill:#000000; fill-rule:nonzero;stroke:none;" d="M0 0 L1 0 L1 18.9004 L0 18.9004 L0 0 Z" transform="translate(68.5, 23.5498)"/>
   <path style="fill:#000000; fill-rule:evenodd;stroke:none;" d="M5.7 0 L4.82 0 L4.82 5.96 L1.01 0 L0 0 L0 7.29 L0.88 7.29 L0.88 1.38 L4.65 7.29 L5.7 7.29 L5.7 0 Z" transform="translate(108.01, 101.21)"/>
   <path style="fill:#000000; fill-rule:nonzero;stroke:none;" d="M0.9 20.55 L0 20.05 L11.6 0 L12.45 0.5 L0.9 20.55 Z" transform="translate(116.1, 80.5)"/>
   <path style="fill:#000000; fill-rule:nonzero;stroke:none;" d="M0.85 20.5498 L0 20.0498 L11.55 0 L12.45 0.5 L0.85 20.5498 Z" transform="translate(113, 78.7002)"/>
   <path style="fill:#000000; fill-rule:nonzero;stroke:none;" d="M0.85 20.5498 L0 20.0498 L11.55 0 L12.4 0.5 L0.85 20.5498 Z" transform="translate(109.9, 76.9004)"/>
   <path style="fill:none;stroke:#000000; stroke-width:0.8; stroke-linecap:butt; stroke-linejoin:miter; stroke-dasharray:none;" d="M46.3 0 L0 0 " transform="translate(203, 67)"/>
   <path style="fill:#000000; fill-rule:nonzero;stroke:none;" d="M10 2.5996 L0 0 C0 0 1.25 1.4492 1.25 2.5996 C1.25 3.6992 0 5.1494 0 5.1494 L10 2.5996 " transform="translate(248, 64.4004)"/>
   <path style="fill:#000000; fill-rule:evenodd;stroke:none;" d="M3.93 7.29 L5.98 1.1796 L5.98 7.29 L6.86 7.29 L6.86 0 L5.57 0 L3.45 6.3496 L1.29 0 L0 0 L0 7.29 L0.88 7.29 L0.88 1.1796 L2.95 7.29 L3.93 7.29 Z" transform="translate(343.25, 19.21)"/>
   <path style="fill:#000000; fill-rule:evenodd;stroke:none;" d="M4.73 3.0498 C4.73 2.25 4.67 1.7695 4.52 1.3798 C4.18 0.5195 3.38 0 2.4 0 C0.94 0 0 1.1201 0 2.8398 C0 4.5595 0.91 5.6201 2.38 5.6201 C3.58 5.6201 4.41 4.9394 4.62 3.7998 L3.78 3.7998 C3.55 4.4892 3.08 4.8496 2.41 4.8496 C1.88 4.8496 1.43 4.6093 1.15 4.1699 C0.95 3.8701 0.88 3.5693 0.87 3.0498 L4.73 3.0498 Z M0.89 2.3701 C0.96 1.3994 1.55 0.7695 2.39 0.7695 C3.21 0.7695 3.84 1.4492 3.84 2.3095 C3.84 2.33 3.84 2.3496 3.83 2.3701 L0.89 2.3701 Z" transform="translate(351.4, 21.1104)"/>
   <path style="fill:#000000; fill-rule:nonzero;stroke:none;" d="M1 23.9502 L0.5 24.4502 L0 23.9502 L0 0 L1 0 L1 23.9502 Z" transform="translate(345.5, 28.5498)"/>
   <path style="fill:#000000; fill-rule:evenodd;stroke:none;" d="M3.51 0 C1.42 0 0 1.5401 0 3.8204 C0 6.1006 1.42 7.6407 3.52 7.6407 C4.4 7.6407 5.19 7.3702 5.78 6.8702 C6.57 6.2002 7.04 5.0704 7.04 3.8799 C7.04 1.5303 5.65 0 3.51 0 Z M3.51 0.8204 C5.09 0.8204 6.11 2.0206 6.11 3.8604 C6.11 5.6202 5.06 6.8204 3.52 6.8204 C1.97 6.8204 0.93 5.6202 0.93 3.8204 C0.93 2.0206 1.97 0.8204 3.51 0.8204 Z" transform="translate(372.88, 49.3398)"/>
   <path style="fill:#000000; fill-rule:nonzero;stroke:none;" d="M24.9 0 L24.9 1 L0.5 1 L0 0.5 L0.5 0 L24.9 0 Z" transform="translate(346, 52.5)"/>
   <path style="fill:#000000; fill-rule:nonzero;stroke:none;" d="M1 34 L0 34 L0 0.5 L0.5 0 L1 0.5 L1 34 Z" transform="translate(345.5, 53)"/>
   <path style="fill:#000000; fill-rule:evenodd;stroke:none;" d="M5.48 2.2598 C5.47 0.8301 4.49 0 2.81 0 C1.21 0 0.22 0.8204 0.22 2.1407 C0.22 3.0303 0.69 3.5899 1.65 3.8399 L3.46 4.3204 C4.38 4.5606 4.8 4.9297 4.8 5.5 C4.8 5.8907 4.59 6.2901 4.28 6.5098 C3.99 6.71 3.53 6.8204 2.94 6.8204 C2.15 6.8204 1.61 6.6299 1.26 6.21 C0.99 5.8907 0.87 5.5401 0.88 5.0899 L0 5.0899 C0.01 5.7598 0.14 6.2002 0.43 6.6006 C0.93 7.2803 1.77 7.6407 2.88 7.6407 C3.75 7.6407 4.46 7.4405 4.93 7.0801 C5.42 6.6905 5.73 6.0401 5.73 5.4102 C5.73 4.5098 5.17 3.8506 4.18 3.5801 L2.35 3.0899 C1.47 2.8506 1.15 2.5704 1.15 2.0098 C1.15 1.2706 1.8 0.7803 2.78 0.7803 C3.94 0.7803 4.59 1.3106 4.6 2.2598 L5.48 2.2598 Z" transform="translate(313.73, 49.3398)"/>
   <path style="fill:#000000; fill-rule:nonzero;stroke:none;" d="M0 1 L0 0 L24.15 0 L24.65 0.5 L24.15 1 L0 1 Z" transform="translate(321.35, 52.5)"/>
   <path style="fill:#000000; fill-rule:nonzero;stroke:none;" d="M0 0.9502 L0.1 0.2998 L0.5 0 L18.05 17.5498 L17.35 18.25 L0 0.9502 Z" transform="translate(294.7, 31.4502)"/>
   <path style="fill:#000000; fill-rule:evenodd;stroke:none;" d="M5.7 0 L4.82 0 L4.82 5.96 L1.01 0 L0 0 L0 7.29 L0.88 7.29 L0.88 1.38 L4.65 7.29 L5.7 7.29 L5.7 0 Z" transform="translate(344.01, 107.21)"/>
   <path style="fill:#000000; fill-rule:nonzero;stroke:none;" d="M1 18.4 L0 18.4 L0 0 L1 0 L1 18.4 Z" transform="translate(348.35, 87)"/>
   <path style="fill:#000000; fill-rule:nonzero;stroke:none;" d="M1 18.4 L0 18.4 L0 0 L1 0 L1 18.4 Z" transform="translate(345.5, 87)"/>
   <path style="fill:#000000; fill-rule:nonzero;stroke:none;" d="M1 18.4 L0 18.4 L0 0 L1 0 L1 18.4 Z" transform="translate(342.65, 87)"/>
   <path style="fill:#000000; fill-rule:evenodd;stroke:none;" d="M0.93 4.1504 L3.33 4.1504 C4.16 4.1504 4.53 4.5498 4.53 5.4502 L4.52 6.0996 C4.52 6.5498 4.6 6.9902 4.73 7.29 L5.86 7.29 L5.86 7.0595 C5.51 6.8203 5.44 6.5595 5.42 5.5898 C5.41 4.3896 5.22 4.0302 4.43 3.6904 C5.25 3.29 5.58 2.7802 5.58 1.9502 C5.58 0.6904 4.79 0 3.36 0 L0 0 L0 7.29 L0.93 7.29 L0.93 4.1504 Z M0.93 3.33 L0.93 0.8203 L3.18 0.8203 C3.7 0.8203 4 0.9004 4.23 1.0996 C4.48 1.3105 4.61 1.6396 4.61 2.08 C4.61 2.9404 4.17 3.33 3.18 3.33 L0.93 3.33 Z" transform="translate(266.93, 42.96)"/>
   <path style="fill:#000000; fill-rule:nonzero;stroke:none;" d="M0.5 12.4502 L0 11.6006 L20.05 0 L20.8 0.1504 L20.7 0.8008 L0.5 12.4502 Z" transform="translate(274, 31.5996)"/>
   <path style="fill:#000000; fill-rule:evenodd;stroke:none;" d="M3.93 7.29 L5.98 1.18 L5.98 7.29 L6.86 7.29 L6.86 0 L5.57 0 L3.45 6.35 L1.29 0 L0 0 L0 7.29 L0.88 7.29 L0.88 1.18 L2.95 7.29 L3.93 7.29 Z" transform="translate(343.25, 157.21)"/>
   <path style="fill:#000000; fill-rule:evenodd;stroke:none;" d="M4.73 3.05 C4.73 2.25 4.67 1.77 4.52 1.38 C4.18 0.52 3.38 0 2.4 0 C0.94 0 0 1.12 0 2.84 C0 4.56 0.91 5.62 2.38 5.62 C3.58 5.62 4.41 4.94 4.62 3.8 L3.78 3.8 C3.55 4.49 3.08 4.85 2.41 4.85 C1.88 4.85 1.43 4.61 1.15 4.17 C0.95 3.87 0.88 3.57 0.87 3.05 L4.73 3.05 Z M0.89 2.37 C0.96 1.4 1.55 0.77 2.39 0.77 C3.21 0.77 3.84 1.45 3.84 2.31 C3.84 2.33 3.84 2.35 3.83 2.37 L0.89 2.37 Z" transform="translate(351.4, 159.11)"/>
   <path style="fill:#000000; fill-rule:evenodd;stroke:none;" d="M2.085 0 C0.78 1.365 0 3.075 0 4.598 C0 5.49 0.217 6.42 0.585 7.066 L0.997 7.066 C0.719 6.346 0.585 5.641 0.585 4.875 C0.585 3.21 1.237 1.545 2.497 0 L2.085 0 Z" transform="translate(347.348, 182.032)"/>
   <path style="fill:#000000; fill-rule:evenodd;stroke:none;" d="M1.208 3.113 L3 3.113 C3.488 3.113 3.758 3.308 3.758 3.675 C3.758 3.803 3.736 3.96 3.698 4.125 C3.518 4.875 3.518 4.875 3.518 5.115 C3.518 5.228 3.526 5.311 3.548 5.468 L4.396 5.468 L4.433 5.295 C4.335 5.205 4.276 5.063 4.276 4.898 C4.276 4.808 4.29 4.681 4.321 4.523 C4.418 4.013 4.478 3.623 4.478 3.488 C4.478 3.158 4.38 3 4.028 2.768 C4.321 2.603 4.441 2.521 4.575 2.401 C4.875 2.123 5.078 1.62 5.078 1.156 C5.078 0.361 4.643 0 3.683 0 L1.163 0 L0 5.468 L0.705 5.468 L1.208 3.113 Z M1.335 2.498 L1.741 0.615 L3.465 0.615 C3.863 0.615 4.058 0.668 4.2 0.825 C4.298 0.931 4.358 1.103 4.358 1.283 C4.358 1.561 4.245 1.891 4.08 2.101 C3.863 2.37 3.548 2.498 3.068 2.498 L1.335 2.498 Z" transform="translate(349.697, 182.032)"/>
   <path style="fill:#000000; fill-rule:evenodd;stroke:none;" d="M0.413 7.066 C0.885 6.571 1.328 5.978 1.673 5.356 C2.228 4.358 2.491 3.406 2.491 2.415 C2.491 1.568 2.266 0.623 1.913 0 L1.5 0 C1.785 0.728 1.913 1.433 1.913 2.236 C1.913 3.856 1.245 5.543 0 7.066 L0.413 7.066 Z" transform="translate(354.197, 182.032)"/>
   <path style="fill:#000000; fill-rule:evenodd;stroke:none;" d="M2.085 0 C0.78 1.365 0 3.075 0 4.598 C0 5.49 0.217 6.42 0.585 7.066 L0.997 7.066 C0.719 6.346 0.585 5.641 0.585 4.875 C0.585 3.21 1.237 1.545 2.497 0 L2.085 0 Z" transform="translate(347.348, 182.032)"/>
   <path style="fill:#000000; fill-rule:evenodd;stroke:none;" d="M1.208 3.113 L3 3.113 C3.488 3.113 3.758 3.308 3.758 3.675 C3.758 3.803 3.736 3.96 3.698 4.125 C3.518 4.875 3.518 4.875 3.518 5.115 C3.518 5.228 3.526 5.311 3.548 5.468 L4.396 5.468 L4.433 5.295 C4.335 5.205 4.276 5.063 4.276 4.898 C4.276 4.808 4.29 4.681 4.321 4.523 C4.418 4.013 4.478 3.623 4.478 3.488 C4.478 3.158 4.38 3 4.028 2.768 C4.321 2.603 4.441 2.521 4.575 2.401 C4.875 2.123 5.078 1.62 5.078 1.156 C5.078 0.361 4.643 0 3.683 0 L1.163 0 L0 5.468 L0.705 5.468 L1.208 3.113 Z M1.335 2.498 L1.741 0.615 L3.465 0.615 C3.863 0.615 4.058 0.668 4.2 0.825 C4.298 0.931 4.358 1.103 4.358 1.283 C4.358 1.561 4.245 1.891 4.08 2.101 C3.863 2.37 3.548 2.498 3.068 2.498 L1.335 2.498 Z" transform="translate(349.697, 182.032)"/>
   <path style="fill:#000000; fill-rule:evenodd;stroke:none;" d="M0.413 7.066 C0.885 6.571 1.328 5.978 1.673 5.356 C2.228 4.358 2.491 3.406 2.491 2.415 C2.491 1.568 2.266 0.623 1.913 0 L1.5 0 C1.785 0.728 1.913 1.433 1.913 2.236 C1.913 3.856 1.245 5.543 0 7.066 L0.413 7.066 Z" transform="translate(354.197, 182.032)"/>
   <path style="fill:#000000; fill-rule:nonzero;stroke:none;" d="M1.1 1 L0.1 1 L0 0 L1.2 0 L1.1 1 Z" transform="translate(345.4, 187.3)"/>
   <path style="fill:#000000; fill-rule:nonzero;stroke:none;" d="M1.8 1 L0.1 1 L0 0 L1.9 0 L1.8 1 Z" transform="translate(345.05, 184.3)"/>
   <path style="fill:#000000; fill-rule:nonzero;stroke:none;" d="M2.5 1 L0.1 1 L0 0 L2.6 0 L2.5 1 Z" transform="translate(344.7, 181.35)"/>
   <path style="fill:#000000; fill-rule:nonzero;stroke:none;" d="M3.15 1 L0.15 1 L0 0 L3.3 0 L3.15 1 Z" transform="translate(344.35, 178.4)"/>
   <path style="fill:#000000; fill-rule:nonzero;stroke:none;" d="M3.85 1 L0.15 1 L0 0 L4 0 L3.85 1 Z" transform="translate(344, 175.4)"/>
   <path style="fill:#000000; fill-rule:nonzero;stroke:none;" d="M4.5 1 L0.1 1 L0 0 L4.6 0 L4.5 1 Z" transform="translate(343.7, 172.45)"/>
   <path style="fill:#000000; fill-rule:nonzero;stroke:none;" d="M5.2 1 L0.1 1 L0 0 L5.3 0 L5.2 1 Z" transform="translate(343.35, 169.5)"/>
   <path style="fill:#000000; fill-rule:nonzero;stroke:none;" d="M5.9 1 L0.1 1 L0 0 L6 0 L5.9 1 Z" transform="translate(343, 166.55)"/>
   <path style="fill:#000000; fill-rule:evenodd;stroke:none;" d="M3.51 0 C1.42 0 0 1.54 0 3.82 C0 6.1 1.42 7.64 3.52 7.64 C4.4 7.64 5.19 7.37 5.78 6.87 C6.57 6.2 7.04 5.07 7.04 3.88 C7.04 1.53 5.65 0 3.51 0 Z M3.51 0.82 C5.09 0.82 6.11 2.02 6.11 3.86 C6.11 5.62 5.06 6.82 3.52 6.82 C1.97 6.82 0.93 5.62 0.93 3.82 C0.93 2.02 1.97 0.82 3.51 0.82 Z" transform="translate(372.88, 187.34)"/>
   <path style="fill:#000000; fill-rule:evenodd;stroke:none;" d="M4.68 3.97 L4.68 7.29 L5.61 7.29 L5.61 0 L4.68 0 L4.68 3.15 L0.93 3.15 L0.93 0 L0 0 L0 7.29 L0.94 7.29 L0.94 3.97 L4.68 3.97 Z" transform="translate(381.08, 187.46)"/>
   <path style="fill:#000000; fill-rule:nonzero;stroke:none;" d="M24.9 0 L24.9 1 L0.5 1 L0 0.5 L0 0 L24.9 0 Z" transform="translate(346, 190.5)"/>
   <path style="fill:#000000; fill-rule:nonzero;stroke:none;" d="M1 34 L0 34 L0 0.5 L0.5 0 L1 0.5 L1 34 Z" transform="translate(345.5, 191)"/>
   <path style="fill:#000000; fill-rule:evenodd;stroke:none;" d="M5.48 2.26 C5.47 0.83 4.49 0 2.81 0 C1.21 0 0.22 0.82 0.22 2.14 C0.22 3.03 0.69 3.59 1.65 3.84 L3.46 4.32 C4.38 4.56 4.8 4.93 4.8 5.5 C4.8 5.89 4.59 6.29 4.28 6.51 C3.99 6.71 3.53 6.82 2.94 6.82 C2.15 6.82 1.61 6.63 1.26 6.21 C0.99 5.89 0.87 5.54 0.88 5.09 L0 5.09 C0.01 5.76 0.14 6.2 0.43 6.6 C0.93 7.28 1.77 7.64 2.88 7.64 C3.75 7.64 4.46 7.44 4.93 7.08 C5.42 6.69 5.73 6.04 5.73 5.41 C5.73 4.51 5.17 3.85 4.18 3.58 L2.35 3.09 C1.47 2.85 1.15 2.57 1.15 2.01 C1.15 1.27 1.8 0.78 2.78 0.78 C3.94 0.78 4.59 1.31 4.6 2.26 L5.48 2.26 Z" transform="translate(313.73, 187.34)"/>
   <path style="fill:#000000; fill-rule:nonzero;stroke:none;" d="M0 1 L0 0 L24.65 0 L24.65 0.5 L24.15 1 L0 1 Z" transform="translate(321.35, 190.5)"/>
   <path style="fill:#000000; fill-rule:nonzero;stroke:none;" d="M0 1 L0.1 0.35 L0.45 0 L18.05 17.6 L17.35 18.3 L0 1 Z" transform="translate(294.7, 169.4)"/>
   <path style="fill:#000000; fill-rule:evenodd;stroke:none;" d="M5.7 0 L4.82 0 L4.82 5.96 L1.01 0 L0 0 L0 7.29 L0.88 7.29 L0.88 1.38 L4.65 7.29 L5.7 7.29 L5.7 0 Z" transform="translate(344.01, 245.21)"/>
   <path style="fill:#000000; fill-rule:nonzero;stroke:none;" d="M1 18.4 L0 18.4 L0 0 L1 0 L1 18.4 Z" transform="translate(348.35, 225)"/>
   <path style="fill:#000000; fill-rule:nonzero;stroke:none;" d="M1 18.4 L0 18.4 L0 0 L1 0 L1 18.4 Z" transform="translate(345.5, 225)"/>
   <path style="fill:#000000; fill-rule:nonzero;stroke:none;" d="M1 18.4 L0 18.4 L0 0 L1 0 L1 18.4 Z" transform="translate(342.65, 225)"/>
   <path style="fill:#000000; fill-rule:evenodd;stroke:none;" d="M0.93 4.15 L3.33 4.15 C4.16 4.15 4.53 4.55 4.53 5.45 L4.52 6.1 C4.52 6.55 4.6 6.99 4.73 7.29 L5.86 7.29 L5.86 7.06 C5.51 6.82 5.44 6.56 5.42 5.59 C5.41 4.39 5.22 4.03 4.43 3.69 C5.25 3.29 5.58 2.78 5.58 1.95 C5.58 0.69 4.79 0 3.36 0 L0 0 L0 7.29 L0.93 7.29 L0.93 4.15 Z M0.93 3.33 L0.93 0.82 L3.18 0.82 C3.7 0.82 4 0.9 4.23 1.1 C4.48 1.311 4.61 1.64 4.61 2.08 C4.61 2.94 4.17 3.33 3.18 3.33 L0.93 3.33 Z" transform="translate(266.93, 180.96)"/>
   <path style="fill:#000000; fill-rule:nonzero;stroke:none;" d="M0.5 12.35 L0 11.5 L19.9 0 L20.8 0.05 L20.7 0.7 L0.5 12.35 Z" transform="translate(274, 169.7)"/>
   <path style="fill:none;stroke:#000000; stroke-width:0.8; stroke-linecap:butt; stroke-linejoin:miter; stroke-dasharray:none;" d="M8.9 4.4502 C8.9 6.9072 6.907 8.8994 4.45 8.8994 C1.993 8.8994 0 6.9072 0 4.4502 C0 1.9932 1.993 0 4.45 0 C6.907 0 8.9 1.9932 8.9 4.4502 Z" transform="translate(377.25, 37.9502)"/>
   <path style="fill:none;stroke:#000000; stroke-width:0.8; stroke-linecap:butt; stroke-linejoin:miter; stroke-dasharray:none;" d="M0 0 L4.45 0 " transform="translate(379.45, 42.4004)"/>
   <path style="fill:none;stroke:#000000; stroke-width:0.8; stroke-linecap:butt; stroke-linejoin:miter; stroke-dasharray:none;" d="M8.9 4.4502 C8.9 6.9072 6.907 8.9004 4.45 8.9004 C1.993 8.9004 0 6.9072 0 4.4502 C0 1.9932 1.993 0 4.45 0 C6.907 0 8.9 1.9932 8.9 4.4502 Z" transform="translate(317.3, 38.0996)"/>
   <path style="fill:none;stroke:#000000; stroke-width:0.8; stroke-linecap:butt; stroke-linejoin:miter; stroke-dasharray:none;" d="M0 0 L4.45 0 " transform="translate(319.5, 42.5498)"/>
   <path style="fill:none;stroke:#000000; stroke-width:0.8; stroke-linecap:butt; stroke-linejoin:miter; stroke-dasharray:none;" d="M0 0 L0 4.4502 " transform="translate(321.75, 40.3496)"/>
   <path style="fill:#000000; fill-rule:evenodd;stroke:none;" d="M4.68 3.9697 L4.68 7.29 L5.61 7.29 L5.61 0 L4.68 0 L4.68 3.1504 L0.93 3.1504 L0.93 0 L0 0 L0 7.29 L0.94 7.29 L0.94 3.9697 L4.68 3.9697 Z" transform="translate(299.08, 75.21)"/>
   <path style="fill:#000000; fill-rule:nonzero;stroke:none;" d="M0.9 15.5996 L0 15.0996 L8.7 0 L9.6 0.5 L0.9 15.5996 Z" transform="translate(304, 57.6504)"/>
   <path style="fill:#0000ff; fill-rule:evenodd;stroke:none;" d="M4.68 3.96973 L4.68 7.29004 L5.61 7.29004 L5.61 0 L4.68 0 L4.68 3.15039 L0.93 3.15039 L0.93 0 L0 0 L0 7.29004 L0.94 7.29004 L0.94 3.96973 L4.68 3.96973 Z" transform="translate(277.83, 2.20996)"/>
   <path style="fill:#0000ff; fill-rule:nonzero;stroke:none;" d="M0 3 L5.2 0 L14.55 21.2002 L14.15 21.5 L13.4 21.3496 L0 3 Z" transform="translate(280.65, 10.25)"/>
   <path style="fill:#ff00ff; fill-rule:evenodd;stroke:none;" d="M4.68 3.96973 L4.68 7.29004 L5.61 7.29004 L5.61 0 L4.68 0 L4.68 3.15039 L0.93 3.15039 L0.93 0 L0 0 L0 7.29004 L0.94 7.29004 L0.94 3.96973 L4.68 3.96973 Z" transform="translate(307.83, 2.20996)"/>
   <path style="fill:#ff00ff; fill-rule:nonzero;stroke:none;" d="M0.4 0 L5.6 3 L5 3.7998 L0 0.9004 L0.4 0 Z" transform="translate(303.75, 9.5498)"/>
   <path style="fill:#ff00ff; fill-rule:nonzero;stroke:none;" d="M0.4 0 L5 2.7002 L4.4 3.5 L0 0.9502 L0.4 0 Z" transform="translate(302.6, 12.2002)"/>
   <path style="fill:#ff00ff; fill-rule:nonzero;stroke:none;" d="M0.4 0 L4.4 2.2998 L3.8 3.0996 L0 0.8994 L0.4 0 Z" transform="translate(301.45, 14.9004)"/>
   <path style="fill:#ff00ff; fill-rule:nonzero;stroke:none;" d="M0.4 0 L3.85 2 L3.25 2.7998 L0 0.9502 L0.4 0 Z" transform="translate(300.3, 17.5498)"/>
   <path style="fill:#ff00ff; fill-rule:nonzero;stroke:none;" d="M0.4 0 L3.25 1.5996 L2.65 2.4502 L0 0.9004 L0.4 0 Z" transform="translate(299.15, 20.25)"/>
   <path style="fill:#ff00ff; fill-rule:nonzero;stroke:none;" d="M0.4 0 L2.65 1.2998 L2.05 2.0996 L0 0.9492 L0.4 0 Z" transform="translate(298, 22.9004)"/>
   <path style="fill:#ff00ff; fill-rule:nonzero;stroke:none;" d="M0.4 0 L2.05 0.9502 L1.45 1.75 L0 0.9004 L0.4 0 Z" transform="translate(296.85, 25.5996)"/>
   <path style="fill:#ff00ff; fill-rule:nonzero;stroke:none;" d="M0.4 0 L1.45 0.5996 L0.85 1.4502 L0 0.9502 L0.4 0 Z" transform="translate(295.7, 28.25)"/>
   <path style="fill:none;stroke:#000000; stroke-width:0.8; stroke-linecap:butt; stroke-linejoin:miter; stroke-dasharray:none;" d="M0 29.3 L0 0 " transform="translate(327, 97)"/>
   <path style="fill:#000000; fill-rule:nonzero;stroke:none;" d="M2.6 10 L5.15 0 C5.15 0 3.7 1.25 2.6 1.25 C1.45 1.25 0 0 0 0 L2.6 10 " transform="translate(324.4, 125)"/>
   <path style="fill:none;stroke:#000000; stroke-width:0.8; stroke-linecap:butt; stroke-linejoin:miter; stroke-dasharray:none;" d="M0 0 L26.3 0 " transform="translate(210.7, 187)"/>
   <path style="fill:#000000; fill-rule:nonzero;stroke:none;" d="M0 2.6 L10 5.15 C10 5.15 8.75 3.7 8.75 2.6 C8.75 1.45 10 0 10 0 L0 2.6 " transform="translate(202, 184.4)"/>
   <path style="fill:#000000; fill-rule:evenodd;stroke:none;" d="M5.4795 2.26 C5.4697 0.83 4.4892 0 2.8095 0 C1.2099 0 0.2197 0.82 0.2197 2.14 C0.2197 3.03 0.6894 3.59 1.6494 3.84 L3.4599 4.32 C4.3799 4.56 4.7998 4.93 4.7998 5.5 C4.7998 5.89 4.5898 6.29 4.2793 6.51 C3.9892 6.71 3.5293 6.82 2.9394 6.82 C2.1494 6.82 1.6093 6.63 1.2597 6.21 C0.9892 5.89 0.8691 5.54 0.8799 5.09 L0 5.09 C0.0097 5.76 0.1396 6.2 0.4297 6.6 C0.9297 7.28 1.7695 7.64 2.8799 7.64 C3.75 7.64 4.4599 7.44 4.9297 7.08 C5.4199 6.69 5.7295 6.04 5.7295 5.41 C5.7295 4.51 5.1699 3.85 4.1797 3.58 L2.3496 3.09 C1.4697 2.85 1.1494 2.57 1.1494 2.01 C1.1494 1.27 1.7998 0.78 2.7793 0.78 C3.9394 0.78 4.5898 1.31 4.5996 2.26 L5.4795 2.26 Z" transform="translate(50.7305, 169.34)"/>
   <path style="fill:#000000; fill-rule:nonzero;stroke:none;" d="M21.3994 0 L21.8994 0.85 L0 13.45 L0.1992 12.25 L21.3994 0 Z" transform="translate(26.9004, 175.15)"/>
   <path style="fill:#000000; fill-rule:nonzero;stroke:none;" d="M17.25 16.5 L17.0498 17.75 L0 0.7 L0.7002 0 L17.25 16.5 Z" transform="translate(57.0498, 177.1)"/>
   <path style="fill:#000000; fill-rule:evenodd;stroke:none;" d="M3.5097 0 C1.4199 0 0 1.54 0 3.82 C0 6.1 1.4199 7.64 3.5205 7.64 C4.4004 7.64 5.1904 7.37 5.7803 6.87 C6.5703 6.2 7.04 5.07 7.04 3.88 C7.04 1.53 5.6504 0 3.5097 0 Z M3.5097 0.82 C5.0898 0.82 6.1103 2.02 6.1103 3.86 C6.1103 5.62 5.0605 6.82 3.5205 6.82 C1.9697 6.82 0.9297 5.62 0.9297 3.82 C0.9297 2.02 1.9697 0.82 3.5097 0.82 Z" transform="translate(71.1299, 220.59)"/>
   <path style="fill:#000000; fill-rule:nonzero;stroke:none;" d="M1 25.45 L0 25.45 L0 0 L1 0 L1 25.45 Z" transform="translate(75.5, 193.15)"/>
   <path style="fill:#000000; fill-rule:nonzero;stroke:none;" d="M1 26.2 L0 26.2 L0 0 L1 0 L1 26.2 Z" transform="translate(71.9004, 192.4)"/>
   <path style="fill:#000000; fill-rule:evenodd;stroke:none;" d="M3.93 7.29 L5.98 1.18 L5.98 7.29 L6.86 7.29 L6.86 0 L5.57 0 L3.45 6.35 L1.29 0 L0 0 L0 7.29 L0.8799 7.29 L0.8799 1.18 L2.95 7.29 L3.93 7.29 Z" transform="translate(97.5, 175.46)"/>
   <path style="fill:#000000; fill-rule:evenodd;stroke:none;" d="M4.73 3.05 C4.73 2.25 4.67 1.77 4.52 1.38 C4.18 0.52 3.38 0 2.4 0 C0.94 0 0 1.12 0 2.84 C0 4.56 0.91 5.62 2.38 5.62 C3.58 5.62 4.41 4.94 4.62 3.8 L3.78 3.8 C3.55 4.49 3.08 4.85 2.41 4.85 C1.88 4.85 1.43 4.61 1.15 4.17 C0.95 3.87 0.88 3.57 0.87 3.05 L4.73 3.05 Z M0.89 2.37 C0.96 1.4 1.55 0.77 2.39 0.77 C3.21 0.77 3.84 1.45 3.84 2.31 C3.84 2.33 3.84 2.35 3.83 2.37 L0.89 2.37 Z" transform="translate(105.4, 177.36)"/>
   <path style="fill:#000000; fill-rule:nonzero;stroke:none;" d="M20.5508 0 L21.0508 0.85 L0 13 L0.2002 11.75 L20.5508 0 Z" transform="translate(74.0996, 181.85)"/>
   <path style="fill:#000000; fill-rule:evenodd;stroke:none;" d="M2.628 2.64 L0 2.64 L0 3.432 L2.628 3.432 L2.628 6.072 L3.42 6.072 L3.42 3.432 L6.048 3.432 L6.048 2.64 L3.42 2.64 L3.42 0 L2.628 0 L2.628 2.64 Z" transform="translate(111.36, 211.928)"/>
   <path style="fill:#000000; fill-rule:evenodd;stroke:none;" d="M2.28 3.636 L2.28 1.308 C2.28 0.444 2.412 0.312 3.336 0.228 L3.336 0 L0 0 L0 0.228 C0.924 0.312 1.056 0.444 1.056 1.308 L1.056 6.504 C1.056 7.512 0.936 7.656 0 7.716 L0 7.944 L3.336 7.944 L3.336 7.716 C2.436 7.644 2.28 7.488 2.28 6.636 L2.28 4.164 L5.916 4.164 L5.916 6.504 C5.916 7.512 5.796 7.656 4.86 7.716 L4.86 7.944 L8.196 7.944 L8.196 7.716 C7.296 7.644 7.14 7.488 7.14 6.636 L7.14 1.308 C7.14 0.444 7.272 0.312 8.196 0.228 L8.196 0 L4.86 0 L4.86 0.228 C5.784 0.312 5.916 0.444 5.916 1.308 L5.916 3.636 L2.28 3.636 Z" transform="translate(120.978, 210.056)"/>
   <path style="fill:#000000; fill-rule:evenodd;stroke:none;" d="M7.104 2.712 L6.996 0 L6.744 0 C6.672 0.252 6.48 0.396 6.24 0.396 C6.132 0.396 5.952 0.36 5.772 0.288 C5.184 0.096 4.584 0 4.02 0 C3.036 0 2.04 0.372 1.296 1.032 C0.456 1.776 0 2.892 0 4.212 C0 5.328 0.36 6.36 0.972 7.044 C1.692 7.824 2.796 8.28 3.984 8.28 C5.34 8.28 6.528 7.728 7.26 6.756 L7.044 6.54 C6.156 7.392 5.364 7.752 4.368 7.752 C3.612 7.752 2.94 7.512 2.424 7.056 C1.764 6.468 1.392 5.388 1.392 4.056 C1.392 1.884 2.508 0.48 4.248 0.48 C4.932 0.48 5.556 0.732 6.036 1.212 C6.42 1.596 6.6 1.932 6.828 2.712 L7.104 2.712 Z" transform="translate(129.836, 209.888)"/>
   <path style="fill:#000000; fill-rule:evenodd;stroke:none;" d="M7.2 8.076 L7.2 1.764 C7.2 1.044 7.32 0.6 7.548 0.444 C7.716 0.324 7.884 0.276 8.34 0.228 L8.34 0 L5.52 0 L5.52 0.228 C5.976 0.264 6.144 0.312 6.324 0.42 C6.564 0.588 6.672 1.02 6.672 1.764 L6.672 5.808 L2.052 0 L0 0 L0 0.228 C0.516 0.228 0.684 0.324 1.164 0.888 L1.164 6.18 C1.164 7.416 0.996 7.644 0 7.716 L0 7.944 L2.82 7.944 L2.82 7.716 C1.896 7.668 1.692 7.392 1.692 6.18 L1.692 1.476 L6.996 8.076 L7.2 8.076 Z" transform="translate(137.644, 210.056)"/>
   <path style="fill:#0000ff; fill-rule:evenodd;stroke:none;" d="M4.68 3.97 L4.68 7.29 L5.61 7.29 L5.61 0 L4.68 0 L4.68 3.15 L0.93 3.15 L0.93 0 L0 0 L0 7.29 L0.94 7.29 L0.94 3.97 L4.68 3.97 Z" transform="translate(271.58, 144.96)"/>
   <path style="fill:#0000ff; fill-rule:nonzero;stroke:none;" d="M0 4.25 L4.25 0 L18.7 17.95 L18.35 18.3 L17.45 18.25 L0 4.25 Z" transform="translate(276.45, 151.45)"/>
   <path style="fill:#ff00ff; fill-rule:evenodd;stroke:none;" d="M4.68 3.97 L4.68 7.29 L5.61 7.29 L5.61 0 L4.68 0 L4.68 3.15 L0.93 3.15 L0.93 0 L0 0 L0 7.29 L0.94 7.29 L0.94 3.97 L4.68 3.97 Z" transform="translate(314.08, 144.96)"/>
   <path style="fill:#ff00ff; fill-rule:nonzero;stroke:none;" d="M0.65 0 L4.9 4.25 L4.1 4.9 L0 0.8 L0.65 0 Z" transform="translate(309.05, 150.6)"/>
   <path style="fill:#ff00ff; fill-rule:nonzero;stroke:none;" d="M0.6 0 L4.4 3.8 L3.6 4.4 L0 0.8 L0.6 0 Z" transform="translate(307.25, 152.9)"/>
   <path style="fill:#ff00ff; fill-rule:nonzero;stroke:none;" d="M0.6 0 L3.9 3.3 L3.1 3.9 L0 0.8 L0.6 0 Z" transform="translate(305.45, 155.2)"/>
   <path style="fill:#ff00ff; fill-rule:nonzero;stroke:none;" d="M0.65 0 L3.45 2.8 L2.65 3.45 L0 0.8 L0.65 0 Z" transform="translate(303.6, 157.5)"/>
   <path style="fill:#ff00ff; fill-rule:nonzero;stroke:none;" d="M0.6 0 L2.95 2.35 L2.15 2.95 L0 0.8 L0.6 0 Z" transform="translate(301.8, 159.8)"/>
   <path style="fill:#ff00ff; fill-rule:nonzero;stroke:none;" d="M0.6 0 L2.45 1.85 L1.65 2.5 L0 0.8 L0.6 0 Z" transform="translate(300, 162.1)"/>
   <path style="fill:#ff00ff; fill-rule:nonzero;stroke:none;" d="M0.65 0 L2 1.35 L1.2 2 L0 0.8 L0.65 0 Z" transform="translate(298.15, 164.4)"/>
   <path style="fill:#ff00ff; fill-rule:nonzero;stroke:none;" d="M0.6 0 L1.5 0.9 L0.7 1.5 L0 0.8 L0.6 0 Z" transform="translate(296.35, 166.7)"/>
   <path style="fill:#000000; fill-rule:evenodd;stroke:none;" d="M0.93066 4.15 L3.33008 4.15 C4.16015 4.15 4.53027 4.55 4.53027 5.45 L4.52051 6.1 C4.52051 6.55 4.60058 6.99 4.73047 7.29 L5.86035 7.29 L5.86035 7.06 C5.51074 6.82 5.44043 6.56 5.41992 5.59 C5.41015 4.39 5.2207 4.03 4.43066 3.69 C5.25 3.29 5.58008 2.78 5.58008 1.95 C5.58008 0.69 4.79004 0 3.36035 0 L0 0 L0 7.29 L0.93066 7.29 L0.93066 4.15 Z M0.93066 3.33 L0.93066 0.82 L3.18066 0.82 C3.70019 0.82 4 0.9 4.23047 1.1 C4.48047 1.311 4.61035 1.64 4.61035 2.08 C4.61035 2.94 4.16992 3.33 3.18066 3.33 L0.93066 3.33 Z" transform="translate(3.67969, 163.21)"/>
   <path style="fill:#000000; fill-rule:nonzero;stroke:none;" d="M0 0.75 L0.75 0 L16.5498 15.85 L16.3506 17.05 L0 0.75 Z" transform="translate(10.5498, 171.55)"/>
   <path style="fill:#000000; fill-rule:evenodd;stroke:none;" d="M0 0 L0 0.228 C1.008 0.288 1.152 0.42 1.152 1.308 L1.152 6.636 C1.152 7.524 0.996 7.68 0 7.716 L0 7.944 L4.008 7.944 C4.944 7.944 5.796 7.692 6.24 7.284 C6.672 6.9 6.912 6.36 6.912 5.784 C6.912 5.256 6.696 4.776 6.324 4.428 C5.964 4.104 5.64 3.96 4.86 3.768 C5.484 3.612 5.736 3.492 6.024 3.24 C6.324 2.976 6.504 2.532 6.504 2.04 C6.504 0.696 5.436 0 3.36 0 L0 0 Z M2.376 4.032 C3.54 4.032 4.092 4.092 4.524 4.272 C5.208 4.56 5.532 5.04 5.532 5.796 C5.532 6.444 5.28 6.912 4.8 7.188 C4.416 7.404 3.924 7.5 3.132 7.5 C2.544 7.5 2.376 7.392 2.376 7.008 L2.376 4.032 Z M2.376 3.552 L2.376 0.804 C2.376 0.552 2.46 0.444 2.64 0.444 L3.168 0.444 C4.548 0.444 5.28 1.02 5.28 2.088 C5.28 3.024 4.644 3.552 3.516 3.552 L2.376 3.552 Z" transform="translate(190.204, 168.556)"/>
   <path style="fill:#000000; fill-rule:evenodd;stroke:none;" d="M4.86 4.728 C4.656 4.896 4.512 4.956 4.332 4.956 C4.056 4.956 3.972 4.788 3.972 4.26 L3.972 1.92 C3.972 1.296 3.912 0.948 3.732 0.66 C3.468 0.228 2.952 0 2.244 0 C1.116 0 0.228 0.588 0.228 1.344 C0.228 1.62 0.468 1.86 0.744 1.86 C1.032 1.86 1.284 1.62 1.284 1.356 C1.284 1.308 1.272 1.248 1.26 1.164 C1.236 1.056 1.224 0.96 1.224 0.876 C1.224 0.552 1.608 0.288 2.088 0.288 C2.676 0.288 3 0.636 3 1.284 L3 2.016 C1.152 2.76 0.948 2.856 0.432 3.312 C0.168 3.552 0 3.96 0 4.356 C0 5.112 0.528 5.64 1.26 5.64 C1.788 5.64 2.28 5.388 3.012 4.764 C3.072 5.388 3.288 5.64 3.78 5.64 C4.188 5.64 4.44 5.496 4.86 5.04 L4.86 4.728 Z M3 4.044 C3 4.416 2.94 4.524 2.688 4.668 C2.4 4.836 2.064 4.944 1.812 4.944 C1.392 4.944 1.056 4.536 1.056 4.02 L1.056 3.972 C1.056 3.264 1.548 2.832 3 2.304 L3 4.044 Z" transform="translate(198.444, 170.98)"/>
   <path style="fill:#000000; fill-rule:evenodd;stroke:none;" d="M3.168 1.74 L3.12 0.108 L2.988 0.108 L2.964 0.132 C2.856 0.216 2.844 0.228 2.796 0.228 C2.724 0.228 2.604 0.204 2.472 0.144 C2.208 0.048 1.944 0 1.632 0 C0.684 0 0 0.612 0 1.476 C0 2.148 0.384 2.628 1.404 3.204 L2.1 3.6 C2.52 3.84 2.724 4.128 2.724 4.5 C2.724 5.028 2.34 5.364 1.728 5.364 C1.32 5.364 0.948 5.208 0.72 4.944 C0.468 4.644 0.36 4.368 0.204 3.684 L0.012 3.684 L0.012 5.556 L0.168 5.556 C0.252 5.436 0.3 5.412 0.444 5.412 C0.552 5.412 0.72 5.436 0.996 5.508 C1.332 5.58 1.656 5.628 1.872 5.628 C2.796 5.628 3.564 4.932 3.564 4.092 C3.564 3.492 3.276 3.096 2.556 2.664 L1.26 1.896 C0.924 1.704 0.744 1.404 0.744 1.08 C0.744 0.6 1.116 0.264 1.668 0.264 C2.352 0.264 2.712 0.672 2.988 1.74 L3.168 1.74 Z" transform="translate(203.862, 170.992)"/>
   <path style="fill:#000000; fill-rule:evenodd;stroke:none;" d="M4.596 3.552 C4.02 4.464 3.504 4.812 2.736 4.812 C2.052 4.812 1.536 4.464 1.188 3.78 C0.972 3.324 0.888 2.928 0.864 2.196 L4.56 2.196 C4.464 1.416 4.344 1.068 4.044 0.684 C3.684 0.252 3.132 0 2.508 0 C1.908 0 1.344 0.216 0.888 0.624 C0.324 1.116 0 1.968 0 2.952 C0 4.608 0.864 5.64 2.244 5.64 C3.384 5.64 4.284 4.932 4.788 3.636 L4.596 3.552 Z M0.888 1.812 C1.02 0.876 1.428 0.432 2.16 0.432 C2.892 0.432 3.18 0.768 3.336 1.812 L0.888 1.812 Z" transform="translate(208.3, 170.98)"/>
  </g>
 </g>
</svg>
