<?xml version="1.0" encoding="UTF-8" standalone="no"?>
<svg width="680px" height="546px" viewBox="0 0 680 546" version="1.1" xmlns="http://www.w3.org/2000/svg" xmlns:xlink="http://www.w3.org/1999/xlink">
    <!-- Generator: Sketch 3.7.2 (28276) - http://www.bohemiancoding.com/sketch -->
    <title>Page 1</title>
    <desc>Created with Sketch.</desc>
    <defs>
        <polygon id="path-1" points="49.3558349 0.829724771 0.762868502 0.829724771 0.762868502 61.4868685 49.3558349 61.4868685 49.3558349 0.829724771"></polygon>
        <polygon id="path-3" points="0 546.08159 679.195229 546.08159 679.195229 1.03975535 0 1.03975535"></polygon>
    </defs>
    <g id="Page-1" stroke="none" stroke-width="1" fill="none" fill-rule="evenodd">
        <g transform="translate(0.000000, -1.000000)">
            <g id="Group-3" transform="translate(50.948012, 0.210031)">
                <mask id="mask-2" fill="white">
                    <use xlink:href="#path-1"></use>
                </mask>
                <g id="Clip-2"></g>
                <path d="M44.8308196,31.3256453 L44.8308196,31.1582446 C44.8308196,17.5010581 37.1241529,4.76613456 24.9746116,4.76613456 C12.8271498,4.76613456 5.28580428,17.3336575 5.28580428,30.9898043 L5.28580428,31.1582446 C5.28580428,44.7301713 12.9945505,57.5482752 25.1420122,57.5482752 C37.2925933,57.5482752 44.8308196,44.8975719 44.8308196,31.3256453 M0.762868502,31.3256453 L0.762868502,31.1582446 C0.762868502,14.9879694 10.2308807,0.829620795 25.1420122,0.829620795 C40.056263,0.829620795 49.3558349,14.8205688 49.3558349,30.9898043 L49.3558349,31.1582446 C49.3558349,47.3274801 39.8878226,61.4868685 24.9746116,61.4868685 C10.0624404,61.4868685 0.762868502,47.4959205 0.762868502,31.3256453" id="Fill-1" fill="#A4A9AD" mask="url(#mask-2)"></path>
            </g>
            <path d="M145.302899,16.7058532 L145.302899,16.5384526 C145.302899,9.92040979 138.598557,5.1437737 130.053847,5.1437737 C121.508098,5.1437737 114.806875,9.92040979 114.806875,16.5384526 L114.806875,16.7058532 C114.806875,23.9113578 121.759719,28.7711743 130.053847,28.7711743 C138.349015,28.7711743 145.302899,23.9113578 145.302899,16.7058532 M147.313786,45.1909908 L147.313786,45.02463 C147.313786,37.7349052 139.60504,32.457107 130.053847,32.457107 C120.503694,32.457107 112.795988,37.7349052 112.795988,45.02463 L112.795988,45.1909908 C112.795988,51.8100734 119.24559,57.5900734 130.053847,57.5900734 C140.861064,57.5900734 147.313786,51.8100734 147.313786,45.1909908 M108.269933,45.02463 L108.269933,44.8561896 C108.269933,37.9854862 113.883572,32.7919083 121.256477,30.362 C115.475437,28.0173517 110.281859,23.659737 110.281859,16.7058532 L110.281859,16.5384526 C110.281859,7.40628135 119.917272,1.20725994 130.053847,1.20725994 C140.192502,1.20725994 149.825835,7.40628135 149.825835,16.5384526 L149.825835,16.7058532 C149.825835,23.659737 144.632257,28.0173517 138.850177,30.362 C146.223083,32.7919083 151.836722,37.9854862 151.836722,44.8561896 L151.836722,45.02463 C151.836722,54.7432232 142.369749,61.5286667 130.053847,61.5286667 C117.737945,61.5286667 108.269933,54.7432232 108.269933,45.02463" id="Fill-4" fill="#A4A9AD"></path>
            <path d="M35.7846361,103.42093 C38.6450031,103.42093 40.6860428,101.949676 40.6860428,99.4989725 L40.6860428,99.4438654 C40.6860428,97.1023364 38.8883058,95.6861896 35.8116697,95.6861896 L29.9297737,95.6861896 L29.9297737,103.42093 L35.7846361,103.42093 Z M27.7774801,93.6971376 L35.9749113,93.6971376 C38.3174801,93.6971376 40.1952783,94.4062508 41.3941162,95.6040489 C42.3205382,96.5304709 42.86537,97.8644771 42.86537,99.3617248 L42.86537,99.4178716 C42.86537,102.575609 40.6860428,104.428453 37.6915474,104.972245 L43.5464098,112.762092 L40.9054312,112.762092 L35.3749725,105.353835 L29.9297737,105.353835 L29.9297737,112.762092 L27.7774801,112.762092 L27.7774801,93.6971376 Z" id="Fill-6" fill="#A4A9AD"></path>
            <path d="M58.0875963,105.790012 L58.0875963,105.735945 C58.0875963,102.712336 55.8271682,100.23356 52.8586667,100.23356 C49.8080245,100.23356 47.7118777,102.712336 47.7118777,105.681878 L47.7118777,105.735945 C47.7118777,108.758514 49.9431927,111.209217 52.9116942,111.209217 C55.9623364,111.209217 58.0875963,108.758514 58.0875963,105.790012 M45.5595841,105.790012 L45.5595841,105.735945 C45.5595841,101.75992 48.6632538,98.3817554 52.9116942,98.3817554 C57.1341407,98.3817554 60.2378104,101.704813 60.2378104,105.681878 L60.2378104,105.735945 C60.2378104,109.711969 57.1060673,113.089095 52.8586667,113.089095 C48.6362202,113.089095 45.5595841,109.766037 45.5595841,105.790012" id="Fill-8" fill="#A4A9AD"></path>
            <path d="M73.3388318,98.6819327 L75.5711865,98.6819327 L69.6622569,113.224991 C68.463419,116.139425 67.1013394,117.201015 64.978159,117.201015 C63.805315,117.201015 62.934,116.955633 61.9805443,116.492942 L62.6906972,114.832453 C63.3696575,115.185969 63.9976697,115.349211 64.8960183,115.349211 C66.1478838,115.349211 66.9380979,114.695205 67.7823792,112.708232 L61.3837248,98.6819327 L63.6971804,98.6819327 L68.8179755,110.419731 L73.3388318,98.6819327 Z" id="Fill-10" fill="#A4A9AD"></path>
            <path d="M87.1170459,107.587125 L87.1170459,106.226086 C86.0814495,105.925596 84.6923364,105.626147 82.9767401,105.626147 C80.3357615,105.626147 78.8645076,106.769878 78.8645076,108.540581 L78.8645076,108.594648 C78.8645076,110.365352 80.4990031,111.400948 82.4059144,111.400948 C84.9917859,111.400948 87.1170459,109.82052 87.1170459,107.587125 M76.7413272,108.676789 L76.7413272,108.622722 C76.7413272,105.65422 79.1920306,104.074832 82.7594312,104.074832 C84.5561284,104.074832 85.8360673,104.319174 87.0879327,104.672691 L87.0879327,104.182966 C87.0879327,101.650122 85.5376575,100.34315 82.8945994,100.34315 C81.2330703,100.34315 79.9260979,100.778807 78.6191254,101.377706 L77.9931927,99.6621101 C79.5455474,98.9540367 81.0698287,98.4903058 83.1139878,98.4903058 C85.102,98.4903058 86.6262813,99.008104 87.6608379,100.0437 C88.6142936,100.997156 89.1050581,102.358196 89.1050581,104.154893 L89.1050581,112.761988 L87.0879327,112.761988 L87.0879327,110.637768 C86.1084832,111.917706 84.4739878,113.061437 81.9962508,113.061437 C79.3823058,113.061437 76.7413272,111.56315 76.7413272,108.676789" id="Fill-12" fill="#A4A9AD"></path>
            <mask id="mask-4" fill="white">
                <use xlink:href="#path-3"></use>
            </mask>
            <g id="Clip-15"></g>
            <polygon id="Fill-14" fill="#A4A9AD" mask="url(#mask-4)" points="93.3523547 112.762508 95.4495413 112.762508 95.4495413 92.8813456 93.3523547 92.8813456"></polygon>
            <path d="M119.74093,105.762355 L119.74093,105.708287 C119.74093,102.386269 117.453468,100.261009 114.784416,100.261009 C112.169431,100.261009 109.691694,102.46737 109.691694,105.681254 L109.691694,105.735321 C109.691694,109.004312 112.169431,111.182599 114.784416,111.182599 C117.508575,111.182599 119.74093,109.167554 119.74093,105.762355 L119.74093,105.762355 Z M107.676648,98.6816208 L109.773835,98.6816208 L109.773835,101.513914 C110.917566,99.8253517 112.579095,98.3821713 115.167046,98.3821713 C118.544171,98.3821713 121.893223,101.051223 121.893223,105.681254 L121.893223,105.735321 C121.893223,110.337278 118.571205,113.061437 115.167046,113.061437 C112.552061,113.061437 110.862459,111.645291 109.773835,110.065902 L109.773835,117.119602 L107.676648,117.119602 L107.676648,98.6816208 Z" id="Fill-16" fill="#A4A9AD" mask="url(#mask-4)"></path>
            <path d="M134.66485,107.587125 L134.66485,106.226086 C133.629254,105.925596 132.240141,105.626147 130.524544,105.626147 C127.883566,105.626147 126.412312,106.769878 126.412312,108.540581 L126.412312,108.594648 C126.412312,110.365352 128.046807,111.400948 129.953719,111.400948 C132.53959,111.400948 134.66485,109.82052 134.66485,107.587125 M124.289131,108.676789 L124.289131,108.622722 C124.289131,105.65422 126.739835,104.074832 130.307235,104.074832 C132.103933,104.074832 133.383872,104.319174 134.635737,104.672691 L134.635737,104.182966 C134.635737,101.650122 133.085462,100.34315 130.442404,100.34315 C128.780875,100.34315 127.473902,100.778807 126.16693,101.377706 L125.540997,99.6621101 C127.093352,98.9540367 128.617633,98.4903058 130.661792,98.4903058 C132.649804,98.4903058 134.174086,99.008104 135.208642,100.0437 C136.162098,100.997156 136.652862,102.358196 136.652862,104.154893 L136.652862,112.761988 L134.635737,112.761988 L134.635737,110.637768 C133.656287,111.917706 132.021792,113.061437 129.544055,113.061437 C126.93011,113.061437 124.289131,111.56315 124.289131,108.676789" id="Fill-17" fill="#A4A9AD" mask="url(#mask-4)"></path>
            <path d="M140.712171,98.6819327 L142.809358,98.6819327 L142.809358,102.358508 C143.843914,100.016979 145.885994,98.3284159 148.556086,98.4365505 L148.556086,100.696979 L148.391804,100.696979 C145.315168,100.696979 142.809358,102.903339 142.809358,107.15178 L142.809358,112.7623 L140.712171,112.7623 L140.712171,98.6819327 Z" id="Fill-18" fill="#A4A9AD" mask="url(#mask-4)"></path>
            <polygon id="Fill-19" fill="#A4A9AD" mask="url(#mask-4)" points="151.331713 92.8811376 153.428899 92.8811376 153.428899 106.606948 161.026391 98.6819327 163.641376 98.6819327 157.730367 104.72811 163.831651 112.7623 161.326881 112.7623 156.288226 106.198324 153.428899 109.085725 153.428899 112.7623 151.331713 112.7623"></polygon>
            <path d="M165.244991,110.964771 L166.308661,109.466483 C167.832942,110.611254 169.522544,111.26422 171.184073,111.26422 C172.871596,111.26422 174.097468,110.392905 174.097468,109.030826 L174.097468,108.976758 C174.097468,107.560612 172.435939,107.01578 170.584135,106.497982 C168.376734,105.872049 165.926031,105.108869 165.926031,102.521957 L165.926031,102.46789 C165.926031,100.04318 167.941076,98.4367584 170.719303,98.4367584 C172.435939,98.4367584 174.34285,99.0356575 175.784991,99.9891131 L174.831535,101.568502 C173.524563,100.72422 172.026275,100.207462 170.666275,100.207462 C169.004746,100.207462 167.941076,101.078777 167.941076,102.249541 L167.941076,102.303609 C167.941076,103.638654 169.684746,104.155413 171.564624,104.728318 C173.742911,105.382324 176.08548,106.225566 176.08548,108.75841 L176.08548,108.812477 C176.08548,111.482569 173.880159,113.033884 171.073859,113.033884 C169.058813,113.033884 166.826459,112.244709 165.244991,110.964771" id="Fill-20" fill="#A4A9AD" mask="url(#mask-4)"></path>
            <polygon id="Fill-21" fill="#A4A9AD" mask="url(#mask-4)" points="333.695755 6.23364526 299.681199 6.23364526 299.681199 2.04447095 338.554532 2.04447095 338.554532 5.22820183 311.828661 60.6908318 307.054104 60.6908318"></polygon>
            <path d="M388.913107,31.5356758 L388.913107,31.3682752 C388.913107,17.7110887 381.20644,4.97616514 369.056899,4.97616514 C356.909437,4.97616514 349.368092,17.5436881 349.368092,31.1998349 L349.368092,31.3682752 C349.368092,44.9402018 357.076838,57.7583058 369.2243,57.7583058 C381.374881,57.7583058 388.913107,45.1076024 388.913107,31.5356758 M344.845156,31.5356758 L344.845156,31.3682752 C344.845156,15.198 354.313168,1.03965138 369.2243,1.03965138 C384.13855,1.03965138 393.438122,15.0305994 393.438122,31.1998349 L393.438122,31.3682752 C393.438122,47.5375107 383.97011,61.6968991 369.056899,61.6968991 C354.144728,61.6968991 344.845156,47.7059511 344.845156,31.5356758" id="Fill-22" fill="#A4A9AD" mask="url(#mask-4)"></path>
            <polygon id="Fill-23" fill="#A4A9AD" mask="url(#mask-4)" points="545.762385 6.149737 534.450887 10.0041101 533.279083 6.56875841 546.682569 1.62576147 550.0337 1.62576147 550.0337 60.6911437 545.762385 60.6911437"></polygon>
            <polygon id="Fill-24" fill="#A4A9AD" mask="url(#mask-4)" points="596.452434 6.23364526 562.437878 6.23364526 562.437878 2.04447095 601.311211 2.04447095 601.311211 5.22820183 574.585339 60.6908318 569.810783 60.6908318"></polygon>
            <path d="M651.669786,31.5356758 L651.669786,31.3682752 C651.669786,17.7110887 643.963119,4.97616514 631.813578,4.97616514 C619.666116,4.97616514 612.124771,17.5436881 612.124771,31.1998349 L612.124771,31.3682752 C612.124771,44.9402018 619.833517,57.7583058 631.980979,57.7583058 C644.13156,57.7583058 651.669786,45.1076024 651.669786,31.5356758 M607.601835,31.5356758 L607.601835,31.3682752 C607.601835,15.198 617.069847,1.03965138 631.980979,1.03965138 C646.895229,1.03965138 656.194801,15.0305994 656.194801,31.1998349 L656.194801,31.3682752 C656.194801,47.5375107 646.726789,61.6968991 631.813578,61.6968991 C616.902446,61.6968991 607.601835,47.7059511 607.601835,31.5356758" id="Fill-25" fill="#A4A9AD" mask="url(#mask-4)"></path>
            <polygon id="Fill-26" fill="#A4A9AD" mask="url(#mask-4)" points="245.146654 93.6974495 258.845431 93.6974495 258.845431 95.6854618 247.298948 95.6854618 247.298948 102.49378 257.61956 102.49378 257.61956 104.454758 247.298948 104.454758 247.298948 112.762404 245.146654 112.762404"></polygon>
            <path d="M262.249278,98.6819327 L264.346465,98.6819327 L264.346465,102.358508 C265.381021,100.016979 267.423101,98.3284159 270.093193,98.4365505 L270.093193,100.696979 L269.928911,100.696979 C266.852275,100.696979 264.346465,102.903339 264.346465,107.15178 L264.346465,112.7623 L262.249278,112.7623 L262.249278,98.6819327 Z" id="Fill-27" fill="#A4A9AD" mask="url(#mask-4)"></path>
            <path d="M282.592404,104.946043 C282.375095,102.386165 280.904881,100.152771 278.099621,100.152771 C275.648917,100.152771 273.796073,102.19589 273.523657,104.946043 L282.592404,104.946043 Z M271.400477,105.762251 L271.400477,105.708183 C271.400477,101.650018 274.259804,98.3820673 278.152648,98.3820673 C282.319988,98.3820673 284.717664,101.704086 284.717664,105.817358 C284.717664,106.089774 284.717664,106.253015 284.68959,106.497358 L273.523657,106.497358 C273.824147,109.548 275.974361,111.264636 278.480171,111.264636 C280.414116,111.264636 281.776196,110.474422 282.919927,109.275584 L284.226899,110.447388 C282.811792,112.026777 281.095156,113.089407 278.427144,113.089407 C274.558214,113.089407 271.400477,110.119865 271.400477,105.762251 L271.400477,105.762251 Z" id="Fill-28" fill="#A4A9AD" mask="url(#mask-4)"></path>
            <path d="M298.306018,104.946043 C298.088709,102.386165 296.618495,100.152771 293.813235,100.152771 C291.362532,100.152771 289.509688,102.19589 289.237272,104.946043 L298.306018,104.946043 Z M287.114092,105.762251 L287.114092,105.708183 C287.114092,101.650018 289.973419,98.3820673 293.866263,98.3820673 C298.033602,98.3820673 300.431278,101.704086 300.431278,105.817358 C300.431278,106.089774 300.431278,106.253015 300.403205,106.497358 L289.237272,106.497358 C289.537761,109.548 291.687976,111.264636 294.193786,111.264636 C296.127731,111.264636 297.48981,110.474422 298.633541,109.275584 L299.940514,110.447388 C298.525407,112.026777 296.808771,113.089407 294.138679,113.089407 C290.271829,113.089407 287.114092,110.119865 287.114092,105.762251 L287.114092,105.762251 Z" id="Fill-29" fill="#A4A9AD" mask="url(#mask-4)"></path>
            <path d="M320.774716,107.587125 L320.774716,106.226086 C319.739119,105.925596 318.350006,105.626147 316.63441,105.626147 C313.993431,105.626147 312.522177,106.769878 312.522177,108.540581 L312.522177,108.594648 C312.522177,110.365352 314.156673,111.400948 316.063584,111.400948 C318.649456,111.400948 320.774716,109.82052 320.774716,107.587125 M310.398997,108.676789 L310.398997,108.622722 C310.398997,105.65422 312.8497,104.074832 316.417101,104.074832 C318.213798,104.074832 319.493737,104.319174 320.745602,104.672691 L320.745602,104.182966 C320.745602,101.650122 319.195327,100.34315 316.552269,100.34315 C314.89074,100.34315 313.583768,100.778807 312.276795,101.377706 L311.650862,99.6621101 C313.203217,98.9540367 314.727498,98.4903058 316.771657,98.4903058 C318.75967,98.4903058 320.283951,99.008104 321.318508,100.0437 C322.271963,100.997156 322.762728,102.358196 322.762728,104.154893 L322.762728,112.761988 L320.745602,112.761988 L320.745602,110.637768 C319.766153,111.917706 318.131657,113.061437 315.65392,113.061437 C313.039976,113.061437 310.398997,111.56315 310.398997,108.676789" id="Fill-30" fill="#A4A9AD" mask="url(#mask-4)"></path>
            <path d="M327.419376,109.03041 L327.419376,100.533529 L325.459437,100.533529 L325.459437,98.6817248 L327.419376,98.6817248 L327.419376,94.4332844 L329.516563,94.4332844 L329.516563,98.6817248 L333.984391,98.6817248 L333.984391,100.533529 L329.516563,100.533529 L329.516563,108.757994 C329.516563,110.47463 330.470018,111.100563 331.887205,111.100563 C332.595278,111.100563 333.194177,110.964355 333.929284,110.610838 L333.929284,112.407535 C333.194177,112.789125 332.402924,113.007474 331.39644,113.007474 C329.136012,113.007474 327.419376,111.890777 327.419376,109.03041" id="Fill-31" fill="#A4A9AD" mask="url(#mask-4)"></path>
            <path d="M338.0123,109.03041 L338.0123,100.533529 L336.052361,100.533529 L336.052361,98.6817248 L338.0123,98.6817248 L338.0123,94.4332844 L340.109486,94.4332844 L340.109486,98.6817248 L344.577315,98.6817248 L344.577315,100.533529 L340.109486,100.533529 L340.109486,108.757994 C340.109486,110.47463 341.062942,111.100563 342.480128,111.100563 C343.188202,111.100563 343.787101,110.964355 344.522208,110.610838 L344.522208,112.407535 C343.787101,112.789125 342.995847,113.007474 341.989364,113.007474 C339.728936,113.007474 338.0123,111.890777 338.0123,109.03041" id="Fill-32" fill="#A4A9AD" mask="url(#mask-4)"></path>
            <path d="M347.872924,98.6819327 L349.97011,98.6819327 L349.97011,102.358508 C351.004667,100.016979 353.046746,98.3284159 355.716838,98.4365505 L355.716838,100.696979 L355.552557,100.696979 C352.47592,100.696979 349.97011,102.903339 349.97011,107.15178 L349.97011,112.7623 L347.872924,112.7623 L347.872924,98.6819327 Z" id="Fill-33" fill="#A4A9AD" mask="url(#mask-4)"></path>
            <path d="M367.125657,107.587125 L367.125657,106.226086 C366.090061,105.925596 364.700948,105.626147 362.985352,105.626147 C360.344373,105.626147 358.873119,106.769878 358.873119,108.540581 L358.873119,108.594648 C358.873119,110.365352 360.507615,111.400948 362.414526,111.400948 C365.000398,111.400948 367.125657,109.82052 367.125657,107.587125 M356.749939,108.676789 L356.749939,108.622722 C356.749939,105.65422 359.200642,104.074832 362.768043,104.074832 C364.56474,104.074832 365.844679,104.319174 367.096544,104.672691 L367.096544,104.182966 C367.096544,101.650122 365.546269,100.34315 362.903211,100.34315 C361.241682,100.34315 359.934709,100.778807 358.627737,101.377706 L358.001804,99.6621101 C359.554159,98.9540367 361.07844,98.4903058 363.122599,98.4903058 C365.110612,98.4903058 366.634893,99.008104 367.66945,100.0437 C368.622905,100.997156 369.11367,102.358196 369.11367,104.154893 L369.11367,112.761988 L367.096544,112.761988 L367.096544,110.637768 C366.117095,111.917706 364.482599,113.061437 362.004862,113.061437 C359.390917,113.061437 356.749939,111.56315 356.749939,108.676789" id="Fill-34" fill="#A4A9AD" mask="url(#mask-4)"></path>
            <path d="M372.29948,105.790012 L372.29948,105.735945 C372.29948,101.75992 375.405229,98.3817554 379.517462,98.3817554 C382.184434,98.3817554 383.845963,99.4994924 385.152936,100.888606 L383.763823,102.35778 C382.649205,101.187015 381.39526,100.23356 379.488349,100.23356 C376.630061,100.23356 374.451774,102.658269 374.451774,105.681878 L374.451774,105.735945 C374.451774,108.785547 376.683089,111.209217 379.625596,111.209217 C381.423333,111.209217 382.810367,110.310869 383.928104,109.112031 L385.26315,110.364936 C383.845963,111.944324 382.15844,113.089095 379.517462,113.089095 C375.405229,113.089095 372.29948,109.739003 372.29948,105.790012" id="Fill-35" fill="#A4A9AD" mask="url(#mask-4)"></path>
            <path d="M389.048171,109.03041 L389.048171,100.533529 L387.088232,100.533529 L387.088232,98.6817248 L389.048171,98.6817248 L389.048171,94.4332844 L391.145358,94.4332844 L391.145358,98.6817248 L395.613187,98.6817248 L395.613187,100.533529 L391.145358,100.533529 L391.145358,108.757994 C391.145358,110.47463 392.098813,111.100563 393.516,111.100563 C394.224073,111.100563 394.822972,110.964355 395.55808,110.610838 L395.55808,112.407535 C394.822972,112.789125 394.033798,113.007474 393.025235,113.007474 C390.764807,113.007474 389.048171,111.890777 389.048171,109.03041" id="Fill-36" fill="#A4A9AD" mask="url(#mask-4)"></path>
            <path d="M399.096575,112.762508 L401.193761,112.762508 L401.193761,98.6821407 L399.096575,98.6821407 L399.096575,112.762508 Z M398.960367,95.6034251 L401.358043,95.6034251 L401.358043,93.2889297 L398.960367,93.2889297 L398.960367,95.6034251 Z" id="Fill-37" fill="#A4A9AD" mask="url(#mask-4)"></path>
            <path d="M417.316624,105.790012 L417.316624,105.735945 C417.316624,102.712336 415.056196,100.23356 412.087694,100.23356 C409.037052,100.23356 406.940905,102.712336 406.940905,105.681878 L406.940905,105.735945 C406.940905,108.758514 409.17222,111.209217 412.140722,111.209217 C415.191364,111.209217 417.316624,108.758514 417.316624,105.790012 M404.788612,105.790012 L404.788612,105.735945 C404.788612,101.75992 407.892281,98.3817554 412.140722,98.3817554 C416.363168,98.3817554 419.466838,101.704813 419.466838,105.681878 L419.466838,105.735945 C419.466838,109.711969 416.335095,113.089095 412.087694,113.089095 C407.865248,113.089095 404.788612,109.766037 404.788612,105.790012" id="Fill-38" fill="#A4A9AD" mask="url(#mask-4)"></path>
            <path d="M422.844275,98.6819327 L424.941462,98.6819327 L424.941462,101.132636 C425.867884,99.607315 427.337058,98.3824832 429.760728,98.3824832 C433.164887,98.3824832 435.153939,100.668905 435.153939,104.018997 L435.153939,112.7623 L433.056752,112.7623 L433.056752,104.536795 C433.056752,101.92285 431.640606,100.289394 429.161829,100.289394 C426.739199,100.289394 424.941462,102.058018 424.941462,104.701076 L424.941462,112.7623 L422.844275,112.7623 L422.844275,98.6819327 Z" id="Fill-39" fill="#A4A9AD" mask="url(#mask-4)"></path>
            <path d="M438.0403,110.964771 L439.103969,109.466483 C440.628251,110.611254 442.317853,111.26422 443.979382,111.26422 C445.666905,111.26422 446.892777,110.392905 446.892777,109.030826 L446.892777,108.976758 C446.892777,107.560612 445.231248,107.01578 443.379443,106.497982 C441.172043,105.872049 438.721339,105.108869 438.721339,102.521957 L438.721339,102.46789 C438.721339,100.04318 440.736385,98.4367584 443.514612,98.4367584 C445.231248,98.4367584 447.138159,99.0356575 448.5803,99.9891131 L447.626844,101.568502 C446.319872,100.72422 444.821584,100.207462 443.461584,100.207462 C441.800055,100.207462 440.736385,101.078777 440.736385,102.249541 L440.736385,102.303609 C440.736385,103.638654 442.480055,104.155413 444.359933,104.728318 C446.53822,105.382324 448.880789,106.225566 448.880789,108.75841 L448.880789,108.812477 C448.880789,111.482569 446.675468,113.033884 443.869168,113.033884 C441.854122,113.033884 439.621768,112.244709 438.0403,110.964771" id="Fill-40" fill="#A4A9AD" mask="url(#mask-4)"></path>
            <polygon id="Fill-41" fill="#A4A9AD" mask="url(#mask-4)" points="536.961376 93.6974495 539.139664 93.6974495 546.085229 104.101242 553.028716 93.6974495 555.208043 93.6974495 555.208043 112.762404 553.057829 112.762404 553.057829 97.3209969 546.112263 107.533474 546.004128 107.533474 539.058563 97.3469908 539.058563 112.762404 536.961376 112.762404"></polygon>
            <path d="M559.618269,107.424508 L559.618269,98.6822446 L561.715456,98.6822446 L561.715456,106.906709 C561.715456,109.521694 563.132642,111.15515 565.610379,111.15515 C568.008055,111.15515 569.832826,109.384446 569.832826,106.743468 L569.832826,98.6822446 L571.900899,98.6822446 L571.900899,112.761572 L569.832826,112.761572 L569.832826,110.310869 C568.87937,111.83619 567.43515,113.062061 565.01044,113.062061 C561.606281,113.062061 559.618269,110.77356 559.618269,107.424508" id="Fill-42" fill="#A4A9AD" mask="url(#mask-4)"></path>
            <path d="M575.033162,110.964771 L576.096832,109.466483 C577.621113,110.611254 579.308636,111.26422 580.972245,111.26422 C582.659768,111.26422 583.885639,110.392905 583.885639,109.030826 L583.885639,108.976758 C583.885639,107.560612 582.22411,107.01578 580.372306,106.497982 C578.164905,105.872049 575.714202,105.108869 575.714202,102.521957 L575.714202,102.46789 C575.714202,100.04318 577.729248,98.4367584 580.507474,98.4367584 C582.22411,98.4367584 584.131021,99.0356575 585.573162,99.9891131 L584.619706,101.568502 C583.312734,100.72422 581.814446,100.207462 580.454446,100.207462 C578.792917,100.207462 577.729248,101.078777 577.729248,102.249541 L577.729248,102.303609 C577.729248,103.638654 579.472917,104.155413 581.352795,104.728318 C583.531083,105.382324 585.873651,106.225566 585.873651,108.75841 L585.873651,108.812477 C585.873651,111.482569 583.666251,113.033884 580.862031,113.033884 C578.846985,113.033884 576.61463,112.244709 575.033162,110.964771" id="Fill-43" fill="#A4A9AD" mask="url(#mask-4)"></path>
            <path d="M599.678587,104.946043 C599.461278,102.386165 597.991064,100.152771 595.185804,100.152771 C592.735101,100.152771 590.882257,102.19589 590.609841,104.946043 L599.678587,104.946043 Z M588.486661,105.762251 L588.486661,105.708183 C588.486661,101.650018 591.345988,98.3820673 595.238832,98.3820673 C599.406171,98.3820673 601.803847,101.704086 601.803847,105.817358 C601.803847,106.089774 601.803847,106.253015 601.775774,106.497358 L590.609841,106.497358 C590.91033,109.548 593.060544,111.264636 595.566355,111.264636 C597.5003,111.264636 598.862379,110.474422 600.00611,109.275584 L601.313083,110.447388 C599.897976,112.026777 598.181339,113.089407 595.511248,113.089407 C591.644398,113.089407 588.486661,110.119865 588.486661,105.762251 L588.486661,105.762251 Z" id="Fill-44" fill="#A4A9AD" mask="url(#mask-4)"></path>
            <path d="M604.852306,107.424508 L604.852306,98.6822446 L606.949492,98.6822446 L606.949492,106.906709 C606.949492,109.521694 608.366679,111.15515 610.844416,111.15515 C613.242092,111.15515 615.066862,109.384446 615.066862,106.743468 L615.066862,98.6822446 L617.134936,98.6822446 L617.134936,112.761572 L615.066862,112.761572 L615.066862,110.310869 C614.113407,111.83619 612.669187,113.062061 610.244477,113.062061 C606.840318,113.062061 604.852306,110.77356 604.852306,107.424508" id="Fill-45" fill="#A4A9AD" mask="url(#mask-4)"></path>
            <path d="M621.439419,98.6819327 L623.536606,98.6819327 L623.536606,101.050495 C624.463028,99.6613823 625.714893,98.3824832 628.084495,98.3824832 C630.370917,98.3824832 631.842171,99.607315 632.605352,101.186703 C633.613914,99.6353884 635.111162,98.3824832 637.561865,98.3824832 C640.802783,98.3824832 642.790795,100.560771 642.790795,104.04707 L642.790795,112.7623 L640.694648,112.7623 L640.694648,104.536795 C640.694648,101.813676 639.331529,100.289394 637.044067,100.289394 C634.920887,100.289394 633.178257,101.867743 633.178257,104.645969 L633.178257,112.7623 L631.078991,112.7623 L631.078991,104.482728 C631.078991,101.840709 629.691957,100.289394 627.458563,100.289394 C625.224128,100.289394 623.536606,102.140159 623.536606,104.72811 L623.536606,112.7623 L621.439419,112.7623 L621.439419,98.6819327 Z" id="Fill-46" fill="#A4A9AD" mask="url(#mask-4)"></path>
            <path d="M645.757529,110.964771 L646.821199,109.466483 C648.34548,110.611254 650.035083,111.26422 651.696612,111.26422 C653.384135,111.26422 654.610006,110.392905 654.610006,109.030826 L654.610006,108.976758 C654.610006,107.560612 652.948477,107.01578 651.096673,106.497982 C648.889272,105.872049 646.438569,105.108869 646.438569,102.521957 L646.438569,102.46789 C646.438569,100.04318 648.453615,98.4367584 651.231841,98.4367584 C652.948477,98.4367584 654.855388,99.0356575 656.297529,99.9891131 L655.344073,101.568502 C654.037101,100.72422 652.538813,100.207462 651.178813,100.207462 C649.517284,100.207462 648.453615,101.078777 648.453615,102.249541 L648.453615,102.303609 C648.453615,103.638654 650.197284,104.155413 652.077162,104.728318 C654.25545,105.382324 656.598018,106.225566 656.598018,108.75841 L656.598018,108.812477 C656.598018,111.482569 654.392697,113.033884 651.586398,113.033884 C649.571352,113.033884 647.338997,112.244709 645.757529,110.964771" id="Fill-47" fill="#A4A9AD" mask="url(#mask-4)"></path>
            <polygon id="Fill-48" fill="#A4A9AD" mask="url(#mask-4)" points="49.9516147 208.787346 38.6401162 212.641719 37.4683119 209.206367 50.8717982 204.26337 54.2229297 204.26337 54.2229297 263.328752 49.9516147 263.328752"></polygon>
            <path d="M64.9511254,260.061529 L86.8182202,240.289541 C96.4515535,231.492171 99.802685,226.464954 99.802685,220.264893 C99.802685,212.641407 93.6036636,207.69841 86.5665994,207.69841 C79.109474,207.69841 74.2506972,211.551743 69.3908807,218.589847 L66.1229297,216.41156 C71.2333272,208.619633 76.6795657,203.845076 86.984581,203.845076 C96.9547951,203.845076 104.41192,210.79792 104.41192,219.931131 L104.41192,220.097492 C104.41192,228.14 100.054306,233.502018 89.7503303,242.88581 L71.820789,259.140306 L104.997303,259.140306 L104.997303,263.32844 L64.9511254,263.32844 L64.9511254,260.061529 Z" id="Fill-49" fill="#A4A9AD" mask="url(#mask-4)"></path>
            <path d="M157.786098,234.173284 L157.786098,234.005884 C157.786098,220.348697 150.079431,207.613774 137.92989,207.613774 C125.782428,207.613774 118.241083,220.181297 118.241083,233.837443 L118.241083,234.005884 C118.241083,247.57781 125.949829,260.395914 138.097291,260.395914 C150.247872,260.395914 157.786098,247.745211 157.786098,234.173284 M113.718147,234.173284 L113.718147,234.005884 C113.718147,217.835609 123.186159,203.67726 138.097291,203.67726 C153.011541,203.67726 162.311113,217.668208 162.311113,233.837443 L162.311113,234.005884 C162.311113,250.175119 152.843101,264.334508 137.92989,264.334508 C123.018758,264.334508 113.718147,250.34252 113.718147,234.173284" id="Fill-50" fill="#A4A9AD" mask="url(#mask-4)"></path>
            <polygon id="Fill-51" fill="#A4A9AD" mask="url(#mask-4)" points="53.9469786 296.335058 56.0992722 296.335058 56.0992722 304.805945 67.1009235 304.805945 67.1009235 296.335058 69.2532171 296.335058 69.2532171 315.400012 67.1009235 315.400012 67.1009235 306.820991 56.0992722 306.820991 56.0992722 315.400012 53.9469786 315.400012"></polygon>
            <path d="M74.0711315,315.399388 L76.168318,315.399388 L76.168318,301.319021 L74.0711315,301.319021 L74.0711315,315.399388 Z M73.9359633,298.241346 L76.3315596,298.241346 L76.3315596,295.92685 L73.9359633,295.92685 L73.9359633,298.241346 Z" id="Fill-52" fill="#A4A9AD" mask="url(#mask-4)"></path>
            <path d="M79.4638226,313.602379 L80.5274924,312.104092 C82.0517737,313.248862 83.7392966,313.901829 85.4029052,313.901829 C87.0904281,313.901829 88.3162997,313.030514 88.3162997,311.668434 L88.3162997,311.614367 C88.3162997,310.19822 86.6547706,309.653388 84.8029664,309.13559 C82.5955657,308.509657 80.1448624,307.746477 80.1448624,305.159566 L80.1448624,305.105498 C80.1448624,302.680789 82.1599083,301.074367 84.9381346,301.074367 C86.6547706,301.074367 88.561682,301.673266 90.0038226,302.626722 L89.050367,304.20611 C87.7433945,303.361829 86.245107,302.84507 84.885107,302.84507 C83.223578,302.84507 82.1599083,303.716385 82.1599083,304.88715 L82.1599083,304.941217 C82.1599083,306.276263 83.903578,306.793021 85.7834557,307.365927 C87.9617431,308.019933 90.3043119,308.863174 90.3043119,311.396018 L90.3043119,311.450086 C90.3043119,314.120177 88.0969113,315.671492 85.2926911,315.671492 C83.2776453,315.671492 81.0452905,314.882318 79.4638226,313.602379" id="Fill-53" fill="#A4A9AD" mask="url(#mask-4)"></path>
            <path d="M94.2507034,311.668018 L94.2507034,303.171138 L92.2907645,303.171138 L92.2907645,301.319333 L94.2507034,301.319333 L94.2507034,297.070893 L96.3478899,297.070893 L96.3478899,301.319333 L100.815719,301.319333 L100.815719,303.171138 L96.3478899,303.171138 L96.3478899,311.395602 C96.3478899,313.112239 97.3013456,313.738171 98.7185321,313.738171 C99.4266055,313.738171 100.025505,313.601963 100.760612,313.248446 L100.760612,315.045144 C100.025505,315.426734 99.2342508,315.645083 98.2277676,315.645083 C95.9673394,315.645083 94.2507034,314.528385 94.2507034,311.668018" id="Fill-54" fill="#A4A9AD" mask="url(#mask-4)"></path>
            <path d="M115.356905,308.427621 L115.356905,308.373554 C115.356905,305.349945 113.096477,302.871168 110.127976,302.871168 C107.077333,302.871168 104.981187,305.349945 104.981187,308.319486 L104.981187,308.373554 C104.981187,311.396122 107.212502,313.846826 110.181003,313.846826 C113.231645,313.846826 115.356905,311.396122 115.356905,308.427621 M102.828893,308.427621 L102.828893,308.373554 C102.828893,304.397529 105.932563,301.020404 110.181003,301.020404 C114.40345,301.020404 117.507119,304.342422 117.507119,308.319486 L117.507119,308.373554 C117.507119,312.349578 114.375376,315.726703 110.127976,315.726703 C105.905529,315.726703 102.828893,312.403645 102.828893,308.427621" id="Fill-55" fill="#A4A9AD" mask="url(#mask-4)"></path>
            <path d="M120.886636,301.319541 L122.983823,301.319541 L122.983823,304.996116 C124.018379,302.654587 126.060459,300.966024 128.73055,301.074159 L128.73055,303.334587 L128.566269,303.334587 C125.489633,303.334587 122.983823,305.540948 122.983823,309.789388 L122.983823,315.399908 L120.886636,315.399908 L120.886636,301.319541 Z" id="Fill-56" fill="#A4A9AD" mask="url(#mask-4)"></path>
            <path d="M131.696453,315.399388 L133.793639,315.399388 L133.793639,301.319021 L131.696453,301.319021 L131.696453,315.399388 Z M131.561284,298.241346 L133.956881,298.241346 L133.956881,295.92685 L131.561284,295.92685 L131.561284,298.241346 Z" id="Fill-57" fill="#A4A9AD" mask="url(#mask-4)"></path>
            <path d="M137.387761,308.427621 L137.387761,308.373554 C137.387761,304.397529 140.493511,301.020404 144.605743,301.020404 C147.272716,301.020404 148.934245,302.137101 150.241217,303.526214 L148.852104,304.995388 C147.737486,303.824624 146.483541,302.871168 144.57663,302.871168 C141.718343,302.871168 139.540055,305.295878 139.540055,308.319486 L139.540055,308.373554 C139.540055,311.423156 141.77137,313.846826 144.713878,313.846826 C146.511615,313.846826 147.898648,312.948477 149.016385,311.749639 L150.351431,313.002544 C148.934245,314.581933 147.246722,315.726703 144.605743,315.726703 C140.493511,315.726703 137.387761,312.376612 137.387761,308.427621" id="Fill-58" fill="#A4A9AD" mask="url(#mask-4)"></path>
            <path d="M55.9763731,339.82293 L55.9763731,339.768862 C55.9763731,336.446844 53.6889113,334.321584 51.0198593,334.321584 C48.4048746,334.321584 45.9271376,336.527945 45.9271376,339.741829 L45.9271376,339.795896 C45.9271376,343.064887 48.4048746,345.243174 51.0198593,345.243174 C53.7440183,345.243174 55.9763731,343.228128 55.9763731,339.82293 M46.0092783,344.126477 L46.0092783,346.822563 L43.9120917,346.822563 L43.9120917,326.941401 L46.0092783,326.941401 L46.0092783,335.574489 C47.1530092,333.885927 48.8145382,332.442746 51.4024893,332.442746 C54.7796147,332.442746 58.1286667,335.111798 58.1286667,339.741829 L58.1286667,339.795896 C58.1286667,344.397853 54.8066483,347.122012 51.4024893,347.122012 C48.7875046,347.122012 47.0979021,345.705865 46.0092783,344.126477" id="Fill-59" fill="#A4A9AD" mask="url(#mask-4)"></path>
            <path d="M61.3669847,341.485187 L61.3669847,332.742924 L63.4641713,332.742924 L63.4641713,340.967388 C63.4641713,343.582373 64.8813578,345.215829 67.3590948,345.215829 C69.7567706,345.215829 71.5815413,343.445125 71.5815413,340.804147 L71.5815413,332.742924 L73.6496147,332.742924 L73.6496147,346.822251 L71.5815413,346.822251 L71.5815413,344.371547 C70.6280856,345.896869 69.1838654,347.12274 66.759156,347.12274 C63.3549969,347.12274 61.3669847,344.834239 61.3669847,341.485187" id="Fill-60" fill="#A4A9AD" mask="url(#mask-4)"></path>
            <path d="M78.1438532,346.822875 L80.2410398,346.822875 L80.2410398,332.742508 L78.1438532,332.742508 L78.1438532,346.822875 Z M78.0076453,329.664832 L80.4053211,329.664832 L80.4053211,327.350336 L78.0076453,327.350336 L78.0076453,329.664832 Z" id="Fill-61" fill="#A4A9AD" mask="url(#mask-4)"></path>
            <polygon id="Fill-62" fill="#A4A9AD" mask="url(#mask-4)" points="84.8970642 346.822875 86.9942508 346.822875 86.9942508 326.941713 84.8970642 326.941713"></polygon>
            <path d="M102.84293,339.796416 L102.84293,339.742349 C102.84293,336.500391 100.365193,334.322104 97.7512477,334.322104 C95.0281284,334.322104 92.7936942,336.33715 92.7936942,339.742349 L92.7936942,339.796416 C92.7936942,343.118434 95.1102691,345.243694 97.7512477,345.243694 C100.365193,345.243694 102.84293,343.037333 102.84293,339.796416 M90.6424404,339.82345 L90.6424404,339.768343 C90.6424404,335.165346 93.9925321,332.443266 97.3706972,332.443266 C99.9846422,332.443266 101.673205,333.858373 102.762869,335.438801 L102.762869,326.94192 L104.860055,326.94192 L104.860055,346.823083 L102.762869,346.823083 L102.762869,343.989749 C101.617058,345.679352 99.9565688,347.122532 97.3706972,347.122532 C93.9925321,347.122532 90.6424404,344.45348 90.6424404,339.82345" id="Fill-63" fill="#A4A9AD" mask="url(#mask-4)"></path>
            <path d="M109.326116,346.822875 L111.423303,346.822875 L111.423303,332.742508 L109.326116,332.742508 L109.326116,346.822875 Z M109.188869,329.664832 L111.586544,329.664832 L111.586544,327.350336 L109.188869,327.350336 L109.188869,329.664832 Z" id="Fill-64" fill="#A4A9AD" mask="url(#mask-4)"></path>
            <path d="M115.88874,332.742612 L117.985927,332.742612 L117.985927,335.193315 C118.912349,333.667994 120.381523,332.443162 122.805193,332.443162 C126.209352,332.443162 128.198404,334.729584 128.198404,338.079676 L128.198404,346.822979 L126.101217,346.822979 L126.101217,338.597474 C126.101217,335.983529 124.68507,334.350073 122.206294,334.350073 C119.783664,334.350073 117.985927,336.118697 117.985927,338.761755 L117.985927,346.822979 L115.88874,346.822979 L115.88874,332.742612 Z" id="Fill-65" fill="#A4A9AD" mask="url(#mask-4)"></path>
            <path d="M143.639602,339.115168 L143.639602,339.061101 C143.639602,336.17474 141.133792,334.293823 138.4637,334.293823 C135.795688,334.293823 133.588287,336.146667 133.588287,339.033028 L133.588287,339.087095 C133.588287,341.920428 135.849755,343.880367 138.4637,343.880367 C141.133792,343.880367 143.639602,341.947462 143.639602,339.115168 M132.09104,349.273578 L133.044495,347.640122 C134.650917,348.810887 136.448654,349.43682 138.4637,349.43682 C141.56945,349.43682 143.584495,347.721223 143.584495,344.426239 L143.584495,342.764709 C142.358624,344.398165 140.643028,345.733211 138.055076,345.733211 C134.678991,345.733211 131.439113,343.200367 131.439113,339.143242 L131.439113,339.087095 C131.439113,334.975902 134.706024,332.443058 138.055076,332.443058 C140.698135,332.443058 142.411651,333.750031 143.557462,335.275352 L143.557462,332.742508 L145.654648,332.742508 L145.654648,344.372171 C145.654648,346.550459 144.999602,348.211988 143.856911,349.355719 C142.604006,350.608624 140.724128,351.234557 138.490734,351.234557 C136.150245,351.234557 133.970917,350.58055 132.09104,349.273578" id="Fill-66" fill="#A4A9AD" mask="url(#mask-4)"></path>
            <path d="M148.75811,345.025346 L149.82178,343.527058 C151.346061,344.671829 153.033584,345.324795 154.697193,345.324795 C156.384716,345.324795 157.610587,344.45348 157.610587,343.091401 L157.610587,343.037333 C157.610587,341.621187 155.949058,341.076355 154.097254,340.558557 C151.889853,339.932624 149.43915,339.169443 149.43915,336.582532 L149.43915,336.528465 C149.43915,334.103755 151.454196,332.497333 154.232422,332.497333 C155.949058,332.497333 157.855969,333.096232 159.29811,334.049688 L158.344654,335.629076 C157.037682,334.784795 155.539394,334.268037 154.179394,334.268037 C152.517865,334.268037 151.454196,335.139352 151.454196,336.310116 L151.454196,336.364183 C151.454196,337.699229 153.197865,338.215988 155.077743,338.788893 C157.256031,339.442899 159.598599,340.286141 159.598599,342.818985 L159.598599,342.873052 C159.598599,345.543144 157.391199,347.094459 154.586979,347.094459 C152.571933,347.094459 150.339578,346.305284 148.75811,345.025346" id="Fill-67" fill="#A4A9AD" mask="url(#mask-4)"></path>
            <path d="M271.528887,260.061529 L293.395982,240.289541 C303.029315,231.492171 306.380446,226.464954 306.380446,220.264893 C306.380446,212.641407 300.181425,207.69841 293.144361,207.69841 C285.687235,207.69841 280.828459,211.551743 275.968642,218.589847 L272.700691,216.41052 C277.811089,208.619633 283.257327,203.845076 293.562343,203.845076 C303.532557,203.845076 310.989682,210.79792 310.989682,219.931131 L310.989682,220.097492 C310.989682,228.14 306.632067,233.502018 296.328092,242.88581 L278.39855,259.140306 L311.575064,259.140306 L311.575064,263.32844 L271.528887,263.32844 L271.528887,260.061529 Z" id="Fill-68" fill="#A4A9AD" mask="url(#mask-4)"></path>
            <path d="M349.617945,245.231706 L349.617945,210.546508 L321.636049,245.231706 L349.617945,245.231706 Z M349.617945,249.001859 L317.865896,249.001859 L316.358251,245.734948 L349.869566,204.263266 L353.808159,204.263266 L353.808159,245.231706 L363.357272,245.231706 L363.357272,249.001859 L353.808159,249.001859 L353.808159,263.328648 L349.617945,263.328648 L349.617945,249.001859 Z" id="Fill-69" fill="#A4A9AD" mask="url(#mask-4)"></path>
            <path d="M415.393596,234.173284 L415.393596,234.005884 C415.393596,220.348697 407.68693,207.613774 395.537388,207.613774 C383.389927,207.613774 375.848581,220.181297 375.848581,233.837443 L375.848581,234.005884 C375.848581,247.57781 383.557327,260.395914 395.704789,260.395914 C407.85537,260.395914 415.393596,247.745211 415.393596,234.173284 M371.325645,234.173284 L371.325645,234.005884 C371.325645,217.835609 380.793657,203.67726 395.704789,203.67726 C410.61904,203.67726 419.918612,217.668208 419.918612,233.837443 L419.918612,234.005884 C419.918612,250.175119 410.450599,264.334508 395.537388,264.334508 C380.625217,264.334508 371.325645,250.34252 371.325645,234.173284" id="Fill-70" fill="#A4A9AD" mask="url(#mask-4)"></path>
            <polygon id="Fill-71" fill="#A4A9AD" mask="url(#mask-4)" points="297.17674 298.323486 290.776006 298.323486 290.776006 296.335474 305.754722 296.335474 305.754722 298.323486 299.355028 298.323486 299.355028 315.399388 297.17674 315.399388"></polygon>
            <path d="M308.585976,295.518746 L310.683162,295.518746 L310.683162,303.770245 C311.609584,302.244924 313.078758,301.020092 315.502428,301.020092 C318.906587,301.020092 320.895639,303.306514 320.895639,306.656606 L320.895639,315.399908 L318.798453,315.399908 L318.798453,307.174404 C318.798453,304.560459 317.382306,302.925963 314.903529,302.925963 C312.480899,302.925963 310.683162,304.695627 310.683162,307.338685 L310.683162,315.399908 L308.585976,315.399908 L308.585976,295.518746 Z" id="Fill-72" fill="#A4A9AD" mask="url(#mask-4)"></path>
            <path d="M335.27504,307.583651 C335.057731,305.023774 333.587517,302.790379 330.782257,302.790379 C328.331554,302.790379 326.478709,304.833498 326.206294,307.583651 L335.27504,307.583651 Z M324.083113,308.399859 L324.083113,308.345792 C324.083113,304.287627 326.94244,301.019676 330.835284,301.019676 C335.002624,301.019676 337.4003,304.341694 337.4003,308.454966 C337.4003,308.727382 337.4003,308.890624 337.372226,309.134966 L326.206294,309.134966 C326.506783,312.185609 328.656997,313.902245 331.162807,313.902245 C333.096752,313.902245 334.458832,313.112031 335.602563,311.913193 L336.909535,313.084997 C335.494428,314.664385 333.777792,315.727015 331.10978,315.727015 C327.24085,315.727015 324.083113,312.757474 324.083113,308.399859 L324.083113,308.399859 Z" id="Fill-73" fill="#A4A9AD" mask="url(#mask-4)"></path>
            <path d="M349.982171,310.224734 L349.982171,308.863694 C348.946575,308.563205 347.557462,308.263755 345.841865,308.263755 C343.200887,308.263755 341.729633,309.407486 341.729633,311.17819 L341.729633,311.232257 C341.729633,313.00296 343.364128,314.038557 345.27104,314.038557 C347.856911,314.038557 349.982171,312.458128 349.982171,310.224734 M339.606453,311.314398 L339.606453,311.26033 C339.606453,308.291829 342.057156,306.71244 345.624557,306.71244 C347.421254,306.71244 348.701193,306.956783 349.953058,307.3103 L349.953058,306.820575 C349.953058,304.287731 348.402783,302.980758 345.759725,302.980758 C344.098196,302.980758 342.791223,303.416416 341.484251,304.015315 L340.858318,302.299719 C342.410673,301.591645 343.934954,301.127914 345.979113,301.127914 C347.967125,301.127914 349.491407,301.645713 350.525963,302.681309 C351.479419,303.634765 351.970183,304.995804 351.970183,306.792502 L351.970183,315.399596 L349.953058,315.399596 L349.953058,313.275376 C348.973609,314.555315 347.339113,315.699046 344.861376,315.699046 C342.247431,315.699046 339.606453,314.200758 339.606453,311.314398" id="Fill-74" fill="#A4A9AD" mask="url(#mask-4)"></path>
            <path d="M356.626832,311.668018 L356.626832,303.171138 L354.666893,303.171138 L354.666893,301.319333 L356.626832,301.319333 L356.626832,297.070893 L358.724018,297.070893 L358.724018,301.319333 L363.191847,301.319333 L363.191847,303.171138 L358.724018,303.171138 L358.724018,311.395602 C358.724018,313.112239 359.677474,313.738171 361.094661,313.738171 C361.802734,313.738171 362.401633,313.601963 363.13674,313.248446 L363.13674,315.045144 C362.401633,315.426734 361.612459,315.645083 360.603896,315.645083 C358.343468,315.645083 356.626832,314.528385 356.626832,311.668018" id="Fill-75" fill="#A4A9AD" mask="url(#mask-4)"></path>
            <path d="M366.487352,301.319541 L368.584538,301.319541 L368.584538,304.996116 C369.619095,302.654587 371.661174,300.966024 374.331266,301.074159 L374.331266,303.334587 L374.166985,303.334587 C371.090349,303.334587 368.584538,305.540948 368.584538,309.789388 L368.584538,315.399908 L366.487352,315.399908 L366.487352,301.319541 Z" id="Fill-76" fill="#A4A9AD" mask="url(#mask-4)"></path>
            <path d="M386.828502,307.583651 C386.611193,305.023774 385.140979,302.790379 382.335719,302.790379 C379.885015,302.790379 378.032171,304.833498 377.759755,307.583651 L386.828502,307.583651 Z M375.636575,308.399859 L375.636575,308.345792 C375.636575,304.287627 378.495902,301.019676 382.388746,301.019676 C386.556086,301.019676 388.953761,304.341694 388.953761,308.454966 C388.953761,308.727382 388.953761,308.890624 388.925688,309.134966 L377.759755,309.134966 C378.060245,312.185609 380.210459,313.902245 382.716269,313.902245 C384.650214,313.902245 386.012294,313.112031 387.156024,311.913193 L388.462997,313.084997 C387.04789,314.664385 385.331254,315.727015 382.663242,315.727015 C378.794312,315.727015 375.636575,312.757474 375.636575,308.399859 L375.636575,308.399859 Z" id="Fill-77" fill="#A4A9AD" mask="url(#mask-4)"></path>
            <path d="M391.048869,313.602379 L392.112538,312.104092 C393.63682,313.248862 395.326422,313.901829 396.987951,313.901829 C398.675474,313.901829 399.901346,313.030514 399.901346,311.668434 L399.901346,311.614367 C399.901346,310.19822 398.239817,309.653388 396.388012,309.13559 C394.180612,308.509657 391.729908,307.746477 391.729908,305.159566 L391.729908,305.105498 C391.729908,302.680789 393.744954,301.074367 396.52318,301.074367 C398.239817,301.074367 400.146728,301.673266 401.588869,302.626722 L400.635413,304.20611 C399.32844,303.361829 397.830153,302.84507 396.470153,302.84507 C394.808624,302.84507 393.744954,303.716385 393.744954,304.88715 L393.744954,304.941217 C393.744954,306.276263 395.488624,306.793021 397.368502,307.365927 C399.546789,308.019933 401.889358,308.863174 401.889358,311.396018 L401.889358,311.450086 C401.889358,314.120177 399.684037,315.671492 396.877737,315.671492 C394.862691,315.671492 392.630336,314.882318 391.048869,313.602379" id="Fill-78" fill="#A4A9AD" mask="url(#mask-4)"></path>
            <path d="M93.8967706,444.165394 L93.8967706,443.997994 C93.8967706,435.954446 87.2766483,429.922826 77.9770765,429.922826 C68.3427034,429.922826 61.6414801,437.211511 61.6414801,444.417015 L61.6414801,444.584416 C61.6414801,452.961725 68.7627645,459.329187 78.2286972,459.329187 C87.6956697,459.329187 93.8967706,452.459523 93.8967706,444.165394 M62.980685,457.40252 C58.1219083,452.543743 55.5245994,446.678483 55.5245994,434.531021 L55.5245994,434.362581 C55.5245994,416.6857 64.8241713,402.610532 79.402581,402.610532 C86.104844,402.610532 91.2152416,405.207841 96.3245994,409.397015 L93.5609297,412.747107 C89.0359144,408.726373 84.5971988,406.548086 79.0667401,406.548086 C67.2530398,406.548086 59.8822141,418.780807 59.8822141,435.284844 L59.8822141,436.95989 C63.9850887,430.007046 69.8503486,426.069492 78.2286972,426.069492 C88.8685138,426.069492 98.4197064,433.357138 98.4197064,443.830593 L98.4197064,443.997994 C98.4197064,455.056832 89.4549358,463.26778 77.8928563,463.26778 C71.8622752,463.26778 66.5002569,460.921052 62.980685,457.40252" id="Fill-79" fill="#A4A9AD" mask="url(#mask-4)"></path>
            <path d="M106.637829,453.799976 L109.739419,450.700465 C115.017217,455.978263 121.132018,459.329394 127.333119,459.329394 C136.632691,459.329394 143.083333,452.795572 143.083333,444.584624 L143.083333,444.417223 C143.083333,436.290495 136.465291,430.509456 126.997278,430.509456 C121.55104,430.509456 117.446086,432.185541 113.759113,434.195388 L110.407982,432.018141 L112.084067,403.616183 L145.01,403.616183 L145.01,407.805358 L115.937401,407.805358 L114.513976,429.754593 C118.284128,427.912147 122.054281,426.571902 127.50052,426.571902 C138.809939,426.571902 147.606269,433.777407 147.606269,444.248783 L147.606269,444.417223 C147.606269,455.476061 138.977339,463.267988 127.164679,463.267988 C119.205352,463.267988 111.748226,458.995633 106.637829,453.799976" id="Fill-80" fill="#A4A9AD" mask="url(#mask-4)"></path>
            <polygon id="Fill-81" fill="#A4A9AD" mask="url(#mask-4)" points="0 495.268746 2.17828746 495.268746 9.12385321 505.671498 16.0673394 495.268746 18.2466667 495.268746 18.2466667 514.3337 16.0964526 514.3337 16.0964526 498.892294 9.15088685 509.104771 9.04275229 509.104771 2.09718654 498.918287 2.09718654 514.3337 0 514.3337"></polygon>
            <path d="M23.0659327,514.3337 L25.1631193,514.3337 L25.1631193,500.252294 L23.0659327,500.252294 L23.0659327,514.3337 Z M22.9307645,497.174618 L25.3263609,497.174618 L25.3263609,494.859083 L22.9307645,494.859083 L22.9307645,497.174618 Z" id="Fill-82" fill="#A4A9AD" mask="url(#mask-4)"></path>
            <path d="M28.7594251,507.361309 L28.7594251,507.306202 C28.7594251,503.329138 31.8630948,499.954092 35.9774067,499.954092 C38.6443792,499.954092 40.3059083,501.070789 41.6128807,502.457823 L40.2237676,503.928037 C39.1091498,502.758312 37.8552049,501.804856 35.9482936,501.804856 C33.0900061,501.804856 30.9117187,504.229566 30.9117187,507.251095 L30.9117187,507.306202 C30.9117187,510.355804 33.1430336,512.780514 36.0855413,512.780514 C37.8832783,512.780514 39.2723914,511.882165 40.3880489,510.683327 L41.7230948,511.935193 C40.3059083,513.514581 38.6183853,514.658312 35.9774067,514.658312 C31.8630948,514.658312 28.7594251,511.30926 28.7594251,507.361309" id="Fill-83" fill="#A4A9AD" mask="url(#mask-4)"></path>
            <path d="M44.7716575,494.452538 L46.868844,494.452538 L46.868844,502.702997 C47.7952661,501.178716 49.2644404,499.953884 51.6881101,499.953884 C55.0922691,499.953884 57.0813211,502.240306 57.0813211,505.589358 L57.0813211,514.3337 L54.9841346,514.3337 L54.9841346,506.107156 C54.9841346,503.493211 53.5679878,501.859755 51.089211,501.859755 C48.666581,501.859755 46.868844,503.629419 46.868844,506.271437 L46.868844,514.3337 L44.7716575,514.3337 L44.7716575,494.452538 Z" id="Fill-84" fill="#A4A9AD" mask="url(#mask-4)"></path>
            <path d="M71.4587462,506.516404 C71.2414373,503.957566 69.7712232,501.723131 66.9659633,501.723131 C64.5152599,501.723131 62.6624159,503.765211 62.39,506.516404 L71.4587462,506.516404 Z M60.2668196,507.332612 L60.2668196,507.279584 C60.2668196,503.220379 63.1261468,499.953468 67.0189908,499.953468 C71.1863303,499.953468 73.5840061,503.275486 73.5840061,507.387719 C73.5840061,507.660135 73.5840061,507.823376 73.5559327,508.068758 L62.39,508.068758 C62.6904893,511.119401 64.8407034,512.836037 67.3465138,512.836037 C69.2804587,512.836037 70.6425382,512.043743 71.7862691,510.846985 L73.0932416,512.017749 C71.6781346,513.597138 69.9614985,514.658728 67.2914067,514.658728 C63.4245566,514.658728 60.2668196,511.690226 60.2668196,507.332612 L60.2668196,507.332612 Z" id="Fill-85" fill="#A4A9AD" mask="url(#mask-4)"></path>
            <polygon id="Fill-86" fill="#A4A9AD" mask="url(#mask-4)" points="77.043792 514.3337 79.1409786 514.3337 79.1409786 494.452538 77.043792 494.452538"></polygon>
            <path d="M83.7970031,514.3337 L85.8941896,514.3337 L85.8941896,500.252294 L83.7970031,500.252294 L83.7970031,514.3337 Z M83.6618349,497.174618 L86.0574312,497.174618 L86.0574312,494.859083 L83.6618349,494.859083 L83.6618349,497.174618 Z" id="Fill-87" fill="#A4A9AD" mask="url(#mask-4)"></path>
            <path d="M90.3596269,500.252294 L92.4568135,500.252294 L92.4568135,502.702997 C93.3832355,501.178716 94.8524098,499.953884 97.2760795,499.953884 C100.680239,499.953884 102.669291,502.240306 102.669291,505.589358 L102.669291,514.3337 L100.572104,514.3337 L100.572104,506.107156 C100.572104,503.493211 99.1559572,501.859755 96.6771804,501.859755 C94.2545505,501.859755 92.4568135,503.629419 92.4568135,506.271437 L92.4568135,514.3337 L90.3596269,514.3337 L90.3596269,500.252294 Z" id="Fill-88" fill="#A4A9AD" mask="url(#mask-4)"></path>
            <path d="M113.315242,512.535028 L114.378911,511.03778 C115.903193,512.181511 117.592795,512.835517 119.254324,512.835517 C120.941847,512.835517 122.167719,511.964202 122.167719,510.602122 L122.167719,510.547015 C122.167719,509.130869 120.50619,508.587076 118.654385,508.069278 C116.446985,507.443346 113.996281,506.680165 113.996281,504.092214 L113.996281,504.039187 C113.996281,501.614477 116.011327,500.007015 118.789554,500.007015 C120.50619,500.007015 122.413101,500.605914 123.855242,501.55937 L122.901786,503.138758 C121.594813,502.295517 120.096526,501.778758 118.736526,501.778758 C117.074997,501.778758 116.011327,502.650073 116.011327,503.819798 L116.011327,503.874905 C116.011327,505.208911 117.754997,505.726709 119.634875,506.299615 C121.813162,506.952581 124.155731,507.796862 124.155731,510.329706 L124.155731,510.382734 C124.155731,513.052826 121.95041,514.60518 119.14411,514.60518 C117.129064,514.60518 114.896709,513.816006 113.315242,512.535028" id="Fill-89" fill="#A4A9AD" mask="url(#mask-4)"></path>
            <path d="M128.102018,510.60181 L128.102018,502.10389 L126.14208,502.10389 L126.14208,500.252086 L128.102018,500.252086 L128.102018,496.003645 L130.199205,496.003645 L130.199205,500.252086 L134.667034,500.252086 L134.667034,502.10389 L130.199205,502.10389 L130.199205,510.329394 C130.199205,512.043951 131.152661,512.671963 132.569847,512.671963 C133.27792,512.671963 133.87682,512.534716 134.611927,512.181199 L134.611927,513.978936 C133.87682,514.359486 133.087645,514.578875 132.079083,514.578875 C129.818654,514.578875 128.102018,513.462177 128.102018,510.60181" id="Fill-90" fill="#A4A9AD" mask="url(#mask-4)"></path>
            <path d="M147.276979,509.157486 L147.276979,507.797486 C146.241382,507.495957 144.852269,507.197547 143.136673,507.197547 C140.495694,507.197547 139.02444,508.341278 139.02444,510.110942 L139.02444,510.166049 C139.02444,511.935713 140.658936,512.971309 142.565847,512.971309 C145.151719,512.971309 147.276979,511.39192 147.276979,509.157486 M136.90126,510.24819 L136.90126,510.193083 C136.90126,507.224581 139.351963,505.645193 142.919364,505.645193 C144.716061,505.645193 145.996,505.890575 147.247865,506.244092 L147.247865,505.753327 C147.247865,503.220483 145.69759,501.913511 143.054532,501.913511 C141.393003,501.913511 140.086031,502.349168 138.779058,502.948067 L138.153125,501.232471 C139.70548,500.524398 141.229761,500.061706 143.27392,500.061706 C145.261933,500.061706 146.786214,500.579505 147.820771,501.615101 C148.774226,502.568557 149.264991,503.928557 149.264991,505.726294 L149.264991,514.333388 L147.247865,514.333388 L147.247865,512.208128 C146.268416,513.488067 144.63392,514.631798 142.156183,514.631798 C139.542239,514.631798 136.90126,513.13455 136.90126,510.24819" id="Fill-91" fill="#A4A9AD" mask="url(#mask-4)"></path>
            <path d="M153.32222,500.252294 L155.419407,500.252294 L155.419407,503.928869 C156.453963,501.5863 158.496043,499.898777 161.166135,500.006911 L161.166135,502.267339 L161.001853,502.267339 C157.925217,502.267339 155.419407,504.47474 155.419407,508.722141 L155.419407,514.3337 L153.32222,514.3337 L153.32222,500.252294 Z" id="Fill-92" fill="#A4A9AD" mask="url(#mask-4)"></path>
            <path d="M163.941865,500.252294 L166.039052,500.252294 L166.039052,503.928869 C167.073609,501.5863 169.115688,499.898777 171.78578,500.006911 L171.78578,502.267339 L171.621498,502.267339 C168.544862,502.267339 166.039052,504.47474 166.039052,508.722141 L166.039052,514.3337 L163.941865,514.3337 L163.941865,500.252294 Z" id="Fill-93" fill="#A4A9AD" mask="url(#mask-4)"></path>
            <path d="M184.282911,506.516404 C184.065602,503.957566 182.595388,501.723131 179.790128,501.723131 C177.339425,501.723131 175.486581,503.765211 175.214165,506.516404 L184.282911,506.516404 Z M173.090985,507.332612 L173.090985,507.279584 C173.090985,503.220379 175.950312,499.953468 179.843156,499.953468 C184.010495,499.953468 186.408171,503.275486 186.408171,507.387719 C186.408171,507.660135 186.408171,507.823376 186.380098,508.068758 L175.214165,508.068758 C175.514654,511.119401 177.664869,512.836037 180.170679,512.836037 C182.104624,512.836037 183.466703,512.043743 184.610434,510.846985 L185.917407,512.017749 C184.5023,513.597138 182.785664,514.658728 180.115572,514.658728 C176.248722,514.658728 173.090985,511.690226 173.090985,507.332612 L173.090985,507.332612 Z" id="Fill-94" fill="#A4A9AD" mask="url(#mask-4)"></path>
            <path d="M201.0603,507.306098 L201.0603,507.250991 C201.0603,504.010073 198.582563,501.831786 195.968618,501.831786 C193.245498,501.831786 191.011064,503.846832 191.011064,507.250991 L191.011064,507.306098 C191.011064,510.628116 193.327639,512.754416 195.968618,512.754416 C198.582563,512.754416 201.0603,510.547015 201.0603,507.306098 M188.85981,507.333131 L188.85981,507.279064 C188.85981,502.676067 192.209902,499.953988 195.588067,499.953988 C198.202012,499.953988 199.890575,501.369095 200.980239,502.948483 L200.980239,494.452642 L203.077425,494.452642 L203.077425,514.333804 L200.980239,514.333804 L200.980239,511.499431 C199.834428,513.190073 198.173939,514.632214 195.588067,514.632214 C192.209902,514.632214 188.85981,511.964202 188.85981,507.333131" id="Fill-95" fill="#A4A9AD" mask="url(#mask-4)"></path>
            <path d="M30.3223853,531.67526 L32.4195719,531.67526 L32.4195719,535.351835 C33.4541284,533.009266 35.496208,531.321743 38.1662997,531.429878 L38.1662997,533.690306 L38.0020183,533.690306 C34.9253823,533.690306 32.4195719,535.897706 32.4195719,540.145107 L32.4195719,545.756667 L30.3223853,545.756667 L30.3223853,531.67526 Z" id="Fill-96" fill="#A4A9AD" mask="url(#mask-4)"></path>
            <path d="M50.6635352,537.939474 C50.4462263,535.380636 48.9760122,533.146202 46.1707523,533.146202 C43.7200489,533.146202 41.8672049,535.188281 41.594789,537.939474 L50.6635352,537.939474 Z M39.4716086,538.755682 L39.4716086,538.702654 C39.4716086,534.64345 42.3309358,531.376538 46.2237798,531.376538 C50.3911193,531.376538 52.7887951,534.698557 52.7887951,538.810789 C52.7887951,539.083205 52.7887951,539.246446 52.7607217,539.491829 L41.594789,539.491829 C41.8952783,542.542471 44.0454924,544.259107 46.5513028,544.259107 C48.4852477,544.259107 49.8473272,543.466813 50.9910581,542.270055 L52.2980306,543.44082 C50.8829235,545.020208 49.1662875,546.081798 46.4982752,546.081798 C42.6293456,546.081798 39.4716086,543.113297 39.4716086,538.755682 L39.4716086,538.755682 Z" id="Fill-97" fill="#A4A9AD" mask="url(#mask-4)"></path>
            <path d="M54.8859817,543.958098 L55.9496514,542.46085 C57.4739327,543.604581 59.1614557,544.258587 60.8250642,544.258587 C62.5125872,544.258587 63.7384587,543.387272 63.7384587,542.025193 L63.7384587,541.970086 C63.7384587,540.553939 62.0769297,540.010147 60.2251254,539.492349 C58.0177248,538.866416 55.5670214,538.103235 55.5670214,535.515284 L55.5670214,535.462257 C55.5670214,533.037547 57.5820673,531.430086 60.3602936,531.430086 C62.0769297,531.430086 63.983841,532.028985 65.4259817,532.98244 L64.472526,534.561829 C63.1655535,533.718587 61.6672661,533.201829 60.3072661,533.201829 C58.645737,533.201829 57.5820673,534.073144 57.5820673,535.242869 L57.5820673,535.297976 C57.5820673,536.631982 59.325737,537.14978 61.2056147,537.722685 C63.3839021,538.375651 65.7264709,539.219933 65.7264709,541.752777 L65.7264709,541.805804 C65.7264709,544.475896 63.5190703,546.028251 60.7148502,546.028251 C58.6998043,546.028251 56.4674495,545.239076 54.8859817,543.958098" id="Fill-98" fill="#A4A9AD" mask="url(#mask-4)"></path>
            <path d="M69.6727584,542.024777 L69.6727584,533.526856 L67.7128196,533.526856 L67.7128196,531.675052 L69.6727584,531.675052 L69.6727584,527.426612 L71.769945,527.426612 L71.769945,531.675052 L76.2377737,531.675052 L76.2377737,533.526856 L71.769945,533.526856 L71.769945,541.752361 C71.769945,543.466917 72.7234006,544.09493 74.1405872,544.09493 C74.8486606,544.09493 75.4475596,543.957682 76.1826667,543.604165 L76.1826667,545.401902 C75.4475596,545.782453 74.6563058,546.001841 73.6498226,546.001841 C71.3893945,546.001841 69.6727584,544.885144 69.6727584,542.024777" id="Fill-99" fill="#A4A9AD" mask="url(#mask-4)"></path>
            <path d="M88.8457431,540.580557 L88.8457431,539.220557 C87.8101468,538.919028 86.4210336,538.620618 84.7054373,538.620618 C82.0644587,538.620618 80.5932049,539.764349 80.5932049,541.534012 L80.5932049,541.589119 C80.5932049,543.358783 82.2277003,544.394379 84.1346116,544.394379 C86.7204832,544.394379 88.8457431,542.814991 88.8457431,540.580557 M78.4700245,541.67126 L78.4700245,541.616153 C78.4700245,538.647651 80.9207278,537.068263 84.4881284,537.068263 C86.2848257,537.068263 87.5647645,537.313645 88.81663,537.667162 L88.81663,537.176398 C88.81663,534.643554 87.2663547,533.336581 84.6232966,533.336581 C82.9617676,533.336581 81.6547951,533.772239 80.3478226,534.371138 L79.7218899,532.655541 C81.2742446,531.947468 82.798526,531.484777 84.842685,531.484777 C86.8306972,531.484777 88.3549786,532.002575 89.3895352,533.038171 C90.3429908,533.991627 90.8337554,535.351627 90.8337554,537.149364 L90.8337554,545.756459 L88.81663,545.756459 L88.81663,543.631199 C87.8371804,544.911138 86.202685,546.054869 83.724948,546.054869 C81.1110031,546.054869 78.4700245,544.557621 78.4700245,541.67126" id="Fill-100" fill="#A4A9AD" mask="url(#mask-4)"></path>
            <path d="M94.6740917,540.416795 L94.6740917,531.675572 L96.7712783,531.675572 L96.7712783,539.901076 C96.7712783,542.516061 98.1884648,544.148477 100.666202,544.148477 C103.063878,544.148477 104.888648,542.378813 104.888648,539.737835 L104.888648,531.675572 L106.956722,531.675572 L106.956722,545.755939 L104.888648,545.755939 L104.888648,543.305235 C103.935193,544.829517 102.490972,546.055388 100.066263,546.055388 C96.662104,546.055388 94.6740917,543.767927 94.6740917,540.416795" id="Fill-101" fill="#A4A9AD" mask="url(#mask-4)"></path>
            <path d="M111.259229,531.67526 L113.356416,531.67526 L113.356416,535.351835 C114.390972,533.009266 116.433052,531.321743 119.103144,531.429878 L119.103144,533.690306 L118.938862,533.690306 C115.862226,533.690306 113.356416,535.897706 113.356416,540.145107 L113.356416,545.756667 L111.259229,545.756667 L111.259229,531.67526 Z" id="Fill-102" fill="#A4A9AD" mask="url(#mask-4)"></path>
            <path d="M130.513939,540.580557 L130.513939,539.220557 C129.478343,538.919028 128.089229,538.620618 126.373633,538.620618 C123.732654,538.620618 122.261401,539.764349 122.261401,541.534012 L122.261401,541.589119 C122.261401,543.358783 123.895896,544.394379 125.802807,544.394379 C128.388679,544.394379 130.513939,542.814991 130.513939,540.580557 M120.13822,541.67126 L120.13822,541.616153 C120.13822,538.647651 122.588924,537.068263 126.156324,537.068263 C127.953021,537.068263 129.23296,537.313645 130.484826,537.667162 L130.484826,537.176398 C130.484826,534.643554 128.93455,533.336581 126.291492,533.336581 C124.629963,533.336581 123.322991,533.772239 122.016018,534.371138 L121.390086,532.655541 C122.94244,531.947468 124.466722,531.484777 126.510881,531.484777 C128.498893,531.484777 130.023174,532.002575 131.057731,533.038171 C132.011187,533.991627 132.501951,535.351627 132.501951,537.149364 L132.501951,545.756459 L130.484826,545.756459 L130.484826,543.631199 C129.505376,544.911138 127.870881,546.054869 125.393144,546.054869 C122.779199,546.054869 120.13822,544.557621 120.13822,541.67126" id="Fill-103" fill="#A4A9AD" mask="url(#mask-4)"></path>
            <path d="M136.56126,531.67526 L138.658446,531.67526 L138.658446,534.125963 C139.584869,532.601682 141.054043,531.37685 143.477713,531.37685 C146.881872,531.37685 148.870924,533.663272 148.870924,537.012324 L148.870924,545.756667 L146.773737,545.756667 L146.773737,537.530122 C146.773737,534.916177 145.35759,533.282722 142.878813,533.282722 C140.456183,533.282722 138.658446,535.052385 138.658446,537.694404 L138.658446,545.756667 L136.56126,545.756667 L136.56126,531.67526 Z" id="Fill-104" fill="#A4A9AD" mask="url(#mask-4)"></path>
            <path d="M153.661908,542.024777 L153.661908,533.526856 L151.701969,533.526856 L151.701969,531.675052 L153.661908,531.675052 L153.661908,527.426612 L155.759095,527.426612 L155.759095,531.675052 L160.226924,531.675052 L160.226924,533.526856 L155.759095,533.526856 L155.759095,541.752361 C155.759095,543.466917 156.71255,544.09493 158.129737,544.09493 C158.83781,544.09493 159.436709,543.957682 160.171817,543.604165 L160.171817,545.401902 C159.436709,545.782453 158.647535,546.001841 157.638972,546.001841 C155.378544,546.001841 153.661908,544.885144 153.661908,542.024777" id="Fill-105" fill="#A4A9AD" mask="url(#mask-4)"></path>
            <path d="M162.348232,543.958098 L163.411902,542.46085 C164.936183,543.604581 166.625786,544.258587 168.287315,544.258587 C169.974838,544.258587 171.200709,543.387272 171.200709,542.025193 L171.200709,541.970086 C171.200709,540.553939 169.53918,540.010147 167.687376,539.492349 C165.479976,538.866416 163.029272,538.103235 163.029272,535.515284 L163.029272,535.462257 C163.029272,533.037547 165.044318,531.430086 167.822544,531.430086 C169.53918,531.430086 171.446092,532.028985 172.888232,532.98244 L171.934777,534.561829 C170.627804,533.718587 169.129517,533.201829 167.769517,533.201829 C166.107988,533.201829 165.044318,534.073144 165.044318,535.242869 L165.044318,535.297976 C165.044318,536.631982 166.787988,537.14978 168.667865,537.722685 C170.846153,538.375651 173.188722,539.219933 173.188722,541.752777 L173.188722,541.805804 C173.188722,544.475896 170.983401,546.028251 168.177101,546.028251 C166.162055,546.028251 163.9297,545.239076 162.348232,543.958098" id="Fill-106" fill="#A4A9AD" mask="url(#mask-4)"></path>
            <path d="M332.775156,418.277254 L332.775156,418.109853 C332.775156,411.49181 326.070813,406.715174 317.526104,406.715174 C308.980355,406.715174 302.279131,411.49181 302.279131,418.109853 L302.279131,418.277254 C302.279131,425.482758 309.231976,430.342575 317.526104,430.342575 C325.821272,430.342575 332.775156,425.482758 332.775156,418.277254 M334.786043,446.762391 L334.786043,446.596031 C334.786043,439.306306 327.077297,434.028508 317.526104,434.028508 C307.975951,434.028508 300.268245,439.306306 300.268245,446.596031 L300.268245,446.762391 C300.268245,453.381474 306.717847,459.161474 317.526104,459.161474 C328.333321,459.161474 334.786043,453.381474 334.786043,446.762391 M295.74219,446.596031 L295.74219,446.42759 C295.74219,439.556887 301.355829,434.363309 308.728734,431.933401 C302.947694,429.588752 297.754116,425.231138 297.754116,418.277254 L297.754116,418.109853 C297.754116,408.978722 307.389529,402.778661 317.526104,402.778661 C327.664758,402.778661 337.298092,408.978722 337.298092,418.109853 L337.298092,418.277254 C337.298092,425.231138 332.104514,429.588752 326.322434,431.933401 C333.695339,434.363309 339.308979,439.556887 339.308979,446.42759 L339.308979,446.596031 C339.308979,456.314624 329.842006,463.100067 317.526104,463.100067 C305.210202,463.100067 295.74219,456.314624 295.74219,446.596031" id="Fill-107" fill="#A4A9AD" mask="url(#mask-4)"></path>
            <polygon id="Fill-108" fill="#A4A9AD" mask="url(#mask-4)" points="350.542703 403.616183 354.900318 403.616183 354.900318 442.154716 392.266006 403.616183 398.213407 403.616183 372.577199 429.504012 399.30411 462.262544 393.606251 462.262544 369.478728 432.603523 354.900318 447.349333 354.900318 462.262544 350.542703 462.262544"></polygon>
            <path d="M279.270073,504.99233 C282.13044,504.99233 284.17148,503.521076 284.17148,501.070373 L284.17148,501.015266 C284.17148,498.672697 282.373743,497.25759 279.297107,497.25759 L273.415211,497.25759 L273.415211,504.99233 L279.270073,504.99233 Z M271.262917,495.268538 L279.460349,495.268538 C281.802917,495.268538 283.680716,495.976612 284.879554,497.17545 C285.805976,498.099792 286.350807,499.435878 286.350807,500.933125 L286.350807,500.989272 C286.350807,504.147009 284.17148,505.998813 281.176985,506.542606 L287.031847,514.333492 L284.390869,514.333492 L278.86041,506.925235 L273.415211,506.925235 L273.415211,514.333492 L271.262917,514.333492 L271.262917,495.268538 Z" id="Fill-109" fill="#A4A9AD" mask="url(#mask-4)"></path>
            <path d="M300.237156,506.516404 C300.019847,503.957566 298.549633,501.723131 295.744373,501.723131 C293.29367,501.723131 291.440826,503.765211 291.16841,506.516404 L300.237156,506.516404 Z M289.045229,507.332612 L289.045229,507.279584 C289.045229,503.220379 291.904557,499.953468 295.797401,499.953468 C299.96474,499.953468 302.362416,503.275486 302.362416,507.387719 C302.362416,507.660135 302.362416,507.823376 302.334343,508.068758 L291.16841,508.068758 C291.468899,511.119401 293.619113,512.836037 296.124924,512.836037 C298.058869,512.836037 299.420948,512.043743 300.564679,510.846985 L301.871651,512.017749 C300.456544,513.597138 298.739908,514.658728 296.069817,514.658728 C292.202966,514.658728 289.045229,511.690226 289.045229,507.332612 L289.045229,507.332612 Z" id="Fill-110" fill="#A4A9AD" mask="url(#mask-4)"></path>
            <path d="M304.459706,512.535028 L305.523376,511.03778 C307.047657,512.181511 308.73726,512.835517 310.398789,512.835517 C312.086312,512.835517 313.312183,511.964202 313.312183,510.602122 L313.312183,510.547015 C313.312183,509.130869 311.650654,508.587076 309.79885,508.069278 C307.59145,507.443346 305.140746,506.680165 305.140746,504.092214 L305.140746,504.039187 C305.140746,501.614477 307.155792,500.007015 309.934018,500.007015 C311.650654,500.007015 313.557566,500.605914 314.999706,501.55937 L314.046251,503.138758 C312.739278,502.295517 311.240991,501.778758 309.880991,501.778758 C308.219462,501.778758 307.155792,502.650073 307.155792,503.819798 L307.155792,503.874905 C307.155792,505.208911 308.899462,505.726709 310.779339,506.299615 C312.957627,506.952581 315.300196,507.796862 315.300196,510.329706 L315.300196,510.382734 C315.300196,513.052826 313.094875,514.60518 310.288575,514.60518 C308.273529,514.60518 306.041174,513.816006 304.459706,512.535028" id="Fill-111" fill="#A4A9AD" mask="url(#mask-4)"></path>
            <path d="M319.246483,510.60181 L319.246483,502.10389 L317.286544,502.10389 L317.286544,500.252086 L319.246483,500.252086 L319.246483,496.003645 L321.34367,496.003645 L321.34367,500.252086 L325.811498,500.252086 L325.811498,502.10389 L321.34367,502.10389 L321.34367,510.329394 C321.34367,512.043951 322.297125,512.671963 323.714312,512.671963 C324.422385,512.671963 325.021284,512.534716 325.756391,512.181199 L325.756391,513.978936 C325.021284,514.359486 324.23211,514.578875 323.223547,514.578875 C320.963119,514.578875 319.246483,513.462177 319.246483,510.60181" id="Fill-112" fill="#A4A9AD" mask="url(#mask-4)"></path>
            <path d="M338.419468,509.157486 L338.419468,507.797486 C337.383872,507.495957 335.994758,507.197547 334.279162,507.197547 C331.638183,507.197547 330.16693,508.341278 330.16693,510.110942 L330.16693,510.166049 C330.16693,511.935713 331.801425,512.971309 333.708336,512.971309 C336.294208,512.971309 338.419468,511.39192 338.419468,509.157486 M328.043749,510.24819 L328.043749,510.193083 C328.043749,507.224581 330.494453,505.645193 334.061853,505.645193 C335.85855,505.645193 337.138489,505.890575 338.390355,506.244092 L338.390355,505.753327 C338.390355,503.220483 336.84008,501.913511 334.197021,501.913511 C332.535492,501.913511 331.22852,502.349168 329.921547,502.948067 L329.295615,501.232471 C330.847969,500.524398 332.372251,500.061706 334.41641,500.061706 C336.404422,500.061706 337.928703,500.579505 338.96326,501.615101 C339.916716,502.568557 340.40748,503.928557 340.40748,505.726294 L340.40748,514.333388 L338.390355,514.333388 L338.390355,512.208128 C337.410905,513.488067 335.77641,514.631798 333.298673,514.631798 C330.684728,514.631798 328.043749,513.13455 328.043749,510.24819" id="Fill-113" fill="#A4A9AD" mask="url(#mask-4)"></path>
            <path d="M344.247817,508.993829 L344.247817,500.252606 L346.345003,500.252606 L346.345003,508.47811 C346.345003,511.093095 347.76219,512.725511 350.239927,512.725511 C352.637602,512.725511 354.462373,510.955847 354.462373,508.314869 L354.462373,500.252606 L356.530446,500.252606 L356.530446,514.332972 L354.462373,514.332972 L354.462373,511.882269 C353.508917,513.40655 352.064697,514.632422 349.639988,514.632422 C346.235829,514.632422 344.247817,512.34496 344.247817,508.993829" id="Fill-114" fill="#A4A9AD" mask="url(#mask-4)"></path>
            <path d="M360.83285,500.252294 L362.930037,500.252294 L362.930037,503.928869 C363.964593,501.5863 366.006673,499.898777 368.676765,500.006911 L368.676765,502.267339 L368.512483,502.267339 C365.435847,502.267339 362.930037,504.47474 362.930037,508.722141 L362.930037,514.3337 L360.83285,514.3337 L360.83285,500.252294 Z" id="Fill-115" fill="#A4A9AD" mask="url(#mask-4)"></path>
            <path d="M380.085584,509.157486 L380.085584,507.797486 C379.049988,507.495957 377.660875,507.197547 375.945278,507.197547 C373.3043,507.197547 371.833046,508.341278 371.833046,510.110942 L371.833046,510.166049 C371.833046,511.935713 373.467541,512.971309 375.374453,512.971309 C377.960324,512.971309 380.085584,511.39192 380.085584,509.157486 M369.709865,510.24819 L369.709865,510.193083 C369.709865,507.224581 372.160569,505.645193 375.727969,505.645193 C377.524667,505.645193 378.804606,505.890575 380.056471,506.244092 L380.056471,505.753327 C380.056471,503.220483 378.506196,501.913511 375.863138,501.913511 C374.201609,501.913511 372.894636,502.349168 371.587664,502.948067 L370.961731,501.232471 C372.514086,500.524398 374.038367,500.061706 376.082526,500.061706 C378.070538,500.061706 379.59482,500.579505 380.629376,501.615101 C381.582832,502.568557 382.073596,503.928557 382.073596,505.726294 L382.073596,514.333388 L380.056471,514.333388 L380.056471,512.208128 C379.077021,513.488067 377.442526,514.631798 374.964789,514.631798 C372.350844,514.631798 369.709865,513.13455 369.709865,510.24819" id="Fill-116" fill="#A4A9AD" mask="url(#mask-4)"></path>
            <path d="M386.132905,500.252294 L388.230092,500.252294 L388.230092,502.702997 C389.156514,501.178716 390.625688,499.953884 393.049358,499.953884 C396.453517,499.953884 398.442569,502.240306 398.442569,505.589358 L398.442569,514.3337 L396.345382,514.3337 L396.345382,506.107156 C396.345382,503.493211 394.929235,501.859755 392.450459,501.859755 C390.027829,501.859755 388.230092,503.629419 388.230092,506.271437 L388.230092,514.3337 L386.132905,514.3337 L386.132905,500.252294 Z" id="Fill-117" fill="#A4A9AD" mask="url(#mask-4)"></path>
            <path d="M403.233554,510.60181 L403.233554,502.10389 L401.273615,502.10389 L401.273615,500.252086 L403.233554,500.252086 L403.233554,496.003645 L405.33074,496.003645 L405.33074,500.252086 L409.798569,500.252086 L409.798569,502.10389 L405.33074,502.10389 L405.33074,510.329394 C405.33074,512.043951 406.284196,512.671963 407.701382,512.671963 C408.409456,512.671963 409.008355,512.534716 409.743462,512.181199 L409.743462,513.978936 C409.008355,514.359486 408.21918,514.578875 407.210618,514.578875 C404.95019,514.578875 403.233554,513.462177 403.233554,510.60181" id="Fill-118" fill="#A4A9AD" mask="url(#mask-4)"></path>
            <path d="M411.919878,512.535028 L412.983547,511.03778 C414.507829,512.181511 416.197431,512.835517 417.85896,512.835517 C419.546483,512.835517 420.772355,511.964202 420.772355,510.602122 L420.772355,510.547015 C420.772355,509.130869 419.110826,508.587076 417.259021,508.069278 C415.051621,507.443346 412.600917,506.680165 412.600917,504.092214 L412.600917,504.039187 C412.600917,501.614477 414.615963,500.007015 417.39419,500.007015 C419.110826,500.007015 421.017737,500.605914 422.459878,501.55937 L421.506422,503.138758 C420.19945,502.295517 418.701162,501.778758 417.341162,501.778758 C415.679633,501.778758 414.615963,502.650073 414.615963,503.819798 L414.615963,503.874905 C414.615963,505.208911 416.359633,505.726709 418.239511,506.299615 C420.417798,506.952581 422.760367,507.796862 422.760367,510.329706 L422.760367,510.382734 C422.760367,513.052826 420.555046,514.60518 417.748746,514.60518 C415.7337,514.60518 413.501346,513.816006 411.919878,512.535028" id="Fill-119" fill="#A4A9AD" mask="url(#mask-4)"></path>
            <path d="M522.510128,260.061529 L544.377223,240.289541 C554.010557,231.492171 557.361688,226.464954 557.361688,220.264893 C557.361688,212.641407 551.163706,207.69841 544.125602,207.69841 C536.668477,207.69841 531.8097,211.551743 526.949884,218.589847 L523.681933,216.41052 C528.79233,208.619633 534.238569,203.845076 544.543584,203.845076 C554.513798,203.845076 561.970924,210.79792 561.970924,219.931131 L561.970924,220.097492 C561.970924,228.14 557.613309,233.502018 547.309333,242.88581 L529.379792,259.140306 L562.556306,259.140306 L562.556306,263.32844 L522.510128,263.32844 L522.510128,260.061529 Z" id="Fill-120" fill="#A4A9AD" mask="url(#mask-4)"></path>
            <path d="M570.606196,254.866183 L573.707786,251.766673 C578.985584,257.044471 585.100385,260.395602 591.301486,260.395602 C600.601058,260.395602 607.0517,253.86178 607.0517,245.650832 L607.0517,245.483431 C607.0517,237.356703 600.433657,231.575664 590.965645,231.575664 C585.519407,231.575664 581.414453,233.251749 577.72748,235.261596 L574.376349,233.084349 L576.052434,204.682391 L608.978367,204.682391 L608.978367,208.871566 L579.905768,208.871566 L578.482343,230.820801 C582.252495,228.978355 586.022648,227.63811 591.468887,227.63811 C602.778306,227.63811 611.574636,234.843615 611.574636,245.316031 L611.574636,245.483431 C611.574636,256.542269 602.945706,264.334196 591.133046,264.334196 C583.173719,264.334196 575.716593,260.061841 570.606196,254.866183" id="Fill-121" fill="#A4A9AD" mask="url(#mask-4)"></path>
            <path d="M663.946385,234.173284 L663.946385,234.005884 C663.946385,220.348697 656.239719,207.613774 644.090177,207.613774 C631.942716,207.613774 624.40137,220.181297 624.40137,233.837443 L624.40137,234.005884 C624.40137,247.57781 632.110116,260.395914 644.257578,260.395914 C656.408159,260.395914 663.946385,247.745211 663.946385,234.173284 M619.878434,234.173284 L619.878434,234.005884 C619.878434,217.835609 629.346446,203.67726 644.257578,203.67726 C659.171829,203.67726 668.471401,217.668208 668.471401,233.837443 L668.471401,234.005884 C668.471401,250.175119 659.003388,264.334508 644.090177,264.334508 C629.179046,264.334508 619.878434,250.34252 619.878434,234.173284" id="Fill-122" fill="#A4A9AD" mask="url(#mask-4)"></path>
            <path d="M531.775388,308.399963 L527.444807,298.705284 L523.087193,308.399963 L531.775388,308.399963 Z M526.464318,296.199474 L528.479364,296.199474 L537.16756,315.399596 L534.852024,315.399596 L532.61863,310.360942 L522.241872,310.360942 L519.983523,315.399596 L517.776122,315.399596 L526.464318,296.199474 Z" id="Fill-123" fill="#A4A9AD" mask="url(#mask-4)"></path>
            <path d="M540.161015,301.319541 L542.258202,301.319541 L542.258202,304.996116 C543.292758,302.654587 545.334838,300.966024 548.00493,301.074159 L548.00493,303.334587 L547.840648,303.334587 C544.764012,303.334587 542.258202,305.540948 542.258202,309.789388 L542.258202,315.399908 L540.161015,315.399908 L540.161015,301.319541 Z" id="Fill-124" fill="#A4A9AD" mask="url(#mask-4)"></path>
            <path d="M551.517015,311.668018 L551.517015,303.171138 L549.557076,303.171138 L549.557076,301.319333 L551.517015,301.319333 L551.517015,297.070893 L553.614202,297.070893 L553.614202,301.319333 L558.082031,301.319333 L558.082031,303.171138 L553.614202,303.171138 L553.614202,311.395602 C553.614202,313.112239 554.567657,313.738171 555.984844,313.738171 C556.692917,313.738171 557.291817,313.601963 558.026924,313.248446 L558.026924,315.045144 C557.291817,315.426734 556.500563,315.645083 555.49408,315.645083 C553.233651,315.645083 551.517015,314.528385 551.517015,311.668018" id="Fill-125" fill="#A4A9AD" mask="url(#mask-4)"></path>
            <path d="M580.517976,307.692098 L580.517976,307.638031 C580.517976,304.75167 578.014245,302.870752 575.344153,302.870752 C572.674061,302.870752 570.46874,304.723596 570.46874,307.609957 L570.46874,307.664024 C570.46874,310.497358 572.730208,312.457297 575.344153,312.457297 C578.014245,312.457297 580.517976,310.524391 580.517976,307.692098 M568.971492,317.850508 L569.924948,316.217052 C571.53137,317.387817 573.329107,318.013749 575.344153,318.013749 C578.449902,318.013749 580.464948,316.298153 580.464948,313.003168 L580.464948,311.341639 C579.239076,312.975095 577.52348,314.310141 574.935529,314.310141 C571.559443,314.310141 568.317486,311.777297 568.317486,307.720171 L568.317486,307.664024 C568.317486,303.552832 571.586477,301.019988 574.935529,301.019988 C577.578587,301.019988 579.292104,302.32696 580.437914,303.852281 L580.437914,301.319437 L582.535101,301.319437 L582.535101,312.949101 C582.535101,315.127388 581.880055,316.788917 580.737364,317.932648 C579.484459,319.185554 577.604581,319.811486 575.371187,319.811486 C573.030697,319.811486 570.85137,319.15748 568.971492,317.850508" id="Fill-126" fill="#A4A9AD" mask="url(#mask-4)"></path>
            <path d="M596.125119,310.224734 L596.125119,308.863694 C595.089523,308.563205 593.70041,308.263755 591.984813,308.263755 C589.343835,308.263755 587.872581,309.407486 587.872581,311.17819 L587.872581,311.232257 C587.872581,313.00296 589.507076,314.038557 591.413988,314.038557 C593.999859,314.038557 596.125119,312.458128 596.125119,310.224734 M585.749401,311.314398 L585.749401,311.26033 C585.749401,308.291829 588.200104,306.71244 591.767505,306.71244 C593.564202,306.71244 594.844141,306.956783 596.096006,307.3103 L596.096006,306.820575 C596.096006,304.287731 594.545731,302.980758 591.902673,302.980758 C590.241144,302.980758 588.934171,303.416416 587.627199,304.015315 L587.001266,302.299719 C588.553621,301.591645 590.077902,301.127914 592.121021,301.127914 C594.110073,301.127914 595.634355,301.645713 596.668911,302.681309 C597.622367,303.634765 598.113131,304.995804 598.113131,306.792502 L598.113131,315.399596 L596.096006,315.399596 L596.096006,313.275376 C595.116557,314.555315 593.482061,315.699046 591.004324,315.699046 C588.390379,315.699046 585.749401,314.200758 585.749401,311.314398" id="Fill-127" fill="#A4A9AD" mask="url(#mask-4)"></path>
            <polygon id="Fill-128" fill="#A4A9AD" mask="url(#mask-4)" points="602.360428 315.400428 604.457615 315.400428 604.457615 295.519266 602.360428 295.519266"></polygon>
            <polygon id="Fill-129" fill="#A4A9AD" mask="url(#mask-4)" points="609.113639 315.400428 611.210826 315.400428 611.210826 295.519266 609.113639 295.519266"></polygon>
            <path d="M625.999474,307.583651 C625.782165,305.023774 624.311951,302.790379 621.506691,302.790379 C619.055988,302.790379 617.202104,304.833498 616.930728,307.583651 L625.999474,307.583651 Z M614.807547,308.399859 L614.807547,308.345792 C614.807547,304.287627 617.666875,301.019676 621.559719,301.019676 C625.727058,301.019676 628.124734,304.341694 628.124734,308.454966 C628.124734,308.727382 628.124734,308.890624 628.096661,309.134966 L616.930728,309.134966 C617.231217,312.185609 619.381431,313.902245 621.887242,313.902245 C623.821187,313.902245 625.183266,313.112031 626.326997,311.913193 L627.633969,313.084997 C626.218862,314.664385 624.502226,315.727015 621.834214,315.727015 C617.965284,315.727015 614.807547,312.757474 614.807547,308.399859 L614.807547,308.399859 Z" id="Fill-130" fill="#A4A9AD" mask="url(#mask-4)"></path>
            <path d="M631.392165,301.319541 L633.489352,301.319541 L633.489352,304.996116 C634.523908,302.654587 636.565988,300.966024 639.23608,301.074159 L639.23608,303.334587 L639.071798,303.334587 C635.995162,303.334587 633.489352,305.540948 633.489352,309.789388 L633.489352,315.399908 L631.392165,315.399908 L631.392165,301.319541 Z" id="Fill-131" fill="#A4A9AD" mask="url(#mask-4)"></path>
            <path d="M642.201774,315.399388 L644.29896,315.399388 L644.29896,301.319021 L642.201774,301.319021 L642.201774,315.399388 Z M642.066606,298.241346 L644.462202,298.241346 L644.462202,295.92685 L642.066606,295.92685 L642.066606,298.241346 Z" id="Fill-132" fill="#A4A9AD" mask="url(#mask-4)"></path>
            <path d="M659.087713,307.583651 C658.870404,305.023774 657.40019,302.790379 654.59493,302.790379 C652.144226,302.790379 650.291382,304.833498 650.018966,307.583651 L659.087713,307.583651 Z M647.895786,308.399859 L647.895786,308.345792 C647.895786,304.287627 650.755113,301.019676 654.647957,301.019676 C658.815297,301.019676 661.212972,304.341694 661.212972,308.454966 C661.212972,308.727382 661.212972,308.890624 661.184899,309.134966 L650.018966,309.134966 C650.319456,312.185609 652.46967,313.902245 654.97548,313.902245 C656.909425,313.902245 658.271505,313.112031 659.415235,311.913193 L660.722208,313.084997 C659.307101,314.664385 657.590465,315.727015 654.922453,315.727015 C651.053523,315.727015 647.895786,312.757474 647.895786,308.399859 L647.895786,308.399859 Z" id="Fill-133" fill="#A4A9AD" mask="url(#mask-4)"></path>
            <path d="M663.308183,313.602379 L664.371853,312.104092 C665.896135,313.248862 667.585737,313.901829 669.247266,313.901829 C670.934789,313.901829 672.160661,313.030514 672.160661,311.668434 L672.160661,311.614367 C672.160661,310.19822 670.499131,309.653388 668.647327,309.13559 C666.439927,308.509657 663.989223,307.746477 663.989223,305.159566 L663.989223,305.105498 C663.989223,302.680789 666.004269,301.074367 668.782495,301.074367 C670.499131,301.074367 672.406043,301.673266 673.848183,302.626722 L672.894728,304.20611 C671.587755,303.361829 670.089468,302.84507 668.729468,302.84507 C667.067939,302.84507 666.004269,303.716385 666.004269,304.88715 L666.004269,304.941217 C666.004269,306.276263 667.747939,306.793021 669.627817,307.365927 C671.806104,308.019933 674.148673,308.863174 674.148673,311.396018 L674.148673,311.450086 C674.148673,314.120177 671.943352,315.671492 669.137052,315.671492 C667.120966,315.671492 664.889651,314.882318 663.308183,313.602379" id="Fill-134" fill="#A4A9AD" mask="url(#mask-4)"></path>
            <path d="M548.0617,444.165394 L548.0617,409.480196 L520.079804,444.165394 L548.0617,444.165394 Z M548.0617,447.935547 L516.309651,447.935547 L514.802006,444.668636 L548.313321,403.196954 L552.251914,403.196954 L552.251914,444.165394 L561.801028,444.165394 L561.801028,447.935547 L552.251914,447.935547 L552.251914,462.262336 L548.0617,462.262336 L548.0617,447.935547 Z" id="Fill-135" fill="#A4A9AD" mask="url(#mask-4)"></path>
            <path d="M613.837352,433.106972 L613.837352,432.939572 C613.837352,419.282385 606.130685,406.547462 593.981144,406.547462 C581.833682,406.547462 574.292336,419.114985 574.292336,432.771131 L574.292336,432.939572 C574.292336,446.511498 582.001083,459.329602 594.148544,459.329602 C606.299125,459.329602 613.837352,446.678899 613.837352,433.106972 M569.769401,433.106972 L569.769401,432.939572 C569.769401,416.769297 579.237413,402.610948 594.148544,402.610948 C609.062795,402.610948 618.362367,416.601896 618.362367,432.771131 L618.362367,432.939572 C618.362367,449.108807 608.894355,463.268196 593.981144,463.268196 C579.068972,463.268196 569.769401,449.277248 569.769401,433.106972" id="Fill-136" fill="#A4A9AD" mask="url(#mask-4)"></path>
            <polygon id="Fill-137" fill="#A4A9AD" mask="url(#mask-4)" points="630.434654 403.616183 634.792269 403.616183 634.792269 442.154716 672.157957 403.616183 678.105358 403.616183 652.46915 429.504012 679.196061 462.262544 673.498202 462.262544 649.370679 432.603523 634.792269 447.349333 634.792269 462.262544 630.434654 462.262544"></polygon>
            <path d="M556.748128,511.555162 L558.082135,509.975774 C560.070147,511.772471 561.977058,512.671859 564.618037,512.671859 C567.177914,512.671859 568.867517,511.30978 568.867517,509.429902 L568.867517,509.376875 C568.867517,507.607211 567.914061,506.598648 563.909963,505.753327 C559.524275,504.799872 557.509229,503.384765 557.509229,500.251982 L557.509229,500.198954 C557.509229,497.202379 560.152287,494.997058 563.773755,494.997058 C566.550942,494.997058 568.539994,495.786232 570.472899,497.338587 L569.221034,499.000116 C567.449291,497.555896 565.679627,496.929963 563.719688,496.929963 C561.240911,496.929963 559.661523,498.292043 559.661523,500.006599 L559.661523,500.061706 C559.661523,501.860483 560.640972,502.866966 564.835346,503.765315 C569.083786,504.691737 571.045804,506.244092 571.045804,509.157486 L571.045804,509.212593 C571.045804,512.479505 568.320606,514.605804 564.535896,514.605804 C561.512287,514.605804 559.03559,513.597242 556.748128,511.555162" id="Fill-138" fill="#A4A9AD" mask="url(#mask-4)"></path>
            <path d="M574.667064,494.452538 L576.764251,494.452538 L576.764251,502.702997 C577.690673,501.178716 579.159847,499.953884 581.583517,499.953884 C584.987676,499.953884 586.976728,502.240306 586.976728,505.589358 L586.976728,514.3337 L584.879541,514.3337 L584.879541,506.107156 C584.879541,503.493211 583.463394,501.859755 580.984618,501.859755 C578.561988,501.859755 576.764251,503.629419 576.764251,506.271437 L576.764251,514.3337 L574.667064,514.3337 L574.667064,494.452538 Z" id="Fill-139" fill="#A4A9AD" mask="url(#mask-4)"></path>
            <path d="M602.692006,507.361309 L602.692006,507.306202 C602.692006,504.282593 600.431578,501.804856 597.463076,501.804856 C594.412434,501.804856 592.316287,504.282593 592.316287,507.251095 L592.316287,507.306202 C592.316287,510.32981 594.547602,512.780514 597.516104,512.780514 C600.566746,512.780514 602.692006,510.32981 602.692006,507.361309 M590.163994,507.361309 L590.163994,507.306202 C590.163994,503.329138 593.266624,499.954092 597.516104,499.954092 C601.73855,499.954092 604.84222,503.27611 604.84222,507.251095 L604.84222,507.306202 C604.84222,511.283266 601.710477,514.658312 597.463076,514.658312 C593.24063,514.658312 590.163994,511.336294 590.163994,507.361309" id="Fill-140" fill="#A4A9AD" mask="url(#mask-4)"></path>
            <path d="M620.281547,507.332716 L620.281547,507.279688 C620.281547,503.95767 617.994086,501.83137 615.325034,501.83137 C612.710049,501.83137 610.232312,504.038771 610.232312,507.250575 L610.232312,507.305682 C610.232312,510.575713 612.710049,512.754 615.325034,512.754 C618.049193,512.754 620.281547,510.736875 620.281547,507.332716 L620.281547,507.332716 Z M608.217266,500.251982 L610.314453,500.251982 L610.314453,503.085315 C611.458183,501.395713 613.119713,499.953572 615.707664,499.953572 C619.084789,499.953572 622.433841,502.621584 622.433841,507.250575 L622.433841,507.305682 C622.433841,511.908679 619.111823,514.631798 615.707664,514.631798 C613.092679,514.631798 611.403076,513.216691 610.314453,511.637303 L610.314453,518.691003 L608.217266,518.691003 L608.217266,500.251982 Z" id="Fill-141" fill="#A4A9AD" mask="url(#mask-4)"></path>
            <path d="M624.718807,512.535028 L625.782477,511.03778 C627.306758,512.181511 628.994281,512.835517 630.65789,512.835517 C632.345413,512.835517 633.571284,511.964202 633.571284,510.602122 L633.571284,510.547015 C633.571284,509.130869 631.909755,508.587076 630.057951,508.069278 C627.85055,507.443346 625.399847,506.680165 625.399847,504.092214 L625.399847,504.039187 C625.399847,501.614477 627.414893,500.007015 630.193119,500.007015 C631.909755,500.007015 633.816667,500.605914 635.258807,501.55937 L634.305352,503.138758 C632.998379,502.295517 631.500092,501.778758 630.140092,501.778758 C628.478563,501.778758 627.414893,502.650073 627.414893,503.819798 L627.414893,503.874905 C627.414893,505.208911 629.158563,505.726709 631.03844,506.299615 C633.216728,506.952581 635.559297,507.796862 635.559297,510.329706 L635.559297,510.382734 C635.559297,513.052826 633.351896,514.60518 630.547676,514.60518 C628.53159,514.60518 626.300275,513.816006 624.718807,512.535028" id="Fill-142" fill="#A4A9AD" mask="url(#mask-4)"></path>
        </g>
    </g>
</svg>