<svg xmlns="http://www.w3.org/2000/svg" viewBox="0 0 564 320" enable-background="new 0 0 564 320"><path fill="#68ab47" d="m36.2 35.6h148.7v272.1h-148.7z"/><g fill="#333"><path d="m45.4 19.8c0 2.5-1.5 3.5-3.8 3.5-.9 0-2.1-.2-3-1.1-.5-.6-.7-1.3-.7-2.3v-6.2h2v6.1c0 1.3.8 1.9 1.7 1.9 1.3 0 1.9-.6 1.9-1.8v-6.1h2v6z"/><path d="m51.1 18.3c-.1-.4-.2-.9-1.2-.9s-1.1.4-1.1.7c0 1.1 4.3.3 4.3 2.8 0 2-2 2.4-3 2.4-1.6 0-3.3-.5-3.3-2.4h1.9c0 .6.4 1 1.5 1 .9 0 1.2-.5 1.2-.7 0-1.2-4.3-.3-4.3-2.9 0-1 .6-2.3 2.8-2.3 1.4 0 3 .3 3.1 2.3h-1.9"/><path d="m60.3 21.1c-.5 1.7-1.9 2.2-3 2.2-2 0-3.4-.9-3.4-3.8 0-.8.3-3.5 3.3-3.5 1.4 0 3.2.7 3.2 3.8v.3h-4.7c.1.5.2 1.7 1.6 1.7.5 0 1-.3 1.2-.8h1.8zm-1.8-2.2c-.1-1.1-.8-1.5-1.4-1.5-.9 0-1.3.5-1.4 1.5h2.8"/><path d="m61.6 16.2h1.7v1.2c.4-.7.8-1.4 1.9-1.4.1 0 .2 0 .4 0v1.8c-.2 0-.4 0-.5 0-1.4 0-1.7.9-1.7 1.7v3.6h-1.8v-6.9"/><path d="m80.2 23.1h-1.8v-4.2c0-1-.5-1.4-1-1.4-.9 0-1.2.6-1.2 1.4v4.1h-1.8v-4.2c0-.6 0-1.4-1.1-1.4-.9 0-1.1.6-1.1 1.4v4.2h-1.8v-6.9h1.6v1c.2-.5.7-1.2 2-1.2 1 0 1.5.4 1.9 1.1.2-.3.7-1.1 1.8-1.1 1.4 0 2.4.8 2.4 2.3v4.9z"/><path d="m87.4 21.7c0 .8.2 1 .4 1.1v.3h-2c-.1-.3-.1-.4-.2-.8-.4.4-1 1-2.2 1-1 0-2.1-.6-2.1-2 0-1.4.9-2 2-2.2l1.6-.2c.3 0 .6-.2.6-.5 0-.8-.7-.8-1.2-.8-.9 0-1.1.6-1.1 1h-1.8c.2-2.1 1.7-2.4 3.1-2.4 1 0 2.8.3 2.8 2v3.5zm-1.8-2c-.2.1-.5.3-1.2.4-.7.1-1.2.3-1.2 1 0 .6.5.8.8.8.8 0 1.6-.5 1.6-1.4v-.8"/><path d="m95.3 23.1h-1.8v-4.2c0-.5 0-1.4-1.2-1.4-.8 0-1.4.5-1.4 1.6v4h-1.9v-6.9h1.7v1c.2-.4.8-1.2 2.1-1.2 1.4 0 2.4.8 2.4 2.3v4.8z"/><path d="m102.6 21.7c0 .8.2 1 .4 1.1v.3h-2c-.1-.3-.1-.4-.2-.8-.4.4-1 1-2.2 1-1 0-2.1-.6-2.1-2 0-1.4.9-2 2-2.2l1.6-.2c.3 0 .6-.2.6-.5 0-.8-.7-.8-1.2-.8-.9 0-1.1.6-1.1 1h-1.8c.2-2.1 1.7-2.4 3.1-2.4 1 0 2.8.3 2.8 2v3.5zm-1.8-2c-.2.1-.5.3-1.2.4-.7.1-1.2.3-1.2 1 0 .6.5.8.8.8.8 0 1.6-.5 1.6-1.4v-.8"/><path d="m110.4 16.2v6.6c0 1.2-.1 3.2-3.5 3.2-1.4 0-2.9-.6-3-2.1h2c.1.4.2.7 1.3.7 1 0 1.4-.5 1.4-1.6v-.8c-.3.5-.8 1-1.8 1-1.7 0-3-1.2-3-3.6 0-2.4 1.4-3.6 2.9-3.6 1.3 0 1.8.8 2 1.2v-1h1.7m-3.3 5.4c1.2 0 1.5-1.1 1.5-2 0-1.1-.5-2-1.6-2-.7 0-1.4.5-1.4 2.1 0 .9.4 1.9 1.5 1.9"/><path d="m118.1 21.1c-.5 1.7-1.9 2.2-3 2.2-2 0-3.4-.9-3.4-3.8 0-.8.3-3.5 3.3-3.5 1.4 0 3.2.7 3.2 3.8v.3h-4.7c.1.5.2 1.7 1.6 1.7.5 0 1-.3 1.2-.8h1.8zm-1.8-2.2c-.1-1.1-.8-1.5-1.4-1.5-.9 0-1.3.5-1.4 1.5h2.8"/><path d="m129.3 23.1h-1.8v-4.2c0-1-.5-1.4-1-1.4-.9 0-1.2.6-1.2 1.4v4.1h-1.8v-4.2c0-.6 0-1.4-1.1-1.4-.9 0-1.1.6-1.1 1.4v4.2h-1.8v-6.9h1.7v1c.2-.5.7-1.2 2-1.2 1 0 1.5.4 1.9 1.1.2-.3.7-1.1 1.8-1.1 1.4 0 2.4.8 2.4 2.3v4.9"/><path d="m136.9 21.1c-.5 1.7-1.9 2.2-3 2.2-2 0-3.4-.9-3.4-3.8 0-.8.3-3.5 3.3-3.5 1.4 0 3.2.7 3.2 3.8v.3h-4.7c.1.5.2 1.7 1.6 1.7.5 0 1-.3 1.2-.8h1.8zm-1.8-2.2c-.1-1.1-.8-1.5-1.4-1.5-.9 0-1.3.5-1.4 1.5h2.8"/><path d="m144.4 23.1h-1.8v-4.2c0-.5 0-1.4-1.2-1.4-.8 0-1.4.5-1.4 1.6v4h-1.8v-6.9h1.7v1c.2-.4.8-1.2 2.1-1.2 1.4 0 2.4.8 2.4 2.3v4.8"/><path d="m148.2 16.2h1.1v1.3h-1.1v3.8c0 .4 0 .6.8.6.1 0 .2 0 .4 0v1.4c-.3 0-.6 0-.9 0h-.2c-1.6 0-1.9-.6-1.9-1.5v-4.2h-.9v-1.3h.9v-1.9h1.8v1.8"/></g><path fill="#fff" d="m38.9 37.8h143.3v59.2h-143.3z"/><g fill="#717171"><path d="m52.6 50.1c-.3-1.4-1.5-1.6-2.2-1.6-1.4 0-2.6 1.1-2.6 3.1 0 1.9.7 3.3 2.6 3.3.7 0 1.9-.3 2.3-2.2h1c-.4 3-2.9 3.1-3.5 3.1-1.8 0-3.6-1.2-3.6-4.2 0-2.4 1.4-4.1 3.7-4.1 2 0 3.1 1.3 3.2 2.6h-.9"/><path d="m55.9 55.6h-1v-5.8h.9v1c.4-.7.9-1.1 1.6-1.1.1 0 .2 0 .3 0v1h-.4c-.9 0-1.5.7-1.5 1.5v3.4z"/><path d="m63.2 53.8c0 .3-.3 1.1-1 1.6-.3.2-.6.4-1.6.4-1.6 0-2.6-1.2-2.6-2.9 0-1.8.9-3.2 2.8-3.2 1.7 0 2.5 1.3 2.5 3.4h-4.2c0 1.2.6 1.9 1.7 1.9.9 0 1.5-.7 1.5-1.1h.9zm-.9-1.5c-.1-.9-.4-1.7-1.6-1.7-.9 0-1.6.8-1.6 1.7h3.2"/><path d="m64.4 51.6c0-1.4 1-1.9 2.4-1.9.5 0 2.1.1 2.1 1.6v3.3c0 .2.1.3.3.3.1 0 .2 0 .3 0v.7c-.2 0-.3.1-.5.1-.9 0-1-.4-1-.9-.4.4-1 .9-2.1.9-1.1 0-1.8-.7-1.8-1.7 0-.5.1-1.6 1.7-1.8l1.6-.2c.2 0 .5-.1.5-.7 0-.6-.4-.9-1.4-.9-1.1 0-1.3.7-1.3 1.1h-.8zm3.5 1.1c-.2.1-.4.2-1.6.4-.5.1-1.2.2-1.2.9 0 .6.3 1 1 1 .9 0 1.8-.6 1.8-1.4v-.9"/><path d="m71.7 50.7v3.7c0 .5.4.5.6.5h.3v.8c-.4 0-.6.1-.7.1-1 0-1.2-.5-1.2-1.2v-3.8h-.7v-.8h.8v-1.6h1v1.6h.9v.8h-1z"/><path d="m78.2 53.8c0 .3-.3 1.1-1 1.6-.3.2-.6.4-1.6.4-1.6 0-2.6-1.2-2.6-2.9 0-1.8.9-3.2 2.8-3.2 1.7 0 2.5 1.3 2.5 3.4h-4.2c0 1.2.6 1.9 1.7 1.9.9 0 1.5-.7 1.5-1.1h.9zm-.9-1.5c-.1-.9-.4-1.7-1.6-1.7-.9 0-1.6.8-1.6 1.7h3.2"/><path d="m82.5 51.6c0-1.4 1-1.9 2.4-1.9.5 0 2.1.1 2.1 1.6v3.3c0 .2.1.3.3.3.1 0 .2 0 .3 0v.7c-.2 0-.3.1-.5.1-.9 0-1-.4-1-.9-.4.4-1 .9-2.1.9-1.1 0-1.8-.7-1.8-1.7 0-.5.1-1.6 1.7-1.8l1.6-.2c.2 0 .5-.1.5-.7 0-.6-.4-.9-1.4-.9-1.1 0-1.3.7-1.3 1.1h-.8zm3.5 1.1c-.2.1-.4.2-1.6.4-.5.1-1.2.2-1.2.9 0 .6.3 1 1 1 .9 0 1.8-.6 1.8-1.4v-.9"/><path d="m93.3 55.6h-1v-3.5c0-1-.3-1.5-1.2-1.5-.5 0-1.5.4-1.5 1.9v3.1h-1v-5.8h.9v.8c.2-.3.7-1 1.7-1 .9 0 2 .4 2 2v4z"/><path d="m97.8 51.6c0-1.4 1-1.9 2.4-1.9.5 0 2.1.1 2.1 1.6v3.3c0 .2.1.3.3.3.1 0 .2 0 .3 0v.7c-.2 0-.3.1-.5.1-.9 0-1-.4-1-.9-.4.4-1 .9-2.1.9-1.1 0-1.8-.7-1.8-1.7 0-.5.1-1.6 1.7-1.8l1.6-.2c.2 0 .5-.1.5-.7 0-.6-.4-.9-1.4-.9-1.1 0-1.3.7-1.3 1.1h-.8zm3.5 1.1c-.2.1-.4.2-1.6.4-.5.1-1.2.2-1.2.9 0 .6.3 1 1 1 .9 0 1.8-.6 1.8-1.4v-.9"/><path d="m107.5 51.8c-.1-.8-.5-1.2-1.4-1.2-1.2 0-1.6 1.1-1.6 2.2 0 1 .2 2.2 1.6 2.2.6 0 1.2-.5 1.4-1.4h.9c-.1.9-.7 2.2-2.3 2.2-1.6 0-2.6-1.2-2.6-2.9 0-1.8.9-3.2 2.8-3.2 1.5 0 2.1 1.1 2.2 2.1h-1"/><path d="m113 51.8c-.1-.8-.5-1.2-1.4-1.2-1.2 0-1.6 1.1-1.6 2.2 0 1 .2 2.2 1.6 2.2.6 0 1.2-.5 1.4-1.4h.9c-.1.9-.7 2.2-2.3 2.2-1.6 0-2.6-1.2-2.6-2.9 0-1.8.9-3.2 2.8-3.2 1.5 0 2.1 1.1 2.2 2.1h-1"/><path d="m117.3 49.7c1.8 0 2.7 1.6 2.7 3 0 1.5-.8 3-2.7 3-1.8 0-2.7-1.6-2.7-3 0-1.4.8-3 2.7-3m0 5.3c1.4 0 1.7-1.4 1.7-2.2 0-.8-.3-2.2-1.7-2.2-1.4 0-1.7 1.4-1.7 2.2 0 .7.3 2.2 1.7 2.2"/><path d="m124.8 55.6v-.8c-.4.7-.9 1-1.8 1-.8 0-1.9-.4-1.9-1.8v-4.1h1v3.8c0 .9.5 1.3 1.1 1.3 1.2 0 1.6-1.1 1.6-1.9v-3.2h1v5.8h-1z"/><path d="m131.9 55.6h-1v-3.5c0-1-.3-1.5-1.2-1.5-.5 0-1.5.4-1.5 1.9v3.1h-1v-5.8h.9v.8c.2-.3.7-1 1.7-1 .9 0 2 .4 2 2v4z"/><path d="m134.5 50.7v3.7c0 .5.4.5.6.5h.3v.8c-.4 0-.6.1-.7.1-1 0-1.2-.5-1.2-1.2v-3.8h-.8v-.8h.8v-1.6h1v1.6h.9v.8h-.9z"/></g><g fill="#e9e9e9"><path d="m47.4 64.4h116.7v2h-116.7z"/><path d="m47.4 73.3h116.7v2h-116.7z"/><path d="m47.4 82.3h94.2v2h-94.2z"/></g><path fill="#fff" d="m38.9 99.8h143.3v59.2h-143.3z"/><g fill="#717171"><path d="m51.8 112c-.1-1.2-1.1-1.6-2-1.6-.7 0-1.8.2-1.8 1.4 0 .7.5.9.9 1l2.3.5c1 .2 1.8.9 1.8 2.1 0 1.9-1.7 2.4-3.1 2.4-1.5 0-2-.4-2.4-.8-.7-.6-.8-1.3-.8-2h1c0 1.4 1.2 1.8 2.2 1.8.8 0 2.1-.2 2.1-1.3 0-.8-.4-1.1-1.7-1.4l-1.6-.4c-.5-.1-1.7-.5-1.7-1.9 0-1.2.8-2.4 2.7-2.4 2.8 0 3 1.7 3.1 2.5h-1z"/><path d="m55.4 112.7v3.7c0 .5.4.5.6.5h.3v.8c-.4 0-.6.1-.7.1-1 0-1.2-.5-1.2-1.2v-3.8h-.8v-.8h.8v-1.6h1v1.6h.9v.8h-.9z"/><path d="m59.4 111.7c1.8 0 2.7 1.6 2.7 3 0 1.5-.8 3-2.7 3-1.8 0-2.7-1.6-2.7-3 .1-1.4.9-3 2.7-3m0 5.3c1.4 0 1.7-1.4 1.7-2.2 0-.8-.3-2.2-1.7-2.2-1.4 0-1.7 1.4-1.7 2.2.1.7.3 2.2 1.7 2.2"/><path d="m64.3 117.6h-1v-5.8h.9v1c.4-.7.9-1.1 1.6-1.1.1 0 .2 0 .3 0v1h-.4c-.9 0-1.5.7-1.5 1.5v3.4z"/><path d="m71.5 115.8c0 .3-.3 1.1-1 1.6-.3.2-.6.4-1.6.4-1.6 0-2.6-1.2-2.6-2.9 0-1.8.9-3.2 2.8-3.2 1.7 0 2.5 1.3 2.5 3.4h-4.2c0 1.2.6 1.9 1.7 1.9.9 0 1.5-.7 1.5-1.1h.9zm-.9-1.5c-.1-.9-.4-1.7-1.6-1.7-.9 0-1.6.8-1.6 1.7h3.2"/><path d="m77.5 117.6h-.9v-.8c-.4.8-1.1 1-1.6 1-2 0-2.5-1.8-2.5-3.2 0-1.6.9-2.9 2.4-2.9 1 0 1.5.6 1.7 1v-.1-2.9h1v7.9zm-2.5-.6c.6 0 1.6-.4 1.6-1.9 0-.9-.2-2.4-1.6-2.4-1.5 0-1.6 1.4-1.6 2.2 0 1.1.5 2.1 1.6 2.1"/><path d="m81.9 111.9h.9v.8c.2-.3.7-1 1.7-1 1.5 0 2.4 1.3 2.4 2.9 0 1.4-.6 3.2-2.5 3.2-.8 0-1.3-.4-1.5-.8v2.9h-1v-8m2.5 5.1c1.1 0 1.6-1 1.6-2.2 0-.7-.1-2.2-1.6-2.2-1.4 0-1.6 1.5-1.6 2.4 0 1.6.9 2 1.6 2"/><path d="m88 113.6c0-1.4 1-1.9 2.4-1.9.5 0 2.1.1 2.1 1.6v3.3c0 .2.1.3.3.3.1 0 .2 0 .3 0v.7c-.2 0-.3.1-.5.1-.9 0-1-.4-1-.9-.4.4-1 .9-2.1.9-1.1 0-1.8-.7-1.8-1.7 0-.5.1-1.6 1.7-1.8l1.6-.2c.2 0 .5-.1.5-.7 0-.6-.4-.9-1.4-.9-1.1 0-1.3.7-1.3 1.1h-.8zm3.6 1.1c-.2.1-.4.2-1.6.4-.5.1-1.2.2-1.2.9 0 .6.3 1 1 1 .9 0 1.8-.6 1.8-1.4v-.9"/><path d="m97.4 111.9h1.1c-.7 1.9-1.3 3.8-2.1 5.6-.9 2.3-1 2.5-2.3 2.5-.1 0-.3 0-.4-.1v-.9c.1 0 .3.1.6.1.5 0 .6-.1 1-1.3l-2.1-5.9h1.1l1.5 4.7 1.6-4.7"/><path d="m99.3 111.9h.9v.8c.2-.3.7-1 1.7-1s1.4.6 1.5.9c.5-.5.9-.9 1.8-.9.6 0 1.8.3 1.8 1.9v4h-1v-3.7c0-.8-.2-1.3-1.1-1.3-.8 0-1.4.8-1.4 1.5v3.5h-1v-4c0-.5-.2-1.1-.9-1.1-.5 0-1.5.4-1.5 1.9v3.1h-1v-5.6z"/><path d="m113.4 115.8c0 .3-.3 1.1-1 1.6-.3.2-.6.4-1.6.4-1.6 0-2.6-1.2-2.6-2.9 0-1.8.9-3.2 2.8-3.2 1.7 0 2.5 1.3 2.5 3.4h-4.2c0 1.2.6 1.9 1.7 1.9.9 0 1.5-.7 1.5-1.1h.9zm-.9-1.5c-.1-.9-.4-1.7-1.6-1.7-.9 0-1.6.8-1.6 1.7h3.2"/><path d="m119.3 117.6h-1v-3.5c0-1-.3-1.5-1.2-1.5-.5 0-1.5.4-1.5 1.9v3.1h-1v-5.8h.9v.8c.2-.3.7-1 1.7-1 .9 0 2 .4 2 2v4z"/><path d="m121.9 112.7v3.7c0 .5.4.5.6.5h.3v.8c-.4 0-.6.1-.7.1-1 0-1.2-.5-1.2-1.2v-3.8h-.8v-.8h.8v-1.6h1v1.6h.9v.8h-.9z"/><path d="m126.9 110.8v-1.1h1v1.1h-1m.9 6.8h-1v-5.8h1v5.8"/><path d="m134 117.6h-1v-3.5c0-1-.3-1.5-1.2-1.5-.5 0-1.5.4-1.5 1.9v3.1h-1v-5.8h.9v.8c.2-.3.7-1 1.7-1 .9 0 2 .4 2 2v4z"/><path d="m136.6 112.7v5h-1v-5h-.8v-.8h.8v-1c0-.9.5-1.3 1.5-1.3.1 0 .3 0 .4 0v.9c-.1 0-.3 0-.4 0-.4 0-.6.2-.6.7v.7h1v.8h-.9"/><path d="m140.5 111.7c1.8 0 2.7 1.6 2.7 3 0 1.5-.8 3-2.7 3-1.8 0-2.7-1.6-2.7-3 0-1.4.8-3 2.7-3m0 5.3c1.4 0 1.7-1.4 1.7-2.2 0-.8-.3-2.2-1.7-2.2-1.4 0-1.7 1.4-1.7 2.2 0 .7.3 2.2 1.7 2.2"/></g><g fill="#e9e9e9"><path d="m47.4 126.4h116.7v2h-116.7z"/><path d="m47.4 135.3h116.7v2h-116.7z"/><path d="m47.4 144.3h94.2v2h-94.2z"/></g><path fill="#fff" d="m38.9 161.8h143.3v59.2h-143.3z"/><g fill="#717171"><path d="m48.1 178.7h4v.9h-5.1v-7.9h1.1v7"/><path d="m53 172.8v-1.1h1v1.1h-1m1 6.8h-1v-5.8h1v5.8"/><path d="m60.2 179.6h-1v-3.5c0-1-.3-1.5-1.2-1.5-.5 0-1.5.4-1.5 1.9v3.1h-1v-5.8h.9v.8c.2-.3.7-1 1.7-1 .9 0 2 .4 2 2v4z"/><path d="m66.4 179.6h-1.2l-1.8-2.9-.8.7v2.2h-.9v-7.9h.9v4.6l2.5-2.4h1.2l-2.3 2.1 2.4 3.6"/><path d="m71.7 177.8c0 .3-.3 1.1-1 1.6-.3.2-.6.4-1.6.4-1.6 0-2.6-1.2-2.6-2.9 0-1.8.9-3.2 2.8-3.2 1.7 0 2.5 1.3 2.5 3.4h-4.2c0 1.2.6 1.9 1.7 1.9.9 0 1.5-.7 1.5-1.1h.9zm-.9-1.5c-.1-.9-.4-1.7-1.6-1.7-.9 0-1.6.8-1.6 1.7h3.2"/><path d="m77.8 179.6h-.9v-.8c-.4.8-1.1 1-1.6 1-2 0-2.5-1.8-2.5-3.2 0-1.6.9-2.9 2.4-2.9 1 0 1.5.6 1.7 1v-.1-2.9h1v7.9zm-2.6-.6c.6 0 1.6-.4 1.6-1.9 0-.9-.2-2.4-1.6-2.4-1.5 0-1.6 1.4-1.6 2.2 0 1.1.5 2.1 1.6 2.1"/><path d="m83.4 174.7v5h-1v-5h-.8v-.8h.8v-1c0-.9.5-1.3 1.5-1.3.1 0 .3 0 .4 0v.9c-.1 0-.3 0-.4 0-.4 0-.6.2-.6.7v.7h1v.8h-.9"/><path d="m84.8 175.6c0-1.4 1-1.9 2.4-1.9.5 0 2.1.1 2.1 1.6v3.3c0 .2.1.3.3.3.1 0 .2 0 .3 0v.7c-.2 0-.3.1-.5.1-.9 0-1-.4-1-.9-.4.4-1 .9-2.1.9-1.1 0-1.8-.7-1.8-1.7 0-.5.1-1.6 1.7-1.8l1.6-.2c.2 0 .5-.1.5-.7 0-.6-.4-.9-1.4-.9-1.1 0-1.3.7-1.3 1.1h-.8zm3.6 1.1c-.2.1-.4.2-1.6.4-.5.1-1.2.2-1.2.9 0 .6.3 1 1 1 .9 0 1.8-.6 1.8-1.4v-.9"/><path d="m91 173.9h.9v.8c.2-.3.7-1 1.7-1s1.4.6 1.5.9c.5-.5.9-.9 1.8-.9.6 0 1.8.3 1.8 1.9v4h-1v-3.7c0-.8-.2-1.3-1.1-1.3-.8 0-1.4.8-1.4 1.5v3.5h-1v-4c0-.5-.2-1.1-.9-1.1-.5 0-1.5.4-1.5 1.9v3.1h-1v-5.6z"/><path d="m100.2 172.8v-1.1h1v1.1h-1m.9 6.8h-1v-5.8h1v5.8"/><path d="m103.6 179.6h-1v-7.9h1v7.9"/><path d="m108.4 173.9h1.1c-.7 1.9-1.3 3.8-2.1 5.6-.9 2.3-1 2.5-2.3 2.5-.1 0-.3 0-.4-.1v-.9c.1 0 .3.1.6.1.5 0 .6-.1 1-1.3l-2.1-5.9h1.1l1.5 4.7 1.6-4.7"/><path d="m113.3 173.9h.9v.8c.2-.3.7-1 1.7-1 1.5 0 2.4 1.3 2.4 2.9 0 1.4-.6 3.2-2.5 3.2-.8 0-1.3-.4-1.5-.8v2.9h-1v-8m2.5 5.1c1.1 0 1.6-1 1.6-2.2 0-.7-.1-2.2-1.6-2.2-1.4 0-1.6 1.5-1.6 2.4 0 1.6 1 2 1.6 2"/><path d="m120.6 179.6h-1v-5.8h.9v1c.4-.7.9-1.1 1.6-1.1.1 0 .2 0 .3 0v1h-.4c-.9 0-1.5.7-1.5 1.5v3.4z"/><path d="m125.3 173.7c1.8 0 2.7 1.6 2.7 3 0 1.5-.8 3-2.7 3-1.8 0-2.7-1.6-2.7-3 0-1.4.8-3 2.7-3m0 5.2c1.4 0 1.7-1.4 1.7-2.2 0-.8-.3-2.2-1.7-2.2-1.4 0-1.7 1.4-1.7 2.2 0 .8.3 2.2 1.7 2.2"/><path d="m130.3 174.7v5h-1v-5h-.8v-.8h.8v-1c0-.9.5-1.3 1.5-1.3.1 0 .3 0 .4 0v.9c-.1 0-.3 0-.4 0-.4 0-.6.2-.6.7v.7h1v.8h-.9m1.8-1.9v-1.1h1v1.1h-1m1 6.8h-1v-5.8h1v5.8"/><path d="m135.4 179.6h-1v-7.9h1v7.9"/><path d="m141.7 177.8c0 .3-.3 1.1-1 1.6-.3.2-.6.4-1.6.4-1.6 0-2.6-1.2-2.6-2.9 0-1.8.9-3.2 2.8-3.2 1.7 0 2.5 1.3 2.5 3.4h-4.2c0 1.2.6 1.9 1.7 1.9.9 0 1.5-.7 1.5-1.1h.9zm-.9-1.5c-.1-.9-.4-1.7-1.6-1.7-.9 0-1.6.8-1.6 1.7h3.2"/><path d="m146.2 175.5c0-.4-.1-1-1.4-1-.3 0-1.1.1-1.1.8 0 .5.3.6 1 .8l1 .2c1.2.3 1.6.7 1.6 1.5 0 1.2-1 1.9-2.3 1.9-2.3 0-2.4-1.3-2.5-2h.9c0 .5.2 1.2 1.5 1.2.7 0 1.3-.3 1.3-.9 0-.5-.3-.6-1.1-.8l-1.1-.3c-.8-.2-1.3-.6-1.3-1.4 0-1.3 1-1.8 2.2-1.8 2.1 0 2.2 1.5 2.2 1.8h-.9"/></g><g fill="#e9e9e9"><path d="m47.4 188.4h116.7v2h-116.7z"/><path d="m47.4 197.3h116.7v2h-116.7z"/><path d="m47.4 206.3h94.2v2h-94.2z"/></g><path fill="#fff" d="m38.9 223.8h143.3v59.2h-143.3z"/><g fill="#717171"><path d="m46.3 233.7h6.4v.9h-2.7v7h-1v-7h-2.7v-.9"/><path d="m53.4 241.6h-1v-5.8h.9v1c.4-.7.9-1.1 1.6-1.1.1 0 .2 0 .3 0v1h-.4c-.9 0-1.5.7-1.5 1.5v3.4z"/><path d="m55.8 237.6c0-1.4 1-1.9 2.4-1.9.5 0 2.1.1 2.1 1.6v3.3c0 .2.1.3.3.3.1 0 .2 0 .3 0v.7c-.2 0-.3.1-.5.1-.9 0-1-.4-1-.9-.4.4-1 .9-2.1.9-1.1 0-1.8-.7-1.8-1.7 0-.5.1-1.6 1.7-1.8l1.6-.2c.2 0 .5-.1.5-.7 0-.6-.4-.9-1.4-.9-1.1 0-1.3.7-1.3 1.1h-.8zm3.6 1.1c-.2.1-.4.2-1.6.4-.5.1-1.2.2-1.2.9 0 .6.3 1 1 1 .9 0 1.8-.6 1.8-1.4v-.9"/><path d="m65.4 235.9h1.1l-2.2 5.8h-1l-2.1-5.8h1.1l1.5 4.7 1.6-4.7"/><path d="m71.9 239.8c0 .3-.3 1.1-1 1.6-.3.2-.6.4-1.6.4-1.6 0-2.6-1.2-2.6-2.9 0-1.8.9-3.2 2.8-3.2 1.7 0 2.5 1.3 2.5 3.4h-4.2c0 1.2.6 1.9 1.7 1.9.9 0 1.5-.7 1.5-1.1h.9zm-1-1.5c-.1-.9-.4-1.7-1.6-1.7-.9 0-1.6.8-1.6 1.7h3.2"/><path d="m74.1 241.6h-1v-7.9h1v7.9"/><path d="m78.5 235.9h.9v.8c.2-.3.7-1 1.7-1 1.5 0 2.4 1.3 2.4 2.9 0 1.4-.6 3.2-2.5 3.2-.8 0-1.3-.4-1.5-.8v2.9h-1v-8m2.5 5.1c1.1 0 1.6-1 1.6-2.2 0-.7-.1-2.2-1.6-2.2-1.4 0-1.6 1.5-1.6 2.4 0 1.6 1 2 1.6 2"/><path d="m85.8 241.6h-1v-5.8h.9v1c.4-.7.9-1.1 1.6-1.1.1 0 .2 0 .3 0v1h-.4c-.9 0-1.5.7-1.5 1.5v3.4z"/><path d="m93 239.8c0 .3-.3 1.1-1 1.6-.3.2-.6.4-1.6.4-1.6 0-2.6-1.2-2.6-2.9 0-1.8.9-3.2 2.8-3.2 1.7 0 2.5 1.3 2.5 3.4h-4.2c0 1.2.6 1.9 1.7 1.9.9 0 1.5-.7 1.5-1.1h.9zm-.9-1.5c-.1-.9-.4-1.7-1.6-1.7-.9 0-1.6.8-1.6 1.7h3.2"/><path d="m95.5 236.7v5h-1v-5h-.8v-.8h.8v-1c0-.9.5-1.3 1.5-1.3.1 0 .3 0 .4 0v.9c-.1 0-.3 0-.4 0-.4 0-.6.2-.6.7v.7h1v.8h-.9"/><path d="m101.9 239.8c0 .3-.3 1.1-1 1.6-.3.2-.6.4-1.6.4-1.6 0-2.6-1.2-2.6-2.9 0-1.8.9-3.2 2.8-3.2 1.7 0 2.5 1.3 2.5 3.4h-4.2c0 1.2.6 1.9 1.7 1.9.9 0 1.5-.7 1.5-1.1h.9zm-.9-1.5c-.1-.9-.4-1.7-1.6-1.7-.9 0-1.6.8-1.6 1.7h3.2"/><path d="m104.2 241.6h-1v-5.8h.9v1c.4-.7.9-1.1 1.6-1.1.1 0 .2 0 .3 0v1h-.4c-.9 0-1.5.7-1.5 1.5v3.4z"/><path d="m111.4 239.8c0 .3-.3 1.1-1 1.6-.3.2-.6.4-1.6.4-1.6 0-2.6-1.2-2.6-2.9 0-1.8.9-3.2 2.8-3.2 1.7 0 2.5 1.3 2.5 3.4h-4.2c0 1.2.6 1.9 1.7 1.9.9 0 1.5-.7 1.5-1.1h.9zm-.9-1.5c-.1-.9-.4-1.7-1.6-1.7-.9 0-1.6.8-1.6 1.7h3.2"/><path d="m117.4 241.6h-1v-3.5c0-1-.3-1.5-1.2-1.5-.5 0-1.5.4-1.5 1.9v3.1h-1v-5.8h.9v.8c.2-.3.7-1 1.7-1 .9 0 2 .4 2 2v4z"/><path d="m122.4 237.8c-.1-.8-.5-1.2-1.4-1.2-1.2 0-1.6 1.1-1.6 2.2 0 1 .2 2.2 1.6 2.2.6 0 1.2-.5 1.4-1.4h.9c-.1.9-.7 2.2-2.3 2.2-1.6 0-2.6-1.2-2.6-2.9 0-1.8.9-3.2 2.8-3.2 1.5 0 2.1 1.1 2.2 2.1h-1"/><path d="m129.2 239.8c0 .3-.3 1.1-1 1.6-.3.2-.6.4-1.6.4-1.6 0-2.6-1.2-2.6-2.9 0-1.8.9-3.2 2.8-3.2 1.7 0 2.5 1.3 2.5 3.4h-4.2c0 1.2.6 1.9 1.7 1.9.9 0 1.5-.7 1.5-1.1h.9zm-.9-1.5c-.1-.9-.4-1.7-1.6-1.7-.9 0-1.6.8-1.6 1.7h3.2"/><path d="m133.7 237.5c0-.4-.1-1-1.4-1-.3 0-1.1.1-1.1.8 0 .5.3.6 1 .8l1 .2c1.2.3 1.6.7 1.6 1.5 0 1.2-1 1.9-2.3 1.9-2.3 0-2.4-1.3-2.5-2h.9c0 .5.2 1.2 1.5 1.2.7 0 1.3-.3 1.3-.9 0-.5-.3-.6-1.1-.8l-1.1-.3c-.8-.2-1.3-.6-1.3-1.4 0-1.3 1-1.8 2.2-1.8 2.1 0 2.2 1.5 2.2 1.8h-.9"/></g><g fill="#e9e9e9"><path d="m47.4 250.4h116.7v2h-116.7z"/><path d="m47.4 259.3h116.7v2h-116.7z"/><path d="m47.4 268.3h94.2v2h-94.2z"/></g><path fill="#f6c341" d="m209.1 35.6h148.7v272.1h-148.7z"/><g fill="#333"><path d="m214.8 23.1h-2v-7.7h-2.8v-1.7h7.6v1.7h-2.8v7.7"/><path d="m217.6 16.2h1.7v1.2c.4-.7.8-1.4 1.9-1.4.1 0 .2 0 .4 0v1.8c-.2 0-.4 0-.5 0-1.4 0-1.7.9-1.7 1.7v3.6h-1.8v-6.9"/><path d="m228 21.7c0 .8.2 1 .4 1.1v.3h-2c-.1-.3-.1-.4-.2-.8-.4.4-1 1-2.2 1-1 0-2.1-.6-2.1-2 0-1.4.9-2 2-2.2l1.6-.2c.3 0 .6-.2.6-.5 0-.8-.7-.8-1.2-.8-.9 0-1.1.6-1.1 1h-1.8c.2-2.1 1.7-2.4 3.1-2.4 1 0 2.8.3 2.8 2v3.5zm-1.8-2c-.2.1-.5.3-1.2.4-.7.1-1.2.3-1.2 1 0 .6.5.8.8.8.8 0 1.6-.5 1.6-1.4v-.8"/><path d="m233.1 23.1h-1.9l-2.5-6.9h2l1.4 5.1 1.5-5.1h1.9l-2.4 6.9"/><path d="m242.3 21.1c-.5 1.7-1.9 2.2-3 2.2-2 0-3.4-.9-3.4-3.8 0-.8.3-3.5 3.3-3.5 1.4 0 3.2.7 3.2 3.8v.3h-4.7c.1.5.2 1.7 1.6 1.7.5 0 1-.3 1.2-.8h1.8zm-1.8-2.2c-.1-1.1-.8-1.5-1.4-1.5-.9 0-1.3.5-1.4 1.5h2.8"/><path d="m245.5 23.1h-1.8v-9.3h1.8v9.3"/><path d="m250.8 16.2h1.7v1.2c.4-.7.8-1.4 1.9-1.4.1 0 .2 0 .4 0v1.8c-.2 0-.4 0-.5 0-1.4 0-1.7.9-1.7 1.7v3.6h-1.8v-6.9"/><path d="m261.6 21.1c-.5 1.7-1.9 2.2-3 2.2-2 0-3.4-.9-3.4-3.8 0-.8.3-3.5 3.3-3.5 1.4 0 3.2.7 3.2 3.8v.3h-4.7c.1.5.2 1.7 1.6 1.7.5 0 1-.3 1.2-.8h1.8zm-1.8-2.2c-.1-1.1-.8-1.5-1.4-1.5-.9 0-1.3.5-1.4 1.5h2.8"/><path d="m266.8 18.3c-.1-.4-.2-.9-1.2-.9s-1.1.4-1.1.7c0 1.1 4.3.3 4.3 2.8 0 2-2 2.4-3 2.4-1.6 0-3.3-.5-3.3-2.4h1.9c0 .6.4 1 1.5 1 .9 0 1.2-.5 1.2-.7 0-1.2-4.3-.3-4.3-2.9 0-1 .6-2.3 2.8-2.3 1.4 0 3 .3 3.1 2.3h-1.9"/><path d="m276 21.1c-.5 1.7-1.9 2.2-3 2.2-2 0-3.4-.9-3.4-3.8 0-.8.3-3.5 3.3-3.5 1.4 0 3.2.7 3.2 3.8v.3h-4.7c.1.5.2 1.7 1.6 1.7.5 0 1-.3 1.2-.8h1.8zm-1.7-2.2c-.1-1.1-.8-1.5-1.4-1.5-.9 0-1.3.5-1.4 1.5h2.8"/><path d="m277.3 16.2h1.7v1.2c.4-.7.8-1.4 1.9-1.4.1 0 .2 0 .4 0v1.8c-.2 0-.4 0-.5 0-1.4 0-1.7.9-1.7 1.7v3.6h-1.8v-6.9"/><path d="m286.2 23.1h-1.9l-2.5-6.9h2l1.4 5.1 1.5-5.1h1.9l-2.4 6.9"/><path d="m295.1 21.7c0 .8.2 1 .4 1.1v.3h-2c-.1-.3-.1-.4-.2-.8-.4.4-1 1-2.2 1-1 0-2.1-.6-2.1-2 0-1.4.9-2 2-2.2l1.6-.2c.3 0 .6-.2.6-.5 0-.8-.7-.8-1.2-.8-.9 0-1.1.6-1.1 1h-1.8c.2-2.1 1.7-2.4 3.1-2.4 1 0 2.8.3 2.8 2v3.5zm-1.8-2c-.2.1-.5.3-1.2.4-.7.1-1.2.3-1.2 1 0 .6.5.8.8.8.8 0 1.6-.5 1.6-1.4v-.8"/><path d="m298.8 16.2h1.1v1.3h-1.1v3.8c0 .4 0 .6.8.6.1 0 .2 0 .4 0v1.4c-.3 0-.6 0-.9 0h-.2c-1.6 0-1.9-.6-1.9-1.5v-4.2h-1v-1.3h.9v-1.9h1.8v1.8z"/><path d="m302.9 15.4h-1.8v-1.7h1.8v1.7m0 .8v6.9h-1.8v-6.9h1.8"/><path d="m307.8 23.3c-1.9 0-3.5-1.1-3.5-3.6s1.7-3.6 3.5-3.6c1.9 0 3.5 1.1 3.5 3.6s-1.6 3.6-3.5 3.6m0-5.8c-1.4 0-1.7 1.2-1.7 2.1s.3 2.1 1.7 2.1c1.4 0 1.7-1.2 1.7-2.1s-.3-2.1-1.7-2.1"/><path d="m318.9 23.1h-1.9v-4.2c0-.5 0-1.4-1.2-1.4-.8 0-1.4.5-1.4 1.6v4h-1.8v-6.9h1.7v1c.2-.4.8-1.2 2.1-1.2 1.4 0 2.4.8 2.4 2.3v4.8z"/><path d="m324.5 18.3c-.1-.4-.2-.9-1.2-.9s-1.1.4-1.1.7c0 1.1 4.3.3 4.3 2.8 0 2-2 2.4-3 2.4-1.6 0-3.3-.5-3.3-2.4h1.9c0 .6.4 1 1.5 1 .9 0 1.2-.5 1.2-.7 0-1.2-4.3-.3-4.3-2.9 0-1 .6-2.3 2.8-2.3 1.4 0 3 .3 3.1 2.3h-1.9"/></g><path fill="#fff" d="m211.8 37.8h143.3v59.2h-143.3z"/><g fill="#717171"><path d="m220 47.7h3.5c1.5 0 2.2.9 2.2 2 0 .5-.2 1.2-1.1 1.7.5.2 1.4.6 1.4 1.9 0 1.3-.9 2.3-2.7 2.3h-3.3v-7.9m1 3.4h1.9c1 0 1.7-.3 1.7-1.3 0-.7-.5-1.2-1.6-1.2h-2v2.5m0 3.6h2.3c1.1 0 1.7-.6 1.7-1.4 0-1.1-1-1.3-1.8-1.3h-2.2v2.7"/><path d="m229.5 49.7c1.8 0 2.7 1.6 2.7 3 0 1.5-.8 3-2.7 3-1.8 0-2.7-1.6-2.7-3 .1-1.4.9-3 2.7-3m0 5.3c1.4 0 1.7-1.4 1.7-2.2 0-.8-.3-2.2-1.7-2.2-1.4 0-1.7 1.4-1.7 2.2.1.7.3 2.2 1.7 2.2"/><path d="m235.7 49.7c1.8 0 2.7 1.6 2.7 3 0 1.5-.8 3-2.7 3-1.8 0-2.7-1.6-2.7-3 0-1.4.8-3 2.7-3m0 5.3c1.4 0 1.7-1.4 1.7-2.2 0-.8-.3-2.2-1.7-2.2-1.4 0-1.7 1.4-1.7 2.2 0 .7.3 2.2 1.7 2.2"/><path d="m244.2 55.6h-1.2l-1.8-2.9-.8.7v2.2h-.9v-7.9h.9v4.6l2.5-2.4h1.2l-2.2 2.1 2.3 3.6"/><path d="m251.2 51.5c0-.4-.1-1-1.4-1-.3 0-1.1.1-1.1.8 0 .5.3.6 1 .8l1 .2c1.2.3 1.6.7 1.6 1.5 0 1.2-1 1.9-2.3 1.9-2.3 0-2.4-1.3-2.5-2h.9c0 .5.2 1.2 1.5 1.2.7 0 1.3-.3 1.3-.9 0-.5-.3-.6-1.1-.8l-1.1-.3c-.8-.2-1.3-.6-1.3-1.4 0-1.3 1-1.8 2.2-1.8 2.1 0 2.2 1.5 2.2 1.8h-.9"/><path d="m253.4 49.9h.9v.8c.2-.3.7-1 1.7-1 1.5 0 2.4 1.3 2.4 2.9 0 1.4-.6 3.2-2.5 3.2-.8 0-1.3-.4-1.5-.8v2.9h-1v-8m2.5 5.1c1.1 0 1.6-1 1.6-2.2 0-.7-.1-2.2-1.6-2.2-1.4 0-1.6 1.5-1.6 2.4 0 1.6 1 2 1.6 2"/><path d="m259.6 51.6c0-1.4 1-1.9 2.4-1.9.5 0 2.1.1 2.1 1.6v3.3c0 .2.1.3.3.3.1 0 .2 0 .3 0v.7c-.2 0-.3.1-.5.1-.9 0-1-.4-1-.9-.4.4-1 .9-2.1.9-1.1 0-1.8-.7-1.8-1.7 0-.5.1-1.6 1.7-1.8l1.6-.2c.2 0 .5-.1.5-.7 0-.6-.4-.9-1.4-.9-1.1 0-1.3.7-1.3 1.1h-.8zm3.5 1.1c-.2.1-.4.2-1.6.4-.5.1-1.2.2-1.2.9 0 .6.3 1 1 1 .9 0 1.8-.6 1.8-1.4v-.9"/><path d="m269.3 51.8c-.1-.8-.5-1.2-1.4-1.2-1.2 0-1.6 1.1-1.6 2.2 0 1 .2 2.2 1.6 2.2.6 0 1.2-.5 1.4-1.4h.9c-.1.9-.7 2.2-2.3 2.2-1.6 0-2.6-1.2-2.6-2.9 0-1.8.9-3.2 2.8-3.2 1.5 0 2.1 1.1 2.2 2.1h-1"/><path d="m276.1 53.8c0 .3-.3 1.1-1 1.6-.3.2-.6.4-1.6.4-1.6 0-2.6-1.2-2.6-2.9 0-1.8.9-3.2 2.8-3.2 1.7 0 2.5 1.3 2.5 3.4h-4.2c0 1.2.6 1.9 1.7 1.9.9 0 1.5-.7 1.5-1.1h.9zm-.9-1.5c-.1-.9-.4-1.7-1.6-1.7-.9 0-1.6.8-1.6 1.7h3.2"/><path d="m281.6 50.7v3.7c0 .5.4.5.6.5h.3v.8c-.4 0-.6.1-.7.1-1 0-1.2-.5-1.2-1.2v-3.8h-.8v-.8h.8v-1.6h1v1.6h.9v.8h-.9z"/><path d="m284.5 55.6h-1v-5.8h.9v1c.4-.7.9-1.1 1.6-1.1.1 0 .2 0 .3 0v1h-.3c-.9 0-1.5.7-1.5 1.5v3.4"/><path d="m287 51.6c0-1.4 1-1.9 2.4-1.9.5 0 2.1.1 2.1 1.6v3.3c0 .2.1.3.3.3.1 0 .2 0 .3 0v.7c-.2 0-.3.1-.5.1-.9 0-1-.4-1-.9-.4.4-1 .9-2.1.9-1.1 0-1.8-.7-1.8-1.7 0-.5.1-1.6 1.7-1.8l1.6-.2c.2 0 .5-.1.5-.7 0-.6-.4-.9-1.4-.9-1.1 0-1.3.7-1.3 1.1h-.8zm3.5 1.1c-.2.1-.4.2-1.6.4-.5.1-1.2.2-1.2.9 0 .6.3 1 1 1 .9 0 1.8-.6 1.8-1.4v-.9"/><path d="m296.5 49.9h1.1l-2.2 5.8h-1l-2.1-5.8h1.1l1.5 4.7 1.6-4.7"/><path d="m303 53.8c0 .3-.3 1.1-1 1.6-.3.2-.6.4-1.6.4-1.6 0-2.6-1.2-2.6-2.9 0-1.8.9-3.2 2.8-3.2 1.7 0 2.5 1.3 2.5 3.4h-4.2c0 1.2.6 1.9 1.7 1.9.9 0 1.5-.7 1.5-1.1h.9zm-.9-1.5c-.1-.9-.4-1.7-1.6-1.7-.9 0-1.6.8-1.6 1.7h3.2"/><path d="m305.2 55.6h-1v-7.9h1v7.9"/></g><g fill="#e9e9e9"><path d="m220.3 64.4h116.7v2h-116.7z"/><path d="m220.3 73.3h116.7v2h-116.7z"/><path d="m220.3 82.3h94.2v2h-94.2z"/></g><path fill="#fff" d="m211.8 99.8h143.3v59.2h-143.3z"/><g fill="#717171"><path d="m220 109.7h3.5c1.5 0 2.2.9 2.2 2 0 .5-.2 1.2-1.1 1.7.5.2 1.4.6 1.4 1.9 0 1.3-.9 2.3-2.7 2.3h-3.3v-7.9m1 3.4h1.9c1 0 1.7-.3 1.7-1.3 0-.7-.5-1.2-1.6-1.2h-2v2.5m0 3.6h2.3c1.1 0 1.7-.6 1.7-1.4 0-1.1-1-1.3-1.8-1.3h-2.2v2.7"/><path d="m229.5 111.7c1.8 0 2.7 1.6 2.7 3 0 1.5-.8 3-2.7 3-1.8 0-2.7-1.6-2.7-3 .1-1.4.9-3 2.7-3m0 5.3c1.4 0 1.7-1.4 1.7-2.2 0-.8-.3-2.2-1.7-2.2-1.4 0-1.7 1.4-1.7 2.2.1.7.3 2.2 1.7 2.2"/><path d="m235.7 111.7c1.8 0 2.7 1.6 2.7 3 0 1.5-.8 3-2.7 3-1.8 0-2.7-1.6-2.7-3 0-1.4.8-3 2.7-3m0 5.3c1.4 0 1.7-1.4 1.7-2.2 0-.8-.3-2.2-1.7-2.2-1.4 0-1.7 1.4-1.7 2.2 0 .7.3 2.2 1.7 2.2"/><path d="m244.2 117.6h-1.2l-1.8-2.9-.8.7v2.2h-.9v-7.9h.9v4.6l2.5-2.4h1.2l-2.2 2.1 2.3 3.6"/><path d="m247.9 113.6c0-1.4 1-1.9 2.4-1.9.5 0 2.1.1 2.1 1.6v3.3c0 .2.1.3.3.3.1 0 .2 0 .3 0v.7c-.2 0-.3.1-.5.1-.9 0-1-.4-1-.9-.4.4-1 .9-2.1.9-1.1 0-1.8-.7-1.8-1.7 0-.5.1-1.6 1.7-1.8l1.6-.2c.2 0 .5-.1.5-.7 0-.6-.4-.9-1.4-.9-1.1 0-1.3.7-1.3 1.1h-.8zm3.6 1.1c-.2.1-.4.2-1.6.4-.5.1-1.2.2-1.2.9 0 .6.3 1 1 1 .9 0 1.8-.6 1.8-1.4v-.9"/><path d="m261.8 117.6h-1v-3.8c0-.8-.2-1.3-1.1-1.3-.8 0-1.6.5-1.6 1.9v3.1h-1v-7.9h1v2.9c.3-.4.8-.9 1.7-.9.9 0 2 .4 2 2v4"/><path d="m265.6 111.7c1.8 0 2.7 1.6 2.7 3 0 1.5-.8 3-2.7 3-1.8 0-2.7-1.6-2.7-3 0-1.4.9-3 2.7-3m0 5.3c1.4 0 1.7-1.4 1.7-2.2 0-.8-.3-2.2-1.7-2.2-1.4 0-1.7 1.4-1.7 2.2 0 .7.3 2.2 1.7 2.2"/><path d="m270.6 112.7v3.7c0 .5.4.5.6.5h.3v.8c-.4 0-.6.1-.7.1-1 0-1.2-.5-1.2-1.2v-3.8h-.8v-.8h.8v-1.6h1v1.6h.9v.8h-.9z"/><path d="m277.1 115.8c0 .3-.3 1.1-1 1.6-.3.2-.6.4-1.6.4-1.6 0-2.6-1.2-2.6-2.9 0-1.8.9-3.2 2.8-3.2 1.7 0 2.5 1.3 2.5 3.4h-4.2c0 1.2.6 1.9 1.7 1.9.9 0 1.5-.7 1.5-1.1h.9zm-.9-1.5c-.1-.9-.4-1.7-1.6-1.7-.9 0-1.6.8-1.6 1.7h3.2"/><path d="m279.3 117.6h-1v-7.9h1v7.9"/></g><g fill="#e9e9e9"><path d="m220.3 126.4h116.7v2h-116.7z"/><path d="m220.3 135.3h116.7v2h-116.7z"/><path d="m220.3 144.3h94.2v2h-94.2z"/></g><path fill="#fff" d="m211.8 161.8h143.3v59.2h-143.3z"/><g fill="#717171"><path d="m220 171.7h3.5c1.5 0 2.2.9 2.2 2 0 .5-.2 1.2-1.1 1.7.5.2 1.4.6 1.4 1.9 0 1.3-.9 2.3-2.7 2.3h-3.3v-7.9m1 3.4h1.9c1 0 1.7-.3 1.7-1.3 0-.7-.5-1.2-1.6-1.2h-2v2.5m0 3.6h2.3c1.1 0 1.7-.6 1.7-1.4 0-1.1-1-1.3-1.8-1.3h-2.2v2.7"/><path d="m229.5 173.7c1.8 0 2.7 1.6 2.7 3 0 1.5-.8 3-2.7 3-1.8 0-2.7-1.6-2.7-3 .1-1.4.9-3 2.7-3m0 5.2c1.4 0 1.7-1.4 1.7-2.2 0-.8-.3-2.2-1.7-2.2-1.4 0-1.7 1.4-1.7 2.2.1.8.3 2.2 1.7 2.2"/><path d="m235.7 173.7c1.8 0 2.7 1.6 2.7 3 0 1.5-.8 3-2.7 3-1.8 0-2.7-1.6-2.7-3 0-1.4.8-3 2.7-3m0 5.2c1.4 0 1.7-1.4 1.7-2.2 0-.8-.3-2.2-1.7-2.2-1.4 0-1.7 1.4-1.7 2.2 0 .8.3 2.2 1.7 2.2"/><path d="m244.2 179.6h-1.2l-1.8-2.9-.8.7v2.2h-.9v-7.9h.9v4.6l2.5-2.4h1.2l-2.2 2.1 2.3 3.6"/><path d="m249.1 179.6h-1v-5.8h.9v1c.4-.7.9-1.1 1.6-1.1.1 0 .2 0 .3 0v1h-.4c-.9 0-1.5.7-1.5 1.5v3.4z"/><path d="m256.3 177.8c0 .3-.3 1.1-1 1.6-.3.2-.6.4-1.6.4-1.6 0-2.6-1.2-2.6-2.9 0-1.8.9-3.2 2.8-3.2 1.7 0 2.5 1.3 2.5 3.4h-4.2c0 1.2.6 1.9 1.7 1.9.9 0 1.5-.7 1.5-1.1h.9zm-.9-1.5c-.1-.9-.4-1.7-1.6-1.7-.9 0-1.6.8-1.6 1.7h3.2"/><path d="m262.2 179.6h-1v-3.5c0-1-.3-1.5-1.2-1.5-.5 0-1.5.4-1.5 1.9v3.1h-1v-5.8h.9v.8c.2-.3.7-1 1.7-1 .9 0 2 .4 2 2v4z"/><path d="m264.8 174.7v3.7c0 .5.4.5.6.5h.3v.8c-.4 0-.6.1-.7.1-1 0-1.2-.5-1.2-1.2v-3.8h-.8v-.8h.8v-1.6h1v1.6h.9v.8h-.9z"/><path d="m266.6 175.6c0-1.4 1-1.9 2.4-1.9.5 0 2.1.1 2.1 1.6v3.3c0 .2.1.3.3.3.1 0 .2 0 .3 0v.7c-.2 0-.3.1-.5.1-.9 0-1-.4-1-.9-.4.4-1 .9-2.1.9-1.1 0-1.8-.7-1.8-1.7 0-.5.1-1.6 1.7-1.8l1.6-.2c.2 0 .5-.1.5-.7 0-.6-.4-.9-1.4-.9-1.1 0-1.3.7-1.3 1.1h-.8zm3.5 1.1c-.2.1-.4.2-1.6.4-.5.1-1.2.2-1.2.9 0 .6.3 1 1 1 .9 0 1.8-.6 1.8-1.4v-.9"/><path d="m273.7 179.6h-1v-7.9h1v7.9"/><path d="m281.5 175.5c0-.4-.1-1-1.4-1-.3 0-1.1.1-1.1.8 0 .5.3.6 1 .8l1 .2c1.2.3 1.6.7 1.6 1.5 0 1.2-1 1.9-2.3 1.9-2.3 0-2.4-1.3-2.5-2h.9c0 .5.2 1.2 1.5 1.2.7 0 1.3-.3 1.3-.9 0-.5-.3-.6-1.1-.8l-1.1-.3c-.8-.2-1.3-.6-1.3-1.4 0-1.3 1-1.8 2.2-1.8 2.1 0 2.2 1.5 2.2 1.8h-.9"/><path d="m283.6 173.9h.9v.8c.2-.3.7-1 1.7-1 1.5 0 2.4 1.3 2.4 2.9 0 1.4-.6 3.2-2.5 3.2-.8 0-1.3-.4-1.5-.8v2.9h-1v-8m2.5 5.1c1.1 0 1.6-1 1.6-2.2 0-.7-.1-2.2-1.6-2.2-1.4 0-1.6 1.5-1.6 2.4.1 1.6 1 2 1.6 2"/><path d="m289.8 175.6c0-1.4 1-1.9 2.4-1.9.5 0 2.1.1 2.1 1.6v3.3c0 .2.1.3.3.3.1 0 .2 0 .3 0v.7c-.2 0-.3.1-.5.1-.9 0-1-.4-1-.9-.4.4-1 .9-2.1.9-1.1 0-1.8-.7-1.8-1.7 0-.5.1-1.6 1.7-1.8l1.6-.2c.2 0 .5-.1.5-.7 0-.6-.4-.9-1.4-.9-1.1 0-1.3.7-1.3 1.1h-.8zm3.5 1.1c-.2.1-.4.2-1.6.4-.5.1-1.2.2-1.2.9 0 .6.3 1 1 1 .9 0 1.8-.6 1.8-1.4v-.9"/><path d="m299.5 175.8c-.1-.8-.5-1.2-1.4-1.2-1.2 0-1.6 1.1-1.6 2.2 0 1 .2 2.2 1.6 2.2.6 0 1.2-.5 1.4-1.4h.9c-.1.9-.7 2.2-2.3 2.2-1.6 0-2.6-1.2-2.6-2.9 0-1.8.9-3.2 2.8-3.2 1.5 0 2.1 1.1 2.2 2.1h-1"/><path d="m306.3 177.8c0 .3-.3 1.1-1 1.6-.3.2-.6.4-1.6.4-1.6 0-2.6-1.2-2.6-2.9 0-1.8.9-3.2 2.8-3.2 1.7 0 2.5 1.3 2.5 3.4h-4.2c0 1.2.6 1.9 1.7 1.9.9 0 1.5-.7 1.5-1.1h.9zm-.9-1.5c-.1-.9-.4-1.7-1.6-1.7-.9 0-1.6.8-1.6 1.7h3.2"/></g><g fill="#e9e9e9"><path d="m220.3 188.4h116.7v2h-116.7z"/><path d="m220.3 197.3h116.7v2h-116.7z"/><path d="m220.3 206.3h94.2v2h-94.2z"/></g><path fill="#fff" d="m211.8 223.8h143.3v59.2h-143.3z"/><g fill="#717171"><path d="m220 233.7h3.5c1.5 0 2.2.9 2.2 2 0 .5-.2 1.2-1.1 1.7.5.2 1.4.6 1.4 1.9 0 1.3-.9 2.3-2.7 2.3h-3.3v-7.9m1 3.4h1.9c1 0 1.7-.3 1.7-1.3 0-.7-.5-1.2-1.6-1.2h-2v2.5m0 3.6h2.3c1.1 0 1.7-.6 1.7-1.4 0-1.1-1-1.3-1.8-1.3h-2.2v2.7"/><path d="m229.5 235.7c1.8 0 2.7 1.6 2.7 3 0 1.5-.8 3-2.7 3-1.8 0-2.7-1.6-2.7-3 .1-1.4.9-3 2.7-3m0 5.2c1.4 0 1.7-1.4 1.7-2.2 0-.8-.3-2.2-1.7-2.2-1.4 0-1.7 1.4-1.7 2.2.1.8.3 2.2 1.7 2.2"/><path d="m235.7 235.7c1.8 0 2.7 1.6 2.7 3 0 1.5-.8 3-2.7 3-1.8 0-2.7-1.6-2.7-3 0-1.4.8-3 2.7-3m0 5.2c1.4 0 1.7-1.4 1.7-2.2 0-.8-.3-2.2-1.7-2.2-1.4 0-1.7 1.4-1.7 2.2 0 .8.3 2.2 1.7 2.2"/><path d="m244.2 241.6h-1.2l-1.8-2.9-.8.7v2.2h-.9v-7.9h.9v4.6l2.5-2.4h1.2l-2.2 2.1 2.3 3.6"/><path d="m252.8 241.2c0 .8 0 2.9-2.7 2.9-.7 0-2-.2-2.2-1.7h1c.2.9 1.1.9 1.3.9 1.7 0 1.6-1.3 1.6-2v-.3c-.3.4-.8.8-1.5.8-2 0-2.5-1.8-2.5-3.2 0-1.6.9-2.9 2.4-2.9 1 0 1.5.6 1.7 1v-.8h.9v5.3m-2.5-.2c.6 0 1.6-.4 1.6-1.9 0-.9-.2-2.4-1.6-2.4-1.5 0-1.6 1.4-1.6 2.2 0 1.1.5 2.1 1.6 2.1"/><path d="m255.1 241.6h-1v-5.8h.9v1c.4-.7.9-1.1 1.6-1.1.1 0 .2 0 .3 0v1h-.4c-.9 0-1.5.7-1.5 1.5v3.4z"/><path d="m259.8 235.7c1.8 0 2.7 1.6 2.7 3 0 1.5-.8 3-2.7 3-1.8 0-2.7-1.6-2.7-3 0-1.4.8-3 2.7-3m0 5.2c1.4 0 1.7-1.4 1.7-2.2 0-.8-.3-2.2-1.7-2.2-1.4 0-1.7 1.4-1.7 2.2 0 .8.3 2.2 1.7 2.2"/><path d="m267.3 241.6v-.8c-.4.7-.9 1-1.8 1-.8 0-1.9-.4-1.9-1.8v-4.1h1v3.8c0 .9.5 1.3 1.1 1.3 1.2 0 1.6-1.1 1.6-1.9v-3.2h1v5.8h-1z"/><path d="m269.6 235.9h.9v.8c.2-.3.7-1 1.7-1 1.5 0 2.4 1.3 2.4 2.9 0 1.4-.6 3.2-2.5 3.2-.8 0-1.3-.4-1.5-.8v2.9h-1v-8m2.5 5.1c1.1 0 1.6-1 1.6-2.2 0-.7-.1-2.2-1.6-2.2-1.4 0-1.6 1.5-1.6 2.4 0 1.6 1 2 1.6 2"/><path d="m280 236.7v3.7c0 .5.4.5.6.5h.3v.8c-.4 0-.6.1-.7.1-1 0-1.2-.5-1.2-1.2v-3.8h-.8v-.8h.8v-1.6h1v1.6h.9v.8h-.9z"/><path d="m281.9 234.8v-1.1h1v1.1h-1m1 6.8h-1v-5.8h1v5.8"/><path d="m287.9 237.8c-.1-.8-.5-1.2-1.4-1.2-1.2 0-1.6 1.1-1.6 2.2 0 1 .2 2.2 1.6 2.2.6 0 1.2-.5 1.4-1.4h.9c-.1.9-.7 2.2-2.3 2.2-1.6 0-2.6-1.2-2.6-2.9 0-1.8.9-3.2 2.8-3.2 1.5 0 2.1 1.1 2.2 2.1h-1"/><path d="m294.4 241.6h-1.2l-1.8-2.9-.8.7v2.2h-.9v-7.9h.9v4.6l2.5-2.4h1.2l-2.2 2.1 2.3 3.6"/><path d="m299.8 239.8c0 .3-.3 1.1-1 1.6-.3.2-.6.4-1.6.4-1.6 0-2.6-1.2-2.6-2.9 0-1.8.9-3.2 2.8-3.2 1.7 0 2.5 1.3 2.5 3.4h-4.2c0 1.2.6 1.9 1.7 1.9.9 0 1.5-.7 1.5-1.1h.9zm-.9-1.5c-.1-.9-.4-1.7-1.6-1.7-.9 0-1.6.8-1.6 1.7h3.2"/><path d="m302.2 236.7v3.7c0 .5.4.5.6.5h.3v.8c-.4 0-.6.1-.7.1-1 0-1.2-.5-1.2-1.2v-3.8h-.8v-.8h.8v-1.6h1v1.6h.9v.8h-.9z"/><path d="m307.3 237.5c0-.4-.1-1-1.4-1-.3 0-1.1.1-1.1.8 0 .5.3.6 1 .8l1 .2c1.2.3 1.6.7 1.6 1.5 0 1.2-1 1.9-2.3 1.9-2.3 0-2.4-1.3-2.5-2h.9c0 .5.2 1.2 1.5 1.2.7 0 1.3-.3 1.3-.9 0-.5-.3-.6-1.1-.8l-1.1-.3c-.8-.2-1.3-.6-1.3-1.4 0-1.3 1-1.8 2.2-1.8 2.1 0 2.2 1.5 2.2 1.8h-.9"/></g><g fill="#e9e9e9"><path d="m220.3 250.4h116.7v2h-116.7z"/><path d="m220.3 259.3h116.7v2h-116.7z"/><path d="m220.3 268.3h94.2v2h-94.2z"/></g><path fill="#3773b1" d="m379.1 35.6h148.7v272.1h-148.7z"/><g fill="#333"><path d="m382.8 23.1h-2v-9.3h4.3c1.8 0 2.9 1.2 2.9 3 0 .8-.5 3-3 3h-2.2v3.3m1.8-5c1.5 0 1.5-1 1.5-1.5 0-.9-.5-1.3-1.7-1.3h-1.5v2.7h1.7z"/><path d="m389.1 16.2h1.7v1.2c.4-.7.8-1.4 1.9-1.4.1 0 .2 0 .4 0v1.8c-.2 0-.4 0-.5 0-1.4 0-1.7.9-1.7 1.7v3.6h-1.8v-6.9"/><path d="m397 23.3c-1.9 0-3.5-1.1-3.5-3.6s1.7-3.6 3.5-3.6c1.9 0 3.5 1.1 3.5 3.6s-1.6 3.6-3.5 3.6m0-5.8c-1.4 0-1.7 1.2-1.7 2.1s.3 2.1 1.7 2.1c1.4 0 1.7-1.2 1.7-2.1s-.3-2.1-1.7-2.1"/><path d="m411.7 23.1h-1.8v-4.2c0-1-.5-1.4-1-1.4-.9 0-1.2.6-1.2 1.4v4.1h-1.8v-4.2c0-.6 0-1.4-1.1-1.4-.9 0-1.1.6-1.1 1.4v4.2h-1.8v-6.9h1.7v1c.2-.5.7-1.2 2-1.2 1 0 1.5.4 1.9 1.1.2-.3.7-1.1 1.8-1.1 1.4 0 2.4.8 2.4 2.3v4.9"/><path d="m416.5 23.3c-1.9 0-3.5-1.1-3.5-3.6s1.7-3.6 3.5-3.6c1.9 0 3.5 1.1 3.5 3.6s-1.6 3.6-3.5 3.6m0-5.8c-1.4 0-1.7 1.2-1.7 2.1s.3 2.1 1.7 2.1c1.4 0 1.7-1.2 1.7-2.1s-.3-2.1-1.7-2.1"/><path d="m425.3 18.3c-.1-.4-.2-.9-1.2-.9s-1.1.4-1.1.7c0 1.1 4.3.3 4.3 2.8 0 2-2 2.4-3 2.4-1.6 0-3.3-.5-3.3-2.4h1.9c0 .6.4 1 1.5 1 .9 0 1.2-.5 1.2-.7 0-1.2-4.3-.3-4.3-2.9 0-1 .6-2.3 2.8-2.3 1.4 0 3 .3 3.1 2.3h-1.9"/><path d="m437.8 21.7c0 .8.2 1 .4 1.1v.3h-2c-.1-.3-.1-.4-.2-.8-.4.4-1 1-2.2 1-1 0-2.1-.6-2.1-2 0-1.4.9-2 2-2.2l1.6-.2c.3 0 .6-.2.6-.5 0-.8-.7-.8-1.2-.8-.9 0-1.1.6-1.1 1h-1.8c.2-2.1 1.7-2.4 3.1-2.4 1 0 2.8.3 2.8 2v3.5zm-1.8-2c-.2.1-.5.3-1.2.4-.7.1-1.2.3-1.2 1 0 .6.5.8.8.8.8 0 1.6-.5 1.6-1.4v-.8"/><path d="m445.7 23.1h-1.8v-4.2c0-.5 0-1.4-1.2-1.4-.8 0-1.4.5-1.4 1.6v4h-1.8v-6.9h1.7v1c.2-.4.8-1.2 2.1-1.2 1.4 0 2.4.8 2.4 2.3v4.8"/><path d="m453.7 23.1h-1.8v-.9c-.4.8-1.2 1.1-2 1.1-2.1 0-2.9-1.8-2.9-3.7 0-2.4 1.4-3.6 2.9-3.6 1.2 0 1.7.6 2 1.1v-3.3h1.8v9.3m-3.4-1.3c1.2 0 1.6-1 1.6-2 0-1.1-.3-2.2-1.6-2.2-1.2 0-1.5 1-1.5 2.1 0 .8.4 2.1 1.5 2.1"/><path d="m462.1 23.3c-1.9 0-3.5-1.1-3.5-3.6s1.7-3.6 3.5-3.6c1.9 0 3.5 1.1 3.5 3.6s-1.7 3.6-3.5 3.6m0-5.8c-1.4 0-1.7 1.2-1.7 2.1s.3 2.1 1.7 2.1c1.4 0 1.7-1.2 1.7-2.1s-.3-2.1-1.7-2.1"/><path d="m469 23.1h-1.8v-5.6h-1v-1.3h1v-.6c0-1.4.8-2 2-2 .5 0 .8 0 .9 0v1.5h-.5c-.6 0-.6.2-.6.8v.3h1.2v1.3h-1.2v5.6"/><path d="m472.6 23.1h-1.8v-5.6h-1v-1.3h1v-.6c0-1.4.8-2 2-2 .5 0 .8 0 .9 0v1.5h-.5c-.6 0-.6.2-.6.8v.3h1.2v1.3h-1.2v5.6"/><path d="m480.7 21.1c-.5 1.7-1.9 2.2-3 2.2-2 0-3.4-.9-3.4-3.8 0-.8.3-3.5 3.3-3.5 1.4 0 3.2.7 3.2 3.8v.3h-4.8c.1.5.2 1.7 1.6 1.7.5 0 1-.3 1.2-.8h1.9zm-1.8-2.2c-.1-1.1-.8-1.5-1.4-1.5-.9 0-1.3.5-1.4 1.5h2.8"/><path d="m482 16.2h1.7v1.2c.4-.7.8-1.4 1.9-1.4.1 0 .2 0 .4 0v1.8c-.2 0-.4 0-.5 0-1.4 0-1.7.9-1.7 1.7v3.6h-1.8v-6.9"/><path d="m490.7 18.3c-.1-.4-.2-.9-1.2-.9s-1.1.4-1.1.7c0 1.1 4.3.3 4.3 2.8 0 2-2 2.4-3 2.4-1.6 0-3.3-.5-3.3-2.4h1.9c0 .6.4 1 1.5 1 .9 0 1.2-.5 1.2-.7 0-1.2-4.3-.3-4.3-2.9 0-1 .6-2.3 2.8-2.3 1.4 0 3 .3 3.1 2.3h-1.9"/></g><path fill="#fff" d="m381.8 37.8h143.3v59.2h-143.3z"/><g fill="#717171"><path d="m391.2 55.6h-1.1v-7.9h3.6c1.5 0 2.3.9 2.3 2.2 0 1.1-.6 2.3-2.3 2.3h-2.5v3.4m0-4.2h2.1c1 0 1.6-.4 1.6-1.4 0-1-.7-1.3-1.6-1.3h-2.2v2.7z"/><path d="m401.5 53.8c0 .3-.3 1.1-1 1.6-.3.2-.6.4-1.6.4-1.6 0-2.6-1.2-2.6-2.9 0-1.8.9-3.2 2.8-3.2 1.7 0 2.5 1.3 2.5 3.4h-4.2c0 1.2.6 1.9 1.7 1.9.9 0 1.5-.7 1.5-1.1h.9zm-.9-1.5c-.1-.9-.4-1.7-1.6-1.7-.9 0-1.6.8-1.6 1.7h3.2"/><path d="m403.9 55.6h-1v-5.8h.9v1c.4-.7.9-1.1 1.6-1.1.1 0 .2 0 .3 0v1h-.4c-.9 0-1.5.7-1.5 1.5v3.4z"/><path d="m409.8 51.8c-.1-.8-.5-1.2-1.4-1.2-1.2 0-1.6 1.1-1.6 2.2 0 1 .2 2.2 1.6 2.2.6 0 1.2-.5 1.4-1.4h.9c-.1.9-.7 2.2-2.3 2.2-1.6 0-2.6-1.2-2.6-2.9 0-1.8.9-3.2 2.8-3.2 1.5 0 2.1 1.1 2.2 2.1h-1"/><path d="m416.6 53.8c0 .3-.3 1.1-1 1.6-.3.2-.6.4-1.6.4-1.6 0-2.6-1.2-2.6-2.9 0-1.8.9-3.2 2.8-3.2 1.7 0 2.5 1.3 2.5 3.4h-4.2c0 1.2.6 1.9 1.7 1.9.9 0 1.5-.7 1.5-1.1h.9zm-.9-1.5c-.1-.9-.4-1.7-1.6-1.7-.9 0-1.6.8-1.6 1.7h3.2"/><path d="m422.5 55.6h-1v-3.5c0-1-.3-1.5-1.2-1.5-.5 0-1.5.4-1.5 1.9v3.1h-1v-5.8h.9v.8c.2-.3.7-1 1.7-1 .9 0 2 .4 2 2v4z"/><path d="m425.1 50.7v3.7c0 .5.4.5.6.5h.3v.8c-.4 0-.6.1-.7.1-1 0-1.2-.5-1.2-1.2v-3.8h-.8v-.8h.8v-1.6h1v1.6h.9v.8h-.9z"/><path d="m426.8 51.6c0-1.4 1-1.9 2.4-1.9.5 0 2.1.1 2.1 1.6v3.3c0 .2.1.3.3.3.1 0 .2 0 .3 0v.7c-.2 0-.3.1-.5.1-.9 0-1-.4-1-.9-.4.4-1 .9-2.1.9-1.1 0-1.8-.7-1.8-1.7 0-.5.1-1.6 1.7-1.8l1.6-.2c.2 0 .5-.1.5-.7 0-.6-.4-.9-1.4-.9-1.1 0-1.3.7-1.3 1.1h-.8zm3.6 1.1c-.2.1-.4.2-1.6.4-.5.1-1.2.2-1.2.9 0 .6.3 1 1 1 .9 0 1.8-.6 1.8-1.4v-.9"/><path d="m437.8 55.2c0 .8 0 2.9-2.7 2.9-.7 0-2-.2-2.2-1.7h1c.2.9 1.1.9 1.3.9 1.7 0 1.6-1.3 1.6-2v-.3c-.3.4-.8.8-1.5.8-2 0-2.5-1.8-2.5-3.2 0-1.6.9-2.9 2.4-2.9 1 0 1.5.6 1.7 1v-.8h.9v5.3m-2.5-.2c.6 0 1.6-.4 1.6-1.9 0-.9-.2-2.4-1.6-2.4-1.5 0-1.6 1.4-1.6 2.2 0 1.1.5 2.1 1.6 2.1"/><path d="m444 53.8c0 .3-.3 1.1-1 1.6-.3.2-.6.4-1.6.4-1.6 0-2.6-1.2-2.6-2.9 0-1.8.9-3.2 2.8-3.2 1.7 0 2.5 1.3 2.5 3.4h-4.2c0 1.2.6 1.9 1.7 1.9.9 0 1.5-.7 1.5-1.1h.9zm-.9-1.5c-.1-.9-.4-1.7-1.6-1.7-.9 0-1.6.8-1.6 1.7h3.2"/><path d="m453.1 55.6h-.9v-.8c-.4.8-1.1 1-1.6 1-2 0-2.5-1.8-2.5-3.2 0-1.6.9-2.9 2.4-2.9 1 0 1.5.6 1.7 1v-.1-2.9h1v7.9zm-2.6-.6c.6 0 1.6-.4 1.6-1.9 0-.9-.2-2.4-1.6-2.4-1.5 0-1.6 1.4-1.6 2.2.1 1.1.6 2.1 1.6 2.1"/><path d="m454.4 48.8v-1.1h1v1.1h-1m1 6.8h-1v-5.8h1v5.8"/><path d="m460.1 51.5c0-.4-.1-1-1.4-1-.3 0-1.1.1-1.1.8 0 .5.3.6 1 .8l1 .2c1.2.3 1.6.7 1.6 1.5 0 1.2-1 1.9-2.3 1.9-2.3 0-2.4-1.3-2.5-2h.9c0 .5.2 1.2 1.5 1.2.7 0 1.3-.3 1.3-.9 0-.5-.3-.6-1.1-.8l-1.1-.3c-.8-.2-1.3-.6-1.3-1.4 0-1.3 1-1.8 2.2-1.8 2.1 0 2.2 1.5 2.2 1.8h-.9"/><path d="m465.9 51.8c-.1-.8-.5-1.2-1.4-1.2-1.2 0-1.6 1.1-1.6 2.2 0 1 .2 2.2 1.6 2.2.6 0 1.2-.5 1.4-1.4h.9c-.1.9-.7 2.2-2.3 2.2-1.6 0-2.6-1.2-2.6-2.9 0-1.8.9-3.2 2.8-3.2 1.5 0 2.1 1.1 2.2 2.1h-1"/><path d="m470.2 49.7c1.8 0 2.7 1.6 2.7 3 0 1.5-.8 3-2.7 3-1.8 0-2.7-1.6-2.7-3 0-1.4.8-3 2.7-3m0 5.3c1.4 0 1.7-1.4 1.7-2.2 0-.8-.3-2.2-1.7-2.2-1.4 0-1.7 1.4-1.7 2.2 0 .7.3 2.2 1.7 2.2"/><path d="m477.7 55.6v-.8c-.4.7-.9 1-1.8 1-.8 0-1.9-.4-1.9-1.8v-4.1h1v3.8c0 .9.5 1.3 1.1 1.3 1.2 0 1.6-1.1 1.6-1.9v-3.2h1v5.8h-1z"/><path d="m484.8 55.6h-1v-3.5c0-1-.3-1.5-1.2-1.5-.5 0-1.5.4-1.5 1.9v3.1h-1v-5.8h.9v.8c.2-.3.7-1 1.7-1 .9 0 2 .4 2 2v4z"/><path d="m487.4 50.7v3.7c0 .5.4.5.6.5h.3v.8c-.4 0-.6.1-.7.1-1 0-1.2-.5-1.2-1.2v-3.8h-.8v-.8h.8v-1.6h1v1.6h.9v.8h-.9z"/><path d="m492.5 51.5c0-.4-.1-1-1.4-1-.3 0-1.1.1-1.1.8 0 .5.3.6 1 .8l1 .2c1.2.3 1.6.7 1.6 1.5 0 1.2-1 1.9-2.3 1.9-2.3 0-2.4-1.3-2.5-2h.9c0 .5.2 1.2 1.5 1.2.7 0 1.3-.3 1.3-.9 0-.5-.3-.6-1.1-.8l-1.1-.3c-.8-.2-1.3-.6-1.3-1.4 0-1.3 1-1.8 2.2-1.8 2.1 0 2.2 1.5 2.2 1.8h-.9"/></g><g fill="#e9e9e9"><path d="m390.3 64.4h116.7v2h-116.7z"/><path d="m390.3 73.3h116.7v2h-116.7z"/><path d="m390.3 82.3h94.2v2h-94.2z"/></g><path fill="#fff" d="m381.8 99.8h143.3v59.2h-143.3z"/><g fill="#717171"><path d="m395.5 112.1c-.3-1.4-1.5-1.6-2.2-1.6-1.4 0-2.6 1.1-2.6 3.1 0 1.9.7 3.3 2.6 3.3.7 0 1.9-.3 2.3-2.2h1c-.4 3-2.9 3.1-3.5 3.1-1.8 0-3.6-1.2-3.6-4.2 0-2.4 1.4-4.1 3.7-4.1 2 0 3.1 1.3 3.2 2.6h-.9"/><path d="m400 111.7c1.8 0 2.7 1.6 2.7 3 0 1.5-.8 3-2.7 3-1.8 0-2.7-1.6-2.7-3 0-1.4.8-3 2.7-3m0 5.3c1.4 0 1.7-1.4 1.7-2.2 0-.8-.3-2.2-1.7-2.2-1.4 0-1.7 1.4-1.7 2.2 0 .7.3 2.2 1.7 2.2"/><path d="m403.7 111.9h.9v.8c.2-.3.7-1 1.7-1s1.4.6 1.5.9c.5-.5.9-.9 1.8-.9.6 0 1.8.3 1.8 1.9v4h-1v-3.7c0-.8-.2-1.3-1.1-1.3-.8 0-1.4.8-1.4 1.5v3.5h-1v-4c0-.5-.2-1.1-.9-1.1-.5 0-1.5.4-1.5 1.9v3.1h-1v-5.6z"/><path d="m412.8 111.9h.9v.8c.2-.3.7-1 1.7-1 1.5 0 2.4 1.3 2.4 2.9 0 1.4-.6 3.2-2.5 3.2-.8 0-1.3-.4-1.5-.8v2.9h-1v-8m2.5 5.1c1.1 0 1.6-1 1.6-2.2 0-.7-.1-2.2-1.6-2.2-1.4 0-1.6 1.5-1.6 2.4.1 1.6 1 2 1.6 2"/><path d="m419 113.6c0-1.4 1-1.9 2.4-1.9.5 0 2.1.1 2.1 1.6v3.3c0 .2.1.3.3.3.1 0 .2 0 .3 0v.7c-.2 0-.3.1-.5.1-.9 0-1-.4-1-.9-.4.4-1 .9-2.1.9-1.1 0-1.8-.7-1.8-1.7 0-.5.1-1.6 1.7-1.8l1.6-.2c.2 0 .5-.1.5-.7 0-.6-.4-.9-1.4-.9-1.1 0-1.3.7-1.3 1.1h-.8zm3.5 1.1c-.2.1-.4.2-1.6.4-.5.1-1.2.2-1.2.9 0 .6.3 1 1 1 .9 0 1.8-.6 1.8-1.4v-.9"/><path d="m429.8 117.6h-1v-3.5c0-1-.3-1.5-1.2-1.5-.5 0-1.5.4-1.5 1.9v3.1h-1v-5.8h.9v.8c.2-.3.7-1 1.7-1 .9 0 2 .4 2 2v4z"/><path d="m431.3 110.8v-1.1h1v1.1h-1m.9 6.8h-1v-5.8h1v5.8"/><path d="m436 111.7c1.8 0 2.7 1.6 2.7 3 0 1.5-.8 3-2.7 3-1.8 0-2.7-1.6-2.7-3 .1-1.4.9-3 2.7-3m0 5.3c1.4 0 1.7-1.4 1.7-2.2 0-.8-.3-2.2-1.7-2.2-1.4 0-1.7 1.4-1.7 2.2.1.7.4 2.2 1.7 2.2"/><path d="m444.5 117.6h-1v-3.5c0-1-.3-1.5-1.2-1.5-.5 0-1.5.4-1.5 1.9v3.1h-1v-5.8h.9v.8c.2-.3.7-1 1.7-1 .9 0 2 .4 2 2v4z"/><path d="m450.2 112.7v5h-1v-5h-.8v-.8h.8v-1c0-.9.5-1.3 1.5-1.3.1 0 .3 0 .4 0v.9c-.1 0-.3 0-.4 0-.4 0-.6.2-.6.7v.7h1v.8h-.9m2.8 4.9h-1v-7.9h1v7.9"/><path d="m454.3 110.8v-1.1h1v1.1h-1m1 6.8h-1v-5.8h1v5.8"/><path d="m461.7 115.8c0 .3-.3 1.1-1 1.6-.3.2-.6.4-1.6.4-1.6 0-2.6-1.2-2.6-2.9 0-1.8.9-3.2 2.8-3.2 1.7 0 2.5 1.3 2.5 3.4h-4.2c0 1.2.6 1.9 1.7 1.9.9 0 1.5-.7 1.5-1.1h.9zm-1-1.5c-.1-.9-.4-1.7-1.6-1.7-.9 0-1.6.8-1.6 1.7h3.2"/><path d="m466.1 113.5c0-.4-.1-1-1.4-1-.3 0-1.1.1-1.1.8 0 .5.3.6 1 .8l1 .2c1.2.3 1.6.7 1.6 1.5 0 1.2-1 1.9-2.3 1.9-2.3 0-2.4-1.3-2.5-2h.9c0 .5.2 1.2 1.5 1.2.7 0 1.3-.3 1.3-.9 0-.5-.3-.6-1.1-.8l-1.1-.3c-.8-.2-1.3-.6-1.3-1.4 0-1.3 1-1.8 2.2-1.8 2.1 0 2.2 1.5 2.2 1.8h-.9"/><path d="m472.6 112.7v5h-1v-5h-.8v-.8h.8v-1c0-.9.5-1.3 1.5-1.3.1 0 .3 0 .4 0v.9c-.1 0-.3 0-.4 0-.4 0-.6.2-.6.7v.7h1v.8h-.9"/><path d="m475.6 117.6h-1v-5.8h.9v1c.4-.7.9-1.1 1.6-1.1.1 0 .2 0 .3 0v1h-.4c-.9 0-1.5.7-1.5 1.5v3.4z"/><path d="m482.8 115.8c0 .3-.3 1.1-1 1.6-.3.2-.6.4-1.6.4-1.6 0-2.6-1.2-2.6-2.9 0-1.8.9-3.2 2.8-3.2 1.7 0 2.5 1.3 2.5 3.4h-4.2c0 1.2.6 1.9 1.7 1.9.9 0 1.5-.7 1.5-1.1h.9zm-.9-1.5c-.1-.9-.4-1.7-1.6-1.7-.9 0-1.6.8-1.6 1.7h3.2"/><path d="m488.9 115.8c0 .3-.3 1.1-1 1.6-.3.2-.6.4-1.6.4-1.6 0-2.6-1.2-2.6-2.9 0-1.8.9-3.2 2.8-3.2 1.7 0 2.5 1.3 2.5 3.4h-4.2c0 1.2.6 1.9 1.7 1.9.9 0 1.5-.7 1.5-1.1h.9zm-.9-1.5c-.1-.9-.4-1.7-1.6-1.7-.9 0-1.6.8-1.6 1.7h3.2"/></g><g fill="#e9e9e9"><path d="m390.3 126.4h116.7v2h-116.7z"/><path d="m390.3 135.3h116.7v2h-116.7z"/><path d="m390.3 144.3h94.2v2h-94.2z"/></g><path fill="#fff" d="m381.8 161.8h143.3v59.2h-143.3z"/><g fill="#717171"><path d="m395.5 174.1c-.3-1.4-1.5-1.6-2.2-1.6-1.4 0-2.6 1.1-2.6 3.1 0 1.9.7 3.3 2.6 3.3.7 0 1.9-.3 2.3-2.2h1c-.4 3-2.9 3.1-3.5 3.1-1.8 0-3.6-1.2-3.6-4.2 0-2.4 1.4-4.1 3.7-4.1 2 0 3.1 1.3 3.2 2.6h-.9"/><path d="m401.5 179.6v-.8c-.4.7-.9 1-1.8 1-.8 0-1.9-.4-1.9-1.8v-4.1h1v3.8c0 .9.5 1.3 1.1 1.3 1.2 0 1.6-1.1 1.6-1.9v-3.2h1v5.8h-1z"/><path d="m407.2 175.5c0-.4-.1-1-1.4-1-.3 0-1.1.1-1.1.8 0 .5.3.6 1 .8l1 .2c1.2.3 1.6.7 1.6 1.5 0 1.2-1 1.9-2.3 1.9-2.3 0-2.4-1.3-2.5-2h.9c0 .5.2 1.2 1.5 1.2.7 0 1.3-.3 1.3-.9 0-.5-.3-.6-1.1-.8l-1.1-.3c-.8-.2-1.3-.6-1.3-1.4 0-1.3 1-1.8 2.2-1.8 2.1 0 2.2 1.5 2.2 1.8h-.9"/><path d="m410.6 174.7v3.7c0 .5.4.5.6.5h.3v.8c-.4 0-.6.1-.7.1-1 0-1.2-.5-1.2-1.2v-3.8h-.8v-.8h.8v-1.6h1v1.6h.9v.8h-.9z"/><path d="m414.6 173.7c1.8 0 2.7 1.6 2.7 3 0 1.5-.8 3-2.7 3-1.8 0-2.7-1.6-2.7-3 0-1.4.9-3 2.7-3m0 5.2c1.4 0 1.7-1.4 1.7-2.2 0-.8-.3-2.2-1.7-2.2-1.4 0-1.7 1.4-1.7 2.2 0 .8.3 2.2 1.7 2.2"/><path d="m418.4 173.9h.9v.8c.2-.3.7-1 1.7-1s1.4.6 1.5.9c.5-.5.9-.9 1.8-.9.6 0 1.8.3 1.8 1.9v4h-1v-3.7c0-.8-.2-1.3-1.1-1.3-.8 0-1.4.8-1.4 1.5v3.5h-1v-4c0-.5-.2-1.1-.9-1.1-.5 0-1.5.4-1.5 1.9v3.1h-1v-5.6z"/><path d="m432.4 177.8c0 .3-.3 1.1-1 1.6-.3.2-.6.4-1.6.4-1.6 0-2.6-1.2-2.6-2.9 0-1.8.9-3.2 2.8-3.2 1.7 0 2.5 1.3 2.5 3.4h-4.2c0 1.2.6 1.9 1.7 1.9.9 0 1.5-.7 1.5-1.1h.9zm-.9-1.5c-.1-.9-.4-1.7-1.6-1.7-.9 0-1.6.8-1.6 1.7h3.2"/><path d="m434.7 179.6h-1v-5.8h.9v1c.4-.7.9-1.1 1.6-1.1.1 0 .2 0 .3 0v1h-.4c-.9 0-1.5.7-1.5 1.5v3.4z"/><path d="m441.4 179.6h-1v-7.9h1v7.9"/><path d="m445.2 173.7c1.8 0 2.7 1.6 2.7 3 0 1.5-.8 3-2.7 3-1.8 0-2.7-1.6-2.7-3 0-1.4.8-3 2.7-3m0 5.2c1.4 0 1.7-1.4 1.7-2.2 0-.8-.3-2.2-1.7-2.2-1.4 0-1.7 1.4-1.7 2.2 0 .8.3 2.2 1.7 2.2"/><path d="m452.2 173.9h1.1c-.7 1.9-1.3 3.8-2.1 5.6-.9 2.3-1 2.5-2.3 2.5-.1 0-.3 0-.4-.1v-.9c.1 0 .3.1.6.1.5 0 .6-.1 1-1.3l-2.1-5.9h1.1l1.5 4.7 1.6-4.7"/><path d="m453.8 175.6c0-1.4 1-1.9 2.4-1.9.5 0 2.1.1 2.1 1.6v3.3c0 .2.1.3.3.3.1 0 .2 0 .3 0v.7c-.2 0-.3.1-.5.1-.9 0-1-.4-1-.9-.4.4-1 .9-2.1.9-1.1 0-1.8-.7-1.8-1.7 0-.5.1-1.6 1.7-1.8l1.6-.2c.2 0 .5-.1.5-.7 0-.6-.4-.9-1.4-.9-1.1 0-1.3.7-1.3 1.1h-.8zm3.6 1.1c-.2.1-.4.2-1.6.4-.5.1-1.2.2-1.2.9 0 .6.3 1 1 1 .9 0 1.8-.6 1.8-1.4v-.9"/><path d="m461 179.6h-1v-7.9h1v7.9"/><path d="m463.6 174.7v3.7c0 .5.4.5.6.5h.3v.8c-.4 0-.6.1-.7.1-1 0-1.2-.5-1.2-1.2v-3.8h-.8v-.8h.8v-1.6h1v1.6h.9v.8h-.9z"/><path d="m469.3 173.9h1.1c-.7 1.9-1.3 3.8-2.1 5.6-.9 2.3-1 2.5-2.3 2.5-.1 0-.3 0-.4-.1v-.9c.1 0 .3.1.6.1.5 0 .6-.1 1-1.3l-2.1-5.9h1.1l1.5 4.7 1.6-4.7"/></g><g fill="#e9e9e9"><path d="m390.3 188.4h116.7v2h-116.7z"/><path d="m390.3 197.3h116.7v2h-116.7z"/><path d="m390.3 206.3h94.2v2h-94.2z"/></g><path fill="#fff" d="m381.8 223.8h143.3v59.2h-143.3z"/><g fill="#717171"><path d="m391.2 241.6h-1.1v-7.9h5.5v.9h-4.4v2.4h3.9v.9h-3.9v3.7"/><path d="m396 237.6c0-1.4 1-1.9 2.4-1.9.5 0 2.1.1 2.1 1.6v3.3c0 .2.1.3.3.3.1 0 .2 0 .3 0v.7c-.2 0-.3.1-.5.1-.9 0-1-.4-1-.9-.4.4-1 .9-2.1.9-1.1 0-1.8-.7-1.8-1.7 0-.5.1-1.6 1.7-1.8l1.6-.2c.2 0 .5-.1.5-.7 0-.6-.4-.9-1.4-.9-1.1 0-1.3.7-1.3 1.1h-.8zm3.5 1.1c-.2.1-.4.2-1.6.4-.5.1-1.2.2-1.2.9 0 .6.3 1 1 1 .9 0 1.8-.6 1.8-1.4v-.9"/><path d="m402.1 235.9h.9v.8c.2-.3.7-1 1.7-1s1.4.6 1.5.9c.5-.5.9-.9 1.8-.9.6 0 1.8.3 1.8 1.9v4h-1v-3.7c0-.8-.2-1.3-1.1-1.3-.8 0-1.4.8-1.4 1.5v3.5h-1v-4c0-.5-.2-1.1-.9-1.1-.5 0-1.5.4-1.5 1.9v3.1h-1v-5.6z"/><path d="m411.3 234.8v-1.1h1v1.1h-1m1 6.8h-1v-5.8h1v5.8"/><path d="m414.7 241.6h-1v-7.9h1v7.9"/><path d="m419.6 235.9h1.1c-.7 1.9-1.3 3.8-2.1 5.6-.9 2.3-1 2.5-2.3 2.5-.1 0-.3 0-.4-.1v-.9c.1 0 .3.1.6.1.5 0 .6-.1 1-1.3l-2.1-5.9h1.1l1.5 4.7 1.6-4.7"/><path d="m429.3 241.6h-.9v-.8c-.4.8-1.1 1-1.6 1-2 0-2.5-1.8-2.5-3.2 0-1.6.9-2.9 2.4-2.9 1 0 1.5.6 1.7 1v-.1-2.9h1v7.9zm-2.6-.6c.6 0 1.6-.4 1.6-1.9 0-.9-.2-2.4-1.6-2.4-1.5 0-1.6 1.4-1.6 2.2.1 1.1.6 2.1 1.6 2.1"/><path d="m430.7 234.8v-1.1h1v1.1h-1m.9 6.8h-1v-5.8h1v5.8"/><path d="m436.3 237.5c0-.4-.1-1-1.4-1-.3 0-1.1.1-1.1.8 0 .5.3.6 1 .8l1 .2c1.2.3 1.6.7 1.6 1.5 0 1.2-1 1.9-2.3 1.9-2.3 0-2.4-1.3-2.5-2h.9c0 .5.2 1.2 1.5 1.2.7 0 1.3-.3 1.3-.9 0-.5-.3-.6-1.1-.8l-1.1-.3c-.8-.2-1.3-.6-1.3-1.4 0-1.3 1-1.8 2.2-1.8 2.1 0 2.2 1.5 2.2 1.8h-.9"/><path d="m442.2 237.8c-.1-.8-.5-1.2-1.4-1.2-1.2 0-1.6 1.1-1.6 2.2 0 1 .2 2.2 1.6 2.2.6 0 1.2-.5 1.4-1.4h.9c-.1.9-.7 2.2-2.3 2.2-1.6 0-2.6-1.2-2.6-2.9 0-1.8.9-3.2 2.8-3.2 1.5 0 2.1 1.1 2.2 2.1h-1"/><path d="m446.4 235.7c1.8 0 2.7 1.6 2.7 3 0 1.5-.8 3-2.7 3-1.8 0-2.7-1.6-2.7-3 .1-1.4.9-3 2.7-3m0 5.2c1.4 0 1.7-1.4 1.7-2.2 0-.8-.3-2.2-1.7-2.2-1.4 0-1.7 1.4-1.7 2.2.1.8.3 2.2 1.7 2.2"/><path d="m454 241.6v-.8c-.4.7-.9 1-1.8 1-.8 0-1.9-.4-1.9-1.8v-4.1h1v3.8c0 .9.5 1.3 1.1 1.3 1.2 0 1.6-1.1 1.6-1.9v-3.2h1v5.8h-1z"/><path d="m461 241.6h-1v-3.5c0-1-.3-1.5-1.2-1.5-.5 0-1.5.4-1.5 1.9v3.1h-1v-5.8h.9v.8c.2-.3.7-1 1.7-1 .9 0 2 .4 2 2v4z"/><path d="m463.6 236.7v3.7c0 .5.4.5.6.5h.3v.8c-.4 0-.6.1-.7.1-1 0-1.2-.5-1.2-1.2v-3.8h-.8v-.8h.8v-1.6h1v1.6h.9v.8h-.9z"/><path d="m468.8 237.5c0-.4-.1-1-1.4-1-.3 0-1.1.1-1.1.8 0 .5.3.6 1 .8l1 .2c1.2.3 1.6.7 1.6 1.5 0 1.2-1 1.9-2.3 1.9-2.3 0-2.4-1.3-2.5-2h.9c0 .5.2 1.2 1.5 1.2.7 0 1.3-.3 1.3-.9 0-.5-.3-.6-1.1-.8l-1.1-.3c-.8-.2-1.3-.6-1.3-1.4 0-1.3 1-1.8 2.2-1.8 2.1 0 2.2 1.5 2.2 1.8h-.9"/></g><g fill="#e9e9e9"><path d="m390.3 250.4h116.7v2h-116.7z"/><path d="m390.3 259.3h116.7v2h-116.7z"/><path d="m390.3 268.3h94.2v2h-94.2z"/></g></svg>