<?xml version="1.0" encoding="utf-8"?>
<!-- Generator: Adobe Illustrator 16.2.1, SVG Export Plug-In . SVG Version: 6.00 Build 0)  -->
<!DOCTYPE svg PUBLIC "-//W3C//DTD SVG 1.1//EN" "http://www.w3.org/Graphics/SVG/1.1/DTD/svg11.dtd">
<svg version="1.1" id="Layer_1" xmlns="http://www.w3.org/2000/svg" xmlns:xlink="http://www.w3.org/1999/xlink" x="0px" y="0px"
	 width="300px" height="300px" viewBox="0 0 300 300" enable-background="new 0 0 300 300" xml:space="preserve">
<rect fill="#222222" width="300" height="300"/>
<path fill="#3D3D3D" d="M109.604,60.884l0.007,145.464c-7.922-1.648-17.137-1.029-26.275,2.36
	c-20.562,7.638-27.815,26.224-22.364,41.495c5.451,15.287,21.535,21.471,42.096,13.834c17.462-6.489,28.889-20.863,28.607-34.409
	c0,0,0-77.14,0-120.16l87.033-19.945v92.309c-7.923-1.648-17.138-1.029-26.276,2.361c-20.561,7.637-27.813,26.223-22.363,41.494
	c5.451,15.287,21.535,21.472,42.097,13.834c17.464-6.488,28.89-20.862,28.606-34.408V32.69L109.604,60.884z"/>
</svg>
