<?xml version="1.0" encoding="utf-8"?>
<!-- Generator: Adobe Illustrator 16.2.1, SVG Export Plug-In . SVG Version: 6.00 Build 0)  -->
<!DOCTYPE svg PUBLIC "-//W3C//DTD SVG 1.1//EN" "http://www.w3.org/Graphics/SVG/1.1/DTD/svg11.dtd">
<svg version="1.1" id="Layer_1" xmlns="http://www.w3.org/2000/svg" xmlns:xlink="http://www.w3.org/1999/xlink" x="0px" y="0px"
	 width="6912px" height="6912px" viewBox="0 0 6912 6912" enable-background="new 0 0 6912 6912" xml:space="preserve">
<rect x="-10.368" y="13.824" fill="#DCDBDB" width="6912" height="6912"/>
<circle fill="#FA5C4F" cx="4786.561" cy="2830.464" r="1040.256"/>
<path fill="#4F4F4F" d="M2788.992,5101.057c-155.521-895.104-794.881-2567.809-1655.426-3621.889
	c729.217,756.864,1641.602,2284.416,1869.696,3449.088L3024,5121.792c93.312-438.911,362.88-1040.256,736.127-1586.304
	c117.505,200.447,279.938,317.951,380.16,373.248c-580.607,463.104-729.216,857.088-953.855,1437.695
	c-24.191,72.576-58.752,145.151-86.399,221.185c-3.455,10.368-13.824,17.28-24.19,17.28h-176.257
	c-13.823,0-24.191-10.369-27.647-20.736C2858.111,5488.128,2813.184,5242.752,2788.992,5101.057z"/>
<path fill="#4F4F4F" d="M3773.952,5837.184c-238.464-120.959-89.856-120.959,276.479-169.344
	c162.433-20.736,622.08-89.855,622.08-89.855s-311.04-27.647-756.864-82.943c-362.88-44.928-362.88-55.296-248.831-134.784
	c114.048-79.487,262.655-200.448,262.655-200.448s-387.071,169.346-584.062,252.288c-13.824,6.912-17.28,27.647-3.457,38.017
	s27.647,24.192,41.473,44.929c34.56,51.841,34.56,89.856,27.647,117.504c-17.28,72.576-162.433,172.801-418.177,172.801
	c-255.743,0-380.159-89.856-407.809-152.063c-27.647-55.297-20.735-120.961,17.279-162.433c17.28-17.28,38.018-31.104,55.297-38.017
	c17.279-10.369,13.824-34.561-6.912-41.473c-228.096-44.928-570.239-103.68-570.239-103.68l200.448,110.592
	c55.295,31.104,117.504,65.664,20.734,82.942c-82.943,17.28-228.096,48.384-362.879,72.576l-660.097,124.416
	c0,0,452.735,3.456,667.008,17.28c214.272,13.822,497.664-6.912,179.712,124.416l-476.928,224.64c0,0,604.8-114.048,660.096-117.504
	c138.24-24.19,259.2-34.56,283.393-13.823c27.648,20.736,20.736,65.664,0,117.504l-155.521,335.23l266.112-255.742
	c127.872-120.961,172.8-145.152,228.096-145.152c107.137,0,120.96,31.104,176.256,100.225
	c62.209,76.031,127.872,172.799,127.872,172.799s20.736-131.328,34.561-207.358c13.823-76.032,27.647-86.399,55.297-93.312
	c55.296-10.369,228.096,20.735,331.774,48.383c79.488,20.736,673.92,141.696,673.92,141.696S3957.12,5930.496,3773.952,5837.184z"/>
<path fill="none" stroke="#8C645B" stroke-width="3" stroke-miterlimit="10" d="M3393.792,5380.992"/>
<g id="Layer_2" display="none">
	<path display="inline" fill="#3A3A3A" d="M3.456,0v6912h6912V0H3.456z M6566.4,6220.8c0,190.08-155.521,345.601-345.602,345.601
		h-5529.6c-190.079,0-345.601-155.521-345.601-345.601V691.199c0-190.079,155.521-345.601,345.601-345.601H6220.8
		c190.08,0,345.601,155.521,345.601,345.601V6220.8z"/>
</g>
</svg>
