<?xml version="1.0" encoding="utf-8"?>
<!-- Generator: Adobe Illustrator 15.1.0, SVG Export Plug-In . SVG Version: 6.00 Build 0)  -->
<!DOCTYPE svg PUBLIC "-//W3C//DTD SVG 1.1//EN" "http://www.w3.org/Graphics/SVG/1.1/DTD/svg11.dtd">
<svg version="1.1" id="Layer_1" xmlns="http://www.w3.org/2000/svg" xmlns:xlink="http://www.w3.org/1999/xlink" x="0px" y="0px"
	 width="700px" height="250px" viewBox="0 0 700 250" enable-background="new 0 0 700 250" xml:space="preserve">
<g>
	<path fill-rule="evenodd" clip-rule="evenodd" fill="#daccc3" d="M693.561,119.81c0,24.081,0,48.161,0,72.241
		c-22.472,16.336-49.58,28.51-89.76,27.119c-35.057-1.211-58.369-15.137-71.04-38.4c-0.755-1.385-1.13-3.346-2.641-4.318
		c-0.159,13.199,0.319,27.039-0.239,39.84c-14.16,0-28.32,0-42.48,0c-0.317-34.488,0.637-70.117-0.479-103.681
		c-11.136,34.466-21.517,69.683-33.12,103.681c-12.801,0-25.601,0-38.4,0c-10.976-34.543-21.568-69.473-32.88-103.681
		c-0.72,34,0.239,69.681-0.48,103.681c-14.08-0.16-28.799,0.318-42.48-0.24c0.16-56.238-0.32-113.122,0.24-168.961
		c19.634-0.15,41.828,0.102,62.88,0c10.653,33.508,21.433,66.886,31.92,100.561c1.54-1.51,1.803-3.842,2.399-5.76
		c9.882-31.762,20.103-63.7,30.24-94.801c20.881,0.16,42.399-0.319,62.88,0.24c0,13.28,0,26.56,0,39.84
		c1.052,0.03,1.131-1.356,1.44-1.92c15.119-27.559,39.241-41.04,81.36-41.04c21.211,0,39.407,2.09,52.56,10.56
		c12.89,8.3,21.369,20.72,25.44,37.2c-16.703,2.977-33.223,6.137-50.16,8.88c-3.045-8.781-8.117-14.501-16.56-17.52
		c-8.746-3.126-20.507-2.919-29.041,0.96c-15.673,7.124-21.601,24.129-21.6,46.8c0.001,22.529,5.23,39.99,20.88,47.52
		c6.53,3.143,19.354,4.83,29.761,2.641c4.977-1.047,8.484-2.422,12.72-4.32c2.104-0.943,10.073-4.299,10.8-6.479
		c1.479-4.438-1.135-11.018,0-15.361c-10.576-0.168-23.828,0.326-34.8-0.24c0.158-10.51-0.324-24.926,0.24-35.04
		C639.96,119.81,666.761,119.81,693.561,119.81z"/>
	<path fill="#daccc3" d="M260.439,87.73c-20.71,0-37.5,16.789-37.5,37.5c0,20.711,16.79,37.5,37.5,37.5s37.5-16.789,37.5-37.5
		C297.939,104.519,281.15,87.73,260.439,87.73z M260.439,131.689c-3.568,0-6.46-2.891-6.46-6.459c0-3.568,2.892-6.46,6.46-6.46
		s6.46,2.892,6.46,6.46C266.899,128.799,264.007,131.689,260.439,131.689z"/>
	<path fill="#daccc3" d="M164.189,194.23c-11.958-16.965-20.163-36.852-21.75-62.5c0-3.602-0.125-8.276-0.125-11.875
		c0.585-8.963,1.411-16.522,3.625-24.75l-16.5-48.375h-59.25l-63.75,169h51.75l10-27.5l59.255,0.451l9.995,28.049l47.25-0.936
		C177.234,209.33,169.746,202.113,164.189,194.23z M116.689,151.48h-37l18.5-56.25l0.133-0.223l0.117,0.223l18.5,56.25H116.689z"/>
	<path fill-rule="evenodd" clip-rule="evenodd" fill="#daccc3" d="M259.119,5.71c0.56,0,1.12,0,1.68,0
		c31.745,1.102,55.455,11.523,73.92,26.4c5.453,4.393,10.74,9.219,14.64,14.64c-5.935,1.216-7.453-2.428-10.56-5.28
		c-19.882-18.251-48.02-33.282-87.12-30.72c-13.08,0.857-24.807,3.937-35.04,8.16c-19.839,8.187-36.557,20.96-48.72,37.68
		c-12.103,16.637-21.485,36.942-22.56,63.84c-1.105,27.665,6.967,50.271,18.72,67.921c11.68,17.539,27.135,31.162,46.08,40.32
		c19.469,9.41,46.699,14.088,72.72,8.879c20.646-4.133,37.609-12.975,51.12-24.48c1.853-1.578,3.494-3.469,5.52-4.799
		c1.136,6.168-1.938,7.734-5.52,10.559c-13.611,10.732-31.45,20.037-51.6,23.521c-13.432,2.322-27.089,2.553-39.84,0.719
		c-12.443-1.787-23.479-5.553-32.88-9.84c-19.011-8.668-35.01-22.732-46.56-39.119c-11.958-16.965-20.493-37.951-22.08-63.6
		c0-3.601,0-7.201,0-10.801c1.057-16.193,4.946-31.742,11.04-44.64c6.114-12.941,13.545-23.737,22.56-33.12
		C193.962,21.837,221.928,7.117,259.119,5.71z"/>
	<path fill-rule="evenodd" clip-rule="evenodd" fill="#daccc3" d="M339.52,198.91c0.649,2.604-1.972,3.893-3.36,5.281
		c-20.206,20.205-54.68,36.395-96.48,28.799c-35.836-6.51-64.199-30.486-78-59.52c-7.592-15.971-12.528-35.777-11.04-57.36
		c1.436-20.824,8.616-37.465,17.76-51.12c17.951-26.807,45.112-47.441,88.081-49.44c33.363-1.552,58.18,11.64,76.08,27.36
		c2.309,2.028,7.249,5.597,6.96,7.68c-0.187,1.347-1.978-1.086-0.96-0.24c-3.144-2.612-6.437-6.015-9.6-8.64
		c-18.65-15.479-43.725-26.814-78-24.24c-12.835,0.964-23.838,4.18-33.12,8.16c-19.102,8.192-34.206,20.634-45.84,36.96
		c-11.575,16.243-19.92,35.574-19.92,62.64c0,26.309,8.257,46.627,19.92,62.881c11.612,16.182,26.682,28.646,45.84,36.719
		c19.547,8.238,45.926,11.479,70.32,4.801c20.204-5.531,36.013-15.35,48.96-28.561C337.854,200.32,338.6,199.496,339.52,198.91z"/>
	<path fill-rule="evenodd" clip-rule="evenodd" fill="#daccc3" d="M339.52,58.991c-0.97,0.354-1.33-1.042-1.68-1.44
		c-8.812-10.035-19.825-18.688-32.88-24.96c-13.786-6.623-30.553-11.459-51.6-10.08c-38.165,2.501-65.36,23.886-81.12,49.2
		c-8.445,13.565-14.035,31.175-14.88,50.4c-0.887,20.188,4.785,38.329,12.48,52.559c14.165,26.199,41.524,48.672,77.76,52.561
		c40.059,4.301,69.938-12.344,88.32-32.639c1.162-1.283,2.146-2.801,3.6-3.842c0.458,2.443-1.576,4.143-2.88,5.521
		c-19,20.096-49.244,37.641-90.48,32.16c-36.804-4.893-63.399-26.906-78.24-54.721c-7.861-14.734-13.278-34.424-12.24-54.24
		c1.055-20.138,7.777-36.438,16.32-50.16c12.375-19.877,31.484-35.794,55.92-43.68c16.187-5.224,37.831-6.224,56.16-1.92
		c20.461,4.805,36.03,14.19,48.72,26.88C335.229,53.02,338.672,55.304,339.52,58.991z"/>
	<path fill-rule="evenodd" clip-rule="evenodd" fill="#daccc3" d="M339.52,68.831c-0.754,0.507-1.282-1.313-1.92-2.16
		c-15.494-20.554-40.016-37.016-74.64-38.4c-11.803-0.472-23.947,1.835-34.08,5.28c-19.087,6.488-34.268,17.859-45.84,32.88
		c-11.107,14.417-19.68,34.666-19.68,58.8c0,24.074,8.387,44.441,19.68,59.041c16.969,21.936,42.241,37.883,80.16,37.68
		c11.779-0.064,23.307-3.064,32.64-6.721c18.695-7.32,32.968-19.904,43.68-34.32c0.417,2.934-1.86,5.113-3.36,6.961
		c-10.421,12.83-24.955,23.227-42,29.76c-9.987,3.828-23.139,6.523-35.04,6c-13.167-0.578-23.675-2.734-34.32-6.721
		c-18.929-7.086-34.612-19.75-45.84-36.24c-11.254-16.527-19-38.73-17.04-64.559c1.981-26.105,14.981-47.449,29.52-61.68
		c15.198-14.876,36.467-26.32,64.081-27.84c19.986-1.1,37.909,4.576,51.12,11.76c10.343,5.625,18.844,12.631,26.4,21.12
		C335.485,62.218,338.962,64.773,339.52,68.831z"/>
	<path fill-rule="evenodd" clip-rule="evenodd" fill="#daccc3" d="M339.52,80.351c-0.707,0.376-1.051-1.347-1.68-2.4
		c-16.772-28.074-55.594-53.138-102-40.08c-19.607,5.517-34.937,15.995-46.56,30.48c-11.077,13.805-19.998,33.527-19.92,57.12
		c0.079,23.842,8.996,42.91,20.16,56.881c11.687,14.623,26.846,24.82,46.8,30.24c47.776,12.973,86.64-13.619,103.2-43.201
		c0.055,5.107-3.03,7.721-5.28,10.801c-6.536,8.947-14.917,16.91-24.72,23.039c-12.901,8.066-29.068,14.35-49.2,14.4
		c-27.594,0.07-49.292-11.371-64.32-26.4c-16.076-16.076-26.201-34.766-28.08-62.639c-1.866-27.683,10.153-50.675,24.24-66.001
		c14.108-15.348,34.578-28.168,61.68-29.76c33.115-1.945,56.199,11.799,72.24,27.84c4.09,4.091,7.65,8.772,11.04,13.92
		C338.235,76.284,340.05,77.982,339.52,80.351z"/>
	<path fill-rule="evenodd" clip-rule="evenodd" fill="#daccc3" d="M339.52,94.511c-11.353-25.924-30.458-46.119-61.44-52.56
		c-10.397-2.162-22.641-2.3-34.56,0c-20.597,3.975-36.187,14.447-48,28.08c-11.62,13.41-20.082,31.862-20.4,55.44
		c-0.314,23.314,9.344,42.385,20.64,55.439c11.634,13.445,27.722,24.109,48.24,27.602c25.195,4.285,45.207-1.703,61.2-11.521
		c15.818-9.709,27.19-23.283,34.08-41.76c1.062,5.494-2.183,9.695-4.56,13.68c-12.49,20.936-32.517,37.336-61.44,41.76
		c-37.255,5.701-65.514-11.861-82.08-33.6c-8.547-11.215-15.135-24.971-17.04-42c-4.206-37.599,14.819-65.677,36.24-80.88
		c8.792-6.24,18.855-11.114,30.72-13.68c14.031-3.035,31.967-1.978,44.88,2.16c22.262,7.132,37.714,20.699,48.72,39.12
		C336.885,85.415,339.935,89.282,339.52,94.511z"/>
	<path fill-rule="evenodd" clip-rule="evenodd" fill="#daccc3" d="M259.119,44.59c33.856-0.551,57.425,18.016,70.32,39.6
		c3.959,6.627,9.115,17.342,10.08,26.4c0.449,4.218,0,9.627,0,14.64c0,5.701,0.368,11.582-0.24,15.6
		c-2.333,15.43-10.649,28.684-19.68,38.641c-9.555,10.535-20.89,18.463-35.28,22.801c-15.978,4.816-34.745,4.639-50.4-0.721
		c-26.747-9.156-47.918-31.938-53.28-63.119c-3.131-18.21,0.883-36.035,6.96-48.721c8.498-17.741,25.104-33.512,46.32-40.8
		C241.518,46.3,248.582,44.762,259.119,44.59z M238.719,49.15c-15.739,4.343-27.571,12.713-36.72,22.56
		c-12.407,13.355-22.134,31.746-20.88,58.081c1.125,23.631,11.825,41.156,25.44,53.52c13.741,12.479,32.786,22.045,57.84,20.881
		c23.033-1.072,41.386-11.936,53.76-25.201c12.796-13.717,21.764-31.848,20.88-58.08c-0.772-22.91-12.111-41.82-24.96-53.52
		c-13.066-11.897-32.438-22.898-58.08-21.12C249.921,46.692,244.163,47.648,238.719,49.15z"/>
	<path fill-rule="evenodd" clip-rule="evenodd" fill="#daccc3" d="M258.159,50.59c23.14-1.015,41.91,9.677,53.76,20.88
		c11.826,11.18,22.097,29.414,22.8,51.84c0.738,23.531-8.875,41.496-20.88,53.76c-11.996,12.256-29.623,22.561-51.84,22.561
		c-23.723,0-40.482-8.314-53.521-20.641c-12.849-12.146-21.729-28.277-22.8-51.839c-1.06-23.328,9.122-41.54,20.4-53.76
		c5.829-6.315,12.853-11.449,21.6-15.6C235.89,53.894,246.858,51.086,258.159,50.59z M225.279,60.911
		c-8.177,4.479-14.678,9.967-20.16,16.32c-10.654,12.346-19.818,31.124-17.76,54.721c1.906,21.857,11.801,36.848,24.72,48.24
		c11.975,10.559,31.284,20.027,54.72,17.76c21.309-2.063,36.878-11.748,48.24-24.48c11.309-12.672,19.268-30.689,17.76-54.24
		c-1.362-21.275-11.739-37.756-24.24-48.72c-12.322-10.807-30.721-20.375-54.96-18C243.114,53.538,232.912,56.729,225.279,60.911z"
		/>
	<path fill-rule="evenodd" clip-rule="evenodd" fill="#daccc3" d="M253.839,57.311c22.414-1.919,39.661,6.771,51.36,16.8
		c11.451,9.816,21.536,25.847,22.8,45.36c1.462,22.572-6.331,38.75-16.8,50.881c-10.644,12.332-25.406,20.732-45.36,22.559
		c-20.435,1.871-38.385-5.881-50.4-16.32c-12.28-10.668-21.173-25.164-23.04-45.119c-2.056-21.966,5.808-39.471,16.08-51.12
		c5.12-5.806,11.388-11.008,18.96-15.12C234.653,61.313,243.832,58.167,253.839,57.311z M210.879,80.351
		c-9.929,11.246-18.301,26.724-17.28,49.2c0.889,19.564,10.347,34.715,21.6,44.881c11.739,10.604,28.099,18.283,49.2,17.279
		c19.651-0.936,34.081-10.639,44.64-21.6c11.213-11.643,18.047-26.943,17.52-48.96c-0.479-20.01-10.581-35.105-21.36-45.12
		c-10.668-9.912-28.317-18.913-49.2-17.28C236.312,60.29,220.605,69.335,210.879,80.351z"/>
	<path fill-rule="evenodd" clip-rule="evenodd" fill="#daccc3" d="M257.199,63.791c19.941-1.383,35.94,7.62,45.84,17.52
		c9.797,9.797,18.72,24.361,18.72,43.92c0,19.836-8.442,33.643-18.72,43.92c-10.621,10.621-26.132,18.232-45.12,17.52
		c-18.324-0.686-32.808-8.68-42.96-19.68c-9.743-10.557-17.571-25.443-16.32-46.08c1.018-16.789,8.681-30.503,18-39.6
		c4.685-4.574,10.136-8.448,17.04-11.76C240.243,66.402,247.996,64.429,257.199,63.791z M204.879,101.71
		c-5.009,11.849-6.005,26.635-2.88,38.641c6.032,23.168,23.466,39.145,47.04,43.92c12.79,2.59,27.313,0.006,38.16-5.521
		c17.936-9.139,34.858-29.076,32.88-58.079c-0.59-8.647-3.204-16.603-6.24-22.56c-9.274-18.2-27.401-33.027-54.24-32.88
		C231.781,65.383,212.795,82.986,204.879,101.71z"/>
	<path fill-rule="evenodd" clip-rule="evenodd" fill="#daccc3" d="M259.839,69.791c24.56-0.054,41.717,14.024,50.16,31.2
		c3.728,7.585,6.352,16.703,5.52,28.32c-1.147,16.018-8.275,27.041-17.04,35.76c-9.003,8.955-20.995,15.275-37.2,15.6
		c-14.673,0.295-28.973-5.605-38.4-14.398c-11.259-10.502-19.766-25.223-18-47.041c0.618-7.634,3.764-15.218,6.24-19.92
		c2.745-5.212,6.347-10.618,11.04-14.88C230.944,76.452,242.7,69.828,259.839,69.791z M241.839,74.59
		c-14.97,5.586-26.016,16.334-31.44,29.76c-4.435,10.976-5.395,23.149-2.4,34.56c5.349,20.379,21.01,35.711,42.24,39.361
		c11.377,1.955,24.125,0.41,34.08-4.801c8.067-4.223,15.948-10.795,21.36-19.439c5.126-8.188,9.377-18.766,8.4-32.4
		c-1.117-15.593-8.382-27.342-16.8-35.76c-8.121-8.121-22.25-15.167-38.16-14.64C252.311,71.456,247.004,72.664,241.839,74.59z"/>
	<path fill-rule="evenodd" clip-rule="evenodd" fill="#daccc3" d="M259.599,75.791c21.234-0.078,35.959,11.347,43.68,25.44
		c2.362,4.312,5.304,10.8,6,16.8c1.996,17.208-3.651,30.303-11.52,39.36c-7.979,9.184-18.821,16.123-34.08,17.279
		c-15.209,1.154-28.532-5.08-36.96-13.199c-8.796-8.473-15.341-18.688-16.08-34.081c-0.77-16.042,5.92-28.206,13.68-36.479
		C231.987,82.734,243.466,75.85,259.599,75.791z M224.319,93.071c-7.387,8.068-14.029,22.441-12,38.64
		c1.651,13.186,8.458,23.289,16.8,30.48c8.78,7.566,22.118,12.152,36,10.559c13.009-1.492,23.569-7.178,31.2-16.08
		c7.216-8.418,12.891-20.221,11.76-35.759c-0.477-6.555-2.873-13.449-5.04-17.76c-7.31-14.54-21.979-25.967-43.2-25.92
		C243.265,77.267,232.032,84.646,224.319,93.071z"/>
	<path fill-rule="evenodd" clip-rule="evenodd" fill="#daccc3" d="M256.943,82.964c21.321-1.826,36.677,11.556,42.485,26.609
		c3.04,7.879,3.961,17.655,1.341,27.056c-4.241,15.221-16.37,27.703-33.764,30.41c-8.941,1.393-19.124-0.473-26.609-4.473
		c-12.312-6.578-24.114-20.01-22.584-41.366c0.851-11.875,6.282-19.922,12.522-26.162C236.976,88.396,244.608,84.02,256.943,82.964z
		 M243.974,94.368c-10.066,5.261-17.584,14.766-18.559,29.068c-0.712,10.443,3.988,19.654,9.168,25.267
		c5.527,5.99,13.354,10.445,23.254,11.182c18.648,1.385,34.235-12.424,36.671-29.74c2.086-14.829-4.94-25.346-12.075-31.529
		c-5.969-5.171-15.104-8.785-25.714-7.826C252.267,91.192,247.425,92.564,243.974,94.368z"/>
	<path fill-rule="evenodd" clip-rule="evenodd" fill="#daccc3" d="M259.555,117.766c5.043-0.551,8.701,3.006,8.848,7.374
		c0.396,11.716-18.278,9.97-15.854-1.843C253.073,120.747,255.692,118.188,259.555,117.766z M266.928,124.771
		c-0.551-6.466-10.599-7.97-12.904-1.475C252.313,135.053,267.669,133.465,266.928,124.771z"/>
</g>
</svg>
