<?xml version="1.0" encoding="UTF-8" standalone="no"?>
<!-- Created with Inkscape (http://www.inkscape.org/) -->
<svg
   xmlns:dc="http://purl.org/dc/elements/1.1/"
   xmlns:cc="http://web.resource.org/cc/"
   xmlns:rdf="http://www.w3.org/1999/02/22-rdf-syntax-ns#"
   xmlns:svg="http://www.w3.org/2000/svg"
   xmlns="http://www.w3.org/2000/svg"
   xmlns:sodipodi="http://sodipodi.sourceforge.net/DTD/sodipodi-0.dtd"
   xmlns:inkscape="http://www.inkscape.org/namespaces/inkscape"
   id="svg2214"
   sodipodi:version="0.32"
   inkscape:version="0.45"
   width="400"
   height="800"
   version="1.0"
   sodipodi:docbase="C:\files"
   sodipodi:docname="Apache County Incorporated and Unincorporated areas Lukachukai highlighted.svg"
   inkscape:output_extension="org.inkscape.output.svg.inkscape"
   sodipodi:modified="true">
  <metadata
     id="metadata2219">
    <rdf:RDF>
      <cc:Work
         rdf:about="">
        <dc:format>image/svg+xml</dc:format>
        <dc:type
           rdf:resource="http://purl.org/dc/dcmitype/StillImage" />
      </cc:Work>
    </rdf:RDF>
  </metadata>
  <defs
     id="defs2217" />
  <sodipodi:namedview
     inkscape:window-height="579"
     inkscape:window-width="748"
     inkscape:pageshadow="2"
     inkscape:pageopacity="1"
     guidetolerance="10.0"
     gridtolerance="10.0"
     objecttolerance="10.0"
     borderopacity="1.0"
     bordercolor="#666666"
     pagecolor="#f8f8f8"
     id="base"
     inkscape:zoom="1.8527801"
     inkscape:cx="135.3385"
     inkscape:cy="678.07278"
     inkscape:window-x="110"
     inkscape:window-y="110"
     inkscape:current-layer="svg2214"
     width="400px"
     height="800px" />
  <path
     style="fill:#ffffff;fill-rule:evenodd;stroke:#000000;stroke-width:3;stroke-linecap:butt;stroke-linejoin:miter;stroke-miterlimit:4;stroke-dasharray:none;stroke-opacity:1"
     d="M 212.41809,24.666708 L 212.41809,704.8354 L 160.59571,704.8354 C 160.48432,704.90161 160.37293,704.96782 160.26154,705.034 C 159.97678,705.20325 159.84765,705.73767 159.682,705.90334 C 159.38764,706.19769 159.20836,706.34902 159.10246,706.77265 C 159.00661,707.15602 158.77309,707.31935 158.59536,707.49707 C 158.41504,707.67737 158.52291,708.3291 158.52291,708.58371 C 158.52291,709.04349 158.2524,709.26962 158.08825,709.5979 C 157.90132,709.9718 157.62384,709.98989 157.36383,710.24991 C 157.24355,710.37016 157.36383,711.41634 157.36383,711.6263 C 157.36383,712.21077 157.27036,712.29935 156.92917,712.64052 C 156.50308,713.06661 157.15133,713.44221 157.36383,713.65471 C 157.71632,714.00721 158.01941,713.8527 158.30558,714.23426 C 158.55141,714.56201 158.88513,714.55121 158.88513,715.03114 C 158.88513,715.39598 158.87582,715.86523 158.81268,716.11778 C 158.7518,716.36131 157.54673,715.56104 157.50871,715.53823 C 157.36731,715.4534 156.74684,716.26427 156.6394,716.40754 C 156.37464,716.76056 156.23032,716.69733 155.69764,716.69733 C 155.19445,716.69733 155.05421,716.1902 154.46611,716.1902 C 153.63845,716.1902 153.45191,716.44401 153.45191,717.13197 C 153.45191,717.31158 152.95603,717.76898 152.94481,717.78397 C 152.76229,718.0273 152.12004,717.94977 151.85817,718.14619 C 151.36951,718.51267 151.98433,719.21409 151.35107,718.58082 C 150.99635,718.2261 150.99559,717.87159 150.62663,718.36352 C 150.43946,718.61306 150.25864,718.80972 150.11954,719.08795 C 150.10994,719.10713 149.20954,718.51634 149.17778,718.5084 C 149.04011,718.47399 149.03289,719.39753 149.03289,719.52258 C 149.03289,719.8825 148.35836,719.73992 148.01869,719.73992 C 147.64474,719.73992 147.24907,719.46379 146.93205,719.30525 C 146.69821,719.18834 146.25918,719.23283 145.91785,719.23283 C 145.42927,719.23283 145.2029,718.67222 145.19342,718.65328 C 145.13049,718.52742 144.19593,718.70341 144.10678,718.72574 C 143.77712,718.80815 143.5546,719.25052 143.45479,719.45017 C 143.24277,719.8742 143.21268,719.66746 142.73036,719.66746 C 142.4099,719.66746 142.13212,720.48305 142.00593,720.60923 C 141.72617,720.88899 141.34107,720.98433 141.13662,721.18878 C 140.71577,721.60963 140.91947,721.84066 140.33975,722.13054 C 140.13449,722.23318 139.96199,722.79806 139.83265,722.92743 C 139.4339,723.32615 139.01247,722.73592 138.89089,722.49275 C 138.6405,721.99195 138.09684,722.19732 137.94913,722.49275 C 137.84122,722.70856 137.83913,723.29496 137.80424,723.43452 C 137.79756,723.46128 137.08001,723.43452 137.00737,723.43452 C 136.88087,723.94052 136.64516,724.10305 136.64516,724.66603 C 136.64516,725.02825 136.64516,725.39046 136.64516,725.75268 C 136.64516,726.0276 136.26198,726.35318 136.13806,726.4771 C 135.99606,726.61912 136.19358,727.42366 136.2105,727.49133 C 136.27334,727.74272 136.71532,727.99612 136.86249,728.14329 C 137.20571,728.48653 137.2247,728.75521 137.2247,729.22994 C 137.2247,729.55209 136.5711,729.3032 136.28294,729.44727 C 136.04663,729.56543 136.13806,730.19342 136.13806,730.46145 C 136.13806,730.69769 135.24542,730.60637 135.05141,730.60637 C 134.50359,730.60637 134.47187,730.69975 134.47187,731.25834 C 134.47187,731.48676 133.61556,731.68 133.45767,731.83789 C 133.14312,732.15243 133.18416,732.42486 133.09546,732.77965 C 132.98057,733.23919 132.63492,733.3592 132.08125,733.3592 C 131.71492,733.3592 131.25105,733.35086 130.99461,733.28675 C 130.54339,733.17395 130.73824,732.94404 130.34262,733.14187 C 130.08233,733.272 130.1253,733.68313 130.1253,734.01117 C 130.1253,734.4263 130.19774,734.88165 130.19774,735.31515 C 130.19774,735.47022 129.56885,736.21069 129.47331,736.40179 C 129.27307,736.80229 129.2023,736.97872 129.1111,737.34355 C 129.0287,737.67313 129.3507,738.0513 129.25598,738.4302 C 129.24745,738.46433 128.29954,738.50261 128.16934,738.50261 C 127.84004,738.50261 127.49612,738.07016 127.30002,737.9231 C 126.89044,737.6159 126.42563,737.95401 126.28582,738.1404 C 126.02296,738.49089 126.14268,738.59361 125.48895,738.4302 C 124.93465,738.2916 124.97021,737.88978 124.25742,738.06798 C 124.09114,738.10953 123.85127,738.06798 123.67788,738.06798 C 123.65982,738.0725 122.96887,737.17014 122.88101,737.12622 C 122.76364,737.06754 121.90502,737.72286 121.79436,737.77819 C 121.4111,737.96985 121.04934,737.81176 120.70772,738.06798 C 120.42238,738.28197 120.23942,738.41077 119.91085,738.57507 C 119.58063,738.74018 119.47619,738.85443 119.47619,739.2995 C 119.47619,739.71688 119.61455,740.09639 119.11398,740.09639 C 118.48402,740.09639 118.26311,739.96993 117.88245,739.58926 C 117.63041,739.33722 117.16973,739.86732 117.08557,739.95147 C 116.96,740.07704 116.28868,740.02393 116.07138,740.02393 C 115.61758,740.02393 115.37807,740.13769 115.12962,740.38614 C 114.88347,740.63229 114.91229,740.99471 114.91229,741.40036 C 114.91229,741.70825 115.20206,742.01296 115.20206,742.41455 C 115.20206,742.94159 115.32744,743.0136 114.98473,743.35631 C 114.63352,743.70752 114.3938,744.00828 113.89809,744.00828 C 113.42195,744.00828 113.15733,744.3144 112.88389,744.58783 C 112.69263,744.77909 112.49575,745.26575 112.30435,745.45713 C 112.03938,745.7221 112.14912,746.0229 111.7248,745.45713 C 111.45289,745.0946 111.06699,745.24274 110.78304,745.38471 C 110.46223,745.54511 110.3223,745.72376 109.98617,745.89181 C 109.81684,745.97648 108.94448,745.81935 108.6822,745.81935 C 108.16342,745.81935 108.08045,746.10914 107.668,746.10914 C 107.28966,746.10914 106.84346,746.18156 106.43647,746.18156 C 105.99796,746.18156 105.8301,746.35328 105.6396,746.54377 C 105.31269,746.87069 105.43186,746.90599 104.84273,746.90599 C 104.60209,746.90599 104.30266,747.47252 104.26319,747.63042 C 104.2107,747.84038 103.70835,748.08895 103.46631,748.20997 C 103.05448,748.4159 103.1125,748.87878 103.24898,749.15173 C 103.34801,749.3498 103.89444,749.79721 104.1183,750.02103 C 104.32208,750.22483 103.97341,750.94853 103.97341,751.18013 C 103.97341,751.28785 104.69145,751.68086 104.84273,751.83214 C 104.87688,751.86628 104.93932,751.83214 104.98761,751.83214 C 105.37715,752.22168 104.01638,752.33923 103.90097,752.33923 C 103.39915,752.33923 103.30729,752.10775 103.03165,751.83214 C 102.62821,751.42866 102.34253,752.19802 102.30722,752.33923 C 102.22825,752.6551 102.30722,753.09832 102.30722,753.42587 C 102.30722,753.53956 101.52563,753.99011 101.43791,754.07784 C 101.14018,754.37558 100.97704,754.40004 100.85837,754.87473 C 100.85625,754.88319 99.932499,755.30142 99.916609,755.3094 C 99.469198,755.53311 99.403622,755.68338 99.192182,756.10625 C 98.934308,756.622 98.504141,756.39669 98.395308,755.96137 C 98.275106,755.48056 98.565602,755.23694 97.960651,755.23694 C 97.458074,755.23694 97.525995,755.79566 97.525995,756.17871 C 97.525995,756.78699 97.582527,756.83068 96.946453,756.83068 C 96.375551,756.83068 96.294464,756.9143 96.294464,757.48268 C 96.294464,757.87303 96.729121,757.81496 96.729121,758.27953 C 96.729121,758.59234 95.995819,758.64174 95.714922,758.64174 C 95.260128,758.64174 95.062938,758.6122 95.062938,759.07642 C 95.062938,759.46898 95.215758,759.8733 94.773163,759.8733 C 94.183578,759.8733 94.336527,759.16745 93.831407,759.29375 C 93.59035,759.354 93.686521,760.10881 93.686521,760.30794 C 93.686521,760.44874 93.840881,760.54421 93.90385,760.67015 C 93.90385,761.026 92.888253,760.95994 92.672319,760.95994 C 92.404971,760.95994 92.257571,761.42722 92.16522,761.61191 C 92.02787,761.8866 91.569191,761.93467 91.36835,762.33634 C 91.231903,762.60925 91.295907,763.02639 91.295907,763.35056 C 91.295907,763.75408 91.296866,764.07688 91.440793,764.36474 C 91.57005,764.62327 91.513235,765.22809 91.513235,765.52384 C 91.513235,765.80776 91.06954,766.2573 90.861247,766.46561 C 90.573474,766.75335 90.354131,767.04516 90.136819,767.26245 C 89.859779,767.53951 89.544506,767.47979 89.122617,767.47979 C 88.573215,767.47979 88.54648,767.54882 88.253304,767.842 C 87.882273,768.21304 88.113186,768.42035 87.528877,768.56643 C 87.065668,768.68225 86.495435,768.63889 86.007575,768.63889 C 85.548771,768.63889 85.089963,768.63889 84.631159,768.63889 C 83.966689,768.63889 83.69841,768.6933 83.979174,768.13176 C 84.17173,767.74666 83.888939,767.09976 83.689403,766.90024 C 83.517021,766.72788 82.288356,766.94264 82.168102,766.9727 C 81.774011,767.07119 81.571811,767.26245 81.226342,767.26245 C 80.681915,767.26245 80.429473,767.39125 80.429473,766.82782 C 80.429473,766.31747 81.449691,766.47161 80.86413,765.88606 C 80.537988,765.55991 80.284588,765.57773 80.284588,765.01671 C 80.284588,764.55214 80.170491,764.20447 80.574359,764.00253 C 80.903442,763.83799 80.936572,763.39562 80.936572,762.98835 C 80.936572,762.46997 80.61079,762.48122 80.139702,762.48122 C 79.392236,762.48122 79.333487,762.44035 78.690843,762.119 C 78.592452,762.06984 78.183744,761.36516 78.183744,761.17724 C 78.183744,760.69542 78.31789,760.53958 78.545958,760.23552 C 78.774264,759.93109 78.447183,759.33986 78.32863,759.22129 C 77.96021,758.85287 77.681961,759.08706 77.38687,758.49687 C 77.236048,758.19522 77.373168,757.67258 77.241985,757.41023 C 77.128263,757.18277 76.726717,756.89495 76.517557,756.6858 C 76.142105,756.31037 76.259143,756.11652 75.720683,756.25113 C 75.340508,756.34619 75.27351,757.06889 75.068698,757.41023 C 74.847626,757.77869 74.359057,757.42502 74.126939,757.19289 C 73.966913,757.03286 74.054496,756.40052 74.054496,756.10625 C 74.054496,755.6019 74.155894,755.45428 73.61984,755.45428 C 73.293714,755.45428 73.162237,755.93481 73.040298,756.17871 C 72.761238,756.73682 72.375518,755.93578 72.315866,755.81649 C 72.177836,755.5404 72.538889,755.08066 72.605641,754.94715 C 72.762028,754.63438 72.873223,754.46226 73.11274,754.22272 C 73.326075,754.00941 73.330069,753.56068 73.330069,753.13608 C 73.330069,752.82352 72.64821,753.06366 72.460756,753.06366 C 72.06731,753.06366 72.032467,753.42587 71.518996,753.42587 C 71.155489,753.42587 71.030544,752.8836 70.939454,752.70145 C 70.786388,752.39529 70.390254,752.13705 70.070137,751.97702 C 69.809233,751.84657 69.925252,751.18175 69.925252,750.89038 C 69.925252,750.2829 69.019528,750.95389 68.911053,751.03526 C 68.48862,751.35209 68.123678,751.40698 67.824408,751.10768 C 67.701978,750.98524 67.824408,750.13843 67.824408,749.94862 C 67.824408,749.46933 67.638091,749.1957 67.172424,749.07931 C 66.966105,749.02773 66.473538,749.15173 66.158221,749.15173 C 65.825616,749.15173 65.782777,748.77186 65.578679,748.49976 L 65.578679,704.85752 L 71.343213,704.85752 L 71.343213,632.59746 L 73.034168,630.79381 L 73.034168,557.63188 C 72.959013,557.444 72.883858,557.25613 72.808707,557.06825 C 72.574175,556.48193 72.470516,555.95747 72.470516,555.26456 C 72.470516,554.66333 72.470516,554.06209 72.470516,553.46086 C 72.470516,552.79628 72.134062,552.00234 72.019595,551.54445 C 71.894783,551.04522 71.72172,550.57843 71.568674,549.96623 C 71.406834,549.31886 71.388679,548.68261 71.230483,548.04982 C 71.074035,547.42405 71.117752,546.78276 71.117752,546.13341 C 71.117752,545.42667 70.892291,544.73271 70.892291,543.99152 C 70.892291,543.33307 70.928706,542.67171 70.779561,542.07511 C 70.626644,541.46344 70.5541,541.1429 70.5541,540.49689 C 70.5541,539.8581 70.5541,539.21927 70.5541,538.58048 C 70.5541,538.24229 70.5541,537.90409 70.5541,537.5659 C 70.44137,537.37802 70.760721,536.71005 70.647995,536.52217 C 70.383532,536.08142 70.633559,535.246 70.729424,534.86251 C 70.879895,534.26064 70.779561,534.23702 70.779561,533.50764 C 70.500316,530.88082 71.387434,531.17473 71.508208,528.6599 C 71.508208,527.8072 72.415556,525.04724 72.583247,524.37649 C 72.737937,523.75773 73.005696,523.25031 73.146898,522.68551 C 73.219978,522.39322 73.146898,521.97519 73.146898,521.67097 L 73.146898,484.58271 L 74.048737,483.7936 L 74.048737,337.92074 L 76.979722,336.79344 L 76.979722,306.91994 L 46.768029,306.91994 L 46.768029,24.643511 L 212.41809,24.666708 z "
     id="path2223"
     sodipodi:nodetypes="cccssssssssssssssssssssssssssssssssssssssscsssssssssssssssssssssssssssssssssssssssssssssssssssssssscssssssssssssssssssscssssssssssssssssssssssssssssssssssssssssssssssssssccccccssssssssssscssccssccccccccc" />
  <path
     style="fill:none;fill-rule:evenodd;stroke:#000000;stroke-width:1;stroke-linecap:butt;stroke-linejoin:miter;stroke-miterlimit:4;stroke-dasharray:none;stroke-opacity:1"
     d="M 9.038902,410.82114 L 101.36076,410.82114 L 101.36076,419.75167 L 92.926372,419.75167 L 92.926372,429.67449 L 96.895498,429.67449 L 96.895498,433.14748 L 106.81831,433.14748 L 106.81831,430.66675 L 110.78744,430.66675 L 110.78744,411.31731 L 130.63307,411.31731 L 130.63307,417.76711 L 123.6871,417.76711 L 123.6871,422.23239 L 128.6485,422.23239 L 128.6485,467.87732 L 132.12149,467.87732 L 132.12149,456.96223 L 149.48641,456.96223 C 149.48641,456.30071 149.48641,455.63919 149.48641,454.97767 C 149.48642,452.26276 151.57647,451.47828 153.45554,451.00855 C 155.62455,450.46628 158.02236,450.48699 159.90537,450.01625 C 162.59069,449.34494 163.58832,448.42284 165.36292,447.53556 L 165.36292,466.44926 L 180.86272,466.44926 L 180.86272,463.33857 L 183.76606,463.33857 L 183.76606,466.55295 L 212.48841,466.55295 L 212.48841,476.81837 L 217.77664,474.1224 L 224.41285,474.1224 L 224.41285,477.02575 L 221.19843,477.02575 L 221.19843,488.22436 L 224.51654,488.22436 L 224.51654,489.67599 L 227.52357,489.67599 L 227.52357,492.37196 L 230.94536,492.37196 L 233.27841,494.70503 L 233.27841,497.03806 L 230.6343,497.03806 L 230.6343,495.379 L 220.99105,495.379 L 220.99105,498.9045 L 224.41285,498.9045 L 224.41285,501.49678 L 221.09474,501.49678 L 221.09474,504.40009 L 224.30916,504.40009 L 224.30916,507.40713 L 220.99105,507.40713 L 220.99105,514.45809 L 232.60442,514.45809 L 232.60442,517.25775 L 246.08422,521.92385 L 246.08422,510.31048 L 241.41814,513.11014 L 239.96646,511.65847 L 239.96646,492.16458 L 236.95943,492.16458 L 236.95943,489.36496 L 239.5517,489.36496 L 239.5517,485.73577 L 236.85574,485.73577 L 236.85574,482.93611 L 239.5517,482.93611 L 239.5517,474.22609 L 242.55773,475.03156 L 242.55773,470.80429 L 254.69056,470.80429 L 254.69056,466.44926 L 257.69759,466.44926 L 257.69759,464.79024 L 261.01569,464.79024 L 261.01569,468.00463 L 263.1932,468.00463 L 263.1932,464.99762 L 268.27405,464.99762"
     id="path2227"
     sodipodi:nodetypes="ccccccccccccccccccccssscccccccccccccccccccccccccccccccccccccccccccccccccccccccccc" />
  <path
     style="fill:none;fill-rule:evenodd;stroke:#000000;stroke-width:1;stroke-linecap:butt;stroke-linejoin:miter;stroke-miterlimit:4;stroke-dasharray:none;stroke-opacity:1"
     d="M 134.5498,786.19505 L 134.5498,675.77903 C 134.33074,675.5949 134.11168,675.41078 133.89262,675.22665 C 133.38508,674.79999 131.82462,674.45156 131.10233,674.45156 C 130.12056,674.45156 129.13878,674.45156 128.15701,674.45156 C 127.17081,674.45156 126.49038,674.42263 125.83177,674.91658 C 125.19401,675.39494 125.2346,676.13383 124.74665,676.62178 C 124.01799,677.35044 122.88249,676.92786 122.26639,676.31176 C 121.66783,675.71318 121.95636,674.16842 121.95636,673.36645 C 121.95636,672.83595 123.3595,671.88778 123.66154,671.66125 C 124.47146,671.05381 124.85648,670.46632 125.52174,669.80106 C 126.725,668.59779 126.76187,669.13809 126.76187,667.16578 C 126.76187,666.30143 126.76009,665.46948 126.91688,664.68553 C 127.08305,663.85468 127.84183,663.31095 128.002,662.67031 C 128.20674,661.85134 128.11569,660.97538 128.31203,660.19002 C 128.53532,659.2969 128.46705,658.34603 128.46705,657.39975 C 128.46705,656.32601 128.81918,655.92039 129.24213,655.0745 C 129.64614,654.26645 129.42697,653.24413 128.93209,652.74925 C 128.4612,652.27835 126.3377,652.59421 125.67675,652.59421 C 124.40322,652.59421 124.19466,651.65156 123.50652,650.73402 C 122.8182,649.81628 122.35268,648.96011 121.64632,648.25378 C 121.0028,647.61027 120.40849,647.01593 119.78613,646.39358 C 119.14509,645.75253 118.95121,644.87876 118.546,644.06833 C 118.30736,643.59106 118.1051,643.18653 117.92593,642.82819 C 117.35374,641.68384 117.07181,641.11996 116.53078,640.03792 C 116.17114,639.31861 115.48412,638.79737 115.13563,638.33271 C 114.44935,637.41767 115.66107,636.78255 114.05052,636.78255 C 113.16067,636.78255 112.06962,636.77396 111.41524,636.93758 C 110.6563,637.12731 109.55775,636.93758 108.77996,636.93758 C 107.73027,636.93758 107.50094,635.96857 106.91976,635.38741 C 106.33816,634.80581 105.84046,634.32555 105.67963,633.68221 C 105.56413,633.22025 106.02908,631.97439 106.14468,631.51199 C 106.31367,630.83604 106.14468,629.88767 106.14468,629.18674 C 106.14468,628.28463 105.1198,627.41049 104.59452,627.01652 C 103.70879,626.35222 103.42217,626.17365 102.5793,627.01652 C 101.96628,627.62956 101.85376,628.65567 101.33917,629.34177 C 100.85778,629.98362 100.27829,629.96182 99.323958,629.96182 C 99.11668,629.96182 97.890131,628.61517 97.618777,628.41165 C 97.220084,628.11263 96.091261,628.87671 95.448545,628.87671 C 94.51437,628.87671 93.762861,628.86696 93.123301,629.18674 C 92.449006,629.52389 92.057765,630.18456 91.263103,630.58191 C 90.514673,630.9561 89.852908,631.53206 89.402905,632.13208 C 88.901194,632.80102 88.199601,632.5971 87.232678,632.5971 C 86.085853,632.5971 84.993332,632.34603 84.132349,631.97705 C 83.396356,631.66162 83.050399,631.20197 81.962118,631.20197 C 80.890204,631.20197 80.04183,631.57208 79.481858,632.13208 C 78.778995,632.83491 78.35185,633.10705 77.776677,633.68221 C 77.11359,634.3453 77.098586,635.23238 76.071496,635.23238 C 74.883034,635.23238 73.694575,635.23238 72.506117,635.23238 C 71.234319,635.23238 71.153772,635.521 70.180869,636.00746 C 69.441664,636.37709 68.961239,636.42863 68.165658,636.62755 C 67.231729,636.86101 67.173298,637.55763 65.995427,637.55763 C 65.011921,637.55763 64.595262,637.86266 63.980212,637.24761 C 63.818929,637.08633 63.767256,637.03466 63.670178,636.93758 C 62.967065,636.23447 61.498774,636.31749 60.56985,636.31749 C 59.463345,636.31749 58.887781,635.55977 58.244606,635.07739 C 57.488406,634.51021 57.415504,633.83724 56.384408,633.83724 C 55.62417,633.83724 54.615029,633.68221 53.74913,633.68221 C 52.870701,633.68221 51.992277,633.68221 51.113848,633.68221 C 50.189413,633.68221 50.028734,632.00199 50.028734,631.357 C 50.028734,630.79385 50.183751,629.82263 50.183751,629.03175 C 50.183751,628.22877 48.35483,627.64439 47.703486,627.48158 C 46.946787,627.29241 46.268281,627.32654 45.378242,627.32654 C 45.139909,627.32654 44.787271,625.05949 44.603157,624.69127 C 44.233384,623.95173 43.520095,623.76526 43.20801,623.1411 C 42.947489,622.62006 43.20801,621.24367 43.20801,620.66085 C 43.20801,619.50808 42.283035,619.42583 41.657846,618.80066 C 41.007256,618.15006 40.440751,617.42854 39.797648,616.78543 C 39.015495,616.0033 39.012904,615.70032 37.782437,615.70032 C 36.903565,615.70032 36.395777,616.47118 35.767223,616.78543 C 34.511553,617.41326 34.081587,618.52972 33.286958,616.94047 C 32.816193,615.9989 32.883598,615.76202 32.046827,614.92524 C 31.529073,614.40747 30.563536,614.63726 30.031616,614.77021 C 29.325219,614.94684 28.17866,614.73329 27.706368,614.61521 C 27.105145,614.4649 26.406078,613.11248 25.691154,612.75502 C 24.950735,612.38479 22.876413,612.98142 21.970762,612.75502 C 21.541554,612.6477 20.652776,611.49525 20.265581,611.20485 C 19.600818,610.70626 19.082476,610.07876 18.715415,609.34466 C 18.291746,608.49732 17.839535,607.94948 17.010234,607.94948 C 16.008066,607.94948 15.322527,608.12201 14.684988,607.48446 C 14.067687,606.86715 13.907928,606.32133 12.979807,606.08929 C 12.229059,605.90161 10.606422,606.24432 9.724462,606.24432 C 8.318122,606.24432 7.882732,606.82746 7.399212,607.79449"
     id="path2229"
     sodipodi:nodetypes="ccsssssssssssssssssssssssssssssssssssssssssssssssssssssssssssssssssssssssssssssssss" />
  <path
     style="fill:none;fill-rule:evenodd;stroke:#000000;stroke-width:1;stroke-linecap:butt;stroke-linejoin:miter;stroke-miterlimit:4;stroke-dasharray:none;stroke-opacity:1"
     d="M 8.484332,719.09629 C 9.427192,719.09629 10.410282,718.94126 11.429642,718.94126 C 11.99378,718.94126 12.156228,717.80288 12.669774,717.54613 C 13.03019,717.36591 13.470562,718.79268 14.064922,718.94126 C 15.068757,719.19221 15.150037,720.22674 15.150037,721.11148 C 15.150037,721.85408 13.930389,721.76518 13.444856,721.88656 C 12.352218,722.15976 14.348189,723.54631 14.529971,723.59177 C 15.586967,723.85601 16.028729,723.54034 16.700202,724.21182 C 17.327906,724.83953 17.641935,724.9065 18.560399,724.67688 C 19.781253,724.37165 19.770209,725.02063 19.955546,725.76199 C 20.216584,726.80615 19.957941,725.76436 20.265581,726.07201 C 20.444399,726.78729 21.125903,728.08724 21.815745,728.08724 C 22.418371,728.08724 22.995265,729.51618 23.210892,729.94743 C 23.352824,730.2313 24.90215,730.60061 25.226107,731.03254 C 25.702333,731.6675 26.548957,731.58033 27.086301,732.11765 C 27.791175,732.82253 27.114954,733.51283 28.481448,733.51283 C 29.063594,733.51283 29.100976,735.06082 29.256532,735.68305 C 29.431715,736.38378 29.830009,737.00028 30.031616,738.0083 C 30.230427,739.00237 29.659255,739.55847 30.961713,739.55847 C 32.258199,739.55847 31.722189,740.65816 31.271747,741.10863 C 30.633819,741.74654 30.341646,741.9077 30.341646,742.8138 C 29.370319,743.78514 31.301641,743.869 31.736793,743.43385 C 32.551585,742.61907 31.499154,741.88368 33.286958,741.88368 C 34.135367,741.88368 33.299902,743.73094 33.131945,743.89891 C 32.260045,744.77083 33.54679,745.29404 34.372075,745.29404 C 34.907147,745.29404 35.104998,746.99924 36.232273,746.99924 C 37.185289,746.99924 37.622411,746.07581 38.092467,745.44907 C 38.791163,744.51747 40.523091,746.63957 40.727749,746.84421 C 41.44005,747.55651 41.568691,748.23938 42.742964,748.23938 C 43.619023,748.23938 44.74253,748.24329 45.378242,748.08435 C 45.944593,747.94278 46.581204,747.56037 47.083423,747.30927 C 48.05909,746.82144 48.198793,748.48888 48.94362,746.99924 C 49.149197,746.58806 50.835099,746.8908 51.268865,746.99924 C 51.839726,747.14194 52.31274,748.01467 52.819029,748.39438 C 53.641469,749.0112 54.530513,748.89663 55.299294,748.7044 C 56.362936,748.43851 57.238709,749.01789 57.624538,749.78955 C 57.869021,750.27851 59.645028,749.82695 59.79477,749.78955 C 60.47247,749.62009 60.707534,749.18679 61.189917,748.7044 C 61.645856,748.24849 62.208766,747.99561 62.585065,747.61929 C 63.36413,746.84026 63.825195,747.69892 63.825195,748.39438 C 63.825195,749.46965 63.995868,749.63452 65.06533,749.63452 C 65.27883,749.63452 65.743638,749.11123 65.84041,749.01447"
     id="path2231"
     sodipodi:nodetypes="cssssssssscssssssssscssssssssssssssssssssc" />
  <path
     style="fill:#ffffff;fill-opacity:1;fill-rule:evenodd;stroke:#000000;stroke-width:1;stroke-linecap:butt;stroke-linejoin:miter;stroke-miterlimit:4;stroke-dasharray:none;stroke-opacity:1"
     d="M 125.93077,512.90869 L 116.37732,514.31998 L 115.94307,528.32449 L 120.39411,530.38719 L 119.41705,532.34128 L 113.66327,532.66698 L 113.77183,535.16391 L 117.02869,535.16391 L 116.26876,538.855 L 119.95987,538.855 L 119.74274,535.38105 L 125.49653,535.27248 L 125.60509,532.12419 L 128.75339,532.12419 L 128.75339,529.30156 L 126.79927,529.41012 L 126.36502,530.49576 L 124.51947,531.25569 L 123.8681,532.66698 L 121.15405,532.66698 L 122.02254,529.95292 L 125.38796,528.86733 L 125.60509,523.87347 L 124.08522,521.81077 L 126.1479,520.29091 L 125.93077,512.90869 z "
     id="path2233" />
  <path
     style="fill:#cccccc;fill-opacity:1;fill-rule:evenodd;stroke:#000000;stroke-width:1;stroke-linecap:butt;stroke-linejoin:miter;stroke-miterlimit:4;stroke-dasharray:none;stroke-opacity:1"
     d="M 159.44518,546.917 L 153.64731,546.917 L 153.64731,545.49128 L 151.4137,545.49128 L 151.4137,547.15461 L 150.46324,547.15461 L 150.46324,553.09506 L 149.89295,553.09506 L 149.89295,554.47323 L 150.74838,554.47323 L 150.74838,553.90295 L 154.17007,553.90295 L 154.17007,554.90093 L 153.36217,554.90093 L 153.36217,556.46924 L 156.02349,554.61581 L 156.02349,553.52276 L 156.68881,553.52276 L 156.68881,554.80591 L 157.35415,554.80591 L 157.92443,553.80792 L 157.92443,549.48328 L 159.44518,548.24765 L 159.44518,546.917 z "
     id="path2235" />
  <path
     style="fill:#cccccc;fill-opacity:1;fill-rule:evenodd;stroke:#000000;stroke-width:1;stroke-linecap:butt;stroke-linejoin:miter;stroke-miterlimit:4;stroke-dasharray:none;stroke-opacity:1"
     d="M 167.6148,632.66513 L 164.3569,632.66513 L 164.3569,631.32363 L 167.80644,629.02393 L 164.45272,629.02393 L 164.45272,616.47142 L 168.57301,616.47142 L 169.33957,617.238 L 169.9145,616.47142 L 170.3936,616.47142 L 170.3936,628.8323 L 171.83091,628.8323 L 171.83091,629.79051 L 175.56792,629.79051 L 177.19687,631.41946 L 177.19687,633.24004 L 175.56792,633.24004 L 174.89717,632.66513 L 173.93897,632.66513 L 173.93897,633.14421 L 171.63927,633.14421 L 171.63927,631.99438 L 169.9145,631.99438 L 169.9145,631.13196 L 167.6148,632.66513 z "
     id="path2237" />
  <path
     style="fill:#cccccc;fill-opacity:1;fill-rule:evenodd;stroke:#000000;stroke-width:1;stroke-linecap:butt;stroke-linejoin:miter;stroke-miterlimit:4;stroke-dasharray:none;stroke-opacity:1"
     d="M 177.19687,631.41946 L 177.19687,633.24004 L 175.56792,633.24004 L 174.89717,632.66513 L 173.93897,632.66513 L 173.93897,633.14421 L 171.63927,633.14421 L 171.63927,631.99438 L 169.9145,631.99438 L 169.9145,631.13196 L 167.6148,632.66513 L 164.3569,632.66513 L 164.45272,632.76092 L 163.68616,632.76092 L 163.68616,634.77316 L 159.56587,634.77316 L 159.56587,636.40212 L 162.24885,636.40212 L 162.24885,639.37257 L 163.01541,639.37257 L 163.01541,640.13911 L 164.45272,640.13911 L 164.45272,640.90569 L 170.96853,640.90569 L 170.96853,639.56419 L 172.40584,639.56419 L 172.40584,637.93524 L 172.02256,637.93524 L 172.02256,637.26449 L 172.78912,637.26449 L 172.78912,635.34808 L 177.38851,635.34808 L 176.04702,633.81496 L 177.48433,633.81496 L 177.48433,634.67733 L 180.26313,634.67733 L 180.26313,631.41946 L 177.19687,631.41946 z "
     id="path2239"
     sodipodi:nodetypes="cccccccccccc" />
  <path
     style="fill:none;fill-rule:evenodd;stroke:#000000;stroke-width:1;stroke-linecap:butt;stroke-linejoin:miter;stroke-miterlimit:4;stroke-dasharray:none;stroke-opacity:1"
     d="M 156.47149,36.478445 L 160.73714,36.734395 L 162.78465,32.042175 L 155.95962,28.288405 L 155.44774,26.155585 L 148.36677,31.274365 L 140.0061,30.506545 L 140.0061,33.321875 L 139.23828,33.321875 L 139.06765,34.260315 L 147.42832,34.260315 L 149.39052,36.649075 L 150.92615,34.601565 L 152.5471,36.222505 L 154.67992,36.222505 L 155.53305,34.686875 L 156.47149,36.478445 z "
     id="path2309" />
  <path
     style="fill:none;fill-rule:evenodd;stroke:#000000;stroke-width:1;stroke-linecap:butt;stroke-linejoin:miter;stroke-miterlimit:4;stroke-dasharray:none;stroke-opacity:1"
     d="M 211.15708,34.516255 L 211.15708,47.313185 C 211.01489,47.370065 210.8727,47.426945 210.73051,47.483815 C 210.30436,47.654275 209.7012,47.740865 209.28019,47.825075 C 208.80633,47.919845 208.49902,48.350305 208.17113,48.678195 C 207.70294,49.146385 207.26992,49.067535 206.80612,49.531325 C 206.43612,49.901325 206.55238,50.255935 206.0383,50.384455 C 205.75467,50.455365 205.38085,50.871285 205.18517,51.066965 C 204.81029,51.441845 204.29116,49.964985 204.24673,49.787265 C 204.1321,49.328745 204.08394,48.794835 203.99079,48.422255 C 203.87256,47.949345 203.82017,47.680435 203.82017,47.142565 C 203.82017,46.653035 203.85714,46.300795 203.99079,46.033495 C 204.17817,45.658735 204.24673,45.467325 204.24673,44.924425 C 204.24673,44.137525 204.2521,44.156615 203.47892,44.156615 C 202.8413,44.156615 202.7324,44.556495 202.19922,44.156615 C 201.7311,43.805525 201.48745,44.614925 201.4314,44.839115 C 201.33069,45.241985 200.93665,45.854315 200.57827,46.033495 C 200.20116,46.222055 199.85043,46.610705 199.46921,46.801315 C 199.03072,47.020555 198.57826,46.825065 198.36014,46.716005 C 197.96579,46.518825 198.62661,45.852335 198.70139,45.777555 C 199.16294,45.316015 199.34618,45.236055 199.46921,44.497865 C 199.54344,44.052455 199.63983,43.821895 199.63983,43.303485 C 199.63983,42.845355 199.15111,42.644125 198.95733,42.450355 C 198.55799,42.051015 198.36014,42.012905 198.36014,41.341285 C 198.36014,40.814025 198.53077,40.465815 198.53077,39.976285 C 198.53077,39.679405 199.29858,39.626445 199.29858,39.037835 C 199.29858,38.597595 199.46582,38.112945 199.55452,37.758145 C 199.63062,37.453775 201.23032,37.998855 201.26078,38.014085 C 201.81268,38.290035 201.88353,38.357495 202.45516,37.928775 C 202.83974,37.640335 202.64819,37.160955 203.30829,37.160955 C 203.73485,37.160955 204.16142,37.160955 204.58798,37.160955 C 205.08255,37.160955 205.5947,37.079905 205.95299,36.990325 C 206.3378,36.894125 206.16996,36.066625 206.12361,35.881255 C 206.09144,35.752545 204.9881,35.612095 204.84392,35.540005 C 204.49828,35.367185 205.13976,34.782165 204.41736,34.601565 C 203.48948,34.369595 204.8411,34.089685 205.18517,34.089685 C 205.66861,34.089685 206.15205,34.089685 206.6355,34.089685 C 207.27012,34.089685 207.5183,34.310385 208.0005,34.430945 C 208.39452,34.529445 208.9557,34.430945 209.36551,34.430945 C 209.81177,34.430945 210.13417,34.516255 210.6452,34.516255 C 210.81583,34.516255 210.98645,34.516255 211.15708,34.516255 z "
     id="path2311" />
  <path
     style="fill:none;fill-rule:evenodd;stroke:#000000;stroke-width:1;stroke-linecap:butt;stroke-linejoin:miter;stroke-miterlimit:4;stroke-dasharray:none;stroke-opacity:1"
     d="M 58.958817,67.532355 L 64.674787,74.357388 L 64.930717,66.252655 L 68.513867,63.693275 L 77.301097,53.626345 C 77.158907,53.654785 77.016717,53.683225 76.874527,53.711665 C 76.363447,53.813875 75.961577,53.656265 75.509527,53.882285 C 75.077147,54.098475 74.766727,54.258815 74.571087,54.650105 C 74.411397,54.969465 73.519517,54.820725 73.206077,54.820725 C 72.671807,54.820725 72.239887,54.976965 71.841067,55.076665 C 71.359417,55.197085 70.995337,55.399375 70.476057,55.503235 C 70.129597,55.572525 69.520797,55.682275 69.196367,55.844485 C 69.038117,55.923605 69.068657,56.867185 69.025747,57.038865 C 68.927207,57.432985 68.633277,57.670275 68.513867,58.147935 C 68.410347,58.561995 67.786987,58.554035 67.404797,58.745125 C 66.853387,59.020825 66.437677,59.484965 66.210417,59.939505 C 65.929667,60.501005 65.189867,61.045365 64.760097,61.475135 C 64.334907,61.900325 64.403097,62.235515 64.077587,62.669515 C 63.778357,63.068495 63.462467,63.403645 63.053837,63.607965 C 62.748237,63.760765 62.166037,64.009205 61.944767,64.119835 C 61.529667,64.327385 61.297537,64.681755 60.921007,65.058275 C 60.835697,65.143595 60.750387,65.228905 60.665077,65.314215 C 60.262167,65.717125 59.474027,65.394535 58.958817,66.167345 C 58.630977,66.659115 57.671807,66.723715 57.167247,66.849855 C 56.583347,66.995825 56.251487,66.923825 55.716927,67.191105 C 55.363787,67.367675 55.027807,67.601305 54.778487,67.788295 C 54.527987,67.976165 53.943637,67.975675 53.669417,68.044235 C 53.625137,68.055305 53.669417,69.208355 53.669417,69.323925 C 53.669417,69.595585 54.343087,70.307475 54.437227,70.432995 C 54.693167,70.774245 55.014287,69.790765 55.205047,69.409235 C 55.376097,69.067145 56.053187,68.814545 56.228797,68.726735 C 56.651477,68.515405 57.087857,68.490645 57.508497,68.385485 C 58.056127,68.248575 58.261667,67.988205 58.446937,67.617665 C 58.474967,67.561605 58.932097,67.532355 58.958817,67.532355 z "
     id="path2313" />
  <path
     style="fill:none;fill-rule:evenodd;stroke:#000000;stroke-width:1;stroke-linecap:butt;stroke-linejoin:miter;stroke-miterlimit:4;stroke-dasharray:none;stroke-opacity:1"
     d="M 106.56343,75.978333 C 106.77046,75.564276 106.30749,76.88041 106.30749,77.343341 C 106.30749,77.958659 106.25465,78.131544 106.05156,78.537721 C 105.90311,78.834615 105.4884,79.147732 105.19842,79.220224 C 104.78238,79.324237 104.17759,79.220224 103.74811,79.220224 C 103.42353,79.220224 103.18874,79.912394 103.0656,80.158666 C 102.80218,80.68552 103.43146,81.292346 103.74811,81.608989 C 103.96741,81.828295 104.72471,81.96932 105.0278,82.120866 C 105.632,82.422965 105.7103,82.99783 105.7103,83.571184 C 105.7103,84.104142 105.23317,84.5602 105.0278,84.765565 C 104.70504,85.088324 104.49852,85.397564 104.34529,85.704007 C 104.17366,86.047276 104.25998,86.576506 104.25998,86.983702 C 104.25998,87.687012 104.46515,87.969378 104.85717,88.263394 C 105.08457,88.43394 106.079,88.263394 106.39281,88.263394 C 106.55113,88.263394 106.56343,87.115717 106.56343,86.898391 C 106.56343,86.360584 107.17296,86.471826 107.58719,86.471826 C 107.91544,86.471826 107.84312,87.537413 107.84312,87.836833 C 107.84312,88.027278 107.27142,88.553674 107.16062,88.775275 C 107.03855,89.01943 107.35529,89.663277 107.41656,89.969655 C 107.43952,90.084431 106.72013,90.580776 106.64874,90.652159 C 106.40473,90.896168 105.8389,90.779503 105.62499,90.993409 C 105.16556,91.452838 105.96316,91.84962 106.39281,91.419974 C 106.72888,91.083901 107.16727,90.988418 107.50187,90.73747 C 107.75529,90.54741 107.96664,90.016768 108.18438,89.799028 C 108.63132,89.35209 108.42942,88.897794 109.03751,89.201836 C 109.68851,89.52734 109.55426,90.245703 108.95219,90.39622 C 108.43309,90.525997 109.01997,91.470219 109.12282,91.675912 C 109.36295,92.156172 109.10983,92.55069 108.86688,92.955608 C 108.64143,93.331357 108.26969,93.454329 108.26969,94.064677 C 108.26969,94.677461 108.30264,94.958994 108.61094,95.344369 C 108.97961,95.805207 109.34185,95.856245 109.97595,95.856245 C 110.60878,95.856245 110.8155,95.995862 110.9997,95.259057 C 111.13344,94.724108 111.08501,94.117877 111.08501,93.552796 C 111.08501,93.237744 111.41661,92.908925 111.51158,92.529043 C 111.67765,91.864795 111.65832,91.646566 112.36471,91.505285 C 112.76898,91.424435 112.88338,91.000197 113.38846,91.505285 C 113.67881,91.79563 114.23182,91.742341 114.49753,91.675912 C 114.60741,91.648444 114.69912,90.836374 115.09473,90.73747 C 115.63861,90.601501 115.76655,90.417573 116.03317,89.88434 C 116.22594,89.498795 115.25236,88.957487 115.00941,88.775275 C 114.55929,88.437684 114.30514,88.261629 114.15628,87.666206 C 114.03752,87.191172 114.15628,86.539048 114.15628,86.045261 C 114.15628,85.445891 114.0984,85.150231 114.49753,84.85088 C 114.71843,84.685208 114.75347,84.133226 114.75347,83.741811 C 114.75347,83.287567 114.65165,82.635511 114.58285,82.291493 C 114.56671,82.210816 113.28386,82.15388 113.21784,82.120866 C 113.11446,82.069179 113.21784,80.546041 113.21784,80.329293 C 113.21784,80.006647 112.27855,79.219383 112.10877,79.049602 C 111.80125,78.742078 111.61366,78.238386 111.42627,77.769906 C 111.19167,77.183404 110.92275,77.213281 110.40251,77.343341 C 110.09923,77.419164 109.48534,76.234272 108.86688,76.234272 C 108.33347,76.234272 107.62675,76.164787 107.16062,75.978333 C 106.85686,75.856831 106.95925,75.879381 106.56343,75.978333 z "
     id="path2315" />
  <path
     style="fill:none;fill-rule:evenodd;stroke:#000000;stroke-width:1;stroke-linecap:butt;stroke-linejoin:miter;stroke-miterlimit:4;stroke-dasharray:none;stroke-opacity:1"
     d="M 144.35706,140.81616 C 144.3528,140.81446 145.00079,139.83117 145.21019,139.62178 C 145.6079,139.22407 145.92373,138.90824 146.40457,138.4274 C 146.70667,138.1253 146.57519,137.40626 146.57519,136.97708 C 146.57519,136.45699 146.40457,136.01076 146.40457,135.44144 C 146.40457,134.95801 146.40457,134.47457 146.40457,133.99113 C 146.40457,133.4719 146.43629,132.92363 146.31926,132.4555 C 146.22372,132.07335 145.46413,131.51506 145.21019,131.26111 C 144.8746,130.92553 144.86215,130.39441 144.69831,130.06673 C 144.5253,129.72071 144.17814,129.41338 143.84518,129.2136 C 143.28864,128.87968 142.64927,128.5947 142.05361,128.44579 C 141.578,128.32689 141.01447,127.91852 140.77392,127.67797 C 140.39316,127.29721 140.29774,127.02326 140.43266,126.48359 C 140.55842,125.98055 140.79315,125.85336 140.17672,125.54515 C 139.5582,125.23588 138.8206,125.37008 138.29984,125.63046 C 137.6846,125.93808 137.17379,126.70556 136.76421,125.8864 C 136.54222,125.44242 135.94776,124.89932 135.65514,124.60671 C 135.56983,124.52139 135.48451,124.43608 135.3992,124.35077 C 135.03668,123.98824 134.78567,123.70275 134.37544,123.49764 C 133.77846,123.19914 133.6758,122.90045 132.83981,122.90045 C 132.33666,122.90045 131.83918,123.00889 131.47481,122.64451 C 131.1691,122.3388 130.92612,122.18113 130.62168,121.87669 C 130.20254,121.45755 129.63101,121.65904 129.51261,122.13263 C 129.38602,122.63899 130.00409,123.04388 130.28042,123.41232 C 130.41436,123.5909 130.36574,124.87796 130.36574,125.03327 C 130.36574,125.57358 130.36574,126.1139 130.36574,126.65421 C 130.36574,127.28122 130.50141,127.45284 130.62168,127.93391 C 130.74593,128.43093 131.10239,128.74767 131.21887,129.2136 C 131.33497,129.678 131.87067,130.29367 132.32793,130.40799 C 132.63647,130.48512 133.18106,131.02023 133.18106,131.43174 C 133.18106,131.98581 132.99724,132.37018 133.60763,132.37018 C 134.19598,132.37018 134.47699,132.71143 135.05795,132.71143 C 135.58838,132.71143 135.77677,131.84563 136.16702,132.62612 C 136.54165,133.37538 137.07684,133.51899 138.0439,133.90581 C 138.79654,134.20687 138.97129,133.89476 139.49422,134.41769 C 139.92322,134.84669 140.14184,135.26598 140.60329,135.61207 C 141.03928,135.93907 141.25182,135.98804 141.3711,136.4652 C 141.54465,137.15939 141.12301,137.27028 141.88298,137.57427 C 142.31775,137.74818 142.88887,137.56534 143.24799,137.74489 C 143.49268,137.86724 143.41861,139.09237 143.41861,139.36584 C 143.41861,139.83987 143.64605,140.44621 143.75987,140.90147 C 143.80864,141.09655 144.15988,140.8556 144.35706,140.81616 z "
     id="path2317" />
  <path
     style="fill:none;fill-rule:evenodd;stroke:#000000;stroke-width:1;stroke-linecap:butt;stroke-linejoin:miter;stroke-miterlimit:4;stroke-dasharray:none;stroke-opacity:1"
     d="M 71.926377,143.0343 C 71.949417,143.12644 70.324127,142.93233 70.049497,142.86367 C 69.332097,142.68432 68.798917,142.84912 68.257927,143.11961 C 67.889407,143.30387 67.421317,143.28198 67.063547,143.46086 C 66.656047,143.66461 66.154467,143.61681 65.783847,143.80211 C 65.323207,144.03243 65.281747,144.53084 65.186657,144.91118 C 65.075597,145.35542 65.101347,145.76609 65.101347,146.27619 C 65.101347,146.88721 64.842787,147.30256 64.504157,147.64119 C 64.066267,148.07909 64.057127,148.63252 63.651027,148.83557 C 63.273867,149.02415 62.709377,148.92249 62.371337,149.09152 C 62.153827,149.20027 61.828327,149.92159 61.688827,150.20058 C 61.485497,150.60726 61.347577,150.83888 61.347577,151.39496 C 61.347577,152.04639 61.353657,152.40656 61.091637,152.9306 C 60.834457,153.44496 60.468267,153.37657 60.323827,153.95435 C 60.183867,154.51417 60.073497,154.72778 60.409137,155.06342 C 60.589007,155.24329 61.751247,155.23405 62.030077,155.23405 C 62.598837,155.23405 63.167587,155.23405 63.736337,155.23405 C 64.404937,155.23405 64.763067,155.53487 65.271967,155.91655 C 65.789797,156.30492 66.372497,156.32602 66.636977,156.85499 C 66.879507,157.34005 67.049437,157.36687 67.660737,157.36687 C 68.319777,157.36687 68.528577,157.16387 68.940427,156.85499 C 69.351377,156.54678 69.449237,156.51374 70.049497,156.51374 C 70.516697,156.51374 71.052347,156.85499 71.585127,156.85499 C 72.239327,156.85499 72.182317,156.57377 72.182317,156.00186 C 72.182317,155.36778 71.959447,154.93975 71.841067,154.46623 C 71.720327,153.98328 71.372477,153.70095 71.243877,153.18653 C 71.125437,152.71276 70.901477,152.5025 70.646687,152.16278 C 70.358607,151.77868 70.390747,151.37088 70.390747,150.88309 C 70.390747,150.38045 71.377527,150.44444 71.670437,150.37121 C 72.117097,150.25955 72.690567,150.30441 72.950137,150.20058 C 73.443967,150.00305 73.745537,149.94464 74.400457,149.94464 C 74.963447,149.94464 75.147827,150.25346 75.594837,150.02996 C 75.865947,149.8944 75.157617,148.64364 75.082957,148.49432 C 74.888137,148.10468 74.469927,147.87601 74.229827,147.55588 C 73.972847,147.21324 73.205857,146.87316 72.864827,146.53213 C 72.511417,146.17872 72.469247,145.70998 72.182317,145.42306 C 71.819827,145.06056 71.920557,144.50793 72.011687,144.14336 C 72.119397,143.71256 72.109777,143.49278 71.926377,143.0343 z "
     id="path2319" />
  <path
     style="fill:#ff0000;fill-rule:evenodd;stroke:#000000;stroke-width:1;stroke-linecap:butt;stroke-linejoin:miter;stroke-miterlimit:4;stroke-dasharray:none;stroke-opacity:1"
     d="M 103.15091,170.59037 C 103.28483,170.0547 104.23619,170.38304 104.77186,170.24912 C 105.33571,170.10816 105.63316,170.07441 106.13687,169.82256 C 106.76162,169.51018 106.93076,169.33278 107.33125,168.7988 C 107.64886,168.37532 107.65335,168.15808 108.18438,167.94567 C 108.55091,167.79906 108.8159,167.62991 109.20813,167.43379 C 109.69961,167.18806 110.26487,166.89166 110.82908,166.66598 C 111.31662,166.47096 111.74481,166.35173 112.19408,166.23941 C 112.71306,166.10967 113.0058,165.98099 113.21784,165.55691 C 113.3714,165.24979 113.20201,164.46986 113.13253,164.1919 C 113.03855,163.81599 113.13408,163.24726 113.21784,162.91221 C 113.31823,162.51063 113.21784,161.96373 113.21784,161.5472 C 113.21784,161.03569 113.81801,160.85873 113.98566,160.52345 C 114.19127,160.11222 114.63928,160.12709 114.75347,159.67032 C 114.86122,159.23934 114.81174,158.75473 114.9241,158.30531 C 115.073,157.7097 115.35066,157.43916 115.35066,156.76968 C 115.35066,156.59359 115.52129,156.02385 115.52129,155.66061 C 115.52129,155.21549 114.72504,156.05874 114.32691,156.2578 C 113.83059,156.50596 113.70457,156.59905 113.04721,156.59905 C 112.46195,156.59905 112.36469,156.81234 111.85283,156.9403 C 111.39754,157.05413 110.79001,156.9403 110.3172,156.9403 C 109.7572,156.9403 109.28689,157.03217 108.95219,157.36687 C 108.51641,157.80265 108.18438,157.60608 108.18438,158.39062 C 108.18438,158.81719 108.18438,159.24375 108.18438,159.67032 C 108.18438,160.29734 108.33369,160.52345 107.6725,160.52345 C 107.24235,160.52345 107.24594,159.93897 107.24594,159.49969 C 107.24594,158.87418 106.72553,158.9025 106.13687,158.9025 C 105.54674,158.9025 105.38013,159.19556 104.94249,159.41438 C 104.51991,159.62567 104.43061,159.95207 104.43061,160.43814 C 104.43061,160.7196 105.4429,160.60876 105.62499,160.60876 C 105.94979,160.60876 106.25622,161.23999 106.47812,161.46189 C 106.84139,161.82516 106.73406,162.37815 106.73406,162.99752 C 106.73406,163.5094 106.73406,164.02128 106.73406,164.53315 C 106.73406,164.98816 106.73406,165.44316 106.73406,165.89816 C 106.73406,166.25448 106.11432,166.25069 105.79562,166.41004 C 105.40868,166.60351 105.13451,167.04974 104.94249,167.43379 C 104.70567,167.90743 104.61308,168.53102 104.34529,168.7988 C 104.11099,169.03311 103.91897,169.31044 103.66279,169.56662 C 103.34589,169.88352 103.3714,170.1494 103.15091,170.59037 z "
     id="path2321" />
  <path
     style="fill:none;fill-rule:evenodd;stroke:#000000;stroke-width:1;stroke-linecap:butt;stroke-linejoin:miter;stroke-miterlimit:4;stroke-dasharray:none;stroke-opacity:1"
     d="M 184.62476,143.63149 C 184.32313,143.93311 184.62476,142.77836 184.62476,142.35179 C 184.62476,141.98363 183.78396,142.09585 183.51569,142.09585 C 183.01708,142.09585 182.58414,142.18117 182.06537,142.18117 C 181.52028,142.18117 181.16065,142.42025 180.78568,142.60773 C 180.40172,142.79971 180.10315,143.29026 179.84724,143.63149 C 179.68434,143.84868 178.67825,143.73178 178.39692,143.80211 C 177.98599,143.90484 177.38973,144.72399 177.03191,145.08181 C 176.74627,145.36744 176.25221,145.54725 175.92284,145.679 C 175.44737,145.86918 174.96667,146.27619 174.47252,146.27619 C 174.13462,146.27619 173.54594,146.86152 173.27814,147.12932 C 172.84798,147.55947 172.33082,147.92512 171.91314,148.23839 C 171.4526,148.58379 170.93432,147.87695 170.63344,147.72651 C 170.34956,147.58457 170.0643,146.90143 169.78031,146.61744 C 169.47712,146.31425 168.71813,146.85954 168.58593,146.95869 C 168.20065,147.24765 167.82516,146.98178 167.39155,146.87338 C 167.01953,146.78037 166.49759,146.87338 166.11185,146.87338 C 165.71787,146.87338 165.52153,146.02025 164.91747,146.02025 C 164.27177,146.02025 164.1619,146.13005 164.4056,146.61744 C 164.50741,146.82108 164.98177,147.08729 165.17341,147.47057 C 165.41735,147.95844 165.60553,148.42012 165.85591,148.92089 C 166.01501,149.23908 166.91263,149.09152 167.22092,149.09152 C 167.81371,149.09152 168.04124,148.75026 168.67124,148.75026 C 168.91228,148.75026 169.04774,149.63864 169.18312,149.77402 C 169.48753,150.07843 170.13621,149.43643 170.46281,149.51808 C 170.85004,149.61489 170.45132,150.32524 170.54813,150.71246 C 170.65709,151.14833 171.07807,151.49834 171.31594,151.73622 C 171.69759,152.11786 171.84724,152.57964 171.31594,152.84528 C 171.08186,152.96232 170.78259,153.44305 170.71875,153.69841 C 170.59416,154.1968 170.7265,154.64461 171.06,154.97811 C 171.49869,155.4168 172.06448,155.81196 172.42501,156.17249 C 172.62878,156.37626 173.65019,156.43612 173.96064,156.51374 C 174.35466,156.61224 174.91585,156.51374 175.32565,156.51374 C 175.62806,156.51374 175.49628,157.68498 175.49628,157.96406 C 175.49628,158.77449 175.35559,159.04544 175.92284,159.32907 C 176.8471,159.7912 176.29344,158.84654 176.09347,158.64656 C 175.74685,158.29995 175.94413,157.75086 176.09347,157.45218 C 176.2728,157.09352 176.99951,156.72999 177.28785,156.51374 C 177.58547,156.29052 177.82512,155.97646 178.14097,155.66061 C 178.42974,155.37185 179.65987,155.82287 179.84724,155.91655 C 180.391,156.18843 180.84824,156.38975 181.46818,156.51374 C 182.16269,156.65264 182.54825,156.86224 183.25975,156.68436 C 183.66387,156.58333 183.75031,156.17249 184.36882,156.17249 C 184.89973,156.17249 185.34062,156.15581 185.64851,156.00186 C 185.90884,155.8717 186.2819,155.41695 186.67227,155.31936 C 187.33214,155.15439 187.74698,155.35371 188.2079,154.8928 C 188.62162,154.47908 188.97572,154.62424 188.97572,153.86904 C 188.97572,153.41914 189.18228,153.02495 189.06103,152.41872 C 188.9397,151.81204 188.38494,151.17601 188.03728,150.71246 C 187.65906,150.20818 187.92772,149.96889 188.29321,149.60339 C 188.58095,149.31566 188.08098,148.49642 188.03728,148.40901 C 187.85023,148.03491 187.3386,147.69416 187.09883,147.21463 C 186.91767,146.85231 186.98692,146.24407 187.18415,145.84962 C 187.34366,145.53059 187.26946,144.96617 187.26946,144.56993 C 187.26946,144.07341 186.31706,143.97274 185.98976,143.97274 C 185.38805,143.97274 185.12685,144.03316 184.62476,143.63149 z "
     id="path2323" />
  <path
     style="fill:none;fill-rule:evenodd;stroke:#000000;stroke-width:1;stroke-linecap:butt;stroke-linejoin:miter;stroke-miterlimit:4;stroke-dasharray:none;stroke-opacity:1"
     d="M 184.79538,169.22537 C 184.36224,169.22537 184.58979,170.11346 184.28351,170.41975 C 183.96158,170.74167 183.78152,171.09237 183.51569,171.35819 C 182.959,171.91488 184.00799,172.58809 184.28351,172.80851 C 184.64017,173.09384 184.85374,173.47079 185.22195,173.74695 C 185.72068,174.121 185.81395,174.53455 186.16039,175.11196 C 186.36189,175.44779 186.08915,176.19289 185.98976,176.39165 C 185.69629,176.9786 185.36065,177.38073 184.8807,177.50072 C 184.39088,177.62318 183.86334,177.58603 183.34507,177.58603 C 182.87627,177.58603 182.32017,177.58575 181.98006,177.50072 C 181.45903,177.37046 181.08058,176.91327 180.70037,176.81821 C 180.10868,176.6703 179.82975,176.47696 179.25004,176.47696 C 178.7666,176.47696 178.28317,176.47696 177.79973,176.47696 C 177.33119,176.47696 177.37316,175.90929 177.37316,175.45321 C 177.37316,175.05806 178.17003,174.82696 178.39692,174.60008 C 178.62829,174.3687 178.2797,173.34189 178.22629,173.23507 C 178.01416,172.81081 177.79435,172.35508 177.71441,171.95538 C 177.61835,171.47508 177.80021,170.84534 177.97035,170.50506 C 178.20973,170.0263 178.49431,169.85917 178.90879,169.65193 C 179.32104,169.44581 179.33536,168.85839 179.33536,168.37224 C 179.33536,167.80206 179.11729,167.26317 179.76192,167.26317 C 180.21588,167.26317 180.69723,167.60207 181.04162,167.86036 C 181.45758,168.17233 181.86465,168.34916 182.40662,168.45755 C 182.82283,168.54079 183.44378,168.54621 183.77163,168.62818 C 184.23507,168.74404 184.43955,168.86953 184.79538,169.22537 z "
     id="path2325" />
  <path
     style="fill:none;fill-rule:evenodd;stroke:#000000;stroke-width:1;stroke-linecap:butt;stroke-linejoin:miter;stroke-miterlimit:4;stroke-dasharray:none;stroke-opacity:1"
     d="M 129.25667,207.53087 C 129.50814,207.59374 128.69483,206.41206 128.57417,206.25118 C 128.23754,205.80234 127.90892,205.51787 127.72104,205.14211 C 127.49288,204.68579 127.11936,204.37205 126.78259,204.20367 C 126.26515,203.94494 126.18674,204.71822 125.75884,203.86241 C 125.4931,203.33093 126.22272,202.99063 126.52666,202.83866 C 127.04679,202.57859 127.20916,202.44304 127.20916,201.81491 C 127.20916,201.27403 126.40496,201.21044 126.01478,201.1324 C 125.41897,201.01324 125.13167,201.15257 124.64977,200.79115 C 124.30232,200.53056 124.08896,200.21215 123.71133,200.02333 C 123.27803,199.80668 122.77975,199.81348 122.34632,199.59677 C 121.89686,199.37204 121.91976,198.9657 121.91976,198.4877 C 121.91976,197.84004 121.86534,197.89051 121.23725,197.89051 C 120.58125,197.89051 120.48382,197.96863 119.95756,198.23176 C 119.79407,198.31351 119.43354,199.18235 119.27506,199.34083 C 119.12271,199.49317 118.08613,199.34083 117.82474,199.34083 C 117.17169,199.34083 117.11087,199.71345 116.71567,200.10864 C 116.42393,200.40038 116.56378,200.79115 115.86254,200.79115 C 115.55009,200.79115 114.72771,201.52919 114.49753,201.64428 C 113.94667,201.91971 112.98683,201.72959 112.36471,201.72959 C 111.81196,201.72959 111.58848,201.73801 111.25564,202.07084 C 110.95249,202.37399 111.06666,202.88726 111.25564,203.26522 C 111.45735,203.66864 112.08387,203.83751 112.45002,204.20367 C 112.79675,204.5504 111.6419,204.67524 112.2794,205.31273 C 112.73628,205.76962 112.62065,206.17643 112.62065,206.84836 C 112.62065,207.09809 111.06317,207.40836 110.91439,207.44556 C 110.32579,207.59271 110.1204,207.80622 109.97595,208.384 C 109.82887,208.97231 109.42889,209.37784 109.29345,209.91963 C 109.21053,210.25129 108.80027,210.76455 108.69625,211.28464 C 108.59703,211.78077 108.18989,212.02975 107.75781,212.13777 C 107.29609,212.2532 107.07212,212.74133 106.90468,213.07621 C 106.65796,213.56964 107.81976,213.18869 107.92844,213.16152 C 108.32295,213.06289 109.17316,213.24684 109.6347,213.24684 C 110.14657,213.24684 110.65845,213.24684 111.17033,213.24684 C 111.63324,213.24684 112.11326,212.81691 112.45002,212.56433 C 112.93352,212.20171 113.00384,211.96714 113.72972,211.96714 C 114.19125,211.96714 114.4555,211.41198 114.66816,211.19932 C 115.00664,210.86084 115.72209,210.8691 116.20379,210.77276 C 116.65525,210.68247 117.0545,210.26572 117.22755,209.91963 C 117.44634,209.48205 117.84919,209.35885 118.08068,208.89588 C 118.22799,208.60124 118.27636,208.02781 118.33662,207.78681 C 118.43996,207.37344 119.408,207.36025 119.70162,207.36025 C 120.28167,207.36025 120.59076,207.39625 120.896,207.7015 C 121.11736,207.92285 121.4074,208.04227 121.66382,208.29869 C 122.05182,208.68668 122.04682,209.06286 122.1757,209.57838 C 122.28038,209.99711 122.34632,210.37498 122.34632,210.77276 C 122.34632,211.29446 122.41541,211.561 122.51695,211.96714 C 122.69764,212.68991 123.3176,211.28679 123.37008,211.19932 C 123.5256,210.94012 123.4104,209.93367 123.45539,209.66369 C 123.54587,209.12084 123.84469,208.87431 123.96727,208.384 C 124.11529,207.7919 123.97038,207.52776 124.39383,207.1043 C 124.64216,206.85598 125.29435,206.6422 125.58821,206.4218 C 126.04174,206.08165 126.60569,206.78312 126.78259,207.01899 C 127.1371,207.49166 127.31587,207.89352 127.72104,208.29869 C 127.89003,208.46768 128.82664,208.23557 128.91542,208.21337 C 129.16218,208.15168 129.1258,207.74898 129.25667,207.53087 z "
     id="path2327" />
  <path
     style="fill:none;fill-rule:evenodd;stroke:#000000;stroke-width:1;stroke-linecap:butt;stroke-linejoin:miter;stroke-miterlimit:4;stroke-dasharray:none;stroke-opacity:1"
     d="M 138.29984,251.63765 C 138.57735,251.56828 137.41136,251.07428 136.59358,250.86984 C 136.15509,250.76022 135.85593,250.69921 135.31389,250.69921 C 134.79724,250.69921 134.56356,250.77578 134.20482,250.95515 C 133.68512,251.215 133.13916,251.46703 132.58387,251.46703 C 132.05897,251.46703 131.79935,251.75639 131.56012,252.23485 C 131.28674,252.78159 131.04824,253.02646 131.04824,253.68516 C 131.04824,254.40488 131.3973,254.75743 131.90137,255.13548 C 132.11108,255.29277 132.15521,256.6232 132.24262,256.84174 C 132.4767,257.42694 133.25287,257.27951 133.69294,257.60956 C 134.64455,258.32327 135.73201,258.71018 136.50827,259.48644 C 137.18991,260.16809 137.76836,260.08364 138.7264,260.08364 C 139.34305,260.08364 139.6201,259.78713 139.92079,259.48644 C 140.36046,259.04677 140.40115,258.86235 141.02985,258.548 C 141.57038,258.27774 141.89406,258.41837 142.05361,257.78019 C 142.17734,257.28525 142.22423,256.79434 142.22423,256.24455 C 142.22423,255.57462 142.03909,255.46221 141.62705,255.05017 C 141.5265,254.94963 141.39954,254.87955 141.28579,254.79423 C 140.86929,254.48185 140.71872,254.11299 140.26204,253.77048 C 140.01692,253.58664 139.56546,252.8892 139.40891,252.5761 C 139.23992,252.23812 138.61927,251.8932 138.29984,251.63765 z "
     id="path2329" />
  <path
     style="fill:none;fill-rule:evenodd;stroke:#000000;stroke-width:1;stroke-linecap:butt;stroke-linejoin:miter;stroke-miterlimit:4;stroke-dasharray:none;stroke-opacity:1"
     d="M 198.78671,262.64302 C 198.77624,262.62209 197.55954,262.60856 197.08044,262.72833 C 196.5903,262.85087 196.26083,263.18918 195.71544,263.32553 C 195.24197,263.44389 194.78317,263.50232 194.43575,263.1549 C 194.03242,262.75157 193.57862,262.90295 193.32668,263.1549 C 193.08136,263.40021 192.5187,263.49615 192.04699,263.49615 C 191.45308,263.49615 191.23578,262.83388 190.93792,262.38708 C 190.68098,262.00168 189.86386,262.04583 189.40228,262.04583 C 188.71712,262.04583 188.12508,262.08973 187.5254,261.78989 C 187.0883,261.57134 186.62384,261.18116 186.41633,260.76614 C 186.10174,260.13695 185.94609,259.70075 186.41633,259.23051 C 186.91332,258.73351 188.10152,258.80394 188.71978,258.80394 C 189.54824,258.80394 189.82765,258.71982 190.42604,258.12144 C 190.90856,257.63892 190.7999,257.41535 191.5351,257.26831 C 192.13645,257.14804 192.78445,257.18299 193.41199,257.18299 C 193.60724,257.18299 194.21239,256.44154 194.43575,256.32986 C 194.96243,256.06652 195.51574,256.72735 195.71544,256.92706 C 196.15169,257.36331 196.25367,258.31216 196.39794,258.88925 C 196.42638,259.003 196.45482,259.11675 196.48326,259.23051 C 196.64603,259.88162 196.7082,259.93242 197.25107,260.33957 C 197.67189,260.65518 198.06085,261.14935 198.44545,261.53395 C 198.71917,261.80767 198.78671,262.30774 198.78671,262.64302 z "
     id="path2331" />
  <path
     style="fill:none;fill-rule:evenodd;stroke:#000000;stroke-width:1;stroke-linecap:butt;stroke-linejoin:miter;stroke-miterlimit:4;stroke-dasharray:none;stroke-opacity:1"
     d="M 70.220127,291.99067 C 70.352237,292.12279 71.816187,291.16242 72.097007,290.8816 C 72.473407,290.50519 73.080527,290.36488 73.291387,289.94316 C 73.521517,289.4829 73.797407,289.34597 74.315137,289.34597 C 75.005927,289.34597 74.921467,289.98125 75.680147,289.60191 C 76.104737,289.38962 75.971887,288.64976 75.765467,288.2369 C 75.585067,287.87611 74.634047,287.55304 74.315137,287.12783 C 73.931107,286.61579 73.390877,287.11366 73.120757,287.38377 C 72.786597,287.71794 72.471367,287.83644 72.011687,288.06628 C 71.570177,288.28704 70.969487,288.2369 70.476057,288.2369 C 69.770287,288.2369 69.435857,288.68711 68.855117,288.9194 C 68.377667,289.11038 67.882687,289.09003 67.319477,289.09003 C 66.962937,289.09003 66.867447,289.95971 66.807607,290.1991 C 66.673327,290.7362 67.063547,291.10304 67.063547,291.56411 C 67.063547,292.11087 68.027807,292.1613 68.428547,292.1613 C 69.096607,292.1613 69.594917,292.11571 70.220127,291.99067 z "
     id="path2333" />
  <path
     style="fill:none;fill-rule:evenodd;stroke:#000000;stroke-width:1;stroke-linecap:butt;stroke-linejoin:miter;stroke-miterlimit:4;stroke-dasharray:none;stroke-opacity:1"
     d="M 105.53967,296.59757 C 105.85033,296.59757 106.73726,296.93882 107.33125,296.93882 C 107.87743,296.93882 108.42137,297.19476 109.03751,297.19476 C 109.58564,297.19476 109.78327,296.96087 110.06126,296.68288 C 110.52786,296.21628 109.67748,295.65912 110.57314,295.65912 C 111.25597,295.65912 111.47137,295.39339 111.5969,294.89131 C 111.72049,294.39693 111.5969,293.69172 111.5969,293.18505 C 111.5969,292.70161 111.5969,292.21817 111.5969,291.73473 C 111.5969,291.01 111.47552,290.77167 112.10877,290.45504 C 112.67453,290.17216 112.68638,290.13336 113.04721,289.77253 C 113.35572,289.46403 113.28239,289.11655 113.72972,289.00472 C 114.18123,288.89184 114.89382,288.83409 115.18004,288.83409 C 115.78583,288.83409 116.15664,288.93738 116.28911,288.40753 C 116.37699,288.05599 116.75676,287.81346 116.8863,287.5544 C 117.02061,287.28577 117.78593,287.15114 117.99536,286.87189 C 118.29192,286.47648 118.15884,285.91915 117.99536,285.5922 C 117.76221,285.12589 117.32385,284.92069 116.97161,284.56844 C 116.59436,284.1912 116.34917,284.00607 116.11848,283.54469 C 115.76921,282.84615 115.69191,283.8755 115.69191,284.14188 C 115.69191,284.80277 115.51676,284.84684 114.9241,284.99501 C 114.40356,285.12515 114.03297,285.25095 113.38846,285.25095 C 112.84815,285.25095 112.30783,285.25095 111.76752,285.25095 C 111.25564,285.25095 110.74377,285.25095 110.23189,285.25095 C 109.71268,285.25095 109.45332,284.81632 109.12282,284.56844 C 108.72847,284.27268 108.18064,284.65376 107.75781,284.65376 C 107.37756,284.65376 106.6952,285.08033 106.13687,285.08033 C 105.52418,285.08033 105.22554,285.13852 104.94249,285.42157 C 104.5959,285.76816 105.15995,286.32154 105.28374,286.44533 C 105.43489,286.59648 105.5817,287.63845 105.7103,287.89565 C 105.94656,288.36816 106.24305,288.83348 106.56343,289.26066 C 106.88579,289.69047 107.24594,289.78672 107.24594,290.45504 C 107.24594,290.8816 107.24594,291.30817 107.24594,291.73473 C 107.24594,292.3691 106.91391,292.74311 106.64874,293.18505 C 106.35679,293.67165 106.25308,294.1573 105.96624,294.63537 C 105.76157,294.97649 105.3133,295.17343 105.11311,295.57381 C 104.88367,296.0327 104.9784,296.32815 105.11311,296.59757 C 105.1767,296.72474 105.39749,296.59757 105.53967,296.59757 z "
     id="path2335" />
  <path
     style="fill:none;fill-rule:evenodd;stroke:#000000;stroke-width:1;stroke-linecap:butt;stroke-linejoin:miter;stroke-miterlimit:4;stroke-dasharray:none;stroke-opacity:1"
     d="M 120.896,302.65479 C 120.98239,302.82756 120.896,303.89816 120.896,304.36104 C 120.896,304.82789 120.91462,305.31036 120.81069,305.72605 C 120.6666,306.3024 120.84654,306.23793 121.49319,306.23793 C 121.98416,306.23793 122.30997,306.1617 122.68758,306.0673 C 123.03642,305.98009 122.80364,307.13868 122.77289,307.26169 C 122.66505,307.69305 121.80233,307.85887 122.77289,307.85887 C 123.23926,307.85887 123.65227,307.84575 123.96727,307.68825 C 124.51691,307.41343 124.97849,307.2253 125.58821,306.92043 C 126.03498,306.69705 126.18541,306.30004 126.18541,305.81136 C 126.18541,305.35636 126.18541,304.90136 126.18541,304.44636 C 126.18541,304.28273 127.19473,303.98435 127.29447,303.93448 C 127.75133,303.70605 127.72104,303.35565 127.72104,302.82541 C 127.72104,302.39885 127.72104,301.97228 127.72104,301.54572 C 127.72104,301.03384 127.72104,300.52196 127.72104,300.01008 C 127.72104,299.68501 127.08178,299.28552 126.86791,299.07164 C 126.53225,298.73599 126.46001,298.46382 126.35603,298.04789 C 126.2361,297.56819 126.6737,297.28597 127.03853,297.19476 C 127.34944,297.11703 127.7455,296.67065 128.06229,296.51226 C 128.63765,296.22457 129.08089,295.92021 129.51261,295.4885 C 129.78918,295.21193 130.1098,295.05282 130.1098,294.55006 C 130.1098,294.28483 128.99947,294.37943 128.8301,294.37943 C 128.31231,294.37943 128.11422,294.9247 127.89166,295.14725 C 127.57152,295.46739 127.28958,295.40319 126.78259,295.40319 C 126.28277,295.40319 125.88763,295.14725 125.33228,295.14725 C 124.76492,295.14725 124.51102,295.20865 124.13789,295.4885 C 123.7028,295.81482 123.34257,296.48335 122.77289,296.76819 C 122.3131,296.99809 121.94733,297.10945 121.40788,297.10945 C 120.95288,297.10945 120.49787,297.10945 120.04287,297.10945 C 119.46281,297.10945 119.10193,296.74499 118.67787,296.42694 C 118.21517,296.07992 118.03354,296.01216 117.39817,296.17101 C 116.77344,296.32719 116.64395,297.08225 116.37442,297.62132 C 116.14934,298.07148 116.28459,298.88297 116.37442,299.24227 C 116.41188,299.39212 117.35138,299.56976 117.48349,299.66884 C 117.867,299.95647 118.35814,299.77567 118.67787,300.0954 C 118.77074,300.18827 118.79621,301.35583 118.84849,301.4604 C 119.08418,301.93177 119.59246,301.83239 120.04287,302.0576 C 120.395,302.23365 120.52695,302.43335 120.896,302.65479 z "
     id="path2337" />
  <path
     style="fill:none;fill-rule:evenodd;stroke:#000000;stroke-width:1;stroke-linecap:butt;stroke-linejoin:miter;stroke-miterlimit:4;stroke-dasharray:none;stroke-opacity:1"
     d="M 210.90114,288.9194 L 210.90114,295.91506 C 210.05216,295.73253 209.12771,295.39412 208.42706,295.74444 C 207.87424,296.02085 208.00021,296.35875 207.23268,296.51226 C 206.83715,296.59136 206.29766,296.51311 205.95299,296.42694 C 205.62095,296.34393 205.26686,295.71116 205.09986,295.4885 C 204.75126,295.0237 204.46655,295.05198 204.33205,294.37943 C 204.25217,293.98004 205.40269,293.69523 205.61174,293.61162 C 206.05555,293.43409 205.95299,293.25695 205.95299,292.67317 C 205.95299,292.29675 205.29243,292.06014 205.01455,291.99067 C 204.77383,291.93049 204.82606,290.81016 204.75861,290.54035 C 204.68762,290.25637 203.80018,290.25808 203.56423,290.1991 C 203.29688,290.13226 202.97893,289.6138 202.79641,289.43128 C 202.46975,289.10463 202.15679,288.74923 201.94328,288.32222 C 201.6421,287.71986 202.15785,287.63092 202.54047,287.5544 C 203.13204,287.43608 203.05235,286.7727 203.05235,286.18939 C 203.05235,285.7154 203.71325,285.18724 203.99079,284.9097 C 204.26002,284.64047 204.41736,284.50832 204.41736,283.97126 C 204.41736,283.3211 204.80895,283.44118 205.01455,283.71532 C 205.15247,283.89922 205.01455,284.75008 205.01455,284.99501 C 205.01455,285.50689 205.01455,286.01877 205.01455,286.53064 C 205.01455,287.02439 205.10174,287.47285 205.27049,287.81034 C 205.51288,288.29513 205.94809,288.5806 206.46487,288.32222 C 206.54845,288.28042 206.46487,287.08678 206.46487,286.95721 C 206.46487,286.62665 207.06204,286.27473 207.23268,285.93345 C 207.53781,285.3232 207.90953,285.82551 208.0005,286.18939 C 208.14078,286.75051 207.9717,287.05692 207.65925,287.21315 C 206.97037,287.55759 207.43187,288.16587 207.91519,288.40753 C 208.22327,288.56157 209.07701,288.40753 209.45082,288.40753 C 210.13899,288.40753 210.16122,289.06739 210.90114,288.9194 z "
     id="path2339" />
  <path
     style="fill:none;fill-rule:evenodd;stroke:#000000;stroke-width:1;stroke-linecap:butt;stroke-linejoin:miter;stroke-miterlimit:4;stroke-dasharray:none;stroke-opacity:1"
     d="M 204.58798,307.09106 C 205.0155,307.09106 204.6733,307.94324 204.6733,308.37075 C 204.6733,308.59111 205.38817,309.25625 205.52643,309.39451 C 205.81312,309.68121 205.68714,310.20198 205.61174,310.50358 C 205.4909,310.98694 205.27049,311.07597 205.27049,311.52733 C 205.27049,311.89702 205.27049,312.26671 205.27049,312.6364 C 205.06982,312.53606 203.94925,312.25138 203.73485,312.46577 C 203.69273,312.5079 202.66871,313.53263 202.54047,313.3189 C 202.36898,313.03308 201.59785,312.03921 201.26078,312.03921 C 200.65606,312.03921 200.42161,312.46298 199.98109,312.55108 C 199.62987,312.62133 198.68709,312.86422 198.87202,312.12452 C 198.95206,311.80434 199.09218,311.39248 199.38389,311.10077 C 200.05708,310.42758 199.04264,310.51907 199.04264,309.90639 C 199.04264,309.51469 199.12796,309.18521 199.12796,308.712 C 199.12796,308.51059 199.09592,307.40567 199.21327,307.347 C 199.42803,307.23962 199.98109,306.96335 199.98109,306.66449 C 199.98109,306.26323 200.38892,305.72605 200.7489,305.72605 C 201.05744,305.72605 201.75972,305.86049 202.0286,305.72605 C 202.43171,305.52449 202.80331,305.477 203.22298,305.89668 C 203.7474,306.4211 204.58798,307.10945 204.58798,307.09106 z "
     id="path2343" />
  <path
     style="fill:none;fill-rule:evenodd;stroke:#000000;stroke-width:1;stroke-linecap:butt;stroke-linejoin:miter;stroke-miterlimit:4;stroke-dasharray:none;stroke-opacity:1"
     d="M 205.27049,312.6364 C 205.27049,312.26671 205.27049,311.89702 205.27049,311.52733 C 205.27049,311.07597 205.4909,310.98694 205.61174,310.50358 C 205.68714,310.20198 205.81312,309.68121 205.52643,309.39451 C 205.38817,309.25625 204.6733,308.59111 204.6733,308.37075 C 204.6733,307.94324 205.0155,307.09106 204.58798,307.09106 C 204.68853,306.99052 204.75861,306.86356 204.84392,306.74981 C 205.04796,306.47776 205.19072,306.12489 205.27049,305.72605 C 205.34374,305.3598 204.75214,304.93235 204.6733,304.61698 C 204.50466,303.94244 205.1036,304.0198 205.61174,304.0198 C 206.08228,304.0198 206.29424,304.0941 206.29424,303.4226 C 206.29424,303.04297 206.91142,303.08135 207.318,303.08135 C 207.80875,303.08135 207.9509,302.6032 208.42706,302.48416 C 208.79908,302.39115 209.32102,302.48416 209.70676,302.48416 C 209.99771,302.48416 210.26797,302.15191 210.6452,302.0576 C 210.93261,301.98574 210.79205,302.1555 210.90114,302.22822 L 210.90114,308.96794 C 210.75895,308.91107 210.61677,308.85419 210.47457,308.79732 C 209.96125,308.59199 209.66147,308.92792 209.45082,309.13857 C 209.16728,309.42211 209.11775,310.04428 209.02426,310.41826 C 208.92027,310.83421 208.93894,311.25609 208.93894,311.69796 C 208.93894,311.98052 208.18391,312.49995 208.08581,312.89234 C 207.96672,313.36874 207.56932,313.29873 207.14737,313.40421 C 206.71371,313.51263 206.24266,313.37843 205.95299,313.23359 C 205.68852,313.10135 205.63279,312.85378 205.27049,312.6364 z "
     id="path2345" />
  <path
     style="fill:none;fill-rule:evenodd;stroke:#000000;stroke-width:1;stroke-linecap:butt;stroke-linejoin:miter;stroke-miterlimit:4;stroke-dasharray:none;stroke-opacity:1"
     d="M 192.21761,383.10489 C 192.04846,383.02029 190.47568,383.60682 189.99947,383.70206 C 189.49328,383.8033 189.1014,384.33182 188.54915,384.46989 C 187.84756,384.64528 187.41856,384.89645 186.58696,384.89645 C 186.04664,384.89645 185.50633,384.89645 184.96601,384.89645 C 184.54962,384.89645 184.01521,385.32794 183.601,385.49362 C 183.12321,385.68476 182.66123,385.74956 182.15069,385.74956 C 181.51347,385.74956 181.25176,385.15239 180.61505,385.15239 C 180.01733,385.15239 179.59961,384.90754 179.33536,384.55518 C 179.06296,384.19201 178.66032,383.88264 178.39692,383.53145 C 178.09287,383.12606 177.53927,383.12104 177.03191,383.01956 C 176.5157,382.91631 175.79878,383.10489 175.24034,383.10489 C 174.54129,383.10489 174.04556,383.23313 173.53408,383.61674 C 173.24322,383.83491 172.72324,384.28867 172.3397,384.38456 C 171.98279,384.47378 171.11529,383.95202 170.71875,383.87268 C 170.2433,383.7776 169.86314,383.48753 169.43906,383.27551 C 168.98011,383.04604 168.34923,383.11319 168.24468,383.53145 C 168.13927,383.95307 168.24468,384.54081 168.24468,384.98178 C 168.24468,385.64392 168.30851,386.04789 168.58593,386.60272 C 168.83294,387.09671 169.00031,387.07801 168.84187,387.71177 C 168.69368,388.30453 167.38377,387.21539 167.13561,387.02927 C 166.95222,386.89173 166.28265,387.47712 166.02654,387.54116 C 165.58769,387.65085 165.36838,388.19929 165.0881,388.4796 C 164.6332,388.93449 164.55695,389.3245 164.4056,389.92993 C 164.29293,390.38057 164.82396,391.02806 165.0881,391.38021 C 165.39596,391.7907 165.42935,392.46628 165.42935,393.00116 C 165.42935,393.59715 165.46955,393.92976 165.59998,394.45148 C 165.70221,394.86043 166.1139,395.47796 166.36779,395.81648 C 166.65926,396.20511 166.92883,396.37755 167.30624,396.75492 C 167.74797,397.1967 168.4021,397.42423 168.84187,397.86402 C 169.17585,398.198 169.6405,398.11996 170.12156,398.11996 C 170.27825,398.11996 170.60548,397.15209 170.63344,397.09619 C 170.89684,396.56937 170.70143,396.50331 171.40125,396.32837 C 171.96532,396.18738 172.41502,396.57933 172.76626,396.75492 C 173.14775,396.9457 173.30252,397.71777 173.61939,398.03464 C 173.9788,398.39404 174.26415,398.93531 174.55783,399.22902 C 175.06002,399.73119 174.53209,399.99685 175.49628,399.99685 C 176.00815,399.99685 176.52003,399.99685 177.03191,399.99685 C 177.48776,399.99685 178.01358,400.47688 178.48223,400.59402 C 179.02826,400.73055 179.61052,400.76463 180.18849,400.76463 C 180.70605,400.76463 181.25774,400.73338 181.72412,400.84996 C 182.21313,400.97221 182.65195,401.14327 183.08913,401.36185 C 183.46216,401.54837 184.37101,401.36185 184.79538,401.36185 C 185.34788,401.36185 185.9147,401.34683 186.41633,401.44713 C 186.87742,401.53938 187.50689,401.4564 187.86665,401.27652 C 188.36944,401.02515 188.48622,400.74229 188.80509,400.4234 C 189.13552,400.09298 189.46579,399.6506 189.91416,399.31435 C 190.5056,398.87075 190.87323,398.6112 191.36448,398.11996 C 191.6669,397.81751 192.0511,397.43641 192.38824,397.35214 C 192.82067,397.24402 193.07428,396.9238 193.41199,396.75492 C 193.7619,396.57998 193.58262,395.45659 193.58262,395.13398 C 193.58262,394.56523 193.58262,393.99651 193.58262,393.42775 C 193.58262,392.8911 193.61768,392.47098 193.92387,392.06271 C 194.30773,391.55091 193.64186,391.06861 193.24137,390.86837 C 192.6887,390.59203 192.47264,390.18405 192.21761,389.67399 C 192.03686,389.31248 192.8874,389.12765 192.98543,388.73554 C 193.08499,388.33728 193.07074,387.90623 193.07074,387.54116 C 193.07074,387.03235 192.57581,386.28407 192.30292,385.92022 C 191.96767,385.47318 191.96167,385.02731 191.96167,384.46989 C 191.96167,383.9198 191.92288,383.59609 192.21761,383.10489 z "
     id="path2347" />
  <path
     style="fill:none;fill-rule:evenodd;stroke:#000000;stroke-width:1;stroke-linecap:butt;stroke-linejoin:miter;stroke-miterlimit:4;stroke-dasharray:none;stroke-opacity:1"
     d="M 72.142771,638.44647 C 72.142771,638.44145 73.196681,638.41134 73.678401,638.53176 C 74.272961,638.68043 74.886861,638.46428 75.299351,638.36114 C 75.764071,638.24497 76.257691,638.27586 76.749661,638.27586 C 77.531271,638.27586 77.703391,638.18162 77.858731,638.95836 C 77.949201,639.4107 77.856231,640.07741 77.773421,640.40864 C 77.722011,640.61427 76.675841,641.29584 76.493731,641.43241 C 76.148191,641.69155 75.858251,641.92078 75.469971,642.11491 C 75.171711,642.26403 75.019901,642.75912 74.872781,643.05335 C 74.627721,643.54346 74.275591,643.36835 74.275591,644.16241 C 74.275591,644.36189 75.325941,644.93728 75.384661,645.01556 C 75.749221,645.50162 74.977741,645.86868 75.896531,645.86868 C 76.431071,645.86868 76.497191,646.29872 76.749661,646.55118 C 77.149111,646.95066 76.803091,647.48962 76.408411,647.48962 C 75.896531,647.48962 75.384661,647.48962 74.872781,647.48962 C 74.386591,647.48962 73.993361,647.46011 73.593081,647.66028 C 73.236461,647.83858 73.030851,648.3078 72.825271,648.51339 C 72.680061,648.65858 72.467261,648.77771 72.313391,648.85462"
     id="path2349" />
  <path
     style="fill:#e8e2b7;fill-opacity:1;fill-rule:evenodd;stroke:#000000;stroke-width:1.5;stroke-linecap:butt;stroke-linejoin:miter;stroke-miterlimit:4;stroke-dasharray:none;stroke-opacity:1;display:inline"
     d="M 236.93158,146.89655 L 241.18158,145.89655 L 243.93158,146.39655 L 245.93158,145.64655 L 248.18158,147.89655 L 248.18158,149.64655 L 250.68158,150.64655 L 252.93158,148.89655 L 253.68158,146.39655 L 255.18158,144.39655 L 255.43158,119.14655 C 255.43158,119.14655 255.11976,120.3056 317.55658,120.02155 C 381.24492,119.73181 381.18158,118.89655 381.18158,118.89655 L 385.93158,296.64656 L 331.68158,297.39656 L 232.18158,260.14656 L 232.43158,256.64656 L 235.68158,252.64656 L 240.18158,252.64656 L 240.68158,250.39656 L 241.93158,249.64656 L 241.93158,246.64656 L 240.68158,243.64656 L 237.43158,242.89656 L 234.93158,240.64656 L 236.68158,238.64656 L 236.18158,234.89656 L 234.68158,234.89656 L 236.18158,233.39656 L 235.68158,231.39655 L 237.68158,231.64655 L 239.68158,228.39655 L 241.18158,226.89655 L 240.68158,225.39655 L 240.68158,222.64655 L 242.18158,222.14655 L 240.68158,217.14655 L 241.93158,216.89655 L 240.43158,214.64655 L 243.68158,212.39655 L 243.43158,210.14655 L 246.93158,208.64655 L 248.43158,207.39655 L 251.43158,205.14655 L 250.93158,202.39655 L 248.68158,200.89655 L 245.18158,198.64655 L 245.43158,195.14655 L 244.18158,194.14655 L 243.68158,190.89655 L 240.93158,188.89655 L 239.18158,185.14655 L 239.18158,180.39655 L 239.93158,179.39655 L 238.93158,178.14655 L 240.93158,177.64655 L 240.43158,174.14655 L 240.18158,170.64655 L 238.43158,166.14655 L 238.68158,164.39655 L 238.43158,163.14655 L 238.68158,161.39655 L 238.43158,159.39655 L 237.93158,155.14655 L 239.43158,154.14655 L 237.68158,151.89655 L 237.68158,148.89655 L 236.93158,146.89655 z "
     id="path92917"
     sodipodi:nodetypes="cccccccccccscccccccccccccccccccccccccccccccccccccccccccccccccccccccc" />
  <path
     style="fill:none;fill-rule:evenodd;stroke:#000000;stroke-width:1px;stroke-linecap:butt;stroke-linejoin:miter;stroke-opacity:1;display:inline"
     d="M 294.18158,119.39655 L 292.93158,122.89655 L 290.93158,127.14655 L 290.93158,130.14655 L 291.18158,133.14655 L 290.18158,134.89655 L 291.18158,137.39655 L 289.93158,140.14655 L 287.93158,140.64655 L 284.93158,142.39655 L 281.18158,143.89655 L 277.18158,145.89655 L 276.43158,147.89655 L 273.18158,147.64655 L 272.43158,149.64655 L 273.18158,152.39655 L 273.68158,155.39655 L 272.43158,157.89655 L 271.18158,275.14656 L 271.18158,274.39656"
     id="path93804" />
  <path
     style="fill:none;fill-rule:evenodd;stroke:#000000;stroke-width:1px;stroke-linecap:butt;stroke-linejoin:miter;stroke-opacity:1;display:inline"
     d="M 239.93158,243.64656 L 246.93158,243.64656 L 247.18158,230.14655 L 255.43158,230.14655 L 255.43158,232.89656 L 271.43158,233.14656"
     id="path93806" />
  <path
     style="fill:none;fill-rule:evenodd;stroke:#000000;stroke-width:1px;stroke-linecap:butt;stroke-linejoin:miter;stroke-opacity:1;display:inline"
     d="M 271.68158,204.39655 L 266.93158,203.89655 L 265.68158,205.89655 L 263.43158,207.14655 C 263.43158,207.14655 262.93158,206.89655 261.93158,206.39655 C 260.93158,205.89655 261.68158,205.39655 260.43158,205.89655 C 259.18158,206.39655 259.43158,207.64655 258.43158,206.64655 C 257.43158,205.64655 256.68158,205.39655 256.68158,205.39655 L 254.18158,205.14655 C 254.18158,205.14655 254.18158,204.14655 252.68158,204.14655 C 251.18158,204.14655 251.18158,203.89655 251.18158,203.89655"
     id="path93808" />
  <path
     style="fill:none;fill-rule:evenodd;stroke:#000000;stroke-width:1px;stroke-linecap:butt;stroke-linejoin:miter;stroke-opacity:1;display:inline"
     d="M 272.18158,165.64655 L 276.68158,166.14655 L 278.18158,167.39655 L 278.68158,168.14655 L 281.68158,169.64655 L 282.68158,171.39655 L 287.68158,173.14655 L 289.93158,172.89655 L 291.68158,173.39655 L 291.93158,174.64655 L 294.68158,174.64655 L 295.43158,174.39655 L 295.68158,177.64655 L 298.43158,177.89655 L 298.18158,183.14655 L 312.93158,183.39655 L 312.93158,188.64655 L 318.68158,188.89655 L 318.43158,199.89655 L 315.93158,201.64655 L 315.68158,204.14655 L 315.18158,205.64655 L 314.18158,207.14655 L 314.68158,208.14655 L 314.18158,209.14655 L 320.43158,209.39655 L 320.68158,210.64655"
     id="path93810" />
  <path
     style="fill:none;fill-opacity:1;fill-rule:evenodd;stroke:#000000;stroke-width:1px;stroke-linecap:butt;stroke-linejoin:miter;stroke-opacity:1;display:inline"
     d="M 357.43158,119.64655 L 358.18158,161.14655 L 362.68158,161.39655 L 362.93158,187.39655 L 362.43158,187.64655 L 362.68158,194.39655 L 362.68158,197.39655 L 363.43158,209.89655 L 362.43158,210.14655 L 363.43158,220.39655 L 362.43158,220.39655 L 362.18158,226.89655 L 359.18158,226.39655 L 359.18158,213.64655 L 339.93158,213.64655 L 338.68158,119.89655 L 338.43158,119.89655 L 338.18158,120.14655"
     id="path93812" />
  <path
     style="fill:none;fill-rule:evenodd;stroke:#000000;stroke-width:1px;stroke-linecap:butt;stroke-linejoin:miter;stroke-opacity:1;display:inline"
     d="M 318.68158,199.39655 L 319.93158,198.14655 L 320.68158,199.64655 L 319.18158,200.89655 L 321.68158,200.14655 L 322.43158,202.14655 L 322.43158,200.39655 L 326.18158,200.14655 L 326.93158,199.64655 L 328.68158,201.39655 L 331.18158,202.14655 L 331.68158,202.89655 L 332.68158,202.14655 L 335.18158,204.39655 L 337.18158,205.14655 L 337.18158,204.39655 L 338.93158,204.14655 L 339.68158,205.14655"
     id="path93814" />
  <path
     style="fill:none;fill-rule:evenodd;stroke:#000000;stroke-width:1px;stroke-linecap:butt;stroke-linejoin:miter;stroke-opacity:1;display:inline"
     d="M 320.43158,210.64655 L 320.93158,212.14655 L 319.93158,213.89655 L 321.43158,213.89655 L 321.43158,215.89655 L 322.68158,217.39655 L 323.18158,219.89655 L 322.93158,221.39655 L 325.18158,223.14655 L 324.43158,223.64655 L 327.18158,226.14655 L 328.93158,224.14655 L 333.18158,232.14656 L 334.68158,237.14656 L 339.18158,245.39656 L 340.93158,244.14656 L 340.68158,242.89656 L 342.18158,241.39656 L 343.93158,240.39656 L 345.93158,240.39656 L 346.43158,238.89656 L 348.43158,238.89656 L 347.93158,236.39656 L 347.93158,233.14656 L 350.18158,232.14656 L 351.93158,231.14655 L 354.93158,230.64655 L 355.68158,229.89655 L 359.18158,230.14655 L 359.18158,226.64655"
     id="path93816" />
  <path
     style="fill:none;fill-rule:evenodd;stroke:#000000;stroke-width:1px;stroke-linecap:butt;stroke-linejoin:miter;stroke-opacity:1;display:inline"
     d="M 271.18158,213.14655 L 287.18158,213.64655 L 299.18158,217.64655 L 300.43158,216.39655 L 300.43158,215.14655 L 301.43158,214.39655 L 302.93158,212.64655 L 313.43158,213.64655 L 320.68158,213.64655"
     id="path93818"
     sodipodi:nodetypes="ccccccccc" />
  <path
     style="fill:none;fill-rule:evenodd;stroke:#000000;stroke-width:1px;stroke-linecap:butt;stroke-linejoin:miter;stroke-opacity:1;display:inline"
     d="M 271.18158,260.89656 L 318.18158,260.64656 L 329.43158,260.64656 L 329.93158,260.39656 L 347.93158,260.39656 L 347.68158,238.89656"
     id="path93820" />
  <path
     style="fill:none;fill-rule:evenodd;stroke:#000000;stroke-width:1px;stroke-linecap:butt;stroke-linejoin:miter;stroke-opacity:1;display:inline"
     d="M 323.68158,294.64656 L 323.68158,291.64656 L 329.68158,291.39656 L 329.18158,285.14656 L 348.18158,284.89656 L 348.18158,260.39656"
     id="path93822" />
  <path
     style="fill:none;fill-rule:evenodd;stroke:#000000;stroke-width:1px;stroke-linecap:butt;stroke-linejoin:miter;stroke-opacity:1;display:inline"
     d="M 348.18158,284.89656 L 348.43158,296.89656"
     id="path93824" />
  <path
     style="fill:none;fill-rule:evenodd;stroke:#000000;stroke-width:1px;stroke-linecap:butt;stroke-linejoin:miter;stroke-opacity:1;display:inline"
     d="M 347.93158,263.14656 L 385.43158,262.64656"
     id="path93826" />
  <path
     style="fill:none;fill-rule:evenodd;stroke:#000000;stroke-width:1px;stroke-linecap:butt;stroke-linejoin:miter;stroke-opacity:1;display:inline"
     d="M 361.93158,226.39655 L 365.43158,229.89655 L 366.68158,228.14655 L 368.43158,227.39655 L 370.43158,225.14655 L 372.18158,224.64655 L 373.43158,222.64655 L 376.18158,221.39655 L 376.43158,219.89655 L 383.93158,219.89655"
     id="path93828" />
  <path
     style="fill:none;fill-rule:evenodd;stroke:#000000;stroke-width:1px;stroke-linecap:butt;stroke-linejoin:miter;stroke-opacity:1;display:inline"
     d="M 372.68158,224.39655 L 373.18158,242.14656 L 377.43158,249.39656 L 378.93158,249.89656 L 380.68158,253.89656 L 380.68158,259.14656 L 382.43158,260.89656 L 383.68158,262.39656"
     id="path93830" />
  <path
     style="fill:none;fill-rule:evenodd;stroke:#000000;stroke-width:1px;stroke-linecap:butt;stroke-linejoin:miter;stroke-opacity:1;display:inline"
     d="M 301.68158,261.14656 L 301.68158,236.14656 L 303.93158,237.89656 L 304.93158,239.14656 L 317.93158,238.89656 L 317.93158,230.89655 L 332.18158,230.39655"
     id="path93832" />
  <path
     id="path4451"
     style="fill:#e4744f;fill-rule:evenodd;stroke:#000000;stroke-width:1px;stroke-linecap:butt;stroke-linejoin:miter;stroke-opacity:1;display:inline;fill-opacity:1"
     d="M 383.90992,219.87687 L 376.43158,219.89655 L 376.18158,221.39655 L 373.43158,222.64655 L 372.18158,224.64655 L 370.43158,225.14655 L 368.43158,227.39655 L 366.68158,228.14655 L 365.43158,229.89655 L 362.1796,226.89259 L 362.43158,220.39655 L 363.43158,220.39655 L 362.43158,210.14655 L 363.43158,209.89655 L 362.68158,197.39655 L 362.68158,194.39655 L 362.43158,187.64655 L 362.93158,187.39655 L 362.68158,161.39655 L 358.18158,161.14655 L 357.42391,119.6579 C 369.86294,119.66925 381.18158,119.01398 381.18158,119.01398 L 383.90992,219.87687 z "
     sodipodi:nodetypes="ccccccccccccccccccccccc" />
</svg>
