<?xml version="1.0" encoding="UTF-8" standalone="no"?>
<svg
   xmlns:dc="http://purl.org/dc/elements/1.1/"
   xmlns:cc="http://creativecommons.org/ns#"
   xmlns:rdf="http://www.w3.org/1999/02/22-rdf-syntax-ns#"
   xmlns:svg="http://www.w3.org/2000/svg"
   xmlns="http://www.w3.org/2000/svg"
   viewBox="0 0 610.40002 610.40002"
   height="610.40002"
   width="610.40002"
   xml:space="preserve"
   id="svg2"
   version="1.1"><metadata
     id="metadata8"><rdf:RDF><cc:Work
         rdf:about=""><dc:format>image/svg+xml</dc:format><dc:type
           rdf:resource="http://purl.org/dc/dcmitype/StillImage" /></cc:Work></rdf:RDF></metadata><defs
     id="defs6"><clipPath
       id="clipPath18"
       clipPathUnits="userSpaceOnUse"><path
         id="path16"
         d="M 0,457.8 H 457.8 V 0 H 0 Z" /></clipPath></defs><g
     transform="matrix(1.3333333,0,0,-1.3333333,0,610.4)"
     id="g10"><g
       id="g12"><g
         clip-path="url(#clipPath18)"
         id="g14"><g
           transform="translate(228.9,456.8)"
           id="g20"><path
             id="path22"
             style="fill:#597c75;fill-opacity:1;fill-rule:nonzero;stroke:none"
             d="m 0,0 c 125.866,0 227.9,-102.034 227.9,-227.9 0,-125.866 -102.034,-227.9 -227.9,-227.9 -125.866,0 -227.9,102.034 -227.9,227.9 C -227.9,-102.034 -125.866,0 0,0" /></g><g
           transform="translate(228.9,456.8)"
           id="g24"><path
             id="path26"
             style="fill:none;stroke:#1d1d1b;stroke-width:2;stroke-linecap:butt;stroke-linejoin:miter;stroke-miterlimit:10;stroke-dasharray:none;stroke-opacity:1"
             d="m 0,0 c 125.866,0 227.9,-102.034 227.9,-227.9 0,-125.866 -102.034,-227.9 -227.9,-227.9 -125.866,0 -227.9,102.034 -227.9,227.9 C -227.9,-102.034 -125.866,0 0,0 Z" /></g><g
           transform="translate(88.3025,370.1371)"
           id="g28"><path
             id="path30"
             style="fill:#000000;fill-opacity:1;fill-rule:nonzero;stroke:none"
             d="M 0,0 -0.62,-108.656 172.66,-282.06 c 0.727,-0.731 2.252,-0.478 3.348,0.618 l 104.687,104.688 c 1.1,1.099 1.472,2.62 0.745,3.35 L 108.036,0 H -0.002 Z" /></g><g
           transform="translate(88.3025,370.1371)"
           id="g32"><path
             id="path34"
             style="fill:none;stroke:#000000;stroke-width:4.52099991;stroke-linecap:square;stroke-linejoin:miter;stroke-miterlimit:4;stroke-dasharray:none;stroke-opacity:1"
             d="M 0,0 -0.62,-108.656 172.66,-282.06 c 0.727,-0.731 2.252,-0.478 3.348,0.618 l 104.687,104.688 c 1.1,1.099 1.472,2.62 0.745,3.35 L 108.036,0 H -0.002 Z" /></g><g
           transform="translate(213.9917,295.9392)"
           id="g36"><path
             id="path38"
             style="fill:#597c75;fill-opacity:1;fill-rule:nonzero;stroke:none"
             d="m 0,0 103.569,-103.66 c 0.434,-0.434 0.341,-1.23 -0.206,-1.777 l -52.434,-52.402 c -0.548,-0.547 -1.344,-0.639 -1.778,-0.205 l -103.568,103.66 c -0.434,0.434 -0.342,1.23 0.206,1.777 L -1.777,-0.205 C -1.23,0.343 -0.434,0.434 0,0" /></g><g
           transform="translate(213.9917,295.9392)"
           id="g40"><path
             id="path42"
             style="fill:none;stroke:#000000;stroke-width:3.33999991;stroke-linecap:butt;stroke-linejoin:round;stroke-miterlimit:4;stroke-dasharray:none;stroke-opacity:1"
             d="m 0,0 103.569,-103.66 c 0.434,-0.434 0.341,-1.23 -0.206,-1.777 l -52.434,-52.402 c -0.548,-0.547 -1.344,-0.639 -1.778,-0.205 l -103.568,103.66 c -0.434,0.434 -0.342,1.23 0.206,1.777 L -1.777,-0.205 C -1.23,0.343 -0.434,0.434 0,0 Z" /></g><g
           transform="translate(181.3114,248.0509)"
           id="g44"><path
             id="path46"
             style="fill:none;stroke:#000000;stroke-width:4;stroke-linecap:butt;stroke-linejoin:miter;stroke-miterlimit:4;stroke-dasharray:none;stroke-opacity:1"
             d="m 0,0 c 8.998,-11.214 36.636,-6.972 51.359,-2.764 2.019,0.579 4.049,1.106 6.076,1.658 4.098,1.117 -8.17,-2.375 -12.149,-3.867 -5.914,-2.216 -37.78,-11.784 -13.81,-9.388 0.373,0.038 1.718,-5.767 6.628,-7.731 8.482,-3.392 19.868,-6.641 11.597,-14.912 -5.679,-5.68 21.277,-11.643 23.749,-12.7 2.094,-0.9 0.394,-4.735 1.658,-6.628 6.954,-10.435 4.387,-13.539 12.149,-11.597 9.686,2.42 12.454,-6.852 -20.986,-7.734 -0.491,-0.011 12.479,4.394 19.883,8.837 3.607,2.167 -6.81,-17.674 7.179,-17.674" /></g><g
           transform="translate(147.9022,328.8186)"
           id="g48"><path
             id="path50"
             style="fill:#597c75;fill-opacity:1;fill-rule:nonzero;stroke:none"
             d="m 0,0 c 0,-9.178 -7.44,-16.617 -16.617,-16.617 -9.178,0 -16.618,7.439 -16.618,16.617 0,9.178 7.44,16.617 16.618,16.617 C -7.44,16.617 0,9.178 0,0" /></g><g
           transform="translate(147.9022,328.8186)"
           id="g52"><path
             id="path54"
             style="fill:none;stroke:#000000;stroke-width:4.52099991;stroke-linecap:square;stroke-linejoin:miter;stroke-miterlimit:4;stroke-dasharray:none;stroke-opacity:1"
             d="m 0,0 c 0,-9.178 -7.44,-16.617 -16.617,-16.617 -9.178,0 -16.618,7.439 -16.618,16.617 0,9.178 7.44,16.617 16.618,16.617 C -7.44,16.617 0,9.178 0,0 Z" /></g></g></g></g></svg>