<svg version="1.1" id="Layer_1" xmlns="http://www.w3.org/2000/svg" xmlns:xlink="http://www.w3.org/1999/xlink" x="0px" y="0px"
	 width="220.09px" height="220.08px" viewBox="0 0 220.09 220.08" enable-background="new 0 0 220.09 220.08" xml:space="preserve" fill="#a4d13c">
<g>
	<g>
		<path d="M104.411,1.44c17.071-1.335,34.525,2.59,46.8,7.68c13.177,5.464,23.727,12.856,32.879,21.36
			c18.584,17.265,31.875,40.898,34.32,74.16c0.604,8.2-0.318,17.093-1.92,24.72c-1.619,7.715-3.326,14.953-6,21.119
			c-11.242,25.924-27.599,43.877-51.84,56.641c-12.093,6.367-27.27,10.316-42.72,11.52c-17.547,1.366-33.663-2.726-46.56-7.92
			c-26.262-10.576-43.878-28.087-56.4-52.08c-6.4-12.263-9.786-26.13-11.28-42.959c-1.473-16.59,2.4-33.63,7.68-46.08
			c11.02-25.985,27.368-44.001,51.84-56.64C73.256,6.739,87.589,2.755,104.411,1.44z M172.09,44.88
			c1.271-0.169,3.015-2.915,3.841-3.84c1.345-1.507,3.218-3.027,3.12-4.56c-0.088-1.357-3.715-4.074-5.521-5.52
			c-2.477-1.981-4.524-3.478-6.479-4.8c-12.823-8.671-29.316-16.635-49.44-17.52c-30.43-1.338-49.089,6.787-66.24,18.96
			c-2.721,1.931-8.593,5.292-8.64,7.68c-0.037,1.901,5.81,8.335,6.96,8.4c2.093,0.119,3.942-3.625,6-3.36
			c1.988,0.256,2.631,3.626,3.84,5.28c-0.844,2.77-5.284,2.543-5.52,5.28c-0.11,1.283,2.058,3.774,2.88,5.28
			c2.937,5.376,5.271,12.492,7.68,16.8c2.867,0.566,4.905-1.611,7.92-1.68c0.615,2.345,1.701,4.219,1.92,6.96
			c-2.707,0.894-6.093,1.106-7.68,3.12c1.627,7.413,2.693,15.387,3.36,23.76c1.683,1.597,6.627-0.067,8.64,1.2
			c-0.145,2.256,0.299,5.099-0.24,6.96c-2.616,0.852-6.251-0.538-8.4,0.479c-1.066,8.294-2.291,16.431-3.84,24.24
			c1.794,1.885,5.694,1.666,7.44,3.601c-0.946,2.015-1.105,4.814-2.64,6.239c-1.985,0.099-5.015-2.812-7.2-1.92
			c-1.118,0.456-2.127,3.591-2.88,5.521c-1.831,4.691-3.104,6.938-5.52,11.279c-1.043,1.874-3.217,3.764-2.88,5.521
			c0.488,2.544,5.294,2.628,5.52,5.04c-1.159,1.961-2.351,3.89-4.08,5.278c-2.817-0.213-3.337-3.985-6.24-3.6
			c-1.338,0.18-3.062,2.943-3.84,3.84c-1.319,1.522-3.218,3.029-3.12,4.561c0.07,1.1,3.411,3.936,5.28,5.521
			c2.262,1.919,4.6,3.276,6.48,4.562c12.665,8.646,29.876,16.434,48,17.76c5.874,0.43,12.797,0.598,18.24,0
			c25.771-2.83,45.057-13.2,58.561-26.4c-0.586-1.469-1.809-3.219-3.121-4.8c-1.024-1.233-2.729-3.771-4.08-3.84
			c-2.539-0.131-3.389,3.338-6.239,3.601c-1.39-1.73-2.774-3.467-3.841-5.521c1.586-1.935,4.183-2.858,5.761-4.8
			c-1.87-4.928-5.917-11.102-8.16-17.041c-0.787-2.084-1.206-4.948-2.88-5.521c-2.316-0.791-4.301,1.688-7.2,1.681
			c-1.042-1.918-1.72-4.201-2.159-6.721c2.381-1.218,5.809-1.391,7.68-3.119c-0.613-4.013-1.738-8.253-2.4-12.721
			c-0.566-3.83,0.084-8.089-1.439-11.52c-1.699-1.263-6.237,0.317-7.92-0.961c-0.57-2.045,0-4.933,0.239-6.959
			c2.705-0.175,6.194,0.434,8.16-0.48c1.085-8.195,2.287-16.273,3.84-24c-1.508-2.172-5.389-1.971-7.44-3.6
			c0.873-2.168,1.207-4.874,2.641-6.48c2.441,0.598,4.348,1.732,6.96,2.16c2.438-2.578,3.245-6.65,5.521-11.28
			c0.795-1.62,1.972-3.236,3.119-5.28c0.893-1.587,3.035-4.545,2.881-5.76c-0.334-2.604-4.521-2.688-5.76-5.04
			c1.418-1.94,2.411-4.308,4.559-5.52C168.773,42.049,169.411,45.237,172.09,44.88z M42.491,48.48c0.206-1.775-4.129-6.414-5.76-7.2
			c-2.571,0.78-7.059,6.816-9.36,10.08C16.233,67.161,6.719,89.893,8.891,118.08c1.53,19.862,8.627,36.327,18,49.68
			c1.318,1.878,5.594,9.455,8.16,9.36c1.618-0.061,6.208-5.512,6-7.2c-0.35-2.849-5.283-3.14-6.48-5.76
			c0.964-2.316,2.409-4.15,4.32-5.521c2.495,1.346,4.212,3.469,6.96,4.561c4.673-5.247,7.799-12.042,10.08-19.68
			c-1.577-2.184-5.673-1.848-7.68-3.601c0.781-2.179,1.233-4.687,2.4-6.479c2.87-0.077,5.4,3.012,7.68,1.92
			c1.923-0.922,2.435-6.881,2.88-10.08c0.6-4.303,1.576-8.583,0.96-11.521c-2.063-0.977-5.744-0.336-8.16-0.96
			c-0.368-1.923-0.524-5.618,0.24-7.2c2.493-0.147,5.582,0.302,7.68-0.24c0.904-4.226,0.211-9.521-0.48-13.92
			c-0.457-2.91-1.048-6.357-2.88-7.92c-2.349-0.267-4.681,1.558-7.44,1.68c-1.012-1.868-1.432-4.328-2.16-6.48
			c2.345-1.496,6.319-1.361,7.92-3.6c-0.649-3.184-2.23-6.51-4.08-10.56c-1.182-2.589-3.468-8.921-5.76-9.12
			c-2.947-0.256-4.116,4.006-7.2,4.32c-1.601-1.519-2.889-3.351-3.84-5.52C37.25,51.571,42.157,51.366,42.491,48.48z M183.372,178.8
			c1.748-0.039,5.899-5.959,7.68-8.398c8.814-12.086,15.263-24.895,18.24-41.28c5.648-31.095-3.112-58.644-16.32-77.28
			c-1.553-2.192-5.61-8.969-8.4-9.12c-1.344-0.073-5.851,6.349-5.76,7.2c0.329,3.075,5.23,2.865,6.48,6
			c-1.182,2.02-2.34,4.061-4.32,5.28c-2.754-0.598-4.35-4.821-7.2-4.32c-1.212,0.213-2.229,2.791-3.12,4.32
			c-2.689,4.621-6.061,11.233-6.72,15.36c1.817,1.862,5.546,1.814,7.68,3.36c-0.711,2.249-1.165,4.755-2.399,6.48
			c-2.691-0.429-4.428-1.812-7.44-1.92c-3.292,5.115-3.94,14.128-4.08,21.6c1.649,1.391,5.854,0.225,8.16,0.96
			c0.442,2.058-0.009,5.043-0.24,7.2c-2.579,0.221-6.101-0.501-7.92,0.48c-0.431,7.797,0.539,16.52,3.36,21.84
			c3.119-0.082,4.83-1.569,7.68-1.92c0.893,2.067,1.52,4.4,2.16,6.719c-2.467,1.293-6.325,1.195-7.92,3.361
			c0.898,3.125,2.08,6.701,4.08,10.799c1.224,2.508,3.541,8.842,6,8.881c2.846,0.043,3.814-4.004,6.96-4.32
			c1.583,1.537,2.876,3.363,3.84,5.52c-1.745,2.416-5.136,3.186-6.72,5.762C178.338,173.065,180.895,178.854,183.372,178.8z"/>
	</g>
</g>
</svg>
