<?xml version="1.0" encoding="UTF-8"?>
<svg width="296pt" version="1.1" xmlns="http://www.w3.org/2000/svg" height="95pt" viewBox="0 0 296 95" xmlns:xlink="http://www.w3.org/1999/xlink">
 <defs>
  <clipPath id="Clip0">
   <path d="M0 0 L296 0 L296 95 L0 95 L0 0 Z" transform="translate(0, 0)"/>
  </clipPath>
 </defs>
 <g id="Background">
  <g id="Group1" clip-path="url(#Clip0)">
   <path style="fill:#000000; fill-rule:evenodd;stroke:none;" d="M0 7.2422 L3.2734 7.2422 C3.9609 7.2422 4.4687 7.0547 4.8554 6.6367 C5.2148 6.2578 5.414 5.7422 5.414 5.1758 C5.414 4.3008 5.0156 3.7735 4.0898 3.418 C4.7578 3.1094 5.0937 2.5821 5.0937 1.8399 C5.0937 1.3008 4.8945 0.8438 4.5195 0.5078 C4.1289 0.1602 3.6406 0 2.9453 0 L0 0 L0 7.2422 Z M0.9257 3.1211 L0.9257 0.8164 L2.7187 0.8164 C3.2343 0.8164 3.5234 0.8828 3.7734 1.0742 C4.0312 1.2735 4.1679 1.5703 4.1679 1.9688 C4.1679 2.3633 4.0312 2.6641 3.7734 2.8633 C3.5234 3.0508 3.2343 3.1211 2.7187 3.1211 L0.9257 3.1211 Z M0.9257 6.4258 L0.9257 3.9336 L3.1835 3.9336 C4 3.9336 4.4882 4.4024 4.4882 5.1875 C4.4882 5.961 4 6.4258 3.1835 6.4258 L0.9257 6.4258 Z" transform="translate(52.9854, 44.3574)"/>
   <path style="fill:#000000; fill-rule:evenodd;stroke:none;" d="M0 7.2422 L3.2734 7.2422 C3.9609 7.2422 4.4687 7.0547 4.8554 6.6367 C5.2148 6.2578 5.414 5.7422 5.414 5.1758 C5.414 4.3008 5.0156 3.7735 4.0898 3.418 C4.7578 3.1094 5.0937 2.5821 5.0937 1.8399 C5.0937 1.3008 4.8945 0.8438 4.5195 0.5078 C4.1289 0.1602 3.6406 0 2.9453 0 L0 0 L0 7.2422 Z M0.9257 3.1211 L0.9257 0.8164 L2.7187 0.8164 C3.2343 0.8164 3.5234 0.8828 3.7734 1.0742 C4.0312 1.2735 4.1679 1.5703 4.1679 1.9688 C4.1679 2.3633 4.0312 2.6641 3.7734 2.8633 C3.5234 3.0508 3.2343 3.1211 2.7187 3.1211 L0.9257 3.1211 Z M0.9257 6.4258 L0.9257 3.9336 L3.1835 3.9336 C4 3.9336 4.4882 4.4024 4.4882 5.1875 C4.4882 5.961 4 6.4258 3.1835 6.4258 L0.9257 6.4258 Z" transform="translate(52.9854, 14.3574)"/>
   <path style="fill:#000000; fill-rule:nonzero;stroke:none;" d="M1.5498 30 L0 30.9004 L0 0 L1.5498 0.9004 L1.5498 30 Z" transform="translate(2.25, 17.5498)"/>
   <path style="fill:#000000; fill-rule:nonzero;stroke:none;" d="M26.75 14.5498 L26.75 16.3506 L0 0.9004 L1.5498 0 L26.75 14.5498 Z" transform="translate(2.25, 47.5498)"/>
   <path style="fill:#000000; fill-rule:nonzero;stroke:none;" d="M22.8506 12.75 L22.0498 14.1006 L0 1.3506 L0.75 0 L22.8506 12.75 Z" transform="translate(6.5498, 45.0498)"/>
   <path style="fill:#000000; fill-rule:nonzero;stroke:none;" d="M20.25 0 L21.0498 1.3496 L0 13.5 L0 11.6992 L20.25 0 Z" transform="translate(29, 50.4004)"/>
   <path style="fill:#000000; fill-rule:nonzero;stroke:none;" d="M0 0 L1.5498 0 L1.5498 18.9004 L0 18.9004 L0 0 Z" transform="translate(54.2002, 23.5498)"/>
   <path style="fill:#000000; fill-rule:nonzero;stroke:none;" d="M0 1.80078 L0 0 L21.0498 12.1504 L20.25 13.5 L0 1.80078 Z" transform="translate(29, 2.09961)"/>
   <path style="fill:#000000; fill-rule:nonzero;stroke:none;" d="M1.5498 16.3506 L0 15.4502 L26.75 0 L26.75 1.80078 L1.5498 16.3506 Z" transform="translate(2.25, 2.09961)"/>
   <path style="fill:#000000; fill-rule:nonzero;stroke:none;" d="M0.75 14.1006 L0 12.75 L22.0498 0 L22.8506 1.35059 L0.75 14.1006 Z" transform="translate(6.5498, 6.84961)"/>
   <path style="fill:#000000; fill-rule:nonzero;stroke:none;" d="M20.2002 11.1992 L20.2002 13 L0 1.3496 L0.7998 0 L20.2002 11.1992 Z" transform="translate(60.75, 50.9004)"/>
   <path style="fill:#000000; fill-rule:nonzero;stroke:none;" d="M25.1998 0 L26.7498 0.9004 L0 16.3506 L0 14.5498 L25.1998 0 Z" transform="translate(80.9502, 47.5498)"/>
   <path style="fill:#000000; fill-rule:nonzero;stroke:none;" d="M22.1002 0 L22.9002 1.3506 L0.7998 14.1006 L0 12.75 L22.1002 0 Z" transform="translate(80.5498, 45.0498)"/>
   <path style="fill:#000000; fill-rule:nonzero;stroke:none;" d="M0 0.9004 L1.55 0 L1.55 30.9004 L0 30 L0 0.9004 Z" transform="translate(106.15, 17.5498)"/>
   <path style="fill:#000000; fill-rule:nonzero;stroke:none;" d="M0 1.80078 L0 0 L26.7498 15.4502 L25.1998 16.3506 L0 1.80078 Z" transform="translate(80.9502, 2.09961)"/>
   <path style="fill:#000000; fill-rule:nonzero;stroke:none;" d="M0 1.35059 L0.7998 0 L22.9002 12.75 L22.1002 14.1006 L0 1.35059 Z" transform="translate(80.5498, 6.84961)"/>
   <path style="fill:#000000; fill-rule:nonzero;stroke:none;" d="M0.75 13 L0 11.6504 L20.1504 0 L20.1504 1.80078 L0.75 13 Z" transform="translate(60.7998, 2.09961)"/>
   <path style="fill:#000000; fill-rule:evenodd;stroke:none;" d="M0 7.2422 L3.274 7.2422 C3.961 7.2422 4.469 7.0547 4.856 6.6367 C5.215 6.2578 5.414 5.7422 5.414 5.1758 C5.414 4.3008 5.016 3.7735 4.09 3.418 C4.758 3.1094 5.094 2.5821 5.094 1.8399 C5.094 1.3008 4.895 0.8438 4.52 0.5078 C4.129 0.1602 3.641 0 2.946 0 L0 0 L0 7.2422 Z M0.926 3.1211 L0.926 0.8164 L2.719 0.8164 C3.235 0.8164 3.524 0.8828 3.774 1.0742 C4.032 1.2735 4.168 1.5703 4.168 1.9688 C4.168 2.3633 4.032 2.6641 3.774 2.8633 C3.524 3.0508 3.235 3.1211 2.719 3.1211 L0.926 3.1211 Z M0.926 6.4258 L0.926 3.9336 L3.184 3.9336 C4 3.9336 4.489 4.4024 4.489 5.1875 C4.489 5.961 4 6.4258 3.184 6.4258 L0.926 6.4258 Z" transform="translate(238.985, 44.3574)"/>
   <path style="fill:#000000; fill-rule:evenodd;stroke:none;" d="M0 7.2422 L3.274 7.2422 C3.961 7.2422 4.469 7.0547 4.856 6.6367 C5.215 6.2578 5.414 5.7422 5.414 5.1758 C5.414 4.3008 5.016 3.7735 4.09 3.418 C4.758 3.1094 5.094 2.5821 5.094 1.8399 C5.094 1.3008 4.895 0.8438 4.52 0.5078 C4.129 0.1602 3.641 0 2.946 0 L0 0 L0 7.2422 Z M0.926 3.1211 L0.926 0.8164 L2.719 0.8164 C3.235 0.8164 3.524 0.8828 3.774 1.0742 C4.032 1.2735 4.168 1.5703 4.168 1.9688 C4.168 2.3633 4.032 2.6641 3.774 2.8633 C3.524 3.0508 3.235 3.1211 2.719 3.1211 L0.926 3.1211 Z M0.926 6.4258 L0.926 3.9336 L3.184 3.9336 C4 3.9336 4.489 4.4024 4.489 5.1875 C4.489 5.961 4 6.4258 3.184 6.4258 L0.926 6.4258 Z" transform="translate(238.985, 14.3574)"/>
   <path style="fill:#000000; fill-rule:nonzero;stroke:none;" d="M1.55 30 L0 30.9004 L0 0 L1.55 0.9004 L1.55 30 Z" transform="translate(188.25, 17.5498)"/>
   <path style="fill:#000000; fill-rule:nonzero;stroke:none;" d="M1.55 25.5 L0 25.5 L0 0 L1.55 0 L1.55 25.5 Z" transform="translate(192.15, 20.25)"/>
   <path style="fill:#000000; fill-rule:nonzero;stroke:none;" d="M26.75 14.5498 L26.75 16.3506 L0 0.9004 L1.55 0 L26.75 14.5498 Z" transform="translate(188.25, 47.5498)"/>
   <path style="fill:#000000; fill-rule:nonzero;stroke:none;" d="M20.25 0 L21.05 1.3496 L0 13.5 L0 11.6992 L20.25 0 Z" transform="translate(215, 50.4004)"/>
   <path style="fill:#000000; fill-rule:nonzero;stroke:none;" d="M18.7 0 L19.5 1.3506 L0.8 12.1006 L0 10.75 L18.7 0 Z" transform="translate(214.6, 47.0498)"/>
   <path style="fill:#000000; fill-rule:nonzero;stroke:none;" d="M0 1.80078 L0 0 L21.05 12.1504 L20.25 13.5 L0 1.80078 Z" transform="translate(215, 2.09961)"/>
   <path style="fill:#000000; fill-rule:nonzero;stroke:none;" d="M0 1.35059 L0.8 0 L19.5 10.8008 L18.7 12.1504 L0 1.35059 Z" transform="translate(214.6, 6.84961)"/>
   <path style="fill:#000000; fill-rule:nonzero;stroke:none;" d="M1.55 16.3506 L0 15.4502 L26.75 0 L26.75 1.80078 L1.55 16.3506 Z" transform="translate(188.25, 2.09961)"/>
   <path style="fill:#000000; fill-rule:nonzero;stroke:none;" d="M20.2 11.1992 L20.2 13 L0 1.3496 L0.8 0 L20.2 11.1992 Z" transform="translate(246.75, 50.9004)"/>
   <path style="fill:#000000; fill-rule:nonzero;stroke:none;" d="M25.2 0 L26.75 0.9004 L0 16.3506 L0 14.5498 L25.2 0 Z" transform="translate(266.95, 47.5498)"/>
   <path style="fill:#000000; fill-rule:nonzero;stroke:none;" d="M22.1 0 L22.9 1.3506 L0.8 14.1006 L0 12.75 L22.1 0 Z" transform="translate(266.55, 45.0498)"/>
   <path style="fill:#000000; fill-rule:nonzero;stroke:none;" d="M0 0.9004 L1.55 0 L1.55 30.9004 L0 30 L0 0.9004 Z" transform="translate(292.15, 17.5498)"/>
   <path style="fill:#000000; fill-rule:nonzero;stroke:none;" d="M0 1.80078 L0 0 L26.75 15.4502 L25.2 16.3506 L0 1.80078 Z" transform="translate(266.95, 2.09961)"/>
   <path style="fill:#000000; fill-rule:nonzero;stroke:none;" d="M0 1.35059 L0.8 0 L22.9 12.75 L22.1 14.1006 L0 1.35059 Z" transform="translate(266.55, 6.84961)"/>
   <path style="fill:#000000; fill-rule:nonzero;stroke:none;" d="M0.75 13 L0 11.6504 L20.15 0 L20.15 1.80078 L0.75 13 Z" transform="translate(246.8, 2.09961)"/>
   <path style="fill:none;stroke:#000000; stroke-width:1.25; stroke-linecap:butt; stroke-linejoin:miter; stroke-dasharray:none;" d="M20.75 0 L0 0 " transform="translate(138, 30.6504)"/>
   <path style="fill:none;stroke:#000000; stroke-width:1.25; stroke-linecap:butt; stroke-linejoin:miter; stroke-dasharray:none;" d="M0 0 L20.75 0 " transform="translate(149.25, 35.3496)"/>
   <path style="fill:#000000; fill-rule:nonzero;stroke:none;" d="M15.6 4.7998 L0 0 C0 0 1.95 2.25 1.95 4.7998 L15.6 4.7998 L15.6 4.7998 " transform="translate(156.75, 26.6504)"/>
   <path style="fill:#000000; fill-rule:nonzero;stroke:none;" d="M0 0 L13.65 0 C13.65 1 15.6 4.7998 15.6 4.7998 L0 0 L0 0 " transform="translate(135.65, 34.5498)"/>
   <path style="fill:#000000; fill-rule:evenodd;stroke:none;" d="M3.7539 4.8946 C5.3438 4.043 5.9063 3.3711 5.9063 2.2774 C5.9063 0.9454 4.7657 0 3.1446 0 C1.3946 0 0.0977 1.0743 0.0977 2.5352 C0.0977 3.5782 0.4024 4.043 2.086 5.5196 C0.336 6.8516 0 7.3165 0 8.4258 C0 9.9961 1.25 11.0743 3.0821 11.0743 C5.0079 11.0743 6.2422 10.0118 6.2422 8.3594 C6.2422 7.1094 5.6954 6.3555 3.7539 4.8946 Z M3.4649 6.5469 C4.6368 7.3829 5.0235 7.961 5.0235 8.8594 C5.0235 9.9024 4.3008 10.6211 3.2579 10.6211 C2.0391 10.6211 1.2188 9.6915 1.2188 8.3125 C1.2188 7.2696 1.5586 6.6094 2.5039 5.8399 L3.4649 6.5469 Z M3.2891 4.6055 C1.8633 3.6758 1.2852 2.9375 1.2852 2.0391 C1.2852 1.1055 1.9883 0.4493 3.0157 0.4493 C4.1094 0.4493 4.7969 1.1563 4.7969 2.2618 C4.7969 3.1758 4.3633 3.8985 3.4336 4.5079 C3.3555 4.5586 3.3555 4.5586 3.2891 4.6055 Z" transform="translate(53.8984, 78.1523)"/>
   <path style="fill:#000000; fill-rule:evenodd;stroke:none;" d="M0.3203 2.4375 C0.8671 1.6054 1.125 1.4297 1.8945 1.4297 L2.6328 1.4297 L2.2148 4.9922 C2.1523 5.4414 1.9414 5.7773 1.3945 6.289 C0.8984 6.7382 0.7539 6.9961 0.7539 7.3476 C0.7539 7.8476 1.1406 8.2304 1.6367 8.2304 C2.1171 8.2304 2.4882 7.8945 2.7109 7.2382 C2.8554 6.8047 3.082 5.2304 3.2421 3.5 L3.4336 1.4297 L5.1836 1.4297 C4.9921 2.7265 4.8476 4.3984 4.8476 5.3437 C4.8476 7.1406 5.4414 8.2304 6.4336 8.2304 C7.0429 8.2304 7.5898 7.832 7.9765 7.1093 C8.2304 6.6445 8.2968 6.3242 8.3437 5.4882 L7.9609 5.4882 C7.8789 6.2578 7.5742 6.6601 7.0429 6.6601 C6.7226 6.6601 6.3867 6.4336 6.2109 6.0976 C6.0664 5.8086 6.0195 5.5507 6.0195 5.0234 C6.0195 3.7695 6.0976 2.3281 6.2109 1.4297 L8.2304 1.4297 L8.2304 0 L2.6171 0 C1.75 0 1.4453 0.1132 0.9804 0.5625 C0.5312 1.0117 0.2734 1.4765 0 2.4375 L0.3203 2.4375 Z" transform="translate(61.1602, 80.9766)"/>
   <path style="fill:#000000; fill-rule:evenodd;stroke:none;" d="M0.114 10.8477 L4.543 10.8477 L4.543 10.6055 C3.274 10.5899 3.016 10.4297 3.016 9.6602 L3.016 0.0313 L2.887 0 L0 1.461 L0 1.6836 L0.434 1.5079 C0.723 1.3946 0.996 1.3321 1.157 1.3321 C1.492 1.3321 1.637 1.5547 1.637 2.086 L1.637 9.3555 C1.637 10.336 1.364 10.5586 0.114 10.6055 L0.114 10.8477 Z" transform="translate(218.781, 78.1523)"/>
   <path style="fill:#000000; fill-rule:evenodd;stroke:none;" d="M3.687 0 C2.855 0 2.211 0.2422 1.636 0.754 C0.656 1.6211 0 3.5 0 5.4571 C0 7.1407 0.496 8.9688 1.203 9.8868 C1.797 10.6563 2.644 11.0743 3.625 11.0743 C4.41 11.0743 5.054 10.8321 5.629 10.3165 C6.609 9.4532 7.25 7.5586 7.25 5.5508 C7.25 2.2618 5.793 0 3.687 0 Z M3.64 0.418 C4.988 0.418 5.711 2.2305 5.711 5.586 C5.711 8.9375 5.004 10.6563 3.625 10.6563 C2.246 10.6563 1.539 8.9375 1.539 5.6016 C1.539 2.1836 2.261 0.418 3.64 0.418 Z" transform="translate(225.387, 78.1523)"/>
   <path style="fill:#000000; fill-rule:evenodd;stroke:none;" d="M0.32 2.4375 C0.867 1.6054 1.125 1.4297 1.895 1.4297 L2.633 1.4297 L2.215 4.9922 C2.153 5.4414 1.942 5.7773 1.395 6.289 C0.899 6.7382 0.754 6.9961 0.754 7.3476 C0.754 7.8476 1.141 8.2304 1.637 8.2304 C2.117 8.2304 2.488 7.8945 2.711 7.2382 C2.856 6.8047 3.082 5.2304 3.242 3.5 L3.434 1.4297 L5.184 1.4297 C4.992 2.7265 4.848 4.3984 4.848 5.3437 C4.848 7.1406 5.442 8.2304 6.434 8.2304 C7.043 8.2304 7.59 7.832 7.977 7.1093 C8.231 6.6445 8.297 6.3242 8.344 5.4882 L7.961 5.4882 C7.879 6.2578 7.574 6.6601 7.043 6.6601 C6.723 6.6601 6.387 6.4336 6.211 6.0976 C6.067 5.8086 6.02 5.5507 6.02 5.0234 C6.02 3.7695 6.098 2.3281 6.211 1.4297 L8.231 1.4297 L8.231 0 L2.617 0 C1.75 0 1.445 0.1132 0.981 0.5625 C0.531 1.0117 0.274 1.4765 0 2.4375 L0.32 2.4375 Z" transform="translate(233.16, 80.9766)"/>
  </g>
 </g>
</svg>
