<svg id="Layer_1" xmlns="http://www.w3.org/2000/svg" viewBox="0 0 278 73.5"><style>.st0{fill:#004B8D;} .st1{fill:none;} .st2{fill:#FFFFFF;} .st3{fill:#FCB813;}</style><path class="st0" d="M139.5 18.4c0-2.5-.2-3.2-1.9-3.3l-1.2-.1c-.2-.2-.1-.8 0-.8 2-.2 4.6-.3 8.1-.3 2.4 0 4.6.2 6.3.9 1.6.7 2.9 2.1 2.9 4.2 0 2.4-1.6 3.7-3.8 4.6 0 .3.3.4.7.5 2 .3 5 2 5 5.6 0 3.9-3.2 6.6-10 6.6-1.1 0-2.9-.1-4.5-.1-1.7 0-2.9.1-4.3.1-.2-.1-.3-.6-.1-.8l.7-.1c2-.3 2.1-.7 2.1-4.2V18.4zm3.1 4.5c0 .9 0 1 2 .9 3.8-.1 5.9-1.2 5.9-4.3 0-3.3-2.7-4.6-5.6-4.6-.8 0-1.4.1-1.7.2-.4.1-.5.3-.5.9v6.9zm0 7.8c0 1.2.1 2.9.8 3.7.7.8 1.8.9 3 .9 3.3 0 5.9-1.4 5.9-4.7 0-2.7-1.5-5.8-7.5-5.8-2 0-2.2.2-2.2.9v5zM181.7 21.7c0-3.1-.1-3.6-2-3.7h-.7c-.2-.1-.1-.6.1-.7 1.6.1 2.7.1 4 .1 1.3 0 2.4 0 4-.1.2.1.3.6.1.7l-.8.1c-1.9.1-2 .6-2 3.7V32c0 3.1.1 3.5 2 3.7l.8.1c.2.1.1.6-.1.7-1.6-.1-2.7-.1-4-.1-1.3 0-2.4 0-4 .1-.2-.1-.3-.5-.1-.7l.8-.1c1.9-.2 2-.6 2-3.7V21.7zM199.5 32.1c0 3 .1 3.5 1.8 3.6l1 .1c.2.1.1.6-.1.7-1.7-.1-2.7-.1-3.9-.1-1.2 0-2.3 0-4.2.1-.2-.1-.2-.6 0-.7l1.1-.1c1.7-.1 1.9-.6 1.9-3.6V19.2c0-.9 0-.9-.9-.9h-1.7c-1.3 0-2.9.1-3.7.7-.7.6-1 1.3-1.4 2-.2.2-.7 0-.8-.2.5-1.3.9-3.1 1.1-4.3.1-.1.5-.1.6 0 .2.9 1.2.9 2.6.9h12.2c1.6 0 1.9-.1 2.3-.8.1-.1.5 0 .5.1-.3 1.2-.5 3.5-.5 4.4-.1.2-.6.2-.8.1-.1-.7-.3-1.8-.8-2.1-.7-.5-1.8-.7-3.5-.7h-2.1c-.9 0-.9 0-.9 1v12.7zM212.4 21.7c0-3.1-.1-3.6-2-3.7l-.8-.1c-.2-.1-.1-.6.1-.7 1.6.1 2.7.1 4 .1 1.3 0 2.4 0 4-.1.2.1.3.6.1.7l-.8.1c-1.9.1-2 .6-2 3.7V32c0 3.1.1 3.5 2 3.7l.8.1c.2.1.1.6-.1.7-1.6-.1-2.7-.1-4-.1-1.3 0-2.4 0-4 .1-.2-.1-.3-.5-.1-.7l.8-.1c1.9-.2 2-.6 2-3.7V21.7zM226.8 36.8c-2.9 0-4.7-.8-5.3-1.1-.4-.6-.9-2.7-.9-4 .2-.2.7-.3.8-.1.5 1.5 1.9 4.3 5.9 4.3 2.9 0 4.3-1.6 4.3-3.3 0-1.3-.3-2.7-2.8-4l-3.2-1.8c-1.7-1-3.7-2.6-3.7-5 0-2.7 2.5-5 7-5 1.1 0 2.3.2 3.2.4.4.1.9.2 1.2.2.3.7.6 2.3.6 3.5-.1.2-.7.3-.9.1-.4-1.4-1.4-3.3-4.6-3.3-3.3 0-4.1 1.9-4.1 3.2 0 1.7 1.6 2.9 2.9 3.6l2.7 1.4c2.1 1.1 4.3 2.8 4.3 5.5-.2 3.2-3 5.4-7.4 5.4zM243.9 27.1c-1.5 0-1.6.1-1.6.9v4.1c0 3 .2 3.4 1.9 3.6l.9.1c.2.1.1.6-.1.7-1.7-.1-2.7-.1-3.9-.1-1.3 0-2.4.1-3.6.1-.2-.1-.2-.5-.1-.7l.5-.1c1.7-.3 1.8-.6 1.8-3.6V21.7c0-3-.2-3.5-1.8-3.6l-.8-.1c-.2-.1-.1-.6.1-.7 1.5 0 2.6.1 3.9.1 1.2 0 2.3 0 3.6-.1.2.1.2.6.1.7l-.6.1c-1.8.2-1.9.6-1.9 3.6V25c0 .9.1.9 1.6.9h8.9c1.5 0 1.6 0 1.6-.9v-3.3c0-3-.1-3.5-1.9-3.6l-.6-.1c-.2-.1-.1-.6.1-.7 1.4.1 2.5.1 3.8.1 1.2 0 2.3 0 3.7-.1.2.1.3.6.1.7l-.7.1c-1.8.2-1.9.6-1.9 3.6v10.4c0 3 .1 3.4 1.9 3.6l.7.1c.2.1.1.6-.1.7-1.5-.1-2.6-.1-3.8-.1-1.3 0-2.4 0-3.8.1-.2-.1-.3-.5-.1-.7l.6-.1c1.9-.3 1.9-.6 1.9-3.6V28c0-.9-.1-.9-1.6-.9h-8.8zM121.7 42.8c2.6-2 5.8-3 9.5-3 1.9 0 4.6.4 6.2.8.4.1.7.2 1 .1 0 .8.2 3 .5 5.1-.2.2-.7.3-.9.1-.5-2.4-2.1-5.1-7.2-5.1-5.4 0-9.9 3.4-9.9 10.6 0 7.3 4.7 11.4 10.4 11.4 4.5 0 6.5-2.9 7.3-5 .2-.2.8-.1.9.1-.2 1.8-1.2 4.1-1.7 4.8l-1.2.3c-.8.3-3.3.8-5.5.8-3.2 0-6.2-.6-8.7-2.3-2.8-1.9-5-5.1-5-9.6-.1-3.7 1.6-7 4.3-9.1zM140.8 54.1c0-5.8 4.6-10.2 10.8-10.2 7 0 10.5 4.8 10.5 9.9 0 5.8-4.7 10.1-10.5 10.1-6.7 0-10.8-4.6-10.8-9.8zm18.3.6c0-4.8-2.2-9.9-8-9.9-3.2 0-7.3 2.1-7.3 8.4 0 4.3 2.2 9.8 8.2 9.8 3.7 0 7.1-2.6 7.1-8.3zM196.4 51.6c0-1.8-.1-5.1-.6-6-.2-.3-.8-.5-1.5-.6l-.8-.1c-.2-.2-.1-.6.1-.7 1.2.1 2.3.1 3.5.1 1.3 0 2.1 0 3.2-.1.2.1.2.5.1.7l-.7.1c-.8.1-1.3.3-1.5.7-.4 1-.4 4.3-.4 5.9v3.3c0 2.5-.4 5.2-2.1 6.9-1.3 1.4-3.6 2.1-5.8 2.1-2.1 0-4.2-.4-5.7-1.6-1.6-1.3-2.4-3.4-2.4-6.8v-6.8c0-3-.1-3.5-1.8-3.6l-.8-.1c-.2-.1-.1-.6.1-.7 1.5.1 2.6.1 3.8.1 1.3 0 2.3 0 3.8-.1.2.1.2.6.1.7l-.7.1c-1.8.1-1.8.6-1.8 3.6v6.2c0 4.7 1.5 7.7 6.2 7.7 4.4 0 6.1-3.3 6.1-7.7v-3.3zM232 48c0-2.2-.1-2.7-1.7-2.8l-1.1-.1c-.1-.1-.2-.7 0-.7 1.8-.1 4.1-.2 7.3-.2 2.1 0 4.2.1 5.7.8 1.5.6 2.6 1.8 2.6 3.6 0 2.1-1.4 3.2-3.5 4 0 .3.3.4.6.4 1.8.3 4.5 1.8 4.5 4.9 0 3.4-2.9 5.7-9 5.7-1 0-2.6-.1-4.1-.1-1.5 0-2.6.1-3.9.1-.2-.1-.3-.6-.1-.7l.6-.1c1.8-.3 1.9-.6 1.9-3.6V48zm2.7 3.9c0 .8 0 .9 1.8.8 3.5-.1 5.3-1 5.3-3.7 0-2.9-2.5-3.9-5-3.9-.7 0-1.3.1-1.6.2-.3.1-.5.2-.5.8v5.8zm0 6.8c0 1.1.1 2.5.7 3.2.6.7 1.7.8 2.7.8 3 0 5.3-1.2 5.3-4.1 0-2.3-1.4-5-6.7-5-1.8 0-2 .2-2 .8v4.3zM176.8 35.8l-.8-.1c-.2 0-.3 0-.4-.1-1.2-.2-1.6-1.3-2.2-2.2l-2.8-4.8c-.5-.8-1-1.9-2.1-2 2.8-.3 5.4-2 5.4-4.8 0-3.3-3.2-4.7-6.5-4.7-2 0-3.7.1-5.7.1-1.1 0-2.4-.1-3.5-.1-.6 0-.6.1-.6.5 0 .5.2.4.9.4 2.3.1 2.2.6 2.2 2.5v12.7c0 1.8.2 2.4-1.7 2.5h-.5l-.8.1c-.2.2-.1.6.1.7h1.2c1.1 0 2.1-.1 3.2-.1s2.1.1 3.1.1h1.2c.2-.1.3-.5.1-.7l-.8-.1h-.5c-1.9-.1-1.8-.7-1.8-2.5v-4.8c0-.3 0-1 .2-1.2.2-.2.5-.2.8-.2 2.6 0 2.6.2 3.8 2.4l3.4 6c.3.5.5 1.1 1.2 1.1h4.1c-.1-.1 0-.6-.2-.7zm-11.7-9.5c-.6 0-1.7.2-1.7-.6v-5.5c0-2.2.1-2.5 2.7-2.5 3 0 4.9 1.5 4.9 4.4 0 1.2-.4 2.4-1.6 3.2-1.3.9-2.7 1-4.3 1zM165.8 48.8c0-3-.1-3.5-2.1-3.6l-.8-.1c-.2-.1-.1-.6.1-.7 1.8.1 2.9.1 4.1.1 1.2 0 2.3 0 3.9-.1.2.1.3.6.1.7l-.8.1c-1.9.1-1.9.6-1.9 3.6v10.1c0 1.8.1 2.6.7 3.1.3.3 1 .7 3.5.7 2.7 0 3.4-.1 3.9-.4.6-.3 1.5-1.4 2.1-2.9.2-.1.8 0 .8.2 0 .3-.9 3.3-1.3 4-1.6-.1-4.6-.1-7.9-.1h-2.9c-1.3 0-2.4 0-4.1.1-.2-.1-.3-.5-.1-.7l1-.1c1.8-.2 1.9-.6 1.9-3.6V48.8zM250.9 48.8c0-3.1-.1-3.6-1.9-3.7l-.8-.1c-.2-.1-.1-.6.1-.7 1.6.1 2.6.1 3.9.1 1.2 0 2.3 0 3.9-.1.2.1.3.6.1.7l-.8.1c-1.8.1-1.9.6-1.9 3.7v10.3c0 3.1.1 3.5 1.9 3.7l.8.1c.2.1.1.6-.1.7-1.6-.1-2.6-.1-3.9-.1-1.3 0-2.4 0-3.9.1-.2-.1-.2-.5-.1-.7l.8-.1c1.8-.2 1.9-.6 1.9-3.7V48.8zM226 62.8h-.5c-.3 0-.6-.1-.9-.3-.4-.4-.4-1.7-.4-2.1V47.6c0-.6-.1-1.7.3-2.2.2-.2.6-.3 1-.3h.4l.8-.1c.2-.1.1-.6-.1-.7H222c-.4 0-.7 0-.9.4l-6.9 14.5-6.1-14c-.2-.5-.2-.9-.9-.9h-4.7c-.2.1-.3.6-.1.7l.8.1h.5c1.3.1 1.4.4 1.3 1.8l-1 13.6c-.1 1.4-.2 2.1-1.6 2.2 0 0-.3 0-.5.1l-.8.1c-.2.2-.1.6.1.7h1.2c.7 0 1.5-.1 2.2-.1.8 0 1.6.1 2.4.1h1.2c.2-.1.3-.5.1-.7l-.8-.1h-.4c-2.1-.1-2-1.6-1.9-3.4l1-12.6h.2l6.6 15.5c.1.2.2.6.5.6s.4-.3.5-.6l7.5-15.9h.2v13.9c0 .6.1 1.7-.5 2.1-.3.2-1.3.4-1.3.4-.1 0-.3 0-.4.1l-.8.1c-.2.2-.1.6.1.7h1.2c1.1 0 2.2-.1 3.3-.1.8 0 2.3.1 2.3.1.4 0 .8.1 1.2.1.2-.1.3-.5.1-.7l-.9-.3zM278.1 62.9l-.1-.1c-.2 0-.3 0-.4-.1-1.3-.3-1.7-1.8-2.2-2.9L269 44.6c-.1-.2-.2-.6-.4-.6-.3 0-.4.4-.5.7L262 59.9c-.2.6-.8 2-1.2 2.4-.3.3-.7.4-1.2.4 0 0-.3 0-.5.1l-.8.1c-.2.2-.1.6.1.7h1.2c.8 0 1.7-.1 2.5-.1.7 0 1.4.1 2.1.1h1.2c.2-.1.3-.5.1-.7l-.8-.1h-.4c-.7-.1-1.7-.2-1.7-1 0-.5.3-1.2.4-1.7l1-2.3c.5-1.1.3-1.2 1.6-1.2h4.3c1.5 0 1.3 0 2 1.5l1 2.3c.2.4.4 1.1.4 1.5 0 .8-.8.8-1.6.9h-.5l-.8.1c-.2.2-.1.6.1.7h1.2c.9 0 1.8-.1 2.7-.1 1.1 0 2.2.1 3.3.1h.5c0-.1.1-.6-.1-.7zm-8.5-7.2h-3.8c-.1 0-1.2.1-1.2-.2 0-.1.1-.3.1-.4l2.3-5.6c.1-.2.3-.9.6-.9.2 0 .5.8.5.9l2.2 5.2c0 .1.2.6.2.7.1.4-.7.3-.9.3z"/><path class="st1" d="M655.3 100.3H-28v-128h683.3"/><path class="st2" d="M15.8 62.3c17.9 0 42.5 10.1 60.5 10.1 12.8 0 25.3-3.4 32.4-8.4.5-3 .8-6 .8-9.1 0-30-24.3-54.3-54.3-54.3C25 .6.7 24.9.7 54.9c0 3.1.3 6.1.7 9 2-.4 8.7-1.6 14.4-1.6z"/><g><path class="st3" d="M90.1 42.3l2.2.9 4.7-3.3z"/><path class="st3" d="M10.1 38.6l-5.6-2 .3-.7 6.4 2.1.8-.5.3-.2-6.9-2.9.3-.7L21.2 40l.5-.2-15.4-7.6.3-.7 16.3 7.6.2-.1-15.8-8.9.3-.7 22.8 12.4c.2-.3.6-1 .8-1.3-8.7-8.1-17-14.3-17-14.3s8.6 5.8 19.2 11.1c.4-.4.6-.8 1-1.2L15 19l.5-.5 15.7 13.4-14.5-14.6.5-.6 16.3 15.8-15.2-16.9.6-.5 14 15L20.1 14l.6-.5 16.4 20c.4-.4.8-.6 1.2-1C33.4 21.8 27.9 13 27.9 13s5.8 8.5 13.6 17.4c.5-.3 1-.5 1.5-.8l-.1-.1-11.5-23 .6-.2 9.5 18.3-8-18.9.7-.3 9.2 20.7-7.7-21.3.7-.3 7.4 19.2L38 3.9l.7-.3 7.7 24.5v.1c.5-.2 1-.3 1.6-.5-.7-11.7-2.4-21.8-2.4-21.8s2.2 10 6 21.1c.5-.1 1.1-.1 1.6-.2h.1v-.1L51.2 1.2h.7l2 20.5-.3-20.6h.8l.8 22.7.8-22.7h.8l-.3 20.6 2-20.5h.7l-2.1 25.6v.1c.5 0 1.1.1 1.6.2C62.6 16 64.7 6 64.7 6S63 16 62.4 27.8c.5.1 1 .3 1.6.5l7.6-24.4.7.1-5.8 19.8 7.4-19.2.7.3-7.8 21.3L76 5.4l.7.3-8 18.9 9.5-18.3.7.3-11.5 23c.5.2.9.5 1.4.7C76.6 21.5 82.3 13 82.3 13S77 21.7 72 32.4c.4.3.9.7 1.3 1l16.2-19.8.6.5-12.8 16.2 14-15 .6.5-15.2 16.9L93 16.9l.5.6L79 32l15.7-13.4.5.5-19.2 17c.3.4.7.8 1 1.2 10.5-5.3 19.1-11 19.1-11s-8.3 6.1-16.9 14.1c.2.4.6 1.1.8 1.5l22.4-12.2.3.7-17.8 10 18.6-8.7.3.7-17.4 8.5.3.1 17.7-7.1.3.7-16.4 7 .3.1 10.9-3.6 1.6-1.2.5.4 3.6-1.2.3.7-3.1 1.1 4.5 3.4 1.4.8C102.7 18 81 0 55 0 28.6 0 6.5 18.6 1.2 43.5c.1 0 .1-.1.2-.1l.7-.3.4-.2 7.6-4.3z"/></g><path class="st0" d="M.9 65s8.1-1.6 14.9-1.6c17.9 0 42.5 10.1 60.5 10.1 13.1 0 26-3.6 32.9-8.9.5-3.1.8-6.3.8-9.6 0-4.4-.5-8.7-1.5-12.8L101 38l-8.8 6.1-5.9-2.3C84.3 42.8 72 51 72 51l-4.7-3.4-5.1-1-6.8-4.9-7.8 5.3s-8.7 5-9 5c-.3 0-10.4-8-10.4-8l-4.7-4.9c-.8.5-4 2-4 2h-.2l-3.1-1-3.7-2-11.1 5.3c-.1 0-.1.1-.2.1C.4 47.2 0 51.1 0 55c0 3.4.3 6.8.9 10z"/></svg>