<?xml version="1.0" encoding="utf-8"?>
<!-- Generator: Adobe Illustrator 18.1.1, SVG Export Plug-In . SVG Version: 6.00 Build 0)  -->
<svg version="1.1" id="Layer_1" xmlns="http://www.w3.org/2000/svg" xmlns:xlink="http://www.w3.org/1999/xlink" x="0px" y="0px"
	 viewBox="0 0 387.8 159" enable-background="new 0 0 387.8 159" xml:space="preserve">
<g>
	<defs>
		<rect id="SVGID_1_" x="12.1" y="3" width="375.7" height="147.9"/>
	</defs>
	<clipPath id="SVGID_2_">
		<use xlink:href="#SVGID_1_"  overflow="visible"/>
	</clipPath>
	<rect x="12.1" y="128" clip-path="url(#SVGID_2_)" width="362" height="22.9"/>
	<g clip-path="url(#SVGID_2_)">
		<defs>
			<rect id="SVGID_3_" x="12.1" y="3" width="375.7" height="147.9"/>
		</defs>
		<clipPath id="SVGID_4_">
			<use xlink:href="#SVGID_3_"  overflow="visible"/>
		</clipPath>
		<g opacity="0.9" clip-path="url(#SVGID_4_)">
			<g>
				<defs>
					<rect id="SVGID_5_" x="3.1" y="-4" width="380" height="126"/>
				</defs>
				<clipPath id="SVGID_6_">
					<use xlink:href="#SVGID_5_"  overflow="visible"/>
				</clipPath>
				<polygon clip-path="url(#SVGID_6_)" fill="#FFFFFF" points="374.1,58 307.1,58 307.1,3 12.1,3 12.1,66 49.1,66 49.1,121 
					374.1,121 				"/>
			</g>
		</g>
		<g clip-path="url(#SVGID_4_)">
			<path d="M63,44.2c0,2.6-0.7,4.7-2,6.3c-1.3,1.6-3,2.9-4.9,3.7c-2,0.8-4,1.4-5.9,1.7c-1.9,0.3-3.7,0.4-5.5,0.4H21.8v-3.1
				c2,0,3.4-0.2,4.3-0.6c0.9-0.4,1.5-1,1.8-1.7c0.3-0.7,0.4-1.8,0.4-3.1V18.9c0-2-0.4-3.4-1.2-4.2c-0.8-0.8-2.6-1.2-5.3-1.2v-3.2
				c3.3-0.1,6.4-0.1,9.3-0.2c2.9-0.1,5.4-0.1,7.3-0.2c1.9,0,3.2-0.1,4-0.1h1.2c2.3,0,4.8,0.2,7.3,0.7c2.5,0.5,4.9,1.6,7,3.3
				c2.1,1.7,3.1,4.2,3.1,7.4c0,2.4-0.9,4.5-2.6,6.2c-1.7,1.7-4.5,3.2-8.4,4.3c2.6,0.5,5,1.3,6.9,2.4c2,1.1,3.5,2.5,4.5,4.2
				C62.4,40.1,63,42.1,63,44.2z M51.4,21.6c0-1.6-0.4-2.9-1.1-4.1c-0.8-1.2-1.9-2.1-3.3-2.8c-1.5-0.7-3.3-1-5.4-1H38v16.4h2.8
				c3.6,0,6.3-0.8,8-2.3C50.5,26.3,51.4,24.2,51.4,21.6z M52.6,43.6c0-3.1-0.8-5.5-2.4-7.2c-1.6-1.7-3.9-2.6-6.8-2.6H38v11v0.9
				c0,1.7,0.1,3,0.3,3.9c0.2,0.9,0.7,1.6,1.5,2.2c0.8,0.5,2.1,0.8,3.8,0.8c2.3,0,4.4-0.7,6.2-2.1C51.7,49,52.6,46.7,52.6,43.6z"/>
			<path d="M112.2,41.2l-0.4,15H71.1v-3.1c2.8,0,4.6-0.4,5.4-1.2c0.8-0.8,1.2-2.2,1.2-4.2V19.1c0-1.3-0.1-2.3-0.4-3
				c-0.3-0.7-0.9-1.3-1.8-1.7c-1-0.4-2.4-0.6-4.4-0.6v-3.1H109l0.6,11.9h-3.1c-0.7-2.6-1.5-4.5-2.4-5.6c-0.9-1.1-1.9-1.8-3.1-2.1
				c-1.1-0.3-2.8-0.4-5.1-0.4h-8.6v16.1H92c1.6,0,2.8-0.1,3.6-0.4c0.8-0.3,1.3-0.8,1.6-1.6c0.3-0.8,0.5-2,0.6-3.7h3.2v15.2H98
				c-0.1-1.7-0.3-2.9-0.7-3.7c-0.4-0.8-0.9-1.3-1.7-1.6c-0.8-0.3-2-0.4-3.6-0.4h-4.7v10.7c0,1.8,0,3.1,0.1,3.9
				c0.1,0.8,0.3,1.5,0.7,2.1c0.4,0.6,1,0.9,1.9,1.2c0.9,0.2,2.1,0.4,3.8,0.4h3.7c1.5,0,3-0.2,4.4-0.6c1.4-0.4,2.8-1.4,4.1-3
				c1.3-1.6,2.3-4.2,2.8-7.7H112.2z"/>
			<path d="M161.5,41l-0.3,15.3h-40.7v-3.1c2.8,0,4.6-0.4,5.4-1.2c0.8-0.8,1.2-2.2,1.2-4.2V19.1c0-1.3-0.1-2.4-0.4-3.1
				c-0.3-0.7-0.9-1.3-1.9-1.7c-1-0.4-2.4-0.6-4.4-0.6v-3.1h23v3.1c-1.9,0-3.3,0.2-4.3,0.6c-1,0.4-1.6,0.9-1.9,1.7
				c-0.3,0.7-0.5,1.8-0.5,3.1v26.3c0,2.1,0.1,3.5,0.3,4.4s0.8,1.6,1.6,2c0.9,0.5,2.4,0.7,4.4,0.7c2.6,0,4.8-0.2,6.8-0.6
				s3.7-1.4,5.4-3.1c1.6-1.7,2.7-4.3,3.1-7.8H161.5z"/>
			<path d="M210.1,41l-0.3,15.3h-40.7v-3.1c2.8,0,4.6-0.4,5.4-1.2c0.8-0.8,1.2-2.2,1.2-4.2V19.1c0-1.3-0.1-2.4-0.4-3.1
				c-0.3-0.7-0.9-1.3-1.9-1.7c-1-0.4-2.4-0.6-4.4-0.6v-3.1h23v3.1c-1.9,0-3.3,0.2-4.3,0.6c-1,0.4-1.6,0.9-1.9,1.7
				c-0.3,0.7-0.5,1.8-0.5,3.1v26.3c0,2.1,0.1,3.5,0.3,4.4s0.8,1.6,1.6,2c0.9,0.5,2.4,0.7,4.4,0.7c2.6,0,4.8-0.2,6.8-0.6
				s3.7-1.4,5.4-3.1c1.7-1.7,2.7-4.3,3.1-7.8H210.1z"/>
			<path d="M255.8,13.7c-1.2,0.1-2.3,0.4-3.1,0.8c-0.8,0.5-1.6,1.2-2.5,2.3c-0.8,1.1-2,2.8-3.6,5.3l-9.6,14.8v10.8
				c0,1.2,0.1,2.2,0.4,3c0.3,0.7,0.9,1.3,1.8,1.8c0.9,0.4,2.4,0.7,4.4,0.7v3.1h-23v-3.1c1.9,0,3.3-0.2,4.3-0.6
				c1-0.4,1.6-0.9,1.9-1.7c0.3-0.7,0.5-1.8,0.5-3.2V37.6L216,18.5c-0.1-0.1-0.2-0.3-0.3-0.5c-0.1-0.2-0.2-0.3-0.2-0.3
				c-1-1.6-1.9-2.7-2.6-3.2c-0.8-0.5-1.9-0.8-3.4-0.8v-3.1h21.4v3.1c-1.1,0-1.9,0-2.6,0.1s-1.1,0.2-1.5,0.5s-0.6,0.8-0.6,1.4
				c0,0.4,0.1,0.9,0.4,1.5s0.9,1.7,1.9,3.4l7.1,12l6.8-10.7c1.5-2.3,2.2-4,2.2-5.1c0-1.4-0.5-2.3-1.4-2.7c-0.9-0.4-2.2-0.5-3.8-0.5
				v-3.1h16.6V13.7z"/>
		</g>
		<g clip-path="url(#SVGID_4_)">
			<path d="M254.9,41.4c0-2.1,0.5-4.3,1.5-6.8s2.4-4.4,4.2-6s3.5-2.3,5.2-2.3c1.5,0,2.8,0.7,3.8,2c1,1.3,1.5,3.1,1.5,5.3
				c0,2.7-0.6,5.3-1.7,7.7c-1.1,2.4-2.5,4.3-4.2,5.6c-1.7,1.3-3.3,1.9-4.9,1.9c-1.4,0-2.7-0.6-3.8-1.7S254.9,44.2,254.9,41.4z
				 M257.7,44.4c0,0.9,0.2,1.7,0.7,2.4c0.5,0.7,1.1,1,2,1c2.3,0,4.2-2.2,5.7-6.6c1.5-4.4,2.2-7.7,2.2-10.1c0-1.2-0.2-2.1-0.7-2.7
				s-1.1-0.9-2.1-0.9c-2.2,0-4,2-5.6,6.1C258.5,37.7,257.7,41.3,257.7,44.4z"/>
			<path d="M288.5,27l-0.3,1.1h-4.5l-4,15.2c-1.8,6.9-3.8,11.5-6,13.8c-2.2,2.4-4.6,3.5-7.2,3.5c-1.5,0-2.8-0.3-3.9-1
				c-1.2-0.7-1.8-1.5-1.8-2.5c0-0.6,0.2-1,0.5-1.4c0.4-0.4,0.8-0.5,1.3-0.5c0.6,0,1,0.2,1.4,0.6c0.3,0.4,0.5,0.8,0.5,1.3
				c0,0.1,0,0.3-0.1,0.6l-0.1,0.4c0,0.3,0.2,0.6,0.6,0.9c0.4,0.3,0.9,0.4,1.5,0.4c2.1,0,3.8-1.1,5.2-3.3c1.4-2.2,3-6.6,4.8-13.3
				l4-14.8h-5.1l0.3-1.1h5.1c0.1-0.2,0.2-0.7,0.4-1.5c2.3-8.6,6.1-12.9,11.3-12.9c1.5,0,2.6,0.3,3.4,1c0.8,0.7,1.2,1.3,1.2,1.9
				c0,0.9-0.4,1.4-1.3,1.4c-0.7,0-1.4-0.6-2.2-1.8c-0.6-0.9-1.2-1.3-2-1.3c-1.2,0-2.3,0.5-3.4,1.6c-1.1,1.1-2.3,4-3.6,8.8L284,27
				H288.5z"/>
		</g>
	</g>
	<g clip-path="url(#SVGID_2_)">
		<path d="M71.9,82.5l-0.4,1.1h-3.9L64.2,95c-1.1,3.7-1.7,5.9-1.7,6.5c0,0.4,0.1,0.7,0.3,0.9c0.2,0.2,0.4,0.3,0.8,0.3
			c0.6,0,1.4-0.6,2.4-1.8s1.9-2.7,2.7-4.4h1.1c-1.1,2.6-2.3,4.5-3.6,5.9c-1.4,1.4-2.6,2-3.7,2c-0.9,0-1.6-0.3-2.1-0.9
			c-0.5-0.6-0.8-1.4-0.8-2.4c0-0.8,0.5-3,1.6-6.5l3.3-11.1H61l0.4-1.1h3.6l2.4-7.9h3.1L68,82.5H71.9z"/>
		<path d="M75.4,104.1h-3.1l9.1-30c0.5-1.7,0.8-2.7,0.8-3c0-0.4-0.1-0.7-0.4-0.9s-0.8-0.3-1.7-0.3h-0.8l0.3-1.1
			c2.8-0.1,4.8-0.4,6.1-0.9h0.6l-5.9,19.4c3.1-3.8,5.9-5.7,8.5-5.7c1.2,0,2,0.2,2.6,0.7c0.6,0.5,0.9,1.2,0.9,2.2
			c0,0.8-0.5,2.6-1.5,5.6l-2.3,6.5c-0.9,2.5-1.3,4-1.3,4.4c0,0.4,0.1,0.8,0.3,1c0.2,0.2,0.4,0.3,0.8,0.3c0.6,0,1.3-0.4,2.1-1.1
			s1.4-1.7,2-2.8h1.3c-0.9,1.8-1.9,3.2-3.1,4.3s-2.4,1.6-3.4,1.6c-0.8,0-1.5-0.3-2-0.9c-0.6-0.6-0.9-1.4-0.9-2.3
			c0-1,0.5-2.9,1.5-5.5l2.2-6c1-2.7,1.5-4.5,1.5-5.2c0-0.4-0.1-0.8-0.4-1c-0.2-0.2-0.6-0.3-1.1-0.3c-0.8,0-1.7,0.3-2.7,0.9
			c-1.1,0.6-2.2,1.7-3.3,3.2c-1.1,1.5-2,2.9-2.5,4.2c-0.5,1.3-1.2,3.4-2.1,6.2L75.4,104.1z"/>
		<path d="M109.6,97.1h1.2c-2.2,4.9-5,7.3-8.5,7.3c-1.4,0-2.6-0.5-3.5-1.5s-1.3-2.3-1.3-4c0-2.1,0.6-4.6,1.7-7.3
			c1.1-2.7,2.8-5,4.9-7c2.1-2,4-2.9,5.5-2.9c1,0,1.7,0.3,2.2,0.9c0.5,0.6,0.8,1.4,0.8,2.3c0,1.9-0.9,3.7-2.8,5.4s-4.7,3.4-8.4,5
			c-0.5,1.5-0.7,2.9-0.7,4.3c0,1.1,0.2,1.9,0.6,2.5c0.4,0.6,1.1,0.8,1.9,0.8C105.7,103,107.8,101,109.6,97.1z M101.9,94
			c2.2-1,4.2-2.4,6-4.2c1.8-1.8,2.7-3.4,2.7-4.8c0-0.7-0.1-1.1-0.4-1.5c-0.3-0.3-0.7-0.5-1.2-0.5c-1,0-2.3,1-3.7,3
			C103.9,88.2,102.8,90.8,101.9,94z"/>
	</g>
	<g clip-path="url(#SVGID_2_)">
		<path d="M162.6,100.7c0,2.6-0.7,4.7-2,6.3c-1.3,1.6-3,2.9-4.9,3.7c-2,0.8-4,1.4-5.9,1.7c-1.9,0.3-3.7,0.4-5.5,0.4h-22.9v-3.1
			c2,0,3.4-0.2,4.3-0.6c0.9-0.4,1.5-1,1.8-1.7c0.3-0.7,0.4-1.8,0.4-3.1V75.5c0-2-0.4-3.4-1.2-4.2c-0.8-0.8-2.6-1.2-5.3-1.2v-3.2
			c3.3-0.1,6.4-0.1,9.3-0.2c2.9-0.1,5.4-0.1,7.3-0.2c1.9,0,3.2-0.1,4-0.1h1.2c2.3,0,4.8,0.2,7.3,0.7c2.5,0.5,4.9,1.6,7,3.3
			c2.1,1.7,3.1,4.2,3.1,7.4c0,2.4-0.9,4.5-2.6,6.2c-1.7,1.7-4.5,3.2-8.4,4.3c2.6,0.5,5,1.3,6.9,2.4c2,1.1,3.5,2.5,4.5,4.2
			C162.1,96.7,162.6,98.6,162.6,100.7z M151,78.1c0-1.6-0.4-2.9-1.1-4.1c-0.8-1.2-1.9-2.1-3.3-2.8c-1.5-0.7-3.3-1-5.4-1h-3.5v16.4
			h2.8c3.6,0,6.3-0.8,8-2.3C150.1,82.8,151,80.8,151,78.1z M152.3,100.1c0-3.1-0.8-5.5-2.4-7.2c-1.6-1.7-3.9-2.6-6.8-2.6h-5.5v11
			v0.9c0,1.7,0.1,3,0.3,3.9c0.2,0.9,0.7,1.6,1.5,2.2c0.8,0.5,2.1,0.8,3.8,0.8c2.3,0,4.4-0.7,6.2-2.1
			C151.3,105.5,152.3,103.2,152.3,100.1z"/>
		<path d="M211.8,97.7l-0.4,15h-40.7v-3.1c2.8,0,4.6-0.4,5.4-1.2c0.8-0.8,1.2-2.2,1.2-4.2V75.6c0-1.3-0.1-2.3-0.4-3
			c-0.3-0.7-0.9-1.3-1.8-1.7c-1-0.4-2.4-0.6-4.4-0.6v-3.1h37.9l0.6,11.9h-3.1c-0.7-2.6-1.5-4.5-2.4-5.6c-0.9-1.1-1.9-1.8-3.1-2.1
			c-1.1-0.3-2.8-0.4-5.1-0.4H187V87h4.6c1.6,0,2.8-0.1,3.6-0.4c0.8-0.3,1.3-0.8,1.6-1.6c0.3-0.8,0.5-2,0.6-3.7h3.2v15.2h-3.1
			c-0.1-1.7-0.3-2.9-0.7-3.7c-0.4-0.8-0.9-1.3-1.7-1.6c-0.8-0.3-2-0.4-3.6-0.4H187v10.7c0,1.8,0,3.1,0.1,3.9
			c0.1,0.8,0.3,1.5,0.7,2.1c0.4,0.6,1,0.9,1.9,1.2c0.9,0.2,2.1,0.4,3.8,0.4h3.7c1.5,0,3-0.2,4.4-0.6c1.4-0.4,2.8-1.4,4.1-3
			c1.3-1.6,2.3-4.2,2.8-7.7H211.8z"/>
		<path d="M266.6,112.8h-21.5v-3.1c1.8,0,3.1-0.1,4-0.4s1.2-0.9,1.2-1.8c0-0.7-0.1-1.4-0.4-2.1l-2.2-5.4h-14.8l-1.1,3
			c-0.6,1.7-0.9,2.9-0.9,3.6c0,1.3,0.5,2.2,1.6,2.6s2.3,0.5,3.7,0.5v3.1h-15.7v-3.1c1.3,0,2.3-0.2,3.2-0.7c0.9-0.5,1.7-1.4,2.5-2.7
			c0.8-1.3,1.7-3.2,2.6-5.6l13.2-34.5h3.2l13.9,35.6c1,2.5,1.8,4.2,2.2,5.1c0.5,0.9,1.1,1.6,2,2.1c0.8,0.5,2,0.7,3.5,0.7V112.8z
			 M246.5,96.7l-6.3-15.9l-6,15.9H246.5z"/>
		<path d="M309.3,99.7c0,1.4-0.3,2.9-0.9,4.5c-0.6,1.6-1.5,3.1-2.7,4.5c-1.2,1.4-2.8,2.6-4.6,3.5c-1.9,0.9-4,1.4-6.5,1.4
			c-2.4,0-4.8-0.5-7.2-1.6c-2.4-1.1-4.4-2.6-6.1-4.7c-0.7,1.7-1.2,3.2-1.4,4.6h-3.1V96.3h3.1c0.6,2.2,1.3,4.4,2.3,6.3
			c1,2,2.4,3.7,4.2,5.1c1.8,1.4,4,2.1,6.6,2.1c2.3,0,4.1-0.6,5.5-1.9s2.1-2.8,2.1-4.7c0-1.1-0.2-2-0.6-2.8c-0.4-0.8-1-1.5-1.9-2.2
			s-1.9-1.3-3.3-2.1s-3-1.5-4.8-2.3c-2.8-1.3-5-2.6-6.8-3.9c-1.8-1.3-3.1-2.6-4-3.9c-0.9-1.2-1.5-2.4-1.9-3.6
			c-0.3-1.1-0.5-2.3-0.5-3.4c0-2,0.5-4.1,1.6-6s2.7-3.6,4.8-4.9c2.1-1.3,4.6-1.9,7.4-1.9c2.1,0,4.2,0.5,6.1,1.4s3.6,2.3,5,3.9
			c0.4-0.9,0.8-2.3,1.1-4h3.2v12.7h-3.2c-2.2-6.9-6.1-10.4-11.7-10.4c-2,0-3.6,0.5-4.9,1.6c-1.2,1.1-1.8,2.4-1.8,4.1
			c0,1.3,0.4,2.5,1.1,3.5s1.8,1.8,3,2.5c1.2,0.7,3.3,1.7,6,3c3.4,1.6,6,3,7.9,4.1c1.9,1.2,3.5,2.6,4.8,4.4
			C308.6,95,309.3,97.1,309.3,99.7z"/>
		<path d="M363.3,80.1h-3.2c-0.3-2.8-0.9-4.9-1.9-6.3c-1-1.3-2-2.2-3.1-2.5c-1.1-0.3-2.4-0.5-3.8-0.5h-5.8v33.4
			c0,1.3,0.1,2.4,0.4,3.1s0.9,1.3,1.9,1.7c1,0.4,2.4,0.6,4.3,0.6v3.1h-22.9v-3.1c2.8,0,4.6-0.4,5.4-1.2c0.8-0.8,1.2-2.2,1.2-4.2
			V70.8h-4.8c-1.9,0-3.5,0.2-4.7,0.5c-1.3,0.3-2.4,1.1-3.3,2.5c-1,1.4-1.5,3.5-1.6,6.3h-3.2v-13h45.1V80.1z"/>
	</g>
	<g clip-path="url(#SVGID_2_)">
		<path fill="#FFFFFF" d="M36.9,136.3c0,0.4-0.1,0.8-0.4,1.1s-0.6,0.7-1,0.9c-0.5,0.3-1,0.4-1.6,0.5c1.3,0.4,2,1.2,2,2.3
			c0,0.5-0.2,1-0.5,1.4s-0.7,0.7-1.1,1c-0.3,0.2-0.6,0.3-0.9,0.3c-0.3,0.1-0.6,0.1-0.9,0.1c-0.3,0-0.6,0-0.9,0h-4.4l0.2-0.7
			c0.3,0,0.6-0.1,0.7-0.3c0.2-0.2,0.3-0.5,0.4-0.8l1.9-6.2c0.1-0.2,0.1-0.4,0.1-0.6c0-0.5-0.3-0.7-0.9-0.7l0.2-0.7h4
			c0.4,0,0.8,0,1.1,0.1c0.3,0,0.6,0.2,0.9,0.3c0.3,0.2,0.6,0.4,0.8,0.7C36.8,135.6,36.9,135.9,36.9,136.3z M33.9,140.4
			c0-0.5-0.1-0.8-0.4-1s-0.6-0.2-1-0.2h-1l-0.9,2.8c-0.1,0.2-0.1,0.4-0.1,0.6c0,0.2,0.1,0.3,0.2,0.5c0.2,0.1,0.5,0.2,0.9,0.2
			c0.3,0,0.6-0.1,0.9-0.2c0.3-0.1,0.6-0.5,0.8-1c0.1-0.2,0.2-0.5,0.3-0.9C33.8,141,33.9,140.7,33.9,140.4z M35,135.9
			c0-0.4-0.1-0.7-0.4-0.8s-0.7-0.2-1.2-0.2h-0.6l-1.1,3.6h0.7c0.4,0,0.8-0.1,1.1-0.2s0.5-0.2,0.7-0.4c0.2-0.2,0.4-0.5,0.6-1
			C34.9,136.6,35,136.2,35,135.9z"/>
		<path fill="#FFFFFF" d="M42.9,142.3c-0.2,0.4-0.5,0.9-0.9,1.3s-0.9,0.7-1.5,0.7c-0.4,0-0.7-0.1-0.9-0.3c-0.2-0.2-0.3-0.4-0.3-0.7
			c0-0.3,0.1-0.7,0.3-1.2l0.9-2.6c0.1-0.2,0.1-0.4,0.1-0.5c0-0.1,0-0.1-0.1-0.1s-0.1-0.1-0.1-0.1c-0.2,0-0.3,0.1-0.5,0.4
			c-0.2,0.3-0.3,0.5-0.4,0.7h-0.6c0.3-0.6,0.7-1.1,1.1-1.5c0.5-0.4,0.9-0.5,1.4-0.5c0.3,0,0.6,0.1,0.8,0.2c0.2,0.2,0.3,0.4,0.3,0.6
			c0,0.3-0.1,0.6-0.2,0.8l-1.1,3.1c-0.1,0.2-0.1,0.4-0.1,0.5c0,0.1,0,0.1,0.1,0.2c0,0.1,0.1,0.1,0.2,0.1c0.1,0,0.3-0.1,0.5-0.2
			s0.4-0.4,0.6-0.9H42.9z M43.5,134.9c0,0.3-0.1,0.5-0.3,0.7c-0.2,0.2-0.4,0.3-0.7,0.3c-0.3,0-0.5-0.1-0.7-0.3
			c-0.2-0.2-0.3-0.4-0.3-0.7c0-0.3,0.1-0.5,0.3-0.7c0.2-0.2,0.4-0.3,0.7-0.3c0.2,0,0.3,0,0.5,0.1c0.1,0.1,0.3,0.2,0.3,0.3
			C43.4,134.6,43.5,134.8,43.5,134.9z"/>
		<path fill="#FFFFFF" d="M53.6,138.7c0,0.2-0.1,0.4-0.2,0.5c-0.2,0.1-0.3,0.2-0.5,0.2c-0.2,0-0.5-0.1-0.8-0.2
			c-0.3-0.1-0.5-0.2-0.7-0.2c-0.3,0-0.6,0.1-1,0.3c-0.3,0.2-0.8,0.6-1.2,1c0.4,0,0.8,0.1,1.2,0.3c0.4,0.2,0.6,0.4,0.7,0.7
			c0.1,0.3,0.2,0.7,0.2,1.2c0,0.3,0,0.5,0.1,0.6c0,0.1,0.1,0.2,0.3,0.2c0.2,0,0.4-0.1,0.6-0.4c0.2-0.2,0.4-0.5,0.5-0.8h0.7
			c-0.2,0.5-0.5,1-0.9,1.4c-0.4,0.4-0.9,0.6-1.6,0.6c-0.5,0-0.9-0.1-1.1-0.4c-0.2-0.2-0.3-0.5-0.3-0.8c0-0.1,0-0.3,0-0.5
			c0-0.3,0-0.5,0-0.7c0-0.6-0.3-0.9-1-0.9l-0.7,0.6l-0.8,2.6h-1.7l2.5-8.1c0.1-0.5,0.2-0.7,0.2-0.7c0-0.2-0.1-0.3-0.2-0.4
			c-0.1,0-0.4-0.1-0.8-0.1l0.2-0.7c1.1,0,2-0.1,2.5-0.2h0.5l-2,6.4c0.7-0.7,1.3-1.1,1.6-1.4c0.3-0.3,0.7-0.5,1.2-0.8
			c0.4-0.2,0.9-0.3,1.4-0.3c0.4,0,0.7,0.1,0.9,0.2C53.4,138.3,53.6,138.5,53.6,138.7z"/>
		<path fill="#FFFFFF" d="M62.4,139.1c0,0.2-0.1,0.4-0.2,0.7c-0.1,0.3-0.3,0.5-0.7,0.8s-0.8,0.6-1.4,0.8s-1.4,0.4-2.3,0.5l-0.2,0
			c0,0.2-0.1,0.4-0.1,0.5c0,0.4,0.1,0.6,0.3,0.8c0.2,0.2,0.4,0.2,0.8,0.2c0.7,0,1.4-0.4,2.1-1.2h0.8c-0.3,0.5-0.8,0.9-1.4,1.4
			s-1.3,0.7-2.2,0.7c-0.6,0-1.1-0.2-1.5-0.5c-0.4-0.3-0.6-0.8-0.6-1.4c0-0.7,0.2-1.5,0.6-2.2c0.4-0.7,1-1.3,1.7-1.7
			c0.7-0.4,1.5-0.7,2.3-0.7c0.7,0,1.2,0.1,1.5,0.3C62.3,138.5,62.4,138.7,62.4,139.1z M60.9,139.1c0-0.2-0.1-0.3-0.2-0.4
			c-0.1-0.1-0.3-0.2-0.5-0.2c-0.3,0-0.7,0.1-0.9,0.4c-0.3,0.2-0.5,0.5-0.7,0.8s-0.4,0.6-0.5,1c-0.1,0.3-0.2,0.5-0.2,0.6
			c1-0.2,1.7-0.4,2.2-0.8C60.6,140,60.9,139.5,60.9,139.1z"/>
		<path fill="#FFFFFF" d="M77.3,135.1c0,0.2-0.1,0.4-0.2,0.5c-0.1,0.2-0.3,0.2-0.5,0.2c-0.2,0-0.4-0.1-0.5-0.2
			c-0.1-0.1-0.2-0.3-0.3-0.6c0-0.1-0.1-0.2-0.1-0.3s-0.1-0.1-0.2-0.1c-0.1,0-0.2,0.1-0.3,0.2c-0.1,0.1-0.1,0.2-0.2,0.4l-0.9,2.9h1.2
			l-0.2,0.7h-1.2l-1.3,4.2c-0.3,1.1-0.6,1.9-0.9,2.6c-0.3,0.6-0.7,1.2-1.1,1.6c-0.5,0.4-1.1,0.7-1.9,0.7c-0.5,0-1-0.1-1.3-0.4
			c-0.3-0.2-0.4-0.5-0.4-0.8c0-0.2,0.1-0.4,0.2-0.6c0.2-0.2,0.4-0.3,0.6-0.3c0.3,0,0.5,0.1,0.6,0.2c0.1,0.2,0.2,0.4,0.2,0.6
			c0,0.3,0.2,0.5,0.4,0.5c0.2,0,0.5-0.1,0.6-0.4c0.2-0.3,0.3-0.7,0.5-1.3l2-6.7h-1.3l0.2-0.7h1.3l0.1-0.5c0.2-0.7,0.4-1.2,0.6-1.7
			c0.2-0.5,0.6-0.9,1-1.3c0.5-0.4,1-0.6,1.7-0.6c0.3,0,0.5,0,0.7,0.1c0.2,0.1,0.4,0.2,0.5,0.4S77.3,134.8,77.3,135.1z"/>
		<path fill="#FFFFFF" d="M81.1,142.3c-0.2,0.4-0.5,0.9-0.9,1.3s-0.9,0.7-1.5,0.7c-0.4,0-0.7-0.1-0.9-0.3c-0.2-0.2-0.3-0.4-0.3-0.7
			c0-0.3,0.1-0.7,0.3-1.2l0.9-2.6c0.1-0.2,0.1-0.4,0.1-0.5c0-0.1,0-0.1-0.1-0.1s-0.1-0.1-0.1-0.1c-0.2,0-0.3,0.1-0.5,0.4
			c-0.2,0.3-0.3,0.5-0.4,0.7H77c0.3-0.6,0.7-1.1,1.1-1.5c0.5-0.4,0.9-0.5,1.4-0.5c0.3,0,0.6,0.1,0.8,0.2c0.2,0.2,0.3,0.4,0.3,0.6
			c0,0.3-0.1,0.6-0.2,0.8l-1.1,3.1c-0.1,0.2-0.1,0.4-0.1,0.5c0,0.1,0,0.1,0.1,0.2c0,0.1,0.1,0.1,0.2,0.1c0.1,0,0.3-0.1,0.5-0.2
			s0.4-0.4,0.6-0.9H81.1z M81.7,134.9c0,0.3-0.1,0.5-0.3,0.7c-0.2,0.2-0.4,0.3-0.7,0.3c-0.3,0-0.5-0.1-0.7-0.3
			c-0.2-0.2-0.3-0.4-0.3-0.7c0-0.3,0.1-0.5,0.3-0.7c0.2-0.2,0.4-0.3,0.7-0.3c0.2,0,0.3,0,0.5,0.1c0.1,0.1,0.3,0.2,0.3,0.3
			C81.6,134.6,81.7,134.8,81.7,134.9z"/>
		<path fill="#FFFFFF" d="M90.1,139.1c0,0.2-0.1,0.4-0.2,0.5s-0.3,0.2-0.5,0.2c-0.2,0-0.3,0-0.4-0.1c-0.1-0.1-0.2-0.2-0.2-0.3
			c-0.1-0.1-0.1-0.3-0.2-0.5c0-0.2-0.1-0.3-0.2-0.4c-0.1-0.1-0.3-0.1-0.6-0.1c-0.3,0-0.5,0.1-0.7,0.2c-0.2,0.1-0.3,0.3-0.3,0.5
			c0,0.1,0,0.3,0.1,0.4c0.1,0.1,0.2,0.3,0.3,0.4c0.1,0.1,0.3,0.3,0.6,0.5c0.5,0.4,0.8,0.7,1,1c0.2,0.3,0.3,0.6,0.3,1
			c0,0.3-0.1,0.6-0.3,0.9s-0.5,0.5-0.9,0.7s-1,0.3-1.6,0.3c-1,0-1.6-0.2-2-0.5c-0.4-0.4-0.6-0.7-0.6-1c0-0.2,0.1-0.4,0.2-0.6
			s0.4-0.2,0.6-0.2c0.5,0,0.8,0.3,0.9,1c0,0.3,0.1,0.5,0.2,0.6c0.1,0.2,0.4,0.2,0.7,0.2c0.3,0,0.6-0.1,0.8-0.2s0.3-0.4,0.3-0.6
			c0-0.1,0-0.3-0.1-0.4c-0.1-0.1-0.2-0.3-0.4-0.5c-0.4-0.3-0.7-0.6-1-0.9c-0.3-0.3-0.5-0.5-0.6-0.7s-0.2-0.5-0.2-0.7
			c0-0.2,0.1-0.5,0.2-0.7s0.4-0.5,0.9-0.7c0.4-0.2,1-0.3,1.7-0.3c0.4,0,0.8,0,1.1,0.1c0.3,0.1,0.5,0.2,0.7,0.3
			c0.2,0.1,0.3,0.3,0.3,0.4C90,138.8,90.1,139,90.1,139.1z"/>
		<path fill="#FFFFFF" d="M100.6,142.2c-0.3,0.6-0.7,1.1-1.1,1.5s-0.9,0.6-1.5,0.6c-0.4,0-0.7-0.1-0.9-0.3c-0.2-0.2-0.3-0.4-0.3-0.7
			c0-0.1,0-0.2,0-0.3c0-0.1,0.1-0.3,0.1-0.5l0.6-1.9c0.1-0.4,0.2-0.7,0.2-0.9c0-0.1,0-0.2,0-0.3s-0.1-0.1-0.1-0.2
			c-0.1,0-0.1-0.1-0.2-0.1c-0.4,0-0.8,0.3-1.3,0.9c-0.5,0.6-0.8,1.2-1,1.7c-0.4,1-0.6,1.6-0.7,1.9l-0.1,0.5h-1.7l2.5-8.2
			c0.1-0.3,0.2-0.5,0.2-0.6c0-0.2-0.1-0.3-0.2-0.3c-0.1-0.1-0.3-0.1-0.6-0.1H94l0.2-0.7c1.2,0,2-0.1,2.5-0.2h0.5l-1.9,6.2
			c0.3-0.5,0.6-0.8,0.9-1.1s0.6-0.6,1-0.8c0.4-0.3,0.8-0.4,1.3-0.4c0.4,0,0.7,0.1,0.9,0.3c0.2,0.2,0.3,0.4,0.3,0.7
			c0,0.2-0.1,0.6-0.3,1.2l-0.7,2.4c-0.1,0.3-0.1,0.4-0.1,0.5c0,0.1,0,0.1,0,0.2s0.1,0.1,0.1,0.1c0.3,0,0.7-0.4,1.1-1.1H100.6z"/>
		<path fill="#FFFFFF" d="M107.1,142.3c-0.2,0.4-0.5,0.9-0.9,1.3s-0.9,0.7-1.5,0.7c-0.4,0-0.7-0.1-0.9-0.3c-0.2-0.2-0.3-0.4-0.3-0.7
			c0-0.3,0.1-0.7,0.3-1.2l0.9-2.6c0.1-0.2,0.1-0.4,0.1-0.5c0-0.1,0-0.1-0.1-0.1s-0.1-0.1-0.1-0.1c-0.2,0-0.3,0.1-0.5,0.4
			c-0.2,0.3-0.3,0.5-0.4,0.7H103c0.3-0.6,0.7-1.1,1.1-1.5c0.5-0.4,0.9-0.5,1.4-0.5c0.3,0,0.6,0.1,0.8,0.2c0.2,0.2,0.3,0.4,0.3,0.6
			c0,0.3-0.1,0.6-0.2,0.8l-1.1,3.1c-0.1,0.2-0.1,0.4-0.1,0.5c0,0.1,0,0.1,0.1,0.2c0,0.1,0.1,0.1,0.2,0.1c0.1,0,0.3-0.1,0.5-0.2
			s0.4-0.4,0.6-0.9H107.1z M107.7,134.9c0,0.3-0.1,0.5-0.3,0.7c-0.2,0.2-0.4,0.3-0.7,0.3c-0.3,0-0.5-0.1-0.7-0.3
			c-0.2-0.2-0.3-0.4-0.3-0.7c0-0.3,0.1-0.5,0.3-0.7c0.2-0.2,0.4-0.3,0.7-0.3c0.2,0,0.3,0,0.5,0.1c0.1,0.1,0.3,0.2,0.3,0.3
			C107.6,134.6,107.7,134.8,107.7,134.9z"/>
		<path fill="#FFFFFF" d="M118,142.2c-0.1,0.3-0.3,0.5-0.6,0.8c-0.2,0.3-0.5,0.6-0.9,0.8c-0.4,0.2-0.7,0.4-1.2,0.4
			c-0.4,0-0.6-0.1-0.9-0.3s-0.3-0.4-0.3-0.7c0-0.2,0.1-0.5,0.2-0.9l0.5-1.8c0.2-0.5,0.2-0.8,0.2-1c0-0.1,0-0.2-0.1-0.3
			c-0.1-0.1-0.2-0.1-0.3-0.1c-0.3,0-0.6,0.2-1,0.7c-0.4,0.4-0.8,1-1.2,1.8c-0.4,0.8-0.7,1.6-1,2.5h-1.7l1.3-4.3
			c0.1-0.4,0.2-0.7,0.2-0.7c0-0.1,0-0.1,0-0.2c0-0.1-0.1-0.1-0.2-0.1c-0.2,0-0.4,0.1-0.5,0.4c-0.2,0.2-0.3,0.5-0.4,0.8h-0.6
			c0.2-0.5,0.5-1,0.9-1.4s0.9-0.6,1.5-0.6c0.4,0,0.7,0.1,0.9,0.3c0.2,0.2,0.3,0.4,0.3,0.7c0,0.1,0,0.3-0.1,0.6s-0.1,0.5-0.2,0.7
			l-0.3,0.8c0.6-0.9,1.2-1.7,1.7-2.2c0.5-0.5,1.1-0.8,1.8-0.8c0.4,0,0.6,0.1,0.8,0.3c0.2,0.2,0.3,0.5,0.3,0.7c0,0.2-0.1,0.5-0.2,0.9
			l-0.8,2.5c-0.1,0.3-0.1,0.5-0.1,0.7c0,0,0,0.1,0,0.1s0.1,0.1,0.1,0.1c0.1,0,0.3-0.1,0.5-0.3c0.2-0.2,0.4-0.4,0.6-0.8H118z"/>
		<path fill="#FFFFFF" d="M127.6,138.5c0,0.2-0.1,0.3-0.2,0.3c-0.1,0.1-0.2,0.1-0.3,0.1c-0.1,0-0.3,0-0.4-0.1
			c-0.1-0.1-0.2-0.1-0.2-0.1c-0.1,0-0.2,0.1-0.3,0.2c0.1,0.2,0.2,0.3,0.2,0.5s0.1,0.3,0.1,0.6c0,0.2,0,0.4-0.1,0.7
			c-0.1,0.3-0.2,0.5-0.5,0.8c-0.2,0.2-0.6,0.4-1,0.6c-0.4,0.2-1,0.2-1.6,0.2c-0.6,0-1,0.1-1.2,0.2c-0.2,0.1-0.3,0.3-0.3,0.5
			c0,0.1,0,0.2,0.1,0.2c0.1,0.1,0.2,0.1,0.3,0.2c0.1,0.1,0.4,0.1,0.8,0.2c0.4,0.1,0.8,0.2,1.1,0.3c1.3,0.4,2,1,2,1.8
			c0,0.4-0.1,0.7-0.4,1s-0.7,0.6-1.3,0.8s-1.4,0.3-2.3,0.3c-0.4,0-0.8,0-1.3-0.1c-0.5-0.1-1-0.2-1.4-0.5s-0.6-0.6-0.6-1.1
			c0-0.2,0.1-0.4,0.2-0.6s0.2-0.3,0.4-0.4c0.2-0.1,0.3-0.2,0.5-0.2c0.1,0,0.2,0,0.2,0.1c0.1,0,0.1,0.1,0.1,0.1c0,0.1,0,0.2-0.1,0.3
			c-0.2,0.2-0.3,0.4-0.3,0.6c0,0.5,0.3,0.8,0.8,0.9c0.5,0.2,1.1,0.2,1.6,0.2c0.7,0,1.2-0.1,1.6-0.3c0.4-0.2,0.6-0.4,0.6-0.7
			c0-0.2,0-0.3-0.1-0.4s-0.2-0.2-0.5-0.3c-0.2-0.1-0.7-0.2-1.3-0.4c-0.6-0.2-1-0.3-1.3-0.5s-0.5-0.3-0.7-0.5
			c-0.2-0.2-0.2-0.4-0.2-0.7c0-0.4,0.2-0.7,0.5-1c0.3-0.3,0.8-0.4,1.2-0.5c-0.4-0.2-0.7-0.4-0.8-0.7s-0.3-0.6-0.3-0.9
			c0-0.4,0.1-0.8,0.4-1.1c0.2-0.4,0.6-0.7,1-0.9s0.9-0.3,1.5-0.3c0.8,0,1.5,0.2,1.9,0.6c0.2-0.2,0.3-0.3,0.5-0.4s0.4-0.2,0.6-0.2
			c0.2,0,0.3,0,0.5,0.2C127.5,138.1,127.6,138.3,127.6,138.5z M125,139.3c0-0.2,0-0.3-0.1-0.5c-0.1-0.1-0.2-0.2-0.3-0.3
			c-0.1-0.1-0.3-0.1-0.4-0.1c-0.3,0-0.6,0.1-0.8,0.4c-0.2,0.3-0.4,0.6-0.5,1c-0.1,0.4-0.2,0.7-0.2,1c0,0.3,0.1,0.5,0.2,0.7
			s0.3,0.2,0.6,0.2c0.5,0,0.9-0.3,1.1-0.8S125,139.8,125,139.3z"/>
		<path fill="#FFFFFF" d="M139.4,142.3c-0.2,0.4-0.5,0.9-0.9,1.3s-0.9,0.7-1.5,0.7c-0.4,0-0.7-0.1-0.9-0.3c-0.2-0.2-0.3-0.4-0.3-0.7
			c0-0.3,0.1-0.7,0.3-1.2l0.9-2.6c0.1-0.2,0.1-0.4,0.1-0.5c0-0.1,0-0.1-0.1-0.1s-0.1-0.1-0.1-0.1c-0.2,0-0.3,0.1-0.5,0.4
			c-0.2,0.3-0.3,0.5-0.4,0.7h-0.6c0.3-0.6,0.7-1.1,1.1-1.5c0.5-0.4,0.9-0.5,1.4-0.5c0.3,0,0.6,0.1,0.8,0.2c0.2,0.2,0.3,0.4,0.3,0.6
			c0,0.3-0.1,0.6-0.2,0.8l-1.1,3.1c-0.1,0.2-0.1,0.4-0.1,0.5c0,0.1,0,0.1,0.1,0.2c0,0.1,0.1,0.1,0.2,0.1c0.1,0,0.3-0.1,0.5-0.2
			s0.4-0.4,0.6-0.9H139.4z M139.9,134.9c0,0.3-0.1,0.5-0.3,0.7c-0.2,0.2-0.4,0.3-0.7,0.3c-0.3,0-0.5-0.1-0.7-0.3
			c-0.2-0.2-0.3-0.4-0.3-0.7c0-0.3,0.1-0.5,0.3-0.7c0.2-0.2,0.4-0.3,0.7-0.3c0.2,0,0.3,0,0.5,0.1c0.1,0.1,0.3,0.2,0.3,0.3
			C139.9,134.6,139.9,134.8,139.9,134.9z"/>
		<path fill="#FFFFFF" d="M150.2,142.2c-0.1,0.3-0.3,0.5-0.6,0.8c-0.2,0.3-0.5,0.6-0.9,0.8c-0.4,0.2-0.7,0.4-1.2,0.4
			c-0.4,0-0.6-0.1-0.9-0.3s-0.3-0.4-0.3-0.7c0-0.2,0.1-0.5,0.2-0.9l0.5-1.8c0.2-0.5,0.2-0.8,0.2-1c0-0.1,0-0.2-0.1-0.3
			c-0.1-0.1-0.2-0.1-0.3-0.1c-0.3,0-0.6,0.2-1,0.7c-0.4,0.4-0.8,1-1.2,1.8c-0.4,0.8-0.7,1.6-1,2.5h-1.7l1.3-4.3
			c0.1-0.4,0.2-0.7,0.2-0.7c0-0.1,0-0.1,0-0.2c0-0.1-0.1-0.1-0.2-0.1c-0.2,0-0.4,0.1-0.5,0.4c-0.2,0.2-0.3,0.5-0.4,0.8h-0.6
			c0.2-0.5,0.5-1,0.9-1.4s0.9-0.6,1.5-0.6c0.4,0,0.7,0.1,0.9,0.3c0.2,0.2,0.3,0.4,0.3,0.7c0,0.1,0,0.3-0.1,0.6s-0.1,0.5-0.2,0.7
			l-0.3,0.8c0.6-0.9,1.2-1.7,1.7-2.2c0.5-0.5,1.1-0.8,1.8-0.8c0.4,0,0.6,0.1,0.8,0.3c0.2,0.2,0.3,0.5,0.3,0.7c0,0.2-0.1,0.5-0.2,0.9
			l-0.8,2.5c-0.1,0.3-0.1,0.5-0.1,0.7c0,0,0,0.1,0,0.1s0.1,0.1,0.1,0.1c0.1,0,0.3-0.1,0.5-0.3c0.2-0.2,0.4-0.4,0.6-0.8H150.2z"/>
		<path fill="#FFFFFF" d="M170.2,134.2l-0.2,0.7c-0.4,0-0.6,0.1-0.9,0.2s-0.4,0.3-0.5,0.5c-0.1,0.2-0.3,0.5-0.4,0.8l-1.2,4.2
			c-0.1,0.5-0.3,0.9-0.4,1.3s-0.4,0.8-0.7,1.1c-0.3,0.4-0.7,0.7-1.2,0.9c-0.5,0.2-1.1,0.4-1.9,0.4c-0.7,0-1.3-0.1-1.8-0.3
			s-0.9-0.5-1.2-0.8c-0.3-0.4-0.5-0.8-0.5-1.2c0-0.2,0-0.4,0.1-0.7c0-0.2,0.1-0.5,0.2-0.8l1.3-4.2c0.1-0.3,0.2-0.6,0.2-0.7
			c0-0.3-0.1-0.5-0.3-0.5c-0.2-0.1-0.4-0.1-0.7-0.1l0.2-0.7h4.5l-0.2,0.7c-0.3,0-0.6,0-0.8,0.1s-0.3,0.1-0.4,0.3
			c-0.1,0.1-0.2,0.4-0.3,0.7l-1.5,5c-0.1,0.5-0.2,0.9-0.2,1.1c0,0.4,0.2,0.8,0.5,1c0.4,0.3,0.8,0.4,1.3,0.4c0.5,0,1-0.1,1.3-0.3
			s0.7-0.5,0.9-0.8c0.2-0.3,0.4-0.6,0.5-0.9c0.1-0.3,0.2-0.6,0.3-0.9l1.2-4.4c0.1-0.2,0.1-0.4,0.1-0.5c0-0.4-0.1-0.6-0.4-0.7
			s-0.5-0.2-0.9-0.2l0.2-0.7H170.2z"/>
		<path fill="#FFFFFF" d="M175.5,138.1l-0.2,0.7h-1.5l-1.1,3.6c-0.1,0.3-0.1,0.4-0.1,0.6c0,0.1,0,0.2,0.1,0.3
			c0.1,0.1,0.2,0.1,0.3,0.1c0.3,0,0.5-0.1,0.7-0.4c0.2-0.3,0.4-0.6,0.6-0.9h0.7c-0.3,0.6-0.6,1.1-0.9,1.4c-0.3,0.3-0.7,0.6-1,0.7
			c-0.3,0.1-0.6,0.2-0.8,0.2c-0.4,0-0.7-0.1-1-0.4c-0.2-0.2-0.4-0.6-0.4-1c0-0.3,0.1-0.7,0.2-1.1l1-3.1h-1.4l0.2-0.7h1.4l0.7-2.2
			h1.7l-0.7,2.2H175.5z"/>
		<path fill="#FFFFFF" d="M185,142.3c-0.1,0.3-0.3,0.6-0.5,0.8s-0.4,0.4-0.6,0.6s-0.4,0.3-0.6,0.4s-0.4,0.1-0.7,0.1
			c-0.5,0-0.8-0.2-1-0.5c-0.1-0.3-0.2-0.7-0.2-1.1c-0.4,0.5-0.8,0.8-1.2,1.1s-0.8,0.4-1.3,0.4c-0.3,0-0.5-0.1-0.7-0.2
			c-0.2-0.2-0.3-0.4-0.4-0.6s-0.1-0.6-0.1-0.9c0-0.7,0.2-1.4,0.5-2.1s0.8-1.3,1.4-1.8c0.6-0.5,1.2-0.7,1.9-0.7
			c0.3,0,0.5,0.1,0.7,0.2s0.3,0.3,0.4,0.4c0.1,0.2,0.1,0.3,0.2,0.5l0.3-0.9h1.6l-1.4,4.5c-0.1,0.3-0.1,0.5-0.1,0.6
			c0,0.1,0,0.1,0.1,0.2c0,0,0.1,0.1,0.1,0.1c0.3,0,0.7-0.3,1-1H185z M182.3,139.4c0-0.2,0-0.4-0.1-0.6s-0.3-0.3-0.5-0.3
			c-0.4,0-0.7,0.2-1.1,0.6c-0.3,0.4-0.6,0.9-0.8,1.5c-0.2,0.6-0.3,1.1-0.3,1.5c0,0.6,0.2,0.9,0.6,0.9c0.3,0,0.5-0.1,0.8-0.4
			c0.3-0.2,0.5-0.6,0.8-0.9c0.2-0.4,0.4-0.8,0.6-1.2S182.3,139.8,182.3,139.4z"/>
		<path fill="#FFFFFF" d="M195.6,142.2c-0.3,0.6-0.7,1.1-1.1,1.5s-0.9,0.6-1.5,0.6c-0.4,0-0.7-0.1-0.9-0.3c-0.2-0.2-0.3-0.4-0.3-0.7
			c0-0.1,0-0.2,0-0.3c0-0.1,0.1-0.3,0.1-0.5l0.6-1.9c0.1-0.4,0.2-0.7,0.2-0.9c0-0.1,0-0.2,0-0.3s-0.1-0.1-0.1-0.2
			c-0.1,0-0.1-0.1-0.2-0.1c-0.4,0-0.8,0.3-1.3,0.9c-0.5,0.6-0.8,1.2-1,1.7c-0.4,1-0.6,1.6-0.7,1.9l-0.1,0.5h-1.7l2.5-8.2
			c0.1-0.3,0.2-0.5,0.2-0.6c0-0.2-0.1-0.3-0.2-0.3c-0.1-0.1-0.3-0.1-0.6-0.1H189l0.2-0.7c1.2,0,2-0.1,2.5-0.2h0.5l-1.9,6.2
			c0.3-0.5,0.6-0.8,0.9-1.1s0.6-0.6,1-0.8c0.4-0.3,0.8-0.4,1.3-0.4c0.4,0,0.7,0.1,0.9,0.3c0.2,0.2,0.3,0.4,0.3,0.7
			c0,0.2-0.1,0.6-0.3,1.2l-0.7,2.4c-0.1,0.3-0.1,0.4-0.1,0.5c0,0.1,0,0.1,0,0.2s0.1,0.1,0.1,0.1c0.3,0,0.7-0.4,1.1-1.1H195.6z"/>
		<path fill="#FFFFFF" d="M202.6,135.5c0,0.4-0.1,0.8-0.4,1.3c-0.2,0.4-0.6,0.8-1.1,1.2s-1.1,0.5-1.8,0.6l0.2-0.7
			c0.8-0.2,1.3-0.4,1.7-0.8c0.3-0.4,0.5-0.7,0.5-0.9c0-0.1,0-0.1-0.1-0.2c0,0-0.1,0-0.2,0c-0.2,0-0.4-0.1-0.6-0.3s-0.3-0.4-0.3-0.7
			c0-0.3,0.1-0.5,0.3-0.7s0.4-0.3,0.7-0.3c0.4,0,0.6,0.1,0.8,0.4C202.5,134.7,202.6,135.1,202.6,135.5z"/>
		<path fill="#FFFFFF" d="M210.2,139.1c0,0.2-0.1,0.4-0.2,0.5s-0.3,0.2-0.5,0.2c-0.2,0-0.3,0-0.4-0.1c-0.1-0.1-0.2-0.2-0.2-0.3
			c-0.1-0.1-0.1-0.3-0.2-0.5c0-0.2-0.1-0.3-0.2-0.4c-0.1-0.1-0.3-0.1-0.6-0.1c-0.3,0-0.5,0.1-0.7,0.2c-0.2,0.1-0.3,0.3-0.3,0.5
			c0,0.1,0,0.3,0.1,0.4c0.1,0.1,0.2,0.3,0.3,0.4c0.1,0.1,0.3,0.3,0.6,0.5c0.5,0.4,0.8,0.7,1,1c0.2,0.3,0.3,0.6,0.3,1
			c0,0.3-0.1,0.6-0.3,0.9s-0.5,0.5-0.9,0.7s-1,0.3-1.6,0.3c-1,0-1.6-0.2-2-0.5c-0.4-0.4-0.6-0.7-0.6-1c0-0.2,0.1-0.4,0.2-0.6
			s0.4-0.2,0.6-0.2c0.5,0,0.8,0.3,0.9,1c0,0.3,0.1,0.5,0.2,0.6c0.1,0.2,0.4,0.2,0.7,0.2c0.3,0,0.6-0.1,0.8-0.2
			c0.2-0.2,0.3-0.4,0.3-0.6c0-0.1,0-0.3-0.1-0.4c-0.1-0.1-0.2-0.3-0.4-0.5c-0.4-0.3-0.7-0.6-1-0.9c-0.3-0.3-0.5-0.5-0.6-0.7
			s-0.2-0.5-0.2-0.7c0-0.2,0.1-0.5,0.2-0.7s0.4-0.5,0.9-0.7c0.4-0.2,1-0.3,1.7-0.3c0.4,0,0.8,0,1.1,0.1c0.3,0.1,0.5,0.2,0.7,0.3
			c0.2,0.1,0.3,0.3,0.3,0.4C210.2,138.8,210.2,139,210.2,139.1z"/>
		<path fill="#FFFFFF" d="M230.2,134.2l-0.2,0.7c-0.4,0-0.6,0.1-0.9,0.2s-0.4,0.3-0.5,0.5c-0.1,0.2-0.3,0.5-0.4,0.8l-1.2,4.2
			c-0.1,0.5-0.3,0.9-0.4,1.3s-0.4,0.8-0.7,1.1c-0.3,0.4-0.7,0.7-1.2,0.9c-0.5,0.2-1.1,0.4-1.9,0.4c-0.7,0-1.3-0.1-1.8-0.3
			s-0.9-0.5-1.2-0.8c-0.3-0.4-0.5-0.8-0.5-1.2c0-0.2,0-0.4,0.1-0.7c0-0.2,0.1-0.5,0.2-0.8l1.3-4.2c0.1-0.3,0.2-0.6,0.2-0.7
			c0-0.3-0.1-0.5-0.3-0.5c-0.2-0.1-0.4-0.1-0.7-0.1l0.2-0.7h4.5l-0.2,0.7c-0.3,0-0.6,0-0.8,0.1c-0.2,0-0.3,0.1-0.4,0.3
			c-0.1,0.1-0.2,0.4-0.3,0.7l-1.5,5c-0.1,0.5-0.2,0.9-0.2,1.1c0,0.4,0.2,0.8,0.5,1c0.4,0.3,0.8,0.4,1.3,0.4c0.5,0,1-0.1,1.3-0.3
			s0.7-0.5,0.9-0.8c0.2-0.3,0.4-0.6,0.5-0.9c0.1-0.3,0.2-0.6,0.3-0.9l1.2-4.4c0.1-0.2,0.1-0.4,0.1-0.5c0-0.4-0.1-0.6-0.4-0.7
			s-0.5-0.2-0.9-0.2l0.2-0.7H230.2z"/>
		<path fill="#FFFFFF" d="M234.7,142.3c-0.2,0.4-0.5,0.9-0.9,1.3s-0.9,0.7-1.5,0.7c-0.4,0-0.7-0.1-0.9-0.3c-0.2-0.2-0.3-0.4-0.3-0.7
			c0-0.3,0.1-0.7,0.3-1.2l0.9-2.6c0.1-0.2,0.1-0.4,0.1-0.5c0-0.1,0-0.1-0.1-0.1s-0.1-0.1-0.1-0.1c-0.2,0-0.3,0.1-0.5,0.4
			c-0.2,0.3-0.3,0.5-0.4,0.7h-0.6c0.3-0.6,0.7-1.1,1.1-1.5c0.5-0.4,0.9-0.5,1.4-0.5c0.3,0,0.6,0.1,0.8,0.2c0.2,0.2,0.3,0.4,0.3,0.6
			c0,0.3-0.1,0.6-0.2,0.8l-1.1,3.1c-0.1,0.2-0.1,0.4-0.1,0.5c0,0.1,0,0.1,0.1,0.2c0,0.1,0.1,0.1,0.2,0.1c0.1,0,0.3-0.1,0.5-0.2
			s0.4-0.4,0.6-0.9H234.7z M235.3,134.9c0,0.3-0.1,0.5-0.3,0.7c-0.2,0.2-0.4,0.3-0.7,0.3c-0.3,0-0.5-0.1-0.7-0.3
			c-0.2-0.2-0.3-0.4-0.3-0.7c0-0.3,0.1-0.5,0.3-0.7c0.2-0.2,0.4-0.3,0.7-0.3c0.2,0,0.3,0,0.5,0.1c0.1,0.1,0.3,0.2,0.3,0.3
			C235.2,134.6,235.3,134.8,235.3,134.9z"/>
		<path fill="#FFFFFF" d="M245.6,142.2c-0.1,0.3-0.3,0.5-0.6,0.8s-0.5,0.6-0.9,0.8c-0.4,0.2-0.8,0.4-1.2,0.4c-0.4,0-0.6-0.1-0.9-0.3
			c-0.2-0.2-0.3-0.4-0.3-0.7c0-0.2,0.1-0.5,0.2-0.9l0.5-1.8c0.2-0.5,0.2-0.8,0.2-1c0-0.1,0-0.2-0.1-0.3c-0.1-0.1-0.2-0.1-0.3-0.1
			c-0.3,0-0.6,0.2-1,0.7c-0.4,0.4-0.8,1-1.2,1.8c-0.4,0.8-0.7,1.6-1,2.5h-1.7l1.3-4.3c0.1-0.4,0.2-0.7,0.2-0.7c0-0.1,0-0.1,0-0.2
			c0-0.1-0.1-0.1-0.2-0.1c-0.2,0-0.4,0.1-0.5,0.4c-0.2,0.2-0.3,0.5-0.4,0.8h-0.6c0.2-0.5,0.5-1,0.9-1.4s0.9-0.6,1.5-0.6
			c0.4,0,0.7,0.1,0.9,0.3s0.3,0.4,0.3,0.7c0,0.1,0,0.3-0.1,0.6c-0.1,0.3-0.1,0.5-0.2,0.7l-0.3,0.8c0.6-0.9,1.2-1.7,1.7-2.2
			c0.5-0.5,1.1-0.8,1.8-0.8c0.4,0,0.6,0.1,0.8,0.3c0.2,0.2,0.3,0.5,0.3,0.7c0,0.2-0.1,0.5-0.2,0.9l-0.8,2.5
			c-0.1,0.3-0.1,0.5-0.1,0.7c0,0,0,0.1,0,0.1c0,0,0.1,0.1,0.1,0.1c0.1,0,0.3-0.1,0.5-0.3c0.2-0.2,0.4-0.4,0.6-0.8H245.6z"/>
		<path fill="#FFFFFF" d="M252.8,138.1l-0.2,0.7h-1.5l-1.1,3.6c-0.1,0.3-0.1,0.4-0.1,0.6c0,0.1,0,0.2,0.1,0.3
			c0.1,0.1,0.2,0.1,0.3,0.1c0.3,0,0.5-0.1,0.7-0.4c0.2-0.3,0.4-0.6,0.6-0.9h0.7c-0.3,0.6-0.6,1.1-0.9,1.4c-0.3,0.3-0.7,0.6-1,0.7
			c-0.3,0.1-0.6,0.2-0.8,0.2c-0.4,0-0.7-0.1-1-0.4c-0.2-0.2-0.4-0.6-0.4-1c0-0.3,0.1-0.7,0.2-1.1l1-3.1h-1.4l0.2-0.7h1.4l0.7-2.2
			h1.7l-0.7,2.2H252.8z"/>
		<path fill="#FFFFFF" d="M262.4,142.3c-0.1,0.3-0.3,0.6-0.5,0.8s-0.4,0.4-0.6,0.6s-0.4,0.3-0.6,0.4s-0.4,0.1-0.7,0.1
			c-0.5,0-0.8-0.2-1-0.5c-0.1-0.3-0.2-0.7-0.2-1.1c-0.4,0.5-0.8,0.8-1.2,1.1s-0.8,0.4-1.3,0.4c-0.3,0-0.5-0.1-0.7-0.2
			c-0.2-0.2-0.3-0.4-0.4-0.6s-0.1-0.6-0.1-0.9c0-0.7,0.2-1.4,0.5-2.1s0.8-1.3,1.4-1.8c0.6-0.5,1.2-0.7,1.9-0.7
			c0.3,0,0.5,0.1,0.7,0.2s0.3,0.3,0.4,0.4c0.1,0.2,0.1,0.3,0.2,0.5l0.3-0.9h1.6l-1.4,4.5c-0.1,0.3-0.1,0.5-0.1,0.6
			c0,0.1,0,0.1,0.1,0.2c0,0,0.1,0.1,0.1,0.1c0.3,0,0.7-0.3,1-1H262.4z M259.6,139.4c0-0.2,0-0.4-0.1-0.6s-0.3-0.3-0.5-0.3
			c-0.4,0-0.7,0.2-1.1,0.6c-0.3,0.4-0.6,0.9-0.8,1.5c-0.2,0.6-0.3,1.1-0.3,1.5c0,0.6,0.2,0.9,0.6,0.9c0.3,0,0.5-0.1,0.8-0.4
			c0.3-0.2,0.5-0.6,0.8-0.9c0.2-0.4,0.4-0.8,0.6-1.2S259.6,139.8,259.6,139.4z"/>
		<path fill="#FFFFFF" d="M285.7,134.2l-0.2,0.7c-0.4,0-0.7,0-0.9,0.1c-0.2,0.1-0.3,0.2-0.4,0.4c-0.1,0.2-0.2,0.5-0.3,0.9l-1.5,5.8
			c-0.1,0.3-0.1,0.5-0.1,0.7c0,0.3,0.1,0.4,0.3,0.5c0.2,0.1,0.5,0.1,0.9,0.1l-0.2,0.7h-4.6l0.2-0.7c0.4,0,0.6,0,0.8-0.1
			c0.2-0.1,0.3-0.2,0.4-0.3s0.2-0.4,0.3-0.7l1.7-6.9l-5.9,8.6h-0.9l-0.5-8.6l-2.5,6.5c-0.1,0.4-0.2,0.6-0.2,0.7
			c0,0.3,0.1,0.5,0.3,0.5c0.2,0.1,0.5,0.2,0.9,0.2l-0.2,0.7h-3.3l0.2-0.7c0.3,0,0.6-0.2,0.9-0.6c0.3-0.3,0.5-0.7,0.7-1.2l2.2-5.7
			c0.1-0.2,0.1-0.3,0.1-0.4c0-0.2-0.1-0.4-0.3-0.5s-0.4-0.2-0.8-0.2h-0.2l0.2-0.7h3.6l0.5,7.6l5.2-7.6H285.7z"/>
		<path fill="#FFFFFF" d="M293.7,140.5c0,0.5-0.1,1-0.3,1.4c-0.2,0.5-0.5,0.9-0.8,1.2c-0.4,0.4-0.8,0.7-1.3,0.9
			c-0.5,0.2-1,0.3-1.6,0.3c-0.6,0-1.1-0.1-1.5-0.3c-0.4-0.2-0.8-0.5-1-0.9c-0.2-0.4-0.4-0.9-0.4-1.4c0-0.7,0.2-1.3,0.5-1.9
			s0.9-1.1,1.5-1.4c0.6-0.3,1.3-0.5,2-0.5c0.6,0,1.1,0.1,1.6,0.4c0.4,0.2,0.8,0.6,1,0.9C293.6,139.6,293.7,140,293.7,140.5z
			 M291.9,140c0-0.5-0.1-0.8-0.3-1.1s-0.5-0.4-0.9-0.4c-0.4,0-0.7,0.1-1,0.4c-0.3,0.3-0.5,0.6-0.7,1c-0.2,0.4-0.3,0.8-0.4,1.2
			c-0.1,0.4-0.1,0.8-0.1,1.1c0,0.4,0.1,0.8,0.3,1c0.2,0.3,0.5,0.4,0.8,0.4c0.4,0,0.7-0.1,1-0.4c0.3-0.3,0.5-0.6,0.7-1
			c0.2-0.4,0.3-0.8,0.4-1.3C291.9,140.6,291.9,140.2,291.9,140z"/>
		<path fill="#FFFFFF" d="M304.7,142.2c-0.2,0.5-0.5,0.9-0.9,1.4c-0.4,0.4-0.9,0.7-1.5,0.7c-0.4,0-0.7-0.1-0.8-0.3
			c-0.2-0.2-0.2-0.5-0.2-0.7c0-0.1,0-0.3,0.1-0.5c0-0.2,0.1-0.4,0.2-0.7l0.2-0.8c-0.5,0.8-1.1,1.6-1.6,2.2c-0.6,0.6-1.2,0.9-1.8,0.9
			c-0.3,0-0.6-0.1-0.8-0.3s-0.3-0.4-0.3-0.7c0-0.3,0.1-0.6,0.2-1l0.7-2.4c0.1-0.3,0.1-0.5,0.1-0.6c0-0.1,0-0.1-0.1-0.2
			c0-0.1-0.1-0.1-0.2-0.1c-0.3,0-0.7,0.3-1.1,1h-0.7c0.3-0.5,0.7-1,1.1-1.4c0.4-0.4,0.9-0.6,1.5-0.6c0.3,0,0.5,0.1,0.8,0.2
			c0.2,0.1,0.3,0.4,0.3,0.8c0,0.2,0,0.5-0.1,0.6l-0.6,1.9c-0.1,0.4-0.2,0.8-0.2,1c0,0.1,0,0.2,0.1,0.3c0.1,0.1,0.2,0.1,0.3,0.1
			c0.2,0,0.5-0.2,0.8-0.5c0.3-0.3,0.7-0.9,1.1-1.6c0.4-0.7,0.8-1.7,1.2-2.8h1.7l-1.4,4.5c-0.1,0.3-0.1,0.5-0.1,0.6
			c0,0.1,0,0.1,0.1,0.2c0,0.1,0.1,0.1,0.1,0.1c0.2,0,0.4-0.1,0.5-0.4s0.3-0.5,0.4-0.8H304.7z"/>
		<path fill="#FFFFFF" d="M315.5,142.2c-0.1,0.3-0.3,0.5-0.6,0.8c-0.2,0.3-0.5,0.6-0.9,0.8c-0.4,0.2-0.7,0.4-1.2,0.4
			c-0.4,0-0.6-0.1-0.9-0.3s-0.3-0.4-0.3-0.7c0-0.2,0.1-0.5,0.2-0.9l0.5-1.8c0.2-0.5,0.2-0.8,0.2-1c0-0.1,0-0.2-0.1-0.3
			c-0.1-0.1-0.2-0.1-0.3-0.1c-0.3,0-0.6,0.2-1,0.7c-0.4,0.4-0.8,1-1.2,1.8c-0.4,0.8-0.7,1.6-1,2.5h-1.7l1.3-4.3
			c0.1-0.4,0.2-0.7,0.2-0.7c0-0.1,0-0.1,0-0.2c0-0.1-0.1-0.1-0.2-0.1c-0.2,0-0.4,0.1-0.5,0.4c-0.2,0.2-0.3,0.5-0.4,0.8h-0.6
			c0.2-0.5,0.5-1,0.9-1.4c0.4-0.4,0.9-0.6,1.5-0.6c0.4,0,0.7,0.1,0.9,0.3c0.2,0.2,0.3,0.4,0.3,0.7c0,0.1,0,0.3-0.1,0.6
			s-0.1,0.5-0.2,0.7l-0.3,0.8c0.6-0.9,1.2-1.7,1.7-2.2c0.5-0.5,1.1-0.8,1.8-0.8c0.4,0,0.7,0.1,0.8,0.3c0.2,0.2,0.3,0.5,0.3,0.7
			c0,0.2-0.1,0.5-0.2,0.9l-0.8,2.5c-0.1,0.3-0.1,0.5-0.1,0.7c0,0,0,0.1,0,0.1s0.1,0.1,0.1,0.1c0.1,0,0.3-0.1,0.5-0.3
			c0.2-0.2,0.4-0.4,0.6-0.8H315.5z"/>
		<path fill="#FFFFFF" d="M322.8,138.1l-0.2,0.7h-1.5l-1.1,3.6c-0.1,0.3-0.1,0.4-0.1,0.6c0,0.1,0,0.2,0.1,0.3
			c0.1,0.1,0.2,0.1,0.3,0.1c0.3,0,0.5-0.1,0.7-0.4c0.2-0.3,0.4-0.6,0.6-0.9h0.7c-0.3,0.6-0.6,1.1-0.9,1.4c-0.3,0.3-0.7,0.6-1,0.7
			c-0.3,0.1-0.6,0.2-0.8,0.2c-0.4,0-0.7-0.1-1-0.4c-0.2-0.2-0.4-0.6-0.4-1c0-0.3,0.1-0.7,0.2-1.1l1-3.1H318l0.2-0.7h1.4l0.7-2.2h1.7
			l-0.7,2.2H322.8z"/>
		<path fill="#FFFFFF" d="M332.3,142.3c-0.1,0.3-0.3,0.6-0.5,0.8s-0.4,0.4-0.6,0.6s-0.4,0.3-0.6,0.4c-0.2,0.1-0.4,0.1-0.7,0.1
			c-0.5,0-0.8-0.2-1-0.5c-0.1-0.3-0.2-0.7-0.2-1.1c-0.4,0.5-0.8,0.8-1.2,1.1s-0.8,0.4-1.3,0.4c-0.3,0-0.5-0.1-0.7-0.2
			c-0.2-0.2-0.3-0.4-0.4-0.6c-0.1-0.3-0.1-0.6-0.1-0.9c0-0.7,0.2-1.4,0.5-2.1s0.8-1.3,1.4-1.8c0.6-0.5,1.2-0.7,1.9-0.7
			c0.3,0,0.5,0.1,0.7,0.2s0.3,0.3,0.4,0.4c0.1,0.2,0.1,0.3,0.2,0.5l0.3-0.9h1.6l-1.4,4.5c-0.1,0.3-0.1,0.5-0.1,0.6
			c0,0.1,0,0.1,0.1,0.2c0,0,0.1,0.1,0.1,0.1c0.3,0,0.7-0.3,1-1H332.3z M329.6,139.4c0-0.2,0-0.4-0.1-0.6c-0.1-0.2-0.3-0.3-0.5-0.3
			c-0.4,0-0.7,0.2-1.1,0.6c-0.3,0.4-0.6,0.9-0.8,1.5c-0.2,0.6-0.3,1.1-0.3,1.5c0,0.6,0.2,0.9,0.6,0.9c0.3,0,0.5-0.1,0.8-0.4
			c0.3-0.2,0.5-0.6,0.8-0.9c0.2-0.4,0.4-0.8,0.6-1.2C329.5,140.1,329.6,139.8,329.6,139.4z"/>
		<path fill="#FFFFFF" d="M338.8,142.3c-0.2,0.4-0.5,0.9-0.9,1.3s-0.9,0.7-1.5,0.7c-0.4,0-0.7-0.1-0.9-0.3c-0.2-0.2-0.3-0.4-0.3-0.7
			c0-0.3,0.1-0.7,0.3-1.2l0.9-2.6c0.1-0.2,0.1-0.4,0.1-0.5c0-0.1,0-0.1-0.1-0.1s-0.1-0.1-0.1-0.1c-0.2,0-0.3,0.1-0.5,0.4
			c-0.2,0.3-0.3,0.5-0.4,0.7h-0.6c0.3-0.6,0.7-1.1,1.1-1.5c0.5-0.4,0.9-0.5,1.4-0.5c0.3,0,0.6,0.1,0.8,0.2c0.2,0.2,0.3,0.4,0.3,0.6
			c0,0.3-0.1,0.6-0.2,0.8l-1.1,3.1c-0.1,0.2-0.1,0.4-0.1,0.5c0,0.1,0,0.1,0.1,0.2c0,0.1,0.1,0.1,0.2,0.1c0.1,0,0.3-0.1,0.5-0.2
			s0.4-0.4,0.6-0.9H338.8z M339.4,134.9c0,0.3-0.1,0.5-0.3,0.7c-0.2,0.2-0.4,0.3-0.7,0.3c-0.3,0-0.5-0.1-0.7-0.3
			c-0.2-0.2-0.3-0.4-0.3-0.7c0-0.3,0.1-0.5,0.3-0.7c0.2-0.2,0.4-0.3,0.7-0.3c0.2,0,0.3,0,0.5,0.1c0.1,0.1,0.3,0.2,0.3,0.3
			C339.3,134.6,339.4,134.8,339.4,134.9z"/>
		<path fill="#FFFFFF" d="M349.7,142.2c-0.1,0.3-0.3,0.5-0.6,0.8c-0.2,0.3-0.5,0.6-0.9,0.8c-0.4,0.2-0.8,0.4-1.2,0.4
			c-0.4,0-0.6-0.1-0.9-0.3s-0.3-0.4-0.3-0.7c0-0.2,0.1-0.5,0.2-0.9l0.5-1.8c0.2-0.5,0.2-0.8,0.2-1c0-0.1,0-0.2-0.1-0.3
			c-0.1-0.1-0.2-0.1-0.3-0.1c-0.3,0-0.6,0.2-1,0.7c-0.4,0.4-0.8,1-1.2,1.8c-0.4,0.8-0.7,1.6-1,2.5h-1.7l1.3-4.3
			c0.1-0.4,0.2-0.7,0.2-0.7c0-0.1,0-0.1,0-0.2c0-0.1-0.1-0.1-0.2-0.1c-0.2,0-0.4,0.1-0.5,0.4c-0.2,0.2-0.3,0.5-0.4,0.8h-0.6
			c0.2-0.5,0.5-1,0.9-1.4c0.4-0.4,0.9-0.6,1.5-0.6c0.4,0,0.7,0.1,0.9,0.3c0.2,0.2,0.3,0.4,0.3,0.7c0,0.1,0,0.3-0.1,0.6
			s-0.1,0.5-0.2,0.7l-0.3,0.8c0.6-0.9,1.2-1.7,1.7-2.2c0.5-0.5,1.1-0.8,1.8-0.8c0.4,0,0.6,0.1,0.8,0.3c0.2,0.2,0.3,0.5,0.3,0.7
			c0,0.2-0.1,0.5-0.2,0.9l-0.8,2.5c-0.1,0.3-0.1,0.5-0.1,0.7c0,0,0,0.1,0,0.1c0,0,0.1,0.1,0.1,0.1c0.1,0,0.3-0.1,0.5-0.3
			c0.2-0.2,0.4-0.4,0.6-0.8H349.7z"/>
		<path fill="#FFFFFF" d="M358.5,139.1c0,0.2-0.1,0.4-0.2,0.5c-0.1,0.2-0.3,0.2-0.5,0.2c-0.2,0-0.3,0-0.4-0.1
			c-0.1-0.1-0.2-0.2-0.2-0.3c-0.1-0.1-0.1-0.3-0.2-0.5c0-0.2-0.1-0.3-0.2-0.4c-0.1-0.1-0.3-0.1-0.6-0.1c-0.3,0-0.5,0.1-0.7,0.2
			c-0.2,0.1-0.3,0.3-0.3,0.5c0,0.1,0,0.3,0.1,0.4c0.1,0.1,0.2,0.3,0.3,0.4c0.1,0.1,0.3,0.3,0.6,0.5c0.5,0.4,0.8,0.7,1,1
			c0.2,0.3,0.3,0.6,0.3,1c0,0.3-0.1,0.6-0.3,0.9s-0.5,0.5-0.9,0.7s-1,0.3-1.6,0.3c-1,0-1.6-0.2-2-0.5c-0.4-0.4-0.6-0.7-0.6-1
			c0-0.2,0.1-0.4,0.2-0.6s0.4-0.2,0.6-0.2c0.5,0,0.8,0.3,0.9,1c0,0.3,0.1,0.5,0.2,0.6c0.1,0.2,0.4,0.2,0.7,0.2
			c0.3,0,0.6-0.1,0.8-0.2c0.2-0.2,0.3-0.4,0.3-0.6c0-0.1,0-0.3-0.1-0.4c-0.1-0.1-0.2-0.3-0.4-0.5c-0.4-0.3-0.7-0.6-1-0.9
			c-0.3-0.3-0.5-0.5-0.6-0.7s-0.2-0.5-0.2-0.7c0-0.2,0.1-0.5,0.2-0.7s0.4-0.5,0.9-0.7c0.4-0.2,1-0.3,1.7-0.3c0.4,0,0.8,0,1.1,0.1
			c0.3,0.1,0.5,0.2,0.7,0.3c0.2,0.1,0.3,0.3,0.3,0.4C358.4,138.8,358.5,139,358.5,139.1z"/>
	</g>
</g>
</svg>
