<svg xmlns="http://www.w3.org/2000/svg" viewBox="0 0 48.5346256579741 48.5346256579744" height="4659.324" width="4659.324"><desc>Output from Flights of Ideas SVG Sketchup Plugin</desc><path d="M37.382 4.38l-.107-.082-.023-.018m3.212 2.48l-.675-.686-.723-.637m-4.063-2.08l.125.05.112.048m-.027-.01l-.124-.053-.085-.038m2.05.903l-.108-.048m-3.43-2.044l-.327-.08-.258-.065m.707.213l-.12-.064-.003-.003m7.465 4.996l-.268-.207-.25-.193m.84.82l-.164-.214-.158-.208m-5.31-3.81l.01.004.02.013m.074.04c-.688-.44-1.398-.832-2.137-1.18m4.694 41.483l1.273-1.203m.72-.68c9.258-7.782 10.32-23.104 2.7-32.355m1.088 1.8l.032.042.014.034M32.934 2.02C22.53-2.286 9.237 2.21 3.8 12.123m-.52.848c-9.353 15.05 4.77 37.635 22.55 35.1 4.445-.35 8.855-1.76 12.504-4.357M35.702 3.37l-.03-.017m1.178.617l-.125-.052-.115-.048m.385.212L36.888 4l-.037-.03m-.24-.1l-.834-.46m6.914 5.507l-1.387-1.332m1.723 1.89l-.174-.29-.162-.268m1.468 2.43l-.046-.075M40.44 6.854l.05.066m-.465-.526l.08.092m-4.862-3.033l-.027-.005M40.41 6.83l.03.024m-2.565-2.152l-.038-.018m-.57-.397l.108.082.073.054m.297.198l.115.07.015.01m1.192.734c-.65-.517-1.337-.965-2.072-1.354m.258.2l.015.005m-.32-.077l.072.024m3.086 2.252l.09.1v.002l.068.078m-.657 35.844c.378.52 1.206-.272.723-.68M3.8 12.123c-.502-.4-1.09.58-.52.848" fill="none" stroke="#00f" stroke-width=".039" stroke-linecap="round" stroke-linejoin="round"/><path stroke-linecap="round" stroke-linejoin="round" stroke-width=".039" stroke="#F00" fill="none" d="M37.055 4.257l.24.157.275.137-.186-.147-.33-.145"/><path stroke-linecap="round" stroke-linejoin="round" stroke-width=".039" stroke="#F00" fill="none" d="M37.495 4.47l-.267-.166-.208-.07.035.023m.515.295l.09.043-.165-.126"/><path stroke-linecap="round" stroke-linejoin="round" stroke-width=".039" stroke="#F00" fill="none" d="M37.66 4.595l.03.017-.145-.112-.05-.03M37.692 4.612l.145.072-.092-.062-.2-.122M40.642 7.016L40.622 7l.178.267.147.164-.305-.413M40.098 6.48l-.366-.283.532.47-.166-.187M41.065 7.665l.42.635-.12-.245-.3-.39M40.014 6.386l-.51-.39.228.2m.366.284l-.084-.094M39.53 5.88l-.613-.402.587.518m.51.39l-.248-.278-.237-.228M39.53 5.88l-.244-.233-.725-.482.358.313M37.065 4.204l.163.1.078.026.076.05m-.13-.1l-.187-.076"/><path stroke-linecap="round" stroke-linejoin="round" stroke-width=".039" stroke="#F00" fill="none" d="M39.067 5.436l.22.21.193.13.33.373.57.547.084.064M39.41 5.648"/><path d="M37.984 34.448c4.43-3.496 8.01-8.798 7.758-14.638.068-4.318-1.414-8.718-4.38-11.9 5.86 6.64 4.266 18.075-2.878 23.16-5.206 3.83-12.694 3.84-18.068.34-4.958-2.98-7.92-8.925-7.2-14.682.603-6.427 5.24-12.59 11.7-13.993 3.312-.868 6.935-.773 10.09.62m.24.1C28.565-.208 19.82 1.974 14.71 7.336c-5.52 5.684-6.308 15.14-2.042 21.773 2.83 4.67 7.94 7.786 13.37 8.254 4.156.436 8.487-.54 11.945-2.916" fill="none" stroke="red" stroke-width=".039" stroke-linecap="round" stroke-linejoin="round"/><path d="M37.316 28.536c2.814-2.22 5.692-4.9 6.424-8.567 1.05-4.05.307-8.64-2.375-11.915m.12.245C45.46 13.8 43.232 22.658 37 25.455c-5.76 3.234-13.853.307-16.385-5.75-1.576-3.652-1.204-8.02.78-11.442 2.11-2.398 4.695-4.73 7.995-5.147 1.93-.356 3.948-.253 5.825.33m-.21-.092C28.727.86 20.71 3.956 17.997 10.206c-3.015 4.968-1.663 11.683 2.183 15.814 4.21 4.672 11.742 5.582 17.137 2.515" fill="none" stroke="red" stroke-width=".039" stroke-linecap="round" stroke-linejoin="round"/><path stroke-linecap="round" stroke-linejoin="round" stroke-width=".039" stroke="#F00" fill="none" d="M40.8 7.267l.02.028.166.19m-.04-.054M38.41 5.032l.15.133m.506.272l-.656-.405M36.947 4.21l-.202-.07.55.273M41.065 7.665l-.246-.37-.315-.355.56.725M36.82 4.102l.245.102-.728-.448-.128-.054M38.28 5.06l1.224.936m-.587-.518l-.638-.418M40.986 7.485l.297.405m-.077-.156"/><path d="M17.884 10.105l-.114-.065-.092-.092-.066-.113-.034-.126v-.13l.034-.128.065-.114.092-.093.11-.065.127-.035h.13l.126.034.066.04m-2.907.543l.04.015.105.078.08.103.05.12.02.13-.017.13-.05.12-.077.104-.103.08-.12.05-.13.02-.13-.017-.074-.03M38.48 21.61c4.034-2.865 5.9-9.02 3.005-13.308m-.98-1.362c.334-.363-1.217-.407-.772-.743m.28.19c-.067-.08-.136-.16-.204-.238m-1.25-.985c-.24-.16-.482-.32-.723-.482m-.092-.062l-.363-.24m-.637-.238C33.25 2.235 28.83 3.56 26.14 6.258c-2.73 2.557-4.33 6.763-2.797 10.36 1.41 3.397 4.582 5.988 8.234 6.55 2.386.415 4.963-.055 6.902-1.555m1.048-15.73l.236.228" fill="none" stroke="red" stroke-width=".039" stroke-linecap="round" stroke-linejoin="round"/><path stroke-linecap="round" stroke-linejoin="round" stroke-width=".039" stroke="#F00" fill="none" d="M37.446 4.424l.1.076M35.244 3.454l.68.28m-.485-.24M40.23 6.582l.13.17.234.205.03.044m1.964 2.274L41.56 7.928l-.94-.994-.24-.234-.15-.116M37.253 4.28l-.258-.197-.385-.212-.273-.113M32.932 2.02l.707.213M40.464 6.763l.16.17.68.652M33.64 2.232l2.032 1.12m.03.017l.074.04m-1.702-1.05"/><path d="M39.607 42.51c-.26-.408.33-.968.72-.68m2.7-32.357l1.088 1.8m.045.077c5.16 6.308 4.708 16.133-.435 22.315-5.68 7.84-15.928 12.83-25.607 10.645-6.496-1.705-11.04-7.53-13.238-13.613-3.622-10.9 2.237-23.787 12.436-28.8 4.862-2.426 10.805-2.44 15.616.123M3.8 12.124c.355.328-.067 1.02-.52.848" fill="none" stroke="red" stroke-width=".039" stroke-linecap="round" stroke-linejoin="round"/><path stroke-linecap="round" stroke-linejoin="round" stroke-width=".039" stroke="#F00" fill="none" d="M41.564 7.926l-.26-.34M37.495 4.47l-.113-.09m-.154-.076M35.672 3.353l-1.412-.466m1.95.815l-.51-.332M42.78 9.525l-.04-.085-.15-.168M38.28 5.06l-.124-.08M35.776 3.41l.56.346m.274.114M41.563 7.925l1.463 1.55"/><path d="M24.53 7.995l-.55.826m16.527-1.88l-.016-.02-.08-.09m-2.54-2.038l-.575-.378" fill="none" stroke="red" stroke-width=".039" stroke-linecap="round" stroke-linejoin="round"/><path stroke-linecap="round" stroke-linejoin="round" stroke-width=".039" stroke="#F00" fill="none" d="M39.766 6.108l.043.04m-.202-.214M42.78 9.525l1.333 1.75m-1.088-1.8"/><path d="M36.732 38.61c9.06-5.213 12.927-18.187 7.426-27.262M40.11 32.55c.5.4-.4 1.193-.74.66M11.99 11.223c-.586-.26.077-1.256.545-.836M34.26 2.89C27.942-.535 19.823 1.32 14.624 5.96c-5.674 4.674-9.387 12.4-7.687 19.79 2.8 10.34 14.343 17.59 24.855 14.987 1.75-.43 3.433-1.137 4.94-2.126" fill="none" stroke="red" stroke-width=".039" stroke-linecap="round" stroke-linejoin="round"/><path stroke-linecap="round" stroke-linejoin="round" stroke-width=".039" stroke="#F00" fill="none" d="M40.49 6.92l.31.347M40.623 7l-.184-.147M38.28 5.06l-.588-.448m-.033-.017l.496.385M39.548 39.524l-.08-.1-.054-.12-.02-.128.014-.13.047-.122.077-.106.1-.08.12-.054.13-.02.13.013.12.047.107.077v.004m-.02-2.85l.008.01.062.114.03.127-.004.13-.037.126-.07.113-.095.09-.115.06-.126.032-.13-.004-.126-.036-.11-.07-.082-.085M9.24 11.83l-.113-.065-.092-.092-.065-.113-.033-.127v-.13l.035-.126.065-.114.093-.092.113-.065.126-.034h.13l.125.035.07.04m-2.955.57l.105.078.08.102.054.12.017.128-.014.13-.048.122-.077.105-.103.08-.12.053-.13.02-.13-.014-.12-.048M40.172 6.506l-.147-.112m.08.092l.125.096-.058-.076M37.87 4.792l-.3-.24m-.275-.138M35.923 3.733l.454.226.368.18m3.66 2.688l-.102-.116-.037-.042h-.003M35.216 3.448l1.16.51"/><path stroke-linecap="round" stroke-linejoin="round" stroke-width=".039" stroke="#F00" fill="none" d="M40.44 6.853l-.08-.102-.093-.08m.143.16M37.875 4.702l.535.33-.165-.146-.37-.184M36.947 4.21l-.57-.25M36.82 4.103l.2.13m.045-.03M41.283 7.89l.082.165"/><path d="M23.984 8.82l-.044-.027-.09-.096-.06-.115-.03-.127.004-.13.04-.125.068-.11.096-.09.115-.06.127-.03.13.004.125.04.067.04m-3.152.59l.064.033.097.087.07.11.04.124.007.13-.028.128-.06.117-.088.096-.11.07-.123.04-.13.006-.13-.027-.052-.028" fill="none" stroke="red" stroke-width=".039" stroke-linecap="round" stroke-linejoin="round"/><path stroke-linecap="round" stroke-linejoin="round" stroke-width=".039" stroke="#F00" fill="none" d="M39.607 42.51l.72-.68m-.766.632M40.24 38.803l-.692.72m.772-.62M40.22 35.954l-.794.604m.804-.594M21.378 8.583l-.44.888m.505-.854M40.11 32.55l-.74.66m.776-.623M18.154 9.45l.176-.23m-.447.882l.27-.655M15.406 9.782l-.39.886m.406-.904l-.016.02M12.535 10.388l-.546.833m.63-.76M9.505 11.197l-.265.634m.456-.88l-.19.247M3.8 12.123l-.52.848m.61-.78M6.74 11.518l-.483.876m.588-.798"/></svg>