<?xml version="1.0" encoding="utf-8"?>
<!-- Generator: Adobe Illustrator 16.0.0, SVG Export Plug-In . SVG Version: 6.00 Build 0)  -->
<!DOCTYPE svg PUBLIC "-//W3C//DTD SVG 1.1//EN" "http://www.w3.org/Graphics/SVG/1.1/DTD/svg11.dtd">
<svg version="1.1" id="Layer_1" xmlns="http://www.w3.org/2000/svg" xmlns:xlink="http://www.w3.org/1999/xlink" x="0px" y="0px"
	 width="1024px" height="768px" viewBox="0 0 1024 768" enable-background="new 0 0 1024 768" xml:space="preserve">
<rect fill="#093F56" width="1024" height="768"/>
<path fill="#FFFFFF" d="M471.621,0c0,0-113.462,210.639-191.02,308.596C203.043,406.553,0.119,584.584,0.119,584.584L0,768h1024V0
	H471.621z"/>
<path fill="#0073A2" d="M480.5,0c0,0-121.902,224.6-174.4,298.096C253.602,371.592,0.116,589,0.116,589L0,768h1024V0H480.5z"/>
<g opacity="0.4">
	<path fill="#FFFFFF" d="M943.469,724.629c-2.918,0.204-6.379,0.271-10.449,0.271h-4.955c-6.717,0-13.368-0.067-19.813-0.271
		l-0.137-2.375c-0.475-9.567,1.289-16.762,5.155-21.512c1.97-2.375,5.701-4.888,11.267-7.602c4.141-1.968,6.244-4.343,6.244-7.126
		c0-3.053-2.851-5.155-7.396-5.155c-4.141,0-7.805,1.629-10.926,4.817l-3.396-11.062c3.326-3.324,8.483-4.954,15.609-4.954
		c5.768,0,10.246,1.426,13.436,4.275c3.461,3.055,5.156,7.532,5.156,13.504c0,4.207-1.424,7.669-4.207,10.383
		c-1.832,1.694-5.089,3.732-9.771,5.972c-2.578,1.289-4.342,2.442-5.226,3.528c-1.221,1.426-1.764,3.526-1.561,6.176
		c9.297,0,16.557-1.086,21.716-3.189c0.202,1.561,0.271,3.324,0.271,5.291C944.486,719.133,944.146,722.117,943.469,724.629z"/>
</g>
<g opacity="0.4">
	<path fill="#FFFFFF" d="M967.471,724.596c-3.869,0-8.145-0.679-12.824-2.038l2.714-10.246c3.323,1.696,6.784,2.579,10.519,2.579
		c7.057,0,10.585-2.646,10.585-7.87c0-1.902-0.746-3.599-2.307-5.022c-1.427-1.29-3.121-2.239-5.226-2.782
		c-1.899-0.475-3.801-0.746-5.769-0.746c-0.341-0.205-0.476-0.34-0.407-0.405c4.344-6.584,7.668-12.353,9.906-17.17
		c-2.305-0.34-4.273-0.476-5.971-0.476c-4.275,0-8.687,1.02-13.164,3.055c-0.068-2.579-0.137-3.937-0.137-4.071
		c0-2.782,0.34-5.496,1.088-8.279c2.51-0.745,6.24-1.154,11.127-1.154h24.021c-0.883,3.734-2.51,7.67-4.954,11.944l-6.648,10.993
		c8.347,2.172,12.485,7.26,12.485,15.2C992.51,719.096,984.162,724.596,967.471,724.596z"/>
</g>
<g opacity="0.4">
	<path fill="#FFFFFF" d="M898.639,716.486c0.066,1.289-0.069,2.715-0.272,4.343l-0.609,4.343c-5.633,0.476-13.028,0.678-22.26,0.678
		h-3.937c-3.121,0-5.836-0.34-8.211-0.948c-0.678-2.578-1.018-5.227-1.018-7.871c0-1.29,0.136-2.647,0.34-4.004
		c1.967-0.068,6.106,0.203,12.282,0.813c0.204-1.696,0.271-2.716,0.271-2.919c0-1.562-0.136-3.8-0.476-6.854
		c-0.271-3.054-0.406-5.36-0.406-6.921c0-3.462,0.406-6.854,1.222-10.042c-2.308,1.49-4.207,2.713-5.699,3.596l-5.022-10.179
		c6.786-2.919,12.352-6.854,16.763-11.81l7.603,5.497c-1.969,3.256-2.986,7.328-2.986,12.283c0,2.918,0.271,7.531,0.882,13.707
		c0.543,5.971,0.813,10.586,0.746,13.774c2.239-0.067,5.769-0.271,10.588-0.61L898.639,716.486z"/>
</g>
</svg>
