<?xml version="1.0" encoding="utf-8"?>
<!-- Generator: Adobe Illustrator 19.2.1, SVG Export Plug-In . SVG Version: 6.00 Build 0)  -->
<svg version="1.1" xmlns="http://www.w3.org/2000/svg" xmlns:xlink="http://www.w3.org/1999/xlink" x="0px" y="0px"
	 viewBox="0 0 638 208" style="enable-background:new 0 0 638 208;" xml:space="preserve">
<style type="text/css">
	.st0{fill:#AA3B19;}
	.st1{opacity:0.5;}
	.st2{fill:#FFFFFF;}
	.st3{fill:none;stroke:#FFFFFF;stroke-miterlimit:10;}
	.st4{opacity:0.25;fill:#FFFFFF;}
</style>
<g id="Layer_3">
	<rect x="-3" y="-2" class="st0" width="642" height="213"/>
</g>
<g id="SEO">
	<g class="st1">
		<path class="st2" d="M410.1,88.2h-18.7c-0.3,0-0.6-0.2-0.6-0.5c0-0.3,0.3-0.5,0.6-0.5h18.7c0.3,0,0.6,0.2,0.6,0.5
			C410.7,87.9,410.4,88.2,410.1,88.2z"/>
	</g>
	<g class="st1">
		<path class="st2" d="M518.7,87.3h-23.1c-0.4,0-0.7-0.2-0.7-0.5c0-0.3,0.3-0.5,0.7-0.5h23.1c0.4,0,0.7,0.2,0.7,0.5
			C519.5,87.1,519.1,87.3,518.7,87.3z"/>
	</g>
	<g class="st1">
		<path class="st2" d="M544.6,156.5H533c-0.2,0-0.4-0.2-0.4-0.5c0-0.3,0.2-0.5,0.4-0.5h11.6c0.2,0,0.4,0.2,0.4,0.5
			C544.9,156.3,544.8,156.5,544.6,156.5z"/>
	</g>
	<g class="st1">
		<path class="st2" d="M588,156.5h-34.3c-0.6,0-1.1-0.2-1.1-0.5c0-0.3,0.5-0.5,1.1-0.5H588c0.6,0,1.1,0.2,1.1,0.5
			C589.1,156.3,588.6,156.5,588,156.5z"/>
	</g>
	<g class="st1">
		<path class="st2" d="M551,156.5h-4.2c-0.1,0-0.1-0.2-0.1-0.5c0-0.3,0.1-0.5,0.1-0.5h4.2c0.1,0,0.1,0.2,0.1,0.5
			C551.1,156.3,551,156.5,551,156.5z"/>
	</g>
	<g>
		<path class="st2" d="M519.1,60.9h-11.6c-0.2,0-0.4-0.2-0.4-0.5c0-0.3,0.2-0.5,0.4-0.5h11.6c0.2,0,0.4,0.2,0.4,0.5
			C519.5,60.6,519.3,60.9,519.1,60.9z"/>
	</g>
	<g>
		<path class="st2" d="M541.9,163.1h32c0.6,0,1-0.2,1-0.5c0-0.3-0.4-0.5-1-0.5h-32c-0.6,0-1,0.2-1,0.5
			C540.9,162.9,541.3,163.1,541.9,163.1z"/>
	</g>
	<g class="st1">
		<path class="st2" d="M544.7,67.7h24.4c0.4,0,0.8-0.2,0.8-0.5c0-0.3-0.3-0.5-0.8-0.5h-24.4c-0.4,0-0.8,0.2-0.8,0.5
			C543.9,67.4,544.3,67.7,544.7,67.7z"/>
	</g>
	<g>
		<path class="st2" d="M530.6,124.7h24.4c0.4,0,0.8-0.2,0.8-0.5c0-0.3-0.3-0.5-0.8-0.5h-24.4c-0.4,0-0.8,0.2-0.8,0.5
			C529.9,124.4,530.2,124.7,530.6,124.7z"/>
	</g>
	<g class="st1">
		<path class="st2" d="M583.5,130h8.9c0.2,0,0.3-0.2,0.3-0.5c0-0.3-0.1-0.5-0.3-0.5h-8.9c-0.2,0-0.3,0.2-0.3,0.5
			C583.2,129.8,583.3,130,583.5,130z"/>
	</g>
	<g class="st1">
		<path class="st2" d="M597.3,130h29.3c0.5,0,0.9-0.2,0.9-0.5c0-0.3-0.4-0.5-0.9-0.5h-29.3c-0.5,0-0.9,0.2-0.9,0.5
			C596.4,129.8,596.8,130,597.3,130z"/>
	</g>
	<g>
		<path class="st2" d="M549,108.2h-17.9c-0.3,0-0.6-0.2-0.6-0.5c0-0.3,0.3-0.5,0.6-0.5H549c0.3,0,0.6,0.2,0.6,0.5
			C549.6,107.9,549.3,108.2,549,108.2z"/>
	</g>
	<g>
		<path class="st2" d="M601.2,107.4h-15.3c-0.3,0-0.5-0.2-0.5-0.5c0-0.3,0.2-0.5,0.5-0.5h15.3c0.3,0,0.5,0.2,0.5,0.5
			C601.7,107.2,601.4,107.4,601.2,107.4z"/>
	</g>
	<g>
		<path class="st2" d="M591.7,111.1h25.7c0.4,0,0.8-0.2,0.8-0.5c0-0.3-0.4-0.5-0.8-0.5h-25.7c-0.4,0-0.8,0.2-0.8,0.5
			C590.9,110.9,591.2,111.1,591.7,111.1z"/>
	</g>
	<g>
		<path class="st2" d="M597.7,94.7h-36c-0.6,0-1.1-0.2-1.1-0.5c0-0.3,0.5-0.5,1.1-0.5h36c0.6,0,1.1,0.2,1.1,0.5
			C598.9,94.5,598.3,94.7,597.7,94.7z"/>
	</g>
	<g>
		<path class="st2" d="M300,146.3h-27.3c-0.5,0-0.9-0.2-0.9-0.5c0-0.3,0.4-0.5,0.9-0.5H300c0.5,0,0.9,0.2,0.9,0.5
			C300.9,146.1,300.5,146.3,300,146.3z"/>
	</g>
	<g>
		<path class="st2" d="M316.9,110.4h-27.6c-0.5,0-0.9-0.2-0.9-0.5c0-0.3,0.4-0.5,0.9-0.5h27.6c0.5,0,0.9,0.2,0.9,0.5
			C317.8,110.2,317.4,110.4,316.9,110.4z"/>
	</g>
	<g>
		<path class="st2" d="M321,110.4h19.5c0.3,0,0.6-0.2,0.6-0.5c0-0.3-0.3-0.5-0.6-0.5H321c-0.3,0-0.6,0.2-0.6,0.5
			C320.4,110.2,320.7,110.4,321,110.4z"/>
	</g>
	<g>
		<path class="st2" d="M347.8,165.4h-19.5c-0.3,0-0.6-0.2-0.6-0.5c0-0.3,0.3-0.5,0.6-0.5h19.5c0.3,0,0.6,0.2,0.6,0.5
			C348.4,165.2,348.1,165.4,347.8,165.4z"/>
	</g>
	<g class="st1">
		<path class="st2" d="M335.6,126.6h-11.4c-0.2,0-0.4-0.2-0.4-0.5c0-0.3,0.2-0.5,0.4-0.5h11.4c0.2,0,0.4,0.2,0.4,0.5
			C335.9,126.4,335.8,126.6,335.6,126.6z"/>
	</g>
	<g class="st1">
		<path class="st2" d="M349.7,126.6h-11.4c-0.2,0-0.4-0.2-0.4-0.5c0-0.3,0.2-0.5,0.4-0.5h11.4c0.2,0,0.4,0.2,0.4,0.5
			C350.1,126.4,349.9,126.6,349.7,126.6z"/>
	</g>
	<g>
		<path class="st2" d="M361,70.3h-12c-0.2,0-0.4-0.2-0.4-0.5c0-0.3,0.2-0.5,0.4-0.5h12c0.2,0,0.4,0.2,0.4,0.5
			C361.4,70.1,361.2,70.3,361,70.3z"/>
	</g>
	<g>
		<path class="st2" d="M434.9,59.9h-25.4c-0.4,0-0.8-0.2-0.8-0.5c0-0.3,0.4-0.5,0.8-0.5h25.4c0.4,0,0.8,0.2,0.8,0.5
			C435.7,59.7,435.3,59.9,434.9,59.9z"/>
	</g>
	<g>
		<path class="st2" d="M504,82h-25.4c-0.4,0-0.8-0.2-0.8-0.5c0-0.3,0.4-0.5,0.8-0.5H504c0.4,0,0.8,0.2,0.8,0.5
			C504.8,81.8,504.5,82,504,82z"/>
	</g>
	<g class="st1">
		<path class="st2" d="M471.7,65h-32.1c-0.6,0-1-0.2-1-0.5c0-0.3,0.5-0.5,1-0.5h32.1c0.6,0,1,0.2,1,0.5
			C472.7,64.8,472.3,65,471.7,65z"/>
	</g>
	<g>
		<path class="st2" d="M437.4,59.9h7.6c0.1,0,0.2-0.2,0.2-0.5c0-0.3-0.1-0.5-0.2-0.5h-7.6c-0.1,0-0.2,0.2-0.2,0.5
			C437.2,59.7,437.3,59.9,437.4,59.9z"/>
	</g>
	<g>
		<path class="st2" d="M447.4,59.9h7.6c0.1,0,0.2-0.2,0.2-0.5c0-0.3-0.1-0.5-0.2-0.5h-7.6c-0.1,0-0.2,0.2-0.2,0.5
			C447.2,59.7,447.3,59.9,447.4,59.9z"/>
	</g>
	<g>
		<path class="st2" d="M346.3,70.3h-8.4c-0.1,0-0.3-0.2-0.3-0.5c0-0.3,0.1-0.5,0.3-0.5h8.4c0.1,0,0.3,0.2,0.3,0.5
			C346.6,70.1,346.5,70.3,346.3,70.3z"/>
	</g>
	<g class="st1">
		<path class="st2" d="M312.7,86h-25.2c-0.4,0-0.8-0.2-0.8-0.5c0-0.3,0.4-0.5,0.8-0.5h25.2c0.4,0,0.8,0.2,0.8,0.5
			C313.5,85.8,313.1,86,312.7,86z"/>
	</g>
	<g>
		<path class="st2" d="M334.9,70.3h-23.4c-0.4,0-0.7-0.2-0.7-0.5c0-0.3,0.3-0.5,0.7-0.5h23.4c0.4,0,0.7,0.2,0.7,0.5
			C335.6,70.1,335.3,70.3,334.9,70.3z"/>
	</g>
	<g class="st1">
		<path class="st2" d="M371.8,88.2h14.3c0.2,0,0.5-0.2,0.5-0.5c0-0.3-0.2-0.5-0.5-0.5h-14.3c-0.2,0-0.5,0.2-0.5,0.5
			C371.4,87.9,371.6,88.2,371.8,88.2z"/>
	</g>
	<g>
		<path class="st2" d="M490.7,78.4c-5.9,0-10.7-4.8-10.7-10.7c0-5.9,4.8-10.7,10.7-10.7c5.9,0,10.7,4.8,10.7,10.7
			C501.4,73.6,496.6,78.4,490.7,78.4z M490.7,58.3c-5.2,0-9.5,4.2-9.5,9.5c0,5.2,4.2,9.5,9.5,9.5c5.2,0,9.5-4.2,9.5-9.5
			C500.2,62.5,495.9,58.3,490.7,58.3z"/>
	</g>
	<g>
		<path class="st2" d="M490.7,58.3c-0.3,0-0.6-0.3-0.6-0.6v-2.5c0-0.3,0.3-0.6,0.6-0.6c0.3,0,0.6,0.3,0.6,0.6v2.5
			C491.3,58,491.1,58.3,490.7,58.3z"/>
	</g>
	<g>
		<path class="st2" d="M492.4,56.3H489c-1,0-1.8-0.8-1.8-1.8c0-1,0.8-1.8,1.8-1.8h3.4c1,0,1.8,0.8,1.8,1.8
			C494.3,55.5,493.4,56.3,492.4,56.3z M489,53.8c-0.4,0-0.6,0.3-0.6,0.6c0,0.4,0.3,0.6,0.6,0.6h3.4c0.4,0,0.6-0.3,0.6-0.6
			c0-0.4-0.3-0.6-0.6-0.6H489z"/>
	</g>
	<g>
		<path class="st2" d="M490.7,76.7c-4.9,0-8.9-4-8.9-8.9c0-4.9,4-8.9,8.9-8.9c4.9,0,8.9,4,8.9,8.9C499.7,72.7,495.7,76.7,490.7,76.7
			z M490.7,60c-4.3,0-7.7,3.5-7.7,7.7s3.5,7.7,7.7,7.7c4.3,0,7.7-3.5,7.7-7.7S495,60,490.7,60z"/>
	</g>
	<g>
		<path class="st2" d="M490.7,63.8L490.7,63.8c-0.3,0-0.6-0.3-0.6-0.6l0-2.3c0-0.3,0.3-0.6,0.6-0.6l0,0c0.3,0,0.6,0.3,0.6,0.6v2.3
			C491.3,63.6,491.1,63.8,490.7,63.8z"/>
	</g>
	<g>
		<path class="st2" d="M494.7,64.4c-0.2,0-0.3-0.1-0.4-0.2c-0.2-0.2-0.2-0.6,0-0.9l0.8-0.8c0.2-0.2,0.6-0.2,0.9,0
			c0.2,0.2,0.2,0.6,0,0.9l-0.8,0.8C495,64.3,494.9,64.4,494.7,64.4z"/>
	</g>
	<g>
		<path class="st2" d="M497.5,68.4L497.5,68.4l-2.3,0c-0.3,0-0.6-0.3-0.6-0.6c0-0.3,0.3-0.6,0.6-0.6l0,0l2.3,0
			c0.3,0,0.6,0.3,0.6,0.6C498.1,68.1,497.9,68.4,497.5,68.4z"/>
	</g>
	<g>
		<path class="st2" d="M495.5,73.2c-0.2,0-0.3-0.1-0.4-0.2l-0.8-0.8c-0.2-0.2-0.2-0.6,0-0.9c0.2-0.2,0.6-0.2,0.9,0l0.8,0.8
			c0.2,0.2,0.2,0.6,0,0.9C495.8,73.1,495.7,73.2,495.5,73.2z"/>
	</g>
	<g>
		<path class="st2" d="M490.7,75.2c-0.3,0-0.6-0.3-0.6-0.6l0-2.3c0-0.3,0.3-0.6,0.6-0.6h0c0.3,0,0.6,0.3,0.6,0.6l0,2.3
			C491.3,74.9,491.1,75.2,490.7,75.2z"/>
	</g>
	<g>
		<path class="st2" d="M485.9,73.2c-0.2,0-0.3-0.1-0.4-0.2c-0.2-0.2-0.2-0.6,0-0.9l0.9-0.9c0.2-0.2,0.6-0.2,0.9,0
			c0.2,0.2,0.2,0.6,0,0.9l-0.9,0.9C486.2,73.1,486.1,73.2,485.9,73.2z"/>
	</g>
	<g>
		<path class="st2" d="M486.2,68.3L486.2,68.3l-2.3,0c-0.3,0-0.6-0.3-0.6-0.6c0-0.3,0.3-0.6,0.6-0.6c0,0,0,0,0,0l2.3,0
			c0.3,0,0.6,0.3,0.6,0.6C486.8,68.1,486.5,68.3,486.2,68.3z"/>
	</g>
	<g>
		<path class="st2" d="M486.8,64.4c-0.2,0-0.3-0.1-0.4-0.2l-0.9-0.9c-0.2-0.2-0.2-0.6,0-0.9c0.2-0.2,0.6-0.2,0.9,0l0.9,0.9
			c0.2,0.2,0.2,0.6,0,0.9C487.1,64.4,487,64.4,486.8,64.4z"/>
	</g>
	<g class="st1">
		<path class="st2" d="M365.9,89.5c-1,0-1.7-0.8-1.7-1.7c0-1,0.8-1.7,1.7-1.7c1,0,1.7,0.8,1.7,1.7C367.7,88.7,366.9,89.5,365.9,89.5
			z M365.9,87c-0.4,0-0.7,0.3-0.7,0.7c0,0.4,0.3,0.7,0.7,0.7c0.4,0,0.7-0.3,0.7-0.7C366.7,87.4,366.3,87,365.9,87z"/>
	</g>
	<g>
		<path class="st2" d="M466.8,74.9c-1,0-1.7-0.8-1.7-1.7c0-1,0.8-1.7,1.7-1.7c1,0,1.7,0.8,1.7,1.7C468.6,74.1,467.8,74.9,466.8,74.9
			z M466.8,72.4c-0.4,0-0.7,0.3-0.7,0.7c0,0.4,0.3,0.7,0.7,0.7c0.4,0,0.7-0.3,0.7-0.7C467.6,72.8,467.3,72.4,466.8,72.4z"/>
	</g>
	<g>
		<path class="st2" d="M557.9,139.7c-1,0-1.7-0.8-1.7-1.7c0-1,0.8-1.7,1.7-1.7c1,0,1.7,0.8,1.7,1.7
			C559.6,138.9,558.8,139.7,557.9,139.7z M557.9,137.2c-0.4,0-0.7,0.3-0.7,0.7c0,0.4,0.3,0.7,0.7,0.7c0.4,0,0.7-0.3,0.7-0.7
			C558.6,137.5,558.3,137.2,557.9,137.2z"/>
	</g>
	<g>
		<path class="st2" d="M522.2,104.4c-0.7,0-1.2-0.5-1.2-1.2c0-0.7,0.5-1.2,1.2-1.2s1.2,0.5,1.2,1.2
			C523.5,103.9,522.9,104.4,522.2,104.4z M522.2,102.7c-0.3,0-0.5,0.2-0.5,0.5c0,0.3,0.2,0.5,0.5,0.5c0.3,0,0.5-0.2,0.5-0.5
			C522.8,102.9,522.5,102.7,522.2,102.7z"/>
	</g>
	<g>
		<path class="st2" d="M539.1,68.9c-1,0-1.7-0.8-1.7-1.7c0-1,0.8-1.7,1.7-1.7c1,0,1.7,0.8,1.7,1.7C540.8,68.1,540.1,68.9,539.1,68.9
			z M539.1,66.4c-0.4,0-0.7,0.3-0.7,0.7c0,0.4,0.3,0.7,0.7,0.7c0.4,0,0.7-0.3,0.7-0.7C539.8,66.7,539.5,66.4,539.1,66.4z"/>
	</g>
	<g>
		<path class="st2" d="M608.5,100.5c-1.3,0-2.3-1-2.3-2.3s1-2.3,2.3-2.3c1.3,0,2.3,1,2.3,2.3S609.8,100.5,608.5,100.5z M608.5,97.2
			c-0.5,0-1,0.4-1,1c0,0.5,0.4,1,1,1c0.5,0,1-0.4,1-1C609.5,97.6,609.1,97.2,608.5,97.2z"/>
	</g>
	<g>
		<path class="st2" d="M393.5,81.7c-0.7,0-1.3-0.6-1.3-1.3c0-0.7,0.6-1.3,1.3-1.3c0.7,0,1.3,0.6,1.3,1.3
			C394.8,81.1,394.2,81.7,393.5,81.7z M393.5,79.8c-0.3,0-0.6,0.3-0.6,0.6c0,0.3,0.3,0.6,0.6,0.6c0.3,0,0.6-0.3,0.6-0.6
			C394.1,80.1,393.8,79.8,393.5,79.8z"/>
	</g>
	<g class="st1">
		<path class="st2" d="M355,127.8c-1,0-1.7-0.8-1.7-1.7c0-1,0.8-1.7,1.7-1.7c1,0,1.7,0.8,1.7,1.7C356.8,127,356,127.8,355,127.8z
			 M355,125.3c-0.4,0-0.7,0.3-0.7,0.7c0,0.4,0.3,0.7,0.7,0.7c0.4,0,0.7-0.3,0.7-0.7C355.8,125.6,355.4,125.3,355,125.3z"/>
	</g>
	<g class="st1">
		<path class="st2" d="M282.5,87.3c-1,0-1.7-0.8-1.7-1.7c0-1,0.8-1.7,1.7-1.7c1,0,1.7,0.8,1.7,1.7C284.3,86.5,283.5,87.3,282.5,87.3
			z M282.5,84.8c-0.4,0-0.7,0.3-0.7,0.7c0,0.4,0.3,0.7,0.7,0.7c0.4,0,0.7-0.3,0.7-0.7C283.3,85.1,283,84.8,282.5,84.8z"/>
	</g>
	<g>
		<path class="st2" d="M418.8,89.9l-2.6-2.6l2.6-2.6l2.6,2.6L418.8,89.9z M418,87.4l0.8,0.8l0.8-0.8l-0.8-0.8L418,87.4z"/>
	</g>
	<g>
		<path class="st2" d="M555.1,96.7l-2.6-2.6l2.6-2.6l2.6,2.6L555.1,96.7z M554.3,94.1l0.8,0.8l0.8-0.8l-0.8-0.8L554.3,94.1z"/>
	</g>
	<g class="st1">
		<path class="st2" d="M595,158.6l-2.2-2.2l2.2-2.2l2.2,2.2L595,158.6z M594.3,156.4l0.7,0.7l0.7-0.7l-0.7-0.7L594.3,156.4z"/>
	</g>
	<g>
		<path class="st2" d="M604.6,81.8l-2.2-2.2l2.2-2.2l2.2,2.2L604.6,81.8z M603.9,79.6l0.7,0.7l0.7-0.7l-0.7-0.7L603.9,79.6z"/>
	</g>
	<g>
		<path class="st2" d="M334.9,64l-1.6-1.6l1.6-1.6l1.6,1.6L334.9,64z M334.4,62.4l0.5,0.5l0.5-0.5l-0.5-0.5L334.4,62.4z"/>
	</g>
	<g>
		<path class="st2" d="M309.8,99.7l-2.3-2.3l2.3-2.3l2.3,2.3L309.8,99.7z M309,97.4l0.7,0.7l0.7-0.7l-0.7-0.7L309,97.4z"/>
	</g>
	<g>
		<path class="st2" d="M267.8,141.6l-2.3-2.3l2.3-2.3l2.3,2.3L267.8,141.6z M267,139.3l0.7,0.7l0.7-0.7l-0.7-0.7L267,139.3z"/>
	</g>
	<g>
		<path class="st2" d="M353.3,167.3l-2.3-2.3l2.3-2.3l2.3,2.3L353.3,167.3z M352.5,164.9l0.7,0.7l0.7-0.7l-0.7-0.7L352.5,164.9z"/>
	</g>
	<g>
		<path class="st2" d="M324,152.2l-2.3-2.3l2.3-2.3l2.3,2.3L324,152.2z M323.3,149.9l0.7,0.7l0.7-0.7l-0.7-0.7L323.3,149.9z"/>
	</g>
	<g>
		<circle class="st2" cx="447.1" cy="86.3" r="0.9"/>
		<circle class="st2" cx="451.2" cy="86.3" r="0.9"/>
		<circle class="st2" cx="455.3" cy="86.3" r="0.9"/>
		<circle class="st2" cx="459.5" cy="86.3" r="0.9"/>
		<circle class="st2" cx="463.6" cy="86.3" r="0.9"/>
		<circle class="st2" cx="471.8" cy="86.3" r="0.9"/>
		<circle class="st2" cx="467.7" cy="86.3" r="0.9"/>
		<circle class="st2" cx="476" cy="86.3" r="0.9"/>
	</g>
	<g class="st1">
		<circle class="st2" cx="258.6" cy="121" r="0.9"/>
		<circle class="st2" cx="262.8" cy="121" r="0.9"/>
		<circle class="st2" cx="266.9" cy="121" r="0.9"/>
		<circle class="st2" cx="271" cy="121" r="0.9"/>
		<circle class="st2" cx="275.2" cy="121" r="0.9"/>
		<circle class="st2" cx="283.4" cy="121" r="0.9"/>
		<circle class="st2" cx="279.3" cy="121" r="0.9"/>
		<circle class="st2" cx="287.5" cy="121" r="0.9"/>
	</g>
	<g class="st1">
		<circle class="st2" cx="514.3" cy="116.6" r="0.9"/>
		<circle class="st2" cx="518.5" cy="116.6" r="0.9"/>
		<circle class="st2" cx="522.6" cy="116.6" r="0.9"/>
		<circle class="st2" cx="526.7" cy="116.6" r="0.9"/>
		<circle class="st2" cx="530.8" cy="116.6" r="0.9"/>
		<circle class="st2" cx="539.1" cy="116.6" r="0.9"/>
		<circle class="st2" cx="535" cy="116.6" r="0.9"/>
		<circle class="st2" cx="543.2" cy="116.6" r="0.9"/>
	</g>
	<g>
		<circle class="st2" cx="298.3" cy="164.9" r="0.7"/>
		<circle class="st2" cx="301.9" cy="164.9" r="0.7"/>
		<circle class="st2" cx="305.4" cy="164.9" r="0.7"/>
		<circle class="st2" cx="309" cy="164.9" r="0.7"/>
		<circle class="st2" cx="312.5" cy="164.9" r="0.7"/>
		<circle class="st2" cx="319.6" cy="164.9" r="0.7"/>
		<circle class="st2" cx="316.1" cy="164.9" r="0.7"/>
		<circle class="st2" cx="323.2" cy="164.9" r="0.7"/>
	</g>
	<g>
		<circle class="st2" cx="568.2" cy="147.3" r="1"/>
		<circle class="st2" cx="573.2" cy="147.3" r="1"/>
		<circle class="st2" cx="578.2" cy="147.3" r="1"/>
		<circle class="st2" cx="583.1" cy="147.3" r="1"/>
		<circle class="st2" cx="588.1" cy="147.3" r="1"/>
		<circle class="st2" cx="598" cy="147.3" r="1"/>
		<circle class="st2" cx="593" cy="147.3" r="1"/>
		<circle class="st2" cx="603" cy="147.3" r="1"/>
	</g>
	<path class="st2" d="M403.3,68.1c0,0.3-0.2,0.5-0.5,0.5h-0.6v0.6c0,0.3-0.2,0.5-0.5,0.5c-0.3,0-0.5-0.2-0.5-0.5v-0.6h-0.6
		c-0.3,0-0.5-0.2-0.5-0.5c0-0.3,0.2-0.5,0.5-0.5h0.6v-0.6c0-0.3,0.2-0.5,0.5-0.5c0.3,0,0.5,0.2,0.5,0.5v0.6h0.6
		C403,67.6,403.3,67.8,403.3,68.1z"/>
	<path class="st2" d="M516.9,72.1c0,0.3-0.2,0.5-0.5,0.5h-0.6v0.6c0,0.3-0.2,0.5-0.5,0.5c-0.3,0-0.5-0.2-0.5-0.5v-0.6H514
		c-0.3,0-0.5-0.2-0.5-0.5c0-0.3,0.2-0.5,0.5-0.5h0.6v-0.6c0-0.3,0.2-0.5,0.5-0.5c0.3,0,0.5,0.2,0.5,0.5v0.6h0.6
		C516.7,71.6,516.9,71.8,516.9,72.1z"/>
	<path class="st2" d="M521.7,135.8c0,0.4-0.3,0.7-0.7,0.7h-0.9v0.9c0,0.4-0.3,0.7-0.7,0.7c-0.4,0-0.7-0.3-0.7-0.7v-0.9h-0.9
		c-0.4,0-0.7-0.3-0.7-0.7c0-0.4,0.3-0.7,0.7-0.7h0.9v-0.9c0-0.4,0.3-0.7,0.7-0.7c0.4,0,0.7,0.3,0.7,0.7v0.9h0.9
		C521.4,135.1,521.7,135.4,521.7,135.8z"/>
	<path class="st2" d="M622.9,144.4c0,0.4-0.3,0.7-0.7,0.7h-0.9v0.9c0,0.4-0.3,0.7-0.7,0.7c-0.4,0-0.7-0.3-0.7-0.7v-0.9H619
		c-0.4,0-0.7-0.3-0.7-0.7s0.3-0.7,0.7-0.7h0.9v-0.9c0-0.4,0.3-0.7,0.7-0.7c0.4,0,0.7,0.3,0.7,0.7v0.9h0.9
		C622.5,143.6,622.9,144,622.9,144.4z"/>
	<path class="st2" d="M596.8,121.6c0,0.3-0.2,0.5-0.5,0.5h-0.6v0.6c0,0.3-0.2,0.5-0.5,0.5c-0.3,0-0.5-0.2-0.5-0.5v-0.6h-0.6
		c-0.3,0-0.5-0.2-0.5-0.5c0-0.3,0.2-0.5,0.5-0.5h0.6v-0.6c0-0.3,0.2-0.5,0.5-0.5c0.3,0,0.5,0.2,0.5,0.5v0.6h0.6
		C596.5,121,596.8,121.3,596.8,121.6z"/>
	<path class="st2" d="M303.9,69.8c0,0.3-0.2,0.5-0.5,0.5h-0.6V71c0,0.3-0.2,0.5-0.5,0.5c-0.3,0-0.5-0.2-0.5-0.5v-0.6H301
		c-0.3,0-0.5-0.2-0.5-0.5c0-0.3,0.2-0.5,0.5-0.5h0.6v-0.6c0-0.3,0.2-0.5,0.5-0.5c0.3,0,0.5,0.2,0.5,0.5v0.6h0.6
		C303.6,69.3,303.9,69.6,303.9,69.8z"/>
	<path class="st2" d="M285.8,133.3c0,0.4-0.3,0.7-0.7,0.7h-0.8v0.8c0,0.4-0.3,0.7-0.7,0.7c-0.4,0-0.7-0.3-0.7-0.7V134H282
		c-0.4,0-0.7-0.3-0.7-0.7c0-0.4,0.3-0.7,0.7-0.7h0.8v-0.8c0-0.4,0.3-0.7,0.7-0.7c0.4,0,0.7,0.3,0.7,0.7v0.8h0.8
		C285.4,132.6,285.8,132.9,285.8,133.3z"/>
	<path class="st2" d="M349.6,112.7c0,0.4-0.3,0.7-0.7,0.7h-0.8v0.8c0,0.4-0.3,0.7-0.7,0.7c-0.4,0-0.7-0.3-0.7-0.7v-0.8h-0.8
		c-0.4,0-0.7-0.3-0.7-0.7c0-0.4,0.3-0.7,0.7-0.7h0.8v-0.8c0-0.4,0.3-0.7,0.7-0.7c0.4,0,0.7,0.3,0.7,0.7v0.8h0.8
		C349.3,112,349.6,112.3,349.6,112.7z"/>
	<g>
		<path class="st2" d="M459.1,198h-45.9l1-1.5c0,0,0.9-1.3,1.9-2.9c0.9-1.5,1.7-4.3,1.7-6.2v-13.7h36.5v13.7c0,1.9,0.8,4.7,1.7,6.2
			L459.1,198z M417,196h38.5l-0.9-1.4c-1.2-1.8-2.1-5-2.1-7.3v-11.7h-32.5v11.7c0,2.3-0.9,5.5-2.1,7.3
			C417.5,195.1,417.2,195.6,417,196z"/>
	</g>
	<path class="st2" d="M503.9,178.2H368.1c-2.1,0-3.8-1.7-3.8-3.8v-73.8c0-2.1,1.7-3.8,3.8-3.8h135.8c2.1,0,3.8,1.7,3.8,3.8v73.8
		C507.8,176.5,506,178.2,503.9,178.2z"/>
	<path class="st0" d="M503.9,178.2H368.1c-2.1,0-3.8-1.7-3.8-3.8v-9.2h143.4v9.2C507.8,176.5,506,178.2,503.9,178.2z"/>
	<g>
		<path class="st2" d="M503.9,179.2H368.1c-2.7,0-4.8-2.2-4.8-4.8v-73.8c0-2.7,2.2-4.8,4.8-4.8h135.8c2.7,0,4.8,2.2,4.8,4.8v73.8
			C508.8,177,506.6,179.2,503.9,179.2z M368.1,97.7c-1.6,0-2.8,1.3-2.8,2.8v73.8c0,1.6,1.3,2.8,2.8,2.8h135.8c1.6,0,2.8-1.3,2.8-2.8
			v-73.8c0-1.6-1.3-2.8-2.8-2.8H368.1z"/>
	</g>
	<rect x="367.7" y="100.5" class="st0" width="136.3" height="60.9"/>
	<path class="st3" d="M479.3,109.9c0,1.6-1.3,2.9-2.9,2.9h-95.5c-1.6,0-2.9-1.3-2.9-2.9l0,0c0-1.6,1.3-2.9,2.9-2.9h95.5
		C478,107,479.3,108.3,479.3,109.9L479.3,109.9z"/>
	<rect x="382.6" y="117.6" class="st2" width="62.6" height="2.2"/>
	<rect x="382.6" y="121.7" class="st2" width="62.6" height="2.2"/>
	<rect x="382.6" y="125.7" class="st2" width="36.3" height="2.2"/>
	<circle class="st0" cx="481.7" cy="122.5" r="24.8"/>
	<circle class="st4" cx="481.7" cy="122.5" r="24.8"/>
	
		<rect x="502.2" y="139" transform="matrix(0.7069 -0.7073 0.7073 0.7069 45.1312 399.2494)" class="st0" width="4.2" height="12.2"/>
	<g>
		<path class="st2" d="M507.2,152.4l-10.1-10.1l4.4-4.4l10.1,10.1L507.2,152.4z M499.9,142.3l7.2,7.2l1.6-1.6l-7.2-7.2L499.9,142.3z
			"/>
	</g>
	
		<rect x="514.3" y="139.9" transform="matrix(0.7068 -0.7074 0.7074 0.7068 38.892 414.4505)" class="st0" width="10.4" height="40.9"/>
	<g>
		<path class="st2" d="M530.3,179.9l-30.3-30.3l8.8-8.8l30.3,30.3L530.3,179.9z M502.7,149.5l27.5,27.5l5.9-5.9l-27.5-27.5
			L502.7,149.5z"/>
	</g>
	<path class="st0" d="M501,103.1c-10.7-10.7-28-10.7-38.7,0c-10.7,10.7-10.7,28,0,38.7c10.7,10.7,28,10.7,38.7,0
		C511.7,131.2,511.7,113.8,501,103.1z M497.5,138.3c-8.8,8.7-22.9,8.7-31.7,0c-8.8-8.8-8.8-22.9,0-31.7c8.8-8.8,22.9-8.8,31.7,0
		C506.3,115.4,506.3,129.6,497.5,138.3z"/>
	<g>
		<path class="st2" d="M481.7,150.9c-7.6,0-14.7-3-20.1-8.3c-5.4-5.4-8.3-12.5-8.3-20.1c0-7.6,3-14.7,8.3-20.1
			c5.4-5.4,12.5-8.3,20.1-8.3c7.6,0,14.7,3,20.1,8.3c11.1,11.1,11.1,29.1,0,40.1C496.4,147.9,489.2,150.9,481.7,150.9z M481.7,96.1
			c-7,0-13.7,2.7-18.7,7.7c-5,5-7.7,11.6-7.7,18.7c0,7,2.7,13.7,7.7,18.7c5,5,11.6,7.7,18.7,7.7c7,0,13.7-2.7,18.7-7.7
			c10.3-10.3,10.3-27,0-37.3C495.3,98.9,488.7,96.1,481.7,96.1z M481.7,145.9c-6.3,0-12.1-2.4-16.5-6.9c-9.1-9.1-9.1-24,0-33.1
			c4.4-4.4,10.3-6.9,16.6-6.9c6.3,0,12.1,2.4,16.6,6.9c4.4,4.4,6.9,10.3,6.9,16.5c0,6.3-2.4,12.1-6.9,16.6
			C493.8,143.5,487.9,145.9,481.7,145.9z M481.7,101.1c-5.7,0-11.1,2.2-15.1,6.3c-8.3,8.3-8.3,21.9,0,30.3c4,4,9.4,6.3,15.1,6.3
			s11.1-2.2,15.1-6.3c4-4,6.3-9.4,6.3-15.1c0-5.7-2.2-11.1-6.3-15.1C492.8,103.3,487.4,101.1,481.7,101.1z"/>
	</g>
	<g>
		<path class="st2" d="M481.7,145.9c-6.3,0-12.1-2.4-16.5-6.9c-9.1-9.1-9.1-24,0-33.1c4.4-4.4,10.3-6.9,16.6-6.9
			c6.3,0,12.1,2.4,16.6,6.9c4.4,4.4,6.9,10.3,6.9,16.5c0,6.3-2.4,12.1-6.9,16.6C493.8,143.5,487.9,145.9,481.7,145.9z M481.7,101.1
			c-5.7,0-11.1,2.2-15.1,6.3c-8.3,8.3-8.3,21.9,0,30.3c4,4,9.4,6.3,15.1,6.3s11.1-2.2,15.1-6.3c4-4,6.3-9.4,6.3-15.1
			c0-5.7-2.2-11.1-6.3-15.1C492.8,103.3,487.4,101.1,481.7,101.1z"/>
	</g>
	<g>
		<path class="st2" d="M472.1,110c-0.3,0-0.5-0.1-0.7-0.3c-0.4-0.4-0.4-1,0-1.4c2.7-2.7,6.4-4.2,10.2-4.2c3.9,0,7.5,1.5,10.3,4.2
			c0.4,0.4,0.4,1,0,1.4c-0.4,0.4-1,0.4-1.4,0c-2.4-2.4-5.5-3.7-8.8-3.7c-3.3,0-6.5,1.3-8.8,3.7C472.6,109.9,472.4,110,472.1,110z"/>
	</g>
	<g>
		<path class="st2" d="M334.7,106.9c-1.1,0-2.1-0.9-2.1-2.1c0-1.1,0.9-2.1,2.1-2.1c1.1,0,2.1,0.9,2.1,2.1
			C336.8,106,335.8,106.9,334.7,106.9z M334.7,103.8c-0.6,0-1.1,0.5-1.1,1.1c0,0.6,0.5,1.1,1.1,1.1c0.6,0,1.1-0.5,1.1-1.1
			C335.8,104.3,335.3,103.8,334.7,103.8z"/>
	</g>
	<g>
		<path class="st2" d="M328.3,105.2c-0.4,0-0.7-0.1-1-0.3c-1-0.6-1.3-1.8-0.8-2.8c0.5-1,1.9-1.3,2.8-0.8c1,0.6,1.3,1.8,0.8,2.8
			C329.7,104.8,329.1,105.2,328.3,105.2z M328.3,102.1c-0.4,0-0.7,0.2-0.9,0.5c-0.3,0.5-0.1,1.2,0.4,1.5c0.5,0.3,1.2,0.1,1.5-0.4
			c0.3-0.5,0.1-1.2-0.4-1.5C328.7,102.1,328.5,102.1,328.3,102.1z"/>
	</g>
	<g>
		<path class="st2" d="M323.7,100.6c-0.7,0-1.4-0.4-1.8-1c-0.6-1-0.2-2.3,0.8-2.8c1-0.6,2.3-0.2,2.8,0.8c0.3,0.5,0.3,1,0.2,1.6
			c-0.1,0.5-0.5,1-1,1.3C324.4,100.5,324,100.6,323.7,100.6z M323.7,97.4c-0.2,0-0.4,0-0.5,0.1c-0.5,0.3-0.7,0.9-0.4,1.5
			c0.3,0.5,1,0.7,1.5,0.4c0.2-0.1,0.4-0.4,0.5-0.6c0.1-0.3,0-0.6-0.1-0.8C324.4,97.6,324,97.4,323.7,97.4z"/>
	</g>
	<g>
		<path class="st2" d="M322,94.2L322,94.2c-1.1,0-2.1-0.9-2.1-2.1c0-1.1,0.9-2.1,2.1-2.1c0.6,0,1.1,0.2,1.5,0.6
			c0.4,0.4,0.6,0.9,0.6,1.5C324,93.3,323.1,94.2,322,94.2z M322,91.1c-0.6,0-1.1,0.5-1.1,1.1c0,0.6,0.5,1.1,1.1,1.1l0,0.5v-0.5
			c0.6,0,1.1-0.5,1.1-1.1c0-0.3-0.1-0.6-0.3-0.8C322.5,91.2,322.2,91.1,322,91.1z"/>
	</g>
	<g>
		<path class="st2" d="M323.7,87.8c-0.4,0-0.7-0.1-1-0.3c-0.5-0.3-0.8-0.7-1-1.3c-0.1-0.5-0.1-1.1,0.2-1.6c0.5-0.9,1.9-1.3,2.8-0.8
			c0.5,0.3,0.8,0.7,1,1.3c0.1,0.5,0.1,1.1-0.2,1.6C325.1,87.4,324.4,87.8,323.7,87.8z M323.7,84.7c-0.4,0-0.7,0.2-0.9,0.5
			c-0.1,0.2-0.2,0.5-0.1,0.8c0.1,0.3,0.2,0.5,0.5,0.7c0.5,0.3,1.2,0.1,1.5-0.4c0.1-0.2,0.2-0.5,0.1-0.8c-0.1-0.3-0.2-0.5-0.5-0.6
			C324.1,84.7,323.9,84.7,323.7,84.7z"/>
	</g>
	<g>
		<path class="st2" d="M328.4,83.2c-0.7,0-1.4-0.4-1.8-1c-0.3-0.5-0.3-1-0.2-1.6c0.1-0.5,0.5-1,1-1.3c0.9-0.5,2.3-0.2,2.8,0.8
			c0.3,0.5,0.3,1,0.2,1.6c-0.1,0.5-0.5,1-1,1.3C329.1,83.1,328.7,83.2,328.4,83.2z M328.4,80c-0.2,0-0.4,0-0.5,0.1
			c-0.2,0.1-0.4,0.4-0.5,0.6c-0.1,0.3,0,0.6,0.1,0.8c0.3,0.5,1,0.7,1.5,0.4c0.2-0.1,0.4-0.4,0.5-0.6c0.1-0.3,0-0.6-0.1-0.8
			C329.1,80.2,328.7,80,328.4,80z"/>
	</g>
	<g>
		<path class="st2" d="M334.7,81.5L334.7,81.5c-0.6,0-1.1-0.2-1.5-0.6c-0.4-0.4-0.6-0.9-0.6-1.5c0-1.1,0.9-2.1,2.1-2.1
			c0.6,0,1.1,0.2,1.5,0.6c0.4,0.4,0.6,0.9,0.6,1.5C336.8,80.6,335.9,81.5,334.7,81.5z M334.7,78.3c-0.6,0-1.1,0.5-1.1,1.1
			c0,0.3,0.1,0.6,0.3,0.8c0.2,0.2,0.5,0.3,0.8,0.3l0,0.5v-0.5c0.6,0,1.1-0.5,1.1-1.1c0-0.3-0.1-0.6-0.3-0.8
			C335.3,78.5,335,78.3,334.7,78.3z"/>
	</g>
	<g>
		<path class="st2" d="M341.1,83.2c-0.4,0-0.7-0.1-1-0.3c-1-0.6-1.3-1.8-0.7-2.8c0.6-0.9,1.9-1.3,2.8-0.7c0.5,0.3,0.8,0.7,1,1.3
			c0.1,0.5,0.1,1.1-0.2,1.6C342.5,82.8,341.8,83.2,341.1,83.2z M341.1,80.1c-0.4,0-0.7,0.2-0.9,0.5c-0.3,0.5-0.1,1.2,0.4,1.5
			c0.5,0.3,1.2,0.1,1.5-0.4c0.1-0.2,0.2-0.5,0.1-0.8c-0.1-0.3-0.2-0.5-0.5-0.6C341.5,80.1,341.3,80.1,341.1,80.1z"/>
	</g>
	<g>
		<path class="st2" d="M345.7,87.9c-0.7,0-1.4-0.4-1.8-1c-0.3-0.5-0.3-1-0.2-1.6c0.1-0.5,0.5-1,1-1.3c1-0.5,2.3-0.2,2.8,0.8
			c0.6,1,0.2,2.3-0.8,2.8C346.5,87.8,346.1,87.9,345.7,87.9z M345.7,84.8c-0.2,0-0.4,0-0.5,0.1c-0.2,0.1-0.4,0.4-0.5,0.6
			c-0.1,0.3,0,0.6,0.1,0.8c0.3,0.5,1,0.7,1.5,0.4c0.5-0.3,0.7-0.9,0.4-1.5C346.5,85,346.1,84.8,345.7,84.8z"/>
	</g>
	<g>
		<path class="st2" d="M347.4,94.3L347.4,94.3c-0.6,0-1.1-0.2-1.5-0.6c-0.4-0.4-0.6-0.9-0.6-1.5c0-1.1,0.9-2.1,2.1-2.1
			c1.2,0,2.1,0.9,2.1,2.1C349.5,93.3,348.6,94.3,347.4,94.3z M347.4,91.1c-0.6,0-1.1,0.5-1.1,1.1c0,0.3,0.1,0.6,0.3,0.8
			c0.2,0.2,0.5,0.3,0.8,0.3l0,0.5v-0.5c0.6,0,1.1-0.5,1.1-1.1C348.5,91.6,348,91.1,347.4,91.1z"/>
	</g>
	<g>
		<path class="st2" d="M345.7,100.6c-0.4,0-0.7-0.1-1-0.3c-1-0.6-1.3-1.8-0.7-2.8c0.6-0.9,1.9-1.3,2.8-0.7c1,0.6,1.3,1.8,0.7,2.8
			C347.1,100.2,346.4,100.6,345.7,100.6z M345.7,97.5c-0.4,0-0.7,0.2-0.9,0.5c-0.3,0.5-0.1,1.2,0.4,1.5c0.5,0.3,1.2,0.1,1.5-0.4
			c0.3-0.5,0.1-1.2-0.4-1.5C346.1,97.5,345.9,97.5,345.7,97.5z"/>
	</g>
	<g>
		<path class="st2" d="M341,105.3c-0.7,0-1.4-0.4-1.8-1c-0.6-1-0.2-2.3,0.8-2.8c1-0.5,2.3-0.2,2.8,0.8c0.6,1,0.2,2.3-0.8,2.8
			C341.7,105.2,341.4,105.3,341,105.3z M341,102.1c-0.2,0-0.4,0-0.5,0.1c-0.5,0.3-0.7,0.9-0.4,1.5c0.3,0.5,1,0.7,1.5,0.4
			c0.5-0.3,0.7-0.9,0.4-1.5C341.7,102.3,341.4,102.1,341,102.1z"/>
	</g>
	<g>
		<path class="st2" d="M334.7,100.9c-4.8,0-8.8-3.9-8.8-8.8c0-4.8,3.9-8.8,8.8-8.8c4.8,0,8.8,3.9,8.8,8.8
			C343.5,97,339.5,100.9,334.7,100.9z M334.7,84.6c-4.2,0-7.6,3.4-7.6,7.6c0,4.2,3.4,7.6,7.6,7.6c4.2,0,7.6-3.4,7.6-7.6
			C342.3,88,338.9,84.6,334.7,84.6z"/>
	</g>
	<g>
		<path class="st2" d="M337.5,100.4c-0.1,0-0.2,0-0.3-0.1c-0.3-0.2-0.4-0.5-0.2-0.8c1.2-2,1.9-4.6,1.9-7.4c0-2.7-0.7-5.3-1.9-7.3
			c-0.2-0.3-0.1-0.7,0.2-0.8c0.3-0.2,0.7-0.1,0.8,0.2c1.3,2.2,2.1,5,2.1,7.9c0,3-0.8,5.8-2.1,8C337.9,100.3,337.7,100.4,337.5,100.4
			z"/>
	</g>
	<g>
		<path class="st2" d="M332.1,100.4c-0.2,0-0.4-0.1-0.5-0.3c-1.4-2.2-2.1-5-2.1-8c0-2.9,0.7-5.8,2.1-7.9c0.2-0.3,0.5-0.4,0.8-0.2
			c0.3,0.2,0.4,0.5,0.2,0.8c-1.2,2-1.9,4.6-1.9,7.3c0,2.8,0.7,5.4,1.9,7.4c0.2,0.3,0.1,0.7-0.2,0.8
			C332.3,100.4,332.2,100.4,332.1,100.4z"/>
	</g>
	<g>
		<path class="st2" d="M334.7,100.9c-0.3,0-0.6-0.3-0.6-0.6V84c0-0.3,0.3-0.6,0.6-0.6c0.3,0,0.6,0.3,0.6,0.6v16.3
			C335.3,100.6,335,100.9,334.7,100.9z"/>
	</g>
	<g>
		<path class="st2" d="M342.9,92.7h-16.3c-0.3,0-0.6-0.3-0.6-0.6c0-0.3,0.3-0.6,0.6-0.6h16.3c0.3,0,0.6,0.3,0.6,0.6
			C343.5,92.5,343.2,92.7,342.9,92.7z"/>
	</g>
	<g>
		<path class="st2" d="M341.9,88.9h-14.1c-0.3,0-0.6-0.3-0.6-0.6c0-0.3,0.3-0.6,0.6-0.6h14.1c0.3,0,0.6,0.3,0.6,0.6
			C342.5,88.6,342.2,88.9,341.9,88.9z"/>
	</g>
	<g>
		<path class="st2" d="M341.7,96.6h-14.2c-0.3,0-0.6-0.3-0.6-0.6c0-0.3,0.3-0.6,0.6-0.6h14.2c0.3,0,0.6,0.3,0.6,0.6
			C342.3,96.4,342.1,96.6,341.7,96.6z"/>
	</g>
	<g>
		<path class="st2" d="M572.8,128.6h-9.3v-3.8c-3.9-1.8-6.3-5.7-6.3-9.9c0-6.1,4.9-11,11-11c6.1,0,11,4.9,11,11
			c0,4.3-2.5,8.1-6.3,9.9V128.6z M564.9,127.3h6.6v-3.3l0.4-0.2c3.6-1.5,5.9-5,5.9-8.9c0-5.3-4.3-9.6-9.6-9.6
			c-5.3,0-9.6,4.3-9.6,9.6c0,3.9,2.3,7.4,5.9,8.9l0.4,0.2V127.3z"/>
	</g>
	<rect x="564.2" y="126" class="st0" width="7.9" height="6.4"/>
	<g>
		<path class="st2" d="M572.8,133.1h-9.3v-7.8h9.3V133.1z M564.9,131.8h6.6v-5.1h-6.6V131.8z"/>
	</g>
	<g>
		<path class="st2" d="M570.4,128.9H566c-0.4,0-0.7-0.3-0.7-0.7c0-0.4,0.3-0.7,0.7-0.7h4.5c0.4,0,0.7,0.3,0.7,0.7
			C571.1,128.6,570.8,128.9,570.4,128.9z"/>
	</g>
	<g>
		<path class="st2" d="M570.4,130.9H566c-0.4,0-0.7-0.3-0.7-0.7c0-0.4,0.3-0.7,0.7-0.7h4.5c0.4,0,0.7,0.3,0.7,0.7
			C571.1,130.6,570.8,130.9,570.4,130.9z"/>
	</g>
	<g>
		<path class="st2" d="M570.4,134H566c-0.4,0-0.7-0.3-0.7-0.7c0-0.4,0.3-0.7,0.7-0.7h4.5c0.4,0,0.7,0.3,0.7,0.7
			C571.1,133.7,570.8,134,570.4,134z"/>
	</g>
	<g>
		<path class="st2" d="M567.6,117.3l-2.3-2.3c-0.3-0.3-0.3-0.7,0-0.9c0.3-0.3,0.7-0.3,0.9,0l1.3,1.3l2.5-2.5c0.3-0.3,0.7-0.3,0.9,0
			c0.3,0.3,0.3,0.7,0,0.9L567.6,117.3z"/>
	</g>
	<polygon class="st0" points="446.8,74.5 442.9,68.6 429.4,68.6 425.5,74.5 	"/>
	<g>
		<path class="st2" d="M449.6,81c-0.2,0-0.3-0.1-0.4-0.2c-0.2-0.2-0.2-0.6,0-0.9l2.7-2.7l-2.5-2.5c-0.2-0.2-0.2-0.6,0-0.9
			c0.2-0.2,0.6-0.2,0.9,0l3.4,3.4l-3.6,3.6C449.9,80.9,449.8,81,449.6,81z"/>
	</g>
	<g>
		<path class="st2" d="M422.8,81c-0.2,0-0.3-0.1-0.4-0.2l-3.6-3.6l3.4-3.4c0.2-0.2,0.6-0.2,0.9,0c0.2,0.2,0.2,0.6,0,0.9l-2.5,2.5
			l2.7,2.7c0.2,0.2,0.2,0.6,0,0.9C423.1,80.9,422.9,81,422.8,81z"/>
	</g>
	<polygon class="st0" points="426.2,74.7 436.2,86.4 446.2,74.7 436.2,74.7 	"/>
	<g>
		<path class="st2" d="M436.2,87.3l-11.3-13.2h22.7L436.2,87.3z M427.5,75.3l8.7,10.1l8.7-10.1H427.5z"/>
	</g>
	<g>
		<polygon class="st2" points="426,74.8 425,74.1 429.1,68 443.3,68 447.3,74.1 446.3,74.8 442.6,69.2 429.7,69.2 		"/>
	</g>
	<g>
		
			<rect x="430.8" y="68.4" transform="matrix(0.8404 -0.542 0.542 0.8404 29.9851 245.2882)" class="st2" width="1.2" height="6.6"/>
	</g>
	<g>
		
			<rect x="437.5" y="71.1" transform="matrix(0.5424 -0.8401 0.8401 0.5424 141.4345 403.1345)" class="st2" width="6.6" height="1.2"/>
	</g>
	<g>
		
			<rect x="431.3" y="71.1" transform="matrix(0.492 -0.8706 0.8706 0.492 158.3534 414.7451)" class="st2" width="6.5" height="1.2"/>
	</g>
	<g>
		
			<rect x="436.9" y="68.5" transform="matrix(0.9055 -0.4243 0.4243 0.9055 10.922 192.4091)" class="st2" width="1.2" height="6.3"/>
	</g>
	<g>
		
			<rect x="434" y="74.5" transform="matrix(0.9641 -0.2655 0.2655 0.9641 -5.7893 118.2629)" class="st2" width="1.2" height="12.1"/>
	</g>
	<g>
		
			<rect x="431.5" y="79.9" transform="matrix(0.2227 -0.9749 0.9749 0.2227 261.5587 489.1407)" class="st2" width="12" height="1.2"/>
	</g>
	<g>
		<path class="st2" d="M534.7,150.7h-0.5c-4.8,0-8.6-3.9-8.6-8.6v-0.5h3c0.2-0.8,1-1.5,1.9-1.5c0.9,0,1.7,0.6,1.9,1.5h2.4v3.5h-0.5
			c-0.5,0-0.9,0.4-0.9,0.9c0,0.5,0.4,0.9,0.9,0.9h0.5V150.7z M526.6,142.6c0.3,3.8,3.3,6.9,7.1,7.1v-1.8c-0.8-0.2-1.5-1-1.5-1.9
			s0.6-1.7,1.5-1.9v-1.5h-2.3v-0.5c0-0.5-0.4-0.9-0.9-0.9c-0.5,0-0.9,0.4-0.9,0.9v0.5H526.6z"/>
	</g>
	<g>
		<path class="st2" d="M534.7,142.6h-3.4v-0.5c0-0.5-0.4-0.9-0.9-0.9c-0.5,0-0.9,0.4-0.9,0.9v0.5h-3.9v-0.5c0-4.8,3.9-8.6,8.6-8.6
			h0.5v2.9c0.8,0.2,1.5,1,1.5,1.9c0,0.9-0.6,1.7-1.5,1.9V142.6z M532.3,141.6h1.4v-2.4h0.5c0.5,0,0.9-0.4,0.9-0.9
			c0-0.5-0.4-0.9-0.9-0.9h-0.5v-2.8c-3.8,0.3-6.9,3.3-7.1,7.1h1.9c0.2-0.8,1-1.5,1.9-1.5C531.3,140.1,532.1,140.8,532.3,141.6z"/>
	</g>
	<g>
		<path class="st2" d="M534.2,150.7h-0.5v-2.9c-0.8-0.2-1.5-1-1.5-1.9s0.6-1.7,1.5-1.9v-2.5h3.4v0.5c0,0.5,0.4,0.9,0.9,0.9
			c0.5,0,0.9-0.4,0.9-0.9v-0.5h3.9v0.5C542.8,146.9,539,150.7,534.2,150.7z M534.2,145.1c-0.5,0-0.9,0.4-0.9,0.9
			c0,0.5,0.4,0.9,0.9,0.9h0.5v2.8c3.8-0.3,6.8-3.3,7.1-7.1h-1.9c-0.2,0.8-1,1.5-1.9,1.5c-0.9,0-1.7-0.6-1.9-1.5h-1.4v2.4H534.2z"/>
	</g>
	<g>
		<path class="st2" d="M540.3,141.2c-0.9,0-1.6-0.6-1.8-1.4h-2.3v-3.3h0.5c0.5,0,0.9-0.4,0.9-0.9c0-0.5-0.4-0.9-0.9-0.9h-0.5v-3.6
			h0.5c4.5,0,8.2,3.7,8.2,8.2v0.5h-2.8C541.9,140.6,541.2,141.2,540.3,141.2z M537.3,138.8h2.2v0.5c0,0.5,0.4,0.9,0.9,0.9
			c0.5,0,0.9-0.4,0.9-0.9v-0.5h2.7c-0.2-3.5-3.1-6.4-6.6-6.6v1.7c0.8,0.2,1.4,0.9,1.4,1.8s-0.6,1.6-1.4,1.8V138.8z"/>
	</g>
	<g>
		<path class="st2" d="M344.1,156c-0.3,0-0.6,0-0.9,0l0.1-0.9c0.4,0,0.8,0,1.2,0l0,0.9C344.4,156,344.2,156,344.1,156z M345.8,155.9
			l-0.2-0.9c0.4-0.1,0.8-0.2,1.1-0.3l0.3,0.9C346.7,155.7,346.2,155.8,345.8,155.9z M341.9,155.8c-0.4-0.1-0.8-0.2-1.3-0.4l0.3-0.9
			c0.4,0.1,0.7,0.3,1.1,0.4L341.9,155.8z M348.3,155l-0.4-0.8c0.3-0.2,0.7-0.4,1-0.6l0.5,0.8C349.1,154.6,348.7,154.8,348.3,155z
			 M339.4,154.8c-0.4-0.2-0.8-0.5-1.1-0.7l0.6-0.7c0.3,0.2,0.6,0.5,1,0.7L339.4,154.8z M350.4,153.5l-0.6-0.7
			c0.3-0.3,0.6-0.6,0.8-0.9l0.7,0.6C351.1,152.9,350.8,153.2,350.4,153.5z M337.4,153.2c-0.2-0.2-0.5-0.5-0.7-0.8
			c-0.1-0.1-0.1-0.1-0.2-0.2l0.8-0.6c0,0.1,0.1,0.1,0.2,0.2c0.2,0.2,0.4,0.5,0.6,0.7L337.4,153.2z M352.1,151.5l-0.8-0.5
			c0.2-0.3,0.4-0.7,0.5-1.1l0.9,0.4C352.5,150.7,352.3,151.1,352.1,151.5z M335.8,151.1c-0.2-0.4-0.4-0.8-0.5-1.2l0.9-0.3
			c0.1,0.4,0.3,0.7,0.5,1.1L335.8,151.1z M353.1,149l-0.9-0.2c0.1-0.4,0.2-0.8,0.2-1.2l0.9,0.1C353.3,148.2,353.2,148.6,353.1,149z
			 M334.9,148.7c-0.1-0.4-0.2-0.9-0.2-1.3l0.9-0.1c0,0.4,0.1,0.8,0.2,1.2L334.9,148.7z M335.6,146.1l-0.9-0.1c0-0.2,0-0.3,0-0.5
			c0-0.3,0.1-0.5,0.1-0.8l0.9,0.2c0,0.2-0.1,0.5-0.1,0.7C335.7,145.8,335.6,145.9,335.6,146.1z M336.1,143.8l-0.9-0.3
			c0.1-0.4,0.3-0.8,0.5-1.2l0.8,0.4C336.4,143.1,336.2,143.4,336.1,143.8z M337.2,141.7l-0.8-0.5c0.3-0.4,0.5-0.7,0.8-1l0.7,0.7
			C337.7,141.1,337.4,141.4,337.2,141.7z M338.8,140l-0.6-0.7c0.3-0.3,0.7-0.5,1.1-0.7l0.5,0.8C339.5,139.5,339.2,139.8,338.8,140z
			 M340.9,138.8l-0.4-0.9c0.4-0.2,0.8-0.3,1.2-0.4l0.2,0.9C341.6,138.5,341.3,138.7,340.9,138.8z M343.2,138.2l-0.1-0.9
			c0.4,0,0.9-0.1,1.3,0l0,0.9C344,138.2,343.6,138.2,343.2,138.2z"/>
	</g>
	<g>
		<path class="st2" d="M343.8,139.4c-0.1,0-0.3-0.1-0.3-0.2c-0.2-0.2-0.2-0.5,0-0.7l0.9-0.8l-0.8-0.8c-0.2-0.2-0.2-0.5,0-0.7
			c0.2-0.2,0.5-0.2,0.7,0l1.4,1.5l-1.6,1.5C344,139.3,343.9,139.4,343.8,139.4z"/>
	</g>
	<g>
		<path class="st2" d="M344,153.7c-3.9,0-7.1-3.2-7.1-7.1c0-3.9,3.2-7.1,7.1-7.1s7.1,3.2,7.1,7.1C351.1,150.5,348,153.7,344,153.7z
			 M344,140.5c-3.4,0-6.1,2.8-6.1,6.1c0,3.4,2.8,6.1,6.1,6.1c3.4,0,6.1-2.8,6.1-6.1C350.2,143.3,347.4,140.5,344,140.5z"/>
	</g>
	<g>
		<path class="st2" d="M344,151.4c-2.6,0-4.7-2.1-4.7-4.7c0-2.6,2.1-4.7,4.7-4.7c2.6,0,4.7,2.1,4.7,4.7
			C348.7,149.2,346.6,151.4,344,151.4z M344,142.9c-2.1,0-3.8,1.7-3.8,3.8c0,2.1,1.7,3.8,3.8,3.8c2.1,0,3.8-1.7,3.8-3.8
			C347.8,144.6,346.1,142.9,344,142.9z"/>
	</g>
	<g>
		<g>
			<path class="st2" d="M343,148c0.2,0.1,0.6,0.3,0.9,0.3c0.5,0,0.8-0.3,0.8-0.7c0-0.4-0.2-0.6-0.8-0.8c-0.7-0.2-1.1-0.6-1.1-1.1
				c0-0.6,0.5-1.1,1.3-1.1c0.4,0,0.7,0.1,0.9,0.2l-0.1,0.4c-0.1-0.1-0.4-0.2-0.8-0.2c-0.6,0-0.8,0.3-0.8,0.6c0,0.4,0.2,0.6,0.8,0.8
				c0.7,0.3,1,0.6,1,1.2c0,0.6-0.5,1.2-1.4,1.2c-0.4,0-0.8-0.1-1-0.3L343,148z"/>
		</g>
		<g>
			<path class="st2" d="M344,149.4c-0.1,0-0.3-0.2-0.3-0.4v-4.8c0-0.2,0.1-0.4,0.3-0.4c0.1,0,0.3,0.2,0.3,0.4v4.8
				C344.3,149.2,344.2,149.4,344,149.4z"/>
		</g>
	</g>
	<path class="st0" d="M590.3,87.2c0,0.6-0.5,1.1-1.1,1.1h-10.7c-0.6,0-1.1-0.5-1.1-1.1V67.5c0-0.6,0.5-1.1,1.1-1.1h10.7
		c0.6,0,1.1,0.5,1.1,1.1V87.2z"/>
	<g>
		<path class="st2" d="M589.2,88.9h-10.7c-0.9,0-1.7-0.8-1.7-1.7V67.5c0-0.9,0.8-1.7,1.7-1.7h10.7c0.9,0,1.7,0.8,1.7,1.7v19.7
			C590.9,88.1,590.1,88.9,589.2,88.9z M578.5,66.9c-0.3,0-0.6,0.3-0.6,0.6v19.7c0,0.3,0.3,0.6,0.6,0.6h10.7c0.3,0,0.6-0.3,0.6-0.6
			V67.5c0-0.3-0.3-0.6-0.6-0.6H578.5z"/>
	</g>
	<g>
		<path class="st2" d="M589.1,86.2h-10.5V68.4h10.5V86.2z M579.7,85.1h8.3V69.5h-8.3V85.1z"/>
	</g>
	<g>
		<path class="st2" d="M585.2,68.2h-2.7c-0.3,0-0.5-0.2-0.5-0.5c0-0.3,0.2-0.5,0.5-0.5h2.7c0.3,0,0.5,0.2,0.5,0.5
			C585.7,68,585.5,68.2,585.2,68.2z"/>
	</g>
	<path class="st0" d="M584,71.4c0-3.5-2.9-6.4-6.4-6.4c-3.5,0-6.4,2.9-6.4,6.4c0,3.5,2.9,6.4,6.4,6.4c1.5,0,2.9-0.5,4-1.4l2.4,3.8
		V71.4z"/>
	<g>
		<path class="st2" d="M583.8,80.4L583.8,80.4c-0.3,0-0.5-0.2-0.7-0.5l-1.7-2.7c-1.1,0.8-2.4,1.2-3.8,1.2c-3.8,0-6.9-3.1-6.9-6.9
			c0-3.8,3.1-6.9,6.9-6.9c3.8,0,6.9,3.1,6.9,6.9v8.1c0,0.2,0,0.3-0.1,0.5C584.3,80.2,584.1,80.4,583.8,80.4z M581.7,75.6l1.7,2.7
			l0-6.9c0-3.2-2.6-5.8-5.8-5.8c-3.2,0-5.8,2.6-5.8,5.8c0,3.2,2.6,5.8,5.8,5.8c1.3,0,2.6-0.4,3.6-1.3L581.7,75.6z"/>
	</g>
	<g>
		<g>
			<path class="st2" d="M576,73.2c0.3,0.2,0.8,0.4,1.4,0.4c0.8,0,1.2-0.4,1.2-1c0-0.6-0.3-0.9-1.1-1.2c-1-0.3-1.6-0.8-1.6-1.7
				c0-0.9,0.8-1.6,1.9-1.6c0.6,0,1,0.1,1.3,0.3l-0.2,0.6c-0.2-0.1-0.6-0.3-1.1-0.3c-0.8,0-1.1,0.5-1.1,0.9c0,0.6,0.4,0.8,1.2,1.1
				c1,0.4,1.5,0.9,1.5,1.7c0,0.9-0.7,1.7-2.1,1.7c-0.6,0-1.2-0.2-1.5-0.4L576,73.2z"/>
		</g>
		<g>
			<path class="st2" d="M577.6,75.2c-0.2,0-0.4-0.2-0.4-0.5v-7c0-0.3,0.2-0.5,0.4-0.5s0.4,0.2,0.4,0.5v7
				C578,74.9,577.8,75.2,577.6,75.2z"/>
		</g>
	</g>
	<path class="st0" d="M317.9,140.9h-20.1c-0.5,0-0.9-0.4-0.9-0.9v-20.1c0-0.5,0.4-0.9,0.9-0.9h20.1c0.5,0,0.9,0.4,0.9,0.9V140
		C318.8,140.5,318.4,140.9,317.9,140.9z"/>
	<path class="st0" d="M296.9,123.8v-3.9c0-0.5,0.4-0.9,0.9-0.9h20.1c0.5,0,0.9,0.4,0.9,0.9v3.9C318.8,124.3,296.9,124.3,296.9,123.8
		z"/>
	<g>
		<rect x="297.1" y="123.5" class="st2" width="21.3" height="1.3"/>
	</g>
	<path class="st2" d="M300.7,121.6c0,0.3-0.3,0.6-0.6,0.6l0,0c-0.3,0-0.6-0.3-0.6-0.6l0,0c0-0.3,0.3-0.6,0.6-0.6l0,0
		C300.5,121,300.7,121.3,300.7,121.6L300.7,121.6z"/>
	<path class="st2" d="M302.9,121.6c0,0.3-0.3,0.6-0.6,0.6l0,0c-0.3,0-0.6-0.3-0.6-0.6l0,0c0-0.3,0.3-0.6,0.6-0.6l0,0
		C302.6,121,302.9,121.3,302.9,121.6L302.9,121.6z"/>
	<path class="st2" d="M305,121.6c0,0.3-0.3,0.6-0.6,0.6l0,0c-0.3,0-0.6-0.3-0.6-0.6l0,0c0-0.3,0.3-0.6,0.6-0.6l0,0
		C304.7,121,305,121.3,305,121.6L305,121.6z"/>
	<g>
		<polygon class="st2" points="297.1,139.2 296.7,138 304.3,135.5 307.5,130 311.7,133.3 318.4,129 319.1,130.1 311.6,134.9 
			307.9,132 305.2,136.6 		"/>
	</g>
	<g>
		<path class="st2" d="M317.9,141.5h-20.1c-0.9,0-1.6-0.7-1.6-1.6v-20.1c0-0.9,0.7-1.6,1.6-1.6h20.1c0.9,0,1.6,0.7,1.6,1.6V140
			C319.4,140.8,318.7,141.5,317.9,141.5z M297.8,119.7c-0.1,0-0.2,0.1-0.2,0.2V140c0,0.1,0.1,0.2,0.2,0.2h20.1
			c0.1,0,0.2-0.1,0.2-0.2v-20.1c0-0.1-0.1-0.2-0.2-0.2H297.8z"/>
	</g>
	<path class="st0" d="M307.8,126.9c-4.4,0-8,3.6-8,8c0,4.4,3.6,8,8,8c4.4,0,8-3.6,8-8C315.8,130.5,312.2,126.9,307.8,126.9z
		 M307.8,141.1L307.8,141.1c-3.4,0-6.2-2.8-6.2-6.2c0-3.4,2.8-6.2,6.2-6.2c1.7,0,3.2,0.6,4.4,1.8c1.2,1.2,1.8,2.7,1.8,4.4
		C314,138.3,311.2,141.1,307.8,141.1z"/>
	<g>
		<path class="st2" d="M307.8,141.8L307.8,141.8c-3.8,0-6.9-3.1-6.9-6.9c0-3.8,3.1-6.9,6.9-6.9c1.8,0,3.6,0.7,4.9,2
			c1.3,1.3,2,3,2,4.9C314.7,138.7,311.6,141.8,307.8,141.8z M307.8,129.4c-3.1,0-5.5,2.5-5.5,5.5c0,3.1,2.5,5.5,5.5,5.5h0
			c3.1,0,5.5-2.5,5.5-5.5c0-1.5-0.6-2.9-1.6-3.9C310.7,129.9,309.3,129.4,307.8,129.4z"/>
	</g>
	<g>
		<path class="st2" d="M307.8,146.5c-0.4,0-0.7-0.3-0.7-0.7l0-2.9c0-0.4,0.3-0.7,0.7-0.7c0.4,0,0.7,0.3,0.7,0.7v2.9
			C308.5,146.2,308.2,146.5,307.8,146.5z"/>
	</g>
	<g>
		<path class="st2" d="M305.6,151.1v-6l4.4,0l0,6L305.6,151.1z M307,146.5v3.3l1.7,0v-3.3L307,146.5z"/>
	</g>
	<g>
		<path class="st2" d="M307.8,143.6v-0.7V143.6c-4.8,0-8.7-3.9-8.7-8.7c0-4.8,3.9-8.7,8.7-8.7c2.3,0,4.5,0.9,6.1,2.5
			c1.6,1.6,2.5,3.8,2.5,6.1C316.5,139.7,312.6,143.6,307.8,143.6z M307.8,127.6c-4,0-7.3,3.3-7.3,7.3c0,4,3.3,7.3,7.3,7.3l0,0.7
			l0-0.7c4,0,7.3-3.3,7.3-7.3C315.2,130.9,311.9,127.6,307.8,127.6z"/>
	</g>
	<g>
		<path class="st2" d="M535,98.9c-5.4,0-9.7-4.4-9.7-9.7c0-5.4,4.4-9.7,9.7-9.7c5.4,0,9.7,4.4,9.7,9.7
			C544.8,94.5,540.4,98.9,535,98.9z M535,80.6c-4.8,0-8.6,3.9-8.6,8.6c0,4.8,3.9,8.6,8.6,8.6c4.8,0,8.6-3.9,8.6-8.6
			C543.7,84.4,539.8,80.6,535,80.6z"/>
	</g>
	<g>
		<path class="st2" d="M538.2,98.3c-0.1,0-0.2,0-0.3-0.1c-0.3-0.2-0.3-0.5-0.2-0.8c1.4-2.3,2.2-5.2,2.2-8.3c0-3.1-0.8-6-2.2-8.3
			c-0.2-0.3-0.1-0.6,0.2-0.8c0.3-0.2,0.6-0.1,0.8,0.2c1.5,2.4,2.3,5.6,2.3,8.8c0,3.3-0.8,6.5-2.4,8.9
			C538.6,98.2,538.4,98.3,538.2,98.3z"/>
	</g>
	<g>
		<path class="st2" d="M532.1,98.3c-0.2,0-0.4-0.1-0.5-0.3c-1.5-2.4-2.4-5.6-2.4-8.9c0-3.3,0.8-6.4,2.3-8.8c0.2-0.3,0.5-0.3,0.8-0.2
			c0.3,0.2,0.3,0.5,0.2,0.8c-1.4,2.3-2.2,5.2-2.2,8.3c0,3.1,0.8,6.1,2.2,8.3c0.2,0.3,0.1,0.6-0.2,0.8
			C532.3,98.3,532.2,98.3,532.1,98.3z"/>
	</g>
	<g>
		<path class="st2" d="M535,98.9c-0.3,0-0.5-0.2-0.5-0.5V80c0-0.3,0.2-0.5,0.5-0.5c0.3,0,0.5,0.2,0.5,0.5v18.3
			C535.6,98.7,535.3,98.9,535,98.9z"/>
	</g>
	<g>
		<path class="st2" d="M544.2,89.7h-18.3c-0.3,0-0.5-0.2-0.5-0.5c0-0.3,0.2-0.5,0.5-0.5h18.3c0.3,0,0.5,0.2,0.5,0.5
			C544.8,89.5,544.5,89.7,544.2,89.7z"/>
	</g>
	<g>
		<path class="st2" d="M543.1,85.4h-15.8c-0.3,0-0.5-0.2-0.5-0.5c0-0.3,0.2-0.5,0.5-0.5h15.8c0.3,0,0.5,0.2,0.5,0.5
			C543.7,85.1,543.4,85.4,543.1,85.4z"/>
	</g>
	<g>
		<path class="st2" d="M542.9,94.1h-16c-0.3,0-0.5-0.2-0.5-0.5c0-0.3,0.2-0.5,0.5-0.5h16c0.3,0,0.5,0.2,0.5,0.5
			C543.5,93.8,543.2,94.1,542.9,94.1z"/>
	</g>
	<circle class="st0" cx="540.5" cy="89.2" r="1"/>
	<g>
		<path class="st2" d="M540.5,90.6c-0.8,0-1.4-0.6-1.4-1.4c0-0.8,0.6-1.4,1.4-1.4c0.8,0,1.4,0.6,1.4,1.4
			C541.9,90,541.3,90.6,540.5,90.6z M540.5,88.6c-0.4,0-0.7,0.3-0.7,0.7c0,0.4,0.3,0.7,0.7,0.7c0.4,0,0.7-0.3,0.7-0.7
			C541.2,88.9,540.9,88.6,540.5,88.6z"/>
	</g>
	<circle class="st0" cx="529.8" cy="89.2" r="1"/>
	<g>
		<path class="st2" d="M529.8,90.6c-0.8,0-1.4-0.6-1.4-1.4c0-0.8,0.6-1.4,1.4-1.4c0.8,0,1.4,0.6,1.4,1.4
			C531.2,90,530.6,90.6,529.8,90.6z M529.8,88.5c-0.4,0-0.7,0.3-0.7,0.7c0,0.4,0.3,0.7,0.7,0.7c0.4,0,0.7-0.3,0.7-0.7
			C530.5,88.8,530.2,88.5,529.8,88.5z"/>
	</g>
	<circle class="st0" cx="535" cy="93.5" r="1"/>
	<g>
		<path class="st2" d="M535,94.9c-0.8,0-1.4-0.6-1.4-1.4c0-0.8,0.6-1.4,1.4-1.4c0.8,0,1.4,0.6,1.4,1.4
			C536.4,94.3,535.8,94.9,535,94.9z M535,92.9c-0.4,0-0.7,0.3-0.7,0.7c0,0.4,0.3,0.7,0.7,0.7c0.4,0,0.7-0.3,0.7-0.7
			C535.7,93.2,535.4,92.9,535,92.9z"/>
	</g>
	<circle class="st0" cx="535" cy="89.2" r="1.8"/>
	<g>
		<path class="st2" d="M535,91.6c-1.3,0-2.4-1.1-2.4-2.4s1.1-2.4,2.4-2.4c1.3,0,2.4,1.1,2.4,2.4S536.3,91.6,535,91.6z M535,87.9
			c-0.7,0-1.3,0.6-1.3,1.3c0,0.7,0.6,1.3,1.3,1.3c0.7,0,1.3-0.6,1.3-1.3C536.3,88.5,535.7,87.9,535,87.9z"/>
	</g>
	<path class="st0" d="M535,71.8c-3.3,0-6,2.7-6,6.1c0,3.3,6,10.7,6,10.7s6.1-7.4,6.1-10.7C541.1,74.5,538.4,71.8,535,71.8z M535,80
		c-1.3,0-2.3-1-2.3-2.3c0-1.3,1-2.3,2.3-2.3c1.3,0,2.3,1,2.3,2.3C537.3,79,536.3,80,535,80z"/>
	<g>
		<path class="st2" d="M535,89.5l-0.4-0.5c-0.3-0.3-6.2-7.6-6.2-11.1c0-3.6,3-6.6,6.6-6.6c3.6,0,6.6,3,6.6,6.6
			c0,3.5-5.9,10.8-6.2,11.1L535,89.5z M535,72.4c-3,0-5.5,2.5-5.5,5.5c0,2.4,3.6,7.5,5.5,9.8c1.9-2.4,5.5-7.5,5.5-9.8
			C540.5,74.8,538.1,72.4,535,72.4z M535,80.6c-1.6,0-2.8-1.3-2.8-2.8c0-1.6,1.3-2.8,2.8-2.8c1.6,0,2.8,1.3,2.8,2.8
			C537.9,79.3,536.6,80.6,535,80.6z M535,76c-1,0-1.7,0.8-1.7,1.7c0,1,0.8,1.7,1.7,1.7c1,0,1.7-0.8,1.7-1.7
			C536.8,76.8,536,76,535,76z"/>
	</g>
	<path class="st2" d="M266.1,105.4V91.9h18.3v13.4H266.1z M282.2,104l-4.7-5.2l-2.2,1.8l-2.2-1.8l-4.7,5.2H282.2z M283,102.8v-8.7
		l-4.5,3.7L283,102.8z M267.5,102.8l4.5-5l-4.5-3.7V102.8z M275.3,98.7l6.5-5.4h-13L275.3,98.7z"/>
	<path class="st2" d="M266.4,92.2v12.8h17.7V92.2H266.4z M275.3,99.1L268,93h14.7L275.3,99.1z M272.4,97.8l-5.2,5.8V93.5L272.4,97.8
		z M273,98.3l2.2,1.9l2.2-1.9l5.3,5.9h-15.1L273,98.3z M278.1,97.8l5.2-4.3v10.1L278.1,97.8z"/>
	<path class="st2" d="M388.1,70.6c1-1.3,1.5-3,1.5-4.8c0-4.3-3.2-7.6-7.5-7.6h-1.6c-4.4,0-7.9,3.3-8,7.6c0,4.3,3.6,7.8,8,7.8h1.6
		c0.5,0,1,0,1.5-0.1l6.4,1.7L388.1,70.6z M382.1,72.1h-1.6c-3.6,0-6.5-2.9-6.5-6.4c0-3.4,2.9-6.1,6.5-6.1h1.6c3.5,0,6.1,2.6,6.1,6.2
		c0,1.7-0.5,3.2-1.4,4.2l-0.3,0.3l1.1,2.7l-3.9-1l-0.2,0l-0.1,0C383,72.1,382.6,72.1,382.1,72.1z"/>
	<path class="st2" d="M385.1,61.1c-0.2-0.1-0.4-0.1-0.6,0c-0.1,0.2-0.1,0.4,0,0.6c1.3,1.1,2,2.8,2,4.7c0,0.2,0.2,0.4,0.4,0.4
		c0.2,0,0.4-0.2,0.4-0.4C387.4,64.3,386.6,62.4,385.1,61.1z"/>
	<path class="st2" d="M375.7,57.3h-1.6c-4.5,0-8.2,3.4-8.2,7.5c0,2,1,3.7,1.8,4.8l-1.5,4.4l6.3-1.5c0.5,0.1,1,0.2,1.6,0.2h1.6
		c4.4,0,8.1-3.6,8.1-7.9C383.8,60.6,380.2,57.3,375.7,57.3z M375.7,71.3h-1.6c-0.5,0-1-0.1-1.5-0.2l-0.1,0l-4.1,1l0.9-2.8l-0.3-0.3
		c-0.8-0.9-1.7-2.4-1.8-4.2c0-3.4,3.1-6.1,6.8-6.1h1.6c3.7,0,6.7,2.7,6.7,6.1C382.4,68.3,379.3,71.3,375.7,71.3z"/>
	<circle class="st2" cx="370.8" cy="64.9" r="1.3"/>
	<circle class="st2" cx="374.7" cy="64.9" r="1.3"/>
	<circle class="st2" cx="378.7" cy="64.9" r="1.3"/>
	<g id="XMLID_48_">
		<g>
			<rect x="620.1" y="196.8" class="st2" width="6.4" height="1.5"/>
		</g>
	</g>
	<g id="XMLID_187_">
		<g>
			<rect x="241.3" y="196.8" class="st2" width="375.3" height="1.5"/>
		</g>
	</g>
</g>
</svg>
