<?xml version="1.0" encoding="utf-8"?>
<!-- Generator: Adobe Illustrator 16.2.0, SVG Export Plug-In . SVG Version: 6.00 Build 0)  -->
<!DOCTYPE svg PUBLIC "-//W3C//DTD SVG 1.1//EN" "http://www.w3.org/Graphics/SVG/1.1/DTD/svg11.dtd">
<svg version="1.1" id="Layer_1" xmlns="http://www.w3.org/2000/svg" xmlns:xlink="http://www.w3.org/1999/xlink" x="0px" y="0px"
	 width="170.079px" height="180.281px" viewBox="0 0 170.079 180.281" enable-background="new 0 0 170.079 180.281"
	 xml:space="preserve">
<g>
	<rect x="0" fill="none" width="170.078" height="170.079"/>
	<g>
		<path fill="#FFFFFF" d="M110.14,137.013c-1.341,1.66-3.331,2.574-5.392,2.574c-0.677,0-1.36-0.102-2.031-0.305l-83.131-25.49
			c-2.756-0.668-5.919-1.653-8.668-1.869c-1.389,0.682-1.438,2.147-1.58,3.112c-2.049,13.854,11.226,19.464,11.226,19.464
			l84.185,25.813l58.394-72.941V71.563L110.14,137.013z"/>
		<g>
			<path fill="#FFFFFF" d="M105.088,106.485c-1.199,1.471-3.008,2.297-4.864,2.297c-0.541,0-1.09-0.061-1.632-0.209L19.874,84.825
				c-2.967-0.701-6.411-1.787-9.313-1.996c-1.525,0.752-1.686,2.477-1.653,4.251c0.26,14.214,7.3,16.813,11.657,18.384
				c21.607,7.782,84.185,25.813,84.185,25.813l58.394-72.941V37.916L105.088,106.485z"/>
		</g>
		<g>
			<path fill="#D7171A" d="M18.297,113.467c0.119,0.03,0.24,0.062,0.358,0.092C18.538,113.528,18.417,113.497,18.297,113.467z"/>
			<polygon fill="#D7171A" points="155.863,80.552 110.14,137.013 155.863,80.552 			"/>
			<path fill="#D7171A" d="M10.921,111.923c2.244,0.178,4.76,0.864,7.109,1.475C15.681,112.786,13.165,112.1,10.921,111.923z"/>
			<path fill="#D7171A" d="M164.863,82.86l-1.721-0.441v4.952l-58.394,72.941l-84.185-25.813c0,0-13.274-5.609-11.226-19.464
				c0.143-0.965,0.191-2.431,1.58-3.112c-4.304-0.336-7.589,1.221-6.678,8.883c0.687,5.771,3.993,13.885,13.657,17.662
				l83.894,25.725c0.671,0.203,1.355,0.305,2.032,0.305c2.06,0,4.051-0.914,5.392-2.574l58.393-72.107
				C168.081,89.233,171.532,84.878,164.863,82.86z"/>
		</g>
		<path fill="#ECEBEC" d="M104.749,139.587v20.726l58.394-72.941V71.563l-53.002,65.449
			C108.799,138.673,106.809,139.587,104.749,139.587z"/>
		<path fill="#ECEBEC" d="M104.749,106.856v24.42l58.394-72.941V37.916l-58.054,68.569
			C104.981,106.616,104.865,106.735,104.749,106.856z"/>
		<path fill="none" stroke="#3C3835" stroke-width="2" stroke-linecap="round" stroke-linejoin="round" stroke-miterlimit="10" d="
			M163.142,103.175"/>
		<path fill="none" d="M105.846,28.634c-0.088-0.515-0.439-0.928-0.968-1.117l-0.108-0.041c-0.516-0.183-1.179-0.135-1.788,0.136
			c-3.672,1.646-7.845,2.845-11.895,3.996c-8.737,2.438-17.922,4.958-23.652,11.989c-5.344,6.367-4.294,12.449,2.804,14.766
			c2.886,0.935,6.469,0.514,9.543-0.225c0,0,0,0.996,0,2.277c-5.56,4.648-10.79,7.434-10.79,7.434l-0.031,0.004
			c4.529,0.912,8.681,2.349,12.454,4.252c-0.04-3.65,1.436-8.357,3.027-12.469c0.962,1.998,2.676,4.077,5.662,5.006
			c7.613,2.322,16.134-0.516,20.477-6.883c4.626-7.03,1.327-13.58-1.619-19.92C107.641,34.845,106.319,31.743,105.846,28.634z"/>
		<path fill="none" d="M108.962,40.114c-1.321-2.994-2.643-6.096-3.116-9.205c-0.088-0.514-0.439-0.928-0.968-1.117l-0.108-0.041
			c-0.516-0.182-1.179-0.135-1.788,0.137c-3.672,1.645-7.845,2.844-11.895,3.996c-8.737,2.438-17.922,4.957-23.652,11.988
			c-1.911,2.275-2.984,4.51-3.271,6.553c0.457,2.639,2.494,4.768,6.075,5.938c2.886,0.935,6.469,0.514,9.543-0.225
			c-4.206,3.313-9.339,6.93-14.068,9.151c1.105,0.154,2.183,0.349,3.247,0.563c4.529,0.912,8.681,2.349,12.454,4.252
			c-0.04-3.65,1.436-8.357,3.027-12.469c0.962,1.998,2.676,4.077,5.662,5.006c7.613,2.322,16.134-0.516,20.477-6.883
			c1.404-2.135,2.071-4.225,2.246-6.279C112.512,47.585,110.681,43.813,108.962,40.114z"/>
		<path fill="#A51A17" d="M91.087,33.884c4.05-1.152,8.223-2.352,11.895-3.996c0.609-0.271,1.272-0.318,1.788-0.137l0.108,0.041
			c0.528,0.189,0.88,0.604,0.968,1.117c0.473,3.109,1.795,6.211,3.116,9.205c1.719,3.699,3.55,7.471,3.865,11.365
			c0.401-4.709-1.813-9.227-3.865-13.641c-1.321-2.994-2.643-6.096-3.116-9.205c-0.088-0.515-0.439-0.928-0.968-1.117l-0.108-0.041
			c-0.516-0.183-1.179-0.135-1.788,0.136c-3.672,1.646-7.845,2.845-11.895,3.996c-8.737,2.438-17.922,4.958-23.652,11.989
			c-2.647,3.154-3.721,6.236-3.271,8.828c0.287-2.043,1.36-4.277,3.271-6.553C73.166,38.841,82.35,36.321,91.087,33.884z"/>
		<path fill="none" d="M64.164,52.425c0.286-2.043,1.36-4.276,3.271-6.553c5.73-7.031,14.915-9.551,23.652-11.988
			c4.05-1.152,8.223-2.352,11.895-3.996c0.609-0.271,1.272-0.318,1.788-0.137l0.108,0.041c0.528,0.189,0.88,0.604,0.968,1.117
			c0.473,3.109,1.795,6.211,3.116,9.205c1.719,3.699,3.551,7.471,3.865,11.365l0,0c0.401-4.709-1.813-9.227-3.865-13.641
			c-1.321-2.994-2.643-6.096-3.116-9.205c-0.088-0.515-0.439-0.928-0.968-1.117l-0.108-0.041c-0.516-0.183-1.179-0.135-1.788,0.136
			c-3.672,1.646-7.845,2.845-11.895,3.996c-8.737,2.438-17.922,4.958-23.652,11.989C64.788,46.751,63.714,49.833,64.164,52.425
			L64.164,52.425z"/>
		<path fill="none" d="M75.88,61.079c-3.279,2.366-6.821,4.639-10.166,6.21c1.105,0.154,2.183,0.349,3.247,0.563
			c0.004,0,0.008,0.002,0.012,0.002c3.746-2.141,7.554-4.877,10.809-7.439C78.539,60.714,77.211,60.954,75.88,61.079z"/>
		<path fill="#D7171A" d="M165.12,21.271L78.286,1.589c-2.242-0.461-4.578,0.297-6.089,2.045L9.815,71.929
			c-1.422,1.619-3.291,3.08-7.846,9.033c2.825-3.548,7.859-3.527,16.748-1.025l78.719,23.748c0.542,0.148,1.09,0.209,1.631,0.209
			c1.857,0,3.665-0.826,4.865-2.296l63.566-75.081C168.887,24.823,169.331,22.351,165.12,21.271z M67.435,43.597
			c5.73-7.031,14.915-9.551,23.652-11.989c4.05-1.151,8.223-2.351,11.895-3.996c0.609-0.271,1.272-0.318,1.788-0.136l0.108,0.041
			c0.528,0.189,0.88,0.603,0.968,1.117c0.473,3.109,1.795,6.211,3.116,9.205c2.052,4.414,4.267,8.932,3.865,13.641l0,0
			c-0.175,2.055-0.842,4.145-2.246,6.279c-4.343,6.367-12.863,9.205-20.477,6.883c-2.986-0.929-4.7-3.008-5.662-5.006
			c-1.592,4.111-3.067,8.818-3.027,12.469c-3.771-1.902-7.918-3.337-12.442-4.25c-0.004,0-0.008-0.002-0.012-0.002
			c-1.064-0.215-2.142-0.409-3.247-0.563c3.345-1.571,6.887-3.844,10.166-6.21c1.356-0.979,2.671-1.972,3.902-2.941
			c-3.075,0.738-6.658,1.159-9.543,0.225c-3.582-1.17-5.617-3.298-6.075-5.938l0,0C63.714,49.833,64.788,46.751,67.435,43.597z"/>
		<path fill="#D7171A" d="M164.863,53.823l-1.721-0.44v4.952l-58.394,72.941c0,0-62.577-18.03-84.185-25.813
			c-4.357-1.57-11.397-4.17-11.657-18.384c-0.032-1.774,0.128-3.499,1.653-4.251c0.13,0.01,0.269,0.029,0.402,0.043
			c0.002-0.004,0.004-0.006,0.005-0.009c-4.24-0.413-7.453,0.87-6.583,7.632c0.741,5.766,2.63,14.59,13.514,18.936l83.894,25.725
			c0.671,0.205,1.355,0.306,2.032,0.306c2.06,0,4.051-0.913,5.392-2.573l58.393-72.109
			C168.081,60.198,171.532,55.842,164.863,53.823z"/>
		<g>
			<path fill="#D7171A" d="M5.783,105.29c-1.019,1.171-2.257,2.673-3.814,4.709c1.317-1.655,3.124-2.525,5.569-2.737
				C6.913,106.631,6.328,105.973,5.783,105.29z"/>
		</g>
		<path fill="#A51A17" d="M169.726,58.362c-0.266-0.803-0.674-1.531-1.189-2.17c1.142,1.987-0.603,4.186-0.928,4.586l-58.393,72.109
			c-1.151,1.425-2.783,2.295-4.525,2.514c-4.129-1.249-40.85-12.348-68.059-20.226l-18.733-5.745
			c-0.632-0.252-1.227-0.521-1.798-0.803c-0.186-0.091-0.357-0.188-0.536-0.281c-0.378-0.197-0.749-0.398-1.101-0.607
			c-0.191-0.114-0.376-0.231-0.561-0.349c-0.32-0.203-0.629-0.411-0.926-0.623c-0.174-0.123-0.346-0.245-0.511-0.372
			c-0.299-0.227-0.583-0.461-0.859-0.697c-0.135-0.114-0.276-0.228-0.408-0.346c-0.36-0.324-0.701-0.656-1.023-0.994
			c-0.032-0.035-0.07-0.068-0.103-0.103c-0.34-0.364-0.656-0.735-0.958-1.11c-0.114-0.145-0.217-0.289-0.326-0.434
			c-0.182-0.242-0.36-0.484-0.528-0.73c-0.115-0.17-0.227-0.342-0.335-0.515c-0.141-0.222-0.277-0.445-0.406-0.669
			c-0.106-0.186-0.212-0.37-0.312-0.556c-0.114-0.212-0.22-0.425-0.324-0.638c-0.096-0.195-0.195-0.39-0.283-0.585
			c-0.087-0.19-0.162-0.38-0.242-0.571c-0.209-0.496-0.398-0.992-0.566-1.485c-0.024-0.071-0.052-0.144-0.076-0.216
			c-0.095-0.289-0.18-0.576-0.262-0.862c-0.027-0.095-0.058-0.188-0.083-0.284c-0.082-0.297-0.159-0.592-0.23-0.885
			c-0.016-0.064-0.03-0.129-0.046-0.193c-0.075-0.32-0.146-0.637-0.209-0.948v0.001c-0.222-1.086-0.382-2.127-0.504-3.08
			c-1.447-11.245,8.396-7.347,15.489-5.67l78.719,23.748c0.542,0.148,1.091,0.209,1.632,0.209c1.856,0,3.665-0.826,4.864-2.297
			l63.566-75.081c1.389-1.693,1.794-3.996,1.071-6.056c-0.411-1.197-1.176-2.207-2.154-2.943c1.442,1.223,0.942,2.873-0.073,4.111
			l-63.566,75.081c-1.2,1.47-3.008,2.296-4.865,2.296c-0.541,0-1.089-0.061-1.631-0.209L18.717,79.937
			c-8.75-2.462-13.76-2.514-16.61,0.869c-3.879,5.478-2.585,18.406,5.474,26.499c-0.064-0.009-0.137-0.021-0.189-0.024
			c-2.286,0.227-4.004,1.045-5.283,2.559c-5.264,7.423-1.029,28.566,16.713,32.754l83.895,25.726
			c0.671,0.204,1.354,0.305,2.031,0.305c2.061,0,4.051-0.913,5.392-2.573l58.394-72.109c1.482-1.836,1.937-4.301,1.192-6.543
			c-0.266-0.801-0.674-1.531-1.189-2.17c1.142,1.988-0.603,4.187-0.928,4.588l-58.393,72.107c-1.341,1.66-3.332,2.574-5.392,2.574
			c-0.677,0-1.361-0.102-2.032-0.305l-83.894-25.725c-9.665-3.777-12.971-11.891-13.657-17.662
			c-1.492-12.555,8.273-8.729,15.346-7.014l83.131,25.49c0.671,0.203,1.354,0.305,2.031,0.305c2.061,0,4.051-0.914,5.392-2.574
			l58.394-72.107C170.016,63.069,170.47,60.604,169.726,58.362z"/>
		<path fill="#201D1A" d="M108.962,40.114c-1.321-2.994-2.643-6.096-3.116-9.205c-0.088-0.514-0.439-0.928-0.968-1.117l-0.108-0.041
			c-0.516-0.182-1.179-0.135-1.788,0.137c-3.672,1.645-7.845,2.844-11.895,3.996c-8.737,2.438-17.922,4.957-23.652,11.988
			c-1.911,2.276-2.986,4.51-3.271,6.553c0.458,2.64,2.494,4.768,6.075,5.938c2.886,0.935,6.469,0.514,9.543-0.225
			c0,0,0,0.996,0,2.277c-5.56,4.648-10.79,7.434-10.79,7.434L68.98,67.85c-0.002,0.001-0.005,0.003-0.007,0.005
			c4.524,0.913,8.672,2.348,12.442,4.25c-0.04-3.65,1.436-8.357,3.027-12.469c0.962,1.998,2.676,4.077,5.662,5.006
			c7.613,2.322,16.134-0.516,20.477-6.883c1.404-2.135,2.071-4.225,2.246-6.279C112.513,47.585,110.681,43.813,108.962,40.114z"/>
		<path fill="#201D1A" d="M77.887,59.599c0.647-0.49,1.284-0.979,1.895-1.461C79.17,58.62,78.537,59.108,77.887,59.599z"/>
		<path fill="#201D1A" d="M75.884,61.076c0.67-0.483,1.328-0.968,1.972-1.454C77.211,60.106,76.553,60.594,75.884,61.076z"/>
		<path fill="#A51A17" d="M79.782,60.415c0-1.281,0-2.277,0-2.277c-0.611,0.482-1.248,0.971-1.895,1.461
			c-0.011,0.008-0.021,0.016-0.031,0.023c-0.644,0.486-1.302,0.971-1.972,1.454c-3.279,2.368-6.823,4.642-10.17,6.213
			c1.105,0.154,2.183,0.349,3.247,0.563l0.019-0.003l0.013-0.001C68.993,67.849,74.222,65.063,79.782,60.415z"/>
		<polygon points="72.199,148.916 72.199,150.131 63.356,147.248 59.963,150.907 59.792,150.852 59.792,151.092 58.539,152.443 
			59.792,152.852 59.792,156.104 59.733,156.168 58.539,157.447 58.539,157.447 43.051,174.052 40.662,174.861 40.662,176.612 
			51.395,172.973 51.914,180.281 68.616,162.376 69.792,161.115 71.044,159.772 71.044,154.76 74.608,150.916 74.608,148.916 		"/>
		<polygon fill="#201D1A" points="51.914,178.53 51.395,171.222 40.662,174.861 58.539,155.696 69.792,159.364 		"/>
		<polygon fill="#35302B" points="58.539,150.443 69.792,154.111 69.792,159.364 58.539,155.696 		"/>
		<g>
			<polygon fill="#201D1A" points="63.356,145.248 58.539,150.443 69.792,154.111 74.608,148.916 			"/>
		</g>
	</g>
</g>
</svg>
