<?xml version="1.0" encoding="utf-8"?>
<!-- Generator: Adobe Illustrator 16.0.3, SVG Export Plug-In . SVG Version: 6.00 Build 0)  -->
<!DOCTYPE svg PUBLIC "-//W3C//DTD SVG 1.1//EN" "http://www.w3.org/Graphics/SVG/1.1/DTD/svg11.dtd">
<svg version="1.1" id="Capa_1" xmlns="http://www.w3.org/2000/svg" xmlns:xlink="http://www.w3.org/1999/xlink" x="0px" y="0px"
	 width="795.586px" height="415.246px" viewBox="0 0 795.586 415.246" enable-background="new 0 0 795.586 415.246"
	 xml:space="preserve">
<rect x="-4.334" display="none" fill="#2E2D33" width="799.92" height="800.234"/>
<path fill-rule="evenodd" clip-rule="evenodd" fill="#35343A" d="M775.6,87.873V75.858c0.435,0.255,0.851,0.537,1.242,0.85
	c3.897,3.117,8.183,6.235,14.029,6.235c5.846,0,0,9.352-3.897,10.521c-3.896,1.169-3.896-2.728-7.405-4.676
	C778.246,88.054,776.81,87.762,775.6,87.873L775.6,87.873z M775.6,68.743v-3.756l0.09,0.004c2.193-0.146,5.118,3.802,0.731,3.802
	C776.134,68.794,775.859,68.776,775.6,68.743z M775.6,64.987v3.756C771.913,68.279,771.057,64.766,775.6,64.987L775.6,64.987z
	 M775.6,75.858v12.015c-1.997,0.184-3.383,1.46-2.656,3.644c0.506,1.516-0.081,1.867-1.194,1.619V74.25
	C773.124,74.671,774.434,75.171,775.6,75.858L775.6,75.858z M771.749,304.525v-3.267c1.026-0.324,1.766,0.254,1.547,1.344
	C773.116,303.51,772.491,304.549,771.749,304.525L771.749,304.525z M771.749,99.802v-3.425
	C773.968,97.953,774.029,99.25,771.749,99.802z M771.749,74.25v18.885c-1.31-0.292-3.348-1.413-5.191-2.438V72.873
	C768.293,73.343,770.069,73.737,771.749,74.25L771.749,74.25z M771.749,96.377v3.425c-0.765,0.186-1.792,0.288-3.091,0.288
	c-0.761,0-1.458,0.058-2.101,0.167V93.24c0.786,0.603,1.749,1.219,2.879,1.784C770.368,95.49,771.141,95.944,771.749,96.377
	L771.749,96.377z M771.749,301.258v3.267c-0.271-0.009-0.563-0.161-0.852-0.517c-1.075-1.323-0.992-2.149,0.414-2.563
	C771.463,301.365,771.609,301.304,771.749,301.258L771.749,301.258z M766.558,361.606v-4.685
	C767.163,358.318,767.068,360.119,766.558,361.606L766.558,361.606z M766.558,306.342v-3.267c1.024-0.324,1.765,0.254,1.547,1.344
	C767.923,305.327,767.3,306.366,766.558,306.342z M766.558,72.873v17.825l-0.627-0.35c-2.782-1.545-2.378,0.584,0.627,2.892v7.016
	c-2.472,0.417-4.123,1.581-5.439,3.044V70.81c0.308,0.145,0.613,0.292,0.915,0.442C763.436,71.954,764.979,72.445,766.558,72.873
	L766.558,72.873z M766.558,303.075v3.267c-0.272-0.008-0.563-0.161-0.852-0.516c-1.075-1.323-0.992-2.15,0.414-2.564
	C766.271,303.182,766.418,303.121,766.558,303.075L766.558,303.075z M766.558,356.922v4.685c-0.625,1.826-1.878,3.181-3.228,2.731
	c-0.922-0.308-1.64-0.637-2.212-1.063v-13.163c0.743,2.006,1.581,4.087,3.51,4.881C765.569,355.381,766.192,356.078,766.558,356.922
	z M761.118,70.81V103.3c-1.142,1.269-2.029,2.764-2.981,4.195c-0.23,0.344-0.459,0.607-0.69,0.807V69.362
	C758.563,69.7,759.847,70.215,761.118,70.81L761.118,70.81z M761.118,350.112v13.163c-1.364-1.016-1.913-2.578-2.461-5.686
	c-0.201-1.137-0.676-2.445-1.211-3.77v-8.257C759.54,345.619,760.269,347.816,761.118,350.112L761.118,350.112z M757.446,370.99
	c2.847-3.175,2.987-7.867,0-8.417V370.99z M757.446,69.362v38.939c-1.69,1.457-3.44-0.668-5.685-1.587V74.571
	c6.737,2.087,6.281,1.23,3.256-2.929C752.939,68.783,754.674,68.524,757.446,69.362L757.446,69.362z M757.446,345.562v8.257
	c-1.54-3.822-3.564-7.786-0.866-8.171C756.893,345.583,757.181,345.555,757.446,345.562L757.446,345.562z M757.446,362.574v8.417
	l-0.087,0.097c-1.339,1.451-3.493,2.853-5.598,4.332v-6.501c2.217-1.726-0.551-5.721,5.079-6.396
	C757.055,362.521,757.257,362.539,757.446,362.574L757.446,362.574z M751.762,251.052v-3.268c1.024-0.325,1.766,0.254,1.548,1.344
	C753.128,250.036,752.505,251.075,751.762,251.052z M751.762,74.571v32.144c-0.568-0.233-1.169-0.39-1.81-0.39
	c-0.42,0-0.794,0.034-1.138,0.091V73.705c0.637,0.16,1.395,0.377,2.307,0.666L751.762,74.571L751.762,74.571z M751.762,247.785
	v3.268c-0.273-0.008-0.562-0.161-0.852-0.517c-1.074-1.324-0.992-2.15,0.414-2.564C751.475,247.891,751.621,247.829,751.762,247.785
	L751.762,247.785z M751.762,368.917v6.501c-1.027,0.723-2.044,1.463-2.947,2.237v-7.719c0.496-0.154,1.009-0.291,1.535-0.408
	C750.97,369.392,751.423,369.18,751.762,368.917L751.762,368.917z M748.814,306.745v-4.648c2.38,1.728,3.973,4.874,1.276,4.874
	C749.657,306.97,749.229,306.888,748.814,306.745L748.814,306.745z M748.814,128.015v-2.417c1.771,1.207,3.495,3.112,1.723,3.008
	C749.965,128.572,749.37,128.345,748.814,128.015z M748.814,73.705v32.712c-2.523,0.424-3.318,2.153-7.435,1.468l-0.291-0.051
	v-4.283c3.189-1.503,1.846-3.436,0-3.348V73.921c0.349,0.007,0.705,0.025,1.069,0.058C745.917,74.321,744.282,72.566,748.814,73.705
	L748.814,73.705z M748.814,125.598v2.417c-1.861-1.104-3.284-3.358-1.934-3.358C747.383,124.741,748.103,125.113,748.814,125.598
	L748.814,125.598z M748.814,302.096v4.648c-3.069-1.058-5.361-5.516-2.617-5.745C747.066,301.066,747.987,301.497,748.814,302.096
	L748.814,302.096z M748.814,369.937v7.719c-1.548,1.325-2.763,2.745-3.137,4.333c-1.038,4.413-2.076-4.154-2.854-6.49
	C742.131,373.427,744.914,371.15,748.814,369.937L748.814,369.937z M741.089,315.86v-4.638c3.335,0.717,7.581,5.114,3.292,5.352
	C743.234,316.639,742.09,316.343,741.089,315.86L741.089,315.86z M741.089,114.889v-2.907c2.016,0.387,2.988,3.023,0.819,3.023
	C741.628,115.005,741.353,114.963,741.089,114.889z M741.089,73.921v26.281c-0.544,0.026-1.131,0.227-1.658,0.667
	c-0.985,0.82-2.453,1.641-3.91,2.142V74.611C737.202,74.262,739.009,73.878,741.089,73.921L741.089,73.921z M741.089,103.55v4.283
	c-4.385-0.795-4.296-2.329-0.1-4.236L741.089,103.55L741.089,103.55z M741.089,111.982v2.907c-1.938-0.544-3.2-2.826-0.496-2.954
	C740.764,111.935,740.93,111.951,741.089,111.982L741.089,111.982z M741.089,311.223v4.638c-3.08-1.483-4.781-4.737-0.862-4.737
	C740.502,311.123,740.792,311.159,741.089,311.223L741.089,311.223z M735.521,293.039v-3.127c1.598,1.301,2.767,3.167,0.563,3.167
	C735.896,293.079,735.708,293.064,735.521,293.039L735.521,293.039z M735.521,128.821c2.368,0.166,0.901-7.703,2.877-7.966
	c1.761-0.234-0.433-7.148-2.877-9.725V128.821L735.521,128.821z M735.521,70.694v-2.611c2.311,0.28,3.131,2.758,0.978,2.758
	C736.172,70.841,735.84,70.788,735.521,70.694z M735.521,68.083v2.611c-1.979-0.573-3.526-2.632-0.632-2.632
	C735.11,68.051,735.32,68.059,735.521,68.083L735.521,68.083z M735.521,74.611v28.399c-2.004,0.688-3.987,0.771-4.665-0.582
	c-0.623-1.248-2.134-2.163-3.881-2.034v-29.59c1.53,2.086,2.982,4.344,4.662,4.344C732.904,75.149,734.174,74.891,735.521,74.611
	L735.521,74.611z M735.521,111.13v17.691c-0.26-0.018-0.564-0.131-0.924-0.361c-3.656-2.34-2.34,0.585-4.241,3.509
	c-0.681,1.048-1.98,1.739-3.381,2.073v-19.154c2.46-2.746,3.827-4.933,6.744-4.708C734.298,110.122,734.917,110.495,735.521,111.13
	L735.521,111.13z M735.521,289.912v3.127c-3.208-0.435-6.315-4.358-2.482-4.358C733.688,288.681,734.665,289.216,735.521,289.912
	L735.521,289.912z M726.975,285.896v-3.256c3.453,1.022,6.97,3.27,4.035,3.603C729.886,286.371,728.411,286.215,726.975,285.896z
	 M726.975,70.805v29.59c-1.529,0.112-3.236,1.021-4.691,3.203c-1.236,1.854-2.352,3.77-3.487,5.286V67.346
	c1.485,0.043,2.835,0.009,3.876,0.009C724.293,67.355,725.661,69.017,726.975,70.805L726.975,70.805z M726.975,114.888v19.154
	c-2.512,0.601-5.353,0.056-5.54-1.634c-0.293-2.633,1.024-5.85,0.146-8.043c-0.877-2.194-1.608-3.071,2.779-6.874
	C725.382,116.606,726.229,115.721,726.975,114.888L726.975,114.888z M726.975,282.64v3.256c-3.751-0.832-7.245-2.777-3.575-3.714
	C724.336,282.036,725.65,282.248,726.975,282.64L726.975,282.64z M718.796,328.407v-3.267c1.024-0.325,1.765,0.254,1.547,1.345
	C720.161,327.391,719.538,328.43,718.796,328.407L718.796,328.407z M718.796,277.715v-1.236
	C719.16,277.04,719.226,277.496,718.796,277.715z M718.796,67.346v41.538c-1.17,1.558-2.363,2.691-3.739,2.9v-44.75
	C716.33,67.227,717.606,67.311,718.796,67.346L718.796,67.346z M718.796,276.479v1.236c-0.18,0.092-0.445,0.142-0.808,0.142
	c-0.925,0-1.954-0.353-2.932-0.885v-3.741C716.55,274.161,718.146,275.485,718.796,276.479L718.796,276.479z M718.796,325.14v3.267
	c-0.274-0.008-0.563-0.161-0.852-0.517c-1.075-1.324-0.993-2.15,0.414-2.564C718.507,325.246,718.654,325.185,718.796,325.14
	L718.796,325.14z M715.057,336.253v-11.278C715.938,328.142,715.793,332.336,715.057,336.253z M715.057,67.035v44.75
	c-0.661,0.1-1.364-0.011-2.126-0.393c-3.537-1.769-6.433-0.648-10.434-0.425V63.685c1.271-1.438,2.874-2.042,5.756,0.552
	C710.067,65.871,712.558,66.658,715.057,67.035L715.057,67.035z M715.057,273.231v3.741c-3.139-1.706-5.745-5.252-2.651-4.865
	C712.98,272.107,713.992,272.569,715.057,273.231L715.057,273.231z M715.057,324.975v11.278c-0.331,1.755-0.779,3.455-1.308,4.981
	c-1.847,5.337-6.454,15.216-11.252,17.578v-49.799c3.676,5.215,7.969,10.15,10.215,11.974
	C713.827,321.894,714.587,323.289,715.057,324.975L715.057,324.975z M702.497,368.842v-7.947c2.001-0.219,3.315,1.147,2.853,3.462
	C704.985,366.18,703.886,368.222,702.497,368.842L702.497,368.842z M702.497,285.299v-5.259c1.837,2.979,4.165,5.988,0.865,5.428
	C703.06,285.417,702.773,285.36,702.497,285.299L702.497,285.299z M702.497,49.151v-3.17c2.262,0.15,4.899,3.245,0.98,3.245
	C703.135,49.226,702.807,49.199,702.497,49.151z M693.127,154.294c1.03,1.042,1.033,2.404,2.062,2.642
	c1.351,0.311,3.94,1.333,1.955,2.498c-1.986,1.165-2.856,3.727-3.724,2.977c-0.086-0.072-0.183-0.163-0.293-0.264V154.294
	L693.127,154.294z M702.497,45.981v3.17c-3.313-0.517-4.539-3.526-0.167-3.176C702.385,45.975,702.44,45.978,702.497,45.981
	L702.497,45.981z M702.497,63.685v47.281c-0.408,0.022-0.826,0.035-1.257,0.035c-2.637,0-5.643-0.99-8.113-1.086V60.202
	c3.378-0.929,6.271-1.076,5.385,0.917c-1.559,3.508,1.168,6.625,2.729,4.288C701.645,64.799,702.05,64.19,702.497,63.685
	L702.497,63.685z M702.497,280.04v5.259c-4.263-0.933-5.503-2.835-7.838-2.2c-0.492,0.134-1.004,0.401-1.532,0.712v-12.079
	c2.944-0.155,8.087,1.363,7.748,4.264C700.756,277.021,701.563,278.527,702.497,280.04L702.497,280.04z M702.497,309.013v49.799
	c-1.271,0.625-2.554,0.726-3.804,0.074c-2.119-1.106-3.942-1.524-5.566-1.825v-64.883c1.263,0.56,2.459,2.009,2.972,4.669
	C696.694,299.947,699.373,304.582,702.497,309.013L702.497,309.013z M702.497,360.895v7.947c-0.908,0.405-1.942,0.202-2.974-1.069
	c-2.613-3.215-2.412-5.224,1.005-6.229C701.227,361.171,701.894,360.961,702.497,360.895L702.497,360.895z M693.127,168.795v-0.699
	C693.161,168.347,693.163,168.584,693.127,168.795L693.127,168.795z M693.127,153.034v-3.193c1.311,1.206,2.361,2.869,1.803,3.586
	C694.665,153.768,693.948,153.541,693.127,153.034L693.127,153.034z M693.127,145.321v-6.78c2.549,0.342,3.353,4.397,1.938,4.14
	c-1.479-0.268,0.537,4.567-1.881,2.686L693.127,145.321L693.127,145.321z M693.127,130.723v-2.387
	c2.41,0.283,2.877,2.652,0.729,2.525C693.609,130.847,693.363,130.797,693.127,130.723L693.127,130.723z M693.127,56.68v-2.444
	C693.953,54.972,694.044,56.029,693.127,56.68L693.127,56.68z M693.127,46.465v-4.567c1.006,0.342,1.625,1,1.625,2.183
	C694.752,45.188,694.103,45.939,693.127,46.465z M691.783,153.45c0.594,0.22,1.02,0.516,1.344,0.844v7.853
	c-1.016-0.939-2.918-2.834-1.994-0.816c1.022,2.234,0.853,2.833-0.203,2.75s-2.326-2.459-2.529-4.029
	c-0.203-1.569,2.074,0.301,2.728-1.242S689.813,152.531,691.783,153.45L691.783,153.45z M693.127,41.897v4.567
	c-1.898,1.021-5.038,1.181-7.073,1.42c-1.37,0.161-3.138-0.971-4.003-2.293v-2.723c0.575-0.545,1.664-0.92,3.46-0.963
	C688.399,41.675,691.359,41.296,693.127,41.897L693.127,41.897z M693.127,54.236v2.444c-0.445,0.316-1.128,0.537-2.08,0.579
	c-4.397,0.19-4.972-3.442-0.956-3.825C691.448,53.304,692.499,53.678,693.127,54.236L693.127,54.236z M693.127,60.202v49.713
	c-1.914-0.076-3.509,0.385-4.357,2.255c-1.552,3.411-3.594,7.314-6.719,9.16V64.767c1.239-0.261,2.426-0.76,3.989-1.698
	C687.722,62.06,690.564,60.905,693.127,60.202L693.127,60.202z M693.127,128.336v2.387c-1.955-0.62-3.356-3.013-0.479-2.414
	C692.815,128.309,692.975,128.318,693.127,128.336L693.127,128.336z M693.127,138.541v6.78c-2.36-1.924-2.344-7.47-0.346-6.804
	C692.899,138.517,693.014,138.526,693.127,138.541L693.127,138.541z M693.127,149.84c-0.898-0.827-1.919-1.438-2.629-1.384
	c-2.216,0.193,0.544,3.289,2.629,4.577V149.84L693.127,149.84z M693.127,168.096v0.699c-0.035,0.205-0.108,0.384-0.227,0.525
	c-0.873,1.048-1.146,2.771-1.333,4.446c-0.188,1.675-1.239,3.609-2.629,3.936c-1.388,0.326-2.649,0.497-3.002,1.526
	c-0.354,1.03-1.397,0.943-2.052-0.381c-0.419-0.846-0.896-1.805-1.834-2.147v-2.807c1.346,0.008,2.537,0.173,3.366-1.294
	c1.3-2.295,2.882-1.271,3.468-3.337c0.585-2.066,0.504-4.826,2.17-4.353C691.892,165.093,692.945,166.783,693.127,168.096
	L693.127,168.096z M693.127,271.733v12.079c-2.14,1.266-4.525,3.288-6.767,0.303c-1.271-1.331-2.908-3.504-4.31-5.764v-8.555
	c3.334,0.424,8.287,2.254,10.654,1.972C692.839,271.752,692.979,271.74,693.127,271.733L693.127,271.733z M693.127,292.178v64.883
	c-2.95-0.547-5.234-0.704-7.413-3.885c-1.609-2.353-2.745-5.413-3.663-7.689v-40.74c0.824,0.168,1.85,0.293,3.145,0.407
	c4.153-0.26,3.894-6.75,3.894-10.383C689.089,292.568,691.186,291.319,693.127,292.178L693.127,292.178z M682.051,181.065
	c1.097-1.203,1.302-1.507,0.543-2.573c-0.203-0.061-0.385-0.074-0.543-0.05V181.065L682.051,181.065z M682.051,150.495v-23.713
	c2.636,0.196,4.657,1.793,5.549,5.654c1.17,5.066-1.168,10.132-3.506,14.029C683.407,147.605,682.756,149.014,682.051,150.495z
	 M682.051,42.869v2.723C681.431,44.646,681.273,43.604,682.051,42.869L682.051,42.869z M682.051,64.767v56.563
	c-0.804,0.474-1.679,0.813-2.635,0.973c-0.268,0.044-0.514,0.102-0.746,0.17V65.04C679.987,65.035,681.036,64.98,682.051,64.767
	L682.051,64.767z M682.051,126.781v23.713c-0.955,2.001-2.01,4.133-3.381,5.912v-29.342c0.234-0.005,0.483-0.033,0.746-0.086
	C680.344,126.793,681.228,126.72,682.051,126.781L682.051,126.781z M682.051,173.893v2.807c-0.529-0.193-1.206-0.189-2.101,0.143
	c-0.541,0.201-0.968,0.251-1.28,0.193v-1.981c0.256-0.253,0.587-0.496,0.994-0.703C680.484,173.935,681.292,173.889,682.051,173.893
	L682.051,173.893z M682.051,178.442v2.623l-0.061,0.066C680.95,182.271,680.527,178.663,682.051,178.442L682.051,178.442z
	 M682.051,269.796v8.555c-2.52-4.06-4.278-8.396-1.779-8.612C680.775,269.682,681.381,269.711,682.051,269.796L682.051,269.796z
	 M682.051,304.747v40.74c-1.007-2.497-1.75-4.052-2.566-2.694c-0.967,1.614,0.069,2.826-0.814,2.39v-42.929
	C679.231,303.658,680.036,304.334,682.051,304.747L682.051,304.747z M678.67,183v-3.264C679.37,180.457,679.676,181.703,678.67,183z
	 M678.67,65.04v57.434c-3.556,1.044-3.033,4.665,0,4.591v29.342c-1.078,1.398-2.353,2.58-3.93,3.308
	c-1.084,0.5-2.096,0.75-3.036,0.869V65.575c0.91-0.329,1.915-0.558,3.036-0.558C676.319,65.017,677.586,65.045,678.67,65.04
	L678.67,65.04z M678.67,175.055v1.981C677.807,176.878,677.811,175.906,678.67,175.055L678.67,175.055z M678.67,179.736V183
	c-0.164,0.211-0.362,0.424-0.6,0.636c-2.741,2.447-3.518-4.937-1.179-4.471C677.461,178.97,678.167,179.218,678.67,179.736
	L678.67,179.736z M678.67,302.253v42.929c-0.538-0.265-1.788-1.141-4.637-2.909c-0.813-0.504-1.588-0.924-2.329-1.271v-49.464
	c0.081,0.034,0.164,0.072,0.252,0.116c3.116,1.558,4.934,3.894,5.972,8.047C678.188,300.751,678.402,301.584,678.67,302.253
	L678.67,302.253z M671.704,274.102v-3.629c2.034,1.08,4.56,4.002,1.802,4.002C672.9,274.474,672.284,274.333,671.704,274.102z
	 M671.704,65.575v95.009c-1.796,0.228-3.331-0.023-4.608,0.069V67.764C668.336,67.37,669.815,66.257,671.704,65.575L671.704,65.575z
	 M671.704,270.472v3.629c-2.663-1.062-4.575-4.025-1.242-4.025C670.806,270.077,671.242,270.227,671.704,270.472L671.704,270.472z
	 M671.704,291.539v49.464c-1.715-0.802-3.244-1.213-4.608-1.381v-44.907C669.686,294.218,669.079,290.434,671.704,291.539
	L671.704,291.539z M667.096,189.674v-3.558c0.055,0.024,0.111,0.051,0.165,0.083c1.074,0.403,2.955,5.239-0.134,3.492
	L667.096,189.674z M667.096,67.764v92.889c-1.182,0.085-2.143,0.464-2.877,1.79c-1.803,3.245-1.271,5.155-4.575,6.041V61.64
	c1.893,0.674,3.383,1.763,4.185,3.767C664.788,67.808,665.815,68.169,667.096,67.764L667.096,67.764z M667.096,186.116v3.558
	C664.153,187.987,665.551,185.445,667.096,186.116L667.096,186.116z M667.096,294.715v44.907c-3.411-0.418-5.791,0.692-7.452,1.063
	v-43.031c1.473,1.54,1.22,3.786,2.969,3.086c2.597-1.038,0.519-5.97,3.894-5.97C666.72,294.77,666.915,294.751,667.096,294.715
	L667.096,294.715z M659.644,205.918v-3.268c1.023-0.325,1.764,0.254,1.547,1.345C661.008,204.902,660.386,205.94,659.644,205.918
	L659.644,205.918z M659.644,185.044v-11.676c0.24,0.355,0.468,0.74,0.677,1.155c1.949,3.897,5.456,9.743,1.561,10.521
	C661.046,185.211,660.303,185.2,659.644,185.044L659.644,185.044z M659.644,60.942c0.903,0.118,1.852,0.225,2.856,0.35
	c4.348,0.544,1.737-4.23-1.646-3.923c-0.382,0.035-0.787-0.01-1.211-0.112V60.942z M659.644,57.257v3.685
	c-1.117-0.146-2.166-0.311-3.171-0.553v-4.56C657.576,56.461,658.659,57.018,659.644,57.257L659.644,57.257z M659.644,61.64
	c-0.965-0.343-2.035-0.58-3.171-0.775v121.388c0.662,1.39,1.706,2.446,3.171,2.791v-11.676c-2.009-2.987-4.712-3.994-0.882-4.69
	c0.321-0.058,0.614-0.124,0.882-0.195V61.64L659.644,61.64z M659.644,202.65v3.268c-0.273-0.008-0.563-0.16-0.852-0.517
	c-1.075-1.323-0.993-2.15,0.413-2.564C659.355,202.757,659.502,202.695,659.644,202.65L659.644,202.65z M659.644,297.653v43.031
	l-0.146,0.031c-0.768,0.154-1.852,0.013-3.024-0.163v-44.204C658.05,296.457,659.008,296.989,659.644,297.653z M656.473,55.829v4.56
	c-1.476-0.355-2.856-0.879-4.227-1.755v-5.084C653.592,54.083,655.051,55.017,656.473,55.829L656.473,55.829z M656.473,60.865
	c-1.337-0.229-2.766-0.403-4.227-0.627v114.648c1.453,1.129,3.169,2.249,3.397,4.314c0.122,1.09,0.394,2.143,0.829,3.053V60.865
	L656.473,60.865z M656.473,296.349v44.204c-1.412-0.209-2.952-0.467-4.227-0.32v-37.187c2.123-1.694-1.348-6.719,3.617-6.719
	C656.076,296.327,656.278,296.335,656.473,296.349L656.473,296.349z M652.246,287.3v-3.03c1.202-0.593,2.146-0.013,1.903,1.2
	C653.939,286.519,653.138,287.745,652.246,287.3L652.246,287.3z M652.246,251.685v-6.682c2.096-0.664,3.609,0.52,3.164,2.749
	C655.039,249.606,653.765,251.731,652.246,251.685z M652.246,53.549v5.084c-0.206-0.132-0.411-0.271-0.616-0.42
	c-3.262-2.356-4.531-4.892-2.464-4.843C650.047,52.93,651.105,53.096,652.246,53.549L652.246,53.549z M652.246,60.238v114.648
	c-1.014-0.787-1.898-1.58-2.058-2.701c-0.312-2.183-0.874-4.614-4.276-5.5V58.638c0.126,0.047,0.252,0.095,0.379,0.144
	C648.236,59.538,650.271,59.935,652.246,60.238L652.246,60.238z M652.246,245.003v6.682c-0.558-0.018-1.15-0.329-1.741-1.057
	c-2.199-2.706-2.029-4.397,0.846-5.243C651.658,245.221,651.958,245.094,652.246,245.003L652.246,245.003z M652.246,284.271v3.03
	c-0.162-0.082-0.328-0.219-0.495-0.424c-1.076-1.323-0.992-2.151,0.412-2.564L652.246,284.271L652.246,284.271z M652.246,303.046
	v37.187c-1.253,0.145-2.251,0.681-2.613,2.041c-0.568,2.132-1.994,3.174-3.721,3.639v-41.514c0.604-0.506,1.83-0.803,4.241-0.803
	C651.158,303.596,651.816,303.389,652.246,303.046L652.246,303.046z M645.912,273.164v-3.608c1.627,1.625,2.848,3.734,0.871,3.734
	C646.491,273.29,646.2,273.245,645.912,273.164L645.912,273.164z M645.912,235.378v-4.072c1.574,0.689,2.767,2.433,1.041,3.761
	C646.617,235.326,646.262,235.414,645.912,235.378L645.912,235.378z M645.912,226.091v-5.042
	C647.666,222.357,648.257,225.68,645.912,226.091L645.912,226.091z M645.912,213.583v-5.403c3.215,0.16,2.36,5.741,0.025,5.408
	L645.912,213.583z M645.912,58.638v108.048c-0.852-0.221-1.879-0.347-3.128-0.347c-6.235,0-7.404,6.235-3.509,6.235
	c3.897,0-1.557,8.574,1.56,12.081c3.118,3.507,6.625,10.521,3.507,13.64c-3.117,3.118-3.896,7.793-7.013,9.352
	c-3.119,1.559-9.743,7.015-15.198,7.015c-0.709,0-1.457,0.053-2.217,0.156V55.457c1.536-0.311,3.48-0.293,6.113,0.208
	C634.063,57.195,639.094,56.095,645.912,58.638L645.912,58.638z M645.912,208.18c-0.047-0.002-0.094-0.004-0.143-0.004
	c-3.033-0.505-2.204,5.032,0.143,5.407V208.18L645.912,208.18z M645.912,221.049v5.042c-0.286,0.05-0.613,0.058-0.989,0.012
	c-4.228-0.507-4.904-5.412-0.507-5.581C644.969,220.522,645.476,220.724,645.912,221.049L645.912,221.049z M645.912,231.306v4.072
	c-1.949-0.197-3.764-4.227-1.327-4.37C645.021,231.008,645.481,231.118,645.912,231.306L645.912,231.306z M645.912,269.556v3.608
	c-2.877-0.814-5.31-5.301-2.849-5.455C643.716,267.709,644.894,268.538,645.912,269.556L645.912,269.556z M645.912,304.398v41.514
	c-1.427,0.384-3.06,0.372-4.585,0.254c-3.375-0.259-5.972,2.856-8.307,1.298c-2.337-1.557,1.816-4.154-0.779-10.123
	c-2.597-5.971-2.337-12.46-4.153-15.575c-1.817-3.116,0.52-9.864,7.009-10.124c6.49-0.26,10.384-1.558,10.384-3.894
	C645.48,306.355,645.018,305.147,645.912,304.398L645.912,304.398z M619.914,283.289v-3.066c4.09,0.468,5.849,3.076,0.529,3.076
	C620.263,283.299,620.088,283.295,619.914,283.289L619.914,283.289z M619.914,268.802v-6.444c0.588-0.581,1.405-1.167,2.516-1.752
	c6.089-3.214,8.118-9.472,12.009-9.472c2.367-0.169,2.536,3.383,1.859,7.611c-0.677,4.228-7.102,15.221-9.301,15.052
	c-2.199-0.168-5.582-2.029-6.766-4.396C620.134,269.208,620.027,269.007,619.914,268.802L619.914,268.802z M619.914,222.093v-4.262
	c1.88,0.305,2.445,5.037,0.317,4.382C620.122,222.18,620.017,222.14,619.914,222.093L619.914,222.093z M619.914,50.271v-7.113
	c1.49,0.242,3.003,0.425,4.554,0.425c5.067,0,0.78,5.456-4.286,6.625L619.914,50.271z M619.914,43.159v7.113
	c-4.976,1.216-9.905,4.292-12.203,8.121c-2.338,3.897,2.339,5.066,5.456,1.948c2.116-2.115,3.514-4.229,6.747-4.884v159.362
	c-5.08,0.694-10.629,3.67-7.917,8.417c3.119,5.456,5.457,9.353,5.847,11.691c0.39,2.338-3.898,4.287-6.236,8.574
	c-2.338,4.286-5.455,1.948-8.572-1.56c-0.705-0.792-1.488-1.583-2.28-2.3V44.065c1.083-3.262,0.236-7.793,5.008-8.276
	c7.016,0-0.39,6.625,4.287,6.235C613.294,41.754,616.539,42.61,619.914,43.159L619.914,43.159z M619.914,217.832
	c-0.061-0.01-0.125-0.016-0.19-0.016c-2.25,0.322-1.751,3.393,0.19,4.277V217.832L619.914,217.832z M619.914,262.358v6.444
	C618.912,266.962,617.542,264.702,619.914,262.358L619.914,262.358z M619.914,280.223v3.066c-5.446-0.194-7.37-3.355-1.27-3.137
	C619.087,280.152,619.512,280.177,619.914,280.223L619.914,280.223z M600.755,276.512v-13.935c5.088,3.844,9.646,10.6,9.797,14.652
	C610.732,282.087,605.007,279.889,600.755,276.512L600.755,276.512z M600.755,259.137c2.743,2.25,5.397,6.647,5.397,1.9
	c0-3.912-2.805-8.224-5.397-10.782V259.137z M600.755,44.065v195.576c-2.712-2.454-5.514-4.01-5.514-1.597
	c0,3.118,0,8.963,2.728,10.132c0.772,0.332,1.762,1.068,2.786,2.079v8.881c-0.41-0.336-0.823-0.625-1.229-0.828
	c-3.117-1.559-1.947-8.184-5.066-10.132c-3.117-1.948-4.676-3.897-1.946-9.352c2.728-5.456-0.392-8.964-5.066-8.964
	c-3.965,0-2.05-5.039-3.747-7.999V45.465c4.792-0.699,5.721,1.743,8.067,0.49c2.588-1.38,7.417,1.897,8.797-1.38
	C600.635,44.409,600.697,44.239,600.755,44.065L600.755,44.065z M600.755,262.577v13.935c-1.061-0.842-2.029-1.757-2.792-2.654
	c-3.821-4.495-10.565-13.711-4.72-14.162C595.559,259.472,598.222,260.665,600.755,262.577L600.755,262.577z M583.7,249.673
	c0.741,0.023,1.365-1.016,1.546-1.922c0.219-1.09-0.521-1.669-1.546-1.344V249.673L583.7,249.673z M583.7,28.143v-6.08
	c0.14-0.012,0.287-0.01,0.444,0.007c2.678-1.912,13.005-1.53,9.37-0.766c-3.633,0.766-4.206,7.268-8.223,7.268
	C584.682,28.573,584.15,28.413,583.7,28.143z M583.7,22.063v6.08C581.329,26.725,581.229,22.262,583.7,22.063L583.7,22.063z
	 M583.7,45.465v176.396c-0.305-0.532-0.726-0.997-1.319-1.354c-3.897-2.338-8.185-5.066-13.64-1.949
	c-5.456,3.118-11.692,8.963-13.641,9.354c-0.297,0.06-0.521,0.255-0.692,0.558V64.287c0.981,1.087,1.523,2.638,1.953,3.841
	c0.818,2.29,5.807,6.706,7.688,9.731c1.881,3.026,3.271,3.926,3.271,1.146s-2.453-6.378-4.089-7.524
	c-1.635-1.145,0.49-7.606-3.189-9.16c-3.68-1.554-6.134-6.134-1.472-6.707c4.661-0.572,5.604-1.036,7.847-3.279
	c2.242-2.241,9.485-5.001,15.695-6.554C582.685,45.639,583.212,45.536,583.7,45.465L583.7,45.465z M583.7,246.406v3.267
	c-0.272-0.008-0.563-0.16-0.851-0.516c-1.076-1.323-0.993-2.151,0.412-2.564C583.412,246.513,583.56,246.45,583.7,246.406
	L583.7,246.406z M554.408,250.207v-6.639c2.468,0.333,4.173,5.36,0.909,6.52C554.999,250.202,554.695,250.236,554.408,250.207z
	 M554.408,64.287v164.184c-0.953,1.681-0.265,6.661-1.255,9.964c-1.17,3.897-3.118,7.015-5.847,6.625
	c-1.769-0.253-4.028-4.274-6.355-8.239V80.067c0.209-0.155,0.494-0.242,0.9-0.242c2.728,0,5.455,4.677,9.353,4.677
	c3.896,0,0.391-5.845-3.897-7.794c-2.095-0.952-4.562-1.067-6.355-1.299V61.477c2.326-0.238-3.016,8.654,4.018,5.489
	c7.794-3.508,1.56-3.118,5.457-3.897C552.274,62.699,553.521,63.304,554.408,64.287L554.408,64.287z M554.408,243.568
	c-0.196-0.026-0.395-0.024-0.599,0.012c-3.43-0.485-2.286,6.333,0.599,6.626V243.568L554.408,243.568z M540.951,263.322v-2.88
	l0.064-0.02c1.241-0.662,2.233-0.083,1.984,1.158C542.779,262.687,541.901,263.991,540.951,263.322L540.951,263.322z
	 M540.951,257.655v-2.039c0.273,0.243,0.397,0.654,0.289,1.188C541.184,257.086,541.085,257.382,540.951,257.655L540.951,257.655z
	 M540.951,253.948v-3.267c1.024-0.325,1.765,0.254,1.547,1.344C542.316,252.932,541.693,253.972,540.951,253.948z M540.951,61.477
	v13.933c-0.528-0.069-0.999-0.148-1.383-0.261V62.112c0.105-0.072,0.217-0.144,0.334-0.212
	C540.359,61.633,540.699,61.501,540.951,61.477L540.951,61.477z M540.951,80.067V236.82c-0.46-0.783-0.923-1.563-1.383-2.313V83.512
	C540.423,82.039,540.206,80.62,540.951,80.067L540.951,80.067z M540.951,250.681v3.267c-0.273-0.009-0.562-0.161-0.853-0.517
	c-0.23-0.285-0.409-0.547-0.53-0.787v-1.255c0.185-0.218,0.498-0.391,0.945-0.522C540.663,250.787,540.811,250.726,540.951,250.681
	L540.951,250.681z M540.951,255.616v2.039c-0.316,0.649-0.822,1.166-1.383,1.057v-3.209
	C540.145,255.283,540.644,255.342,540.951,255.616L540.951,255.616z M540.951,260.442v2.88c-0.116-0.082-0.232-0.191-0.35-0.335
	C539.544,261.684,539.607,260.862,540.951,260.442L540.951,260.442z M539.568,249.57v-1.611c0.184,0.248,0.252,0.605,0.164,1.049
	C539.694,249.192,539.639,249.384,539.568,249.57z M539.568,62.112v13.036c-0.98-0.289-1.407-0.802-0.835-1.947
	c0.762-1.521-0.056-3.6-0.548-5.646v-3.851C538.443,63.119,538.881,62.581,539.568,62.112L539.568,62.112z M539.568,83.512v150.995
	c-0.463-0.751-0.925-1.471-1.383-2.128V85.046C538.836,84.551,539.268,84.028,539.568,83.512L539.568,83.512z M539.568,247.958
	v1.611c-0.277,0.726-0.793,1.378-1.383,1.36v-3.268C538.794,247.47,539.301,247.596,539.568,247.958L539.568,247.958z
	 M539.568,251.39v1.255C539.303,252.125,539.297,251.71,539.568,251.39L539.568,251.39z M539.568,255.502v3.209
	c-0.236-0.045-0.48-0.2-0.726-0.502c-0.329-0.405-0.551-0.763-0.657-1.078v-0.77c0.145-0.312,0.498-0.548,1.069-0.717
	C539.362,255.589,539.466,255.541,539.568,255.502L539.568,255.502z M538.186,239.474v-2.625c0.441,0.189,0.676,0.669,0.54,1.345
	C538.639,238.636,538.445,239.107,538.186,239.474z M538.186,63.704v3.851C537.858,66.201,537.675,64.86,538.186,63.704
	L538.186,63.704z M538.186,85.046c-0.471,0.357-1.056,0.701-1.79,1.015c-5.456,2.338-7.404-0.389-4.677-3.896
	c2.729-3.507,4.287-5.846,3.117-12.081c-1.168-6.235,0-12.081-3.896-11.301c-3.897,0.779-6.625,10.522-6.625,14.03
	c0,3.507,2.728,4.676-1.948,4.676c-4.677,0-6.234-4.676-9.743-4.676c-3.507,0-0.778,3.896-4.287,3.896
	c-2.599,0-6.485,0.856-10.386,2.094v84.216c10.913,2.856,7.148,8.796,0,11.128v29.464c0.981,0.214,1.981,0.581,2.983,1.309
	c4.286,3.118,3.117,0,10.132,0c7.014,0,6.624-0.779,12.081,3.897c5.455,4.676,8.572,6.235,12.079,6.235
	c3.508,0-1.558,11.691,1.949,15.979c0.334,0.407,0.67,0.861,1.011,1.349V85.046L538.186,85.046z M538.186,236.849v2.625
	c-0.473,0.665-1.165,0.98-1.858,0.127c-1.075-1.324-0.992-2.15,0.414-2.564C537.305,236.736,537.817,236.691,538.186,236.849
	L538.186,236.849z M538.186,247.663v3.268c-0.273-0.008-0.563-0.16-0.853-0.516c-1.075-1.324-0.992-2.15,0.413-2.564
	C537.896,247.77,538.044,247.708,538.186,247.663L538.186,247.663z M538.186,256.362v0.77
	C538.085,256.837,538.084,256.581,538.186,256.362L538.186,256.362z M497.95,277.837v-3.268c1.024-0.325,1.766,0.254,1.547,1.345
	C499.315,276.822,498.692,277.86,497.95,277.837L497.95,277.837z M497.95,225.268v-18.702c2.717,0.084,5.319,1.21,6.88,3.03
	c2.338,2.728-5.456,12.081-6.626,15.198C498.145,224.956,498.059,225.112,497.95,225.268L497.95,225.268z M497.95,70.133V53.069
	c3.929-2.647,2.737-10.265,10.548-10.265c8.809,0,3.523-4.844,13.652-2.202c5.727-0.44,0.882,6.606-3.964,6.606
	c-4.845,0-16.296,9.689-17.617,14.535C499.642,65.146,499.582,69.419,497.95,70.133z M497.95,53.069v17.064
	c-0.592,0.259-1.393,0.048-2.514-0.84V54.019c0.232-0.081,0.475-0.149,0.729-0.204C496.864,53.665,497.449,53.407,497.95,53.069
	L497.95,53.069z M497.95,78.802v84.216l-0.02-0.006c-0.967-0.252-1.79-0.524-2.494-0.813V79.652
	C496.266,79.354,497.109,79.068,497.95,78.802L497.95,78.802z M497.95,174.147v29.464c-0.857-0.187-1.7-0.257-2.514-0.35v-28.476
	C496.306,174.624,497.149,174.408,497.95,174.147L497.95,174.147z M497.95,206.565v18.702c-0.47,0.675-1.37,1.295-2.514,1.878
	v-20.352C496.267,206.612,497.113,206.539,497.95,206.565L497.95,206.565z M497.95,274.57v3.268
	c-0.273-0.009-0.562-0.161-0.851-0.517c-1.075-1.323-0.994-2.151,0.413-2.564C497.662,274.676,497.81,274.615,497.95,274.57
	L497.95,274.57z M495.437,252.188v-3.268c1.023-0.325,1.765,0.254,1.546,1.345C496.802,251.172,496.179,252.211,495.437,252.188z
	 M495.437,54.019v15.274c-0.189-0.149-0.385-0.315-0.593-0.503C490.199,64.566,490.009,55.892,495.437,54.019L495.437,54.019z
	 M495.437,79.652V162.2c-7.437-3.047-1.321-7.889-4.527-9.536V77.732c3.783-0.37-1.739,4.31,3.009,2.484
	C494.418,80.023,494.925,79.835,495.437,79.652L495.437,79.652z M495.437,174.785v28.476c-1.667-0.189-3.214-0.474-4.527-2.043
	v-26.127C492.442,175.172,493.977,175.056,495.437,174.785L495.437,174.785z M495.437,206.793v20.352
	c-1.289,0.655-2.886,1.264-4.527,1.85v-22.091c0.967,0.576,1.974,0.767,3.009,0.353C494.414,207.06,494.921,206.907,495.437,206.793
	L495.437,206.793z M495.437,248.92v3.268c-0.274-0.008-0.563-0.161-0.852-0.517c-1.076-1.323-0.993-2.15,0.413-2.563
	C495.147,249.027,495.294,248.965,495.437,248.92L495.437,248.92z M490.909,240.369v-3.267c1.025-0.324,1.765,0.254,1.546,1.345
	C492.273,239.353,491.651,240.392,490.909,240.369z M490.909,77.732v74.932c-1.245-0.639-3.892-0.799-9.288-0.182
	c-1.132,0.849-2.081,1.698-2.821,2.554V83.821c2.901-2.43,6.471-4.926,11.221-5.944C490.363,77.804,490.656,77.757,490.909,77.732
	L490.909,77.732z M490.909,175.091v26.127c-0.455-0.544-0.883-1.241-1.277-2.143c-2.728-6.236-7.795-5.067-5.456-1.169
	c1.718,2.862,4.064,7.405,6.733,9v22.091c-3.051,1.089-6.252,2.103-7.902,3.203c-1.32,0.88-2.75,2.312-4.207,3.319v-72.032
	c0.424,0.493,0.924,0.993,1.505,1.501c5.265,4.606-2.633,7.897,8.556,9.872C489.539,174.979,490.224,175.054,490.909,175.091
	L490.909,175.091z M490.909,237.102v3.267c-0.272-0.008-0.563-0.161-0.852-0.516c-1.074-1.324-0.993-2.15,0.413-2.563
	C490.621,237.208,490.769,237.146,490.909,237.102L490.909,237.102z M478.8,325.553v-27.727c1.804-2.228,3.651-4.124,5.103-4.235
	c4.526-0.252,4.526,5.28,1.508,7.796c-3.017,2.514,3.019,15.087-0.251,16.345C482.862,318.615,481.063,322.851,478.8,325.553
	L478.8,325.553z M478.8,256.353c2.989-3.968,5.78-8.404,7.323-12.074c3.118-7.404-1.558-7.014-5.844-5.455
	c-0.484,0.176-0.979,0.306-1.479,0.394V256.353z M478.8,83.821v71.216c-2.325,2.684-2.595,5.434,0,8.449v72.032
	c-2.416,1.67-4.906,2.176-7.095-2.929c-0.206-0.48-0.428-0.965-0.661-1.45V86.836c4.056-0.174-1.636-9.349,2.609-9.349
	c4.286,0,0.78,10.132,3.897,7.404C477.953,84.54,478.369,84.181,478.8,83.821L478.8,83.821z M478.8,239.218
	c-2.454,0.428-5.104-0.184-7.756-1.705v27.478c2.248-1.918,5.081-5.091,7.756-8.639V239.218L478.8,239.218z M478.8,297.827v27.727
	c-0.959,1.144-1.999,2.013-3.196,2.238c-4.023,0.754-2.263-8.55-4.526-11.065l-0.033-0.04v-8.45
	c0.552-1.489,1.283-2.737,2.045-3.329C474.348,303.929,476.539,300.617,478.8,297.827L478.8,297.827z M471.044,295.188v-3.268
	c1.024-0.325,1.765,0.254,1.547,1.345C472.408,294.172,471.786,295.211,471.044,295.188z M471.044,86.836v144.303
	c-3.746-7.782-10.801-16.132-13.367-23.101c-2.729-7.404-5.457-12.082-8.185-11.691s3.507,14.419,6.235,19.485
	c2.728,5.066,5.844,13.25,10.521,17.926c1.569,1.569,3.182,2.83,4.795,3.756v27.478c-0.312,0.266-0.61,0.507-0.897,0.722
	c-4.677,3.507-5.845,11.691-8.573,12.86s0.779,3.117,2.339,6.235c1.558,3.117,1.948,13.25,0,17.147
	c-1.949,3.897-5.457,8.574-8.575,8.963c-3.116,0.39-3.506,5.846-1.168,7.405c2.339,1.559-0.78,5.065-5.457,5.456
	c-4.676,0.389,0.39,14.419-3.896,14.809c-4.286,0.39-9.353,5.845-15.587,6.625c-5.702,0.712-12.378,3.052-15.565-0.423V190.708
	c2.707,1.195,5.23,1.611,6.212-0.596c1.559-3.508,6.624-2.339,10.911-1.559s11.691,2.338,15.588,1.949
	c3.897-0.39,7.795-3.897,8.185-7.404c0.39-3.508-5.066-4.287-11.691-4.287s-9.353-1.169-8.184-5.066
	c1.169-3.896,3.118-7.404,6.624-8.963c3.508-1.559,6.626-2.338,10.132-2.338c3.509,0,8.185,2.728,12.473,2.338
	c4.286-0.39,2.728-4.287-1.56-6.625c-4.287-2.338-5.066-5.847-3.118-7.795c1.948-1.948,0.78-3.896-2.727-1.948
	c-3.509,1.948-8.574,7.014-9.743,3.897c-1.169-3.119-9.743-0.391-9.743,4.286c0,4.677,1.17,5.457-0.39,8.574
	c-1.559,3.118-5.066,5.456-8.184,5.066c-3.117-0.389,0.389,5.457-2.728,7.015c-3.118,1.559-4.677-2.338-6.626-6.235
	c-1.94-3.881-3.494-6.217-5.432-8.545v-38.329c2.602,0.861,4.797,2.03,6.992,0.11c3.116-2.728-2.34-7.404,2.337-7.404
	s8.573,0.389,5.066-3.117c-3.507-3.507,1.17-1.56,5.065-3.507c3.897-1.949,3.507-5.066-1.168-4.287
	c-4.676,0.779-8.574,3.507-10.522-1.169c-1.949-4.677,3.897-10.132,7.015-13.64c3.117-3.508-5.066-5.066-6.235-0.779
	c-1.169,4.286-5.846,6.235-7.404,10.521c-1.56,4.287,4.286,8.184,1.169,11.301c-0.907,0.909-1.651,1.85-2.314,2.728V73.587
	c0.934-0.573,1.844-0.981,2.704-1.167c5.457-1.169,13.251-8.184,19.485-5.455c6.236,2.728,8.573,1.948,13.249,5.455
	c4.678,3.508,4.287,5.456,9.354,6.236c5.065,0.779,6.235,7.404,0,7.404c-6.234,0-10.133-3.507-12.47-1.559
	c-2.339,1.948,2.338,3.897,4.676,6.625c2.338,2.728,6.625,4.676,8.573,3.507c1.948-1.169-3.897-5.066,0.39-3.897
	c4.288,1.169,8.574,1.558,5.846-0.78c-2.728-2.338,1.17-3.117,5.456-3.117C470.966,86.84,471.004,86.838,471.044,86.836
	L471.044,86.836z M471.044,291.921c-0.141,0.045-0.288,0.107-0.438,0.187c-1.406,0.414-1.49,1.241-0.414,2.564
	c0.291,0.356,0.579,0.508,0.853,0.517V291.921L471.044,291.921z M471.044,308.236c-1.079,2.916-1.462,6.761,0,8.45V308.236
	L471.044,308.236z M413.663,167.345c0.306-1.457,0.442-2.984,0-3.939V167.345L413.663,167.345z M413.663,41.065V25.584
	c0.659,0.273,1.426,0.581,2.344,0.924c9.249,0,6.605,2.203,11.011,5.286c4.404,3.082-1.322,10.57-7.487,6.166
	C414.44,34.324,415.952,40.891,413.663,41.065z M413.663,25.584v15.481c-0.484,0.038-1.138-0.211-2.062-0.903
	c-5.285-3.964-6.166-7.047-0.439-7.488c5.726-0.441-5.285-4.845-7.928-1.762c-2.644,3.083-8.369-7.487-0.441-7.487
	C409.689,23.425,409.255,23.758,413.663,25.584L413.663,25.584z M413.663,73.587v41.311c-1.617,2.136-2.767,3.897-4.7,3.897
	c-2.727,0-5.066,5.845-6.235,1.949c-1.169-3.897-3.508-8.184-6.234-6.235c-2.729,1.949-2.338,8.574-5.846,3.118
	c-3.507-5.457-6.625-13.25-2.728-17.537c3.896-4.287,9.353-7.794,12.47-12.081C403.016,84.399,408.681,76.644,413.663,73.587
	L413.663,73.587z M413.663,124.142c-1.095-0.362-2.262-0.669-3.53-0.669c-4.287,0-5.456,1.948-10.523,1.948
	c-5.065,0-3.116-3.507-6.234-3.507s-2.338,5.845-5.066,8.573c-2.382,2.382-6.25,5.359-10.308,6.854v31.242
	c1.861-0.624,2.407-4.195,1.345-8.088c-1.169-4.287,6.235-2.728,12.47-2.728s7.015,4.287,11.302,5.846
	c4.287,1.558,4.676,5.455,4.676,10.912c0,5.456,4.286-1.949,5.065-4.288c0.248-0.741,0.573-1.796,0.804-2.891v-3.939
	c-0.274-0.591-0.769-0.963-1.583-0.963c-3.117,0-3.896-1.169-6.624-3.897c-2.729-2.728-0.391-4.287,2.338-1.949
	c2.728,2.339,3.896,3.508,5.846,5.846l0.023,0.028V124.142L413.663,124.142z M413.663,190.708V344.79
	c-0.3-0.326-0.569-0.701-0.804-1.136c-2.727-5.066,1.949-8.184-2.727-13.639c-4.677-5.457-1.949-10.132-5.456-15.199
	c-3.508-5.066-7.015-14.029-3.508-18.706c3.508-4.676,5.067-8.184,1.949-9.353c-3.118-1.168,1.559-6.625-2.729-9.353
	c-4.287-2.728-7.014-10.132-5.456-13.64c1.56-3.507,1.948-9.353-3.117-9.353c-3.741,0-9.184-2.126-13.815-2.609v-74.345
	c2.299-0.881,4.641-1.765,8.359-1.765c7.404,0,12.86-2.728,12.081,3.118s6.624,7.014,10.521,9.353
	C410.408,189.03,412.067,190.004,413.663,190.708L413.663,190.708z M378.001,134.193v-3.267c1.025-0.325,1.765,0.254,1.547,1.344
	C379.367,133.178,378.744,134.217,378.001,134.193z M378.001,130.926v3.267c-0.272-0.008-0.563-0.161-0.852-0.517
	c-1.075-1.324-0.992-2.15,0.414-2.564C377.714,131.033,377.86,130.971,378.001,130.926L378.001,130.926z M378.001,137.34v31.242
	c-0.188,0.063-0.389,0.096-0.604,0.096c-0.646,0-1.323,0.029-1.955,0.13V138.07c0.25-0.052,0.511-0.11,0.785-0.179
	C376.821,137.743,377.413,137.557,378.001,137.34L378.001,137.34z M378.001,177.458v74.345c-0.889-0.093-1.748-0.124-2.559-0.069
	v-73.359C376.333,178.098,377.165,177.777,378.001,177.458L378.001,177.458z M375.443,121.139v-3.268
	c1.024-0.325,1.764,0.254,1.546,1.345C376.808,120.123,376.185,121.162,375.443,121.139z M375.443,117.872v3.268
	c-0.274-0.008-0.563-0.161-0.852-0.517c-1.075-1.323-0.992-2.15,0.413-2.563C375.154,117.978,375.301,117.917,375.443,117.872
	L375.443,117.872z M375.443,138.07v30.739c-1.654,0.264-3.004,1.013-2.722,2.987c0.39,2.728-0.779,2.338-2.728,3.896
	c-0.928,0.743-2.122,1.573-3.453,2.029v-18.715c3.238-1.046,5.22-4.476,2.284-7.087c-3.507-3.117-2.339-7.403-0.39-10.911
	C370.269,137.707,371.413,138.895,375.443,138.07L375.443,138.07z M375.443,178.375v73.359c-0.686,0.045-1.336,0.154-1.943,0.34
	c-2.591,0.797-4.876,1.493-6.96,2.139v-74.737c0.961-0.172,2.089-0.275,3.453-0.275C372.203,179.2,373.91,178.851,375.443,178.375
	L375.443,178.375z M366.54,138.15c1.371-0.587,2.902-1.094,4.542-1.094c5.726,0-0.44-9.689,0.44-12.772
	c0.845-2.954,0.475-10.356-4.982-10.194V138.15z M366.54,114.09v24.06c-3.417,1.463-5.839,3.433-6.468-0.653
	c-0.881-5.726-1.322-5.286,3.964-7.488c5.285-2.202-2.203-16.295,1.762-15.855C366.055,114.118,366.303,114.097,366.54,114.09
	L366.54,114.09z M366.54,159.007v18.715c-1.465,0.502-3.098,0.551-4.731-0.471c-1.557-0.973-3.89-0.682-5.836-0.634v-18.069
	c3.557,0.051,4.428,0.777,8.565,0.777C365.235,159.325,365.911,159.211,366.54,159.007L366.54,159.007z M366.54,179.475v74.737
	c-1.991,0.616-3.797,1.188-5.51,1.759c-1.354,0.451-3.114-0.318-5.057-1.723v-70.737c0.713-0.362,1.494-0.637,2.329-0.805
	C361.441,182.079,362.558,180.187,366.54,179.475L366.54,179.475z M355.973,136.238c0.902-0.275,1.776-1.002,2.337-2.264
	c1.761-3.963,1.762-11.01-1.762-10.57c-0.202-0.029-0.393-0.05-0.576-0.064V136.238L355.973,136.238z M355.973,69.417v-4.594
	c0.3-0.028,0.637-0.029,1.016,0.003c3.083,0,5.285,5.285,1.322,5.285C357.445,70.111,356.643,69.839,355.973,69.417z
	 M355.973,64.823v4.594C353.791,68.044,353.003,65.095,355.973,64.823L355.973,64.823z M355.973,123.339v12.898
	c-1.93,0.59-3.988-0.884-3.389-3.585C353.436,128.819,350.58,122.924,355.973,123.339L355.973,123.339z M355.973,158.548v18.069
	c-1.953,0.05-3.516-0.143-3.516-2.094c0-3.897-2.728-5.457-0.779-8.964c1.949-3.507,0-7.014,3.897-7.014
	C355.711,158.545,355.843,158.546,355.973,158.548L355.973,158.548z M355.973,183.511v70.737c-3.089-2.234-6.641-6.079-9.751-9.189
	c-2.271-2.271-5.402-5.089-7.816-7.824V210.16c1.743-3.291,3.001-11.5,6.647-11.864c3.896-0.39,6.625-4.677,6.625-8.184
	C351.677,187.356,353.361,184.841,355.973,183.511L355.973,183.511z M338.405,188.303c0.742,0.023,1.365-1.016,1.546-1.922
	c0.218-1.09-0.521-1.669-1.546-1.345V188.303L338.405,188.303z M338.405,96.208v-9.319c4.004,0.042,5.751,3.613,3.168,6.566
	C340.746,94.4,339.664,95.377,338.405,96.208L338.405,96.208z M338.405,22.854v-6.147c4.482-0.152,12.549,4.853,6.982,5.509
	C343.264,22.465,340.718,22.63,338.405,22.854z M338.405,16.707v6.147c-0.841,0.082-1.649,0.17-2.397,0.274v-5.673
	c0.295-0.13,0.588-0.269,0.88-0.415C337.31,16.831,337.828,16.726,338.405,16.707L338.405,16.707z M338.405,86.888v9.319
	c-0.743,0.491-1.547,0.927-2.397,1.278V87.241C336.874,86.99,337.677,86.881,338.405,86.888L338.405,86.888z M338.405,185.035v3.268
	c-0.273-0.008-0.563-0.161-0.852-0.517c-1.075-1.324-0.993-2.15,0.414-2.564C338.117,185.142,338.264,185.081,338.405,185.035
	L338.405,185.035z M338.405,210.16v27.075c-0.938-1.063-1.768-2.114-2.397-3.115v-5.714c3.036-2.868,1.663-3.842,0-5.833v-8.324
	c0.625-1.332,1.372-2.563,2.029-3.483C338.163,210.589,338.285,210.386,338.405,210.16L338.405,210.16z M336.008,197.856v-3.301
	c0.911-0.182,1.534,0.39,1.332,1.401C337.176,196.775,336.653,197.699,336.008,197.856z M336.008,17.456v5.673
	c-3.275,0.454-5.348,1.189-3.555,2.782c3.327,2.957-5.544,5.544-0.739,8.131s3.326,8.5-1.478,8.5c-4.805,0,0.37,3.326-3.327,7.022
	c-3.695,3.695-2.587,6.282-7.761,6.282s6.282,8.131,0.369,8.131c-5.912,0-7.76,7.391-1.847,6.652
	c5.913-0.74,5.543,1.848-0.739,4.804c-6.283,2.957-16.261,2.957-19.218,7.761c-2.957,4.804-14.043,4.436-14.043,8.87
	c0,4.435-1.848,20.696-10.348,17.74c-8.5-2.957-10.348-11.457-13.674-16.631c-3.326-5.174,1.848-10.717-1.478-12.565
	c-3.326-1.847,7.392-10.348,3.695-7.761c-3.695,2.586-9.609-1.109-4.435-2.217s3.326-6.283-0.37-5.174
	c-3.696,1.108-7.761-0.74-2.957-4.436c4.805-3.695,2.586-2.587-0.739-3.695c-1.596-0.532-2.086-2.426-2.899-4.416V13.853
	c7.378,1.116,7.916,6.091,12.139,5.037c4.434-1.109-5.174-10.718,5.913-4.065c11.087,6.652,2.957-0.74,7.761-0.74
	c4.805,0-3.326-7.021,5.174-6.652c8.5,0.37,8.5-4.804,19.218-4.804c12.935,0,36.218,10.718,24.391,9.24
	c-11.826-1.479-27.718-1.849-20.326,2.586c7.392,4.436,8.87-4.065,11.457,0c2.587,4.065,7.021,0,9.978,2.587
	C328.894,19.424,332.56,18.985,336.008,17.456L336.008,17.456z M336.008,87.241l-0.161,0.047c-3.083-0.441-4.404,0-8.368-1.762
	c-3.964-1.762-7.928,5.725-1.761,10.57c3.534,2.776,7.213,2.659,10.29,1.389V87.241L336.008,87.241z M336.008,194.556v3.301
	c-0.334,0.082-0.7-0.042-1.067-0.494c-1.075-1.323-0.992-2.15,0.414-2.564C335.583,194.677,335.803,194.598,336.008,194.556
	L336.008,194.556z M336.008,214.249v8.324c-0.231-0.277-0.467-0.572-0.699-0.896C334.018,219.869,334.781,216.866,336.008,214.249
	L336.008,214.249z M336.008,228.406v5.714c-1.362-2.169-1.781-4.104-0.31-5.429C335.807,228.594,335.91,228.5,336.008,228.406
	L336.008,228.406z M250.466,346.798v-97.105c2.728,1.798,5.263,3.134,7.704,3.134c4.805,0,4.065,4.804,4.065,9.608
	c0,4.805,6.283,4.805,12.935,7.022c6.652,2.217,9.609,1.847,16.261,5.913c6.653,4.065,8.13,6.282,4.805,11.086
	c-3.326,4.805-10.348,12.197-10.717,19.218s-4.805,13.674-9.609,14.413c-4.805,0.739-9.24,4.435-9.24,7.761
	c0,3.326-4.435,1.848-4.804,8.131c-0.369,6.282-5.913,13.305-8.5,12.195C252.715,347.896,251.645,347.361,250.466,346.798
	L250.466,346.798z M250.466,149.945v-11.891c3.507,0.989,4.313,4.524,5.685,7.495c1.66,3.598,0.553,7.196-4.983,4.705
	C250.929,150.146,250.695,150.044,250.466,149.945L250.466,149.945z M331.002,186.963c1.24-0.662,2.233-0.083,1.985,1.159
	c-0.248,1.24-1.323,2.729-2.399,1.405C329.513,188.204,329.596,187.377,331.002,186.963z M250.466,13.853v39.055
	c-0.881-2.157-2.142-4.425-5.602-5.193c-3.366-0.748-7.016-0.456-10.422-0.366v-28.14c8.04-0.584,6.798-6.195,14.857-5.494
	C249.708,13.75,250.095,13.797,250.466,13.853L250.466,13.853z M250.466,138.054v11.891c-5.087-2.191-7.784-2.409-5.665-7.441
	c2.214-5.259-0.553-4.983,3.045-4.706C248.861,137.75,249.724,137.845,250.466,138.054L250.466,138.054z M250.466,249.693v97.105
	c-3.514-1.678-7.999-3.606-5.231,0.268c3.695,5.174,4.435,7.761,0.369,9.609c-3.742,1.701-8.424,8.412-11.162,7.45V241.383
	c2.263,0.283,4.762,0.982,7.466,2.573C245,245.775,247.823,247.951,250.466,249.693L250.466,249.693z M234.442,157.659v-4.77
	c2.982-0.188,3.503,4.839,0.671,4.839C234.881,157.728,234.656,157.704,234.442,157.659L234.442,157.659z M234.442,140.848
	c1.05,0.961,1.699,1.314,2.662-0.371c1.479-2.587,4.435-4.435,10.718-4.435c6.282,0-2.957-6.282-1.848-8.869
	c1.108-2.587-4.436-3.696-7.392-6.652c-2.15-2.15-2.347-7.427-4.14-10.288V140.848L234.442,140.848z M234.442,88.475v-4.619
	C235.732,85.898,235.939,88.042,234.442,88.475L234.442,88.475z M234.442,13.407c0.382-0.145,0.776-0.288,1.184-0.431
	c2.453-0.866,1.413-1.732-1.184-2.421V13.407z M234.442,10.555v2.853c-1.858,0.699-3.438,1.407-4.81,2.172V9.676
	C231.463,9.91,233.146,10.21,234.442,10.555L234.442,10.555z M234.442,19.209v28.14c-1.685,0.044-3.308,0.038-4.81-0.168V31.253
	c2.276-1.383,1.725-3.938,0-5.183v-6.53c0.927-0.18,2.053-0.282,3.406-0.282C233.537,19.258,234.002,19.241,234.442,19.209
	L234.442,19.209z M234.442,83.855v4.619c-0.44,0.127-1.024,0.107-1.773-0.106c-1.102-0.314-2.137-0.479-3.037-0.499v-7.82
	c0.143,0.069,0.293,0.132,0.45,0.188C231.958,80.907,233.493,82.354,234.442,83.855L234.442,83.855z M234.442,110.232v30.615
	c-0.563-0.515-1.24-1.204-2.143-1.849c-0.589-0.42-1.561-0.496-2.667-0.362v-30.141c0.428-0.168,1.039-0.24,1.928-0.171
	C232.871,108.426,233.769,109.16,234.442,110.232L234.442,110.232z M234.442,152.889v4.77c-2.598-0.544-3.781-4.125-0.713-4.636
	C233.981,152.945,234.218,152.902,234.442,152.889L234.442,152.889z M234.442,241.383v122.742c-0.237-0.083-0.458-0.223-0.664-0.429
	c-2.587-2.587-2.217,0.37-2.217,2.957c0,1.9-0.399,5.195-1.928,6.812V241.261C231.087,241.198,232.695,241.166,234.442,241.383
	L234.442,241.383z M229.633,225.316v-0.974C229.997,224.715,230.057,225.084,229.633,225.316L229.633,225.316z M229.633,159.467
	c0.159,0.033,0.326,0.051,0.498,0.051c2.099,0,1.712-3.726-0.498-3.587V159.467L229.633,159.467z M229.633,153.223
	c0.15-0.177,0.301-0.36,0.45-0.549c2.046-2.604,1.284-5.302-0.45-7.339V153.223L229.633,153.223z M229.633,101.146v-6.854
	C231.702,96.979,231.174,99.817,229.633,101.146z M229.633,9.676v5.903c-1.469,0.819-2.699,1.702-3.772,2.705V9.302
	C227.137,9.394,228.417,9.52,229.633,9.676L229.633,9.676z M229.633,19.541v6.53c-0.309-0.223-0.654-0.405-1.028-0.53
	C225.747,24.588,223.981,20.635,229.633,19.541L229.633,19.541z M229.633,31.253v15.927c-1.376-0.188-2.65-0.545-3.772-1.187v-3.88
	c1.913-1.688,4.825-3.051,2.004-3.269c-0.599-0.045-1.277-0.034-2.004,0.011v-6.674C227.561,32.117,228.791,31.765,229.633,31.253
	L229.633,31.253z M229.633,80.049v7.82c-3.325-0.075-4.809,1.813-1.028,5.303c0.397,0.367,0.738,0.741,1.028,1.119v6.854
	c-0.859,0.741-2.032,1.012-3.246,0.527l-0.526-0.209V73.608C226.669,76.234,227.346,78.949,229.633,80.049L229.633,80.049z
	 M229.633,108.496v30.141c-1.205,0.146-2.568,0.539-3.772,1.007V112.9c0.171-0.041,0.347-0.087,0.526-0.141
	C229.398,111.856,227.748,109.234,229.633,108.496L229.633,108.496z M229.633,145.334v7.888c-1.252,1.47-2.53,2.482-3.772,3.26
	v-13.939C227.203,143.128,228.593,144.112,229.633,145.334L229.633,145.334z M229.633,155.931c-0.166,0.011-0.341,0.043-0.528,0.1
	c-2.274,0.38-1.398,3.034,0.528,3.437V155.931L229.633,155.931z M229.633,224.343v0.974c-0.324,0.178-0.931,0.276-1.903,0.233
	c-0.666-0.029-1.296-0.115-1.869-0.239v-2.258l0.147,0.009C227.511,223.062,229.013,223.708,229.633,224.343L229.633,224.343z
	 M229.633,241.261v132.204c-0.553,0.584-1.254,0.949-2.137,0.949c-3.327,0,2.957,9.24,1.109,10.349
	c-0.617,0.37-1.646,1.77-2.744,3.471v-146.84c0.31-0.016,0.609-0.024,0.895-0.024C227.633,241.369,228.594,241.307,229.633,241.261z
	 M225.861,9.302v8.982c-0.903,0.844-1.696,1.774-2.431,2.822c-1.266,1.808-3.948,3.528-6.833,4.77V9.408
	c0.504-0.023,1.054-0.063,1.659-0.127C220.261,9.069,223.048,9.1,225.861,9.302L225.861,9.302z M225.861,32.182v6.674
	c-3.068,0.193-6.982,1.002-9.264,0.703v-5.818c1.339-1.548,3.36-1.548,8.681-1.548C225.479,32.193,225.673,32.189,225.861,32.182
	L225.861,32.182z M225.861,42.114v3.88c-0.071-0.041-0.143-0.083-0.213-0.126C223.664,44.646,224.516,43.3,225.861,42.114
	L225.861,42.114z M225.861,73.608v27.855c-1.991-0.789-5.495-2.135-9.264-3.361V66.504c1.823,0.473,3.455,0.877,4.615,1.168
	C224.094,68.392,225.045,70.955,225.861,73.608L225.861,73.608z M225.861,112.9v26.743c-2.545,0.991-4.369,2.312-2.431,2.312
	c0.72,0,1.566,0.211,2.431,0.588v13.939c-2.667,1.668-5.165,2.251-6.866,3.952c-1.025,1.025-1.702,2.34-2.398,3.555v-60.457
	c2.482,1.778,4.246,3.763,4.246,5.161C220.843,111.859,222.516,113.685,225.861,112.9L225.861,112.9z M225.861,223.053v2.258
	C222.688,224.624,221.33,222.778,225.861,223.053L225.861,223.053z M225.861,241.394v146.84c-2.188,3.394-4.648,7.985-4.648,7.985
	s0.37,5.175-3.696,1.848c-0.313-0.256-0.619-0.556-0.919-0.888v-70.5c1.875-1.89,4.17-3.279,2.768-5.852
	c-2.217-4.066,0.37-8.869-2.217-11.086c-0.18-0.155-0.364-0.33-0.55-0.519v-68.747C218.646,242.264,222.764,241.539,225.861,241.394
	L225.861,241.394z M216.597,224.923v-5.068c0.361-0.029,0.754-0.045,1.184-0.045c3.252-0.192,2.87,5.166-0.575,5.166
	C217.003,224.976,216.8,224.957,216.597,224.923z M216.597,9.408v16.469c-3.011,1.296-6.243,2.071-8.319,1.882
	c-4.065-0.37-1.479,9.608-4.435,9.608c-0.208,0-0.415,0.04-0.623,0.11V7.784c0.829-0.045,1.653-0.042,2.471,0.018
	C211.094,7.802,211.253,9.652,216.597,9.408L216.597,9.408z M216.597,33.742c-0.615,0.71-1.086,1.746-1.667,3.256
	c-0.645,1.677,0.153,2.363,1.667,2.562V33.742L216.597,33.742z M216.597,66.504v31.598c-4.1-1.334-8.515-2.528-11.646-2.712
	c-0.626-0.037-1.203-0.123-1.731-0.245v-5.713c4.972-0.592,3.68-4.838,6.905-7.346c3.326-2.587,3.327-2.587-1.848-6.283
	c-1.453-1.037-3.195-1.812-5.058-2.391V62.14C205.645,63.529,211.791,65.257,216.597,66.504L216.597,66.504z M216.597,103.533
	v60.457c-1.062,1.85-2.169,3.466-4.623,3.466c-4.065,0-6.283,9.24-6.283,12.566c0,1.293-1.064,2.42-2.471,3.487V99.792
	c0.517-0.158,1.092-0.273,1.731-0.336C208.38,99.027,213.173,101.081,216.597,103.533L216.597,103.533z M216.597,219.855v5.068
	C213.541,224.416,210.743,220.329,216.597,219.855L216.597,219.855z M216.597,240.475v68.747c-2.503-2.543-5.645-7.982-9.428-7.982
	c-4.065,0-3.326-4.065-3.326-7.391c0-0.559-0.23-1.19-0.623-1.876v-35.812c0.319-0.725,0.258-1.618,0-2.569v-11.903
	c1.867,0.151,3.697,0.162,5.058-0.689c2.956-1.848,5.914-5.543,7.391-1.848C215.889,239.7,216.205,240.133,216.597,240.475
	L216.597,240.475z M216.597,326.678v70.5c-3.592-3.99-6.216-13.014-7.58-15.743c-1.479-2.957,0.37-3.326,2.587-7.022
	c2.217-3.695,1.848-6.652-0.37-13.304c-2.217-6.652-1.478-11.826,1.848-14.413c3.325-2.588,1.478-11.087,1.478-15.892
	C214.561,329.041,215.508,327.774,216.597,326.678L216.597,326.678z M203.221,218.079v-2.854c3.454,0.241,5.887,3.245,2.313,3.245
	C204.707,218.47,203.915,218.317,203.221,218.079L203.221,218.079z M203.221,209.443v-4.624c3.79,1.378,6.494,6.712,3.653,5.041
	C205.439,209.016,204.265,209.14,203.221,209.443L203.221,209.443z M203.221,82.827c0.455-0.125,0.94-0.341,1.444-0.666
	c3.354-2.156,1.317-4.311-1.444-4.135V82.827L203.221,82.827z M203.221,60.346v-2.519c2.023,0.934,2.668,1.885,0.253,2.454
	C203.384,60.303,203.3,60.323,203.221,60.346z M203.221,7.784v29.694c-2.384,0.813-4.869,5.933-8.604,7.31V24.551
	c3.52-1.122,3.941-2.755,0-3.278V9.558C197.501,8.643,200.393,7.935,203.221,7.784L203.221,7.784z M203.221,57.827v2.519
	c-1.522,0.425-1.275,1.063,0,1.794v11.272c-2.792-0.868-5.854-1.293-8.604-1.497V55.462C197.737,55.96,201.18,56.885,203.221,57.827
	L203.221,57.827z M203.221,78.026v4.8c-3.039,0.839-4.694-2.374-1.324-4.541C202.345,78.137,202.791,78.054,203.221,78.026
	L203.221,78.026z M203.221,89.432v5.713c-4.776-1.109-5.478-5.335-0.486-5.668C202.903,89.466,203.065,89.45,203.221,89.432
	L203.221,89.432z M203.221,99.792v83.717c-2.21,1.675-5.27,3.206-6.4,5.013c-1.848,2.957-0.369,5.912-0.369,11.087
	c0,2.873-0.57,3.921-1.835,3.275v-68.557c1.165,1.798,2.388,2.305,2.575-1.241c0.37-7.021,0.37-11.457,3.326-11.457
	s0.369-3.696-0.739-8.87C198.765,108.034,197.754,101.458,203.221,99.792L203.221,99.792z M203.221,204.819v4.624
	c-1.325,0.385-2.441,1.058-3.618,0.417c-2.104-1.148-1.531-4.784,1.914-5.358C202.098,204.502,202.671,204.619,203.221,204.819
	L203.221,204.819z M203.221,215.225v2.854c-2.515-0.864-3.747-2.861-0.748-2.861C202.726,215.205,202.976,215.208,203.221,215.225
	L203.221,215.225z M203.221,241.689v11.903c-0.406-1.494-1.298-3.129-1.964-4.461c-0.784-1.569-3.75-1.474-6.64-1.479v-5.786
	c0.883,0.205,1.757,0.181,2.575-0.126C198.787,241.141,201.029,241.511,203.221,241.689L203.221,241.689z M203.221,256.161v35.812
	c-1.643-2.871-6.139-6.682-8.604-10.021v-15.636c0.115-0.066,0.233-0.128,0.357-0.185c4.065-1.848,2.218-7.391,6.283-8.5
	C202.322,257.34,202.929,256.821,203.221,256.161L203.221,256.161z M194.616,214.568v-3.819c3.34,0.729,5.149,4.431,1.352,4.085
	C195.498,214.792,195.044,214.699,194.616,214.568L194.616,214.568z M194.616,96.667v-2.235
	C195.458,95.639,195.63,96.605,194.616,96.667L194.616,96.667z M194.616,53.018v-4.346c3.303,0.773,5.22,1.838,3.314,3.109
	C197.007,52.396,195.875,52.786,194.616,53.018z M194.616,9.558v11.715c-0.805-0.106-1.79-0.167-2.969-0.167
	c-1.212,0-2.265,0.019-3.193,0.049v-9.449C190.487,10.971,192.55,10.212,194.616,9.558L194.616,9.558z M194.616,24.551v20.236
	c-0.588,0.217-1.207,0.341-1.86,0.341c-1.218,0-2.723,0.164-4.302,0.356V25.603c0.193-0.023,0.393-0.045,0.606-0.062
	C191.345,25.359,193.223,24.995,194.616,24.551L194.616,24.551z M194.616,48.671v4.346c-1.86,0.34-4,0.33-6.162,0.172v-5.499
	C190.658,47.924,192.837,48.255,194.616,48.671L194.616,48.671z M194.616,55.462v16.453c-1.955-0.145-3.752-0.178-5.187-0.178
	c-0.315,0-0.641-0.021-0.976-0.061V55.182c0.433-0.033,0.881-0.058,1.345-0.075C191.062,55.022,192.784,55.169,194.616,55.462
	L194.616,55.462z M194.616,94.432v2.235c-0.28,0.017-0.649-0.034-1.121-0.168c-1.875-0.536-3.555-0.052-5.041,0.57V89.75
	C190.862,90.511,193.417,92.713,194.616,94.432L194.616,94.432z M194.616,134.327v68.557c-1.015-0.518-2.475-2.124-4.447-4.753
	c-0.537-0.716-1.112-1.318-1.715-1.821v-72.157c2.394,1.051,3.932,2.203,3.932,3.76
	C192.386,129.559,193.473,132.563,194.616,134.327L194.616,134.327z M194.616,210.749v3.819c-3.406-1.038-5.215-4.453-1.136-3.943
	C193.873,210.625,194.254,210.669,194.616,210.749L194.616,210.749z M194.616,241.865v5.786c-2.56-0.004-5.058-0.089-5.925-1.478
	c-0.082-0.131-0.161-0.272-0.237-0.423v-8.969C190.055,239.352,192.366,241.347,194.616,241.865L194.616,241.865z M194.616,266.315
	v15.636c-0.452-0.611-0.836-1.206-1.121-1.776C191.345,275.874,190.933,268.446,194.616,266.315L194.616,266.315z M188.454,100.607
	v-0.683c0.223-0.448,0.931-0.867,2.371-1.154c4.706-1.107,4.152,2.492,1.938,3.321C191.413,102.597,188.933,101.664,188.454,100.607
	L188.454,100.607z M188.454,86.778v-12.5c0.31,0,0.635,0.016,0.976,0.047c4.065,0.37,6.283,12.196,1.848,12.196
	C190.336,86.521,189.379,86.621,188.454,86.778z M188.454,11.707v9.449c-6.141,0.191-6.773,0.818-11.589-0.788
	c-0.653-0.218-1.291-0.46-1.892-0.721v-4.813c0.249-0.007,0.509-0.01,0.783-0.01C179.654,14.824,183.981,13.325,188.454,11.707
	L188.454,11.707z M188.454,25.603v19.882c-5.129,0.626-11.046,1.556-10.481-1.834c0.739-4.435,3.326-7.762,7.761-9.239
	C190.066,32.967,180.295,26.586,188.454,25.603L188.454,25.603z M188.454,47.691c-3.228-0.341-6.504-0.471-8.633-0.346
	c-2.24,0.132-3.728-0.394-4.849-1.058V52.6c0.999-0.293,2.275-0.58,4.109-0.449c2.506,0.179,5.966,0.792,9.372,1.04V47.691
	L188.454,47.691z M188.454,55.182v16.495c-4.766-0.565-11.22-4.986-11.22-8.439C177.234,59.713,179.586,55.854,188.454,55.182
	L188.454,55.182z M188.454,74.278v12.5c-3.434,0.584-6.416,1.96-6.416,1.96s-1.108,7.021-5.174,7.021
	c-0.889,0-1.477,0.159-1.892,0.411V77.681l0.044-0.03c2.587-1.848,5.174-0.37,5.544,2.587c0.37,2.957,2.957,2.217,2.957-1.109
	C183.517,76.082,185.068,74.276,188.454,74.278L188.454,74.278z M188.454,89.75c-0.551-0.174-1.094-0.273-1.612-0.273
	c-4.065,0.74-6.652,2.957-4.434,7.392c1.414,2.828,3.429,1.298,6.045,0.201V89.75L188.454,89.75z M188.454,99.924v0.683
	C188.352,100.381,188.342,100.148,188.454,99.924L188.454,99.924z M188.454,124.152v72.157c-4.372-3.65-10.189-2.066-13.438-0.767
	l-0.044,0.017v-76.12c0.89,0.334,1.886,0.69,3,1.081C181.905,121.896,185.733,122.959,188.454,124.152L188.454,124.152z
	 M188.454,236.782v8.969c-1.656-3.268-2.258-11.033-8.264-11.033c-1.96,0-3.632-0.576-5.218-1.379v-17.43
	c3.669-3.098,7.63-5.739,7.63-3.19c0,3.696-3.89,16.086,1.654,16.086c5.543,0,1.848,4.065,4.064,7.761L188.454,236.782
	L188.454,236.782z M174.973,41.107v-3.221C176.482,38.651,176.882,40.638,174.973,41.107L174.973,41.107z M174.973,34.824
	c0.501-0.216,1.01-0.475,1.522-0.782c5.364-3.218,1.731-9.206-1.522-9.924V34.824z M174.973,14.834v4.813
	C170.619,17.768,168.111,15.024,174.973,14.834L174.973,14.834z M174.973,24.117c-0.109-0.025-0.218-0.042-0.325-0.054
	c-3.326-0.37-2.587-5.914-9.609-5.174c-5.912-0.37,2.217,7.391,1.479,11.825c-0.671,4.025,3.529,6.224,8.456,4.109V24.117
	L174.973,24.117z M174.973,37.886v3.221c-0.354,0.088-0.788,0.123-1.309,0.088c-4.153-0.277-4.153-3.599-0.277-3.599
	C173.991,37.542,174.529,37.661,174.973,37.886L174.973,37.886z M174.973,46.288V52.6c-1.821,0.534-2.721,1.089-4.391-0.819
	c-2.587-2.956-5.174-8.13-0.37-7.391C172.115,43.438,172.947,45.089,174.973,46.288L174.973,46.288z M174.973,77.681V96.17
	c-1.486,0.902-0.764,2.996-3.652,3.286c-3.696,0.369-2.957,7.021-4.804,8.13c-1.848,1.108,1.109,3.327,1.479,6.283
	c0.313,2.511,1.961,3.689,6.978,5.572v76.12c-3.691,1.441-8.469-1.114-11.782,1.831c-0.6,0.534-1.237,1.31-1.858,2.241V80.147
	c4.757-0.207,6.852-0.829,5.184-2.497c-2.218-2.218-2.587-4.804-4.435-5.174c-0.278-0.056-0.53-0.178-0.749-0.351v-4.019
	c0.291-0.3,0.66-0.575,1.119-0.804c2.956-1.479,3.695-4.065,5.543-1.109c1.848,2.957-1.109,7.022,2.956,6.652
	C174.992,72.479,172.461,79.414,174.973,77.681L174.973,77.681z M174.973,215.909v17.43c-3.5-1.771-6.582-4.65-11.413-4.904
	c-0.755-0.04-1.498-0.126-2.228-0.25V216.71c2.962,3.054,6.428,6.045,9.25,3.225C171.729,218.788,173.321,217.302,174.973,215.909
	L174.973,215.909z M161.333,77.8c1.682-0.452,1.291-1.558,0-2.592V77.8L161.333,77.8z M161.333,51.877
	c1.408,0.229,2.842,0.389,4.304,0.389c4.079,0-1.203-2.912-4.304-3.687V51.877L161.333,51.877z M161.333,44.793
	c2.297,0.771,7.634-2.215,5.134-2.215c-3.044,0,0.83-4.982-2.214-4.982c-0.989,0-2.121,0.721-2.92,1.867V44.793L161.333,44.793z
	 M161.333,38.742v-4.451C162.676,35.836,162.747,37.972,161.333,38.742L161.333,38.742z M166.466,55.312
	c-4.705,0.276-4.429,3.322-3.321,6.09s2.492,2.768,3.321,1.106c0.83-1.66,5.259-2.214,6.367-4.982
	C173.94,54.758,169.788,55.312,166.466,55.312z M161.333,34.291v4.451c-0.592,0.323-1.446,0.406-2.577,0.104
	c-2.15-0.573-3.966-0.757-5.665-0.79v-5.892c1.342,0.239,2.719,0.399,4.187,0.399C159.108,32.563,160.478,33.308,161.333,34.291
	L161.333,34.291z M161.333,39.464v5.33c-0.5-0.168-0.857-0.513-0.956-1.107C160.105,42.059,160.565,40.564,161.333,39.464
	L161.333,39.464z M161.333,48.58c-0.476-0.119-0.901-0.188-1.232-0.188c-2.491,0-3.045-4.152-6.919-4.152l-0.09-0.009v6.161
	c2.637,0.271,5.385,1.021,8.242,1.485V48.58L161.333,48.58z M161.333,68.106v4.019C160.322,71.327,160.033,69.451,161.333,68.106
	L161.333,68.106z M161.333,75.208V77.8c-0.497,0.133-1.173,0.209-2.063,0.209c-2.906,0-5.044-0.812-6.179-1.781V73.43
	c0.528-0.25,1.289-0.403,2.304-0.403C157.424,73.027,159.918,74.074,161.333,75.208L161.333,75.208z M161.333,80.147v119.485
	c-2.816,4.224-5.302,11.665-2.577,14.39c0.787,0.788,1.658,1.74,2.577,2.688v11.474c-2.979-0.505-5.737-1.627-8.242-2.675V80.111
	c0.82,0.08,1.716,0.126,2.708,0.126C157.907,80.237,159.765,80.215,161.333,80.147L161.333,80.147z M153.091,68V55.411
	c0.435-0.156,0.928-0.285,1.474-0.375c4.152,0,2.214,7.75,4.429,7.473c2.214-0.276-0.831,5.537-5.26,5.537
	C153.521,68.044,153.307,68.029,153.091,68L153.091,68z M153.091,26.373v-2.275c0.407-0.251,1.046-0.405,1.969-0.405
	c4.066-0.369,6.653,4.804,2.587,4.804C155.771,28.498,153.974,27.475,153.091,26.373z M153.091,24.098v2.275
	C152.401,25.513,152.27,24.605,153.091,24.098L153.091,24.098z M153.091,32.164v5.892c-1.652-0.031-3.194,0.082-4.822,0.119v-7.093
	C149.892,31.466,151.466,31.874,153.091,32.164L153.091,32.164z M153.091,44.231v6.161c-0.248-0.025-0.495-0.046-0.741-0.063
	C148.224,50.054,148.472,43.769,153.091,44.231L153.091,44.231z M153.091,55.411V68c-1.741-0.235-3.538-1.375-4.822-2.644V61.39
	c3.253-0.121,5.351-1.177,3.527-2.479C150.177,57.753,150.878,56.21,153.091,55.411L153.091,55.411z M153.091,73.43v2.799
	C151.906,75.217,151.817,74.035,153.091,73.43L153.091,73.43z M153.091,80.111v145.398c-1.732-0.726-3.342-1.415-4.822-1.84V79.077
	C149.596,79.524,151.12,79.918,153.091,80.111L153.091,80.111z M148.269,73.174v-1.532c0.295,0.063,0.588,0.096,0.878,0.096
	C150.782,71.737,150.155,72.529,148.269,73.174z M148.269,31.082v7.093c-1.013,0.024-2.06,0.019-3.187-0.068
	c-1.448-0.111-2.829-1.028-3.939-2.215v-5.9C143.776,30.079,146.068,30.56,148.269,31.082L148.269,31.082z M148.269,61.39v3.966
	c-1.866-1.842-2.653-3.954-0.625-3.954C147.856,61.401,148.064,61.397,148.269,61.39L148.269,61.39z M148.269,71.642
	c-2.649-0.564-5.443-3.618-7.126-8.408v10.703c0.208,0,0.412,0.005,0.613,0.018c2.643,0.166,4.989-0.259,6.513-0.781V71.642
	L148.269,71.642z M148.269,79.077v144.592c-0.725-0.208-1.417-0.354-2.079-0.409c-2.875-0.239-3.886-4.363-5.048-7.838V76.963
	C143.957,77.202,145.769,78.235,148.269,79.077L148.269,79.077z M141.142,51.068v-1.84C144.485,49.331,144.23,50.665,141.142,51.068
	L141.142,51.068z M141.142,45.736v-2.861c0.214-0.013,0.444-0.02,0.689-0.02c3.875,0,4.705,3.044,0.83,3.044
	C142.117,45.9,141.604,45.839,141.142,45.736z M141.142,29.991v5.9c-2.576-2.75-3.705-6.948-0.865-5.916
	C140.57,29.976,140.857,29.982,141.142,29.991L141.142,29.991z M141.142,42.875v2.861C138.465,45.139,137.426,43.096,141.142,42.875
	L141.142,42.875z M141.142,49.229c-0.134-0.004-0.273-0.006-0.418-0.006c-4.706,0-4.705-6.089-8.304-6.089
	c-3.045-0.277-2.491,0.83-3.598,3.875c-0.792,2.178-3.282-0.033-6.054-1.368v8.256c1.339-0.573,2.943-1.547,4.116-2.459
	c2.491-1.938,5.536-0.554,11.349-0.277c1.146,0.055,2.12,0.013,2.909-0.091V49.229L141.142,49.229z M141.142,63.234v10.703
	c-5.653-0.008-13.634,4.347-18.375,2.509V58.148c1.783,0.764,3.647,1.394,5.684,1.394c5.174,0,10.717-2.217,12.565,3.326
	C141.058,62.992,141.1,63.113,141.142,63.234L141.142,63.234z M141.142,76.963c-0.391-0.034-0.8-0.052-1.234-0.052
	c-5.913,0-5.174,6.652-9.608,5.174c-3.252-1.084-5.909-0.38-7.532-1.239V203.65c2.843,4.297,5.012,8.134,7.532,7.415
	c2.587-0.74,0-4.805-2.218-8.131s7.761,5.913,10.717,8.131c1.04,0.779,1.713,2.473,2.343,4.357V76.963L141.142,76.963z
	 M122.768,35.904v-2.462c0.504-0.784,1.649-1.27,3.63-1.105c4.106,0,7.038,7.039,1.76,7.039
	C125.647,39.376,123.536,37.651,122.768,35.904z M122.768,33.442v2.462C122.376,35.014,122.334,34.117,122.768,33.442
	L122.768,33.442z M122.768,45.639v8.256c-1.503,0.643-2.673,0.78-2.527-0.245c0.199-1.389-2.302-0.646-3.94-1.13v-6.46
	c0.726-0.695,1.747-1.169,3.11-1.267C120.514,44.715,121.664,45.108,122.768,45.639L122.768,45.639z M122.768,58.148v18.298
	c-0.205-0.079-0.406-0.17-0.599-0.273c-2.345-1.264-4.602-1.998-5.868-2.591v-1.708c0.1-0.044,0.208-0.09,0.324-0.137
	c1.555-0.621,0.951-0.72-0.324-0.901V55.627C118.445,56.034,120.543,57.195,122.768,58.148L122.768,58.148z M122.768,80.847V203.65
	l-0.229-0.346c-2.173-3.26-4.546-5.921-6.238-9.01V77.059c2.634-0.232,4.344-0.284,5.129,2.069
	C121.725,80.016,122.178,80.534,122.768,80.847L122.768,80.847z M116.3,41.789v-3.23C118.503,38.997,117.944,40.458,116.3,41.789z
	 M116.3,38.559v3.23c-1.59,1.286-4.195,2.452-6.301,2.452c-4.706,0-3.599,3.32-7.197,3.32c-3.598,0-5.813-4.428-0.276-4.705
	c5.535-0.277,5.813-4.152,12.179-4.429C115.348,38.427,115.875,38.474,116.3,38.559L116.3,38.559z M116.3,46.061
	c-1.339,1.279-1.677,3.305-1.319,5.099c0.157,0.785,0.67,1.17,1.319,1.361V46.061L116.3,46.061z M116.3,55.627v15.209
	c-1.758-0.249-4.791-0.653-5.219-2.794c-0.739-3.696-11.457,0-14.413-3.696c-2.956-3.696-0.369-11.457,5.914-11.457
	c5.174-0.37,7.76,2.587,12.195,2.587C115.289,55.476,115.795,55.531,116.3,55.627L116.3,55.627z M116.3,71.874v1.708
	C115.053,72.999,114.767,72.552,116.3,71.874L116.3,71.874z M116.3,77.059c-1.089,0.095-2.335,0.221-3.741,0.221
	c-4.804,0-2.587-4.064-8.87-4.064c-6.283,0-3.326,1.479-8.87-2.218c-5.543-3.695-3.696,1.479-11.088,1.479
	c-7.391,0-8.869,1.478-8.869,4.804c0,3.326-10.348-5.173-21.065-5.913c-10.718-0.739-22.175-4.065-28.826-4.065
	c-6.653,0-9.979,7.022-17.74,8.13c-7.761,1.109,0.74,3.327,2.957,7.392c2.217,4.065,1.478,3.696-5.914,4.435
	c-7.391,0.739,3.696,5.544,8.87,5.544s-0.37,3.695-4.065,5.913c-3.695,2.217-5.173,9.978,0.739,10.347
	c5.913,0.37,2.957,3.696,10.348,3.696c7.392,0,0.74,5.544-4.065,9.24c-4.804,3.695-4.435,8.5-1.847,6.283
	c2.587-2.218,9.239-7.762,12.565-8.871c3.326-1.109,5.543-7.021,8.5-8.87c2.956-1.848,5.174,3.696,7.021,0.739
	c1.848-2.956,5.544-0.369,8.87-1.108c3.327-0.739,10.348,0.739,13.304,1.478c2.957,0.74,6.283,3.696,10.718,3.327
	c4.434-0.37,4.804,7.022,7.76,9.609c2.957,2.587,6.283,2.217,5.543,5.913c-0.739,3.696,5.175,8.869,10.718,11.087
	c5.544,2.218,7.762,8.87,3.327,6.652c-4.436-2.217-4.805-1.479-3.327,2.587c1.479,4.065,2.218,6.652,0,7.76
	c-2.217,1.109-2.217,11.827,0.739,17.001c2.957,5.174,13.305,10.347,14.782,15.152c0.392,1.273,0.914,2.443,1.524,3.556V77.059z"/>
<path fill="#FFFFFF" d="M593.305,244.15h4.08v4.08h-4.08V244.15L593.305,244.15z M593.305,252.311h4.08v4.08h-4.08V252.311
	L593.305,252.311z M593.305,260.471h4.08v4.08h-4.08V260.471L593.305,260.471z M593.305,268.631h4.08v4.079h-4.08V268.631
	L593.305,268.631z M593.305,276.79h4.08v4.079h-4.08V276.79L593.305,276.79z M593.305,284.949h4.08v4.08h-4.08V284.949
	L593.305,284.949z M593.305,293.109h4.08v4.08h-4.08V293.109L593.305,293.109z M593.305,301.27h4.08v4.08h-4.08V301.27
	L593.305,301.27z M593.305,309.43h4.08v4.079h-4.08V309.43L593.305,309.43z M593.305,317.589h4.08v4.079h-4.08V317.589
	L593.305,317.589z M588.436,317.965v4.08h-4.08v-4.08H588.436L588.436,317.965z M580.275,317.965v4.08h-4.08v-4.08H580.275
	L580.275,317.965z M572.117,317.965v4.08h-4.08v-4.08H572.117L572.117,317.965z M552.326,322.326v-4.08h4.08v4.08H552.326
	L552.326,322.326z M560.486,322.326v-4.08h4.078v4.08H560.486L560.486,322.326z M544.258,318.246h4.08v4.08h-4.08V318.246
	L544.258,318.246z M535.93,318.41h4.08v4.08h-4.08V318.41L535.93,318.41z M535.93,326.57h4.08v4.08h-4.08V326.57L535.93,326.57z
	 M535.93,334.73h4.08v4.08h-4.08V334.73L535.93,334.73z M535.93,342.89h4.08v4.08h-4.08V342.89L535.93,342.89z M535.93,351.05h4.08
	v4.079h-4.08V351.05L535.93,351.05z M535.93,359.209h4.08v4.08h-4.08V359.209L535.93,359.209z M535.93,367.369h4.08v4.08h-4.08
	V367.369L535.93,367.369z M535.93,375.529h4.08v4.08h-4.08V375.529L535.93,375.529z M535.93,383.689h4.08v4.08h-4.08V383.689
	L535.93,383.689z M535.93,391.849h4.08v4.08h-4.08V391.849L535.93,391.849z M535.93,400.008h4.08v4.08h-4.08V400.008L535.93,400.008
	z M475.961,335.24h4.08v4.08h-4.08V335.24L475.961,335.24z M475.961,343.4h4.08v4.08h-4.08V343.4L475.961,343.4z M475.961,351.561
	h4.08v4.08h-4.08V351.561L475.961,351.561z M475.961,359.721h4.08v4.08h-4.08V359.721L475.961,359.721z M475.961,367.88h4.08v4.08
	h-4.08V367.88L475.961,367.88z M475.961,376.039h4.08v4.08h-4.08V376.039L475.961,376.039z M475.961,384.199h4.08v4.08h-4.08
	V384.199L475.961,384.199z M475.961,392.359h4.08v4.08h-4.08V392.359L475.961,392.359z M475.961,400.52h4.08v4.08h-4.08V400.52
	L475.961,400.52z M191.159,262.596h4.081v4.08h-4.081V262.596L191.159,262.596z M191.159,270.756h4.081v4.08h-4.081V270.756
	L191.159,270.756z M191.159,278.915h4.081v4.08h-4.081V278.915L191.159,278.915z M191.159,287.074h4.081v4.08h-4.081V287.074
	L191.159,287.074z M191.159,295.234h4.081v4.08h-4.081V295.234L191.159,295.234z M191.159,303.395h4.081v4.08h-4.081V303.395
	L191.159,303.395z M191.159,311.555h4.081v4.079h-4.081V311.555L191.159,311.555z M191.194,323.426v-4.08h4.08v4.08H191.194
	L191.194,323.426z M198.687,323.427v-4.08h4.08v4.08H198.687L198.687,323.427z M206.847,323.427v-4.08h4.08v4.08H206.847
	L206.847,323.427z M215.006,323.427v-4.08h4.08v4.08H215.006L215.006,323.427z M223.167,323.427v-4.08h4.08v4.08H223.167
	L223.167,323.427z M231.326,323.427v-4.08h4.08v4.08H231.326L231.326,323.427z M239.486,323.427v-4.08h4.08v4.08H239.486
	L239.486,323.427z M239.489,327.379h4.081v4.08h-4.081V327.379L239.489,327.379z M239.489,335.539h4.081v4.08h-4.081V335.539
	L239.489,335.539z M239.489,343.698h4.081v4.08h-4.081V343.698L239.489,343.698z M239.489,351.857h4.081v4.08h-4.081V351.857
	L239.489,351.857z M239.489,360.018h4.081v4.08h-4.081V360.018L239.489,360.018z M239.489,368.178h4.081v4.08h-4.081V368.178
	L239.489,368.178z M239.489,376.338h4.081v4.08h-4.081V376.338L239.489,376.338z M239.489,384.498h4.081v4.079h-4.081V384.498
	L239.489,384.498z M239.489,392.657h4.081v4.079h-4.081V392.657L239.489,392.657z M239.489,400.816h4.081v4.08h-4.081V400.816
	L239.489,400.816z M302.653,274.406h4.081v4.08h-4.081V274.406L302.653,274.406z M304.653,312.121h4.081v4.08h-4.081V312.121
	L304.653,312.121z M304.653,320.281h4.081v4.079h-4.081V320.281L304.653,320.281z M304.653,328.439h4.081v4.08h-4.081V328.439
	L304.653,328.439z M308.724,339.936h-4.08v-4.08h4.08V339.936L308.724,339.936z M300.439,339.936h-4.08v-4.08h4.08V339.936
	L300.439,339.936z M292.28,339.936h-4.08v-4.08h4.08V339.936L292.28,339.936z M292.277,343.221v4.08h-4.081v-4.08H292.277
	L292.277,343.221z M292.277,351.381v4.08h-4.081v-4.08H292.277L292.277,351.381z M292.277,359.541v4.08h-4.081v-4.08H292.277
	L292.277,359.541z M292.277,367.701v4.08h-4.081v-4.08H292.277L292.277,367.701z M292.277,375.861v4.079h-4.081v-4.079H292.277
	L292.277,375.861z M292.277,384.021v4.08h-4.081v-4.08H292.277L292.277,384.021z M292.277,392.18v4.08h-4.081v-4.08H292.277
	L292.277,392.18z M292.277,400.34v4.08h-4.081v-4.08H292.277L292.277,400.34z M381.125,253.471h4.08v4.08h-4.08V253.471
	L381.125,253.471z M381.125,261.631h4.08v4.08h-4.08V261.631L381.125,261.631z M381.125,269.791h4.08v4.08h-4.08V269.791
	L381.125,269.791z M381.125,277.95h4.08v4.08h-4.08V277.95L381.125,277.95z M381.125,286.11h4.08v4.079h-4.08V286.11L381.125,286.11
	z M381.125,294.27h4.08v4.08h-4.08V294.27L381.125,294.27z M380.883,212.554h4.08v4.079h-4.08V212.554L380.883,212.554z
	 M380.883,220.713h4.08v4.08h-4.08V220.713L380.883,220.713z M380.883,228.873h4.08v4.08h-4.08V228.873L380.883,228.873z
	 M380.883,237.033h4.08v4.08h-4.08V237.033L380.883,237.033z M380.883,245.193h4.08v4.079h-4.08V245.193L380.883,245.193z
	 M381.125,302.43h4.08v4.08h-4.08V302.43L381.125,302.43z M381.125,310.59h4.08v4.08h-4.08V310.59L381.125,310.59z M381.125,318.75
	h4.08v4.079h-4.08V318.75L381.125,318.75z M381.125,326.909h4.08v4.08h-4.08V326.909L381.125,326.909z M381.125,335.068h4.08v4.08
	h-4.08V335.068L381.125,335.068z M381.125,343.229h4.08v4.08h-4.08V343.229L381.125,343.229z M381.125,351.389h4.08v4.08h-4.08
	V351.389L381.125,351.389z M381.125,359.549h4.08v4.08h-4.08V359.549L381.125,359.549z M381.125,367.708h4.08v4.08h-4.08V367.708
	L381.125,367.708z M381.125,375.868h4.08v4.079h-4.08V375.868L381.125,375.868z M381.125,384.027h4.08v4.08h-4.08V384.027
	L381.125,384.027z M381.125,392.188h4.08v4.08h-4.08V392.188L381.125,392.188z M381.125,400.348h4.08v4.08h-4.08V400.348
	L381.125,400.348z"/>
<path fill="#FFFFFF" d="M477.998,197.806c18.779,0,35.781,7.612,48.088,19.921c12.309,12.306,19.922,29.309,19.922,48.088
	s-7.613,35.782-19.922,48.088c-12.307,12.309-29.309,19.921-48.088,19.921v-11.176c15.693,0,29.902-6.362,40.188-16.646
	c10.283-10.284,16.646-24.493,16.646-40.188c0-15.693-6.363-29.903-16.646-40.188c-10.285-10.283-24.494-16.646-40.188-16.646
	V197.806z M477.998,333.823c-18.779,0-35.781-7.612-48.088-19.921c-12.307-12.306-19.922-29.309-19.922-48.088
	s7.615-35.782,19.922-48.088c12.307-12.309,29.309-19.921,48.088-19.921v11.176c-15.693,0-29.902,6.362-40.188,16.646
	c-10.283,10.284-16.645,24.494-16.645,40.188c0,15.694,6.361,29.903,16.645,40.188c10.285,10.283,24.494,16.646,40.188,16.646
	V333.823z"/>
<path fill-rule="evenodd" clip-rule="evenodd" fill="#00C1C1" d="M477.998,328.235c34.381,0,62.422-28.04,62.422-62.421
	s-28.041-62.421-62.422-62.421s-62.422,28.04-62.422,62.421S443.617,328.235,477.998,328.235z"/>
<path fill="#FFFFFF" d="M306.37,217.639c13.303,0,25.346,5.394,34.065,14.111c8.719,8.717,14.11,20.762,14.11,34.064
	s-5.392,25.348-14.11,34.064c-8.719,8.719-20.762,14.111-34.065,14.111v-7.934c11.113,0,21.174-4.504,28.456-11.787
	c7.282-7.281,11.787-17.342,11.787-28.455s-4.505-21.174-11.787-28.455c-7.282-7.283-17.342-11.787-28.456-11.787V217.639z
	 M306.37,313.99c-13.303,0-25.347-5.393-34.065-14.111c-8.718-8.717-14.111-20.762-14.111-34.064s5.393-25.348,14.111-34.064
	c8.718-8.718,20.762-14.111,34.065-14.111v7.934c-11.113,0-21.174,4.504-28.456,11.787c-7.283,7.281-11.787,17.342-11.787,28.455
	s4.504,21.174,11.787,28.455c7.281,7.283,17.342,11.787,28.456,11.787V313.99z"/>
<path fill="#FFFFFF" d="M594.443,117.604c16.748,0,31.912,6.791,42.887,17.765c10.979,10.976,17.768,26.141,17.768,42.89
	s-6.789,31.913-17.768,42.888c-10.975,10.977-26.139,17.766-42.887,17.766v-9.988c13.99,0,26.658-5.67,35.826-14.839
	c9.17-9.168,14.842-21.835,14.842-35.826c0-13.992-5.672-26.659-14.842-35.827c-9.168-9.168-21.836-14.84-35.826-14.84V117.604z
	 M594.443,238.912c-16.75,0-31.914-6.789-42.891-17.766c-10.975-10.975-17.764-26.139-17.764-42.888s6.789-31.914,17.764-42.89
	c10.977-10.975,26.141-17.765,42.891-17.765v9.988c-13.992,0-26.66,5.672-35.828,14.84c-9.166,9.168-14.838,21.835-14.838,35.827
	c0,13.991,5.672,26.658,14.838,35.826c9.168,9.169,21.836,14.839,35.828,14.839V238.912z"/>
<path fill-rule="evenodd" clip-rule="evenodd" fill="#FFC200" d="M306.37,309.669c24.154,0,43.854-19.7,43.854-43.854
	s-19.7-43.855-43.854-43.855s-43.854,19.701-43.854,43.855S282.216,309.669,306.37,309.669z"/>
<path fill-rule="evenodd" clip-rule="evenodd" fill="#FF9100" d="M594.939,233.953c30.656,0,55.66-25.004,55.66-55.661
	s-25.004-55.661-55.66-55.661s-55.66,25.004-55.66,55.661S564.283,233.953,594.939,233.953z"/>
<path fill="#FFFFFF" d="M385.206,72.796c20.111,0,38.318,8.152,51.498,21.332c13.182,13.179,21.332,31.387,21.332,51.498
	s-8.15,38.317-21.332,51.497c-13.18,13.18-31.387,21.332-51.498,21.332v-8.984c17.63,0,33.593-7.146,45.146-18.699
	s18.699-27.516,18.699-45.146s-7.146-33.593-18.699-45.146c-11.553-11.552-27.516-18.699-45.146-18.699V72.796z M385.206,218.455
	c-20.11,0-38.317-8.152-51.497-21.332c-13.18-13.18-21.332-31.387-21.332-51.497s8.152-38.318,21.332-51.498
	c13.18-13.18,31.387-21.332,51.497-21.332v8.984c-17.63,0-33.593,7.147-45.146,18.699c-11.553,11.553-18.699,27.516-18.699,45.146
	s7.146,33.593,18.699,45.146s27.516,18.699,45.146,18.699V218.455z"/>
<path fill-rule="evenodd" clip-rule="evenodd" fill="#F2463D" d="M385.345,210.797c36.475,0,66.225-29.751,66.225-66.227
	c0-36.475-29.75-66.225-66.225-66.225c-36.474,0-66.224,29.75-66.224,66.225C319.121,181.046,348.872,210.797,385.345,210.797z"/>
<path fill="#FFFFFF" d="M193.707,154.476c15.434,0,29.407,6.257,39.521,16.37c10.114,10.115,16.371,24.088,16.371,39.521
	s-6.257,29.406-16.371,39.521c-10.115,10.113-24.088,16.371-39.521,16.371v-7.752c13.293,0,25.329-5.389,34.041-14.1
	c8.712-8.712,14.1-20.747,14.1-34.041s-5.388-25.33-14.1-34.041c-8.711-8.711-20.747-14.1-34.041-14.1V154.476z M193.707,154.476
	L193.707,154.476v7.751l0,0c-13.294,0-25.329,5.389-34.041,14.1c-8.712,8.711-14.1,20.747-14.1,34.041s5.388,25.329,14.1,34.041
	c8.711,8.711,20.747,14.1,34.041,14.1l0,0v7.752l0,0c-15.433,0-29.407-6.258-39.521-16.371
	c-10.114-10.115-16.371-24.088-16.371-39.521s6.257-29.406,16.371-39.521C164.3,160.732,178.273,154.476,193.707,154.476z"/>
<path fill-rule="evenodd" clip-rule="evenodd" fill="#A4DD2D" d="M193.707,261.97c28.421,0,51.602-23.181,51.602-51.603
	s-23.181-51.602-51.602-51.602s-51.603,23.18-51.603,51.602S165.286,261.97,193.707,261.97z"/>
<g>
	<g>
		<path fill="#FFFFFF" d="M324.381,133.751c1.126-0.243,2.648-0.396,4.17-0.396c2.375,0,4.231,0.334,5.571,1.582
			c1.218,1.066,1.766,2.771,1.766,4.506c0,2.223-0.67,3.775-1.735,4.932c-1.278,1.34-3.349,1.948-4.992,1.948
			c-0.274,0-0.548,0-0.792,0v7.641h-3.988V133.751z M328.369,143.066c0.183,0.061,0.396,0.061,0.639,0.061
			c2.009,0,2.922-1.432,2.922-3.349c0-1.796-0.73-3.196-2.587-3.196c-0.365,0-0.73,0.061-0.974,0.152V143.066z"/>
		<path fill="#FFFFFF" d="M340.273,149.275l-0.914,4.688h-3.866l4.444-20.518h4.779l3.988,20.518h-3.866l-0.883-4.688H340.273z
			 M343.591,146.171l-0.669-4.292c-0.213-1.248-0.487-3.288-0.67-4.658h-0.091c-0.213,1.37-0.518,3.501-0.73,4.688l-0.761,4.262
			H343.591z"/>
		<path fill="#FFFFFF" d="M350.502,149.885c0.822,0.457,2.222,0.791,3.379,0.791c1.887,0,2.801-0.974,2.801-2.313
			c0-1.492-0.914-2.223-2.648-3.35c-2.801-1.704-3.866-3.865-3.866-5.723c0-3.287,2.192-6.027,6.484-6.027
			c1.339,0,2.618,0.365,3.227,0.73l-0.64,3.439c-0.578-0.365-1.461-0.699-2.618-0.699c-1.705,0-2.527,1.035-2.527,2.131
			c0,1.217,0.609,1.856,2.831,3.196c2.709,1.644,3.714,3.714,3.714,5.875c0,3.744-2.77,6.21-6.788,6.21
			c-1.644,0-3.257-0.426-3.927-0.822L350.502,149.885z"/>
		<path fill="#FFFFFF" d="M362.497,149.885c0.822,0.457,2.222,0.791,3.379,0.791c1.887,0,2.801-0.974,2.801-2.313
			c0-1.492-0.914-2.223-2.648-3.35c-2.801-1.704-3.866-3.865-3.866-5.723c0-3.287,2.192-6.027,6.484-6.027
			c1.339,0,2.618,0.365,3.227,0.73l-0.64,3.439c-0.578-0.365-1.461-0.699-2.618-0.699c-1.705,0-2.527,1.035-2.527,2.131
			c0,1.217,0.609,1.856,2.831,3.196c2.709,1.644,3.714,3.714,3.714,5.875c0,3.744-2.77,6.21-6.788,6.21
			c-1.644,0-3.257-0.426-3.927-0.822L362.497,149.885z"/>
		<path fill="#FFFFFF" d="M378.937,133.446v20.518h-3.988v-20.518H378.937z"/>
		<path fill="#FFFFFF" d="M394.614,143.34c0,7.732-2.739,10.867-6.636,10.867c-4.658,0-6.484-4.932-6.484-10.563
			c0-5.602,2.223-10.441,6.758-10.441C393.213,133.203,394.614,138.652,394.614,143.34z M385.634,143.705
			c0,4.658,0.883,7.032,2.496,7.032c1.674,0,2.313-3.044,2.313-7.215c0-3.592-0.548-6.849-2.344-6.849
			C386.517,136.674,385.634,139.291,385.634,143.705z"/>
		<path fill="#FFFFFF" d="M397.143,153.964v-20.518h3.652l3.166,8.036c0.609,1.584,1.613,4.232,2.191,5.998h0.061
			c-0.121-2.162-0.395-5.724-0.395-9.498v-4.536h3.5v20.518h-3.652l-3.137-7.793c-0.668-1.735-1.613-4.323-2.068-6.18h-0.063
			c0.092,2.07,0.244,5.235,0.244,9.346v4.627H397.143z"/>
		<path fill="#FFFFFF" d="M416.107,149.275l-0.912,4.688h-3.867l4.445-20.518h4.779l3.988,20.518h-3.867l-0.883-4.688H416.107z
			 M419.426,146.171l-0.67-4.292c-0.213-1.248-0.486-3.288-0.668-4.658h-0.092c-0.213,1.37-0.518,3.501-0.73,4.688l-0.762,4.262
			H419.426z"/>
		<path fill="#FFFFFF" d="M427.494,137.13h-3.623v-3.684h11.264v3.684h-3.652v16.834h-3.988V137.13z"/>
		<path fill="#FFFFFF" d="M445.912,144.953h-4.688v5.541h5.297v3.47h-9.285v-20.518h8.92v3.471h-4.932v4.718h4.688V144.953z"/>
	</g>
</g>
<g>
	<g>
		<path fill="#FFFFFF" d="M426.594,254.718v18.749h-3.645v-18.749H426.594z"/>
		<path fill="#FFFFFF" d="M429.848,273.467v-18.749h3.338l2.895,7.344c0.555,1.446,1.473,3.866,2.002,5.479h0.055
			c-0.109-1.975-0.361-5.229-0.361-8.679v-4.145h3.199v18.749h-3.338l-2.865-7.121c-0.611-1.586-1.475-3.951-1.891-5.647h-0.057
			c0.084,1.892,0.223,4.784,0.223,8.54v4.229H429.848z"/>
		<path fill="#FFFFFF" d="M444.201,273.467v-18.749h3.338l2.893,7.344c0.557,1.446,1.475,3.866,2.002,5.479h0.057
			c-0.111-1.975-0.361-5.229-0.361-8.679v-4.145h3.199v18.749h-3.338l-2.865-7.121c-0.613-1.586-1.475-3.951-1.893-5.647h-0.055
			c0.082,1.892,0.223,4.784,0.223,8.54v4.229H444.201z"/>
		<path fill="#FFFFFF" d="M469.625,263.758c0,7.066-2.504,9.932-6.064,9.932c-4.256,0-5.926-4.507-5.926-9.652
			c0-5.119,2.031-9.542,6.176-9.542C468.346,254.495,469.625,259.475,469.625,263.758z M461.418,264.092
			c0,4.256,0.807,6.426,2.281,6.426c1.529,0,2.115-2.781,2.115-6.592c0-3.283-0.502-6.26-2.143-6.26
			C462.225,257.666,461.418,260.059,461.418,264.092z"/>
		<path fill="#FFFFFF" d="M474.549,273.467l-4.201-18.749h4.033l1.336,8.095c0.334,2.003,0.723,4.312,0.973,6.51h0.057
			c0.25-2.227,0.557-4.479,0.889-6.594l1.281-8.011h4.004l-4.283,18.749H474.549z"/>
		<path fill="#FFFFFF" d="M487.037,269.183l-0.834,4.284h-3.533l4.063-18.749h4.367l3.643,18.749h-3.531l-0.807-4.284H487.037z
			 M490.07,266.346l-0.613-3.923c-0.193-1.14-0.445-3.004-0.611-4.256h-0.084c-0.193,1.252-0.473,3.199-0.668,4.284l-0.695,3.895
			H490.07z"/>
		<path fill="#FFFFFF" d="M497.439,258.084h-3.309v-3.366h10.291v3.366h-3.338v15.383h-3.645V258.084z"/>
		<path fill="#FFFFFF" d="M509.986,254.718v18.749h-3.645v-18.749H509.986z"/>
		<path fill="#FFFFFF" d="M515.854,273.467l-4.201-18.749h4.035l1.334,8.095c0.334,2.003,0.725,4.312,0.975,6.51h0.055
			c0.25-2.227,0.557-4.479,0.891-6.594l1.279-8.011h4.006l-4.283,18.749H515.854z"/>
		<path fill="#FFFFFF" d="M533.74,265.232h-4.283v5.063h4.84v3.172h-8.484v-18.749h8.15v3.171h-4.506v4.313h4.283V265.232z"/>
	</g>
</g>
<g>
	<g>
		<path fill="#FFFFFF" d="M553.076,168.878v18.749h-3.645v-18.749H553.076z"/>
		<path fill="#FFFFFF" d="M556.33,187.627v-18.749h3.338l2.893,7.344c0.557,1.446,1.475,3.866,2.002,5.479h0.057
			c-0.111-1.975-0.361-5.229-0.361-8.679v-4.145h3.199v18.749h-3.338l-2.865-7.121c-0.613-1.586-1.475-3.951-1.893-5.647h-0.055
			c0.082,1.892,0.223,4.784,0.223,8.54v4.229H556.33z"/>
		<path fill="#FFFFFF" d="M579.668,187.348c-0.529,0.251-1.559,0.445-2.838,0.445c-4.785,0-7.066-3.949-7.066-9.263
			c0-7.065,3.922-9.819,7.566-9.819c1.279,0,2.17,0.25,2.531,0.501l-0.611,3.06c-0.418-0.195-0.891-0.361-1.697-0.361
			c-2.059,0-3.922,1.78-3.922,6.426c0,4.479,1.697,6.23,3.922,6.23c0.611,0,1.307-0.139,1.752-0.277L579.668,187.348z"/>
		<path fill="#FFFFFF" d="M581.67,168.878h3.645v15.661h4.811v3.088h-8.455V168.878z"/>
		<path fill="#FFFFFF" d="M595.217,168.878v12.184c0,2.754,0.834,3.589,1.779,3.589c1.057,0,1.809-0.752,1.809-3.589v-12.184h3.645
			v11.544c0,4.813-1.809,7.428-5.426,7.428c-3.922,0-5.451-2.699-5.451-7.4v-11.571H595.217z"/>
		<path fill="#FFFFFF" d="M605.174,183.898c0.752,0.418,2.031,0.724,3.088,0.724c1.725,0,2.559-0.89,2.559-2.114
			c0-1.363-0.834-2.03-2.42-3.06c-2.559-1.558-3.533-3.532-3.533-5.229c0-3.004,2.004-5.508,5.926-5.508
			c1.225,0,2.393,0.334,2.949,0.668l-0.584,3.143c-0.529-0.334-1.336-0.639-2.393-0.639c-1.559,0-2.309,0.945-2.309,1.946
			c0,1.112,0.557,1.697,2.586,2.921c2.477,1.502,3.395,3.394,3.395,5.369c0,3.421-2.531,5.674-6.203,5.674
			c-1.502,0-2.977-0.389-3.588-0.75L605.174,183.898z"/>
		<path fill="#FFFFFF" d="M620.195,168.878v18.749h-3.645v-18.749H620.195z"/>
		<path fill="#FFFFFF" d="M626.064,187.627l-4.201-18.749h4.033l1.336,8.095c0.334,2.003,0.723,4.312,0.973,6.51h0.057
			c0.25-2.227,0.557-4.479,0.889-6.594l1.281-8.011h4.004l-4.283,18.749H626.064z"/>
		<path fill="#FFFFFF" d="M643.949,179.393h-4.283v5.063h4.84v3.172h-8.484v-18.749h8.15v3.171h-4.506v4.313h4.283V179.393z"/>
	</g>
</g>
<g>
	<path fill="#FFFFFF" d="M154.569,205.865h-3.25v-3.306h10.106v3.306h-3.277v15.104h-3.578V205.865z"/>
	<path fill="#FFFFFF" d="M163.308,202.833c1.12-0.219,2.541-0.355,3.906-0.355c1.967,0,3.715,0.273,4.917,1.366
		c1.12,1.01,1.448,2.239,1.448,3.823c0,1.967-0.956,3.742-2.841,4.616v0.055c1.257,0.492,1.885,1.666,2.24,3.633
		c0.355,2.049,0.847,4.315,1.175,4.998h-3.742c-0.218-0.52-0.628-2.377-0.901-4.397c-0.328-2.294-0.901-2.95-2.103-2.95h-0.519
		v7.348h-3.578V202.833z M166.886,210.863h0.628c1.557,0,2.458-1.257,2.458-2.868c0-1.558-0.628-2.677-2.24-2.731
		c-0.3,0-0.655,0.027-0.847,0.109V210.863z"/>
	<path fill="#FFFFFF" d="M179.612,202.56v11.964c0,2.703,0.82,3.523,1.748,3.523c1.038,0,1.775-0.738,1.775-3.523V202.56h3.578
		v11.335c0,4.725-1.775,7.293-5.326,7.293c-3.851,0-5.353-2.649-5.353-7.266V202.56H179.612z"/>
	<path fill="#FFFFFF" d="M189.389,217.309c0.738,0.41,1.994,0.711,3.032,0.711c1.693,0,2.513-0.875,2.513-2.076
		c0-1.338-0.82-1.994-2.376-3.005c-2.513-1.529-3.469-3.469-3.469-5.135c0-2.95,1.967-5.408,5.818-5.408
		c1.202,0,2.349,0.328,2.895,0.655l-0.574,3.087c-0.519-0.327-1.311-0.628-2.349-0.628c-1.53,0-2.267,0.928-2.267,1.912
		c0,1.092,0.546,1.666,2.54,2.867c2.431,1.475,3.332,3.332,3.332,5.271c0,3.359-2.485,5.572-6.091,5.572
		c-1.475,0-2.922-0.383-3.523-0.738L189.389,217.309z"/>
	<path fill="#FFFFFF" d="M202.553,205.865h-3.25v-3.306h10.106v3.306h-3.277v15.104h-3.578V205.865z"/>
	<path fill="#FFFFFF" d="M219.076,212.884h-4.207v4.972h4.752v3.113h-8.331V202.56h8.003v3.114h-4.425v4.232h4.207V212.884z"/>
	<path fill="#FFFFFF" d="M222.052,202.833c0.901-0.219,2.212-0.355,3.633-0.355c2.322,0,3.933,0.546,5.107,1.64
		c1.584,1.42,2.404,3.851,2.404,7.429c0,3.714-0.956,6.364-2.567,7.784c-1.229,1.201-3.059,1.775-5.626,1.775
		c-1.12,0-2.24-0.109-2.95-0.191V202.833z M225.63,218.128c0.164,0.055,0.437,0.055,0.628,0.055c1.721,0,3.223-1.693,3.223-6.773
		c0-3.77-0.983-6.063-3.141-6.063c-0.246,0-0.492,0-0.71,0.082V218.128z"/>
</g>
<g>
	<g>
		<path fill="#FFFFFF" d="M277.353,249.521h12.867v5.007h-7.114v7.597h6.675v4.786h-6.675v12.209h-5.753V249.521z"/>
		<path fill="#FFFFFF" d="M300.143,249.521v19.235c0,4.348,1.318,5.664,2.811,5.664c1.669,0,2.854-1.186,2.854-5.664v-19.235h5.753
			v18.225c0,7.597-2.854,11.726-8.563,11.726c-6.192,0-8.607-4.26-8.607-11.682v-18.269H300.143z"/>
		<path fill="#FFFFFF" d="M316.521,279.119v-29.599h5.27l4.567,11.594c0.878,2.283,2.328,6.104,3.162,8.651h0.088
			c-0.176-3.118-0.571-8.256-0.571-13.701v-6.544h5.05v29.599h-5.27l-4.523-11.242c-0.966-2.503-2.327-6.236-2.986-8.914h-0.088
			c0.132,2.985,0.351,7.553,0.351,13.481v6.675H316.521z"/>
	</g>
</g>
<g>
	<g>
		<rect x="324.938" y="411.166" fill="#449EA6" width="4.455" height="4.08"/>
		<rect x="316.026" y="411.166" fill="#449EA6" width="4.456" height="4.08"/>
		<rect x="307.115" y="411.166" fill="#449EA6" width="4.455" height="4.08"/>
		<rect x="298.203" y="411.166" fill="#449EA6" width="4.456" height="4.08"/>
		<rect x="289.292" y="411.166" fill="#449EA6" width="4.456" height="4.08"/>
		<rect x="280.379" y="411.166" fill="#449EA6" width="4.456" height="4.08"/>
		<rect x="271.468" y="411.166" fill="#449EA6" width="4.456" height="4.08"/>
		<rect x="262.557" y="411.166" fill="#449EA6" width="4.456" height="4.08"/>
		<rect x="253.646" y="411.166" fill="#449EA6" width="4.455" height="4.08"/>
		<rect x="244.734" y="411.166" fill="#449EA6" width="4.456" height="4.08"/>
		<rect x="235.823" y="411.166" fill="#449EA6" width="4.456" height="4.08"/>
		<rect x="226.912" y="411.166" fill="#449EA6" width="4.455" height="4.08"/>
		<rect x="218" y="411.166" fill="#449EA6" width="4.455" height="4.08"/>
		<rect x="209.087" y="411.166" fill="#449EA6" width="4.456" height="4.08"/>
		<rect x="200.176" y="411.166" fill="#449EA6" width="4.456" height="4.08"/>
		<rect x="191.265" y="411.166" fill="#449EA6" width="4.455" height="4.08"/>
		<rect x="182.353" y="411.166" fill="#449EA6" width="4.456" height="4.08"/>
		<rect x="173.442" y="411.166" fill="#449EA6" width="4.456" height="4.08"/>
		<rect x="164.531" y="411.166" fill="#449EA6" width="4.455" height="4.08"/>
		<rect x="155.619" y="411.166" fill="#449EA6" width="4.456" height="4.08"/>
		<rect x="146.708" y="411.166" fill="#449EA6" width="4.456" height="4.08"/>
		<rect x="137.796" y="411.166" fill="#449EA6" width="4.456" height="4.08"/>
	</g>
	<g>
		<rect x="521.938" y="411.166" fill="#449EA6" width="4.455" height="4.08"/>
		<rect x="513.025" y="411.166" fill="#449EA6" width="4.457" height="4.08"/>
		<rect x="504.115" y="411.166" fill="#449EA6" width="4.455" height="4.08"/>
		<rect x="495.203" y="411.166" fill="#449EA6" width="4.455" height="4.08"/>
		<rect x="486.291" y="411.166" fill="#449EA6" width="4.457" height="4.08"/>
		<rect x="477.379" y="411.166" fill="#449EA6" width="4.457" height="4.08"/>
		<rect x="468.469" y="411.166" fill="#449EA6" width="4.455" height="4.08"/>
		<rect x="459.557" y="411.166" fill="#449EA6" width="4.457" height="4.08"/>
		<rect x="450.646" y="411.166" fill="#449EA6" width="4.455" height="4.08"/>
		<rect x="441.734" y="411.166" fill="#449EA6" width="4.455" height="4.08"/>
		<rect x="432.822" y="411.166" fill="#449EA6" width="4.457" height="4.08"/>
		<rect x="423.912" y="411.166" fill="#449EA6" width="4.455" height="4.08"/>
		<rect x="415" y="411.166" fill="#449EA6" width="4.455" height="4.08"/>
		<rect x="406.088" y="411.166" fill="#449EA6" width="4.455" height="4.08"/>
		<rect x="397.176" y="411.166" fill="#449EA6" width="4.457" height="4.08"/>
		<rect x="388.265" y="411.166" fill="#449EA6" width="4.455" height="4.08"/>
		<rect x="379.353" y="411.166" fill="#449EA6" width="4.456" height="4.08"/>
		<rect x="370.442" y="411.166" fill="#449EA6" width="4.456" height="4.08"/>
		<rect x="361.531" y="411.166" fill="#449EA6" width="4.455" height="4.08"/>
		<rect x="352.619" y="411.166" fill="#449EA6" width="4.456" height="4.08"/>
		<rect x="343.708" y="411.166" fill="#449EA6" width="4.456" height="4.08"/>
		<rect x="334.796" y="411.166" fill="#449EA6" width="4.456" height="4.08"/>
	</g>
	<g>
		<rect x="647.455" y="411.166" fill="#449EA6" width="4.455" height="4.08"/>
		<rect x="638.543" y="411.166" fill="#449EA6" width="4.457" height="4.08"/>
		<rect x="629.633" y="411.166" fill="#449EA6" width="4.455" height="4.08"/>
		<rect x="620.721" y="411.166" fill="#449EA6" width="4.455" height="4.08"/>
		<rect x="611.809" y="411.166" fill="#449EA6" width="4.455" height="4.08"/>
		<rect x="602.896" y="411.166" fill="#449EA6" width="4.457" height="4.08"/>
		<rect x="593.986" y="411.166" fill="#449EA6" width="4.455" height="4.08"/>
		<rect x="585.074" y="411.166" fill="#449EA6" width="4.455" height="4.08"/>
		<rect x="576.162" y="411.166" fill="#449EA6" width="4.457" height="4.08"/>
		<rect x="567.252" y="411.166" fill="#449EA6" width="4.455" height="4.08"/>
		<rect x="558.34" y="411.166" fill="#449EA6" width="4.455" height="4.08"/>
		<rect x="549.428" y="411.166" fill="#449EA6" width="4.457" height="4.08"/>
		<rect x="540.518" y="411.166" fill="#449EA6" width="4.455" height="4.08"/>
		<rect x="531.605" y="411.166" fill="#449EA6" width="4.455" height="4.08"/>
	</g>
</g>
</svg>
