<?xml version="1.0" encoding="utf-8"?>
<!-- Generator: Adobe Illustrator 17.0.0, SVG Export Plug-In . SVG Version: 6.00 Build 0)  -->
<!DOCTYPE svg PUBLIC "-//W3C//DTD SVG 1.1//EN" "http://www.w3.org/Graphics/SVG/1.1/DTD/svg11.dtd">
<svg version="1.1" id="Layer_1" xmlns="http://www.w3.org/2000/svg" xmlns:xlink="http://www.w3.org/1999/xlink" x="0px" y="0px"
	 width="5000px" height="5000px" viewBox="0 0 5000 5000" enable-background="new 0 0 5000 5000" xml:space="preserve">
<g>
	<polygon fill-rule="evenodd" clip-rule="evenodd" fill="#FFFFFF" points="-1,0 4987.551,0 4987.551,4988.552 -1,4988.552 -1,0 	"/>
	
		<path fill-rule="evenodd" clip-rule="evenodd" fill="#FEEE00" stroke="#000000" stroke-width="0.0832" stroke-miterlimit="2.6131" d="
		M4196.47,220.083v2914.811c0,449.108-183.813,857.605-479.95,1153.698c-296.137,296.092-704.597,479.875-1153.882,479.875h-69.363
		h-69.363c-449.3,0-857.745-183.784-1153.881-479.875c-296.137-296.094-479.95-704.465-479.95-1153.698V220.083H4196.47
		L4196.47,220.083z"/>
	
		<polygon fill-rule="evenodd" clip-rule="evenodd" fill="#FFFFFF" stroke="#000000" stroke-width="0.0834" stroke-miterlimit="2.6131" points="
		4011.512,1707.802 4011.512,3098.258 4011.006,3135.107 4009.59,3170.217 4007.213,3205.218 4003.971,3239.866 3999.782,3274.199 
		3994.727,3308.407 3988.741,3342.359 3981.977,3375.973 3974.318,3409.109 3965.801,3442.129 3956.433,3474.871 3946.287,3507.194 
		3935.29,3539.201 3923.493,3570.908 3910.846,3602.336 3897.487,3633.375 3883.402,3663.871 3868.502,3694.103 3852.825,3723.99 
		3836.443,3753.438 3819.328,3782.422 3801.501,3811.034 3782.883,3839.307 3763.706,3867.008 3743.818,3894.18 3723.211,3921.031 
		3701.906,3947.397 3680.074,3973.228 3657.552,3998.522 3634.407,4023.363 3610.675,4047.601 3586.422,4071.274 3561.545,4094.346 
		3536.067,4116.919 3509.913,4138.958 3483.342,4160.379 3456.228,4181.133 3428.512,4201.402 3400.297,4220.997 3371.723,4239.916 
		3342.606,4258.169 3312.887,4275.878 3282.816,4292.832 3252.343,4309.118 3221.384,4324.7 3189.979,4339.615 3158.191,4353.788 
		3126.132,4367.19 3093.487,4379.897 3060.474,4391.928 3027.161,4403.145 2993.518,4413.613 2959.536,4423.261 2925.123,4432.174 
		2890.416,4440.273 2855.584,4447.565 2820.268,4453.992 2784.578,4459.692 2748.616,4464.497 2712.508,4468.488 2676.084,4471.569 
		2639.294,4473.829 2602.349,4475.178 2563.614,4475.655 2422.937,4475.655 2384.144,4475.178 2347.199,4473.829 2310.379,4471.569 
		2273.985,4468.488 2237.811,4464.497 2201.893,4459.692 2166.203,4454.014 2130.887,4447.565 2095.974,4440.273 2061.304,4432.174 
		2026.934,4423.283 1992.953,4413.613 1959.288,4403.145 1925.997,4391.928 1892.999,4379.919 1860.383,4367.19 1828.177,4353.744 
		1796.448,4339.593 1765.079,4324.7 1734.15,4309.118 1703.639,4292.832 1673.583,4275.878 1643.901,4258.206 1614.806,4239.938 
		1586.108,4220.961 1557.915,4201.38 1530.28,4181.191 1503.188,4160.4 1476.514,4138.936 1450.47,4116.935 1425.051,4094.42 
		1400.13,4071.274 1375.731,4047.505 1352.02,4023.303 1328.875,3998.485 1306.353,3973.19 1284.476,3947.397 1263.254,3921.053 
		1242.653,3894.247 1222.802,3867.067 1203.545,3839.27 1185.007,3811.092 1167.165,3782.481 1150.05,3753.438 1133.646,3723.99 
		1118.035,3694.184 1103.127,3663.966 1088.984,3633.309 1075.581,3602.321 1063.014,3570.988 1051.204,3539.275 1040.221,3507.231 
		1030.016,3474.849 1020.692,3442.167 1012.153,3409.213 1004.516,3375.951 997.694,3342.3 991.744,3308.466 986.69,3274.354 
		982.537,3239.961 979.258,3205.262 976.925,3170.356 975.501,3135.209 975.046,3098.382 975.046,1707.802 4011.512,1707.802 	"/>
	<polygon fill-rule="evenodd" clip-rule="evenodd" fill="#009BDB" points="1673.239,3713.118 2326.996,3636.852 2498.25,3771.616 
		2675.366,3653.255 3311.912,3742.081 3234.941,3089.014 3364.101,2906.777 3241.728,2736.661 3287.71,2146.215 2769.847,2229.897 
		2701.02,2370.494 2266.025,2370.494 2157.04,2207.698 1738.391,2106.496 1726.088,2024.758 1655.559,2118.102 1776.23,2705.409 
		1633.683,2884.439 1735.662,3061.049 1673.239,3713.118 	"/>
	<polygon fill-rule="evenodd" clip-rule="evenodd" fill="#BF0411" points="975.046,391.719 4011.512,391.719 4011.512,1578.371 
		975.046,1578.371 975.046,391.719 	"/>
	<polygon fill-rule="evenodd" clip-rule="evenodd" fill="#009BDB" points="975.046,1035.807 4011.512,1035.807 4011.512,1578.371 
		975.046,1578.371 975.046,1035.807 	"/>
	<path fill-rule="evenodd" clip-rule="evenodd" fill="#FEEE00" d="M1205.884,1298.219v-138.403h131.698V865.015
		c-28.412,21.568-67.668,37.157-117.751,46.738V771.546c69.7-14.973,121.096-48.227,154.153-99.749h114.656v488.019h127.054v138.403
		H1205.884L1205.884,1298.219z M1817.877,983.655c0,128.822,19.617,193.226,58.88,193.226c22.735,0,37.95-16.315,45.719-48.969
		c7.746-32.653,11.606-80.741,11.606-144.257c0-127.025-21.165-187.849-63.523-182.457
		C1835.447,804.8,1817.877,865.616,1817.877,983.655L1817.877,983.655z M1664.487,998.04c0-65.908,8.275-123.29,24.788-172.119
		c16.543-48.822,40.547-86.427,72.041-112.786c31.508-26.373,68.438-39.549,110.789-39.549c69.722,0,123.166,28.163,160.353,84.475
		c37.209,56.334,55.798,133.312,55.798,230.984c0,52.732-6.72,103.051-20.159,150.992c-13.418,47.927-34.972,87.483-64.676,118.625
		c-29.696,31.164-68.049,47.942-115.06,50.341c-69.7,2.993-123.664-23.08-161.9-78.182
		C1688.255,1175.691,1667.583,1098.09,1664.487,998.04L1664.487,998.04z M2119.23,1062.745v-75.511h273.476v75.511H2119.23
		L2119.23,1062.745z M2288.114,824.578c-43.385,4.783-65.078,19.771-65.078,44.926c0,14.386,8.796,22.771,26.344,25.171
		c10.337-1.798,19.375-5.399,27.122-10.784C2284.248,876.701,2288.114,856.923,2288.114,824.578L2288.114,824.578z
		 M2288.114,773.357c0-26.38-11.092-38.654-33.305-36.864c-21.693,2.399-34.106,12.882-37.187,31.472l-89.86-10.806
		c1.548-25.757,15.993-46.716,43.364-62.915c27.379-16.176,57.846-24.26,91.43-24.26c34.591,0,63.649,7.945,87.146,23.82
		c23.483,15.875,35.257,38.786,35.257,68.747v139.32c0,19.756,3.103,36.541,9.295,50.319h-98.377l-3.118-35.045
		c-20.643,26.96-48.792,41.647-84.431,44.039c-24.29-1.211-44.934-9.435-61.976-24.708c-17.042-15.289-25.574-34.017-25.574-56.173
		c0-38.346,13.564-64.418,40.665-78.203C2188.571,788.323,2230.783,778.742,2288.114,773.357L2288.114,773.357z M2677.794,679.881
		h281.208c30.973,0,58.219,4.49,81.717,13.476c23.505,8.979,43.261,21.575,59.283,37.752c15.992,16.169,28.39,35.507,37.164,57.955
		c8.789,22.478,13.44,47.787,13.946,75.951c0,35.353-7.607,68.16-22.845,98.421c-15.23,30.261-39.38,52.27-72.415,66.054
		l96.822,268.729h-181.297l-80.573-237.264h-48.007v237.264h-165.004V679.881L2677.794,679.881z M2842.797,811.982V929.72h78.254
		c19.096,0,33.687-5.679,43.767-17.064c10.059-11.386,15.091-25.17,15.091-41.346c0-16.169-5.289-30.115-15.875-41.786
		c-10.608-11.686-25.434-17.541-44.552-17.541H2842.797L2842.797,811.982z M3207.673,1298.219V679.881h213.033l77.469,332.524
		l72.055-332.524h215.366v618.338h-151.843V854.231l-98.37,443.988h-103.813l-101.495-440.386v440.386H3207.673L3207.673,1298.219z"
		/>
	
		<path fill-rule="evenodd" clip-rule="evenodd" fill="#FEEE00" stroke="#000000" stroke-width="0.0832" stroke-miterlimit="2.6131" d="
		M1485.787,3937.236l792.725-94.642l212.974,171.532l224.8-153.787l786.819,112.382l-94.658-822.18l159.729-230.684l-153.809-218.85
		l59.158-668.393l-786.812,130.128l-65.079,136.048h-289.879l-100.571-153.787l-496.933-141.961l-82.824,106.469l-183.395-65.064
		l130.149,626.987l-165.641,212.938l130.149,230.685L1485.787,3937.236L1485.787,3937.236z M1673.239,3713.111l653.771-76.252
		l171.24,134.757l177.116-118.361l636.539,88.825l-100.629-653.06l129.159-182.258l-122.359-170.102l69.641-590.453l-517.863,83.698
		l-68.842,140.589h-434.995L2157.04,2207.69l-418.642-101.194l-12.317-81.746l-70.53,93.352l120.672,587.314l-142.54,179.015
		l101.979,176.625L1673.239,3713.111L1673.239,3713.111z"/>
	<path fill="none" stroke="#000000" stroke-width="1.3714" stroke-miterlimit="2.6131" d="M2166.107,2204.155l70.991-53.238
		 M2266.686,2363.854l59.151-65.064 M2674.881,2375.688l-59.158-70.984 M2763.619,2227.814l-70.992-65.072 M3290.131,2145.004
		l11.833-76.897 M3236.893,2742.412l171.554-41.405 M3349.289,2913.945h201.141 M3225.06,3091.398l177.475,53.23 M3319.71,3753.87
		l177.475,218.851 M2716.286,3854.426l-41.405-201.112 M2497.399,4008.213v-236.596 M2278.512,3836.681l41.412-195.193
		 M1491.7,3925.403l183.387-207.025 M1574.524,3120.97l159.728-53.239 M1444.374,2884.373h189.309 M1604.104,2671.435
		l165.642,29.573"/>
	<path fill-rule="evenodd" clip-rule="evenodd" fill="#BF0411" d="M2438.006,2872.4c-20.959,39.05-25.031,78.101-9.816,117.311
		c2.611,63.033,2.758,126.05,33.489,189.14c3.492,60.662,60.457,63.031,68.402,0c26.256-63.854,35.918-127.715,34.194-191.532
		c14.877-37.546,10.476-75.041-2.626-112.52c38.552,75.803,77.125,78.181,115.749,7.175
		c103.454,9.559,104.297-110.085,2.626-107.738c-41.713-78.181-78.562-68.541-113.115,0c19.668-26.674,17.02-55.381-5.26-88.576
		c21.906-99.756-125.41-100.533-118.383-2.399c-36.299,31.208-16.448,62.292-7.893,93.374
		c-41.185-102.14-82.392-81.379-123.643-4.79c-126.269-47.075-127.993,144.455,2.634,100.556
		C2355.592,2958.593,2396.821,2958.593,2438.006,2872.4L2438.006,2872.4z"/>
	
		<path fill-rule="evenodd" clip-rule="evenodd" fill="#FEEE00" stroke="#000000" stroke-width="0.0832" stroke-miterlimit="2.6131" d="
		M1769.789,3653.314l47.281-443.622l153.816-94.635l11.833-425.862l-159.773-118.317l-59.115-378.58l360.871,82.833l106.483,165.597
		h467.677l94.372-118.258l437.738-88.745l-189.308,668.406l183.395,792.609l-455.55-147.896l-82.781-106.469H2242.88
		l-106.307,106.469L1769.789,3653.314L1769.789,3653.314z M1869.509,3556.001l40.833-282.25l144.558-81.658l-1.614-580.432
		l-137.838-102.082l-51.045-214.273l264.063,71.468l91.892,142.908h492.29l81.394-102.09l336.361-76.552l-163.353,576.75
		l158.24,683.946l-322.092-151.256l-71.454-91.885h-542.71l-91.782,91.885L1869.509,3556.001L1869.509,3556.001z"/>
	<path fill="none" stroke="#000000" stroke-width="1.3714" stroke-miterlimit="2.6131" d="M1870.316,3564.592l-106.484,82.81
		 M1905.808,3274.757l-88.738-59.151 M2047.791,3186.034l-76.905-65.064 M2083.29,3452.209l59.159,94.636 M2201.607,3345.741
		l41.412,94.635 M2698.54,3446.289l41.412-94.635 M2769.531,3540.932l53.245-88.723 M3130.402,3594.163l94.658,94.643
		 M2970.673,2908.032h65.071 M3130.402,2334.282l94.658-100.556 M2698.54,2440.751l11.833,65.064 M2479.653,2440.751v65.064
		 M2225.273,2440.751l-5.92,65.064 M1917.641,2511.729l-88.738,53.237 M1994.553,2683.261l53.238-70.976 M1864.403,2286.965
		l-94.657-94.643"/>
</g>
</svg>
