<?xml version="1.0" encoding="utf-8"?>
<!-- Generator: Adobe Illustrator 16.0.1, SVG Export Plug-In . SVG Version: 6.00 Build 0)  -->
<!DOCTYPE svg PUBLIC "-//W3C//DTD SVG 1.1 Tiny//EN" "http://www.w3.org/Graphics/SVG/1.1/DTD/svg11-tiny.dtd">
<svg version="1.1" baseProfile="tiny" id="Layer_1" xmlns="http://www.w3.org/2000/svg" xmlns:xlink="http://www.w3.org/1999/xlink"
	 x="0px" y="0px" width="460px" height="380.816px" viewBox="0 0 460 380.816" xml:space="preserve">
<path fill="#ED1C24" d="M377.524,238.818c-28.351,0-51.331,22.985-51.331,51.33c0,28.354,22.98,51.331,51.331,51.331
	c28.346,0,51.328-22.978,51.328-51.331C428.853,261.803,405.87,238.818,377.524,238.818z"/>
<polygon fill="#F69679" points="420.198,275.957 391.831,275.957 391.831,247.605 363.464,247.605 363.464,275.957 335.094,275.957 
	335.094,304.342 363.464,304.342 363.464,332.692 391.831,332.692 391.831,304.342 420.198,304.342 "/>
<g>
	<path fill="#72BF44" d="M232.816,100.203c-23.897,0-43.27,19.364-43.27,43.267c0,23.896,19.372,43.26,43.27,43.26
		c23.895,0,43.271-19.364,43.271-43.26C276.087,119.567,256.711,100.203,232.816,100.203z"/>
	<path fill="#ED1C24" d="M377.522,137.268c-4.602,0-8.325,3.731-8.325,8.33c0,4.595,3.724,8.325,8.325,8.325
		c4.599,0,8.326-3.73,8.326-8.325C385.849,141,382.121,137.268,377.522,137.268z"/>
	<path fill="#72BF44" d="M80.288,244.542c-25.187,0-45.61,20.416-45.61,45.605c0,25.194,20.423,45.607,45.61,45.607
		c25.189,0,45.607-20.413,45.607-45.607C125.895,264.958,105.478,244.542,80.288,244.542z"/>
	<path fill="#72BF44" d="M232.816,243.043c-26.016,0-47.106,21.092-47.106,47.104c0,26.019,21.09,47.107,47.106,47.107
		c26.019,0,47.107-21.089,47.107-47.107C279.924,264.135,258.835,243.043,232.816,243.043z"/>
</g>
<path fill="#B7DA9B" d="M91.222,264.365v-12.017H83.5v4.691l-4.427-4.204L47.748,282.57h5.086v37.037h33.94v-17.961h10.337v17.961
	h8.195V282.57h5.091L91.222,264.365z M75.529,313.081H61.322v-11.435h14.208V313.081z M75.529,294.211H61.322v-11.433h14.208
	V294.211z"/>
<path fill="#72BF44" d="M80.286,72.322c-39.295,0-71.145,31.851-71.145,71.148c0,39.288,31.849,71.142,71.145,71.142
	c39.29,0,71.144-31.854,71.144-71.142C151.43,104.172,119.576,72.322,80.286,72.322z"/>
<path fill="#B7DA9B" d="M98.009,103.584V84.852H85.976v7.313l-6.903-6.557l-48.825,46.347h7.931v57.73h52.897v-27.99h16.115v27.99
	h12.771v-57.73h7.934L98.009,103.584z M73.55,179.515H51.407v-17.82H73.55V179.515z M73.55,150.102H51.407v-17.818H73.55V150.102z"
	/>
<g>
	<line fill="none" stroke="#000000" stroke-width="0.65" x1="460" y1="380.491" x2="0" y2="380.491"/>
	<line fill="none" stroke="#000000" stroke-width="0.65" x1="460" y1="48.66" x2="0" y2="48.66"/>
	<line fill="none" stroke="#000000" stroke-width="0.65" x1="460" y1="0.325" x2="0" y2="0.325"/>
</g>
<g>
	<g>
		<path d="M0.707,376.158v-0.89c0.559,0.239,1.208,0.388,1.915,0.388c0.98,0,1.414-0.399,1.414-1.22
			c0-0.764-0.365-1.083-1.163-1.425l-0.661-0.285c-0.935-0.422-1.482-1.083-1.482-2.177c0-1.186,0.718-2.132,2.336-2.132
			c0.741,0,1.345,0.205,1.71,0.434v0.9c-0.422-0.229-0.98-0.41-1.687-0.41c-0.855,0-1.333,0.376-1.333,1.128
			c0,0.673,0.308,1.015,1.026,1.334l0.672,0.285c0.935,0.41,1.676,0.911,1.676,2.223c0,1.391-0.752,2.279-2.462,2.279
			C1.869,376.59,1.197,376.397,0.707,376.158z"/>
		<path d="M6.25,372.658v-0.296c0-2.622,1.231-3.944,3.078-3.944c1.824,0,3.055,1.254,3.055,3.933v0.297
			c0,2.621-1.254,3.943-3.089,3.943C7.458,376.59,6.25,375.348,6.25,372.658z M11.23,372.726v-0.308
			c0-2.062-0.524-3.111-1.949-3.111c-1.288-0.023-1.903,1.037-1.903,2.975v0.308c0,2.075,0.524,3.123,1.938,3.123
			C10.626,375.712,11.23,374.675,11.23,372.726z"/>
		<path d="M13.868,373.946v-5.38h1.06v5.312c0,1.481,0.672,1.881,1.619,1.881c0.877,0,1.539-0.444,1.539-1.893v-5.3h0.98v5.312
			c0,1.756-0.867,2.725-2.565,2.725C14.711,376.602,13.868,375.622,13.868,373.946z"/>
		<path d="M20.961,368.566h2.211c1.618,0,2.462,0.832,2.462,2.257c0,1.095-0.536,1.676-1.425,1.972v0.114
			c0,0,0.331,0.434,0.604,1.026l1.197,2.519h-1.117l-1.539-3.294h-1.391c0,0,0.068,0.593,0.068,0.98v2.313h-1.071V368.566z
			 M23.173,372.35c0.923,0,1.379-0.524,1.379-1.493c0-0.946-0.388-1.425-1.379-1.425h-1.22c0,0,0.068,0.559,0.068,0.9v1.105
			c0,0.354-0.068,0.912-0.068,0.912H23.173z"/>
		<path d="M27.063,372.635v-0.285c0-2.93,1.539-3.933,3.283-3.933c0.638,0,1.231,0.137,1.642,0.342v0.946
			c-0.536-0.205-1.06-0.354-1.676-0.354c-1.151,0-2.12,0.661-2.12,2.907v0.308c0,2.143,0.661,3.089,2.211,3.089
			c0.729,0,1.276-0.228,1.675-0.513v0.946c-0.467,0.308-1.083,0.501-1.903,0.501C28.271,376.59,27.063,375.256,27.063,372.635z"/>
		<path d="M33.563,368.566h4.217v0.878h-3.226c0,0,0.068,0.547,0.068,0.878v0.718c0,0.354-0.068,0.889-0.068,0.889h2.496v0.866
			h-2.496c0,0,0.068,0.548,0.068,0.89v1.003c0,0.354-0.068,0.889-0.068,0.889h3.249v0.878h-4.24V368.566z"/>
		<path d="M39.653,371.53h1.174v1.208h-1.174V371.53z M39.653,375.246h1.174v1.208h-1.174V375.246z"/>
		<path d="M45.356,368.566h1.607l1.254,4.742c0.228,0.9,0.433,2.325,0.433,2.325h0.114c0,0,0.216-1.425,0.433-2.325l1.254-4.742
			h1.596v7.888h-1.015v-4.855c0-0.855,0.08-2.178,0.08-2.178h-0.114c0,0-0.308,1.642-0.581,2.645l-1.174,4.389h-1.197l-1.174-4.377
			c-0.251-1.015-0.547-2.656-0.547-2.656h-0.125c0,0,0.08,1.322,0.08,2.178v4.855h-0.923V368.566z"/>
		<path d="M55.688,368.566h1.197l2.416,7.888h-1.14l-0.331-1.095c-0.091-0.318-0.182-0.729-0.239-1.048h-2.736
			c-0.068,0.308-0.159,0.706-0.25,1.037l-0.331,1.105h-1.026L55.688,368.566z M55.095,373.49h2.268
			c-0.114-0.262-0.239-0.615-0.308-0.9l-0.365-1.299c-0.217-0.764-0.399-1.836-0.399-1.836h-0.114c0,0-0.16,1.072-0.387,1.836
			l-0.376,1.311C55.334,372.886,55.198,373.228,55.095,373.49z"/>
		<path d="M59.989,372.635v-0.285c0-2.93,1.539-3.933,3.283-3.933c0.638,0,1.231,0.137,1.642,0.342v0.946
			c-0.536-0.205-1.06-0.354-1.676-0.354c-1.151,0-2.12,0.661-2.12,2.907v0.308c0,2.143,0.661,3.089,2.211,3.089
			c0.729,0,1.276-0.228,1.675-0.513v0.946c-0.467,0.308-1.083,0.501-1.903,0.501C61.197,376.59,59.989,375.256,59.989,372.635z"/>
		<path d="M66.489,368.566h1.607l1.254,4.742c0.228,0.9,0.433,2.325,0.433,2.325h0.114c0,0,0.216-1.425,0.433-2.325l1.254-4.742
			h1.596v7.888h-1.015v-4.855c0-0.855,0.08-2.178,0.08-2.178h-0.114c0,0-0.308,1.642-0.582,2.645l-1.174,4.389h-1.197l-1.174-4.377
			c-0.251-1.015-0.547-2.656-0.547-2.656h-0.125c0,0,0.08,1.322,0.08,2.178v4.855h-0.923V368.566z"/>
		<path d="M75.248,368.566h1.06v7.888h-1.06V368.566z"/>
		<path d="M78.362,368.566h1.071v5.938c0,0.479-0.068,1.071-0.068,1.071h3.055v0.878h-4.058V368.566z"/>
		<path d="M83.859,368.566h1.071v5.938c0,0.479-0.068,1.071-0.068,1.071h3.055v0.878h-4.058V368.566z"/>
		<path d="M91.065,368.566h1.197l2.416,7.888h-1.14l-0.331-1.095c-0.091-0.318-0.182-0.729-0.239-1.048h-2.736
			c-0.068,0.308-0.159,0.706-0.25,1.037l-0.331,1.105h-1.026L91.065,368.566z M90.473,373.49h2.268
			c-0.114-0.262-0.239-0.615-0.308-0.9l-0.365-1.299c-0.217-0.764-0.399-1.836-0.399-1.836h-0.114c0,0-0.16,1.072-0.387,1.836
			l-0.376,1.311C90.712,372.886,90.576,373.228,90.473,373.49z"/>
		<path d="M95.868,368.566h1.231l1.995,3.83c0.388,0.798,0.992,2.371,0.992,2.371h0.114c0,0-0.091-1.391-0.091-2.063v-4.138h0.946
			v7.888H99.96l-2.12-4.172c-0.376-0.786-0.992-2.313-0.992-2.313h-0.125c0,0,0.091,1.322,0.091,1.983v4.502h-0.946V368.566z"/>
		<path d="M105.061,372.635v-0.285c0-2.93,1.539-3.933,3.283-3.933c0.638,0,1.231,0.137,1.642,0.342v0.946
			c-0.536-0.205-1.06-0.354-1.676-0.354c-1.151,0-2.12,0.661-2.12,2.907v0.308c0,2.143,0.661,3.089,2.211,3.089
			c0.729,0,1.276-0.228,1.675-0.513v0.946c-0.467,0.308-1.083,0.501-1.903,0.501C106.269,376.59,105.061,375.256,105.061,372.635z"
			/>
		<path d="M113.271,368.566h1.197l2.416,7.888h-1.14l-0.331-1.095c-0.091-0.318-0.182-0.729-0.239-1.048h-2.736
			c-0.068,0.308-0.159,0.706-0.25,1.037l-0.331,1.105h-1.026L113.271,368.566z M112.678,373.49h2.268
			c-0.114-0.262-0.239-0.615-0.308-0.9l-0.365-1.299c-0.217-0.764-0.399-1.836-0.399-1.836h-0.114c0,0-0.16,1.072-0.387,1.836
			l-0.376,1.311C112.917,372.886,112.781,373.228,112.678,373.49z"/>
		<path d="M118.073,368.566h1.231l1.995,3.83c0.388,0.798,0.992,2.371,0.992,2.371h0.114c0,0-0.091-1.391-0.091-2.063v-4.138h0.946
			v7.888h-1.094l-2.12-4.172c-0.376-0.786-0.992-2.313-0.992-2.313h-0.125c0,0,0.091,1.322,0.091,1.983v4.502h-0.946V368.566z"/>
		<path d="M124.802,372.635v-0.285c0-2.93,1.539-3.933,3.283-3.933c0.638,0,1.231,0.137,1.642,0.342v0.946
			c-0.536-0.205-1.06-0.354-1.676-0.354c-1.151,0-2.12,0.661-2.12,2.907v0.308c0,2.143,0.661,3.089,2.211,3.089
			c0.729,0,1.276-0.228,1.675-0.513v0.946c-0.467,0.308-1.083,0.501-1.903,0.501C126.011,376.59,124.802,375.256,124.802,372.635z"
			/>
		<path d="M131.303,368.566h4.217v0.878h-3.226c0,0,0.068,0.547,0.068,0.878v0.718c0,0.354-0.068,0.889-0.068,0.889h2.496v0.866
			h-2.496c0,0,0.068,0.548,0.068,0.89v1.003c0,0.354-0.068,0.889-0.068,0.889h3.249v0.878h-4.24V368.566z"/>
		<path d="M137.245,368.566h2.211c1.618,0,2.462,0.832,2.462,2.257c0,1.095-0.536,1.676-1.425,1.972v0.114
			c0,0,0.331,0.434,0.604,1.026l1.197,2.519h-1.117l-1.539-3.294h-1.391c0,0,0.068,0.593,0.068,0.98v2.313h-1.071V368.566z
			 M139.456,372.35c0.923,0,1.379-0.524,1.379-1.493c0-0.946-0.388-1.425-1.379-1.425h-1.22c0,0,0.068,0.559,0.068,0.9v1.105
			c0,0.354-0.068,0.912-0.068,0.912H139.456z"/>
		<path d="M145.946,376.158v-0.89c0.559,0.239,1.208,0.388,1.915,0.388c0.98,0,1.414-0.399,1.414-1.22
			c0-0.764-0.365-1.083-1.163-1.425l-0.661-0.285c-0.935-0.422-1.482-1.083-1.482-2.177c0-1.186,0.718-2.132,2.336-2.132
			c0.741,0,1.345,0.205,1.71,0.434v0.9c-0.422-0.229-0.98-0.41-1.687-0.41c-0.855,0-1.333,0.376-1.333,1.128
			c0,0.673,0.308,1.015,1.026,1.334l0.672,0.285c0.935,0.41,1.676,0.911,1.676,2.223c0,1.391-0.752,2.279-2.462,2.279
			C147.109,376.59,146.437,376.397,145.946,376.158z"/>
		<path d="M151.854,373.946v-5.38h1.06v5.312c0,1.481,0.672,1.881,1.619,1.881c0.877,0,1.539-0.444,1.539-1.893v-5.3h0.98v5.312
			c0,1.756-0.867,2.725-2.565,2.725C152.697,376.602,151.854,375.622,151.854,373.946z"/>
		<path d="M158.948,368.566h2.2c1.744,0,2.405,1.026,2.405,2.371c0,1.607-0.958,2.439-2.325,2.439h-1.277
			c0,0,0.068,0.604,0.068,0.979v2.098h-1.071V368.566z M161.045,372.533c0.923,0,1.425-0.456,1.425-1.516
			c0-1.175-0.49-1.585-1.414-1.585h-1.117c0,0,0.068,0.581,0.068,0.935v1.242c0,0.354-0.068,0.924-0.068,0.924H161.045z"/>
		<path d="M164.947,368.566h2.2c1.744,0,2.405,1.026,2.405,2.371c0,1.607-0.958,2.439-2.325,2.439h-1.277
			c0,0,0.068,0.604,0.068,0.979v2.098h-1.071V368.566z M167.044,372.533c0.923,0,1.425-0.456,1.425-1.516
			c0-1.175-0.49-1.585-1.414-1.585h-1.117c0,0,0.068,0.581,0.068,0.935v1.242c0,0.354-0.068,0.924-0.068,0.924H167.044z"/>
		<path d="M170.547,372.658v-0.296c0-2.622,1.231-3.944,3.078-3.944c1.824,0,3.055,1.254,3.055,3.933v0.297
			c0,2.621-1.254,3.943-3.089,3.943C171.755,376.59,170.547,375.348,170.547,372.658z M175.528,372.726v-0.308
			c0-2.062-0.524-3.111-1.949-3.111c-1.288-0.023-1.903,1.037-1.903,2.975v0.308c0,2.075,0.524,3.123,1.938,3.123
			C174.924,375.712,175.528,374.675,175.528,372.726z"/>
		<path d="M178.199,368.566h2.211c1.618,0,2.462,0.832,2.462,2.257c0,1.095-0.536,1.676-1.425,1.972v0.114
			c0,0,0.331,0.434,0.604,1.026l1.197,2.519h-1.117l-1.539-3.294h-1.391c0,0,0.068,0.593,0.068,0.98v2.313h-1.071V368.566z
			 M180.411,372.35c0.923,0,1.379-0.524,1.379-1.493c0-0.946-0.388-1.425-1.379-1.425h-1.22c0,0,0.068,0.559,0.068,0.9v1.105
			c0,0.354-0.068,0.912-0.068,0.912H180.411z"/>
		<path d="M186.079,370.538c0-0.422,0.068-1.094,0.068-1.094h-2.108v-0.878h5.152v0.878h-2.108c0,0,0.068,0.672,0.068,1.094v5.916
			h-1.072V370.538z"/>
	</g>
	<g>
		<path d="M1.061,57.202l-0.883-0.265v-0.795h4.064v0.795l-1.045,0.265l0.736,3.225c0.383,1.693,0.913,4.461,0.913,4.461h0.074
			c0,0,0.574-2.886,0.957-4.373l1.134-4.374h1.458l1.134,4.285c0.383,1.472,0.928,4.461,0.928,4.461h0.073
			c0,0,0.648-2.989,1.001-4.55l0.722-3.136l-1.075-0.265v-0.795h3.401v0.795l-0.986,0.265l-2.43,9.556H9.336l-1.148-4.403
			c-0.324-1.222-0.707-3.622-0.707-3.622H7.408c0,0-0.457,2.4-0.781,3.622l-1.192,4.403H3.505L1.061,57.202z"/>
		<path d="M15.027,66.066l1.045-0.25v-9.468l-1.061-0.25v-0.751l2.709-0.354l0.191,0.103v4.477h0.088
			c0.751-0.486,1.605-0.942,2.606-0.942c1.354,0,2.15,0.545,2.15,2.062v5.124l1.016,0.25v0.692H19.9v-0.692l0.942-0.221v-4.624
			c0-0.928-0.457-1.208-1.369-1.208c-0.545,0-1.031,0.147-1.502,0.295v5.536l0.928,0.221v0.692h-3.873V66.066z"/>
		<path d="M24.308,62.709c0-2.562,1.605-4.079,3.754-4.079c2.356,0,3.372,1.414,3.372,4.226h-5.139c0.059,2.076,0.972,2.9,2.459,2.9
			c1.089,0,1.723-0.221,2.297-0.397v0.839c-0.53,0.324-1.384,0.736-2.753,0.736C25.559,66.935,24.308,65.271,24.308,62.709z
			 M29.432,61.973c0-1.767-0.516-2.356-1.443-2.356c-0.987,0-1.605,0.692-1.708,2.356H29.432z"/>
		<path d="M32.026,66.066l1.045-0.25v-5.802l-1.06-0.25v-0.751l2.68-0.368l0.191,0.103v1.148h0.088
			c0.441-0.604,1.148-1.251,2.017-1.251c0.147,0,0.339,0.015,0.412,0.044v1.708c-0.177-0.044-0.457-0.059-0.633-0.059
			c-0.736,0-1.311,0.074-1.796,0.354v5.124l1.207,0.25v0.692h-4.152V66.066z"/>
		<path d="M37.875,62.709c0-2.562,1.605-4.079,3.754-4.079c2.356,0,3.372,1.414,3.372,4.226h-5.139c0.059,2.076,0.972,2.9,2.459,2.9
			c1.089,0,1.723-0.221,2.297-0.397v0.839c-0.53,0.324-1.384,0.736-2.753,0.736C39.126,66.935,37.875,65.271,37.875,62.709z
			 M42.999,61.973c0-1.767-0.516-2.356-1.443-2.356c-0.987,0-1.605,0.692-1.708,2.356H42.999z"/>
		<path d="M48.835,69.276l1.045-0.221v-9.041l-1.075-0.25v-0.751l2.68-0.368l0.191,0.103v0.825h0.088
			c0.56-0.457,1.325-0.957,2.4-0.957c1.472,0,2.974,0.81,2.974,3.858c0,3.062-1.664,4.358-4.035,4.358
			c-0.604,0-0.957-0.074-1.325-0.177v2.385l1.208,0.236v0.677h-4.152V69.276z M55.152,62.768c0-2.032-0.677-2.798-1.914-2.798
			c-0.619,0-1.149,0.191-1.458,0.324v5.198c0.28,0.162,0.589,0.368,1.355,0.368C54.342,65.86,55.152,65.124,55.152,62.768z"/>
		<path d="M57.939,62.709c0-2.562,1.605-4.079,3.754-4.079c2.356,0,3.372,1.414,3.372,4.226h-5.139c0.059,2.076,0.972,2.9,2.459,2.9
			c1.089,0,1.723-0.221,2.297-0.397v0.839c-0.53,0.324-1.384,0.736-2.753,0.736C59.19,66.935,57.939,65.271,57.939,62.709z
			 M63.063,61.973c0-1.767-0.516-2.356-1.443-2.356c-0.987,0-1.605,0.692-1.708,2.356H63.063z"/>
		<path d="M65.82,62.827c0-2.591,1.723-4.196,3.873-4.196c2.415,0,3.917,1.561,3.917,4.123c0,2.577-1.738,4.211-3.873,4.211
			C67.322,66.964,65.82,65.33,65.82,62.827z M71.592,62.856c0-2.474-0.913-3.225-1.914-3.225s-1.855,0.678-1.855,3.078
			c0,2.474,0.913,3.225,1.929,3.225C70.723,65.934,71.592,65.242,71.592,62.856z"/>
		<path d="M74.217,69.276l1.045-0.221v-9.041l-1.075-0.25v-0.751l2.68-0.368l0.191,0.103v0.825h0.088
			c0.56-0.457,1.325-0.957,2.4-0.957c1.472,0,2.974,0.81,2.974,3.858c0,3.062-1.664,4.358-4.035,4.358
			c-0.604,0-0.957-0.074-1.325-0.177v2.385l1.208,0.236v0.677h-4.152V69.276z M80.534,62.768c0-2.032-0.677-2.798-1.914-2.798
			c-0.619,0-1.149,0.191-1.458,0.324v5.198c0.28,0.162,0.589,0.368,1.355,0.368C79.724,65.86,80.534,65.124,80.534,62.768z"/>
		<path d="M83.159,66.066l1.045-0.25v-9.438l-1.134-0.265v-0.751l2.842-0.354l0.191,0.103v10.705l1.031,0.25v0.692h-3.976V66.066z"
			/>
		<path d="M87.696,62.709c0-2.562,1.605-4.079,3.754-4.079c2.356,0,3.372,1.414,3.372,4.226h-5.139c0.059,2.076,0.972,2.9,2.459,2.9
			c1.089,0,1.723-0.221,2.297-0.397v0.839c-0.53,0.324-1.384,0.736-2.753,0.736C88.947,66.935,87.696,65.271,87.696,62.709z
			 M92.82,61.973c0-1.767-0.516-2.356-1.443-2.356c-0.987,0-1.605,0.692-1.708,2.356H92.82z"/>
		<path d="M98.641,66.066l1.045-0.25v-9.438l-1.134-0.265v-0.751l2.842-0.354l0.191,0.103v10.705l1.031,0.25v0.692h-3.976V66.066z"
			/>
		<path d="M103.045,66.066l1.031-0.25v-5.802l-1.134-0.25v-0.751l2.842-0.368l0.191,0.103v7.068l1.016,0.25v0.692h-3.946V66.066z
			 M103.855,56.407c0-0.604,0.471-1.06,1.089-1.06c0.619,0,1.09,0.457,1.09,1.06c0,0.604-0.471,1.06-1.09,1.06
			C104.327,57.467,103.855,57.011,103.855,56.407z"/>
		<path d="M107.833,59.72l-0.736-0.221v-0.722h3.681v0.722l-0.898,0.177l0.839,2.503c0.412,1.208,0.986,3.313,0.986,3.313h0.059
			c0,0,0.545-2.091,0.957-3.313l0.839-2.503l-0.913-0.177v-0.722h2.827v0.722l-0.736,0.221l-2.547,7.039h-1.723L107.833,59.72z"/>
		<path d="M115.965,66.066l1.031-0.25v-5.802l-1.134-0.25v-0.751l2.842-0.368l0.191,0.103v7.068l1.016,0.25v0.692h-3.946V66.066z
			 M116.775,56.407c0-0.604,0.471-1.06,1.089-1.06c0.619,0,1.09,0.457,1.09,1.06c0,0.604-0.471,1.06-1.09,1.06
			C117.246,57.467,116.775,57.011,116.775,56.407z"/>
		<path d="M120.384,66.066l1.045-0.25v-5.802l-1.061-0.25v-0.751l2.68-0.368l0.191,0.103v0.825h0.088
			c0.766-0.486,1.634-0.942,2.636-0.942c1.354,0,2.15,0.618,2.15,2.062v5.124l1.016,0.25v0.692h-3.873v-0.692l0.942-0.221v-4.55
			c0-0.957-0.457-1.266-1.369-1.266c-0.545,0-1.031,0.132-1.502,0.28v5.536l0.928,0.221v0.692h-3.873V66.066z"/>
		<path d="M129.149,68.172c0-0.839,0.766-1.384,1.782-1.752v-0.073c-0.604-0.207-0.957-0.589-0.957-1.134
			c0-0.589,0.338-1.149,1.06-1.812c-0.839-0.353-1.369-1.089-1.369-2.076c0-1.752,1.398-2.694,3.225-2.694
			c0.589,0,1.119,0.088,1.576,0.25l2.518-0.324v1.178l-1.796-0.132v0.059c0.619,0.324,0.884,0.883,0.884,1.59
			c0,1.649-1.384,2.591-3.195,2.591c-0.427,0-0.839-0.044-1.193-0.132c-0.162,0.25-0.265,0.633-0.265,0.839
			c0,0.265,0.162,0.471,0.56,0.471h2.592c1.295,0,2.4,0.471,2.4,2.017c0,1.634-1.473,3.004-4.388,3.004
			C130.165,70.042,129.149,69.129,129.149,68.172z M135.245,67.568c0-0.678-0.397-0.898-1.193-0.898h-2.327
			c-0.427,0.206-0.824,0.648-0.824,1.222c0,0.648,0.56,1.163,1.826,1.163C134.45,69.055,135.245,68.363,135.245,67.568z
			 M134.229,61.251c0-1.208-0.589-1.723-1.354-1.723c-0.81,0-1.355,0.589-1.355,1.693c0,1.178,0.574,1.738,1.355,1.738
			C133.669,62.959,134.229,62.37,134.229,61.251z"/>
		<path d="M141.199,59.72l-0.692-0.221v-0.722h3.549v0.722l-0.913,0.221l0.722,2.503c0.294,1.016,0.589,2.945,0.589,2.945h0.059
			c0,0,0.339-1.929,0.648-2.945l1.031-3.446h1.428l1.031,3.446c0.31,1.016,0.648,2.945,0.648,2.945h0.059
			c0,0,0.383-1.929,0.663-2.945l0.707-2.503l-0.883-0.221v-0.722h2.768v0.722l-0.677,0.221l-2.12,7.039h-1.517l-1.016-3.519
			c-0.294-1.031-0.589-2.65-0.589-2.65h-0.044c0,0-0.294,1.605-0.619,2.65l-1.104,3.519h-1.576L141.199,59.72z"/>
		<path d="M153.161,66.066l1.031-0.25v-5.802l-1.134-0.25v-0.751l2.842-0.368l0.191,0.103v7.068l1.016,0.25v0.692h-3.946V66.066z
			 M153.971,56.407c0-0.604,0.471-1.06,1.089-1.06c0.619,0,1.09,0.457,1.09,1.06c0,0.604-0.471,1.06-1.09,1.06
			C154.442,57.467,153.971,57.011,153.971,56.407z"/>
		<path d="M158.479,64.874v-5.051h-1.119v-0.736l1.119-0.383v-1.797h1.899v1.87h2.047v1.045h-2.047v4.697
			c0,0.898,0.265,1.208,1.208,1.208c0.368,0,0.677-0.044,0.942-0.103v0.78c-0.457,0.28-1.119,0.501-1.855,0.501
			C159.244,66.906,158.479,66.405,158.479,64.874z"/>
		<path d="M163.09,66.066l1.045-0.25v-9.468l-1.061-0.25v-0.751l2.709-0.354l0.191,0.103v4.477h0.088
			c0.751-0.486,1.605-0.942,2.606-0.942c1.354,0,2.15,0.545,2.15,2.062v5.124l1.016,0.25v0.692h-3.873v-0.692l0.942-0.221v-4.624
			c0-0.928-0.457-1.208-1.369-1.208c-0.545,0-1.031,0.147-1.502,0.295v5.536l0.928,0.221v0.692h-3.873V66.066z"/>
		<path d="M175.641,62.841c0-2.989,1.826-4.211,4.226-4.211c0.839,0,1.664,0.132,2.194,0.309v2.194h-1.149l-0.221-1.384
			c-0.206-0.059-0.442-0.118-0.972-0.118c-1.281,0-2.076,0.913-2.076,3.004c0,2.356,1.06,3.107,2.518,3.107
			c0.957,0,1.634-0.206,2.017-0.383v0.869c-0.486,0.354-1.325,0.707-2.592,0.707C176.995,66.935,175.641,65.345,175.641,62.841z"/>
		<path d="M184.685,59.676l-0.235,1.281H183.3v-1.899c0.648-0.25,1.885-0.427,3.004-0.427c1.811,0,2.65,0.78,2.65,2.444v4.329
			c0,0.456,0.25,0.56,0.648,0.56h0.368v0.677c-0.221,0.118-0.825,0.28-1.414,0.28c-0.692,0-1.148-0.294-1.296-0.942h-0.103
			c-0.397,0.471-1.104,0.986-2.105,0.986c-1.414,0-2.371-0.869-2.371-2.179c0-1.458,1.016-1.899,2.591-2.208l1.767-0.354v-0.722
			c0-1.075-0.235-1.87-1.664-1.87C185.156,59.631,184.92,59.646,184.685,59.676z M187.041,65.359v-2.238l-1.237,0.088
			c-0.898,0.059-1.208,0.486-1.208,1.325c0,0.913,0.368,1.37,1.208,1.37C186.319,65.904,186.746,65.654,187.041,65.359z"/>
		<path d="M190.284,66.066l1.045-0.25v-5.802l-1.061-0.25v-0.751l2.68-0.368l0.191,0.103v0.825h0.088
			c0.766-0.486,1.634-0.942,2.636-0.942c1.354,0,2.15,0.618,2.15,2.062v5.124l1.016,0.25v0.692h-3.873v-0.692l0.942-0.221v-4.55
			c0-0.957-0.457-1.266-1.369-1.266c-0.545,0-1.031,0.132-1.502,0.28v5.536l0.928,0.221v0.692h-3.873V66.066z"/>
		<path d="M199.594,62.841c0-2.989,1.826-4.211,4.226-4.211c0.839,0,1.664,0.132,2.194,0.309v2.194h-1.149l-0.221-1.384
			c-0.206-0.059-0.442-0.118-0.972-0.118c-1.281,0-2.076,0.913-2.076,3.004c0,2.356,1.06,3.107,2.518,3.107
			c0.957,0,1.634-0.206,2.017-0.383v0.869c-0.486,0.354-1.325,0.707-2.592,0.707C200.948,66.935,199.594,65.345,199.594,62.841z"/>
		<path d="M206.797,62.709c0-2.562,1.605-4.079,3.754-4.079c2.356,0,3.372,1.414,3.372,4.226h-5.139
			c0.059,2.076,0.972,2.9,2.459,2.9c1.089,0,1.723-0.221,2.297-0.397v0.839c-0.53,0.324-1.384,0.736-2.753,0.736
			C208.049,66.935,206.797,65.271,206.797,62.709z M211.921,61.973c0-1.767-0.516-2.356-1.443-2.356
			c-0.987,0-1.605,0.692-1.708,2.356H211.921z"/>
		<path d="M214.516,66.066l1.045-0.25v-5.802l-1.06-0.25v-0.751l2.68-0.368l0.191,0.103v1.148h0.088
			c0.441-0.604,1.148-1.251,2.017-1.251c0.147,0,0.339,0.015,0.412,0.044v1.708c-0.177-0.044-0.457-0.059-0.633-0.059
			c-0.736,0-1.311,0.074-1.796,0.354v5.124l1.207,0.25v0.692h-4.152V66.066z"/>
		<path d="M224.15,59.72l-0.692-0.221v-0.722h3.549v0.722l-0.913,0.221l0.722,2.503c0.294,1.016,0.589,2.945,0.589,2.945h0.059
			c0,0,0.339-1.929,0.648-2.945l1.031-3.446h1.428l1.031,3.446c0.31,1.016,0.648,2.945,0.648,2.945h0.059
			c0,0,0.383-1.929,0.663-2.945l0.707-2.503l-0.883-0.221v-0.722h2.768v0.722l-0.677,0.221l-2.12,7.039h-1.517l-1.016-3.519
			c-0.294-1.031-0.589-2.65-0.589-2.65h-0.044c0,0-0.294,1.605-0.619,2.65l-1.104,3.519H226.3L224.15,59.72z"/>
		<path d="M237.864,59.676l-0.235,1.281h-1.149v-1.899c0.648-0.25,1.885-0.427,3.004-0.427c1.811,0,2.65,0.78,2.65,2.444v4.329
			c0,0.456,0.25,0.56,0.648,0.56h0.368v0.677c-0.221,0.118-0.825,0.28-1.414,0.28c-0.692,0-1.148-0.294-1.296-0.942h-0.103
			c-0.397,0.471-1.104,0.986-2.105,0.986c-1.414,0-2.371-0.869-2.371-2.179c0-1.458,1.016-1.899,2.591-2.208l1.767-0.354v-0.722
			c0-1.075-0.235-1.87-1.664-1.87C238.335,59.631,238.1,59.646,237.864,59.676z M240.22,65.359v-2.238l-1.237,0.088
			c-0.898,0.059-1.208,0.486-1.208,1.325c0,0.913,0.368,1.37,1.208,1.37C239.499,65.904,239.926,65.654,240.22,65.359z"/>
		<path d="M243.463,66.066l1.045-0.25v-5.802l-1.061-0.25v-0.751l2.68-0.368l0.191,0.103v0.825h0.088
			c0.766-0.486,1.634-0.942,2.636-0.942c1.354,0,2.149,0.618,2.149,2.062v5.124l1.017,0.25v0.692h-3.873v-0.692l0.942-0.221v-4.55
			c0-0.957-0.457-1.266-1.369-1.266c-0.545,0-1.031,0.132-1.502,0.28v5.536l0.928,0.221v0.692h-3.873V66.066z"/>
		<path d="M253.509,64.874v-5.051h-1.119v-0.736l1.119-0.383v-1.797h1.899v1.87h2.047v1.045h-2.047v4.697
			c0,0.898,0.266,1.208,1.208,1.208c0.368,0,0.677-0.044,0.942-0.103v0.78c-0.457,0.28-1.119,0.501-1.855,0.501
			C254.274,66.906,253.509,66.405,253.509,64.874z"/>
		<path d="M262.436,64.874v-5.051h-1.119v-0.736l1.119-0.383v-1.797h1.899v1.87h2.047v1.045h-2.047v4.697
			c0,0.898,0.266,1.208,1.208,1.208c0.368,0,0.677-0.044,0.942-0.103v0.78c-0.457,0.28-1.119,0.501-1.855,0.501
			C263.201,66.906,262.436,66.405,262.436,64.874z"/>
		<path d="M267.106,62.827c0-2.591,1.724-4.196,3.873-4.196c2.415,0,3.917,1.561,3.917,4.123c0,2.577-1.737,4.211-3.873,4.211
			C268.608,66.964,267.106,65.33,267.106,62.827z M272.879,62.856c0-2.474-0.913-3.225-1.914-3.225s-1.855,0.678-1.855,3.078
			c0,2.474,0.913,3.225,1.929,3.225C272.011,65.934,272.879,65.242,272.879,62.856z"/>
		<path d="M279.024,62.959c0-3.048,1.634-4.329,3.961-4.329c0.618,0,1.001,0.088,1.398,0.206v-2.444l-1.148-0.25v-0.751l2.842-0.353
			l0.206,0.073V65.61l1.046,0.235v0.707l-2.592,0.354l-0.191-0.088v-0.869h-0.088c-0.428,0.53-1.179,0.987-2.209,0.987
			C280.776,66.935,279.024,66.037,279.024,62.959z M284.384,65.242v-5.198c-0.294-0.206-0.604-0.413-1.354-0.413
			c-1.207,0-2.032,0.663-2.032,3.122c0,2.135,0.707,2.93,1.93,2.93C283.53,65.684,283.986,65.492,284.384,65.242z"/>
		<path d="M287.878,66.066l1.03-0.25v-5.802l-1.134-0.25v-0.751l2.842-0.368l0.191,0.103v7.068l1.016,0.25v0.692h-3.945V66.066z
			 M288.688,56.407c0-0.604,0.471-1.06,1.09-1.06c0.618,0,1.089,0.457,1.089,1.06c0,0.604-0.471,1.06-1.089,1.06
			C289.158,57.467,288.688,57.011,288.688,56.407z"/>
		<path d="M292.385,62.709c0-2.562,1.605-4.079,3.755-4.079c2.356,0,3.372,1.414,3.372,4.226h-5.139
			c0.059,2.076,0.972,2.9,2.459,2.9c1.09,0,1.723-0.221,2.297-0.397v0.839c-0.53,0.324-1.384,0.736-2.754,0.736
			C293.637,66.935,292.385,65.271,292.385,62.709z M297.509,61.973c0-1.767-0.515-2.356-1.442-2.356
			c-0.986,0-1.605,0.692-1.708,2.356H297.509z"/>
		<path d="M302.21,66.508c-0.118,0.059-0.251,0.103-0.427,0.103c-0.56,0-0.958-0.427-0.958-1.03c0-0.604,0.486-1.031,1.149-1.031
			c0.766,0,1.428,0.559,1.428,1.62c0,1.06-0.545,2.341-2.798,3.077l-0.265-0.589C301.518,67.966,302.136,67.392,302.21,66.508z"/>
		<path d="M308.384,59.72l-0.692-0.221v-0.722h3.549v0.722l-0.913,0.221l0.722,2.503c0.294,1.016,0.589,2.945,0.589,2.945h0.059
			c0,0,0.339-1.929,0.648-2.945l1.03-3.446h1.429l1.03,3.446c0.31,1.016,0.648,2.945,0.648,2.945h0.059c0,0,0.383-1.929,0.662-2.945
			l0.707-2.503l-0.884-0.221v-0.722h2.769v0.722l-0.677,0.221l-2.121,7.039h-1.517l-1.016-3.519c-0.295-1.031-0.589-2.65-0.589-2.65
			h-0.044c0,0-0.295,1.605-0.619,2.65l-1.104,3.519h-1.575L308.384,59.72z"/>
		<path d="M320.346,66.066l1.03-0.25v-5.802l-1.134-0.25v-0.751l2.842-0.368l0.191,0.103v7.068l1.017,0.25v0.692h-3.946V66.066z
			 M321.155,56.407c0-0.604,0.471-1.06,1.09-1.06c0.618,0,1.089,0.457,1.089,1.06c0,0.604-0.471,1.06-1.089,1.06
			C321.626,57.467,321.155,57.011,321.155,56.407z"/>
		<path d="M325.662,64.874v-5.051h-1.119v-0.736l1.119-0.383v-1.797h1.899v1.87h2.047v1.045h-2.047v4.697
			c0,0.898,0.266,1.208,1.208,1.208c0.368,0,0.677-0.044,0.942-0.103v0.78c-0.457,0.28-1.119,0.501-1.855,0.501
			C326.428,66.906,325.662,66.405,325.662,64.874z"/>
		<path d="M330.274,66.066l1.045-0.25v-9.468l-1.06-0.25v-0.751l2.709-0.354l0.191,0.103v4.477h0.089
			c0.751-0.486,1.604-0.942,2.605-0.942c1.355,0,2.15,0.545,2.15,2.062v5.124l1.016,0.25v0.692h-3.872v-0.692l0.942-0.221v-4.624
			c0-0.928-0.457-1.208-1.37-1.208c-0.544,0-1.03,0.147-1.502,0.295v5.536l0.928,0.221v0.692h-3.872V66.066z"/>
		<path d="M343.781,64.874v-5.051h-1.119v-0.736l1.119-0.383v-1.797h1.899v1.87h2.047v1.045h-2.047v4.697
			c0,0.898,0.266,1.208,1.208,1.208c0.368,0,0.677-0.044,0.942-0.103v0.78c-0.457,0.28-1.119,0.501-1.855,0.501
			C344.547,66.906,343.781,66.405,343.781,64.874z"/>
		<path d="M348.394,66.066l1.045-0.25v-9.468l-1.06-0.25v-0.751l2.709-0.354l0.191,0.103v4.477h0.089
			c0.751-0.486,1.604-0.942,2.605-0.942c1.355,0,2.15,0.545,2.15,2.062v5.124l1.016,0.25v0.692h-3.872v-0.692l0.942-0.221v-4.624
			c0-0.928-0.457-1.208-1.37-1.208c-0.544,0-1.03,0.147-1.502,0.295v5.536l0.928,0.221v0.692h-3.872V66.066z"/>
		<path d="M357.674,62.709c0-2.562,1.605-4.079,3.755-4.079c2.356,0,3.372,1.414,3.372,4.226h-5.139
			c0.059,2.076,0.972,2.9,2.459,2.9c1.09,0,1.723-0.221,2.297-0.397v0.839c-0.53,0.324-1.384,0.736-2.754,0.736
			C358.926,66.935,357.674,65.271,357.674,62.709z M362.798,61.973c0-1.767-0.515-2.356-1.442-2.356
			c-0.986,0-1.605,0.692-1.708,2.356H362.798z"/>
		<path d="M368.664,66.066l1.045-0.25v-5.802l-1.06-0.25v-0.751l2.68-0.368l0.191,0.103v1.148h0.088
			c0.442-0.604,1.148-1.251,2.018-1.251c0.147,0,0.339,0.015,0.412,0.044v1.708c-0.177-0.044-0.456-0.059-0.633-0.059
			c-0.736,0-1.311,0.074-1.797,0.354v5.124l1.208,0.25v0.692h-4.152V66.066z"/>
		<path d="M374.453,66.066l1.03-0.25v-5.802l-1.134-0.25v-0.751l2.842-0.368l0.191,0.103v7.068l1.017,0.25v0.692h-3.946V66.066z
			 M375.263,56.407c0-0.604,0.471-1.06,1.09-1.06c0.618,0,1.089,0.457,1.089,1.06c0,0.604-0.471,1.06-1.089,1.06
			C375.733,57.467,375.263,57.011,375.263,56.407z"/>
		<path d="M378.637,68.172c0-0.839,0.766-1.384,1.781-1.752v-0.073c-0.604-0.207-0.957-0.589-0.957-1.134
			c0-0.589,0.339-1.149,1.061-1.812c-0.84-0.353-1.37-1.089-1.37-2.076c0-1.752,1.399-2.694,3.225-2.694
			c0.59,0,1.119,0.088,1.576,0.25l2.518-0.324v1.178l-1.796-0.132v0.059c0.618,0.324,0.883,0.883,0.883,1.59
			c0,1.649-1.384,2.591-3.195,2.591c-0.427,0-0.839-0.044-1.192-0.132c-0.162,0.25-0.265,0.633-0.265,0.839
			c0,0.265,0.161,0.471,0.56,0.471h2.591c1.296,0,2.4,0.471,2.4,2.017c0,1.634-1.473,3.004-4.388,3.004
			C379.652,70.042,378.637,69.129,378.637,68.172z M384.732,67.568c0-0.678-0.397-0.898-1.192-0.898h-2.327
			c-0.427,0.206-0.824,0.648-0.824,1.222c0,0.648,0.56,1.163,1.826,1.163C383.938,69.055,384.732,68.363,384.732,67.568z
			 M383.716,61.251c0-1.208-0.589-1.723-1.354-1.723c-0.81,0-1.354,0.589-1.354,1.693c0,1.178,0.574,1.738,1.354,1.738
			C383.157,62.959,383.716,62.37,383.716,61.251z"/>
		<path d="M386.886,66.066l1.045-0.25v-9.468l-1.06-0.25v-0.751l2.709-0.354l0.191,0.103v4.477h0.089
			c0.751-0.486,1.604-0.942,2.605-0.942c1.355,0,2.15,0.545,2.15,2.062v5.124l1.016,0.25v0.692h-3.872v-0.692l0.942-0.221v-4.624
			c0-0.928-0.457-1.208-1.37-1.208c-0.544,0-1.03,0.147-1.502,0.295v5.536l0.928,0.221v0.692h-3.872V66.066z"/>
		<path d="M396.902,64.874v-5.051h-1.119v-0.736l1.119-0.383v-1.797h1.899v1.87h2.047v1.045h-2.047v4.697
			c0,0.898,0.266,1.208,1.208,1.208c0.368,0,0.677-0.044,0.942-0.103v0.78c-0.457,0.28-1.119,0.501-1.855,0.501
			C397.668,66.906,396.902,66.405,396.902,64.874z"/>
		<path d="M404.99,66.493l-0.133-1.988h1.104l0.368,1.178c0.25,0.132,0.722,0.309,1.325,0.309c0.854,0,1.502-0.412,1.502-1.134
			c0-0.707-0.324-0.942-1.311-1.237l-0.854-0.25c-1.355-0.397-2.076-1.031-2.076-2.297c0-1.355,1.001-2.444,3.106-2.444
			c0.913,0,1.781,0.147,2.355,0.354v1.855h-1.06l-0.295-1.031c-0.235-0.118-0.574-0.221-1.119-0.221
			c-0.751,0-1.384,0.309-1.384,1.031c0,0.618,0.368,0.898,1.398,1.208l0.898,0.265c1.502,0.442,2.062,1.119,2.062,2.268
			c0,1.487-1.045,2.606-3.328,2.606C406.684,66.964,405.727,66.773,404.99,66.493z"/>
		<path d="M412.37,64.623v-4.697l-1.046-0.25v-0.736l2.769-0.28l0.177,0.103v5.419c0,0.957,0.279,1.399,1.296,1.399
			c0.78,0,1.207-0.207,1.59-0.368v-5.286l-0.986-0.25v-0.736l2.694-0.28l0.206,0.103v6.847l1.046,0.235v0.707l-2.681,0.354
			l-0.191-0.088V65.89h-0.088c-0.589,0.56-1.429,1.031-2.518,1.031C413.032,66.92,412.37,66.051,412.37,64.623z"/>
		<path d="M420.634,69.276l1.046-0.221v-9.041l-1.075-0.25v-0.751l2.681-0.368l0.191,0.103v0.825h0.088
			c0.56-0.457,1.325-0.957,2.4-0.957c1.473,0,2.975,0.81,2.975,3.858c0,3.062-1.664,4.358-4.035,4.358
			c-0.604,0-0.957-0.074-1.325-0.177v2.385l1.208,0.236v0.677h-4.153V69.276z M426.951,62.768c0-2.032-0.678-2.798-1.914-2.798
			c-0.618,0-1.148,0.191-1.458,0.324v5.198c0.28,0.162,0.589,0.368,1.354,0.368C426.142,65.86,426.951,65.124,426.951,62.768z"/>
		<path d="M429.591,69.276l1.046-0.221v-9.041l-1.075-0.25v-0.751l2.681-0.368l0.191,0.103v0.825h0.088
			c0.56-0.457,1.325-0.957,2.4-0.957c1.473,0,2.975,0.81,2.975,3.858c0,3.062-1.664,4.358-4.035,4.358
			c-0.604,0-0.957-0.074-1.325-0.177v2.385l1.208,0.236v0.677h-4.153V69.276z M435.908,62.768c0-2.032-0.678-2.798-1.914-2.798
			c-0.618,0-1.148,0.191-1.458,0.324v5.198c0.28,0.162,0.589,0.368,1.354,0.368C435.099,65.86,435.908,65.124,435.908,62.768z"/>
		<path d="M438.739,62.827c0-2.591,1.724-4.196,3.873-4.196c2.415,0,3.917,1.561,3.917,4.123c0,2.577-1.737,4.211-3.873,4.211
			C440.241,66.964,438.739,65.33,438.739,62.827z M444.512,62.856c0-2.474-0.913-3.225-1.914-3.225s-1.855,0.678-1.855,3.078
			c0,2.474,0.913,3.225,1.929,3.225C443.644,65.934,444.512,65.242,444.512,62.856z"/>
		<path d="M447.166,66.066l1.045-0.25v-5.802l-1.06-0.25v-0.751l2.68-0.368l0.191,0.103v1.148h0.088
			c0.442-0.604,1.148-1.251,2.018-1.251c0.147,0,0.339,0.015,0.412,0.044v1.708c-0.177-0.044-0.456-0.059-0.633-0.059
			c-0.736,0-1.311,0.074-1.797,0.354v5.124l1.208,0.25v0.692h-4.152V66.066z"/>
		<path d="M454.044,64.874v-5.051h-1.119v-0.736l1.119-0.383v-1.797h1.899v1.87h2.047v1.045h-2.047v4.697
			c0,0.898,0.266,1.208,1.208,1.208c0.368,0,0.677-0.044,0.942-0.103v0.78c-0.457,0.28-1.119,0.501-1.855,0.501
			C454.81,66.906,454.044,66.405,454.044,64.874z"/>
	</g>
	<g>
		<path d="M1.028,227.179l-0.856-0.257v-0.771H4.11v0.771l-1.013,0.257l0.713,3.124c0.371,1.641,0.885,4.323,0.885,4.323h0.071
			c0,0,0.557-2.797,0.927-4.237l1.099-4.237h1.413l1.099,4.151c0.371,1.427,0.898,4.323,0.898,4.323h0.072
			c0,0,0.627-2.896,0.97-4.409l0.699-3.038l-1.042-0.257v-0.771h3.296v0.771l-0.956,0.257l-2.354,9.259h-1.84l-1.113-4.266
			c-0.314-1.185-0.685-3.51-0.685-3.51H7.177c0,0-0.442,2.325-0.756,3.51l-1.155,4.266H3.396L1.028,227.179z"/>
		<path d="M14.549,235.767l1.013-0.242v-9.174l-1.027-0.242v-0.728l2.625-0.343l0.186,0.1v4.338h0.085
			c0.728-0.471,1.555-0.913,2.525-0.913c1.312,0,2.083,0.527,2.083,1.997v4.965l0.984,0.242v0.671h-3.752v-0.671l0.913-0.214v-4.479
			c0-0.899-0.442-1.17-1.327-1.17c-0.528,0-0.999,0.143-1.455,0.285v5.364l0.899,0.214v0.671h-3.752V235.767z"/>
		<path d="M23.535,232.514c0-2.482,1.555-3.951,3.638-3.951c2.283,0,3.267,1.369,3.267,4.095h-4.979
			c0.057,2.011,0.941,2.811,2.382,2.811c1.056,0,1.669-0.215,2.226-0.386v0.813c-0.514,0.313-1.341,0.713-2.668,0.713
			C24.748,236.609,23.535,234.997,23.535,232.514z M28.5,231.801c0-1.712-0.499-2.283-1.398-2.283c-0.956,0-1.555,0.671-1.655,2.283
			H28.5z"/>
		<path d="M31.009,235.767l1.013-0.242v-5.621l-1.027-0.242v-0.729l2.597-0.356l0.186,0.101v1.112h0.085
			c0.428-0.585,1.113-1.213,1.955-1.213c0.143,0,0.328,0.015,0.399,0.043v1.655c-0.171-0.043-0.442-0.058-0.613-0.058
			c-0.713,0-1.27,0.071-1.741,0.343v4.965l1.17,0.242v0.671h-4.023V235.767z"/>
		<path d="M36.671,232.514c0-2.482,1.555-3.951,3.638-3.951c2.283,0,3.267,1.369,3.267,4.095h-4.979
			c0.057,2.011,0.941,2.811,2.382,2.811c1.056,0,1.669-0.215,2.226-0.386v0.813c-0.514,0.313-1.341,0.713-2.668,0.713
			C37.884,236.609,36.671,234.997,36.671,232.514z M41.636,231.801c0-1.712-0.499-2.283-1.398-2.283
			c-0.956,0-1.555,0.671-1.655,2.283H41.636z"/>
		<path d="M48.353,234.612v-4.894h-1.084v-0.713l1.084-0.371v-1.741h1.84v1.812h1.983v1.013h-1.983v4.551
			c0,0.871,0.257,1.17,1.17,1.17c0.356,0,0.656-0.042,0.913-0.1v0.756c-0.442,0.271-1.084,0.485-1.798,0.485
			C49.095,236.581,48.353,236.095,48.353,234.612z"/>
		<path d="M52.817,235.767l1.013-0.242v-9.174l-1.027-0.242v-0.728l2.625-0.343l0.186,0.1v4.338h0.085
			c0.728-0.471,1.555-0.913,2.525-0.913c1.312,0,2.083,0.527,2.083,1.997v4.965l0.984,0.242v0.671h-3.752v-0.671l0.913-0.214v-4.479
			c0-0.899-0.442-1.17-1.327-1.17c-0.528,0-0.999,0.143-1.455,0.285v5.364l0.899,0.214v0.671h-3.752V235.767z"/>
		<path d="M61.802,232.514c0-2.482,1.555-3.951,3.638-3.951c2.283,0,3.267,1.369,3.267,4.095h-4.979
			c0.057,2.011,0.941,2.811,2.382,2.811c1.056,0,1.669-0.215,2.226-0.386v0.813c-0.514,0.313-1.341,0.713-2.668,0.713
			C63.015,236.609,61.802,234.997,61.802,232.514z M66.767,231.801c0-1.712-0.499-2.283-1.398-2.283
			c-0.956,0-1.555,0.671-1.655,2.283H66.767z"/>
		<path d="M69.733,239.177v-0.984c0.313,0.071,0.585,0.128,0.87,0.128c1.056,0,1.37-0.471,1.655-1.184l0.286-0.714l-2.811-6.805
			l-0.671-0.214v-0.699h3.61v0.699l-0.956,0.199l0.97,2.525c0.356,0.941,0.799,2.582,0.799,2.582h0.057c0,0,0.428-1.641,0.756-2.582
			l0.884-2.511l-0.913-0.214v-0.699h2.825v0.699l-0.656,0.214l-2.939,7.847c-0.556,1.47-1.084,2.083-2.425,2.083
			C70.46,239.548,69.99,239.32,69.733,239.177z"/>
		<path d="M82.428,229.576l-0.229,1.241h-1.113v-1.841c0.628-0.242,1.826-0.413,2.911-0.413c1.755,0,2.568,0.756,2.568,2.368v4.194
			c0,0.442,0.243,0.542,0.628,0.542h0.356v0.656c-0.214,0.114-0.799,0.271-1.37,0.271c-0.67,0-1.113-0.285-1.255-0.913h-0.1
			c-0.385,0.456-1.07,0.956-2.04,0.956c-1.37,0-2.297-0.842-2.297-2.112c0-1.412,0.984-1.84,2.511-2.14l1.712-0.343v-0.699
			c0-1.041-0.229-1.812-1.612-1.812C82.884,229.533,82.656,229.547,82.428,229.576z M84.71,235.083v-2.169L83.512,233
			c-0.87,0.058-1.17,0.471-1.17,1.284c0,0.885,0.357,1.327,1.17,1.327C84.011,235.611,84.425,235.368,84.71,235.083z"/>
		<path d="M87.932,232.643c0-2.896,1.769-4.08,4.095-4.08c0.813,0,1.612,0.128,2.126,0.299v2.126H93.04l-0.214-1.341
			c-0.2-0.058-0.428-0.114-0.941-0.114c-1.241,0-2.012,0.885-2.012,2.91c0,2.283,1.027,3.011,2.44,3.011
			c0.927,0,1.583-0.2,1.954-0.371v0.842c-0.471,0.343-1.284,0.685-2.511,0.685C89.245,236.609,87.932,235.068,87.932,232.643z"/>
		<path d="M95.834,234.612v-4.894H94.75v-0.713l1.084-0.371v-1.741h1.84v1.812h1.983v1.013h-1.983v4.551
			c0,0.871,0.257,1.17,1.17,1.17c0.356,0,0.656-0.042,0.913-0.1v0.756c-0.442,0.271-1.084,0.485-1.798,0.485
			C96.576,236.581,95.834,236.095,95.834,234.612z"/>
		<path d="M101.168,234.37v-4.552l-1.013-0.242v-0.714l2.682-0.271l0.171,0.1v5.25c0,0.928,0.271,1.355,1.255,1.355
			c0.756,0,1.17-0.199,1.541-0.356v-5.122l-0.956-0.242v-0.714l2.611-0.271l0.2,0.1v6.634l1.013,0.229v0.685l-2.596,0.343
			l-0.186-0.086v-0.898h-0.086c-0.57,0.542-1.384,0.999-2.439,0.999C101.811,236.595,101.168,235.753,101.168,234.37z"/>
		<path d="M111.096,229.576l-0.229,1.241h-1.113v-1.841c0.628-0.242,1.826-0.413,2.911-0.413c1.755,0,2.568,0.756,2.568,2.368v4.194
			c0,0.442,0.243,0.542,0.628,0.542h0.356v0.656c-0.214,0.114-0.799,0.271-1.37,0.271c-0.67,0-1.113-0.285-1.255-0.913h-0.1
			c-0.385,0.456-1.07,0.956-2.04,0.956c-1.37,0-2.297-0.842-2.297-2.112c0-1.412,0.984-1.84,2.511-2.14l1.712-0.343v-0.699
			c0-1.041-0.229-1.812-1.612-1.812C111.553,229.533,111.324,229.547,111.096,229.576z M113.379,235.083v-2.169L112.18,233
			c-0.87,0.058-1.17,0.471-1.17,1.284c0,0.885,0.357,1.327,1.17,1.327C112.68,235.611,113.093,235.368,113.379,235.083z"/>
		<path d="M116.444,235.767l1.013-0.242v-9.146l-1.098-0.257v-0.728l2.753-0.342l0.186,0.1v10.372l0.999,0.242v0.671h-3.852V235.767
			z"/>
		<path d="M120.68,235.767l1.013-0.242v-9.146l-1.098-0.257v-0.728l2.753-0.342l0.186,0.1v10.372l0.999,0.242v0.671h-3.852V235.767z
			"/>
		<path d="M125.416,239.177v-0.984c0.313,0.071,0.585,0.128,0.87,0.128c1.056,0,1.37-0.471,1.655-1.184l0.286-0.714l-2.811-6.805
			l-0.671-0.214v-0.699h3.61v0.699l-0.956,0.199l0.97,2.525c0.356,0.941,0.799,2.582,0.799,2.582h0.057c0,0,0.428-1.641,0.756-2.582
			l0.884-2.511l-0.913-0.214v-0.699h2.825v0.699l-0.656,0.214l-2.939,7.847c-0.556,1.47-1.084,2.083-2.425,2.083
			C126.144,239.548,125.673,239.32,125.416,239.177z"/>
		<path d="M136.427,232.757c0-2.953,1.583-4.194,3.838-4.194c0.599,0,0.97,0.085,1.355,0.199v-2.368l-1.113-0.242v-0.728
			l2.754-0.343l0.2,0.071v10.172l1.013,0.229v0.685l-2.511,0.343l-0.186-0.086v-0.842h-0.085c-0.414,0.514-1.142,0.956-2.14,0.956
			C138.125,236.609,136.427,235.739,136.427,232.757z M141.62,234.968v-5.036c-0.286-0.199-0.585-0.399-1.313-0.399
			c-1.17,0-1.969,0.642-1.969,3.024c0,2.069,0.685,2.84,1.869,2.84C140.792,235.397,141.235,235.211,141.62,234.968z"/>
		<path d="M144.999,235.767l0.999-0.242v-5.621l-1.099-0.242v-0.729l2.753-0.356l0.186,0.101v6.848l0.984,0.242v0.671h-3.824
			V235.767z M145.783,226.409c0-0.585,0.457-1.027,1.056-1.027c0.599,0,1.056,0.442,1.056,1.027s-0.457,1.026-1.056,1.026
			C146.24,227.435,145.783,226.994,145.783,226.409z"/>
		<path d="M149.363,232.514c0-2.482,1.555-3.951,3.638-3.951c2.283,0,3.267,1.369,3.267,4.095h-4.979
			c0.057,2.011,0.941,2.811,2.382,2.811c1.056,0,1.669-0.215,2.226-0.386v0.813c-0.514,0.313-1.341,0.713-2.668,0.713
			C150.576,236.609,149.363,234.997,149.363,232.514z M154.328,231.801c0-1.712-0.499-2.283-1.398-2.283
			c-0.956,0-1.555,0.671-1.655,2.283H154.328z"/>
	</g>
	<g>
		<path fill="#0072BC" d="M0.32,18.617l1.378-0.339V8.989L0.32,8.65V6.712h11.605l0.18,4.194H9.888L9.169,8.93H5.673v3.515h1.258
			l0.34-1.298h1.797v4.734H7.271l-0.34-1.338H5.673v3.795h3.576l0.938-2.437h2.257l-0.2,4.654H0.32V18.617z"/>
		<path fill="#0072BC" d="M13.061,18.737l1.158-0.28v-6.132L13,12.005v-1.857l4.414-0.459l0.3,0.14v1.139h0.12
			c1.019-0.779,2.038-1.298,3.516-1.298c1.638,0,2.776,0.739,2.776,2.637v6.152l1.059,0.28v1.817h-5.573v-1.817l0.859-0.22v-4.934
			c0-0.859-0.399-1.139-1.258-1.139c-0.52,0-0.919,0.12-1.338,0.26v5.812l0.839,0.22v1.817h-5.652V18.737z"/>
		<path fill="#0072BC" d="M25.84,15.481c0-4.274,2.277-5.812,5.173-5.812c0.819,0,1.278,0.12,1.738,0.3V8.23l-1.258-0.32V6.053
			l4.574-0.459l0.34,0.14v12.403l1.138,0.32v1.817l-4.114,0.479l-0.32-0.14v-1.039h-0.12c-0.56,0.739-1.638,1.218-2.996,1.218
			C27.998,20.794,25.84,19.556,25.84,15.481z M32.751,17.897v-5.632c-0.28-0.2-0.58-0.379-1.219-0.379
			c-1.118,0-1.857,0.619-1.857,3.216c0,2.357,0.619,3.136,1.738,3.136C31.972,18.237,32.412,18.078,32.751,17.897z"/>
		<path fill="#0072BC" d="M41.675,15.301c0-3.675,2.437-5.633,5.513-5.633c3.575,0,5.533,1.998,5.533,5.493
			c0,3.655-2.457,5.653-5.513,5.653C43.652,20.814,41.675,18.677,41.675,15.301z M48.846,15.301c0-2.756-0.679-3.456-1.678-3.456
			c-0.979,0-1.638,0.619-1.638,3.315c0,2.756,0.679,3.456,1.698,3.456C48.207,18.617,48.846,17.917,48.846,15.301z"/>
		<path fill="#0072BC" d="M53.297,18.737l1.158-0.28v-6.392h-1.178v-1.658l1.178-0.459V9.009c0-2.577,1.897-3.416,3.915-3.416
			c1.139,0,1.897,0.22,2.317,0.379V8.15c-0.359-0.08-0.699-0.12-1.178-0.12c-0.939,0-1.398,0.26-1.398,1.338v0.52h1.958v2.177H58.11
			v6.392l1.378,0.28v1.817h-6.192V18.737z"/>
		<path fill="#0072BC" d="M64.06,18.737l1.178-0.28V8.23l-1.278-0.34V6.053l4.614-0.459l0.319,0.14v12.723l1.139,0.28v1.817H64.06
			V18.737z"/>
		<path fill="#0072BC" d="M70.569,18.737l1.158-0.28v-6.132l-1.258-0.32v-1.857l4.574-0.459l0.339,0.14v8.629l1.079,0.28v1.817
			h-5.892V18.737z M71.428,7.232c0-1.099,0.918-1.778,2.017-1.778c1.119,0,2.018,0.679,2.018,1.778c0,1.118-0.899,1.797-2.018,1.797
			C72.347,9.029,71.428,8.35,71.428,7.232z"/>
		<path fill="#0072BC" d="M76.959,18.737l1.158-0.28v-6.392h-1.178v-1.658l1.178-0.459V9.009c0-2.577,1.897-3.416,3.915-3.416
			c1.139,0,1.897,0.22,2.317,0.379V8.15c-0.359-0.08-0.699-0.12-1.178-0.12c-0.939,0-1.398,0.26-1.398,1.338v0.52h1.958v2.177
			h-1.958v6.392l1.378,0.28v1.817h-6.192V18.737z"/>
		<path fill="#0072BC" d="M84.088,15.201c0-3.495,2.157-5.533,5.413-5.533c3.276,0,4.833,1.638,4.833,6.112h-6.431
			c0.2,1.858,1.178,2.537,2.876,2.537c1.398,0,2.297-0.259,3.056-0.499v1.938c-0.759,0.519-2.018,1.059-4.055,1.059
			C86.045,20.814,84.088,18.796,84.088,15.201z M90.799,13.963c0-1.658-0.579-2.157-1.358-2.157c-0.819,0-1.438,0.5-1.558,2.277
			L90.799,13.963z"/>
		<path fill="#0072BC" d="M98.524,15.301c0-3.915,2.376-5.633,5.932-5.633c1.318,0,2.636,0.2,3.275,0.419v3.355h-2.337l-0.279-1.458
			c-0.16-0.06-0.34-0.14-0.819-0.14c-1.178,0-1.877,0.819-1.877,3.156c0,2.517,1.059,3.296,2.876,3.296
			c1.039,0,1.958-0.22,2.497-0.439v1.977c-0.639,0.459-1.857,0.979-3.675,0.979C100.342,20.814,98.524,18.697,98.524,15.301z"/>
		<path fill="#0072BC" d="M108.568,17.897c0-2.097,1.478-2.776,3.895-3.215l1.857-0.36v-0.519c0-1.079-0.399-1.478-1.998-1.478
			c-0.938,0-2.017,0.08-2.736,0.2v-2.117c1.019-0.36,2.677-0.739,4.474-0.739c2.696,0,3.915,1.119,3.915,3.496v4.753
			c0,0.5,0.319,0.639,0.719,0.639h0.34v1.738c-0.379,0.24-1.278,0.5-2.157,0.5c-1.139,0-1.837-0.359-2.137-1.238h-0.12
			c-0.539,0.679-1.538,1.258-2.876,1.258C109.807,20.814,108.568,19.615,108.568,17.897z M114.321,18.297V16l-0.939,0.04
			c-0.819,0.06-1.178,0.479-1.178,1.338c0,0.899,0.319,1.318,1.079,1.318C113.722,18.697,114.121,18.497,114.321,18.297z"/>
		<path fill="#0072BC" d="M119.471,18.737l1.158-0.28v-6.132l-1.218-0.32v-1.857l4.414-0.459l0.3,0.14v1.598h0.12
			c0.58-0.959,1.478-1.718,2.697-1.718c0.18,0,0.399,0.02,0.539,0.06v3.235c-0.22-0.06-0.599-0.1-0.938-0.1
			c-0.979,0-1.658,0.12-2.257,0.399v5.153l1.498,0.28v1.817h-6.312V18.737z"/>
		<path fill="#0072BC" d="M127.918,15.201c0-3.495,2.157-5.533,5.413-5.533c3.276,0,4.833,1.638,4.833,6.112h-6.431
			c0.2,1.858,1.178,2.537,2.876,2.537c1.398,0,2.297-0.259,3.056-0.499v1.938c-0.759,0.519-2.018,1.059-4.055,1.059
			C129.875,20.814,127.918,18.796,127.918,15.201z M134.629,13.963c0-1.658-0.579-2.157-1.358-2.157c-0.819,0-1.438,0.5-1.558,2.277
			L134.629,13.963z"/>
	</g>
</g>
<g>
	<g>
		<path d="M55.246,175.006h1.796l3.626,11.837h-1.71l-0.496-1.643c-0.137-0.479-0.273-1.094-0.359-1.573h-4.105
			c-0.103,0.462-0.239,1.061-0.376,1.557l-0.496,1.659h-1.539L55.246,175.006z M54.356,182.396h3.404
			c-0.171-0.394-0.359-0.924-0.462-1.352l-0.547-1.95c-0.325-1.146-0.599-2.754-0.599-2.754h-0.171c0,0-0.24,1.608-0.582,2.754
			l-0.564,1.968C54.715,181.49,54.51,182.002,54.356,182.396z"/>
		<path d="M62.534,184.722v-4.02c0-0.41,0.085-1.044,0.085-1.044h-1.317v-1.197h1.317c0,0-0.085-0.649-0.085-1.043v-1.745h1.54
			v1.745c0,0.394-0.085,1.043-0.085,1.043h2.172v1.197h-2.172c0,0,0.085,0.634,0.085,1.044v3.849c0,0.89,0.239,1.163,1.146,1.163
			c0.376,0,0.821-0.086,1.095-0.171v1.077c-0.308,0.154-0.907,0.343-1.54,0.343C63.27,186.963,62.534,186.279,62.534,184.722z"/>
		<path d="M71.771,174.544h1.54v2.977c0,0.719-0.154,1.642-0.154,1.642h0.171c0.684-0.649,1.642-1.282,2.771-1.282
			c1.369,0,2.138,0.684,2.138,2.395v6.568h-1.54v-6.124c0-1.077-0.291-1.521-1.231-1.521c-0.838,0-1.608,0.41-2.155,0.752v6.894
			h-1.54V174.544z"/>
		<path d="M80.206,182.824v-0.667c0-2.771,1.454-4.276,3.541-4.276c2.207,0,3.523,1.454,3.523,4.225v0.65
			c0,2.805-1.454,4.293-3.541,4.293C81.523,187.048,80.206,185.578,80.206,182.824z M85.714,182.892v-0.804
			c0-2.344-0.873-3.028-1.984-3.028c-1.231,0-1.95,0.924-1.95,2.977v0.804c0,2.36,0.873,3.028,1.984,3.028
			C84.978,185.869,85.714,184.979,85.714,182.892z"/>
		<path d="M89.307,178.051h1.386v1.026h0.171c0.838-0.719,1.591-1.197,2.566-1.197s1.505,0.394,1.83,1.317h0.171
			c0.804-0.668,1.762-1.317,2.789-1.317c1.385,0,2.155,0.787,2.155,2.531v6.432h-1.539v-6.072c0-1.215-0.376-1.557-1.369-1.557
			c-0.633,0-1.334,0.342-1.898,0.701c0.017,0.12,0.034,0.359,0.034,0.667v6.261h-1.522v-6.072c0-1.215-0.428-1.573-1.352-1.573
			c-0.718,0-1.283,0.29-1.881,0.701v6.944h-1.54V178.051z"/>
		<path d="M102.325,182.755v-0.599c0-2.72,1.386-4.276,3.421-4.276c2.343,0,3.096,1.693,3.096,4.002v0.907h-5.029
			c0.017,2.258,0.873,3.011,2.429,3.011c1.009,0,1.642-0.223,2.326-0.6v1.164c-0.462,0.308-1.266,0.684-2.566,0.684
			C103.574,187.048,102.325,185.458,102.325,182.755z M103.813,181.952c0.359-0.069,1.009-0.188,1.676-0.188h1.899
			c0-1.864-0.496-2.703-1.659-2.703C104.635,179.06,103.831,179.813,103.813,181.952z"/>
	</g>
</g>
<g>
	<g>
		<path d="M55.246,344.488h1.796l3.626,11.837h-1.71l-0.496-1.642c-0.137-0.479-0.273-1.096-0.359-1.574h-4.105
			c-0.103,0.462-0.239,1.061-0.376,1.557l-0.496,1.659h-1.539L55.246,344.488z M54.356,351.877h3.404
			c-0.171-0.394-0.359-0.924-0.462-1.352l-0.547-1.95c-0.325-1.146-0.599-2.754-0.599-2.754h-0.171c0,0-0.24,1.608-0.582,2.754
			l-0.564,1.968C54.715,350.971,54.51,351.484,54.356,351.877z"/>
		<path d="M62.534,354.204v-4.02c0-0.41,0.085-1.044,0.085-1.044h-1.317v-1.197h1.317c0,0-0.085-0.649-0.085-1.043v-1.745h1.54
			v1.745c0,0.394-0.085,1.043-0.085,1.043h2.172v1.197h-2.172c0,0,0.085,0.634,0.085,1.044v3.849c0,0.89,0.239,1.163,1.146,1.163
			c0.376,0,0.821-0.086,1.095-0.171v1.077c-0.308,0.154-0.907,0.343-1.54,0.343C63.27,356.445,62.534,355.76,62.534,354.204z"/>
		<path d="M71.771,344.026h1.54v2.977c0,0.719-0.154,1.642-0.154,1.642h0.171c0.684-0.649,1.642-1.282,2.771-1.282
			c1.369,0,2.138,0.684,2.138,2.395v6.568h-1.54v-6.124c0-1.077-0.291-1.521-1.231-1.521c-0.838,0-1.608,0.41-2.155,0.752v6.894
			h-1.54V344.026z"/>
		<path d="M80.206,352.305v-0.667c0-2.771,1.454-4.276,3.541-4.276c2.207,0,3.523,1.454,3.523,4.225v0.65
			c0,2.805-1.454,4.293-3.541,4.293C81.523,356.53,80.206,355.059,80.206,352.305z M85.714,352.374v-0.804
			c0-2.344-0.873-3.028-1.984-3.028c-1.231,0-1.95,0.924-1.95,2.977v0.804c0,2.361,0.873,3.028,1.984,3.028
			C84.978,355.35,85.714,354.46,85.714,352.374z"/>
		<path d="M89.307,347.533h1.386v1.026h0.171c0.838-0.719,1.591-1.197,2.566-1.197s1.505,0.394,1.83,1.317h0.171
			c0.804-0.668,1.762-1.317,2.789-1.317c1.385,0,2.155,0.787,2.155,2.531v6.432h-1.539v-6.072c0-1.215-0.376-1.557-1.369-1.557
			c-0.633,0-1.334,0.342-1.898,0.701c0.017,0.12,0.034,0.359,0.034,0.667v6.261h-1.522v-6.072c0-1.215-0.428-1.573-1.352-1.573
			c-0.718,0-1.283,0.29-1.881,0.701v6.944h-1.54V347.533z"/>
		<path d="M102.325,352.237v-0.599c0-2.72,1.386-4.276,3.421-4.276c2.343,0,3.096,1.693,3.096,4.002v0.907h-5.029
			c0.017,2.258,0.873,3.011,2.429,3.011c1.009,0,1.642-0.223,2.326-0.599v1.163c-0.462,0.308-1.266,0.684-2.566,0.684
			C103.574,356.53,102.325,354.939,102.325,352.237z M103.813,351.433c0.359-0.069,1.009-0.188,1.676-0.188h1.899
			c0-1.864-0.496-2.703-1.659-2.703C104.635,348.542,103.831,349.294,103.813,351.433z"/>
	</g>
</g>
<g>
	<g>
		<path d="M198.283,190.432h6.329v1.317h-4.841c0,0,0.103,0.821,0.103,1.317v1.077c0,0.53-0.103,1.334-0.103,1.334h3.746v1.3h-3.746
			c0,0,0.103,0.821,0.103,1.335v1.505c0,0.53-0.103,1.334-0.103,1.334h4.875v1.317h-6.363V190.432z"/>
		<path d="M207.059,200.815V189.97h1.54v10.52c0,0.53,0.171,0.753,0.65,0.753c0.223,0,0.53-0.034,0.77-0.103v1.026
			c-0.342,0.137-0.804,0.205-1.266,0.205C207.829,202.372,207.059,201.996,207.059,200.815z"/>
		<path d="M211.113,201.961v-1.249c0.65,0.308,1.3,0.53,2.361,0.53c1.026,0,1.557-0.479,1.557-1.3c0-0.735-0.274-1.095-1.198-1.386
			l-0.889-0.273c-1.112-0.325-1.831-1.044-1.831-2.446c0-1.488,0.907-2.531,2.737-2.531c0.924,0,1.676,0.153,2.189,0.41v1.231
			c-0.427-0.239-1.231-0.444-2.086-0.444c-0.975,0-1.437,0.41-1.437,1.163c0,0.838,0.411,1.095,1.061,1.3l0.89,0.273
			c1.419,0.428,2.052,1.112,2.052,2.566c0,1.693-1.043,2.668-3.062,2.668C212.584,202.474,211.712,202.269,211.113,201.961z"/>
		<path d="M217.938,198.181v-0.599c0-2.72,1.386-4.276,3.421-4.276c2.343,0,3.096,1.693,3.096,4.002v0.907h-5.029
			c0.017,2.258,0.873,3.011,2.429,3.011c1.009,0,1.642-0.223,2.326-0.6v1.164c-0.462,0.308-1.266,0.684-2.566,0.684
			C219.188,202.474,217.938,200.883,217.938,198.181z M219.427,197.377c0.359-0.069,1.009-0.188,1.676-0.188h1.899
			c0-1.864-0.496-2.703-1.659-2.703C220.248,194.486,219.444,195.239,219.427,197.377z"/>
		<path d="M225.842,193.477h1.574l0.89,4.618c0.188,1.01,0.41,3.079,0.41,3.079h0.171c0,0,0.325-2.069,0.564-3.079l1.095-4.618
			h1.659l0.975,4.618c0.188,1.026,0.479,3.079,0.479,3.079h0.171c0,0,0.273-2.053,0.479-3.079l1.009-4.618h1.386l-2.036,8.792
			h-1.881l-0.873-4.088c-0.222-1.129-0.53-3.216-0.53-3.216h-0.171c0,0-0.342,2.104-0.582,3.216l-0.958,4.088h-1.864
			L225.842,193.477z"/>
		<path d="M238.484,189.97h1.54v2.977c0,0.719-0.154,1.642-0.154,1.642h0.171c0.684-0.649,1.642-1.282,2.771-1.282
			c1.369,0,2.138,0.684,2.138,2.395v6.568h-1.54v-6.124c0-1.077-0.291-1.521-1.231-1.521c-0.838,0-1.608,0.41-2.155,0.752v6.894
			h-1.54V189.97z"/>
		<path d="M246.901,198.181v-0.599c0-2.72,1.386-4.276,3.421-4.276c2.343,0,3.096,1.693,3.096,4.002v0.907h-5.029
			c0.017,2.258,0.873,3.011,2.429,3.011c1.01,0,1.643-0.223,2.326-0.6v1.164c-0.462,0.308-1.266,0.684-2.565,0.684
			C248.15,202.474,246.901,200.883,246.901,198.181z M248.39,197.377c0.359-0.069,1.009-0.188,1.676-0.188h1.899
			c0-1.864-0.496-2.703-1.659-2.703C249.211,194.486,248.407,195.239,248.39,197.377z"/>
		<path d="M255.421,193.477h1.385v1.283h0.172c0.701-0.873,1.642-1.386,2.822-1.386v1.488c-1.095-0.034-2.241,0.325-2.84,0.786v6.62
			h-1.539V193.477z"/>
		<path d="M261.117,198.181v-0.599c0-2.72,1.385-4.276,3.421-4.276c2.343,0,3.096,1.693,3.096,4.002v0.907h-5.028
			c0.017,2.258,0.872,3.011,2.429,3.011c1.009,0,1.642-0.223,2.326-0.6v1.164c-0.462,0.308-1.266,0.684-2.565,0.684
			C262.365,202.474,261.117,200.883,261.117,198.181z M262.605,197.377c0.358-0.069,1.009-0.188,1.676-0.188h1.898
			c0-1.864-0.496-2.703-1.659-2.703C263.426,194.486,262.622,195.239,262.605,197.377z"/>
	</g>
</g>
<g>
	<g>
		<path d="M198.283,344.488h6.329v1.317h-4.841c0,0,0.103,0.821,0.103,1.317v1.077c0,0.53-0.103,1.334-0.103,1.334h3.746v1.3h-3.746
			c0,0,0.103,0.821,0.103,1.335v1.505c0,0.53-0.103,1.334-0.103,1.334h4.875v1.317h-6.363V344.488z"/>
		<path d="M207.059,354.871v-10.845h1.54v10.52c0,0.53,0.171,0.753,0.65,0.753c0.223,0,0.53-0.034,0.77-0.103v1.026
			c-0.342,0.137-0.804,0.205-1.266,0.205C207.829,356.427,207.059,356.051,207.059,354.871z"/>
		<path d="M211.113,356.017v-1.249c0.65,0.308,1.3,0.53,2.361,0.53c1.026,0,1.557-0.479,1.557-1.3c0-0.735-0.274-1.095-1.198-1.386
			l-0.889-0.273c-1.112-0.325-1.831-1.044-1.831-2.446c0-1.488,0.907-2.531,2.737-2.531c0.924,0,1.676,0.153,2.189,0.41v1.231
			c-0.427-0.239-1.231-0.444-2.086-0.444c-0.975,0-1.437,0.41-1.437,1.163c0,0.838,0.411,1.095,1.061,1.3l0.89,0.273
			c1.419,0.428,2.052,1.112,2.052,2.566c0,1.693-1.043,2.668-3.062,2.668C212.584,356.53,211.712,356.325,211.113,356.017z"/>
		<path d="M217.938,352.237v-0.599c0-2.72,1.386-4.276,3.421-4.276c2.343,0,3.096,1.693,3.096,4.002v0.907h-5.029
			c0.017,2.258,0.873,3.011,2.429,3.011c1.009,0,1.642-0.223,2.326-0.599v1.163c-0.462,0.308-1.266,0.684-2.566,0.684
			C219.188,356.53,217.938,354.939,217.938,352.237z M219.427,351.433c0.359-0.069,1.009-0.188,1.676-0.188h1.899
			c0-1.864-0.496-2.703-1.659-2.703C220.248,348.542,219.444,349.294,219.427,351.433z"/>
		<path d="M225.842,347.533h1.574l0.89,4.618c0.188,1.01,0.41,3.079,0.41,3.079h0.171c0,0,0.325-2.069,0.564-3.079l1.095-4.618
			h1.659l0.975,4.618c0.188,1.026,0.479,3.079,0.479,3.079h0.171c0,0,0.273-2.053,0.479-3.079l1.009-4.618h1.386l-2.036,8.792
			h-1.881l-0.873-4.088c-0.222-1.129-0.53-3.216-0.53-3.216h-0.171c0,0-0.342,2.104-0.582,3.216l-0.958,4.088h-1.864
			L225.842,347.533z"/>
		<path d="M238.484,344.026h1.54v2.977c0,0.719-0.154,1.642-0.154,1.642h0.171c0.684-0.649,1.642-1.282,2.771-1.282
			c1.369,0,2.138,0.684,2.138,2.395v6.568h-1.54v-6.124c0-1.077-0.291-1.521-1.231-1.521c-0.838,0-1.608,0.41-2.155,0.752v6.894
			h-1.54V344.026z"/>
		<path d="M246.901,352.237v-0.599c0-2.72,1.386-4.276,3.421-4.276c2.343,0,3.096,1.693,3.096,4.002v0.907h-5.029
			c0.017,2.258,0.873,3.011,2.429,3.011c1.01,0,1.643-0.223,2.326-0.599v1.163c-0.462,0.308-1.266,0.684-2.565,0.684
			C248.15,356.53,246.901,354.939,246.901,352.237z M248.39,351.433c0.359-0.069,1.009-0.188,1.676-0.188h1.899
			c0-1.864-0.496-2.703-1.659-2.703C249.211,348.542,248.407,349.294,248.39,351.433z"/>
		<path d="M255.421,347.533h1.385v1.283h0.172c0.701-0.873,1.642-1.386,2.822-1.386v1.488c-1.095-0.034-2.241,0.325-2.84,0.786v6.62
			h-1.539V347.533z"/>
		<path d="M261.117,352.237v-0.599c0-2.72,1.385-4.276,3.421-4.276c2.343,0,3.096,1.693,3.096,4.002v0.907h-5.028
			c0.017,2.258,0.872,3.011,2.429,3.011c1.009,0,1.642-0.223,2.326-0.599v1.163c-0.462,0.308-1.266,0.684-2.565,0.684
			C262.365,356.53,261.117,354.939,261.117,352.237z M262.605,351.433c0.358-0.069,1.009-0.188,1.676-0.188h1.898
			c0-1.864-0.496-2.703-1.659-2.703C263.426,348.542,262.622,349.294,262.605,351.433z"/>
	</g>
</g>
<g>
	<g>
		<path d="M343.179,190.432h1.591v11.837h-1.591V190.432z"/>
		<path d="M347.627,193.477h1.385v1.111h0.172c0.684-0.649,1.642-1.282,2.771-1.282c1.368,0,2.139,0.684,2.139,2.395v6.568h-1.54
			v-6.124c0-1.077-0.291-1.521-1.231-1.521c-0.838,0-1.607,0.41-2.155,0.752v6.894h-1.539V193.477z"/>
		<path d="M360.167,189.97h1.539v2.977c0,0.719-0.154,1.642-0.154,1.642h0.172c0.684-0.649,1.642-1.282,2.771-1.282
			c1.368,0,2.139,0.684,2.139,2.395v6.568h-1.54v-6.124c0-1.077-0.291-1.521-1.231-1.521c-0.838,0-1.607,0.41-2.155,0.752v6.894
			h-1.539V189.97z"/>
		<path d="M368.601,198.25v-0.667c0-2.771,1.454-4.276,3.541-4.276c2.206,0,3.523,1.454,3.523,4.225v0.65
			c0,2.805-1.454,4.293-3.541,4.293C369.918,202.474,368.601,201.003,368.601,198.25z M374.108,198.318v-0.804
			c0-2.344-0.872-3.028-1.984-3.028c-1.231,0-1.949,0.924-1.949,2.977v0.804c0,2.36,0.872,3.028,1.983,3.028
			C373.373,201.294,374.108,200.405,374.108,198.318z"/>
		<path d="M377.257,201.961v-1.249c0.65,0.308,1.3,0.53,2.36,0.53c1.026,0,1.557-0.479,1.557-1.3c0-0.735-0.273-1.095-1.197-1.386
			l-0.89-0.273c-1.111-0.325-1.83-1.044-1.83-2.446c0-1.488,0.907-2.531,2.737-2.531c0.924,0,1.676,0.153,2.189,0.41v1.231
			c-0.428-0.239-1.231-0.444-2.087-0.444c-0.976,0-1.438,0.41-1.438,1.163c0,0.838,0.411,1.095,1.061,1.3l0.89,0.273
			c1.42,0.428,2.053,1.112,2.053,2.566c0,1.693-1.043,2.668-3.062,2.668C378.729,202.474,377.855,202.269,377.257,201.961z"/>
		<path d="M384.511,193.477h1.385v0.924h0.172c0.564-0.564,1.197-1.095,2.292-1.095c1.437,0,2.925,0.77,2.925,4.002v0.496
			c0,2.908-1.334,4.328-3.473,4.328c-0.804,0-1.454-0.325-1.762-0.616h-0.154c0,0,0.154,0.753,0.154,1.454v2.104h-1.539V193.477z
			 M389.693,198.01v-0.599c0-2.275-0.804-2.806-1.967-2.806c-0.873,0-1.386,0.376-1.711,0.616v5.354
			c0.41,0.239,0.872,0.394,1.711,0.394C388.821,200.969,389.693,200.285,389.693,198.01z"/>
		<path d="M393.44,190.175h1.625v1.522h-1.625V190.175z M393.491,193.477h1.522v8.792h-1.522V193.477z"/>
		<path d="M398.11,200.148v-4.02c0-0.41,0.086-1.044,0.086-1.044h-1.317v-1.197h1.317c0,0-0.086-0.649-0.086-1.043v-1.745h1.539
			v1.745c0,0.394-0.085,1.043-0.085,1.043h2.172v1.197h-2.172c0,0,0.085,0.634,0.085,1.044v3.849c0,0.89,0.24,1.163,1.146,1.163
			c0.376,0,0.821-0.086,1.095-0.171v1.077c-0.308,0.154-0.906,0.343-1.539,0.343C398.846,202.389,398.11,201.705,398.11,200.148z"/>
		<path d="M403.14,199.959c0-1.557,0.976-2.411,2.925-2.582l1.643-0.138v-1.009c0-1.266-0.65-1.659-1.95-1.659
			c-0.77,0-1.454,0.154-1.95,0.308v-1.095c0.65-0.239,1.472-0.479,2.48-0.479c1.882,0,2.959,0.804,2.959,2.634v6.329h-1.129
			l-0.205-0.958h-0.154c-0.41,0.548-1.095,1.163-2.224,1.163C404.132,202.474,403.14,201.584,403.14,199.959z M407.741,200.644
			v-2.48l-1.334,0.068c-1.129,0.068-1.745,0.65-1.745,1.643c0,1.043,0.462,1.522,1.352,1.522
			C406.663,201.397,407.364,201.02,407.741,200.644z"/>
		<path d="M411.71,200.815V189.97h1.54v10.52c0,0.53,0.171,0.753,0.649,0.753c0.223,0,0.53-0.034,0.77-0.103v1.026
			c-0.342,0.137-0.804,0.205-1.266,0.205C412.479,202.372,411.71,201.996,411.71,200.815z"/>
	</g>
</g>
<g>
	<g>
		<path d="M343.179,344.488h1.591v11.837h-1.591V344.488z"/>
		<path d="M347.627,347.533h1.385v1.111h0.172c0.684-0.649,1.642-1.282,2.771-1.282c1.368,0,2.139,0.684,2.139,2.395v6.568h-1.54
			v-6.124c0-1.077-0.291-1.521-1.231-1.521c-0.838,0-1.607,0.41-2.155,0.752v6.894h-1.539V347.533z"/>
		<path d="M360.167,344.026h1.539v2.977c0,0.719-0.154,1.642-0.154,1.642h0.172c0.684-0.649,1.642-1.282,2.771-1.282
			c1.368,0,2.139,0.684,2.139,2.395v6.568h-1.54v-6.124c0-1.077-0.291-1.521-1.231-1.521c-0.838,0-1.607,0.41-2.155,0.752v6.894
			h-1.539V344.026z"/>
		<path d="M368.601,352.305v-0.667c0-2.771,1.454-4.276,3.541-4.276c2.206,0,3.523,1.454,3.523,4.225v0.65
			c0,2.805-1.454,4.293-3.541,4.293C369.918,356.53,368.601,355.059,368.601,352.305z M374.108,352.374v-0.804
			c0-2.344-0.872-3.028-1.984-3.028c-1.231,0-1.949,0.924-1.949,2.977v0.804c0,2.361,0.872,3.028,1.983,3.028
			C373.373,355.35,374.108,354.46,374.108,352.374z"/>
		<path d="M377.257,356.017v-1.249c0.65,0.308,1.3,0.53,2.36,0.53c1.026,0,1.557-0.479,1.557-1.3c0-0.735-0.273-1.095-1.197-1.386
			l-0.89-0.273c-1.111-0.325-1.83-1.044-1.83-2.446c0-1.488,0.907-2.531,2.737-2.531c0.924,0,1.676,0.153,2.189,0.41v1.231
			c-0.428-0.239-1.231-0.444-2.087-0.444c-0.976,0-1.438,0.41-1.438,1.163c0,0.838,0.411,1.095,1.061,1.3l0.89,0.273
			c1.42,0.428,2.053,1.112,2.053,2.566c0,1.693-1.043,2.668-3.062,2.668C378.729,356.53,377.855,356.325,377.257,356.017z"/>
		<path d="M384.511,347.533h1.385v0.924h0.172c0.564-0.564,1.197-1.095,2.292-1.095c1.437,0,2.925,0.77,2.925,4.002v0.496
			c0,2.908-1.334,4.328-3.473,4.328c-0.804,0-1.454-0.325-1.762-0.616h-0.154c0,0,0.154,0.753,0.154,1.454v2.104h-1.539V347.533z
			 M389.693,352.066v-0.599c0-2.275-0.804-2.806-1.967-2.806c-0.873,0-1.386,0.376-1.711,0.616v5.354
			c0.41,0.239,0.872,0.394,1.711,0.394C388.821,355.025,389.693,354.34,389.693,352.066z"/>
		<path d="M393.44,344.231h1.625v1.522h-1.625V344.231z M393.491,347.533h1.522v8.792h-1.522V347.533z"/>
		<path d="M398.11,354.204v-4.02c0-0.41,0.086-1.044,0.086-1.044h-1.317v-1.197h1.317c0,0-0.086-0.649-0.086-1.043v-1.745h1.539
			v1.745c0,0.394-0.085,1.043-0.085,1.043h2.172v1.197h-2.172c0,0,0.085,0.634,0.085,1.044v3.849c0,0.89,0.24,1.163,1.146,1.163
			c0.376,0,0.821-0.086,1.095-0.171v1.077c-0.308,0.154-0.906,0.343-1.539,0.343C398.846,356.445,398.11,355.76,398.11,354.204z"/>
		<path d="M403.14,354.015c0-1.557,0.976-2.411,2.925-2.582l1.643-0.138v-1.009c0-1.266-0.65-1.659-1.95-1.659
			c-0.77,0-1.454,0.154-1.95,0.308v-1.095c0.65-0.239,1.472-0.479,2.48-0.479c1.882,0,2.959,0.804,2.959,2.634v6.329h-1.129
			l-0.205-0.958h-0.154c-0.41,0.548-1.095,1.163-2.224,1.163C404.132,356.53,403.14,355.64,403.14,354.015z M407.741,354.7v-2.48
			l-1.334,0.068c-1.129,0.068-1.745,0.65-1.745,1.643c0,1.043,0.462,1.522,1.352,1.522
			C406.663,355.453,407.364,355.076,407.741,354.7z"/>
		<path d="M411.71,354.871v-10.845h1.54v10.52c0,0.53,0.171,0.753,0.649,0.753c0.223,0,0.53-0.034,0.77-0.103v1.026
			c-0.342,0.137-0.804,0.205-1.266,0.205C412.479,356.427,411.71,356.051,411.71,354.871z"/>
	</g>
</g>
<g>
	<path fill="#FFFFFF" d="M56.04,131.206v-0.183H42.854l-1.232,3.377h-3.239l0.457-8.167h21.169v3.924l-11.36,27.693h-6.98
		L56.04,131.206z"/>
	<path fill="#FFFFFF" d="M61.648,156.208v-3.239c2.053,0.73,4.471,1.232,7.117,1.232c4.334,0,7.026-1.78,7.026-5.43
		c0-4.106-2.144-5.521-6.707-5.521h-2.373v-3.604h1.962c4.106,0,6.25-1.643,6.25-4.882s-1.779-4.927-5.84-4.927
		c-2.555,0-4.289,0.364-6.159,0.958v-3.148c2.053-1.095,5.064-1.962,8.304-1.962c6.159,0,9.854,2.783,9.854,7.894
		c0,3.832-2.509,6.387-6.022,7.437v0.183c3.924,0.684,7.254,2.965,7.254,8.029c0,5.657-4.38,9.125-11.725,9.125
		C66.53,158.352,63.656,157.348,61.648,156.208z"/>
	<path fill="#FFFFFF" d="M84.914,134.719c0-6.068,3.833-9.034,8.03-9.034c4.106,0,8.029,2.875,8.029,8.806
		c0,5.977-3.787,8.942-8.075,8.942C88.564,143.433,84.914,140.559,84.914,134.719z M96.001,134.719c0-4.106-0.73-6.342-3.057-6.342
		c-2.373,0-3.103,2.144-3.103,6.159c0,3.969,0.73,6.204,3.057,6.204C95.271,140.741,96.001,138.78,96.001,134.719z M112.197,125.321
		h3.787l-21.762,34.354h-3.787L112.197,125.321z M105.81,149.683c0-6.067,3.878-9.033,8.075-9.033c4.106,0,8.03,2.874,8.03,8.806
		c0,5.977-3.787,8.942-8.075,8.942C109.505,158.398,105.81,155.523,105.81,149.683z M116.942,149.683
		c0-4.061-0.73-6.342-3.057-6.342c-2.372,0-3.148,2.145-3.148,6.159c0,4.016,0.776,6.205,3.103,6.205
		S116.942,153.744,116.942,149.683z"/>
</g>
<g>
	<path fill="#FFFFFF" d="M46.668,299.7v-2.429c1.54,0.547,3.353,0.924,5.337,0.924c3.25,0,5.269-1.335,5.269-4.071
		c0-3.079-1.608-4.14-5.029-4.14h-1.779v-2.702h1.471c3.079,0,4.687-1.232,4.687-3.661s-1.334-3.694-4.379-3.694
		c-1.916,0-3.215,0.273-4.618,0.718v-2.36c1.54-0.82,3.797-1.471,6.226-1.471c4.619,0,7.39,2.087,7.39,5.918
		c0,2.874-1.882,4.79-4.516,5.576v0.138c2.942,0.513,5.439,2.224,5.439,6.021c0,4.242-3.284,6.842-8.792,6.842
		C50.329,301.307,48.174,300.555,46.668,299.7z"/>
	<path fill="#FFFFFF" d="M64.357,289.231c0-8.621,4.55-12.418,9.921-12.418c5.405,0,9.75,3.694,9.75,12.179
		c0,8.553-4.413,12.384-9.853,12.384C68.565,301.375,64.357,297.613,64.357,289.231z M79.17,289.265c0-6.637-1.471-9.75-4.926-9.75
		c-3.421,0-5.029,3.113-5.029,9.477c0,6.603,1.505,9.682,4.995,9.682C77.597,298.673,79.17,295.765,79.17,289.265z"/>
	<path fill="#FFFFFF" d="M85.981,283.586c0-4.55,2.874-6.773,6.021-6.773c3.079,0,6.021,2.155,6.021,6.603
		c0,4.481-2.84,6.705-6.056,6.705C88.718,290.121,85.981,287.965,85.981,283.586z M94.294,283.586c0-3.079-0.547-4.755-2.292-4.755
		c-1.779,0-2.326,1.607-2.326,4.618c0,2.977,0.547,4.652,2.292,4.652C93.747,288.102,94.294,286.631,94.294,283.586z
		 M106.439,276.54h2.839l-16.318,25.76h-2.839L106.439,276.54z M101.649,294.807c0-4.55,2.908-6.773,6.055-6.773
		c3.079,0,6.021,2.155,6.021,6.603c0,4.481-2.839,6.705-6.055,6.705C104.42,301.341,101.649,299.186,101.649,294.807z
		 M109.997,294.807c0-3.044-0.547-4.755-2.292-4.755c-1.779,0-2.36,1.608-2.36,4.618c0,3.011,0.582,4.653,2.326,4.653
		S109.997,297.852,109.997,294.807z"/>
</g>
<g>
	<path fill="#FFFFFF" d="M201.184,299.7v-2.429c1.54,0.547,3.353,0.924,5.337,0.924c3.25,0,5.269-1.335,5.269-4.071
		c0-3.079-1.608-4.14-5.029-4.14h-1.779v-2.702h1.471c3.079,0,4.687-1.232,4.687-3.661s-1.334-3.694-4.379-3.694
		c-1.916,0-3.215,0.273-4.618,0.718v-2.36c1.54-0.82,3.797-1.471,6.226-1.471c4.619,0,7.39,2.087,7.39,5.918
		c0,2.874-1.882,4.79-4.516,5.576v0.138c2.942,0.513,5.439,2.224,5.439,6.021c0,4.242-3.284,6.842-8.792,6.842
		C204.845,301.307,202.689,300.555,201.184,299.7z"/>
	<path fill="#FFFFFF" d="M218.189,298.502l5.713-5.679c2.942-2.977,5.029-5.405,5.029-8.416c0-2.635-1.437-4.14-4.823-4.14
		c-1.813,0-3.49,0.445-5.029,0.992v-2.497c1.676-0.992,4.311-1.95,6.979-1.95c4.755,0,7.731,2.395,7.731,6.979
		c0,3.661-2.771,6.843-7.355,10.605l-3.626,3.011v0.068h7.937l1.368-2.908h2.326l-0.479,6.363h-15.771V298.502z"/>
	<path fill="#FFFFFF" d="M236.528,283.586c0-4.55,2.874-6.773,6.021-6.773c3.079,0,6.021,2.155,6.021,6.603
		c0,4.481-2.84,6.705-6.056,6.705C239.265,290.121,236.528,287.965,236.528,283.586z M244.841,283.586
		c0-3.079-0.547-4.755-2.292-4.755c-1.779,0-2.326,1.607-2.326,4.618c0,2.977,0.547,4.652,2.292,4.652
		C244.294,288.102,244.841,286.631,244.841,283.586z M256.985,276.54h2.84l-16.318,25.76h-2.839L256.985,276.54z M252.196,294.807
		c0-4.55,2.908-6.773,6.056-6.773c3.078,0,6.021,2.155,6.021,6.603c0,4.481-2.84,6.705-6.055,6.705
		C254.968,301.341,252.196,299.186,252.196,294.807z M260.544,294.807c0-3.044-0.548-4.755-2.292-4.755
		c-1.779,0-2.361,1.608-2.361,4.618c0,3.011,0.582,4.653,2.327,4.653C259.962,299.324,260.544,297.852,260.544,294.807z"/>
</g>
<g>
	<path fill="#FFFFFF" d="M345.068,299.7v-2.429c1.539,0.547,3.353,0.924,5.337,0.924c3.249,0,5.268-1.335,5.268-4.071
		c0-3.079-1.607-4.14-5.028-4.14h-1.779v-2.702h1.471c3.079,0,4.688-1.232,4.688-3.661s-1.335-3.694-4.379-3.694
		c-1.916,0-3.216,0.273-4.618,0.718v-2.36c1.539-0.82,3.797-1.471,6.226-1.471c4.618,0,7.39,2.087,7.39,5.918
		c0,2.874-1.882,4.79-4.516,5.576v0.138c2.941,0.513,5.439,2.224,5.439,6.021c0,4.242-3.284,6.842-8.792,6.842
		C348.729,301.307,346.573,300.555,345.068,299.7z"/>
	<path fill="#FFFFFF" d="M362.688,295.013c0-2.942,2.395-4.893,5.098-5.919c-2.874-1.368-4.174-3.25-4.174-5.986
		c0-3.559,3.045-6.295,8.107-6.295c4.961,0,8.005,2.189,8.005,5.781c0,2.84-2.12,4.413-4.413,5.405
		c3.354,1.3,5.405,3.182,5.405,6.397c0,4.174-3.182,6.979-9.031,6.979C365.87,301.375,362.688,298.981,362.688,295.013z
		 M376.201,295.082c0-2.498-2.053-3.421-6.191-4.858c-1.882,0.958-3.216,2.497-3.216,4.652c0,2.464,1.505,3.866,4.687,3.866
		C374.73,298.742,376.201,297.339,376.201,295.082z M375.654,282.833c0-2.463-1.643-3.421-3.832-3.421
		c-2.292,0-3.831,1.267-3.831,3.113c0,2.36,1.471,3.318,4.892,4.447C374.354,286.152,375.654,284.92,375.654,282.833z"/>
	<path fill="#FFFFFF" d="M382.055,283.586c0-4.55,2.873-6.773,6.021-6.773c3.079,0,6.021,2.155,6.021,6.603
		c0,4.481-2.84,6.705-6.056,6.705C384.791,290.121,382.055,287.965,382.055,283.586z M390.367,283.586
		c0-3.079-0.547-4.755-2.292-4.755c-1.778,0-2.326,1.607-2.326,4.618c0,2.977,0.548,4.652,2.292,4.652
		C389.82,288.102,390.367,286.631,390.367,283.586z M402.512,276.54h2.84l-16.318,25.76h-2.839L402.512,276.54z M397.723,294.807
		c0-4.55,2.908-6.773,6.056-6.773c3.078,0,6.021,2.155,6.021,6.603c0,4.481-2.839,6.705-6.055,6.705
		C400.494,301.341,397.723,299.186,397.723,294.807z M406.07,294.807c0-3.044-0.548-4.755-2.292-4.755
		c-1.779,0-2.361,1.608-2.361,4.618c0,3.011,0.582,4.653,2.327,4.653C405.488,299.324,406.07,297.852,406.07,294.807z"/>
</g>
<g>
	<path fill="#FFFFFF" d="M200.568,151.829l5.713-5.679c2.942-2.977,5.029-5.405,5.029-8.416c0-2.635-1.437-4.14-4.824-4.14
		c-1.813,0-3.489,0.445-5.029,0.992v-2.497c1.676-0.992,4.311-1.95,6.979-1.95c4.755,0,7.731,2.395,7.731,6.979
		c0,3.661-2.771,6.843-7.355,10.605l-3.626,3.011v0.068h7.937l1.368-2.908h2.326l-0.479,6.363h-15.771V151.829z"/>
	<path fill="#FFFFFF" d="M231.975,134.279v-0.137h-9.887l-0.923,2.531h-2.429l0.342-6.124h15.874v2.942l-8.519,20.766h-5.234
		L231.975,134.279z"/>
	<path fill="#FFFFFF" d="M236.835,136.913c0-4.55,2.874-6.773,6.021-6.773c3.079,0,6.021,2.155,6.021,6.603
		c0,4.481-2.839,6.705-6.055,6.705C239.572,143.447,236.835,141.292,236.835,136.913z M245.148,136.913
		c0-3.079-0.547-4.755-2.292-4.755c-1.779,0-2.327,1.607-2.327,4.618c0,2.977,0.547,4.652,2.292,4.652
		C244.601,141.428,245.148,139.958,245.148,136.913z M257.293,129.866h2.84l-16.319,25.76h-2.839L257.293,129.866z M252.504,148.133
		c0-4.55,2.907-6.773,6.055-6.773c3.079,0,6.021,2.155,6.021,6.603c0,4.481-2.84,6.705-6.056,6.705
		C255.274,154.667,252.504,152.512,252.504,148.133z M260.851,148.133c0-3.044-0.547-4.755-2.292-4.755
		c-1.779,0-2.36,1.608-2.36,4.618c0,3.011,0.581,4.653,2.326,4.653S260.851,151.178,260.851,148.133z"/>
</g>
<g>
	<path fill="#ED1C24" d="M354.241,175.21v-2.11l11.009-4.962v2.681l-7.985,3.337l7.985,3.365v2.681L354.241,175.21z"/>
	<path fill="#ED1C24" d="M368.041,181.941l2.795-0.484v-13.945l-3.052,0.256V166l5.505-2.281h1.511v17.738l2.767,0.484v1.769h-9.525
		V181.941z"/>
	<path fill="#ED1C24" d="M378.533,169.25c0-3.793,2.396-5.646,5.02-5.646c2.566,0,5.019,1.797,5.019,5.504
		c0,3.736-2.366,5.59-5.048,5.59C380.814,174.698,378.533,172.901,378.533,169.25z M385.463,169.25c0-2.566-0.456-3.964-1.91-3.964
		c-1.483,0-1.939,1.34-1.939,3.85c0,2.481,0.456,3.879,1.91,3.879C385.007,173.015,385.463,171.789,385.463,169.25z
		 M395.587,163.375h2.367l-13.604,21.475h-2.367L395.587,163.375z M391.595,178.605c0-3.793,2.424-5.647,5.048-5.647
		c2.566,0,5.02,1.797,5.02,5.505c0,3.735-2.367,5.589-5.048,5.589C393.904,184.051,391.595,182.255,391.595,178.605z
		 M398.553,178.605c0-2.538-0.456-3.965-1.91-3.965c-1.483,0-1.968,1.341-1.968,3.851s0.484,3.878,1.939,3.878
		C398.068,182.369,398.553,181.143,398.553,178.605z"/>
</g>
<polygon fill="#F69679" points="384.489,143.315 379.929,143.315 379.929,138.753 375.364,138.753 375.364,143.315 370.8,143.315 
	370.8,147.881 375.364,147.881 375.364,152.441 379.929,152.441 379.929,147.881 384.489,147.881 "/>
<g>
</g>
<g>
</g>
<g>
</g>
<g>
</g>
<g>
</g>
<g>
</g>
</svg>
