<?xml version="1.0" encoding="utf-8"?>
<!-- Generator: Adobe Illustrator 18.1.1, SVG Export Plug-In . SVG Version: 6.00 Build 0)  -->
<!DOCTYPE svg PUBLIC "-//W3C//DTD SVG 1.1//EN" "http://www.w3.org/Graphics/SVG/1.1/DTD/svg11.dtd">
<svg version="1.1" id="Layer_1" xmlns="http://www.w3.org/2000/svg" xmlns:xlink="http://www.w3.org/1999/xlink" x="0px" y="0px"
	 viewBox="0 0 300 460" enable-background="new 0 0 300 460" xml:space="preserve">
<g>
	<g>
		<path fill="#3A3E43" d="M47.6,16.3h-5.3v7.2h-5.6v-19h5.6v7h5.3v-7h5.6v19h-5.6V16.3z"/>
		<path fill="#3A3E43" d="M57.4,23.5v-19h13.6v4.8h-8.2v2.3h6.5v4.5h-6.5v2.5h8.2v4.8H57.4z"/>
		<path fill="#3A3E43" d="M78,16.4L72.2,4.9V4.5h6.1l2.4,6.8l2.4-6.8h6.1v0.4l-5.8,11.5v7.1H78V16.4z"/>
		<path fill="#3A3E43" d="M97.3,23.5v-19h13.6v4.8h-8.2v2.3h6.5v4.5h-6.5v2.5h8.2v4.8H97.3z"/>
		<path fill="#3A3E43" d="M112.3,4.5h6l3.2,12.3l3.2-12.3h6.1l-5.8,19h-7L112.3,4.5z"/>
		<path fill="#3A3E43" d="M133.1,23.5v-19h13.6v4.8h-8.2v2.3h6.5v4.5h-6.5v2.5h8.2v4.8H133.1z"/>
		<path fill="#3A3E43" d="M150.1,4.5h8.5c4.2,0,6.3,2.8,6.3,6.4c0,2.7-1.5,4.7-3.7,5.5c1.4,1.4,2.6,2.6,3.8,2.6
			c0.3,0,0.9-0.1,1.3-0.3l0.5,4.4c-0.7,0.4-1.8,0.7-2.9,0.7c-3.5,0-6-4.2-8.2-6.3v6h-5.6V4.5z M155.7,12.9h1.9
			c1.1,0,1.6-0.8,1.6-1.8c0-1-0.5-1.8-1.6-1.8h-1.9V12.9z"/>
		<path fill="#3A3E43" d="M172.1,16.4l-5.8-11.5V4.5h6.1l2.4,6.8l2.4-6.8h6.1v0.4l-5.8,11.5v7.1h-5.5V16.4z"/>
		<path fill="#3A3E43" d="M185.3,4.5h8.1c3.8,0,5.9,1.7,5.9,5.2c0,1.8-0.7,3.1-1.9,3.9c2,0.6,3.2,2.1,3.2,4.7c0,3.3-2.2,5.3-6.1,5.3
			h-9.2V4.5z M190.9,11.7h1.5c1,0,1.4-0.6,1.4-1.5c0-0.9-0.4-1.5-1.4-1.5h-1.5V11.7z M190.9,19.3h2.5c1,0,1.4-0.7,1.4-1.6
			c0-1-0.4-1.7-1.5-1.7h-2.4V19.3z"/>
		<path fill="#3A3E43" d="M211.1,4.2c5.3,0,8.4,4.2,8.4,9.8c0,5.6-3.1,9.8-8.4,9.8c-5.2,0-8.3-4.2-8.3-9.8
			C202.8,8.4,205.9,4.2,211.1,4.2z M211.1,18.6c1.8,0,3-1.4,3-4.5c0-3.2-1.2-4.6-3-4.6c-1.7,0-2.9,1.4-2.9,4.6
			C208.2,17.2,209.4,18.6,211.1,18.6z"/>
		<path fill="#3A3E43" d="M222.7,4.5h8c4.8,0,8.4,3.4,8.4,9.5c0,6.1-3.6,9.5-8.4,9.5h-8V4.5z M230,18.7c2.3,0,3.5-1.7,3.5-4.6
			c0-3-1.2-4.7-3.5-4.7h-1.7v9.4H230z"/>
		<path fill="#3A3E43" d="M245.5,16.4l-5.8-11.5V4.5h6.1l2.4,6.8l2.4-6.8h6.1v0.4l-5.8,11.5v7.1h-5.5V16.4z"/>
		<path fill="#3A3E43" d="M261,17.9c1.9,0,3.1,1.1,3.1,3.1s-1.1,3-3.1,3c-1.9,0-3-1.1-3-3S259.1,17.9,261,17.9z M258.2,4.5h5.5
			l-0.9,11.8h-3.8L258.2,4.5z"/>
		<path fill="#3A3E43" d="M67.8,51.8v5.7h-5.3v-19h13.1v4.9h-7.7V47h6.4v4.9H67.8z"/>
		<path fill="#3A3E43" d="M78.5,38.5H87c4.2,0,6.3,2.8,6.3,6.4c0,2.7-1.5,4.7-3.7,5.5c1.4,1.4,2.6,2.6,3.8,2.6
			c0.3,0,0.9-0.1,1.3-0.3l0.5,4.4c-0.7,0.4-1.8,0.7-2.9,0.7c-3.5,0-6-4.2-8.2-6.3v6h-5.6V38.5z M84.1,46.9H86c1.1,0,1.6-0.8,1.6-1.8
			c0-1-0.5-1.8-1.6-1.8h-1.9V46.9z"/>
		<path fill="#3A3E43" d="M97.5,57.5v-19H111v4.8h-8.2v2.3h6.5v4.5h-6.5v2.5h8.2v4.8H97.5z"/>
		<path fill="#3A3E43" d="M114.5,57.5v-19H128v4.8h-8.2v2.3h6.5v4.5h-6.5v2.5h8.2v4.8H114.5z"/>
		<path fill="#3A3E43" d="M149.1,51.1l-1.8,6.4h-6l-5.8-19h5.9l3.4,12.8l1.9-6.7l-1.7-6h6l2.6,11.8l2.9-11.8h6l-5.8,19h-6
			L149.1,51.1z"/>
		<path fill="#3A3E43" d="M167.8,38.5h6.5l5.8,19h-5.6l-0.8-3.1h-5.5l-0.8,3.1H162L167.8,38.5z M169.6,50.3h2.8L171,44L169.6,50.3z"
			/>
		<path fill="#3A3E43" d="M189.9,44.1v13.4h-5.6V44.1h-4.1v-5.6H194v5.6H189.9z"/>
		<path fill="#3A3E43" d="M197,57.5v-19h13.6v4.8h-8.2v2.3h6.5v4.5h-6.5v2.5h8.2v4.8H197z"/>
		<path fill="#3A3E43" d="M214,38.5h8.5c4.2,0,6.3,2.8,6.3,6.4c0,2.7-1.5,4.7-3.7,5.5c1.4,1.4,2.6,2.6,3.8,2.6
			c0.3,0,0.9-0.1,1.3-0.3l0.5,4.4c-0.7,0.4-1.8,0.7-2.9,0.7c-3.5,0-6-4.2-8.2-6.3v6H214V38.5z M219.6,46.9h1.9
			c1.1,0,1.6-0.8,1.6-1.8c0-1-0.5-1.8-1.6-1.8h-1.9V46.9z"/>
		<path fill="#3A3E43" d="M235.3,51.9c1.9,0,3.1,1.1,3.1,3.1s-1.1,3-3.1,3c-1.9,0-3-1.1-3-3S233.4,51.9,235.3,51.9z M232.5,38.5h5.5
			l-0.9,11.8h-3.8L232.5,38.5z"/>
	</g>
</g>
<rect x="204.6" y="238.2" fill="#D1EF20" width="12.8" height="53.1"/>
<line fill="none" stroke="#FFFFFF" stroke-width="6" stroke-miterlimit="10" x1="204" y1="233" x2="204" y2="299"/>
<g>
	<path fill="#D1EF20" d="M190.4,228.1v-3.1c0.9-0.7,1.3-1.6,1.3-2.7c0-1.9-1.5-3.3-3.7-3.7h0c0-0.1-0.1-0.2-0.1-0.3
		c-0.1-0.2-0.2-0.4-0.2-0.5c-0.1-0.2-0.1-0.3-0.2-0.5c-0.1-0.3,0-0.5,0.2-0.6c0.1-0.1,0.3-0.2,0.6-0.4c10.3-3.7,18.4-6.7,18.4-16.3
		v-2c0-0.1,0-0.1,0.1-0.2c0.1-0.5,0.1-0.9-0.1-1.4v-3.2c0.1-0.2,0.1-0.5,0.1-0.8v-6.7c0-0.4-0.1-0.8-0.2-1.2c0-0.1,0-0.2-0.1-0.3
		c0,0,0-0.1,0-0.1c0-0.1-0.1-0.2-0.1-0.2c0-0.1-0.1-0.1-0.1-0.1c0-0.1-0.1-0.1-0.1-0.2v0c0.2-0.3,0.4-0.6,0.5-1
		c0.1-0.2,0.1-0.4,0.1-0.5c0-0.2,0-0.4,0-0.5v-10c0-0.2,0-0.4,0-0.5c0-0.2,0-0.4-0.1-0.5c0-0.2-0.1-0.4-0.2-0.6
		c-0.1-0.2-0.2-0.4-0.3-0.6c0,0,0,0,0,0c0,0,0.1-0.1,0.1-0.1c0.2-0.2,0.3-0.6,0.4-0.9c0.1-0.2,0.1-0.4,0.1-0.5c0-0.2,0-0.4,0-0.5
		v-14.8c0-2.9-3-4.9-6-5.5c-15-2.8-31.6-2.8-46.7,0c-3,0.6-6,2.7-6,5.5v14.8c0,0.2,0,0.4,0.1,0.6c0,0.1,0,0.2,0.1,0.3
		c0,0.1,0,0.2,0.1,0.2c0.1,0.3,0.2,0.6,0.4,0.9c-0.1,0.1-0.1,0.2-0.2,0.3c-0.1,0.3-0.2,0.5-0.3,0.8c-0.1,0.2-0.1,0.3-0.1,0.5
		c0,0.2,0,0.3,0,0.5v10c0,0.2,0,0.4,0,0.5c0,0.2,0.1,0.4,0.1,0.5c0.1,0.4,0.3,0.7,0.5,1c0,0,0,0,0,0.1c-0.1,0.2-0.2,0.4-0.3,0.6
		c0,0.1-0.1,0.2-0.1,0.3c-0.1,0.4-0.2,0.8-0.2,1.2v6.7c0,0.3,0,0.6,0.1,0.8v3.2c-0.1,0.4-0.2,0.9-0.1,1.4c0,0.1,0,0.1,0.1,0.2v2
		c0,9.6,8.1,12.5,18.4,16.3c1,0.5,1,0.6,0.1,2.3h0c-2.2,0.4-3.7,1.8-3.7,3.7c0,1,0.5,2,1.3,2.7v3.1L190.4,228.1z M201.4,200.1
		c0,5.5-4.2,7.5-15.2,11.4c-0.1,0-0.2,0.1-0.3,0.1c-3.7,1.9-4,4.6-3.5,6.8h-10.2c0.5-2.2,0.2-4.9-3.5-6.8c-0.1-0.1-0.2-0.1-0.3-0.1
		c-11-4-15.2-6-15.2-11.4v-0.7c15.4-3.1,32.7-3.1,48.1,0L201.4,200.1L201.4,200.1z M153.1,166.1v-13.3c0.3-0.2,0.9-0.7,1.8-0.8
		c0.6-0.1,1.1-0.2,1.7-0.3c0.4-0.1,0.9-0.2,1.3-0.2c1-0.2,2-0.3,3-0.4c1.3-0.2,2.7-0.4,4-0.5c0.6-0.1,1.2-0.1,1.8-0.2
		c0.7-0.1,1.4-0.1,2.1-0.2c1.8-0.1,3.7-0.2,5.5-0.2h0.1c1.8,0,3.7,0,5.6,0c0,0,0,0,0,0c1.8,0,3.7,0.1,5.5,0.2c1,0.1,2,0.1,3,0.2
		c0.9,0.1,1.9,0.2,2.8,0.3c1.8,0.2,3.5,0.4,5.2,0.7c0.5,0.1,0.9,0.1,1.3,0.2c0.6,0.1,1.2,0.2,1.7,0.3c0.9,0.2,1.6,0.6,1.8,0.8v13.3
		c-0.2,0-0.5,0-0.8-0.1c-1.3-0.2-2.7-0.5-4-0.7c-1-0.2-1.9-0.3-2.9-0.4c-1.4-0.2-2.7,0.8-2.9,2.2c-0.2,1.4,0.8,2.7,2.2,2.9
		c1,0.1,1.9,0.3,2.8,0.4c1.3,0.2,2.5,0.4,3.8,0.7c0.9,0.2,1.6,0.6,1.8,0.8v8.5c-0.2,0-0.5,0-0.9-0.1c0,0-0.1,0-0.1,0h-0.1
		c-0.7-0.1-1.4-0.3-2.1-0.4c-1.4-0.2-2.8,0.7-3,2.1c-0.2,1.4,0.7,2.8,2.1,3c0.7,0.1,1.4,0.2,2.1,0.4c0,0,0.1,0,0.1,0h0
		c0.2,0,0.3,0.1,0.5,0.1c0.1,0,0.2,0.1,0.3,0.1c0.4,0.1,0.7,0.3,0.9,0.5v8c-15.5-3-32.7-3-48.1,0v-8c0.2-0.1,0.5-0.3,0.9-0.5
		c0.1,0,0.2-0.1,0.3-0.1c0.1-0.1,0.3-0.1,0.5-0.1c8.5-1.6,17.4-2.3,26.6-2c1.4,0,2.6-1.1,2.7-2.5c0-1.4-1.1-2.6-2.5-2.7
		c-9.5-0.3-18.7,0.4-27.5,2c0,0,0,0,0,0c-0.1,0-0.1,0-0.2,0c-0.4,0.1-0.6,0.1-0.9,0.1v-8.5c0.3-0.2,0.9-0.6,1.8-0.8
		c6-1.2,12.4-1.8,19.1-2c1.4,0,2.5-1.2,2.5-2.7s-1.2-2.6-2.6-2.5c-7,0.2-13.7,0.9-19.9,2.1C153.7,166.1,153.4,166.1,153.1,166.1z"/>
</g>
<g>
	<path fill="#D1EF20" d="M172.9,253.5c0,1.8,1.1,3.4,2.7,4.1l0.5,8.8h2.4l0.5-8.8c1.6-0.7,2.7-2.2,2.7-4.1c0-1.6-0.9-3-2.2-3.8
		l1-9.5h-6.3l1,9.5C173.8,250.5,172.9,251.9,172.9,253.5z"/>
	<path fill="#D1EF20" d="M168.5,225.4v1.6h-13.8c-2.4,0-4.4,2-4.4,4.4V354h-1.5v5.1h1.5h54.3h1.5V354h-1.5V231.4
		c0-2.4-2-4.4-4.4-4.4h-13.8v-1.6L168.5,225.4z M156.4,235.6c0-1.4,1.2-2.6,2.6-2.6h36.7c1.4,0,2.6,1.2,2.6,2.6v49.7h-41.9V235.6z"
		/>
</g>
<line fill="none" stroke="#FFFFFF" stroke-width="3" stroke-miterlimit="10" x1="145" y1="352.5" x2="210" y2="352.5"/>
<path fill="none" stroke="#3A3E43" stroke-width="14.08" stroke-linecap="round" stroke-miterlimit="10" d="M130.7,283
	c9.1-42.2,18.3-46.7,44.9-40.7"/>
<circle fill="#3A3E43" cx="164.7" cy="273.2" r="17.3"/>
<path fill="#3A3E43" d="M77.2,302.3L77.2,302.3c-2.5-7.5,1.6-15.7,9.1-18.2l38.3-12.7c7.5-2.5,15.7,1.6,18.2,9.1v0
	c2.5,7.5-1.6,15.7-9.1,18.2l-38.3,12.7C87.9,313.9,79.7,309.8,77.2,302.3z"/>
<circle fill="#3A3E43" cx="90.9" cy="297.7" r="14.4"/>
<circle fill="#3A3E43" cx="129.1" cy="285" r="14.4"/>
<line fill="none" stroke="#3A3E43" stroke-width="17.28" stroke-linecap="round" stroke-miterlimit="10" x1="86.1" y1="379.2" x2="86.1" y2="297.7"/>
<line fill="none" stroke="#3A3E43" stroke-width="17.28" stroke-linecap="round" stroke-miterlimit="10" x1="94.7" y1="297.7" x2="94.7" y2="371"/>
<line fill="none" stroke="#3A3E43" stroke-width="14" stroke-linecap="round" stroke-miterlimit="10" x1="135" y1="283" x2="135" y2="345"/>
<path fill="#D1EF20" d="M175.5,215c-0.5-2-2.3-4.7-5.2-6.3c-0.3-0.2-0.6-0.2-0.8-0.3c-5.4-1.9-8.9-3.3-10.9-4.7
	c-0.9-0.6-1.4-1.2-1.7-1.8c6.6-1.2,13.5-1.7,20.5-1.7c7,0,13.9,0.6,20.5,1.7c-0.3,0.6-0.8,1.2-1.7,1.8c-2.1,1.4-5.6,2.8-11,4.8
	l-0.1,0c-0.2,0.1-0.4,0-0.8,0.2c-2.9,1.5-4.6,4.2-5.1,6.2H175.5z"/>
<path fill="#FFFFFF" d="M156.5,203.9c1.8-1.2,4-1.8,6.1-1.6c1.2,0.1,2.3,0.5,3.5,0.7c2.8,0.6,5.7,0.6,8.6,0c2.2-0.5,4.3-1.3,6.5-1.8
	c4.3-0.9,8.8-0.5,12.9,1c1.6,0.6,3.3,1.4,4.9,0.9l0.1-0.1v-1.8c-4-0.6-7.8-1.3-11.7-1.9c-1.9-0.3-3.7,0-5.5,0.1
	c-2,0.1-3.9,0.3-5.9,0.4c-5.7,0.4-11.5,0.5-17.2,1.1c-1.1,0.1-2.1,0.3-3.2,0.7L156.5,203.9z"/>
<circle fill="#FFFFFF" cx="176.1" cy="210.8" r="0.7"/>
<circle fill="#FFFFFF" cx="175.8" cy="202.8" r="2"/>
<circle fill="#FFFFFF" cx="182.1" cy="206.2" r="0.9"/>
</svg>
