<?xml version="1.0" encoding="utf-8"?>
<!-- Generator: Adobe Illustrator 16.0.4, SVG Export Plug-In . SVG Version: 6.00 Build 0)  -->
<!DOCTYPE svg PUBLIC "-//W3C//DTD SVG 1.1//EN" "http://www.w3.org/Graphics/SVG/1.1/DTD/svg11.dtd">
<svg version="1.1" id="Layer_1" xmlns="http://www.w3.org/2000/svg" xmlns:xlink="http://www.w3.org/1999/xlink" x="0px" y="0px"
	 width="7776px" height="2592px" viewBox="0 0 7776 2592" enable-background="new 0 0 7776 2592" xml:space="preserve">
<g>
	<defs>
		<rect id="SVGID_1_" width="7776" height="2592"/>
	</defs>
	<clipPath id="SVGID_2_">
		<use xlink:href="#SVGID_1_"  overflow="visible"/>
	</clipPath>
	<g clip-path="url(#SVGID_2_)">
		<path fill="#FFFFFF" d="M861.336,2283.457h-47.555l-19.789-61.28c-6.703-21.065-12.767-42.13-15.639-64.152
			c-3.512,20.745-8.299,40.854-14.363,60.642l-19.788,64.791h-46.918l-53.62-157.988h43.088l18.512,56.812
			c7.341,22.661,13.725,45.642,17.234,69.26c2.873-21.064,7.979-41.811,14.044-62.237l18.831-63.834h47.236l22.342,71.175
			c5.426,17.554,10.533,35.747,13.086,54.259c2.554-18.512,7.021-37.024,12.129-54.897l20.427-70.536h39.577L861.336,2283.457z"/>
		<path fill="#FFFFFF" d="M1173.8,2283.457h-47.556l-19.789-61.28c-6.702-21.065-12.766-42.13-15.639-64.152
			c-3.511,20.745-8.299,40.854-14.363,60.642l-19.787,64.791h-46.918l-53.621-157.988h43.088l18.512,56.812
			c7.342,22.661,13.725,45.642,17.235,69.26c2.872-21.064,7.979-41.811,14.044-62.237l18.83-63.834h47.237l22.342,71.175
			c5.426,17.554,10.532,35.747,13.086,54.259c2.554-18.512,7.021-37.024,12.128-54.897l20.427-70.536h39.577L1173.8,2283.457z"/>
		<path fill="#FFFFFF" d="M1486.264,2283.457h-47.557l-19.788-61.28c-6.702-21.065-12.767-42.13-15.64-64.152
			c-3.51,20.745-8.298,40.854-14.362,60.642l-19.788,64.791h-46.918l-53.62-157.988h43.088l18.512,56.812
			c7.341,22.661,13.724,45.642,17.235,69.26c2.872-21.064,7.979-41.811,14.043-62.237l18.831-63.834h47.237l22.342,71.175
			c5.426,17.554,10.531,35.747,13.086,54.259c2.553-18.512,7.021-37.024,12.128-54.897l20.427-70.536h39.576L1486.264,2283.457z"/>
		<path fill="#FFFFFF" d="M1642.654,2283.457h-43.408v-41.811h43.408V2283.457z"/>
		<path fill="#FFFFFF" d="M1822.664,2283.457l-28.725-47.875c-2.234-3.83-4.469-7.341-6.702-11.171
			c-1.597,4.149-4.469,8.298-7.022,12.128l-28.725,46.918h-45.002l54.896-82.026l-49.791-75.962h48.195l26.172,42.449
			c1.914,3.191,4.148,6.384,5.744,9.575c2.234-4.149,4.469-7.979,6.703-11.81l24.256-40.215h43.088l-47.875,75.962l53.939,82.026
			H1822.664z"/>
		<path fill="#FFFFFF" d="M1975.225,2149.406c10.531-16.916,29.043-26.491,48.832-26.491c21.703,0,35.747,8.938,44.684,28.087
			c10.532-17.873,29.363-28.087,50.109-28.087c43.406,0,50.109,33.832,50.109,68.94v91.602h-40.854v-76.601v-6.383
			c0-18.193-1.277-43.727-23.938-43.727c-27.768,0-30.96,33.193-30.96,53.62v73.09h-40.853v-81.068v-11.171
			c0-15.001-4.788-34.471-23.619-34.471c-25.214,0-31.278,27.768-31.278,47.557v79.153h-40.854v-119.369
			c0-12.767-0.319-25.853-1.276-38.619h38.938L1975.225,2149.406z"/>
		<path fill="#FFFFFF" d="M2343.863,2283.457l-0.639-23.618c-10.213,17.554-29.363,26.172-49.152,26.172
			c-30.64,0-54.896-15.959-54.896-49.152c0-44.045,45.002-51.386,79.792-51.386c7.341,0,15.001,0.638,22.342,0.957
			c0-23.618-11.171-34.789-35.108-34.789c-17.555,0-35.428,6.702-48.833,17.235l-1.277-35.428
			c17.235-7.341,36.066-10.852,54.897-10.852c20.746,0,44.684,5.106,57.77,22.979c8.937,12.448,9.895,29.363,9.895,45.003
			c0,30.959,0,61.919,1.596,92.878H2343.863z M2337.16,2211.325h-5.106c-19.788,0-52.344,0.957-52.344,26.491
			c0,13.086,12.128,20.427,24.576,20.427c26.491,0,37.661-23.619,37.661-46.599
			C2340.352,2211.325,2338.756,2211.325,2337.16,2211.325z"/>
		<path fill="#FFFFFF" d="M2454.932,2244.838c12.448,6.383,26.172,11.171,40.216,11.171c10.852,0,28.087-4.149,28.087-17.874
			c0-24.257-70.855-15.001-70.855-67.344c0-35.747,36.704-48.194,66.706-48.194c13.086,0,26.172,2.553,38.938,6.063l-2.873,30.641
			c-10.852-3.511-22.342-6.064-33.512-6.064c-10.214,0-28.726,2.554-28.726,15.959c0,24.256,71.493,11.489,71.493,66.706
			c0,36.065-34.15,50.428-65.429,50.428c-15.64,0-30.96-3.191-45.96-7.021L2454.932,2244.838z"/>
		<path fill="#FFFFFF" d="M2746.331,2278.67c-12.128,3.511-24.257,6.063-36.704,6.063c-49.791,0-81.389-30.959-81.389-81.068
			c0-47.237,32.556-79.473,79.793-79.473c12.128,0,23.618,1.915,34.789,5.106l-3.191,32.874c-8.299-3.191-16.277-5.426-25.215-5.426
			c-26.491,0-43.726,21.065-43.726,46.599c0,28.087,17.554,47.237,45.96,47.237c9.894,0,18.831-2.554,27.448-6.384L2746.331,2278.67
			z"/>
		<path fill="#FFFFFF" d="M2813.676,2096.744v-38.62h42.131v38.62H2813.676z M2814.314,2283.457v-157.988h40.854v157.988H2814.314z"
			/>
		<path fill="#FFFFFF" d="M3026.241,2281.542c-9.255,1.915-18.192,3.191-27.448,3.191c-41.811,0-52.981-24.257-52.981-61.918
			v-66.068h-29.683v-30.32h30.32v-32.236l40.854-13.405v45.642h36.066v30.32h-36.066v57.45c0,18.193,0,37.662,23.619,37.662
			c4.787,0,9.256-0.957,14.043-2.234L3026.241,2281.542z"/>
		<path fill="#FFFFFF" d="M3089.753,2315.055c5.745,2.234,11.171,3.511,17.235,3.511c18.192,0,25.533-12.128,31.598-27.129
			l-62.238-166.287h45.322l32.555,96.389c2.234,7.022,4.469,14.363,6.703,21.385c2.554-8.937,4.787-17.555,7.66-26.172
			l30.641-91.602h41.491l-62.876,169.159c-11.171,30.321-25.854,55.854-62.237,55.854c-9.896,0-19.151-1.915-28.726-4.149
			L3089.753,2315.055z"/>
		<path fill="#FFFFFF" d="M3347.96,2283.457h-43.407v-41.811h43.407V2283.457z"/>
		<path fill="#FFFFFF" d="M3538.184,2278.67c-12.128,3.511-24.257,6.063-36.703,6.063c-49.791,0-81.389-30.959-81.389-81.068
			c0-47.237,32.556-79.473,79.792-79.473c12.128,0,23.618,1.915,34.789,5.106l-3.191,32.874c-8.298-3.191-16.277-5.426-25.214-5.426
			c-26.491,0-43.727,21.065-43.727,46.599c0,28.087,17.555,47.237,45.961,47.237c9.894,0,18.83-2.554,27.448-6.384L3538.184,2278.67
			z"/>
		<path fill="#FFFFFF" d="M3678.938,2287.606c-49.79,0-81.707-34.471-81.707-83.941c0-48.833,32.874-82.346,82.025-82.346
			c49.791,0,82.026,35.747,82.026,84.58C3761.283,2254.731,3728.09,2287.606,3678.938,2287.606z M3679.257,2151.641
			c-27.129,0-39.576,28.406-39.576,52.024c0,24.896,10.852,53.62,40.216,53.62c27.447,0,38.938-29.044,38.938-52.344
			C3718.834,2180.685,3707.664,2151.641,3679.257,2151.641z"/>
		<path fill="#FFFFFF" d="M3873.629,2149.406c10.531-16.916,29.044-26.491,48.832-26.491c21.703,0,35.747,8.938,44.684,28.087
			c10.532-17.873,29.363-28.087,50.109-28.087c43.407,0,50.109,33.832,50.109,68.94v91.602h-40.854v-76.601v-6.383
			c0-18.193-1.276-43.727-23.938-43.727c-27.768,0-30.959,33.193-30.959,53.62v73.09h-40.854v-81.068v-11.171
			c0-15.001-4.788-34.471-23.619-34.471c-25.214,0-31.278,27.768-31.278,47.557v79.153h-40.854v-119.369
			c0-12.767-0.319-25.853-1.276-38.619h38.938L3873.629,2149.406z"/>
		<path fill="#FFFFFF" d="M4956.568,2109.191c-11.171-5.426-22.661-8.618-35.108-8.618c-38.938,0-49.79,30.96-52.024,64.153
			c10.532-15.001,24.257-20.746,42.769-20.746c40.214,0,60.961,34.789,60.961,71.494c0,44.364-26.81,71.493-71.174,71.493
			c-58.728,0-74.366-46.279-74.366-96.708c0-62.237,14.682-122.88,89.048-122.88c15.639,0,30.32,3.192,45.321,7.341
			L4956.568,2109.191z M4900.076,2176.854c-20.108,0-28.087,20.108-28.087,37.343c0,18.193,8.617,40.854,29.683,40.854
			c20.426,0,28.405-21.703,28.405-38.938C4930.077,2197.601,4921.141,2176.854,4900.076,2176.854z"/>
		<path fill="#FFFFFF" d="M5101.789,2283.457v-165.968l-36.065,30.641l-22.022-28.087l63.514-49.471h37.343v212.885H5101.789z"/>
		<path fill="#FFFFFF" d="M5376.911,2258.881c-12.447,18.192-34.151,28.087-55.854,28.087c-61.919,0-74.366-59.685-74.366-109.475
			c0-49.151,13.086-110.113,74.366-110.113c61.279,0,74.047,60.962,74.047,110.113
			C5395.104,2205.261,5393.188,2235.263,5376.911,2258.881z M5321.057,2099.297c-30.959,0-31.278,56.812-31.278,79.154
			c0,21.703,0.319,76.6,31.278,76.6c30.321,0,30.959-52.662,30.959-75.323v-2.554
			C5352.016,2155.79,5351.378,2099.297,5321.057,2099.297z"/>
		<path fill="#FFFFFF" d="M5510.642,2283.457h-43.407v-41.811h43.407V2283.457z"/>
		<path fill="#FFFFFF" d="M5730.867,2224.73c0,42.449-34.788,62.237-73.408,62.237c-36.704,0-75.324-18.192-75.324-60.004
			c0-25.853,14.044-48.513,40.215-54.577c-22.341-6.384-36.385-25.533-36.385-48.833c0-39.577,35.429-56.174,70.217-56.174
			c33.514,0,68.621,14.044,68.621,52.663c0,23.299-14.681,41.492-36.064,48.514
			C5715.548,2175.897,5730.867,2196.644,5730.867,2224.73z M5625.224,2224.73c0,18.192,14.042,31.278,32.235,31.278
			c17.875,0,30.321-11.49,30.321-29.683c0-22.022-17.235-30.321-35.429-36.704
			C5637.352,2196.644,5625.224,2206.856,5625.224,2224.73z M5683.95,2124.192c0-16.597-12.448-26.491-27.448-26.491
			c-14.682,0-29.043,9.575-29.043,25.214c0,19.15,18.191,26.811,32.873,32.875C5672.779,2149.087,5683.95,2139.831,5683.95,2124.192
			z"/>
		<path fill="#FFFFFF" d="M5924.604,2109.191c-11.171-5.426-22.661-8.618-35.108-8.618c-38.938,0-49.79,30.96-52.024,64.153
			c10.531-15.001,24.257-20.746,42.769-20.746c40.214,0,60.96,34.789,60.96,71.494c0,44.364-26.809,71.493-71.173,71.493
			c-58.728,0-74.366-46.279-74.366-96.708c0-62.237,14.682-122.88,89.049-122.88c15.638,0,30.319,3.192,45.32,7.341
			L5924.604,2109.191z M5868.111,2176.854c-20.109,0-28.087,20.108-28.087,37.343c0,18.193,8.617,40.854,29.683,40.854
			c20.426,0,28.405-21.703,28.405-38.938C5898.112,2197.601,5889.176,2176.854,5868.111,2176.854z"/>
		<path fill="#FFFFFF" d="M6152.489,2224.73c0,42.449-34.79,62.237-73.409,62.237c-36.703,0-75.323-18.192-75.323-60.004
			c0-25.853,14.043-48.513,40.215-54.577c-22.342-6.384-36.386-25.533-36.386-48.833c0-39.577,35.428-56.174,70.217-56.174
			c33.514,0,68.622,14.044,68.622,52.663c0,23.299-14.682,41.492-36.065,48.514
			C6137.168,2175.897,6152.489,2196.644,6152.489,2224.73z M6046.845,2224.73c0,18.192,14.042,31.278,32.235,31.278
			c17.873,0,30.321-11.49,30.321-29.683c0-22.022-17.235-30.321-35.428-36.704
			C6058.973,2196.644,6046.845,2206.856,6046.845,2224.73z M6105.571,2124.192c0-16.597-12.446-26.491-27.448-26.491
			c-14.682,0-29.044,9.575-29.044,25.214c0,19.15,18.192,26.811,32.874,32.875C6094.4,2149.087,6105.571,2139.831,6105.571,2124.192
			z"/>
		<path fill="#FFFFFF" d="M6267.709,2283.457h-43.408v-41.811h43.408V2283.457z"/>
		<path fill="#FFFFFF" d="M6351.011,2241.327c13.724,6.702,28.405,10.852,43.726,10.852c22.661,0,45.322-9.575,45.322-35.747
			c0-26.81-25.215-37.023-48.194-37.023c-13.405,0-25.853,2.554-38.619,6.064l1.915-113.624h123.518v33.193h-82.983l-1.276,42.13
			c5.106-0.318,10.213-0.638,15-0.638c42.449,0,76.281,23.618,76.281,68.621c0,49.79-39.896,71.812-85.218,71.812
			c-15.639,0-35.429-1.596-50.429-6.702L6351.011,2241.327z"/>
		<path fill="#FFFFFF" d="M6699.223,2224.73c0,42.449-34.789,62.237-73.409,62.237c-36.704,0-75.323-18.192-75.323-60.004
			c0-25.853,14.043-48.513,40.215-54.577c-22.342-6.384-36.385-25.533-36.385-48.833c0-39.577,35.428-56.174,70.217-56.174
			c33.512,0,68.621,14.044,68.621,52.663c0,23.299-14.682,41.492-36.065,48.514
			C6683.902,2175.897,6699.223,2196.644,6699.223,2224.73z M6593.578,2224.73c0,18.192,14.043,31.278,32.235,31.278
			c17.874,0,30.321-11.49,30.321-29.683c0-22.022-17.236-30.321-35.428-36.704
			C6605.706,2196.644,6593.578,2206.856,6593.578,2224.73z M6652.305,2124.192c0-16.597-12.447-26.491-27.448-26.491
			c-14.682,0-29.044,9.575-29.044,25.214c0,19.15,18.191,26.811,32.873,32.875
			C6641.133,2149.087,6652.305,2139.831,6652.305,2124.192z"/>
		<path fill="#FFFFFF" d="M6915.618,2240.369h-27.448v43.088h-42.769v-43.088h-90.964v-36.065l79.154-133.731h54.578v137.242h27.448
			V2240.369z M6847.316,2119.086c0-4.788,0.638-9.895,1.596-14.683c-1.596,4.149-2.873,8.618-5.107,12.448l-50.428,90.963h52.981
			L6847.316,2119.086z"/>
		<path fill="#FFFFFF" d="M7126.268,2240.369h-27.449v43.088h-42.768v-43.088h-90.963v-36.065l79.153-133.731h54.577v137.242h27.449
			V2240.369z M7057.965,2119.086c0-4.788,0.639-9.895,1.597-14.683c-1.597,4.149-2.873,8.618-5.107,12.448l-50.428,90.963h52.981
			L7057.965,2119.086z"/>
	</g>
</g>
<g>
	<defs>
		<rect id="SVGID_3_" y="130.437" width="7776" height="1819.373"/>
	</defs>
	<clipPath id="SVGID_4_">
		<use xlink:href="#SVGID_3_"  overflow="visible"/>
	</clipPath>
	<path clip-path="url(#SVGID_4_)" fill="#FFFFFF" d="M924.922,358.037c-73.605,24.136-389.737,143.508-318.275,361.331l0.691-0.214
		l146.997,449.299c-71.414-217.752,46.823-452.302,264.614-523.734"/>
	<path clip-path="url(#SVGID_4_)" fill="#221F1F" d="M928.368,368.578c-64.075,20.99-380.302,136.574-311.199,347.297
		c0.429-0.119,61.858,186.969,105.321,319.659c0.43-64.999,15.727-129.522,45.941-189.185
		c51.326-101.406,139.039-176.746,247.053-212.224l6.935,21.11C920.052,688.784,836.891,760.24,788.281,856.357
		c-29.047,57.446-43.773,119.515-43.773,182.131c0,42.364,6.744,85.037,20.373,126.52h-0.023l-21.064,6.91L596.771,722.57
		c-76.37-230.547,257.061-352.896,324.662-375.127L928.368,368.578z"/>
	<path clip-path="url(#SVGID_4_)" fill="#FFFFFF" d="M1018.944,644.712c217.839-71.456,452.001,47.463,523.463,265.286
		l-147.736-449.133l0.715-0.214c-71.438-217.8-395.552-127.187-470.468-102.622"/>
	<path clip-path="url(#SVGID_4_)" fill="#221F1F" d="M1304.759,338.072c49.396,24.994,83.424,65.07,101.176,119.157
		c0,2.406,146.997,449.323,146.997,449.323l-21.088,6.887c-69.436-211.771-297.998-327.57-509.428-258.187l-6.934-21.134
		c177.926-58.305,367.314,7.648,473.875,150.061c-43.152-131.143-105.227-319.85-105.227-319.85
		c-15.131-48.439-45.393-84.203-89.403-106.458c-124.98-63.235-327.116-2.192-366.362,10.698l-6.934-21.11
		C978.619,328.732,1175.299,272.572,1304.759,338.072"/>
	<path clip-path="url(#SVGID_4_)" fill="#FFFFFF" d="M1371.902,1720.625c-73.605,24.112-399.03,115.13-470.468-102.622l0.69-0.214
		L754.39,1168.656c71.462,217.799,305.647,336.694,523.438,265.357"/>
	<path clip-path="url(#SVGID_4_)" fill="#221F1F" d="M764.932,1165.175c69.508,211.676,297.998,327.545,509.428,258.233
		l6.981,21.062c-177.975,58.352-367.315-7.624-473.899-150.036c43.105,131.142,105.227,319.85,105.227,319.85
		c15.083,48.392,45.346,84.013,89.285,106.243c125.266,63.379,327.259,2.43,366.504-10.46l6.887,21.086
		c-57.141,18.752-253.653,74.792-383.398,9.149c-49.35-24.946-83.376-64.928-101.057-118.895
		c0.023-2.335-146.975-449.324-146.975-449.324l21.041-6.909H764.932z"/>
	<path clip-path="url(#SVGID_4_)" fill="#FFFFFF" d="M1277.836,1434.007c217.814-71.528,336.075-306.03,264.566-523.83
		l147.093,449.323l0.69-0.214c71.438,217.8-243.406,336.767-318.275,361.331"/>
</g>
<g>
	<defs>
		<rect id="SVGID_5_" x="435.684" y="213.25" width="6904.64" height="1626.461"/>
	</defs>
	<clipPath id="SVGID_6_">
		<use xlink:href="#SVGID_5_"  overflow="visible"/>
	</clipPath>
	<path clip-path="url(#SVGID_6_)" fill="#221F1F" d="M1552.968,906.736L1552.968,906.736l147.021,449.323
		c76.441,230.643-257.014,352.897-324.639,375.104l-6.862-21.134c64.074-21.016,380.277-136.551,311.104-347.274
		c-0.404,0.144-61.787-186.92-105.298-319.658c-0.429,65.022-15.751,129.498-45.917,189.136
		c-51.326,101.454-139.062,176.842-247.029,212.248l-6.981-21.062c102.438-33.572,185.599-105.052,234.209-201.169
		c29.023-57.422,43.726-119.467,43.726-182.012c0-42.459-6.791-85.085-20.397-126.615L1552.968,906.736z"/>
	<path clip-path="url(#SVGID_6_)" fill="#221F1F" d="M1862.423,803.262c1.858,5.79-1.335,12.057-7.148,13.963L450.208,1276.508
		c-5.791,1.977-12.057-1.216-13.987-7.053c-1.883-5.814,1.311-12.08,7.101-14.011l1405.091-459.282
		C1854.25,794.256,1860.469,797.377,1862.423,803.262"/>
	<path clip-path="url(#SVGID_6_)" fill="#221F1F" d="M887.795,220.859l526.274,1604.321c1.858,5.79-1.311,12.032-7.077,13.963
		c-5.861,1.906-12.129-1.263-14.011-7.053L866.755,227.816c-1.906-5.813,1.239-12.056,7.053-13.986
		C879.622,211.877,885.889,215.021,887.795,220.859"/>
</g>
<g>
	<defs>
		<rect id="SVGID_7_" y="130.437" width="7776" height="1819.373"/>
	</defs>
	<clipPath id="SVGID_8_">
		<use xlink:href="#SVGID_7_"  overflow="visible"/>
	</clipPath>
	<path clip-path="url(#SVGID_8_)" fill="#FFFFFF" d="M2464.857,548.697l1.954,189.898l-7.863,0.024
		c-33.741-123.66-84.425-184.681-153.408-184.489c-86.782,0.189-132.08,89.922-131.651,257.78
		c0.405,147.177,42.581,213.964,134.345,213.726c90.286-0.191,145.592-60.83,151.716-166.12l12.104-0.048
		c-3.407,49.822-7.625,69.002-23.924,97.57c-28.999,51.942-80.183,79.819-144.21,79.986
		c-123.025,0.286-225.012-109.627-225.345-242.675c-0.382-132.262,105.298-249.918,224.797-250.204
		c36.981-0.095,60.477,7.696,101.795,33.906c10.699,7.791,15.68,9.173,21.398,9.125c12.104,0,19.896-9.244,31.167-39.146
		L2464.857,548.697z"/>
	<path clip-path="url(#SVGID_8_)" fill="#FFFFFF" d="M2668.318,797.503c16.228-42.03,25.497-58.352,46.037-77.627
		c24.829-22.802,58.951-36.431,93.789-36.503c32.025-0.071,63.359,11.938,80.492,30.332c18.538,20.633,21.397,34.096,21.564,95.282
		l0.405,150.775c0.119,44.079,10.771,54.015,64.86,58.876v7.076l-206.949,0.524v-7.101c51.159-5.075,61.811-15.082,61.715-59.877
		l-0.404-150.131c-0.215-88.111-7.411-102.336-49.325-102.24c-37.744,0.071-71.08,25.78-91.62,69.955
		c-16.228,35.597-19.754,62.64-19.539,134.43l0.166,48.393c0.072,46.962,7.936,54.753,63.432,59.59v7.124l-210.523,0.501v-7.077
		c56.163-5.837,66.052-14.392,65.933-59.233l-0.882-338.528c-0.119-52.61-5.123-58.305-65.6-61.735l-0.047-7.744h3.621
		c44.083-0.881,101.652-4.551,137.229-8.959l4.979-0.69L2668.318,797.503z"/>
	<path clip-path="url(#SVGID_8_)" fill="#FFFFFF" d="M3172.021,773.188c10.628-31.999,16.989-44.103,31.168-59.828
		c18.467-19.943,44.011-31.355,70.365-31.451c39.078-0.096,67.625,24.66,67.72,57.422c0.048,27.043-20.563,47.701-46.107,47.749
		c-24.9,0.095-42.772-17.655-42.82-41.815c0-10.675,0.691-13.51,11.343-25.639c1.43-2.168,2.097-4.265,2.073-5.693
		c0-4.289-6.387-7.816-14.226-7.792c-27.021,0.071-51.851,22.159-63.884,56.351c-10.557,31.284-14.06,59.805-13.916,112.391
		l0.238,83.941c0.119,44.842,10.817,53.275,69.865,58.852v7.124l-216.935,0.596v-7.148c56.188-5.837,66.076-14.392,65.981-59.209
		l-0.501-197.69c-0.119-51.966-5.861-57.612-69.889-61.711v-7.147h6.386c16.395-0.048,41.247-1.501,75.369-3.05
		c27.761-1.478,47.657-2.217,60.501-3.717c2.12,0,4.241-0.691,7.054-0.691L3172.021,773.188z"/>
	<path clip-path="url(#SVGID_8_)" fill="#FFFFFF" d="M3549.2,683.888l0.739,273.745c0.118,44.865,10.103,53.324,66.338,58.875v7.148
		l-213.407,0.524v-7.101c56.188-5.838,66.101-14.439,66.005-59.209l-0.524-197.714c-0.119-51.919-5.147-57.565-65.576-61.688
		l-0.023-7.147h3.526c17.752-0.072,43.415-1.525,75.394-3.026c26.307-1.501,46.918-3.026,61.835-3.741L3549.2,683.888z
		 M3558.922,586.389c0.096,23.445-21.183,42.697-46.822,42.793c-26.33,0.048-46.99-19.109-47.037-42.53
		c-0.096-23.541,20.469-42.745,46.822-42.816C3538.168,543.764,3558.875,562.896,3558.922,586.389"/>
	<path clip-path="url(#SVGID_8_)" fill="#FFFFFF" d="M3941.368,684.7l0.31,118.109h-7.815
		c-14.44-70.456-57.903-112.938-115.521-112.796c-39.149,0.096-70.412,22.969-70.317,51.371
		c0.119,28.473,15.083,38.408,97.625,65.189c50.564,16.201,59.786,19.752,77.585,30.379c27.094,15.606,43.559,45.438,43.559,78.127
		c0.238,64.714-60.071,116.775-135.488,116.966c-27.736,0.095-59.737-8.34-82.541-21.825c-14.25-9.245-22.805-14.105-25.64-15.559
		c-2.169-1.43-4.289-2.121-7.148-2.098c-7.816,0-15.607,12.128-23.376,37.027h-7.792l-0.405-147.201h7.816
		c27.307,93.091,72.915,139.887,136.918,139.743c43.367-0.119,79.587-30.808,79.443-65.618c0-32.738-18.562-47.654-86.188-69.527
		c-46.251-14.104-56.926-18.322-74.059-26.805c-31.286-16.273-49.182-43.27-49.253-73.147
		c-0.119-59.042,53.09-106.815,120.644-106.981c29.142-0.096,51.207,6.219,81.826,23.254c5.672,2.836,9.961,4.242,13.535,4.193
		c6.41,0,12.819-7.814,18.443-22.802H3941.368z"/>
	<path clip-path="url(#SVGID_8_)" fill="#FFFFFF" d="M4167.596,540.226l0.429,148.654l104.536-0.31v11.365l-104.512,0.262
		l0.571,228.355c0.167,66.81,9.46,83.154,45.774,83.107c44.082-0.191,63.193-31.499,65.838-108.316l0.668-7.791l10.723-0.048v7.124
		c0.094,39.791-5.505,66.834-18.277,87.491c-15.56,25.686-48.252,40.673-85.996,40.72c-37.673,0.144-72.558-14.701-86.116-38.122
		c-12.177-19.157-12.915-26.996-13.081-98.833l-0.525-193.449l-66.146,0.167v-10.65c41.246-1.573,73.225-14.368,91.644-38.671
		c18.419-22.778,26.878-54.062,31.716-110.984L4167.596,540.226z"/>
	<path clip-path="url(#SVGID_8_)" fill="#FFFFFF" d="M4496.618,793.736c13.344-39.838,21.898-54.754,40.317-74.029
		c24.83-27.115,59-42.126,95.195-42.197c35.575-0.119,66.957,14.725,81.135,38.218c10.795,17.703,14.369,29.783,19.444,71.718
		c11.271-36.955,19.11-51.227,39.627-71.885c26.378-26.424,54.662-38.575,93.146-38.67c37.672-0.096,68.268,11.913,84.709,33.904
		c14.917,19.872,17.801,31.237,17.967,82.441l0.406,160.02c0.119,44.794,10.104,53.324,66.314,58.875v7.125l-209.143,0.548v-7.101
		c51.207-5.123,61.906-15.13,61.764-59.924l-0.453-162.903c-0.167-76.055-7.316-89.588-47.156-89.445
		c-43.392,0.096-78.182,29.354-92.979,76.364c-10.557,32.715-14.012,64.022-13.868,118.752l0.143,57.613
		c0.048,44.818,10.794,54.73,63.479,59.614l-0.787,7.077l-204.781,0.548l-0.047-7.101c51.207-5.123,61.834-15.105,61.738-59.924
		l-0.357-153.587l-0.143-36.336c-0.787-44.031-14.393-62.497-47.133-62.401c-38.411,0.119-71.795,26.519-89.38,71.312
		c-14.13,35.669-18.349,65.5-18.157,129.521l0.119,51.895c0.096,44.842,10.818,55.469,62.025,59.662v7.053l-208.403,0.524v-7.101
		c55.425-5.837,65.433-14.391,65.241-59.209l-0.476-197.689c-0.167-52.657-5.124-56.898-66.314-61.664l0.715-7.172h10.698
		c49.062-1.572,110.184-4.551,135.036-7.529L4496.618,793.736z"/>
	<path clip-path="url(#SVGID_8_)" fill="#FFFFFF" d="M5303.711,822.671l-0.215-45.461c-0.143-70.408-15.846-91.732-68.482-91.59
		c-37.029,0.095-70.365,17.274-70.318,36.455c0,3.55,1.43,6.409,2.883,8.506c1.479,0.739,4.957,3.598,11.438,8.53
		c9.174,5.67,13.558,14.915,13.581,26.28c0.072,20.61-18.442,37.718-42.604,37.837c-24.21,0.023-42.748-17.68-42.748-41.887
		c-0.238-49.084,56.64-84.775,134.106-84.967c41.984-0.119,80.469,9.031,105.369,26.066c27.093,17.68,37.84,43.222,37.936,90.947
		l0.452,172.076c0.048,31.26,5.075,41.244,20.016,41.172c24.878-0.071,36.935-24.279,38.245-75.459l9.912-0.023
		c0.191,67.549-22.471,96.045-76.537,96.188c-54.019,0.144-71.914-21.158-73.463-85.848c-12.057,27.759-19.158,38.457-34.003,52.682
		c-22.732,22.135-53.995,33.596-86.735,33.667c-54.758,0.143-91.811-31.07-91.906-78.676
		c-0.215-52.681,46.703-89.755,137.681-109.174l64.671-14.392L5303.711,822.671z M5303.711,831.939
		c-56.902,10.103-83.138,20.158-101.605,40.815c-16.346,16.393-23.375,37.789-23.375,67.668
		c0.19,40.528,15.154,63.927,40.746,63.831c22.066,0,46.941-15.701,62.502-40.672c17.729-27.066,22.018-47.701,21.779-109.579
		L5303.711,831.939z"/>
	<path clip-path="url(#SVGID_8_)" fill="#FFFFFF" d="M5767.412,678.978l0.333,118.085l-7.792,0.023
		c-14.464-70.336-57.927-112.914-115.544-112.771c-39.149,0.096-70.365,22.945-70.222,51.395c0,28.449,14.988,38.337,97.576,65.166
		c50.493,16.226,59.715,19.729,77.539,30.379c27.092,15.582,43.51,45.365,43.701,78.151
		c0.094,64.713-60.215,116.774-135.656,116.989c-27.713,0.023-59.713-8.411-82.494-21.85c-14.297-9.244-22.803-14.177-25.639-15.582
		c-2.168-1.383-4.361-2.145-7.172-2.145c-7.793,0.047-15.632,12.151-23.375,37.098h-7.816l-0.357-147.249h7.815
		c27.259,93.114,72.843,139.91,136.942,139.743c43.367-0.143,79.586-30.76,79.49-65.666c-0.189-32.714-18.609-47.582-86.33-69.455
		c-46.155-14.129-56.854-18.299-74.011-26.828c-31.286-16.273-49.206-43.27-49.253-73.124
		c-0.119-58.995,53.09-106.839,120.69-107.006c29.143-0.048,51.159,6.267,81.779,23.279c5.767,2.763,10.009,4.265,13.487,4.265
		c6.48-0.072,12.844-7.91,18.49-22.85L5767.412,678.978z"/>
	<path clip-path="url(#SVGID_8_)" fill="#FFFFFF" d="M6353.305,535.925l1.906,189.851h-7.816
		c-33.74-123.685-84.424-184.633-153.406-184.466c-86.736,0.19-132.033,89.945-131.557,257.757
		c0.31,147.272,42.533,213.987,134.225,213.749c90.334-0.263,145.615-60.854,151.811-166.12h12.059
		c-3.408,49.75-7.648,69.002-23.924,97.499c-29,51.966-80.207,79.843-144.234,79.986
		c-123.002,0.381-224.987-109.603-225.345-242.604c-0.334-132.286,105.321-249.918,224.821-250.228
		c36.957-0.119,60.5,7.672,101.795,33.834c10.604,7.863,15.631,9.244,21.35,9.197c12.058-0.024,19.826-9.27,31.239-39.171
		L6353.305,535.925z"/>
	<path clip-path="url(#SVGID_8_)" fill="#FFFFFF" d="M6553.059,673.769l0.643,273.816c0.143,44.817,10.199,53.324,66.268,58.876
		l0.047,7.076l-213.336,0.572v-7.101c56.116-5.886,66.029-14.368,65.91-59.21l-0.43-197.761
		c-0.189-51.895-5.17-57.589-65.719-61.688v-7.101h3.646c17.775-0.047,43.367-1.524,75.297-3.073
		c26.426-1.454,46.99-2.979,61.93-3.741L6553.059,673.769z M6562.732,576.27c0.096,23.494-21.184,42.746-46.822,42.793
		c-26.379,0.096-47.014-19.061-47.109-42.482c-0.071-23.541,20.54-42.793,46.871-42.864
		C6542.025,533.691,6562.59,552.801,6562.732,576.27"/>
	<path clip-path="url(#SVGID_8_)" fill="#FFFFFF" d="M6766.895,531.29l0.429,148.583l104.513-0.19v11.341l-104.465,0.238
		l0.5,228.355c0.191,66.881,9.461,83.203,45.703,83.06c44.131-0.095,63.24-31.451,65.91-108.244l0.689-7.815l10.701-0.023v7.1
		c0,39.839-5.578,66.882-18.326,87.539c-15.559,25.639-48.229,40.696-85.877,40.768c-37.744,0.096-72.652-14.748-86.141-38.193
		c-12.151-19.133-12.938-26.973-13.129-98.81L6686.95,691.5l-66.196,0.215v-10.698c41.248-1.524,73.226-14.415,91.645-38.623
		c18.443-22.85,26.855-54.134,31.74-111.056L6766.895,531.29z"/>
	<path clip-path="url(#SVGID_8_)" fill="#FFFFFF" d="M7169.57,948.955l52.256-130.999c15.584-39.862,24.758-72.624,24.711-88.23
		c-0.096-27.758-12.939-38.385-51.422-44.008v-7.053l145.115-0.382l0.094,7.077c-30.595,5.813-51.254,20.801-68.244,47.868
		c-10.604,17.774-19.062,36.312-32.479,70.503l-107.418,273.363c-18.324,46.247-27.641,63.331-43.916,80.511
		c-21.23,20.609-43.939,31.355-70.342,31.451c-39.078,0.095-69.055-26.139-69.055-60.281c-0.143-27.044,20.422-48.416,46.775-48.512
		c23.543-0.048,41.271,17.012,41.318,39.743c0,10.626-3.525,17.798-10.604,25.638c-3.502,3.55-5.6,7.172-5.6,9.268
		c0,5.623,7.793,9.912,17.752,9.912c33.504-0.095,56.855-24.994,79.445-84.155l24.758-64.07l-32.025,0.071l-105.227-267.787
		c-20.755-51.204-28.666-57.613-75.584-61.76v-7.791l203.328-0.5l0.095,7.053c-39.175,2.954-54.733,10.816-54.733,26.447
		c0,4.956,0.762,10.723,3.598,17.084l7.148,17.774L7169.57,948.955z"/>
	<path clip-path="url(#SVGID_8_)" fill="#FFFFFF" d="M2237.675,1414.376l0.405,152.157c0.048,48.701,8.292,54.849,84.543,60.162
		v6.814l-242.859,0.644v-6.791c68.555-5.694,75.417-11.223,75.298-60.567l-0.834-322.994c-0.143-48.702-7.696-54.802-75.583-60.115
		v-6.861l227.561-0.62c63.837-0.119,104.965,7.958,139.325,26.399c33.693,18.419,54.972,53.324,55.139,90.398
		c0.19,76.746-72.414,120.826-199.92,121.184L2237.675,1414.376z M2237.58,1404.082l56.33-0.143
		c82.184-0.262,115.711-31.88,115.496-109.364c-0.167-72.671-33.812-107.506-104.439-107.411
		c-55.616,0.167-67.911,8.436-67.792,46.82L2237.58,1404.082z"/>
	<path clip-path="url(#SVGID_8_)" fill="#FFFFFF" d="M2687.179,1389.61c10.198-30.927,16.299-42.578,29.905-57.661
		c17.871-19.252,42.533-30.307,67.91-30.379c37.673-0.071,65.171,23.851,65.267,55.373c0.023,26.066-19.777,46.01-44.464,46.081
		c-23.972,0.024-41.176-17.083-41.199-40.362c0-10.27,0.691-13.081,10.842-24.708c1.358-2.049,2.073-4.099,2.073-5.528
		c0-4.098-6.195-7.505-13.773-7.481c-26.021,0.071-49.896,21.373-61.524,54.349c-10.199,30.188-13.559,57.59-13.463,108.316
		l0.238,80.963c0.119,43.174,10.437,51.347,67.387,56.684v6.91l-209.118,0.548l-0.096-6.838
		c54.21-5.647,63.765-13.939,63.718-57.113l-0.572-190.637c-0.167-50.036-5.623-55.492-67.291-59.448l-0.072-6.886h6.22
		c15.727-0.048,39.745-1.477,72.677-2.954c26.711-1.406,45.846-2.168,58.284-3.551c1.978,0,4.051-0.69,6.791-0.69L2687.179,1389.61z
		"/>
	<path clip-path="url(#SVGID_8_)" fill="#FFFFFF" d="M3048.304,1303.465l0.619,263.976c0.167,43.198,9.841,51.395,63.932,56.731
		v6.814l-205.663,0.619l-0.048-6.909c54.187-5.647,63.741-13.867,63.646-57.018l-0.5-190.637
		c-0.096-50.084-4.956-55.564-63.193-59.567l-0.071-6.742l3.455-0.072c17.157-0.047,41.724-1.453,72.7-2.931
		c25.354-1.405,45.155-2.858,59.667-3.55L3048.304,1303.465z M3057.597,1209.492c0.119,22.636-20.421,41.173-45.155,41.292
		c-25.354,0-45.227-18.395-45.298-41.006c-0.071-22.707,19.754-41.268,45.107-41.292
		C3037.699,1168.344,3057.597,1186.857,3057.597,1209.492"/>
	<path clip-path="url(#SVGID_8_)" fill="#FFFFFF" d="M3299.169,1414.3c12.938-42.531,22.613-58.304,44.487-78.962
		c23.877-22.659,56.735-35.74,91.001-35.835c32.979-0.167,63.884,12.818,79.61,33.333c14.56,19.181,17.371,34.263,17.467,93.21
		l0.31,139.862c0.144,43.246,9.794,51.418,64.003,56.803v6.814l-200.969,0.549v-6.887c48.658-4.932,58.88-14.582,58.832-57.684
		l-0.452-147.464c-0.19-81.582-7.029-95.95-46.775-95.854c-37.053,0.096-71.962,26.233-87.641,66.763
		c-15.012,38.408-19.039,66.523-18.944,130.975l0.191,45.938c0.096,43.889,10.461,52.8,61.882,57.445v6.862l-203.018,0.477v-6.79
		c53.59-5.623,63.169-13.892,63.002-57.137l-0.477-190.565c-0.19-50.751-4.979-55.564-65.361-59.472v-6.91l8.864-0.023
		c48.682-1.453,105.632-4.36,133.749-7.172L3299.169,1414.3z"/>
	<path clip-path="url(#SVGID_8_)" fill="#FFFFFF" d="M3731.846,1164.605l0.381,143.27l100.89-0.215v10.938l-100.89,0.31
		l0.644,220.087c0.167,64.475,9.126,80.2,44.011,80.033c42.486-0.071,61.072-30.235,63.551-104.289l0.667-7.577l10.222-0.095
		l0.072,6.934c0.143,38.36-5.314,64.403-17.562,84.37c-15.013,24.708-46.562,39.194-82.852,39.313
		c-36.386,0.119-70.008-14.177-83.113-36.812c-11.7-18.514-12.438-26.019-12.63-95.283l-0.429-186.539l-63.788,0.19v-10.27
		c39.746-1.477,70.556-13.914,88.284-37.288c17.871-21.968,26.021-52.204,30.571-107.054L3731.846,1164.605z"/>
	<path clip-path="url(#SVGID_8_)" fill="#FFFFFF" d="M4046.881,1300.069l0.715,263.929c0.143,43.245,9.77,51.418,63.955,56.803v6.79
		l-205.687,0.596v-6.838c54.114-5.647,63.765-13.915,63.574-57.112l-0.524-190.59c-0.119-50.107-4.956-55.564-63.217-59.543
		l-0.023-6.814l3.455-0.048c17.133-0.048,41.771-1.478,72.557-2.883c25.592-1.501,45.37-2.883,59.715-3.622L4046.881,1300.069z
		 M4056.27,1206.073c0.095,22.612-20.445,41.149-45.107,41.244c-25.354,0.119-45.322-18.37-45.322-40.981
		c-0.143-22.66,19.777-41.197,45.06-41.269C4036.253,1164.996,4056.197,1183.486,4056.27,1206.073"/>
	<path clip-path="url(#SVGID_8_)" fill="#FFFFFF" d="M4297.913,1410.926c12.844-42.531,22.47-58.328,44.273-78.962
		c23.972-22.707,56.878-35.788,91.19-35.931c32.859-0.071,63.693,12.914,79.588,33.381c14.439,19.205,17.275,34.287,17.395,93.187
		l0.357,139.935c0.071,43.197,9.698,51.37,63.932,56.755v6.838l-200.873,0.524v-6.838c48.681-4.909,58.903-14.582,58.736-57.756
		l-0.357-147.464c-0.19-81.606-7.077-95.902-46.871-95.831c-37.029,0.072-71.938,26.233-87.545,66.763
		c-15.012,38.433-19.062,66.524-18.967,131.07l0.214,45.843c0.119,43.841,10.39,52.8,61.906,57.47v6.791l-203.042,0.571v-6.814
		c53.328-5.671,63.026-13.938,63.002-57.112l-0.548-190.638c-0.143-50.703-4.933-55.539-65.361-59.471v-6.838l8.937-0.072
		c48.656-1.453,105.654-4.384,133.652-7.172L4297.913,1410.926z"/>
	<path clip-path="url(#SVGID_8_)" fill="#FFFFFF" d="M4753.25,1641.127c-85.687-4.551-110.492-19.514-110.563-66.857
		c-0.12-48.011,30-67.93,105.464-68.836c-35.004-6.79-52.207-13.581-70.055-28.639c-22.041-18.395-34.385-44.438-34.527-71.909
		c-0.048-62.402,64.217-109.174,149.237-109.364c41.128-0.144,69.269,8.696,108.3,33.953
		c-12.343-22.588-16.441-34.931-16.441-50.656c-0.119-30.855,20.35-53.562,48.539-53.609c23.994-0.072,42.58,16.964,42.58,40.338
		c0.049,20.562-14.248,35.645-35.48,35.74c-6.219,0-11.676-2.049-15.821-4.766l-9.603-6.838c-2.074-1.358-4.838-2.74-6.863-2.74
		c-5.457,0.023-10.342,5.504-10.27,11.675c0,8.269,5.576,18.562,19.968,41.102c18.562,27.4,23.472,39.743,23.472,63.021
		c0.189,63.093-61.406,106.481-156.721,109.436l-31.572,0.763c-57.569,2.192-70.58,7.72-70.461,31.761
		c0.072,23.97,19.135,32.166,74.082,31.999l76.037-0.19c50.111-0.119,80.326,6.672,102.986,22.993
		c20.66,15.082,33.718,43.174,33.789,71.956c0.191,75.436-73.725,124.28-188.268,124.614
		c-95.981,0.238-159.842-33.191-159.913-84.609c-0.167-36.312,25.806-59.019,78.682-66.071
		C4716.221,1643.319,4727.206,1641.89,4753.25,1641.127 M4786.896,1647.965c-43.916,0.096-66.482,2.192-85.759,8.436
		c-23.233,6.933-37.603,26.805-37.53,52.18c0.119,49.393,46.061,78.08,124.289,77.89c86.402-0.238,139.921-31.951,139.658-82.012
		c0-23.945-12.986-41.792-35.719-48.559C4871.939,1649.8,4840.295,1647.799,4786.896,1647.965 M4856.928,1404.385
		c-0.334-73.41-16.822-100.119-63.407-99.977c-49.349,0.144-66.434,25.542-66.243,100.263c0.167,71.957,17.441,98.714,63.955,98.595
		C4840.652,1503.146,4857.047,1477.7,4856.928,1404.385"/>
</g>
</svg>
