<?xml version="1.0" encoding="UTF-8" standalone="no"?>
<!-- Created with Inkscape (http://www.inkscape.org/) -->

<svg
   xmlns:dc="http://purl.org/dc/elements/1.1/"
   xmlns:cc="http://creativecommons.org/ns#"
   xmlns:rdf="http://www.w3.org/1999/02/22-rdf-syntax-ns#"
   xmlns:svg="http://www.w3.org/2000/svg"
   xmlns="http://www.w3.org/2000/svg"
   xmlns:sodipodi="http://sodipodi.sourceforge.net/DTD/sodipodi-0.dtd"
   xmlns:inkscape="http://www.inkscape.org/namespaces/inkscape"
   width="4320"
   height="8640"
   id="svg3764"
   version="1.1"
   inkscape:version="0.48.1 r9760"
   sodipodi:docname="chair_final.svg"
   style="display:inline"
   inkscape:export-filename="/Users/mkeeter/grad/classes/MAS.863/big/chair_semifinal2.png"
   inkscape:export-xdpi="30"
   inkscape:export-ydpi="30">
  <defs
     id="defs3766" />
  <sodipodi:namedview
     id="base"
     pagecolor="#ffffff"
     bordercolor="#666666"
     borderopacity="1.0"
     inkscape:pageopacity="0.0"
     inkscape:pageshadow="2"
     inkscape:zoom="0.23409656"
     inkscape:cx="964.28174"
     inkscape:cy="4600.9628"
     inkscape:document-units="in"
     inkscape:current-layer="layer2"
     showgrid="false"
     units="in"
     inkscape:window-width="1440"
     inkscape:window-height="852"
     inkscape:window-x="0"
     inkscape:window-y="0"
     inkscape:window-maximized="1" />
  <metadata
     id="metadata3769">
    <rdf:RDF>
      <cc:Work
         rdf:about="">
        <dc:format>image/svg+xml</dc:format>
        <dc:type
           rdf:resource="http://purl.org/dc/dcmitype/StillImage" />
        <dc:title />
      </cc:Work>
    </rdf:RDF>
  </metadata>
  <g
     inkscape:groupmode="layer"
     id="layer1"
     inkscape:label="Slots and tabs">
    <g
       style="stroke-width:0.89999998;stroke-miterlimit:4;stroke-dasharray:none"
       inkscape:tile-y0="8348.5498"
       inkscape:tile-x0="360"
       id="use3055"
       transform="matrix(0.0259577,0.99966304,-0.99966304,0.0259577,9120.2669,4137.9701)">
      <rect
         style="fill:none;stroke:#000000;stroke-width:0.89999998;stroke-miterlimit:4;stroke-opacity:1;stroke-dasharray:none"
         id="rect3183"
         width="0"
         height="250.9911"
         x="630.72327"
         y="8116.96"
         ry="0" />
    </g>
    <g
       style="stroke-width:0.89999998;stroke-miterlimit:4;stroke-dasharray:none"
       inkscape:tile-y0="8348.5498"
       inkscape:tile-x0="360"
       id="use3057"
       transform="matrix(0.09406123,0.99556641,-0.99556641,0.09406123,9037.1899,3290.5829)">
      <rect
         style="fill:none;stroke:#000000;stroke-width:0.89999998;stroke-miterlimit:4;stroke-opacity:1;stroke-dasharray:none"
         id="rect3189"
         width="0"
         height="250.9911"
         x="630.72327"
         y="8116.96"
         ry="0" />
    </g>
    <g
       style="stroke-width:0.89999998;stroke-miterlimit:4;stroke-dasharray:none"
       inkscape:tile-y0="8348.5498"
       inkscape:tile-x0="360"
       id="use3059"
       transform="matrix(0.43470635,0.90057226,-0.90057226,0.43470635,7999.6165,216.19922)">
      <rect
         style="fill:none;stroke:#000000;stroke-width:0.89999998;stroke-miterlimit:4;stroke-opacity:1;stroke-dasharray:none"
         id="rect3195"
         width="0"
         height="250.9911"
         x="630.72327"
         y="8116.96"
         ry="0" />
    </g>
    <g
       style="stroke-width:0.89999998;stroke-miterlimit:4;stroke-dasharray:none"
       inkscape:tile-y0="8348.5498"
       inkscape:tile-x0="360"
       id="use3061"
       transform="matrix(0.01520372,0.99988442,-0.99988442,0.01520372,9131.7849,4504.273)">
      <rect
         style="fill:none;stroke:#000000;stroke-width:0.89999998;stroke-miterlimit:4;stroke-opacity:1;stroke-dasharray:none"
         id="rect3177"
         width="0"
         height="250.9911"
         x="630.72327"
         y="8116.96"
         ry="0" />
    </g>
    <g
       style="stroke-width:0.89999998;stroke-miterlimit:4;stroke-dasharray:none"
       inkscape:tile-y0="8348.5498"
       inkscape:tile-x0="360"
       id="use3063"
       transform="matrix(0.00959404,0.99995398,-0.99995398,0.00959404,9137.8744,4826.1247)">
      <rect
         style="fill:none;stroke:#000000;stroke-width:0.89999998;stroke-miterlimit:4;stroke-opacity:1;stroke-dasharray:none"
         id="rect3171"
         width="0"
         height="250.9911"
         x="630.72327"
         y="8116.96"
         ry="0" />
    </g>
    <g
       style="stroke-width:0.89999998;stroke-miterlimit:4;stroke-dasharray:none"
       inkscape:tile-y0="8348.5498"
       inkscape:tile-x0="360"
       id="use3065"
       transform="matrix(-0.02280205,0.99974,-0.99974,-0.02280205,9150.2399,5371.9161)">
      <rect
         style="fill:none;stroke:#000000;stroke-width:0.89999998;stroke-miterlimit:4;stroke-opacity:1;stroke-dasharray:none"
         id="rect3165"
         width="0"
         height="250.9911"
         x="630.72327"
         y="8116.96"
         ry="0" />
    </g>
    <g
       style="stroke-width:0.89999998;stroke-miterlimit:4;stroke-dasharray:none"
       inkscape:tile-y0="8348.5498"
       inkscape:tile-x0="360"
       id="use3067"
       transform="matrix(-0.1656896,0.98617796,-0.98617796,-0.1656896,9033.663,7129.3294)">
      <rect
         style="fill:none;stroke:#000000;stroke-width:0.89999998;stroke-miterlimit:4;stroke-opacity:1;stroke-dasharray:none"
         id="rect3153"
         width="0"
         height="250.9911"
         x="630.72327"
         y="8116.96"
         ry="0" />
    </g>
    <g
       style="stroke-width:0.89999998;stroke-miterlimit:4;stroke-dasharray:none"
       inkscape:tile-y0="8348.5498"
       inkscape:tile-x0="360"
       id="use3069"
       transform="matrix(-0.16232957,0.9867366,-0.9867366,-0.16232957,9084.1004,6822.1053)">
      <rect
         style="fill:none;stroke:#000000;stroke-width:0.89999998;stroke-miterlimit:4;stroke-opacity:1;stroke-dasharray:none"
         id="rect3159"
         width="0"
         height="250.9911"
         x="630.72327"
         y="8116.96"
         ry="0" />
    </g>
    <g
       style="stroke-width:0.89999998;stroke-miterlimit:4;stroke-dasharray:none"
       inkscape:tile-y0="8348.5498"
       inkscape:tile-x0="360"
       id="use3071"
       transform="matrix(0.99366051,0.11242238,-0.11242238,0.99366051,1298.1481,-1983.8784)">
      <rect
         style="fill:none;stroke:#000000;stroke-width:0.89999998;stroke-miterlimit:4;stroke-opacity:1;stroke-dasharray:none"
         id="rect3147"
         width="0"
         height="250.9911"
         x="630.72327"
         y="8116.96"
         ry="0" />
    </g>
    <g
       style="stroke-width:0.89999998;stroke-miterlimit:4;stroke-dasharray:none"
       inkscape:tile-y0="8348.5498"
       inkscape:tile-x0="360"
       id="use3073"
       transform="matrix(0.99999639,0.00268866,-0.00268866,0.99999639,660.15932,-1966.5802)">
      <rect
         style="fill:none;stroke:#000000;stroke-width:0.89999998;stroke-miterlimit:4;stroke-opacity:1;stroke-dasharray:none"
         id="rect3141"
         width="0"
         height="250.9911"
         x="630.72327"
         y="8116.96"
         ry="0" />
    </g>
    <g
       style="stroke-width:0.89999998;stroke-miterlimit:4;stroke-dasharray:none"
       inkscape:tile-y0="8348.5498"
       inkscape:tile-x0="360"
       id="use3075"
       transform="matrix(0.99776959,-0.06675216,0.06675216,0.99776959,363.31048,-1923.7991)">
      <rect
         style="fill:none;stroke:#000000;stroke-width:0.89999998;stroke-miterlimit:4;stroke-opacity:1;stroke-dasharray:none"
         id="rect3135"
         width="0"
         height="250.9911"
         x="630.72327"
         y="8116.96"
         ry="0" />
    </g>
    <g
       style="stroke-width:0.89999998;stroke-miterlimit:4;stroke-dasharray:none"
       inkscape:tile-y0="8348.5498"
       inkscape:tile-x0="360"
       id="use3077"
       transform="matrix(0.99872037,-0.0505729,0.0505729,0.99872037,778.22851,-1955.807)">
      <rect
         style="fill:none;stroke:#000000;stroke-width:0.89999998;stroke-miterlimit:4;stroke-opacity:1;stroke-dasharray:none"
         id="rect3129"
         width="0"
         height="250.9911"
         x="630.72327"
         y="8116.96"
         ry="0" />
    </g>
    <g
       style="stroke-width:0.89999998;stroke-miterlimit:4;stroke-dasharray:none"
       inkscape:tile-y0="8348.5498"
       inkscape:tile-x0="360"
       id="use3079"
       transform="matrix(0.65276657,0.75755911,-0.75755911,0.65276657,7942.8853,637.20393)">
      <rect
         style="fill:none;stroke:#000000;stroke-width:0.89999998;stroke-miterlimit:4;stroke-opacity:1;stroke-dasharray:none"
         id="rect3123"
         width="0"
         height="250.9911"
         x="630.72327"
         y="8116.96"
         ry="0" />
    </g>
    <g
       style="stroke-width:0.89999998;stroke-miterlimit:4;stroke-dasharray:none"
       inkscape:tile-y0="8348.5498"
       inkscape:tile-x0="360"
       id="use4066"
       transform="translate(2430,-7720.991)">
      <rect
         style="fill:none;stroke:#000000;stroke-width:0.89999998;stroke-miterlimit:4;stroke-opacity:1;stroke-dasharray:none"
         id="rect3210"
         width="0"
         height="250.9911"
         x="630.72327"
         y="8116.96"
         ry="0" />
    </g>
    <g
       style="stroke-width:0.89999998;stroke-miterlimit:4;stroke-dasharray:none"
       inkscape:tile-y0="8348.5498"
       inkscape:tile-x0="360"
       id="use4088"
       transform="translate(2880,-7720.991)">
      <rect
         style="fill:none;stroke:#000000;stroke-width:0.89999998;stroke-miterlimit:4;stroke-opacity:1;stroke-dasharray:none"
         id="rect3216"
         width="0"
         height="250.9911"
         x="630.72327"
         y="8116.96"
         ry="0" />
    </g>
  </g>
  <g
     inkscape:groupmode="layer"
     id="layer2"
     inkscape:label="Cuts"
     style="display:inline">
    <path
       style="fill:none;stroke:#000000;stroke-width:0.89999998;stroke-linecap:butt;stroke-linejoin:miter;stroke-miterlimit:4;stroke-opacity:1;stroke-dasharray:none"
       d="m 2653.2188,2705.5677 c 0,0 -152.3589,28.1306 -178.0938,117.7813 -25.735,89.6507 -36.125,152.2187 -36.125,152.2187 l 643.2812,0 134.4376,0 643.2812,0 c 0,0 -10.39,-62.568 -36.125,-152.2187 -25.7349,-89.6507 -178.0938,-117.7813 -178.0938,-117.7813 l -429.0624,0 -134.4376,0 -429.0624,0 z"
       id="path3011"
       inkscape:connector-curvature="0" />
    <path
       style="fill:none;stroke:#000000;stroke-width:0.89999998;stroke-linecap:butt;stroke-linejoin:miter;stroke-miterlimit:4;stroke-opacity:1;stroke-dasharray:none"
       d="m 2440.375,3146.4362 c 0,0 -24.1984,41.5239 -27.9375,135 -3.7391,93.4761 0.1875,135 0.1875,135 l 669.6562,0 134.4376,0 669.6562,0 c 0,0 3.9266,-41.5239 0.1875,-135 -3.7391,-93.4761 -27.9375,-135 -27.9375,-135 l -641.9062,0 -134.4376,0 -641.9062,0 z"
       id="path3013"
       inkscape:connector-curvature="0" />
    <path
       style="fill:none;stroke:#000000;stroke-width:0.89999998;stroke-linecap:butt;stroke-linejoin:miter;stroke-miterlimit:4;stroke-opacity:1;stroke-dasharray:none"
       d="m 2413.5938,3529.5695 c 0,0 -4.1116,40.5676 -1.1563,135 2.9553,94.4324 11.6562,135 11.6563,135 l 658.1874,0 134.4376,0 658.1874,0 c 0,0 8.701,-40.5676 11.6563,-135 2.9553,-94.4324 -1.1563,-135 -1.1563,-135 l -668.6874,0 -134.4376,0 -668.6874,0 z"
       id="path3015"
       inkscape:connector-curvature="0" />
    <path
       style="fill:none;stroke:#000000;stroke-width:0.89999998;stroke-linecap:butt;stroke-linejoin:miter;stroke-miterlimit:4;stroke-opacity:1;stroke-dasharray:none"
       d="m 2426.375,3925.5397 c 0,0 -1.2306,43.4301 4.5938,136.9063 5.8243,93.476 10.7187,133.0937 10.7187,133.0937 l 640.5937,0 134.4376,0 640.5937,0 c 0,0 4.8944,-39.6177 10.7187,-133.0937 5.8244,-93.4762 4.5938,-136.9063 4.5938,-136.9063 l -655.9062,0 -134.4376,0 -655.9062,0 z"
       id="path3017"
       inkscape:connector-curvature="0" />
    <path
       style="fill:none;stroke:#000000;stroke-width:0.89999998;stroke-linecap:butt;stroke-linejoin:miter;stroke-miterlimit:4;stroke-opacity:1;stroke-dasharray:none"
       d="m 2445.9375,4315.6853 c 0,0 3.2883,90.6809 6.5,135.9374 3.1769,44.7666 12.625,134.0625 12.625,134.0626 l 617.2187,0 134.4376,0 617.2187,0 c 0,-1e-4 9.4481,-89.296 12.625,-134.0626 3.2117,-45.2565 6.5,-135.9374 6.5,-135.9374 l -636.3437,0 -134.4376,0 -636.3437,0 z"
       id="path3019"
       inkscape:connector-curvature="0" />
    <path
       style="fill:none;stroke:#000000;stroke-width:0.89999998;stroke-linecap:butt;stroke-linejoin:miter;stroke-miterlimit:4;stroke-opacity:1;stroke-dasharray:none"
       d="m 2468.0312,4709.3743 c 0,0 14.0646,134.289 6.5,200.0312 -7.5644,65.7422 -7.4687,69.9688 -7.4687,69.9688 l 615.2187,0 134.4376,0 615.2187,0 c 0,0 0.096,-4.2266 -7.4687,-69.9688 -7.5646,-65.7422 6.5,-200.0312 6.5,-200.0312 l -614.25,0 -134.4376,0 -614.25,0 z"
       id="path3021"
       inkscape:connector-curvature="0" />
    <path
       style="fill:none;stroke:#000000;stroke-width:0.89999998;stroke-linecap:butt;stroke-linejoin:miter;stroke-miterlimit:4;stroke-opacity:1;stroke-dasharray:none"
       d="m 2467.5,5116.1815 c 0,0 -21.3454,47.2551 -55.6875,141.6875 -34.3421,94.4324 -43.7812,128.3125 -43.7813,128.3125 l 714.25,0 134.4376,0 714.25,0 c -1e-4,0 -9.4392,-33.8801 -43.7813,-128.3125 -34.3421,-94.4324 -55.6875,-141.6875 -55.6875,-141.6875 l -614.7812,0 -134.4376,0 -614.7812,0 z"
       id="path3023"
       inkscape:connector-curvature="0" />
    <path
       style="fill:none;stroke:#000000;stroke-width:0.89999998;stroke-linecap:butt;stroke-linejoin:miter;stroke-miterlimit:4;stroke-opacity:1;stroke-dasharray:none"
       d="m 2370.875,5528.626 c 0,0 -19.0311,44.3226 -55.6562,135 -36.6252,90.6773 -46.9375,135 -46.9376,135 l 814,0 134.4376,0 814,0 c -1e-4,0 -10.3124,-44.3227 -46.9376,-135 -36.625,-90.6774 -55.6562,-135 -55.6562,-135 l -711.4062,0 -134.4376,0 -711.4062,0 z"
       id="path3025"
       inkscape:connector-curvature="0" />
    <path
       style="fill:none;stroke:#000000;stroke-width:0.89999998;stroke-linecap:butt;stroke-linejoin:miter;stroke-miterlimit:4;stroke-opacity:1;stroke-dasharray:none"
       d="m 2266.25,5992.2933 c 0,0 -20.0603,42.9149 -37.0938,130.0938 -17.0335,87.1787 -19.8437,139.9062 -19.8437,139.9062 l 872.9687,0 134.4376,0 872.9687,0 c 0,0 -2.8102,-52.7275 -19.8437,-139.9062 -17.0335,-87.1789 -37.0938,-130.0938 -37.0938,-130.0938 l -816.0312,0 -134.4376,0 -816.0312,0 z"
       id="path4216"
       inkscape:connector-curvature="0" />
    <path
       style="fill:none;stroke:#000000;stroke-width:0.89999998;stroke-linecap:butt;stroke-linejoin:miter;stroke-miterlimit:4;stroke-opacity:1;stroke-dasharray:none"
       d="m 2209.4062,6411.4375 c 0,0 -10.5734,41.5239 -14.3124,135 -3.7391,93.4761 -1.1876,135 -1.1876,135 l 888.375,0 134.4376,0 888.375,0 c 0,0 2.5515,-41.5239 -1.1876,-135 -3.739,-93.4761 -14.3124,-135 -14.3124,-135 l -872.875,0 -134.4376,0 -872.875,0 z"
       id="path4220"
       inkscape:connector-curvature="0" />
    <path
       style="fill:none;stroke:#000000;stroke-width:0.89999998;stroke-linecap:butt;stroke-linejoin:miter;stroke-miterlimit:4;stroke-opacity:1;stroke-dasharray:none"
       d="m 2192.875,6843.6999 c 0,0 -2.3829,38.7251 0.875,135 3.258,96.275 13.7188,135 13.7188,135 l 874.8124,0 134.4376,0 874.8124,0 c 0,0 10.4608,-38.725 13.7188,-135 3.2579,-96.2749 0.875,-135 0.875,-135 l -889.4062,0 -134.4376,0 -889.4062,0 z"
       id="path4224"
       inkscape:connector-curvature="0" />
    <path
       style="fill:none;stroke:#000000;stroke-width:0.89999998;stroke-linecap:butt;stroke-linejoin:miter;stroke-miterlimit:4;stroke-opacity:1;stroke-dasharray:none"
       d="m 2212.0938,7310.2423 c 0,0 -2.4273,34.517 14.125,126.5937 16.5522,92.0767 28.5625,143.4063 28.5624,143.4063 l 827.5,0 134.4376,0 827.5,0 c -1e-4,0 12.0102,-51.3296 28.5624,-143.4063 16.5523,-92.0767 14.125,-126.5937 14.125,-126.5937 l -870.1874,0 -134.4376,0 -870.1874,0 z"
       id="path4228"
       inkscape:connector-curvature="0" />
    <path
       style="fill:none;stroke:#000000;stroke-width:0.89999998;stroke-linecap:butt;stroke-linejoin:miter;stroke-miterlimit:4;stroke-opacity:1;stroke-dasharray:none"
       d="m 2265.3125,7745.3485 c 0,0 9.4226,71.9454 67.5625,152.5 58.1399,80.5546 180.5938,117.5 180.5938,117.5 l 568.8124,0 134.4376,0 568.8124,0 c 0,0 122.4539,-36.9454 180.5938,-117.5 58.1399,-80.5546 67.5625,-152.5 67.5625,-152.5 l -816.9687,0 -134.4376,0 -816.9687,0 z"
       id="path4232"
       inkscape:connector-curvature="0" />
    <path
       style="fill:none;stroke:#000000;stroke-width:0.89999998;stroke-linecap:butt;stroke-linejoin:miter;stroke-miterlimit:4;stroke-opacity:1;stroke-dasharray:none"
       d="m 3600,2773.0524 40.5,0 0,135 -40.5,0 z"
       id="path3085"
       inkscape:connector-curvature="0"
       sodipodi:nodetypes="ccccc" />
    <path
       sodipodi:nodetypes="ccccc"
       inkscape:connector-curvature="0"
       id="use3087"
       d="m 3600,3213.9426 40.5,0 0,135 -40.5,0 z"
       style="fill:none;stroke:#000000;stroke-width:0.89999998;stroke-linecap:butt;stroke-linejoin:miter;stroke-miterlimit:4;stroke-opacity:1;stroke-dasharray:none" />
    <path
       sodipodi:nodetypes="ccccc"
       inkscape:connector-curvature="0"
       id="use3089"
       d="m 3600,3597.0664 40.5,0 0,135 -40.5,0 z"
       style="fill:none;stroke:#000000;stroke-width:0.89999998;stroke-linecap:butt;stroke-linejoin:miter;stroke-miterlimit:4;stroke-opacity:1;stroke-dasharray:none" />
    <path
       sodipodi:nodetypes="ccccc"
       inkscape:connector-curvature="0"
       id="path3113"
       d="m 2659.5,2773.0524 40.5,0 0,135 -40.5,0 z"
       style="fill:none;stroke:#000000;stroke-width:0.89999998;stroke-linecap:butt;stroke-linejoin:miter;stroke-miterlimit:4;stroke-opacity:1;stroke-dasharray:none"
       inkscape:tile-cx="2686.5"
       inkscape:tile-cy="4034.3909"
       inkscape:tile-w="27"
       inkscape:tile-h="135"
       inkscape:tile-x0="2673"
       inkscape:tile-y0="3966.8909" />
    <path
       inkscape:tile-y0="3966.8909"
       inkscape:tile-x0="2673"
       style="fill:none;stroke:#000000;stroke-width:0.89999998;stroke-linecap:butt;stroke-linejoin:miter;stroke-miterlimit:4;stroke-opacity:1;stroke-dasharray:none"
       d="m 2659.5,3213.9426 40.5,0 0,135 -40.5,0 z"
       id="use3143"
       inkscape:connector-curvature="0"
       sodipodi:nodetypes="ccccc" />
    <path
       inkscape:tile-y0="3966.8909"
       inkscape:tile-x0="2673"
       style="fill:none;stroke:#000000;stroke-width:0.89999998;stroke-linecap:butt;stroke-linejoin:miter;stroke-miterlimit:4;stroke-opacity:1;stroke-dasharray:none"
       d="m 2659.5,7812.8617 40.5,0 0,135 -40.5,0 z"
       id="use3145"
       inkscape:connector-curvature="0"
       sodipodi:nodetypes="ccccc" />
    <path
       inkscape:tile-y0="3966.8909"
       inkscape:tile-x0="2673"
       style="fill:none;stroke:#000000;stroke-width:0.89999998;stroke-linecap:butt;stroke-linejoin:miter;stroke-miterlimit:4;stroke-opacity:1;stroke-dasharray:none"
       d="m 2659.5,7377.7359 40.5,0 0,135 -40.5,0 z"
       id="use3147"
       inkscape:connector-curvature="0"
       sodipodi:nodetypes="ccccc" />
    <path
       inkscape:tile-y0="3966.8909"
       inkscape:tile-x0="2673"
       style="fill:none;stroke:#000000;stroke-width:0.89999998;stroke-linecap:butt;stroke-linejoin:miter;stroke-miterlimit:4;stroke-opacity:1;stroke-dasharray:none"
       d="m 2659.5,3597.0695 40.5,0 0,135 -40.5,0 z"
       id="use3149"
       inkscape:connector-curvature="0"
       sodipodi:nodetypes="ccccc" />
    <path
       inkscape:tile-y0="3966.8909"
       inkscape:tile-x0="2673"
       style="fill:none;stroke:#000000;stroke-width:0.89999998;stroke-linecap:butt;stroke-linejoin:miter;stroke-miterlimit:4;stroke-opacity:1;stroke-dasharray:none"
       d="m 2659.5,3993.0271 40.5,0 0,135 -40.5,0 z"
       id="use3151"
       inkscape:connector-curvature="0"
       sodipodi:nodetypes="ccccc" />
    <path
       inkscape:tile-y0="3966.8909"
       inkscape:tile-x0="2673"
       style="fill:none;stroke:#000000;stroke-width:0.89999998;stroke-linecap:butt;stroke-linejoin:miter;stroke-miterlimit:4;stroke-opacity:1;stroke-dasharray:none"
       d="m 2659.5,4383.1804 40.5,0 0,135 -40.5,0 z"
       id="use3153"
       inkscape:connector-curvature="0"
       sodipodi:nodetypes="ccccc" />
    <path
       inkscape:tile-y0="3966.8909"
       inkscape:tile-x0="2673"
       style="fill:none;stroke:#000000;stroke-width:0.89999998;stroke-linecap:butt;stroke-linejoin:miter;stroke-miterlimit:4;stroke-opacity:1;stroke-dasharray:none"
       d="m 2659.5,4776.8833 40.5,0 0,135 -40.5,0 z"
       id="use3155"
       inkscape:connector-curvature="0"
       sodipodi:nodetypes="ccccc" />
    <path
       inkscape:tile-y0="3966.8909"
       inkscape:tile-x0="2673"
       style="fill:none;stroke:#000000;stroke-width:0.89999998;stroke-linecap:butt;stroke-linejoin:miter;stroke-miterlimit:4;stroke-opacity:1;stroke-dasharray:none"
       d="m 2659.5,6478.9281 40.5,0 0,135 -40.5,0 z"
       id="use3157"
       inkscape:connector-curvature="0"
       sodipodi:nodetypes="ccccc" />
    <path
       inkscape:tile-y0="3966.8909"
       inkscape:tile-x0="2673"
       style="fill:none;stroke:#000000;stroke-width:0.89999998;stroke-linecap:butt;stroke-linejoin:miter;stroke-miterlimit:4;stroke-opacity:1;stroke-dasharray:none"
       d="m 2659.5,5183.682 40.5,0 0,135 -40.5,0 z"
       id="use3159"
       inkscape:connector-curvature="0"
       sodipodi:nodetypes="ccccc" />
    <path
       inkscape:tile-y0="3966.8909"
       inkscape:tile-x0="2673"
       style="fill:none;stroke:#000000;stroke-width:0.89999998;stroke-linecap:butt;stroke-linejoin:miter;stroke-miterlimit:4;stroke-opacity:1;stroke-dasharray:none"
       d="m 2659.5,5596.1155 40.5,0 0,135 -40.5,0 z"
       id="use3161"
       inkscape:connector-curvature="0"
       sodipodi:nodetypes="ccccc" />
    <path
       inkscape:tile-y0="3966.8909"
       inkscape:tile-x0="2673"
       style="fill:none;stroke:#000000;stroke-width:0.89999998;stroke-linecap:butt;stroke-linejoin:miter;stroke-miterlimit:4;stroke-opacity:1;stroke-dasharray:none"
       d="m 2659.5,6059.7976 40.5,0 0,135 -40.5,0 z"
       id="use3163"
       inkscape:connector-curvature="0"
       sodipodi:nodetypes="ccccc" />
    <path
       inkscape:tile-y0="3966.8909"
       inkscape:tile-x0="2673"
       style="fill:none;stroke:#000000;stroke-width:0.89999998;stroke-linecap:butt;stroke-linejoin:miter;stroke-miterlimit:4;stroke-opacity:1;stroke-dasharray:none"
       d="m 2659.5,6911.1848 40.5,0 0,135 -40.5,0 z"
       id="use3165"
       inkscape:connector-curvature="0"
       sodipodi:nodetypes="ccccc" />
    <path
       sodipodi:nodetypes="ccccccccccccccccc"
       inkscape:connector-curvature="0"
       id="path3167"
       d="m 1154.0897,4911.5353 0,-900 -22.5,0 0,-36 -4.5,-4.5 -126,0 -4.5,4.5 0,36 -22.5,0 0,900 22.5,0 0,36 4.5,4.5 126,0 4.5,-4.5 0,-36 z"
       style="fill:none;stroke:#000000;stroke-width:0.89999998;stroke-linecap:butt;stroke-linejoin:miter;stroke-miterlimit:4;stroke-opacity:1;stroke-dasharray:none" />
    <path
       style="fill:none;stroke:#000000;stroke-width:0.89999998;stroke-linecap:butt;stroke-linejoin:miter;stroke-miterlimit:4;stroke-opacity:1;stroke-dasharray:none"
       d="m 1535.6039,6101.7033 0,-900 -22.5,0 0,-36 -4.5,-4.5 -126,0 -4.5,4.5 0,36 -22.5,0 0,900 22.5,0 0,36 4.5,4.5 126,0 4.5,-4.5 0,-36 z"
       id="use3181"
       inkscape:connector-curvature="0"
       sodipodi:nodetypes="ccccccccccccccccc" />
    <path
       style="fill:none;stroke:#000000;stroke-width:0.89999998;stroke-linecap:butt;stroke-linejoin:miter;stroke-miterlimit:4;stroke-opacity:1;stroke-dasharray:none"
       d="m 1167.2453,6109.9638 0,-900 -22.5,0 0,-36 -4.5,-4.5 -126,0 -4.5,4.5 0,36 -22.49996,0 0,900 22.49996,0 0,36 4.5,4.5 126,0 4.5,-4.5 0,-36 z"
       id="use3183"
       inkscape:connector-curvature="0"
       sodipodi:nodetypes="ccccccccccccccccc" />
    <path
       style="fill:none;stroke:#000000;stroke-width:0.89999998;stroke-linecap:butt;stroke-linejoin:miter;stroke-miterlimit:4;stroke-opacity:1;stroke-dasharray:none"
       d="m 1509.2926,4906.1541 0,-900.0001 -22.5,0 0,-36 -4.5,-4.5 -126,0 -4.5,4.5 0,36 -22.5,0 0,900.0001 22.5,0 0,36 4.5,4.5 126,0 4.5,-4.5 0,-36 z"
       id="use3185"
       inkscape:connector-curvature="0"
       sodipodi:nodetypes="ccccccccccccccccc" />
    <path
       style="fill:none;stroke:#000000;stroke-width:0.89999998;stroke-linecap:butt;stroke-linejoin:miter;stroke-miterlimit:4;stroke-opacity:1;stroke-dasharray:none;display:inline"
       d="m 531,4125.625 c -153.6191,-0.082 -182.2633,221.5555 -168.5625,315.2812 9.83774,67.2992 120.79216,187.0767 128.71875,333.7188 9.53431,176.3848 -19.07539,433.8084 -76.28125,738.9062 -57.20586,305.098 -125.451,650.2301 -58.82698,1012.9579 10.85004,59.0718 70.84241,491.6291 83.95198,701.1671 C 453.10957,7437.1943 364.83004,7830 404.4375,7830 l 103.5625,0 4.5,-4.5 0,-648 40.03125,0 0,648 4.5,4.5 107.65625,0 c 19.88631,0 -37.51148,-306.0617 -36.625,-598.9375 0.88647,-292.8757 60.0738,-572.5589 79,-574.9063 37.85239,-4.6945 199.09097,5.3193 233.09375,4.5313 57.146,-1.3245 177.76445,-2.7013 204.37495,-7.5937 26.6107,-4.8925 49.1879,-8.5584 66.4688,-9.75 17.2809,-1.1919 373.4792,-82.1359 380.25,91.2812 0.9718,24.8897 73.8087,486.4789 64.7188,562.5 -13.5354,113.1982 -51.1679,532.875 -15.625,532.875 l 76.3437,0 4.5,-4.5 0,-648 40.0313,0 0,648 4.5,4.5 93.75,0 c 40.269,0 -26.3226,-543.3721 -27.5626,-601.875 -2.6842,-126.6509 -7.3095,-491.4365 17.9688,-494.3438 25.2783,-2.9074 117.1831,7.3684 170.8438,-61.8437 19.2215,-24.7923 13.1028,-70.0472 -7.375,-93.8125 l -43.9376,-51 27.2813,-23.5 0.3437,-6.4688 -82.25,-95.4687 -6.4687,-0.5937 -27.25,23.5 -43.9375,-51 c -1.4549,-1.6885 -4.1804,-2.0815 -6.4062,-1.9688 l -67.2188,3.4062 -1.8438,-35.9687 -4.9062,-4.25 -125.8125,6.375 -4.4687,4.7187 1.8437,35.9688 -67.25,3.4062 c -3.4765,0.1761 -6.9644,-0.045 -10.4375,0.1876 l -67.1875,4.5 -2.4063,-35.9063 -4.9687,-4.1875 -125.7187,8.4062 -4.3438,4.8126 2.4062,35.9062 -67.1874,4.5 c -4.5435,0.304 -9.0089,1.6057 -13.5626,1.5938 l -67.3124,-0.1876 0.094,-36 -4.6875,-4.5312 -126,-0.3125 -4.6875,4.4687 -0.094,36 -67.31255,-0.1874 c -4.82713,-0.013 -9.67221,0.074 -14.46875,-0.4688 l -66.90625,-7.5625 4.0625,-35.7813 -4.15625,-4.9687 L 791,6341.375 l -5.15625,3.9688 -4.0625,35.75 -66.90625,-7.5626 c -13.61006,-1.5398 -42.17568,3.7889 -39.90625,-9.7187 l 11.15625,-66.4063 35.5,5.9688 5.21875,-3.875 20.875,-124.25 -3.65625,-5.375 -35.5,-5.9688 11.15625,-66.375 c 0.71074,-4.2303 2.42867,-8.236 3.125,-12.4687 l 10.9375,-66.4375 35.53125,5.8438 5.1875,-3.875 20.4375,-124.3438 -3.65625,-5.3438 -35.53125,-5.8437 10.9375,-66.4375 c 0.42491,-2.5829 1.3153,-5.1018 1.375,-7.7188 l 1.53125,-67.3124 35.96875,0.8124 4.625,-4.5624 2.875,-125.9688 -4.40625,-4.7812 -35.96875,-0.8126 1.53125,-67.3124 c 0.0348,-1.5235 0.10835,-3.0389 0.0937,-4.5626 l -0.65625,-67.3124 36,-0.375 4.46875,-4.7188 -1.21875,-125.9688 -4.5625,-4.6562 -36,0.3438 -0.625,-67.3126 c -0.016,-1.6638 0.616,-3.2737 0.625,-4.9374 l 0.34375,-65.9688 35.96875,-0.5312 4.4375,-4.75 -1.90625,-126 -4.5625,-4.5938 -36,0.5312 -1.03125,-67.3124 c -0.0333,-2.1914 -0.18845,-5.6211 -0.15625,-7.8126 l 1,-67.3124 35.96875,-0.9376 4.375,-4.7812 -3.25,-125.9688 -4.625,-4.5624 -36,0.9374 -1.75,-67.2812 c -0.0873,-3.3636 -1.27726,-6.6816 -1.59375,-10.0312 l -6.34375,-67.0313 35.84375,-3.375 4.03125,-5.0937 -11.84375,-125.4376 -4.90625,-4.25 -35.84375,3.4063 -6.34375,-67.0313 c -0.45271,-4.7915 -0.37652,-9.8843 -2.46875,-14.2187 l -29.25,-60.625 32.40625,-15.6563 2.03125,-6.1874 -54.78125,-113.4688 -6.09375,-2.25 -32.40625,15.6562 -29.28125,-60.625 c -7.59736,-28.327 -39.57203,-48.9224 -67.9375,-52.1562 -6.66324,-0.7596 -13.13032,-1.1217 -19.375,-1.125 z"
       id="path3777"
       inkscape:connector-curvature="0"
       sodipodi:nodetypes="sssssssccccccssssscsssccccccsssscccccccccccccccsccccccccccccccccccccccccccccccccccccccccccccccccccccccccccccccccccccccccccccccccccccccccss" />
    <path
       inkscape:tile-y0="3966.8909"
       inkscape:tile-x0="2673"
       style="fill:none;stroke:#000000;stroke-width:0.89999998;stroke-linecap:butt;stroke-linejoin:miter;stroke-miterlimit:4;stroke-opacity:1;stroke-dasharray:none"
       d="m 553.7149,4668.5332 40.5,0 0,135 -40.5,0 z"
       id="use3169"
       inkscape:connector-curvature="0"
       sodipodi:nodetypes="ccccc" />
    <path
       inkscape:tile-y0="3966.8909"
       inkscape:tile-x0="2673"
       style="fill:none;stroke:#000000;stroke-width:0.89999998;stroke-linecap:butt;stroke-linejoin:miter;stroke-miterlimit:4;stroke-opacity:1;stroke-dasharray:none"
       d="m 553.7149,5289.4893 40.5,0 0,135 -40.5,0 z"
       id="use3173"
       inkscape:connector-curvature="0"
       sodipodi:nodetypes="ccccc" />
    <path
       inkscape:tile-y0="3966.8909"
       inkscape:tile-x0="2673"
       style="fill:none;stroke:#000000;stroke-width:0.89999998;stroke-linecap:butt;stroke-linejoin:miter;stroke-miterlimit:4;stroke-opacity:1;stroke-dasharray:none"
       d="m 553.7149,5957.7851 40.5,0 0,135 -40.5,0 z"
       id="use4020"
       inkscape:connector-curvature="0"
       sodipodi:nodetypes="ccccc" />
    <path
       inkscape:tile-y0="3966.8909"
       inkscape:tile-x0="2673"
       style="fill:none;stroke:#000000;stroke-width:0.89999998;stroke-linecap:butt;stroke-linejoin:miter;stroke-miterlimit:4;stroke-opacity:1;stroke-dasharray:none"
       d="m 600.0216,6484.5 0,40.5 -135,0 0,-40.5 z"
       id="use4022"
       inkscape:connector-curvature="0"
       sodipodi:nodetypes="ccccc" />
    <path
       inkscape:tile-y0="3966.8909"
       inkscape:tile-x0="2673"
       style="fill:none;stroke:#000000;stroke-width:0.89999998;stroke-linecap:butt;stroke-linejoin:miter;stroke-miterlimit:4;stroke-opacity:1;stroke-dasharray:none"
       d="m 1793.2186,6484.5 0,40.5 -135,0 0,-40.5 z"
       id="use4024"
       inkscape:connector-curvature="0"
       sodipodi:nodetypes="ccccc" />
    <path
       inkscape:tile-y0="3966.8909"
       inkscape:tile-x0="2673"
       style="fill:none;stroke:#000000;stroke-width:0.89999998;stroke-linecap:butt;stroke-linejoin:miter;stroke-miterlimit:4;stroke-opacity:1;stroke-dasharray:none"
       d="m 1197.8809,6484.5 0,40.5 -135,0 0,-40.5 z"
       id="use4026"
       inkscape:connector-curvature="0"
       sodipodi:nodetypes="ccccc" />
    <path
       style="fill:none;stroke:#000000;stroke-width:0.89999998;stroke-linecap:butt;stroke-linejoin:miter;stroke-miterlimit:4;stroke-opacity:1;stroke-dasharray:none"
       d="m 3600,2107.1458 -900,0 0,22.5 -112.5,0 -4.5,4.5 0,126 4.5,4.5 112.5,0 0,22.5 900,0 0,-22.5 112.5,0 4.5,-4.5 0,-126 -4.5,-4.5 -112.5,0 z"
       id="path4030"
       inkscape:connector-curvature="0"
       sodipodi:nodetypes="ccccccccccccccccc" />
    <path
       sodipodi:nodetypes="ccccccccccccccccc"
       inkscape:connector-curvature="0"
       id="use4032"
       d="m 3600,2405.2366 -900,0 0,22.5 -112.5,0 -4.5,4.5 0,126 4.5,4.5 112.5,0 0,22.5 900,0 0,-22.5 112.5,0 4.5,-4.5 0,-126 -4.5,-4.5 -112.5,0 z"
       style="fill:none;stroke:#000000;stroke-width:0.89999998;stroke-linecap:butt;stroke-linejoin:miter;stroke-miterlimit:4;stroke-opacity:1;stroke-dasharray:none" />
    <path
       sodipodi:nodetypes="ccccc"
       inkscape:connector-curvature="0"
       id="use4034"
       d="m 3600,3993.0397 40.5,0 0,135 -40.5,0 z"
       style="fill:none;stroke:#000000;stroke-width:0.89999998;stroke-linecap:butt;stroke-linejoin:miter;stroke-miterlimit:4;stroke-opacity:1;stroke-dasharray:none" />
    <path
       sodipodi:nodetypes="ccccc"
       inkscape:connector-curvature="0"
       id="use4036"
       d="m 3600,4776.8743 40.5,0 0,135 -40.5,0 z"
       style="fill:none;stroke:#000000;stroke-width:0.89999998;stroke-linecap:butt;stroke-linejoin:miter;stroke-miterlimit:4;stroke-opacity:1;stroke-dasharray:none" />
    <path
       sodipodi:nodetypes="ccccc"
       inkscape:connector-curvature="0"
       id="use4038"
       d="m 3600,4383.1853 40.5,0 0,135 -40.5,0 z"
       style="fill:none;stroke:#000000;stroke-width:0.89999998;stroke-linecap:butt;stroke-linejoin:miter;stroke-miterlimit:4;stroke-opacity:1;stroke-dasharray:none" />
    <path
       sodipodi:nodetypes="ccccc"
       inkscape:connector-curvature="0"
       id="use4040"
       d="m 3600,5183.6815 40.5,0 0,135 -40.5,0 z"
       style="fill:none;stroke:#000000;stroke-width:0.89999998;stroke-linecap:butt;stroke-linejoin:miter;stroke-miterlimit:4;stroke-opacity:1;stroke-dasharray:none" />
    <path
       sodipodi:nodetypes="ccccc"
       inkscape:connector-curvature="0"
       id="use4042"
       d="m 3600,5596.126 40.5,0 0,135 -40.5,0 z"
       style="fill:none;stroke:#000000;stroke-width:0.89999998;stroke-linecap:butt;stroke-linejoin:miter;stroke-miterlimit:4;stroke-opacity:1;stroke-dasharray:none" />
    <path
       sodipodi:nodetypes="ccccc"
       inkscape:connector-curvature="0"
       id="use4044"
       d="m 3600,6059.7933 40.5,0 0,135 -40.5,0 z"
       style="fill:none;stroke:#000000;stroke-width:0.89999998;stroke-linecap:butt;stroke-linejoin:miter;stroke-miterlimit:4;stroke-opacity:1;stroke-dasharray:none" />
    <path
       sodipodi:nodetypes="ccccc"
       inkscape:connector-curvature="0"
       id="use4046"
       d="m 3600,6478.9375 40.5,0 0,135 -40.5,0 z"
       style="fill:none;stroke:#000000;stroke-width:0.89999998;stroke-linecap:butt;stroke-linejoin:miter;stroke-miterlimit:4;stroke-opacity:1;stroke-dasharray:none" />
    <path
       sodipodi:nodetypes="ccccc"
       inkscape:connector-curvature="0"
       id="use4048"
       d="m 3600,6911.1999 40.5,0 0,135 -40.5,0 z"
       style="fill:none;stroke:#000000;stroke-width:0.89999998;stroke-linecap:butt;stroke-linejoin:miter;stroke-miterlimit:4;stroke-opacity:1;stroke-dasharray:none" />
    <path
       sodipodi:nodetypes="ccccc"
       inkscape:connector-curvature="0"
       id="use4050"
       d="m 3600,7377.7423 40.5,0 0,135 -40.5,0 z"
       style="fill:none;stroke:#000000;stroke-width:0.89999998;stroke-linecap:butt;stroke-linejoin:miter;stroke-miterlimit:4;stroke-opacity:1;stroke-dasharray:none" />
    <path
       sodipodi:nodetypes="ccccc"
       inkscape:connector-curvature="0"
       id="use4052"
       d="m 3600,7812.8485 40.5,0 0,135 -40.5,0 z"
       style="fill:none;stroke:#000000;stroke-width:0.89999998;stroke-linecap:butt;stroke-linejoin:miter;stroke-miterlimit:4;stroke-opacity:1;stroke-dasharray:none" />
    <path
       sodipodi:nodetypes="cccccccccccccccccccccccccccccsccsscssccscc"
       inkscape:connector-curvature="0"
       id="use4080"
       d="m 2423.0104,1459.0367 -4.5,-4.5 -647.9999,0 0,-40.0432 647.9999,0 4.5,-4.5 0.2134,-89.4987 0,-67.3193 36,0 4.5,-4.678 0,-125.9999 -4.5,-4.68 -36,0 0,-67.32 0,-179.99874 0,-67.3193 36,0 4.5,-4.678 0,-126.00005 -4.5,-4.68 -36,0 0,-67.32 -0.2134,-68.4568 -4.5,-4.5 -647.9999,0 0,-40.0432 647.9999,0 4.5,-4.5 0.168,-71.5 c 0,0 -454.0605,-10.5625 -653.1874,-10.5625 -199.127,0 -651.8125,-70.2813 -651.8126,-70.2813 l 0,260.0313 c 0,0 303.2868,9.548 443.125,9.5121 196.1294,-0.051 683.8711,-10.058 690.0938,77.0601 6.2227,87.11815 0,283.24035 0,283.24035 0,0 6.2227,197.12214 0,284.24024 -6.2227,87.1181 -493.9644,77.1111 -690.0938,77.0601 -139.8382,-0.036 -443.125,9.5121 -443.125,9.5121 l 0,260.0313 c 10e-5,-10e-5 452.6856,-70.2813 651.8126,-70.2813 199.1269,-0.01 653.1874,-10.5705 653.1874,-10.5705 z"
       style="fill:none;stroke:#000000;stroke-width:0.89999998;stroke-linecap:butt;stroke-linejoin:miter;stroke-miterlimit:4;stroke-opacity:1;stroke-dasharray:none" />
    <path
       inkscape:tile-y0="3966.8909"
       inkscape:tile-x0="2673"
       style="fill:none;stroke:#000000;stroke-width:0.89999998;stroke-linecap:butt;stroke-linejoin:miter;stroke-miterlimit:4;stroke-opacity:1;stroke-dasharray:none"
       d="m 2992.5006,2474.9866 0,40.5 -135,0 0,-40.5 z"
       id="use4090"
       inkscape:connector-curvature="0"
       sodipodi:nodetypes="ccccc" />
    <path
       inkscape:tile-y0="3966.8909"
       inkscape:tile-x0="2673"
       style="fill:none;stroke:#000000;stroke-width:0.89999998;stroke-linecap:butt;stroke-linejoin:miter;stroke-miterlimit:4;stroke-opacity:1;stroke-dasharray:none"
       d="m 3442.5006,2474.9866 0,40.5 -135,0 0,-40.5 z"
       id="use4092"
       inkscape:connector-curvature="0"
       sodipodi:nodetypes="ccccc" />
    <path
       inkscape:tile-y0="3966.8909"
       inkscape:tile-x0="2673"
       style="fill:none;stroke:#000000;stroke-width:0.89999998;stroke-linecap:butt;stroke-linejoin:miter;stroke-miterlimit:4;stroke-opacity:1;stroke-dasharray:none"
       d="m 2992.5006,2176.8958 0,40.5 -135,0 0,-40.5 z"
       id="use4094"
       inkscape:connector-curvature="0"
       sodipodi:nodetypes="ccccc" />
    <path
       inkscape:tile-y0="3966.8909"
       inkscape:tile-x0="2673"
       style="fill:none;stroke:#000000;stroke-width:0.89999998;stroke-linecap:butt;stroke-linejoin:miter;stroke-miterlimit:4;stroke-opacity:1;stroke-dasharray:none"
       d="m 3442.5006,2176.8958 0,40.5 -135,0 0,-40.5 z"
       id="use4096"
       inkscape:connector-curvature="0"
       sodipodi:nodetypes="ccccc" />
    <path
       style="fill:none;stroke:#000000;stroke-width:0.89999998;stroke-linecap:butt;stroke-linejoin:miter;stroke-miterlimit:4;stroke-opacity:1;stroke-dasharray:none"
       d="m 486.02314,932.33714 4.5,4.5 647.99986,0 0,40.0432 -647.99986,0 -4.5,4.5 -0.21344,89.49866 0,67.3193 -36,0 -4.5,4.678 0,126 4.5,4.68 36,0 0,67.32 0,179.9987 0,67.3193 -36,0 -4.5,4.678 0,126 4.5,4.68 36,0 0,67.32 0.2134,68.4568 4.5,4.5 647.9999,0 0,40.0432 -647.9999,0 -4.5,4.5 -0.16793,71.5 c 0,0 454.06057,10.5625 653.18733,10.5625 199.127,0 651.8125,70.2813 651.8126,70.2813 l 0,-260.0313 c 0,0 -303.2868,-9.548 -443.125,-9.5121 -196.1294,0.051 -683.87103,10.058 -690.09373,-77.0601 -6.2227,-87.1181 0,-283.2403 0,-283.2403 0,0 -6.2227,-197.1222 0,-284.2403 6.2227,-87.1181 493.96433,-77.1111 690.09373,-77.0601 139.8382,0.036 443.125,-9.5121 443.125,-9.5121 l 0,-260.03126 c -10e-5,10e-5 -452.6856,70.2813 -651.8126,70.2813 -199.12676,0.01 -653.18733,10.5705 -653.18733,10.5705 z"
       id="path3228"
       inkscape:connector-curvature="0"
       sodipodi:nodetypes="cccccccccccccccccccccccccccccsccsscssccscc" />
    <path
       sodipodi:nodetypes="sssssssccccccssssscsssccccccsssscccccccccccccccsccccccccccccccccccccccccccccccccccccccccccccccccccccccccccccccccccccccccccccccccccccccccss"
       inkscape:connector-curvature="0"
       id="path3292"
       d="m 2017.7629,5955.618 c 153.6191,0.082 182.2633,-221.5555 168.5625,-315.2812 -9.8377,-67.2992 -120.7922,-187.0767 -128.7187,-333.7188 -9.5344,-176.3848 19.0753,-433.8084 76.2812,-738.9062 57.2059,-305.098 125.451,-650.2301 58.827,-1012.9579 -10.8501,-59.0718 -70.8424,-491.6291 -83.952,-701.1671 -13.1096,-209.5381 75.17,-602.3438 35.5625,-602.3438 l -103.5625,0 -4.5,4.5 0,648 -40.0312,0 0,-648 -4.5,-4.5 -107.6563,0 c -19.8863,0 37.5115,306.0617 36.625,598.9375 -0.8865,292.8757 -60.0738,572.5589 -79,574.9063 -37.8524,4.6945 -199.091,-5.3193 -233.0937,-4.5313 -57.146,1.3245 -177.7645,2.7013 -204.375,7.5937 -26.6107,4.8925 -49.1879,8.5584 -66.4688,9.75 -17.2809,1.1919 -373.4792,82.1359 -380.25,-91.2812 -0.9718,-24.8897 -73.8087,-486.4789 -64.7188,-562.5 13.5354,-113.1982 51.1679,-532.875 15.625,-532.875 l -76.3437,0 -4.5,4.5 0,648 -40.0313,0 0,-648 -4.5,-4.5 -93.75,0 c -40.269,0 26.3226,543.3721 27.5626,601.875 2.6842,126.6509 7.3095,491.4365 -17.9688,494.3438 -25.2783,2.9074 -117.1831,-7.3684 -170.8438,61.8437 -19.2215,24.7923 -13.1028,70.0472 7.375,93.8125 l 43.9376,51 -27.2813,23.5 -0.3437,6.4688 82.25,95.4687 6.4687,0.5937 27.25,-23.5 43.9375,51 c 1.4549,1.6885 4.1804,2.0815 6.4062,1.9688 l 67.2188,-3.4062 1.8438,35.9687 4.9062,4.25 125.8125,-6.375 4.4687,-4.7187 -1.8437,-35.9688 67.25,-3.4062 c 3.4765,-0.1761 6.9644,0.045 10.4375,-0.1876 l 67.1875,-4.5 2.4063,35.9063 4.9687,4.1875 125.7187,-8.4062 4.3438,-4.8126 -2.4062,-35.9062 67.1874,-4.5 c 4.5435,-0.304 9.0089,-1.6057 13.5626,-1.5938 l 67.3124,0.1876 -0.094,36 4.6875,4.5312 126,0.3125 4.6875,-4.4687 0.094,-36 67.3126,0.1874 c 4.8271,0.013 9.6722,-0.074 14.4687,0.4688 l 66.9063,7.5625 -4.0625,35.7813 4.1562,4.9687 125.1875,14.1875 5.1563,-3.9688 4.0625,-35.75 66.9062,7.5626 c 13.6101,1.5398 42.1757,-3.7889 39.9063,9.7187 l -11.1563,66.4063 -35.5,-5.9688 -5.2187,3.875 -20.875,124.25 3.6562,5.375 35.5,5.9688 -11.1562,66.375 c -0.7108,4.2303 -2.4287,8.236 -3.125,12.4687 l -10.9375,66.4375 -35.5313,-5.8438 -5.1875,3.875 -20.4375,124.3438 3.6563,5.3438 35.5312,5.8437 -10.9375,66.4375 c -0.4249,2.5829 -1.3153,5.1018 -1.375,7.7188 l -1.5312,67.3124 -35.9688,-0.8124 -4.625,4.5624 -2.875,125.9688 4.4063,4.7812 35.9687,0.8126 -1.5312,67.3124 c -0.035,1.5235 -0.1084,3.0389 -0.094,4.5626 l 0.6562,67.3124 -36,0.375 -4.4687,4.7188 1.2187,125.9688 4.5625,4.6562 36,-0.3438 0.625,67.3126 c 0.016,1.6638 -0.616,3.2737 -0.625,4.9374 l -0.3437,65.9688 -35.9688,0.5312 -4.4375,4.75 1.9063,126 4.5625,4.5938 36,-0.5312 1.0312,67.3124 c 0.033,2.1914 0.1885,5.6211 0.1563,7.8126 l -1,67.3124 -35.9688,0.9376 -4.375,4.7812 3.25,125.9688 4.625,4.5624 36,-0.9374 1.75,67.2812 c 0.087,3.3636 1.2773,6.6816 1.5938,10.0312 l 6.3437,67.0313 -35.8437,3.375 -4.0313,5.0937 11.8438,125.4376 4.9062,4.25 35.8438,-3.4063 6.3437,67.0313 c 0.4527,4.7915 0.3765,9.8843 2.4688,14.2187 l 29.25,60.625 -32.4063,15.6563 -2.0312,6.1874 54.7812,113.4688 6.0938,2.25 32.4062,-15.6562 29.2813,60.625 c 7.5973,28.327 39.572,48.9224 67.9375,52.1562 6.6632,0.7596 13.1303,1.1217 19.375,1.125 z"
       style="fill:none;stroke:#000000;stroke-width:0.89999998;stroke-linecap:butt;stroke-linejoin:miter;stroke-miterlimit:4;stroke-opacity:1;stroke-dasharray:none;display:inline" />
    <path
       inkscape:tile-y0="3966.8909"
       inkscape:tile-x0="2673"
       style="fill:none;stroke:#000000;stroke-width:0.89999998;stroke-linecap:butt;stroke-linejoin:miter;stroke-miterlimit:4;stroke-opacity:1;stroke-dasharray:none"
       d="m 1995.048,5412.7098 -40.5,0 0,-135 40.5,0 z"
       id="use3294"
       inkscape:connector-curvature="0"
       sodipodi:nodetypes="ccccc" />
    <path
       inkscape:tile-y0="3966.8909"
       inkscape:tile-x0="2673"
       style="fill:none;stroke:#000000;stroke-width:0.89999998;stroke-linecap:butt;stroke-linejoin:miter;stroke-miterlimit:4;stroke-opacity:1;stroke-dasharray:none"
       d="m 1995.048,4791.7537 -40.5,0 0,-135 40.5,0 z"
       id="use3296"
       inkscape:connector-curvature="0"
       sodipodi:nodetypes="ccccc" />
    <path
       inkscape:tile-y0="3966.8909"
       inkscape:tile-x0="2673"
       style="fill:none;stroke:#000000;stroke-width:0.89999998;stroke-linecap:butt;stroke-linejoin:miter;stroke-miterlimit:4;stroke-opacity:1;stroke-dasharray:none"
       d="m 1995.048,4123.4579 -40.5,0 0,-135 40.5,0 z"
       id="use3298"
       inkscape:connector-curvature="0"
       sodipodi:nodetypes="ccccc" />
    <path
       inkscape:tile-y0="3966.8909"
       inkscape:tile-x0="2673"
       style="fill:none;stroke:#000000;stroke-width:0.89999998;stroke-linecap:butt;stroke-linejoin:miter;stroke-miterlimit:4;stroke-opacity:1;stroke-dasharray:none"
       d="m 1948.7413,3596.743 0,-40.5 135,0 0,40.5 z"
       id="use3300"
       inkscape:connector-curvature="0"
       sodipodi:nodetypes="ccccc" />
    <path
       inkscape:tile-y0="3966.8909"
       inkscape:tile-x0="2673"
       style="fill:none;stroke:#000000;stroke-width:0.89999998;stroke-linecap:butt;stroke-linejoin:miter;stroke-miterlimit:4;stroke-opacity:1;stroke-dasharray:none"
       d="m 755.5443,3596.743 0,-40.5 135,0 0,40.5 z"
       id="use3302"
       inkscape:connector-curvature="0"
       sodipodi:nodetypes="ccccc" />
    <path
       inkscape:tile-y0="3966.8909"
       inkscape:tile-x0="2673"
       style="fill:none;stroke:#000000;stroke-width:0.89999998;stroke-linecap:butt;stroke-linejoin:miter;stroke-miterlimit:4;stroke-opacity:1;stroke-dasharray:none"
       d="m 1350.882,3596.743 0,-40.5 135,0 0,40.5 z"
       id="use3304"
       inkscape:connector-curvature="0"
       sodipodi:nodetypes="ccccc" />
  </g>
  <g
     inkscape:groupmode="layer"
     id="layer3"
     inkscape:label="Mirrors"
     style="display:inline" />
</svg>
