<svg xmlns="http://www.w3.org/2000/svg" viewBox="0 0 369.9 322.8"><defs><style>.cls-1{isolation:isolate;}.cls-2{opacity:0.4;}.cls-13,.cls-2,.cls-5{mix-blend-mode:multiply;}.cls-3{fill:url(#linear-gradient);}.cls-4{fill:#535353;}.cls-5{opacity:0.2;}.cls-6{fill:#c00;}.cls-7{fill:#7f7f7f;opacity:0.25;}.cls-8{fill:none;}.cls-9{fill:#333;}.cls-10{fill:#1d9aad;}.cls-11{fill:#fff;}.cls-12{fill:#363636;}.cls-13{fill:#b5b5b5;}</style><linearGradient id="linear-gradient" x1="127.94" y1="218.51" x2="272.06" y2="218.51" gradientUnits="userSpaceOnUse"><stop offset="0.73" stop-color="#fff"/><stop offset="0.84" stop-color="#fafafa"/><stop offset="0.96" stop-color="#ececec"/><stop offset="1" stop-color="#e6e6e6"/></linearGradient></defs><title>clipboard</title><g class="cls-1"><g id="Health_Information_Symbols" data-name="Health Information Symbols"><path class="cls-3" d="M127.94,134.36V302.67H272.06V134.36H127.94Z" transform="translate(-21.9 -38.65)"/><path class="cls-4" d="M280.12,325.35a5.44,5.44,0,0,0,5.44-5.44l0-192.54a5.44,5.44,0,0,0-5.44-5.44H119.9a5.44,5.44,0,0,0-5.44,5.44l0,192.55a5.44,5.44,0,0,0,5.44,5.44H280.12Zm-9.07-26H129V136.12H271V299.37Z" transform="translate(-21.9 -38.65)"/><path class="cls-6" d="M157.08,236.16a0.65,0.65,0,0,1-1,0L149.77,228l2.79-2.79,4,5.23,9.28-12.06,2.79,2.79Zm2.39-24.44a15.35,15.35,0,1,0,15.35,15.35A15.37,15.37,0,0,0,159.47,211.72Z" transform="translate(-21.9 -38.65)"/><path id="Check_Mark" data-name="Check Mark" class="cls-6" d="M157.08,277.37a0.65,0.65,0,0,1-1,0l-6.32-8.21,2.79-2.79,4,5.23,9.28-12.06,2.79,2.79Zm2.39-24.44a15.35,15.35,0,1,0,15.35,15.35A15.37,15.37,0,0,0,159.47,252.93Z" transform="translate(-21.9 -38.65)"/><path class="cls-6" d="M157.08,195a0.65,0.65,0,0,1-1,0l-6.32-8.21,2.79-2.79,4,5.23,9.28-12.06,2.79,2.79Zm2.39-24.44a15.35,15.35,0,1,0,15.35,15.35A15.37,15.37,0,0,0,159.47,170.52Z" transform="translate(-21.9 -38.65)"/><rect class="cls-7" x="157.92" y="138.34" width="30.21" height="4.74" rx="1" ry="1"/><rect class="cls-7" x="194.15" y="138.34" width="16.94" height="4.74" rx="1" ry="1"/><path class="cls-7" d="M251.73,180.73a1,1,0,0,1-1,1H240a1,1,0,0,1-1-1V178a1,1,0,0,1,1-1h10.74a1,1,0,0,1,1,1v2.73Z" transform="translate(-21.9 -38.65)"/><rect class="cls-7" x="157.92" y="149.08" width="25.74" height="4.74" rx="1" ry="1"/><rect class="cls-7" x="189.66" y="149.08" width="9.01" height="4.74" rx="1" ry="1"/><rect class="cls-7" x="157.92" y="181.28" width="33.22" height="4.74" rx="1" ry="1"/><rect class="cls-7" x="197.15" y="181.28" width="10.23" height="4.74" rx="1" ry="1"/><path class="cls-7" d="M246.94,223.67a1,1,0,0,1-1,1h-9.65a1,1,0,0,1-1-1v-2.74a1,1,0,0,1,1-1h9.65a1,1,0,0,1,1,1v2.74Z" transform="translate(-21.9 -38.65)"/><rect class="cls-7" x="157.93" y="192.02" width="40.42" height="4.74" rx="1" ry="1"/><rect class="cls-7" x="204.34" y="192.02" width="9.55" height="4.74" rx="1" ry="1"/><rect class="cls-7" x="157.93" y="221.77" width="9.02" height="4.74" rx="1" ry="1"/><rect class="cls-7" x="172.96" y="221.77" width="51.01" height="4.74" rx="1" ry="1"/><rect class="cls-7" x="157.93" y="232.52" width="17.18" height="4.74" rx="1" ry="1"/><rect class="cls-7" x="181.1" y="232.52" width="19.36" height="4.74" rx="1" ry="1"/><rect class="cls-7" x="206.66" y="232.52" width="15.19" height="4.74" rx="1" ry="1"/><path class="cls-8" d="M200.06,87.67h0a13.48,13.48,0,1,0,0,27h0.07A13.48,13.48,0,1,0,200.06,87.67Z" transform="translate(-21.9 -38.65)"/><path class="cls-4" d="M250.45,111.33a4.33,4.33,0,0,0-4.35-4.33l-20.2,0a26.53,26.53,0,1,0-51.69,0L154,107a4.34,4.34,0,0,0-4.35,4.33l0,39.32A4.34,4.34,0,0,0,154,155h92.18a4.34,4.34,0,0,0,4.33-4.35Zm-50.36,3.29H200a13.48,13.48,0,1,1,0-27h0A13.48,13.48,0,1,1,200.08,114.62Z" transform="translate(-21.9 -38.65)"/><path class="cls-9" d="M200,79.31a26.54,26.54,0,0,1,26.41,24.1c0.07-.76.12-1.52,0.12-2.29a26.53,26.53,0,0,0-53.06,0c0,0.77,0,1.53.12,2.29A26.54,26.54,0,0,1,200,79.31Z" transform="translate(-21.9 -38.65)"/><path class="cls-10" d="M200,92.74h0a13.49,13.49,0,0,1,13.25,10.95,13.47,13.47,0,0,0-13.25-16h0a13.47,13.47,0,0,0-13.25,16A13.49,13.49,0,0,1,200,92.74Z" transform="translate(-21.9 -38.65)"/><path class="cls-9" d="M200 92.74h0a13.49 13.49 0 0 1 13.25 10.95 13.47 13.47 0 0 0-13.25-16h0a13.47 13.47 0 0 0-13.25 16A13.49 13.49 0 0 1 200 92.74zM246.14 149.92H154a4.34 4.34 0 0 1-4.33-4.24v5A4.34 4.34 0 0 0 154 155h92.18a4.34 4.34 0 0 0 4.33-4.35v-5A4.34 4.34 0 0 1 246.14 149.92zM174.2 107v0L154 107a4.34 4.34 0 0 0-4.35 4.33v2.4h26.79A39.14 39.14 0 0 1 174.2 107zM225.9 107v0l20.2 0a4.34 4.34 0 0 1 4.35 4.33v2.4H223.66A39.23 39.23 0 0 0 225.9 107z" transform="translate(-21.9 -38.65)"/><path id="Search" class="cls-7" d="M334,205.68l-8.63-11.5a0.88,0.88,0,0,0-1.22-.26l-1.12-1.49a13.85,13.85,0,1,0-3.56,2.66l1.12,1.49a0.89,0.89,0,0,0-.09,1.25l8.63,11.5a0.89,0.89,0,0,0,1.22.26l3.55-2.67A0.89,0.89,0,0,0,334,205.68Zm-15.12-15.07a9.71,9.71,0,1,1,2-13.6A9.69,9.69,0,0,1,318.92,190.61Z" transform="translate(-21.9 -38.65)"/><path d="M290.52,208.51a40,40,0,1,0,40,40A40.08,40.08,0,0,0,290.52,208.51Z" transform="translate(-21.9 -38.65)"/><path class="cls-11" d="M294 260.42a6.22 6.22 0 0 1 0 12.43h-9.37a1.54 1.54 0 0 0-1.54 1.53v.11a2.3 2.3 0 1 1-4.6 0v-.11a6.15 6.15 0 0 1 6.14-6.14H294a1.61 1.61 0 0 0 0-3.22v-4.6zM284.57 249.37l0-4.6H280.1a1.61 1.61 0 0 1 0-3.22h18.8a6.15 6.15 0 1 0-.43-12.29c-2.64 0-4.79 1.54-4.79 2.75s2.14 2.75 4.79 2.75a8.14 8.14 0 0 0 1.15-.08.7.7 0 0 1 .56.16.7.7 0 0 1 .25.52.46.46 0 0 1 0 0 1.54 1.54 0 0 1-1.53 1.53H280.1a6.22 6.22 0 0 0 0 12.43h4.47zm16-17.48a1.23 1.23 0 1 1-1.23-1.23A1.23 1.23 0 0 1 300.57 231.89z" transform="translate(-21.9 -38.65)"/><path class="cls-11" d="M296.42,249.37H294l0-4.6h2.39a6.22,6.22,0,0,1,0,12.43H282.11a1.61,1.61,0,0,0,0,3.22h2.5l0,4.6h-2.52a6.22,6.22,0,0,1,0-12.43h14.31A1.61,1.61,0,0,0,296.42,249.37Z" transform="translate(-21.9 -38.65)"/><path class="cls-11" d="M265.42 221.26L269.37 221.26 269.34 228.22 265.45 228.22 265.42 221.26zM265.37 205.6L269.43 205.6 269.4 211.24 265.4 211.24 265.37 205.6z"/><path class="cls-11" d="M291.2 278.07a1.9 1.9 0 0 1-3.81 0v-2.51h3.83v2.51zM287.21 229.69a7 7 0 0 0-1.61-4.37 4.75 4.75 0 1 1 7.35 0 7 7 0 0 0-1.58 4.34l0 4.6h-4.12z" transform="translate(-21.9 -38.65)"/><circle class="cls-12" cx="67.91" cy="181.61" r="31.91"/><path id="Thumbs_Up" data-name="Thumbs Up" class="cls-11" d="M89.34,215.64H77.92a2.85,2.85,0,1,0,0,5.7,2.85,2.85,0,0,0,.69,5.41,2.85,2.85,0,0,0,1.08,5.11,2.85,2.85,0,0,0,1.61,5.2h9.27c7.9,0,12.43-3.87,12.43-12,0-6.54-1.89-9.29-8.17-15.22-2-1.87-2.2-5.17-2.2-6.27a1.8,1.8,0,0,0-1.85-2c-1.32,0-3.1,1.72-3.1,6.12s2,5.06,2.76,6.38S90.22,215.64,89.34,215.64Z" transform="translate(-21.9 -38.65)"/><path class="cls-7" d="M82.09,271.56a22.75,22.75,0,0,1,7.27-1.2c7,0,10.52,3.29,10.52,8.55,0,2.82-1.24,4.87-4.06,7l-2.78,2a2.27,2.27,0,0,0-.86,2v1.46a0.52,0.52,0,0,1-.56.55H86a0.52,0.52,0,0,1-.56-0.55v-1.46a7.67,7.67,0,0,1,3.63-7.1l3-2.1a1.92,1.92,0,0,0,1.07-1.75c0-1.11-1.62-2.1-3.72-2.1a16.11,16.11,0,0,0-5.26.86l-2.74.9a0.46,0.46,0,0,1-.68-0.34l-1.84-5a0.46,0.46,0,0,1,.34-0.69Zm10.86,26.13a3.91,3.91,0,1,1-7.83,0c0-2.52,1.45-4,3.89-4A3.61,3.61,0,0,1,92.95,297.69Z" transform="translate(-21.9 -38.65)"/><path class="cls-6" d="M322.69,90.77a32.9,32.9,0,1,0,32.9,32.89A32.93,32.93,0,0,0,322.69,90.77Z" transform="translate(-21.9 -38.65)"/><path class="cls-11" d="M333 112.42a2 2 0 1 1-4 0v-6.6a2 2 0 0 1 4 0v6.6zM316.4 112.42a2 2 0 1 1-4 0v-6.6a2 2 0 0 1 4 0v6.6z" transform="translate(-21.9 -38.65)"/><path class="cls-13" d="M343.17,112.07a2.92,2.92,0,0,0-2.92-2.92H334.6v3a3.61,3.61,0,0,1-7.23,0v-3H318v3a3.61,3.61,0,0,1-7.22,0v-3h-5.64a2.92,2.92,0,0,0-2.92,2.92v28.52a2.93,2.93,0,0,0,2.92,2.92h35.1a2.92,2.92,0,0,0,2.92-2.92V112.07Z" transform="translate(-21.9 -38.65)"/><path class="cls-11" d="M305.32,141.22a0.79,0.79,0,0,1-.79-0.79V118h36.32v22.39a0.79,0.79,0,0,1-.79.79H305.32Z" transform="translate(-21.9 -38.65)"/><path class="cls-7" d="M313.61 121.81a9.63 9.63 0 0 1 3.36-.6c3.55 0 5.64 1.7 5.64 4.58a3.14 3.14 0 0 1-1.87 3.13c-.25.14-.25.28 0 .39a4 4 0 0 1 2.42 3.89c0 3-2.3 4.84-6.18 4.84a11.91 11.91 0 0 1-3.75-.64l-1.54-.53a.24.24 0 0 1-.18-.37l.95-2.46a.25.25 0 0 1 .37-.18l1.47.48a9.29 9.29 0 0 0 2.7.48c1.57 0 2.51-.78 2.51-2.05s-.85-1.93-2.28-1.93h-1.36a.28.28 0 0 1-.3-.3V128a.28.28 0 0 1 .3-.3h1.34a1.51 1.51 0 0 0 1.75-1.45 1.73 1.73 0 0 0-2-1.75 7.09 7.09 0 0 0-2.37.44l-1.29.44a.26.26 0 0 1-.37-.18l-.88-2.53a.27.27 0 0 1 .18-.37zM328.36 137.8a.28.28 0 0 1-.3-.3v-9.29a11.67 11.67 0 0 1 .16-1.93A.21.21 0 0 0 328 126a1.32 1.32 0 0 0-.37.12l-1.5.58a.27.27 0 0 1-.39-.16L324.79 124a.27.27 0 0 1 .16-.39l6-2.3a.35.35 0 0 1 .41.07l.16.14a.39.39 0 0 1 .18.37V137.5a.28.28 0 0 1-.3.3h-3z" transform="translate(-21.9 -38.65)"/></g></g></svg>