<svg xmlns="http://www.w3.org/2000/svg" viewBox="0 0 690 330" enable-background="new 0 0 690 330"><style type="text/css">.st0{fill:#666666;}</style><path class="st0" d="M145.3 254.9h2.1l5.5 14.7H151l-1.3-3.6H143l-1.3 3.6h-2l5.6-14.7zm-1.8 9.6h5.7l-2.8-7.8-2.9 7.8zM155.8 260.1h-1.9v-1.3h1.9v-.9c0-3.1 1.7-4.2 4.2-4.2.6 0 1.3.1 1.8.3l-.4 1.3c-.3-.1-.8-.2-1.3-.2-1.6 0-2.5.8-2.5 2.8v1h3v1.3h-3v9.5h-1.7v-9.6zM164.3 260h-1.9v-1.3h1.9v-3.2h1.7v3.2h3.1v1.3H166v6.6c0 1.1.4 1.7 1.4 1.7.6 0 1.1-.2 1.6-.5l.7 1.1c-.7.5-1.6.8-2.5.8-2.1 0-3-1.1-3-3.1V260zM176.1 258.4c3.1 0 4.5 2.1 4.5 4.9 0 .3 0 .7-.1.9h-7.9c0 2.7 1.2 4.2 3.6 4.2 1.2 0 2.3-.4 3.2-1l.8 1.2c-1.1.8-2.6 1.3-4.1 1.3-3.3 0-5.2-2.2-5.2-5.8 0-3.5 2.3-5.7 5.2-5.7zm-3.4 4.6h6.2c0-1.8-.7-3.3-2.8-3.3-1.7 0-3 1.3-3.4 3.3zM183.5 258.7h1.6l.1 1.8c.8-1.4 2-2.1 3.3-2.1.5 0 1 .1 1.4.2l-.3 1.6c-.4-.1-.8-.2-1.3-.2-1.3 0-2.2.8-3.1 2.2v7.3h-1.7v-10.8zM198.2 272.5c.8 0 1.3-.3 1.7-1.3l.7-1.7-4.1-10.8h1.8l3.1 8.6 3-8.6h1.8l-4.6 12.7c-.8 2.1-1.9 2.6-3.4 2.6-.7 0-1.4-.1-1.9-.4l.5-1.4c.4.2.9.3 1.4.3zM212.7 258.4c3 0 5.2 2.2 5.2 5.6 0 3.6-2.1 5.8-5.2 5.8s-5.2-2.2-5.2-5.8c0-3.4 2.2-5.6 5.2-5.6zm0 10c2.1 0 3.4-1.8 3.4-4.5 0-2.5-1.4-4.2-3.4-4.2s-3.5 1.7-3.5 4.2c.1 2.8 1.4 4.5 3.5 4.5zM220.7 258.7h1.7v7.4c0 1.4.5 2.4 2.1 2.4 1.3 0 2.5-.7 3.4-1.7v-8h1.7v10.9H228l-.1-1.5c-.9.9-2.2 1.7-3.7 1.7-2.5 0-3.5-1.5-3.5-3.8v-7.4zM232.8 254.9h2v2c0 1.8-.7 2.7-2 3.3l-.4-.8c.9-.4 1.3-1.1 1.3-2.1h-.8v-2.4zM236.8 258.7h1.8l3 9 3-9h1.7l-3.9 10.9h-1.9l-3.7-10.9zM253 258.4c3.1 0 4.5 2.1 4.5 4.9 0 .3 0 .7-.1.9h-7.9c0 2.7 1.2 4.2 3.6 4.2 1.2 0 2.3-.4 3.2-1l.8 1.2c-1.1.8-2.6 1.3-4.1 1.3-3.3 0-5.2-2.2-5.2-5.8 0-3.5 2.2-5.7 5.2-5.7zm-3.4 4.6h6.2c0-1.8-.7-3.3-2.8-3.3-1.7 0-3.1 1.3-3.4 3.3zM265.3 263.9c0-3.5 1.8-5.5 4.4-5.5 1.4 0 2.6.7 3.5 1.7v-6.4h1.7v15.9h-1.5l-.2-1.4c-.9 1-2.1 1.7-3.5 1.7-2.7-.1-4.4-2.2-4.4-6zm7.9 2.9v-5.4c-.9-1-1.9-1.6-3.1-1.6-1.9 0-3.1 1.5-3.1 4.1 0 2.8 1.1 4.5 3.1 4.5 1.2 0 2.2-.6 3.1-1.6zM283 258.4c3.1 0 4.5 2.1 4.5 4.9 0 .3 0 .7-.1.9h-7.9c0 2.7 1.2 4.2 3.6 4.2 1.2 0 2.3-.4 3.2-1l.8 1.2c-1.1.8-2.6 1.3-4.1 1.3-3.3 0-5.2-2.2-5.2-5.8 0-3.5 2.2-5.7 5.2-5.7zm-3.4 4.6h6.2c0-1.8-.7-3.3-2.8-3.3-1.7 0-3 1.3-3.4 3.3zM290.4 253.7h1.7v15.9h-1.7v-15.9zM295.5 253.9h1.7v2h-1.7v-2zm0 4.8h1.7v10.8h-1.7v-10.8zM299.5 258.7h1.8l3 9 3-9h1.7l-3.9 10.9h-1.9l-3.7-10.9zM315.7 258.4c3.1 0 4.5 2.1 4.5 4.9 0 .3 0 .7-.1.9h-7.9c0 2.7 1.2 4.2 3.6 4.2 1.2 0 2.3-.4 3.2-1l.8 1.2c-1.1.8-2.6 1.3-4.1 1.3-3.3 0-5.2-2.2-5.2-5.8 0-3.5 2.3-5.7 5.2-5.7zm-3.4 4.6h6.2c0-1.8-.7-3.3-2.8-3.3-1.7 0-3 1.3-3.4 3.3zM323 258.7h1.6l.1 1.8c.8-1.4 2-2.1 3.3-2.1.5 0 1 .1 1.4.2l-.3 1.6c-.4-.1-.8-.2-1.3-.2-1.3 0-2.2.8-3.1 2.2v7.3H323v-10.8zM336 258.4c3.1 0 4.5 2.1 4.5 4.9 0 .3 0 .7-.1.9h-7.9c0 2.7 1.2 4.2 3.6 4.2 1.2 0 2.3-.4 3.2-1l.8 1.2c-1.1.8-2.6 1.3-4.1 1.3-3.3 0-5.2-2.2-5.2-5.8 0-3.5 2.2-5.7 5.2-5.7zm-3.4 4.6h6.2c0-1.8-.7-3.3-2.8-3.3-1.7 0-3.1 1.3-3.4 3.3zM342.8 263.9c0-3.5 1.8-5.5 4.4-5.5 1.4 0 2.6.7 3.5 1.7v-6.4h1.7v15.9h-1.5l-.2-1.4c-.9 1-2.1 1.7-3.5 1.7-2.7-.1-4.4-2.2-4.4-6zm7.9 2.9v-5.4c-.9-1-1.9-1.6-3.1-1.6-1.9 0-3.1 1.5-3.1 4.1 0 2.8 1.1 4.5 3.1 4.5 1.2 0 2.2-.6 3.1-1.6zM360.2 258.7h1.8l3 9 3-9h1.7l-3.9 10.9h-1.9l-3.7-10.9zM378.2 263.3v-1.6c0-1.1-.6-1.9-2.1-1.9-1.1 0-2.4.5-3.4 1l-.7-1.4c1.2-.6 2.7-1.1 4.2-1.1 2.7 0 3.8 1.4 3.8 3.3v5.4c0 .8.4 1.1 1.1 1.1v1.3c-1.5 0-2.2-.4-2.6-1.4-.8.9-2 1.6-3.6 1.6-1.9 0-3.2-1.1-3.2-2.8-.1-2.5 3.1-3.3 6.5-3.5zm-3 5.2c1.3 0 2.4-.6 3-1.4v-2.6c-2.2.1-4.8.5-4.8 2.5 0 .8.7 1.5 1.8 1.5zM383.6 253.7h1.7v15.9h-1.7v-15.9zM388.7 258.7h1.7v7.4c0 1.4.5 2.4 2.1 2.4 1.3 0 2.5-.7 3.4-1.7v-8h1.7v10.9H396l-.1-1.5c-.9.9-2.2 1.7-3.7 1.7-2.5 0-3.5-1.5-3.5-3.8v-7.4zM405.6 258.4c3.1 0 4.5 2.1 4.5 4.9 0 .3 0 .7-.1.9h-7.9c0 2.7 1.2 4.2 3.6 4.2 1.2 0 2.3-.4 3.2-1l.8 1.2c-1.1.8-2.6 1.3-4.1 1.3-3.3 0-5.2-2.2-5.2-5.8 0-3.5 2.2-5.7 5.2-5.7zm-3.4 4.6h6.2c0-1.8-.7-3.3-2.8-3.3-1.7 0-3 1.3-3.4 3.3zM418.5 258.7h1.6l.1 1.4c.9-.9 2.2-1.7 3.6-1.7 1.6 0 2.5.7 3 1.8 1-1 2.4-1.8 3.9-1.8 2.3 0 3.3 1.5 3.3 3.8v7.4h-1.7v-7.5c0-1.4-.5-2.3-2-2.3-1.2 0-2.3.6-3.2 1.6v8.1h-1.8V262c0-1.4-.5-2.3-2-2.3-1.2 0-2.4.6-3.2 1.7v8.1h-1.7v-10.8zM442.1 258.4c3 0 5.2 2.2 5.2 5.6 0 3.6-2.1 5.8-5.2 5.8s-5.2-2.2-5.2-5.8c-.1-3.4 2.2-5.6 5.2-5.6zm0 10c2.1 0 3.4-1.8 3.4-4.5 0-2.5-1.4-4.2-3.4-4.2s-3.5 1.7-3.5 4.2c0 2.8 1.3 4.5 3.5 4.5zM450.1 258.7h1.6l.1 1.8c.8-1.4 2-2.1 3.3-2.1.5 0 1 .1 1.4.2l-.3 1.6c-.4-.1-.8-.2-1.3-.2-1.3 0-2.2.8-3.1 2.2v7.3h-1.7v-10.8zM463 258.4c3.1 0 4.5 2.1 4.5 4.9 0 .3 0 .7-.1.9h-7.9c0 2.7 1.2 4.2 3.6 4.2 1.2 0 2.3-.4 3.2-1l.8 1.2c-1.1.8-2.6 1.3-4.1 1.3-3.3 0-5.2-2.2-5.2-5.8 0-3.5 2.3-5.7 5.2-5.7zm-3.4 4.6h6.2c0-1.8-.7-3.3-2.8-3.3-1.7 0-3 1.3-3.4 3.3zM476.7 260h-1.9v-1.3h1.9v-3.2h1.7v3.2h3.1v1.3h-3.1v6.6c0 1.1.4 1.7 1.4 1.7.6 0 1.1-.2 1.6-.5l.7 1.1c-.7.5-1.6.8-2.5.8-2.1 0-3-1.1-3-3.1V260zM484.4 253.7h1.7v6.4c.9-1 2.2-1.7 3.7-1.7 2.5 0 3.4 1.5 3.4 3.8v7.4h-1.7v-7.4c0-1.4-.6-2.4-2.1-2.4-1.3 0-2.4.7-3.3 1.7v8h-1.7v-15.8zM502.4 263.3v-1.6c0-1.1-.6-1.9-2.1-1.9-1.1 0-2.4.5-3.4 1l-.7-1.4c1.2-.6 2.7-1.1 4.2-1.1 2.7 0 3.8 1.4 3.8 3.3v5.4c0 .8.4 1.1 1.1 1.1v1.3c-1.5 0-2.2-.4-2.6-1.4-.8.9-2 1.6-3.6 1.6-1.9 0-3.2-1.1-3.2-2.8 0-2.5 3.2-3.3 6.5-3.5zm-3 5.2c1.3 0 2.4-.6 3-1.4v-2.6c-2.2.1-4.8.5-4.8 2.5 0 .8.7 1.5 1.8 1.5zM507.7 258.7h1.6l.1 1.5c.9-1 2.2-1.7 3.7-1.7 2.5 0 3.4 1.5 3.4 3.8v7.4h-1.7v-7.4c0-1.4-.6-2.4-2.1-2.4-1.3 0-2.5.7-3.3 1.7v8h-1.7v-10.9zM530.2 258.4c3 0 5.2 2.2 5.2 5.6 0 3.6-2.1 5.8-5.2 5.8-3.2 0-5.2-2.2-5.2-5.8-.1-3.4 2.2-5.6 5.2-5.6zm0 10c2.1 0 3.4-1.8 3.4-4.5 0-2.5-1.4-4.2-3.4-4.2s-3.5 1.7-3.5 4.2c0 2.8 1.3 4.5 3.5 4.5zM538.2 258.7h1.6l.1 1.5c.9-1 2.2-1.7 3.7-1.7 2.5 0 3.4 1.5 3.4 3.8v7.4h-1.7v-7.4c0-1.4-.6-2.4-2.1-2.4-1.3 0-2.5.7-3.3 1.7v8h-1.7v-10.9zM555.1 258.4c1.4 0 2.6.5 3.5 1.2l-.9 1.2c-.6-.5-1.4-.9-2.6-.9-2 0-3.5 1.6-3.5 4.1 0 2.7 1.4 4.4 3.5 4.4 1.2 0 2-.4 2.7-1l1 1.1c-1.1.9-2.2 1.4-3.8 1.4-3.1 0-5.2-2.2-5.2-5.8.1-3.6 2.2-5.7 5.3-5.7zM565.6 258.4c3.1 0 4.5 2.1 4.5 4.9 0 .3 0 .7-.1.9h-7.9c0 2.7 1.2 4.2 3.6 4.2 1.2 0 2.3-.4 3.2-1l.8 1.2c-1.1.8-2.6 1.3-4.1 1.3-3.3 0-5.2-2.2-5.2-5.8 0-3.5 2.3-5.7 5.2-5.7zm-3.4 4.6h6.2c0-1.8-.7-3.3-2.8-3.3-1.7 0-3 1.3-3.4 3.3zM572.5 267.1h2v2c0 1.8-.7 2.7-2 3.3l-.4-.8c.9-.4 1.3-1.1 1.3-2.1h-.8v-2.4zM146.7 289.3v-1.6c0-1.1-.6-1.9-2.1-1.9-1.1 0-2.4.5-3.4 1l-.7-1.4c1.2-.6 2.7-1.1 4.2-1.1 2.7 0 3.8 1.4 3.8 3.3v5.4c0 .8.4 1.1 1.1 1.1v1.3c-1.5 0-2.2-.4-2.6-1.4-.8.9-2 1.6-3.6 1.6-1.9 0-3.2-1.1-3.2-2.8-.1-2.5 3.1-3.3 6.5-3.5zm-3 5.2c1.3 0 2.4-.6 3-1.4v-2.6c-2.2.1-4.8.5-4.8 2.5-.1.8.7 1.5 1.8 1.5zM152.3 293.4c.9.5 2.1 1 3.4 1 1.5 0 2.4-.6 2.4-1.7 0-2.7-6.4-1-6.4-5.2 0-2 1.7-3.1 3.9-3.1 1.2 0 2.5.3 3.7.9l-.7 1.3c-.9-.5-2.1-.8-3-.8-1.3 0-2.2.6-2.2 1.7 0 2.7 6.3.9 6.3 5.1 0 2-1.6 3.2-4.1 3.2-1.6 0-3-.4-4.2-1.1l.9-1.3zM162.4 279.7h1.7v10.5l4.9-5.6h2l-3.3 3.7 3.8 7.2h-2l-3-5.9-2.4 2.6v3.3h-1.7v-15.8zM180 286.1h-1.9v-1.3h1.9v-.9c0-3.1 1.7-4.2 4.2-4.2.6 0 1.3.1 1.8.3l-.4 1.3c-.3-.1-.8-.2-1.3-.2-1.6 0-2.5.8-2.5 2.8v1h3v1.3h-3v9.5H180v-9.6zM191.6 284.4c3 0 5.2 2.2 5.2 5.6 0 3.6-2.1 5.8-5.2 5.8s-5.2-2.2-5.2-5.8c0-3.4 2.2-5.6 5.2-5.6zm0 10c2.1 0 3.4-1.8 3.4-4.5 0-2.5-1.4-4.2-3.4-4.2s-3.5 1.7-3.5 4.2c0 2.8 1.4 4.5 3.5 4.5zM199.6 284.7h1.6l.1 1.8c.8-1.4 2-2.1 3.3-2.1.5 0 1 .1 1.4.2l-.3 1.6c-.4-.1-.8-.2-1.3-.2-1.3 0-2.2.8-3.1 2.2v7.3h-1.7v-10.8zM212.6 284.7h1.8l2.9 8.7 2.6-8.7h1.6l2.6 8.7 2.9-8.7h1.7l-3.7 10.9h-1.7l-2.6-8.5-2.6 8.5h-1.7l-3.8-10.9zM231.1 279.7h1.7v6.4c.9-1 2.2-1.7 3.7-1.7 2.5 0 3.4 1.5 3.4 3.8v7.4h-1.7v-7.4c0-1.4-.6-2.4-2.1-2.4-1.3 0-2.4.7-3.3 1.7v8h-1.7v-15.8zM249.1 289.3v-1.6c0-1.1-.6-1.9-2.1-1.9-1.1 0-2.4.5-3.4 1l-.7-1.4c1.2-.6 2.7-1.1 4.2-1.1 2.7 0 3.8 1.4 3.8 3.3v5.4c0 .8.4 1.1 1.1 1.1v1.3c-1.5 0-2.2-.4-2.6-1.4-.8.9-2 1.6-3.6 1.6-1.9 0-3.2-1.1-3.2-2.8 0-2.5 3.2-3.3 6.5-3.5zm-2.9 5.2c1.3 0 2.4-.6 3-1.4v-2.6c-2.2.1-4.8.5-4.8 2.5-.1.8.6 1.5 1.8 1.5zM255.1 286h-1.9v-1.3h1.9v-3.2h1.7v3.2h3.1v1.3h-3.1v6.6c0 1.1.4 1.7 1.4 1.7.6 0 1.1-.2 1.6-.5l.7 1.1c-.7.5-1.6.8-2.5.8-2.1 0-3-1.1-3-3.1V286zM268.7 298.5c.8 0 1.3-.3 1.7-1.3l.7-1.7-4.1-10.8h1.8l3.1 8.6 3-8.6h1.8l-4.6 12.7c-.8 2.1-1.9 2.6-3.4 2.6-.7 0-1.4-.1-1.9-.4l.5-1.4c.5.2 1 .3 1.4.3zM283.3 284.4c3 0 5.2 2.2 5.2 5.6 0 3.6-2.1 5.8-5.2 5.8-3.2 0-5.2-2.2-5.2-5.8-.1-3.4 2.2-5.6 5.2-5.6zm0 10c2.1 0 3.4-1.8 3.4-4.5 0-2.5-1.4-4.2-3.4-4.2s-3.5 1.7-3.5 4.2c0 2.8 1.3 4.5 3.5 4.5zM291.3 284.7h1.7v7.4c0 1.4.5 2.4 2.1 2.4 1.3 0 2.5-.7 3.4-1.7v-8h1.7v10.9h-1.6l-.1-1.5c-.9.9-2.2 1.7-3.7 1.7-2.5 0-3.5-1.5-3.5-3.8v-7.4zM307.9 284.7h1.8l2.9 8.7 2.6-8.7h1.6l2.6 8.7 2.9-8.7h1.7l-3.7 10.9h-1.7l-2.6-8.5-2.6 8.5h-1.7l-3.8-10.9zM332.4 289.3v-1.6c0-1.1-.6-1.9-2.1-1.9-1.1 0-2.4.5-3.4 1l-.7-1.4c1.2-.6 2.7-1.1 4.2-1.1 2.7 0 3.8 1.4 3.8 3.3v5.4c0 .8.4 1.1 1.1 1.1v1.3c-1.5 0-2.2-.4-2.6-1.4-.8.9-2 1.6-3.6 1.6-1.9 0-3.2-1.1-3.2-2.8-.1-2.5 3.1-3.3 6.5-3.5zm-3 5.2c1.3 0 2.4-.6 3-1.4v-2.6c-2.2.1-4.8.5-4.8 2.5 0 .8.7 1.5 1.8 1.5zM337.7 284.7h1.6l.1 1.5c.9-1 2.2-1.7 3.7-1.7 2.5 0 3.4 1.5 3.4 3.8v7.4h-1.7v-7.4c0-1.4-.6-2.4-2.1-2.4-1.3 0-2.5.7-3.3 1.7v8h-1.7v-10.9zM350.6 286h-1.9v-1.3h1.9v-3.2h1.7v3.2h3.1v1.3h-3.1v6.6c0 1.1.4 1.7 1.4 1.7.6 0 1.1-.2 1.6-.5l.7 1.1c-.7.5-1.6.8-2.5.8-2.1 0-3-1.1-3-3.1V286zM125.1 254.7v18h-18v-18h18m3-3h-24v24h24v-24zM140.9 199.4h6.2c3.7 0 5.1 2.2 5.1 4.4 0 1.8-1 3.5-3.1 4.1l3.1 6.2h-2l-2.8-5.9H142.8v5.9H141v-14.7zm6.1 7.3c2.4 0 3.3-1.5 3.3-2.9 0-1.5-.9-2.9-3.3-2.9h-4.3v5.8h4.3zM155.1 198.5h1.7v2h-1.7v-2zm0 4.8h1.7v10.8h-1.7v-10.8zM160.2 203.2h1.6l.1 1.5c.9-1 2.2-1.7 3.7-1.7 2.5 0 3.4 1.5 3.4 3.8v7.4h-1.7v-7.4c0-1.4-.6-2.4-2.1-2.4-1.3 0-2.5.7-3.3 1.7v8h-1.7v-10.9zM172.4 212c.9.5 2.1 1 3.4 1 1.5 0 2.4-.6 2.4-1.7 0-2.7-6.4-1-6.4-5.2 0-2 1.7-3.1 3.9-3.1 1.2 0 2.5.3 3.7.9l-.7 1.3c-.9-.5-2.1-.8-3-.8-1.3 0-2.2.6-2.2 1.7 0 2.7 6.3.9 6.3 5.1 0 2-1.6 3.2-4.1 3.2-1.6 0-3-.4-4.2-1.1l.9-1.3zM187.2 202.9c3.1 0 4.5 2.1 4.5 4.9 0 .3 0 .7-.1.9h-7.9c0 2.7 1.2 4.2 3.6 4.2 1.2 0 2.3-.4 3.2-1l.8 1.2c-1.1.8-2.6 1.3-4.1 1.3-3.3 0-5.2-2.2-5.2-5.8 0-3.5 2.2-5.7 5.2-5.7zm-3.4 4.6h6.2c0-1.8-.7-3.3-2.8-3.3-1.8.1-3.1 1.3-3.4 3.3zM206 207.9v-1.6c0-1.1-.6-1.9-2.1-1.9-1.1 0-2.4.5-3.4 1l-.7-1.4c1.2-.6 2.7-1.1 4.2-1.1 2.7 0 3.8 1.4 3.8 3.3v5.4c0 .8.4 1.1 1.1 1.1v1.3c-1.5 0-2.2-.4-2.6-1.4-.8.9-2 1.6-3.6 1.6-1.9 0-3.2-1.1-3.2-2.8 0-2.6 3.2-3.4 6.5-3.5zm-3 5.1c1.3 0 2.4-.6 3-1.4V209c-2.2.1-4.8.5-4.8 2.5 0 .9.7 1.5 1.8 1.5zM211.3 203.2h1.6l.1 1.5c.9-1 2.2-1.7 3.7-1.7 2.5 0 3.4 1.5 3.4 3.8v7.4h-1.7v-7.4c0-1.4-.6-2.4-2.1-2.4-1.3 0-2.5.7-3.3 1.7v8h-1.7v-10.9zM223.1 208.5c0-3.5 1.8-5.5 4.4-5.5 1.4 0 2.6.7 3.5 1.7v-6.4h1.7v15.9h-1.5l-.2-1.4c-.9 1-2.1 1.7-3.5 1.7-2.8-.2-4.4-2.3-4.4-6zm7.8 2.8V206c-.9-1-1.9-1.6-3.1-1.6-1.9 0-3.1 1.5-3.1 4.1 0 2.8 1.1 4.5 3.1 4.5 1.3-.1 2.2-.6 3.1-1.7zM241.6 203.2h1.6l.1 1.8c.8-1.4 2-2.1 3.3-2.1.5 0 1 .1 1.4.2l-.3 1.6c-.4-.1-.8-.2-1.3-.2-1.3 0-2.2.8-3.1 2.2v7.3h-1.7v-10.8zM254.6 202.9c3.1 0 4.5 2.1 4.5 4.9 0 .3 0 .7-.1.9h-7.9c0 2.7 1.2 4.2 3.6 4.2 1.2 0 2.3-.4 3.2-1l.8 1.2c-1.1.8-2.6 1.3-4.1 1.3-3.3 0-5.2-2.2-5.2-5.8 0-3.5 2.2-5.7 5.2-5.7zm-3.4 4.6h6.2c0-1.8-.7-3.3-2.8-3.3-1.7.1-3.1 1.3-3.4 3.3zM263.7 218.3H262v-15.1h1.5l.1 1.4c.9-1 2.1-1.7 3.5-1.7 2.6 0 4.4 2 4.4 5.5 0 3.7-1.7 5.9-4.4 5.9-1.4 0-2.6-.7-3.5-1.7v5.7zm3.1-5.4c2 0 3-1.7 3-4.5 0-2.6-1.1-4.1-3.1-4.1-1.2 0-2.2.6-3.1 1.6v5.4c.9 1.1 2 1.6 3.2 1.6zM279.1 202.9c3.1 0 4.5 2.1 4.5 4.9 0 .3 0 .7-.1.9h-7.9c0 2.7 1.2 4.2 3.6 4.2 1.2 0 2.3-.4 3.2-1l.8 1.2c-1.1.8-2.6 1.3-4.1 1.3-3.3 0-5.2-2.2-5.2-5.8 0-3.5 2.2-5.7 5.2-5.7zm-3.4 4.6h6.2c0-1.8-.7-3.3-2.8-3.3-1.7.1-3.1 1.3-3.4 3.3zM292.1 207.9v-1.6c0-1.1-.6-1.9-2.1-1.9-1.1 0-2.4.5-3.4 1l-.7-1.4c1.2-.6 2.7-1.1 4.2-1.1 2.7 0 3.8 1.4 3.8 3.3v5.4c0 .8.4 1.1 1.1 1.1v1.3c-1.5 0-2.2-.4-2.6-1.4-.8.9-2 1.6-3.6 1.6-1.9 0-3.2-1.1-3.2-2.8 0-2.6 3.2-3.4 6.5-3.5zm-3 5.1c1.3 0 2.4-.6 3-1.4V209c-2.2.1-4.8.5-4.8 2.5 0 .9.7 1.5 1.8 1.5zM298 204.5h-1.9v-1.3h1.9V200h1.7v3.2h3.1v1.3h-3.1v6.6c0 1.1.4 1.7 1.4 1.7.6 0 1.1-.2 1.6-.5l.7 1.1c-.7.5-1.6.8-2.5.8-2.1 0-3-1.1-3-3.1v-6.6zM125.1 198.5v18h-18v-18h18m3-3h-24v24h24v-24zM147.7 142.9c1.8 0 3.5.5 4.9 1.6l-1 1.3c-1.1-.9-2.4-1.3-3.9-1.3-3.4 0-5.6 2.4-5.6 5.9 0 3.7 2.2 6.2 5.6 6.2 1.6 0 3-.6 4.1-1.6l1.1 1.2c-1.4 1.3-3.2 2-5.2 2-4.4 0-7.4-3.1-7.4-7.7-.1-4.5 3-7.6 7.4-7.6zM160 146.7c3 0 5.2 2.2 5.2 5.6 0 3.6-2.1 5.8-5.2 5.8-3.2 0-5.2-2.2-5.2-5.8 0-3.4 2.2-5.6 5.2-5.6zm0 10.1c2.1 0 3.4-1.8 3.4-4.5 0-2.5-1.4-4.2-3.4-4.2s-3.5 1.7-3.5 4.2c0 2.7 1.4 4.5 3.5 4.5zM168 147h1.6l.1 1.5c.9-1 2.2-1.7 3.7-1.7 2.5 0 3.4 1.5 3.4 3.8v7.4h-1.7v-7.4c0-1.4-.6-2.4-2.1-2.4-1.3 0-2.5.7-3.3 1.7v8H168V147zM181 148.3h-1.9V147h1.9v-3.2h1.7v3.2h3.1v1.3h-3.1v6.6c0 1.1.4 1.7 1.4 1.7.6 0 1.1-.2 1.6-.5l.7 1.1c-.7.5-1.6.8-2.5.8-2.1 0-3-1.1-3-3.1v-6.6zM194.7 151.6V150c0-1.1-.6-1.9-2.1-1.9-1.1 0-2.4.5-3.4 1l-.7-1.4c1.2-.6 2.7-1.1 4.2-1.1 2.7 0 3.8 1.4 3.8 3.3v5.4c0 .8.4 1.1 1.1 1.1v1.3c-1.5 0-2.2-.4-2.6-1.4-.8.9-2 1.6-3.6 1.6-1.9 0-3.2-1.1-3.2-2.8-.1-2.5 3.1-3.3 6.5-3.5zm-3 5.2c1.3 0 2.4-.6 3-1.4v-2.6c-2.2.1-4.8.5-4.8 2.5-.1.9.7 1.5 1.8 1.5zM204.5 146.7c1.4 0 2.6.5 3.5 1.2l-.9 1.2c-.6-.5-1.4-.9-2.6-.9-2 0-3.5 1.6-3.5 4.1 0 2.7 1.4 4.4 3.5 4.4 1.2 0 2-.4 2.7-1l1 1.1c-1.1.9-2.2 1.4-3.8 1.4-3.1 0-5.2-2.2-5.2-5.8.1-3.5 2.3-5.7 5.3-5.7zM211.9 148.3H210V147h1.9v-3.2h1.7v3.2h3.1v1.3h-3.1v6.6c0 1.1.4 1.7 1.4 1.7.6 0 1.1-.2 1.6-.5l.7 1.1c-.7.5-1.6.8-2.5.8-2.1 0-3-1.1-3-3.1v-6.6zM225.8 148.3h-1.9V147h1.9v-3.2h1.7v3.2h3.1v1.3h-3.1v6.6c0 1.1.4 1.7 1.4 1.7.6 0 1.1-.2 1.6-.5l.7 1.1c-.7.5-1.6.8-2.5.8-2.1 0-3-1.1-3-3.1v-6.6zM233.5 142h1.7v6.4c.9-1 2.2-1.7 3.7-1.7 2.5 0 3.4 1.5 3.4 3.8v7.4h-1.7v-7.4c0-1.4-.6-2.4-2.1-2.4-1.3 0-2.4.7-3.3 1.7v8h-1.7V142zM250.4 146.7c3.1 0 4.5 2.1 4.5 4.9 0 .3 0 .7-.1.9h-7.9c0 2.7 1.2 4.2 3.6 4.2 1.2 0 2.3-.4 3.2-1l.8 1.2c-1.1.8-2.6 1.3-4.1 1.3-3.3 0-5.2-2.2-5.2-5.8 0-3.5 2.2-5.7 5.2-5.7zm-3.4 4.6h6.2c0-1.8-.7-3.3-2.8-3.3-1.7.1-3.1 1.3-3.4 3.3zM257.7 147h1.6l.1 1.4c.9-.9 2.2-1.7 3.6-1.7 1.6 0 2.5.7 3 1.8 1.1-1 2.4-1.8 3.9-1.8 2.3 0 3.3 1.5 3.3 3.8v7.4h-1.7v-7.5c0-1.4-.5-2.3-2-2.3-1.2 0-2.3.6-3.2 1.6v8.1h-1.8v-7.5c0-1.4-.5-2.3-2-2.3-1.2 0-2.4.6-3.2 1.7v8.1h-1.7V147zM288 151.6V150c0-1.1-.6-1.9-2.1-1.9-1.1 0-2.4.5-3.4 1l-.7-1.4c1.2-.6 2.7-1.1 4.2-1.1 2.7 0 3.8 1.4 3.8 3.3v5.4c0 .8.4 1.1 1.1 1.1v1.3c-1.5 0-2.2-.4-2.6-1.4-.8.9-2 1.6-3.6 1.6-1.9 0-3.2-1.1-3.2-2.8 0-2.5 3.2-3.3 6.5-3.5zm-2.9 5.2c1.3 0 2.4-.6 3-1.4v-2.6c-2.2.1-4.8.5-4.8 2.5-.1.9.6 1.5 1.8 1.5zM293.4 147h1.6l.1 1.5c.9-1 2.2-1.7 3.7-1.7 2.5 0 3.4 1.5 3.4 3.8v7.4h-1.7v-7.4c0-1.4-.6-2.4-2.1-2.4-1.3 0-2.5.7-3.3 1.7v8h-1.7V147zM305.1 152.3c0-3.5 1.8-5.5 4.4-5.5 1.4 0 2.6.7 3.5 1.7V142h1.7v15.9h-1.5l-.2-1.4c-.9 1-2.1 1.7-3.5 1.7-2.8-.1-4.4-2.2-4.4-5.9zm7.9 2.8v-5.4c-.9-1-1.9-1.6-3.1-1.6-1.9 0-3.1 1.5-3.1 4.1 0 2.8 1.1 4.5 3.1 4.5 1.2 0 2.2-.5 3.1-1.6zM323.1 152.3c0-3.5 1.8-5.5 4.4-5.5 1.4 0 2.6.7 3.5 1.7V142h1.7v15.9h-1.5l-.2-1.4c-.9 1-2.1 1.7-3.5 1.7-2.7-.1-4.4-2.2-4.4-5.9zm7.9 2.8v-5.4c-.9-1-1.9-1.6-3.1-1.6-1.9 0-3.1 1.5-3.1 4.1 0 2.8 1.1 4.5 3.1 4.5 1.2 0 2.2-.5 3.1-1.6zM340.8 146.7c3.1 0 4.5 2.1 4.5 4.9 0 .3 0 .7-.1.9h-7.9c0 2.7 1.2 4.2 3.6 4.2 1.2 0 2.3-.4 3.2-1l.8 1.2c-1.1.8-2.6 1.3-4.1 1.3-3.3 0-5.2-2.2-5.2-5.8 0-3.5 2.2-5.7 5.2-5.7zm-3.4 4.6h6.2c0-1.8-.7-3.3-2.8-3.3-1.7.1-3.1 1.3-3.4 3.3zM348.1 142h1.7v15.9h-1.7V142zM353.3 142.3h1.7v2h-1.7v-2zm0 4.7h1.7v10.8h-1.7V147zM357.3 147h1.8l3 9 3-9h1.7l-3.9 10.9H361l-3.7-10.9zM373.5 146.7c3.1 0 4.5 2.1 4.5 4.9 0 .3 0 .7-.1.9H370c0 2.7 1.2 4.2 3.6 4.2 1.2 0 2.3-.4 3.2-1l.8 1.2c-1.1.8-2.6 1.3-4.1 1.3-3.3 0-5.2-2.2-5.2-5.8 0-3.5 2.2-5.7 5.2-5.7zm-3.4 4.6h6.2c0-1.8-.7-3.3-2.8-3.3-1.7.1-3.1 1.3-3.4 3.3zM380.8 147h1.6l.1 1.8c.8-1.4 2-2.1 3.3-2.1.5 0 1 .1 1.4.2l-.3 1.6c-.4-.1-.8-.2-1.3-.2-1.3 0-2.2.8-3.1 2.2v7.3h-1.7V147zM395.8 148.3h-1.9V147h1.9v-3.2h1.7v3.2h3.1v1.3h-3.1v6.6c0 1.1.4 1.7 1.4 1.7.6 0 1.1-.2 1.6-.5l.7 1.1c-.7.5-1.6.8-2.5.8-2.1 0-3-1.1-3-3.1v-6.6zM403.5 142h1.7v6.4c.9-1 2.2-1.7 3.7-1.7 2.5 0 3.4 1.5 3.4 3.8v7.4h-1.7v-7.4c0-1.4-.6-2.4-2.1-2.4-1.3 0-2.4.7-3.3 1.7v8h-1.7V142zM421.5 151.6V150c0-1.1-.6-1.9-2.1-1.9-1.1 0-2.4.5-3.4 1l-.7-1.4c1.2-.6 2.7-1.1 4.2-1.1 2.7 0 3.8 1.4 3.8 3.3v5.4c0 .8.4 1.1 1.1 1.1v1.3c-1.5 0-2.2-.4-2.6-1.4-.8.9-2 1.6-3.6 1.6-1.9 0-3.2-1.1-3.2-2.8-.1-2.5 3.1-3.3 6.5-3.5zm-3 5.2c1.3 0 2.4-.6 3-1.4v-2.6c-2.2.1-4.8.5-4.8 2.5-.1.9.7 1.5 1.8 1.5zM427.4 148.3h-1.9V147h1.9v-3.2h1.7v3.2h3.1v1.3h-3.1v6.6c0 1.1.4 1.7 1.4 1.7.6 0 1.1-.2 1.6-.5l.7 1.1c-.7.5-1.6.8-2.5.8-2.1 0-3-1.1-3-3.1v-6.6zM439.3 147h1.8l3 9 3-9h1.7l-3.9 10.9H443l-3.7-10.9zM457.3 151.6V150c0-1.1-.6-1.9-2.1-1.9-1.1 0-2.4.5-3.4 1l-.7-1.4c1.2-.6 2.7-1.1 4.2-1.1 2.7 0 3.8 1.4 3.8 3.3v5.4c0 .8.4 1.1 1.1 1.1v1.3c-1.5 0-2.2-.4-2.6-1.4-.8.9-2 1.6-3.6 1.6-1.9 0-3.2-1.1-3.2-2.8-.1-2.5 3.1-3.3 6.5-3.5zm-3 5.2c1.3 0 2.4-.6 3-1.4v-2.6c-2.2.1-4.8.5-4.8 2.5-.1.9.7 1.5 1.8 1.5zM462.7 142h1.7v15.9h-1.7V142zM467.7 147h1.7v7.4c0 1.4.5 2.4 2.1 2.4 1.3 0 2.5-.7 3.4-1.7v-8h1.7V158H475l-.1-1.5c-.9.9-2.2 1.7-3.7 1.7-2.5 0-3.5-1.5-3.5-3.8V147zM484.7 146.7c3.1 0 4.5 2.1 4.5 4.9 0 .3 0 .7-.1.9h-7.9c0 2.7 1.2 4.2 3.6 4.2 1.2 0 2.3-.4 3.2-1l.8 1.2c-1.1.8-2.6 1.3-4.1 1.3-3.3 0-5.2-2.2-5.2-5.8 0-3.5 2.2-5.7 5.2-5.7zm-3.4 4.6h6.2c0-1.8-.7-3.3-2.8-3.3-1.7.1-3.1 1.3-3.4 3.3zM498.4 148.4h-1.9v-1.3h1.9v-.9c0-3.1 1.7-4.2 4.2-4.2.6 0 1.3.1 1.8.3l-.4 1.3c-.3-.1-.8-.2-1.3-.2-1.6 0-2.5.8-2.5 2.8v1h3v1.3h-3v9.5h-1.7v-9.6zM510 146.7c3 0 5.2 2.2 5.2 5.6 0 3.6-2.1 5.8-5.2 5.8-3.2 0-5.2-2.2-5.2-5.8-.1-3.4 2.2-5.6 5.2-5.6zm0 10.1c2.1 0 3.4-1.8 3.4-4.5 0-2.5-1.4-4.2-3.4-4.2s-3.5 1.7-3.5 4.2c0 2.7 1.3 4.5 3.5 4.5zM518 147h1.6l.1 1.8c.8-1.4 2-2.1 3.3-2.1.5 0 1 .1 1.4.2l-.3 1.6c-.4-.1-.8-.2-1.3-.2-1.3 0-2.2.8-3.1 2.2v7.3H518V147zM533 148.4h-2v-1.3h1.9v-.9c0-3.1 1.7-4.2 4.2-4.2.6 0 1.3.1 1.8.3l-.4 1.3c-.3-.1-.8-.2-1.3-.2-1.6 0-2.5.8-2.5 2.8v1h3v1.3h-3v9.5H533v-9.6zM540.1 147h1.6l.1 1.8c.8-1.4 2-2.1 3.3-2.1.5 0 1 .1 1.4.2l-.3 1.6c-.4-.1-.8-.2-1.3-.2-1.3 0-2.2.8-3.1 2.2v7.3h-1.7V147zM553.1 146.7c3.1 0 4.5 2.1 4.5 4.9 0 .3 0 .7-.1.9h-7.9c0 2.7 1.2 4.2 3.6 4.2 1.2 0 2.3-.4 3.2-1l.8 1.2c-1.1.8-2.6 1.3-4.1 1.3-3.3 0-5.2-2.2-5.2-5.8 0-3.5 2.2-5.7 5.2-5.7zm-3.4 4.6h6.2c0-1.8-.7-3.3-2.8-3.3-1.7.1-3.1 1.3-3.4 3.3zM565.1 146.7c3.1 0 4.5 2.1 4.5 4.9 0 .3 0 .7-.1.9h-7.9c0 2.7 1.2 4.2 3.6 4.2 1.2 0 2.3-.4 3.2-1l.8 1.2c-1.1.8-2.6 1.3-4.1 1.3-3.3 0-5.2-2.2-5.2-5.8 0-3.5 2.2-5.7 5.2-5.7zm-3.4 4.6h6.2c0-1.8-.7-3.3-2.8-3.3-1.7.1-3.1 1.3-3.4 3.3zM125.1 142.3v18h-18v-18h18m3-3h-24v24h24v-24zM140.9 87h5.8c3.3 0 4.9 1.7 4.9 3.8 0 1.7-1 2.8-2.4 3.3 1.8.5 3 1.6 3 3.5 0 2.6-1.9 4.1-5 4.1H141V87zm5.6 6.5c2.1 0 3.1-1.2 3.1-2.6 0-1.3-1-2.4-3.1-2.4h-3.9v5h3.9zm.5 6.7c2 0 3.2-.9 3.2-2.7 0-1.6-1.3-2.5-3.2-2.5h-4.4v5.2h4.4zM155.1 90.8h1.6l.1 1.8c.8-1.4 2-2.1 3.3-2.1.5 0 1 .1 1.4.2l-.3 1.6c-.4-.1-.8-.2-1.3-.2-1.3 0-2.2.8-3.1 2.2v7.3h-1.7V90.8zM169.8 95.4v-1.6c0-1.1-.6-1.9-2.1-1.9-1.1 0-2.4.5-3.4 1l-.7-1.4c1.2-.6 2.7-1.1 4.2-1.1 2.7 0 3.8 1.4 3.8 3.3v5.4c0 .8.4 1.1 1.1 1.1v1.3c-1.5 0-2.2-.4-2.6-1.4-.8.9-2 1.6-3.6 1.6-1.9 0-3.2-1.1-3.2-2.8-.1-2.5 3.1-3.3 6.5-3.5zm-3 5.2c1.3 0 2.4-.6 3-1.4v-2.6c-2.2.1-4.8.5-4.8 2.5 0 .9.7 1.5 1.8 1.5zM175.2 86.1h1.7v2h-1.7v-2zm0 4.7h1.7v10.8h-1.7V90.8zM180.3 90.8h1.6l.1 1.5c.9-1 2.2-1.7 3.7-1.7 2.5 0 3.4 1.5 3.4 3.8v7.4h-1.7v-7.4c0-1.4-.6-2.4-2.1-2.4-1.3 0-2.5.7-3.3 1.7v8h-1.7V90.8zM192.4 99.5c.9.5 2.1 1 3.4 1 1.5 0 2.4-.6 2.4-1.7 0-2.7-6.4-1-6.4-5.2 0-2 1.7-3.1 3.9-3.1 1.2 0 2.5.3 3.7.9l-.7 1.3c-.9-.5-2.1-.8-3-.8-1.3 0-2.2.6-2.2 1.7 0 2.7 6.3.9 6.3 5.1 0 2-1.6 3.2-4.1 3.2-1.6 0-3-.4-4.2-1.1l.9-1.3zM203.5 92.1h-1.9v-1.3h1.9v-3.2h1.7v3.2h3.1v1.3h-3.1v6.6c0 1.1.4 1.7 1.4 1.7.6 0 1.1-.2 1.6-.5l.7 1.1c-.7.5-1.6.8-2.5.8-2.1 0-3-1.1-3-3.1v-6.6zM215.4 90.5c3 0 5.2 2.2 5.2 5.6 0 3.6-2.1 5.8-5.2 5.8-3.2 0-5.2-2.2-5.2-5.8-.1-3.4 2.2-5.6 5.2-5.6zm0 10c2.1 0 3.4-1.8 3.4-4.5 0-2.5-1.4-4.2-3.4-4.2s-3.5 1.7-3.5 4.2c0 2.8 1.3 4.5 3.5 4.5zM223.4 90.8h1.6l.1 1.8c.8-1.4 2-2.1 3.3-2.1.5 0 1 .1 1.4.2l-.3 1.6c-.4-.1-.8-.2-1.3-.2-1.3 0-2.2.8-3.1 2.2v7.3h-1.7V90.8zM232.1 90.8h1.6l.1 1.4c.9-.9 2.2-1.7 3.6-1.7 1.6 0 2.5.7 3 1.8 1-1 2.4-1.8 3.9-1.8 2.3 0 3.3 1.5 3.3 3.8v7.4h-1.7v-7.5c0-1.4-.5-2.3-2-2.3-1.2 0-2.3.6-3.2 1.6v8.1H239v-7.5c0-1.4-.5-2.3-2-2.3-1.2 0-2.4.6-3.2 1.7v8.1h-1.7V90.8zM262.4 95.4v-1.6c0-1.1-.6-1.9-2.1-1.9-1.1 0-2.4.5-3.4 1l-.7-1.4c1.2-.6 2.7-1.1 4.2-1.1 2.7 0 3.8 1.4 3.8 3.3v5.4c0 .8.4 1.1 1.1 1.1v1.3c-1.5 0-2.2-.4-2.6-1.4-.8.9-2 1.6-3.6 1.6-1.9 0-3.2-1.1-3.2-2.8 0-2.5 3.1-3.3 6.5-3.5zm-3 5.2c1.3 0 2.4-.6 3-1.4v-2.6c-2.2.1-4.8.5-4.8 2.5 0 .9.7 1.5 1.8 1.5zM272.1 90.8h1.8l2.9 8.7 2.6-8.7h1.6l2.6 8.7 2.9-8.7h1.7l-3.7 10.9h-1.7l-2.6-8.5-2.6 8.5h-1.7l-3.8-10.9zM296.6 95.4v-1.6c0-1.1-.6-1.9-2.1-1.9-1.1 0-2.4.5-3.4 1l-.7-1.4c1.2-.6 2.7-1.1 4.2-1.1 2.7 0 3.8 1.4 3.8 3.3v5.4c0 .8.4 1.1 1.1 1.1v1.3c-1.5 0-2.2-.4-2.6-1.4-.8.9-2 1.6-3.6 1.6-1.9 0-3.2-1.1-3.2-2.8-.1-2.5 3.1-3.3 6.5-3.5zm-3 5.2c1.3 0 2.4-.6 3-1.4v-2.6c-2.2.1-4.8.5-4.8 2.5-.1.9.7 1.5 1.8 1.5zM302 104.6c.8 0 1.3-.3 1.7-1.3l.7-1.7-4.1-10.8h1.8l3.1 8.6 3-8.6h1.8l-4.6 12.7c-.8 2.1-1.9 2.6-3.4 2.6-.7 0-1.4-.1-1.9-.4l.5-1.4c.5.2 1 .3 1.4.3zM318.3 104.6c.8 0 1.3-.3 1.7-1.3l.7-1.7-4.1-10.8h1.8l3.1 8.6 3-8.6h1.8l-4.6 12.7c-.8 2.1-1.9 2.6-3.4 2.6-.7 0-1.4-.1-1.9-.4l.5-1.4c.5.2 1 .3 1.4.3zM332.9 90.5c3 0 5.2 2.2 5.2 5.6 0 3.6-2.1 5.8-5.2 5.8-3.2 0-5.2-2.2-5.2-5.8 0-3.4 2.2-5.6 5.2-5.6zm0 10c2.1 0 3.4-1.8 3.4-4.5 0-2.5-1.4-4.2-3.4-4.2s-3.5 1.7-3.5 4.2c0 2.8 1.4 4.5 3.5 4.5zM340.9 90.8h1.7v7.4c0 1.4.5 2.4 2.1 2.4 1.3 0 2.5-.7 3.4-1.7v-8h1.7v10.9h-1.6l-.1-1.5c-.9.9-2.2 1.7-3.7 1.7-2.5 0-3.5-1.5-3.5-3.8v-7.4zM363.3 90.5c1.4 0 2.6.5 3.5 1.2l-.9 1.2c-.6-.5-1.4-.9-2.6-.9-2 0-3.5 1.6-3.5 4.1 0 2.7 1.4 4.4 3.5 4.4 1.2 0 2-.4 2.7-1l1 1.1c-1.1.9-2.2 1.4-3.8 1.4-3.1 0-5.2-2.2-5.2-5.8.1-3.5 2.3-5.7 5.3-5.7zM375.7 95.4v-1.6c0-1.1-.6-1.9-2.1-1.9-1.1 0-2.4.5-3.4 1l-.7-1.4c1.2-.6 2.7-1.1 4.2-1.1 2.7 0 3.8 1.4 3.8 3.3v5.4c0 .8.4 1.1 1.1 1.1v1.3c-1.5 0-2.2-.4-2.6-1.4-.8.9-2 1.6-3.6 1.6-1.9 0-3.2-1.1-3.2-2.8 0-2.5 3.1-3.3 6.5-3.5zm-3 5.2c1.3 0 2.4-.6 3-1.4v-2.6c-2.2.1-4.8.5-4.8 2.5 0 .9.7 1.5 1.8 1.5zM381 90.8h1.6l.1 1.5c.9-1 2.2-1.7 3.7-1.7 2.5 0 3.4 1.5 3.4 3.8v7.4h-1.7v-7.4c0-1.4-.6-2.4-2.1-2.4-1.3 0-2.5.7-3.3 1.7v8H381V90.8zM404.7 95.4v-1.6c0-1.1-.6-1.9-2.1-1.9-1.1 0-2.4.5-3.4 1l-.7-1.4c1.2-.6 2.7-1.1 4.2-1.1 2.7 0 3.8 1.4 3.8 3.3v5.4c0 .8.4 1.1 1.1 1.1v1.3c-1.5 0-2.2-.4-2.6-1.4-.8.9-2 1.6-3.6 1.6-1.9 0-3.2-1.1-3.2-2.8 0-2.5 3.2-3.3 6.5-3.5zm-3 5.2c1.3 0 2.4-.6 3-1.4v-2.6c-2.2.1-4.8.5-4.8 2.5 0 .9.7 1.5 1.8 1.5zM409.4 96c0-3.5 1.8-5.5 4.4-5.5 1.4 0 2.6.7 3.5 1.7v-6.4h1.7v15.9h-1.5l-.2-1.4c-.9 1-2.1 1.7-3.5 1.7-2.7-.1-4.4-2.2-4.4-6zm7.9 2.9v-5.4c-.9-1-1.9-1.6-3.1-1.6-1.9 0-3.1 1.5-3.1 4.1 0 2.8 1.1 4.5 3.1 4.5 1.2 0 2.2-.5 3.1-1.6zM421.9 96c0-3.5 1.8-5.5 4.4-5.5 1.4 0 2.6.7 3.5 1.7v-6.4h1.7v15.9H430l-.2-1.4c-.9 1-2.1 1.7-3.5 1.7-2.7-.1-4.4-2.2-4.4-6zm7.9 2.9v-5.4c-.9-1-1.9-1.6-3.1-1.6-1.9 0-3.1 1.5-3.1 4.1 0 2.8 1.1 4.5 3.1 4.5 1.3 0 2.2-.5 3.1-1.6zM439.4 90.8h1.8l3 9 3-9h1.7l-3.9 10.9h-1.9l-3.7-10.9zM457.3 95.4v-1.6c0-1.1-.6-1.9-2.1-1.9-1.1 0-2.4.5-3.4 1l-.7-1.4c1.2-.6 2.7-1.1 4.2-1.1 2.7 0 3.8 1.4 3.8 3.3v5.4c0 .8.4 1.1 1.1 1.1v1.3c-1.5 0-2.2-.4-2.6-1.4-.8.9-2 1.6-3.6 1.6-1.9 0-3.2-1.1-3.2-2.8 0-2.5 3.2-3.3 6.5-3.5zm-2.9 5.2c1.3 0 2.4-.6 3-1.4v-2.6c-2.2.1-4.8.5-4.8 2.5-.1.9.6 1.5 1.8 1.5zM462.7 85.8h1.7v15.9h-1.7V85.8zM467.8 90.8h1.7v7.4c0 1.4.5 2.4 2.1 2.4 1.3 0 2.5-.7 3.4-1.7v-8h1.7v10.9h-1.6l-.1-1.5c-.9.9-2.2 1.7-3.7 1.7-2.5 0-3.5-1.5-3.5-3.8v-7.4zM484.8 90.5c3.1 0 4.5 2.1 4.5 4.9 0 .3 0 .7-.1.9h-7.9c0 2.7 1.2 4.2 3.6 4.2 1.2 0 2.3-.4 3.2-1l.8 1.2c-1.1.8-2.6 1.3-4.1 1.3-3.3 0-5.2-2.2-5.2-5.8 0-3.5 2.2-5.7 5.2-5.7zm-3.4 4.6h6.2c0-1.8-.7-3.3-2.8-3.3-1.8 0-3.1 1.3-3.4 3.3zM498.4 92.1h-1.9v-1.3h1.9v-3.2h1.7v3.2h3.1v1.3h-3.1v6.6c0 1.1.4 1.7 1.4 1.7.6 0 1.1-.2 1.6-.5l.7 1.1c-.7.5-1.6.8-2.5.8-2.1 0-3-1.1-3-3.1v-6.6zM510.3 90.5c3 0 5.2 2.2 5.2 5.6 0 3.6-2.1 5.8-5.2 5.8s-5.2-2.2-5.2-5.8c-.1-3.4 2.2-5.6 5.2-5.6zm0 10c2.1 0 3.4-1.8 3.4-4.5 0-2.5-1.4-4.2-3.4-4.2s-3.5 1.7-3.5 4.2c0 2.8 1.3 4.5 3.5 4.5zM524.7 92.1h-1.9v-1.3h1.9v-3.2h1.7v3.2h3.1v1.3h-3.1v6.6c0 1.1.4 1.7 1.4 1.7.6 0 1.1-.2 1.6-.5l.7 1.1c-.7.5-1.6.8-2.5.8-2.1 0-3-1.1-3-3.1v-6.6zM532.4 85.8h1.7v6.4c.9-1 2.2-1.7 3.7-1.7 2.5 0 3.4 1.5 3.4 3.8v7.4h-1.7v-7.4c0-1.4-.6-2.4-2.1-2.4-1.3 0-2.4.7-3.3 1.7v8h-1.7V85.8zM549.2 90.5c3.1 0 4.5 2.1 4.5 4.9 0 .3 0 .7-.1.9h-7.9c0 2.7 1.2 4.2 3.6 4.2 1.2 0 2.3-.4 3.2-1l.8 1.2c-1.1.8-2.6 1.3-4.1 1.3-3.3 0-5.2-2.2-5.2-5.8 0-3.5 2.3-5.7 5.2-5.7zm-3.4 4.6h6.2c0-1.8-.7-3.3-2.8-3.3-1.7 0-3 1.3-3.4 3.3zM556.5 90.8h1.6l.1 1.4c.9-.9 2.2-1.7 3.6-1.7 1.6 0 2.5.7 3 1.8 1-1 2.4-1.8 3.9-1.8 2.3 0 3.3 1.5 3.3 3.8v7.4h-1.7v-7.5c0-1.4-.5-2.3-2-2.3-1.2 0-2.3.6-3.2 1.6v8.1h-1.8v-7.5c0-1.4-.5-2.3-2-2.3-1.2 0-2.4.6-3.2 1.7v8.1h-1.7V90.8zM125.1 86.1v18h-18v-18h18m3-3h-24v24h24v-24zM140.9 30.8h1.8v14.7h-1.8V30.8zM145.7 39.8c0-3.5 1.8-5.5 4.4-5.5 1.4 0 2.6.7 3.5 1.7v-6.4h1.7v15.9h-1.5l-.2-1.4c-.9 1-2.1 1.7-3.5 1.7-2.7-.1-4.4-2.2-4.4-6zm7.9 2.9v-5.4c-.9-1-1.9-1.6-3.1-1.6-1.9 0-3.1 1.5-3.1 4.1 0 2.8 1.1 4.5 3.1 4.5 1.3 0 2.2-.6 3.1-1.6zM163.5 34.3c3.1 0 4.5 2.1 4.5 4.9 0 .3 0 .7-.1.9H160c0 2.7 1.2 4.2 3.6 4.2 1.2 0 2.3-.4 3.2-1l.8 1.2c-1.1.8-2.6 1.3-4.1 1.3-3.3 0-5.2-2.2-5.2-5.8-.1-3.5 2.2-5.7 5.2-5.7zm-3.4 4.6h6.2c0-1.8-.7-3.3-2.8-3.3-1.8 0-3.1 1.3-3.4 3.3zM170.8 34.6h1.6l.1 1.5c.9-1 2.2-1.7 3.7-1.7 2.5 0 3.4 1.5 3.4 3.8v7.4h-1.7V38c0-1.4-.6-2.4-2.1-2.4-1.3 0-2.5.7-3.3 1.7v8h-1.7V34.6zM183.7 35.9h-1.9v-1.3h1.9v-3.2h1.7v3.2h3.1v1.3h-3.1v6.6c0 1.1.4 1.7 1.4 1.7.6 0 1.1-.2 1.6-.5l.7 1.1c-.7.5-1.6.8-2.5.8-2.1 0-3-1.1-3-3.1v-6.6zM191.4 29.9h1.7v2h-1.7v-2zm0 4.7h1.7v10.8h-1.7V34.6zM197.3 36h-1.9v-1.3h1.9v-.9c0-3.1 1.7-4.2 4.2-4.2.6 0 1.3.1 1.8.3l-.4 1.3c-.3-.1-.8-.2-1.3-.2-1.6 0-2.5.8-2.5 2.8v1h3V36h-3v9.5h-1.7V36zM205.6 48.4c.8 0 1.3-.3 1.7-1.3l.7-1.7-4-10.8h1.8l3.1 8.6 3-8.6h1.8l-4.6 12.7c-.8 2.1-1.9 2.6-3.4 2.6-.7 0-1.4-.1-1.9-.4l.5-1.4c.4.2.9.3 1.3.3zM221.4 43.3c.9.5 2.1 1 3.4 1 1.5 0 2.4-.6 2.4-1.7 0-2.7-6.4-1-6.4-5.2 0-2 1.7-3.1 3.9-3.1 1.2 0 2.5.3 3.7.9l-.7 1.3c-.9-.5-2.1-.8-3-.8-1.3 0-2.2.6-2.2 1.7 0 2.7 6.3.9 6.3 5.1 0 2-1.6 3.2-4.1 3.2-1.6 0-3-.4-4.2-1.1l.9-1.3zM236.2 34.3c3 0 5.2 2.2 5.2 5.6 0 3.6-2.1 5.8-5.2 5.8-3.2 0-5.2-2.2-5.2-5.8 0-3.4 2.2-5.6 5.2-5.6zm0 10c2.1 0 3.4-1.8 3.4-4.5 0-2.5-1.4-4.2-3.4-4.2s-3.5 1.7-3.5 4.2c.1 2.8 1.4 4.5 3.5 4.5zM244.3 34.6h1.6l.1 1.4c.9-.9 2.2-1.7 3.6-1.7 1.6 0 2.5.7 3 1.8 1-1 2.4-1.8 3.9-1.8 2.3 0 3.3 1.5 3.3 3.8v7.4H258V38c0-1.4-.5-2.3-2-2.3-1.2 0-2.3.6-3.2 1.6v8.1H251V38c0-1.4-.5-2.3-2-2.3-1.2 0-2.4.6-3.2 1.7v8.1h-1.7V34.6zM267.8 34.3c3.1 0 4.5 2.1 4.5 4.9 0 .3 0 .7-.1.9h-7.9c0 2.7 1.2 4.2 3.6 4.2 1.2 0 2.3-.4 3.2-1l.8 1.2c-1.1.8-2.6 1.3-4.1 1.3-3.3 0-5.2-2.2-5.2-5.8 0-3.5 2.2-5.7 5.2-5.7zm-3.4 4.6h6.2c0-1.8-.7-3.3-2.8-3.3-1.7 0-3.1 1.3-3.4 3.3zM279.9 34.3c3 0 5.2 2.2 5.2 5.6 0 3.6-2.1 5.8-5.2 5.8s-5.2-2.2-5.2-5.8c-.1-3.4 2.1-5.6 5.2-5.6zm0 10c2.1 0 3.4-1.8 3.4-4.5 0-2.5-1.4-4.2-3.4-4.2s-3.5 1.7-3.5 4.2c0 2.8 1.3 4.5 3.5 4.5zM287.9 34.6h1.6l.1 1.5c.9-1 2.2-1.7 3.7-1.7 2.5 0 3.4 1.5 3.4 3.8v7.4H295V38c0-1.4-.6-2.4-2.1-2.4-1.3 0-2.5.7-3.3 1.7v8h-1.7V34.6zM304.8 34.3c3.1 0 4.5 2.1 4.5 4.9 0 .3 0 .7-.1.9h-7.9c0 2.7 1.2 4.2 3.6 4.2 1.2 0 2.3-.4 3.2-1l.8 1.2c-1.1.8-2.6 1.3-4.1 1.3-3.3 0-5.2-2.2-5.2-5.8 0-3.5 2.2-5.7 5.2-5.7zm-3.4 4.6h6.2c0-1.8-.7-3.3-2.8-3.3-1.8 0-3.1 1.3-3.4 3.3zM318.4 35.9h-1.9v-1.3h1.9v-3.2h1.7v3.2h3.1v1.3h-3.1v6.6c0 1.1.4 1.7 1.4 1.7.6 0 1.1-.2 1.6-.5l.7 1.1c-.7.5-1.6.8-2.5.8-2.1 0-3-1.1-3-3.1v-6.6zM326.1 29.6h1.7V36c.9-1 2.2-1.7 3.7-1.7 2.5 0 3.4 1.5 3.4 3.8v7.4h-1.7V38c0-1.4-.6-2.4-2.1-2.4-1.3 0-2.4.7-3.3 1.7v8h-1.7V29.6zM344.1 39.2v-1.6c0-1.1-.6-1.9-2.1-1.9-1.1 0-2.4.5-3.4 1l-.7-1.4c1.2-.6 2.7-1.1 4.2-1.1 2.7 0 3.8 1.4 3.8 3.3v5.4c0 .8.4 1.1 1.1 1.1v1.3c-1.5 0-2.2-.4-2.6-1.4-.8.9-2 1.6-3.6 1.6-1.9 0-3.2-1.1-3.2-2.8 0-2.5 3.2-3.3 6.5-3.5zm-2.9 5.2c1.3 0 2.4-.6 3-1.4v-2.6c-2.2.1-4.8.5-4.8 2.5-.1.9.6 1.5 1.8 1.5zM350 35.9h-1.9v-1.3h1.9v-3.2h1.7v3.2h3.1v1.3h-3.1v6.6c0 1.1.4 1.7 1.4 1.7.6 0 1.1-.2 1.6-.5l.7 1.1c-.7.5-1.6.8-2.5.8-2.1 0-3-1.1-3-3.1v-6.6zM363.7 48.4c.8 0 1.3-.3 1.7-1.3l.7-1.7-4.1-10.8h1.8l3.1 8.6 3-8.6h1.8l-4.6 12.7c-.8 2.1-1.9 2.6-3.4 2.6-.7 0-1.4-.1-1.9-.4l.5-1.4c.5.2 1 .3 1.4.3zM378.3 34.3c3 0 5.2 2.2 5.2 5.6 0 3.6-2.1 5.8-5.2 5.8-3.2 0-5.2-2.2-5.2-5.8-.1-3.4 2.2-5.6 5.2-5.6zm0 10c2.1 0 3.4-1.8 3.4-4.5 0-2.5-1.4-4.2-3.4-4.2s-3.5 1.7-3.5 4.2c0 2.8 1.3 4.5 3.5 4.5zM386.3 34.6h1.7V42c0 1.4.5 2.4 2.1 2.4 1.3 0 2.5-.7 3.4-1.7v-8h1.7v10.9h-1.6l-.1-1.5c-.9.9-2.2 1.7-3.7 1.7-2.5 0-3.5-1.5-3.5-3.8v-7.4zM402.9 34.6h1.8l2.9 8.7 2.6-8.7h1.6l2.6 8.7 2.9-8.7h1.7l-3.7 10.9h-1.7L411 37l-2.6 8.5h-1.7l-3.8-10.9zM427.4 39.2v-1.6c0-1.1-.6-1.9-2.1-1.9-1.1 0-2.4.5-3.4 1l-.7-1.4c1.2-.6 2.7-1.1 4.2-1.1 2.7 0 3.8 1.4 3.8 3.3v5.4c0 .8.4 1.1 1.1 1.1v1.3c-1.5 0-2.2-.4-2.6-1.4-.8.9-2 1.6-3.6 1.6-1.9 0-3.2-1.1-3.2-2.8-.1-2.5 3.1-3.3 6.5-3.5zm-3 5.2c1.3 0 2.4-.6 3-1.4v-2.6c-2.2.1-4.8.5-4.8 2.5 0 .9.7 1.5 1.8 1.5zM432.7 34.6h1.6l.1 1.5c.9-1 2.2-1.7 3.7-1.7 2.5 0 3.4 1.5 3.4 3.8v7.4h-1.7V38c0-1.4-.6-2.4-2.1-2.4-1.3 0-2.5.7-3.3 1.7v8h-1.7V34.6zM445.6 35.9h-1.9v-1.3h1.9v-3.2h1.7v3.2h3.1v1.3h-3.1v6.6c0 1.1.4 1.7 1.4 1.7.6 0 1.1-.2 1.6-.5l.7 1.1c-.7.5-1.6.8-2.5.8-2.1 0-3-1.1-3-3.1v-6.6zM459.5 35.9h-1.9v-1.3h1.9v-3.2h1.7v3.2h3.1v1.3h-3.1v6.6c0 1.1.4 1.7 1.4 1.7.6 0 1.1-.2 1.6-.5l.7 1.1c-.7.5-1.6.8-2.5.8-2.1 0-3-1.1-3-3.1v-6.6zM471.4 34.3c3 0 5.2 2.2 5.2 5.6 0 3.6-2.1 5.8-5.2 5.8s-5.2-2.2-5.2-5.8c-.1-3.4 2.2-5.6 5.2-5.6zm0 10c2.1 0 3.4-1.8 3.4-4.5 0-2.5-1.4-4.2-3.4-4.2s-3.5 1.7-3.5 4.2c0 2.8 1.3 4.5 3.5 4.5zM485 29.6h1.7v15.9H485V29.6zM494.8 34.3c3.1 0 4.5 2.1 4.5 4.9 0 .3 0 .7-.1.9h-7.9c0 2.7 1.2 4.2 3.6 4.2 1.2 0 2.3-.4 3.2-1l.8 1.2c-1.1.8-2.6 1.3-4.1 1.3-3.3 0-5.2-2.2-5.2-5.8 0-3.5 2.3-5.7 5.2-5.7zm-3.4 4.6h6.2c0-1.8-.7-3.3-2.8-3.3-1.7 0-3 1.3-3.4 3.3zM507.9 39.2v-1.6c0-1.1-.6-1.9-2.1-1.9-1.1 0-2.4.5-3.4 1l-.7-1.4c1.2-.6 2.7-1.1 4.2-1.1 2.7 0 3.8 1.4 3.8 3.3v5.4c0 .8.4 1.1 1.1 1.1v1.3c-1.5 0-2.2-.4-2.6-1.4-.8.9-2 1.6-3.6 1.6-1.9 0-3.2-1.1-3.2-2.8-.1-2.5 3.1-3.3 6.5-3.5zm-3 5.2c1.3 0 2.4-.6 3-1.4v-2.6c-2.2.1-4.8.5-4.8 2.5-.1.9.7 1.5 1.8 1.5zM513.2 34.6h1.6l.1 1.8c.8-1.4 2-2.1 3.3-2.1.5 0 1 .1 1.4.2l-.3 1.6c-.4-.1-.8-.2-1.3-.2-1.3 0-2.2.8-3.1 2.2v7.3h-1.7V34.6zM521.9 34.6h1.6l.1 1.5c.9-1 2.2-1.7 3.7-1.7 2.5 0 3.4 1.5 3.4 3.8v7.4H529V38c0-1.4-.6-2.4-2.1-2.4-1.3 0-2.5.7-3.3 1.7v8h-1.7V34.6zM540.4 36h-1.9v-1.3h1.9v-.9c0-3.1 1.7-4.2 4.2-4.2.6 0 1.3.1 1.8.3l-.4 1.3c-.3-.1-.8-.2-1.3-.2-1.6 0-2.5.8-2.5 2.8v1h3V36h-3v9.5h-1.7V36zM547.6 34.6h1.6l.1 1.8c.8-1.4 2-2.1 3.3-2.1.5 0 1 .1 1.4.2l-.3 1.6c-.4-.1-.8-.2-1.3-.2-1.3 0-2.2.8-3.1 2.2v7.3h-1.7V34.6zM560.6 34.3c3 0 5.2 2.2 5.2 5.6 0 3.6-2.1 5.8-5.2 5.8-3.2 0-5.2-2.2-5.2-5.8-.1-3.4 2.2-5.6 5.2-5.6zm0 10c2.1 0 3.4-1.8 3.4-4.5 0-2.5-1.4-4.2-3.4-4.2s-3.5 1.7-3.5 4.2c0 2.8 1.3 4.5 3.5 4.5zM568.6 34.6h1.6l.1 1.4c.9-.9 2.2-1.7 3.6-1.7 1.6 0 2.5.7 3 1.8 1.1-1 2.4-1.8 3.9-1.8 2.3 0 3.3 1.5 3.3 3.8v7.4h-1.7V38c0-1.4-.5-2.3-2-2.3-1.2 0-2.3.6-3.2 1.6v8.1h-1.8V38c0-1.4-.5-2.3-2-2.3-1.2 0-2.4.6-3.2 1.7v8.1h-1.7V34.6zM125.1 29.9v18h-18v-18h18m3-3h-24v24h24v-24z"/></svg>