<?xml version="1.0" encoding="utf-8"?>
<!-- Generator: Adobe Illustrator 16.0.4, SVG Export Plug-In . SVG Version: 6.00 Build 0)  -->
<!DOCTYPE svg PUBLIC "-//W3C//DTD SVG 1.1//EN" "http://www.w3.org/Graphics/SVG/1.1/DTD/svg11.dtd">
<svg version="1.1" id="Layer_1" xmlns="http://www.w3.org/2000/svg" xmlns:xlink="http://www.w3.org/1999/xlink" x="0px" y="0px"
	 width="800px" height="800px" viewBox="0 0 800 800" enable-background="new 0 0 800 800" xml:space="preserve">
<g id="layer1" transform="translate(-162.46995,-477.2863)">
	<path id="path2830" fill="#40AA54" stroke="#20552A" stroke-width="8" d="M574.894,730.476
		c-55.158,0.503-106.971,34.215-127.935,88.831c-27.385,71.34,8.237,151.357,79.573,178.74l31.701-82.629
		c-18.691-7.188-31.969-25.298-31.969-46.527c0-27.529,22.318-49.846,49.852-49.846c27.522,0,49.846,22.317,49.846,49.846
		c0,21.229-13.272,39.345-31.971,46.527l31.702,82.629c36.607-14.052,65.522-42.965,79.572-79.571
		c27.385-71.336-8.233-151.383-79.572-178.77C608.98,733.287,591.781,730.32,574.894,730.476z"/>
</g>
<g id="Page_1">
	<g id="Layer_1_1_">
		<path id="Shape_1_" fill="#1572B6" d="M617.972,654.697l-15.894-178.216h174.6l-15.909,178.186l-71.499,19.822L617.972,654.697z"
			/>
		<path id="Shape_2_" fill="#33A9DC" d="M689.381,659.34l57.773-16.018l13.591-152.272h-71.364V659.34z"/>
		<g id="Group" transform="translate(55.000000, 142.000000)">
			<path id="Shape_3_" fill="#FFFFFF" d="M634.381,413.62h28.922l1.994-22.383h-30.921v-21.858h0.076h54.729l-0.521,5.864
				l-5.371,60.229h-48.916L634.381,413.62L634.381,413.62z"/>
			<path id="Shape_4_" fill="#EBEBEB" d="M634.512,470.385l-0.093,0.025l-24.348-6.573l-1.558-17.43h-11.824h-10.113l3.061,34.314
				l44.774,12.434l0.103-0.027v-22.741h-0.002V470.385L634.512,470.385z"/>
			<path id="Shape_5_" fill="#FFFFFF" d="M661.445,434.552l-2.633,29.272l-24.384,6.579v22.737l44.812-12.421l0.328-3.688
				l3.805-42.48H661.445L661.445,434.552z"/>
			<path id="Shape_6_" fill="#EBEBEB" d="M634.454,369.379v13.576v8.228v0.059h-52.729h-0.064l-0.438-4.912l-0.997-11.081
				l-0.521-5.864L634.454,369.379L634.454,369.379z"/>
			<path id="Shape_7_" fill="#EBEBEB" d="M634.381,413.621v13.577v8.228v0.059h-23.967h-0.07l-0.438-4.914l-0.995-11.078
				l-0.526-5.866L634.381,413.621L634.381,413.621z"/>
		</g>
	</g>
</g>
<g id="Page_1_1_">
	<g id="Group_1_">
		<path id="Shape" fill="#E44F26" d="M617.199,354.133l-15.892-178.215h174.598l-15.904,178.188l-71.499,19.821L617.199,354.133z"/>
		<path id="Shape_12_" fill="#F1662A" d="M688.608,358.775l57.771-16.017l13.593-152.271h-71.362L688.608,358.775L688.608,358.775z"
			/>
		<path id="Shape_11_" fill="#EBEBEB" d="M688.608,256.588h-28.928l-1.997-22.383h30.924v-21.858h-0.074h-54.731l0.521,5.865
			l5.372,60.231h48.912L688.608,256.588L688.608,256.588z"/>
		<path id="Shape_10_" fill="#EBEBEB" d="M688.608,313.352l-0.099,0.026l-24.344-6.573l-1.555-17.431H650.78h-10.109l3.062,34.317
			l44.77,12.431l0.104-0.028L688.608,313.352L688.608,313.352z"/>
		<path id="Shape_8_" fill="#FFFFFF" d="M688.533,256.588v21.855h26.915l-2.538,28.347l-24.377,6.581v22.741l44.81-12.421
			l0.329-3.69l5.136-57.544l0.531-5.869h-5.89H688.533L688.533,256.588z"/>
		<path id="Shape_9_" fill="#FFFFFF" d="M688.533,212.346v13.575v8.23v0.054h52.725h0.071l0.437-4.912l0.995-11.081l0.525-5.865
			L688.533,212.346L688.533,212.346z"/>
	</g>
</g>
<path fill="#131B28" d="M389.088,112.993v-0.005l-2.229,7.906L389.088,112.993L389.088,112.993z"/>
<path fill="#131B28" d="M400.561,130.157l-2.458-0.017L400.561,130.157z"/>
<path fill="#131B28" d="M399.927,141.964h0.004l-14.728,0.053L399.927,141.964L399.927,141.964z"/>
<path fill="#131B28" d="M403.016,130.172l-2.46-0.015L403.016,130.172z"/>
<path fill="#131B28" d="M401.218,140.96l2.565-9.785l-2.565,9.788V140.96L401.218,140.96z"/>
<path fill="#131B28" d="M455.443,95.903l-4.78,22.466L455.443,95.903z"/>
<path fill="#131B28" d="M443.16,95.903l-3.631,16.783L443.16,95.903L443.16,95.903z"/>
<path fill="#131B28" d="M454.626,94.891h-10.219c-0.569,0-1.132,0.456-1.25,1.011l-3.63,16.783l-3.63,16.786
	c-0.118,0.552-0.688,1.008-1.248,1.008h-6.201h-1.033c-7.155,0-6.328-4.949-4.86-11.729c0.019-0.07,0.029-0.137,0.043-0.205
	l0.161-0.855c0.014-0.055,0.021-0.109,0.029-0.161l0.327-1.74l0.349-1.865c0.106-0.562,0.271-1.383,0.375-1.901l1.647-8.059
	l1.646-8.059c0.115-0.556-0.255-1.014-0.82-1.014h-10.49c-0.567,0-1.129,0.457-1.245,1.013l-2.255,10.699l-2.254,10.7
	c-0.004,0.004-0.004,0.013-0.005,0.015l-0.207,0.995c-2.603,11.86-1.911,23.17,12.209,23.525c0.229,0.008,0.405,0.01,0.405,0.01
	h22.162c0.567,0,1.13-0.457,1.248-1.012l4.778-22.466l4.78-22.467C455.56,95.347,455.193,94.891,454.626,94.891L454.626,94.891z"/>
<path fill="#131B28" d="M495.393,130.595c0.569,0,0.941,0.455,0.827,1.012l-0.992,4.851"/>
<path fill="#131B28" d="M494.237,141.31l0.988-4.854L494.237,141.31L494.237,141.31L494.237,141.31z"/>
<path fill="#131B28" d="M492.992,142.33c0.002,0,0.002-0.002,0.004-0.002c-3.008,0.024-12.045,0.092-18.837,0.092
	C482.426,142.421,492.992,142.33,492.992,142.33L492.992,142.33z"/>
<path fill="#131B28" d="M468.062,124.349c-0.015-0.53,0.598-1.445,1.157-1.445l-1.272-0.022
	C467.374,128.666,468.062,124.349,468.062,124.349L468.062,124.349z"/>
<path fill="#131B28" d="M475.09,142.418c-0.062,0-0.132,0-0.198,0.002C474.958,142.418,475.025,142.418,475.09,142.418z"/>
<path fill="#131B28" d="M495.393,130.595c0.569,0,0.941,0.455,0.827,1.012l-0.992,4.851l-0.159,0.792"/>
<path fill="#131B28" d="M479.928,142.408h-0.04H479.928z"/>
<path fill="#131B28" d="M477.42,142.416h-0.146H477.42z"/>
<path fill="#131B28" d="M476.654,142.417c-0.083,0-0.16,0-0.24,0.001C476.494,142.417,476.571,142.417,476.654,142.417z"/>
<path fill="#131B28" d="M475.874,142.418h-0.21H475.874z"/>
<path fill="#131B28" d="M477.274,142.416c-0.207,0-0.417,0-0.622,0C476.857,142.416,477.065,142.416,477.274,142.416z"/>
<path fill="#131B28" d="M479.888,142.408c-0.827,0.002-1.648,0.006-2.468,0.008C478.235,142.415,479.062,142.41,479.888,142.408z"/>
<path fill="#131B28" d="M492.998,142.328L492.998,142.328c-2.204,0.017-7.646,0.058-13.073,0.078
	C485.349,142.388,490.794,142.345,492.998,142.328z"/>
<path fill="#131B28" d="M494.237,141.312l0.832-4.063l-0.832,4.065C494.237,141.312,494.237,141.312,494.237,141.312
	L494.237,141.312z"/>
<path fill="#131B28" d="M476.414,142.418h-0.54H476.414z"/>
<path fill="#131B28" d="M474.89,142.42h-0.729H474.89z"/>
<path fill="#131B28" d="M475.662,142.418h-0.574H475.662z"/>
<path fill="#131B28" d="M326.169,124.471l1.589-7.037l-1.812,8.044l-1.742,8.193l1.522-7.184
	C325.845,125.932,326.044,125.024,326.169,124.471L326.169,124.471z"/>
<path fill="#131B28" d="M345.172,94.772h-11.224c-0.567,0-1.134,0.455-1.261,1.006l-1.063,4.698l-1.064,4.698
	c-0.125,0.552,0.237,1.006,0.809,1.006h11.309c0.566,0,1.132-0.454,1.252-1.009l1.028-4.696l1.028-4.694v-0.003
	C346.104,95.228,345.737,94.772,345.172,94.772L345.172,94.772z"/>
<path fill="#131B28" d="M342.729,110.397L342.729,110.397l-3.293,15.228L342.729,110.397z"/>
<path fill="#131B28" d="M310.126,160.854c0,0,5.655,0.073,9.252,0.073c-2.729,0-7.242-0.049-9.259-0.074
	C310.121,160.854,310.122,160.854,310.126,160.854L310.126,160.854z"/>
<path fill="#131B28" d="M329.345,110.396l-1.589,7.038L329.345,110.396z"/>
<path fill="#131B28" d="M341.916,109.388h-11.311c-0.567,0-1.14,0.456-1.264,1.008l-1.589,7.038l-1.589,7.037
	c-0.125,0.554-0.324,1.462-0.441,2.017l-1.522,7.184l-1.524,7.181c-0.119,0.555-0.36,1.451-0.545,1.987c0,0-2.114,6.288-5.666,6.218
	c-0.147-0.004-0.299-0.005-0.439-0.01c-1.726-0.032-3.075-0.055-3.075-0.055h-0.003c-0.567-0.01-1.141,0.432-1.271,0.981
	l-1.172,4.933l-1.175,4.928c-0.131,0.552,0.226,1.006,0.789,1.017c2.017,0.024,6.522,0.076,9.259,0.076
	c8.874,0,13.551-4.916,16.55-19.065l3.514-16.236l3.293-15.229C342.849,109.844,342.482,109.388,341.916,109.388L341.916,109.388z"
	/>
<path fill="#131B28" d="M502.601,141.846c-0.562,0-0.936-0.456-0.812-1.012l8.511-39.857"/>
<path fill="#131B28" d="M514.427,140.832l3.443-17.011L514.427,140.832z"/>
<path fill="#131B28" d="M501.908,141.34c-0.067-0.277-0.028-0.96,0.092-1.516l4.037-18.917l-4.252,19.928
	c-0.12,0.555,0.249,1.011,0.812,1.011h1.034C503.062,141.846,501.977,141.618,501.908,141.34L501.908,141.34z"/>
<path fill="#131B28" d="M513.756,141.618c-0.308,0.124-1.025,0.228-1.596,0.228h1.032c0.566,0,1.126-0.456,1.232-1.014l0.206-1.012
	C514.521,140.378,514.065,141.493,513.756,141.618L513.756,141.618z"/>
<path fill="#131B28" d="M516.152,132.327l1.517-7.508c0,0.004,0,0.011-0.002,0.014L516.152,132.327L516.152,132.327z"/>
<path fill="#131B28" d="M549.725,103.646l0.475,1.937c0.128,0.556-0.232,1.003-0.797,1.005"/>
<path fill="#131B28" d="M514.632,139.822l1.519-7.492L514.632,139.822z"/>
<path fill="#131B28" d="M549.26,101.663l0.465,1.984L549.26,101.663z"/>
<path fill="#131B28" d="M517.669,124.819c0.111-0.556,0.298-1.456,0.416-2.007l1.622-7.602l-1.837,8.611L517.669,124.819
	L517.669,124.819z"/>
<path fill="#131B28" d="M510.436,100.323c-0.11,0.539-0.258,1.216-0.354,1.663l-4.037,18.921l4.252-19.93L510.436,100.323
	L510.436,100.323z"/>
<path fill="#131B28" d="M550.193,105.583l-0.475-1.937l-0.463-1.984l-0.232-1.004c-0.922-3.569-3.619-5.629-9.475-5.629l-9.12-0.01
	l-8.396-0.01h-0.727h-8.729c-0.565,0-1.127,0.453-1.243,1.01l0,0l-0.421,1.973l-0.489,2.33l-0.14,0.654l-4.254,19.931L502,139.824
	c-0.12,0.556-0.159,1.238-0.089,1.516c0.063,0.278,1.155,0.506,1.726,0.506h8.521c0.563,0,1.282-0.104,1.593-0.228
	c0.31-0.125,0.769-1.241,0.881-1.798l1.513-7.496l1.521-7.491c0-0.003,0-0.011,0.002-0.015l0.203-0.999l1.837-8.608l1.623-7.605
	c0.12-0.551,0.678-1.004,1.248-1.005l26.817-0.015C549.963,106.588,550.32,106.138,550.193,105.583L550.193,105.583z"/>
<path fill="#131B28" d="M584.718,88.072c-0.565,0.005-1.496,0.009-2.062,0.009h-8.584c-0.566,0-1.294,0.383-1.616,0.852
	l-18.981,27.811c-0.315,0.47-0.688,0.398-0.812-0.151l-1.398-6.13c-0.126-0.553-0.688-1.005-1.26-1.005H537.8
	c-0.568,0-0.905,0.445-0.75,0.991l5.469,19.155c0.156,0.546,0.169,1.442,0.028,1.993l-2.384,9.271
	c-0.144,0.55,0.207,1.001,0.771,1.001h12.062c0.562,0,1.146-0.451,1.288-1.001l2.385-9.271c0.136-0.551,0.533-1.37,0.876-1.825
	l30.815-40.9c0.345-0.454,0.153-0.822-0.412-0.818L584.718,88.072L584.718,88.072z"/>
<path fill="#131B28" d="M487.767,112.063v-0.011c-0.066,0.615-0.638,1.067-1.208,1.067h-15.47c-0.534,0-0.806-0.363-0.728-0.813
	c0.005-0.013,0.005-0.024,0.014-0.035c0,0-0.007,0.002-0.009,0.005c0.002-0.019,0.002-0.033,0.009-0.052
	c0,0,0.028-0.108,0.069-0.262c1.479-3.929,4.483-6.509,10.145-6.509C486.958,105.453,488.199,108.564,487.767,112.063
	L487.767,112.063z M483.229,94.205c-19.857,0-24.562,12.054-27.2,24.219c-2.644,12.4-2.413,23.994,18.136,23.994h0.729
	c0.065-0.001,0.138-0.001,0.195-0.001h0.577h0.21h0.539c0.08-0.001,0.16-0.001,0.241-0.001c0.205,0,0.413-0.001,0.614-0.001h0.147
	c0.813-0.001,1.637-0.006,2.464-0.009h0.043c5.427-0.021,10.869-0.062,13.073-0.081c0.562-0.008,1.116-0.464,1.229-1.014
	l0.832-4.065l0.163-0.792l0.992-4.852c0.113-0.557-0.258-1.011-0.825-1.011h-18.477c-7.347,0-9.528-1.954-8.728-7.692h29.53
	l-0.002,0.004c0.008,0,0.015-0.004,0.021-0.004c0.47-0.009,0.9-0.333,1.073-0.763c0.03-0.083,0.062-0.169,0.073-0.258l-0.008,0.004
	c4.388-16.54,3.132-27.679-15.656-27.679L483.229,94.205z"/>
<path fill="#131B28" d="M389.367,112l-0.279,0.988c0,0.005-0.002,0.005-0.002,0.005l-2.229,7.903l-2.229,7.9
	c-0.154,0.546-0.745,0.992-1.312,0.992H371.51c-8.953,0-11.134-7.001-8.953-17.33c2.183-10.564,6.453-17.132,15.27-17.797
	C389.865,93.755,392.274,102.224,389.367,112L389.367,112z M397.462,129.182c0,0,5.564-13.512,6.828-21.317
	c1.725-10.446-3.507-25.599-23.712-25.599c-20.089,0-28.812,14.466-32.141,30.192c-3.328,15.84,1.028,29.731,21.009,29.617
	l15.758-0.059l14.728-0.053c0.566-0.005,1.146-0.456,1.292-1.004l2.566-9.785c0.142-0.551-0.204-1.001-0.771-1.005l-2.459-0.016
	l-2.459-0.016c-0.479-0.002-0.758-0.312-0.695-0.729C397.41,129.337,397.428,129.261,397.462,129.182L397.462,129.182z"/>
<path fill="#131B28" d="M496.91,120.14c0,0.373-0.303,0.676-0.679,0.676c-0.37,0-0.679-0.303-0.679-0.676
	c0-0.374,0.309-0.676,0.679-0.676C496.607,119.464,496.91,119.765,496.91,120.14z"/>
<path fill="#0868AC" d="M244.062,102.57c-5.548,7.973-4.855,18.345-0.62,26.816c0.1,0.203,0.207,0.402,0.312,0.604
	c0.065,0.127,0.129,0.254,0.196,0.381c0.04,0.073,0.083,0.146,0.125,0.219c0.071,0.136,0.146,0.263,0.221,0.396
	c0.133,0.23,0.266,0.463,0.405,0.694c0.075,0.125,0.151,0.251,0.229,0.38c0.153,0.247,0.311,0.49,0.471,0.732
	c0.066,0.104,0.133,0.207,0.2,0.309c0.221,0.329,0.445,0.659,0.681,0.982c0.005,0.008,0.012,0.017,0.019,0.027
	c0.036,0.05,0.078,0.1,0.116,0.151c0.2,0.279,0.409,0.553,0.618,0.825c0.079,0.098,0.156,0.196,0.233,0.297
	c0.188,0.236,0.379,0.471,0.575,0.704c0.071,0.087,0.144,0.174,0.218,0.261c0.26,0.305,0.527,0.612,0.799,0.911
	c0.004,0.004,0.01,0.012,0.016,0.016c0.012,0.015,0.021,0.022,0.031,0.035c0.264,0.29,0.535,0.572,0.81,0.855
	c0.084,0.086,0.172,0.176,0.259,0.262c0.214,0.213,0.43,0.425,0.647,0.635c0.087,0.085,0.177,0.172,0.265,0.251
	c0.292,0.275,0.588,0.545,0.889,0.808c0.005,0.005,0.008,0.009,0.015,0.011c0.05,0.047,0.104,0.088,0.153,0.133
	c0.266,0.229,0.535,0.457,0.806,0.682c0.11,0.087,0.223,0.178,0.332,0.265c0.224,0.178,0.447,0.354,0.673,0.527
	c0.12,0.091,0.239,0.182,0.358,0.272c0.251,0.183,0.502,0.362,0.754,0.54c0.094,0.067,0.183,0.133,0.276,0.193
	c0.024,0.019,0.05,0.037,0.075,0.056c0.241,0.165,0.486,0.324,0.732,0.483c0.105,0.07,0.211,0.142,0.317,0.209
	c0.376,0.24,0.758,0.476,1.146,0.702c0.104,0.061,0.211,0.12,0.316,0.179c0.285,0.164,0.57,0.324,0.859,0.484
	c0.157,0.083,0.318,0.163,0.476,0.245c0.204,0.106,0.407,0.215,0.616,0.319c0.047,0.024,0.096,0.047,0.143,0.068
	c0.084,0.04,0.168,0.079,0.25,0.122c0.322,0.155,0.648,0.306,0.977,0.451c0.071,0.031,0.137,0.062,0.206,0.094
	c0.375,0.163,0.755,0.32,1.137,0.472c0.092,0.038,0.185,0.072,0.277,0.108c0.354,0.138,0.713,0.271,1.074,0.398
	c0.044,0.018,0.089,0.03,0.134,0.047c0.396,0.138,0.794,0.266,1.198,0.392c0.096,0.028,0.193,0.06,0.289,0.086
	c0.409,0.125,0.814,0.271,1.236,0.351c26.826,4.891,34.618-16.121,34.618-16.121c-6.546,8.525-18.162,10.775-29.168,8.271
	c-0.418-0.093-0.821-0.224-1.229-0.343c-0.104-0.03-0.205-0.062-0.307-0.093c-0.397-0.123-0.791-0.251-1.183-0.385
	c-0.054-0.021-0.107-0.038-0.163-0.058c-0.352-0.126-0.697-0.255-1.042-0.387c-0.099-0.039-0.195-0.077-0.293-0.116
	c-0.381-0.149-0.755-0.305-1.128-0.468c-0.074-0.033-0.148-0.067-0.225-0.102c-0.319-0.143-0.634-0.289-0.948-0.441
	c-0.09-0.042-0.182-0.084-0.275-0.131c-0.248-0.12-0.492-0.249-0.734-0.374c-0.164-0.084-0.329-0.167-0.49-0.255
	c-0.299-0.159-0.59-0.325-0.881-0.494c-0.099-0.056-0.197-0.11-0.297-0.166c-0.388-0.229-0.77-0.465-1.147-0.702
	c-0.104-0.066-0.207-0.14-0.309-0.204c-0.275-0.179-0.548-0.358-0.816-0.544c-0.089-0.06-0.175-0.125-0.264-0.186
	c-0.259-0.183-0.517-0.368-0.77-0.558c-0.116-0.085-0.231-0.173-0.343-0.258c-0.234-0.181-0.468-0.359-0.696-0.543
	c-0.104-0.084-0.208-0.166-0.31-0.251c-0.293-0.239-0.582-0.482-0.868-0.73c-0.027-0.027-0.061-0.052-0.093-0.082
	c-0.31-0.271-0.61-0.548-0.912-0.827c-0.086-0.082-0.171-0.162-0.255-0.248c-0.223-0.212-0.441-0.421-0.656-0.64
	c-0.085-0.086-0.171-0.171-0.257-0.257c-0.272-0.278-0.54-0.562-0.804-0.852c-0.013-0.013-0.026-0.027-0.038-0.04
	c-0.277-0.306-0.549-0.615-0.814-0.929c-0.073-0.084-0.143-0.168-0.214-0.252c-0.2-0.24-0.395-0.48-0.589-0.726
	c-0.07-0.087-0.143-0.177-0.213-0.269c-0.231-0.3-0.456-0.598-0.678-0.901c-6.11-8.337-8.307-19.832-3.422-29.271"/>
<path fill="#0868AC" d="M261.278,95.853c-4.012,5.772-3.793,13.501-0.663,19.604c0.524,1.026,1.113,2.019,1.773,2.962
	c0.602,0.861,1.267,1.888,2.065,2.58c0.289,0.319,0.591,0.631,0.9,0.935c0.077,0.081,0.157,0.156,0.237,0.234
	c0.3,0.29,0.604,0.576,0.919,0.855c0.014,0.011,0.025,0.023,0.037,0.03c0.003,0.004,0.006,0.006,0.01,0.009
	c0.349,0.306,0.707,0.6,1.073,0.889c0.081,0.062,0.163,0.127,0.243,0.192c0.366,0.281,0.74,0.557,1.124,0.818
	c0.012,0.009,0.021,0.015,0.032,0.025c0.169,0.117,0.341,0.225,0.513,0.339c0.082,0.053,0.161,0.109,0.243,0.159
	c0.274,0.177,0.551,0.348,0.833,0.512c0.041,0.026,0.078,0.046,0.117,0.07c0.242,0.138,0.489,0.275,0.736,0.41
	c0.085,0.046,0.172,0.092,0.262,0.137c0.169,0.09,0.339,0.181,0.515,0.268c0.025,0.013,0.054,0.021,0.078,0.032
	c0.354,0.176,0.71,0.344,1.074,0.503c0.077,0.033,0.158,0.064,0.236,0.095c0.291,0.126,0.584,0.246,0.88,0.359
	c0.125,0.046,0.252,0.094,0.377,0.138c0.269,0.1,0.538,0.192,0.809,0.283c0.121,0.038,0.243,0.079,0.364,0.117
	c0.387,0.119,0.767,0.271,1.169,0.337c20.713,3.433,25.498-12.516,25.498-12.516c-4.312,6.209-12.657,9.171-21.564,6.858
	c-0.396-0.104-0.787-0.218-1.174-0.339c-0.118-0.035-0.234-0.075-0.352-0.115c-0.277-0.088-0.552-0.184-0.823-0.283
	c-0.122-0.043-0.248-0.089-0.368-0.137c-0.298-0.114-0.592-0.232-0.883-0.357c-0.081-0.032-0.16-0.064-0.239-0.101
	c-0.366-0.159-0.725-0.327-1.08-0.502c-0.183-0.088-0.362-0.184-0.542-0.275c-0.104-0.056-0.209-0.109-0.313-0.162
	c-0.229-0.123-0.461-0.253-0.686-0.387c-0.054-0.03-0.109-0.059-0.165-0.092c-0.278-0.164-0.556-0.332-0.829-0.508
	c-0.084-0.054-0.167-0.11-0.251-0.167c-0.183-0.117-0.36-0.236-0.538-0.355c-0.381-0.264-0.752-0.538-1.119-0.818
	c-0.085-0.066-0.17-0.132-0.252-0.198c-3.898-3.078-6.988-7.286-8.459-12.057c-1.539-4.947-1.207-10.5,1.461-15.007"/>
<path fill="#0868AC" d="M275.76,90.834c-2.364,3.481-2.596,7.803-0.957,11.646c1.732,4.08,5.278,7.282,9.417,8.797
	c0.171,0.065,0.341,0.12,0.514,0.18c0.075,0.023,0.151,0.049,0.227,0.07c0.244,0.078,0.485,0.166,0.736,0.214
	c11.438,2.21,14.542-5.867,15.365-7.058c-2.718,3.911-7.284,4.853-12.888,3.494c-0.441-0.11-0.929-0.269-1.356-0.422
	c-0.547-0.193-1.085-0.415-1.608-0.667c-0.996-0.478-1.943-1.059-2.824-1.723c-5.014-3.804-8.126-11.062-4.855-16.971"/>
<ellipse fill="#6682BA" cx="139.525" cy="242.817" rx="120.304" ry="60.966"/>
<g>
	<path fill="#FFFFFF" d="M162.735,261.585l5.685-29.249c1.281-6.602,0.216-11.526-3.171-14.639
		c-3.278-3.011-8.845-4.474-17.018-4.474h-9.842l2.817-14.492c0.105-0.547-0.039-1.111-0.394-1.542
		c-0.353-0.429-0.88-0.678-1.436-0.678h-13.585c-0.892,0-1.658,0.633-1.829,1.507l-6.034,31.053c-0.55-3.494-1.9-6.498-4.064-8.975
		c-3.984-4.562-10.288-6.873-18.734-6.873H68.8c-0.889,0-1.657,0.632-1.827,1.507l-12.216,62.854
		c-0.105,0.547,0.037,1.111,0.392,1.541c0.353,0.43,0.881,0.678,1.437,0.678h13.692c0.893,0,1.658-0.632,1.829-1.506l2.954-15.205
		h10.192c5.349,0,9.841-0.58,13.35-1.721c3.588-1.166,6.889-3.145,9.798-5.867c2.351-2.161,4.295-4.578,5.789-7.188l-2.439,12.56
		c-0.106,0.548,0.036,1.11,0.391,1.54s0.88,0.677,1.438,0.677h13.583c0.892,0,1.658-0.633,1.83-1.507l6.703-34.501h9.32
		c3.973,0,5.135,0.791,5.451,1.13c0.29,0.312,0.885,1.403,0.216,4.852l-5.403,27.81c-0.107,0.548,0.036,1.109,0.391,1.54
		c0.353,0.429,0.881,0.677,1.438,0.677h13.801C161.798,263.092,162.564,262.459,162.735,261.585z M99.757,237.417
		c-0.854,4.384-2.46,7.512-4.78,9.297c-2.355,1.813-6.122,2.733-11.197,2.733h-6.068l4.387-22.58h7.846
		c5.765,0,8.089,1.233,9.02,2.266C100.257,230.565,100.53,233.432,99.757,237.417z"/>
	<path fill="#FFFFFF" d="M220.827,220.098c-3.986-4.562-10.289-6.874-18.734-6.874h-26.33c-0.891,0-1.658,0.632-1.829,1.507
		l-12.217,62.854c-0.106,0.546,0.039,1.11,0.393,1.541c0.354,0.43,0.881,0.678,1.437,0.678h13.692c0.892,0,1.658-0.632,1.829-1.508
		l2.957-15.203h10.19c5.349,0,9.841-0.58,13.351-1.722c3.587-1.165,6.889-3.145,9.798-5.867c2.428-2.23,4.426-4.735,5.938-7.441
		c1.513-2.705,2.598-5.722,3.229-8.971C226.085,231.081,224.84,224.69,220.827,220.098z M206.626,237.417
		c-0.853,4.384-2.46,7.512-4.777,9.297c-2.357,1.813-6.124,2.733-11.2,2.733h-6.069l4.391-22.58h7.844
		c5.765,0,8.088,1.233,9.019,2.266C207.125,230.565,207.401,233.432,206.626,237.417z"/>
</g>
<g>
	<path fill="#00000E" d="M89.946,225.006c5.201,0,8.668,0.96,10.401,2.879c1.731,1.921,2.144,5.218,1.239,9.89
		c-0.947,4.865-2.771,8.338-5.473,10.418c-2.701,2.08-6.814,3.118-12.334,3.118h-8.328l5.113-26.305H89.946L89.946,225.006z
		 M56.585,277.939h13.692l3.247-16.71h11.728c5.175,0,9.433-0.543,12.773-1.632c3.342-1.086,6.38-2.909,9.113-5.468
		c2.295-2.109,4.152-4.435,5.573-6.979c1.418-2.542,2.43-5.35,3.025-8.418c1.448-7.45,0.355-13.253-3.275-17.411
		c-3.632-4.157-9.41-6.236-17.331-6.236H68.8L56.585,277.939z"/>
	<path fill="#00000E" d="M125.793,198.376h13.585l-3.248,16.71h12.102c7.615,0,12.867,1.33,15.757,3.983
		c2.89,2.656,3.757,6.961,2.602,12.91l-5.685,29.25h-13.8l5.403-27.811c0.614-3.163,0.389-5.322-0.678-6.473
		c-1.07-1.15-3.342-1.726-6.817-1.726h-10.856l-6.997,36.009h-13.584L125.793,198.376z"/>
	<path fill="#00000E" d="M196.813,225.006c5.203,0,8.668,0.96,10.403,2.879c1.732,1.921,2.143,5.218,1.237,9.89
		c-0.946,4.865-2.77,8.338-5.471,10.418c-2.702,2.08-6.815,3.118-12.336,3.118h-8.328l5.113-26.305H196.813L196.813,225.006z
		 M163.456,277.939h13.691l3.246-16.71h11.726c5.177,0,9.433-0.543,12.777-1.632c3.34-1.086,6.377-2.909,9.112-5.468
		c2.295-2.109,4.15-4.435,5.573-6.979c1.42-2.542,2.429-5.35,3.024-8.418c1.448-7.45,0.354-13.253-3.276-17.411
		c-3.633-4.157-9.408-6.236-17.332-6.236h-26.329L163.456,277.939z"/>
</g>
<g>
	<path fill="#006189" d="M245.628,715.514h9.845v-38.878l15.242,33.896c1.799,4.104,4.261,5.554,9.088,5.554
		c4.828,0,7.194-1.45,8.994-5.554l15.24-33.896v38.878h9.847V676.7c0-3.788-1.518-5.616-4.641-6.563
		c-7.479-2.338-12.496-0.314-14.768,4.733l-14.959,33.452l-14.482-33.452c-2.179-5.052-7.289-7.071-14.77-4.733
		c-3.124,0.946-4.639,2.775-4.639,6.563L245.628,715.514L245.628,715.514z"/>
	<path fill="#006189" d="M322.072,683.868h9.841v21.419c-0.092,1.166,0.374,3.896,5.767,3.979c2.751,0.044,21.238,0,21.41,0v-25.501
		h9.865c0.047,0-0.011,34.776-0.01,34.929c0.057,8.571-10.645,10.438-15.571,10.583h-31.088v-6.624c0.054,0,31.062,0.009,31.141,0
		c6.338-0.669,5.589-3.818,5.588-4.883v-2.58h-20.927c-9.734-0.091-15.937-4.341-16.012-9.229
		C322.067,705.511,322.286,684.082,322.072,683.868L322.072,683.868z"/>
	<path fill="#E48F00" d="M376.54,715.514h28.305c3.313,0,6.535-0.688,9.089-1.893c4.266-1.956,6.348-4.608,6.348-8.078v-7.194
		c0-2.843-2.365-5.487-7.005-7.259c-2.466-0.945-5.492-1.454-8.432-1.454h-11.927c-3.976,0-5.868-1.192-6.341-3.849
		c-0.095-0.314-0.095-0.568-0.095-0.883v-4.481c0-0.252,0-0.505,0.095-0.821c0.473-2.02,1.513-2.587,5.018-2.898
		c0.283,0,0.661-0.063,0.945-0.063h28.115v-6.562H393.01c-3.975,0-6.057,0.249-7.949,0.814c-5.867,1.834-8.428,4.734-8.428,9.783
		v5.742c0,4.418,5.021,8.208,13.441,9.088c0.948,0.066,1.896,0.128,2.844,0.128h10.224c0.378,0,0.76,0,1.04,0.062
		c3.123,0.252,4.449,0.821,5.396,1.958c0.57,0.562,0.759,1.136,0.759,1.768v5.743c0,0.692-0.476,1.578-1.421,2.335
		c-0.851,0.758-2.271,1.262-4.166,1.389c-0.378,0-0.661,0.063-1.039,0.063h-27.17L376.54,715.514L376.54,715.514z"/>
	<path fill="#E48F00" d="M481.697,704.09c0,6.754,5.017,10.542,15.146,11.3c0.947,0.062,1.896,0.124,2.84,0.124h25.655v-6.562
		h-25.845c-5.773,0-7.952-1.452-7.952-4.924v-33.953h-9.843L481.697,704.09L481.697,704.09L481.697,704.09z"/>
	<path fill="#E48F00" d="M426.562,704.436v-23.397c0-5.945,4.173-9.55,12.426-10.688c0.854-0.126,1.804-0.188,2.652-0.188h18.689
		c0.947,0,1.803,0.062,2.751,0.188c8.254,1.142,12.426,4.742,12.426,10.688v23.397c0,4.821-1.771,7.401-5.854,9.086l9.692,8.756
		h-11.431l-7.844-7.082l-7.901,0.5h-10.529c-1.802,0-3.695-0.253-5.782-0.819C429.599,713.165,426.562,709.873,426.562,704.436
		L426.562,704.436z M437.188,703.866c0,0.312,0.1,0.634,0.19,1.013c0.569,2.721,3.129,4.237,7.021,4.237h8.939l-8.215-7.418h11.431
		l7.166,6.469c1.32-0.704,2.188-1.779,2.493-3.163c0.095-0.314,0.095-0.634,0.095-0.945V681.61c0-0.259,0-0.57-0.095-0.891
		c-0.57-2.525-3.131-3.979-6.924-3.979h-14.896c-4.358,0-7.21,1.896-7.21,4.869v22.26L437.188,703.866L437.188,703.866z"/>
	<path fill="#006189" d="M534.001,659.186c-6.053-0.166-10.675,0.398-14.627,2.064c-1.125,0.473-2.913,0.486-3.098,1.893
		c0.612,0.65,0.714,1.614,1.201,2.408c0.94,1.531,2.536,3.577,3.956,4.65c1.56,1.172,3.155,2.425,4.819,3.438
		c2.964,1.809,6.271,2.842,9.122,4.646c1.68,1.063,3.349,2.411,4.988,3.613c0.812,0.595,1.354,1.521,2.408,1.896
		c0-0.06,0-0.117,0-0.176c-0.557-0.703-0.692-1.672-1.205-2.408c-0.742-0.746-1.488-1.491-2.235-2.237
		c-2.187-2.898-4.963-5.452-7.915-7.568c-2.354-1.689-7.621-3.976-8.604-6.712c-0.057-0.059-0.109-0.113-0.173-0.173
		c1.671-0.188,3.624-0.794,5.162-1.204c2.588-0.691,4.901-0.516,7.574-1.204c1.203-0.347,2.408-0.688,3.613-1.03
		c0-0.229,0-0.461,0-0.69c-1.354-1.386-2.313-3.22-3.786-4.473c-3.854-3.282-8.062-6.562-12.395-9.29
		c-2.397-1.52-5.372-2.503-7.917-3.788c-0.854-0.431-2.354-0.657-2.926-1.378c-1.338-1.705-2.062-3.865-3.096-5.852
		c-2.16-4.161-4.282-8.701-6.196-13.08c-1.306-2.982-2.158-5.93-3.787-8.605c-7.812-12.846-16.224-20.599-29.255-28.22
		c-2.77-1.621-6.108-2.259-9.635-3.097c-1.896-0.116-3.785-0.231-5.682-0.351c-1.152-0.479-2.354-1.896-3.438-2.578
		c-4.317-2.729-15.389-8.66-18.585-0.856c-2.021,4.922,3.021,9.725,4.817,12.218c1.264,1.751,2.885,3.713,3.785,5.682
		c0.596,1.295,0.693,2.591,1.201,3.957c1.253,3.369,2.341,7.04,3.959,10.153c0.82,1.577,1.725,3.236,2.757,4.646
		c0.636,0.862,1.721,1.249,1.894,2.583c-1.063,1.484-1.122,3.797-1.724,5.682c-2.688,8.479-1.677,19.021,2.236,25.298
		c1.201,1.926,4.027,6.059,7.915,4.474c3.401-1.388,2.643-5.678,3.613-9.466c0.223-0.854,0.085-1.487,0.52-2.062
		c0,0.056,0,0.112,0,0.173c1.029,2.062,2.064,4.131,3.099,6.192c2.294,3.688,6.357,7.552,9.81,10.153
		c1.786,1.354,3.194,3.685,5.507,4.474c0-0.058,0-0.112,0-0.173c-0.058,0-0.113,0-0.173,0c-0.445-0.693-1.146-0.983-1.721-1.552
		c-1.35-1.318-2.845-2.959-3.958-4.473c-3.14-4.255-5.906-8.917-8.436-13.771c-1.203-2.312-2.253-4.873-3.269-7.228
		c-0.396-0.911-0.39-2.284-1.205-2.753c-1.11,1.724-2.754,3.122-3.614,5.163c-1.378,3.26-1.556,7.231-2.062,11.354
		c-0.306,0.109-0.168,0.032-0.346,0.173c-2.396-0.576-3.239-3.047-4.133-5.162c-2.248-5.354-2.67-13.973-0.688-20.134
		c0.514-1.594,2.832-6.616,1.894-8.09c-0.443-1.468-1.927-2.317-2.754-3.439c-1.021-1.39-2.046-3.217-2.753-4.817
		c-1.844-4.172-2.706-8.855-4.646-13.076c-0.93-2.019-2.496-4.058-3.786-5.854c-1.428-1.983-3.023-3.443-4.133-5.852
		c-0.395-0.854-0.928-2.222-0.342-3.098c0.186-0.593,0.445-0.842,1.028-1.031c0.998-0.771,3.779,0.255,4.819,0.688
		c2.761,1.147,5.062,2.236,7.399,3.785c1.123,0.745,2.258,2.188,3.611,2.582c0.517,0,1.034,0,1.553,0
		c2.422,0.559,5.136,0.173,7.396,0.859c4.001,1.217,7.587,3.104,10.843,5.164c9.919,6.262,18.029,15.177,23.575,25.812
		c0.896,1.711,1.278,3.35,2.063,5.163c1.586,3.66,3.587,7.431,5.161,11.013c1.573,3.576,3.107,7.184,5.337,10.152
		c1.17,1.566,5.688,2.403,7.741,3.271c1.44,0.607,3.8,1.238,5.161,2.062c2.604,1.57,5.131,3.442,7.57,5.161
		C530.06,655.744,533.812,657.63,534.001,659.186L534.001,659.186z"/>
	<path fill="#006189" d="M457.078,593.62c-1.262-0.024-2.155,0.138-3.096,0.346c0,0.062,0,0.115,0,0.172c0.055,0,0.109,0,0.17,0
		c0.604,1.235,1.664,2.03,2.411,3.102c0.567,1.204,1.146,2.411,1.72,3.61c0.057-0.058,0.114-0.109,0.173-0.173
		c1.065-0.751,1.553-1.952,1.55-3.784c-0.43-0.446-0.49-1.015-0.856-1.549C458.649,594.625,457.7,594.219,457.078,593.62
		L457.078,593.62z"/>
</g>
<g id="Livello_x0020_1">
	<polygon fill="#2C65F0" points="95.919,592.371 127.664,537.371 254.654,537.371 222.906,592.371 	"/>
	<polygon fill="#FBC73E" points="191.161,537.371 254.654,537.371 191.161,427.373 127.664,427.373 	"/>
	<polygon fill="#19974F" points="64.169,537.371 95.919,592.371 159.412,482.372 127.664,427.373 	"/>
</g>
</svg>
