<?xml version="1.0" encoding="utf-8"?>
<!-- Generator: Adobe Illustrator 19.1.0, SVG Export Plug-In . SVG Version: 6.00 Build 0)  -->
<svg version="1.1" baseProfile="tiny" id="Layer_1" xmlns="http://www.w3.org/2000/svg" xmlns:xlink="http://www.w3.org/1999/xlink"
	 x="0px" y="0px" viewBox="0 0 540 260" xml:space="preserve">
<g>
	<g>
		<rect x="0.5" y="0.5" fill="#FFFFFF" width="539" height="259"/>
		<path fill="#EEEEEE" d="M539,1v258H1V1H539 M540,0H0v260h540V0L540,0z"/>
	</g>
	<rect x="55" y="125" fill="#4C4C4C" width="474" height="1"/>
	<rect x="369" y="105" fill="#E2F8DC" width="151" height="20"/>
	<rect x="369" y="84" fill="#E2F8DC" width="151" height="20"/>
	<rect x="369" y="63" fill="#E2F8DC" width="151" height="20"/>
	<rect x="216" y="105" fill="#F9F1DC" width="153" height="20"/>
	<rect x="64" y="105" fill="#E5E5E5" width="153" height="20"/>
	<rect x="84" y="84" fill="#F2F2F2" width="153" height="20"/>
	<rect x="238" y="84" fill="#F9F1DC" width="131" height="20"/>
	<rect x="255" y="63" fill="#F9F1DC" width="114" height="20"/>
	<g>
		<rect x="69" y="110" fill="none" width="121" height="10"/>
		<path fill="#363636" d="M69.504,117.524l0.6-0.695c0.563,0.588,1.355,0.983,2.171,0.983c1.031,0,1.643-0.516,1.643-1.283
			c0-0.804-0.563-1.056-1.307-1.392l-1.128-0.491c-0.743-0.312-1.595-0.876-1.595-2.027c0-1.199,1.043-2.087,2.471-2.087
			c0.936,0,1.763,0.396,2.326,0.972l-0.539,0.647c-0.48-0.456-1.056-0.743-1.787-0.743c-0.876,0-1.464,0.443-1.464,1.151
			c0,0.755,0.684,1.043,1.308,1.307l1.115,0.48c0.912,0.396,1.619,0.935,1.619,2.099c0,1.247-1.02,2.242-2.675,2.242
			C71.159,118.688,70.188,118.232,69.504,117.524z"/>
		<path fill="#363636" d="M76.308,116.409v-3.694h0.995v3.562c0,1.091,0.324,1.559,1.092,1.559c0.6,0,1.02-0.3,1.571-0.983v-4.138
			h0.983v5.829h-0.815l-0.084-0.911h-0.036c-0.54,0.636-1.115,1.055-1.919,1.055C76.859,118.688,76.308,117.896,76.308,116.409z"/>
		<path fill="#363636" d="M83.831,117.944h-0.035l-0.084,0.6H82.92v-8.539h0.983v2.326l-0.023,1.056
			c0.527-0.468,1.175-0.815,1.822-0.815c1.512,0,2.315,1.163,2.315,2.962c0,1.991-1.188,3.154-2.519,3.154
			C84.959,118.688,84.348,118.412,83.831,117.944z M86.998,115.546c0-1.283-0.432-2.147-1.535-2.147
			c-0.492,0-1.008,0.276-1.56,0.792v3.059c0.516,0.443,1.044,0.611,1.428,0.611C86.29,117.86,86.998,116.984,86.998,115.546z"/>
		<path fill="#363636" d="M88.908,117.885l0.491-0.66c0.504,0.408,1.02,0.695,1.716,0.695c0.768,0,1.151-0.407,1.151-0.911
			c0-0.6-0.696-0.863-1.332-1.104c-0.827-0.3-1.738-0.695-1.738-1.679c0-0.936,0.743-1.655,2.003-1.655
			c0.731,0,1.367,0.3,1.811,0.659l-0.468,0.624c-0.396-0.3-0.815-0.516-1.331-0.516c-0.731,0-1.067,0.396-1.067,0.84
			c0,0.552,0.636,0.755,1.295,1.007c0.84,0.312,1.775,0.66,1.775,1.764c0,0.947-0.756,1.738-2.135,1.738
			C90.251,118.688,89.46,118.34,88.908,117.885z"/>
		<path fill="#363636" d="M94.152,115.642c0-1.955,1.308-3.07,2.807-3.07c0.768,0,1.295,0.312,1.703,0.684l-0.504,0.647
			c-0.336-0.3-0.695-0.516-1.163-0.516c-1.056,0-1.823,0.911-1.823,2.255c0,1.331,0.731,2.23,1.799,2.23
			c0.54,0,1.008-0.264,1.367-0.588l0.432,0.66c-0.527,0.468-1.188,0.743-1.883,0.743C95.34,118.688,94.152,117.572,94.152,115.642z"
			/>
		<path fill="#363636" d="M100.056,112.715h0.815l0.084,1.056h0.036c0.396-0.731,0.995-1.199,1.655-1.199
			c0.252,0,0.432,0.036,0.623,0.12l-0.191,0.863c-0.192-0.06-0.324-0.096-0.563-0.096c-0.492,0-1.08,0.359-1.476,1.343v3.742h-0.983
			V112.715z"/>
		<path fill="#363636" d="M104.04,110.88c0-0.384,0.3-0.636,0.684-0.636s0.684,0.252,0.684,0.636c0,0.372-0.3,0.636-0.684,0.636
			S104.04,111.252,104.04,110.88z M104.22,112.715h0.983v5.829h-0.983V112.715z"/>
		<path fill="#363636" d="M107.172,112.715h0.815l0.084,0.672h0.036c0.527-0.443,1.176-0.815,1.859-0.815
			c1.499,0,2.303,1.163,2.303,2.975c0,1.979-1.188,3.142-2.519,3.142c-0.54,0-1.08-0.252-1.619-0.671l0.023,1.02v1.967h-0.983
			V112.715z M111.25,115.546c0-1.283-0.432-2.147-1.535-2.147c-0.492,0-0.983,0.276-1.56,0.792v3.059
			c0.528,0.443,1.044,0.611,1.428,0.611C110.542,117.86,111.25,116.984,111.25,115.546z"/>
		<path fill="#363636" d="M113.796,116.745v-3.227h-0.863v-0.743l0.911-0.061l0.12-1.631h0.827v1.631h1.571v0.804h-1.571v3.238
			c0,0.72,0.229,1.128,0.899,1.128c0.204,0,0.468-0.084,0.66-0.156l0.191,0.743c-0.323,0.108-0.719,0.216-1.079,0.216
			C114.216,118.688,113.796,117.896,113.796,116.745z"/>
		<path fill="#363636" d="M117.504,110.88c0-0.384,0.3-0.636,0.684-0.636s0.684,0.252,0.684,0.636c0,0.372-0.3,0.636-0.684,0.636
			S117.504,111.252,117.504,110.88z M117.684,112.715h0.983v5.829h-0.983V112.715z"/>
		<path fill="#363636" d="M120.204,115.642c0-1.955,1.271-3.07,2.698-3.07c1.428,0,2.699,1.115,2.699,3.07
			c0,1.931-1.271,3.046-2.699,3.046C121.476,118.688,120.204,117.572,120.204,115.642z M124.582,115.642
			c0-1.344-0.672-2.255-1.68-2.255c-0.995,0-1.679,0.911-1.679,2.255c0,1.331,0.684,2.23,1.679,2.23
			C123.91,117.872,124.582,116.973,124.582,115.642z"/>
		<path fill="#363636" d="M127.14,112.715h0.815l0.084,0.84h0.036c0.552-0.552,1.151-0.983,1.955-0.983
			c1.224,0,1.774,0.792,1.774,2.278v3.694h-0.983v-3.562c0-1.091-0.335-1.559-1.103-1.559c-0.601,0-1.008,0.312-1.596,0.899v4.222
			h-0.983V112.715z"/>
		<path fill="#363636" d="M136.499,116.098h-0.959v-0.684h1.043l0.216-1.775h-1.02v-0.695h1.104l0.276-2.195h0.636l-0.276,2.195
			h1.596l0.287-2.195h0.636l-0.287,2.195h0.971v0.695h-1.043l-0.216,1.775h1.02v0.684h-1.104l-0.3,2.446h-0.636l0.288-2.446h-1.583
			l-0.3,2.446h-0.648L136.499,116.098z M138.814,115.414l0.216-1.775h-1.583l-0.217,1.775H138.814z"/>
		<path fill="#363636" d="M142.031,117.729h1.751v-5.637h-1.391v-0.636c0.695-0.12,1.199-0.312,1.619-0.563h0.755v6.836h1.583v0.815
			h-4.317V117.729z"/>
	</g>
	<g>
		<rect x="89" y="89" fill="none" width="121" height="10"/>
		<path fill="#363636" d="M89.504,96.524l0.6-0.695c0.563,0.588,1.355,0.983,2.171,0.983c1.031,0,1.643-0.516,1.643-1.283
			c0-0.804-0.563-1.056-1.307-1.392l-1.128-0.491c-0.743-0.312-1.595-0.876-1.595-2.027c0-1.199,1.043-2.087,2.471-2.087
			c0.936,0,1.763,0.396,2.326,0.972l-0.539,0.647c-0.48-0.456-1.056-0.743-1.787-0.743c-0.876,0-1.464,0.443-1.464,1.151
			c0,0.755,0.684,1.043,1.308,1.307l1.115,0.48c0.912,0.396,1.619,0.935,1.619,2.099c0,1.247-1.02,2.242-2.675,2.242
			C91.159,97.688,90.188,97.232,89.504,96.524z"/>
		<path fill="#363636" d="M96.308,95.409v-3.694h0.995v3.562c0,1.091,0.324,1.559,1.092,1.559c0.6,0,1.02-0.3,1.571-0.983v-4.138
			h0.983v5.829h-0.815l-0.084-0.911h-0.036c-0.54,0.636-1.115,1.055-1.919,1.055C96.859,97.688,96.308,96.896,96.308,95.409z"/>
		<path fill="#363636" d="M103.831,96.944h-0.035l-0.084,0.6h-0.792v-8.539h0.983v2.326l-0.023,1.056
			c0.527-0.468,1.175-0.815,1.822-0.815c1.512,0,2.315,1.163,2.315,2.962c0,1.991-1.188,3.154-2.519,3.154
			C104.959,97.688,104.348,97.412,103.831,96.944z M106.998,94.546c0-1.283-0.432-2.147-1.535-2.147
			c-0.492,0-1.008,0.276-1.56,0.792v3.059c0.516,0.443,1.044,0.611,1.428,0.611C106.29,96.86,106.998,95.984,106.998,94.546z"/>
		<path fill="#363636" d="M108.908,96.885l0.491-0.66c0.504,0.408,1.02,0.695,1.716,0.695c0.768,0,1.151-0.407,1.151-0.911
			c0-0.6-0.696-0.863-1.332-1.104c-0.827-0.3-1.738-0.695-1.738-1.679c0-0.936,0.743-1.655,2.003-1.655
			c0.731,0,1.367,0.3,1.811,0.659l-0.468,0.624c-0.396-0.3-0.815-0.516-1.331-0.516c-0.731,0-1.067,0.396-1.067,0.84
			c0,0.552,0.636,0.755,1.295,1.007c0.84,0.312,1.775,0.66,1.775,1.764c0,0.947-0.756,1.738-2.135,1.738
			C110.251,97.688,109.46,97.34,108.908,96.885z"/>
		<path fill="#363636" d="M114.152,94.642c0-1.955,1.308-3.07,2.807-3.07c0.768,0,1.295,0.312,1.703,0.684l-0.504,0.647
			c-0.336-0.3-0.695-0.516-1.163-0.516c-1.056,0-1.823,0.911-1.823,2.255c0,1.331,0.731,2.23,1.799,2.23
			c0.54,0,1.008-0.264,1.367-0.588l0.432,0.66c-0.527,0.468-1.188,0.743-1.883,0.743C115.34,97.688,114.152,96.572,114.152,94.642z"
			/>
		<path fill="#363636" d="M120.056,91.715h0.815l0.084,1.056h0.036c0.396-0.731,0.995-1.199,1.655-1.199
			c0.252,0,0.432,0.036,0.623,0.12l-0.191,0.863c-0.192-0.06-0.324-0.096-0.563-0.096c-0.492,0-1.08,0.359-1.476,1.343v3.742h-0.983
			V91.715z"/>
		<path fill="#363636" d="M124.04,89.88c0-0.384,0.3-0.636,0.684-0.636s0.684,0.252,0.684,0.636c0,0.372-0.3,0.636-0.684,0.636
			S124.04,90.252,124.04,89.88z M124.22,91.715h0.983v5.829h-0.983V91.715z"/>
		<path fill="#363636" d="M127.172,91.715h0.815l0.084,0.672h0.036c0.527-0.443,1.176-0.815,1.859-0.815
			c1.499,0,2.303,1.163,2.303,2.975c0,1.979-1.188,3.142-2.519,3.142c-0.54,0-1.08-0.252-1.619-0.671l0.023,1.02v1.967h-0.983
			V91.715z M131.25,94.546c0-1.283-0.432-2.147-1.535-2.147c-0.492,0-0.983,0.276-1.56,0.792v3.059
			c0.528,0.443,1.044,0.611,1.428,0.611C130.542,96.86,131.25,95.984,131.25,94.546z"/>
		<path fill="#363636" d="M133.796,95.745v-3.227h-0.863v-0.743l0.911-0.061l0.12-1.631h0.827v1.631h1.571v0.804h-1.571v3.238
			c0,0.72,0.229,1.128,0.899,1.128c0.204,0,0.468-0.084,0.66-0.156l0.191,0.743c-0.323,0.108-0.719,0.216-1.079,0.216
			C134.216,97.688,133.796,96.896,133.796,95.745z"/>
		<path fill="#363636" d="M137.504,89.88c0-0.384,0.3-0.636,0.684-0.636s0.684,0.252,0.684,0.636c0,0.372-0.3,0.636-0.684,0.636
			S137.504,90.252,137.504,89.88z M137.684,91.715h0.983v5.829h-0.983V91.715z"/>
		<path fill="#363636" d="M140.204,94.642c0-1.955,1.271-3.07,2.698-3.07c1.428,0,2.699,1.115,2.699,3.07
			c0,1.931-1.271,3.046-2.699,3.046C141.476,97.688,140.204,96.572,140.204,94.642z M144.582,94.642c0-1.344-0.672-2.255-1.68-2.255
			c-0.995,0-1.679,0.911-1.679,2.255c0,1.331,0.684,2.23,1.679,2.23C143.91,96.872,144.582,95.973,144.582,94.642z"/>
		<path fill="#363636" d="M147.14,91.715h0.815l0.084,0.84h0.036c0.552-0.552,1.151-0.983,1.955-0.983
			c1.224,0,1.774,0.792,1.774,2.278v3.694h-0.983v-3.562c0-1.091-0.335-1.559-1.103-1.559c-0.601,0-1.008,0.312-1.596,0.899v4.222
			h-0.983V91.715z"/>
		<path fill="#363636" d="M156.499,95.098h-0.959v-0.684h1.043l0.216-1.775h-1.02v-0.695h1.104l0.276-2.195h0.636l-0.276,2.195
			h1.596l0.287-2.195h0.636l-0.287,2.195h0.971v0.695h-1.043l-0.216,1.775h1.02v0.684h-1.104l-0.3,2.446h-0.636l0.288-2.446h-1.583
			l-0.3,2.446h-0.648L156.499,95.098z M158.814,94.414l0.216-1.775h-1.583l-0.217,1.775H158.814z"/>
		<path fill="#363636" d="M161.563,96.956c2.303-2.29,3.599-3.67,3.599-4.905c0-0.875-0.48-1.499-1.451-1.499
			c-0.636,0-1.188,0.408-1.632,0.924l-0.563-0.564c0.636-0.695,1.319-1.163,2.314-1.163c1.416,0,2.291,0.899,2.291,2.255
			c0,1.439-1.308,2.866-3.118,4.762c0.42-0.036,0.888-0.072,1.283-0.072h2.219v0.852h-4.941V96.956z"/>
	</g>
	<g>
		<rect x="108" y="69" fill="none" width="108" height="11"/>
		<path fill="#363636" d="M108.504,76.524l0.6-0.695c0.563,0.588,1.355,0.983,2.171,0.983c1.031,0,1.643-0.516,1.643-1.283
			c0-0.804-0.563-1.056-1.307-1.392l-1.128-0.491c-0.743-0.312-1.595-0.876-1.595-2.027c0-1.199,1.043-2.087,2.471-2.087
			c0.936,0,1.763,0.396,2.326,0.972l-0.539,0.647c-0.48-0.456-1.056-0.743-1.787-0.743c-0.876,0-1.464,0.443-1.464,1.151
			c0,0.755,0.684,1.043,1.308,1.307l1.115,0.48c0.912,0.396,1.619,0.935,1.619,2.099c0,1.247-1.02,2.242-2.675,2.242
			C110.159,77.688,109.188,77.232,108.504,76.524z"/>
		<path fill="#363636" d="M115.308,75.409v-3.694h0.995v3.562c0,1.091,0.324,1.559,1.092,1.559c0.6,0,1.02-0.3,1.571-0.983v-4.138
			h0.983v5.829h-0.815l-0.084-0.911h-0.036c-0.54,0.636-1.115,1.055-1.919,1.055C115.859,77.688,115.308,76.896,115.308,75.409z"/>
		<path fill="#363636" d="M122.831,76.944h-0.035l-0.084,0.6h-0.792v-8.539h0.983v2.326l-0.023,1.056
			c0.527-0.468,1.175-0.815,1.822-0.815c1.512,0,2.315,1.163,2.315,2.962c0,1.991-1.188,3.154-2.519,3.154
			C123.959,77.688,123.348,77.412,122.831,76.944z M125.998,74.546c0-1.283-0.432-2.147-1.535-2.147
			c-0.492,0-1.008,0.276-1.56,0.792v3.059c0.516,0.443,1.044,0.611,1.428,0.611C125.29,76.86,125.998,75.984,125.998,74.546z"/>
		<path fill="#363636" d="M127.908,76.885l0.491-0.66c0.504,0.408,1.02,0.695,1.716,0.695c0.768,0,1.151-0.407,1.151-0.911
			c0-0.6-0.696-0.863-1.332-1.104c-0.827-0.3-1.738-0.695-1.738-1.679c0-0.936,0.743-1.655,2.003-1.655
			c0.731,0,1.367,0.3,1.811,0.659l-0.468,0.624c-0.396-0.3-0.815-0.516-1.331-0.516c-0.731,0-1.067,0.396-1.067,0.84
			c0,0.552,0.636,0.755,1.295,1.007c0.84,0.312,1.775,0.66,1.775,1.764c0,0.947-0.756,1.738-2.135,1.738
			C129.251,77.688,128.46,77.34,127.908,76.885z"/>
		<path fill="#363636" d="M133.152,74.642c0-1.955,1.308-3.07,2.807-3.07c0.768,0,1.295,0.312,1.703,0.684l-0.504,0.647
			c-0.336-0.3-0.695-0.516-1.163-0.516c-1.056,0-1.823,0.911-1.823,2.255c0,1.331,0.731,2.23,1.799,2.23
			c0.54,0,1.008-0.264,1.367-0.588l0.432,0.66c-0.527,0.468-1.188,0.743-1.883,0.743C134.34,77.688,133.152,76.572,133.152,74.642z"
			/>
		<path fill="#363636" d="M139.056,71.715h0.815l0.084,1.056h0.036c0.396-0.731,0.995-1.199,1.655-1.199
			c0.252,0,0.432,0.036,0.623,0.12l-0.191,0.863c-0.192-0.06-0.324-0.096-0.563-0.096c-0.492,0-1.08,0.359-1.476,1.343v3.742h-0.983
			V71.715z"/>
		<path fill="#363636" d="M143.04,69.88c0-0.384,0.3-0.636,0.684-0.636s0.684,0.252,0.684,0.636c0,0.372-0.3,0.636-0.684,0.636
			S143.04,70.252,143.04,69.88z M143.22,71.715h0.983v5.829h-0.983V71.715z"/>
		<path fill="#363636" d="M146.172,71.715h0.815l0.084,0.672h0.036c0.527-0.443,1.176-0.815,1.859-0.815
			c1.499,0,2.303,1.163,2.303,2.975c0,1.979-1.188,3.142-2.519,3.142c-0.54,0-1.08-0.252-1.619-0.671l0.023,1.02v1.967h-0.983
			V71.715z M150.25,74.546c0-1.283-0.432-2.147-1.535-2.147c-0.492,0-0.983,0.276-1.56,0.792v3.059
			c0.528,0.443,1.044,0.611,1.428,0.611C149.542,76.86,150.25,75.984,150.25,74.546z"/>
		<path fill="#363636" d="M152.796,75.745v-3.227h-0.863v-0.743l0.911-0.061l0.12-1.631h0.827v1.631h1.571v0.804h-1.571v3.238
			c0,0.72,0.229,1.128,0.899,1.128c0.204,0,0.468-0.084,0.66-0.156l0.191,0.743c-0.323,0.108-0.719,0.216-1.079,0.216
			C153.216,77.688,152.796,76.896,152.796,75.745z"/>
		<path fill="#363636" d="M156.504,69.88c0-0.384,0.3-0.636,0.684-0.636s0.684,0.252,0.684,0.636c0,0.372-0.3,0.636-0.684,0.636
			S156.504,70.252,156.504,69.88z M156.684,71.715h0.983v5.829h-0.983V71.715z"/>
		<path fill="#363636" d="M159.204,74.642c0-1.955,1.271-3.07,2.698-3.07c1.428,0,2.699,1.115,2.699,3.07
			c0,1.931-1.271,3.046-2.699,3.046C160.476,77.688,159.204,76.572,159.204,74.642z M163.582,74.642c0-1.344-0.672-2.255-1.68-2.255
			c-0.995,0-1.679,0.911-1.679,2.255c0,1.331,0.684,2.23,1.679,2.23C162.91,76.872,163.582,75.973,163.582,74.642z"/>
		<path fill="#363636" d="M166.14,71.715h0.815l0.084,0.84h0.036c0.552-0.552,1.151-0.983,1.955-0.983
			c1.224,0,1.774,0.792,1.774,2.278v3.694h-0.983v-3.562c0-1.091-0.335-1.559-1.103-1.559c-0.601,0-1.008,0.312-1.596,0.899v4.222
			h-0.983V71.715z"/>
		<path fill="#363636" d="M175.499,75.098h-0.959v-0.684h1.043l0.216-1.775h-1.02v-0.695h1.104l0.276-2.195h0.636l-0.276,2.195
			h1.596l0.287-2.195h0.636l-0.287,2.195h0.971v0.695h-1.043l-0.216,1.775h1.02v0.684h-1.104l-0.3,2.446h-0.636l0.288-2.446h-1.583
			l-0.3,2.446h-0.648L175.499,75.098z M177.814,74.414l0.216-1.775h-1.583l-0.217,1.775H177.814z"/>
		<path fill="#363636" d="M180.396,76.608l0.504-0.647c0.456,0.479,1.056,0.911,1.955,0.911c0.924,0,1.583-0.552,1.583-1.403
			c0-0.911-0.624-1.522-2.446-1.522V73.19c1.631,0,2.171-0.624,2.171-1.428c0-0.743-0.504-1.211-1.319-1.211
			c-0.636,0-1.176,0.324-1.632,0.779l-0.527-0.623c0.588-0.552,1.295-0.96,2.195-0.96c1.331,0,2.29,0.708,2.29,1.943
			c0,0.923-0.563,1.511-1.391,1.822v0.049c0.923,0.216,1.654,0.887,1.654,1.942c0,1.355-1.115,2.183-2.519,2.183
			C181.691,77.688,180.911,77.172,180.396,76.608z"/>
	</g>
	<g>
		<g>
			<rect x="64" y="232" fill="#EEEEEE" width="456" height="1"/>
			<g>
				<rect x="390" y="227" fill="#FFFFFF" width="103" height="14.069"/>
				<path fill="#363636" d="M402.992,228.76h-2.773v-0.98h6.724v0.98h-2.773v8.208h-1.177V228.76z"/>
				<path fill="#363636" d="M408.468,227.779h1.162v3.852h4.272v-3.852h1.177v9.188h-1.177v-4.328h-4.272v4.328h-1.162V227.779z"/>
				<path fill="#363636" d="M417.44,227.779h1.162v9.188h-1.162V227.779z"/>
				<path fill="#363636" d="M420.952,227.779h2.871c1.877,0,3.222,0.672,3.222,2.577c0,1.429-0.812,2.297-2.072,2.605l2.339,4.006
					h-1.316l-2.214-3.88h-1.667v3.88h-1.162V227.779z M423.655,232.135c1.429,0,2.228-0.588,2.228-1.778
					c0-1.205-0.799-1.639-2.228-1.639h-1.541v3.417H423.655z"/>
				<path fill="#363636" d="M428.881,227.779h2.297c2.83,0,4.343,1.639,4.343,4.552c0,2.928-1.513,4.637-4.286,4.637h-2.354V227.779
					z M431.094,236.016c2.144,0,3.222-1.359,3.222-3.685c0-2.312-1.078-3.6-3.222-3.6h-1.051v7.284H431.094z"/>
				<path fill="#363636" d="M440.29,227.779h2.619c2.06,0,3.446,0.686,3.446,2.703c0,1.933-1.373,2.844-3.39,2.844h-1.514v3.642
					h-1.162V227.779z M442.825,232.373c1.597,0,2.367-0.588,2.367-1.891c0-1.331-0.812-1.765-2.423-1.765h-1.317v3.655H442.825z"/>
				<path fill="#363636" d="M447.983,227.779h5.295v0.98h-4.133v2.885h3.488v0.995h-3.488v3.334h4.272v0.994h-5.435V227.779z"/>
				<path fill="#363636" d="M455.09,227.779h2.871c1.877,0,3.222,0.672,3.222,2.577c0,1.429-0.812,2.297-2.072,2.605l2.339,4.006
					h-1.316l-2.214-3.88h-1.667v3.88h-1.162V227.779z M457.793,232.135c1.429,0,2.228-0.588,2.228-1.778
					c0-1.205-0.799-1.639-2.228-1.639h-1.541v3.417H457.793z"/>
				<path fill="#363636" d="M463.011,227.779h1.162v9.188h-1.162V227.779z"/>
				<path fill="#363636" d="M466.072,232.331c0-2.941,1.61-4.721,3.922-4.721s3.937,1.793,3.937,4.721
					c0,2.956-1.625,4.805-3.937,4.805S466.072,235.287,466.072,232.331z M472.712,232.331c0-2.283-1.079-3.698-2.718-3.698
					s-2.718,1.415-2.718,3.698c0,2.298,1.079,3.782,2.718,3.782S472.712,234.629,472.712,232.331z"/>
				<path fill="#363636" d="M475.823,227.779h2.297c2.83,0,4.343,1.639,4.343,4.552c0,2.928-1.513,4.637-4.286,4.637h-2.354V227.779
					z M478.036,236.016c2.144,0,3.222-1.359,3.222-3.685c0-2.312-1.078-3.6-3.222-3.6h-1.051v7.284H478.036z"/>
			</g>
			<g>
				<rect x="234" y="227.042" fill="#FFFFFF" width="117" height="14.069"/>
				<path fill="#363636" d="M245.241,235.819l0.701-0.812c0.658,0.687,1.582,1.148,2.535,1.148c1.204,0,1.919-0.603,1.919-1.499
					c0-0.938-0.658-1.232-1.527-1.625l-1.316-0.574c-0.868-0.364-1.863-1.022-1.863-2.367c0-1.4,1.219-2.438,2.886-2.438
					c1.093,0,2.06,0.463,2.718,1.135l-0.631,0.757c-0.56-0.532-1.232-0.869-2.087-0.869c-1.022,0-1.709,0.519-1.709,1.345
					c0,0.883,0.799,1.219,1.527,1.527l1.303,0.561c1.064,0.462,1.891,1.092,1.891,2.451c0,1.457-1.19,2.619-3.124,2.619
					C247.175,237.178,246.04,236.646,245.241,235.819z"/>
				<path fill="#363636" d="M253.283,227.82h5.295v0.981h-4.133v2.885h3.488v0.995h-3.488v3.334h4.272v0.994h-5.435V227.82z"/>
				<path fill="#363636" d="M259.725,232.415c0-2.955,1.736-4.763,4.076-4.763c1.12,0,1.989,0.532,2.521,1.135l-0.631,0.757
					c-0.49-0.519-1.092-0.869-1.877-0.869c-1.736,0-2.886,1.43-2.886,3.713c0,2.311,1.107,3.768,2.844,3.768
					c0.883,0,1.541-0.393,2.129-1.036l0.645,0.728c-0.729,0.841-1.625,1.331-2.815,1.331
					C261.434,237.178,259.725,235.413,259.725,232.415z"/>
				<path fill="#363636" d="M267.397,232.373c0-2.941,1.61-4.721,3.922-4.721s3.937,1.793,3.937,4.721
					c0,2.956-1.625,4.805-3.937,4.805S267.397,235.329,267.397,232.373z M274.037,232.373c0-2.283-1.079-3.698-2.718-3.698
					s-2.718,1.415-2.718,3.698c0,2.298,1.079,3.782,2.718,3.782S274.037,234.671,274.037,232.373z"/>
				<path fill="#363636" d="M277.149,227.82h1.204l3.32,5.771l0.994,1.905h0.057c-0.057-0.925-0.141-1.961-0.141-2.928v-4.749h1.106
					v9.189h-1.204l-3.334-5.785l-0.994-1.891h-0.057c0.07,0.924,0.154,1.904,0.154,2.871v4.805h-1.106V227.82z"/>
				<path fill="#363636" d="M286.053,227.82h2.297c2.83,0,4.343,1.64,4.343,4.553c0,2.928-1.513,4.637-4.286,4.637h-2.354V227.82z
					 M288.266,236.058c2.144,0,3.222-1.359,3.222-3.685c0-2.311-1.078-3.6-3.222-3.6h-1.051v7.284H288.266z"/>
				<path fill="#363636" d="M297.463,227.82h2.619c2.06,0,3.446,0.687,3.446,2.704c0,1.933-1.373,2.844-3.39,2.844h-1.514v3.642
					h-1.162V227.82z M299.998,232.415c1.597,0,2.367-0.588,2.367-1.891c0-1.331-0.812-1.765-2.423-1.765h-1.317v3.655H299.998z"/>
				<path fill="#363636" d="M305.157,227.82h5.295v0.981h-4.133v2.885h3.488v0.995h-3.488v3.334h4.272v0.994h-5.435V227.82z"/>
				<path fill="#363636" d="M312.264,227.82h2.871c1.877,0,3.222,0.673,3.222,2.578c0,1.429-0.812,2.297-2.072,2.605l2.339,4.006
					h-1.316l-2.214-3.88h-1.667v3.88h-1.162V227.82z M314.967,232.177c1.429,0,2.228-0.588,2.228-1.778
					c0-1.205-0.799-1.639-2.228-1.639h-1.541v3.417H314.967z"/>
				<path fill="#363636" d="M320.185,227.82h1.162v9.189h-1.162V227.82z"/>
				<path fill="#363636" d="M323.245,232.373c0-2.941,1.61-4.721,3.922-4.721s3.937,1.793,3.937,4.721
					c0,2.956-1.625,4.805-3.937,4.805S323.245,235.329,323.245,232.373z M329.885,232.373c0-2.283-1.079-3.698-2.718-3.698
					s-2.718,1.415-2.718,3.698c0,2.298,1.079,3.782,2.718,3.782S329.885,234.671,329.885,232.373z"/>
				<path fill="#363636" d="M332.997,227.82h2.297c2.83,0,4.343,1.64,4.343,4.553c0,2.928-1.513,4.637-4.286,4.637h-2.354V227.82z
					 M335.21,236.058c2.144,0,3.222-1.359,3.222-3.685c0-2.311-1.078-3.6-3.222-3.6h-1.051v7.284H335.21z"/>
			</g>
			<g>
				<rect x="92" y="227" fill="#FFFFFF" width="99" height="14.069"/>
				<path fill="#363636" d="M102.637,227.779h5.295v0.98h-4.133v3.109h3.502v0.98h-3.502v4.118h-1.162V227.779z"/>
				<path fill="#363636" d="M109.443,227.779h1.162v9.188h-1.162V227.779z"/>
				<path fill="#363636" d="M112.956,227.779h2.871c1.877,0,3.222,0.672,3.222,2.577c0,1.429-0.812,2.297-2.072,2.605l2.339,4.006
					h-1.316l-2.214-3.88h-1.667v3.88h-1.162V227.779z M115.659,232.135c1.429,0,2.228-0.588,2.228-1.778
					c0-1.205-0.799-1.639-2.228-1.639h-1.541v3.417H115.659z"/>
				<path fill="#363636" d="M120.201,235.777l0.701-0.812c0.658,0.687,1.582,1.148,2.535,1.148c1.204,0,1.919-0.603,1.919-1.499
					c0-0.938-0.658-1.232-1.527-1.625l-1.316-0.574c-0.868-0.364-1.863-1.022-1.863-2.367c0-1.4,1.219-2.438,2.886-2.438
					c1.093,0,2.06,0.463,2.718,1.135l-0.631,0.757c-0.56-0.532-1.232-0.869-2.087-0.869c-1.022,0-1.709,0.519-1.709,1.345
					c0,0.883,0.799,1.219,1.527,1.527l1.303,0.561c1.064,0.462,1.891,1.093,1.891,2.451c0,1.457-1.19,2.619-3.123,2.619
					C122.135,237.136,121,236.604,120.201,235.777z"/>
				<path fill="#363636" d="M130.342,228.76h-2.773v-0.98h6.724v0.98h-2.773v8.208h-1.177V228.76z"/>
				<path fill="#363636" d="M138.74,227.779h2.619c2.06,0,3.446,0.686,3.446,2.703c0,1.933-1.373,2.844-3.39,2.844h-1.514v3.642
					h-1.162V227.779z M141.275,232.373c1.597,0,2.367-0.588,2.367-1.891c0-1.331-0.812-1.765-2.423-1.765h-1.317v3.655H141.275z"/>
				<path fill="#363636" d="M146.435,227.779h5.295v0.98h-4.133v2.885h3.488v0.995h-3.488v3.334h4.272v0.994h-5.435V227.779z"/>
				<path fill="#363636" d="M153.541,227.779h2.871c1.877,0,3.222,0.672,3.222,2.577c0,1.429-0.812,2.297-2.072,2.605l2.339,4.006
					h-1.316l-2.214-3.88h-1.667v3.88h-1.162V227.779z M156.244,232.135c1.429,0,2.228-0.588,2.228-1.778
					c0-1.205-0.799-1.639-2.228-1.639h-1.541v3.417H156.244z"/>
				<path fill="#363636" d="M161.462,227.779h1.162v9.188h-1.162V227.779z"/>
				<path fill="#363636" d="M164.522,232.331c0-2.941,1.61-4.721,3.922-4.721s3.937,1.793,3.937,4.721
					c0,2.956-1.625,4.805-3.937,4.805S164.522,235.287,164.522,232.331z M171.162,232.331c0-2.283-1.079-3.698-2.718-3.698
					s-2.718,1.415-2.718,3.698c0,2.298,1.079,3.782,2.718,3.782S171.162,234.629,171.162,232.331z"/>
				<path fill="#363636" d="M174.274,227.779h2.297c2.83,0,4.343,1.639,4.343,4.552c0,2.928-1.513,4.637-4.286,4.637h-2.354V227.779
					z M176.487,236.016c2.144,0,3.222-1.359,3.222-3.685c0-2.312-1.078-3.6-3.222-3.6h-1.051v7.284H176.487z"/>
			</g>
		</g>
		<g>
			<rect x="368" y="166" fill="#EEEEEE" width="1" height="66"/>
			<rect x="519" y="166" fill="#EEEEEE" width="1" height="66"/>
			<rect x="216" y="166" fill="#EEEEEE" width="1" height="66"/>
			<rect x="64" y="166" fill="#EEEEEE" width="1" height="66"/>
		</g>
	</g>
	<g>
		<rect x="369" y="63" fill="#999999" width="1" height="71"/>
		<rect x="520" y="63" fill="#999999" width="1" height="71"/>
		<rect x="217" y="63" fill="#999999" width="1" height="71"/>
		<rect x="64" y="63" fill="#999999" width="1" height="71"/>
	</g>
	<g>
		<g>
			<rect x="315" y="146.219" fill="#FFFFFF" width="108" height="69.781"/>
			<path fill="#363636" d="M337.502,151.998h-2.549v-0.868h2.549v-2.731h0.911v2.731h2.549v0.868h-2.549v2.731h-0.911V151.998z"/>
			<path fill="#363636" d="M341.995,155.5c2.689-2.676,4.202-4.286,4.202-5.729c0-1.023-0.561-1.751-1.695-1.751
				c-0.742,0-1.387,0.476-1.904,1.078l-0.659-0.658c0.743-0.812,1.541-1.358,2.704-1.358c1.652,0,2.675,1.05,2.675,2.633
				c0,1.681-1.526,3.348-3.642,5.562c0.49-0.042,1.036-0.084,1.499-0.084h2.591v0.994h-5.771V155.5z"/>
			<path fill="#363636" d="M352.453,146.998h2.619c2.06,0,3.446,0.686,3.446,2.703c0,1.933-1.373,2.844-3.39,2.844h-1.514v3.642
				h-1.162V146.998z M354.988,151.592c1.597,0,2.367-0.588,2.367-1.891c0-1.331-0.812-1.765-2.423-1.765h-1.317v3.655H354.988z"/>
			<path fill="#363636" d="M360.377,146.998h5.295v0.98h-4.133v2.885h3.488v0.995h-3.488v3.334h4.272v0.994h-5.435V146.998z"/>
			<path fill="#363636" d="M367.755,146.998h2.871c1.877,0,3.222,0.672,3.222,2.577c0,1.429-0.812,2.297-2.072,2.605l2.339,4.006
				h-1.316l-2.214-3.88h-1.667v3.88h-1.162V146.998z M370.458,151.354c1.429,0,2.228-0.588,2.228-1.778
				c0-1.205-0.799-1.639-2.228-1.639h-1.541v3.417H370.458z"/>
			<path fill="#363636" d="M375.721,146.998h1.162v9.188h-1.162V146.998z"/>
			<path fill="#363636" d="M378.87,151.55c0-2.941,1.61-4.721,3.922-4.721s3.937,1.793,3.937,4.721c0,2.956-1.625,4.805-3.937,4.805
				S378.87,154.506,378.87,151.55z M385.51,151.55c0-2.283-1.079-3.698-2.718-3.698s-2.718,1.415-2.718,3.698
				c0,2.298,1.079,3.782,2.718,3.782S385.51,153.848,385.51,151.55z"/>
			<path fill="#363636" d="M388.698,146.998h2.297c2.83,0,4.343,1.639,4.343,4.552c0,2.928-1.513,4.637-4.286,4.637h-2.354V146.998z
				 M390.911,155.234c2.144,0,3.222-1.359,3.222-3.685c0-2.312-1.078-3.6-3.222-3.6h-1.051v7.284H390.911z"/>
			<path fill="#363636" d="M396.635,154.996l0.701-0.812c0.658,0.687,1.582,1.148,2.535,1.148c1.204,0,1.919-0.603,1.919-1.499
				c0-0.938-0.658-1.232-1.527-1.625l-1.316-0.574c-0.868-0.364-1.863-1.022-1.863-2.367c0-1.4,1.219-2.438,2.886-2.438
				c1.093,0,2.06,0.463,2.718,1.135l-0.631,0.757c-0.56-0.532-1.232-0.869-2.087-0.869c-1.022,0-1.709,0.519-1.709,1.345
				c0,0.883,0.799,1.219,1.527,1.527l1.303,0.561c1.064,0.462,1.891,1.093,1.891,2.451c0,1.457-1.19,2.619-3.123,2.619
				C398.568,156.354,397.434,155.822,396.635,154.996z"/>
			<path fill="#363636" d="M329.809,170.253c0-2.531,1.486-4.078,3.489-4.078c0.96,0,1.703,0.456,2.159,0.972l-0.54,0.647
				c-0.419-0.443-0.935-0.743-1.606-0.743c-1.487,0-2.471,1.223-2.471,3.178c0,1.979,0.947,3.227,2.435,3.227
				c0.756,0,1.319-0.336,1.823-0.888l0.552,0.624c-0.624,0.72-1.392,1.139-2.411,1.139
				C331.271,174.33,329.809,172.819,329.809,170.253z"/>
			<path fill="#363636" d="M336.588,171.284c0-1.955,1.271-3.07,2.698-3.07c1.428,0,2.698,1.115,2.698,3.07
				c0,1.931-1.271,3.046-2.698,3.046C337.859,174.33,336.588,173.215,336.588,171.284z M340.966,171.284
				c0-1.344-0.672-2.255-1.68-2.255c-0.995,0-1.679,0.911-1.679,2.255c0,1.331,0.684,2.23,1.679,2.23
				C340.294,173.515,340.966,172.615,340.966,171.284z"/>
			<path fill="#363636" d="M343.523,168.357h0.815l0.084,0.84h0.036c0.552-0.552,1.151-0.983,1.955-0.983
				c1.224,0,1.774,0.792,1.774,2.278v3.694h-0.983v-3.562c0-1.091-0.335-1.559-1.103-1.559c-0.601,0-1.008,0.312-1.596,0.899v4.222
				h-0.983V168.357z"/>
			<path fill="#363636" d="M350.255,172.388v-3.227h-0.863v-0.743l0.911-0.061l0.12-1.631h0.827v1.631h1.571v0.804h-1.571v3.238
				c0,0.72,0.229,1.128,0.899,1.128c0.204,0,0.468-0.084,0.66-0.156l0.191,0.743c-0.323,0.108-0.719,0.216-1.079,0.216
				C350.675,174.33,350.255,173.539,350.255,172.388z"/>
			<path fill="#363636" d="M354.143,168.357h0.815l0.084,1.056h0.036c0.396-0.731,0.995-1.199,1.655-1.199
				c0.252,0,0.432,0.036,0.623,0.12l-0.191,0.863c-0.192-0.06-0.324-0.096-0.563-0.096c-0.492,0-1.08,0.359-1.476,1.343v3.742
				h-0.983V168.357z"/>
			<path fill="#363636" d="M357.659,172.676c0-1.271,1.091-1.907,3.573-2.184c0-0.743-0.239-1.463-1.199-1.463
				c-0.671,0-1.283,0.312-1.738,0.624l-0.384-0.684c0.539-0.349,1.354-0.756,2.29-0.756c1.428,0,2.027,0.947,2.027,2.398v3.574
				h-0.815l-0.084-0.695h-0.036c-0.552,0.455-1.199,0.839-1.931,0.839C358.391,174.33,357.659,173.719,357.659,172.676z
				 M361.232,172.76v-1.619c-1.942,0.239-2.614,0.719-2.614,1.463c0,0.659,0.456,0.936,1.031,0.936
				C360.214,173.539,360.669,173.263,361.232,172.76z"/>
			<path fill="#363636" d="M363.635,171.284c0-1.955,1.308-3.07,2.807-3.07c0.768,0,1.295,0.312,1.703,0.684l-0.504,0.647
				c-0.336-0.3-0.695-0.516-1.163-0.516c-1.056,0-1.823,0.911-1.823,2.255c0,1.331,0.731,2.23,1.799,2.23
				c0.54,0,1.008-0.264,1.367-0.588l0.432,0.66c-0.527,0.468-1.188,0.743-1.883,0.743
				C364.822,174.33,363.635,173.215,363.635,171.284z"/>
			<path fill="#363636" d="M369.586,172.388v-3.227h-0.863v-0.743l0.911-0.061l0.12-1.631h0.827v1.631h1.571v0.804h-1.571v3.238
				c0,0.72,0.229,1.128,0.899,1.128c0.204,0,0.468-0.084,0.66-0.156l0.191,0.743c-0.323,0.108-0.719,0.216-1.079,0.216
				C370.006,174.33,369.586,173.539,369.586,172.388z"/>
			<path fill="#363636" d="M375.442,171.284c0-1.955,1.308-3.07,2.807-3.07c0.768,0,1.295,0.312,1.703,0.684l-0.504,0.647
				c-0.336-0.3-0.695-0.516-1.163-0.516c-1.056,0-1.823,0.911-1.823,2.255c0,1.331,0.731,2.23,1.799,2.23
				c0.54,0,1.008-0.264,1.367-0.588l0.432,0.66c-0.527,0.468-1.188,0.743-1.883,0.743
				C376.63,174.33,375.442,173.215,375.442,171.284z"/>
			<path fill="#363636" d="M381.346,165.647h0.983v2.326l-0.036,1.199c0.552-0.527,1.14-0.959,1.943-0.959
				c1.224,0,1.774,0.792,1.774,2.278v3.694h-0.983v-3.562c0-1.091-0.335-1.559-1.103-1.559c-0.601,0-1.008,0.312-1.596,0.899v4.222
				h-0.983V165.647z"/>
			<path fill="#363636" d="M387.515,172.676c0-1.271,1.091-1.907,3.573-2.184c0-0.743-0.239-1.463-1.199-1.463
				c-0.671,0-1.283,0.312-1.738,0.624l-0.384-0.684c0.539-0.349,1.354-0.756,2.29-0.756c1.428,0,2.027,0.947,2.027,2.398v3.574
				h-0.815l-0.084-0.695h-0.036c-0.552,0.455-1.199,0.839-1.931,0.839C388.246,174.33,387.515,173.719,387.515,172.676z
				 M391.088,172.76v-1.619c-1.942,0.239-2.614,0.719-2.614,1.463c0,0.659,0.456,0.936,1.031,0.936
				C390.069,173.539,390.524,173.263,391.088,172.76z"/>
			<path fill="#363636" d="M393.922,168.357h0.815l0.084,1.056h0.036c0.396-0.731,0.995-1.199,1.655-1.199
				c0.252,0,0.432,0.036,0.623,0.12l-0.191,0.863c-0.192-0.06-0.324-0.096-0.563-0.096c-0.492,0-1.08,0.359-1.476,1.343v3.742
				h-0.983V168.357z"/>
			<path fill="#363636" d="M397.523,175.302c0-0.491,0.323-0.959,0.852-1.319v-0.048c-0.288-0.18-0.516-0.491-0.516-0.947
				c0-0.492,0.335-0.876,0.635-1.079v-0.049c-0.384-0.312-0.755-0.875-0.755-1.57c0-1.271,1.007-2.075,2.194-2.075
				c0.324,0,0.612,0.06,0.828,0.144h2.026v0.756h-1.199c0.275,0.264,0.479,0.708,0.479,1.199c0,1.247-0.947,2.027-2.135,2.027
				c-0.288,0-0.611-0.072-0.875-0.204c-0.204,0.18-0.372,0.372-0.372,0.695c0,0.372,0.24,0.636,1.031,0.636h1.128
				c1.354,0,2.038,0.42,2.038,1.392c0,1.079-1.139,2.015-2.95,2.015C398.507,176.873,397.523,176.31,397.523,175.302z
				 M401.925,175.002c0-0.54-0.42-0.72-1.176-0.72h-1.007c-0.229,0-0.504-0.023-0.756-0.096c-0.42,0.3-0.6,0.647-0.6,0.983
				c0,0.624,0.636,1.02,1.691,1.02C401.193,176.189,401.925,175.613,401.925,175.002z M401.169,170.289
				c0-0.852-0.552-1.355-1.235-1.355s-1.235,0.504-1.235,1.355s0.563,1.391,1.235,1.391S401.169,171.141,401.169,170.289z"/>
			<path fill="#363636" d="M403.415,171.284c0-1.907,1.283-3.07,2.614-3.07c1.487,0,2.327,1.067,2.327,2.734
				c0,0.204-0.012,0.42-0.036,0.563h-3.934c0.071,1.235,0.827,2.027,1.942,2.027c0.552,0,1.02-0.18,1.451-0.456l0.348,0.647
				c-0.503,0.324-1.127,0.6-1.919,0.6C404.65,174.33,403.415,173.191,403.415,171.284z M407.493,170.805
				c0-1.176-0.528-1.812-1.439-1.812c-0.815,0-1.56,0.66-1.68,1.812H407.493z"/>
		</g>
		<g>
			<rect x="138" y="146.219" fill="#FFFFFF" width="156" height="69.781"/>
			<path fill="#363636" d="M188.24,151.998h-2.549v-0.868h2.549v-2.731h0.911v2.731h2.549v0.868h-2.549v2.731h-0.911V151.998z"/>
			<path fill="#363636" d="M193.279,155.234h2.045v-6.584h-1.625v-0.742c0.812-0.141,1.401-0.364,1.892-0.658h0.883v7.984h1.849
				v0.952h-5.043V155.234z"/>
			<path fill="#363636" d="M203.191,146.998h2.619c2.06,0,3.446,0.686,3.446,2.703c0,1.933-1.373,2.844-3.39,2.844h-1.514v3.642
				h-1.162V146.998z M205.727,151.592c1.597,0,2.367-0.588,2.367-1.891c0-1.331-0.812-1.765-2.423-1.765h-1.317v3.655H205.727z"/>
			<path fill="#363636" d="M211.115,146.998h5.295v0.98h-4.133v2.885h3.488v0.995h-3.488v3.334h4.272v0.994h-5.435V146.998z"/>
			<path fill="#363636" d="M218.493,146.998h2.871c1.877,0,3.222,0.672,3.222,2.577c0,1.429-0.812,2.297-2.072,2.605l2.339,4.006
				h-1.316l-2.214-3.88h-1.667v3.88h-1.162V146.998z M221.196,151.354c1.429,0,2.228-0.588,2.228-1.778
				c0-1.205-0.799-1.639-2.228-1.639h-1.541v3.417H221.196z"/>
			<path fill="#363636" d="M226.459,146.998h1.162v9.188h-1.162V146.998z"/>
			<path fill="#363636" d="M229.608,151.55c0-2.941,1.61-4.721,3.922-4.721s3.937,1.793,3.937,4.721
				c0,2.956-1.625,4.805-3.937,4.805S229.608,154.506,229.608,151.55z M236.248,151.55c0-2.283-1.079-3.698-2.718-3.698
				s-2.718,1.415-2.718,3.698c0,2.298,1.079,3.782,2.718,3.782S236.248,153.848,236.248,151.55z"/>
			<path fill="#363636" d="M239.437,146.998h2.297c2.83,0,4.343,1.639,4.343,4.552c0,2.928-1.513,4.637-4.286,4.637h-2.354V146.998z
				 M241.649,155.234c2.144,0,3.222-1.359,3.222-3.685c0-2.312-1.078-3.6-3.222-3.6h-1.051v7.284H241.649z"/>
			<path fill="#363636" d="M176.809,170.253c0-2.531,1.486-4.078,3.489-4.078c0.96,0,1.703,0.456,2.159,0.972l-0.54,0.647
				c-0.419-0.443-0.935-0.743-1.606-0.743c-1.487,0-2.471,1.223-2.471,3.178c0,1.979,0.947,3.227,2.435,3.227
				c0.756,0,1.319-0.336,1.823-0.888l0.552,0.624c-0.624,0.72-1.392,1.139-2.411,1.139
				C178.271,174.33,176.809,172.819,176.809,170.253z"/>
			<path fill="#363636" d="M183.588,171.284c0-1.955,1.271-3.07,2.698-3.07c1.428,0,2.698,1.115,2.698,3.07
				c0,1.931-1.271,3.046-2.698,3.046C184.859,174.33,183.588,173.215,183.588,171.284z M187.966,171.284
				c0-1.344-0.672-2.255-1.68-2.255c-0.995,0-1.679,0.911-1.679,2.255c0,1.331,0.684,2.23,1.679,2.23
				C187.294,173.515,187.966,172.615,187.966,171.284z"/>
			<path fill="#363636" d="M190.523,168.357h0.815l0.084,0.84h0.036c0.552-0.552,1.151-0.983,1.955-0.983
				c1.224,0,1.774,0.792,1.774,2.278v3.694h-0.983v-3.562c0-1.091-0.335-1.559-1.103-1.559c-0.601,0-1.008,0.312-1.596,0.899v4.222
				h-0.983V168.357z"/>
			<path fill="#363636" d="M197.255,172.388v-3.227h-0.863v-0.743l0.911-0.061l0.12-1.631h0.827v1.631h1.571v0.804h-1.571v3.238
				c0,0.72,0.229,1.128,0.899,1.128c0.204,0,0.468-0.084,0.66-0.156l0.191,0.743c-0.323,0.108-0.719,0.216-1.079,0.216
				C197.675,174.33,197.255,173.539,197.255,172.388z"/>
			<path fill="#363636" d="M201.143,168.357h0.815l0.084,1.056h0.036c0.396-0.731,0.995-1.199,1.655-1.199
				c0.252,0,0.432,0.036,0.623,0.12l-0.191,0.863c-0.192-0.06-0.324-0.096-0.563-0.096c-0.492,0-1.08,0.359-1.476,1.343v3.742
				h-0.983V168.357z"/>
			<path fill="#363636" d="M204.659,172.676c0-1.271,1.091-1.907,3.573-2.184c0-0.743-0.239-1.463-1.199-1.463
				c-0.671,0-1.283,0.312-1.738,0.624l-0.384-0.684c0.539-0.349,1.354-0.756,2.29-0.756c1.428,0,2.027,0.947,2.027,2.398v3.574
				h-0.815l-0.084-0.695h-0.036c-0.552,0.455-1.199,0.839-1.931,0.839C205.391,174.33,204.659,173.719,204.659,172.676z
				 M208.232,172.76v-1.619c-1.942,0.239-2.614,0.719-2.614,1.463c0,0.659,0.456,0.936,1.031,0.936
				C207.214,173.539,207.669,173.263,208.232,172.76z"/>
			<path fill="#363636" d="M210.635,171.284c0-1.955,1.308-3.07,2.807-3.07c0.768,0,1.295,0.312,1.703,0.684l-0.504,0.647
				c-0.336-0.3-0.695-0.516-1.163-0.516c-1.056,0-1.823,0.911-1.823,2.255c0,1.331,0.731,2.23,1.799,2.23
				c0.54,0,1.008-0.264,1.367-0.588l0.432,0.66c-0.527,0.468-1.188,0.743-1.883,0.743
				C211.822,174.33,210.635,173.215,210.635,171.284z"/>
			<path fill="#363636" d="M216.586,172.388v-3.227h-0.863v-0.743l0.911-0.061l0.12-1.631h0.827v1.631h1.571v0.804h-1.571v3.238
				c0,0.72,0.229,1.128,0.899,1.128c0.204,0,0.468-0.084,0.66-0.156l0.191,0.743c-0.323,0.108-0.719,0.216-1.079,0.216
				C217.006,174.33,216.586,173.539,216.586,172.388z"/>
			<path fill="#363636" d="M222.442,171.284c0-1.955,1.308-3.07,2.807-3.07c0.768,0,1.295,0.312,1.703,0.684l-0.504,0.647
				c-0.336-0.3-0.695-0.516-1.163-0.516c-1.056,0-1.823,0.911-1.823,2.255c0,1.331,0.731,2.23,1.799,2.23
				c0.54,0,1.008-0.264,1.367-0.588l0.432,0.66c-0.527,0.468-1.188,0.743-1.883,0.743
				C223.63,174.33,222.442,173.215,222.442,171.284z"/>
			<path fill="#363636" d="M228.346,165.647h0.983v2.326l-0.036,1.199c0.552-0.527,1.14-0.959,1.943-0.959
				c1.224,0,1.774,0.792,1.774,2.278v3.694h-0.983v-3.562c0-1.091-0.335-1.559-1.103-1.559c-0.601,0-1.008,0.312-1.596,0.899v4.222
				h-0.983V165.647z"/>
			<path fill="#363636" d="M234.515,172.676c0-1.271,1.091-1.907,3.573-2.184c0-0.743-0.239-1.463-1.199-1.463
				c-0.671,0-1.283,0.312-1.738,0.624l-0.384-0.684c0.539-0.349,1.354-0.756,2.29-0.756c1.428,0,2.027,0.947,2.027,2.398v3.574
				h-0.815l-0.084-0.695h-0.036c-0.552,0.455-1.199,0.839-1.931,0.839C235.246,174.33,234.515,173.719,234.515,172.676z
				 M238.088,172.76v-1.619c-1.942,0.239-2.614,0.719-2.614,1.463c0,0.659,0.456,0.936,1.031,0.936
				C237.069,173.539,237.524,173.263,238.088,172.76z"/>
			<path fill="#363636" d="M240.922,168.357h0.815l0.084,1.056h0.036c0.396-0.731,0.995-1.199,1.655-1.199
				c0.252,0,0.432,0.036,0.623,0.12l-0.191,0.863c-0.192-0.06-0.324-0.096-0.563-0.096c-0.492,0-1.08,0.359-1.476,1.343v3.742
				h-0.983V168.357z"/>
			<path fill="#363636" d="M244.523,175.302c0-0.491,0.323-0.959,0.852-1.319v-0.048c-0.288-0.18-0.516-0.491-0.516-0.947
				c0-0.492,0.335-0.876,0.635-1.079v-0.049c-0.384-0.312-0.755-0.875-0.755-1.57c0-1.271,1.007-2.075,2.194-2.075
				c0.324,0,0.612,0.06,0.828,0.144h2.026v0.756h-1.199c0.275,0.264,0.479,0.708,0.479,1.199c0,1.247-0.947,2.027-2.135,2.027
				c-0.288,0-0.611-0.072-0.875-0.204c-0.204,0.18-0.372,0.372-0.372,0.695c0,0.372,0.24,0.636,1.031,0.636h1.128
				c1.354,0,2.038,0.42,2.038,1.392c0,1.079-1.139,2.015-2.95,2.015C245.507,176.873,244.523,176.31,244.523,175.302z
				 M248.925,175.002c0-0.54-0.42-0.72-1.176-0.72h-1.007c-0.229,0-0.504-0.023-0.756-0.096c-0.42,0.3-0.6,0.647-0.6,0.983
				c0,0.624,0.636,1.02,1.691,1.02C248.193,176.189,248.925,175.613,248.925,175.002z M248.169,170.289
				c0-0.852-0.552-1.355-1.235-1.355s-1.235,0.504-1.235,1.355s0.563,1.391,1.235,1.391S248.169,171.141,248.169,170.289z"/>
			<path fill="#363636" d="M250.415,171.284c0-1.907,1.283-3.07,2.614-3.07c1.487,0,2.327,1.067,2.327,2.734
				c0,0.204-0.012,0.42-0.036,0.563h-3.934c0.071,1.235,0.827,2.027,1.942,2.027c0.552,0,1.02-0.18,1.451-0.456l0.348,0.647
				c-0.503,0.324-1.127,0.6-1.919,0.6C251.65,174.33,250.415,173.191,250.415,171.284z M254.493,170.805
				c0-1.176-0.528-1.812-1.439-1.812c-0.815,0-1.56,0.66-1.68,1.812H254.493z"/>
		</g>
		<g>
			<rect x="5" y="146.219" fill="#FFFFFF" width="118" height="69.781"/>
			<path fill="#363636" d="M28.084,155.234h2.045v-6.584h-1.625v-0.742c0.812-0.141,1.401-0.364,1.892-0.658h0.883v7.984h1.849
				v0.952h-5.043V155.234z"/>
			<path fill="#363636" d="M34.328,155.416l0.574-0.771c0.588,0.477,1.19,0.812,2.003,0.812c0.896,0,1.345-0.477,1.345-1.064
				c0-0.7-0.812-1.009-1.555-1.289c-0.967-0.35-2.031-0.812-2.031-1.961c0-1.093,0.868-1.933,2.339-1.933
				c0.854,0,1.597,0.35,2.115,0.771l-0.546,0.729c-0.463-0.351-0.953-0.603-1.555-0.603c-0.854,0-1.247,0.462-1.247,0.98
				c0,0.645,0.742,0.883,1.513,1.177c0.98,0.364,2.073,0.771,2.073,2.059c0,1.106-0.883,2.031-2.493,2.031
				C35.896,156.354,34.972,155.948,34.328,155.416z"/>
			<path fill="#363636" d="M40.866,154.085v-3.768h-1.009v-0.868l1.064-0.07l0.141-1.905h0.967v1.905h1.835v0.938h-1.835v3.782
				c0,0.84,0.266,1.316,1.05,1.316c0.238,0,0.547-0.098,0.771-0.182l0.225,0.868c-0.379,0.126-0.841,0.252-1.261,0.252
				C41.356,156.354,40.866,155.43,40.866,154.085z"/>
			<path fill="#363636" d="M48.202,149.379h0.953l0.098,0.784h0.042c0.616-0.519,1.373-0.952,2.171-0.952
				c1.751,0,2.689,1.358,2.689,3.474c0,2.312-1.387,3.67-2.941,3.67c-0.63,0-1.261-0.294-1.891-0.784l0.027,1.19v2.297h-1.148
				V149.379z M52.965,152.685c0-1.499-0.504-2.507-1.793-2.507c-0.574,0-1.148,0.321-1.821,0.924v3.572
				c0.616,0.519,1.219,0.714,1.667,0.714C52.139,155.388,52.965,154.365,52.965,152.685z"/>
			<path fill="#363636" d="M55.874,153.693v-4.314h1.162v4.16c0,1.274,0.379,1.821,1.275,1.821c0.7,0,1.19-0.351,1.835-1.148v-4.833
				h1.148v6.808h-0.953l-0.098-1.064h-0.042c-0.63,0.742-1.303,1.232-2.241,1.232C56.519,156.354,55.874,155.43,55.874,153.693z"/>
			<path fill="#363636" d="M63.588,149.379h0.953l0.098,1.232h0.042c0.462-0.854,1.163-1.4,1.933-1.4
				c0.295,0,0.505,0.042,0.729,0.14l-0.224,1.009c-0.225-0.07-0.378-0.112-0.658-0.112c-0.574,0-1.261,0.421-1.724,1.569v4.37
				h-1.148V149.379z"/>
			<path fill="#363636" d="M67.802,152.797c0-2.283,1.526-3.586,3.277-3.586c0.896,0,1.513,0.364,1.989,0.798l-0.588,0.757
				c-0.393-0.351-0.812-0.603-1.359-0.603c-1.232,0-2.129,1.064-2.129,2.634c0,1.555,0.854,2.605,2.102,2.605
				c0.63,0,1.176-0.309,1.597-0.687l0.504,0.771c-0.616,0.546-1.387,0.868-2.199,0.868
				C69.188,156.354,67.802,155.052,67.802,152.797z"/>
			<path fill="#363636" d="M74.689,146.213h1.148v2.718l-0.042,1.4c0.645-0.616,1.331-1.12,2.27-1.12
				c1.429,0,2.073,0.924,2.073,2.661v4.314H78.99v-4.16c0-1.274-0.393-1.821-1.289-1.821c-0.7,0-1.177,0.364-1.863,1.051v4.931
				h-1.148V146.213z"/>
			<path fill="#363636" d="M81.886,154.422c0-1.485,1.274-2.228,4.174-2.55c0-0.868-0.28-1.709-1.4-1.709
				c-0.784,0-1.499,0.364-2.031,0.729l-0.448-0.799c0.631-0.405,1.583-0.882,2.676-0.882c1.667,0,2.367,1.106,2.367,2.802v4.174
				H86.27l-0.098-0.812H86.13c-0.645,0.532-1.4,0.98-2.255,0.98C82.74,156.354,81.886,155.641,81.886,154.422z M86.06,154.52v-1.891
				c-2.269,0.28-3.054,0.84-3.054,1.709c0,0.771,0.532,1.092,1.205,1.092C84.869,155.43,85.401,155.108,86.06,154.52z"/>
			<path fill="#363636" d="M88.605,155.416l0.574-0.771c0.588,0.477,1.19,0.812,2.003,0.812c0.896,0,1.345-0.477,1.345-1.064
				c0-0.7-0.812-1.009-1.555-1.289c-0.967-0.35-2.031-0.812-2.031-1.961c0-1.093,0.868-1.933,2.339-1.933
				c0.854,0,1.597,0.35,2.115,0.771l-0.546,0.729c-0.463-0.351-0.953-0.603-1.555-0.603c-0.854,0-1.247,0.462-1.247,0.98
				c0,0.645,0.742,0.883,1.513,1.177c0.98,0.364,2.073,0.771,2.073,2.059c0,1.106-0.883,2.031-2.493,2.031
				C90.174,156.354,89.249,155.948,88.605,155.416z"/>
			<path fill="#363636" d="M94.724,152.797c0-2.228,1.499-3.586,3.054-3.586c1.736,0,2.717,1.246,2.717,3.193
				c0,0.238-0.014,0.49-0.042,0.658h-4.594c0.084,1.443,0.966,2.367,2.269,2.367c0.645,0,1.191-0.21,1.695-0.532l0.406,0.757
				c-0.589,0.378-1.316,0.7-2.241,0.7C96.166,156.354,94.724,155.023,94.724,152.797z M99.486,152.236
				c0-1.373-0.616-2.115-1.682-2.115c-0.952,0-1.82,0.771-1.961,2.115H99.486z"/>
			<path fill="#363636" d="M27.797,161.235c0-0.448,0.351-0.742,0.799-0.742s0.798,0.294,0.798,0.742
				c0,0.435-0.35,0.743-0.798,0.743S27.797,161.67,27.797,161.235z M28.007,163.379h1.148v6.808h-1.148V163.379z"/>
			<path fill="#363636" d="M31.45,163.379h0.953l0.098,0.98h0.042c0.645-0.645,1.345-1.148,2.283-1.148
				c1.429,0,2.073,0.924,2.073,2.661v4.314h-1.148v-4.16c0-1.274-0.393-1.821-1.289-1.821c-0.7,0-1.177,0.364-1.863,1.051v4.931
				H31.45V163.379z"/>
			<path fill="#363636" d="M41.488,168.422c0-1.485,1.274-2.228,4.174-2.55c0-0.868-0.28-1.709-1.4-1.709
				c-0.784,0-1.499,0.364-2.031,0.729l-0.448-0.799c0.631-0.405,1.583-0.882,2.676-0.882c1.667,0,2.367,1.106,2.367,2.802v4.174
				h-0.953l-0.098-0.812h-0.042c-0.645,0.532-1.4,0.98-2.255,0.98C42.343,170.354,41.488,169.641,41.488,168.422z M45.662,168.52
				v-1.891c-2.269,0.28-3.054,0.84-3.054,1.709c0,0.771,0.532,1.092,1.205,1.092C44.472,169.43,45.004,169.108,45.662,168.52z"/>
			<path fill="#363636" d="M51.344,165.592c0-2.955,1.736-4.763,4.076-4.763c1.12,0,1.989,0.532,2.521,1.135l-0.631,0.757
				c-0.49-0.519-1.092-0.869-1.877-0.869c-1.736,0-2.886,1.43-2.886,3.713c0,2.311,1.107,3.768,2.844,3.768
				c0.883,0,1.541-0.393,2.129-1.036l0.645,0.728c-0.729,0.841-1.625,1.331-2.815,1.331
				C53.053,170.354,51.344,168.59,51.344,165.592z"/>
			<path fill="#363636" d="M59.254,166.797c0-2.283,1.484-3.586,3.151-3.586s3.151,1.303,3.151,3.586
				c0,2.255-1.484,3.558-3.151,3.558S59.254,169.052,59.254,166.797z M64.366,166.797c0-1.569-0.784-2.634-1.961-2.634
				c-1.162,0-1.961,1.064-1.961,2.634c0,1.555,0.799,2.605,1.961,2.605C63.582,169.402,64.366,168.352,64.366,166.797z"/>
			<path fill="#363636" d="M67.346,163.379h0.953l0.098,0.98h0.042c0.645-0.645,1.345-1.148,2.283-1.148
				c1.429,0,2.073,0.924,2.073,2.661v4.314h-1.148v-4.16c0-1.274-0.393-1.821-1.289-1.821c-0.7,0-1.177,0.364-1.863,1.051v4.931
				h-1.148V163.379z"/>
			<path fill="#363636" d="M75.2,168.085v-3.768h-1.009v-0.868l1.064-0.07l0.141-1.905h0.967v1.905h1.835v0.938h-1.835v3.782
				c0,0.84,0.266,1.316,1.05,1.316c0.238,0,0.547-0.098,0.771-0.182l0.225,0.868c-0.379,0.126-0.841,0.252-1.261,0.252
				C75.69,170.354,75.2,169.43,75.2,168.085z"/>
			<path fill="#363636" d="M79.736,163.379h0.953l0.098,1.232h0.042c0.462-0.854,1.163-1.4,1.933-1.4
				c0.295,0,0.505,0.042,0.729,0.14l-0.224,1.009c-0.225-0.07-0.378-0.112-0.658-0.112c-0.574,0-1.261,0.421-1.724,1.569v4.37
				h-1.148V163.379z"/>
			<path fill="#363636" d="M83.838,168.422c0-1.485,1.274-2.228,4.174-2.55c0-0.868-0.28-1.709-1.4-1.709
				c-0.784,0-1.499,0.364-2.031,0.729l-0.448-0.799c0.631-0.405,1.583-0.882,2.676-0.882c1.667,0,2.367,1.106,2.367,2.802v4.174
				h-0.953l-0.098-0.812h-0.042c-0.645,0.532-1.4,0.98-2.255,0.98C84.692,170.354,83.838,169.641,83.838,168.422z M88.012,168.52
				v-1.891c-2.269,0.28-3.054,0.84-3.054,1.709c0,0.771,0.532,1.092,1.205,1.092C86.821,169.43,87.354,169.108,88.012,168.52z"/>
			<path fill="#363636" d="M90.81,166.797c0-2.283,1.526-3.586,3.277-3.586c0.896,0,1.513,0.364,1.989,0.798l-0.588,0.757
				c-0.393-0.351-0.812-0.603-1.359-0.603c-1.232,0-2.129,1.064-2.129,2.634c0,1.555,0.854,2.605,2.102,2.605
				c0.63,0,1.176-0.309,1.597-0.687l0.504,0.771c-0.616,0.546-1.387,0.868-2.199,0.868C92.196,170.354,90.81,169.052,90.81,166.797z
				"/>
			<path fill="#363636" d="M97.754,168.085v-3.768h-1.009v-0.868l1.064-0.07l0.141-1.905h0.967v1.905h1.835v0.938h-1.835v3.782
				c0,0.84,0.266,1.316,1.05,1.316c0.238,0,0.547-0.098,0.771-0.182l0.225,0.868c-0.379,0.126-0.841,0.252-1.261,0.252
				C98.244,170.354,97.754,169.43,97.754,168.085z"/>
			<path fill="#363636" d="M16.618,180.318h2.243c1.763,0,2.95,0.588,2.95,2.315c0,1.655-1.175,2.435-2.902,2.435h-1.295v3.118
				h-0.996V180.318z M18.789,184.253c1.367,0,2.027-0.504,2.027-1.619c0-1.14-0.696-1.512-2.075-1.512h-1.127v3.131H18.789z"/>
			<path fill="#363636" d="M22.439,186.676c0-1.271,1.091-1.907,3.573-2.184c0-0.743-0.239-1.463-1.199-1.463
				c-0.671,0-1.283,0.312-1.738,0.624l-0.384-0.684c0.539-0.349,1.354-0.756,2.29-0.756c1.428,0,2.027,0.947,2.027,2.398v3.574
				h-0.815l-0.084-0.695h-0.036c-0.552,0.455-1.199,0.839-1.931,0.839C23.171,188.33,22.439,187.719,22.439,186.676z M26.013,186.76
				v-1.619c-1.942,0.239-2.614,0.719-2.614,1.463c0,0.659,0.456,0.936,1.031,0.936C24.994,187.539,25.449,187.263,26.013,186.76z"/>
			<path fill="#363636" d="M28.259,190.573l0.192-0.779c0.12,0.036,0.3,0.084,0.443,0.084c0.66,0,1.08-0.528,1.319-1.248
				l0.132-0.432l-2.339-5.841h1.02l1.188,3.227c0.18,0.504,0.384,1.104,0.563,1.643h0.048c0.168-0.527,0.336-1.127,0.492-1.643
				l1.043-3.227h0.96l-2.195,6.309c-0.407,1.151-1.007,2.027-2.183,2.027C28.679,190.693,28.451,190.646,28.259,190.573z"/>
			<path fill="#363636" d="M34.45,182.357h0.815l0.084,0.84h0.036c0.504-0.552,1.115-0.983,1.811-0.983
				c0.888,0,1.368,0.42,1.607,1.115c0.612-0.659,1.212-1.115,1.919-1.115c1.199,0,1.775,0.792,1.775,2.278v3.694h-0.983v-3.562
				c0-1.091-0.348-1.559-1.08-1.559c-0.455,0-0.923,0.3-1.463,0.899v4.222h-0.983v-3.562c0-1.091-0.348-1.559-1.092-1.559
				c-0.432,0-0.923,0.3-1.463,0.899v4.222H34.45V182.357z"/>
			<path fill="#363636" d="M43.967,185.284c0-1.907,1.283-3.07,2.614-3.07c1.487,0,2.327,1.067,2.327,2.734
				c0,0.204-0.012,0.42-0.036,0.563h-3.934c0.071,1.235,0.827,2.027,1.942,2.027c0.552,0,1.02-0.18,1.451-0.456l0.348,0.647
				c-0.503,0.324-1.127,0.6-1.919,0.6C45.202,188.33,43.967,187.191,43.967,185.284z M48.045,184.805
				c0-1.176-0.528-1.812-1.439-1.812c-0.815,0-1.56,0.66-1.68,1.812H48.045z"/>
			<path fill="#363636" d="M50.351,182.357h0.815l0.084,0.84h0.036c0.552-0.552,1.151-0.983,1.955-0.983
				c1.224,0,1.774,0.792,1.774,2.278v3.694h-0.983v-3.562c0-1.091-0.335-1.559-1.103-1.559c-0.601,0-1.008,0.312-1.596,0.899v4.222
				h-0.983V182.357z"/>
			<path fill="#363636" d="M57.083,186.388v-3.227H56.22v-0.743l0.911-0.061l0.12-1.631h0.827v1.631h1.571v0.804h-1.571v3.238
				c0,0.72,0.229,1.128,0.899,1.128c0.204,0,0.468-0.084,0.66-0.156l0.191,0.743c-0.323,0.108-0.719,0.216-1.079,0.216
				C57.503,188.33,57.083,187.539,57.083,186.388z"/>
			<path fill="#363636" d="M62.951,185.284c0-1.896,1.199-3.07,2.531-3.07c0.671,0,1.115,0.252,1.631,0.672l-0.048-0.996v-2.242
				h0.995v8.539h-0.815l-0.084-0.684h-0.036c-0.456,0.443-1.079,0.827-1.763,0.827C63.898,188.33,62.951,187.227,62.951,185.284z
				 M67.065,186.699v-3.046c-0.492-0.444-0.936-0.612-1.415-0.612c-0.936,0-1.68,0.899-1.68,2.231c0,1.391,0.588,2.23,1.607,2.23
				C66.117,187.503,66.585,187.239,67.065,186.699z"/>
			<path fill="#363636" d="M69.672,186.676c0-1.271,1.091-1.907,3.573-2.184c0-0.743-0.239-1.463-1.199-1.463
				c-0.671,0-1.283,0.312-1.738,0.624l-0.384-0.684c0.539-0.349,1.354-0.756,2.29-0.756c1.428,0,2.027,0.947,2.027,2.398v3.574
				h-0.815l-0.084-0.695h-0.036c-0.552,0.455-1.199,0.839-1.931,0.839C70.403,188.33,69.672,187.719,69.672,186.676z M73.245,186.76
				v-1.619c-1.942,0.239-2.614,0.719-2.614,1.463c0,0.659,0.456,0.936,1.031,0.936C72.227,187.539,72.682,187.263,73.245,186.76z"/>
			<path fill="#363636" d="M76.079,186.388v-3.227h-0.863v-0.743l0.911-0.061l0.12-1.631h0.827v1.631h1.571v0.804h-1.571v3.238
				c0,0.72,0.229,1.128,0.899,1.128c0.204,0,0.468-0.084,0.66-0.156l0.191,0.743c-0.323,0.108-0.719,0.216-1.079,0.216
				C76.499,188.33,76.079,187.539,76.079,186.388z"/>
			<path fill="#363636" d="M79.367,185.284c0-1.907,1.283-3.07,2.614-3.07c1.487,0,2.327,1.067,2.327,2.734
				c0,0.204-0.012,0.42-0.036,0.563h-3.934c0.071,1.235,0.827,2.027,1.942,2.027c0.552,0,1.02-0.18,1.451-0.456l0.348,0.647
				c-0.503,0.324-1.127,0.6-1.919,0.6C80.603,188.33,79.367,187.191,79.367,185.284z M83.445,184.805
				c0-1.176-0.528-1.812-1.439-1.812c-0.815,0-1.56,0.66-1.68,1.812H83.445z"/>
			<path fill="#363636" d="M87.972,180.522c0-0.384,0.3-0.636,0.684-0.636s0.684,0.252,0.684,0.636c0,0.372-0.3,0.636-0.684,0.636
				S87.972,180.895,87.972,180.522z M88.151,182.357h0.983v5.829h-0.983V182.357z"/>
			<path fill="#363636" d="M90.456,187.527l0.491-0.66c0.504,0.408,1.02,0.695,1.716,0.695c0.768,0,1.151-0.407,1.151-0.911
				c0-0.6-0.696-0.863-1.332-1.104c-0.827-0.3-1.738-0.695-1.738-1.679c0-0.936,0.743-1.655,2.003-1.655
				c0.731,0,1.367,0.3,1.811,0.659l-0.468,0.624c-0.396-0.3-0.815-0.516-1.331-0.516c-0.731,0-1.067,0.396-1.067,0.84
				c0,0.552,0.636,0.755,1.295,1.007c0.84,0.312,1.775,0.66,1.775,1.764c0,0.947-0.756,1.738-2.135,1.738
				C91.799,188.33,91.008,187.982,90.456,187.527z"/>
			<path fill="#363636" d="M97.885,187.527l0.491-0.66c0.504,0.408,1.02,0.695,1.716,0.695c0.768,0,1.151-0.407,1.151-0.911
				c0-0.6-0.696-0.863-1.332-1.104c-0.827-0.3-1.738-0.695-1.738-1.679c0-0.936,0.743-1.655,2.003-1.655
				c0.731,0,1.367,0.3,1.811,0.659l-0.468,0.624c-0.396-0.3-0.815-0.516-1.331-0.516c-0.731,0-1.067,0.396-1.067,0.84
				c0,0.552,0.636,0.755,1.295,1.007c0.84,0.312,1.775,0.66,1.775,1.764c0,0.947-0.756,1.738-2.135,1.738
				C99.228,188.33,98.437,187.982,97.885,187.527z"/>
			<path fill="#363636" d="M103.129,185.284c0-1.907,1.283-3.07,2.614-3.07c1.487,0,2.327,1.067,2.327,2.734
				c0,0.204-0.012,0.42-0.036,0.563h-3.934c0.071,1.235,0.827,2.027,1.942,2.027c0.552,0,1.02-0.18,1.451-0.456l0.348,0.647
				c-0.503,0.324-1.127,0.6-1.919,0.6C104.364,188.33,103.129,187.191,103.129,185.284z M107.207,184.805
				c0-1.176-0.528-1.812-1.439-1.812c-0.815,0-1.56,0.66-1.68,1.812H107.207z"/>
			<path fill="#363636" d="M109.561,186.388v-3.227h-0.863v-0.743l0.911-0.061l0.12-1.631h0.827v1.631h1.571v0.804h-1.571v3.238
				c0,0.72,0.229,1.128,0.899,1.128c0.204,0,0.468-0.084,0.66-0.156l0.191,0.743c-0.323,0.108-0.719,0.216-1.079,0.216
				C109.98,188.33,109.561,187.539,109.561,186.388z"/>
		</g>
	</g>
	<g>
		<rect x="313" y="179.94" fill="#E2F8DC" width="111" height="12.06"/>
		<path fill="#363636" d="M325.979,183.459h-0.792v-0.743l0.792-0.061v-0.923c0-1.188,0.54-1.932,1.703-1.932
			c0.359,0,0.708,0.084,0.972,0.192l-0.216,0.756c-0.216-0.097-0.444-0.145-0.66-0.145c-0.552,0-0.815,0.384-0.815,1.128v0.923
			h1.235v0.804h-1.235v5.025h-0.983V183.459z"/>
		<path fill="#363636" d="M328.763,185.582c0-1.955,1.271-3.07,2.698-3.07c1.428,0,2.699,1.115,2.699,3.07
			c0,1.931-1.271,3.046-2.699,3.046C330.034,188.628,328.763,187.513,328.763,185.582z M333.141,185.582
			c0-1.344-0.672-2.255-1.68-2.255c-0.995,0-1.679,0.911-1.679,2.255c0,1.331,0.684,2.23,1.679,2.23
			C332.469,187.812,333.141,186.913,333.141,185.582z"/>
		<path fill="#363636" d="M335.698,182.655h0.815l0.084,1.056h0.036c0.396-0.731,0.995-1.199,1.655-1.199
			c0.252,0,0.432,0.036,0.623,0.12l-0.191,0.863c-0.192-0.06-0.324-0.096-0.563-0.096c-0.492,0-1.08,0.359-1.476,1.343v3.742h-0.983
			V182.655z"/>
		<path fill="#363636" d="M342.431,186.686v-3.227h-0.863v-0.743l0.911-0.061l0.12-1.631h0.827v1.631h1.571v0.804h-1.571v3.238
			c0,0.72,0.229,1.128,0.899,1.128c0.204,0,0.468-0.084,0.66-0.156l0.191,0.743c-0.323,0.108-0.719,0.216-1.079,0.216
			C342.851,188.628,342.431,187.837,342.431,186.686z"/>
		<path fill="#363636" d="M346.318,179.945h0.983v2.326l-0.036,1.199c0.552-0.527,1.14-0.959,1.943-0.959
			c1.224,0,1.774,0.792,1.774,2.278v3.694H350v-3.562c0-1.091-0.335-1.559-1.103-1.559c-0.601,0-1.008,0.312-1.596,0.899v4.222
			h-0.983V179.945z"/>
		<path fill="#363636" d="M352.415,185.582c0-1.907,1.283-3.07,2.614-3.07c1.487,0,2.327,1.067,2.327,2.734
			c0,0.204-0.012,0.42-0.036,0.563h-3.934c0.071,1.235,0.827,2.027,1.942,2.027c0.552,0,1.02-0.18,1.451-0.456l0.348,0.647
			c-0.503,0.324-1.127,0.6-1.919,0.6C353.65,188.628,352.415,187.489,352.415,185.582z M356.493,185.103
			c0-1.176-0.528-1.812-1.439-1.812c-0.815,0-1.56,0.66-1.68,1.812H356.493z"/>
		<path fill="#363636" d="M360.527,187.549l0.504-0.647c0.456,0.479,1.056,0.911,1.955,0.911c0.924,0,1.583-0.552,1.583-1.403
			c0-0.911-0.624-1.522-2.446-1.522v-0.756c1.631,0,2.171-0.624,2.171-1.428c0-0.743-0.504-1.211-1.319-1.211
			c-0.636,0-1.176,0.324-1.632,0.779l-0.527-0.623c0.588-0.552,1.295-0.96,2.195-0.96c1.331,0,2.29,0.708,2.29,1.943
			c0,0.923-0.563,1.511-1.391,1.822v0.049c0.923,0.216,1.654,0.887,1.654,1.942c0,1.355-1.115,2.183-2.519,2.183
			C361.823,188.628,361.043,188.112,360.527,187.549z"/>
		<path fill="#363636" d="M367.163,182.655h0.815l0.084,1.056h0.036c0.396-0.731,0.995-1.199,1.655-1.199
			c0.252,0,0.432,0.036,0.623,0.12l-0.191,0.863c-0.192-0.06-0.324-0.096-0.563-0.096c-0.492,0-1.08,0.359-1.476,1.343v3.742h-0.983
			V182.655z"/>
		<path fill="#363636" d="M370.787,185.582c0-1.896,1.199-3.07,2.531-3.07c0.671,0,1.115,0.252,1.631,0.672l-0.048-0.996v-2.242
			h0.995v8.539h-0.815l-0.084-0.684h-0.036c-0.456,0.443-1.079,0.827-1.763,0.827C371.734,188.628,370.787,187.524,370.787,185.582z
			 M374.901,186.997v-3.046c-0.492-0.444-0.936-0.612-1.415-0.612c-0.936,0-1.68,0.899-1.68,2.231c0,1.391,0.588,2.23,1.607,2.23
			C373.953,187.801,374.421,187.537,374.901,186.997z"/>
		<path fill="#363636" d="M380.268,182.655h0.815l0.084,0.672h0.036c0.527-0.443,1.176-0.815,1.859-0.815
			c1.499,0,2.303,1.163,2.303,2.975c0,1.979-1.188,3.142-2.519,3.142c-0.54,0-1.08-0.252-1.619-0.671l0.023,1.02v1.967h-0.983
			V182.655z M384.346,185.486c0-1.283-0.432-2.147-1.535-2.147c-0.492,0-0.983,0.276-1.56,0.792v3.059
			c0.528,0.443,1.044,0.611,1.428,0.611C383.638,187.801,384.346,186.925,384.346,185.486z"/>
		<path fill="#363636" d="M386.496,185.582c0-1.907,1.283-3.07,2.614-3.07c1.487,0,2.327,1.067,2.327,2.734
			c0,0.204-0.012,0.42-0.036,0.563h-3.934c0.071,1.235,0.827,2.027,1.942,2.027c0.552,0,1.02-0.18,1.451-0.456l0.348,0.647
			c-0.503,0.324-1.127,0.6-1.919,0.6C387.731,188.628,386.496,187.489,386.496,185.582z M390.574,185.103
			c0-1.176-0.528-1.812-1.439-1.812c-0.815,0-1.56,0.66-1.68,1.812H390.574z"/>
		<path fill="#363636" d="M392.88,182.655h0.815l0.084,1.056h0.036c0.396-0.731,0.995-1.199,1.655-1.199
			c0.252,0,0.432,0.036,0.623,0.12l-0.191,0.863c-0.192-0.06-0.324-0.096-0.563-0.096c-0.492,0-1.08,0.359-1.476,1.343v3.742h-0.983
			V182.655z"/>
		<path fill="#363636" d="M396.864,180.82c0-0.384,0.3-0.636,0.684-0.636s0.684,0.252,0.684,0.636c0,0.372-0.3,0.636-0.684,0.636
			S396.864,181.192,396.864,180.82z M397.044,182.655h0.983v5.829h-0.983V182.655z"/>
		<path fill="#363636" d="M399.564,185.582c0-1.955,1.271-3.07,2.698-3.07c1.428,0,2.698,1.115,2.698,3.07
			c0,1.931-1.271,3.046-2.698,3.046C400.836,188.628,399.564,187.513,399.564,185.582z M403.942,185.582
			c0-1.344-0.672-2.255-1.68-2.255c-0.995,0-1.679,0.911-1.679,2.255c0,1.331,0.684,2.23,1.679,2.23
			C403.271,187.812,403.942,186.913,403.942,185.582z"/>
		<path fill="#363636" d="M406.08,185.582c0-1.896,1.199-3.07,2.531-3.07c0.671,0,1.115,0.252,1.631,0.672l-0.048-0.996v-2.242
			h0.995v8.539h-0.815l-0.084-0.684h-0.036c-0.456,0.443-1.079,0.827-1.763,0.827C407.027,188.628,406.08,187.524,406.08,185.582z
			 M410.194,186.997v-3.046c-0.492-0.444-0.936-0.612-1.415-0.612c-0.936,0-1.68,0.899-1.68,2.231c0,1.391,0.588,2.23,1.607,2.23
			C409.246,187.801,409.714,187.537,410.194,186.997z"/>
	</g>
	<g>
		<rect x="160" y="179.94" fill="#F9F1DC" width="111" height="12.06"/>
		<path fill="#363636" d="M171.718,183.459h-0.792v-0.743l0.792-0.061v-0.923c0-1.188,0.54-1.932,1.703-1.932
			c0.359,0,0.708,0.084,0.972,0.192l-0.216,0.756c-0.216-0.097-0.444-0.145-0.66-0.145c-0.552,0-0.815,0.384-0.815,1.128v0.923
			h1.235v0.804h-1.235v5.025h-0.983V183.459z"/>
		<path fill="#363636" d="M174.502,185.582c0-1.955,1.271-3.07,2.698-3.07c1.428,0,2.698,1.115,2.698,3.07
			c0,1.931-1.271,3.046-2.698,3.046C175.773,188.628,174.502,187.513,174.502,185.582z M178.88,185.582
			c0-1.344-0.672-2.255-1.68-2.255c-0.995,0-1.679,0.911-1.679,2.255c0,1.331,0.684,2.23,1.679,2.23
			C178.208,187.812,178.88,186.913,178.88,185.582z"/>
		<path fill="#363636" d="M181.438,182.655h0.815l0.084,1.056h0.036c0.396-0.731,0.995-1.199,1.655-1.199
			c0.252,0,0.432,0.036,0.623,0.12l-0.191,0.863c-0.192-0.06-0.324-0.096-0.563-0.096c-0.492,0-1.08,0.359-1.476,1.343v3.742h-0.983
			V182.655z"/>
		<path fill="#363636" d="M188.17,186.686v-3.227h-0.863v-0.743l0.911-0.061l0.12-1.631h0.827v1.631h1.571v0.804h-1.571v3.238
			c0,0.72,0.229,1.128,0.899,1.128c0.204,0,0.468-0.084,0.66-0.156l0.191,0.743c-0.323,0.108-0.719,0.216-1.079,0.216
			C188.59,188.628,188.17,187.837,188.17,186.686z"/>
		<path fill="#363636" d="M192.058,179.945h0.983v2.326l-0.036,1.199c0.552-0.527,1.14-0.959,1.943-0.959
			c1.224,0,1.774,0.792,1.774,2.278v3.694h-0.983v-3.562c0-1.091-0.335-1.559-1.103-1.559c-0.601,0-1.008,0.312-1.596,0.899v4.222
			h-0.983V179.945z"/>
		<path fill="#363636" d="M198.154,185.582c0-1.907,1.283-3.07,2.614-3.07c1.487,0,2.327,1.067,2.327,2.734
			c0,0.204-0.012,0.42-0.036,0.563h-3.934c0.071,1.235,0.827,2.027,1.942,2.027c0.552,0,1.02-0.18,1.451-0.456l0.348,0.647
			c-0.503,0.324-1.127,0.6-1.919,0.6C199.39,188.628,198.154,187.489,198.154,185.582z M202.232,185.103
			c0-1.176-0.528-1.812-1.439-1.812c-0.815,0-1.56,0.66-1.68,1.812H202.232z"/>
		<path fill="#363636" d="M206.435,187.896c2.303-2.29,3.599-3.67,3.599-4.905c0-0.875-0.48-1.499-1.451-1.499
			c-0.636,0-1.188,0.408-1.632,0.924l-0.563-0.564c0.636-0.695,1.319-1.163,2.314-1.163c1.416,0,2.291,0.899,2.291,2.255
			c0,1.439-1.308,2.866-3.118,4.762c0.42-0.036,0.888-0.072,1.283-0.072h2.219v0.852h-4.941V187.896z"/>
		<path fill="#363636" d="M212.902,182.655h0.815l0.084,0.84h0.036c0.552-0.552,1.151-0.983,1.955-0.983
			c1.224,0,1.774,0.792,1.774,2.278v3.694h-0.983v-3.562c0-1.091-0.335-1.559-1.103-1.559c-0.601,0-1.008,0.312-1.596,0.899v4.222
			h-0.983V182.655z"/>
		<path fill="#363636" d="M219.047,185.582c0-1.896,1.199-3.07,2.531-3.07c0.671,0,1.115,0.252,1.631,0.672l-0.048-0.996v-2.242
			h0.995v8.539h-0.815l-0.084-0.684h-0.036c-0.456,0.443-1.079,0.827-1.763,0.827C219.994,188.628,219.047,187.524,219.047,185.582z
			 M223.161,186.997v-3.046c-0.492-0.444-0.936-0.612-1.415-0.612c-0.936,0-1.68,0.899-1.68,2.231c0,1.391,0.588,2.23,1.607,2.23
			C222.213,187.801,222.681,187.537,223.161,186.997z"/>
		<path fill="#363636" d="M228.527,182.655h0.815l0.084,0.672h0.036c0.527-0.443,1.176-0.815,1.859-0.815
			c1.499,0,2.303,1.163,2.303,2.975c0,1.979-1.188,3.142-2.519,3.142c-0.54,0-1.08-0.252-1.619-0.671l0.023,1.02v1.967h-0.983
			V182.655z M232.605,185.486c0-1.283-0.432-2.147-1.535-2.147c-0.492,0-0.983,0.276-1.56,0.792v3.059
			c0.528,0.443,1.044,0.611,1.428,0.611C231.897,187.801,232.605,186.925,232.605,185.486z"/>
		<path fill="#363636" d="M234.756,185.582c0-1.907,1.283-3.07,2.614-3.07c1.487,0,2.327,1.067,2.327,2.734
			c0,0.204-0.012,0.42-0.036,0.563h-3.934c0.071,1.235,0.827,2.027,1.942,2.027c0.552,0,1.02-0.18,1.451-0.456l0.348,0.647
			c-0.503,0.324-1.127,0.6-1.919,0.6C235.991,188.628,234.756,187.489,234.756,185.582z M238.834,185.103
			c0-1.176-0.528-1.812-1.439-1.812c-0.815,0-1.56,0.66-1.68,1.812H238.834z"/>
		<path fill="#363636" d="M241.14,182.655h0.815l0.084,1.056h0.036c0.396-0.731,0.995-1.199,1.655-1.199
			c0.252,0,0.432,0.036,0.623,0.12l-0.191,0.863c-0.192-0.06-0.324-0.096-0.563-0.096c-0.492,0-1.08,0.359-1.476,1.343v3.742h-0.983
			V182.655z"/>
		<path fill="#363636" d="M245.124,180.82c0-0.384,0.3-0.636,0.684-0.636s0.684,0.252,0.684,0.636c0,0.372-0.3,0.636-0.684,0.636
			S245.124,181.192,245.124,180.82z M245.304,182.655h0.983v5.829h-0.983V182.655z"/>
		<path fill="#363636" d="M247.824,185.582c0-1.955,1.271-3.07,2.698-3.07c1.428,0,2.698,1.115,2.698,3.07
			c0,1.931-1.271,3.046-2.698,3.046C249.096,188.628,247.824,187.513,247.824,185.582z M252.202,185.582
			c0-1.344-0.672-2.255-1.68-2.255c-0.995,0-1.679,0.911-1.679,2.255c0,1.331,0.684,2.23,1.679,2.23
			C251.53,187.812,252.202,186.913,252.202,185.582z"/>
		<path fill="#363636" d="M254.34,185.582c0-1.896,1.199-3.07,2.531-3.07c0.671,0,1.115,0.252,1.631,0.672l-0.048-0.996v-2.242
			h0.995v8.539h-0.815l-0.084-0.684h-0.036c-0.456,0.443-1.079,0.827-1.763,0.827C255.287,188.628,254.34,187.524,254.34,185.582z
			 M258.454,186.997v-3.046c-0.492-0.444-0.936-0.612-1.415-0.612c-0.936,0-1.68,0.899-1.68,2.231c0,1.391,0.588,2.23,1.607,2.23
			C257.506,187.801,257.974,187.537,258.454,186.997z"/>
	</g>
	<g>
		<path d="M65.833,32.587c0-3.638,2.277-5.796,5.082-5.796c1.395,0,2.517,0.663,3.213,1.411l-1.054,1.275
			c-0.578-0.578-1.241-0.969-2.107-0.969c-1.819,0-3.111,1.53-3.111,4.029c0,2.533,1.19,4.062,3.06,4.062
			c0.986,0,1.751-0.459,2.38-1.139l1.054,1.241c-0.9,1.037-2.073,1.615-3.501,1.615C68.043,38.315,65.833,36.275,65.833,32.587z"/>
		<path d="M75.489,33.947c0-2.788,1.887-4.386,3.96-4.386c2.091,0,3.978,1.598,3.978,4.386c0,2.771-1.887,4.369-3.978,4.369
			C77.376,38.315,75.489,36.717,75.489,33.947z M81.421,33.947c0-1.683-0.747-2.788-1.972-2.788c-1.224,0-1.954,1.104-1.954,2.788
			c0,1.666,0.73,2.771,1.954,2.771C80.674,36.717,81.421,35.613,81.421,33.947z"/>
		<path d="M85.366,29.765h1.614l0.137,1.122h0.067c0.748-0.731,1.598-1.326,2.737-1.326c1.784,0,2.566,1.207,2.566,3.315v5.235
			h-1.955v-4.98c0-1.377-0.391-1.887-1.309-1.887c-0.731,0-1.207,0.357-1.904,1.037v5.831h-1.954V29.765z"/>
		<path d="M95.175,35.29v-3.978h-1.19V29.85l1.292-0.085l0.238-2.278h1.632v2.278h2.124v1.547h-2.124v3.978
			c0,0.986,0.374,1.462,1.173,1.462c0.289,0,0.629-0.085,0.866-0.187l0.341,1.445c-0.459,0.153-1.037,0.306-1.7,0.306
			C95.889,38.315,95.175,37.091,95.175,35.29z"/>
		<path d="M101.022,29.765h1.614l0.137,1.479h0.067c0.595-1.088,1.479-1.683,2.363-1.683c0.425,0,0.696,0.051,0.951,0.17l-0.34,1.7
			c-0.289-0.085-0.51-0.136-0.866-0.136c-0.663,0-1.462,0.459-1.973,1.717v5.1h-1.954V29.765z"/>
		<path d="M106.479,35.868c0-1.785,1.479-2.72,4.913-3.094c-0.034-0.884-0.392-1.632-1.53-1.632c-0.816,0-1.598,0.374-2.346,0.816
			l-0.714-1.309c0.918-0.578,2.107-1.088,3.434-1.088c2.073,0,3.11,1.275,3.11,3.604v4.946h-1.614l-0.137-0.918h-0.067
			c-0.748,0.629-1.598,1.122-2.584,1.122C107.482,38.315,106.479,37.33,106.479,35.868z M111.393,35.868v-1.87
			c-2.278,0.289-3.026,0.884-3.026,1.717c0,0.748,0.51,1.071,1.207,1.071C110.253,36.786,110.763,36.445,111.393,35.868z"/>
		<path d="M115.149,33.947c0-2.788,1.954-4.386,4.182-4.386c1.07,0,1.835,0.408,2.447,0.935l-0.952,1.275
			c-0.441-0.391-0.866-0.612-1.394-0.612c-1.343,0-2.277,1.104-2.277,2.788c0,1.666,0.918,2.771,2.227,2.771
			c0.646,0,1.24-0.323,1.717-0.714l0.799,1.292c-0.782,0.68-1.768,1.02-2.72,1.02C116.9,38.315,115.149,36.717,115.149,33.947z"/>
		<path d="M123.667,35.29v-3.978h-1.19V29.85l1.292-0.085l0.238-2.278h1.632v2.278h2.124v1.547h-2.124v3.978
			c0,0.986,0.374,1.462,1.173,1.462c0.289,0,0.629-0.085,0.866-0.187l0.341,1.445c-0.459,0.153-1.037,0.306-1.7,0.306
			C124.381,38.315,123.667,37.091,123.667,35.29z"/>
		<path d="M132.914,29.765h1.614l0.136,0.884h0.068c0.697-0.595,1.598-1.088,2.516-1.088c2.074,0,3.281,1.666,3.281,4.25
			c0,2.856-1.717,4.505-3.57,4.505c-0.73,0-1.462-0.34-2.142-0.918l0.051,1.394v2.618h-1.954V29.765z M138.506,33.828
			c0-1.666-0.544-2.652-1.802-2.652c-0.611,0-1.189,0.306-1.836,0.935v3.893c0.612,0.51,1.19,0.697,1.684,0.697
			C137.656,36.701,138.506,35.714,138.506,33.828z"/>
		<path d="M141.856,35.868c0-1.785,1.479-2.72,4.913-3.094c-0.034-0.884-0.392-1.632-1.53-1.632c-0.816,0-1.598,0.374-2.346,0.816
			l-0.714-1.309c0.918-0.578,2.107-1.088,3.434-1.088c2.073,0,3.11,1.275,3.11,3.604v4.946h-1.614l-0.137-0.918h-0.067
			c-0.748,0.629-1.598,1.122-2.584,1.122C142.859,38.315,141.856,37.33,141.856,35.868z M146.77,35.868v-1.87
			c-2.278,0.289-3.026,0.884-3.026,1.717c0,0.748,0.51,1.071,1.207,1.071C145.63,36.786,146.14,36.445,146.77,35.868z"/>
		<path d="M150.543,41.375l0.357-1.53c0.152,0.052,0.391,0.119,0.595,0.119c0.884,0,1.394-0.595,1.666-1.428l0.152-0.527
			l-3.28-8.244h1.988l1.445,4.097c0.238,0.731,0.476,1.564,0.73,2.346h0.068c0.204-0.765,0.425-1.598,0.629-2.346l1.258-4.097h1.887
			l-3.025,8.72c-0.697,1.887-1.563,3.06-3.383,3.06C151.172,41.545,150.849,41.477,150.543,41.375z"/>
		<path d="M159.485,29.765h1.614l0.137,1.139h0.067c0.697-0.748,1.513-1.343,2.55-1.343c1.224,0,1.921,0.561,2.312,1.496
			c0.799-0.85,1.632-1.496,2.687-1.496c1.768,0,2.583,1.207,2.583,3.315v5.235h-1.972v-4.98c0-1.377-0.408-1.887-1.274-1.887
			c-0.527,0-1.105,0.34-1.751,1.037v5.831h-1.955v-4.98c0-1.377-0.408-1.887-1.292-1.887c-0.51,0-1.104,0.34-1.751,1.037v5.831
			h-1.954V29.765z"/>
		<path d="M173.272,33.947c0-2.72,1.887-4.386,3.841-4.386c2.262,0,3.451,1.632,3.451,3.961c0,0.374-0.034,0.748-0.085,0.952h-5.304
			c0.17,1.479,1.122,2.329,2.465,2.329c0.714,0,1.326-0.221,1.938-0.612l0.663,1.224c-0.799,0.527-1.802,0.901-2.855,0.901
			C175.074,38.315,173.272,36.701,173.272,33.947z M178.864,33.148c0-1.292-0.561-2.074-1.699-2.074
			c-0.986,0-1.836,0.731-2.006,2.074H178.864z"/>
		<path d="M182.435,29.765h1.614l0.137,1.122h0.067c0.748-0.731,1.598-1.326,2.737-1.326c1.784,0,2.566,1.207,2.566,3.315v5.235
			h-1.955v-4.98c0-1.377-0.391-1.887-1.309-1.887c-0.731,0-1.207,0.357-1.904,1.037v5.831h-1.954V29.765z"/>
		<path d="M192.244,35.29v-3.978h-1.19V29.85l1.292-0.085l0.238-2.278h1.632v2.278h2.124v1.547h-2.124v3.978
			c0,0.986,0.374,1.462,1.173,1.462c0.289,0,0.629-0.085,0.866-0.187l0.341,1.445c-0.459,0.153-1.037,0.306-1.7,0.306
			C192.958,38.315,192.244,37.091,192.244,35.29z"/>
		<path d="M200.98,33.947c0-2.72,1.717-4.386,3.536-4.386c0.952,0,1.547,0.357,2.192,0.918l-0.067-1.343V26.11h1.954v12.001h-1.614
			l-0.136-0.901h-0.068c-0.612,0.612-1.462,1.105-2.362,1.105C202.324,38.315,200.98,36.701,200.98,33.947z M206.642,35.766v-3.893
			c-0.578-0.51-1.139-0.697-1.7-0.697c-1.07,0-1.938,1.003-1.938,2.754c0,1.802,0.68,2.771,1.887,2.771
			C205.536,36.701,206.08,36.412,206.642,35.766z"/>
		<path d="M210.637,35.868c0-1.785,1.479-2.72,4.912-3.094c-0.033-0.884-0.391-1.632-1.529-1.632c-0.816,0-1.598,0.374-2.346,0.816
			l-0.714-1.309c0.918-0.578,2.107-1.088,3.434-1.088c2.073,0,3.11,1.275,3.11,3.604v4.946h-1.614l-0.137-0.918h-0.067
			c-0.748,0.629-1.598,1.122-2.584,1.122C211.64,38.315,210.637,37.33,210.637,35.868z M215.549,35.868v-1.87
			c-2.277,0.289-3.025,0.884-3.025,1.717c0,0.748,0.51,1.071,1.207,1.071C214.41,36.786,214.92,36.445,215.549,35.868z"/>
		<path d="M219.868,35.29v-3.978h-1.19V29.85l1.292-0.085l0.238-2.278h1.632v2.278h2.124v1.547h-2.124v3.978
			c0,0.986,0.374,1.462,1.173,1.462c0.289,0,0.629-0.085,0.866-0.187l0.341,1.445c-0.459,0.153-1.037,0.306-1.7,0.306
			C220.582,38.315,219.868,37.091,219.868,35.29z"/>
		<path d="M224.9,33.947c0-2.72,1.887-4.386,3.841-4.386c2.261,0,3.451,1.632,3.451,3.961c0,0.374-0.034,0.748-0.085,0.952h-5.304
			c0.17,1.479,1.122,2.329,2.465,2.329c0.714,0,1.326-0.221,1.938-0.612l0.663,1.224c-0.799,0.527-1.802,0.901-2.855,0.901
			C226.702,38.315,224.9,36.701,224.9,33.947z M230.492,33.148c0-1.292-0.561-2.074-1.699-2.074c-0.986,0-1.836,0.731-2.006,2.074
			H230.492z"/>
		<path d="M237.021,35.868c0-1.785,1.479-2.72,4.913-3.094c-0.034-0.884-0.392-1.632-1.53-1.632c-0.816,0-1.598,0.374-2.346,0.816
			l-0.714-1.309c0.918-0.578,2.107-1.088,3.434-1.088c2.073,0,3.11,1.275,3.11,3.604v4.946h-1.614l-0.137-0.918h-0.067
			c-0.748,0.629-1.598,1.122-2.584,1.122C238.023,38.315,237.021,37.33,237.021,35.868z M241.934,35.868v-1.87
			c-2.278,0.289-3.026,0.884-3.026,1.717c0,0.748,0.51,1.071,1.207,1.071C240.794,36.786,241.304,36.445,241.934,35.868z"/>
		<path d="M246.235,29.765h1.614l0.137,1.122h0.067c0.748-0.731,1.598-1.326,2.737-1.326c1.784,0,2.566,1.207,2.566,3.315v5.235
			h-1.955v-4.98c0-1.377-0.391-1.887-1.309-1.887c-0.731,0-1.207,0.357-1.904,1.037v5.831h-1.954V29.765z"/>
		<path d="M255.244,33.947c0-2.72,1.717-4.386,3.536-4.386c0.952,0,1.547,0.357,2.192,0.918l-0.067-1.343V26.11h1.954v12.001h-1.614
			l-0.136-0.901h-0.068c-0.612,0.612-1.462,1.105-2.362,1.105C256.588,38.315,255.244,36.701,255.244,33.947z M260.905,35.766
			v-3.893c-0.578-0.51-1.139-0.697-1.7-0.697c-1.07,0-1.938,1.003-1.938,2.754c0,1.802,0.68,2.771,1.887,2.771
			C259.8,36.701,260.344,36.412,260.905,35.766z"/>
		<path d="M268.743,35.97V26.11h1.954v9.961c0,0.476,0.222,0.646,0.426,0.646c0.085,0,0.152,0,0.306-0.034l0.255,1.462
			c-0.238,0.102-0.578,0.17-1.037,0.17C269.253,38.315,268.743,37.415,268.743,35.97z"/>
		<path d="M273.128,27.198c0-0.663,0.511-1.122,1.207-1.122c0.697,0,1.207,0.459,1.207,1.122c0,0.646-0.51,1.105-1.207,1.105
			C273.639,28.303,273.128,27.844,273.128,27.198z M273.35,29.765h1.954v8.346h-1.954V29.765z"/>
		<path d="M277.26,33.947c0-2.788,1.954-4.386,4.182-4.386c1.07,0,1.835,0.408,2.447,0.935l-0.952,1.275
			c-0.441-0.391-0.866-0.612-1.394-0.612c-1.343,0-2.277,1.104-2.277,2.788c0,1.666,0.918,2.771,2.227,2.771
			c0.646,0,1.24-0.323,1.717-0.714l0.799,1.292c-0.782,0.68-1.768,1.02-2.72,1.02C279.01,38.315,277.26,36.717,277.26,33.947z"/>
		<path d="M284.706,33.947c0-2.72,1.887-4.386,3.841-4.386c2.262,0,3.451,1.632,3.451,3.961c0,0.374-0.034,0.748-0.085,0.952h-5.304
			c0.17,1.479,1.122,2.329,2.465,2.329c0.714,0,1.326-0.221,1.938-0.612l0.663,1.224c-0.799,0.527-1.802,0.901-2.855,0.901
			C286.508,38.315,284.706,36.701,284.706,33.947z M290.298,33.148c0-1.292-0.561-2.074-1.699-2.074
			c-0.986,0-1.836,0.731-2.006,2.074H290.298z"/>
		<path d="M293.868,29.765h1.614l0.137,1.122h0.067c0.748-0.731,1.598-1.326,2.737-1.326c1.784,0,2.566,1.207,2.566,3.315v5.235
			h-1.955v-4.98c0-1.377-0.391-1.887-1.309-1.887c-0.731,0-1.207,0.357-1.904,1.037v5.831h-1.954V29.765z"/>
		<path d="M302.556,37.159l0.918-1.258c0.748,0.578,1.462,0.935,2.312,0.935c0.9,0,1.326-0.425,1.326-1.003
			c0-0.697-0.901-1.003-1.785-1.343c-1.104-0.408-2.346-1.037-2.346-2.431c0-1.462,1.173-2.499,3.043-2.499
			c1.155,0,2.091,0.476,2.771,1.003l-0.901,1.19c-0.578-0.425-1.173-0.714-1.836-0.714c-0.832,0-1.224,0.391-1.224,0.918
			c0,0.663,0.833,0.918,1.734,1.241c1.139,0.425,2.396,0.969,2.396,2.533c0,1.428-1.139,2.584-3.247,2.584
			C304.578,38.315,303.371,37.822,302.556,37.159z"/>
		<path d="M310.172,33.947c0-2.72,1.887-4.386,3.841-4.386c2.261,0,3.451,1.632,3.451,3.961c0,0.374-0.034,0.748-0.085,0.952h-5.304
			c0.17,1.479,1.122,2.329,2.465,2.329c0.714,0,1.326-0.221,1.938-0.612l0.663,1.224c-0.799,0.527-1.802,0.901-2.855,0.901
			C311.974,38.315,310.172,36.701,310.172,33.947z M315.764,33.148c0-1.292-0.561-2.074-1.699-2.074
			c-0.986,0-1.836,0.731-2.006,2.074H315.764z"/>
		<path d="M318.501,37.159l0.918-1.258c0.748,0.578,1.462,0.935,2.312,0.935c0.9,0,1.326-0.425,1.326-1.003
			c0-0.697-0.901-1.003-1.785-1.343c-1.104-0.408-2.346-1.037-2.346-2.431c0-1.462,1.173-2.499,3.043-2.499
			c1.155,0,2.091,0.476,2.771,1.003l-0.901,1.19c-0.578-0.425-1.173-0.714-1.836-0.714c-0.832,0-1.224,0.391-1.224,0.918
			c0,0.663,0.833,0.918,1.734,1.241c1.139,0.425,2.396,0.969,2.396,2.533c0,1.428-1.139,2.584-3.247,2.584
			C320.523,38.315,319.316,37.822,318.501,37.159z"/>
		<path d="M329.518,33.947c0-2.72,1.887-4.386,3.841-4.386c2.261,0,3.451,1.632,3.451,3.961c0,0.374-0.034,0.748-0.085,0.952h-5.304
			c0.17,1.479,1.122,2.329,2.465,2.329c0.714,0,1.326-0.221,1.938-0.612l0.663,1.224c-0.799,0.527-1.802,0.901-2.855,0.901
			C331.319,38.315,329.518,36.701,329.518,33.947z M335.109,33.148c0-1.292-0.561-2.074-1.699-2.074
			c-0.986,0-1.836,0.731-2.006,2.074H335.109z"/>
		<path d="M340.125,33.76l-2.481-3.995h2.107l0.935,1.581c0.238,0.459,0.511,0.952,0.766,1.411h0.067
			c0.204-0.459,0.442-0.952,0.646-1.411l0.799-1.581h2.022l-2.465,4.216l2.652,4.13h-2.108l-1.02-1.649
			c-0.272-0.493-0.561-1.003-0.85-1.479h-0.068c-0.238,0.476-0.493,0.969-0.73,1.479l-0.885,1.649h-2.039L340.125,33.76z"/>
		<path d="M346.653,29.765h1.614l0.137,0.884h0.067c0.697-0.595,1.598-1.088,2.516-1.088c2.074,0,3.281,1.666,3.281,4.25
			c0,2.856-1.717,4.505-3.57,4.505c-0.73,0-1.462-0.34-2.142-0.918l0.051,1.394v2.618h-1.954V29.765z M352.245,33.828
			c0-1.666-0.544-2.652-1.802-2.652c-0.611,0-1.189,0.306-1.836,0.935v3.893c0.612,0.51,1.19,0.697,1.684,0.697
			C351.396,36.701,352.245,35.714,352.245,33.828z"/>
		<path d="M356.02,27.198c0-0.663,0.511-1.122,1.207-1.122c0.697,0,1.207,0.459,1.207,1.122c0,0.646-0.51,1.105-1.207,1.105
			C356.53,28.303,356.02,27.844,356.02,27.198z M356.241,29.765h1.954v8.346h-1.954V29.765z"/>
		<path d="M360.695,29.765h1.614l0.136,1.479h0.068c0.595-1.088,1.479-1.683,2.363-1.683c0.425,0,0.696,0.051,0.951,0.17l-0.34,1.7
			c-0.289-0.085-0.51-0.136-0.867-0.136c-0.662,0-1.461,0.459-1.972,1.717v5.1h-1.954V29.765z"/>
		<path d="M366.151,35.868c0-1.785,1.479-2.72,4.913-3.094c-0.034-0.884-0.392-1.632-1.53-1.632c-0.816,0-1.598,0.374-2.346,0.816
			l-0.714-1.309c0.918-0.578,2.107-1.088,3.434-1.088c2.073,0,3.11,1.275,3.11,3.604v4.946h-1.614l-0.137-0.918H371.2
			c-0.748,0.629-1.598,1.122-2.584,1.122C367.154,38.315,366.151,37.33,366.151,35.868z M371.064,35.868v-1.87
			c-2.278,0.289-3.026,0.884-3.026,1.717c0,0.748,0.51,1.071,1.207,1.071C369.925,36.786,370.435,36.445,371.064,35.868z"/>
		<path d="M375.383,35.29v-3.978h-1.19V29.85l1.292-0.085l0.238-2.278h1.632v2.278h2.124v1.547h-2.124v3.978
			c0,0.986,0.374,1.462,1.173,1.462c0.289,0,0.629-0.085,0.866-0.187l0.341,1.445c-0.459,0.153-1.037,0.306-1.7,0.306
			C376.097,38.315,375.383,37.091,375.383,35.29z"/>
		<path d="M381.009,27.198c0-0.663,0.511-1.122,1.207-1.122c0.697,0,1.207,0.459,1.207,1.122c0,0.646-0.51,1.105-1.207,1.105
			C381.52,28.303,381.009,27.844,381.009,27.198z M381.23,29.765h1.954v8.346h-1.954V29.765z"/>
		<path d="M385.141,33.947c0-2.788,1.887-4.386,3.96-4.386c2.091,0,3.978,1.598,3.978,4.386c0,2.771-1.887,4.369-3.978,4.369
			C387.027,38.315,385.141,36.717,385.141,33.947z M391.072,33.947c0-1.683-0.747-2.788-1.972-2.788
			c-1.224,0-1.954,1.104-1.954,2.788c0,1.666,0.73,2.771,1.954,2.771C390.325,36.717,391.072,35.613,391.072,33.947z"/>
		<path d="M395.018,29.765h1.614l0.136,1.122h0.068c0.748-0.731,1.598-1.326,2.737-1.326c1.784,0,2.566,1.207,2.566,3.315v5.235
			h-1.955v-4.98c0-1.377-0.391-1.887-1.309-1.887c-0.731,0-1.207,0.357-1.904,1.037v5.831h-1.954V29.765z"/>
		<path d="M407.427,33.947c0-2.72,1.718-4.386,3.536-4.386c0.952,0,1.547,0.357,2.192,0.918l-0.067-1.343V26.11h1.954v12.001h-1.614
			l-0.136-0.901h-0.068c-0.612,0.612-1.462,1.105-2.362,1.105C408.771,38.315,407.427,36.701,407.427,33.947z M413.088,35.766
			v-3.893c-0.578-0.51-1.139-0.697-1.7-0.697c-1.07,0-1.938,1.003-1.938,2.754c0,1.802,0.68,2.771,1.887,2.771
			C411.982,36.701,412.526,36.412,413.088,35.766z"/>
		<path d="M417.083,35.868c0-1.785,1.479-2.72,4.913-3.094c-0.034-0.884-0.392-1.632-1.53-1.632c-0.816,0-1.598,0.374-2.346,0.816
			l-0.714-1.309c0.918-0.578,2.107-1.088,3.434-1.088c2.073,0,3.11,1.275,3.11,3.604v4.946h-1.614l-0.137-0.918h-0.067
			c-0.748,0.629-1.598,1.122-2.584,1.122C418.086,38.315,417.083,37.33,417.083,35.868z M421.996,35.868v-1.87
			c-2.278,0.289-3.026,0.884-3.026,1.717c0,0.748,0.51,1.071,1.207,1.071C420.856,36.786,421.366,36.445,421.996,35.868z"/>
		<path d="M426.314,35.29v-3.978h-1.19V29.85l1.292-0.085l0.238-2.278h1.632v2.278h2.124v1.547h-2.124v3.978
			c0,0.986,0.374,1.462,1.173,1.462c0.289,0,0.629-0.085,0.866-0.187l0.341,1.445c-0.459,0.153-1.037,0.306-1.7,0.306
			C427.028,38.315,426.314,37.091,426.314,35.29z"/>
		<path d="M431.347,33.947c0-2.72,1.887-4.386,3.841-4.386c2.262,0,3.451,1.632,3.451,3.961c0,0.374-0.034,0.748-0.085,0.952h-5.304
			c0.17,1.479,1.122,2.329,2.465,2.329c0.714,0,1.326-0.221,1.938-0.612l0.663,1.224c-0.799,0.527-1.802,0.901-2.855,0.901
			C433.148,38.315,431.347,36.701,431.347,33.947z M436.938,33.148c0-1.292-0.561-2.074-1.699-2.074
			c-0.986,0-1.836,0.731-2.006,2.074H436.938z"/>
	</g>
	<polygon fill="#E5E5E5" points="255,63 103,63 102,63 102,64 102,84 103,84 103,64 255,64 	"/>
</g>
<g>
</g>
<g>
</g>
<g>
</g>
<g>
</g>
<g>
</g>
<g>
</g>
</svg>
