<?xml version="1.0" encoding="utf-8"?>
<!-- Generator: Adobe Illustrator 16.0.4, SVG Export Plug-In . SVG Version: 6.00 Build 0)  -->
<!DOCTYPE svg PUBLIC "-//W3C//DTD SVG 1.1//EN" "http://www.w3.org/Graphics/SVG/1.1/DTD/svg11.dtd">
<svg version="1.1" id="Layer_1" xmlns="http://www.w3.org/2000/svg" xmlns:xlink="http://www.w3.org/1999/xlink" x="0px" y="0px"
	 width="2800px" height="1200px" viewBox="0 0 2800 1200" enable-background="new 0 0 2800 1200" xml:space="preserve">
<rect y="-1.4" fill="#DF4D58" width="2800" height="1200.9"/>
<g>
	
		<path fill="#090909" stroke="#090909" stroke-width="25" stroke-linecap="round" stroke-linejoin="round" stroke-miterlimit="10" d="
		M618.971,542.189c-4.673-7.01-4.306-20.582,11.734-95.438c4.693-21.904-2.698-40.678-6.825-40.678S499.283,545.318,499.283,703.338
		c0,82.14,33.638,171.319,79.01,171.319c61.799,0,101.695-50.849,101.695-50.849s16.428,31.291,0,49.284
		c-16.428,17.991-62.582,32.072-97.002,32.072c-80.575,0-156.456-68.058-156.456-228.425c0-160.366,143.157-304.305,167.408-304.305
		c24.25,0,104.825,38.332,104.825,85.268s-9.387,97.002-19.557,97.002C669.037,554.706,625.229,551.577,618.971,542.189z"/>
	
		<path fill="#090909" stroke="#090909" stroke-width="25" stroke-linecap="round" stroke-linejoin="round" stroke-miterlimit="10" d="
		M788.725,653.272c0,0,8.605-74.316-34.42-74.316c-28.162,0-33.638,33.639-33.638,52.413s10.952,32.072,46.154,45.371
		c0,0-26.598,95.438-54.759,95.438c-10.952,0-16.037-33.638-16.037-53.586c0-29.727,22.294-115.385,24.642-126.337
		c2.347-10.952-25.033-17.992-36.767-13.299c-14.617,5.847-48.501,73.534-48.501,125.164c0,51.631,34.42,87.615,81.357,87.615
		c46.937,0,71.188-68.059,71.188-113.431l21.122-12.516l6.258-39.896L788.725,653.272z M769.56,663.441
		c-11.734-5.084-19.557-11.733-20.73-28.161s8.605-34.812,8.605-34.812s8.214,7.041,12.125,24.642
		C773.471,642.712,769.56,663.441,769.56,663.441z"/>
	
		<path fill="#090909" stroke="#090909" stroke-width="25" stroke-linecap="round" stroke-linejoin="round" stroke-miterlimit="10" d="
		M836.444,549.229c-10.761,15.543-43.564,107.993-35.203,216.69c0.782,10.17,24.1,15.607,31.291,11.734
		c20.339-10.952,35.985-126.729,91.526-186.964c0,0-24.25,56.323-24.25,99.349s32.441,67.276,68.84,67.276
		c7.041,0-3.911-11.64-3.911-40.679c0-20.579,17.922-88.544,23.468-118.123c4.694-25.034-12.516-46.937-40.678-46.937
		c-27.379,0-60.235,46.937-60.235,46.937s5.639-25.816,7.122-35.203S850.525,528.891,836.444,549.229z"/>
	
		<path fill="#090909" stroke="#090909" stroke-width="25" stroke-linecap="round" stroke-linejoin="round" stroke-miterlimit="10" d="
		M1055.481,323.152l-41.461,208.085l-43.807,6.258c0,0,17.209,16.428,39.113,19.557c0,0-12.517,95.438-8.605,132.205
		c3.911,36.768,35.203,62.582,67.276,62.582s83.704-66.493,100.914-158.802l14.863-6.258c0,0-10.169,40.433-10.952,73.411
		c-0.782,32.978,40.678,71.31,65.711,71.31c25.033,0,68.84-71.31,68.84-71.31l-7.823-16.306c0,0-44.589,69.623-64.146,69.623
		c-10.952,0,39.114-147.068,43.807-168.189c4.694-21.122-28.944-28.162-50.065-28.162c-29.727,0-48.501,20.339-48.501,20.339
		s0.782-22.686,0.782-28.944s-9.387-17.993-21.904-17.993c-20.73,0-36.767,54.76-36.767,75.881
		c0,11.039,25.815,24.251,25.815,24.251s-42.243,146.285-79.01,146.285c-21.122,0,17.21-186.182,17.21-186.182l35.203-9.319
		l6.258-11.02c0,0-12.517-10.952-32.073-12.517c0,0,20.805-94.863,15.646-161.931
		C1110.241,335.668,1064.086,320.022,1055.481,323.152z"/>
	
		<path fill="#090909" stroke="#090909" stroke-width="25" stroke-linecap="round" stroke-linejoin="round" stroke-miterlimit="10" d="
		M1332.668,502.033c-12.545,28.371-39.635,102.895-39.635,144.459c0,41.566,22.946,78.229,65.189,78.229
		s60.496-40.156,60.496-40.156l-3.649-19.818c0,0-26.076,45.894-47.979,45.894c-21.905,0-13.04-59.453-2.608-97.262
		c10.431-37.811,28.163-88.935,28.683-97.786C1394.208,497.861,1341.8,481.385,1332.668,502.033z"/>
	
		<path fill="#090909" stroke="#090909" stroke-width="25" stroke-linecap="round" stroke-linejoin="round" stroke-miterlimit="10" d="
		M1364.481,384.17c0-30.248,27.119-47.458,42.765-47.458s32.334,7.302,32.334,23.729c0,16.427-7.301,61.799-44.328,61.799
		C1380.647,422.241,1364.481,406.074,1364.481,384.17z"/>
	
		<path fill="#090909" stroke="#090909" stroke-width="25" stroke-linecap="round" stroke-linejoin="round" stroke-miterlimit="10" d="
		M1594.471,562.529c-0.522-21.904-20.34-46.937-40.157-46.937c-13.56,0-39.114,13.56-39.114,33.899
		c0,45.372,57.889,37.55,57.889,37.55s-8.345,130.379-85.008,130.379c-28.683,0-13.037-118.385-13.037-118.385
		c95.437-176.794,105.868-302.48,105.868-315.518c0,0-7.823-20.861-20.861-20.861c-50.065,0-137.158,207.564-143.938,265.974
		c-6.779,58.411-7.822,96.481-6.258,129.336s27.641,76.663,75.098,76.663c108.997,0,110.041-154.891,110.041-154.891
		c8.865-3.129,35.463-23.99,35.463-23.99l3.65-31.813C1624.197,543.233,1594.471,562.529,1594.471,562.529z M1508.42,443.623
		c27.118-102.218,49.022-139.767,49.022-139.767s-0.521,27.64-26.597,120.992c-26.076,93.351-46.938,121.514-46.938,121.514
		S1481.301,545.84,1508.42,443.623z M1533.452,551.934c0-5.476,3.13-23.303,19.818-23.303c20.34,0,23.469,41.2,23.469,41.2
		C1535.018,588.084,1533.452,557.409,1533.452,551.934z"/>
	
		<path fill="#090909" stroke="#090909" stroke-width="25" stroke-linecap="round" stroke-linejoin="round" stroke-miterlimit="10" d="
		M1632.281,523.415c-5.777,15.789-37.811,111.083-37.811,162.192c0,27.118,34.421,53.716,56.846,53.716
		c27.64,0,63.103-60.495,63.103-60.495s-15.393,58.543,43.808,82.399c34.942,14.08,85.53-70.405,85.53-70.405l-2.087-20.86
		c0,0-54.759,73.534-65.189,73.534s8.095-85.052,32.334-182.01c1.564-6.258-10.43-28.684-28.162-28.684
		c-17.731,0-22.946,4.172-29.204,17.731c-6.259,13.56-32.334,87.094-32.334,87.094s-44.33,82.399-62.062,82.399
		c-12.517,0,33.898-138.724,44.85-165.321C1712.854,528.108,1638.774,505.669,1632.281,523.415z"/>
	
		<path fill="#090909" stroke="#090909" stroke-width="25" stroke-linecap="round" stroke-linejoin="round" stroke-miterlimit="10" d="
		M1933.979,365.916l-59.453,178.881c0,0-31.911-12.419-40.157-4.172c-3.129,3.129,32.854,18.775,34.941,18.775
		c0,0-43.068,117.85-35.134,169.493c5.929,38.592,45.013,57.366,62.774,57.366c17.731,0,37.028-13.037,37.028-13.037l-5.606-12.938
		c0,0-22.034,12.938-35.072,12.938c-22.946,0,43.808-190.354,43.808-190.354l21.382,2.086c0,0,5.215-9.387-2.607-11.994
		c-7.822-2.608-12.517-5.215-12.517-5.215s34.942-138.724,39.114-162.192S1937.567,355.119,1933.979,365.916z"/>
	
		<path fill="#090909" stroke="#090909" stroke-width="25" stroke-linecap="round" stroke-linejoin="round" stroke-miterlimit="10" d="
		M2112.339,608.943c-8.866-5.215-53.428-17.473-66.233-16.166c-44.469,4.535-127.25,112.125-127.25,149.153
		c0,40.457,46.415,94.395,90.744,94.395c34.941,0,55.802-19.817,55.802-19.817s8.345-18.774,6.259-18.253
		c-2.087,0.521-19.817,19.817-64.146,19.817c-46.716,0-19.297-67.275-19.297-67.275s7.823,17.731,47.98,17.731
		c40.156,0,83.804-15.48,97.002-79.271C2142.586,643.885,2121.204,614.159,2112.339,608.943z M2057.058,697.079
		c-21.904,31.813-43.808,39.637-57.889,37.551c0,0,74.055-111.604,81.356-112.126
		C2087.827,621.981,2078.961,665.268,2057.058,697.079z"/>
	
		<path fill="#090909" stroke="#090909" stroke-width="25" stroke-linecap="round" stroke-linejoin="round" stroke-miterlimit="10" d="
		M2183.264,723.156c4.269-11.51,67.797-159.584,124.643-239.898c12.97-18.323,77.185,30.77,69.883,52.673
		c-7.301,21.904-112.127,199.218-120.992,217.472S2179.187,734.148,2183.264,723.156z"/>
	
		<path fill="#090909" stroke="#090909" stroke-width="25" stroke-linecap="round" stroke-linejoin="round" stroke-miterlimit="10" d="
		M2162.925,795.127c-16.167,0-39.636,25.554-39.636,49.022c0,23.468,29.206,50.587,42.243,50.587
		c13.038,0,32.856-17.734,32.856-31.814c0-14.079,3.65-53.714-2.088-59.451C2190.564,797.733,2171.642,795.127,2162.925,795.127z"/>
	
		<path fill="#090909" stroke="#090909" stroke-width="25" stroke-linecap="round" stroke-linejoin="round" stroke-miterlimit="10" d="
		M766.142,894.736c91.424-42.704,261.659-103.001,617.187-103.001c355.527,0,449.873,44.59,517.449,79.069
		c17.965,9.166,32.635,76.27,18.078,78.615s-122.506-86.498-535.527-86.498c-413.022,0-560.865,88.844-574.945,92.364
		C794.302,958.806,750.074,902.243,766.142,894.736z"/>
</g>
<g>
	
		<path fill="#090909" stroke="#090909" stroke-width="25" stroke-linecap="round" stroke-linejoin="round" stroke-miterlimit="10" d="
		M640.971,529.189c-4.673-7.01-4.306-20.582,11.734-95.438c4.693-21.904-2.698-40.678-6.825-40.678S521.283,532.318,521.283,690.338
		c0,82.14,33.638,171.319,79.01,171.319c61.799,0,101.695-50.849,101.695-50.849s16.428,31.291,0,49.284
		c-16.428,17.991-62.582,32.072-97.002,32.072c-80.575,0-156.456-68.058-156.456-228.425c0-160.366,143.157-304.305,167.408-304.305
		c24.25,0,104.825,38.332,104.825,85.268s-9.387,97.002-19.557,97.002C691.037,541.706,647.229,538.577,640.971,529.189z"/>
	
		<path fill="#090909" stroke="#090909" stroke-width="25" stroke-linecap="round" stroke-linejoin="round" stroke-miterlimit="10" d="
		M810.725,640.272c0,0,8.605-74.316-34.42-74.316c-28.162,0-33.638,33.639-33.638,52.413s10.952,32.072,46.154,45.371
		c0,0-26.598,95.438-54.759,95.438c-10.952,0-16.037-33.638-16.037-53.586c0-29.727,22.294-115.385,24.642-126.337
		c2.347-10.952-25.033-17.992-36.767-13.299c-14.617,5.847-48.501,73.534-48.501,125.164c0,51.631,34.42,87.615,81.357,87.615
		c46.937,0,71.188-68.059,71.188-113.431l21.122-12.516l6.258-39.896L810.725,640.272z M791.56,650.441
		c-11.734-5.084-19.557-11.733-20.73-28.161s8.605-34.812,8.605-34.812s8.214,7.041,12.125,24.642
		C795.471,629.712,791.56,650.441,791.56,650.441z"/>
	
		<path fill="#090909" stroke="#090909" stroke-width="25" stroke-linecap="round" stroke-linejoin="round" stroke-miterlimit="10" d="
		M858.444,536.229c-10.761,15.543-43.564,107.993-35.203,216.69c0.782,10.17,24.1,15.607,31.291,11.734
		c20.339-10.952,35.985-126.729,91.526-186.964c0,0-24.25,56.323-24.25,99.349s32.441,67.276,68.84,67.276
		c7.041,0-3.911-11.64-3.911-40.679c0-20.579,17.922-88.544,23.468-118.123c4.694-25.034-12.516-46.937-40.678-46.937
		c-27.379,0-60.235,46.937-60.235,46.937s5.639-25.816,7.122-35.203S872.525,515.891,858.444,536.229z"/>
	
		<path fill="#090909" stroke="#090909" stroke-width="25" stroke-linecap="round" stroke-linejoin="round" stroke-miterlimit="10" d="
		M1077.481,310.152l-41.461,208.085l-43.807,6.258c0,0,17.209,16.428,39.113,19.557c0,0-12.517,95.438-8.605,132.205
		c3.911,36.768,35.203,62.582,67.276,62.582s83.704-66.493,100.914-158.802l14.863-6.258c0,0-10.169,40.433-10.952,73.411
		c-0.782,32.978,40.678,71.31,65.711,71.31c25.033,0,68.84-71.31,68.84-71.31l-7.823-16.306c0,0-44.589,69.623-64.146,69.623
		c-10.952,0,39.114-147.068,43.807-168.189c4.694-21.122-28.944-28.162-50.065-28.162c-29.727,0-48.501,20.339-48.501,20.339
		s0.782-22.686,0.782-28.944s-9.387-17.993-21.904-17.993c-20.73,0-36.767,54.76-36.767,75.881
		c0,11.039,25.815,24.251,25.815,24.251s-42.243,146.285-79.01,146.285c-21.122,0,17.21-186.182,17.21-186.182l35.203-9.319
		l6.258-11.02c0,0-12.517-10.952-32.073-12.517c0,0,20.805-94.863,15.646-161.931
		C1132.241,322.668,1086.086,307.022,1077.481,310.152z"/>
	
		<path fill="#090909" stroke="#090909" stroke-width="25" stroke-linecap="round" stroke-linejoin="round" stroke-miterlimit="10" d="
		M1354.668,489.033c-12.545,28.371-39.635,102.895-39.635,144.459c0,41.566,22.946,78.229,65.189,78.229
		s60.496-40.156,60.496-40.156l-3.649-19.818c0,0-26.076,45.894-47.979,45.894c-21.905,0-13.04-59.453-2.608-97.262
		c10.431-37.811,28.163-88.935,28.683-97.786C1416.208,484.861,1363.8,468.385,1354.668,489.033z"/>
	
		<path fill="#090909" stroke="#090909" stroke-width="25" stroke-linecap="round" stroke-linejoin="round" stroke-miterlimit="10" d="
		M1386.481,371.17c0-30.248,27.119-47.458,42.765-47.458s32.334,7.302,32.334,23.729c0,16.427-7.301,61.799-44.328,61.799
		C1402.647,409.241,1386.481,393.074,1386.481,371.17z"/>
	
		<path fill="#090909" stroke="#090909" stroke-width="25" stroke-linecap="round" stroke-linejoin="round" stroke-miterlimit="10" d="
		M1616.471,549.529c-0.522-21.904-20.34-46.937-40.157-46.937c-13.56,0-39.114,13.56-39.114,33.899
		c0,45.372,57.889,37.55,57.889,37.55s-8.345,130.379-85.008,130.379c-28.683,0-13.037-118.385-13.037-118.385
		c95.437-176.794,105.868-302.48,105.868-315.518c0,0-7.823-20.861-20.861-20.861c-50.065,0-137.158,207.564-143.938,265.974
		c-6.779,58.411-7.822,96.481-6.258,129.336s27.641,76.663,75.098,76.663c108.997,0,110.041-154.891,110.041-154.891
		c8.865-3.129,35.463-23.99,35.463-23.99l3.65-31.813C1646.197,530.233,1616.471,549.529,1616.471,549.529z M1530.42,430.623
		c27.118-102.218,49.022-139.767,49.022-139.767s-0.521,27.64-26.597,120.992c-26.076,93.351-46.938,121.514-46.938,121.514
		S1503.301,532.84,1530.42,430.623z M1555.452,538.934c0-5.476,3.13-23.303,19.818-23.303c20.34,0,23.469,41.2,23.469,41.2
		C1557.018,575.084,1555.452,544.409,1555.452,538.934z"/>
	
		<path fill="#090909" stroke="#090909" stroke-width="25" stroke-linecap="round" stroke-linejoin="round" stroke-miterlimit="10" d="
		M1654.281,510.415c-5.777,15.789-37.811,111.083-37.811,162.192c0,27.118,34.421,53.716,56.846,53.716
		c27.64,0,63.103-60.495,63.103-60.495s-15.393,58.543,43.808,82.399c34.942,14.08,85.53-70.405,85.53-70.405l-2.087-20.86
		c0,0-54.759,73.534-65.189,73.534s8.095-85.052,32.334-182.01c1.564-6.258-10.43-28.684-28.162-28.684
		c-17.731,0-22.946,4.172-29.204,17.731c-6.259,13.56-32.334,87.094-32.334,87.094s-44.33,82.399-62.062,82.399
		c-12.517,0,33.898-138.724,44.85-165.321C1734.854,515.108,1660.774,492.669,1654.281,510.415z"/>
	
		<path fill="#090909" stroke="#090909" stroke-width="25" stroke-linecap="round" stroke-linejoin="round" stroke-miterlimit="10" d="
		M1955.979,352.916l-59.453,178.881c0,0-31.911-12.419-40.157-4.172c-3.129,3.129,32.854,18.775,34.941,18.775
		c0,0-43.068,117.85-35.134,169.493c5.929,38.592,45.013,57.366,62.774,57.366c17.731,0,37.028-13.037,37.028-13.037l-5.606-12.938
		c0,0-22.034,12.938-35.072,12.938c-22.946,0,43.808-190.354,43.808-190.354l21.382,2.086c0,0,5.215-9.387-2.607-11.994
		c-7.822-2.608-12.517-5.215-12.517-5.215s34.942-138.724,39.114-162.192S1959.567,342.119,1955.979,352.916z"/>
	
		<path fill="#090909" stroke="#090909" stroke-width="25" stroke-linecap="round" stroke-linejoin="round" stroke-miterlimit="10" d="
		M2134.339,595.943c-8.866-5.215-53.428-17.473-66.233-16.166c-44.469,4.535-127.25,112.125-127.25,149.153
		c0,40.457,46.415,94.395,90.744,94.395c34.941,0,55.802-19.817,55.802-19.817s8.345-18.774,6.259-18.253
		c-2.087,0.521-19.817,19.817-64.146,19.817c-46.716,0-19.297-67.275-19.297-67.275s7.823,17.731,47.98,17.731
		c40.156,0,83.804-15.48,97.002-79.271C2164.586,630.885,2143.204,601.159,2134.339,595.943z M2079.058,684.079
		c-21.904,31.813-43.808,39.637-57.889,37.551c0,0,74.055-111.604,81.356-112.126
		C2109.827,608.981,2100.961,652.268,2079.058,684.079z"/>
	
		<path fill="#090909" stroke="#090909" stroke-width="25" stroke-linecap="round" stroke-linejoin="round" stroke-miterlimit="10" d="
		M2205.264,710.156c4.269-11.51,67.797-159.584,124.643-239.898c12.97-18.323,77.185,30.77,69.883,52.673
		c-7.301,21.904-112.127,199.218-120.992,217.472S2201.187,721.148,2205.264,710.156z"/>
	
		<path fill="#090909" stroke="#090909" stroke-width="25" stroke-linecap="round" stroke-linejoin="round" stroke-miterlimit="10" d="
		M2184.925,782.127c-16.167,0-39.636,25.554-39.636,49.022c0,23.468,29.206,50.587,42.243,50.587
		c13.038,0,32.856-17.734,32.856-31.814c0-14.079,3.65-53.714-2.088-59.451C2212.564,784.733,2193.642,782.127,2184.925,782.127z"/>
	
		<path fill="#090909" stroke="#090909" stroke-width="25" stroke-linecap="round" stroke-linejoin="round" stroke-miterlimit="10" d="
		M788.142,881.736c91.424-42.704,261.659-103.001,617.187-103.001c355.527,0,449.873,44.59,517.449,79.069
		c17.965,9.166,32.635,76.27,18.078,78.615s-122.506-86.498-535.527-86.498c-413.022,0-560.865,88.844-574.945,92.364
		C816.302,945.806,772.074,889.243,788.142,881.736z"/>
</g>
<g>
	<path fill="#6A60CC" d="M644.971,522.189c-4.673-7.01-4.306-20.582,11.734-95.438c4.693-21.904-2.698-40.678-6.825-40.678
		S525.283,525.318,525.283,683.338c0,82.14,33.638,171.319,79.01,171.319c61.799,0,101.695-50.849,101.695-50.849
		s16.428,31.291,0,49.284c-16.428,17.991-62.582,32.072-97.002,32.072c-80.575,0-156.456-68.058-156.456-228.425
		c0-160.366,143.157-304.305,167.408-304.305c24.25,0,104.825,38.332,104.825,85.268s-9.387,97.002-19.557,97.002
		C695.037,534.706,651.229,531.577,644.971,522.189z"/>
	<path fill="#6A60CC" d="M814.725,633.272c0,0,8.605-74.316-34.42-74.316c-28.162,0-33.638,33.639-33.638,52.413
		s10.952,32.072,46.154,45.371c0,0-26.598,95.438-54.759,95.438c-10.952,0-16.037-33.638-16.037-53.586
		c0-29.727,22.294-115.385,24.642-126.337c2.347-10.952-25.033-17.992-36.767-13.299c-14.617,5.847-48.501,73.534-48.501,125.164
		c0,51.631,34.42,87.615,81.357,87.615c46.937,0,71.188-68.059,71.188-113.431l21.122-12.516l6.258-39.896L814.725,633.272z
		 M795.56,643.441c-11.734-5.084-19.557-11.733-20.73-28.161s8.605-34.811,8.605-34.811s8.214,7.041,12.125,24.641
		C799.471,622.712,795.56,643.441,795.56,643.441z"/>
	<path fill="#6A60CC" d="M862.444,529.229c-10.761,15.543-43.564,107.993-35.203,216.69c0.782,10.17,24.1,15.607,31.291,11.734
		c20.339-10.952,35.985-126.729,91.526-186.964c0,0-24.25,56.323-24.25,99.349s32.441,67.276,68.84,67.276
		c7.041,0-3.911-11.64-3.911-40.679c0-20.579,17.922-88.544,23.468-118.124c4.694-25.033-12.516-46.937-40.678-46.937
		c-27.379,0-60.235,46.937-60.235,46.937s5.639-25.815,7.122-35.203S876.525,508.891,862.444,529.229z"/>
	<path fill="#6A60CC" d="M1081.481,303.152l-41.461,208.085l-43.807,6.258c0,0,17.209,16.428,39.113,19.557
		c0,0-12.517,95.438-8.605,132.205c3.911,36.768,35.203,62.582,67.276,62.582s83.704-66.493,100.914-158.802l14.863-6.258
		c0,0-10.169,40.433-10.952,73.412c-0.782,32.978,40.678,71.31,65.711,71.31c25.033,0,68.84-71.31,68.84-71.31l-7.823-16.306
		c0,0-44.589,69.623-64.146,69.623c-10.952,0,39.114-147.068,43.807-168.189c4.694-21.122-28.944-28.162-50.065-28.162
		c-29.727,0-48.501,20.339-48.501,20.339s0.782-22.686,0.782-28.944s-9.387-17.993-21.904-17.993
		c-20.73,0-36.767,54.76-36.767,75.881c0,11.039,25.815,24.251,25.815,24.251s-42.243,146.285-79.01,146.285
		c-21.122,0,17.21-186.182,17.21-186.182l35.203-9.319l6.258-11.02c0,0-12.517-10.952-32.073-12.517
		c0,0,20.805-94.863,15.646-161.931C1136.241,315.668,1090.086,300.022,1081.481,303.152z"/>
	<path fill="#6A60CC" d="M1358.668,482.033c-12.545,28.371-39.635,102.895-39.635,144.459c0,41.566,22.946,78.229,65.189,78.229
		s60.496-40.156,60.496-40.156l-3.649-19.818c0,0-26.076,45.894-47.979,45.894c-21.905,0-13.04-59.453-2.608-97.262
		c10.431-37.811,28.163-88.935,28.683-97.786C1420.208,477.861,1367.8,461.385,1358.668,482.033z"/>
	<path fill="#6A60CC" d="M1390.481,364.17c0-30.248,27.119-47.458,42.765-47.458s32.334,7.302,32.334,23.729
		c0,16.427-7.301,61.799-44.328,61.799C1406.647,402.241,1390.481,386.074,1390.481,364.17z"/>
	<path fill="#6A60CC" d="M1620.471,542.529c-0.522-21.904-20.34-46.937-40.157-46.937c-13.56,0-39.114,13.56-39.114,33.899
		c0,45.372,57.889,37.549,57.889,37.549s-8.345,130.379-85.008,130.379c-28.683,0-13.037-118.385-13.037-118.385
		c95.437-176.794,105.868-302.48,105.868-315.518c0,0-7.823-20.861-20.861-20.861c-50.065,0-137.158,207.564-143.938,265.974
		c-6.779,58.41-7.822,96.481-6.258,129.336s27.641,76.663,75.098,76.663c108.997,0,110.041-154.891,110.041-154.891
		c8.865-3.129,35.463-23.99,35.463-23.99l3.65-31.813C1650.197,523.233,1620.471,542.529,1620.471,542.529z M1534.42,423.623
		c27.118-102.218,49.022-139.767,49.022-139.767s-0.521,27.64-26.597,120.992c-26.076,93.351-46.938,121.514-46.938,121.514
		S1507.301,525.84,1534.42,423.623z M1559.452,531.934c0-5.476,3.13-23.303,19.818-23.303c20.34,0,23.469,41.2,23.469,41.2
		C1561.018,568.084,1559.452,537.409,1559.452,531.934z"/>
	<path fill="#6A60CC" d="M1658.281,503.415c-5.777,15.789-37.811,111.083-37.811,162.192c0,27.118,34.421,53.716,56.846,53.716
		c27.64,0,63.103-60.495,63.103-60.495s-15.393,58.543,43.808,82.399c34.942,14.08,85.53-70.405,85.53-70.405l-2.087-20.86
		c0,0-54.759,73.534-65.189,73.534s8.095-85.052,32.334-182.01c1.564-6.258-10.43-28.684-28.162-28.684
		c-17.731,0-22.946,4.172-29.204,17.731c-6.259,13.56-32.334,87.094-32.334,87.094s-44.33,82.399-62.062,82.399
		c-12.517,0,33.898-138.723,44.85-165.321C1738.854,508.108,1664.774,485.669,1658.281,503.415z"/>
	<path fill="#6A60CC" d="M1959.979,345.916l-59.453,178.881c0,0-31.911-12.419-40.157-4.172
		c-3.129,3.129,32.854,18.775,34.941,18.775c0,0-43.068,117.85-35.134,169.493c5.929,38.592,45.013,57.366,62.774,57.366
		c17.731,0,37.028-13.037,37.028-13.037l-5.606-12.938c0,0-22.034,12.938-35.072,12.938c-22.946,0,43.808-190.354,43.808-190.354
		l21.382,2.086c0,0,5.215-9.387-2.607-11.995c-7.822-2.608-12.517-5.215-12.517-5.215s34.942-138.724,39.114-162.192
		S1963.567,335.119,1959.979,345.916z"/>
	<path fill="#6A60CC" d="M2138.339,588.943c-8.866-5.215-53.428-17.473-66.233-16.167c-44.469,4.536-127.25,112.125-127.25,149.154
		c0,40.457,46.415,94.395,90.744,94.395c34.941,0,55.802-19.817,55.802-19.817s8.345-18.774,6.259-18.253
		c-2.087,0.521-19.817,19.817-64.146,19.817c-46.716,0-19.297-67.275-19.297-67.275s7.823,17.731,47.98,17.731
		c40.156,0,83.804-15.48,97.002-79.271C2168.586,623.885,2147.204,594.159,2138.339,588.943z M2083.058,677.079
		c-21.904,31.813-43.808,39.637-57.889,37.551c0,0,74.055-111.604,81.356-112.126
		C2113.827,601.981,2104.961,645.268,2083.058,677.079z"/>
	<path fill="#6A60CC" d="M2209.264,703.156c4.269-11.51,67.797-159.584,124.643-239.898c12.97-18.323,77.185,30.77,69.883,52.673
		c-7.301,21.904-112.127,199.218-120.992,217.472S2205.187,714.148,2209.264,703.156z"/>
	<path fill="#6A60CC" d="M2188.925,775.127c-16.167,0-39.636,25.554-39.636,49.022c0,23.468,29.206,50.587,42.243,50.587
		c13.038,0,32.856-17.734,32.856-31.814c0-14.079,3.65-53.714-2.088-59.451C2216.564,777.733,2197.642,775.127,2188.925,775.127z"/>
	<path fill="#6A60CC" d="M792.142,874.736c91.424-42.704,261.659-103.001,617.187-103.001c355.527,0,449.873,44.59,517.449,79.069
		c17.965,9.166,32.635,76.27,18.078,78.615s-122.506-86.498-535.527-86.498c-413.022,0-560.865,88.844-574.945,92.364
		C820.302,938.806,776.074,882.243,792.142,874.736z"/>
</g>
</svg>
