<?xml version="1.0" encoding="UTF-8" standalone="no"?>
<svg
   xmlns:dc="http://purl.org/dc/elements/1.1/"
   xmlns:cc="http://creativecommons.org/ns#"
   xmlns:rdf="http://www.w3.org/1999/02/22-rdf-syntax-ns#"
   xmlns:svg="http://www.w3.org/2000/svg"
   xmlns="http://www.w3.org/2000/svg"
   xmlns:sodipodi="http://sodipodi.sourceforge.net/DTD/sodipodi-0.dtd"
   xmlns:inkscape="http://www.inkscape.org/namespaces/inkscape"
   width="5018.7549"
   stroke-miterlimit="10"
   font-weight="normal"
   height="4500.6572"
   font-style="normal"
   font-size="12"
   id="svg2"
   version="1.1"
   inkscape:version="0.91 r13725"
   sodipodi:docname="Cyclopentenylcytosine (CPE-C).svg"
   style="font-style:normal;font-weight:normal;font-size:12px;font-family:Dialog;color-interpolation:auto;fill:#000000;fill-opacity:1;stroke:#000000;stroke-width:1;stroke-linecap:square;stroke-linejoin:miter;stroke-miterlimit:10;stroke-dasharray:none;stroke-dashoffset:0;stroke-opacity:1;color-rendering:auto;image-rendering:auto;shape-rendering:auto;text-rendering:auto">
  <metadata
     id="metadata151">
    <rdf:RDF>
      <cc:Work
         rdf:about="">
        <dc:format>image/svg+xml</dc:format>
        <dc:type
           rdf:resource="http://purl.org/dc/dcmitype/StillImage" />
        <dc:title></dc:title>
      </cc:Work>
    </rdf:RDF>
  </metadata>
  <sodipodi:namedview
     pagecolor="#ffffff"
     bordercolor="#666666"
     borderopacity="1"
     objecttolerance="10"
     gridtolerance="10"
     guidetolerance="10"
     inkscape:pageopacity="0"
     inkscape:pageshadow="2"
     inkscape:window-width="1920"
     inkscape:window-height="1016"
     id="namedview149"
     showgrid="false"
     inkscape:showpageshadow="false"
     showborder="false"
     fit-margin-top="0"
     fit-margin-left="0"
     fit-margin-right="0"
     fit-margin-bottom="0"
     inkscape:zoom="0.16857143"
     inkscape:cx="573.18873"
     inkscape:cy="2088.1673"
     inkscape:window-x="-8"
     inkscape:window-y="-8"
     inkscape:window-maximized="1"
     inkscape:current-layer="svg2" />
  <!--Generated by Marvin with Batik SVG Generator
MolSource:
<?xml version="1.0" encoding="windows-1252"?><cml xmlns="http://www.chemaxon.com" xmlns:xsi="http://www.w3.org/2001/XMLSchema-instance" xsi:schemaLocation="http://www.chemaxon.com/marvin/schema/mrvSchema_14_12_01.xsd" version="ChemAxon file format v14.12.01, generated by v15.8.31.0">
<MDocument atomSetRGB="0:D" bondSetRGB="0:N,2:N" bondSetLineThickness="2:0.25"><propertyList><property dictRef="scale" title="scale"><scalar dataType="xsd:double">18.0</scalar></property></propertyList><MChemicalStruct><molecule molID="m1"><atomArray atomID="a1 a2 a3 a4 a5 a6 a7 a8 a9 a10 a11 a12 a13 a14 a15 a16 a17" elementType="C C C C C C O O O N C C C C N N O" x2="2.704944767148202 0.6458397173845505 1.6012683026810635 3.8912313509201937 4.846660174412552 -1.0737862198296853 1.5987228000757412 3.9148497976991905 -2.2806804293510297 4.8651311778235815 3.5129967313112473 4.846675853139288 3.5129967313112473 6.180354974967315 6.180354974967315 4.846675853139288 7.514034096795353" y2="9.127458361040674 8.155333204848658 6.721069242455142 6.721069242455142 8.114028145196215 8.109158722491491 5.019345613035039 4.975712717245422 9.839075961966147 10.334554404686969 12.711999523162842 13.481999523162845 11.171999523162842 11.17199952316284 12.711999523162842 15.021999523162844 10.401999523162843"></atomArray><bondArray><bond id="b1" atomRefs2="a1 a2" order="2"></bond><bond id="b2" atomRefs2="a1 a5" order="1"></bond><bond id="b3" atomRefs2="a2 a3" order="1"><bondStereo>W</bondStereo></bond><bond id="b4" atomRefs2="a2 a6" order="1"></bond><bond id="b5" atomRefs2="a3 a4" order="1" mrvSetSeq="2"></bond><bond id="b6" atomRefs2="a3 a7" order="1"></bond><bond id="b7" atomRefs2="a5 a4" order="1"><bondStereo>W</bondStereo></bond><bond id="b8" atomRefs2="a4 a8" order="1"></bond><bond id="b9" atomRefs2="a5 a10" order="1"></bond><bond id="b10" atomRefs2="a6 a9" order="1"></bond><bond id="b11" atomRefs2="a12 a11" order="1"></bond><bond id="b12" atomRefs2="a11 a13" order="2"></bond><bond id="b13" atomRefs2="a12 a16" order="1"></bond><bond id="b14" atomRefs2="a12 a15" order="2"></bond><bond id="b15" atomRefs2="a14 a15" order="1"></bond><bond id="b16" atomRefs2="a14 a17" order="2"></bond><bond id="b17" atomRefs2="a13 a10" order="1"></bond><bond id="b18" atomRefs2="a10 a14" order="1"></bond></bondArray></molecule></MChemicalStruct><MTextBox id="o2" color="#ffffff" toption="NOROT" fontScale="10.0" halign="LEFT" valign="TOP" autoSize="false"><Field name="text">.</Field><MPoint x="6.375" y="4.974999999999987"></MPoint><MPoint x="6.769166984558106" y="4.974999999999997"></MPoint><MPoint x="6.769166984558106" y="4.259999999999993"></MPoint><MPoint x="6.375000000000002" y="4.259999999999987"></MPoint></MTextBox></MDocument>
</cml>
-->
  <defs
     id="genericDefs" />
  <g
     id="g5"
     transform="matrix(4,0,0,4,-433.24504,-533.65603)"
     style="stroke-width:0.25">
    <defs
       id="32523531377-defs1">
      <clipPath
         clipPathUnits="userSpaceOnUse"
         id="325235313207-clipPath1">
        <path
           d="m -554.5708,-1133.0182 1363,0 0,1400.00007 -1363,0 0,-1400.00007 z"
           id="path9"
           inkscape:connector-curvature="0" />
      </clipPath>
      <clipPath
         clipPathUnits="userSpaceOnUse"
         id="32523531374-clipPath1">
        <path
           d="m -791.98175,-1137.4906 1363,0 0,1399.99994 -1363,0 0,-1399.99994 z"
           id="path12"
           inkscape:connector-curvature="0" />
      </clipPath>
      <clipPath
         clipPathUnits="userSpaceOnUse"
         id="325235313524-clipPath1">
        <path
           d="m -100.22337,-638.97925 1362.99997,0 0,1400 -1362.99997,0 0,-1400 z"
           id="path15"
           inkscape:connector-curvature="0" />
      </clipPath>
      <clipPath
         clipPathUnits="userSpaceOnUse"
         id="325235313480-clipPath1">
        <path
           d="m -894.00604,-588.19104 1363.00003,0 0,1400 -1363.00003,0 0,-1400 z"
           id="path18"
           inkscape:connector-curvature="0" />
      </clipPath>
      <clipPath
         clipPathUnits="userSpaceOnUse"
         id="32523531326-clipPath1">
        <path
           d="m -1028.8209,-344.49478 1362.99995,0 0,1399.99998 -1362.99995,0 0,-1399.99998 z"
           id="path21"
           inkscape:connector-curvature="0" />
      </clipPath>
      <clipPath
         clipPathUnits="userSpaceOnUse"
         id="325235313164-clipPath1">
        <path
           d="m -892.18457,-107.71186 1362.99997,0 0,1399.99996 -1362.99997,0 0,-1399.99996 z"
           id="path24"
           inkscape:connector-curvature="0" />
      </clipPath>
      <clipPath
         clipPathUnits="userSpaceOnUse"
         id="325235313651-clipPath1">
        <path
           d="m -1030.6346,-154.43295 1362.9999,0 0,1399.99995 -1362.9999,0 0,-1399.99995 z"
           id="path27"
           inkscape:connector-curvature="0" />
      </clipPath>
      <clipPath
         clipPathUnits="userSpaceOnUse"
         id="325235313523-clipPath1">
        <path
           d="m -1162.5276,-581.27765 1362.99997,0 0,1400 -1362.99997,0 0,-1400 z"
           id="path30"
           inkscape:connector-curvature="0" />
      </clipPath>
      <clipPath
         clipPathUnits="userSpaceOnUse"
         id="325235313429-clipPath1">
        <path
           d="m 1007.6465,121.52631 c 12.4776,0 22.5928,10.11514 22.5928,22.59278 l 0,36.62832 c 0,-12.52889 10.1567,-22.68555 22.6855,-22.68555 l 2.4198,0 c 12.5288,0 22.6856,10.15666 22.6856,22.68555 l 0,45.37109 c 0,12.52888 -10.1568,22.68555 -22.6856,22.68555 l -2.4198,0 c -12.5288,0 -22.6855,-10.15667 -22.6855,-22.68555 l 0,-36.81386 c 0,12.47765 -10.1152,22.59278 -22.5928,22.59278 l -84.92384,0 c -12.4776,0 -22.59278,-10.11513 -22.59278,-22.59278 l 0,-45.18555 c 0,-12.47764 10.11518,-22.59278 22.59278,-22.59278 z m 63.566,236.78292 c 12.4777,0 22.5928,10.11512 22.5928,22.59278 l 0,45.18554 c 0,12.47764 -10.1151,22.59278 -22.5928,22.59278 l -11.7832,0 c -12.4776,0 -22.5928,-10.11514 -22.5928,-22.59278 l 0,-45.18554 c 0,-12.47766 10.1152,-22.59278 22.5928,-22.59278 z m 142.0143,235.82779 c 12.9119,0 23.3789,10.46711 23.3789,23.37891 l 0,46.75781 c 0,12.91187 -10.467,23.37891 -23.3789,23.37891 l -22.3984,0 c -12.9118,0 -23.3789,-10.46704 -23.3789,-23.37891 l 0,-46.75781 c 0,-12.9118 10.4671,-23.37891 23.3789,-23.37891 z m -276.82916,7.86847 c 12.4776,0 22.59278,10.11512 22.59278,22.59278 l 0,45.18554 c 0,12.47766 -10.11518,22.59278 -22.59278,22.59278 l -11.7832,0 c -12.47766,0 -22.59277,-10.11512 -22.59277,-22.59278 l 0,-45.18554 c 0,-12.47766 10.11511,-22.59278 22.59277,-22.59278 z M 222.3132,651.83862 c 12.91182,0 23.37891,10.46711 23.37891,23.37891 l 0,46.75781 c 0,12.91187 -10.46709,23.37891 -23.37891,23.37891 l -92.17969,0 c -12.9118,0 -23.37889,-10.46704 -23.37889,-23.37891 l 0,-46.75781 c 0,-12.9118 10.46709,-23.37891 23.37889,-23.37891 z m 454.33963,494.03898 c 12.91181,0 23.37891,10.467 23.37891,23.3789 l 0,46.7578 c 0,12.9117 -10.4671,23.3789 -23.37891,23.3789 l -92.16406,0 c -12.9118,0 -23.37891,-10.4672 -23.37891,-23.3789 l 0,-46.7578 c 0,-12.9119 10.46711,-23.3789 23.37891,-23.3789 z m 237.41095,4.4724 c 12.91181,0 23.37891,10.4671 23.37891,23.3789 l 0,46.7578 c 0,12.9119 -10.4671,23.3789 -23.37891,23.3789 l -92.16406,0 c -12.9118,0 -23.37891,-10.467 -23.37891,-23.3789 l 0,-46.7578 c 0,-12.9118 10.46711,-23.3789 23.37891,-23.3789 z M 0,0 l 0,1400 1363,0 0,-1400 z"
           id="path33"
           inkscape:connector-curvature="0" />
      </clipPath>
      <clipPath
         clipPathUnits="userSpaceOnUse"
         id="32523531322-clipPath1">
        <path
           d="m 0,0 1363,0 0,1400 L 0,1400 0,0 Z"
           id="path36"
           inkscape:connector-curvature="0" />
      </clipPath>
      <clipPath
         clipPathUnits="userSpaceOnUse"
         id="325235313594-clipPath1">
        <path
           d="m 1085.2244,1196.4637 7.4498,0 0,13.4808 -7.4498,0 0,-13.4808 z"
           id="path39"
           inkscape:connector-curvature="0" />
      </clipPath>
    </defs>
    <g
       font-size="101"
       transform="translate(554.57079,1133.0181)"
       id="g41"
       style="font-size:101px;font-family:Arial;stroke-width:0.0625;shape-rendering:geometricPrecision;text-rendering:optimizeLegibility">
      <g
         clip-path="url(#325235313207-clipPath1)"
         style="stroke:none"
         id="text43">
        <path
           d="m 4.8823242,62.788086 q 0,-18.000488 9.6660158,-28.159668 9.666015,-10.208496 24.954101,-10.208496 10.011231,0 18.049805,4.783691 8.038574,4.783692 12.230469,13.364746 4.241211,8.531739 4.241211,19.381348 0,10.997559 -4.438477,19.677246 -4.438476,8.679688 -12.575683,13.167481 -8.137207,4.438476 -17.556641,4.438476 -10.208496,0 -18.24707,-4.93164 Q 13.16748,89.369629 9.0249023,80.837891 4.8823242,72.306152 4.8823242,62.788086 Z m 9.8632808,0.147949 q 0,13.068848 7.00293,20.614258 7.052246,7.496094 17.655274,7.496094 10.800293,0 17.753906,-7.594727 7.00293,-7.594726 7.00293,-21.551269 0,-8.827637 -3.008301,-15.386719 -2.958985,-6.608399 -8.729004,-10.208496 -5.720703,-3.649414 -12.871582,-3.649414 -10.15918,0 -17.507324,7.002929 -7.298829,6.953614 -7.298829,23.277344 z"
           style="stroke:none"
           id="path3480" />
        <path
           d="m 86.599609,98 0,-72.297852 9.567383,0 0,29.688477 37.579098,0 0,-29.688477 9.56739,0 0,72.297852 -9.56739,0 0,-34.077637 -37.579098,0 0,34.077637 -9.567383,0 z"
           style="stroke:none"
           id="path3482" />
      </g>
    </g>
    <g
       font-size="101"
       transform="translate(791.98174,1137.4907)"
       id="g45"
       style="font-size:101px;font-family:Arial;stroke-width:0.0625;shape-rendering:geometricPrecision;text-rendering:optimizeLegibility">
      <g
         clip-path="url(#32523531374-clipPath1)"
         style="stroke:none"
         id="text47">
        <path
           d="m 4.8823242,62.788086 q 0,-18.000488 9.6660158,-28.159668 9.666015,-10.208496 24.954101,-10.208496 10.011231,0 18.049805,4.783691 8.038574,4.783692 12.230469,13.364746 4.241211,8.531739 4.241211,19.381348 0,10.997559 -4.438477,19.677246 -4.438476,8.679688 -12.575683,13.167481 -8.137207,4.438476 -17.556641,4.438476 -10.208496,0 -18.24707,-4.93164 Q 13.16748,89.369629 9.0249023,80.837891 4.8823242,72.306152 4.8823242,62.788086 Z m 9.8632808,0.147949 q 0,13.068848 7.00293,20.614258 7.052246,7.496094 17.655274,7.496094 10.800293,0 17.753906,-7.594727 7.00293,-7.594726 7.00293,-21.551269 0,-8.827637 -3.008301,-15.386719 -2.958985,-6.608399 -8.729004,-10.208496 -5.720703,-3.649414 -12.871582,-3.649414 -10.15918,0 -17.507324,7.002929 -7.298829,6.953614 -7.298829,23.277344 z"
           style="stroke:none"
           id="path3485" />
        <path
           d="m 86.599609,98 0,-72.297852 9.567383,0 0,29.688477 37.579098,0 0,-29.688477 9.56739,0 0,72.297852 -9.56739,0 0,-34.077637 -37.579098,0 0,34.077637 -9.567383,0 z"
           style="stroke:none"
           id="path3487" />
      </g>
    </g>
    <g
       font-size="101"
       transform="translate(100.22337,638.97927)"
       id="g49"
       style="font-size:101px;font-family:Arial;stroke-width:0.0625;shape-rendering:geometricPrecision;text-rendering:optimizeLegibility">
      <g
         clip-path="url(#325235313524-clipPath1)"
         style="stroke:none"
         id="text51">
        <path
           d="m 8.0878906,98 0,-72.297852 9.5673824,0 0,29.688477 37.579102,0 0,-29.688477 9.567383,0 0,72.297852 -9.567383,0 0,-34.077637 -37.579102,0 0,34.077637 -9.5673824,0 z"
           style="stroke:none"
           id="path3490" />
        <path
           d="m 77.870605,62.788086 q 0,-18.000488 9.666016,-28.159668 9.666016,-10.208496 24.954099,-10.208496 10.01123,0 18.04981,4.783691 8.03857,4.783692 12.23047,13.364746 4.24121,8.531739 4.24121,19.381348 0,10.997559 -4.43848,19.677246 -4.43848,8.679688 -12.57568,13.167481 -8.13721,4.438476 -17.55664,4.438476 -10.2085,0 -18.247074,-4.93164 Q 86.155762,89.369629 82.013184,80.837891 77.870605,72.306152 77.870605,62.788086 Z m 9.863282,0.147949 q 0,13.068848 7.002929,20.614258 7.052244,7.496094 17.655274,7.496094 10.80029,0 17.75391,-7.594727 7.00293,-7.594726 7.00293,-21.551269 0,-8.827637 -3.00831,-15.386719 -2.95898,-6.608399 -8.729,-10.208496 -5.7207,-3.649414 -12.87158,-3.649414 -10.15918,0 -17.507325,7.002929 -7.298828,6.953614 -7.298828,23.277344 z"
           style="stroke:none"
           id="path3492" />
      </g>
    </g>
    <g
       font-size="101"
       transform="translate(894.00602,588.19103)"
       id="g53"
       style="font-size:101px;font-family:Arial;stroke-width:0.0625;shape-rendering:geometricPrecision;text-rendering:optimizeLegibility">
      <g
         clip-path="url(#325235313480-clipPath1)"
         style="stroke:none"
         id="text55">
        <path
           d="m 7.6933594,98 0,-72.297852 9.8139646,0 37.973633,56.763184 0,-56.763184 9.172852,0 0,72.297852 -9.813965,0 -37.973633,-56.8125 0,56.8125 -9.1728516,0 z"
           style="stroke:none"
           id="path3495" />
      </g>
    </g>
    <g
       font-size="101"
       transform="translate(1028.821,344.49477)"
       id="g57"
       style="font-size:101px;font-family:Arial;stroke-width:0.0625;shape-rendering:geometricPrecision;text-rendering:optimizeLegibility">
      <g
         clip-path="url(#32523531326-clipPath1)"
         style="stroke:none"
         id="text59">
        <path
           d="m 7.6933594,98 0,-72.297852 9.8139646,0 37.973633,56.763184 0,-56.763184 9.172852,0 0,72.297852 -9.813965,0 -37.973633,-56.8125 0,56.8125 -9.1728516,0 z"
           style="stroke:none"
           id="path3498" />
      </g>
    </g>
    <g
       font-size="101"
       transform="translate(892.1846,107.71186)"
       id="g61"
       style="font-size:101px;font-family:Arial;stroke-width:0.0625;shape-rendering:geometricPrecision;text-rendering:optimizeLegibility">
      <g
         clip-path="url(#325235313164-clipPath1)"
         style="stroke:none"
         id="text63">
        <path
           d="m 7.6933594,98 0,-72.297852 9.8139646,0 37.973633,56.763184 0,-56.763184 9.172852,0 0,72.297852 -9.813965,0 -37.973633,-56.8125 0,56.8125 -9.1728516,0 z"
           style="stroke:none"
           id="path3501" />
        <path
           d="m 81.076172,98 0,-72.297852 9.567383,0 0,29.688477 37.579105,0 0,-29.688477 9.56738,0 0,72.297852 -9.56738,0 0,-34.077637 -37.579105,0 0,34.077637 -9.567383,0 z"
           style="stroke:none"
           id="path3503" />
      </g>
    </g>
    <g
       font-size="84"
       transform="translate(1030.6347,154.43295)"
       id="g65"
       style="font-size:84px;font-family:Arial;stroke-width:0.0625;shape-rendering:geometricPrecision;text-rendering:optimizeLegibility">
      <g
         clip-path="url(#325235313651-clipPath1)"
         style="stroke:none"
         id="text67">
        <path
           d="m 42.287109,73.904297 0,7.095703 -39.7441402,0 Q 2.4609375,78.333984 3.4042969,75.873047 4.921875,71.8125 8.2441406,67.875 q 3.3632814,-3.9375 9.6796874,-9.105469 9.802734,-8.039062 13.248047,-12.714844 3.445312,-4.716796 3.445312,-8.90039 0,-4.388672 -3.158203,-7.382813 -3.117187,-3.035156 -8.162109,-3.035156 -5.332031,0 -8.53125,3.199219 -3.199219,3.199219 -3.240234,8.859375 L 3.9375,38.015625 Q 4.7167969,29.525391 9.8027344,25.095703 14.888672,20.625 23.460937,20.625 q 8.654297,0 13.699219,4.798828 5.044922,4.798828 5.044922,11.894531 0,3.609375 -1.476562,7.095703 -1.476563,3.486329 -4.921875,7.341797 -3.404297,3.855469 -11.361329,10.582032 -6.644531,5.578125 -8.531249,7.58789 -1.886719,1.96875 -3.117188,3.978516 l 29.490234,0 z"
           style="stroke:none"
           id="path3506" />
      </g>
    </g>
    <g
       font-size="101"
       transform="translate(1162.5276,581.27768)"
       id="g69"
       style="font-size:101px;font-family:Arial;stroke-width:0.0625;shape-rendering:geometricPrecision;text-rendering:optimizeLegibility">
      <g
         clip-path="url(#325235313523-clipPath1)"
         style="stroke:none"
         id="text71">
        <path
           d="m 4.8823242,62.788086 q 0,-18.000488 9.6660158,-28.159668 9.666015,-10.208496 24.954101,-10.208496 10.011231,0 18.049805,4.783691 8.038574,4.783692 12.230469,13.364746 4.241211,8.531739 4.241211,19.381348 0,10.997559 -4.438477,19.677246 -4.438476,8.679688 -12.575683,13.167481 -8.137207,4.438476 -17.556641,4.438476 -10.208496,0 -18.24707,-4.93164 Q 13.16748,89.369629 9.0249023,80.837891 4.8823242,72.306152 4.8823242,62.788086 Z m 9.8632808,0.147949 q 0,13.068848 7.00293,20.614258 7.052246,7.496094 17.655274,7.496094 10.800293,0 17.753906,-7.594727 7.00293,-7.594726 7.00293,-21.551269 0,-8.827637 -3.008301,-15.386719 -2.958985,-6.608399 -8.729004,-10.208496 -5.720703,-3.649414 -12.871582,-3.649414 -10.15918,0 -17.507324,7.002929 -7.298829,6.953614 -7.298829,23.277344 z"
           style="stroke:none"
           id="path3509" />
      </g>
    </g>
    <g
       font-size="101"
       id="g73"
       style="font-size:101px;font-family:Arial;stroke-width:0.0625;shape-rendering:geometricPrecision;text-rendering:optimizeLegibility">
      <path
         d="m 707.43463,806.96429 c 1.70673,-0.80578 2.43683,-2.84167 1.63104,-4.5484 -0.80578,-1.70678 -2.84167,-2.43683 -4.5484,-1.63104 L 537.54901,879.6123 c -1.70672,0.80579 -2.43683,2.84168 -1.63104,4.54841 0.80578,1.70678 2.84167,2.43682 4.5484,1.63104 z m 3.10358,-32.95208 c 1.70672,-0.80573 2.43683,-2.84162 1.63104,-4.5484 -0.80579,-1.70673 -2.84167,-2.43677 -4.5484,-1.63105 l -211.06534,99.64618 c -1.70676,0.80579 -2.4368,2.84168 -1.63104,4.5484 0.80579,1.70679 2.84167,2.43683 4.54843,1.63105 z"
         clip-path="url(#325235313429-clipPath1)"
         id="path75"
         inkscape:connector-curvature="0"
         style="stroke:none" />
    </g>
    <g
       font-size="101"
       id="g77"
       style="font-size:101px;font-family:Arial;stroke-width:0.0625;shape-rendering:geometricPrecision;text-rendering:optimizeLegibility">
      <path
         d="m 707.6181,774.01093 219.53315,103.88006 c 1.70605,0.80731 3.74261,0.079 4.54986,-1.62701 0.80731,-1.70606 0.079,-3.74256 -1.62701,-4.54987 L 710.54089,767.83405 c -1.70599,-0.80726 -3.74255,-0.079 -4.5498,1.62707 -0.80731,1.70599 -0.079,3.74255 1.62701,4.54981 z"
         clip-path="url(#325235313429-clipPath1)"
         id="path79"
         inkscape:connector-curvature="0"
         style="stroke:none" />
    </g>
    <g
       font-size="101"
       id="g81"
       style="font-size:101px;font-family:Arial;stroke-width:0.0625;shape-rendering:geometricPrecision;text-rendering:optimizeLegibility">
      <path
         d="m 498.01419,870.56866 -2.84357,1.89423 104.15287,173.29991 0.023,-15.3642 20.5332,0 -119.02191,-161.72416 z"
         clip-path="url(#325235313429-clipPath1)"
         id="path83"
         inkscape:connector-curvature="0"
         style="stroke:none" />
    </g>
    <g
       font-size="101"
       id="g85"
       style="font-size:101px;font-family:Arial;stroke-width:0.0625;shape-rendering:geometricPrecision;text-rendering:optimizeLegibility">
      <path
         d="m 497.92249,867.15314 -176.26755,4.73303 c -1.88672,0.0507 -3.37448,1.62054 -3.32382,3.50726 0.0507,1.88672 1.62054,3.37445 3.50723,3.32379 l 176.26755,-4.73303 c 1.88671,-0.0507 3.37448,-1.62054 3.32382,-3.50726 -0.0507,-1.88666 -1.62052,-3.37445 -3.50723,-3.32379 z"
         clip-path="url(#325235313429-clipPath1)"
         id="path87"
         inkscape:connector-curvature="0"
         style="stroke:none" />
    </g>
    <g
       font-size="101"
       id="g89"
       style="font-size:101px;font-family:Arial;stroke-width:0.0625;shape-rendering:geometricPrecision;text-rendering:optimizeLegibility">
      <path
         d="m 595.94891,1030.3986 234.72907,0 c 7.07776,0 12.81293,-5.7351 12.81293,-12.813 0,-7.0777 -5.73517,-12.8129 -12.81293,-12.8129 l -234.72907,0 c -7.07782,0 -12.81292,5.7352 -12.81292,12.8129 0,7.0779 5.7351,12.813 12.81292,12.813 z"
         clip-path="url(#325235313429-clipPath1)"
         id="path91"
         inkscape:connector-curvature="0"
         style="stroke:none" />
    </g>
    <g
       font-size="101"
       id="g93"
       style="font-size:101px;font-family:Arial;stroke-width:0.0625;shape-rendering:geometricPrecision;text-rendering:optimizeLegibility">
      <path
         d="m 592.53217,1017.5805 -0.17145,114.6198 c -0.003,1.8873 1.52423,3.4191 3.41162,3.4219 1.88739,0 3.41901,-1.5243 3.42187,-3.4116 l 0.17145,-114.6198 c 0.003,-1.8874 -1.52429,-3.4191 -3.41162,-3.4219 -1.88739,0 -3.41907,1.5242 -3.42187,3.4116 z"
         clip-path="url(#325235313429-clipPath1)"
         id="path95"
         inkscape:connector-curvature="0"
         style="stroke:none" />
    </g>
    <g
       font-size="101"
       id="g97"
       style="font-size:101px;font-family:Arial;stroke-width:0.0625;shape-rendering:geometricPrecision;text-rendering:optimizeLegibility">
      <path
         d="m 928.61267,874.80255 -2.81763,-1.93262 -119.44275,157.52867 21.08198,0 0.19335,14.2867 103.80268,-167.95013 z"
         clip-path="url(#325235313429-clipPath1)"
         id="path99"
         inkscape:connector-curvature="0"
         style="stroke:none" />
    </g>
    <g
       font-size="101"
       id="g101"
       style="font-size:101px;font-family:Arial;stroke-width:0.0625;shape-rendering:geometricPrecision;text-rendering:optimizeLegibility">
      <path
         d="m 827.26154,1017.6318 1.61102,119.0525 c 0.0255,1.8872 1.57544,3.3958 3.46265,3.3701 1.8872,-0.025 3.39575,-1.5754 3.37023,-3.4626 l -1.61108,-119.0524 c -0.0255,-1.8872 -1.57544,-3.3957 -3.46265,-3.3702 -1.8872,0.026 -3.39575,1.5754 -3.37017,3.4626 z"
         clip-path="url(#325235313429-clipPath1)"
         id="path103"
         inkscape:connector-curvature="0"
         style="stroke:none" />
    </g>
    <g
       font-size="101"
       id="g105"
       style="font-size:101px;font-family:Arial;stroke-width:0.0625;shape-rendering:geometricPrecision;text-rendering:optimizeLegibility">
      <path
         d="m 932.0293,874.83099 1.40356,-168.73108 c 0.0157,-1.88726 -1.50085,-3.42932 -3.38818,-3.445 -1.88733,-0.0157 -3.42938,1.50085 -3.44507,3.38818 l -1.40357,168.73108 c -0.0157,1.88733 1.50086,3.42932 3.38819,3.44501 1.88733,0.0157 3.42938,-1.50086 3.44507,-3.38819 z"
         clip-path="url(#325235313429-clipPath1)"
         id="path107"
         inkscape:connector-curvature="0"
         style="stroke:none" />
    </g>
    <g
       font-size="101"
       id="g109"
       style="font-size:101px;font-family:Arial;stroke-width:0.0625;shape-rendering:geometricPrecision;text-rendering:optimizeLegibility">
      <path
         d="M 324.54883,873.34674 240.97325,753.55261 c -1.07991,-1.54791 -3.20924,-1.92712 -4.75716,-0.84723 -1.54791,1.07996 -1.92712,3.20929 -0.84721,4.75714 l 83.57558,119.79413 c 1.07992,1.54792 3.20926,1.92719 4.75717,0.84723 1.54791,-1.07989 1.92712,-3.20923 0.8472,-4.75714 z"
         clip-path="url(#325235313429-clipPath1)"
         id="path111"
         inkscape:connector-curvature="0"
         style="stroke:none" />
    </g>
    <g
       font-size="101"
       id="g113"
       style="font-size:101px;font-family:Arial;stroke-width:0.0625;shape-rendering:geometricPrecision;text-rendering:optimizeLegibility">
      <path
         d="m 926.90588,321.60815 -136.70666,78.92762 c -1.63452,0.94369 -2.19428,3.03283 -1.25061,4.66739 0.94372,1.63452 3.03284,2.1943 4.66736,1.25061 l 136.70666,-78.92765 c 1.63458,-0.94369 2.19434,-3.03283 1.25061,-4.66736 -0.94366,-1.63452 -3.03277,-2.1943 -4.66736,-1.25061 z"
         clip-path="url(#325235313429-clipPath1)"
         id="path115"
         inkscape:connector-curvature="0"
         style="stroke:none" />
    </g>
    <g
       font-size="101"
       id="g117"
       style="font-size:101px;font-family:Arial;stroke-width:0.0625;shape-rendering:geometricPrecision;text-rendering:optimizeLegibility">
      <path
         d="m 823.79749,423.35049 c 0,-1.88739 -1.52936,-3.41674 -3.41675,-3.41674 -1.88739,0 -3.41675,1.52935 -3.41675,3.41674 l 0,118.72574 c 0,1.88739 1.52936,3.41675 3.41675,3.41675 1.88739,0 3.41675,-1.52936 3.41675,-3.41675 z m -28.47315,-19.85571 c 0,-1.88739 -1.52936,-3.41675 -3.41675,-3.41675 -1.88739,0 -3.41675,1.52936 -3.41675,3.41675 l 0,157.85526 c 0,1.88739 1.52936,3.41674 3.41675,3.41674 1.88739,0 3.41675,-1.52935 3.41675,-3.41674 z"
         clip-path="url(#325235313429-clipPath1)"
         id="path119"
         inkscape:connector-curvature="0"
         style="stroke:none" />
    </g>
    <g
       font-size="101"
       id="g121"
       style="font-size:101px;font-family:Arial;stroke-width:0.0625;shape-rendering:geometricPrecision;text-rendering:optimizeLegibility">
      <path
         d="m 932.03101,324.56714 0,-99.00275 c 0,-1.88739 -1.52936,-3.41675 -3.41675,-3.41675 -1.88739,0 -3.41675,1.52936 -3.41675,3.41675 l 0,99.00275 c 0,1.88739 1.52936,3.41675 3.41675,3.41675 1.88739,0 3.41675,-1.52936 3.41675,-3.41675 z"
         clip-path="url(#325235313429-clipPath1)"
         id="path123"
         inkscape:connector-curvature="0"
         style="stroke:none" />
    </g>
    <g
       font-size="101"
       id="g125"
       style="font-size:101px;font-family:Arial;stroke-width:0.0625;shape-rendering:geometricPrecision;text-rendering:optimizeLegibility">
      <path
         d="m 930.32263,321.60815 c -1.63452,-0.94369 -3.72363,-0.38391 -4.66736,1.25061 -0.94366,1.63453 -0.38391,3.72367 1.25061,4.66736 l 94.67802,54.66236 c 1.6345,0.94369 3.7236,0.38391 4.6673,-1.25061 0.9437,-1.63453 0.3839,-3.72367 -1.2506,-4.66736 z m 2.95899,34.58634 c -1.63453,-0.9437 -3.72364,-0.38394 -4.66736,1.25061 -0.94367,1.63452 -0.38391,3.72366 1.25067,4.66736 l 77.48237,44.73449 c 1.6345,0.9437 3.7237,0.38392 4.6673,-1.25064 0.9438,-1.63452 0.384,-3.72366 -1.2506,-4.66735 z"
         clip-path="url(#325235313429-clipPath1)"
         id="path127"
         inkscape:connector-curvature="0"
         style="stroke:none" />
    </g>
    <g
       font-size="101"
       id="g129"
       style="font-size:101px;font-family:Arial;stroke-width:0.0625;shape-rendering:geometricPrecision;text-rendering:optimizeLegibility">
      <path
         d="m 1068.7377,561.35004 0,-99.00275 c 0,-1.88739 -1.5293,-3.41675 -3.4168,-3.41675 -1.8873,0 -3.4167,1.52936 -3.4167,3.41675 l 0,99.00275 c 0,1.88739 1.5294,3.41674 3.4167,3.41674 1.8875,0 3.4168,-1.52935 3.4168,-3.41674 z"
         clip-path="url(#325235313429-clipPath1)"
         id="path131"
         inkscape:connector-curvature="0"
         style="stroke:none" />
    </g>
    <g
       font-size="101"
       id="g133"
       style="font-size:101px;font-family:Arial;stroke-width:0.0625;shape-rendering:geometricPrecision;text-rendering:optimizeLegibility">
      <path
         d="m 1067.0293,541.95209 c -1.6345,-0.94373 -3.7236,-0.38391 -4.6674,1.25061 -0.9437,1.63452 -0.3839,3.72363 1.2506,4.66736 l 93.7542,54.12896 c 1.6345,0.94367 3.7236,0.38391 4.6674,-1.25061 0.9437,-1.63458 0.3839,-3.72369 -1.2507,-4.66742 z m -13.5402,25.06048 c -1.6346,-0.94372 -3.7237,-0.38391 -4.6673,1.25061 -0.9437,1.63453 -0.3839,3.7237 1.2506,4.66736 l 93.0577,53.72693 c 1.6345,0.94367 3.7237,0.38391 4.6674,-1.25061 0.9437,-1.63452 0.3839,-3.72369 -1.2506,-4.66736 z"
         clip-path="url(#325235313429-clipPath1)"
         id="path135"
         inkscape:connector-curvature="0"
         style="stroke:none" />
    </g>
    <g
       font-size="101"
       id="g137"
       style="font-size:101px;font-family:Arial;stroke-width:0.0625;shape-rendering:geometricPrecision;text-rendering:optimizeLegibility">
      <path
         d="m 790.10858,564.25476 96.69599,59.88873 c 1.60455,0.99378 3.70996,0.49891 4.70379,-1.10571 0.99378,-1.60455 0.49884,-3.70996 -1.10571,-4.7038 l -96.69598,-59.88867 c -1.60456,-0.99377 -3.71003,-0.4989 -4.7038,1.10565 -0.99378,1.60462 -0.4989,3.71003 1.10571,4.7038 z"
         clip-path="url(#325235313429-clipPath1)"
         id="path139"
         inkscape:connector-curvature="0"
         style="stroke:none" />
    </g>
    <g
       font-size="101"
       id="g141"
       style="font-size:101px;font-family:Arial;stroke-width:0.0625;shape-rendering:geometricPrecision;text-rendering:optimizeLegibility">
      <path
         d="m 974.18903,623.42725 92.96707,-59.19513 c 1.5921,-1.01368 2.0607,-3.12513 1.0469,-4.71723 -1.0137,-1.59204 -3.1251,-2.06067 -4.7172,-1.04693 l -92.967,59.19506 c -1.5921,1.01374 -2.06073,3.12519 -1.047,4.71723 1.01373,1.5921 3.12518,2.06073 4.71723,1.047 z"
         clip-path="url(#325235313429-clipPath1)"
         id="path143"
         inkscape:connector-curvature="0"
         style="stroke:none" />
    </g>
    <g
       font-size="10"
       transform="matrix(5.6376883,0,0,5.6376883,-5033.1567,-5549.2895)"
       id="g145"
       style="font-size:10px;font-family:sans-serif;fill:#ffffff;stroke:#ffffff;stroke-width:0.0625;shape-rendering:geometricPrecision;text-rendering:optimizeLegibility">
      <g
         clip-path="url(#325235313594-clipPath1)"
         style="stroke:none"
         id="text147">
        <path
           d="m 1087.675,1207.5637 -1.1669,0 0,-1.3916 1.1669,0 0,1.3916 z"
           style="stroke:none"
           id="path3512" />
      </g>
    </g>
  </g>
</svg>
