<?xml version="1.0" encoding="utf-8"?>
<!-- Generator: Adobe Illustrator 19.0.0, SVG Export Plug-In . SVG Version: 6.00 Build 0)  -->
<svg version="1.1" id="Layer_1" xmlns="http://www.w3.org/2000/svg" xmlns:xlink="http://www.w3.org/1999/xlink" x="0px" y="0px"
	 viewBox="-276 225.6 86.8 31.4" style="enable-background:new -276 225.6 86.8 31.4;" xml:space="preserve">
<style type="text/css">
	.st0{fill:#333333;}
	.st1{fill:#888888;}
	.st2{fill:#EC5D5D;}
</style>
<g id="XMLID_25_">
	<g>
		<path class="st0" d="M-221.8,235.2c0,2.9-0.8,5.2-2.4,6.8s-3.9,2.4-6.8,2.4h-5.7v-17.6h6.1c2.8,0,5,0.7,6.6,2.2
			C-222.6,230.3-221.8,232.4-221.8,235.2z M-226.7,235.3c0-1.6-0.3-2.8-1-3.6c-0.6-0.8-1.6-1.2-2.9-1.2h-1.4v9.9h1.1
			c1.4,0,2.5-0.4,3.2-1.3C-227.1,238.4-226.7,237.1-226.7,235.3z"/>
		<path class="st0" d="M-210.3,244.4l-0.9-3.3h-5.7l-0.9,3.3h-5.2l5.8-17.7h6.4l5.8,17.7H-210.3z M-212.1,237.2l-0.8-2.9
			c-0.2-0.6-0.4-1.5-0.6-2.5c-0.3-1-0.4-1.8-0.5-2.2c-0.1,0.4-0.2,1.1-0.4,2c-0.2,0.9-0.7,2.8-1.4,5.6L-212.1,237.2L-212.1,237.2z"
			/>
		<path class="st0" d="M-189.7,244.4h-5.5l-3.4-5.5l-3.4,5.5h-5.4l5.9-9l-5.5-8.6h5.3l3.2,5.5l3.1-5.5h5.4l-5.6,9L-189.7,244.4z"/>
	</g>
	<g>
		<path class="st1" d="M-231.2,249.8c0,0.8-0.3,1.5-0.9,1.9s-1.5,0.7-2.6,0.7h-1.4v3.6h-0.6v-8.6h2.3
			C-232.3,247.3-231.2,248.1-231.2,249.8z M-236.2,251.9h1.3c1,0,1.8-0.2,2.3-0.5s0.7-0.8,0.7-1.6c0-0.7-0.2-1.2-0.7-1.5
			c-0.4-0.3-1.1-0.5-2-0.5h-1.5L-236.2,251.9L-236.2,251.9z"/>
		<path class="st1" d="M-221.7,247.3v5.6c0,1-0.3,1.8-0.9,2.3c-0.6,0.6-1.5,0.8-2.6,0.8s-1.9-0.3-2.5-0.8c-0.6-0.6-0.9-1.3-0.9-2.3
			v-5.6h0.7v5.6c0,0.8,0.2,1.5,0.7,1.9c0.5,0.5,1.2,0.7,2.1,0.7s1.6-0.2,2.1-0.7s0.7-1.1,0.7-1.9v-5.6H-221.7z"/>
		<path class="st1" d="M-212.9,255.9h-6.5v-0.4l5.4-7.6h-5.2v-0.6h6.1v0.4l-5.4,7.6h5.6V255.9L-212.9,255.9z"/>
		<path class="st1" d="M-204.8,255.9h-6.5v-0.4l5.4-7.6h-5.2v-0.6h6.1v0.4l-5.4,7.6h5.6L-204.8,255.9L-204.8,255.9z"/>
		<path class="st1" d="M-202.3,255.9v-8.6h0.6v8.1h4.4v0.6h-5V255.9z"/>
		<path class="st1" d="M-189.9,255.9h-5.1v-8.6h5.1v0.6h-4.4v3.3h4.2v0.6h-4.2v3.7h4.4V255.9z"/>
	</g>
	<g>
		<polygon class="st2" points="-245.3,226 -274.5,226 -275.5,226 -275.5,227 -275.5,235.5 -275.5,236.5 -274.5,236.5 -272.6,236.5 
			-271.6,236.5 -271.6,235.5 -271.6,230 -261.9,230 -261.9,246.2 -267.4,246.2 -268.4,246.2 -268.4,247.2 -268.4,249.1 
			-268.4,250.1 -267.4,250.1 -258.9,250.1 -257.9,250.1 -257.9,249.1 -257.9,236.5 -252.4,236.5 -251.4,236.5 -251.4,235.5 
			-251.4,233.5 -251.4,232.5 -252.4,232.5 -257.9,232.5 -257.9,230 -248.2,230 -248.2,249.1 -248.2,250.1 -247.2,250.1 
			-245.3,250.1 -244.3,250.1 -244.3,249.1 -244.3,227 -244.3,226 		"/>
		<polygon class="st2" points="-251.4,252.7 -251.4,240.7 -251.4,239.7 -252.4,239.7 -254.4,239.7 -255.4,239.7 -255.4,240.7 
			-255.4,252.7 -271.6,252.7 -271.6,243 -266.1,243 -265.1,243 -265.1,242 -265.1,233.5 -265.1,232.5 -266.1,232.5 -268,232.5 
			-269,232.5 -269,233.5 -269,239 -274.5,239 -275.5,239 -275.5,240 -275.5,255.6 -275.5,256.6 -274.5,256.6 -245.3,256.6 
			-244.3,256.6 -244.3,255.6 -244.3,253.7 -244.3,252.7 -245.3,252.7 		"/>
	</g>
</g>
</svg>
