<?xml version="1.0" encoding="UTF-8"?>
<svg width="246pt" version="1.1" xmlns="http://www.w3.org/2000/svg" height="215pt" viewBox="0 0 246 215" xmlns:xlink="http://www.w3.org/1999/xlink">
 <defs>
  <clipPath id="Clip0">
   <path d="M0 0 L246 0 L246 215 L0 215 L0 0 Z" transform="translate(0, 0)"/>
  </clipPath>
 </defs>
 <g id="Background">
  <g id="Group1" clip-path="url(#Clip0)">
   <path style="fill:#000000; fill-rule:evenodd;stroke:none;" d="M3.6719 3.5274 L6.1172 0 L5.0157 0 L3.1446 2.8399 L1.2852 0 L0.1602 0 L2.5665 3.5274 L0 7.2422 L1.125 7.2422 L3.1133 4.2227 L5.0938 7.2422 L6.2383 7.2422 L3.6719 3.5274 Z" transform="translate(23.4189, 54.3574)"/>
   <path style="fill:#000000; fill-rule:evenodd;stroke:none;" d="M3.7227 4.4024 L6.4492 0 L5.3438 0 L3.2735 3.5274 L1.1445 0 L0 0 L2.7969 4.4024 L2.7969 7.2422 L3.7227 7.2422 L3.7227 4.4024 Z" transform="translate(49.2285, 39.3574)"/>
   <path style="fill:#000000; fill-rule:nonzero;stroke:none;" d="M1.5498 24.4502 L0 24.4502 L0 0.2998 L0.7998 0 L1.5498 1.3496 L1.5498 24.4502 Z" transform="translate(25.5498, 28)"/>
   <path style="fill:#000000; fill-rule:nonzero;stroke:none;" d="M14.4004 0 L15.2002 1.3506 L0.75 9.7002 L0 8.3506 L14.4004 0 Z" transform="translate(31.8496, 45.5996)"/>
   <path style="fill:#000000; fill-rule:nonzero;stroke:none;" d="M14.3994 0 L15.1992 1.3496 L0.75 9.7002 L0 8.3496 L14.3994 0 Z" transform="translate(29.9004, 42.2002)"/>
   <path style="fill:#000000; fill-rule:nonzero;stroke:none;" d="M0.75 2.0498 L0 0.7002 L0.4004 0 L20.75 11.7998 L20 13.1504 L0.75 2.0498 Z" transform="translate(26.3496, 27.2998)"/>
   <path style="fill:none;stroke:#000000; stroke-width:1.25; stroke-linecap:butt; stroke-linejoin:miter; stroke-dasharray:none;" d="M33.75 0 L0 0 " transform="translate(94, 38.6504)"/>
   <path style="fill:none;stroke:#000000; stroke-width:1.25; stroke-linecap:butt; stroke-linejoin:miter; stroke-dasharray:none;" d="M0 0 L33.75 0 " transform="translate(105.25, 43.3496)"/>
   <path style="fill:#000000; fill-rule:nonzero;stroke:none;" d="M15.6 4.7998 L0 0 C0 0 1.95 2.25 1.95 4.7998 L15.6 4.7998 L15.6 4.7998 " transform="translate(125.75, 34.6504)"/>
   <path style="fill:#000000; fill-rule:nonzero;stroke:none;" d="M0 0 L13.6496 0 C13.6496 1 15.5996 4.7998 15.5996 4.7998 L0 0 L0 0 " transform="translate(91.6504, 42.5498)"/>
   <path style="fill:#000000; fill-rule:evenodd;stroke:none;" d="M0.92578 4.1211 L3.3125 4.1211 C4.13672 4.1211 4.50781 4.51953 4.50781 5.41406 L4.4961 6.0586 C4.4961 6.50781 4.57422 6.94528 4.70703 7.24218 L5.82813 7.24218 L5.82813 7.01558 C5.48047 6.77344 5.41016 6.51563 5.39063 5.55469 C5.38281 4.36328 5.19141 4.00391 4.40625 3.66797 C5.22266 3.25781 5.55078 2.77344 5.55078 1.9375 C5.55078 0.6875 4.77344 0 3.34375 0 L0 0 L0 7.24218 L0.92578 7.24218 L0.92578 4.1211 Z M0.92578 3.3086 L0.92578 0.81641 L3.16406 0.81641 C3.67969 0.81641 3.98047 0.89453 4.20703 1.09375 C4.45703 1.30078 4.58594 1.62891 4.58594 2.0586 C4.58594 2.92188 4.14844 3.3086 3.16406 3.3086 L0.92578 3.3086 Z" transform="translate(3.07617, 3.10742)"/>
   <path style="fill:#000000; fill-rule:nonzero;stroke:none;" d="M0 1.0996 L1.1006 0 L17.1006 16 L16.5498 16.5498 L15.75 16.8496 L0 1.0996 Z" transform="translate(9.7998, 11.4502)"/>
   <path style="fill:#000000; fill-rule:evenodd;stroke:none;" d="M3.672 3.5274 L6.118 0 L5.016 0 L3.145 2.8399 L1.286 0 L0.161 0 L2.567 3.5274 L0 7.2422 L1.125 7.2422 L3.114 4.2227 L5.094 7.2422 L6.239 7.2422 L3.672 3.5274 Z" transform="translate(207.068, 32.3574)"/>
   <path style="fill:#000000; fill-rule:nonzero;stroke:none;" d="M26.8 0 L26.8 1.5996 L0 1.5996 L0 0 L26.8 0 Z" transform="translate(178.05, 33.25)"/>
   <path style="fill:#000000; fill-rule:nonzero;stroke:none;" d="M26.8 0 L26.8 1.5996 L0 1.5996 L0 0 L26.8 0 Z" transform="translate(178.05, 37.1504)"/>
   <path style="fill:#000000; fill-rule:evenodd;stroke:none;" d="M3.722 4.4024 L6.449 0 L5.343 0 L3.273 3.5274 L1.144 0 L0 0 L2.797 4.4024 L2.797 7.2422 L3.722 7.2422 L3.722 4.4024 Z" transform="translate(236.929, 32.3574)"/>
   <path style="fill:#000000; fill-rule:nonzero;stroke:none;" d="M19.3 0 L19.3 1.5996 L0 1.5996 L0 0 L19.3 0 Z" transform="translate(215.5, 33.25)"/>
   <path style="fill:#000000; fill-rule:nonzero;stroke:none;" d="M19.3 0 L19.3 1.5996 L0 1.5996 L0 0 L19.3 0 Z" transform="translate(215.5, 37.1504)"/>
   <path style="fill:#000000; fill-rule:evenodd;stroke:none;" d="M0.925 4.1211 L3.312 4.1211 C4.136 4.1211 4.507 4.5196 4.507 5.4141 L4.496 6.0586 C4.496 6.5078 4.574 6.9453 4.707 7.2422 L5.828 7.2422 L5.828 7.0156 C5.48 6.7735 5.41 6.5156 5.39 5.5547 C5.382 4.3633 5.191 4.0039 4.406 3.668 C5.222 3.2578 5.55 2.7735 5.55 1.9375 C5.55 0.6875 4.773 0 3.343 0 L0 0 L0 7.2422 L0.925 7.2422 L0.925 4.1211 Z M0.925 3.3086 L0.925 0.8164 L3.164 0.8164 C3.679 0.8164 3.98 0.8946 4.207 1.0938 C4.457 1.3008 4.586 1.6289 4.586 2.0586 C4.586 2.9219 4.148 3.3086 3.164 3.3086 L0.925 3.3086 Z" transform="translate(156.726, 11.1074)"/>
   <path style="fill:#000000; fill-rule:nonzero;stroke:none;" d="M0 1.0996 L1.1 0 L17.65 16.5498 L15.45 16.5498 L0 1.0996 Z" transform="translate(163.45, 19.4502)"/>
   <path style="fill:none;stroke:#000000; stroke-width:1.25; stroke-linecap:butt; stroke-linejoin:miter; stroke-dasharray:none;" d="M0 27.75 L0 0 " transform="translate(37.3496, 91)"/>
   <path style="fill:none;stroke:#000000; stroke-width:1.25; stroke-linecap:butt; stroke-linejoin:miter; stroke-dasharray:none;" d="M0 0 L0 27.75 " transform="translate(32.6504, 102.25)"/>
   <path style="fill:#000000; fill-rule:nonzero;stroke:none;" d="M0 15.6 L4.75 0 C4.75 0 2.5 1.95 0 1.95 L0 15.6 L0 15.6 " transform="translate(36.5498, 116.75)"/>
   <path style="fill:#000000; fill-rule:nonzero;stroke:none;" d="M4.75 0 L4.75 13.6496 C3.7998 13.6496 0 15.5996 0 15.5996 L4.75 0 L4.75 0 " transform="translate(28.7002, 88.6504)"/>
   <path style="fill:#000000; fill-rule:evenodd;stroke:none;" d="M0.92578 4.122 L3.31252 4.122 C4.13672 4.122 4.50782 4.52 4.50782 5.414 L4.49612 6.059 C4.49612 6.508 4.57422 6.946 4.70702 7.243 L5.82812 7.243 L5.82812 7.016 C5.48052 6.774 5.41012 6.516 5.39062 5.555 C5.38282 4.364 5.19142 4.004 4.40622 3.668 C5.22262 3.258 5.55082 2.774 5.55082 1.938 C5.55082 0.688 4.77342 0 3.34372 0 L0 0 L0 7.243 L0.92578 7.243 L0.92578 4.122 Z M0.92578 3.309 L0.92578 0.817 L3.16402 0.817 C3.67972 0.817 3.98052 0.895 4.20702 1.094 C4.45702 1.301 4.58592 1.629 4.58592 2.059 C4.58592 2.922 4.14842 3.309 3.16402 3.309 L0.92578 3.309 Z" transform="translate(6.92578, 162.357)"/>
   <path style="fill:#000000; fill-rule:nonzero;stroke:none;" d="M17.6494 16.55 L15.4492 16.55 L0 1.1 L1.0996 0 L17.6494 16.55 Z" transform="translate(13.6504, 170.65)"/>
   <path style="fill:#000000; fill-rule:evenodd;stroke:none;" d="M3.6718 3.528 L6.1171 0 L5.0156 0 L3.1445 2.84 L1.2851 0 L0.1601 0 L2.5664 3.528 L0 7.243 L1.125 7.243 L3.1132 4.223 L5.0937 7.243 L6.2382 7.243 L3.6718 3.528 Z" transform="translate(59.0684, 198.357)"/>
   <path style="fill:#000000; fill-rule:evenodd;stroke:none;" d="M3.7227 4.403 L6.4492 0 L5.3438 0 L3.2734 3.528 L1.1445 0 L0 0 L2.7969 4.403 L2.7969 7.243 L3.7227 7.243 L3.7227 4.403 Z" transform="translate(80.1289, 177.107)"/>
   <path style="fill:#000000; fill-rule:nonzero;stroke:none;" d="M11.5 0 L12.6006 1.1 L1.1006 12.65 L0 11.55 L11.5 0 Z" transform="translate(63.5996, 182.25)"/>
   <path style="fill:#000000; fill-rule:nonzero;stroke:none;" d="M11.5508 0 L12.6504 1.1 L1.1006 12.65 L0 11.55 L11.5508 0 Z" transform="translate(66.3496, 185)"/>
   <path style="fill:#000000; fill-rule:nonzero;stroke:none;" d="M11.5508 0 L12.6504 1.1 L1.1006 12.6 L0 11.5 L11.5508 0 Z" transform="translate(69.0996, 187.8)"/>
   <path style="fill:#000000; fill-rule:evenodd;stroke:none;" d="M4.65629 3.945 L4.65629 7.242 L5.58199 7.242 L5.58199 0 L4.65629 0 L4.65629 3.129 L0.92578 3.129 L0.92578 0 L0 0 L0 7.242 L0.9375 7.242 L0.9375 3.945 L4.65629 3.945 Z" transform="translate(6.97461, 204.758)"/>
   <path style="fill:#000000; fill-rule:nonzero;stroke:none;" d="M1.0996 16.55 L0 15.45 L15.4492 0 L17.6494 0 L1.0996 16.55 Z" transform="translate(13.6504, 187.2)"/>
   <path style="fill:#000000; fill-rule:nonzero;stroke:none;" d="M4.7998 2.4 C4.7998 3.726 3.7256 4.8 2.4004 4.8 C1.0752 4.8 0 3.726 0 2.4 C0 1.075 1.0752 0 2.4004 0 C3.7256 0 4.7998 1.075 4.7998 2.4 Z" transform="translate(34.75, 190.5)"/>
   <path style="fill:#000000; fill-rule:nonzero;stroke:none;" d="M4.7998 2.4 C4.7998 3.725 3.7256 4.8 2.4004 4.8 C1.0752 4.8 0 3.725 0 2.4 C0 1.075 1.0752 0 2.4004 0 C3.7256 0 4.7998 1.075 4.7998 2.4 Z" transform="translate(34.5, 179.8)"/>
   <path style="fill:#000000; fill-rule:evenodd;stroke:none;" d="M4.657 3.9453 L4.657 7.2422 L5.582 7.2422 L5.582 0 L4.657 0 L4.657 3.1289 L0.926 3.1289 L0.926 0 L0 0 L0 7.2422 L0.938 7.2422 L0.938 3.9453 L4.657 3.9453 Z" transform="translate(156.774, 53.5576)"/>
   <path style="fill:#000000; fill-rule:nonzero;stroke:none;" d="M1.1 16.5498 L0 15.4502 L15.45 0 L17.65 0 L1.1 16.5498 Z" transform="translate(163.45, 36)"/>
   <path style="fill:#000000; fill-rule:evenodd;stroke:none;" d="M9.644 0 L6.3 0 L6.3 0.27 C7.058 0.297 7.281 0.395 7.281 0.719 C7.281 0.93 7.14 1.168 6.718 1.688 L5.132 3.629 L4.543 2.797 C3.683 1.59 3.347 1 3.347 0.692 C3.347 0.411 3.558 0.297 4.019 0.282 L4.414 0.27 L4.414 0 L0.168 0 L0.168 0.27 C1.097 0.309 1.32 0.52 2.714 2.477 L4.246 4.727 L2.039 7.438 C0.789 8.93 0.718 8.985 0 9.043 L0 9.309 L3.277 9.309 L3.277 9.043 C2.461 8.985 2.207 8.872 2.207 8.551 C2.207 8.34 2.418 7.989 2.937 7.34 L4.613 5.258 L5.949 7.227 C6.441 7.946 6.664 8.379 6.664 8.606 C6.664 8.872 6.441 9 5.961 9.012 L5.582 9.043 L5.582 9.309 L9.757 9.309 L9.757 9.043 C9.011 8.957 8.8 8.817 8.195 8 L5.496 4.149 L7.55 1.59 C8.464 0.493 8.746 0.325 9.644 0.27 L9.644 0 Z" transform="translate(151.141, 138.691)"/>
   <path style="fill:#000000; fill-rule:evenodd;stroke:none;" d="M7.086 0 L0 0 L0 0.926 L7.086 0.926 L7.086 0 Z M7.086 2.813 L0 2.813 L0 3.739 L7.086 3.739 L7.086 2.813 Z" transform="translate(165.029, 142.574)"/>
   <path style="fill:#000000; fill-rule:evenodd;stroke:none;" d="M9.773 0 L6.469 0 L6.469 0.27 C7.004 0.309 7.199 0.368 7.41 0.493 C7.691 0.692 7.816 1.196 7.816 2.067 L7.816 6.805 L2.406 0 L0 0 L0 0.27 C0.605 0.27 0.801 0.379 1.363 1.043 L1.363 7.243 C1.363 8.692 1.168 8.957 0 9.043 L0 9.309 L3.305 9.309 L3.305 9.043 C2.223 8.985 1.984 8.661 1.984 7.243 L1.984 1.731 L8.199 9.465 L8.437 9.465 L8.437 2.067 C8.437 1.223 8.578 0.704 8.844 0.52 C9.043 0.379 9.238 0.325 9.773 0.27 L9.773 0 Z" transform="translate(176.171, 138.691)"/>
   <path style="fill:#000000; fill-rule:evenodd;stroke:none;" d="M0.379 3.418 C1.321 2.954 1.954 2.094 1.954 1.25 C1.954 0.547 1.461 0 0.829 0 C0.336 0 0 0.325 0 0.801 C0 1.25 0.309 1.52 0.829 1.52 C0.926 1.52 1.012 1.504 1.094 1.489 C1.18 1.461 1.18 1.461 1.207 1.461 C1.321 1.461 1.407 1.547 1.407 1.661 C1.407 2.11 1.012 2.629 0.25 3.149 L0.379 3.418 Z" transform="translate(186.899, 146.566)"/>
   <path style="fill:#000000; fill-rule:evenodd;stroke:none;" d="M8.324 3.164 L8.195 0 L7.902 0 C7.816 0.293 7.59 0.465 7.308 0.465 C7.183 0.465 6.988 0.422 6.762 0.336 C6.074 0.113 5.371 0 4.711 0 C3.598 0 2.5 0.395 1.644 1.098 C0.574 1.981 0 3.317 0 4.922 C0 7.789 1.867 9.699 4.668 9.699 C6.254 9.699 7.66 9.055 8.504 7.914 L8.254 7.66 C7.211 8.66 6.285 9.082 5.117 9.082 C4.273 9.082 3.516 8.828 2.922 8.336 C2.094 7.649 1.629 6.383 1.629 4.75 C1.629 2.192 2.937 0.563 4.976 0.563 C5.793 0.563 6.508 0.856 7.07 1.406 C7.519 1.856 7.73 2.25 8 3.164 L8.324 3.164 Z" transform="translate(193.505, 138.496)"/>
   <path style="fill:#000000; fill-rule:evenodd;stroke:none;" d="M9.574 0 L6.496 0 L6.496 0.27 C7.226 0.281 7.464 0.395 7.464 0.731 C7.464 0.887 7.41 1.043 7.269 1.254 L5.257 4.43 L3.179 1.309 C3.023 1.082 2.937 0.86 2.937 0.692 C2.937 0.422 3.136 0.309 3.586 0.281 L3.937 0.27 L3.937 0 L0 0 L0 0.27 C0.675 0.297 0.871 0.481 2.277 2.477 L4.121 5.176 L4.121 7.621 C4.121 8.844 3.98 8.985 2.699 9.043 L2.699 9.309 L7.004 9.309 L7.004 9.043 C5.75 9.012 5.554 8.844 5.554 7.778 L5.554 5.047 L7.636 1.871 C8.492 0.621 8.859 0.324 9.574 0.27 L9.574 0 Z" transform="translate(151.309, 152.741)"/>
   <path style="fill:#000000; fill-rule:evenodd;stroke:none;" d="M7.086 0 L0 0 L0 0.926 L7.086 0.926 L7.086 0 Z M7.086 2.813 L0 2.813 L0 3.738 L7.086 3.738 L7.086 2.813 Z" transform="translate(165.029, 156.624)"/>
   <path style="fill:#000000; fill-rule:evenodd;stroke:none;" d="M9.773 0 L6.469 0 L6.469 0.27 C7.004 0.309 7.199 0.367 7.41 0.492 C7.691 0.692 7.816 1.196 7.816 2.067 L7.816 6.805 L2.406 0 L0 0 L0 0.27 C0.605 0.27 0.801 0.379 1.363 1.043 L1.363 7.242 C1.363 8.692 1.168 8.957 0 9.043 L0 9.309 L3.305 9.309 L3.305 9.043 C2.223 8.985 1.984 8.66 1.984 7.242 L1.984 1.731 L8.199 9.465 L8.437 9.465 L8.437 2.067 C8.437 1.223 8.578 0.703 8.844 0.52 C9.043 0.379 9.238 0.324 9.773 0.27 L9.773 0 Z" transform="translate(176.171, 152.741)"/>
   <path style="fill:#000000; fill-rule:evenodd;stroke:none;" d="M0.379 3.418 C1.321 2.953 1.954 2.094 1.954 1.25 C1.954 0.547 1.461 0 0.829 0 C0.336 0 0 0.324 0 0.801 C0 1.25 0.309 1.52 0.829 1.52 C0.926 1.52 1.012 1.504 1.094 1.488 C1.18 1.461 1.18 1.461 1.207 1.461 C1.321 1.461 1.407 1.547 1.407 1.66 C1.407 2.11 1.012 2.629 0.25 3.149 L0.379 3.418 Z" transform="translate(186.899, 160.616)"/>
   <path style="fill:#000000; fill-rule:evenodd;stroke:none;" d="M4.598 0 C1.914 0 0 2.012 0 4.851 C0 6.101 0.422 7.351 1.113 8.168 C1.914 9.109 3.223 9.699 4.516 9.699 C7.285 9.699 9.195 7.746 9.195 4.906 C9.195 3.57 8.816 2.418 8.113 1.59 C7.242 0.562 5.992 0 4.598 0 Z M4.598 0.504 C6.453 0.504 7.594 2.18 7.594 4.891 C7.594 5.723 7.426 6.691 7.129 7.422 C7.004 7.773 6.766 8.125 6.441 8.449 C5.949 8.941 5.316 9.195 4.57 9.195 C3.965 9.195 3.363 8.969 2.871 8.562 C2.082 7.914 1.605 6.508 1.605 4.879 C1.605 3.5 1.969 2.164 2.519 1.488 C3.051 0.855 3.797 0.504 4.598 0.504 Z" transform="translate(193.587, 152.546)"/>
   <path style="fill:#000000; fill-rule:evenodd;stroke:none;" d="M6.7227 9.391 C5.9648 9.25 5.8789 9.137 5.8789 8.168 L5.8789 5.372 C5.8789 3.879 5.3008 3.133 4.1484 3.133 C3.3047 3.133 2.7305 3.473 2.082 4.317 L2.082 0.04 L2.0117 0 C1.5195 0.168 1.1953 0.266 0.3945 0.504 L0.0156 0.618 L0.0156 0.844 C0.0703 0.829 0.1016 0.829 0.1836 0.829 C0.7891 0.829 0.9023 0.942 0.9023 1.547 L0.9023 8.168 C0.9023 9.153 0.8164 9.278 0 9.391 L0 9.602 L3.0391 9.602 L3.0391 9.391 C2.2227 9.305 2.082 9.137 2.082 8.168 L2.082 4.778 C2.6875 4.133 3.0938 3.895 3.6445 3.895 C4.3477 3.895 4.6992 4.399 4.6992 5.383 L4.6992 8.168 C4.6992 9.137 4.5586 9.305 3.7422 9.391 L3.7422 9.602 L6.7227 9.602 L6.7227 9.391 Z" transform="translate(52.125, 102.398)"/>
   <path style="fill:#000000; fill-rule:evenodd;stroke:none;" d="M0 0.758 C0.8008 0.77 0.8281 0.801 1.1641 1.645 L3.4297 7.395 L3.8516 7.395 C4.0625 6.844 4.1875 6.551 4.2852 6.34 C4.5391 5.82 4.707 5.481 4.793 5.297 L5.6211 3.754 C6.4648 2.176 6.8047 1.348 6.8047 0.84 C6.8047 0.379 6.4375 0 5.9883 0 C5.582 0 5.2422 0.352 5.2422 0.785 C5.2422 0.84 5.2578 0.926 5.2695 1.012 C5.4531 1.91 5.4805 2.066 5.4805 2.289 C5.4805 2.668 5.3711 3.008 5.0313 3.625 L4.0625 5.508 L1.8828 0 C1.25 0.211 0.6875 0.32 0 0.352 L0 0.758 Z" transform="translate(58.875, 104.789)"/>
   <path style="fill:#000000; fill-rule:evenodd;stroke:none;" d="M0 9.672 L8.46096 9.672 L4.51176 0 L0 9.672 Z M0.99609 8.953 L3.99216 2.516 L6.64846 8.953 L0.99609 8.953 Z" transform="translate(8.08594, 102.328)"/>
  </g>
 </g>
</svg>
