<?xml version="1.0" encoding="UTF-8"?>
<svg width="336pt" version="1.1" xmlns="http://www.w3.org/2000/svg" height="180pt" viewBox="0 0 336 180" xmlns:xlink="http://www.w3.org/1999/xlink">
 <defs>
  <clipPath id="Clip0">
   <path d="M0 0 L336 0 L336 180 L0 180 L0 0 Z" transform="translate(0, 0)"/>
  </clipPath>
 </defs>
 <g id="Background">
  <g id="Group1" clip-path="url(#Clip0)">
   <path style="fill:#000000; fill-rule:evenodd;stroke:none;" d="M3.51 0 C1.42 0 0 1.54 0 3.82 C0 6.1 1.42 7.64 3.52 7.64 C4.4 7.64 5.19 7.37 5.78 6.87 C6.57 6.2 7.04 5.07 7.04 3.88 C7.04 1.53 5.65 0 3.51 0 Z M3.51 0.82 C5.09 0.82 6.11 2.02 6.11 3.86 C6.11 5.62 5.06 6.82 3.52 6.82 C1.97 6.82 0.93 5.62 0.93 3.82 C0.93 2.02 1.97 0.82 3.51 0.82 Z" transform="translate(162.88, 116.34)"/>
   <path style="fill:#000000; fill-rule:evenodd;stroke:none;" d="M4.04 1.61 C4.03 0.58 3.35 0 2.14 0 C0.92 0 0.13 0.63 0.13 1.6 C0.13 2.42 0.55 2.81 1.79 3.11 L2.57 3.3 C3.15 3.44 3.38 3.65 3.38 4.03 C3.38 4.52 2.89 4.85 2.16 4.85 C1.71 4.85 1.33 4.72 1.12 4.5 C0.99 4.35 0.93 4.2 0.88 3.83 L0 3.83 C0.04 5.04 0.72 5.62 2.09 5.62 C3.41 5.62 4.25 4.97 4.25 3.96 C4.25 3.18 3.81 2.75 2.77 2.5 L1.97 2.31 C1.29 2.15 1 1.93 1 1.56 C1 1.08 1.43 0.77 2.11 0.77 C2.78 0.77 3.14 1.06 3.16 1.61 L4.04 1.61 Z" transform="translate(170.84, 118.36)"/>
   <path style="fill:#000000; fill-rule:evenodd;stroke:none;" d="M6.14 2.3799 C5.85 0.7803 4.93 0 3.33 0 C2.35 0 1.56 0.3106 1.02 0.9102 C0.36 1.6299 0 2.67 0 3.8506 C0 5.0502 0.37 6.0802 1.06 6.7902 C1.62 7.3702 2.34 7.6402 3.29 7.6402 C5.07 7.6402 6.07 6.6802 6.29 4.75 L5.33 4.75 C5.25 5.2502 5.15 5.5902 5 5.8802 C4.7 6.4802 4.08 6.8202 3.3 6.8202 C1.85 6.8202 0.93 5.6602 0.93 3.8399 C0.93 1.9698 1.81 0.8204 3.22 0.8204 C3.81 0.8204 4.36 1 4.66 1.2803 C4.93 1.5303 5.08 1.8399 5.19 2.3799 L6.14 2.3799 Z" transform="translate(144.98, 95.0898)"/>
   <path style="fill:#000000; fill-rule:evenodd;stroke:none;" d="M3.51 0 C1.42 0 0 1.54 0 3.82 C0 6.1 1.42 7.64 3.52 7.64 C4.4 7.64 5.19 7.37 5.78 6.87 C6.57 6.2 7.04 5.07 7.04 3.88 C7.04 1.53 5.65 0 3.51 0 Z M3.51 0.82 C5.09 0.82 6.11 2.02 6.11 3.86 C6.11 5.62 5.06 6.82 3.52 6.82 C1.97 6.82 0.93 5.62 0.93 3.82 C0.93 2.02 1.97 0.82 3.51 0.82 Z" transform="translate(120.63, 116.34)"/>
   <path style="fill:#000000; fill-rule:evenodd;stroke:none;" d="M4.04 1.61 C4.03 0.58 3.35 0 2.14 0 C0.92 0 0.13 0.63 0.13 1.6 C0.13 2.42 0.55 2.81 1.79 3.11 L2.57 3.3 C3.15 3.44 3.38 3.65 3.38 4.03 C3.38 4.52 2.89 4.85 2.16 4.85 C1.71 4.85 1.33 4.72 1.12 4.5 C0.99 4.35 0.93 4.2 0.88 3.83 L0 3.83 C0.04 5.04 0.72 5.62 2.09 5.62 C3.41 5.62 4.25 4.97 4.25 3.96 C4.25 3.18 3.81 2.75 2.77 2.5 L1.97 2.31 C1.29 2.15 1 1.93 1 1.56 C1 1.08 1.43 0.77 2.11 0.77 C2.78 0.77 3.14 1.06 3.16 1.61 L4.04 1.61 Z" transform="translate(128.34, 118.36)"/>
   <path style="fill:#000000; fill-rule:evenodd;stroke:none;" d="M6.14 2.38 C5.85 0.78 4.93 0 3.33 0 C2.35 0 1.56 0.31 1.02 0.91 C0.36 1.63 0 2.67 0 3.85 C0 5.05 0.37 6.08 1.06 6.79 C1.62 7.37 2.34 7.64 3.29 7.64 C5.07 7.64 6.07 6.68 6.29 4.75 L5.33 4.75 C5.25 5.25 5.15 5.59 5 5.88 C4.7 6.48 4.08 6.82 3.3 6.82 C1.85 6.82 0.93 5.66 0.93 3.84 C0.93 1.97 1.81 0.82 3.22 0.82 C3.81 0.82 4.36 1 4.66 1.28 C4.93 1.53 5.08 1.84 5.19 2.38 L6.14 2.38 Z" transform="translate(144.98, 137.59)"/>
   <path style="fill:#000000; fill-rule:nonzero;stroke:none;" d="M0 0.7 L0.7 0 L12.35 11.65 L11.65 12.35 L0 0.7 Z" transform="translate(151.75, 102.75)"/>
   <path style="fill:#000000; fill-rule:nonzero;stroke:none;" d="M0.7 13.55 L0 12.85 L12.8 0 L13.55 0.7 L0.7 13.55 Z" transform="translate(130.8, 102.25)"/>
   <path style="fill:#000000; fill-rule:nonzero;stroke:none;" d="M12.45 11.7 L11.7 12.4 L0 0.7 L0.7 0 L12.45 11.7 Z" transform="translate(132.1, 125.55)"/>
   <path style="fill:#000000; fill-rule:nonzero;stroke:none;" d="M11.55 0 L12.25 0.7 L0.7 12.25 L0 11.55 L11.55 0 Z" transform="translate(151.65, 125.1)"/>
   <path style="fill:#000000; fill-rule:evenodd;stroke:none;" d="M6.1395 2.38 C5.8496 0.78 4.9297 0 3.3291 0 C2.3496 0 1.5595 0.31 1.0195 0.91 C0.3593 1.63 0 2.67 0 3.85 C0 5.05 0.3691 6.08 1.0595 6.79 C1.6191 7.37 2.3398 7.64 3.289 7.64 C5.0693 7.64 6.0695 6.68 6.2895 4.75 L5.3291 4.75 C5.25 5.25 5.1494 5.59 5 5.88 C4.6992 6.48 4.0791 6.82 3.2998 6.82 C1.8496 6.82 0.9297 5.66 0.9297 3.84 C0.9297 1.97 1.8095 0.82 3.2197 0.82 C3.8095 0.82 4.3593 1 4.6591 1.28 C4.9297 1.53 5.0791 1.84 5.1894 2.38 L6.1395 2.38 Z" transform="translate(93.9805, 116.34)"/>
   <path style="fill:#000000; fill-rule:nonzero;stroke:none;" d="M0 1 L0 0 L16.4 0 L16.4 1 L0 1 Z" transform="translate(102.15, 119.5)"/>
   <path style="fill:#000000; fill-rule:evenodd;stroke:none;" d="M3.5097 0 C1.4199 0 0 1.5401 0 3.8204 C0 6.1002 1.4199 7.6402 3.5205 7.6402 C4.4004 7.6402 5.1904 7.3702 5.7803 6.8702 C6.5703 6.2002 7.04 5.0702 7.04 3.8799 C7.04 1.5303 5.6504 0 3.5097 0 Z M3.5097 0.8204 C5.0898 0.8204 6.1103 2.0206 6.1103 3.8604 C6.1103 5.6202 5.0605 6.8202 3.5205 6.8202 C1.9697 6.8202 0.9297 5.6202 0.9297 3.8204 C0.9297 2.0206 1.9697 0.8204 3.5097 0.8204 Z" transform="translate(69.3799, 95.0898)"/>
   <path style="fill:#000000; fill-rule:evenodd;stroke:none;" d="M4.0401 1.6093 C4.0303 0.58 3.3506 0 2.1407 0 C0.92 0 0.1299 0.6298 0.1299 1.5996 C0.1299 2.4199 0.5498 2.8095 1.7901 3.1096 L2.5704 3.2996 C3.1504 3.4396 3.3799 3.6496 3.3799 4.0296 C3.3799 4.5196 2.8907 4.8496 2.1602 4.8496 C1.71 4.8496 1.3301 4.7196 1.1202 4.4996 C0.9903 4.3496 0.9297 4.1996 0.8799 3.8296 L0 3.8296 C0.0401 5.0396 0.7198 5.6196 2.0899 5.6196 C3.4102 5.6196 4.25 4.9696 4.25 3.9596 C4.25 3.1796 3.8106 2.75 2.7706 2.5 L1.9698 2.3095 C1.2901 2.1494 1 1.9296 1 1.5595 C1 1.08 1.4297 0.7695 2.1104 0.7695 C2.7803 0.7695 3.1407 1.0595 3.1602 1.6093 L4.0401 1.6093 Z" transform="translate(77.0898, 97.1104)"/>
   <path style="fill:#000000; fill-rule:nonzero;stroke:none;" d="M0 0.75 L0.6992 0 L12.3994 11.75 L11.6992 12.45 L0 0.75 Z" transform="translate(80.9004, 104.3)"/>
   <path style="fill:#000000; fill-rule:evenodd;stroke:none;" d="M6.14 2.38 C5.85 0.78 4.93 0 3.33 0 C2.35 0 1.56 0.31 1.02 0.91 C0.36 1.63 0 2.67 0 3.85 C0 5.05 0.37 6.08 1.06 6.79 C1.62 7.37 2.34 7.64 3.29 7.64 C5.07 7.64 6.07 6.68 6.29 4.75 L5.33 4.75 C5.25 5.25 5.15 5.59 5 5.88 C4.7 6.48 4.08 6.82 3.3 6.82 C1.85 6.82 0.93 5.66 0.93 3.84 C0.93 1.97 1.81 0.82 3.22 0.82 C3.81 0.82 4.36 1 4.66 1.28 C4.93 1.53 5.08 1.84 5.19 2.38 L6.14 2.38 Z" transform="translate(196.23, 116.34)"/>
   <path style="fill:#000000; fill-rule:nonzero;stroke:none;" d="M17.3 0 L17.3 1 L0 1 L0 0 L17.3 0 Z" transform="translate(177, 119.5)"/>
   <path style="fill:#000000; fill-rule:evenodd;stroke:none;" d="M6.1396 2.38 C5.8496 0.78 4.9297 0 3.3291 0 C2.3496 0 1.5595 0.31 1.0195 0.91 C0.3593 1.63 0 2.67 0 3.85 C0 5.05 0.3691 6.08 1.0595 6.79 C1.6191 7.37 2.3398 7.64 3.289 7.64 C5.0693 7.64 6.0693 6.68 6.289 4.75 L5.3291 4.75 C5.25 5.25 5.1494 5.59 5 5.88 C4.6992 6.48 4.0791 6.82 3.2998 6.82 C1.8496 6.82 0.9297 5.66 0.9297 3.84 C0.9297 1.97 1.8095 0.82 3.2197 0.82 C3.8095 0.82 4.3593 1 4.6591 1.28 C4.9297 1.53 5.0791 1.84 5.1894 2.38 L6.1396 2.38 Z" transform="translate(43.7305, 102.84)"/>
   <path style="fill:#000000; fill-rule:nonzero;stroke:none;" d="M0.25 5.15 L0 4.15 L15.6006 0 L15.8506 0.95 L0.25 5.15 Z" transform="translate(51.8496, 100.4)"/>
   <path style="fill:#000000; fill-rule:evenodd;stroke:none;" d="M6.1396 2.38 C5.8496 0.78 4.9297 0 3.3291 0 C2.3496 0 1.5595 0.31 1.0195 0.91 C0.3593 1.63 0 2.67 0 3.85 C0 5.05 0.3691 6.08 1.0595 6.79 C1.6191 7.37 2.3398 7.64 3.289 7.64 C5.0693 7.64 6.0693 6.68 6.289 4.75 L5.3291 4.75 C5.25 5.25 5.1494 5.59 5 5.88 C4.6992 6.48 4.0791 6.82 3.2998 6.82 C1.8496 6.82 0.9297 5.66 0.9297 3.84 C0.9297 1.97 1.8095 0.82 3.2197 0.82 C3.8095 0.82 4.3593 1 4.6591 1.28 C4.9297 1.53 5.0791 1.84 5.1894 2.38 L6.1396 2.38 Z" transform="translate(14.7305, 110.59)"/>
   <path style="fill:#000000; fill-rule:nonzero;stroke:none;" d="M0.25 5.95 L0 5 L18.6494 0 L18.8994 0.95 L0.25 5.95 Z" transform="translate(22.9004, 107.35)"/>
   <path style="fill:#000000; fill-rule:evenodd;stroke:none;" d="M6.1396 2.3799 C5.8496 0.7803 4.9297 0 3.3291 0 C2.3496 0 1.5595 0.3106 1.0195 0.9102 C0.3593 1.6299 0 2.67 0 3.8506 C0 5.0498 0.3691 6.0801 1.0595 6.7901 C1.6191 7.3702 2.3398 7.6407 3.289 7.6407 C5.0693 7.6407 6.0693 6.6797 6.289 4.75 L5.3291 4.75 C5.25 5.25 5.1494 5.5899 5 5.8799 C4.6992 6.4805 4.0791 6.8204 3.2998 6.8204 C1.8496 6.8204 0.9297 5.6602 0.9297 3.8399 C0.9297 1.9698 1.8095 0.8204 3.2197 0.8204 C3.8095 0.8204 4.3593 1 4.6591 1.2803 C4.9297 1.5303 5.0791 1.8399 5.1894 2.3799 L6.1396 2.3799 Z" transform="translate(72.7305, 65.0898)"/>
   <path style="fill:#000000; fill-rule:nonzero;stroke:none;" d="M0 0 L1 0 L1 18.7002 L0 18.7002 L0 0 Z" transform="translate(74.8496, 74.5)"/>
   <path style="fill:#000000; fill-rule:evenodd;stroke:none;" d="M3.5101 0 C1.4199 0 0 1.5401 0 3.8204 C0 6.1006 1.4199 7.6407 3.5201 7.6407 C4.4001 7.6407 5.1901 7.3702 5.7801 6.8702 C6.5701 6.2002 7.0401 5.0704 7.0401 3.8799 C7.0401 1.5303 5.6501 0 3.5101 0 Z M3.5101 0.8204 C5.0901 0.8204 6.1101 2.0206 6.1101 3.8604 C6.1101 5.6202 5.0601 6.8204 3.5201 6.8204 C1.9701 6.8204 0.9297 5.6202 0.9297 3.8204 C0.9297 2.0206 1.9701 0.8204 3.5101 0.8204 Z" transform="translate(98.1299, 50.0898)"/>
   <path style="fill:#000000; fill-rule:evenodd;stroke:none;" d="M4.04 1.6093 C4.03 0.58 3.35 0 2.14 0 C0.92 0 0.13 0.6298 0.13 1.5996 C0.13 2.4199 0.55 2.8095 1.79 3.1093 L2.57 3.2998 C3.15 3.4394 3.38 3.6494 3.38 4.0292 C3.38 4.5195 2.89 4.8496 2.16 4.8496 C1.71 4.8496 1.33 4.7197 1.12 4.5 C0.99 4.3496 0.93 4.1992 0.88 3.83 L0 3.83 C0.04 5.04 0.72 5.6201 2.09 5.6201 C3.41 5.6201 4.25 4.9697 4.25 3.9599 C4.25 3.1796 3.81 2.75 2.77 2.5 L1.97 2.3095 C1.29 2.1494 1 1.9296 1 1.5595 C1 1.08 1.43 0.7695 2.11 0.7695 C2.78 0.7695 3.14 1.0595 3.16 1.6093 L4.04 1.6093 Z" transform="translate(106.09, 52.1104)"/>
   <path style="fill:#000000; fill-rule:nonzero;stroke:none;" d="M16.0996 0 L16.5996 0.8506 L0.5 10.1504 L0 9.3008 L16.0996 0 Z" transform="translate(80.25, 56.0996)"/>
   <path style="fill:#000000; fill-rule:evenodd;stroke:none;" d="M3.51 0 C1.42 0 0 1.54 0 3.82 C0 6.1 1.42 7.64 3.52 7.64 C4.4 7.64 5.19 7.37 5.78 6.87 C6.57 6.2 7.04 5.07 7.04 3.88 C7.04 1.53 5.65 0 3.51 0 Z M3.51 0.82 C5.09 0.82 6.11 2.02 6.11 3.86 C6.11 5.62 5.06 6.82 3.52 6.82 C1.97 6.82 0.93 5.62 0.93 3.82 C0.93 2.02 1.97 0.82 3.51 0.82 Z" transform="translate(207.88, 142.34)"/>
   <path style="fill:#000000; fill-rule:evenodd;stroke:none;" d="M4.04 1.61 C4.03 0.58 3.35 0 2.14 0 C0.92 0 0.13 0.63 0.13 1.6 C0.13 2.42 0.55 2.81 1.79 3.11 L2.57 3.3 C3.15 3.44 3.38 3.65 3.38 4.03 C3.38 4.52 2.89 4.85 2.16 4.85 C1.71 4.85 1.33 4.72 1.12 4.5 C0.99 4.35 0.93 4.2 0.88 3.83 L0 3.83 C0.04 5.04 0.72 5.62 2.09 5.62 C3.41 5.62 4.25 4.97 4.25 3.96 C4.25 3.18 3.81 2.75 2.77 2.5 L1.97 2.31 C1.29 2.15 1 1.93 1 1.56 C1 1.08 1.43 0.77 2.11 0.77 C2.78 0.77 3.14 1.06 3.16 1.61 L4.04 1.61 Z" transform="translate(215.84, 144.36)"/>
   <path style="fill:#000000; fill-rule:nonzero;stroke:none;" d="M9.3 14.65 L8.45 15.15 L0 0.5 L0.85 0 L9.3 14.65 Z" transform="translate(201.65, 125.1)"/>
   <path style="fill:none;stroke:#000000; stroke-width:1; stroke-linecap:butt; stroke-linejoin:miter; stroke-dasharray:none;" d="M4.0004 0 C4.0004 1.0498 3.1004 1.8496 2.0004 1.8496 C0.9004 1.8496 0 2.6992 0 3.6992 C0 4.6992 0.9004 5.5498 2.0004 5.5498 C3.1004 5.5498 4.0004 6.3994 4.0004 7.3994 C4.0004 8.3994 3.1004 9.25 2.0004 9.25 C0.9004 9.25 0 10.0996 0 11.0996 C0 12.0996 0.9004 12.9492 2.0004 12.9492 C3.1004 12.9492 4.0004 13.75 4.0004 14.7998 C4.0004 15.7998 3.1004 16.6494 2.0004 16.6494 C0.9004 16.6494 0 17.4492 0 18.5 C0 19.5 0.9004 20.3496 2.0004 20.3496 C3.1004 20.3496 4.0004 21.1494 4.0004 22.1992 C4.0004 23.1992 3.1004 24.0498 2.0004 24.0498 " transform="translate(99.3496, 24.1504)"/>
   <path style="fill:none;stroke:#000000; stroke-width:1; stroke-linecap:butt; stroke-linejoin:miter; stroke-dasharray:none;" d="M0 24 C0 23 0.9 22.15 2 22.15 C3.1 22.15 4 21.35 4 20.3 C4 19.3 3.1 18.45 2 18.45 C0.9 18.45 0 17.65 0 16.6 C0 15.6 0.9 14.75 2 14.75 C3.1 14.75 4 13.95 4 12.9 C4 11.9 3.1 11.05 2 11.05 C0.9 11.05 0 10.25 0 9.2 C0 8.2 0.9 7.35 2 7.35 C3.1 7.35 4 6.55 4 5.5 C4 4.5 3.1 3.7 2 3.7 C0.9 3.7 0 2.85 0 1.85 C0 0.8 0.9 0 2 0 " transform="translate(212, 151.7)"/>
   <path style="fill:#000000; fill-rule:evenodd;stroke:none;" d="M6.14 2.38 C5.85 0.78 4.93 0 3.33 0 C2.35 0 1.56 0.31 1.02 0.91 C0.36 1.63 0 2.67 0 3.85 C0 5.05 0.37 6.08 1.06 6.79 C1.62 7.37 2.34 7.64 3.29 7.64 C5.07 7.64 6.07 6.68 6.29 4.75 L5.33 4.75 C5.25 5.25 5.15 5.59 5 5.88 C4.7 6.48 4.08 6.82 3.3 6.82 C1.85 6.82 0.93 5.66 0.93 3.84 C0.93 1.97 1.81 0.82 3.22 0.82 C3.81 0.82 4.36 1 4.66 1.28 C4.93 1.53 5.08 1.84 5.19 2.38 L6.14 2.38 Z" transform="translate(241.23, 142.34)"/>
   <path style="fill:#000000; fill-rule:nonzero;stroke:none;" d="M17.3 0 L17.3 1 L0 1 L0 0 L17.3 0 Z" transform="translate(222, 145.5)"/>
   <path style="fill:#000000; fill-rule:evenodd;stroke:none;" d="M6.14 2.38 C5.85 0.78 4.93 0 3.33 0 C2.35 0 1.56 0.31 1.02 0.91 C0.36 1.63 0 2.67 0 3.85 C0 5.05 0.37 6.08 1.06 6.79 C1.62 7.37 2.34 7.64 3.29 7.64 C5.07 7.64 6.07 6.68 6.29 4.75 L5.33 4.75 C5.25 5.25 5.15 5.59 5 5.88 C4.7 6.48 4.08 6.82 3.3 6.82 C1.85 6.82 0.93 5.66 0.93 3.84 C0.93 1.97 1.81 0.82 3.22 0.82 C3.81 0.82 4.36 1 4.66 1.28 C4.93 1.53 5.08 1.84 5.19 2.38 L6.14 2.38 Z" transform="translate(271.23, 142.34)"/>
   <path style="fill:#000000; fill-rule:nonzero;stroke:none;" d="M19.7 0 L19.7 1 L0 1 L0 0 L19.7 0 Z" transform="translate(249.6, 145.5)"/>
   <path style="fill:#000000; fill-rule:evenodd;stroke:none;" d="M3 10.2002 C2.172 9.9844 1.908 9.6241 1.908 8.7247 L1.908 6.7081 C1.908 5.712 1.68 5.4004 0.78 5.1719 C1.68 4.9327 1.908 4.6202 1.908 3.6241 L1.908 1.6084 C1.908 0.7081 2.172 0.3487 3 0.1319 L3 0 C2.208 0.0118 1.896 0.084 1.548 0.2998 C1.2 0.5166 1.02 0.9844 1.02 1.668 L1.02 3.8038 C1.02 4.6446 0.804 4.92 0 5.1602 C0.804 5.4122 1.02 5.7002 1.02 6.5284 L1.02 8.6524 C1.02 9.3243 1.212 9.8164 1.548 10.0323 C1.884 10.2481 2.208 10.3204 3 10.3321 L3 10.2002 Z" transform="translate(296.7, 33.8398)"/>
   <path style="fill:#000000; fill-rule:evenodd;stroke:none;" d="M6.732 5.8564 C6.528 6.3125 6.36 6.5879 6.18 6.792 C5.76 7.2607 5.1 7.4765 4.104 7.4765 L3.3 7.4765 C2.424 7.4765 2.268 7.4043 2.268 6.9843 L2.268 1.3086 C2.268 0.456 2.436 0.2881 3.384 0.2285 L3.384 0 L0 0 L0 0.2285 C0.888 0.3007 1.044 0.4687 1.044 1.3086 L1.044 6.6367 C1.044 7.4765 0.876 7.6562 0 7.7168 L0 7.9443 L6.456 7.9443 L7.032 5.8564 L6.732 5.8564 Z" transform="translate(301.394, 34.0557)"/>
   <path style="fill:#000000; fill-rule:evenodd;stroke:none;" d="M4.86 4.7275 C4.656 4.8955 4.512 4.955 4.332 4.955 C4.056 4.955 3.972 4.7871 3.972 4.2597 L3.972 1.9199 C3.972 1.2959 3.912 0.9472 3.732 0.6591 C3.468 0.2275 2.952 0 2.244 0 C1.116 0 0.228 0.5879 0.228 1.3437 C0.228 1.6191 0.468 1.8593 0.744 1.8593 C1.032 1.8593 1.284 1.6191 1.284 1.3554 C1.284 1.3076 1.272 1.247 1.26 1.1631 C1.236 1.0556 1.224 0.9599 1.224 0.8759 C1.224 0.5517 1.608 0.2871 2.088 0.2871 C2.676 0.2871 3 0.6357 3 1.2832 L3 2.0156 C1.152 2.7597 0.948 2.8554 0.432 3.3115 C0.168 3.5517 0 3.9599 0 4.3554 C0 5.1113 0.528 5.6396 1.26 5.6396 C1.788 5.6396 2.28 5.3877 3.012 4.7636 C3.072 5.3877 3.288 5.6396 3.78 5.6396 C4.188 5.6396 4.44 5.4951 4.86 5.039 L4.86 4.7275 Z M3 4.0439 C3 4.416 2.94 4.5234 2.688 4.6679 C2.4 4.8359 2.064 4.9433 1.812 4.9433 C1.392 4.9433 1.056 4.5351 1.056 4.0195 L1.056 3.9716 C1.056 3.2636 1.548 2.831 3 2.3037 L3 4.0439 Z" transform="translate(308.944, 36.4805)"/>
   <path style="fill:#000000; fill-rule:evenodd;stroke:none;" d="M0.99 3.1143 C1.521 3.1143 1.728 3.1319 1.944 3.2129 C2.502 3.4111 2.853 3.9238 2.853 4.5449 C2.853 5.3008 2.34 5.8858 1.674 5.8858 C1.431 5.8858 1.251 5.8233 0.918 5.6074 C0.648 5.4453 0.495 5.3819 0.342 5.3819 C0.135 5.3819 0 5.5078 0 5.6973 C0 6.0117 0.387 6.21 1.017 6.21 C1.71 6.21 2.421 5.9756 2.844 5.6074 C3.267 5.2383 3.501 4.7158 3.501 4.1133 C3.501 3.6543 3.357 3.2315 3.096 2.9522 C2.916 2.7539 2.745 2.6455 2.349 2.4746 C2.97 2.0518 3.195 1.7188 3.195 1.2334 C3.195 0.5039 2.619 0 1.791 0 C1.341 0 0.945 0.1533 0.621 0.4414 C0.351 0.6836 0.216 0.918 0.018 1.458 L0.153 1.4942 C0.522 0.8369 0.927 0.5401 1.494 0.5401 C2.079 0.5401 2.484 0.9356 2.484 1.5029 C2.484 1.8272 2.349 2.1514 2.124 2.376 C1.854 2.6455 1.602 2.7813 0.99 2.9971 L0.99 3.1143 Z" transform="translate(314.137, 31.416)"/>
   <path style="fill:#000000; fill-rule:evenodd;stroke:none;" d="M1.971 1.9795 L0 1.9795 L0 2.5732 L1.971 2.5732 L1.971 4.5537 L2.565 4.5537 L2.565 2.5732 L4.536 2.5732 L4.536 1.9795 L2.565 1.9795 L2.565 0 L1.971 0 L1.971 1.9795 Z" transform="translate(318.52, 32.9463)"/>
   <path style="fill:#000000; fill-rule:evenodd;stroke:none;" d="M0 0.1319 C0.828 0.3487 1.092 0.7081 1.092 1.6084 L1.092 3.6241 C1.092 4.6319 1.32 4.9327 2.22 5.1602 C1.32 5.4004 1.092 5.712 1.092 6.7081 L1.092 8.7247 C1.092 9.6241 0.828 9.9844 0 10.2002 L0 10.3321 C0.792 10.3204 1.104 10.2481 1.452 10.0323 C1.8 9.8164 1.98 9.3487 1.98 8.6641 L1.98 6.5284 C1.98 5.6885 2.196 5.4122 3 5.1602 C2.196 4.92 1.98 4.6446 1.98 3.8038 L1.98 1.6797 C1.98 1.0079 1.788 0.5166 1.452 0.2998 C1.116 0.084 0.804 0.0118 0 0 L0 0.1319 Z" transform="translate(325.06, 33.8398)"/>
   <path style="fill:#000000; fill-rule:evenodd;stroke:none;" d="M3.861 0 L0.531 0 L0 1.3232 L0.153 1.3955 C0.54 0.7832 0.702 0.666 1.197 0.666 L3.15 0.666 L1.368 6.0303 L1.953 6.0303 L3.861 0.1435 L3.861 0 Z" transform="translate(329.43, 38.292)"/>
   <path style="fill:none;stroke:#000000; stroke-width:1.55906; stroke-linecap:butt; stroke-linejoin:miter; stroke-dasharray:none;" d="M0 0 C5.25 0 9.5 4.25 9.5 9.5 L9.5 66.5 C9.5 71.75 13.75 76 19 76 C13.75 76 9.5 80.25 9.5 85.5 L9.5 142.5 C9.5 147.75 5.25 152 0 152 " transform="translate(273.5, 23)"/>
   <path style="fill:none;stroke:#000000; stroke-width:1.55906; stroke-linecap:butt; stroke-linejoin:miter; stroke-dasharray:none;" d="M19 152 C13.75 152 9.5 147.75 9.5 142.5 L9.5 85.5 C9.5 80.25 5.25 76 0 76 C5.25 76 9.5 71.75 9.5 66.5 L9.5 9.5 C9.5 4.25 13.75 0 19 0 " transform="translate(3.5, 23)"/>
   <path style="fill:#000000; fill-rule:evenodd;stroke:none;" d="M5.34 6.4687 L5.184 6.4082 C4.74 7.0928 4.584 7.2002 4.044 7.2002 L1.176 7.2002 L3.192 5.0879 C4.26 3.9727 4.728 3.0605 4.728 2.124 C4.728 0.9248 3.756 0 2.508 0 C1.848 0 1.224 0.2646 0.78 0.7441 C0.396 1.1523 0.216 1.5361 0.012 2.3887 L0.264 2.4482 C0.744 1.2725 1.176 0.8887 2.004 0.8887 C3.012 0.8887 3.696 1.5723 3.696 2.5801 C3.696 3.5166 3.144 4.6318 2.136 5.7002 L0 7.9687 L0 8.1123 L4.68 8.1123 L5.34 6.4687 Z" transform="translate(286.36, 11.8877)"/>
   <path style="fill:#000000; fill-rule:evenodd;stroke:none;" d="M2.16 0 L0 1.0928 L0 1.2607 C0.144 1.2002 0.276 1.1523 0.324 1.1279 C0.54 1.0439 0.744 0.9961 0.864 0.9961 C1.116 0.9961 1.224 1.1768 1.224 1.5605 L1.224 6.9961 C1.224 7.3926 1.128 7.668 0.936 7.7764 C0.756 7.8848 0.588 7.9199 0.084 7.9326 L0.084 8.1123 L3.396 8.1123 L3.396 7.9326 C2.448 7.9199 2.256 7.8008 2.256 7.2246 L2.256 0.0244 L2.16 0 Z" transform="translate(293.332, 11.8877)"/>
   <path style="fill:#000000; fill-rule:evenodd;stroke:none;" d="M0 0 L0 0.85063 L3.322 0.85063 L3.322 0 L0 0 Z" transform="translate(298.526, 9.78027)"/>
  </g>
 </g>
</svg>
