<?xml version="1.0" encoding="utf-8"?>
<!-- Generator: Adobe Illustrator 16.0.0, SVG Export Plug-In . SVG Version: 6.00 Build 0)  -->
<!DOCTYPE svg PUBLIC "-//W3C//DTD SVG 1.1//EN" "http://www.w3.org/Graphics/SVG/1.1/DTD/svg11.dtd">
<svg version="1.1" xmlns="http://www.w3.org/2000/svg" xmlns:xlink="http://www.w3.org/1999/xlink" x="0px" y="0px" width="1280px"
	 height="788.683px" viewBox="0 159.677 1280 788.683" enable-background="new 0 159.677 1280 788.683" xml:space="preserve">
<pattern  x="244.5" y="1106.177" width="10.774" height="10.706" patternUnits="userSpaceOnUse" id="ian_symbols_27e1533ec335c934317" viewBox="0 -10.706 10.774 10.706" overflow="visible">
	<g>
		<polygon fill="none" points="0,-10.706 10.774,-10.706 10.774,0 0,0 		"/>
		<polygon fill="none" points="0,0 10.774,0 10.774,-10.706 0,-10.706 		"/>
		<polygon fill="#62605D" points="10.724,-0.05 0.068,-0.05 0.068,-10.706 10.724,-10.706 		"/>
		<polyline fill="#C64F2A" stroke="#000000" stroke-width="0.02" points="0.068,-0.05 2.16,-0.05 2.16,-1.047 0.068,-1.047 		"/>
		<polygon fill="#C64F2A" stroke="#000000" stroke-width="0.02" points="2.068,-1.047 2.068,-0.05 4.16,-0.05 4.16,-1.047 		"/>
		<polygon fill="#D06740" stroke="#000000" stroke-width="0.02" points="1.141,-1.146 3.233,-1.146 3.233,-2.143 1.141,-2.143 		"/>
		<polygon fill="#C64F2A" stroke="#000000" stroke-width="0.02" points="3.141,-1.146 5.233,-1.146 5.233,-2.143 3.141,-2.143 		"/>
		<polygon fill="#C64F2A" stroke="#000000" stroke-width="0.02" points="5.141,-1.146 7.233,-1.146 7.233,-2.143 5.141,-2.143 		"/>
		<polygon fill="#C64F2A" stroke="#000000" stroke-width="0.02" points="7.141,-1.146 9.233,-1.146 9.233,-2.143 7.141,-2.143 		"/>
		<polyline fill="#DB6C53" stroke="#000000" stroke-width="0.02" points="10.724,-2.143 9.141,-2.143 9.141,-1.146 10.724,-1.146 		
			"/>
		<polygon fill="#C64F2A" stroke="#000000" stroke-width="0.02" points="4.068,-1.047 4.068,-0.05 6.16,-0.05 6.16,-1.047 		"/>
		<polygon fill="#D06740" stroke="#000000" stroke-width="0.02" points="6.068,-1.047 6.068,-0.05 8.16,-0.05 8.16,-1.047 		"/>
		<polygon fill="#C64F2A" stroke="#000000" stroke-width="0.02" points="8.068,-1.047 8.068,-0.05 10.16,-0.05 10.16,-1.047 		"/>
		<polyline fill="#C64F2A" stroke="#000000" stroke-width="0.02" points="10.724,-1.047 10.068,-1.047 10.068,-0.05 10.724,-0.05 		
			"/>
		<polygon fill="#C64F2A" stroke="#000000" stroke-width="0.02" points="0.05,-2.142 0.05,-1.146 0.068,-1.146 0.068,-2.142 		"/>
		<polyline fill="#DB6C53" stroke="#000000" stroke-width="0.02" points="0.068,-1.146 1.096,-1.146 1.096,-2.142 0.068,-2.142 		
			"/>
		<polyline fill="#C64F2A" stroke="#000000" stroke-width="0.02" points="0.085,-2.213 2.177,-2.213 2.177,-3.21 0.085,-3.21 		"/>
		<polygon fill="#C64F2A" stroke="#000000" stroke-width="0.02" points="2.085,-2.213 4.177,-2.213 4.177,-3.21 2.085,-3.21 		"/>
		<polygon fill="#C64F2A" stroke="#000000" stroke-width="0.02" points="1.159,-3.31 3.25,-3.31 3.25,-4.306 1.159,-4.306 		"/>
		<polygon fill="#C64F2A" stroke="#000000" stroke-width="0.02" points="3.159,-3.31 5.25,-3.31 5.25,-4.306 3.159,-4.306 		"/>
		<polygon fill="#DB6C53" stroke="#000000" stroke-width="0.02" points="5.159,-3.31 7.25,-3.31 7.25,-4.306 5.159,-4.306 		"/>
		<polygon fill="#D06740" stroke="#000000" stroke-width="0.02" points="7.159,-3.31 9.25,-3.31 9.25,-4.306 7.159,-4.306 		"/>
		<polyline fill="#C64F2A" stroke="#000000" stroke-width="0.02" points="10.724,-4.306 9.159,-4.306 9.159,-3.31 10.724,-3.31 		
			"/>
		<polygon fill="#D06740" stroke="#000000" stroke-width="0.02" points="4.085,-2.213 6.177,-2.213 6.177,-3.21 4.085,-3.21 		"/>
		<polygon fill="#C64F2A" stroke="#000000" stroke-width="0.02" points="6.085,-2.213 8.177,-2.213 8.177,-3.21 6.085,-3.21 		"/>
		<polygon fill="#C64F2A" stroke="#000000" stroke-width="0.02" points="8.085,-2.213 10.177,-2.213 10.177,-3.21 8.085,-3.21 		"/>
		<polyline fill="#C64F2A" stroke="#000000" stroke-width="0.02" points="10.724,-3.21 10.085,-3.21 10.085,-2.213 10.724,-2.213 		
			"/>
		<polyline fill="#C64F2A" stroke="#000000" stroke-width="0.02" points="0.068,-3.309 1.114,-3.309 1.114,-4.306 0.068,-4.306 		
			"/>
		<polyline fill="#C64F2A" stroke="#000000" stroke-width="0.02" points="0.085,-4.309 2.177,-4.309 2.177,-5.306 0.085,-5.306 		
			"/>
		<polygon fill="#C64F2A" stroke="#000000" stroke-width="0.02" points="2.085,-4.309 4.177,-4.309 4.177,-5.306 2.085,-5.306 		"/>
		<polygon fill="#D06740" stroke="#000000" stroke-width="0.02" points="1.159,-5.403 3.25,-5.403 3.25,-6.4 1.159,-6.4 		"/>
		<polygon fill="#C64F2A" stroke="#000000" stroke-width="0.02" points="3.159,-5.403 5.25,-5.403 5.25,-6.4 3.159,-6.4 		"/>
		<polygon fill="#DB6C53" stroke="#000000" stroke-width="0.02" points="5.159,-5.403 7.25,-5.403 7.25,-6.4 5.159,-6.4 		"/>
		<polygon fill="#C64F2A" stroke="#000000" stroke-width="0.02" points="7.159,-5.403 9.25,-5.403 9.25,-6.4 7.159,-6.4 		"/>
		<polyline fill="#C64F2A" stroke="#000000" stroke-width="0.02" points="10.724,-6.4 9.159,-6.4 9.159,-5.403 10.724,-5.403 		"/>
		<polygon fill="#C64F2A" stroke="#000000" stroke-width="0.02" points="4.085,-4.309 6.177,-4.309 6.177,-5.306 4.085,-5.306 		"/>
		<polygon fill="#C64F2A" stroke="#000000" stroke-width="0.02" points="6.085,-4.309 8.177,-4.309 8.177,-5.306 6.085,-5.306 		"/>
		<polygon fill="#C64F2A" stroke="#000000" stroke-width="0.02" points="8.085,-4.309 10.177,-4.309 10.177,-5.306 8.085,-5.306 		
			"/>
		<polyline fill="#C64F2A" stroke="#000000" stroke-width="0.02" points="10.724,-5.306 10.085,-5.306 10.085,-4.309 10.724,-4.309 
					"/>
		<polyline fill="#C64F2A" stroke="#000000" stroke-width="0.02" points="0.068,-5.403 1.114,-5.403 1.114,-6.399 0.068,-6.399 		
			"/>
		<polyline fill="#C64F2A" stroke="#000000" stroke-width="0.02" points="0.085,-6.444 2.177,-6.444 2.177,-7.44 0.085,-7.44 		"/>
		<polygon fill="#C64F2A" stroke="#000000" stroke-width="0.02" points="2.085,-6.444 4.177,-6.444 4.177,-7.44 2.085,-7.44 		"/>
		<polygon fill="#C64F2A" stroke="#000000" stroke-width="0.02" points="1.159,-7.539 3.25,-7.539 3.25,-8.536 1.159,-8.536 		"/>
		<polygon fill="#C64F2A" stroke="#000000" stroke-width="0.02" points="3.159,-7.539 5.25,-7.539 5.25,-8.536 3.159,-8.536 		"/>
		<polygon fill="#D06740" stroke="#000000" stroke-width="0.02" points="5.159,-7.539 7.25,-7.539 7.25,-8.536 5.159,-8.536 		"/>
		<polygon fill="#C64F2A" stroke="#000000" stroke-width="0.02" points="7.159,-7.539 9.25,-7.539 9.25,-8.536 7.159,-8.536 		"/>
		<polyline fill="#C64F2A" stroke="#000000" stroke-width="0.02" points="10.724,-8.536 9.159,-8.536 9.159,-7.539 10.724,-7.539 		
			"/>
		<polygon fill="#C64F2A" stroke="#000000" stroke-width="0.02" points="4.085,-6.444 6.177,-6.444 6.177,-7.44 4.085,-7.44 		"/>
		<polygon fill="#C64F2A" stroke="#000000" stroke-width="0.02" points="6.085,-6.444 8.177,-6.444 8.177,-7.44 6.085,-7.44 		"/>
		<polygon fill="#C64F2A" stroke="#000000" stroke-width="0.02" points="8.085,-6.444 10.177,-6.444 10.177,-7.44 8.085,-7.44 		"/>
		<polyline fill="#C64F2A" stroke="#000000" stroke-width="0.02" points="10.724,-7.44 10.085,-7.44 10.085,-6.444 10.724,-6.444 		
			"/>
		<polyline fill="#C64F2A" stroke="#000000" stroke-width="0.02" points="0.068,-7.538 1.114,-7.538 1.114,-8.536 0.068,-8.536 		
			"/>
		<polyline fill="#C64F2A" stroke="#000000" stroke-width="0.02" points="0.085,-8.656 2.177,-8.656 2.177,-9.652 0.085,-9.652 		
			"/>
		<polygon fill="#DB6C53" stroke="#000000" stroke-width="0.02" points="2.085,-8.656 4.177,-8.656 4.177,-9.652 2.085,-9.652 		"/>
		<polyline fill="#C64F2A" stroke="#000000" stroke-width="0.02" points="1.159,-10.706 1.159,-9.751 3.25,-9.751 3.25,-10.706 		
			"/>
		<polyline fill="#C64F2A" stroke="#000000" stroke-width="0.02" points="3.159,-10.706 3.159,-9.751 5.25,-9.751 5.25,-10.706 		
			"/>
		<polyline fill="#DB6C53" stroke="#000000" stroke-width="0.02" points="5.159,-10.706 5.159,-9.751 7.25,-9.751 7.25,-10.706 		
			"/>
		<polyline fill="#C64F2A" stroke="#000000" stroke-width="0.02" points="7.159,-10.706 7.159,-9.751 9.25,-9.751 9.25,-10.706 		
			"/>
		<polyline fill="#C64F2A" stroke="#000000" stroke-width="0.02" points="9.159,-10.706 9.159,-9.751 10.724,-9.751 10.724,-10.706 
					"/>
		<polygon fill="#C64F2A" stroke="#000000" stroke-width="0.02" points="4.085,-8.656 6.177,-8.656 6.177,-9.652 4.085,-9.652 		"/>
		<polygon fill="#C64F2A" stroke="#000000" stroke-width="0.02" points="6.085,-8.656 8.177,-8.656 8.177,-9.652 6.085,-9.652 		"/>
		<polygon fill="#D06740" stroke="#000000" stroke-width="0.02" points="8.085,-8.656 10.177,-8.656 10.177,-9.652 8.085,-9.652 		
			"/>
		<polyline fill="#C64F2A" stroke="#000000" stroke-width="0.02" points="10.724,-9.652 10.085,-9.652 10.085,-8.656 10.724,-8.656 
					"/>
		<polyline fill="#C64F2A" stroke="#000000" stroke-width="0.02" points="0.068,-10.706 0.068,-9.75 1.114,-9.75 1.114,-10.706 		
			"/>
	</g>
</pattern>
<g id="Layer_1">
	<polygon opacity="0.15" fill="#50C7E7" enable-background="new    " points="1266.896,447.129 4.558,447.129 3.743,173.301 
		1269.242,173.809 	"/>
	<path fill="#98C93C" d="M255.113,417.505c61.648,2.339,239.044-26.932,355.798-59.25c117.396-32.496,278.733-16.614,322.444-24.238
		c138.984-24.238,246.191-12.38,336.945-10.329l2.17,118.054l-583.727,5.387L255.113,417.505z"/>
	<path fill="#92A23A" d="M2.665,373.191c114.817,9.737,235.194-12.328,346.31-0.298c51.92,5.622,86.746,16.173,138.661,18.946
		c49.313,2.635,94.731,31.957,138.703,27.772c104.104-9.904,206.262-5.025,311.066-2.686c57.008,1.271,115.046,0.597,172.422,0.597
		c54.677,0,102.276-8.113,154.585-4.925l0.602,250.3L4.543,660.211L2.665,373.191z"/>
	<path fill="#808285" d="M2.665,373.191c114.817,9.737,235.194-12.328,346.31-0.298c51.92,5.622,86.746,16.173,138.661,18.946
		c28.871,1.542,56.406,12.232,83.097,19.99c18.9,5.493,20.86,58.955,20.86,58.955l-97.495,62.997l64.497,46.498l109.499,81.346
		L4.543,660.211L2.665,373.191z"/>
	<rect x="5.041" y="655.503" fill="#84C1E0" width="1265.588" height="120.536"/>
	<rect x="3.554" y="646.35" opacity="0.6" fill="#FFFFFF" enable-background="new    " width="1267.089" height="9.793"/>
	<path fill="#84C1E0" d="M457.651,387.471c38.002,31.424,125.626,35.015,117.185,74.523c-8.442,33.52-117.716,47.587-134.603,83.502
		c-19.002,37.113,125.346,120.057,133.79,127.239l459.22-1.471c-326.902,1.471-516.172-97.777-492.948-126.509
		c23.229-27.537,77.653-30.559,88.21-67.667c12.669-43.099-91.668-77.347-106.453-83.331
		C507.269,387.77,457.651,387.471,457.651,387.471z"/>
	<rect x="3.829" y="721.323" fill="#3298CB" width="1267.92" height="143.206"/>
	<g>
		<path fill="#C7D92E" d="M1270.268,821.924c-162.566,6.904-319.519,15.784-482.082,22.694
			c-145.747,5.919-173.774,9.868-173.774,36.506c0,19.736,5.605,37.499,5.605,56.246l650.249,0.985L1270.268,821.924
			L1270.268,821.924z"/>
		<path fill="#9FCF78" d="M8.557,936.06L7.281,801.521c189.784,17.96,401.895,11.974,597.256,38.907
			c200.948,27.937,372.837,57.722,506.802,95.632H8.557z"/>
		<g>
			<path fill="#144A8F" d="M793.538,729.216c0,0-10.473,12.241-11.454,11.578c-0.918-0.743-0.248-1.357-0.412-1.877
				c-2.479-10.031-7.613-12.19-7.613-12.19L793.538,729.216z"/>
			<path fill="#144A8F" d="M805.841,699.105c0,0-3.593-15.623-4.259-15.657c-0.645,0.07,0.081-0.306-0.992,2.258
				c-1.077,4.773-11.275,20.278-11.275,20.278L805.841,699.105z"/>
			<path fill="#144A8F" d="M808.064,728.605c0,0-8.38,10.007-9.478,9.984c-1.101,0.06,5.33-10.223,5.33-10.223L808.064,728.605z"/>
			<path fill="#144A8F" d="M845.517,706.159c0.981-4.672-18.411-17.874-35.581-11.354c-17.109,6.576-35.938,19.915-42.944,21.701
				c-7.022,1.804-11.02-3.424-12.584-1.272c-1.65,2.135,3.771,9.254,3.422,12.654c-0.376,3.442-12.684,17.746-11.934,18.438
				c0.812,0.618,12.242-9.568,18.808-15.428c7.01-2.427,17.504-2.992,33.345,1.255C842.964,724.245,845.297,708.169,845.517,706.159
				z"/>
			<path fill="#144A8F" d="M836.88,708.65c-0.382,1.365-0.244,2.449,0.42,2.359c0.59,0.011,1.383-1.083,1.832-2.394
				c0.36-1.277,0.15-2.353-0.449-2.29C838.122,706.288,837.29,707.419,836.88,708.65z"/>
			<path fill="#144A8F" d="M700.704,783.292c0,0-9.743,11.508-10.912,11.032c-1.115-0.55-0.541-1.101-0.756-1.549
				c-4.34-8.312-10.308-9.625-10.308-9.625L700.704,783.292z"/>
			<path fill="#144A8F" d="M709.607,756.304c0,0-6.4-12.945-7.173-12.895c-0.641,0.112,0.126-0.27-0.682,2.024
				c-0.517,4.177-9.383,18.455-9.383,18.455L709.607,756.304z"/>
			<path fill="#144A8F" d="M716.673,781.25c0,0-7.691,9.386-8.92,9.512c-1.242,0.129,4.271-9.291,4.271-9.291L716.673,781.25z"/>
			<path fill="#144A8F" d="M754.688,758.233c0.354-4.08-23.185-13.324-41.196-5.985c-17.957,7.34-36.744,20.682-44.239,22.925
				c-7.515,2.271-12.731-1.77-14.122,0.24c-1.497,1.962,5.59,7.471,5.736,10.413c0.12,2.969-11.275,16.436-10.377,16.957
				c1.004,0.439,12.102-9.435,18.482-15.097c7.376-2.818,18.954-4.329,37.162-2.371C754.688,773.909,754.77,759.974,754.688,758.233
				z"/>
			<path fill="#144A8F" d="M745.522,761.254c-0.19,1.222,0.094,2.113,0.791,2.002c0.705-0.07,1.425-1.085,1.684-2.25
				c0.205-1.148-0.207-2.012-0.834-1.921C746.478,759.095,745.774,760.144,745.522,761.254z"/>
		</g>
	</g>
	<g id="Water:_sewage_treatment_plant:_primary">
	</g>
</g>
<g id="Layer_3_1_">
	<g>
		<g>
			
				<linearGradient id="SVGID_1_" gradientUnits="userSpaceOnUse" x1="5121.5371" y1="-4392.5186" x2="5026.1929" y2="-3851.8159" gradientTransform="matrix(0.1992 0 0 0.1992 -172.8897 1066.9639)">
				<stop  offset="0.073" style="stop-color:#FFFFFF"/>
				<stop  offset="1" style="stop-color:#808184"/>
			</linearGradient>
			<path opacity="0.9" fill="url(#SVGID_1_)" enable-background="new    " d="M724.152,277.307c1.942,2.59,5.184,5.832,8.428,5.187
				c3.252-0.655,5.847-3.251,8.437-2.597c2.597,0.653,0,1.301,3.246,2.597c3.248,1.298,5.84,0.647,9.079,0.647
				c3.246,0,1.951,1.946,5.192,3.242c3.239,1.302,7.778-2.589,11.025-2.589c3.243,0,7.779,0.647,10.383,0.647
				c2.593,0,0.645,1.942,3.882,3.887c3.254,1.951,5.194,1.304,7.139,0c1.952-1.29,5.193,0,10.381,0.653
				c5.188,0.65,14.919,1.297,16.22-1.296c1.292-2.599,7.137-1.301,9.726,0c2.597,1.296,2.597,3.885,4.544,4.538
				c1.952,0.655,8.437-2.591,11.031-2.591c2.586,0,5.187,0.653,8.431-0.65c3.239-1.296,5.833-5.184,7.784-3.895
				c1.948,1.296,1.296,3.241,3.886,4.545c2.6,1.295,12.985-1.304,14.278-3.247c1.297-1.945,6.484,0.651,9.724,1.301
				c3.249,0.643,1.946-3.889,5.843-4.544c3.89-0.647,6.48,1.3,9.081,1.3c2.588,0,5.842,1.949,7.78,2.597
				c1.952,0.647,4.546-2.597,7.137-3.244c2.596-0.648,5.845,1.292,9.727,1.292c3.9,0,1.951-3.247,5.842-4.532
				c3.896-1.305,9.083-1.305,9.726-5.19c0.653-3.896-3.239-5.835-3.239-5.835s-4.151,1.137-5.188,0.641
				c-1.033-0.502-4.394-6.898-5.842-7.781c-1.437-0.884-4.207,0.456-5.179,0c-0.977-0.459-4.043-5.843-5.846-5.836
				c-1.812,0.002-4.924,0.186-5.84-1.301c-0.915-1.493,0.479-5.904-1.297-7.786c-1.764-1.886-8.027-3.325-10.382-4.543
				c-2.343-1.202-1.977-5.075-3.241-5.189c-1.271-0.11-3.945,1.839-4.541,0c-0.598-1.826,0.818-5.784,0.646-7.777
				c-0.17-2.003-8.967-4.507-11.024-4.545c-2.059-0.039-7.28,1.369-9.08,3.247c-1.796,1.887-4.748-4.947-7.139-5.839
				c-2.393-0.89-5.854,2.189-6.481,0c-0.637-2.194-1.077-5.629,0.648-7.138c1.727-1.5,1.949-4.159,1.297-6.483
				c-0.649-2.323-6.342-8.76-9.732-9.731c-3.394-0.968-6.82-5.956-9.729-5.836c-2.908,0.114-4.258-3.176-6.486-3.896
				c-2.229-0.719-4.083,1.168-7.138,1.3c-3.05,0.131-9.341,5.736-11.681,5.842c-2.328,0.098-9.785,4.267-8.429,7.125
				c1.354,2.872,3.037,3.678,2.863,5.232c-0.176,1.555-4.878,1.667-6.762,2.562c-1.862,0.882-3.155-1.325-5.828,0
				c-2.681,1.303-6.017-2.195-8.437-1.302c-2.417,0.886-4.744,4.759-5.193,5.84c-0.435,1.077-1.936,4.141-3.886,5.185
				c-1.954,1.039-2.844,0.014-5.188-0.645c-2.338-0.667-5.265,5.443-7.78,5.189c-2.517-0.26-3.78,2-6.488,1.94
				c-2.714-0.058-3.184,9.855-7.139,10.383c-3.947,0.532-7.352,8.807-10.375,9.08c-3.028,0.268-2.817,5.188-3.891,7.779
				c-1.086,2.593-4.818,3.056-7.789,4.55c-2.967,1.487-2.244,7.41-4.543,7.783c-2.283,0.369-4.531,7.137-2.586,9.736
				L724.152,277.307z"/>
		</g>
		<g>
			
				<line fill="none" stroke="#808184" stroke-width="4.4892" stroke-miterlimit="10" x1="769.674" y1="296.818" x2="762.402" y2="321.197"/>
			
				<line fill="none" stroke="#808184" stroke-width="4.4892" stroke-miterlimit="10" x1="780.151" y1="314.775" x2="772.885" y2="339.154"/>
			
				<line fill="none" stroke="#808184" stroke-width="4.4892" stroke-miterlimit="10" x1="802.598" y1="301.306" x2="795.33" y2="325.686"/>
			
				<line fill="none" stroke="#808184" stroke-width="4.4892" stroke-miterlimit="10" x1="813.069" y1="323.753" x2="805.802" y2="348.131"/>
			
				<line fill="none" stroke="#808184" stroke-width="4.4892" stroke-miterlimit="10" x1="832.521" y1="307.294" x2="825.254" y2="331.672"/>
			
				<line fill="none" stroke="#808184" stroke-width="4.4892" stroke-miterlimit="10" x1="850.479" y1="319.265" x2="843.208" y2="343.643"/>
			
				<line fill="none" stroke="#808184" stroke-width="4.4892" stroke-miterlimit="10" x1="869.929" y1="304.301" x2="862.66" y2="328.679"/>
			
				<line fill="none" stroke="#808184" stroke-width="4.4892" stroke-miterlimit="10" x1="887.888" y1="313.28" x2="880.618" y2="337.657"/>
			
				<line fill="none" stroke="#808184" stroke-width="4.4892" stroke-miterlimit="10" x1="910.337" y1="298.314" x2="903.059" y2="322.694"/>
		</g>
	</g>
	<g>
		<g>
			
				<linearGradient id="SVGID_2_" gradientUnits="userSpaceOnUse" x1="3007.8027" y1="-4279.6748" x2="2912.4558" y2="-3738.9573" gradientTransform="matrix(0.1992 0 0 0.1992 -172.8897 1066.9639)">
				<stop  offset="0.073" style="stop-color:#FFFFFF"/>
				<stop  offset="1" style="stop-color:#808184"/>
			</linearGradient>
			<path opacity="0.9" fill="url(#SVGID_2_)" enable-background="new    " d="M303.094,299.789c1.942,2.591,5.186,5.832,8.428,5.186
				c3.249-0.654,5.845-3.253,8.434-2.595c2.597,0.65,0,1.301,3.245,2.595c3.249,1.296,5.84,0.647,9.08,0.647
				c3.249,0,1.952,1.944,5.196,3.243c3.24,1.302,7.781-2.591,11.024-2.591c3.24,0,7.782,0.648,10.382,0.648
				c2.59,0,0.645,1.942,3.883,3.888c3.252,1.949,5.196,1.303,7.137,0c1.951-1.293,5.194,0,10.381,0.652
				c5.19,0.651,14.924,1.297,16.22-1.296c1.292-2.6,7.137-1.301,9.729,0c2.593,1.296,2.593,3.884,4.541,4.537
				c1.951,0.654,8.434-2.59,11.028-2.59c2.587,0,5.188,0.653,8.43-0.651c3.24-1.296,5.837-5.185,7.788-3.897
				c1.944,1.299,1.297,3.244,3.886,4.548c2.6,1.292,12.982-1.303,14.274-3.248c1.299-1.945,6.488,0.65,9.729,1.301
				c3.244,0.644,1.94-3.889,5.84-4.544c3.893-0.647,6.483,1.3,9.083,1.3c2.591,0,5.84,1.949,7.782,2.595
				c1.951,0.649,4.547-2.595,7.138-3.244c2.594-0.649,5.843,1.293,9.727,1.293c3.897,0,1.951-3.246,5.84-4.532
				c3.898-1.306,9.083-1.306,9.729-5.19c0.652-3.897-3.238-5.837-3.238-5.837s-4.152,1.138-5.19,0.644
				c-1.034-0.503-4.394-6.902-5.84-7.782c-1.438-0.884-4.209,0.456-5.183,0c-0.976-0.462-4.041-5.843-5.842-5.838
				c-1.812,0.003-4.925,0.188-5.84-1.301c-0.916-1.493,0.479-5.902-1.298-7.785c-1.764-1.883-8.027-3.323-10.381-4.542
				c-2.346-1.205-1.979-5.075-3.24-5.188c-1.27-0.111-3.946,1.838-4.542,0c-0.596-1.828,0.821-5.787,0.646-7.778
				c-0.166-2.004-8.965-4.507-11.025-4.548c-2.057-0.037-7.278,1.37-9.08,3.248c-1.794,1.887-4.75-4.946-7.138-5.839
				c-2.388-0.89-5.853,2.19-6.483,0c-0.637-2.193-1.077-5.63,0.649-7.136c1.727-1.501,1.945-4.162,1.297-6.485
				c-0.648-2.321-6.345-8.758-9.734-9.731c-3.393-0.969-6.82-5.956-9.727-5.838c-2.911,0.113-4.26-3.174-6.488-3.894
				c-2.23-0.719-4.083,1.169-7.136,1.3c-3.051,0.132-9.342,5.736-11.679,5.841c-2.329,0.101-9.785,4.269-8.431,7.127
				c1.355,2.874,3.038,3.677,2.864,5.233c-0.176,1.553-4.879,1.667-6.76,2.561c-1.865,0.881-3.157-1.326-5.83,0
				c-2.679,1.304-6.014-2.195-8.434-1.301c-2.416,0.884-4.744,4.758-5.197,5.839c-0.434,1.077-1.933,4.143-3.883,5.186
				c-1.954,1.038-2.845,0.015-5.191-0.644c-2.34-0.668-5.264,5.442-7.782,5.188c-2.521-0.259-3.781,2-6.492,1.94
				c-2.71-0.057-3.184,9.856-7.139,10.383c-3.946,0.532-7.352,8.807-10.373,9.078c-3.029,0.27-2.818,5.188-3.892,7.782
				c-1.081,2.592-4.818,3.055-7.791,4.55c-2.965,1.49-2.243,7.408-4.539,7.783c-2.286,0.373-4.529,7.139-2.587,9.736
				L303.094,299.789z"/>
		</g>
		<g>
			
				<line fill="none" stroke="#808184" stroke-width="4.4892" stroke-miterlimit="10" x1="348.617" y1="319.297" x2="341.349" y2="343.677"/>
			
				<line fill="none" stroke="#808184" stroke-width="4.4892" stroke-miterlimit="10" x1="359.094" y1="337.256" x2="351.825" y2="361.631"/>
			
				<line fill="none" stroke="#808184" stroke-width="4.4892" stroke-miterlimit="10" x1="381.539" y1="323.786" x2="374.272" y2="348.168"/>
			
				<line fill="none" stroke="#808184" stroke-width="4.4892" stroke-miterlimit="10" x1="392.012" y1="346.231" x2="384.745" y2="370.613"/>
			
				<line fill="none" stroke="#808184" stroke-width="4.4892" stroke-miterlimit="10" x1="411.463" y1="329.772" x2="404.195" y2="354.152"/>
			
				<line fill="none" stroke="#808184" stroke-width="4.4892" stroke-miterlimit="10" x1="429.42" y1="341.742" x2="422.152" y2="366.122"/>
			
				<line fill="none" stroke="#808184" stroke-width="4.4892" stroke-miterlimit="10" x1="448.873" y1="326.779" x2="441.604" y2="351.162"/>
			
				<line fill="none" stroke="#808184" stroke-width="4.4892" stroke-miterlimit="10" x1="466.83" y1="335.761" x2="459.561" y2="360.136"/>
			
				<line fill="none" stroke="#808184" stroke-width="4.4892" stroke-miterlimit="10" x1="489.274" y1="320.793" x2="482.006" y2="345.175"/>
		</g>
	</g>
	<g id="Vehicle:_sedan">
	</g>
	<g>
		<path fill="#FFFFFF" d="M447.614,698.745c9.297-1.671,10.555-2.303,21.27-3.836l-29.297,34.224
			c-15.789-6.628-26.134-8.975-44.681-17.908c9.971-3.114,13.59-3.521,21.799-6.496c6.71-35.479-45.383-117.348-61.706-137.516
			C394.613,585.619,452.612,661.581,447.614,698.745z"/>
	</g>
	<g>
		<path fill="#FFFFFF" d="M1024.585,740.078c4.848,8.011,5.883,8.948,11.101,18.319l-42.065-14.962
			c0.526-16.964-0.97-27.37,0.716-47.706c6.419,8.124,8.082,11.331,13.745,17.87c35.209-6.379,92.49-83.641,105.357-105.908
			C1110.464,650.89,1060.751,731.513,1024.585,740.078z"/>
	</g>
	<g>
		<path fill="#FFFFFF" d="M582.4,600.525c-6.069-7.598-6.613-8.943-13.873-17.394l-0.509,46.369
			c16.726,5.57,26.325,10.765,46.745,16.418c-5.611-9.171-8.138-11.938-12.483-19.807c18.85-32.026,114.703-60.13,141.019-64.684
			C700.14,548.83,603.723,568.353,582.4,600.525z"/>
	</g>
	
		<rect x="5.265" y="165.116" fill="none" stroke="#FFFFFF" stroke-width="5.9652" stroke-miterlimit="10" width="1263.964" height="776.34"/>
	<g id="Beef_x2F_dairy_farming">
		<g id="Beef_x2F_dairy_farming_2">
			<g>
				<polygon fill="#B5B5B5" points="1188.582,422.326 1177.514,452.727 1177.514,384.532 1188.582,366.862 				"/>
				<path fill="#B23930" stroke="#231F20" stroke-width="0.2299" d="M1060.938,367.533l15.194-40.652l52.111-24.376l58.604,24.376
					l10.869,42.693c0.002-0.001-136.776-0.001-136.776-2.041"/>
				<rect x="1064.137" y="371.52" fill="#E6E7E8" width="112.908" height="83.28"/>
				<path fill="#C7C8CA" stroke="#231F20" stroke-width="0.2299" d="M1051.133,382.16l15.193-40.645l52.091-24.393l58.624,24.393
					l10.847,42.69C1187.891,384.206,1051.133,384.206,1051.133,382.16"/>
				<line fill="none" stroke="#FFFFFF" stroke-width="2" x1="1068.52" y1="341.671" x2="1187.893" y2="384.206"/>
				<line fill="none" stroke="#FFFFFF" stroke-width="2" x1="1177.046" y1="341.515" x2="1053.337" y2="382.055"/>
				<polygon fill="#808285" points="1187.893,384.206 1177.046,341.515 1118.418,317.125 1066.326,341.515 1076.133,326.88 
					1128.244,302.504 1186.851,326.88 1197.718,369.572 				"/>
				<line fill="none" stroke="#231F20" stroke-width="0.2299" x1="1118.418" y1="317.125" x2="1128.244" y2="302.504"/>
				<line fill="none" stroke="#231F20" stroke-width="0.2299" x1="1177.046" y1="341.515" x2="1186.851" y2="326.88"/>
			</g>
		</g>
	</g>
	<g>
		<path fill="#FFFFFF" d="M1003.189,458.081c0,0,3.348-12.879,4.637-15.842c1.288-2.962,4.379-6.954,6.053-9.015
			c1.675-2.061,3.736-4.122,4.637-4.379c0.902-0.257,2.061-0.258,2.705,0.129c0.644,0.387,0.644,1.481,0.386,2.705
			c-0.257,1.224-0.901,1.803-0.901,1.803s0.322,0.644,0.387,1.804c0.064,1.159-0.258,2.189-0.258,2.189s1.096,0,1.288,0.387
			c0.193,0.386-0.129,1.03-0.129,1.03s1.095,0.322,1.159,0.902c0.064,0.579,0.193,2.897,0,4.765s-0.773,5.216-1.03,6.053
			c-0.258,0.837-0.709,1.61-0.644,2.318c0.064,0.708,0.45,2.125,0.515,3.606s-1.481,5.796-1.481,5.796l-1.996,2.189l-14.554-1.288
			L1003.189,458.081z"/>
		<path fill="#FFFFFF" d="M1004.863,457.373c0-1.123,0.049-2.323,0.272-3.413c0.094-0.456,0.319-0.85,0.438-1.287
			c0.118-0.434,0.213-0.892,0.318-1.354c0.25-1.093,0.43-2.225,0.839-3.279c0.178-0.457,0.283-0.884,0.495-1.308
			c0.205-0.409,0.496-0.783,0.713-1.141c0.074,0.389-0.067,3.242,0.259,3.272c0.224-0.169,0.349-0.68,0.417-0.954
			c0.087-0.357,0.167-0.669,0.239-1.037c0.159-0.809,0.583-1.57,1.085-2.252c0.254-0.344,0.49-0.604,0.836-0.85
			c0.266-0.188,0.514-0.453,0.734-0.691c0.264-0.285,0.508-0.568,0.774-0.842c0.187-0.194,0.608-0.683,0.877-0.636
			c0.04,0.32-0.03,0.55-0.131,0.829c-0.111,0.306-0.236,0.661-0.39,0.971c-0.265,0.533-0.506,1.073-0.756,1.607
			c-0.434,0.925-0.843,1.892-1.137,2.839c0.34-0.083,0.558-0.301,0.83-0.508c0.219-0.166,0.468-0.287,0.689-0.416
			c0.239-0.138,0.428-0.248,0.695-0.324c0.182-0.051,0.518-0.239,0.717-0.166c-0.039,0.366-0.701,0.777-0.943,1.037
			c-0.187,0.2-0.379,0.341-0.581,0.512c-0.229,0.195-0.407,0.526-0.606,0.756c-0.372,0.432-0.833,0.763-1.211,1.177
			c-0.346,0.378-0.702,0.743-1.047,1.128c-0.711,0.793-1.326,1.7-1.899,2.606c-0.257,0.407-0.396,0.903-0.546,1.325
			c-0.146,0.411-0.34,0.82-0.517,1.222c-0.224,0.508-0.5,0.97-0.694,1.499c-0.084,0.229-0.148,0.461-0.205,0.707
			c-0.035,0.146-0.088,0.289-0.131,0.437c-0.031,0.105-0.056,0.295-0.113,0.271L1004.863,457.373z"/>
		<path fill="#FFFFFF" d="M1009.436,497.879c0,0,4.572-2.061,5.797-3.284c1.223-1.224,3.928-3.799,4.186-4.895
			c0.258-1.095-0.172-4.314,0.129-4.765c0.301-0.451,1.33-3.628,1.545-5.217s-0.043-2.962,0-4.25
			c0.043-1.287,0.043-3.004-0.258-3.864c-0.3-0.858-0.771-1.674-0.771-1.674s0.858-0.429,0.771-1.545
			c-0.086-1.116-0.879-2.94-0.707-3.671c0.171-0.729,0.149-2.425,0.063-3.413c-0.085-0.988-0.729-3.392-1.417-3.864
			c-0.686-0.472-1.287-0.043-2.704,0s-3.349-1.331-5.796-1.288c-2.447,0.043-4.766,4.98-5.41,4.895
			c-0.644-0.086-0.771-4.98-1.416-5.023c-0.644-0.043-1.632,1.159-2.318,1.417s-1.202,0-1.803,0.387
			c-0.602,0.386-0.387,1.288-1.289,1.417c-0.9,0.129-5.709,3.22-7.984,4.507c-2.275,1.289-9.145,5.668-9.145,5.668L1009.436,497.879
			z"/>
		<path fill="#FFFFFF" d="M986.574,473.666c-0.369-0.759-0.691-1.538-0.965-2.335c0.113-0.354-0.156-1.098-0.193-1.529
			c-0.044-0.505,0.185-1.023,0.547-1.391c0.61-0.62,1.732-1.037,2.576-0.701c0.412,0.165,0.747,0.553,1.03,0.901
			c0.409,0.504,0.478,1.11,0.994,0.418c0.562-0.753,1.089-1.914,1.314-2.811c0.537,0.056,0.634-0.561,0.847-0.93
			c0.291-0.502,0.381-0.542,0.934-0.638c0.479-0.084,0.67-0.232,1.062-0.483c0.236-0.15,0.184-0.264,0.48-0.267
			c0.284-0.002,0.413,0.338,0.753,0.212c0.069-0.396,0.56-0.74,0.796-1.01c0.257-0.297,0.547-0.647,0.873-0.935
			c0.332-0.293,0.558-0.508,1.033-0.453c0,0,0.521,0.213,0.541,0.221c0.274,0.123,0.551,0.295,0.746,0.529
			c0.279,0.331,0.227,0.686,0.438,1.001c0.244,0.365,0.65,0.545,0.848,0.956c0.087,0.18,0.113,0.422,0.161,0.612
			c0.081,0.326,0.154,0.342,0.292,0.611c0.266,0.518,0.277,0.683,0.57,0.029c0.709-1.584,1.668-3.23,3.26-4.114
			c1.154-0.642,1.925-1.595,3.25-1.906c0.559-0.131,1.041,0.01,0.741,0.621c-0.21,0.428-0.65,0.541-0.885,0.934
			c0.31,0.723,2.836,0.347,1.622,1.864c-0.57,0.714-1.555,1.184-2.016,1.929c1.439,0.594-0.593,1.472,0.02,2.191
			c0.326,0.381,0.821,0.231,1.256,0.284c0.475,0.058,0.865,0.221,1.284,0.397c0.789,0.331,1.695,0.695,2.358,1.249
			c0.561,0.471,0.951,1.257,1.465,1.848c-0.968-0.147-1.936-0.28-2.924-0.523c-0.861-0.212-2.001-0.379-2.812,0.028
			c0.229,0.286-0.19,0.393-0.13,0.722c0.317,0.005,0.701,0.16,0.611,0.518c-0.954,0.114-1.918-0.224-2.902-0.242
			c0.805,0.156,2.756,0.797,3.008,1.716c-0.445,0.237-1.196,0.066-1.664,0.188c-0.455,0.118-0.904,0.186-1.356,0.318
			c-0.405,0.118-0.873,0.37-1.288,0.514c-0.297,0.104-1.193,0.167-1.304,0.461c0.937,0.148,1.774,0.15,2.692,0.376
			c0.832,0.206,1.798,0.254,2.543,0.712c0.606,0.371,1.219,0.924,1.448,1.643c0.124,0.383-0.144,0.723-0.009,1.166
			c0.133,0.439,0.677,0.729,0.77,1.255c-0.396,0.204-0.77,0.254-1.149,0.408c-0.338,0.139-0.478,0.409-0.877,0.412
			c-0.013,0.071-0.027,0.142-0.046,0.211c-0.244,0.083-0.381,0.209-0.617,0.286c-0.26,0.084-0.502,0.054-0.771,0.157
			c-0.637,0.246-1.216,0.185-1.807,0.584c-0.473,0.32-0.873,0.817-1.407,1.059c-0.598,0.271-1.238,0.403-1.786,0.641
			c-0.043-0.125-0.051-0.252-0.026-0.383l-11.592,0.516L986.574,473.666z"/>
		<path fill="#FFFFFF" d="M1002.996,513.142c1.224,0.064,5.731-4.959,5.731-4.959s0.258,0.837,0.387,0.644
			c0.129-0.193,0.644-1.03,0.708-2.576c0.064-1.545,0.064-3.477,0.064-3.477s0.451,0.579,0.58,0.193
			c0.129-0.387-0.709-2.126-0.645-3.285c0.064-1.159,0.58-1.932,0.193-2.833c-0.387-0.901-10.176,0.129-11.656,0.644
			s-5.73,4.057-5.73,4.057S1001.772,513.077,1002.996,513.142z"/>
		<path fill="#FFFFFF" d="M993.787,502.13c0,0,1.675-1.61,3.992-2.577c2.319-0.966,10.948-2.382,12.236-2.704
			c1.287-0.322,3.413-2.576,3.606-3.736c0.193-1.159-1.868-6.053-2.833-7.856c-0.967-1.803-8.051-3.671-8.759-4.122
			s0.579-1.224-1.288-2.318s-4.701,0.064-5.925,0.902c-1.224,0.837-7.728,20.994-7.728,20.994L993.787,502.13z"/>
		<path fill="#FFFFFF" d="M989.988,501.034c1.292,0.422,2.574,0.085,3.588-0.785c0.258-0.222,0.484-0.438,0.725-0.696
			c0.268-0.288,0.424-0.582,0.646-0.901c0.373-0.538,0.316-0.973,0.396-1.6c0.577-0.074,1.19,0.068,1.732-0.137
			c0.401-0.151,0.868-0.523,1.173-0.822c0.369-0.36,0.748-0.936,0.885-1.437c0.064-0.24,0.156-0.455,0.193-0.706
			c0.043-0.296,0.035-0.591,0.074-0.892c0.506,0.011,0.982-0.648,1.133-1.056c0.228-0.612,0.186-1.199-0.105-1.773
			c0.43-0.054,0.74-0.608,0.846-0.979c0.133-0.465,0.289-0.968,0.242-1.482c-0.023-0.243-0.071-0.487-0.127-0.71
			c-0.068-0.273-0.178-0.441-0.31-0.708c-0.205-0.415-0.48-0.798-0.787-1.158c-0.138-0.161-0.243-0.321-0.337-0.5
			c-0.153-0.295-0.014-0.392,0.014-0.723c0.048-0.562,0.109-0.926-0.176-1.433c-0.225-0.397-0.391-0.744-0.741-1.062
			c-0.317-0.288-0.747-0.597-1.128-0.808c-0.223-0.122-0.491-0.27-0.738-0.353c-0.147-0.049-0.297-0.091-0.436-0.144
			c-0.068-0.026-0.119-0.03-0.189-0.064c-0.172-0.085-0.11-0.072-0.195-0.194c-0.328-0.47-0.604-1.097-0.904-1.608
			c-0.296-0.506-0.677-0.968-1.109-1.401c-0.529-0.528-1.124-0.717-1.852-0.724l-2.963-1.932l-5.795-3.22l-6.247,8.372l2.962,11.527
			L989.988,501.034z"/>
		<path fill="#808285" d="M994.99,520.29c0,0,1.846,0.516,2.704,0.687c0.858,0.172,2.79,0,3.134,0.129s0.172,0.558-0.43,0.858
			c-0.601,0.3-2.361,0.3-2.919,0.429c-0.559,0.129-1.03,0.645-1.03,0.645L994.99,520.29z"/>
		<path fill="#808285" d="M980.822,533.684c0,0,0.043,1.202,0.301,1.589c0.258,0.386,0.514,1.03,0.344,1.545
			c-0.172,0.515-1.375-0.214-1.975,0.515C978.891,538.063,980.822,533.684,980.822,533.684z"/>
		<path fill="#808285" d="M975.026,537.591c0,0-2.876,0.172-3.949,0.258c-1.073,0.085-1.847,0-2.962,0.215
			c-1.117,0.214-2.189,1.03-1.933,1.116c0.258,0.085,1.116-0.129,2.018,0.042s3.692,0.473,3.692,0.473L975.026,537.591z"/>
		<path fill="#808285" d="M981.509,522.393c0,0-0.3,3.821-1.931,7.771c-1.633,3.95-2.705,5.667-3.822,6.612
			c-1.115,0.944-2.747,1.932-4.465,2.619c-1.717,0.687-5.108,1.03-6.01,1.545c-0.902,0.515-1.589,0.644-1.932,1.202
			c-0.344,0.559-0.559,1.074-0.301,1.116c0.258,0.043,1.975-0.644,3.734-0.944c1.761-0.301,6.139-1.116,6.955-1.245
			s2.018-0.901,2.49-0.773c0.473,0.129,0.258,0.945,0.645,1.674c0.387,0.73,1.674,1.631,1.975,1.502s-0.515-1.459-0.43-1.975
			c0.086-0.515,1.503-1.502,1.675-2.104c0.172-0.601-0.172-2.576,0.43-4.079c0.601-1.502,5.581-12.664,5.581-12.664L981.509,522.393
			z"/>
		<path fill="#808285" d="M991.04,519.646c0,0,0.687,2.49,0.729,3.134s0.129,1.331-0.086,1.932c-0.215,0.601-1.76,1.932-2.747,2.49
			c-0.987,0.558-4.507,1.46-5.066,1.76c-0.559,0.301-0.858,0.602-0.687,0.687c0.172,0.086,1.159,0.086,1.287,0.171
			c0.129,0.086,0.645,0.043,1.117,0.043s1.115-0.515,1.846-0.515c0.729,0,1.331,0.085,2.232-0.172
			c0.901-0.258,2.275-1.288,2.49-1.03c0.215,0.258,0.086,1.031-0.602,1.846c-0.687,0.815-1.545,1.588-1.975,2.104
			c-0.429,0.515-0.473,1.288-0.515,1.76c-0.044,0.472,0.515,1.288,0.858,1.374s0.644-0.644,0.944-1.288
			c0.3-0.644,3.306-2.447,3.649-3.434c0.343-0.988,0.815-2.147,1.202-2.491c0.386-0.343,0.687-0.429,1.073-0.172
			s0.858,1.331,1.416,2.189c0.559,0.859,2.018,2.147,2.748,2.405c0.729,0.258,1.159,0.687,1.331,0.214
			c0.171-0.472-2.104-2.705-2.532-4.25c-0.43-1.546-1.117-2.318-1.719-3.392c-0.601-1.073-1.717-3.263-2.404-4.25
			c-0.686-0.987-1.244-2.276-1.244-2.276l-2.146,0.172L991.04,519.646z"/>
		<path fill="#FFFFFF" d="M978.59,518.744c0,0,0.086,1.761,0.645,2.49c0.558,0.73,2.833,2.619,4.722,2.576
			c1.889-0.042,9.831-5.281,10.003-5.839c0.172-0.559-9.659-2.189-9.659-2.189L978.59,518.744z"/>
		<path fill="#FFFFFF" d="M975.435,462.46c0,0,1.996,1.803,2.704,2.769c0.709,0.966,4.187,3.735,4.895,4.765
			c0.709,1.031,2.254,2.254,2.061,2.898c-0.193,0.645-1.867,0.064-1.867,0.064s1.095,1.739,0.838,2.125
			c-0.258,0.386-1.225,0.386-1.225,0.386s0.709,1.159,0.193,1.739c-0.515,0.579-1.803,0.257-1.803,0.257s0.579,1.481-0.064,2.061
			c-0.645,0.58-1.096,0.966-2.125,0.322c-0.475-0.296-1.982-1.654-3.473-3.035c-1.754-1.622-2.709-2.504-3.482-3.276
			c-0.773-0.773-2.641-3.413-2.641-3.413L975.435,462.46z"/>
		<path fill="#FFFFFF" d="M972.149,457.18c0.038,0.242,0.226,0.367,0.386,0.528c0.154,0.155,0.294,0.34,0.465,0.485
			c0.465,0.394,0.812,0.835,1.196,1.309c0.55,0.677,1.069,1.418,1.304,2.249c0.139,0.492,0.293,0.898,0.561,1.353
			c0.275,0.466,0.607,0.918,0.904,1.368c0.505,0.767,0.975,1.586,1.352,2.432c0.707,1.591,1.619,3.035,2.143,4.636
			c0.555,1.697,1.131,3.52,0.891,5.401c-0.482,0.097-0.893-0.357-1.23-0.618c-0.327-0.252-0.648-0.556-0.934-0.869
			c-0.146-0.161-0.215-0.267-0.4-0.386c-0.242-0.157-0.406-0.312-0.583-0.562c-0.166-0.234-0.296-0.49-0.499-0.713
			c-0.188-0.205-0.395-0.391-0.547-0.637c-1.165-1.882-8.384-14.541-8.548-14.751L972.149,457.18z"/>
		<path fill="#FFFFFF" d="M974.404,467.806c0.034,0.372,0.429,0.856,0.656,1.155c0.336,0.441,0.703,0.87,1.02,1.338
			c0.562,0.835,0.947,1.737,1.351,2.658c0.391,0.894,0.661,1.754,0.887,2.655c0.054,0.214,0.119,0.412,0.144,0.63
			c0.023,0.208,0.146,0.568,0.068,0.775c-0.075,0.197-0.345,0.235-0.518,0.256c-0.287,0.034-0.488-0.062-0.727-0.179
			c-0.65-0.32-1.373-0.624-1.916-1.114c-0.297-0.266-0.648-0.372-0.917-0.689c-0.267-0.315-0.523-0.642-0.806-0.933
			c-0.28-0.291-0.51-0.595-0.772-0.902c-0.254-0.297-0.562-0.565-0.79-0.884c-0.196-0.272-0.378-0.582-0.498-0.905
			c-0.092-0.252-0.176-0.743-0.338-0.9l0.58-2.576L974.404,467.806z"/>
		<path fill="#FFFFFF" d="M950.727,467.011c0,0,0.344,5.924-0.172,8.93c-0.515,3.005-1.201,10.561-0.6,15.456
			c0.6,4.894,4.293,12.277,6.611,14.424s4.035,3.092,5.322,3.95c1.289,0.858,1.289,1.374,1.89,1.717
			c0.602,0.343,1.202,0.343,1.202,0.343s2.49,1.375,4.208,3.091c1.717,1.717,2.06,2.232,3.005,2.748
			c0.943,0.515,1.46,0.515,2.662,0.859c1.201,0.343,3.348,0.944,4.723,0.944c1.373,0,2.403-2.232,2.403-2.232
			s1.03,0.687,1.804,0.687c0.772,0,1.373-0.858,1.373-0.858s1.89,1.717,2.92,1.889c1.03,0.172,1.889-0.601,1.889-0.601
			s2.147,0.772,3.178,0.858c1.029,0.086,2.576-1.116,2.576-1.116l1.459-0.601c0,0,2.318-0.257,3.605-0.687
			c1.289-0.429,3.521-1.889,3.864-2.49c0.344-0.601,0.602-1.374-0.171-2.146c-0.773-0.772-0.945-0.945-1.891-1.46
			c-0.943-0.515-1.974-0.772-1.974-0.772s1.974-1.89,0.858-2.748c-1.116-0.859-1.976-1.03-1.976-1.03s1.03-2.233-0.772-3.435
			c-1.804-1.202-3.52-1.632-4.551-1.89c-1.03-0.257-1.803,0.172-1.803,0.172s-1.03-0.258-1.804-0.687
			c-0.772-0.43-1.288-0.43-1.288-0.43s0.516-2.404-0.687-3.435c-1.202-1.029-2.575-1.717-2.575-1.717s0.6-1.289-0.344-2.576
			c-0.945-1.288-3.178-1.804-3.178-1.804s-0.172-0.6-0.515-1.201c-0.343-0.601-0.772-1.117-0.772-1.117s0.687-0.944,0.515-1.889
			c-0.171-0.945-0.515-1.631-0.515-1.631s1.03-0.687,0.43-1.546c-0.602-0.858-2.318-1.631-2.318-1.631s0.6-0.601,0.172-1.288
			c-0.778-1.245-8.845-9.102-8.845-9.102l-13.48-3.263L950.727,467.011z"/>
		
			<linearGradient id="SVGID_3_" gradientUnits="userSpaceOnUse" x1="948.8145" y1="1143.9121" x2="955.8672" y2="1143.3783" gradientTransform="matrix(1 0 0 -1 0 1600.3535)">
			<stop  offset="0.1559" style="stop-color:#75413D"/>
			<stop  offset="0.3817" style="stop-color:#9E7149"/>
			<stop  offset="0.6398" style="stop-color:#B58D4C"/>
			<stop  offset="0.8065" style="stop-color:#B58D4C"/>
			<stop  offset="1" style="stop-color:#98906B"/>
		</linearGradient>
		<path fill="url(#SVGID_3_)" d="M951.122,466.251c0.097-0.418,0.041-0.868,0.15-1.288c0.096-0.363,0.028-0.787-0.011-1.149
			c-0.039-0.361-0.005-0.766-0.224-1.071c-0.1-0.138-0.228-0.224-0.251-0.398c-0.029-0.196-0.023-0.283-0.152-0.45
			c-0.129-0.167-0.246-0.258-0.271-0.47c-0.023-0.193,0.016-0.376,0.047-0.554c0.025-0.138,0.01-0.151,0.095-0.266
			c0.042-0.057,0.106-0.083,0.142-0.148c0.062-0.114,0.082-0.335,0.098-0.458c0.047-0.377,0.045-0.772,0.045-1.152
			c0-0.388-0.051-0.775-0.048-1.149c0.003-0.381-0.061-0.819,0.009-1.191c0.141,0.085,0.51,0.247,0.666,0.101
			c0.123-0.114,0.103-0.499,0.127-0.658c0.037-0.235,0.047-0.479,0.049-0.735c0.002-0.255-0.119-0.446-0.095-0.7
			c0.025-0.258,0.026-0.556,0.097-0.82c0.057-0.207,0.09-0.412,0.092-0.642c0.004-0.32-0.278-0.35-0.238-0.646
			c0.028-0.211,0.062-0.366,0.191-0.544c0.227,0.09,0.311,0.247,0.482,0.396c0.203,0.177,0.362,0.347,0.561,0.059
			c0.095-0.138,0.236-0.391,0.283-0.55c0.036-0.127-0.029-0.303,0.137-0.373c0.076-0.033,0.24,0.006,0.326-0.004
			c-0.004-0.143,0.104-0.314,0.159-0.447c0.136,0.073,0.312,0.219,0.474,0.098c0.15-0.11,0.068-0.35,0.09-0.511
			c0.275-0.097,0.363,0.353,0.646,0.262c0.059-0.195-0.077-0.547-0.133-0.73c-0.059-0.197-0.121-0.396-0.19-0.598
			c-0.146-0.419-0.481-0.977-0.418-1.446c0.271,0.119,0.469,0.373,0.749,0.48c0.241,0.093,0.612,0.497,0.893,0.405
			c-0.083-0.121-0.154-0.311-0.232-0.453c-0.056-0.103-0.108-0.189-0.176-0.285c-0.168-0.236-0.323-0.487-0.496-0.713
			c-0.152-0.199-0.271-0.408-0.426-0.598c-0.094-0.116-0.227-0.203-0.166-0.369c0.04-0.112,0.174-0.119,0.219-0.23
			c-0.113-0.016-0.172-0.143-0.287-0.184c-0.125-0.044-0.229-0.058-0.357-0.115c-0.255-0.115-0.488,0.109-0.719-0.097
			c0,0-0.812,0.677-1.238,0.87c-0.426,0.192-1.939,1.729-2.357,2.325c-0.31,0.44-0.854,1.562-1.414,2.795
			c0.05,0.661,0.029,1.481,0.189,2.541c0.343,2.275,1.309,5.968,1.373,7.47c0.064,1.503,0.816,3.971,1.117,5.152
			c0.042,0.169,0.088,0.332,0.136,0.488c0.05-0.174,0.074-0.375,0.126-0.558C951.054,466.714,951.069,466.479,951.122,466.251z"/>
		<path fill="#72441A" d="M946.863,443.706c0.795-0.165,1.192,0.249,1.352,0.745c0.16,0.496-0.396,1.157-0.954,1.241
			c-0.558,0.083-1.114,0-1.353-0.662C945.669,444.368,946.066,443.871,946.863,443.706z"/>
		<path fill="#FFFFFF" d="M948.237,454.39c0.343,2.275,1.31,5.967,1.374,7.47c0.064,1.502,0.815,3.971,1.115,5.152
			c0.301,1.181,0.73,2.083,1.031,2.146c0.3,0.064,0.687-1.374,0.687-1.374s1.117,3.671,1.46,4.035
			c0.344,0.365,1.095,0.988,1.459,1.031c0.365,0.043,0.516-3.349,0.516-3.349s1.417,0.794,1.89,0.773
			c0.472-0.021,0.601-0.858,0.601-0.858s4.314,2.748,4.894,2.662s1.546-0.172,1.546-0.172s0.752,0.58,1.374,0.43
			s0.858-0.859,0.858-0.859s2.232,2.984,3.35,3.006c1.115,0.021,0.429-2.576,0.429-2.576s0.709,0.43,1.374,0.258
			c0.666-0.172,0.772-3.349,0.772-3.349s0.816,0.515,1.288,0.171c0.472-0.343,0.838-0.579,0.688-1.459
			c-0.15-0.88-2.146-5.066-2.146-5.066s0.043-1.138-0.172-1.889s-1.546-2.49-1.546-2.49s1.46,0.215,1.718-0.343
			c0.257-0.558,0.687-0.708,0.601-1.116c-0.087-0.408-2.232-1.545-2.232-1.545s-0.429-2.469-0.687-2.919
			c-0.258-0.451-0.43-0.601-0.43-0.601s0.129-0.257-0.172-0.859c-0.301-0.601-1.717-1.116-1.717-1.116s0.064-1.03-0.516-1.545
			c-0.58-0.516-1.545-0.516-1.545-0.516s-2.727-4.465-4.552-5.581c-1.824-1.116-8.8-2.941-10.818-2.834s-2.554,0.021-4.637,0.515
			c-2.082,0.494-4.894,4.831-5.581,7.042c-0.688,2.21,4.947,2.854,6.127,3.691C947.816,451.191,947.895,452.114,948.237,454.39z"/>
		<path fill="#FFFFFF" d="M951.122,466.251c0.097-0.418,0.041-0.868,0.15-1.288c0.096-0.363,0.028-0.787-0.011-1.149
			c-0.039-0.361-0.005-0.766-0.224-1.071c-0.1-0.138-0.228-0.224-0.251-0.398c-0.029-0.196-0.023-0.283-0.152-0.45
			c-0.129-0.167-0.246-0.258-0.271-0.47c-0.023-0.193,0.016-0.376,0.047-0.554c0.025-0.138,0.01-0.151,0.095-0.266
			c0.042-0.057,0.106-0.083,0.142-0.148c0.062-0.114,0.082-0.335,0.098-0.458c0.047-0.377,0.045-0.772,0.045-1.152
			c0-0.388-0.051-0.775-0.048-1.149c0.003-0.381-0.061-0.819,0.009-1.191c0.141,0.085,0.51,0.247,0.666,0.101
			c0.123-0.114,0.103-0.499,0.127-0.658c0.037-0.235,0.047-0.479,0.049-0.735c0.002-0.255-0.119-0.446-0.095-0.7
			c0.025-0.258,0.026-0.556,0.097-0.82c0.057-0.207,0.09-0.412,0.092-0.642c0.004-0.32-0.278-0.35-0.238-0.646
			c0.028-0.211,0.062-0.366,0.191-0.544c0.227,0.09,0.311,0.247,0.482,0.396c0.203,0.177,0.362,0.347,0.561,0.059
			c0.095-0.138,0.236-0.391,0.283-0.55c0.036-0.127-0.029-0.303,0.137-0.373c0.076-0.033,0.24,0.006,0.326-0.004
			c-0.004-0.143,0.104-0.314,0.159-0.447c0.136,0.073,0.312,0.219,0.474,0.098c0.15-0.11,0.068-0.35,0.09-0.511
			c0.275-0.097,0.363,0.353,0.646,0.262c0.059-0.195-0.077-0.547-0.133-0.73c-0.059-0.197-0.121-0.396-0.19-0.598
			c-0.146-0.419-0.481-0.977-0.418-1.446c0.271,0.119,0.469,0.373,0.749,0.48c0.241,0.093,0.612,0.497,0.893,0.405
			c-0.083-0.121-0.154-0.311-0.232-0.453c-0.056-0.103-0.108-0.189-0.176-0.285c-0.168-0.236-0.323-0.487-0.496-0.713
			c-0.152-0.199-0.271-0.408-0.426-0.598c-0.094-0.116-0.227-0.203-0.166-0.369c0.04-0.112,0.174-0.119,0.219-0.23
			c-0.113-0.016-0.172-0.143-0.287-0.184c-0.125-0.044-0.229-0.058-0.357-0.115c-0.255-0.115-0.488,0.109-0.719-0.097
			c0,0-0.812,0.677-1.238,0.87c-0.426,0.192-1.939,1.729-2.357,2.325c-0.31,0.44-0.854,1.562-1.414,2.795
			c0.05,0.661,0.029,1.481,0.189,2.541c0.343,2.275,1.309,5.968,1.373,7.47c0.064,1.503,0.816,3.971,1.117,5.152
			c0.042,0.169,0.088,0.332,0.136,0.488c0.05-0.174,0.074-0.375,0.126-0.558C951.054,466.714,951.069,466.479,951.122,466.251z"/>
		<path fill="#808285" d="M942.656,449.367c-0.129,0.343-0.086,0.687-0.086,1.245c0,0.558,2.619,4.25,3.52,4.165
			c0.902-0.086,1.332-0.043,2.147-0.386c0.815-0.344,1.567-3.583,1.353-3.927c-0.215-0.343-2.812-0.796-3.629-0.882
			c-0.814-0.086-2.232-0.43-2.617-0.516C942.957,448.979,942.785,449.023,942.656,449.367z"/>
		<path fill="#A7A9AC" d="M941.496,445.846c0,0-0.515-0.387-1.094-0.644c-0.58-0.257-1.417-0.193-1.417-0.193
			s0.45-0.419,1.127-0.708c0.676-0.29,1.449-0.612,1.449-0.612s-1.867-2.125-2.479-2.543c-0.611-0.419-0.805-0.87-0.709-1.256
			c0.098-0.386,0.741-0.45,1.707-0.515c0.967-0.064,2.673,0.129,2.995,0.032c0.321-0.096,1.481-1.126,2.124-1.159
			c0.645-0.032,1.418,0.064,1.771,0.354c0.354,0.289,0.741,1.127,0.387,1.384c-0.354,0.258-2.93,1.643-3.542,2.77
			c-0.612,1.127-1.578,2.897-1.739,2.994C941.916,445.846,941.496,445.846,941.496,445.846z"/>
		<path fill="#808285" d="M941.496,445.846c0,0,0.369-0.281,0.391-0.852c0.021-0.571-0.325-1.306-0.325-1.306
			s-1.867-2.125-2.479-2.544c-0.611-0.418-0.805-0.869-0.709-1.255c0.098-0.386,0.741-0.451,1.707-0.515
			c0.967-0.064,2.673,0.129,2.995,0.032c0.321-0.097,1.481-1.127,2.124-1.159c0.645-0.032,1.418,0.064,1.771,0.354
			c0.354,0.289,0.741,1.126,0.387,1.384c-0.354,0.258-2.93,1.643-3.542,2.77s-1.578,2.898-1.739,2.995
			C941.916,445.846,941.496,445.846,941.496,445.846z"/>
		<path fill="#808285" d="M947.808,443.431c0.097,0.193,0.653,0.351,0.813,0.676c0.113,0.232,0.148,0.485,0.152,0.741
			c0.004,0.212-0.111,0.417-0.201,0.612c-0.048,0.104-0.11,0.197-0.178,0.291c-0.054,0.075-0.746,0.53-0.387,0.796
			c0.172,0.127,0.496,0.093,0.667,0.001c0.131-0.071,0.253-0.129,0.389-0.187c0.132-0.057,0.255-0.056,0.386-0.105
			c0.24-0.092,0.467-0.103,0.645-0.313c0.355-0.424,0.483-0.839,0.483-1.384c0-0.239,0.03-0.529-0.071-0.734
			c-0.122-0.248-0.334-0.419-0.566-0.528c-0.252-0.12-0.458-0.187-0.747-0.187c-0.132,0-0.276-0.014-0.394,0.025
			C948.678,443.173,947.711,443.237,947.808,443.431z"/>
		<path fill="#FFFFFF" d="M949.783,450.482c0.274,0.052,0.477-0.598,0.943-0.815c0.701-0.327,1.735-0.309,2.404-0.516
			c1.117-0.343,0.172-2.833,0.172-2.833s-1.717,1.203-2.404,1.803C950.212,448.723,949.096,450.354,949.783,450.482z"/>
		<path fill="#C7C8CA" d="M946.855,443.84c0.725-0.145,1.087,0.218,1.232,0.652c0.145,0.435-0.362,1.014-0.869,1.087
			c-0.508,0.072-1.016,0-1.232-0.58C945.77,444.42,946.131,443.985,946.855,443.84z"/>
		<path fill="#25160C" d="M946.949,444.214c0.43-0.086,0.644,0.129,0.73,0.387c0.086,0.257-0.215,0.601-0.516,0.644
			c-0.301,0.042-0.602,0-0.73-0.344C946.305,444.558,946.52,444.3,946.949,444.214z"/>
		<path fill="#C7C8CA" d="M939.221,446.232c-0.343,0.172-1.373,1.675-1.717,2.318c-0.344,0.644-0.602,1.459-0.687,2.018
			c-0.087,0.558-0.129,1.245,0.128,1.202c0.258-0.043,1.203-0.901,2.232-1.417c0.496-0.248,1.479-0.812,2.363-1.064
			c0.957-0.272,1.63-0.051,1.801-0.223c0.173-0.172,0.044-0.815-0.257-1.159c-0.3-0.344-1.331,0.042-1.589-0.344
			c-0.258-0.387,0.301-1.546,0-1.718C941.196,445.674,939.564,446.061,939.221,446.232z"/>
		<path fill="#808285" d="M939.682,447.429c0.113-0.161,0.337-0.233,0.486-0.348c0.19-0.145,0.359-0.304,0.627-0.24
			c-0.097,0.199-0.621,0.643-0.844,0.594C939.951,447.435,939.656,447.437,939.682,447.429z"/>
		<path fill="#808285" d="M939.371,446.812c-0.322-0.064-0.387-1.803-0.387-1.803s0.838-0.064,1.418,0.193
			c0.578,0.257,1.094,0.644,1.094,0.644S939.693,446.876,939.371,446.812z"/>
	</g>
	<g>
		<path fill="#FFFFFF" d="M1101.189,496.081c0,0,3.348-12.879,4.637-15.842c1.288-2.962,4.379-6.954,6.053-9.015
			c1.675-2.061,3.736-4.122,4.637-4.379c0.902-0.257,2.061-0.258,2.705,0.129c0.644,0.387,0.644,1.481,0.386,2.705
			c-0.257,1.224-0.901,1.803-0.901,1.803s0.322,0.644,0.387,1.804c0.064,1.159-0.258,2.189-0.258,2.189s1.096,0,1.288,0.387
			c0.193,0.386-0.129,1.03-0.129,1.03s1.095,0.322,1.159,0.902c0.064,0.579,0.193,2.897,0,4.765s-0.773,5.216-1.03,6.053
			c-0.258,0.837-0.709,1.61-0.644,2.318c0.064,0.708,0.45,2.125,0.515,3.606s-1.481,5.796-1.481,5.796l-1.996,2.189l-14.554-1.288
			L1101.189,496.081z"/>
		<path fill="#FFFFFF" d="M1102.863,495.373c0-1.123,0.049-2.323,0.272-3.413c0.094-0.456,0.319-0.85,0.438-1.287
			c0.118-0.434,0.213-0.892,0.318-1.354c0.25-1.093,0.43-2.225,0.839-3.279c0.178-0.457,0.283-0.884,0.495-1.308
			c0.205-0.409,0.496-0.783,0.713-1.141c0.074,0.389-0.067,3.242,0.259,3.272c0.224-0.169,0.349-0.68,0.417-0.954
			c0.087-0.357,0.167-0.669,0.239-1.037c0.159-0.809,0.583-1.57,1.085-2.252c0.254-0.344,0.49-0.604,0.836-0.85
			c0.266-0.188,0.514-0.453,0.734-0.691c0.264-0.285,0.508-0.568,0.774-0.842c0.187-0.194,0.608-0.683,0.877-0.636
			c0.04,0.32-0.03,0.55-0.131,0.829c-0.111,0.306-0.236,0.661-0.39,0.971c-0.265,0.533-0.506,1.073-0.756,1.607
			c-0.434,0.925-0.843,1.892-1.137,2.839c0.34-0.083,0.558-0.301,0.83-0.508c0.219-0.166,0.468-0.287,0.689-0.416
			c0.239-0.138,0.428-0.248,0.695-0.324c0.182-0.051,0.518-0.239,0.717-0.166c-0.039,0.366-0.701,0.777-0.943,1.037
			c-0.187,0.2-0.379,0.341-0.581,0.512c-0.229,0.195-0.407,0.526-0.606,0.756c-0.372,0.432-0.833,0.763-1.211,1.177
			c-0.346,0.378-0.702,0.743-1.047,1.128c-0.711,0.793-1.326,1.7-1.899,2.606c-0.257,0.407-0.396,0.903-0.546,1.325
			c-0.146,0.411-0.34,0.82-0.517,1.222c-0.224,0.508-0.5,0.97-0.694,1.499c-0.084,0.229-0.148,0.461-0.205,0.707
			c-0.035,0.146-0.088,0.289-0.131,0.437c-0.031,0.105-0.056,0.295-0.113,0.271L1102.863,495.373z"/>
		<path fill="#FFFFFF" d="M1107.436,535.879c0,0,4.572-2.061,5.797-3.284c1.223-1.224,3.928-3.799,4.186-4.895
			c0.258-1.095-0.172-4.314,0.129-4.765c0.301-0.451,1.33-3.628,1.545-5.217s-0.043-2.962,0-4.25
			c0.043-1.287,0.043-3.004-0.258-3.864c-0.3-0.858-0.771-1.674-0.771-1.674s0.858-0.429,0.771-1.545
			c-0.086-1.116-0.879-2.94-0.707-3.671c0.171-0.729,0.149-2.425,0.063-3.413c-0.085-0.988-0.729-3.392-1.417-3.864
			c-0.686-0.472-1.287-0.043-2.704,0s-3.349-1.331-5.796-1.288c-2.447,0.043-4.766,4.98-5.41,4.895
			c-0.644-0.086-0.771-4.98-1.416-5.023c-0.644-0.043-1.632,1.159-2.318,1.417s-1.202,0-1.803,0.387
			c-0.602,0.386-0.387,1.288-1.289,1.417c-0.9,0.129-5.709,3.22-7.984,4.507c-2.275,1.289-9.145,5.668-9.145,5.668L1107.436,535.879
			z"/>
		<path fill="#FFFFFF" d="M1084.574,511.666c-0.369-0.759-0.691-1.538-0.965-2.335c0.113-0.354-0.156-1.098-0.193-1.529
			c-0.044-0.505,0.185-1.023,0.547-1.391c0.61-0.62,1.732-1.037,2.576-0.701c0.412,0.165,0.747,0.553,1.03,0.901
			c0.409,0.504,0.478,1.11,0.994,0.418c0.562-0.753,1.089-1.914,1.314-2.811c0.537,0.056,0.634-0.561,0.847-0.93
			c0.291-0.502,0.381-0.542,0.934-0.638c0.479-0.084,0.67-0.232,1.062-0.483c0.236-0.15,0.184-0.264,0.48-0.267
			c0.284-0.002,0.413,0.338,0.753,0.212c0.069-0.396,0.56-0.74,0.796-1.01c0.257-0.297,0.547-0.647,0.873-0.935
			c0.332-0.293,0.558-0.508,1.033-0.453c0,0,0.521,0.213,0.541,0.221c0.274,0.123,0.551,0.295,0.746,0.529
			c0.279,0.331,0.227,0.686,0.438,1.001c0.244,0.365,0.65,0.545,0.848,0.956c0.087,0.18,0.113,0.422,0.161,0.612
			c0.081,0.326,0.154,0.342,0.292,0.611c0.266,0.518,0.277,0.683,0.57,0.029c0.709-1.584,1.668-3.23,3.26-4.114
			c1.154-0.642,1.925-1.595,3.25-1.906c0.559-0.131,1.041,0.01,0.741,0.621c-0.21,0.428-0.65,0.541-0.885,0.934
			c0.31,0.723,2.836,0.347,1.622,1.864c-0.57,0.714-1.555,1.184-2.016,1.929c1.439,0.594-0.593,1.472,0.02,2.191
			c0.326,0.381,0.821,0.231,1.256,0.284c0.475,0.058,0.865,0.221,1.284,0.397c0.789,0.331,1.695,0.695,2.358,1.249
			c0.561,0.471,0.951,1.257,1.465,1.848c-0.968-0.147-1.936-0.28-2.924-0.523c-0.861-0.212-2.001-0.379-2.812,0.028
			c0.229,0.286-0.19,0.393-0.13,0.722c0.317,0.005,0.701,0.16,0.611,0.518c-0.954,0.114-1.918-0.224-2.902-0.242
			c0.805,0.156,2.756,0.797,3.008,1.716c-0.445,0.237-1.196,0.066-1.664,0.188c-0.455,0.118-0.904,0.186-1.356,0.318
			c-0.405,0.118-0.873,0.37-1.288,0.514c-0.297,0.104-1.193,0.167-1.304,0.461c0.937,0.148,1.774,0.15,2.692,0.376
			c0.832,0.206,1.798,0.254,2.543,0.712c0.606,0.371,1.219,0.924,1.448,1.643c0.124,0.383-0.144,0.723-0.009,1.166
			c0.133,0.439,0.677,0.729,0.77,1.255c-0.396,0.204-0.77,0.254-1.149,0.408c-0.338,0.139-0.478,0.409-0.877,0.412
			c-0.013,0.071-0.027,0.142-0.046,0.211c-0.244,0.083-0.381,0.209-0.617,0.286c-0.26,0.084-0.502,0.054-0.771,0.157
			c-0.637,0.246-1.216,0.185-1.807,0.584c-0.473,0.32-0.873,0.817-1.407,1.059c-0.598,0.271-1.238,0.403-1.786,0.641
			c-0.043-0.125-0.051-0.252-0.026-0.383l-11.592,0.516L1084.574,511.666z"/>
		<path fill="#FFFFFF" d="M1100.996,551.142c1.224,0.064,5.731-4.959,5.731-4.959s0.258,0.837,0.387,0.644
			c0.129-0.193,0.644-1.03,0.708-2.576c0.064-1.545,0.064-3.477,0.064-3.477s0.451,0.579,0.58,0.193
			c0.129-0.387-0.709-2.126-0.645-3.285c0.064-1.159,0.58-1.932,0.193-2.833c-0.387-0.901-10.176,0.129-11.656,0.644
			s-5.73,4.057-5.73,4.057S1099.772,551.077,1100.996,551.142z"/>
		<path fill="#FFFFFF" d="M1091.787,540.13c0,0,1.675-1.61,3.992-2.577c2.319-0.966,10.948-2.382,12.236-2.704
			c1.287-0.322,3.413-2.576,3.606-3.736c0.193-1.159-1.868-6.053-2.833-7.856c-0.967-1.803-8.051-3.671-8.759-4.122
			s0.579-1.224-1.288-2.318s-4.701,0.064-5.925,0.902c-1.224,0.837-7.728,20.994-7.728,20.994L1091.787,540.13z"/>
		<path fill="#FFFFFF" d="M1087.988,539.034c1.292,0.422,2.574,0.085,3.588-0.785c0.258-0.222,0.484-0.438,0.725-0.696
			c0.268-0.288,0.424-0.582,0.646-0.901c0.373-0.538,0.316-0.973,0.396-1.6c0.577-0.074,1.19,0.068,1.732-0.137
			c0.401-0.151,0.868-0.523,1.173-0.822c0.369-0.36,0.748-0.936,0.885-1.437c0.064-0.24,0.156-0.455,0.193-0.706
			c0.043-0.296,0.035-0.591,0.074-0.892c0.506,0.011,0.982-0.648,1.133-1.056c0.228-0.612,0.186-1.199-0.105-1.773
			c0.43-0.054,0.74-0.608,0.846-0.979c0.133-0.465,0.289-0.968,0.242-1.482c-0.023-0.243-0.071-0.487-0.127-0.71
			c-0.068-0.273-0.178-0.441-0.31-0.708c-0.205-0.415-0.48-0.798-0.787-1.158c-0.138-0.161-0.243-0.321-0.337-0.5
			c-0.153-0.295-0.014-0.392,0.014-0.723c0.048-0.562,0.109-0.926-0.176-1.433c-0.225-0.397-0.391-0.744-0.741-1.062
			c-0.317-0.288-0.747-0.597-1.128-0.808c-0.223-0.122-0.491-0.27-0.738-0.353c-0.147-0.049-0.297-0.091-0.436-0.144
			c-0.068-0.026-0.119-0.03-0.189-0.064c-0.172-0.085-0.11-0.072-0.195-0.194c-0.328-0.47-0.604-1.097-0.904-1.608
			c-0.296-0.506-0.677-0.968-1.109-1.401c-0.529-0.528-1.124-0.717-1.852-0.724l-2.963-1.932l-5.795-3.22l-6.247,8.372l2.962,11.527
			L1087.988,539.034z"/>
		<path fill="#808285" d="M1092.99,558.29c0,0,1.846,0.516,2.704,0.687c0.858,0.172,2.79,0,3.134,0.129s0.172,0.558-0.43,0.858
			c-0.601,0.3-2.361,0.3-2.919,0.429c-0.559,0.129-1.03,0.645-1.03,0.645L1092.99,558.29z"/>
		<path fill="#808285" d="M1078.822,571.684c0,0,0.043,1.202,0.301,1.589c0.258,0.386,0.514,1.03,0.344,1.545
			c-0.172,0.515-1.375-0.214-1.975,0.515C1076.891,576.063,1078.822,571.684,1078.822,571.684z"/>
		<path fill="#808285" d="M1073.026,575.591c0,0-2.876,0.172-3.949,0.258c-1.073,0.085-1.847,0-2.962,0.215
			c-1.117,0.214-2.189,1.03-1.933,1.116c0.258,0.085,1.116-0.129,2.018,0.042s3.692,0.473,3.692,0.473L1073.026,575.591z"/>
		<path fill="#808285" d="M1079.509,560.393c0,0-0.3,3.821-1.931,7.771c-1.633,3.95-2.705,5.667-3.822,6.612
			c-1.115,0.944-2.747,1.932-4.465,2.619c-1.717,0.687-5.108,1.03-6.01,1.545c-0.902,0.515-1.589,0.644-1.932,1.202
			c-0.344,0.559-0.559,1.074-0.301,1.116c0.258,0.043,1.975-0.644,3.734-0.944c1.761-0.301,6.139-1.116,6.955-1.245
			s2.018-0.901,2.49-0.773c0.473,0.129,0.258,0.945,0.645,1.674c0.387,0.73,1.674,1.631,1.975,1.502s-0.515-1.459-0.43-1.975
			c0.086-0.515,1.503-1.502,1.675-2.104c0.172-0.601-0.172-2.576,0.43-4.079c0.601-1.502,5.581-12.664,5.581-12.664
			L1079.509,560.393z"/>
		<path fill="#808285" d="M1089.04,557.646c0,0,0.687,2.49,0.729,3.134s0.129,1.331-0.086,1.932c-0.215,0.601-1.76,1.932-2.747,2.49
			c-0.987,0.558-4.507,1.46-5.066,1.76c-0.559,0.301-0.858,0.602-0.687,0.687c0.172,0.086,1.159,0.086,1.287,0.171
			c0.129,0.086,0.645,0.043,1.117,0.043s1.115-0.515,1.846-0.515c0.729,0,1.331,0.085,2.232-0.172
			c0.901-0.258,2.275-1.288,2.49-1.03c0.215,0.258,0.086,1.031-0.602,1.846c-0.687,0.815-1.545,1.588-1.975,2.104
			c-0.429,0.515-0.473,1.288-0.515,1.76c-0.044,0.472,0.515,1.288,0.858,1.374s0.644-0.644,0.944-1.288
			c0.3-0.644,3.306-2.447,3.649-3.434c0.343-0.988,0.815-2.147,1.202-2.491c0.386-0.343,0.687-0.429,1.073-0.172
			s0.858,1.331,1.416,2.189c0.559,0.859,2.018,2.147,2.748,2.405c0.729,0.258,1.159,0.687,1.331,0.214
			c0.171-0.472-2.104-2.705-2.532-4.25c-0.43-1.546-1.117-2.318-1.719-3.392c-0.601-1.073-1.717-3.263-2.404-4.25
			c-0.686-0.987-1.244-2.276-1.244-2.276l-2.146,0.172L1089.04,557.646z"/>
		<path fill="#FFFFFF" d="M1076.59,556.744c0,0,0.086,1.761,0.645,2.49c0.558,0.73,2.833,2.619,4.722,2.576
			c1.889-0.042,9.831-5.281,10.003-5.839c0.172-0.559-9.659-2.189-9.659-2.189L1076.59,556.744z"/>
		<path fill="#FFFFFF" d="M1073.435,500.46c0,0,1.996,1.803,2.704,2.769c0.709,0.966,4.187,3.735,4.895,4.765
			c0.709,1.031,2.254,2.254,2.061,2.898c-0.193,0.645-1.867,0.064-1.867,0.064s1.095,1.739,0.838,2.125
			c-0.258,0.386-1.225,0.386-1.225,0.386s0.709,1.159,0.193,1.739c-0.515,0.579-1.803,0.257-1.803,0.257s0.579,1.481-0.064,2.061
			c-0.645,0.58-1.096,0.966-2.125,0.322c-0.475-0.296-1.982-1.654-3.473-3.035c-1.754-1.622-2.709-2.504-3.482-3.276
			c-0.773-0.773-2.641-3.413-2.641-3.413L1073.435,500.46z"/>
		<path fill="#FFFFFF" d="M1070.149,495.18c0.038,0.242,0.226,0.367,0.386,0.528c0.154,0.155,0.294,0.34,0.465,0.485
			c0.465,0.394,0.812,0.835,1.196,1.309c0.55,0.677,1.069,1.418,1.304,2.249c0.139,0.492,0.293,0.898,0.561,1.353
			c0.275,0.466,0.607,0.918,0.904,1.368c0.505,0.767,0.975,1.586,1.352,2.432c0.707,1.591,1.619,3.035,2.143,4.636
			c0.555,1.697,1.131,3.52,0.891,5.401c-0.482,0.097-0.893-0.357-1.23-0.618c-0.327-0.252-0.648-0.556-0.934-0.869
			c-0.146-0.161-0.215-0.267-0.4-0.386c-0.242-0.157-0.406-0.312-0.583-0.562c-0.166-0.234-0.296-0.49-0.499-0.713
			c-0.188-0.205-0.395-0.391-0.547-0.637c-1.165-1.882-8.384-14.541-8.548-14.751L1070.149,495.18z"/>
		<path fill="#FFFFFF" d="M1072.404,505.806c0.034,0.372,0.429,0.856,0.656,1.155c0.336,0.441,0.703,0.87,1.02,1.338
			c0.562,0.835,0.947,1.737,1.351,2.658c0.391,0.894,0.661,1.754,0.887,2.655c0.054,0.214,0.119,0.412,0.144,0.63
			c0.023,0.208,0.146,0.568,0.068,0.775c-0.075,0.197-0.345,0.235-0.518,0.256c-0.287,0.034-0.488-0.062-0.727-0.179
			c-0.65-0.32-1.373-0.624-1.916-1.114c-0.297-0.266-0.648-0.372-0.917-0.689c-0.267-0.315-0.523-0.642-0.806-0.933
			c-0.28-0.291-0.51-0.595-0.772-0.902c-0.254-0.297-0.562-0.565-0.79-0.884c-0.196-0.272-0.378-0.582-0.498-0.905
			c-0.092-0.252-0.176-0.743-0.338-0.9l0.58-2.576L1072.404,505.806z"/>
		<path fill="#FFFFFF" d="M1048.727,505.011c0,0,0.344,5.924-0.172,8.93c-0.515,3.005-1.201,10.561-0.6,15.456
			c0.6,4.894,4.293,12.277,6.611,14.424s4.035,3.092,5.322,3.95c1.289,0.858,1.289,1.374,1.89,1.717
			c0.602,0.343,1.202,0.343,1.202,0.343s2.49,1.375,4.208,3.091c1.717,1.717,2.06,2.232,3.005,2.748
			c0.943,0.515,1.46,0.515,2.662,0.859c1.201,0.343,3.348,0.944,4.723,0.944c1.373,0,2.403-2.232,2.403-2.232
			s1.03,0.687,1.804,0.687c0.772,0,1.373-0.858,1.373-0.858s1.89,1.717,2.92,1.889c1.03,0.172,1.889-0.601,1.889-0.601
			s2.147,0.772,3.178,0.858c1.029,0.086,2.576-1.116,2.576-1.116l1.459-0.601c0,0,2.318-0.257,3.605-0.687
			c1.289-0.429,3.521-1.889,3.864-2.49c0.344-0.601,0.602-1.374-0.171-2.146c-0.773-0.772-0.945-0.945-1.891-1.46
			c-0.943-0.515-1.974-0.772-1.974-0.772s1.974-1.89,0.858-2.748c-1.116-0.859-1.976-1.03-1.976-1.03s1.03-2.233-0.772-3.435
			c-1.804-1.202-3.52-1.632-4.551-1.89c-1.03-0.257-1.803,0.172-1.803,0.172s-1.03-0.258-1.804-0.687
			c-0.772-0.43-1.288-0.43-1.288-0.43s0.516-2.404-0.687-3.435c-1.202-1.029-2.575-1.717-2.575-1.717s0.6-1.289-0.344-2.576
			c-0.945-1.288-3.178-1.804-3.178-1.804s-0.172-0.6-0.515-1.201c-0.343-0.601-0.772-1.117-0.772-1.117s0.687-0.944,0.515-1.889
			c-0.171-0.945-0.515-1.631-0.515-1.631s1.03-0.687,0.43-1.546c-0.602-0.858-2.318-1.631-2.318-1.631s0.6-0.601,0.172-1.288
			c-0.778-1.245-8.845-9.102-8.845-9.102l-13.48-3.263L1048.727,505.011z"/>
		
			<linearGradient id="SVGID_4_" gradientUnits="userSpaceOnUse" x1="1046.8145" y1="1105.9121" x2="1053.868" y2="1105.3782" gradientTransform="matrix(1 0 0 -1 0 1600.3535)">
			<stop  offset="0.1559" style="stop-color:#75413D"/>
			<stop  offset="0.3817" style="stop-color:#9E7149"/>
			<stop  offset="0.6398" style="stop-color:#B58D4C"/>
			<stop  offset="0.8065" style="stop-color:#B58D4C"/>
			<stop  offset="1" style="stop-color:#98906B"/>
		</linearGradient>
		<path fill="url(#SVGID_4_)" d="M1049.122,504.251c0.097-0.418,0.041-0.868,0.15-1.288c0.096-0.363,0.028-0.787-0.011-1.149
			c-0.039-0.361-0.005-0.766-0.224-1.071c-0.1-0.138-0.228-0.224-0.251-0.398c-0.029-0.196-0.023-0.283-0.152-0.45
			c-0.129-0.167-0.246-0.258-0.271-0.47c-0.023-0.193,0.016-0.376,0.047-0.554c0.025-0.138,0.01-0.151,0.095-0.266
			c0.042-0.057,0.106-0.083,0.142-0.148c0.062-0.114,0.082-0.335,0.098-0.458c0.047-0.377,0.045-0.772,0.045-1.152
			c0-0.388-0.051-0.775-0.048-1.149c0.003-0.381-0.061-0.819,0.009-1.191c0.141,0.085,0.51,0.247,0.666,0.101
			c0.123-0.114,0.103-0.499,0.127-0.658c0.037-0.235,0.047-0.479,0.049-0.735c0.002-0.255-0.119-0.446-0.095-0.7
			c0.025-0.258,0.026-0.556,0.097-0.82c0.057-0.207,0.09-0.412,0.092-0.642c0.004-0.32-0.278-0.35-0.238-0.646
			c0.028-0.211,0.062-0.366,0.191-0.544c0.227,0.09,0.311,0.247,0.482,0.396c0.203,0.177,0.362,0.347,0.561,0.059
			c0.095-0.138,0.236-0.391,0.283-0.55c0.036-0.127-0.029-0.303,0.137-0.373c0.076-0.033,0.24,0.006,0.326-0.004
			c-0.004-0.143,0.104-0.314,0.159-0.447c0.136,0.073,0.312,0.219,0.474,0.098c0.15-0.11,0.068-0.35,0.09-0.511
			c0.275-0.097,0.363,0.353,0.646,0.262c0.059-0.195-0.077-0.547-0.133-0.73c-0.059-0.197-0.121-0.396-0.19-0.598
			c-0.146-0.419-0.481-0.977-0.418-1.446c0.271,0.119,0.469,0.373,0.749,0.48c0.241,0.093,0.612,0.497,0.893,0.405
			c-0.083-0.121-0.154-0.311-0.232-0.453c-0.056-0.103-0.108-0.189-0.176-0.285c-0.168-0.236-0.323-0.487-0.496-0.713
			c-0.152-0.199-0.271-0.408-0.426-0.598c-0.094-0.116-0.227-0.203-0.166-0.369c0.04-0.112,0.174-0.119,0.219-0.23
			c-0.113-0.016-0.172-0.143-0.287-0.184c-0.125-0.044-0.229-0.058-0.357-0.115c-0.255-0.115-0.488,0.109-0.719-0.097
			c0,0-0.812,0.677-1.238,0.87c-0.426,0.192-1.939,1.729-2.357,2.325c-0.31,0.44-0.854,1.562-1.414,2.795
			c0.05,0.661,0.029,1.481,0.189,2.541c0.343,2.275,1.309,5.968,1.373,7.47c0.064,1.503,0.816,3.971,1.117,5.152
			c0.042,0.169,0.088,0.332,0.136,0.488c0.05-0.174,0.074-0.375,0.126-0.558C1049.054,504.714,1049.069,504.479,1049.122,504.251z"
			/>
		<path fill="#72441A" d="M1044.863,481.706c0.795-0.165,1.192,0.249,1.352,0.745c0.16,0.496-0.396,1.157-0.954,1.241
			c-0.558,0.083-1.114,0-1.353-0.662C1043.669,482.368,1044.066,481.871,1044.863,481.706z"/>
		<path fill="#FFFFFF" d="M1046.237,492.39c0.343,2.275,1.31,5.967,1.374,7.47c0.064,1.502,0.815,3.971,1.115,5.152
			c0.301,1.181,0.73,2.083,1.031,2.146c0.3,0.064,0.687-1.374,0.687-1.374s1.117,3.671,1.46,4.035
			c0.344,0.365,1.095,0.988,1.459,1.031c0.365,0.043,0.516-3.349,0.516-3.349s1.417,0.794,1.89,0.773
			c0.472-0.021,0.601-0.858,0.601-0.858s4.314,2.748,4.894,2.662s1.546-0.172,1.546-0.172s0.752,0.58,1.374,0.43
			s0.858-0.859,0.858-0.859s2.232,2.984,3.35,3.006c1.115,0.021,0.429-2.576,0.429-2.576s0.709,0.43,1.374,0.258
			c0.666-0.172,0.772-3.349,0.772-3.349s0.816,0.515,1.288,0.171c0.472-0.343,0.838-0.579,0.688-1.459
			c-0.15-0.88-2.146-5.066-2.146-5.066s0.043-1.138-0.172-1.889s-1.546-2.49-1.546-2.49s1.46,0.215,1.718-0.343
			c0.257-0.558,0.687-0.708,0.601-1.116c-0.087-0.408-2.232-1.545-2.232-1.545s-0.429-2.469-0.687-2.919
			c-0.258-0.451-0.43-0.601-0.43-0.601s0.129-0.257-0.172-0.859c-0.301-0.601-1.717-1.116-1.717-1.116s0.064-1.03-0.516-1.545
			c-0.58-0.516-1.545-0.516-1.545-0.516s-2.727-4.465-4.552-5.581c-1.824-1.116-8.8-2.941-10.818-2.834s-2.554,0.021-4.637,0.515
			c-2.082,0.494-4.894,4.831-5.581,7.042c-0.688,2.21,4.947,2.854,6.127,3.691C1045.816,489.191,1045.895,490.114,1046.237,492.39z"
			/>
		<path fill="#FFFFFF" d="M1049.122,504.251c0.097-0.418,0.041-0.868,0.15-1.288c0.096-0.363,0.028-0.787-0.011-1.149
			c-0.039-0.361-0.005-0.766-0.224-1.071c-0.1-0.138-0.228-0.224-0.251-0.398c-0.029-0.196-0.023-0.283-0.152-0.45
			c-0.129-0.167-0.246-0.258-0.271-0.47c-0.023-0.193,0.016-0.376,0.047-0.554c0.025-0.138,0.01-0.151,0.095-0.266
			c0.042-0.057,0.106-0.083,0.142-0.148c0.062-0.114,0.082-0.335,0.098-0.458c0.047-0.377,0.045-0.772,0.045-1.152
			c0-0.388-0.051-0.775-0.048-1.149c0.003-0.381-0.061-0.819,0.009-1.191c0.141,0.085,0.51,0.247,0.666,0.101
			c0.123-0.114,0.103-0.499,0.127-0.658c0.037-0.235,0.047-0.479,0.049-0.735c0.002-0.255-0.119-0.446-0.095-0.7
			c0.025-0.258,0.026-0.556,0.097-0.82c0.057-0.207,0.09-0.412,0.092-0.642c0.004-0.32-0.278-0.35-0.238-0.646
			c0.028-0.211,0.062-0.366,0.191-0.544c0.227,0.09,0.311,0.247,0.482,0.396c0.203,0.177,0.362,0.347,0.561,0.059
			c0.095-0.138,0.236-0.391,0.283-0.55c0.036-0.127-0.029-0.303,0.137-0.373c0.076-0.033,0.24,0.006,0.326-0.004
			c-0.004-0.143,0.104-0.314,0.159-0.447c0.136,0.073,0.312,0.219,0.474,0.098c0.15-0.11,0.068-0.35,0.09-0.511
			c0.275-0.097,0.363,0.353,0.646,0.262c0.059-0.195-0.077-0.547-0.133-0.73c-0.059-0.197-0.121-0.396-0.19-0.598
			c-0.146-0.419-0.481-0.977-0.418-1.446c0.271,0.119,0.469,0.373,0.749,0.48c0.241,0.093,0.612,0.497,0.893,0.405
			c-0.083-0.121-0.154-0.311-0.232-0.453c-0.056-0.103-0.108-0.189-0.176-0.285c-0.168-0.236-0.323-0.487-0.496-0.713
			c-0.152-0.199-0.271-0.408-0.426-0.598c-0.094-0.116-0.227-0.203-0.166-0.369c0.04-0.112,0.174-0.119,0.219-0.23
			c-0.113-0.016-0.172-0.143-0.287-0.184c-0.125-0.044-0.229-0.058-0.357-0.115c-0.255-0.115-0.488,0.109-0.719-0.097
			c0,0-0.812,0.677-1.238,0.87c-0.426,0.192-1.939,1.729-2.357,2.325c-0.31,0.44-0.854,1.562-1.414,2.795
			c0.05,0.661,0.029,1.481,0.189,2.541c0.343,2.275,1.309,5.968,1.373,7.47c0.064,1.503,0.816,3.971,1.117,5.152
			c0.042,0.169,0.088,0.332,0.136,0.488c0.05-0.174,0.074-0.375,0.126-0.558C1049.054,504.714,1049.069,504.479,1049.122,504.251z"
			/>
		<path fill="#808285" d="M1040.656,487.367c-0.129,0.343-0.086,0.687-0.086,1.245c0,0.558,2.619,4.25,3.52,4.165
			c0.902-0.086,1.332-0.043,2.147-0.386c0.815-0.344,1.567-3.583,1.353-3.927c-0.215-0.343-2.812-0.796-3.629-0.882
			c-0.814-0.086-2.232-0.43-2.617-0.516C1040.957,486.979,1040.785,487.023,1040.656,487.367z"/>
		<path fill="#A7A9AC" d="M1039.496,483.846c0,0-0.515-0.387-1.094-0.644c-0.58-0.257-1.417-0.193-1.417-0.193
			s0.45-0.419,1.127-0.708c0.676-0.29,1.449-0.612,1.449-0.612s-1.867-2.125-2.479-2.543c-0.611-0.419-0.805-0.87-0.709-1.256
			c0.098-0.386,0.741-0.45,1.707-0.515c0.967-0.064,2.673,0.129,2.995,0.032c0.321-0.096,1.481-1.126,2.124-1.159
			c0.645-0.032,1.418,0.064,1.771,0.354c0.354,0.289,0.741,1.127,0.387,1.384c-0.354,0.258-2.93,1.643-3.542,2.77
			c-0.612,1.127-1.578,2.897-1.739,2.994C1039.916,483.846,1039.496,483.846,1039.496,483.846z"/>
		<path fill="#808285" d="M1039.496,483.846c0,0,0.369-0.281,0.391-0.852c0.021-0.571-0.325-1.306-0.325-1.306
			s-1.867-2.125-2.479-2.544c-0.611-0.418-0.805-0.869-0.709-1.255c0.098-0.386,0.741-0.451,1.707-0.515
			c0.967-0.064,2.673,0.129,2.995,0.032c0.321-0.097,1.481-1.127,2.124-1.159c0.645-0.032,1.418,0.064,1.771,0.354
			c0.354,0.289,0.741,1.126,0.387,1.384c-0.354,0.258-2.93,1.643-3.542,2.77s-1.578,2.898-1.739,2.995
			C1039.916,483.846,1039.496,483.846,1039.496,483.846z"/>
		<path fill="#808285" d="M1045.808,481.431c0.097,0.193,0.653,0.351,0.813,0.676c0.113,0.232,0.148,0.485,0.152,0.741
			c0.004,0.212-0.111,0.417-0.201,0.612c-0.048,0.104-0.11,0.197-0.178,0.291c-0.054,0.075-0.746,0.53-0.387,0.796
			c0.172,0.127,0.496,0.093,0.667,0.001c0.131-0.071,0.253-0.129,0.389-0.187c0.132-0.057,0.255-0.056,0.386-0.105
			c0.24-0.092,0.467-0.103,0.645-0.313c0.355-0.424,0.483-0.839,0.483-1.384c0-0.239,0.03-0.529-0.071-0.734
			c-0.122-0.248-0.334-0.419-0.566-0.528c-0.252-0.12-0.458-0.187-0.747-0.187c-0.132,0-0.276-0.014-0.394,0.025
			C1046.678,481.173,1045.711,481.237,1045.808,481.431z"/>
		<path fill="#FFFFFF" d="M1047.783,488.482c0.274,0.052,0.477-0.598,0.943-0.815c0.701-0.327,1.735-0.309,2.404-0.516
			c1.117-0.343,0.172-2.833,0.172-2.833s-1.717,1.203-2.404,1.803C1048.212,486.723,1047.096,488.354,1047.783,488.482z"/>
		<path fill="#C7C8CA" d="M1044.855,481.84c0.725-0.145,1.087,0.218,1.232,0.652c0.145,0.435-0.362,1.014-0.869,1.087
			c-0.508,0.072-1.016,0-1.232-0.58C1043.77,482.42,1044.131,481.985,1044.855,481.84z"/>
		<path fill="#25160C" d="M1044.949,482.214c0.43-0.086,0.644,0.129,0.73,0.387c0.086,0.257-0.215,0.601-0.516,0.644
			c-0.301,0.042-0.602,0-0.73-0.344C1044.305,482.558,1044.52,482.3,1044.949,482.214z"/>
		<path fill="#C7C8CA" d="M1037.221,484.232c-0.343,0.172-1.373,1.675-1.717,2.318c-0.344,0.644-0.602,1.459-0.687,2.018
			c-0.087,0.558-0.129,1.245,0.128,1.202c0.258-0.043,1.203-0.901,2.232-1.417c0.496-0.248,1.479-0.812,2.363-1.064
			c0.957-0.272,1.63-0.051,1.801-0.223c0.173-0.172,0.044-0.815-0.257-1.159c-0.3-0.344-1.331,0.042-1.589-0.344
			c-0.258-0.387,0.301-1.546,0-1.718C1039.196,483.674,1037.564,484.061,1037.221,484.232z"/>
		<path fill="#808285" d="M1037.682,485.429c0.113-0.161,0.337-0.233,0.486-0.348c0.19-0.145,0.359-0.304,0.627-0.24
			c-0.097,0.199-0.621,0.643-0.844,0.594C1037.951,485.435,1037.656,485.437,1037.682,485.429z"/>
		<path fill="#808285" d="M1037.371,484.812c-0.322-0.064-0.387-1.803-0.387-1.803s0.838-0.064,1.418,0.193
			c0.578,0.257,1.094,0.644,1.094,0.644S1037.693,484.876,1037.371,484.812z"/>
	</g>
	<g>
		<g>
			<path fill="#FFFFFF" d="M124.624,403.008h111.953v45.531h-0.458c-2.335,5.109-26.487,8.826-55.747,8.826
				c-28.793,0-52.956-3.717-55.749-8.826v-45.511l0,0V403.008z"/>
			<path fill="#F1F1F2" d="M124.624,403.008h111.953v45.531h-0.458c-2.335,5.109-26.487,8.826-55.747,8.826
				c-28.793,0-52.956-3.717-55.749-8.826v-45.511l0,0V403.008z"/>
			<path fill="#FFFFFF" d="M180.361,392.801c31.121,0,56.216,4.185,56.216,9.76c0,5.576-25.095,9.74-56.216,9.74
				c-30.661,0-55.737-4.164-55.737-9.74C124.624,396.986,149.719,392.801,180.361,392.801z"/>
			<path fill="#BBBDBF" d="M180.361,392.801c31.121,0,56.216,4.185,56.216,9.76c0,5.576-25.095,9.74-56.216,9.74
				c-30.661,0-55.737-4.164-55.737-9.74C124.624,396.986,149.719,392.801,180.361,392.801z"/>
			<path fill="#FFFFFF" d="M180.361,401.627c1.86,0,3.25,0.457,3.25,0.934c0,0.447-1.391,0.925-3.25,0.925
				c-1.858,0-3.24-0.478-3.24-0.925c0-0.477,1.393-0.934,3.251-0.934H180.361z"/>
			<path fill="#FFFFFF" d="M180.361,401.627c1.86,0,3.25,0.457,3.25,0.934c0,0.447-1.391,0.925-3.25,0.925
				c-1.858,0-3.24-0.478-3.24-0.925c0-0.477,1.393-0.934,3.251-0.934H180.361z"/>
			<path fill="#FFFFFF" d="M178.979,401.627l-18.586-8.359"/>
			<path fill="#FFFFFF" d="M183.145,402.561h53.432"/>
			<path fill="#FFFFFF" d="M178.514,403.008l-20.444,8.369"/>
		</g>
		<g>
			<path fill="#FFFFFF" d="M213.618,445.917h129.605v52.705h-0.536c-2.703,5.914-30.663,10.219-64.534,10.219
				c-33.326,0-61.304-4.305-64.535-10.219v-52.686l0,0V445.917z"/>
			<path fill="#F1F1F2" d="M213.618,445.917h129.605v52.705h-0.536c-2.703,5.914-30.663,10.219-64.534,10.219
				c-33.326,0-61.304-4.305-64.535-10.219v-52.686l0,0V445.917z"/>
			<path fill="#FFFFFF" d="M278.141,434.098c36.029,0,65.082,4.841,65.082,11.301c0,6.451-29.052,11.271-65.082,11.271
				c-35.492,0-64.523-4.819-64.523-11.271C213.618,438.939,242.67,434.098,278.141,434.098z"/>
			<path fill="#BBBDBF" d="M278.141,434.098c36.029,0,65.082,4.841,65.082,11.301c0,6.451-29.052,11.271-65.082,11.271
				c-35.492,0-64.523-4.819-64.523-11.271C213.618,438.939,242.67,434.098,278.141,434.098z"/>
			<path fill="#FFFFFF" d="M278.141,444.315c2.148,0,3.768,0.527,3.768,1.084c0,0.518-1.62,1.073-3.768,1.073
				c-2.146,0-3.747-0.556-3.747-1.073c0-0.557,1.61-1.084,3.758-1.084H278.141z"/>
			<path fill="#FFFFFF" d="M278.141,444.315c2.148,0,3.768,0.527,3.768,1.084c0,0.518-1.62,1.073-3.768,1.073
				c-2.146,0-3.747-0.556-3.747-1.073c0-0.557,1.61-1.084,3.758-1.084H278.141z"/>
			<path fill="#FFFFFF" d="M276.542,444.315l-21.518-9.68"/>
			<path fill="#FFFFFF" d="M281.362,445.399h61.861"/>
			<path fill="#FFFFFF" d="M276.004,445.917l-23.674,9.689"/>
		</g>
		<g>
			<path fill="#FFFFFF" d="M88.078,495.204h149.264v60.707h-0.605c-3.121,6.809-35.314,11.768-74.334,11.768
				c-38.385,0-70.598-4.959-74.324-11.768v-60.677l0,0V495.204z"/>
			<path fill="#F1F1F2" d="M88.078,495.204h149.264v60.707h-0.605c-3.121,6.809-35.314,11.768-74.334,11.768
				c-38.385,0-70.598-4.959-74.324-11.768v-60.677l0,0V495.204z"/>
			<path fill="#FFFFFF" d="M162.392,481.596c41.496,0,74.95,5.576,74.95,13.01c0,7.436-33.454,12.991-74.95,12.991
				c-40.88,0-74.314-5.556-74.314-12.991C88.078,487.172,121.532,481.596,162.392,481.596z"/>
			<path fill="#BBBDBF" d="M162.392,481.596c41.496,0,74.95,5.576,74.95,13.01c0,7.436-33.454,12.991-74.95,12.991
				c-40.88,0-74.314-5.556-74.314-12.991C88.078,487.172,121.532,481.596,162.392,481.596z"/>
			<path fill="#FFFFFF" d="M162.392,493.365c2.475,0,4.333,0.606,4.333,1.241c0,0.598-1.858,1.233-4.333,1.233
				c-2.476,0-4.323-0.636-4.323-1.233c0-0.635,1.858-1.241,4.333-1.241H162.392z"/>
			<path fill="#FFFFFF" d="M162.392,493.365c2.475,0,4.333,0.606,4.333,1.241c0,0.598-1.858,1.233-4.333,1.233
				c-2.476,0-4.323-0.636-4.323-1.233c0-0.635,1.858-1.241,4.333-1.241H162.392z"/>
			<path fill="#FFFFFF" d="M160.553,493.365l-24.788-11.142"/>
			<path fill="#FFFFFF" d="M166.099,494.606h71.243"/>
			<path fill="#FFFFFF" d="M159.927,495.204l-27.263,11.161"/>
		</g>
	</g>
	<g>
		<path fill="#BBBDBF" d="M798.566,483.957c11.406-0.282,21.045,8.576,21.508,19.566c0.465,10.977-8.412,20.101-19.826,20.383
			c-11.44,0.274-21.064-8.386-21.516-19.376C778.268,493.525,787.132,484.252,798.566,483.957L798.566,483.957z"/>
		<path fill="#BBBDBF" d="M867.338,500.432c5.795-0.127,10.73,4.436,10.957,10.209c0.246,5.942-4.268,10.758-10.062,10.898
			c-5.822,0.127-10.912-4.442-11.158-10.377C856.842,505.403,861.537,500.587,867.338,500.432L867.338,500.432z"/>
		<path fill="#FFFFFF" d="M867.551,505.664c2.73-0.063,5.174,2.133,5.273,4.766c0.119,2.788-2.135,4.928-4.859,4.999
			c-2.906,0.063-5.168-1.958-5.287-4.767c-0.105-2.598,1.965-4.921,4.865-4.992L867.551,505.664z"/>
		<path fill="#F1F1F2" d="M854.145,471.77c2.225-2.852,2.436-6.865,1.662-12.265c-1.311-0.852-3.133-1.147-3.887-1.655
			c-0.754-0.5-0.092-2.084-0.514-3.646c3.816,0.07,5.625-0.141,9.252-0.239c0.105,2.788,0.801,14.827,0.379,17.629
			C859.404,471.812,855.785,471.889,854.145,471.77L854.145,471.77z"/>
		<path fill="#FFFFFF" d="M776.473,501.819l-66.781,2.626l0.67,16.221l3.978-0.267l-0.366-8.914
			c3.092-0.07,9.428-0.395,13.406-0.493c0.111,2.267,0.105,6.463,0.246,9.589l3.978-0.085c-0.07-1.76,0.31-5.942-0.388-9.42
			c6.014,0.197,40.66-2.154,45.567-2.267l-0.317-6.992H776.473z"/>
		<path fill="#FFFFFF" d="M798.432,493.913c5.633-0.141,10.33,3.767,10.525,8.646c0.213,5.069-4.139,9.181-9.764,9.322
			c-5.619,0.141-10.315-3.767-10.533-8.815C788.441,498.151,792.828,494.053,798.432,493.913L798.432,493.913z"/>
		<path fill="#BBBDBF" d="M746.459,506.839c4.182-0.099,7.751,3.147,7.934,7.336c0.17,4.182-3.125,7.576-7.301,7.688
			c-4.16,0.099-7.758-3.126-7.941-7.308c-0.17-4.196,3.146-7.59,7.314-7.716H746.459z"/>
		<path fill="#FFFFFF" d="M746.62,510.528c1.999-0.063,3.689,1.479,3.767,3.401c0.078,1.915-1.485,3.52-3.457,3.576
			c-2.02,0.05-3.717-1.485-3.809-3.394c-0.078-1.936,1.5-3.555,3.492-3.591L746.62,510.528z"/>
		<g>
			<polygon fill="#F1F1F2" points="778.549,440.094 778.549,440.094 778.549,440.094 			"/>
			<path fill="#FFFFFF" d="M875.006,471.601l-39.047-0.613l-3.717-32.218l-53.693,1.324l0.853,11.321l10.173,0.45l0.762,17.954
				c-4.168,0.126-27.896,5.759-26.199,24.233l7.795-0.197c5.941-1.183,25.747-30.838,52.297,4.675l51.834-2.162L875.006,471.601z
				 M801.248,465.919l-0.725-17.292l19.594-0.472l0.719,17.277L801.248,465.919z"/>
		</g>
	</g>
</g>
</svg>
