<?xml version="1.0" encoding="utf-8"?>
<!-- Generator: Adobe Illustrator 18.1.0, SVG Export Plug-In . SVG Version: 6.00 Build 0)  -->
<!DOCTYPE svg PUBLIC "-//W3C//DTD SVG 1.1//EN" "http://www.w3.org/Graphics/SVG/1.1/DTD/svg11.dtd">
<svg version="1.1" id="Layer_1" xmlns="http://www.w3.org/2000/svg" xmlns:xlink="http://www.w3.org/1999/xlink" x="0px" y="0px"
	 viewBox="0 0 104.2 104.2" enable-background="new 0 0 104.2 104.2" xml:space="preserve">
<circle cx="52.1" cy="52.1" r="50.3"/>
<g>
	<path fill="#FFFFFF" d="M52.1,0C23.4,0,0,23.4,0,52.1s23.4,52.1,52.1,52.1s52.1-23.4,52.1-52.1S80.8,0,52.1,0z M52.1,100.7
		c-26.8,0-48.6-21.8-48.6-48.6S25.3,3.5,52.1,3.5s48.6,21.8,48.6,48.6S78.9,100.7,52.1,100.7z"/>
	<polygon fill="#FFFFFF" points="23.2,51.4 20.5,51.8 21.2,58 18.3,58.3 17.6,52.3 15,52.6 15.7,58.6 12.8,58.9 12.1,52.7 9.5,53 
		10.5,62 24.2,60.5 	"/>
	<path fill="#FFFFFF" d="M25.6,41.2c0.1-0.2,0.1-0.5,0.1-0.8c0-0.3,0-0.5,0-0.7c0-0.1-0.1-0.3-0.1-0.5c-0.1-0.2-0.2-0.4-0.2-0.6
		c-0.1-0.2-0.2-0.4-0.3-0.6c-0.1-0.2-0.2-0.3-0.3-0.4c-0.2-0.2-0.3-0.4-0.6-0.5c-0.2-0.1-0.4-0.2-0.6-0.3l-6.4-2.3
		c-0.2-0.1-0.5-0.1-0.7-0.2c-0.2,0-0.5,0-0.8,0.1c-0.1,0-0.3,0.1-0.5,0.2c-0.2,0.1-0.4,0.2-0.6,0.2s-0.4,0.2-0.6,0.3
		c-0.2,0.1-0.4,0.2-0.5,0.3c-0.2,0.2-0.4,0.4-0.5,0.6s-0.3,0.5-0.4,0.7L10.2,43l13,4.7L25.6,41.2z M21.6,44.1l-7.9-2.9l1.4-3.8
		c0.2-0.1,0.3-0.2,0.5-0.3c0.2-0.1,0.4-0.1,0.7-0.2l6.2,2.3c0.2,0.2,0.3,0.4,0.4,0.5s0.1,0.4,0.2,0.5L21.6,44.1z"/>
	<path fill="#FFFFFF" d="M30.5,32.8l-5.4-6.3l5,2.3l1.4-1.2c-0.2-0.9-0.5-1.8-0.7-2.7c-0.2-0.9-0.5-1.8-0.7-2.7l5.4,6.3l2.1-1.8
		l-9-10.5l-2.3,2c0.3,1.1,0.6,2.2,0.9,3.4c0.3,1.1,0.6,2.2,0.9,3.4l-6.4-2.8l-2.3,2l9,10.5L30.5,32.8z"/>
	<path fill="#FFFFFF" d="M40.3,21.7c0,0.2,0.1,0.5,0.2,0.7c0.1,0.2,0.2,0.4,0.4,0.6c0.1,0.1,0.2,0.2,0.4,0.3
		c0.2,0.1,0.3,0.3,0.5,0.4c0.2,0.1,0.4,0.3,0.6,0.4c0.2,0.1,0.4,0.2,0.5,0.2c0.2,0.1,0.5,0.1,0.7,0.2c0.3,0,0.6,0,0.8,0l3.4-0.7
		c0.3-0.1,0.5-0.1,0.8-0.3c0.2-0.1,0.5-0.3,0.6-0.4c0.1-0.1,0.2-0.2,0.4-0.4s0.3-0.4,0.4-0.5s0.2-0.4,0.3-0.6s0.2-0.3,0.2-0.4
		c0.1-0.2,0.2-0.5,0.2-0.7c0-0.3,0-0.5-0.1-0.7l-1.3-6.8c0-0.2-0.1-0.5-0.2-0.7c-0.1-0.2-0.2-0.4-0.4-0.6c-0.1-0.1-0.2-0.2-0.4-0.3
		c-0.2-0.1-0.3-0.3-0.5-0.4c-0.2-0.1-0.4-0.3-0.6-0.4c-0.2-0.1-0.3-0.2-0.5-0.3c-0.2-0.1-0.5-0.1-0.7-0.2c-0.3,0-0.6,0-0.8,0
		l-3.4,0.7c-0.3,0.1-0.5,0.1-0.8,0.3c-0.2,0.1-0.5,0.3-0.6,0.4c-0.1,0.1-0.2,0.2-0.4,0.4c-0.1,0.2-0.3,0.4-0.4,0.6
		c-0.1,0.2-0.2,0.4-0.4,0.6c-0.1,0.2-0.2,0.3-0.2,0.4C39,13.6,39,13.8,39,14.1c0,0.3,0,0.5,0.1,0.8L40.3,21.7z M42.1,13.7
		c0.1-0.2,0.2-0.3,0.3-0.4l3.3-0.6c0.1,0,0.1,0.1,0.2,0.1c0.1,0,0.2,0.1,0.3,0.2c0.1,0.1,0.2,0.1,0.3,0.2c0.1,0.1,0.2,0.1,0.2,0.2
		l1.3,6.8c-0.1,0.2-0.2,0.4-0.3,0.6c-0.1,0.2-0.2,0.3-0.3,0.4L44,21.8c-0.1,0-0.1-0.1-0.2-0.1c-0.1,0-0.2-0.1-0.2-0.2
		s-0.2-0.1-0.3-0.2c-0.1-0.1-0.2-0.1-0.3-0.2l-1.3-6.8C41.9,14.1,42,13.9,42.1,13.7z"/>
	<polygon fill="#FFFFFF" points="60.1,16.1 62,25.1 64.7,26 68.7,12.8 66.1,11.9 63.7,19.8 61.8,10.7 59.1,9.8 55.1,23 57.8,23.8 	
		"/>
	<polygon fill="#FFFFFF" points="72.3,31.8 80,23.7 82.7,26.2 84.5,24.3 77,17.2 75.2,19.2 77.9,21.8 70.3,29.8 	"/>
	<path fill="#FFFFFF" d="M79.6,35.9c-0.2,0.1-0.4,0.3-0.5,0.5c-0.1,0.1-0.2,0.2-0.3,0.4s-0.2,0.4-0.3,0.6s-0.2,0.4-0.3,0.6
		S78,38.4,78,38.5c0,0.2-0.1,0.5-0.1,0.8c0,0.3,0.1,0.6,0.2,0.8l1.2,3.3c0.1,0.3,0.2,0.5,0.4,0.7c0.2,0.2,0.4,0.4,0.5,0.5
		c0.1,0.1,0.3,0.2,0.5,0.3c0.2,0.1,0.4,0.2,0.6,0.3c0.2,0.1,0.4,0.2,0.6,0.2s0.4,0.1,0.5,0.2c0.3,0.1,0.5,0.1,0.8,0.1
		c0.2,0,0.5-0.1,0.7-0.2l6.5-2.4c0.2-0.1,0.5-0.2,0.7-0.3s0.4-0.3,0.5-0.5c0.1-0.1,0.1-0.2,0.2-0.4c0.1-0.2,0.2-0.4,0.3-0.6
		c0.1-0.2,0.2-0.4,0.3-0.6c0.1-0.2,0.1-0.4,0.2-0.5c0-0.2,0.1-0.5,0.1-0.8c0-0.3-0.1-0.6-0.2-0.8l-1.2-3.3c-0.1-0.3-0.2-0.5-0.4-0.7
		c-0.2-0.2-0.3-0.4-0.5-0.5c-0.1-0.1-0.3-0.2-0.5-0.3c-0.2-0.1-0.4-0.2-0.6-0.3c-0.2-0.1-0.4-0.2-0.6-0.3S88.3,33,88.2,33
		c-0.3-0.1-0.5-0.1-0.8,0c-0.2,0-0.5,0.1-0.7,0.2l-6.5,2.4C80,35.6,79.8,35.7,79.6,35.9z M80.7,39c0-0.1,0.1-0.2,0.1-0.3
		c0-0.1,0.1-0.2,0.2-0.3s0.1-0.2,0.2-0.3l6.5-2.4c0.2,0.1,0.4,0.1,0.7,0.2c0.2,0.1,0.4,0.2,0.4,0.2l1.2,3.2c0,0.1,0,0.2-0.1,0.2
		c0,0.1-0.1,0.2-0.1,0.3c-0.1,0.1-0.1,0.2-0.2,0.3s-0.1,0.2-0.2,0.2l-6.5,2.4c-0.2-0.1-0.4-0.1-0.6-0.3c-0.2-0.1-0.4-0.2-0.5-0.3
		l-1.2-3.2C80.7,39.2,80.7,39.1,80.7,39z"/>
	<polygon fill="#FFFFFF" points="94.9,52.2 81.3,50.3 80.9,53.1 88.9,54.2 80.3,57.5 79.9,60.3 93.6,62.2 94,59.4 85.8,58.3 
		94.6,55 	"/>
	<path fill="#FFFFFF" d="M36,74.6C35,75,33.9,75.5,32.9,76c-1.1,0.5-2.1,0.9-3.2,1.4l1.7-6.8l-2.3-2l-9,10.5l2.1,1.8l5.4-6.3
		L26.2,80l1.4,1.2c0.8-0.4,1.7-0.7,2.5-1.1c0.8-0.4,1.7-0.7,2.5-1.1l-5.4,6.3l2.1,1.8l9-10.5L36,74.6z"/>
	<path fill="#FFFFFF" d="M44.8,78.7l-7.3,12.7l2.9,0.6c0.2-0.4,0.5-0.8,0.7-1.2c0.2-0.4,0.5-0.8,0.7-1.2l4.7,0.9l0.4,2.8l2.9,0.6
		l-2.1-14.4L44.8,78.7z M43.3,87.1c0.4-0.7,0.8-1.4,1.2-2c0.4-0.7,0.8-1.4,1.2-2l0.7,4.6L43.3,87.1z"/>
	<path fill="#FFFFFF" d="M67.9,86.8l-2-6.5c-0.1-0.2-0.2-0.4-0.3-0.7s-0.3-0.4-0.5-0.6c-0.1-0.1-0.2-0.2-0.4-0.3
		c-0.2-0.1-0.4-0.2-0.6-0.3c-0.2-0.1-0.4-0.2-0.6-0.3C63.3,78.1,63.1,78,63,78c-0.2-0.1-0.5-0.1-0.8-0.1c-0.3,0-0.5,0.1-0.8,0.1
		l-6.6,2.1l4.1,13.2l6.6-2.1c0.2-0.1,0.5-0.2,0.7-0.4c0.2-0.2,0.4-0.3,0.6-0.5c0.1-0.1,0.2-0.3,0.3-0.4s0.2-0.4,0.3-0.6
		c0.1-0.2,0.2-0.4,0.3-0.6s0.2-0.4,0.2-0.5c0.1-0.2,0.1-0.5,0.1-0.8S68,87,67.9,86.8z M65,88.2c-0.1,0.2-0.2,0.3-0.3,0.5l-3.8,1.2
		l-2.5-8l3.8-1.2c0.2,0,0.4,0.1,0.6,0.2s0.4,0.2,0.5,0.4l2,6.3C65.1,87.8,65.1,88,65,88.2z"/>
	<polygon fill="#FFFFFF" points="77.4,81.4 75.4,79.3 79.7,75.1 77.8,73.1 73.5,77.4 71.5,75.3 76,71 74.1,69 67.6,75.4 77.3,85.2 
		83.8,78.9 81.9,77 	"/>
	<rect x="43.9" y="44.8" fill="#FFFFFF" width="16.3" height="3.5"/>
	<rect x="43.9" y="50.3" fill="#FFFFFF" width="16.3" height="3.5"/>
	<rect x="43.9" y="55.8" fill="#FFFFFF" width="16.3" height="3.5"/>
</g>
</svg>
