<svg id="Layer_1" data-name="Layer 1" xmlns="http://www.w3.org/2000/svg" viewBox="0 0 390 340"><defs><style>.cls-1{fill:#14bcc4;}.cls-2{fill:#23373f;}.cls-3{fill:#0e222b;}.cls-4{fill:#9b7a64;}.cls-5{fill:#fc611f;}.cls-6{fill:#8bbf37;}.cls-7{fill:#684d3a;}.cls-8{fill:#dd4926;}.cls-9{fill:#566b1b;}.cls-10{fill:#d3bda9;}.cls-11{fill:#bc9173;}.cls-12{fill:#fff;}.cls-13{fill:#b0c9cf;}.cls-14{fill:#331829;}.cls-15{fill:#542a3a;}.cls-16{fill:#e0932d;}.cls-17{fill:#072230;}.cls-18{fill:#e5bc9a;}.cls-19{fill:#f3ac1e;}.cls-20{fill:#0c567a;}.cls-21{fill:#efe0cd;}.cls-22{fill:#ee3523;}.cls-23{fill:#195886;}.cls-24{fill:#f4b651;}.cls-25{fill:#f5622c;}.cls-26{fill:#f5f5f5;}.cls-27{fill:#3e8a3a;}.cls-28{fill:#0f4f2c;}.cls-29{fill:#edd5a9;}.cls-30{fill:#d8ae80;}.cls-31{fill:#f3f0e9;}.cls-32{fill:#e0cdb8;}.cls-33{fill:#c99c7b;}.cls-34{fill:none;}</style></defs><title>english-what-a-language</title><rect class="cls-1" y="-12.5" width="390" height="356.5"/><path class="cls-2" d="M74.71,115.83c-2.41-.13-7.64.13-8.58,5.23-1.61.27-6.17,1.74-3.08,7.11-1.88,1.07-3.22,3.35-1.21,6.3-1.48,1.88,0,6.3,3.62,6-0.24,1.92,5.23,4.28,14.68,4.16v-30C78.77,113.93,75.57,113.26,74.71,115.83Z"/><path class="cls-3" d="M92.95,142c3.22,0.13,5.63-1.07,4.49-5,0.94-.87,2.81-2.21,2.55-4.42S98.38,128.9,96.5,129c1.41-.54,2-2.08,1.61-4a3.42,3.42,0,0,0-3.22-2.95,0.87,0.87,0,1,1-.2-0.07c0.87-2.55-3.15-6.23-6.5-5.5-0.6-2.81-3.28-2.95-4.76-2.95a5.32,5.32,0,0,0-2.95,1.34,2.93,2.93,0,0,0-.34-0.21v30c1.09,0,2.23-.06,3.42-0.14C86.9,144.29,91.87,143.32,92.95,142Z"/><ellipse class="cls-4" cx="71.48" cy="138.57" rx="2.69" ry="3.17"/><polygon class="cls-4" points="80.14 125.63 80.14 152.47 73.77 152.47 71.29 125.63 80.14 125.63"/><ellipse class="cls-3" cx="76.53" cy="134.5" rx="0.74" ry="0.88"/><path class="cls-5" d="M80.14,138v2.67a5.6,5.6,0,0,1-1.65-.16,0.45,0.45,0,0,1-.17-0.5,12.51,12.51,0,0,1,1.21-1.74A0.76,0.76,0,0,1,80.14,138Z"/><path class="cls-6" d="M69,168.22H80.14V152.33H71.7S69,154.81,69,168.22Z"/><path class="cls-2" d="M80.14,156.62v-4.29H72.23S73.64,156.56,80.14,156.62Z"/><rect class="cls-2" x="77.26" y="155.55" width="0.94" height="5.83"/><circle class="cls-2" cx="77.73" cy="162.25" r="1.47"/><ellipse class="cls-7" cx="88.8" cy="138.57" rx="2.69" ry="3.17"/><polygon class="cls-7" points="80.14 125.63 80.14 152.47 86.51 152.47 89 125.63 80.14 125.63"/><ellipse class="cls-3" cx="83.75" cy="134.5" rx="0.74" ry="0.88"/><path class="cls-8" d="M80.14,138v2.67a5.6,5.6,0,0,0,1.65-.16A0.45,0.45,0,0,0,82,140a12.43,12.43,0,0,0-1.21-1.74A0.76,0.76,0,0,0,80.14,138Z"/><path class="cls-9" d="M91.27,168.22H80.14V152.33h8.45S91.27,154.81,91.27,168.22Z"/><path class="cls-3" d="M80.14,156.62v-4.29h7.91S86.64,156.56,80.14,156.62Z"/><rect class="cls-3" x="82.09" y="155.55" width="0.94" height="6.7"/><circle class="cls-3" cx="82.55" cy="163.53" r="1.48"/><path class="cls-2" d="M70.56,121.93c-6.3,4.09-6.37,13.14-.54,13.27l0.27-4.56a9.05,9.05,0,0,0,6.23,1.88,8.33,8.33,0,0,0,3.62-1.07v-11.1C76.8,119.87,73.29,120.16,70.56,121.93Z"/><path class="cls-3" d="M82.89,129c0.6-.54,4.42-0.4,5,1.07a9.08,9.08,0,0,1,.67,4.19c-0.13,1.07,2.38,2,3.32.2s1.31-7.07-1.64-10c-1.67-1.63-5.75-3.57-10.12-4.19v11.1A8,8,0,0,0,82.89,129Z"/><path class="cls-2" d="M182,116.81v46.75s-10.25.55-10.25-.77,0.37-1,.66-1.69-1.25-1.62-1.32-3.09,2.28-3,2.28-3c-0.88-.74-4.85-8.6-3-11.1s-2.28-11.54-2.42-14.25-2.57-9.48,1.25-10.51S182,116.81,182,116.81Z"/><ellipse class="cls-10" cx="173.25" cy="140.67" rx="2.81" ry="3.32"/><polygon class="cls-10" points="182.03 127.67 182.03 153.75 176.56 153.75 173.43 127.67 182.03 127.67"/><ellipse class="cls-3" cx="178.77" cy="134.05" rx="0.72" ry="0.85"/><path class="cls-5" d="M182,138.74v2.94a2.41,2.41,0,0,1-1.12-.18,0.7,0.7,0,0,1-.11-0.55,16.13,16.13,0,0,1,.82-1.91A0.44,0.44,0,0,1,182,138.74Z"/><polygon class="cls-2" points="173.21 136.55 182.03 130.01 182.03 125.68 171.44 125.68 173.21 136.55"/><path class="cls-3" d="M182,116.81v46.75s10.25,0.55,10.25-.77-0.37-1-.66-1.69,1.25-1.62,1.32-3.09-2.28-3-2.28-3c0.88-.74,4.85-8.6,3-11.1s2.28-11.54,2.42-14.25,2.57-9.48-1.25-10.51S182,116.81,182,116.81Z"/><ellipse class="cls-11" cx="190.8" cy="140.67" rx="2.81" ry="3.32"/><polygon class="cls-11" points="182.03 127.67 182.03 153.75 187.49 153.75 190.63 127.67 182.03 127.67"/><ellipse class="cls-3" cx="185.29" cy="134.05" rx="0.72" ry="0.85"/><path class="cls-8" d="M182,138.74v2.94a2.41,2.41,0,0,0,1.12-.18,0.7,0.7,0,0,0,.11-0.55,16,16,0,0,0-.82-1.91A0.44,0.44,0,0,0,182,138.74Z"/><polygon class="cls-3" points="190.84 136.55 190.7 130.01 182.03 130.01 182.03 125.68 192.61 125.68 190.84 136.55"/><path class="cls-12" d="M182,153.42h-6.47A9.15,9.15,0,0,0,174,156.7h8v-3.28Z"/><path class="cls-13" d="M188.5,153.42H182v3.28h8A9.14,9.14,0,0,0,188.5,153.42Z"/><path class="cls-14" d="M191,162.94h0a50.73,50.73,0,0,0-1.42-6H182v11.31h9.62A43,43,0,0,0,191,162.94Z"/><path class="cls-15" d="M173.74,159.66c-0.17.74-.34,1.51-0.49,2.28h0v0c-0.06.31-.12,0.61-0.17,0.91V163c-0.06.32-.11,0.64-0.16,0.95v0a38.86,38.86,0,0,0-.5,4.3H182V156.91h-7.54c-0.26.83-.51,1.77-0.74,2.74h0Z"/><circle class="cls-5" cx="184.2" cy="160.58" r="0.92"/><circle class="cls-5" cx="184.2" cy="163.67" r="0.92"/><path class="cls-16" d="M164.15,124.41c0-7.87-6.54-10.27-12.93-10.34V150h9.19a30.69,30.69,0,0,1,1.74-4.22c0.5-.62,1.3-4.53,1.3-8.44,0,0,.87-0.17.87-5.83C164.31,128.32,164.14,129.5,164.15,124.41Z"/><path class="cls-17" d="M161.63,168.22H151.21V151h8.31S161.38,151.29,161.63,168.22Z"/><ellipse class="cls-18" cx="160.98" cy="132.83" rx="3.52" ry="4.15"/><polygon class="cls-18" points="151.21 120.77 151.21 151.07 158.85 151.07 161.2 120.77 151.21 120.77"/><ellipse class="cls-3" cx="155.28" cy="130.78" rx="0.84" ry="0.99"/><path class="cls-8" d="M151.21,133v5.43a2.56,2.56,0,0,0,1.54-.33,1.62,1.62,0,0,0,.16-1,35.19,35.19,0,0,0-1.13-3.53C151.55,133,151.21,133,151.21,133Z"/><rect class="cls-13" x="151.21" y="150.79" width="9.25" height="1.41"/><path class="cls-16" d="M161.09,119.07l-9.87.34v12.2c0.33,1.68.83,3,1.56,3.27,2.42,0.93,7-.06,7-0.06l1.49-4.65,1.18,0.87Z"/><path class="cls-19" d="M140.12,116.34c-4.53,2.79-2.92,16.31-2.23,22.39s1.24,6.76,1.24,6.76l1.05,0.5c-0.19,1.36,1.43,4,1.43,4h9.6v-35.9C146.58,114,142,115.17,140.12,116.34Z"/><path class="cls-20" d="M140.79,168.22h10.42V151H142.9S141,151.29,140.79,168.22Z"/><ellipse class="cls-21" cx="141.44" cy="132.83" rx="3.52" ry="4.15"/><polygon class="cls-21" points="151.21 120.77 151.21 151.07 143.57 151.07 141.22 120.77 151.21 120.77"/><ellipse class="cls-3" cx="147.14" cy="130.78" rx="0.84" ry="0.99"/><path class="cls-5" d="M151.21,133v5.43a2.57,2.57,0,0,1-1.55-.33,1.63,1.63,0,0,1-.16-1,35.59,35.59,0,0,1,1.13-3.53C150.87,133,151.21,133,151.21,133Z"/><rect class="cls-12" x="141.96" y="150.79" width="9.25" height="1.41"/><path class="cls-19" d="M139.75,119.82l1.7,8.85,0.66-5.57,1.86-.87,6.57-.3a58.09,58.09,0,0,0,.67,9.69v-12.2Z"/><polygon class="cls-12" points="149.66 158.5 144.64 158.5 148.7 161.45 147.15 166.22 151.21 163.27 151.21 153.73 149.66 158.5"/><polygon class="cls-13" points="155.27 166.22 153.72 161.45 157.78 158.5 152.76 158.5 151.21 153.72 151.21 153.73 151.21 163.27 151.21 163.27 155.27 166.22"/><path class="cls-15" d="M155.21,79a19.62,19.62,0,1,0-24.88,18.89l11.34,10.4,2.43-11.61A19.61,19.61,0,0,0,155.21,79Z"/><path class="cls-12" d="M124.34,79.66h-1.43V82.2h-2.58V75h2.58v2.53h1.43V75h2.59V82.2h-2.59V79.66Z"/><path class="cls-12" d="M133.73,80.42L133.41,82a12.22,12.22,0,0,1-2.65.36,2.89,2.89,0,0,1-2.45-.93,3.87,3.87,0,0,1-.59-2.36,3,3,0,0,1,.82-2.42,2.34,2.34,0,0,1,1.12-.48,7.52,7.52,0,0,1,1.14-.08,5.22,5.22,0,0,1,1.73.22,1.87,1.87,0,0,1,1.19,1.22,5.29,5.29,0,0,1,.17,1.55,7.63,7.63,0,0,1-.05.87h-3.63a0.71,0.71,0,0,0,.16.52,1.74,1.74,0,0,0,1.19.31A8.81,8.81,0,0,0,133.73,80.42Zm-1.85-1.82a1.42,1.42,0,0,0-.05-0.46,0.76,0.76,0,0,0-.83-0.41,0.83,0.83,0,0,0-.78.34,1.19,1.19,0,0,0-.11.53h1.77Z"/><path class="cls-12" d="M137.18,74.83V82.2h-2.53V74.83h2.53Z"/><path class="cls-12" d="M140.68,74.83V82.2h-2.53V74.83h2.53Z"/><path class="cls-12" d="M144.77,76a4.39,4.39,0,0,1,1.74.28,2.16,2.16,0,0,1,1.23,1.3,4.54,4.54,0,0,1,.19,1.46,4.41,4.41,0,0,1-.39,2.06,2.31,2.31,0,0,1-1.26,1.14,4.67,4.67,0,0,1-1.54.21,3.72,3.72,0,0,1-2.23-.55,3.21,3.21,0,0,1-1.07-2.77,2.93,2.93,0,0,1,1.07-2.67,2.76,2.76,0,0,1,1.05-.39A8.38,8.38,0,0,1,144.77,76Zm-0.08,2.14a0.84,0.84,0,0,0-.58.16,1.18,1.18,0,0,0-.26.87,2.59,2.59,0,0,0,.14,1,0.64,0.64,0,0,0,.28.3,0.82,0.82,0,0,0,.42.11q0.83,0,.83-1.23a1.73,1.73,0,0,0-.2-1A0.7,0.7,0,0,0,144.69,78.1Z"/><path class="cls-12" d="M151.14,80.13L149.35,80l-0.73-3.74a1.89,1.89,0,0,1,0-.31,0.71,0.71,0,0,1,.4-0.63,10.74,10.74,0,0,1,1.8-.26,1,1,0,0,1,.68.13,0.82,0.82,0,0,1,.31.64,2.32,2.32,0,0,1,0,.35ZM149,81.65a1.06,1.06,0,0,0,.1.45,1.15,1.15,0,0,0,.26.36,1.23,1.23,0,0,0,1.67,0,1.11,1.11,0,0,0,.26-0.36,1.17,1.17,0,0,0,0-.91,1.09,1.09,0,0,0-.26-0.36,1.28,1.28,0,0,0-.38-0.25,1.2,1.2,0,0,0-.92,0,1.29,1.29,0,0,0-.38.25,1.14,1.14,0,0,0-.26.36A1.07,1.07,0,0,0,149,81.65Z"/><ellipse class="cls-3" cx="208.17" cy="130.53" rx="0.8" ry="0.95"/><path class="cls-19" d="M201.82,132.45h10v-20s-2.83,0-3.48.87c-2.1.07-5.88-.44-6.89,4.57-1.6-.07-3.48,1.6-2,7.84A38.33,38.33,0,0,0,201.82,132.45Z"/><ellipse class="cls-21" cx="203.49" cy="135.07" rx="3.38" ry="3.26"/><polygon class="cls-21" points="211.83 119.91 211.83 148.97 204.5 148.97 202.25 119.91 211.83 119.91"/><path class="cls-5" d="M211.83,134.16V138a3.14,3.14,0,0,1-1.46-.24,0.91,0.91,0,0,1-.15-0.72,20.87,20.87,0,0,1,1.07-2.5A0.57,0.57,0,0,1,211.83,134.16Z"/><path class="cls-15" d="M201.75,168.59h10.09V149.36h-8.56S201,164.89,201.75,168.59Z"/><path class="cls-12" d="M202.55,154.87h9.29v-2.1h-9C202.73,153.41,202.64,154.12,202.55,154.87Z"/><path class="cls-12" d="M202.1,158.94h9.74v-2.1h-9.51C202.24,157.52,202.17,158.23,202.1,158.94Z"/><path class="cls-12" d="M201.74,163h10.09v-2.1h-9.92C201.85,161.61,201.79,162.32,201.74,163Z"/><path class="cls-12" d="M201.61,167.06h10.22V165h-10.2C201.6,165.74,201.59,166.45,201.61,167.06Z"/><ellipse class="cls-3" cx="215.5" cy="130.53" rx="0.8" ry="0.95"/><path class="cls-16" d="M221.85,132.45h-10v-20s2.83,0,3.48.87c2.11,0.07,5.88-.44,6.89,4.57,1.6-.07,3.48,1.6,2,7.84A38.33,38.33,0,0,1,221.85,132.45Z"/><ellipse class="cls-18" cx="220.18" cy="135.07" rx="3.38" ry="3.26"/><polygon class="cls-18" points="211.84 119.91 211.84 148.97 219.16 148.97 221.42 119.91 211.84 119.91"/><path class="cls-8" d="M211.84,134.16V138a3.14,3.14,0,0,0,1.46-.24,0.91,0.91,0,0,0,.15-0.72,20.79,20.79,0,0,0-1.07-2.5A0.57,0.57,0,0,0,211.84,134.16Z"/><path class="cls-14" d="M221.92,168.59H211.84V149.36h8.56S222.65,164.89,221.92,168.59Z"/><path class="cls-13" d="M221.12,154.87h-9.29v-2.1h9C220.94,153.41,221,154.12,221.12,154.87Z"/><path class="cls-13" d="M221.57,158.94h-9.74v-2.1h9.51C221.43,157.52,221.5,158.23,221.57,158.94Z"/><path class="cls-13" d="M221.93,163H211.84v-2.1h9.92C221.82,161.61,221.88,162.32,221.93,163Z"/><path class="cls-13" d="M222.06,167.06H211.84V165H222C222.06,165.74,222.07,166.45,222.06,167.06Z"/><path class="cls-5" d="M202.69,148.27s-5.59,5.66-4.86,9.94C199.79,157.2,203.13,152.77,202.69,148.27Z"/><path class="cls-5" d="M202.61,148.49s-2.66,6.63-.57,9.92C203.31,156.89,204.54,152.07,202.61,148.49Z"/><ellipse class="cls-3" cx="215.85" cy="130.53" rx="0.8" ry="0.95"/><path class="cls-5" d="M202.47,148.27c1.08,4.12,5.1,5.64,9.36,6.24v-6.24h-9.36Z"/><path class="cls-19" d="M201.46,119.32l1.78,12.44s1.41-1.94,1.85-1.8-0.42,2.14.82,2.29,1-2.26,2.07-2.23c0.73,0-.13,2.29,1.25,2.5a2.89,2.89,0,0,0,2.61-1.23V119.35Z"/><path class="cls-8" d="M219.45,148.27h-7.62v6.24c4.06,0.57,8.33.3,10.45,0.66C222.07,149.58,219.45,148.27,219.45,148.27Z"/><path class="cls-16" d="M214.37,124.9c1.09,0.07,6.17-.22,6.17-0.22l0.43,7,1.16-12.34-10.3,0V131.3A12.72,12.72,0,0,0,214.37,124.9Z"/><path class="cls-16" d="M363.13,73.62H352.71a15.64,15.64,0,0,0-8.83,28.56L342,114.09l9.64-9.22c0.35,0,.7,0,1,0h10.42A15.65,15.65,0,0,0,363.13,73.62Z"/><path class="cls-12" d="M341.87,83.49l1.42-1.55s0,8.57,1,8.78a43.57,43.57,0,0,0,5.2,0s0.08-2.23-.59-2.36a0.77,0.77,0,0,1,.05-1.49c0.88-.27,1.49,1.33,1.35,3.94h6.14s-1.75-2.4-4.12-2.25c-1.08.07-.2-1.69,0.88-1.55s5.27,3.8,5.27,3.8h0.95v1.6H344.3a2.25,2.25,0,0,1-1.35-1.55c-0.4-1.28-.4-6.89-0.4-6.89Z"/><ellipse class="cls-12" cx="348.07" cy="94.83" rx="0.84" ry="0.81"/><path class="cls-12" d="M373.25,87.75c-0.56-.3-1.62,0-2.08,1.36s-2.53,2.18-3.14,1.67,0-2.23-1-2.84-1.12.3-1,1.16,0.86,1.72,1.22,2.84-2.68,3.14-4.36,3.24a7.27,7.27,0,0,1-2.84-.35c0.35,0.71,1.37,1.82,3.75,1.72s4.15-3.49,4.41-4.15c1,0.46,2.58-.86,3.09-1.22s2.13,1.42,3,.91S373.81,88,373.25,87.75Zm0.4,3.08a2.42,2.42,0,0,1-1.82-1.11c-0.35-.61.46-0.86,1.22-0.56S373.65,90.83,373.65,90.83Z"/><path class="cls-22" d="M163.49,73h15.86a15.28,15.28,0,0,1,8.38,28.06l-1.79,11.2-6.56-8.7H163.49A15.28,15.28,0,0,1,163.49,73Z"/><path class="cls-12" d="M188.26,86.11V85.23l-1.87,0L183.44,82l-0.65.59,2.41,2.64-30,.26V86.4l5.76,0v2.13H156.5a2,2,0,0,0-1.22.8,2.43,2.43,0,0,0-.3,1.89,1.67,1.67,0,0,0,1.71,1.4h0.1a1.68,1.68,0,0,0,1.68-1.44,4.61,4.61,0,0,0-.15-1.78H161v4.16h0.87V86.34l4.16,0c0,0.58,0,1.78,0,2.76h-1.22a1.51,1.51,0,0,0-1.19,1.32,1.91,1.91,0,0,0,1.72,1.91h0.11a1.26,1.26,0,0,0,.87-0.31,2.24,2.24,0,0,0,.54-1.59c0-.12,0-0.28,0-0.48h3.37v3.58h0.87V86.26l4.26,0V89.5l-1,.86a11.47,11.47,0,0,1-.77-1,0.3,0.3,0,0,1,0,.08l-0.86.15c0,0.13.07,0.41,3.54,4.47l0.66-.57c-0.71-.83-1.44-1.7-2-2.44l1.13-1L176,89.94h3.41V89.06h-3.2V86.22l9.54-.08v2.59H182l-0.06,0a2.23,2.23,0,0,0-1.67,2.76,3.36,3.36,0,0,0,2.3,2.45l0.21-.85a2.49,2.49,0,0,1-1.67-1.81,1.37,1.37,0,0,1,1-1.68h3.44l0.18,3.94,0.87,0V86.12h1.65Zm-30.66,5a0.83,0.83,0,0,1-.85.63,0.81,0.81,0,0,1-.9-0.68c-0.25-1.32.55-1.61,0.78-1.66h0.75A3.07,3.07,0,0,1,157.59,91.06Zm8.33-.69a1.78,1.78,0,0,1-.25,1,0.44,0.44,0,0,1-.35.08,1,1,0,0,1-.9-1,0.7,0.7,0,0,1,.51-0.46h1C165.94,90.11,165.93,90.26,165.92,90.37Zm4.26-1.31h-3.35c0-1,0-2.19,0-2.77l3.3,0v2.79Z"/><path class="cls-23" d="M110.42,153.67h7v14.55H106.93C106.93,165.05,108.35,154.77,110.42,153.67Z"/><path class="cls-5" d="M117.4,153.28V114.43s-5.3-1-6.72,2.26c-2,0-6.92,1.1-7.24,6.4-1.55.65-2.2,3.56-1.49,5a4.73,4.73,0,0,0,.84,7.31c3.42,2.52,2.59,1.49,2.59,1.49a4,4,0,0,0,1.49,3.1c0.26,1.42-3.48,10.93-.89,12.93S117.4,153.28,117.4,153.28Z"/><ellipse class="cls-21" cx="109.72" cy="138.3" rx="2.33" ry="2.74"/><polygon class="cls-21" points="117.4 125.56 117.4 151.46 113.39 151.46 108.48 125.56 117.4 125.56"/><ellipse class="cls-3" cx="113.68" cy="134.21" rx="0.71" ry="0.84"/><path class="cls-5" d="M117.4,137.06v2.86a2.75,2.75,0,0,1-1.18-.18,0.62,0.62,0,0,1-.12-0.53,14.74,14.74,0,0,1,.87-1.86A0.47,0.47,0,0,1,117.4,137.06Z"/><path class="cls-17" d="M124.38,153.67h-7v14.55h10.47C127.87,165.05,126.45,154.77,124.38,153.67Z"/><path class="cls-8" d="M117.4,153.28V114.43s5.3-1,6.72,2.26c2,0,6.92,1.1,7.24,6.4,1.55,0.65,2.2,3.56,1.49,5a4.73,4.73,0,0,1-.84,7.31c-3.43,2.52-2.59,1.49-2.59,1.49a4,4,0,0,1-1.49,3.1c-0.26,1.42,3.48,10.93.89,12.93S117.4,153.28,117.4,153.28Z"/><ellipse class="cls-18" cx="125.08" cy="138.3" rx="2.33" ry="2.74"/><polygon class="cls-18" points="117.4 125.56 117.4 151.46 121.41 151.46 126.33 125.56 117.4 125.56"/><ellipse class="cls-3" cx="121.13" cy="134.21" rx="0.72" ry="0.84"/><path class="cls-8" d="M117.4,137.06v2.86a2.75,2.75,0,0,0,1.18-.18,0.63,0.63,0,0,0,.12-0.53,14.87,14.87,0,0,0-.87-1.86A0.47,0.47,0,0,0,117.4,137.06Z"/><path class="cls-13" d="M126.32,156.71s-0.9-3.56-2.13-4.78c-0.54-.54-3.57-0.71-6.79-0.72v5.27C121.81,156.77,126.32,156.71,126.32,156.71Z"/><path class="cls-12" d="M108.93,151.41s-1.42,1.23.32,3.36c0.8,1,4.43,1.46,8.15,1.71v-5.27C113.32,151.19,108.93,151.41,108.93,151.41Z"/><path class="cls-8" d="M117.4,122v9.24a33,33,0,0,0,4-3.1,2,2,0,0,1,2.13,1.55c0.19,1,.39,3.39,2.23,4.56,0.68-1.84,2.23-5.72,2.23-5.72S128.5,123.33,117.4,122Z"/><path class="cls-5" d="M116.85,122c-1.69-.17-15.84-2.76-11.87,11.6,0.21,0.74,7.81.88,12.42-2.29V122Z"/><path class="cls-17" d="M127.66,125.8a8.55,8.55,0,0,0-1.85-3.44c-1.33-1.53-3.85-3.37-8.31-3.37h-0.1v1.48h0.1c7.33,0,8.64,5.39,8.69,5.63a0.75,0.75,0,0,0,.73.59l0.16,0A0.75,0.75,0,0,0,127.66,125.8Z"/><path class="cls-23" d="M117.4,119h-0.1c-4.45,0-7,1.83-8.31,3.37a8.56,8.56,0,0,0-1.85,3.44,0.75,0.75,0,0,0,.57.89l0.16,0a0.75,0.75,0,0,0,.73-0.59c0.05-.23,1.36-5.63,8.69-5.63h0.1V119h0Z"/><path class="cls-14" d="M256.53,116.58c-3.22-4.79-9-5.47-12.37-5v49.86c1.18,0,4.5,0,7.92-.16C258.54,161.07,262,124.78,256.53,116.58Z"/><path class="cls-15" d="M244.16,111.63a8.87,8.87,0,0,0-4.71,2c-2.78-.67-7.9-0.78-10.68,4.67s0.22,30,1.78,32c-0.34,4.78.67,6.78,2.78,9.23s9.79,1.89,9.79,1.89,0.34,0,1,.05V111.63Z"/><ellipse class="cls-21" cx="235.22" cy="137.95" rx="2.94" ry="3.46"/><polygon class="cls-21" points="244.16 126.77 244.16 152.03 238.95 152.03 235.17 126.77 244.16 126.77"/><ellipse class="cls-3" cx="240.64" cy="132.55" rx="0.7" ry="0.82"/><path class="cls-5" d="M244.16,137.28v3.57a2.9,2.9,0,0,1-1.36-.22,0.84,0.84,0,0,1-.14-0.67,19.44,19.44,0,0,1,1-2.32A0.53,0.53,0,0,1,244.16,137.28Z"/><path class="cls-23" d="M236.94,152.06a3.09,3.09,0,0,0-.64.59h7.86v-0.59h-7.23Z"/><path class="cls-24" d="M235.34,168.22h8.82v-14h-8.49C235.13,158.07,235.34,168.22,235.34,168.22Z"/><path class="cls-12" d="M235.71,154l0,0.22h8.49v-1.56H236.3A2.74,2.74,0,0,0,235.71,154Z"/><ellipse class="cls-18" cx="253.11" cy="137.95" rx="2.94" ry="3.46"/><polygon class="cls-18" points="244.16 126.77 244.16 152.03 249.38 152.03 253.16 126.77 244.16 126.77"/><ellipse class="cls-3" cx="247.69" cy="132.55" rx="0.7" ry="0.82"/><path class="cls-8" d="M244.17,137.28v3.57a2.9,2.9,0,0,0,1.36-.22,0.83,0.83,0,0,0,.14-0.67,19,19,0,0,0-1-2.32A0.53,0.53,0,0,0,244.17,137.28Z"/><path class="cls-16" d="M253,168.22h-8.82v-14h8.49C253.2,158.07,253,168.22,253,168.22Z"/><path class="cls-23" d="M251.39,152.06a3.11,3.11,0,0,1,.64.59h-7.87v-0.59h7.23Z"/><path class="cls-13" d="M252.62,154l0,0.22h-8.49v-1.56H252A2.75,2.75,0,0,1,252.62,154Z"/><path class="cls-14" d="M250.58,118.28c-1.38-1.53-3.86-2.27-6.41-2.43v18c2.86-3,3.61-9.26,3.52-10,1.71,1.39,5.78,6.06,5.9,7.71C253.69,125.44,253.66,121.69,250.58,118.28Z"/><path class="cls-15" d="M236.23,117.61c-2.56,2.22-6.45,4.67-3,14.68,0,0,10,2.53,10.94,1.57v-18C241,115.66,237.65,116.38,236.23,117.61Z"/><polygon class="cls-13" points="246.68 161.95 244.94 161.7 244.16 160.12 244.16 160.12 244.16 164.09 244.16 164.09 245.72 164.91 245.42 163.18 246.68 161.95"/><polygon class="cls-12" points="243.38 161.7 241.65 161.95 242.9 163.18 242.61 164.91 244.16 164.09 244.16 160.12 243.38 161.7"/><path class="cls-5" d="M236.44,150.77a17.52,17.52,0,0,0-5.84,5.29,13.61,13.61,0,0,0-2.34,7.3A15,15,0,0,0,234,158.7C236,155.63,236.44,150.77,236.44,150.77Z"/><path class="cls-5" d="M236.62,150.78a15.22,15.22,0,0,0-3.09,6.1,11.81,11.81,0,0,0,.37,6.64,13,13,0,0,0,3.17-5.54C237.8,154.85,236.62,150.78,236.62,150.78Z"/><path class="cls-5" d="M235.57,150.35a1.2,1.2,0,0,0-1.3,1.06v6.06a1.2,1.2,0,0,0,1.3,1.06h8.6v-8.17h-8.6Z"/><path class="cls-8" d="M252.78,150.35a1.2,1.2,0,0,1,1.3,1.06v6.06a1.2,1.2,0,0,1-1.3,1.06h-8.61v-8.17h8.61Z"/><path class="cls-22" d="M251.88,67C240.36,67,231,74.6,231,84a14.16,14.16,0,0,0,1.16,5.59l5.54,21.19,3.88-12A24.5,24.5,0,0,0,251.88,101c11.53,0,20.86-7.6,20.86-17S263.41,67,251.88,67Z"/><path class="cls-12" d="M244.21,80.71a4,4,0,0,1,3.06,1,4.37,4.37,0,0,1,.91,3.08,6.65,6.65,0,0,1-.35,2.24,3.6,3.6,0,0,1-1,1.55,4.23,4.23,0,0,1-2.8.76,4,4,0,0,1-2.6-.74,3.35,3.35,0,0,1-1.07-1.67,7.15,7.15,0,0,1-.34-2.21,4,4,0,0,1,1.07-3.16A4.78,4.78,0,0,1,244.21,80.71Zm-0.12,2.79a1.19,1.19,0,0,0-.74.21,1.47,1.47,0,0,0-.43,1.25,2.56,2.56,0,0,0,.39,1.63,1.14,1.14,0,0,0,1.77-.26,3.06,3.06,0,0,0,.19-1.2,1.85,1.85,0,0,0-.39-1.4A1.15,1.15,0,0,0,244.09,83.5Z"/><path class="cls-12" d="M251.89,80.67V89.1H249V80.67h2.9Z"/><path class="cls-12" d="M260.4,82.1v7h-2.92q-0.29-.51-0.57-0.23a2.11,2.11,0,0,1-1.42.4,2.28,2.28,0,0,1-2-.81,5.75,5.75,0,0,1-.69-3.18,6.31,6.31,0,0,1,.19-1.7,2.7,2.7,0,0,1,.59-1.12,2.39,2.39,0,0,1,1.81-.61,6.79,6.79,0,0,1,2.23.37A5.07,5.07,0,0,0,260.4,82.1Zm-4.25,2.31q-0.91,0-.91,1.19,0,1.37.9,1.37a0.75,0.75,0,0,0,.64-0.27,1.81,1.81,0,0,0,.25-1.1,1.46,1.46,0,0,0-.23-1A0.82,0.82,0,0,0,256.14,84.41Z"/><path class="cls-12" d="M264.28,86.73l-2-.14-0.83-4.27a2.17,2.17,0,0,1,0-.35,0.81,0.81,0,0,1,.46-0.72,12.21,12.21,0,0,1,2.06-.29,1.17,1.17,0,0,1,.78.15,0.94,0.94,0,0,1,.35.74,2.65,2.65,0,0,1,0,.4Zm-2.46,1.74a1.21,1.21,0,0,0,.11.52,1.33,1.33,0,0,0,.3.41,1.41,1.41,0,0,0,1.91,0,1.29,1.29,0,0,0,0-1.87,1.46,1.46,0,0,0-.43-0.28,1.37,1.37,0,0,0-1.05,0,1.46,1.46,0,0,0-.43.28,1.32,1.32,0,0,0-.3.41A1.22,1.22,0,0,0,261.82,88.47Z"/><path class="cls-12" d="M256.63,80.9a1,1,0,0,1-.81-1.46L257,77.59a1,1,0,1,1,1.63,1l-1.14,1.85A1,1,0,0,1,256.63,80.9Z"/><path class="cls-15" d="M46.66,152.46V114.19s-13.27-.31-13.43,3.26,3.18,17.93,2.8,20.1S33.46,147.49,33.3,149a3.31,3.31,0,0,0,3.57,3.26C38.89,152.07,46.66,152.46,46.66,152.46Z"/><path class="cls-15" d="M38,168.22h8.69V152.31H40.37S37.5,157.74,38,168.22Z"/><rect class="cls-5" x="43.25" y="152.31" width="3.41" height="15.91"/><rect class="cls-12" x="43.24" y="157.66" width="3.42" height="1.32"/><rect class="cls-12" x="43.24" y="161.08" width="3.42" height="1.32"/><rect class="cls-12" x="43.24" y="164.49" width="3.42" height="1.32"/><ellipse class="cls-21" cx="38.6" cy="137.44" rx="2.54" ry="2.99"/><polygon class="cls-21" points="46.66 126.39 46.66 151.11 40.42 151.11 38.5 126.39 46.66 126.39"/><ellipse class="cls-3" cx="42.79" cy="135.18" rx="0.68" ry="0.81"/><path class="cls-5" d="M46.66,139.26v3.16a2.58,2.58,0,0,1-1.2-.19,0.75,0.75,0,0,1-.12-0.59,17.14,17.14,0,0,1,.88-2.06A0.47,0.47,0,0,1,46.66,139.26Z"/><path class="cls-14" d="M46.66,152.46V114.19s13.27-.31,13.43,3.26-3.18,17.93-2.79,20.1S59.85,147.49,60,149a3.31,3.31,0,0,1-3.57,3.26C54.42,152.07,46.66,152.46,46.66,152.46Z"/><path class="cls-14" d="M55.35,168.22H46.66V152.31h6.29S55.81,157.74,55.35,168.22Z"/><rect class="cls-8" x="46.66" y="152.31" width="3.41" height="15.91"/><rect class="cls-13" x="46.66" y="157.66" width="3.41" height="1.32"/><rect class="cls-13" x="46.66" y="161.08" width="3.41" height="1.32"/><rect class="cls-13" x="46.66" y="164.49" width="3.41" height="1.32"/><ellipse class="cls-18" cx="54.71" cy="137.44" rx="2.54" ry="2.99"/><polygon class="cls-18" points="46.66 126.39 46.66 151.11 52.89 151.11 54.81 126.39 46.66 126.39"/><ellipse class="cls-3" cx="50.52" cy="135.18" rx="0.68" ry="0.81"/><path class="cls-8" d="M46.66,139.26v3.16a2.58,2.58,0,0,0,1.2-.19,0.75,0.75,0,0,0,.12-0.59,17,17,0,0,0-.88-2.06A0.47,0.47,0,0,0,46.66,139.26Z"/><path class="cls-6" d="M40.19,151s-1.94,4.66-.93,6.91,2.13,2.68,3.21,2.1S43.68,152.85,40.19,151Z"/><path class="cls-6" d="M39.83,151.16s-3.05,1.85-3.42,3.56,0.19,2.25,1,2.51S41,153.69,39.83,151.16Z"/><path class="cls-15" d="M37.45,120.36l-1.37,13.09s2.26,2.66,4,2.87c2.19,0.26,4.39-.72,6.55-2.59V122.09Z"/><path class="cls-14" d="M52.45,126.54c0.23,1.32,1.16,4.42,2.25,4.42s0.7-7.22.7-7.22l-8.75-1.65v11.63A32.12,32.12,0,0,0,52.45,126.54Z"/><path class="cls-6" d="M41.43,150.44c-2.48.62-1.81,1.27,0.21,2.05,0.62,0.24,2.68.72,5,1.23V150.1C43.88,150.22,41.43,150.44,41.43,150.44Z"/><path class="cls-9" d="M54.31,150.68c-0.67-.71-4.39-0.72-7.66-0.58v3.63c3.88,0.84,8.51,1.77,8.51,1.77S55.56,152,54.31,150.68Z"/><circle class="cls-16" cx="52.09" cy="158.4" r="0.94"/><circle class="cls-16" cx="52.09" cy="161.78" r="0.94"/><circle class="cls-16" cx="52.09" cy="165.16" r="0.94"/><path class="cls-25" d="M28.41,68.53H38.54A15.21,15.21,0,0,1,47.13,96.3l-0.6,11.42L38,98.91c-0.34,0-.68,0-1,0H28.41A15.21,15.21,0,0,1,28.41,68.53Z"/><path class="cls-12" d="M23.83,80.49v2q-0.37-.07-0.93-0.12t-1-.06a1.78,1.78,0,0,0-.75.11,0.3,0.3,0,0,0-.17.3q0,0.4.58,0.4h0.28a3.07,3.07,0,0,1,1.51.26A1.64,1.64,0,0,1,24,84.88a2.06,2.06,0,0,1-.65,1.74,3.18,3.18,0,0,1-1.9.45,17.33,17.33,0,0,1-2.63-.24V85.16a10.55,10.55,0,0,0,1.84.15,2.16,2.16,0,0,0,.77-0.08,0.33,0.33,0,0,0,.15-0.31,0.32,0.32,0,0,0-.13-0.29A0.69,0.69,0,0,0,21,84.53a4.86,4.86,0,0,1-1.42-.1,1.29,1.29,0,0,1-.84-0.91,3.44,3.44,0,0,1-.15-1.1,1.92,1.92,0,0,1,.84-1.86,4.31,4.31,0,0,1,2-.36A11.74,11.74,0,0,1,23.83,80.49Z"/><path class="cls-12" d="M30.69,81.28v5.66H28.32q-0.24-.42-0.46-0.19a1.7,1.7,0,0,1-1.15.32,1.84,1.84,0,0,1-1.62-.65,4.65,4.65,0,0,1-.56-2.57,5.17,5.17,0,0,1,.16-1.37,2.19,2.19,0,0,1,.48-0.9,1.93,1.93,0,0,1,1.46-.49,5.51,5.51,0,0,1,1.8.3A4.1,4.1,0,0,0,30.69,81.28Zm-3.44,1.87q-0.74,0-.74,1t0.73,1.1A0.6,0.6,0,0,0,27.76,85a1.47,1.47,0,0,0,.2-0.89,1.17,1.17,0,0,0-.19-0.77A0.67,0.67,0,0,0,27.25,83.15Z"/><path class="cls-12" d="M33.92,80.13v6.82H31.57V80.13h2.34Z"/><path class="cls-12" d="M40.47,81.27v3.38a6.22,6.22,0,0,1-.07.92,1.63,1.63,0,0,1-.34.8,1.91,1.91,0,0,1-.77.53,4.19,4.19,0,0,1-1.66.28,3,3,0,0,1-2.45-.86,2.73,2.73,0,0,1-.38-1.67V81.27h2.35v2.85a1.59,1.59,0,0,0,.06.47,0.38,0.38,0,0,0,.42.26,0.39,0.39,0,0,0,.43-0.26,1.93,1.93,0,0,0,0-.47V81.27h2.36Z"/><path class="cls-12" d="M45.69,81.42V83.3H44V85a1.72,1.72,0,0,0,0,.33,0.61,0.61,0,0,0,.66.31,2.64,2.64,0,0,0,.52-0.06l0.29,0-0.07,1.39a9.74,9.74,0,0,1-1.83.2,2.29,2.29,0,0,1-1.57-.41A1.21,1.21,0,0,1,41.72,86c0-.06,0-0.2,0-0.4V83.3H41V82.14q1.27,0,1.28-.9t0.5-.91H44v1.1h1.65Z"/><path class="cls-12" d="M48.58,85l-1.65-.11-0.67-3.46a1.75,1.75,0,0,1,0-.28,0.65,0.65,0,0,1,.37-0.59,9.85,9.85,0,0,1,1.66-.24,0.94,0.94,0,0,1,.63.12,0.76,0.76,0,0,1,.28.59,2.21,2.21,0,0,1,0,.32Zm-2,1.41a1,1,0,0,0,.09.42,1.08,1.08,0,0,0,.24.34,1.14,1.14,0,0,0,1.55,0A1.06,1.06,0,0,0,48.71,86a1,1,0,0,0-.24-0.33,1.17,1.17,0,0,0-.35-0.23,1.11,1.11,0,0,0-.85,0,1.17,1.17,0,0,0-.35.23,1.06,1.06,0,0,0-.24.33A1,1,0,0,0,46.59,86.44Z"/><path class="cls-15" d="M84.53,94.62A14.08,14.08,0,0,0,70.45,80.54H61.07a14.08,14.08,0,0,0,0,28.16h6.61c0.32,0,.63,0,0.94,0L77.27,113l1.13-6.73A14.07,14.07,0,0,0,84.53,94.62Z"/><path class="cls-12" d="M62.11,96.2H60.37v3.08H57.24V90.6h3.13v3.07h1.73V90.6h3.15v8.68H62.11V96.2Z"/><path class="cls-12" d="M66.5,90.17a1.45,1.45,0,0,1,.12-0.58,1.51,1.51,0,0,1,.32-0.48,1.53,1.53,0,0,1,.48-0.32,1.5,1.5,0,0,1,1.16,0,1.56,1.56,0,0,1,.48.32,1.53,1.53,0,0,1,.32.48,1.5,1.5,0,0,1,0,1.16,1.51,1.51,0,0,1-.32.48,1.53,1.53,0,0,1-.48.32,1.5,1.5,0,0,1-1.16,0,1.52,1.52,0,0,1-.8-0.8A1.45,1.45,0,0,1,66.5,90.17Zm3,1.88v7.23h-3V92h3Z"/><path class="cls-12" d="M73.65,96.77l-2.17-.15L70.6,92.09a2.34,2.34,0,0,1,0-.37A0.86,0.86,0,0,1,71,90.95a13,13,0,0,1,2.18-.31,1.24,1.24,0,0,1,.83.16,1,1,0,0,1,.37.78,2.93,2.93,0,0,1,0,.42ZM71,98.61a1.3,1.3,0,0,0,.12.55,1.4,1.4,0,0,0,.32.44,1.45,1.45,0,0,0,.46.29,1.49,1.49,0,0,0,1.57-.29,1.32,1.32,0,0,0,.31-0.44,1.41,1.41,0,0,0,0-1.1,1.32,1.32,0,0,0-.31-0.44,1.57,1.57,0,0,0-.46-0.3,1.45,1.45,0,0,0-1.11,0,1.54,1.54,0,0,0-.46.3,1.4,1.4,0,0,0-.32.44A1.3,1.3,0,0,0,71,98.61Z"/><path class="cls-26" d="M266.87,159.94a0.5,0.5,0,0,1,.07.7l-0.5.62a0.5,0.5,0,0,1-.7.07h0a0.5,0.5,0,0,1-.07-0.7l0.51-.61a0.5,0.5,0,0,1,.7-0.07h0Z"/><path class="cls-2" d="M266.1,123.34c-2.78.4-5,3.18-3,6.76-2,1.79-1.79,7.36.6,9.55S267.18,144,278.5,144V116.89C275.29,114.73,266.1,116.28,266.1,123.34Z"/><path class="cls-3" d="M292,141a6.64,6.64,0,0,0,1-4.38c2-1,3-2.39,2.78-4.57s-1.19-3.58-2.78-4c0.6-2-1.49-6.56-4.28-7.76-2.95-1.26-3.68-.6-3.68-0.6,1.13-3.58-5.63-4.64-6.36-2.78l-0.13-.09V144h1.72S290.56,143.23,292,141Z"/><path class="cls-27" d="M269.85,168.22h8.65V154.4h-7.16S269.25,162.75,269.85,168.22Z"/><ellipse class="cls-21" cx="269.94" cy="137.7" rx="3.09" ry="3.64"/><polygon class="cls-21" points="278.5 127.19 278.5 153.74 271.81 153.74 269.74 127.19 278.5 127.19"/><ellipse class="cls-3" cx="274.12" cy="133.68" rx="0.73" ry="0.87"/><path class="cls-5" d="M278.5,137.31v3.12a2.91,2.91,0,0,1-1.27-.19,0.69,0.69,0,0,1-.13-0.58,16.23,16.23,0,0,1,.94-2A0.5,0.5,0,0,1,278.5,137.31Z"/><path class="cls-2" d="M278.5,130.93V124.8H265.41l0.4,9.45,3.32-.1s-1.72-2.55-1.62-4.21,1.29-2,3-2S277.34,126.75,278.5,130.93Z"/><path class="cls-5" d="M271.22,153.23a16.47,16.47,0,0,0-5.49,5,12.81,12.81,0,0,0-2.2,6.87,14.07,14.07,0,0,0,5.35-4.38C270.84,157.8,271.22,153.23,271.22,153.23Z"/><path class="cls-5" d="M271.39,153.24a14.32,14.32,0,0,0-2.91,5.74,11.11,11.11,0,0,0,.35,6.25,12.22,12.22,0,0,0,3-5.21A16.07,16.07,0,0,0,271.39,153.24Z"/><path class="cls-5" d="M270.41,152.84a1.13,1.13,0,0,0-1.23,1v5.7a1.13,1.13,0,0,0,1.23,1h8.09v-7.69h-8.09Z"/><path class="cls-26" d="M275,154.26a0.5,0.5,0,0,1-.5.5h-0.8a0.5,0.5,0,0,1-.5-0.5h0a0.5,0.5,0,0,1,.5-0.5h0.8a0.5,0.5,0,0,1,.5.5h0Z"/><path class="cls-26" d="M277.34,157.1a0.5,0.5,0,0,1-.5.5H276a0.5,0.5,0,0,1-.5-0.5h0a0.5,0.5,0,0,1,.5-0.5h0.8a0.5,0.5,0,0,1,.5.5h0Z"/><path class="cls-26" d="M273.76,158.54a0.5,0.5,0,0,1-.5.5h-0.8a0.5,0.5,0,0,1-.5-0.5h0a0.5,0.5,0,0,1,.5-0.5h0.8a0.5,0.5,0,0,1,.5.5h0Z"/><path class="cls-26" d="M270.31,160.47a0.5,0.5,0,0,1,.07.7l-0.5.62a0.5,0.5,0,0,1-.7.07h0a0.5,0.5,0,0,1-.07-0.7l0.5-.62a0.5,0.5,0,0,1,.7-0.07h0Z"/><path class="cls-26" d="M269.5,156.65a0.5,0.5,0,0,1,.07.7l-0.5.62a0.5,0.5,0,0,1-.7.07h0a0.5,0.5,0,0,1-.07-0.7l0.5-.62a0.5,0.5,0,0,1,.7-0.07h0Z"/><path class="cls-28" d="M287.15,168.22H278.5V154.4h7.16S287.75,162.75,287.15,168.22Z"/><ellipse class="cls-18" cx="287.06" cy="137.7" rx="3.09" ry="3.64"/><polygon class="cls-18" points="278.5 127.19 278.5 153.74 285.2 153.74 287.26 127.19 278.5 127.19"/><ellipse class="cls-3" cx="282.88" cy="133.68" rx="0.73" ry="0.87"/><path class="cls-8" d="M278.5,137.31v3.12a2.92,2.92,0,0,0,1.28-.19,0.69,0.69,0,0,0,.13-0.58,16.34,16.34,0,0,0-.93-2A0.5,0.5,0,0,0,278.5,137.31Z"/><path class="cls-3" d="M278.5,130.93V124.8h13.09l-0.4,9.45-3.31-.1s1.72-2.55,1.62-4.21-1.29-2-2.95-2S279.66,126.75,278.5,130.93Z"/><path class="cls-8" d="M286.6,152.84a1.13,1.13,0,0,1,1.22,1v5.7a1.13,1.13,0,0,1-1.22,1h-8.1v-7.69h8.1Z"/><path class="cls-13" d="M282,154.26a0.5,0.5,0,0,0,.5.5h0.8a0.5,0.5,0,0,0,.5-0.5h0a0.5,0.5,0,0,0-.5-0.5h-0.8a0.5,0.5,0,0,0-.5.5h0Z"/><path class="cls-13" d="M279.66,157.1a0.5,0.5,0,0,0,.5.5H281a0.5,0.5,0,0,0,.5-0.5h0a0.5,0.5,0,0,0-.5-0.5h-0.8a0.5,0.5,0,0,0-.5.5h0Z"/><path class="cls-13" d="M283.24,158.54a0.5,0.5,0,0,0,.5.5h0.8a0.5,0.5,0,0,0,.5-0.5h0a0.5,0.5,0,0,0-.5-0.5h-0.8a0.5,0.5,0,0,0-.5.5h0Z"/><path class="cls-2" d="M278.49,161.67a1,1,0,1,0,0,2h0v-2h0Z"/><path class="cls-3" d="M279.47,162.65a1,1,0,0,0-1-1v2A1,1,0,0,0,279.47,162.65Z"/><path class="cls-2" d="M278.49,164.71a1,1,0,1,0,0,2h0v-2h0Z"/><path class="cls-3" d="M279.47,165.68a1,1,0,0,0-1-1v2A1,1,0,0,0,279.47,165.68Z"/><path class="cls-14" d="M323.21,155.33a2,2,0,0,0-2-2l-8.08,1.19v13.73H324Z"/><path class="cls-2" d="M313.09,122v26s-8.34.88-10.71-.75-4.07-2.17-3.66-14.71c1.15-1.69,1.64-7.91,9-10.15A18.06,18.06,0,0,1,313.09,122Z"/><path class="cls-2" d="M299.35,131.74s-2.5-1.53-2.69-3.86c-0.37-4.37,3.71-7.73,6.86-7.83a4.78,4.78,0,0,1,4.78,3.3C308.7,124.42,303.57,133.68,299.35,131.74Z"/><path class="cls-5" d="M307.09,121c-4.23,2-8.24,7.81-9.43,9.78a7.47,7.47,0,0,0,1.41,1.22c0.93-1.58,5.09-7.89,9.17-9.5A5.25,5.25,0,0,0,307.09,121Z"/><ellipse class="cls-29" cx="304.12" cy="140.05" rx="3.16" ry="3.38"/><polygon class="cls-29" points="313.09 132.52 313.09 154.49 306.38 154.49 304.07 132.52 313.09 132.52"/><path class="cls-5" d="M313.09,140v3.4a2.23,2.23,0,0,1-1.28-.26,1.24,1.24,0,0,1-.13-0.8,9.82,9.82,0,0,1,.43-2A1,1,0,0,1,313.09,140Z"/><path class="cls-15" d="M313.09,154.49L305,153.29a2,2,0,0,0-2,2v12.89h10.11V154.49Z"/><path class="cls-24" d="M304.11,153c-2.27-.17-2.44,1.88-2,2.44,0.58,0.78,9,1.67,10.91,1.73h0.1v-3.37Z"/><circle class="cls-12" cx="305.21" cy="159.14" r="1.02"/><circle class="cls-12" cx="305.21" cy="165.27" r="1.02"/><circle class="cls-12" cx="308.73" cy="162.17" r="1.02"/><path class="cls-3" d="M313.09,122v26s8.34,0.88,10.71-.75,4.07-2.17,3.66-14.71c-1.15-1.69-1.64-7.91-9-10.15A18.07,18.07,0,0,0,313.09,122Z"/><path class="cls-3" d="M326.83,131.74s2.5-1.53,2.69-3.86c0.37-4.37-3.71-7.73-6.86-7.83a4.78,4.78,0,0,0-4.78,3.3C317.48,124.42,322.61,133.68,326.83,131.74Z"/><path class="cls-8" d="M319.09,121c4.23,2,8.24,7.81,9.44,9.78a7.45,7.45,0,0,1-1.41,1.22c-0.93-1.58-5.09-7.89-9.17-9.5A5.3,5.3,0,0,1,319.09,121Z"/><ellipse class="cls-30" cx="322.06" cy="140.05" rx="3.16" ry="3.38"/><polygon class="cls-30" points="313.09 132.52 313.09 154.49 319.8 154.49 322.11 132.52 313.09 132.52"/><path class="cls-8" d="M313.09,140v3.4a2.22,2.22,0,0,0,1.28-.26,1.24,1.24,0,0,0,.13-0.8,9.87,9.87,0,0,0-.43-2A1,1,0,0,0,313.09,140Z"/><path class="cls-16" d="M322.07,153c2.27-.17,2.44,1.88,2,2.44-0.58.78-9,1.67-10.91,1.73h-0.1v-3.37Z"/><circle class="cls-13" cx="320.97" cy="159.14" r="1.02"/><circle class="cls-13" cx="320.97" cy="165.27" r="1.02"/><circle class="cls-13" cx="317.45" cy="162.17" r="1.02"/><path class="cls-12" d="M312.07,159.63a1,1,0,0,0,1,1v-2A1,1,0,0,0,312.07,159.63Z"/><path class="cls-13" d="M314.1,159.63a1,1,0,0,0-1-1v2A1,1,0,0,0,314.1,159.63Z"/><path class="cls-12" d="M312.07,165.68a1,1,0,0,0,1,1v-2A1,1,0,0,0,312.07,165.68Z"/><path class="cls-13" d="M314.1,165.68a1,1,0,0,0-1-1v2A1,1,0,0,0,314.1,165.68Z"/><ellipse class="cls-3" cx="308.81" cy="136.58" rx="0.39" ry="0.85" transform="translate(85.61 389.96) rotate(-72.48)"/><ellipse class="cls-3" cx="317.31" cy="136.58" rx="0.85" ry="0.39" transform="translate(-26.4 101.85) rotate(-17.52)"/><path class="cls-31" d="M56.38,175.72v8.56a21.08,21.08,0,0,0-6-.84,7.53,7.53,0,0,0-4,.84q-1.36.88-1.36,3.53A4.52,4.52,0,0,0,46,191q1.25,1.29,4.34,1.29a33,33,0,0,0,6.06-.77v7.35a15.56,15.56,0,0,1-3.6,1.1,32.94,32.94,0,0,1-5,.29,17.92,17.92,0,0,1-6.94-1q-5.81-2.57-5.8-12.23,0-7.13,2.94-10t9.22-2.94a26.22,26.22,0,0,1,5.69.59A29.52,29.52,0,0,1,56.38,175.72Z"/><path class="cls-31" d="M71.37,173.41q6.65,0,9.63,3.16t2.87,9.7a21,21,0,0,1-1.1,7,11.33,11.33,0,0,1-3.12,4.87q-2.76,2.39-8.82,2.39-5.44,0-8.19-2.31A10.55,10.55,0,0,1,59.24,193,22.49,22.49,0,0,1,58.18,186q0-7.05,3.38-10Q64.76,173.41,71.37,173.41ZM71,182.19a3.76,3.76,0,0,0-2.31.66q-1.36,1-1.36,3.93,0,3.75,1.21,5.14a3.58,3.58,0,0,0,5.58-.81,9.63,9.63,0,0,0,.59-3.78q0-3.38-1.21-4.41A3.63,3.63,0,0,0,71,182.19Z"/><path class="cls-31" d="M116.7,174.07v25.75h-8.85l0.51-11.17h-0.22l-4.26,11.17h-5l-4.15-11.1H94.58l0.4,11.1H86.17V174.07H97.78l3.38,9.33h0.26l3.67-9.33H116.7Z"/><path class="cls-31" d="M150.83,174.07v25.75H142l0.51-11.17h-0.22L138,199.82h-5l-4.15-11.1h-0.18l0.4,11.1H120.3V174.07h11.61l3.38,9.33h0.26l3.67-9.33h11.61Z"/><path class="cls-31" d="M177.5,174.07v17a12.16,12.16,0,0,1-.68,4.13,7.07,7.07,0,0,1-1.82,2.92q-2.72,2.42-9.29,2.42-7.05,0-9.66-3a7.77,7.77,0,0,1-1.87-4.45,20.13,20.13,0,0,1-.11-2.42V174.07h9.33l0,14.44a7,7,0,0,0,.26,2.28,2.34,2.34,0,0,0,4.12-.11,8,8,0,0,0,.15-1.84l0-14.77h9.59Z"/><path class="cls-31" d="M204.68,174.07v25.75h-9.55l-5.91-11H189l0.07,11h-8.71V174.07H191l4.7,7.46h0.18l0.07-7.46h8.71Z"/><path class="cls-31" d="M218,174v25.79h-9.63V174H218Z"/><path class="cls-31" d="M241.52,175.72v8.56a21.08,21.08,0,0,0-6-.84,7.53,7.53,0,0,0-4,.84q-1.36.88-1.36,3.53a4.52,4.52,0,0,0,1,3.23q1.25,1.29,4.34,1.29a33,33,0,0,0,6.06-.77v7.35a15.55,15.55,0,0,1-3.6,1.1,32.93,32.93,0,0,1-5,.29,17.92,17.92,0,0,1-6.94-1q-5.81-2.57-5.8-12.23,0-7.13,2.94-10t9.22-2.94a26.23,26.23,0,0,1,5.69.59A29.49,29.49,0,0,1,241.52,175.72Z"/><path class="cls-31" d="M259.86,195.82h-6.5l-0.88,4h-9.59l6.65-25.75h14.29l6.72,25.75h-9.74Zm-1.18-7-2.06-7.38h-0.26l-1.87,7.38h4.19Z"/><path class="cls-31" d="M291.65,174.07v8.85h-6.39v16.9H275.7v-16.9h-6.25v-8.85h22.19Z"/><path class="cls-31" d="M304,174v25.79h-9.63V174H304Z"/><path class="cls-31" d="M319.75,173.41q6.65,0,9.63,3.16t2.87,9.7a20.94,20.94,0,0,1-1.1,7,11.33,11.33,0,0,1-3.12,4.87q-2.76,2.39-8.82,2.39-5.44,0-8.19-2.31a10.55,10.55,0,0,1-3.38-5.25,22.49,22.49,0,0,1-1.07-6.94q0-7.05,3.38-10Q313.14,173.41,319.75,173.41Zm-0.37,8.78a3.76,3.76,0,0,0-2.31.66q-1.36,1-1.36,3.93,0,3.75,1.21,5.14a3.58,3.58,0,0,0,5.58-.81,9.64,9.64,0,0,0,.59-3.78q0-3.38-1.21-4.41A3.63,3.63,0,0,0,319.39,182.19Z"/><path class="cls-31" d="M358.51,174.07v25.75H349l-5.92-11h-0.22l0.07,11h-8.71V174.07h10.65l4.7,7.46h0.18l0.07-7.46h8.71Z"/><path class="cls-15" d="M346,146.9V115.69s-6.67.86-10,4.15c-1.68,1.64-2.61,3.63-2.5,9.69s0.64,15.12.64,15.12Z"/><ellipse class="cls-32" cx="336.38" cy="134.43" rx="2.42" ry="2.85"/><polygon class="cls-32" points="345.98 124.52 345.98 154.23 338.76 154.23 336.54 124.52 345.98 124.52"/><ellipse class="cls-3" cx="341.92" cy="130.38" rx="0.79" ry="0.93"/><path class="cls-5" d="M346,134v5.14a4.19,4.19,0,0,1-2-.32,1.21,1.21,0,0,1-.2-1,27.94,27.94,0,0,1,1.43-3.34A0.76,0.76,0,0,1,346,134Z"/><path class="cls-15" d="M346,151.51V136.9s-5-.64-5.09,2.68-0.64,8.74,1.18,10.24A7.87,7.87,0,0,0,346,151.51Z"/><path class="cls-21" d="M344.21,141.51a0.53,0.53,0,1,0,0,1.05H346v-1.05h-1.77Z"/><polygon class="cls-15" points="340.14 124.23 336.86 129.91 334.84 123.19 340.14 124.23"/><path class="cls-14" d="M346,146.9V115.69s6.67,0.86,10,4.15c1.68,1.64,2.61,3.63,2.5,9.69s-0.64,15.12-.64,15.12Z"/><ellipse class="cls-33" cx="355.58" cy="134.43" rx="2.42" ry="2.85"/><polygon class="cls-33" points="345.98 124.52 345.98 154.23 353.2 154.23 355.42 124.52 345.98 124.52"/><ellipse class="cls-3" cx="350.04" cy="130.38" rx="0.79" ry="0.93"/><path class="cls-8" d="M346,134v5.14a4.19,4.19,0,0,0,2-.32,1.21,1.21,0,0,0,.2-1,27.86,27.86,0,0,0-1.43-3.34A0.76,0.76,0,0,0,346,134Z"/><path class="cls-14" d="M346,151.51V136.9s5-.64,5.09,2.68,0.64,8.74-1.18,10.24A7.87,7.87,0,0,1,346,151.51Z"/><path class="cls-18" d="M347.72,141.51a0.53,0.53,0,1,1,0,1.05H346v-1.05h1.77Z"/><polygon class="cls-14" points="351.82 124.23 355.09 129.91 357.12 123.19 351.82 124.23"/><path class="cls-34" d="M347.76,155.77l-1.78.37h0Z"/><path class="cls-6" d="M341.85,159.36H346v-3.21h0l-0.3-.06c-3.19-.65-6.32-1.41-8.32-1.92l-0.38-.1-2.09-.52c-0.16,1.53-.45,10.68-0.59,14.67h7.59v-8.86Z"/><path class="cls-15" d="M346,156.14h0Z"/><path class="cls-15" d="M346,156.14v-2.62h0l-2.21-.47c-4.25-.94-6.66-1.65-6.71-1.66l-0.67,2.49s-0.27,0,.57.2c2.53,0.62,6.2,1.5,8.7,2Z"/><path class="cls-15" d="M345.65,156.08c-2.5-.52-6.17-1.39-8.7-2l0.38,0.1C339.32,154.67,342.46,155.43,345.65,156.08Z"/><path class="cls-9" d="M346,156.15h0v3.21h4.13v8.86h7.59c-0.14-4-.43-13.14-0.59-14.67l-2.79.69c-1.67.42-4,1-6.55,1.53Z"/><polygon class="cls-9" points="345.98 156.15 345.98 156.15 345.98 156.15 345.98 159.36 345.98 159.36 345.98 156.15"/><polygon class="cls-9" points="345.98 156.15 345.98 156.15 345.98 156.15 345.98 156.15"/><path class="cls-14" d="M346,156.14l1.78-.37c2.08-.46,4.57-1,6.55-1.53l0.29-.07c1.3-.33.93-0.29,0.95-0.3l-0.67-2.49s-2.46.72-6.71,1.66l-2.21.47h0v2.62Z"/><path class="cls-14" d="M346,156.15h0Z"/><path class="cls-14" d="M346,156.14h0v-2.62h0v2.62Z"/><path class="cls-14" d="M354.31,154.24c-2,.48-4.47,1.08-6.55,1.53C350.27,155.23,352.64,154.66,354.31,154.24Z"/><rect class="cls-15" x="341.85" y="159.36" width="4.12" height="8.86"/><rect class="cls-15" x="345.98" y="159.36" height="8.86"/><rect class="cls-14" x="345.98" y="159.36" width="4.13" height="8.86"/><path class="cls-16" d="M234.72,79.92c0-9.26-6.9-16.77-15.41-16.77H203.19c-8.51,0-15.41,7.51-15.41,16.77s6.9,16.77,15.41,16.77h9.51L216,111.26l9.17-15.8A16.83,16.83,0,0,0,234.72,79.92Z"/><path class="cls-12" d="M191.15,77.6h4.16a3.54,3.54,0,0,1,.66.06,1.87,1.87,0,0,1,.5.15,1.41,1.41,0,0,1,.61,1.34,1.55,1.55,0,0,1-.47,1.25,1.9,1.9,0,0,1-.93.33v0a2.33,2.33,0,0,1,.82.18,1.24,1.24,0,0,1,.63,1.24,1.93,1.93,0,0,1-.41,1.27,1.5,1.5,0,0,1-1.25.47h-4.34V77.6Zm2.28,2.61h0.78a0.86,0.86,0,0,0,.51-0.1,0.55,0.55,0,0,0,.14-0.42,0.46,0.46,0,0,0-.55-0.49h-0.88v1Zm0,2.29h0.72a1,1,0,0,0,.54-0.1,0.47,0.47,0,0,0,.18-0.42,0.42,0.42,0,0,0-.49-0.47h-1v1Z"/><path class="cls-12" d="M200.56,78.4a3.89,3.89,0,0,1,1.54.24,1.9,1.9,0,0,1,1.08,1.15,4,4,0,0,1,.17,1.29,3.91,3.91,0,0,1-.34,1.82,2,2,0,0,1-1.11,1,4.13,4.13,0,0,1-1.36.19,3.3,3.3,0,0,1-2-.49,2.84,2.84,0,0,1-.95-2.45,2.59,2.59,0,0,1,.95-2.36,2.45,2.45,0,0,1,.93-0.34A7.43,7.43,0,0,1,200.56,78.4Zm-0.07,1.9a0.74,0.74,0,0,0-.51.14,1,1,0,0,0-.23.77,2.28,2.28,0,0,0,.13.88,0.57,0.57,0,0,0,.24.26,0.72,0.72,0,0,0,.37.1q0.73,0,.73-1.08a1.54,1.54,0,0,0-.18-0.86A0.62,0.62,0,0,0,200.48,80.3Z"/><path class="cls-12" d="M204.67,78.57a9.65,9.65,0,0,0,2.57-.08,2.13,2.13,0,0,1,2.13.46,1.62,1.62,0,0,1,.33,1.17v3.8h-2.25V81.38c0-.2,0-0.33,0-0.38a0.46,0.46,0,0,0-.23-0.39,0.66,0.66,0,0,0-.31-0.06,0.59,0.59,0,0,0-.5.2,0.8,0.8,0,0,0-.16.51v2.67H204V78.49Z"/><path class="cls-12" d="M212.76,78.65v4.55a3.92,3.92,0,0,1-.12,1.11,1.13,1.13,0,0,1-1,.77,6.59,6.59,0,0,1-.81,0l-0.82,0V83.84l0.2,0a0.35,0.35,0,0,0,.35-0.16,1,1,0,0,0,0-.35V78.65h2.19Zm-2.19-1.37a1,1,0,0,1,.09-0.43,1.09,1.09,0,0,1,.23-0.35,1.11,1.11,0,0,1,.35-0.23,1.09,1.09,0,0,1,.85,0,1.1,1.1,0,0,1,.58.58,1.09,1.09,0,0,1,0,.85,1.1,1.1,0,0,1-.58.58,1.1,1.1,0,0,1-.85,0,1.11,1.11,0,0,1-.35-0.23,1.1,1.1,0,0,1-.23-0.35A1,1,0,0,1,210.57,77.28Z"/><path class="cls-12" d="M216.37,78.4a3.89,3.89,0,0,1,1.54.24A1.9,1.9,0,0,1,219,79.79a4,4,0,0,1,.17,1.29,3.9,3.9,0,0,1-.34,1.82,2,2,0,0,1-1.11,1,4.14,4.14,0,0,1-1.36.19,3.3,3.3,0,0,1-2-.49,2.84,2.84,0,0,1-.95-2.45,2.59,2.59,0,0,1,.95-2.36,2.44,2.44,0,0,1,.93-0.34A7.44,7.44,0,0,1,216.37,78.4Zm-0.07,1.9a0.74,0.74,0,0,0-.51.14,1,1,0,0,0-.23.77,2.29,2.29,0,0,0,.13.88,0.57,0.57,0,0,0,.24.26,0.73,0.73,0,0,0,.37.1q0.73,0,.73-1.08a1.53,1.53,0,0,0-.18-0.86A0.62,0.62,0,0,0,216.3,80.3Z"/><path class="cls-12" d="M225.26,78.5v3.23a6,6,0,0,1-.06.88,1.55,1.55,0,0,1-.33.77,1.83,1.83,0,0,1-.73.51,4,4,0,0,1-1.59.27,2.85,2.85,0,0,1-2.34-.82,2.61,2.61,0,0,1-.36-1.6V78.5h2.25v2.73a1.55,1.55,0,0,0,.05.45,0.37,0.37,0,0,0,.4.25,0.38,0.38,0,0,0,.41-0.25,1.85,1.85,0,0,0,0-.45V78.5h2.26Z"/><path class="cls-12" d="M226.52,78.64a3,3,0,0,0,1.64-.08,3,3,0,0,1,1.77,0V81a3.43,3.43,0,0,0-.5,0,1.07,1.07,0,0,0-.95.39,1.4,1.4,0,0,0-.13.56c0,0.19,0,.33,0,0.41v1.59h-2.21V78.58Z"/><path class="cls-12" d="M232.54,82.09L231,82l-0.64-3.31a1.73,1.73,0,0,1,0-.27,0.63,0.63,0,0,1,.35-0.56,9.45,9.45,0,0,1,1.59-.23,0.91,0.91,0,0,1,.61.12,0.73,0.73,0,0,1,.27.57,2.08,2.08,0,0,1,0,.31Zm-1.91,1.35a1,1,0,0,0,.09.4,1,1,0,0,0,.23.32,1.07,1.07,0,0,0,.74.29,1.07,1.07,0,0,0,.41-0.08,1.09,1.09,0,0,0,.33-0.21,1,1,0,0,0,.23-0.32,1,1,0,0,0-.23-1.12,1.14,1.14,0,0,0-.33-0.22,1.06,1.06,0,0,0-.81,0,1.14,1.14,0,0,0-.33.22,1,1,0,0,0-.23.32A1,1,0,0,0,230.63,83.44Z"/><path class="cls-25" d="M126.63,92.65a14.78,14.78,0,0,0-15-14.55H96.08a14.56,14.56,0,1,0,0,29.1h5.12l9.77,6.06,1.79-6.1A14.74,14.74,0,0,0,126.63,92.65Z"/><path class="cls-12" d="M93.16,93.35H91.82v2.39H89.39V89h2.43v2.38h1.35V89h2.44v6.74H93.16V93.35Z"/><path class="cls-12" d="M102.63,90v5.76h-2.4q-0.24-.42-0.47-0.19a1.74,1.74,0,0,1-1.17.33,1.88,1.88,0,0,1-1.64-.66,4.74,4.74,0,0,1-.57-2.61,5.24,5.24,0,0,1,.16-1.4A2.22,2.22,0,0,1,97,90.28a2,2,0,0,1,1.49-.5,5.6,5.6,0,0,1,1.84.31A4.18,4.18,0,0,0,102.63,90Zm-3.5,1.9q-0.75,0-.75,1T99.13,94a0.61,0.61,0,0,0,.53-0.22,1.49,1.49,0,0,0,.2-0.9,1.2,1.2,0,0,0-.19-0.79A0.68,0.68,0,0,0,99.14,91.88Z"/><path class="cls-12" d="M105.92,88.81v6.94h-2.38V88.81h2.38Z"/><path class="cls-12" d="M109.22,88.81v6.94h-2.38V88.81h2.38Z"/><path class="cls-12" d="M113.07,89.86a4.15,4.15,0,0,1,1.63.26,2,2,0,0,1,1.15,1.22,4.24,4.24,0,0,1,.18,1.37,4.15,4.15,0,0,1-.37,1.94,2.18,2.18,0,0,1-1.18,1.08,4.39,4.39,0,0,1-1.45.2,3.51,3.51,0,0,1-2.1-.52,3,3,0,0,1-1-2.61,2.76,2.76,0,0,1,1-2.51,2.59,2.59,0,0,1,1-.37A7.87,7.87,0,0,1,113.07,89.86Zm-0.08,2a0.79,0.79,0,0,0-.55.15,1.11,1.11,0,0,0-.24.82,2.43,2.43,0,0,0,.13.94,0.61,0.61,0,0,0,.26.28,0.77,0.77,0,0,0,.39.11q0.78,0,.78-1.15a1.63,1.63,0,0,0-.19-0.91A0.66,0.66,0,0,0,113,91.88Z"/><path class="cls-12" d="M119.07,93.8l-1.68-.12-0.68-3.52a1.79,1.79,0,0,1,0-.29,0.67,0.67,0,0,1,.38-0.6,10.13,10.13,0,0,1,1.69-.24,1,1,0,0,1,.64.12,0.77,0.77,0,0,1,.29.61,2.26,2.26,0,0,1,0,.33Zm-2,1.43a1,1,0,0,0,.09.43,1.1,1.1,0,0,0,.25.34A1.16,1.16,0,0,0,119,96a1,1,0,0,0,.24-0.34,1.1,1.1,0,0,0,0-.86,1,1,0,0,0-.24-0.34,1.22,1.22,0,0,0-.36-0.23,1.13,1.13,0,0,0-.87,0,1.22,1.22,0,0,0-.36.23,1.09,1.09,0,0,0-.25.34A1,1,0,0,0,117,95.23Z"/><path class="cls-25" d="M320.23,79.16c-11.06,0-20,7.3-20,16.31a13.6,13.6,0,0,0,1.11,5.36L305,118.24l5.37-8.58a23.53,23.53,0,0,0,9.87,2.12c11.07,0,20-7.3,20-16.31S331.3,79.16,320.23,79.16Z"/><path class="cls-12" d="M308.83,100.77l-1.33-.5a8,8,0,0,0,1.15-2.79l1.23,0.39A24.28,24.28,0,0,0,308.83,100.77Zm-0.62-6.55a2.37,2.37,0,0,0-.6-1.06,10.44,10.44,0,0,0,2.52-3.7,4.83,4.83,0,0,0,1.3.48c0.27,0.05.27,0.13,0,.2a3.15,3.15,0,0,0-1,1v5.67h-1.14a15.23,15.23,0,0,0,.09-1.88V92.65C309,93.17,308.67,93.65,308.21,94.22Zm7.24,7.08a25.53,25.53,0,0,1-3.86-.07,0.91,0.91,0,0,1-.84-1.15V98.8a6.08,6.08,0,0,0-.09-1.17,5.64,5.64,0,0,0,1.26.12c0.24,0,.29.05,0.11,0.23a0.41,0.41,0,0,0-.17.4v1.35a0.47,0.47,0,0,0,.44.56,13.59,13.59,0,0,0,2.92-.05c0.43-.07.47-0.19,0.62-1.38a2.43,2.43,0,0,0,1.23.66C316.68,101,316.47,101.17,315.45,101.29ZM312,93.4a2.75,2.75,0,0,0-.94-0.66,7.38,7.38,0,0,0,2.56-3.39,5.34,5.34,0,0,0,1.3.48c0.27,0.05.27,0.12,0,.2a3.58,3.58,0,0,0-1,1h2.87a13.3,13.3,0,0,0,2.23-.12l-0.87,2.23-1-.39,0.4-.87h-4.19C312.92,92.39,312.55,92.8,312,93.4Zm1.14,1.39a16.55,16.55,0,0,1-1,1.43,3.32,3.32,0,0,0-1-.48,6.67,6.67,0,0,0,1.58-2.33,5,5,0,0,0,1,.47c0.29,0.08.29,0.15,0,.24A1.42,1.42,0,0,0,313.14,94.79Zm0.68,4.53a6.63,6.63,0,0,0-.83-1.7l1-.42c0.34,0.62.72,1.27,1,1.62Zm1.88-6.45V96c0,0.55-.23.8-1.78,0.92a2.37,2.37,0,0,0-.39-1.11c1,0,1.13-.08,1.13-0.32V93.88a11.1,11.1,0,0,0-.07-1.62,9.2,9.2,0,0,0,1.26.07c0.26,0,.28.09,0.11,0.21A0.42,0.42,0,0,0,315.7,92.88Zm2.37,3.34a9.08,9.08,0,0,0-1.82-2l0.82-.64c0.82,0.72,1.19,1.09,2,1.88Zm0.2,3.81a16.23,16.23,0,0,0-1.93-2.32l0.83-.59a22.08,22.08,0,0,1,2.25,2.21Z"/><path class="cls-12" d="M321.15,93.35V92.23a11.24,11.24,0,0,0,1.56.09,22.67,22.67,0,0,0,.25-2.87,5.65,5.65,0,0,0,1.45.31c0.32,0,.29.09,0,0.31a6.29,6.29,0,0,0-.68,2.25,19.92,19.92,0,0,0,2.51-.09c-0.35,3.34-.68,4.8-1.25,5.94,0.58,0.38,1.07.72,1.43,1a4.41,4.41,0,0,0-1,1,6.92,6.92,0,0,0-1-1.09,10.59,10.59,0,0,1-2.68,2.68,2.73,2.73,0,0,0-1.13-1,6.84,6.84,0,0,0,3-2.28,19,19,0,0,0-2.13-1.27,25.62,25.62,0,0,0,1-4A11.52,11.52,0,0,0,321.15,93.35Zm3.87-.11h-1.46c-0.22.94-.48,2.1-0.78,3.58q0.7,0.38,1.37.8A13.23,13.23,0,0,0,325,93.24Zm8,1.64v1.26c-0.71-.08-1.6-0.12-2.84-0.13v4.22c0,1-.51,1.27-2.28,1.49a2.89,2.89,0,0,0-.62-1.52c1.54,0.21,1.78.09,1.78-.47V96a25.29,25.29,0,0,0-2.67.13V94.87a25.84,25.84,0,0,0,2.67.13V93.14a13.84,13.84,0,0,0,1.78-1.72H328c-0.54,0-1,0-1.37,0V90.34c0.84,0.07,1.42.08,3,.08a27.32,27.32,0,0,0,3-.08v1.13a6.94,6.94,0,0,0-2.43,1.9V95C331.42,95,332.3,95,333,94.87Z"/><path class="cls-15" d="M288.12,65.83a19.67,19.67,0,0,0-11,35.94l1.22,11.52,7.76-8.23A19.67,19.67,0,1,0,288.12,65.83Z"/><path class="cls-12" d="M279.43,82.67v2.58a6.35,6.35,0,0,0-1.8-.25,2.27,2.27,0,0,0-1.22.25,1.18,1.18,0,0,0-.41,1.06,1.36,1.36,0,0,0,.3,1,1.78,1.78,0,0,0,1.31.39,9.87,9.87,0,0,0,1.83-.23v2.21a4.68,4.68,0,0,1-1.08.33,9.91,9.91,0,0,1-1.49.09,5.39,5.39,0,0,1-2.09-.31Q273,89,273,86.08a4.17,4.17,0,0,1,.88-3,3.77,3.77,0,0,1,2.78-.89,7.89,7.89,0,0,1,1.71.18A9.12,9.12,0,0,1,279.43,82.67Z"/><path class="cls-12" d="M280.27,81.78a1.3,1.3,0,0,1,.11-0.52,1.35,1.35,0,0,1,.71-0.71,1.34,1.34,0,0,1,1,0,1.35,1.35,0,0,1,.71.71,1.35,1.35,0,0,1,0,1,1.35,1.35,0,0,1-.71.71,1.34,1.34,0,0,1-1,0,1.35,1.35,0,0,1-.71-0.71A1.3,1.3,0,0,1,280.27,81.78Zm2.68,1.68v6.46h-2.68V83.46h2.68Z"/><path class="cls-12" d="M291,83.29v6.63h-2.77q-0.28-.49-0.54-0.22a2,2,0,0,1-1.35.38,2.16,2.16,0,0,1-1.89-.76,5.45,5.45,0,0,1-.65-3,6.05,6.05,0,0,1,.18-1.61,2.56,2.56,0,0,1,.56-1.06,2.26,2.26,0,0,1,1.72-.58,6.44,6.44,0,0,1,2.11.35A4.81,4.81,0,0,0,291,83.29Zm-4,2.19q-0.86,0-.86,1.13,0,1.29.85,1.29a0.71,0.71,0,0,0,.61-0.25,1.71,1.71,0,0,0,.23-1,1.38,1.38,0,0,0-.22-0.91A0.78,0.78,0,0,0,287,85.48Z"/><path class="cls-12" d="M295.43,83.15a4.76,4.76,0,0,1,1.88.3,2.34,2.34,0,0,1,1.33,1.41,4.91,4.91,0,0,1,.21,1.58,4.77,4.77,0,0,1-.42,2.24,2.51,2.51,0,0,1-1.36,1.24,5.06,5.06,0,0,1-1.67.23,4,4,0,0,1-2.41-.6,3.48,3.48,0,0,1-1.16-3A3.17,3.17,0,0,1,293,83.66a3,3,0,0,1,1.14-.42A9.09,9.09,0,0,1,295.43,83.15Zm-0.09,2.32a0.91,0.91,0,0,0-.63.18,1.28,1.28,0,0,0-.28.94,2.79,2.79,0,0,0,.16,1.08,0.69,0.69,0,0,0,.3.32,0.89,0.89,0,0,0,.45.12q0.9,0,.9-1.33a1.87,1.87,0,0,0-.22-1.05A0.75,0.75,0,0,0,295.34,85.48Z"/><path class="cls-12" d="M302.34,87.68l-1.94-.13-0.79-4.05a2.09,2.09,0,0,1,0-.33,0.77,0.77,0,0,1,.43-0.69A11.65,11.65,0,0,1,302,82.2a1.11,1.11,0,0,1,.74.14,0.89,0.89,0,0,1,.33.7,2.6,2.6,0,0,1,0,.38ZM300,89.33a1.16,1.16,0,0,0,.1.49,1.26,1.26,0,0,0,.28.39,1.33,1.33,0,0,0,1.82,0,1.18,1.18,0,0,0,.28-0.39,1.26,1.26,0,0,0,0-1,1.18,1.18,0,0,0-.28-0.39,1.4,1.4,0,0,0-.41-0.27,1.3,1.3,0,0,0-1,0,1.4,1.4,0,0,0-.41.27,1.26,1.26,0,0,0-.28.39A1.16,1.16,0,0,0,300,89.33Z"/></svg>