<?xml version="1.0" encoding="UTF-8" standalone="no"?>
<svg
   xmlns:dc="http://purl.org/dc/elements/1.1/"
   xmlns:cc="http://creativecommons.org/ns#"
   xmlns:rdf="http://www.w3.org/1999/02/22-rdf-syntax-ns#"
   xmlns:svg="http://www.w3.org/2000/svg"
   xmlns="http://www.w3.org/2000/svg"
   xmlns:sodipodi="http://sodipodi.sourceforge.net/DTD/sodipodi-0.dtd"
   xmlns:inkscape="http://www.inkscape.org/namespaces/inkscape"
   width="8615.4668"
   stroke-miterlimit="10"
   font-weight="normal"
   height="3862.7"
   font-style="normal"
   font-size="12"
   id="svg2"
   version="1.1"
   inkscape:version="0.91 r13725"
   sodipodi:docname="Ergochrysin A.svg"
   style="font-style:normal;font-weight:normal;font-size:12px;font-family:Dialog;color-interpolation:auto;fill:#000000;fill-opacity:1;stroke:#000000;stroke-width:1;stroke-linecap:square;stroke-linejoin:miter;stroke-miterlimit:10;stroke-dasharray:none;stroke-dashoffset:0;stroke-opacity:1;color-rendering:auto;image-rendering:auto;shape-rendering:auto;text-rendering:auto">
  <metadata
     id="metadata326">
    <rdf:RDF>
      <cc:Work
         rdf:about="">
        <dc:format>image/svg+xml</dc:format>
        <dc:type
           rdf:resource="http://purl.org/dc/dcmitype/StillImage" />
        <dc:title></dc:title>
      </cc:Work>
    </rdf:RDF>
  </metadata>
  <sodipodi:namedview
     pagecolor="#ffffff"
     bordercolor="#666666"
     borderopacity="1"
     objecttolerance="10"
     gridtolerance="10"
     guidetolerance="10"
     inkscape:pageopacity="0"
     inkscape:pageshadow="2"
     inkscape:window-width="1920"
     inkscape:window-height="1016"
     id="namedview324"
     showgrid="false"
     inkscape:showpageshadow="false"
     showborder="false"
     fit-margin-top="0"
     fit-margin-left="0"
     fit-margin-right="0"
     fit-margin-bottom="0"
     inkscape:zoom="0.11374408"
     inkscape:cx="5238.6418"
     inkscape:cy="1558.9358"
     inkscape:window-x="-8"
     inkscape:window-y="-8"
     inkscape:window-maximized="1"
     inkscape:current-layer="svg2" />
  <!--Generated by Marvin with Batik SVG Generator
MolSource:
<?xml version="1.0" encoding="windows-1252"?><cml xmlns="http://www.chemaxon.com" xmlns:xsi="http://www.w3.org/2001/XMLSchema-instance" xsi:schemaLocation="http://www.chemaxon.com/marvin/schema/mrvSchema_14_12_01.xsd" version="ChemAxon file format v14.12.01, generated by v15.8.31.0">
<MDocument><propertyList><property dictRef="scale" title="scale"><scalar dataType="xsd:double">18.0</scalar></property></propertyList><MChemicalStruct><molecule molID="m1"><atomArray><atom id="a1" elementType="C" x2="-8.764202284221408" y2="4.425141423250326"></atom><atom id="a2" elementType="C" x2="-10.097871625269665" y2="3.6551244826912876"></atom><atom id="a3" elementType="C" x2="-10.097871625269665" y2="2.115090601573203"></atom><atom id="a4" elementType="C" x2="-8.764202284221408" y2="1.3450736610141645"></atom><atom id="a5" elementType="C" x2="-7.430532943173151" y2="2.115090601573203"></atom><atom id="a6" elementType="C" x2="-7.430532943173151" y2="3.6551244826912876"></atom><atom id="a7" elementType="C" x2="-6.096863602124887" y2="4.425141423250326"></atom><atom id="a8" elementType="O" x2="-6.096863602124887" y2="1.3450736610141645"></atom><atom id="a9" elementType="C" x2="-4.763194261076623" y2="2.115090601573203"></atom><atom id="a10" elementType="C" x2="-4.763194261076623" y2="3.6551244826912876"></atom><atom id="a11" elementType="C" x2="-3.429524920028374" y2="4.425141423250326"></atom><atom id="a12" elementType="C" x2="-3.429524920028374" y2="1.3450736610141645"></atom><atom id="a13" elementType="C" x2="-2.0958555789801103" y2="2.115090601573203"></atom><atom id="a14" elementType="C" x2="-2.0958555789801103" y2="3.6551244826912876"></atom><atom id="a15" elementType="O" x2="-6.096863602124887" y2="5.9651414232503255"></atom><atom id="a16" elementType="O" x2="-8.764202284221408" y2="5.9651414232503255"></atom><atom id="a17" elementType="C" x2="-0.7621715668428841" y2="1.3450990718993117"></atom><atom id="a18" elementType="O" x2="-2.679524920028374" y2="6.006808765436300"></atom><atom id="a19" elementType="R" sgroupRef="sg1" x2="-3.196192143005188" y2="2.605074018642031"></atom><atom id="a20" elementType="O" x2="-4.763545257772011" y2="5.4767995799476195"></atom><atom id="a21" elementType="O" x2="-3.429524920028374" y2="-0.19492633898583467"></atom><atom id="a22" elementType="C" x2="-12.929209292707188" y2="3.7746371482655965"></atom><atom id="a23" elementType="C" x2="-11.595539951658953" y2="4.544654088824635"></atom><atom id="a24" elementType="C" x2="-11.595539951658953" y2="6.084687969942727"></atom><atom id="a25" elementType="C" x2="-12.929209292707203" y2="6.854704910501765"></atom><atom id="a26" elementType="C" x2="-14.262878633755452" y2="6.084687969942727"></atom><atom id="a27" elementType="C" x2="-14.262878633755452" y2="4.544654088824642"></atom><atom id="a28" elementType="C" x2="-15.596547974803730" y2="3.7746371482655965"></atom><atom id="a29" elementType="O" x2="-15.596547974803730" y2="6.854704910501765"></atom><atom id="a30" elementType="C" x2="-16.930217315851980" y2="6.084687969942734"></atom><atom id="a31" elementType="C" x2="-16.930217315851980" y2="4.544654088824635"></atom><atom id="a32" elementType="C" x2="-18.263886656900244" y2="3.7746371482656036"></atom><atom id="a33" elementType="C" x2="-18.263886656900244" y2="6.8547049105017575"></atom><atom id="a34" elementType="C" x2="-19.597555997948508" y2="6.084687969942734"></atom><atom id="a35" elementType="C" x2="-19.597555997948493" y2="4.544654088824642"></atom><atom id="a36" elementType="O" x2="-15.596547974803730" y2="2.2346371482655973"></atom><atom id="a37" elementType="O" x2="-12.929209292707203" y2="2.2346371482655973"></atom><atom id="a38" elementType="C" x2="-20.931240010085734" y2="6.854679499616614"></atom><atom id="a39" elementType="O" x2="-18.288889517923240" y2="2.2763032983587825"></atom><atom id="a40" elementType="R" sgroupRef="sg2" x2="-16.905553403039637" y2="8.336371537432099"></atom><atom id="a41" elementType="O" x2="-18.455552687784024" y2="8.353037925943687"></atom></atomArray><bondArray><bond id="b1" atomRefs2="a1 a2" order="2"></bond><bond id="b2" atomRefs2="a1 a6" order="1"></bond><bond id="b3" atomRefs2="a1 a16" order="1"></bond><bond id="b4" atomRefs2="a2 a3" order="1"></bond><bond id="b5" atomRefs2="a3 a4" order="2"></bond><bond id="b6" atomRefs2="a4 a5" order="1"></bond><bond id="b7" atomRefs2="a5 a6" order="2"></bond><bond id="b8" atomRefs2="a5 a8" order="1"></bond><bond id="b9" atomRefs2="a7 a6" order="1"></bond><bond id="b10" atomRefs2="a7 a10" order="1"></bond><bond id="b11" atomRefs2="a7 a15" order="2"></bond><bond id="b12" atomRefs2="a8 a9" order="1"></bond><bond id="b13" atomRefs2="a9 a10" order="1"></bond><bond id="b14" atomRefs2="a9 a12" order="1"></bond><bond id="b15" atomRefs2="a9 a19" order="1"><bondStereo>W</bondStereo></bond><bond id="b16" atomRefs2="a11 a10" order="1"></bond><bond id="b17" atomRefs2="a10 a20" order="1"><bondStereo>H</bondStereo></bond><bond id="b18" atomRefs2="a11 a14" order="1"></bond><bond id="b19" atomRefs2="a11 a18" order="1"><bondStereo>W</bondStereo></bond><bond id="b20" atomRefs2="a12 a13" order="1"></bond><bond id="b21" atomRefs2="a12 a21" order="1"><bondStereo>H</bondStereo></bond><bond id="b22" atomRefs2="a13 a14" order="1"></bond><bond id="b23" atomRefs2="a13 a17" order="1"><bondStereo>H</bondStereo></bond><bond id="b24" atomRefs2="a18 a19" order="1"></bond><bond id="b25" atomRefs2="a22 a23" order="2"></bond><bond id="b26" atomRefs2="a22 a27" order="1"></bond><bond id="b27" atomRefs2="a22 a37" order="1"></bond><bond id="b28" atomRefs2="a23 a24" order="1"></bond><bond id="b29" atomRefs2="a24 a25" order="2"></bond><bond id="b30" atomRefs2="a25 a26" order="1"></bond><bond id="b31" atomRefs2="a26 a27" order="2"></bond><bond id="b32" atomRefs2="a26 a29" order="1"></bond><bond id="b33" atomRefs2="a28 a27" order="1"></bond><bond id="b34" atomRefs2="a28 a31" order="1"></bond><bond id="b35" atomRefs2="a28 a36" order="2"></bond><bond id="b36" atomRefs2="a29 a30" order="1"></bond><bond id="b37" atomRefs2="a30 a31" order="1"></bond><bond id="b38" atomRefs2="a30 a33" order="1"></bond><bond id="b39" atomRefs2="a30 a40" order="1"><bondStereo>H</bondStereo></bond><bond id="b40" atomRefs2="a32 a31" order="2"></bond><bond id="b41" atomRefs2="a32 a35" order="1"></bond><bond id="b42" atomRefs2="a32 a39" order="1"></bond><bond id="b43" atomRefs2="a33 a34" order="1"></bond><bond id="b44" atomRefs2="a33 a41" order="1"><bondStereo>H</bondStereo></bond><bond id="b45" atomRefs2="a34 a35" order="1"></bond><bond id="b46" atomRefs2="a34 a38" order="1"><bondStereo>W</bondStereo></bond><bond id="b47" atomRefs2="a23 a2" order="1"></bond></bondArray><molecule id="sg1" role="SuperatomSgroup" title="CO" leftName="OC" molID="m2"><atomArray atomID="a42 a43" elementType="C O" attachmentPoint="both 0" sgroupAttachmentPoint="both 0" x2="-5.882132367816406 -7.422132367816412" y2="-4.982429733568613 -4.982429733568613"></atomArray><bondArray><bond id="b48" atomRefs2="a42 a43" order="2"></bond></bondArray><AttachmentPointArray><attachmentPoint atom="a42" order="1" bond="b15"></attachmentPoint><attachmentPoint atom="a42" order="2" bond="b24"></attachmentPoint></AttachmentPointArray></molecule><molecule id="sg2" role="SuperatomSgroup" title="CO2Me" leftName="MeO2C" molID="m3"><atomArray atomID="a44 a45 a46 a47" elementType="C O C O" attachmentPoint="1 0 0 0" sgroupAttachmentPoint="1 0 0 0" x2="8.467131665209216 9.237131665209219 10.777131665209218 6.927131665209213" y2="-4.974936186928475 -6.308615308756508 -6.308615308756508 -4.974936186928475"></atomArray><bondArray><bond id="b49" atomRefs2="a46 a45" order="1"></bond><bond id="b50" atomRefs2="a45 a44" order="1"></bond><bond id="b51" atomRefs2="a44 a47" order="2"></bond></bondArray><SgroupAtom><scalar title="graphicalMarvinProperty::FormattedLabel" convention="atomprop" dataType="xsd:string">CO\s{\2}\nMe</scalar></SgroupAtom><AttachmentPointArray><attachmentPoint atom="a44" order="1" bond="b39"></attachmentPoint></AttachmentPointArray></molecule></molecule></MChemicalStruct><MTextBox id="o2" color="#ffffff" toption="NOROT" fontScale="10.0" halign="LEFT" valign="TOP" autoSize="false"><Field name="text">.</Field><MPoint x="-21.44999988079077" y="9.358333492279083"></MPoint><MPoint x="-21.274583849906982" y="9.358333492279083"></MPoint><MPoint x="-21.274583849906982" y="8.643333492279085"></MPoint><MPoint x="-21.449999880790774" y="8.643333492279085"></MPoint></MTextBox><MTextBox id="o3" color="#ffffff" toption="NOROT" fontScale="10.0" halign="LEFT" valign="TOP" autoSize="false"><Field name="text">.</Field><MPoint x="-0.19999988079071862" y="-0.1416665077209398"></MPoint><MPoint x="-0.03499988079071947" y="-0.14166650772093625"></MPoint><MPoint x="-0.03499988079071947" y="-0.8566665077209326"></MPoint><MPoint x="-0.19999988079071862" y="-0.8566665077209397"></MPoint></MTextBox></MDocument>
</cml>
-->
  <defs
     id="genericDefs" />
  <g
     id="g5"
     transform="matrix(4,0,0,4,-772.53185,-705.04335)"
     style="stroke-width:0.25">
    <defs
       id="159347279547-defs1">
      <clipPath
         clipPathUnits="userSpaceOnUse"
         id="1593472799-clipPath1">
        <path
           d="m -1695.9547,-873.50977 2531.99999,0 0,1275.99997 -2531.99999,0 0,-1275.99997 z"
           id="path9"
           inkscape:connector-curvature="0" />
      </clipPath>
      <clipPath
         clipPathUnits="userSpaceOnUse"
         id="159347279811-clipPath1">
        <path
           d="m -1695.9547,-407.63333 2531.99999,0 0,1275.99997 -2531.99999,0 0,-1275.99997 z"
           id="path12"
           inkscape:connector-curvature="0" />
      </clipPath>
      <clipPath
         clipPathUnits="userSpaceOnUse"
         id="159347279786-clipPath1">
        <path
           d="m -1425.4164,-407.63333 2532,0 0,1275.99997 -2532,0 0,-1275.99997 z"
           id="path15"
           inkscape:connector-curvature="0" />
      </clipPath>
      <clipPath
         clipPathUnits="userSpaceOnUse"
         id="159347279837-clipPath1">
        <path
           d="m -2040.5509,-403.4317 2532,0 0,1276 -2532,0 0,-1276 z"
           id="path18"
           inkscape:connector-curvature="0" />
      </clipPath>
      <clipPath
         clipPathUnits="userSpaceOnUse"
         id="159347279891-clipPath1">
        <path
           d="m -1990.967,-746.50708 2531.99996,0 0,1276 -2531.99996,0 0,-1276 z"
           id="path21"
           inkscape:connector-curvature="0" />
      </clipPath>
      <clipPath
         clipPathUnits="userSpaceOnUse"
         id="159347279423-clipPath1">
        <path
           d="m -1828.833,-456.87656 2531.99999,0 0,1276.00003 -2531.99999,0 0,-1276.00003 z"
           id="path24"
           inkscape:connector-curvature="0" />
      </clipPath>
      <clipPath
         clipPathUnits="userSpaceOnUse"
         id="159347279948-clipPath1">
        <path
           d="m -1963.3524,-1028.7997 2531.99998,0 0,1276.00003 -2531.99998,0 0,-1276.00003 z"
           id="path27"
           inkscape:connector-curvature="0" />
      </clipPath>
      <clipPath
         clipPathUnits="userSpaceOnUse"
         id="159347279838-clipPath1">
        <path
           d="m -738.02954,-317.93192 2532.00004,0 0,1276.00004 -2532.00004,0 0,-1276.00004 z"
           id="path30"
           inkscape:connector-curvature="0" />
      </clipPath>
      <clipPath
         clipPathUnits="userSpaceOnUse"
         id="15934727993-clipPath1">
        <path
           d="m -738.02954,-783.80835 2532.00004,0 0,1276 -2532.00004,0 0,-1276 z"
           id="path33"
           inkscape:connector-curvature="0" />
      </clipPath>
      <clipPath
         clipPathUnits="userSpaceOnUse"
         id="159347279712-clipPath1">
        <path
           d="m -1005.4272,-783.80835 2532,0 0,1276 -2532,0 0,-1276 z"
           id="path36"
           inkscape:connector-curvature="0" />
      </clipPath>
      <clipPath
         clipPathUnits="userSpaceOnUse"
         id="15934727960-clipPath1">
        <path
           d="m -464.97,-779.60687 2532,0 0,1276.00003 -2532,0 0,-1276.00003 z"
           id="path39"
           inkscape:connector-curvature="0" />
      </clipPath>
      <clipPath
         clipPathUnits="userSpaceOnUse"
         id="159347279272-clipPath1">
        <path
           d="m -608.54822,-168.57687 2532.00002,0 0,1275.99997 -2532.00002,0 0,-1275.99997 z"
           id="path42"
           inkscape:connector-curvature="0" />
      </clipPath>
      <clipPath
         clipPathUnits="userSpaceOnUse"
         id="15934727971-clipPath1">
        <path
           d="m -753.86438,-213.3838 2531.99998,0 0,1276 -2531.99998,0 0,-1276 z"
           id="path45"
           inkscape:connector-curvature="0" />
      </clipPath>
      <clipPath
         clipPathUnits="userSpaceOnUse"
         id="159347279173-clipPath1">
        <path
           d="m -796.04773,-167.50494 2532.00003,0 0,1275.99994 -2532.00003,0 0,-1275.99994 z"
           id="path48"
           inkscape:connector-curvature="0" />
      </clipPath>
      <clipPath
         clipPathUnits="userSpaceOnUse"
         id="159347279461-clipPath1">
        <path
           d="m -392.00003,-166.84363 2532.00003,0 0,1276.00003 -2532.00003,0 0,-1276.00003 z"
           id="path51"
           inkscape:connector-curvature="0" />
      </clipPath>
      <clipPath
         clipPathUnits="userSpaceOnUse"
         id="159347279752-clipPath1">
        <path
           d="m 511.99124,178.65417 c 12.78507,0 23.14945,10.36435 23.14945,23.14942 l 0,46.29883 c 0,12.78506 -10.36438,23.14941 -23.14945,23.14941 l -90.98242,0 c -12.78507,0 -23.14941,-10.36435 -23.14941,-23.14941 l 0,-46.29883 c 0,-12.78507 10.36434,-23.14942 23.14941,-23.14942 z m 392.84555,1.46796 c 12.55585,0 22.73438,10.17853 22.73438,22.73438 l 0,45.46875 c 0,12.55584 -10.17853,22.73437 -22.73438,22.73437 l -81.57812,0 c -12.55585,0 -22.73438,-10.17853 -22.73438,-22.73437 l 0,35.0195 c 0,12.40481 -10.05615,22.46093 -22.46094,22.46093 l -2.39794,0 c -12.40485,0 -22.46094,-10.05612 -22.46094,-22.46093 l 0,-33.5091 c 0,12.78507 -10.36438,23.14942 -23.14942,23.14942 l -94.01367,0 c -12.78509,0 -23.14941,-10.36435 -23.14941,-23.14942 l 0,-46.29883 c 0,-12.78506 10.36432,-23.14941 23.14941,-23.14941 l 94.01367,0 c 12.78504,0 23.14942,10.36435 23.14942,23.14941 l 0,34.88604 c 0,-12.40483 10.05609,-22.46094 22.46094,-22.46094 l 2.39794,0 c 12.40479,0 22.46094,10.05611 22.46094,22.46094 l 0,-35.56636 c 0,-12.55585 10.17853,-22.73438 22.73438,-22.73438 z M 787.6145,329.74246 c 12.78504,0 23.14942,10.36435 23.14942,23.14942 l 0,46.29882 c 0,12.78507 -10.36438,23.14942 -23.14942,23.14942 l -22.16992,0 c -12.7851,0 -23.14941,-10.36435 -23.14941,-23.14942 l 0,-46.29882 c 0,-12.78507 10.36431,-23.14942 23.14941,-23.14942 z m 1302.5212,85.49979 c 12.7852,0 23.1495,10.36435 23.1495,23.14941 l 0,46.29883 c 0,12.78507 -10.3643,23.14941 -23.1495,23.14941 l -22.1699,0 c -12.7849,0 -23.1493,-10.36434 -23.1493,-23.14941 l 0,-46.29883 c 0,-12.78506 10.3644,-23.14941 23.1493,-23.14941 z m -544.7047,4.20163 c 12.7852,0 23.1494,10.36435 23.1494,23.14941 l 0,46.29883 c 0,12.78507 -10.3642,23.14944 -23.1494,23.14944 l -91.0293,0 c -12.785,0 -23.1494,-10.36437 -23.1494,-23.14944 l 0,-46.29883 c 0,-12.78506 10.3644,-23.14941 23.1494,-23.14941 z m 200.1087,0 c 12.785,0 23.1494,10.36435 23.1494,23.14941 l 0,46.29883 c 0,12.78507 -10.3644,23.14944 -23.1494,23.14944 l -22.1699,0 c -12.7851,0 -23.1495,-10.36437 -23.1495,-23.14944 l 0,-46.29883 c 0,-12.78506 10.3644,-23.14941 23.1495,-23.14941 z m 203.308,49.24322 c 12.785,0 23.1494,10.36435 23.1494,23.14942 l 0,46.29879 c 0,12.7851 -10.3644,23.14942 -23.1494,23.14942 l -91.0293,0 c -12.7851,0 -23.1495,-10.36432 -23.1495,-23.14942 l 0,-46.29879 c 0,-12.78507 10.3644,-23.14942 23.1495,-23.14942 z m 163.6262,289.63053 c 12.7851,0 23.1494,10.36432 23.1494,23.14941 l 0,46.29883 c 0,12.78503 -10.3643,23.14941 -23.1494,23.14941 l -94.0137,0 c -12.785,0 -23.1494,-10.36438 -23.1494,-23.14941 l 0,-46.29883 c 0,-12.78509 10.3644,-23.14941 23.1494,-23.14941 z M 584.98468,791.41742 c 12.78503,0 23.14941,10.36432 23.14941,23.14941 l 0,46.29883 c 0,12.78504 -10.36438,23.14942 -23.14941,23.14942 l -91.02933,0 c -12.78506,0 -23.14941,-10.36438 -23.14941,-23.14942 l 0,-46.29883 c 0,-12.78509 10.36435,-23.14941 23.14941,-23.14941 z m 202.62982,4.20148 c 12.78504,0 23.14942,10.36438 23.14942,23.14941 l 0,46.29883 c 0,12.78509 -10.36438,23.14941 -23.14942,23.14941 l -22.16992,0 c -12.7851,0 -23.14941,-10.36432 -23.14941,-23.14941 l 0,-46.29883 c 0,-12.78503 10.36431,-23.14941 23.14941,-23.14941 z m 337.8274,0 c 12.785,0 23.1494,10.36438 23.1494,23.14941 l 0,46.29883 c 0,12.78509 -10.3644,23.14941 -23.1494,23.14941 l -91.0293,0 c -12.7851,0 -23.1495,-10.36432 -23.1495,-23.14941 l 0,-46.29883 c 0,-12.78503 10.3644,-23.14941 23.1495,-23.14941 z m 620.0978,89.70141 c 12.785,0 23.1494,10.36438 23.1494,23.14942 l 0,46.29882 c 0,12.7851 -10.3644,23.14942 -23.1494,23.14942 l -22.1699,0 c -12.7851,0 -23.1495,-10.36432 -23.1495,-23.14942 l 0,-46.29882 c 0,-12.78504 10.3644,-23.14942 23.1495,-23.14942 z m 337.8272,155.28989 c 12.7852,0 23.1495,10.3644 23.1495,23.1494 l 0,46.2989 c 0,12.785 -10.3643,23.1494 -23.1495,23.1494 l -91.0291,0 c -12.7851,0 -23.1494,-10.3644 -23.1494,-23.1494 l 0,-46.2989 c 0,-12.785 10.3643,-23.1494 23.1494,-23.1494 z M 0,0 l 0,1276 2532,0 0,-1276 z"
           id="path54"
           inkscape:connector-curvature="0" />
      </clipPath>
      <clipPath
         clipPathUnits="userSpaceOnUse"
         id="159347279842-clipPath1">
        <path
           d="m 511.99124,178.65417 c 12.78507,0 23.14945,10.36435 23.14945,23.14942 l 0,46.29883 c 0,12.78506 -10.36438,23.14941 -23.14945,23.14941 l -90.98242,0 c -12.78507,0 -23.14941,-10.36435 -23.14941,-23.14941 l 0,-46.29883 c 0,-12.78507 10.36434,-23.14942 23.14941,-23.14942 z m 392.84555,1.46796 c 12.55585,0 22.73438,10.17853 22.73438,22.73438 l 0,45.46875 c 0,12.55584 -10.17853,22.73437 -22.73438,22.73437 l -81.57812,0 c -12.55585,0 -22.73438,-10.17853 -22.73438,-22.73437 l 0,35.0195 c 0,12.40481 -10.05615,22.46093 -22.46094,22.46093 l -2.39794,0 c -12.40485,0 -22.46094,-10.05612 -22.46094,-22.46093 l 0,-33.5091 c 0,12.78507 -10.36438,23.14942 -23.14942,23.14942 l -94.01367,0 c -12.78509,0 -23.14941,-10.36435 -23.14941,-23.14942 l 0,-46.29883 c 0,-12.78506 10.36432,-23.14941 23.14941,-23.14941 l 94.01367,0 c 12.78504,0 23.14942,10.36435 23.14942,23.14941 l 0,34.88604 c 0,-12.40483 10.05609,-22.46094 22.46094,-22.46094 l 2.39794,0 c 12.40479,0 22.46094,10.05611 22.46094,22.46094 l 0,-35.56636 c 0,-12.55585 10.17853,-22.73438 22.73438,-22.73438 z M 787.6145,329.74246 c 12.78504,0 23.14942,10.36435 23.14942,23.14942 l 0,46.29882 c 0,12.78507 -10.36438,23.14942 -23.14942,23.14942 l -22.16992,0 c -12.7851,0 -23.14941,-10.36435 -23.14941,-23.14942 l 0,-46.29882 c 0,-12.78507 10.36431,-23.14942 23.14941,-23.14942 z m 757.8165,89.70142 c 12.7852,0 23.1494,10.36435 23.1494,23.14941 l 0,46.29883 c 0,12.78507 -10.3642,23.14944 -23.1494,23.14944 l -91.0293,0 c -12.785,0 -23.1494,-10.36437 -23.1494,-23.14944 l 0,-46.29883 c 0,-12.78506 10.3644,-23.14941 23.1494,-23.14941 z m 200.1087,0 c 12.785,0 23.1494,10.36435 23.1494,23.14941 l 0,46.29883 c 0,12.78507 -10.3644,23.14944 -23.1494,23.14944 l -22.1699,0 c -12.7851,0 -23.1495,-10.36437 -23.1495,-23.14944 l 0,-46.29883 c 0,-12.78506 10.3644,-23.14941 23.1495,-23.14941 z m 203.308,49.24322 c 12.785,0 23.1494,10.36435 23.1494,23.14942 l 0,46.29879 c 0,12.7851 -10.3644,23.14942 -23.1494,23.14942 l -91.0293,0 c -12.7851,0 -23.1495,-10.36432 -23.1495,-23.14942 l 0,-46.29879 c 0,-12.78507 10.3644,-23.14942 23.1495,-23.14942 z m 141.288,-53.44485 c 12.7852,0 23.1495,10.36435 23.1495,23.14941 l 0,46.29883 c 0,12.78507 -10.3643,23.14941 -23.1495,23.14941 l -4.9336,0 -37.9733,250.47773 65.2451,0 c 12.7851,0 23.1494,10.36432 23.1494,23.14941 l 0,46.29883 c 0,12.78503 -10.3643,23.14941 -23.1494,23.14941 l -94.0137,0 c -12.785,0 -23.1494,-10.36438 -23.1494,-23.14941 l 0,-46.29883 c 0,-12.78509 10.3644,-23.14941 23.1494,-23.14941 l 2.1622,0 38.2541,-252.33033 0,0 c -8.2669,-3.5328 -14.06,-11.73828 -14.06,-21.29681 l 0,-46.29883 c 0,-12.78506 10.3644,-23.14941 23.1493,-23.14941 z M 584.98468,791.41742 c 12.78503,0 23.14941,10.36432 23.14941,23.14941 l 0,46.29883 c 0,12.78504 -10.36438,23.14942 -23.14941,23.14942 l -91.02933,0 c -12.78506,0 -23.14941,-10.36438 -23.14941,-23.14942 l 0,-46.29883 c 0,-12.78509 10.36435,-23.14941 23.14941,-23.14941 z m 202.62982,4.20148 c 12.78504,0 23.14942,10.36438 23.14942,23.14941 l 0,46.29883 c 0,12.78509 -10.36438,23.14941 -23.14942,23.14941 l -22.16992,0 c -12.7851,0 -23.14941,-10.36432 -23.14941,-23.14941 l 0,-46.29883 c 0,-12.78503 10.36431,-23.14941 23.14941,-23.14941 z m 337.8274,0 c 12.785,0 23.1494,10.36438 23.1494,23.14941 l 0,46.29883 c 0,12.78509 -10.3644,23.14941 -23.1494,23.14941 l -91.0293,0 c -12.7851,0 -23.1495,-10.36432 -23.1495,-23.14941 l 0,-46.29883 c 0,-12.78503 10.3644,-23.14941 23.1495,-23.14941 z m 620.0978,89.70141 c 12.785,0 23.1494,10.36438 23.1494,23.14942 l 0,46.29882 c 0,12.7851 -10.3644,23.14942 -23.1494,23.14942 l -22.1699,0 c -12.7851,0 -23.1495,-10.36432 -23.1495,-23.14942 l 0,-46.29882 c 0,-12.78504 10.3644,-23.14942 23.1495,-23.14942 z m 337.8272,155.28989 c 12.7852,0 23.1495,10.3644 23.1495,23.1494 l 0,46.2989 c 0,12.785 -10.3643,23.1494 -23.1495,23.1494 l -91.0291,0 c -12.7851,0 -23.1494,-10.3644 -23.1494,-23.1494 l 0,-46.2989 c 0,-12.785 10.3643,-23.1494 23.1494,-23.1494 z M 0,0 l 0,1276 2532,0 0,-1276 z"
           id="path57"
           inkscape:connector-curvature="0" />
      </clipPath>
      <clipPath
         clipPathUnits="userSpaceOnUse"
         id="159347279446-clipPath1">
        <path
           d="m 0,0 2532,0 0,1276 L 0,1276 0,0 Z"
           id="path60"
           inkscape:connector-curvature="0" />
      </clipPath>
      <clipPath
         clipPathUnits="userSpaceOnUse"
         id="159347279138-clipPath1">
        <path
           d="m 186.23082,122.79678 3.42586,0 0,13.52311 -3.42586,0 0,-13.52311 z"
           id="path63"
           inkscape:connector-curvature="0" />
      </clipPath>
      <clipPath
         clipPathUnits="userSpaceOnUse"
         id="159347279484-clipPath1">
        <path
           d="m 2329.0657,1080.7616 3.2456,0 0,13.5231 -3.2456,0 0,-13.5231 z"
           id="path66"
           inkscape:connector-curvature="0" />
      </clipPath>
    </defs>
    <g
       font-size="99"
       transform="translate(1695.9547,873.50979)"
       id="g68"
       style="font-size:99px;font-family:Arial;stroke-width:0.0625;shape-rendering:geometricPrecision;text-rendering:optimizeLegibility">
      <g
         clip-path="url(#1593472799-clipPath1)"
         style="stroke:none"
         id="text70">
        <path
           d="m 4.7856445,60.485352 q 0,-17.644043 9.4746095,-27.602051 9.474609,-10.006348 24.459961,-10.006348 9.812988,0 17.692383,4.688965 7.879394,4.688965 11.988281,13.100098 4.157226,8.362793 4.157226,18.997558 0,10.779785 -4.350585,19.287598 -4.350586,8.507812 -12.326661,12.906738 -7.976074,4.350586 -17.208984,4.350586 -10.006348,0 -17.885742,-4.833984 Q 12.906738,86.540527 8.8461914,78.177734 4.7856445,69.814941 4.7856445,60.485352 Z m 9.6679685,0.145019 q 0,12.810059 6.864258,20.206055 6.912598,7.347656 17.305664,7.347656 10.586426,0 17.402344,-7.444336 6.864258,-7.444336 6.864258,-21.124512 0,-8.652832 -2.948731,-15.082031 -2.90039,-6.477539 -8.556152,-10.006348 -5.607422,-3.577148 -12.616699,-3.577148 -9.958008,0 -17.160645,6.864258 -7.154297,6.815918 -7.154297,22.816406 z"
           style="stroke:none"
           id="path3655" />
      </g>
    </g>
    <g
       font-size="99"
       transform="translate(1695.9547,407.63333)"
       id="g72"
       style="font-size:99px;font-family:Arial;stroke-width:0.0625;shape-rendering:geometricPrecision;text-rendering:optimizeLegibility">
      <g
         clip-path="url(#159347279811-clipPath1)"
         style="stroke:none"
         id="text74">
        <path
           d="m 4.7856445,60.485352 q 0,-17.644043 9.4746095,-27.602051 9.474609,-10.006348 24.459961,-10.006348 9.812988,0 17.692383,4.688965 7.879394,4.688965 11.988281,13.100098 4.157226,8.362793 4.157226,18.997558 0,10.779785 -4.350585,19.287598 -4.350586,8.507812 -12.326661,12.906738 -7.976074,4.350586 -17.208984,4.350586 -10.006348,0 -17.885742,-4.833984 Q 12.906738,86.540527 8.8461914,78.177734 4.7856445,69.814941 4.7856445,60.485352 Z m 9.6679685,0.145019 q 0,12.810059 6.864258,20.206055 6.912598,7.347656 17.305664,7.347656 10.586426,0 17.402344,-7.444336 6.864258,-7.444336 6.864258,-21.124512 0,-8.652832 -2.948731,-15.082031 -2.90039,-6.477539 -8.556152,-10.006348 -5.607422,-3.577148 -12.616699,-3.577148 -9.958008,0 -17.160645,6.864258 -7.154297,6.815918 -7.154297,22.816406 z"
           style="stroke:none"
           id="path3658" />
      </g>
    </g>
    <g
       font-size="99"
       transform="translate(1425.4164,407.63333)"
       id="g76"
       style="font-size:99px;font-family:Arial;stroke-width:0.0625;shape-rendering:geometricPrecision;text-rendering:optimizeLegibility">
      <g
         clip-path="url(#159347279786-clipPath1)"
         style="stroke:none"
         id="text78">
        <path
           d="m 4.7856445,60.485352 q 0,-17.644043 9.4746095,-27.602051 9.474609,-10.006348 24.459961,-10.006348 9.812988,0 17.692383,4.688965 7.879394,4.688965 11.988281,13.100098 4.157226,8.362793 4.157226,18.997558 0,10.779785 -4.350585,19.287598 -4.350586,8.507812 -12.326661,12.906738 -7.976074,4.350586 -17.208984,4.350586 -10.006348,0 -17.885742,-4.833984 Q 12.906738,86.540527 8.8461914,78.177734 4.7856445,69.814941 4.7856445,60.485352 Z m 9.6679685,0.145019 q 0,12.810059 6.864258,20.206055 6.912598,7.347656 17.305664,7.347656 10.586426,0 17.402344,-7.444336 6.864258,-7.444336 6.864258,-21.124512 0,-8.652832 -2.948731,-15.082031 -2.90039,-6.477539 -8.556152,-10.006348 -5.607422,-3.577148 -12.616699,-3.577148 -9.958008,0 -17.160645,6.864258 -7.154297,6.815918 -7.154297,22.816406 z"
           style="stroke:none"
           id="path3661" />
        <path
           d="m 84.884766,95 0,-70.866211 9.377929,0 0,29.100586 36.834965,0 0,-29.100586 9.37793,0 0,70.866211 -9.37793,0 0,-33.402832 -36.834965,0 0,33.402832 -9.377929,0 z"
           style="stroke:none"
           id="path3663" />
      </g>
    </g>
    <g
       font-size="99"
       transform="translate(2040.5509,403.4317)"
       id="g80"
       style="font-size:99px;font-family:Arial;stroke-width:0.0625;shape-rendering:geometricPrecision;text-rendering:optimizeLegibility">
      <g
         clip-path="url(#159347279837-clipPath1)"
         style="stroke:none"
         id="text82">
        <path
           d="m 4.7856445,60.485352 q 0,-17.644043 9.4746095,-27.602051 9.474609,-10.006348 24.459961,-10.006348 9.812988,0 17.692383,4.688965 7.879394,4.688965 11.988281,13.100098 4.157226,8.362793 4.157226,18.997558 0,10.779785 -4.350585,19.287598 -4.350586,8.507812 -12.326661,12.906738 -7.976074,4.350586 -17.208984,4.350586 -10.006348,0 -17.885742,-4.833984 Q 12.906738,86.540527 8.8461914,78.177734 4.7856445,69.814941 4.7856445,60.485352 Z m 9.6679685,0.145019 q 0,12.810059 6.864258,20.206055 6.912598,7.347656 17.305664,7.347656 10.586426,0 17.402344,-7.444336 6.864258,-7.444336 6.864258,-21.124512 0,-8.652832 -2.948731,-15.082031 -2.90039,-6.477539 -8.556152,-10.006348 -5.607422,-3.577148 -12.616699,-3.577148 -9.958008,0 -17.160645,6.864258 -7.154297,6.815918 -7.154297,22.816406 z"
           style="stroke:none"
           id="path3666" />
      </g>
    </g>
    <g
       font-size="99"
       transform="translate(1990.967,746.50705)"
       id="g84"
       style="font-size:99px;font-family:Arial;stroke-width:0.0625;shape-rendering:geometricPrecision;text-rendering:optimizeLegibility">
      <g
         clip-path="url(#159347279891-clipPath1)"
         style="stroke:none"
         id="text86">
        <path
           d="m 58.201172,70.15332 9.37793,2.368653 q -2.948731,11.553222 -10.634766,17.644043 -7.637695,6.04248 -18.70752,6.04248 -11.456543,0 -18.659179,-4.640625 Q 12.42334,86.878906 8.652832,78.032715 4.9306641,69.186523 4.9306641,59.035156 q 0,-11.069824 4.2055664,-19.287597 4.2539065,-8.266114 12.0366215,-12.52002 7.831054,-4.302246 17.208984,-4.302246 10.634766,0 17.885742,5.414062 7.250977,5.414063 10.103027,15.227051 l -9.23291,2.175293 q -2.465332,-7.734375 -7.154297,-11.263183 -4.688964,-3.528809 -11.794921,-3.528809 -8.169434,0 -13.680176,3.915527 -5.462403,3.915528 -7.686035,10.538086 -2.223633,6.574219 -2.223633,13.583496 0,9.039551 2.610351,15.807129 2.658692,6.719239 8.217774,10.054688 5.559082,3.335449 12.036621,3.335449 7.879394,0 13.341797,-4.543945 5.462402,-4.543946 7.395996,-13.486817 z"
           style="stroke:none"
           id="path3669" />
        <path
           d="m 76.328613,60.485352 q 0,-17.644043 9.47461,-27.602051 9.474609,-10.006348 24.459957,-10.006348 9.81299,0 17.69239,4.688965 7.87939,4.688965 11.98828,13.100098 4.15722,8.362793 4.15722,18.997558 0,10.779785 -4.35058,19.287598 -4.35059,8.507812 -12.32666,12.906738 -7.97608,4.350586 -17.20899,4.350586 -10.00634,0 -17.885738,-4.833984 Q 84.449707,86.540527 80.38916,78.177734 76.328613,69.814941 76.328613,60.485352 Z m 9.667969,0.145019 q 0,12.810059 6.864258,20.206055 6.912597,7.347656 17.30566,7.347656 10.58643,0 17.40235,-7.444336 6.86426,-7.444336 6.86426,-21.124512 0,-8.652832 -2.94874,-15.082031 -2.90039,-6.477539 -8.55615,-10.006348 -5.60742,-3.577148 -12.6167,-3.577148 -9.958,0 -17.160641,6.864258 -7.154297,6.815918 -7.154297,22.816406 z"
           style="stroke:none"
           id="path3671" />
      </g>
    </g>
    <g
       font-size="99"
       transform="translate(1828.833,456.87654)"
       id="g88"
       style="font-size:99px;font-family:Arial;stroke-width:0.0625;shape-rendering:geometricPrecision;text-rendering:optimizeLegibility">
      <g
         clip-path="url(#159347279423-clipPath1)"
         style="stroke:none"
         id="text90">
        <path
           d="m 4.7856445,60.485352 q 0,-17.644043 9.4746095,-27.602051 9.474609,-10.006348 24.459961,-10.006348 9.812988,0 17.692383,4.688965 7.879394,4.688965 11.988281,13.100098 4.157226,8.362793 4.157226,18.997558 0,10.779785 -4.350585,19.287598 -4.350586,8.507812 -12.326661,12.906738 -7.976074,4.350586 -17.208984,4.350586 -10.006348,0 -17.885742,-4.833984 Q 12.906738,86.540527 8.8461914,78.177734 4.7856445,69.814941 4.7856445,60.485352 Z m 9.6679685,0.145019 q 0,12.810059 6.864258,20.206055 6.912598,7.347656 17.305664,7.347656 10.586426,0 17.402344,-7.444336 6.864258,-7.444336 6.864258,-21.124512 0,-8.652832 -2.948731,-15.082031 -2.90039,-6.477539 -8.556152,-10.006348 -5.607422,-3.577148 -12.616699,-3.577148 -9.958008,0 -17.160645,6.864258 -7.154297,6.815918 -7.154297,22.816406 z"
           style="stroke:none"
           id="path3674" />
        <path
           d="m 84.884766,95 0,-70.866211 9.377929,0 0,29.100586 36.834965,0 0,-29.100586 9.37793,0 0,70.866211 -9.37793,0 0,-33.402832 -36.834965,0 0,33.402832 -9.377929,0 z"
           style="stroke:none"
           id="path3676" />
      </g>
    </g>
    <g
       font-size="99"
       transform="translate(1963.3524,1028.7997)"
       id="g92"
       style="font-size:99px;font-family:Arial;stroke-width:0.0625;shape-rendering:geometricPrecision;text-rendering:optimizeLegibility">
      <g
         clip-path="url(#159347279948-clipPath1)"
         style="stroke:none"
         id="text94">
        <path
           d="m 4.7856445,60.485352 q 0,-17.644043 9.4746095,-27.602051 9.474609,-10.006348 24.459961,-10.006348 9.812988,0 17.692383,4.688965 7.879394,4.688965 11.988281,13.100098 4.157226,8.362793 4.157226,18.997558 0,10.779785 -4.350585,19.287598 -4.350586,8.507812 -12.326661,12.906738 -7.976074,4.350586 -17.208984,4.350586 -10.006348,0 -17.885742,-4.833984 Q 12.906738,86.540527 8.8461914,78.177734 4.7856445,69.814941 4.7856445,60.485352 Z m 9.6679685,0.145019 q 0,12.810059 6.864258,20.206055 6.912598,7.347656 17.305664,7.347656 10.586426,0 17.402344,-7.444336 6.864258,-7.444336 6.864258,-21.124512 0,-8.652832 -2.948731,-15.082031 -2.90039,-6.477539 -8.556152,-10.006348 -5.607422,-3.577148 -12.616699,-3.577148 -9.958008,0 -17.160645,6.864258 -7.154297,6.815918 -7.154297,22.816406 z"
           style="stroke:none"
           id="path3679" />
        <path
           d="m 84.884766,95 0,-70.866211 9.377929,0 0,29.100586 36.834965,0 0,-29.100586 9.37793,0 0,70.866211 -9.37793,0 0,-33.402832 -36.834965,0 0,33.402832 -9.377929,0 z"
           style="stroke:none"
           id="path3681" />
      </g>
    </g>
    <g
       font-size="99"
       transform="translate(738.02953,317.9319)"
       id="g96"
       style="font-size:99px;font-family:Arial;stroke-width:0.0625;shape-rendering:geometricPrecision;text-rendering:optimizeLegibility">
      <g
         clip-path="url(#159347279838-clipPath1)"
         style="stroke:none"
         id="text98">
        <path
           d="m 4.7856445,60.485352 q 0,-17.644043 9.4746095,-27.602051 9.474609,-10.006348 24.459961,-10.006348 9.812988,0 17.692383,4.688965 7.879394,4.688965 11.988281,13.100098 4.157226,8.362793 4.157226,18.997558 0,10.779785 -4.350585,19.287598 -4.350586,8.507812 -12.326661,12.906738 -7.976074,4.350586 -17.208984,4.350586 -10.006348,0 -17.885742,-4.833984 Q 12.906738,86.540527 8.8461914,78.177734 4.7856445,69.814941 4.7856445,60.485352 Z m 9.6679685,0.145019 q 0,12.810059 6.864258,20.206055 6.912598,7.347656 17.305664,7.347656 10.586426,0 17.402344,-7.444336 6.864258,-7.444336 6.864258,-21.124512 0,-8.652832 -2.948731,-15.082031 -2.90039,-6.477539 -8.556152,-10.006348 -5.607422,-3.577148 -12.616699,-3.577148 -9.958008,0 -17.160645,6.864258 -7.154297,6.815918 -7.154297,22.816406 z"
           style="stroke:none"
           id="path3684" />
      </g>
    </g>
    <g
       font-size="99"
       transform="translate(738.02953,783.80836)"
       id="g100"
       style="font-size:99px;font-family:Arial;stroke-width:0.0625;shape-rendering:geometricPrecision;text-rendering:optimizeLegibility">
      <g
         clip-path="url(#15934727993-clipPath1)"
         style="stroke:none"
         id="text102">
        <path
           d="m 4.7856445,60.485352 q 0,-17.644043 9.4746095,-27.602051 9.474609,-10.006348 24.459961,-10.006348 9.812988,0 17.692383,4.688965 7.879394,4.688965 11.988281,13.100098 4.157226,8.362793 4.157226,18.997558 0,10.779785 -4.350585,19.287598 -4.350586,8.507812 -12.326661,12.906738 -7.976074,4.350586 -17.208984,4.350586 -10.006348,0 -17.885742,-4.833984 Q 12.906738,86.540527 8.8461914,78.177734 4.7856445,69.814941 4.7856445,60.485352 Z m 9.6679685,0.145019 q 0,12.810059 6.864258,20.206055 6.912598,7.347656 17.305664,7.347656 10.586426,0 17.402344,-7.444336 6.864258,-7.444336 6.864258,-21.124512 0,-8.652832 -2.948731,-15.082031 -2.90039,-6.477539 -8.556152,-10.006348 -5.607422,-3.577148 -12.616699,-3.577148 -9.958008,0 -17.160645,6.864258 -7.154297,6.815918 -7.154297,22.816406 z"
           style="stroke:none"
           id="path3687" />
      </g>
    </g>
    <g
       font-size="99"
       transform="translate(1005.4272,783.80836)"
       id="g104"
       style="font-size:99px;font-family:Arial;stroke-width:0.0625;shape-rendering:geometricPrecision;text-rendering:optimizeLegibility">
      <g
         clip-path="url(#159347279712-clipPath1)"
         style="stroke:none"
         id="text106">
        <path
           d="m 4.7856445,60.485352 q 0,-17.644043 9.4746095,-27.602051 9.474609,-10.006348 24.459961,-10.006348 9.812988,0 17.692383,4.688965 7.879394,4.688965 11.988281,13.100098 4.157226,8.362793 4.157226,18.997558 0,10.779785 -4.350585,19.287598 -4.350586,8.507812 -12.326661,12.906738 -7.976074,4.350586 -17.208984,4.350586 -10.006348,0 -17.885742,-4.833984 Q 12.906738,86.540527 8.8461914,78.177734 4.7856445,69.814941 4.7856445,60.485352 Z m 9.6679685,0.145019 q 0,12.810059 6.864258,20.206055 6.912598,7.347656 17.305664,7.347656 10.586426,0 17.402344,-7.444336 6.864258,-7.444336 6.864258,-21.124512 0,-8.652832 -2.948731,-15.082031 -2.90039,-6.477539 -8.556152,-10.006348 -5.607422,-3.577148 -12.616699,-3.577148 -9.958008,0 -17.160645,6.864258 -7.154297,6.815918 -7.154297,22.816406 z"
           style="stroke:none"
           id="path3690" />
        <path
           d="m 84.884766,95 0,-70.866211 9.377929,0 0,29.100586 36.834965,0 0,-29.100586 9.37793,0 0,70.866211 -9.37793,0 0,-33.402832 -36.834965,0 0,33.402832 -9.377929,0 z"
           style="stroke:none"
           id="path3692" />
      </g>
    </g>
    <g
       font-size="99"
       transform="translate(464.97001,779.60685)"
       id="g108"
       style="font-size:99px;font-family:Arial;stroke-width:0.0625;shape-rendering:geometricPrecision;text-rendering:optimizeLegibility">
      <g
         clip-path="url(#15934727960-clipPath1)"
         style="stroke:none"
         id="text110">
        <path
           d="m 4.7856445,60.485352 q 0,-17.644043 9.4746095,-27.602051 9.474609,-10.006348 24.459961,-10.006348 9.812988,0 17.692383,4.688965 7.879394,4.688965 11.988281,13.100098 4.157226,8.362793 4.157226,18.997558 0,10.779785 -4.350585,19.287598 -4.350586,8.507812 -12.326661,12.906738 -7.976074,4.350586 -17.208984,4.350586 -10.006348,0 -17.885742,-4.833984 Q 12.906738,86.540527 8.8461914,78.177734 4.7856445,69.814941 4.7856445,60.485352 Z m 9.6679685,0.145019 q 0,12.810059 6.864258,20.206055 6.912598,7.347656 17.305664,7.347656 10.586426,0 17.402344,-7.444336 6.864258,-7.444336 6.864258,-21.124512 0,-8.652832 -2.948731,-15.082031 -2.90039,-6.477539 -8.556152,-10.006348 -5.607422,-3.577148 -12.616699,-3.577148 -9.958008,0 -17.160645,6.864258 -7.154297,6.815918 -7.154297,22.816406 z"
           style="stroke:none"
           id="path3695" />
        <path
           d="m 84.884766,95 0,-70.866211 9.377929,0 0,29.100586 36.834965,0 0,-29.100586 9.37793,0 0,70.866211 -9.37793,0 0,-33.402832 -36.834965,0 0,33.402832 -9.377929,0 z"
           style="stroke:none"
           id="path3697" />
      </g>
    </g>
    <g
       font-size="99"
       transform="translate(608.54821,168.57687)"
       id="g112"
       style="font-size:99px;font-family:Arial;stroke-width:0.0625;shape-rendering:geometricPrecision;text-rendering:optimizeLegibility">
      <g
         clip-path="url(#159347279272-clipPath1)"
         style="stroke:none"
         id="text114">
        <path
           d="m 58.201172,70.15332 9.37793,2.368653 q -2.948731,11.553222 -10.634766,17.644043 -7.637695,6.04248 -18.70752,6.04248 -11.456543,0 -18.659179,-4.640625 Q 12.42334,86.878906 8.652832,78.032715 4.9306641,69.186523 4.9306641,59.035156 q 0,-11.069824 4.2055664,-19.287597 4.2539065,-8.266114 12.0366215,-12.52002 7.831054,-4.302246 17.208984,-4.302246 10.634766,0 17.885742,5.414062 7.250977,5.414063 10.103027,15.227051 l -9.23291,2.175293 q -2.465332,-7.734375 -7.154297,-11.263183 -4.688964,-3.528809 -11.794921,-3.528809 -8.169434,0 -13.680176,3.915527 -5.462403,3.915528 -7.686035,10.538086 -2.223633,6.574219 -2.223633,13.583496 0,9.039551 2.610351,15.807129 2.658692,6.719239 8.217774,10.054688 5.559082,3.335449 12.036621,3.335449 7.879394,0 13.341797,-4.543945 5.462402,-4.543946 7.395996,-13.486817 z"
           style="stroke:none"
           id="path3700" />
        <path
           d="m 76.328613,60.485352 q 0,-17.644043 9.47461,-27.602051 9.474609,-10.006348 24.459957,-10.006348 9.81299,0 17.69239,4.688965 7.87939,4.688965 11.98828,13.100098 4.15722,8.362793 4.15722,18.997558 0,10.779785 -4.35058,19.287598 -4.35059,8.507812 -12.32666,12.906738 -7.97608,4.350586 -17.20899,4.350586 -10.00634,0 -17.885738,-4.833984 Q 84.449707,86.540527 80.38916,78.177734 76.328613,69.814941 76.328613,60.485352 Z m 9.667969,0.145019 q 0,12.810059 6.864258,20.206055 6.912597,7.347656 17.30566,7.347656 10.58643,0 17.40235,-7.444336 6.86426,-7.444336 6.86426,-21.124512 0,-8.652832 -2.94874,-15.082031 -2.90039,-6.477539 -8.55615,-10.006348 -5.60742,-3.577148 -12.6167,-3.577148 -9.958,0 -17.160641,6.864258 -7.154297,6.815918 -7.154297,22.816406 z"
           style="stroke:none"
           id="path3702" />
      </g>
    </g>
    <g
       font-size="82"
       transform="translate(753.86437,213.38381)"
       id="g116"
       style="font-size:82px;font-family:Arial;stroke-width:0.0625;shape-rendering:geometricPrecision;text-rendering:optimizeLegibility">
      <g
         clip-path="url(#15934727971-clipPath1)"
         style="stroke:none"
         id="text118">
        <path
           d="m 41.280273,72.073242 0,6.926758 -38.7978511,0 Q 2.4023438,76.397461 3.3232422,73.995117 4.8046875,70.03125 8.0478516,66.1875 11.331055,62.34375 17.49707,57.298828 q 9.569336,-7.847656 12.932617,-12.412109 3.363282,-4.604492 3.363282,-8.688477 0,-4.28418 -3.083008,-7.207031 -3.042969,-2.962891 -7.967774,-2.962891 -5.205078,0 -8.328124,3.123047 -3.123047,3.123047 -3.163086,8.648438 L 3.84375,37.039062 Q 4.6044922,28.750977 9.5693359,24.426758 14.53418,20.0625 22.902344,20.0625 q 8.448242,0 13.373047,4.68457 4.924804,4.684571 4.924804,11.611328 0,3.523438 -1.441406,6.926758 -1.441406,3.403321 -4.804687,7.166992 -3.323243,3.763672 -11.090821,10.330079 -6.486328,5.445312 -8.328125,7.407226 -1.841797,1.921875 -3.042968,3.883789 l 28.788085,0 z"
           style="stroke:none"
           id="path3705" />
      </g>
    </g>
    <g
       font-size="99"
       transform="translate(796.04771,167.50495)"
       id="g120"
       style="font-size:99px;font-family:Arial;stroke-width:0.0625;shape-rendering:geometricPrecision;text-rendering:optimizeLegibility">
      <g
         clip-path="url(#159347279173-clipPath1)"
         style="stroke:none"
         id="text122">
        <path
           d="m 7.3476562,95 0,-70.866211 14.1152348,0 16.773925,50.176758 q 2.320313,7.009277 3.383789,10.489746 1.208497,-3.867188 3.770508,-11.359863 l 16.967285,-49.306641 12.6167,0 0,70.866211 -9.039551,0 0,-59.312988 L 45.342773,95 36.883301,95 16.387207,34.671875 16.387207,95 7.3476562,95 Z"
           style="stroke:none"
           id="path3708" />
        <path
           d="m 124.2334,78.467773 8.99121,1.111817 q -2.12695,7.879394 -7.8794,12.22998 -5.75244,4.350586 -14.69531,4.350586 -11.263181,0 -17.88574,-6.912597 -6.574219,-6.960938 -6.574219,-19.480957 0,-12.955079 6.670899,-20.109375 6.670898,-7.154297 17.30566,-7.154297 10.29639,0 16.82227,7.009277 6.52588,7.009277 6.52588,19.722656 0,0.773438 -0.0483,2.320313 l -38.285158,0 q 0.483399,8.459472 4.785645,12.955078 4.302243,4.495605 10.731443,4.495605 4.78565,0 8.16944,-2.513672 3.38378,-2.513671 5.36572,-8.024414 z m -28.568849,-14.066894 28.665529,0 Q 123.75,57.92334 121.04297,54.68457 q -4.15723,-5.027343 -10.77979,-5.027343 -5.99414,0 -10.10302,4.012207 -4.060551,4.012207 -4.495609,10.731445 z"
           style="stroke:none"
           id="path3710" />
      </g>
    </g>
    <g
       font-size="99"
       transform="translate(392.00003,166.84363)"
       id="g124"
       style="font-size:99px;font-family:Arial;stroke-width:0.0625;shape-rendering:geometricPrecision;text-rendering:optimizeLegibility">
      <g
         clip-path="url(#159347279461-clipPath1)"
         style="stroke:none"
         id="text126">
        <path
           d="m 7.9277344,95 0,-70.866211 9.3779296,0 0,29.100586 36.834961,0 0,-29.100586 9.37793,0 0,70.866211 -9.37793,0 0,-33.402832 -36.834961,0 0,33.402832 -9.3779296,0 z"
           style="stroke:none"
           id="path3713" />
        <path
           d="m 76.328613,60.485352 q 0,-17.644043 9.47461,-27.602051 9.474609,-10.006348 24.459957,-10.006348 9.81299,0 17.69239,4.688965 7.87939,4.688965 11.98828,13.100098 4.15722,8.362793 4.15722,18.997558 0,10.779785 -4.35058,19.287598 -4.35059,8.507812 -12.32666,12.906738 -7.97608,4.350586 -17.20899,4.350586 -10.00634,0 -17.885738,-4.833984 Q 84.449707,86.540527 80.38916,78.177734 76.328613,69.814941 76.328613,60.485352 Z m 9.667969,0.145019 q 0,12.810059 6.864258,20.206055 6.912597,7.347656 17.30566,7.347656 10.58643,0 17.40235,-7.444336 6.86426,-7.444336 6.86426,-21.124512 0,-8.652832 -2.94874,-15.082031 -2.90039,-6.477539 -8.55615,-10.006348 -5.60742,-3.577148 -12.6167,-3.577148 -9.958,0 -17.160641,6.864258 -7.154297,6.815918 -7.154297,22.816406 z"
           style="stroke:none"
           id="path3715" />
      </g>
    </g>
    <g
       font-size="99"
       id="g128"
       style="font-size:99px;font-family:Arial;stroke-width:0.0625;shape-rendering:geometricPrecision;text-rendering:optimizeLegibility">
      <path
         d="m 1464.2565,657.35858 c 1.608,-0.92834 2.1587,-2.98352 1.2302,-4.59149 -0.9284,-1.60797 -2.9835,-2.15863 -4.5914,-1.23022 l -100.6519,58.11303 c -1.6079,0.92841 -2.1586,2.98358 -1.2302,4.59156 0.9283,1.60791 2.9835,2.15856 4.5915,1.23022 z m 2.9109,-34.02447 c 1.608,-0.92841 2.1586,-2.98359 1.2302,-4.59156 -0.9284,-1.60797 -2.9835,-2.15863 -4.5914,-1.23022 L 1329.3221,695.159 c -1.608,0.92834 -2.1586,2.98352 -1.2302,4.59149 0.9284,1.60797 2.9835,2.15863 4.5914,1.23022 z"
         clip-path="url(#159347279752-clipPath1)"
         id="path130"
         inkscape:connector-curvature="0"
         style="stroke:none" />
    </g>
    <g
       font-size="99"
       id="g132"
       style="font-size:99px;font-family:Arial;stroke-width:0.0625;shape-rendering:geometricPrecision;text-rendering:optimizeLegibility">
      <path
         d="m 1463.8062,623.33411 134.4838,77.6466 c 1.6081,0.92841 3.6632,0.37775 4.5916,-1.23022 0.9283,-1.60791 0.3777,-3.66315 -1.2302,-4.59149 l -134.484,-77.64667 c -1.608,-0.92841 -3.6631,-0.37775 -4.5916,1.23022 -0.9283,1.60797 -0.3777,3.66315 1.2304,4.59156 z"
         clip-path="url(#159347279752-clipPath1)"
         id="path134"
         inkscape:connector-curvature="0"
         style="stroke:none" />
    </g>
    <g
       font-size="99"
       id="g136"
       style="font-size:99px;font-family:Arial;stroke-width:0.0625;shape-rendering:geometricPrecision;text-rendering:optimizeLegibility">
      <path
         d="m 1468.848,620.42322 0,-94.93683 c 0,-1.85669 -1.5045,-3.36121 -3.3613,-3.36121 -1.8567,0 -3.3612,1.50452 -3.3612,3.36121 l 0,94.93683 c 0,1.85669 1.5045,3.3612 3.3612,3.3612 1.8568,0 3.3613,-1.50451 3.3613,-3.3612 z"
         clip-path="url(#159347279752-clipPath1)"
         id="path138"
         inkscape:connector-curvature="0"
         style="stroke:none" />
    </g>
    <g
       font-size="99"
       id="g140"
       style="font-size:99px;font-family:Arial;stroke-width:0.0625;shape-rendering:geometricPrecision;text-rendering:optimizeLegibility">
      <path
         d="m 1327.6415,698.06989 0,155.29327 c 0,1.85669 1.5045,3.36121 3.3613,3.36121 1.8567,0 3.3612,-1.50452 3.3612,-3.36121 l 0,-155.29327 c 0,-1.85676 -1.5045,-3.36127 -3.3612,-3.36127 -1.8568,0 -3.3613,1.50451 -3.3613,3.36127 z"
         clip-path="url(#159347279752-clipPath1)"
         id="path142"
         inkscape:connector-curvature="0"
         style="stroke:none" />
    </g>
    <g
       font-size="99"
       id="g144"
       style="font-size:99px;font-family:Arial;stroke-width:0.0625;shape-rendering:geometricPrecision;text-rendering:optimizeLegibility">
      <path
         d="m 1363.6047,835.9613 c -1.608,-0.92834 -3.6632,-0.37768 -4.5915,1.23029 -0.9284,1.60791 -0.3777,3.66315 1.2302,4.59149 l 100.6519,58.1131 c 1.6079,0.92834 3.663,0.37768 4.5914,-1.23029 0.9285,-1.60791 0.3778,-3.66314 -1.2302,-4.59149 z m -30.9214,14.49097 c -1.6079,-0.92841 -3.663,-0.37775 -4.5914,1.23023 -0.9284,1.60797 -0.3778,3.66314 1.2302,4.59155 l 134.4841,77.6466 c 1.6079,0.92841 3.663,0.37775 4.5914,-1.23022 0.9284,-1.60797 0.3778,-3.66315 -1.2302,-4.59149 z"
         clip-path="url(#159347279752-clipPath1)"
         id="path146"
         inkscape:connector-curvature="0"
         style="stroke:none" />
    </g>
    <g
       font-size="99"
       id="g148"
       style="font-size:99px;font-family:Arial;stroke-width:0.0625;shape-rendering:geometricPrecision;text-rendering:optimizeLegibility">
      <path
         d="m 1467.1674,933.92065 134.484,-77.6466 c 1.6079,-0.92841 2.1585,-2.98358 1.2302,-4.59155 -0.9284,-1.60798 -2.9835,-2.15864 -4.5916,-1.23023 l -134.4838,77.64667 c -1.6081,0.92834 -2.1587,2.98352 -1.2304,4.59149 0.9285,1.60797 2.9836,2.15863 4.5916,1.23022 z"
         clip-path="url(#159347279752-clipPath1)"
         id="path150"
         inkscape:connector-curvature="0"
         style="stroke:none" />
    </g>
    <g
       font-size="99"
       id="g152"
       style="font-size:99px;font-family:Arial;stroke-width:0.0625;shape-rendering:geometricPrecision;text-rendering:optimizeLegibility">
      <path
         d="m 1568.5991,833.83032 c 0,1.85675 1.5045,3.36127 3.3612,3.36127 1.8567,0 3.3612,-1.50452 3.3612,-3.36127 l 0,-116.22766 c 0,-1.85675 -1.5045,-3.3612 -3.3612,-3.3612 -1.8567,0 -3.3612,1.50445 -3.3612,3.3612 z m 28.0104,19.53284 c 0,1.85669 1.5045,3.36121 3.3612,3.36121 1.8568,0 3.3612,-1.50452 3.3612,-3.36121 l 0,-155.29327 c 0,-1.85676 -1.5044,-3.36127 -3.3612,-3.36127 -1.8567,0 -3.3612,1.50451 -3.3612,3.36127 z"
         clip-path="url(#159347279752-clipPath1)"
         id="path154"
         inkscape:connector-curvature="0"
         style="stroke:none" />
    </g>
    <g
       font-size="99"
       id="g156"
       style="font-size:99px;font-family:Arial;stroke-width:0.0625;shape-rendering:geometricPrecision;text-rendering:optimizeLegibility">
      <path
         d="m 1598.29,856.27405 87.1256,50.30346 c 1.6081,0.92835 3.6633,0.37769 4.5916,-1.23022 0.9285,-1.60797 0.3778,-3.66315 -1.2302,-4.59155 l -87.1256,-50.30347 c -1.6079,-0.92841 -3.6631,-0.37775 -4.5916,1.23023 -0.9283,1.60797 -0.3777,3.66314 1.2302,4.59155 z"
         clip-path="url(#159347279752-clipPath1)"
         id="path158"
         inkscape:connector-curvature="0"
         style="stroke:none" />
    </g>
    <g
       font-size="99"
       id="g160"
       style="font-size:99px;font-family:Arial;stroke-width:0.0625;shape-rendering:geometricPrecision;text-rendering:optimizeLegibility">
      <path
         d="M 1732.774,617.51233 1598.29,695.159 c -1.6079,0.92834 -2.1585,2.98358 -1.2302,4.59149 0.9285,1.60797 2.9837,2.15863 4.5916,1.23022 l 134.484,-77.6466 c 1.6079,-0.92841 2.1585,-2.98359 1.2302,-4.59156 -0.9283,-1.60797 -2.9835,-2.15863 -4.5916,-1.23022 z"
         clip-path="url(#159347279752-clipPath1)"
         id="path162"
         inkscape:connector-curvature="0"
         style="stroke:none" />
    </g>
    <g
       font-size="99"
       id="g164"
       style="font-size:99px;font-family:Arial;stroke-width:0.0625;shape-rendering:geometricPrecision;text-rendering:optimizeLegibility">
      <path
         d="m 1732.774,623.33411 134.4841,77.6466 c 1.6079,0.92841 3.6632,0.37775 4.5915,-1.23022 0.9284,-1.60791 0.3777,-3.66315 -1.2302,-4.59149 l -134.484,-77.64667 c -1.6079,-0.92841 -3.6632,-0.37775 -4.5916,1.23022 -0.9283,1.60797 -0.3777,3.66315 1.2302,4.59156 z"
         clip-path="url(#159347279752-clipPath1)"
         id="path166"
         inkscape:connector-curvature="0"
         style="stroke:none" />
    </g>
    <g
       font-size="99"
       id="g168"
       style="font-size:99px;font-family:Arial;stroke-width:0.0625;shape-rendering:geometricPrecision;text-rendering:optimizeLegibility">
      <path
         d="m 1717.0883,628.50934 c 0,1.85675 1.5045,3.36127 3.3612,3.36127 1.8568,0 3.3613,-1.50452 3.3613,-3.36127 l 0,-103.02295 c 0,-1.85669 -1.5045,-3.36121 -3.3613,-3.36121 -1.8567,0 -3.3612,1.50452 -3.3612,3.36121 z m 28.0105,0 c 0,1.85675 1.5045,3.36127 3.3612,3.36127 1.8567,0 3.3612,-1.50452 3.3612,-3.36127 l 0,-103.02295 c 0,-1.85669 -1.5045,-3.36121 -3.3612,-3.36121 -1.8567,0 -3.3612,1.50452 -3.3612,3.36121 z"
         clip-path="url(#159347279752-clipPath1)"
         id="path170"
         inkscape:connector-curvature="0"
         style="stroke:none" />
    </g>
    <g
       font-size="99"
       id="g172"
       style="font-size:99px;font-family:Arial;stroke-width:0.0625;shape-rendering:geometricPrecision;text-rendering:optimizeLegibility">
      <path
         d="m 1783.4938,906.57751 87.1256,-50.30346 c 1.6079,-0.92841 2.1586,-2.98358 1.2302,-4.59155 -0.9283,-1.60798 -2.9836,-2.15864 -4.5915,-1.23023 l -87.1257,50.30347 c -1.6079,0.9284 -2.1585,2.98358 -1.2302,4.59155 0.9284,1.60791 2.9835,2.15857 4.5916,1.23022 z"
         clip-path="url(#159347279752-clipPath1)"
         id="path174"
         inkscape:connector-curvature="0"
         style="stroke:none" />
    </g>
    <g
       font-size="99"
       id="g176"
       style="font-size:99px;font-family:Arial;stroke-width:0.0625;shape-rendering:geometricPrecision;text-rendering:optimizeLegibility">
      <path
         d="m 1872.2999,853.36316 0,-155.29327 c 0,-1.85676 -1.5045,-3.36127 -3.3612,-3.36127 -1.8567,0 -3.3612,1.50451 -3.3612,3.36127 l 0,155.29327 c 0,1.85669 1.5045,3.36121 3.3612,3.36121 1.8567,0 3.3612,-1.50452 3.3612,-3.36121 z"
         clip-path="url(#159347279752-clipPath1)"
         id="path178"
         inkscape:connector-curvature="0"
         style="stroke:none" />
    </g>
    <g
       font-size="99"
       id="g180"
       style="font-size:99px;font-family:Arial;stroke-width:0.0625;shape-rendering:geometricPrecision;text-rendering:optimizeLegibility">
      <path
         d="m 1867.2581,856.27405 134.484,77.6466 c 1.6079,0.92841 3.6631,0.37775 4.5915,-1.23022 0.9284,-1.60797 0.3777,-3.66315 -1.2302,-4.59149 l -134.484,-77.64667 c -1.608,-0.92841 -3.6632,-0.37775 -4.5916,1.23023 -0.9283,1.60797 -0.3777,3.66314 1.2303,4.59155 z"
         clip-path="url(#159347279752-clipPath1)"
         id="path182"
         inkscape:connector-curvature="0"
         style="stroke:none" />
    </g>
    <g
       font-size="99"
       id="g184"
       style="font-size:99px;font-family:Arial;stroke-width:0.0625;shape-rendering:geometricPrecision;text-rendering:optimizeLegibility">
      <path
         d="m 1868.9387,853.36316 1.0032,3.20801 112.5367,-25.50409 -3.7617,-12.03028 -3.7617,-12.03033 -107.0197,43.14862 z"
         clip-path="url(#159347279752-clipPath1)"
         id="path186"
         inkscape:connector-curvature="0"
         style="stroke:none" />
    </g>
    <g
       font-size="99"
       id="g188"
       style="font-size:99px;font-family:Arial;stroke-width:0.0625;shape-rendering:geometricPrecision;text-rendering:optimizeLegibility">
      <path
         d="m 2001.7421,617.51233 -134.484,77.64667 c -1.608,0.92834 -2.1586,2.98358 -1.2303,4.59149 0.9284,1.60797 2.9836,2.15863 4.5916,1.23022 l 134.484,-77.6466 c 1.6079,-0.92841 2.1586,-2.98359 1.2302,-4.59156 -0.9284,-1.60797 -2.9836,-2.15863 -4.5915,-1.23022 z"
         clip-path="url(#159347279752-clipPath1)"
         id="path190"
         inkscape:connector-curvature="0"
         style="stroke:none" />
    </g>
    <g
       font-size="99"
       id="g192"
       style="font-size:99px;font-family:Arial;stroke-width:0.0625;shape-rendering:geometricPrecision;text-rendering:optimizeLegibility">
      <path
         d="m 1864.5183,683.97327 0.505,6.72235 0,0 7.8279,-0.002 0,0 0.5026,-6.72253 0,0 -8.8355,0.002 z m -1.6416,-21.84772 0.505,6.72229 11.1027,-0.002 0,0 0.5025,-6.72253 -12.1102,0.002 z m -1.6416,-21.84778 0.505,6.72235 0,0 14.3775,-0.003 0.5025,-6.72253 0,0 -15.385,0.003 z m -1.6416,-21.84778 0.505,6.72235 0,0 17.6522,-0.003 0,0 0.5026,-6.72254 0,0 -18.6598,0.004 z m -1.6416,-21.84778 0.505,6.72236 20.927,-0.004 0,0 0.5026,-6.72254 -21.9346,0.004 z m -1.6416,-21.84771 0.505,6.72235 24.2018,-0.005 0,0 0.5026,-6.72254 0,0 -12.6048,0.002 -12.6046,0.002 z"
         clip-path="url(#159347279752-clipPath1)"
         id="path194"
         inkscape:connector-curvature="0"
         style="stroke:none" />
    </g>
    <g
       font-size="99"
       id="g196"
       style="font-size:99px;font-family:Arial;stroke-width:0.0625;shape-rendering:geometricPrecision;text-rendering:optimizeLegibility">
      <path
         d="m 2001.7421,623.33411 134.484,77.6466 c 1.6079,0.92841 3.6631,0.37775 4.5915,-1.23022 0.9282,-1.60791 0.3777,-3.66315 -1.2302,-4.59149 l -134.484,-77.64667 c -1.608,-0.92841 -3.6632,-0.37775 -4.5916,1.23022 -0.9283,1.60797 -0.3776,3.66315 1.2303,4.59156 z"
         clip-path="url(#159347279842-clipPath1)"
         id="path198"
         inkscape:connector-curvature="0"
         style="stroke:none" />
    </g>
    <g
       font-size="99"
       id="g200"
       style="font-size:99px;font-family:Arial;stroke-width:0.0625;shape-rendering:geometricPrecision;text-rendering:optimizeLegibility">
      <path
         d="m 2003.4227,620.42322 3.0371,1.44012 57.1506,-98.95013 -11.3892,-5.40051 -11.3892,-5.40058 -40.4464,106.87097 z"
         clip-path="url(#159347279752-clipPath1)"
         id="path202"
         inkscape:connector-curvature="0"
         style="stroke:none" />
    </g>
    <g
       font-size="99"
       id="g204"
       style="font-size:99px;font-family:Arial;stroke-width:0.0625;shape-rendering:geometricPrecision;text-rendering:optimizeLegibility">
      <path
         d="m 2005.1034,933.92065 134.484,-77.6466 c 1.6079,-0.92841 2.1584,-2.98358 1.2302,-4.59155 -0.9284,-1.60798 -2.9836,-2.15864 -4.5915,-1.23023 l -134.484,77.64667 c -1.6079,0.92834 -2.1586,2.98352 -1.2303,4.59149 0.9284,1.60797 2.9836,2.15863 4.5916,1.23022 z"
         clip-path="url(#159347279752-clipPath1)"
         id="path206"
         inkscape:connector-curvature="0"
         style="stroke:none" />
    </g>
    <g
       font-size="99"
       id="g208"
       style="font-size:99px;font-family:Arial;stroke-width:0.0625;shape-rendering:geometricPrecision;text-rendering:optimizeLegibility">
      <path
         d="m 2007.6263,939.77301 -0.6462,-6.72241 0,0 -7.1147,0 0,0 -0.6463,6.72241 0,0 8.4072,0 z m 2.1003,21.84808 -0.6463,-6.72241 -11.3153,0 0,0 -0.6462,6.72241 12.6078,0 z m 2.1003,21.84809 -0.6462,-6.72241 -15.5159,0 -0.6462,6.72241 16.8083,0 z m 2.1002,21.84812 -0.6462,-6.72245 0,0 -19.7164,0 -0.6462,6.72245 21.0088,0 z m 2.1004,21.848 -0.6463,-6.7224 0,0 -23.917,0 0,0 -0.6462,6.7224 12.6047,0 12.6048,0 z"
         clip-path="url(#159347279752-clipPath1)"
         id="path210"
         inkscape:connector-curvature="0"
         style="stroke:none" />
    </g>
    <g
       font-size="99"
       id="g212"
       style="font-size:99px;font-family:Arial;stroke-width:0.0625;shape-rendering:geometricPrecision;text-rendering:optimizeLegibility">
      <path
         d="m 2141.2678,853.36316 0,-155.29327 c 0,-1.85676 -1.5044,-3.36127 -3.3611,-3.36127 -1.8567,0 -3.3613,1.50451 -3.3613,3.36127 l 0,155.29327 c 0,1.85669 1.5046,3.36121 3.3613,3.36121 1.8567,0 3.3611,-1.50452 3.3611,-3.36121 z"
         clip-path="url(#159347279752-clipPath1)"
         id="path214"
         inkscape:connector-curvature="0"
         style="stroke:none" />
    </g>
    <g
       font-size="99"
       id="g216"
       style="font-size:99px;font-family:Arial;stroke-width:0.0625;shape-rendering:geometricPrecision;text-rendering:optimizeLegibility">
      <path
         d="m 2141.6953,851.50757 -2.1079,-1.05536 -1.6807,2.91095 -1.6806,2.91089 1.968,1.29797 0,0 3.5012,-6.06445 z m 19.5713,9.79767 -6.0217,-3.01465 -4.4016,7.6239 0,0 5.6215,3.7077 0,0 4.8018,-8.31695 z m 19.5713,9.79767 -6.0217,-3.01465 -5.7022,9.8764 5.6218,3.7077 0,0 6.1021,-10.56945 z m 19.5713,9.79766 -6.0217,-3.01464 -7.0027,12.1289 0,0 5.6218,3.7077 0,0 7.4026,-12.82196 z m 19.5713,9.79767 -6.0218,-3.01465 -8.3029,14.38141 0,0 5.6215,3.70771 0,0 8.7032,-15.07447 z m 19.5713,9.79767 -6.0218,-3.01465 -9.6035,16.63391 0,0 5.6218,3.70777 0,0 10.0035,-17.32703 z m 19.5712,9.79761 -6.0217,-3.01465 0,0 -10.904,18.88647 0,0 5.6218,3.70777 0,0 11.3039,-19.57959 z m 19.5713,9.79767 -6.0217,-3.01465 0,0 -12.2046,21.13898 0,0 5.6218,3.70776 6.3023,-10.91608 6.3022,-10.91601 z"
         clip-path="url(#159347279752-clipPath1)"
         id="path218"
         inkscape:connector-curvature="0"
         style="stroke:none" />
    </g>
    <g
       font-size="99"
       id="g220"
       style="font-size:99px;font-family:Arial;stroke-width:0.0625;shape-rendering:geometricPrecision;text-rendering:optimizeLegibility">
      <path
         d="m 2066.5076,521.13232 -33.8522,222.88343 c -0.2788,1.83563 0.9827,3.54901 2.8184,3.82782 1.8356,0.27881 3.5489,-0.98273 3.8277,-2.81842 l 33.8523,-222.88337 c 0.2788,-1.83569 -0.9827,-3.54901 -2.8184,-3.82782 -1.8356,-0.2788 -3.549,0.98273 -3.8278,2.81836 z"
         clip-path="url(#159347279752-clipPath1)"
         id="path222"
         inkscape:connector-curvature="0"
         style="stroke:none" />
    </g>
    <g
       font-size="99"
       id="g224"
       style="font-size:99px;font-family:Arial;stroke-width:0.0625;shape-rendering:geometricPrecision;text-rendering:optimizeLegibility">
      <path
         d="m 1046.7278,649.08307 c -1.608,0.9284 -2.1587,2.98358 -1.2302,4.59155 0.9283,1.60797 2.9835,2.15863 4.5914,1.23023 l 100.6518,-58.11304 c 1.6081,-0.92841 2.1587,-2.98358 1.2303,-4.59155 -0.9284,-1.60797 -2.9836,-2.15863 -4.5916,-1.23023 z m -2.9109,34.02453 c -1.608,0.92841 -2.1587,2.98359 -1.2302,4.59156 0.9283,1.60791 2.9835,2.15857 4.5914,1.23022 l 134.484,-77.64667 c 1.608,-0.92834 2.1587,-2.98358 1.2302,-4.59149 -0.9283,-1.60797 -2.9835,-2.15863 -4.5914,-1.23028 z"
         clip-path="url(#159347279752-clipPath1)"
         id="path226"
         inkscape:connector-curvature="0"
         style="stroke:none" />
    </g>
    <g
       font-size="99"
       id="g228"
       style="font-size:99px;font-family:Arial;stroke-width:0.0625;shape-rendering:geometricPrecision;text-rendering:optimizeLegibility">
      <path
         d="M 1047.1781,683.1076 912.69415,605.46094 c -1.60791,-0.92835 -3.66314,-0.37769 -4.59149,1.23028 -0.9284,1.60791 -0.37775,3.66315 1.23023,4.59149 l 134.48401,77.64667 c 1.6079,0.92835 3.6631,0.37769 4.5915,-1.23022 0.9284,-1.60797 0.3777,-3.66315 -1.2303,-4.59156 z"
         clip-path="url(#159347279752-clipPath1)"
         id="path230"
         inkscape:connector-curvature="0"
         style="stroke:none" />
    </g>
    <g
       font-size="99"
       id="g232"
       style="font-size:99px;font-family:Arial;stroke-width:0.0625;shape-rendering:geometricPrecision;text-rendering:optimizeLegibility">
      <path
         d="m 1042.1364,686.01849 0,96.15552 c 0,1.85675 1.5043,3.36127 3.3612,3.36127 1.8566,0 3.3612,-1.50452 3.3612,-3.36127 l 0,-96.15552 c 0,-1.85675 -1.5046,-3.3612 -3.3612,-3.3612 -1.8569,0 -3.3612,1.50445 -3.3612,3.3612 z"
         clip-path="url(#159347279752-clipPath1)"
         id="path234"
         inkscape:connector-curvature="0"
         style="stroke:none" />
    </g>
    <g
       font-size="99"
       id="g236"
       style="font-size:99px;font-family:Arial;stroke-width:0.0625;shape-rendering:geometricPrecision;text-rendering:optimizeLegibility">
      <path
         d="m 1183.3428,608.37183 0,-155.29328 c 0,-1.85672 -1.5045,-3.3612 -3.3614,-3.3612 -1.8566,0 -3.3612,1.50448 -3.3612,3.3612 l 0,155.29328 c 0,1.85675 1.5046,3.3612 3.3612,3.3612 1.8569,0 3.3614,-1.50445 3.3614,-3.3612 z"
         clip-path="url(#159347279752-clipPath1)"
         id="path238"
         inkscape:connector-curvature="0"
         style="stroke:none" />
    </g>
    <g
       font-size="99"
       id="g240"
       style="font-size:99px;font-family:Arial;stroke-width:0.0625;shape-rendering:geometricPrecision;text-rendering:optimizeLegibility">
      <path
         d="m 1147.3795,470.48038 c 1.608,0.92837 3.6632,0.37771 4.5916,-1.23026 0.9283,-1.60794 0.3777,-3.66314 -1.2303,-4.59152 L 1050.089,406.54553 c -1.6079,-0.92837 -3.6631,-0.37771 -4.5914,1.23026 -0.9285,1.60794 -0.3778,3.66314 1.2302,4.59152 z m 30.9214,-14.49094 c 1.6079,0.92838 3.6631,0.37772 4.5914,-1.23025 0.9285,-1.60794 0.3778,-3.66315 -1.2302,-4.59153 l -134.4839,-77.64663 c -1.608,-0.92838 -3.6632,-0.37772 -4.5915,1.23022 -0.9285,1.60797 -0.3778,3.66315 1.2302,4.59152 z"
         clip-path="url(#159347279752-clipPath1)"
         id="path242"
         inkscape:connector-curvature="0"
         style="stroke:none" />
    </g>
    <g
       font-size="99"
       id="g244"
       style="font-size:99px;font-family:Arial;stroke-width:0.0625;shape-rendering:geometricPrecision;text-rendering:optimizeLegibility">
      <path
         d="m 1043.8169,372.52103 -134.48401,77.64663 c -1.60798,0.92838 -2.15863,2.98359 -1.23023,4.59153 0.92835,1.60797 2.98358,2.15863 4.59149,1.23025 l 134.48395,-77.64667 c 1.608,-0.92837 2.1587,-2.98355 1.2303,-4.59152 -0.9284,-1.60794 -2.9836,-2.1586 -4.5915,-1.23022 z"
         clip-path="url(#159347279752-clipPath1)"
         id="path246"
         inkscape:connector-curvature="0"
         style="stroke:none" />
    </g>
    <g
       font-size="99"
       id="g248"
       style="font-size:99px;font-family:Arial;stroke-width:0.0625;shape-rendering:geometricPrecision;text-rendering:optimizeLegibility">
      <path
         d="m 942.38513,472.61136 c 0,-1.85672 -1.50445,-3.36124 -3.3612,-3.36124 -1.85669,0 -3.36121,1.50452 -3.36121,3.36124 l 0,116.22769 c 0,1.85669 1.50452,3.36121 3.36121,3.36121 1.85675,0 3.3612,-1.50452 3.3612,-3.36121 z m -28.01037,-19.53281 c 0,-1.85672 -1.50452,-3.36123 -3.36121,-3.36123 -1.85675,0 -3.36127,1.50451 -3.36127,3.36123 l 0,155.29328 c 0,1.85675 1.50452,3.3612 3.36127,3.3612 1.85669,0 3.36121,-1.50445 3.36121,-3.3612 z"
         clip-path="url(#159347279752-clipPath1)"
         id="path250"
         inkscape:connector-curvature="0"
         style="stroke:none" />
    </g>
    <g
       font-size="99"
       id="g252"
       style="font-size:99px;font-family:Arial;stroke-width:0.0625;shape-rendering:geometricPrecision;text-rendering:optimizeLegibility">
      <path
         d="m 912.69415,450.16766 -86.92541,-50.18789 c -1.60797,-0.92838 -3.66315,-0.37772 -4.59155,1.23022 -0.92835,1.60797 -0.37769,3.66315 1.23022,4.59152 l 86.92548,50.18793 c 1.60797,0.92838 3.66314,0.37772 4.59149,-1.23025 0.9284,-1.60794 0.37774,-3.66315 -1.23023,-4.59153 z"
         clip-path="url(#159347279752-clipPath1)"
         id="path254"
         inkscape:connector-curvature="0"
         style="stroke:none" />
    </g>
    <g
       font-size="99"
       id="g256"
       style="font-size:99px;font-family:Arial;stroke-width:0.0625;shape-rendering:geometricPrecision;text-rendering:optimizeLegibility">
      <path
         d="m 778.21021,688.92938 134.48394,-77.64667 c 1.60797,-0.92834 2.15863,-2.98358 1.23023,-4.59149 -0.92835,-1.60797 -2.98358,-2.15863 -4.59149,-1.23028 L 774.84888,683.1076 c -1.60797,0.92841 -2.15863,2.98359 -1.23023,4.59156 0.92841,1.60791 2.98358,2.15857 4.59156,1.23022 z"
         clip-path="url(#159347279752-clipPath1)"
         id="path258"
         inkscape:connector-curvature="0"
         style="stroke:none" />
    </g>
    <g
       font-size="99"
       id="g260"
       style="font-size:99px;font-family:Arial;stroke-width:0.0625;shape-rendering:geometricPrecision;text-rendering:optimizeLegibility">
      <path
         d="M 778.21021,683.1076 643.7262,605.46094 c -1.60797,-0.92835 -3.66315,-0.37769 -4.59156,1.23028 -0.92834,1.60791 -0.37768,3.66315 1.23023,4.59149 l 134.48401,77.64667 c 1.60797,0.92835 3.66314,0.37769 4.59155,-1.23022 0.92834,-1.60797 0.37769,-3.66315 -1.23022,-4.59156 z"
         clip-path="url(#159347279752-clipPath1)"
         id="path262"
         inkscape:connector-curvature="0"
         style="stroke:none" />
    </g>
    <g
       font-size="99"
       id="g264"
       style="font-size:99px;font-family:Arial;stroke-width:0.0625;shape-rendering:geometricPrecision;text-rendering:optimizeLegibility">
      <path
         d="m 793.89594,677.93231 c 0,-1.85669 -1.50446,-3.3612 -3.36121,-3.3612 -1.85669,0 -3.36121,1.50451 -3.36121,3.3612 l 0,104.2417 c 0,1.85675 1.50452,3.36127 3.36121,3.36127 1.85675,0 3.36121,-1.50452 3.36121,-3.36127 z m -28.01038,0 c 0,-1.85669 -1.50452,-3.3612 -3.36121,-3.3612 -1.85675,0 -3.36126,1.50451 -3.36126,3.3612 l 0,104.2417 c 0,1.85675 1.50451,3.36127 3.36126,3.36127 1.85669,0 3.36121,-1.50452 3.36121,-3.36127 z"
         clip-path="url(#159347279752-clipPath1)"
         id="path266"
         inkscape:connector-curvature="0"
         style="stroke:none" />
    </g>
    <g
       font-size="99"
       id="g268"
       style="font-size:99px;font-family:Arial;stroke-width:0.0625;shape-rendering:geometricPrecision;text-rendering:optimizeLegibility">
      <path
         d="m 727.29034,399.97977 -86.92547,50.18789 c -1.60791,0.92838 -2.15857,2.98359 -1.23023,4.59153 0.92841,1.60797 2.98359,2.15863 4.59156,1.23025 l 86.92541,-50.18793 c 1.60797,-0.92837 2.15863,-2.98355 1.23029,-4.59152 -0.92841,-1.60794 -2.98358,-2.1586 -4.59156,-1.23022 z"
         clip-path="url(#159347279752-clipPath1)"
         id="path270"
         inkscape:connector-curvature="0"
         style="stroke:none" />
    </g>
    <g
       font-size="99"
       id="g272"
       style="font-size:99px;font-family:Arial;stroke-width:0.0625;shape-rendering:geometricPrecision;text-rendering:optimizeLegibility">
      <path
         d="m 638.68433,453.07855 0,155.29328 c 0,1.85675 1.50451,3.3612 3.3612,3.3612 1.85675,0 3.36121,-1.50445 3.36121,-3.3612 l 0,-155.29328 c 0,-1.85672 -1.50446,-3.36123 -3.36121,-3.36123 -1.85669,0 -3.3612,1.50451 -3.3612,3.36123 z"
         clip-path="url(#159347279752-clipPath1)"
         id="path274"
         inkscape:connector-curvature="0"
         style="stroke:none" />
    </g>
    <g
       font-size="99"
       id="g276"
       style="font-size:99px;font-family:Arial;stroke-width:0.0625;shape-rendering:geometricPrecision;text-rendering:optimizeLegibility">
      <path
         d="M 643.7262,450.16766 509.24219,372.52103 c -1.60794,-0.92838 -3.66315,-0.37772 -4.59152,1.23022 -0.92838,1.60797 -0.37772,3.66315 1.23025,4.59152 l 134.48395,77.64667 c 1.60797,0.92838 3.66315,0.37772 4.59155,-1.23025 0.92841,-1.60794 0.37775,-3.66315 -1.23022,-4.59153 z"
         clip-path="url(#159347279752-clipPath1)"
         id="path278"
         inkscape:connector-curvature="0"
         style="stroke:none" />
    </g>
    <g
       font-size="99"
       id="g280"
       style="font-size:99px;font-family:Arial;stroke-width:0.0625;shape-rendering:geometricPrecision;text-rendering:optimizeLegibility">
      <path
         d="m 638.07654,439.38043 0.29931,6.72611 7.49122,0.0821 0,0 0.44659,-6.71796 0,0 -8.23712,-0.0902 z m -0.9729,-21.86004 0.29931,6.7261 0,0 9.91559,0.10861 0,0 0.4466,-6.71795 -10.6615,-0.11676 z m -0.9729,-21.86005 0.29931,6.7261 12.33997,0.13517 0,0 0.44665,-6.71793 0,0 -13.08593,-0.14334 z m -0.9729,-21.86005 0.29931,6.72611 0,0 14.76441,0.16174 0,0 0.44659,-6.71796 -15.51031,-0.16989 z m -0.9729,-21.86004 0.29931,6.72613 0,0 17.18878,0.18826 0,0 0.4466,-6.71795 -17.93469,-0.19644 z m -0.9729,-21.86005 0.29937,6.72614 19.6131,0.21481 0.4466,-6.71793 0,0 -20.35907,-0.22302 z m -0.9729,-21.86005 0.29937,6.72614 22.03754,0.24139 0,0 0.44659,-6.71795 -22.7835,-0.24958 z m -0.9729,-21.86004 0.29937,6.72613 0,0 24.46192,0.26795 0.44659,-6.71796 -12.60394,-0.13806 -12.60394,-0.13806 z"
         clip-path="url(#159347279752-clipPath1)"
         id="path282"
         inkscape:connector-curvature="0"
         style="stroke:none" />
    </g>
    <g
       font-size="99"
       id="g284"
       style="font-size:99px;font-family:Arial;stroke-width:0.0625;shape-rendering:geometricPrecision;text-rendering:optimizeLegibility">
      <path
         d="m 508.79178,649.08307 c -1.60794,0.9284 -2.1586,2.98358 -1.23023,4.59155 0.92838,1.60797 2.98359,2.15863 4.59153,1.23023 l 100.65179,-58.11304 c 1.60797,-0.92841 2.15863,-2.98358 1.23029,-4.59155 -0.92841,-1.60797 -2.98359,-2.15863 -4.59156,-1.23023 z m -2.91089,34.02453 c -1.60794,0.92841 -2.1586,2.98359 -1.23022,4.59156 0.92837,1.60791 2.98358,2.15857 4.59152,1.23022 L 643.7262,611.28271 c 1.60791,-0.92834 2.15863,-2.98358 1.23022,-4.59149 -0.9284,-1.60797 -2.98358,-2.15863 -4.59155,-1.23028 z"
         clip-path="url(#159347279752-clipPath1)"
         id="path286"
         inkscape:connector-curvature="0"
         style="stroke:none" />
    </g>
    <g
       font-size="99"
       id="g288"
       style="font-size:99px;font-family:Arial;stroke-width:0.0625;shape-rendering:geometricPrecision;text-rendering:optimizeLegibility">
      <path
         d="M 509.24219,683.1076 374.75821,605.46094 c -1.60797,-0.92835 -3.66315,-0.37769 -4.59152,1.23028 -0.92838,1.60791 -0.37772,3.66315 1.23022,4.59149 l 134.48398,77.64667 c 1.60797,0.92835 3.66315,0.37769 4.59155,-1.23022 0.92838,-1.60797 0.37772,-3.66315 -1.23025,-4.59156 z"
         clip-path="url(#159347279752-clipPath1)"
         id="path290"
         inkscape:connector-curvature="0"
         style="stroke:none" />
    </g>
    <g
       font-size="99"
       id="g292"
       style="font-size:99px;font-family:Arial;stroke-width:0.0625;shape-rendering:geometricPrecision;text-rendering:optimizeLegibility">
      <path
         d="m 504.20081,685.9624 -1.53354,91.89984 c -0.031,1.85645 1.44821,3.38587 3.30465,3.41681 1.85648,0.031 3.38587,-1.44818 3.41684,-3.30468 l 1.53354,-91.89979 c 0.031,-1.8565 -1.44821,-3.38586 -3.30469,-3.41687 -1.85644,-0.0309 -3.38583,1.44825 -3.4168,3.30469 z"
         clip-path="url(#159347279752-clipPath1)"
         id="path294"
         inkscape:connector-curvature="0"
         style="stroke:none" />
    </g>
    <g
       font-size="99"
       id="g296"
       style="font-size:99px;font-family:Arial;stroke-width:0.0625;shape-rendering:geometricPrecision;text-rendering:optimizeLegibility">
      <path
         d="m 505.88089,372.52103 -134.48398,77.64663 c -1.60794,0.92838 -2.1586,2.98359 -1.23022,4.59153 0.92837,1.60797 2.98355,2.15863 4.59152,1.23025 l 134.48398,-77.64667 c 1.60797,-0.92837 2.15863,-2.98355 1.23025,-4.59152 -0.9284,-1.60794 -2.98358,-2.1586 -4.59155,-1.23022 z"
         clip-path="url(#159347279752-clipPath1)"
         id="path298"
         inkscape:connector-curvature="0"
         style="stroke:none" />
    </g>
    <g
       font-size="99"
       id="g300"
       style="font-size:99px;font-family:Arial;stroke-width:0.0625;shape-rendering:geometricPrecision;text-rendering:optimizeLegibility">
      <path
         d="m 503.63733,373.33344 0.59018,2.52496 3.33404,-0.42648 3.33405,-0.42652 -0.0644,-2.59219 0,0 -7.19385,0.92023 z m -4.99866,-21.38666 1.53803,6.58047 0,0 10.27667,-1.3146 0,0 -0.16794,-6.75574 -11.64676,1.48987 z m -4.99869,-21.38669 1.53806,6.58047 0,0 14.72958,-1.88421 -0.1679,-6.75571 -16.09974,2.05945 z m -4.99868,-21.38666 1.53805,6.58045 0,0 19.18256,-2.4538 0,0 -0.16794,-6.75574 -20.55267,2.62909 z m -4.99869,-21.38669 1.53805,6.58048 23.6355,-3.02344 -0.16791,-6.75574 -12.5028,1.59934 -12.50284,1.59936 z"
         clip-path="url(#159347279752-clipPath1)"
         id="path302"
         inkscape:connector-curvature="0"
         style="stroke:none" />
    </g>
    <g
       font-size="99"
       id="g304"
       style="font-size:99px;font-family:Arial;stroke-width:0.0625;shape-rendering:geometricPrecision;text-rendering:optimizeLegibility">
      <path
         d="m 369.71634,453.07855 0,155.29328 c 0,1.85675 1.50449,3.3612 3.36121,3.3612 1.85672,0 3.36123,-1.50445 3.36123,-3.3612 l 0,-155.29328 c 0,-1.85672 -1.50451,-3.36123 -3.36123,-3.36123 -1.85672,0 -3.36121,1.50451 -3.36121,3.36123 z"
         clip-path="url(#159347279752-clipPath1)"
         id="path306"
         inkscape:connector-curvature="0"
         style="stroke:none" />
    </g>
    <g
       font-size="99"
       id="g308"
       style="font-size:99px;font-family:Arial;stroke-width:0.0625;shape-rendering:geometricPrecision;text-rendering:optimizeLegibility">
      <path
         d="m 373.07755,453.07855 1.6806,-2.91092 -129.86379,-85.6492 -6.30227,10.91605 -6.30228,10.91601 139.10716,69.63898 z"
         clip-path="url(#159347279752-clipPath1)"
         id="path310"
         inkscape:connector-curvature="0"
         style="stroke:none" />
    </g>
    <g
       font-size="99"
       id="g312"
       style="font-size:99px;font-family:Arial;stroke-width:0.0625;shape-rendering:geometricPrecision;text-rendering:optimizeLegibility">
      <path
         d="m 1178.265,611.26178 151.0213,89.698 c 1.5964,0.94812 3.6582,0.42291 4.6064,-1.17346 0.9481,-1.59638 0.4229,-3.65821 -1.1735,-4.60639 l -151.0212,-89.698 c -1.5964,-0.94818 -3.6582,-0.42291 -4.6064,1.17347 -0.9482,1.59637 -0.4229,3.6582 1.1734,4.60638 z"
         clip-path="url(#159347279752-clipPath1)"
         id="path314"
         inkscape:connector-curvature="0"
         style="stroke:none" />
    </g>
    <g
       font-size="10"
       transform="matrix(5.546067,0,0,5.546067,-846.84862,-559.03919)"
       id="g316"
       style="font-size:10px;font-family:sans-serif;fill:#ffffff;stroke:#ffffff;stroke-width:0.0625;shape-rendering:geometricPrecision;text-rendering:optimizeLegibility">
      <g
         clip-path="url(#159347279138-clipPath1)"
         style="stroke:none"
         id="text318">
        <path
           d="m 188.68394,133.97205 -1.16699,0 0,-1.39161 1.16699,0 0,1.39161 z"
           style="stroke:none"
           id="path3718" />
      </g>
    </g>
    <g
       font-size="10"
       transform="matrix(5.546067,0,0,5.546067,-10588.155,-4913.976)"
       id="g320"
       style="font-size:10px;font-family:sans-serif;fill:#ffffff;stroke:#ffffff;stroke-width:0.0625;shape-rendering:geometricPrecision;text-rendering:optimizeLegibility">
      <g
         clip-path="url(#159347279484-clipPath1)"
         style="stroke:none"
         id="text322">
        <path
           d="m 2331.4827,1091.9291 -1.167,0 0,-1.3916 1.167,0 0,1.3916 z"
           style="stroke:none"
           id="path3721" />
      </g>
    </g>
  </g>
</svg>
