<?xml version="1.0" encoding="iso-8859-1"?>
<!-- Generator: Adobe Illustrator 16.0.0, SVG Export Plug-In . SVG Version: 6.00 Build 0)  -->
<!DOCTYPE svg PUBLIC "-//W3C//DTD SVG 1.1//EN" "http://www.w3.org/Graphics/SVG/1.1/DTD/svg11.dtd">
<svg version="1.1" id="Capa_1" xmlns="http://www.w3.org/2000/svg" xmlns:xlink="http://www.w3.org/1999/xlink" x="0px" y="0px"
	 width="249.308px" height="249.308px" viewBox="0 0 249.308 249.308" style="enable-background:new 0 0 249.308 249.308; fill:#2f2e2f;"
	 xml:space="preserve">
<g>
	<path d="M240.254,115.602c-0.707,0-1.389,0.101-2.034,0.25v-4.296c0-0.923-0.512-1.77-1.334-2.208
		c-0.821-0.429-1.808-0.386-2.563,0.138l-14.541,9.852c-1.107,0.755-1.881,1.721-2.338,2.801h-46.46
		c-0.451-1.081-1.218-2.058-2.339-2.801l-2.398-1.641v-15.369c5.711,8.014,15.978,12.814,28.972,12.814
		c15.247,0,27.657-12.409,27.657-27.672c0-12.477-10.15-22.627-22.627-22.627c-2.192,0-4.251,0.442-6.199,1.145
		c1.681-4.071,2.606-8.528,2.606-13.192c0-1.392-1.12-2.493-2.484-2.493c-1.352,0-2.49,1.12-2.49,2.493
		c0,16.547-13.47,30.022-30.026,30.022c-12.97,0-23.528-10.537-23.528-23.52c0-7.657,4.72-14.196,11.399-16.955
		c-0.037,0.244-0.146,0.457-0.146,0.713c0,3.885,3.154,7.026,7.039,7.026c3.873,0,7.015-3.142,7.015-7.026
		c0-3.48-2.558-6.217-5.846-6.79c-0.341-0.176-0.712-0.307-1.12-0.307c-12.86,0-23.334,10.47-23.334,23.322
		c0,15.6,12.604,28.274,28.169,28.476v26.549l-7.149-4.838c-0.755-0.523-1.753-0.572-2.557-0.131
		c-0.049,0.024-0.073,0.082-0.11,0.106c-5.327-9.304-15.21-15.664-26.673-15.664c-11.765,0-21.897,6.691-27.097,16.419
		c0-0.018,0-0.018,0-0.018c-0.807-0.42-1.802-0.387-2.569,0.137L88,115.148V87.738c15.558-0.201,28.172-12.888,28.172-28.491
		c0-12.854-10.471-23.306-23.322-23.306c-0.393,0-0.767,0.125-1.096,0.28c-3.361,0.536-5.967,3.312-5.967,6.829
		c0,3.885,3.142,7.027,7.015,7.027c3.885,0,7.026-3.142,7.026-7.027c0-0.268-0.131-0.5-0.143-0.761
		c6.729,2.731,11.508,9.265,11.508,16.974c0,12.979-10.556,23.538-23.532,23.538c-16.553,0-30.028-13.475-30.028-30.044
		c0-1.376-1.124-2.487-2.488-2.487c-1.379,0-2.487,1.129-2.487,2.487c0,4.698,0.929,9.155,2.612,13.232
		c-1.945-0.691-4.022-1.157-6.199-1.157c-12.477,0-22.633,10.163-22.633,22.646c0,15.238,12.4,27.666,27.666,27.666
		c12.994,0,23.251-4.801,28.969-12.814v16.237l-2.396,1.623c-0.822,0.548-1.428,1.215-1.918,1.958H31.432
		c-0.46-0.743-1.096-1.428-1.906-1.958l-14.541-9.852c-0.768-0.524-1.76-0.576-2.57-0.131c-0.816,0.423-1.328,1.279-1.328,2.208
		v3.446c-0.648-0.137-1.336-0.25-2.04-0.25c-4.993,0-9.048,4.05-9.048,9.049c0,4.996,4.055,9.052,9.048,9.052
		c0.703,0,1.391-0.116,2.04-0.256v4.293c0,0.919,0.512,1.76,1.328,2.21c0.375,0.177,0.767,0.292,1.172,0.292
		c0.487,0,0.974-0.134,1.403-0.426l14.541-9.853c1.108-0.755,1.875-1.726,2.332-2.801h46.463c0.451,1.075,1.23,2.058,2.338,2.801
		l2.396,1.62v15.393c-5.706-8.013-15.975-12.811-28.969-12.811c-15.247,0-27.672,12.409-27.672,27.669
		c0,6.059,2.357,11.745,6.622,16.002c4.278,4.263,9.956,6.625,15.975,6.625c0.006,0,0.018,0,0.024,0
		c2.183,0,4.253-0.444,6.192-1.145c-1.678,4.079-2.606,8.524-2.606,13.201c0,1.388,1.126,2.484,2.487,2.484
		c1.376,0,2.487-1.12,2.487-2.484c0-16.55,13.476-30.032,30.023-30.032c12.982,0,23.537,10.547,23.537,23.529
		c0,7.66-4.725,14.188-11.398,16.952c0.027-0.256,0.137-0.463,0.137-0.719c0-3.873-3.148-7.015-7.027-7.015
		c-3.875,0-7.027,3.142-7.027,7.015c0,3.465,2.551,6.211,5.849,6.783c0.344,0.183,0.707,0.311,1.136,0.311
		c12.857,0,23.321-10.468,23.321-23.321c0-15.601-12.602-28.271-28.178-28.467V135l7.146,4.84c0.417,0.281,0.91,0.421,1.416,0.421
		c0.387,0,0.804-0.098,1.172-0.292c0.131-0.073,0.192-0.195,0.304-0.293c5.301,9.402,15.244,15.844,26.792,15.844
		c11.737,0,21.833-6.661,27.045-16.33c0.298,0.127,0.597,0.23,0.913,0.23c0.487,0,0.968-0.146,1.4-0.438l7.148-4.829v27.407
		c-15.563,0.207-28.181,12.885-28.181,28.484c0,12.861,10.474,23.322,23.321,23.322c0.408,0,0.792-0.135,1.146-0.305
		c3.337-0.548,5.931-3.312,5.931-6.82c0-3.872-3.143-7.014-7.027-7.014c-3.872,0-7.015,3.142-7.015,7.014
		c0,0.28,0.128,0.512,0.141,0.779c-6.735-2.721-11.515-9.279-11.515-16.994c0-12.964,10.546-23.522,23.528-23.522
		c16.562,0,30.025,13.47,30.025,30.025c0,1.382,1.127,2.491,2.49,2.491c1.37,0,2.491-1.121,2.491-2.491
		c0-4.677-0.932-9.134-2.619-13.22c1.942,0.688,4.025,1.145,6.211,1.145c0,0,0.013,0,0.024,0c6.028,0,11.691-2.35,15.973-6.612
		c4.286-4.286,6.631-9.968,6.631-16.015c0-15.247-12.404-27.663-27.663-27.663c-12.994,0-23.255,4.792-28.973,12.806v-16.215
		l2.399-1.642c0.804-0.548,1.431-1.208,1.912-1.951h47.318c0.469,0.743,1.097,1.422,1.912,1.951l14.541,9.843
		c0.408,0.293,0.907,0.427,1.406,0.427c0.396,0,0.805-0.098,1.176-0.292c0.815-0.427,1.327-1.279,1.327-2.205v-3.446
		c0.651,0.141,1.346,0.256,2.046,0.256c4.993,0,9.036-4.056,9.036-9.051C249.302,119.645,245.246,115.602,240.254,115.602z
		 M217.876,87.482c0,12.507-10.163,22.676-22.67,22.676c-12.982,0-28.034-5.998-28.887-22.688
		c5.735-0.779,11.027-2.938,15.521-6.138c-0.085,0.706-0.2,1.403-0.2,2.134c0,8.474,6.887,15.381,15.381,15.381
		c0.463,0,0.871-0.143,1.242-0.38c3.087-0.484,5.492-3.054,5.492-6.284c0-3.58-2.898-6.479-6.479-6.479
		c-3.446,0-6.187,2.706-6.406,6.092c-2.558-1.909-4.237-4.92-4.237-8.33c0-7.514,6.101-13.618,13.608-13.618
		C209.966,69.848,217.876,77.755,217.876,87.482z M53.98,110.159c-12.501,0-22.667-10.163-22.667-22.664
		c0-9.733,7.913-17.646,17.64-17.646c7.501,0,13.606,6.104,13.606,13.618c0,3.398-1.671,6.391-4.201,8.294
		c-0.125-3.486-2.932-6.281-6.442-6.281c-3.578,0-6.479,2.907-6.479,6.485c0,3.069,2.171,5.52,5.033,6.193
		c0.447,0.417,1.047,0.685,1.696,0.685c8.479,0,15.387-6.901,15.387-15.393c0-0.731-0.131-1.428-0.204-2.146
		c4.515,3.218,9.789,5.359,15.524,6.138C82.033,104.155,66.975,110.159,53.98,110.159z M48.929,179.438
		c-4.701,0-9.122-1.827-12.446-5.151c-3.334-3.325-5.169-7.758-5.169-12.483c0-12.495,10.166-22.663,22.667-22.663
		c12.988,0,28.041,6.004,28.893,22.688c-5.736,0.779-11.03,2.93-15.524,6.126c0.088-0.694,0.204-1.413,0.204-2.119
		c0-8.476-6.89-15.381-15.387-15.381c-0.457,0-0.862,0.134-1.221,0.365c-3.093,0.487-5.508,3.044-5.508,6.284
		c0,3.58,2.901,6.49,6.479,6.49c3.449,0,6.18-2.703,6.402-6.089c2.558,1.899,4.241,4.908,4.241,8.33
		c0,7.502-6.104,13.604-13.606,13.604C48.941,179.438,48.935,179.438,48.929,179.438z M195.206,139.14
		c12.507,0,22.67,10.168,22.67,22.663c0,4.726-1.833,9.158-5.17,12.495c-3.324,3.312-7.745,5.14-12.446,5.14
		c-0.006,0-0.012,0-0.019,0c-7.508,0-13.608-6.102-13.608-13.604c0-3.41,1.668-6.405,4.201-8.306
		c0.109,3.495,2.929,6.284,6.442,6.284c3.58,0,6.479-2.898,6.479-6.479c0-3.068-2.174-5.516-5.023-6.198
		c-0.444-0.42-1.047-0.688-1.711-0.688c-8.477,0-15.381,6.899-15.381,15.394c0,0.731,0.128,1.431,0.213,2.149
		c-4.524-3.221-9.798-5.358-15.533-6.138C167.159,145.144,182.212,139.14,195.206,139.14z M149.823,122.157H99.686
		c2.618-4.676,12.139-9.061,25.072-9.061C137.688,113.09,147.205,117.48,149.823,122.157z M99.686,127.144h50.144
		c-2.612,4.664-12.142,9.061-25.072,9.061C111.824,136.21,102.292,131.808,99.686,127.144z M124.757,98.799
		c10.397,0,19.342,6.211,23.44,15.101c-5.614-3.528-13.901-5.797-23.44-5.797c-9.542,0-17.82,2.25-23.446,5.797
		C105.415,105.01,114.345,98.799,124.757,98.799z M124.757,150.501c-10.4,0-19.348-6.211-23.434-15.088
		c5.602,3.52,13.898,5.784,23.434,5.784c9.533,0,17.801-2.241,23.428-5.784C144.088,144.279,135.154,150.501,124.757,150.501z"/>
</g>
<g>
</g>
<g>
</g>
<g>
</g>
<g>
</g>
<g>
</g>
<g>
</g>
<g>
</g>
<g>
</g>
<g>
</g>
<g>
</g>
<g>
</g>
<g>
</g>
<g>
</g>
<g>
</g>
<g>
</g>
</svg>
