<?xml version="1.0" encoding="utf-8"?>
<!-- Generator: Adobe Illustrator 16.0.1, SVG Export Plug-In . SVG Version: 6.00 Build 0)  -->
<!DOCTYPE svg PUBLIC "-//W3C//DTD SVG 1.1//EN" "http://www.w3.org/Graphics/SVG/1.1/DTD/svg11.dtd">
<svg version="1.1" id="Layer_1" xmlns="http://www.w3.org/2000/svg" xmlns:xlink="http://www.w3.org/1999/xlink" x="0px" y="0px"
	 width="460px" height="400px" viewBox="0 0 460 400" enable-background="new 0 0 460 400" xml:space="preserve">
<line fill="none" stroke="#000000" stroke-width="0.25" x1="459.712" y1="-0.001" x2="0" y2="-0.001"/>
<g>
	<line fill="none" stroke="#000000" stroke-width="0.25" x1="460" y1="43.443" x2="0.289" y2="43.443"/>
</g>
<g>
	<line fill="none" stroke="#000000" stroke-width="0.25" x1="460" y1="399.002" x2="0.289" y2="399.002"/>
</g>
<g>
	<path fill="#0069B4" d="M0.465,16.263l1.247-0.307V7.555L0.465,7.248V5.496h10.497l0.163,3.794H9.119l-0.65-1.789H5.307v3.18h1.138
		l0.307-1.174h1.626v4.282H6.752l-0.307-1.21H5.307v3.433h3.234l0.849-2.204h2.042l-0.181,4.209H0.465V16.263z"/>
	<path fill="#0069B4" d="M12.785,14.023V7.555l-1.156-0.307V5.496h5.962v1.752l-1.138,0.289v6.233c0,1.68,0.831,2.276,2.168,2.276
		c1.355,0,2.114-0.596,2.114-2.276V7.537l-1.156-0.289V5.496h4.607v1.752l-1.102,0.307v6.233c0,2.583-1.337,4.444-4.95,4.444
		C14.411,18.232,12.785,16.606,12.785,14.023z"/>
	<path fill="#0069B4" d="M27.796,10.265l-0.795-0.253V8.368h5.095v1.644l-0.831,0.199l1.518,4.553h0.072l1.518-4.553l-0.867-0.199
		V8.368h4.065v1.644l-0.777,0.253l-2.927,7.75h-3.125L27.796,10.265z"/>
	<path fill="#0069B4" d="M37.677,13.264c0-3.324,2.204-5.095,4.986-5.095c3.234,0,5.004,1.807,5.004,4.968
		c0,3.306-2.222,5.113-4.986,5.113C39.466,18.25,37.677,16.317,37.677,13.264z M44.163,13.264c0-2.493-0.614-3.125-1.518-3.125
		c-0.885,0-1.481,0.56-1.481,2.999c0,2.493,0.614,3.125,1.536,3.125C43.585,16.263,44.163,15.631,44.163,13.264z"/>
	<path fill="#0069B4" d="M48.841,15.541v-5.203h-1.03v-1.5L49.13,8.35l0.416-2.24h2.602v2.258h1.951v1.969h-1.951v4.661
		c0,0.849,0.379,1.102,1.174,1.102c0.307,0,0.632-0.054,0.885-0.126v1.716c-0.434,0.271-1.265,0.524-2.331,0.524
		C49.943,18.214,48.841,17.582,48.841,15.541z"/>
	<path fill="#0069B4" d="M54.531,16.372l1.048-0.253v-5.546l-1.138-0.289v-1.68l4.137-0.416l0.307,0.126v7.805l0.976,0.253v1.644
		h-5.33V16.372z M55.308,5.965c0-0.994,0.831-1.608,1.825-1.608c1.012,0,1.825,0.614,1.825,1.608c0,1.012-0.813,1.626-1.825,1.626
		C56.139,7.591,55.308,6.977,55.308,5.965z"/>
	<path fill="#0069B4" d="M59.987,16.372l1.048-0.253v-5.546l-1.102-0.289v-1.68l3.993-0.416l0.271,0.126v1.03h0.108
		c0.921-0.705,1.843-1.174,3.18-1.174c1.481,0,2.511,0.668,2.511,2.385v5.564l0.958,0.253v1.644h-5.041v-1.644l0.777-0.199V11.71
		c0-0.777-0.361-1.03-1.138-1.03c-0.47,0-0.831,0.108-1.21,0.235v5.257l0.759,0.199v1.644h-5.113V16.372z"/>
	<path fill="#0069B4" d="M70.861,19.497c0-1.066,0.958-1.662,2.023-1.951v-0.09c-0.849-0.253-1.247-0.777-1.247-1.554
		s0.596-1.536,1.373-2.042c-0.885-0.488-1.481-1.319-1.481-2.439c0-2.096,1.734-3.252,4.264-3.252c0.795,0,1.463,0.108,2.023,0.307
		l3.089-0.434v1.951L79.605,9.94c0.253,0.379,0.416,0.777,0.416,1.283c0,2.096-1.68,3.252-4.246,3.252
		c-0.488,0-0.921-0.036-1.337-0.126c-0.145,0.163-0.217,0.379-0.217,0.542c0,0.235,0.163,0.488,0.668,0.488h3.125
		c1.68,0,2.981,0.723,2.981,2.638c0,2.005-1.608,3.686-5.564,3.686C72.361,21.701,70.861,20.78,70.861,19.497z M77.961,18.756
		c0-0.524-0.307-0.687-1.138-0.687h-2.276c-0.379,0.163-0.614,0.434-0.614,0.885c0,0.524,0.47,0.903,1.752,0.903
		C77.365,19.858,77.961,19.353,77.961,18.756z M76.932,11.349c0-1.265-0.506-1.554-1.156-1.554c-0.632,0-1.12,0.361-1.12,1.5
		c0,1.192,0.488,1.572,1.12,1.572C76.426,12.867,76.932,12.487,76.932,11.349z"/>
	<path fill="#0069B4" d="M84.843,15.541v-5.203h-1.03v-1.5l1.319-0.488l0.416-2.24h2.602v2.258h1.951v1.969h-1.951v4.661
		c0,0.849,0.379,1.102,1.174,1.102c0.307,0,0.632-0.054,0.885-0.126v1.716c-0.434,0.271-1.265,0.524-2.331,0.524
		C85.945,18.214,84.843,17.582,84.843,15.541z"/>
	<path fill="#0069B4" d="M91.418,15.559v-5.022l-1.012-0.307V8.567l4.047-0.379l0.271,0.145v6.269c0,0.795,0.271,1.138,1.084,1.138
		c0.614,0,0.958-0.145,1.283-0.271v-4.932l-0.958-0.307V8.567l3.975-0.379l0.289,0.145v7.498l1.048,0.289v1.644l-3.938,0.434
		l-0.289-0.126v-1.048h-0.108c-0.65,0.65-1.554,1.21-2.909,1.21C92.213,18.232,91.418,17.239,91.418,15.559z"/>
	<path fill="#0069B4" d="M101.625,16.372l1.048-0.253v-5.546l-1.102-0.289v-1.68l3.993-0.416l0.271,0.126v1.445h0.108
		c0.524-0.867,1.337-1.554,2.439-1.554c0.163,0,0.361,0.018,0.488,0.054v2.927c-0.199-0.054-0.542-0.09-0.849-0.09
		c-0.885,0-1.5,0.108-2.042,0.361v4.661l1.355,0.253v1.644h-5.709V16.372z"/>
	<path fill="#0069B4" d="M108.977,16.372l1.048-0.253v-5.546l-1.102-0.289v-1.68l3.993-0.416l0.271,0.126v1.03h0.108
		c0.921-0.705,1.843-1.174,3.18-1.174c1.481,0,2.511,0.668,2.511,2.385v5.564l0.958,0.253v1.644h-5.041v-1.644l0.777-0.199V11.71
		c0-0.777-0.361-1.03-1.138-1.03c-0.47,0-0.831,0.108-1.21,0.235v5.257l0.759,0.199v1.644h-5.113V16.372z"/>
	<path fill="#0069B4" d="M120.141,13.264c0-3.324,2.204-5.095,4.986-5.095c3.234,0,5.004,1.807,5.004,4.968
		c0,3.306-2.222,5.113-4.986,5.113C121.93,18.25,120.141,16.317,120.141,13.264z M126.627,13.264c0-2.493-0.614-3.125-1.518-3.125
		c-0.885,0-1.481,0.56-1.481,2.999c0,2.493,0.614,3.125,1.536,3.125C126.049,16.263,126.627,15.631,126.627,13.264z"/>
	<path fill="#0069B4" d="M131.232,15.559v-5.022l-1.012-0.307V8.567l4.047-0.379l0.271,0.145v6.269c0,0.795,0.271,1.138,1.084,1.138
		c0.614,0,0.958-0.145,1.283-0.271v-4.932l-0.958-0.307V8.567l3.975-0.379l0.289,0.145v7.498l1.048,0.289v1.644l-3.938,0.434
		l-0.289-0.126v-1.048h-0.108c-0.65,0.65-1.554,1.21-2.909,1.21C132.027,18.232,131.232,17.239,131.232,15.559z"/>
	<path fill="#0069B4" d="M142.415,15.541v-5.203h-1.03v-1.5l1.319-0.488l0.416-2.24h2.602v2.258h1.951v1.969h-1.951v4.661
		c0,0.849,0.379,1.102,1.174,1.102c0.307,0,0.632-0.054,0.885-0.126v1.716c-0.434,0.271-1.265,0.524-2.331,0.524
		C143.517,18.214,142.415,17.582,142.415,15.541z"/>
</g>
<g>
	<g>
		<path fill="#575756" d="M2.475,60.167l1.32-0.285v-8.67h-1.83L1.5,53.477H0.345l0.165-3.315h8.7l0.165,3.315h-1.14l-0.48-2.265
			h-1.83v8.67l1.32,0.285v0.81h-4.77V60.167z"/>
		<path fill="#575756" d="M9.6,56.972c0-2.64,1.755-4.275,3.945-4.275c2.46,0,3.99,1.59,3.99,4.2c0,2.625-1.77,4.29-3.945,4.29
			C11.13,61.187,9.6,59.521,9.6,56.972z M15.48,57.002c0-2.52-0.93-3.285-1.95-3.285s-1.89,0.69-1.89,3.135
			c0,2.52,0.93,3.285,1.965,3.285C14.595,60.137,15.48,59.432,15.48,57.002z"/>
		<path fill="#575756" d="M19.275,59.057v-5.145h-1.14v-0.75l1.14-0.39v-1.83h1.935v1.905h2.085v1.065h-2.085v4.785
			c0,0.915,0.27,1.23,1.23,1.23c0.375,0,0.69-0.045,0.96-0.105v0.795c-0.465,0.285-1.14,0.51-1.89,0.51
			C20.055,61.126,19.275,60.617,19.275,59.057z"/>
		<path fill="#575756" d="M25.935,53.762l-0.24,1.305h-1.17v-1.935c0.66-0.255,1.92-0.435,3.06-0.435c1.845,0,2.7,0.795,2.7,2.49
			v4.41c0,0.465,0.255,0.57,0.66,0.57h0.375v0.69c-0.225,0.12-0.84,0.285-1.44,0.285c-0.705,0-1.17-0.3-1.32-0.96h-0.105
			c-0.405,0.48-1.125,1.005-2.145,1.005c-1.44,0-2.415-0.885-2.415-2.22c0-1.485,1.035-1.935,2.64-2.25l1.8-0.36v-0.735
			c0-1.095-0.24-1.905-1.695-1.905C26.415,53.717,26.174,53.732,25.935,53.762z M28.334,59.552v-2.28l-1.26,0.09
			c-0.915,0.06-1.23,0.495-1.23,1.35c0,0.93,0.375,1.395,1.23,1.395C27.599,60.106,28.034,59.852,28.334,59.552z"/>
		<path fill="#575756" d="M31.56,60.271l1.065-0.255v-9.615l-1.155-0.27v-0.765l2.895-0.36l0.195,0.105v10.905l1.05,0.255v0.705
			h-4.05V60.271z"/>
		<path fill="#575756" d="M39.494,60.167l1.26-0.285v-8.64l-1.245-0.27v-0.81h8.325l0.15,2.835h-1.11l-0.54-1.8h-3.48v3.735h1.65
			l0.36-1.365h0.9v3.75h-0.9l-0.36-1.41h-1.65v4.035h3.66l0.66-2.19h1.11l-0.18,3.225h-8.61V60.167z"/>
		<path fill="#575756" d="M49.949,57.617v-6.375l-1.215-0.27v-0.81h4.575v0.81l-1.215,0.255v6.15c0,1.74,0.735,2.595,2.385,2.595
			c1.68,0,2.43-0.855,2.43-2.595v-6.135l-1.23-0.255v-0.825h3.584v0.81l-1.08,0.27v6.225c0,2.235-1.335,3.72-4.05,3.72
			C51.284,61.187,49.949,59.776,49.949,57.617z"/>
		<path fill="#575756" d="M64.094,59.057v-5.145h-1.14v-0.75l1.14-0.39v-1.83h1.935v1.905h2.085v1.065h-2.085v4.785
			c0,0.915,0.27,1.23,1.23,1.23c0.375,0,0.69-0.045,0.96-0.105v0.795c-0.465,0.285-1.14,0.51-1.89,0.51
			C64.874,61.126,64.094,60.617,64.094,59.057z"/>
		<path fill="#575756" d="M69.704,58.802v-4.785l-1.065-0.255v-0.75l2.82-0.285l0.18,0.105v5.52c0,0.975,0.285,1.425,1.32,1.425
			c0.795,0,1.23-0.21,1.62-0.375v-5.385l-1.005-0.255v-0.75l2.745-0.285l0.21,0.105v6.975l1.065,0.24v0.72l-2.729,0.36l-0.195-0.09
			v-0.945h-0.09c-0.6,0.57-1.455,1.05-2.565,1.05C70.379,61.142,69.704,60.257,69.704,58.802z"/>
		<path fill="#575756" d="M78.149,60.271l1.065-0.255v-5.91l-1.08-0.255v-0.765l2.73-0.375l0.195,0.105v1.17h0.09
			c0.45-0.615,1.17-1.275,2.055-1.275c0.15,0,0.345,0.015,0.42,0.045v1.74c-0.18-0.045-0.465-0.06-0.645-0.06
			c-0.75,0-1.335,0.075-1.83,0.36v5.22l1.23,0.255v0.705h-4.23V60.271z"/>
		<path fill="#575756" d="M84.089,60.271l1.065-0.255v-5.91l-1.08-0.255v-0.765l2.73-0.375l0.195,0.105v0.84h0.09
			c0.78-0.495,1.665-0.96,2.685-0.96c1.38,0,2.19,0.63,2.19,2.1v5.22l1.035,0.255v0.705h-3.945v-0.705l0.96-0.225v-4.635
			c0-0.975-0.465-1.29-1.395-1.29c-0.555,0-1.05,0.135-1.53,0.285v5.64l0.945,0.225v0.705h-3.945V60.271z"/>
		<path fill="#575756" d="M93.613,56.972c0-2.64,1.755-4.275,3.945-4.275c2.46,0,3.99,1.59,3.99,4.2c0,2.625-1.77,4.29-3.945,4.29
			C95.143,61.187,93.613,59.521,93.613,56.972z M99.493,57.002c0-2.52-0.93-3.285-1.95-3.285s-1.89,0.69-1.89,3.135
			c0,2.52,0.93,3.285,1.965,3.285C98.608,60.137,99.493,59.432,99.493,57.002z"/>
		<path fill="#575756" d="M103.138,58.802v-4.785l-1.065-0.255v-0.75l2.82-0.285l0.18,0.105v5.52c0,0.975,0.285,1.425,1.32,1.425
			c0.795,0,1.23-0.21,1.62-0.375v-5.385l-1.005-0.255v-0.75l2.745-0.285l0.21,0.105v6.975l1.065,0.24v0.72l-2.729,0.36l-0.195-0.09
			v-0.945h-0.09c-0.6,0.57-1.455,1.05-2.565,1.05C103.813,61.142,103.138,60.257,103.138,58.802z"/>
		<path fill="#575756" d="M112.678,59.057v-5.145h-1.14v-0.75l1.14-0.39v-1.83h1.935v1.905h2.085v1.065h-2.085v4.785
			c0,0.915,0.27,1.23,1.23,1.23c0.375,0,0.69-0.045,0.96-0.105v0.795c-0.465,0.285-1.14,0.51-1.89,0.51
			C113.458,61.126,112.678,60.617,112.678,59.057z"/>
		<path fill="#575756" d="M119.488,60.722c-0.12,0.06-0.255,0.105-0.435,0.105c-0.57,0-0.975-0.435-0.975-1.05
			c0-0.615,0.495-1.05,1.17-1.05c0.78,0,1.455,0.57,1.455,1.65c0,1.08-0.555,2.385-2.85,3.135l-0.27-0.6
			C118.783,62.207,119.413,61.622,119.488,60.722z"/>
		<path fill="#575756" d="M125.338,53.807c0-1.92,1.245-2.834,2.61-2.834c1.35,0,2.625,0.9,2.625,2.76
			c0,1.875-1.23,2.805-2.625,2.805C126.538,56.537,125.338,55.637,125.338,53.807z M128.968,53.807c0-1.32-0.255-2.055-1.02-2.055
			c-0.765,0-1.02,0.69-1.02,1.98c0,1.305,0.255,2.025,1.02,2.025C128.698,55.757,128.968,55.112,128.968,53.807z M134.592,50.852
			h1.17l-7.169,10.62h-1.17L134.592,50.852z M132.717,58.382c0-1.92,1.26-2.82,2.625-2.82c1.335,0,2.61,0.885,2.61,2.76
			s-1.23,2.805-2.625,2.805C133.917,61.126,132.717,60.227,132.717,58.382z M136.347,58.382c0-1.305-0.24-2.055-1.005-2.055
			c-0.78,0-1.035,0.705-1.035,1.995s0.255,2.025,1.02,2.025C136.092,60.347,136.347,59.717,136.347,58.382z"/>
	</g>
</g>
<g>
	<g>
		<path fill="#575756" d="M197.58,54.102l-0.33,1.605h-1.17v-2.16c0.87-0.345,1.92-0.57,3.105-0.57c2.07,0,3.33,0.99,3.33,2.715
			c0,1.695-1.245,2.685-3.405,4.245l-1.335,0.96v0.03h4.935l-0.135,1.485h-6.825v-1.065l2.43-2.1c1.365-1.185,2.1-2.19,2.1-3.33
			c0-1.065-0.495-1.905-1.845-1.905C198.12,54.012,197.85,54.042,197.58,54.102z M197.01,54.251c-0.3,0.105-0.555,0.225-0.78,0.345
			L197.01,54.251z"/>
		<path fill="#575756" d="M203.7,57.852c0-3.39,2.01-4.875,4.17-4.875c2.205,0,4.155,1.425,4.155,4.77
			c0,3.375-1.935,4.845-4.155,4.845C205.575,62.591,203.7,61.151,203.7,57.852z M209.895,57.866c0-2.745-0.69-3.84-2.04-3.84
			c-1.32,0-2.04,1.095-2.04,3.72c0,2.745,0.72,3.81,2.07,3.81C209.189,61.556,209.895,60.551,209.895,57.866z"/>
		<path fill="#575756" d="M213.045,57.852c0-3.39,2.01-4.875,4.17-4.875c2.205,0,4.155,1.425,4.155,4.77
			c0,3.375-1.935,4.845-4.155,4.845C214.92,62.591,213.045,61.151,213.045,57.852z M219.24,57.866c0-2.745-0.69-3.84-2.04-3.84
			c-1.32,0-2.04,1.095-2.04,3.72c0,2.745,0.72,3.81,2.07,3.81C218.535,61.556,219.24,60.551,219.24,57.866z"/>
		<path fill="#575756" d="M222.705,63.581v-0.915c0.45,0.18,1.26,0.3,2.01,0.3c1.755,0,3.18-0.885,3.285-3.96
			c-0.6,0.435-1.515,0.825-2.55,0.825c-1.905,0-3.15-1.17-3.15-3.195s1.29-3.66,3.78-3.66c2.55,0,4.02,1.965,4.02,5.145
			c0,4.26-2.16,6.03-4.979,6.03C224.04,64.151,223.2,63.911,222.705,63.581z M228.015,58.167v-0.42c0-2.189-0.45-3.75-1.92-3.75
			c-1.17,0-1.71,0.96-1.71,2.49c0,1.59,0.705,2.175,1.755,2.175C226.95,58.661,227.489,58.451,228.015,58.167z"/>
		<path fill="#575756" d="M234.239,58.286c0-2.61,1.636-4.155,3.825-4.155c2.4,0,3.435,1.44,3.435,4.305h-5.234
			c0.06,2.115,0.99,2.955,2.505,2.955c1.11,0,1.755-0.225,2.34-0.405v0.855c-0.54,0.33-1.41,0.75-2.805,0.75
			C235.515,62.591,234.239,60.896,234.239,58.286z M239.459,57.536c0-1.8-0.524-2.4-1.47-2.4c-1.005,0-1.635,0.705-1.739,2.4
			H239.459z"/>
		<path fill="#575756" d="M242.054,61.706l1.065-0.255v-9.615l-1.155-0.27v-0.765l2.896-0.36l0.194,0.105v10.905l1.05,0.255v0.705
			h-4.05V61.706z"/>
		<path fill="#575756" d="M246.674,58.286c0-2.61,1.636-4.155,3.825-4.155c2.4,0,3.435,1.44,3.435,4.305h-5.234
			c0.06,2.115,0.99,2.955,2.505,2.955c1.11,0,1.755-0.225,2.34-0.405v0.855c-0.54,0.33-1.41,0.75-2.805,0.75
			C247.949,62.591,246.674,60.896,246.674,58.286z M251.894,57.536c0-1.8-0.524-2.4-1.47-2.4c-1.005,0-1.635,0.705-1.739,2.4
			H251.894z"/>
		<path fill="#575756" d="M254.654,58.421c0-3.045,1.86-4.29,4.306-4.29c0.854,0,1.694,0.135,2.234,0.315v2.235h-1.17l-0.225-1.41
			c-0.21-0.06-0.45-0.12-0.99-0.12c-1.305,0-2.115,0.93-2.115,3.06c0,2.4,1.08,3.165,2.565,3.165c0.975,0,1.665-0.21,2.055-0.39
			v0.885c-0.495,0.36-1.35,0.72-2.64,0.72C256.034,62.591,254.654,60.971,254.654,58.421z"/>
		<path fill="#575756" d="M262.964,60.491v-5.145h-1.141v-0.75l1.141-0.39v-1.83h1.935v1.905h2.085v1.065h-2.085v4.785
			c0,0.915,0.271,1.23,1.23,1.23c0.375,0,0.689-0.045,0.96-0.105v0.795c-0.466,0.285-1.141,0.51-1.891,0.51
			C263.743,62.561,262.964,62.051,262.964,60.491z"/>
		<path fill="#575756" d="M267.614,61.706l1.05-0.255v-5.91l-1.154-0.255v-0.765l2.895-0.375l0.195,0.105v7.2l1.035,0.255v0.705
			h-4.021V61.706z M268.439,51.867c0-0.615,0.479-1.08,1.11-1.08c0.63,0,1.109,0.465,1.109,1.08c0,0.615-0.479,1.08-1.109,1.08
			C268.919,52.946,268.439,52.481,268.439,51.867z"/>
		<path fill="#575756" d="M272.248,58.406c0-2.64,1.756-4.275,3.945-4.275c2.46,0,3.99,1.59,3.99,4.2c0,2.625-1.771,4.29-3.945,4.29
			C273.778,62.621,272.248,60.956,272.248,58.406z M278.128,58.437c0-2.52-0.93-3.285-1.949-3.285c-1.021,0-1.891,0.69-1.891,3.135
			c0,2.52,0.931,3.285,1.965,3.285C277.243,61.571,278.128,60.866,278.128,58.437z"/>
		<path fill="#575756" d="M280.858,61.706l1.065-0.255v-5.91l-1.08-0.255v-0.765l2.729-0.375l0.195,0.105v0.84h0.09
			c0.78-0.495,1.665-0.96,2.685-0.96c1.381,0,2.19,0.63,2.19,2.1v5.22l1.035,0.255v0.705h-3.945v-0.705l0.96-0.225v-4.635
			c0-0.975-0.465-1.29-1.395-1.29c-0.555,0-1.05,0.135-1.53,0.285v5.64l0.945,0.225v0.705h-3.945V61.706z"/>
		<path fill="#575756" d="M294.644,60.491v-5.145h-1.141v-0.75l1.141-0.39v-1.83h1.935v1.905h2.085v1.065h-2.085v4.785
			c0,0.915,0.271,1.23,1.23,1.23c0.375,0,0.689-0.045,0.96-0.105v0.795c-0.466,0.285-1.141,0.51-1.891,0.51
			C295.423,62.561,294.644,62.051,294.644,60.491z"/>
		<path fill="#575756" d="M300.253,60.236v-4.785l-1.064-0.255v-0.75l2.819-0.285l0.181,0.105v5.52c0,0.975,0.284,1.425,1.319,1.425
			c0.795,0,1.23-0.21,1.62-0.375v-5.385l-1.005-0.255v-0.75l2.745-0.285l0.21,0.105v6.975l1.064,0.24v0.72l-2.729,0.36l-0.195-0.09
			v-0.945h-0.09c-0.6,0.57-1.455,1.05-2.564,1.05C300.928,62.576,300.253,61.691,300.253,60.236z"/>
		<path fill="#575756" d="M308.698,61.706l1.064-0.255v-5.91l-1.08-0.255v-0.765l2.73-0.375l0.194,0.105v1.17h0.09
			c0.45-0.615,1.17-1.275,2.056-1.275c0.149,0,0.345,0.015,0.42,0.045v1.74c-0.181-0.045-0.465-0.06-0.646-0.06
			c-0.75,0-1.335,0.075-1.83,0.36v5.22l1.23,0.255v0.705h-4.229V61.706z"/>
		<path fill="#575756" d="M314.638,61.706l1.065-0.255v-5.91l-1.08-0.255v-0.765l2.729-0.375l0.195,0.105v0.84h0.09
			c0.78-0.495,1.665-0.96,2.685-0.96c1.381,0,2.19,0.63,2.19,2.1v5.22l1.035,0.255v0.705h-3.945v-0.705l0.96-0.225v-4.635
			c0-0.975-0.465-1.29-1.395-1.29c-0.555,0-1.05,0.135-1.53,0.285v5.64l0.945,0.225v0.705h-3.945V61.706z"/>
		<path fill="#575756" d="M324.162,58.406c0-2.64,1.756-4.275,3.945-4.275c2.46,0,3.99,1.59,3.99,4.2c0,2.625-1.771,4.29-3.945,4.29
			C325.692,62.621,324.162,60.956,324.162,58.406z M330.042,58.437c0-2.52-0.93-3.285-1.949-3.285c-1.021,0-1.891,0.69-1.891,3.135
			c0,2.52,0.931,3.285,1.965,3.285C329.157,61.571,330.042,60.866,330.042,58.437z"/>
		<path fill="#575756" d="M333.688,60.236v-4.785l-1.064-0.255v-0.75l2.819-0.285l0.181,0.105v5.52c0,0.975,0.284,1.425,1.319,1.425
			c0.795,0,1.23-0.21,1.62-0.375v-5.385l-1.005-0.255v-0.75l2.745-0.285l0.21,0.105v6.975l1.064,0.24v0.72l-2.729,0.36l-0.195-0.09
			v-0.945h-0.09c-0.6,0.57-1.455,1.05-2.564,1.05C334.362,62.576,333.688,61.691,333.688,60.236z"/>
		<path fill="#575756" d="M343.228,60.491v-5.145h-1.141v-0.75l1.141-0.39v-1.83h1.935v1.905h2.085v1.065h-2.085v4.785
			c0,0.915,0.271,1.23,1.23,1.23c0.375,0,0.689-0.045,0.96-0.105v0.795c-0.466,0.285-1.141,0.51-1.891,0.51
			C344.007,62.561,343.228,62.051,343.228,60.491z"/>
		<path fill="#575756" d="M350.037,62.156c-0.12,0.06-0.255,0.105-0.435,0.105c-0.57,0-0.976-0.435-0.976-1.05
			c0-0.615,0.495-1.05,1.17-1.05c0.78,0,1.455,0.57,1.455,1.65c0,1.08-0.555,2.385-2.85,3.135l-0.271-0.6
			C349.332,63.641,349.962,63.056,350.037,62.156z"/>
		<path fill="#575756" d="M355.888,55.241c0-1.92,1.245-2.834,2.609-2.834c1.351,0,2.625,0.9,2.625,2.76
			c0,1.875-1.229,2.805-2.625,2.805C357.088,57.971,355.888,57.071,355.888,55.241z M359.518,55.241c0-1.32-0.255-2.055-1.021-2.055
			c-0.765,0-1.02,0.69-1.02,1.98c0,1.305,0.255,2.025,1.02,2.025C359.247,57.191,359.518,56.546,359.518,55.241z M365.143,52.287
			h1.17l-7.17,10.62h-1.17L365.143,52.287z M363.268,59.816c0-1.92,1.26-2.82,2.624-2.82c1.335,0,2.61,0.885,2.61,2.76
			s-1.229,2.805-2.625,2.805C364.467,62.561,363.268,61.661,363.268,59.816z M366.897,59.816c0-1.305-0.24-2.055-1.006-2.055
			c-0.779,0-1.034,0.705-1.034,1.995s0.255,2.025,1.02,2.025S366.897,61.151,366.897,59.816z"/>
	</g>
</g>
<g>
	<g>
		<g>
			<rect x="0.569" y="312.63" fill="#6CA5DA" width="125.383" height="33.73"/>
		</g>
	</g>
	<g>
		<g>
			<rect x="0.569" y="272.176" fill="#6CA5DA" width="132.584" height="33.726"/>
		</g>
	</g>
	<g>
		<g>
			<rect x="0.569" y="231.718" fill="#6CA5DA" width="144.363" height="33.728"/>
		</g>
	</g>
	<g>
		<g>
			<rect x="0.569" y="191.26" fill="#6CA5DA" width="165.243" height="33.727"/>
		</g>
	</g>
	<g>
		<g>
			<rect x="0.569" y="150.803" fill="#6CA5DA" width="170.316" height="33.726"/>
		</g>
	</g>
	<g>
		<g>
			<rect x="0.569" y="110.347" fill="#6CA5DA" width="171.978" height="33.728"/>
		</g>
	</g>
	<g>
		<g>
			<rect x="0.569" y="69.889" fill="#6CA5DA" width="180.754" height="33.729"/>
		</g>
	</g>
</g>
<g>
	<g>
		<g>
			<rect x="196.005" y="70.476" fill="#6CA5DA" width="263.563" height="33.729"/>
		</g>
	</g>
</g>
<g>
	<path fill="#FFFFFF" d="M119.671,87.537v-0.7c0-4.787,2.762-6.812,6.83-6.812c1.798,0,2.99,0.189,3.728,0.53v2.99
		c-0.567-0.151-1.722-0.265-2.687-0.265c-2.29,0-3.217,0.492-3.368,2.252c0.587-0.303,1.476-0.587,2.744-0.587
		c2.668,0,4.219,1.306,4.219,3.955c0,2.687-1.627,4.692-5.43,4.692C121.828,93.591,119.671,91.491,119.671,87.537z M126.861,89.164
		c0-1.495-0.586-1.627-1.476-1.627c-0.473,0-0.946,0.132-1.192,0.265v0.511c0,1.854,0.435,2.517,1.4,2.517
		C126.426,90.829,126.861,90.356,126.861,89.164z"/>
	<path fill="#FFFFFF" d="M131.783,90.507l2.479-2.195c1.514-1.325,2.403-2.29,2.403-3.481c0-1.079-0.757-1.495-2.062-1.495
		c-1.06,0-1.987,0.303-2.668,0.568v-3.065c0.871-0.379,2.233-0.814,4.201-0.814c3.292,0,5.108,1.438,5.108,4.068
		c0,2.233-1.192,3.558-3.122,5.071l-1.286,1.06v0.057h4.522v3.084h-9.574V90.507z"/>
	<path fill="#FFFFFF" d="M142.456,90.034h3.689v3.33h-3.689V90.034z"/>
	<path fill="#FFFFFF" d="M146.695,87.215v-0.681c0-4.9,3.084-6.509,6.206-6.509c3.368,0,6.13,1.741,6.13,6.376v0.681
		c0,4.825-3.065,6.509-6.225,6.509C149.438,93.591,146.695,91.889,146.695,87.215z M154.453,87.31v-0.833
		c0-2.8-0.53-3.406-1.589-3.406s-1.589,0.567-1.589,3.254v0.833c0,2.611,0.454,3.387,1.571,3.387
		C153.979,90.545,154.453,89.958,154.453,87.31z"/>
	<path fill="#FFFFFF" d="M159.792,83.999v-0.151c0-2.592,1.665-3.822,3.746-3.822c2.062,0,3.765,1.211,3.765,3.747v0.17
		c0,2.573-1.646,3.803-3.765,3.803C161.381,87.745,159.792,86.534,159.792,83.999z M164.37,84.074v-0.303
		c0-1.306-0.208-1.741-0.833-1.741c-0.605,0-0.794,0.416-0.794,1.703v0.303c0,1.306,0.189,1.703,0.794,1.703
		C164.181,85.739,164.37,85.398,164.37,84.074z M171.409,79.874h2.649l-8.609,14.248H162.8L171.409,79.874z M169.763,89.826v-0.151
		c0-2.611,1.646-3.841,3.746-3.841c2.062,0,3.747,1.211,3.747,3.765v0.17c0,2.554-1.646,3.784-3.765,3.784
		C171.352,93.554,169.763,92.343,169.763,89.826z M174.323,89.883V89.58c0-1.306-0.189-1.741-0.814-1.741
		c-0.624,0-0.813,0.417-0.813,1.703v0.303c0,1.306,0.189,1.703,0.813,1.703C174.133,91.548,174.323,91.207,174.323,89.883z"/>
</g>
<g>
	<path fill="#FFFFFF" d="M128.468,133.513v-2.914c0.794,0.246,1.684,0.416,2.838,0.416c1.589,0,2.328-0.321,2.328-1.249
		c0-0.965-0.663-1.287-2.328-1.287c-0.984,0-1.551,0.076-2.346,0.227l0.397-7.739h8.25v3.065h-5.166l-0.113,1.76
		c0.397-0.076,0.738-0.133,1.457-0.133c2.989,0,4.446,1.306,4.446,4.163c0,2.819-2.043,4.484-5.601,4.484
		C130.606,134.307,129.338,133.929,128.468,133.513z"/>
	<path fill="#FFFFFF" d="M139.596,133.739v-3.008c0.567,0.151,1.835,0.341,2.781,0.341c2.536,0,3.312-0.549,3.387-2.251
		c-0.605,0.284-1.457,0.567-2.667,0.567c-2.706,0-4.314-1.287-4.314-4.068c0-2.554,1.646-4.579,5.43-4.579
		c3.898,0,6.055,2.1,6.055,6.055v0.7c0,4.787-2.479,6.812-6.736,6.812C141.658,134.307,140.333,134.08,139.596,133.739z
		 M145.745,126.55v-0.53c0-1.873-0.454-2.516-1.4-2.516c-0.833,0-1.268,0.473-1.268,1.665c0,1.495,0.586,1.627,1.457,1.627
		C145.026,126.795,145.499,126.663,145.745,126.55z"/>
	<path fill="#FFFFFF" d="M150.837,130.75h3.689v3.33h-3.689V130.75z"/>
	<path fill="#FFFFFF" d="M155.077,127.931v-0.681c0-4.9,3.084-6.509,6.206-6.509c3.368,0,6.13,1.741,6.13,6.376v0.681
		c0,4.825-3.065,6.509-6.225,6.509C157.82,134.307,155.077,132.604,155.077,127.931z M162.834,128.025v-0.833
		c0-2.8-0.53-3.406-1.589-3.406s-1.589,0.567-1.589,3.254v0.833c0,2.611,0.454,3.387,1.57,3.387
		C162.361,131.261,162.834,130.674,162.834,128.025z"/>
</g>
<g>
	<path fill="#FFFFFF" d="M125.6,173.942v-2.914c0.794,0.246,1.684,0.416,2.838,0.416c1.589,0,2.328-0.321,2.328-1.249
		c0-0.965-0.663-1.287-2.328-1.287c-0.984,0-1.551,0.076-2.346,0.227l0.397-7.739h8.25v3.065h-5.166l-0.113,1.76
		c0.397-0.076,0.738-0.133,1.457-0.133c2.989,0,4.446,1.306,4.446,4.163c0,2.819-2.043,4.484-5.601,4.484
		C127.738,174.737,126.47,174.358,125.6,173.942z"/>
	<path fill="#FFFFFF" d="M136.104,171.255c0-1.325,0.889-2.441,2.365-3.027c-1.419-0.738-2.025-1.627-2.025-3.179
		c0-2.403,2.082-3.879,5.374-3.879c3.425,0,5.128,1.362,5.128,3.539c0,1.173-0.644,2.213-2.101,2.819
		c1.722,0.7,2.536,1.533,2.536,3.217c0,2.516-2.119,3.992-5.714,3.992C137.75,174.737,136.104,173.223,136.104,171.255z
		 M143.199,170.82c0-0.738-0.435-1.249-2.346-1.627c-0.662,0.397-1.003,0.908-1.003,1.552c0,0.757,0.549,1.287,1.703,1.287
		C142.669,172.031,143.199,171.558,143.199,170.82z M143.255,164.974c0-0.625-0.435-1.06-1.4-1.06c-0.908,0-1.362,0.435-1.362,1.021
		c0,0.663,0.454,1.022,1.778,1.381C142.839,166.033,143.255,165.655,143.255,164.974z"/>
	<path fill="#FFFFFF" d="M148.253,171.18h3.689v3.33h-3.689V171.18z"/>
	<path fill="#FFFFFF" d="M158.584,171.596h-5.903v-2.762l6.074-7.455h4.105v7.284h1.854v2.933h-1.854v2.914h-4.276V171.596z
		 M158.66,168.663v-3.103h-0.076l-2.365,3.046v0.057H158.66z"/>
</g>
<g>
	<path fill="#FFFFFF" d="M121.863,213.943v-2.914c0.794,0.246,1.684,0.416,2.838,0.416c1.589,0,2.328-0.321,2.328-1.248
		c0-0.966-0.663-1.287-2.328-1.287c-0.984,0-1.551,0.076-2.346,0.227l0.397-7.738h8.25v3.065h-5.166l-0.113,1.76
		c0.397-0.076,0.738-0.133,1.457-0.133c2.989,0,4.446,1.306,4.446,4.163c0,2.818-2.043,4.484-5.601,4.484
		C124.001,214.738,122.733,214.359,121.863,213.943z"/>
	<path fill="#FFFFFF" d="M132.442,208.684v-0.7c0-4.787,2.762-6.812,6.831-6.812c1.797,0,2.989,0.188,3.727,0.529v2.989
		c-0.567-0.151-1.722-0.265-2.687-0.265c-2.29,0-3.217,0.492-3.368,2.252c0.586-0.303,1.476-0.587,2.744-0.587
		c2.668,0,4.219,1.306,4.219,3.954c0,2.688-1.627,4.693-5.43,4.693C134.599,214.738,132.442,212.638,132.442,208.684z
		 M139.632,210.311c0-1.495-0.587-1.627-1.476-1.627c-0.473,0-0.946,0.132-1.192,0.265v0.511c0,1.854,0.435,2.517,1.4,2.517
		C139.196,211.976,139.632,211.502,139.632,210.311z"/>
	<path fill="#FFFFFF" d="M144.8,211.181h3.689v3.33H144.8V211.181z"/>
	<path fill="#FFFFFF" d="M154.62,204.71v-0.076h-5.582v-3.235h10.047v2.876l-4.522,10.236h-4.844L154.62,204.71z"/>
</g>
<g>
	<path fill="#FFFFFF" d="M106.184,252.458h-5.903v-2.763l6.074-7.454h4.106v7.284h1.854v2.933h-1.854v2.914h-4.276V252.458z
		 M106.259,249.525v-3.103h-0.076l-2.365,3.046v0.057H106.259z"/>
	<path fill="#FFFFFF" d="M113.433,255.031v-3.008c0.567,0.151,1.835,0.34,2.781,0.34c2.536,0,3.312-0.549,3.387-2.251
		c-0.605,0.283-1.457,0.567-2.667,0.567c-2.706,0-4.314-1.287-4.314-4.068c0-2.554,1.646-4.578,5.43-4.578
		c3.898,0,6.055,2.1,6.055,6.055v0.699c0,4.787-2.479,6.812-6.736,6.812C115.495,255.6,114.17,255.372,113.433,255.031z
		 M119.582,247.842v-0.53c0-1.873-0.454-2.517-1.4-2.517c-0.833,0-1.268,0.474-1.268,1.665c0,1.495,0.586,1.628,1.457,1.628
		C118.863,248.088,119.336,247.955,119.582,247.842z"/>
	<path fill="#FFFFFF" d="M124.674,252.042h3.689v3.33h-3.689V252.042z"/>
	<path fill="#FFFFFF" d="M129.424,254.805v-2.914c0.794,0.246,1.684,0.416,2.838,0.416c1.589,0,2.328-0.321,2.328-1.248
		c0-0.966-0.663-1.287-2.328-1.287c-0.984,0-1.551,0.076-2.346,0.227l0.397-7.738h8.25v3.065h-5.166l-0.113,1.76
		c0.397-0.076,0.738-0.133,1.457-0.133c2.989,0,4.446,1.306,4.446,4.163c0,2.818-2.043,4.484-5.601,4.484
		C131.562,255.6,130.294,255.221,129.424,254.805z"/>
</g>
<g>
	<path fill="#FFFFFF" d="M95.612,292.888h-5.903v-2.763l6.074-7.454h4.106v7.284h1.854v2.933h-1.854v2.914h-4.276V292.888z
		 M95.688,289.955v-3.103h-0.076l-2.365,3.046v0.057H95.688z"/>
	<path fill="#FFFFFF" d="M102.445,295.234v-2.914c0.794,0.246,1.684,0.416,2.838,0.416c1.589,0,2.327-0.321,2.327-1.248
		c0-0.966-0.662-1.287-2.327-1.287c-0.984,0-1.551,0.076-2.346,0.227l0.397-7.738h8.25v3.065h-5.166l-0.113,1.76
		c0.397-0.076,0.738-0.133,1.457-0.133c2.99,0,4.447,1.306,4.447,4.163c0,2.818-2.043,4.484-5.601,4.484
		C104.583,296.029,103.315,295.65,102.445,295.234z"/>
	<path fill="#FFFFFF" d="M113.062,292.472h3.689v3.33h-3.689V292.472z"/>
	<path fill="#FFFFFF" d="M117.812,295.234v-2.914c0.794,0.246,1.684,0.416,2.838,0.416c1.589,0,2.328-0.321,2.328-1.248
		c0-0.966-0.663-1.287-2.328-1.287c-0.984,0-1.551,0.076-2.346,0.227l0.397-7.738h8.25v3.065h-5.166l-0.113,1.76
		c0.397-0.076,0.738-0.133,1.457-0.133c2.989,0,4.446,1.306,4.446,4.163c0,2.818-2.043,4.484-5.601,4.484
		C119.95,296.029,118.682,295.65,117.812,295.234z"/>
</g>
<g>
	<path fill="#FFFFFF" d="M84.909,333.749h-5.903v-2.763l6.074-7.454h4.105v7.284h1.854v2.933h-1.854v2.914h-4.276V333.749z
		 M84.984,330.816v-3.103h-0.076l-2.365,3.046v0.057H84.984z"/>
	<path fill="#FFFFFF" d="M91.609,336.096v-2.876c0.813,0.208,1.93,0.416,3.046,0.416c1.627,0,2.232-0.341,2.232-1.154
		c0-0.832-0.681-1.06-1.797-1.06h-1.514v-2.819h1.419c1.211,0,1.797-0.303,1.797-1.021c0-0.795-0.662-1.003-1.911-1.003
		c-1.098,0-2.176,0.17-2.895,0.341v-2.896c1.021-0.359,2.535-0.699,4.314-0.699c2.857,0,4.749,1.135,4.749,3.367
		c0,1.59-0.965,2.631-2.308,3.027v0.076c1.703,0.303,2.687,1.191,2.687,3.141c0,2.422-1.93,3.955-5.468,3.955
		C93.917,336.891,92.479,336.512,91.609,336.096z"/>
	<path fill="#FFFFFF" d="M102.377,333.333h3.689v3.33h-3.689V333.333z"/>
	<path fill="#FFFFFF" d="M106.617,330.514v-0.681c0-4.901,3.084-6.509,6.206-6.509c3.368,0,6.13,1.74,6.13,6.376v0.681
		c0,4.825-3.065,6.51-6.225,6.51C109.36,336.891,106.617,335.188,106.617,330.514z M114.374,330.608v-0.833
		c0-2.8-0.53-3.405-1.589-3.405s-1.589,0.567-1.589,3.255v0.832c0,2.611,0.454,3.387,1.57,3.387
		C113.901,333.844,114.374,333.258,114.374,330.608z"/>
</g>
<g>
	<path fill="#FFFFFF" d="M4.919,89.583h1.86c0,0-0.09-0.855-0.09-1.425v-5.355c0,0-0.495,0.225-1.26,0.345l-0.69,0.09v-1.275
		l2.85-1.35h1.245v7.545c0,0.57-0.09,1.425-0.09,1.425h1.83v1.485H4.919V89.583z"/>
	<path fill="#FFFFFF" d="M12.779,90.798v-1.53c0.345,0.12,1.095,0.285,1.785,0.285c1.575,0,2.43-0.54,2.475-3.075h-0.15
		c-0.48,0.42-1.065,0.75-1.995,0.75c-1.71,0-2.61-1.14-2.61-3.12c0-2.04,0.99-3.615,3.3-3.615c2.325,0,3.645,1.47,3.645,4.815v0.54
		c0,4.095-1.71,5.415-4.26,5.415C14.069,91.263,13.229,91.039,12.779,90.798z M16.994,85.338v-0.51c0-1.74-0.39-2.79-1.38-2.79
		c-0.885,0-1.215,0.525-1.215,1.905c0,1.5,0.45,1.89,1.245,1.89C16.229,85.833,16.649,85.639,16.994,85.338z"/>
	<path fill="#FFFFFF" d="M24.434,84.034c0.36-0.855,0.945-1.56,0.945-1.56v-0.15h-4.575v-1.635h6.36v1.74l-3.525,8.64h-2.175
		L24.434,84.034z"/>
	<path fill="#FFFFFF" d="M29.279,90.798v-1.53c0.345,0.12,1.095,0.285,1.785,0.285c1.575,0,2.43-0.54,2.475-3.075h-0.15
		c-0.48,0.42-1.065,0.75-1.995,0.75c-1.71,0-2.61-1.14-2.61-3.12c0-2.04,0.99-3.615,3.3-3.615c2.325,0,3.645,1.47,3.645,4.815v0.54
		c0,4.095-1.71,5.415-4.26,5.415C30.569,91.263,29.729,91.039,29.279,90.798z M33.494,85.338v-0.51c0-1.74-0.39-2.79-1.38-2.79
		c-0.885,0-1.215,0.525-1.215,1.905c0,1.5,0.45,1.89,1.245,1.89C32.729,85.833,33.148,85.639,33.494,85.338z"/>
</g>
<g>
	<path fill="#FFFFFF" d="M4.919,130.014h1.86c0,0-0.09-0.855-0.09-1.425v-5.355c0,0-0.495,0.225-1.26,0.345l-0.69,0.09v-1.275
		l2.85-1.35h1.245v7.545c0,0.57-0.09,1.425-0.09,1.425h1.83v1.485H4.919V130.014z"/>
	<path fill="#FFFFFF" d="M12.779,131.229v-1.53c0.345,0.12,1.095,0.285,1.785,0.285c1.575,0,2.43-0.54,2.475-3.075h-0.15
		c-0.48,0.42-1.065,0.75-1.995,0.75c-1.71,0-2.61-1.14-2.61-3.12c0-2.04,0.99-3.615,3.3-3.615c2.325,0,3.645,1.47,3.645,4.815v0.54
		c0,4.095-1.71,5.415-4.26,5.415C14.069,131.694,13.229,131.469,12.779,131.229z M16.994,125.769v-0.51c0-1.74-0.39-2.79-1.38-2.79
		c-0.885,0-1.215,0.525-1.215,1.905c0,1.5,0.45,1.89,1.245,1.89C16.229,126.264,16.649,126.069,16.994,125.769z"/>
	<path fill="#FFFFFF" d="M20.504,128.844c0-1.2,1.02-2.085,1.98-2.49v-0.15c-1.02-0.465-1.77-1.125-1.77-2.475
		c0-1.68,1.32-2.805,3.285-2.805c2.085,0,3.21,1.05,3.21,2.67c0,1.11-0.78,1.83-1.785,2.31v0.15c1.29,0.51,2.145,1.2,2.145,2.64
		c0,1.8-1.35,3-3.63,3C21.554,131.694,20.504,130.584,20.504,128.844z M25.529,128.829c0-1.125-0.63-1.485-1.92-2.085
		c-0.765,0.51-1.23,1.215-1.23,2.01c0,0.945,0.555,1.485,1.545,1.485C25.019,130.239,25.529,129.654,25.529,128.829z
		 M25.333,123.625c0-0.75-0.435-1.26-1.335-1.26c-0.765,0-1.29,0.495-1.29,1.29c0,0.87,0.525,1.335,1.515,1.86
		C24.943,125.034,25.333,124.449,25.333,123.625z"/>
	<path fill="#FFFFFF" d="M32.624,130.329c0-0.51,0.09-1.32,0.09-1.32h-4.035v-1.785l3.66-6.104h2.43v4.995
		c0,0.495-0.09,1.275-0.09,1.275h1.26v1.62h-1.26c0,0,0.09,0.81,0.09,1.32v1.17h-2.145V130.329z M32.773,127.449
		c0,0-0.09-0.69-0.09-1.305v-1.125c0-0.915,0.225-2.205,0.225-2.205h-0.18c0,0-0.495,1.35-1.005,2.28l-0.54,0.945
		c-0.345,0.645-0.96,1.23-0.96,1.23v0.18H32.773z"/>
</g>
<g>
	<path fill="#FFFFFF" d="M4.919,170.445h1.86c0,0-0.09-0.855-0.09-1.425v-5.355c0,0-0.495,0.225-1.26,0.345l-0.69,0.09v-1.275
		l2.85-1.35h1.245v7.545c0,0.57-0.09,1.425-0.09,1.425h1.83v1.485H4.919V170.445z"/>
	<path fill="#FFFFFF" d="M12.779,171.66v-1.53c0.345,0.12,1.095,0.285,1.785,0.285c1.575,0,2.43-0.54,2.475-3.075h-0.15
		c-0.48,0.42-1.065,0.75-1.995,0.75c-1.71,0-2.61-1.14-2.61-3.12c0-2.04,0.99-3.615,3.3-3.615c2.325,0,3.645,1.47,3.645,4.815v0.54
		c0,4.095-1.71,5.415-4.26,5.415C14.069,172.125,13.229,171.9,12.779,171.66z M16.994,166.2v-0.51c0-1.74-0.39-2.79-1.38-2.79
		c-0.885,0-1.215,0.525-1.215,1.905c0,1.5,0.45,1.89,1.245,1.89C16.229,166.695,16.649,166.5,16.994,166.2z"/>
	<path fill="#FFFFFF" d="M20.504,169.275c0-1.2,1.02-2.085,1.98-2.49v-0.15c-1.02-0.465-1.77-1.125-1.77-2.475
		c0-1.68,1.32-2.805,3.285-2.805c2.085,0,3.21,1.05,3.21,2.67c0,1.11-0.78,1.83-1.785,2.31v0.15c1.29,0.51,2.145,1.2,2.145,2.64
		c0,1.8-1.35,3-3.63,3C21.554,172.125,20.504,171.015,20.504,169.275z M25.529,169.26c0-1.125-0.63-1.485-1.92-2.085
		c-0.765,0.51-1.23,1.215-1.23,2.01c0,0.945,0.555,1.485,1.545,1.485C25.019,170.67,25.529,170.085,25.529,169.26z M25.333,164.055
		c0-0.75-0.435-1.26-1.335-1.26c-0.765,0-1.29,0.495-1.29,1.29c0,0.87,0.525,1.335,1.515,1.86
		C24.943,165.465,25.333,164.88,25.333,164.055z"/>
	<path fill="#FFFFFF" d="M29.279,171.66v-1.53c0.345,0.12,1.095,0.285,1.785,0.285c1.575,0,2.43-0.54,2.475-3.075h-0.15
		c-0.48,0.42-1.065,0.75-1.995,0.75c-1.71,0-2.61-1.14-2.61-3.12c0-2.04,0.99-3.615,3.3-3.615c2.325,0,3.645,1.47,3.645,4.815v0.54
		c0,4.095-1.71,5.415-4.26,5.415C30.569,172.125,29.729,171.9,29.279,171.66z M33.494,166.2v-0.51c0-1.74-0.39-2.79-1.38-2.79
		c-0.885,0-1.215,0.525-1.215,1.905c0,1.5,0.45,1.89,1.245,1.89C32.729,166.695,33.148,166.5,33.494,166.2z"/>
</g>
<g>
	<path fill="#FFFFFF" d="M4.919,210.875h1.86c0,0-0.09-0.854-0.09-1.425v-5.354c0,0-0.495,0.225-1.26,0.345l-0.69,0.09v-1.274
		l2.85-1.35h1.245v7.544c0,0.57-0.09,1.425-0.09,1.425h1.83v1.485H4.919V210.875z"/>
	<path fill="#FFFFFF" d="M12.779,212.091v-1.53c0.345,0.12,1.095,0.285,1.785,0.285c1.575,0,2.43-0.54,2.475-3.075h-0.15
		c-0.48,0.42-1.065,0.75-1.995,0.75c-1.71,0-2.61-1.14-2.61-3.12c0-2.04,0.99-3.614,3.3-3.614c2.325,0,3.645,1.47,3.645,4.814v0.54
		c0,4.095-1.71,5.415-4.26,5.415C14.069,212.556,13.229,212.33,12.779,212.091z M16.994,206.631v-0.51c0-1.74-0.39-2.79-1.38-2.79
		c-0.885,0-1.215,0.524-1.215,1.904c0,1.5,0.45,1.891,1.245,1.891C16.229,207.126,16.649,206.931,16.994,206.631z"/>
	<path fill="#FFFFFF" d="M21.029,212.091v-1.53c0.345,0.12,1.095,0.285,1.785,0.285c1.575,0,2.43-0.54,2.475-3.075h-0.15
		c-0.48,0.42-1.065,0.75-1.995,0.75c-1.71,0-2.61-1.14-2.61-3.12c0-2.04,0.99-3.614,3.3-3.614c2.325,0,3.645,1.47,3.645,4.814v0.54
		c0,4.095-1.71,5.415-4.26,5.415C22.319,212.556,21.479,212.33,21.029,212.091z M25.244,206.631v-0.51c0-1.74-0.39-2.79-1.38-2.79
		c-0.885,0-1.215,0.524-1.215,1.904c0,1.5,0.45,1.891,1.245,1.891C24.479,207.126,24.898,206.931,25.244,206.631z"/>
	<path fill="#FFFFFF" d="M32.624,211.19c0-0.51,0.09-1.32,0.09-1.32h-4.035v-1.784l3.66-6.105h2.43v4.995
		c0,0.495-0.09,1.275-0.09,1.275h1.26v1.619h-1.26c0,0,0.09,0.811,0.09,1.32v1.17h-2.145V211.19z M32.773,208.311
		c0,0-0.09-0.69-0.09-1.305v-1.125c0-0.915,0.225-2.205,0.225-2.205h-0.18c0,0-0.495,1.35-1.005,2.28l-0.54,0.944
		c-0.345,0.646-0.96,1.23-0.96,1.23v0.18H32.773z"/>
</g>
<g>
	<path fill="#FFFFFF" d="M4.919,250.875h1.86c0,0-0.09-0.854-0.09-1.425v-5.354c0,0-0.495,0.225-1.26,0.345l-0.69,0.09v-1.274
		l2.85-1.35h1.245v7.544c0,0.57-0.09,1.425-0.09,1.425h1.83v1.485H4.919V250.875z"/>
	<path fill="#FFFFFF" d="M12.779,252.091v-1.53c0.345,0.12,1.095,0.285,1.785,0.285c1.575,0,2.43-0.54,2.475-3.075h-0.15
		c-0.48,0.42-1.065,0.75-1.995,0.75c-1.71,0-2.61-1.14-2.61-3.12c0-2.04,0.99-3.614,3.3-3.614c2.325,0,3.645,1.47,3.645,4.814v0.54
		c0,4.095-1.71,5.415-4.26,5.415C14.069,252.556,13.229,252.33,12.779,252.091z M16.994,246.631v-0.51c0-1.74-0.39-2.79-1.38-2.79
		c-0.885,0-1.215,0.524-1.215,1.904c0,1.5,0.45,1.891,1.245,1.891C16.229,247.126,16.649,246.931,16.994,246.631z"/>
	<path fill="#FFFFFF" d="M21.029,252.091v-1.53c0.345,0.12,1.095,0.285,1.785,0.285c1.575,0,2.43-0.54,2.475-3.075h-0.15
		c-0.48,0.42-1.065,0.75-1.995,0.75c-1.71,0-2.61-1.14-2.61-3.12c0-2.04,0.99-3.614,3.3-3.614c2.325,0,3.645,1.47,3.645,4.814v0.54
		c0,4.095-1.71,5.415-4.26,5.415C22.319,252.556,21.479,252.33,21.029,252.091z M25.244,246.631v-0.51c0-1.74-0.39-2.79-1.38-2.79
		c-0.885,0-1.215,0.524-1.215,1.904c0,1.5,0.45,1.891,1.245,1.891C24.479,247.126,24.898,246.931,25.244,246.631z"/>
	<path fill="#FFFFFF" d="M29.279,252.091v-1.53c0.345,0.12,1.095,0.285,1.785,0.285c1.575,0,2.43-0.54,2.475-3.075h-0.15
		c-0.48,0.42-1.065,0.75-1.995,0.75c-1.71,0-2.61-1.14-2.61-3.12c0-2.04,0.99-3.614,3.3-3.614c2.325,0,3.645,1.47,3.645,4.814v0.54
		c0,4.095-1.71,5.415-4.26,5.415C30.569,252.556,29.729,252.33,29.279,252.091z M33.494,246.631v-0.51c0-1.74-0.39-2.79-1.38-2.79
		c-0.885,0-1.215,0.524-1.215,1.904c0,1.5,0.45,1.891,1.245,1.891C32.729,247.126,33.148,246.931,33.494,246.631z"/>
</g>
<g>
	<path fill="#FFFFFF" d="M4.319,291.736l2.01-2.189c1.23-1.35,1.845-2.205,1.845-3.555c0-1.141-0.555-1.59-1.695-1.59
		c-0.75,0-1.41,0.18-1.965,0.39v-1.53c0.555-0.3,1.41-0.614,2.655-0.614c2.025,0,3.21,1.14,3.21,3.09
		c0,1.619-0.84,3.029-2.235,4.409l-0.18,0.181c-0.645,0.645-1.425,1.185-1.425,1.185v0.075h4.005v1.635H4.319V291.736z"/>
	<path fill="#FFFFFF" d="M12.224,288.812v-1.35c0-3.3,1.56-4.814,3.585-4.814c2.115,0,3.525,1.545,3.525,4.755v1.35
		c0,3.27-1.515,4.665-3.57,4.665C13.604,293.417,12.224,291.932,12.224,288.812z M17.189,288.767v-1.335
		c0-2.265-0.39-3.149-1.38-3.149c-1.02,0-1.425,0.87-1.425,3.074v1.335c0,2.205,0.39,3.075,1.395,3.075
		S17.189,291.032,17.189,288.767z"/>
	<path fill="#FFFFFF" d="M20.474,288.812v-1.35c0-3.3,1.56-4.814,3.585-4.814c2.115,0,3.525,1.545,3.525,4.755v1.35
		c0,3.27-1.515,4.665-3.57,4.665C21.854,293.417,20.474,291.932,20.474,288.812z M25.438,288.767v-1.335
		c0-2.265-0.39-3.149-1.38-3.149c-1.02,0-1.425,0.87-1.425,3.074v1.335c0,2.205,0.39,3.075,1.395,3.075
		C25.034,291.767,25.438,291.032,25.438,288.767z"/>
	<path fill="#FFFFFF" d="M32.624,292.052c0-0.51,0.09-1.32,0.09-1.32h-4.035v-1.784l3.66-6.105h2.43v4.995
		c0,0.495-0.09,1.275-0.09,1.275h1.26v1.619h-1.26c0,0,0.09,0.811,0.09,1.32v1.17h-2.145V292.052z M32.773,289.172
		c0,0-0.09-0.69-0.09-1.305v-1.125c0-0.915,0.225-2.205,0.225-2.205h-0.18c0,0-0.495,1.35-1.005,2.28l-0.54,0.944
		c-0.345,0.646-0.96,1.23-0.96,1.23v0.18H32.773z"/>
</g>
<g>
	<path fill="#FFFFFF" d="M4.319,333.027l2.01-2.189c1.23-1.35,1.845-2.205,1.845-3.555c0-1.141-0.555-1.59-1.695-1.59
		c-0.75,0-1.41,0.18-1.965,0.39v-1.53c0.555-0.3,1.41-0.614,2.655-0.614c2.025,0,3.21,1.14,3.21,3.09
		c0,1.619-0.84,3.029-2.235,4.409l-0.18,0.181c-0.645,0.645-1.425,1.185-1.425,1.185v0.075h4.005v1.635H4.319V333.027z"/>
	<path fill="#FFFFFF" d="M12.224,330.103v-1.35c0-3.3,1.56-4.814,3.585-4.814c2.115,0,3.525,1.545,3.525,4.755v1.35
		c0,3.27-1.515,4.665-3.57,4.665C13.604,334.708,12.224,333.223,12.224,330.103z M17.189,330.058v-1.335
		c0-2.265-0.39-3.149-1.38-3.149c-1.02,0-1.425,0.87-1.425,3.074v1.335c0,2.205,0.39,3.075,1.395,3.075
		S17.189,332.323,17.189,330.058z"/>
	<path fill="#FFFFFF" d="M20.474,330.103v-1.35c0-3.3,1.56-4.814,3.585-4.814c2.115,0,3.525,1.545,3.525,4.755v1.35
		c0,3.27-1.515,4.665-3.57,4.665C21.854,334.708,20.474,333.223,20.474,330.103z M25.438,330.058v-1.335
		c0-2.265-0.39-3.149-1.38-3.149c-1.02,0-1.425,0.87-1.425,3.074v1.335c0,2.205,0.39,3.075,1.395,3.075
		C25.034,333.058,25.438,332.323,25.438,330.058z"/>
	<path fill="#FFFFFF" d="M29.279,334.243v-1.53c0.345,0.12,1.095,0.285,1.785,0.285c1.575,0,2.43-0.54,2.475-3.075h-0.15
		c-0.48,0.42-1.065,0.75-1.995,0.75c-1.71,0-2.61-1.14-2.61-3.12c0-2.04,0.99-3.614,3.3-3.614c2.325,0,3.645,1.47,3.645,4.814v0.54
		c0,4.095-1.71,5.415-4.26,5.415C30.569,334.708,29.729,334.482,29.279,334.243z M33.494,328.783v-0.51c0-1.74-0.39-2.79-1.38-2.79
		c-0.885,0-1.215,0.524-1.215,1.904c0,1.5,0.45,1.891,1.245,1.891C32.729,329.278,33.148,329.083,33.494,328.783z"/>
</g>
<g>
	<path fill="#FFFFFF" d="M385.771,93.882v-3.008c0.568,0.151,1.836,0.341,2.782,0.341c2.535,0,3.311-0.549,3.387-2.251
		c-0.605,0.284-1.457,0.567-2.668,0.567c-2.706,0-4.314-1.287-4.314-4.068c0-2.554,1.646-4.579,5.431-4.579
		c3.897,0,6.055,2.1,6.055,6.055v0.7c0,4.787-2.479,6.812-6.736,6.812C387.834,94.45,386.51,94.223,385.771,93.882z M391.921,86.692
		v-0.53c0-1.873-0.454-2.516-1.399-2.516c-0.833,0-1.268,0.473-1.268,1.665c0,1.495,0.586,1.627,1.456,1.627
		C391.202,86.938,391.676,86.806,391.921,86.692z"/>
	<path fill="#FFFFFF" d="M397.26,88.073v-0.681c0-4.9,3.084-6.509,6.206-6.509c3.368,0,6.13,1.741,6.13,6.376v0.681
		c0,4.825-3.064,6.509-6.225,6.509C400.003,94.45,397.26,92.747,397.26,88.073z M405.018,88.168v-0.833c0-2.8-0.53-3.406-1.59-3.406
		s-1.589,0.567-1.589,3.254v0.833c0,2.611,0.454,3.387,1.57,3.387C404.544,91.403,405.018,90.817,405.018,88.168z"/>
	<path fill="#FFFFFF" d="M410.185,90.893h3.69v3.33h-3.69V90.893z"/>
	<path fill="#FFFFFF" d="M420.517,91.309h-5.903v-2.762l6.073-7.455h4.106v7.284h1.854v2.933h-1.854v2.914h-4.276V91.309z
		 M420.592,88.376v-3.103h-0.075l-2.365,3.046v0.057H420.592z"/>
	<path fill="#FFFFFF" d="M426.668,84.857v-0.151c0-2.592,1.665-3.822,3.747-3.822c2.062,0,3.765,1.211,3.765,3.747v0.17
		c0,2.573-1.646,3.803-3.765,3.803C428.258,88.603,426.668,87.392,426.668,84.857z M431.247,84.933V84.63
		c0-1.306-0.208-1.741-0.832-1.741c-0.605,0-0.795,0.416-0.795,1.703v0.303c0,1.306,0.189,1.703,0.795,1.703
		C431.058,86.598,431.247,86.257,431.247,84.933z M438.286,80.732h2.648l-8.608,14.248h-2.649L438.286,80.732z M436.64,90.685
		v-0.151c0-2.611,1.646-3.841,3.746-3.841c2.062,0,3.747,1.211,3.747,3.765v0.17c0,2.554-1.646,3.784-3.766,3.784
		C438.229,94.412,436.64,93.201,436.64,90.685z M441.199,90.741v-0.303c0-1.306-0.188-1.741-0.813-1.741
		c-0.624,0-0.813,0.417-0.813,1.703v0.303c0,1.306,0.189,1.703,0.813,1.703C441.011,92.406,441.199,92.065,441.199,90.741z"/>
</g>
<g>
	<path fill="#FFFFFF" d="M200.008,81.264h3.57c2.13,0,3.15,0.915,3.15,2.625c0,1.185-0.435,1.995-1.935,2.265v0.15
		c1.575,0.18,2.28,0.9,2.28,2.46c0,1.635-0.99,2.88-3.345,2.88h-3.72V81.264z M203.128,85.674c0.84,0,1.425-0.3,1.425-1.44
		c0-1.02-0.42-1.425-1.38-1.425h-1.065c0,0,0.09,0.645,0.09,1.05v0.765c0,0.405-0.09,1.05-0.09,1.05H203.128z M203.323,90.083
		c0.915,0,1.455-0.45,1.455-1.575c0-1.11-0.495-1.545-1.515-1.545h-1.155c0,0,0.09,0.69,0.09,1.125v0.9
		c0,0.42-0.09,1.095-0.09,1.095H203.323z"/>
	<path fill="#FFFFFF" d="M208.273,87.969v-0.51c0-2.28,1.275-3.825,3.36-3.825c2.205,0,2.97,1.44,2.97,3.63v0.945h-4.275
		c0.075,1.575,0.69,2.055,1.935,2.055c0.855,0,1.575-0.195,2.175-0.465v1.35c-0.495,0.345-1.26,0.675-2.58,0.675
		C209.683,91.824,208.273,90.503,208.273,87.969z M210.328,87.249c0.315-0.075,0.795-0.18,1.365-0.18h0.975
		c0-1.32-0.255-2.025-1.035-2.025C210.868,85.044,210.343,85.614,210.328,87.249z"/>
	<path fill="#FFFFFF" d="M216.283,90.023v-9.165h2.16v8.865c0,0.435,0.105,0.615,0.495,0.615c0.09,0,0.285-0.03,0.375-0.045v1.275
		c-0.33,0.105-0.705,0.165-1.2,0.165C216.973,91.733,216.283,91.329,216.283,90.023z"/>
	<path fill="#FFFFFF" d="M220.693,93.668v-1.335c0.555,0.165,1.44,0.345,2.295,0.345c1.35,0,1.935-0.435,1.935-1.275v-0.135
		c0-0.6,0.105-0.96,0.105-0.96h-0.135c-0.48,0.375-0.99,0.69-1.83,0.69c-1.545,0-2.76-0.945-2.76-3.36v-0.315
		c0-2.7,1.275-3.675,2.94-3.675c0.9,0,1.41,0.345,1.89,0.78h0.135l0.18-0.645h1.59v7.5c0,1.995-1.185,2.955-3.555,2.955
		C222.238,94.238,221.458,94.043,220.693,93.668z M224.908,89.168v-3.584c-0.27-0.18-0.6-0.3-1.125-0.3
		c-0.78,0-1.26,0.48-1.26,1.965v0.27c0,1.62,0.45,2.055,1.29,2.055C224.323,89.574,224.667,89.394,224.908,89.168z"/>
	<path fill="#FFFFFF" d="M228.913,80.904h2.265v1.695h-2.265V80.904z M228.958,83.784h2.175v7.86h-2.175V83.784z"/>
	<path fill="#FFFFFF" d="M233.008,89.469v-5.685h2.175v5.25c0,0.75,0.165,1.065,0.854,1.065c0.48,0,0.915-0.24,1.245-0.465v-5.85
		h2.16v7.86h-1.755l-0.181-0.945h-0.165c-0.645,0.66-1.274,1.11-2.279,1.11C233.787,91.809,233.008,91.014,233.008,89.469z"/>
	<path fill="#FFFFFF" d="M241.348,83.784h2.04v0.915h0.135c0.689-0.645,1.395-1.065,2.31-1.065c0.855,0,1.41,0.315,1.71,1.155h0.165
		c0.675-0.69,1.515-1.155,2.46-1.155c1.245,0,2.01,0.69,2.01,2.295v5.715h-2.175v-5.19c0-0.9-0.24-1.125-0.915-1.125
		c-0.42,0-0.915,0.255-1.245,0.495c0,0.03,0.016,0.135,0.016,0.36v5.46h-2.176v-5.19c0-0.9-0.284-1.125-0.93-1.125
		c-0.45,0-0.87,0.21-1.229,0.48v5.835h-2.175V83.784z"/>
</g>
<g>
	<g>
		<g>
			<rect x="196.005" y="191.798" fill="#6CA5DA" width="126.254" height="33.724"/>
		</g>
	</g>
	<g>
		<path fill="#FFFFFF" d="M284.556,212.601h-5.903v-2.763l6.073-7.454h4.106v7.284h1.854v2.933h-1.854v2.914h-4.276V212.601z
			 M284.631,209.668v-3.103h-0.075l-2.365,3.046v0.057H284.631z"/>
		<path fill="#FFFFFF" d="M291.256,214.947v-2.876c0.813,0.208,1.93,0.416,3.046,0.416c1.628,0,2.233-0.341,2.233-1.154
			c0-0.832-0.682-1.06-1.798-1.06h-1.514v-2.819h1.419c1.211,0,1.798-0.303,1.798-1.021c0-0.795-0.662-1.003-1.911-1.003
			c-1.098,0-2.176,0.17-2.895,0.341v-2.896c1.021-0.359,2.535-0.699,4.313-0.699c2.857,0,4.749,1.135,4.749,3.367
			c0,1.59-0.965,2.631-2.309,3.027v0.076c1.703,0.303,2.688,1.191,2.688,3.141c0,2.422-1.931,3.955-5.469,3.955
			C293.564,215.742,292.126,215.363,291.256,214.947z"/>
		<path fill="#FFFFFF" d="M302.023,212.185h3.689v3.33h-3.689V212.185z"/>
		<path fill="#FFFFFF" d="M306.736,214.947v-2.876c0.813,0.208,1.93,0.416,3.046,0.416c1.628,0,2.233-0.341,2.233-1.154
			c0-0.832-0.682-1.06-1.798-1.06h-1.514v-2.819h1.419c1.211,0,1.798-0.303,1.798-1.021c0-0.795-0.662-1.003-1.911-1.003
			c-1.098,0-2.176,0.17-2.895,0.341v-2.896c1.021-0.359,2.535-0.699,4.313-0.699c2.857,0,4.749,1.135,4.749,3.367
			c0,1.59-0.965,2.631-2.309,3.027v0.076c1.703,0.303,2.688,1.191,2.688,3.141c0,2.422-1.931,3.955-5.469,3.955
			C309.045,215.742,307.606,215.363,306.736,214.947z"/>
	</g>
	<g>
		<path fill="#FFFFFF" d="M199.573,207.925v-0.435c0-3.66,2.235-5.13,4.905-5.13c1.245,0,2.16,0.239,2.7,0.479v1.83
			c-0.45-0.195-1.245-0.45-2.385-0.45c-2.01,0-2.835,1.05-2.835,3.21v0.436c0,2.444,0.645,3.6,2.505,3.6
			c0.435,0,0.975-0.105,1.245-0.255c0,0-0.09-0.375-0.09-0.855v-0.495c0-0.39,0.09-0.824,0.09-0.824h-1.665v-1.65h3.6v5.024
			c-0.75,0.42-1.965,0.705-3.285,0.705C201.673,213.114,199.573,211.765,199.573,207.925z"/>
		<path fill="#FFFFFF" d="M209.293,209.26v-0.51c0-2.28,1.275-3.825,3.36-3.825c2.205,0,2.97,1.44,2.97,3.63v0.945h-4.275
			c0.075,1.574,0.69,2.055,1.935,2.055c0.855,0,1.575-0.195,2.175-0.465v1.35c-0.495,0.345-1.26,0.675-2.58,0.675
			C210.703,213.114,209.293,211.795,209.293,209.26z M211.348,208.54c0.315-0.075,0.795-0.181,1.365-0.181h0.975
			c0-1.319-0.255-2.024-1.035-2.024C211.888,206.335,211.363,206.905,211.348,208.54z"/>
		<path fill="#FFFFFF" d="M217.273,205.075h2.04v1.154h0.135c0.54-0.81,1.425-1.26,2.25-1.244v1.935
			c-0.735-0.03-1.65,0.149-2.25,0.51v5.505h-2.175V205.075z"/>
		<path fill="#FFFFFF" d="M223.078,205.075h2.04v0.915h0.135c0.69-0.646,1.395-1.065,2.31-1.065c0.855,0,1.41,0.315,1.71,1.155
			h0.165c0.675-0.69,1.515-1.155,2.46-1.155c1.245,0,2.01,0.69,2.01,2.295v5.715h-2.175v-5.189c0-0.9-0.24-1.125-0.915-1.125
			c-0.42,0-0.915,0.255-1.245,0.495c0,0.029,0.015,0.135,0.015,0.359v5.46h-2.175v-5.189c0-0.9-0.285-1.125-0.93-1.125
			c-0.45,0-0.87,0.21-1.229,0.479v5.835h-2.175V205.075z"/>
		<path fill="#FFFFFF" d="M235.348,210.835c0-1.53,0.975-2.19,2.895-2.325l1.065-0.075v-0.689c0-0.96-0.54-1.215-1.5-1.215
			c-0.75,0-1.365,0.135-1.845,0.27v-1.395c0.689-0.256,1.529-0.48,2.595-0.48c1.904,0,2.895,0.72,2.895,2.595v5.415h-1.62
			l-0.27-0.87h-0.135c-0.346,0.555-1.005,1.05-1.92,1.05C236.202,213.114,235.348,212.335,235.348,210.835z M239.353,211.33v-1.905
			l-0.84,0.045c-0.72,0.045-1.08,0.465-1.08,1.229c0,0.795,0.27,1.125,0.899,1.125C238.782,211.824,239.157,211.569,239.353,211.33z
			"/>
		<path fill="#FFFFFF" d="M243.298,205.075h2.04v0.944h0.135c0.63-0.6,1.35-1.095,2.354-1.095c1.26,0,1.995,0.705,1.995,2.235v5.774
			h-2.189v-5.25c0-0.75-0.165-1.05-0.855-1.05c-0.479,0-0.975,0.24-1.305,0.465v5.835h-2.175V205.075z"/>
		<path fill="#FFFFFF" d="M251.278,215.244v-1.409c0.21,0.06,0.479,0.135,0.854,0.135c0.63,0,1.095-0.24,1.275-0.9l0.06-0.225
			l-2.49-7.77h2.235l0.825,3.135c0.345,1.335,0.435,3.225,0.435,3.225h0.165c0,0,0.195-1.905,0.525-3.225l0.795-3.135h2.04
			l-2.521,8.234c-0.479,1.59-1.439,2.175-2.85,2.175C252.043,215.484,251.548,215.364,251.278,215.244z"/>
	</g>
</g>
<g>
	<g>
		<g>
			<rect x="196.005" y="232.251" fill="#6CA5DA" width="118.47" height="33.724"/>
		</g>
	</g>
	<g>
		<path fill="#FFFFFF" d="M273.014,252.601h-5.903v-2.763l6.073-7.454h4.106v7.284h1.854v2.933h-1.854v2.914h-4.276V252.601z
			 M273.09,249.668v-3.103h-0.076l-2.365,3.046v0.057H273.09z"/>
		<path fill="#FFFFFF" d="M279.809,249.365v-0.681c0-4.901,3.084-6.509,6.206-6.509c3.368,0,6.13,1.74,6.13,6.376v0.681
			c0,4.825-3.064,6.51-6.225,6.51C282.552,255.742,279.809,254.039,279.809,249.365z M287.566,249.46v-0.833
			c0-2.8-0.53-3.405-1.59-3.405s-1.589,0.567-1.589,3.255v0.832c0,2.611,0.454,3.387,1.57,3.387
			C287.093,252.695,287.566,252.109,287.566,249.46z"/>
		<path fill="#FFFFFF" d="M292.734,252.185h3.689v3.33h-3.689V252.185z"/>
		<path fill="#FFFFFF" d="M296.974,249.688v-0.7c0-4.787,2.763-6.812,6.83-6.812c1.798,0,2.989,0.188,3.728,0.529v2.989
			c-0.567-0.151-1.722-0.265-2.687-0.265c-2.29,0-3.217,0.492-3.368,2.252c0.587-0.303,1.476-0.587,2.744-0.587
			c2.667,0,4.219,1.306,4.219,3.954c0,2.688-1.627,4.693-5.43,4.693C299.131,255.742,296.974,253.642,296.974,249.688z
			 M304.163,251.314c0-1.495-0.586-1.627-1.476-1.627c-0.473,0-0.946,0.132-1.191,0.265v0.511c0,1.854,0.435,2.517,1.399,2.517
			C303.729,252.979,304.163,252.506,304.163,251.314z"/>
	</g>
	<g>
		<path fill="#FFFFFF" d="M200.008,242.984h6.075v1.755h-3.945c0,0,0.09,0.63,0.09,1.035v0.811c0,0.404-0.09,1.034-0.09,1.034h3
			v1.681h-2.97c0,0,0.09,0.93,0.09,1.274v2.79h-2.25V242.984z"/>
		<path fill="#FFFFFF" d="M207.313,245.505h2.04v1.154h0.135c0.54-0.81,1.425-1.26,2.25-1.244v1.935
			c-0.735-0.03-1.65,0.149-2.25,0.51v5.505h-2.175V245.505z"/>
		<path fill="#FFFFFF" d="M212.563,251.265c0-1.53,0.975-2.19,2.895-2.325l1.065-0.075v-0.689c0-0.96-0.54-1.215-1.5-1.215
			c-0.75,0-1.365,0.135-1.845,0.27v-1.395c0.69-0.256,1.53-0.48,2.595-0.48c1.905,0,2.895,0.72,2.895,2.595v5.415h-1.62l-0.27-0.87
			h-0.135c-0.345,0.555-1.005,1.05-1.92,1.05C213.418,253.544,212.563,252.765,212.563,251.265z M216.568,251.76v-1.905l-0.84,0.045
			c-0.72,0.045-1.08,0.465-1.08,1.229c0,0.795,0.27,1.125,0.9,1.125C215.998,252.254,216.373,251.999,216.568,251.76z"/>
		<path fill="#FFFFFF" d="M220.513,245.505h2.04v0.944h0.135c0.63-0.6,1.35-1.095,2.354-1.095c1.26,0,1.995,0.705,1.995,2.235v5.774
			h-2.19v-5.25c0-0.75-0.165-1.05-0.855-1.05c-0.48,0-0.975,0.24-1.305,0.465v5.835h-2.175V245.505z"/>
		<path fill="#FFFFFF" d="M228.643,249.704v-0.435c0-2.895,1.785-3.915,3.84-3.915c0.945,0,1.425,0.12,1.891,0.3v1.605
			c-0.525-0.165-0.886-0.3-1.681-0.3c-0.915,0-1.785,0.479-1.785,2.159v0.465c0,1.771,0.705,2.37,1.98,2.37
			c0.66,0,1.2-0.18,1.545-0.3v1.38c-0.375,0.24-1.11,0.51-2.13,0.51C229.948,253.544,228.643,252.164,228.643,249.704z"/>
		<path fill="#FFFFFF" d="M235.708,249.689v-0.51c0-2.28,1.274-3.825,3.359-3.825c2.205,0,2.97,1.44,2.97,3.63v0.945h-4.274
			c0.075,1.574,0.69,2.055,1.935,2.055c0.855,0,1.575-0.195,2.175-0.465v1.35c-0.494,0.345-1.26,0.675-2.579,0.675
			C237.118,253.544,235.708,252.225,235.708,249.689z M237.763,248.97c0.315-0.075,0.795-0.181,1.365-0.181h0.975
			c0-1.319-0.255-2.024-1.035-2.024C238.303,246.765,237.777,247.335,237.763,248.97z"/>
	</g>
</g>
<g>
	<g>
		<g>
			<rect x="196.005" y="110.986" fill="#6CA5DA" width="189.679" height="33.729"/>
		</g>
	</g>
	<g>
		<path fill="#FFFFFF" d="M340.067,128.827v-0.7c0-4.787,2.763-6.812,6.83-6.812c1.798,0,2.989,0.189,3.728,0.53v2.99
			c-0.567-0.151-1.722-0.265-2.687-0.265c-2.29,0-3.217,0.492-3.368,2.252c0.587-0.303,1.476-0.587,2.744-0.587
			c2.667,0,4.219,1.306,4.219,3.955c0,2.687-1.627,4.692-5.43,4.692C342.225,134.881,340.067,132.781,340.067,128.827z
			 M347.257,130.454c0-1.495-0.586-1.627-1.476-1.627c-0.473,0-0.946,0.132-1.191,0.265v0.511c0,1.854,0.435,2.517,1.399,2.517
			C346.822,132.119,347.257,131.646,347.257,130.454z"/>
		<path fill="#FFFFFF" d="M352.142,134.087v-2.914c0.795,0.246,1.684,0.416,2.838,0.416c1.59,0,2.327-0.321,2.327-1.249
			c0-0.965-0.662-1.287-2.327-1.287c-0.983,0-1.552,0.076-2.346,0.227l0.397-7.739h8.249v3.065h-5.165l-0.114,1.76
			c0.397-0.076,0.738-0.133,1.457-0.133c2.989,0,4.446,1.306,4.446,4.163c0,2.819-2.043,4.484-5.601,4.484
			C354.279,134.881,353.012,134.503,352.142,134.087z"/>
		<path fill="#FFFFFF" d="M362.758,131.324h3.689v3.33h-3.689V131.324z"/>
		<path fill="#FFFFFF" d="M366.997,128.505v-0.681c0-4.9,3.084-6.509,6.206-6.509c3.368,0,6.13,1.741,6.13,6.376v0.681
			c0,4.825-3.064,6.509-6.225,6.509C369.74,134.881,366.997,133.179,366.997,128.505z M374.755,128.6v-0.833
			c0-2.8-0.53-3.406-1.59-3.406s-1.589,0.567-1.589,3.254v0.833c0,2.611,0.454,3.387,1.57,3.387
			C374.281,131.835,374.755,131.249,374.755,128.6z"/>
	</g>
	<g>
		<path fill="#FFFFFF" d="M200.023,121.263h2.265v10.379h-2.265V121.263z"/>
		<path fill="#FFFFFF" d="M204.868,129.573v-2.685c0-0.42,0.075-1.095,0.075-1.095h-1.08v-1.53h1.08c0,0-0.075-0.69-0.075-1.11
			v-1.305h2.16v1.305c0,0.42-0.09,1.11-0.09,1.11h1.68v1.53h-1.68c0,0,0.09,0.675,0.09,1.095v2.4c0,0.66,0.21,0.87,0.885,0.87
			c0.27,0,0.57-0.06,0.78-0.12v1.38c-0.315,0.15-0.9,0.36-1.59,0.36C205.618,131.777,204.868,131.178,204.868,129.573z"/>
		<path fill="#FFFFFF" d="M209.728,129.542c0-1.53,0.975-2.19,2.895-2.325l1.065-0.075v-0.69c0-0.96-0.54-1.215-1.5-1.215
			c-0.75,0-1.365,0.135-1.845,0.27v-1.395c0.69-0.255,1.53-0.48,2.595-0.48c1.905,0,2.895,0.72,2.895,2.595v5.415h-1.62l-0.27-0.87
			h-0.135c-0.345,0.555-1.005,1.05-1.92,1.05C210.583,131.823,209.728,131.042,209.728,129.542z M213.733,130.038v-1.905
			l-0.84,0.045c-0.72,0.045-1.08,0.465-1.08,1.23c0,0.795,0.27,1.125,0.9,1.125C213.163,130.533,213.538,130.278,213.733,130.038z"
			/>
		<path fill="#FFFFFF" d="M217.708,130.022v-9.165h2.16v8.865c0,0.435,0.105,0.615,0.495,0.615c0.09,0,0.285-0.03,0.375-0.045v1.275
			c-0.33,0.105-0.705,0.165-1.2,0.165C218.398,131.732,217.708,131.328,217.708,130.022z"/>
		<path fill="#FFFFFF" d="M221.667,133.953v-1.41c0.21,0.06,0.48,0.135,0.855,0.135c0.63,0,1.095-0.24,1.275-0.9l0.06-0.225
			l-2.49-7.77h2.235l0.825,3.135c0.345,1.335,0.435,3.225,0.435,3.225h0.165c0,0,0.195-1.905,0.525-3.225l0.795-3.135h2.04
			l-2.52,8.235c-0.48,1.59-1.44,2.175-2.85,2.175C222.433,134.192,221.938,134.072,221.667,133.953z"/>
	</g>
</g>
<g>
	<g>
		<g>
			<rect x="196.005" y="272.735" fill="#0073BD" width="101.181" height="33.723"/>
		</g>
	</g>
	<g>
		<path fill="#FFFFFF" d="M253.635,295.809v-2.876c0.813,0.208,1.93,0.416,3.046,0.416c1.628,0,2.233-0.341,2.233-1.154
			c0-0.832-0.682-1.06-1.798-1.06h-1.514v-2.819h1.419c1.211,0,1.798-0.303,1.798-1.021c0-0.795-0.662-1.003-1.911-1.003
			c-1.098,0-2.176,0.17-2.895,0.341v-2.896c1.021-0.359,2.535-0.699,4.313-0.699c2.857,0,4.749,1.135,4.749,3.367
			c0,1.59-0.965,2.631-2.309,3.027v0.076c1.703,0.303,2.688,1.191,2.688,3.141c0,2.422-1.931,3.955-5.469,3.955
			C255.943,296.604,254.505,296.225,253.635,295.809z"/>
		<path fill="#FFFFFF" d="M270.079,293.462h-5.903v-2.763l6.073-7.454h4.106v7.284h1.854v2.933h-1.854v2.914h-4.276V293.462z
			 M270.154,290.529v-3.103h-0.075l-2.365,3.046v0.057H270.154z"/>
		<path fill="#FFFFFF" d="M277.006,293.046h3.689v3.33h-3.689V293.046z"/>
		<path fill="#FFFFFF" d="M286.828,286.575v-0.076h-5.582v-3.235h10.047v2.876l-4.521,10.236h-4.844L286.828,286.575z"/>
	</g>
	<g>
		<path fill="#FFFFFF" d="M199.963,290.375v-6.96h2.265v6.93c0,1.516,0.675,1.936,1.74,1.936c1.005,0,1.68-0.465,1.68-1.936v-6.93
			h2.07v6.96c0,2.415-1.29,3.6-3.825,3.6C201.283,293.975,199.963,292.775,199.963,290.375z"/>
		<path fill="#FFFFFF" d="M209.938,283.415h2.25v2.94c0,0.75-0.15,2.175-0.15,2.175s0.15,1.455,0.15,2.22v3.045h-2.25V283.415z
			 M212.173,288.5l3.03-5.085h2.355l-1.92,3.105c-0.57,0.899-1.41,1.845-1.41,1.845s0.81,0.99,1.35,1.89l2.175,3.54h-2.55
			L212.173,288.5z"/>
	</g>
</g>
<g>
	<g>
		<g>
			<rect x="196.005" y="151.469" fill="#6CA5DA" width="130.923" height="33.726"/>
		</g>
	</g>
	<g>
		<path fill="#FFFFFF" d="M285.678,172.601h-5.903v-2.762l6.073-7.455h4.106v7.284h1.854v2.933h-1.854v2.914h-4.276V172.601z
			 M285.754,169.668v-3.103h-0.076l-2.365,3.046v0.057H285.754z"/>
		<path fill="#FFFFFF" d="M298.376,172.601h-5.903v-2.762l6.073-7.455h4.106v7.284h1.854v2.933h-1.854v2.914h-4.276V172.601z
			 M298.451,169.668v-3.103h-0.075l-2.365,3.046v0.057H298.451z"/>
		<path fill="#FFFFFF" d="M305.303,172.185h3.689v3.33h-3.689V172.185z"/>
		<path fill="#FFFFFF" d="M310.186,175.174v-3.008c0.568,0.151,1.836,0.341,2.782,0.341c2.535,0,3.311-0.549,3.387-2.251
			c-0.605,0.284-1.457,0.567-2.668,0.567c-2.706,0-4.314-1.287-4.314-4.068c0-2.554,1.646-4.579,5.431-4.579
			c3.897,0,6.055,2.1,6.055,6.055v0.7c0,4.787-2.479,6.812-6.736,6.812C312.248,175.742,310.924,175.515,310.186,175.174z
			 M316.335,167.984v-0.53c0-1.873-0.454-2.516-1.399-2.516c-0.833,0-1.268,0.473-1.268,1.665c0,1.495,0.586,1.627,1.456,1.627
			C315.616,168.23,316.09,168.098,316.335,167.984z"/>
	</g>
	<g>
		<path fill="#FFFFFF" d="M199.708,172.944v-1.74c0.765,0.315,1.665,0.51,2.61,0.51c1.14,0,1.68-0.39,1.68-1.185
			c0-0.72-0.45-1.035-1.335-1.365l-0.765-0.3c-1.455-0.585-2.25-1.32-2.25-3c0-1.89,1.11-3.09,3.57-3.09
			c1.125,0,1.95,0.3,2.46,0.555v1.77c-0.63-0.24-1.38-0.495-2.34-0.495c-1.02,0-1.575,0.375-1.575,1.08c0,0.66,0.33,0.96,1.2,1.275
			l0.795,0.3c1.44,0.525,2.505,1.095,2.505,3.075c0,2.205-1.275,3.21-3.72,3.21C201.538,173.544,200.413,173.319,199.708,172.944z"
			/>
		<path fill="#FFFFFF" d="M207.853,165.504h2.04v0.75h0.135c0.525-0.555,1.05-0.9,1.965-0.9c1.365,0,2.595,0.795,2.595,3.51v0.48
			c0,2.7-1.2,3.87-3.195,3.87c-0.69,0-1.155-0.195-1.365-0.375h-0.15c0,0,0.15,0.87,0.15,1.455v1.53h-2.175V165.504z M212.353,169.6
			v-0.51c0-1.725-0.45-2.085-1.29-2.085c-0.555,0-0.855,0.27-1.095,0.42v4.11c0.255,0.195,0.57,0.285,1.08,0.285
			C211.798,171.819,212.353,171.339,212.353,169.6z"/>
		<path fill="#FFFFFF" d="M215.758,171.264c0-1.53,0.975-2.19,2.895-2.325l1.065-0.075v-0.69c0-0.96-0.54-1.215-1.5-1.215
			c-0.75,0-1.365,0.135-1.845,0.27v-1.395c0.69-0.255,1.53-0.48,2.595-0.48c1.905,0,2.895,0.72,2.895,2.595v5.415h-1.62l-0.27-0.87
			h-0.135c-0.345,0.555-1.005,1.05-1.92,1.05C216.613,173.544,215.758,172.764,215.758,171.264z M219.763,171.759v-1.905
			l-0.84,0.045c-0.72,0.045-1.08,0.465-1.08,1.23c0,0.795,0.27,1.125,0.9,1.125C219.193,172.254,219.568,172,219.763,171.759z"/>
		<path fill="#FFFFFF" d="M223.693,162.625h2.265v1.695h-2.265V162.625z M223.738,165.504h2.175v7.86h-2.175V165.504z"/>
		<path fill="#FFFFFF" d="M227.833,165.504h2.04v0.945h0.135c0.63-0.6,1.35-1.095,2.354-1.095c1.26,0,1.995,0.705,1.995,2.235v5.775
			h-2.189v-5.25c0-0.75-0.165-1.05-0.855-1.05c-0.48,0-0.975,0.24-1.305,0.465v5.835h-2.175V165.504z"/>
	</g>
</g>
<g>
	<g>
		<g>
			<rect x="196.005" y="313.218" fill="#6CA5DA" width="84.807" height="33.723"/>
		</g>
	</g>
	<g>
		<path fill="#6CA5DA" d="M285.431,334.667l2.479-2.194c1.514-1.324,2.402-2.289,2.402-3.481c0-1.079-0.757-1.495-2.062-1.495
			c-1.061,0-1.987,0.303-2.668,0.568v-3.065c0.87-0.379,2.232-0.813,4.2-0.813c3.292,0,5.108,1.438,5.108,4.067
			c0,2.233-1.191,3.558-3.122,5.071l-1.286,1.06v0.057h4.521v3.084h-9.573V334.667z"/>
		<path fill="#6CA5DA" d="M295.801,334.27c0-1.324,0.89-2.44,2.365-3.027c-1.419-0.737-2.024-1.627-2.024-3.178
			c0-2.403,2.081-3.879,5.374-3.879c3.424,0,5.127,1.362,5.127,3.538c0,1.173-0.643,2.214-2.1,2.819
			c1.722,0.699,2.535,1.532,2.535,3.216c0,2.517-2.119,3.993-5.714,3.993C297.447,337.752,295.801,336.238,295.801,334.27z
			 M302.896,333.835c0-0.738-0.436-1.249-2.346-1.627c-0.663,0.397-1.003,0.908-1.003,1.551c0,0.757,0.548,1.287,1.702,1.287
			C302.367,335.046,302.896,334.572,302.896,333.835z M302.953,327.988c0-0.624-0.436-1.06-1.4-1.06
			c-0.908,0-1.362,0.436-1.362,1.021c0,0.662,0.454,1.022,1.779,1.382C302.537,329.048,302.953,328.67,302.953,327.988z"/>
		<path fill="#6CA5DA" d="M307.95,334.194h3.69v3.33h-3.69V334.194z"/>
		<path fill="#6CA5DA" d="M312.739,334.667l2.479-2.194c1.514-1.324,2.402-2.289,2.402-3.481c0-1.079-0.757-1.495-2.062-1.495
			c-1.061,0-1.987,0.303-2.668,0.568v-3.065c0.87-0.379,2.232-0.813,4.2-0.813c3.292,0,5.108,1.438,5.108,4.067
			c0,2.233-1.191,3.558-3.122,5.071l-1.286,1.06v0.057h4.521v3.084h-9.573V334.667z"/>
	</g>
	<g>
		<path fill="#FFFFFF" d="M199.588,329.75v-0.524c0-3.75,2.19-5.145,4.62-5.145c1.035,0,1.935,0.194,2.475,0.42v1.845
			c-0.6-0.21-1.35-0.375-2.16-0.375c-1.38,0-2.505,0.57-2.505,3.09v0.555c0,2.46,0.78,3.33,2.625,3.33c0.9,0,1.635-0.24,2.13-0.51
			v1.77c-0.66,0.375-1.53,0.63-2.685,0.63C201.268,334.835,199.588,333.005,199.588,329.75z"/>
		<path fill="#FFFFFF" d="M208.108,333.051l2.28-3.195c0.6-0.825,1.305-1.38,1.305-1.38v-0.15h-3.39v-1.529h5.565v1.5l-2.325,3.225
			c-0.6,0.854-1.365,1.455-1.365,1.455v0.149h3.63v1.53h-5.7V333.051z"/>
		<path fill="#FFFFFF" d="M215.068,330.98v-0.51c0-2.28,1.275-3.825,3.36-3.825c2.205,0,2.97,1.44,2.97,3.63v0.945h-4.275
			c0.075,1.574,0.69,2.055,1.935,2.055c0.855,0,1.575-0.195,2.175-0.465v1.35c-0.495,0.345-1.26,0.675-2.58,0.675
			C216.478,334.835,215.068,333.516,215.068,330.98z M217.123,330.261c0.315-0.075,0.795-0.181,1.365-0.181h0.975
			c0-1.319-0.255-2.024-1.035-2.024C217.663,328.056,217.138,328.626,217.123,330.261z"/>
		<path fill="#FFFFFF" d="M222.823,330.995v-0.435c0-2.895,1.785-3.915,3.84-3.915c0.945,0,1.425,0.12,1.89,0.3v1.605
			c-0.525-0.165-0.885-0.3-1.68-0.3c-0.915,0-1.785,0.479-1.785,2.159v0.465c0,1.771,0.705,2.37,1.98,2.37
			c0.66,0,1.2-0.18,1.545-0.3v1.38c-0.375,0.24-1.11,0.51-2.13,0.51C224.128,334.835,222.823,333.455,222.823,330.995z"/>
		<path fill="#FFFFFF" d="M230.218,323.871h2.175v1.994c0,0.721-0.135,1.875-0.135,1.875h0.135c0.63-0.6,1.351-1.095,2.355-1.095
			c1.26,0,1.994,0.705,1.994,2.235v5.774h-2.189v-5.25c0-0.75-0.165-1.05-0.854-1.05c-0.48,0-0.976,0.24-1.306,0.465v5.835h-2.175
			V323.871z"/>
		<path fill="#FFFFFF" d="M242.038,324.275h3.524c2.295,0,3.54,1.021,3.54,3.12c0,1.425-0.645,2.085-1.8,2.505v0.12
			c0,0,0.495,0.51,0.96,1.485l1.485,3.149h-2.325l-1.814-3.975h-1.41c0,0,0.09,0.87,0.09,1.425v2.55h-2.25V324.275z
			 M245.413,329.226c0.99,0,1.47-0.675,1.47-1.725c0-1.005-0.42-1.575-1.484-1.575h-1.245c0,0,0.09,0.66,0.09,1.08v1.125
			c0,0.42-0.09,1.095-0.09,1.095H245.413z"/>
		<path fill="#FFFFFF" d="M250.528,330.98v-0.51c0-2.28,1.274-3.825,3.359-3.825c2.205,0,2.97,1.44,2.97,3.63v0.945h-4.274
			c0.075,1.574,0.69,2.055,1.935,2.055c0.855,0,1.575-0.195,2.175-0.465v1.35c-0.494,0.345-1.26,0.675-2.579,0.675
			C251.938,334.835,250.528,333.516,250.528,330.98z M252.583,330.261c0.315-0.075,0.795-0.181,1.365-0.181h0.975
			c0-1.319-0.255-2.024-1.035-2.024C253.123,328.056,252.598,328.626,252.583,330.261z"/>
		<path fill="#FFFFFF" d="M258.508,326.796h2.04v0.75h0.135c0.524-0.556,1.05-0.9,1.965-0.9c1.365,0,2.595,0.795,2.595,3.51v0.48
			c0,2.699-1.2,3.869-3.195,3.869c-0.689,0-1.154-0.194-1.364-0.375h-0.15c0,0,0.15,0.87,0.15,1.455v1.53h-2.175V326.796z
			 M263.007,330.891v-0.51c0-1.726-0.449-2.085-1.289-2.085c-0.556,0-0.855,0.27-1.096,0.42v4.109
			c0.255,0.195,0.57,0.285,1.08,0.285C262.452,333.11,263.007,332.63,263.007,330.891z"/>
	</g>
</g>
<g>
	<g>
		<g>
			<rect x="196.005" y="353.674" fill="#0073BD" width="125.383" height="33.725"/>
		</g>
	</g>
	<g>
		<path fill="#FFFFFF" d="M282.492,374.752h-5.903v-2.762l6.073-7.455h4.106v7.284h1.854v2.933h-1.854v2.914h-4.276V374.752z
			 M282.568,371.819v-3.103h-0.076l-2.365,3.046v0.057H282.568z"/>
		<path fill="#FFFFFF" d="M289.192,377.099v-2.876c0.813,0.208,1.93,0.416,3.046,0.416c1.628,0,2.233-0.341,2.233-1.154
			c0-0.832-0.682-1.06-1.798-1.06h-1.514v-2.819h1.419c1.211,0,1.798-0.303,1.798-1.021c0-0.795-0.662-1.003-1.911-1.003
			c-1.098,0-2.176,0.171-2.896,0.341v-2.895c1.022-0.36,2.536-0.7,4.314-0.7c2.857,0,4.749,1.135,4.749,3.367
			c0,1.59-0.965,2.63-2.309,3.027v0.076c1.703,0.303,2.688,1.192,2.688,3.141c0,2.422-1.931,3.954-5.469,3.954
			C291.501,377.893,290.062,377.515,289.192,377.099z"/>
		<path fill="#FFFFFF" d="M299.96,374.336h3.69v3.33h-3.69V374.336z"/>
		<path fill="#FFFFFF" d="M304.2,371.517v-0.681c0-4.9,3.084-6.509,6.206-6.509c3.368,0,6.13,1.74,6.13,6.376v0.682
			c0,4.824-3.064,6.508-6.225,6.508C306.943,377.893,304.2,376.19,304.2,371.517z M311.958,371.611v-0.832
			c0-2.801-0.53-3.406-1.59-3.406s-1.589,0.567-1.589,3.254v0.833c0,2.611,0.454,3.387,1.57,3.387
			C311.484,374.847,311.958,374.26,311.958,371.611z"/>
	</g>
	<g>
		<path fill="#FFFFFF" d="M201.943,367.502c0-0.57,0.105-1.455,0.105-1.455h-2.565v-1.771h7.215v1.771h-2.565
			c0,0,0.105,0.885,0.105,1.455v7.154h-2.295V367.502z"/>
		<path fill="#FFFFFF" d="M206.954,371.102v-0.646c0-2.43,1.365-3.81,3.465-3.81c2.295,0,3.45,1.396,3.45,3.735v0.645
			c0,2.43-1.365,3.825-3.45,3.825C208.094,374.852,206.954,373.411,206.954,371.102z M211.648,371.146v-0.75
			c0-1.725-0.45-2.265-1.245-2.265c-0.855,0-1.245,0.645-1.245,2.204v0.735c0,1.785,0.45,2.28,1.26,2.28
			C211.258,373.352,211.648,372.812,211.648,371.146z"/>
		<path fill="#FFFFFF" d="M215.923,372.586v-2.685c0-0.42,0.075-1.095,0.075-1.095h-1.08v-1.53h1.08c0,0-0.075-0.689-0.075-1.109
			v-1.306h2.16v1.306c0,0.42-0.09,1.109-0.09,1.109h1.68v1.53h-1.68c0,0,0.09,0.675,0.09,1.095v2.4c0,0.659,0.21,0.869,0.885,0.869
			c0.27,0,0.57-0.06,0.78-0.119v1.38c-0.315,0.149-0.9,0.359-1.59,0.359C216.673,374.791,215.923,374.191,215.923,372.586z"/>
		<path fill="#FFFFFF" d="M220.783,372.557c0-1.53,0.975-2.19,2.895-2.325l1.065-0.075v-0.689c0-0.96-0.54-1.215-1.5-1.215
			c-0.75,0-1.365,0.135-1.845,0.27v-1.395c0.69-0.256,1.53-0.48,2.595-0.48c1.905,0,2.895,0.72,2.895,2.595v5.415h-1.62l-0.27-0.87
			h-0.135c-0.345,0.555-1.005,1.05-1.92,1.05C221.638,374.836,220.783,374.057,220.783,372.557z M224.788,373.052v-1.905
			l-0.84,0.045c-0.72,0.045-1.08,0.465-1.08,1.229c0,0.796,0.27,1.125,0.9,1.125C224.218,373.546,224.593,373.291,224.788,373.052z"
			/>
		<path fill="#FFFFFF" d="M228.763,373.036v-9.164h2.16v8.864c0,0.435,0.105,0.615,0.495,0.615c0.09,0,0.285-0.03,0.375-0.045v1.274
			c-0.33,0.105-0.705,0.165-1.2,0.165C229.453,374.746,228.763,374.341,228.763,373.036z"/>
		<path fill="#FFFFFF" d="M236.562,364.276h6.18v1.755h-4.064c0,0,0.09,0.57,0.09,0.9v0.63c0,0.36-0.09,0.93-0.09,0.93h3.194v1.665
			h-3.194c0,0,0.09,0.601,0.09,0.976v0.795c0,0.39-0.09,0.975-0.09,0.975h4.154v1.755h-6.27V364.276z"/>
		<path fill="#FFFFFF" d="M244.933,371.236v-6.96h2.265v6.93c0,1.516,0.675,1.936,1.74,1.936c1.005,0,1.68-0.465,1.68-1.936v-6.93
			h2.07v6.96c0,2.415-1.29,3.6-3.825,3.6C246.253,374.836,244.933,373.637,244.933,371.236z"/>
	</g>
</g>
</svg>
