<?xml version="1.0" encoding="utf-8"?>
<!-- Generator: Adobe Illustrator 16.2.1, SVG Export Plug-In . SVG Version: 6.00 Build 0)  -->
<!DOCTYPE svg PUBLIC "-//W3C//DTD SVG 1.1//EN" "http://www.w3.org/Graphics/SVG/1.1/DTD/svg11.dtd">
<svg version="1.1" id="Layer_1" xmlns="http://www.w3.org/2000/svg" xmlns:xlink="http://www.w3.org/1999/xlink" x="0px" y="0px"
	 width="6912px" height="6912px" viewBox="0 0 6912 6912" enable-background="new 0 0 6912 6912" xml:space="preserve">
<rect fill="#DCDBDB" width="6912" height="6912"/>
<rect x="3388" y="2296.5" fill="#4F4F4F" width="136" height="3392"/>
<polygon fill="#4F4F4F" points="3459.456,5367.168 3459.456,5367.168 1797.12,6203.52 5114.88,6203.52 "/>
<circle fill="#FA5C4F" cx="3459.456" cy="2187.647" r="369.792"/>
<g>
	<path fill="#FA5C4F" d="M2903.04,1911.168l-279.937-134.784c-62.208,124.416-100.224,266.112-100.224,414.72
		c0,148.608,38.016,293.76,100.224,414.721l279.937-134.785c-41.472-79.487-69.12-179.711-69.12-279.936
		C2840.832,2087.424,2861.568,1990.656,2903.04,1911.168z"/>
	<path fill="#FA5C4F" d="M4008.96,1911.168c41.472,79.488,69.12,179.712,69.12,279.936c0,100.225-24.192,193.536-69.12,279.937
		l279.936,134.784c62.208-124.416,100.225-266.112,100.225-414.721c0-148.607-38.017-293.76-100.225-414.72L4008.96,1911.168z"/>
</g>
<g>
	<path fill="#FA5C4F" d="M2204.928,1562.111l-273.023-134.783c-120.961,231.552-179.713,483.84-179.713,763.775
		c0,273.024,69.12,535.681,179.713,763.776l279.936-134.784c-93.312-183.168-148.607-397.439-148.607-628.992
		C2063.232,1959.552,2111.615,1748.736,2204.928,1562.111z"/>
	<path fill="#FA5C4F" d="M4707.072,1562.111c93.312,183.168,148.607,397.44,148.607,628.992
		c0,224.641-58.752,435.456-148.607,628.992l279.936,134.784c120.96-231.552,179.712-487.296,179.712-763.775
		c0-276.48-69.12-535.681-179.712-763.776L4707.072,1562.111z"/>
</g>
<g>
	<path fill="#FA5C4F" d="M1517.184,1213.056l-279.936-134.784c-169.344,335.232-262.656,711.937-262.656,1109.376
		c0,397.44,93.312,774.145,262.656,1109.376l279.936-134.784c-148.607-293.76-231.552-618.624-231.552-967.68
		C1289.088,1835.136,1368.576,1506.816,1517.184,1213.056z"/>
	<path fill="#FA5C4F" d="M5398.271,1213.056c148.608,293.761,231.553,618.624,231.553,967.681
		c0,349.056-79.488,677.375-231.553,967.68l279.937,134.784c169.344-335.232,262.656-711.937,262.656-1109.376
		c0-397.44-93.312-774.145-262.656-1109.377L5398.271,1213.056z"/>
</g>
<g id="Layer_2" display="none">
	<path display="inline" fill="#3A3A3A" d="M0,0v6912h6912V0H0z M6566.4,6220.8c0,190.08-155.521,345.601-345.601,345.601H691.199
		c-190.079,0-345.6-155.521-345.6-345.601V691.199c0-190.079,155.521-345.6,345.6-345.6H6220.8
		c190.08,0,345.601,155.521,345.601,345.6V6220.8z"/>
</g>
</svg>
