<?xml version="1.0" encoding="utf-8"?>
<!-- Generator: Adobe Illustrator 19.2.0, SVG Export Plug-In . SVG Version: 6.00 Build 0)  -->
<svg version="1.1" xmlns="http://www.w3.org/2000/svg" xmlns:xlink="http://www.w3.org/1999/xlink" x="0px" y="0px"
	 viewBox="0 0 148.7 140" style="enable-background:new 0 0 148.7 140;" xml:space="preserve">
<style type="text/css">
	.st0{fill:#333333;}
	.st1{fill:none;}
</style>
<g id="Layer_1">
	<g>
		<path class="st0" d="M10.2,123.2l-1.8-7.5l-1.8,7.5H3.3l-3.4-12h3.5l1.8,8l2.1-8h2.4l2.1,8l1.8-8H17l-3.4,12H10.2z"/>
		<path class="st0" d="M17.9,123.2v-12h8.8v2.7H21v1.9h5.6v2.7H21v2h5.7v2.7H17.9z"/>
		<path class="st0" d="M28.5,123.2v-12h3.1v9.3h4.8v2.7H28.5z"/>
		<path class="st0" d="M37.9,123.2v-12H41v9.3h4.8v2.7H37.9z"/>
		<path class="st0" d="M55.6,123.2l-5.1-7v7h-3.1v-12h3.2l4.9,6.6v-6.6h3.1v12H55.6z"/>
		<path class="st0" d="M60.7,123.2v-12h8.8v2.7h-5.7v1.9h5.6v2.7h-5.6v2h5.7v2.7H60.7z"/>
		<path class="st0" d="M70.5,121.6l1.6-2.4c0.9,0.9,2.2,1.6,3.9,1.6c1,0,1.7-0.4,1.7-1c0-1.6-6.8-0.3-6.8-4.9c0-2,1.7-3.8,4.8-3.8
			c1.9,0,3.6,0.6,4.9,1.7l-1.7,2.3c-1-0.8-2.3-1.3-3.5-1.3c-0.9,0-1.3,0.3-1.3,0.8c0,1.5,6.8,0.4,6.8,4.8c0,2.4-1.8,4-5,4
			C73.4,123.5,71.7,122.7,70.5,121.6z"/>
		<path class="st0" d="M81.4,121.6l1.6-2.4c0.9,0.9,2.2,1.6,3.9,1.6c1,0,1.7-0.4,1.7-1c0-1.6-6.8-0.3-6.8-4.9c0-2,1.7-3.8,4.8-3.8
			c1.9,0,3.6,0.6,4.9,1.7l-1.7,2.3c-1-0.8-2.3-1.3-3.5-1.3c-0.9,0-1.3,0.3-1.3,0.8c0,1.5,6.8,0.4,6.8,4.8c0,2.4-1.8,4-5,4
			C84.3,123.5,82.6,122.7,81.4,121.6z"/>
		<path class="st0" d="M105,123.2c-0.2-0.2-0.5-0.5-0.7-0.7c-0.9,0.6-1.9,1-3.1,1c-2.3,0-4.1-1.2-4.1-3.5c0-1.8,1.2-2.7,2.5-3.4
			c-0.4-0.8-0.7-1.7-0.7-2.5c0-1.6,1.5-2.9,3.6-2.9c1.8,0,3.4,1,3.4,2.6c0,1.9-1.4,2.6-2.9,3.3c0.3,0.4,0.6,0.8,0.9,1.1
			c0.3,0.3,0.5,0.7,0.8,1c0.4-0.7,0.8-1.4,1-2.1l2.2,1c-0.5,1-1,1.9-1.7,2.8c0.7,0.8,1.5,1.6,2.3,2.5H105z M102.8,120.9
			c-0.5-0.5-0.9-1-1.1-1.3c-0.4-0.4-0.7-0.9-1.1-1.4c-0.4,0.4-0.7,0.8-0.7,1.4c0,1,0.7,1.7,1.6,1.7
			C102,121.3,102.4,121.2,102.8,120.9z M102,115.5c0.9-0.4,1.5-0.9,1.5-1.6c0-0.5-0.4-0.8-0.9-0.8c-0.6,0-1,0.5-1,1
			C101.6,114.5,101.7,114.9,102,115.5z"/>
		<path class="st0" d="M3.8,139.2v-9.3H0.4v-2.7h9.8v2.7H6.9v9.3H3.8z"/>
		<path class="st0" d="M19.8,139.2v-4.8h-5v4.8h-3.1v-12h3.1v4.5h5v-4.5h3.1v12H19.8z"/>
		<path class="st0" d="M25,139.2v-12h8.8v2.7h-5.7v1.9h5.6v2.7h-5.6v2h5.7v2.7H25z"/>
		<path class="st0" d="M42.3,139.2l-2-4h-1.6v4h-3.1v-12h6c2.7,0,4.2,1.8,4.2,4c0,2.1-1.3,3.2-2.4,3.6l2.4,4.4H42.3z M42.7,131.2
			c0-0.8-0.7-1.3-1.5-1.3h-2.4v2.6h2.4C42,132.5,42.7,132.1,42.7,131.2z"/>
		<path class="st0" d="M58.1,139.2v-7.9l-3,7.9h-1.4l-3-7.9v7.9h-3.1v-12h4.3l2.5,6.6l2.5-6.6h4.3v12H58.1z"/>
		<path class="st0" d="M71.5,139.2l-0.6-1.7h-4.7l-0.6,1.7H62l4.5-12h3.9l4.5,12H71.5z M68.5,130.3l-1.5,4.5h3L68.5,130.3z"/>
		<path class="st0" d="M75.8,139.2v-12h3.1v9.3h4.8v2.7H75.8z"/>
		<path class="st0" d="M89.9,139.2v-12h6.8c2.4,0,3.5,1.5,3.5,3.1c0,1.5-0.9,2.5-2.1,2.8c1.3,0.2,2.3,1.4,2.3,2.9
			c0,1.7-1.2,3.3-3.5,3.3H89.9z M97.1,130.9c0-0.6-0.4-0.9-1.1-0.9h-3v1.9h3C96.6,131.8,97.1,131.5,97.1,130.9z M97.3,135.5
			c0-0.6-0.4-1-1.2-1H93v2h3.1C96.9,136.5,97.3,136.2,97.3,135.5z"/>
		<path class="st0" d="M110.3,139.2l-0.6-1.7H105l-0.6,1.7h-3.5l4.5-12h3.9l4.5,12H110.3z M107.4,130.3l-1.5,4.5h3L107.4,130.3z"/>
		<path class="st0" d="M116.3,139.2v-9.3h-3.4v-2.7h9.8v2.7h-3.3v9.3H116.3z"/>
		<path class="st0" d="M132.3,139.2v-4.8h-5v4.8h-3.1v-12h3.1v4.5h5v-4.5h3.1v12H132.3z"/>
		<path class="st0" d="M136.7,137.6l1.6-2.4c0.9,0.9,2.2,1.6,3.9,1.6c1,0,1.7-0.4,1.7-1c0-1.6-6.8-0.3-6.8-4.9c0-2,1.7-3.8,4.8-3.8
			c1.9,0,3.6,0.6,4.9,1.7l-1.7,2.3c-1-0.8-2.3-1.3-3.5-1.3c-0.9,0-1.3,0.3-1.3,0.8c0,1.5,6.8,0.4,6.8,4.8c0,2.4-1.8,4-5,4
			C139.6,139.5,137.9,138.7,136.7,137.6z"/>
	</g>
	<g>
		<path class="st1" d="M43,79.2c0-0.3,0.1-0.6,0.2-0.8L43,78.5C43,78.7,43,79,43,79.2z"/>
		<path class="st1" d="M8.8,75.5L8.8,75.5c0.7-0.5,1.3-1.1,2-1.6h-0.5C9.7,74.4,9.3,74.9,8.8,75.5z"/>
		<path class="st1" d="M12.1,40.3l0.2-0.1c0-0.1,0-0.1,0.1-0.2h-0.4C12.1,40.1,12.1,40.2,12.1,40.3z"/>
		<path class="st1" d="M5.7,41l0.1,0.3l0.5,0.1c0-0.2,0.1-0.3,0.1-0.5l-0.2,0L5.7,41z"/>
		<path class="st0" d="M87.2,31.1c-0.3-0.5-4.1-0.2-5.1,0.9c-6.8,7-9.4,7.8-14.7,2.2c0,0.3,0,0.6,0,0.8v0.1l-0.4,0.6l-0.2,0.1
			c0.1-0.6,0.3-1.1,0.5-1.7c-0.6-0.6-1.2-1.3-1.8-2c-2.3-2.7-4.4-2.6-6.7,0.1c-6.5,7.6-9.8,7.6-16.2,0c-2.3-2.7-4.3-2.8-6.7-0.1
			c-6.7,7.8-9.1,7.6-16.6-0.1c-1-1-4.8-1.4-5.1-0.9c-3,5.2-8.4,6.3-13.3,8.5v3.8c6.1,4.3,10.6-0.2,15.5-3c7.6,6.7,15.3,6.2,22.8-0.1
			c7.8,6.8,15.4,6.2,22.9,0c7.8,6.8,15.5,6.2,22.8,0.1c5,3,9.4,7.1,15.4,2.9v-3.8C95.7,37.4,90.2,36.4,87.2,31.1z M6.2,41.4
			l-0.5-0.1L5.7,41l0.4-0.1l0.2,0C6.3,41,6.3,41.2,6.2,41.4L6.2,41.4z M12.4,40.2l-0.2,0.1c0-0.1,0-0.2-0.1-0.2h0.4
			C12.4,40.1,12.4,40.1,12.4,40.2L12.4,40.2z M27.3,43.6c-0.3-0.2-0.6-0.3-0.9-0.5l0.3-0.2c0.2,0,0.4,0,0.5,0
			C27.3,43.2,27.3,43.4,27.3,43.6z M47.2,39l-0.5,0.3c0-0.3,0-0.6-0.1-0.9l0.6-0.5C47.2,38.3,47.2,38.6,47.2,39L47.2,39z M52.6,43.6
			l-0.2,0.1c0-0.2,0-0.5,0-0.7l0.3-0.2C52.6,43.1,52.6,43.3,52.6,43.6z M55.6,41.9c0-0.4,0.1-0.9,0.1-1.3l0.2-0.1l0.1,1.3L55.6,41.9
			z M63.7,36.4c0-0.5,0-1,0-1.5l0.4-0.3C64,35.2,63.8,35.8,63.7,36.4L63.7,36.4z M76,40.3l-0.2,0.4c0.1-0.8,0.1-1.7,0.2-2.5
			C76.1,38.8,76,39.5,76,40.3L76,40.3z"/>
		<path class="st0" d="M98.7,57.5c-1,0.2-2.1,0.3-3.2,0.3l0.6-0.2c0.3,0.2,0.7,0.2,1.1,0.1c0.6-0.2,1.1-0.6,1.4-1.1
			c-4.3-1.7-8.9-3.1-11.5-7.7c-0.3-0.5-4.1-0.2-5.1,0.9c-7.5,7.8-9.9,7.9-16.6,0.1c-2.3-2.7-4.4-2.6-6.7,0.1c-0.9,1-1.7,1.9-2.5,2.7
			c0,0.2,0,0.4,0,0.6c-0.3,0.2-0.5,0.5-0.7,0.7c0-0.1-0.1-0.3-0.2-0.4c-4.4,3.8-7.6,2.6-12.8-3.5c-2.3-2.7-4.4-2.8-6.7-0.1
			c-6.7,7.8-9.1,7.6-16.6-0.1c-1-1-4.8-1.5-5.1-0.9c-3,5.2-8.4,6.3-13.2,8.4v3.8c6.1,4.3,10.6-0.2,15.5-3c7.6,6.7,15.3,6.2,22.9-0.1
			c7.7,6.9,15.4,6.2,23,0c7.8,6.9,15.4,6.2,22.7,0.2c5,3,9.4,7.1,15.3,2.9v-3.8l-1-0.4C99.4,57.2,99.1,57.4,98.7,57.5z M19.8,52.4
			c-0.1,0.1-0.1,0.6-0.2,0.3c0,0.3,0,0.6-0.1,0.8c0-0.5,0,0-0.1-0.5c0-0.7,0-1.5,0-2.2c0.1,0.6,0.1,1.1,0.2,1.7c0,0.1,0,0.1,0,0.2
			c0-0.3,0-0.5,0.1-0.8L19.8,52.4c0,0,0,0,0.1,0.3L19.8,52.4z M26.2,60.5l-0.6,0.3c0-0.1,0-0.2,0-0.4l0.7-0.6c0,0.2,0,0.5,0,0.7
			L26.2,60.5z M26.7,56l0.2-0.2l0.8,0.2L26.7,56z M48.1,60.1c-0.1,0.1-0.2,0.3-0.2,0.5H47l1.7-1.4l0,0
			C48.5,59.5,48.3,59.8,48.1,60.1z M59.6,57.7c0.3-0.4,0.6-0.9,0.9-1.3l0.1,0.2c0.1,0.1,0.1,0.2,0.2,0.3L59.6,57.7z M67,57.6
			l-0.4,0.2c0-0.1,0-0.3,0-0.4c0-0.1,0-0.3-0.1-0.4c0.2-0.1,0.3-0.3,0.4-0.3l0.2-0.1C67.1,57,67.1,57.3,67,57.6z M75.8,57.8
			l-0.2,0.1l-0.1,0.1v-0.2l0.7-0.7c0,0.2,0,0.4,0,0.6L75.8,57.8z"/>
		<path class="st0" d="M87.2,67c-0.3-0.5-4.1-0.2-5.1,0.9c-7.5,7.8-9.9,7.9-16.6,0.1c-2.3-2.7-4.4-2.6-6.7,0.1
			c-6.5,7.6-9.8,7.6-16.2,0c-2.3-2.7-4.3-2.8-6.7-0.1c-6.7,7.8-9.1,7.6-16.6-0.1c-1-1.1-4.8-1.4-5.1-0.9c-3,5.2-8.4,6.3-13.2,8.4
			v3.8c6.1,4.3,10.6-0.2,15.5-3c7.6,6.7,15.3,6.2,22.9-0.1c7.7,6.9,15.4,6.2,22.9,0c7.8,6.8,15.4,6.2,22.8,0.1c5,3,9.4,7.1,15.4,2.9
			v-3.8C95.7,73.3,90.2,72.2,87.2,67z M8.8,75.6L8.8,75.6c0.5-0.6,1-1.2,1.5-1.6h0.5C10.1,74.4,9.4,75,8.8,75.6z M20.7,75.8
			c0.1-0.1,0.1-0.3,0.2-0.5l1.3,0.1h0.1C21.7,75.5,21.2,75.6,20.7,75.8z M32.5,75.8c0-0.2,0-0.3,0-0.5c0.3,0.1,0.5,0.3,0.8,0.5
			c0.2,0.2,0.3,0.4,0.3,0.6C33.3,76,32.9,75.8,32.5,75.8L32.5,75.8z M43.5,76.5c0.1-0.4,0.2-0.7,0.3-1.1l0.1,0
			C43.8,75.8,43.7,76.1,43.5,76.5L43.5,76.5z M61,74v-0.2c0-0.1,0-0.1-0.1-0.2c0.1-0.7,0.1-1.3,0.2-2h0.2c0.1,0.7,0.1,1.3,0.2,2
			C61.3,73.7,61.1,73.8,61,74z"/>
	</g>
</g>
<g id="Layer_2">
</g>
</svg>
