<?xml version="1.0" encoding="UTF-8" standalone="no"?>
<!-- Created with Inkscape (http://www.inkscape.org/) -->

<svg
   xmlns:dc="http://purl.org/dc/elements/1.1/"
   xmlns:cc="http://creativecommons.org/ns#"
   xmlns:rdf="http://www.w3.org/1999/02/22-rdf-syntax-ns#"
   xmlns:svg="http://www.w3.org/2000/svg"
   xmlns="http://www.w3.org/2000/svg"
   xmlns:sodipodi="http://sodipodi.sourceforge.net/DTD/sodipodi-0.dtd"
   xmlns:inkscape="http://www.inkscape.org/namespaces/inkscape"
   width="64.925888in"
   height="59.997143in"
   viewBox="0 0 5843.3294 5399.743"
   id="svg2"
   version="1.1"
   inkscape:version="0.91 r13725"
   sodipodi:docname="newspaper-stand.svg"
   inkscape:export-filename="/home/thomas/Desktop/newspaper-stand-size.png"
   inkscape:export-xdpi="18.48"
   inkscape:export-ydpi="18.48">
  <defs
     id="defs4" />
  <sodipodi:namedview
     id="base"
     pagecolor="#ffffff"
     bordercolor="#666666"
     borderopacity="1.0"
     inkscape:pageopacity="0.0"
     inkscape:pageshadow="2"
     inkscape:zoom="0.088388348"
     inkscape:cx="2663.3459"
     inkscape:cy="3262.6834"
     inkscape:document-units="in"
     inkscape:current-layer="layer1"
     showgrid="false"
     units="ft"
     fit-margin-top="0"
     fit-margin-left="0"
     fit-margin-right="0"
     fit-margin-bottom="0"
     inkscape:window-width="1313"
     inkscape:window-height="744"
     inkscape:window-x="53"
     inkscape:window-y="24"
     inkscape:window-maximized="1"
     showguides="true"
     inkscape:guide-bbox="true"
     inkscape:object-paths="false"
     inkscape:snap-intersection-paths="false"
     inkscape:object-nodes="false"
     inkscape:snap-others="false"
     inkscape:snap-nodes="false" />
  <metadata
     id="metadata7">
    <rdf:RDF>
      <cc:Work
         rdf:about="">
        <dc:format>image/svg+xml</dc:format>
        <dc:type
           rdf:resource="http://purl.org/dc/dcmitype/StillImage" />
        <dc:title></dc:title>
      </cc:Work>
    </rdf:RDF>
  </metadata>
  <g
     inkscape:label="parts"
     inkscape:groupmode="layer"
     id="layer1"
     transform="translate(0,4347.3805)"
     style="display:inline">
    <path
       style="fill:#cacaca;fill-opacity:1;fill-rule:evenodd;stroke:#000000;stroke-width:1;stroke-linecap:butt;stroke-linejoin:miter;stroke-miterlimit:4;stroke-dasharray:none;stroke-opacity:1"
       d="m 1154.2871,-3852.0918 0,4903.954 404.7957,0 c 0,-137.03075 72.5376,-122.33335 202.3978,-124.00005 l 404.7956,0 c 144.8057,-0.9954 201.7484,-14.818 202.3978,124.00005 l 404.7957,0 0,-2886.2383 c 0,-368.6122 -952.4015,-230.0893 -1002.0397,-536.0714 l -351.4286,-1465.6443 c -7.2273,-45.8515 -33.7896,-62.0001 -66.4285,-62 l -132.8572,0 c -35.4011,-10e-5 -66.4286,-10e-5 -66.4286,46 z"
       id="path4136"
       inkscape:connector-curvature="0"
       sodipodi:nodetypes="ccccccccccccc" />
    <rect
       style="color:#000000;clip-rule:nonzero;display:inline;overflow:visible;visibility:visible;opacity:1;isolation:auto;mix-blend-mode:normal;color-interpolation:sRGB;color-interpolation-filters:linearRGB;solid-color:#000000;solid-opacity:1;fill:#cacaca;fill-opacity:1;fill-rule:nonzero;stroke:#000000;stroke-width:0.99920899;stroke-linecap:square;stroke-linejoin:round;stroke-miterlimit:4;stroke-dasharray:none;stroke-dashoffset:0;stroke-opacity:1;marker:none;color-rendering:auto;image-rendering:auto;shape-rendering:auto;text-rendering:auto;enable-background:accumulate"
       id="rect4148"
       width="1124.0009"
       height="1439.0007"
       x="2917.2634"
       y="-4345.9893" />
    <rect
       y="-4344.708"
       x="1725.927"
       height="1439.0007"
       width="1124.0009"
       id="rect4150"
       style="color:#000000;clip-rule:nonzero;display:inline;overflow:visible;visibility:visible;opacity:1;isolation:auto;mix-blend-mode:normal;color-interpolation:sRGB;color-interpolation-filters:linearRGB;solid-color:#000000;solid-opacity:1;fill:#cacaca;fill-opacity:1;fill-rule:nonzero;stroke:#000000;stroke-width:0.99920899;stroke-linecap:square;stroke-linejoin:round;stroke-miterlimit:4;stroke-dasharray:none;stroke-dashoffset:0;stroke-opacity:1;marker:none;color-rendering:auto;image-rendering:auto;shape-rendering:auto;text-rendering:auto;enable-background:accumulate" />
    <rect
       style="color:#000000;clip-rule:nonzero;display:inline;overflow:visible;visibility:visible;opacity:1;isolation:auto;mix-blend-mode:normal;color-interpolation:sRGB;color-interpolation-filters:linearRGB;solid-color:#000000;solid-opacity:1;fill:#cacaca;fill-opacity:1;fill-rule:nonzero;stroke:#000000;stroke-width:1.05981362;stroke-linecap:square;stroke-linejoin:round;stroke-miterlimit:4;stroke-dasharray:none;stroke-dashoffset:0;stroke-opacity:1;marker:none;color-rendering:auto;image-rendering:auto;shape-rendering:auto;text-rendering:auto;enable-background:accumulate"
       id="rect4152"
       width="1123.9402"
       height="1618.9402"
       x="4718.8599"
       y="-4346.8506" />
    <path
       sodipodi:nodetypes="ccccccccccccc"
       inkscape:connector-curvature="0"
       id="path4175"
       d="m 4594.0666,-3852.0918 0,4903.954 -404.7957,0 c 0,-137.03079 -72.5375,-122.33339 -202.3978,-123.99999 l -404.7957,0 c -144.8057,-0.9955 -201.7484,-14.8181 -202.3978,123.99999 l -404.7957,0 0,-2886.2383 c 0,-368.6122 952.4016,-230.0893 1002.0399,-536.0714 l 351.4285,-1465.6443 c 7.2273,-45.8515 33.7896,-62.0001 66.4286,-62 l 132.8571,0 c 35.4011,-10e-5 66.4286,-10e-5 66.4286,46 z"
       style="fill:#cacaca;fill-opacity:1;fill-rule:evenodd;stroke:#000000;stroke-width:1;stroke-linecap:butt;stroke-linejoin:miter;stroke-miterlimit:4;stroke-dasharray:none;stroke-opacity:1" />
    <text
       xml:space="preserve"
       style="font-style:normal;font-weight:normal;font-size:40px;line-height:125%;font-family:Sans;letter-spacing:0px;word-spacing:0px;fill:#000000;fill-opacity:1;stroke:none;stroke-width:1px;stroke-linecap:butt;stroke-linejoin:miter;stroke-opacity:1"
       x="5129.8164"
       y="-3584.7747"
       id="text4169"
       sodipodi:linespacing="125%"><tspan
         sodipodi:role="line"
         id="tspan4171"
         x="5129.8164"
         y="-3584.7747"
         style="font-style:normal;font-variant:normal;font-weight:normal;font-stretch:normal;font-size:80px;font-family:Ubuntu;-inkscape-font-specification:Ubuntu">18x12.5</tspan></text>
    <g
       id="g4257"
       transform="translate(0,28.284271)">
      <rect
         style="color:#000000;clip-rule:nonzero;display:inline;overflow:visible;visibility:visible;opacity:1;isolation:auto;mix-blend-mode:normal;color-interpolation:sRGB;color-interpolation-filters:linearRGB;solid-color:#000000;solid-opacity:1;fill:#cacaca;fill-opacity:1;fill-rule:nonzero;stroke:#000000;stroke-width:1.53970182;stroke-linecap:square;stroke-linejoin:round;stroke-miterlimit:4;stroke-dasharray:none;stroke-dashoffset:0;stroke-opacity:1;marker:none;color-rendering:auto;image-rendering:auto;shape-rendering:auto;text-rendering:auto;enable-background:accumulate"
         id="rect4191"
         width="1123.4603"
         height="3418.4602"
         x="0.76960677"
         y="-3926.8679" />
      <text
         xml:space="preserve"
         style="font-style:normal;font-weight:normal;font-size:40px;line-height:125%;font-family:Sans;letter-spacing:0px;word-spacing:0px;fill:#000000;fill-opacity:1;stroke:none;stroke-width:1px;stroke-linecap:butt;stroke-linejoin:miter;stroke-opacity:1"
         x="441.02921"
         y="-2239.8142"
         id="text4173"
         sodipodi:linespacing="125%"><tspan
           sodipodi:role="line"
           id="tspan4175"
           x="441.02921"
           y="-2239.8142"
           style="font-style:normal;font-variant:normal;font-weight:normal;font-stretch:normal;font-size:80px;font-family:Ubuntu;-inkscape-font-specification:Ubuntu">38x12.5</tspan></text>
    </g>
    <text
       sodipodi:linespacing="125%"
       id="text4177"
       y="-3603.6377"
       x="2119.9998"
       style="font-style:normal;font-weight:normal;font-size:40px;line-height:125%;font-family:Sans;letter-spacing:0px;word-spacing:0px;fill:#000000;fill-opacity:1;stroke:none;stroke-width:1px;stroke-linecap:butt;stroke-linejoin:miter;stroke-opacity:1"
       xml:space="preserve"><tspan
         style="font-style:normal;font-variant:normal;font-weight:normal;font-stretch:normal;font-size:80px;font-family:Ubuntu;-inkscape-font-specification:Ubuntu"
         y="-3603.6377"
         x="2119.9998"
         id="tspan4179"
         sodipodi:role="line">16x12.5</tspan></text>
    <text
       xml:space="preserve"
       style="font-style:normal;font-weight:normal;font-size:40px;line-height:125%;font-family:Sans;letter-spacing:0px;word-spacing:0px;fill:#000000;fill-opacity:1;stroke:none;stroke-width:1px;stroke-linecap:butt;stroke-linejoin:miter;stroke-opacity:1"
       x="3327.9998"
       y="-3611.6377"
       id="text4181"
       sodipodi:linespacing="125%"><tspan
         sodipodi:role="line"
         id="tspan4183"
         x="3327.9998"
         y="-3611.6377"
         style="font-style:normal;font-variant:normal;font-weight:normal;font-stretch:normal;font-size:80px;font-family:Ubuntu;-inkscape-font-specification:Ubuntu">16x12.5</tspan></text>
    <text
       sodipodi:linespacing="125%"
       id="text4185"
       y="-791.6377"
       x="1811.9998"
       style="font-style:normal;font-weight:normal;font-size:40px;line-height:125%;font-family:Sans;letter-spacing:0px;word-spacing:0px;fill:#000000;fill-opacity:1;stroke:none;stroke-width:1px;stroke-linecap:butt;stroke-linejoin:miter;stroke-opacity:1"
       xml:space="preserve"><tspan
         style="font-style:normal;font-variant:normal;font-weight:normal;font-stretch:normal;font-size:80px;font-family:Ubuntu;-inkscape-font-specification:Ubuntu"
         y="-791.6377"
         x="1811.9998"
         id="tspan4187"
         sodipodi:role="line">55x18</tspan></text>
    <text
       xml:space="preserve"
       style="font-style:normal;font-weight:normal;font-size:40px;line-height:125%;font-family:Sans;letter-spacing:0px;word-spacing:0px;fill:#000000;fill-opacity:1;stroke:none;stroke-width:1px;stroke-linecap:butt;stroke-linejoin:miter;stroke-opacity:1"
       x="1793.2225"
       y="984.47986"
       id="text4207"
       sodipodi:linespacing="125%"><tspan
         sodipodi:role="line"
         id="tspan4209"
         x="1793.2225"
         y="984.47986" /></text>
    <g
       id="g4252"
       transform="translate(-2,3878.9451)">
      <rect
         y="-4340.7349"
         x="3.6688812"
         height="1349.0325"
         width="1124.0326"
         id="rect4152-3"
         style="color:#000000;clip-rule:nonzero;display:inline;overflow:visible;visibility:visible;opacity:1;isolation:auto;mix-blend-mode:normal;color-interpolation:sRGB;color-interpolation-filters:linearRGB;solid-color:#000000;solid-opacity:1;fill:#cacaca;fill-opacity:1;fill-rule:nonzero;stroke:#000000;stroke-width:0.96748257;stroke-linecap:square;stroke-linejoin:round;stroke-miterlimit:4;stroke-dasharray:none;stroke-dashoffset:0;stroke-opacity:1;marker:none;color-rendering:auto;image-rendering:auto;shape-rendering:auto;text-rendering:auto;enable-background:accumulate" />
      <text
         sodipodi:linespacing="125%"
         id="text4169-6"
         y="-3577.0837"
         x="414.6716"
         style="font-style:normal;font-weight:normal;font-size:40px;line-height:125%;font-family:Sans;letter-spacing:0px;word-spacing:0px;display:inline;fill:#000000;fill-opacity:1;stroke:none;stroke-width:1px;stroke-linecap:butt;stroke-linejoin:miter;stroke-opacity:1"
         xml:space="preserve"><tspan
           style="font-style:normal;font-variant:normal;font-weight:normal;font-stretch:normal;font-size:80px;font-family:Ubuntu;-inkscape-font-specification:Ubuntu"
           y="-3577.0837"
           x="414.6716"
           id="tspan4171-7"
           sodipodi:role="line">15x12.5</tspan></text>
    </g>
    <text
       sodipodi:linespacing="125%"
       id="text4185-5"
       y="-807.87781"
       x="3728.8367"
       style="font-style:normal;font-weight:normal;font-size:40px;line-height:125%;font-family:Sans;letter-spacing:0px;word-spacing:0px;display:inline;fill:#000000;fill-opacity:1;stroke:none;stroke-width:1px;stroke-linecap:butt;stroke-linejoin:miter;stroke-opacity:1"
       xml:space="preserve"><tspan
         style="font-style:normal;font-variant:normal;font-weight:normal;font-stretch:normal;font-size:80px;font-family:Ubuntu;-inkscape-font-specification:Ubuntu"
         y="-807.87781"
         x="3728.8367"
         id="tspan4187-3"
         sodipodi:role="line">55x18</tspan></text>
    <text
       xml:space="preserve"
       style="font-style:normal;font-weight:normal;font-size:180px;line-height:125%;font-family:Sans;letter-spacing:0px;word-spacing:0px;fill:#000000;fill-opacity:1;stroke:none;stroke-width:1px;stroke-linecap:butt;stroke-linejoin:miter;stroke-opacity:1"
       x="279.99951"
       y="-2459.6379"
       id="text4262"
       sodipodi:linespacing="125%"><tspan
         sodipodi:role="line"
         id="tspan4264"
         x="279.99951"
         y="-2459.6379"
         style="font-size:125.00000763px">Back - top</tspan></text>
    <text
       sodipodi:linespacing="125%"
       id="text4266"
       y="100.36235"
       x="127.9995"
       style="font-style:normal;font-weight:normal;font-size:180px;line-height:125%;font-family:Sans;letter-spacing:0px;word-spacing:0px;fill:#000000;fill-opacity:1;stroke:none;stroke-width:1px;stroke-linecap:butt;stroke-linejoin:miter;stroke-opacity:1"
       xml:space="preserve"><tspan
         y="100.36235"
         x="127.9995"
         id="tspan4268"
         sodipodi:role="line"
         style="font-size:125.00000763px">Back - bottom</tspan></text>
    <text
       xml:space="preserve"
       style="font-style:normal;font-weight:normal;font-size:180px;line-height:125%;font-family:Sans;letter-spacing:0px;word-spacing:0px;fill:#000000;fill-opacity:1;stroke:none;stroke-width:1px;stroke-linecap:butt;stroke-linejoin:miter;stroke-opacity:1"
       x="1663.9995"
       y="-1027.6377"
       id="text4270"
       sodipodi:linespacing="125%"><tspan
         style="font-size:125.00000763px"
         sodipodi:role="line"
         id="tspan4272"
         x="1663.9995"
         y="-1027.6377">Left side</tspan></text>
    <text
       sodipodi:linespacing="125%"
       id="text4274"
       y="-1027.6377"
       x="3543.9995"
       style="font-style:normal;font-weight:normal;font-size:180px;line-height:125%;font-family:Sans;letter-spacing:0px;word-spacing:0px;fill:#000000;fill-opacity:1;stroke:none;stroke-width:1px;stroke-linecap:butt;stroke-linejoin:miter;stroke-opacity:1"
       xml:space="preserve"><tspan
         y="-1027.6377"
         x="3543.9995"
         id="tspan4276"
         sodipodi:role="line"
         style="font-size:125.00000763px">Right side</tspan></text>
    <text
       sodipodi:linespacing="125%"
       id="text4278"
       y="-3771.6379"
       x="2063.9995"
       style="font-style:normal;font-weight:normal;font-size:180px;line-height:125%;font-family:Sans;letter-spacing:0px;word-spacing:0px;fill:#000000;fill-opacity:1;stroke:none;stroke-width:1px;stroke-linecap:butt;stroke-linejoin:miter;stroke-opacity:1"
       xml:space="preserve"><tspan
         y="-3771.6379"
         x="2063.9995"
         id="tspan4280"
         sodipodi:role="line"
         style="font-size:125.00000763px">Bottom</tspan></text>
    <text
       xml:space="preserve"
       style="font-style:normal;font-weight:normal;font-size:180px;line-height:125%;font-family:Sans;letter-spacing:0px;word-spacing:0px;fill:#000000;fill-opacity:1;stroke:none;stroke-width:1px;stroke-linecap:butt;stroke-linejoin:miter;stroke-opacity:1"
       x="3307.9995"
       y="-3779.6379"
       id="text4282"
       sodipodi:linespacing="125%"><tspan
         style="font-size:125.00000763px"
         sodipodi:role="line"
         id="tspan4284"
         x="3307.9995"
         y="-3779.6379">Shelf</tspan></text>
    <text
       sodipodi:linespacing="125%"
       id="text4286"
       y="-3779.6379"
       x="5131.9995"
       style="font-style:normal;font-weight:normal;font-size:180px;line-height:125%;font-family:Sans;letter-spacing:0px;word-spacing:0px;fill:#000000;fill-opacity:1;stroke:none;stroke-width:1px;stroke-linecap:butt;stroke-linejoin:miter;stroke-opacity:1"
       xml:space="preserve"><tspan
         y="-3779.6379"
         x="5131.9995"
         id="tspan4288"
         sodipodi:role="line"
         style="font-size:125.00000763px">Cover</tspan></text>
    <path
       sodipodi:nodetypes="ccccccccccccc"
       inkscape:connector-curvature="0"
       id="path4215-5"
       d="m 4709.4999,-1644.7255 44.9996,0 c 83.7533,1.265 132.9902,45.3192 134.9842,134.9726 l 0.032,980.20139 c 3.4729,58.721 29.0588,86.5061 89.9842,89.9844 l 584.9999,0.01 c 52.1076,-1.2679 88.7157,-29.0522 90,-89.9822 l 0,-980.20839 c 1.2632,-85.234 56.3969,-133.7076 135,-134.9726 l 45,0 0,2690.1715 -1125.0001,0 z"
       style="color:#000000;clip-rule:nonzero;display:inline;overflow:visible;visibility:visible;opacity:1;isolation:auto;mix-blend-mode:normal;color-interpolation:sRGB;color-interpolation-filters:linearRGB;solid-color:#000000;solid-opacity:1;fill:#cacaca;fill-opacity:1;fill-rule:nonzero;stroke:#000000;stroke-width:1;stroke-linecap:square;stroke-linejoin:round;stroke-miterlimit:4;stroke-dasharray:none;stroke-dashoffset:0;stroke-opacity:1;marker:none;color-rendering:auto;image-rendering:auto;shape-rendering:auto;text-rendering:auto;enable-background:accumulate" />
    <text
       sodipodi:linespacing="125%"
       id="text4185-5-6"
       y="313.12823"
       x="5117.4072"
       style="font-style:normal;font-weight:normal;font-size:40px;line-height:125%;font-family:Sans;letter-spacing:0px;word-spacing:0px;display:inline;fill:#000000;fill-opacity:1;stroke:none;stroke-width:1px;stroke-linecap:butt;stroke-linejoin:miter;stroke-opacity:1"
       xml:space="preserve"><tspan
         style="font-style:normal;font-variant:normal;font-weight:normal;font-stretch:normal;font-size:80px;font-family:Ubuntu;-inkscape-font-specification:Ubuntu"
         y="313.12823"
         x="5117.4072"
         id="tspan4187-3-2"
         sodipodi:role="line">30x12.5</tspan></text>
    <text
       sodipodi:linespacing="125%"
       id="text4274-9"
       y="93.368233"
       x="5108.5703"
       style="font-style:normal;font-weight:normal;font-size:180px;line-height:125%;font-family:Sans;letter-spacing:0px;word-spacing:0px;display:inline;fill:#000000;fill-opacity:1;stroke:none;stroke-width:1px;stroke-linecap:butt;stroke-linejoin:miter;stroke-opacity:1"
       xml:space="preserve"><tspan
         y="93.368233"
         x="5108.5703"
         id="tspan4276-1"
         sodipodi:role="line"
         style="font-size:125.00000763px">Front</tspan></text>
  </g>
  <g
     style="display:none"
     transform="translate(0,4347.3805)"
     id="g4225"
     inkscape:groupmode="layer"
     inkscape:label="exploded">
    <path
       sodipodi:nodetypes="ccccccccccccc"
       inkscape:connector-curvature="0"
       id="path4227"
       d="m 3704.2871,-3902.0918 0,4903.954 404.7957,0 c 0,-137.03075 72.5376,-122.33335 202.3978,-124.00005 l 404.7956,0 c 144.8057,-0.9954 201.7484,-14.818 202.3978,124.00005 l 404.7957,0 0,-2886.2383 c 0,-368.6122 -952.4015,-230.0893 -1002.0397,-536.0714 l -351.4286,-1465.6443 c -7.2273,-45.8515 -33.7896,-62.0001 -66.4285,-62 l -132.8572,0 c -35.4011,-10e-5 -66.4286,-10e-5 -66.4286,46 z"
       style="fill:#cacaca;fill-opacity:1;fill-rule:evenodd;stroke:#000000;stroke-width:1;stroke-linecap:butt;stroke-linejoin:miter;stroke-miterlimit:4;stroke-dasharray:none;stroke-opacity:1" />
    <path
       inkscape:connector-curvature="0"
       id="path4229"
       d="m 6155.1687,1103.9277 c -10.8712,-3.1114 -31.6252,-10.0329 -46.12,-15.3811 l -26.3543,-9.7238 1.2758,-69.6624 c 1.3822,-75.46945 6.0553,-90.03323 45.487,-141.76135 11.9453,-15.67033 25.1877,-39.38918 29.4275,-52.70857 4.2397,-13.31933 17.3882,-34.59402 29.2188,-47.27702 43.9917,-47.16159 45.5425,-63.59085 11.7124,-124.08487 -40.3831,-72.2116 -41.5219,-157.74239 -2.3793,-178.69088 12.17,-6.5132 13.7349,-13.37777 13.7349,-60.24965 0,-43.31209 -3.151,-59.68818 -17.387,-90.36107 -21.0888,-45.43822 -27.422,-93.60153 -14.6909,-111.72241 7.0421,-10.02339 8.2897,-34.33041 5.6942,-110.94192 -1.828,-53.95849 -0.7493,-170.74533 2.397,-259.52633 4.4824,-126.47763 3.7972,-172.82973 -3.1655,-214.12853 -4.8875,-28.9897 -8.8599,-82.3572 -8.8274,-118.5943 0.053,-61.3107 1.5349,-68.7321 21.3136,-106.8764 18.6588,-35.9847 21.2546,-47.3047 21.2546,-92.6913 0,-28.4354 -4.666,-67.4129 -10.369,-86.6168 -8.8007,-29.6353 -9.316,-47.0057 -3.407,-114.8487 3.8292,-43.9629 8.7821,-130.3351 11.0067,-191.9382 2.4885,-68.9116 8.6916,-133.5528 16.1227,-168.0086 10.9239,-50.6514 14.4699,-100.5571 23.2291,-326.9164 2.9817,-77.0557 17.2661,-166.0209 32.4761,-202.2661 12.1965,-29.0641 8.1174,-93.8619 -7.8986,-125.4728 -7.8723,-15.5375 -8.7579,-41.6405 -5.0295,-148.2428 8.0588,-230.4122 -21.5225,-323.0883 -120.0722,-376.1782 -13.7522,-7.4086 -35.381,-26.9712 -48.064,-43.4726 -12.683,-16.5015 -34.1782,-42.7722 -47.7672,-58.3794 -13.5889,-15.6072 -24.7071,-34.3988 -24.7071,-41.7593 0,-7.3604 -4.008,-14.9206 -8.9066,-16.8004 -12.0263,-4.6149 -91.4594,-125.1204 -108.8883,-165.1909 -7.6871,-17.6733 -13.9765,-43.2512 -13.9765,-56.8398 0,-13.5886 -8.8833,-68.8028 -19.7405,-122.6982 -10.8573,-53.8954 -19.7982,-111.3335 -19.8687,-127.6402 -0.071,-16.3067 -4.4235,-47.4377 -9.6733,-69.18 -5.2499,-21.7423 -9.5304,-66.2151 -9.5122,-98.8286 0.032,-56.293 1.0315,-60.4653 19.7411,-82.3571 10.8802,-12.7308 25.4954,-42.4908 32.6283,-66.439 7.1062,-23.8586 24.8008,-61.7605 39.3214,-84.2267 14.5206,-22.4661 26.401,-42.7115 26.401,-44.9898 0,-2.2783 8.6914,-17.7437 19.3141,-34.3677 10.6228,-16.6239 23.6319,-48.0145 28.9091,-69.7568 13.8765,-57.1721 49.7063,-177.4246 60.7147,-203.7714 13.0717,-31.2852 66.1475,-106.0222 86.8687,-122.3214 16.161,-12.7122 61.9842,-27.9916 136.9163,-45.6534 18.1185,-4.2707 49.4533,-18.7327 69.6327,-32.1379 20.1795,-13.4052 54.787,-34.75 76.9058,-47.433 38.1838,-21.8948 40.4324,-24.5912 44.5018,-53.3632 3.5921,-25.3973 9.0447,-34.281 33.6793,-54.873 l 29.3932,-24.5697 23.9888,14.1537 c 19.5323,11.5244 29.8927,13.3418 55.7691,9.7829 17.4791,-2.4041 33.4911,-7.1393 35.5823,-10.5228 2.0911,-3.3835 -2.0391,-18.6712 -9.1783,-33.9727 -7.1392,-15.3015 -18.1941,-45.0178 -24.5664,-66.0363 -6.3724,-21.0184 -16.3219,-41.7724 -22.1101,-46.12 -5.7882,-4.3475 -19.3706,-20.9238 -30.1831,-36.8362 -18.3291,-26.974 -19.5939,-32.769 -18.6943,-85.6514 1.3447,-79.0447 1.5162,-80.9286 7.0577,-77.5028 2.7178,1.6801 5.0223,-32.982 5.1211,-77.0269 0.2069,-92.061 11.1277,-137.2257 45.2362,-187.075 20.4674,-29.9129 104.4767,-100.1278 120.1389,-100.4119 4.0859,-0.074 11.1198,-4.582 15.631,-10.0176 4.5111,-5.4355 13.0275,-9.9011 18.9252,-9.9234 5.8979,-0.022 19.2156,-4.4696 29.595,-9.8829 23.7975,-12.4112 27.692,-12.4021 17.3655,0.041 -10.1908,12.2792 -7.4452,12.3212 21.2636,0.3259 15.0585,-6.2918 25.0961,-7.3337 29.3803,-3.0495 4.2842,4.2843 12.5014,4.2286 24.0518,-0.1628 13.7936,-5.2446 17.5443,-4.7094 17.5443,2.5032 0,5.6956 12.712,11.9001 33.5272,16.3641 62.8964,13.4889 150.4321,108.1249 173.5414,187.6181 13.9194,47.8809 30.1174,134.1553 30.1188,160.4193 9e-4,16.7537 2.7652,21.4128 12.7042,21.4128 34.3469,0 19.4953,175.0662 -16.0074,188.6899 -16.347,6.2729 -48.1614,83.3215 -50.5646,122.4578 l -2.1339,34.7523 40.5211,-2.111 c 37.326,-1.9444 41.4821,-0.7553 52.7085,15.0819 33.2499,46.9055 77.6573,100.5586 93.9154,113.4687 9.9973,7.9387 31.2767,19.2638 47.2874,25.1669 16.0108,5.9032 51.3469,20.6277 78.5247,32.7211 27.1779,12.0934 70.1683,30.1909 95.5343,40.2166 25.366,10.0257 66.874,27.6433 92.24,39.1501 25.366,11.5069 50.8519,22.5828 56.6354,24.6132 17.8032,6.2503 69.6006,123.0548 118.1784,266.495 10.0714,29.7391 30.5558,76.2518 45.5208,103.3617 19.3825,35.1124 29.8851,64.5113 36.5124,102.2058 5.1169,29.1034 16.5626,70.0539 25.435,91.0012 8.8724,20.9473 23.797,55.8751 33.1659,77.6174 16.8225,39.0396 16.9856,41.0068 13.1121,158.1257 -3.5315,106.7777 -5.788,124.1743 -22.6471,174.5971 -23.0027,68.7978 -45.6643,158.0408 -45.6643,179.8296 0,8.9178 -4.3774,19.847 -9.7275,24.2872 -5.3501,4.4402 -26.7468,33.3892 -47.5482,64.3311 -25.7632,38.3225 -44.3571,58.989 -58.3233,64.8245 -29.6898,12.4052 -58.2867,58.3182 -59.1381,94.9478 -0.618,26.5863 -3.2458,31.3485 -25.7198,46.6112 -30.2301,20.5304 -39.1754,35.0323 -34.0951,55.2739 4.328,17.244 -8.1427,23.0887 -49.597,23.2448 -36.3365,0.1364 -41.9099,11.7352 -42.4795,88.3999 -0.3617,48.6696 -3.4557,72.18 -11.53,87.6071 -9.3302,17.8268 -11.0358,43.0705 -11.0358,163.3339 0,133.3302 -0.8516,143.4001 -13.5826,160.6197 -13.1988,17.8523 -13.2838,19.6596 -3.0077,63.969 5.8161,25.0787 17.858,65.7884 26.7597,90.4659 13.1286,36.3957 16.2143,57.5465 16.3409,112.0085 0.1647,71.0131 5.9741,153.775 22.517,320.8002 13.9919,141.269 14.0046,443.9348 0.02,494.1428 -9.7391,34.9675 -13.7975,134.2584 -6.4357,157.4533 1.9723,6.2145 0.8494,25.9483 -2.4956,43.8529 -3.7565,20.1076 -3.7242,35.3946 0.084,39.9836 5.8726,7.076 25.6768,86.3632 48.3461,193.5559 12.9038,61.0161 13.2269,119.1791 0.8992,161.8713 -5.1603,17.87035 -14.2342,71.03472 -20.1644,118.143 -5.9301,47.10829 -13.8613,98.99329 -17.625,115.3 -10.4184,45.13956 -18.7675,172.0695 -12.1336,184.46511 3.195,5.96984 17.8457,22.89087 32.5571,37.60229 25.0852,25.08513 26.7481,29.10936 26.7481,64.72962 0,37.67325 -0.2978,38.25456 -36.6704,71.60229 -21.5838,19.78877 -36.576,39.04189 -36.4409,46.79783 0.1265,7.24743 2.9258,39.88451 6.2212,72.52686 5.4341,53.82586 9.8135,67.00999 47.0538,141.65428 37.111,74.3853 46.5801,87.6931 98.4119,138.30742 63.0908,61.60888 72.9615,80.4601 72.9615,139.34315 0,49.31796 -9.6574,59.26479 -73.1813,75.37477 -70.1929,17.80128 -148.4672,16.62358 -208.4227,-3.13577 -60.6796,-19.99796 -89.2557,-45.31237 -104.1223,-92.23756 -15.0243,-47.42289 -44.7281,-78.54427 -100.9056,-105.7212 -52.2889,-25.29577 -60.0516,-37.53522 -60.453,-95.31653 -0.1274,-18.48378 -4.4696,-41.019 -9.6484,-50.07828 -13.189,-23.0718 -12.1025,-37.31181 4.0819,-53.49617 14.7436,-14.74364 14.7467,-12.96717 -0.1706,-101.0563 -3.0424,-17.96512 -9.1603,-33.87349 -13.5954,-35.35184 -19.1741,-6.39137 -51.3678,-42.21851 -65.9902,-73.43773 -14.2754,-30.47866 -15.0458,-36.48994 -7.8768,-61.46458 23.1374,-80.60458 28.1037,-134.44145 21.2371,-230.22003 -9.3754,-130.77089 -8.1901,-238.05609 3.1489,-285.0162 5.2499,-21.74223 9.5916,-50.60703 9.6482,-64.14403 0.059,-13.5369 3.614,-37.7402 7.9053,-53.785 11.1767,-41.7883 -1.0456,-78.1412 -37.7716,-112.3442 -36.1994,-33.7128 -40.4187,-51.0083 -23.1384,-94.8488 9.5642,-24.2644 13.5762,-49.4804 13.5762,-85.3281 0,-43.6662 -3.2601,-58.3532 -22.9796,-103.5261 l -22.9795,-52.6409 -0.08,-120.6745 c -0.046,-67.8978 -2.9697,-126.0733 -6.6868,-133.0188 -3.6354,-6.7926 -4.0321,-13.9352 -0.8821,-15.882 3.1483,-1.9458 -4.5082,-24.958 -17.0146,-51.1384 -12.5064,-26.1803 -25.2152,-62.5702 -28.2418,-80.8663 -8.747,-52.8766 -33.1762,-136.0716 -49.4286,-168.3314 -14.106,-27.9995 -24.1822,-58.9595 -32.7767,-100.7088 -4.5658,-22.179 -30.523,-34.6462 -50.2044,-24.1131 -15.6193,8.3592 -43.7564,69.3803 -52.999,114.939 -3.6758,18.1186 -10.6787,47.7672 -15.5622,65.8858 -15.6998,58.2491 -29.4026,124.219 -33.5291,161.4199 -4.3153,38.9029 -43.0926,229.9752 -58.9211,290.3294 -5.2893,20.1682 -9.6169,56.2698 -9.6169,80.2257 0,23.956 -5.7121,72.6816 -12.6935,108.2792 -18.068,92.1265 -26.8379,180.6657 -26.8379,270.9492 0,56.7023 -3.6309,92.4653 -13.1772,129.7908 -7.2474,28.3372 -13.1771,64.25498 -13.1771,79.81732 0,21.39671 -4.0158,32.31095 -16.4714,44.76657 -27.6579,27.6579 -19.2909,71.38935 22.9384,119.89059 14.6166,16.78755 18.5406,29.09546 21.846,68.52266 3.4364,40.99007 2.2024,50.38181 -8.389,63.84668 -6.83,8.68294 -17.1898,36.76614 -23.0217,62.40708 -9.7589,42.90682 -9.7533,49.17947 0.071,78.75734 5.8708,17.67562 13.2011,32.13747 16.2894,32.13747 24.1176,0 1.9275,66.89857 -29.8742,90.06445 -23.2479,16.93494 -32.9812,60.17309 -20.3503,90.40291 5.0946,12.19334 12.5304,24.18908 16.5239,26.65716 3.9934,2.46808 7.2608,10.72277 7.2608,18.34377 0,18.84292 -18.9396,83.09803 -31.4865,106.82176 -6.3729,12.05017 -11.8272,46.51591 -14.4791,91.49332 -4.74,80.39499 1.5982,69.14547 -72.7019,129.03479 -30.4513,24.54513 -59.0284,77.31998 -59.203,109.33326 -0.2101,38.60657 -46.6082,88.26297 -100.9925,108.08547 -42.5405,15.5057 -157.9979,24.0951 -192.2198,14.3002 z m 1285.8954,-3793.867 c 10.898,-17.2127 25.2225,-49.0849 31.8321,-70.8272 6.6095,-21.7422 22.0787,-59.6379 34.376,-84.2126 18.9916,-37.9527 21.7147,-48.9744 18.0831,-73.191 -3.3148,-22.1052 -1.1213,-34.6922 9.7648,-56.0305 10.4676,-20.5181 12.9502,-33.7472 9.7571,-51.9918 -8.2663,-47.232 -24.5752,-88.818 -36.004,-91.8067 -15.1554,-3.9633 -26.1074,-29.6449 -26.1074,-61.2198 0,-18.6167 -3.4899,-27.6802 -12.5186,-32.5122 -15.3908,-8.2369 -20.367,1.7779 -20.5539,41.365 -0.071,15.1043 -4.4152,51.1814 -9.653,80.1711 -5.2379,28.9897 -9.6268,86.2343 -9.7532,127.2101 -0.1483,48.0144 -4.9183,97.2049 -13.4169,138.36 -8.8526,42.8689 -12.3133,80.1004 -10.5286,113.2727 1.4622,27.1779 2.949,50.1555 3.3042,51.0615 3.0234,7.7125 14.7991,-3.4 31.4183,-29.6486 z m -1107.1077,-75.7686 c -2.1703,-26.2719 -7.0387,-115.9588 -10.8186,-199.3043 -8.9965,-198.371 -12.923,-246.161 -20.6155,-250.9152 -9.7976,-6.0553 -49.4581,15.2349 -64.8631,34.8193 -9.9328,12.6274 -13.3828,25.4772 -12.3254,45.9054 1.0806,20.8746 -2.1193,32.3079 -12.1121,43.2771 -28.8033,31.6178 -29.7198,40.2364 -8.5066,79.989 21.5259,40.3387 25.7149,84.3952 12.2861,129.2165 -6.0883,20.321 -5.3716,28.6876 4.1827,48.8217 6.3416,13.364 19.6355,28.4896 29.542,33.6124 9.9066,5.1228 27.4874,24.0806 39.0686,42.1283 19.6044,30.5509 27.9698,38.3842 42.3925,39.6968 3.1436,0.2859 3.9398,-20.9751 1.7694,-47.247 z"
       style="fill:#8888d1;fill-opacity:1;stroke:#000000;stroke-width:0;stroke-miterlimit:4;stroke-dasharray:none;stroke-opacity:1" />
    <rect
       y="779.01074"
       x="2499.2634"
       height="1439.0007"
       width="1124.0009"
       id="rect4231"
       style="color:#000000;clip-rule:nonzero;display:inline;overflow:visible;visibility:visible;opacity:1;isolation:auto;mix-blend-mode:normal;color-interpolation:sRGB;color-interpolation-filters:linearRGB;solid-color:#000000;solid-opacity:1;fill:#cacaca;fill-opacity:1;fill-rule:nonzero;stroke:#000000;stroke-width:0.99920899;stroke-linecap:square;stroke-linejoin:round;stroke-miterlimit:4;stroke-dasharray:none;stroke-dashoffset:0;stroke-opacity:1;marker:none;color-rendering:auto;image-rendering:auto;shape-rendering:auto;text-rendering:auto;enable-background:accumulate" />
    <rect
       style="color:#000000;clip-rule:nonzero;display:inline;overflow:visible;visibility:visible;opacity:1;isolation:auto;mix-blend-mode:normal;color-interpolation:sRGB;color-interpolation-filters:linearRGB;solid-color:#000000;solid-opacity:1;fill:#cacaca;fill-opacity:1;fill-rule:nonzero;stroke:#000000;stroke-width:0.99920899;stroke-linecap:square;stroke-linejoin:round;stroke-miterlimit:4;stroke-dasharray:none;stroke-dashoffset:0;stroke-opacity:1;marker:none;color-rendering:auto;image-rendering:auto;shape-rendering:auto;text-rendering:auto;enable-background:accumulate"
       id="rect4233"
       width="1124.0009"
       height="1439.0007"
       x="2507.427"
       y="2617.792" />
    <rect
       y="-3921.8506"
       x="2501.0435"
       height="1618.9402"
       width="1123.9402"
       id="rect4235"
       style="color:#000000;clip-rule:nonzero;display:inline;overflow:visible;visibility:visible;opacity:1;isolation:auto;mix-blend-mode:normal;color-interpolation:sRGB;color-interpolation-filters:linearRGB;solid-color:#000000;solid-opacity:1;fill:#cacaca;fill-opacity:1;fill-rule:nonzero;stroke:#000000;stroke-width:1.05981362;stroke-linecap:square;stroke-linejoin:round;stroke-miterlimit:4;stroke-dasharray:none;stroke-dashoffset:0;stroke-opacity:1;marker:none;color-rendering:auto;image-rendering:auto;shape-rendering:auto;text-rendering:auto;enable-background:accumulate" />
    <path
       style="fill:#cacaca;fill-opacity:1;fill-rule:evenodd;stroke:#000000;stroke-width:1;stroke-linecap:butt;stroke-linejoin:miter;stroke-miterlimit:4;stroke-dasharray:none;stroke-opacity:1"
       d="m 2456.5666,-3864.5918 0,4903.954 -404.7957,0 c 0,-137.03079 -72.5375,-122.33339 -202.3978,-123.99999 l -404.7957,0 c -144.8057,-0.9955 -201.7484,-14.8181 -202.3978,123.99999 l -404.7957,0 0,-2886.2383 c 0,-368.6122 952.4016,-230.0893 1002.0399,-536.0714 l 351.4285,-1465.6443 c 7.2273,-45.8515 33.7896,-62.0001 66.4286,-62 l 132.8571,0 c 35.4011,-10e-5 66.4286,-10e-5 66.4286,46 z"
       id="path4237"
       inkscape:connector-curvature="0"
       sodipodi:nodetypes="ccccccccccccc" />
    <rect
       style="color:#000000;clip-rule:nonzero;display:inline;overflow:visible;visibility:visible;opacity:1;isolation:auto;mix-blend-mode:normal;color-interpolation:sRGB;color-interpolation-filters:linearRGB;solid-color:#000000;solid-opacity:1;fill:#cacaca;fill-opacity:1;fill-rule:nonzero;stroke:#000000;stroke-width:1.53970182;stroke-linecap:square;stroke-linejoin:round;stroke-miterlimit:4;stroke-dasharray:none;stroke-dashoffset:0;stroke-opacity:1;marker:none;color-rendering:auto;image-rendering:auto;shape-rendering:auto;text-rendering:auto;enable-background:accumulate"
       id="rect4239"
       width="1123.4603"
       height="3418.4602"
       x="2479.7695"
       y="-7741.8682" />
    <rect
       style="color:#000000;clip-rule:nonzero;display:inline;overflow:visible;visibility:visible;opacity:1;isolation:auto;mix-blend-mode:normal;color-interpolation:sRGB;color-interpolation-filters:linearRGB;solid-color:#000000;solid-opacity:1;fill:#cacaca;fill-opacity:1;fill-rule:nonzero;stroke:#000000;stroke-width:0.4325825;stroke-linecap:square;stroke-linejoin:round;stroke-miterlimit:4;stroke-dasharray:none;stroke-dashoffset:0;stroke-opacity:1;marker:none;color-rendering:auto;image-rendering:auto;shape-rendering:auto;text-rendering:auto;enable-background:accumulate"
       id="rect4241"
       width="1124.5674"
       height="269.56741"
       x="2500.7297"
       y="-4250.2896" />
    <path
       style="color:#000000;clip-rule:nonzero;display:inline;overflow:visible;visibility:visible;opacity:1;isolation:auto;mix-blend-mode:normal;color-interpolation:sRGB;color-interpolation-filters:linearRGB;solid-color:#000000;solid-opacity:1;fill:#cacaca;fill-opacity:1;fill-rule:nonzero;stroke:#000000;stroke-width:1;stroke-linecap:square;stroke-linejoin:round;stroke-miterlimit:4;stroke-dasharray:none;stroke-dashoffset:0;stroke-opacity:1;marker:none;color-rendering:auto;image-rendering:auto;shape-rendering:auto;text-rendering:auto;enable-background:accumulate"
       d="m 2512.4999,-1942.726 44.9996,0 c 83.7532,1.265 132.9901,45.3192 134.9841,134.9726 l 0.032,980.2013 c 3.4729,58.721 29.0588,86.5061 89.9842,89.9844 l 584.9999,0.01 c 52.1076,-1.2679 88.7157,-29.0522 90,-89.9822 l 0,-980.2083 c 1.2632,-85.234 56.397,-133.7076 135.0001,-134.9726 l 45,0 0,2690.1712 -1125.0001,0 z"
       id="rect4176-7"
       inkscape:connector-curvature="0"
       sodipodi:nodetypes="ccccccccccccc" />
  </g>
  <g
     inkscape:groupmode="layer"
     id="layer2"
     inkscape:label="front"
     style="display:none"
     transform="translate(0,-0.25730725)">
    <path
       style="color:#000000;clip-rule:nonzero;display:inline;overflow:visible;visibility:visible;opacity:1;isolation:auto;mix-blend-mode:normal;color-interpolation:sRGB;color-interpolation-filters:linearRGB;solid-color:#000000;solid-opacity:1;fill:#cacaca;fill-opacity:1;fill-rule:nonzero;stroke:#000000;stroke-width:1;stroke-linecap:square;stroke-linejoin:round;stroke-miterlimit:4;stroke-dasharray:none;stroke-dashoffset:0;stroke-opacity:1;marker:none;color-rendering:auto;image-rendering:auto;shape-rendering:auto;text-rendering:auto;enable-background:accumulate"
       d="m 0.49995586,2709.3236 44.99960014,0 c 83.753204,1.265 132.990104,45.3192 134.984104,134.9726 l 0.032,980.2013 c 3.4729,58.721 29.0588,86.5061 89.9842,89.9844 l 584.9999,0.01 c 52.1076,-1.2679 88.7157,-29.0522 90,-89.9822 l 0,-980.2083 c 1.2632,-85.234 56.39694,-133.7076 135.00004,-134.9726 l 45,0 0,2690.1712 -1125.00004414,0 z"
       id="rect4176"
       inkscape:connector-curvature="0"
       sodipodi:nodetypes="ccccccccccccc" />
    <path
       sodipodi:nodetypes="ccccccccccccc"
       inkscape:connector-curvature="0"
       id="path4211"
       d="m 1159.6229,2709.3236 44.9996,0 c 83.7532,1.265 132.9901,45.3192 134.9841,134.9726 l 0.032,980.2013 c 3.4729,58.721 29.0588,86.5061 89.9842,89.9844 l 584.9999,0.01 c 52.1076,-1.2679 88.7157,-29.0522 90,-89.9822 l 0,-980.2083 c 1.2632,-85.234 56.3969,-133.7076 135,-134.9726 l 45,0 0,2690.1712 -1125,0 z"
       style="color:#000000;clip-rule:nonzero;display:inline;overflow:visible;visibility:visible;opacity:1;isolation:auto;mix-blend-mode:normal;color-interpolation:sRGB;color-interpolation-filters:linearRGB;solid-color:#000000;solid-opacity:1;fill:#cacaca;fill-opacity:1;fill-rule:nonzero;stroke:#000000;stroke-width:1;stroke-linecap:square;stroke-linejoin:round;stroke-miterlimit:4;stroke-dasharray:none;stroke-dashoffset:0;stroke-opacity:1;marker:none;color-rendering:auto;image-rendering:auto;shape-rendering:auto;text-rendering:auto;enable-background:accumulate" />
    <path
       style="color:#000000;clip-rule:nonzero;display:inline;overflow:visible;visibility:visible;opacity:1;isolation:auto;mix-blend-mode:normal;color-interpolation:sRGB;color-interpolation-filters:linearRGB;solid-color:#000000;solid-opacity:1;fill:#cacaca;fill-opacity:1;fill-rule:nonzero;stroke:#000000;stroke-width:1;stroke-linecap:square;stroke-linejoin:round;stroke-miterlimit:4;stroke-dasharray:none;stroke-dashoffset:0;stroke-opacity:1;marker:none;color-rendering:auto;image-rendering:auto;shape-rendering:auto;text-rendering:auto;enable-background:accumulate"
       d="m 2315.6229,2709.3236 44.9996,0 c 83.7532,1.265 132.9901,45.3192 134.9841,134.9726 l 0.032,980.2013 c 3.4729,58.721 29.0588,86.5061 89.9842,89.9844 l 584.9999,0.01 c 52.1076,-1.2679 88.7157,-29.0522 90,-89.9822 l 0,-980.2083 c 1.2632,-85.234 56.3969,-133.7076 135,-134.9726 l 45,0 0,2690.1712 -1125,0 z"
       id="path4213"
       inkscape:connector-curvature="0"
       sodipodi:nodetypes="ccccccccccccc" />
    <path
       sodipodi:nodetypes="ccccccccccccc"
       inkscape:connector-curvature="0"
       id="path4215"
       d="m 3471.6229,2709.3236 44.9996,0 c 83.7532,1.265 132.9901,45.3192 134.9841,134.9726 l 0.032,980.2013 c 3.4729,58.721 29.0588,86.5061 89.9842,89.9844 l 584.9999,0.01 c 52.1076,-1.2679 88.7157,-29.0522 90,-89.9822 l 0,-980.2083 c 1.2632,-85.234 56.3969,-133.7076 135,-134.9726 l 45,0 0,2690.1712 -1125,0 z"
       style="color:#000000;clip-rule:nonzero;display:inline;overflow:visible;visibility:visible;opacity:1;isolation:auto;mix-blend-mode:normal;color-interpolation:sRGB;color-interpolation-filters:linearRGB;solid-color:#000000;solid-opacity:1;fill:#cacaca;fill-opacity:1;fill-rule:nonzero;stroke:#000000;stroke-width:1;stroke-linecap:square;stroke-linejoin:round;stroke-miterlimit:4;stroke-dasharray:none;stroke-dashoffset:0;stroke-opacity:1;marker:none;color-rendering:auto;image-rendering:auto;shape-rendering:auto;text-rendering:auto;enable-background:accumulate" />
    <path
       style="color:#000000;clip-rule:nonzero;display:inline;overflow:visible;visibility:visible;opacity:1;isolation:auto;mix-blend-mode:normal;color-interpolation:sRGB;color-interpolation-filters:linearRGB;solid-color:#000000;solid-opacity:1;fill:#cacaca;fill-opacity:1;fill-rule:nonzero;stroke:#000000;stroke-width:1;stroke-linecap:square;stroke-linejoin:round;stroke-miterlimit:4;stroke-dasharray:none;stroke-dashoffset:0;stroke-opacity:1;marker:none;color-rendering:auto;image-rendering:auto;shape-rendering:auto;text-rendering:auto;enable-background:accumulate"
       d="m 1126.1225,2690.1036 -44.9996,0 c -83.7532,-1.265 -132.9901,-45.3192 -134.9841,-134.9726 l -0.032,-980.2013 c -3.4729,-58.721 -29.0588,-86.5061 -89.9842,-89.9844 l -584.9999,-0.01 c -52.1076,1.2679 -88.7157,29.0522 -90,89.9822 l 0,980.2083 c -1.2632,85.234 -56.3969,133.7076 -135,134.9726 l -45,0 0,-2690.1712 1125,0 z"
       id="path4217"
       inkscape:connector-curvature="0"
       sodipodi:nodetypes="ccccccccccccc" />
    <path
       sodipodi:nodetypes="ccccccccccccc"
       inkscape:connector-curvature="0"
       id="path4219"
       d="m 2280.1225,2690.1036 -44.9996,0 c -83.7532,-1.265 -132.9901,-45.3192 -134.9841,-134.9726 l -0.032,-980.2013 c -3.4729,-58.721 -29.0588,-86.5061 -89.9842,-89.9844 l -584.9999,-0.01 c -52.1076,1.2679 -88.7157,29.0522 -90,89.9822 l 0,980.2083 c -1.2632,85.234 -56.3969,133.7076 -135,134.9726 l -45,0 0,-2690.1712 1125,0 z"
       style="color:#000000;clip-rule:nonzero;display:inline;overflow:visible;visibility:visible;opacity:1;isolation:auto;mix-blend-mode:normal;color-interpolation:sRGB;color-interpolation-filters:linearRGB;solid-color:#000000;solid-opacity:1;fill:#cacaca;fill-opacity:1;fill-rule:nonzero;stroke:#000000;stroke-width:1;stroke-linecap:square;stroke-linejoin:round;stroke-miterlimit:4;stroke-dasharray:none;stroke-dashoffset:0;stroke-opacity:1;marker:none;color-rendering:auto;image-rendering:auto;shape-rendering:auto;text-rendering:auto;enable-background:accumulate" />
    <path
       style="color:#000000;clip-rule:nonzero;display:inline;overflow:visible;visibility:visible;opacity:1;isolation:auto;mix-blend-mode:normal;color-interpolation:sRGB;color-interpolation-filters:linearRGB;solid-color:#000000;solid-opacity:1;fill:#cacaca;fill-opacity:1;fill-rule:nonzero;stroke:#000000;stroke-width:1;stroke-linecap:square;stroke-linejoin:round;stroke-miterlimit:4;stroke-dasharray:none;stroke-dashoffset:0;stroke-opacity:1;marker:none;color-rendering:auto;image-rendering:auto;shape-rendering:auto;text-rendering:auto;enable-background:accumulate"
       d="m 3436.1225,2690.1036 -44.9996,0 c -83.7532,-1.265 -132.9901,-45.3192 -134.9841,-134.9726 l -0.032,-980.2013 c -3.4729,-58.721 -29.0588,-86.5061 -89.9842,-89.9844 l -584.9999,-0.01 c -52.1076,1.2679 -88.7157,29.0522 -90,89.9822 l 0,980.2083 c -1.2632,85.234 -56.3969,133.7076 -135,134.9726 l -45,0 0,-2690.1712 1125,0 z"
       id="path4221"
       inkscape:connector-curvature="0"
       sodipodi:nodetypes="ccccccccccccc" />
    <path
       sodipodi:nodetypes="ccccccccccccc"
       inkscape:connector-curvature="0"
       id="path4223"
       d="m 4588.1225,2690.1036 -44.9996,0 c -83.7532,-1.265 -132.9901,-45.3192 -134.9841,-134.9726 l -0.032,-980.2013 c -3.4729,-58.721 -29.0588,-86.5061 -89.9842,-89.9844 l -584.9999,-0.01 c -52.1076,1.2679 -88.7157,29.0522 -90,89.9822 l 0,980.2083 c -1.2632,85.234 -56.3969,133.7076 -135,134.9726 l -45,0 0,-2690.1712 1125,0 z"
       style="color:#000000;clip-rule:nonzero;display:inline;overflow:visible;visibility:visible;opacity:1;isolation:auto;mix-blend-mode:normal;color-interpolation:sRGB;color-interpolation-filters:linearRGB;solid-color:#000000;solid-opacity:1;fill:#cacaca;fill-opacity:1;fill-rule:nonzero;stroke:#000000;stroke-width:1;stroke-linecap:square;stroke-linejoin:round;stroke-miterlimit:4;stroke-dasharray:none;stroke-dashoffset:0;stroke-opacity:1;marker:none;color-rendering:auto;image-rendering:auto;shape-rendering:auto;text-rendering:auto;enable-background:accumulate" />
    <text
       xml:space="preserve"
       style="font-style:normal;font-weight:normal;font-size:70px;line-height:125%;font-family:Sans;letter-spacing:0px;word-spacing:0px;fill:#000000;fill-opacity:1;stroke:none;stroke-width:1px;stroke-linecap:butt;stroke-linejoin:miter;stroke-opacity:1"
       x="2534.2703"
       y="597.33087"
       id="text4196"
       sodipodi:linespacing="125%"><tspan
         sodipodi:role="line"
         id="tspan4198"
         x="2534.2703"
         y="597.33087">30 x 12.5 </tspan></text>
    <text
       sodipodi:linespacing="125%"
       id="text4200"
       y="2157.3308"
       x="2554.2703"
       style="font-style:normal;font-weight:normal;font-size:70px;line-height:125%;font-family:Sans;letter-spacing:0px;word-spacing:0px;fill:#000000;fill-opacity:1;stroke:none;stroke-width:1px;stroke-linecap:butt;stroke-linejoin:miter;stroke-opacity:1"
       xml:space="preserve"><tspan
         y="2157.3308"
         x="2554.2703"
         id="tspan4202"
         sodipodi:role="line">13.5</tspan></text>
    <text
       xml:space="preserve"
       style="font-style:normal;font-weight:normal;font-size:70px;line-height:125%;font-family:Sans;letter-spacing:0px;word-spacing:0px;fill:#000000;fill-opacity:1;stroke:none;stroke-width:1px;stroke-linecap:butt;stroke-linejoin:miter;stroke-opacity:1"
       x="2374.2703"
       y="1917.3308"
       id="text4204"
       sodipodi:linespacing="125%"><tspan
         sodipodi:role="line"
         id="tspan4206"
         x="2374.2703"
         y="1917.3308">2</tspan></text>
  </g>
</svg>
