<?xml version="1.0" encoding="utf-8"?>
<!-- Generator: Adobe Illustrator 15.1.0, SVG Export Plug-In . SVG Version: 6.00 Build 0)  -->
<!DOCTYPE svg PUBLIC "-//W3C//DTD SVG 1.1//EN" "http://www.w3.org/Graphics/SVG/1.1/DTD/svg11.dtd">
<svg version="1.1" id="Layer_1" xmlns="http://www.w3.org/2000/svg" xmlns:xlink="http://www.w3.org/1999/xlink" x="0px" y="0px"
	 width="5000px" height="5000px" viewBox="0 0 5000 5000" style="enable-background:new 0 0 5000 5000;" xml:space="preserve">
<style type="text/css">
<![CDATA[
	.st0{fill:#B0C3D1;}
]]>
</style>
<path class="st0" d="M2500.2,40.7c-1358.5,0-2460,1101.5-2460,2460c0,1358.8,1101.5,2460,2460,2460c1358.7,0,2460-1101.2,2460-2460
	C4960.2,1142.2,3858.8,40.7,2500.2,40.7z M3027.2,2501.6h-344.7c0,550.7,0,1229.1,0,1229.1h-510.8c0,0,0-671.5,0-1229.1h-242.9
	v-434.2h242.9v-281.1c0-201.2,95.5-515.6,515.5-515.6l378.4,1.5v421.6c0,0-230,0-274.6,0c-44.7,0-108.4,22.2-108.4,118.3v255.2
	h389.5L3027.2,2501.6z"/>
</svg>
