<?xml version="1.0" encoding="utf-8"?>
<!-- Generator: Adobe Illustrator 16.0.0, SVG Export Plug-In . SVG Version: 6.00 Build 0)  -->
<!DOCTYPE svg PUBLIC "-//W3C//DTD SVG 1.1//EN" "http://www.w3.org/Graphics/SVG/1.1/DTD/svg11.dtd">
<svg version="1.1" id="Layer_1" xmlns="http://www.w3.org/2000/svg" xmlns:xlink="http://www.w3.org/1999/xlink" x="0px" y="0px"
	 width="296.341px" height="310.5px" viewBox="0 0 296.341 310.5" enable-background="new 0 0 296.341 310.5" xml:space="preserve">
<path fill="#1CE8B5" d="M149.796,13.507c-78.281,0-141.742,63.461-141.742,141.742c0,78.283,63.461,141.744,141.742,141.744
	c78.283,0,141.743-63.461,141.743-141.744C291.539,76.968,228.079,13.507,149.796,13.507z M238.505,84.725l-55.231,90.972
	l-38.982-38.982c-3.006-3.005-3.006-7.876,0-10.882c3.003-3.005,7.877-3.005,10.88,0l25.123,25.121l45.058-74.216
	c2.205-3.633,6.937-4.79,10.57-2.583C239.553,76.36,240.71,81.092,238.505,84.725z"/>
<path fill="#14091C" d="M154.217,62.504c0,8.131-6.593,14.724-14.727,14.724c-8.129,0-14.723-6.593-14.723-14.724
	c0-8.132,6.594-14.725,14.723-14.725C147.624,47.779,154.217,54.372,154.217,62.504z"/>
<rect x="114.816" y="70.253" fill="#14091C" width="49.35" height="15.333"/>
<rect x="110.149" y="99.411" fill="#14091C" width="21.996" height="21.996"/>
<rect x="110.149" y="129.82" fill="#14091C" width="21.996" height="21.996"/>
<rect x="110.149" y="160.231" fill="#14091C" width="21.996" height="21.995"/>
<polygon fill="#14091C" points="181.277,188.842 181.277,200.201 97.704,200.201 97.704,72.056 181.277,72.056 181.277,105.712 
	190.829,105.712 190.829,62.504 88.153,62.504 88.153,209.752 190.829,209.752 190.829,188.842 "/>
<g>
	<path fill="#FFFFFF" d="M94.04,221.927v4.259H83.967v4.695h9.575v4.259h-9.575v8.518h-4.85v-21.731H94.04z"/>
	<path fill="#FFFFFF" d="M112.164,241.233c-1.885,1.785-4.098,2.674-6.637,2.674s-4.637-0.781-6.296-2.348
		c-1.658-1.564-2.487-3.663-2.487-6.295c0-2.633,0.845-4.727,2.534-6.28c1.688-1.554,3.684-2.332,5.985-2.332
		c2.3,0,4.253,0.695,5.86,2.083c1.606,1.39,2.409,3.295,2.409,5.721v2.487h-12.188c0.146,0.912,0.622,1.658,1.431,2.238
		c0.808,0.581,1.72,0.87,2.736,0.87c1.636,0,2.983-0.548,4.041-1.647L112.164,241.233z M107.688,231.316
		c-0.644-0.539-1.426-0.809-2.349-0.809c-0.922,0-1.767,0.279-2.532,0.839c-0.768,0.56-1.213,1.317-1.337,2.27h7.337
		C108.703,232.622,108.33,231.855,107.688,231.316z"/>
	<path fill="#FFFFFF" d="M131.099,243.658h-4.384v-2.02c-1.201,1.514-2.688,2.269-4.461,2.269s-3.26-0.513-4.461-1.54
		c-1.203-1.024-1.805-2.392-1.805-4.103c0-1.71,0.622-2.99,1.867-3.84c1.242-0.85,2.942-1.275,5.098-1.275h3.482v-0.092
		c0-1.783-0.943-2.673-2.83-2.673c-0.808,0-1.662,0.16-2.564,0.481c-0.901,0.321-1.663,0.72-2.285,1.197l-2.082-3.016
		c2.195-1.596,4.704-2.394,7.522-2.394c2.031,0,3.69,0.509,4.976,1.524c1.284,1.015,1.927,2.623,1.927,4.818V243.658z
		 M126.404,237.284v-0.808h-2.923c-1.864,0-2.798,0.581-2.798,1.742c0,0.601,0.223,1.062,0.669,1.382
		c0.444,0.323,1.082,0.483,1.911,0.483c0.83,0,1.56-0.255,2.192-0.762C126.088,238.813,126.404,238.135,126.404,237.284z"/>
	<path fill="#FFFFFF" d="M140.736,230.29v7.492c0,0.644,0.165,1.147,0.497,1.508c0.331,0.363,0.725,0.545,1.181,0.545
		c0.871,0,1.607-0.393,2.208-1.181l1.741,3.265c-1.451,1.326-2.979,1.989-4.585,1.989c-1.607,0-2.965-0.529-4.073-1.586
		s-1.663-2.497-1.663-4.321v-7.71h-1.96v-3.357h1.96v-5.005h4.694v5.005h4.042v3.357H140.736z"/>
	<path fill="#FFFFFF" d="M159.638,235.949v-9.016h4.695v16.726h-4.695v-2.208c-1.16,1.639-2.657,2.457-4.491,2.457
		c-1.836,0-3.374-0.575-4.617-1.725c-1.244-1.15-1.865-2.855-1.865-5.115v-10.135h4.694v9.108c0,2.571,0.942,3.856,2.829,3.856
		c0.934,0,1.74-0.337,2.425-1.01C159.297,238.212,159.638,237.233,159.638,235.949z"/>
	<path fill="#FFFFFF" d="M177.547,231.036c-1.389,0-2.426,0.493-3.109,1.477c-0.684,0.985-1.025,2.285-1.025,3.901v7.244h-4.664
		v-16.726h4.664v2.208c0.6-0.685,1.352-1.265,2.253-1.742c0.901-0.476,1.819-0.725,2.751-0.746l0.031,4.384H177.547z"/>
	<path fill="#FFFFFF" d="M196.014,241.233c-1.887,1.785-4.099,2.674-6.639,2.674c-2.538,0-4.637-0.781-6.295-2.348
		c-1.658-1.564-2.487-3.663-2.487-6.295c0-2.633,0.844-4.727,2.533-6.28c1.689-1.554,3.685-2.332,5.985-2.332
		s4.254,0.695,5.861,2.083c1.605,1.39,2.409,3.295,2.409,5.721v2.487h-12.188c0.145,0.912,0.622,1.658,1.43,2.238
		c0.809,0.581,1.72,0.87,2.736,0.87c1.637,0,2.983-0.548,4.042-1.647L196.014,241.233z M191.536,231.316
		c-0.642-0.539-1.425-0.809-2.347-0.809c-0.923,0-1.768,0.279-2.534,0.839s-1.212,1.317-1.337,2.27h7.337
		C192.553,232.622,192.179,231.855,191.536,231.316z"/>
	<path fill="#FFFFFF" d="M213.331,238.451c0,1.648-0.607,2.969-1.818,3.964c-1.213,0.996-2.752,1.493-4.617,1.493
		c-1.244,0-2.54-0.223-3.887-0.668c-1.348-0.446-2.56-1.104-3.638-1.974l2.053-2.922c1.74,1.348,3.596,2.02,5.564,2.02
		c0.6,0,1.078-0.118,1.431-0.356c0.352-0.239,0.528-0.554,0.528-0.949c0-0.393-0.245-0.756-0.731-1.087
		c-0.486-0.333-1.191-0.644-2.114-0.934c-0.922-0.289-1.627-0.538-2.113-0.747c-0.487-0.207-1.042-0.507-1.664-0.9
		c-1.264-0.789-1.896-1.954-1.896-3.499c0-1.543,0.622-2.802,1.865-3.777c1.244-0.975,2.851-1.461,4.819-1.461
		c1.97,0,3.938,0.664,5.907,1.989l-1.741,3.11c-1.45-0.995-2.897-1.492-4.337-1.492c-1.44,0-2.16,0.393-2.16,1.181
		c0,0.436,0.228,0.777,0.684,1.025c0.455,0.249,1.213,0.539,2.27,0.871c1.058,0.332,1.809,0.586,2.254,0.762
		c0.446,0.176,0.979,0.451,1.602,0.824C212.75,235.628,213.331,236.803,213.331,238.451z"/>
</g>
</svg>
