<?xml version="1.0" encoding="UTF-8" ?>
<!DOCTYPE svg PUBLIC "-//W3C//DTD SVG 1.1//EN" "http://www.w3.org/Graphics/SVG/1.1/DTD/svg11.dtd">
<svg width="4000pt" height="3500pt" viewBox="0 0 4000 3500" version="1.1" xmlns="http://www.w3.org/2000/svg">
<g id="#007ddaff">
<path fill="#007dda" opacity="1.00" d=" M 0.00 0.00 L 4000.00 0.00 L 4000.00 1655.83 C 3993.77 1659.93 3993.42 1667.60 3994.64 1674.25 C 3982.63 1667.37 3978.31 1653.03 3972.89 1641.16 C 3968.46 1646.70 3962.23 1651.25 3955.02 1651.99 C 3948.31 1652.44 3942.03 1649.59 3935.53 1648.55 C 3927.00 1647.09 3918.62 1643.73 3912.34 1637.66 C 3900.27 1626.71 3895.64 1609.77 3895.66 1593.93 C 3895.75 1580.62 3889.33 1568.50 3882.61 1557.44 C 3880.45 1553.72 3877.75 1550.33 3874.42 1547.64 C 3868.96 1553.99 3864.57 1561.30 3862.34 1569.41 C 3861.00 1574.61 3857.41 1579.28 3852.45 1581.44 C 3849.17 1582.71 3846.18 1579.98 3844.54 1577.45 C 3838.88 1568.95 3838.27 1558.50 3835.92 1548.87 C 3831.56 1536.09 3825.11 1524.15 3818.91 1512.20 C 3817.24 1509.13 3815.82 1505.38 3812.12 1504.36 C 3810.95 1521.89 3803.68 1538.85 3791.68 1551.69 C 3780.69 1565.48 3782.41 1584.43 3782.95 1600.97 C 3785.33 1613.34 3782.32 1626.01 3777.14 1637.27 C 3773.27 1645.40 3766.01 1652.43 3756.88 1653.92 C 3740.15 1656.85 3724.97 1647.65 3710.93 1639.97 C 3697.19 1633.31 3689.61 1619.31 3682.55 1606.52 C 3671.62 1585.47 3663.41 1563.14 3655.74 1540.75 C 3651.37 1546.06 3649.15 1552.72 3648.39 1559.49 C 3645.85 1574.62 3647.71 1590.01 3649.78 1605.09 C 3645.52 1606.24 3640.77 1605.68 3637.61 1602.39 C 3629.47 1594.41 3625.70 1583.22 3622.17 1572.67 C 3615.10 1551.58 3611.96 1529.51 3608.08 1507.70 C 3602.68 1512.39 3597.47 1517.37 3592.89 1522.86 C 3582.57 1538.30 3580.21 1557.83 3583.00 1575.90 C 3584.68 1592.74 3586.94 1611.44 3577.60 1626.59 C 3568.68 1642.15 3544.28 1644.57 3531.92 1632.10 C 3521.93 1618.86 3523.02 1600.67 3526.21 1585.25 C 3528.49 1576.43 3523.94 1567.90 3519.39 1560.66 C 3509.06 1544.77 3495.31 1531.50 3481.37 1518.82 C 3474.85 1541.79 3474.29 1565.95 3469.24 1589.26 C 3466.78 1596.14 3465.07 1606.13 3457.12 1608.45 C 3447.22 1604.96 3444.12 1593.35 3439.74 1584.85 C 3428.81 1589.72 3427.03 1602.94 3425.23 1613.39 C 3423.01 1623.77 3425.56 1634.77 3421.73 1644.85 C 3417.61 1657.95 3404.65 1666.91 3391.11 1667.41 C 3380.71 1668.00 3367.37 1669.14 3360.80 1659.19 C 3354.43 1647.95 3356.95 1634.18 3360.45 1622.41 C 3362.78 1614.51 3357.69 1606.98 3352.16 1601.83 C 3340.68 1591.34 3326.54 1583.91 3311.95 1578.80 C 3313.83 1586.58 3316.05 1594.84 3313.75 1602.80 C 3311.26 1610.96 3305.58 1617.69 3299.45 1623.42 C 3287.01 1634.71 3272.22 1643.05 3257.06 1650.08 C 3250.89 1652.91 3243.66 1654.94 3236.99 1652.94 C 3228.88 1648.83 3222.96 1641.56 3217.44 1634.56 C 3204.22 1616.73 3193.13 1597.37 3183.75 1577.27 C 3182.43 1574.18 3180.45 1571.36 3177.49 1569.69 C 3165.13 1596.72 3159.61 1628.11 3167.87 1657.14 C 3169.35 1663.34 3174.46 1669.36 3171.90 1675.96 C 3167.89 1686.45 3162.06 1697.24 3151.95 1702.94 C 3146.89 1705.92 3139.28 1705.27 3136.05 1699.97 C 3131.44 1692.13 3132.08 1682.69 3131.98 1673.95 C 3131.85 1658.19 3125.38 1643.44 3118.38 1629.63 C 3115.04 1623.31 3112.50 1616.09 3106.39 1611.85 C 3100.32 1624.53 3097.03 1639.43 3086.05 1649.04 C 3082.87 1652.21 3075.28 1651.86 3076.12 1646.02 C 3076.52 1626.27 3069.19 1605.55 3053.40 1593.01 C 3049.98 1607.18 3042.91 1620.33 3033.12 1631.11 C 3021.43 1643.78 3009.43 1656.72 2994.26 1665.28 C 2989.60 1667.96 2982.78 1666.79 2980.18 1661.83 C 2975.65 1653.50 2974.98 1643.36 2977.23 1634.25 C 2979.09 1626.33 2987.23 1621.81 2988.86 1613.79 C 2990.96 1604.07 2989.43 1593.95 2986.45 1584.59 C 2983.96 1576.81 2981.80 1568.21 2975.04 1562.94 C 2974.00 1569.17 2974.74 1575.54 2973.72 1581.77 C 2972.46 1588.18 2966.77 1592.10 2962.76 1596.78 C 2954.22 1606.27 2951.14 1619.13 2949.53 1631.46 C 2947.65 1641.15 2942.29 1651.94 2932.55 1655.57 C 2921.47 1657.15 2915.21 1644.72 2914.66 1635.31 C 2913.94 1621.37 2912.19 1606.72 2917.41 1593.40 C 2922.28 1578.47 2914.41 1563.14 2905.52 1551.47 C 2898.60 1543.10 2891.82 1532.65 2880.20 1530.85 C 2883.22 1538.95 2887.28 1546.77 2888.58 1555.42 C 2893.08 1581.03 2885.52 1607.22 2873.98 1629.97 C 2869.19 1636.96 2858.95 1646.06 2850.38 1640.45 C 2860.72 1628.83 2864.91 1613.26 2865.64 1598.02 C 2866.05 1584.32 2867.82 1570.09 2863.07 1556.90 C 2862.39 1557.01 2861.05 1557.23 2860.38 1557.34 C 2857.08 1573.84 2848.59 1589.78 2834.57 1599.56 C 2821.28 1608.77 2808.22 1620.36 2803.39 1636.35 C 2797.43 1657.17 2802.09 1679.35 2810.04 1698.99 C 2816.10 1713.64 2805.86 1731.97 2790.42 1734.99 C 2786.41 1724.80 2783.33 1713.61 2775.31 1705.70 C 2766.11 1696.89 2753.70 1691.14 2740.89 1690.92 C 2741.55 1695.40 2742.67 1699.80 2743.75 1704.21 C 2745.90 1713.20 2744.08 1722.49 2742.40 1731.40 C 2740.00 1743.47 2734.24 1755.73 2723.64 1762.62 C 2713.70 1768.44 2700.99 1765.93 2691.43 1760.56 C 2683.04 1755.44 2681.50 1744.93 2678.67 1736.35 C 2676.07 1728.99 2677.69 1721.17 2679.96 1713.98 C 2686.34 1690.97 2699.58 1668.59 2696.10 1643.92 C 2693.73 1632.10 2690.74 1618.10 2679.26 1611.78 C 2678.68 1620.34 2681.92 1628.84 2680.16 1637.36 C 2677.41 1648.60 2671.06 1658.78 2662.91 1666.90 C 2656.81 1673.06 2648.45 1675.94 2640.98 1679.97 C 2641.00 1650.35 2641.21 1620.72 2640.87 1591.09 C 2572.98 1590.70 2505.09 1591.32 2437.21 1590.76 C 2436.93 1548.92 2436.95 1507.07 2437.20 1465.23 C 2510.77 1464.68 2584.34 1465.24 2657.91 1464.92 C 2658.08 1418.64 2658.10 1372.36 2657.91 1326.09 C 2540.31 1325.83 2422.71 1325.81 2305.11 1326.10 C 2304.59 1405.37 2305.41 1484.65 2304.65 1563.92 C 2293.63 1565.83 2282.25 1564.50 2271.40 1567.52 C 2268.30 1567.93 2263.62 1570.00 2261.74 1566.37 C 2257.10 1557.88 2257.40 1547.65 2252.85 1539.11 C 2250.03 1533.90 2247.42 1528.58 2244.81 1523.27 C 2241.03 1515.46 2234.28 1509.74 2227.90 1504.11 C 2224.88 1501.34 2220.89 1500.16 2216.91 1499.82 C 2220.65 1506.41 2228.83 1509.24 2231.89 1516.20 C 2231.18 1523.51 2226.94 1530.04 2225.09 1537.14 C 2223.36 1544.94 2212.89 1544.35 2208.01 1540.01 C 2202.02 1534.40 2198.09 1526.33 2198.04 1518.06 C 2197.93 1454.07 2198.26 1390.09 2197.86 1326.11 C 2153.94 1325.81 2110.03 1325.82 2066.12 1326.10 C 2065.62 1352.72 2066.23 1379.35 2065.81 1405.97 C 2056.49 1400.53 2047.98 1393.85 2038.79 1388.22 C 2033.11 1384.62 2026.18 1385.17 2019.82 1384.16 C 2012.86 1383.15 2006.95 1378.69 1999.92 1378.01 C 1988.73 1376.75 1977.19 1375.99 1966.24 1379.23 C 1955.77 1382.23 1945.38 1377.71 1934.93 1377.20 C 1941.14 1385.16 1951.67 1386.66 1960.77 1389.29 C 1975.79 1393.66 1991.56 1393.78 2007.08 1394.09 C 2013.01 1394.00 2018.27 1396.94 2023.36 1399.64 C 2029.21 1402.85 2036.44 1402.95 2041.75 1407.24 C 2049.90 1413.39 2053.76 1423.18 2060.07 1430.91 C 2063.53 1435.16 2066.21 1440.30 2065.99 1445.93 C 2065.88 1460.65 2066.18 1475.38 2065.72 1490.10 C 2055.24 1489.29 2045.43 1485.06 2034.96 1484.09 C 2025.32 1483.51 2020.09 1473.52 2010.63 1472.39 C 1999.57 1471.17 1990.82 1463.93 1980.58 1460.46 C 1974.86 1458.59 1967.91 1458.21 1964.04 1452.99 C 1958.56 1445.91 1953.44 1438.02 1945.35 1433.67 C 1937.17 1429.46 1927.81 1428.33 1918.75 1427.91 C 1922.93 1434.84 1927.21 1441.74 1932.21 1448.13 C 1922.33 1461.00 1905.38 1463.48 1890.19 1462.91 C 1889.70 1417.30 1890.26 1371.69 1889.91 1326.09 C 1845.97 1325.84 1802.03 1325.84 1758.09 1326.09 C 1757.72 1373.35 1758.30 1420.61 1757.77 1467.86 C 1748.78 1468.09 1739.74 1467.38 1730.81 1468.69 C 1713.45 1471.25 1695.69 1468.71 1678.46 1472.39 C 1669.90 1474.31 1661.17 1472.80 1652.70 1471.28 C 1643.20 1469.48 1633.48 1470.39 1623.94 1468.99 C 1617.31 1468.05 1610.59 1467.61 1603.91 1468.11 C 1609.82 1472.57 1615.32 1477.81 1622.09 1480.96 C 1637.80 1486.46 1654.55 1488.61 1671.16 1488.47 C 1648.75 1499.68 1622.89 1495.86 1598.88 1499.35 C 1605.81 1504.34 1614.70 1502.50 1622.58 1504.35 C 1631.78 1506.65 1641.22 1507.60 1650.60 1508.86 C 1647.48 1512.10 1644.02 1515.34 1639.53 1516.45 C 1620.40 1520.84 1600.23 1523.00 1580.97 1518.11 C 1572.58 1516.69 1568.01 1508.38 1560.13 1505.78 C 1563.30 1516.30 1570.53 1525.35 1579.70 1531.29 C 1584.97 1534.60 1588.39 1539.93 1592.96 1544.02 C 1597.93 1548.41 1604.94 1548.09 1611.15 1548.51 C 1605.91 1553.02 1600.24 1557.57 1593.42 1559.31 C 1586.68 1560.45 1579.62 1559.58 1573.12 1562.08 C 1566.43 1564.57 1559.28 1565.43 1552.17 1565.00 C 1551.96 1531.75 1551.86 1498.49 1552.23 1465.24 C 1603.12 1464.67 1654.02 1465.25 1704.91 1464.92 C 1705.09 1418.64 1705.12 1372.37 1704.90 1326.10 C 1558.97 1325.84 1413.03 1325.85 1267.09 1326.09 C 1266.89 1372.36 1266.89 1418.64 1267.09 1464.91 C 1317.98 1465.27 1368.88 1464.65 1419.77 1465.25 C 1420.04 1503.80 1420.02 1542.36 1419.83 1580.92 C 1409.68 1579.33 1398.70 1581.72 1389.27 1576.76 C 1381.83 1572.91 1373.71 1570.74 1365.76 1568.27 C 1370.91 1575.75 1375.66 1584.93 1384.63 1588.30 C 1394.91 1589.96 1406.36 1588.48 1415.51 1594.51 C 1420.20 1598.52 1419.95 1605.35 1420.06 1610.99 C 1419.63 1635.19 1420.39 1659.40 1419.62 1683.60 C 1409.55 1685.06 1399.85 1681.79 1390.12 1679.81 C 1386.19 1667.39 1378.12 1654.75 1364.97 1650.87 C 1365.33 1661.12 1369.40 1670.77 1369.97 1681.01 C 1365.65 1677.52 1361.58 1673.45 1356.14 1671.77 C 1357.05 1680.00 1362.84 1686.66 1370.12 1690.18 C 1370.19 1696.09 1369.37 1701.98 1367.95 1707.72 C 1363.32 1708.03 1358.67 1707.95 1354.04 1708.00 C 1340.56 1666.90 1321.01 1625.85 1287.88 1596.97 C 1287.55 1607.18 1292.22 1616.46 1296.63 1625.36 C 1303.53 1639.56 1303.42 1655.69 1307.30 1670.75 C 1310.51 1682.98 1308.22 1695.63 1307.92 1708.05 C 1297.89 1708.56 1287.65 1707.71 1278.50 1703.27 C 1276.86 1704.47 1275.21 1706.08 1273.02 1706.00 C 1259.91 1706.67 1247.71 1701.17 1236.09 1695.82 C 1236.26 1697.44 1236.42 1699.10 1236.64 1700.76 C 1234.74 1700.94 1232.85 1701.15 1230.99 1701.39 C 1234.16 1708.53 1239.31 1714.53 1242.66 1721.58 C 1241.39 1722.87 1240.19 1724.25 1238.95 1725.59 C 1246.63 1727.06 1254.17 1729.67 1260.29 1734.70 C 1272.17 1744.12 1289.61 1734.29 1301.14 1744.68 C 1299.33 1748.99 1298.16 1753.53 1296.92 1758.04 C 1296.18 1759.55 1295.46 1761.08 1294.82 1762.66 C 1290.81 1777.16 1278.87 1790.94 1263.06 1791.78 C 1249.99 1790.14 1242.35 1776.32 1241.70 1764.17 C 1239.48 1746.12 1237.12 1724.15 1220.02 1713.73 C 1217.41 1724.83 1219.34 1736.19 1220.59 1747.33 C 1221.79 1757.86 1215.53 1770.20 1204.99 1773.15 C 1194.87 1770.69 1187.30 1760.66 1185.36 1750.66 C 1183.04 1738.70 1191.38 1728.60 1193.31 1717.28 C 1195.87 1703.01 1197.26 1688.54 1197.91 1674.07 C 1198.57 1651.49 1192.65 1629.50 1187.12 1607.82 C 1182.17 1585.06 1193.85 1562.35 1209.25 1546.26 C 1213.37 1541.37 1220.33 1538.25 1221.25 1531.29 C 1202.31 1531.19 1183.94 1538.98 1168.37 1549.35 C 1154.86 1558.71 1143.80 1572.23 1139.23 1588.20 C 1134.02 1606.17 1133.31 1625.22 1135.28 1643.75 C 1136.60 1659.03 1135.02 1675.49 1126.75 1688.76 C 1123.84 1693.32 1118.16 1699.04 1112.39 1695.62 C 1099.30 1687.47 1094.90 1671.31 1093.15 1656.91 C 1091.77 1642.33 1090.31 1627.62 1091.77 1612.99 C 1092.19 1607.97 1091.86 1602.93 1090.93 1597.99 C 1071.86 1617.20 1065.43 1646.12 1068.62 1672.39 C 1070.77 1688.07 1063.63 1704.15 1051.92 1714.44 C 1054.85 1692.44 1051.73 1669.98 1043.65 1649.36 C 1039.54 1637.29 1032.47 1626.24 1030.57 1613.47 C 1025.49 1585.24 1035.46 1556.76 1049.98 1532.84 C 1028.42 1532.77 1014.15 1552.55 1004.49 1569.46 C 997.43 1579.81 991.79 1591.16 989.61 1603.61 C 985.32 1619.09 988.07 1635.24 986.04 1650.98 C 984.07 1667.80 994.76 1684.83 987.25 1701.22 C 983.70 1712.81 969.41 1716.10 958.93 1713.07 C 949.32 1710.19 943.33 1701.02 939.89 1692.13 C 934.73 1677.76 931.58 1662.28 933.93 1647.02 C 936.47 1627.79 927.45 1605.65 908.86 1597.78 C 907.75 1605.82 910.97 1613.76 909.77 1621.76 C 909.45 1625.79 904.50 1624.94 901.76 1624.28 C 894.82 1622.46 886.17 1619.23 884.91 1611.12 C 882.69 1599.31 877.18 1587.95 868.27 1579.74 C 864.05 1575.92 860.59 1571.39 857.18 1566.87 C 851.62 1582.36 845.96 1600.08 852.85 1616.08 C 859.40 1629.70 862.82 1646.01 857.76 1660.66 C 855.57 1668.07 847.55 1670.38 841.27 1673.21 C 830.27 1677.82 815.44 1680.13 806.17 1670.84 C 795.81 1660.05 795.51 1644.11 794.60 1630.09 C 793.44 1629.82 792.29 1629.56 791.16 1629.30 C 782.92 1640.93 774.49 1653.44 773.10 1668.01 C 772.42 1684.82 771.52 1701.99 766.01 1718.03 C 763.16 1727.03 751.88 1727.39 744.04 1727.40 C 724.74 1726.69 703.57 1719.10 693.83 1701.29 C 687.91 1690.57 686.34 1678.04 687.38 1665.98 C 688.66 1648.89 676.43 1633.55 661.30 1626.99 C 660.83 1635.28 656.14 1642.53 655.58 1650.79 C 654.83 1658.04 654.04 1665.42 655.22 1672.68 C 656.10 1678.98 661.26 1683.73 661.80 1690.16 C 662.57 1696.75 664.62 1704.43 660.43 1710.31 C 658.68 1712.98 655.13 1712.29 652.54 1711.55 C 640.13 1707.51 628.32 1699.82 621.87 1688.19 C 616.17 1678.11 618.11 1666.02 614.83 1655.22 C 607.71 1628.20 591.35 1603.62 570.01 1585.74 C 572.08 1607.12 575.74 1628.43 575.40 1649.99 C 575.33 1661.03 575.75 1672.46 571.94 1683.01 C 569.68 1689.84 562.01 1691.96 555.87 1693.88 C 545.43 1696.41 535.74 1689.23 528.87 1682.14 C 524.17 1676.95 519.09 1671.78 516.58 1665.11 C 512.44 1672.26 506.07 1677.78 501.90 1684.92 C 498.49 1690.53 494.93 1697.50 497.82 1704.08 C 501.46 1714.15 506.50 1725.89 501.34 1736.32 C 498.33 1742.32 490.61 1741.36 485.01 1741.47 C 471.36 1741.91 457.34 1735.95 449.30 1724.70 C 441.68 1713.84 438.09 1700.16 439.26 1686.95 C 439.71 1677.85 438.69 1668.20 433.75 1660.33 C 430.72 1655.25 425.09 1652.73 421.20 1648.44 C 416.74 1656.61 409.03 1663.20 407.71 1672.85 C 406.10 1681.69 404.58 1693.22 395.10 1697.04 C 385.14 1698.32 374.50 1695.58 366.45 1689.52 C 358.84 1683.82 356.10 1673.42 358.16 1664.37 C 359.63 1654.31 360.04 1641.16 350.48 1634.83 C 349.17 1641.54 345.95 1647.53 342.32 1653.24 C 338.59 1661.76 336.69 1671.04 335.19 1680.20 C 333.99 1686.61 336.63 1692.73 337.33 1699.01 C 337.78 1706.34 331.69 1711.36 327.66 1716.68 C 321.99 1724.08 313.68 1730.35 303.98 1730.43 C 295.96 1730.38 289.81 1724.51 283.27 1720.68 C 269.09 1710.81 254.56 1698.83 249.36 1681.66 C 247.45 1677.26 247.18 1672.39 248.61 1667.82 C 240.69 1669.52 232.35 1672.77 227.89 1679.96 C 223.66 1686.10 225.97 1694.13 222.72 1700.65 C 219.73 1707.71 212.57 1712.43 205.02 1713.08 C 193.94 1714.73 183.43 1709.43 174.50 1703.45 C 164.18 1696.59 156.80 1685.27 155.36 1672.89 C 153.95 1660.50 157.29 1647.92 163.16 1637.04 C 172.55 1619.21 172.50 1596.45 161.96 1579.11 C 157.78 1571.20 149.84 1566.50 144.21 1559.79 C 139.59 1553.94 131.00 1550.30 131.56 1541.64 C 115.05 1550.02 100.05 1566.46 100.53 1585.99 C 100.16 1595.51 105.89 1603.73 106.86 1613.05 C 108.30 1624.46 109.61 1636.84 104.64 1647.61 C 101.56 1654.60 93.57 1658.14 86.22 1657.57 C 74.21 1656.63 61.62 1652.91 53.28 1643.73 C 42.24 1629.57 29.45 1615.90 25.07 1597.94 C 15.27 1608.29 6.24 1619.61 0.00 1632.49 L 0.00 0.00 M 1032.05 535.06 C 1031.95 775.68 1031.93 1016.30 1032.06 1256.93 C 1083.69 1257.08 1135.31 1257.09 1186.93 1256.92 C 1187.20 1153.99 1186.78 1051.05 1187.16 948.12 C 1265.42 947.86 1343.67 948.21 1421.93 947.94 C 1422.05 901.65 1422.06 855.36 1421.93 809.08 C 1343.68 808.71 1265.43 809.18 1187.18 808.83 C 1186.92 763.95 1186.89 719.07 1187.19 674.20 C 1272.10 673.70 1357.01 674.21 1441.91 673.93 C 1442.10 627.64 1442.12 581.36 1441.92 535.08 C 1305.30 534.89 1168.67 534.92 1032.05 535.06 M 1522.08 535.07 C 1521.89 775.69 1521.89 1016.30 1522.08 1256.92 C 1660.37 1257.10 1798.66 1257.07 1936.95 1256.94 C 1937.04 1210.64 1937.02 1164.34 1936.95 1118.04 C 1850.36 1117.82 1763.76 1118.22 1677.17 1117.80 C 1676.92 1057.93 1677.02 998.04 1677.12 938.16 C 1756.72 937.74 1836.33 938.21 1915.93 937.92 C 1916.11 891.64 1916.11 845.36 1915.92 799.08 C 1836.33 798.77 1756.73 799.19 1677.13 798.82 C 1676.97 757.27 1676.99 715.71 1677.12 674.16 C 1763.73 673.75 1850.34 674.18 1936.95 673.95 C 1937.03 627.65 1937.04 581.36 1936.95 535.06 C 1798.66 534.92 1660.37 534.91 1522.08 535.07 M 2040.05 535.06 C 2039.93 775.68 2039.91 1016.30 2040.07 1256.92 C 2178.35 1257.08 2316.63 1257.10 2454.91 1256.91 C 2455.11 1210.63 2455.10 1164.35 2454.92 1118.07 C 2368.35 1117.75 2281.77 1118.28 2195.20 1117.79 C 2194.88 1057.93 2194.88 998.06 2195.19 938.19 C 2275.11 937.71 2355.03 938.22 2434.95 937.95 C 2435.04 891.65 2435.05 845.35 2434.94 799.06 C 2355.03 798.78 2275.13 799.17 2195.22 798.79 C 2194.87 757.26 2194.89 715.73 2195.20 674.20 C 2281.77 673.70 2368.34 674.21 2454.92 673.93 C 2455.10 627.65 2455.11 581.36 2454.92 535.08 C 2316.63 534.88 2178.34 534.93 2040.05 535.06 M 2559.08 535.07 C 2558.86 775.69 2558.86 1016.30 2559.07 1256.92 C 2695.36 1257.10 2831.65 1257.08 2967.93 1256.93 C 2968.05 1210.64 2968.04 1164.34 2967.95 1118.05 C 2883.02 1117.79 2798.10 1118.26 2713.18 1117.80 C 2712.81 923.56 2713.26 729.32 2712.92 535.08 C 2661.64 534.88 2610.36 534.90 2559.08 535.07 M 3656.35 1483.52 C 3657.43 1489.32 3658.34 1496.82 3663.91 1500.00 C 3669.98 1495.67 3672.69 1488.16 3674.28 1481.16 C 3676.39 1469.76 3675.91 1457.85 3672.10 1446.86 C 3660.94 1455.29 3653.95 1469.45 3656.35 1483.52 M 3401.16 1478.26 C 3396.21 1486.80 3398.55 1498.65 3406.38 1504.62 C 3416.67 1510.48 3427.23 1516.91 3434.08 1526.85 C 3438.02 1532.44 3438.42 1539.48 3439.30 1546.04 C 3446.85 1533.51 3454.25 1518.69 3450.39 1503.70 C 3447.27 1492.09 3435.92 1485.90 3429.88 1476.18 C 3425.32 1468.20 3431.39 1459.95 3432.00 1451.83 C 3419.89 1457.93 3407.91 1466.17 3401.16 1478.26 M 357.23 1491.96 C 357.00 1493.51 356.80 1495.08 356.57 1496.67 C 343.94 1505.88 335.02 1520.99 336.66 1536.99 C 338.12 1558.00 350.66 1575.68 358.21 1594.74 C 360.84 1600.32 359.11 1606.41 358.99 1612.26 C 368.29 1604.11 377.08 1595.07 383.54 1584.46 C 388.05 1577.42 389.19 1567.69 384.60 1560.42 C 379.84 1552.70 373.02 1546.52 368.13 1538.89 C 358.70 1525.70 357.93 1509.02 358.64 1493.41 C 358.29 1493.05 357.58 1492.32 357.23 1491.96 M 543.87 1503.78 C 544.52 1512.21 544.55 1520.85 541.84 1528.97 C 539.70 1534.83 539.27 1541.63 543.04 1546.96 C 549.04 1555.56 557.61 1562.08 566.09 1568.08 C 564.63 1562.60 562.22 1557.36 561.47 1551.71 C 559.57 1541.70 572.78 1535.13 569.16 1525.03 C 564.34 1514.58 552.80 1510.04 543.87 1503.78 M 797.77 1534.76 C 795.72 1542.62 792.85 1551.50 796.79 1559.25 C 800.72 1566.47 803.76 1574.20 805.73 1582.20 C 807.27 1588.71 803.72 1594.84 802.98 1601.21 C 804.81 1600.78 806.91 1600.71 808.34 1599.31 C 821.86 1586.94 826.10 1566.82 821.47 1549.45 C 818.83 1536.65 812.11 1524.47 813.73 1511.06 C 808.00 1518.64 800.19 1525.19 797.77 1534.76 M 3949.97 1515.92 C 3958.31 1536.85 3946.89 1558.52 3948.71 1579.95 C 3949.35 1591.84 3952.05 1606.41 3963.97 1612.08 C 3967.84 1613.64 3970.31 1617.07 3972.84 1620.22 C 3975.07 1613.55 3974.89 1606.40 3976.88 1599.68 C 3980.13 1588.31 3976.74 1576.54 3973.55 1565.58 C 3969.32 1552.09 3963.85 1539.04 3957.81 1526.29 C 3955.90 1522.34 3953.27 1518.78 3949.97 1515.92 M 3109.36 1517.67 C 3109.18 1531.43 3106.45 1546.24 3096.31 1556.33 C 3083.12 1570.55 3085.49 1592.11 3091.38 1609.06 C 3097.03 1604.97 3095.98 1597.22 3098.36 1591.38 C 3101.48 1583.68 3104.62 1575.62 3110.73 1569.73 C 3120.66 1559.90 3124.10 1543.74 3118.07 1530.97 C 3115.81 1526.26 3115.35 1519.13 3109.36 1517.67 M 2954.41 1559.59 C 2960.22 1563.78 2962.83 1570.67 2967.02 1576.24 C 2970.77 1565.49 2966.36 1553.88 2959.89 1545.16 C 2955.29 1539.68 2960.68 1532.99 2960.01 1526.84 C 2947.71 1531.65 2942.95 1551.46 2954.41 1559.59 M 1249.18 1565.20 C 1241.76 1574.34 1237.87 1586.32 1239.22 1598.10 C 1239.69 1606.92 1242.04 1618.15 1251.37 1621.60 C 1258.01 1623.64 1264.90 1625.99 1269.75 1631.25 C 1274.49 1635.51 1275.67 1642.43 1280.81 1646.31 C 1284.87 1634.55 1283.45 1620.85 1276.60 1610.40 C 1272.19 1603.23 1263.86 1599.71 1259.58 1592.42 C 1253.52 1583.79 1252.94 1572.76 1255.06 1562.74 C 1252.98 1563.20 1250.52 1563.28 1249.18 1565.20 Z" />
<path fill="#007dda" opacity="1.00" d=" M 1394.02 1695.20 C 1396.41 1695.20 1398.80 1695.24 1401.21 1695.32 C 1398.98 1696.70 1396.72 1698.05 1394.43 1699.33 C 1394.28 1697.93 1394.14 1696.55 1394.02 1695.20 Z" />
<path fill="#007dda" opacity="1.00" d=" M 2437.18 1730.20 C 2490.43 1729.78 2543.68 1730.06 2596.93 1730.05 C 2595.47 1741.87 2595.38 1753.89 2597.37 1765.65 C 2598.51 1771.96 2598.25 1778.93 2594.32 1784.29 C 2587.88 1794.44 2574.96 1795.62 2565.67 1801.86 C 2558.10 1801.52 2552.27 1796.35 2545.72 1793.30 C 2533.15 1787.53 2518.23 1794.22 2506.10 1787.07 C 2517.48 1781.21 2531.06 1780.33 2541.55 1772.55 C 2550.56 1766.38 2554.72 1755.24 2554.95 1744.65 C 2548.15 1746.05 2544.04 1752.19 2537.89 1754.80 C 2529.97 1757.37 2521.41 1753.51 2513.56 1756.58 C 2507.60 1758.87 2501.27 1760.06 2494.88 1759.74 C 2498.11 1751.43 2506.27 1746.68 2510.24 1738.85 C 2504.19 1738.78 2498.33 1740.40 2492.83 1742.78 C 2483.44 1746.73 2473.25 1747.81 2463.28 1749.32 C 2454.60 1750.53 2446.04 1752.68 2437.26 1752.90 C 2436.79 1745.34 2436.80 1737.76 2437.18 1730.20 Z" />
</g>
<g id="#ffffffff">
<path fill="#ffffff" opacity="1.00" d=" M 1032.05 535.06 C 1168.67 534.92 1305.30 534.89 1441.92 535.08 C 1442.12 581.36 1442.10 627.64 1441.91 673.93 C 1357.01 674.21 1272.10 673.70 1187.19 674.20 C 1186.89 719.07 1186.92 763.95 1187.18 808.83 C 1265.43 809.18 1343.68 808.71 1421.93 809.08 C 1422.06 855.36 1422.05 901.65 1421.93 947.94 C 1343.67 948.21 1265.42 947.86 1187.16 948.12 C 1186.78 1051.05 1187.20 1153.99 1186.93 1256.92 C 1135.31 1257.09 1083.69 1257.08 1032.06 1256.93 C 1031.93 1016.30 1031.95 775.68 1032.05 535.06 Z" />
<path fill="#ffffff" opacity="1.00" d=" M 1522.08 535.07 C 1660.37 534.91 1798.66 534.92 1936.95 535.06 C 1937.04 581.36 1937.03 627.65 1936.95 673.95 C 1850.34 674.18 1763.73 673.75 1677.12 674.16 C 1676.99 715.71 1676.97 757.27 1677.13 798.82 C 1756.73 799.19 1836.33 798.77 1915.92 799.08 C 1916.11 845.36 1916.11 891.64 1915.93 937.92 C 1836.33 938.21 1756.72 937.74 1677.12 938.16 C 1677.02 998.04 1676.92 1057.93 1677.17 1117.80 C 1763.76 1118.22 1850.36 1117.82 1936.95 1118.04 C 1937.02 1164.34 1937.04 1210.64 1936.95 1256.94 C 1798.66 1257.07 1660.37 1257.10 1522.08 1256.92 C 1521.89 1016.30 1521.89 775.69 1522.08 535.07 Z" />
<path fill="#ffffff" opacity="1.00" d=" M 2040.05 535.06 C 2178.34 534.93 2316.63 534.88 2454.92 535.08 C 2455.11 581.36 2455.10 627.65 2454.92 673.93 C 2368.34 674.21 2281.77 673.70 2195.20 674.20 C 2194.89 715.73 2194.87 757.26 2195.22 798.79 C 2275.13 799.17 2355.03 798.78 2434.94 799.06 C 2435.05 845.35 2435.04 891.65 2434.95 937.95 C 2355.03 938.22 2275.11 937.71 2195.19 938.19 C 2194.88 998.06 2194.88 1057.93 2195.20 1117.79 C 2281.77 1118.28 2368.35 1117.75 2454.92 1118.07 C 2455.10 1164.35 2455.11 1210.63 2454.91 1256.91 C 2316.63 1257.10 2178.35 1257.08 2040.07 1256.92 C 2039.91 1016.30 2039.93 775.68 2040.05 535.06 Z" />
<path fill="#ffffff" opacity="1.00" d=" M 2559.08 535.07 C 2610.36 534.90 2661.64 534.88 2712.92 535.08 C 2713.26 729.32 2712.81 923.56 2713.18 1117.80 C 2798.10 1118.26 2883.02 1117.79 2967.95 1118.05 C 2968.04 1164.34 2968.05 1210.64 2967.93 1256.93 C 2831.65 1257.08 2695.36 1257.10 2559.07 1256.92 C 2558.86 1016.30 2558.86 775.69 2559.08 535.07 Z" />
<path fill="#ffffff" opacity="1.00" d=" M 1267.09 1326.09 C 1413.03 1325.85 1558.97 1325.84 1704.90 1326.10 C 1705.12 1372.37 1705.09 1418.64 1704.91 1464.92 C 1654.02 1465.25 1603.12 1464.67 1552.23 1465.24 C 1551.86 1498.49 1551.96 1531.75 1552.17 1565.00 C 1559.28 1565.43 1566.43 1564.57 1573.12 1562.08 C 1579.62 1559.58 1586.68 1560.45 1593.42 1559.31 C 1600.24 1557.57 1605.91 1553.02 1611.15 1548.51 C 1604.94 1548.09 1597.93 1548.41 1592.96 1544.02 C 1588.39 1539.93 1584.97 1534.60 1579.70 1531.29 C 1570.53 1525.35 1563.30 1516.30 1560.13 1505.78 C 1568.01 1508.38 1572.58 1516.69 1580.97 1518.11 C 1600.23 1523.00 1620.40 1520.84 1639.53 1516.45 C 1644.02 1515.34 1647.48 1512.10 1650.60 1508.86 C 1641.22 1507.60 1631.78 1506.65 1622.58 1504.35 C 1614.70 1502.50 1605.81 1504.34 1598.88 1499.35 C 1622.89 1495.86 1648.75 1499.68 1671.16 1488.47 C 1654.55 1488.61 1637.80 1486.46 1622.09 1480.96 C 1615.32 1477.81 1609.82 1472.57 1603.91 1468.11 C 1610.59 1467.61 1617.31 1468.05 1623.94 1468.99 C 1633.48 1470.39 1643.20 1469.48 1652.70 1471.28 C 1661.17 1472.80 1669.90 1474.31 1678.46 1472.39 C 1695.69 1468.71 1713.45 1471.25 1730.81 1468.69 C 1739.74 1467.38 1748.78 1468.09 1757.77 1467.86 C 1758.30 1420.61 1757.72 1373.35 1758.09 1326.09 C 1802.03 1325.84 1845.97 1325.84 1889.91 1326.09 C 1890.26 1371.69 1889.70 1417.30 1890.19 1462.91 C 1905.38 1463.48 1922.33 1461.00 1932.21 1448.13 C 1927.21 1441.74 1922.93 1434.84 1918.75 1427.91 C 1927.81 1428.33 1937.17 1429.46 1945.35 1433.67 C 1953.44 1438.02 1958.56 1445.91 1964.04 1452.99 C 1967.91 1458.21 1974.86 1458.59 1980.58 1460.46 C 1990.82 1463.93 1999.57 1471.17 2010.63 1472.39 C 2020.09 1473.52 2025.32 1483.51 2034.96 1484.09 C 2045.43 1485.06 2055.24 1489.29 2065.72 1490.10 C 2066.18 1475.38 2065.88 1460.65 2065.99 1445.93 C 2066.21 1440.30 2063.53 1435.16 2060.07 1430.91 C 2053.76 1423.18 2049.90 1413.39 2041.75 1407.24 C 2036.44 1402.95 2029.21 1402.85 2023.36 1399.64 C 2018.27 1396.94 2013.01 1394.00 2007.08 1394.09 C 1991.56 1393.78 1975.79 1393.66 1960.77 1389.29 C 1951.67 1386.66 1941.14 1385.16 1934.93 1377.20 C 1945.38 1377.71 1955.77 1382.23 1966.24 1379.23 C 1977.19 1375.99 1988.73 1376.75 1999.92 1378.01 C 2006.95 1378.69 2012.86 1383.15 2019.82 1384.16 C 2026.18 1385.17 2033.11 1384.62 2038.79 1388.22 C 2047.98 1393.85 2056.49 1400.53 2065.81 1405.97 C 2066.23 1379.35 2065.62 1352.72 2066.12 1326.10 C 2110.03 1325.82 2153.94 1325.81 2197.86 1326.11 C 2198.26 1390.09 2197.93 1454.07 2198.04 1518.06 C 2198.09 1526.33 2202.02 1534.40 2208.01 1540.01 C 2212.89 1544.35 2223.36 1544.94 2225.09 1537.14 C 2226.94 1530.04 2231.18 1523.51 2231.89 1516.20 C 2228.83 1509.24 2220.65 1506.41 2216.91 1499.82 C 2220.89 1500.16 2224.88 1501.34 2227.90 1504.11 C 2234.28 1509.74 2241.03 1515.46 2244.81 1523.27 C 2247.42 1528.58 2250.03 1533.90 2252.85 1539.11 C 2257.40 1547.65 2257.10 1557.88 2261.74 1566.37 C 2263.62 1570.00 2268.30 1567.93 2271.40 1567.52 C 2282.25 1564.50 2293.63 1565.83 2304.65 1563.92 C 2305.41 1484.65 2304.59 1405.37 2305.11 1326.10 C 2422.71 1325.81 2540.31 1325.83 2657.91 1326.09 C 2658.10 1372.36 2658.08 1418.64 2657.91 1464.92 C 2584.34 1465.24 2510.77 1464.68 2437.20 1465.23 C 2436.95 1507.07 2436.93 1548.92 2437.21 1590.76 C 2505.09 1591.32 2572.98 1590.70 2640.87 1591.09 C 2641.21 1620.72 2641.00 1650.35 2640.98 1679.97 C 2640.83 1696.60 2641.22 1713.23 2640.85 1729.85 C 2626.21 1730.25 2611.56 1729.78 2596.93 1730.05 C 2543.68 1730.06 2490.43 1729.78 2437.18 1730.20 C 2436.80 1737.76 2436.79 1745.34 2437.26 1752.90 C 2446.04 1752.68 2454.60 1750.53 2463.28 1749.32 C 2473.25 1747.81 2483.44 1746.73 2492.83 1742.78 C 2498.33 1740.40 2504.19 1738.78 2510.24 1738.85 C 2506.27 1746.68 2498.11 1751.43 2494.88 1759.74 C 2501.27 1760.06 2507.60 1758.87 2513.56 1756.58 C 2521.41 1753.51 2529.97 1757.37 2537.89 1754.80 C 2544.04 1752.19 2548.15 1746.05 2554.95 1744.65 C 2554.72 1755.24 2550.56 1766.38 2541.55 1772.55 C 2531.06 1780.33 2517.48 1781.21 2506.10 1787.07 C 2518.23 1794.22 2533.15 1787.53 2545.72 1793.30 C 2552.27 1796.35 2558.10 1801.52 2565.67 1801.86 C 2577.09 1803.63 2588.87 1803.33 2599.99 1799.99 C 2617.52 1794.46 2635.99 1796.19 2654.07 1795.99 C 2660.72 1795.77 2667.41 1798.38 2671.43 1803.85 C 2661.87 1809.18 2650.20 1808.13 2640.79 1813.77 C 2634.24 1817.66 2627.15 1820.57 2620.73 1824.70 C 2631.44 1826.12 2642.27 1825.93 2653.06 1825.96 C 2662.48 1825.74 2670.67 1831.31 2679.92 1832.19 C 2689.57 1833.16 2698.75 1838.00 2708.62 1836.58 C 2719.63 1835.01 2730.57 1832.40 2740.73 1827.76 C 2748.72 1824.23 2757.67 1824.57 2766.18 1825.37 C 2761.47 1827.69 2755.44 1828.74 2752.64 1833.65 C 2748.25 1841.07 2746.68 1849.82 2742.12 1857.15 C 2737.95 1863.27 2730.44 1865.39 2723.90 1867.97 C 2716.30 1870.66 2709.24 1875.34 2700.99 1875.82 C 2694.22 1876.21 2687.37 1876.40 2680.83 1878.38 C 2684.50 1883.86 2689.82 1887.95 2693.62 1893.34 C 2695.90 1896.30 2697.85 1899.91 2701.43 1901.52 C 2723.83 1908.34 2747.58 1906.50 2770.30 1902.33 C 2765.60 1909.38 2756.61 1909.70 2749.12 1911.19 C 2740.83 1912.62 2735.85 1920.38 2728.13 1923.08 C 2723.40 1924.97 2717.78 1925.27 2713.95 1928.94 C 2709.18 1933.73 2706.56 1940.18 2705.10 1946.68 C 2710.66 1948.82 2716.38 1950.61 2721.74 1953.26 C 2728.12 1956.26 2731.81 1963.00 2738.52 1965.51 C 2748.60 1969.70 2757.41 1976.38 2767.54 1980.50 C 2774.31 1983.33 2781.70 1984.08 2788.68 1986.27 C 2797.68 1988.97 2807.25 1992.30 2816.70 1989.68 C 2826.87 1986.64 2837.52 1985.07 2848.13 1986.25 C 2842.88 1989.91 2837.23 1993.11 2832.85 1997.86 C 2824.82 2006.20 2813.17 2009.30 2802.11 2011.13 C 2794.37 2012.16 2787.96 2017.66 2780.03 2017.77 C 2771.23 2017.93 2762.74 2020.32 2754.22 2022.23 C 2757.29 2031.02 2762.58 2038.84 2769.38 2045.19 C 2755.72 2053.27 2739.00 2050.97 2723.97 2054.40 C 2726.20 2061.60 2731.35 2067.34 2737.54 2071.48 C 2745.98 2077.29 2752.19 2086.59 2762.32 2089.72 C 2770.70 2092.15 2779.46 2094.88 2788.28 2093.23 C 2799.17 2091.17 2810.34 2090.01 2821.42 2091.15 C 2818.76 2097.80 2811.59 2099.96 2805.69 2102.74 C 2799.92 2105.27 2795.99 2110.36 2791.13 2114.14 C 2787.15 2117.25 2781.97 2117.76 2777.34 2119.37 C 2771.12 2121.36 2765.99 2125.65 2759.86 2127.84 C 2744.01 2132.58 2727.46 2133.35 2711.05 2134.04 C 2716.50 2143.85 2728.43 2147.62 2733.44 2157.53 C 2719.86 2156.12 2706.19 2156.05 2692.64 2154.39 C 2693.48 2157.19 2694.33 2160.01 2695.19 2162.85 C 2686.09 2163.07 2676.94 2163.59 2668.11 2165.91 C 2668.68 2167.20 2669.29 2168.51 2669.93 2169.84 C 2661.70 2174.47 2655.27 2181.52 2649.89 2189.16 C 2652.89 2193.68 2656.63 2198.53 2662.34 2199.54 C 2674.26 2201.26 2686.37 2200.01 2698.24 2198.38 C 2696.91 2200.57 2695.79 2203.10 2693.53 2204.50 C 2684.41 2209.70 2673.35 2210.81 2664.64 2216.74 C 2663.30 2222.98 2671.34 2225.63 2674.38 2230.05 C 2663.87 2228.94 2653.18 2226.97 2642.87 2230.52 C 2649.99 2237.03 2660.21 2234.94 2668.99 2235.11 C 2667.80 2239.05 2666.54 2242.99 2665.21 2246.91 C 2668.05 2248.07 2671.81 2248.66 2673.03 2251.95 C 2725.57 2380.01 2778.14 2508.07 2831.02 2636.00 C 2833.74 2642.45 2835.97 2649.16 2839.56 2655.24 C 2840.65 2519.55 2839.56 2383.84 2840.14 2248.15 C 2881.02 2247.92 2921.92 2247.86 2962.81 2248.18 C 2963.08 2488.38 2963.12 2728.58 2962.78 2968.77 C 2919.92 2969.08 2877.06 2969.17 2834.21 2968.72 C 2769.06 2811.79 2705.58 2654.17 2640.99 2497.00 C 2637.45 2488.93 2634.81 2480.43 2630.45 2472.75 C 2629.28 2638.09 2630.48 2803.44 2629.80 2968.79 C 2588.93 2969.11 2548.06 2969.10 2507.19 2968.79 C 2506.70 2733.86 2507.22 2498.93 2506.93 2264.01 C 2507.15 2258.59 2505.55 2252.13 2509.91 2247.91 C 2512.67 2245.30 2513.19 2241.53 2513.07 2237.92 C 2503.10 2248.20 2498.30 2262.36 2496.39 2276.30 C 2495.17 2286.16 2490.41 2295.11 2488.91 2304.91 C 2487.74 2312.35 2485.00 2319.47 2480.67 2325.64 C 2468.18 2344.79 2458.58 2366.75 2440.18 2381.20 C 2434.28 2385.99 2429.01 2391.76 2422.05 2395.05 C 2412.04 2399.92 2400.84 2401.15 2390.28 2404.34 C 2393.48 2447.68 2393.33 2491.91 2382.28 2534.22 C 2369.45 2586.13 2336.22 2632.25 2292.14 2662.28 C 2294.99 2670.08 2299.84 2676.89 2303.95 2684.06 C 2355.88 2773.41 2408.29 2862.49 2460.04 2951.95 C 2463.22 2957.49 2466.70 2962.88 2469.30 2968.75 C 2414.96 2969.08 2360.61 2969.24 2306.27 2968.64 C 2256.94 2880.96 2208.10 2793.00 2158.72 2705.34 C 2143.21 2704.60 2127.67 2704.95 2112.15 2705.13 C 2111.65 2793.01 2112.33 2880.90 2111.80 2968.78 C 2067.26 2969.12 2022.73 2969.09 1978.20 2968.80 C 1977.61 2749.54 1978.36 2530.28 1977.81 2311.02 C 1966.07 2320.15 1956.95 2332.57 1943.72 2339.78 C 1927.15 2348.78 1908.23 2351.37 1890.24 2356.21 C 1889.59 2366.06 1890.26 2375.94 1889.88 2385.81 C 1814.63 2386.28 1739.38 2385.68 1664.13 2386.13 C 1663.90 2428.03 1663.84 2469.93 1664.16 2511.82 C 1733.37 2512.34 1802.59 2511.66 1871.80 2512.17 C 1872.09 2558.04 1872.11 2603.92 1871.80 2649.79 C 1802.57 2650.33 1733.35 2649.65 1664.13 2650.13 C 1663.90 2710.36 1663.86 2770.59 1664.14 2830.82 C 1739.36 2831.36 1814.58 2830.61 1889.79 2831.21 C 1890.11 2877.07 1890.10 2922.94 1889.80 2968.80 C 1769.93 2969.10 1650.06 2969.09 1530.19 2968.80 C 1529.88 2728.59 1529.90 2488.38 1530.17 2248.17 C 1570.40 2247.70 1610.64 2248.25 1650.87 2247.95 C 1647.66 2238.04 1647.29 2227.54 1644.44 2217.56 C 1642.48 2210.84 1643.26 2203.82 1643.61 2196.96 C 1644.29 2180.35 1644.10 2163.07 1637.45 2147.54 C 1633.73 2138.60 1627.21 2131.27 1620.87 2124.11 C 1614.81 2117.24 1605.85 2114.22 1597.33 2111.69 C 1577.10 2105.83 1557.19 2098.93 1536.99 2092.98 C 1531.56 2091.13 1526.23 2094.00 1521.63 2096.63 C 1512.91 2101.38 1506.61 2110.33 1504.90 2120.08 C 1503.51 2126.12 1511.14 2129.13 1510.98 2134.97 C 1511.22 2142.33 1509.51 2150.11 1513.00 2157.01 C 1516.70 2164.80 1516.86 2173.53 1516.69 2181.98 C 1516.45 2192.99 1518.34 2203.91 1518.10 2214.93 C 1513.92 2213.21 1508.40 2211.86 1507.42 2206.70 C 1506.65 2202.87 1503.98 2200.16 1500.42 2198.80 C 1497.53 2219.45 1502.41 2241.24 1493.94 2260.90 C 1491.39 2268.66 1484.25 2273.63 1481.23 2281.15 C 1479.12 2286.03 1476.97 2291.72 1471.33 2293.38 C 1472.26 2284.32 1475.53 2275.33 1473.83 2266.14 C 1472.17 2257.73 1470.94 2249.23 1468.85 2240.92 C 1460.80 2246.58 1458.16 2256.54 1451.59 2263.40 C 1450.83 2256.66 1450.35 2249.84 1451.11 2243.09 C 1451.78 2236.47 1456.15 2231.09 1457.75 2224.76 C 1459.15 2219.60 1459.04 2214.21 1458.94 2208.93 C 1450.63 2218.84 1444.03 2230.14 1435.06 2239.49 C 1432.73 2234.60 1431.11 2228.83 1433.68 2223.70 C 1439.05 2212.06 1442.74 2199.70 1444.80 2187.06 C 1441.63 2188.40 1438.46 2189.72 1435.26 2190.97 C 1427.97 2179.79 1434.60 2167.26 1436.84 2155.69 C 1439.80 2147.43 1442.15 2138.77 1441.04 2129.91 C 1437.10 2133.58 1433.48 2137.59 1429.38 2141.09 C 1429.11 2129.10 1428.45 2117.08 1429.32 2105.11 C 1430.12 2095.49 1437.31 2086.28 1433.50 2076.50 C 1429.85 2068.67 1430.74 2058.39 1423.32 2052.71 C 1415.10 2046.29 1410.68 2034.14 1399.19 2032.79 C 1388.11 2031.47 1377.19 2028.62 1365.99 2028.62 C 1354.48 2028.52 1343.00 2033.77 1335.67 2042.66 C 1330.11 2049.41 1328.98 2058.41 1325.14 2066.06 C 1320.70 2074.62 1320.01 2084.44 1316.31 2093.28 C 1313.04 2101.12 1315.11 2110.01 1311.88 2117.86 C 1308.87 2125.25 1304.51 2131.99 1301.37 2139.32 C 1298.41 2146.08 1299.49 2153.68 1297.66 2160.71 C 1296.74 2165.01 1294.76 2169.25 1295.24 2173.75 C 1296.70 2178.21 1301.82 2180.92 1301.89 2185.97 C 1302.24 2192.76 1300.62 2200.19 1304.72 2206.22 C 1311.41 2217.20 1312.44 2230.31 1316.92 2242.12 C 1322.13 2251.94 1329.56 2261.44 1340.02 2265.97 C 1357.39 2274.48 1373.49 2286.21 1385.54 2301.46 C 1405.85 2327.13 1415.68 2359.70 1418.09 2392.01 C 1422.15 2440.20 1414.52 2491.29 1387.01 2532.01 C 1376.85 2547.91 1362.11 2560.20 1346.42 2570.39 C 1346.39 2570.94 1346.34 2572.06 1346.31 2572.62 C 1377.31 2581.97 1405.13 2601.73 1423.57 2628.42 C 1443.18 2656.65 1451.58 2691.11 1453.72 2725.03 C 1455.47 2756.59 1454.36 2788.65 1446.49 2819.42 C 1439.63 2847.35 1427.58 2874.19 1410.08 2897.09 C 1389.17 2924.28 1360.73 2946.03 1328.16 2957.18 C 1297.92 2967.31 1265.65 2968.98 1234.00 2968.99 C 1165.73 2968.84 1097.46 2969.23 1029.19 2968.79 C 1028.85 2728.59 1028.94 2488.38 1029.15 2248.18 C 1095.76 2247.80 1162.38 2248.07 1229.00 2248.03 C 1246.00 2248.76 1263.07 2248.58 1279.99 2250.70 C 1276.39 2244.85 1273.28 2238.39 1267.45 2234.41 C 1269.51 2230.34 1271.53 2226.26 1273.25 2222.05 C 1265.12 2221.69 1255.57 2223.51 1249.26 2217.04 C 1257.48 2209.65 1272.22 2209.28 1275.83 2197.31 C 1269.50 2192.67 1263.30 2187.80 1258.31 2181.68 C 1254.16 2176.44 1247.18 2175.44 1242.00 2171.63 C 1253.42 2166.12 1262.11 2156.72 1271.41 2148.38 C 1275.05 2145.35 1275.15 2140.38 1275.29 2136.05 C 1266.10 2135.74 1256.89 2136.35 1247.71 2135.61 C 1249.83 2126.66 1260.34 2124.99 1264.86 2117.89 C 1270.48 2107.65 1271.56 2095.65 1271.11 2084.18 C 1262.47 2083.58 1255.40 2078.53 1247.64 2075.48 C 1232.52 2073.65 1217.18 2074.36 1201.97 2073.60 C 1203.78 2063.05 1210.51 2054.29 1217.90 2046.92 C 1225.26 2039.80 1227.81 2029.27 1235.15 2022.14 C 1243.60 2013.61 1249.96 2003.34 1256.09 1993.09 C 1261.93 1983.32 1259.36 1971.35 1262.87 1960.86 C 1266.34 1947.16 1281.62 1940.80 1285.03 1927.04 C 1276.96 1927.94 1269.16 1930.56 1261.02 1930.92 C 1245.61 1931.83 1230.16 1934.12 1214.72 1932.62 C 1220.46 1925.75 1230.18 1925.94 1237.33 1921.33 C 1244.95 1916.88 1247.14 1907.26 1254.42 1902.43 C 1259.40 1899.13 1264.14 1895.51 1268.83 1891.81 C 1273.57 1888.08 1279.99 1888.63 1285.29 1886.23 C 1289.30 1884.16 1291.06 1879.72 1293.11 1875.98 C 1288.13 1869.95 1282.30 1863.80 1274.65 1861.41 C 1266.41 1860.10 1257.65 1862.01 1249.86 1858.16 C 1243.58 1855.13 1235.16 1853.43 1231.31 1847.34 C 1237.39 1843.01 1244.94 1841.83 1252.02 1840.06 C 1260.98 1838.13 1268.74 1832.92 1277.55 1830.52 C 1281.67 1829.60 1282.15 1824.99 1282.98 1821.59 C 1280.29 1820.91 1277.61 1820.26 1274.95 1819.53 C 1283.78 1816.24 1294.00 1812.51 1296.12 1802.03 C 1293.02 1801.82 1289.93 1801.65 1286.84 1801.46 C 1297.34 1796.92 1308.06 1790.75 1312.81 1779.74 C 1315.09 1774.66 1315.96 1767.63 1311.55 1763.43 C 1306.80 1759.51 1300.19 1761.17 1294.82 1762.66 C 1295.46 1761.08 1296.18 1759.55 1296.92 1758.04 C 1299.89 1755.74 1303.59 1753.75 1304.93 1750.01 C 1304.08 1747.96 1302.61 1746.27 1301.14 1744.68 C 1289.61 1734.29 1272.17 1744.12 1260.29 1734.70 C 1254.17 1729.67 1246.63 1727.06 1238.95 1725.59 C 1240.19 1724.25 1241.39 1722.87 1242.66 1721.58 C 1239.31 1714.53 1234.16 1708.53 1230.99 1701.39 C 1232.85 1701.15 1234.74 1700.94 1236.64 1700.76 C 1236.42 1699.10 1236.26 1697.44 1236.09 1695.82 C 1247.71 1701.17 1259.91 1706.67 1273.02 1706.00 C 1275.21 1706.08 1276.86 1704.47 1278.50 1703.27 C 1287.65 1707.71 1297.89 1708.56 1307.92 1708.05 C 1312.86 1708.03 1317.80 1708.03 1322.75 1707.99 C 1321.68 1704.05 1320.75 1700.09 1320.01 1696.09 C 1324.87 1699.50 1328.91 1704.18 1334.46 1706.54 C 1340.73 1708.77 1347.52 1707.92 1354.04 1708.00 C 1358.67 1707.95 1363.32 1708.03 1367.95 1707.72 C 1377.28 1706.99 1386.31 1703.94 1394.43 1699.33 C 1396.72 1698.05 1398.98 1696.70 1401.21 1695.32 C 1398.80 1695.24 1396.41 1695.20 1394.02 1695.20 C 1385.81 1695.39 1377.24 1694.65 1370.12 1690.18 C 1362.84 1686.66 1357.05 1680.00 1356.14 1671.77 C 1361.58 1673.45 1365.65 1677.52 1369.97 1681.01 C 1376.59 1683.56 1383.45 1680.42 1390.12 1679.81 C 1399.85 1681.79 1409.55 1685.06 1419.62 1683.60 C 1420.39 1659.40 1419.63 1635.19 1420.06 1610.99 C 1419.95 1605.35 1420.20 1598.52 1415.51 1594.51 C 1406.36 1588.48 1394.91 1589.96 1384.63 1588.30 C 1375.66 1584.93 1370.91 1575.75 1365.76 1568.27 C 1373.71 1570.74 1381.83 1572.91 1389.27 1576.76 C 1398.70 1581.72 1409.68 1579.33 1419.83 1580.92 C 1420.02 1542.36 1420.04 1503.80 1419.77 1465.25 C 1368.88 1464.65 1317.98 1465.27 1267.09 1464.91 C 1266.89 1418.64 1266.89 1372.36 1267.09 1326.09 M 1902.42 1521.36 C 1893.15 1522.74 1883.84 1524.95 1875.65 1529.65 C 1869.09 1533.86 1860.86 1535.45 1855.76 1541.75 C 1849.79 1546.76 1846.84 1556.43 1838.03 1557.07 C 1828.26 1558.20 1818.75 1561.69 1808.81 1560.83 C 1815.03 1552.73 1826.92 1554.80 1834.08 1548.10 C 1837.95 1544.46 1841.28 1540.26 1844.05 1535.73 C 1793.91 1549.43 1746.78 1572.99 1703.42 1601.45 C 1685.72 1612.05 1681.00 1635.94 1661.91 1644.88 C 1664.15 1636.28 1673.79 1632.47 1676.01 1623.87 C 1661.01 1631.66 1650.50 1645.37 1640.83 1658.79 C 1638.65 1662.80 1638.12 1667.58 1635.28 1671.26 C 1631.47 1676.76 1625.48 1681.22 1624.28 1688.17 C 1622.53 1701.92 1626.39 1716.23 1621.70 1729.61 C 1620.33 1736.84 1621.25 1744.34 1619.54 1751.56 C 1617.59 1761.60 1620.43 1771.93 1617.94 1781.91 C 1615.29 1792.33 1615.54 1803.19 1613.77 1813.76 C 1612.55 1825.45 1603.83 1834.71 1602.46 1846.38 C 1601.80 1852.38 1600.24 1858.21 1598.78 1864.07 C 1606.59 1861.41 1614.48 1858.77 1622.76 1858.01 C 1619.14 1868.52 1614.29 1878.82 1613.29 1890.03 C 1612.37 1896.73 1616.64 1904.49 1623.59 1905.81 C 1622.68 1919.15 1619.00 1932.25 1613.30 1944.33 C 1610.60 1950.68 1603.04 1953.27 1600.92 1960.00 C 1605.15 1958.36 1610.18 1953.89 1614.61 1957.44 C 1617.71 1961.49 1613.58 1965.93 1611.00 1968.98 C 1604.94 1975.97 1605.70 1985.78 1603.10 1994.14 C 1601.03 2000.27 1594.84 2003.32 1590.11 2007.13 C 1585.67 2010.37 1582.75 2015.09 1579.12 2019.13 C 1575.06 2023.76 1568.14 2024.41 1564.30 2029.31 C 1560.01 2034.54 1557.16 2040.74 1554.24 2046.80 C 1581.54 2052.62 1609.00 2057.67 1636.26 2063.63 C 1653.64 2066.82 1671.41 2066.06 1688.99 2066.42 C 1696.83 2066.78 1704.10 2062.91 1711.95 2063.31 C 1718.75 2063.51 1725.22 2060.63 1732.03 2061.03 C 1777.90 2063.94 1823.72 2067.60 1869.60 2070.44 C 1878.15 2070.74 1885.73 2075.04 1893.87 2077.15 C 1903.91 2079.91 1914.08 2082.34 1924.43 2083.66 C 1933.61 2084.94 1941.55 2090.03 1950.28 2092.77 C 1971.88 2100.28 1992.56 2111.90 2008.03 2128.99 C 2012.91 2134.53 2020.86 2136.92 2023.89 2144.15 C 2028.93 2154.71 2036.88 2163.26 2043.48 2172.78 C 2051.61 2173.16 2058.85 2167.81 2067.02 2168.90 C 2077.32 2170.25 2087.87 2169.50 2098.03 2171.99 C 2106.45 2173.94 2113.83 2178.66 2121.84 2181.73 C 2126.21 2178.82 2130.52 2175.83 2134.74 2172.71 C 2140.02 2168.96 2141.96 2161.16 2149.08 2160.01 C 2160.44 2157.66 2170.30 2151.49 2180.69 2146.70 C 2193.91 2142.66 2206.96 2137.68 2220.73 2135.68 C 2235.38 2132.89 2249.97 2128.22 2265.08 2129.35 C 2304.68 2132.32 2344.39 2134.54 2383.93 2138.00 C 2403.16 2144.67 2423.50 2146.75 2443.12 2151.91 C 2456.46 2155.95 2468.89 2162.90 2482.75 2165.24 C 2493.83 2166.74 2503.67 2172.85 2514.79 2174.14 C 2515.06 2155.75 2515.37 2137.34 2514.72 2118.95 C 2513.22 2099.46 2518.78 2080.32 2517.82 2060.86 C 2505.24 2068.06 2505.22 2084.26 2504.07 2096.92 C 2503.31 2096.89 2501.78 2096.84 2501.02 2096.81 C 2496.44 2081.34 2504.03 2066.48 2509.27 2052.31 C 2518.12 2036.02 2517.71 2016.97 2517.63 1999.00 C 2512.98 1955.10 2506.72 1910.58 2489.95 1869.48 C 2487.97 1876.18 2489.45 1883.45 2487.09 1890.13 C 2484.06 1898.53 2486.77 1907.38 2486.86 1916.00 C 2487.31 1925.02 2493.95 1932.17 2501.20 1936.81 C 2504.52 1938.44 2503.97 1942.35 2503.08 1945.31 C 2496.72 1943.06 2492.14 1937.95 2486.64 1934.32 C 2480.05 1930.02 2477.45 1922.23 2472.68 1916.33 C 2467.86 1910.08 2471.72 1902.07 2471.70 1895.05 C 2471.72 1878.19 2485.93 1863.61 2482.51 1846.42 C 2476.10 1831.02 2470.77 1814.84 2461.30 1800.97 C 2461.60 1804.00 2461.92 1807.04 2462.13 1810.11 C 2455.06 1806.75 2451.60 1798.98 2450.51 1791.63 C 2449.67 1785.60 2450.93 1778.99 2447.45 1773.62 C 2402.78 1697.36 2338.81 1632.35 2262.73 1587.29 C 2255.42 1582.96 2250.80 1592.18 2246.10 1596.12 C 2239.09 1601.18 2238.71 1611.76 2230.54 1615.53 C 2218.03 1621.05 2204.56 1623.93 2191.78 1628.71 C 2171.51 1633.60 2150.41 1633.62 2129.71 1632.52 C 2133.20 1629.72 2137.86 1630.19 2142.06 1629.93 C 2149.14 1629.82 2155.79 1627.16 2162.62 1625.60 C 2168.40 1624.48 2172.16 1619.27 2177.80 1617.81 C 2186.77 1615.25 2196.84 1617.07 2205.14 1612.11 C 2209.76 1609.33 2214.98 1607.90 2219.97 1605.95 C 2225.26 1603.98 2228.20 1598.73 2233.06 1596.07 C 2240.33 1592.40 2242.87 1583.15 2242.44 1575.62 C 2236.48 1570.95 2228.18 1571.97 2221.22 1573.23 C 2212.30 1574.79 2208.28 1585.31 2199.03 1586.08 C 2184.72 1587.60 2171.09 1592.74 2156.72 1593.63 C 2134.06 1597.83 2110.90 1595.28 2088.01 1596.00 C 2065.60 1597.36 2046.22 1582.54 2023.97 1582.72 C 2012.91 1582.24 2004.88 1591.49 1994.39 1593.35 C 1984.56 1595.22 1976.02 1600.81 1966.39 1603.29 C 1956.07 1605.46 1945.49 1606.38 1934.96 1605.87 C 1928.53 1605.48 1922.88 1608.96 1916.75 1610.19 C 1918.66 1606.51 1921.31 1603.07 1924.97 1601.01 C 1929.04 1599.38 1934.09 1600.75 1937.58 1597.58 C 1948.24 1589.36 1962.04 1587.96 1974.28 1583.27 C 1981.37 1580.23 1989.42 1580.77 1996.41 1577.42 C 2004.42 1573.61 2013.46 1575.24 2022.00 1575.09 C 2041.39 1575.41 2061.51 1573.07 2080.11 1579.90 C 2093.21 1584.77 2107.52 1584.66 2121.24 1583.22 C 2131.13 1581.68 2141.38 1580.88 2150.56 1576.56 C 2155.38 1574.30 2160.58 1572.67 2165.97 1572.99 C 2174.67 1573.32 2183.27 1571.84 2191.87 1570.74 C 2201.39 1569.70 2210.28 1565.14 2220.02 1565.57 C 2208.17 1556.97 2193.86 1553.11 2180.58 1547.40 C 2092.48 1513.90 1995.20 1504.27 1902.42 1521.36 M 1755.90 2080.81 C 1739.86 2081.44 1724.58 2086.91 1709.86 2092.88 C 1687.86 2102.96 1672.21 2123.58 1663.94 2145.89 C 1660.94 2153.53 1661.76 2161.93 1659.81 2169.81 C 1656.68 2180.55 1657.06 2191.87 1656.18 2202.94 C 1654.90 2216.97 1661.24 2230.02 1662.53 2243.80 C 1662.42 2247.31 1666.05 2248.28 1668.93 2248.02 C 1742.58 2248.05 1816.23 2247.85 1889.88 2248.12 C 1890.30 2277.07 1889.55 2306.04 1890.26 2334.99 C 1899.41 2333.90 1907.32 2328.91 1915.85 2325.85 C 1927.12 2321.58 1938.52 2316.77 1947.60 2308.63 C 1955.58 2301.59 1961.39 2292.35 1970.02 2286.01 C 1973.30 2283.37 1977.41 2280.56 1977.77 2275.97 C 1978.52 2266.68 1977.66 2257.35 1978.06 2248.06 C 1984.62 2247.92 1991.20 2248.15 1997.77 2247.72 C 2000.34 2236.91 2008.51 2228.56 2010.51 2217.56 C 2012.87 2205.74 2017.52 2194.19 2016.78 2181.95 C 2017.22 2165.70 2009.01 2150.45 1997.77 2139.22 C 1992.16 2134.81 1985.86 2131.29 1981.04 2125.94 C 1969.35 2114.42 1952.57 2112.00 1938.61 2104.48 C 1927.37 2098.34 1914.34 2097.64 1902.40 2093.58 C 1889.14 2087.62 1874.20 2088.33 1860.59 2083.48 C 1843.05 2081.72 1825.84 2076.34 1808.05 2077.69 C 1790.72 2079.65 1773.14 2077.74 1755.90 2080.81 M 2247.21 2145.34 C 2238.26 2146.61 2229.94 2150.43 2221.07 2152.07 C 2200.16 2156.07 2180.91 2165.56 2162.06 2175.08 C 2146.64 2183.37 2140.80 2201.44 2136.46 2217.23 C 2136.84 2227.46 2137.55 2237.68 2136.78 2247.96 C 2179.35 2248.54 2222.45 2245.67 2264.43 2254.54 C 2292.99 2259.77 2319.21 2274.91 2339.41 2295.58 C 2364.21 2320.59 2380.39 2353.42 2387.30 2387.82 C 2395.99 2386.69 2403.26 2381.53 2411.14 2378.16 C 2422.51 2372.97 2433.77 2366.62 2442.05 2357.05 C 2457.76 2339.17 2469.69 2317.55 2474.02 2293.99 C 2478.69 2280.51 2477.18 2266.11 2479.25 2252.21 C 2481.10 2234.88 2478.48 2216.18 2468.34 2201.66 C 2464.90 2195.65 2461.57 2189.31 2456.10 2184.89 C 2451.20 2181.00 2445.69 2178.00 2440.59 2174.42 C 2431.36 2167.47 2419.61 2165.66 2409.45 2160.53 C 2400.53 2155.88 2390.11 2156.73 2380.84 2153.21 C 2367.93 2148.75 2354.20 2148.12 2340.84 2146.07 C 2326.65 2141.36 2311.65 2143.67 2297.04 2143.34 C 2280.41 2142.61 2263.73 2143.33 2247.21 2145.34 M 2050.98 2205.99 C 2042.60 2209.45 2038.80 2218.21 2034.54 2225.56 C 2030.58 2232.89 2024.95 2239.47 2022.88 2247.70 C 2053.81 2248.22 2084.76 2248.13 2115.69 2247.74 C 2115.87 2237.15 2117.46 2225.66 2111.96 2216.04 C 2107.56 2208.63 2098.63 2206.47 2091.00 2204.00 C 2078.03 2199.58 2063.47 2200.42 2050.98 2205.99 M 1164.10 2380.10 C 1163.92 2430.70 1163.91 2481.30 1164.10 2531.90 C 1184.10 2531.91 1204.12 2532.55 1224.09 2531.23 C 1241.86 2530.13 1259.26 2521.30 1269.80 2506.82 C 1277.03 2496.75 1279.67 2484.32 1281.40 2472.28 C 1285.27 2449.23 1282.19 2424.69 1270.89 2404.07 C 1262.58 2389.80 1246.01 2382.32 1230.03 2381.11 C 1208.11 2379.29 1186.07 2380.05 1164.10 2380.10 M 2112.11 2380.12 C 2111.91 2444.70 2111.91 2509.30 2112.11 2573.89 C 2140.71 2573.59 2169.91 2576.18 2197.91 2568.91 C 2217.70 2563.57 2233.43 2548.26 2242.14 2530.06 C 2253.11 2508.49 2254.06 2483.65 2253.64 2459.94 C 2252.75 2444.01 2249.72 2427.92 2242.46 2413.60 C 2233.63 2396.74 2216.07 2385.39 2197.43 2382.60 C 2169.21 2378.10 2140.54 2380.32 2112.11 2380.12 M 1164.10 2656.10 C 1163.92 2716.36 1163.90 2776.63 1164.10 2836.89 C 1189.40 2837.00 1214.74 2837.48 1240.01 2836.00 C 1256.04 2835.60 1271.30 2829.21 1284.64 2820.66 C 1298.83 2811.42 1307.43 2795.67 1311.62 2779.62 C 1317.27 2758.44 1317.15 2736.05 1313.42 2714.56 C 1310.15 2693.71 1297.32 2674.33 1278.28 2664.75 C 1264.49 2657.12 1248.39 2656.44 1233.01 2656.30 C 1210.05 2655.67 1187.07 2655.98 1164.10 2656.10 Z" />
</g>
<g id="#f85a57ff">
<path fill="#f85a57" opacity="1.00" d=" M 3656.35 1483.52 C 3653.95 1469.45 3660.94 1455.29 3672.10 1446.86 C 3675.91 1457.85 3676.39 1469.76 3674.28 1481.16 C 3672.69 1488.16 3669.98 1495.67 3663.91 1500.00 C 3658.34 1496.82 3657.43 1489.32 3656.35 1483.52 Z" />
<path fill="#f85a57" opacity="1.00" d=" M 3401.16 1478.26 C 3407.91 1466.17 3419.89 1457.93 3432.00 1451.83 C 3431.39 1459.95 3425.32 1468.20 3429.88 1476.18 C 3435.92 1485.90 3447.27 1492.09 3450.39 1503.70 C 3454.25 1518.69 3446.85 1533.51 3439.30 1546.04 C 3438.42 1539.48 3438.02 1532.44 3434.08 1526.85 C 3427.23 1516.91 3416.67 1510.48 3406.38 1504.62 C 3398.55 1498.65 3396.21 1486.80 3401.16 1478.26 Z" />
<path fill="#f85a57" opacity="1.00" d=" M 357.23 1491.96 C 357.58 1492.32 358.29 1493.05 358.64 1493.41 C 357.93 1509.02 358.70 1525.70 368.13 1538.89 C 373.02 1546.52 379.84 1552.70 384.60 1560.42 C 389.19 1567.69 388.05 1577.42 383.54 1584.46 C 377.08 1595.07 368.29 1604.11 358.99 1612.26 C 359.11 1606.41 360.84 1600.32 358.21 1594.74 C 350.66 1575.68 338.12 1558.00 336.66 1536.99 C 335.02 1520.99 343.94 1505.88 356.57 1496.67 C 356.80 1495.08 357.00 1493.51 357.23 1491.96 Z" />
<path fill="#f85a57" opacity="1.00" d=" M 543.87 1503.78 C 552.80 1510.04 564.34 1514.58 569.16 1525.03 C 572.78 1535.13 559.57 1541.70 561.47 1551.71 C 562.22 1557.36 564.63 1562.60 566.09 1568.08 C 557.61 1562.08 549.04 1555.56 543.04 1546.96 C 539.27 1541.63 539.70 1534.83 541.84 1528.97 C 544.55 1520.85 544.52 1512.21 543.87 1503.78 Z" />
<path fill="#f85a57" opacity="1.00" d=" M 3812.12 1504.36 C 3815.82 1505.38 3817.24 1509.13 3818.91 1512.20 C 3825.11 1524.15 3831.56 1536.09 3835.92 1548.87 C 3838.27 1558.50 3838.88 1568.95 3844.54 1577.45 C 3846.18 1579.98 3849.17 1582.71 3852.45 1581.44 C 3857.41 1579.28 3861.00 1574.61 3862.34 1569.41 C 3864.57 1561.30 3868.96 1553.99 3874.42 1547.64 C 3877.75 1550.33 3880.45 1553.72 3882.61 1557.44 C 3889.33 1568.50 3895.75 1580.62 3895.66 1593.93 C 3895.64 1609.77 3900.27 1626.71 3912.34 1637.66 C 3918.62 1643.73 3927.00 1647.09 3935.53 1648.55 C 3942.03 1649.59 3948.31 1652.44 3955.02 1651.99 C 3962.23 1651.25 3968.46 1646.70 3972.89 1641.16 C 3978.31 1653.03 3982.63 1667.37 3994.64 1674.25 C 3993.42 1667.60 3993.77 1659.93 4000.00 1655.83 L 4000.00 3500.00 L 0.00 3500.00 L 0.00 1632.49 C 6.24 1619.61 15.27 1608.29 25.07 1597.94 C 29.45 1615.90 42.24 1629.57 53.28 1643.73 C 61.62 1652.91 74.21 1656.63 86.22 1657.57 C 93.57 1658.14 101.56 1654.60 104.64 1647.61 C 109.61 1636.84 108.30 1624.46 106.86 1613.05 C 105.89 1603.73 100.16 1595.51 100.53 1585.99 C 100.05 1566.46 115.05 1550.02 131.56 1541.64 C 131.00 1550.30 139.59 1553.94 144.21 1559.79 C 149.84 1566.50 157.78 1571.20 161.96 1579.11 C 172.50 1596.45 172.55 1619.21 163.16 1637.04 C 157.29 1647.92 153.95 1660.50 155.36 1672.89 C 156.80 1685.27 164.18 1696.59 174.50 1703.45 C 183.43 1709.43 193.94 1714.73 205.02 1713.08 C 212.57 1712.43 219.73 1707.71 222.72 1700.65 C 225.97 1694.13 223.66 1686.10 227.89 1679.96 C 232.35 1672.77 240.69 1669.52 248.61 1667.82 C 247.18 1672.39 247.45 1677.26 249.36 1681.66 C 254.56 1698.83 269.09 1710.81 283.27 1720.68 C 289.81 1724.51 295.96 1730.38 303.98 1730.43 C 313.68 1730.35 321.99 1724.08 327.66 1716.68 C 331.69 1711.36 337.78 1706.34 337.33 1699.01 C 336.63 1692.73 333.99 1686.61 335.19 1680.20 C 336.69 1671.04 338.59 1661.76 342.32 1653.24 C 345.95 1647.53 349.17 1641.54 350.48 1634.83 C 360.04 1641.16 359.63 1654.31 358.16 1664.37 C 356.10 1673.42 358.84 1683.82 366.45 1689.52 C 374.50 1695.58 385.14 1698.32 395.10 1697.04 C 404.58 1693.22 406.10 1681.69 407.71 1672.85 C 409.03 1663.20 416.74 1656.61 421.20 1648.44 C 425.09 1652.73 430.72 1655.25 433.75 1660.33 C 438.69 1668.20 439.71 1677.85 439.26 1686.95 C 438.09 1700.16 441.68 1713.84 449.30 1724.70 C 457.34 1735.95 471.36 1741.91 485.01 1741.47 C 490.61 1741.36 498.33 1742.32 501.34 1736.32 C 506.50 1725.89 501.46 1714.15 497.82 1704.08 C 494.93 1697.50 498.49 1690.53 501.90 1684.92 C 506.07 1677.78 512.44 1672.26 516.58 1665.11 C 519.09 1671.78 524.17 1676.95 528.87 1682.14 C 535.74 1689.23 545.43 1696.41 555.87 1693.88 C 562.01 1691.96 569.68 1689.84 571.94 1683.01 C 575.75 1672.46 575.33 1661.03 575.40 1649.99 C 575.74 1628.43 572.08 1607.12 570.01 1585.74 C 591.35 1603.62 607.71 1628.20 614.83 1655.22 C 618.11 1666.02 616.17 1678.11 621.87 1688.19 C 628.32 1699.82 640.13 1707.51 652.54 1711.55 C 655.13 1712.29 658.68 1712.98 660.43 1710.31 C 664.62 1704.43 662.57 1696.75 661.80 1690.16 C 661.26 1683.73 656.10 1678.98 655.22 1672.68 C 654.04 1665.42 654.83 1658.04 655.58 1650.79 C 656.14 1642.53 660.83 1635.28 661.30 1626.99 C 676.43 1633.55 688.66 1648.89 687.38 1665.98 C 686.34 1678.04 687.91 1690.57 693.83 1701.29 C 703.57 1719.10 724.74 1726.69 744.04 1727.40 C 751.88 1727.39 763.16 1727.03 766.01 1718.03 C 771.52 1701.99 772.42 1684.82 773.10 1668.01 C 774.49 1653.44 782.92 1640.93 791.16 1629.30 C 792.29 1629.56 793.44 1629.82 794.60 1630.09 C 795.51 1644.11 795.81 1660.05 806.17 1670.84 C 815.44 1680.13 830.27 1677.82 841.27 1673.21 C 847.55 1670.38 855.57 1668.07 857.76 1660.66 C 862.82 1646.01 859.40 1629.70 852.85 1616.08 C 845.96 1600.08 851.62 1582.36 857.18 1566.87 C 860.59 1571.39 864.05 1575.92 868.27 1579.74 C 877.18 1587.95 882.69 1599.31 884.91 1611.12 C 886.17 1619.23 894.82 1622.46 901.76 1624.28 C 904.50 1624.94 909.45 1625.79 909.77 1621.76 C 910.97 1613.76 907.75 1605.82 908.86 1597.78 C 927.45 1605.65 936.47 1627.79 933.93 1647.02 C 931.58 1662.28 934.73 1677.76 939.89 1692.13 C 943.33 1701.02 949.32 1710.19 958.93 1713.07 C 969.41 1716.10 983.70 1712.81 987.25 1701.22 C 994.76 1684.83 984.07 1667.80 986.04 1650.98 C 988.07 1635.24 985.32 1619.09 989.61 1603.61 C 991.79 1591.16 997.43 1579.81 1004.49 1569.46 C 1014.15 1552.55 1028.42 1532.77 1049.98 1532.84 C 1035.46 1556.76 1025.49 1585.24 1030.57 1613.47 C 1032.47 1626.24 1039.54 1637.29 1043.65 1649.36 C 1051.73 1669.98 1054.85 1692.44 1051.92 1714.44 C 1063.63 1704.15 1070.77 1688.07 1068.62 1672.39 C 1065.43 1646.12 1071.86 1617.20 1090.93 1597.99 C 1091.86 1602.93 1092.19 1607.97 1091.77 1612.99 C 1090.31 1627.62 1091.77 1642.33 1093.15 1656.91 C 1094.90 1671.31 1099.30 1687.47 1112.39 1695.62 C 1118.16 1699.04 1123.84 1693.32 1126.75 1688.76 C 1135.02 1675.49 1136.60 1659.03 1135.28 1643.75 C 1133.31 1625.22 1134.02 1606.17 1139.23 1588.20 C 1143.80 1572.23 1154.86 1558.71 1168.37 1549.35 C 1183.94 1538.98 1202.31 1531.19 1221.25 1531.29 C 1220.33 1538.25 1213.37 1541.37 1209.25 1546.26 C 1193.85 1562.35 1182.17 1585.06 1187.12 1607.82 C 1192.65 1629.50 1198.57 1651.49 1197.91 1674.07 C 1197.26 1688.54 1195.87 1703.01 1193.31 1717.28 C 1191.38 1728.60 1183.04 1738.70 1185.36 1750.66 C 1187.30 1760.66 1194.87 1770.69 1204.99 1773.15 C 1215.53 1770.20 1221.79 1757.86 1220.59 1747.33 C 1219.34 1736.19 1217.41 1724.83 1220.02 1713.73 C 1237.12 1724.15 1239.48 1746.12 1241.70 1764.17 C 1242.35 1776.32 1249.99 1790.14 1263.06 1791.78 C 1278.87 1790.94 1290.81 1777.16 1294.82 1762.66 C 1300.19 1761.17 1306.80 1759.51 1311.55 1763.43 C 1315.96 1767.63 1315.09 1774.66 1312.81 1779.74 C 1308.06 1790.75 1297.34 1796.92 1286.84 1801.46 C 1289.93 1801.65 1293.02 1801.82 1296.12 1802.03 C 1294.00 1812.51 1283.78 1816.24 1274.95 1819.53 C 1277.61 1820.26 1280.29 1820.91 1282.98 1821.59 C 1282.15 1824.99 1281.67 1829.60 1277.55 1830.52 C 1268.74 1832.92 1260.98 1838.13 1252.02 1840.06 C 1244.94 1841.83 1237.39 1843.01 1231.31 1847.34 C 1235.16 1853.43 1243.58 1855.13 1249.86 1858.16 C 1257.65 1862.01 1266.41 1860.10 1274.65 1861.41 C 1282.30 1863.80 1288.13 1869.95 1293.11 1875.98 C 1291.06 1879.72 1289.30 1884.16 1285.29 1886.23 C 1279.99 1888.63 1273.57 1888.08 1268.83 1891.81 C 1264.14 1895.51 1259.40 1899.13 1254.42 1902.43 C 1247.14 1907.26 1244.95 1916.88 1237.33 1921.33 C 1230.18 1925.94 1220.46 1925.75 1214.72 1932.62 C 1230.16 1934.12 1245.61 1931.83 1261.02 1930.92 C 1269.16 1930.56 1276.96 1927.94 1285.03 1927.04 C 1281.62 1940.80 1266.34 1947.16 1262.87 1960.86 C 1259.36 1971.35 1261.93 1983.32 1256.09 1993.09 C 1249.96 2003.34 1243.60 2013.61 1235.15 2022.14 C 1227.81 2029.27 1225.26 2039.80 1217.90 2046.92 C 1210.51 2054.29 1203.78 2063.05 1201.97 2073.60 C 1217.18 2074.36 1232.52 2073.65 1247.64 2075.48 C 1255.40 2078.53 1262.47 2083.58 1271.11 2084.18 C 1271.56 2095.65 1270.48 2107.65 1264.86 2117.89 C 1260.34 2124.99 1249.83 2126.66 1247.71 2135.61 C 1256.89 2136.35 1266.10 2135.74 1275.29 2136.05 C 1275.15 2140.38 1275.05 2145.35 1271.41 2148.38 C 1262.11 2156.72 1253.42 2166.12 1242.00 2171.63 C 1247.18 2175.44 1254.16 2176.44 1258.31 2181.68 C 1263.30 2187.80 1269.50 2192.67 1275.83 2197.31 C 1272.22 2209.28 1257.48 2209.65 1249.26 2217.04 C 1255.57 2223.51 1265.12 2221.69 1273.25 2222.05 C 1271.53 2226.26 1269.51 2230.34 1267.45 2234.41 C 1273.28 2238.39 1276.39 2244.85 1279.99 2250.70 C 1263.07 2248.58 1246.00 2248.76 1229.00 2248.03 C 1162.38 2248.07 1095.76 2247.80 1029.15 2248.18 C 1028.94 2488.38 1028.85 2728.59 1029.19 2968.79 C 1097.46 2969.23 1165.73 2968.84 1234.00 2968.99 C 1265.65 2968.98 1297.92 2967.31 1328.16 2957.18 C 1360.73 2946.03 1389.17 2924.28 1410.08 2897.09 C 1427.58 2874.19 1439.63 2847.35 1446.49 2819.42 C 1454.36 2788.65 1455.47 2756.59 1453.72 2725.03 C 1451.58 2691.11 1443.18 2656.65 1423.57 2628.42 C 1405.13 2601.73 1377.31 2581.97 1346.31 2572.62 C 1346.34 2572.06 1346.39 2570.94 1346.42 2570.39 C 1362.11 2560.20 1376.85 2547.91 1387.01 2532.01 C 1414.52 2491.29 1422.15 2440.20 1418.09 2392.01 C 1415.68 2359.70 1405.85 2327.13 1385.54 2301.46 C 1373.49 2286.21 1357.39 2274.48 1340.02 2265.97 C 1329.56 2261.44 1322.13 2251.94 1316.92 2242.12 C 1312.44 2230.31 1311.41 2217.20 1304.72 2206.22 C 1300.62 2200.19 1302.24 2192.76 1301.89 2185.97 C 1301.82 2180.92 1296.70 2178.21 1295.24 2173.75 C 1294.76 2169.25 1296.74 2165.01 1297.66 2160.71 C 1299.49 2153.68 1298.41 2146.08 1301.37 2139.32 C 1304.51 2131.99 1308.87 2125.25 1311.88 2117.86 C 1315.11 2110.01 1313.04 2101.12 1316.31 2093.28 C 1320.01 2084.44 1320.70 2074.62 1325.14 2066.06 C 1328.98 2058.41 1330.11 2049.41 1335.67 2042.66 C 1343.00 2033.77 1354.48 2028.52 1365.99 2028.62 C 1377.19 2028.62 1388.11 2031.47 1399.19 2032.79 C 1410.68 2034.14 1415.10 2046.29 1423.32 2052.71 C 1430.74 2058.39 1429.85 2068.67 1433.50 2076.50 C 1437.31 2086.28 1430.12 2095.49 1429.32 2105.11 C 1428.45 2117.08 1429.11 2129.10 1429.38 2141.09 C 1433.48 2137.59 1437.10 2133.58 1441.04 2129.91 C 1442.15 2138.77 1439.80 2147.43 1436.84 2155.69 C 1434.60 2167.26 1427.97 2179.79 1435.26 2190.97 C 1438.46 2189.72 1441.63 2188.40 1444.80 2187.06 C 1442.74 2199.70 1439.05 2212.06 1433.68 2223.70 C 1431.11 2228.83 1432.73 2234.60 1435.06 2239.49 C 1444.03 2230.14 1450.63 2218.84 1458.94 2208.93 C 1459.04 2214.21 1459.15 2219.60 1457.75 2224.76 C 1456.15 2231.09 1451.78 2236.47 1451.11 2243.09 C 1450.35 2249.84 1450.83 2256.66 1451.59 2263.40 C 1458.16 2256.54 1460.80 2246.58 1468.85 2240.92 C 1470.94 2249.23 1472.17 2257.73 1473.83 2266.14 C 1475.53 2275.33 1472.26 2284.32 1471.33 2293.38 C 1476.97 2291.72 1479.12 2286.03 1481.23 2281.15 C 1484.25 2273.63 1491.39 2268.66 1493.94 2260.90 C 1502.41 2241.24 1497.53 2219.45 1500.42 2198.80 C 1503.98 2200.16 1506.65 2202.87 1507.42 2206.70 C 1508.40 2211.86 1513.92 2213.21 1518.10 2214.93 C 1518.34 2203.91 1516.45 2192.99 1516.69 2181.98 C 1516.86 2173.53 1516.70 2164.80 1513.00 2157.01 C 1509.51 2150.11 1511.22 2142.33 1510.98 2134.97 C 1511.14 2129.13 1503.51 2126.12 1504.90 2120.08 C 1506.61 2110.33 1512.91 2101.38 1521.63 2096.63 C 1526.23 2094.00 1531.56 2091.13 1536.99 2092.98 C 1557.19 2098.93 1577.10 2105.83 1597.33 2111.69 C 1605.85 2114.22 1614.81 2117.24 1620.87 2124.11 C 1627.21 2131.27 1633.73 2138.60 1637.45 2147.54 C 1644.10 2163.07 1644.29 2180.35 1643.61 2196.96 C 1643.26 2203.82 1642.48 2210.84 1644.44 2217.56 C 1647.29 2227.54 1647.66 2238.04 1650.87 2247.95 C 1610.64 2248.25 1570.40 2247.70 1530.17 2248.17 C 1529.90 2488.38 1529.88 2728.59 1530.19 2968.80 C 1650.06 2969.09 1769.93 2969.10 1889.80 2968.80 C 1890.10 2922.94 1890.11 2877.07 1889.79 2831.21 C 1814.58 2830.61 1739.36 2831.36 1664.14 2830.82 C 1663.86 2770.59 1663.90 2710.36 1664.13 2650.13 C 1733.35 2649.65 1802.57 2650.33 1871.80 2649.79 C 1872.11 2603.92 1872.09 2558.04 1871.80 2512.17 C 1802.59 2511.66 1733.37 2512.34 1664.16 2511.82 C 1663.84 2469.93 1663.90 2428.03 1664.13 2386.13 C 1739.38 2385.68 1814.63 2386.28 1889.88 2385.81 C 1890.26 2375.94 1889.59 2366.06 1890.24 2356.21 C 1908.23 2351.37 1927.15 2348.78 1943.72 2339.78 C 1956.95 2332.57 1966.07 2320.15 1977.81 2311.02 C 1978.36 2530.28 1977.61 2749.54 1978.20 2968.80 C 2022.73 2969.09 2067.26 2969.12 2111.80 2968.78 C 2112.33 2880.90 2111.65 2793.01 2112.15 2705.13 C 2127.67 2704.95 2143.21 2704.60 2158.72 2705.34 C 2208.10 2793.00 2256.94 2880.96 2306.27 2968.64 C 2360.61 2969.24 2414.96 2969.08 2469.30 2968.75 C 2466.70 2962.88 2463.22 2957.49 2460.04 2951.95 C 2408.29 2862.49 2355.88 2773.41 2303.95 2684.06 C 2299.84 2676.89 2294.99 2670.08 2292.14 2662.28 C 2336.22 2632.25 2369.45 2586.13 2382.28 2534.22 C 2393.33 2491.91 2393.48 2447.68 2390.28 2404.34 C 2400.84 2401.15 2412.04 2399.92 2422.05 2395.05 C 2429.01 2391.76 2434.28 2385.99 2440.18 2381.20 C 2458.58 2366.75 2468.18 2344.79 2480.67 2325.64 C 2485.00 2319.47 2487.74 2312.35 2488.91 2304.91 C 2490.41 2295.11 2495.17 2286.16 2496.39 2276.30 C 2498.30 2262.36 2503.10 2248.20 2513.07 2237.92 C 2513.19 2241.53 2512.67 2245.30 2509.91 2247.91 C 2505.55 2252.13 2507.15 2258.59 2506.93 2264.01 C 2507.22 2498.93 2506.70 2733.86 2507.19 2968.79 C 2548.06 2969.10 2588.93 2969.11 2629.80 2968.79 C 2630.48 2803.44 2629.28 2638.09 2630.45 2472.75 C 2634.81 2480.43 2637.45 2488.93 2640.99 2497.00 C 2705.58 2654.17 2769.06 2811.79 2834.21 2968.72 C 2877.06 2969.17 2919.92 2969.08 2962.78 2968.77 C 2963.12 2728.58 2963.08 2488.38 2962.81 2248.18 C 2921.92 2247.86 2881.02 2247.92 2840.14 2248.15 C 2839.56 2383.84 2840.65 2519.55 2839.56 2655.24 C 2835.97 2649.16 2833.74 2642.45 2831.02 2636.00 C 2778.14 2508.07 2725.57 2380.01 2673.03 2251.95 C 2671.81 2248.66 2668.05 2248.07 2665.21 2246.91 C 2666.54 2242.99 2667.80 2239.05 2668.99 2235.11 C 2660.21 2234.94 2649.99 2237.03 2642.87 2230.52 C 2653.18 2226.97 2663.87 2228.94 2674.38 2230.05 C 2671.34 2225.63 2663.30 2222.98 2664.64 2216.74 C 2673.35 2210.81 2684.41 2209.70 2693.53 2204.50 C 2695.79 2203.10 2696.91 2200.57 2698.24 2198.38 C 2686.37 2200.01 2674.26 2201.26 2662.34 2199.54 C 2656.63 2198.53 2652.89 2193.68 2649.89 2189.16 C 2655.27 2181.52 2661.70 2174.47 2669.93 2169.84 C 2669.29 2168.51 2668.68 2167.20 2668.11 2165.91 C 2676.94 2163.59 2686.09 2163.07 2695.19 2162.85 C 2694.33 2160.01 2693.48 2157.19 2692.64 2154.39 C 2706.19 2156.05 2719.86 2156.12 2733.44 2157.53 C 2728.43 2147.62 2716.50 2143.85 2711.05 2134.04 C 2727.46 2133.35 2744.01 2132.58 2759.86 2127.84 C 2765.99 2125.65 2771.12 2121.36 2777.34 2119.37 C 2781.97 2117.76 2787.15 2117.25 2791.13 2114.14 C 2795.99 2110.36 2799.92 2105.27 2805.69 2102.74 C 2811.59 2099.96 2818.76 2097.80 2821.42 2091.15 C 2810.34 2090.01 2799.17 2091.17 2788.28 2093.23 C 2779.46 2094.88 2770.70 2092.15 2762.32 2089.72 C 2752.19 2086.59 2745.98 2077.29 2737.54 2071.48 C 2731.35 2067.34 2726.20 2061.60 2723.97 2054.40 C 2739.00 2050.97 2755.72 2053.27 2769.38 2045.19 C 2762.58 2038.84 2757.29 2031.02 2754.22 2022.23 C 2762.74 2020.32 2771.23 2017.93 2780.03 2017.77 C 2787.96 2017.66 2794.37 2012.16 2802.11 2011.13 C 2813.17 2009.30 2824.82 2006.20 2832.85 1997.86 C 2837.23 1993.11 2842.88 1989.91 2848.13 1986.25 C 2837.52 1985.07 2826.87 1986.64 2816.70 1989.68 C 2807.25 1992.30 2797.68 1988.97 2788.68 1986.27 C 2781.70 1984.08 2774.31 1983.33 2767.54 1980.50 C 2757.41 1976.38 2748.60 1969.70 2738.52 1965.51 C 2731.81 1963.00 2728.12 1956.26 2721.74 1953.26 C 2716.38 1950.61 2710.66 1948.82 2705.10 1946.68 C 2706.56 1940.18 2709.18 1933.73 2713.95 1928.94 C 2717.78 1925.27 2723.40 1924.97 2728.13 1923.08 C 2735.85 1920.38 2740.83 1912.62 2749.12 1911.19 C 2756.61 1909.70 2765.60 1909.38 2770.30 1902.33 C 2747.58 1906.50 2723.83 1908.34 2701.43 1901.52 C 2697.85 1899.91 2695.90 1896.30 2693.62 1893.34 C 2689.82 1887.95 2684.50 1883.86 2680.83 1878.38 C 2687.37 1876.40 2694.22 1876.21 2700.99 1875.82 C 2709.24 1875.34 2716.30 1870.66 2723.90 1867.97 C 2730.44 1865.39 2737.95 1863.27 2742.12 1857.15 C 2746.68 1849.82 2748.25 1841.07 2752.64 1833.65 C 2755.44 1828.74 2761.47 1827.69 2766.18 1825.37 C 2757.67 1824.57 2748.72 1824.23 2740.73 1827.76 C 2730.57 1832.40 2719.63 1835.01 2708.62 1836.58 C 2698.75 1838.00 2689.57 1833.16 2679.92 1832.19 C 2670.67 1831.31 2662.48 1825.74 2653.06 1825.96 C 2642.27 1825.93 2631.44 1826.12 2620.73 1824.70 C 2627.15 1820.57 2634.24 1817.66 2640.79 1813.77 C 2650.20 1808.13 2661.87 1809.18 2671.43 1803.85 C 2667.41 1798.38 2660.72 1795.77 2654.07 1795.99 C 2635.99 1796.19 2617.52 1794.46 2599.99 1799.99 C 2588.87 1803.33 2577.09 1803.63 2565.67 1801.86 C 2574.96 1795.62 2587.88 1794.44 2594.32 1784.29 C 2598.25 1778.93 2598.51 1771.96 2597.37 1765.65 C 2595.38 1753.89 2595.47 1741.87 2596.93 1730.05 C 2611.56 1729.78 2626.21 1730.25 2640.85 1729.85 C 2641.22 1713.23 2640.83 1696.60 2640.98 1679.97 C 2648.45 1675.94 2656.81 1673.06 2662.91 1666.90 C 2671.06 1658.78 2677.41 1648.60 2680.16 1637.36 C 2681.92 1628.84 2678.68 1620.34 2679.26 1611.78 C 2690.74 1618.10 2693.73 1632.10 2696.10 1643.92 C 2699.58 1668.59 2686.34 1690.97 2679.96 1713.98 C 2677.69 1721.17 2676.07 1728.99 2678.67 1736.35 C 2681.50 1744.93 2683.04 1755.44 2691.43 1760.56 C 2700.99 1765.93 2713.70 1768.44 2723.64 1762.62 C 2734.24 1755.73 2740.00 1743.47 2742.40 1731.40 C 2744.08 1722.49 2745.90 1713.20 2743.75 1704.21 C 2742.67 1699.80 2741.55 1695.40 2740.89 1690.92 C 2753.70 1691.14 2766.11 1696.89 2775.31 1705.70 C 2783.33 1713.61 2786.41 1724.80 2790.42 1734.99 C 2805.86 1731.97 2816.10 1713.64 2810.04 1698.99 C 2802.09 1679.35 2797.43 1657.17 2803.39 1636.35 C 2808.22 1620.36 2821.28 1608.77 2834.57 1599.56 C 2848.59 1589.78 2857.08 1573.84 2860.38 1557.34 C 2861.05 1557.23 2862.39 1557.01 2863.07 1556.90 C 2867.82 1570.09 2866.05 1584.32 2865.64 1598.02 C 2864.91 1613.26 2860.72 1628.83 2850.38 1640.45 C 2858.95 1646.06 2869.19 1636.96 2873.98 1629.97 C 2885.52 1607.22 2893.08 1581.03 2888.58 1555.42 C 2887.28 1546.77 2883.22 1538.95 2880.20 1530.85 C 2891.82 1532.65 2898.60 1543.10 2905.52 1551.47 C 2914.41 1563.14 2922.28 1578.47 2917.41 1593.40 C 2912.19 1606.72 2913.94 1621.37 2914.66 1635.31 C 2915.21 1644.72 2921.47 1657.15 2932.55 1655.57 C 2942.29 1651.94 2947.65 1641.15 2949.53 1631.46 C 2951.14 1619.13 2954.22 1606.27 2962.76 1596.78 C 2966.77 1592.10 2972.46 1588.18 2973.72 1581.77 C 2974.74 1575.54 2974.00 1569.17 2975.04 1562.94 C 2981.80 1568.21 2983.96 1576.81 2986.45 1584.59 C 2989.43 1593.95 2990.96 1604.07 2988.86 1613.79 C 2987.23 1621.81 2979.09 1626.33 2977.23 1634.25 C 2974.98 1643.36 2975.65 1653.50 2980.18 1661.83 C 2982.78 1666.79 2989.60 1667.96 2994.26 1665.28 C 3009.43 1656.72 3021.43 1643.78 3033.12 1631.11 C 3042.91 1620.33 3049.98 1607.18 3053.40 1593.01 C 3069.19 1605.55 3076.52 1626.27 3076.12 1646.02 C 3075.28 1651.86 3082.87 1652.21 3086.05 1649.04 C 3097.03 1639.43 3100.32 1624.53 3106.39 1611.85 C 3112.50 1616.09 3115.04 1623.31 3118.38 1629.63 C 3125.38 1643.44 3131.85 1658.19 3131.98 1673.95 C 3132.08 1682.69 3131.44 1692.13 3136.05 1699.97 C 3139.28 1705.27 3146.89 1705.92 3151.95 1702.94 C 3162.06 1697.24 3167.89 1686.45 3171.90 1675.96 C 3174.46 1669.36 3169.35 1663.34 3167.87 1657.14 C 3159.61 1628.11 3165.13 1596.72 3177.49 1569.69 C 3180.45 1571.36 3182.43 1574.18 3183.75 1577.27 C 3193.13 1597.37 3204.22 1616.73 3217.44 1634.56 C 3222.96 1641.56 3228.88 1648.83 3236.99 1652.94 C 3243.66 1654.94 3250.89 1652.91 3257.06 1650.08 C 3272.22 1643.05 3287.01 1634.71 3299.45 1623.42 C 3305.58 1617.69 3311.26 1610.96 3313.75 1602.80 C 3316.05 1594.84 3313.83 1586.58 3311.95 1578.80 C 3326.54 1583.91 3340.68 1591.34 3352.16 1601.83 C 3357.69 1606.98 3362.78 1614.51 3360.45 1622.41 C 3356.95 1634.18 3354.43 1647.95 3360.80 1659.19 C 3367.37 1669.14 3380.71 1668.00 3391.11 1667.41 C 3404.65 1666.91 3417.61 1657.95 3421.73 1644.85 C 3425.56 1634.77 3423.01 1623.77 3425.23 1613.39 C 3427.03 1602.94 3428.81 1589.72 3439.74 1584.85 C 3444.12 1593.35 3447.22 1604.96 3457.12 1608.45 C 3465.07 1606.13 3466.78 1596.14 3469.24 1589.26 C 3474.29 1565.95 3474.85 1541.79 3481.37 1518.82 C 3495.31 1531.50 3509.06 1544.77 3519.39 1560.66 C 3523.94 1567.90 3528.49 1576.43 3526.21 1585.25 C 3523.02 1600.67 3521.93 1618.86 3531.92 1632.10 C 3544.28 1644.57 3568.68 1642.15 3577.60 1626.59 C 3586.94 1611.44 3584.68 1592.74 3583.00 1575.90 C 3580.21 1557.83 3582.57 1538.30 3592.89 1522.86 C 3597.47 1517.37 3602.68 1512.39 3608.08 1507.70 C 3611.96 1529.51 3615.10 1551.58 3622.17 1572.67 C 3625.70 1583.22 3629.47 1594.41 3637.61 1602.39 C 3640.77 1605.68 3645.52 1606.24 3649.78 1605.09 C 3647.71 1590.01 3645.85 1574.62 3648.39 1559.49 C 3649.15 1552.72 3651.37 1546.06 3655.74 1540.75 C 3663.41 1563.14 3671.62 1585.47 3682.55 1606.52 C 3689.61 1619.31 3697.19 1633.31 3710.93 1639.97 C 3724.97 1647.65 3740.15 1656.85 3756.88 1653.92 C 3766.01 1652.43 3773.27 1645.40 3777.14 1637.27 C 3782.32 1626.01 3785.33 1613.34 3782.95 1600.97 C 3782.41 1584.43 3780.69 1565.48 3791.68 1551.69 C 3803.68 1538.85 3810.95 1521.89 3812.12 1504.36 Z" />
<path fill="#f85a57" opacity="1.00" d=" M 797.77 1534.76 C 800.19 1525.19 808.00 1518.64 813.73 1511.06 C 812.11 1524.47 818.83 1536.65 821.47 1549.45 C 826.10 1566.82 821.86 1586.94 808.34 1599.31 C 806.91 1600.71 804.81 1600.78 802.98 1601.21 C 803.72 1594.84 807.27 1588.71 805.73 1582.20 C 803.76 1574.20 800.72 1566.47 796.79 1559.25 C 792.85 1551.50 795.72 1542.62 797.77 1534.76 Z" />
<path fill="#f85a57" opacity="1.00" d=" M 1902.42 1521.36 C 1995.20 1504.27 2092.48 1513.90 2180.58 1547.40 C 2193.86 1553.11 2208.17 1556.97 2220.02 1565.57 C 2210.28 1565.14 2201.39 1569.70 2191.87 1570.74 C 2183.27 1571.84 2174.67 1573.32 2165.97 1572.99 C 2160.58 1572.67 2155.38 1574.30 2150.56 1576.56 C 2141.38 1580.88 2131.13 1581.68 2121.24 1583.22 C 2107.52 1584.66 2093.21 1584.77 2080.11 1579.90 C 2061.51 1573.07 2041.39 1575.41 2022.00 1575.09 C 2013.46 1575.24 2004.42 1573.61 1996.41 1577.42 C 1989.42 1580.77 1981.37 1580.23 1974.28 1583.27 C 1962.04 1587.96 1948.24 1589.36 1937.58 1597.58 C 1934.09 1600.75 1929.04 1599.38 1924.97 1601.01 C 1921.31 1603.07 1918.66 1606.51 1916.75 1610.19 C 1922.88 1608.96 1928.53 1605.48 1934.96 1605.87 C 1945.49 1606.38 1956.07 1605.46 1966.39 1603.29 C 1976.02 1600.81 1984.56 1595.22 1994.39 1593.35 C 2004.88 1591.49 2012.91 1582.24 2023.97 1582.72 C 2046.22 1582.54 2065.60 1597.36 2088.01 1596.00 C 2110.90 1595.28 2134.06 1597.83 2156.72 1593.63 C 2171.09 1592.74 2184.72 1587.60 2199.03 1586.08 C 2208.28 1585.31 2212.30 1574.79 2221.22 1573.23 C 2228.18 1571.97 2236.48 1570.95 2242.44 1575.62 C 2242.87 1583.15 2240.33 1592.40 2233.06 1596.07 C 2228.20 1598.73 2225.26 1603.98 2219.97 1605.95 C 2214.98 1607.90 2209.76 1609.33 2205.14 1612.11 C 2196.84 1617.07 2186.77 1615.25 2177.80 1617.81 C 2172.16 1619.27 2168.40 1624.48 2162.62 1625.60 C 2155.79 1627.16 2149.14 1629.82 2142.06 1629.93 C 2137.86 1630.19 2133.20 1629.72 2129.71 1632.52 C 2150.41 1633.62 2171.51 1633.60 2191.78 1628.71 C 2204.56 1623.93 2218.03 1621.05 2230.54 1615.53 C 2238.71 1611.76 2239.09 1601.18 2246.10 1596.12 C 2250.80 1592.18 2255.42 1582.96 2262.73 1587.29 C 2338.81 1632.35 2402.78 1697.36 2447.45 1773.62 C 2450.93 1778.99 2449.67 1785.60 2450.51 1791.63 C 2451.60 1798.98 2455.06 1806.75 2462.13 1810.11 C 2461.92 1807.04 2461.60 1804.00 2461.30 1800.97 C 2470.77 1814.84 2476.10 1831.02 2482.51 1846.42 C 2485.93 1863.61 2471.72 1878.19 2471.70 1895.05 C 2471.72 1902.07 2467.86 1910.08 2472.68 1916.33 C 2477.45 1922.23 2480.05 1930.02 2486.64 1934.32 C 2492.14 1937.95 2496.72 1943.06 2503.08 1945.31 C 2503.97 1942.35 2504.52 1938.44 2501.20 1936.81 C 2493.95 1932.17 2487.31 1925.02 2486.86 1916.00 C 2486.77 1907.38 2484.06 1898.53 2487.09 1890.13 C 2489.45 1883.45 2487.97 1876.18 2489.95 1869.48 C 2506.72 1910.58 2512.98 1955.10 2517.63 1999.00 C 2517.71 2016.97 2518.12 2036.02 2509.27 2052.31 C 2504.03 2066.48 2496.44 2081.34 2501.02 2096.81 C 2501.78 2096.84 2503.31 2096.89 2504.07 2096.92 C 2505.22 2084.26 2505.24 2068.06 2517.82 2060.86 C 2518.78 2080.32 2513.22 2099.46 2514.72 2118.95 C 2515.37 2137.34 2515.06 2155.75 2514.79 2174.14 C 2503.67 2172.85 2493.83 2166.74 2482.75 2165.24 C 2468.89 2162.90 2456.46 2155.95 2443.12 2151.91 C 2423.50 2146.75 2403.16 2144.67 2383.93 2138.00 C 2344.39 2134.54 2304.68 2132.32 2265.08 2129.35 C 2249.97 2128.22 2235.38 2132.89 2220.73 2135.68 C 2206.96 2137.68 2193.91 2142.66 2180.69 2146.70 C 2170.30 2151.49 2160.44 2157.66 2149.08 2160.01 C 2141.96 2161.16 2140.02 2168.96 2134.74 2172.71 C 2130.52 2175.83 2126.21 2178.82 2121.84 2181.73 C 2113.83 2178.66 2106.45 2173.94 2098.03 2171.99 C 2087.87 2169.50 2077.32 2170.25 2067.02 2168.90 C 2058.85 2167.81 2051.61 2173.16 2043.48 2172.78 C 2036.88 2163.26 2028.93 2154.71 2023.89 2144.15 C 2020.86 2136.92 2012.91 2134.53 2008.03 2128.99 C 1992.56 2111.90 1971.88 2100.28 1950.28 2092.77 C 1941.55 2090.03 1933.61 2084.94 1924.43 2083.66 C 1914.08 2082.34 1903.91 2079.91 1893.87 2077.15 C 1885.73 2075.04 1878.15 2070.74 1869.60 2070.44 C 1823.72 2067.60 1777.90 2063.94 1732.03 2061.03 C 1725.22 2060.63 1718.75 2063.51 1711.95 2063.31 C 1704.10 2062.91 1696.83 2066.78 1688.99 2066.42 C 1671.41 2066.06 1653.64 2066.82 1636.26 2063.63 C 1609.00 2057.67 1581.54 2052.62 1554.24 2046.80 C 1557.16 2040.74 1560.01 2034.54 1564.30 2029.31 C 1568.14 2024.41 1575.06 2023.76 1579.12 2019.13 C 1582.75 2015.09 1585.67 2010.37 1590.11 2007.13 C 1594.84 2003.32 1601.03 2000.27 1603.10 1994.14 C 1605.70 1985.78 1604.94 1975.97 1611.00 1968.98 C 1613.58 1965.93 1617.71 1961.49 1614.61 1957.44 C 1610.18 1953.89 1605.15 1958.36 1600.92 1960.00 C 1603.04 1953.27 1610.60 1950.68 1613.30 1944.33 C 1619.00 1932.25 1622.68 1919.15 1623.59 1905.81 C 1616.64 1904.49 1612.37 1896.73 1613.29 1890.03 C 1614.29 1878.82 1619.14 1868.52 1622.76 1858.01 C 1614.48 1858.77 1606.59 1861.41 1598.78 1864.07 C 1600.24 1858.21 1601.80 1852.38 1602.46 1846.38 C 1603.83 1834.71 1612.55 1825.45 1613.77 1813.76 C 1615.54 1803.19 1615.29 1792.33 1617.94 1781.91 C 1620.43 1771.93 1617.59 1761.60 1619.54 1751.56 C 1621.25 1744.34 1620.33 1736.84 1621.70 1729.61 C 1626.39 1716.23 1622.53 1701.92 1624.28 1688.17 C 1625.48 1681.22 1631.47 1676.76 1635.28 1671.26 C 1638.12 1667.58 1638.65 1662.80 1640.83 1658.79 C 1650.50 1645.37 1661.01 1631.66 1676.01 1623.87 C 1673.79 1632.47 1664.15 1636.28 1661.91 1644.88 C 1681.00 1635.94 1685.72 1612.05 1703.42 1601.45 C 1746.78 1572.99 1793.91 1549.43 1844.05 1535.73 C 1841.28 1540.26 1837.95 1544.46 1834.08 1548.10 C 1826.92 1554.80 1815.03 1552.73 1808.81 1560.83 C 1818.75 1561.69 1828.26 1558.20 1838.03 1557.07 C 1846.84 1556.43 1849.79 1546.76 1855.76 1541.75 C 1860.86 1535.45 1869.09 1533.86 1875.65 1529.65 C 1883.84 1524.95 1893.15 1522.74 1902.42 1521.36 Z" />
<path fill="#f85a57" opacity="1.00" d=" M 3949.97 1515.92 C 3953.27 1518.78 3955.90 1522.34 3957.81 1526.29 C 3963.85 1539.04 3969.32 1552.09 3973.55 1565.58 C 3976.74 1576.54 3980.13 1588.31 3976.88 1599.68 C 3974.89 1606.40 3975.07 1613.55 3972.84 1620.22 C 3970.31 1617.07 3967.84 1613.64 3963.97 1612.08 C 3952.05 1606.41 3949.35 1591.84 3948.71 1579.95 C 3946.89 1558.52 3958.31 1536.85 3949.97 1515.92 Z" />
<path fill="#f85a57" opacity="1.00" d=" M 3109.36 1517.67 C 3115.35 1519.13 3115.81 1526.26 3118.07 1530.97 C 3124.10 1543.74 3120.66 1559.90 3110.73 1569.73 C 3104.62 1575.62 3101.48 1583.68 3098.36 1591.38 C 3095.98 1597.22 3097.03 1604.97 3091.38 1609.06 C 3085.49 1592.11 3083.12 1570.55 3096.31 1556.33 C 3106.45 1546.24 3109.18 1531.43 3109.36 1517.67 Z" />
<path fill="#f85a57" opacity="1.00" d=" M 2954.41 1559.59 C 2942.95 1551.46 2947.71 1531.65 2960.01 1526.84 C 2960.68 1532.99 2955.29 1539.68 2959.89 1545.16 C 2966.36 1553.88 2970.77 1565.49 2967.02 1576.24 C 2962.83 1570.67 2960.22 1563.78 2954.41 1559.59 Z" />
<path fill="#f85a57" opacity="1.00" d=" M 1249.18 1565.20 C 1250.52 1563.28 1252.98 1563.20 1255.06 1562.74 C 1252.94 1572.76 1253.52 1583.79 1259.58 1592.42 C 1263.86 1599.71 1272.19 1603.23 1276.60 1610.40 C 1283.45 1620.85 1284.87 1634.55 1280.81 1646.31 C 1275.67 1642.43 1274.49 1635.51 1269.75 1631.25 C 1264.90 1625.99 1258.01 1623.64 1251.37 1621.60 C 1242.04 1618.15 1239.69 1606.92 1239.22 1598.10 C 1237.87 1586.32 1241.76 1574.34 1249.18 1565.20 Z" />
<path fill="#f85a57" opacity="1.00" d=" M 1287.88 1596.97 C 1321.01 1625.85 1340.56 1666.90 1354.04 1708.00 C 1347.52 1707.92 1340.73 1708.77 1334.46 1706.54 C 1328.91 1704.18 1324.87 1699.50 1320.01 1696.09 C 1320.75 1700.09 1321.68 1704.05 1322.75 1707.99 C 1317.80 1708.03 1312.86 1708.03 1307.92 1708.05 C 1308.22 1695.63 1310.51 1682.98 1307.30 1670.75 C 1303.42 1655.69 1303.53 1639.56 1296.63 1625.36 C 1292.22 1616.46 1287.55 1607.18 1287.88 1596.97 Z" />
<path fill="#f85a57" opacity="1.00" d=" M 1364.97 1650.87 C 1378.12 1654.75 1386.19 1667.39 1390.12 1679.81 C 1383.45 1680.42 1376.59 1683.56 1369.97 1681.01 C 1369.40 1670.77 1365.33 1661.12 1364.97 1650.87 Z" />
<path fill="#f85a57" opacity="1.00" d=" M 1370.12 1690.18 C 1377.24 1694.65 1385.81 1695.39 1394.02 1695.20 C 1394.14 1696.55 1394.28 1697.93 1394.43 1699.33 C 1386.31 1703.94 1377.28 1706.99 1367.95 1707.72 C 1369.37 1701.98 1370.19 1696.09 1370.12 1690.18 Z" />
<path fill="#f85a57" opacity="1.00" d=" M 1301.14 1744.68 C 1302.61 1746.27 1304.08 1747.96 1304.93 1750.01 C 1303.59 1753.75 1299.89 1755.74 1296.92 1758.04 C 1298.16 1753.53 1299.33 1748.99 1301.14 1744.68 Z" />
<path fill="#f85a57" opacity="1.00" d=" M 1755.90 2080.81 C 1773.14 2077.74 1790.72 2079.65 1808.05 2077.69 C 1825.84 2076.34 1843.05 2081.72 1860.59 2083.48 C 1874.20 2088.33 1889.14 2087.62 1902.40 2093.58 C 1914.34 2097.64 1927.37 2098.34 1938.61 2104.48 C 1952.57 2112.00 1969.35 2114.42 1981.04 2125.94 C 1985.86 2131.29 1992.16 2134.81 1997.77 2139.22 C 2009.01 2150.45 2017.22 2165.70 2016.78 2181.95 C 2017.52 2194.19 2012.87 2205.74 2010.51 2217.56 C 2008.51 2228.56 2000.34 2236.91 1997.77 2247.72 C 1991.20 2248.15 1984.62 2247.92 1978.06 2248.06 C 1977.66 2257.35 1978.52 2266.68 1977.77 2275.97 C 1977.41 2280.56 1973.30 2283.37 1970.02 2286.01 C 1961.39 2292.35 1955.58 2301.59 1947.60 2308.63 C 1938.52 2316.77 1927.12 2321.58 1915.85 2325.85 C 1907.32 2328.91 1899.41 2333.90 1890.26 2334.99 C 1889.55 2306.04 1890.30 2277.07 1889.88 2248.12 C 1816.23 2247.85 1742.58 2248.05 1668.93 2248.02 C 1666.05 2248.28 1662.42 2247.31 1662.53 2243.80 C 1661.24 2230.02 1654.90 2216.97 1656.18 2202.94 C 1657.06 2191.87 1656.68 2180.55 1659.81 2169.81 C 1661.76 2161.93 1660.94 2153.53 1663.94 2145.89 C 1672.21 2123.58 1687.86 2102.96 1709.86 2092.88 C 1724.58 2086.91 1739.86 2081.44 1755.90 2080.81 Z" />
<path fill="#f85a57" opacity="1.00" d=" M 2247.21 2145.34 C 2263.73 2143.33 2280.41 2142.61 2297.04 2143.34 C 2311.65 2143.67 2326.65 2141.36 2340.84 2146.07 C 2354.20 2148.12 2367.93 2148.75 2380.84 2153.21 C 2390.11 2156.73 2400.53 2155.88 2409.45 2160.53 C 2419.61 2165.66 2431.36 2167.47 2440.59 2174.42 C 2445.69 2178.00 2451.20 2181.00 2456.10 2184.89 C 2461.57 2189.31 2464.90 2195.65 2468.34 2201.66 C 2478.48 2216.18 2481.10 2234.88 2479.25 2252.21 C 2477.18 2266.11 2478.69 2280.51 2474.02 2293.99 C 2469.69 2317.55 2457.76 2339.17 2442.05 2357.05 C 2433.77 2366.62 2422.51 2372.97 2411.14 2378.16 C 2403.26 2381.53 2395.99 2386.69 2387.30 2387.82 C 2380.39 2353.42 2364.21 2320.59 2339.41 2295.58 C 2319.21 2274.91 2292.99 2259.77 2264.43 2254.54 C 2222.45 2245.67 2179.35 2248.54 2136.78 2247.96 C 2137.55 2237.68 2136.84 2227.46 2136.46 2217.23 C 2140.80 2201.44 2146.64 2183.37 2162.06 2175.08 C 2180.91 2165.56 2200.16 2156.07 2221.07 2152.07 C 2229.94 2150.43 2238.26 2146.61 2247.21 2145.34 Z" />
<path fill="#f85a57" opacity="1.00" d=" M 2050.98 2205.99 C 2063.47 2200.42 2078.03 2199.58 2091.00 2204.00 C 2098.63 2206.47 2107.56 2208.63 2111.96 2216.04 C 2117.46 2225.66 2115.87 2237.15 2115.69 2247.74 C 2084.76 2248.13 2053.81 2248.22 2022.88 2247.70 C 2024.95 2239.47 2030.58 2232.89 2034.54 2225.56 C 2038.80 2218.21 2042.60 2209.45 2050.98 2205.99 Z" />
<path fill="#f85a57" opacity="1.00" d=" M 1164.10 2380.10 C 1186.07 2380.05 1208.11 2379.29 1230.03 2381.11 C 1246.01 2382.32 1262.58 2389.80 1270.89 2404.07 C 1282.19 2424.69 1285.27 2449.23 1281.40 2472.28 C 1279.67 2484.32 1277.03 2496.75 1269.80 2506.82 C 1259.26 2521.30 1241.86 2530.13 1224.09 2531.23 C 1204.12 2532.55 1184.10 2531.91 1164.10 2531.90 C 1163.91 2481.30 1163.92 2430.70 1164.10 2380.10 Z" />
<path fill="#f85a57" opacity="1.00" d=" M 2112.11 2380.12 C 2140.54 2380.32 2169.21 2378.10 2197.43 2382.60 C 2216.07 2385.39 2233.63 2396.74 2242.46 2413.60 C 2249.72 2427.92 2252.75 2444.01 2253.64 2459.94 C 2254.06 2483.65 2253.11 2508.49 2242.14 2530.06 C 2233.43 2548.26 2217.70 2563.57 2197.91 2568.91 C 2169.91 2576.18 2140.71 2573.59 2112.11 2573.89 C 2111.91 2509.30 2111.91 2444.70 2112.11 2380.12 Z" />
<path fill="#f85a57" opacity="1.00" d=" M 1164.10 2656.10 C 1187.07 2655.98 1210.05 2655.67 1233.01 2656.30 C 1248.39 2656.44 1264.49 2657.12 1278.28 2664.75 C 1297.32 2674.33 1310.15 2693.71 1313.42 2714.56 C 1317.15 2736.05 1317.27 2758.44 1311.62 2779.62 C 1307.43 2795.67 1298.83 2811.42 1284.64 2820.66 C 1271.30 2829.21 1256.04 2835.60 1240.01 2836.00 C 1214.74 2837.48 1189.40 2837.00 1164.10 2836.89 C 1163.90 2776.63 1163.92 2716.36 1164.10 2656.10 Z" />
</g>
</svg>
