<svg id="Layer_1" data-name="Layer 1" xmlns="http://www.w3.org/2000/svg" viewBox="0 0 1388.42 850.12">
  <defs>
    <style>
      .cls-1 {
        fill: #d34a47;
      }

      .cls-2 {
        fill: #fff;
      }

      .cls-3 {
        fill: #fba919;
      }

      .cls-4 {
        fill: #e78724;
      }

      .cls-5 {
        fill: #fdc168;
      }

      .cls-6 {
        fill: #c9c9c9;
      }

      .cls-7 {
        fill: #463014;
      }
    </style>
  </defs>
  <title>fe-task-runners</title>
  <g>
    <path class="cls-1" d="M521,898.24l8-134,22.2-37.89s-50.52,20.67-135.1,20.67-134.34-20.28-134.34-20.28l24.88,41.33,8.8,130.13c0,14,46,25.26,102.76,25.26S521,912.19,521,898.24" transform="translate(-229.94 -85.63)"/>
    <path class="cls-1" d="M495.67,272.71L512.54,206,606,107.69l-24.63-21L482.43,191.45l-19.59,79.68c-14.2-.48-29-0.74-44.25-0.74-104.19,0-188.65,11.87-188.65,26.52s84.46,26.52,188.65,26.52,188.64-11.87,188.64-26.52c0-10.78-45.81-20.07-111.56-24.21" transform="translate(-229.94 -85.63)"/>
    <path class="cls-2" d="M485.85,310.06s-3.65.82-14.4,0.87-18.39-.07-21.43-2.84a4.8,4.8,0,0,1-1.26-3.22c0-1.9,1.36-3,3.08-3.73l1.63,2.55a1.36,1.36,0,0,0-1.11.84c0,1.45,11,2.44,19.41,2.33s18.58-.8,18.59-2.22c0-.43-0.77-0.84-2.11-1.16l1.62-2.54c2.18,0.68,4.08,2,4.08,4.25,0,3.85-4.92,4.43-8.1,4.86" transform="translate(-229.94 -85.63)"/>
    <path class="cls-1" d="M605.8,107.88c2.35-2.71-1.22-9.65-8-15.5S583.71,84,581.36,86.71s1.22,9.65,8,15.5,14.13,8.39,16.48,5.67" transform="translate(-229.94 -85.63)"/>
    <path class="cls-1" d="M516.53,571.05c-2.21-21.31,46.6-52.16,34.08-53.15-27,1.54-40.39,31.61-54,63.1-5,11.54-22,60.75-33.15,54.69s14.46-46.52,21.65-70.55c-8.29,6.08-38.67,29.69-46.51,7.58-12.59,10.69-39.5,16.49-36.46-11.6-6.7,11.87-21.73,28.43-39.78,21.55-23.7-9,13.73-84.52,23-80.72s-1.88,21-4.81,27.68c-6.44,14.7-13.89,33.17-8.91,37,8.52,6.48,31.7-24.51,32.22-25.19,4.34-5.73,16.69-43.2,26.64-38.9s-24.83,53.78-11.83,63.6c2.62,2,13.36-1.22,19.89-8.29,4.22-4.57,2.77-14.69,16.85-48.27s26.63-75.4,36.29-72.22,1.7,24.65-1.77,32.65c-16.26,37.56-44.37,99.6-31.11,94.91s20.16-5,33.15-20.16,12.38-40.22,21-39.69,7.2,8.56,5.1,14.67c8.52-9.75,40.37-30.27,48.06-9.94,9.11,24.07-45.58,58.84-31.94,57.06,13.29-1.73,34.83-15.37,44-27.77l25.31-227.56s-25.47,21.08-187.51,21.08-184.88-20.64-184.88-20.64l21.55,207.71c11.44-32.51,38.6-98.27,81.42-96.06,19.48,1,45.48,38.51,23.2,39.78-9.43.54-10.38-18.72-21.55-21.55-8.06-2-19.27,4.51-26.52,11.6-14.45,14.15-45.54,70-41.43,97.78,5.23,35.48,49-12.33,56.35-26.52,5.21-10,8.73-39.62,20.12-36.51s-1,33.68-9.25,60.7c-9.28,30.35-14.16,62.36-25.79,58.68s7.31-42.86,6.63-49.72c-10.93,10.09-31.07,35.62-56.84,23l13.38,129s35.57,28.1,142.72,28.1,144-27.67,144-27.67l16.62-149.4c-13.6,13.24-56.63,36.75-59.38,10.25" transform="translate(-229.94 -85.63)"/>
  </g>
  <g>
    <path class="cls-3" d="M1134.51,407.87s11.94,46.06,13.65,61.42-30.71,49.47-30.71,66.53,6.82,47.77,44.35,63.13,42.65,54.59,42.65,78.48-13.65,69.94-13.65,69.94-8.53,114.3,37.53,134.78,35.83,20.47,46.06,20.47,85.3,30.72,129.66,18.77,56.29-25.59,56.29-25.59,44.36,3.41,58-35.84,22.18-121.12,17.06-158.66-11.94-87,18.76-104.07,63.13-37.53,58-54.59-32.41-40.95-32.41-40.95-6.83-42.65-1.71-52.88,35.83-35.83,18.76-54.6-47.77-18.76-47.77-18.76l-39.23,3.41s-66.53-59.71-153.54-56.3-141.6,56.3-141.6,56.3-29-10.24-54.59,0-30.7,0-25.58,29h0Z" transform="translate(-229.94 -85.63)"/>
    <path class="cls-4" d="M1290.4,661.88s-33.78,51.66-58.57,88.32c-3.83,5.67,24.78,6.06,24.78,6.06l33.78-94.38h0Z" transform="translate(-229.94 -85.63)"/>
    <path class="cls-4" d="M1306.48,554.78s-10.18,25.41-15.76,38.88c-6.06,14.64-29.14,21.93-29.14,21.93s12-12.55,12-44.35c0-13.34,17.22-18.65,17.22-18.65l15.72,2.2h0Z" transform="translate(-229.94 -85.63)"/>
    <path class="cls-4" d="M1296.19,569.15s-20.87,24.84-59.61,10.93-42.72-63.59-42.72-77.5,73.52,13.91,83.46,19.87,28.8,29.8,18.87,46.7h0Z" transform="translate(-229.94 -85.63)"/>
    <path class="cls-4" d="M1149.85,303.74s35.76-7,59.61,11.92,30.8,33.78,30.8,33.78l-40.19,31.86s-19.42-9-25.38-34.84-2-37.75-24.84-42.72h0Z" transform="translate(-229.94 -85.63)"/>
    <path class="cls-4" d="M1285.76,497.41c-15.4-21.86-40.78-31.39-61-33-34.55-2.7-51,9.51-51,9.51s56.58,2.4,72.89,23.82c30.36,39.87,74.65,43.1,81.73,34.35-8.19.41-17.2-3.65-26.84-12.77-6-5.7-10.91-15-15.79-21.94h0Z" transform="translate(-229.94 -85.63)"/>
    <path class="cls-4" d="M1190.24,574.69s-62.78-21.58-50.85-43.44,2.43-33.77,2.43-33.77-35.05,26.17-26.12,54c5.49,17.07,14.7,29.44,65.27,53.14,24.26,45.06,5,126.15,6.16,126.53,1.92,0.64,34.06-15.88,31.86-91.76-0.67-23.3-2.53-55.11-28.76-64.69h0Z" transform="translate(-229.94 -85.63)"/>
    <path class="cls-4" d="M1272.51,342.62c-26.32,13.37-62.39,32-62.39,32l14.19,7.1c-1.36,2.19-2,3.5-2,3.5l14.57,6.62s35.56,25.76,57.35,42.32c-7.27-22.37-28.59-57.51-28.59-57.51s-6-16.15,6.87-34h0Z" transform="translate(-229.94 -85.63)"/>
    <path class="cls-4" d="M1360,887.75c-80.91,0-108.32-41.07-108.32-41.07l12.64,30.79c4.78,13.32,55.77,54.77,95.55,54.77" transform="translate(-229.94 -85.63)"/>
    <path class="cls-4" d="M1260.51,818.92s7.44,45.49,37.25,45.49c25.33,0,32.79-38.43,32.79-46.37l-70,.88h0Z" transform="translate(-229.94 -85.63)"/>
    <path class="cls-4" d="M1210.91,750.31c2.65-7.29,11.92-36.76,14.9-63.59,3.57-32.13,2.27-79.11,2.27-79.11s-8,30.8-14.91,35.78-19.87,38.74-19.87,38.74-6.92,50.29-10.21,67.19c9.11,1.83,16.79-3.55,27.82,1h0Z" transform="translate(-229.94 -85.63)"/>
    <path class="cls-4" d="M1138.93,551s16.89-6,21.86-42.72-6-68.56-6-68.56,1,50.67-5,60.61-10.93,12.91-17.89,25.83,3,20.86,7,24.84h0Z" transform="translate(-229.94 -85.63)"/>
    <path class="cls-5" d="M1159.09,312.44l-3.45-2.18c-10.17.34,3.45,2.18,3.45,2.18h0Z" transform="translate(-229.94 -85.63)"/>
    <path class="cls-3" d="M1286.25,331.74s-15.89-2.65-23.84-14.57-30.47-35.77-66.36-36-71.41,9.54-71.41,9.54l31,19.59c3.28-.11,9-0.06,18.49.25,38.9,1.29,44.89,39.77,44.89,39.77l137.11-18.88" transform="translate(-229.94 -85.63)"/>
    <path class="cls-2" d="M1299.51,544.28a53.91,53.91,0,0,1-47,12.58c-28.48-6-45.71-18.54-47-40.4s6-30.47,6-30.47,31.79,9.94,47,23.19,26.49,34.44,41.07,35.1h0Z" transform="translate(-229.94 -85.63)"/>
    <path class="cls-6" d="M1277.06,537.65S1261,545,1243,539c-23.54-7.85-25.1-32.33-25.1-32.33s-14.44,42.37,26,50.53c32.47,6.54,51.67-12.27,51.67-12.27l-18.54-7.29h0Z" transform="translate(-229.94 -85.63)"/>
    <path class="cls-7" d="M1288.49,322.75c-1.73-36.34,28.06-65.28,38.38-66.51,0.57,6.16-.57,30.18,9.74,37.56,3-19.62,13.16-41.25,53.28-55.42-8.59,22.79-1.15,41.87,2.4,50.72,27.39-24.86,45.85-20.76,45.85-20.76s-19,32.84-11.59,54.39c-55-4.31-137.8,5.84-138.06,0h0Z" transform="translate(-229.94 -85.63)"/>
    <path class="cls-7" d="M1171.91,378.1c-13.12-10.89-3.34-21-4.38-33.36-0.56-6.58-1.08-12.79-3.25-16.21-12.07-19.07-40.56-24.85-40.84-24.91L1110.06,301l8.85-10.35c1.15-1.34,37.49-36,93.73-17.86,39.34,12.69,68.46,55.71,69.55,57.45l-19.73,9.28c-0.23-.37-23.26-40.81-57-51.69-27.28-8.8-52.43-.43-63.2,5.06,11.45,4.57,26.42,12.9,35.44,27.14,4.26,6.73,5,15.19,5.67,23.39,0.91,10.86,1.77,21.1,9.76,27.74l-21.22,6.94h0Z" transform="translate(-229.94 -85.63)"/>
    <path class="cls-7" d="M1136.86,537s16.53-20.5,21.43-60.39c1.92-15.71-1.49-46.7-7-58.62,1,29.31-6.46,58.62-6.46,58.62s-5,54.43-8,60.39h0Z" transform="translate(-229.94 -85.63)"/>
    <path class="cls-7" d="M1224,357.4s-5.3-23.19-20-34.87c-20.71-16.47-46-7.71-46.24-7.63l-3.67-11.34c1.22-.4,30.13-9.51,56.77,9.22,26.8,18.83,30,35.9,30.29,37.79L1224,357.4h0Z" transform="translate(-229.94 -85.63)"/>
    <path class="cls-7" d="M1188.78,522.31s-8.67-12.42-7.11-26.07c0.78-6.74,3.9-13.66,9.48-16.12,10.37-4.55,15,7.2,15,7.2s-14.59,3.6-17.33,35h0Z" transform="translate(-229.94 -85.63)"/>
    <path class="cls-7" d="M1284,541.23c0.36,0.68.55,1.06,0.55,1.06s-27.05,20.3-54.77-.3c-14.84-11-13.44-38.34-8.89-49.92a89.23,89.23,0,0,1,30.23,13.15c-10.59-9.45-19.86-16.41-19.84-16.57l-12-3.41-23.4-8c-0.3,1.78-8.83,41.79,15.8,69,10.92,12.09,62.11,39.15,86.41-7.13l-14.05,2.1h0Z" transform="translate(-229.94 -85.63)"/>
    <path class="cls-7" d="M1281.48,544.2c15.23,23.18,53.66,9.93,53-14.57,0,0-25.68,14.17-48.36-11.92-13.24-15.23-55.68-57.23-113.23-43.27,39.74,8.74,92.36,45.05,108.6,69.77h0Z" transform="translate(-229.94 -85.63)"/>
    <path class="cls-7" d="M1167.5,609.62c3.66,2.12,16.59,15.5,16.59,35.51,0,10-1,60.45-6,91.26,7.47,4.85,12.68,5.89,20.12,10.84,3.72-35.67,6.4-87.38,5.15-108.25-1.42-23.79-14.16-39.76-26-46.57-3.7-2.13-7.57-4.22-11.46-6.32-20.23-10.93-41.16-22.24-41.16-41.56,0-15.11,5.87-19.83,12.09-24.84l0.67-.54c4.13-3.33,8.8-7.11,11.56-13.32,7.55-17,8.78-60.21,0-71.18-4.38-5.47-16.11-23.86-12.74-36.22,1.28-4.72,4.26-8.21,9.09-10.69,5.12-2.62,12-3.95,20.54-3.95,16.72,0,35.26,5.09,44.82,8.12,34.18,10.83,75.42,42.07,87.25,51.38l0.57,0.44,7.57,5.26-4.73-7.92c-0.29-.49-30.26-49.76-83.83-67.83-10.42-3.51-30.9-9.41-51-9.41-12,0-22.15,2.09-30.2,6.21-9.81,5-16.46,13-19.22,23.15-6.77,24.82,15.27,52.45,16,53.33,2.57,4.59,3.66,37.9-2.28,51.23-0.82,1.84-3.05,3.65-5.89,5.94-0.89.72-1.88,1.46-2.93,2.26-8.37,6.32-21,15.87-21,37.88,0,30.12,30.52,46.45,55.05,59.58,4,2.17,7.86,4.21,11.34,6.21h0Z" transform="translate(-229.94 -85.63)"/>
    <path class="cls-7" d="M1171.91,378.1c-13.12-10.89-3.34-21-4.38-33.36-0.56-6.58-1.08-12.79-3.25-16.21-12.07-19.07-40.56-24.85-40.84-24.91L1110.06,301l8.85-10.35c1.15-1.34,37.49-36,93.73-17.86,39.34,12.69,68.46,55.71,69.55,57.45l-19.73,9.28c-0.23-.37-23.26-40.81-57-51.69-27.28-8.8-52.43-.43-63.2,5.06,11.45,4.57,26.42,12.9,35.44,27.14,4.26,6.73,5,15.19,5.67,23.39,0.91,10.86,1.77,21.1,9.76,27.74l-21.22,6.94h0Z" transform="translate(-229.94 -85.63)"/>
    <path class="cls-7" d="M1171.48,380.33l-0.85-.7c-9.73-8.08-8-16-6.33-23.73,0.76-3.55,1.56-7.22,1.24-11-0.53-6.33-1-12.31-2.95-15.32-11.5-18.15-39.28-24-39.56-24l-16.7-3.27,11.07-12.94c0.2-.24,23.54-23.8,63.06-23.8a106.72,106.72,0,0,1,32.79,5.34c41.06,13.24,70.35,57.85,70.63,58.29l1.18,1.89-23.33,11-0.94-1.49c-2.51-4.28-24.64-40.77-55.93-50.86a78.22,78.22,0,0,0-24.07-3.73,87.74,87.74,0,0,0-33.62,6.83c10.81,4.87,23.93,13.07,32.22,26.15,4.51,7.13,5.24,15.84,6,24.26,0.88,10.47,1.71,20.31,9.05,26.4l2.77,2.3-25.69,8.42h0Z" transform="translate(-229.94 -85.63)"/>
    <path class="cls-7" d="M1224,357.4s-5.3-23.19-20-34.87c-20.71-16.47-46-7.71-46.24-7.63l-3.67-11.34c1.22-.4,30.13-9.51,56.77,9.22,26.8,18.83,30,35.9,30.29,37.79L1224,357.4h0Z" transform="translate(-229.94 -85.63)"/>
    <path class="cls-7" d="M1222.61,360.1l-0.52-2.28c-0.05-.22-5.25-22.57-19.29-33.74-8-6.37-17.65-9.61-28.67-9.61a52.71,52.71,0,0,0-15.68,2.29l-1.9.63-4.93-15.13,1.89-.61a70,70,0,0,1,58.53,9.48c27.47,19.3,30.82,37.16,31.11,39.12l0.24,1.56-20.79,8.28h0Zm-48.47-49.59A49.41,49.41,0,0,1,1205.28,321c12.47,9.93,18.33,27.46,20.11,33.75l13.51-5.39c-1.22-4.77-6.61-19.09-29.14-34.93A62.83,62.83,0,0,0,1172.89,303a67.45,67.45,0,0,0-16.23,1.92l2.44,7.53a59.13,59.13,0,0,1,15-1.93h0Z" transform="translate(-229.94 -85.63)"/>
    <path class="cls-7" d="M1296.52,853.5h0a25.06,25.06,0,0,1-16-5.72c-3.18-2.74-13.93-12.61-18.67-24.71-1.77-4.52-1.37-8.14,1.19-10.75,1.77-1.78,5.44-3.92,12.9-3.92H1316c5.67,0,9.74,1.23,12.07,3.62,3,3.09,2,7,1.2,9.07-1.46,3.62-7.51,15.39-17.75,26.34a20.2,20.2,0,0,1-15,6.08h0Z" transform="translate(-229.94 -85.63)"/>
    <path class="cls-7" d="M1302.67,545.57l-21.2-1.36a110.76,110.76,0,0,1,8.93,21.9c4,14-3.62,34.39-3.62,34.39s28.26-32,15.89-54.93h0Z" transform="translate(-229.94 -85.63)"/>
    <path class="cls-7" d="M1276.21,909.47c-75.44-5.8-102-77.08-102-91.93h19.7c0.1,6.42,20.15,67.4,83.79,72.29l-1.51,19.64h0Z" transform="translate(-229.94 -85.63)"/>
    <path class="cls-2" d="M1255,781.75a49.48,49.48,0,0,1,.14-19.62c-5.73-4.31-16-5.91-23.74-8.41-6.31-4-38.61,4.09-62-24.26-29.36-35.51-23.18-56.72-23.18-56.72-7.53,8.36-14.82,5.18-26.3,44.18s5.39,66.2,36.86,93.5c14.87,12.9,35.89,18.21,54,20.24-6.06-6.08,10.34-6.69,21.65-10.92-0.9-9.13.61-18,7.41-25.12,4.1-4.3,9.38-6.87,14.86-8.92,0.31-.71.56-1.36,0.86-2a17.44,17.44,0,0,1-.47-1.9h0Z" transform="translate(-229.94 -85.63)"/>
    <path class="cls-6" d="M1232.2,819.5c-0.65-1.92-1.15-3.87-1.63-5.83-0.52-2.15-3.12-8.23.08-1.28a25.73,25.73,0,0,1-1.76-5.46c-51-.06-95.3-35.06-86.74-108.62-6.67-8.86-16,17.86-16,17.86s-25.51,74.09,40.38,102.8c22,9.58,41.36,16.44,45.94,13.67,9.54,1.94,18.14-4.71,21.37-9.08-0.61-1.34-1.16-2.69-1.63-4h0Z" transform="translate(-229.94 -85.63)"/>
    <path class="cls-7" d="M1254.09,771.08a40.94,40.94,0,0,1,4.35-18.22c0.21-.41.45-0.81,0.68-1.21-19.61-.17-42.2-2-61.43-9.74-21.14-8.46-47.58-37.39-52.13-71.38,0,0-39.81,30.72-28.11,96.48,11,61.75,62.65,81.88,121.58,85.29,0-.4-6.63-14.16-4.52-22.58-33.46,2.43-70.88-10.5-88.94-40.22-16.54-27.2-11.9-73.65-5.1-80.46,16.58,52.31,76.23,62.95,113.64,62h0Z" transform="translate(-229.94 -85.63)"/>
    <path class="cls-7" d="M1260.27,733.63c-10.6,31.12-32.27,56.31-32.27,56.31s29.8-1.36,31.44-6.63c1.22-3.89,26.9-64,36.76-134.46-9.27,15.24-35,82.12-35.94,84.78h0Z" transform="translate(-229.94 -85.63)"/>
    <path class="cls-4" d="M1429.08,661.88s33.78,51.66,58.57,88.32c3.83,5.67-24.79,6.06-24.79,6.06l-33.78-94.38h0Z" transform="translate(-229.94 -85.63)"/>
    <path class="cls-4" d="M1413,554.78s10.19,25.41,15.76,38.88c6.06,14.64,29.14,21.93,29.14,21.93s-12-12.55-12-44.35c0-13.34-17.22-18.65-17.22-18.65l-15.71,2.2h0Z" transform="translate(-229.94 -85.63)"/>
    <path class="cls-4" d="M1423.27,569.15s20.87,24.84,59.62,10.93,42.72-63.59,42.72-77.5-73.52,13.91-83.46,19.87-28.81,29.8-18.88,46.7h0Z" transform="translate(-229.94 -85.63)"/>
    <path class="cls-4" d="M1569.62,303.74s-35.76-7-59.62,11.92-30.8,33.78-30.8,33.78l40.19,31.85s19.43-9,25.39-34.84,2-37.75,24.84-42.72h0Z" transform="translate(-229.94 -85.63)"/>
    <path class="cls-4" d="M1433.71,497.41c15.4-21.86,40.77-31.39,61-33,34.55-2.7,50.94,9.51,50.94,9.51s-56.58,2.4-72.89,23.82c-30.36,39.87-74.64,43.1-81.72,34.35,8.19,0.41,17.2-3.65,26.84-12.77,6-5.7,10.91-15,15.79-21.94h0Z" transform="translate(-229.94 -85.63)"/>
    <path class="cls-4" d="M1529.23,574.69s62.77-21.58,50.85-43.44-2.44-33.77-2.44-33.77,35.06,26.17,26.12,54c-5.49,17.07-14.7,29.44-65.27,53.14-24.26,45.06-5,126.15-6.16,126.53-1.92.64-34.06-15.88-31.86-91.76,0.67-23.3,2.53-55.11,28.76-64.69h0Z" transform="translate(-229.94 -85.63)"/>
    <path class="cls-4" d="M1447,342.62c26.32,13.37,62.38,32,62.38,32l-14.19,7.1c1.36,2.19,2,3.5,2,3.5l-14.57,6.62s-35.56,25.76-57.35,42.32c7.26-22.37,28.58-57.51,28.58-57.51s6.05-16.15-6.86-34h0Z" transform="translate(-229.94 -85.63)"/>
    <path class="cls-4" d="M1359.52,887.75c80.9,0,108.3-41.07,108.3-41.07l-12.64,30.79c-4.78,13.32-55.77,54.77-95.54,54.77" transform="translate(-229.94 -85.63)"/>
    <path class="cls-4" d="M1459,818.92s-7.45,45.49-37.25,45.49c-25.32,0-32.79-38.43-32.79-46.37l70,0.88h0Z" transform="translate(-229.94 -85.63)"/>
    <path class="cls-4" d="M1508.56,750.31c-2.65-7.29-11.92-36.76-14.91-63.59-3.57-32.13-2.26-79.11-2.26-79.11s8,30.8,14.9,35.78,19.87,38.74,19.87,38.74,6.92,50.29,10.21,67.19c-9.11,1.83-16.78-3.55-27.81,1h0Z" transform="translate(-229.94 -85.63)"/>
    <path class="cls-4" d="M1580.55,551s-16.89-6-21.86-42.72,6-68.56,6-68.56-1,50.67,5,60.61,10.93,12.91,17.89,25.83-3,20.86-7,24.84h0Z" transform="translate(-229.94 -85.63)"/>
    <path class="cls-5" d="M1560.38,312.44l3.45-2.18c10.17,0.34-3.45,2.18-3.45,2.18h0Z" transform="translate(-229.94 -85.63)"/>
    <path class="cls-3" d="M1433.21,331.74s15.9-2.65,23.84-14.57,30.47-35.77,66.37-36,71.41,9.54,71.41,9.54l-31,19.59c-3.28-.11-9-0.06-18.5.25-38.9,1.29-44.89,39.77-44.89,39.77l-137.1-18.88" transform="translate(-229.94 -85.63)"/>
    <path class="cls-2" d="M1420,544.28a53.9,53.9,0,0,0,47,12.58c28.49-6,45.71-18.54,47-40.4s-6-30.47-6-30.47-31.8,9.94-47,23.19-26.49,34.44-41.07,35.1h0Z" transform="translate(-229.94 -85.63)"/>
    <path class="cls-6" d="M1442.41,537.65s16.09,7.35,34.07,1.36c23.54-7.85,25.11-32.33,25.11-32.33s14.43,42.37-26.05,50.53c-32.46,6.54-51.67-12.27-51.67-12.27l18.54-7.29h0Z" transform="translate(-229.94 -85.63)"/>
    <path class="cls-7" d="M1547.56,378.1c13.12-10.89,3.35-21,4.39-33.36,0.55-6.58,1.07-12.79,3.25-16.21,12.08-19.07,40.56-24.85,40.85-24.91l13.37-2.62-8.85-10.35c-1.15-1.34-37.49-36-93.74-17.86-39.33,12.69-68.46,55.71-69.54,57.45l19.72,9.28c0.24-.37,23.27-40.81,57-51.69,27.28-8.8,52.43-.43,63.19,5.06-11.44,4.57-26.42,12.9-35.44,27.14-4.26,6.73-5,15.19-5.66,23.39-0.91,10.86-1.78,21.1-9.77,27.74l21.22,6.94h0Z" transform="translate(-229.94 -85.63)"/>
    <path class="cls-7" d="M1582.6,537s-16.52-20.5-21.42-60.39c-1.92-15.71,1.49-46.7,7-58.62-1,29.31,6.46,58.62,6.46,58.62s5,54.43,8,60.39h0Z" transform="translate(-229.94 -85.63)"/>
    <path class="cls-7" d="M1495.44,357.4s5.3-23.19,20-34.87c20.71-16.47,46-7.71,46.24-7.63l3.68-11.34c-1.23-.4-30.13-9.51-56.78,9.22-26.8,18.83-30,35.9-30.29,37.79l17.16,6.84h0Z" transform="translate(-229.94 -85.63)"/>
    <path class="cls-7" d="M1530.69,522.31s8.67-12.42,7.11-26.07c-0.77-6.74-3.89-13.66-9.47-16.12-10.37-4.55-15,7.2-15,7.2s14.59,3.6,17.33,35h0Z" transform="translate(-229.94 -85.63)"/>
    <path class="cls-7" d="M1435.46,541.23c-0.36.68-.55,1.06-0.55,1.06s27,20.3,54.76-.3c14.85-11,13.45-38.34,8.89-49.92a89.3,89.3,0,0,0-30.23,13.15c10.59-9.45,19.87-16.41,19.83-16.57l12-3.41,23.4-8c0.3,1.78,8.83,41.79-15.81,69-10.92,12.09-62.11,39.15-86.41-7.13l14.06,2.09h0Z" transform="translate(-229.94 -85.63)"/>
    <path class="cls-7" d="M1438,544.2c-15.23,23.18-53.65,9.93-53-14.57,0,0,25.67,14.17,48.35-11.92,13.24-15.23,55.69-57.23,113.24-43.27-39.74,8.74-92.36,45.05-108.61,69.77h0Z" transform="translate(-229.94 -85.63)"/>
    <path class="cls-7" d="M1552,609.62c-3.67,2.12-16.59,15.5-16.59,35.51,0,10,1,60.45,6,91.26-7.47,4.85-12.68,5.89-20.12,10.84-3.72-35.67-6.4-87.38-5.15-108.25,1.42-23.79,14.16-39.76,26-46.57,3.7-2.13,7.57-4.22,11.47-6.32,20.23-10.93,41.16-22.24,41.16-41.56,0-15.11-5.88-19.83-12.1-24.84l-0.66-.54c-4.13-3.33-8.8-7.11-11.56-13.32-7.55-17-8.79-60.21,0-71.18,4.38-5.47,16.12-23.86,12.74-36.22-1.29-4.72-4.27-8.21-9.1-10.69-5.12-2.62-12-3.95-20.54-3.95-16.71,0-35.26,5.09-44.81,8.12-34.18,10.83-75.42,42.07-87.25,51.38l-0.57.44-7.57,5.26,4.73-7.92c0.3-.49,30.26-49.76,83.83-67.83,10.43-3.51,30.9-9.41,51-9.41,12,0,22.14,2.09,30.2,6.21,9.81,5,16.45,13,19.22,23.15,6.77,24.82-15.27,52.45-16,53.33-2.57,4.59-3.66,37.9,2.27,51.23,0.82,1.84,3.05,3.65,5.89,5.94,0.89,0.72,1.87,1.46,2.93,2.26,8.37,6.32,21,15.87,21,37.88,0,30.12-30.52,46.45-55,59.58-4,2.17-7.87,4.21-11.34,6.21h0Z" transform="translate(-229.94 -85.63)"/>
    <path class="cls-7" d="M1515.57,374.56c-4.85-8.22-17.27-24.1-45.89-38.05-31.93-15.57-68.89-23.47-109.87-23.48h-0.16c-41,0-77.95,7.92-109.87,23.48-28.62,14-41,29.83-45.89,38.05l-2.08,2.76,24.5,5.45,0.78-1,0.41-.9c0.38-1.62,3.66-10.36,31-23.69,29.21-14.25,63.27-21.47,101.24-21.48s72,7.23,101.23,21.48c27.32,13.32,30.62,22.07,31,23.69l0.41,0.9,0.77,1,24.51-5.45-2.07-2.75h0Z" transform="translate(-229.94 -85.63)"/>
    <path class="cls-7" d="M1547.56,378.1c13.12-10.89,3.35-21,4.39-33.36,0.55-6.58,1.07-12.79,3.25-16.21,12.08-19.07,40.56-24.85,40.85-24.91l13.37-2.62-8.85-10.35c-1.15-1.34-37.49-36-93.74-17.86-39.33,12.69-68.46,55.71-69.54,57.45l19.72,9.28c0.24-.37,23.27-40.81,57-51.69,27.28-8.8,52.43-.43,63.19,5.06-11.44,4.57-26.42,12.9-35.44,27.14-4.26,6.73-5,15.19-5.66,23.39-0.91,10.86-1.78,21.1-9.77,27.74l21.22,6.94h0Z" transform="translate(-229.94 -85.63)"/>
    <path class="cls-7" d="M1522.31,371.92l2.76-2.3c7.35-6.1,8.17-15.94,9.06-26.4,0.71-8.42,1.45-17.13,6-24.26,8.29-13.08,21.41-21.28,32.22-26.15a87.82,87.82,0,0,0-33.63-6.83,78.16,78.16,0,0,0-24.06,3.73c-31.31,10.1-53.43,46.58-55.93,50.86l-0.94,1.48-23.33-11,1.19-1.89c0.27-.44,29.56-45.05,70.62-58.29a106.72,106.72,0,0,1,32.8-5.34c39.52,0,62.85,23.56,63.05,23.8l11.07,12.94-16.7,3.27c-0.28.06-28.06,5.87-39.57,24-1.91,3-2.41,9-2.95,15.32-0.31,3.77.48,7.44,1.25,11,1.67,7.7,3.39,15.66-6.34,23.73l-0.85.7-25.68-8.42h0Z" transform="translate(-229.94 -85.63)"/>
    <path class="cls-7" d="M1495.44,357.4s5.3-23.19,20-34.87c20.71-16.47,46-7.71,46.24-7.63l3.68-11.34c-1.23-.4-30.13-9.51-56.78,9.22-26.8,18.83-30,35.9-30.29,37.79l17.16,6.84h0Z" transform="translate(-229.94 -85.63)"/>
    <path class="cls-7" d="M1476.09,351.82l0.23-1.56c0.29-2,3.65-19.82,31.11-39.12a70,70,0,0,1,58.53-9.48l1.89,0.61-4.92,15.13-1.9-.63a53,53,0,0,0-15.69-2.29c-11,0-20.66,3.23-28.66,9.61-14,11.17-19.24,33.52-19.29,33.74l-0.52,2.27-20.78-8.27h0Zm84.29-39.38,2.45-7.53a67.34,67.34,0,0,0-16.24-1.92,62.84,62.84,0,0,0-36.87,11.42c-22.54,15.84-27.93,30.16-29.15,34.93l13.53,5.39c1.77-6.29,7.63-23.82,20.1-33.75a49.41,49.41,0,0,1,31.14-10.46,59.2,59.2,0,0,1,15,1.93h0Z" transform="translate(-229.94 -85.63)"/>
    <path class="cls-7" d="M1407.95,847.41c-10.24-10.94-16.29-22.72-17.76-26.34-0.84-2.06-1.79-6,1.21-9.07,2.34-2.39,6.4-3.62,12.07-3.62h40.09c7.45,0,11.12,2.13,12.89,3.92,2.57,2.6,3,6.22,1.2,10.75-4.74,12.1-15.49,22-18.67,24.71a25.07,25.07,0,0,1-16,5.72h0a20.19,20.19,0,0,1-15-6.08h0Z" transform="translate(-229.94 -85.63)"/>
    <path class="cls-7" d="M1416.81,545.57L1438,544.2a111.05,111.05,0,0,0-8.92,21.9c-4,14,3.62,34.39,3.62,34.39s-28.26-32-15.89-54.93h0Z" transform="translate(-229.94 -85.63)"/>
    <path class="cls-4" d="M1359.74,469.89c-13.51,0-31.12-.37-44.34-9.87,0,0,17.3,30.33,44.31,30.33l0-3.84,0,3.84c27,0,44.31-30.33,44.31-30.33-13.21,9.5-30.84,9.87-44.34,9.87h0Z" transform="translate(-229.94 -85.63)"/>
    <path class="cls-7" d="M1396.93,469.75c-13.55,8.2-25.65,11-37.19,11.29-11.55-.25-23.64-3.09-37.19-11.29,0,0,19.73,24.08,37.09,24.26h0.2c17.36-.19,37.1-24.26,37.1-24.26h0Z" transform="translate(-229.94 -85.63)"/>
    <path class="cls-7" d="M1443.26,909.47l-1.51-19.64c63.63-4.89,83.68-65.87,83.78-72.29h19.7c0,14.84-26.54,86.13-102,91.93h0Z" transform="translate(-229.94 -85.63)"/>
    <path class="cls-2" d="M1464.46,781.75a49.4,49.4,0,0,0-.14-19.62c5.74-4.31,16-5.91,23.74-8.41,6.31-4,38.62,4.09,62.05-24.26,29.36-35.51,23.17-56.72,23.17-56.72,7.53,8.36,14.82,5.18,26.31,44.18s-5.4,66.2-36.87,93.5c-14.87,12.9-35.89,18.21-54,20.24,6.06-6.08-10.34-6.69-21.64-10.92,0.9-9.13-.61-18-7.42-25.12-4.09-4.3-9.38-6.87-14.86-8.92-0.31-.71-0.57-1.36-0.86-2a17.42,17.42,0,0,0,.47-1.9h0Z" transform="translate(-229.94 -85.63)"/>
    <path class="cls-6" d="M1487.26,819.5c0.66-1.92,1.15-3.87,1.63-5.83,0.53-2.15,3.13-8.23-.08-1.28a25.73,25.73,0,0,0,1.76-5.46c51-.06,95.3-35.06,86.73-108.62,6.67-8.86,16,17.86,16,17.86s25.52,74.09-40.38,102.8c-22,9.58-41.36,16.44-45.94,13.67-9.54,1.94-18.15-4.71-21.37-9.08,0.6-1.34,1.17-2.69,1.63-4h0Z" transform="translate(-229.94 -85.63)"/>
    <path class="cls-7" d="M1465.37,771.08a40.93,40.93,0,0,0-4.34-18.22c-0.21-.41-0.46-0.81-0.68-1.21,19.61-.17,42.2-2,61.43-9.74,21.14-8.46,47.58-37.39,52.13-71.38,0,0,39.81,30.72,28.11,96.48-11,61.75-62.65,81.88-121.58,85.29,0-.4,6.63-14.16,4.52-22.58,33.45,2.43,70.87-10.5,88.95-40.22,16.53-27.2,11.89-73.65,5.09-80.46-16.57,52.31-76.23,62.95-113.64,62h0Z" transform="translate(-229.94 -85.63)"/>
    <path class="cls-7" d="M1489.17,786.57c-7-7.61-20-16.68-49.83-16.68l-79.5,0h-0.2l-79.51,0c-29.84,0-42.78,9.07-49.83,16.68-10.26,11.08-11.87,26.49-4.77,45.75,18.86,51.27,45.37,103.35,134.1,103.42h0.2c88.73-.08,115.23-52.16,134.1-103.42,7.1-19.26,5.49-34.67-4.77-45.75h0Zm-13.81,42.15c-9,25.74-33.14,88.05-115.62,88.16-82.49-.11-106.63-62.42-115.62-88.16-5-14.28-4.59-24.85,1.16-31.42,3.93-4.49,13-9.84,33.56-9.84h21.51l59.39,0,59.39,0h21.5c20.6,0,29.63,5.35,33.56,9.84,5.75,6.57,6.13,17.13,1.16,31.42h0Z" transform="translate(-229.94 -85.63)"/>
    <path class="cls-7" d="M1459.2,733.63c10.6,31.12,32.26,56.31,32.26,56.31s-29.79-1.36-31.44-6.63c-1.21-3.89-26.9-64-36.76-134.46,9.27,15.24,35,82.12,35.94,84.78h0Z" transform="translate(-229.94 -85.63)"/>
  </g>
</svg>
