<?xml version="1.0" encoding="UTF-8"?>
<svg width="220pt" xmlns:xlink="http://www.w3.org/1999/xlink" xmlns="http://www.w3.org/2000/svg" height="110pt" viewBox="0 0 220 110" >
 <g transform="translate(128.459, 66.75)" style="fill:#000000; fill-rule:evenodd; stroke:none; stroke-width:0; stroke-linecap:butt; stroke-linejoin:miter; stroke-dasharray:none;" >
  <path d="M3.511 0 C1.42 0 0 1.54 0 3.82 C0 6.1 1.42 7.641 3.52 7.641 C4.4 7.641 5.19 7.371 5.781 6.871 C6.571 6.201 7.041 5.071 7.041 3.881 C7.041 1.53 5.651 0 3.511 0 Z M3.511 0.82 C5.091 0.82 6.111 2.02 6.111 3.86 C6.111 5.621 5.06 6.821 3.52 6.821 C1.971 6.821 0.931 5.621 0.931 3.82 C0.931 2.02 1.971 0.82 3.511 0.82 Z" />
 </g>
 <g transform="translate(136.659, 66.87)" style="fill:#000000; fill-rule:evenodd; stroke:none; stroke-width:0; stroke-linecap:butt; stroke-linejoin:miter; stroke-dasharray:none;" >
  <path d="M4.681 3.971 C4.681 3.971 4.681 7.291 4.681 7.291 C4.681 7.291 5.61 7.291 5.61 7.291 C5.61 7.291 5.61 0 5.61 0 C5.61 0 4.681 0 4.681 0 C4.681 0 4.681 3.15 4.681 3.15 C4.681 3.15 0.93 3.15 0.93 3.15 C0.93 3.15 0.93 0 0.93 0 C0.93 0 0 0 0 0 C0 0 0 7.291 0 7.291 C0 7.291 0.941 7.291 0.941 7.291 C0.941 7.291 0.941 3.971 0.941 3.971 C0.941 3.971 4.681 3.971 4.681 3.971 Z" />
 </g>
 <g transform="translate(80.339, 52.37)" style="fill:#000000; fill-rule:evenodd; stroke:none; stroke-width:0; stroke-linecap:butt; stroke-linejoin:miter; stroke-dasharray:none;" >
  <path d="M5.701 0 C5.701 0 4.821 0 4.821 0 C4.821 0 4.821 5.961 4.821 5.961 C4.821 5.961 1.011 0 1.011 0 C1.011 0 0 0 0 0 C0 0 0 7.291 0 7.291 C0 7.291 0.881 7.291 0.881 7.291 C0.881 7.291 0.881 1.38 0.881 1.38 C0.881 1.38 4.651 7.291 4.651 7.291 C4.651 7.291 5.701 7.291 5.701 7.291 C5.701 7.291 5.701 0 5.701 0 Z" />
 </g>
 <g transform="translate(49.209, 85.25)" style="fill:#000000; fill-rule:evenodd; stroke:none; stroke-width:0; stroke-linecap:butt; stroke-linejoin:miter; stroke-dasharray:none;" >
  <path d="M3.511 0 C1.42 0 0 1.54 0 3.82 C0 6.1 1.42 7.641 3.52 7.641 C4.4 7.641 5.19 7.371 5.781 6.871 C6.571 6.201 7.041 5.071 7.041 3.881 C7.041 1.53 5.651 0 3.511 0 Z M3.511 0.82 C5.091 0.82 6.111 2.02 6.111 3.86 C6.111 5.621 5.06 6.821 3.52 6.821 C1.971 6.821 0.931 5.621 0.931 3.82 C0.931 2.02 1.971 0.82 3.511 0.82 Z" />
 </g>
 <g transform="translate(57.409, 85.37)" style="fill:#000000; fill-rule:evenodd; stroke:none; stroke-width:0; stroke-linecap:butt; stroke-linejoin:miter; stroke-dasharray:none;" >
  <path d="M4.681 3.971 C4.681 3.971 4.681 7.291 4.681 7.291 C4.681 7.291 5.61 7.291 5.61 7.291 C5.61 7.291 5.61 0 5.61 0 C5.61 0 4.681 0 4.681 0 C4.681 0 4.681 3.15 4.681 3.15 C4.681 3.15 0.93 3.15 0.93 3.15 C0.93 3.15 0.93 0 0.93 0 C0.93 0 0 0 0 0 C0 0 0 7.291 0 7.291 C0 7.291 0.941 7.291 0.941 7.291 C0.941 7.291 0.941 3.971 0.941 3.971 C0.941 3.971 4.681 3.971 4.681 3.971 Z" />
 </g>
 <g transform="translate(171.559, 12.75)" style="fill:#000000; fill-rule:evenodd; stroke:none; stroke-width:0; stroke-linecap:butt; stroke-linejoin:miter; stroke-dasharray:none;" >
  <path d="M6.141 2.381 C5.851 0.78 4.931 0 3.331 0 C2.35 0 1.56 0.31 1.02 0.91 C0.36 1.631 0 2.671 0 3.85 C0 5.051 0.371 6.081 1.06 6.791 C1.621 7.371 2.34 7.641 3.291 7.641 C5.071 7.641 6.071 6.681 6.291 4.751 C6.291 4.751 5.331 4.751 5.331 4.751 C5.25 5.251 5.151 5.591 5 5.881 C4.701 6.481 4.081 6.821 3.3 6.821 C1.85 6.821 0.93 5.661 0.93 3.841 C0.93 1.971 1.81 0.82 3.22 0.82 C3.811 0.82 4.361 1 4.661 1.28 C4.931 1.53 5.081 1.841 5.191 2.381 C5.191 2.381 6.141 2.381 6.141 2.381 Z" />
 </g>
 <g transform="translate(160.909, 12.87)" style="fill:#000000; fill-rule:evenodd; stroke:none; stroke-width:0; stroke-linecap:butt; stroke-linejoin:miter; stroke-dasharray:none;" >
  <path d="M4.681 3.971 C4.681 3.971 4.681 7.291 4.681 7.291 C4.681 7.291 5.61 7.291 5.61 7.291 C5.61 7.291 5.61 0 5.61 0 C5.61 0 4.681 0 4.681 0 C4.681 0 4.681 3.15 4.681 3.15 C4.681 3.15 0.93 3.15 0.93 3.15 C0.93 3.15 0.93 0 0.93 0 C0.93 0 0 0 0 0 C0 0 0 7.291 0 7.291 C0 7.291 0.941 7.291 0.941 7.291 C0.941 7.291 0.941 3.971 0.941 3.971 C0.941 3.971 4.681 3.971 4.681 3.971 Z" />
 </g>
 <g transform="translate(167.54, 18.481)" style="fill:#000000; fill-rule:evenodd; stroke:none; stroke-width:0; stroke-linecap:butt; stroke-linejoin:miter; stroke-dasharray:none;" >
  <path d="M1.248 2.534 C1.248 2.534 1.32 2.534 1.32 2.534 C1.32 2.534 1.564 2.528 1.564 2.528 C2.205 2.528 2.535 2.819 2.535 3.379 C2.535 3.967 2.172 4.317 1.564 4.317 C0.931 4.317 0.621 4 0.581 3.321 C0.581 3.321 0 3.321 0 3.321 C0.026 3.697 0.093 3.941 0.205 4.152 C0.442 4.601 0.904 4.831 1.545 4.831 C2.509 4.831 3.129 4.257 3.129 3.373 C3.129 2.779 2.898 2.449 2.337 2.257 C2.772 2.086 2.99 1.756 2.99 1.287 C2.99 0.482 2.456 0 1.564 0 C0.621 0 0.119 0.515 0.1 1.512 C0.1 1.512 0.681 1.512 0.681 1.512 C0.686 1.228 0.713 1.07 0.786 0.924 C0.918 0.666 1.208 0.508 1.571 0.508 C2.086 0.508 2.396 0.812 2.396 1.307 C2.396 1.637 2.277 1.835 2.02 1.941 C1.861 2.006 1.657 2.033 1.248 2.039 C1.248 2.039 1.248 2.534 1.248 2.534 Z" />
 </g>
 <g transform="translate(185.309, 37.25)" style="fill:#000000; fill-rule:evenodd; stroke:none; stroke-width:0; stroke-linecap:butt; stroke-linejoin:miter; stroke-dasharray:none;" >
  <path d="M6.141 2.381 C5.851 0.78 4.931 0 3.331 0 C2.35 0 1.56 0.31 1.02 0.91 C0.36 1.631 0 2.671 0 3.85 C0 5.051 0.371 6.081 1.06 6.791 C1.621 7.371 2.34 7.641 3.291 7.641 C5.071 7.641 6.071 6.681 6.291 4.751 C6.291 4.751 5.331 4.751 5.331 4.751 C5.25 5.251 5.151 5.591 5 5.881 C4.701 6.481 4.081 6.821 3.3 6.821 C1.85 6.821 0.93 5.661 0.93 3.841 C0.93 1.971 1.81 0.82 3.22 0.82 C3.811 0.82 4.361 1 4.661 1.28 C4.931 1.53 5.081 1.841 5.191 2.381 C5.191 2.381 6.141 2.381 6.141 2.381 Z" />
 </g>
 <g transform="translate(192.909, 37.37)" style="fill:#000000; fill-rule:evenodd; stroke:none; stroke-width:0; stroke-linecap:butt; stroke-linejoin:miter; stroke-dasharray:none;" >
  <path d="M4.681 3.971 C4.681 3.971 4.681 7.291 4.681 7.291 C4.681 7.291 5.61 7.291 5.61 7.291 C5.61 7.291 5.61 0 5.61 0 C5.61 0 4.681 0 4.681 0 C4.681 0 4.681 3.15 4.681 3.15 C4.681 3.15 0.93 3.15 0.93 3.15 C0.93 3.15 0.93 0 0.93 0 C0.93 0 0 0 0 0 C0 0 0 7.291 0 7.291 C0 7.291 0.941 7.291 0.941 7.291 C0.941 7.291 0.941 3.971 0.941 3.971 C0.941 3.971 4.681 3.971 4.681 3.971 Z" />
 </g>
 <g transform="translate(199.29, 43.231)" style="fill:#000000; fill-rule:evenodd; stroke:none; stroke-width:0; stroke-linecap:butt; stroke-linejoin:miter; stroke-dasharray:none;" >
  <path d="M1.248 2.534 C1.248 2.534 1.32 2.534 1.32 2.534 C1.32 2.534 1.564 2.528 1.564 2.528 C2.205 2.528 2.535 2.819 2.535 3.379 C2.535 3.967 2.172 4.317 1.564 4.317 C0.931 4.317 0.621 4 0.581 3.321 C0.581 3.321 0 3.321 0 3.321 C0.026 3.697 0.093 3.941 0.205 4.152 C0.442 4.601 0.904 4.831 1.545 4.831 C2.509 4.831 3.129 4.257 3.129 3.373 C3.129 2.779 2.898 2.449 2.337 2.257 C2.772 2.086 2.99 1.756 2.99 1.287 C2.99 0.482 2.456 0 1.564 0 C0.621 0 0.119 0.515 0.1 1.512 C0.1 1.512 0.681 1.512 0.681 1.512 C0.686 1.228 0.713 1.07 0.786 0.924 C0.918 0.666 1.208 0.508 1.571 0.508 C2.086 0.508 2.396 0.812 2.396 1.307 C2.396 1.637 2.277 1.835 2.02 1.941 C1.861 2.006 1.657 2.033 1.248 2.039 C1.248 2.039 1.248 2.534 1.248 2.534 Z" />
 </g>
 <g transform="translate(202.459, 25.25)" style="fill:#000000; fill-rule:evenodd; stroke:none; stroke-width:0; stroke-linecap:butt; stroke-linejoin:miter; stroke-dasharray:none;" >
  <path d="M3.511 0 C1.42 0 0 1.54 0 3.82 C0 6.1 1.42 7.641 3.52 7.641 C4.4 7.641 5.19 7.371 5.781 6.871 C6.571 6.201 7.041 5.071 7.041 3.881 C7.041 1.53 5.651 0 3.511 0 Z M3.511 0.82 C5.091 0.82 6.111 2.02 6.111 3.86 C6.111 5.621 5.06 6.821 3.52 6.821 C1.971 6.821 0.931 5.621 0.931 3.82 C0.931 2.02 1.971 0.82 3.511 0.82 Z" />
 </g>
 <g transform="translate(190.209, 4)" style="fill:#000000; fill-rule:evenodd; stroke:none; stroke-width:0; stroke-linecap:butt; stroke-linejoin:miter; stroke-dasharray:none;" >
  <path d="M3.511 0 C1.42 0 0 1.54 0 3.82 C0 6.1 1.42 7.641 3.52 7.641 C4.4 7.641 5.19 7.371 5.781 6.871 C6.571 6.201 7.041 5.071 7.041 3.881 C7.041 1.53 5.651 0 3.511 0 Z M3.511 0.82 C5.091 0.82 6.111 2.02 6.111 3.86 C6.111 5.621 5.06 6.821 3.52 6.821 C1.971 6.821 0.931 5.621 0.931 3.82 C0.931 2.02 1.971 0.82 3.511 0.82 Z" />
 </g>
 <g transform="translate(198.409, 4.12)" style="fill:#000000; fill-rule:evenodd; stroke:none; stroke-width:0; stroke-linecap:butt; stroke-linejoin:miter; stroke-dasharray:none;" >
  <path d="M4.681 3.971 C4.681 3.971 4.681 7.291 4.681 7.291 C4.681 7.291 5.61 7.291 5.61 7.291 C5.61 7.291 5.61 0 5.61 0 C5.61 0 4.681 0 4.681 0 C4.681 0 4.681 3.15 4.681 3.15 C4.681 3.15 0.93 3.15 0.93 3.15 C0.93 3.15 0.93 0 0.93 0 C0.93 0 0 0 0 0 C0 0 0 7.291 0 7.291 C0 7.291 0.941 7.291 0.941 7.291 C0.941 7.291 0.941 3.971 0.941 3.971 C0.941 3.971 4.681 3.971 4.681 3.971 Z" />
 </g>
 <g transform="translate(132, 56.641)" style="fill:none; stroke:#000000; stroke-width:0.59904; stroke-linecap:round; stroke-linejoin:round; stroke-dasharray:none;" >
  <path d="M0 8.761 C0 8.761 0 0 0 0 " />
 </g>
 <g transform="translate(120, 49.442)" style="fill:none; stroke:#000000; stroke-width:0.59904; stroke-linecap:round; stroke-linejoin:round; stroke-dasharray:none;" >
  <path d="M12 7.199 C12 7.199 0 0 0 0 " />
 </g>
 <g transform="translate(107.52, 49.442)" style="fill:none; stroke:#000000; stroke-width:0.59904; stroke-linecap:round; stroke-linejoin:round; stroke-dasharray:none;" >
  <path d="M12.48 0 C12.48 0 0 7.08 0 7.08 " />
 </g>
 <g transform="translate(95.4, 49.202)" style="fill:none; stroke:#000000; stroke-width:0.59904; stroke-linecap:round; stroke-linejoin:round; stroke-dasharray:none;" >
  <path d="M12.12 7.32 C12.12 7.32 0 0 0 0 " />
 </g>
 <g transform="translate(88.08, 49.202)" style="fill:none; stroke:#000000; stroke-width:0.59904; stroke-linecap:round; stroke-linejoin:round; stroke-dasharray:none;" >
  <path d="M7.32 0 C7.32 0 0 3.96 0 3.96 " />
 </g>
 <g transform="translate(83.16, 61.442)" style="fill:none; stroke:#000000; stroke-width:0.59904; stroke-linecap:round; stroke-linejoin:round; stroke-dasharray:none;" >
  <path d="M0 0 C0 0 0 8.88 0 8.88 " />
 </g>
 <g transform="translate(70.44, 70.322)" style="fill:none; stroke:#000000; stroke-width:0.59904; stroke-linecap:round; stroke-linejoin:round; stroke-dasharray:none;" >
  <path d="M0 6.84 C0 6.84 12.72 0 12.72 0 " />
 </g>
 <g transform="translate(58.32, 69.962)" style="fill:none; stroke:#000000; stroke-width:0.59904; stroke-linecap:round; stroke-linejoin:round; stroke-dasharray:none;" >
  <path d="M0 0 C0 0 12.12 7.2 12.12 7.2 " />
 </g>
 <g transform="translate(58.32, 55.802)" style="fill:none; stroke:#000000; stroke-width:0.59904; stroke-linecap:round; stroke-linejoin:round; stroke-dasharray:none;" >
  <path d="M0 0 C0 0 0 14.16 0 14.16 " />
 </g>
 <g transform="translate(58.32, 48.842)" style="fill:none; stroke:#000000; stroke-width:0.59904; stroke-linecap:round; stroke-linejoin:round; stroke-dasharray:none;" >
  <path d="M12.481 0 C12.481 0 0 6.96 0 6.96 " />
 </g>
 <g transform="translate(70.801, 48.842)" style="fill:none; stroke:#000000; stroke-width:0.59904; stroke-linecap:round; stroke-linejoin:round; stroke-dasharray:none;" >
  <path d="M7.199 4.2 C7.199 4.2 0 0 0 0 " />
 </g>
 <g transform="translate(45.96, 69.962)" style="fill:none; stroke:#000000; stroke-width:0.59904; stroke-linecap:round; stroke-linejoin:round; stroke-dasharray:none;" >
  <path d="M12.36 0 C12.36 0 0 6.96 0 6.96 " />
 </g>
 <g transform="translate(45.96, 76.922)" style="fill:none; stroke:#000000; stroke-width:0.59904; stroke-linecap:round; stroke-linejoin:round; stroke-dasharray:none;" >
  <path d="M0 0 C0 0 3.96 7.2 3.96 7.2 " />
 </g>
 <g transform="translate(33.841, 55.322)" style="fill:none; stroke:#000000; stroke-width:0.59904; stroke-linecap:round; stroke-linejoin:round; stroke-dasharray:none;" >
  <path d="M12.119 21.6 C12.119 21.6 0 0 0 0 " />
 </g>
 <g transform="translate(33.841, 43.082)" style="fill:none; stroke:#000000; stroke-width:0.59904; stroke-linecap:round; stroke-linejoin:round; stroke-dasharray:none;" >
  <path d="M0 12.24 C0 12.24 7.199 0 7.199 0 " />
 </g>
 <g transform="translate(32.52, 43.202)" style="fill:none; stroke:#000000; stroke-width:0.59904; stroke-linecap:round; stroke-linejoin:round; stroke-dasharray:none;" >
  <path d="M0 9.36 C0 9.36 5.52 0 5.52 0 " />
 </g>
 <g transform="translate(34.08, 30.722)" style="fill:none; stroke:#000000; stroke-width:0.59904; stroke-linecap:round; stroke-linejoin:round; stroke-dasharray:none;" >
  <path d="M0 0 C0 0 6.96 12.36 6.96 12.36 " />
 </g>
 <g transform="translate(19.92, 30.722)" style="fill:none; stroke:#000000; stroke-width:0.59904; stroke-linecap:round; stroke-linejoin:round; stroke-dasharray:none;" >
  <path d="M0 0 C0 0 14.16 0 14.16 0 " />
 </g>
 <g transform="translate(21.6, 33.242)" style="fill:none; stroke:#000000; stroke-width:0.59904; stroke-linecap:round; stroke-linejoin:round; stroke-dasharray:none;" >
  <path d="M0 0 C0 0 10.8 0 10.8 0 " />
 </g>
 <g transform="translate(12.6, 30.722)" style="fill:none; stroke:#000000; stroke-width:0.59904; stroke-linecap:round; stroke-linejoin:round; stroke-dasharray:none;" >
  <path d="M0 12 C0 12 7.32 0 7.32 0 " />
 </g>
 <g transform="translate(12.6, 42.722)" style="fill:none; stroke:#000000; stroke-width:0.59904; stroke-linecap:round; stroke-linejoin:round; stroke-dasharray:none;" >
  <path d="M6.96 12.6 C6.96 12.6 0 0 0 0 " />
 </g>
 <g transform="translate(15.721, 42.962)" style="fill:none; stroke:#000000; stroke-width:0.59904; stroke-linecap:round; stroke-linejoin:round; stroke-dasharray:none;" >
  <path d="M5.279 9.72 C5.279 9.72 0 0 0 0 " />
 </g>
 <g transform="translate(19.681, 55.322)" style="fill:none; stroke:#000000; stroke-width:0.59904; stroke-linecap:round; stroke-linejoin:round; stroke-dasharray:none;" >
  <path d="M14.16 0 C14.16 0 0 0 0 0 " />
 </g>
 <g transform="translate(33.6, 76.922)" style="fill:none; stroke:#000000; stroke-width:0.59904; stroke-linecap:round; stroke-linejoin:round; stroke-dasharray:none;" >
  <path d="M12.36 0 C12.36 0 0 6.84 0 6.84 " />
 </g>
 <g transform="translate(21.48, 76.442)" style="fill:none; stroke:#000000; stroke-width:0.59904; stroke-linecap:round; stroke-linejoin:round; stroke-dasharray:none;" >
  <path d="M12.12 7.32 C12.12 7.32 0 0 0 0 " />
 </g>
 <g transform="translate(21.6, 79.442)" style="fill:none; stroke:#000000; stroke-width:0.59904; stroke-linecap:round; stroke-linejoin:round; stroke-dasharray:none;" >
  <path d="M9.241 5.64 C9.241 5.64 0 0 0 0 " />
 </g>
 <g transform="translate(9, 76.442)" style="fill:none; stroke:#000000; stroke-width:0.59904; stroke-linecap:round; stroke-linejoin:round; stroke-dasharray:none;" >
  <path d="M0 7.08 C0 7.08 12.48 0 12.48 0 " />
 </g>
 <g transform="translate(9, 83.522)" style="fill:none; stroke:#000000; stroke-width:0.59904; stroke-linecap:round; stroke-linejoin:round; stroke-dasharray:none;" >
  <path d="M0 14.04 C0 14.04 0 0 0 0 " />
 </g>
 <g transform="translate(11.52, 85.202)" style="fill:none; stroke:#000000; stroke-width:0.59904; stroke-linecap:round; stroke-linejoin:round; stroke-dasharray:none;" >
  <path d="M0 10.68 C0 10.68 0 0 0 0 " />
 </g>
 <g transform="translate(9, 97.562)" style="fill:none; stroke:#000000; stroke-width:0.59904; stroke-linecap:round; stroke-linejoin:round; stroke-dasharray:none;" >
  <path d="M12.12 7.32 C12.12 7.32 0 0 0 0 " />
 </g>
 <g transform="translate(21.12, 97.922)" style="fill:none; stroke:#000000; stroke-width:0.59904; stroke-linecap:round; stroke-linejoin:round; stroke-dasharray:none;" >
  <path d="M12.48 0 C12.48 0 0 6.96 0 6.96 " />
 </g>
 <g transform="translate(21.36, 96.602)" style="fill:none; stroke:#000000; stroke-width:0.59904; stroke-linecap:round; stroke-linejoin:round; stroke-dasharray:none;" >
  <path d="M9.6 0 C9.6 0 0 5.28 0 5.28 " />
 </g>
 <g transform="translate(33.6, 83.762)" style="fill:none; stroke:#000000; stroke-width:0.59904; stroke-linecap:round; stroke-linejoin:round; stroke-dasharray:none;" >
  <path d="M0 0 C0 0 0 14.16 0 14.16 " />
 </g>
 <g transform="translate(132, 49.802)" style="fill:none; stroke:#000000; stroke-width:0.59904; stroke-linecap:round; stroke-linejoin:round; stroke-dasharray:none;" >
  <path d="M0 6.839 C0 6.839 12.48 0 12.48 0 " />
 </g>
 <g transform="translate(144.48, 49.802)" style="fill:none; stroke:#000000; stroke-width:0.59904; stroke-linecap:round; stroke-linejoin:round; stroke-dasharray:none;" >
  <path d="M0 0 C0 0 12.12 7.2 12.12 7.2 " />
 </g>
 <g transform="translate(147.24, 48.482)" style="fill:none; stroke:#000000; stroke-width:0.59904; stroke-linecap:round; stroke-linejoin:round; stroke-dasharray:none;" >
  <path d="M0 0 C0 0 9.24 5.52 9.24 5.52 " />
 </g>
 <g transform="translate(156.6, 50.042)" style="fill:none; stroke:#000000; stroke-width:0.59904; stroke-linecap:round; stroke-linejoin:round; stroke-dasharray:none;" >
  <path d="M12.48 0 C12.48 0 0 6.96 0 6.96 " />
 </g>
 <g transform="translate(169.08, 35.762)" style="fill:none; stroke:#000000; stroke-width:0.59904; stroke-linecap:round; stroke-linejoin:round; stroke-dasharray:none;" >
  <path d="M0 0 C0 0 0 14.28 0 14.28 " />
 </g>
 <g transform="translate(166.56, 37.442)" style="fill:none; stroke:#000000; stroke-width:0.59904; stroke-linecap:round; stroke-linejoin:round; stroke-dasharray:none;" >
  <path d="M0 0 C0 0 0 10.92 0 10.92 " />
 </g>
 <g transform="translate(156.96, 28.682)" style="fill:none; stroke:#000000; stroke-width:0.59904; stroke-linecap:round; stroke-linejoin:round; stroke-dasharray:none;" >
  <path d="M0 0 C0 0 12.12 7.08 12.12 7.08 " />
 </g>
 <g transform="translate(144.48, 28.682)" style="fill:none; stroke:#000000; stroke-width:0.59904; stroke-linecap:round; stroke-linejoin:round; stroke-dasharray:none;" >
  <path d="M0 6.959 C0 6.959 12.48 0 12.48 0 " />
 </g>
 <g transform="translate(147.12, 31.682)" style="fill:none; stroke:#000000; stroke-width:0.59904; stroke-linecap:round; stroke-linejoin:round; stroke-dasharray:none;" >
  <path d="M0 5.28 C0 5.28 9.601 0 9.601 0 " />
 </g>
 <g transform="translate(144.48, 35.641)" style="fill:none; stroke:#000000; stroke-width:0.59904; stroke-linecap:round; stroke-linejoin:round; stroke-dasharray:none;" >
  <path d="M0 14.161 C0 14.161 0 0 0 0 " />
 </g>
 <g transform="translate(169.08, 28.802)" style="fill:none; stroke:#000000; stroke-width:0.59904; stroke-linecap:round; stroke-linejoin:round; stroke-dasharray:none;" >
  <path d="M0 6.96 C0 6.96 12.36 0 12.36 0 " />
 </g>
 <g transform="translate(177.6, 21.842)" style="fill:none; stroke:#000000; stroke-width:0.59904; stroke-linecap:round; stroke-linejoin:round; stroke-dasharray:none;" >
  <path d="M3.84 6.96 C3.84 6.96 0 0 0 0 " />
 </g>
 <g transform="translate(181.44, 28.802)" style="fill:none; stroke:#000000; stroke-width:0.59904; stroke-linecap:round; stroke-linejoin:round; stroke-dasharray:none;" >
  <path d="M0 0 C0 0 4.08 7.32 4.08 7.32 " />
 </g>
 <g transform="translate(181.44, 21.962)" style="fill:none; stroke:#000000; stroke-width:0.59904; stroke-linecap:round; stroke-linejoin:round; stroke-dasharray:none;" >
  <path d="M0 6.84 C0 6.84 12.361 0 12.361 0 " />
 </g>
 <g transform="translate(192.48, 22.682)" style="fill:none; stroke:#000000; stroke-width:0.59904; stroke-linecap:round; stroke-linejoin:round; stroke-dasharray:none;" >
  <path d="M0 0 C0 0 7.321 4.32 7.321 4.32 " />
 </g>
 <g transform="translate(193.801, 20.402)" style="fill:none; stroke:#000000; stroke-width:0.59904; stroke-linecap:round; stroke-linejoin:round; stroke-dasharray:none;" >
  <path d="M0 0 C0 0 7.319 4.44 7.319 4.44 " />
 </g>
 <g transform="translate(193.801, 13.082)" style="fill:none; stroke:#000000; stroke-width:0.59904; stroke-linecap:round; stroke-linejoin:round; stroke-dasharray:none;" >
  <path d="M0 8.88 C0 8.88 0 0 0 0 " />
 </g>
</svg>
