<?xml version="1.0" encoding="utf-8"?>
<!-- Generator: Adobe Illustrator 19.0.1, SVG Export Plug-In . SVG Version: 6.00 Build 0)  -->
<svg version="1.1" id="Layer_1" xmlns="http://www.w3.org/2000/svg" xmlns:xlink="http://www.w3.org/1999/xlink" x="0px" y="0px"
	 viewBox="-76.5 -6.5 75 75" style="enable-background:new -76.5 -6.5 75 75;" xml:space="preserve">
<style type="text/css">
	.st0{fill:#4C8C2B;}
	.st1{fill:#FFFFFF;}
</style>
<circle id="XMLID_679_" class="st0" cx="-39" cy="31" r="37.5"/>
<g id="XMLID_829_">
	<path id="XMLID_830_" class="st1" d="M-28.7,45.5c-1.2-1.3-3.4-1.4-4.8-0.1l-5.7,5.2c-0.2,0.2-0.7,0.2-0.9,0l-2-1.8
		c-1.2-1.1-3.3-1.1-4.5,0l-1.5,1.3c-1.1,0.9-1.5,2.4-1,3.8c0.5,1.3,1.8,2.2,3.2,2.2h19.3c1.4,0,2.6-0.8,3.1-2.1
		c0.5-1.3,0.3-2.7-0.7-3.7L-28.7,45.5z"/>
	<path id="XMLID_831_" class="st1" d="M-19.4,27c-0.6,0.9-1.1,1.8-1.5,2.7c-0.6,1.3-1.2,2.5-2.1,3c-1,0.6-2.1,0.9-3.2,0.9
		c-0.9,0-1.8-0.3-2.5-0.7c2.5-3.3,5.3-4.4,5.4-4.4c0.4-0.1,0.5-0.5,0.4-0.9s-0.5-0.5-0.9-0.4c-0.1,0-3.2,1.2-5.9,4.7l0,0
		c-0.4-0.7-0.5-1.7-0.2-2.9c0.4-1.6,1.5-3.1,2.8-3.9c1.7-1,3.6-1.5,5.7-1.5c1.8,0,3.4,0.3,4.7,0.7C-17.5,25-18.6,25.9-19.4,27
		 M-48.1,31.9L-48.1,31.9c-2.8-3.5-5.8-4.7-5.9-4.7c-0.3-0.1-0.7,0.1-0.9,0.4c-0.1,0.4,0.1,0.7,0.4,0.9c0,0,2.8,1.1,5.4,4.4
		c-1.5,0.9-3.8,0.9-5.6-0.2c-0.9-0.5-1.4-1.7-2.1-3c-0.4-0.9-0.9-1.8-1.5-2.7c-0.7-1-1.8-1.9-2.8-2.6c1.3-0.4,2.9-0.7,4.7-0.7
		c2.1,0,4,0.5,5.7,1.5c1.3,0.8,2.4,2.3,2.8,3.9C-47.6,30.1-47.7,31.1-48.1,31.9 M-12.8,22.9c-0.2-0.1-3.9-2-8.4-2
		c-2.6,0-5,0.6-7.1,1.9c-2,1.2-3.5,3.2-4.1,5.6c-0.5,1.9-0.3,3.6,0.5,4.9l0,0c-2.4,2.2-4.4,4.6-5.9,7.8V25.6
		c2.5-0.3,4.8-1.9,4.8-4.9c0-2.6-2.7-3.7-5-4.6c-1.8-0.7-3.3-1.3-3.3-2.4c0-1.3,1.4-1.8,2.6-1.8c1.4,0,2.1,0.5,2.7,1
		c0.4,0.3,0.8,0.6,1.3,0.6c0.9,0,1.3-0.6,1.3-1.2c0-1.4-2.2-2.5-4.1-2.8c0,0,0,0,0-0.1V7c0-0.6-0.5-1.1-1.1-1.1s-1.1,0.5-1.1,1.1
		v2.3l0,0c-2.9,0.4-4.5,2.4-4.5,4.4c0,2.4,2.5,3.5,4.8,4.4c1.8,0.8,3.5,1.5,3.5,2.8c0,1-1.1,2-2.9,2c-1.7,0-2.6-0.7-3.4-1.2
		c-0.5-0.4-1-0.7-1.4-0.7c-0.7,0-1.2,0.6-1.2,1.3c0,1.3,2,2.7,4.8,3v15.6c-1.4-3.2-3.5-5.6-5.9-7.8l0,0c0.8-1.3,1-3.1,0.5-4.9
		c-0.6-2.3-2.1-4.4-4.1-5.6c-2.1-1.2-4.5-1.9-7.1-1.9c-4.6,0-8.3,1.9-8.4,2c-0.5,0.2-0.7,0.7-0.7,1.2s0.3,1,0.8,1.2
		c0.8,0.4,3.2,1.7,4.3,3.2c0.5,0.7,0.9,1.4,1.2,2.3c0.7,1.6,1.5,3.2,3.1,4.2c1.4,0.8,3,1.3,4.6,1.3c1.4,0,2.8-0.4,3.8-1
		c3.2,2.9,5.6,6.3,6.8,11.6c0.1,0.1,0.3,0.2,0.4,0.3l0.9,0.8l3.5-3.2c1.3-4.1,3.5-7,6.2-9.5c1.1,0.6,2.4,1,3.8,1
		c1.6,0,3.2-0.4,4.5-1.3c1.6-1,2.4-2.6,3.1-4.2c0.4-0.8,0.8-1.6,1.2-2.3c1.1-1.5,3.5-2.8,4.3-3.2c0.5-0.2,0.8-0.7,0.8-1.2
		C-12,23.6-12.3,23.1-12.8,22.9"/>
</g>
</svg>
