<?xml version="1.0" encoding="utf-8"?>
<!-- Generator: Adobe Illustrator 19.0.1, SVG Export Plug-In . SVG Version: 6.00 Build 0)  -->
<svg version="1.1" id="Layer_1" xmlns="http://www.w3.org/2000/svg" xmlns:xlink="http://www.w3.org/1999/xlink" x="0px" y="0px"
	 viewBox="-181 264.6 247.6 265.4" style="enable-background:new -181 264.6 247.6 265.4;" xml:space="preserve">
<style type="text/css">
	.st0{fill:#898985;}
	.st1{enable-background:new    ;}
	.st2{fill:#D2B887;}
	.st3{fill:none;}
</style>
<g>
	<g>
		<g>
			<path class="st0" d="M-83.9,290.1c0.2,0.2,0.5,0.5,0.7,0.7c0.3,0,0.7,0,1,0c0.7-0.2,1.4-0.3,2.1-0.5c0.1,0.1,0.3,0.1,0.4,0.2
				s0.2,0.3,0.3,0.4c0,0.3,0,0.7,0.1,1c-0.1,0.3-0.2,0.7-0.3,1c-0.2,0.3-0.3,0.6-0.5,0.9c-0.1,0.1-0.2,0.2-0.3,0.4
				c-0.6,0.1-1.3,0.3-1.9,0.4c-1,0.2-2.1,0.4-3.1,0.6c-0.4,0.4-0.7,0.8-1.1,1.3c-0.2,0.6-0.4,1.3-0.6,1.9c-0.1,0.3-0.3,0.7-0.4,1
				c-0.1,0.2-0.3,0.4-0.4,0.6c-0.1,0.3-0.1,0.7-0.2,1c0,0.1-0.1,0.1-0.1,0.2c0,0.2-0.1,0.5-0.1,0.7c-0.3,0.7-0.7,1.3-1,2
				c-0.1,0.5-0.3,1-0.4,1.5c-0.1,0.2-0.2,0.3-0.3,0.5c-0.2,0.6-0.4,1.3-0.6,1.9c-0.1,0.3-0.2,0.6-0.3,0.9c-0.1,0.1-0.2,0.1-0.3,0.2
				c0,0.1,0,0.3-0.1,0.4c-0.2,0.2-0.2,0.2-0.3,0.3c-0.1,0.6-0.2,1.2-0.3,1.8H-92c-0.3,0.6-0.7,1.3-1,1.9c-0.3,0.4-0.6,0.9-0.9,1.3
				c0,0.1,0,0.2,0,0.2H-94c-0.1,0.3-0.2,0.6-0.4,1c-0.3,0.4-0.6,0.8-0.9,1.2c0,0.1,0,0.1,0,0.2c-0.2,0.3-0.5,0.6-0.7,1
				c-0.1,0.2-0.1,0.4-0.2,0.6c-0.5,0.6-1,1.3-1.4,1.9c-0.4,0.4-0.8,0.9-1.2,1.3c-0.1,0-0.1,0-0.2,0.1c-0.3,0.4-0.6,0.8-0.9,1.2
				c-0.1,0-0.2,0.1-0.2,0.1c-0.2,0.2-0.3,0.4-0.5,0.6c-0.1,0.1-0.2,0.1-0.3,0.2c0,0.1,0,0.1-0.1,0.2c-0.1,0-0.2,0.1-0.3,0.1
				c-0.2,0.2-0.4,0.4-0.6,0.6c-0.5,0.3-1.1,0.7-1.6,1c-0.6,0.4-1.1,0.7-1.7,1.1c-0.1,0-0.2,0.1-0.3,0.1c-0.1,0-0.1,0-0.2-0.1
				c-0.3,0.2-0.6,0.3-0.9,0.5c-0.2,0.2-0.5,0.5-0.7,0.7c-0.6,0.3-1.2,0.6-1.8,0.9c-0.7,0.2-1.5,0.4-2.2,0.7
				c-0.5,0.2-1.1,0.4-1.6,0.6l-0.1-0.1c-0.3,0.1-0.6,0.1-0.9,0.2c-0.3-0.1-0.7-0.1-1-0.2c-0.1,0-0.2,0.1-0.2,0.1
				c-0.5,0-0.9,0-1.4,0.1c-0.4-0.2-0.7-0.4-1.1-0.6c-0.1,0-0.3,0.1-0.4,0.1c0-0.1-0.1-0.2-0.1-0.3c-0.1,0-0.2,0.1-0.4,0.1
				c-0.2-0.2-0.4-0.3-0.7-0.5c-0.1,0-0.3-0.1-0.4-0.1c-0.1-0.1-0.1-0.3-0.2-0.4c-0.3-0.2-0.5-0.4-0.8-0.6c-0.1-0.3-0.2-0.5-0.4-0.8
				c-0.3-0.4-0.7-0.8-1-1.2c-0.1-0.6-0.2-1.2-0.4-1.8c-0.1-0.5-0.2-1.1-0.4-1.6c0-0.7,0.1-1.3,0.1-2c0-0.4,0-0.8,0-1.2
				c0.1-0.1,0.1-0.1,0.2-0.2c0-0.1,0-0.3,0-0.4c0.2-0.6,0.4-1.3,0.6-1.9c0.1-0.4,0.2-0.7,0.4-1.1c0.1-0.3,0.1-0.6,0.2-1
				c0,0,0.1,0,0.1-0.1c0.1-0.2,0.1-0.5,0.2-0.7c0.4-0.7,0.8-1.3,1.2-2c0.3-0.4,0.6-0.8,0.8-1.2c0-0.1,0-0.2,0-0.2
				c0.2-0.3,0.4-0.7,0.7-1c0.1-0.1,0.3-0.3,0.4-0.4c0-0.1,0.1-0.2,0.1-0.3c0.3-0.3,0.6-0.6,1-0.9c0.3-0.3,0.5-0.6,0.8-0.8
				c0.1-0.1,0.3-0.2,0.4-0.3s0.2-0.3,0.3-0.4c0.5-0.3,1.1-0.7,1.6-1c0.3-0.2,0.6-0.4,1-0.5c0.3-0.3,0.6-0.6,1-0.9
				c0.3-0.2,0.6-0.3,1-0.5c0.3-0.1,0.6-0.1,0.9-0.2c0.1,0,0.3,0.1,0.4,0.1c0.1,0.1,0.2,0.2,0.4,0.3c0,0.6,0,1.3,0.1,1.9
				c0,0.4,0.1,0.8,0.1,1.1c-0.1,0.5-0.1,0.9-0.2,1.4c-0.1,0.1-0.2,0.1-0.2,0.2c0,0.2,0,0.3-0.1,0.5c-0.3,0.2-0.5,0.5-0.8,0.7
				c-0.6,0.4-1.3,0.7-1.9,1.1c-0.3,0.2-0.6,0.4-0.9,0.6c-0.5,0.6-1,1.2-1.6,1.8c-0.1,0.2-0.3,0.3-0.4,0.5c-0.1,0.2-0.1,0.4-0.2,0.6
				c-0.1,0.1-0.2,0.3-0.3,0.4c-0.3,0.7-0.5,1.4-0.8,2.1c-0.1,0.4-0.2,0.8-0.3,1.1c0,0.3,0,0.7,0,1c0,0.1-0.1,0.2-0.1,0.2
				c0,0.3,0,0.6,0.1,1c0.2,0.5,0.5,1,0.7,1.5c0.4,0.4,0.8,0.8,1.1,1.2c0.1,0.1,0.2,0.2,0.3,0.2c0.3,0,0.5,0.1,0.8,0.1
				c0.3,0.1,0.5,0.2,0.8,0.3c0.5,0,1.1,0,1.6,0c0.3-0.1,0.6-0.1,1-0.2c0.6-0.3,1.3-0.6,1.9-0.9c0.6-0.4,1.2-0.8,1.8-1.2
				c0.6-0.5,1.2-0.9,1.8-1.4c0.5-0.6,1.1-1.2,1.6-1.8c0.4-0.6,0.9-1.2,1.3-1.9c0.4-0.7,0.8-1.3,1.2-1.9c0.1-0.2,0.2-0.4,0.3-0.5
				c0.1,0,0.1-0.1,0.2-0.1c0-0.1,0-0.3,0.1-0.4c0.1-0.1,0.2-0.2,0.4-0.3c0-0.1,0-0.2,0-0.3c0.1-0.2,0.1-0.2,0.2-0.3
				c0-0.2,0.1-0.4,0.1-0.6c0.2-0.5,0.5-1.1,0.7-1.6c0.2-0.3,0.3-0.6,0.5-1c0.2-0.7,0.5-1.3,0.7-2c0.2-0.7,0.5-1.3,0.7-2
				c0.1-0.1,0.1-0.1,0.2-0.2c0-0.2,0-0.3,0.1-0.5c0.1-0.2,0.2-0.3,0.3-0.5c0.1-0.6,0.2-1.2,0.4-1.8c0.1-0.1,0.1-0.2,0.2-0.2
				c0-0.1,0-0.3,0.1-0.4h0.1c0.1-0.3,0.1-0.7,0.2-1c0.3-0.7,0.5-1.3,0.8-2c0-0.1,0.1-0.2,0.1-0.3c0-0.2,0-0.3-0.1-0.5
				c-0.2-0.1-0.5-0.3-0.7-0.4c-0.7,0.2-1.3,0.3-2,0.5c-0.3,0-0.6,0.1-0.9,0.1c-0.1,0-0.2-0.1-0.4-0.1c0-0.1,0-0.2,0-0.2
				c0-0.2-0.1-0.2-0.2-0.3c0-0.2,0-0.3,0-0.5c0.1-0.3,0.2-0.7,0.3-1c0.2-0.4,0.4-0.7,0.6-1.1c0.2-0.2,0.4-0.5,0.6-0.7
				c0.3-0.1,0.6-0.3,0.9-0.4c0.7-0.2,1.4-0.4,2.2-0.5c0.3-0.1,0.7-0.3,1-0.4c0.3-0.2,0.5-0.4,0.8-0.6c0.2-0.3,0.4-0.6,0.6-0.9
				c0.2-0.7,0.5-1.4,0.7-2c0.3-0.6,0.5-1.2,0.8-1.9c0.3-0.7,0.5-1.4,0.8-2c0.2-0.5,0.4-1,0.6-1.6c0.1-0.3,0.3-0.6,0.4-1
				c0.1-0.3,0.2-0.7,0.3-1c0.2-0.5,0.4-1,0.6-1.4c0.1-0.3,0.1-0.7,0.2-1c0.1-0.1,0.2-0.2,0.3-0.4c0.3-0.7,0.5-1.4,0.8-2.1
				c0.1-0.2,0.1-0.5,0.2-0.7c-0.2-0.2-0.4-0.4-0.6-0.6c-0.1,0-0.3-0.1-0.4-0.1c-0.7,0.1-1.3,0.2-2,0.4c-0.1,0-0.2,0-0.3-0.1
				c-0.6,0-1.2,0-1.8,0.1c-0.7,0.1-1.4,0.2-2.1,0.3c-0.6,0-1.2,0-1.9,0c-0.6,0-1.3,0-1.9,0c-1.3,0.1-2.6,0.3-3.8,0.4
				c-0.6,0.1-1.1,0.2-1.7,0.2c-0.4,0-0.7,0.1-1.1,0.1c-0.3,0.1-0.7,0.2-1,0.3c-0.7,0.3-1.3,0.6-2,0.9c-0.6,0.3-1.1,0.6-1.7,0.9
				c-0.3,0.3-0.6,0.5-0.9,0.8c-0.5,0.6-1,1.2-1.5,1.8c-0.2,0.3-0.4,0.7-0.6,1c-0.3,0.7-0.6,1.4-0.8,2.1c0,0.3-0.1,0.7-0.1,1
				c0,0.3,0,0.6,0.1,1c0.1,0.2,0.2,0.5,0.3,0.7c0.2,0.3,0.4,0.7,0.7,1c0.3,0.1,0.6,0.2,0.8,0.3c0.1,0.1,0.2,0.2,0.3,0.3
				c0.5,0,1.1-0.1,1.6-0.1c0.4-0.1,0.7-0.2,1.1-0.3c0.4-0.2,0.8-0.4,1.2-0.6c0.5-0.5,1.1-1,1.6-1.5c0.2-0.2,0.4-0.4,0.7-0.5
				c0.2-0.1,0.3-0.1,0.5-0.2c0.3,0,0.6,0.1,0.9,0.1c0.3,0.4,0.7,0.8,1,1.3c0.1,0.1,0.2,0.2,0.4,0.3c0,0.1,0,0.2,0,0.2h0.1
				c0,0.1,0,0.2,0,0.3h0.1c0,0.1,0,0.2,0,0.2c0.1,0,0.1,0,0.2-0.1c0,0.2,0.1,0.3,0.1,0.5c-0.1,0.3-0.2,0.6-0.2,0.9
				c-0.2,0.3-0.5,0.6-0.7,0.9c-0.6,0.5-1.2,1.1-1.8,1.6c-0.1,0.1-0.3,0.2-0.4,0.3c-0.1,0.1-0.1,0.2-0.2,0.2
				c-0.6,0.4-1.3,0.9-1.9,1.3c-0.5,0.2-1.1,0.5-1.6,0.7c-0.4,0.2-0.8,0.3-1.2,0.5c-0.7,0.2-1.3,0.3-2,0.5c-0.3,0-0.6,0.1-0.8,0.1
				c-0.6-0.1-1.1-0.1-1.7-0.2c-0.5-0.1-1-0.2-1.5-0.3c-0.3-0.1-0.5-0.3-0.8-0.4c-0.4-0.3-0.8-0.7-1.1-1c0-0.1,0-0.2,0-0.2
				s-0.1,0-0.1,0.1c0-0.1-0.1-0.3-0.1-0.4c-0.1-0.1-0.2-0.1-0.4-0.2c-0.1-0.2-0.1-0.4-0.2-0.7c-0.1-0.1-0.2-0.1-0.3-0.2
				c-0.1-0.3-0.2-0.7-0.2-1c-0.1,0-0.1,0.1-0.2,0.1c-0.1-0.6-0.1-1.2-0.2-1.8c0-0.6,0-1.3,0-1.9c0.1-0.6,0.2-1.3,0.3-1.9
				c0.1-0.1,0.1-0.2,0.2-0.3c0-0.3,0.1-0.7,0.1-1c0.1-0.3,0.2-0.6,0.4-0.8c0.1-0.1,0.2-0.3,0.4-0.4c0-0.1,0-0.3,0.1-0.4
				c0.1-0.2,0.2-0.4,0.2-0.5c0-0.1,0-0.3,0.1-0.4c0.3-0.5,0.5-1,0.8-1.5c0.2-0.2,0.3-0.3,0.5-0.5c0.2-0.3,0.4-0.7,0.6-1
				c0.4-0.5,0.8-1,1.1-1.5c0.1,0,0.2-0.1,0.3-0.1v-0.1c0.1-0.1,0.2-0.1,0.2-0.2c0.1-0.2,0.2-0.3,0.3-0.5c0.3-0.2,0.5-0.5,0.8-0.7
				c0.1-0.1,0.1-0.2,0.2-0.3c0.1,0,0.2-0.1,0.2-0.1c0.6-0.5,1.2-1,1.9-1.4c0.3-0.2,0.6-0.5,0.9-0.7c0.6-0.3,1.3-0.5,1.9-0.8
				c0.3-0.7,0.9-0.9,1.5-1.2l0.1,0.1c0.6-0.2,1.3-0.4,1.9-0.6c0.2,0,0.4-0.1,0.6-0.1l0.1,0.1c0.2-0.1,0.3-0.1,0.5-0.2
				c0.6-0.1,1.2-0.2,1.8-0.3c0.1,0,0.2,0,0.4,0c0.5-0.1,1-0.2,1.5-0.3l0.1,0.1c0.2-0.1,0.4-0.1,0.6-0.2v0.1c0.6,0,1.3-0.1,1.9-0.1
				c0.7,0,1.3-0.1,2-0.1c0.5,0,1.1,0,1.6,0c0.6,0,1.3,0,1.9,0c0.8-0.1,1.4-0.2,2.1-0.2c0.6,0,1.2-0.1,1.8-0.1
				c0.7-0.2,1.5-0.3,2.2-0.4c0.7-0.2,1.3-0.5,2-0.7c0.3-0.2,0.7-0.4,1-0.7c0.1-0.1,0.2-0.3,0.3-0.4c0.3-0.2,0.6-0.5,0.9-0.7
				c0.1,0,0.3-0.1,0.4-0.1c0.2-0.2,0.4-0.3,0.6-0.5c0.3-0.1,0.5-0.2,0.8-0.3c0.1-0.1,0.1-0.1,0.2-0.2c0.1,0,0.3-0.1,0.4-0.1
				c0.1-0.1,0.3-0.2,0.4-0.3c0.2,0,0.4-0.1,0.6-0.1c0-0.1,0.1-0.1,0.1-0.2c0.5,0.1,1,0.2,1.5,0.3c0.2,0.2,0.4,0.4,0.6,0.5
				c0.1,0.2,0.2,0.3,0.3,0.5c0.1,0.6,0.2,1.2,0.3,1.8c0,0.2,0,0.3,0,0.5c-0.2,0.3-0.3,0.5-0.5,0.8c-0.7,0.8-1.5,1.6-2.2,2.5
				c-0.3,0.5-0.6,0.9-1,1.4c-0.1,0.2-0.3,0.4-0.4,0.6c0,0.2,0,0.3-0.1,0.5h-0.1c-0.1,0.3-0.2,0.7-0.3,1c-0.1,0.1-0.2,0.2-0.3,0.4
				c-0.1,0.3-0.2,0.7-0.3,1c-0.1,0.1-0.2,0.2-0.3,0.2c0,0.1,0,0.2,0,0.2c-0.1,0.1-0.2,0.3-0.3,0.4c-0.2,0.6-0.3,1.3-0.5,1.9
				c-0.3,0.6-0.6,1.3-0.9,1.9c-0.2,0.6-0.4,1.2-0.6,1.8s-0.5,1.3-0.7,1.9c-0.1,0.1-0.1,0.1-0.2,0.2c-0.1,0.3-0.2,0.6-0.3,0.9
				c-0.2,0.3-0.3,0.6-0.5,1c-0.2,0.6-0.5,1.2-0.7,1.9C-83.7,289.3-83.8,289.7-83.9,290.1C-83.9,290-83.9,290.1-83.9,290.1z
				 M-113.3,327.3c0,0.1,0,0.2,0,0.3c0.1,0,0.3,0,0.4-0.1c0-0.1,0.1-0.1,0.1-0.2s0-0.2,0-0.3c0,0-0.1,0-0.1-0.1
				c-0.1,0.1-0.2,0.1-0.3,0.2C-113.2,327.2-113.3,327.2-113.3,327.3z M-107.7,292.6c0-0.1,0-0.2,0-0.2c-0.1,0-0.3,0-0.4,0
				c0,0.1,0,0.2,0.1,0.2s0.2,0.1,0.2,0.1C-107.8,292.6-107.7,292.6-107.7,292.6z M-105.6,324.2c0.1,0,0.2,0,0.2,0
				c0.2-0.2,0.3-0.5,0.5-0.7c-0.1,0-0.2,0-0.2,0c-0.1,0.1-0.2,0.2-0.4,0.3c0,0.1-0.1,0.2-0.1,0.3
				C-105.6,324.1-105.6,324.1-105.6,324.2z M-102,321.8c0.1,0,0.2-0.1,0.3-0.1c0-0.1,0-0.2,0-0.3c-0.1,0-0.2,0.1-0.3,0.1
				C-102,321.6-102,321.7-102,321.8z M-100.2,319.3c0-0.1,0.1-0.2,0.1-0.2c0-0.1,0-0.2,0-0.3c-0.1,0-0.2-0.1-0.3-0.1
				c0,0.1-0.1,0.2-0.1,0.2c0,0.1,0,0.2,0,0.3c0.1,0,0.1,0.1,0.2,0.1C-100.3,319.4-100.2,319.4-100.2,319.3z M-100.2,317.5
				c0.1,0,0.3,0,0.4,0c0.1-0.1,0.2-0.1,0.2-0.2s0-0.2,0-0.3l-0.1-0.1c-0.1,0-0.2,0-0.2,0c-0.1,0.1-0.2,0.3-0.3,0.4
				C-100.2,317.4-100.2,317.5-100.2,317.5z M-98.3,317.8c0.1-0.1,0.3-0.2,0.4-0.3c0-0.1,0.1-0.1,0.1-0.2s0-0.2,0-0.3
				c-0.1,0-0.2,0.1-0.2,0.1C-98.1,317.3-98.2,317.5-98.3,317.8z M-97.7,314.6c-0.1,0.2-0.2,0.4-0.4,0.6c0,0.1,0,0.2,0,0.3
				c0.2-0.1,0.4-0.1,0.6-0.2c0.2-0.3,0.4-0.7,0.6-1c0-0.3,0-0.5,0.1-0.8c-0.1-0.1-0.2-0.2-0.2-0.3c-0.2,0-0.5,0-0.7,0
				C-97.7,313.7-97.7,314.1-97.7,314.6z M-95.3,309.7c-0.2,0.1-0.4,0.3-0.6,0.4c-0.1,0-0.2,0-0.3,0c-0.2,0.2-0.5,0.5-0.7,0.7
				c-0.1,0.1-0.3,0.2-0.4,0.2c0,0.1-0.1,0.1-0.1,0.2c0.1,0,0.1,0,0.2,0.1c0.1,0.2,0.2,0.5,0.4,0.7c0.2-0.1,0.4-0.1,0.6-0.2
				c0.2-0.5,0.5-1,0.7-1.5c0.4-0.2,0.7-0.5,1.1-0.7c0-0.2,0-0.4,0-0.6c-0.1-0.1-0.1-0.3-0.2-0.4s-0.2-0.2-0.3-0.2
				c-0.2,0-0.4,0-0.6,0c0,0.1,0,0.3-0.1,0.4c0.1,0.2,0.2,0.3,0.4,0.5C-95.3,309.4-95.3,309.5-95.3,309.7z M-95.7,313.7
				c0.1,0,0.2-0.1,0.3-0.1c0-0.1,0-0.2,0.1-0.3c-0.1,0-0.2,0-0.2-0.1c0,0.1-0.1,0.2-0.1,0.3C-95.7,313.6-95.7,313.6-95.7,313.7z
				 M-93,305c-0.3,0-0.6,0.1-0.9,0.1c-0.2,0.2-0.5,0.3-0.7,0.5c0,0.1,0,0.2,0,0.2c0.2,0,0.4-0.1,0.6-0.1c0.1,0.1,0.2,0.2,0.3,0.2
				c0.1,0.3,0.2,0.5,0.2,0.8c-0.2,0-0.4,0.1-0.6,0.1c0.1,0.4,0.2,0.7,0.2,1.1c0.1,0.2,0.2,0.3,0.2,0.5c0.1-0.1,0.1-0.1,0.2-0.2
				c0-0.1,0-0.1-0.1-0.2c0.1-0.2,0.2-0.5,0.2-0.7c-0.1-0.2-0.1-0.4-0.2-0.6c0.3-0.2,0.6-0.5,0.9-0.7c0,0,0-0.1,0.1-0.1h-0.1
				c0-0.1,0.1-0.3,0.1-0.4c-0.1,0-0.2,0-0.2,0C-92.7,305.3-92.9,305.2-93,305L-93,305z M-94.5,311.8c0.1,0,0.2-0.1,0.3-0.1
				c0-0.1,0-0.2,0-0.2c-0.1,0-0.2,0.1-0.3,0.1C-94.5,311.6-94.5,311.7-94.5,311.8z M-93.9,309.8c0.1,0,0.3,0,0.4,0
				c0.1-0.1,0.2-0.1,0.2-0.2s0-0.1,0.1-0.2c-0.2,0-0.3,0-0.5,0c-0.1,0.1-0.1,0.2-0.2,0.2C-93.9,309.7-93.9,309.8-93.9,309.8z
				 M-91.5,300.9c0.1,0,0.3,0.1,0.4,0.1c0.1,0.2,0.3,0.3,0.4,0.5c-0.1,0.1-0.2,0.3-0.2,0.4c-0.1,0-0.1,0-0.2,0c0,0,0,0.1-0.1,0.1
				c0.1,0.2,0.1,0.3,0.2,0.5c0,0.1-0.1,0.1-0.1,0.2c-0.2,0-0.3-0.1-0.5-0.1c-0.1-0.2-0.3-0.3-0.4-0.5c-0.1,0-0.2,0-0.4,0
				c-0.1,0-0.1-0.1-0.2-0.1c0-0.1,0-0.2-0.1-0.4c-0.2,0.1-0.5,0.3-0.7,0.4l-0.1-0.1c0.1,0.1,0.2,0.2,0.3,0.4c0.2,0,0.3,0,0.5,0
				c0.1,0.1,0.1,0.3,0.2,0.4c-0.2,0.2-0.5,0.5-0.7,0.7c0.1,0.1,0.1,0.3,0.2,0.4s0.2,0.1,0.4,0.2c0.1,0,0.2,0,0.2,0
				c0.1-0.1,0.3-0.3,0.4-0.4c0-0.1,0.1-0.2,0.1-0.3s0-0.1-0.1-0.2c-0.2,0-0.3-0.1-0.5-0.1c0-0.1,0-0.2,0-0.3c0.1,0,0.2-0.1,0.3-0.1
				c0.2,0.1,0.4,0.2,0.6,0.3c0.2-0.1,0.5-0.1,0.7-0.2c0.1-0.2,0.2-0.3,0.2-0.5c0-0.1,0-0.2-0.1-0.4c0.1,0,0.2,0,0.2-0.1
				c0.1-0.1,0.2-0.3,0.3-0.4c-0.1-0.1-0.2-0.3-0.3-0.4c0-0.2,0.1-0.4,0.1-0.5c-0.2-0.2-0.5-0.3-0.7-0.5c0-0.1-0.1-0.1-0.1-0.2
				c0-0.2,0.1-0.5,0.1-0.7l-0.1-0.1c-0.1,0-0.2,0.1-0.3,0.1c-0.1,0.1-0.1,0.3-0.2,0.4C-91.5,300.2-91.5,300.5-91.5,300.9z
				 M-93.2,301.2c0.1,0,0.2,0,0.2-0.1s0-0.2,0-0.3c-0.1,0-0.2,0-0.2,0.1C-93.2,301-93.2,301.1-93.2,301.2z M-91.6,297.6
				c-0.1,0-0.3,0.1-0.4,0.1c0,0.1,0.1,0.3,0.1,0.4c0,0.2-0.1,0.3-0.1,0.5c0,0.1,0,0.3,0.1,0.4s0.2,0.1,0.4,0.2
				c0.1-0.2,0.3-0.4,0.4-0.5c0.2,0,0.4-0.1,0.6-0.1c0,0.1,0.1,0.1,0.1,0.2s0,0.2-0.1,0.3s-0.2,0.1-0.2,0.2v0.1c0.1,0,0.2,0,0.3-0.1
				c0.2-0.2,0.3-0.4,0.5-0.6c0-0.1,0-0.1,0.1-0.2c-0.1-0.3-0.2-0.5-0.4-0.8c-0.1-0.1-0.2-0.2-0.3-0.2c0-0.3,0.1-0.6,0.1-1
				c-0.3,0-0.7,0.1-1,0.1c-0.1,0-0.1,0.1-0.2,0.1C-91.6,296.9-91.6,297.2-91.6,297.6C-91.6,297.5-91.6,297.6-91.6,297.6z
				 M-91.5,294.4c0.2,0,0.3,0,0.5,0c0.1-0.1,0.3-0.2,0.4-0.4c0.1-0.1,0.1-0.2,0.2-0.4c-0.1,0-0.3-0.1-0.4-0.1s-0.3,0.1-0.4,0.1
				c-0.1,0.2-0.2,0.4-0.2,0.6C-91.5,294.3-91.5,294.4-91.5,294.4z M-90.5,296c0.2,0,0.5,0.1,0.7,0.1c0.1,0.1,0.2,0.2,0.3,0.2
				c-0.1,0.2-0.1,0.4-0.2,0.5c0,0.2,0,0.3,0.1,0.5c0.1,0.1,0.3,0.2,0.4,0.3c0.1-0.1,0.1-0.2,0.2-0.3c-0.1-0.2-0.1-0.4-0.2-0.6
				c0-0.1,0-0.3,0.1-0.4s0.1-0.1,0.2-0.2c-0.1-0.1-0.1-0.1-0.2-0.2c0-0.3,0-0.6-0.1-0.9c-0.1,0-0.2,0-0.3-0.1
				c-0.2,0-0.3,0.1-0.5,0.1c-0.1,0.1-0.2,0.1-0.3,0.2c-0.1,0.2-0.2,0.3-0.2,0.5C-90.5,295.9-90.5,296-90.5,296z M-89.9,292.1
				c0-0.1,0.1-0.2,0.1-0.3l-0.1-0.1C-89.9,291.8-90,292-89.9,292.1C-90,292.1-90,292.1-89.9,292.1z M-89.5,294.7c0-0.1,0-0.2,0-0.2
				c-0.1-0.1-0.2-0.2-0.3-0.2c0,0.1,0,0.3-0.1,0.4c0.1,0,0.1,0.1,0.2,0.1C-89.6,294.7-89.5,294.7-89.5,294.7z M-88.1,291
				c0.1,0,0.2,0.1,0.3,0.1c0.1,0,0.3,0,0.4,0c0,0.1,0,0.1,0.1,0.2c0,0.1-0.1,0.2-0.1,0.3c-0.4,0.1-0.7,0.2-1.1,0.2
				c-0.1,0.2-0.2,0.5-0.3,0.7c-0.1,0.1-0.3,0.1-0.4,0.2c-0.2,0-0.3,0.1-0.5,0.1c0,0.3-0.1,0.6-0.1,1c0.1,0,0.1,0.1,0.2,0.1
				c0.2-0.1,0.5-0.1,0.7-0.2c0.1,0.3,0.2,0.5,0.3,0.8c0.1,0,0.2,0,0.3,0c0.3-0.2,0.6-0.3,0.9-0.5c0.1-0.1,0.2-0.3,0.3-0.4
				c0-0.1,0-0.2,0-0.3c-0.2,0-0.4,0.1-0.6,0.1c-0.1-0.2-0.1-0.4-0.2-0.6c-0.1-0.1-0.3-0.1-0.4-0.2c0-0.1,0-0.2-0.1-0.2
				c0.1-0.1,0.3-0.2,0.4-0.3c0.1,0.1,0.2,0.2,0.3,0.2h0.1c0.3-0.4,0.5-0.8,0.8-1.2c-0.1-0.1-0.1-0.3-0.2-0.4
				c0.1-0.3,0.3-0.6,0.4-0.9c-0.4,0.1-0.7,0.3-1.1,0.4C-87.8,290.6-87.9,290.8-88.1,291z M-87.2,287.8c0.1,0,0.1-0.1,0.2-0.1
				c0.2,0.1,0.4,0.2,0.6,0.4c0-0.1,0.1-0.2,0.1-0.3c-0.1-0.1-0.2-0.2-0.3-0.3c0-0.1,0-0.3,0-0.4c-0.1-0.1-0.2-0.2-0.3-0.3
				c-0.2,0-0.4,0.1-0.6,0.1c0,0.3,0.1,0.5,0.1,0.8C-87.2,287.7-87.2,287.8-87.2,287.8z M-86.2,273.8c0.1,0.1,0.2,0.1,0.3,0.2
				c0.1,0,0.2-0.1,0.3-0.1c0-0.1,0-0.2-0.1-0.3c-0.1,0-0.1-0.1-0.2-0.1c-0.1,0.1-0.2,0.1-0.3,0.2V273.8z M-86.2,286.2
				c0.1,0.1,0.2,0.2,0.3,0.3c0.2,0,0.4-0.1,0.6-0.1c0.1-0.3,0.1-0.6,0.2-1c-0.1,0-0.3,0-0.4,0c-0.1,0.1-0.3,0.3-0.4,0.4
				c0,0.1-0.1,0.2-0.1,0.3C-86.2,286.2-86.2,286.2-86.2,286.2z M-85.4,283.5c0-0.2,0-0.3-0.1-0.5c-0.1,0-0.1,0-0.2,0
				c0,0.2-0.1,0.3-0.1,0.5c0.1,0,0.1,0.1,0.2,0.1S-85.5,283.5-85.4,283.5z M-85.7,287.9c0.1,0,0.2,0,0.3-0.1c0-0.1,0-0.2,0-0.2
				c-0.1,0-0.2,0-0.3,0.1C-85.7,287.8-85.7,287.8-85.7,287.9z M-83.3,273.6c0.2,0,0.3-0.1,0.5-0.1c0-0.1,0.1-0.1,0.1-0.2
				c0,0,0-0.1-0.1-0.1s-0.2,0-0.3,0c-0.1,0.1-0.2,0.2-0.3,0.2C-83.2,273.5-83.2,273.5-83.3,273.6z M-82.9,276.8
				c0.1,0,0.3-0.1,0.4-0.1c0-0.1,0.1-0.1,0.1-0.2s0-0.2,0-0.3c-0.2,0-0.4,0.1-0.6,0.1C-82.9,276.5-82.9,276.7-82.9,276.8z
				 M-82.4,271.4c0.1,0,0.2,0,0.3,0c0.1-0.1,0.3-0.2,0.4-0.3c0-0.1,0-0.1-0.1-0.2c-0.1,0-0.2-0.1-0.3-0.1c-0.1,0.1-0.3,0.1-0.4,0.2
				C-82.4,271.2-82.4,271.3-82.4,271.4z M-80.8,276.7c0.1,0,0.2,0,0.3,0c0-0.1,0-0.2,0-0.3c-0.1,0-0.2,0-0.3,0
				C-80.8,276.5-80.8,276.6-80.8,276.7z"/>
			<path class="st0" d="M-64.8,282.7c-0.1,0.5-0.3,1-0.4,1.6c-0.1,0-0.1,0-0.2,0c-0.2,0.6-0.4,1.3-0.6,1.9c-0.2,0.5-0.4,0.9-0.6,1.4
				c0,0.1,0,0.2,0,0.2c-0.1,0.1-0.2,0.2-0.3,0.3c0,0.2-0.1,0.5-0.1,0.7c-0.1,0.2-0.2,0.4-0.3,0.6c-0.1,0.3-0.2,0.6-0.3,0.9h-0.1
				c-0.1,0.3-0.3,0.6-0.4,1c-0.1,0.1-0.1,0.1-0.2,0.2c0,0.1,0,0.2,0,0.3c0,0-0.1,0-0.1,0.1c0,0.1,0,0.2,0,0.2
				c-0.2,0.5-0.4,0.9-0.6,1.4c0,0.2,0,0.4-0.1,0.6c-0.1,0-0.1,0.1-0.2,0.1c-0.2,0.6-0.5,1.2-0.7,1.9c-0.1,0.2-0.3,0.4-0.4,0.6
				c0,0.1,0,0.2,0,0.3h-0.1c0,0.1,0,0.2,0,0.2c-0.1,0-0.1,0-0.2,0c-0.1,0.6-0.3,1.2-0.4,1.8c-0.2,0.6-0.4,1.2-0.6,1.9
				c-0.2,0.6-0.5,1.3-0.7,1.9c0,0.1-0.1,0.3-0.1,0.4c-0.1,0.1-0.3,0.3-0.4,0.4c0,0.1,0,0.3,0,0.4c-0.1,0.4-0.3,0.9-0.4,1.3h-0.1
				c-0.2,0.6-0.4,1.2-0.6,1.9c-0.1,0.4-0.1,0.8-0.2,1.1c0,0.3,0,0.7,0.1,1c0.2,0.2,0.5,0.5,0.7,0.7c0.1,0.1,0.3,0.2,0.4,0.3
				c0.3,0,0.6-0.1,0.9-0.1c0.3-0.1,0.6-0.2,1-0.3c0.5-0.3,1-0.6,1.5-1c0.4-0.4,0.7-0.8,1.1-1.2c0.1-0.1,0.3-0.1,0.4-0.2
				c0.2-0.2,0.5-0.5,0.7-0.7c0.4-0.5,0.8-1.1,1.2-1.6c0.4-0.6,0.8-1.1,1.2-1.7c0.3-0.4,0.7-0.8,1-1.2c0.1-0.1,0.1-0.3,0.2-0.4
				c0.1,0,0.2-0.1,0.3-0.1c0.2-0.4,0.4-0.8,0.6-1.1c0.3-0.4,0.7-0.9,1-1.3c0-0.1,0-0.2,0-0.2c0.1-0.3,0.3-0.6,0.4-0.9
				c0.3-0.4,0.7-0.8,1-1.3c0.2-0.1,0.3-0.1,0.5-0.2c0.2,0,0.4,0,0.6,0c0.2,0.1,0.3,0.1,0.5,0.2c0.3,0.3,0.7,0.7,1,1
				c0,0.2,0,0.3,0,0.5c0,0.1,0.1,0.2,0.1,0.2c0,0.3-0.1,0.6-0.1,0.9c-0.2,0.3-0.4,0.6-0.6,0.9c-0.2,0.4-0.3,0.7-0.5,1.1
				c-0.1,0.1-0.3,0.3-0.4,0.4c0,0.1,0,0.3-0.1,0.4s-0.2,0.3-0.3,0.4c-0.1,0-0.1,0-0.2,0.1c0,0.1,0,0.2,0,0.2
				c-0.2,0.2-0.4,0.4-0.6,0.6c0,0.1,0,0.2,0,0.3h-0.1c0,0.1-0.1,0.3-0.1,0.4c-0.1,0.1-0.3,0.2-0.4,0.3c0,0.1-0.1,0.3-0.1,0.4
				c-0.2,0.2-0.4,0.3-0.6,0.5c0,0.1-0.1,0.3-0.1,0.4c-0.1,0-0.2,0.1-0.3,0.1c0,0.1,0,0.2,0,0.2c-0.1,0.1-0.2,0.2-0.3,0.3
				c0,0.1-0.1,0.3-0.1,0.4c-0.2,0.2-0.4,0.3-0.6,0.5c0,0.1,0,0.1,0,0.2c-0.5,0.5-0.9,1-1.4,1.5s-1,1-1.5,1.5
				c-0.1,0.2-0.2,0.3-0.3,0.5c-0.1,0.1-0.3,0.1-0.4,0.2c-0.1,0.2-0.3,0.4-0.4,0.6c-0.1,0-0.1,0-0.2,0c-0.3,0.3-0.5,0.5-0.8,0.8
				c-0.4,0.3-0.8,0.6-1.3,0.9c-0.2,0.2-0.3,0.4-0.5,0.5c-0.1,0-0.2,0-0.3,0v0.1c-0.6,0.2-1.2,0.4-1.8,0.7c-0.3,0.2-0.6,0.3-0.9,0.5
				c-0.7,0.1-1.4,0.2-2,0.2c-0.5,0.1-1.1,0.2-1.6,0.3l-0.1-0.1c-0.1,0-0.3,0-0.4,0.1c-0.6-0.2-1.2-0.4-1.8-0.5
				c-0.1,0-0.1-0.1-0.2-0.1c-0.1-0.3-0.3-0.5-0.4-0.8c-0.1,0-0.2-0.1-0.3-0.1c0-0.1-0.1-0.2-0.1-0.2c0-0.2,0-0.4,0.1-0.6
				c-0.4-0.5-0.8-1-1.1-1.5c-0.1-0.6-0.1-1.2-0.2-1.8c0-0.7,0-1.4,0-2c0.1-0.6,0.3-1.3,0.4-1.9c0.1-0.3,0.1-0.6,0.2-1h0.1
				c0-0.3,0.1-0.7,0.1-1c0.5-1.3,0.9-2.6,1.4-3.9c0.2-0.3,0.3-0.7,0.5-1c0.1-0.3,0.2-0.6,0.3-0.9l0.1-0.1c0.1-0.3,0.1-0.7,0.2-1
				c0.1-0.3,0.2-0.6,0.3-0.9c0.1-0.2,0.2-0.3,0.3-0.5c0.1-0.3,0.1-0.6,0.2-0.9l0.1-0.1c0-0.1,0-0.3,0.1-0.4s0.1-0.1,0.2-0.2
				c0-0.1,0-0.3,0.1-0.4c0.1-0.3,0.3-0.6,0.4-0.9c0.1-0.1,0.2-0.2,0.3-0.3c0-0.1,0-0.2,0-0.4c0.2-0.6,0.4-1.3,0.6-1.9
				c0.3-0.6,0.5-1.3,0.8-1.9s0.6-1.2,0.9-1.8c0.2-0.6,0.5-1.1,0.7-1.7c0.1-0.1,0.2-0.2,0.3-0.3c0.1-0.3,0.1-0.5,0.2-0.8
				c0.1-0.2,0.2-0.4,0.3-0.6c0.2-0.3,0.4-0.5,0.6-0.8c0.2-0.1,0.5-0.3,0.7-0.4c1.5-0.1,3-0.3,4.5-0.4c0.3,0,0.6,0,0.9,0.1
				c0.3,0.2,0.5,0.5,0.8,0.7C-64.9,282.7-64.9,282.7-64.8,282.7z M-78.2,311.7c0.1,0,0.2,0.1,0.3,0.1c0.1-0.1,0.1-0.2,0.2-0.3
				c-0.1,0-0.2-0.1-0.3-0.1c0,0.1,0,0.1-0.1,0.2C-78.2,311.6-78.2,311.6-78.2,311.7z M-76.6,304.8c-0.1,0.1-0.3,0.2-0.4,0.3l0.1,0.1
				c0.1,0,0.2-0.1,0.3-0.1C-76.6,305-76.5,305-76.6,304.8C-76.6,304.9-76.6,304.8-76.6,304.8z M-77.1,309.7c0.1-0.1,0.3-0.2,0.4-0.2
				c0.1-0.2,0.2-0.3,0.3-0.5c0-0.2,0-0.3,0-0.5c-0.1,0.1-0.3,0.2-0.4,0.2c-0.1,0.3-0.1,0.6-0.2,0.8C-77,309.7-77,309.7-77.1,309.7z
				 M-76.9,312.8c0.1,0,0.3,0,0.4,0.1c0-0.1,0-0.2-0.1-0.2s-0.2-0.1-0.3-0.1C-76.8,312.7-76.9,312.7-76.9,312.8z M-76.5,307.4
				c0-0.1,0.1-0.2,0.1-0.3s-0.1-0.3-0.1-0.4c0.1-0.1,0.2-0.2,0.3-0.4v-0.1c-0.1,0-0.3,0-0.4,0.1c0,0.3-0.1,0.6-0.1,0.9
				C-76.7,307.3-76.6,307.3-76.5,307.4L-76.5,307.4z M-76.5,303.1c0.1,0,0.3,0,0.4-0.1c0.2-0.3,0.5-0.5,0.7-0.8
				c-0.1-0.1-0.3-0.1-0.4-0.2c-0.1,0.1-0.3,0.2-0.4,0.2c-0.1,0.2-0.2,0.4-0.3,0.6C-76.5,303-76.5,303-76.5,303.1z M-74.8,300.2
				c0-0.1,0-0.2-0.1-0.3c-0.1,0-0.1-0.1-0.2-0.1c-0.1,0.1-0.1,0.2-0.2,0.3c0.1,0,0.2,0.1,0.3,0.1C-74.9,300.2-74.8,300.2-74.8,300.2
				z M-74.6,294.3c0,0.1,0,0.2,0,0.2c0.1,0.1,0.1,0.1,0.2,0.2c0.1,0,0.2,0,0.3,0c0-0.1,0.1-0.3,0.1-0.4l-0.1-0.1
				c-0.1,0-0.2,0.1-0.3,0.1C-74.6,294.2-74.6,294.3-74.6,294.3z M-74.5,303.9c0.1-0.1,0.3-0.1,0.4-0.2c0-0.1,0-0.2,0.1-0.3
				c-0.1-0.1-0.1-0.2-0.2-0.3h-0.1c-0.1,0.2-0.2,0.4-0.3,0.6C-74.5,303.9-74.5,303.9-74.5,303.9z M-73.9,295.6c0-0.1,0-0.2,0-0.2
				c-0.1-0.1-0.2-0.2-0.3-0.3h-0.1c0,0.1,0,0.3-0.1,0.4c0.1,0,0.2,0.1,0.3,0.1C-74,295.6-73.9,295.6-73.9,295.6z M-73.8,298.4
				c0.1,0.1,0.2,0.2,0.3,0.3c0.1,0,0.1,0,0.2,0c0.1-0.1,0.2-0.2,0.3-0.3c0.1-0.3,0.2-0.6,0.3-1c0-0.2-0.1-0.3-0.1-0.5
				c-0.1,0-0.3,0-0.4,0c-0.1,0.4-0.3,0.8-0.4,1.2C-73.8,298.3-73.8,298.3-73.8,298.4z M-72.6,289.9c-0.1,0.2-0.2,0.3-0.3,0.5
				c-0.2,0.2-0.5,0.4-0.7,0.6c0.2,0.2,0.4,0.4,0.6,0.6c0.4-0.1,0.7-0.2,1.1-0.3c0.3,0,0.6,0.1,0.8,0.1c0.1-0.1,0.2-0.2,0.3-0.3
				c0.1,0,0.2,0,0.3,0c0,0.3-0.1,0.5-0.1,0.8c0,0.1,0.1,0.2,0.1,0.3c0.1-0.1,0.3-0.2,0.4-0.3c0.1-0.3,0.1-0.6,0.2-0.9
				c-0.1-0.5-0.1-0.9-0.2-1.4c-0.2,0-0.3-0.1-0.5-0.1c-0.2-0.3-0.5-0.6-0.7-0.9c-0.5,0-0.9,0-1.4,0c0.1,0.3,0.1,0.6,0.2,0.9
				c0,0,0,0.1-0.1,0.1C-72.6,289.8-72.6,289.9-72.6,289.9z M-73.4,296.2c0.2,0,0.4,0,0.6-0.1c0-0.1,0-0.2,0-0.3
				c-0.1,0-0.2-0.1-0.3-0.1c-0.1,0.1-0.1,0.2-0.2,0.3C-73.4,296.2-73.4,296.2-73.4,296.2z M-73.1,292.4c0,0.3,0,0.5-0.1,0.8
				c0,0.1,0.1,0.2,0.1,0.2c0.2,0,0.3,0.1,0.5,0.1c0.1-0.2,0.1-0.5,0.2-0.7c0.2-0.1,0.4-0.2,0.6-0.2c0,0.1-0.1,0.1-0.1,0.2
				c0,0.2,0.1,0.4,0.1,0.5c0.2-0.1,0.3-0.1,0.5-0.2c0.1-0.1,0.2-0.2,0.3-0.3c-0.1-0.1-0.2-0.2-0.3-0.3c0-0.2,0.1-0.4,0.1-0.6
				c-0.4,0-0.7,0-1.1,0c-0.3,0.1-0.6,0.2-0.8,0.3C-73,292.4-73,292.4-73.1,292.4z M-73.1,290.9c0.1-0.1,0.2-0.1,0.3-0.2
				c0.1,0.1,0.1,0.1,0.2,0.2c0,0,0,0.1-0.1,0.1s-0.3,0-0.4,0C-73.1,290.9-73.1,290.9-73.1,290.9z M-72.7,294.6
				c0,0.1,0.1,0.3,0.1,0.4c0.2-0.1,0.4-0.1,0.6-0.2c0-0.1,0-0.3,0-0.4c-0.1,0-0.2,0-0.3,0C-72.4,294.4-72.5,294.5-72.7,294.6
				L-72.7,294.6z M-71.5,289.4c0,0.2,0.1,0.4,0.1,0.5c-0.1,0.1-0.2,0.3-0.3,0.4c-0.2,0.1-0.4,0.2-0.6,0.3c0-0.1,0-0.2,0-0.2
				c0.1-0.2,0.2-0.4,0.3-0.6c0-0.1,0-0.1-0.1-0.2c0.1-0.1,0.3-0.2,0.4-0.2C-71.5,289.4-71.5,289.4-71.5,289.4z M-70,286.3
				c-0.2,0.4-0.5,0.8-0.7,1.2c-0.1,0.1-0.2,0.1-0.3,0.2c-0.1,0-0.2,0-0.3,0c-0.1-0.1-0.2-0.2-0.3-0.3c-0.1,0-0.3,0-0.4,0
				c0,0.1,0,0.2,0.1,0.4c0.1,0,0.2,0,0.3,0c0.1,0.1,0.1,0.1,0.2,0.2c0.1,0,0.3,0.1,0.4,0.1c0.1-0.1,0.3-0.1,0.4-0.2
				c0.3,0.2,0.5,0.4,0.8,0.6c0.1,0,0.3,0.1,0.4,0.1c0-0.1,0-0.2,0.1-0.3c-0.1-0.2-0.2-0.4-0.3-0.6c0.1,0,0.1-0.1,0.2-0.1
				c0.1,0.2,0.3,0.3,0.4,0.5c0.3-0.2,0.5-0.4,0.8-0.6c0-0.2,0-0.3-0.1-0.5c0.1-0.2,0.2-0.3,0.3-0.5c-0.1,0-0.1-0.1-0.2-0.1
				c-0.2,0.1-0.3,0.1-0.5,0.2c-0.1-0.1-0.2-0.1-0.3-0.2c-0.3-0.2-0.6-0.5-0.8-0.7C-70,286-70,286.2-70,286.3z M-71.6,285.4
				c0.2,0,0.5,0,0.7-0.1c0-0.2,0-0.4,0-0.6c-0.1,0-0.2,0-0.3,0c-0.1,0.2-0.3,0.3-0.4,0.5C-71.6,285.3-71.6,285.3-71.6,285.4z
				 M-71.6,286.9c0.1,0,0.3,0,0.4,0c0-0.1,0-0.2-0.1-0.2s-0.3,0-0.4,0C-71.6,286.7-71.6,286.8-71.6,286.9z M-70.7,289.9
				c0.1,0.1,0.2,0.1,0.3,0.2c0,0.1,0,0.2,0,0.4c-0.1,0.1-0.2,0.2-0.3,0.3c0-0.2,0-0.5,0.1-0.7C-70.7,290-70.7,289.9-70.7,289.9z
				 M-70,289.7c0.1,0,0.3-0.1,0.4-0.1c0-0.1,0.1-0.1,0.1-0.2c-0.1,0-0.3-0.1-0.4-0.1c0,0.1-0.1,0.1-0.1,0.2S-70,289.6-70,289.7z
				 M-60.6,275.2c-0.1,0-0.1,0-0.2,0.1c0,0.2,0,0.3-0.1,0.5c-0.1,0.1-0.3,0.3-0.4,0.4c0,0.1-0.1,0.3-0.1,0.4
				c-0.2,0.1-0.3,0.2-0.5,0.3c-0.1,0-0.2,0-0.3,0.1c-0.1,0.1-0.3,0.3-0.4,0.4c-0.6,0.3-1.1,0.6-1.7,0.9c-0.7-0.1-1.5-0.2-2.2-0.2
				c-0.3,0-0.5,0-0.8-0.1c-0.3-0.2-0.6-0.5-1-0.7c0-0.1,0-0.2,0-0.2c-0.1-0.1-0.3-0.2-0.4-0.3c-0.2-0.5-0.4-1-0.6-1.5l-0.1-0.1
				c0-0.3-0.1-0.6-0.1-0.9c0.1-0.4,0.1-0.7,0.2-1.1c0.2-0.3,0.3-0.7,0.5-1c0.1-0.1,0.3-0.2,0.4-0.3c0.2-0.3,0.4-0.7,0.6-1
				c0.1-0.1,0.2-0.2,0.3-0.3c0.5-0.2,1-0.4,1.5-0.6c0.6,0,1.1-0.1,1.7-0.1c0.3,0.1,0.7,0.1,1,0.2s0.6,0.3,0.9,0.4
				c0.4,0.3,0.7,0.6,1.1,0.9c0,0.1,0.1,0.2,0.1,0.4c0.1,0.1,0.3,0.2,0.4,0.4c0.1,0.2,0.1,0.5,0.2,0.7c0,0.7,0,1.4,0.1,2.2
				C-60.6,275.1-60.6,275.2-60.6,275.2z M-68.7,285.1c0.1,0.1,0.3,0.1,0.4,0.2c0-0.1,0.1-0.2,0.1-0.3c-0.3-0.1-0.5-0.3-0.8-0.4
				c0-0.1,0-0.2-0.1-0.2s-0.1,0-0.2,0c0,0.1,0,0.2,0,0.3C-69,284.8-68.9,285-68.7,285.1z M-68.4,285.6c-0.1,0-0.3-0.1-0.4-0.1
				c0,0.1,0,0.2-0.1,0.3c0.1,0,0.1,0.1,0.2,0.1s0.2-0.1,0.3-0.1C-68.4,285.7-68.4,285.7-68.4,285.6z M-64.4,273.4
				c0,0.2,0.1,0.4,0.1,0.6c0,0.1,0,0.3-0.1,0.4c-0.1,0.1-0.2,0.1-0.3,0.2c0.1,0.3,0.3,0.6,0.4,0.8c0,0.1,0,0.2-0.1,0.3
				c0.1,0,0.2,0,0.3,0c0.1-0.1,0.1-0.3,0.2-0.4c0-0.4,0.1-0.8,0.1-1.2c0.3-0.1,0.5-0.1,0.8-0.2c0-0.1,0-0.2,0.1-0.3
				c-0.1-0.1-0.2-0.2-0.3-0.3c-0.3,0-0.7,0.1-1,0.1C-64.3,273.4-64.3,273.4-64.4,273.4z"/>
			<path class="st0" d="M-40.2,310.8c0.1,0,0.2,0.1,0.3,0.1c0.5-0.1,1-0.1,1.5-0.2v-0.1c0.1,0,0.2,0,0.3,0v-0.1c0.1,0,0.2,0,0.3,0
				v-0.1c0.1,0,0.2,0,0.3,0c0-0.1,0-0.1,0-0.2c0.1,0,0.2,0,0.3,0c0.3-0.2,0.5-0.4,0.8-0.6c0.1,0,0.2,0,0.3,0
				c0.3-0.1,0.5-0.3,0.8-0.4c0.3-0.3,0.7-0.6,1-0.9c0.1-0.2,0.2-0.3,0.3-0.5c0.4-0.3,0.8-0.7,1.2-1c0-0.1,0-0.2,0.1-0.4
				c0.3-0.2,0.5-0.4,0.8-0.6c0.1-0.2,0.2-0.5,0.3-0.7c0.4-0.3,0.7-0.6,1.1-0.9c0-0.1,0-0.1,0-0.2c0.4-0.4,0.8-0.8,1.2-1.2
				c0.1,0,0.2-0.1,0.3-0.1c0-0.1,0-0.2,0.1-0.4c0.3-0.5,0.7-1,1-1.5c0.1,0,0.1-0.1,0.2-0.1c0.1-0.2,0.1-0.3,0.2-0.5
				c0.2-0.2,0.4-0.3,0.6-0.5c0.3,0.1,0.5,0.1,0.8,0.2c0.3,0.2,0.6,0.4,0.9,0.6c0.1,0.1,0.2,0.2,0.3,0.4c0.1,0,0.3,0.1,0.4,0.1
				c0.1,0.4,0.3,0.8,0.4,1.2c-0.1,0.2-0.2,0.5-0.3,0.7c-0.4,0.5-0.8,1.1-1.1,1.6c-0.2,0.3-0.3,0.5-0.5,0.8c-0.4,0.5-0.8,0.9-1.2,1.4
				c-0.4,0.4-0.7,0.9-1.1,1.3c-0.1,0.2-0.2,0.4-0.3,0.6c-0.1,0-0.2,0-0.3,0.1c-0.1,0.2-0.2,0.4-0.3,0.6c-0.1,0.1-0.3,0.1-0.4,0.2
				c-0.1,0.1-0.1,0.3-0.2,0.4c-0.4,0.4-0.9,0.8-1.3,1.2c-0.5,0.4-0.9,0.8-1.4,1.2c-0.2,0.1-0.3,0.1-0.5,0.2
				c-0.2,0.2-0.4,0.4-0.6,0.6c-0.1,0-0.2,0-0.3,0c-0.1,0.1-0.2,0.3-0.3,0.4c-0.1,0-0.2,0-0.3,0v0.1c-0.6,0.3-1.1,0.5-1.7,0.8
				c-0.1,0.1-0.3,0.2-0.4,0.3c-0.1,0-0.3,0-0.4,0c0,0,0,0.1-0.1,0.1c-0.5,0.1-1,0.1-1.5,0.2c-0.3,0.1-0.6,0.3-1,0.4
				c-0.3,0-0.6,0-0.8,0c-0.8-0.1-1.5-0.2-2.3-0.2c-0.6-0.2-1.1-0.3-1.7-0.5c-0.2-0.1-0.4-0.2-0.6-0.3c-0.5-0.5-1-1-1.5-1.4
				c-0.3-0.5-0.7-1-1-1.4c-0.1-0.6-0.2-1.2-0.3-1.8c0-0.7-0.1-1.5-0.1-2.2c0.1-0.7,0.2-1.3,0.3-2c0.2-0.7,0.3-1.3,0.5-2
				c0.1-0.6,0.3-1.1,0.4-1.7c0.1,0,0.1-0.1,0.2-0.1c0-0.1,0-0.2,0.1-0.4c0.1-0.1,0.1-0.1,0.2-0.2c0-0.1,0-0.3,0-0.4
				c0.1-0.2,0.3-0.4,0.4-0.5c0-0.1,0-0.2,0.1-0.3c0.1,0,0.1-0.1,0.2-0.1c0-0.1,0-0.2,0-0.3c0.1,0,0.1,0,0.2,0c0.2-0.5,0.3-1,0.5-1.5
				c0.1-0.4,0.2-0.7,0.3-1.1c0.1,0,0.1,0,0.2,0c0-0.1,0-0.2,0-0.2c0.1-0.1,0.2-0.2,0.3-0.2c0.3-0.6,0.6-1.3,0.8-1.9
				c0.2-0.6,0.4-1.2,0.6-1.7c0.1-0.3,0.2-0.6,0.3-0.8h0.1c0.2-0.6,0.3-1.2,0.5-1.7c0-0.5,0.1-1.1,0.1-1.6c-0.2-0.2-0.3-0.4-0.5-0.7
				c-0.1-0.1-0.3-0.2-0.4-0.3c-0.2-0.1-0.5-0.2-0.7-0.3c-0.7,0.1-1.4,0.2-2.2,0.4c-0.6,0.3-1.2,0.6-1.8,0.9
				c-0.4,0.3-0.7,0.5-1.1,0.8c-0.1,0-0.1,0-0.2,0c-0.5,0.5-1,0.9-1.5,1.4c-0.2,0.2-0.5,0.5-0.7,0.7c-0.1,0.3-0.3,0.6-0.4,0.9
				c0,0.2-0.1,0.5-0.1,0.7c-0.1,0.2-0.2,0.4-0.3,0.7h-0.1c-0.1,0.3-0.2,0.7-0.3,1c-0.1,0.2-0.3,0.5-0.4,0.7
				c-0.1,0.3-0.1,0.5-0.2,0.8c-0.3,0.6-0.5,1.2-0.8,1.8s-0.5,1.2-0.8,1.8c-0.3,0.6-0.5,1.2-0.8,1.8c-0.1,0.1-0.1,0.1-0.2,0.2
				c0,0.1,0,0.2-0.1,0.4c-0.1,0.2-0.2,0.3-0.3,0.5c-0.2,0.6-0.4,1.3-0.6,1.9c-0.1,0.3-0.3,0.6-0.4,0.9c0,0.2-0.1,0.5-0.1,0.7
				c-0.3,0.6-0.6,1.2-1,1.7c-0.2,0.6-0.4,1.3-0.6,1.9c0,0.1-0.1,0.3-0.1,0.4c0,0-0.1,0-0.1,0.1c0,0.1,0,0.2,0,0.2
				c-0.3,0.6-0.6,1.1-0.9,1.7c-0.2,0.3-0.5,0.5-0.7,0.8c-0.6,0.1-1.2,0.2-1.9,0.4c-0.3,0.1-0.7,0.1-1,0.2c-0.3,0-0.7-0.1-1-0.1
				c-0.1-0.1-0.3-0.2-0.4-0.2c-0.7,0-1.3,0-2-0.1c-0.1,0-0.1-0.1-0.2-0.1c0-0.3-0.1-0.7-0.1-1c0-0.3,0.1-0.7,0.1-1
				c0.2-0.6,0.4-1.2,0.6-1.8c0.2-0.5,0.5-1,0.7-1.5c0.3-0.6,0.6-1.2,0.9-1.9c0.2-0.6,0.5-1.3,0.7-1.9c0.1-0.2,0.2-0.3,0.3-0.5
				c0.1-0.3,0.1-0.7,0.2-1c0.2-0.6,0.4-1.2,0.6-1.8c0.1-0.1,0.1-0.1,0.2-0.2c0.2-0.6,0.5-1.1,0.7-1.7s0.4-1.1,0.6-1.7
				c0.2-0.3,0.3-0.5,0.5-0.8c0.3-0.6,0.5-1.3,0.8-1.9s0.5-1.2,0.8-1.8c0.3-0.6,0.5-1.2,0.8-1.9c0.2-0.6,0.5-1.2,0.7-1.8
				c0.1-0.1,0.1-0.2,0.2-0.2c0-0.1,0-0.3,0.1-0.4c0.1-0.3,0.3-0.5,0.4-0.8c0-0.2,0.1-0.5,0.1-0.7c0.3-0.6,0.5-1.2,0.8-1.9
				c0.3-0.6,0.6-1.2,0.8-1.8c0.1-0.3,0.3-0.6,0.4-0.9c0.1-0.1,0.2-0.3,0.3-0.4c0.2-0.1,0.4-0.3,0.6-0.4c0.2,0,0.4,0,0.6,0.1
				c0.6,0.3,1.2,0.5,1.8,0.8c0.1,0.1,0.3,0.2,0.4,0.3c0.1,0,0.1,0,0.2,0c0.1,0.1,0.1,0.1,0.2,0.2c0.1,0,0.3,0.1,0.4,0.1v0.1
				c0.3,0.2,0.6,0.4,0.9,0.6c0.3,0.1,0.6,0.2,0.9,0.4c0.2,0,0.4,0,0.6,0c0.3-0.1,0.6-0.2,1-0.3c0.6-0.4,1.1-0.7,1.7-1.1
				c0.3-0.1,0.6-0.2,0.8-0.3c0.1-0.1,0.3-0.2,0.4-0.3c0.1,0,0.2,0,0.3,0v-0.1c0.1,0,0.2,0,0.3,0c0-0.1,0-0.1,0-0.2
				c0.4-0.1,0.9-0.2,1.3-0.2c0.1,0,0.3,0,0.4,0c0.3-0.1,0.6-0.1,0.8-0.2c0.6,0,1.3-0.1,1.9-0.1c0.7,0.1,1.5,0.3,2.2,0.4
				c0.3,0.2,0.5,0.3,0.8,0.5c0.3,0.2,0.5,0.4,0.8,0.7s0.5,0.6,0.8,0.9c0.1,0.1,0.2,0.1,0.3,0.2c0.1,0.3,0.2,0.6,0.3,1
				c0.1,0.3,0.3,0.5,0.4,0.8c0.1,0.4,0.2,0.7,0.3,1.1c0,0.3,0,0.6,0,0.9c-0.1,0.6-0.3,1.3-0.4,1.9c-0.2,0.6-0.4,1.3-0.6,1.9
				c-0.2,0.5-0.5,1.1-0.7,1.6c-0.1,0.4-0.3,0.7-0.4,1.1c-0.1,0.1-0.2,0.2-0.3,0.3c0,0.2-0.1,0.3-0.1,0.5c-0.1,0.1-0.1,0.1-0.2,0.2
				c-0.2,0.6-0.4,1.1-0.6,1.7c0,0.1,0,0.2-0.1,0.2c-0.1,0.1-0.2,0.2-0.3,0.3c0,0.2-0.1,0.5-0.1,0.7c-0.3,0.5-0.6,1-0.9,1.5
				c-0.2,0.4-0.3,0.9-0.5,1.3c-0.2,0.5-0.4,0.9-0.6,1.4c-0.1,0.1-0.2,0.2-0.3,0.3c-0.1,0.4-0.3,0.8-0.4,1.1
				c-0.2,0.6-0.4,1.2-0.6,1.9c-0.1,0.4-0.1,0.8-0.2,1.2h-0.1c0,0.3,0,0.7-0.1,1c0.1,0.6,0.1,1.1,0.2,1.7c0.2,0.2,0.3,0.3,0.5,0.5
				C-40.2,310.7-40.2,310.8-40.2,310.8z M-56.5,298c0-0.2,0-0.3-0.1-0.5c-0.1,0-0.1,0-0.2-0.1c0,0.1-0.1,0.3-0.1,0.4
				c0.1,0,0.1,0.1,0.2,0.1C-56.7,298-56.6,298-56.5,298z M-54.8,289.1c0.1,0,0.2,0,0.3,0c0.1,0,0.1-0.1,0.2-0.1c0-0.1,0-0.3,0-0.4
				c-0.1,0-0.1-0.1-0.2-0.1c-0.1,0.2-0.2,0.3-0.3,0.5V289.1z M-53.8,291c0,0.1,0,0.2,0.1,0.3c0.1,0.1,0.3,0.2,0.4,0.3
				c0.2,0,0.3,0,0.5,0c0.1,0,0.1-0.1,0.2-0.1c0-0.1,0-0.2,0-0.3c-0.1-0.2-0.2-0.3-0.3-0.5c-0.3,0-0.5,0-0.8,0c0,0.1-0.1,0.1-0.1,0.2
				C-53.8,290.9-53.8,290.9-53.8,291z M-52.8,289.2c0-0.1,0.1-0.3,0.1-0.4c0-0.1-0.1-0.2-0.1-0.3c-0.1,0-0.2,0-0.3,0
				c0,0.1-0.1,0.3-0.1,0.4c0,0.1,0.1,0.2,0.1,0.3C-53,289.2-52.9,289.2-52.8,289.2z M-52.3,288.1C-52.3,288.1-52.3,288-52.3,288.1
				c0.1,0,0.1,0.1,0.1,0.2c-0.1,0.1-0.2,0.2-0.3,0.3c0.1,0.1,0.2,0.2,0.3,0.3c0.4-0.3,0.8-0.5,1.2-0.8c0-0.1,0.1-0.1,0.1-0.2
				c0-0.1,0-0.3-0.1-0.4c-0.1,0-0.1,0-0.2-0.1c-0.1,0.2-0.3,0.4-0.4,0.5c-0.1,0-0.2,0.1-0.3,0.1c-0.3-0.2-0.6-0.4-1-0.5
				c0,0.1,0,0.3,0,0.4c0.1,0,0.2,0.1,0.3,0.1C-52.4,288.1-52.4,288.1-52.3,288.1z M-44.2,304.9c0.2,0.1,0.3,0.3,0.5,0.4
				c0.1,0,0.2,0,0.3,0c0-0.1,0-0.2,0-0.3c-0.1-0.1-0.3-0.2-0.4-0.3c-0.1,0-0.2,0-0.3,0L-44.2,304.9L-44.2,304.9z M-43.3,301.9
				c-0.1,0-0.3,0.1-0.4,0.1c0,0.1-0.1,0.2-0.1,0.2c0.1,0,0.1,0.1,0.2,0.1c0.3,0,0.6,0.1,0.8,0.1c0-0.1,0-0.2-0.1-0.3
				c0.1-0.3,0.3-0.6,0.4-1c-0.2,0-0.3,0.1-0.5,0.1c-0.1,0.1-0.2,0.3-0.3,0.4C-43.3,301.8-43.3,301.9-43.3,301.9z M-43.8,304.2
				c0.1,0,0.2,0.1,0.3,0.1s0.2-0.1,0.3-0.1v-0.1c-0.1,0-0.1-0.1-0.2-0.1c-0.1,0-0.2,0.1-0.3,0.1S-43.8,304.2-43.8,304.2z
				 M-43.8,306.3c0.1,0.1,0.1,0.3,0.2,0.4c0.2,0,0.5,0.1,0.7,0.1c-0.1-0.2-0.2-0.3-0.3-0.5c-0.1,0-0.3-0.1-0.4-0.1
				C-43.7,306.3-43.8,306.3-43.8,306.3z M-42.7,300.8c0.1-0.1,0.1-0.3,0.2-0.4c0-0.1,0-0.2,0-0.3c-0.1,0-0.2,0-0.3,0
				c-0.1,0.1-0.1,0.1-0.2,0.2c0,0.2,0.1,0.3,0.1,0.5C-42.8,300.8-42.7,300.8-42.7,300.8z M-42.2,297.1c0-0.1,0-0.2,0-0.2
				c-0.1-0.1-0.1-0.1-0.2-0.2c-0.1,0-0.2,0-0.3,0c0,0.1,0,0.2,0.1,0.3s0.2,0.1,0.3,0.2C-42.3,297.1-42.3,297.1-42.2,297.1z
				 M-42.4,298.5c-0.1,0.2-0.2,0.4-0.3,0.6c0.1,0.2,0.1,0.3,0.2,0.5c0.1,0,0.3,0,0.4,0c0,0,0-0.1,0.1-0.1s0.3,0,0.4,0
				c0.1,0.2,0.3,0.4,0.4,0.6c-0.1,0.1-0.2,0.2-0.3,0.3c0,0.1,0,0.1,0,0.2c0.3,0.1,0.6,0.2,1,0.2c0.1-0.2,0.1-0.4,0.2-0.7
				c-0.2-0.3-0.5-0.6-0.7-0.8c-0.1,0-0.1-0.1-0.2-0.1c0-0.1,0-0.2,0-0.3c0.1,0,0.1-0.1,0.2-0.1c0.2,0,0.3,0,0.5,0c0-0.1,0-0.2,0-0.2
				c-0.3,0-0.7,0-1,0.1c-0.2,0-0.5-0.1-0.7-0.1C-42.3,298.5-42.3,298.5-42.4,298.5z M-42.2,302c0,0.1,0,0.2,0,0.2
				c0.1,0.1,0.3,0.2,0.4,0.2c0.1,0,0.2,0,0.3,0c0-0.1,0-0.2,0-0.3c-0.1-0.1-0.2-0.2-0.3-0.3C-41.9,301.8-42,301.9-42.2,302
				C-42.2,302-42.2,302-42.2,302z M-40.6,294.7c-0.1,0-0.2-0.1-0.3-0.1s-0.3,0.1-0.4,0.1v0.1c0.5,0.2,1,0.4,1.5,0.7
				c0.1,0.1,0.2,0.2,0.3,0.3c-0.1,0.1-0.3,0.1-0.4,0.2c-0.2-0.1-0.3-0.2-0.5-0.2c-0.4,0.3-0.9,0.6-1.3,0.8c0,0.1,0,0.1,0,0.2
				c0.1,0,0.1,0.1,0.2,0.1c0.2-0.1,0.5-0.1,0.7-0.2c0.2,0.1,0.3,0.2,0.5,0.3c0,0.1,0,0.2,0,0.3c-0.3,0.1-0.6,0.1-0.8,0.2
				c0,0.1,0,0.2,0,0.3c0.2,0,0.4,0.1,0.6,0.1c0.2-0.2,0.4-0.4,0.6-0.6c0.2-0.2,0.3-0.5,0.5-0.7c0.1,0,0.2,0,0.3,0
				c0.1,0.2,0.3,0.4,0.4,0.6c0.1,0,0.1,0,0.2,0c-0.1-0.2-0.2-0.5-0.3-0.7c0.1-0.2,0.2-0.3,0.3-0.5c-0.2-0.2-0.3-0.4-0.5-0.6
				c0-0.4-0.1-0.8-0.1-1.1c-0.3-0.1-0.6-0.2-1-0.2c0,0.2,0,0.3-0.1,0.5c0,0.1-0.1,0.1-0.1,0.2C-40.6,294.7-40.6,294.7-40.6,294.7z
				 M-41.3,292.7c0.1,0,0.2,0,0.3,0c0-0.1,0-0.2,0-0.2c-0.1,0-0.2,0-0.3,0C-41.3,292.5-41.3,292.6-41.3,292.7z M-39.1,291.8
				c-0.1,0-0.2,0-0.3,0c-0.1,0.1-0.3,0.3-0.4,0.4c0,0.2,0,0.4,0,0.6l-0.1,0.1c-0.2-0.1-0.4-0.1-0.6-0.2c-0.1,0-0.2,0.1-0.3,0.1
				c0,0.1,0,0.3,0,0.4c0.1,0.1,0.2,0.1,0.3,0.2c0.1,0,0.3,0,0.4-0.1c0.1,0.1,0.2,0.2,0.3,0.3c0.1,0,0.3,0,0.4,0.1
				c0.1-0.3,0.3-0.5,0.4-0.8c0.3-0.1,0.6-0.1,1-0.2c0-0.1,0-0.2-0.1-0.3c-0.1-0.2-0.3-0.3-0.4-0.5c-0.1-0.1-0.3-0.1-0.4-0.2
				C-38.9,291.7-38.9,291.7-39.1,291.8C-39,291.8-39,291.8-39.1,291.8z M-39.1,287.5c0.1,0.1,0.3,0.2,0.4,0.3
				c0.1,0.2,0.1,0.3,0.2,0.5c0,0.1-0.1,0.2-0.1,0.3c0.1,0.3,0.2,0.6,0.3,0.8c-0.4,0.4-0.8,0.8-1.1,1.2c-0.1-0.3-0.2-0.6-0.3-0.9
				c-0.1,0-0.2,0-0.3,0c-0.1,0.1-0.3,0.2-0.4,0.3c0,0.1,0,0.2,0.1,0.3c0.2,0.2,0.5,0.5,0.7,0.7c0,0.1,0,0.3,0,0.4
				c0.4-0.1,0.8-0.3,1.3-0.4c0-0.1,0-0.2,0-0.2c0.1-0.1,0.2-0.2,0.3-0.3c0.2,0,0.4-0.1,0.6-0.1c0,0.1,0.1,0.2,0.1,0.3
				c-0.2,0.3-0.4,0.5-0.6,0.8c0,0.2,0,0.4,0.1,0.6c0.1,0.1,0.1,0.3,0.2,0.4c0.2,0,0.4,0,0.6,0c0.1,0,0.3-0.1,0.4-0.1
				c0-0.2,0-0.4,0-0.6c0.1-0.2,0.3-0.4,0.4-0.6c-0.2,0-0.3-0.1-0.5-0.1c0-0.3,0-0.6,0.1-0.9c-0.2-0.1-0.4-0.3-0.6-0.4
				c0-0.2-0.1-0.4-0.1-0.6c-0.1-0.3-0.3-0.6-0.4-0.9c-0.1-0.1-0.3-0.2-0.4-0.3c-0.1-0.2-0.1-0.3-0.2-0.5c0.1,0,0.2-0.1,0.3-0.1
				c0,0.1,0.1,0.1,0.1,0.2c0.1,0,0.2,0.1,0.3,0.1c-0.1-0.2-0.1-0.3-0.2-0.5c-0.2-0.1-0.4-0.2-0.6-0.3
				C-38.8,286.9-38.9,287.2-39.1,287.5z M-40.3,284.8c0.1,0,0.2,0,0.3,0c0.1-0.1,0.2-0.2,0.3-0.3c0-0.1,0-0.2,0.1-0.2
				c-0.1,0-0.2,0-0.3,0c-0.1,0.1-0.3,0.3-0.4,0.4C-40.3,284.7-40.3,284.7-40.3,284.8z M-39.3,289.1c0.1,0,0.2,0,0.3,0
				c0-0.1,0.1-0.2,0.1-0.2c0-0.2,0-0.4-0.1-0.6c-0.2,0-0.3-0.1-0.5-0.1c0,0.1-0.1,0.2-0.1,0.4c0.1,0.2,0.1,0.3,0.2,0.5
				C-39.4,289.1-39.4,289.1-39.3,289.1z M-39.5,285.2c0.1,0.1,0.3,0.2,0.4,0.3c0.2,0,0.3,0.1,0.5,0.1s0.3-0.1,0.5-0.1
				c0-0.2,0-0.4-0.1-0.6c-0.1-0.1-0.2-0.1-0.3-0.2c0,0.1-0.1,0.1-0.1,0.2c-0.3,0-0.6,0-0.9,0.1C-39.4,285-39.5,285.1-39.5,285.2z
				 M-37.9,294.6c0.1-0.1,0.2-0.2,0.3-0.3c0-0.1,0-0.2,0-0.3c-0.2-0.1-0.4-0.2-0.6-0.3c-0.2,0-0.5-0.1-0.7-0.1
				c0.1,0.2,0.1,0.3,0.2,0.5c0.1,0.1,0.2,0.2,0.3,0.3c0.1,0,0.3,0.1,0.4,0.1C-38,294.6-38,294.6-37.9,294.6z M-37.5,286.2
				c0.1,0.5,0.3,1,0.4,1.5c0.2,0,0.5-0.1,0.7-0.1c0.1,0.1,0.1,0.2,0.2,0.3c0.1,0,0.3,0,0.4,0c0-0.1,0-0.2,0.1-0.2
				c-0.2-0.1-0.4-0.2-0.6-0.3c0-0.2,0-0.4-0.1-0.6c0.1-0.1,0.2-0.3,0.3-0.4c-0.3-0.2-0.5-0.4-0.8-0.7c0,0.1-0.1,0.2-0.1,0.2
				c-0.1,0.1-0.3,0.1-0.4,0.2C-37.4,286.2-37.4,286.2-37.5,286.2z M-36.9,286.3c0.1,0.1,0.2,0.1,0.3,0.2c0,0.2,0,0.3-0.1,0.5
				c-0.1,0-0.1,0-0.2,0c0-0.1-0.1-0.1-0.1-0.2C-37,286.7-37,286.6-36.9,286.3C-36.9,286.4-36.9,286.4-36.9,286.3z M-36.3,289.2
				c0,0.2,0,0.3-0.1,0.5c0.2,0,0.5,0.1,0.7,0.1c0-0.1,0-0.2,0.1-0.2c0-0.2-0.1-0.3-0.1-0.5c-0.2-0.2-0.5-0.4-0.7-0.5
				c0,0.1,0,0.2-0.1,0.3C-36.4,289-36.4,289.1-36.3,289.2C-36.3,289.1-36.3,289.2-36.3,289.2z"/>
			<path class="st0" d="M-6.4,318.9c0.4,0.1,0.8,0.3,1.2,0.4c0.3,0,0.6,0,1,0.1c0.3,0,0.6-0.1,0.8-0.1c0.5-0.2,0.9-0.4,1.4-0.6
				c0.2-0.1,0.4-0.3,0.7-0.4c0.1-0.2,0.1-0.3,0.2-0.5c0.1,0,0.2-0.1,0.4-0.1c0.2-0.2,0.3-0.4,0.5-0.5c0.3-0.2,0.6-0.3,0.9-0.5
				c0-0.1,0-0.2,0.1-0.3c0.1,0,0.3-0.1,0.4-0.1c0.3-0.3,0.7-0.6,1-0.9c0.3-0.4,0.6-0.8,0.9-1.2c0.3-0.3,0.6-0.6,0.8-0.9
				c0.1,0,0.2-0.1,0.4-0.1c0-0.1,0-0.2,0-0.3c0,0,0.1,0,0.1,0.1c0-0.1,0-0.2,0-0.2c0.1-0.1,0.2-0.1,0.3-0.2c0-0.1,0.1-0.3,0.1-0.4
				c0.2-0.2,0.4-0.3,0.6-0.5c0.2-0.1,0.4-0.1,0.5-0.2c0.3,0.1,0.6,0.3,0.9,0.4c0.3,0.3,0.5,0.5,0.8,0.8c0.2,0.4,0.4,0.7,0.6,1.1
				c0.1,0.2,0.1,0.3,0.2,0.5c0,0.3,0,0.5-0.1,0.8c-0.3,0.5-0.6,0.9-0.9,1.4c0,0.1,0,0.2-0.1,0.3c-0.1,0-0.2,0-0.3,0
				c0,0.1,0,0.2,0,0.2c-0.1,0-0.1,0.1-0.2,0.1c0,0.1,0,0.2-0.1,0.3c-0.1,0-0.2,0-0.3,0c0,0.1-0.1,0.3-0.1,0.4c-0.1,0-0.3,0-0.4,0
				c0,0.1-0.1,0.3-0.1,0.4c-0.1,0-0.3,0.1-0.4,0.1c-0.2,0.2-0.3,0.4-0.5,0.6c0,0.1,0,0.2-0.1,0.3c-0.1,0-0.2,0-0.2,0
				c-0.2,0.2-0.3,0.4-0.5,0.6c-0.4,0.3-0.8,0.5-1.2,0.8c0,0.1-0.1,0.3-0.1,0.4c-0.1,0-0.3,0-0.4,0.1c0,0.1-0.1,0.3-0.1,0.4
				c-0.1,0-0.3,0.1-0.4,0.1c0,0.1-0.1,0.3-0.1,0.4c-0.2,0.1-0.5,0.2-0.7,0.3c-0.1,0.2-0.2,0.3-0.4,0.5c-0.1,0-0.2-0.1-0.4-0.1
				c-0.1,0.1-0.2,0.2-0.3,0.4c-0.5,0.2-1,0.3-1.6,0.5c-0.2,0-0.3,0-0.5,0l-0.1,0.1c-0.1,0-0.2,0-0.4,0c-0.1,0.1-0.2,0.1-0.4,0.2
				c-0.2,0-0.4-0.1-0.7-0.1c-0.1,0-0.3,0.1-0.4,0.1c-0.1,0-0.3,0-0.4,0c-0.1,0.1-0.2,0.1-0.2,0.2c-0.4-0.1-0.7-0.1-1.1-0.2
				c-0.3-0.1-0.6-0.2-1-0.4c-0.1,0-0.2,0-0.2,0c-0.2-0.1-0.3-0.2-0.5-0.2c-0.1,0-0.2,0.1-0.4,0.1s-0.3,0-0.5-0.1
				c-0.7-0.3-1.3-0.7-2-1c-0.4-0.3-0.9-0.5-1.3-0.8v-0.1c-0.1-0.1-0.2-0.3-0.4-0.4c-0.1,0-0.2-0.1-0.3-0.1c-0.1-0.2-0.2-0.3-0.2-0.5
				c-0.2-0.3-0.5-0.6-0.7-0.9c-0.1-0.2-0.2-0.4-0.3-0.5c0-0.2-0.1-0.3-0.1-0.5c-0.1-0.1-0.1-0.2-0.2-0.2c0-0.1,0-0.3-0.1-0.4
				c-0.2-0.2-0.4-0.4-0.6-0.6c-0.2,0-0.3-0.1-0.5-0.1c-0.5,0.2-1,0.5-1.5,0.7c-0.1,0-0.1,0.1-0.2,0.1c-0.1,0-0.3,0-0.4,0
				c-0.5,0.2-1,0.5-1.5,0.7c-0.6,0.2-1.1,0.4-1.7,0.5c-0.7-0.1-1.3-0.1-2-0.2c-0.6-0.1-1.2-0.3-1.9-0.4c-0.4-0.1-0.8-0.3-1.1-0.4
				c0,0,0-0.1-0.1-0.1s-0.2,0-0.3-0.1v-0.1c-0.1,0-0.2,0-0.3-0.1v-0.1c-0.2-0.1-0.4-0.2-0.6-0.2c0-0.1,0-0.2-0.1-0.3
				c-0.1-0.1-0.3-0.1-0.4-0.2c-0.4-0.5-0.9-1.1-1.3-1.6c-0.3-0.6-0.5-1.3-0.8-1.9h-0.1c0-0.2-0.1-0.5-0.1-0.7
				c-0.1-0.3-0.3-0.6-0.4-0.9c0-0.4,0-0.7-0.1-1.1c0-0.1-0.1-0.2-0.1-0.3c0.1-0.6,0.2-1.3,0.3-1.9c0-0.7,0.1-1.3,0.1-2
				c0.1-0.3,0.2-0.7,0.3-1c0.1-0.6,0.3-1.3,0.4-1.9c0.2-0.6,0.3-1.2,0.5-1.8c0.1-0.5,0.3-1.1,0.4-1.6c0.1-0.1,0.1-0.2,0.2-0.3
				c0-0.2,0-0.4,0.1-0.7c0.1,0,0.1,0,0.2,0c0.1-0.3,0.2-0.6,0.3-0.9c0.3-0.5,0.5-1.1,0.8-1.6c0.1-0.3,0.3-0.6,0.4-1
				c0.3-0.5,0.7-1,1-1.5s0.7-1.1,1-1.6c0.1-0.3,0.3-0.6,0.4-1c0.4-0.4,0.8-0.8,1.2-1.2c0.5-0.4,1-0.7,1.4-1.1
				c0.1-0.1,0.2-0.2,0.3-0.3s0.1-0.3,0.2-0.4c0.5-0.3,1-0.5,1.5-0.8c0.1,0,0.2,0,0.2,0c0.2-0.2,0.5-0.3,0.7-0.5
				c0.5-0.1,0.9-0.1,1.4-0.2c0.6,0,1.3,0,1.9,0c0.3,0,0.6,0.1,0.9,0.1c0.7,0.3,1.3,0.6,2,0.9c0.3,0.2,0.7,0.3,1,0.5
				c0.6,0.5,1.1,1.1,1.7,1.6c0.4,0.6,0.9,1.2,1.3,1.8c0.2,0.3,0.3,0.7,0.5,1c0.2,0.1,0.4,0.2,0.5,0.3c0.2,0,0.3,0,0.5,0.1
				c0.1-0.1,0.2-0.1,0.3-0.2c0.3-0.5,0.5-1,0.8-1.6c0.2-0.5,0.4-1,0.7-1.5c0.2-0.5,0.5-1,0.7-1.5s0.5-1,0.7-1.4
				c0.2-0.5,0.4-1.1,0.6-1.6c0.2-0.5,0.5-1,0.7-1.4c0.1,0,0.1-0.1,0.2-0.1c0.1-0.3,0.2-0.6,0.2-0.9c0.2-0.4,0.4-0.8,0.5-1.1
				c0.2-0.2,0.3-0.4,0.5-0.5c0.3-0.1,0.5-0.2,0.8-0.3c0.3,0.1,0.5,0.1,0.8,0.2c0.7,0.3,1.4,0.7,2.1,1c0.5,0.3,1,0.6,1.5,0.9
				c0.1,0,0.1-0.1,0.2-0.1c0.3,0.2,0.6,0.4,0.8,0.6c0.1,0.2,0.2,0.4,0.4,0.6c0.1,0.4,0.2,0.7,0.2,1.1c-0.2,0.5-0.3,0.9-0.5,1.4
				c-0.3,0.4-0.6,0.9-0.9,1.3c-0.1,0.4-0.2,0.8-0.4,1.1s-0.4,0.6-0.6,0.9c0,0.3-0.1,0.6-0.1,0.9c-0.3,0.4-0.5,0.8-0.8,1.1
				c-0.1,0.1-0.1,0.3-0.2,0.4c-0.1,0-0.1,0.1-0.2,0.1c-0.4,1-0.9,1.9-1.3,2.9c-0.3,0.5-0.5,1.1-0.8,1.6c0,0.1,0,0.2-0.1,0.3
				c-0.1,0.1-0.2,0.3-0.4,0.4c-0.2,0.6-0.4,1.2-0.5,1.8c-0.1,0.2-0.2,0.5-0.3,0.7c-0.2,0.2-0.4,0.5-0.5,0.7c-0.2,0.5-0.4,1-0.7,1.5
				s-0.5,1-0.8,1.5c-0.2,0.5-0.4,1.1-0.6,1.6c-0.3,0.5-0.5,1-0.8,1.5c-0.1,0.3-0.3,0.5-0.4,0.8c-0.2,0.5-0.4,1-0.6,1.5
				c-0.2,0.4-0.4,0.9-0.6,1.3c-0.2,0.5-0.4,0.9-0.6,1.4c-0.1,0.3-0.2,0.5-0.3,0.8c-0.1,0.1-0.2,0.2-0.3,0.3
				c-0.1,0.5-0.3,1.1-0.4,1.6c-0.1,0.7-0.1,1.4-0.2,2.2c0.1,0.3,0.2,0.6,0.3,0.9c0.2,0.2,0.3,0.4,0.5,0.6
				C-6.4,318.8-6.4,318.9-6.4,318.9z M-25.4,312.3c0.2,0.1,0.5,0.2,0.7,0.3c0.1-0.1,0.1-0.3,0.2-0.4c0-0.1,0-0.2-0.1-0.3
				c-0.1,0-0.2-0.1-0.3-0.1s-0.3,0.1-0.4,0.1c0,0.1-0.1,0.1-0.1,0.2C-25.4,312.2-25.4,312.2-25.4,312.3z M-24.4,313.9
				c-0.1-0.2-0.1-0.3-0.2-0.5c-0.1-0.1-0.3-0.1-0.4-0.2c0,0.1,0,0.2,0,0.3c0.1,0.1,0.1,0.2,0.2,0.3
				C-24.7,313.8-24.6,313.9-24.4,313.9C-24.5,313.9-24.5,313.9-24.4,313.9z M-18.6,313.2c0.5-0.2,1.1-0.4,1.6-0.6
				c0.5-0.2,0.9-0.5,1.4-0.7c0.4-0.4,0.9-0.7,1.3-1.1c0.1,0,0.1,0,0.2-0.1c0-0.1,0-0.2,0-0.2c0.1-0.1,0.2-0.1,0.4-0.2
				c0-0.1,0-0.2,0-0.3c0.1,0,0.2,0,0.2,0c0.1-0.1,0.2-0.2,0.2-0.3c0.1-0.5,0.3-0.9,0.4-1.4c0.1-0.1,0.2-0.2,0.2-0.3
				c0.1-0.3,0.2-0.6,0.2-0.9c0.2-0.3,0.3-0.5,0.5-0.8c0.1-0.3,0.2-0.6,0.2-0.8c0.1-0.3,0.3-0.6,0.4-1c0.1-0.1,0.2-0.2,0.2-0.3
				s0-0.3,0.1-0.4s0.2-0.2,0.2-0.4c0-0.2,0-0.3,0.1-0.5c0.1-0.1,0.2-0.1,0.3-0.2c0.1-0.3,0.2-0.5,0.2-0.8c0.3-0.5,0.7-1,1-1.5
				c0.1-0.3,0.1-0.7,0.2-1c0-0.4-0.1-0.7-0.1-1.1c-0.1-0.3-0.2-0.7-0.2-1c-0.2-0.3-0.3-0.7-0.5-1c-0.4-0.6-0.8-1.1-1.2-1.7
				c-0.3-0.2-0.6-0.4-0.9-0.5c-0.4,0-0.7-0.1-1.1-0.1c-0.1,0.1-0.2,0.1-0.3,0.2c-0.1,0-0.2-0.1-0.2-0.1c0,0.1-0.1,0.1-0.1,0.2
				c-0.2,0-0.4,0-0.6-0.1c-0.2,0.1-0.4,0.3-0.6,0.4c-0.1,0-0.3,0-0.4,0.1c-0.2,0.1-0.4,0.3-0.6,0.4c0,0.1,0,0.2,0,0.2
				c-0.2,0.2-0.5,0.3-0.7,0.5c-0.4,0.4-0.8,0.8-1.2,1.2c-0.1,0.2-0.2,0.4-0.3,0.6c-0.1,0.1-0.2,0.2-0.4,0.3c0,0.1,0,0.3-0.1,0.4
				c-0.2,0.2-0.4,0.5-0.6,0.7c-0.2,0.6-0.5,1.1-0.7,1.7c-0.2,0.4-0.5,0.8-0.7,1.2c-0.2,0.6-0.5,1.1-0.7,1.7s-0.3,1.2-0.5,1.7
				c-0.1,0.6-0.3,1.2-0.4,1.8c-0.1,0.6-0.1,1.3-0.2,1.9c0,0.3,0,0.7-0.1,1c0.1,0.5,0.1,1.1,0.2,1.6c0.3,0.3,0.5,0.6,0.8,0.8
				c0.3,0.2,0.6,0.3,0.9,0.5c0.3,0,0.6,0.1,0.9,0.1c0.2,0,0.5,0,0.7-0.1C-18.7,313.3-18.7,313.3-18.6,313.2z M-20.7,294.5
				c-0.2,0.1-0.4,0.1-0.6,0.2c0.2,0.2,0.4,0.3,0.6,0.5c0.1,0,0.2,0,0.3,0c0-0.1,0-0.1-0.1-0.2c0.1-0.2,0.1-0.4,0.2-0.6
				c-0.1,0-0.2,0-0.2-0.1C-20.6,294.4-20.6,294.4-20.7,294.5L-20.7,294.5z M-18.7,291.9c0.1,0.1,0.3,0.2,0.4,0.2
				c0-0.1,0-0.2-0.1-0.3c-0.1-0.1-0.2-0.2-0.2-0.3c0,0.1,0,0.1-0.1,0.2C-18.7,291.8-18.7,291.8-18.7,291.9z M-17.6,294
				c0.1,0,0.2,0.1,0.3,0.1c0-0.1,0-0.2,0-0.2c-0.1,0-0.2-0.1-0.3-0.1C-17.6,293.8-17.6,293.9-17.6,294z M-15.4,291.8
				c0.1,0,0.2,0.1,0.3,0.1c0-0.1,0.1-0.1,0.1-0.2c-0.1-0.1-0.3-0.2-0.4-0.3C-15.4,291.5-15.4,291.7-15.4,291.8z M-12.3,292.8
				c0-0.2,0-0.3-0.1-0.5c-0.1-0.1-0.1-0.1-0.2-0.2c0,0.1-0.1,0.3-0.1,0.4c0.1,0.1,0.1,0.1,0.2,0.2
				C-12.4,292.8-12.4,292.8-12.3,292.8z M-12.4,315.7c0.1,0.1,0.3,0.3,0.4,0.4c0.1,0,0.1,0,0.2,0c0-0.1,0-0.1,0.1-0.2
				c-0.1-0.1-0.3-0.3-0.4-0.4c-0.1,0-0.1,0-0.2,0C-12.4,315.6-12.4,315.6-12.4,315.7z M-11.9,310.8c0.1,0,0.1,0,0.2,0
				c0.2,0.1,0.4,0.3,0.6,0.4c0-0.1,0-0.1,0.1-0.2c0.1,0,0.3,0,0.4,0c0,0,0-0.1,0.1-0.1c-0.1-0.1-0.3-0.2-0.4-0.3
				c-0.2-0.1-0.3-0.1-0.5-0.2c-0.1,0-0.2,0.1-0.4,0.1v0.1C-11.8,310.8-11.9,310.8-11.9,310.8z M-11.8,314.1c0,0.1,0,0.2,0.1,0.3
				c0.1,0.1,0.2,0.2,0.4,0.3c0.2-0.1,0.4-0.2,0.6-0.3c-0.1-0.1-0.3-0.3-0.4-0.4c-0.1,0-0.3,0-0.4,0
				C-11.7,314.1-11.7,314.1-11.8,314.1z M-11.2,311.9c0-0.2,0-0.3-0.1-0.5c-0.1-0.1-0.1-0.1-0.2-0.2c0,0.1-0.1,0.3-0.1,0.4
				c0.1,0.1,0.1,0.1,0.2,0.2C-11.3,311.8-11.3,311.8-11.2,311.9z M-11.2,316c0.1,0.1,0.3,0.2,0.4,0.3l0.1-0.1c0-0.1,0-0.2-0.1-0.3
				c-0.1-0.1-0.1-0.1-0.2-0.2c-0.1,0-0.2,0.1-0.3,0.1C-11.2,315.8-11.2,315.9-11.2,316z M-11.1,312.5c0.1,0.1,0.2,0.2,0.3,0.3
				c0-0.1,0.1-0.2,0.1-0.3c-0.1-0.1-0.2-0.1-0.2-0.2C-10.9,312.3-11,312.4-11.1,312.5C-11.1,312.4-11.1,312.4-11.1,312.5z
				 M-10.8,310.3l0.1,0.1c0.1,0,0.1,0,0.2-0.1c0-0.1,0-0.3-0.1-0.4c-0.1,0-0.2-0.1-0.2-0.1C-10.8,310-10.8,310.2-10.8,310.3z
				 M-10.7,314.7c0.1,0,0.2,0.1,0.3,0.1c0-0.1,0-0.2,0-0.2c-0.1,0-0.2-0.1-0.3-0.1C-10.7,314.6-10.7,314.6-10.7,314.7z M-10.7,317.6
				c0.1,0,0.2,0,0.3,0l0.1-0.1c-0.1-0.1-0.1-0.2-0.2-0.4h-0.1c0,0.1-0.1,0.2-0.1,0.3C-10.7,317.4-10.7,317.5-10.7,317.6z
				 M-10.5,308.7c0.1,0,0.2,0.1,0.2,0.1c0.1,0,0.1-0.1,0.2-0.1c0-0.2-0.1-0.4-0.1-0.5c-0.1,0.1-0.2,0.3-0.4,0.4
				C-10.6,308.6-10.6,308.7-10.5,308.7z M-9.9,306c0.1,0.1,0.2,0.3,0.4,0.4c0,0.1,0,0.2,0,0.3c0.1,0.2,0.3,0.3,0.4,0.5
				c0.2-0.6,0.4-1.2,0.5-1.7c-0.1-0.1-0.2-0.2-0.4-0.3s-0.5-0.2-0.7-0.3c-0.1,0.3-0.2,0.6-0.2,0.9C-9.9,305.9-9.9,305.9-9.9,306z
				 M-8,309.3c0-0.1,0-0.1-0.1-0.2c-0.2-0.2-0.4-0.5-0.7-0.7c-0.1-0.2-0.2-0.4-0.2-0.6c-0.1-0.1-0.3-0.1-0.4-0.2
				c-0.1,0.1-0.2,0.2-0.2,0.3c0.2,0.2,0.4,0.4,0.6,0.6c0,0.1,0,0.2,0.1,0.3c0.2,0,0.3,0,0.5,0.1c0,0.1,0,0.2,0.1,0.3
				c-0.2,0-0.4,0-0.7,0.1c0,0.2,0,0.3-0.1,0.5c-0.1,0.2-0.3,0.4-0.4,0.6c0,0.1,0,0.2,0,0.4c0.2,0.1,0.3,0.2,0.5,0.4
				c0-0.3-0.1-0.6-0.1-1c0.3,0.1,0.7,0.2,1,0.3c0.1,0.1,0.3,0.2,0.4,0.3c0.1,0.2,0.2,0.3,0.4,0.5c0-0.1,0-0.2,0-0.3
				c0.1-0.1,0.2-0.3,0.3-0.4c-0.1-0.2-0.3-0.3-0.4-0.5c-0.1-0.2-0.2-0.4-0.2-0.6c0.1,0,0.2,0.1,0.3,0.1c0.2-0.1,0.3-0.1,0.5-0.2
				c0-0.2,0-0.3-0.1-0.5c-0.1-0.2-0.2-0.4-0.4-0.6c-0.1,0.3-0.1,0.6-0.2,0.9c-0.1,0.1-0.2,0.2-0.2,0.3C-8,309.3-8,309.3-8,309.3z
				 M-7.9,304.2c-0.2-0.2-0.4-0.4-0.6-0.5c-0.2,0-0.5,0-0.7,0c0,0.1,0,0.3,0,0.4c0.2,0.1,0.4,0.3,0.7,0.4c0,0.1,0,0.2,0.1,0.3
				c0.1,0.1,0.1,0.1,0.2,0.2c0.3-0.1,0.5-0.2,0.8-0.3c0.1-0.1,0.2-0.2,0.2-0.3c0-0.1,0-0.1-0.1-0.2c-0.1,0-0.3,0-0.4,0
				C-7.8,304.2-7.8,304.2-7.9,304.2z M-8.6,313.8c0.1,0.1,0.3,0.1,0.4,0.2c-0.1-0.1-0.1-0.3-0.2-0.4c-0.1,0-0.2-0.1-0.2-0.1
				S-8.6,313.6-8.6,313.8z M-7.5,301.9c-0.1,0.1-0.2,0.1-0.3,0.2c-0.1,0-0.2,0-0.2,0c-0.1,0.1-0.1,0.2-0.2,0.4c0,0.1,0,0.1,0.1,0.2
				c0.1,0,0.2,0.1,0.2,0.1c0.1,0,0.2-0.1,0.4-0.1c0.1,0,0.2,0.1,0.2,0.1c0.1,0.3,0.2,0.5,0.4,0.8c0.1,0.1,0.1,0.1,0.2,0.2
				c0,0,0-0.1,0.1-0.1s0.2,0,0.2,0c0-0.1,0-0.1,0.1-0.2c-0.2-0.3-0.4-0.6-0.5-0.9c0-0.1,0-0.3,0-0.4C-7.1,302.1-7.3,302-7.5,301.9z
				 M-4.2,298.5c0.1,0,0.2-0.1,0.4-0.1c0-0.1,0-0.2,0-0.3c-0.3-0.1-0.5-0.3-0.8-0.4c0,0,0-0.1-0.1-0.1c-0.2-0.1-0.3-0.3-0.5-0.4
				c-0.1-0.1-0.1-0.2-0.2-0.3c-0.1,0-0.2-0.1-0.2-0.1c-0.2,0.1-0.3,0.2-0.5,0.2c0,0.1,0,0.3-0.1,0.4c0.1,0.1,0.2,0.1,0.2,0.2
				c0.1,0,0.3-0.1,0.4-0.1c0.1,0.2,0.1,0.3,0.2,0.5c0,0.1,0,0.2,0,0.3c0.1,0.1,0.2,0.2,0.4,0.3c0,0.1,0,0.2,0,0.2
				c-0.1-0.1-0.2-0.1-0.2-0.2c-0.1-0.1-0.3-0.1-0.4-0.2c-0.1,0-0.2,0-0.3,0c0-0.1-0.1-0.2-0.1-0.2c-0.1,0-0.2-0.1-0.2-0.1
				c-0.1-0.2-0.2-0.3-0.3-0.5c-0.1-0.1-0.2-0.2-0.4-0.3c-0.2,0-0.4-0.1-0.5-0.1c0,0.1,0,0.2-0.1,0.2c0,0.1,0.1,0.1,0.1,0.2
				c0.2,0,0.3,0,0.5,0c0.1,0.1,0.1,0.1,0.2,0.2c0.1,0.2,0.1,0.4,0.2,0.6c0,0.2,0,0.4-0.1,0.5c-0.1,0.1-0.1,0.1-0.2,0.2
				c0.1,0.1,0.1,0.1,0.2,0.2c0.1,0,0.2-0.1,0.3-0.1c0.1,0.1,0.3,0.2,0.4,0.3c0,0.2,0,0.4,0,0.6c0.2,0,0.4,0.1,0.6,0.1
				c0,0.2,0,0.3,0.1,0.5c0.1,0.1,0.1,0.3,0.2,0.4c-0.1,0-0.1,0-0.2,0.1c-0.3-0.2-0.7-0.3-1-0.5c-0.1,0.1-0.2,0.3-0.3,0.4h-0.1
				c-0.1-0.1-0.2-0.3-0.3-0.4c-0.2,0-0.3,0-0.5-0.1c-0.1,0-0.1,0.1-0.2,0.1c0,0.1,0,0.2,0,0.2c0.3,0.1,0.6,0.2,1,0.4
				c0,0.1,0,0.2-0.1,0.3c0.1,0.3,0.2,0.6,0.3,0.9c0,0.1,0,0.2,0,0.3c0.4,0.4,0.8,0.8,1.3,1.2c0.1,0,0.3,0,0.4,0
				c0.1-0.2,0.3-0.3,0.4-0.5c0.1,0,0.3,0,0.4,0c0.1-0.2,0.2-0.4,0.4-0.7c0.1,0,0.1-0.1,0.2-0.1c0-0.1,0-0.2-0.1-0.3
				s-0.3-0.2-0.4-0.3c-0.3,0.1-0.5,0.2-0.8,0.2c-0.2-0.1-0.3-0.3-0.5-0.4c0-0.1,0-0.2-0.1-0.3c0.1,0,0.3-0.1,0.4-0.1
				c0.2,0.1,0.4,0.1,0.5,0.2c0.5-0.1,1-0.3,1.5-0.4c0-0.1,0-0.2-0.1-0.3c-0.1-0.2-0.2-0.3-0.4-0.5c0.1-0.2,0.2-0.4,0.2-0.6
				c-0.1-0.2-0.2-0.3-0.2-0.5c0-0.1,0-0.1,0-0.2c-0.3-0.2-0.7-0.4-1-0.6C-4.1,298.6-4.1,298.6-4.2,298.5z M-7.2,307.7
				c0.1,0.2,0.2,0.3,0.3,0.5c0.1,0,0.1,0,0.2,0c0-0.1,0-0.1,0.1-0.2c-0.1-0.1-0.3-0.3-0.4-0.4c-0.1-0.2-0.3-0.4-0.4-0.6l-0.1,0.1
				c0,0.1,0,0.2,0.1,0.3s0.1,0.1,0.2,0.2C-7.3,307.6-7.2,307.7-7.2,307.7z M-6.9,304.6c0.1,0.1,0.2,0.1,0.2,0.2
				c0.1,0,0.2-0.1,0.4-0.1c0.2,0.1,0.4,0.3,0.7,0.4c0-0.1,0-0.2,0-0.3c-0.1-0.2-0.2-0.3-0.3-0.5c-0.1-0.1-0.2-0.2-0.4-0.3
				c-0.1,0-0.3,0-0.4,0c-0.1,0.1-0.1,0.2-0.2,0.4C-6.9,304.4-6.9,304.5-6.9,304.6z M-6.2,306.8l0.1-0.1c0.2,0.1,0.4,0.1,0.7,0.2
				c-0.1-0.2-0.1-0.3-0.2-0.5c-0.1-0.1-0.2-0.3-0.3-0.4c-0.2-0.1-0.3-0.2-0.5-0.3c-0.1,0.1-0.1,0.3-0.2,0.4c0,0.2,0,0.3,0.1,0.5
				C-6.4,306.7-6.4,306.7-6.2,306.8C-6.3,306.7-6.3,306.7-6.2,306.8z M-6,307.7c0.1,0,0.2,0.1,0.3,0.1c0-0.1,0-0.2,0-0.3
				c-0.1,0-0.2-0.1-0.3-0.1C-6,307.5-6,307.6-6,307.7z M-5.5,302.1c0,0.1,0,0.2,0,0.3c-0.1-0.1-0.2-0.1-0.3-0.2c0-0.1,0-0.1-0.1-0.2
				c0.1,0,0.2-0.1,0.2-0.1C-5.6,302-5.6,302-5.5,302.1z M-4.7,296.7c-0.2-0.1-0.4-0.2-0.5-0.3c0,0.1,0,0.2,0,0.3
				c0.1,0.1,0.1,0.1,0.2,0.2c0.1,0,0.2,0,0.2,0C-4.8,296.8-4.7,296.7-4.7,296.7z M-4.6,305.6c0-0.1,0-0.2,0-0.2
				c-0.1-0.1-0.2-0.3-0.3-0.4c-0.1,0-0.2-0.1-0.4-0.1c0.1,0.2,0.1,0.4,0.2,0.6c0.1,0.1,0.2,0.2,0.4,0.3
				C-4.7,305.6-4.6,305.6-4.6,305.6z M-5,302.4c0.1,0,0.2,0.1,0.2,0.1c0.1,0.1,0.2,0.2,0.3,0.3v0.1c-0.1,0-0.1,0-0.2,0.1
				c-0.1-0.1-0.2-0.1-0.2-0.2c0-0.1-0.1-0.2-0.1-0.2S-5,302.5-5,302.4z M-3.1,294.9c-0.2,0.1-0.5,0.2-0.7,0.3
				c-0.2,0-0.3-0.1-0.5-0.1c-0.1-0.1-0.3-0.2-0.4-0.4c0,0.2,0,0.3,0,0.5c0,0.1,0.1,0.2,0.1,0.2c-0.1,0.1-0.2,0.3-0.4,0.4
				c0,0,0,0.1,0.1,0.1c0.2,0,0.3,0.1,0.5,0.1c0.1-0.1,0.2-0.2,0.2-0.3s0-0.2,0-0.2c0.1,0,0.2,0,0.2,0c0.2-0.1,0.4-0.1,0.5-0.2
				c0.1,0,0.2,0,0.3,0.1c0.1,0.3,0.2,0.5,0.2,0.8c0.1,0,0.2,0.1,0.3,0.1s0.2-0.1,0.4-0.1c0.1-0.1,0.1-0.2,0.2-0.4
				c-0.3-0.3-0.6-0.6-0.9-0.9C-2.9,295-3,295-3.1,294.9z M-4.5,299.2c0.1,0.1,0.3,0.2,0.4,0.3c0,0.2,0.1,0.4,0.1,0.5
				c0,0.2-0.1,0.4-0.1,0.6c-0.2-0.1-0.3-0.3-0.5-0.4c-0.1-0.2-0.1-0.3-0.2-0.5c0-0.2,0.1-0.3,0.1-0.5
				C-4.5,299.2-4.5,299.2-4.5,299.2z M-2.5,299.5c-0.1-0.1-0.2-0.3-0.3-0.4c0-0.2-0.1-0.5-0.1-0.7c0.4-0.1,0.8-0.1,1.2-0.2
				c0-0.3-0.1-0.7-0.1-1c-0.1,0-0.2-0.1-0.3-0.1c-0.4,0.1-0.8,0.1-1.2,0.2c0,0.3-0.1,0.6-0.1,0.9c0.1,0.3,0.3,0.7,0.4,1
				c0,0.1,0,0.1,0,0.2c0.1,0.1,0.3,0.2,0.4,0.4C-2.6,299.6-2.6,299.6-2.5,299.5C-2.6,299.6-2.5,299.5-2.5,299.5z M-0.5,293.2
				c-0.2,0.1-0.3,0.2-0.5,0.3c-0.1,0-0.2,0-0.2,0c0-0.1,0-0.2,0-0.3c-0.1-0.2-0.2-0.3-0.2-0.5c-0.1-0.1-0.3-0.2-0.4-0.4
				c-0.1-0.2-0.2-0.4-0.3-0.6h-0.1c0,0.2,0,0.3,0.1,0.5c0,0.1,0.1,0.2,0.1,0.2c0,0.1,0,0.2,0,0.3c-0.1,0-0.2,0-0.2,0
				c-0.2,0.1-0.3,0.2-0.5,0.3c0,0.2,0,0.3,0.1,0.5l-0.1,0.1c0,0.2,0,0.3,0.1,0.5c0.1,0,0.2,0.1,0.3,0.1c0.2-0.1,0.4-0.2,0.7-0.3
				c0.1,0,0.2,0.1,0.3,0.1c0.1,0.1,0.1,0.2,0.2,0.3c0.1,0.2,0.1,0.4,0.2,0.6c0.1,0,0.2,0.1,0.2,0.1c0.2-0.1,0.5-0.3,0.7-0.4
				c0.1-0.2,0.2-0.5,0.4-0.7c0-0.1,0-0.3,0-0.4c-0.1-0.2-0.2-0.4-0.4-0.5c0-0.1,0-0.2,0-0.2c0.1-0.1,0.1-0.2,0.2-0.2
				c-0.2-0.2-0.4-0.4-0.5-0.5c-0.1,0.1-0.2,0.2-0.2,0.3C-0.7,292.6-0.6,292.9-0.5,293.2z M-2.1,295c0.1,0,0.2,0.1,0.4,0.2
				c0-0.2,0-0.3-0.1-0.5c-0.1-0.1-0.2-0.2-0.3-0.2C-2.1,294.7-2.1,294.8-2.1,295z M-0.1,290.9c-0.1-0.3-0.3-0.5-0.4-0.8
				c-0.1-0.1-0.3-0.2-0.4-0.2c0,0-0.1,0-0.1,0.1c0.1,0.2,0.2,0.4,0.2,0.7c0,0.1,0,0.3,0,0.4c0.1,0,0.2,0,0.2,0
				c0.1-0.1,0.1-0.1,0.2-0.2c0.3,0.2,0.6,0.3,0.8,0.5c0-0.1,0-0.2,0-0.2C0.3,291,0.1,290.9-0.1,290.9z M0.3,292
				c-0.2-0.2-0.3-0.4-0.5-0.6c-0.1,0-0.1-0.1-0.2-0.1c0,0.1,0,0.2,0.1,0.3c0.1,0.2,0.2,0.4,0.4,0.5C0.1,292.1,0.2,292.1,0.3,292
				C0.3,292.1,0.3,292,0.3,292z M0.5,293.5c0.1-0.2,0.2-0.3,0.2-0.5c-0.1,0-0.1-0.1-0.2-0.1c-0.1,0.1-0.2,0.1-0.4,0.2
				c0.1,0.1,0.1,0.2,0.2,0.3C0.4,293.4,0.4,293.4,0.5,293.5z M0.5,289.5c0.1,0.2,0.1,0.3,0.2,0.5c0.1,0.1,0.2,0.2,0.4,0.3
				c0-0.2,0-0.5,0-0.7C0.9,289.6,0.7,289.6,0.5,289.5L0.5,289.5z M1.1,287.7c-0.1-0.2-0.1-0.3-0.2-0.5c-0.1-0.1-0.2-0.2-0.4-0.3
				c0,0.2,0.1,0.3,0.1,0.5c0.1,0.1,0.2,0.2,0.3,0.3C1.1,287.7,1.1,287.7,1.1,287.7z M1.6,285.8c0-0.1,0-0.3,0-0.4c0,0-0.1,0-0.1-0.1
				c0-0.2-0.1-0.3-0.1-0.5c-0.1,0-0.1-0.1-0.2-0.1c0,0.2,0,0.4,0,0.6c0.1,0.1,0.2,0.3,0.3,0.4C1.5,285.8,1.5,285.8,1.6,285.8z
				 M2.1,288.3c0.1,0.1,0.3,0.2,0.4,0.3h0.1c0-0.1,0-0.2-0.1-0.3c-0.1-0.1-0.2-0.2-0.4-0.3s-0.4-0.2-0.5-0.3c0,0.1,0,0.2,0,0.2
				c0.1,0.1,0.2,0.2,0.3,0.3C2,288.2,2,288.2,2.1,288.3z"/>
		</g>
	</g>
	<g class="st1">
		<path class="st0" d="M-161.8,506.1c0-2.3,0.3-4.4,0.9-6.3c0.6-2,1.5-3.7,2.7-5.2c1.2-1.5,2.7-2.6,4.4-3.5c1.8-0.9,3.8-1.3,6.1-1.3
			c2.4,0,4.5,0.4,6.3,1.3c1.8,0.8,3.3,2,4.5,3.5c1.2,1.5,2.1,3.2,2.7,5.2s0.9,4.1,0.9,6.3c0,2.2-0.3,4.3-0.9,6.3
			c-0.6,2-1.5,3.7-2.7,5.1c-1.2,1.5-2.7,2.6-4.5,3.5c-1.8,0.9-3.9,1.3-6.2,1.3c-2.4,0-4.4-0.4-6.2-1.3c-1.8-0.9-3.3-2-4.5-3.5
			c-1.2-1.5-2.1-3.2-2.7-5.1C-161.5,510.4-161.8,508.3-161.8,506.1z M-147.5,519.8c2,0,3.7-0.4,5.2-1.1s2.6-1.8,3.5-3
			c0.9-1.3,1.6-2.7,2.1-4.4c0.4-1.7,0.7-3.4,0.7-5.2c0-2.1-0.3-4.1-0.8-5.7c-0.5-1.7-1.3-3.1-2.3-4.3c-1-1.2-2.2-2.1-3.6-2.7
			c-1.4-0.6-3-0.9-4.8-0.9c-2,0-3.7,0.4-5.1,1.2c-1.4,0.8-2.6,1.8-3.5,3.1c-0.9,1.3-1.6,2.7-2.1,4.4c-0.4,1.7-0.7,3.4-0.7,5.2
			c0,1.8,0.2,3.6,0.7,5.2c0.4,1.7,1.1,3.1,2.1,4.4c0.9,1.3,2.1,2.3,3.5,3C-151.2,519.4-149.5,519.8-147.5,519.8z"/>
		<path class="st0" d="M-127.3,490.7h2.9V509c0,3.8,0.7,6.6,2.1,8.2c1.4,1.7,3.7,2.5,6.9,2.5c1.7,0,3.1-0.2,4.2-0.7
			c1.2-0.4,2.1-1.1,2.8-2c0.7-0.9,1.2-2,1.5-3.4c0.3-1.3,0.5-2.9,0.5-4.7v-18.3h2.9v19.2c0,4-1,7.1-3,9.2c-2,2.1-5,3.2-9,3.2
			c-4,0-7-1.1-9-3.2c-2-2.2-2.9-5.2-2.9-9.1V490.7z"/>
		<path class="st0" d="M-93.6,507.5v14l-2.9,0v-30.7h12.1c3.4,0,6,0.6,7.8,1.9c1.8,1.3,2.7,3.3,2.7,6.2c0,1.9-0.4,3.5-1.2,4.6
			s-2.1,2.1-3.8,2.9c0.9,0.3,1.6,0.8,2.1,1.4c0.5,0.6,0.9,1.3,1.2,2.1s0.4,1.6,0.5,2.4c0.1,0.9,0.1,1.7,0.1,2.5
			c0,1.2,0.1,2.1,0.1,2.9c0.1,0.8,0.2,1.4,0.3,1.9c0.1,0.5,0.2,0.9,0.4,1.1c0.1,0.3,0.3,0.5,0.5,0.6v0.3l-3.2,0
			c-0.3-0.5-0.5-1.2-0.7-2.1c-0.1-0.9-0.2-1.9-0.3-2.9c-0.1-1-0.1-2-0.2-2.9c0-0.9-0.1-1.7-0.2-2.3c-0.2-0.8-0.4-1.5-0.8-2
			c-0.4-0.5-0.8-0.9-1.4-1.1c-0.5-0.3-1.1-0.4-1.8-0.5c-0.7-0.1-1.4-0.1-2.1-0.1H-93.6z M-84.6,505c1.1,0,2.1-0.1,3-0.3
			c0.9-0.2,1.7-0.6,2.4-1.1c0.7-0.5,1.2-1.1,1.6-1.9c0.4-0.8,0.6-1.7,0.6-2.8c0-1.1-0.2-2.1-0.6-2.8c-0.4-0.7-1-1.3-1.7-1.8
			s-1.5-0.7-2.4-0.9c-0.9-0.2-1.8-0.3-2.8-0.3h-9.2V505H-84.6z"/>
		<path class="st0" d="M-56.1,521.5v-30.8H-45c1.8,0,3.3,0.2,4.6,0.6c1.3,0.4,2.3,0.9,3.1,1.6s1.4,1.5,1.8,2.5s0.6,2,0.6,3.1
			c0,1.1-0.1,2-0.4,2.8c-0.3,0.8-0.7,1.4-1.1,2c-0.5,0.5-1,0.9-1.6,1.2s-1.2,0.5-1.8,0.6v0.1c2.1,0.3,3.7,1.2,4.8,2.5
			c1,1.4,1.6,3.1,1.6,5.1c0,1.6-0.2,3-0.7,4.1c-0.5,1.1-1.2,2-2.1,2.7c-0.9,0.7-1.9,1.2-3.2,1.5c-1.2,0.3-2.6,0.4-4,0.4H-56.1z
			 M-53.2,504.3h7.4c1.5,0,2.8-0.1,3.8-0.4c1-0.3,1.9-0.6,2.5-1.1c0.6-0.5,1.1-1.1,1.3-1.8s0.4-1.6,0.4-2.5c0-1-0.2-1.8-0.5-2.5
			c-0.3-0.7-0.8-1.2-1.5-1.6c-0.7-0.4-1.6-0.7-2.7-0.9c-1.1-0.2-2.4-0.3-4-0.3h-6.7V504.3z M-53.2,519h7.4c1.6,0,3-0.1,4.2-0.2
			c1.2-0.1,2.2-0.4,2.9-0.9c0.8-0.4,1.3-1.1,1.7-1.9s0.6-1.9,0.6-3.2c0-1.3-0.2-2.3-0.6-3.1c-0.4-0.8-1-1.4-1.8-1.8
			c-0.8-0.4-1.8-0.7-2.9-0.9c-1.1-0.2-2.4-0.2-3.7-0.2h-7.7V519z"/>
		<path class="st0" d="M-27.6,521.5v-30.8h20.5v2.5h-17.6v11.1h15.9v2.5h-15.9V519h18v2.5H-27.6z"/>
		<path class="st0" d="M-1.5,521.5v-30.8H19v2.5H1.4v11.1h15.9v2.5H1.4V519h18v2.5H-1.5z"/>
		<path class="st0" d="M27.5,507.5v14l-2.9,0v-30.7h12.1c3.4,0,6,0.6,7.8,1.9c1.8,1.3,2.7,3.3,2.7,6.2c0,1.9-0.4,3.5-1.2,4.6
			c-0.8,1.1-2.1,2.1-3.8,2.9c0.9,0.3,1.6,0.8,2.1,1.4c0.5,0.6,0.9,1.3,1.2,2.1c0.3,0.8,0.4,1.6,0.5,2.4c0.1,0.9,0.1,1.7,0.1,2.5
			c0,1.2,0.1,2.1,0.1,2.9s0.2,1.4,0.3,1.9c0.1,0.5,0.2,0.9,0.4,1.1c0.1,0.3,0.3,0.5,0.5,0.6v0.3l-3.2,0c-0.3-0.5-0.5-1.2-0.7-2.1
			c-0.1-0.9-0.2-1.9-0.3-2.9c-0.1-1-0.1-2-0.2-2.9s-0.1-1.7-0.2-2.3c-0.2-0.8-0.4-1.5-0.8-2c-0.4-0.5-0.8-0.9-1.4-1.1
			c-0.5-0.3-1.1-0.4-1.8-0.5c-0.7-0.1-1.4-0.1-2.1-0.1H27.5z M36.6,505c1.1,0,2.1-0.1,3-0.3c0.9-0.2,1.7-0.6,2.4-1.1
			c0.7-0.5,1.2-1.1,1.6-1.9c0.4-0.8,0.6-1.7,0.6-2.8c0-1.1-0.2-2.1-0.6-2.8s-1-1.3-1.7-1.8s-1.5-0.7-2.4-0.9
			c-0.9-0.2-1.8-0.3-2.8-0.3h-9.2V505H36.6z"/>
	</g>
	<g>
		<g>
			<path class="st2" d="M-170.7,359.4c0.8,0.4,1.5,0.7,2.2,1.1l0.6,0.3c0.1,0,0.1,0,0.2,0c0.1,0,0.3-0.1,0.3-0.2
				c0.1-0.2,0-0.4-0.2-0.5l-0.6-0.3c-0.7-0.4-1.5-0.7-2.2-1.1c-0.2-0.1-0.4,0-0.5,0.2C-170.9,359.1-170.8,359.3-170.7,359.4z"/>
			<path class="st2" d="M-164.9,362.5c1.4,0.7,2.7,1.4,4.1,2.1c0.1,0,0.1,0,0.2,0c0.1,0,0.3-0.1,0.3-0.2c0.1-0.2,0-0.4-0.2-0.5
				c-1.3-0.7-2.7-1.4-4.1-2.1c-0.2-0.1-0.4,0-0.5,0.2C-165.1,362.2-165,362.4-164.9,362.5z"/>
			<path class="st2" d="M-158.8,365.6c3,1.6,5.4,3,7.6,4.4c1.1,0.7,2.5,1.2,3.8,1.8c1.3,0.5,2.7,1,3.7,1.7c3.7,2.4,7.4,4.7,11.5,7.1
				c0.1,0,0.1,0.1,0.2,0.1c0.1,0,0.2-0.1,0.3-0.2c0.1-0.2,0-0.4-0.1-0.5c-4-2.4-7.8-4.7-11.4-7.1c-1.1-0.7-2.5-1.2-3.8-1.8
				c-1.3-0.5-2.7-1-3.7-1.7c-2.3-1.4-4.7-2.8-7.7-4.4c-0.2-0.1-0.4,0-0.5,0.1C-159.1,365.3-159,365.5-158.8,365.6z"/>
			<path class="st2" d="M-130.4,381.7c6.1,3.7,12.1,7,17,9.8c0.1,0,0.1,0,0.2,0s0.3-0.1,0.3-0.2c0.1-0.2,0-0.4-0.1-0.5
				c-5-2.8-10.9-6.1-17-9.8c-0.2-0.1-0.4-0.1-0.5,0.1C-130.6,381.4-130.6,381.6-130.4,381.7z"/>
			<path class="st2" d="M-107.7,393.9c-1.4-0.7-2.7-1.5-4-2.2c-0.2-0.1-0.4,0-0.5,0.1c-0.1,0.2,0,0.4,0.1,0.5c1.3,0.7,2.7,1.5,4,2.2
				c0.1,0,0.1,0,0.2,0s0.3-0.1,0.3-0.2C-107.4,394.2-107.5,394-107.7,393.9z"/>
			<path class="st2" d="M-151.4,392.9c0.2,0,0.3-0.1,0.4-0.3s-0.1-0.4-0.2-0.5c-1.7-0.5-3.3-1-4.8-1.6c-0.2-0.1-0.4,0-0.5,0.2
				c-0.1,0.2,0,0.4,0.2,0.5c1.5,0.6,3.1,1.1,4.8,1.6C-151.5,392.9-151.5,392.9-151.4,392.9z"/>
			<path class="st2" d="M-137.8,396.2l1.6,0.3c0,0,0,0,0.1,0c0.2,0,0.3-0.1,0.4-0.3c0-0.2-0.1-0.4-0.3-0.4l-1.6-0.3
				c-3.3-0.6-6.7-1.3-10-2.3c-0.2-0.1-0.4,0-0.5,0.2c-0.1,0.2,0,0.4,0.2,0.5C-144.5,394.9-141.1,395.6-137.8,396.2z"/>
			<path class="st2" d="M-128.2,398.3c0,0.2,0.1,0.4,0.3,0.4c6.1,1.3,12.6,2.9,18.9,5.3h0.1c0.1,0,0.3-0.1,0.3-0.2
				c0.1-0.2,0-0.4-0.2-0.5c-6.3-2.5-12.9-4-19-5.4C-128,398-128.1,398.1-128.2,398.3z"/>
			<path class="st2" d="M-149,431c-0.7,0.2-1.3,0.5-1.8,0.9c-0.2,0.1-0.2,0.3-0.1,0.5c0.1,0.1,0.2,0.2,0.3,0.2c0.1,0,0.1,0,0.2-0.1
				c0.5-0.3,1-0.6,1.6-0.8c0.2-0.1,0.3-0.3,0.2-0.5C-148.6,431-148.8,430.9-149,431z"/>
			<path class="st2" d="M-135.8,427.6c-1.5,0.1-3.1,0.2-4.5,1.3c-0.1,0-0.3,0-0.4,0.1c-0.5,0.1-1,0.2-1.6,0.3l-0.5,0.1
				c-0.7,0.1-1.3,0.3-1.8,0.5c-0.2,0.1-0.3,0.3-0.2,0.5c0,0.2,0.2,0.3,0.4,0.3h0.1c0.5-0.2,1.1-0.3,1.7-0.4l0.5-0.1
				c0.5-0.1,1-0.2,1.5-0.3c0.2,0,0.4-0.1,0.5-0.1c0.1,0,0.1,0,0.2-0.1c1.2-1,2.7-1.1,4.2-1.2c0.4,0,0.8,0,1.2-0.1
				c0.2,0,0.3-0.2,0.3-0.4c0-0.2-0.2-0.3-0.4-0.3C-135,427.6-135.4,427.6-135.8,427.6z"/>
			<path class="st2" d="M-120.6,423.4c-2.3,0.6-5,1.3-7.6,2l-0.4,0.1c0,0-0.1,0-0.1,0.1c-0.1,0.1-0.2,0.2-0.4,0.3
				c-0.6,0.5-1.4,0.7-2,0.7c-0.2,0-0.4,0.2-0.3,0.4c0,0.2,0.2,0.3,0.4,0.3l0,0c0.7,0,1.6-0.2,2.4-0.8c0.1-0.1,0.2-0.1,0.3-0.2
				l0.3-0.1c2.6-0.7,5.2-1.4,7.6-2c0.2-0.1,0.3-0.3,0.3-0.4C-120.2,423.5-120.4,423.4-120.6,423.4z"/>
			<path class="st2" d="M-109.1,420.7c-0.1-0.2-0.3-0.3-0.4-0.3l-5.8,1.5c-0.2,0.1-0.3,0.3-0.3,0.4c0,0.2,0.2,0.3,0.4,0.3h0.1
				l5.8-1.5C-109.2,421.1-109.1,420.9-109.1,420.7z"/>
			<path class="st2" d="M-178.2,412c-0.8,0-1.6,0-2.4,0c-0.2,0-0.4,0.2-0.4,0.4s0.2,0.4,0.4,0.4l0,0c0.9,0,1.6,0,2.4,0
				c0.2,0,0.4-0.2,0.4-0.4C-177.9,412.2-178,412-178.2,412z"/>
			<path class="st2" d="M-162.5,412.3c0.6,0,1.3-0.1,1.9-0.1c0.2,0,0.4-0.2,0.4-0.4c0-0.2-0.2-0.4-0.4-0.4c-0.6,0-1.3,0.1-1.9,0.1
				l-1,0.1c-2.6,0.3-5.3,0.3-8.1,0.3h-0.5h-0.4c-0.2,0-0.4,0.2-0.4,0.4s0.2,0.4,0.4,0.4h0.4h0.5c2.7,0,5.5,0,8.2-0.3L-162.5,412.3z"
				/>
			<path class="st2" d="M-137.5,412.3h0.5c2.5,0.1,5.1,0.1,7.7,0.2h0.5c1.9,0,3.6,0,5.2-0.1c0.2,0,0.4,0,0.5,0
				c1.6,0,3.2,0.1,4.9,0.1l0,0c0.2,0,0.4-0.2,0.4-0.4s-0.2-0.4-0.4-0.4c-1.6,0-3.2-0.1-4.9-0.1c-0.2,0-0.4,0-0.6,0
				c-1.6,0.1-3.3,0.1-5.2,0.1h-0.5c-2.6-0.1-5.2-0.2-7.7-0.2h-0.5c-6-0.2-11.4-0.2-16.9,0c-0.2,0-0.4,0.2-0.4,0.4
				c0,0.2,0.2,0.4,0.4,0.4C-148.9,412-143.5,412.1-137.5,412.3z"/>
			<path class="st2" d="M-109.7,412.8L-109.7,412.8c0.2,0,0.4-0.2,0.4-0.4c0-0.2-0.1-0.4-0.4-0.4c-2.1-0.1-4.2-0.2-6.3-0.3
				c-0.2,0-0.4,0.2-0.4,0.4s0.2,0.4,0.4,0.4C-113.8,412.6-111.8,412.7-109.7,412.8z"/>
			<path class="st2" d="M-163.1,462.7L-163.1,462.7c0.4-0.4,0.8-0.7,1.3-0.9c0.2-0.1,0.2-0.3,0.1-0.5c-0.1-0.2-0.3-0.2-0.5-0.1
				c-0.5,0.3-0.9,0.6-1.3,0.9c-0.1,0.1-0.2,0.1-0.3,0.2c-1,0.5-2,1-3.1,1.5c-0.2,0.1-0.3,0.3-0.2,0.5c0.1,0.1,0.2,0.2,0.3,0.2
				c0.1,0,0.1,0,0.2,0c1-0.5,2-1,3-1.5C-163.4,462.8-163.3,462.8-163.1,462.7z"/>
			<path class="st2" d="M-159.1,460.1c0.1,0,0.1,0,0.2-0.1c1-0.6,2.2-1.1,3.3-1.6l0.4-0.2c1.9-1,3.8-2.2,6.2-3.6
				c0.2-0.1,0.2-0.3,0.1-0.5c-0.1-0.2-0.3-0.2-0.5-0.1c-2.3,1.5-4.3,2.6-6.1,3.6l-0.4,0.2c-1.1,0.5-2.3,1-3.4,1.7
				c-0.2,0.1-0.2,0.3-0.1,0.5C-159.3,460-159.2,460.1-159.1,460.1z"/>
			<path class="st2" d="M-127.9,441.8l0.6-0.3c2.3-1.1,4.7-2.3,6.8-3.9c0.2-0.1,0.2-0.4,0.1-0.5c-0.1-0.2-0.4-0.2-0.5-0.1
				c-2,1.6-4.4,2.7-6.7,3.8l-0.6,0.3c-2.5,1.3-4.9,2.7-7.3,4.2l0.1,0.1c0.3,0,0.6,0,0.9,0v0.1C-132.3,444.2-130.1,443-127.9,441.8z"
				/>
			<path class="st2" d="M-135,445.9c-0.1,0-0.3,0-0.4,0c0,0.1,0,0.2,0,0.3C-135.3,446-135.1,445.9-135,445.9z"/>
			<path class="st2" d="M-141.3,449c-1.6,1-3.2,2-4.8,3c-0.2,0.1-0.2,0.3-0.1,0.5c0.1,0.1,0.2,0.2,0.3,0.2c0.1,0,0.1,0,0.2-0.1
				c1.6-1,3.2-2,4.8-3c1.8-1.2,3.5-2.3,5.3-3.4h-0.1c-0.1-0.1-0.1-0.3-0.2-0.4c0.2,0,0.3,0,0.5,0c0-0.1,0-0.3,0-0.4
				c-0.1,0-0.2,0-0.3,0C-137.5,446.6-139.4,447.8-141.3,449z"/>
			<path class="st2" d="M-118.7,435.6c-0.2,0.1-0.3,0.3-0.5,0.4c-0.2,0.1-0.2,0.4-0.1,0.5c0.1,0.1,0.2,0.1,0.3,0.1s0.2,0,0.2-0.1
				c0.2-0.1,0.3-0.3,0.4-0.4l0.4-0.3c2.6-1.6,5.1-2.9,7.6-4.3c0.2-0.1,0.2-0.3,0.2-0.5c-0.1-0.2-0.3-0.2-0.5-0.2
				c-2.6,1.3-5.1,2.7-7.7,4.3L-118.7,435.6z"/>
			<path class="st2" d="M-109.5,431.2c0.1,0,0.1,0,0.2,0l0.4-0.2c0.9-0.5,1.8-0.9,2.6-1.4c0.2-0.1,0.2-0.3,0.2-0.5
				c-0.1-0.2-0.3-0.2-0.5-0.2c-0.9,0.5-1.7,0.9-2.6,1.4l-0.4,0.2c-0.2,0.1-0.3,0.3-0.2,0.5C-109.7,431.2-109.6,431.2-109.5,431.2z"
				/>
		</g>
		<g>
			<path class="st2" d="M52.8,359.4c-2.3,1-4.3,2.1-6.2,3.2c-0.2,0.1-0.2,0.3-0.1,0.5c0.1,0.1,0.2,0.2,0.3,0.2s0.1,0,0.2,0
				c1.8-1,3.8-2.1,6.1-3.2c0.2-0.1,0.3-0.3,0.2-0.5S52.9,359.3,52.8,359.4z"/>
			<path class="st2" d="M12.4,384.5c0.1,0,0.1,0,0.2-0.1c5.1-3.3,11-6.9,16.8-10.4c3.5-2.1,6.9-4.1,10-6.1c1.1-0.7,2.2-1.5,3.3-2.2
				l1.5-1c0.2-0.1,0.2-0.3,0.1-0.5c-0.1-0.2-0.3-0.2-0.5-0.1l-1.5,1c-1.1,0.7-2.2,1.5-3.3,2.2c-3.2,2-6.5,4-10,6.1
				c-5.7,3.5-11.7,7-16.8,10.4c-0.2,0.1-0.2,0.3-0.1,0.5C12.1,384.5,12.3,384.5,12.4,384.5z"/>
			<path class="st2" d="M5.3,387.8c-0.1-0.2-0.3-0.2-0.5-0.1c-3.6,2.1-6.8,3.9-10,5.5l-0.4,0.2c-0.7,0.4-1.4,0.8-2.2,1.2
				c-0.2,0.1-0.2,0.3-0.1,0.5c0.1,0.1,0.2,0.2,0.3,0.2s0.1,0,0.2,0c0.7-0.4,1.5-0.8,2.2-1.2l0.4-0.2c3.1-1.6,6.4-3.4,10-5.5
				C5.3,388.2,5.4,388,5.3,387.8z"/>
			<path class="st2" d="M37,392.6c-2.7,0.7-5.2,1.3-7.6,2l-1.5,0.4c-2.4,0.8-4.9,1.5-7.5,2.1c-0.2,0-0.3,0.2-0.3,0.4
				s0.2,0.3,0.4,0.3h0.1c2.6-0.7,5.1-1.4,7.5-2.2l1.5-0.4c2.4-0.7,4.9-1.3,7.6-2c0.2-0.1,0.3-0.3,0.3-0.4
				C37.4,392.6,37.2,392.5,37,392.6z"/>
			<path class="st2" d="M14.5,399.2c-0.1-0.2-0.3-0.3-0.5-0.3c-2.6,0.7-5.2,1.3-7.7,1.8c-0.2,0-0.3,0.2-0.3,0.4s0.2,0.3,0.4,0.3
				c0,0,0,0,0.1,0c2.5-0.5,5.1-1.1,7.7-1.8C14.4,399.6,14.5,399.4,14.5,399.2z"/>
			<path class="st2" d="M2.1,401.9c0-0.2-0.2-0.3-0.4-0.3c-1.5,0.3-3,0.5-4.4,0.7l-1.8,0.4c-0.2,0.1-0.3,0.3-0.3,0.5
				c0,0.2,0.2,0.3,0.4,0.3h0.1l1.7-0.4c1.5-0.2,3-0.5,4.5-0.7C2,402.3,2.1,402.1,2.1,401.9z"/>
			<path class="st2" d="M31.3,430.3l-0.7-0.3c-1.5-0.5-3.1-1-5-1.5c-0.2-0.1-0.4,0.1-0.5,0.3c-0.1,0.2,0.1,0.4,0.3,0.5
				c1.8,0.5,3.5,1,4.9,1.5l0.7,0.3h0.1c0.2,0,0.3-0.1,0.3-0.2C31.6,430.6,31.5,430.4,31.3,430.3z"/>
			<path class="st2" d="M22.5,428.5C22.6,428.5,22.6,428.5,22.5,428.5c0.3,0,0.4-0.1,0.5-0.3c0.1-0.2-0.1-0.4-0.3-0.5
				c-3.3-0.9-6.6-1.8-10.3-2.8c-0.2-0.1-0.4,0.1-0.4,0.3c-0.1,0.2,0.1,0.4,0.3,0.4C15.9,426.7,19.2,427.5,22.5,428.5z"/>
			<path class="st2" d="M8.7,424l-4.6-1.2c-1.9-0.5-3.8-1-5.6-1.4h-0.1c-0.3-0.1-0.6-0.1-0.9-0.2l-1.9-0.5c-0.2,0-0.4,0.1-0.4,0.3
				c-0.1,0.2,0.1,0.4,0.3,0.5l1.9,0.5h0.1c0.3,0.1,0.6,0.1,0.9,0.2c1.8,0.4,3.7,0.9,5.6,1.4l4.6,1.2h0.1c0.2,0,0.3-0.1,0.4-0.3
				C9,424.3,8.9,424.1,8.7,424z"/>
			<path class="st2" d="M62.7,412.5c1.2,0,2.3,0,3.5,0.1l0,0c0.2,0,0.4-0.2,0.4-0.4s-0.2-0.4-0.4-0.4c-1.2,0-2.3,0-3.5-0.1
				c-0.2,0-0.4,0.2-0.4,0.4C62.4,412.3,62.5,412.4,62.7,412.5z"/>
			<path class="st2" d="M60.5,412.5h0.1c0.2,0,0.4-0.2,0.4-0.4s-0.2-0.4-0.4-0.4h-0.1c-2.1,0.1-4,0.1-6.2,0c-0.2,0-0.4,0.1-0.4,0.4
				c0,0.2,0.1,0.4,0.4,0.4c1.3,0.1,2.5,0.1,3.7,0.1C58.8,412.5,59.6,412.5,60.5,412.5z"/>
			<path class="st2" d="M50.1,412.4h0.7c0.2,0,0.4-0.2,0.4-0.4c0-0.2-0.2-0.4-0.4-0.4h-0.7c-2.1-0.1-4.3-0.1-6.6-0.1h-0.1h-0.1
				c-0.6,0.1-1.3,0.1-1.9,0.2v0.4v-0.4c-0.2,0-0.4,0.2-0.3,0.4c0,0.2,0.2,0.3,0.4,0.3l0,0h0.1c0.6-0.1,1.3-0.1,1.9-0.2v-0.4l0.1,0.4
				C45.7,412.3,47.9,412.3,50.1,412.4z"/>
			<path class="st2" d="M37.5,412.1c0-0.2-0.2-0.4-0.4-0.4c-2.8,0.1-5.5,0-7.8-0.1c-0.9,0-1.9-0.1-2.8-0.2c-4.5-0.3-9.2-0.5-13.7,0
				h-0.1c-1.4,0-2.7,0.1-4,0.2c-0.2,0-0.4,0.2-0.3,0.4c0,0.2,0.2,0.4,0.4,0.3c1.3-0.1,2.6-0.1,4-0.2H13c4.5-0.5,9.1-0.2,13.6,0
				c1,0.1,1.9,0.1,2.8,0.2l0,0l0,0c1.7,0.1,3.6,0.2,5.5,0.2c0.8,0,1.5,0,2.3,0C37.4,412.5,37.5,412.3,37.5,412.1z"/>
			<path class="st2" d="M-1.7,411.8c-0.8,0-1.6,0-2.4,0c-0.2,0-0.4,0.2-0.4,0.4c0,0.2,0.2,0.4,0.4,0.4c0.8,0,1.6,0,2.5,0l0,0h0.1
				c0.6-0.1,1.2-0.2,1.8-0.2c0.2,0,0.3-0.2,0.3-0.4s-0.2-0.3-0.4-0.3C-0.5,411.6-1.1,411.7-1.7,411.8z"/>
			<path class="st2" d="M52.5,463.8L51,463c-0.2-0.1-0.4,0-0.5,0.1c-0.1,0.2,0,0.4,0.1,0.5l1.5,0.8c0.1,0,0.1,0,0.2,0
				c0.1,0,0.3-0.1,0.3-0.2C52.8,464.1,52.7,463.9,52.5,463.8z"/>
			<path class="st2" d="M49.9,462.3l-2.2-1.3c-0.2-0.1-0.4,0-0.5,0.1c-0.1,0.2,0,0.4,0.1,0.5l2.2,1.3c0.1,0,0.1,0,0.2,0
				c0.1,0,0.3-0.1,0.3-0.2C50.2,462.6,50.1,462.4,49.9,462.3z"/>
			<path class="st2" d="M46.8,460.4l-4.3-2.6c-0.9-0.6-1.8-1.2-3.1-1.9l-0.1-0.1c-1.1-0.6-2.3-1.2-3.4-1.9c-0.2-0.1-0.4,0-0.5,0.1
				c-0.1,0.2,0,0.4,0.1,0.5c1.1,0.6,2.2,1.2,3.4,1.9H39c1.2,0.7,2.1,1.2,3,1.9h0.1l4.3,2.6c0.1,0,0.1,0.1,0.2,0.1
				c0.1,0,0.2-0.1,0.3-0.2C47,460.8,46.9,460.6,46.8,460.4z"/>
			<path class="st2" d="M31,451.4c-1.5-0.9-3-1.8-4.5-2.7l-0.2-0.1c-0.3-0.2-0.7-0.3-1-0.5h-0.1c-2.1-1.7-4.2-3-6.2-4.4l-1.2-0.8
				c-0.2-0.1-0.4-0.1-0.5,0.1s-0.1,0.4,0.1,0.5l1.2,0.8c2,1.3,4.2,2.7,6.2,4.4l0.1,0.1H25c0.4,0.2,0.7,0.4,1,0.5l0.1,0.1
				c1.5,0.9,3,1.8,4.5,2.7c0.1,0,0.1,0.1,0.2,0.1c0.1,0,0.2-0.1,0.3-0.2C31.2,451.8,31.2,451.6,31,451.4z"/>
			<path class="st2" d="M6.2,436.4L6,436.6L5.8,437c1.9,1,3.9,2,5.6,3.5c0.9,0.7,1.8,1.3,2.6,1.8c0.1,0,0.1,0.1,0.2,0.1
				c0.1,0,0.2-0.1,0.3-0.2c0.1-0.2,0.1-0.4-0.1-0.5c-0.7-0.5-1.6-1.1-2.5-1.7C10.1,438.4,8.1,437.4,6.2,436.4z"/>
			<polygon class="st2" points="6,436.7 6,436.6 6.1,436.4 			"/>
			<path class="st2" d="M-8.1,429.7c0.8,0.8,1.6,1.1,2.5,1.5c0.2,0.1,0.4,0.2,0.6,0.3h0.1c2.1,1.4,4.5,2.5,6.8,3.6c0,0,0.1,0,0.2,0
				c0.1,0,0.3-0.1,0.3-0.2c0.1-0.2,0-0.4-0.2-0.5c-2.3-1.1-4.6-2.1-6.7-3.6l-0.2-0.1c-0.2-0.1-0.4-0.2-0.6-0.3
				c-0.8-0.4-1.6-0.7-2.3-1.3c-0.1-0.1-0.4-0.1-0.5,0C-8.3,429.3-8.3,429.6-8.1,429.7z"/>
		</g>
		<path class="st3" d="M-68.2,357.7l0.3,1.4l0.4,0.6c0.2,0.3,0.3,0.6,0.4,0.9l0.2,0.8l3.7,4.2l3.9,1.1l1.2,0.2
			c0.2,0,0.4,0.1,0.6,0.2l0.7,0.3h0.1c0.3-0.1,0.5-0.1,0.8-0.1l2.4-0.1l1.4-0.3l2.4-1.1l1.8-1.1l1.6-1.8c0.3-0.7,0.8-1.2,1.4-1.6
			l0.2-1.1c0.1-0.2,0.1-0.5,0.2-0.7l0.8-1.8l0.5-2.3c0-0.2,0.1-0.4,0.2-0.5l-0.4-1c-0.1-0.3-0.2-0.6-0.2-0.8l-0.2-2.3l-0.4-1.3
			l-0.5-0.6c-0.2-0.2-0.4-0.5-0.5-0.8l-0.8-1.6l-1.6-1.7c-0.5-0.2-0.9-0.4-1.2-0.8l-0.2-0.4c-0.1-0.1-0.1-0.1-0.2-0.2
			c-0.4-0.1-0.8-0.3-1.1-0.6l-0.4-0.3h-0.2c-0.4-0.1-0.7-0.2-1-0.4l-0.3-0.2h-2l-0.2,0.1c-0.3,0.1-0.7,0.2-1,0.2
			c-0.6,0-1.2-0.2-1.7-0.5h-0.3l-3.4,0.8c-0.1,0-0.1,0-0.2,0l-1.5,1c-0.1,0.1-0.3,0.2-0.4,0.3l-1.1,0.5l-3.1,4.2l-1.2,3l-0.3,2.2
			v2.8l0.3,0.6C-68.3,357.3-68.3,357.5-68.2,357.7z"/>
		<g>
			<path class="st2" d="M-33,371.7l-0.5-0.2l-0.3-0.4h-0.7l0.8,1.5l-0.5,1l-1,0.5l0.4,0.9l-5.2,8.5l-1,1.5l-0.3,1.2l-1.1,1.8
				l-0.1,0.7l-0.8,0.8l-2.4,4.3l-1.2,1.3L-48,398l-2.6,4l-0.4,1.2l-0.8,0.9l-1.8,3.3l-0.7,0.9l-0.1,0.7l-0.6,0.9l-0.6,0.2h-0.8
				l-1.1-2.3l-2.6-4.2l-0.4-1.2l-2.8-4.1l-2.8-5.6l-2.3-2.9l-0.8-1.8l-0.1-0.7l-1.5-2l-1.9-3.2l-1.1-2.4l-2.6-4.1l-1.3-2.9l-1.5-1.9
				l-0.8-1.7l-0.1-0.7l-1.1-1.3v-1.3l-1-1.3l-0.1-1.1l-1-3l0.2-0.9l-0.9-2l-0.1-2.5l1.2-7.3l0.7-2.1l1.1-2.4l0.9-0.8l0.2-1.1l3-4.1
				l4.4-4.5l1.1-0.1l0.8-0.8l6-3l4.8-0.8l8-0.2l1.5,0.8l2.3,0.2l4,1.3l3.2,2l1.3,0.5l3.6,3.5l3.2,3.9l1,1.5l-0.2,1l1.4,1.6l1,2.3
				l1.2,5.7l0.2,5.2l-1,4l0.2,1.3l-0.6,1l-0.3,0.9l0.1,0.7l-1.3,1.5l-0.2,1.7l-1.5,2.5L-33,371.7z M-80.2,364.5h0.3v-0.4h-0.3V364.5
				z M-76.5,363.9l0.6-0.4h-0.4L-76.5,363.9z M-71.2,365.3l-0.5,0.2l0.3,0.3L-71.2,365.3z M-61.8,341.6l-1.9,1.3l-1.7,0.8l-3.6,4.9
				l-1.4,3.5l-0.3,2.7v3.4l0.5,1.1l0.4,1.8l0.7,1l0.4,1.3l4.1,4.6l0.4,0.4l4.6,1.3l1.3,0.2l1.6,0.6l1-0.3l2.5-0.1l1.8-0.4l2.7-1.2
				l2.1-1.3l2.1-2.4l0.2-0.5l1.1-0.6l0.5-2.4l0.9-1.9l0.5-2.5l0.5-0.8l-0.8-2.3l-0.2-2.5l-0.7-2.1l-0.9-1l-0.9-1.9l-1.7-1.8
				l-0.1-0.6l-1.1-0.2l-0.3-0.3l-0.1-0.6l-1.3-0.3l-0.5-0.4l-0.2-0.6l-0.6,0.2l-0.5-0.1l-1-0.6h-3.2l-0.6,0.2l-0.2-0.5l-2,0.1
				l-3.4,0.8L-61.8,341.6z M-58.7,329.5h0.4v-0.4h-0.4V329.5z M-58.7,382.2h0.6l-0.6-0.4V382.2z M-57.4,376.8l-0.2-0.4h-0.7l0.3,0.6
				L-57.4,376.8z M-57.4,337.5V337l-0.3-0.7l-0.4-0.3v0.7l0.2,0.5L-57.4,337.5z M-57.8,380.4h0.6v-0.6h-0.6V380.4z M-56.4,377.1
				l-0.3-0.4l-0.4,0.3L-56.4,377.1z M-56.8,331.5h0.6v-0.6h-0.4L-56.8,331.5z M-56.6,335.6l0.6,0.1l0.4-0.2l0.1-0.6l-0.7,0.2
				L-56.6,335.6z M-56.6,394.3l0.4-0.2l0.1-0.5l-0.4,0.2L-56.6,394.3z M-55.1,338.2l-0.2-0.6l-0.7-0.7l0.4,1L-55.1,338.2z
				 M-55.5,381.3l-0.1,0.4h0.9v-0.4l-0.2-0.2h-0.4L-55.5,381.3z M-54.9,375.3l0.1,0.6l0.3,0.3l0.7-0.1l0.7-0.8l-0.5-0.2h-0.8
				L-54.9,375.3z M-52.4,337.5h0.4l-0.2-0.8L-52.4,337.5z M-52.2,379.3h0.3l0.2-0.4l-0.5-0.2V379.3z M-50.6,332.9l-0.1-0.8l-0.4-0.5
				l-0.2,0.6l0.2,0.5L-50.6,332.9z M-50.6,381.1l0.4,0.4l0.7-0.1l0.2-0.5l-0.4-0.3l-0.6,0.1L-50.6,381.1z M-49.5,332.2l0.3,1
				l-0.1,1.8l-0.6,0.1l-0.5,0.6l0.8,0.2l1.2-1.6l0.2-0.6v-1.3l-0.7-0.3L-49.5,332.2z M-50,378.1l0.9-0.2l-0.4-1.1H-50l-0.2,0.7
				L-50,378.1z M-49.3,373.2l0.8,0.1l-0.3-0.5L-49.3,373.2z M-47.9,376.2l-0.7,0.2l0.4,0.1L-47.9,376.2z M-48.5,386.8l0.5-0.2
				l0.2-0.6l-0.5-0.1l-0.3,0.4L-48.5,386.8z M-47.7,374l-0.1-0.6l-0.4-0.1v0.5L-47.7,374z M-48.1,340.7l0.6-0.1l0.5-0.8l-0.7,0.1
				l-0.4,0.4L-48.1,340.7L-48.1,340.7z M-47.9,372.2l1.1-0.6l0.2-0.7l-0.1-0.5l-0.6-0.4l-0.3,1.8L-47.9,372.2z M-47.7,379.8l0.6,0.2
				l-0.4-0.6L-47.7,379.8z M-46.8,375.7l0.6-0.2l0.2-0.6l-0.7,0.1L-46.8,375.7z M-46.4,332.7h0.4v-0.3h-0.4V332.7z M-44.6,383.2
				l-0.6-0.1l-0.6-0.4l-0.3,0.5l0.4,0.3h0.6L-44.6,383.2z M-46,372.2l1.1,0.4l0.2-0.6l-0.3-0.4l-0.5-0.2l-0.4,0.2L-46,372.2z
				 M-44.7,342.4l0.4-0.4l0.1-1.3h-0.5L-45,342L-44.7,342.4z M-44.9,378.3l0.9,0.6l-0.1-0.6l-0.4-0.3L-44.9,378.3z M-44.4,369.7
				l0.5-0.2l0.3-1.1h-0.6l-0.3,0.3l-0.1,0.5L-44.4,369.7z M-44,335.8v0.4l0.6,0.2l-0.2-0.8L-44,335.8z M-43.5,373.7l0.3,0.4H-44v0.7
				h1.7v-1.6h-0.6l-0.4,0.2L-43.5,373.7z M-43.3,345.8l0.2,0.5l0.6-0.1l0.1-0.6H-43L-43.3,345.8z M-42.1,376.8l-0.4-0.6H-43l0.4,0.4
				L-42.1,376.8z M-42.8,341.4l0.2,1h0.7l0.3-1.1l0.3-0.4l-0.5-0.1L-42.8,341.4z M-42.4,382.2l0.3-0.5v-0.8h-0.7v1.1L-42.4,382.2z
				 M-41.9,337.8l0.5-0.2l0.3-0.5l-0.5-0.2l-0.4,0.4L-41.9,337.8z M-40.9,369l0.5-0.6l-0.5-0.8V367l0.7-0.6l0.2-0.5l-0.5-0.9
				l-0.6-0.1l-0.4,2v1.1l0.2,0.5L-40.9,369z M-41.3,371.1l0.9-0.2l0.2,0.5l-0.2,1l0.7-0.8l0.2-0.5v-0.7l-0.7,0.1l-1.3-0.5v0.7
				L-41.3,371.1z M-41.5,379.8l0.4-0.2l-0.4-0.3V379.8z M-40.4,347.9v-1.3l-0.7-0.2l-0.2,0.7l0.3,0.5L-40.4,347.9z M-40.8,344.1
				l-0.3-0.2l-0.1,0.4L-40.8,344.1z M-40.6,377.9l0.6-0.5l0.3-0.6l-0.6-0.2h-0.8l0.1,1L-40.6,377.9z M-40.6,374.7l1.5,0.4l-0.6-0.6
				v-1.1l-0.7-0.1l-0.2,0.6V374.7z M-40.4,362.4v0.7l0.5,0.4h0.5l0.3-0.5l-0.8-0.7L-40.4,362.4z M-40.2,350.9l0.3,0.5l0.5,0.2
				l0.5-0.2l-0.4-0.9l-0.5-0.2L-40.2,350.9z M-40,344.5h0.5v-0.6H-40V344.5z M-39.4,348.3l1.1-0.4l0.2-0.5l-0.7-0.1l-0.4,0.5
				L-39.4,348.3z M-39.2,339.8h0.4v-0.4h-0.4V339.8z M-37.9,370l-0.1-0.7l-0.6-0.4l-0.6,0.2l0.6,0.8L-37.9,370z M-38.4,372.4V372
				l-0.5,0.1L-38.4,372.4z M-38.6,357.9l0.9-0.4l-0.6-0.5l-0.2,0.3L-38.6,357.9z M-37.2,355.6l0.1-0.7l0.6-0.1l0.3-0.3h-0.7l-1-0.4
				l-0.2,0.7l0.3,0.5L-37.2,355.6z M-36.4,364.6l-0.5-1.1l-1-0.5l0.3,1.2l0.5,0.3L-36.4,364.6z M-37.7,346l0.6-0.2l0.1-0.6l-0.6,0.1
				L-37.7,346z M-37.3,349.9l0.7,0.2l-0.1-0.6l-0.3-0.3L-37.3,349.9z M-37,353.4l0.5-0.1l0.1-0.5l-0.4-0.2L-37,353.4z M-35.9,358.8
				v-0.5l-0.5,0.2L-35.9,358.8z M-35,347.4l-0.3-0.7h-0.5l0.3,0.5L-35,347.4z M-34.5,366v-0.7l-0.5,0.4L-34.5,366z M-34.7,363.5
				l1.5-0.1l-0.2-0.5l-1.1-0.3l-0.1,0.4L-34.7,363.5z M-33.5,360.1l0.2-0.5l-0.1-0.6l-0.5-0.2l-0.2,0.5l0.2,0.5L-33.5,360.1z
				 M-33.4,351.1h0.4v-0.4h-0.4V351.1z M-33.4,354.3l0.2,1.2l0.6,0.5l0.3-0.8l-0.5-0.4l0.6-0.1l0.1-0.6l-0.7-0.2L-33.4,354.3z
				 M-31.1,361.1h-1l0.2,0.7l0.5-0.1L-31.1,361.1z M-31.1,352.8l-0.2-0.5h-0.6l0.2,0.6L-31.1,352.8z M-31.3,363.2l-0.6,0.2l0.3,0.3
				L-31.3,363.2z"/>
		</g>
		<path class="st2" d="M-77.2,464.1c0.5-0.2,0.6,0.4,0.4,0.7c1.1,1.9,1.3,3.8,3,4.5c2.6,1.1,4.6-2.1,8.9-1.1c4.3,0.7,5,4.4,7.8,4.4
			c1.5,0,2.4-1.1,3.6-2.2c0.1-0.2,0.3-0.4,0.5-0.5c0.6-0.5,1.2-0.9,2-1.2c0-0.3,0.2-0.7,0.3-0.8c0.4-0.1,0.4,0.2,0.7,0.2
			c0,0.1,0,0.1-0.1,0.2c0.2-0.1,0.5-0.1,0.8-0.2c4.3-1.1,6.3,2.1,8.9,1.1c2.6-1.1,1.8-4.8,5.5-7c3.5-2.6,6.7-0.5,8.6-2.4
			c2-2-0.2-5.1,2.4-8.6c2.3-3.8,6-3,7-5.5c1.1-2.6-2.1-4.6-1.1-8.9c0.7-4.3,4.4-5,4.4-7.8l0,0c0-2.8-3.7-3.5-4.4-7.8
			c-1.1-4.3,2.1-6.3,1.1-8.9c-1.1-2.6-4.8-1.8-7-5.5c-2.6-3.5-0.5-6.7-2.4-8.6c-2-2-5.1,0.2-8.6-2.4c-2.2-1.3-2.9-3.2-3.5-4.7l0,0
			c-0.1,0.7-0.4,1.3-0.9,1.8l-0.6,0.6l-2.3,4.2c-0.1,0.2-0.3,0.4-0.5,0.6l-0.9,1l-1,2.5c-0.1,0.2-0.2,0.4-0.3,0.6l-2.5,4l-0.3,0.9
			c-0.1,0.4-0.4,0.8-0.7,1.1l-0.7,0.7l-1.8,3.2c-0.1,0.1-0.2,0.3-0.3,0.4l-0.2,0.3c-0.1,0.4-0.2,0.9-0.5,1.3l-0.7,1
			c-0.4,0.6-1,1-1.7,1.3l-0.7,0.2c-0.3,0.1-0.7,0.2-1,0.2h-0.9c-1.2,0-2.3-0.7-2.9-1.8l-1.2-2.3l-2.7-4.4c-0.1-0.2-0.2-0.4-0.3-0.7
			l-0.3-0.9l-2.7-4.1c-0.1-0.1-0.2-0.3-0.2-0.4l-2.8-5.8l-2.2-2.8c-0.2-0.2-0.3-0.4-0.4-0.7l-0.9-2c-0.1-0.3-0.2-0.5-0.2-0.8
			l-0.9-1.2c-1.6,1.4-1.4,4.6-4.7,6.5c-3.5,2.6-6.7,0.5-8.6,2.4c-2,2,0.2,5.1-2.4,8.6c-0.4,0.6-0.8,1.1-1.2,1.5h0.1
			c0,0.2-0.2,0.2-0.2,0.5c-0.2,0-0.3,0-0.5,0c-2.1,1.6-4.4,1.6-5.2,3.5c-1.1,2.6,2.1,4.6,1.1,8.9c-0.7,4.3-4.4,5-4.4,7.8l0,0
			c0,2.8,3.7,3.5,4.4,7.8c1.1,4.3-2.1,6.3-1.1,8.9c1.1,2.6,4.8,1.8,7,5.5c2.6,3.5,0.5,6.7,2.4,8.6c2,2,5.1-0.2,8.6,2.4
			C-78.3,462.7-77.7,463.4-77.2,464.1L-77.2,464.1z M-18.4,414.6c0.2,0,0.3,0,0.5,0c0,0.2,0,0.3,0,0.5c-0.2,0-0.3,0-0.5,0
			C-18.4,414.9-18.4,414.7-18.4,414.6z M-19.6,421.7c0.2,0,0.3,0,0.5,0c0,0.2,0,0.3,0,0.5c-0.2,0-0.3,0-0.5,0
			C-19.6,422-19.6,421.8-19.6,421.7z M-18.7,433.3c-0.5,0.2-0.6,0.8-1.4,0.7C-20.1,433.3-19.2,433.4-18.7,433.3z M-21.3,433
			c0.2,0,0.3,0,0.5,0c0,0.2,0,0.3,0,0.5c-0.2,0-0.3,0-0.5,0C-21.3,433.4-21.3,433.2-21.3,433z M-22.4,423.3c0.1,0.1-0.2,0.3-0.2,0.2
			C-22.8,423.5-22.5,423.3-22.4,423.3z M-23.2,438.3c0,0.2-0.3,0.2-0.5,0.2C-23.6,438.3-23.3,438.3-23.2,438.3z M-24.6,440.9
			c-0.1,0.4-0.4,0.5-0.9,0.5C-25.6,440.6-24.9,440.5-24.6,440.9z M-34.8,451.7c-0.4-0.1-0.5-0.4-0.5-0.9c0.2,0,0.5,0,0.7,0
			C-34.4,451.3-34.7,451.4-34.8,451.7z M-34.8,438.5c-0.1-0.5,1.1-0.3,0.7,0.2c-0.2,0-0.3,0-0.5,0
			C-34.5,438.5-34.6,438.5-34.8,438.5z M-33.6,441.1c-0.2,0-0.3,0-0.5,0c0-0.2,0-0.3,0-0.5c0.2,0,0.3,0,0.5,0
			C-33.6,440.8-33.6,440.9-33.6,441.1z M-26.7,416.2c0.2,0,0.3,0,0.5,0c0,0.2,0,0.3,0,0.5c-0.2,0-0.3,0-0.5,0
			C-26.7,416.6-26.7,416.4-26.7,416.2z M-26.7,431.6c0.5-0.1,0.5,0.3,0.5,0.7c-0.2,0-0.2-0.2-0.5-0.2
			C-26.7,431.9-26.7,431.8-26.7,431.6z M-27.7,432.3c-0.1-0.1,0.2-0.3,0.2-0.2C-27.3,432.2-27.6,432.4-27.7,432.3z M-27.9,430.9
			c0.3,0.1,0.5,0.3,0.5,0.7C-28.2,431.8-28.2,431.3-27.9,430.9z M-27.9,433.3c-0.2,0.1-0.4,0.3-0.5,0C-28.3,433-27.9,433-27.9,433.3
			z M-28.8,452c0.1,0.1-0.2,0.3-0.2,0.2C-29.2,452.1-28.9,451.9-28.8,452z M-31.5,443.7c0.1,0.1-0.2,0.3-0.2,0.2
			C-31.8,443.8-31.5,443.6-31.5,443.7z M-32.2,432.3c0-0.2,0-0.3,0-0.5c0.2,0,0.3,0,0.5,0c0,0.2,0,0.3,0,0.5
			C-31.8,432.3-32,432.3-32.2,432.3z M-31.9,410.3c-0.6,0.2-0.5-0.5-0.9-0.5c-0.7-0.1-0.9,0.8-1.4,0.2c0.2-1,1.6-0.8,2.4-1.2
			C-31.6,409.2-31.6,410-31.9,410.3z M-33.6,408.7c0-0.3,0.2-0.1,0.2,0C-33.4,408.9-33.6,408.8-33.6,408.7z M-32.4,399.9
			c0.7-0.3,0.7,1.1,0,0.7C-32.4,400.4-32.4,400.1-32.4,399.9z M-34.1,397.1c0.2,0,0.5,0,0.7,0c0.1,0.4-0.2,0.4-0.2,0.7
			c-0.2,0-0.3,0-0.5,0C-34.1,397.5-34.1,397.3-34.1,397.1z M-34.1,407.7c0.2-0.2,0.5-0.3,0.9-0.2c0,0.2,0,0.5,0,0.7
			C-33.5,408.1-34.3,408.4-34.1,407.7z M-35.2,409.4c-0.1-0.8,0.3-1.1,0.9-1.2C-34.2,409-34.6,409.3-35.2,409.4z M-34.5,396.8
			c0.2,0.7-0.6,0.5-0.5,1.2C-35.5,397.8-35.2,396.5-34.5,396.8z M-36.9,428.8c0.4-0.1,0.4,0.2,0.7,0.2c0.1,0.6-0.3,0.8-0.9,0.7
			C-37.2,429.2-37,429.1-36.9,428.8z M-37.8,393.7c0.2,0,0.3,0,0.5,0c0,0.2,0,0.3,0,0.5c-0.2,0-0.3,0-0.5,0
			C-37.8,394.1-37.8,393.9-37.8,393.7z M-38.1,433C-37.2,433.8-38.8,433.8-38.1,433L-38.1,433z M-37.4,455.1
			c0.2,0.8-0.4,0.9-0.9,0.9C-38.4,455.3-38.1,454.9-37.4,455.1z M-39,462.4c1.5-0.5,1.5,1.7,0,1.2C-39,463.2-39,462.8-39,462.4z
			 M-51.4,461.9c0-0.2,0.3-0.2,0.5-0.2C-50.9,461.9-51.2,461.9-51.4,461.9z M-51.8,453.6c0-0.2,0-0.5,0-0.7c0.2,0,0.5,0,0.7,0
			c0,0.2,0,0.5,0,0.7C-51.4,453.6-51.6,453.6-51.8,453.6z M-49.7,466.2c-0.2,0-0.3,0-0.5,0c-0.1-0.4,0.2-0.4,0.2-0.7
			C-49.4,465.6-49.4,465.8-49.7,466.2z M-48.7,465c-0.2,0-0.3,0-0.5,0c0-0.2,0-0.5,0-0.7c0.2,0,0.5,0,0.7,0
			C-48.4,464.7-48.7,464.7-48.7,465z M-48.3,462.9c0-0.2,0-0.3,0-0.5c0.2,0,0.2-0.1,0.2-0.2C-47.6,462.1-47.7,463.2-48.3,462.9z
			 M-48.5,456c0-0.2,0-0.5,0-0.7c0.5,0,0.8,0.2,0.7,0.7C-48,456-48.3,456-48.5,456z M-47.6,460.7c0-0.3,0.2-0.1,0.2,0
			C-47.4,461-47.6,460.9-47.6,460.7z M-46.9,465c0-0.2,0-0.5,0-0.7c0.5,0,0.8,0.2,0.7,0.7C-46.4,465-46.6,465-46.9,465z
			 M-46.4,456.5c0-0.3,0.2-0.1,0.2,0C-46.2,456.7-46.4,456.6-46.4,456.5z M-45.7,457.7c-0.2,0-0.3,0-0.5,0c0-0.2,0-0.3,0-0.5
			c0.2,0,0.3,0,0.5,0C-45.7,457.3-45.7,457.5-45.7,457.7z M-45.4,455.1c-0.2,0-0.3,0-0.5,0c0-0.2,0-0.3,0-0.5c0.2,0,0.3,0,0.5,0
			C-45.4,454.7-45.4,454.9-45.4,455.1z M-41.2,464.8c-0.2,0-0.3,0-0.5,0c0-0.2,0-0.3,0-0.5c0.2,0,0.3,0,0.5,0
			C-41.2,464.4-41.2,464.6-41.2,464.8z M-40.2,438c0.1,0.1-0.2,0.3-0.2,0.2C-40.6,438.1-40.3,438-40.2,438z M-40,439.7
			c-0.2,0-0.3,0-0.5,0c0-0.2-0.1-0.2-0.2-0.2C-40.8,439-39.6,439.1-40,439.7z M-40.7,410.8c0.1,0.5-0.2,0.6-0.2,0.9
			C-41.6,411.7-41.5,410.6-40.7,410.8z M-41.9,458.1c0.5,0.1,0.5,0.6,0.2,0.9C-42.2,459-42.2,458.5-41.9,458.1z M-42.1,411.3
			c-0.2,0.1-0.4,0.3-0.5,0C-42.5,411-42.1,411-42.1,411.3z M-43.1,434.9c0.5,0,0.8,0.2,0.7,0.7c-0.2,0-0.5,0-0.7,0
			C-43.1,435.4-43.1,435.2-43.1,434.9z M-42.8,436.6c-0.1-0.1,0.2-0.3,0.2-0.2C-42.5,436.5-42.8,436.7-42.8,436.6z M-43.1,440.1
			c0.2,0,0.3,0,0.5,0c0,0.2,0,0.5,0,0.7c-0.2,0-0.5,0-0.7,0C-43.4,440.5-43.1,440.4-43.1,440.1z M-42.4,464.3
			c-1.1,0.1-1.6-0.4-1.2-1.2C-42.7,463-42.5,463.7-42.4,464.3z M-44.2,438.7c0.2,0,0.5,0,0.7,0c0.1,0.4-0.2,0.4-0.2,0.7
			c-0.2,0-0.3,0-0.5,0C-44.2,439.2-44.2,439-44.2,438.7z M-44.2,441.3c0,0.2-0.3,0.2-0.5,0.2C-44.7,441.3-44.4,441.4-44.2,441.3z
			 M-44.5,450.8c0.1,0.1-0.2,0.3-0.2,0.2C-44.8,450.9-44.5,450.7-44.5,450.8z M-44.5,462.2c0.9,0.2,0.4,1.6-0.5,1.4
			C-45.5,463.1-44.7,462.7-44.5,462.2z M-45.4,450.6c0,0.3-0.2,0.1-0.2,0C-45.6,450.3-45.4,450.4-45.4,450.6z M-45.7,452.9
			c0.2,0,0.2-0.1,0.2-0.2c0.5-0.1,0.3,1.1-0.2,0.7C-45.7,453.2-45.7,453.1-45.7,452.9z M-45.9,451.7c-0.2,0-0.3,0-0.5,0
			c0-0.2-0.1-0.2-0.2-0.2C-46.7,451-45.5,451.2-45.9,451.7z M-46.6,447c0.8-0.2,0.8,0.8,0.5,1.2C-47,448.4-47,447.4-46.6,447z
			 M-45.9,439.7c-0.2,0.4-0.4,0.8-1.2,0.7C-47.2,439.6-46.6,439.6-45.9,439.7z M-47.3,441.3c0.9-0.2,0.9,1.1,0,0.9
			C-47.7,441.8-47.3,442-47.3,441.3z M-46.6,450.3c-0.4-0.2-1.3,0-1.2-0.7C-47.4,449.8-46.5,449.6-46.6,450.3z M-47.1,453.2
			c-0.3,0.3-0.1,1.1-0.5,1.4c-0.8,0.2-0.9-0.4-1.7-0.2c-0.2-0.7,0.4-0.7,0.2-1.4C-48.1,452.5-47.8,453-47.1,453.2z M-48.7,460.3
			c0,0.3-0.2,0.1-0.2,0C-48.9,460-48.7,460.1-48.7,460.3z M-49.2,446.1c0-0.2,0-0.3,0-0.5c0.5-0.1,0.5,0.3,0.5,0.7
			C-48.9,446.3-49,446.1-49.2,446.1z M-49.5,415.5c0,0.3-0.2,0.1-0.2,0C-49.6,415.3-49.5,415.4-49.5,415.5z M-49.5,437.3
			c0.2,0.1,0.4,0.2,0.7,0.2c0.1,0.7-0.2,1.1-0.9,0.9C-50,437.7-49.8,437.9-49.5,437.3z M-49.2,458.1c-0.5,0.1-0.6-0.2-0.9-0.2
			C-50.1,457.2-49,457.3-49.2,458.1z M-49.5,462.6c-0.4-0.4-0.3-1.5,0.2-1.7c0.8,0.2,0.2,0.9,0.2,1.2c0.1,0.5,0.4,0.6,0.5,1.2
			c-0.6,0.3-0.6,1.1-1.7,0.9C-50.2,463.5-50,462.9-49.5,462.6z M-50.2,464.5c0.2,0,0.3,0,0.5,0c0.1,0.5-0.3,0.5-0.7,0.5
			C-50.4,464.8-50.2,464.8-50.2,464.5z M-49.9,466.9c0,0.2,0,0.3,0,0.5C-51.1,467.6-50.4,466.1-49.9,466.9z M-50.6,452
			c-0.1,0.5-0.6,0.5-0.9,0.2C-51.5,451.7-51,451.7-50.6,452z M-52.1,442.8c0.2,0,0.3,0,0.5,0c0,0.2,0,0.3,0,0.5c-0.2,0-0.3,0-0.5,0
			C-52.1,443.1-52.1,442.9-52.1,442.8z M-52.1,469c-0.1,0.3-0.6,0.2-0.9,0.2C-52.9,468.7-52.4,468.7-52.1,469z M-71,410.8
			c0.4-0.1,0.4,0.2,0.7,0.2C-70.2,411.5-71.4,411.4-71,410.8z M-70.3,406.1c0.4-0.6,1.6,0,1.2,0.9c-0.3,0-0.6,0-0.9,0
			C-70.1,406.6-70,406.1-70.3,406.1z M-69.8,462.9c0.3,0.1,0.5,0.3,0.5,0.7C-70.2,463.8-70.2,463.2-69.8,462.9z M-69.4,450.6
			c0.1-0.3,0.2,0,0.5,0C-68.9,450.9-69.4,450.8-69.4,450.6z M-67.5,464.3C-66.7,463.7-68,465.1-67.5,464.3L-67.5,464.3z
			 M-67.7,462.6c0-0.2,0-0.5,0-0.7c0.5-0.1,0.6,0.2,0.9,0.2C-66.8,462.6-67.2,462.7-67.7,462.6z M-65.3,467.6c0-0.3,0.2-0.1,0.2,0
			C-65.1,467.9-65.3,467.7-65.3,467.6z M-64.9,465.2c-1.5,0.4-0.7-1.7-1.9-0.9c-0.2-0.5,0.3-0.3,0.5-0.5c0.6-0.4,0.8-0.6,1.4-0.9
			c0.6,0.1,0,0.9-0.2,0.9C-64.6,464-64.4,464.8-64.9,465.2z M-63.9,460.3c0.2,0,0.5,0,0.7,0c-0.2,0.7,0.3,0.6,0.2,1.2
			c-1.1,0-1.4,1.4-2.1-0.2C-63.9,461.7-64.3,461-63.9,460.3z M-64.9,456.7c0.3-0.9,1.1,0.3,0.5,0.5
			C-64.5,457.2-64.9,456.9-64.9,456.7z M-63.9,457c0.4,0,0.9-0.1,0.9,0.2C-62.7,458-64.4,457.8-63.9,457z M-64.6,466.2
			c0-0.3,0.2-0.1,0.2,0C-64.4,466.5-64.6,466.3-64.6,466.2z M-63.7,465.5c0.1-0.3,0.5-0.2,0.5,0C-63.3,465.8-63.4,465.5-63.7,465.5z
			 M-63.4,463.3c0.2-0.5,0.8-0.6,0.9-1.2c0.3,0.2,0.5,0.6,0.9,0.7c0.2,0.6-0.5,0.5-0.5,0.9C-62.6,463.5-62.5,462.8-63.4,463.3z
			 M-63,440.1c0-0.2,0.3-0.2,0.5-0.2C-62.5,440.1-62.8,440.1-63,440.1z M-62.7,465.2c0-0.2,0-0.5,0-0.7
			C-62,464.2-62,465.6-62.7,465.2z M-61.8,463.8c0.5,0.1,0.5,0.4,0.2,0.7c-0.2,0-0.3,0-0.5,0C-62.1,464.1-61.8,464.1-61.8,463.8z
			 M-60.8,466.9c-0.4-0.5-1.6-1-0.9-1.9c0.6,0.4,1.5,0.6,1.4,1.7C-60.6,466.6-60.8,466.7-60.8,466.9z M-60.4,460.7
			c-0.2,0-0.3,0-0.5,0c0-0.2,0-0.3,0-0.5c0.2,0,0.3,0,0.5,0C-60.4,460.4-60.4,460.6-60.4,460.7z M-60.4,456.5
			C-59.6,455.9-60.9,457.3-60.4,456.5L-60.4,456.5z M-60.4,459.1c0.5-0.5,1.3,0.1,1.4,0.7C-59.5,460.4-60.3,459.7-60.4,459.1z
			 M-59.2,464.8c-0.6-0.1-0.5-0.6-0.2-0.9C-58.9,463.9-58.9,464.5-59.2,464.8z M-58.7,465.2c0.7,0,0.8,0.7,0.5,0.9
			C-58.5,466-58.7,465.7-58.7,465.2z M-57.3,435.4c0-0.3,0.2-0.1,0.2,0C-57.1,435.7-57.3,435.5-57.3,435.4z M-54.2,438
			c-0.2,0.1-0.4,0.3-0.5,0C-54.6,437.7-54.2,437.8-54.2,438z M-55.1,465.7c0.5-0.1,0.7,0,0.7,0.5c-0.2,0-0.5,0-0.7,0
			C-55.1,466-55.1,465.9-55.1,465.7z M-55.6,467.4c0.2,0,0.5,0,0.7,0c0.1,0.4-0.2,0.4-0.2,0.7c-0.2,0-0.3,0-0.5,0
			C-55.6,467.8-55.6,467.6-55.6,467.4z M-54,468.1c0.6,0.5-0.6,0.7,0,1.4c-1-0.3-1.4,0-2.4,0.2c0-0.3,0-0.6,0-0.9
			C-55.3,468.8-54.6,468.5-54,468.1z M-56.1,468.1c0.1,0.1-0.2,0.3-0.2,0.2C-56.5,468.2-56.2,468-56.1,468.1z M-56.8,421.2
			c0.2,0,0.3,0,0.5,0c0,0.2,0,0.3,0,0.5c-0.2,0-0.3,0-0.5,0C-56.8,421.5-56.8,421.4-56.8,421.2z M-57.5,417.2c0.7-0.3,0.7,1.1,0,0.7
			C-57.5,417.7-57.5,417.4-57.5,417.2z M-58.2,466.7c0-0.2,0.3-0.2,0.5-0.2C-57.8,466.7-58,466.6-58.2,466.7z M-58.5,442
			c0.2,0,0.3,0,0.5,0c0,0.2,0,0.3,0,0.5c-0.2,0-0.3,0-0.5,0C-58.5,442.4-58.5,442.2-58.5,442z M-59.9,461.5
			c-0.2-0.9,0.8-0.5,0.9-0.9c0.4,0.2,0.3,0.8,0.5,1.2C-59.3,462.1-59,461.5-59.9,461.5z M-58.9,433.3c-0.2,0-0.5,0-0.7,0
			c0-0.2,0-0.3,0-0.5C-59.2,432.7-58.9,432.9-58.9,433.3z M-60.4,421.4c0.3,0,0.6,0,0.9,0c0.1,0.5,0,0.9-0.2,1.2
			C-60.4,422.7-60.4,422.1-60.4,421.4z M-60.8,423.3c0.6-0.1,1,0.1,0.9,0.7C-60.3,424.5-61,424.2-60.8,423.3z M-60.8,462.6
			c-0.3,0.5-1.7-0.5-0.9-0.9C-61.2,461.7-61.4,462.6-60.8,462.6z M-61.5,461.5c-0.2,0-0.5,0-0.7,0c0-0.2,0-0.3,0-0.5
			C-61.8,460.9-61.5,461-61.5,461.5z M-63.2,428.8c0.4,0,0.9-0.1,0.9,0.2C-62,429.9-63.7,429.7-63.2,428.8z M-63,452.5
			c-0.3,0.3-0.8,0.3-1.4,0.2c0-0.3-0.1-0.4-0.2-0.5c-0.2-0.6,0.5-0.5,0.5-0.9C-63.5,451.4-62.8,451.5-63,452.5z M-63.7,450.1
			c0,0.2,0,0.5,0,0.7c-0.2,0-0.5,0-0.7,0c0-0.2,0-0.5,0-0.7C-64.1,450.1-63.9,450.1-63.7,450.1z M-65.1,412.2c0.3,0,0.6,0,0.9,0
			C-64,413.1-65.3,413.1-65.1,412.2z M-65.3,452.9c0.5-0.1,0.6,0.2,0.9,0.2c0.2,0.8-0.6,0.5-0.7,0.9
			C-65.7,454.1-65.7,453.2-65.3,452.9z M-66,448c-0.6,0-0.3-0.9-0.9-0.9c0.2-0.6,1,0.2,1.4,0.2C-65.7,447.6-66,447.6-66,448z
			 M-66.8,439.4c0.4-0.1,0.4,0.2,0.5,0.5c-0.2,0-0.2,0.1-0.2,0.2C-66.8,440.1-66.7,439.7-66.8,439.4z M-66.8,407.2
			c0.3,0.1,0.5,0.3,0.5,0.7C-67.1,408.2-67.1,407.6-66.8,407.2z M-66.5,415.5c0.1,0.7-0.2,1.1-0.9,0.9
			C-67.8,415.7-67.5,415.4-66.5,415.5z M-67.2,430.2c0,0.2,0,0.3,0,0.5C-68.4,430.9-67.7,429.4-67.2,430.2z M-68.6,451.3
			C-67.9,450.7-69.2,452.1-68.6,451.3L-68.6,451.3z M-68.4,420c0,0.2-0.3,0.2-0.5,0.2C-68.9,420-68.6,420.1-68.4,420z M-68.9,403.9
			c0.2,0.6-0.5,0.5-0.5,0.9c-0.7-0.2-1-0.7-1.2-1.4C-69.7,403.3-69.4,403.7-68.9,403.9z M-71,406.3c0.3,0.1,0.4,0.4,0.7,0.5
			c-0.1,0.3-0.5,0.2-0.5,0.5C-71.3,407.2-71.3,406.6-71,406.3z M-71,460.3c-0.1,0.3-0.3,0.5-0.7,0.5
			C-71.8,460.2-71.4,460.3-71,460.3z M-73.6,428.8C-72.9,427.9-72.8,429.5-73.6,428.8L-73.6,428.8z M-73.4,420.5
			c0.1,0.1-0.2,0.3-0.2,0.2C-73.7,420.6-73.5,420.4-73.4,420.5z M-75.5,436.4c-0.2,0-0.3,0-0.5,0c0-0.2,0-0.3,0-0.5
			c0.2,0,0.3,0,0.5,0C-75.5,436-75.5,436.2-75.5,436.4z M-74.8,416.5c0.7-0.3,0.7,1.1,0,0.7C-74.8,416.9-74.8,416.7-74.8,416.5z
			 M-74.6,433.3c0.1,0.1-0.2,0.3-0.2,0.2C-74.9,433.4-74.6,433.2-74.6,433.3z M-76,410.1c0.1-0.3,0.6-0.2,0.7,0
			C-75.1,410.6-76.1,410.6-76,410.1z M-93.8,416c-0.1,0-0.5-0.3-0.5-0.5C-93.9,414.7-93.1,415.8-93.8,416z M-94,416.9
			c0,0.3-0.2,0.1-0.2,0C-94.2,416.7-94,416.8-94,416.9z M-94.5,410.8c0.3,0.1,0.5,0.3,0.5,0.7C-94.8,411.7-94.8,411.1-94.5,410.8z
			 M-95.9,443c0-0.3,0.2-0.1,0.2,0C-95.7,443.3-95.9,443.1-95.9,443z M-96.4,434.5c-0.1-0.5,0-0.9,0.2-1.2c0.2,0,0.5,0,0.7,0
			C-95.3,434.1-95.5,434.6-96.4,434.5z M-94.7,420.5c0.3,0.1,1.2-0.3,1.2,0.2C-93.4,421.7-94.9,421.1-94.7,420.5z M-92.6,440.9
			c-0.5,0.1-0.6-0.2-0.9-0.2c0.1-0.4,0.4-0.5,0.9-0.5C-92.6,440.4-92.6,440.6-92.6,440.9z M-87.6,404.2c0.6-0.1,0.8,0.3,0.7,0.9
			c-0.3,0-0.6,0-0.9,0C-87.9,404.6-87.7,404.5-87.6,404.2z M-89.5,407c-0.1,0.3-0.2,0-0.5,0C-89.9,406.7-89.5,406.8-89.5,407z
			 M-90,408.4c0.2,0,0.3,0,0.5,0c0,0.2,0,0.3,0,0.5c-0.2,0-0.3,0-0.5,0C-90,408.7-90,408.6-90,408.4z M-90.4,408.9
			c0.8,0.1,0.8,0.9,1.7,0.9c-0.1,0.7-1,1.3-1.7,0.7c0-0.4,0.3-0.5,0.2-0.9c-0.2,0.2-0.2,0.5-0.7,0.5
			C-91,409.5-90.5,409.3-90.4,408.9z M-89.3,411.5c0.1,0.9-0.5,1.3-1.4,1.2C-90.8,411.7-90.3,411.3-89.3,411.5z M-90.4,413.9
			c0-0.2,0-0.3,0-0.5c0.5-0.1,0.7,0,0.7,0.5C-90,413.9-90.2,413.9-90.4,413.9z M-90.2,429.3c-0.1-0.7,0.2-1.1,0.9-0.9
			C-89.1,429.1-89.5,429.4-90.2,429.3z M-89.5,415.5c0.3,0,0.6,0,0.9,0c0,0.3,0,0.6,0,0.9C-89.4,416.7-89.7,416.3-89.5,415.5z
			 M-89,428.5c-0.1-0.5,0.3-0.5,0.7-0.5C-88.4,428.4-88.6,428.6-89,428.5z M-87.8,429c0.8-0.2,0.8,0.8,0.5,1.2
			C-88,430.1-88.3,429.5-87.8,429z M-87.4,434.9c-0.2,0-0.2,0.1-0.2,0.2c-0.3,0-0.2-0.4-0.2-0.7C-87.4,434.4-87.4,434.6-87.4,434.9z
			 M-87.8,439.2c0-0.2,0-0.5,0-0.7c0.5,0,0.8,0.2,0.7,0.7C-87.4,439.2-87.6,439.2-87.8,439.2z M-87.4,434c0-0.2,0.3-0.2,0.5-0.2
			C-86.9,434-87.2,433.9-87.4,434z M-86.2,432.6c0,0.5-0.2,0.8-0.7,0.7C-86.6,433.1-86.8,432.4-86.2,432.6z M-86.2,435.2
			c0.3,0.1,0.2,0.6,0.2,0.9c-0.2,0-0.5,0-0.7,0C-86.9,435.4-86.3,435.5-86.2,435.2z M-86.2,443c0.3,0,0.6,0,0.9,0
			C-85,443.9-86.4,443.9-86.2,443z M-84.5,445.1c0.2,0,0.5,0,0.7,0c0.1,0.5-0.2,0.6-0.2,0.9C-84.5,446-84.6,445.7-84.5,445.1z
			 M-83.3,459.3c-0.2,0-0.3,0-0.5,0c0-0.2,0-0.3,0-0.5c0.2,0,0.3,0,0.5,0C-83.3,459-83.3,459.2-83.3,459.3z M-83.3,406.1
			c-0.5,0.4-0.4-0.1-1.2,0C-84.6,405.1-83.1,404.7-83.3,406.1z M-82.2,437.3c-0.1-0.1,0.2-0.3,0.2-0.2
			C-81.8,437.2-82.1,437.4-82.2,437.3z M-79.8,403.2c-0.1-0.1,0.2-0.3,0.2-0.2C-79.4,403.1-79.7,403.3-79.8,403.2z M-79.1,405.8
			c-0.1-0.1,0.2-0.3,0.2-0.2C-78.7,405.7-79,405.9-79.1,405.8z M-78.8,438.7c-0.1-0.1,0.2-0.3,0.2-0.2
			C-78.5,438.6-78.8,438.8-78.8,438.7z M-77.9,438.7c0.5,0.1,0.5,0.4,0.2,0.7c-0.2,0-0.3,0-0.5,0C-78.2,439.1-77.9,439-77.9,438.7z
			 M-77.9,448c0.3,0.1,0.5,0.3,0.5,0.7C-78.2,448.9-78.2,448.3-77.9,448z"/>
	</g>
</g>
</svg>
