<?xml version="1.0" encoding="UTF-8" standalone="no"?>
<!-- Created with Inkscape (http://www.inkscape.org/) -->

<svg
   xmlns:dc="http://purl.org/dc/elements/1.1/"
   xmlns:cc="http://creativecommons.org/ns#"
   xmlns:rdf="http://www.w3.org/1999/02/22-rdf-syntax-ns#"
   xmlns:svg="http://www.w3.org/2000/svg"
   xmlns="http://www.w3.org/2000/svg"
   xmlns:sodipodi="http://sodipodi.sourceforge.net/DTD/sodipodi-0.dtd"
   xmlns:inkscape="http://www.inkscape.org/namespaces/inkscape"
   id="svg2"
   sodipodi:version="0.32"
   inkscape:version="0.48.1 "
   width="7101.4062"
   height="5517.2812"
   version="1.0"
   sodipodi:docname="AJAX.svg"
   inkscape:output_extension="org.inkscape.output.svg.inkscape"
   sodipodi:modified="true">
  <metadata
     id="metadata7">
    <rdf:RDF>
      <cc:Work
         rdf:about="">
        <dc:format>image/svg+xml</dc:format>
        <dc:type
           rdf:resource="http://purl.org/dc/dcmitype/StillImage" />
      </cc:Work>
    </rdf:RDF>
  </metadata>
  <defs
     id="defs5" />
  <sodipodi:namedview
     inkscape:window-height="1003"
     inkscape:window-width="1280"
     inkscape:pageshadow="2"
     inkscape:pageopacity="0.0"
     guidetolerance="10.0"
     gridtolerance="10.0"
     objecttolerance="10.0"
     borderopacity="1.0"
     bordercolor="#666666"
     pagecolor="#ffffff"
     id="base"
     inkscape:showpageshadow="false"
     inkscape:zoom="0.062343749"
     inkscape:cx="7270.0914"
     inkscape:cy="1106.9943"
     inkscape:window-x="-4"
     inkscape:window-y="-4"
     inkscape:current-layer="svg2"
     showgrid="false"
     fit-margin-top="0"
     fit-margin-left="0"
     fit-margin-right="0"
     fit-margin-bottom="0"
     inkscape:window-maximized="0" />
  <path
     style="fill:#0000ff;fill-opacity:1;fill-rule:nonzero;stroke:none"
     d="m 4878,0 -2.5313,6.3125 -3.625,5.5625 -4.875,3.8125 -4.3124,3.8125 -2.625,3.46875 -2.9376,7.125 -2.7812,5.53125 -7.625,8.34375 -2.9375,2.25 -4.5313,7.28125 -5.1874,14.5625 -4.3438,13.1875 -0.1875,1.71875 -1.375,5.71875 -2.0937,9.21875 -5,9.875 -0.7188,3.65625 -6.0625,7.09375 -4,10.25 -5.0313,13.6875 -1.5312,2.4375 -4.875,2.40625 -2.25,7.8125 1.2188,3.46875 0.3437,8.34375 -0.3437,3.28125 -0.6876,4.84375 -6.9374,7.65625 -4.875,10.21875 -2.7813,4.6875 -1.1875,5.1875 -10.5938,15.09375 0.3438,7.8125 10.5938,1.03125 7.7812,0 6.0938,1.5625 37.0937,10.9375 2.0937,2.4375 6.9376,0.5 6.9374,3.3125 5.0313,6.40625 0.5313,4 3.8124,7.625 2.5938,1.21875 7.4688,3.46875 5.0312,3.8125 1.7188,1.71875 5.5624,1.21875 7.7813,4 5.9063,1.375 3.125,3.125 -0.875,11.625 -4.5,9.03125 -0.875,3.625 -4.6876,7.8125 -3.8124,2.9375 -5.375,8.34375 -0.875,6.59375 -3.625,4.5 -3.125,4 -6.75,5.375 -4.5313,2.40625 -1.7187,2.09375 -13.875,11.09375 -0.6876,3.125 -6.9374,0.6875 -4.5313,3.125 -10.75,9.71875 -4.5,4.15625 -3.4687,5.21875 -4.875,6.59375 -1.0313,4.5 -3.125,2.4375 -3.125,5.1875 -7.625,6.9375 -4.5,1.40625 -5.5625,4.5 -15.5938,5.90625 -4.5312,1.375 -8.3125,2.78125 -11.7813,6.9375 -3.4687,2.78125 -8,6.5625 -10.75,9.71875 -10.0625,9.71875 -1.7188,2.78125 -5.5624,7.28125 -11.4376,9.03125 -4.1562,0.34375 -11.125,0 -11.4375,5.53125 -4.5,1.75 -4.1563,0 -4.1874,3.125 -3.4688,3.125 -10.75,3.09375 -4.1562,0.71875 -9,3.46875 -8.3438,3.8125 -9.0312,1.71875 -11.0938,7.625 -8.3125,4.1875 -7.625,9 -13.1875,8.34375 -4.875,3.46875 -6.2188,3.46875 -6.9374,9 -4.3438,2.625 -2.4375,2.75 0.5313,4.1875 -1.75,2.9375 -3.125,4.15625 -7.0938,4.15625 -1.2188,5.375 -1.375,4 -3.3124,1.75 -0.3438,3.8125 -3.625,3.03125 -1.4062,1.8125 0.094,3.8125 -5.125,5.90625 -5.9687,5.90625 -2.1876,2.0625 -4.8437,9.375 -11.0937,13.1875 -4.875,10.75 -2.4063,12.8125 -2.0937,5.21875 -5.9063,7.28125 -2.4063,2.09375 -6.5937,7.625 -6.25,6.59375 -4.1563,-3.8125 -3.125,4.84375 -0.3437,7.96875 -3.8125,1.75 0.6875,3.46875 -6.5937,5.90625 -2.0938,5.53125 -3.4688,5.90625 1.4063,3.46875 -5.2187,11.78125 -7.9688,11.09375 -2.7812,4.1875 -3.4688,3.125 3.8125,2.0625 3.4687,0.6875 -6.25,6.9375 -2.75,3.46875 -8,4.875 -13.1874,7.28125 -12.4688,5.1875 -12.1562,11.125 -4.5,6.21875 -1.375,3.46875 -4.5313,7.65625 -10.4063,11.09375 -6.2187,11.78125 -6.9375,11.46875 -8.3438,10.40625 -4.1562,2.40625 -5.9062,7.625 -9.7188,9.71875 1.0625,4.53125 -4.875,6.9375 -3.8125,5.1875 -5.5312,5.5625 -3.125,3.46875 -4.5313,7.28125 -0.6875,5.53125 -6.5938,5.21875 -2.4062,3.8125 -6.9375,7.28125 -3.4687,4.15625 -5.9063,4.875 -4.1563,1.375 -2.7812,2.09375 -4.1562,4.15625 -8.3438,11.09375 -0.6875,4.875 -7.625,8.3125 -1.75,9.71875 -9.3437,14.21875 -3.125,9.375 -4.875,8.3125 -0.6876,20.8125 1.75,12.125 3.125,14.9375 1.7188,24.625 1.375,7.2813 -0.3438,1.375 -1.0312,3.4687 -4.8438,18.75 -0.7187,17.3438 0,18.0312 -3.4687,4.1563 0.7187,8.3437 -1.4063,4.1563 -2.7812,6.25 1.4062,7.625 0,10.4063 -6.25,11.0937 -4.1562,5.5625 -4.875,6.9375 -7.625,8.3125 -4.8438,2.0938 -9.7187,6.2187 -4.1563,2.625 -6.0624,4.6875 -3.8126,3.0938 -4.6874,6.9374 -2.0938,2.0938 -0.3438,2.5938 -3.4687,9.375 -1.5625,5.375 -3.8125,6.0624 -3.125,5.9063 -2.7813,8.1563 -2.4374,4.8437 -2.9376,7.2813 -4.1562,4.6874 -3.6562,4.5313 -11.4376,0.6875 -3.625,-3.8125 -3.125,-2.25 -8.8437,-3.125 -4,-2.0937 -6.25,-3.2813 -3.2813,1.0313 -2.0937,2.0624 -3.2813,2.625 -0.3437,5.7188 -1.75,3.625 1.5625,13.0312 0.3438,6.0626 -3.8126,5.9062 -2.9374,3.625 -5.0313,2.9688 -8.1563,3.4687 -8.8437,2.75 -4.875,1.5625 -7.2813,2.0938 -5.0312,1.9062 -9,1.7188 -5.9062,3.125 -6.9376,2.625 c 0,0 -5.2124,1.9062 -5.9062,1.9062 -0.6937,0 -8.6562,3.625 -8.6562,3.625 l -4.3438,2.0938 -7.9688,2.9374 -4.6874,1.9063 -7.125,3.4687 -5.5313,1.9063 -6.9375,5.2187 -4.3438,2.25 -8.3124,3.8126 -3.3126,3.125 -2.5937,2.7812 -0.3437,3.8125 -1.4063,1.5625 -2.9375,2.9375 -9.1875,3.4687 -3.3125,2.4376 -1.5625,5.5312 -0.6875,4 0,4.5 -2.7812,9.7188 -0.5,4.6874 -4.5313,6.4063 -3.8125,4.875 -0.8438,8.6563 -1.5624,5.2187 -3.3126,8.1563 -4.6874,4.6874 -4.3126,6.5626 -1.9062,5.375 -1.75,8.5 -5.1875,6.25 -2.9687,6.25 -3.8126,4.8437 3.125,8 -7.625,7.625 -2.4374,9.7187 -4.1563,9.7188 -4.1563,8.6562 0,9.7188 -2.0937,4.5 -4.8437,1.75 -4.875,1.7188 -7.2813,10.0624 -3.4687,6.5938 0.3437,4.1562 -6.5937,4.875 -4.8438,8.6563 -2.0938,11.0937 -2.75,13.5313 -3.4687,2.0937 0.3437,5.1876 1.7188,4.875 2.0938,9.7187 0,3.8125 0,13.875 0.6874,13.5312 -1.0312,4.1563 0,8.3125 0,5.9062 -3.8125,7.9688 -7.3125,12.1562 -3.4688,1.375 -10.4062,4.1563 -3.4688,2.7813 -7.2812,4.1562 -11.7812,6.9375 -4.8438,3.125 -4.5312,5.5625 -8.3126,10.75 -9.0312,11.7812 -8.6562,11.0938 -4.875,15.625 -0.3438,11.0938 -0.3438,19.4374 -4.8437,4.1563 -6.25,5.2187 -11.4375,6.5626 -4.875,2.4374 -4.8438,7.625 -1.0624,4.1876 0,2.4062 -2.4063,4.1562 -1.4063,12.5 -4.1562,13.875 -8.3125,13.875 -9.7187,12.5 -7.625,9.6876 -9.7188,9.0312 1.2188,11.0938 -2.9688,8.3437 -7.9688,7.625 -2.4374,4.6875 -7.9688,-2.625 -9.5312,-7.2812 -2.9376,-2.75 -9.7187,0.1562 -11.0937,4.5 -8.3438,5.375 -13.3438,0.875 -13.7187,2.7812 -15.4375,5.2188 -3.2812,0.8438 -5.9063,2.25 -7.625,10.7812 -4.8437,7.4375 -1.9063,3.4687 -9.9063,12.3126 c 0,0 -0.1608,2.5951 -1.375,4.1562 -1.214,1.5608 -7.125,7.3125 -7.125,7.3125 l -4.1562,4.1563 -3.125,3.625 -3.8125,8.3437 -6.0625,7.0937 -0.875,6.7813 -2.4375,5.0313 -1.375,5.1874 -2.5937,6.0626 -1.9063,8 0.5,3.125 -5.5313,6.0624 c 0,0 -1.4,6.4063 -2.0937,6.4063 -0.6938,0 -3.625,0.5313 -3.625,0.5313 l -3.8437,-2.0938 -7.2813,-7.0938 -2.9375,-0.5312 -2.4375,8.5 -1.2187,5.375 -0.3438,1.9062 -1.7188,2.25 0.1563,4.1876 -2.25,4.1562 -0.875,2.5938 -1.9063,3.2812 -3.0937,-1.0312 -4,-2.7813 -2.7813,-1.7187 -5.7187,-1.75 -6.9375,-5.0313 -0.3438,3.6563 1.9063,2.7812 1.9063,2.7812 2.25,9.3438 5.0312,4.3438 1.5625,5.0312 1.0313,6.4062 0.1874,4.1563 2.0626,3.8437 -1.5626,3.4688 0,2.9375 3.4688,3.8125 0,2.7812 -0.8438,3.4688 0.5,10.75 -10.2187,5.1875 -8.5,16.1563 -2.9375,5.7187 -3.6562,7.0937 -7.125,10.4063 -8.4688,-1.7187 -3.8438,2.0624 -5.0312,0 -6.0625,3.8438 -5.375,0 -7.4375,4.3125 -0.5312,2.4375 -4.1563,3.125 -5.7187,2.4375 -4,-0.875 -6.5938,9.875 -3.4688,8.6875 -9.0312,6.75 -2.0625,5.7188 -4.6875,0.875 -4.3438,0.3437 -6.5937,2.9687 -9.1875,2.75 -6.0625,2.25 -9.5313,4.875 -3.4687,1.0313 -5.0313,0.3437 -3.4687,3.4688 -2.7813,4.1562 -1.0312,3.6563 -4.5312,4.1563 -6.75,6.7812 -2.4376,4.1562 -3.8124,6.0626 -6.5938,2.25 -7.9688,3.4687 -7.8124,1.9063 -4.3438,3.3124 -4.1562,8.6563 -5.1876,6.7813 -1.4062,3.8124 -2.4375,10.0626 -7.9687,6.9374 1.2187,7.0938 -0.1875,10.0625 -9.3438,5.7187 -3.6562,4.875 -0.6875,5.1876 2.7813,5.7187 -1.2188,6.0937 -7.2812,2.4063 -8.8438,0.1875 -4.3438,4 -10.0624,5.0312 -3.4688,2.5938 -9.0312,4.6875 -1.9063,0.5 -2.1875,-0.5313 0.25,-0.4374 -7.4062,-5.2813 -11.2813,-7.0937 -10.0625,-5.7188 -8.5,0 -8.6562,-3.6562 -3.125,-0.5 -7.625,-0.375 -3.8438,-2.5938 -9.3438,0 -7.4687,-1.5625 -8.8437,-1.7187 -3.125,-1.5626 -6.0626,-2.5937 -4.3437,3.625 -4.8437,2.4375 -5.375,-0.5312 -8.6876,-1.375 -4.5,1.2187 -6.25,0.6875 -5.1874,-2.25 -4,0.5 -4.875,1.9062 -5.375,2.7813 -5.7188,4.1563 -10.9062,-0.6876 -10.25,-9.375 -3.625,-3.625 3.625,-6.7812 4,-5.375 4.5,-8.3125 2.7812,-4 -0.1875,-3.2813 4,-8.8437 0,-3.125 2.7813,-1.9063 2.4062,-3.3124 1.4062,-6.9376 -0.5312,-1.7187 2.5938,-7.125 3.125,-3.2813 1.5624,-2.7812 3.125,-9 1.75,-4.6875 1.7188,-2.625 5.0312,-2.0625 3.4688,-5.0312 2.5938,-2.4376 2.7812,-2.9374 4,-3.3126 3.625,-4.3124 5.5625,0.3437 3.125,0.6875 5.9063,1.9062 -0.3438,-6.4062 0.3438,-4.875 -3.3126,-3.625 -2.9374,-3.3125 -3.3126,-4.1563 -5.7187,-5.7187 -1.2187,-9.9063 -9,-7.625 -2.875,-2.6874 -5.4688,-8.9688 c 0,0 -7.0235,-5.6798 -8.7812,-5.875 -1.7579,-0.1954 -4.6876,-3.9062 -4.6876,-3.9062 l -5.4687,-12.875 -0.7813,-3.7188 0.375,-14.4688 -3.3124,-5.8437 -4.875,-5.4687 -5.6563,-5.0938 0,-7.0312 -0.5937,-6.0313 -0.1876,-6.4687 -0.4062,-6.625 -5.4688,-6.6563 1.5626,-10.1563 -2.3438,-2.7187 -1.5625,-4.6875 -1.1563,-10.9375 0.375,-4.6875 -0.375,-9.375 -1.9687,-7.0312 2.75,-6.6563 2.3437,-4.2813 3.125,-4.3124 -3.9062,-8.1876 1.1562,-6.6562 -4.6874,-5.8438 -2.7188,-2.75 -1.1875,-6.625 -2.3437,-1.5624 -1.5626,-7.0313 -0.375,-7.4375 -2.75,-6.25 -3.5,-7.0312 -1.9687,-3.5 -0.7813,-9.375 0.7813,-6.6563 1.5625,-6.625 -0.7812,-6.25 -1.5626,-8.2187 1.1876,-6.25 1.5624,-5.4688 -0.4062,-6.625 0,-11.3438 -1.1562,-3.5 -8.2188,-7.0312 -1.5625,-6.6562 -3.125,-5.4688 -0.375,-12.875 -0.7813,-5.875 -6.25,-6.25 -0.7812,-4.6875 2.7188,-10.9375 -0.375,-4.2812 0.375,-8.2188 0.7812,-11.7188 -2.3438,-6.25 -3.5,-11.3124 -3.125,-5.0938 -1.1874,-5.4688 -1.9376,-6.25 1.9376,-8.9687 -1.5626,-3.5313 -4.2812,-2.7187 0.7812,-3.9063 1.1563,-2.75 -2.3437,-1.5625 -2.7188,-1.5625 -1.1875,-1.9375 -3.5,-1.5625 -3.5313,-4.3125 -1.1562,-5.4688 -3.125,-2.3438 -4.3125,-2.7187 -5.4687,1.5625 -3.125,1.9375 -4.6876,-0.7813 -3.9062,-0.375 -7.4062,-0.4062 -5.4688,-5.4688 -8.2188,2.75 -4.6874,2.3438 -4.6876,2.3438 -5.8437,-1.5625 -2.75,4.6875 -3.9063,0 -4.6874,-1.9688 -2.7188,-6.625 5.0625,-3.9062 0,-3.9063 -7.4063,-7.8125 -4.6874,-6.6562 -2.75,-7.4063 -2.3438,-3.125 0,-7.0313 -5.4688,-4.6874 1.9688,-5.0938 -2.3438,-3.9062 0.7813,-3.5 -3.9063,-4.6876 1.5626,-5.4687 4.6874,-6.25 -1.1874,-2.3437 -5.8438,-1.9688 -2.75,-2.7188 -0.375,-3.9062 0.375,-3.125 -2.7188,-3.5312 -7.8124,-1.1563 0,-5.4687 -7.4376,-5.875 -5.0624,-0.375 -2.75,-2.75 -5.8438,0.4062 -4.3125,-0.4062 -8.5937,-3.9063 -1.1563,-3.9063 -1.9687,-5.4687 -3.9063,-3.5 -2.7187,-3.9063 -1.9688,-2.75 0,-2.7187 -3.5,-1.5625 -3.125,-3.9062 -7.4375,0.375 -3.125,-2.3438 0,-2.7188 -3.125,-1.5624 -7.0313,-5.4688 -2.3437,-5.4688 -5.4687,-6.25 -2.7188,-5.0937 -5.0938,-8.1875 -3.5,-3.9062 -7.4374,-3.125 -3.9063,-0.7813 -10.1563,-3.9063 -4.6874,-2.75 -6.25,-7.0312 -3.9063,-3.5 -4.6875,-6.6562 -3.5,-1.9376 -9.375,-1.5624 -4.6875,-1.1876 -7.8125,-5.4687 -2.75,-4.6875 -3.125,-3.9062 -9.75,0 -1.5625,1.9687 -12.9063,13.2813 -1.1562,3.9062 -7.8125,4.6875 -3.5313,2.3437 -11.3124,-0.4062 -12.5,2.3438 -1.9688,0.4062 -1.1562,8.9688 -5.4688,0.4062 -9.375,0 -5.875,1.1562 -9.375,0.4063 -5.4688,0.375 -3.9062,-6.625 0.4062,-3.125 -4.6874,-4.3125 0,-5.0625 -2.3438,-11.7187 0.7812,-9.7813 -3.125,-12.5 -7.0312,-12.875 2.3438,-13.6875 0.7812,-5.4688 1.5625,-7.8124 -2.75,-10.1563 7.4375,-5.8437 -8.2188,-0.7813 -5.0624,1.1563 -9.7813,2.3437 -12.0937,4.3125 -6.25,1.5625 -2.75,2.3437 -2.3438,0 -3.9062,1.9376 -3.5,4.3124 -11.3438,0.375 -10.1562,0 -9.75,8.2188 -7.8126,6.25 -0.4062,7.8125 2.3438,4.2813 4.3124,3.9062 2.3438,3.125 3.9062,1.1875 1.9376,0.7813 0.4062,3.5 0.7812,3.125 4.2813,5.875 -1.5625,2.7187 -0.7812,3.9063 -2.7188,3.5312 4.2812,0.7812 3.5313,1.9376 -2.75,5.4687 -3.125,9 -1.9375,3.9063 -6.25,7.4062 0.375,3.9062 -1.5625,7.4376 -4.2813,5.8437 -6.25,7.0313 -4.6874,1.9687 -4.3126,9.375 -0.7812,3.9063 0.4062,4.2812 -3.5312,2.3438 0.4062,6.6562 -2.3437,7.4062 -1.9687,5.0938 -1.5626,4.2812 -0.7812,5.0938 -4.6875,-2.75 0,-6.625 -0.375,-5.0938 3.9063,-5.0624 -7.0313,-6.6563 -6.25,-4.6875 -8.5937,-7.0312 -2.75,-1.9376 -8.1876,-1.5624 -4.3124,-0.7813 -4.2813,0 -7.4375,-6.25 -12.875,0 -7.8125,0.7813 -5.875,3.125 -5.0625,0 0.7812,-9.375 0,-4.6876 0,-10.1562 -3.9062,-5.875 0.375,-5.4688 1.5625,-4.6874 0.7813,-9.75 -1.5626,-5.0938 -5.8437,-10.1562 -7.8125,-8.1876 -2.75,-3.9062 -1.1562,-4.6875 -0.7813,-7.8125 -0.4063,-5.875 -5.0624,-5.4688 -6.25,-2.7187 -5.0938,0 -3.5,-1.5625 -4.3125,-8.2188 -0.375,-5.8437 -5.4687,-7.8125 -1.9688,-4.6875 -1.1562,-10.1563 -7.8126,-4.6874 -0.7812,-5.875 0,-10.5313 -1.9688,-3.125 -4.6874,-6.25 -2.7188,-5.875 -3.125,-6.625 -2.75,0.7813 -3.5,0.375 -0.4062,3.5312 -4.2813,-0.7812 0.375,-2.75 -0.7813,-4.6876 3.9063,-3.5 -0.7813,-5.875 -3.9062,-4.6874 -8.1875,0 0,-4.2813 0.375,-7.4375 -1.9375,-2.7188 -2.75,-8.5937 -2.7188,-5.4687 -3.9062,-7.4376 -1.1875,-4.6874 -1.5625,-8.9688 -6.25,-10.5625 -5.8438,4.6875 -9,3.9062 -12.0937,4.6876 -6.25,1.5624 -5.875,2.3438 -12.0937,7.0312 -16.8126,-0.375 -4.2812,0.375 -9.7812,-1.1562 -12.5,0 -14.4376,0 -5.0937,-3.5312 -3.5,-7.4063 -4.3125,-3.9063 -2.7188,-7.4374 -1.5624,-5.4688 -1.5626,-8.5938 -3.9062,-3.5 -5.875,-8.2187 -6.25,-4.6875 -5.0625,-2.3438 -4.6875,0 -6.25,1.9688 -5.875,-5.0938 -3.125,-3.9062 -7.0312,-6.25 -9.375,0.4062 -1.9376,-8.5937 0,-7.4375 -3.9062,-5.8438 -6.6562,1.1563 -4.2813,-4.2813 -1.9687,-1.9687 -2.3438,-5.4687 -6.625,-6.625 -4.6875,-0.4063 -5.4687,-7.8125 -1.1876,-2.7188 2.75,-2.3437 -0.7812,-5.875 0.7812,-4.6875 -2.3437,-3.9062 -5.0937,-1.1563 -4.2813,3.125 -7.4375,2.7187 -8.5938,-0.375 -10.9374,5.4688 -1.9376,4.6875 -5.875,5.4687 -0.7812,7.0313 -7.0312,10.5313 -3.125,1.1874 -1.5626,2.3438 -6.25,5.4688 0,2.3437 -7.4062,8.1875 -5.4688,8.2188 -3.5312,5.4687 -7.4062,7.4063 -4.6876,5.4687 -0.7812,5.875 0,5.0625 1.1562,1.1875 -0.375,9.75 0,2.75 -5.4687,4.2813 -7.4375,1.1874 -8.9688,0 -7.4374,-0.7812 -4.2813,0 -1.9687,1.9375 -3.5,7.4375 -4.6876,7.0312 -2.75,2.7188 -8.1874,6.25 -6.25,5.4688 -5.4688,0.4062 -10.5625,-1.5625 -4.2813,1.5625 -12.125,4.6875 -1.5624,6.625 -0.7813,7.4375 -1.1563,3.5 -2.75,9.7812 -1.5624,4.6876 -0.7813,4.2812 -3.9063,3.9062 -7.4062,-0.375 -12.9062,2.3438 -3.5,1.1562 -0.7813,11.7188 0.7813,8.2188 0,4.6874 -3.9063,3.5 -7.8125,2.3438 -6.25,1.1875 -6.25,4.6875 -5.4688,5.0625 -7.0312,5.4687 -4.3125,2.75 -5.8437,2.3438 -5.4688,4.6875 -7.4375,0 -8.5937,0 -8.1876,1.1563 -5.0937,1.1874 -7.8125,1.9376 -7.4062,2.3437 -7.0313,5.4687 -4.6875,5.4688 -3.5312,4.6875 0,2.75 0,3.9063 -2.7188,0.375 -5.0938,0.7812 -1.1562,2.3438 -4.3125,-1.5626 -1.1563,0 -0.7812,3.9063 0.375,2.75 2.75,2.3437 -1.9688,4.6876 -5.0624,14.0624 1.1562,2.7188 3.5312,2.75 2.3438,0 5.0625,0 5.4687,0.375 2.3438,0.4062 1.1875,3.9063 -1.5625,3.5 -0.4062,0 0,3.5313 -2.3438,2.7187 -7.4062,0 -1.9688,4.6875 -5.4688,12.9062 0,2.7188 -3.125,1.1875 0,4.2813 3.125,4.3124 -0.375,2.7188 -5.0937,-0.375 -5.8437,0 -5.0938,0.375 -3.125,0.4062 -1.5625,4.2813 -1.5625,8.5937 -3.125,9.375 0.4062,6.25 1.9376,3.125 -0.375,4.3126 -5.0938,7.0312 -2.3438,4.2812 -7.0312,8.5938 -3.9062,3.9062 -1.5626,4.6876 -1.1562,6.6562 0.375,4.6875 -1.9375,3.9063 -5.0937,2.3437 -3.9063,2.3437 -4.2813,-1.9687 -5.875,-2.3437 -7.0312,-3.125 -6.625,-0.375 -20.7188,12.0937 -0.7812,6.6563 -0.7812,4.2812 -6.625,2.3438 -9,2.3437 -3.5,1.5625 -1.5626,5.4688 -4.3124,3.9062 -3.125,2.3438 -5.4688,-1.9376 2.3438,-4.6874 2.3437,-7.8126 4.6875,-6.25 -5.8438,0 -4.6874,4.6876 -4.6876,7.0312 -4.6874,5.8438 -3.125,3.5312 -6.25,0 -12.9063,2.7188 -5.4687,6.25 -6.25,7.8124 2.75,3.125 4.2812,-3.5 3.125,-1.5624 4.3125,0 0.7813,3.9062 3.125,7.0312 4.2812,7.0313 4.3125,5.0625 2.7187,5.0938 0,2.7187 -1.1562,1.9687 -3.5312,0.7813 -4.2813,-3.125 -3.9063,2.3437 -5.0937,3.125 -5.4687,5.0626 -3.125,2.75 -18.75,0.375 -10.5313,0 -5.875,-2.7188 -3.125,-4.3125 -2.3437,-3.5 -0.7813,-5.875 1.1875,-3.9063 1.1562,-8.9687 -1.9374,-2.75 0,-2.7187 -2.3438,-7.4376 -2.75,-3.5 -3.9062,-1.5624 -6.625,3.125 -4.3126,2.7187 -9.375,3.125 -10.9374,5.0937 -13.6563,4.2813 -14.0625,4.3125 -13.6875,4.2812 -13.2813,6.6563 -20.3124,9.375 -12.5,-6.25 -15.625,31.25 -25,-21.875 -20.3126,1.5625 1.5626,10.9375 0,35.9375 6.25,6.25 -6.25,6.25 -31.25,32.8125 -20.3126,10.9375 -1.5624,9.375 7.8124,7.8125 21.875,21.875 7.8126,17.1875 1.5624,17.1875 -3.125,3.125 9.375,9.375 2.5,10.4063 1.125,7.75 -4.4374,12.1562 12.1562,7.7188 12.1562,-8.8438 4.4376,-14.9062 7.7187,4.4062 2.75,4.4375 2.7813,8.8437 5.5312,1.0938 4.4062,9.9375 -1.0937,4.4375 2.1875,5.5 5.5312,6.0938 4.9688,2.75 0.5625,16.5937 1.6563,11.0313 -0.5626,8.2812 1.6563,14.9375 1.125,14.9063 1.6563,11.0312 -1.125,6.6562 11.0624,8.8126 1.6563,7.1874 4.4063,1.125 3.3124,9.375 3.3438,6.625 2.75,9.9376 2.2188,2.2187 -1.125,9.4063 -3.3126,14.3437 -3.875,9.9375 -2.75,3.0625 0.5626,12.4063 4.6874,19.0624 4.6876,17.9688 -2.1876,18.7812 14.3438,16.5626 4.4375,9.9374 11.0313,6.6563 2.2187,11.0313 19.875,3.3124 8.8437,0 14.375,-3.3124 12.1563,0 15.4687,0 11.0313,4.4374 17.6875,2.1876 18.7812,8.8437 13.25,15.4687 12.1563,13.25 14.375,8.8438 5.5,6.625 -1.0937,8.8438 -5.5313,4.4374 -6.625,5.5 -3.3125,8.8438 -8.8438,0 -8.8437,12.1562 -8.8125,9.9376 -4.4375,7.75 -1.0937,7.7187 -8.8438,9.9375 0,12.1562 4.4062,5.5313 0,5.5313 -1.0937,6.0624 -2.2187,11.625 -4.4063,9.9376 6.625,7.7187 -6.625,6.625 -9.9375,-6.625 -16.5938,0 -13.25,-4.4063 -14.3437,0 -12.1563,3.3126 -16.5937,3.3124 -8.8437,-11.0624 -13.25,-25.4063 5.5312,-8.8437 -6.3438,-31.75 7.4376,-26.7813 0,-18.7813 -26.5,-5.5312 -19.9063,7.7188 -3.3125,14.375 -5.5,13.25 -13.2812,3.3124 -11.0313,27.625 -4.4375,12.1563 2.2188,18.7813 -4.4063,9.9374 7.7187,5.5313 -1.0937,9.9375 -5.5313,-2.1875 -3.3124,11.0313 -13.25,15.4687 -5.5313,-7.7187 -6.625,-5.5313 -8.8437,-1.125 -9.9376,11.0625 -4.8124,2.4375 -5.4688,4.2813 -14.4375,-3.125 -12.9063,0 -4.2812,-2.7188 -16.4062,3.125 -9.7813,-0.7812 -5.4687,-4.3126 -8.5938,8.2188 -2.7188,8.5938 -7.4374,12.875 -0.7813,1.9687 -3.125,0 c 0,0 -6.6251,9.7498 -8.9687,7.4063 -2.3439,-2.344 -7.0313,-11.3126 -7.0313,-11.3126 l -26.5625,-7.0312 -14.8438,-2.75 -9.375,-1.5625 -5.4687,-8.5937 -5.875,-2.7188 -5.8437,0 -6.25,0.375 -1.1876,3.9062 -4.2812,12.125 0.375,6.625 3.125,7.8126 -11.3125,8.5937 -5.0937,1.9687 -3.5,8.1876 -2.3438,4.6874 0.375,3.9063 -7.4062,9.375 -3.125,7.8125 1.1562,5.4688 6.25,10.1562 14.4688,7.0312 5.8437,3.5313 9,10.5313 2.7187,10.5624 2.3438,10.5313 1.5625,10.9375 1.5625,10.5625 1.9688,10.9375 -0.4063,5.8438 -3.9063,3.5312 -8.9687,-1.1875 -6.25,12.5 -7.8125,12.5 -3.125,2.75 -1.9688,8.5937 -1.9374,13.2813 -5.0938,4.6875 -3.125,7.0312 -2.3438,3.9063 -3.5,9.375 -1.9687,4.2813 -7.4063,7.0312 -2.3437,1.5625 -5.0937,8.2187 -6.25,3.5 -1.5626,9.375 0.4063,3.9063 -6.25,8.2187 -3.5313,4.6876 -6.625,4.2812 -4.6874,1.5625 0,-9.375 1.1562,-4.6875 0,-15.2188 5.0938,-9.375 -7.4376,-12.125 -9.375,-16.4062 -4.6874,-11.7188 -2.7188,-3.5 -5.0938,-7.0312 -5.8437,-3.9062 -7.8125,-7.8126 -3.125,-10.9374 1.9375,-1.9688 -3.5,-8.9688 -3.125,-3.125 3.125,-3.9062 -3.9063,-5.4688 -6.25,-17.1874 -5.0937,-9.7813 -5.4687,-11.7187 -10.1563,2.3437 -3.5,-2.3437 3.125,-8.5938 1.9375,-5.4688 -0.7812,-4.2812 -1.9376,-9 -1.1874,-4.2812 -0.7813,-3.9063 3.125,-4.3125 0.7813,-2.3438 -1.5626,-5.8437 0.7813,-4.3125 -3.5,-3.9062 0,-4.2813 1.5625,-5.0937 -6.25,0.4062 -7.8125,-3.125 -0.7813,-1.5625 -6.6562,-0.7813 -4.2812,-1.1874 -9.7813,-0.7813 -13.2813,-1.5625 -4.2812,-2.3438 -2.75,0.4063 -6.625,3.9063 -3.5312,0.7812 -5.8438,3.9062 -4.3125,1.9376 -5.8437,0 -0.7813,-3.9063 -1.9687,-2.7187 -4.2813,0.7812 -1.9687,1.9375 -3.9063,0 -1.1563,3.5313 -5.4687,1.1562 -2.3437,-1.1562 -5.4688,1.9374 -9.7812,2.3438 -3.125,2.3438 -9.75,0 -3.125,-2.3438 -9.7813,-6.625 -1.9375,2.7188 0,10.1562 0,4.6875 -4.3125,10.5625 0.7813,4.2812 -2.7188,7.0313 -2.75,5.0937 -5.0625,6.25 -3.9063,3.125 -6.25,8.9688 -3.125,2.75 -4.3124,7.8125 -2.7188,2.7187 -11.7188,14.0626 -8.2187,10.9374 -7.8125,10.5626 -6.25,11.3124 -3.5,3.5313 -6.6562,7.4063 -14.4376,5.0937 -5.875,2.7187 0.7813,7.8126 -0.7813,13.6874 1.1876,14.4376 c 0,0 -1.5626,10.1562 -1.5626,13.2812 0,3.125 -0.4062,13.6875 -0.4062,13.6875 l -0.375,0.375 1.5625,13.2813 0.375,14.0624 0,16.4063 0,13.2813 1.9687,12.9062 0.7813,13.6562 -91.4063,0.4063 -62.5,-16.0313 -0.7812,15.25 -5.875,9.75 -3.9062,1.9688 -1.5626,3.9062 -2.7187,3.5 -8.5937,-1.9374 -1.9688,1.9374 4.6875,9.375 5.0937,6.6563 0.7813,4.2813 4.2813,3.125 -1.5626,9.375 -3.9062,-3.5 -3.125,7.0312 -1.9375,2.3438 -5.875,12.5 -5.4687,15.2187 -3.9063,11.3437 0.4063,7.4063 4.2812,4.6875 1.1875,5.4688 -3.125,8.2187 -3.9063,12.5 -1.5624,6.25 -2.3438,5.8437 -5.0938,6.6563 -3.5,1.1563 -5.875,-4.2813 -11.7187,-7.0313 -10.9375,-8.5937 -8.9688,-6.6563 -2.3437,0.4063 -11.7187,-7.4375 -9,-8.5938 -5.8438,-4.2812 -10.5625,-7.8125 -8.5937,-7.0313 -8.9688,-5.875 -10.1562,-6.625 -5.0938,-3.125 -14.0625,-3.125 -9.375,-4.6874 -1.5625,-3.9063 -13.2812,-5.0937 -8.1876,-3.9063 -4.6874,-1.9375 -5.4688,-0.4062 -3.125,5.4687 -4.3125,1.1875 -7.0313,-1.5625 -6.25,-0.7813 -6.25,-2.3437 -12.0937,-4.3125 -16.0313,-2.3438 -12.875,-0.7812 -13.2812,0.7812 -15.25,0 -12.875,5.0938 -7.0312,0.375 -10.5626,-4.6875 -13.2812,-3.5 -22.6562,-3.9063 -12.875,-1.5624 -14.4688,0.7812 -14.4375,2.7188 -11.3437,5.875 -14.8438,6.25 -9.75,7.4062 -11.3438,9.375 -9.375,10.1562 -7.0312,5.875 -1.5625,3.5 -3.9063,11.3438 -2.7187,9.375 3.9063,5.8438 2.7187,1.1874 8.5937,-1.1874 5.0938,-0.375 10.1562,-0.4063 2.7188,1.5625 7.0312,3.5312 4.3126,7.0313 7.0312,10.1563 6.25,8.1874 5.4688,3.9063 3.125,5.4687 4.6874,4.6876 4.75,3.9374 7.7188,8.2813 9.4062,-5.5313 8.2813,6.625 3.875,7.1876 -1.125,5.5312 2.2187,8.8438 0,4.4062 8.2813,7.75 4.4375,-0.5625 8.2812,-4.4375 3.3126,-3.8438 3.8437,-2.2187 2.2187,2.75 2.7813,3.3125 3.8437,3.875 6.625,1.6562 4.4376,4.4376 0.5624,2.75 0,2.75 0,3.3437 -1.125,3.8437 2.7813,6.625 2.75,3.3126 7.1875,6.0937 3.3125,2.75 4.9687,8.2813 8.8438,12.1562 10.5,13.8125 10.5,11.0625 3.3125,3.3125 4.9687,6.625 5.5313,2.2187 7.7187,-1.6562 4.4063,-2.7812 10.5,4.4374 -2.1875,4.9688 0,7.7188 1.0938,4.4374 5.5312,8.2813 7.7188,11.5937 7.75,11.0626 3.3124,3.8437 2.1876,8.8437 2.2187,8.8438 0.5625,4.4375 0,3.3125 0,11.0312 0,3.875 -0.5625,10.5 0,4.9688 -1.0937,2.75 0,4.4375 4.9687,16.5625 3.3125,11.5938 2.2188,2.2187 3.8437,2.75 9.4063,8.3125 8.8437,7.7188 1.6563,8.2812 0,5.5312 1.0937,4.4063 1.6563,6.6563 1.125,3.8437 0,3.3125 0.5312,15.4688 0,7.75 1.125,4.9687 0.5312,14.375 1.6563,14.9063 3.3125,12.1562 3.875,13.8125 3.875,14.9063 0,3.3124 5.5312,5.5313 2.75,5.5313 3.875,4.4062 1.0938,3.875 1.6562,4.4062 0,7.75 2.7813,4.9688 3.3125,6.0625 -0.5625,4.4375 7.7187,2.75 2.2188,3.875 4.4375,3.875 4.4063,7.1562 1.6562,4.9688 1.0938,3.3125 0,9.4063 2.7812,6.0624 3.3125,3.3438 9.375,11.0312 9.4063,9.4063 11.0312,9.9375 1.125,2.2188 -2.2188,2.75 -1.0937,4.9687 -3.3125,6.0625 0.5312,12.7188 -1.6562,16.0312 1.6562,12.6875 -2.1874,14.9375 2.75,13.25 0.5624,5.5312 -4.4374,7.7188 0,8.2812 1.6562,6.0938 1.6562,8.8438 1.6563,3.3124 0.5625,3.8438 1.6562,8.8438 4.9688,4.4374 1.6562,2.1876 -1.6562,4.4374 -4.4062,2.75 -7.1876,4.4376 -6.625,1.0937 -2.7812,1.6563 -6.625,-2.2188 -7.7188,2.7812 -1.6562,0 -1.125,3.3126 -3.8438,5.5 -3.3124,6.0937 -2.2188,6.625 -1.0938,4.9687 0,6.625 -7.1874,5.5313 -7.75,7.75 -1.6563,2.75 -9.9375,10.5 -3.875,4.4063 -3.3125,4.9687 -2.75,6.0937 0.5313,7.7188 1.125,7.1875 2.2187,7.1875 3.1875,8.2812 9,3.4063 7.6875,4.6563 13.2813,7.8124 7.8124,3.9063 -6.25,3.125 -15.625,7.8125 -2.5312,1.75 0.9688,11.5312 7.8124,7.8126 11.7188,10.1562 14.8438,2.3438 10.9374,6.25 13.2813,2.3437 13.2813,3.9063 12.5,0.7812 12.5,10.1562 15.625,14.0626 20.3124,0.7812 0.7813,10.9375 -1.5625,4.6875 3.125,7.0312 9.375,11.7188 0.7812,12.5 0.7813,7.0312 -5.4687,5.4688 -8.5938,10.9375 -3.125,3.9063 -1.5625,6.25 0,7.0312 6.25,24.2188 -7.8125,6.25 -7.0312,10.1562 -0.7813,19.5312 -21.875,3.125 -13.2813,1.5626 -8.5937,1.5624 -9.375,5.4688 -14.8437,3.9062 -3.9063,3.125 -1.5625,10.1563 -5.4688,-10.9375 -9.375,1.5625 4.6876,13.2813 6.25,14.0624 0,6.25 7.8124,4.6876 4.6876,7.0312 2.3437,2.3438 10.9375,0 2.3438,6.25 31.25,26.5624 2.0624,1.9376 2.4688,3.5937 5.25,3.0313 3.5938,1.9374 8.8437,4.4063 2.2187,5.5313 13.25,0 13.25,6.625 6.625,9.9374 4.9688,2.2188 0,3.875 3.875,3.3125 -6.625,-1.125 -7.7188,0 -12.7187,6.625 -11.0625,8.8437 -7.1562,0 -5.5313,-4.9687 -6.625,0.5625 -7.75,9.125 -8.8437,11.3125 -1.0938,11.0313 -0.5625,8.3124 -6.625,5.5 -1.0937,6.6563 -3.875,1.9063 -5.5313,0.8437 -4.4063,4.9687 -7.1874,0 -4.9688,-1.0937 -13.8125,1.0937 -7.1875,1.6563 -13.25,1.0937 -9.375,1.6563 -13.8125,-0.5313 -11.625,0 -20.4375,7.1876 -2.1875,2.1874 -0.5625,6.625 -3.875,1.6563 -6.625,13.8125 -7.1875,14.375 -4.9687,12.7188 -3.3126,3.8437 -3.875,3.875 -8.8437,2.2187 -7.7187,3.3126 -12.1563,9.375 -10.5,8.8437 -11.5937,7.75 -13.8126,8.2813 -1.6562,13.25 -1.6562,4.9687 3.875,4.9687 -2.7813,4.4376 -10.5,-2.2188 -4.4063,3.3125 -2.2187,13.25 -0.5313,8.8437 1.6563,3.3126 12.6875,-6.625 8.8438,-1.0938 0,17.6875 9.9374,16 2.7813,11.5938 7.7187,7.75 11.0626,6.0626 -0.5626,7.75 14.9063,11.0312 15.4687,0 4.9688,0.5625 7.1875,3.3125 9.4063,10.5 0.5312,6.0625 -2.75,6.6563 -8.8438,1.0937 -13.25,16.5625 -4.9687,12.7188 -9.4063,18.2187 -2.75,2.7813 -8.2812,3.3124 -9.9375,8.2812 -10.5,8.8438 -1.125,9.375 2.7813,7.75 -2.2188,11.0312 -2.75,4.4375 -0.5625,7.7188 -4.4375,7.1874 -3.3125,4.4063 0.5625,8.8437 -3.3125,4.4376 3.875,7.7187 2.75,2.7813 -1.0937,3.8437 3.875,2.7813 0,3.8437 7.1562,-2.1875 2.7812,5.5 6.625,0 4.9688,5.5313 7.1875,8.2812 3.875,-1.6562 8.2813,3.3126 2.75,4.4374 8.8437,4.4062 13.25,2.7813 3.3125,-1.125 8.8438,2.2187 6.625,0 7.75,4.4063 4.9687,6.0937 4.4063,0.5625 3.875,2.75 8.8437,2.75 13.25,3.875 13.8125,4.9688 10.5,6.0937 4.9688,0.5313 4.4062,7.1874 3.3125,13.25 1.6875,17.125 3.3125,11.0626 2.1875,14.9062 -2.1875,12.7188 -2.2187,10.5 -2.2188,4.9687 1.125,5.5313 -12.7188,19.875 -6.625,16.0312 -7.75,9.375 -10.5,14.375 -6.0624,8.2813 1.0937,10.5 3.875,7.1876 15.4687,13.8124 3.875,14.9062 3.875,4.4063 12.125,4.9687 13.8126,2.2188 11.0624,-3.3124 12.7188,-0.5626 12.125,-1.0938 4.4375,3.875 2.75,13.25 7.1875,6.625 9.4062,4.4375 -0.5624,11.0313 7.7187,4.4376 7.1875,2.1874 5.5312,5.5312 12.1563,3.875 3.875,11.5938 0,4.4062 16.5625,14.9375 3.3125,5.5313 -2.2187,12.125 -2.1876,14.375 -4.9687,12.1562 -5,9.9375 1.6563,3.3125 5.5312,4.9688 1.6562,2.7812 9.4063,4.4063 4.4063,-2.2188 6.0937,7.1875 3.8437,3.875 8.3126,-2.75 3.8437,2.75 4.9687,7.7188 2.7813,12.7187 1.0937,9.9375 0,9.9375 4.9688,11.625 4.4375,7.7188 3.3125,4.4374 6.0625,9.9376 7.75,9.9374 4.9687,2.75 8.8438,0 13.25,-5.5 5.5312,0 7.1563,-5.5312 12.7187,-7.1875 12.7188,-6.625 13.8125,-5.5313 8.8125,-5.5312 14.375,-7.7188 3.3125,-2.2187 4.4375,-0.5625 3.8438,-5.5 6.0937,-1.125 6.0625,2.2188 8.8438,6.625 13.8124,4.4374 11.5938,2.75 13.25,-7.75 10.5,-5.5 15.4688,-6.625 6.0937,-1.6562 9.9375,-0.5625 11.5938,-0.5625 12.1562,-2.75 2.2188,-4.4375 9.375,0.5625 11.625,9.4062 9.9374,7.7188 11.5938,4.9688 4.4062,5.5312 5.5313,13.25 2.7813,12.1562 12.125,22.0938 6.6562,2.7812 10.4688,2.75 9.4062,2.2188 6.625,-2.2188 3.875,-4.4062 3.3125,-6.6562 5.5313,-7.7188 2.1874,-2.75 5.5313,4.9688 2.7813,7.1562 2.75,21.5625 3.3124,2.2187 13.25,-1.6562 3.875,3.3125 8.2813,2.75 13.25,-0.5625 5,0 1.6563,-6.0625 7.7187,-4.4375 3.875,-6.625 -0.5625,-5.5 -8.8438,-6.6562 -4.4062,2.2187 -6.625,-8.8437 -5.5312,-6.625 1.6562,-9.9376 -4.4062,-9.9374 4.9687,-13.8126 0,-5.5312 6.0625,-3.3125 -0.5625,-4.9687 -7.1563,-6.0938 -4.9687,-3.3125 -8.8437,-3.3125 -3.3126,0 -13.2812,-4.4062 -9.375,-2.7813 3.3125,-7.1563 -1.0937,-6.0937 7.7187,-8.2813 -6.625,-8.2812 2.75,-12.1562 -5.5,-11.0626 6.0625,-11.0312 2.75,-4.4375 3.3125,-9.375 2.7813,-11.0625 1.0937,-6.0625 0,-8.2813 1.125,-14.9374 -2.7813,-5.5 0,-11.625 -1.0937,-12.6876 -2.2187,-8.2812 -7.1876,-3.875 -16,-6.625 -6.625,-6.625 -5,-8.8438 -2.75,-14.375 -6.625,-10.5 -5.5312,-1.6562 -7.7188,-4.4062 -1.6562,5.5312 -13.8125,-7.1875 0,-3.3125 -12.1563,-9.4062 -2.2187,-16 -1.0937,-4.9688 -7.75,-7.75 -11.0313,-8.8438 -13.8125,-12.6874 -5.5312,-21.5626 -18.2188,-16.5624 -7.1875,-9.4063 -6.625,-14.9063 -0.5625,-8.8437 1.6562,-9.9375 3.3126,-12.7188 0,-7.1562 9.9374,-10.5 -2.1874,-17.125 5.5,-12.1562 9.9687,-8.8438 13.25,-9.9375 2.1875,0 8.3125,-11.5937 8.2813,-12.7188 7.1874,-16.5625 -7.75,3.3125 -8.2812,7.7188 -16.5625,1.125 -5.5313,0 -2.7812,-9.9688 0,-3.8438 -9.9375,-6.0937 0.5625,-3.3125 6.625,-6.625 4.9688,2.2188 11.5937,0 7.1875,-3.3126 1.6562,-5.5312 0,-3.875 -6.625,-3.3125 -1.0937,-7.1875 6.625,-6.625 5.5313,1.6562 9.9374,-4.4062 7.1876,-6.0938 1.6562,-3.3124 5.5312,1.0937 8.8126,-1.6563 -0.5313,-14.3437 4.9687,-3.875 3.3126,7.75 11.5937,-2.2187 4.4063,-10.5 -13.7813,-9.9376 7.7187,-13.25 6.625,-11.0624 7.1876,-6.625 -0.5626,-6.625 2.2188,-4.4376 7.75,-7.1874 9.375,-1.6563 11.0625,8.3125 11.5937,-7.75 0,-3.875 -3.3124,-2.75 3.3124,-8.2812 3.3126,-8.8438 3.875,1.6562 6.625,-2.75 10.5,-6.625 11.0312,-8.8437 3.3125,-4.9687 -0.5313,-7.1876 0.5313,-17.125 1.6563,-14.375 0.5624,-9.9374 16.0313,-9.4063 8.2813,-3.8437 4.4062,-10.5 -9.375,-16.0313 -2.2188,-12.1563 19.875,-27.0624 11.0626,-4.9688 6.0624,0 14.9376,-14.9062 4.9687,-5.5313 11.5937,16.5625 18.7813,25.4062 17.6875,18.7813 18.7812,32.5937 14.9063,6.6563 17.6875,26.5 4.9688,4.9687 17.125,5.5313 11.0312,16.0313 3.875,16.5624 8.2812,12.6876 3.3126,7.75 17.6874,4.9687 23.75,14.9063 16.5938,3.3124 8.2812,-1.0937 c 0,0 20.9789,10.5121 21.5313,7.75 0.5525,-2.762 -2.2187,-40.3437 -2.2187,-40.3437 l 12.1562,-24.3126 c 0,0 -8.8347,-13.7983 -6.625,-19.875 2.2097,-6.0766 1.125,-32.0312 1.125,-32.0312 l 5.5,-11.625 15.4688,-25.4062 16.5937,-21.5313 11.0313,-11.0625 3.875,21.5625 -2.2188,3.8437 3.3125,12.1563 4.9687,1.125 1.6563,2.75 6.0937,0.5625 8.8438,-1.125 12.6875,5.5312 11.0625,-1.6562 6.0625,2.2188 c 0,0 3.9375,-2.0156 5.5,-1.625 1.5625,0.3905 9.375,0 9.375,0 l 4.2813,-0.7813 7.0312,6.6563 7.0312,3.125 3.9063,3.5 5.0937,-0.7813 1.1563,-5.8437 -5.8437,-3.5313 0.7812,-17.5625 16.7812,2.7188 18.75,0.4062 9.7813,-2.75 35.5313,-0.7812 1.9687,5.4687 13.6563,-0.375 c 0,0 8.5937,1.1563 10.1562,0.375 1.5625,-0.7812 7.0312,-4.6875 7.0312,-4.6875 l 7.0313,8.5938 9.375,9.7812 7.0313,2.7188 5.875,-3.5 10.5312,-0.7813 14.8438,-1.1875 14.8437,-2.3438 c 0,0 9.375,-5.4687 12.5,-4.6874 3.125,0.7812 11.7187,2.3437 11.7187,2.3437 l 12.5,-5.8437 10.1563,1.5624 8.5937,3.5 12.5,0.7813 16.0313,-1.1563 10.1563,1.9376 12.875,3.5312 1.5624,12.0938 2.75,12.5 7.4063,14.0624 9.375,16.0313 10.9375,17.1875 7.8125,12.5 5.875,8.1875 8.9687,5.0937 12.5,0.375 8.5938,2.75 16.8125,-2.3437 5.0625,1.5625 c 0,0 7.0312,-5.4688 8.5938,-6.25 1.5623,-0.7813 8.5937,-6.25 8.5937,-6.25 l 16.4063,-7.8125 66.8124,0 18.3438,0.7813 7.4375,7.4062 10.5313,12.5 9.7812,11.7188 7.4062,12.9062 10.1563,8.1875 14.0625,6.25 12.5,6.6563 8.5938,10.1562 3.9062,4.6875 -9.75,3.5 -7.0312,7.0313 -1.5626,7.4374 -7.4374,0 -23.0313,11.7188 18.3437,11.7188 18.75,13.2812 25.4063,0.375 16,1.5625 28.125,3.5313 27.75,1.5624 11.7187,5.8438 12.0938,13.6875 10.5625,17.9687 3.9063,5.0626 21.4687,14.0624 7.8125,3.125 9,14.0626 13.6562,16.0312 12.125,8.9688 17.5626,5.0937 22.2812,14.8437 25.375,0 19.1562,0.7813 14.4376,2.3437 10.1562,5.0626 14.0625,7.4374 12.125,4.2813 14.4375,3.9063 21.5,7.8124 18.75,3.5313 13.2812,3.5 14.0626,1.9687 12.5,7.8126 11.3124,4.6874 13.2813,4.2813 8.2187,1.5625 12.875,0 16.8126,2.75 10.1562,1.9375 13.6562,3.9063 c 3.9064,1.6926 10.5626,3.1099 14.4688,5.75 l 0.375,-0.7188 1.625,-19.0938 -1,19 0.4062,1.25 12.5,5.0938 5.2188,0.062 12.9062,-1.1875 8.9688,0.7812 11.7188,7.4376 5.4687,2.3437 12.9063,7.4063 12.5,7.8124 17.9687,12.9063 3.125,3.5 20.6875,-0.375 7.8125,-1.1875 11.3437,-6.25 10.5313,-4.6875 5.4687,-3.9063 5.875,-6.625 10.5313,-2.3437 9,0 5.4687,-1.5625 6.25,0 9.375,12.0938 7.0313,7.4374 -2.3437,10.5313 2.7187,9.375 4.6875,12.5 5.4688,2.3437 8.5937,0 -1.1563,11.3438 -1.1874,9.375 28.125,-2.3438 2.3437,12.875 5.4687,4.3126 5.875,-1.5626 7.0313,3.5 3.5,5.0938 5.0937,-0.7812 8.1876,3.5 9,2.75 13.6562,1.5624 15.625,0.7813 10.9375,2.3437 14.8437,-0.7812 14.0626,2.3438 16.8124,0.7812 14.0626,0.375 8.5937,-4.6875 17.9687,0.7813 4.2813,9.7812 0.7813,4.6875 7.0312,-0.4063 10.5625,12.9063 9.375,10.1563 13.6563,16.4062 6.6562,8.1875 5.4688,0.4063 7.8124,1.9374 9.375,-2.3437 6.25,-7.8125 7.8126,3.9062 9.75,5.0938 11.7187,3.9062 14.0625,0 2.3438,2.3438 5.4687,1.1562 7.8125,7.0313 6.25,11.7187 5.0938,9.375 3.9062,5.0938 0,5.4688 -4.6875,3.9062 2.3437,5.8438 -6.25,5.875 -8.5937,5.8437 -7.4375,4.3125 7.0312,10.1562 1.9688,7.8126 -0.4062,5.4687 1.5624,5.8437 10.9376,1.9688 5.4687,3.5 -0.7813,25 0.4063,9.375 3.9063,5.875 -5.4688,8.5938 0.375,3.125 7.4375,0.375 2.3437,10.5624 5.0626,12.5 4.6874,6.25 3.125,10.5313 10.5626,20.7187 5.8437,7.0313 9.375,3.125 5.4687,5.8437 7.0313,0 8.5937,2.75 13.2813,5.4688 c 0,0 11.7186,0.3906 13.2813,0.7812 1.5623,0.3907 6.6562,1.5626 6.6562,1.5626 l 3.9062,6.25 1.1563,5.8437 5.875,5.4687 9.75,7.4376 3.9063,9.75 1.1874,6.25 5.8438,1.5624 5.875,4.3126 13.2812,0.375 12.875,-3.125 7.0313,-7.8126 12.125,-5.4687 13.2813,0.7813 9.75,-0.7813 13.2812,-7.0313 9,-5.4687 10.5312,3.9063 9.375,2.3437 6.6563,-2.3437 3.5,2.3437 7.0313,1.1875 9,4.6875 12.0937,5.0625 5.0937,2.75 17.9688,-0.7812 7.8125,4.2812 12.5,3.9062 10.9375,1.1876 5.4688,0 8.1874,2.3437 12.5,-2.3437 11.7188,5.4687 12.5,3.9063 6.25,5.8437 -0.375,3.5313 3.9062,-0.7813 6.25,-13.2813 10.9376,-10.1562 5.8437,-12.5 9.375,-11.3438 12.5,-2.3437 5.0937,-1.5625 3.5,-7.4062 6.25,-11.7188 7.8126,-11.7188 9.375,-9.375 9.375,-7.4374 5.0937,4.6874 5.0625,3.125 8.2188,0.4063 4.6874,1.5625 7.8126,4.6875 1.9374,2.3437 11.3438,0.7813 5.0625,7.4063 7.4375,13.2812 13.6562,16.8125 3.125,10.9375 10.5626,14.0625 8.5937,6.25 9.75,-2.3437 6.6563,12.5 7.0312,14.4374 6.625,10.9376 3.9062,4.6874 -0.7812,6.25 -1.1562,4.3126 -6.6563,3.5 -8.1875,11.7187 -10.1562,2.75 -1.5626,0.7813 c 0,0 5.8438,4.6874 4.2813,7.0312 -1.5625,2.3437 2.3437,3.125 2.3437,3.125 l 10.1563,3.125 5.875,1.9375 6.625,-2.7187 16.4063,9.375 0.7812,5.0624 6.25,5.4688 2.75,1.5625 15.2188,0 13.6874,9.7813 4.2813,3.9062 7.8125,1.1562 7.4375,10.9376 6.25,3.5312 2.7187,-0.7812 3.5313,-4.6876 5.4687,-9.7812 10.1563,-10.5312 7.0313,-7.0313 2.3437,-3.9063 2.7187,-3.125 2.3438,4.2813 3.9062,0 1.5626,-2.3437 2.3437,3.125 12.5,0 3.9063,-1.1563 4.6874,2.7187 7.0313,-0.7812 3.5313,-13.6562 12.5,-8.2188 7.8124,-10.1562 8.1876,-8.9688 12.5,-9.7812 3.125,-6.25 4.6874,-0.7813 7.8126,-5.0625 4.6874,-7.4375 8.2188,-7.4063 9.375,-10.1562 3.9062,-14.8438 3.125,-14.0624 5.0626,-11.7188 7.0312,-10.1562 5.0938,-5.875 10.1562,-10.1563 12.0938,-7.8125 2.75,-2.3438 -2.3438,-8.1874 10.1562,-7.8126 12.875,-4.6874 12.5,-8.2188 3.9063,-4.2812 0.4063,-4.6876 4.6874,-5.4687 2.7188,1.1563 12.9062,-15.2188 5.8438,-0.4062 2.75,0.7812 7.0312,-4.6875 26.5626,1.1875 7.4062,6.25 16.4062,7.4062 5.4688,12.9063 0.7812,2.3437 6.25,3.125 3.125,-8.5937 5.875,-9.375 10.5313,-9.7813 6.25,-13.2812 1.9687,-2.3438 -0.4062,-9.375 -11.3125,-6.25 -5.875,-1.5624 -5.4687,-9.375 -7.8126,-7.4063 0.7813,-7.4375 3.9063,-9.375 2.3437,-3.5 -0.375,-5.875 13.6563,-4.6875 15.25,0.4063 10.5312,3.125 17.9688,-4.6876 c 0,0 6.6405,-4.3124 11.7187,-4.3124 5.0781,0 20.3125,-5.0626 20.3125,-5.0626 l 5.4688,0.7813 9.7812,-5.0937 4.6875,2.75 12.875,-11.3438 11.7187,-5.8438 10.1563,-5.875 17.5937,3.5313 10.1563,3.5 14.0625,0 13.2812,0 12.875,-3.9063 11.3438,3.125 8.5938,4.3126 4.6874,4.6874 5.0626,7.0313 3.9062,7.8125 6.25,12.0938 4.3125,10.9374 9.375,7.8126 7.0313,-3.9063 7.4062,9 5.0938,4.2813 6.25,1.9687 3.125,3.5 18.3437,6.25 7.8125,1.9687 9.375,-3.9062 12.125,-6.6562 13.6562,-8.5938 21.875,-3.9062 6.25,-5.0626 8.2188,-0.7812 19.9062,-10.1562 14.0626,-5.4688 3.125,-5.875 6.6562,1.9688 16.7812,-6.25 10.1563,-1.1876 12.125,-2.7187 14.4375,-0.7813 15.625,1.1563 12.9062,-4.2813 13.2813,-3.125 5.8437,-2.75 12.5,-14.4374 6.6563,-16.4063 3.9063,-9 5.8437,-5.0625 15.25,-6.6562 14.0625,-6.625 8.9688,-9 3.5312,-19.125 -10.9375,-12.5 0.7813,-12.5 5.0624,-6.25 0.4063,-1.9688 4.6875,-2.3438 6.625,-11.3124 1.9688,-7.8126 5.8437,-7.0312 8.2187,-12.5 9.375,-10.5625 3.5,-6.625 3.125,-19.5313 0.3438,-4.4062 0.9688,-7.6875 1.25,-11 -8,-14.5 -4.25,-4.5 0.75,-3.5 1.75,-1 -0.25,-9 7.75,-6.75 4.5,-13.25 8,-10.5 4.8124,-4.5937 8.125,-8.8126 8.4688,-9.2187 c 0,0 3.5429,2.1213 4.25,0 0.7071,-2.1212 7.7812,-8.125 7.7812,-8.125 l 6,-5.2813 2.4688,0.3438 3.9062,-4.9688 6.375,-5.6562 3.875,-1.4062 9.5313,-4.25 4.625,-1.0626 8.4687,0.375 11.6563,-1.0624 1.4375,6 9.5312,1.0624 4.9688,1.7813 9.875,4.5937 14.875,6.7188 12,4.25 11.6875,6.3438 5.2813,5.6562 4.5937,4.25 12.375,-0.3438 8.8437,3.875 5.6563,6.375 6.375,3.5313 2.2813,2.5 7.375,15.5 6.25,10.125 -0.25,9.25 2.5,2.25 6.875,7 8.25,1.5 2.5,2.75 3,0.75 7.5,0 7.125,3.25 c 0,0 10.25,4.5 10.875,4.5 0.625,0 24.75,23.125 24.75,23.125 l 3.375,4.125 4.75,2.5 9,5.25 9.5,5 2.75,0 3.75,-1.875 3.75,0 3,2.625 5.875,0.25 11.25,4.875 9.25,2.5 3.25,6.25 5,11.875 10.5,6.5 2.5,1.5 12.875,5.625 10.625,9.125 11.875,4.125 5.375,2.125 14.625,3.25 22.875,0.375 14.75,5 3.375,2.125 11.25,-1.375 3.75,-4.25 7.25,-9.5 5.625,0.625 6.625,-2 18,4.25 3.375,-2 8.5,-6.125 10.125,-7.25 3.625,-5.5 7.875,-10.875 9.375,-10.875 10.875,-7.375 4.625,-5.25 2.25,-7.625 6.875,-15 4.875,-9.625 3,-8.25 5.25,-3.875 9.5,-9.5 4.375,-8 3.5,-9.75 3.75,-5.25 10.625,-8.75 7.625,-4.625 7.125,2.375 7.375,0.75 4,-2.375 6.5,-5.625 10.5,-9.5 3.375,-6.375 20.125,0 17.875,-10 6,0 c 0.5,0 7.75,-3.125 7.75,-3.125 l 19.875,0 13.25,-2.5 4.5,-1.75 8.625,-6.875 15,-8.125 7.5,-1.125 15.5,-0.625 11.625,4.875 16.875,0.5 15.625,-8.375 19,1 12.125,-4.5 17.625,-0.5 6.5,-2.75 8.75,0.75 7.25,-1.25 9.25,-5.25 9.5,-4.625 10.625,-3 13.375,-3.375 7.75,-3.75 8.25,0.75 9.75,-3.375 10.25,-6.75 6.25,-4 5.375,-4.375 4.375,2.125 6.25,0 3.625,-3.375 2,-9.25 9.25,-5.25 13.375,-8.875 6.375,-7.875 5.75,-12.25 4,-10.125 7.375,-2.125 5.875,-5 10,1 8.625,1 5.75,-1.75 12.625,0.75 4.75,-2.5 13.125,-1.875 2.875,-2.125 6.75,-1.125 3.875,-2.75 5.625,-0.25 3.5,-1.75 3.375,-2.875 5.375,-3.75 15.625,-1.125 6.75,-1.75 3.25,-2.25 5.375,-5.875 3.375,-8.625 2.5,-4.875 5.5,-12.5 -1.5,-8.125 -4.125,-4.125 -5.625,-13.75 0.625,-13.5 0.75,-3.875 2.125,-1.375 7.875,-0.5 5.625,-3 3.875,3.125 10.5,0.5 7.875,-3.375 7.875,0.625 12.875,-3.5 14.25,-4.125 3.75,-7.125 3.5,-4 5.125,-6.5 8,-7.25 1.5,-3.875 0.75,-4.25 0,-5.625 9,0 8.375,-1.125 6.625,-1.375 6,-3.375 5.5,-0.875 7.25,-0.125 -0.5,-1.75 -4.125,-6.25 -8.125,-17.75 -12.25,-21 -12.625,-6 -8.25,-8.125 -9.5,-13.5 -5,-9.25 -5.25,0.75 -4,-3.75 -6.75,-5.75 -12.25,-5 -2,-6.75 -11,0 -7,-3.25 -4.75,-3.75 -8,-10.25 -3.75,-6 -4.75,-2.75 -7.75,-6.25 -3.75,-7.5 -4.25,-1 -2.25,-3.75 -7.25,-4 -6.25,-2.75 -5,-4.25 -0.75,-5.5 -4.5,-7.5 -4,-4.5 -4,-5.5 -10.5,-16.5 -5.5,-5.5 -9.5,-10 -13.5,-22 -8.5,-12.5 -5.5,-10 -7.5,0 -6.5,-2.5 -6,-4.5 -6,-0.5 -10,3 -8,-2.5 -7.5,-5 -9.5,-3 -8.5,1.5 -7,-5 -4,-8.5 0.5,-6 -6,-1 -4.5,14.5 -1.5,7 -3,5.5 -3,-1.5 -10,-8 -8.5,-6 -9,7.5 -4.5,-5 -8.5,-11.5 -9.5,-6.5 -6.625,-8.5625 -6.7188,-10.25 -6.375,-7.4375 1.7812,-5.8437 -0.1874,-36.75 -0.875,-29.7188 -1.9376,-27.75 -3.375,-31.8125 0.5313,-25.2813 0.5313,-18.0312 7.7812,-16.4375 0.1875,-3.875 1.4063,-16.4375 1.0624,-13.0938 0.5313,-11.125 2.4687,-2.8437 8.3126,-9.1875 5.3124,-10.9688 7.4063,-12.9062 5.6563,-9.7188 -0.875,-2.8124 -4.25,-12.0313 -2.2813,-15.75 c 0,0 1.75,-10.242 1.75,-11.6563 0,-1.4141 10.25,-10.7812 10.25,-10.7812 l 9.9063,-7.5938 7.5937,-8.3124 -0.5313,-3.5313 -8.3124,-21.9375 -4.4063,-14.125 -3.1875,-6.5312 0,-4.625 -4.4062,-12.9063 0,-9.3437 -1.25,-4.0626 -3,-13.9687 1.7812,-8.8437 2.0938,-4.5938 11.3124,-7.4375 13.4376,-11.8437 9.0312,-9.9063 2.125,-8.6563 -0.1875,-11.5 -1.9375,-5.2812 -14.6875,-23.1562 -3,-7.25 -5.3125,-21.5626 -7.2188,-11.8437 5.2813,-11.1563 4.5937,-12 4.5938,-12.375 6.1875,-12.375 3.5625,-1.25 15.1875,-1.4062 10.0625,-4.4375 3.0312,-3.6875 -1.25,-9.375 -4.25,0.5312 -14.6562,-0.375 -8.125,-4.9374 -3.0312,-5.8438 -8.3126,1.9688 -3,-1.5938 -9.1874,-6.375 -11.125,4.9375 -5.5,1.7813 -3.875,-1.9376 -4.7813,-12.5624 -3.1875,-4.5938 -10.0625,-11.6562 -7.4375,-8.3126 -3,-1.9374 -7.7812,2.2812 -5.8126,-4.0625 -3.1874,-4.5937 0.6874,-7.4376 0,-5.6562 1.7813,-9 5.4687,-10.4375 5.125,-7.4375 6.1876,-4.75 9.75,-7.7812 12.7187,-9.7188 8.6563,-6.375 5.125,-6.7188 7.25,-6.375 5.4687,-6.6874 5.3125,-3.9063 6.7188,-3.7187 1.4062,-5.8126 5.6562,-3.1874 3.375,-4.9688 3.875,-5.8125 1.25,-10.25 3.875,-11.1563 3.375,-7.9374 4.4063,-3.5313 c 0,0 5.4912,-3.0214 6.375,-3.375 0.8839,-0.3535 5.3125,-7.25 5.3125,-7.25 l 2.4688,-8.6563 4.5937,-4.25 0.875,-4.7812 3,-13.7812 1.7813,-9.1876 1.4062,-4.7812 3.1875,-7.5938 5.3125,-3 12.7188,-0.875 9.5312,-1.25 4.0625,3.875 11.1563,8.3126 6.375,12.375 c 0,0 9.7009,6.375 11.4687,6.375 1.7677,0 5.4715,4.2393 7.0625,4.0624 1.591,-0.1767 8.6875,1.7813 8.6875,1.7813 l 14.6563,4.0625 14.1562,4.5938 13.5938,1.75 14.5,-0.3438 10.4375,-4.0625 14.6562,6.375 16.625,4.9375 7.4375,5.6562 4.7813,0.3438 1.9375,8.6875 -3,7.5937 -1.25,8.3126 c 0,0 0.1875,9.1786 0.1875,10.0624 0,0.884 -0.1875,5.8438 -0.1875,5.8438 l 1.7812,8.8438 3,7.7812 2.8125,3.6875 6.375,5.8437 10.4375,8.5 4.9375,4.0626 11.8438,0.5312 7.9687,5.2812 7.75,5.6563 3.7188,-1.2187 1.25,-5.5 0.5312,-9.3438 1.2188,-6.375 2.3125,-4.5938 8.8437,-1.9374 13.25,2.8124 7.0625,7.4376 5.5,9.7187 -0.7187,7.9375 -0.3438,13.9688 -0.375,5.6562 7.9688,6.5625 5.6562,4.2187 7.7813,1.9688 11.3125,1.2188 12.7187,-1.9376 10.0938,-2.125 4.5937,-6.9062 6.875,-5.6562 3.9063,-0.1563 3.1875,-1.9375 3.5312,7.0625 8.125,6.3437 11.125,5.3126 8.3125,2.3124 7.25,-0.1874 5.6563,-3.3438 1.0625,-6.5625 -0.5313,-5.2813 -2.125,-2.8437 -3.6875,-0.7187 -2.125,-3 -3.5312,-5.125 -2.125,-9.375 0,-4.0626 3.3437,-4.75 -1.0625,-4.7812 -0.5312,-12.5625 -1.9375,-9.9063 1.0625,-6.3437 1.4062,-13.7813 6.1875,-1.5937 1.0625,-2.3125 3.7188,-3.1875 12.5625,-8.125 16.5937,-1.4063 4.7813,-1.7812 2.6562,-4.9375 -3.1875,-2.3125 -3.3437,-9 -1.7813,-4.9688 2.6563,-3.1562 4.5937,-0.9062 5.8438,3 8.2812,3.9062 6.0313,4.9375 9,1.7813 10.9687,1.4062 9.5625,-0.5312 2.0938,1.9374 16.625,0.5313 11.8437,0.375 -0.1875,-16.9687 -7.75,-12.9063 -3.0312,-7.7813 -3.1563,-2.3124 -0.7187,-4.25 0,-6.1876 2.125,-9 1.4062,-8.6562 3.7188,-5.8438 2.125,-5.6562 1.0625,-7.4375 -0.375,-7.4063 6.375,-7.25 4.25,-4.7812 3,-5.6562 1.7812,-5.125 0.6875,-8.6563 1.0625,-9.375 2.3125,-5.6563 5.6563,-11.5 6.7187,-6 4.9375,-1.2187 9.375,-9.9063 9.375,-6.1874 9.1875,-4.0626 8.3125,-0.375 14.6563,-1.2187 11.5,5.2813 6.7187,7.25 2.2813,-0.6876 21.0625,1.4063 10.25,2.125 2.4687,-11.3125 -1.5937,-14.1562 0,-7.4063 0,-12.0313 7.25,-10.25 4.5937,0 4.7813,-3.1874 6.5312,2.6562 7.25,-0.875 9,-9.7188 4.7813,-5.8437 5.5,-3.375 8.4687,-4.4063 7.25,-4.7812 5.8438,-1.0625 2.4687,-2.6563 14.125,-3.875 12.75,-3.7187 13.9688,-4.7813 5.6562,-2.2812 4.9375,-3.7188 0.875,-4.0624 -1.4062,-5.125 -6.1875,-4.9376 -4.4063,-2.6562 -5.8437,-7.7812 -1.25,-4.25 0.7187,-10.4376 2.125,-6.875 3.5313,-9.5624 0.875,-8.6563 3.5312,-7.4375 4.9688,-2.2812 4.7812,-0.3438 5.6563,3.5312 7.5937,7.9376 3.7188,6.375 3.875,15.5624 1.9375,14.8438 0.375,7.25 4.75,5.125 9.375,3.7188 11.3125,4.2187 12.7187,2.6563 14.875,-2.125 7.5938,-4.2188 -1.0625,-7.4375 -1.25,-6 0.1875,-15.0313 -1.9375,-10.4374 -7.7813,-5.3126 -0.875,-12.7187 3.6875,-8.125 5.125,-10.4375 8.3125,-12.7188 8.3125,-7.9687 12.2188,-6.875 13.7812,-4.0625 13.0625,-8.6875 13.0938,-7.9375 10.9687,-8.8438 3.3438,-5.4687 -1.5938,-7.4375 -3.875,-15.0312 2.2813,-4.5938 3.0312,-3 13.5938,-3.875 13.25,-3.7188 6.5625,-4.7812 15,-6.9062 9.375,-5.125 10.7812,-0.1563 5.125,3 10.7813,3.7187 7.9687,-2.125 0.7188,-5.5 6.875,-3.6874 -0.5313,-6.0313 3.9063,-5.2813 12.375,-4.0937 5.6562,-7.5937 7.9375,-7.25 7.7813,-6 13.625,-4.5938 6,-7.25 7.4375,-5.3125 6,1.0625 2.8437,-2.125 10.0625,3.1875 3.875,-5.6563 1.4375,-6.1874 5.6563,-4.25 4.4062,-1.4063 9.1875,0.3437 3.7188,3.0313 3.5312,4.4063 6.9063,-0.875 7.4062,-9.5626 3.1875,-1.2187 12.75,-15.2187 -2.4062,-5.0313 3.5,-6 -16,-3 -15,10.5 -7.5,-0.875 -4.25,-1.125 -6.875,0.875 -1.125,-1.5 3,-2.75 -16,-0.125 -0.75,-3.375 -11.875,-4.75 -8.375,1.25 c 0,0 -4,7.75 -4.875,8.625 -0.875,0.875 -2.625,-7.625 -2.625,-7.625 l -9.875,4.25 0.125,-4.75 -3.25,-2.625 -4,-2.125 -8,-3 3.125,-4.875 -0.625,-2.625 -5.5,2.125 -3.875,-12 -2.5,-2.75 -7.125,5.125 -7,2.625 -6.125,-8.25 -5.5,2 -5.5,-0.25 -0.5,-6.375 -1.375,-5.875 -9.875,-0.5 -7,5.375 -6.75,-1.125 0,-7.625 6.125,-9.5 -13.75,-2.25 -10.125,-4.25 c 0,0 -10.25,-6.75 -11.125,-6.5 -0.875,0.25 -4.25,2.25 -4.25,2.25 l -7.375,-2 -5,2 -8.25,-5.75 1.25,-6.875 -4,-5.5 0,-4.25 -8.25,-5 -0.25,-13.25 -8.25,-11.75 1,-4.75 -10.125,-15.75 -11.625,-8 -2,-4.75 -5.75,-4.5 -5.125,-13.875 -6.375,-7.5 -19,-35 -7,-6.75 -10,-6.125 -13.875,-8.125 -1.875,-11.5 2.125,-10.875 -1.75,-9 6.125,-26 14.875,-2 9.375,0 17.625,4.25 11.875,1.75 14.25,-0.625 11.375,-3.75 -3.875,-13.625 -7.5,-13.5 -7.25,-4.375 -16.5,-7.25 -1.375,-4.75 -19.5,-16.5 -9,-18.375 -0.5,-12.25 -0.5,-8.375 -15.75,-21 -26,-13.5 -5.125,-19.75 1.625,-7.5 8.375,-16.25 3.625,-2.25 3.625,-7.75 1.5,-5.875 2.75,-5.5 -2.625,-1.75 0.5,-4.25 10.5,-10 -0.5,-6 -4,-15.5 1.5,-26.5 4.5,1 14.5,-5 4.5,-10 11.625,-8 18.25,-11.625 5.625,-0.25 2.875,-5.875 16.625,-16.25 1,-7.5 -4.5,-6 6,-13.5 4.5,0 1,-3 -5,-14.5 2,-8.5 2.5,-23.5 6,-2.5 2,-6.5 4,-9 -3.5,-10.5 -5.5,-11.5 -7.5,-6.5 -5,-8.5 -2,-8.5 -1.5,-13.5 2,-8 3,-9 0,-5 7.5,-4 1,-3.5 5.5,-6.5 -3,-6.5 2,-1.5 -2.5,-7 -7,-7 -1,-10 -8,-6 -4.5,-5.5 -1.5,-6.5 -4.5,-5.5 1.5,-5.5 -3,-3 -1,6 -8.5,1.5 -4.5,-2.5 -4,-5.5 1,-6 -1.5,-1 -3.5,-4.5 3,-6 -7,-3.5 -1.5,-5 1.5,-3.5 -2.5,-4 -5,-7.5 4,-10 -5.5,-5 -1.5,-5 -4,-5 0,-7 -8,-5 -6.5,-0.25 0,-3.75 -3.75,-2 -2.75,-3.75 0,-7 2.25,-5 -3.75,-7.5 0.25,-4.5 3.25,-5.5 0,-7.25 2.25,-13.5 7.25,-0.75 1.25,-2.25 -4.5,-3.5 -0.5,-3.5 2.5,-11.75 2.75,-12.5 2,-8.75 -2,-3.75 c 0,0 0.5,-4.25 -0.25,-6 -0.75,-1.75 -1,-6.5 -1,-6.5 l 6.5,-7 3.25,-4.5 6.5,-8.5 16.75,0.25 7.25,0 c 0,0 9.0509,-1.5099 9.75,-1.75 -1,0 7.5,-4 7.5,-4 l 8.5,-6.75 6.5,-5.25 2.75,-11 15,-8.5 6.5,-7.5 2.75,-4.75 8.5,-9.5 0,-9.25 7,-12.5 1.5,-6 -0.5,-5.75 3.5,-3.25 8,-0.5 6,-8.5 0,-7.75 0.25,-10.75 -3.5,-5.75 -0.75,-4.75 5,-5.75 -0.75,-4.25 -3.75,-8.75 -2,-5.5 4.75,-5.5 6.5,-2.75 4.75,-4.75 2,-5.25 1.5,-11.75 -2.25,-1.75 0.75,-3 5.25,-0.25 3.25,7 7,3 5.25,-1.25 2,-5.75 -4.5,-3.5 8.25,-4.75 2.5,-4.25 0,-3.5 8.75,-5 11.75,-9 1,-5 12.75,-4.5 11.5,0 6.5,-4.75 -0.25,-3.5 -7,-11.75 -6.75,-1 -1,-2.5 -0.5,-6.25 -2,-3.25 -4.75,1.5 -3.75,-2.25 0,-4 5.75,-9.25 -0.5,-9.25 -4,-2.5 c 0,0 -1.75,-2.75 -1.75,-4 0,-1.25 2.5,-4.5 2.5,-4.5 l -1,-5.5 -1.25,-3.25 0,-9 4,-9.5 -3.75,-2 -8.5,0 -4.5,-10.5 -2.5,-12 -5.75,-3.5 -8,-7.75 -0.5,-5.25 -4.5,-13 1.25,-7.25 -3.25,-12.5 0.5,-25.25 4,-5.25 1.25,-5.75 2.5,-15.5 5,-10.75 0.75,-22.75 3,-10 7,-20.75 c 0,0 -0.25,-13.25 -0.25,-14.5 0,-1.25 -1.5,-30.5 -1.5,-30.5 l 1.0309,-8.1557 1.7187,-5.9062 11.5313,-34.3438 -1.7188,-4.1562 -4.1562,-5.6563 -6.1563,0 -0.9687,-0.9687 -6.125,-0.5 -1.7188,-1.4688 -6.875,-0.25 -3.6875,-1.2187 -14.2187,-0.25 -3.4375,-3.1875 -5.625,-0.25 -4.1875,-1.9375 -6.875,0 -4.1563,-2.2188 -16.1875,0.25 -6.875,-3.6875 -6.875,-0.5 -2.6875,-2.4375 -5.625,0 -4.4375,-2.4687 -23.0625,-6.8438 -4.9062,-0.5 -1.6875,-1.2187 -5.9063,-0.25 -24.5312,-6.625 -6.375,-1.9688 -5.625,-2.6875 -5.9063,0 -15.4375,-5.9062 -10.5625,-4.6563 -4.4062,-0.5 -7.5938,-2.6875 -8.5937,-3.6875 -3.4375,-0.7187 -5.625,-2.9375 -10.5625,-7.8438 -8.8438,-3.2187 -11.0312,-6.125 -8.3438,-4.4063 -5.625,-5.4062 -3.6875,-3.9063 -3.1875,0 -2.9375,-1.4688 -0.25,-2.4687 -2.4375,-0.25 -6.1562,-4.6563 -7.0938,-2.4375 -7.375,-5.4062 -2.6875,0 -5.6562,-3.9375 -4.6563,-4.65625 -5.1562,-2.1875 -6.125,-3.4375 -4.9063,-3.6875 -4.4062,-4.40625 -4.6563,-2.9375 -5.6562,-5.40625 -5.1563,-2.46875 -8.8125,-8.5625 -5.4062,-4.90625 -4.4063,-5.65625 0.7188,-1.46875 3.2187,-3.1875 -2.4687,-1.21875 -4.6563,-2.21875 -2.9375,-4.15625 -3.1875,-1.96875 -4.6562,-1.46875 -6.4063,-3.9375 -2.9375,-1.96875 -4.4062,-3.1875 -2.2188,-2.9375 -3.9062,-2.6875 -5.6563,-4.90625 -4.6562,-3.4375 -4.1563,-4.40625 -3.4375,-4.4375 -4.9062,-3.90625 -2.9375,-5.15625 -2.2188,-3.6875 0,-7.09375 1.2188,-0.5 1.2187,-2.6875 -0.4687,-5.40625 -1.7188,-1.21875 0,-2.21875 -1,-2.6875 -1.9375,-1.25 0,-2.1875 -1.4687,0 -1.5,-1.96875 -0.4688,-1.71875 -2.9375,-1.46875 -14.5,-13 -9.5625,-6.625 -4.1562,-4.90625 -2.4688,-1.96875 -2.6875,0.25 -12,-8.59375 -5.1562,-5.125 0.25,-3.6875 2.1875,-1 0.5,-1.21875 -6.125,-0.71875 -8.0938,-4.1875 -2.5,-2.09375 -4.1562,-3.46875 -8.6875,-4.15625 -7.9688,-4.5 -0.3437,-4.15625 -3.8125,-1.0625 -0.7188,-2.40625 -3.125,0 -5.875,-3.46875 -6.25,-6.25 -2.0937,-6.25 0.3437,-3.125 -9.3437,-2.40625 -4.5313,-2.78125 -4.1562,-3.125 -3.4688,-5.90625 1.0625,-3.8125 2.0625,-3.125 0.3438,-2.78125 -2.7813,-4.5 -4.8437,0.6875 -4.8438,-2.4375 -1.9062,-2.09375 -1,-0.875 -2.75,-4.46875 -0.5,-4.9375 -2.2813,-2.875 -6.8437,-0.34375 -5.8125,-6.9375 -0.1563,-2.875 -1.4062,-0.9375 -0.25,-1.75 1.7187,-0.34375 0.9688,-0.9375 -0.25,-2.1875 -6.9375,0 -7.6563,-3.8125 -3.0937,4.53125 -1.0625,11.4375 -2.7813,1.375 -1.375,-1.71875 1.75,-18.40625 -2.0937,-2.40625 -14.2188,-8.34375 -1.75,-1.5625 -0.6875,-0.34375 -2.8437,-3.96875 -3.0625,-1.40625 -4.3125,-0.4375 c 0,0 -3.4656,-5.3508 -3.8125,-5.4375 -0.3469,-0.087 -3.4688,-0.28125 -3.4688,-0.28125 l -1.4062,-0.9375 -2.3438,-2.53125 -9.5312,-4.34375 0.5937,-1.03125 18.125,7.375 0.5313,-1.3125 -19.8438,-8.125 -0.625,1.125 -0.5937,1.03125 -14.5625,-6.59375 -1.75,2.4375 -7.625,-3.46875 -3.8125,0 -1.4063,-3.8125 -3.8125,-2.09375 -6.5937,-3.8125 L 6230.75,651.875 6224.5,647 6221.0312,646.65625 6209.25,638 6206.4687,636.9375 6195,628.625 l -9.3438,-8.3125 -6.25,-8.34375 -7.625,-14.5625 -5.2187,-12.15625 -3.8125,-13.53125 -1.7188,-10.75 -1.4062,-10.0625 0.3437,-2.40625 0,-13.53125 2.9688,-3.46875 16.625,-2.25 3.6562,-2.625 -0.3437,-3.96875 -24.125,2.4375 0.7187,-15.625 7.9688,-0.875 8.3125,7.625 1.4062,0 14.0313,-9.34375 6.25,6.9375 11.625,13.34375 8.3125,5.21875 2.4375,-2.96875 -10.75,-7.78125 -6.25,-8.15625 -9,-9.5625 1.1875,-1.03125 -1.0313,-2.4375 -3.2812,-0.15625 -7.2813,4 -5.2187,0.5 c 0,0 -7.4423,0.53125 -8.6563,0.53125 -1.2142,0 -2.9687,-2.4375 -2.9687,-2.4375 l -9.375,0.1875 -4.8438,0.84375 -3.125,-2.0625 -4.3437,2.4375 -2.25,3.46875 -2.4063,6.0625 -6.4375,1.375 -13,-1.71875 -71.9687,-14.21875 -3.125,-0.375 -19.9375,-2.75 -51.3438,-8.34375 -21.5312,-3.46875 -6.2188,-2.0625 -20.1249,-3.46875 -7.625,-2.78125 -4.875,0 -13.875,-5.5625 -8.3126,-2.0625 -11.8124,-4.1875 -11.7813,-2.75 -10.4063,-4.1875 -5.5624,0.71875 -13.875,-6.25 -11.0938,-0.6875 -27.75,-6.9375 -12.4688,-3.46875 -6.25,-3.46875 -6.9374,1.375 -9.0313,-2.78125 -11.7813,-4.15625 -2.7812,1.375 -5.5625,-2.0625 -9,-0.6875 -19.4375,-4.875 -5.5312,-2.0625 -3.4688,0 L 5695.5,420.5 l -18.7187,-6.25 -8.3438,-2.09375 -4.1562,-2.0625 -19.4376,-5.5625 -10.4062,-2.78125 -15.9375,-6.21875 -24.9687,-8.34375 -16.6563,-3.46875 -53.4375,-20.8125 -4.8438,-2.0625 -15.25,-6.59375 -1.75,-2.09375 -12.125,-4.84375 -3.8124,0 -11.125,-5.90625 -0.6876,-1.75 -3.4687,1.40625 -13.5313,-5.90625 -12.125,-5.53125 -11.375,-7.375 -16.375,-5.46875 -8.6874,-3.46875 -2.0626,-1.40625 -4.875,-1.03125 -20.125,-9.375 -2.75,-3.09375 -4.875,-0.71875 -1.375,-2.75 -3.8124,0.6875 -4.5313,-2.4375 -5.875,-3.46875 -4.875,-1.71875 -2.8437,-1.625 -0.6876,-0.5 -0.875,-0.65625 -3.9062,-2.78125 -3.8125,0 -7.625,-4.15625 -12.8437,-6.59375 -2.4376,-2.09375 -2.4374,-1.375 -4.8438,-2.78125 -5.5625,-0.34375 -16.625,-9.03125 -2.7813,0 -1.0624,-1.71875 -6.5626,-3.46875 -3.4687,-4.15625 -4.5313,-2.4375 -7.625,-2.09375 -1.375,-3.46875 -12.1562,-5.875 -11.0938,-5.21875 -15.625,-10.75 -18.0312,-11.78125 -10.0625,-5.90625 -2.75,-3.125 -9.7187,-4.5 -13.5313,-8.6875 -7.2813,-2.78125 -18.0312,-12.125 L 5136,165.875 5129.4063,160 l -12.8438,-7.65625 -23.25,-14.5625 -14.2188,-8.65625 0,0.34375 -12.125,-8.34375 0.6876,-4.15625 -1.0626,-2.0625 -4.5,-1.40625 -1.7187,-3.46875 -5.5625,-2.4375 -13.5312,-7.96875 -6.25,-3.8125 -2.0626,-0.34375 -3.4687,-3.125 -12.5,-7.28125 -11.0937,-7.96875 -9.7188,-11.125 -2.4375,-2.40625 -0.3437,-3.8125 -2.75,-1.40625 -0.7188,-2.4375 3.125,-4.15625 -1.0312,-0.6875 -3.125,3.46875 -4.8438,2.4375 -0.3438,2.78125 -2.7812,4.84375 -2.7812,-0.6875 2.0937,-5.5625 1.0313,-6.9375 -1.75,-2.4375 1.4062,-3.8125 -0.6875,-0.34375 -1.4063,1.40625 -1.0312,-1.40625 2.4375,-2.40625 0.3437,-2.4375 -4.1874,3.8125 -3.4688,-1.03125 -6.2188,-4.1875 0.3438,-1.375 -0.3438,-0.6875 -2.4374,1.71875 -4.1563,-3.125 -4.1875,-3.09375 -9.6875,-1.75 -4.1875,-2.09375 -39.875,-14.90625 -1.375,-2.4375 -2.4375,0 L 4880.3437,3.875 4878,0 z"
     id="rect2161"
     inkscape:connector-curvature="0" />
  <g
     id="g6058"
     transform="matrix(18.78307,0,0,18.78307,1199.3188,1622.8054)">
    <path
       sodipodi:nodetypes="cscc"
       id="path2163"
       d="m 109.14883,46.71875 c 0,55.13167 21.93716,108.875 52.71875,108.875 30.78159,0 52.71875,-53.74333 52.71875,-108.875 l -105.4375,0 z"
       style="fill:#ff0042;fill-opacity:1;fill-rule:evenodd;stroke:#ffffff;stroke-width:0.06388732;stroke-linecap:butt;stroke-linejoin:miter;stroke-miterlimit:4;stroke-opacity:1;stroke-dasharray:none"
       inkscape:connector-curvature="0" />
    <path
       id="rect5076"
       d="m 200.34004,46.71875 -72.5,82.71875 c 3.37399,6.02499 7.12394,11.20731 11.21875,15.34375 l 75.15625,-85.8125 c 0.23694,-4.060372 0.375,-8.152804 0.375,-12.25 l -14.25,0 z"
       style="fill:#ffffff;fill-opacity:1;fill-rule:nonzero;stroke:none"
       inkscape:connector-curvature="0" />
    <path
       transform="translate(14.347732,13.862965)"
       d="m 133.08008,67.539181 -8.0698,-3.357381 -3.33218,8.080235 -3.33218,-8.080235 -8.0698,3.357381 3.35738,-8.069796 -8.08023,-3.332182 8.08023,-3.332181 -3.35738,-8.069797 8.0698,3.357381 3.33218,-8.080235 3.33218,8.080235 8.0698,-3.357381 -3.35738,8.069797 8.08023,3.332181 -8.08023,3.332181 z"
       inkscape:randomized="0"
       inkscape:rounded="-3.469447e-018"
       inkscape:flatsided="false"
       sodipodi:arg2="1.1780972"
       sodipodi:arg1="0.78539816"
       sodipodi:r2="8.7074089"
       sodipodi:r1="16.124832"
       sodipodi:cy="56.137203"
       sodipodi:cx="121.6781"
       sodipodi:sides="8"
       id="path6054"
       style="fill:#ffffff;fill-opacity:1;fill-rule:nonzero;stroke:none"
       sodipodi:type="star" />
  </g>
  <path
     id="text6065"
     d="m 3320.1434,4142.6187 137.6632,-54.0623 22.9747,58.5023 c 5.7772,14.7114 8.7388,25.8865 8.8844,33.5247 0.1453,7.6384 -2.1565,14.7024 -6.9058,21.1921 -4.7497,6.4895 -11.1936,11.3323 -19.3318,14.5285 -10.3295,4.0564 -20.0515,4.3699 -29.1659,0.9404 -9.1147,-3.4298 -16.9208,-10.8413 -23.4184,-22.2353 -1.1457,7.3866 -3.0473,13.8598 -5.7051,19.4197 -2.6581,5.5599 -8.0364,13.7597 -16.1353,24.5998 l -20.2555,27.3557 -13.0547,-33.2421 22.0637,-31.8592 c 7.9022,-11.3408 12.73,-18.8728 14.4834,-22.5962 1.7531,-3.7234 2.5684,-7.2591 2.446,-10.607 -0.1227,-3.3479 -1.4377,-8.2147 -3.9452,-14.6001 l -2.2127,-5.6343 -57.4692,22.569 -10.9158,-27.7956 z m 90.3584,-3.4028 8.0764,20.5651 c 5.2363,13.3343 9.0695,21.4392 11.4995,24.3148 2.4297,2.8751 5.3907,4.711 8.8828,5.5074 3.492,0.7964 7.3039,0.3832 11.4358,-1.2392 4.6324,-1.8194 7.8876,-4.5249 9.7649,-8.1162 1.8772,-3.5915 2.3064,-7.7884 1.2876,-12.5907 -0.5721,-2.3767 -3.0709,-9.1992 -7.4959,-20.4677 l -8.5187,-21.6919 -34.9324,13.7184 z m -7.8232,192.6812 126.2042,-77.1128 57.1772,93.5773 -21.3497,13.045 -41.6072,-68.0954 -27.9785,17.0953 38.7141,63.3604 -21.2635,12.9926 -38.7142,-63.3606 -34.349,20.9878 43.0802,70.5056 -21.2638,12.9925 -58.6498,-95.9877 z m 194.6798,176.1931 18.2428,-16.9748 43.8458,47.1213 -43.1331,40.1346 c -8.6925,-0.4558 -18.7683,-3.4598 -30.2274,-9.0121 -11.4594,-5.5522 -21.3354,-12.7843 -29.6281,-21.6965 -10.5377,-11.3249 -17.3478,-23.4078 -20.4308,-36.2486 -3.0831,-12.8411 -2.1756,-25.491 2.7227,-37.9494 4.8981,-12.4584 12.5419,-23.5211 22.9313,-33.1884 11.2755,-10.4916 23.4946,-17.4517 36.6575,-20.8802 13.1628,-3.428 26.3208,-2.7641 39.4745,1.9926 10.0543,3.5981 19.8922,10.5671 29.5136,20.9072 12.5076,13.4421 19.4588,26.5652 20.8541,39.3692 1.3946,12.804 -1.8731,24.9165 -9.8031,36.3381 l -24.267,-17.9346 c 3.8973,-6.4745 5.4261,-13.2484 4.5865,-20.3217 -0.84,-7.0735 -4.1922,-13.7615 -10.0564,-20.0639 -8.8884,-9.5524 -18.9837,-14.3297 -30.2859,-14.3321 -11.3024,0 -22.9112,5.54 -34.8268,16.6273 -12.8514,11.958 -19.8325,23.7822 -20.9433,35.4728 -1.1112,11.6908 2.6399,22.1644 11.2535,31.4213 4.2607,4.5791 9.4318,8.3344 15.5127,11.266 6.0809,2.9315 11.9365,4.8554 17.5665,5.772 l 13.7376,-12.7826 -23.2972,-25.0376 z m 69.3065,137.1241 89.298,-117.8973 23.8046,18.03 -89.2979,117.8973 -23.8047,-18.03 z m 121.7115,-0.5797 c 6.803,-13.4419 14.5232,-23.7062 23.1605,-30.7927 6.402,-5.2024 13.5498,-9.1603 21.4438,-11.8741 7.8938,-2.7136 15.5841,-3.7966 23.0711,-3.2488 9.9827,0.6805 20.3449,3.7389 31.0867,9.1754 19.4427,9.8406 31.9476,23.7453 37.5149,41.7143 5.5669,17.9691 2.914,37.6953 -7.959,59.1783 -10.782,21.3032 -25.0086,35.0398 -42.6798,41.21 -17.6713,6.1701 -36.1984,4.3501 -55.5812,-5.46 -19.6231,-9.9316 -32.1956,-23.8139 -37.7182,-41.6475 -5.5227,-17.8335 -2.9689,-37.2518 7.6612,-58.255 l 0,0 z m 27.9096,12.995 c -7.5626,14.9422 -9.8446,28.0152 -6.8462,39.2191 2.9981,11.2039 9.8081,19.4937 20.4297,24.8696 10.6215,5.3757 21.2739,5.9616 31.9575,1.7576 10.6833,-4.204 19.8972,-13.957 27.6421,-29.2594 7.6535,-15.1222 10.0481,-28.082 7.1832,-38.879 -2.8652,-10.7973 -9.7884,-18.9749 -20.7699,-24.533 -10.9817,-5.5579 -21.7388,-6.272 -32.2714,-2.1426 -10.5328,4.1293 -19.6411,13.7853 -27.325,28.9677 l 0,0 z m 143.8377,143.6142 34.5832,-143.7981 28.2495,6.7937 35.7587,110.1832 23.0948,-96.029 26.9743,6.4874 -34.5832,143.7981 -29.1323,-7.0063 -35.4184,-107.7147 -22.552,93.773 -26.9746,-6.4873 z m 202.6834,38.189 2.3586,-147.8796 109.6486,1.749 -0.399,25.0163 -79.7902,-1.2725 -0.523,32.7836 74.2424,1.1841 -0.3973,24.9155 -74.2424,-1.184 -0.6419,40.2483 82.6149,1.3175 -0.3975,24.9157 -112.4732,-1.7939 z m 251.6723,-14.6606 -40.4646,-142.2553 42.9872,-12.2277 53.4136,89.6942 -2.0815,-104.2957 43.0842,-12.2552 40.4643,142.2551 -26.6849,7.5906 -31.8527,-111.98 3.6152,120.0122 -27.6555,7.8665 -59.9931,-103.9753 31.8527,111.98 -26.6849,7.5906 z m 176.5558,-134.2546 c -7.4372,-13.102 -11.7195,-25.2106 -12.8473,-36.3258 -0.794,-8.2108 -0.1385,-16.3551 1.9661,-24.4328 2.1044,-8.0775 5.4551,-15.0837 10.0521,-21.0188 6.0876,-7.9408 14.3664,-14.8827 24.8363,-20.826 18.951,-10.757 37.4516,-13.486 55.5015,-8.1871 18.0498,5.2991 33.0178,18.4185 44.9039,39.3583 11.7863,20.7642 15.3634,40.2142 10.7317,58.3494 -4.632,18.1352 -16.3942,32.5648 -35.2868,43.2887 -19.1266,10.8568 -37.6461,13.6548 -55.5584,8.3934 -17.9125,-5.2609 -32.6788,-18.1275 -44.2991,-38.5993 l 0,0 z m 26.2615,-16.0669 c 8.267,14.5642 17.8971,23.6953 28.8899,27.3932 10.9928,3.6981 21.6657,2.6088 32.0185,-3.2678 10.3529,-5.8767 16.7322,-14.4278 19.1377,-25.654 2.4056,-11.2257 -0.6247,-24.2963 -9.091,-39.2116 -8.3667,-14.7395 -17.8402,-23.9016 -28.4203,-27.4859 -10.5803,-3.584 -21.2222,-2.3381 -31.9261,3.7377 -10.7039,6.0759 -17.248,14.6432 -19.6323,25.7023 -2.384,11.0592 0.6236,23.9878 9.0236,38.7861 l 0,0 z m 199.363,-40.8967 -97.1298,-109.9231 22.3778,-19.7733 80.6298,91.2499 55.6419,-49.1662 16.5,18.6734 -78.0197,68.9393 z m 130.1287,-126.8547 -113.0484,-95.3624 19.2547,-22.8256 113.0484,95.3625 -19.2547,22.8255 z m 26.9899,-109.6788 13.0143,-26.1304 c 9.1952,3.6896 17.1495,4.4805 23.8624,2.3731 6.7131,-2.1075 12.4771,-7.01 17.2926,-14.7078 5.1007,-8.1537 7.2192,-15.3765 6.3556,-21.6685 -0.8636,-6.292 -3.6046,-10.8823 -8.2232,-13.7717 -2.9651,-1.8546 -6.0322,-2.5635 -9.2012,-2.1265 -3.1692,0.4373 -6.879,2.341 -11.1294,5.7114 -2.8812,2.3229 -8.9325,7.9383 -18.1542,16.8459 -11.8534,11.4664 -21.9441,18.4026 -30.2722,20.8087 -11.7145,3.3817 -22.5327,1.9693 -32.4541,-4.2373 -6.386,-3.9947 -11.2263,-9.5416 -14.5208,-16.64 -3.2944,-7.0986 -4.2643,-14.9642 -2.9099,-23.5973 1.3547,-8.6328 5.0459,-17.7674 11.074,-27.4039 9.845,-15.7372 20.7049,-25.425 32.58,-29.0632 11.8753,-3.6381 23.6966,-2.0541 35.4643,4.7517 l -14.7254,26.0121 c -7.1208,-2.947 -13.2071,-3.5216 -18.259,-1.7237 -5.0517,1.7981 -9.807,6.261 -14.2657,13.3882 -4.6013,7.3557 -6.6929,14.0599 -6.2749,20.1126 0.2624,3.8928 2.0184,6.8558 5.2684,8.8889 2.9652,1.8548 6.2873,2.1878 9.9664,0.9985 4.6775,-1.5165 12.3223,-7.5233 22.935,-18.0205 10.6126,-10.4969 19.3184,-17.7243 26.1179,-21.6818 6.7992,-3.9575 13.9365,-5.9185 21.4113,-5.8835 7.4751,0.035 15.1755,2.5316 23.1012,7.4897 7.1843,4.4943 12.6643,10.6991 16.4395,18.6139 3.7752,7.915 4.9053,16.476 3.3901,25.6826 -1.515,9.207 -5.679,19.2557 -12.4918,30.1464 -9.9162,15.8513 -21.1951,25.7331 -33.8368,29.6457 -12.6418,3.9123 -26.4932,2.3079 -41.5544,-4.8132 l 0,0 z m 141.9529,-150.2898 -136.3904,-57.1976 42.4105,-101.1297 23.0729,9.6759 -30.8617,73.5911 30.2366,12.6803 28.7159,-68.4742 22.9798,9.6368 -28.716,68.4745 37.1214,15.5673 31.9541,-76.1962 22.98,9.6371 -43.5031,103.7346 z"
     style="font-size:12px;font-style:normal;font-weight:normal;fill:#ffde00;fill-opacity:1;stroke:none;font-family:Bitstream Vera Sans"
     inkscape:connector-curvature="0" />
</svg>
