<!--?xml version="1.0" standalone="no"?-->

<svg version="1.0" xmlns="http://www.w3.org/2000/svg" width="293.000000pt" height="300.000000pt" viewBox="0 0 293.000000 300.000000" preserveAspectRatio="xMidYMid meet">
<g transform="translate(0.000000,300.000000) scale(0.100000,-0.100000)" fill="#3C3D0E" stroke="none">
<path class="node" id="node1" d="M1478 2978 c-9 -17 -13 -77 -14 -223 0 -110 -4 -215 -8 -234 -5 -19
-3 -113 4 -210 14 -210 5 -406 -20 -406 -12 0 -16 21 -22 105 -3 58 -13 137
-21 175 -7 39 -15 90 -15 115 -17 514 -30 642 -66 678 -49 49 -62 -94 -25
-271 12 -56 22 -142 24 -192 2 -50 17 -155 33 -235 26 -121 52 -307 52 -365 0
-8 -8 -15 -19 -15 -15 0 -19 10 -24 58 -3 31 -21 107 -41 167 -38 119 -77 296
-107 495 -36 233 -77 342 -123 324 -16 -6 -18 -15 -13 -73 3 -37 24 -122 48
-191 23 -69 43 -145 44 -170 3 -46 28 -128 95 -310 39 -104 87 -306 77 -317
-16 -15 -35 10 -46 61 -7 30 -35 102 -63 158 -52 106 -116 273 -147 388 -63
227 -135 385 -176 385 -47 0 -26 -94 59 -265 29 -58 56 -125 60 -149 7 -44 40
-115 140 -301 53 -98 116 -253 116 -286 0 -20 -30 -17 -36 4 -18 55 -47 109
-113 207 -41 60 -104 171 -139 245 -133 281 -151 317 -191 377 -58 89 -101
107 -101 41 0 -37 50 -132 129 -243 32 -45 61 -97 65 -116 7 -37 60 -121 173
-269 83 -110 179 -285 163 -295 -12 -7 -40 12 -40 27 0 18 -58 93 -137 178
-70 75 -146 180 -278 385 -92 143 -183 245 -217 245 -58 0 -19 -84 102 -218
47 -52 98 -119 114 -148 18 -34 80 -106 170 -197 155 -157 257 -291 237 -310
-10 -9 -17 -5 -33 18 -28 39 -138 143 -208 197 -30 23 -104 98 -165 167 -167
189 -290 315 -328 336 -38 20 -67 15 -67 -12 0 -35 125 -163 232 -240 17 -12
38 -36 46 -52 17 -35 74 -86 222 -196 111 -83 270 -231 270 -252 0 -23 -21
-14 -73 33 -28 25 -67 54 -86 65 -115 63 -289 189 -370 267 -112 108 -290 232
-333 232 -82 0 -6 -90 160 -188 49 -30 112 -75 139 -100 29 -28 112 -82 204
-132 155 -85 328 -204 329 -227 0 -18 -35 -16 -51 3 -14 18 -142 84 -222 115
-55 22 -213 112 -412 235 -147 90 -247 133 -270 114 -45 -37 22 -89 220 -170
44 -19 93 -44 108 -57 16 -13 53 -34 83 -48 61 -28 237 -95 250 -95 24 -1 274
-137 274 -150 0 -19 -29 -15 -86 11 -34 16 -108 40 -165 55 -56 15 -193 65
-303 111 -308 130 -347 145 -407 150 -47 5 -57 3 -63 -12 -15 -40 63 -81 228
-122 56 -13 124 -35 151 -48 53 -24 157 -53 290 -81 112 -23 335 -103 335
-120 0 -18 -34 -18 -85 0 -22 8 -85 19 -140 26 -55 6 -149 24 -210 40 -60 16
-132 32 -160 36 -27 4 -61 11 -75 17 -76 29 -252 67 -316 67 -22 0 -49 -6 -59
-14 -17 -12 -17 -16 -5 -30 28 -35 101 -52 290 -71 36 -4 89 -13 119 -21 30
-7 116 -19 190 -25 110 -8 373 -48 429 -65 6 -2 12 -10 12 -18 0 -11 -28 -13
-172 -9 -95 2 -209 9 -253 14 -76 10 -228 21 -466 35 -154 10 -221 -18 -152
-63 24 -16 55 -18 263 -19 129 0 282 3 339 8 58 4 181 5 273 1 147 -5 168 -8
166 -22 -2 -11 -19 -18 -53 -23 -149 -20 -263 -31 -375 -34 -69 -2 -156 -9
-195 -14 -38 -5 -127 -12 -196 -15 -170 -7 -263 -39 -229 -80 18 -22 144 -19
260 6 52 11 131 24 175 30 44 5 132 20 195 33 106 22 306 48 390 50 24 1 35
-3 35 -13 0 -16 -195 -73 -335 -97 -158 -28 -285 -56 -310 -69 -14 -7 -47 -16
-75 -19 -142 -21 -290 -70 -302 -102 -19 -51 79 -48 236 7 64 22 152 52 196
66 44 14 127 42 185 63 58 21 125 41 150 45 59 9 173 40 198 54 29 15 72 14
72 -2 0 -17 -226 -118 -336 -151 -126 -38 -225 -75 -272 -102 -24 -14 -88 -41
-143 -60 -154 -53 -224 -95 -217 -130 3 -15 12 -19 48 -18 49 0 82 15 440 201
107 55 225 110 261 122 36 12 100 39 143 61 86 44 96 47 96 25 0 -23 -158
-121 -352 -216 -97 -49 -194 -103 -215 -122 -21 -19 -63 -47 -93 -62 -191 -95
-284 -180 -220 -200 39 -12 137 46 352 207 184 139 231 171 316 215 79 41 130
74 195 125 22 18 30 19 40 9 9 -9 3 -20 -34 -54 -89 -82 -156 -134 -285 -220
-73 -48 -156 -113 -186 -145 -29 -31 -91 -84 -136 -116 -103 -74 -164 -139
-160 -169 9 -67 91 -11 337 232 114 112 241 227 307 277 63 47 126 100 140
119 26 35 47 44 59 25 3 -6 0 -17 -9 -25 -8 -8 -42 -49 -76 -89 -34 -41 -103
-110 -154 -155 -108 -93 -212 -201 -221 -230 -3 -10 -54 -68 -113 -128 -105
-105 -140 -157 -128 -188 22 -58 142 58 312 300 77 110 128 171 251 299 63 65
122 133 131 152 15 32 52 49 52 24 0 -19 -112 -191 -164 -252 -140 -166 -179
-217 -202 -260 -13 -26 -24 -52 -24 -58 0 -5 -28 -46 -63 -90 -124 -156 -164
-250 -111 -258 43 -6 84 54 300 448 37 69 103 171 147 228 43 57 90 128 105
158 17 35 32 54 44 54 10 0 18 -2 18 -4 0 -24 -112 -247 -169 -336 -91 -142
-131 -220 -131 -253 0 -15 -32 -81 -70 -148 -39 -68 -75 -139 -80 -158 -23
-84 0 -122 45 -77 34 34 75 120 134 281 101 272 130 342 186 437 31 54 67 128
80 165 13 37 28 69 34 71 21 7 20 -22 -4 -110 -27 -98 -37 -126 -93 -248 -55
-121 -92 -228 -96 -278 -2 -26 -22 -91 -44 -144 -47 -112 -76 -220 -67 -248 9
-30 48 -25 67 7 26 46 55 140 83 273 40 186 94 399 109 429 27 54 76 210 76
244 0 33 23 67 37 53 13 -13 -19 -234 -47 -326 -45 -146 -70 -267 -69 -323 1
-29 -11 -101 -26 -162 -18 -69 -29 -138 -29 -185 -1 -70 1 -75 21 -78 14 -2
27 5 37 20 19 29 42 173 56 348 18 241 30 348 39 372 17 45 53 251 49 280 -5
29 13 55 30 44 14 -9 6 -266 -12 -390 -10 -62 -16 -166 -15 -245 0 -75 -4
-181 -10 -237 -15 -146 3 -236 43 -221 35 14 39 78 28 437 -6 190 -7 390 -4
445 4 55 5 118 2 140 -6 40 3 75 19 75 9 0 14 -28 41 -201 5 -36 10 -133 10
-215 1 -82 6 -169 11 -194 6 -25 15 -110 20 -190 11 -176 24 -245 51 -272 16
-16 22 -17 35 -6 22 18 13 176 -20 343 -41 204 -66 369 -78 503 -5 67 -16 141
-23 165 -14 47 -11 67 9 67 23 0 85 -227 110 -400 16 -115 40 -216 56 -235 4
-6 17 -64 28 -130 36 -212 76 -308 117 -274 26 21 12 115 -42 269 -25 74 -51
153 -56 175 -6 22 -30 99 -53 170 -23 72 -53 177 -65 235 -12 58 -31 122 -42
144 -18 34 -18 40 -5 54 14 13 17 10 35 -24 31 -63 112 -252 112 -263 0 -22
63 -208 87 -256 14 -27 48 -118 77 -201 56 -161 99 -239 131 -239 18 0 20 7
19 53 -2 45 -14 79 -79 210 -43 86 -84 175 -92 197 -7 22 -38 85 -68 141 -29
56 -63 130 -75 165 -12 35 -40 101 -62 147 -32 65 -38 86 -29 95 14 14 26 1
68 -73 14 -25 43 -72 64 -105 20 -33 62 -112 92 -175 30 -63 72 -140 92 -170
20 -30 56 -96 80 -146 96 -207 195 -314 195 -213 0 41 -40 116 -130 244 -43
61 -88 130 -100 155 -13 25 -54 86 -91 137 -38 51 -84 124 -103 162 -20 38
-49 89 -66 113 -17 24 -38 53 -47 66 -12 18 -13 26 -4 35 10 9 19 4 44 -24 77
-86 161 -194 211 -271 30 -46 77 -110 105 -143 28 -33 80 -104 117 -158 115
-170 193 -249 221 -225 7 6 13 18 13 28 0 29 -74 131 -167 230 -49 52 -105
118 -125 145 -20 28 -71 84 -113 125 -42 41 -93 100 -113 130 -20 30 -63 82
-94 116 -58 62 -67 78 -48 89 11 7 172 -136 254 -225 146 -158 475 -480 500
-490 16 -6 35 -9 43 -6 42 17 -24 104 -167 219 -41 34 -107 90 -145 126 -39
37 -107 93 -150 126 -44 32 -104 85 -134 117 -29 32 -80 79 -112 104 -32 25
-59 52 -59 60 0 27 38 13 105 -40 22 -18 61 -44 86 -59 25 -14 92 -64 148
-111 55 -46 122 -97 147 -113 25 -15 62 -42 83 -59 95 -82 209 -168 244 -185
41 -21 88 -22 94 -2 9 26 -80 102 -207 177 -72 43 -136 84 -143 90 -19 18
-136 91 -202 126 -33 18 -84 51 -113 73 -81 63 -146 107 -158 107 -7 0 -22 9
-35 19 -20 16 -22 22 -11 33 11 11 26 6 85 -24 40 -20 94 -46 121 -58 26 -11
95 -50 153 -86 57 -36 141 -83 186 -105 45 -21 132 -68 192 -104 130 -76 198
-103 220 -85 23 19 18 36 -16 65 -41 33 -120 73 -238 120 -51 20 -116 49 -145
65 -28 16 -101 48 -161 70 -60 22 -119 47 -131 55 -46 30 -139 77 -191 96 -48
18 -63 35 -47 51 12 12 217 -56 399 -132 77 -32 165 -65 195 -73 30 -9 111
-39 180 -67 175 -72 272 -79 238 -17 -15 30 -105 65 -257 103 -77 18 -157 40
-178 49 -21 8 -94 28 -163 44 -69 17 -154 43 -190 58 -36 14 -96 34 -135 43
-50 11 -71 21 -73 33 -3 13 3 17 24 17 42 0 199 -29 309 -57 55 -14 145 -34
200 -45 55 -10 157 -33 227 -50 80 -19 157 -31 205 -32 78 -1 78 -1 81 26 3
25 -1 28 -60 46 -35 11 -121 25 -193 32 -71 6 -148 15 -170 20 -22 5 -98 14
-170 20 -71 6 -166 20 -209 31 -44 11 -113 23 -155 27 -61 6 -76 10 -79 25 -3
16 9 17 138 17 79 0 188 -6 244 -14 106 -15 366 -29 548 -30 91 -1 110 2 125
17 17 18 17 19 -5 37 -32 26 -151 35 -307 22 -71 -5 -267 -9 -435 -8 -273 1
-305 3 -308 18 -2 13 11 18 65 27 155 24 230 31 356 31 73 1 152 5 177 11 25
6 109 14 187 19 219 14 311 46 258 90 -23 19 -176 8 -325 -23 -214 -44 -402
-76 -485 -82 -44 -3 -113 -11 -153 -17 -52 -9 -75 -9 -83 -1 -8 8 -6 14 9 22
36 19 276 80 362 91 111 15 201 35 253 59 23 10 65 22 92 25 28 4 88 17 135
28 136 33 197 73 156 103 -25 19 -97 7 -221 -35 -104 -36 -139 -48 -365 -126
-52 -19 -138 -42 -190 -53 -116 -25 -147 -34 -189 -55 -35 -19 -61 -15 -61 7
0 19 183 98 335 147 156 49 219 74 264 103 20 13 87 41 149 62 137 46 225 97
220 129 -3 18 -9 21 -49 20 -49 0 -62 -6 -451 -207 -114 -59 -213 -107 -220
-107 -22 0 -175 -67 -207 -89 -36 -26 -61 -27 -61 -3 1 22 147 111 352 213 86
43 174 93 195 112 21 19 67 49 103 67 201 100 296 184 230 205 -38 12 -128
-40 -337 -195 -184 -137 -257 -187 -311 -214 -65 -33 -154 -89 -205 -130 -34
-27 -39 -28 -53 -14 -14 13 -4 24 93 104 59 49 162 125 228 169 66 44 135 97
155 119 46 50 48 52 165 139 116 85 168 139 163 170 -9 62 -92 10 -274 -169
-195 -193 -294 -284 -364 -334 -35 -25 -90 -71 -123 -102 -103 -100 -123 -66
-24 40 34 37 73 81 87 97 14 17 55 56 92 87 90 79 196 187 203 207 3 9 58 71
123 136 114 117 150 169 138 200 -3 8 -13 15 -23 15 -39 0 -115 -82 -278 -299
-84 -112 -180 -225 -267 -317 -53 -56 -108 -120 -123 -143 -15 -22 -34 -41
-41 -41 -25 0 -25 22 0 58 15 20 52 75 83 122 31 47 77 108 103 137 68 74 139
171 164 223 12 25 56 89 98 142 80 102 132 195 126 225 -2 10 -13 19 -24 21
-38 5 -101 -82 -235 -325 -72 -130 -156 -268 -206 -336 -28 -40 -72 -107 -98
-150 -33 -56 -51 -77 -63 -75 -23 5 -17 31 22 98 17 30 44 84 60 120 15 36 47
94 70 130 60 91 126 220 126 247 0 12 4 24 9 27 13 9 132 222 147 265 16 44
18 98 4 106 -36 22 -94 -73 -171 -278 -28 -73 -56 -141 -63 -152 -13 -20 -106
-247 -106 -258 0 -3 -15 -32 -34 -64 -19 -32 -48 -93 -66 -135 -24 -58 -38
-78 -51 -78 -24 0 -24 17 1 76 11 26 32 87 45 136 14 49 46 135 71 191 25 56
54 138 66 182 11 44 27 93 35 109 8 15 30 71 49 123 61 168 66 223 19 223 -33
0 -68 -77 -105 -237 -17 -70 -44 -171 -60 -223 -17 -52 -39 -138 -51 -190 -11
-52 -33 -131 -49 -175 -16 -44 -36 -106 -45 -137 -16 -60 -30 -77 -48 -59 -8
8 -6 25 6 63 9 29 21 96 27 148 6 52 25 143 41 202 16 59 32 131 35 160 3 29
21 116 41 193 44 177 53 273 27 299 -17 18 -19 18 -40 -7 -25 -30 -39 -99 -59
-292 -8 -77 -19 -155 -24 -174 -6 -19 -16 -94 -22 -165 -12 -150 -55 -406 -69
-420 -23 -23 -31 11 -21 98 6 48 8 115 4 150 -3 35 -1 99 6 142 6 44 16 147
21 229 5 83 14 200 20 260 7 82 7 123 -3 160 -14 56 -38 70 -59 33z"></path>
</g>
<g transform="translate(0.000000,300.000000) scale(0.100000,-0.100000)" fill="#B8B1A1" stroke="none">




</g>
</svg>