<?xml version="1.0" encoding="utf-8"?>
<!-- Generator: Adobe Illustrator 19.1.0, SVG Export Plug-In . SVG Version: 6.00 Build 0)  -->
<svg version="1.1" id="ARTWORK" xmlns="http://www.w3.org/2000/svg" xmlns:xlink="http://www.w3.org/1999/xlink" x="0px" y="0px"
	 viewBox="-562.5 351.5 99 99" style="enable-background:new -562.5 351.5 99 99;" xml:space="preserve">
<style type="text/css">
	.st0{fill:#A4D55D;}
	.st1{clip-path:url(#SVGID_2_);}
</style>
<g>
	<path class="st0" d="M-513,450.5c-27.3,0-49.5-22.2-49.5-49.5s22.2-49.5,49.5-49.5s49.5,22.2,49.5,49.5S-485.7,450.5-513,450.5z
		 M-513,353.3c-26.3,0-47.7,21.4-47.7,47.7s21.4,47.7,47.7,47.7s47.7-21.4,47.7-47.7S-486.7,353.3-513,353.3z"/>
	<g>
		<g>
			<defs>
				<circle id="SVGID_1_" cx="-513" cy="401" r="48.6"/>
			</defs>
			<clipPath id="SVGID_2_">
				<use xlink:href="#SVGID_1_"  style="overflow:visible;"/>
			</clipPath>
			<g class="st1">
				<path class="st0" d="M-450.4,450.4l-44.8-44.9c-3.6,2.5-8.3,2.3-11.2-0.5l-22.1-22.1c-1.3-1.3-1.2-3.4,0.1-4.7
					c0.6-0.6,1.5-1,2.4-1s1.7,0.3,2.4,0.9l10.1,10.1l2.3-2.3l-10.2-10.1c-0.6-0.6-1-1.5-0.9-2.4c0-0.9,0.4-1.7,1-2.4
					c0.6-0.6,1.5-1,2.4-1c0.9,0,1.7,0.3,2.4,0.9l10,10.1l2.3-2.3l-10-10c-1.3-1.3-1.2-3.4,0.1-4.7c1.3-1.3,3.5-1.4,4.7-0.1
					l22.1,22.1c2.9,2.9,3.1,7.6,0.5,11.2L-442,442L-450.4,450.4z M-495,403.1l44.7,44.7l5.9-5.9l-44.8-44.6l0.5-0.6
					c2.4-3,2.5-7.1,0.1-9.5l-22.1-22.1c-0.6-0.6-1.6-0.5-2.2,0.1c-0.6,0.6-0.7,1.6-0.1,2.2l11.3,11.3l-4.8,4.8l-11.3-11.3
					c-0.3-0.3-0.7-0.4-1-0.4c-0.4,0-0.8,0.2-1.1,0.5c-0.3,0.3-0.5,0.7-0.5,1.1s0.1,0.8,0.4,1l11.3,11.3l-4.8,4.8l-11.4-11.1
					c-0.3-0.3-0.6-0.4-1-0.4c-0.4,0-0.8,0.2-1.1,0.5c-0.6,0.6-0.7,1.6-0.1,2.2l22.1,22.1c2.4,2.4,6.5,2.4,9.5-0.1L-495,403.1z"/>
				<path class="st0" d="M-513.8,439.4c-0.9,0-1.7-0.3-2.3-0.9l-22.1-22.1c-2.9-2.9-3.1-7.6-0.5-11.2l-44.8-44.8l8.4-8.4l44.8,44.8
					c3.6-2.5,8.3-2.4,11.2,0.5l22.1,22.1c0.6,0.6,1,1.5,0.9,2.4c0,0.9-0.4,1.7-1,2.4c-1.3,1.3-3.5,1.4-4.7,0.1l-10.1-10.1l-2.3,2.3
					l10.1,10.1c0.6,0.6,1,1.5,0.9,2.4c0,0.9-0.4,1.7-1,2.4c-1.3,1.3-3.5,1.4-4.7,0.1l-10.1-10.2l-2.3,2.3l10.1,10.1
					c1.3,1.3,1.2,3.4-0.1,4.7C-511.9,439-512.8,439.4-513.8,439.4C-513.7,439.4-513.8,439.4-513.8,439.4z M-581,360.4l44.7,44.7
					l-0.5,0.6c-2.4,3-2.5,7.1-0.1,9.5l22.1,22.1c0.3,0.3,0.7,0.4,1,0.4c0.4,0,0.8-0.2,1.1-0.5c0.6-0.6,0.7-1.6,0.1-2.2l-11.2-11.4
					l4.8-4.8l11.3,11.3c0.6,0.6,1.6,0.5,2.2-0.1c0.3-0.3,0.5-0.7,0.5-1.1s-0.1-0.8-0.4-1l-11.3-11.4l4.8-4.8l11.4,11.3
					c0.6,0.6,1.6,0.5,2.2-0.1c0.3-0.3,0.5-0.7,0.5-1.1c0-0.4-0.1-0.8-0.4-1l-22.1-22.2c-2.4-2.4-6.5-2.4-9.5,0.1l-0.6,0.5
					l-44.7-44.7L-581,360.4z"/>
			</g>
		</g>
	</g>
</g>
</svg>
