<?xml version="1.0" encoding="utf-8"?>
<!-- Generator: Adobe Illustrator 16.0.0, SVG Export Plug-In . SVG Version: 6.00 Build 0)  -->
<!DOCTYPE svg PUBLIC "-//W3C//DTD SVG 1.1//EN" "http://www.w3.org/Graphics/SVG/1.1/DTD/svg11.dtd">
<svg version="1.1" id="Ebene_1" xmlns="http://www.w3.org/2000/svg" xmlns:xlink="http://www.w3.org/1999/xlink" x="0px" y="0px"
	 width="370px" height="289px" viewBox="0 0 370 289" enable-background="new 0 0 370 289" xml:space="preserve">
<g>
	<g>
		<path fill="#C2CD23" d="M40.755,88.443l-1.967,7.082c-0.105,0.42-0.291,0.916-0.291,1.283c0,0.365,0.188,0.574,0.862,0.574
			c1.472,0,3.744-2.816,3.744-5.729c0-3.082-3.502-6.133-7.416-6.133c-4.562,0-8.249,4.055-8.249,8.146
			c0,5.062,4.021,8.523,8.018,8.523c3.108,0,5.037-1.377,6.479-2.793l2.312-0.014c-1.394,2.543-4.494,4.713-8.771,4.713
			c-5.856,0-9.981-5.191-9.981-10.467c0-5.453,4.717-9.98,10.229-9.98c4.679,0,9.252,3.352,9.252,8.098
			c0,5.242-4.117,7.498-6.66,7.498c-1.311,0-1.856-0.653-1.834-1.547h-0.055c-0.734,0.812-1.859,1.547-3.25,1.547
			c-2.021,0-3.646-1.651-3.646-4.246c0-3.727,2.811-7.026,5.85-7.026c1.283,0,2.338,0.63,3.02,2.021l0.498-1.547L40.755,88.443
			L40.755,88.443z M35.481,89.912c-2.176,0-3.694,2.646-3.694,4.746c0,1.601,0.762,2.646,2.438,2.646
			c1.812,0,3.267-2.974,3.267-4.89C37.49,90.638,36.796,89.912,35.481,89.912z"/>
	</g>
	<polygon fill="none" stroke="#5F604B" stroke-width="4" stroke-linejoin="round" stroke-miterlimit="10" points="56.406,100.402 
		47.827,108.968 15.993,108.968 15.993,78.779 56.406,78.779 	"/>
	<polygon fill="#5F604B" stroke="#5F604B" stroke-width="4" stroke-linejoin="round" stroke-miterlimit="10" points="
		47.827,108.968 47.827,100.402 56.406,100.402 	"/>
</g>
<g>
	<path fill="#5F604B" d="M12.67,30.386h5.042c2.92,0,3.92,2.141,3.92,4.28c0,2.96-1.82,4.302-4.541,4.302H15.55v5.701h-2.881
		L12.67,30.386L12.67,30.386z M15.551,36.848h1.28c1.14,0,1.92-0.682,1.92-2.142c0-1.399-0.56-2.2-2-2.2h-1.2V36.848z"/>
	<path fill="#5F604B" d="M23.97,33.907h2.641v1.44h0.04c0.56-1.04,1.34-1.721,2.48-1.721c0.16,0,0.34,0.021,0.5,0.04v2.642
		c-0.28-0.021-0.58-0.04-0.86-0.04c-0.96,0-2.04,0.5-2.04,1.939v6.462H23.97V33.907z"/>
	<path fill="#5F604B" d="M33.99,39.708v0.86c0,1.26,0.341,2.5,1.36,2.5c0.921,0,1.301-0.7,1.461-2.021h2.48
		c-0.101,2.501-1.301,3.9-3.901,3.9c-4.001,0-4.16-3.081-4.16-5.762c0-2.88,0.56-5.562,4.28-5.562c3.221,0,3.941,2.16,3.941,5.462
		v0.619H33.99V39.708z M36.811,38.068c-0.061-1.641-0.261-2.561-1.4-2.561c-1.101,0-1.421,1.141-1.421,2.141v0.42H36.811z"/>
	<path fill="#5F604B" d="M43.909,41.149v0.359c0,0.939,0.5,1.561,1.44,1.561c0.84,0,1.4-0.42,1.4-1.28c0-0.699-0.46-1.02-1-1.22
		l-1.94-0.7c-1.521-0.54-2.301-1.479-2.301-3.001c0-1.779,1.12-3.239,3.961-3.239c2.501,0,3.681,1.119,3.681,3.061v0.439h-2.48
		c0-1.08-0.32-1.62-1.221-1.62c-0.699,0-1.3,0.399-1.3,1.159c0,0.521,0.28,0.961,1.2,1.262l1.66,0.56
		c1.74,0.58,2.381,1.461,2.381,3.081c0,2.261-1.681,3.381-4.001,3.381c-3.101,0-3.961-1.359-3.961-3.421v-0.38L43.909,41.149
		L43.909,41.149z"/>
	<path fill="#5F604B" d="M53.789,41.149v0.359c0,0.939,0.5,1.561,1.44,1.561c0.84,0,1.4-0.42,1.4-1.28c0-0.699-0.46-1.02-1-1.22
		l-1.94-0.7c-1.521-0.54-2.301-1.479-2.301-3.001c0-1.779,1.12-3.239,3.961-3.239c2.501,0,3.681,1.119,3.681,3.061v0.439H56.55
		c0-1.08-0.32-1.62-1.22-1.62c-0.7,0-1.301,0.399-1.301,1.159c0,0.521,0.28,0.961,1.2,1.262l1.66,0.56
		c1.74,0.58,2.381,1.461,2.381,3.081c0,2.261-1.681,3.381-4.001,3.381c-3.101,0-3.961-1.359-3.961-3.421v-0.38L53.789,41.149
		L53.789,41.149z"/>
	<path fill="#5F604B" d="M12.39,54.226h2.761v2.359H12.39V54.226z M12.39,57.907h2.761V68.67H12.39V57.907z"/>
	<path fill="#5F604B" d="M18.09,57.907h2.64v1.261h0.04c0.58-1.061,1.581-1.539,2.741-1.539c1.72,0,2.741,0.938,2.741,3.061v7.98
		h-2.761v-7.422c0-1.08-0.36-1.5-1.18-1.5c-0.94,0-1.46,0.58-1.46,1.78v7.143h-2.76V57.907H18.09z"/>
	<path fill="#5F604B" d="M34.192,57.907h2.761L34.252,68.67h-3.2l-2.781-10.764h2.881l1.54,7.702h0.04L34.192,57.907z"/>
	<path fill="#5F604B" d="M39.07,54.226h2.761v2.359H39.07V54.226z M39.07,57.907h2.761V68.67H39.07V57.907z"/>
	<path fill="#5F604B" d="M45.369,54.827h2.761v3.08h1.6v1.881h-1.6v5.821c0,0.84,0.18,1.18,0.979,1.18c0.221,0,0.44-0.02,0.62-0.04
		v1.921c-0.6,0.061-1.16,0.12-1.8,0.12c-2.16,0-2.561-0.659-2.561-2.841v-6.161h-1.4v-1.881h1.4L45.369,54.827L45.369,54.827z"/>
	<path fill="#5F604B" d="M54.049,63.708v0.86c0,1.26,0.341,2.5,1.36,2.5c0.921,0,1.301-0.7,1.461-2.021h2.48
		c-0.101,2.501-1.301,3.9-3.901,3.9c-4.001,0-4.16-3.081-4.16-5.762c0-2.88,0.56-5.562,4.28-5.562c3.221,0,3.941,2.16,3.941,5.462
		v0.619h-5.461V63.708z M56.87,62.068c-0.061-1.641-0.261-2.561-1.4-2.561c-1.101,0-1.421,1.141-1.421,2.141v0.42H56.87z"/>
</g>
<g>
	<g>
		<g>
			<path fill="#C2CD23" d="M39.755,193.607l-1.967,7.082c-0.105,0.42-0.291,0.916-0.291,1.283c0,0.365,0.188,0.574,0.862,0.574
				c1.472,0,3.744-2.816,3.744-5.729c0-3.082-3.502-6.133-7.416-6.133c-4.562,0-8.249,4.055-8.249,8.145
				c0,5.062,4.021,8.523,8.018,8.523c3.108,0,5.037-1.377,6.479-2.793l2.312-0.014c-1.394,2.543-4.494,4.713-8.771,4.713
				c-5.856,0-9.981-5.191-9.981-10.467c0-5.453,4.717-9.98,10.229-9.98c4.679,0,9.252,3.352,9.252,8.098
				c0,5.242-4.117,7.498-6.66,7.498c-1.311,0-1.856-0.652-1.834-1.547h-0.055c-0.734,0.812-1.859,1.547-3.25,1.547
				c-2.021,0-3.646-1.65-3.646-4.246c0-3.727,2.811-7.025,5.85-7.025c1.283,0,2.338,0.629,3.02,2.02l0.498-1.547L39.755,193.607
				L39.755,193.607z M34.481,195.076c-2.176,0-3.694,2.646-3.694,4.746c0,1.602,0.762,2.646,2.438,2.646
				c1.812,0,3.267-2.973,3.267-4.889C36.49,195.803,35.796,195.076,34.481,195.076z"/>
		</g>
		<polygon fill="none" stroke="#5F604B" stroke-width="4" stroke-linejoin="round" stroke-miterlimit="10" points="55.406,205.566 
			46.827,214.133 14.993,214.133 14.993,183.943 55.406,183.943 		"/>
		<polygon fill="#5F604B" stroke="#5F604B" stroke-width="4" stroke-linejoin="round" stroke-miterlimit="10" points="
			46.827,214.133 46.827,205.566 55.406,205.566 		"/>
	</g>
	<g>
		<path fill="#5F604B" d="M11.67,222.051h5.042c2.92,0,3.92,2.141,3.92,4.281c0,2.961-1.82,4.301-4.541,4.301H14.55v5.701h-2.881
			L11.67,222.051L11.67,222.051z M14.551,228.514h1.28c1.14,0,1.92-0.682,1.92-2.143c0-1.398-0.56-2.199-2-2.199h-1.2V228.514z"/>
		<path fill="#5F604B" d="M22.97,225.572h2.641v1.439h0.04c0.56-1.039,1.34-1.719,2.48-1.719c0.16,0,0.34,0.02,0.5,0.039v2.641
			c-0.28-0.021-0.58-0.039-0.86-0.039c-0.96,0-2.04,0.5-2.04,1.939v6.461H22.97V225.572z"/>
		<path fill="#5F604B" d="M32.99,231.373v0.861c0,1.26,0.341,2.5,1.36,2.5c0.921,0,1.301-0.701,1.461-2.021h2.48
			c-0.101,2.502-1.301,3.9-3.901,3.9c-4.001,0-4.16-3.08-4.16-5.762c0-2.879,0.56-5.561,4.28-5.561c3.221,0,3.941,2.16,3.941,5.461
			v0.619H32.99V231.373z M35.811,229.732c-0.061-1.641-0.261-2.561-1.4-2.561c-1.101,0-1.421,1.141-1.421,2.141v0.42H35.811z"/>
		<path fill="#5F604B" d="M42.909,232.814v0.359c0,0.939,0.5,1.561,1.44,1.561c0.84,0,1.4-0.42,1.4-1.281c0-0.699-0.46-1.02-1-1.219
			l-1.94-0.701c-1.521-0.539-2.301-1.479-2.301-3c0-1.779,1.12-3.24,3.961-3.24c2.501,0,3.681,1.119,3.681,3.061v0.439h-2.48
			c0-1.08-0.32-1.619-1.221-1.619c-0.699,0-1.3,0.398-1.3,1.158c0,0.521,0.28,0.961,1.2,1.262l1.66,0.561
			c1.74,0.58,2.381,1.461,2.381,3.08c0,2.262-1.681,3.381-4.001,3.381c-3.101,0-3.961-1.359-3.961-3.42v-0.381H42.909
			L42.909,232.814z"/>
		<path fill="#5F604B" d="M52.789,232.814v0.359c0,0.939,0.5,1.561,1.44,1.561c0.84,0,1.4-0.42,1.4-1.281c0-0.699-0.46-1.02-1-1.219
			l-1.94-0.701c-1.521-0.539-2.301-1.479-2.301-3c0-1.779,1.12-3.24,3.961-3.24c2.501,0,3.681,1.119,3.681,3.061v0.439H55.55
			c0-1.08-0.32-1.619-1.22-1.619c-0.7,0-1.301,0.398-1.301,1.158c0,0.521,0.28,0.961,1.2,1.262l1.66,0.561
			c1.74,0.58,2.381,1.461,2.381,3.08c0,2.262-1.681,3.381-4.001,3.381c-3.101,0-3.961-1.359-3.961-3.42v-0.381H52.789
			L52.789,232.814z"/>
		<path fill="#5F604B" d="M11.39,245.891h2.761v2.359H11.39V245.891z M11.39,249.572h2.761v10.764H11.39V249.572z"/>
		<path fill="#5F604B" d="M17.09,249.572h2.64v1.26h0.04c0.58-1.061,1.581-1.539,2.741-1.539c1.72,0,2.741,0.939,2.741,3.061v7.982
			h-2.761v-7.424c0-1.08-0.36-1.5-1.18-1.5c-0.94,0-1.46,0.58-1.46,1.781v7.143h-2.76v-10.764H17.09z"/>
		<path fill="#5F604B" d="M33.192,249.572h2.761l-2.701,10.764h-3.2l-2.781-10.764h2.881l1.54,7.701h0.04L33.192,249.572z"/>
		<path fill="#5F604B" d="M38.07,245.891h2.761v2.359H38.07V245.891z M38.07,249.572h2.761v10.764H38.07V249.572z"/>
		<path fill="#5F604B" d="M44.369,246.492h2.761v3.08h1.6v1.881h-1.6v5.82c0,0.84,0.18,1.18,0.979,1.18
			c0.221,0,0.44-0.02,0.62-0.039v1.922c-0.6,0.059-1.16,0.119-1.8,0.119c-2.16,0-2.561-0.66-2.561-2.842v-6.16h-1.4v-1.881h1.4
			L44.369,246.492L44.369,246.492z"/>
		<path fill="#5F604B" d="M53.049,255.373v0.861c0,1.26,0.341,2.5,1.36,2.5c0.921,0,1.301-0.701,1.461-2.021h2.48
			c-0.101,2.502-1.301,3.9-3.901,3.9c-4.001,0-4.16-3.08-4.16-5.762c0-2.879,0.56-5.561,4.28-5.561c3.221,0,3.941,2.16,3.941,5.461
			v0.619h-5.461V255.373z M55.87,253.732c-0.061-1.641-0.261-2.561-1.4-2.561c-1.101,0-1.421,1.141-1.421,2.141v0.42H55.87z"/>
	</g>
</g>
<rect x="212.936" y="127.233" fill="#C2CD23" width="145.674" height="38.83"/>
<g>
	<path fill="#FFFFFF" d="M225.906,134.968h7.117c6.031,0,7.115,4.131,7.115,10.463c0,7.629-1.627,11.064-7.388,11.064h-6.845
		V134.968z M230.248,153.301h1.932c3.014,0,3.617-1.898,3.617-7.75c0-4.883-0.393-7.387-3.708-7.387h-1.84L230.248,153.301
		L230.248,153.301z"/>
	<path fill="#FFFFFF" d="M247.953,149.02v1.297c0,1.898,0.512,3.77,2.049,3.77c1.389,0,1.96-1.057,2.202-3.047h3.739
		c-0.15,3.771-1.959,5.883-5.879,5.883c-6.031,0-6.273-4.645-6.273-8.686c0-4.343,0.846-8.383,6.454-8.383
		c4.854,0,5.938,3.256,5.938,8.231v0.936H247.953L247.953,149.02z M252.204,146.547c-0.091-2.473-0.392-3.86-2.11-3.86
		c-1.658,0-2.141,1.719-2.141,3.227v0.635h4.251V146.547z"/>
	<path fill="#FFFFFF" d="M262.912,151.191v0.543c0,1.416,0.754,2.352,2.171,2.352c1.267,0,2.11-0.633,2.11-1.93
		c0-1.057-0.693-1.539-1.508-1.84l-2.924-1.055c-2.293-0.814-3.469-2.232-3.469-4.524c0-2.684,1.688-4.885,5.971-4.885
		c3.77,0,5.549,1.688,5.549,4.613v0.663h-3.74c0-1.627-0.482-2.442-1.84-2.442c-1.055,0-1.959,0.604-1.959,1.749
		c0,0.785,0.422,1.449,1.811,1.9l2.502,0.844c2.623,0.875,3.588,2.201,3.588,4.645c0,3.406-2.533,5.098-6.031,5.098
		c-4.674,0-5.971-2.053-5.971-5.158v-0.572H262.912L262.912,151.191z"/>
	<path fill="#FFFFFF" d="M279.075,134.968v11.368h0.062l4.19-6.062h4.584l-4.675,6.394l5.367,9.828h-4.584l-3.467-6.662l-1.479,1.93
		v4.732h-4.16v-21.528H279.075z"/>
	<path fill="#FFFFFF" d="M299.795,146.004v3.559h-8.503v-3.559H299.795z"/>
	<path fill="#FFFFFF" d="M309.145,134.968l5.246,14.745h0.061v-14.745h3.98v21.528h-4.945l-5.307-15.077h-0.06v15.077h-3.981
		v-21.528H309.145z"/>
	<path fill="#FFFFFF" d="M326.396,149.02v1.297c0,1.898,0.512,3.77,2.049,3.77c1.388,0,1.959-1.057,2.201-3.047h3.74
		c-0.152,3.771-1.961,5.883-5.881,5.883c-6.031,0-6.273-4.645-6.273-8.686c0-4.343,0.846-8.383,6.455-8.383
		c4.854,0,5.939,3.256,5.939,8.231v0.936H326.396L326.396,149.02z M330.648,146.547c-0.092-2.473-0.393-3.86-2.111-3.86
		c-1.658,0-2.141,1.719-2.141,3.227v0.635h4.252V146.547z"/>
	<path fill="#FFFFFF" d="M339.214,135.63h4.162v4.645h2.412v2.834h-2.412v8.776c0,1.266,0.271,1.777,1.478,1.777
		c0.332,0,0.662-0.029,0.935-0.061v2.895c-0.904,0.092-1.749,0.184-2.714,0.184c-3.258,0-3.86-0.996-3.86-4.283v-9.288h-2.108
		v-2.834h2.108V135.63z"/>
</g>
<polyline fill="none" stroke="#5F604B" stroke-width="4" stroke-miterlimit="10" points="197.037,152.686 84.853,152.686 
	59.27,178.268 "/>
<polygon fill="#5F604B" points="195.766,147.461 206.034,152.684 195.764,157.908 "/>
<polyline fill="none" stroke="#5F604B" stroke-width="4" stroke-miterlimit="10" points="197.037,140.611 84.853,140.611 
	59.27,115.028 "/>
<polygon fill="#5F604B" points="195.764,135.388 206.034,140.613 195.766,145.836 "/>
</svg>
