<?xml version="1.0" encoding="utf-8"?>
<!-- Generator: Adobe Illustrator 18.1.1, SVG Export Plug-In . SVG Version: 6.00 Build 0)  -->
<svg version="1.1" id="Layer_1" xmlns="http://www.w3.org/2000/svg" xmlns:xlink="http://www.w3.org/1999/xlink" x="0px" y="0px"
	 viewBox="0 0 249.7 267.1" enable-background="new 0 0 249.7 267.1" xml:space="preserve">
<path fill="#FF8585" d="M66.1,45.2C66.1,45.2,66.2,45.2,66.1,45.2c1.6,0,2.8-1.1,3.4-2.8c0.2-0.5-0.1-1-0.6-1.2
	c-0.5-0.2-1,0.1-1.2,0.6c-0.3,0.9-0.9,1.5-1.6,1.5h0c-0.8,0-1.5-0.6-1.9-1.7c-0.2-0.5-0.7-0.7-1.2-0.5c-0.5,0.2-0.7,0.7-0.5,1.2
	C63.2,44.1,64.6,45.2,66.1,45.2z M98.4,76.7l42.7,41.3c0.9,0.9,4.8,3.8,4.9,6.1c0,1.5-0.7,3.3-2.5,3.3c-1.8,0-3.3-1.5-3.3-3.3v-2.8
	c0-0.9-0.5-1.4-0.8-1.6c-0.2-0.2-1-0.9-1-0.9l-2.3-2.1c-0.3-0.2-0.5-0.5-0.8-0.3c-0.2,0.1-0.3,0.2-0.3,0.6v7.2c0,0.1,0,0.2,0,0.3
	c0.1,3.4,2.2,6.4,5.2,7.6c1,0.4,2.1,0.7,3.3,0.7c4.7,0,7.8-3.7,7.8-8.4c0-2.1-1.1-4.6-3.2-6.7l-2.9-2.8l-42.7-41.3
	c-0.9-0.9-4.8-3.8-4.9-6.1c-0.1-1.5,0.7-3.3,2.5-3.3s3.3,1.5,3.3,3.3v2.8c0,0.9,0.5,1.4,0.8,1.6c0.2,0.2,1,0.9,1,0.9l2.3,2.1
	c0.3,0.2,0.5,0.5,0.8,0.3c0.2-0.1,0.3-0.2,0.3-0.6v-7.2c0-0.1,0-0.2,0-0.3c-0.1-3.4-2.2-6.4-5.2-7.6c-1-0.4-2.1-0.7-3.3-0.7
	c-4.7,0-7.8,3.7-7.8,8.4c0,2.1,1.1,4.6,3.2,6.7L98.4,76.7z M4.6,74.5H3.7v-0.9c0-0.5-0.4-0.9-0.9-0.9s-0.9,0.4-0.9,0.9v0.9H0.9
	c-0.5,0-0.9,0.4-0.9,0.9c0,0.5,0.4,0.9,0.9,0.9h0.9v0.9c0,0.5,0.4,0.9,0.9,0.9s0.9-0.4,0.9-0.9v-0.9h0.9c0.5,0,0.9-0.4,0.9-0.9
	C5.6,74.9,5.1,74.5,4.6,74.5z M84.1,14.7H85v0.9c0,0.5,0.4,0.9,0.9,0.9c0.5,0,0.9-0.4,0.9-0.9v-0.9h0.9c0.5,0,0.9-0.4,0.9-0.9
	c0-0.5-0.4-0.9-0.9-0.9h-0.9v-0.9c0-0.5-0.4-0.9-0.9-0.9c-0.5,0-0.9,0.4-0.9,0.9v0.9h-0.9c-0.5,0-0.9,0.4-0.9,0.9
	C83.2,14.3,83.6,14.7,84.1,14.7z M180.7,41.1c-0.5-0.2-1,0.1-1.2,0.5c-0.4,1-1.1,1.7-1.9,1.7h0c-0.7,0-1.3-0.6-1.6-1.5
	c-0.2-0.5-0.7-0.8-1.2-0.6c-0.5,0.2-0.8,0.7-0.6,1.2c0.6,1.7,1.9,2.7,3.4,2.8c0,0,0,0,0.1,0c1.6,0,2.9-1.1,3.6-2.9
	C181.4,41.8,181.2,41.3,180.7,41.1z M143.1,59.6h0.9v0.9c0,0.5,0.4,0.9,0.9,0.9s0.9-0.4,0.9-0.9v-0.9h0.9c0.5,0,0.9-0.4,0.9-0.9
	s-0.4-0.9-0.9-0.9h-0.9v-0.9c0-0.5-0.4-0.9-0.9-0.9s-0.9,0.4-0.9,0.9v0.9h-0.9c-0.5,0-0.9,0.4-0.9,0.9S142.6,59.6,143.1,59.6z
	 M242.6,88.1c0-0.5-0.4-0.9-0.9-0.9h-0.9v-0.9c0-0.5-0.4-0.9-0.9-0.9c-0.5,0-0.9,0.4-0.9,0.9v0.9H238c-0.5,0-0.9,0.4-0.9,0.9
	c0,0.5,0.4,0.9,0.9,0.9h0.9V90c0,0.5,0.4,0.9,0.9,0.9c0.5,0,0.9-0.4,0.9-0.9v-0.9h0.9C242.2,89.1,242.6,88.7,242.6,88.1z
	 M217.9,32.7h0.9v0.9c0,0.5,0.4,0.9,0.9,0.9c0.5,0,0.9-0.4,0.9-0.9v-0.9h0.9c0.5,0,0.9-0.4,0.9-0.9s-0.4-0.9-0.9-0.9h-0.9v-0.9
	c0-0.5-0.4-0.9-0.9-0.9c-0.5,0-0.9,0.4-0.9,0.9v0.9h-0.9c-0.5,0-0.9,0.4-0.9,0.9S217.4,32.7,217.9,32.7z M110.3,123
	c-0.5,0-0.9,0.4-0.9,0.9v0.9h-0.9c-0.5,0-0.9,0.4-0.9,0.9c0,0.5,0.4,0.9,0.9,0.9h0.9v0.9c0,0.5,0.4,0.9,0.9,0.9
	c0.5,0,0.9-0.4,0.9-0.9v-0.9h0.9c0.5,0,0.9-0.4,0.9-0.9c0-0.5-0.4-0.9-0.9-0.9h-0.9v-0.9C111.3,123.4,110.8,123,110.3,123z
	 M180.9,75.3c0.3,0,0.6-0.1,0.8-0.3c0.2-0.2,0.3-0.5,0.3-0.8c0-0.3-0.1-0.6-0.3-0.8c-0.4-0.4-1.2-0.4-1.6,0
	c-0.2,0.2-0.3,0.5-0.3,0.8c0,0.3,0.1,0.6,0.3,0.8C180.3,75.2,180.6,75.3,180.9,75.3z M173.6,140.8c0.6,0,1.2-0.5,1.2-1.2
	c0-0.6-0.5-1.2-1.1-1.2c-0.6,0-1.2,0.5-1.2,1.1C172.4,140.3,172.9,140.8,173.6,140.8z M178.6,108.3c0.1,0,0.2,0,0.3,0
	c0.5,0,1-0.4,1.1-0.9c0.1-0.6-0.2-1.2-0.9-1.4c-0.6-0.1-1.2,0.2-1.4,0.9C177.6,107.5,178,108.1,178.6,108.3z M173.7,157.4
	c0.6,0,1.1-0.5,1.1-1.2c0-0.6-0.5-1.1-1.2-1.1c-0.6,0-1.1,0.5-1.1,1.2C172.6,156.9,173.1,157.4,173.7,157.4L173.7,157.4z
	 M174.7,124.4c0.1,0,0.1,0,0.2,0c0.5,0,1-0.4,1.1-0.9c0.1-0.6-0.3-1.2-0.9-1.4c-0.6-0.1-1.2,0.3-1.3,0.9
	C173.7,123.6,174.1,124.2,174.7,124.4z M180.2,91.9L180.2,91.9c0.7,0,1.2-0.5,1.2-1.1c0-0.6-0.4-1.2-1.1-1.2c-0.6,0-1.2,0.4-1.2,1.1
	C179.1,91.3,179.6,91.8,180.2,91.9z M175,173.6c0.2-0.2,0.3-0.5,0.3-0.8c0-0.3-0.1-0.6-0.3-0.8c-0.4-0.4-1.2-0.4-1.6,0
	c-0.2,0.2-0.3,0.5-0.3,0.8c0,0.3,0.1,0.6,0.3,0.8c0.2,0.2,0.5,0.3,0.8,0.3C174.5,173.9,174.8,173.8,175,173.6z M53.3,113
	c-0.5,0-1,0.4-1,0.9c-0.1,3.1-2.9,7.2-5.5,8.1c-0.5,0.2-0.7,0.7-0.6,1.2c0.1,0.4,0.5,0.6,0.9,0.6c0.1,0,0.2,0,0.3-0.1
	c3.4-1.2,6.6-5.9,6.7-9.8C54.2,113.4,53.8,113,53.3,113z M237.1,257.8h-40.4c5.6-8.9,4.4-33.3,2.5-56.1c6.3-2.3,11.5-5.5,14.5-9.3
	c0.2-0.2,0.2-0.4,0.2-0.7c-0.5-5.3-2.5-9.6-4.8-14.7c-1.9-4.1-4-8.7-5.5-14.5c-3.3-12.5-1.1-24.8-1.1-24.9c0,0,0-0.1,0-0.1
	c0.1-0.8,0.1-1.7,0.2-2.6c0.5-5.2,1.2-12.7-0.1-19.8c0.4,0.1,0.8,0.1,1.1,0.1c0.9,0,1.7-0.2,2.4-0.6c0.5-0.2,1.3-0.8,1.2-2.5
	c-0.1-1.8-1.4-4.7-3.9-6c5.8-6.9,13.4-16.3,15.7-22.8c0.1-0.2,0.1-0.4,0-0.6c-2.2-6.1-9.5-14.6-13.8-18.8l0,0
	c-5.3-5.4-10.8-10.3-19-10.7l1.8-8.8c0,0,0,0,0,0c2.2-2.2,6.4-6.4,5.4-16.7c-0.8-7.5-6.5-10.1-11.2-10.1c-3.5,0-6.8,1.3-9.1,3.7
	c-3.1,3.1-4,7-4.2,10.1c-3.9,1-6.6,4.6-6.6,8.6c0,1.5,0.4,2.9,1.1,4.2c-2,2.1-3.2,4.8-3.2,7.8c0,3,1.2,5.7,3.2,7.8
	c1.9,1.9,4.4,3,7,3.2c-0.3,0.4-0.6,0.8-0.9,1.2c-1.3,1.8-2.7,3.6-4.3,5.2c-0.2,0.2-0.3,0.5-0.3,0.7c0,0,0,0.2,0,0.5
	c-3.8,3.9-8.3,8.3-9.7,9.5c-3.5,1.9-6.2,3.7-8.9,5.4c-2.1,1.4-4.2,2.7-6.3,3.9v-7.9c0-1.5-1.2-2.6-2.6-2.6c-1.5,0-2.6,1.2-2.6,2.6
	v8.6c-0.1,0-0.2-0.1-0.3-0.1c-1.3-0.3-2.5,0.6-2.8,2.1c-0.5,2.2,0.5,5.2,2.9,6.4c0.1,0,0.2,0.1,0.3,0.1v2c0,0.9,0.5,1.4,0.8,1.6
	c0.2,0.2,1,0.9,1,0.9l2.3,2.1c0.3,0.2,0.5,0.5,0.8,0.3c0.2-0.1,0.3-0.2,0.3-0.6v-7.2c2.8-1.3,5.5-2.1,8.1-3
	c4.2-1.3,8.1-2.6,11.3-5.2c1.4-1.1,3.1-2.1,4.7-3.1c1.1-0.7,2.2-1.3,3.2-2c0.1,0,0.1,0.1,0.2,0.1c0.3,0.1,0.6,0.1,0.9-0.1l3.8-2.3
	c0,2.8,0.1,6.1,0.3,9.3c0.2,4.5,0.5,9.1,0.1,12c-3.5,3.9-5.8,9.3-7.4,16.9c-2.5,12.3-3.2,31.8-1.7,53.5l0.1,2
	c0.6,9.1,1.1,15.7-4.4,21c-0.2,0.2-0.3,0.4-0.3,0.7c0,0.3,0.1,0.5,0.3,0.7c0.1,0.1,3.7,3.4,9.9,5.3c0.4,0.1,0.7,0,1-0.3
	c0.1-0.1,0.2-0.3,0.4-0.5c0.7,7.1,1.9,16.4,3.1,22.5c0.5,2.7,1.2,5.4,1.8,8.1h-3.1v-0.4c0-2.6-2.1-4.6-4.6-4.6h-3.7
	c-2.6,0-4.6,2.1-4.6,4.6v0.4h-10.8c-0.5,0-0.9,0.4-0.9,0.9v3.1c0,0.5,0.4,0.9,0.9,0.9c0.5,0,0.9-0.4,0.9-0.9v-2.1h26.2
	c0,0,0.1,0,0.1,0c0.2,0.7,0.3,1.4,0.5,2c1.9,7.5,3.7,14.6,3.2,20.1c0,0.1,0,0.1,0,0.2h-30v-14.2c0-0.5-0.4-0.9-0.9-0.9
	c-0.5,0-0.9,0.4-0.9,0.9v14.2h-2.9c-0.5,0-0.9,0.4-0.9,0.9c0,0.5,0.4,0.9,0.9,0.9h92.3c0.5,0,0.9-0.4,0.9-0.9
	C238,258.2,237.6,257.8,237.1,257.8z M135.5,96.9c-1.7-0.8-2.2-3.1-1.9-4.3c0-0.1,0.2-0.7,0.5-0.7c0,0,0.1,0,0.1,0
	c0.7,0.1,1.5,0.6,2.4,1.1c1,0.6,2,1.1,2.8,1.3C138.8,95.5,137,97.6,135.5,96.9z M170.5,233.7h-9.2v-0.4c0-1.5,1.2-2.7,2.7-2.7h3.7
	c1.5,0,2.7,1.2,2.7,2.7V233.7z M204.8,65.9c4.1,4.1,10.4,11.7,12.5,17.1c-2.8,7.3-12.4,18.6-16.1,22.9c-0.2,0.2-0.3,0.6-0.2,0.9
	c0.1,0.3,0.4,0.5,0.7,0.6c1.9,0.4,3.1,2.2,3.5,3.7c0.4,1.1,0.2,1.7,0.2,1.8c-0.1,0-0.1,0-0.1,0.1c-0.5,0.3-1,0.4-1.5,0.4
	c-1.5,0-3.2-1-4.4-2.6c-1.3-1.7-2-3.7-1.6-5.3c1.7-7.4,10.3-19.5,12.1-21.8c0.2-0.2,0.2-0.5,0.2-0.7s-0.2-0.5-0.4-0.6
	c-3.5-2.1-5.4-3.9-7.5-5.8c-0.3-0.2-0.5-0.5-0.8-0.7C201,72.9,202.5,68.8,204.8,65.9z M195.8,77.4c2.1,1.5,4.1,2.8,4.2,2.8
	c0.3,0.2,0.7,0.2,1,0c0.1-0.1,0.5-0.3,1.1-1.1c1.5,1.4,3.2,2.7,5.6,4.3c-2.5,3.5-8,11.4-10.6,18c-2.5-5.2-2.2-8.8-1.7-13.6
	C195.7,84.9,196,81.6,195.8,77.4z M184.6,39.8c0.5,1.8,1.3,3.2,1.7,3.9l-2.6,13l-3.1,3.8l-0.7-9.7c1.1-0.5,2.2-1.2,3.1-2.4
	c0.3-0.4,0.3-1-0.1-1.3c-0.4-0.3-1-0.3-1.3,0.1c-2.1,2.7-5.3,2.5-6.4,2.3c-0.7-1.4-3.3-6.5-2.8-12.7c5.4,0,8.3-1.5,10.8-4.1
	c0.2,0.8,0.4,1.6,0.7,2.2c0.1,0.3,0.3,0.5,0.6,0.6c0.3,0.1,0.6,0,0.8-0.2c0.1-0.1,0.2-0.2,0.4-0.2c0.3,0,0.8,0.5,0.9,1.1
	c0.1,0.6-0.1,1.4-0.4,1.8c-0.2,0.3-0.5,0.5-0.8,0.5c-0.3,0-0.5,0.2-0.7,0.4C184.6,39.3,184.6,39.6,184.6,39.8z M186.7,59.9
	c0.2,2.6-0.9,5.9-2.7,7.6l-2.7-3.1c-0.2-0.2-0.4-0.3-0.7-0.3c-0.3,0-0.5,0.1-0.7,0.3l-2.9,2.8c-0.3-0.6-0.5-1.5-0.5-2.6
	c0.1-2.2,0.9-4.3,2.1-5.5l0.3,4.1c0,0.4,0.3,0.7,0.7,0.8c0.1,0,0.2,0,0.3,0c0.3,0,0.5-0.1,0.7-0.3l4.8-5.9c0.1-0.1,0.2-0.3,0.2-0.4
	l0,0C186.4,57.9,186.6,59,186.7,59.9z M174.5,22.6c1.9-1.9,4.8-3.1,7.7-3.1c3.9,0,8.7,2.2,9.4,8.4c0.8,8-1.7,11.8-3.8,14.1
	c0,0-0.1,0-0.1-0.1c-0.1,0-0.1,0-0.2,0c-0.3-0.5-0.5-1.1-0.8-1.8c0.4-0.2,0.7-0.5,1-0.9c0.6-0.9,0.9-2.1,0.7-3.3
	c-0.2-1.3-1.3-2.7-2.7-2.7c-0.1,0-0.3,0-0.4,0c-0.3-0.9-0.5-1.9-0.4-3c0-0.4-0.2-0.8-0.6-1c-0.4-0.1-0.8,0-1.1,0.3
	c-2.7,3.7-5.4,5.5-12.2,5.1C170.5,31,171.2,26,174.5,22.6z M164.9,58.4c-1.7-1.7-2.7-4-2.7-6.5c0-2.6,1.1-5.1,3.1-6.9
	c0.4-0.3,0.4-0.8,0.2-1.2c-0.8-1.2-1.2-2.5-1.2-3.9c0-3,1.9-5.7,4.7-6.7c0,1.2,0.2,2.1,0.3,2.7c0.1,0.4,0.4,0.7,0.9,0.8
	c0.1,0,0.2,0,0.4,0c-0.6,7.8,3.2,13.9,3.3,14.1c0.1,0.2,0.3,0.4,0.6,0.4c0.1,0,0.8,0.2,1.9,0.2c0.5,0,1.1,0,1.7-0.2l0.3,4.3
	c-2.7,1.4-4.7,3.5-6.5,5.7c-0.2-0.1-0.3-0.2-0.5-0.2h0C168.9,61.1,166.6,60.2,164.9,58.4z M163.4,85c-1.7,1-3.4,2.1-4.9,3.3
	c-2.9,2.4-6.5,3.5-10.7,4.8c-2.2,0.7-4.5,1.4-6.8,2.4c0.4-0.7,0.6-1.4,0.6-1.9c0-0.3-0.1-0.5-0.2-0.8c-0.2-0.3-0.6-0.5-0.9-0.5
	c-0.1,0-0.1,0-0.2,0v-0.8c2.6-1.4,4.9-2.9,7.4-4.5c2.7-1.7,5.4-3.5,8.9-5.4c0.1,0,0.1-0.1,0.2-0.1c1.2-1,5.1-4.7,8.8-8.5
	c0.3,2.5,0.8,6.3,1.4,9.7C165.9,83.5,164.7,84.2,163.4,85z M169.2,201.8c-3.9-1.3-6.6-3.2-7.8-4.1c5.4-5.8,4.9-12.9,4.3-21.7l-0.1-2
	c-1.4-21.6-0.8-40.9,1.7-53c1.5-7.4,3.8-12.5,7.2-16.2c0.1-0.1,0.2-0.3,0.2-0.5c0.5-3.1,0.2-7.7,0-12.7c-0.2-3.9-0.4-7.8-0.2-10.9
	c0-0.4-0.2-0.7-0.5-0.9c-0.3-0.2-0.7-0.2-1,0l-4.1,2.6c-0.9-4.8-1.5-10.4-1.7-12c1.5-1.6,2.9-3.4,4.1-5.1c1.5-2,2.9-3.9,4.5-5.4
	c-0.7,1.5-1.1,3.1-1.1,4.6c-0.1,2.2,0.6,3.9,1.8,4.7c0.4,0.3,0.9,0.2,1.2-0.1l2.9-2.7l2.7,3.1c0.2,0.2,0.4,0.3,0.7,0.3
	c0.2,0,0.4-0.1,0.5-0.2c2.7-1.9,4.5-6.3,4.2-9.9c-0.2-2.1-1.1-3.7-2.6-4.4L186,55c7.4,0.2,12.3,4.4,17.4,9.5
	c-2.8,3.4-4.5,8.4-4,11.8c0,0.2,0.1,0.4,0.3,0.6c0.3,0.3,0.7,0.6,1,0.9c-0.1,0.1-0.2,0.3-0.3,0.4c-1.1-0.7-3.4-2.2-5.1-3.6
	c-0.3-0.2-0.7-0.3-1-0.1c-0.3,0.2-0.5,0.5-0.5,0.9c0.5,5.1,0.1,8.9-0.2,12.2c-0.5,5.4-1,9.7,2.7,16.2c-0.1,0.4-0.2,0.8-0.3,1.2
	c-0.5,2.1,0.3,4.7,2,6.8c0.8,1,1.8,1.8,2.7,2.4c1.5,7.1,0.7,14.7,0.2,20.4c-0.1,0.9-0.2,1.8-0.2,2.6c-0.2,1-2.2,13.1,1.2,25.7
	c1.6,5.9,3.7,10.6,5.6,14.8c2.2,4.8,4.1,9,4.6,13.7c-5.8,6.8-19.2,11.7-32.4,11.9c-0.5-3.2-1.2-5.9-2-8.6c-0.7-2.7-1.4-5.3-1.8-7.9
	c-0.1-0.5-0.4-0.8-0.9-0.8c-0.5,0-0.9,0.3-1,0.8C172.8,193.7,171,199.3,169.2,201.8z M198.9,230.4l-7.4-1c-0.3-1.4-0.6-2.8-0.9-4.2
	c-0.4-2.2-0.8-4.4-1.3-6.6c-0.9-4.8-1.8-9.4-2.6-13.9c3.7-0.5,7.3-1.3,10.6-2.4C198.1,211.5,198.8,221.5,198.9,230.4z M176.5,229.3
	C176.5,229.3,176.4,229.3,176.5,229.3c-0.4-1.4-0.7-2.7-0.9-4.1c-1.3-6.8-2.7-17.7-3.3-24.9c0,0,0,0,0,0c1.2-2.6,2.1-5.7,2.7-8.4
	c0.3,1.1,0.6,2.2,0.9,3.4c0.8,2.9,1.6,5.8,2,9.2c0.1,0.5,0.5,0.8,0.9,0.8c1.1,0,2.2,0,3.4-0.1c0.8,8.9,1.4,17.5,1.6,25.2
	L176.5,229.3z M178.3,237.1c-0.5-1.9-1-3.8-1.4-5.8l6.9,1c0.1,8.8-0.4,16.3-2.2,21.4C181.3,248.7,179.8,243,178.3,237.1z
	 M194.7,257.8h-13.1c3.3-5.2,4.2-14.6,4-26.2c0,0,0,0,0,0c0-0.1,0-0.3,0-0.4c-0.2-8-0.8-16.9-1.6-26.1c0.3,0,0.6-0.1,0.8-0.1
	c0.8,4.6,1.7,9.2,2.7,14.1c0.4,2.2,0.8,4.4,1.3,6.6c0.8,4,1.8,8.1,2.8,11.9c1.9,7.5,3.7,14.6,3.2,20.1
	C194.7,257.7,194.7,257.8,194.7,257.8z M193.4,237.1c-0.5-1.9-1-3.8-1.4-5.7l7,1c0,8.6-0.6,16.2-2.3,21.2
	C196.3,248.6,194.9,243,193.4,237.1z M248.8,257.8h-6.6c-0.5,0-0.9,0.4-0.9,0.9c0,0.5,0.4,0.9,0.9,0.9h6.6c0.5,0,0.9-0.4,0.9-0.9
	C249.7,258.2,249.3,257.8,248.8,257.8z M106,258.8c0,0.5,0.4,0.9,0.9,0.9h28.8c0.5,0,0.9-0.4,0.9-0.9c0-0.5-0.4-0.9-0.9-0.9h-28.8
	C106.4,257.8,106,258.2,106,258.8z M69.4,258.8c0-0.5-0.4-0.9-0.9-0.9h-2.5c0-0.1,0-0.1,0-0.2c-0.6-5.4,1.2-12.5,3.2-20.1
	c0.2-0.9,0.4-1.7,0.7-2.6c0,0.1,0.1,0.1,0.1,0.2c1,1.1,2.3,1.8,3.4,1.8c0.6,0,1.1-0.2,1.4-0.5c0.6-0.5,0.9-1.4,0.6-2.4
	c-0.2-0.8-0.6-1.7-1.3-2.5c-0.9-1-2-1.7-3-1.8c0.3-1.4,0.6-2.8,0.9-4.1c0.6-3.3,1.3-6.5,1.9-9.7c2.8-14.2,5.4-27.7,6.4-41.8
	c1.1-16.1,2-39.1-1.7-53.6c-2.1-8.1-5.9-13.9-7.2-15.7c0-0.1,0-0.1,0-0.2c-0.2-1.8-0.4-3.6-0.7-5.6c-0.6-4.4-1.2-9-1-12.6
	c0.1-1.1,0.5-2.3,0.9-3.5c0.4-1,0.7-2,0.9-3.1l4.7,2.5c0.2,0.1,0.3,0.1,0.5,0.1c1.3,0.9,2.7,1.5,4,2.2c1.4,0.7,2.8,1.3,4,2.2
	c1.6,1.2,3.6,2.7,5.6,4.2c4.1,3.2,8.7,6.7,12.9,9.4c0.1,0.3,0.2,0.7,0.4,1v8.7c0,1.5,1.2,2.6,2.6,2.6c1.5,0,2.6-1.2,2.6-2.6v-5.1
	c0.5,0,1.1-0.2,1.6-0.5c2.3-1.3,3-4.3,2.4-6.5c-0.4-1.6-1.7-2.5-3-2.1c-0.1,0-0.1,0.1-0.2,0.1c-0.3-0.1-0.5-0.3-0.8-0.5v-4.6
	c0-0.9-0.5-1.4-0.8-1.6c-0.2-0.2-1-0.9-1-0.9l-2.3-2.1c-0.3-0.2-0.5-0.5-0.8-0.3c-0.2,0.1-0.3,0.2-0.3,0.6V91
	c-1.3-1.3-2.7-2.8-4.1-4.2c-3.8-3.9-7.6-8-11.3-10c-2.6-2.2-9.8-8.9-9.9-8.9c-1.4-1.4-2.6-2.8-3.8-4.2c-2.6-3-5-5.9-9.1-8l0.3-4.3
	c0.6,0.1,1.2,0.2,1.7,0.2c1.1,0,1.9-0.2,1.9-0.2c0.2-0.1,0.4-0.2,0.6-0.4c0.1-0.2,3.5-5.7,3.2-13.2c0.2-0.1,0.4-0.3,0.5-0.5
	c1.6-4.5,0.9-11.9-3-15.9c-2.4-2.5-6-4-9.4-4c-4.4,0-9.5,2.5-10.7,9.4c-0.8,5,0.7,10.7,4.7,17.4c0.1,0.2,0.3,0.4,0.6,0.4l1.5,7.5
	c-2.4-1.2-5.9-3.8-7.3-4.9c-0.4-0.3-0.9-0.3-1.2,0.1l-1.1,1c-1.1-1.3-2.3-2.8-3.5-4.2c-1.8-2.2-3.4-4.2-4.6-5.5
	c0.5-5.9,0-24.3-1.2-31.8C37.5,1.4,28.8,0,24.2,0c-0.3,0-0.5,0-0.8,0c-0.3,0-0.5,0.1-0.7,0.3S22.5,0.8,22.5,1c0.1,2.5,3,3.8,5.7,5.2
	c1.5,0.7,3.5,1.7,3.7,2.5c-0.4,3.3-0.8,7.5-1.2,12c-0.6,6.5-1.3,13.2-2,18.1c0,0.1,0,0.2,0,0.3c0.8,4.1,8.3,14.3,13.4,19.8
	c0,0,0,0.1,0,0.1c-0.6,2.3-0.6,3.9,0,5c0.3,0.5,0.8,0.9,1.4,1.1c1.8,1.1,3.8,2.6,4.2,3.2c-0.9,5.5-1.1,10.2-1.2,14.4
	c-0.3,8.6-0.5,14.9-7.1,20.4c-0.4,0.3-0.4,0.8-0.2,1.2c1.2,1.9,2.7,3.4,4.6,4.6c-5.3,6.5-8,18.8-3.7,26.9c-0.2,5.3-0.1,14-0.1,22.4
	c0,3.9,0.1,7.7,0.1,11c-4.7,7.8-9.1,17.2-13.1,25.5c-3.1,6.5-6,12.7-8.4,16.7c-0.7,1.2-1.5,2.5-2.4,3.9c-6,9.8-10.5,17.5-8.8,20.8
	c0.2,0.3,0.4,0.5,0.8,0.5c0,0,0,0,0.1,0c0.3,0,0.6-0.1,0.7-0.4c2.7-3.5,5.6-6.1,8.7-8.9c3.2-2.9,6.9-6.2,10.9-11
	c8.9-10.8,20.6-28.4,27.2-40.9c0,0,0-0.1,0.1-0.1c3.2-9,5.5-19.8,6.8-31.7c1.2,9.7,1.7,19.1,1.3,32.9c-0.5,6.8-1.1,13.9-1.7,20.8
	c-1.1,12.2-2.2,24.1-2.4,34.3c0,0.1,0,0.2,0,0.2c0,0,0,0,0,0c-0.2,11.6,0.7,21,4,26.2H10.3c-0.5,0-0.9,0.4-0.9,0.9
	c0,0.5,0.4,0.9,0.9,0.9h58.1C69,259.7,69.4,259.3,69.4,258.8z M107.9,99c0.8-0.6,1.7-1.1,2.3-1.3c0.1,0,0.1,0,0.1,0
	c0.2,0,0.4,0.4,0.6,0.8c0.3,1.2,0,3.4-1.6,4.4c-1.5,0.9-3.4-1.1-4.1-2.3C106,100.3,106.9,99.7,107.9,99z M68.5,232.1
	c-0.1,0.6-0.3,1.1-0.4,1.7c0,0,0,0,0,0c-0.6,1.1-1.4,1.5-1.8,1.5c0,0-0.1,0-0.1,0c-0.2-0.1-0.3-1.2,0.4-2.4c0.6-1.1,1.4-1.5,1.8-1.5
	c0,0,0.1,0,0.1,0c0,0,0,0,0.1,0.1C68.5,231.7,68.5,231.9,68.5,232.1z M72.6,232.8c0.5,0.5,0.8,1.1,0.9,1.6c0.1,0.4,0,0.6,0,0.6
	c0,0-0.1,0-0.2,0c-0.4,0-1.2-0.4-1.9-1.2c-0.4-0.5-0.7-1-0.8-1.4c0-0.3,0.1-0.5,0-0.8c0-0.1,0-0.1,0-0.2c0,0,0.1,0,0.1,0
	C71.1,231.6,71.9,232,72.6,232.8z M78.4,70.7c2.3,2.1,6.6,6.1,8.5,7.6c0,0,0.1,0.1,0.2,0.1c3.4,1.9,7.2,5.9,10.9,9.7
	c1.9,1.9,3.7,3.8,5.4,5.5v4.7c-4-2.6-8.2-5.9-12.1-8.9c-2-1.6-4-3-5.6-4.3c-1.4-1-2.9-1.7-4.3-2.4c-1.3-0.6-2.6-1.2-3.8-2
	C78.3,76.8,78.4,72.8,78.4,70.7z M64.9,67.3c-0.2,0.5-0.5,0.8-0.8,0.8c-1.5,0-3-1-4.1-2.7c-1-1.6-1.8-4.2-0.9-6.8l4,4.9
	c0.2,0.2,0.5,0.3,0.7,0.3c0.1,0,0.2,0,0.3,0c0.4-0.1,0.6-0.4,0.7-0.8l0.2-2.9C65.8,62.5,65.7,65.5,64.9,67.3z M56.1,41.9
	C56.1,41.9,56.1,41.9,56.1,41.9C56,42,56,42,56.1,41.9c-3.3-5.8-4.5-10.7-3.8-14.9c0.8-4.9,4.2-7.9,8.9-7.9c3,0,6,1.3,8.1,3.4
	c3.1,3.1,3.7,8.5,3.1,12.2c-0.6-0.9-1.2-2.2-1.4-3.5c0-0.3-0.3-0.6-0.5-0.7c-0.3-0.1-0.6-0.1-0.9,0.1c-5.4,3.6-7.7,3.3-9.6,3.2
	c-0.2,0-0.3,0-0.5,0c-0.4-0.3-0.9-0.4-1.3-0.4c-1.4,0-2.5,1.4-2.7,2.7c-0.2,1.1,0.1,2.4,0.7,3.3c0.3,0.4,0.6,0.7,1,0.9
	C56.7,40.9,56.4,41.5,56.1,41.9z M57.2,36.3c0.1-0.6,0.6-1.1,0.9-1.1c0.1,0,0.3,0.1,0.4,0.2c0.2,0.1,0.4,0.2,0.6,0.2
	c0.2,0,0.5,0,0.7,0c2.1,0.1,4.6,0.3,9.6-2.8c0.5,1.6,1.3,2.9,1.9,3.7c0,0.1-0.1,0.3-0.1,0.4c0.5,6.2-1.9,11.3-2.7,12.6
	c-1.1,0.2-4.2,0.3-6.4-2.3c-0.3-0.4-0.9-0.5-1.3-0.1c-0.4,0.3-0.5,0.9-0.1,1.3c0.9,1.2,2,1.9,3.1,2.4l-0.7,9.7L60,56.7l-2.7-13.2
	c0.6-0.8,1.3-2,1.8-3.6c0.1-0.3,0-0.5-0.1-0.8c-0.1-0.2-0.4-0.4-0.7-0.4c-0.3,0-0.6-0.2-0.8-0.5C57.2,37.7,57.1,36.9,57.2,36.3z
	 M30.7,38.8c0.7-4.9,1.3-11.6,1.9-18c0.4-4.5,0.8-8.8,1.2-12.1c0-0.1,0-0.2,0-0.2c-0.2-1.8-2.5-2.8-4.8-4c-1.6-0.8-3.4-1.6-4.2-2.6
	C29.6,2,36,3.6,36.5,7.1c1.2,7.6,1.7,26.5,1.1,31.8c0,0.3,0.1,0.6,0.3,0.8c1.1,1.1,2.9,3.3,4.8,5.7c2.2,2.7,4.5,5.6,6.1,7.2
	c-1,3.2-2.3,5.5-3.7,6.6C40.2,54.4,31.6,42.7,30.7,38.8z M41.3,103.9c6.6-5.9,6.8-12.7,7.1-21.2c0.1-4.2,0.3-8.9,1.2-14.3
	c0.1-0.5,0.3-1.5-5.2-5c-0.1-0.1-0.2-0.1-0.3-0.1c-0.2,0-0.3-0.1-0.4-0.3c-0.3-0.5-0.3-1.4-0.1-2.5c0.2,0.2,0.5,0.5,0.7,0.6
	c0.2,0.2,0.4,0.2,0.6,0.2c0.2,0,0.3,0,0.5-0.1c2.8-1.6,4.5-6.1,5.3-8.7c0.1-0.3,0-0.7-0.3-0.9c-0.5-0.5-1.1-1.1-1.7-1.8l0.6-0.5
	c1.6,1.2,5.8,4.3,8.2,5.1l0.5,2.2c-0.1,0.1-0.2,0.2-0.3,0.3c-1.4,3-1.2,6.7,0.7,9.5c1.4,2.2,3.5,3.5,5.6,3.5c0.6,0,1.7-0.2,2.5-1.9
	c1.1-2.4,1.2-6.7-0.2-9.7c2.7,1.8,4.6,4.1,6.6,6.5c1.1,1.3,2.3,2.7,3.6,4.1c0,0.1,0,0.1,0,0.2c0,0.1,0.2,5.5-0.8,10.9l-4.9-2.6
	c-0.3-0.2-0.7-0.1-0.9,0c-0.3,0.2-0.4,0.5-0.4,0.8c0.1,1.2-0.4,2.5-0.9,3.9c-0.4,1.3-0.9,2.6-1,4c-0.2,3.8,0.4,8.5,1,13
	c0.2,1.6,0.4,3.2,0.6,4.6c-2.3,0.4-4.4,1.6-6.5,2.8c-2.5,1.4-5,2.9-8,3C48.6,109.6,44.1,107.7,41.3,103.9z M16.6,225.7
	c-2.6,2.4-5.1,4.6-7.5,7.4c0.8-4,5.7-11.9,8.8-16.9c0.7-1.2,1.4-2.3,2-3.3l7.1,2.3C23.3,219.7,19.9,222.7,16.6,225.7z M64.2,197.2
	c0.6-6.9,1.3-14,1.7-20.9c0.5-17.7-0.5-28.1-2.4-41.3c0,0,0-0.1,0-0.1c0.2-2.4,0.3-4.8,0.3-7.3c0.4-1.5,1.1-2.6,1.3-2.7
	c0.5,0,0.9-0.4,0.9-0.9c0-0.5-0.4-0.9-0.9-0.9c-1.9,0-2.9,2.9-3.2,4.2c0,0.1,0,0.1,0,0.2c-0.5,18-3.2,34.2-7.7,46.9
	C48,186,36.9,202.9,28.3,213.6l-7.4-2.4c2.3-4.1,5-9.8,7.9-15.8c3.9-8.3,8.4-17.7,13.1-25.5c0.1-0.1,0.1-0.3,0.1-0.5
	c0-3.3,0-7.2-0.1-11.2c-0.1-8.6-0.1-17.4,0.1-22.6c0-0.2,0-0.3-0.1-0.5c-4.1-7.4-1.4-19.4,3.6-25.3c2.5,1.2,5.5,1.7,8.9,1.7
	c0.1,0,0.2,0,0.3,0c3.5,0,6.3-1.7,9-3.2c2-1.1,3.8-2.2,5.8-2.5c1.1,1.5,5,7.3,7,15.3c3.7,14.2,2.7,37,1.7,53
	c-0.9,14-3.6,27.4-6.4,41.6c-0.6,3.2-1.3,6.4-1.9,9.7c-0.3,1.4-0.6,2.7-0.9,4.1c0,0,0,0,0,0l-7.3,1
	C62.1,220.2,63.1,208.6,64.2,197.2z M61.8,232.3l3.3-0.5c0,0.1-0.1,0.1-0.1,0.2c-1.2,2-1.1,4.2,0.3,5c0.3,0.2,0.7,0.3,1,0.3
	c0.3,0,0.6-0.1,1-0.2c0,0,0,0.1,0,0.1c-1.5,5.9-3,11.6-3.3,16.5C62.2,248.6,61.7,241,61.8,232.3z M221.7,261.5H169
	c-0.5,0-0.9,0.4-0.9,0.9s0.4,0.9,0.9,0.9h52.7c0.5,0,0.9-0.4,0.9-0.9S222.2,261.5,221.7,261.5z M132.9,262.5c0-0.5-0.4-0.9-0.9-0.9
	H89.5c-0.5,0-0.9,0.4-0.9,0.9s0.4,0.9,0.9,0.9H132C132.5,263.4,132.9,263,132.9,262.5z M114.6,265.2h-12.5c-0.5,0-0.9,0.4-0.9,0.9
	s0.4,0.9,0.9,0.9h12.5c0.5,0,0.9-0.4,0.9-0.9S115.1,265.2,114.6,265.2z M145.7,265.2h-20.2c-0.5,0-0.9,0.4-0.9,0.9s0.4,0.9,0.9,0.9
	h20.2c0.5,0,0.9-0.4,0.9-0.9S146.2,265.2,145.7,265.2z M201.2,265.2H185c-0.5,0-0.9,0.4-0.9,0.9s0.4,0.9,0.9,0.9h16.2
	c0.5,0,0.9-0.4,0.9-0.9S201.7,265.2,201.2,265.2z M62.5,265.2H42.5c-0.5,0-0.9,0.4-0.9,0.9s0.4,0.9,0.9,0.9h19.9
	c0.5,0,0.9-0.4,0.9-0.9S63,265.2,62.5,265.2z M86.1,265.2H69.9c-0.5,0-0.9,0.4-0.9,0.9s0.4,0.9,0.9,0.9h16.2c0.5,0,0.9-0.4,0.9-0.9
	S86.6,265.2,86.1,265.2z M181.4,132.4c0,0.5,0.4,0.9,0.9,0.9h9.4c-0.1,1.6-0.8,3.4-1.6,5.1c-0.3,0.6-0.5,1.2-0.8,1.9
	c-2.8,5.1-5.5,11.6-4.5,15.9c-0.6,0.5-1,1.3-1,2.1c0,1.5,1.3,2.8,2.8,2.8c1.5,0,2.8-1.3,2.8-2.8c0-1.5-1.3-2.8-2.8-2.8c0,0,0,0,0,0
	c-0.3-2,0.3-5,1.7-8.6c0.2,3.3,1.4,6.5,3.9,8.7c-0.1,0.2-0.1,0.5-0.1,0.7c0,1.5,1.3,2.8,2.8,2.8c1.5,0,2.8-1.3,2.8-2.8
	c0-1.5-1.3-2.8-2.8-2.8c-0.6,0-1.1,0.2-1.6,0.5c-3-2.8-3.7-7.7-2.7-11.5c0.1-0.5,0.3-1,0.5-1.5c0,0,0,0,0-0.1c0,0,0-0.1,0-0.2
	c0.2-0.5,0.5-1.1,0.7-1.7c0.8-1.9,1.7-3.9,1.7-5.9h1.7c0.5,0,0.9-0.4,0.9-0.9c0-0.5-0.4-0.9-0.9-0.9h-2c-0.6-1.6-1.9-2.9-3.5-2.9
	c-1.8,0-3.3,1.3-3.6,2.9h-4C181.9,131.5,181.4,131.9,181.4,132.4z M186.7,157.4c0.5,0,0.9,0.4,0.9,0.9s-0.4,0.9-0.9,0.9
	s-0.9-0.4-0.9-0.9S186.2,157.4,186.7,157.4z M194.9,155.4c0.5,0,0.9,0.4,0.9,0.9s-0.4,0.9-0.9,0.9s-0.9-0.4-0.9-0.9
	S194.4,155.4,194.9,155.4z M189.9,130.4c0.5,0,1,0.4,1.4,1h-3C188.5,130.9,189.1,130.4,189.9,130.4z M168.7,238.8h-5.5
	c-0.5,0-0.9,0.4-0.9,0.9v3.3H159c-0.5,0-0.9,0.4-0.9,0.9v5.5c0,0.5,0.4,0.9,0.9,0.9h3.3v3.3c0,0.5,0.4,0.9,0.9,0.9h5.5
	c0.5,0,0.9-0.4,0.9-0.9v-3.3h3.3c0.5,0,0.9-0.4,0.9-0.9V244c0-0.5-0.4-0.9-0.9-0.9h-3.3v-3.3C169.6,239.2,169.2,238.8,168.7,238.8z
	 M171.9,244.9v3.6h-3.3c-0.5,0-0.9,0.4-0.9,0.9v3.3h-3.6v-3.3c0-0.5-0.4-0.9-0.9-0.9h-3.3v-3.6h3.3c0.5,0,0.9-0.4,0.9-0.9v-3.3h3.6
	v3.3c0,0.5,0.4,0.9,0.9,0.9H171.9z"/>
</svg>
