<svg id="Layer_1" data-name="Layer 1" xmlns="http://www.w3.org/2000/svg" xmlns:xlink="http://www.w3.org/1999/xlink" viewBox="0 0 115 115"><defs><style>.cls-1{fill:url(#linear-gradient);}</style><linearGradient id="linear-gradient" x1="28.73" y1="107.32" x2="86.27" y2="7.67" gradientUnits="userSpaceOnUse"><stop offset="0" stop-color="#cbdb2a"/><stop offset="1" stop-color="#6aa744"/></linearGradient></defs><title>geo-analytics-features-icon</title><path class="cls-1" d="M98.18,16.82a57.5,57.5,0,1,0,0,81.35A57.59,57.59,0,0,0,98.18,16.82ZM97,97q-1.16,1.16-2.37,2.23L79.72,84.33c0.83-.69,1.64-1.42,2.41-2.19s1.5-1.59,2.19-2.41L99.26,94.65Q98.18,95.86,97,97ZM34,81a33.21,33.21,0,1,1,47,0A33.25,33.25,0,0,1,34,81Zm51.33-2.55a34.8,34.8,0,1,0-6.91,6.91l15,15a55.9,55.9,0,1,1,6.91-6.91Zm-8-40.76a28,28,0,1,0,0,39.65A28.07,28.07,0,0,0,77.32,37.68Zm-1.15,38.5a26.39,26.39,0,1,1,0-37.35A26.23,26.23,0,0,1,76.17,76.17Z"/></svg>