<?xml version="1.0" encoding="utf-8"?>
<!-- Generator: Adobe Illustrator 19.0.0, SVG Export Plug-In . SVG Version: 6.00 Build 0)  -->
<svg version="1.1" id="Ebene_1" xmlns="http://www.w3.org/2000/svg" xmlns:xlink="http://www.w3.org/1999/xlink" x="0px" y="0px"
	 viewBox="0 0 1672.2 240" style="enable-background:new 0 0 1672.2 240;" xml:space="preserve">
<style type="text/css">
	.st0{fill:#FDFDFD;}
	.st1{fill:#EDEEEF;}
	.st2{fill:#CACACE;}
	.st3{fill:#F78222;}
	.st4{fill:#95979B;}
	.st5{fill:#94979B;}
	.st6{fill:#231F20;}
	.st7{fill:#949599;}
	.st8{fill:#241F20;}
	.st9{fill:#EBD6D9;}
	.st10{fill:#978F94;}
	.st11{fill:#242021;}
	.st12{fill:#0169AD;}
	.st13{fill:#FFFDFC;}
	.st14{fill:#F78118;}
	.st15{fill:#FFFFFF;}
</style>
<g>
	<path class="st0" d="M1673,0.5c1,0,1.9,0,2.9,0c0,80.2,0,160.3,0,240.5c-1,0-1.9,0-2.9,0c-0.2-0.2-0.3-0.4-0.4-0.6
		c-0.2-0.6-0.2-1.2-0.5-1.7c-0.2-0.2-0.4-0.3-0.7-0.4c-1.1-0.1-2.1-0.1-3.1-0.1c-553.9,0-1107.8,0-1661.7,0c-1.1,0-2.3,0-3.4,0.1
		c-0.2,0.1-0.5,0.2-0.7,0.4c-0.3,0.5-0.3,1.1-0.5,1.7c-0.1,0.2-0.3,0.4-0.4,0.6c-1.1,0-2.2,0-3.4,0c0-80.2,0-160.3,0-240.5
		c1.1,0,2.2,0,3.4,0C1.9,0.7,2.1,1,2.2,1.2c0.5,1,1.4,1.2,2.4,1.3c1,0.1,2.1,0,3.1,0c553.1,0,1106.2,0,1659.2,0
		c1.9,0,4.1,0.9,5.5-1.3C1672.6,1,1672.8,0.7,1673,0.5z"/>
	<path class="st1" d="M1673,240.4c0,0.2,0,0.4,0,0.5c-557.1,0-1114.2,0-1671.4,0c0-0.2,0-0.4,0-0.5c0.7-0.6,1.6-0.7,2.5-0.7
		c1.2,0,2.4,0,3.6,0c553.1,0,1106.3,0,1659.4,0C1669.1,239.7,1671.2,239.2,1673,240.4z"/>
	<path class="st2" d="M1673,0.5c0,0.2,0,0.3,0,0.5c-0.7,0.7-1.6,0.7-2.5,0.8c-1.1,0-2.2,0-3.4,0c-553.3,0-1106.5,0-1659.8,0
		c-1.9,0-4,0.5-5.8-0.8c0-0.2,0-0.3,0-0.5C558.8,0.5,1115.9,0.5,1673,0.5z"/>
	<path class="st3" d="M1599.7,83.6c1.3,0,2.6,0.1,3.8,0.1c22.4,0,44.8,0,67.1,0c0.7,0,1.4,0,2.2-0.1c0.6,0.4,0.4,1,0.4,1.5
		c0,23.5,0,47,0,70.5c0,0.3,0,0.6-0.1,0.9c-0.8,0.4-1.7,0.2-2.6,0.2c-22.5,0-44.9,0-67.4,0c-0.8,0-1.5,0.1-2.8-0.3
		c1.1,0.4,1.8,0.3,2.4,0.3c22.5,0,45.1,0,67.6,0c0.9,0,1.8-0.2,2.6,0.2c-0.2,1.5-1.4,0.7-2.1,0.7c-9.7,0.1-19.3,0-29,0
		c-13.3,0-26.5,0-39.8,0c-0.9,0-1.7,0.2-2.6-0.2c-0.4-0.8-0.2-1.6-0.2-2.4c0-23.1,0-46.2,0-69.3C1599.4,85.1,1599,84.2,1599.7,83.6z
		"/>
	<path class="st4" d="M1.7,1c22.8,0,45.6,0,68.4,0c180.8,0,361.6,0,542.4,0c246.7,0,493.4,0,740.1,0c105.4,0,210.9,0,316.3,0
		c1.4,0,2.7,0,4.1,0c0,0.7,0.2,1.4-0.2,2.1c-0.2,0.1-0.4,0.2-0.7,0.2c-556.5,0-1113.1,0-1669.6,0c-0.2,0-0.4-0.1-0.7-0.2
		C1.5,2.4,1.7,1.7,1.7,1z"/>
	<path class="st5" d="M1673,240.4c-0.8,0-1.6,0-2.4,0c-341.6,0-683.2,0-1024.8,0c-214,0-428,0-642,0c-0.7,0-1.4,0-2.2,0
		c0-0.6,0-1.2,0-1.9c0.5-0.5,1.2-0.5,1.8-0.5c0.9,0,1.8,0,2.6,0c554.1,0,1108.3,0,1662.4,0c1.5,0,3-0.4,4.5,0.5
		C1673,239.2,1673,239.8,1673,240.4z"/>
	<path class="st6" d="M1187.5,83.7c4.4,0,8.7,0,13.1,0c0.5,0.7,0.3,1.6,0.3,2.3c0,10.4,0,20.8,0,31.2c0,12.4,0,24.8,0,37.2
		c0,0.9,0,1.8,0,2.7c-1.5,0.5-3,0.2-4.5,0.3c-1.5,0.1-3,0-4.3,0c-0.3-0.2-0.3-0.3-0.4-0.4c0-0.1,0-0.2-0.1-0.2c0-0.2,0-0.3,0-0.5
		c0-19.8,0-39.5,0-59.3c0-0.1,0-0.2,0-0.3c-0.8,0.5-0.9,1.4-1.2,2.2c-5.5,14.6-11,29.3-16.5,43.9c-1.6,4.3-3.2,8.5-4.8,12.8
		c-0.2,0.5-0.4,1-0.7,1.7c-2.7,0-5.4,0-8.2,0c-2.1-5-3.8-10.1-5.8-15.2c-1.9-5.1-3.8-10.2-5.7-15.2c-1.9-5-3.7-10-5.6-15
		c-1.9-5.1-3.8-10.1-6.1-15.1c0,0.9-0.1,1.8-0.1,2.6c0,1,0,1.9,0,2.9c0,1,0,1.9,0,2.9c0,1,0,1.9,0,2.9c0,1,0,1.9,0,2.9
		c0,1,0,1.9,0,2.9c0,1,0,1.9,0,2.9s0,1.9,0,2.9c0,1,0,1.9,0,2.9s0,1.9,0,2.9c0,1,0,2.1,0,3.1c0,1,0,1.9,0,2.9c0,1,0,1.9,0,2.9
		c0,1,0,1.9,0,2.9c0,1,0,1.9,0,2.9c0,1,0,1.9,0,2.9c0,1,0,1.9,0,2.9c0,1,0,1.9,0,2.9c0,1,0,1.9,0,2.9c0,1,0,1.9,0,2.9
		c0,0.9,0,1.9-0.1,2.8c-2.2,0.3-6.7,0.3-8.9,0.1c-0.1-0.1-0.1-0.1-0.2-0.2c0-0.1-0.1-0.2-0.1-0.2c0-24,0-48-0.1-72
		c0-0.3,0.1-0.6,0.1-0.9c1.6-0.4,9.3-0.5,13.3-0.2c7.7,20.3,15.3,40.8,23.1,61.6c1.7-3.8,2.8-7.2,4.1-10.6c1.3-3.4,2.5-6.7,3.8-10.1
		c1.3-3.4,2.6-6.9,3.9-10.3c1.3-3.4,2.6-6.9,3.9-10.3c1.3-3.4,2.5-6.7,3.8-10.1C1184.9,90.5,1186.2,87.1,1187.5,83.7z"/>
	<path class="st7" d="M217.1,106.8c-1.7,0.4-9.1,0.5-12.2,0.2c-0.5-0.3-0.5-0.7-0.6-1.2c-1.5-7-6.3-10.7-12.8-12.5
		c-3-0.9-6.2-0.9-9.3-0.5c-5.3,0.7-9.8,3.3-13.1,7.7c-3,4-4.5,8.5-5.3,13.4c-0.6,3.7-0.7,7.5-0.3,11.2c0.5,5.4,2,10.6,5.3,15.1
		c2.7,3.8,6.2,6.4,10.7,7.5c4.5,1.1,9,1.2,13.5-0.1c7.1-2.1,11.2-7,12.6-14.2c0.3-1.3,0.6-2.6,0.5-4c0-0.3,0-0.6-0.5-1.1
		c-6.1-0.1-12.5,0-18.8-0.1c-0.4-2-0.4-7.2-0.1-9.4c1.8-0.4,28.9-0.4,31.1,0c0.1,0.2,0.2,0.4,0.2,0.6c0,12.3,0,24.6,0,37
		c0,0.2-0.1,0.4-0.3,0.8c-1.3,0.5-2.6,0.2-4,0.2c-1.3,0.1-2.5,0-3.8,0c-1.3-2.6-1.2-5.5-2.3-8.2c-1,0.4-1.4,1.1-2,1.7
		c-2.2,2.1-4.6,4-7.3,5.4c-3.2,1.6-6.7,2.6-10.3,2.6c-1.5,0-3,0.1-4.6,0c-8.5-0.4-15.8-3.3-21.9-9.3c-4.9-4.8-7.8-10.6-9.7-17.1
		c-1.5-5.5-1.8-11-1.3-16.6c0.7-8.4,3.5-16,9-22.5c4.4-5.2,10-8.6,16.6-10.4c4.7-1.3,9.5-1.3,14.3-0.9c4.7,0.4,9.2,1.8,13.3,4.2
		c5.4,3.2,9.5,7.5,11.6,13.5C216.2,102.1,216.9,104.4,217.1,106.8z"/>
	<path class="st7" d="M68.3,106.8c-1.6,0.4-8,0.5-12.1,0.2c-0.4-0.2-0.6-0.6-0.6-1c-0.7-4.4-3-7.7-6.6-10.1
		c-3.2-2.1-6.7-3.3-10.6-3.3c-2.6,0-5.3-0.1-7.8,0.7c-6.2,1.9-10.3,6.1-13,11.9c-1.5,3.2-2.3,6.6-2.7,10.1c-0.3,2.6-0.2,5.3-0.1,7.9
		c0.1,4.8,1.3,9.3,3.4,13.6c1.9,3.8,4.6,6.9,8.3,9c2.5,1.4,5.1,2.3,7.9,2.4c2.1,0.1,4.2,0.2,6.2,0c7.6-0.7,13.9-5.2,15.9-13
		c0.5-1.9,1-3.9,1-5.9c0-0.3-0.1-0.6-0.1-1c-2.2-0.4-4.3-0.1-6.5-0.2c-2.1,0-4.2,0-6.2,0c-2.2,0-4.3,0-6.5,0
		c-0.6-1.7-0.2-3.3-0.3-4.8c-0.1-1.5,0-3,0-4.3c0.4-0.6,0.9-0.6,1.2-0.6c9.8,0,19.5,0,29.3,0c0.2,0,0.5,0.1,0.7,0.1
		c0.5,0.4,0.4,0.9,0.4,1.4c0,12,0,24,0,36c0,0.4,0.1,0.8-0.4,1.3c-1.2,0.2-2.5,0.1-3.8,0.1c-1.3,0-2.5,0-4,0
		c-1.1-2.7-1.3-5.6-2.1-8.4c-0.8,0.4-1.3,1.2-1.9,1.8c-2.5,2.5-5.3,4.6-8.5,6.1c-2.8,1.2-5.7,2-8.8,2.1c-2,0-4,0-6,0
		c-2.3,0-4.6-0.5-6.8-1.1c-7.6-2.1-13.6-6.4-18.1-12.9c-3.2-4.6-5.1-9.6-6.3-15.1c-1-4.6-1.1-9.2-0.7-13.8c0.8-8.3,3.5-16,9-22.5
		c4.5-5.3,10.3-8.7,17.1-10.5c4.5-1.2,9-1.2,13.6-0.8c5.7,0.5,11.1,2.3,15.8,5.6c5.8,4.1,9.4,9.6,10.7,16.6
		C68.1,105.2,68.5,105.9,68.3,106.8z"/>
	<path class="st7" d="M263.9,157.2c-2.5,0.3-11,0.2-12.9,0c0-0.1-0.1-0.1-0.1-0.2c0-0.1-0.1-0.2-0.1-0.2
		c9.3-24.3,18.6-48.6,27.9-72.9c1.6-0.5,3.2-0.3,4.7-0.3c1.5,0,3,0,4.6,0c1.5,0,3,0,4.4,0c1,2,27.8,71.5,28.3,73.5
		c-1.6,0.4-8.3,0.5-13.3,0.2c-0.5-0.4-0.7-1-0.9-1.6c-1.9-5.5-3.9-11-5.8-16.4c-0.2-0.4-0.4-0.9-0.6-1.3c-1.9-0.3-26.8-0.3-29,0
		c-0.5,0.4-0.6,0.9-0.7,1.5c-1.9,5.3-3.8,10.7-5.7,16C264.5,156,264.2,156.6,263.9,157.2z"/>
	<path class="st6" d="M955.6,98.8c0,19.3,0,38.5,0,57.8c0,0.2-0.1,0.3-0.1,0.5c-1.4,0.5-3,0.1-4.5,0.2c-1.4,0.1-2.9,0-4.3,0
		c-0.6-0.9-0.4-1.8-0.4-2.6c0-14.6,0-29.1,0-43.7c0-8.3,0-16.6,0-25c0-0.8-0.1-1.6,0.2-2.4c0.3-0.1,0.5-0.2,0.7-0.2
		c3.1,0,6.2,0,9.5,0c6.5,9.9,12.9,19.8,19.3,29.7c6.4,9.9,12.8,19.8,19.5,29.6c0.3-1.2,0.2-2.4,0.3-3.5c0-1.3,0-2.6,0-3.8
		c0-1.2,0-2.4,0-3.6c0-1.3,0-2.6,0-3.8c0-1.2,0-2.4,0-3.6c0-1.3,0-2.6,0-3.8c0-1.2,0-2.4,0-3.6c0-1.3,0-2.6,0-3.8c0-1.2,0-2.4,0-3.6
		c0-1.2,0-2.4,0-3.6c0-1.3,0-2.6,0-3.8c0-1.2,0-2.4,0-3.6c0-1.3,0-2.6,0-3.8c0-1.2,0-2.4,0-3.6c0-1.3,0-2.6,0-3.8
		c0-1.2-0.1-2.4,0.1-3.5c2.2-0.3,6.8-0.3,8.9,0c0.1,0.1,0.1,0.1,0.2,0.2c0,0.1,0.1,0.2,0.1,0.2c0,24,0,48,0.1,72
		c0,0.3-0.1,0.6-0.1,0.9c-1.7,0.4-6.6,0.5-10.7,0.2c-4.2-6.5-8.5-13-12.8-19.6c-4.2-6.5-8.4-13-12.7-19.5
		c-4.3-6.5-8.5-13.1-12.8-19.6C955.9,98.7,955.8,98.7,955.6,98.8z"/>
	<path class="st6" d="M1346.9,157.3c-3.7,0-7.2,0-10.7,0c-1.1-1-1.4-2.3-1.6-3.7c-0.4-2.7-0.5-5.4-0.5-8.1c-0.1-4.1-0.8-8.1-1.9-12
		c-0.9-3.4-3-5.8-6.4-7c-1.2-0.4-2.5-0.7-3.8-0.7c-8.1,0-16.2,0-24.2,0c-0.1,0-0.3,0.1-0.6,0.3c-0.1,1.4,0,2.9-0.1,4.4
		c0,1.4,0,2.9,0,4.3c0,1.5,0,3,0,4.6c0,1.4,0,2.9,0,4.3c0,1.5,0,3,0,4.6c0,1.4,0,2.9,0,4.3c0,1.5,0,3,0,4.5
		c-1.8,0.4-7.4,0.5-9.6,0.1c-0.3-2-0.3-71.3,0-73.3c0.4-0.4,0.9-0.2,1.4-0.2c11.3,0,22.5,0,33.8,0c3.5,0,7,0.5,10.3,1.9
		c6.6,2.8,10.5,7.7,11.2,14.9c0.4,3.9,0,7.6-1.4,11.3c-1.7,4.5-4.8,7.7-9.4,9.3c-0.5,0.2-1,0.4-1.7,0.7c0.6,0.2,1.1,0.5,1.6,0.6
		c4.5,1.3,7.1,4.4,8.3,8.8c0.5,1.8,0.8,3.8,1,5.7c0.3,2.5,0.4,5.1,0.5,7.7c0.2,2.4,0.5,4.8,1.1,7.1
		C1344.8,153.6,1345.7,155.5,1346.9,157.3z"/>
	<path class="st6" d="M1230.9,91.8c-0.4,2.2-0.3,21.4,0,23.4c2,0.2,4.1,0.1,6.2,0.1c2.2,0,4.3,0,6.5,0c2.1,0,4.2,0,6.2,0
		c2.1,0,4.2,0,6.2,0c2.2,0,4.3,0,6.5,0c2.1,0,4.1,0,6.1,0c0.2,0.3,0.3,0.4,0.3,0.6c0,2.4,0,4.8,0,7.2c-0.7,0.6-1.6,0.3-2.3,0.3
		c-11.1,0-22.2,0-33.3,0c-0.8,0-1.6-0.1-2.4,0.1c-0.1,0.3-0.2,0.5-0.2,0.7c-0.1,2.6,0,23.1,0.1,24.8c0.7,0.4,1.5,0.2,2.3,0.2
		c12.1,0,24.2,0,36.2,0c0.9,0,1.7-0.2,2.7,0.2c0.3,2.6,0,5.1,0.1,7.4c-0.3,0.3-0.3,0.4-0.4,0.4c-0.1,0-0.2,0.1-0.2,0.1
		c-16.5,0-32.9,0-49.4,0.1c-0.3,0-0.6-0.1-0.8-0.1c-0.2-0.1-0.2-0.2-0.3-0.3c0-0.1-0.1-0.1-0.1-0.2c0-23.6,0-47.2-0.1-70.8
		c0-0.7,0-1.4,0-2c0.4-0.5,0.8-0.5,1.2-0.5c16.2,0,32.3,0,48.5,0c0.3,0,0.6,0.1,1.1,0.1c0.3,2.6,0.2,5.2,0.1,8
		c-3.6,0.1-7,0-10.4,0.1c-3.4,0-6.7,0-10.1,0c-3.4,0-6.9,0-10.3,0C1237.5,91.8,1234.2,91.6,1230.9,91.8z"/>
	<path class="st6" d="M1453.5,105.8c-0.3,0-0.6,0.1-0.9,0.1c-2.8,0-5.6,0-8.2,0c-0.6-0.4-0.7-0.9-0.8-1.4
		c-2.5-9.5-10-13.8-17.7-14.4c-3.4-0.3-6.7-0.2-10,0.8c-6.5,1.9-11.1,6.2-14,12.2c-1.9,3.8-2.9,7.8-3.3,12
		c-0.6,5.8-0.3,11.7,1.3,17.4c0.7,2.6,1.7,5.2,3.1,7.5c3.9,6.4,9.6,10.1,17.1,10.9c2.8,0.3,5.6,0.3,8.3-0.4
		c6.3-1.5,10.9-5.2,13.7-11c1.3-2.7,2-5.6,2.3-8.5c0.1-0.4-0.1-0.8,0.2-1.1c1.9-0.3,7.4-0.3,9.6,0c-1.1,9.7-4.5,18.1-12.6,24
		c-2.9,2.1-6.3,3.5-9.8,4.3c-6.8,1.5-13.5,1.6-20.2-0.4c-9.2-2.7-15.7-8.7-19.5-17.5c-3.3-7.5-4.2-15.4-3.6-23.5
		c0.3-4.8,1.3-9.5,3.1-14c3.3-8.2,8.8-14.4,16.9-18.1c3.6-1.6,7.4-2.5,11.3-2.7c5-0.3,9.9,0,14.7,1.5c7.1,2.3,12.7,6.5,16.2,13.3
		c1.3,2.6,2.1,5.3,2.6,8.2C1453.7,105.3,1453.6,105.5,1453.5,105.8z"/>
	<path class="st8" d="M851.6,157.2c-2.1,0.3-8.5,0.2-10.6,0c-2.6-7.3-5.3-14.6-7.9-21.8c-2-0.3-28.7-0.4-31.2,0
		c-2.7,7.2-5.4,14.6-8.1,21.8c-1.8,0.4-6.3,0.4-9.9,0.2c-0.2-0.7,0.3-1.3,0.5-2c4.4-11.2,8.8-22.5,13.2-33.7
		c4.6-11.9,9.3-23.8,13.9-35.7c0.3-0.7,0.5-1.5,1.1-2.3c3.4,0,6.9,0,10.2,0c0.2,0.2,0.3,0.2,0.3,0.3c0.1,0.1,0.1,0.1,0.2,0.2
		c9.3,23.9,18.7,47.7,28,71.6c0.2,0.4,0.3,0.9,0.4,1.4C851.7,157,851.6,157.1,851.6,157.2z"/>
	<path class="st6" d="M1076.9,83.7c3.7,0,7.2,0,10.9,0c9.6,24.5,19.1,48.9,28.7,73.4c-1.8,0.4-7.4,0.5-10.8,0.2
		c-2.6-7.3-5.3-14.6-7.9-21.7c-0.2-0.2-0.3-0.3-0.4-0.3c-0.1,0-0.2-0.1-0.2-0.1c-9.8,0-19.7,0-29.5,0c-0.3,0-0.6,0.1-1.1,0.1
		c-1.5,3.7-2.8,7.4-4.2,11.1c-1.4,3.7-2.7,7.3-4.1,11c-3.4,0-6.6,0-10.1,0C1057.7,132.7,1067.3,108.2,1076.9,83.7z"/>
	<path class="st6" d="M1511,135.3c-2-0.3-28.9-0.3-31.2,0c-2.7,7.2-5.4,14.5-8.1,21.8c-1.7,0.4-6.7,0.5-9.9,0.2
		c-0.3-0.9,0.3-1.7,0.6-2.5c4.6-11.9,9.3-23.8,13.9-35.7c4.3-11.1,8.7-22.2,13-33.2c0.3-0.7,0.6-1.4,1-2.2c3.6,0,7.1,0,10.6,0
		c1.2,2.2,28.3,71.8,28.7,73.6c-3.4,0-6.9,0-10.5,0c-1.1-2.3-1.8-4.8-2.7-7.3c-0.9-2.5-1.8-4.9-2.7-7.4
		C1512.8,140.2,1511.9,137.7,1511,135.3z"/>
	<path class="st6" d="M406.5,115.3c0.2,2.8,0.1,5.4,0.1,8c-2.9,0.3-5.7,0.1-8.5,0.1c-2.8,0-5.6,0-8.4,0c-2.8,0-5.6,0-8.4,0
		c-2.8,0-5.6,0-8.5,0c-0.1,1.6-0.1,3-0.1,4.4c0,1.4,0,2.7,0,4.1c0,1.4,0,2.9,0,4.3c0,1.4,0,2.7,0,4.1c0,1.4,0,2.9,0,4.3
		c0,1.4,0,2.7,0,4.1c0,1.4,0,2.9,0,4.3c0,1.3,0,2.7,0,4c-1.8,0.4-7.5,0.5-9.6,0.1c-0.3-2.1-0.3-71.3,0-73.3c0.2-0.1,0.4-0.2,0.6-0.2
		c15.7,0,31.5,0,47.2,0c0.4,1.8,0.5,5.6,0.1,8c-2.5,0.2-5.1,0.1-7.6,0.1c-2.6,0-5.1,0-7.7,0c-2.5,0-5,0-7.4,0c-2.6,0-5.1,0-7.7,0
		c-2.6,0-5.1,0-7.5,0c-0.6,0.4-0.5,0.9-0.5,1.4c0,7,0,13.9,0,20.9c0,0.3,0,0.6,0.1,1c0.7,0.6,1.6,0.3,2.3,0.3c9.6,0,19.2,0,28.8,0
		C404.7,115.3,405.5,115.3,406.5,115.3z"/>
	<path class="st6" d="M444.2,158.5c-3.6,0.1-6.7-0.3-9.6-1.3c-7.1-2.5-12-7.2-14.6-14.2c-3.1-8.4-3.1-17,0.3-25.3
		c3.5-8.4,10-13.2,19-14.5c4.2-0.6,8.3-0.4,12.3,0.7c7.7,2.2,13.1,7.2,15.9,14.7c2.9,7.8,2.9,15.8,0.2,23.7
		c-3.4,9.7-11.6,15.8-21.9,16.2C445.2,158.5,444.5,158.5,444.2,158.5z"/>
	<path class="st6" d="M589.5,140.9c0.4-0.4,0.7-0.4,1-0.4c2.5,0,4.9,0,7.2,0c0.6,0.4,0.5,0.9,0.6,1.2c0.4,3.2,2.2,5.4,4.9,7
		c1.8,1,3.7,1.5,5.7,1.7c3.6,0.5,7.2,0.4,10.7-0.7c0.9-0.3,1.8-0.6,2.6-1.1c2.2-1.4,3.3-3.4,3.2-6c-0.1-1.7-0.7-3.1-2-4.2
		c-1.4-1.2-3.1-2-4.8-2.6c-2.5-0.9-5.1-1.3-7.7-1.9c-3.1-0.7-6.2-1.4-9.3-2.4c-1.8-0.6-3.6-1.4-5.2-2.4c-3.8-2.4-5.8-5.8-5.9-10.3
		c-0.2-5.9,2.4-10.1,7.4-13c3.5-2,7.3-2.8,11.2-3c3.4-0.2,6.9,0.1,10.2,0.9c5.6,1.3,9.8,4.3,11.8,9.8c0.6,1.8,0.9,3.7,1.1,5.6
		c-1.6,0.4-5.7,0.5-8.7,0.2c-0.1-0.3-0.3-0.7-0.3-1.1c-0.5-2.8-2.3-4.7-4.7-6c-1.1-0.6-2.2-1-3.4-1.2c-3.3-0.6-6.7-0.6-10,0.3
		c-1.3,0.4-2.5,0.9-3.6,1.9c-2.6,2.3-2.5,5.9,0.1,8.2c1.4,1.2,3,1.9,4.6,2.5c3,1.1,6.2,1.6,9.3,2.3c2.5,0.6,4.9,1.3,7.4,1.9
		c1.5,0.4,3,1.1,4.4,1.8c5.4,2.9,7.7,7.4,7.2,13.5c-0.4,5-2.9,8.7-7.1,11.4c-1.2,0.8-2.5,1.4-3.9,1.9c-7.4,2.3-14.9,2.6-22.4,0.2
		c-4.3-1.4-7.8-4-10-8.1C590.1,146.3,589.5,143.6,589.5,140.9z"/>
	<path class="st6" d="M879.6,157.1c-1.7,0.3-6.3,0.4-9.3,0.1c-0.5-0.7-0.2-1.5-0.2-2.3c0-17.6,0-35.2,0-52.8c0-2.8,0-5.6,0-8.4
		c0-0.6,0-1.2-0.1-2c-1.7-0.1-3.3,0-4.9-0.1c-1.6,0-3.2,0-4.8,0c-1.7,0-3.4,0-5,0c-1.6,0-3.2,0-4.8,0c-1.6,0-3.2,0-4.8,0
		c-0.1-0.4-0.2-0.6-0.2-0.8c0-2.3,0-4.6,0-6.8c0.5-0.5,1-0.4,1.4-0.4c18.6,0,37.3,0,55.9,0c0.5,0,1-0.1,1.4,0.3
		c0,0.2,0.2,0.4,0.2,0.6c0,2.3,0,4.6,0,6.7c-0.2,0.3-0.2,0.3-0.3,0.4c-0.1,0-0.1,0.1-0.2,0.1c-0.2,0-0.3,0.1-0.5,0.1
		c-7.7,0-15.3,0-23,0c-0.1,0-0.2,0-0.3,0.1c-0.6,0.7-0.3,1.6-0.3,2.5c0,10.8,0,21.6,0,32.4c0,9.4,0,18.7,0,28.1
		C879.8,155.6,879.9,156.4,879.6,157.1z"/>
	<path class="st6" d="M544.3,104.3c0,1,0,1.9,0,2.8c0,10.6,0,21.3,0,31.9c0,1,0,2.1,0.2,3.1c0.6,4.8,3.8,8,8.6,8.6
		c2.5,0.3,5.1,0.1,7.6-0.6c4.8-1.5,7.8-4.8,9.3-9.5c0.7-2.3,1-4.7,1-7.1c0-8.9,0-17.7,0-26.6c0-0.8,0-1.6,0-2.2
		c0.2-0.2,0.2-0.3,0.3-0.3c0.1,0,0.1-0.1,0.2-0.1c2.6,0,5.3,0,7.9,0c0.5,0.4,0.4,0.9,0.4,1.4c0,16.8,0,33.6,0,50.4
		c0,0.5,0,0.9-0.1,1.3c-2.3,0.3-6,0.3-8.1,0c0-2.5,0-5,0-7.6c-0.9,0-1.1,0.7-1.4,1.2c-2.4,3.4-5.5,5.8-9.5,6.9
		c-4.6,1.3-9.3,1.3-14,0c-6.3-1.8-9.6-6.2-10.7-12.5c-0.3-2-0.5-4.1-0.5-6.2c0-10.8,0-21.6,0-32.4c0-0.7,0-1.4,0-2.1
		C537.1,103.9,541.3,103.9,544.3,104.3z"/>
	<path class="st6" d="M516.8,137.9c3,0,5.7,0,8.4,0c0.5,0.5,0.3,1,0.2,1.4c-0.6,3.8-1.9,7.2-4.1,10.4c-3.7,5.3-8.9,7.9-15.1,8.6
		c-3.9,0.4-7.8,0.4-11.7-0.7c-7.4-2-12.4-6.6-15.2-13.7c-1.3-3.3-1.9-6.7-2.1-10.3c-0.2-5.2,0.2-10.2,2-15.1
		c2.7-7.2,7.4-12.2,14.8-14.5c3.9-1.2,7.8-1.4,11.9-1c2.4,0.3,4.7,0.7,7,1.6c6.6,2.5,10.6,7.1,12,14.1c0.1,0.7,0.5,1.4,0.3,2.1
		c-1.5,0.4-5.1,0.5-8.8,0.2c-0.4-0.5-0.5-1.3-0.7-1.9c-1.8-5-5.4-7.8-10.7-8.3c-2.1-0.2-4.2-0.2-6.2,0.3c-4.1,0.9-7.2,3.3-9.4,6.9
		c-0.8,1.4-1.4,2.9-1.8,4.4c-1.4,5.5-1.6,11.1-0.1,16.6c0.5,1.9,1.3,3.8,2.4,5.4c2.7,4,6.4,6.1,11.2,6.3c2,0.1,4,0,5.9-0.6
		c4.9-1.5,7.7-4.9,9.1-9.7C516.4,139.7,516.5,138.9,516.8,137.9z"/>
	<path class="st6" d="M741,149.3c13.2,0,26,0,39,0c0,2.8,0.1,5.3-0.1,7.7c-0.2,0.2-0.2,0.3-0.3,0.3c-0.1,0-0.2,0.1-0.2,0.1
		c-15.7,0-31.3,0-47,0.1c-0.3,0-0.6-0.1-0.8-0.1c-0.2-0.1-0.2-0.2-0.3-0.3c0-0.1-0.1-0.1-0.1-0.2c0-0.5,0-1,0-1.4
		c0-23.8,0-47.7,0-71.5c1.6-0.4,7.2-0.5,9.7-0.1c0.2,2.7,0.1,5.4,0.1,8.1c0,2.7,0,5.4,0,8.2s0,5.4,0,8.2c0,2.7,0,5.4,0,8.2
		c0,2.7,0,5.4,0,8.2c0,2.7,0,5.4,0,8.2c0,2.7,0,5.4,0,8.2C741,143.6,741,146.3,741,149.3z"/>
	<path class="st7" d="M104.9,83.9c4.1,0,7.9,0,11.5,0c0.5,0.6,0.4,1.1,0.4,1.5c0.3,16.1,0.2,69.1-0.2,71.7
		c-1.7,0.3-8.4,0.4-11.4,0.1c-0.6-0.5-0.3-1.2-0.3-1.8c0-6.8,0-13.6,0-20.4c0-16.1,0-32.1,0-48.2C104.9,86,104.9,85.1,104.9,83.9z"
		/>
	<path class="st9" d="M1.7,238.1c0.1-0.3,0.4-0.5,0.7-0.5c0.6,0,1.3,0,1.9,0c555.3,0,1110.7,0,1666,0c0.6,0,1.3,0,1.9,0
		c0.4,0,0.6,0.2,0.7,0.5c-0.8,0.4-1.7,0.2-2.6,0.2c-555.4,0-1110.8,0-1666.2,0C3.4,238.3,2.5,238.5,1.7,238.1z"/>
	<path class="st10" d="M1.7,238.1c1.4,0,2.7,0,4.1,0c555,0,1109.9,0,1664.9,0c0.8,0,1.6,0,2.4,0c0,0.2,0,0.3,0,0.5
		c-409.2,0-818.4,0-1227.6,0c-147.9,0-295.8,0-443.7,0C1.7,238.4,1.7,238.2,1.7,238.1z"/>
	<path class="st6" d="M1362.1,83.7c3.3-0.1,6.4,0,9.5-0.1c0.7,0.8,0.4,1.6,0.4,2.4c0,9.2,0,18.4,0,27.6c0,13.8,0,27.5,0,41.3
		c0,0.7,0,1.4,0,2c-0.4,0.6-0.9,0.5-1.4,0.5c-2.7,0-5.4,0-8.1,0c-0.7-0.9-0.4-1.8-0.4-2.6c0-15.6,0-31.2,0-46.8c0-7.2,0-14.4,0-21.6
		C1362.1,85.6,1362.1,84.8,1362.1,83.7z"/>
	<path class="st11" d="M681.1,179.4c-2.2,0-4.4,0-6.4,0c-0.4-0.4-0.3-0.8-0.4-1.2c-0.3-8.9-0.1-99.4,0.2-101.8
		c2.2-0.2,4.4-0.1,6.3-0.1c0.3,0.2,0.3,0.3,0.4,0.3c0,0.1,0.1,0.1,0.1,0.2c0,34,0,67.9,0,101.9C681.3,178.9,681.2,179.1,681.1,179.4
		z"/>
	<path class="st6" d="M916.7,83.7c3.1-0.2,6.2-0.1,9.1-0.1c0.3,0.2,0.3,0.3,0.4,0.3c0,0.1,0.1,0.2,0.1,0.2c0,23.9,0,47.8,0.1,71.7
		c0,0.4,0,0.8-0.1,1.3c-1.6,0.4-3.2,0.2-4.8,0.2c-1.5,0-3,0-4.5,0c-0.6-0.8-0.4-1.6-0.4-2.4c0-16.4,0-32.8,0-49.2
		c0-6.6,0-13.1,0-19.7C916.5,85.4,916.4,84.6,916.7,83.7z"/>
	<path class="st12" d="M105,163.6c0.4-0.1,0.6-0.2,0.8-0.2c3.6,0,7.1,0,10.7,0.1c0.4,1.8,0.5,10.2,0.1,12.9c-1.8,0.4-9.5,0.4-11.6,0
		C104.9,174.6,104.8,166.8,105,163.6z"/>
	<path class="st13" d="M1673,156.5c0-0.6,0.1-1.3,0.1-1.9c0-22.9,0-45.8,0-68.6c0-0.8,0.1-1.6-0.2-2.4c0.1,0.1,0.3,0.1,0.4,0.2
		c0.3,0.5,0.4,70.2,0.1,73.8c-0.3,0.5-0.9,0.3-1.3,0.4c-0.5,0-1,0-1.4,0c-22.9,0-45.7,0-68.6,0c-0.9,0-1.7,0-2.5-0.1
		c-0.2-0.2-0.3-0.2-0.3-0.3c0-0.1-0.1-0.1-0.1-0.2c0-0.2-0.1-0.5-0.1-0.7c0-24.2,0-48.4,0-72.7c0.2-0.1,0.4-0.3,0.6-0.4
		c-0.3,0.8-0.2,1.6-0.2,2.4c0,23,0,46.1,0,69.1c0,0.7-0.1,1.4,0.2,2.2c0.8,0.4,1.7,0.2,2.5,0.2c13,0,26.1,0,39.1,0c10,0,20,0,30,0
		c0.6,0,1.3,0.3,1.7-0.5c-0.1-0.1-0.2-0.2-0.1-0.3C1672.9,156.5,1673,156.5,1673,156.5z"/>
	<path class="st13" d="M1674.2,157.2c0.1,0.1,0.2,0.3,0.1,0.4c-0.1,0.2-0.2,0.2-0.3,0C1674.1,157.4,1674.2,157.3,1674.2,157.2z"/>
	<path class="st14" d="M1673,156.5c0,0.2,0,0.3,0,0.5c-24.1,0-48.3-0.1-72.4-0.1c-0.1,0-0.1-0.1-0.2-0.1c0.1,0,0.1-0.1,0.2-0.1
		C1624.7,156.5,1648.9,156.5,1673,156.5z"/>
	<path class="st15" d="M295.8,127.9c-1.7,0.3-18.7,0.4-21.3,0.1c-0.4-0.5-0.2-1,0-1.5c1.7-4.7,3.4-9.4,5-14.2
		c1.7-4.8,3.3-9.6,5-14.4c0.1-0.4,0.3-0.7,0.5-1.1c0.6,0.2,0.6,0.7,0.8,1.1c2.4,7,4.8,14,7.2,21c0.9,2.5,1.7,5,2.6,7.4
		C295.9,126.8,296.1,127.3,295.8,127.9z"/>
	<path class="st15" d="M1297.3,117.6c0-8.6,0-17.1,0-25.5c0.4-0.5,0.9-0.4,1.4-0.4c7.5,0,15,0,22.6,0c1.5,0,3,0.2,4.5,0.5
		c3.4,0.7,6,2.6,7.5,5.8c1.8,3.9,2,7.9,0.5,11.9c-1.5,4.1-4.8,6.3-8.9,7.2c-2,0.4-3.9,0.6-6,0.6c-6.9,0-13.8,0-20.6,0
		C1298.1,117.7,1297.8,117.6,1297.3,117.6z"/>
	<path class="st15" d="M817.4,92.8c0.9,1.5,7.2,18.9,12,32.8c0.1,0.4,0.3,0.7,0.1,1.1c-1.9,0.3-19.7,0.4-24.1,0.1
		c-0.2-0.3-0.2-0.6-0.1-0.9c4-10.9,7.9-21.7,11.9-32.6C817.2,93.2,817.3,93,817.4,92.8z"/>
	<path class="st15" d="M1082.4,93c4,11.2,8,22.3,11.9,33.3c-0.2,0.6-0.6,0.6-1,0.6c-7.6,0-15.2,0-22.8,0c-0.2,0-0.3-0.1-0.5-0.1
		c-0.4-0.4-0.1-0.7,0-1.1c3.8-10.6,7.7-21.2,11.5-31.8C1081.7,93.7,1081.7,93.2,1082.4,93z"/>
	<path class="st15" d="M1507.9,126.9c-8.4,0-16.4,0-24.4,0c-0.1-0.1-0.1-0.2-0.2-0.3c0-0.1-0.1-0.2-0.1-0.2c4-11,8-22.1,12-33.1
		c0.1-0.1,0.2-0.2,0.3-0.4c0.1-0.1,0.1-0.1,0.3-0.1C1499.7,104.1,1503.7,115.3,1507.9,126.9z"/>
	<path class="st15" d="M460.4,130.8c-0.1,3.7-0.6,7.3-2.2,10.7c-2.9,5.9-7.6,9.1-14.2,9.2c-6.7,0.1-11.5-3.2-14.5-9.1
		c-1.7-3.4-2.2-7-2.2-10.7c0-3.8,0.5-7.5,2.2-10.9c2.2-4.5,5.5-7.6,10.4-8.8c6.7-1.6,12.8,0.7,16.6,5.8c1.9,2.6,3.1,5.6,3.6,8.8
		C460.3,127.4,460.5,129.1,460.4,130.8z"/>
</g>
</svg>
