<?xml version="1.0" encoding="utf-8"?>
<!-- Generator: Adobe Illustrator 18.1.1, SVG Export Plug-In . SVG Version: 6.00 Build 0)  -->
<svg version="1.1" xmlns="http://www.w3.org/2000/svg" xmlns:xlink="http://www.w3.org/1999/xlink" x="0px" y="0px"
	 viewBox="0 0 400 367.3" enable-background="new 0 0 400 367.3" xml:space="preserve">
<g id="footer">
</g>
<g id="Panel_7">
</g>
<g id="panel_6">
</g>
<g id="Panel_5">
	<g id="Graph">
		
			<line fill="none" stroke="#262D33" stroke-width="3" stroke-linecap="round" stroke-miterlimit="10" x1="5.6" y1="323" x2="390.3" y2="18.5"/>
		
			<line fill="none" stroke="#262D33" stroke-width="3" stroke-linecap="round" stroke-miterlimit="10" x1="5.6" y1="323" x2="390.3" y2="170.7"/>
		<g>
			<path fill="#262D33" d="M182.8,357.2l-1.8-8.1h1.6l1,4.8l1.6-4.8h1l1.6,4.8l1-4.8h1.6l-1.8,8.1h-1l-1.8-5.4l-1.8,5.4H182.8z"/>
			<path fill="#262D33" d="M192,354.7c0,0.5,0.2,0.8,0.5,1.1c0.3,0.2,0.6,0.3,0.9,0.3c0.3,0,0.5-0.1,0.8-0.2
				c0.2-0.1,0.5-0.3,0.7-0.7l1.2,0.7c-0.3,0.5-0.7,0.9-1.1,1.1c-0.4,0.2-0.9,0.3-1.5,0.3c-0.4,0-0.8-0.1-1.1-0.2
				c-0.3-0.1-0.7-0.3-0.9-0.6c-0.3-0.3-0.5-0.6-0.6-0.9c-0.2-0.4-0.2-0.8-0.2-1.4c0-0.5,0.1-0.9,0.2-1.3c0.1-0.4,0.4-0.7,0.6-1
				s0.6-0.5,0.9-0.6c0.3-0.1,0.7-0.2,1.1-0.2c0.8,0,1.5,0.3,2,0.9c0.5,0.6,0.8,1.4,0.8,2.6H192z M194.4,353.6c0-0.4-0.2-0.7-0.4-0.9
				s-0.5-0.3-0.7-0.3c-0.1,0-0.3,0-0.4,0.1c-0.1,0.1-0.3,0.1-0.4,0.2c-0.1,0.1-0.2,0.2-0.3,0.4c-0.1,0.1-0.1,0.3-0.2,0.5H194.4z"/>
			<path fill="#262D33" d="M198.4,354.7c0,0.5,0.2,0.8,0.5,1.1s0.6,0.3,0.9,0.3c0.3,0,0.5-0.1,0.8-0.2c0.2-0.1,0.5-0.3,0.7-0.7
				l1.2,0.7c-0.3,0.5-0.7,0.9-1.1,1.1c-0.4,0.2-0.9,0.3-1.5,0.3c-0.4,0-0.8-0.1-1.1-0.2c-0.3-0.1-0.7-0.3-0.9-0.6
				c-0.3-0.3-0.5-0.6-0.6-0.9c-0.2-0.4-0.2-0.8-0.2-1.4c0-0.5,0.1-0.9,0.2-1.3c0.1-0.4,0.4-0.7,0.6-1s0.6-0.5,0.9-0.6
				c0.3-0.1,0.7-0.2,1.1-0.2c0.8,0,1.5,0.3,2,0.9c0.5,0.6,0.8,1.4,0.8,2.6H198.4z M200.8,353.6c0-0.4-0.2-0.7-0.4-0.9
				c-0.2-0.2-0.5-0.3-0.7-0.3c-0.1,0-0.3,0-0.4,0.1c-0.1,0.1-0.3,0.1-0.4,0.2c-0.1,0.1-0.2,0.2-0.3,0.4c-0.1,0.1-0.1,0.3-0.2,0.5
				H200.8z"/>
			<path fill="#262D33" d="M203.5,357.2v-8.1h1.6v3.9l1.8-1.6h1.9l-2,1.8l2.3,4h-1.8l-1.7-3l-0.6,0.5v2.5H203.5z"/>
			<path fill="#262D33" d="M210.6,355.3c0.1,0.3,0.3,0.5,0.6,0.6s0.6,0.3,0.9,0.3c0.3,0,0.6-0.1,0.8-0.2c0.2-0.1,0.3-0.2,0.3-0.4
				c0-0.2-0.1-0.3-0.3-0.4s-0.6-0.2-1.1-0.3c-0.3-0.1-0.6-0.1-0.8-0.2c-0.3-0.1-0.5-0.2-0.6-0.4c-0.2-0.1-0.3-0.3-0.4-0.5
				c-0.1-0.2-0.1-0.4-0.1-0.7c0-0.5,0.2-0.9,0.6-1.3c0.4-0.3,1-0.5,1.7-0.5c0.7,0,1.2,0.1,1.6,0.3c0.4,0.2,0.7,0.5,0.9,0.8l-1.1,0.8
				c-0.1-0.2-0.3-0.4-0.6-0.5c-0.2-0.1-0.5-0.2-0.8-0.2c-0.3,0-0.6,0-0.7,0.2s-0.2,0.2-0.2,0.4c0,0.2,0.1,0.3,0.2,0.4
				c0.2,0.1,0.5,0.2,0.9,0.3c0.4,0.1,0.7,0.2,0.9,0.3c0.3,0.1,0.5,0.2,0.7,0.4c0.2,0.1,0.3,0.3,0.4,0.5c0.1,0.2,0.2,0.5,0.2,0.7
				c0,0.3-0.1,0.6-0.2,0.8s-0.3,0.4-0.5,0.6c-0.2,0.1-0.5,0.3-0.8,0.3s-0.6,0.1-1,0.1c-0.7,0-1.3-0.1-1.7-0.4c-0.4-0.3-0.8-0.6-1-1
				L210.6,355.3z"/>
		</g>
		<g>
			<path fill="#262D33" d="M4.8,258.7v-3.1H4V255h0.8v-2c0-0.8,0.2-1.4,0.6-1.8c0.4-0.4,0.9-0.6,1.6-0.6c0.3,0,0.5,0,0.7,0.1
				s0.4,0.2,0.5,0.3s0.3,0.2,0.4,0.4s0.2,0.3,0.3,0.5l-0.6,0.3c-0.1-0.2-0.3-0.5-0.5-0.7c-0.2-0.2-0.5-0.3-0.9-0.3
				c-0.5,0-0.9,0.2-1.1,0.5c-0.2,0.3-0.4,0.8-0.4,1.4v2h2.7v0.6H5.5v2.5H9v0.6H4.8z"/>
			<path fill="#262D33" d="M11,257.4c0.2,0.3,0.4,0.5,0.7,0.6c0.3,0.2,0.7,0.2,1.1,0.2c0.6,0,1.1-0.2,1.4-0.5
				c0.4-0.4,0.5-0.9,0.5-1.5c0-0.4-0.1-0.7-0.3-1s-0.4-0.5-0.7-0.7c-0.3-0.2-0.7-0.3-1.1-0.4s-0.9-0.1-1.3-0.1c-0.1,0-0.2,0-0.3,0
				s-0.2,0-0.2,0v-3.3H15v0.6h-3.5v2.2h0.1c0.5,0,1,0.1,1.5,0.2s0.9,0.3,1.2,0.5c0.3,0.2,0.6,0.5,0.8,0.9c0.2,0.4,0.3,0.8,0.3,1.3
				c0,0.4-0.1,0.8-0.2,1.1s-0.3,0.6-0.5,0.8c-0.2,0.2-0.5,0.4-0.8,0.5c-0.3,0.1-0.7,0.2-1,0.2c-0.6,0-1-0.1-1.4-0.3
				c-0.4-0.2-0.7-0.5-0.9-0.8L11,257.4z"/>
			<path fill="#262D33" d="M18,258.5c-0.3-0.2-0.6-0.6-0.8-1c-0.2-0.4-0.4-0.8-0.5-1.3c-0.1-0.5-0.2-1-0.2-1.5s0.1-1,0.2-1.5
				s0.3-0.9,0.5-1.3c0.2-0.4,0.5-0.7,0.8-1c0.3-0.2,0.8-0.4,1.2-0.4c0.5,0,0.9,0.1,1.2,0.4c0.3,0.2,0.6,0.6,0.8,1
				c0.2,0.4,0.4,0.8,0.5,1.3c0.1,0.5,0.2,1,0.2,1.5s-0.1,1-0.2,1.5c-0.1,0.5-0.3,0.9-0.5,1.3c-0.2,0.4-0.5,0.7-0.8,1
				c-0.3,0.2-0.8,0.4-1.2,0.4C18.7,258.8,18.3,258.7,18,258.5z M17.6,257.1c0.2,0.3,0.4,0.6,0.6,0.9c0.3,0.2,0.6,0.3,0.9,0.3
				c0.4,0,0.7-0.1,0.9-0.3s0.5-0.5,0.6-0.9c0.2-0.3,0.3-0.7,0.4-1.2c0.1-0.4,0.1-0.8,0.1-1.2c0-0.4,0-0.8-0.1-1.3
				c-0.1-0.4-0.2-0.8-0.4-1.1c-0.2-0.3-0.4-0.6-0.6-0.8c-0.3-0.2-0.6-0.3-0.9-0.3c-0.4,0-0.7,0.1-0.9,0.3c-0.3,0.2-0.5,0.5-0.6,0.8
				c-0.2,0.3-0.3,0.7-0.4,1.1c-0.1,0.4-0.1,0.8-0.1,1.3c0,0.4,0,0.8,0.1,1.2C17.4,256.3,17.5,256.7,17.6,257.1z"/>
			<path fill="#262D33" d="M24.2,258.5c-0.3-0.2-0.6-0.6-0.8-1s-0.4-0.8-0.5-1.3c-0.1-0.5-0.2-1-0.2-1.5s0.1-1,0.2-1.5
				c0.1-0.5,0.3-0.9,0.5-1.3s0.5-0.7,0.8-1c0.3-0.2,0.8-0.4,1.2-0.4c0.5,0,0.9,0.1,1.2,0.4c0.3,0.2,0.6,0.6,0.8,1
				c0.2,0.4,0.4,0.8,0.5,1.3c0.1,0.5,0.2,1,0.2,1.5s-0.1,1-0.2,1.5c-0.1,0.5-0.3,0.9-0.5,1.3c-0.2,0.4-0.5,0.7-0.8,1
				c-0.3,0.2-0.8,0.4-1.2,0.4C25,258.8,24.5,258.7,24.2,258.5z M23.9,257.1c0.2,0.3,0.4,0.6,0.6,0.9s0.6,0.3,0.9,0.3
				c0.4,0,0.7-0.1,0.9-0.3c0.3-0.2,0.5-0.5,0.6-0.9c0.2-0.3,0.3-0.7,0.4-1.2c0.1-0.4,0.1-0.8,0.1-1.2c0-0.4,0-0.8-0.1-1.3
				c-0.1-0.4-0.2-0.8-0.4-1.1c-0.2-0.3-0.4-0.6-0.6-0.8c-0.3-0.2-0.6-0.3-0.9-0.3c-0.4,0-0.7,0.1-0.9,0.3c-0.3,0.2-0.5,0.5-0.6,0.8
				c-0.2,0.3-0.3,0.7-0.4,1.1c-0.1,0.4-0.1,0.8-0.1,1.3c0,0.4,0,0.8,0.1,1.2C23.6,256.3,23.7,256.7,23.9,257.1z"/>
		</g>
		<g>
			<path fill="#262D33" d="M44.1,336.8v-7.2l-1.9,1.3l-0.4-0.5l2.2-1.5h0.7v8H44.1z"/>
		</g>
		<g>
			<path fill="#262D33" d="M80.2,336.8v-0.4c0.4-0.5,0.8-0.9,1.2-1.4c0.4-0.5,0.8-0.9,1.1-1.4c0.2-0.2,0.4-0.5,0.5-0.7
				s0.3-0.5,0.4-0.7c0.1-0.2,0.2-0.5,0.3-0.7s0.1-0.5,0.1-0.7c0-0.5-0.1-0.9-0.4-1.2c-0.3-0.3-0.7-0.4-1.1-0.4
				c-0.4,0-0.8,0.1-1.1,0.3c-0.3,0.2-0.6,0.5-0.8,0.9l-0.5-0.3c0.2-0.5,0.6-0.8,1-1.1c0.4-0.3,0.9-0.4,1.5-0.4
				c0.3,0,0.7,0.1,0.9,0.2s0.5,0.2,0.7,0.4c0.2,0.2,0.3,0.4,0.4,0.7c0.1,0.2,0.2,0.5,0.2,0.8c0,0.3,0,0.6-0.1,0.9
				c-0.1,0.3-0.2,0.5-0.3,0.8c-0.1,0.3-0.3,0.5-0.5,0.7c-0.2,0.2-0.4,0.5-0.6,0.7c-0.1,0.2-0.3,0.4-0.5,0.6
				c-0.2,0.2-0.4,0.4-0.6,0.7s-0.4,0.4-0.5,0.6c-0.2,0.2-0.3,0.4-0.4,0.5h3.7v0.6H80.2z"/>
		</g>
		<g>
			<path fill="#262D33" d="M118.8,335.3c0.2,0.3,0.5,0.6,0.8,0.8s0.7,0.3,1,0.3c0.2,0,0.5,0,0.7-0.1c0.2-0.1,0.4-0.2,0.6-0.3
				c0.2-0.1,0.3-0.3,0.4-0.5c0.1-0.2,0.2-0.5,0.2-0.7c0-0.3-0.1-0.5-0.2-0.7c-0.1-0.2-0.3-0.4-0.4-0.5c-0.2-0.1-0.4-0.3-0.6-0.3
				c-0.2-0.1-0.5-0.1-0.7-0.2v-0.5c0.2,0,0.4-0.1,0.6-0.2c0.2-0.1,0.4-0.2,0.6-0.3c0.2-0.1,0.3-0.3,0.4-0.5s0.2-0.4,0.2-0.7
				c0-0.2,0-0.5-0.1-0.6s-0.2-0.4-0.4-0.5s-0.3-0.2-0.5-0.3s-0.4-0.1-0.6-0.1c-0.4,0-0.8,0.1-1.1,0.3c-0.3,0.2-0.5,0.4-0.7,0.7
				l-0.5-0.3c0.2-0.4,0.5-0.7,0.9-0.9s0.9-0.4,1.5-0.4c0.3,0,0.6,0.1,0.9,0.2c0.3,0.1,0.5,0.2,0.7,0.4c0.2,0.2,0.4,0.4,0.5,0.6
				c0.1,0.2,0.2,0.5,0.2,0.8c0,0.5-0.1,0.9-0.4,1.2s-0.6,0.6-1.1,0.7c0.2,0.1,0.4,0.1,0.6,0.3c0.2,0.1,0.4,0.3,0.5,0.4
				c0.1,0.2,0.3,0.4,0.3,0.6c0.1,0.2,0.1,0.5,0.1,0.8c0,0.4-0.1,0.7-0.2,1c-0.1,0.3-0.3,0.5-0.6,0.7c-0.2,0.2-0.5,0.4-0.8,0.5
				s-0.6,0.2-1,0.2c-0.5,0-1-0.1-1.4-0.3c-0.4-0.2-0.7-0.5-1-0.9L118.8,335.3z"/>
		</g>
		<g>
			<path fill="#262D33" d="M156.7,334.3v-0.7l3.9-4.8h0.5v4.9h0.9v0.6h-0.9v2.5h-0.6v-2.5H156.7z M157.3,333.7h3.1v-3.8L157.3,333.7
				z"/>
		</g>
		<g>
			<path fill="#262D33" d="M195.8,335.5c0.2,0.3,0.4,0.5,0.7,0.6c0.3,0.2,0.7,0.2,1.1,0.2c0.6,0,1.1-0.2,1.4-0.5
				c0.4-0.4,0.5-0.9,0.5-1.5c0-0.4-0.1-0.7-0.3-1c-0.2-0.3-0.4-0.5-0.7-0.7c-0.3-0.2-0.7-0.3-1.1-0.4c-0.4-0.1-0.9-0.1-1.3-0.1
				c-0.1,0-0.2,0-0.3,0c-0.1,0-0.2,0-0.2,0v-3.3h4.1v0.6h-3.5v2.2h0.1c0.5,0,1,0.1,1.5,0.2s0.9,0.3,1.2,0.5s0.6,0.5,0.8,0.9
				c0.2,0.4,0.3,0.8,0.3,1.3c0,0.4-0.1,0.8-0.2,1.1s-0.3,0.6-0.5,0.8s-0.5,0.4-0.8,0.5c-0.3,0.1-0.7,0.2-1,0.2c-0.6,0-1-0.1-1.4-0.3
				c-0.4-0.2-0.7-0.5-0.9-0.8L195.8,335.5z"/>
		</g>
		<g>
			<path fill="#262D33" d="M238,329.2c-0.4,0.1-0.7,0.2-1.1,0.4c-0.3,0.2-0.7,0.4-1,0.7s-0.6,0.6-0.8,0.9c-0.2,0.3-0.4,0.7-0.5,1.1
				c0.2-0.2,0.5-0.3,0.8-0.4c0.3-0.1,0.6-0.2,1-0.2s0.7,0.1,1,0.2c0.3,0.1,0.5,0.3,0.8,0.6c0.2,0.2,0.4,0.5,0.5,0.8
				c0.1,0.3,0.2,0.6,0.2,1c0,0.4-0.1,0.7-0.2,1c-0.1,0.3-0.3,0.6-0.5,0.8c-0.2,0.2-0.5,0.4-0.8,0.6c-0.3,0.1-0.6,0.2-1,0.2
				c-0.4,0-0.8-0.1-1.1-0.2s-0.6-0.4-0.8-0.7c-0.2-0.3-0.4-0.6-0.5-1c-0.1-0.4-0.2-0.8-0.2-1.2c0-0.6,0.1-1.2,0.3-1.8
				c0.2-0.6,0.5-1.1,0.8-1.5c0.4-0.4,0.8-0.8,1.3-1.1c0.5-0.3,1-0.5,1.6-0.6L238,329.2z M235.3,332.5c-0.3,0.1-0.6,0.3-0.8,0.5
				c0,0.1,0,0.3,0,0.4c0,0.1,0,0.3,0,0.5c0,0.3,0,0.6,0.1,0.9s0.2,0.6,0.3,0.8s0.4,0.4,0.6,0.6c0.2,0.2,0.5,0.2,0.9,0.2
				c0.3,0,0.5-0.1,0.7-0.2c0.2-0.1,0.4-0.3,0.6-0.5c0.1-0.2,0.3-0.4,0.3-0.7c0.1-0.2,0.1-0.5,0.1-0.8c0-0.3,0-0.5-0.1-0.8
				c-0.1-0.2-0.2-0.5-0.4-0.7c-0.2-0.2-0.4-0.3-0.6-0.4c-0.2-0.1-0.5-0.2-0.8-0.2C235.9,332.3,235.6,332.3,235.3,332.5z"/>
		</g>
		<g>
			<path fill="#262D33" d="M273.6,336.8l2.9-7.4h-4.5v-0.6h5.2v0.5l-3,7.5H273.6z"/>
		</g>
		<g>
			<path fill="#262D33" d="M311.1,333.4c0.3-0.4,0.7-0.6,1.1-0.8c-0.4-0.1-0.7-0.4-1-0.7c-0.3-0.3-0.4-0.7-0.4-1.2
				c0-0.3,0.1-0.6,0.2-0.9s0.3-0.5,0.5-0.7c0.2-0.2,0.5-0.3,0.8-0.4c0.3-0.1,0.6-0.1,1-0.1s0.7,0,1,0.1c0.3,0.1,0.5,0.2,0.7,0.4
				c0.2,0.2,0.4,0.4,0.5,0.7c0.1,0.3,0.2,0.5,0.2,0.9c0,0.5-0.1,0.9-0.4,1.2s-0.6,0.5-1,0.7c0.4,0.1,0.8,0.4,1.1,0.7
				s0.4,0.8,0.4,1.3c0,0.4-0.1,0.7-0.2,1s-0.3,0.5-0.5,0.7c-0.2,0.2-0.5,0.3-0.8,0.4s-0.6,0.2-1,0.2s-0.7-0.1-1-0.2
				s-0.6-0.2-0.8-0.4c-0.2-0.2-0.4-0.4-0.5-0.7c-0.1-0.3-0.2-0.6-0.2-1C310.7,334.1,310.8,333.7,311.1,333.4z M311.4,335.4
				c0.1,0.2,0.2,0.4,0.4,0.5c0.2,0.1,0.4,0.3,0.6,0.3c0.2,0.1,0.5,0.1,0.7,0.1s0.5,0,0.7-0.1c0.2-0.1,0.4-0.2,0.6-0.3
				c0.2-0.1,0.3-0.3,0.4-0.5c0.1-0.2,0.2-0.5,0.2-0.7c0-0.3-0.1-0.5-0.2-0.7c-0.1-0.2-0.2-0.4-0.4-0.6s-0.4-0.3-0.6-0.4
				c-0.2-0.1-0.5-0.1-0.7-0.1s-0.5,0-0.7,0.1s-0.4,0.2-0.6,0.4s-0.3,0.3-0.4,0.6c-0.1,0.2-0.2,0.5-0.2,0.7
				C311.3,334.9,311.3,335.2,311.4,335.4z M311.6,331.4c0.1,0.2,0.2,0.4,0.4,0.5c0.2,0.1,0.3,0.2,0.6,0.3c0.2,0.1,0.4,0.1,0.7,0.1
				c0.2,0,0.5,0,0.7-0.1c0.2-0.1,0.4-0.2,0.6-0.3c0.2-0.1,0.3-0.3,0.4-0.5c0.1-0.2,0.1-0.4,0.1-0.7s0-0.5-0.1-0.7
				c-0.1-0.2-0.2-0.4-0.4-0.5c-0.2-0.1-0.3-0.2-0.6-0.3s-0.4-0.1-0.7-0.1c-0.2,0-0.5,0-0.7,0.1s-0.4,0.2-0.6,0.3
				c-0.2,0.1-0.3,0.3-0.4,0.5c-0.1,0.2-0.1,0.4-0.1,0.7S311.5,331.2,311.6,331.4z"/>
		</g>
		<g>
			<path fill="#262D33" d="M349.9,336.3c0.4-0.1,0.8-0.2,1.1-0.4c0.4-0.2,0.7-0.4,1-0.7c0.3-0.3,0.6-0.6,0.8-0.9
				c0.2-0.3,0.4-0.7,0.5-1.1c-0.2,0.2-0.5,0.3-0.8,0.4c-0.3,0.1-0.6,0.2-1,0.2c-0.4,0-0.7-0.1-1-0.2c-0.3-0.1-0.5-0.3-0.7-0.5
				c-0.2-0.2-0.4-0.5-0.5-0.8c-0.1-0.3-0.2-0.7-0.2-1c0-0.4,0.1-0.7,0.2-1c0.1-0.3,0.3-0.6,0.5-0.8s0.5-0.4,0.8-0.5
				c0.3-0.1,0.6-0.2,1-0.2c0.4,0,0.8,0.1,1.1,0.2s0.6,0.4,0.8,0.7c0.2,0.3,0.4,0.6,0.5,1c0.1,0.4,0.2,0.8,0.2,1.2
				c0,0.7-0.1,1.3-0.3,1.8s-0.5,1.1-0.8,1.5c-0.4,0.4-0.8,0.8-1.3,1.1s-1,0.5-1.6,0.6L349.9,336.3z M352.7,333
				c0.3-0.1,0.6-0.3,0.8-0.5c0-0.1,0-0.3,0-0.4s0-0.3,0-0.4c0-0.3,0-0.6-0.1-0.9c-0.1-0.3-0.2-0.6-0.3-0.8c-0.2-0.2-0.3-0.4-0.6-0.6
				c-0.2-0.1-0.5-0.2-0.9-0.2c-0.3,0-0.5,0.1-0.8,0.2c-0.2,0.1-0.4,0.3-0.6,0.4c-0.2,0.2-0.3,0.4-0.3,0.6c-0.1,0.2-0.1,0.5-0.1,0.7
				c0,0.3,0,0.6,0.1,0.8c0.1,0.3,0.2,0.5,0.4,0.7c0.2,0.2,0.4,0.3,0.6,0.4c0.2,0.1,0.5,0.2,0.8,0.2C352,333.2,352.3,333.2,352.7,333
				z"/>
		</g>
		<g>
			<path fill="#262D33" d="M387.6,336.8v-7.2l-1.9,1.3l-0.3-0.5l2.2-1.5h0.7v8H387.6z"/>
			<path fill="#262D33" d="M391.5,336.6c-0.3-0.2-0.6-0.6-0.8-1c-0.2-0.4-0.4-0.8-0.5-1.3c-0.1-0.5-0.2-1-0.2-1.5s0.1-1,0.2-1.5
				c0.1-0.5,0.3-0.9,0.5-1.3c0.2-0.4,0.5-0.7,0.8-1c0.3-0.2,0.8-0.4,1.2-0.4s0.9,0.1,1.2,0.4c0.3,0.2,0.6,0.6,0.8,1
				c0.2,0.4,0.4,0.8,0.5,1.3c0.1,0.5,0.2,1,0.2,1.5s-0.1,1-0.2,1.5c-0.1,0.5-0.3,0.9-0.5,1.3c-0.2,0.4-0.5,0.7-0.8,1
				c-0.3,0.2-0.8,0.4-1.2,0.4S391.9,336.8,391.5,336.6z M391.2,335.1c0.2,0.3,0.4,0.6,0.6,0.9s0.6,0.3,0.9,0.3
				c0.4,0,0.7-0.1,0.9-0.3s0.5-0.5,0.6-0.9c0.2-0.3,0.3-0.7,0.4-1.2s0.1-0.8,0.1-1.2c0-0.4,0-0.8-0.1-1.3s-0.2-0.8-0.4-1.1
				c-0.2-0.3-0.4-0.6-0.6-0.8c-0.3-0.2-0.6-0.3-0.9-0.3c-0.4,0-0.7,0.1-0.9,0.3c-0.3,0.2-0.5,0.5-0.6,0.8c-0.2,0.3-0.3,0.7-0.4,1.1
				s-0.1,0.8-0.1,1.3c0,0.4,0,0.8,0.1,1.2S391.1,334.8,391.2,335.1z"/>
		</g>
		<g>
			<path fill="#262D33" d="M4.7,197.9v-3.1H3.9v-0.6h0.8v-2c0-0.8,0.2-1.4,0.6-1.8c0.4-0.4,0.9-0.6,1.6-0.6c0.3,0,0.5,0,0.7,0.1
				s0.4,0.2,0.5,0.3s0.3,0.2,0.4,0.4s0.2,0.3,0.3,0.5l-0.6,0.3c-0.1-0.2-0.3-0.5-0.5-0.7c-0.2-0.2-0.5-0.3-0.9-0.3
				c-0.5,0-0.9,0.2-1.1,0.5c-0.2,0.3-0.4,0.8-0.4,1.4v2H8v0.6H5.3v2.5h3.6v0.6H4.7z"/>
			<path fill="#262D33" d="M13,197.9v-7.2l-1.9,1.3l-0.4-0.5l2.2-1.5h0.7v8H13z"/>
			<path fill="#262D33" d="M17.8,197.7c-0.3-0.2-0.6-0.6-0.8-1c-0.2-0.4-0.4-0.8-0.5-1.3c-0.1-0.5-0.2-1-0.2-1.5s0.1-1,0.2-1.5
				s0.3-0.9,0.5-1.3c0.2-0.4,0.5-0.7,0.8-1c0.3-0.2,0.8-0.4,1.2-0.4c0.5,0,0.9,0.1,1.2,0.4c0.3,0.2,0.6,0.6,0.8,1
				c0.2,0.4,0.4,0.8,0.5,1.3c0.1,0.5,0.2,1,0.2,1.5s-0.1,1-0.2,1.5c-0.1,0.5-0.3,0.9-0.5,1.3c-0.2,0.4-0.5,0.7-0.8,1
				c-0.3,0.2-0.8,0.4-1.2,0.4C18.6,198.1,18.2,197.9,17.8,197.7z M17.5,196.3c0.2,0.3,0.4,0.6,0.6,0.9c0.3,0.2,0.6,0.3,0.9,0.3
				c0.4,0,0.7-0.1,0.9-0.3s0.5-0.5,0.6-0.9c0.2-0.3,0.3-0.7,0.4-1.2c0.1-0.4,0.1-0.8,0.1-1.2c0-0.4,0-0.8-0.1-1.3
				c-0.1-0.4-0.2-0.8-0.4-1.1c-0.2-0.3-0.4-0.6-0.6-0.8c-0.3-0.2-0.6-0.3-0.9-0.3c-0.4,0-0.7,0.1-0.9,0.3c-0.3,0.2-0.5,0.5-0.6,0.8
				c-0.2,0.3-0.3,0.7-0.4,1.1c-0.1,0.4-0.1,0.8-0.1,1.3c0,0.4,0,0.8,0.1,1.2C17.2,195.6,17.3,195.9,17.5,196.3z"/>
			<path fill="#262D33" d="M24.1,197.7c-0.3-0.2-0.6-0.6-0.8-1s-0.4-0.8-0.5-1.3c-0.1-0.5-0.2-1-0.2-1.5s0.1-1,0.2-1.5
				c0.1-0.5,0.3-0.9,0.5-1.3s0.5-0.7,0.8-1c0.3-0.2,0.8-0.4,1.2-0.4c0.5,0,0.9,0.1,1.2,0.4c0.3,0.2,0.6,0.6,0.8,1
				c0.2,0.4,0.4,0.8,0.5,1.3c0.1,0.5,0.2,1,0.2,1.5s-0.1,1-0.2,1.5c-0.1,0.5-0.3,0.9-0.5,1.3c-0.2,0.4-0.5,0.7-0.8,1
				c-0.3,0.2-0.8,0.4-1.2,0.4C24.8,198.1,24.4,197.9,24.1,197.7z M23.8,196.3c0.2,0.3,0.4,0.6,0.6,0.9s0.6,0.3,0.9,0.3
				c0.4,0,0.7-0.1,0.9-0.3c0.3-0.2,0.5-0.5,0.6-0.9c0.2-0.3,0.3-0.7,0.4-1.2c0.1-0.4,0.1-0.8,0.1-1.2c0-0.4,0-0.8-0.1-1.3
				c-0.1-0.4-0.2-0.8-0.4-1.1c-0.2-0.3-0.4-0.6-0.6-0.8c-0.3-0.2-0.6-0.3-0.9-0.3c-0.4,0-0.7,0.1-0.9,0.3c-0.3,0.2-0.5,0.5-0.6,0.8
				c-0.2,0.3-0.3,0.7-0.4,1.1c-0.1,0.4-0.1,0.8-0.1,1.3c0,0.4,0,0.8,0.1,1.2C23.5,195.6,23.6,195.9,23.8,196.3z"/>
			<path fill="#262D33" d="M30.3,197.7c-0.3-0.2-0.6-0.6-0.8-1c-0.2-0.4-0.4-0.8-0.5-1.3c-0.1-0.5-0.2-1-0.2-1.5s0.1-1,0.2-1.5
				s0.3-0.9,0.5-1.3c0.2-0.4,0.5-0.7,0.8-1c0.3-0.2,0.8-0.4,1.2-0.4c0.5,0,0.9,0.1,1.2,0.4c0.3,0.2,0.6,0.6,0.8,1
				c0.2,0.4,0.4,0.8,0.5,1.3c0.1,0.5,0.2,1,0.2,1.5s-0.1,1-0.2,1.5c-0.1,0.5-0.3,0.9-0.5,1.3c-0.2,0.4-0.5,0.7-0.8,1
				c-0.3,0.2-0.8,0.4-1.2,0.4C31.1,198.1,30.7,197.9,30.3,197.7z M30,196.3c0.2,0.3,0.4,0.6,0.6,0.9c0.3,0.2,0.6,0.3,0.9,0.3
				c0.4,0,0.7-0.1,0.9-0.3s0.5-0.5,0.6-0.9c0.2-0.3,0.3-0.7,0.4-1.2c0.1-0.4,0.1-0.8,0.1-1.2c0-0.4,0-0.8-0.1-1.3
				c-0.1-0.4-0.2-0.8-0.4-1.1c-0.2-0.3-0.4-0.6-0.6-0.8c-0.3-0.2-0.6-0.3-0.9-0.3c-0.4,0-0.7,0.1-0.9,0.3c-0.3,0.2-0.5,0.5-0.6,0.8
				c-0.2,0.3-0.3,0.7-0.4,1.1c-0.1,0.4-0.1,0.8-0.1,1.3c0,0.4,0,0.8,0.1,1.2C29.7,195.6,29.8,195.9,30,196.3z"/>
		</g>
		<g>
			<path fill="#262D33" d="M4.7,137.1V134H3.9v-0.6h0.8v-2c0-0.8,0.2-1.4,0.6-1.8c0.4-0.4,0.9-0.6,1.6-0.6c0.3,0,0.5,0,0.7,0.1
				s0.4,0.2,0.5,0.3s0.3,0.2,0.4,0.4s0.2,0.3,0.3,0.5l-0.6,0.3c-0.1-0.2-0.3-0.5-0.5-0.7c-0.2-0.2-0.5-0.3-0.9-0.3
				c-0.5,0-0.9,0.2-1.1,0.5c-0.2,0.3-0.4,0.8-0.4,1.4v2H8v0.6H5.3v2.5h3.6v0.6H4.7z"/>
			<path fill="#262D33" d="M13,137.1v-7.2l-1.9,1.3l-0.4-0.5l2.2-1.5h0.7v8H13z"/>
			<path fill="#262D33" d="M17.1,135.8c0.2,0.3,0.4,0.5,0.7,0.6c0.3,0.2,0.7,0.2,1.1,0.2c0.6,0,1.1-0.2,1.4-0.5
				c0.4-0.4,0.5-0.9,0.5-1.5c0-0.4-0.1-0.7-0.3-1c-0.2-0.3-0.4-0.5-0.7-0.7c-0.3-0.2-0.7-0.3-1.1-0.4c-0.4-0.1-0.9-0.1-1.3-0.1
				c-0.1,0-0.2,0-0.3,0c-0.1,0-0.2,0-0.2,0v-3.3h4.1v0.6h-3.5v2.2h0.1c0.5,0,1,0.1,1.5,0.2s0.9,0.3,1.2,0.5s0.6,0.5,0.8,0.9
				c0.2,0.4,0.3,0.8,0.3,1.3c0,0.4-0.1,0.8-0.2,1.1s-0.3,0.6-0.5,0.8s-0.5,0.4-0.8,0.5c-0.3,0.1-0.7,0.2-1,0.2c-0.6,0-1-0.1-1.4-0.3
				c-0.4-0.2-0.7-0.5-0.9-0.8L17.1,135.8z"/>
			<path fill="#262D33" d="M24.1,136.9c-0.3-0.2-0.6-0.6-0.8-1s-0.4-0.8-0.5-1.3c-0.1-0.5-0.2-1-0.2-1.5s0.1-1,0.2-1.5
				c0.1-0.5,0.3-0.9,0.5-1.3s0.5-0.7,0.8-1c0.3-0.2,0.8-0.4,1.2-0.4c0.5,0,0.9,0.1,1.2,0.4c0.3,0.2,0.6,0.6,0.8,1
				c0.2,0.4,0.4,0.8,0.5,1.3c0.1,0.5,0.2,1,0.2,1.5s-0.1,1-0.2,1.5c-0.1,0.5-0.3,0.9-0.5,1.3c-0.2,0.4-0.5,0.7-0.8,1
				c-0.3,0.2-0.8,0.4-1.2,0.4C24.8,137.3,24.4,137.2,24.1,136.9z M23.8,135.5c0.2,0.3,0.4,0.6,0.6,0.9s0.6,0.3,0.9,0.3
				c0.4,0,0.7-0.1,0.9-0.3c0.3-0.2,0.5-0.5,0.6-0.9c0.2-0.3,0.3-0.7,0.4-1.2c0.1-0.4,0.1-0.8,0.1-1.2c0-0.4,0-0.8-0.1-1.3
				c-0.1-0.4-0.2-0.8-0.4-1.1c-0.2-0.3-0.4-0.6-0.6-0.8c-0.3-0.2-0.6-0.3-0.9-0.3c-0.4,0-0.7,0.1-0.9,0.3c-0.3,0.2-0.5,0.5-0.6,0.8
				c-0.2,0.3-0.3,0.7-0.4,1.1c-0.1,0.4-0.1,0.8-0.1,1.3c0,0.4,0,0.8,0.1,1.2C23.5,134.8,23.6,135.2,23.8,135.5z"/>
			<path fill="#262D33" d="M30.3,136.9c-0.3-0.2-0.6-0.6-0.8-1c-0.2-0.4-0.4-0.8-0.5-1.3c-0.1-0.5-0.2-1-0.2-1.5s0.1-1,0.2-1.5
				s0.3-0.9,0.5-1.3c0.2-0.4,0.5-0.7,0.8-1c0.3-0.2,0.8-0.4,1.2-0.4c0.5,0,0.9,0.1,1.2,0.4c0.3,0.2,0.6,0.6,0.8,1
				c0.2,0.4,0.4,0.8,0.5,1.3c0.1,0.5,0.2,1,0.2,1.5s-0.1,1-0.2,1.5c-0.1,0.5-0.3,0.9-0.5,1.3c-0.2,0.4-0.5,0.7-0.8,1
				c-0.3,0.2-0.8,0.4-1.2,0.4C31.1,137.3,30.7,137.2,30.3,136.9z M30,135.5c0.2,0.3,0.4,0.6,0.6,0.9c0.3,0.2,0.6,0.3,0.9,0.3
				c0.4,0,0.7-0.1,0.9-0.3s0.5-0.5,0.6-0.9c0.2-0.3,0.3-0.7,0.4-1.2c0.1-0.4,0.1-0.8,0.1-1.2c0-0.4,0-0.8-0.1-1.3
				c-0.1-0.4-0.2-0.8-0.4-1.1c-0.2-0.3-0.4-0.6-0.6-0.8c-0.3-0.2-0.6-0.3-0.9-0.3c-0.4,0-0.7,0.1-0.9,0.3c-0.3,0.2-0.5,0.5-0.6,0.8
				c-0.2,0.3-0.3,0.7-0.4,1.1c-0.1,0.4-0.1,0.8-0.1,1.3c0,0.4,0,0.8,0.1,1.2C29.7,134.8,29.8,135.2,30,135.5z"/>
		</g>
		<g>
			<path fill="#262D33" d="M4.7,76.4v-3.1H3.9v-0.6h0.8v-2c0-0.8,0.2-1.4,0.6-1.8c0.4-0.4,0.9-0.6,1.6-0.6c0.3,0,0.5,0,0.7,0.1
				s0.4,0.2,0.5,0.3s0.3,0.2,0.4,0.4s0.2,0.3,0.3,0.5l-0.6,0.3c-0.1-0.2-0.3-0.5-0.5-0.7c-0.2-0.2-0.5-0.3-0.9-0.3
				c-0.5,0-0.9,0.2-1.1,0.5c-0.2,0.3-0.4,0.8-0.4,1.4v2H8v0.6H5.3v2.5h3.6v0.6H4.7z"/>
			<path fill="#262D33" d="M10.6,76.4v-0.4c0.4-0.5,0.8-0.9,1.2-1.4c0.4-0.5,0.8-0.9,1.1-1.4c0.2-0.2,0.4-0.5,0.5-0.7
				c0.2-0.2,0.3-0.5,0.4-0.7c0.1-0.2,0.2-0.5,0.3-0.7c0.1-0.2,0.1-0.5,0.1-0.7c0-0.5-0.1-0.9-0.4-1.2c-0.3-0.3-0.7-0.4-1.1-0.4
				c-0.4,0-0.8,0.1-1.1,0.3c-0.3,0.2-0.6,0.5-0.8,0.9l-0.5-0.3c0.2-0.5,0.6-0.8,1-1.1c0.4-0.3,0.9-0.4,1.5-0.4
				c0.3,0,0.7,0.1,0.9,0.2c0.3,0.1,0.5,0.2,0.7,0.4c0.2,0.2,0.3,0.4,0.4,0.7C15,69.7,15,70,15,70.3c0,0.3,0,0.6-0.1,0.9
				c-0.1,0.3-0.2,0.5-0.3,0.8c-0.1,0.3-0.3,0.5-0.5,0.7c-0.2,0.2-0.4,0.5-0.6,0.7c-0.1,0.2-0.3,0.4-0.5,0.6
				c-0.2,0.2-0.4,0.4-0.6,0.7c-0.2,0.2-0.4,0.4-0.5,0.6s-0.3,0.4-0.4,0.5h3.7v0.6H10.6z"/>
			<path fill="#262D33" d="M17.8,76.2c-0.3-0.2-0.6-0.6-0.8-1c-0.2-0.4-0.4-0.8-0.5-1.3c-0.1-0.5-0.2-1-0.2-1.5s0.1-1,0.2-1.5
				s0.3-0.9,0.5-1.3c0.2-0.4,0.5-0.7,0.8-1c0.3-0.2,0.8-0.4,1.2-0.4c0.5,0,0.9,0.1,1.2,0.4c0.3,0.2,0.6,0.6,0.8,1
				c0.2,0.4,0.4,0.8,0.5,1.3c0.1,0.5,0.2,1,0.2,1.5s-0.1,1-0.2,1.5c-0.1,0.5-0.3,0.9-0.5,1.3c-0.2,0.4-0.5,0.7-0.8,1
				c-0.3,0.2-0.8,0.4-1.2,0.4C18.6,76.5,18.2,76.4,17.8,76.2z M17.5,74.7c0.2,0.3,0.4,0.6,0.6,0.9c0.3,0.2,0.6,0.3,0.9,0.3
				c0.4,0,0.7-0.1,0.9-0.3s0.5-0.5,0.6-0.9c0.2-0.3,0.3-0.7,0.4-1.2c0.1-0.4,0.1-0.8,0.1-1.2c0-0.4,0-0.8-0.1-1.3
				c-0.1-0.4-0.2-0.8-0.4-1.1c-0.2-0.3-0.4-0.6-0.6-0.8c-0.3-0.2-0.6-0.3-0.9-0.3c-0.4,0-0.7,0.1-0.9,0.3c-0.3,0.2-0.5,0.5-0.6,0.8
				c-0.2,0.3-0.3,0.7-0.4,1.1c-0.1,0.4-0.1,0.8-0.1,1.3c0,0.4,0,0.8,0.1,1.2C17.2,74,17.3,74.4,17.5,74.7z"/>
			<path fill="#262D33" d="M24.1,76.2c-0.3-0.2-0.6-0.6-0.8-1s-0.4-0.8-0.5-1.3c-0.1-0.5-0.2-1-0.2-1.5s0.1-1,0.2-1.5
				c0.1-0.5,0.3-0.9,0.5-1.3s0.5-0.7,0.8-1c0.3-0.2,0.8-0.4,1.2-0.4c0.5,0,0.9,0.1,1.2,0.4c0.3,0.2,0.6,0.6,0.8,1
				c0.2,0.4,0.4,0.8,0.5,1.3c0.1,0.5,0.2,1,0.2,1.5s-0.1,1-0.2,1.5c-0.1,0.5-0.3,0.9-0.5,1.3c-0.2,0.4-0.5,0.7-0.8,1
				c-0.3,0.2-0.8,0.4-1.2,0.4C24.8,76.5,24.4,76.4,24.1,76.2z M23.8,74.7c0.2,0.3,0.4,0.6,0.6,0.9s0.6,0.3,0.9,0.3
				c0.4,0,0.7-0.1,0.9-0.3c0.3-0.2,0.5-0.5,0.6-0.9c0.2-0.3,0.3-0.7,0.4-1.2c0.1-0.4,0.1-0.8,0.1-1.2c0-0.4,0-0.8-0.1-1.3
				c-0.1-0.4-0.2-0.8-0.4-1.1c-0.2-0.3-0.4-0.6-0.6-0.8c-0.3-0.2-0.6-0.3-0.9-0.3c-0.4,0-0.7,0.1-0.9,0.3c-0.3,0.2-0.5,0.5-0.6,0.8
				c-0.2,0.3-0.3,0.7-0.4,1.1c-0.1,0.4-0.1,0.8-0.1,1.3c0,0.4,0,0.8,0.1,1.2C23.5,74,23.6,74.4,23.8,74.7z"/>
			<path fill="#262D33" d="M30.3,76.2c-0.3-0.2-0.6-0.6-0.8-1c-0.2-0.4-0.4-0.8-0.5-1.3c-0.1-0.5-0.2-1-0.2-1.5s0.1-1,0.2-1.5
				s0.3-0.9,0.5-1.3c0.2-0.4,0.5-0.7,0.8-1c0.3-0.2,0.8-0.4,1.2-0.4c0.5,0,0.9,0.1,1.2,0.4c0.3,0.2,0.6,0.6,0.8,1
				c0.2,0.4,0.4,0.8,0.5,1.3c0.1,0.5,0.2,1,0.2,1.5s-0.1,1-0.2,1.5c-0.1,0.5-0.3,0.9-0.5,1.3c-0.2,0.4-0.5,0.7-0.8,1
				c-0.3,0.2-0.8,0.4-1.2,0.4C31.1,76.5,30.7,76.4,30.3,76.2z M30,74.7c0.2,0.3,0.4,0.6,0.6,0.9c0.3,0.2,0.6,0.3,0.9,0.3
				c0.4,0,0.7-0.1,0.9-0.3s0.5-0.5,0.6-0.9c0.2-0.3,0.3-0.7,0.4-1.2c0.1-0.4,0.1-0.8,0.1-1.2c0-0.4,0-0.8-0.1-1.3
				c-0.1-0.4-0.2-0.8-0.4-1.1c-0.2-0.3-0.4-0.6-0.6-0.8c-0.3-0.2-0.6-0.3-0.9-0.3c-0.4,0-0.7,0.1-0.9,0.3c-0.3,0.2-0.5,0.5-0.6,0.8
				c-0.2,0.3-0.3,0.7-0.4,1.1c-0.1,0.4-0.1,0.8-0.1,1.3c0,0.4,0,0.8,0.1,1.2C29.7,74,29.8,74.4,30,74.7z"/>
		</g>
		<g>
			<path fill="#262D33" d="M4.7,15.6v-3.1H3.9v-0.6h0.8v-2c0-0.8,0.2-1.4,0.6-1.8c0.4-0.4,0.9-0.6,1.6-0.6c0.3,0,0.5,0,0.7,0.1
				s0.4,0.2,0.5,0.3S8.4,8,8.5,8.2s0.2,0.3,0.3,0.5L8.2,9C8.1,8.7,7.9,8.5,7.7,8.3C7.5,8.1,7.2,8.1,6.8,8.1C6.3,8.1,6,8.2,5.7,8.5
				C5.5,8.8,5.3,9.3,5.3,9.9v2H8v0.6H5.3V15h3.6v0.6H4.7z"/>
			<path fill="#262D33" d="M10.6,15.6v-0.4c0.4-0.5,0.8-0.9,1.2-1.4c0.4-0.5,0.8-0.9,1.1-1.4c0.2-0.2,0.4-0.5,0.5-0.7
				c0.2-0.2,0.3-0.5,0.4-0.7c0.1-0.2,0.2-0.5,0.3-0.7c0.1-0.2,0.1-0.5,0.1-0.7c0-0.5-0.1-0.9-0.4-1.2C13.6,8.2,13.2,8,12.8,8
				c-0.4,0-0.8,0.1-1.1,0.3c-0.3,0.2-0.6,0.5-0.8,0.9L10.4,9c0.2-0.5,0.6-0.8,1-1.1c0.4-0.3,0.9-0.4,1.5-0.4c0.3,0,0.7,0.1,0.9,0.2
				C14,7.7,14.3,7.9,14.5,8c0.2,0.2,0.3,0.4,0.4,0.7C15,8.9,15,9.2,15,9.5c0,0.3,0,0.6-0.1,0.9c-0.1,0.3-0.2,0.5-0.3,0.8
				c-0.1,0.3-0.3,0.5-0.5,0.7c-0.2,0.2-0.4,0.5-0.6,0.7c-0.1,0.2-0.3,0.4-0.5,0.6c-0.2,0.2-0.4,0.4-0.6,0.7
				c-0.2,0.2-0.4,0.4-0.5,0.6s-0.3,0.4-0.4,0.5h3.7v0.6H10.6z"/>
			<path fill="#262D33" d="M17.1,14.3c0.2,0.3,0.4,0.5,0.7,0.6c0.3,0.2,0.7,0.2,1.1,0.2c0.6,0,1.1-0.2,1.4-0.5
				c0.4-0.4,0.5-0.9,0.5-1.5c0-0.4-0.1-0.7-0.3-1c-0.2-0.3-0.4-0.5-0.7-0.7c-0.3-0.2-0.7-0.3-1.1-0.4c-0.4-0.1-0.9-0.1-1.3-0.1
				c-0.1,0-0.2,0-0.3,0c-0.1,0-0.2,0-0.2,0V7.6h4.1v0.6h-3.5v2.2h0.1c0.5,0,1,0.1,1.5,0.2s0.9,0.3,1.2,0.5s0.6,0.5,0.8,0.9
				c0.2,0.4,0.3,0.8,0.3,1.3c0,0.4-0.1,0.8-0.2,1.1S21,14.8,20.8,15s-0.5,0.4-0.8,0.5c-0.3,0.1-0.7,0.2-1,0.2c-0.6,0-1-0.1-1.4-0.3
				c-0.4-0.2-0.7-0.5-0.9-0.8L17.1,14.3z"/>
			<path fill="#262D33" d="M24.1,15.4c-0.3-0.2-0.6-0.6-0.8-1s-0.4-0.8-0.5-1.3c-0.1-0.5-0.2-1-0.2-1.5s0.1-1,0.2-1.5
				c0.1-0.5,0.3-0.9,0.5-1.3s0.5-0.7,0.8-1c0.3-0.2,0.8-0.4,1.2-0.4c0.5,0,0.9,0.1,1.2,0.4c0.3,0.2,0.6,0.6,0.8,1
				c0.2,0.4,0.4,0.8,0.5,1.3c0.1,0.5,0.2,1,0.2,1.5s-0.1,1-0.2,1.5c-0.1,0.5-0.3,0.9-0.5,1.3c-0.2,0.4-0.5,0.7-0.8,1
				c-0.3,0.2-0.8,0.4-1.2,0.4C24.8,15.7,24.4,15.6,24.1,15.4z M23.8,14c0.2,0.3,0.4,0.6,0.6,0.9s0.6,0.3,0.9,0.3
				c0.4,0,0.7-0.1,0.9-0.3c0.3-0.2,0.5-0.5,0.6-0.9c0.2-0.3,0.3-0.7,0.4-1.2c0.1-0.4,0.1-0.8,0.1-1.2c0-0.4,0-0.8-0.1-1.3
				c-0.1-0.4-0.2-0.8-0.4-1.1c-0.2-0.3-0.4-0.6-0.6-0.8C26,8.1,25.7,8,25.3,8c-0.4,0-0.7,0.1-0.9,0.3c-0.3,0.2-0.5,0.5-0.6,0.8
				c-0.2,0.3-0.3,0.7-0.4,1.1c-0.1,0.4-0.1,0.8-0.1,1.3c0,0.4,0,0.8,0.1,1.2C23.5,13.2,23.6,13.6,23.8,14z"/>
			<path fill="#262D33" d="M30.3,15.4c-0.3-0.2-0.6-0.6-0.8-1c-0.2-0.4-0.4-0.8-0.5-1.3c-0.1-0.5-0.2-1-0.2-1.5s0.1-1,0.2-1.5
				s0.3-0.9,0.5-1.3c0.2-0.4,0.5-0.7,0.8-1c0.3-0.2,0.8-0.4,1.2-0.4c0.5,0,0.9,0.1,1.2,0.4c0.3,0.2,0.6,0.6,0.8,1
				c0.2,0.4,0.4,0.8,0.5,1.3c0.1,0.5,0.2,1,0.2,1.5s-0.1,1-0.2,1.5c-0.1,0.5-0.3,0.9-0.5,1.3c-0.2,0.4-0.5,0.7-0.8,1
				c-0.3,0.2-0.8,0.4-1.2,0.4C31.1,15.7,30.7,15.6,30.3,15.4z M30,14c0.2,0.3,0.4,0.6,0.6,0.9c0.3,0.2,0.6,0.3,0.9,0.3
				c0.4,0,0.7-0.1,0.9-0.3s0.5-0.5,0.6-0.9c0.2-0.3,0.3-0.7,0.4-1.2c0.1-0.4,0.1-0.8,0.1-1.2c0-0.4,0-0.8-0.1-1.3
				c-0.1-0.4-0.2-0.8-0.4-1.1c-0.2-0.3-0.4-0.6-0.6-0.8C32.2,8.1,31.9,8,31.6,8c-0.4,0-0.7,0.1-0.9,0.3c-0.3,0.2-0.5,0.5-0.6,0.8
				c-0.2,0.3-0.3,0.7-0.4,1.1c-0.1,0.4-0.1,0.8-0.1,1.3c0,0.4,0,0.8,0.1,1.2C29.7,13.2,29.8,13.6,30,14z"/>
		</g>
		<g>
			<g>
				<path fill="#262D33" d="M4.8,292.2v-3.1H4v-0.6h0.8v-2c0-0.8,0.2-1.4,0.6-1.8c0.4-0.4,0.9-0.6,1.6-0.6c0.3,0,0.5,0,0.7,0.1
					s0.4,0.2,0.5,0.3s0.3,0.2,0.4,0.4s0.2,0.3,0.3,0.5l-0.6,0.3c-0.1-0.2-0.3-0.5-0.5-0.7c-0.2-0.2-0.5-0.3-0.9-0.3
					c-0.5,0-0.9,0.2-1.1,0.5c-0.2,0.3-0.4,0.8-0.4,1.4v2h2.7v0.6H5.5v2.5H9v0.6H4.8z"/>
				<path fill="#262D33" d="M13.1,292.2v-7.2l-1.9,1.3l-0.4-0.5l2.2-1.5h0.7v8H13.1z"/>
				<path fill="#262D33" d="M16.7,291.8c0.4-0.1,0.8-0.2,1.1-0.4c0.4-0.2,0.7-0.4,1-0.7c0.3-0.3,0.6-0.6,0.8-0.9
					c0.2-0.3,0.4-0.7,0.5-1.1c-0.2,0.2-0.5,0.3-0.8,0.4c-0.3,0.1-0.6,0.2-1,0.2c-0.4,0-0.7-0.1-1-0.2c-0.3-0.1-0.5-0.3-0.7-0.5
					c-0.2-0.2-0.4-0.5-0.5-0.8c-0.1-0.3-0.2-0.7-0.2-1c0-0.4,0.1-0.7,0.2-1c0.1-0.3,0.3-0.6,0.5-0.8s0.5-0.4,0.8-0.5s0.6-0.2,1-0.2
					c0.4,0,0.8,0.1,1.1,0.2s0.6,0.4,0.8,0.7c0.2,0.3,0.4,0.6,0.5,1c0.1,0.4,0.2,0.8,0.2,1.2c0,0.7-0.1,1.3-0.3,1.8
					c-0.2,0.6-0.5,1.1-0.8,1.5c-0.4,0.4-0.8,0.8-1.3,1.1c-0.5,0.3-1,0.5-1.6,0.6L16.7,291.8z M19.4,288.4c0.3-0.1,0.6-0.3,0.8-0.5
					c0-0.1,0-0.3,0-0.4c0-0.1,0-0.3,0-0.4c0-0.3,0-0.6-0.1-0.9c-0.1-0.3-0.2-0.6-0.3-0.8c-0.2-0.2-0.3-0.4-0.6-0.6
					c-0.2-0.1-0.5-0.2-0.9-0.2c-0.3,0-0.5,0.1-0.8,0.2c-0.2,0.1-0.4,0.3-0.6,0.4c-0.2,0.2-0.3,0.4-0.3,0.6c-0.1,0.2-0.1,0.5-0.1,0.7
					c0,0.3,0,0.6,0.1,0.8c0.1,0.3,0.2,0.5,0.4,0.7c0.2,0.2,0.4,0.3,0.6,0.4c0.2,0.1,0.5,0.2,0.8,0.2
					C18.8,288.6,19.1,288.6,19.4,288.4z"/>
				<path fill="#262D33" d="M22.9,291.8c0.4-0.1,0.8-0.2,1.1-0.4c0.4-0.2,0.7-0.4,1-0.7s0.6-0.6,0.8-0.9c0.2-0.3,0.4-0.7,0.5-1.1
					c-0.2,0.2-0.5,0.3-0.8,0.4c-0.3,0.1-0.6,0.2-1,0.2c-0.4,0-0.7-0.1-1-0.2c-0.3-0.1-0.5-0.3-0.7-0.5s-0.4-0.5-0.5-0.8
					c-0.1-0.3-0.2-0.7-0.2-1c0-0.4,0.1-0.7,0.2-1c0.1-0.3,0.3-0.6,0.5-0.8c0.2-0.2,0.5-0.4,0.8-0.5s0.6-0.2,1-0.2
					c0.4,0,0.8,0.1,1.1,0.2c0.3,0.2,0.6,0.4,0.8,0.7c0.2,0.3,0.4,0.6,0.5,1c0.1,0.4,0.2,0.8,0.2,1.2c0,0.7-0.1,1.3-0.3,1.8
					s-0.5,1.1-0.8,1.5c-0.4,0.4-0.8,0.8-1.3,1.1s-1,0.5-1.6,0.6L22.9,291.8z M25.7,288.4c0.3-0.1,0.6-0.3,0.8-0.5c0-0.1,0-0.3,0-0.4
					s0-0.3,0-0.4c0-0.3,0-0.6-0.1-0.9c-0.1-0.3-0.2-0.6-0.3-0.8c-0.2-0.2-0.4-0.4-0.6-0.6c-0.2-0.1-0.5-0.2-0.9-0.2
					c-0.3,0-0.5,0.1-0.8,0.2c-0.2,0.1-0.4,0.3-0.6,0.4c-0.2,0.2-0.3,0.4-0.3,0.6c-0.1,0.2-0.1,0.5-0.1,0.7c0,0.3,0,0.6,0.1,0.8
					c0.1,0.3,0.2,0.5,0.4,0.7c0.2,0.2,0.4,0.3,0.6,0.4s0.5,0.2,0.8,0.2C25,288.6,25.4,288.6,25.7,288.4z"/>
			</g>
		</g>
		<g>
			<path fill="#262D33" d="M223.3,292.2l3.3-8.1h1.1l3.4,8.1h-1.8l-0.7-1.6h-3.1l-0.7,1.6H223.3z M226.1,289.2h2.1l-1-2.6
				L226.1,289.2z"/>
			<path fill="#262D33" d="M231.9,292.2v-5.8h1.4l0.1,0.5c0.2-0.2,0.5-0.3,0.8-0.4s0.6-0.2,0.9-0.2c0.3,0,0.6,0,0.9,0.1
				c0.3,0.1,0.5,0.2,0.7,0.4s0.3,0.5,0.5,0.8c0.1,0.3,0.2,0.7,0.2,1.2v3.4h-1.6v-3.3c0-0.4-0.1-0.8-0.3-1c-0.2-0.2-0.5-0.4-0.8-0.4
				c-0.2,0-0.5,0.1-0.7,0.2c-0.2,0.1-0.4,0.3-0.5,0.4v4.1H231.9z"/>
			<path fill="#262D33" d="M239,292.2v-5.8h1.4l0.1,0.5c0.2-0.2,0.5-0.3,0.8-0.4s0.6-0.2,0.9-0.2c0.3,0,0.6,0,0.9,0.1
				c0.3,0.1,0.5,0.2,0.7,0.4s0.3,0.5,0.5,0.8c0.1,0.3,0.2,0.7,0.2,1.2v3.4h-1.6v-3.3c0-0.4-0.1-0.8-0.3-1c-0.2-0.2-0.5-0.4-0.8-0.4
				c-0.2,0-0.5,0.1-0.7,0.2c-0.2,0.1-0.4,0.3-0.5,0.4v4.1H239z"/>
			<path fill="#262D33" d="M250,292.2l-0.1-0.5c-0.3,0.2-0.6,0.4-0.9,0.5c-0.3,0.1-0.6,0.1-0.9,0.1c-0.7,0-1.3-0.2-1.6-0.6
				c-0.4-0.4-0.6-1-0.6-1.9v-3.5h1.6v3.3c0,0.4,0.1,0.7,0.2,1c0.2,0.2,0.4,0.4,0.8,0.4c0.3,0,0.6-0.1,0.8-0.2
				c0.2-0.1,0.4-0.2,0.5-0.3v-4.2h1.6v5.8H250z"/>
			<path fill="#262D33" d="M256.2,292.2l-0.1-0.4c-0.2,0.2-0.4,0.3-0.6,0.4s-0.5,0.2-0.9,0.2c-0.3,0-0.5,0-0.8-0.1
				c-0.2-0.1-0.5-0.2-0.6-0.4c-0.2-0.2-0.3-0.4-0.4-0.6c-0.1-0.2-0.2-0.5-0.2-0.8c0-0.3,0.1-0.5,0.2-0.8s0.3-0.4,0.5-0.6
				s0.4-0.3,0.7-0.4s0.5-0.2,0.8-0.2c0.2,0,0.4-0.1,0.7-0.1c0.2,0,0.4,0,0.6-0.1v-0.2c0-0.2-0.1-0.4-0.2-0.6
				c-0.2-0.1-0.3-0.2-0.6-0.2c-0.1,0-0.3,0-0.5,0.1c-0.2,0.1-0.4,0.2-0.6,0.4l-1.1-0.7c0.2-0.2,0.3-0.4,0.5-0.5
				c0.2-0.1,0.4-0.2,0.6-0.3s0.4-0.1,0.6-0.2c0.2,0,0.4,0,0.6,0c0.3,0,0.6,0,0.9,0.1c0.3,0.1,0.5,0.2,0.7,0.4
				c0.2,0.2,0.4,0.4,0.5,0.7c0.1,0.3,0.2,0.6,0.2,1v3.7H256.2z M256.1,289.5c-0.2,0-0.3,0-0.5,0c-0.2,0-0.4,0-0.5,0.1
				c-0.3,0.1-0.6,0.2-0.7,0.3c-0.1,0.2-0.2,0.3-0.2,0.5c0,0.2,0.1,0.3,0.2,0.5c0.1,0.1,0.4,0.2,0.6,0.2c0.2,0,0.4,0,0.6-0.1
				c0.2-0.1,0.4-0.2,0.5-0.3V289.5z"/>
			<path fill="#262D33" d="M259.2,292.2v-8.1h1.6v8.1H259.2z"/>
			<path fill="#262D33" d="M265,292.2v-4.6h-0.8v-1.2h0.8v-0.2c0-0.4,0.1-0.7,0.2-1c0.1-0.3,0.2-0.5,0.4-0.7
				c0.2-0.2,0.4-0.3,0.6-0.4s0.5-0.1,0.8-0.1c0.4,0,0.7,0,1,0.1c0.3,0.1,0.5,0.1,0.8,0.3l-0.5,1.2c-0.3-0.2-0.7-0.2-1.1-0.2
				c-0.2,0-0.4,0.1-0.5,0.2c-0.1,0.1-0.2,0.4-0.2,0.7v0.2h1.3v1.2h-1.3v4.6H265z"/>
			<path fill="#262D33" d="M269.8,289.6c0,0.5,0.2,0.8,0.5,1.1s0.6,0.3,0.9,0.3c0.3,0,0.5-0.1,0.8-0.2c0.2-0.1,0.5-0.3,0.7-0.7
				l1.2,0.7c-0.3,0.5-0.7,0.9-1.1,1.1c-0.4,0.2-0.9,0.3-1.5,0.3c-0.4,0-0.8-0.1-1.1-0.2c-0.3-0.1-0.7-0.3-0.9-0.6
				c-0.3-0.3-0.5-0.6-0.6-0.9c-0.2-0.4-0.2-0.8-0.2-1.4c0-0.5,0.1-0.9,0.2-1.3s0.4-0.7,0.6-1s0.6-0.5,0.9-0.6
				c0.3-0.1,0.7-0.2,1.1-0.2c0.8,0,1.5,0.3,2,0.9c0.5,0.6,0.8,1.4,0.8,2.6H269.8z M272.2,288.6c0-0.4-0.2-0.7-0.4-0.9
				c-0.2-0.2-0.5-0.3-0.7-0.3c-0.1,0-0.3,0-0.4,0.1c-0.1,0.1-0.3,0.1-0.4,0.2c-0.1,0.1-0.2,0.2-0.3,0.4c-0.1,0.1-0.1,0.3-0.2,0.5
				H272.2z"/>
			<path fill="#262D33" d="M276.2,289.6c0,0.5,0.2,0.8,0.5,1.1s0.6,0.3,0.9,0.3c0.3,0,0.5-0.1,0.8-0.2c0.2-0.1,0.5-0.3,0.7-0.7
				l1.2,0.7c-0.3,0.5-0.7,0.9-1.1,1.1c-0.4,0.2-0.9,0.3-1.5,0.3c-0.4,0-0.8-0.1-1.1-0.2c-0.3-0.1-0.7-0.3-0.9-0.6
				c-0.3-0.3-0.5-0.6-0.6-0.9c-0.2-0.4-0.2-0.8-0.2-1.4c0-0.5,0.1-0.9,0.2-1.3s0.4-0.7,0.6-1s0.6-0.5,0.9-0.6
				c0.3-0.1,0.7-0.2,1.1-0.2c0.8,0,1.5,0.3,2,0.9c0.5,0.6,0.8,1.4,0.8,2.6H276.2z M278.6,288.6c0-0.4-0.2-0.7-0.4-0.9
				c-0.2-0.2-0.5-0.3-0.7-0.3c-0.1,0-0.3,0-0.4,0.1c-0.1,0.1-0.3,0.1-0.4,0.2c-0.1,0.1-0.2,0.2-0.3,0.4c-0.1,0.1-0.1,0.3-0.2,0.5
				H278.6z"/>
			<path fill="#262D33" d="M285,292.2l-2.1-5.8h1.6l1.1,3.5l1.1-3.5h1l1.2,3.5l1.1-3.5h1.6l-2.1,5.8h-1.1l-1.1-3.4l-1.1,3.4H285z"/>
			<path fill="#262D33" d="M293.2,285.7c-0.3,0-0.6-0.1-0.7-0.3c-0.2-0.2-0.2-0.4-0.2-0.6c0-0.2,0.1-0.4,0.2-0.6
				c0.2-0.2,0.4-0.3,0.7-0.3s0.5,0.1,0.7,0.3c0.2,0.2,0.2,0.4,0.2,0.6c0,0.2-0.1,0.4-0.2,0.6C293.7,285.6,293.5,285.7,293.2,285.7z
				 M292.4,292.2v-5.8h1.6v5.8H292.4z"/>
			<path fill="#262D33" d="M297.3,290.5c0,0.2,0,0.3,0.1,0.4c0.1,0.1,0.2,0.1,0.2,0.1c0.2,0,0.3,0,0.5-0.1c0.2-0.1,0.3-0.2,0.4-0.3
				l0.6,1.1c-0.3,0.2-0.5,0.3-0.8,0.4c-0.3,0.1-0.6,0.2-0.9,0.2c-0.2,0-0.4,0-0.6-0.1c-0.2-0.1-0.4-0.1-0.5-0.3
				c-0.1-0.1-0.3-0.3-0.4-0.5c-0.1-0.2-0.1-0.4-0.1-0.7v-3.2h-0.9v-1.2h0.9v-1.5h1.6v1.5h1.4v1.2h-1.4V290.5z"/>
			<path fill="#262D33" d="M300,292.2v-8.1h1.6v2.6c0.2-0.1,0.4-0.3,0.7-0.4c0.3-0.1,0.6-0.2,1-0.2c0.4,0,0.7,0.1,1,0.2
				s0.5,0.3,0.7,0.5c0.2,0.2,0.3,0.5,0.4,0.8c0.1,0.3,0.1,0.7,0.1,1v3.5h-1.6v-3.3c0-0.5-0.1-0.8-0.3-1c-0.2-0.2-0.4-0.3-0.7-0.3
				s-0.5,0.1-0.7,0.2c-0.2,0.1-0.4,0.3-0.6,0.4v4.1H300z"/>
			<path fill="#262D33" d="M309.4,292.2v-5.8h1.4l0.1,0.5c0.2-0.2,0.5-0.3,0.8-0.4s0.6-0.2,0.9-0.2c0.3,0,0.6,0,0.9,0.1
				c0.3,0.1,0.5,0.2,0.7,0.4s0.3,0.5,0.5,0.8c0.1,0.3,0.2,0.7,0.2,1.2v3.4h-1.6v-3.3c0-0.4-0.1-0.8-0.3-1c-0.2-0.2-0.5-0.4-0.8-0.4
				c-0.2,0-0.5,0.1-0.7,0.2c-0.2,0.1-0.4,0.3-0.5,0.4v4.1H309.4z"/>
			<path fill="#262D33" d="M317.7,292c-0.4-0.2-0.7-0.4-0.9-0.7c-0.2-0.3-0.4-0.6-0.5-1c-0.1-0.4-0.2-0.7-0.2-1.1
				c0-0.4,0.1-0.7,0.2-1.1s0.3-0.7,0.5-1c0.2-0.3,0.6-0.5,0.9-0.7c0.4-0.2,0.8-0.3,1.3-0.3c0.5,0,0.9,0.1,1.3,0.3
				c0.4,0.2,0.7,0.4,0.9,0.7c0.2,0.3,0.4,0.6,0.5,1s0.2,0.7,0.2,1.1c0,0.4-0.1,0.8-0.2,1.1c-0.1,0.4-0.3,0.7-0.5,1
				c-0.2,0.3-0.6,0.5-0.9,0.7c-0.4,0.2-0.8,0.3-1.3,0.3C318.5,292.3,318,292.2,317.7,292z M317.9,290.5c0.1,0.2,0.3,0.3,0.4,0.4
				c0.2,0.1,0.4,0.1,0.6,0.1c0.2,0,0.4,0,0.6-0.1c0.2-0.1,0.3-0.2,0.4-0.4s0.2-0.3,0.3-0.6c0.1-0.2,0.1-0.4,0.1-0.7
				c0-0.2,0-0.5-0.1-0.7s-0.1-0.4-0.3-0.6s-0.3-0.3-0.4-0.4c-0.2-0.1-0.4-0.1-0.6-0.1c-0.2,0-0.4,0-0.6,0.1
				c-0.2,0.1-0.3,0.2-0.4,0.4c-0.1,0.2-0.2,0.3-0.3,0.6s-0.1,0.4-0.1,0.7c0,0.2,0,0.5,0.1,0.7C317.7,290.2,317.8,290.3,317.9,290.5z
				"/>
			<path fill="#262D33" d="M330.5,290.8c-0.2,0.5-0.6,0.9-1,1.2c-0.4,0.2-0.9,0.4-1.5,0.4c-0.4,0-0.7-0.1-1.1-0.2s-0.6-0.3-0.9-0.6
				c-0.3-0.3-0.5-0.6-0.6-0.9c-0.2-0.4-0.2-0.8-0.2-1.3c0-0.5,0.1-1,0.2-1.4c0.2-0.4,0.4-0.7,0.6-1c0.3-0.3,0.5-0.4,0.9-0.6
				s0.7-0.2,1-0.2c0.4,0,0.7,0.1,0.9,0.2s0.5,0.2,0.7,0.4s0.4,0.3,0.5,0.5s0.2,0.4,0.3,0.6l-1.2,0.6c-0.1-0.4-0.3-0.7-0.5-0.8
				s-0.4-0.2-0.7-0.2c-0.2,0-0.3,0-0.5,0.1s-0.3,0.2-0.4,0.3c-0.1,0.1-0.2,0.3-0.3,0.6s-0.1,0.5-0.1,0.8c0,0.6,0.1,1,0.4,1.3
				c0.2,0.3,0.6,0.5,1,0.5c0.3,0,0.6-0.1,0.7-0.2c0.2-0.2,0.4-0.4,0.5-0.7L330.5,290.8z"/>
			<path fill="#262D33" d="M332.6,292c-0.4-0.2-0.7-0.4-0.9-0.7c-0.2-0.3-0.4-0.6-0.6-1c-0.1-0.4-0.2-0.7-0.2-1.1
				c0-0.4,0.1-0.7,0.2-1.1c0.1-0.4,0.3-0.7,0.6-1c0.2-0.3,0.6-0.5,0.9-0.7c0.4-0.2,0.8-0.3,1.3-0.3c0.5,0,0.9,0.1,1.3,0.3
				c0.4,0.2,0.7,0.4,0.9,0.7c0.2,0.3,0.4,0.6,0.6,1s0.2,0.7,0.2,1.1c0,0.4-0.1,0.8-0.2,1.1c-0.1,0.4-0.3,0.7-0.6,1
				c-0.2,0.3-0.6,0.5-0.9,0.7c-0.4,0.2-0.8,0.3-1.3,0.3C333.4,292.3,333,292.2,332.6,292z M332.9,290.5c0.1,0.2,0.3,0.3,0.4,0.4
				c0.2,0.1,0.4,0.1,0.6,0.1c0.2,0,0.4,0,0.6-0.1c0.2-0.1,0.3-0.2,0.4-0.4c0.1-0.2,0.2-0.3,0.3-0.6c0.1-0.2,0.1-0.4,0.1-0.7
				c0-0.2,0-0.5-0.1-0.7c-0.1-0.2-0.2-0.4-0.3-0.6c-0.1-0.2-0.3-0.3-0.4-0.4c-0.2-0.1-0.4-0.1-0.6-0.1c-0.2,0-0.4,0-0.6,0.1
				c-0.2,0.1-0.3,0.2-0.4,0.4s-0.2,0.3-0.3,0.6s-0.1,0.4-0.1,0.7c0,0.2,0,0.5,0.1,0.7C332.7,290.2,332.7,290.3,332.9,290.5z"/>
			<path fill="#262D33" d="M338,292.2v-5.8h1.4l0.1,0.4c0.2-0.2,0.4-0.3,0.7-0.4c0.3-0.1,0.6-0.2,0.8-0.2c0.3,0,0.6,0,0.9,0.1
				c0.3,0.1,0.6,0.2,0.8,0.4c0.3-0.2,0.6-0.3,0.9-0.4c0.3-0.1,0.7-0.2,1.1-0.2c0.5,0,0.8,0.1,1.1,0.2c0.3,0.1,0.6,0.3,0.7,0.5
				c0.2,0.2,0.3,0.5,0.4,0.8s0.1,0.7,0.1,1.1v3.5h-1.6v-3.4c0-0.4-0.1-0.7-0.2-0.9s-0.4-0.4-0.8-0.4c-0.1,0-0.2,0-0.4,0.1
				c-0.1,0-0.2,0.1-0.3,0.1c-0.1,0-0.2,0.1-0.3,0.2c-0.1,0.1-0.2,0.1-0.2,0.1c0,0.1,0,0.2,0,0.3c0,0.1,0,0.3,0,0.4v3.5h-1.6v-3.4
				c0-0.2,0-0.3,0-0.5s-0.1-0.3-0.2-0.4c-0.1-0.1-0.2-0.2-0.3-0.3s-0.3-0.1-0.5-0.1c-0.2,0-0.5,0.1-0.7,0.2
				c-0.2,0.1-0.4,0.2-0.5,0.4v4.1H338z"/>
			<path fill="#262D33" d="M348.7,292.2v-5.8h1.4l0.1,0.4c0.2-0.2,0.4-0.3,0.7-0.4c0.3-0.1,0.6-0.2,0.8-0.2c0.3,0,0.6,0,0.9,0.1
				c0.3,0.1,0.6,0.2,0.8,0.4c0.3-0.2,0.6-0.3,0.9-0.4c0.3-0.1,0.7-0.2,1.1-0.2c0.5,0,0.8,0.1,1.1,0.2c0.3,0.1,0.6,0.3,0.7,0.5
				c0.2,0.2,0.3,0.5,0.4,0.8s0.1,0.7,0.1,1.1v3.5h-1.6v-3.4c0-0.4-0.1-0.7-0.2-0.9s-0.4-0.4-0.8-0.4c-0.1,0-0.2,0-0.4,0.1
				c-0.1,0-0.2,0.1-0.3,0.1c-0.1,0-0.2,0.1-0.3,0.2c-0.1,0.1-0.2,0.1-0.2,0.1c0,0.1,0,0.2,0,0.3c0,0.1,0,0.3,0,0.4v3.5h-1.6v-3.4
				c0-0.2,0-0.3,0-0.5s-0.1-0.3-0.2-0.4c-0.1-0.1-0.2-0.2-0.3-0.3s-0.3-0.1-0.5-0.1c-0.2,0-0.5,0.1-0.7,0.2
				c-0.2,0.1-0.4,0.2-0.5,0.4v4.1H348.7z"/>
			<path fill="#262D33" d="M360.1,285.7c-0.3,0-0.6-0.1-0.7-0.3c-0.2-0.2-0.2-0.4-0.2-0.6c0-0.2,0.1-0.4,0.2-0.6
				c0.2-0.2,0.4-0.3,0.7-0.3s0.5,0.1,0.7,0.3c0.2,0.2,0.2,0.4,0.2,0.6c0,0.2-0.1,0.4-0.2,0.6C360.7,285.6,360.4,285.7,360.1,285.7z
				 M359.3,292.2v-5.8h1.6v5.8H359.3z"/>
			<path fill="#262D33" d="M363.2,290.2c0.1,0.3,0.3,0.5,0.6,0.6c0.2,0.2,0.6,0.3,0.9,0.3c0.3,0,0.6-0.1,0.8-0.2s0.3-0.2,0.3-0.4
				c0-0.2-0.1-0.3-0.3-0.4s-0.6-0.2-1.1-0.3c-0.3-0.1-0.6-0.1-0.8-0.2c-0.3-0.1-0.5-0.2-0.6-0.4c-0.2-0.1-0.3-0.3-0.4-0.5
				c-0.1-0.2-0.1-0.4-0.1-0.7c0-0.5,0.2-0.9,0.6-1.3c0.4-0.3,1-0.5,1.7-0.5c0.7,0,1.2,0.1,1.6,0.3c0.4,0.2,0.7,0.5,0.9,0.8l-1.1,0.8
				c-0.1-0.2-0.3-0.4-0.6-0.5c-0.2-0.1-0.5-0.2-0.8-0.2c-0.3,0-0.6,0-0.7,0.2s-0.2,0.2-0.2,0.4c0,0.2,0.1,0.3,0.2,0.4
				c0.2,0.1,0.5,0.2,0.9,0.3c0.4,0.1,0.7,0.2,0.9,0.3s0.5,0.2,0.7,0.4c0.2,0.1,0.3,0.3,0.4,0.5c0.1,0.2,0.2,0.5,0.2,0.7
				c0,0.3-0.1,0.6-0.2,0.8s-0.3,0.4-0.5,0.6c-0.2,0.1-0.5,0.3-0.8,0.3c-0.3,0.1-0.6,0.1-1,0.1c-0.7,0-1.3-0.1-1.7-0.4
				c-0.4-0.3-0.8-0.6-1-1L363.2,290.2z"/>
			<path fill="#262D33" d="M369.1,290.2c0.1,0.3,0.3,0.5,0.6,0.6s0.6,0.3,0.9,0.3c0.3,0,0.6-0.1,0.8-0.2c0.2-0.1,0.3-0.2,0.3-0.4
				c0-0.2-0.1-0.3-0.3-0.4s-0.6-0.2-1.1-0.3c-0.3-0.1-0.6-0.1-0.8-0.2c-0.3-0.1-0.5-0.2-0.6-0.4c-0.2-0.1-0.3-0.3-0.4-0.5
				c-0.1-0.2-0.1-0.4-0.1-0.7c0-0.5,0.2-0.9,0.6-1.3c0.4-0.3,1-0.5,1.7-0.5c0.7,0,1.2,0.1,1.6,0.3c0.4,0.2,0.7,0.5,0.9,0.8l-1.1,0.8
				c-0.1-0.2-0.3-0.4-0.6-0.5c-0.2-0.1-0.5-0.2-0.8-0.2c-0.3,0-0.6,0-0.7,0.2s-0.2,0.2-0.2,0.4c0,0.2,0.1,0.3,0.2,0.4
				c0.2,0.1,0.5,0.2,0.9,0.3c0.4,0.1,0.7,0.2,0.9,0.3c0.3,0.1,0.5,0.2,0.7,0.4c0.2,0.1,0.3,0.3,0.4,0.5c0.1,0.2,0.2,0.5,0.2,0.7
				c0,0.3-0.1,0.6-0.2,0.8s-0.3,0.4-0.5,0.6c-0.2,0.1-0.5,0.3-0.8,0.3s-0.6,0.1-1,0.1c-0.7,0-1.3-0.1-1.7-0.4c-0.4-0.3-0.8-0.6-1-1
				L369.1,290.2z"/>
			<path fill="#262D33" d="M375,285.7c-0.3,0-0.5-0.1-0.7-0.3c-0.2-0.2-0.2-0.4-0.2-0.6c0-0.2,0.1-0.4,0.2-0.6
				c0.2-0.2,0.4-0.3,0.7-0.3s0.6,0.1,0.7,0.3c0.2,0.2,0.2,0.4,0.2,0.6c0,0.2-0.1,0.4-0.2,0.6C375.5,285.6,375.3,285.7,375,285.7z
				 M374.2,292.2v-5.8h1.6v5.8H374.2z"/>
			<path fill="#262D33" d="M378.6,292c-0.4-0.2-0.7-0.4-0.9-0.7c-0.2-0.3-0.4-0.6-0.6-1c-0.1-0.4-0.2-0.7-0.2-1.1
				c0-0.4,0.1-0.7,0.2-1.1c0.1-0.4,0.3-0.7,0.6-1c0.2-0.3,0.6-0.5,0.9-0.7c0.4-0.2,0.8-0.3,1.3-0.3c0.5,0,0.9,0.1,1.3,0.3
				c0.4,0.2,0.7,0.4,0.9,0.7c0.2,0.3,0.4,0.6,0.6,1s0.2,0.7,0.2,1.1c0,0.4-0.1,0.8-0.2,1.1c-0.1,0.4-0.3,0.7-0.6,1
				c-0.2,0.3-0.6,0.5-0.9,0.7c-0.4,0.2-0.8,0.3-1.3,0.3C379.4,292.3,379,292.2,378.6,292z M378.9,290.5c0.1,0.2,0.3,0.3,0.4,0.4
				c0.2,0.1,0.4,0.1,0.6,0.1c0.2,0,0.4,0,0.6-0.1c0.2-0.1,0.3-0.2,0.4-0.4c0.1-0.2,0.2-0.3,0.3-0.6c0.1-0.2,0.1-0.4,0.1-0.7
				c0-0.2,0-0.5-0.1-0.7c-0.1-0.2-0.2-0.4-0.3-0.6c-0.1-0.2-0.3-0.3-0.4-0.4c-0.2-0.1-0.4-0.1-0.6-0.1c-0.2,0-0.4,0-0.6,0.1
				c-0.2,0.1-0.3,0.2-0.4,0.4s-0.2,0.3-0.3,0.6s-0.1,0.4-0.1,0.7c0,0.2,0,0.5,0.1,0.7C378.7,290.2,378.7,290.3,378.9,290.5z"/>
			<path fill="#262D33" d="M384,292.2v-5.8h1.4l0.1,0.5c0.2-0.2,0.5-0.3,0.8-0.4s0.6-0.2,0.9-0.2c0.3,0,0.6,0,0.9,0.1
				c0.3,0.1,0.5,0.2,0.7,0.4s0.3,0.5,0.5,0.8c0.1,0.3,0.2,0.7,0.2,1.2v3.4h-1.6v-3.3c0-0.4-0.1-0.8-0.3-1c-0.2-0.2-0.5-0.4-0.8-0.4
				c-0.2,0-0.5,0.1-0.7,0.2c-0.2,0.1-0.4,0.3-0.5,0.4v4.1H384z"/>
		</g>
		<g>
			
				<line fill="none" stroke="#262D33" stroke-width="0.5" stroke-linecap="round" stroke-miterlimit="10" x1="44.4" y1="326" x2="44.4" y2="323.2"/>
			
				<line fill="none" stroke="#262D33" stroke-width="0.5" stroke-linecap="round" stroke-miterlimit="10" x1="82.5" y1="326" x2="82.5" y2="323.2"/>
			
				<line fill="none" stroke="#262D33" stroke-width="0.5" stroke-linecap="round" stroke-miterlimit="10" x1="120.5" y1="326" x2="120.5" y2="323.2"/>
			
				<line fill="none" stroke="#262D33" stroke-width="0.5" stroke-linecap="round" stroke-miterlimit="10" x1="159.3" y1="326" x2="159.3" y2="323.2"/>
			
				<line fill="none" stroke="#262D33" stroke-width="0.5" stroke-linecap="round" stroke-miterlimit="10" x1="197.9" y1="326" x2="197.9" y2="323.2"/>
			
				<line fill="none" stroke="#262D33" stroke-width="0.5" stroke-linecap="round" stroke-miterlimit="10" x1="235.8" y1="326" x2="235.8" y2="323.2"/>
			
				<line fill="none" stroke="#262D33" stroke-width="0.5" stroke-linecap="round" stroke-miterlimit="10" x1="274.6" y1="326" x2="274.6" y2="323.2"/>
			
				<line fill="none" stroke="#262D33" stroke-width="0.5" stroke-linecap="round" stroke-miterlimit="10" x1="313" y1="326" x2="313" y2="323.2"/>
			
				<line fill="none" stroke="#262D33" stroke-width="0.5" stroke-linecap="round" stroke-miterlimit="10" x1="351.3" y1="326" x2="351.3" y2="323.2"/>
			<path fill="none" stroke="#A4A9AD" stroke-width="0.5" stroke-linecap="round" stroke-miterlimit="10" d="M390.3,326.2"/>
			
				<line fill="none" stroke="#262D33" stroke-width="0.5" stroke-linecap="round" stroke-miterlimit="10" x1="390.3" y1="326" x2="390.3" y2="323.2"/>
		</g>
		
			<line fill="none" stroke="#262D33" stroke-linecap="round" stroke-miterlimit="10" stroke-dasharray="0,7" x1="5.6" y1="262.1" x2="390.3" y2="262.1"/>
		
			<line fill="none" stroke="#FFF100" stroke-width="3" stroke-linecap="round" stroke-miterlimit="10" x1="5.6" y1="298.6" x2="390.3" y2="298.6"/>
		
			<line fill="none" stroke="#262D33" stroke-linecap="round" stroke-miterlimit="10" stroke-dasharray="0,7" x1="5.6" y1="201.2" x2="390.3" y2="201.2"/>
		
			<line fill="none" stroke="#262D33" stroke-linecap="round" stroke-miterlimit="10" stroke-dasharray="0,7" x1="5.6" y1="140.3" x2="390.3" y2="140.3"/>
		
			<line fill="none" stroke="#262D33" stroke-linecap="round" stroke-miterlimit="10" stroke-dasharray="0,7" x1="5.6" y1="79.4" x2="390.3" y2="79.4"/>
		
			<line fill="none" stroke="#262D33" stroke-linecap="round" stroke-miterlimit="10" stroke-dasharray="0,7" x1="5.6" y1="18.5" x2="390.3" y2="18.5"/>
		<g>
			<g>
				<path fill="#262D33" d="M305.4,76.8l-0.3-0.3c0-0.6,0.1-1.3,0.1-1.9c0-0.6,0-1.2,0-1.8c0-0.3,0-0.6,0-0.9c0-0.3,0-0.6-0.1-0.8
					c0-0.3-0.1-0.5-0.2-0.7s-0.2-0.4-0.3-0.6c-0.3-0.4-0.7-0.6-1.1-0.7s-0.8,0.1-1.1,0.4c-0.3,0.3-0.6,0.6-0.7,1
					c-0.1,0.4-0.1,0.8-0.1,1.2l-0.6,0.1c-0.1-0.5-0.1-1,0.1-1.5c0.1-0.5,0.5-0.9,0.9-1.2c0.3-0.2,0.5-0.4,0.8-0.5
					c0.3-0.1,0.6-0.1,0.8-0.1s0.5,0.1,0.7,0.2c0.2,0.1,0.4,0.3,0.6,0.5c0.2,0.2,0.3,0.5,0.4,0.8c0.1,0.3,0.2,0.5,0.2,0.8
					c0,0.3,0.1,0.6,0.1,0.9c0,0.3,0,0.6,0,0.9c0,0.2,0,0.5,0,0.8s0,0.6,0,0.9c0,0.3,0,0.6,0,0.8c0,0.3,0,0.5,0,0.6l2.9-2.3l0.4,0.5
					L305.4,76.8z"/>
				<path fill="#262D33" d="M311,72.1c-0.4,0-0.8-0.1-1.3-0.2c-0.4-0.2-0.8-0.4-1.2-0.7c-0.4-0.3-0.7-0.7-1-1.1
					c-0.3-0.4-0.6-0.8-0.8-1.3s-0.4-0.9-0.4-1.3s0-0.9,0.1-1.3c0.1-0.4,0.4-0.8,0.7-1c0.4-0.3,0.8-0.5,1.2-0.5
					c0.4,0,0.8,0.1,1.2,0.2c0.4,0.2,0.8,0.4,1.2,0.7c0.4,0.3,0.7,0.7,1,1.1c0.3,0.4,0.6,0.8,0.8,1.3c0.2,0.5,0.4,0.9,0.4,1.3
					c0.1,0.4,0.1,0.9-0.1,1.3c-0.1,0.4-0.4,0.8-0.7,1C311.8,71.9,311.4,72.1,311,72.1z M309.9,71.2c0.3,0.2,0.7,0.3,1,0.3
					c0.3,0,0.7-0.1,0.9-0.3c0.3-0.2,0.5-0.5,0.5-0.8c0.1-0.3,0-0.7,0-1.1c-0.1-0.4-0.2-0.7-0.4-1.1c-0.2-0.4-0.4-0.7-0.7-1
					c-0.3-0.3-0.5-0.6-0.9-0.9c-0.3-0.3-0.7-0.5-1-0.7c-0.3-0.2-0.7-0.3-1-0.3c-0.3,0-0.6,0.1-0.9,0.3c-0.3,0.2-0.5,0.5-0.5,0.8
					c-0.1,0.3-0.1,0.7,0,1c0.1,0.4,0.2,0.7,0.4,1.1c0.2,0.4,0.4,0.7,0.7,1.1c0.2,0.3,0.5,0.6,0.8,0.9
					C309.2,70.8,309.5,71,309.9,71.2z"/>
				<path fill="#262D33" d="M314.6,63.5c-0.2,0-0.4,0.1-0.7,0c-0.2,0-0.4-0.1-0.6-0.2c-0.2-0.1-0.4-0.3-0.5-0.5
					c-0.1-0.2-0.3-0.4-0.3-0.6c-0.1-0.2-0.1-0.4-0.1-0.7c0-0.2,0.1-0.4,0.2-0.6c0.1-0.2,0.2-0.4,0.4-0.5c0.2-0.2,0.4-0.3,0.6-0.3
					c0.2-0.1,0.4-0.1,0.7,0c0.2,0,0.4,0.1,0.6,0.2c0.2,0.1,0.4,0.3,0.5,0.5c0.2,0.2,0.3,0.4,0.3,0.6c0.1,0.2,0.1,0.4,0.1,0.7
					c0,0.2-0.1,0.4-0.2,0.6c-0.1,0.2-0.3,0.4-0.4,0.5C315,63.3,314.8,63.5,314.6,63.5z M314,63c0.2,0,0.3,0,0.5,0
					c0.2,0,0.3-0.1,0.4-0.2c0.1-0.1,0.2-0.2,0.3-0.4c0.1-0.1,0.1-0.3,0.1-0.4c0-0.2,0-0.3-0.1-0.5c0-0.2-0.1-0.3-0.2-0.4
					c-0.1-0.1-0.2-0.2-0.4-0.3s-0.3-0.1-0.4-0.2c-0.2,0-0.3,0-0.5,0c-0.2,0-0.3,0.1-0.4,0.2c-0.1,0.1-0.2,0.2-0.3,0.4
					c-0.1,0.1-0.1,0.3-0.1,0.4c0,0.2,0,0.3,0.1,0.5c0,0.2,0.1,0.3,0.2,0.4c0.1,0.1,0.2,0.2,0.4,0.3C313.7,62.9,313.9,63,314,63z
					 M317.1,67.6l-0.6-0.1l1.1-10.6l0.6,0.1L317.1,67.6z M321.1,64.3c-0.2,0.1-0.4,0.1-0.7,0c-0.2,0-0.4-0.1-0.6-0.2
					s-0.4-0.3-0.5-0.5s-0.3-0.4-0.3-0.6c-0.1-0.2-0.1-0.4-0.1-0.7c0-0.2,0.1-0.4,0.2-0.6c0.1-0.2,0.3-0.4,0.4-0.5
					c0.2-0.1,0.4-0.3,0.6-0.3c0.2-0.1,0.4-0.1,0.7,0c0.2,0,0.4,0.1,0.6,0.2c0.2,0.1,0.4,0.3,0.5,0.5s0.3,0.4,0.3,0.6
					c0.1,0.2,0.1,0.4,0.1,0.7c0,0.2-0.1,0.4-0.2,0.6c-0.1,0.2-0.3,0.4-0.4,0.5C321.5,64.2,321.3,64.3,321.1,64.3z M320.5,63.8
					c0.2,0,0.3,0,0.5,0c0.2,0,0.3-0.1,0.4-0.2c0.1-0.1,0.2-0.2,0.3-0.4c0.1-0.1,0.1-0.3,0.1-0.5c0-0.2,0-0.3-0.1-0.5
					c0-0.2-0.1-0.3-0.2-0.4c-0.1-0.1-0.2-0.2-0.4-0.3c-0.1-0.1-0.3-0.1-0.4-0.2c-0.2,0-0.3,0-0.5,0c-0.2,0-0.3,0.1-0.4,0.2
					c-0.3,0.2-0.4,0.5-0.4,0.8c0,0.3,0.1,0.6,0.3,0.9c0.1,0.1,0.2,0.2,0.4,0.3C320.2,63.7,320.3,63.8,320.5,63.8z"/>
				<path fill="#262D33" d="M329.4,56.1c0,0.3,0.1,0.5,0.1,0.8c0,0.2,0,0.5-0.1,0.7s-0.2,0.5-0.3,0.7s-0.4,0.4-0.6,0.6
					c-0.4,0.3-0.8,0.5-1.3,0.6c-0.4,0.1-0.9,0.1-1.3,0c-0.4-0.1-0.9-0.3-1.3-0.6c-0.4-0.3-0.8-0.7-1.2-1.2c-0.4-0.5-0.7-1.1-0.9-1.6
					c-0.2-0.5-0.3-1-0.3-1.5c0-0.5,0.1-0.9,0.3-1.3c0.2-0.4,0.4-0.7,0.8-1c0.5-0.4,1-0.6,1.6-0.7c0.5,0,1,0.1,1.5,0.3l-0.2,0.6
					c-0.2-0.1-0.4-0.1-0.6-0.2c-0.2-0.1-0.4-0.1-0.6-0.1c-0.2,0-0.4,0-0.6,0.1c-0.2,0.1-0.4,0.2-0.6,0.3c-0.3,0.2-0.5,0.5-0.6,0.8
					c-0.1,0.3-0.2,0.7-0.2,1c0,0.4,0.1,0.8,0.3,1.2c0.2,0.4,0.5,0.9,0.8,1.3c0.3,0.4,0.7,0.7,1,1c0.4,0.3,0.7,0.4,1.1,0.6
					c0.4,0.1,0.7,0.1,1.1,0.1c0.4-0.1,0.7-0.2,1-0.5c0.2-0.2,0.4-0.3,0.5-0.5c0.1-0.2,0.2-0.4,0.3-0.6s0.1-0.4,0.1-0.6
					c0-0.2,0-0.4,0-0.6L329.4,56.1z"/>
				<path fill="#262D33" d="M332,55.7c-0.4,0.1-0.7,0-1.1,0c-0.3-0.1-0.7-0.2-1-0.5c-0.3-0.2-0.6-0.5-0.8-0.8
					c-0.2-0.3-0.4-0.6-0.6-1s-0.2-0.7-0.2-1c0-0.3,0.1-0.7,0.2-1c0.1-0.3,0.4-0.6,0.7-0.9c0.3-0.3,0.7-0.4,1-0.5
					c0.4-0.1,0.7-0.1,1.1,0c0.3,0.1,0.7,0.2,1,0.5c0.3,0.2,0.6,0.5,0.8,0.8c0.2,0.3,0.4,0.6,0.6,1c0.1,0.4,0.2,0.7,0.2,1.1
					s-0.1,0.7-0.2,1c-0.1,0.3-0.4,0.6-0.7,0.9C332.7,55.4,332.3,55.6,332,55.7z M331,55c0.3,0.1,0.5,0.1,0.8,0.1
					c0.3,0,0.5-0.2,0.8-0.4c0.3-0.2,0.4-0.4,0.5-0.7c0.1-0.3,0.1-0.5,0.1-0.8c0-0.3-0.1-0.6-0.2-0.9s-0.3-0.5-0.5-0.8
					c-0.2-0.2-0.4-0.5-0.7-0.6c-0.2-0.2-0.5-0.3-0.8-0.4c-0.3-0.1-0.5-0.1-0.8-0.1c-0.3,0-0.5,0.2-0.8,0.4c-0.3,0.2-0.4,0.4-0.5,0.7
					s-0.1,0.5-0.1,0.8c0,0.3,0.1,0.6,0.2,0.8c0.1,0.3,0.3,0.5,0.5,0.8c0.2,0.2,0.4,0.5,0.7,0.7C330.5,54.8,330.8,55,331,55z"/>
				<path fill="#262D33" d="M336,52.6l-3.6-4.5l0.5-0.4l0.4,0.4c0.1-0.2,0.2-0.5,0.3-0.8s0.4-0.6,0.7-0.8c0.3-0.2,0.6-0.4,0.8-0.4
					s0.5-0.1,0.8,0c0.1-0.3,0.2-0.6,0.3-0.9c0.2-0.3,0.4-0.6,0.8-0.9c0.6-0.4,1.1-0.6,1.6-0.5c0.5,0.1,1,0.4,1.4,1l2.3,2.9l-0.5,0.4
					l-2.3-2.9c-0.3-0.4-0.7-0.7-1.1-0.7c-0.4-0.1-0.8,0.1-1.1,0.4c-0.3,0.2-0.5,0.5-0.6,0.7s-0.2,0.5-0.3,0.8
					c0.1,0.1,0.2,0.2,0.4,0.3c0.1,0.1,0.3,0.3,0.4,0.4l2.3,2.9l-0.5,0.4l-2.3-2.9c-0.1-0.2-0.3-0.3-0.5-0.4
					c-0.2-0.1-0.3-0.2-0.5-0.2c-0.2,0-0.4,0-0.6,0c-0.2,0-0.4,0.2-0.6,0.3c-0.3,0.2-0.5,0.5-0.6,0.8c-0.1,0.3-0.2,0.6-0.3,0.9
					l2.9,3.6L336,52.6z"/>
				<path fill="#262D33" d="M343.6,46.7l-3.6-4.5l0.5-0.4l0.4,0.4c0.1-0.2,0.2-0.5,0.3-0.8c0.1-0.3,0.4-0.6,0.7-0.8
					c0.3-0.2,0.6-0.4,0.8-0.4c0.3-0.1,0.5-0.1,0.8,0c0.1-0.3,0.2-0.6,0.3-0.9c0.2-0.3,0.4-0.6,0.8-0.9c0.6-0.4,1.1-0.6,1.6-0.5
					s1,0.4,1.4,1l2.3,2.9l-0.5,0.4l-2.3-2.9c-0.3-0.4-0.7-0.7-1.1-0.7c-0.4-0.1-0.8,0.1-1.1,0.4c-0.3,0.2-0.5,0.5-0.6,0.7
					s-0.2,0.5-0.3,0.8c0.1,0.1,0.2,0.2,0.4,0.3c0.1,0.1,0.3,0.3,0.4,0.4L347,44l-0.5,0.4l-2.3-2.9c-0.1-0.2-0.3-0.3-0.5-0.4
					c-0.2-0.1-0.3-0.2-0.5-0.2c-0.2,0-0.4,0-0.6,0c-0.2,0-0.4,0.2-0.6,0.3c-0.3,0.2-0.5,0.5-0.6,0.8c-0.1,0.3-0.2,0.6-0.3,0.9
					l2.9,3.6L343.6,46.7z"/>
				<path fill="#262D33" d="M347,35c-0.1,0.1-0.2,0.1-0.3,0.1s-0.2-0.1-0.3-0.2c-0.1-0.1-0.1-0.2-0.1-0.4c0-0.1,0.1-0.2,0.1-0.3
					c0.1-0.1,0.2-0.1,0.3-0.1c0.1,0,0.2,0.1,0.3,0.2c0.1,0.1,0.1,0.3,0.1,0.4C347.2,34.9,347.1,35,347,35z M351.1,40.7l-3.6-4.5
					l0.5-0.4l3.6,4.5L351.1,40.7z"/>
				<path fill="#262D33" d="M352.2,38.3c0.3,0.1,0.5,0.1,0.8,0.1c0.3,0,0.6-0.2,0.8-0.4c0.3-0.3,0.5-0.5,0.6-0.8
					c0.1-0.3,0-0.6-0.2-0.8c-0.2-0.3-0.5-0.4-0.8-0.5s-0.7,0.1-1.3,0.3c-0.6,0.2-1,0.3-1.3,0.2c-0.3,0-0.6-0.2-0.9-0.5
					c-0.3-0.3-0.3-0.7-0.3-1.1c0.1-0.4,0.3-0.8,0.8-1.1c0.4-0.3,0.7-0.4,1-0.5c0.3,0,0.6,0,0.9,0.1l-0.2,0.6
					c-0.2-0.1-0.5-0.1-0.7-0.1c-0.3,0-0.5,0.1-0.7,0.3c-0.3,0.2-0.5,0.5-0.5,0.7c0,0.2,0,0.5,0.2,0.7c0.1,0.1,0.2,0.2,0.3,0.3
					c0.1,0.1,0.2,0.1,0.4,0.1c0.1,0,0.3,0,0.5-0.1s0.4-0.1,0.7-0.2c0.5-0.2,1-0.3,1.4-0.2c0.4,0.1,0.7,0.3,1,0.6
					c0.3,0.4,0.4,0.8,0.3,1.3c-0.1,0.4-0.4,0.8-0.8,1.2c-0.4,0.3-0.8,0.5-1.2,0.5s-0.7,0-1-0.1L352.2,38.3z"/>
				<path fill="#262D33" d="M355.9,35.4c0.3,0.1,0.5,0.1,0.8,0.1c0.3,0,0.6-0.2,0.8-0.4c0.3-0.3,0.5-0.5,0.6-0.8
					c0.1-0.3,0-0.6-0.2-0.8c-0.2-0.3-0.5-0.4-0.8-0.5c-0.3,0-0.7,0.1-1.3,0.3c-0.6,0.2-1,0.3-1.3,0.2c-0.3,0-0.6-0.2-0.9-0.5
					c-0.3-0.3-0.3-0.7-0.3-1.1c0.1-0.4,0.3-0.8,0.8-1.1c0.4-0.3,0.7-0.4,1-0.5c0.3,0,0.6,0,0.9,0.1l-0.2,0.6
					c-0.2-0.1-0.5-0.1-0.7-0.1c-0.3,0-0.5,0.1-0.7,0.3c-0.3,0.2-0.5,0.5-0.5,0.7c0,0.2,0,0.5,0.2,0.7c0.1,0.1,0.2,0.2,0.3,0.3
					c0.1,0.1,0.2,0.1,0.4,0.1c0.1,0,0.3,0,0.5-0.1s0.4-0.1,0.7-0.2c0.5-0.2,1-0.3,1.4-0.2c0.4,0.1,0.7,0.3,1,0.6
					c0.3,0.4,0.4,0.8,0.3,1.3c-0.1,0.4-0.4,0.8-0.8,1.2c-0.4,0.3-0.8,0.5-1.2,0.6c-0.4,0-0.7,0-1-0.1L355.9,35.4z"/>
				<path fill="#262D33" d="M356.2,27.8c-0.1,0.1-0.2,0.1-0.3,0.1c-0.1,0-0.2-0.1-0.3-0.2c-0.1-0.1-0.1-0.2-0.1-0.4
					c0-0.1,0.1-0.2,0.1-0.3c0.1-0.1,0.2-0.1,0.3-0.1c0.1,0,0.2,0.1,0.3,0.2c0.1,0.1,0.1,0.3,0.1,0.4S356.3,27.7,356.2,27.8z
					 M360.3,33.5l-3.6-4.5l0.5-0.4l3.6,4.5L360.3,33.5z"/>
				<path fill="#262D33" d="M362.9,31.2c-0.4,0.1-0.7,0-1.1,0c-0.3-0.1-0.7-0.2-1-0.5c-0.3-0.2-0.6-0.5-0.8-0.8
					c-0.2-0.3-0.4-0.6-0.6-1s-0.2-0.7-0.2-1c0-0.3,0.1-0.7,0.2-1c0.1-0.3,0.4-0.6,0.7-0.9c0.3-0.3,0.7-0.4,1-0.5
					c0.4-0.1,0.7-0.1,1.1,0c0.3,0.1,0.7,0.2,1,0.5c0.3,0.2,0.6,0.5,0.8,0.8c0.2,0.3,0.4,0.6,0.6,1c0.1,0.4,0.2,0.7,0.2,1.1
					s-0.1,0.7-0.2,1c-0.1,0.3-0.4,0.6-0.7,0.9S363.3,31.2,362.9,31.2z M362,30.6c0.3,0.1,0.5,0.1,0.8,0.1s0.5-0.2,0.8-0.4
					c0.3-0.2,0.4-0.4,0.5-0.7c0.1-0.3,0.1-0.5,0.1-0.8c0-0.3-0.1-0.6-0.2-0.9s-0.3-0.5-0.5-0.8c-0.2-0.2-0.4-0.5-0.7-0.6
					s-0.5-0.3-0.8-0.4s-0.5-0.1-0.8-0.1c-0.3,0-0.5,0.2-0.8,0.4c-0.3,0.2-0.4,0.4-0.5,0.7c-0.1,0.3-0.1,0.5-0.1,0.8
					c0,0.3,0.1,0.6,0.2,0.8c0.1,0.3,0.3,0.5,0.5,0.8c0.2,0.2,0.4,0.5,0.7,0.7C361.5,30.4,361.7,30.5,362,30.6z"/>
				<path fill="#262D33" d="M367,28.2l-3.6-4.5l0.5-0.4l0.4,0.4c0.1-0.3,0.2-0.6,0.3-0.9c0.2-0.3,0.4-0.6,0.7-0.8
					c1.1-0.9,2.1-0.7,3.1,0.5l2.2,2.8l-0.5,0.4l-2.3-2.9c-0.3-0.4-0.7-0.7-1.1-0.7c-0.4-0.1-0.8,0.1-1.2,0.4
					c-0.3,0.2-0.5,0.5-0.7,0.8c-0.1,0.3-0.2,0.6-0.3,0.9l2.9,3.6L367,28.2z"/>
			</g>
		</g>
		<g>
			<g>
				<path fill="#262D33" d="M312.1,196.3l-2.7-6.7l-1.3,1.9l-0.5-0.3l1.5-2.3l0.6-0.2l3,7.4L312.1,196.3z"/>
				<path fill="#262D33" d="M316.5,194.3c-0.4-0.1-0.8-0.3-1.1-0.6c-0.4-0.3-0.7-0.6-0.9-1.1c-0.3-0.4-0.5-0.9-0.7-1.3
					c-0.2-0.5-0.3-0.9-0.4-1.4c-0.1-0.5-0.1-1,0-1.4c0.1-0.4,0.2-0.8,0.4-1.2c0.2-0.4,0.6-0.6,1-0.8c0.4-0.2,0.9-0.2,1.3-0.1
					c0.4,0.1,0.8,0.3,1.1,0.6c0.3,0.3,0.7,0.6,0.9,1.1c0.3,0.4,0.5,0.9,0.7,1.3c0.2,0.5,0.3,0.9,0.4,1.4c0.1,0.5,0.1,1,0,1.4
					s-0.2,0.8-0.4,1.2c-0.2,0.4-0.6,0.6-1,0.8C317.4,194.4,316.9,194.4,316.5,194.3z M315.7,193.1c0.3,0.3,0.6,0.4,0.9,0.6
					c0.3,0.1,0.7,0.1,1,0c0.3-0.1,0.6-0.4,0.7-0.7c0.2-0.3,0.2-0.6,0.3-1c0-0.4,0-0.8-0.1-1.2c-0.1-0.4-0.2-0.8-0.3-1.2
					c-0.2-0.4-0.3-0.8-0.6-1.1s-0.5-0.7-0.8-0.9s-0.6-0.4-0.9-0.5c-0.3-0.1-0.6-0.1-1,0c-0.3,0.1-0.6,0.4-0.7,0.6
					c-0.2,0.3-0.2,0.6-0.3,1c0,0.4,0,0.8,0.1,1.2c0.1,0.4,0.2,0.8,0.4,1.2c0.1,0.4,0.3,0.7,0.6,1.1
					C315.2,192.6,315.4,192.9,315.7,193.1z"/>
				<path fill="#262D33" d="M322.4,187.1c-0.2,0-0.4-0.1-0.6-0.2c-0.2-0.1-0.4-0.2-0.5-0.4c-0.2-0.2-0.3-0.4-0.4-0.6
					s-0.1-0.5-0.1-0.7c0-0.2,0-0.5,0.1-0.7c0.1-0.2,0.2-0.4,0.4-0.6c0.2-0.2,0.3-0.3,0.6-0.4c0.2-0.1,0.5-0.1,0.7-0.1
					c0.2,0,0.4,0.1,0.7,0.1c0.2,0.1,0.4,0.2,0.5,0.4c0.2,0.2,0.3,0.4,0.4,0.6c0.1,0.2,0.1,0.5,0.1,0.7s0,0.5-0.1,0.7
					c-0.1,0.2-0.2,0.4-0.4,0.6c-0.2,0.2-0.4,0.3-0.6,0.4C322.9,187,322.6,187.1,322.4,187.1z M322,186.4c0.1,0.1,0.3,0.1,0.4,0.1
					c0.2,0,0.3,0,0.5-0.1c0.2-0.1,0.3-0.2,0.4-0.3c0.1-0.1,0.2-0.3,0.2-0.4c0-0.1,0.1-0.3,0.1-0.5c0-0.2,0-0.3-0.1-0.5
					c-0.1-0.2-0.2-0.3-0.3-0.4c-0.1-0.1-0.2-0.2-0.4-0.3c-0.1-0.1-0.3-0.1-0.4-0.1c-0.2,0-0.3,0-0.5,0.1c-0.2,0.1-0.3,0.1-0.4,0.3
					c-0.1,0.1-0.2,0.2-0.2,0.4c0,0.1-0.1,0.3-0.1,0.5c0,0.2,0,0.3,0.1,0.5c0.1,0.1,0.1,0.3,0.3,0.4
					C321.7,186.3,321.9,186.4,322,186.4z M323.6,191.7l-0.6-0.3l4.1-9.9l0.5,0.2L323.6,191.7z M328.4,189.7c-0.2,0-0.4-0.1-0.6-0.2
					c-0.2-0.1-0.4-0.2-0.5-0.4c-0.2-0.2-0.3-0.4-0.4-0.6c-0.1-0.2-0.1-0.5-0.1-0.7c0-0.2,0-0.5,0.1-0.7c0.1-0.2,0.2-0.4,0.4-0.6
					c0.2-0.2,0.4-0.3,0.6-0.4c0.2-0.1,0.5-0.1,0.7-0.1c0.2,0,0.4,0.1,0.6,0.2c0.2,0.1,0.4,0.2,0.5,0.4c0.2,0.2,0.3,0.4,0.4,0.6
					c0.1,0.2,0.1,0.5,0.1,0.7c0,0.2,0,0.5-0.1,0.7c-0.1,0.2-0.2,0.4-0.4,0.6c-0.2,0.2-0.4,0.3-0.6,0.4
					C328.8,189.7,328.6,189.7,328.4,189.7z M328,189.1c0.1,0.1,0.3,0.1,0.4,0.1c0.2,0,0.3,0,0.5-0.1c0.2-0.1,0.3-0.2,0.4-0.3
					c0.1-0.1,0.2-0.3,0.2-0.4c0.1-0.1,0.1-0.3,0.1-0.5c0-0.2,0-0.3-0.1-0.5c-0.1-0.2-0.2-0.3-0.3-0.4c-0.1-0.1-0.2-0.2-0.4-0.3
					c-0.1-0.1-0.3-0.1-0.4-0.1c-0.2,0-0.3,0-0.5,0.1c-0.3,0.1-0.5,0.3-0.6,0.6s-0.1,0.6,0,0.9c0.1,0.2,0.1,0.3,0.3,0.4
					C327.7,188.9,327.8,189,328,189.1z"/>
				<path fill="#262D33" d="M338.7,184.1c0,0.3-0.1,0.5-0.2,0.7s-0.2,0.5-0.3,0.7c-0.1,0.2-0.3,0.4-0.5,0.6
					c-0.2,0.2-0.5,0.3-0.8,0.4c-0.5,0.2-0.9,0.3-1.4,0.2c-0.4,0-0.9-0.2-1.3-0.4c-0.4-0.2-0.8-0.6-1.1-1c-0.3-0.4-0.6-0.9-0.8-1.5
					c-0.3-0.6-0.4-1.2-0.4-1.8c0-0.5,0-1,0.1-1.5c0.1-0.4,0.3-0.8,0.6-1.1c0.3-0.3,0.6-0.5,1-0.7c0.6-0.2,1.2-0.3,1.7-0.2
					c0.5,0.1,1,0.4,1.4,0.7l-0.4,0.5c-0.1-0.1-0.3-0.2-0.5-0.3c-0.2-0.1-0.4-0.2-0.6-0.2c-0.2-0.1-0.4-0.1-0.6-0.1
					c-0.2,0-0.5,0.1-0.7,0.2c-0.3,0.1-0.6,0.3-0.8,0.6c-0.2,0.3-0.4,0.6-0.5,0.9c-0.1,0.4-0.1,0.8-0.1,1.3s0.2,1,0.4,1.5
					c0.2,0.5,0.4,0.9,0.7,1.3s0.6,0.6,0.9,0.8c0.3,0.2,0.7,0.3,1,0.4c0.4,0,0.7,0,1.1-0.2c0.2-0.1,0.4-0.2,0.6-0.4
					c0.2-0.1,0.3-0.3,0.4-0.5c0.1-0.2,0.2-0.4,0.2-0.5s0.1-0.4,0.1-0.6L338.7,184.1z"/>
				<path fill="#262D33" d="M341.3,184.5c-0.4,0-0.7-0.2-1-0.3c-0.3-0.2-0.6-0.4-0.8-0.7c-0.2-0.3-0.4-0.6-0.6-1s-0.2-0.7-0.3-1.1
					s0-0.7,0.1-1.1c0.1-0.3,0.3-0.6,0.5-0.9c0.2-0.3,0.5-0.5,0.9-0.6c0.4-0.2,0.8-0.2,1.1-0.2c0.4,0,0.7,0.1,1,0.3
					c0.3,0.2,0.6,0.4,0.8,0.7s0.4,0.6,0.6,1c0.1,0.4,0.2,0.7,0.3,1.1s0,0.7-0.1,1.1s-0.3,0.6-0.5,0.9c-0.2,0.3-0.5,0.5-0.9,0.6
					C342,184.4,341.6,184.5,341.3,184.5z M340.6,183.6c0.2,0.2,0.5,0.3,0.8,0.3c0.3,0,0.6,0,0.9-0.1c0.3-0.1,0.5-0.3,0.7-0.5
					s0.3-0.5,0.3-0.8c0.1-0.3,0.1-0.6,0-0.9c0-0.3-0.1-0.6-0.2-0.9c-0.1-0.3-0.3-0.5-0.4-0.8c-0.2-0.2-0.4-0.4-0.6-0.6
					c-0.2-0.2-0.5-0.3-0.8-0.3c-0.3,0-0.6,0-0.9,0.1c-0.3,0.1-0.5,0.3-0.7,0.5s-0.3,0.5-0.4,0.7c-0.1,0.3-0.1,0.6,0,0.9
					c0,0.3,0.1,0.6,0.2,0.9c0.1,0.3,0.3,0.6,0.5,0.8C340.1,183.2,340.3,183.4,340.6,183.6z"/>
				<path fill="#262D33" d="M346.1,182.7l-2.1-5.3l0.5-0.2l0.2,0.5c0.1-0.2,0.3-0.5,0.5-0.7c0.2-0.3,0.5-0.5,0.9-0.6
					c0.3-0.1,0.6-0.2,0.9-0.2s0.5,0.1,0.8,0.2c0.1-0.3,0.3-0.5,0.6-0.7c0.2-0.2,0.6-0.4,1-0.6c0.7-0.3,1.2-0.3,1.7,0
					c0.5,0.2,0.8,0.7,1.1,1.4l1.4,3.4l-0.6,0.2l-1.4-3.4c-0.2-0.5-0.5-0.8-0.8-1c-0.3-0.2-0.7-0.2-1.2,0c-0.3,0.1-0.6,0.3-0.8,0.5
					c-0.2,0.2-0.4,0.4-0.5,0.7c0.1,0.1,0.2,0.2,0.3,0.4c0.1,0.1,0.2,0.3,0.3,0.5l1.4,3.4l-0.6,0.2l-1.4-3.5
					c-0.1-0.2-0.2-0.4-0.3-0.6c-0.1-0.2-0.3-0.3-0.4-0.4c-0.2-0.1-0.3-0.1-0.5-0.1c-0.2,0-0.4,0-0.6,0.1c-0.3,0.1-0.6,0.3-0.8,0.6
					c-0.2,0.3-0.4,0.5-0.5,0.8l1.7,4.3L346.1,182.7z"/>
				<path fill="#262D33" d="M355,179.1l-2.1-5.3l0.5-0.2l0.2,0.5c0.1-0.2,0.3-0.5,0.5-0.7c0.2-0.3,0.5-0.5,0.9-0.6
					c0.3-0.1,0.6-0.2,0.9-0.2s0.5,0.1,0.8,0.2c0.1-0.3,0.3-0.5,0.6-0.7c0.2-0.2,0.6-0.4,1-0.6c0.7-0.3,1.2-0.3,1.7,0
					c0.5,0.2,0.8,0.7,1.1,1.4l1.4,3.4l-0.6,0.2l-1.4-3.4c-0.2-0.5-0.5-0.8-0.8-1c-0.3-0.2-0.7-0.2-1.2,0c-0.3,0.1-0.6,0.3-0.8,0.5
					c-0.2,0.2-0.4,0.4-0.5,0.7c0.1,0.1,0.2,0.2,0.3,0.4c0.1,0.1,0.2,0.3,0.3,0.5l1.4,3.4l-0.6,0.2l-1.4-3.5
					c-0.1-0.2-0.2-0.4-0.3-0.6c-0.1-0.2-0.3-0.3-0.4-0.4c-0.2-0.1-0.3-0.1-0.5-0.1c-0.2,0-0.4,0-0.6,0.1c-0.3,0.1-0.6,0.3-0.8,0.6
					c-0.2,0.3-0.4,0.5-0.5,0.8l1.7,4.3L355,179.1z"/>
				<path fill="#262D33" d="M361.5,168.9c-0.1,0-0.2,0-0.3,0c-0.1-0.1-0.2-0.2-0.3-0.3c-0.1-0.1-0.1-0.3,0-0.4
					c0-0.1,0.1-0.2,0.2-0.3c0.1,0,0.2,0,0.4,0c0.1,0.1,0.2,0.2,0.3,0.3c0.1,0.2,0.1,0.3,0,0.4C361.7,168.8,361.7,168.9,361.5,168.9z
					 M363.9,175.5l-2.1-5.3l0.6-0.2l2.1,5.3L363.9,175.5z"/>
				<path fill="#262D33" d="M365.6,173.5c0.2,0.2,0.5,0.3,0.8,0.3c0.3,0,0.6,0,0.9-0.1c0.4-0.2,0.7-0.4,0.8-0.6s0.2-0.5,0-0.9
					c-0.1-0.3-0.4-0.6-0.7-0.7c-0.3-0.1-0.7-0.1-1.3-0.1c-0.6,0-1,0-1.3-0.1c-0.3-0.1-0.5-0.4-0.7-0.8c-0.2-0.4-0.1-0.8,0.1-1.1
					c0.2-0.4,0.5-0.6,1.1-0.9c0.4-0.2,0.8-0.2,1.1-0.2c0.3,0,0.6,0.2,0.9,0.3l-0.3,0.5c-0.2-0.1-0.4-0.2-0.7-0.3
					c-0.3,0-0.5,0-0.8,0.1c-0.4,0.1-0.6,0.3-0.7,0.6c-0.1,0.2-0.1,0.5,0,0.7c0.1,0.1,0.1,0.2,0.2,0.3s0.2,0.1,0.3,0.2
					c0.1,0,0.3,0.1,0.5,0.1c0.2,0,0.5,0,0.8,0c0.6,0,1,0,1.4,0.2c0.3,0.2,0.6,0.5,0.8,0.9c0.2,0.5,0.2,0.9-0.1,1.3
					c-0.2,0.4-0.6,0.7-1.1,0.9c-0.5,0.2-0.9,0.3-1.3,0.2c-0.4-0.1-0.7-0.2-0.9-0.4L365.6,173.5z"/>
				<path fill="#262D33" d="M370,171.8c0.2,0.2,0.5,0.3,0.8,0.3c0.3,0,0.6,0,0.9-0.1c0.4-0.2,0.6-0.4,0.8-0.6c0.2-0.3,0.2-0.5,0-0.9
					c-0.1-0.3-0.4-0.6-0.7-0.7c-0.3-0.1-0.7-0.1-1.3-0.1c-0.6,0-1,0-1.3-0.1c-0.3-0.1-0.5-0.4-0.7-0.8c-0.2-0.4-0.1-0.8,0.1-1.1
					c0.2-0.4,0.5-0.6,1.1-0.9c0.4-0.2,0.8-0.2,1.1-0.2c0.3,0,0.6,0.2,0.9,0.3l-0.3,0.5c-0.2-0.1-0.4-0.2-0.7-0.3
					c-0.3,0-0.5,0-0.8,0.1c-0.4,0.1-0.6,0.3-0.7,0.6c-0.1,0.2-0.1,0.5,0,0.7c0.1,0.1,0.1,0.2,0.2,0.3s0.2,0.1,0.3,0.2
					c0.1,0,0.3,0.1,0.5,0.1c0.2,0,0.5,0,0.8,0c0.6,0,1,0,1.4,0.2c0.3,0.2,0.6,0.5,0.8,0.9c0.2,0.5,0.2,0.9-0.1,1.3
					c-0.2,0.4-0.6,0.7-1.1,0.9c-0.5,0.2-0.9,0.3-1.3,0.2c-0.4-0.1-0.7-0.2-0.9-0.4L370,171.8z"/>
				<path fill="#262D33" d="M372.4,164.6c-0.1,0-0.2,0-0.3,0s-0.2-0.2-0.3-0.3c-0.1-0.1-0.1-0.3,0-0.4c0-0.1,0.1-0.2,0.2-0.3
					c0.1,0,0.2,0,0.4,0c0.1,0.1,0.2,0.2,0.3,0.3c0.1,0.1,0.1,0.3,0,0.4C372.6,164.5,372.5,164.5,372.4,164.6z M374.7,171.2l-2.1-5.3
					l0.6-0.2l2.1,5.3L374.7,171.2z"/>
				<path fill="#262D33" d="M377.9,169.8c-0.4,0-0.7-0.2-1-0.3c-0.3-0.2-0.6-0.4-0.8-0.7c-0.2-0.3-0.4-0.6-0.6-1s-0.2-0.7-0.3-1.1
					c0-0.4,0-0.7,0.1-1.1c0.1-0.3,0.3-0.6,0.5-0.9c0.2-0.3,0.5-0.5,0.9-0.6c0.4-0.2,0.8-0.2,1.1-0.2c0.4,0,0.7,0.1,1,0.3
					c0.3,0.2,0.6,0.4,0.8,0.7c0.2,0.3,0.4,0.6,0.6,1c0.1,0.4,0.2,0.7,0.3,1.1c0,0.4,0,0.7-0.1,1.1c-0.1,0.3-0.3,0.6-0.5,0.9
					c-0.2,0.3-0.5,0.5-0.9,0.6S378.2,169.8,377.9,169.8z M377.2,168.9c0.2,0.2,0.5,0.3,0.8,0.3c0.3,0,0.6,0,0.9-0.1
					c0.3-0.1,0.5-0.3,0.7-0.5c0.2-0.2,0.3-0.5,0.3-0.8c0.1-0.3,0.1-0.6,0-0.9c0-0.3-0.1-0.6-0.2-0.9c-0.1-0.3-0.3-0.5-0.4-0.8
					c-0.2-0.2-0.4-0.4-0.6-0.6c-0.2-0.2-0.5-0.3-0.8-0.3c-0.3,0-0.6,0-0.9,0.1s-0.5,0.3-0.7,0.5c-0.2,0.2-0.3,0.5-0.4,0.7
					s-0.1,0.6,0,0.9c0,0.3,0.1,0.6,0.2,0.9c0.1,0.3,0.3,0.6,0.5,0.8C376.7,168.5,376.9,168.8,377.2,168.9z"/>
				<path fill="#262D33" d="M382.7,168l-2.1-5.3l0.5-0.2l0.2,0.5c0.2-0.3,0.3-0.5,0.6-0.8c0.2-0.2,0.5-0.4,0.9-0.6
					c1.3-0.5,2.2-0.1,2.8,1.3l1.3,3.4l-0.6,0.2l-1.4-3.4c-0.2-0.5-0.5-0.8-0.8-1c-0.3-0.2-0.8-0.2-1.3,0c-0.4,0.1-0.7,0.3-0.9,0.6
					c-0.2,0.3-0.4,0.5-0.6,0.8l1.7,4.3L382.7,168z"/>
			</g>
		</g>
	</g>
</g>
<g id="Panel_4_-_FADE_TRANSITION">
</g>
<g id="Panel_3">
</g>
<g id="Panel_2">
</g>
<g id="Panel_1-TOP">
</g>
<g id="Header">
</g>
<g id="LOGO">
</g>
</svg>
