<?xml version="1.0" encoding="utf-8"?>
<!-- Generator: Adobe Illustrator 18.1.1, SVG Export Plug-In . SVG Version: 6.00 Build 0)  -->
<!DOCTYPE svg PUBLIC "-//W3C//DTD SVG 1.1//EN" "http://www.w3.org/Graphics/SVG/1.1/DTD/svg11.dtd">
<svg version="1.1" id="Layer_1" xmlns="http://www.w3.org/2000/svg" xmlns:xlink="http://www.w3.org/1999/xlink" x="0px" y="0px"
	 viewBox="0 0 300 300" enable-background="new 0 0 300 300" xml:space="preserve">
<g>
	<path fill="#FFFFFF" d="M274.1,235.1h-54.2c-2.2,0-4,1.8-4,4v54.2c0,2.2,1.8,4,4,4h54.2c2.2,0,4-1.8,4-4v-54.2
		C278,236.9,276.3,235.1,274.1,235.1z"/>
	<path fill="#FFFFFF" d="M292.3,157.4h-54.2c-2.2,0-4,1.8-4,4v54.2c0,2.2,1.8,4,4,4h54.2c2.2,0,4-1.8,4-4v-54.2
		C296.2,159.2,294.5,157.4,292.3,157.4z"/>
	<path fill="#A5A0DE" d="M292.3,79.7h-54.2c-2.2,0-4,1.8-4,4v54.2c0,2.2,1.8,4,4,4h54.2c2.2,0,4-1.8,4-4V83.7
		C296.2,81.5,294.5,79.7,292.3,79.7z"/>
	<path fill="#FFFFFF" d="M274.1,2h-54.2c-2.2,0-4,1.8-4,4v54.2c0,2.2,1.8,4,4,4h54.2c2.2,0,4-1.8,4-4V6C278,3.8,276.3,2,274.1,2z"/>
	<path fill="#FFFFFF" d="M50.4,31.7c-0.9,0.5-0.5,0.3-2.2,1.1c-1.9,0.8-4,1.2-6.1,1.2c-2.1,0-4.2-0.4-6.1-1.2
		c-0.7-0.3-0.7-0.3-1.7-0.8C23.9,34.8,25,49.2,25,60.7c2.6,3.2,9.9,4.9,17.3,4.9c7,0,14-1.5,17-4.9C59.3,49.2,59.3,34.2,50.4,31.7z"
		/>
	<circle fill="#FFFFFF" cx="41.8" cy="15.7" r="13.7"/>
	<path fill="#A5A0DE" d="M29.2,109.2c-0.9,0.5-0.5,0.3-2.2,1.1c-1.9,0.8-4,1.2-6.1,1.2c-2.1,0-4.2-0.4-6.1-1.2
		c-0.7-0.3-0.7-0.3-1.7-0.8c-10.5,2.8-9.4,17.2-9.4,28.7c2.6,3.2,9.9,4.9,17.3,4.9c7,0,14-1.5,17-4.9
		C38.1,126.7,38.1,111.7,29.2,109.2z"/>
	<circle fill="#A5A0DE" cx="20.6" cy="93.2" r="13.7"/>
	<path fill="#FFFFFF" d="M29.2,186.6c-0.9,0.5-0.5,0.3-2.2,1.1c-1.9,0.8-4,1.2-6.1,1.2c-2.1,0-4.2-0.4-6.1-1.2
		c-0.7-0.3-0.7-0.3-1.7-0.8c-10.5,2.8-9.4,17.2-9.4,28.7c2.6,3.2,9.9,4.9,17.3,4.9c7,0,14-1.5,17-4.9
		C38.1,204.2,38.1,189.2,29.2,186.6z"/>
	<circle fill="#FFFFFF" cx="20.6" cy="170.7" r="13.7"/>
	<path fill="#FFFFFF" d="M50.4,264.1c-0.9,0.5-0.5,0.3-2.2,1.1c-1.9,0.8-4,1.2-6.1,1.2c-2.1,0-4.2-0.4-6.1-1.2
		c-0.7-0.3-0.7-0.3-1.7-0.8c-10.5,2.8-9.4,17.2-9.4,28.7c2.6,3.2,9.9,4.9,17.3,4.9c7,0,14-1.5,17-4.9
		C59.3,281.6,59.3,266.7,50.4,264.1z"/>
	<circle fill="#FFFFFF" cx="41.8" cy="248.2" r="13.7"/>
	<path fill="#FFFFFF" d="M256.8,242.6c0-0.2,0-0.3,0-0.5c-0.1,0.2-0.2,0.3-0.3,0.5l-1.5,2.2h1.8V242.6z"/>
	<path fill="#A5A0DE" d="M266.4,88.4c-0.8,0-1.4,0.7-1.4,1.8c0,0.8,0.4,1.7,1.4,1.7c0.5,0,1-0.3,1.2-0.9c0-0.1,0.1-0.3,0.1-0.5v-0.9
		c0-0.2,0-0.3,0-0.4C267.4,88.8,267.1,88.4,266.4,88.4z"/>
	<path fill="#FFFFFF" d="M238.2,14c1.5,0,2.2-1.4,2.2-2.8c0-1.3-0.7-2.8-2.1-2.8c-1.5,0-2.2,1.4-2.2,2.9C236,12.6,236.7,14,238.2,14
		z"/>
	<path fill="#FFFFFF" d="M248.2,243.1c-0.8,0-1.4,0.7-1.4,1.8c0,0.8,0.4,1.7,1.4,1.7c0.5,0,1-0.3,1.2-0.9c0-0.1,0.1-0.3,0.1-0.5
		v-0.9c0-0.2,0-0.3,0-0.4C249.2,243.6,248.9,243.1,248.2,243.1z"/>
	<path fill="#FFFFFF" d="M248.2,13.9c0.5,0,1-0.3,1.2-0.9c0-0.1,0.1-0.3,0.1-0.5v-0.9c0-0.2,0-0.3,0-0.4c-0.1-0.4-0.5-0.9-1.2-0.9
		c-0.8,0-1.4,0.7-1.4,1.8C246.8,13,247.2,13.9,248.2,13.9z"/>
	<path fill="#FFFFFF" d="M266.4,165.7c-0.8,0-1.4,0.7-1.4,1.8c0,0.8,0.4,1.7,1.4,1.7c0.5,0,1-0.3,1.2-0.9c0-0.1,0.1-0.3,0.1-0.5
		v-0.9c0-0.2,0-0.3,0-0.4C267.4,166.1,267.1,165.7,266.4,165.7z"/>
	<path fill="#FFFFFF" d="M258.5,166.4c0-1.3-0.7-2.8-2.1-2.8c-1.5,0-2.2,1.4-2.2,2.9c0,1.3,0.7,2.8,2.1,2.8
		C257.9,169.3,258.5,167.9,258.5,166.4z"/>
	<path fill="#A5A0DE" d="M258.5,89.1c0-1.3-0.7-2.8-2.1-2.8c-1.5,0-2.2,1.4-2.2,2.9c0,1.3,0.7,2.8,2.1,2.8
		C257.9,92,258.5,90.5,258.5,89.1z"/>
	<path fill="#FFFFFF" d="M238.2,246.7c1.5,0,2.2-1.4,2.2-2.8c0-1.3-0.7-2.8-2.1-2.8c-1.5,0-2.2,1.4-2.2,2.9
		C236,245.3,236.7,246.7,238.2,246.7z"/>
	<path fill="#302C5B" d="M238.1,15.1c2.4,0,3.5-2,3.5-4c0-2.3-1.4-3.8-3.4-3.8c-2.1,0-3.5,1.6-3.5,4
		C234.7,13.5,236.1,15.1,238.1,15.1z M238.2,8.4c1.5,0,2.1,1.4,2.1,2.8c0,1.4-0.7,2.8-2.2,2.8c-1.5,0-2.1-1.4-2.1-2.8
		C236,9.8,236.7,8.4,238.2,8.4z"/>
	<path fill="#302C5B" d="M242.5,11.3V15h1.2v-2.9c0-0.1,0-0.3,0-0.4c0.1-0.7,0.5-1.1,1.1-1.1c0.1,0,0.2,0,0.3,0l0.2,0V9.4l-0.1,0
		c-0.1,0-0.2,0-0.3,0c-0.5,0-1,0.3-1.3,0.7l0-0.6h-1.1l0,0.2C242.5,10.1,242.5,10.6,242.5,11.3z"/>
	<path fill="#302C5B" d="M247.9,15c0.6,0,1.1-0.2,1.5-0.6v0.1c0,1.1-0.5,1.7-1.5,1.7c-0.7,0-1.3-0.3-1.4-0.4l-0.2-0.1l-0.3,1
		l0.1,0.1c0.4,0.3,1.1,0.5,1.8,0.5c0.6,0,1.4-0.1,2-0.7c0.5-0.5,0.8-1.3,0.8-2.5v-3c0-0.6,0-1,0-1.4l0-0.2h-1.1l0,0.5
		c-0.3-0.3-0.7-0.6-1.5-0.6c-1.2,0-2.5,1-2.5,2.9C245.5,13.8,246.6,15,247.9,15z M248.2,10.4c0.7,0,1,0.5,1.2,0.9c0,0.1,0,0.2,0,0.4
		v0.9c0,0.2,0,0.3-0.1,0.5c-0.2,0.5-0.6,0.9-1.2,0.9c-1,0-1.4-0.9-1.4-1.7C246.8,11.1,247.4,10.4,248.2,10.4z"/>
	<polygon fill="#302C5B" points="255.9,9 255.9,15 257.2,15 257.2,7.7 256.2,7.7 254.5,8.6 254.8,9.6 	"/>
	<path fill="#302C5B" d="M259.8,89.1c0-2.3-1.4-3.8-3.4-3.8c-2.1,0-3.5,1.6-3.5,4c0,2.3,1.4,3.8,3.4,3.8
		C258.8,93,259.8,91.1,259.8,89.1z M254.2,89.2c0-1.4,0.7-2.9,2.2-2.9c1.5,0,2.1,1.4,2.1,2.8c0,1.4-0.7,2.8-2.2,2.8
		C254.9,92,254.2,90.5,254.2,89.2z"/>
	<path fill="#302C5B" d="M262,92.9V90c0-0.1,0-0.3,0-0.4c0.1-0.7,0.5-1.1,1.1-1.1c0.1,0,0.2,0,0.3,0l0.2,0v-1.2l-0.1,0
		c-0.1,0-0.2,0-0.3,0c-0.5,0-1,0.3-1.3,0.7l0-0.6h-1.1l0,0.2c0,0.4,0,0.9,0,1.6v3.7H262z"/>
	<path fill="#302C5B" d="M268.9,92v-3c0-0.6,0-1,0-1.4l0-0.2h-1.1l0,0.5c-0.3-0.3-0.7-0.6-1.5-0.6c-1.2,0-2.5,1-2.5,2.9
		c0,1.5,1,2.7,2.4,2.7c0.6,0,1.1-0.2,1.5-0.6v0.1c0,1.1-0.5,1.7-1.5,1.7c-0.7,0-1.3-0.3-1.4-0.4l-0.2-0.1l-0.3,1l0.1,0.1
		c0.4,0.3,1.1,0.5,1.8,0.5c0.6,0,1.4-0.1,2-0.7C268.6,94,268.9,93.3,268.9,92z M267.6,90.6c0,0.2,0,0.3-0.1,0.5
		c-0.2,0.5-0.6,0.9-1.2,0.9c-1,0-1.4-0.9-1.4-1.7c0-1.1,0.6-1.8,1.4-1.8c0.7,0,1,0.5,1.2,0.9c0,0.1,0,0.2,0,0.4V90.6z"/>
	<path fill="#302C5B" d="M276.9,91.8H274l0.3-0.3c1.4-1.4,2.5-2.5,2.5-3.9c0-1.1-0.7-2.2-2.3-2.2c-0.8,0-1.5,0.3-2.1,0.7l-0.1,0.1
		l0.4,1l0.2-0.1c0.2-0.2,0.8-0.6,1.4-0.6c1,0,1.2,0.7,1.2,1.2c0,1-0.8,1.8-2.5,3.5l-0.8,0.8v0.8h4.8V91.8z"/>
	<path fill="#302C5B" d="M259.8,166.4c0-2.3-1.4-3.8-3.4-3.8c-2.1,0-3.5,1.6-3.5,4c0,2.3,1.4,3.8,3.4,3.8
		C258.8,170.4,259.8,168.4,259.8,166.4z M254.2,166.5c0-1.4,0.7-2.9,2.2-2.9c1.5,0,2.1,1.4,2.1,2.8c0,1.4-0.7,2.8-2.2,2.8
		C254.9,169.3,254.2,167.9,254.2,166.5z"/>
	<path fill="#302C5B" d="M262,170.2v-2.9c0-0.1,0-0.3,0-0.4c0.1-0.7,0.5-1.1,1.1-1.1c0.1,0,0.2,0,0.3,0l0.2,0v-1.2l-0.1,0
		c-0.1,0-0.2,0-0.3,0c-0.5,0-1,0.3-1.3,0.7l0-0.6h-1.1l0,0.2c0,0.4,0,0.9,0,1.6v3.7H262z"/>
	<path fill="#302C5B" d="M266.1,171.4c-0.7,0-1.3-0.3-1.4-0.4l-0.2-0.1l-0.3,1l0.1,0.1c0.4,0.3,1.1,0.5,1.8,0.5c0.6,0,1.4-0.1,2-0.7
		c0.5-0.5,0.8-1.3,0.8-2.5v-3c0-0.6,0-1,0-1.4l0-0.2h-1.1l0,0.5c-0.3-0.3-0.7-0.6-1.5-0.6c-1.2,0-2.5,1-2.5,2.9c0,1.5,1,2.7,2.4,2.7
		c0.6,0,1.1-0.2,1.5-0.6v0.1C267.6,170.9,267.1,171.4,266.1,171.4z M267.6,167.9c0,0.2,0,0.3-0.1,0.5c-0.2,0.5-0.6,0.9-1.2,0.9
		c-1,0-1.4-0.9-1.4-1.7c0-1.1,0.6-1.8,1.4-1.8c0.7,0,1,0.5,1.2,0.9c0,0.1,0,0.2,0,0.4V167.9z"/>
	<path fill="#302C5B" d="M274,169.3c-0.6,0-1.2-0.3-1.5-0.4l-0.2-0.1l-0.4,1l0.1,0.1c0.3,0.2,1.1,0.5,1.9,0.5c1.9,0,2.7-1.1,2.7-2.2
		c0-0.8-0.5-1.5-1.3-1.8c0.7-0.4,1-0.9,1-1.6c0-0.9-0.7-1.8-2.2-1.8c-0.8,0-1.5,0.3-1.9,0.6l-0.1,0.1l0.4,1l0.2-0.1
		c0.3-0.2,0.8-0.4,1.3-0.4c0.7,0,1.1,0.3,1.1,0.9c0,0.8-0.8,1-1.4,1h-0.7v1h0.7c0.8,0,1.6,0.3,1.6,1.2c0,0.3-0.1,0.6-0.3,0.8
		C274.9,169.2,274.5,169.3,274,169.3z"/>
	<path fill="#302C5B" d="M238.1,247.8c2.4,0,3.5-2,3.5-4c0-2.3-1.4-3.8-3.4-3.8c-2.1,0-3.5,1.6-3.5,4
		C234.7,246.2,236.1,247.8,238.1,247.8z M238.2,241.1c1.5,0,2.1,1.4,2.1,2.8c0,1.4-0.7,2.8-2.2,2.8c-1.5,0-2.1-1.4-2.1-2.8
		C236,242.5,236.7,241.1,238.2,241.1z"/>
	<path fill="#302C5B" d="M243.7,247.7v-2.9c0-0.1,0-0.3,0-0.4c0.1-0.7,0.5-1.1,1.1-1.1c0.1,0,0.2,0,0.3,0l0.2,0v-1.2l-0.1,0
		c-0.1,0-0.2,0-0.3,0c-0.5,0-1,0.3-1.3,0.7l0-0.6h-1.1l0,0.2c0,0.4,0,0.9,0,1.6v3.7H243.7z"/>
	<path fill="#302C5B" d="M250.7,246.8v-3c0-0.6,0-1,0-1.4l0-0.2h-1.1l0,0.5c-0.3-0.3-0.7-0.6-1.5-0.6c-1.2,0-2.5,1-2.5,2.9
		c0,1.5,1,2.7,2.4,2.7c0.6,0,1.1-0.2,1.5-0.6v0.1c0,1.1-0.5,1.7-1.5,1.7c-0.7,0-1.3-0.3-1.4-0.4l-0.2-0.1l-0.3,1l0.1,0.1
		c0.4,0.3,1.1,0.5,1.8,0.5c0.6,0,1.4-0.1,2-0.7C250.4,248.8,250.7,248,250.7,246.8z M249.4,245.3c0,0.2,0,0.3-0.1,0.5
		c-0.2,0.5-0.6,0.9-1.2,0.9c-1,0-1.4-0.9-1.4-1.7c0-1.1,0.6-1.8,1.4-1.8c0.7,0,1,0.5,1.2,0.9c0,0.1,0,0.2,0,0.4V245.3z"/>
	<path fill="#302C5B" d="M258,247.7v-1.9h1v-1.1h-1v-4.3h-1.3l-3.2,4.5l0,0v0.8h3.2v1.9H258z M255,244.7l1.5-2.2
		c0.1-0.2,0.2-0.3,0.3-0.5c0,0.2,0,0.3,0,0.5v2.2H255z"/>
	<polygon fill="#FFFFFF" points="93.9,180.5 56.1,180.5 55.2,180.5 55.2,181.4 55.2,183.9 55.2,184.9 56.1,184.9 93.9,184.9 	"/>
	<polygon fill="#FFFFFF" points="150.4,180.5 150.4,184.9 213.2,184.9 214.2,184.9 214.2,183.9 214.2,181.4 214.2,180.5 
		213.2,180.5 	"/>
	<polygon fill="#FFFFFF" points="150.4,192.1 150.4,196.5 213.2,196.5 214.2,196.5 214.2,195.6 214.2,193.1 214.2,192.1 
		213.2,192.1 	"/>
	<polygon fill="#A5A0DE" points="93.9,101.3 93.9,96.9 56.1,96.9 55.2,96.9 55.2,97.9 55.2,100.4 55.2,101.3 56.1,101.3 	"/>
	<polygon fill="#A5A0DE" points="213.2,96.9 105.9,96.9 105.9,101.3 213.2,101.3 214.2,101.3 214.2,100.4 214.2,97.9 214.2,96.9 	
		"/>
	<path fill="#FFFFFF" d="M94.7,35.3c0.6,1.3,1.6,2.4,2.9,2.9v59.7v2.5v81v2.5v5.3c-2,0.9-3.4,2.9-3.4,5.1c0,3.1,2.5,5.6,5.6,5.6
		c2.2,0,4.3-1.4,5.1-3.4h33.4v-4.4H105c-0.6-1.3-1.6-2.4-2.9-2.9v-5.3v-2.5v-81v-2.5V38.2c1.3-0.6,2.4-1.6,2.9-2.9h89.8h0.9v-0.9
		v-2.5v-0.9h-0.9H105c-0.9-2-2.9-3.4-5.1-3.4c-2.2,0-4.3,1.4-5.1,3.4H74.5h-0.9v0.9v2.5v0.9h0.9H94.7z M99.9,30.9
		c1.2,0,2.1,1,2.1,2.1c0,1.2-1,2.1-2.1,2.1c-1.2,0-2.1-1-2.1-2.1C97.7,31.9,98.7,30.9,99.9,30.9z M99.9,192.2c1.2,0,2.1,1,2.1,2.1
		c0,1.2-1,2.1-2.1,2.1c-1.2,0-2.1-1-2.1-2.1C97.7,193.1,98.7,192.2,99.9,192.2z"/>
	<path fill="#FFFFFF" d="M149.6,120.2c-0.9-2-2.9-3.4-5.1-3.4c-3.1,0-5.6,2.5-5.6,5.6c0,2.2,1.4,4.3,3.4,5.1v133.5
		c-1.3,0.6-2.4,1.6-2.9,2.9H74.5h-0.9v0.9v2.5v0.9h0.9h64.8c0.9,2,2.9,3.4,5.1,3.4c2.2,0,4.3-1.4,5.1-3.4h45.2h0.9v-0.9v-2.5V264
		h-0.9h-45.2c-0.6-1.3-1.6-2.4-2.9-2.9V127.6c1.3-0.6,2.4-1.6,2.9-2.9h63.7h0.9v-0.9v-2.5v-0.9h-0.9H149.6z M144.4,268.3
		c-1.2,0-2.1-1-2.1-2.1s1-2.1,2.1-2.1c1.2,0,2.1,1,2.1,2.1S145.6,268.3,144.4,268.3z M144.4,124.6c-1.2,0-2.1-1-2.1-2.1
		c0-1.2,1-2.1,2.1-2.1c1.2,0,2.1,1,2.1,2.1C146.6,123.6,145.6,124.6,144.4,124.6z"/>
	<path fill="#FFFFFF" d="M127.3,108.6c-0.9-2-2.9-3.4-5.1-3.4c-3.1,0-5.6,2.5-5.6,5.6c0,2.2,1.4,4.3,3.4,5.1v61.6
		c-1.3,0.6-2.4,1.6-2.9,2.9h-11.1v4.4H117c0.9,2,2.9,3.4,5.1,3.4c2.2,0,4.3-1.4,5.1-3.4h11.1v-4.4h-11.1c-0.6-1.3-1.6-2.4-2.9-2.9
		v-61.6c1.3-0.6,2.4-1.6,2.9-2.9h85.9h0.9V112v-2.5v-0.9h-0.9H127.3z M122.1,108.6c1.2,0,2.1,1,2.1,2.1c0,1.2-1,2.1-2.1,2.1
		s-2.1-1-2.1-2.1C120,109.6,121,108.6,122.1,108.6z M122.1,184.8c-1.2,0-2.1-1-2.1-2.1s1-2.1,2.1-2.1s2.1,1,2.1,2.1
		S123.3,184.8,122.1,184.8z"/>
</g>
<g>
</g>
<g>
</g>
<g>
</g>
<g>
</g>
<g>
</g>
<g>
</g>
</svg>
