<?xml version="1.0" encoding="utf-8"?>
<!-- Generator: Adobe Illustrator 16.0.1, SVG Export Plug-In . SVG Version: 6.00 Build 0)  -->
<!DOCTYPE svg PUBLIC "-//W3C//DTD SVG 1.1//EN" "http://www.w3.org/Graphics/SVG/1.1/DTD/svg11.dtd">
<svg version="1.1" xmlns="http://www.w3.org/2000/svg" xmlns:xlink="http://www.w3.org/1999/xlink" x="0px" y="0px"
	 width="254.635px" height="213.155px" viewBox="0 0 254.635 213.155" enable-background="new 0 0 254.635 213.155"
	 xml:space="preserve">
<symbol  id="Deleted_Symbol" viewBox="-5.5 -8.5 11 17">
	<path d="M-3.5,6.5h-1v-11h1v1h1v1h1v-1h1v-2h1v-2h2v2h-1v2h-1v2h3v1h-1v1h-1v1h-1v1h-1v1h-1v1h-1v1h-1V6.5z"/>
	<g>
		<polygon fill="#FFFFFF" points="5.5,-2.5 5.5,-1.5 4.5,-1.5 4.5,-0.5 3.5,-0.5 3.5,-1.5 0.5,-1.5 0.5,-3.5 1.5,-3.5 1.5,-2.5 		
			"/>
		<polygon fill="#FFFFFF" points="1.5,1.5 1.5,2.5 0.5,2.5 0.5,1.5 		"/>
		<polygon fill="#FFFFFF" points="0.5,2.5 0.5,3.5 -0.5,3.5 -0.5,2.5 		"/>
		<polygon fill="#FFFFFF" points="-1.5,4.5 -1.5,5.5 -2.5,5.5 -2.5,4.5 		"/>
		<polygon fill="#FFFFFF" points="-2.5,5.5 -2.5,6.5 -3.5,6.5 -3.5,5.5 		"/>
		<polygon fill="#FFFFFF" points="-4.5,6.5 -3.5,6.5 -3.5,7.5 -4.5,7.5 -4.5,8.5 -5.5,8.5 -5.5,-6.5 -4.5,-6.5 -4.5,-5.5 -3.5,-5.5 
			-3.5,-4.5 -4.5,-4.5 		"/>
		<polygon fill="#FFFFFF" points="-0.5,3.5 -0.5,4.5 -1.5,4.5 -1.5,3.5 		"/>
		<polygon fill="#FFFFFF" points="-1.5,-3.5 -1.5,-5.5 -0.5,-5.5 -0.5,-3.5 		"/>
		<polygon fill="#FFFFFF" points="-2.5,-2.5 -2.5,-3.5 -1.5,-3.5 -1.5,-2.5 		"/>
		<polygon fill="#FFFFFF" points="-3.5,-4.5 -2.5,-4.5 -2.5,-3.5 -3.5,-3.5 		"/>
		<polygon fill="#FFFFFF" points="3.5,-0.5 3.5,0.5 2.5,0.5 2.5,-0.5 		"/>
		<polygon fill="#FFFFFF" points="2.5,0.5 2.5,1.5 1.5,1.5 1.5,0.5 		"/>
		<polygon fill="#FFFFFF" points="2.5,-5.5 2.5,-3.5 1.5,-3.5 1.5,-5.5 		"/>
		<polygon fill="#FFFFFF" points="0.5,-7.5 0.5,-8.5 3.5,-8.5 3.5,-5.5 2.5,-5.5 2.5,-7.5 		"/>
		<polygon fill="#FFFFFF" points="-0.5,-5.5 -0.5,-7.5 0.5,-7.5 0.5,-5.5 		"/>
	</g>
</symbol>
<pattern  x="-264.449" y="-1493.372" width="8.485" height="8.484" patternUnits="userSpaceOnUse" id="cross_hatching" viewBox="9.547 -18.03 8.485 8.484" overflow="visible">
	<g>
		<polygon fill="none" points="9.547,-18.03 18.032,-18.03 18.032,-9.545 9.547,-9.545 		"/>
		<line fill="none" stroke="#231F20" stroke-width="3" x1="18.03" y1="-1.061" x2="26.517" y2="-9.545"/>
		<line fill="none" stroke="#231F20" stroke-width="3" x1="9.546" y1="-1.061" x2="18.032" y2="-9.545"/>
		<line fill="none" stroke="#231F20" stroke-width="3" x1="1.061" y1="-1.061" x2="9.547" y2="-9.545"/>
		<line fill="none" stroke="#231F20" stroke-width="3" x1="18.03" y1="-9.545" x2="26.517" y2="-18.03"/>
		<line fill="none" stroke="#231F20" stroke-width="3" x1="9.546" y1="-9.545" x2="18.032" y2="-18.03"/>
		<line fill="none" stroke="#231F20" stroke-width="3" x1="1.061" y1="-9.545" x2="9.547" y2="-18.03"/>
		<line fill="none" stroke="#231F20" stroke-width="3" x1="18.03" y1="-18.029" x2="26.517" y2="-26.514"/>
		<line fill="none" stroke="#231F20" stroke-width="3" x1="9.546" y1="-18.029" x2="18.032" y2="-26.514"/>
		<line fill="none" stroke="#231F20" stroke-width="3" x1="1.061" y1="-18.029" x2="9.547" y2="-26.514"/>
	</g>
</pattern>
<g id="BACKGROUND">
</g>
<g id="GRAPHICS">
	<rect x="127.108" y="16" fill="#EEEFF0" width="29.734" height="137.962"/>
	<rect x="188.693" y="127.895" fill="#BFB980" width="47.245" height="16"/>
	<rect x="170.36" fill="#0079AE" width="56" height="16"/>
	<g>
		<rect x="171.999" y="2.506" fill="none" width="82.214" height="151.456"/>
		<path fill="#FFFFFF" d="M177.295,12.797c-3.068,0-4.777-2.017-4.777-5.001c0-2.998,1.85-5.028,4.834-5.028
			c1.189,0,2.185,0.28,2.955,0.714l-0.322,2.102c-0.729-0.477-1.583-0.84-2.578-0.84c-1.666,0-2.479,1.232-2.479,3.039
			c0,1.82,0.84,3.096,2.508,3.096c0.531,0,0.91-0.112,1.303-0.309V8.847h-1.682l-0.28-1.779h4.048v4.707
			C179.816,12.433,178.625,12.797,177.295,12.797z"/>
		<path fill="#FFFFFF" d="M184.531,8.805v3.81h-2.115V5.751h1.85l0.225,1.359c0.42-0.785,0.994-1.43,2.002-1.5l0.351,2.158
			C185.82,7.839,185.05,8.244,184.531,8.805z"/>
		<path fill="#FFFFFF" d="M190.9,12.755c-2.059,0-3.529-1.106-3.529-3.544c0-2.241,1.373-3.601,3.236-3.601
			c2.115,0,3.039,1.569,3.039,3.559c0,0.21-0.014,0.434-0.027,0.547h-4.146c0.111,1.092,0.756,1.498,1.695,1.498
			c0.756,0,1.498-0.28,2.254-0.729l0.211,1.499C192.891,12.46,191.979,12.755,190.9,12.755z M189.459,8.553h2.17
			c-0.069-1.036-0.434-1.569-1.078-1.569C189.949,6.983,189.528,7.502,189.459,8.553z"/>
		<path fill="#FFFFFF" d="M198.111,12.755c-2.06,0-3.53-1.106-3.53-3.544c0-2.241,1.373-3.601,3.235-3.601
			c2.115,0,3.04,1.569,3.04,3.559c0,0.21-0.014,0.434-0.028,0.547h-4.146c0.113,1.092,0.758,1.498,1.695,1.498
			c0.757,0,1.499-0.28,2.256-0.729l0.21,1.499C200.1,12.46,199.189,12.755,198.111,12.755z M196.668,8.553h2.172
			c-0.07-1.036-0.435-1.569-1.079-1.569C197.158,6.983,196.738,7.502,196.668,8.553z"/>
		<path fill="#FFFFFF" d="M205.111,12.741c-1.976,0-3.32-1.289-3.32-3.502c0-2.41,1.541-3.6,3.418-3.6
			c0.826,0,1.484,0.209,2.031,0.518l-0.28,1.82c-0.532-0.35-0.98-0.518-1.541-0.518c-0.868,0-1.485,0.574-1.485,1.723
			c0,1.177,0.688,1.737,1.541,1.737c0.505,0,0.995-0.14,1.569-0.519l0.252,1.737C206.623,12.545,205.951,12.741,205.111,12.741z"/>
		<path fill="#FFFFFF" d="M211.662,12.755c-2.059,0-3.529-1.106-3.529-3.544c0-2.241,1.373-3.601,3.236-3.601
			c2.115,0,3.039,1.569,3.039,3.559c0,0.21-0.014,0.434-0.027,0.547h-4.146c0.111,1.092,0.756,1.498,1.695,1.498
			c0.756,0,1.498-0.28,2.254-0.729l0.211,1.499C213.652,12.46,212.741,12.755,211.662,12.755z M210.221,8.553h2.17
			c-0.069-1.036-0.434-1.569-1.078-1.569C210.711,6.983,210.29,7.502,210.221,8.553z"/>
		<path fill="#FFFFFF" d="M216.783,7.362l-1.289-0.295l0.295-4.117h2.395L216.783,7.362z"/>
		<path fill="#FFFFFF" d="M221.317,12.741c-1.093,0-2.115-0.309-2.829-0.673l0.252-1.625c0.812,0.505,1.807,0.812,2.592,0.812
			c0.588,0,0.867-0.21,0.867-0.532c0-0.336-0.195-0.504-1.162-0.742c-1.723-0.448-2.451-0.925-2.451-2.213
			c0-1.275,0.953-2.144,2.647-2.144c0.925,0,1.807,0.183,2.521,0.505l-0.266,1.624c-0.742-0.406-1.582-0.644-2.255-0.644
			c-0.49,0-0.729,0.182-0.729,0.447c0,0.295,0.196,0.449,1.163,0.715c1.82,0.477,2.465,0.953,2.465,2.227
			C224.133,11.956,223.139,12.741,221.317,12.741z"/>
		<path fill="#313431" d="M230.584,8.805v3.81h-2.115V5.751h1.85l0.225,1.359c0.42-0.785,0.994-1.43,2.002-1.5l0.351,2.158
			C231.873,7.839,231.103,8.244,230.584,8.805z"/>
		<path fill="#313431" d="M236.702,12.755c-1.892,0-3.278-1.359-3.278-3.559s1.401-3.586,3.293-3.586
			c1.904,0,3.305,1.373,3.305,3.572S238.607,12.755,236.702,12.755z M236.717,7.348c-0.812,0-1.247,0.715-1.247,1.835
			c0,1.107,0.448,1.863,1.247,1.863c0.812,0,1.26-0.742,1.26-1.85C237.977,8.091,237.529,7.348,236.717,7.348z"/>
		<path fill="#313431" d="M241.32,12.614V2.837l2.129-0.336v10.113H241.32z"/>
		<path fill="#313431" d="M248.281,12.755c-2.061,0-3.531-1.106-3.531-3.544c0-2.241,1.373-3.601,3.236-3.601
			c2.115,0,3.039,1.569,3.039,3.559c0,0.21-0.014,0.434-0.027,0.547h-4.146c0.112,1.092,0.756,1.498,1.695,1.498
			c0.756,0,1.498-0.28,2.255-0.729l0.21,1.499C250.27,12.46,249.359,12.755,248.281,12.755z M246.838,8.553h2.171
			c-0.069-1.036-0.435-1.569-1.079-1.569C247.328,6.983,246.908,7.502,246.838,8.553z"/>
		<path fill="#313431" d="M176.553,28.614l-0.141-0.854c-0.561,0.588-1.232,0.994-2.156,0.994c-1.094,0-1.863-0.658-1.863-1.905
			c0-1.61,1.232-2.367,3.922-2.605v-0.126c0-0.602-0.336-0.868-1.051-0.868c-0.756,0-1.484,0.21-2.213,0.519l-0.238-1.598
			c0.771-0.322,1.667-0.531,2.787-0.531c1.891,0,2.83,0.63,2.83,2.381v4.594H176.553z M176.314,25.267
			c-1.443,0.225-1.835,0.701-1.835,1.303c0,0.435,0.267,0.673,0.673,0.673c0.392,0,0.783-0.183,1.162-0.519V25.267z"/>
		<path fill="#313431" d="M182.516,28.741c-1.093,0-2.115-0.309-2.83-0.673l0.252-1.625c0.812,0.505,1.808,0.812,2.592,0.812
			c0.588,0,0.869-0.21,0.869-0.532c0-0.336-0.196-0.504-1.163-0.742c-1.723-0.448-2.451-0.925-2.451-2.213
			c0-1.275,0.952-2.144,2.647-2.144c0.924,0,1.807,0.183,2.521,0.505l-0.267,1.624c-0.742-0.406-1.583-0.644-2.255-0.644
			c-0.49,0-0.729,0.182-0.729,0.447c0,0.295,0.196,0.449,1.162,0.715c1.821,0.477,2.466,0.953,2.466,2.227
			C185.331,27.956,184.336,28.741,182.516,28.741z"/>
		<path fill="#313431" d="M192.539,28.713c-1.471,0-2.494-0.532-2.494-2.283v-2.956h-0.91v-1.723h0.91v-2.045l2.102-0.336v2.381
			h1.303l0.266,1.723h-1.568v2.619c0,0.547,0.28,0.812,0.841,0.812c0.183,0,0.364-0.027,0.519-0.069l0.252,1.737
			C193.422,28.671,193.1,28.713,192.539,28.713z"/>
		<path fill="#313431" d="M198.867,28.614v-4.3c0-0.49-0.195-0.827-0.699-0.827c-0.406,0-0.785,0.238-1.163,0.617v4.51h-2.115
			v-9.777l2.115-0.336v4.104c0.574-0.56,1.204-0.995,2.045-0.995c1.274,0,1.946,0.785,1.946,2.13v4.874H198.867z"/>
		<path fill="#313431" d="M205.74,28.755c-2.059,0-3.529-1.106-3.529-3.544c0-2.241,1.373-3.601,3.236-3.601
			c2.115,0,3.039,1.569,3.039,3.559c0,0.21-0.014,0.434-0.027,0.547h-4.146c0.111,1.092,0.756,1.498,1.695,1.498
			c0.756,0,1.498-0.28,2.254-0.729l0.211,1.499C207.73,28.46,206.819,28.755,205.74,28.755z M204.299,24.553h2.17
			c-0.069-1.036-0.434-1.569-1.078-1.569C204.789,22.983,204.368,23.502,204.299,24.553z"/>
		<path fill="#313431" d="M215.694,28.713c-1.472,0-2.493-0.532-2.493-2.283v-2.956h-0.91v-1.723h0.91v-2.045l2.101-0.336v2.381
			h1.303l0.267,1.723h-1.569v2.619c0,0.547,0.28,0.812,0.841,0.812c0.182,0,0.364-0.027,0.518-0.069l0.252,1.737
			C216.576,28.671,216.254,28.713,215.694,28.713z"/>
		<path fill="#313431" d="M220.928,28.755c-1.891,0-3.277-1.359-3.277-3.559s1.4-3.586,3.292-3.586c1.905,0,3.306,1.373,3.306,3.572
			S222.834,28.755,220.928,28.755z M220.942,23.348c-0.812,0-1.247,0.715-1.247,1.835c0,1.107,0.449,1.863,1.247,1.863
			c0.812,0,1.261-0.742,1.261-1.85C222.203,24.091,221.755,23.348,220.942,23.348z"/>
		<path fill="#313431" d="M229.062,28.685c-0.617,0-1.051-0.111-1.443-0.238v2.438l-2.115,0.336v-9.469h1.863l0.141,0.896
			c0.476-0.518,1.092-1.037,1.975-1.037c1.414,0,2.479,1.065,2.479,3.391C231.962,27.606,230.575,28.685,229.062,28.685z
			 M228.796,23.502c-0.462,0-0.812,0.28-1.177,0.7v2.605c0.295,0.141,0.547,0.211,0.967,0.211c0.715,0,1.246-0.547,1.246-1.878
			C229.832,23.992,229.398,23.502,228.796,23.502z"/>
		<path fill="#313431" d="M176.286,44.685c-0.616,0-1.05-0.111-1.442-0.238v2.438l-2.115,0.336v-9.469h1.863l0.14,0.896
			c0.476-0.518,1.093-1.037,1.976-1.037c1.414,0,2.479,1.065,2.479,3.391C179.186,43.606,177.799,44.685,176.286,44.685z
			 M176.02,39.502c-0.461,0-0.812,0.28-1.176,0.7v2.605c0.294,0.141,0.546,0.211,0.967,0.211c0.714,0,1.246-0.547,1.246-1.878
			C177.057,39.992,176.623,39.502,176.02,39.502z"/>
		<path fill="#313431" d="M182.6,40.805v3.81h-2.115v-6.863h1.85l0.223,1.359c0.421-0.785,0.995-1.43,2.004-1.5l0.35,2.158
			C183.889,39.839,183.117,40.244,182.6,40.805z"/>
		<path fill="#313431" d="M188.717,44.755c-1.891,0-3.277-1.359-3.277-3.559s1.4-3.586,3.291-3.586c1.905,0,3.307,1.373,3.307,3.572
			S190.622,44.755,188.717,44.755z M188.73,39.348c-0.812,0-1.246,0.715-1.246,1.835c0,1.107,0.448,1.863,1.246,1.863
			c0.812,0,1.262-0.742,1.262-1.85C189.992,40.091,189.543,39.348,188.73,39.348z"/>
		<path fill="#313431" d="M197.58,44.614l-0.154-0.896c-0.448,0.519-1.078,1.037-1.961,1.037c-1.4,0-2.479-1.064-2.479-3.376
			c0-2.619,1.387-3.685,2.899-3.685c0.616,0,1.064,0.099,1.443,0.238v-3.096l2.129-0.336v10.113H197.58z M197.328,39.558
			c-0.295-0.14-0.533-0.195-0.98-0.195c-0.701,0-1.233,0.546-1.233,1.863c0,1.176,0.448,1.652,1.051,1.652
			c0.448,0,0.812-0.295,1.163-0.701V39.558z"/>
		<path fill="#313431" d="M205.252,44.614l-0.154-0.938c-0.631,0.615-1.289,1.078-2.144,1.078c-1.274,0-1.946-0.785-1.946-2.115
			v-4.889h2.115v4.301c0,0.49,0.209,0.84,0.714,0.84c0.405,0,0.784-0.238,1.163-0.616v-4.524h2.114v6.863H205.252z"/>
		<path fill="#313431" d="M211.69,44.741c-1.976,0-3.319-1.289-3.319-3.502c0-2.41,1.541-3.6,3.418-3.6
			c0.826,0,1.484,0.209,2.031,0.518l-0.281,1.82c-0.531-0.35-0.98-0.518-1.541-0.518c-0.867,0-1.484,0.574-1.484,1.723
			c0,1.177,0.687,1.737,1.541,1.737c0.504,0,0.994-0.14,1.568-0.519l0.252,1.737C213.203,44.545,212.531,44.741,211.69,44.741z"/>
		<path fill="#313431" d="M218.242,44.755c-2.06,0-3.53-1.106-3.53-3.544c0-2.241,1.373-3.601,3.235-3.601
			c2.115,0,3.04,1.569,3.04,3.559c0,0.21-0.014,0.434-0.028,0.547h-4.146c0.113,1.092,0.758,1.498,1.695,1.498
			c0.757,0,1.499-0.28,2.256-0.729l0.21,1.499C220.23,44.46,219.32,44.755,218.242,44.755z M216.799,40.553h2.172
			c-0.07-1.036-0.435-1.569-1.079-1.569C217.289,38.983,216.869,39.502,216.799,40.553z"/>
		<path fill="#313431" d="M224.373,40.805v3.81h-2.115v-6.863h1.85l0.225,1.359c0.42-0.785,0.994-1.43,2.002-1.5l0.351,2.158
			C225.662,39.839,224.892,40.244,224.373,40.805z"/>
		<path fill="#313431" d="M175.643,60.755c-1.695,0-2.971-1.261-2.971-3.445c0-2.199,1.289-3.461,2.971-3.461
			c1.723,0,3.012,1.262,3.012,3.461C178.654,59.494,177.337,60.755,175.643,60.755z M175.643,54.634
			c-1.233,0-2.031,1.022-2.031,2.676c0,1.61,0.826,2.66,2.031,2.66c1.246,0,2.059-1.008,2.059-2.66
			C177.701,55.685,176.889,54.634,175.643,54.634z"/>
		<path fill="#313431" d="M182.838,51.44c-0.631,0-1.009,0.293-1.009,1.021v1.527h1.358l0.127,0.784h-1.485v5.841h-0.911v-5.841
			h-1.008v-0.784h1.008v-1.598c0-1.232,0.729-1.778,1.863-1.778c0.211,0,0.336,0.015,0.477,0.028l0.141,0.854
			C183.271,51.468,183.09,51.44,182.838,51.44z"/>
		<path fill="#313431" d="M190.188,60.727c-1.037,0-1.723-0.405-1.723-1.624v-4.329h-1.023v-0.784h1.023v-2.297l0.91-0.154v2.451
			h1.526l0.126,0.784h-1.652v4.175c0,0.672,0.266,0.967,0.98,0.967c0.21,0,0.462-0.043,0.616-0.07l0.14,0.77
			C190.916,60.671,190.58,60.727,190.188,60.727z"/>
		<path fill="#313431" d="M199.274,60.671h-0.812l-1.653-5.436l-1.639,5.436h-0.799l-2.199-6.625l0.896-0.169l1.709,5.562
			l1.653-5.478h0.812l1.653,5.478l1.639-5.449h0.938L199.274,60.671z"/>
		<path fill="#313431" d="M205.5,60.755c-1.695,0-2.971-1.261-2.971-3.445c0-2.199,1.289-3.461,2.971-3.461
			c1.723,0,3.012,1.262,3.012,3.461C208.512,59.494,207.194,60.755,205.5,60.755z M205.5,54.634c-1.233,0-2.031,1.022-2.031,2.676
			c0,1.61,0.826,2.66,2.031,2.66c1.246,0,2.059-1.008,2.059-2.66C207.559,55.685,206.746,54.634,205.5,54.634z"/>
		<path fill="#313431" d="M222.135,60.614v-4.566c0-0.854-0.352-1.358-1.205-1.358c-0.687,0-1.373,0.406-2.102,1.12v4.805h-0.91
			v-4.566c0-0.854-0.351-1.358-1.205-1.358c-0.686,0-1.387,0.406-2.102,1.106v4.818h-0.924v-6.625h0.715l0.154,0.953
			c0.714-0.631,1.456-1.094,2.338-1.094c1.023,0,1.584,0.421,1.822,1.148c0.729-0.658,1.498-1.148,2.408-1.148
			c1.317,0,1.934,0.757,1.934,2.018v4.748H222.135z"/>
		<path fill="#313431" d="M229.342,60.614l-0.154-0.882c-0.616,0.574-1.387,1.022-2.34,1.022c-1.148,0-1.975-0.631-1.975-1.807
			c0-1.555,1.261-2.283,4.258-2.578v-0.434c0-0.896-0.531-1.275-1.372-1.275c-0.784,0-1.555,0.238-2.283,0.589l-0.126-0.827
			c0.77-0.336,1.527-0.574,2.465-0.574c1.471,0,2.228,0.673,2.228,2.045v4.721H229.342z M229.131,57.099
			c-2.605,0.267-3.333,0.896-3.333,1.793c0,0.701,0.49,1.078,1.19,1.078c0.715,0,1.499-0.392,2.143-0.994V57.099z"/>
		<path fill="#313431" d="M231.789,63.136c-0.182,0-0.42-0.014-0.547-0.041l-0.125-0.827c0.168,0.042,0.35,0.056,0.531,0.056
			c0.463,0,0.729-0.224,0.729-0.784v-7.55h0.925v7.648C233.302,62.688,232.658,63.136,231.789,63.136z M232.84,52.406
			c-0.364,0-0.673-0.308-0.673-0.673c0-0.363,0.309-0.672,0.673-0.672c0.363,0,0.658,0.309,0.658,0.672
			C233.498,52.099,233.203,52.406,232.84,52.406z"/>
		<path fill="#313431" d="M238.259,60.755c-1.694,0-2.97-1.261-2.97-3.445c0-2.199,1.289-3.461,2.97-3.461
			c1.723,0,3.012,1.262,3.012,3.461C241.271,59.494,239.953,60.755,238.259,60.755z M238.259,54.634
			c-1.233,0-2.031,1.022-2.031,2.676c0,1.61,0.827,2.66,2.031,2.66c1.247,0,2.06-1.008,2.06-2.66
			C240.318,55.685,239.506,54.634,238.259,54.634z"/>
		<path fill="#313431" d="M244.082,56.454v4.16h-0.925v-6.625h0.687l0.21,1.358c0.49-0.742,1.261-1.471,2.353-1.499l0.154,0.869
			C245.469,54.788,244.529,55.572,244.082,56.454z"/>
		<path fill="#313431" d="M177.127,76.614l-0.154-0.882c-0.616,0.574-1.387,1.022-2.34,1.022c-1.148,0-1.975-0.631-1.975-1.807
			c0-1.555,1.261-2.283,4.258-2.578v-0.434c0-0.896-0.531-1.275-1.372-1.275c-0.784,0-1.555,0.238-2.283,0.589l-0.126-0.827
			c0.77-0.336,1.527-0.574,2.465-0.574c1.471,0,2.228,0.673,2.228,2.045v4.721H177.127z M176.916,73.099
			c-2.605,0.267-3.333,0.896-3.333,1.793c0,0.701,0.49,1.078,1.19,1.078c0.715,0,1.499-0.392,2.143-0.994V73.099z"/>
		<path fill="#313431" d="M184.379,79.179v-3.433c-0.477,0.519-1.12,1.009-2.045,1.009c-1.443,0-2.661-1.037-2.661-3.264
			c0-2.424,1.387-3.6,3.222-3.6c0.924,0,1.667,0.182,2.409,0.434v8.699L184.379,79.179z M184.379,70.97
			c-0.42-0.154-0.854-0.28-1.526-0.28c-1.317,0-2.228,0.868-2.228,2.76c0,1.61,0.757,2.479,1.807,2.479
			c0.743,0,1.359-0.477,1.947-1.163V70.97z"/>
		<path fill="#313431" d="M192.051,76.614l-0.154-0.98c-0.729,0.645-1.484,1.121-2.381,1.121c-1.33,0-1.975-0.771-1.975-2.031
			v-4.734h0.924v4.566c0,0.854,0.393,1.359,1.232,1.359c0.701,0,1.416-0.421,2.144-1.135v-4.791h0.925v6.625H192.051z"/>
		<path fill="#313431" d="M199.107,76.614l-0.154-0.882c-0.617,0.574-1.387,1.022-2.34,1.022c-1.148,0-1.975-0.631-1.975-1.807
			c0-1.555,1.26-2.283,4.258-2.578v-0.434c0-0.896-0.532-1.275-1.373-1.275c-0.784,0-1.555,0.238-2.283,0.589l-0.125-0.827
			c0.77-0.336,1.526-0.574,2.465-0.574c1.471,0,2.227,0.673,2.227,2.045v4.721H199.107z M198.896,73.099
			c-2.605,0.267-3.334,0.896-3.334,1.793c0,0.701,0.49,1.078,1.191,1.078c0.714,0,1.498-0.392,2.143-0.994V73.099z"/>
		<path fill="#313431" d="M204.637,76.755c-1.695,0-2.998-1.261-2.998-3.445c0-2.229,1.345-3.461,3.054-3.461
			c0.896,0,1.61,0.295,2.129,0.673l-0.153,0.925c-0.617-0.519-1.233-0.785-1.99-0.785c-1.219,0-2.101,0.939-2.101,2.634
			c0,1.667,0.896,2.647,2.144,2.647c0.7,0,1.358-0.21,2.031-0.799l0.125,0.869C206.275,76.489,205.547,76.755,204.637,76.755z"/>
		<path fill="#313431" d="M213.149,76.614l-0.154-0.98c-0.729,0.645-1.485,1.121-2.382,1.121c-1.33,0-1.975-0.771-1.975-2.031
			v-4.734h0.925v4.566c0,0.854,0.392,1.359,1.232,1.359c0.7,0,1.415-0.421,2.144-1.135v-4.791h0.924v6.625H213.149z"/>
		<path fill="#313431" d="M216.254,76.614v-9.889l0.925-0.168v10.057H216.254z"/>
		<path fill="#313431" d="M221.617,76.727c-1.037,0-1.723-0.405-1.723-1.624v-4.329h-1.022v-0.784h1.022v-2.297l0.91-0.154v2.451
			h1.527l0.126,0.784h-1.653v4.175c0,0.672,0.266,0.967,0.98,0.967c0.211,0,0.463-0.043,0.617-0.07l0.14,0.77
			C222.346,76.671,222.01,76.727,221.617,76.727z"/>
		<path fill="#313431" d="M228.787,76.614l-0.154-0.98c-0.729,0.645-1.485,1.121-2.382,1.121c-1.331,0-1.976-0.771-1.976-2.031
			v-4.734h0.926v4.566c0,0.854,0.392,1.359,1.232,1.359c0.699,0,1.414-0.421,2.143-1.135v-4.791h0.925v6.625H228.787z"/>
		<path fill="#313431" d="M232.718,72.454v4.16h-0.925v-6.625h0.688l0.209,1.358c0.49-0.742,1.262-1.471,2.354-1.499l0.154,0.869
			C234.104,70.788,233.166,71.572,232.718,72.454z"/>
		<path fill="#313431" d="M239.074,76.755c-1.737,0-2.984-1.177-2.984-3.46c0-2.129,1.205-3.446,2.844-3.446
			c1.793,0,2.689,1.485,2.689,3.32v0.196h-4.608c0.028,1.639,0.784,2.591,2.13,2.591c0.867,0,1.639-0.393,2.324-0.98l0.141,0.841
			C240.951,76.376,240.097,76.755,239.074,76.755z M237.043,72.637h3.628c-0.084-1.19-0.687-2.046-1.751-2.046
			C237.953,70.591,237.225,71.306,237.043,72.637z"/>
		<path fill="#313431" d="M175.012,92.741c-0.883,0-1.807-0.281-2.381-0.603l0.154-0.896c0.615,0.392,1.428,0.7,2.311,0.7
			c0.924,0,1.498-0.379,1.498-1.051c0-0.658-0.392-0.952-1.708-1.303c-1.472-0.378-2.101-0.854-2.101-1.947
			c0-1.036,0.882-1.793,2.254-1.793c0.785,0,1.471,0.183,2.06,0.449l-0.153,0.882c-0.604-0.322-1.275-0.519-1.934-0.519
			c-0.91,0-1.345,0.406-1.345,0.939c0,0.546,0.364,0.826,1.485,1.12c1.568,0.42,2.324,0.925,2.324,2.101
			C177.477,92.026,176.539,92.741,175.012,92.741z"/>
		<path fill="#313431" d="M181.998,92.698c-0.658,0-1.246-0.125-1.723-0.322v2.648l-0.925,0.154v-9.189h0.714l0.154,0.953
			c0.519-0.589,1.177-1.094,2.144-1.094c1.442,0,2.661,1.051,2.661,3.264C185.023,91.536,183.609,92.698,181.998,92.698z
			 M182.264,86.676c-0.784,0-1.387,0.462-1.988,1.19v3.656c0.518,0.252,1.008,0.393,1.695,0.393c1.189,0,2.114-0.911,2.114-2.76
			C184.085,87.544,183.314,86.676,182.264,86.676z"/>
		<path fill="#313431" d="M189.502,92.755c-1.737,0-2.984-1.177-2.984-3.46c0-2.129,1.205-3.446,2.844-3.446
			c1.793,0,2.689,1.485,2.689,3.32v0.196h-4.608c0.028,1.639,0.784,2.591,2.13,2.591c0.867,0,1.639-0.393,2.324-0.98l0.141,0.841
			C191.379,92.376,190.524,92.755,189.502,92.755z M187.471,88.637h3.628c-0.084-1.19-0.687-2.046-1.751-2.046
			C188.381,86.591,187.652,87.306,187.471,88.637z"/>
		<path fill="#313431" d="M196.529,92.755c-1.694,0-2.997-1.261-2.997-3.445c0-2.229,1.345-3.461,3.054-3.461
			c0.896,0,1.611,0.295,2.129,0.673l-0.154,0.925c-0.615-0.519-1.232-0.785-1.988-0.785c-1.219,0-2.102,0.939-2.102,2.634
			c0,1.667,0.896,2.647,2.143,2.647c0.701,0,1.359-0.21,2.031-0.799l0.127,0.869C198.169,92.489,197.44,92.755,196.529,92.755z"/>
		<path fill="#313431" d="M201.148,84.406c-0.363,0-0.672-0.308-0.672-0.673c0-0.363,0.309-0.672,0.672-0.672
			c0.364,0,0.658,0.309,0.658,0.672C201.807,84.099,201.513,84.406,201.148,84.406z M200.687,92.614v-6.625h0.925v6.625H200.687z"/>
		<path fill="#313431" d="M206.582,92.755c-1.737,0-2.984-1.177-2.984-3.46c0-2.129,1.205-3.446,2.844-3.446
			c1.793,0,2.689,1.485,2.689,3.32v0.196h-4.608c0.028,1.639,0.784,2.591,2.13,2.591c0.867,0,1.639-0.393,2.324-0.98l0.141,0.841
			C208.459,92.376,207.604,92.755,206.582,92.755z M204.551,88.637h3.628c-0.084-1.19-0.687-2.046-1.751-2.046
			C205.461,86.591,204.732,87.306,204.551,88.637z"/>
		<path fill="#313431" d="M212.951,92.741c-0.883,0-1.807-0.281-2.381-0.603l0.154-0.896c0.615,0.392,1.428,0.7,2.311,0.7
			c0.924,0,1.498-0.379,1.498-1.051c0-0.658-0.392-0.952-1.708-1.303c-1.472-0.378-2.101-0.854-2.101-1.947
			c0-1.036,0.882-1.793,2.254-1.793c0.785,0,1.471,0.183,2.06,0.449l-0.153,0.882c-0.604-0.322-1.275-0.519-1.934-0.519
			c-0.91,0-1.345,0.406-1.345,0.939c0,0.546,0.364,0.826,1.485,1.12c1.568,0.42,2.324,0.925,2.324,2.101
			C215.416,92.026,214.479,92.741,212.951,92.741z"/>
		<path fill="#313431" d="M221.141,84.406c-0.364,0-0.673-0.308-0.673-0.673c0-0.363,0.309-0.672,0.673-0.672
			c0.363,0,0.658,0.309,0.658,0.672C221.799,84.099,221.504,84.406,221.141,84.406z M220.678,92.614v-6.625h0.925v6.625H220.678z"/>
		<path fill="#313431" d="M225.929,92.741c-0.882,0-1.808-0.281-2.382-0.603l0.154-0.896c0.617,0.392,1.43,0.7,2.312,0.7
			c0.925,0,1.499-0.379,1.499-1.051c0-0.658-0.393-0.952-1.709-1.303c-1.471-0.378-2.102-0.854-2.102-1.947
			c0-1.036,0.883-1.793,2.256-1.793c0.784,0,1.471,0.183,2.059,0.449l-0.154,0.882c-0.602-0.322-1.274-0.519-1.933-0.519
			c-0.911,0-1.345,0.406-1.345,0.939c0,0.546,0.364,0.826,1.484,1.12c1.569,0.42,2.326,0.925,2.326,2.101
			C228.395,92.026,227.455,92.741,225.929,92.741z"/>
		<path fill="#313431" d="M175.488,108.698c-0.925,0-1.668-0.182-2.41-0.434v-9.539l0.925-0.168v4.3
			c0.477-0.532,1.12-1.009,2.046-1.009c1.441,0,2.66,1.051,2.66,3.264C178.709,107.536,177.322,108.698,175.488,108.698z
			 M175.95,102.676c-0.743,0-1.358,0.462-1.947,1.148v3.81c0.421,0.154,0.854,0.267,1.526,0.267c1.317,0,2.242-0.854,2.242-2.745
			C177.771,103.544,177,102.676,175.95,102.676z"/>
		<path fill="#313431" d="M183.188,108.755c-1.736,0-2.982-1.177-2.982-3.46c0-2.129,1.204-3.446,2.844-3.446
			c1.793,0,2.689,1.485,2.689,3.32v0.196h-4.609c0.028,1.639,0.785,2.591,2.129,2.591c0.869,0,1.639-0.393,2.326-0.98l0.14,0.841
			C185.065,108.376,184.211,108.755,183.188,108.755z M181.157,104.637h3.628c-0.084-1.19-0.687-2.046-1.751-2.046
			C182.067,102.591,181.34,103.306,181.157,104.637z"/>
		<path fill="#313431" d="M188.185,100.406c-0.364,0-0.673-0.308-0.673-0.673c0-0.363,0.309-0.672,0.673-0.672
			s0.659,0.309,0.659,0.672C188.844,100.099,188.549,100.406,188.185,100.406z M187.723,108.614v-6.625h0.924v6.625H187.723z"/>
		<path fill="#313431" d="M195.341,108.614v-4.566c0-0.854-0.392-1.358-1.233-1.358c-0.699,0-1.414,0.421-2.143,1.135v4.79h-0.924
			v-6.625h0.714l0.154,0.98c0.728-0.645,1.484-1.121,2.381-1.121c1.317,0,1.976,0.757,1.976,2.031v4.734H195.341z"/>
		<path fill="#313431" d="M200.771,111.136c-1.709,0-3.025-0.574-3.025-1.723c0-0.672,0.518-1.246,1.513-1.751
			c-0.336-0.21-0.49-0.448-0.49-0.7c0-0.336,0.224-0.616,0.658-0.883c-0.728-0.363-1.218-1.064-1.218-1.975
			c0-1.4,1.162-2.256,2.451-2.256c0.658,0,1.232,0.197,1.68,0.561l1.653-0.532l0.154,0.911l-1.331,0.14
			c0.225,0.336,0.351,0.729,0.351,1.177c0,1.4-1.163,2.255-2.479,2.255c-0.195,0-0.393-0.014-0.588-0.056
			c-0.28,0.154-0.42,0.322-0.42,0.477c0,0.266,0.266,0.363,1.484,0.588l0.49,0.098c1.471,0.267,2.27,0.701,2.27,1.682
			C203.924,110.436,202.48,111.136,200.771,111.136z M199.987,107.956c-0.911,0.42-1.331,0.869-1.331,1.4
			c0,0.688,0.869,1.079,2.172,1.079c1.344,0,2.213-0.519,2.213-1.177c0-0.518-0.42-0.799-1.598-1.022l-0.644-0.112
			C200.463,108.055,200.239,108.026,199.987,107.956z M200.66,102.536c-0.939,0-1.541,0.686-1.541,1.596
			c0,0.855,0.602,1.541,1.568,1.541s1.568-0.672,1.568-1.568C202.256,103.235,201.612,102.536,200.66,102.536z"/>
		<path fill="#313431" d="M175.67,124.755c-1.695,0-2.998-1.261-2.998-3.445c0-2.229,1.346-3.461,3.055-3.461
			c0.896,0,1.61,0.295,2.129,0.673l-0.154,0.925c-0.616-0.519-1.232-0.785-1.989-0.785c-1.219,0-2.101,0.939-2.101,2.634
			c0,1.667,0.896,2.647,2.143,2.647c0.701,0,1.359-0.21,2.031-0.799l0.126,0.869C177.309,124.489,176.58,124.755,175.67,124.755z"/>
		<path fill="#313431" d="M184.029,124.614v-4.566c0-0.854-0.393-1.358-1.232-1.358c-0.701,0-1.416,0.421-2.145,1.135v4.79h-0.924
			v-9.889l0.924-0.168v4.37c0.688-0.603,1.43-1.079,2.326-1.079c1.316,0,1.975,0.757,1.975,2.018v4.748H184.029z"/>
		<path fill="#313431" d="M191.238,124.614l-0.154-0.882c-0.616,0.574-1.387,1.022-2.34,1.022c-1.148,0-1.975-0.631-1.975-1.807
			c0-1.555,1.261-2.283,4.258-2.578v-0.434c0-0.896-0.531-1.275-1.372-1.275c-0.784,0-1.555,0.238-2.283,0.589l-0.126-0.827
			c0.77-0.336,1.527-0.574,2.465-0.574c1.471,0,2.228,0.673,2.228,2.045v4.721H191.238z M191.027,121.099
			c-2.605,0.267-3.333,0.896-3.333,1.793c0,0.701,0.49,1.078,1.19,1.078c0.715,0,1.499-0.392,2.143-0.994V121.099z"/>
		<path fill="#313431" d="M194.274,124.614v-9.889l0.925-0.168v10.057H194.274z"/>
		<path fill="#313431" d="M197.69,124.614v-9.889l0.925-0.168v10.057H197.69z"/>
		<path fill="#313431" d="M203.586,124.755c-1.737,0-2.984-1.177-2.984-3.46c0-2.129,1.205-3.446,2.844-3.446
			c1.793,0,2.689,1.485,2.689,3.32v0.196h-4.608c0.028,1.639,0.784,2.591,2.13,2.591c0.867,0,1.639-0.393,2.324-0.98l0.141,0.841
			C205.463,124.376,204.608,124.755,203.586,124.755z M201.555,120.637h3.628c-0.084-1.19-0.687-2.046-1.751-2.046
			C202.465,118.591,201.736,119.306,201.555,120.637z"/>
		<path fill="#313431" d="M212.322,124.614v-4.566c0-0.854-0.393-1.358-1.232-1.358c-0.701,0-1.415,0.421-2.144,1.135v4.79h-0.925
			v-6.625h0.715l0.154,0.98c0.729-0.645,1.484-1.121,2.381-1.121c1.316,0,1.975,0.757,1.975,2.031v4.734H212.322z"/>
		<path fill="#313431" d="M217.753,127.136c-1.709,0-3.025-0.574-3.025-1.723c0-0.672,0.519-1.246,1.513-1.751
			c-0.336-0.21-0.49-0.448-0.49-0.7c0-0.336,0.225-0.616,0.658-0.883c-0.729-0.363-1.219-1.064-1.219-1.975
			c0-1.4,1.163-2.256,2.451-2.256c0.658,0,1.232,0.197,1.682,0.561l1.652-0.532l0.154,0.911l-1.33,0.14
			c0.224,0.336,0.35,0.729,0.35,1.177c0,1.4-1.162,2.255-2.479,2.255c-0.196,0-0.392-0.014-0.589-0.056
			c-0.279,0.154-0.42,0.322-0.42,0.477c0,0.266,0.267,0.363,1.485,0.588l0.49,0.098c1.471,0.267,2.269,0.701,2.269,1.682
			C220.904,126.436,219.462,127.136,217.753,127.136z M216.969,123.956c-0.91,0.42-1.33,0.869-1.33,1.4
			c0,0.688,0.867,1.079,2.17,1.079c1.346,0,2.214-0.519,2.214-1.177c0-0.518-0.421-0.799-1.597-1.022l-0.645-0.112
			C217.445,124.055,217.221,124.026,216.969,123.956z M217.641,118.536c-0.938,0-1.541,0.686-1.541,1.596
			c0,0.855,0.604,1.541,1.569,1.541c0.967,0,1.569-0.672,1.569-1.568C219.238,119.235,218.594,118.536,217.641,118.536z"/>
		<path fill="#313431" d="M225.072,124.755c-1.737,0-2.984-1.177-2.984-3.46c0-2.129,1.205-3.446,2.844-3.446
			c1.793,0,2.689,1.485,2.689,3.32v0.196h-4.608c0.028,1.639,0.784,2.591,2.13,2.591c0.867,0,1.639-0.393,2.324-0.98l0.141,0.841
			C226.949,124.376,226.095,124.755,225.072,124.755z M223.041,120.637h3.628c-0.084-1.19-0.687-2.046-1.751-2.046
			C223.951,118.591,223.223,119.306,223.041,120.637z"/>
		<path fill="#313431" d="M234.089,124.614l-0.169-0.966c-0.518,0.603-1.162,1.106-2.129,1.106c-1.457,0-2.675-1.037-2.675-3.264
			c0-2.424,1.415-3.6,3.025-3.6c0.673,0,1.247,0.125,1.724,0.322v-3.488l0.924-0.168v10.057H234.089z M233.865,119.081
			c-0.52-0.266-1.01-0.392-1.695-0.392c-1.191,0-2.102,0.896-2.102,2.76c0,1.61,0.757,2.479,1.807,2.479
			c0.785,0,1.401-0.477,1.99-1.191V119.081z"/>
		<path fill="#313431" d="M175.488,140.698c-0.925,0-1.668-0.182-2.41-0.434v-9.539l0.925-0.168v4.3
			c0.477-0.532,1.12-1.009,2.046-1.009c1.441,0,2.66,1.051,2.66,3.264C178.709,139.536,177.322,140.698,175.488,140.698z
			 M175.95,134.676c-0.743,0-1.358,0.462-1.947,1.148v3.81c0.421,0.154,0.854,0.267,1.526,0.267c1.317,0,2.242-0.854,2.242-2.745
			C177.771,135.544,177,134.676,175.95,134.676z"/>
		<path fill="#313431" d="M182.894,141.483c-0.462,1.274-1.064,1.652-1.989,1.652c-0.182,0-0.309-0.027-0.406-0.041l-0.14-0.827
			c0.153,0.028,0.336,0.056,0.532,0.056c0.574,0,0.91-0.252,1.177-0.98l0.28-0.686l-2.508-6.584l0.91-0.168l2.045,5.631l1.947-5.547
			h0.967L182.894,141.483z"/>
		<path fill="#FFFFFF" d="M195.047,132.98v7.634h-2.41v-7.634h-2.731v-2.03h7.648l0.336,2.03H195.047z"/>
		<path fill="#FFFFFF" d="M201.945,140.614l-0.154-0.938c-0.631,0.615-1.289,1.078-2.143,1.078c-1.275,0-1.947-0.785-1.947-2.115
			v-4.889h2.115v4.301c0,0.49,0.21,0.84,0.715,0.84c0.406,0,0.783-0.238,1.162-0.616v-4.524h2.115v6.863H201.945z"/>
		<path fill="#FFFFFF" d="M207.516,136.805v3.81H205.4v-6.863h1.85l0.225,1.359c0.42-0.785,0.994-1.43,2.002-1.5l0.351,2.158
			C208.805,135.839,208.034,136.244,207.516,136.805z"/>
		<path fill="#FFFFFF" d="M214.908,140.713l-1.975-3.306v3.207h-2.115v-9.777l2.115-0.336v6.052l1.807-2.802h2.326l-2.186,3.152
			l2.241,3.502L214.908,140.713z"/>
		<path fill="#FFFFFF" d="M221.109,140.755c-2.059,0-3.529-1.106-3.529-3.544c0-2.241,1.373-3.601,3.235-3.601
			c2.115,0,3.04,1.569,3.04,3.559c0,0.21-0.014,0.434-0.028,0.547h-4.146c0.112,1.092,0.757,1.498,1.695,1.498
			c0.757,0,1.499-0.28,2.255-0.729l0.211,1.499C223.099,140.46,222.188,140.755,221.109,140.755z M219.667,136.553h2.171
			c-0.07-1.036-0.434-1.569-1.078-1.569C220.157,134.983,219.736,135.502,219.667,136.553z"/>
		<path fill="#FFFFFF" d="M228.807,140.782c-0.615,1.766-1.442,2.382-2.913,2.382c-0.448,0-0.63-0.042-0.827-0.084l-0.279-1.709
			c0.238,0.07,0.447,0.112,0.84,0.112c0.49,0,0.925-0.182,1.163-0.715l0.056-0.14l-2.493-6.71l2.27-0.266l1.316,4.314l1.247-4.217
			h2.072L228.807,140.782z"/>
		<path fill="#FFFFFF" d="M231.618,140.614v-2.408h2.283v2.408H231.618z"/>
	</g>
	<g>
		<rect x="39.993" y="94.185" fill="none" width="76.857" height="49.777"/>
		<path fill="#313431" d="M43.456,100.163h-1.205v4.076h-0.967v-9.665h2.381c1.975,0,3.18,0.98,3.18,2.718
			C46.845,99.196,45.431,100.163,43.456,100.163z M43.609,95.429h-1.358v3.88h1.247c1.471,0,2.367-0.645,2.367-1.976
			C45.865,96.073,45.081,95.429,43.609,95.429z"/>
		<path fill="#313431" d="M49.433,100.079v4.16h-0.924v-6.625h0.687l0.21,1.358c0.49-0.743,1.261-1.472,2.353-1.499l0.154,0.869
			C50.819,98.412,49.881,99.196,49.433,100.079z"/>
		<path fill="#313431" d="M55.774,104.38c-1.695,0-2.97-1.262-2.97-3.446c0-2.199,1.289-3.46,2.97-3.46
			c1.723,0,3.012,1.261,3.012,3.46C58.786,103.118,57.469,104.38,55.774,104.38z M55.774,98.258c-1.233,0-2.031,1.022-2.031,2.676
			c0,1.61,0.827,2.661,2.031,2.661c1.247,0,2.059-1.008,2.059-2.661C57.833,99.309,57.021,98.258,55.774,98.258z"/>
		<path fill="#313431" d="M65.253,104.239l-0.168-0.967c-0.518,0.603-1.163,1.107-2.129,1.107c-1.457,0-2.675-1.037-2.675-3.264
			c0-2.424,1.415-3.601,3.025-3.601c0.672,0,1.247,0.126,1.723,0.322v-3.487l0.924-0.169v10.058H65.253z M65.029,98.706
			c-0.519-0.266-1.009-0.393-1.695-0.393c-1.191,0-2.102,0.896-2.102,2.76c0,1.611,0.757,2.479,1.807,2.479
			c0.785,0,1.401-0.476,1.989-1.19V98.706z"/>
		<path fill="#313431" d="M72.702,104.239l-0.154-0.98c-0.729,0.645-1.485,1.121-2.381,1.121c-1.331,0-1.975-0.771-1.975-2.031
			v-4.734h0.925v4.566c0,0.854,0.392,1.358,1.232,1.358c0.7,0,1.415-0.421,2.143-1.135v-4.79h0.925v6.625H72.702z"/>
		<path fill="#313431" d="M78.3,104.38c-1.695,0-2.998-1.262-2.998-3.446c0-2.228,1.345-3.46,3.054-3.46
			c0.896,0,1.611,0.294,2.129,0.672l-0.154,0.925c-0.616-0.519-1.233-0.784-1.989-0.784c-1.219,0-2.101,0.938-2.101,2.633
			c0,1.668,0.896,2.648,2.143,2.648c0.701,0,1.359-0.211,2.031-0.799l0.126,0.868C79.939,104.113,79.211,104.38,78.3,104.38z"/>
		<path fill="#313431" d="M84.403,104.352c-1.037,0-1.723-0.406-1.723-1.625v-4.329h-1.022v-0.783h1.022v-2.298l0.91-0.154v2.452
			h1.527l0.126,0.783h-1.653v4.175c0,0.673,0.267,0.967,0.981,0.967c0.21,0,0.462-0.042,0.616-0.07l0.14,0.771
			C85.132,104.296,84.796,104.352,84.403,104.352z"/>
		<path fill="#313431" d="M87.678,96.03c-0.364,0-0.672-0.308-0.672-0.672s0.309-0.672,0.672-0.672c0.364,0,0.659,0.308,0.659,0.672
			S88.042,96.03,87.678,96.03z M87.216,104.239v-6.625h0.924v6.625H87.216z"/>
		<path fill="#313431" d="M93.098,104.38c-1.695,0-2.97-1.262-2.97-3.446c0-2.199,1.289-3.46,2.97-3.46
			c1.723,0,3.012,1.261,3.012,3.46C96.109,103.118,94.792,104.38,93.098,104.38z M93.098,98.258c-1.233,0-2.031,1.022-2.031,2.676
			c0,1.61,0.827,2.661,2.031,2.661c1.247,0,2.059-1.008,2.059-2.661C95.157,99.309,94.344,98.258,93.098,98.258z"/>
		<path fill="#313431" d="M102.296,104.239v-4.566c0-0.854-0.392-1.359-1.232-1.359c-0.701,0-1.415,0.421-2.144,1.135v4.791h-0.924
			v-6.625h0.714l0.154,0.98c0.728-0.645,1.484-1.121,2.381-1.121c1.317,0,1.975,0.756,1.975,2.031v4.734H102.296z"/>
		<path fill="#313431" d="M43.638,120.38c-1.695,0-2.97-1.262-2.97-3.446c0-2.199,1.289-3.46,2.97-3.46
			c1.723,0,3.012,1.261,3.012,3.46C46.649,119.118,45.333,120.38,43.638,120.38z M43.638,114.258c-1.233,0-2.031,1.022-2.031,2.676
			c0,1.61,0.827,2.661,2.031,2.661c1.247,0,2.059-1.008,2.059-2.661C45.697,115.309,44.884,114.258,43.638,114.258z"/>
		<path fill="#313431" d="M50.833,111.064c-0.63,0-1.009,0.294-1.009,1.022v1.527h1.359l0.126,0.783h-1.485v5.842h-0.911v-5.842
			h-1.008v-0.783h1.008v-1.598c0-1.232,0.729-1.779,1.863-1.779c0.21,0,0.336,0.015,0.476,0.028l0.14,0.854
			C51.268,111.093,51.085,111.064,50.833,111.064z"/>
		<path fill="#313431" d="M58.071,120.365c-0.882,0-1.807-0.28-2.381-0.603l0.154-0.896c0.616,0.393,1.429,0.701,2.311,0.701
			c0.924,0,1.499-0.379,1.499-1.051c0-0.658-0.392-0.953-1.708-1.303c-1.471-0.379-2.101-0.854-2.101-1.947
			c0-1.037,0.882-1.793,2.255-1.793c0.785,0,1.471,0.182,2.059,0.448l-0.154,0.882c-0.603-0.322-1.275-0.518-1.933-0.518
			c-0.911,0-1.345,0.406-1.345,0.938c0,0.546,0.364,0.826,1.485,1.12c1.569,0.421,2.325,0.925,2.325,2.102
			C60.536,119.651,59.598,120.365,58.071,120.365z"/>
		<path fill="#313431" d="M64.987,120.38c-1.737,0-2.983-1.178-2.983-3.461c0-2.129,1.205-3.445,2.844-3.445
			c1.793,0,2.689,1.484,2.689,3.32v0.195h-4.609c0.028,1.639,0.785,2.592,2.129,2.592c0.869,0,1.639-0.393,2.325-0.98l0.14,0.84
			C66.864,120.001,66.01,120.38,64.987,120.38z M62.956,116.261h3.628c-0.084-1.19-0.687-2.045-1.751-2.045
			C63.866,114.216,63.138,114.931,62.956,116.261z"/>
		<path fill="#313431" d="M73.472,120.239l-0.154-0.883c-0.616,0.574-1.387,1.023-2.339,1.023c-1.148,0-1.975-0.631-1.975-1.808
			c0-1.555,1.261-2.283,4.258-2.577v-0.435c0-0.896-0.532-1.274-1.373-1.274c-0.785,0-1.555,0.238-2.283,0.588l-0.126-0.826
			c0.77-0.336,1.527-0.574,2.465-0.574c1.471,0,2.227,0.672,2.227,2.045v4.721H73.472z M73.262,116.724
			c-2.605,0.266-3.333,0.896-3.333,1.793c0,0.7,0.49,1.078,1.19,1.078c0.714,0,1.499-0.393,2.143-0.994V116.724z"/>
		<path fill="#313431" d="M82.109,120.323c-0.924,0-1.667-0.182-2.409-0.434v-9.539l0.924-0.169v4.3
			c0.477-0.531,1.121-1.008,2.045-1.008c1.443,0,2.661,1.051,2.661,3.264C85.331,119.161,83.944,120.323,82.109,120.323z
			 M82.571,114.3c-0.743,0-1.359,0.463-1.947,1.148v3.811c0.42,0.154,0.854,0.266,1.527,0.266c1.317,0,2.241-0.854,2.241-2.745
			C84.392,115.169,83.622,114.3,82.571,114.3z"/>
		<path fill="#313431" d="M88.156,116.079v4.16h-0.924v-6.625h0.687l0.21,1.358c0.49-0.743,1.261-1.472,2.353-1.499l0.154,0.869
			C89.543,114.412,88.604,115.196,88.156,116.079z"/>
		<path fill="#313431" d="M94.512,120.38c-1.737,0-2.983-1.178-2.983-3.461c0-2.129,1.205-3.445,2.844-3.445
			c1.793,0,2.689,1.484,2.689,3.32v0.195h-4.609c0.028,1.639,0.785,2.592,2.129,2.592c0.868,0,1.639-0.393,2.325-0.98l0.14,0.84
			C96.389,120.001,95.535,120.38,94.512,120.38z M92.481,116.261h3.628c-0.084-1.19-0.687-2.045-1.751-2.045
			C93.391,114.216,92.663,114.931,92.481,116.261z"/>
		<path fill="#313431" d="M102.997,120.239l-0.154-0.883c-0.616,0.574-1.387,1.023-2.339,1.023c-1.148,0-1.975-0.631-1.975-1.808
			c0-1.555,1.261-2.283,4.258-2.577v-0.435c0-0.896-0.532-1.274-1.373-1.274c-0.785,0-1.555,0.238-2.283,0.588l-0.126-0.826
			c0.771-0.336,1.527-0.574,2.465-0.574c1.471,0,2.227,0.672,2.227,2.045v4.721H102.997z M102.787,116.724
			c-2.605,0.266-3.333,0.896-3.333,1.793c0,0.7,0.49,1.078,1.19,1.078c0.714,0,1.499-0.393,2.143-0.994V116.724z"/>
		<path fill="#313431" d="M114.382,120.239v-4.566c0-0.854-0.351-1.359-1.205-1.359c-0.686,0-1.373,0.406-2.101,1.121v4.805h-0.91
			v-4.566c0-0.854-0.351-1.359-1.205-1.359c-0.686,0-1.387,0.406-2.101,1.107v4.818h-0.924v-6.625h0.714l0.154,0.952
			c0.714-0.63,1.457-1.093,2.339-1.093c1.023,0,1.583,0.42,1.821,1.148c0.729-0.658,1.499-1.148,2.409-1.148
			c1.317,0,1.933,0.756,1.933,2.018v4.748H114.382z"/>
		<path fill="#313431" d="M45.123,136.239l-0.154-0.883c-0.616,0.574-1.387,1.023-2.339,1.023c-1.148,0-1.975-0.631-1.975-1.808
			c0-1.555,1.261-2.283,4.258-2.577v-0.435c0-0.896-0.532-1.274-1.373-1.274c-0.785,0-1.555,0.238-2.283,0.588l-0.126-0.826
			c0.77-0.336,1.527-0.574,2.465-0.574c1.471,0,2.227,0.672,2.227,2.045v4.721H45.123z M44.912,132.724
			c-2.605,0.266-3.333,0.896-3.333,1.793c0,0.7,0.49,1.078,1.19,1.078c0.714,0,1.499-0.393,2.143-0.994V132.724z"/>
		<path fill="#313431" d="M52.361,136.239v-4.566c0-0.854-0.392-1.359-1.233-1.359c-0.7,0-1.415,0.421-2.143,1.135v4.791h-0.924
			v-6.625h0.714l0.154,0.98c0.728-0.645,1.484-1.121,2.381-1.121c1.317,0,1.975,0.756,1.975,2.031v4.734H52.361z"/>
		<path fill="#313431" d="M60.103,136.239l-0.168-0.967c-0.519,0.603-1.163,1.107-2.129,1.107c-1.457,0-2.675-1.037-2.675-3.264
			c0-2.424,1.415-3.601,3.025-3.601c0.672,0,1.247,0.126,1.723,0.322v-3.487l0.924-0.169v10.058H60.103z M59.878,130.706
			c-0.519-0.266-1.009-0.393-1.695-0.393c-1.191,0-2.102,0.896-2.102,2.76c0,1.611,0.757,2.479,1.807,2.479
			c0.785,0,1.401-0.476,1.989-1.19V130.706z"/>
		<path fill="#313431" d="M68.319,136.365c-0.883,0-1.807-0.28-2.381-0.603l0.154-0.896c0.617,0.393,1.429,0.701,2.312,0.701
			c0.924,0,1.499-0.379,1.499-1.051c0-0.658-0.393-0.953-1.709-1.303c-1.471-0.379-2.102-0.854-2.102-1.947
			c0-1.037,0.883-1.793,2.255-1.793c0.785,0,1.471,0.182,2.059,0.448l-0.154,0.882c-0.603-0.322-1.275-0.518-1.933-0.518
			c-0.911,0-1.345,0.406-1.345,0.938c0,0.546,0.364,0.826,1.485,1.12c1.569,0.421,2.325,0.925,2.325,2.102
			C70.785,135.651,69.846,136.365,68.319,136.365z"/>
		<path fill="#313431" d="M75.235,136.38c-1.737,0-2.983-1.178-2.983-3.461c0-2.129,1.205-3.445,2.844-3.445
			c1.793,0,2.689,1.484,2.689,3.32v0.195h-4.609c0.028,1.639,0.785,2.592,2.129,2.592c0.868,0,1.639-0.393,2.325-0.98l0.14,0.84
			C77.113,136.001,76.258,136.38,75.235,136.38z M73.205,132.261h3.628c-0.084-1.19-0.687-2.045-1.751-2.045
			C74.115,130.216,73.387,130.931,73.205,132.261z"/>
		<path fill="#313431" d="M83.72,136.239l-0.154-0.883c-0.616,0.574-1.387,1.023-2.339,1.023c-1.148,0-1.975-0.631-1.975-1.808
			c0-1.555,1.261-2.283,4.258-2.577v-0.435c0-0.896-0.532-1.274-1.373-1.274c-0.785,0-1.555,0.238-2.283,0.588l-0.126-0.826
			c0.77-0.336,1.527-0.574,2.465-0.574c1.471,0,2.227,0.672,2.227,2.045v4.721H83.72z M83.51,132.724
			c-2.605,0.266-3.333,0.896-3.333,1.793c0,0.7,0.49,1.078,1.19,1.078c0.714,0,1.499-0.393,2.143-0.994V132.724z"/>
		<path fill="#313431" d="M92.357,136.323c-0.924,0-1.667-0.182-2.409-0.434v-9.539l0.924-0.169v4.3
			c0.477-0.531,1.121-1.008,2.045-1.008c1.442,0,2.661,1.051,2.661,3.264C95.579,135.161,94.192,136.323,92.357,136.323z
			 M92.82,130.3c-0.743,0-1.359,0.463-1.947,1.148v3.811c0.42,0.154,0.854,0.266,1.527,0.266c1.317,0,2.241-0.854,2.241-2.745
			C94.641,131.169,93.87,130.3,92.82,130.3z"/>
		<path fill="#313431" d="M101.528,136.239l-0.154-0.883c-0.616,0.574-1.387,1.023-2.339,1.023c-1.148,0-1.975-0.631-1.975-1.808
			c0-1.555,1.261-2.283,4.258-2.577v-0.435c0-0.896-0.532-1.274-1.373-1.274c-0.785,0-1.555,0.238-2.283,0.588l-0.126-0.826
			c0.771-0.336,1.527-0.574,2.465-0.574c1.471,0,2.227,0.672,2.227,2.045v4.721H101.528z M101.318,132.724
			c-2.605,0.266-3.333,0.896-3.333,1.793c0,0.7,0.49,1.078,1.19,1.078c0.714,0,1.499-0.393,2.143-0.994V132.724z"/>
		<path fill="#313431" d="M106.399,136.365c-0.883,0-1.807-0.28-2.381-0.603l0.154-0.896c0.617,0.393,1.429,0.701,2.312,0.701
			c0.924,0,1.499-0.379,1.499-1.051c0-0.658-0.393-0.953-1.709-1.303c-1.471-0.379-2.102-0.854-2.102-1.947
			c0-1.037,0.883-1.793,2.255-1.793c0.785,0,1.471,0.182,2.059,0.448l-0.154,0.882c-0.603-0.322-1.275-0.518-1.933-0.518
			c-0.911,0-1.345,0.406-1.345,0.938c0,0.546,0.364,0.826,1.485,1.12c1.569,0.421,2.325,0.925,2.325,2.102
			C108.865,135.651,107.926,136.365,106.399,136.365z"/>
		<path fill="#313431" d="M112.6,136.365c-0.883,0-1.807-0.28-2.381-0.603l0.154-0.896c0.617,0.393,1.429,0.701,2.312,0.701
			c0.924,0,1.499-0.379,1.499-1.051c0-0.658-0.393-0.953-1.709-1.303c-1.471-0.379-2.102-0.854-2.102-1.947
			c0-1.037,0.883-1.793,2.255-1.793c0.785,0,1.471,0.182,2.059,0.448l-0.154,0.882c-0.603-0.322-1.275-0.518-1.933-0.518
			c-0.911,0-1.345,0.406-1.345,0.938c0,0.546,0.364,0.826,1.485,1.12c1.569,0.421,2.325,0.925,2.325,2.102
			C115.065,135.651,114.126,136.365,112.6,136.365z"/>
	</g>
	<g id="WSJChart_x5F_759413503576">
		<g id="WSJ_x5F_Charter_x5F_Data_x5F_Object_17_">
			<rect id="WSJ_x5F_Charter_x5F_Empty_x5F_Point_19_" y="13.892" fill="none" width="0" height="0"/>
		</g>
		<rect id="WSJ_x5F_Charter_x5F_Origin_x5F_Point_19_" y="13.892" fill="none" width="0" height="0"/>
		<g id="sourceBox_18_">
			<g>
				<path d="M2.564,189.187l0.77,1.277l-0.121,0.076l-0.957-1.145l-0.957,1.145l-0.121-0.076l0.759-1.277l-1.331-0.549l0.044-0.145
					l1.408,0.33l0.121-1.463h0.154l0.121,1.463l1.408-0.33l0.044,0.145L2.564,189.187z"/>
				<path d="M5.611,195.028v-7.59h3.84v0.482H6.139v2.895h2.651l0.077,0.484H6.139v3.244h3.421v0.484H5.611z"/>
				<path d="M12.431,195.116c-0.693,0-1.375-0.209-1.837-0.461l0.099-0.506c0.484,0.273,1.111,0.506,1.793,0.506
					c0.77,0,1.276-0.342,1.276-0.947c0-0.539-0.319-0.814-1.431-1.121c-1.089-0.297-1.584-0.672-1.584-1.463
					c0-0.793,0.682-1.365,1.705-1.365c0.583,0,1.1,0.143,1.519,0.352l-0.088,0.496c-0.473-0.242-0.957-0.375-1.452-0.375
					c-0.814,0-1.177,0.385-1.177,0.859c0,0.484,0.308,0.725,1.232,0.979c1.177,0.318,1.782,0.727,1.782,1.596
					C14.268,194.601,13.509,195.116,12.431,195.116z"/>
				<path d="M17.216,195.116c-0.737,0-1.221-0.307-1.221-1.176v-3.643h-0.803v-0.439h0.803v-1.838l0.517-0.109v1.947h1.265
					l0.066,0.439h-1.331v3.555c0,0.604,0.242,0.812,0.814,0.812c0.165,0,0.396-0.043,0.517-0.076l0.077,0.418
					C17.788,195.062,17.502,195.116,17.216,195.116z"/>
				<path d="M19.646,188.46c-0.242,0-0.451-0.219-0.451-0.449c0-0.242,0.209-0.441,0.451-0.441s0.44,0.199,0.44,0.441
					C20.086,188.241,19.889,188.46,19.646,188.46z M19.394,195.028v-5.17h0.506v5.17H19.394z"/>
				<path d="M28.568,195.028v-3.598c0-0.781-0.341-1.209-1.089-1.209c-0.55,0-1.133,0.318-1.782,0.912v3.895h-0.506v-3.598
					c0-0.781-0.341-1.209-1.089-1.209c-0.55,0-1.144,0.318-1.782,0.902v3.904h-0.517v-5.17h0.374l0.132,0.748
					c0.616-0.529,1.177-0.859,1.848-0.859c0.814,0,1.276,0.33,1.452,0.936c0.649-0.572,1.232-0.936,1.936-0.936
					c1.067,0,1.541,0.596,1.541,1.619v3.662H28.568z"/>
				<path d="M34.013,195.028l-0.121-0.693c-0.539,0.475-1.177,0.805-1.826,0.805c-0.869,0-1.562-0.441-1.562-1.377
					c0-1.154,0.88-1.77,3.366-2.002v-0.451c0-0.725-0.429-1.078-1.144-1.078c-0.594,0-1.199,0.166-1.771,0.463l-0.066-0.484
					c0.583-0.264,1.177-0.451,1.859-0.451c1.056,0,1.628,0.539,1.628,1.529v3.74H34.013z M33.87,192.19
					c-2.134,0.23-2.838,0.682-2.838,1.529c0,0.66,0.473,0.969,1.056,0.969c0.55,0,1.221-0.33,1.782-0.826V192.19z"/>
				<path d="M37.599,195.116c-0.737,0-1.221-0.307-1.221-1.176v-3.643h-0.803v-0.439h0.803v-1.838l0.517-0.109v1.947h1.265
					l0.066,0.439h-1.331v3.555c0,0.604,0.242,0.812,0.814,0.812c0.165,0,0.396-0.043,0.517-0.076l0.077,0.418
					C38.17,195.062,37.885,195.116,37.599,195.116z"/>
				<path d="M41.59,195.14c-1.364,0-2.277-1.014-2.277-2.695c0-1.65,0.913-2.697,2.167-2.697c1.32,0,2.014,1.156,2.014,2.586v0.111
					h-3.653c0,1.318,0.616,2.244,1.771,2.244c0.627,0,1.287-0.33,1.793-0.793l0.077,0.484C43.009,194.81,42.327,195.14,41.59,195.14
					z M39.852,192.015h3.102c-0.033-1.012-0.572-1.838-1.474-1.838C40.578,190.177,39.973,190.87,39.852,192.015z"/>
				<path d="M46.429,195.116c-0.693,0-1.375-0.209-1.837-0.461l0.099-0.506c0.484,0.273,1.111,0.506,1.793,0.506
					c0.77,0,1.276-0.342,1.276-0.947c0-0.539-0.319-0.814-1.43-1.121c-1.089-0.297-1.584-0.672-1.584-1.463
					c0-0.793,0.682-1.365,1.705-1.365c0.583,0,1.1,0.143,1.519,0.352l-0.088,0.496c-0.473-0.242-0.957-0.375-1.452-0.375
					c-0.814,0-1.177,0.385-1.177,0.859c0,0.484,0.308,0.725,1.232,0.979c1.177,0.318,1.782,0.727,1.782,1.596
					C48.267,194.601,47.507,195.116,46.429,195.116z"/>
				<path d="M57.67,190.331h-0.627v-0.451h0.627l1.122,0.166v0.121L57.67,190.331z M59.232,189.747H59.09l-0.143-1.066v-1.242h0.44
					v1.242L59.232,189.747z M59.21,196.315h-0.099l-0.154-1.121v-3.752l0.132-0.979h0.143l0.143,0.979v3.752L59.21,196.315z
					 M60.652,190.331l-1.111-0.164v-0.121l1.111-0.166h0.638v0.451H60.652z"/>
				<path fill="#231F20" d="M65.987,195.171c-1.947,0-3.366-1.627-3.366-3.926c0-2.311,1.441-3.951,3.388-3.951
					s3.367,1.629,3.367,3.928C69.376,193.532,67.935,195.171,65.987,195.171z M65.987,187.769c-1.672,0-2.816,1.43-2.816,3.453
					c0,2.047,1.155,3.477,2.838,3.477c1.672,0,2.816-1.43,2.816-3.453C68.826,189.198,67.67,187.769,65.987,187.769z"/>
				<path fill="#231F20" d="M74.446,195.028v-3.598c0-0.781-0.374-1.209-1.111-1.209c-0.572,0-1.167,0.33-1.815,0.934v3.873h-0.517
					v-5.17h0.374l0.132,0.781c0.627-0.551,1.199-0.893,1.881-0.893c1.067,0,1.573,0.605,1.573,1.641v3.641H74.446z"/>
				<path fill="#231F20" d="M78.659,195.14c-1.364,0-2.277-1.014-2.277-2.695c0-1.65,0.913-2.697,2.167-2.697
					c1.32,0,2.014,1.156,2.014,2.586v0.111h-3.653c0,1.318,0.616,2.244,1.771,2.244c0.627,0,1.287-0.33,1.793-0.793l0.077,0.484
					C80.078,194.81,79.396,195.14,78.659,195.14z M76.92,192.015h3.102c-0.033-1.012-0.572-1.838-1.474-1.838
					C77.646,190.177,77.042,190.87,76.92,192.015z"/>
				<path fill="#231F20" d="M91.342,195.028v-3.598c0-0.781-0.341-1.209-1.089-1.209c-0.55,0-1.133,0.318-1.782,0.912v3.895h-0.506
					v-3.598c0-0.781-0.341-1.209-1.089-1.209c-0.55,0-1.144,0.318-1.782,0.902v3.904h-0.517v-5.17h0.374l0.132,0.748
					c0.616-0.529,1.177-0.859,1.848-0.859c0.814,0,1.276,0.33,1.452,0.936c0.649-0.572,1.232-0.936,1.936-0.936
					c1.067,0,1.541,0.596,1.541,1.619v3.662H91.342z"/>
				<path fill="#231F20" d="M95.554,195.14c-1.364,0-2.277-1.014-2.277-2.695c0-1.65,0.913-2.697,2.167-2.697
					c1.32,0,2.014,1.156,2.014,2.586v0.111h-3.653c0,1.318,0.616,2.244,1.771,2.244c0.627,0,1.287-0.33,1.793-0.793l0.077,0.484
					C96.973,194.81,96.291,195.14,95.554,195.14z M93.816,192.015h3.102c-0.033-1.012-0.572-1.838-1.474-1.838
					C94.542,190.177,93.937,190.87,93.816,192.015z"/>
				<path fill="#231F20" d="M100.405,195.116c-0.737,0-1.221-0.307-1.221-1.176v-3.643h-0.803v-0.439h0.803v-1.838l0.517-0.109
					v1.947h1.265l0.066,0.439h-1.331v3.555c0,0.604,0.242,0.812,0.814,0.812c0.165,0,0.396-0.043,0.517-0.076l0.077,0.418
					C100.977,195.062,100.691,195.116,100.405,195.116z"/>
				<path fill="#231F20" d="M103.022,191.63v3.398h-0.517v-5.17h0.341l0.165,1.078c0.396-0.584,1.001-1.178,1.859-1.189l0.088,0.484
					C104.112,190.288,103.375,190.937,103.022,191.63z"/>
				<path fill="#231F20" d="M106.488,188.46c-0.242,0-0.451-0.219-0.451-0.449c0-0.242,0.209-0.441,0.451-0.441
					s0.44,0.199,0.44,0.441C106.928,188.241,106.73,188.46,106.488,188.46z M106.235,195.028v-5.17h0.506v5.17H106.235z"/>
				<path fill="#231F20" d="M110.58,195.14c-1.266,0-2.277-0.99-2.277-2.695c0-1.717,1.023-2.697,2.31-2.697
					c0.649,0,1.221,0.232,1.672,0.572l-0.099,0.529c-0.517-0.441-1.001-0.65-1.595-0.65c-1.001,0-1.749,0.814-1.749,2.246
					c0,1.33,0.726,2.244,1.793,2.244c0.561,0,1.078-0.199,1.617-0.66l0.066,0.484C111.845,194.907,111.272,195.14,110.58,195.14z"/>
				<path fill="#231F20" d="M117.74,195.116c-0.737,0-1.221-0.307-1.221-1.176v-3.643h-0.803v-0.439h0.803v-1.838l0.517-0.109v1.947
					h1.265l0.066,0.439h-1.331v3.555c0,0.604,0.242,0.812,0.814,0.812c0.165,0,0.396-0.043,0.517-0.076l0.077,0.418
					C118.312,195.062,118.026,195.116,117.74,195.116z"/>
				<path fill="#231F20" d="M121.732,195.14c-1.288,0-2.277-0.99-2.277-2.695c0-1.717,1.023-2.697,2.277-2.697
					c1.298,0,2.288,0.98,2.288,2.697C124.02,194.149,122.997,195.14,121.732,195.14z M121.732,190.198
					c-0.99,0-1.738,0.781-1.738,2.246c0,1.43,0.759,2.244,1.738,2.244c0.99,0,1.749-0.771,1.749-2.244
					C123.481,191.013,122.722,190.198,121.732,190.198z"/>
				<path fill="#231F20" d="M128.947,195.028v-3.598c0-0.781-0.373-1.209-1.11-1.209c-0.572,0-1.167,0.33-1.815,0.934v3.873h-0.517
					v-5.17h0.374l0.132,0.781c0.627-0.551,1.199-0.893,1.881-0.893c1.067,0,1.573,0.605,1.573,1.641v3.641H128.947z"/>
				<path fill="#231F20" d="M131.191,190.353v-0.473h5.006v0.473H131.191z M131.191,192.741v-0.475h5.006v0.475H131.191z"/>
				<path fill="#231F20" d="M141.433,195.028v-3.598c0-0.781-0.374-1.209-1.11-1.209c-0.572,0-1.167,0.33-1.816,0.934v3.873h-0.517
					v-5.17h0.374l0.133,0.781c0.627-0.551,1.198-0.893,1.881-0.893c1.066,0,1.572,0.605,1.572,1.641v3.641H141.433z"/>
				<path fill="#231F20" d="M145.646,195.14c-1.364,0-2.277-1.014-2.277-2.695c0-1.65,0.913-2.697,2.167-2.697
					c1.32,0,2.014,1.156,2.014,2.586v0.111h-3.652c0,1.318,0.615,2.244,1.771,2.244c0.627,0,1.287-0.33,1.793-0.793l0.076,0.484
					C147.064,194.81,146.383,195.14,145.646,195.14z M143.907,192.015h3.103c-0.033-1.012-0.572-1.838-1.475-1.838
					S144.027,190.87,143.907,192.015z"/>
				<path fill="#231F20" d="M152.201,195.028l-0.121-0.693c-0.539,0.475-1.178,0.805-1.826,0.805c-0.869,0-1.562-0.441-1.562-1.377
					c0-1.154,0.881-1.77,3.367-2.002v-0.451c0-0.725-0.43-1.078-1.145-1.078c-0.594,0-1.199,0.166-1.771,0.463l-0.066-0.484
					c0.584-0.264,1.178-0.451,1.859-0.451c1.057,0,1.629,0.539,1.629,1.529v3.74H152.201z M152.059,192.19
					c-2.135,0.23-2.839,0.682-2.839,1.529c0,0.66,0.474,0.969,1.056,0.969c0.551,0,1.222-0.33,1.783-0.826V192.19z"/>
				<path fill="#231F20" d="M154.841,191.63v3.398h-0.517v-5.17h0.341l0.165,1.078c0.396-0.584,1.001-1.178,1.859-1.189l0.088,0.484
					C155.93,190.288,155.193,190.937,154.841,191.63z"/>
				<path fill="#231F20" d="M158.053,195.028v-7.756l0.506-0.109v7.865H158.053z"/>
				<path fill="#231F20" d="M162.145,195.821c-0.318,0.857-0.693,1.166-1.387,1.166c-0.088,0-0.176-0.012-0.241-0.021l-0.077-0.451
					c0.077,0,0.176,0.01,0.33,0.01c0.451,0,0.693-0.186,0.913-0.758l0.274-0.705l-2.013-5.148l0.507-0.109l1.76,4.643l1.661-4.588
					h0.539L162.145,195.821z"/>
				<path fill="#231F20" d="M167.93,195.028v-0.352l2.729-2.959c0.892-0.969,1.156-1.508,1.156-2.277
					c0-0.947-0.605-1.529-1.574-1.529c-0.77,0-1.441,0.385-2.035,0.891l-0.088-0.539c0.561-0.451,1.254-0.814,2.146-0.814
					c1.32,0,2.091,0.793,2.091,1.959c0,0.924-0.375,1.584-1.287,2.562l-2.432,2.607h3.784l0.065,0.451H167.93z"/>
				<path fill="#231F20" d="M173.903,196.491l-0.274-0.064l0.582-2.289h0.672L173.903,196.491z"/>
				<path fill="#231F20" d="M176.354,195.028v-0.352l2.729-2.959c0.892-0.969,1.155-1.508,1.155-2.277
					c0-0.947-0.605-1.529-1.573-1.529c-0.771,0-1.441,0.385-2.036,0.891l-0.088-0.539c0.562-0.451,1.255-0.814,2.146-0.814
					c1.32,0,2.09,0.793,2.09,1.959c0,0.924-0.374,1.584-1.287,2.562l-2.432,2.607h3.785l0.065,0.451H176.354z"/>
				<path fill="#231F20" d="M185.012,195.171c-1.662,0-2.629-1.584-2.629-3.85s0.979-3.873,2.64-3.873s2.63,1.584,2.63,3.852
					C187.652,193.577,186.673,195.171,185.012,195.171z M185.022,187.911c-1.386,0-2.101,1.451-2.101,3.398s0.715,3.4,2.101,3.4
					c1.376,0,2.091-1.453,2.091-3.4S186.398,187.911,185.022,187.911z"/>
				<path fill="#231F20" d="M191.018,195.161c-0.848,0-1.485-0.221-1.991-0.518l0.077-0.527c0.583,0.352,1.133,0.582,1.936,0.582
					c1.057,0,2.035-0.66,2.035-1.902c0-1.078-0.682-1.76-1.881-1.76c-0.671,0-1.111,0.152-1.518,0.318l-0.297-0.078l0.252-3.686
					h3.609l0.076,0.463h-3.234l-0.197,2.773c0.352-0.133,0.759-0.254,1.331-0.254c1.474,0,2.409,0.836,2.409,2.201
					C193.625,194.237,192.426,195.161,191.018,195.161z"/>
				<path fill="#231F20" d="M199.674,195.095c-0.517,0-0.979-0.1-1.386-0.264v2.078l-0.517,0.111v-7.162h0.373l0.133,0.748
					c0.418-0.473,0.902-0.859,1.65-0.859c1.144,0,2.123,0.814,2.123,2.553C202.051,194.183,200.929,195.095,199.674,195.095z
					 M199.916,190.222c-0.627,0-1.111,0.363-1.628,0.945v3.158c0.407,0.197,0.858,0.318,1.375,0.318c1.034,0,1.849-0.736,1.849-2.32
					C201.512,190.958,200.84,190.222,199.916,190.222z"/>
				<path fill="#231F20" d="M205.492,195.14c-1.287,0-2.277-0.99-2.277-2.695c0-1.717,1.023-2.697,2.277-2.697
					c1.299,0,2.289,0.98,2.289,2.697C207.781,194.149,206.758,195.14,205.492,195.14z M205.492,190.198
					c-0.99,0-1.738,0.781-1.738,2.246c0,1.43,0.76,2.244,1.738,2.244c0.99,0,1.75-0.771,1.75-2.244
					C207.242,191.013,206.482,190.198,205.492,190.198z"/>
				<path fill="#231F20" d="M212.785,195.028l-0.131-0.781c-0.628,0.551-1.199,0.893-1.882,0.893c-1.067,0-1.573-0.605-1.573-1.641
					v-3.641h0.518v3.598c0,0.781,0.373,1.209,1.111,1.209c0.571,0,1.166-0.33,1.814-0.934v-3.873h0.518v5.17H212.785z"/>
				<path fill="#231F20" d="M218.428,195.028v-3.598c0-0.781-0.373-1.209-1.11-1.209c-0.572,0-1.167,0.33-1.815,0.934v3.873h-0.518
					v-5.17h0.375l0.132,0.781c0.627-0.551,1.198-0.893,1.881-0.893c1.067,0,1.573,0.605,1.573,1.641v3.641H218.428z"/>
				<path fill="#231F20" d="M224.291,195.028l-0.132-0.758c-0.407,0.473-0.902,0.869-1.65,0.869c-1.144,0-2.123-0.814-2.123-2.553
					c0-1.881,1.122-2.807,2.376-2.807c0.528,0,0.979,0.1,1.387,0.275v-2.783l0.517-0.109v7.865H224.291z M224.148,190.562
					c-0.407-0.209-0.858-0.33-1.375-0.33c-1.023,0-1.849,0.738-1.849,2.332c0,1.354,0.671,2.102,1.595,2.102
					c0.627,0,1.123-0.373,1.629-0.945V190.562z"/>
				<path fill="#231F20" d="M227.943,195.116c-0.693,0-1.375-0.209-1.838-0.461l0.1-0.506c0.484,0.273,1.111,0.506,1.793,0.506
					c0.77,0,1.275-0.342,1.275-0.947c0-0.539-0.318-0.814-1.43-1.121c-1.089-0.297-1.584-0.672-1.584-1.463
					c0-0.793,0.682-1.365,1.705-1.365c0.583,0,1.1,0.143,1.519,0.352l-0.089,0.496c-0.473-0.242-0.957-0.375-1.451-0.375
					c-0.814,0-1.178,0.385-1.178,0.859c0,0.484,0.309,0.725,1.232,0.979c1.178,0.318,1.782,0.727,1.782,1.596
					C229.78,194.601,229.021,195.116,227.943,195.116z"/>
				<path d="M2.674,209.517c-0.814,0-1.474-0.209-1.936-0.451l0.077-0.539c0.429,0.264,1.111,0.518,1.893,0.518
					c0.968,0,1.738-0.596,1.738-1.541c0-0.793-0.44-1.244-1.595-1.738c-1.475-0.627-1.992-1.133-1.992-2.168
					c0-1.078,0.914-1.848,2.068-1.848c0.704,0,1.265,0.154,1.639,0.375l-0.077,0.527c-0.44-0.254-0.935-0.43-1.584-0.43
					c-0.913,0-1.507,0.605-1.507,1.354c0,0.77,0.429,1.145,1.618,1.65c1.353,0.572,1.98,1.154,1.98,2.244
					C4.996,208.757,3.929,209.517,2.674,209.517z"/>
				<path d="M8.482,209.538c-1.288,0-2.277-0.99-2.277-2.695c0-1.717,1.023-2.695,2.277-2.695c1.298,0,2.288,0.979,2.288,2.695
					C10.771,208.548,9.748,209.538,8.482,209.538z M8.482,204.599c-0.99,0-1.738,0.781-1.738,2.244c0,1.43,0.759,2.244,1.738,2.244
					c0.99,0,1.749-0.77,1.749-2.244C10.231,205.413,9.472,204.599,8.482,204.599z"/>
				<path d="M15.775,209.429l-0.132-0.781c-0.627,0.549-1.199,0.891-1.881,0.891c-1.067,0-1.573-0.605-1.573-1.639v-3.643h0.517
					v3.598c0,0.781,0.374,1.211,1.111,1.211c0.572,0,1.166-0.33,1.815-0.936v-3.873h0.517v5.172H15.775z"/>
				<path d="M18.492,206.028v3.4h-0.517v-5.172h0.341l0.165,1.078c0.396-0.582,1.001-1.176,1.859-1.188l0.088,0.484
					C19.581,204.687,18.844,205.335,18.492,206.028z"/>
				<path d="M23.364,209.538c-1.265,0-2.277-0.99-2.277-2.695c0-1.717,1.023-2.695,2.31-2.695c0.649,0,1.221,0.23,1.672,0.572
					l-0.099,0.527c-0.517-0.439-1.001-0.648-1.595-0.648c-1.001,0-1.749,0.814-1.749,2.244c0,1.332,0.726,2.244,1.793,2.244
					c0.561,0,1.078-0.197,1.617-0.66l0.066,0.484C24.629,209.308,24.057,209.538,23.364,209.538z"/>
				<path d="M28.369,209.538c-1.364,0-2.277-1.012-2.277-2.695c0-1.65,0.913-2.695,2.167-2.695c1.32,0,2.014,1.154,2.014,2.586
					v0.109h-3.653c0,1.32,0.616,2.244,1.771,2.244c0.627,0,1.287-0.33,1.793-0.791l0.077,0.482
					C29.788,209.208,29.105,209.538,28.369,209.538z M26.63,206.413h3.102c-0.033-1.012-0.572-1.836-1.474-1.836
					C27.356,204.577,26.751,205.271,26.63,206.413z"/>
				<path d="M31.723,205.149v-0.893h0.66v0.893H31.723z M31.723,209.429v-0.893h0.66v0.893H31.723z"/>
				<path d="M37.421,202.321v3.014h2.563l0.077,0.484h-2.64v3.609h-0.528v-7.592h3.686v0.484H37.421z"/>
				<path d="M43.438,209.538c-1.288,0-2.277-0.99-2.277-2.695c0-1.717,1.023-2.695,2.277-2.695c1.298,0,2.288,0.979,2.288,2.695
					C45.726,208.548,44.703,209.538,43.438,209.538z M43.438,204.599c-0.99,0-1.738,0.781-1.738,2.244
					c0,1.43,0.759,2.244,1.738,2.244c0.99,0,1.749-0.77,1.749-2.244C45.187,205.413,44.428,204.599,43.438,204.599z"/>
				<path d="M49.147,209.538c-1.288,0-2.277-0.99-2.277-2.695c0-1.717,1.023-2.695,2.277-2.695c1.298,0,2.288,0.979,2.288,2.695
					C51.435,208.548,50.412,209.538,49.147,209.538z M49.147,204.599c-0.99,0-1.738,0.781-1.738,2.244
					c0,1.43,0.759,2.244,1.738,2.244c0.99,0,1.749-0.77,1.749-2.244C50.896,205.413,50.137,204.599,49.147,204.599z"/>
				<path d="M56.506,209.429l-0.132-0.76c-0.407,0.473-0.902,0.869-1.65,0.869c-1.144,0-2.123-0.814-2.123-2.553
					c0-1.881,1.122-2.805,2.376-2.805c0.528,0,0.979,0.1,1.386,0.275v-2.783l0.517-0.111v7.867H56.506z M56.363,204.962
					c-0.407-0.209-0.858-0.33-1.375-0.33c-1.023,0-1.848,0.736-1.848,2.332c0,1.354,0.671,2.102,1.595,2.102
					c0.627,0,1.122-0.375,1.628-0.947V204.962z"/>
				<path d="M64.403,209.429l-0.121-0.693c-0.539,0.473-1.177,0.803-1.826,0.803c-0.869,0-1.562-0.439-1.562-1.375
					c0-1.154,0.88-1.771,3.366-2.002v-0.451c0-0.727-0.429-1.078-1.144-1.078c-0.594,0-1.199,0.164-1.771,0.461l-0.066-0.482
					c0.583-0.266,1.177-0.451,1.859-0.451c1.056,0,1.628,0.539,1.628,1.529v3.74H64.403z M64.26,206.589
					c-2.134,0.232-2.838,0.684-2.838,1.529c0,0.66,0.473,0.969,1.056,0.969c0.55,0,1.221-0.33,1.782-0.824V206.589z"/>
				<path d="M69.969,209.429v-3.598c0-0.781-0.374-1.211-1.111-1.211c-0.572,0-1.167,0.33-1.815,0.936v3.873h-0.517v-5.172H66.9
					l0.132,0.781c0.627-0.549,1.199-0.891,1.881-0.891c1.067,0,1.573,0.605,1.573,1.639v3.643H69.969z"/>
				<path d="M75.832,209.429l-0.132-0.76c-0.407,0.473-0.902,0.869-1.65,0.869c-1.144,0-2.123-0.814-2.123-2.553
					c0-1.881,1.122-2.805,2.376-2.805c0.528,0,0.979,0.1,1.386,0.275v-2.783l0.517-0.111v7.867H75.832z M75.689,204.962
					c-0.407-0.209-0.858-0.33-1.375-0.33c-1.023,0-1.848,0.736-1.848,2.332c0,1.354,0.671,2.102,1.595,2.102
					c0.627,0,1.122-0.375,1.628-0.947V204.962z"/>
				<path d="M83.18,201.794h0.572l3.015,7.59l-0.528,0.121l-1.045-2.674h-3.466l-1.012,2.598h-0.55L83.18,201.794z M81.903,206.358
					h3.103l-1.551-3.971L81.903,206.358z"/>
				<path d="M89.9,211.386c-1.32,0-2.31-0.473-2.31-1.342c0-0.518,0.429-1.023,1.254-1.408c-0.297-0.154-0.44-0.34-0.44-0.549
					c0-0.275,0.176-0.463,0.506-0.672c-0.561-0.275-0.946-0.814-0.946-1.529c0-1.078,0.891-1.738,1.859-1.738
					c0.495,0,0.946,0.154,1.287,0.439l1.276-0.418l0.099,0.572l-1.111,0.121c0.22,0.275,0.352,0.627,0.352,1.023
					c0,1.078-0.88,1.738-1.881,1.738c-0.176,0-0.341-0.012-0.495-0.055c-0.297,0.164-0.418,0.285-0.418,0.418
					c0,0.23,0.231,0.33,1.21,0.518l0.396,0.076c1.188,0.23,1.771,0.561,1.771,1.287C92.31,210.804,91.231,211.386,89.9,211.386z
					 M89.317,208.823c-0.814,0.342-1.199,0.736-1.199,1.199c0,0.627,0.814,0.945,1.827,0.945c1.089,0,1.848-0.451,1.848-1.033
					c0-0.473-0.396-0.693-1.463-0.902l-0.396-0.076C89.68,208.911,89.493,208.866,89.317,208.823z M89.823,204.554
					c-0.814,0-1.332,0.562-1.332,1.332c0,0.736,0.517,1.332,1.354,1.332c0.847,0,1.364-0.572,1.364-1.332
					C91.209,205.149,90.648,204.554,89.823,204.554z"/>
				<path d="M94.223,206.028v3.4h-0.517v-5.172h0.341l0.165,1.078c0.396-0.582,1.001-1.176,1.859-1.188l0.088,0.484
					C95.312,204.687,94.575,205.335,94.223,206.028z"/>
				<path d="M97.688,202.86c-0.242,0-0.451-0.221-0.451-0.451c0-0.242,0.209-0.439,0.451-0.439s0.44,0.197,0.44,0.439
					C98.128,202.64,97.93,202.86,97.688,202.86z M97.435,209.429v-5.172h0.506v5.172H97.435z"/>
				<path d="M101.78,209.538c-1.266,0-2.277-0.99-2.277-2.695c0-1.717,1.023-2.695,2.31-2.695c0.649,0,1.221,0.23,1.672,0.572
					l-0.099,0.527c-0.517-0.439-1.001-0.648-1.595-0.648c-1.001,0-1.749,0.814-1.749,2.244c0,1.332,0.726,2.244,1.793,2.244
					c0.561,0,1.078-0.197,1.617-0.66l0.066,0.484C103.045,209.308,102.473,209.538,101.78,209.538z"/>
				<path d="M108.468,209.429l-0.132-0.781c-0.627,0.549-1.199,0.891-1.881,0.891c-1.067,0-1.573-0.605-1.573-1.639v-3.643h0.517
					v3.598c0,0.781,0.374,1.211,1.111,1.211c0.572,0,1.166-0.33,1.815-0.936v-3.873h0.517v5.172H108.468z"/>
				<path d="M110.745,209.429v-7.756l0.506-0.111v7.867H110.745z"/>
				<path d="M114.616,209.517c-0.737,0-1.221-0.309-1.221-1.178v-3.641h-0.803v-0.441h0.803v-1.836l0.517-0.111v1.947h1.265
					l0.066,0.441h-1.331v3.553c0,0.605,0.242,0.814,0.814,0.814c0.165,0,0.396-0.045,0.517-0.078l0.077,0.418
					C115.188,209.462,114.902,209.517,114.616,209.517z"/>
				<path d="M120.238,209.429l-0.132-0.781c-0.627,0.549-1.199,0.891-1.881,0.891c-1.067,0-1.573-0.605-1.573-1.639v-3.643h0.517
					v3.598c0,0.781,0.374,1.211,1.111,1.211c0.572,0,1.166-0.33,1.815-0.936v-3.873h0.517v5.172H120.238z"/>
				<path d="M122.954,206.028v3.4h-0.517v-5.172h0.341l0.165,1.078c0.396-0.582,1.001-1.176,1.859-1.188l0.088,0.484
					C124.043,204.687,123.306,205.335,122.954,206.028z"/>
				<path d="M127.827,209.538c-1.364,0-2.277-1.012-2.277-2.695c0-1.65,0.913-2.695,2.167-2.695c1.321,0,2.014,1.154,2.014,2.586
					v0.109h-3.653c0,1.32,0.616,2.244,1.771,2.244c0.627,0,1.287-0.33,1.793-0.791l0.077,0.482
					C129.246,209.208,128.563,209.538,127.827,209.538z M126.088,206.413h3.102c-0.032-1.012-0.571-1.836-1.474-1.836
					C126.814,204.577,126.209,205.271,126.088,206.413z"/>
				<path d="M136.912,209.571c-1.947,0-3.366-1.629-3.366-3.928c0-2.311,1.44-3.949,3.388-3.949s3.367,1.629,3.367,3.928
					C140.301,207.933,138.859,209.571,136.912,209.571z M136.912,202.167c-1.672,0-2.816,1.43-2.816,3.455
					c0,2.045,1.155,3.477,2.838,3.477c1.673,0,2.816-1.432,2.816-3.455C139.75,203.597,138.596,202.167,136.912,202.167z"/>
				<path d="M142.444,206.028v3.4h-0.517v-5.172h0.341l0.165,1.078c0.396-0.582,1.001-1.176,1.859-1.188l0.088,0.484
					C143.533,204.687,142.797,205.335,142.444,206.028z"/>
				<path d="M147.139,211.386c-1.319,0-2.31-0.473-2.31-1.342c0-0.518,0.429-1.023,1.254-1.408c-0.297-0.154-0.44-0.34-0.44-0.549
					c0-0.275,0.177-0.463,0.507-0.672c-0.562-0.275-0.946-0.814-0.946-1.529c0-1.078,0.891-1.738,1.859-1.738
					c0.495,0,0.945,0.154,1.287,0.439l1.275-0.418l0.1,0.572l-1.111,0.121c0.221,0.275,0.353,0.627,0.353,1.023
					c0,1.078-0.88,1.738-1.882,1.738c-0.176,0-0.341-0.012-0.494-0.055c-0.297,0.164-0.418,0.285-0.418,0.418
					c0,0.23,0.23,0.33,1.209,0.518l0.396,0.076c1.188,0.23,1.771,0.561,1.771,1.287
					C149.549,210.804,148.471,211.386,147.139,211.386z M146.557,208.823c-0.814,0.342-1.199,0.736-1.199,1.199
					c0,0.627,0.814,0.945,1.826,0.945c1.089,0,1.848-0.451,1.848-1.033c0-0.473-0.396-0.693-1.463-0.902l-0.396-0.076
					C146.92,208.911,146.732,208.866,146.557,208.823z M147.062,204.554c-0.814,0-1.332,0.562-1.332,1.332
					c0,0.736,0.518,1.332,1.354,1.332c0.848,0,1.365-0.572,1.365-1.332C148.449,205.149,147.888,204.554,147.062,204.554z"/>
				<path d="M154.047,209.429l-0.121-0.693c-0.539,0.473-1.178,0.803-1.826,0.803c-0.869,0-1.562-0.439-1.562-1.375
					c0-1.154,0.88-1.771,3.366-2.002v-0.451c0-0.727-0.429-1.078-1.144-1.078c-0.595,0-1.199,0.164-1.771,0.461l-0.066-0.482
					c0.583-0.266,1.178-0.451,1.859-0.451c1.057,0,1.629,0.539,1.629,1.529v3.74H154.047z M153.903,206.589
					c-2.134,0.232-2.839,0.684-2.839,1.529c0,0.66,0.474,0.969,1.057,0.969c0.551,0,1.221-0.33,1.782-0.824V206.589z"/>
				<path d="M159.612,209.429v-3.598c0-0.781-0.374-1.211-1.11-1.211c-0.572,0-1.167,0.33-1.816,0.936v3.873h-0.517v-5.172h0.374
					l0.133,0.781c0.627-0.549,1.198-0.891,1.881-0.891c1.066,0,1.572,0.605,1.572,1.639v3.643H159.612z"/>
				<path d="M162.219,202.86c-0.242,0-0.451-0.221-0.451-0.451c0-0.242,0.209-0.439,0.451-0.439s0.439,0.197,0.439,0.439
					C162.658,202.64,162.461,202.86,162.219,202.86z M161.966,209.429v-5.172h0.506v5.172H161.966z"/>
				<path d="M163.967,209.429v-0.396l3.235-4.346h-2.971l-0.065-0.43h3.641v0.385l-3.234,4.357h3.213l0.066,0.43H163.967z"/>
				<path d="M172.36,209.429l-0.121-0.693c-0.539,0.473-1.177,0.803-1.826,0.803c-0.869,0-1.562-0.439-1.562-1.375
					c0-1.154,0.879-1.771,3.365-2.002v-0.451c0-0.727-0.429-1.078-1.144-1.078c-0.595,0-1.199,0.164-1.771,0.461l-0.065-0.482
					c0.582-0.266,1.177-0.451,1.859-0.451c1.056,0,1.628,0.539,1.628,1.529v3.74H172.36z M172.217,206.589
					c-2.134,0.232-2.838,0.684-2.838,1.529c0,0.66,0.473,0.969,1.057,0.969c0.55,0,1.221-0.33,1.781-0.824V206.589z"/>
				<path d="M175.946,209.517c-0.737,0-1.222-0.309-1.222-1.178v-3.641h-0.803v-0.441h0.803v-1.836l0.518-0.111v1.947h1.266
					l0.065,0.441h-1.331v3.553c0,0.605,0.242,0.814,0.814,0.814c0.164,0,0.396-0.045,0.517-0.078l0.077,0.418
					C176.518,209.462,176.232,209.517,175.946,209.517z"/>
				<path d="M178.377,202.86c-0.242,0-0.451-0.221-0.451-0.451c0-0.242,0.209-0.439,0.451-0.439s0.44,0.197,0.44,0.439
					C178.817,202.64,178.619,202.86,178.377,202.86z M178.125,209.429v-5.172h0.506v5.172H178.125z"/>
				<path d="M182.469,209.538c-1.287,0-2.277-0.99-2.277-2.695c0-1.717,1.023-2.695,2.277-2.695c1.299,0,2.289,0.979,2.289,2.695
					C184.758,208.548,183.734,209.538,182.469,209.538z M182.469,204.599c-0.99,0-1.738,0.781-1.738,2.244
					c0,1.43,0.76,2.244,1.738,2.244c0.99,0,1.75-0.77,1.75-2.244C184.219,205.413,183.459,204.599,182.469,204.599z"/>
				<path d="M189.686,209.429v-3.598c0-0.781-0.375-1.211-1.111-1.211c-0.572,0-1.166,0.33-1.815,0.936v3.873h-0.517v-5.172h0.373
					l0.133,0.781c0.627-0.549,1.199-0.891,1.881-0.891c1.067,0,1.573,0.605,1.573,1.639v3.643H189.686z"/>
				<path d="M196.428,209.538c-1.287,0-2.277-0.99-2.277-2.695c0-1.717,1.023-2.695,2.277-2.695c1.299,0,2.289,0.979,2.289,2.695
					C198.717,208.548,197.693,209.538,196.428,209.538z M196.428,204.599c-0.99,0-1.738,0.781-1.738,2.244
					c0,1.43,0.76,2.244,1.738,2.244c0.99,0,1.75-0.77,1.75-2.244C198.178,205.413,197.418,204.599,196.428,204.599z"/>
				<path d="M201.852,202.067c-0.529,0-0.848,0.266-0.848,0.902v1.287h1.089l0.077,0.441h-1.166v4.73h-0.506v-4.73h-0.803v-0.441
					h0.803v-1.309c0-0.891,0.473-1.354,1.331-1.354c0.165,0,0.241,0,0.341,0.012l0.077,0.494
					C202.148,202.079,202.061,202.067,201.852,202.067z"/>
				<path d="M207.361,209.517c-0.737,0-1.221-0.309-1.221-1.178v-3.641h-0.804v-0.441h0.804v-1.836l0.517-0.111v1.947h1.265
					l0.066,0.441h-1.331v3.553c0,0.605,0.241,0.814,0.813,0.814c0.166,0,0.396-0.045,0.518-0.078l0.077,0.418
					C207.934,209.462,207.647,209.517,207.361,209.517z"/>
				<path d="M212.906,209.429v-3.598c0-0.781-0.375-1.211-1.111-1.211c-0.572,0-1.166,0.33-1.815,0.936v3.873h-0.517v-7.756
					l0.517-0.111v3.467c0.627-0.539,1.188-0.881,1.87-0.881c1.067,0,1.573,0.594,1.573,1.617v3.664H212.906z"/>
				<path d="M217.119,209.538c-1.365,0-2.277-1.012-2.277-2.695c0-1.65,0.912-2.695,2.166-2.695c1.32,0,2.014,1.154,2.014,2.586
					v0.109h-3.652c0,1.32,0.616,2.244,1.771,2.244c0.627,0,1.287-0.33,1.793-0.791l0.077,0.482
					C218.537,209.208,217.855,209.538,217.119,209.538z M215.381,206.413h3.102c-0.033-1.012-0.572-1.836-1.475-1.836
					C216.106,204.577,215.502,205.271,215.381,206.413z"/>
				<path d="M225.809,209.538c-1.738,0-2.751-1.221-2.751-2.916v-4.785h0.528v4.709c0,1.484,0.781,2.52,2.244,2.52
					c1.441,0,2.244-0.979,2.244-2.465v-4.764h0.528v4.73C228.603,208.339,227.557,209.538,225.809,209.538z"/>
				<path d="M230.373,209.429v-0.893h0.66v0.893H230.373z"/>
				<path d="M238.129,209.429l-4.654-6.789v6.789h-0.506v-7.592h0.539l4.533,6.602v-6.602h0.506v7.592H238.129z"/>
				<path d="M240.48,209.429v-0.893h0.66v0.893H240.48z"/>
			</g>
		</g>
		<g id="Chart_Items_16_">
			<rect id="Chart_Area_14_" y="12.627" fill="none" width="158.343" height="168.101"/>
			<g id="Vertical_Labels_12_">
				<g>
					<g>
						<path fill="#333333" d="M2.586,12.709V5.201L0.8,5.956L0.716,5.478l2.027-0.924H3.15v8.155H2.586z"/>
						<path fill="#333333" d="M7.41,12.853c-0.923,0-1.619-0.239-2.17-0.563l0.084-0.575c0.635,0.383,1.235,0.635,2.111,0.635
							c1.151,0,2.219-0.719,2.219-2.074c0-1.176-0.744-1.919-2.051-1.919c-0.731,0-1.211,0.168-1.655,0.348L5.624,8.619l0.276-4.018
							h3.934l0.084,0.503H6.391L6.175,8.128c0.384-0.145,0.827-0.276,1.451-0.276c1.607,0,2.626,0.911,2.626,2.399
							C10.253,11.846,8.945,12.853,7.41,12.853z"/>
						<path fill="#333333" d="M14.694,12.864c-1.811,0-2.866-1.727-2.866-4.197s1.067-4.222,2.878-4.222s2.866,1.728,2.866,4.198
							C17.572,11.126,16.505,12.864,14.694,12.864z M14.706,4.949c-1.511,0-2.291,1.583-2.291,3.706s0.78,3.706,2.291,3.706
							c1.499,0,2.279-1.583,2.279-3.706S16.205,4.949,14.706,4.949z"/>
					</g>
					<g>
						<path fill="#333333" d="M14.693,151.995c-1.811,0-2.866-1.727-2.866-4.197s1.067-4.223,2.878-4.223s2.866,1.729,2.866,4.199
							C17.572,150.257,16.504,151.995,14.693,151.995z M14.706,144.079c-1.511,0-2.291,1.584-2.291,3.707s0.78,3.705,2.291,3.705
							c1.499,0,2.279-1.582,2.279-3.705S16.205,144.079,14.706,144.079z"/>
					</g>
					<g>
						<path fill="#333333" d="M7.53,124.403c-0.899,0-1.679-0.266-2.231-0.637l0.096-0.576c0.708,0.48,1.295,0.709,2.159,0.709
							c1.235,0,2.027-0.768,2.027-1.812c0-1.115-0.779-1.871-2.471-1.871H6.763l-0.06-0.516h0.492c1.439,0,2.231-0.684,2.231-1.703
							c0-0.875-0.6-1.51-1.727-1.51c-0.864,0-1.571,0.336-2.195,0.791l-0.072-0.551c0.624-0.445,1.355-0.744,2.291-0.744
							c1.499,0,2.291,0.887,2.291,1.99c0,1.092-0.755,1.68-1.595,1.955c1.055,0.312,1.751,0.984,1.751,2.146
							C10.169,123.419,9.042,124.403,7.53,124.403z"/>
						<path fill="#333333" d="M14.694,124.403c-1.811,0-2.866-1.729-2.866-4.199s1.067-4.221,2.878-4.221s2.866,1.727,2.866,4.197
							C17.572,122.663,16.505,124.403,14.694,124.403z M14.706,116.487c-1.511,0-2.291,1.582-2.291,3.705s0.78,3.707,2.291,3.707
							c1.499,0,2.279-1.584,2.279-3.707S16.205,116.487,14.706,116.487z"/>
					</g>
					<g>
						<path fill="#333333" d="M5.611,92.647c0.731-0.527,1.487-0.814,2.303-0.814c1.451,0,2.423,0.924,2.423,2.375
							c0,1.582-1.092,2.602-2.543,2.602c-1.619,0-2.794-1.379-2.794-3.441c0-2.699,1.595-4.234,4.09-5.002l0.084,0.553
							C7.05,89.542,5.839,90.776,5.611,92.647z M5.575,93.235v0.096c0,1.74,0.936,2.986,2.231,2.986c1.188,0,1.931-0.84,1.931-2.086
							c0-1.092-0.648-1.895-1.883-1.895C7.014,92.337,6.258,92.72,5.575,93.235z"/>
						<path fill="#333333" d="M14.693,96.81c-1.811,0-2.866-1.727-2.866-4.197s1.067-4.223,2.878-4.223s2.866,1.729,2.866,4.199
							C17.572,95.071,16.504,96.81,14.693,96.81z M14.706,88.894c-1.511,0-2.291,1.584-2.291,3.707s0.78,3.705,2.291,3.705
							c1.499,0,2.279-1.582,2.279-3.705S16.205,88.894,14.706,88.894z"/>
					</g>
					<g>
						<path fill="#333333" d="M9.557,65.091c-0.744,0.516-1.475,0.779-2.279,0.779c-1.427,0-2.422-0.936-2.422-2.457
							c0-1.465,0.971-2.615,2.542-2.615c1.655,0,2.782,1.379,2.782,3.441c0,2.699-1.619,4.307-4.197,5.002l-0.096-0.539
							C8.058,68.198,9.281,66.927,9.557,65.091z M9.617,64.491v-0.215c0-1.787-0.947-2.986-2.219-2.986
							c-1.235,0-1.955,0.887-1.955,2.098c0,1.152,0.672,1.979,1.895,1.979C8.118,65.366,8.933,65.019,9.617,64.491z"/>
						<path fill="#333333" d="M14.693,69.218c-1.811,0-2.866-1.729-2.866-4.199s1.067-4.221,2.878-4.221s2.866,1.727,2.866,4.197
							C17.572,67.478,16.504,69.218,14.693,69.218z M14.706,61.302c-1.511,0-2.291,1.582-2.291,3.705s0.78,3.707,2.291,3.707
							c1.499,0,2.279-1.584,2.279-3.707S16.205,61.302,14.706,61.302z"/>
					</g>
					<g>
						<path fill="#333333" d="M2.634,41.47v-7.508l-1.787,0.756l-0.084-0.48l2.027-0.924h0.408v8.156H2.634z"/>
						<path fill="#333333" d="M5.251,41.47v-0.385l2.974-3.227c0.972-1.055,1.259-1.643,1.259-2.482
							c0-1.031-0.659-1.666-1.715-1.666c-0.839,0-1.571,0.42-2.219,0.971l-0.096-0.588c0.611-0.492,1.367-0.887,2.338-0.887
							c1.439,0,2.279,0.863,2.279,2.135c0,1.008-0.408,1.727-1.403,2.795l-2.65,2.842h4.125l0.072,0.492H5.251z"/>
						<path fill="#333333" d="M14.694,41.626c-1.811,0-2.866-1.729-2.866-4.199s1.067-4.221,2.878-4.221s2.866,1.727,2.866,4.197
							C17.572,39.886,16.505,41.626,14.694,41.626z M14.706,33.71c-1.511,0-2.291,1.582-2.291,3.705s0.78,3.707,2.291,3.707
							c1.499,0,2.279-1.584,2.279-3.707S16.205,33.71,14.706,33.71z"/>
					</g>
				</g>
			</g>
			<g>
				<path fill="#333333" d="M23.73,12.805c-0.804,0-1.332-0.335-1.332-1.283v-3.97h-0.875V7.072h0.875V5.069l0.564-0.12v2.123h1.379
					l0.072,0.479h-1.451v3.874c0,0.659,0.264,0.888,0.887,0.888c0.18,0,0.432-0.049,0.564-0.084l0.084,0.455
					C24.354,12.745,24.042,12.805,23.73,12.805z"/>
				<path fill="#333333" d="M29.777,12.709V8.787c0-0.852-0.408-1.319-1.211-1.319c-0.624,0-1.271,0.359-1.979,1.02v4.222h-0.563
					V4.253l0.563-0.119v3.777c0.684-0.588,1.295-0.959,2.039-0.959c1.163,0,1.715,0.647,1.715,1.764v3.993H29.777z"/>
				<path fill="#333333" d="M34.374,12.829c-1.403,0-2.483-1.08-2.483-2.938c0-1.871,1.116-2.938,2.483-2.938
					c1.415,0,2.495,1.067,2.495,2.938C36.868,11.749,35.752,12.829,34.374,12.829z M34.374,7.444c-1.08,0-1.895,0.852-1.895,2.446
					c0,1.56,0.828,2.446,1.895,2.446c1.079,0,1.907-0.84,1.907-2.446C36.28,8.331,35.453,7.444,34.374,7.444z"/>
				<path fill="#333333" d="M42.329,12.709l-0.144-0.852c-0.684,0.6-1.307,0.972-2.051,0.972c-1.164,0-1.715-0.66-1.715-1.787v-3.97
					h0.564v3.922c0,0.852,0.408,1.319,1.211,1.319c0.624,0,1.271-0.359,1.979-1.02V7.072h0.564v5.637H42.329z"/>
				<path fill="#333333" d="M46.313,12.805c-0.755,0-1.499-0.228-2.003-0.503l0.108-0.553c0.528,0.301,1.211,0.553,1.955,0.553
					c0.839,0,1.391-0.373,1.391-1.032c0-0.587-0.348-0.888-1.559-1.224c-1.188-0.323-1.727-0.73-1.727-1.595
					c0-0.863,0.744-1.487,1.859-1.487c0.636,0,1.199,0.156,1.655,0.385l-0.096,0.539c-0.516-0.264-1.043-0.408-1.583-0.408
					c-0.888,0-1.283,0.42-1.283,0.936c0,0.527,0.335,0.792,1.343,1.068c1.283,0.348,1.943,0.791,1.943,1.738
					C48.316,12.241,47.489,12.805,46.313,12.805z"/>
				<path fill="#333333" d="M53.393,12.709l-0.132-0.755c-0.587,0.516-1.283,0.875-1.991,0.875c-0.947,0-1.703-0.48-1.703-1.5
					c0-1.259,0.959-1.93,3.67-2.182V8.655c0-0.791-0.468-1.176-1.247-1.176c-0.648,0-1.307,0.18-1.931,0.504l-0.072-0.527
					c0.636-0.288,1.283-0.492,2.027-0.492c1.151,0,1.775,0.588,1.775,1.668v4.077H53.393z M53.236,9.614
					c-2.327,0.252-3.094,0.744-3.094,1.668c0,0.719,0.516,1.055,1.151,1.055c0.6,0,1.332-0.359,1.943-0.899V9.614z"/>
				<path fill="#333333" d="M59.464,12.709V8.787c0-0.852-0.408-1.319-1.211-1.319c-0.624,0-1.271,0.359-1.979,1.02v4.222H55.71
					V7.072h0.408l0.144,0.852c0.684-0.601,1.307-0.972,2.051-0.972c1.163,0,1.715,0.66,1.715,1.787v3.97H59.464z"/>
				<path fill="#333333" d="M65.86,12.709l-0.144-0.827c-0.444,0.516-0.983,0.947-1.799,0.947c-1.248,0-2.315-0.888-2.315-2.783
					c0-2.051,1.224-3.058,2.591-3.058c0.576,0,1.067,0.108,1.511,0.3V4.253l0.563-0.119v8.575H65.86z M65.704,7.84
					c-0.444-0.228-0.936-0.36-1.5-0.36c-1.115,0-2.015,0.804-2.015,2.543c0,1.475,0.731,2.291,1.739,2.291
					c0.684,0,1.223-0.408,1.775-1.031V7.84z"/>
				<path fill="#333333" d="M78.398,12.709V8.787c0-0.852-0.372-1.319-1.188-1.319c-0.6,0-1.235,0.348-1.943,0.996v4.245h-0.552
					V8.787c0-0.852-0.372-1.319-1.188-1.319c-0.6,0-1.247,0.348-1.943,0.983v4.258h-0.563V7.072h0.408l0.144,0.815
					c0.671-0.576,1.283-0.936,2.015-0.936c0.888,0,1.391,0.359,1.583,1.02c0.708-0.623,1.343-1.02,2.111-1.02
					c1.164,0,1.679,0.647,1.679,1.764v3.993H78.398z"/>
				<path fill="#333333" d="M82.997,12.829c-1.487,0-2.483-1.104-2.483-2.938c0-1.8,0.996-2.938,2.363-2.938
					c1.439,0,2.195,1.26,2.195,2.818v0.12h-3.982c0,1.438,0.672,2.446,1.931,2.446c0.684,0,1.403-0.359,1.955-0.863l0.084,0.527
					C84.543,12.47,83.8,12.829,82.997,12.829z M81.102,9.423h3.382C84.448,8.319,83.86,7.42,82.876,7.42S81.233,8.175,81.102,9.423z
					"/>
				<path fill="#333333" d="M88.289,12.805c-0.803,0-1.331-0.335-1.331-1.283v-3.97h-0.875V7.072h0.875V5.069l0.563-0.12v2.123H88.9
					l0.072,0.479h-1.452v3.874c0,0.659,0.264,0.888,0.888,0.888c0.18,0,0.432-0.049,0.564-0.084l0.083,0.455
					C88.913,12.745,88.601,12.805,88.289,12.805z"/>
				<path fill="#333333" d="M91.145,9.003v3.706h-0.563V7.072h0.372l0.18,1.175c0.432-0.635,1.091-1.283,2.027-1.295l0.096,0.527
					C92.333,7.54,91.529,8.247,91.145,9.003z"/>
				<path fill="#333333" d="M94.925,5.549c-0.264,0-0.492-0.239-0.492-0.491c0-0.264,0.228-0.48,0.492-0.48
					c0.264,0,0.479,0.217,0.479,0.48C95.405,5.31,95.189,5.549,94.925,5.549z M94.649,12.709V7.072h0.551v5.637H94.649z"/>
				<path fill="#333333" d="M99.388,12.829c-1.379,0-2.483-1.08-2.483-2.938c0-1.871,1.116-2.938,2.519-2.938
					c0.708,0,1.332,0.252,1.823,0.623l-0.108,0.576c-0.564-0.479-1.091-0.707-1.739-0.707c-1.091,0-1.907,0.887-1.907,2.446
					c0,1.451,0.792,2.446,1.955,2.446c0.612,0,1.176-0.216,1.763-0.719l0.072,0.527C100.767,12.577,100.144,12.829,99.388,12.829z"
					/>
				<path fill="#333333" d="M107.201,12.805c-0.804,0-1.332-0.335-1.332-1.283v-3.97h-0.875V7.072h0.875V5.069l0.564-0.12v2.123
					h1.379l0.072,0.479h-1.451v3.874c0,0.659,0.264,0.888,0.887,0.888c0.18,0,0.432-0.049,0.564-0.084l0.084,0.455
					C107.824,12.745,107.512,12.805,107.201,12.805z"/>
				<path fill="#333333" d="M111.554,12.829c-1.403,0-2.483-1.08-2.483-2.938c0-1.871,1.116-2.938,2.483-2.938
					c1.415,0,2.495,1.067,2.495,2.938C114.049,11.749,112.933,12.829,111.554,12.829z M111.554,7.444
					c-1.08,0-1.895,0.852-1.895,2.446c0,1.56,0.828,2.446,1.895,2.446c1.079,0,1.907-0.84,1.907-2.446
					C113.461,8.331,112.633,7.444,111.554,7.444z"/>
				<path fill="#333333" d="M119.425,12.709V8.787c0-0.852-0.408-1.319-1.211-1.319c-0.624,0-1.271,0.359-1.979,1.02v4.222h-0.563
					V7.072h0.408l0.144,0.852c0.684-0.601,1.307-0.972,2.051-0.972c1.163,0,1.715,0.66,1.715,1.787v3.97H119.425z"/>
				<path fill="#333333" d="M123.494,12.805c-0.755,0-1.499-0.228-2.003-0.503l0.108-0.553c0.528,0.301,1.211,0.553,1.955,0.553
					c0.839,0,1.391-0.373,1.391-1.032c0-0.587-0.348-0.888-1.559-1.224c-1.188-0.323-1.727-0.73-1.727-1.595
					c0-0.863,0.744-1.487,1.859-1.487c0.636,0,1.199,0.156,1.655,0.385l-0.096,0.539c-0.516-0.264-1.043-0.408-1.583-0.408
					c-0.888,0-1.283,0.42-1.283,0.936c0,0.527,0.335,0.792,1.343,1.068c1.283,0.348,1.943,0.791,1.943,1.738
					C125.497,12.241,124.669,12.805,123.494,12.805z"/>
				<path d="M127.479,7.588h-0.684V7.097h0.684l1.223,0.18v0.131L127.479,7.588z M129.182,6.952h-0.156l-0.155-1.164V4.434h0.479
					v1.354L129.182,6.952z M129.158,14.112h-0.108l-0.168-1.224V8.8l0.144-1.068h0.156l0.156,1.068v4.089L129.158,14.112z
					 M130.729,7.588l-1.211-0.181V7.276l1.211-0.18h0.696v0.491H130.729z"/>
			</g>
			<g id="Vertical_scale_12_">
				<line fill="none" stroke="#CCCCCC" stroke-linejoin="round" stroke-miterlimit="10" x1="0" y1="16" x2="156.843" y2="16"/>
				
					<line id="line_73_" fill="none" stroke="#CCCCCC" stroke-linejoin="round" stroke-miterlimit="10" x1="119" y1="126.369" x2="156.843" y2="126.369"/>
				
					<line id="line_72_" fill="none" stroke="#CCCCCC" stroke-linejoin="round" stroke-miterlimit="10" x1="0" y1="126.369" x2="32.667" y2="126.369"/>
				
					<line id="line_71_" fill="none" stroke="#CCCCCC" stroke-linejoin="round" stroke-miterlimit="10" x1="117.333" y1="98.777" x2="156.843" y2="98.777"/>
				
					<line id="line_70_" fill="none" stroke="#CCCCCC" stroke-linejoin="round" stroke-miterlimit="10" x1="0" y1="98.777" x2="33.667" y2="98.777"/>
				
					<line id="line_51_" fill="none" stroke="#CCCCCC" stroke-linejoin="round" stroke-miterlimit="10" x1="0" y1="71.185" x2="156.843" y2="71.185"/>
				
					<line id="line_52_" fill="none" stroke="#CCCCCC" stroke-linejoin="round" stroke-miterlimit="10" x1="0" y1="43.592" x2="156.843" y2="43.592"/>
			</g>
			<g id="Ticks_11_">
				<g id="Date_Ticks_12_">
					
						<line fill="none" stroke="#333333" stroke-linejoin="round" stroke-miterlimit="10" x1="20.376" y1="154.962" x2="20.376" y2="160.962"/>
					
						<line fill="none" stroke="#333333" stroke-linejoin="round" stroke-miterlimit="10" x1="47.669" y1="154.962" x2="47.669" y2="160.962"/>
					
						<line fill="none" stroke="#333333" stroke-linejoin="round" stroke-miterlimit="10" x1="74.963" y1="154.962" x2="74.963" y2="160.962"/>
					
						<line fill="none" stroke="#333333" stroke-linejoin="round" stroke-miterlimit="10" x1="102.256" y1="154.962" x2="102.256" y2="160.962"/>
					
						<line fill="none" stroke="#333333" stroke-linejoin="round" stroke-miterlimit="10" x1="129.549" y1="154.962" x2="129.549" y2="160.962"/>
					
						<line fill="none" stroke="#333333" stroke-linejoin="round" stroke-miterlimit="10" x1="156.953" y1="154.962" x2="156.953" y2="160.962"/>
				</g>
				<g id="Tick_labels_6_">
					<g>
						<path fill="#333333" d="M42.887,168.456l-0.312-0.071l0.468-2.495h0.732L42.887,168.456z"/>
						<path fill="#333333" d="M46.762,174.165v-7.508l-1.787,0.756l-0.084-0.479l2.027-0.923h0.408v8.154H46.762z"/>
						<path fill="#333333" d="M51.01,174.165v-7.508l-1.787,0.756l-0.084-0.479l2.027-0.923h0.408v8.154H51.01z"/>
					</g>
					<g>
						<path fill="#333333" d="M9.503,174.165v-0.383l2.974-3.227c0.972-1.056,1.26-1.643,1.26-2.482c0-1.031-0.66-1.668-1.715-1.668
							c-0.839,0-1.571,0.42-2.219,0.973l-0.096-0.588c0.612-0.492,1.368-0.889,2.339-0.889c1.439,0,2.279,0.864,2.279,2.136
							c0,1.007-0.408,1.728-1.403,2.794l-2.65,2.843h4.125l0.072,0.491H9.503z"/>
						<path fill="#333333" d="M18.946,174.321c-1.811,0-2.866-1.727-2.866-4.197s1.067-4.223,2.878-4.223s2.866,1.728,2.866,4.198
							C21.824,172.583,20.757,174.321,18.946,174.321z M18.958,166.405c-1.511,0-2.291,1.584-2.291,3.707
							c0,2.122,0.78,3.705,2.291,3.705c1.499,0,2.279-1.583,2.279-3.705C21.237,167.989,20.457,166.405,18.958,166.405z"/>
						<path fill="#333333" d="M24.922,174.165v-7.508l-1.787,0.756l-0.084-0.479l2.027-0.923h0.408v8.154H24.922z"/>
						<path fill="#333333" d="M30.55,174.321c-1.811,0-2.866-1.727-2.866-4.197s1.067-4.223,2.878-4.223s2.866,1.728,2.866,4.198
							C33.428,172.583,32.361,174.321,30.55,174.321z M30.562,166.405c-1.511,0-2.291,1.584-2.291,3.707
							c0,2.122,0.78,3.705,2.291,3.705c1.499,0,2.279-1.583,2.279-3.705C32.841,167.989,32.061,166.405,30.562,166.405z"/>
					</g>
					<g>
						<path fill="#333333" d="M70.181,168.456l-0.312-0.071l0.468-2.495h0.732L70.181,168.456z"/>
						<path fill="#333333" d="M74.056,174.165v-7.508l-1.787,0.756l-0.084-0.479l2.027-0.923h0.408v8.154H74.056z"/>
						<path fill="#333333" d="M76.673,174.165v-0.383l2.974-3.227c0.972-1.056,1.26-1.643,1.26-2.482
							c0-1.031-0.66-1.668-1.715-1.668c-0.839,0-1.571,0.42-2.219,0.973l-0.096-0.588c0.612-0.492,1.368-0.889,2.339-0.889
							c1.439,0,2.279,0.864,2.279,2.136c0,1.007-0.408,1.728-1.403,2.794l-2.65,2.843h4.125l0.072,0.491H76.673z"/>
					</g>
					<g>
						<path fill="#333333" d="M97.474,168.456l-0.312-0.071l0.468-2.495h0.732L97.474,168.456z"/>
						<path fill="#333333" d="M101.349,174.165v-7.508l-1.787,0.756l-0.084-0.479l2.027-0.923h0.408v8.154H101.349z"/>
						<path fill="#333333" d="M106.185,174.321c-0.899,0-1.679-0.264-2.231-0.635l0.096-0.576c0.708,0.479,1.295,0.707,2.159,0.707
							c1.235,0,2.027-0.768,2.027-1.811c0-1.115-0.779-1.871-2.471-1.871h-0.348l-0.06-0.516h0.492c1.439,0,2.231-0.684,2.231-1.703
							c0-0.875-0.6-1.512-1.727-1.512c-0.864,0-1.571,0.336-2.195,0.792l-0.072-0.552c0.624-0.443,1.355-0.744,2.291-0.744
							c1.499,0,2.291,0.889,2.291,1.992c0,1.091-0.755,1.679-1.595,1.955c1.055,0.311,1.751,0.982,1.751,2.146
							C108.824,173.338,107.696,174.321,106.185,174.321z"/>
					</g>
					<g>
						<path fill="#333333" d="M124.767,168.456l-0.312-0.071l0.468-2.495h0.732L124.767,168.456z"/>
						<path fill="#333333" d="M128.643,174.165v-7.508l-1.787,0.756l-0.084-0.479l2.027-0.923h0.407v8.154H128.643z"/>
						<path fill="#333333" d="M135.912,172.175v1.99h-0.539v-1.99h-4.234v-0.372l4.066-5.792h0.707v5.684h1.367v0.48H135.912z
							 M135.373,166.622l-3.574,5.072h3.574V166.622z"/>
						<path fill="#333333" d="M140.546,167.797l0.839,1.392l-0.131,0.084l-1.044-1.248l-1.044,1.248l-0.131-0.084l0.827-1.392
							l-1.451-0.6l0.048-0.155l1.535,0.359l0.132-1.596h0.168l0.132,1.596l1.535-0.359l0.049,0.155L140.546,167.797z"/>
					</g>
					<g>
						<path fill="#333333" d="M152.061,168.456l-0.312-0.071l0.469-2.495h0.731L152.061,168.456z"/>
						<path fill="#333333" d="M155.936,174.165v-7.508l-1.787,0.756l-0.084-0.479l2.027-0.923h0.408v8.154H155.936z"/>
						<path fill="#333333" d="M160.76,174.31c-0.924,0-1.619-0.24-2.171-0.564l0.084-0.575c0.636,0.384,1.235,0.636,2.11,0.636
							c1.152,0,2.219-0.72,2.219-2.074c0-1.176-0.743-1.92-2.051-1.92c-0.731,0-1.211,0.168-1.654,0.348l-0.324-0.084l0.275-4.018
							h3.934l0.084,0.504h-3.525l-0.217,3.022c0.385-0.144,0.828-0.276,1.452-0.276c1.606,0,2.626,0.912,2.626,2.399
							C163.602,173.302,162.295,174.31,160.76,174.31z"/>
						<path fill="#333333" d="M167.168,167.797l0.839,1.392l-0.132,0.084l-1.043-1.248l-1.044,1.248l-0.132-0.084l0.828-1.392
							l-1.451-0.6l0.047-0.155l1.535,0.359l0.133-1.596h0.168l0.131,1.596l1.535-0.359l0.049,0.155L167.168,167.797z"/>
					</g>
				</g>
			</g>
			<g id="Moved_baseline_10_">
				
					<line id="Zero_baseline_13_" fill="none" stroke="#333333" stroke-linejoin="round" stroke-miterlimit="10" x1="0" y1="153.962" x2="156.843" y2="153.962"/>
			</g>
			<g id="FeverLines_x5F_fg">
				
					<polyline id="Turkey_1_" fill="none" stroke="#C0B981" stroke-width="3" stroke-linejoin="round" stroke-miterlimit="10" points="
					20.376,80.29 47.669,80.382 74.963,64.562 102.256,57.388 129.549,54.63 156.843,63.368 				"/>
				
					<polyline id="Greece_1_" fill="none" stroke="#0079AE" stroke-width="3" stroke-linejoin="round" stroke-miterlimit="10" points="
					20.376,64.194 47.669,47.731 74.963,47.914 102.256,45.432 129.549,46.353 156.843,53.895 				"/>
			</g>
		</g>
	</g>
</g>
</svg>
