<?xml version="1.0" encoding="utf-8"?>
<!-- Generator: Adobe Illustrator 18.1.0, SVG Export Plug-In . SVG Version: 6.00 Build 0)  -->
<!DOCTYPE svg PUBLIC "-//W3C//DTD SVG 1.1//EN" "http://www.w3.org/Graphics/SVG/1.1/DTD/svg11.dtd">
<svg version="1.1" id="Layer_1" xmlns="http://www.w3.org/2000/svg" xmlns:xlink="http://www.w3.org/1999/xlink" x="0px" y="0px"
	 viewBox="0 0 940 500" enable-background="new 0 0 940 500" xml:space="preserve">
<g>
	<path fill="#EAF2F9" stroke="#B2C1CA" stroke-width="2" stroke-miterlimit="10" d="M322.155,299.454l-23.789-17.658
		c-0.339-0.251-0.739-0.406-1.159-0.449l-34.354-3.446c-1.273-0.128-2.506,0.484-3.175,1.575l-3.04,4.96
		c-0.809,1.32-2.421,1.909-3.891,1.422l-3.287-1.09c-1.068-0.354-1.885-1.223-2.173-2.311l-2.607-9.848
		c-0.365-1.379-1.568-2.373-2.991-2.472h0c-4.388-0.305-7.282-4.704-5.825-8.855l0.317-0.904c0.715-2.037-0.664-4.205-2.812-4.421
		l-3.685-0.37c-0.87-0.087-1.739,0.17-2.42,0.718l-4.284,3.44c-2.128,1.709-5.258,1.258-6.817-0.981l-2.026-2.91
		c-0.989-1.42-1.233-3.23-0.656-4.861l2.313-6.542c1.434-4.056,4.992-6.988,9.247-7.62l10.659-1.583
		c4.334-0.644,8.517,1.874,9.978,6.005l1.435,4.059c0.37,1.046,1.424,1.687,2.523,1.535l2.629-0.365
		c1.155-0.16,2.015-1.148,2.015-2.313v-6.146c0-2.523,0.802-4.981,2.29-7.018l12.205-16.714c2.04-2.794,4.677-5.099,7.718-6.747
		l17.546-9.51c0.05-0.027,0.101-0.053,0.153-0.076l15.175-6.838c7.435-3.35,10.753-12.089,7.415-19.53l-12.22-27.236
		c-1.132-2.522-4.213-3.489-6.583-2.065l0,0c-2.488,1.495-5.722,0.347-6.711-2.382l-3.484-9.614
		c-1.182-3.263-4.359-5.369-7.824-5.188l-9.863,0.515c-1.129,0.059-2.054,0.918-2.195,2.04l-4.094,32.444
		c-0.132,1.043-0.944,1.869-1.984,2.019l-3.541,0.51c-0.755,0.109-1.516-0.158-2.038-0.716l-25.082-26.794
		c-0.607-0.648-0.794-1.585-0.482-2.416l4.597-12.261c0.284-0.757,0.938-1.313,1.731-1.471l20.639-4.11
		c3.452-0.687,5.938-3.717,5.938-7.237V92.857c0-7.696-6.673-13.694-14.325-12.877l-46.281,4.944
		c-5.809,0.62-11.663-0.649-16.693-3.619l-20.918-12.354c-4.403-2.6-9.996-1.975-13.716,1.534l-3.27,3.084
		c-4.257,4.016-10.621,4.825-15.748,2.001L97.737,56.35c-1.205-0.664-2.671-0.64-3.854,0.062l-19.567,11.61
		c-1.911,1.134-2.482,3.637-1.252,5.488l2.987,4.495c1.715,2.581-0.135,6.032-3.234,6.032h0c-1.752,0-3.287,1.174-3.747,2.865
		l-1.288,4.74c-0.37,1.363,0.545,2.741,1.945,2.927l5.826,0.777c2.038,0.272,2.756,2.854,1.151,4.139l-5.24,4.193
		c-2.651,2.122-3.758,5.635-2.803,8.893l2.654,9.053c0.237,0.81,0.893,1.428,1.715,1.618l6.063,1.403
		c1.895,0.438,2.455,2.865,0.944,4.09l0,0c-2.156,1.747-0.008,5.127,2.489,3.916l12.299-5.961c0.041-0.02,0.081-0.041,0.12-0.063
		l5.351-2.988c6.944-3.877,15.445-3.678,22.199,0.521l4.648,2.889c7.415,4.61,13.606,10.944,18.043,18.464l7.059,11.961
		c4.919,8.335,7.514,17.837,7.514,27.516v4.004c0,8.959,2.223,17.777,6.47,25.666l6.465,12.007c0.027,0.051,0.057,0.101,0.088,0.15
		l11.255,17.63c6.478,10.147,16.152,17.845,27.495,21.878l8.274,2.942c0.129,0.046,0.256,0.1,0.378,0.161l10.258,5.147
		c0.444,0.223,0.833,0.542,1.138,0.935l11.286,14.533c0.743,0.957,1.946,1.435,3.143,1.25h0c2.806-0.435,4.836,2.614,3.353,5.036
		l-5.686,9.281c-0.327,0.534-0.426,1.178-0.275,1.786l7.908,31.679c0.113,0.454,0.361,0.864,0.71,1.176l16.039,14.325
		c0.646,0.577,0.919,1.463,0.711,2.303l-20.839,84.133c-0.118,0.477-0.083,0.978,0.101,1.434l6.74,16.739
		c0.276,0.686,0.861,1.201,1.577,1.388l7.374,1.922c3.728,0.972,6.416-3.527,3.793-6.349l-2.803-3.016
		c-0.675-0.727-0.818-1.8-0.356-2.678l16.581-31.488c0.138-0.262,0.325-0.496,0.55-0.688l34.091-29.1
		c2.308-1.97,3.871-4.672,4.429-7.655l0.608-3.25c0.78-4.172,4.116-7.392,8.313-8.024l5.714-0.861
		c3.651-0.55,6.798-2.86,8.418-6.179l11.228-23.004c2.607-5.342,0.382-11.786-4.966-14.38l-21.767-10.558
		c-0.62-0.301-1.076-0.861-1.245-1.529l-3.28-12.974C322.895,300.235,322.587,299.775,322.155,299.454z"/>
	<path fill="#EAF2F9" stroke="#B2C1CA" stroke-width="2" stroke-miterlimit="10" d="M764.402,315.173l-0.447,3.544
		c-0.225,1.788-2.052,2.904-3.746,2.289l-7.57-2.748c-1.39-0.505-2.151-2.001-1.74-3.422l0.78-2.696
		c0.494-1.707-0.701-3.438-2.472-3.581l-9.928-0.804c-0.787-0.064-1.564,0.207-2.142,0.745l-17.583,16.381
		c-0.277,0.258-0.603,0.457-0.959,0.586l-17.292,6.262c-1.287,0.466-2.051,1.792-1.809,3.139l4.36,24.243
		c0.085,0.47,0.048,0.954-0.106,1.405l-0.871,2.55c-0.433,1.268,0.09,2.666,1.249,3.339l4.358,2.528
		c0.63,0.365,1.377,0.472,2.084,0.297l27.536-6.813c0.708-0.175,1.457-0.068,2.087,0.299l9.137,5.313
		c0.857,0.498,1.913,0.508,2.779,0.026l1.11-0.618c1.541-0.858,3.481-0.101,4.035,1.573l2.113,6.393
		c0.293,0.887,1.008,1.57,1.907,1.823l12.54,3.526c0.753,0.212,1.56,0.1,2.227-0.308l8.845-5.411
		c0.68-0.416,1.151-1.101,1.296-1.885l5.569-30.043c0.169-0.91-0.122-1.845-0.776-2.499l-15.05-15.043
		c-0.193-0.193-0.358-0.414-0.487-0.655l-5.774-10.717C768.366,311.785,764.744,312.461,764.402,315.173z"/>
	<path fill="#EAF2F9" stroke="#B2C1CA" stroke-width="2" stroke-miterlimit="10" d="M696.18,292.106l5.007,0.959
		c3.66,0.701,7.27-1.43,8.424-4.974l4.464-13.715c0.502-1.541,0.027-3.233-1.203-4.288l0,0c-1.336-1.146-3.263-1.289-4.753-0.35
		l-14.022,8.831c-2.813,1.771-4.171,5.148-3.369,8.374v0C691.384,289.58,693.512,291.595,696.18,292.106z"/>
	<path fill="#EAF2F9" stroke="#B2C1CA" stroke-width="2" stroke-miterlimit="10" d="M778.497,297.036L778.497,297.036
		c-0.283-0.602-0.764-1.09-1.363-1.381l-23.237-11.31c-0.48-0.234-1.016-0.331-1.548-0.282l-2.586,0.241
		c-3.774,0.352-5.467,4.911-2.838,7.641l8.958,9.302c0.582,0.605,1.368,0.972,2.205,1.031l6.63,0.466
		c0.941,0.066,1.868-0.263,2.556-0.908l0.96-0.899c1.131-1.059,2.837-1.217,4.144-0.383l1.226,0.783
		C776.469,303.169,779.945,300.113,778.497,297.036z"/>
	<path fill="#EAF2F9" stroke="#B2C1CA" stroke-width="2" stroke-miterlimit="10" d="M768.588,147.309h-0.711
		c-1.082,0-1.968,0.861-1.999,1.942l-0.551,19.107c-0.015,0.531-0.141,1.054-0.368,1.534l-10.163,21.477
		c-0.271,0.572-0.679,1.069-1.187,1.445l-11.774,8.721c-0.906,0.671-1.472,1.706-1.548,2.831l0,0
		c-0.209,3.093,3.139,5.15,5.803,3.565l14.835-8.824c2.745-1.633,4.523-4.499,4.766-7.683l0.703-9.211
		c0.074-0.964,0.507-1.865,1.215-2.523l2.933-2.729c2.357-2.193,2.242-5.959-0.243-8.005l0,0c-1.178-0.97-1.672-2.545-1.257-4.014
		l2.635-9.338c0.181-0.64,0.192-1.315,0.034-1.961l-1.181-4.811C770.311,147.938,769.509,147.309,768.588,147.309z"/>
	<path fill="#EAF2F9" stroke="#B2C1CA" stroke-width="2" stroke-miterlimit="10" d="M836.246,372.326l1.242,11.511
		c0.064,0.594-0.155,1.183-0.59,1.591l-15.078,14.119c-1.192,1.116-0.514,3.117,1.112,3.278l6.855,0.679
		c0.701,0.069,1.382-0.254,1.771-0.841l10.256-15.465l6.545-8.851c0.873-1.181,0.134-2.864-1.326-3.02l-1.578-0.168
		c-0.381-0.041-0.742-0.19-1.041-0.43l-5.086-4.089C838.007,369.58,836.065,370.643,836.246,372.326z"/>
	<path fill="#EAF2F9" stroke="#B2C1CA" stroke-width="2" stroke-miterlimit="10" d="M429.815,112.194v10.033
		c0,3.605,3.701,6.023,7.002,4.575l3.873-1.699c0.908-0.398,1.676-1.057,2.208-1.893l1.096-1.723
		c0.957-1.504,1.04-3.405,0.217-4.986l-9.344-17.968c-1.389-2.671-4.807-3.516-7.28-1.799l-0.828,0.574
		c-1.447,1.004-2.259,2.696-2.136,4.453l0.142,2.029c0.09,1.283-0.319,2.552-1.141,3.541l-5.054,6.083
		c-0.685,0.825-1.087,1.848-1.146,2.918l-0.132,2.394c-0.157,2.862,2.121,5.27,4.988,5.27l0,0c2.151,0,4.06-1.376,4.74-3.417
		L429.815,112.194z"/>
	<path fill="#EAF2F9" stroke="#B2C1CA" stroke-width="2" stroke-miterlimit="10" d="M540.846,322.881l-0.355,14.08
		c-0.05,1.991,1.116,3.813,2.945,4.602h0c2.626,1.132,5.658-0.226,6.561-2.94l5.759-17.31c0.269-0.808,0.321-1.672,0.153-2.507
		l-0.169-0.833c-0.718-3.548-4.913-5.106-7.773-2.886l-5.235,4.064C541.575,320.048,540.883,321.417,540.846,322.881z"/>
	<path fill="#EAF2F9" stroke="#B2C1CA" stroke-width="2" stroke-miterlimit="10" d="M830.593,110.72l16.014-8.904
		c3.211-1.785,4.659-5.632,3.422-9.091l-2.402-6.717c-0.94-2.627-3.259-4.517-6.022-4.907L690.288,59.755
		c-3.53-0.498-7.096-0.561-10.641-0.186c-20.505,2.169-95.526,10.102-142.244,15.019c-2.593,0.273-5.206,0.171-7.771-0.302
		l-41.963-7.732c-0.53-0.098-1.078-0.009-1.551,0.251l-17.255,9.51c-0.47,0.259-0.836,0.672-1.038,1.169l-6.812,16.834
		c-0.154,0.381-0.406,0.714-0.73,0.966l-4.799,3.738c-2.267,1.766-3.631,4.448-3.723,7.32l-0.25,7.79
		c-0.058,1.798,0.867,3.485,2.414,4.403l1.248,0.741c0.722,0.429,1.619,0.437,2.349,0.021l6.62-3.773
		c1.293-0.737,2.935-0.093,3.384,1.326l3.341,10.575c0.407,1.287,1.817,1.963,3.075,1.473l5.521-2.151
		c0.618-0.241,1.105-0.733,1.338-1.354l5.042-13.413c0.311-0.829,0.128-1.762-0.475-2.411l-2.433-2.621
		c-1.513-1.63-1.894-4.012-0.964-6.033l3.771-8.193c0.08-0.174,0.181-0.338,0.302-0.487l5.421-6.741
		c0.458-0.57,1.186-0.851,1.908-0.737l0.213,0.034c1.289,0.204,2.058,1.548,1.58,2.762l-2.448,6.218
		c-0.165,0.419-0.448,0.782-0.814,1.044l-2.095,1.499c-0.877,0.628-1.211,1.775-0.806,2.775l0.824,2.037l-0.284,0.63l0.544,0.055
		l1.782,4.344c1.045,2.548,3.835,3.906,6.485,3.157l4.245-1.2c0.878-0.248,1.821,0.038,2.413,0.732l0.315,0.37
		c1.079,1.266,0.526,3.223-1.056,3.737l-5.141,1.669c-1.663,0.54-2.61,2.288-2.154,3.976l0.599,2.216
		c0.477,1.763-1.206,3.345-2.937,2.761l-0.093-0.031c-1.873-0.632-3.887,0.305-4.593,2.13c-0.677,1.75-1.527,3.937-2.276,5.865
		c-1.093,2.81-3.827,4.622-6.841,4.546l-11.126-0.283c-1.842-0.047-3.463-1.228-4.072-2.967l-0.406-1.158
		c-0.864-2.467-4.132-2.971-5.699-0.878l-0.088,0.118c-0.413,0.551-0.561,1.256-0.406,1.927l0.155,0.668
		c0.568,2.455-1.188,4.838-3.701,5.022l-1.048,0.077c-0.679,0.05-1.303,0.393-1.708,0.941l-7.267,9.831
		c-0.29,0.393-0.696,0.684-1.161,0.834l-8.049,2.597c-3.432,1.107-5.11,4.979-3.571,8.24l0.99,2.098
		c0.037,0.078,0.078,0.154,0.123,0.227l2.171,3.53c1.712,2.785-0.449,6.338-3.709,6.098l-6.413-0.472
		c-3.132-0.231-5.759,2.334-5.604,5.471l0.43,8.67c0.148,2.978,2.366,5.444,5.312,5.904l4.259,0.665
		c3.901,0.609,7.792-1.152,9.908-4.486l6.481-10.209c0.228-0.358,0.548-0.648,0.928-0.838l9.149-4.57
		c2.97-1.484,6.568-0.76,8.735,1.755l2.62,3.043c0.035,0.041,0.07,0.084,0.102,0.127l7.047,9.442
		c0.892,1.195,2.661,1.26,3.637,0.132l2.805-3.238c0.917-1.058,0.703-2.68-0.457-3.464l-9.176-6.204
		c-0.599-0.405-0.977-1.064-1.023-1.786l-0.172-2.687c-0.115-1.797,1.76-3.042,3.372-2.24l2.046,1.019
		c0.149,0.074,0.289,0.164,0.419,0.268l8.714,6.98c0.593,0.475,0.917,1.21,0.868,1.968l-0.129,1.985
		c-0.192,2.961,0.714,5.888,2.546,8.222l0.091,0.116c1.868,2.38,5.615,1.653,6.452-1.229c0.231-0.795,0.455-1.565,0.655-2.252
		c0.408-1.402,1.988-2.088,3.292-1.431l0.887,0.447c0.355,0.179,0.651,0.458,0.849,0.803l4.533,7.867
		c0.349,0.606,0.951,1.023,1.64,1.138l12.965,2.158c1.386,0.231,2.256,1.624,1.855,2.97l-1.697,5.701
		c-0.167,0.56-0.537,1.037-1.039,1.338l-4.382,2.624c-0.705,0.422-1.55,0.545-2.347,0.341l-21.347-5.462
		c-0.934-0.239-1.918,0.12-2.479,0.904l-3.424,4.788c-0.961,1.344-2.812,1.691-4.194,0.785l-12.521-8.199
		c-0.5-0.327-0.855-0.833-0.993-1.414l-1.721-7.245c-0.285-1.199-1.452-1.97-2.666-1.762l-35.843,6.134
		c-0.552,0.094-1.051,0.384-1.407,0.815l-18.923,22.921c-0.381,0.462-0.62,1.024-0.686,1.619l-2.975,26.623
		c-0.37,3.311,0.813,6.606,3.205,8.925l13.466,13.056c2.185,2.118,5.165,3.213,8.202,3.013l23.891-1.575
		c4.932-0.325,9.451,2.75,10.96,7.456l8.085,25.224c0.165,0.515,0.192,1.065,0.077,1.594l-3.836,17.672
		c-0.133,0.613-0.076,1.252,0.164,1.831l14.58,35.249c1.538,3.719,5.464,5.86,9.424,5.14l1.066-0.194
		c7.709-1.402,14.352-6.256,18.03-13.175l13.887-26.124c0.204-0.383,0.486-0.719,0.829-0.986l9.04-7.033
		c0.849-0.661,1.292-1.716,1.169-2.785l-2.63-22.793c-0.114-0.987,0.255-1.968,0.991-2.636l17.613-15.971
		c0.426-0.386,0.735-0.884,0.893-1.436l2.85-9.978c1.165-4.078-3.01-7.633-6.85-5.833l-6.754,3.165
		c-1.57,0.736-3.438,0.032-4.131-1.557l-17.545-40.187c-0.53-1.214,0.22-2.604,1.526-2.827l0.008-0.001
		c0.881-0.15,1.757,0.29,2.162,1.086l13.661,26.858c2.769,5.444,9.567,7.409,14.814,4.28l17.893-10.67
		c4.819-2.874,5.2-9.712,0.73-13.103l-1.919-1.456c-0.935-0.709-2.191-0.826-3.24-0.301l-3.055,1.528
		c-2.67,1.335-5.913,0.129-7.062-2.627l-2.905-6.97c-0.601-1.441-0.029-3.103,1.331-3.87l0,0c1.128-0.636,2.533-0.499,3.517,0.343
		l6.221,5.325c0.41,0.351,0.906,0.588,1.437,0.688l27.559,5.161c0.536,0.1,1.02,0.385,1.368,0.805l11.329,13.66
		c0.155,0.187,0.28,0.397,0.37,0.622l9.495,23.701c0.622,1.553,2.627,1.967,3.814,0.788l5.341-5.306
		c0.441-0.438,0.689-1.035,0.689-1.657v-8.136c0-0.765,0.375-1.482,1.003-1.918l20.378-14.155c1.19-0.827,2.838-0.381,3.45,0.932
		l6.514,13.988c0.473,1.017,1.602,1.553,2.69,1.278l2.49-0.63c1.401-0.354,2.785,0.637,2.901,2.077l1.197,14.909
		c0.026,0.327,0.121,0.646,0.279,0.934l3.483,6.368c1.098,2.008-1.047,4.233-3.094,3.209l-0.81-0.405
		c-2.172-1.086-4.353,1.451-2.953,3.435l5.98,8.474c0.106,0.129,0.279,0.34,0.385,0.469l12.949,13.652
		c1.578,1.664,3.74,2.651,6.032,2.753l15.517,0.693c1.637,0.073,2.133-2.192,0.615-2.81l-8.552-3.478l-6.602-2.309
		c-3.471-1.214-6.062-4.144-6.843-7.737l-2.837-13.063c-0.085-0.392-0.27-0.755-0.536-1.055l-6.534-7.358
		c-1.797-2.023-2.747-4.659-2.656-7.363l0.042-1.238c0.07-2.061,2.582-3.027,4.015-1.543l5.851,6.061
		c0.85,0.881,2.236,0.956,3.176,0.172l4.144-3.454c2.904-2.42,3.5-6.647,1.379-9.776l-5.716-8.432
		c-0.514-0.759-0.537-1.748-0.059-2.529l3.404-5.563c0.401-0.656,1.099-1.072,1.866-1.113l14.105-0.761
		c4.449-0.24,8.457-2.762,10.6-6.668l4.032-7.352c1.805-3.291,2.123-7.195,0.876-10.735l-4.833-13.718
		c-0.29-0.822-0.097-1.737,0.498-2.373l6.219-6.639c0.998-1.066,2.718-0.964,3.585,0.211l4.746,6.44
		c0.198,0.269,0.337,0.577,0.405,0.905l1.196,5.683c0.563,2.674,3.535,4.059,5.945,2.771l1.48-0.791
		c0.935-0.5,1.417-1.568,1.171-2.6l-2.378-10.012c-0.152-0.642-0.026-1.318,0.347-1.862l5.523-8.04
		c0.36-0.524,0.918-0.879,1.545-0.982l8.61-1.42c0.834-0.138,1.529-0.715,1.817-1.511l10.13-28.039
		c1.265-3.501,0.058-7.417-2.959-9.597l-0.582-0.421c-2.731-1.974-3.009-5.938-0.581-8.274l5.356-5.153
		c3.282-3.157,7.735-4.798,12.281-4.525l12.02,0.722c0.584,0.035,1.159-0.15,1.613-0.519l15.205-12.358
		c0.327-0.266,0.721-0.439,1.139-0.499l2.122-0.307c3.518-0.509,5.816,3.584,3.549,6.322l-13.644,16.478
		c-0.361,0.436-0.551,0.988-0.536,1.554l0.242,8.827c0.115,4.176,5.361,5.96,7.996,2.718l6.34-7.797
		c1.16-1.427,1.756-3.23,1.676-5.067l-0.103-2.349c-0.223-5.078,3.236-9.582,8.201-10.675l7.46-1.643
		C830.182,110.911,830.395,110.83,830.593,110.72z M530.03,182.553l-7.269-1.966c-0.323-0.087-0.661-0.104-0.992-0.05l-9.816,1.626
		c-2.675,0.443-5.336-0.862-6.623-3.248l0,0c-0.798-1.479-0.777-3.265,0.055-4.725l3.351-5.879c1.768-3.101,5.67-4.252,8.838-2.605
		l15.097,7.849c2.605,1.354,3.522,4.629,1.999,7.14l0,0C533.71,182.28,531.818,183.037,530.03,182.553z M552.045,186.845
		l0.953-3.705c0.122-0.476,0.092-0.978-0.088-1.435l-2.972-7.577c-1.224-3.121,0.062-6.666,3.003-8.275l6.659-3.644
		c1.556-0.852,3.457,0.275,3.457,2.049v1.859c0,0.944-0.568,1.795-1.44,2.157l-1.324,0.55c-1.632,0.678-2.236,2.679-1.252,4.146
		l2.766,4.126c0.189,0.282,0.315,0.603,0.367,0.938l1.105,7.031c0.619,3.94-2.591,7.43-6.569,7.142l-0.859-0.062
		C553.21,191.952,551.384,189.413,552.045,186.845z"/>
	<path fill="#EAF2F9" stroke="#B2C1CA" stroke-width="2" stroke-miterlimit="10" d="M341.884,72.614l-7.754-2.112
		c-2.177-0.593-4.503,0.067-6.045,1.713l-11.794,12.596c-1.595,1.703-2.076,4.167-1.239,6.345l19.244,50.093
		c0.715,1.861,2.295,3.254,4.231,3.729h0c3.727,0.916,7.362-1.803,7.536-5.637l0.353-7.777c0.091-2.01,1.17-3.846,2.882-4.904l0,0
		c2.64-1.632,4.319-4.449,4.497-7.547l0.041-0.712c0.05-0.877,0.29-1.734,0.703-2.51l5.086-9.562
		c0.916-1.722,0.951-3.778,0.096-5.53l-3.53-7.233c-0.069-0.141-0.143-0.28-0.223-0.415l-10.434-17.75
		C344.728,74.033,343.418,73.032,341.884,72.614z"/>
</g>
<g>
	<path fill="#57C45F" stroke="#009C12" stroke-width="2" stroke-miterlimit="10" d="M462.792,60.896
		c0,27.232-27.896,57.651-27.896,57.651S407,87.065,407,60.896C407,45.489,419.489,33,434.896,33
		C450.302,33,462.792,45.489,462.792,60.896z"/>
	<circle fill="#FFFFFF" stroke="#009C12" stroke-width="2" stroke-miterlimit="10" cx="434.896" cy="60.896" r="12.933"/>
</g>
<g>
	<path fill="#57C45F" stroke="#009C12" stroke-width="2" stroke-miterlimit="10" d="M282.792,130.896
		c0,27.232-27.896,57.651-27.896,57.651S227,157.065,227,130.896C227,115.489,239.489,103,254.896,103
		S282.792,115.489,282.792,130.896z"/>
	<circle fill="#FFFFFF" stroke="#009C12" stroke-width="2" stroke-miterlimit="10" cx="254.896" cy="130.896" r="12.933"/>
</g>
<g>
	<path fill="#57C45F" stroke="#009C12" stroke-width="2" stroke-miterlimit="10" d="M360.792,288.896
		c0,27.232-27.896,57.651-27.896,57.651S305,315.065,305,288.896C305,273.489,317.489,261,332.896,261
		C348.302,261,360.792,273.489,360.792,288.896z"/>
	<circle fill="#FFFFFF" stroke="#009C12" stroke-width="2" stroke-miterlimit="10" cx="332.896" cy="288.896" r="12.933"/>
</g>
<g>
	<path fill="#57C45F" stroke="#009C12" stroke-width="2" stroke-miterlimit="10" d="M726.792,158.896
		c0,27.232-27.896,57.651-27.896,57.651S671,185.065,671,158.896C671,143.489,683.489,131,698.896,131
		S726.792,143.489,726.792,158.896z"/>
	<circle fill="#FFFFFF" stroke="#009C12" stroke-width="2" stroke-miterlimit="10" cx="698.896" cy="158.896" r="12.933"/>
</g>
</svg>
