<?xml version="1.0" encoding="utf-8"?>
<!-- Generator: Adobe Illustrator 15.0.2, SVG Export Plug-In . SVG Version: 6.00 Build 0)  -->
<!DOCTYPE svg PUBLIC "-//W3C//DTD SVG 1.1//EN" "http://www.w3.org/Graphics/SVG/1.1/DTD/svg11.dtd">
<svg version="1.1" id="Layer_1" xmlns="http://www.w3.org/2000/svg" xmlns:xlink="http://www.w3.org/1999/xlink" x="0px" y="0px"
	 width="318px" height="431px" viewBox="0 0 318 431" enable-background="new 0 0 318 431" xml:space="preserve">
<g>
	<g>
		<g>
			<path fill="#F6A51B" d="M57.119,30.432c4.472,8.934,7.198,18.958,10.431,28.4c4.602,12.967,9.224,25.927,13.874,38.876
				c-5.356,1.949-8.015,3.012-13.269,5.316c-4.074-8.846-7.682-19.21-13.816-26.81c-4.697,2.188-7.023,3.343-11.626,5.781
				c4.343,8.632,8.694,17.262,13.052,25.887c0.32,0.618-12.821,8.726-12.821,8.726c0.043-1.066-11.222-18.475-11.222-18.475
				c-4.349-7.159-8.695-14.319-13.044-21.478C12.992,67.297,5.528,57.213,5.528,57.213c3.862-2.368,5.812-3.511,9.741-5.717
				c3.193-2.246,4.806-3.341,8.068-5.478c0.199,0.023,0.296,0.037,0.495,0.062c4.101,7.934,8.202,15.867,12.299,23.803
				c0.15,0.29,6.639-4.026,12.645-5.974c-3.934-8.302-7.878-16.599-11.829-24.892c0.102-0.171,0.154-0.257,0.255-0.428
				C45.075,35.025,49.063,33.394,57.119,30.432z"/>
			<path fill="#F6A51B" d="M88.77,21.725c8.875-2.262,13.354-3.218,22.348-4.779c1.545,3.703,2.301,5.559,3.786,9.278
				c0.874,2.276,1.899,4.322,1.899,4.322c1.13,2.809,1.686,4.213,2.781,7.032c0.016,0.111,0.024,0.167,0.04,0.278
				c3.34,8.434,7.134,17.306,10.186,25.279c2.945,7.7,6.075,20.232,6.075,20.232c-2.425,0.391-3.637,0.604-6.046,1.06
				c-3.051,0.384-4.569,0.602-7.608,1.089c-3.537-8.866-7.206-17.635-11.036-26.381c-0.809-2.752-1.56-4.062-2.248-3.927
				c-4.387,0.612-6.578,0.964-10.956,1.768c-0.009,11.71,1.236,23.535,2.962,35.106c-0.966,0.291-1.447,0.436-2.41,0.737
				c-3.183,1.04-4.764,1.59-7.909,2.752c-2.181,0.583-3.271,0.889-5.444,1.531c-1.114-3.182-1.037-10.773-2.666-18.154
				c-0.171-0.773-0.363-5.361-0.901-12.262c-1.016-13.049-2.534-28.321-1.092-42.106C83.809,23.391,85.457,22.819,88.77,21.725z
				 M98.558,41.056c-0.226,2.739-0.328,4.106-0.513,6.84c4.024-0.637,6.039-0.914,10.068-1.395
				c-1.029-2.514-1.549-3.769-2.604-6.274c-1.273-3.303-6.138-11.371-6.138-11.371C98.784,28.976,98.647,38.515,98.558,41.056z"/>
			<path fill="#F6A51B" d="M139.614,12.343c0,0,10.074-0.701,21.136-0.619c6.98,0.051,15.682,3.593,18.719,5.262
				c2.156,1.186,7.96,4.046,9.729,9.553c1.254,3.901,0.035,6.421-0.289,8.874c-0.371,2.802-2.67,7.375-2.67,7.375
				c-2.367,4.02-13.848,12.045-19.032,13.218c-7.187,1.625-12.172,2.473-14.772,2.401c-0.913-0.034-1.371-0.048-2.285-0.074
				c-0.03,1.463-0.042,2.194-0.069,3.656c-0.223,8.564-0.312,12.844-0.442,21.409c-4.004-0.342-6.019-0.466-10.059-0.627
				c0.557-2.066-0.405-17.775-0.416-19.509c-0.412-16.359-0.649-32.723-0.696-49.085C138.449,13.239,138.83,12.628,139.614,12.343z
				 M152.918,24.135c-0.039,1.04-0.059,1.56-0.096,2.6c0.193,3.222,0.289,4.834,0.474,8.058c-0.132,3.627-0.196,5.44-0.314,9.067
				c0.406,0.385,0.609,0.576,1.013,0.961c1.332,0.06,1.997,0.093,3.327,0.17c3.912-0.253,6.68-0.985,8.191-2.31
				c4.177-3.661,6.512-6.464,6.686-8.177c0.214-2.092-1.696-4.737-5.626-6.958c-4.542-2.566-8.437-3.692-10.516-3.815
				c-1.013-0.047-1.519-0.067-2.532-0.103C153.281,23.831,153.16,23.932,152.918,24.135z"/>
			<path fill="#F6A51B" d="M200.34,14.635c8.254,1.593,12.355,2.537,20.473,4.708c11.626,4.414,12.866,5.526,19.034,9.802
				c2.051,1.423,6.729,6.255,6.421,9.607c-0.311,3.357-0.321,3.356-1.821,7.536c-1.499,4.18-0.724,4.33-4.855,9.246
				c-4.135,4.918-15.71,7.423-21.053,7.502c-7.419,0.108-12.495-0.084-15.031-0.688c-0.892-0.22-1.341-0.33-2.235-0.542
				c-0.326,1.426-0.49,2.14-0.813,3.565c-1.684,7.735-3.348,15.474-4.963,23.223c-0.114,0.097-0.173,0.146-0.286,0.243
				c-3.686-0.898-5.539-1.308-9.264-2.049c-0.141-0.243-0.211-0.364-0.352-0.605c0.954-1.911,3.551-20.1,3.898-21.799
				c2.938-16.098,6.051-32.161,9.341-48.191C199.012,15.273,199.512,14.753,200.34,14.635z M210.988,28.9
				c-0.249,1.009-0.373,1.515-0.62,2.525c-0.472,3.195-0.708,4.792-1.187,7.986c-0.83,3.76-1.244,5.64-2.066,9.399
				c1.584,0.551,2.373,0.833,3.943,1.41c3.895,0.556,8.566,0.26,10.334-0.709c4.902-2.693,6.023-4.816,6.461-6.488
				c0.815-3.114-0.365-5.578-3.791-8.566c-3.965-3.458-7.878-4.758-9.908-5.308c-0.984-0.251-1.476-0.376-2.463-0.618
				C211.411,28.677,211.268,28.751,210.988,28.9z"/>
			<path fill="#F6A51B" d="M266.976,32.474c0.08,0.15,0.119,0.228,0.199,0.378c0.668,4.341,7.865,20.424,7.865,20.424
				c7.897-2.715,15.96-4.987,24.131-6.724c5.77,3.327,8.617,5.076,14.228,8.745c-12.592,3.167-24.709,6.904-36.876,11.436
				c-6.32,13.157-12.655,26.306-19.004,39.451c-0.276,0.114-0.414,0.172-0.69,0.288c-4.287-2.09-6.453-3.077-10.822-4.927
				c2.561-6.538,3.834-9.811,6.366-16.364c2.784-6.077,4.182-9.111,6.993-15.177c1.499-3.543,2.246-5.315,3.747-8.856
				c-3-7.839-6.424-15.522-10.171-23.029c-2.372-5.11-3.632-7.656-6.3-12.718C246.81,24.863,266.976,32.474,266.976,32.474z"/>
		</g>
	</g>
	<g>
		<g>
			<path fill="#3BBEED" d="M124.521,166.077c0.32-0.066,0.518,0.106,0.603,0.517c-2.373,3.603-3.486,5.424-5.562,9.099
				c-6.277,10.44-8.211,16.066-8.083,16.436c0.947,2.735,1.42,4.103,2.368,6.836c1.798,4.701,2.689,7.054,4.459,11.767
				c0.748,2.178,1.124,3.267,1.872,5.447c1.613,4.699,2.041,7.172,1.291,7.438c-2.687,0.955-4.019,1.478-6.654,2.607
				c-0.191-0.104-0.289-0.153-0.479-0.255c-4.063-9.393-8.126-18.784-12.195-28.174c-0.698-1.612-3.34-3.444-7.985-4.777
				c-8.82-2.53-16.273-3.894-20.97-5.53c-0.386-0.062-0.579-0.093-0.966-0.154c0.08-0.245,0.119-0.369,0.2-0.616
				c4.775-2.907,7.209-4.251,12.152-6.72c2.376-0.554,8.719,0.565,17.92,4.571c0.173-0.068,0.26-0.101,0.431-0.168
				c3.272-5.838,5.56-10.287,6.304-13.505c0.065-0.111,0.097-0.164,0.163-0.275C115.358,168.514,118.392,167.604,124.521,166.077z"
				/>
			<path fill="#3BBEED" d="M152.453,217.869c-2.708,1.178-7.693,1.974-9.714,0.695c-5.124-3.234-5.953-4.275-9.142-9.452
				c-4.609-7.478-7.342-17.035-7.84-25.875c-0.344-6.106,3.057-11.402,5.65-13.686c2.545-2.241,6.024-5.116,13.64-6.088
				c8.211-1.05,16.17,5.201,18.388,13.189c1.903,6.854,1.691,7.102,1.704,13.603c0.012,6.5-1.661,12.064-1.661,12.064
				c-1.206,4.448-0.577,4.291-3.628,10.117C158.256,215.48,155.161,216.688,152.453,217.869z M155.262,196.966
				c-0.117-4.457-0.179-6.687-0.295-11.144c-0.063-2.458-0.492-5.24-4.439-10.406c-2.877-3.763-8.689-2.446-10.83,0.627
				c-1.566,2.251-1.601,5.341-0.904,12.521c0.598,6.139,3.439,20.262,11.49,19.171C152.445,207.441,154.194,204.01,155.262,196.966z
				"/>
			<path fill="#3BBEED" d="M208.989,171.697c8.673,3.3,7.66,14.185,4.938,21.175c-0.813-0.195-1.221-0.291-2.033-0.477
				c-2.135-0.675-3.207-0.992-5.353-1.581c-1.36-0.562-2.043-0.834-3.415-1.36c0.199-0.979,0.298-1.47,0.492-2.45
				c0.594-1.617-0.54-3.454-3.549-5.361c-0.724-0.248-1.09-0.369-1.816-0.61c-4.604-1.488-8.888,0.489-12.352,5.777
				c-0.566,1.162-0.848,1.743-1.4,2.909c-0.187,0.782-0.277,1.174-0.463,1.958c-0.712,2.915-1.21,7.347,0.494,12.428
				c1.963,5.866,7.926,6.738,7.926,6.738c1.84,0.677,3.451-0.38,4.913-3.205c0.319-0.627,0.478-0.942,0.799-1.569
				c-0.04-0.125-0.058-0.191-0.098-0.317c-2.198-0.812-3.308-1.192-5.539-1.904c0.53-2.153,1.028-4.023,2.414-8.327
				c0.315-0.978,2.369,0.106,4.119,0.754c3.49,1.017,5.224,1.589,8.659,2.843c0.639,0.289,0.957,0.434,1.592,0.731
				c-3.196,8.224-6.408,16.443-9.617,24.664c-0.281,0.338-0.695,0.383-1.246,0.132c-0.064-0.023-0.096-0.037-0.159-0.062
				c-1.591-0.758-4.247-1.522-7.917-2.064c-0.029-0.123-0.044-0.184-0.074-0.305c0.323-0.916,0.485-1.379,0.811-2.293
				c-0.137-0.064-0.207-0.097-0.346-0.16c-1.186,1.162-3.49,1.105-3.49,1.105c-7.688-1.764-9.203-2.173-12.021-5.418
				c-5.239-6.032-5.501-17.582-5.166-25.946c0.197-1.405,0.299-2.107,0.5-3.512c2.426-7.748,4.676-12.687,7.056-13.984
				c4.062-2.214,4.052-2.551,8.569-3.56c4.818-0.35,7.262-0.434,12.191-0.409C206.432,169.312,208.989,171.697,208.989,171.697z"/>
			<path fill="#3BBEED" d="M216.111,233.386c-4.191-2.528-6.343-3.667-10.722-5.695c0.937-2.764,1.397-4.149,2.3-6.927
				c0.201-0.444,1.258-0.16,3.701,0.934c4.883-10.845,9.685-21.717,14.413-32.63c-2.733-1.357-4.391-1.302-4.01-2.266
				c1.213-3.047,1.816-4.573,3.014-7.626c0.182-0.499,20.117,8.639,20.117,8.639c-1.882,3.07-2.825,4.605-4.706,7.674
				c-0.277,0.052-0.416,0.078-0.693,0.13c-0.162-0.101-0.244-0.148-0.406-0.247c-1.408-0.677-2.114-1.007-3.531-1.646
				c-0.292,0.369-0.436,0.554-0.726,0.923c-2.298,4.507-3.455,6.753-5.785,11.242c-4.363,7.779-6.552,11.663-10.938,19.428
				c0,0,2.546,1.769,2.297,2.285c-0.511,1.062-3.793,5.552-3.793,5.552C216.429,233.248,216.324,233.291,216.111,233.386z"/>
		</g>
	</g>
	<g>
		<g>
			<path fill="#A14995" d="M49.549,126.896c1.792-1.033,2.693-1.54,4.503-2.529c0.48-0.262,1.326,0.711,2.52,2.917
				c3.649,6.737,5.475,10.108,9.123,16.847c1.3,1.572,2.905,4.008,4.811,7.301c1.826,2.327,2.733,3.494,4.527,5.84
				c0.192,0.363,0.286,0.545,0.478,0.908c0.232,0.128,0.346,0.193,0.578,0.322c0.698-0.459,1.05-0.685,1.754-1.135
				c4.675-2.388,7.044-3.492,11.842-5.52c0.355-0.149,1.572,1.693,3.613,5.558c0.832,1.284,1.246,1.929,2.068,3.221
				c-0.238,0.537-0.613,0.912-1.127,1.126c-0.311,0.132-0.466,0.197-0.776,0.33c-7.108,3.097-10.597,4.858-17.39,8.798
				c-0.916,0.804-1.369,1.21-2.27,2.029c-0.118,0.069-0.179,0.105-0.296,0.174c-0.27,0.162-4.977-6.697-4.977-6.697
				c-1.663-2.762-3.344-5.203-5.06-7.303c-0.326-0.541-0.488-0.808-0.815-1.348c-3.295-4.742-4.956-7.109-8.298-11.822
				c-3.344-5.456-5.016-8.185-8.36-13.641c-0.415-0.677-0.622-1.016-1.036-1.693c0.033-0.117,0.051-0.175,0.084-0.294
				c0.283-0.172,0.423-0.259,0.707-0.43C47.257,128.655,48.018,128.063,49.549,126.896z"/>
			<path fill="#A14995" d="M110.802,155.944c-0.471,0.163-0.708,0.246-1.177,0.414c-2.717,0.522-4.999,1.198-6.832,1.958
				c-1.082,0.454-1.623,0.684-2.696,1.157c-0.182,0.067-3.839-5.257-4.11-5.951c-0.082-0.168-0.125-0.25-0.207-0.415
				c-0.171-0.443,0.814-1.365,3.01-2.715c-0.062-0.169-0.092-0.253-0.154-0.422c0.068-0.024,0.102-0.038,0.168-0.061
				c-0.095-0.054-0.144-0.081-0.239-0.134c-4.058-9.999-8.174-19.975-12.355-29.921c-2.592,0.926-4.004,1.152-4.26,0.593
				c-1.168-2.672-1.756-4.007-2.931-6.676c-0.218-0.461,16.707-8.085,16.707-8.085c0.629,1.319,0.944,1.979,1.568,3.302
				c0.741,2.1,1.108,3.147,1.844,5.248c-0.128,0.229-0.192,0.342-0.32,0.57c-0.163,0.049-0.241,0.073-0.403,0.122
				c-1.274,0.538-1.911,0.81-3.176,1.366c0.081,0.448,0.12,0.671,0.2,1.116c1.857,5.847,2.788,8.769,4.648,14.614
				c2.52,6.893,3.766,10.346,6.234,17.257c0.937-0.34,1.408-0.506,2.349-0.833c0.274-0.082,0.571,0.151,0.782,0.67
				c0.429,1.052,1.539,6.289,1.539,6.289C110.916,155.621,110.877,155.729,110.802,155.944z"/>
			<path fill="#A14995" d="M146.207,96.603c0.193,3.092,0.29,4.638,0.484,7.729c-0.137,1.707-0.43,2.579-0.871,2.608
				c-2.547,0.172-3.817,0.276-6.358,0.525c-3.372,0.247-5.058,0.404-8.423,0.785c-0.07,0.093-0.107,0.14-0.176,0.233
				c2.039,11.325,3.59,22.749,5.233,34.138c0.408,2.99,0.613,4.482,1.02,7.472c-0.093,0.178-0.139,0.268-0.231,0.448
				c-2.81,0.387-4.21,0.611-7.004,1.116c-0.933,0.232-1.399,0.351-2.327,0.594c-0.012-0.06-0.018-0.09-0.029-0.15
				c-0.083-0.067-0.125-0.103-0.207-0.17c-2.425-12.331-4.853-24.66-7.279-36.99c-0.084-1.271-0.125-1.905-0.204-3.173
				c-0.079-0.403-0.117-0.604-0.195-1.005c-0.193-0.127-0.291-0.19-0.484-0.315c-0.246,0.047-0.366,0.071-0.609,0.118
				c-3.551,0.565-5.328,0.888-8.866,1.606c-0.625,0.154-0.939,0.23-1.564,0.388c-2.894,0.409-4.527,0.381-4.902-0.185
				c-0.548-1.983-0.821-2.974-1.367-4.96c-0.066-0.89-0.101-1.333-0.164-2.226c-0.168-0.611-0.25-0.917-0.417-1.527
				c0.125-0.203,0.189-0.303,0.315-0.504c13.41-3.642,27.156-6.03,41.008-7.117C144.977,96.023,146.184,96.228,146.207,96.603z"/>
			<path fill="#A14995" d="M196.34,99.14c-0.504,3.057-0.76,4.584-1.264,7.641c-0.516,1.633-0.991,2.418-1.43,2.348
				c-2.528-0.405-3.793-0.587-6.33-0.915c-3.344-0.516-5.021-0.74-8.383-1.123c-0.09,0.075-0.133,0.113-0.223,0.188
				c-0.553,11.494-1.621,22.973-2.563,34.441c-0.273,3.004-0.411,4.507-0.684,7.511c-0.13,0.153-0.193,0.23-0.322,0.385
				c-2.82-0.252-4.233-0.349-7.061-0.481c-0.956,0.016-1.433,0.027-2.387,0.058c0.002-0.062,0.002-0.091,0.005-0.152
				c-0.064-0.085-0.099-0.128-0.162-0.213c0.404-12.56,0.808-25.121,1.212-37.68c0.203-1.257,0.307-1.883,0.516-3.139
				c0.014-0.409,0.021-0.614,0.034-1.023c-0.161-0.167-0.244-0.249-0.405-0.416c-0.246-0.006-0.369-0.013-0.615-0.019
				c-3.574-0.247-5.365-0.331-8.952-0.427c-0.641,0.009-0.964,0.016-1.605,0.029c-2.889-0.251-4.458-0.646-4.691-1.282
				c-0.088-2.057-0.129-3.084-0.216-5.142c0.131-0.88,0.195-1.323,0.329-2.205c-0.024-0.634-0.034-0.95-0.061-1.583
				c0.168-0.168,0.249-0.253,0.417-0.421c13.843-0.534,27.731,0.227,41.435,2.263C195.268,98.299,196.4,98.771,196.34,99.14z"/>
			<path fill="#A14995" d="M206.259,101.128c1.96,0.389,2.937,0.594,4.893,1.028c0.562,0.125,0.513,1.448-0.015,3.866
				c-2.027,9.294-3.849,18.966-5.797,28.443c-0.561,2.875-0.844,4.311-1.414,7.183c-0.094,0.375-0.14,0.56-0.232,0.935
				c0.09,0.264,0.135,0.396,0.225,0.658c0.809,0.127,1.213,0.193,2.021,0.327c5.434,0.933,8.152,1.505,13.561,2.872
				c0.359,0.146-0.064,2.674-1.319,7.559c-0.229,1.495-0.346,2.241-0.588,3.733c-0.55,0.246-1.089,0.272-1.611,0.091
				c-0.304-0.105-0.456-0.158-0.761-0.261c-7.343-2.349-11.068-3.308-18.559-4.798c-1.989-0.189-2.983-0.27-4.968-0.4
				c-0.133-0.01-0.197-0.018-0.329-0.03c-0.33-0.048,1.928-8.07,1.928-8.07c1.417-8.174,2.699-16.373,3.961-24.57
				c1.176-6.773,1.76-10.161,2.918-16.935c0.146-0.783,0.218-1.176,0.363-1.955c0.104-0.062,0.156-0.09,0.262-0.15
				c0.319,0.052,0.479,0.081,0.799,0.136C203.457,100.906,204.393,100.976,206.259,101.128z"/>
			<path fill="#A14995" d="M255.483,119.821c7.361,4.26,10.951,6.573,17.908,11.545c0.156,0.931-0.832,3.174-2.961,6.729
				c-0.083,0.259-0.125,0.389-0.209,0.646c-0.198,0.287-0.292,0.43-0.49,0.716c-0.3,0.412-3.105-0.899-8.521-3.553
				c-5.74-2.972-8.65-4.337-14.534-6.829c-0.235,0.072-0.354,0.109-0.59,0.183c-0.757,1.356-1.133,2.033-1.883,3.393
				c0.072,0.236,0.108,0.354,0.183,0.586c4.669,2.218,6.976,3.405,11.524,5.931c0.293,0.387-2.386,4.151-2.386,4.151
				c-0.816,1.229-1.22,1.844-2.03,3.078c-0.275,0.314-8.796-3.242-10.759-3.177c-0.769,1.352-1.152,2.027-1.916,3.382
				c-1.48,2.371-2.213,3.559-3.671,5.94c0.943,0.84,2.37,1.833,4.268,3.019c0.266,0.153,0.398,0.228,0.663,0.382
				c5.049,1.728,9.518,4.057,13.314,6.846c0.256,0.179,0.387,0.267,0.644,0.446c0.009,0.126,0.012,0.188,0.023,0.312
				c-2.168,3.045-3.246,4.573-5.391,7.633c-0.337,0.617-0.503,0.926-0.841,1.542c-0.502,0.725-8.998-4.208-8.998-4.208
				c-2.725-1.362-4.095-2.01-6.858-3.242c-1.361-0.821-2.045-1.222-3.424-2.01c-1.089-0.412-1.633-0.613-2.726-1.004
				c-1.873-1.033-2.82-1.536-4.727-2.509c-0.06-0.218-0.089-0.328-0.148-0.546c0.945-1.865,1.423-2.792,2.381-4.653
				c1.379-3.29,2.071-4.934,3.463-8.222c3.757-7.762,7.606-15.482,11.536-23.162c1.587-3.179,2.389-4.767,4.001-7.94
				C242.7,114.497,247.182,115.757,255.483,119.821z"/>
		</g>
	</g>
	<path fill="#F2993D" d="M123.765,50.827"/>
	<g>
		<g>
			<path fill="#A14995" d="M73.725,345.492c13.199-2.952,43.857-1.285,71.125,1.178c21.806,1.971,12.56,4.597,33.818,0
				c15.57-3.367,59.316-5.689,66.631-1.902c13.696,7.092,10.379,56.964,1.855,60.741c-12.048,5.342-45.301,13.112-72.66,14.011
				c-15.941,0.521-31.997,0.826-47.818-1.155c-24.869-3.114-48.83-8.784-54.861-12.803c-12.251-8.168-9.357-53.259-0.716-58.909
				C71.816,346.183,73.135,345.623,73.725,345.492z"/>
		</g>
		<g>
			<g>
				<path fill="#FFFFFF" stroke="#FFFFFF" stroke-width="0.2553" stroke-miterlimit="10" d="M79.548,379.302
					c-0.185,0.465-0.523,0.333-0.747,0.668c-0.214,0.321-0.416,0.164-0.541,0.434c-0.124,0.271-0.615,0.599-0.545,0.783
					c0.241,0.634-0.35,0.681-0.293,1.06c0.06,0.396-0.341,0.413-0.232,0.725c0.11,0.316-0.143,0.673-0.079,0.902
					c0.069,0.25,0.16,0.642,0.061,0.955c-0.1,0.313-0.567,0.448-0.871,0.351c-0.3-0.097-0.846-0.591-0.691-1.067
					c0.156-0.479,0.396-1.127,0.337-1.393c-0.056-0.25,0.629-1.213,0.423-1.594c-0.206-0.377-0.648-1.025-0.782-1.377
					c-0.129-0.339-0.369-1.326-0.531-1.693c-0.164-0.371-0.263-0.588-0.434-0.709c-0.184-0.131,0.113-0.275-0.161-0.368
					c-0.291-0.101-0.334-0.415-0.228-0.729c0.105-0.309,0.796-0.541,1.117-0.432c0.33,0.113,0.381,0.346,0.394,0.529
					c0.013,0.205,0.209,0.343,0.381,0.229c0.179-0.118,0.019,0.289-0.046,0.48c-0.064,0.193,0.145,0.583,0.19,0.87
					c0.044,0.282,0.114,0.728,0.285,0.874c0.159,0.136,0.105,0.751,0.403,0.822c0.295,0.074,0.443-0.301,0.63-0.354
					c0.185-0.053,0.837-0.646,0.931-0.757c0.097-0.114,0.433-0.673,0.652-0.724c0.217-0.051,0.454-0.627,0.772-0.645
					c0.325-0.02,0.797-0.02,0.899,0.313c0.1,0.323-0.029,0.892-0.292,1.174C80.292,378.906,79.648,379.053,79.548,379.302z"/>
				<path fill="#FFFFFF" stroke="#FFFFFF" stroke-width="0.2553" stroke-miterlimit="10" d="M85.911,385.625
					c-0.469,0.275-1.353,0.643-1.848,0.498c-0.5-0.143-1.333-0.926-1.551-1.013c-0.216-0.087-0.001-0.901-0.2-1.073
					c-0.199-0.17-0.215-0.815-0.124-1.117c0.091-0.3,0.548-0.584,0.731-0.861c0.188-0.282,0.452-0.421,0.677-0.355
					c0.228,0.067,0.668,0.313,0.611,0.51c-0.052,0.179-0.638,0.615-0.748,0.988c-0.116,0.391,0.184,0.807,0.143,0.946
					c-0.044,0.15,0.065,0.553,0.577,0.7c0.532,0.154,0.875-0.02,1.291-0.357c0.423-0.347,0.5-0.482,0.556-0.678
					s-0.197-0.868-0.403-1.047c-0.2-0.174-0.579-0.424-0.772-0.48c-0.194-0.058-0.407-0.428-0.314-0.742
					c0.092-0.316,0.696-0.565,0.889-0.51c0.226,0.066,0.975,1.008,1.21,1.16c0.242,0.158,0.774,1.077,0.569,1.809
					C87.004,384.723,86.392,385.346,85.911,385.625z"/>
				<path fill="#FFFFFF" stroke="#FFFFFF" stroke-width="0.2553" stroke-miterlimit="10" d="M95.238,392.191
					c-0.065,0.274-0.514,0.811-0.712,0.891c-0.21,0.084-0.24,0.405-0.918,0.373c-0.699-0.033-1.767-0.063-2.274-0.191
					c-0.529-0.136-1.537-0.453-2.213-1.206c-0.668-0.746-0.369-0.844-0.551-1.053c-0.176-0.202-0.026-0.658,0.116-0.8
					c0.135-0.137,0.81-0.467,1.012-0.094c0.193,0.354,0.319,0.318,0.109,0.602c-0.209,0.284-0.101,0.41,0.629,0.91
					c0.735,0.507,0.697,0.373,1.35,0.538c0.673,0.171,1.408,0.147,2.011-0.27c0.602-0.415,1.036-1.187,1.246-2.058
					c0.152-0.625,0.172-1.018,0.085-1.206c-0.085-0.181,0.062-1.03-0.242-1.104c-0.301-0.074-0.375,0.104-0.549,0.411
					c-0.182,0.317-0.535,0.313-0.666,0.546c-0.135,0.238-0.766,0.476-1.286,0.343c-0.537-0.137-1.294-0.46-1.679-1.329
					c-0.389-0.877-0.429-1.049-0.22-1.838c0.208-0.787,1.119-1.466,1.582-1.641c0.456-0.174,1.288-0.427,1.866-0.28
					c0.511,0.129,0.957,0.426,1.287,0.755c0.325,0.322,0.662,0.42,0.554,0.864c-0.113,0.457,0.178,0.912,0.332,1.581
					c0.156,0.678,0.458,2.026,0.161,3.274C95.979,391.432,95.304,391.916,95.238,392.191z M93.837,384.872
					c-0.229-0.06-1.049,0.104-1.343,0.323c-0.278,0.209-0.776,0.895-0.872,1.262c-0.094,0.363,0.147,0.555,0.244,0.674
					c0.101,0.121,0.064,0.406,0.582,0.537c0.532,0.137,0.684-0.227,0.854-0.297c0.186-0.08,0.431-0.308,0.474-0.479
					c0.04-0.165,0.357-0.363,0.468-0.804C94.35,385.664,94.294,384.988,93.837,384.872z"/>
				<path fill="#FFFFFF" stroke="#FFFFFF" stroke-width="0.2553" stroke-miterlimit="10" d="M107.183,392.546
					c-0.27-0.053-0.635-0.577-0.843-0.743c-0.212-0.17-0.51-0.471-0.495-0.735c0.016-0.251-0.368-0.604-0.508-0.824
					c-0.126-0.2-0.108-0.498-0.301-0.538c-0.194-0.039-0.493,0.08-0.584,0.395c-0.088,0.303-0.563,0.463-0.683,0.577
					c-0.12,0.116-0.935,0.589-1.746,0.416c-0.811-0.177-1.092-0.866-1.275-0.97c-0.182-0.104-0.041-0.493-0.129-0.684
					c-0.103-0.217-0.129-0.7-0.039-1.099c0.092-0.413,0.641-1.098,1.001-1.498c0.371-0.411,1.372-0.841,1.508-0.891
					c0.141-0.052,0.542,0.115,0.708-0.024c0.158-0.134,0.478,0.18,0.622,0.098c0.149-0.08,0.282-0.006,0.422,0.023
					c0.301,0.062,0.778,0.439,0.983,0.6c0.202,0.158,0.606,0.475,0.517,0.922c-0.086,0.432-0.278,1.016-0.253,1.262
					c0.024,0.242,0.208,0.774,0.431,1.2c0.229,0.435,0.374,0.959,0.688,1.253c0.324,0.305,0.703,0.614,0.658,0.846
					C107.822,392.364,107.456,392.598,107.183,392.546z M104.334,386.998c-0.162-0.035-0.228-0.076-0.423-0.116
					c-0.211-0.046-0.328,0.151-0.511,0.227c-0.182,0.074-0.17,0.339-0.418,0.308c-0.231-0.029-0.361,0.554-0.625,0.496
					c-0.268-0.058-0.51,0.705-0.59,1.074c-0.083,0.382-0.163,0.944,0.408,1.066c0.574,0.123,1.333-0.633,1.689-1.006
					c0.359-0.373,0.712-1.051,0.817-1.258c0.107-0.207,0.416-0.504,0.383-0.668C105.035,386.977,104.526,387.037,104.334,386.998z"
					/>
				<path fill="#FFFFFF" stroke="#FFFFFF" stroke-width="0.2553" stroke-miterlimit="10" d="M123.272,395.141
					c-0.272-0.034-0.673-0.538-0.889-0.689c-0.223-0.158-0.532-0.439-0.534-0.703c-0.001-0.251-0.407-0.584-0.558-0.791
					c-0.139-0.19-0.136-0.491-0.331-0.518c-0.2-0.029-0.495,0.114-0.567,0.429c-0.069,0.304-0.529,0.497-0.642,0.619
					c-0.113,0.122-0.887,0.649-1.705,0.524c-0.822-0.121-1.145-0.798-1.333-0.891c-0.186-0.092-0.074-0.484-0.174-0.672
					c-0.115-0.209-0.166-0.693-0.102-1.096c0.065-0.419,0.57-1.135,0.905-1.556c0.342-0.433,1.313-0.925,1.45-0.982
					c0.139-0.062,0.542,0.08,0.699-0.069c0.15-0.145,0.49,0.148,0.625,0.06c0.141-0.092,0.278-0.024,0.421-0.003
					c0.308,0.043,0.802,0.393,1.015,0.539c0.209,0.143,0.632,0.434,0.57,0.886c-0.06,0.437-0.214,1.03-0.174,1.271
					c0.039,0.243,0.258,0.766,0.506,1.18c0.255,0.42,0.427,0.931,0.758,1.204c0.344,0.282,0.744,0.569,0.715,0.802
					C123.899,394.92,123.545,395.178,123.272,395.141z M120.087,389.781c-0.158-0.023-0.226-0.063-0.424-0.09
					c-0.215-0.032-0.315,0.17-0.493,0.256c-0.173,0.085-0.149,0.351-0.399,0.336c-0.231-0.016-0.324,0.569-0.596,0.528
					c-0.268-0.04-0.462,0.741-0.518,1.114c-0.06,0.385-0.108,0.949,0.474,1.039c0.58,0.086,1.286-0.717,1.619-1.109
					c0.334-0.391,0.646-1.094,0.739-1.307c0.092-0.215,0.372-0.533,0.332-0.693C120.786,389.717,120.282,389.81,120.087,389.781z"/>
				<path fill="#FFFFFF" stroke="#FFFFFF" stroke-width="0.2553" stroke-miterlimit="10" d="M133.106,395.41
					c-0.252-0.023-0.854-0.315-0.819-0.688c0.036-0.377-0.176-1.188-0.265-1.603c-0.086-0.401-0.474-0.937-0.607-1.057
					c-0.137-0.119-0.33-0.363-0.819-0.188c-0.472,0.172-1.047,0.293-1.426,0.729c-0.386,0.445-0.798,1.098-0.754,1.34
					c0.047,0.256-0.169,0.35-0.41,0.412c-0.221,0.057-0.256,0.301-0.47,0.275c-0.203-0.021-0.849-0.967-0.82-1.215
					c0.027-0.232,0.17-1.653,0.036-2.016c-0.142-0.376-0.224-1.193,0.439-1.116c0.32,0.036,0.834,0.286,0.777,0.783
					c-0.059,0.517-0.19,1.336,0.354,0.785c0.554-0.559,0.704-0.604,0.945-0.688c0.228-0.082,0.546-0.348,0.852-0.314
					c0.306,0.031,0.658-0.202,0.84-0.184c0.178,0.018,0.805,0.455,1.122,0.526c0.314,0.068,0.858,0.686,1,1.096
					c0.142,0.407,0.243,1.144,0.325,1.399c0.204,0.642,0.681,0.807,0.665,0.979C134.057,394.853,133.36,395.435,133.106,395.41z"/>
				<path fill="#FFFFFF" stroke="#FFFFFF" stroke-width="0.2553" stroke-miterlimit="10" d="M144.258,395.93
					c-0.27,0.039-0.354,0.142-0.558,0.131c-0.2-0.011-0.37-0.254-0.354-0.551c0.015-0.303-0.149-0.275-0.133-0.574
					c0.016-0.297-0.259-0.479-0.337-0.191c-0.076,0.28-0.467,0.566-0.752,0.789c-0.282,0.221-1.328,0.629-1.876,0.592
					c-0.544-0.035-0.798,0.094-1.198-0.142c-0.388-0.229-1.306-1.038-1.413-1.439c-0.104-0.38-0.272-0.791-0.241-1.197
					c0.031-0.403,0.415-1.274,0.898-1.583c0.492-0.318,1.03-0.756,1.942-0.695c0.718,0.047,1.749,0.313,1.97,0.53
					c0.221,0.216,0.548,0.619,0.426-0.241c-0.12-0.846-0.215-2.164-0.195-2.525c0.02-0.344-0.171-0.479-0.162-0.649
					c0.01-0.177,0.32-0.249,0.511-0.239c0.199,0.013,0.553-0.299,0.609-0.031c0.059,0.271,0.048,0.43,0.306,0.617
					c0.255,0.185,0.212,0.245,0.101,0.413c-0.117,0.177-0.111,0.762-0.13,1.122c-0.018,0.342,0.073,1.308,0.187,1.622
					c0.122,0.336-0.028,0.743,0.129,0.983c0.15,0.232,0.316,0.517,0.292,1c-0.022,0.471,0.098,0.853,0.26,1.005
					c0.157,0.148,0.151,0.636,0.017,0.771C144.421,395.578,144.524,395.891,144.258,395.93z M141.941,392.646
					c-0.4-0.26-0.826-0.406-1.402-0.442c-0.716-0.046-0.756,0.171-1.111,0.431c-0.362,0.264-0.706,0.699-0.739,1.17
					c-0.034,0.47,0.431,1.18,1.284,1.236c0.858,0.058,0.79-0.309,1.382-0.477c0.589-0.166,0.61-0.563,0.716-0.699
					c0.101-0.13,0.507-0.268,0.522-0.533C142.607,393.082,142.341,392.906,141.941,392.646z"/>
				<path fill="#FFFFFF" stroke="#FFFFFF" stroke-width="0.2553" stroke-miterlimit="10" d="M163.824,395.465
					c-0.234,0.006-0.605,0.097-0.701-0.565c-0.096-0.653-0.137-1.083-0.377-1.513c-0.242-0.434-0.358-0.93-0.393-1.42
					c-0.035-0.508-0.224-1.5-0.475-1.496c-0.254,0.005-0.596,0.508-0.739,0.924c-0.141,0.404-0.548,1.005-0.572,1.292
					s-0.335,0.465-0.425,0.944c-0.091,0.474-0.256,1.354-1.057,1.359c-0.802,0.006-1.175-0.699-1.385-1.641
					c-0.208-0.928-0.367-1.77-0.558-1.77c-0.221,0-0.562,0.394-0.672,0.784c-0.108,0.389-0.27,0.577-0.254,1.066
					c0.016,0.483-0.311,0.594-0.442,1.185c-0.132,0.594-0.366,1.023-0.552,1.661c-0.187,0.64-0.285,0.721-0.287,1.032
					c-0.004,0.33-0.299,0.419-0.479,0.418c-0.186-0.002-0.752-0.447-0.747-0.842c0.009-0.578,0.46-1.496,0.651-2.42
					c0.19-0.924,0.728-1.145,0.758-1.717c0.031-0.572,0.603-1.219,0.857-1.658c0.25-0.432,0.633-0.987,0.661-1.153
					c0.025-0.153,0.096-0.347,0.328-0.347c0.231,0,0.7,0.33,0.929,0.83c0.237,0.515,0.444,1.18,0.557,1.693
					c0.11,0.496,0.203,0.891,0.44,0.889c0.234-0.002,0.588-0.683,0.709-1.135c0.124-0.456,0.637-1.343,1.055-1.924
					c0.421-0.585,0.784-1.186,1.143-1.191c0.352-0.007,0.83,0.234,1.059,0.717c0.231,0.488,0.607,1.55,0.645,2.24
					c0.034,0.691,0.181,1.076,0.338,1.352c0.156,0.271-0.056,0.799,0.105,1.063c0.158,0.263,0.32,0.608,0.326,0.875
					C164.276,395.246,164.045,395.457,163.824,395.465z"/>
				<path fill="#FFFFFF" stroke="#FFFFFF" stroke-width="0.2553" stroke-miterlimit="10" d="M173.454,395.811
					c-0.319,0.229-0.765,0.695-1.991,0.762c-1.247,0.068-1.639-0.043-2.415-0.65c-0.779-0.606-1.384-1.145-1.149-1.301
					c0.225-0.15-0.04-0.955-0.055-1.358c-0.018-0.41,0.418-1.381,0.896-1.688c0.49-0.315,1.73-0.742,2.07-0.76
					c0.77-0.039,0.99,0.139,1.252,0.497c0.254,0.35,0.372,0.787,0.287,0.987c-0.086,0.203-0.004,0.57-0.369,0.762
					s-0.479,0.567-0.666,0.742c-0.198,0.184-0.791,0.842-1.082,0.888c-0.307,0.048-0.516,0.229-0.234,0.448
					c0.283,0.222,0.605,0.416,1.771,0.35c1.168-0.064,0.84-0.35,1.221-0.372s0.887-0.129,0.896,0.009
					C173.896,395.284,173.771,395.584,173.454,395.811z M170.344,392.146c-0.238,0.012-0.4,0.11-0.742,0.436
					c-0.344,0.334-0.512,0.6-0.527,1.034c-0.014,0.452,0.547,0.129,0.68-0.114c0.131-0.235,0.59-0.592,0.811-0.867
					c0.222-0.281,0.479-0.469,0.342-0.633C170.758,391.82,170.539,392.137,170.344,392.146z"/>
				<path fill="#FFFFFF" stroke="#FFFFFF" stroke-width="0.2553" stroke-miterlimit="10" d="M183.766,394.908
					c-0.256,0.079-0.326,0.188-0.525,0.209c-0.203,0.021-0.411-0.195-0.439-0.492c-0.03-0.299-0.186-0.248-0.215-0.544
					c-0.028-0.297-0.324-0.438-0.359-0.14c-0.035,0.291-0.381,0.627-0.63,0.891c-0.243,0.263-1.212,0.822-1.763,0.869
					c-0.544,0.047-0.777,0.209-1.211,0.037c-0.417-0.166-1.447-0.831-1.614-1.21c-0.157-0.358-0.386-0.739-0.416-1.146
					c-0.03-0.404,0.22-1.323,0.649-1.701c0.439-0.388,0.9-0.901,1.813-0.978c0.721-0.062,1.783,0.044,2.031,0.227
					c0.248,0.18,0.636,0.522,0.385-0.306c-0.246-0.811-0.541-2.104-0.574-2.463c-0.032-0.342-0.238-0.448-0.254-0.619
					c-0.016-0.174,0.274-0.295,0.468-0.312c0.194-0.018,0.503-0.374,0.598-0.121c0.095,0.257,0.109,0.415,0.394,0.56
					c0.282,0.146,0.252,0.213,0.165,0.398c-0.092,0.19,0.008,0.764,0.044,1.125c0.033,0.342,0.265,1.285,0.425,1.581
					c0.171,0.313,0.085,0.733,0.276,0.948c0.185,0.208,0.391,0.465,0.439,0.947c0.048,0.469,0.228,0.827,0.408,0.953
					c0.178,0.125,0.246,0.604,0.133,0.759C183.877,394.533,184.025,394.829,183.766,394.908z M180.984,392.008
					c-0.435-0.197-0.875-0.279-1.457-0.229c-0.716,0.063-0.719,0.284-1.031,0.593c-0.321,0.316-0.593,0.8-0.556,1.269
					c0.038,0.471,0.601,1.102,1.453,1.029c0.858-0.072,0.741-0.424,1.301-0.678s0.522-0.646,0.603-0.797
					c0.076-0.145,0.462-0.345,0.436-0.611C181.709,392.338,181.421,392.205,180.984,392.008z"/>
				<path fill="#FFFFFF" stroke="#FFFFFF" stroke-width="0.2553" stroke-miterlimit="10" d="M188.278,387.938
					c-0.229,0.028-0.597-0.261-0.812-0.329c-0.202-0.065-0.531-0.266-0.557-0.486c-0.026-0.215,0.229-0.611,0.458-0.639
					c0.337-0.04,0.792,0.084,0.837,0.232c0.043,0.141,0.562-0.135,0.623,0.354C188.887,387.55,188.492,387.912,188.278,387.938z
					 M189.52,394.115c0.021,0.17-0.125,0.205-0.379,0.235c-0.254,0.032-0.656-0.107-0.721-0.641
					c-0.063-0.523-0.327-1.363-0.445-1.747c-0.123-0.389-0.123-1.018-0.27-1.18c-0.139-0.152-0.24-0.3-0.253-0.41
					c-0.013-0.109,0.153-0.57,0.386-0.598c0.248-0.029,0.812,0.12,0.844,0.387c0.033,0.264,0.107,0.855,0.266,1.122
					c0.164,0.277,0.348,0.762,0.383,1.038c0.036,0.297,0.467,0.798,0.301,0.93C189.464,393.381,189.496,393.926,189.52,394.115z"/>
				<path fill="#FFFFFF" stroke="#FFFFFF" stroke-width="0.2553" stroke-miterlimit="10" d="M198.24,389.187
					c-0.208,0.049-0.484,0.177-0.872,0.125c-0.39-0.049-0.646,0.021-0.751,0.151c-0.106,0.133-0.455,0.133-0.551,0.086
					c-0.102-0.051-0.377-0.074-0.34,0.174c0.035,0.23,0.455,1.8,0.538,2.342c0.085,0.559-0.032,1.07-0.16,1.262
					c-0.122,0.18-0.321,0.444-0.58,0.482c-0.253,0.037-0.663-0.08-0.794-0.263c-0.119-0.169-0.34-0.167-0.363-0.329
					c-0.021-0.153,0.203-0.361,0.365-0.543c0.16-0.181,0.115-0.842,0.029-1.433c-0.087-0.589-0.191-1.427-0.44-1.39
					c-0.253,0.035-0.603,0.273-0.737,0.199c-0.138-0.075-0.622-0.022-0.673-0.379c-0.048-0.344,0.033-0.656,0.265-0.689
					c0.231-0.031,1.137,0.061,1.08-0.33c-0.057-0.382-0.281-1.063-0.319-1.328c-0.038-0.264-0.108-1.218,0.265-1.273
					c0.354-0.053,0.65,0.014,0.752,0.206c0.094,0.173,0.325,0.601,0.375,0.939c0.065,0.427,0.098,0.644,0.162,1.072
					c0.033,0.216,0.299,0.233,0.486,0.183c0.18-0.052,0.344,0.078,0.822,0.029c0.475-0.049,1.027,0.188,1.245,0.04
					c0.216-0.146,0.872-0.044,0.911,0.187C198.996,388.956,198.467,389.131,198.24,389.187z"/>
				<path fill="#FFFFFF" stroke="#FFFFFF" stroke-width="0.2553" stroke-miterlimit="10" d="M209.499,392.103
					c-0.271,0.056-0.813-0.288-1.07-0.363c-0.259-0.077-0.646-0.241-0.734-0.493c-0.081-0.238-0.563-0.417-0.782-0.569
					c-0.193-0.136-0.289-0.419-0.484-0.382c-0.197,0.037-0.424,0.264-0.389,0.586c0.033,0.314-0.347,0.646-0.413,0.796
					c-0.068,0.155-0.634,0.897-1.448,1.046c-0.814,0.146-1.34-0.387-1.546-0.412c-0.209-0.025-0.229-0.438-0.385-0.583
					c-0.175-0.16-0.384-0.6-0.454-1.001c-0.073-0.418,0.175-1.262,0.356-1.77c0.185-0.516,0.945-1.295,1.052-1.394
					c0.11-0.099,0.542-0.099,0.641-0.293c0.098-0.188,0.516-0.012,0.618-0.144c0.104-0.131,0.256-0.113,0.394-0.141
					c0.303-0.057,0.891,0.112,1.137,0.18c0.246,0.07,0.742,0.209,0.83,0.657c0.084,0.434,0.131,1.048,0.245,1.261
					c0.114,0.215,0.492,0.639,0.86,0.948c0.379,0.318,0.707,0.747,1.107,0.898c0.417,0.158,0.892,0.297,0.938,0.526
					C210.02,391.691,209.771,392.049,209.499,392.103z M204.744,388.059c-0.16,0.029-0.234,0.014-0.434,0.051
					c-0.213,0.039-0.236,0.264-0.381,0.405c-0.143,0.138-0.033,0.378-0.272,0.442c-0.228,0.063-0.124,0.646-0.388,0.695
					c-0.268,0.047-0.203,0.85-0.137,1.22c0.069,0.386,0.206,0.937,0.781,0.832c0.582-0.105,0.994-1.093,1.183-1.57
					c0.19-0.483,0.261-1.241,0.279-1.478c0.019-0.234,0.184-0.625,0.095-0.764C205.391,387.771,204.939,388.021,204.744,388.059z"/>
				<path fill="#FFFFFF" stroke="#FFFFFF" stroke-width="0.2553" stroke-miterlimit="10" d="M216.18,385.656
					c-0.202,0.064-0.475,0.209-0.869,0.187c-0.397-0.022-0.641,0.065-0.736,0.203c-0.098,0.141-0.447,0.165-0.547,0.124
					c-0.107-0.045-0.379-0.047-0.324,0.198c0.053,0.228,0.578,1.763,0.698,2.3c0.124,0.551,0.045,1.067-0.07,1.268
					c-0.109,0.188-0.297,0.469-0.549,0.523c-0.253,0.057-0.671-0.029-0.818-0.203c-0.133-0.157-0.346-0.146-0.38-0.305
					c-0.033-0.152,0.177-0.375,0.322-0.568c0.146-0.19,0.061-0.847-0.067-1.43c-0.128-0.581-0.288-1.409-0.54-1.355
					c-0.246,0.055-0.577,0.315-0.721,0.25c-0.145-0.063-0.628,0.024-0.703-0.327c-0.071-0.341-0.01-0.66,0.221-0.71
					c0.229-0.049,1.141-0.018,1.056-0.403c-0.083-0.379-0.353-1.044-0.409-1.305s-0.195-1.206,0.172-1.286
					c0.348-0.077,0.651-0.036,0.77,0.148c0.107,0.166,0.365,0.576,0.44,0.91c0.095,0.424,0.143,0.637,0.237,1.061
					c0.047,0.213,0.319,0.213,0.498,0.146c0.176-0.063,0.348,0.053,0.822-0.028c0.473-0.084,1.049,0.114,1.254-0.048
					c0.201-0.159,0.865-0.105,0.919,0.122C216.914,385.373,216.4,385.586,216.18,385.656z"/>
				<path fill="#FFFFFF" stroke="#FFFFFF" stroke-width="0.2553" stroke-miterlimit="10" d="M220.047,382.008
					c-0.228,0.06-0.631-0.18-0.852-0.223c-0.211-0.039-0.572-0.195-0.625-0.412c-0.053-0.211,0.162-0.637,0.384-0.69
					c0.331-0.083,0.798-0.022,0.861,0.12c0.062,0.137,0.54-0.2,0.659,0.275C220.596,381.547,220.256,381.956,220.047,382.008z
					 M222.054,387.982c0.042,0.166-0.1,0.215-0.348,0.278c-0.251,0.064-0.676-0.02-0.806-0.542c-0.129-0.512-0.492-1.31-0.659-1.678
					c-0.171-0.372-0.247-0.99-0.416-1.134c-0.16-0.136-0.271-0.272-0.298-0.378c-0.027-0.107,0.076-0.584,0.305-0.64
					c0.245-0.063,0.826,0.013,0.895,0.272c0.063,0.26,0.212,0.836,0.401,1.08c0.196,0.255,0.444,0.71,0.515,0.98
					c0.074,0.289,0.563,0.734,0.414,0.884C221.906,387.257,222.006,387.797,222.054,387.982z"/>
				<path fill="#FFFFFF" stroke="#FFFFFF" stroke-width="0.2553" stroke-miterlimit="10" d="M230.173,385.155
					c-0.253,0.482-0.805,1.261-1.305,1.402c-0.495,0.14-1.622-0.081-1.853-0.04c-0.225,0.04-0.478-0.766-0.735-0.808
					c-0.255-0.041-0.616-0.577-0.698-0.882c-0.083-0.303,0.161-0.787,0.173-1.117c0.009-0.338,0.152-0.594,0.382-0.656
					c0.226-0.063,0.731-0.09,0.788,0.107c0.05,0.179-0.216,0.858-0.112,1.232c0.109,0.394,0.58,0.588,0.617,0.727
					c0.044,0.15,0.352,0.437,0.865,0.292c0.533-0.15,0.731-0.482,0.903-0.987c0.177-0.518,0.17-0.67,0.111-0.865
					c-0.057-0.197-0.621-0.634-0.896-0.678c-0.26-0.039-0.714-0.054-0.909,0c-0.188,0.054-0.569-0.146-0.659-0.462
					c-0.089-0.318,0.285-0.849,0.481-0.905c0.226-0.063,1.363,0.342,1.646,0.348c0.294,0.004,1.226,0.505,1.439,1.232
					C230.624,383.813,230.434,384.664,230.173,385.155z"/>
				<path fill="#FFFFFF" stroke="#FFFFFF" stroke-width="0.2553" stroke-miterlimit="10" d="M241.438,382.67
					c-0.247,0.083-0.92,0.059-1.038-0.295c-0.119-0.357-0.647-1.01-0.899-1.356c-0.241-0.332-0.813-0.66-0.991-0.712
					c-0.182-0.055-0.451-0.2-0.829,0.16c-0.369,0.349-0.852,0.697-1.021,1.25c-0.173,0.563-0.289,1.327-0.151,1.529
					c0.144,0.211-0.017,0.388-0.218,0.545c-0.182,0.143-0.11,0.381-0.322,0.445c-0.194,0.063-1.175-0.535-1.249-0.776
					c-0.07-0.221-0.519-1.583-0.786-1.857c-0.277-0.286-0.69-1-0.047-1.199c0.311-0.096,0.893-0.078,1.041,0.399
					c0.157,0.496,0.363,1.297,0.642,0.572c0.281-0.736,0.409-0.838,0.598-1.014c0.173-0.165,0.36-0.539,0.657-0.637
					c0.294-0.095,0.525-0.454,0.697-0.51c0.172-0.055,0.936,0.084,1.256,0.018c0.317-0.066,1.072,0.286,1.37,0.596
					c0.298,0.311,0.694,0.942,0.874,1.143c0.447,0.503,0.954,0.459,1.011,0.623C242.091,381.77,241.686,382.586,241.438,382.67z"/>
			</g>
		</g>
		<g>
			<g>
				<path fill="#FFFFFF" stroke="#FFFFFF" stroke-width="0.2553" stroke-miterlimit="10" d="M80.582,391.864
					c-0.246,0.011-0.421,0.114-0.672-0.216c-0.252-0.332-0.813-0.49-0.972-0.629c-0.167-0.145-0.631-0.385-1.034-0.145
					c-0.396,0.238-0.482,0.064-0.79,0.556c-0.296,0.478-0.381,0.735-0.516,1.138c-0.13,0.391-0.56,0.993,0.393,1.307
					c0.949,0.315,2.301,0.633,2.551,0.832c0.252,0.205-0.046,0.468-0.148,0.582c-0.097,0.109-0.571,0.502-0.749,0.291
					c-0.183-0.216-0.199-0.277-0.756-0.457c-0.557-0.182-0.542,0.07-0.923-0.055c-0.404-0.133-0.69-0.264-0.79,0.035
					c-0.105,0.314,0.276,0.836,0.157,1.101c-0.112,0.253,0.16,0.456,0.056,1.017c-0.106,0.561-0.106,0.99-0.327,1.102
					c-0.203,0.102-0.103,0.313-0.471,0.191c-0.353-0.118-0.567-0.605-0.66-0.964c-0.098-0.384,0.128-0.974,0.203-1.195
					c0.076-0.227-0.196-0.565-0.085-0.895c0.117-0.343,0.123-0.941-0.032-0.994c-0.176-0.06-0.249-0.137-0.457-0.487
					c-0.21-0.354-0.049-0.936,0.28-0.822c0.33,0.112,0.509,0.051,0.541-0.466c0.031-0.511,0.124-0.974,0.254-1.358
					c0.133-0.388,0.627-1.202,0.89-1.33c0.249-0.121,0.999-0.448,1.224-0.374c0.221,0.075,0.732,0.135,1.02,0.228
					c0.616,0.205,1.241,0.518,1.368,0.74c0.131,0.231,0.433,0.406,0.652,0.723S80.821,391.852,80.582,391.864z"/>
				<path fill="#FFFFFF" stroke="#FFFFFF" stroke-width="0.2553" stroke-miterlimit="10" d="M85.208,399.898
					c-0.473,0.271-1.362,0.634-1.859,0.487c-0.499-0.149-1.328-0.933-1.551-1.024c-0.216-0.088,0.008-0.902-0.188-1.077
					c-0.193-0.174-0.21-0.825-0.118-1.128c0.093-0.305,0.557-0.582,0.745-0.862c0.189-0.278,0.454-0.419,0.678-0.351
					c0.227,0.068,0.668,0.316,0.609,0.514c-0.054,0.181-0.642,0.613-0.755,0.991c-0.12,0.392,0.18,0.808,0.138,0.946
					c-0.045,0.149,0.058,0.561,0.569,0.712c0.533,0.159,0.882-0.017,1.298-0.354c0.428-0.345,0.501-0.478,0.56-0.675
					c0.058-0.2-0.186-0.868-0.395-1.05c-0.206-0.183-0.575-0.437-0.768-0.493c-0.196-0.059-0.41-0.433-0.313-0.754
					c0.094-0.314,0.707-0.557,0.898-0.5c0.226,0.066,0.97,1.017,1.205,1.172c0.244,0.162,0.763,1.094,0.554,1.822
					C86.309,398.998,85.691,399.621,85.208,399.898z"/>
				<path fill="#FFFFFF" stroke="#FFFFFF" stroke-width="0.2553" stroke-miterlimit="10" d="M94.564,399.187
					c-0.248-0.063-0.88-0.093-1.133,0.019c-0.254,0.117-0.793,0.307-0.982,0.527c-0.181,0.21-0.474,0.217-0.574,0.598
					c-0.1,0.381-0.246,0.989-0.25,1.321c-0.004,0.327-0.267,0.877-0.766,0.743c-0.503-0.132-0.675-0.617-0.702-0.889
					c-0.026-0.28,0.203-1.188,0.077-1.268c-0.145-0.092,0.005-0.455,0.188-0.637c0.181-0.178,0.184-0.583,0.168-0.902
					c-0.016-0.324,0.03-0.937,0.607-0.783c0.198,0.055,0.499,0.25,0.476,0.407c-0.021,0.153,0.057,0.339,0.326,0.248
					c0.267-0.093,0.477-0.155,0.832-0.224c0.358-0.067,0.758,0.068,1.022-0.027c0.248-0.092,0.598-0.008,0.825,0.051
					c0.214,0.054,0.532,0.572,0.493,0.725C95.132,399.246,94.826,399.252,94.564,399.187z"/>
				<path fill="#FFFFFF" stroke="#FFFFFF" stroke-width="0.2553" stroke-miterlimit="10" d="M109.748,400.715
					c-0.171,0.178-0.558,0.201-0.689-0.053c-0.123-0.232-0.273-0.375-0.693-0.458c-0.441-0.087-0.595-0.146-0.675,0.253
					c-0.083,0.418-0.334,1.688-0.317,1.964c0.017,0.272-0.301,0.407-0.258,0.927c0.043,0.523,0.099,1.257,0.044,1.535
					c-0.058,0.295,0.007,0.613-0.057,0.939c-0.061,0.308-0.512,0.898-0.799,0.84c-0.273-0.054-0.751-0.668-0.692-0.961
					c0.059-0.294,0.343-2.138,0.42-2.699c0.076-0.565,0.144-1.246,0.259-1.637c0.119-0.408,0.342-0.958,0.387-1.179
					c0.041-0.202,0.033-0.345-0.266-0.405c-0.301-0.063-1.493-0.168-1.891-0.187c-0.414-0.023-0.379,0.132-0.905,0.017
					c-0.548-0.118-1.031-0.615-0.962-0.936c0.072-0.324,0.275-0.392,0.538-0.334c0.526,0.114,0.715,0.184,1.595,0.248
					c0.881,0.064,2.604,0.232,3.237,0.359c0.634,0.126,1.795,0.202,2.245,0.676c0.453,0.481,0.318,0.74,0.202,0.859
					C110.351,400.604,109.908,400.549,109.748,400.715z"/>
				<path fill="#FFFFFF" stroke="#FFFFFF" stroke-width="0.2553" stroke-miterlimit="10" d="M115.319,406.717
					c-0.436,0.324-1.271,0.795-1.777,0.708c-0.508-0.087-1.422-0.77-1.646-0.833c-0.228-0.063-0.1-0.896-0.314-1.046
					c-0.214-0.153-0.303-0.792-0.246-1.103c0.057-0.313,0.481-0.646,0.632-0.946s0.395-0.472,0.627-0.431
					c0.233,0.042,0.697,0.235,0.661,0.438c-0.032,0.186-0.562,0.688-0.63,1.073c-0.071,0.405,0.27,0.781,0.245,0.924
					c-0.027,0.154,0.124,0.549,0.649,0.637c0.536,0.094,0.863-0.123,1.235-0.506c0.384-0.395,0.442-0.533,0.475-0.737
					c0.034-0.203-0.288-0.841-0.514-0.996c-0.228-0.157-0.62-0.36-0.815-0.395c-0.197-0.034-0.452-0.382-0.395-0.712
					c0.057-0.322,0.628-0.639,0.824-0.605c0.232,0.04,1.078,0.895,1.326,1.02c0.26,0.134,0.885,0.996,0.765,1.744
					C116.301,405.694,115.761,406.386,115.319,406.717z"/>
				<path fill="#FFFFFF" stroke="#FFFFFF" stroke-width="0.2553" stroke-miterlimit="10" d="M126.538,409.061
					c-0.277,0.021-0.37,0.113-0.565,0.09c-0.203-0.027-0.357-0.281-0.32-0.579c0.038-0.303-0.127-0.286-0.091-0.584
					c0.037-0.297-0.225-0.497-0.325-0.214c-0.099,0.277-0.51,0.529-0.813,0.737c-0.291,0.196-1.365,0.538-1.911,0.464
					c-0.545-0.074-0.809,0.039-1.197-0.227c-0.372-0.255-1.233-1.139-1.313-1.547c-0.076-0.385-0.216-0.806-0.156-1.213
					c0.06-0.407,0.508-1.248,1.011-1.526c0.513-0.284,1.084-0.69,1.994-0.566c0.718,0.101,1.727,0.438,1.936,0.672
					c0.205,0.23,0.501,0.66,0.441-0.212c-0.062-0.864-0.062-2.191-0.015-2.549c0.044-0.342-0.13-0.49-0.107-0.666
					c0.022-0.17,0.333-0.227,0.523-0.201c0.195,0.023,0.575-0.261,0.613,0.014c0.037,0.271,0.014,0.432,0.257,0.635
					c0.246,0.203,0.197,0.27,0.074,0.424c-0.131,0.168-0.168,0.756-0.213,1.118c-0.042,0.345-0.018,1.319,0.074,1.646
					c0.096,0.344-0.077,0.739,0.062,0.992c0.132,0.242,0.277,0.543,0.219,1.027c-0.057,0.469,0.045,0.86,0.194,1.021
					c0.146,0.159,0.105,0.65-0.041,0.775C126.727,408.713,126.808,409.037,126.538,409.061z M124.451,405.607
					c-0.381-0.287-0.795-0.473-1.373-0.55c-0.714-0.099-0.772,0.115-1.143,0.354c-0.382,0.241-0.752,0.659-0.819,1.126
					c-0.066,0.468,0.344,1.211,1.195,1.328c0.857,0.119,0.813-0.257,1.419-0.383c0.604-0.125,0.653-0.52,0.767-0.646
					c0.112-0.129,0.529-0.234,0.563-0.502C125.091,406.082,124.833,405.893,124.451,405.607z"/>
				<path fill="#FFFFFF" stroke="#FFFFFF" stroke-width="0.2553" stroke-miterlimit="10" d="M137.43,410.131
					c-0.276,0.035-0.362,0.13-0.563,0.114c-0.2-0.015-0.366-0.263-0.341-0.563c0.024-0.301-0.141-0.282-0.116-0.58
					c0.025-0.3-0.247-0.485-0.335-0.202c-0.086,0.277-0.484,0.557-0.778,0.773c-0.285,0.212-1.341,0.592-1.896,0.541
					c-0.546-0.051-0.796,0.074-1.191-0.174c-0.385-0.242-1.284-1.084-1.383-1.488c-0.092-0.379-0.248-0.799-0.205-1.209
					c0.043-0.408,0.452-1.268,0.947-1.566c0.503-0.304,1.058-0.733,1.97-0.647c0.718,0.067,1.734,0.363,1.952,0.589
					c0.215,0.221,0.535,0.632,0.439-0.23c-0.096-0.857-0.152-2.187-0.12-2.547c0.029-0.346-0.161-0.488-0.145-0.664
					c0.015-0.171,0.324-0.236,0.517-0.221c0.195,0.016,0.563-0.286,0.61-0.013c0.047,0.272,0.037,0.432,0.29,0.625
					c0.25,0.194,0.204,0.262,0.087,0.423c-0.122,0.172-0.132,0.761-0.161,1.125c-0.028,0.345,0.034,1.322,0.135,1.639
					c0.107,0.338-0.047,0.739,0.104,0.987c0.145,0.238,0.302,0.53,0.264,1.021c-0.036,0.469,0.08,0.857,0.232,1.01
					c0.152,0.158,0.14,0.646-0.002,0.775C137.599,409.779,137.7,410.098,137.43,410.131z M135.202,406.77
					c-0.397-0.275-0.818-0.438-1.393-0.49c-0.718-0.066-0.769,0.148-1.129,0.4c-0.366,0.256-0.722,0.692-0.769,1.161
					c-0.047,0.47,0.396,1.196,1.25,1.276c0.854,0.082,0.797-0.292,1.394-0.442c0.603-0.152,0.634-0.545,0.74-0.678
					c0.105-0.132,0.513-0.256,0.536-0.526C135.853,407.218,135.594,407.04,135.202,406.77z"/>
				<path fill="#FFFFFF" stroke="#FFFFFF" stroke-width="0.2553" stroke-miterlimit="10" d="M143.542,410.725
					c-0.104,0.102-0.239,0.253-0.438,0.241c-0.198-0.011-0.477-0.282-0.543-0.409c-0.065-0.13-0.315-0.353-0.284-0.873
					c0.029-0.501-0.092-2.521-0.148-3.256c-0.054-0.727,0.082-3.692,0.1-3.979c0.019-0.297,0.281-0.296,0.493-0.284
					c0.375,0.023,0.878,0.348,0.771,0.578c-0.107,0.227-0.155,0.529-0.167,0.751c-0.013,0.218,0.19,2.286,0.147,3.058
					c-0.043,0.783,0.228,1.857,0.197,2.424c-0.029,0.55,0.306,1.059,0.294,1.296C143.953,410.524,143.641,410.63,143.542,410.725z"
					/>
				<path fill="#FFFFFF" stroke="#FFFFFF" stroke-width="0.2553" stroke-miterlimit="10" d="M153.084,410.931
					c-0.335,0.202-0.813,0.637-2.045,0.606c-1.249-0.031-1.637-0.174-2.363-0.844c-0.731-0.671-1.294-1.259-1.047-1.395
					c0.242-0.133,0.036-0.961,0.052-1.367c0.015-0.408,0.53-1.354,1.037-1.623c0.508-0.27,1.778-0.605,2.123-0.599
					c0.773,0.022,0.973,0.221,1.207,0.597c0.231,0.373,0.314,0.824,0.215,1.014c-0.104,0.2-0.048,0.571-0.434,0.734
					c-0.378,0.163-0.517,0.529-0.72,0.691c-0.215,0.167-0.861,0.782-1.152,0.805c-0.311,0.023-0.537,0.191-0.273,0.433
					c0.266,0.244,0.582,0.461,1.747,0.487c1.171,0.027,0.867-0.28,1.246-0.273c0.386,0.008,0.898-0.063,0.896,0.078
					C153.568,410.432,153.416,410.732,153.084,410.931z M150.265,407.005c-0.236-0.008-0.397,0.079-0.771,0.389
					c-0.372,0.304-0.569,0.554-0.619,0.988c-0.051,0.447,0.545,0.173,0.697-0.056c0.154-0.232,0.631-0.556,0.872-0.814
					c0.243-0.259,0.518-0.428,0.396-0.602C150.708,406.717,150.46,407.01,150.265,407.005z"/>
				<path fill="#FFFFFF" stroke="#FFFFFF" stroke-width="0.2553" stroke-miterlimit="10" d="M160.814,407.005
					c-0.251,0.003-0.865,0.136-1.079,0.311c-0.216,0.177-0.681,0.503-0.807,0.765c-0.12,0.249-0.4,0.333-0.398,0.727
					c0.001,0.393,0.015,1.014,0.097,1.337c0.081,0.322-0.032,0.916-0.546,0.917c-0.515,0.002-0.798-0.424-0.892-0.676
					c-0.098-0.262-0.116-1.199-0.255-1.246c-0.158-0.05-0.111-0.441,0.019-0.664c0.124-0.221,0.025-0.609-0.069-0.913
					c-0.096-0.308-0.212-0.914,0.375-0.914c0.203,0,0.545,0.112,0.563,0.269c0.02,0.156,0.142,0.313,0.375,0.155
					c0.233-0.158,0.415-0.269,0.739-0.428c0.323-0.159,0.744-0.13,0.97-0.292c0.216-0.152,0.573-0.159,0.808-0.164
					c0.217-0.002,0.655,0.414,0.657,0.572C161.375,406.913,161.086,407,160.814,407.005z"/>
				<path fill="#FFFFFF" stroke="#FFFFFF" stroke-width="0.2553" stroke-miterlimit="10" d="M167.348,407.432
					c-0.307,0.013-0.265-0.252-0.461-0.245c-0.221,0.007-0.244,0.259-0.479,0.267c-0.238,0.01-0.17,0.309-0.164,0.496
					c0.006,0.174,0.334,0.717,0.521,0.914c0.188,0.195,0.598,0.842,0.617,1.347c0.021,0.522-0.454,0.673-0.738,0.833
					c-0.3,0.171-0.928,0.283-1.236,0.289c-0.314,0.012-0.562-0.157-0.866-0.02c-0.296,0.14-0.666,0.178-0.935,0.091
					c-0.256-0.087-0.852-0.378-0.857-0.677c-0.006-0.283,0.554-0.664,0.92-0.574c0.348,0.084,0.332-0.006,0.65-0.188
					c0.34-0.194,0.534,0.06,0.538,0.173c0.003,0.126,0.106,0.273,0.659,0.108c0.555-0.164,0.595-0.334,0.235-0.656
					c-0.358-0.319-0.864-1.473-0.878-1.946c-0.014-0.453,0.285-0.841,0.404-1.001c0.121-0.162,0.445-0.646,0.912-0.662
					c0.42-0.014,0.85,0.118,1.166,0.176c0.318,0.057,0.711,0.289,0.721,0.512C168.087,406.887,167.655,407.422,167.348,407.432z"/>
				<path fill="#FFFFFF" stroke="#FFFFFF" stroke-width="0.2553" stroke-miterlimit="10" d="M182.326,405.882
					c-0.21,0.036-0.498,0.142-0.881,0.069c-0.383-0.074-0.644-0.021-0.754,0.1c-0.115,0.129-0.459,0.107-0.557,0.052
					c-0.098-0.06-0.372-0.092-0.352,0.156c0.021,0.235,0.346,1.835,0.395,2.388c0.051,0.563-0.092,1.07-0.234,1.257
					c-0.136,0.179-0.354,0.423-0.605,0.444c-0.258,0.021-0.667-0.12-0.785-0.313c-0.104-0.17-0.325-0.193-0.34-0.353
					c-0.012-0.16,0.23-0.354,0.396-0.524c0.168-0.174,0.168-0.836,0.12-1.431c-0.05-0.6-0.103-1.446-0.354-1.426
					c-0.253,0.021-0.616,0.239-0.753,0.155c-0.133-0.084-0.62-0.063-0.648-0.425c-0.026-0.346,0.081-0.655,0.314-0.673
					c0.234-0.018,1.131,0.127,1.098-0.264c-0.031-0.396-0.216-1.088-0.236-1.355c-0.021-0.27-0.027-1.229,0.344-1.262
					c0.352-0.029,0.648,0.059,0.736,0.253c0.082,0.183,0.288,0.623,0.317,0.972c0.036,0.432,0.056,0.648,0.094,1.082
					c0.019,0.22,0.28,0.248,0.465,0.211c0.191-0.039,0.344,0.105,0.821,0.086c0.477-0.02,1.025,0.25,1.244,0.119
					c0.219-0.13,0.867,0.008,0.891,0.246C183.09,405.699,182.561,405.843,182.326,405.882z"/>
				<path fill="#FFFFFF" stroke="#FFFFFF" stroke-width="0.2553" stroke-miterlimit="10" d="M190.098,408.104
					c-0.324,0.438-0.986,1.124-1.498,1.185c-0.51,0.063-1.578-0.329-1.813-0.323c-0.231,0.004-0.351-0.834-0.599-0.918
					c-0.248-0.085-0.512-0.674-0.547-0.986c-0.034-0.316,0.272-0.759,0.332-1.087c0.06-0.329,0.246-0.564,0.483-0.592
					c0.229-0.026,0.729,0.027,0.752,0.231c0.022,0.188-0.343,0.821-0.298,1.211c0.047,0.407,0.485,0.67,0.502,0.814
					c0.02,0.154,0.273,0.489,0.801,0.426c0.543-0.064,0.788-0.364,1.033-0.837c0.254-0.487,0.272-0.636,0.246-0.841
					s-0.516-0.723-0.779-0.809c-0.26-0.085-0.689-0.174-0.888-0.148c-0.2,0.022-0.541-0.238-0.58-0.572
					c-0.038-0.324,0.417-0.789,0.614-0.812c0.231-0.028,1.287,0.55,1.562,0.598c0.286,0.054,1.13,0.703,1.227,1.454
					C190.746,406.844,190.424,407.664,190.098,408.104z"/>
				<path fill="#FFFFFF" stroke="#FFFFFF" stroke-width="0.2553" stroke-miterlimit="10" d="M205.602,400.639
					c-0.092,0.227-0.44,0.391-0.656,0.207c-0.195-0.172-0.395-0.248-0.817-0.17c-0.44,0.083-0.606,0.083-0.532,0.484
					c0.076,0.42,0.314,1.694,0.432,1.942c0.117,0.245-0.128,0.491,0.104,0.957c0.233,0.468,0.561,1.131,0.613,1.41
					c0.055,0.294,0.236,0.563,0.297,0.892c0.057,0.307-0.15,1.024-0.438,1.075c-0.274,0.052-0.945-0.343-0.998-0.636
					c-0.054-0.296-0.473-2.113-0.61-2.662c-0.139-0.555-0.323-1.215-0.361-1.62c-0.042-0.423-0.036-1.014-0.075-1.234
					c-0.036-0.203-0.098-0.333-0.398-0.278c-0.302,0.054-1.447,0.398-1.823,0.523c-0.394,0.135-0.304,0.262-0.837,0.35
					c-0.551,0.092-1.179-0.188-1.231-0.514c-0.054-0.329,0.106-0.465,0.374-0.508c0.53-0.087,0.731-0.095,1.568-0.359
					c0.844-0.266,2.51-0.748,3.143-0.864c0.633-0.118,1.736-0.472,2.33-0.195c0.598,0.276,0.568,0.567,0.503,0.72
					C206.123,400.311,205.691,400.416,205.602,400.639z"/>
				<path fill="#FFFFFF" stroke="#FFFFFF" stroke-width="0.2553" stroke-miterlimit="10" d="M214.928,404.549
					c-0.279,0.275-0.65,0.813-1.859,1.076c-1.227,0.268-1.638,0.222-2.506-0.253c-0.875-0.479-1.56-0.917-1.353-1.108
					c0.2-0.186-0.194-0.943-0.276-1.343c-0.082-0.402,0.2-1.44,0.629-1.821c0.434-0.386,1.594-1.014,1.932-1.085
					c0.754-0.164,1.004-0.019,1.319,0.291c0.313,0.307,0.499,0.723,0.448,0.931c-0.053,0.221,0.089,0.566-0.245,0.816
					c-0.336,0.25-0.386,0.644-0.544,0.844c-0.172,0.216-0.652,0.967-0.933,1.057c-0.296,0.098-0.476,0.31-0.157,0.483
					c0.313,0.173,0.666,0.312,1.816,0.061c1.152-0.252,0.778-0.479,1.154-0.563c0.378-0.085,0.862-0.276,0.894-0.14
					C215.283,403.949,215.21,404.271,214.928,404.549z M211.238,401.406c-0.232,0.051-0.371,0.175-0.661,0.561
					c-0.29,0.387-0.419,0.667-0.362,1.105c0.058,0.454,0.566,0.039,0.66-0.218c0.096-0.263,0.49-0.688,0.662-0.997
					c0.173-0.311,0.404-0.541,0.242-0.68C211.598,401.021,211.432,401.364,211.238,401.406z"/>
				<path fill="#FFFFFF" stroke="#FFFFFF" stroke-width="0.2553" stroke-miterlimit="10" d="M223.528,402.447
					c-0.271,0.285-0.619,0.834-1.824,1.141c-1.218,0.311-1.634,0.275-2.519-0.172c-0.893-0.447-1.596-0.857-1.391-1.057
					c0.195-0.193-0.224-0.938-0.32-1.334c-0.094-0.397,0.151-1.445,0.567-1.842c0.419-0.398,1.565-1.066,1.894-1.15
					c0.758-0.19,1.009-0.055,1.336,0.243c0.323,0.296,0.526,0.708,0.481,0.917c-0.045,0.22,0.105,0.565-0.221,0.826
					c-0.324,0.261-0.364,0.648-0.52,0.862c-0.159,0.221-0.618,0.989-0.894,1.089c-0.294,0.106-0.467,0.332-0.147,0.489
					c0.325,0.163,0.684,0.286,1.83-0.007c1.142-0.291,0.762-0.504,1.136-0.602c0.369-0.098,0.851-0.305,0.889-0.168
					C223.866,401.836,223.797,402.164,223.528,402.447z M219.727,399.436c-0.229,0.058-0.361,0.186-0.642,0.58
					c-0.278,0.397-0.397,0.686-0.326,1.119c0.073,0.449,0.571,0.021,0.657-0.239c0.084-0.265,0.467-0.702,0.633-1.022
					c0.16-0.313,0.378-0.553,0.214-0.686C220.077,399.037,219.923,399.387,219.727,399.436z"/>
				<path fill="#FFFFFF" stroke="#FFFFFF" stroke-width="0.2553" stroke-miterlimit="10" d="M233.626,399.793
					c-0.253,0.076-0.922,0.037-1.032-0.33c-0.107-0.359-0.617-1.033-0.859-1.386c-0.231-0.336-0.806-0.69-0.969-0.747
					c-0.18-0.063-0.449-0.217-0.84,0.132c-0.378,0.339-0.871,0.675-1.057,1.226c-0.188,0.564-0.326,1.324-0.194,1.533
					c0.145,0.221-0.025,0.391-0.229,0.543c-0.18,0.136-0.119,0.377-0.333,0.437c-0.197,0.057-1.161-0.579-1.229-0.817
					c-0.064-0.232-0.467-1.608-0.732-1.895c-0.273-0.293-0.663-1.023-0.014-1.204c0.315-0.088,0.888-0.057,1.026,0.431
					c0.142,0.5,0.327,1.316,0.627,0.596c0.304-0.732,0.431-0.83,0.621-1c0.181-0.159,0.382-0.54,0.673-0.624
					c0.302-0.087,0.54-0.435,0.718-0.486c0.173-0.052,0.93,0.114,1.249,0.059c0.318-0.055,1.072,0.315,1.359,0.641
					c0.286,0.323,0.665,0.97,0.842,1.179c0.428,0.514,0.941,0.485,0.993,0.648C234.304,398.91,233.877,399.715,233.626,399.793z"/>
				<path fill="#FFFFFF" stroke="#FFFFFF" stroke-width="0.2553" stroke-miterlimit="10" d="M239.867,394.053
					c-0.295,0.1-0.33-0.167-0.519-0.104c-0.205,0.069-0.163,0.319-0.389,0.395c-0.226,0.077-0.076,0.345-0.019,0.525
					c0.055,0.163,0.525,0.588,0.764,0.725c0.238,0.134,0.821,0.634,0.985,1.113c0.166,0.494-0.252,0.776-0.483,1.012
					c-0.244,0.252-0.818,0.539-1.122,0.639c-0.296,0.099-0.591,0.006-0.843,0.225c-0.25,0.219-0.598,0.363-0.886,0.356
					c-0.269-0.008-0.927-0.118-1.018-0.403c-0.087-0.271,0.348-0.794,0.724-0.813c0.362-0.019,0.326-0.103,0.586-0.371
					c0.271-0.281,0.528-0.092,0.563,0.016c0.04,0.121,0.186,0.229,0.679-0.09c0.49-0.317,0.479-0.49,0.038-0.696
					c-0.438-0.203-1.255-1.165-1.399-1.612c-0.142-0.434,0.032-0.892,0.104-1.08c0.076-0.191,0.251-0.745,0.701-0.895
					c0.4-0.134,0.855-0.13,1.177-0.166c0.33-0.039,0.773,0.07,0.847,0.281C240.427,393.316,240.163,393.952,239.867,394.053z"/>
			</g>
		</g>
		<g>
			<g>
				<path fill="#764191" d="M184.552,290.162c-0.077-0.675-0.515-1.134-1.181-1.184c-2.935-0.209-8.631-0.636-12.727-0.331
					c-2.582,2.162-5.71,7.399-14.793,5.554c-2.983-0.726-4.617-3.274-6.174-4.775c-3.484-0.857-8.425-2.025-11.909-2.885
					c-0.659-0.162-1.229,0.207-1.449,0.826c-1.197,3.332-2.542,6.596-4.075,9.791c-0.34,0.707-0.035,1.414,0.705,1.73
					c7.898,3.38,12.414,8.963,12.917,15.164c-0.529,8.882-2.724,14.271-2.525,16.865c-0.15,0.748,0.45,1.039,0.799,1.398
					c4.003,4.123,8.271,6.765,12.276,10.887c0.481,0.494,1.194,0.412,1.685,0c4.475-3.764,12.45-7.243,15.135-10.836
					c-0.083-6.359-0.688-7.539-1.311-12.814c-0.282-2.393-0.35-2.834-0.075-5.542c0.656-6.488,7.854-8.936,13.25-11.713
					c0.433-0.223,1.127-0.464,1.068-0.993C185.783,297.725,184.982,293.942,184.552,290.162z M180.418,301.182
					c-4.514,1.843-8.205,4.982-10.46,9.275c-1.396,2.655-0.741,5.428-0.748,8.242c-0.01,5.661,0.179-0.101,0.563,5.546
					c0.282,4.128,0.719,5.447-2.392,8.06c-3.274,2.753-6.548,5.503-9.824,8.256c-0.081,0.068-0.145,0.126-0.209,0.188
					c-1.38-1.422-2.759-2.841-4.137-4.261c-2.283-2.347-4.562-4.696-6.843-7.04c-0.744-10.346,4.935-8.621,1.537-19.505
					c-1.21-3.882-4.658-8.113-8.033-10.299c-0.534-0.346-5.201-2.115-4.578-3.415c1.109-2.308,2.009-4.737,2.898-7.145
					c0.025,0.002,0.041,0.006,0.066,0.009c0.89,0.218,1.779,0.437,2.667,0.655c1.95,0.482,3.899,0.959,5.85,1.439
					c0.965,0.24,3.446,2.833,5.48,3.98c4.149,2.34,9.113,1.748,13.324,0.095c2.939-1.156,5.197-4.261,7.768-4.282
					c1.736-0.018,8.826-1.031,8.967,1.879C182.479,296.352,184.461,299.533,180.418,301.182z"/>
				<path fill="#3BBEED" d="M145.199,329.799c0.882-5.594,0.984-5.121,1.902-10.19c0.421-2.333,1.03-3.537,0.771-6.923
					c-0.367-4.809-4.651-11.839-13.246-15.017c1.929-3.745,3.554-9.229,3.554-9.229l10.619,2.516c0,0,3.418,5.231,10.623,5.351
					c6.444,0.106,11.471-5.835,11.471-5.835s6.178-0.143,11.313,0.328c0.289,3.648,1.035,6.885,1.354,10.148
					c-5.549,1.525-12.783,6.252-13.668,12.073c0,0-0.354,2.265,0.29,7.679c0.473,3.982,1.147,4.827,1.226,10.278l-14.01,9.413
					L145.199,329.799z"/>
			</g>
			<path fill="#764191" d="M235.614,257.684c2.666,2.734,4.923,5.778,8.134,7.918c0.558,0.371,1.1-0.234,1.013-0.781
				c-0.646-3.986-3.421-6.742-7.093-8.182c-0.778-0.307-1.142,0.739-0.728,1.254c2.049,2.525,11.938,4.137,12.935-0.295
				c1.188-5.346-9.247-5.782-12.366-4.586c-0.824,0.317-0.746,1.58,0.219,1.591c5.213,0.072,11.956-2.317,14.984-6.767
				c0.374-0.545-0.128-1.216-0.71-1.242c-5.508-0.253-10.002,2.092-14.69,4.704c0.272,0.47,0.555,0.95,0.83,1.423
				c3.88-2.627,7.691-7.025,7.797-11.93c0.008-0.404-0.382-0.878-0.819-0.82c-4.88,0.61-7.231,3.957-9.029,8.26
				c0.525,0.145,1.047,0.288,1.574,0.434c0.49-3.358,0.085-6.199-1.276-9.303c-0.34-0.771-1.517-0.35-1.514,0.41
				c0.033,5.838,0.384,11.226-2.909,16.35c-3.426,5.32-8.956,9.947-13.744,14c-9.133,7.713-19.74,13.074-30.365,18.383
				c-0.238,0.117-0.435,0.444-0.408,0.715c0.168,1.871,0.334,3.743,0.506,5.611c0.063,0.65,0.66,1.008,1.252,0.72
				c6.985-3.364,13.725-7.3,20.246-11.478c9.999-6.396,20.569-13.947,26.892-24.221c0.564-0.918-0.878-1.753-1.439-0.841
				c-6.535,10.614-17.679,18.187-28.019,24.725c-5.965,3.772-12.154,7.306-18.514,10.376c0.413,0.243,0.83,0.48,1.249,0.719
				c-0.153-1.675-0.304-3.35-0.458-5.025c-0.051-0.549,5.867-3.023,6.979-3.594c6.98-3.572,13.788-7.51,19.99-12.334
				c5.886-4.583,11.986-9.809,16.43-15.853c4.173-5.673,3.975-11.488,3.937-18.253c-0.503,0.138-1.009,0.274-1.514,0.411
				c1.182,2.699,1.532,5.123,1.106,8.048c-0.154,1.049,1.161,1.404,1.574,0.434c0.703-1.69,1.425-3.109,2.553-4.551
				c0.739-0.943,4.467-3.461,3.625-0.709c-0.98,3.178-3.841,6.074-6.53,7.894c-0.874,0.585-0.107,1.944,0.83,1.423
				c4.43-2.468,8.641-4.713,13.86-4.475c-0.239-0.416-0.476-0.83-0.719-1.244c-2.677,3.932-8.971,6.021-13.556,5.98
				c0.069,0.528,0.142,1.062,0.213,1.594c2.84-1.105,7.771-0.629,10.124,1.342c2.513,2.103-4.542,2.744-4.986,2.737
				c-1.723-0.038-3.927-0.433-5.076-1.823c-0.247,0.414-0.487,0.832-0.732,1.25c3.244,1.234,5.563,3.65,6.161,7.109
				c0.338-0.26,0.678-0.523,1.014-0.78c-3.112-2.025-5.396-4.956-8.177-7.374C235.821,256.652,235.198,257.256,235.614,257.684
				L235.614,257.684z"/>
			<path fill="#764191" d="M89.215,250.184c-3.032,1.77-5.425,4.406-8.619,5.926c0.336,0.255,0.672,0.514,1.008,0.772
				c0.972-3.262,3.176-5.333,6.543-5.899c-0.242-0.415-0.485-0.83-0.725-1.242c-2.316,1.827-6.786,0.618-9.054-0.678
				c-0.393-2.255,0.328-3.281,2.168-3.08c0.935-0.094,1.891,0.006,2.822,0.085c1.537,0.13,3.35,0.504,4.668,1.349
				c0.208-0.49,0.414-0.981,0.619-1.473c-4.469-0.897-10.263-4.236-12.073-8.617c-0.336,0.338-0.674,0.678-1.016,1.02
				c5.17,0.82,8.82,3.881,12.66,7.212c0.797,0.692,1.911-0.392,1.168-1.164c-2.252-2.326-3.742-5.1-4.616-8.207
				c-1.075-3.819,1.706-1.489,2.979-0.181c1.893,1.943,2.615,4.687,1.881,7.269c0.523,0,1.049,0,1.573,0
				c-0.853-3.196,0.988-6.906,2.818-9.442c-0.498-0.207-0.991-0.418-1.486-0.627c-1.46,6.733-2.781,12.354,0.15,18.873
				c2.57,5.72,6.435,11.149,10.346,16.021c3.669,4.571,7.844,9.792,12.612,13.218c4.977,3.578,11.294,5.488,16.915,7.788
				c-0.167-0.405-0.331-0.813-0.499-1.222c-0.333,0.709-0.672,1.419-1.007,2.127c-0.67,1.406-0.472,0.863,0.134,0.969
				c-0.708-0.119-1.396-0.307-2.087-0.495c-3.962-1.089-7.695-2.927-11.214-5.014c-12.215-7.245-23.503-19.934-27.514-33.65
				c-0.301-1.028-1.907-0.592-1.609,0.444c3.795,12.965,13.655,24.277,24.435,32.111c5.051,3.674,11.397,7.259,17.695,8.234
				c0.349,0.055,0.771-0.023,0.939-0.381c0.559-1.169,1.113-2.336,1.669-3.502c0.246-0.529,0.022-1.01-0.503-1.229
				c-4.992-2.036-10.062-3.914-14.793-6.538c-4.728-2.618-8.42-7.557-11.955-11.571c-3.625-4.121-6.718-8.605-9.498-13.328
				c-2.027-3.438-3.972-6.851-4.407-10.892c-0.411-3.81,0.953-7.843,1.754-11.531c0.203-0.933-0.948-1.363-1.483-0.628
				c-2.099,2.917-3.95,7.063-2.986,10.697c0.209,0.786,1.352,0.77,1.573,0c1.506-5.251-2.225-10.298-7.106-12.023
				c-0.398-0.135-0.93,0.158-1.008,0.577c-0.909,4.835,1.851,9.909,5.129,13.297c0.391-0.389,0.778-0.776,1.168-1.164
				c-4.032-3.502-7.961-6.782-13.387-7.647c-0.536-0.085-1.287,0.37-1.017,1.018c2.054,4.988,8.101,8.734,13.239,9.738
				c0.892,0.174,1.417-0.973,0.619-1.479c-2.761-1.764-13.252-3.6-13.064,1.922c0.159,4.662,10.084,4.949,12.697,2.844
				c0.638-0.514-0.071-1.354-0.723-1.238c-3.835,0.693-6.408,3.255-7.464,6.965c-0.177,0.613,0.484,1.033,1.002,0.773
				c3.228-1.592,5.48-4.277,8.392-6.313C90.159,250.642,89.737,249.883,89.215,250.184L89.215,250.184z"/>
			<g id="XMLID_1_">
				<path fill="#764191" d="M140.8,365.928c-0.546,0.682-1.362,1.818-2.29,1.768c-20.406-1.074-61.743-7.26-51.293-38.509
					c4.046-12.093,19.88-11.514,29.946-9.462c14.393,2.93,29.273,9.701,39.655,20.277c11.506-6.966,22.799-13.6,36.231-15.986
					c14.588-2.588,32.039-3.84,39.587,11.694c2.964,6.106,2.878,13.602-0.903,19.317c-3.279,4.948-11.277,8.889-17.568,10.027
					c-18.237,3.293-31.18,3.915-31.891,3.545c-1.643-0.86-4.365-3.129-4.568-3.417c-1.947-2.101-7.687-6.911-10.359-10.394
					c-0.419-0.555,0.281-0.596,1.037-0.588c13.416,0.247,27.928-0.095,40.295-6.117c1.745-0.85,5.688-2.587,5.416-5.057
					c-0.442-4.07-4.616-4.396-7.801-4.242c-7.471,0.366-13.439,2.273-20.714,4.813c-4.771,1.66-18.822,7.469-27.331,10.321
					c-3.799,1.277-7.214-2.989-10.348-4.905c-5.792-3.544-11.831-6.866-18.149-9.36c-6.022-2.375-14.692-4.803-20.952-2.011
					c-5.153,2.309,2.393,5.425,4.667,6.466c10.697,4.879,22.654,7.92,34.255,9.7c1.082,0.161,1.487,1.09,0.951,1.976
					C146.891,358.74,143.789,362.182,140.8,365.928z"/>
			</g>
		</g>
		<path fill="#FFFFFF" d="M203.535,364.607c-8.397,1.067-12.382,1.641-14.375,1.796c-2.729,0.214-6.662,0.312-6.662,0.312
			c-8.359-6.903-11.021-9.646-11.98-10.948c9.396,0.011,16.145,0.017,25.309-2.098c6.088-1.402,13.879-3.056,18.411-7.724
			c3.491-3.594-0.276-8.629-4.394-9.223c-8.392-1.219-25.807,5.313-26.641,5.603c-8.851,3.04-17.811,5.795-26.688,8.771
			c-8.258-6.279-17.803-12.892-27.477-16.523c-6.05-2.264-22.283-6.187-24.966,3.146c-1.807,6.302,7.881,8.469,11.928,10.01
			c9.128,3.482,20.284,6.092,29.936,7.709c-0.515,1.788-5.853,7.503-8.048,9.719c-7.051-0.763-8.742-1.099-14.723-2.282
			c-3.12-0.61-5.259-0.83-8.866-1.861c-7.686-2.195-14.744-5.436-20.076-9.787c-5.631-4.594-6.931-12.979-5.509-19.852
			c2.53-12.225,21.246-11.365,29.993-9.395c13.234,3.002,26.964,11.225,36.381,21.071c0.537,0.569,1.484,0.63,2.132,0.221
			c11.01-6.839,21.433-13.796,34.247-16.644c7.866-1.744,16.452-2.648,24.448-1.369c8.109,1.296,13.917,7.973,15.688,15.779
			C235.198,356.904,217.258,362.859,203.535,364.607z"/>
		<g>
			<g>
				<path fill="none" d="M178.527,250.704c0.109-0.024,0.063-0.186-0.044-0.164c-8.374,1.591-13.492-3.624-16.515-10.924
					c-0.041-0.098-0.438,0-0.399,0.098C164.609,247.117,170.052,252.529,178.527,250.704z"/>
				<path fill="none" d="M181.547,254.207c0.139-0.028,0.08-0.236-0.057-0.209c-10.778,2.046-17.367-4.662-21.256-14.059
					c-0.051-0.127-0.566,0-0.513,0.127C163.631,249.596,170.639,256.559,181.547,254.207z"/>
				<path fill="none" d="M135.87,267.582c0.053,0.175,0.072,0.367,0.105,0.553C135.952,267.937,135.92,267.75,135.87,267.582z"/>
				<path fill="none" d="M183.102,263.264c-0.693,1.202-1.771,2.021-3.398,1.893c-0.275-0.02-0.441-0.434-0.145-0.567
					c2.404-1.077,3.52-3.952,3.243-6.553l-0.703-0.118c0.105,0.549,0.16,1.107,0.092,1.639c-0.21,1.666-1.038,2.893-2.841,2.589
					c-0.308-0.051-0.237-0.479,0.01-0.56c2.189-0.714,2.033-2.656,1.534-4.525c-17.022-3.27-20.302-8.218-23.483-17.107
					c-0.501,0.223-1.229,0.277-2.136,0.328c0.384,1.932,0.897,3.809,2.096,5.578c2.013,2.973,4.816,5.084,7.579,7.318
					c0.425,0.342-0.13,0.904-0.557,0.697c-5.089-2.482-9.975-7.633-10.852-13.471c-0.317,0.031-0.645,0.072-0.984,0.124
					c0.115,0.763,0.245,1.522,0.478,2.239c0.869,2.697,2.196,4.861,3.912,7.094c0.12,0.154-0.092,0.371-0.224,0.217
					c-1.766-2.13-3.521-4.424-4.925-6.811c-0.432-0.735-0.893-1.498-1.292-2.284c-0.317,1.083-0.018,2.441-1.098,4.346
					c-2.358,4.159-1.623,10.85-0.29,14.193c-2.277-2.35-2.642-5.931-3.016-8.879c-1.945,3.333-1.812,8.382-1.871,12.166
					c-2.637-3.522-3.359-7.494-2.98-11.565c-1.35,1.033-2.221,2.146-2.521,3.426l0,0c0.029,0.48-0.018,0.949-0.098,1.412
					c0.061,0.782,0.302,1.621,0.75,2.538c0.465,0.95,1.186,2.724,1.984,3.427c0.222,0.196-0.022,0.584-0.295,0.489
					c-1.377-0.481-2.428-2.696-2.963-4.268c-0.145,0.595-0.261,1.188-0.27,1.796c-0.041,3.548,2.176,5.875,5.087,7.504
					c0.222,0.124,0.125,0.523-0.141,0.494c-3.18-0.34-5.448-2.654-6.154-5.589c-0.038,0.817-0.099,1.69-0.183,2.616
					c-0.594,6.554,3.758,14.164,10.708,17.92c4.479,2.422,8.881,3.467,14.847,3.034c5.75-0.419,10.247-4.155,13.445-7.046
					c3.471-3.137,6.754-9.93,7.442-14.418C182.963,264.113,183.031,263.682,183.102,263.264z"/>
				<polygon fill="none" points="141.316,250.662 141.313,250.666 141.316,250.666 				"/>
				<g>
					<path fill="#A14995" d="M135.547,271.437c-0.075,0.238-0.155,0.464-0.238,0.663l0,0c0.1-0.175,0.193-0.357,0.274-0.549
						C135.57,271.515,135.561,271.477,135.547,271.437z"/>
				</g>
				<g>
					<path fill="#A14995" d="M134.956,269.529c0.028,0.104,0.055,0.211,0.084,0.312c0.146-0.534,0.233-1.089,0.27-1.597
						C135.215,268.688,135.098,269.12,134.956,269.529z"/>
				</g>
				<g>
					<path fill="#A14995" d="M135.975,268.135c0.111,0.986-0.101,2.281-0.428,3.302c0.014,0.04,0.023,0.078,0.037,0.114"/>
				</g>
				<path fill="#764191" d="M188.95,273.42c-3.29-1.291-4.493-4.668-4.511-7.964c0.002-0.003,0.004-0.007,0.004-0.011
					c0.009-0.029-0.004-0.051-0.006-0.078c0-0.473,0.025-0.942,0.072-1.404c0.004-0.031-0.013-0.051-0.033-0.066
					c0.258-2.396,0.36-4.322,0.32-5.448c0.188-12.009-6.945-26.244-19.125-27.789c-2.209-0.28-3.078-0.068-5.531,0.638
					c-0.064,0.019,0,0-0.067,0c0.235-0.551,0.343-1.18,0.423-1.748c0.266-1.945,0.16-3.609,1.619-5.056
					c0.166-0.167,0.045-0.434-0.178-0.45c-1.271-0.086-1.789,1.373-1.941,2.405c-0.222,1.497,0.012,3.382-0.577,4.854
					c-0.098,0.001-0.198-0.001-0.299,0.003c-0.144-2.796-2.591-4.392-4.84-6.1c-0.256-0.194-0.577,0.219-0.346,0.436
					c1.835,1.732,4.006,3.256,4.602,5.695c-0.27,0.016-0.54,0.035-0.806,0.058c-1.317-2.49-5.057-4.246-7.4-4.522
					c-0.557-0.066-0.802,0.689-0.454,1.045c0.258,0.271,0.534,0.375,0.875,0.529c0.144,0.065,0.321,0.03,0.441-0.063
					c1.966,0.611,4.15,1.564,5.49,3.129c-1.657-0.221-1.301-0.365-3.138-0.328c-13.263,0.286-17.502,12.994-19.517,24.145
					c-0.048,0.036-0.048,0.125-0.01,0.253c-0.222,1.425-0.304,3.479-0.126,6.158l-0.032,1.997c0.16,1.469,0.402,2.846,0.696,4.159
					v0.466c-0.063,0.254-0.126,0.511-0.204,0.756c-0.234,0.756-0.586,1.658-1.258,2.135c-0.817,0.578-1.773-0.524-2.37-0.977
					c-0.206-0.158-0.444,0.128-0.338,0.327c1.041,1.987,3.091,2.007,4.099,0.05c0.132-0.252,0.237-0.536,0.346-0.818l0.091,0.387
					c-0.498,1.492-1.492,2.736-3.213,2.328c-0.408-0.098-0.711,0.488-0.307,0.696c1.804,0.933,3.139,0.182,3.911-1.146
					c0.016-0.039,0.029-0.089,0.046-0.129l0.009,0.018c-0.019,0.036-0.036,0.075-0.055,0.111
					c4.528,12.81,15.757,16.397,24.935,16.354c9.113-0.043,18.239-7.336,22.262-15.478c0.469,1.845,1.891,3.25,3.902,3.321
					c0.396,0.014,0.61-0.596,0.223-0.781c-2.105-1.014-3.085-2.273-3.144-4.661c-0.017-0.698,0.038-1.435,0.147-2.175
					c0.184-0.65,0.331-1.305,0.454-1.957c0.021-0.04,0.04-0.081,0.058-0.12c0.112,3.149,1.427,6.478,4.697,7.178
					C189.082,273.83,189.174,273.508,188.95,273.42z M161.969,239.616c3.022,7.3,8.141,12.515,16.515,10.924
					c0.106-0.021,0.153,0.14,0.044,0.164c-8.476,1.825-13.918-3.587-16.958-10.99C161.53,239.616,161.928,239.519,161.969,239.616z
					 M160.234,239.939c3.889,9.396,10.478,16.104,21.256,14.059c0.137-0.027,0.195,0.181,0.057,0.209
					c-10.908,2.352-17.916-4.611-21.826-14.141C159.668,239.939,160.184,239.813,160.234,239.939z M141.316,250.662
					c0,0.002,0,0.004,0,0.004c-0.002,0-0.004,0-0.004,0S141.314,250.664,141.316,250.662z M175.449,278.998
					c-3.198,2.891-7.695,6.627-13.445,7.046c-5.965,0.433-10.367-0.612-14.847-3.034c-6.95-3.756-11.302-11.366-10.708-17.92
					c0.083-0.926,0.145-1.799,0.183-2.616c0.706,2.935,2.975,5.249,6.154,5.589c0.266,0.029,0.363-0.37,0.141-0.494
					c-2.911-1.629-5.128-3.956-5.087-7.504c0.009-0.607,0.125-1.201,0.27-1.796c0.535,1.571,1.586,3.786,2.963,4.268
					c0.272,0.095,0.517-0.293,0.295-0.489c-0.798-0.703-1.519-2.477-1.984-3.427c-0.449-0.917-0.69-1.756-0.75-2.538
					c0.081-0.463,0.127-0.932,0.098-1.412l0,0c0.3-1.28,1.17-2.393,2.521-3.426c-0.379,4.071,0.343,8.043,2.98,11.565
					c0.059-3.784-0.074-8.833,1.871-12.166c0.375,2.948,0.739,6.529,3.016,8.879c-1.333-3.344-2.068-10.034,0.29-14.193
					c1.08-1.904,0.78-3.263,1.098-4.346c0.399,0.786,0.861,1.549,1.292,2.284c1.403,2.387,3.159,4.681,4.925,6.811
					c0.131,0.154,0.343-0.063,0.224-0.217c-1.716-2.232-3.042-4.396-3.912-7.094c-0.233-0.717-0.363-1.477-0.478-2.239
					c0.339-0.052,0.667-0.093,0.984-0.124c0.877,5.838,5.763,10.988,10.852,13.471c0.427,0.207,0.981-0.355,0.557-0.697
					c-2.763-2.234-5.566-4.346-7.579-7.318c-1.199-1.77-1.712-3.646-2.096-5.578c0.907-0.051,1.635-0.105,2.136-0.328
					c3.181,8.89,6.46,13.838,23.483,17.107c0.499,1.869,0.655,3.812-1.534,4.525c-0.247,0.08-0.317,0.509-0.01,0.56
					c1.803,0.304,2.631-0.923,2.841-2.589c0.068-0.531,0.014-1.09-0.092-1.639l0.703,0.118c0.276,2.601-0.839,5.476-3.243,6.553
					c-0.297,0.134-0.131,0.548,0.145,0.567c1.627,0.129,2.705-0.69,3.398-1.893c-0.07,0.418-0.139,0.85-0.21,1.316
					C182.203,269.068,178.92,275.861,175.449,278.998z M183.135,272.852c0.003,0.004,0.003,0.012,0.003,0.014
					c0-0.002,0-0.005-0.003-0.011C183.135,272.854,183.135,272.853,183.135,272.852z M183.156,272.974
					c0.002,0.002,0.002,0.007,0.004,0.007C183.158,272.98,183.158,272.976,183.156,272.974z M183.139,272.875
					c0.004,0.033,0.008,0.057,0.012,0.074C183.146,272.934,183.142,272.907,183.139,272.875z M183.187,272.577
					c0,0.018-0.002,0.034-0.002,0.052C183.185,272.611,183.187,272.595,183.187,272.577z M183.182,272.744
					c-0.002,0.019-0.002,0.035-0.002,0.05C183.18,272.777,183.18,272.764,183.182,272.744z M183.174,272.875
					c0,0.011-0.001,0.018-0.001,0.029C183.173,272.893,183.174,272.887,183.174,272.875z M183.168,272.956
					c0,0.003-0.001,0.006-0.001,0.009C183.167,272.962,183.168,272.959,183.168,272.956z"/>
			</g>
			<g>
				<path fill="#764191" d="M153.878,259.211c1.066,0,2.295-0.285,3.602-1.129c0.195-0.125,0.252-0.385,0.126-0.578
					c-0.126-0.197-0.388-0.256-0.581-0.129c-3.508,2.263-6.253,0.021-6.37-0.073c-0.178-0.147-0.442-0.126-0.592,0.052
					c-0.149,0.176-0.126,0.439,0.051,0.591C150.135,257.962,151.65,259.211,153.878,259.211z"/>
				<path fill="#764191" d="M170.09,257.697c-0.125-0.197-0.388-0.254-0.582-0.126c-3.504,2.257-6.253,0.021-6.368-0.077
					c-0.179-0.146-0.443-0.122-0.591,0.053c-0.149,0.178-0.128,0.441,0.049,0.592c0.023,0.02,1.537,1.266,3.766,1.266
					c1.065,0,2.295-0.284,3.6-1.125C170.159,258.151,170.216,257.892,170.09,257.697z"/>
				<path fill="#764191" d="M168.127,268.486c-2.277,3.66-4.198,5.944-8.967,5.837c-4.895-0.11-6.424-2.491-8.418-5.962
					c-0.197-0.339-0.722-0.2-0.736,0.189c1,4.234,4.702,8.141,8.95,8.221c4.44,0.084,7.659-2.375,9.815-7.734
					C169.033,268.375,168.46,267.953,168.127,268.486z"/>
			</g>
		</g>
	</g>
	<g>
		<path fill="#FFFFFF" d="M156.203,356.768c0.003-0.006,0.003-0.006,0.003-0.006c-0.005-0.004-0.046-0.012-0.117-0.02
			c-0.007-0.004-0.013-0.008-0.023-0.006c-0.049-0.004-0.121-0.012-0.203-0.019c-0.022-0.004-0.039-0.008-0.065-0.004
			c-1.159-0.118-4.36-0.368-4.36-0.368c0.105,0.15-8.323,10.151-8.167,10.15c0.118,0.002,1.134,0.515,1.543,0.719
			c-1.227,1.502-2.378,3.051-3.426,4.627c-1.314,1.974-2.836,4.363-2.682,6.838c0.102,1.824,1.707,3.604,3.624,3.336
			c1.678-0.232,3-2.089,3.951-3.321c1.909-2.473,3.59-5.127,5.212-7.812c2.343-3.846,5.758-11.469,5.758-11.469
			C157.789,358.269,157.182,357.025,156.203,356.768z"/>
		<path fill="#764191" d="M141.946,382.516L141.946,382.516c-2.282,0-3.936-2.133-4.045-4.123c-0.177-2.838,1.624-5.542,2.816-7.33
			c0.859-1.295,1.812-2.605,2.838-3.902c-0.195-0.096-0.336-0.158-0.421-0.193l-0.595-0.461c-0.243-0.514-0.243-0.514,3.554-5.123
			c1.565-1.898,3.62-4.393,4.363-5.36l0.716-0.815c0,0,3.428,0.242,4.642,0.363l0.043-0.003l0.515,0.07
			c0.053,0.011,0.11,0.028,0.167,0.055c0.632,0.208,1.159,0.683,1.46,1.327c0.353,0.754,0.346,1.629-0.018,2.402
			c-0.135,0.301-3.458,7.703-5.799,11.548c-1.467,2.425-3.239,5.261-5.263,7.883l-0.188,0.246c-1.01,1.317-2.393,3.12-4.291,3.382
			C142.274,382.506,142.109,382.516,141.946,382.516z M144.527,365.84c0.174,0.085,0.375,0.186,0.61,0.301l0.9,0.451l-0.6,0.801
			c-1.235,1.514-2.372,3.049-3.378,4.563c-1.419,2.131-2.682,4.219-2.548,6.343c0.073,1.315,1.235,2.784,2.707,2.585
			c1.245-0.172,2.393-1.673,3.233-2.768l0.191-0.246c1.974-2.561,3.716-5.349,5.16-7.735c2.291-3.761,5.678-11.307,5.712-11.386
			c0.165-0.349,0.17-0.725,0.022-1.043c-0.118-0.252-0.314-0.432-0.54-0.49l-0.281-0.032c-0.891-0.091-2.997-0.261-3.908-0.332
			c-0.598,0.858-1.89,2.43-4.47,5.56C146.309,363.658,145.188,365.02,144.527,365.84z"/>
	</g>
	<g>
		<path fill="#FFFFFF" d="M161.193,356.435c-0.003-0.007-0.003-0.007-0.003-0.007c0.005-0.003,0.044-0.012,0.116-0.019
			c0.007-0.003,0.012-0.007,0.023-0.005c0.049-0.005,0.121-0.013,0.203-0.02c0.021-0.006,0.039-0.008,0.064-0.006
			c1.16-0.116,4.361-0.367,4.361-0.367c-0.105,0.15,8.322,10.15,8.167,10.15c-0.118,0.002-1.134,0.516-1.543,0.719
			c1.227,1.502,2.378,3.051,3.425,4.628c1.314,1.974,2.838,4.364,2.683,6.839c-0.103,1.822-1.706,3.602-3.624,3.334
			c-1.678-0.232-3-2.09-3.952-3.32c-1.908-2.475-3.589-5.129-5.212-7.811c-2.343-3.846-5.757-11.47-5.757-11.47
			C159.607,357.936,160.214,356.69,161.193,356.435z"/>
		<path fill="#764191" d="M175.451,382.516c-0.163,0-0.329-0.01-0.496-0.035c-1.896-0.262-3.279-2.064-4.291-3.382l-0.187-0.244
			c-2.024-2.624-3.797-5.46-5.265-7.886c-2.34-3.844-5.663-11.246-5.804-11.558c-0.357-0.763-0.363-1.638-0.011-2.392
			c0.301-0.645,0.829-1.119,1.462-1.327c0.053-0.026,0.105-0.04,0.158-0.054l0.059-0.036l0.506-0.03
			c1.1-0.113,4.551-0.365,4.551-0.365l0.809,0.815c0.743,0.966,2.795,3.458,4.357,5.356c3.802,4.612,3.802,4.612,3.561,5.125
			l-0.603,0.466c-0.087,0.036-0.226,0.099-0.415,0.19c1.025,1.297,1.979,2.607,2.84,3.902c1.19,1.788,2.992,4.492,2.814,7.333
			C179.387,380.383,177.734,382.516,175.451,382.516z M161.426,357.207l-0.027,0.008c-0.225,0.059-0.422,0.238-0.539,0.49
			c-0.147,0.318-0.143,0.694,0.018,1.033c0.04,0.089,3.427,7.635,5.717,11.393c1.444,2.39,3.188,5.178,5.161,7.738l0.19,0.246
			c0.84,1.095,1.99,2.596,3.232,2.768c1.492,0.198,2.635-1.271,2.709-2.582c0.132-2.127-1.13-4.215-2.549-6.346
			c-1.006-1.514-2.143-3.049-3.379-4.563l-0.637-0.781l0.9-0.45c0.251-0.126,0.463-0.233,0.646-0.321
			c-0.66-0.821-1.784-2.185-2.814-3.436c-2.576-3.125-3.868-4.695-4.465-5.554c-0.912,0.071-3.018,0.241-3.909,0.332l-0.065,0.006
			l-0.013-0.002L161.426,357.207z"/>
	</g>
</g>
</svg>
