<?xml version="1.0" encoding="utf-8"?>
<!DOCTYPE svg PUBLIC "-//W3C//DTD SVG 1.1//EN" "http://www.w3.org/Graphics/SVG/1.1/DTD/svg11.dtd">
<svg version="1.1" id="Layer_1" xmlns="http://www.w3.org/2000/svg" xmlns:xlink="http://www.w3.org/1999/xlink" x="0px" y="0px" width="586px" height="264px">
  <symbol>
	<g id="water">
	  <circle fill="#FF0000" stroke="#000000" cx="0" cy="-2" r="6"/>
	  <circle fill="#FFFFFF" stroke="#000000" cx="-6" cy="4" r="4"/>
	  <circle fill="#FFFFFF" stroke="#000000" cx="6" cy="4" r="4"/>
	</g>
	<g id="hydrogen">
	  <circle fill="#FFFFFF" stroke="#000000" cx="0" cy="0" r="4"/>
	</g>
	<g id="chlorine">
	  <circle fill="#00CC00" stroke="#000000" cx="0" cy="0" r="8"/>
	</g>
	<g id="hcl">
	  <use xlink:href="#chlorine" transform="translate(0,-7),scale(1.5)"/>
	  <use xlink:href="#hydrogen" transform="translate(0,7),scale(1.5)"/>
	</g>
	<g id="crystal">
	  <use xlink:href="#hcl" transform="translate(18,0)"/>
	  <use xlink:href="#hcl" transform="translate(48,0),rotate(180)"/>
	  <use xlink:href="#hcl" transform="translate(78,0)"/>
	  <use xlink:href="#hcl" transform="translate(108,0),rotate(180)"/>
	</g>
  </symbol>
  <g transform="translate(20,24)">
	<use xlink:href="#crystal" transform="translate(0,28)"/>
	<use xlink:href="#crystal" transform="translate(0,68)"/>
	<use xlink:href="#crystal" transform="translate(0,108)"/>
	<use xlink:href="#crystal" transform="translate(0,148)"/>
	<use xlink:href="#crystal" transform="translate(0,188)"/>
	<text font-family="Lucida Grande" font-size="36" fill="#000000" x="194" y="122" text-anchor="middle">→</text>
  </g>
  <g transform="translate(300,24)">
	<use xlink:href="#crystal" transform="translate(-18,28)"/>
	<use xlink:href="#crystal" transform="translate(-18,68)"/>
	<use xlink:href="#hcl" transform="translate(0,108)"/>
	<use xlink:href="#hcl" transform="translate(30,108),rotate(180)"/>
	<use xlink:href="#hcl" transform="translate(60,108)"/>
	<use xlink:href="#crystal" transform="translate(-18,148)"/>
	<use xlink:href="#crystal" transform="translate(-18,188)"/>
	<use xlink:href="#hydrogen" transform="translate(220,40),scale(1.5)"/>
	<text font-family="Lucida Grande" font-size="12" fill="#000000" x="220" y="44" text-anchor="middle">+</text>
	<use xlink:href="#chlorine" transform="translate(220,176),scale(1.5)"/>
	<text font-family="Lucida Grande" font-size="12" fill="#000000" x="220" y="180" text-anchor="middle">-</text>
	<g transform="translate(220,90),rotate(0),scale(1.5)">
	  <use xlink:href="#water"/>
	  <g transform="translate(0,-14),rotate(0)">
		<text font-family="Lucida Grande" font-size="8" fill="#000000" x="0" y="3" text-anchor="middle">δ-</text>
	  </g>
	</g>
	<g transform="translate(220,-10),rotate(180),scale(1.5)">
	  <use xlink:href="#water"/>
	  <g transform="translate(0,-14),rotate(-180)">
		<text font-family="Lucida Grande" font-size="8" fill="#000000" x="0" y="3" text-anchor="middle">δ-</text>
	  </g>
	</g>
	<g transform="translate(177,15),rotate(120),scale(1.5)">
	  <use xlink:href="#water"/>
	  <g transform="translate(0,-14),rotate(-120)">
		<text font-family="Lucida Grande" font-size="8" fill="#000000" x="0" y="3" text-anchor="middle">δ-</text>
	  </g>
	</g>
	<g transform="translate(177,65),rotate(60),scale(1.5)">
	  <use xlink:href="#water"/>
	  <g transform="translate(0,-14),rotate(-60)">
		<text font-family="Lucida Grande" font-size="8" fill="#000000" x="0" y="3" text-anchor="middle">δ-</text>
	  </g>
	</g>
	<g transform="translate(263,15),rotate(-120),scale(1.5)">
	  <use xlink:href="#water"/>
	  <g transform="translate(0,-14),rotate(120)">
		<text font-family="Lucida Grande" font-size="8" fill="#000000" x="0" y="3" text-anchor="middle">δ-</text>
	  </g>
	</g>
	<g transform="translate(263,65),rotate(-60),scale(1.5)">
	  <use xlink:href="#water"/>
	  <g transform="translate(0,-14),rotate(60)">
		<text font-family="Lucida Grande" font-size="8" fill="#000000" x="0" y="3" text-anchor="middle">δ-</text>
	  </g>
	</g>
	<g transform="translate(220,226),rotate(180),scale(1.5)">
	  <use xlink:href="#water"/>
	  <g transform="translate(0,14),rotate(-180)">
		<text font-family="Lucida Grande" font-size="8" fill="#000000" x="0" y="3" text-anchor="middle">δ+</text>
	  </g>
	</g>
	<g transform="translate(220,126),rotate(0),scale(1.5)">
	  <use xlink:href="#water"/>
	  <g transform="translate(0,14),rotate(0)">
		<text font-family="Lucida Grande" font-size="8" fill="#000000" x="0" y="3" text-anchor="middle">δ+</text>
	  </g>
	</g>
	<g transform="translate(177,151),rotate(-60),scale(1.5)">
	  <use xlink:href="#water"/>
	  <g transform="translate(0,14),rotate(60)">
		<text font-family="Lucida Grande" font-size="8" fill="#000000" x="0" y="3" text-anchor="middle">δ+</text>
	  </g>
	</g>
	<g transform="translate(177,201),rotate(-120),scale(1.5)">
	  <use xlink:href="#water"/>
	  <g transform="translate(0,14),rotate(120)">
		<text font-family="Lucida Grande" font-size="8" fill="#000000" x="0" y="3" text-anchor="middle">δ+</text>
	  </g>
	</g>
	<g transform="translate(263,151),rotate(60),scale(1.5)">
	  <use xlink:href="#water"/>
	  <g transform="translate(0,14),rotate(-60)">
		<text font-family="Lucida Grande" font-size="8" fill="#000000" x="0" y="3" text-anchor="middle">δ+</text>
	  </g>
	</g>
	<g transform="translate(263,201),rotate(120),scale(1.5)">
	  <use xlink:href="#water"/>
	  <g transform="translate(0,14),rotate(-120)">
		<text font-family="Lucida Grande" font-size="8" fill="#000000" x="0" y="3" text-anchor="middle">δ+</text>
	  </g>
	</g>
  </g>
</svg>
