<?xml version="1.0" encoding="UTF-8" standalone="no"?>
<!-- Created with Inkscape (http://www.inkscape.org/) -->

<svg
   xmlns:dc="http://purl.org/dc/elements/1.1/"
   xmlns:cc="http://creativecommons.org/ns#"
   xmlns:rdf="http://www.w3.org/1999/02/22-rdf-syntax-ns#"
   xmlns:svg="http://www.w3.org/2000/svg"
   xmlns="http://www.w3.org/2000/svg"
   xmlns:sodipodi="http://sodipodi.sourceforge.net/DTD/sodipodi-0.dtd"
   xmlns:inkscape="http://www.inkscape.org/namespaces/inkscape"
   width="2000mm"
   height="2000mm"
   viewBox="0 0 7086.6142 7086.6141"
   id="svg2"
   version="1.1"
   inkscape:version="0.91 r13725"
   sodipodi:docname="logo.svg"
   inkscape:export-filename="C:\Users\J\Documents\AAAAA\pokey\tucker\games\Horse Pills\logo_16.png"
   inkscape:export-xdpi="0.2032"
   inkscape:export-ydpi="0.2032">
  <defs
     id="defs4">
    <clipPath
       clipPathUnits="userSpaceOnUse"
       id="clipPath4190">
      <rect
         style="opacity:1;fill:#ffffff;fill-opacity:1;fill-rule:nonzero;stroke:none;stroke-width:100;stroke-linecap:butt;stroke-linejoin:bevel;stroke-miterlimit:4;stroke-dasharray:none;stroke-opacity:1"
         id="rect4192"
         width="1987.9802"
         height="1050.5586"
         x="2549.3169"
         y="-3149.8723"
         rx="500"
         ry="500" />
    </clipPath>
    <clipPath
       clipPathUnits="userSpaceOnUse"
       id="clipPath4194">
      <rect
         style="opacity:1;fill:#ffffff;fill-opacity:1;fill-rule:nonzero;stroke:none;stroke-width:100;stroke-linecap:butt;stroke-linejoin:bevel;stroke-miterlimit:4;stroke-dasharray:none;stroke-opacity:1"
         id="rect4196"
         width="1987.9802"
         height="1050.5586"
         x="2549.3169"
         y="-3149.8723"
         rx="500"
         ry="500" />
    </clipPath>
  </defs>
  <sodipodi:namedview
     id="base"
     pagecolor="#ffffff"
     bordercolor="#666666"
     borderopacity="1.0"
     inkscape:pageopacity="0.0"
     inkscape:pageshadow="2"
     inkscape:zoom="0.056568542"
     inkscape:cx="3229.5543"
     inkscape:cy="3934.5421"
     inkscape:document-units="px"
     inkscape:current-layer="layer1"
     showgrid="false"
     inkscape:window-width="1920"
     inkscape:window-height="1031"
     inkscape:window-x="-8"
     inkscape:window-y="-8"
     inkscape:window-maximized="1"
     showguides="false" />
  <metadata
     id="metadata7">
    <rdf:RDF>
      <cc:Work
         rdf:about="">
        <dc:format>image/svg+xml</dc:format>
        <dc:type
           rdf:resource="http://purl.org/dc/dcmitype/StillImage" />
        <dc:title></dc:title>
      </cc:Work>
    </rdf:RDF>
  </metadata>
  <g
     inkscape:label="Layer 1"
     inkscape:groupmode="layer"
     id="layer1"
     transform="translate(0,6034.252)">
    <g
       id="g4200"
       transform="matrix(0.99045963,0.13780322,-0.13780322,0.99045963,-1471.655,-2423.0509)">
      <rect
         style="opacity:1;fill:none;fill-opacity:1;fill-rule:nonzero;stroke:#000000;stroke-width:150;stroke-linecap:butt;stroke-linejoin:bevel;stroke-miterlimit:4;stroke-dasharray:none;stroke-opacity:1"
         id="rect4188"
         width="1987.9802"
         height="1050.5586"
         x="2549.3169"
         y="-3149.8723"
         rx="500"
         ry="500" />
      <path
         clip-path="url(#clipPath4194)"
         style="opacity:1;fill:#9999ff;fill-opacity:1;fill-rule:nonzero;stroke:none;stroke-width:100;stroke-linecap:butt;stroke-linejoin:bevel;stroke-miterlimit:4;stroke-dasharray:none;stroke-opacity:1"
         d="m 5002.2753,-3630.7048 -1458.9683,0 0,1951.6147 1458.9683,0 z"
         id="path4178"
         inkscape:connector-curvature="0"
         sodipodi:nodetypes="ccccc" />
      <path
         clip-path="url(#clipPath4190)"
         sodipodi:nodetypes="ccccc"
         inkscape:connector-curvature="0"
         id="rect4175"
         d="m 2101.1172,-3630.7048 1442.1898,0 0,1951.6147 -1442.1898,0 z"
         style="opacity:1;fill:#99ccff;fill-opacity:1;fill-rule:nonzero;stroke:none;stroke-width:100;stroke-linecap:butt;stroke-linejoin:bevel;stroke-miterlimit:4;stroke-dasharray:none;stroke-opacity:1" />
      <rect
         ry="250"
         rx="250"
         y="-3053.4709"
         x="2730.5671"
         height="368.57208"
         width="1211.429"
         id="rect4198"
         style="opacity:1;fill:#ffffff;fill-opacity:1;fill-rule:nonzero;stroke:none;stroke-width:150;stroke-linecap:butt;stroke-linejoin:bevel;stroke-miterlimit:4;stroke-dasharray:none;stroke-opacity:1" />
    </g>
    <g
       id="g4345"
       transform="translate(-4.4194024,-48.613586)">
      <rect
         transform="matrix(0.92064392,-0.39040334,0.39040334,0.92064392,0,0)"
         ry="500"
         rx="500"
         y="-2291.7983"
         x="2281.4502"
         height="1050.5586"
         width="1987.9802"
         id="rect4208"
         style="opacity:1;fill:none;fill-opacity:1;fill-rule:nonzero;stroke:#000000;stroke-width:150;stroke-linecap:butt;stroke-linejoin:bevel;stroke-miterlimit:4;stroke-dasharray:none;stroke-opacity:1" />
      <path
         transform="matrix(0.92064393,-0.39040334,0.39040334,0.92064393,88.385217,894.55657)"
         sodipodi:nodetypes="ccccc"
         inkscape:connector-curvature="0"
         id="path4210"
         d="m 5002.2753,-3630.7048 -1458.9683,0 0,1951.6147 1458.9683,0 z"
         style="opacity:1;fill:#333333;fill-opacity:1;fill-rule:nonzero;stroke:none;stroke-width:100;stroke-linecap:butt;stroke-linejoin:bevel;stroke-miterlimit:4;stroke-dasharray:none;stroke-opacity:1"
         clip-path="url(#clipPath4194)" />
      <path
         transform="matrix(0.92064393,-0.39040334,0.39040334,0.92064393,88.385217,894.55657)"
         style="opacity:1;fill:#996666;fill-opacity:1;fill-rule:nonzero;stroke:none;stroke-width:100;stroke-linecap:butt;stroke-linejoin:bevel;stroke-miterlimit:4;stroke-dasharray:none;stroke-opacity:1"
         d="m 2101.1172,-3630.7048 1442.1898,0 0,1951.6147 -1442.1898,0 z"
         id="path4212"
         inkscape:connector-curvature="0"
         sodipodi:nodetypes="ccccc"
         clip-path="url(#clipPath4190)" />
      <rect
         transform="matrix(0.92064392,-0.39040334,0.39040334,0.92064392,0,0)"
         style="opacity:1;fill:#ffffff;fill-opacity:1;fill-rule:nonzero;stroke:none;stroke-width:150;stroke-linecap:butt;stroke-linejoin:bevel;stroke-miterlimit:4;stroke-dasharray:none;stroke-opacity:1"
         id="rect4214"
         width="1211.429"
         height="368.57208"
         x="2462.7004"
         y="-2195.397"
         rx="250"
         ry="250" />
    </g>
    <g
       id="g4273"
       transform="translate(-13.028124,137.95277)">
      <rect
         transform="matrix(0.99496328,-0.10024002,0.10024002,0.99496328,0,0)"
         ry="500"
         rx="500"
         y="-4119.8882"
         x="4064.0449"
         height="1050.5586"
         width="1987.9802"
         id="rect4228"
         style="opacity:1;fill:none;fill-opacity:1;fill-rule:nonzero;stroke:#000000;stroke-width:150;stroke-linecap:butt;stroke-linejoin:bevel;stroke-miterlimit:4;stroke-dasharray:none;stroke-opacity:1" />
      <path
         transform="matrix(0.99496328,-0.10024002,0.10024002,0.99496328,1409.8644,-1116.9667)"
         sodipodi:nodetypes="ccccc"
         inkscape:connector-curvature="0"
         id="path4230"
         d="m 5002.2753,-3630.7048 -1458.9683,0 0,1951.6147 1458.9683,0 z"
         style="opacity:1;fill:#ff6600;fill-opacity:1;fill-rule:nonzero;stroke:none;stroke-width:100;stroke-linecap:butt;stroke-linejoin:bevel;stroke-miterlimit:4;stroke-dasharray:none;stroke-opacity:1"
         clip-path="url(#clipPath4194)" />
      <path
         transform="matrix(0.99496328,-0.10024002,0.10024002,0.99496328,1409.8644,-1116.9667)"
         style="opacity:1;fill:#dddddd;fill-opacity:1;fill-rule:nonzero;stroke:none;stroke-width:100;stroke-linecap:butt;stroke-linejoin:bevel;stroke-miterlimit:4;stroke-dasharray:none;stroke-opacity:1"
         d="m 2101.1172,-3630.7048 1442.1898,0 0,1951.6147 -1442.1898,0 z"
         id="path4232"
         inkscape:connector-curvature="0"
         sodipodi:nodetypes="ccccc"
         clip-path="url(#clipPath4190)" />
      <rect
         transform="matrix(0.99496328,-0.10024002,0.10024002,0.99496328,0,0)"
         style="opacity:1;fill:#ffffff;fill-opacity:1;fill-rule:nonzero;stroke:none;stroke-width:150;stroke-linecap:butt;stroke-linejoin:bevel;stroke-miterlimit:4;stroke-dasharray:none;stroke-opacity:1"
         id="rect4234"
         width="1211.429"
         height="368.57208"
         x="4245.2954"
         y="-4023.4871"
         rx="250"
         ry="250" />
    </g>
    <g
       id="g4252"
       transform="translate(-649.42424,-763.60837)">
      <path
         id="path4247"
         transform="translate(0,-6034.252)"
         d="m 4653.8125,3674.1152 c -150.1953,0 -294.2393,36.8741 -400.4434,102.5118 -106.2041,65.6378 -165.8691,154.6624 -165.8691,247.4882 0,0 0,100.9242 0,193.75 0,92.8258 59.665,181.8486 165.8691,247.4864 106.2041,65.6377 250.2481,102.5136 400.4434,102.5136 150.1953,0 294.2393,-36.8759 400.4434,-102.5136 106.2041,-65.6378 165.8671,-154.6606 165.8671,-247.4864 0,-92.8258 0,-193.75 0,-193.75 0,-92.8258 -59.663,-181.8504 -165.8671,-247.4882 -106.2041,-65.6377 -250.2481,-102.5118 -400.4434,-102.5118 z"
         style="opacity:1;fill:#9966ff;fill-opacity:1;fill-rule:nonzero;stroke:#000000;stroke-width:150;stroke-linecap:butt;stroke-linejoin:bevel;stroke-miterlimit:4;stroke-dasharray:none;stroke-opacity:1"
         inkscape:connector-curvature="0" />
      <path
         sodipodi:nodetypes="sssssccs"
         inkscape:connector-curvature="0"
         style="opacity:1;fill:#9966ff;fill-opacity:1;fill-rule:nonzero;stroke:none;stroke-width:150;stroke-linecap:butt;stroke-linejoin:bevel;stroke-miterlimit:4;stroke-dasharray:none;stroke-opacity:1"
         d="m 5220.1239,-1816.3877 c 0,92.8258 -59.6648,181.8496 -165.8689,247.4874 -106.2041,65.6377 -250.2477,102.5126 -400.443,102.5126 -150.1953,0 -294.2389,-36.8749 -400.443,-102.5126 -106.2041,-65.6378 -165.8689,-154.6616 -165.8689,-247.4874 0,-92.8258 -1e-4,-193.75 -1e-4,-193.75 l 1132.624,0 c 0,0 -1e-4,100.9242 -1e-4,193.75 z"
         id="path4245" />
      <path
         sodipodi:nodetypes="sssssssss"
         inkscape:connector-curvature="0"
         id="path4242"
         d="m 5220.124,-2010.1377 c 0,92.8258 -59.6649,181.8496 -165.869,247.4874 -106.2041,65.6377 -250.2477,102.5126 -400.443,102.5126 -150.1953,0 -294.2389,-36.8749 -400.443,-102.5126 -106.2041,-65.6378 -165.869,-154.6616 -165.869,-247.4874 0,-92.8258 59.6649,-181.8496 165.869,-247.4874 106.2041,-65.6377 250.2477,-102.5126 400.443,-102.5126 150.1953,0 294.2389,36.8749 400.443,102.5126 106.2041,65.6378 165.869,154.6616 165.869,247.4874 z"
         style="opacity:1;fill:#cc99ff;fill-opacity:1;fill-rule:nonzero;stroke:none;stroke-width:150;stroke-linecap:butt;stroke-linejoin:bevel;stroke-miterlimit:4;stroke-dasharray:none;stroke-opacity:1" />
    </g>
    <g
       id="g4268"
       transform="translate(559.09127,-497.2948)">
      <path
         style="opacity:1;fill:#9966ff;fill-opacity:1;fill-rule:nonzero;stroke:#000000;stroke-width:150;stroke-linecap:butt;stroke-linejoin:bevel;stroke-miterlimit:4;stroke-dasharray:none;stroke-opacity:1"
         d="m 2228.8125,-1735.1368 c -150.1953,0 -294.2393,36.8741 -400.4434,102.5118 -106.2041,65.6378 -165.8691,154.6624 -165.8691,247.4882 0,0 0,100.9242 0,193.75 0,92.8258 59.665,181.8486 165.8691,247.4864 106.2041,65.6377 250.2481,102.5136 400.4434,102.5136 150.1953,0 294.2393,-36.8759 400.4434,-102.5136 106.2041,-65.6378 165.8671,-154.6606 165.8671,-247.4864 0,-92.8258 0,-193.75 0,-193.75 0,-92.8258 -59.663,-181.8504 -165.8671,-247.4882 -106.2041,-65.6377 -250.2481,-102.5118 -400.4434,-102.5118 z"
         id="path4259"
         inkscape:connector-curvature="0" />
      <path
         id="path4261"
         d="m 2795.1239,-1191.3877 c 0,92.8258 -59.6648,181.8496 -165.8689,247.4874 -106.2041,65.6377 -250.2477,102.5126 -400.443,102.5126 -150.1953,0 -294.2389,-36.8749 -400.443,-102.5126 -106.2041,-65.6378 -165.8689,-154.6616 -165.8689,-247.4874 0,-92.8258 -10e-5,-193.75 -10e-5,-193.75 l 1132.624,0 c 0,0 -10e-5,100.9242 -10e-5,193.75 z"
         style="opacity:1;fill:#9999cc;fill-opacity:1;fill-rule:nonzero;stroke:none;stroke-width:150;stroke-linecap:butt;stroke-linejoin:bevel;stroke-miterlimit:4;stroke-dasharray:none;stroke-opacity:1"
         inkscape:connector-curvature="0"
         sodipodi:nodetypes="sssssccs" />
      <path
         style="opacity:1;fill:#ffccff;fill-opacity:1;fill-rule:nonzero;stroke:none;stroke-width:150;stroke-linecap:butt;stroke-linejoin:bevel;stroke-miterlimit:4;stroke-dasharray:none;stroke-opacity:1"
         d="m 2795.124,-1385.1377 c 0,92.8258 -59.6649,181.8496 -165.869,247.4874 -106.2041,65.6377 -250.2477,102.5126 -400.443,102.5126 -150.1953,0 -294.2389,-36.8749 -400.443,-102.5126 -106.2041,-65.6378 -165.869,-154.6616 -165.869,-247.4874 0,-92.8258 59.6649,-181.8496 165.869,-247.4874 106.2041,-65.6377 250.2477,-102.5126 400.443,-102.5126 150.1953,0 294.2389,36.8749 400.443,102.5126 106.2041,65.6378 165.869,154.6616 165.869,247.4874 z"
         id="path4263"
         inkscape:connector-curvature="0"
         sodipodi:nodetypes="sssssssss" />
    </g>
    <g
       id="g4299"
       transform="translate(61.971876,175.45277)">
      <rect
         style="opacity:1;fill:none;fill-opacity:1;fill-rule:nonzero;stroke:#000000;stroke-width:150;stroke-linecap:butt;stroke-linejoin:bevel;stroke-miterlimit:4;stroke-dasharray:none;stroke-opacity:1"
         id="rect4281"
         width="1987.9802"
         height="1050.5586"
         x="3144.1433"
         y="-2973.9714"
         rx="500"
         ry="500"
         transform="matrix(0.95174899,0.30687761,-0.30687761,0.95174899,0,0)" />
      <path
         clip-path="url(#clipPath4194)"
         style="opacity:1;fill:#66cc66;fill-opacity:1;fill-rule:nonzero;stroke:none;stroke-width:100;stroke-linecap:butt;stroke-linejoin:bevel;stroke-miterlimit:4;stroke-dasharray:none;stroke-opacity:1"
         d="m 5002.2753,-3630.7048 -1458.9683,0 0,1951.6147 1458.9683,0 z"
         id="path4283"
         inkscape:connector-curvature="0"
         sodipodi:nodetypes="ccccc"
         transform="matrix(0.95174898,0.30687761,-0.30687761,0.95174898,512.14561,349.95215)" />
      <path
         clip-path="url(#clipPath4190)"
         sodipodi:nodetypes="ccccc"
         inkscape:connector-curvature="0"
         id="path4285"
         d="m 2101.1172,-3630.7048 1442.1898,0 0,1951.6147 -1442.1898,0 z"
         style="opacity:1;fill:#ffcc66;fill-opacity:1;fill-rule:nonzero;stroke:none;stroke-width:100;stroke-linecap:butt;stroke-linejoin:bevel;stroke-miterlimit:4;stroke-dasharray:none;stroke-opacity:1"
         transform="matrix(0.95174898,0.30687761,-0.30687761,0.95174898,512.14561,349.95215)" />
      <rect
         ry="250"
         rx="250"
         y="-2877.5703"
         x="3325.3938"
         height="368.57208"
         width="1211.429"
         id="rect4287"
         style="opacity:1;fill:#ffffff;fill-opacity:1;fill-rule:nonzero;stroke:none;stroke-width:150;stroke-linecap:butt;stroke-linejoin:bevel;stroke-miterlimit:4;stroke-dasharray:none;stroke-opacity:1"
         transform="matrix(0.95174899,0.30687761,-0.30687761,0.95174899,0,0)" />
    </g>
    <g
       id="g4319"
       transform="translate(-33.080567,-196.27157)">
      <g
         id="g4351"
         transform="translate(159.09903,8.8388348)">
        <rect
           transform="matrix(0.96993518,-0.2433634,0.2433634,0.96993518,0,0)"
           ry="500"
           rx="500"
           y="-227.25473"
           x="1474.9993"
           height="1050.5586"
           width="1987.9802"
           id="rect4307"
           style="opacity:1;fill:none;fill-opacity:1;fill-rule:nonzero;stroke:#000000;stroke-width:150;stroke-linecap:butt;stroke-linejoin:bevel;stroke-miterlimit:4;stroke-dasharray:none;stroke-opacity:1" />
        <path
           transform="matrix(0.96993518,-0.2433634,0.2433634,0.96993518,-330.76034,3096.199)"
           sodipodi:nodetypes="ccccc"
           inkscape:connector-curvature="0"
           id="path4309"
           d="m 5002.2753,-3630.7048 -1458.9683,0 0,1951.6147 1458.9683,0 z"
           style="opacity:1;fill:#ffcccc;fill-opacity:1;fill-rule:nonzero;stroke:none;stroke-width:100;stroke-linecap:butt;stroke-linejoin:bevel;stroke-miterlimit:4;stroke-dasharray:none;stroke-opacity:1"
           clip-path="url(#clipPath4194)" />
        <path
           transform="matrix(0.96993518,-0.2433634,0.2433634,0.96993518,-330.76034,3096.199)"
           style="opacity:1;fill:#ff99cc;fill-opacity:1;fill-rule:nonzero;stroke:none;stroke-width:100;stroke-linecap:butt;stroke-linejoin:bevel;stroke-miterlimit:4;stroke-dasharray:none;stroke-opacity:1"
           d="m 2101.1172,-3630.7048 1442.1898,0 0,1951.6147 -1442.1898,0 z"
           id="path4311"
           inkscape:connector-curvature="0"
           sodipodi:nodetypes="ccccc"
           clip-path="url(#clipPath4190)" />
        <rect
           transform="matrix(0.96993518,-0.2433634,0.2433634,0.96993518,0,0)"
           style="opacity:1;fill:#ffffff;fill-opacity:1;fill-rule:nonzero;stroke:none;stroke-width:150;stroke-linecap:butt;stroke-linejoin:bevel;stroke-miterlimit:4;stroke-dasharray:none;stroke-opacity:1"
           id="rect4313"
           width="1211.429"
           height="368.57208"
           x="1656.2498"
           y="-130.85361"
           rx="250"
           ry="250" />
      </g>
    </g>
    <g
       id="g4336"
       transform="translate(-234.22911,-101.64659)">
      <path
         inkscape:connector-curvature="0"
         id="path4327"
         d="m 5295.3176,-2264.1084 c -113.31,0 -221.9794,27.8185 -302.1017,77.3367 -80.1223,49.5184 -125.1346,116.6801 -125.1346,186.7096 0,0 0,76.139 0,146.1685 0,70.0294 45.0123,137.1898 125.1346,186.7082 80.1223,49.5182 188.7917,77.3381 302.1017,77.3381 113.31,0 221.9794,-27.8199 302.1017,-77.3381 80.1223,-49.5184 125.1331,-116.6788 125.1331,-186.7082 0,-70.0295 0,-146.1685 0,-146.1685 0,-70.0295 -45.0108,-137.1912 -125.1331,-186.7096 -80.1223,-49.5182 -188.7917,-77.3367 -302.1017,-77.3367 z"
         style="opacity:1;fill:#9966ff;fill-opacity:1;fill-rule:nonzero;stroke:#000000;stroke-width:150;stroke-linecap:butt;stroke-linejoin:bevel;stroke-miterlimit:4;stroke-dasharray:none;stroke-opacity:1" />
      <path
         sodipodi:nodetypes="sssssccs"
         inkscape:connector-curvature="0"
         style="opacity:1;fill:#66cc99;fill-opacity:1;fill-rule:nonzero;stroke:none;stroke-width:150;stroke-linecap:butt;stroke-linejoin:bevel;stroke-miterlimit:4;stroke-dasharray:none;stroke-opacity:1"
         d="m 5722.5531,-1853.8943 c 0,70.0294 -45.0122,137.1906 -125.1345,186.7089 -80.1223,49.5183 -188.7913,77.3374 -302.1014,77.3374 -113.31,0 -221.9791,-27.8191 -302.1014,-77.3374 -80.1223,-49.5183 -125.1345,-116.6795 -125.1345,-186.7089 0,-70.0295 0,-146.1685 0,-146.1685 l 854.4719,0 c 0,0 -1e-4,76.139 -1e-4,146.1685 z"
         id="path4329" />
      <path
         sodipodi:nodetypes="sssssssss"
         inkscape:connector-curvature="0"
         id="path4331"
         d="m 5722.5532,-2000.0628 c 0,70.0295 -45.0123,137.1906 -125.1346,186.709 -80.1223,49.5182 -188.7913,77.3373 -302.1014,77.3373 -113.31,0 -221.9791,-27.8191 -302.1014,-77.3373 -80.1223,-49.5184 -125.1345,-116.6795 -125.1345,-186.709 0,-70.0295 45.0122,-137.1906 125.1345,-186.7089 80.1223,-49.5183 188.7914,-77.3374 302.1014,-77.3374 113.3101,0 221.9791,27.8191 302.1014,77.3374 80.1223,49.5183 125.1346,116.6794 125.1346,186.7089 z"
         style="opacity:1;fill:#99ff99;fill-opacity:1;fill-rule:nonzero;stroke:none;stroke-width:150;stroke-linecap:butt;stroke-linejoin:bevel;stroke-miterlimit:4;stroke-dasharray:none;stroke-opacity:1" />
    </g>
  </g>
</svg>
