<?xml version="1.0" encoding="utf-8"?><!DOCTYPE svg PUBLIC "-//W3C//DTD SVG 1.1//EN" "http://www.w3.org/Graphics/SVG/1.1/DTD/svg11.dtd"><svg version="1.1" id="l" xmlns="http://www.w3.org/2000/svg" xmlns:xlink="http://www.w3.org/1999/xlink" x="0px" y="0px" width="350px" height="350px" viewBox="0 0 350 350" enable-background="new 0 0 350 350" xml:space="preserve"><g fill="#607483"><path d="M323.961,266.891C340.473,240.182,350,208.703,350,174.999C350,78.349,271.65,0,175.001,0C78.351,0,0,78.349,0,174.999c0,71.166,42.479,132.408,103.463,159.757C103.463,334.756,159.703,259.9,323.961,266.891z"/><path d="M127.844,342.58c-0.853,0.652-1.713,1.188-2.587,1.609c-0.875,0.422-1.808,0.727-2.799,0.912l-0.69-2.584c0.723-0.07,1.473-0.248,2.251-0.539c0.779-0.291,1.546-0.728,2.302-1.308c0.871-0.668,1.423-1.335,1.664-2.009c0.239-0.674,0.106-1.344-0.395-2.014c-0.357-0.477-0.904-0.676-1.637-0.602c-0.733,0.075-1.634,0.234-2.699,0.477c-0.591,0.127-1.229,0.297-1.918,0.515c-0.687,0.215-1.365,0.358-2.037,0.437c-0.671,0.08-1.32,0.03-1.941-0.146c-0.623-0.173-1.178-0.587-1.667-1.236c-0.765-1.018-0.933-2.165-0.511-3.442c0.426-1.279,1.374-2.485,2.849-3.614c0.791-0.61,1.594-1.118,2.406-1.526c0.809-0.41,1.59-0.644,2.353-0.701l0.851,2.496c-0.7,0.062-1.363,0.221-1.99,0.478s-1.335,0.688-2.129,1.3c-0.662,0.507-1.178,1.04-1.546,1.6c-0.369,0.557-0.379,1.067-0.035,1.526c0.213,0.286,0.521,0.457,0.921,0.515c0.4,0.057,0.868,0.045,1.405-0.031c0.54-0.076,1.121-0.193,1.749-0.349c0.626-0.157,1.275-0.306,1.943-0.444c1.311-0.279,2.496-0.363,3.561-0.258c1.063,0.107,1.864,0.521,2.399,1.23c1.047,1.398,1.344,2.74,0.883,4.033C130.34,340.191,129.354,341.417,127.844,342.58z"/><path d="M154.876,325.171c-1.788,1.007-3.47,1.261-5.04,0.765c-1.566-0.492-2.884-1.707-3.949-3.648l-5.045-8.42l2.585-1.458l5.172,9.054c0.674,1.232,1.438,1.932,2.296,2.104c0.856,0.17,1.789-0.025,2.794-0.59c0.967-0.545,1.582-1.217,1.841-2.012c0.259-0.799,0.053-1.812-0.621-3.045l-4.925-9.217l2.658-1.389l4.375,8.69c1.064,1.94,1.419,3.702,1.067,5.286C157.735,322.875,156.664,324.169,154.876,325.171z"/><polygon points="229.471,279.18 232.787,295.68 235.63,295.146 234.104,287.868 238.641,287.055 238.193,284.652 233.581,285.391 232.751,281.211 240.133,279.869 239.641,277.302"/><polygon points="209.295,284.225 213.786,300.363 216.514,299.557 214.552,292.502 219.087,291.346 218.491,288.951 213.93,290.143 212.87,285.852 219.943,283.911 219.396,281.459"/><path d="M249.637,286.029l-3.355,0.564l1,6.424l-2.666,0.363l-2.629-16.41l6.57-0.965c1.791-0.361,3.301-0.191,4.531,0.514c1.232,0.701,1.989,1.852,2.275,3.442c0.268,1.617-0.086,2.942-1.055,3.974c-0.479,0.549-1.084,0.982-1.813,1.309l4.17,6.455l-2.873,0.422L249.637,286.029z M245.045,279.091l0.836,5.084l4.12-0.696c1.914-0.322,2.765-1.306,2.539-2.947c-0.333-1.746-1.46-2.457-3.377-2.135L245.045,279.091z"/><path d="M258.137,291.609l3.897-17.25l4.039-0.42l6.61,16.4l-2.883,0.188l-1.154-2.955l-6.932,0.568l-0.727,3.168L258.137,291.609z M264.146,276.777l-1.842,8.515l5.239-0.481L264.146,276.777z"/><path d="M276.503,277.578l0.513,12.596l-2.724-0.035l-0.825-16.507l3.54-0.22l7.293,11.68l-0.231-11.783l2.908-0.098l0.113,16.732h-3.156L276.503,277.578z"/><path d="M301.317,277.682c-0.5-0.591-1.053-1.024-1.656-1.303c-0.604-0.277-1.295-0.421-2.076-0.429c-1.44-0.019-2.591,0.491-3.451,1.522c-0.856,1.026-1.296,2.418-1.313,4.172c-0.006,0.826,0.105,1.594,0.341,2.303c0.231,0.707,0.562,1.318,0.978,1.839c0.418,0.519,0.924,0.928,1.519,1.226c0.591,0.301,1.229,0.45,1.917,0.456c0.669,0.007,1.333-0.131,1.999-0.417c0.668-0.285,1.221-0.625,1.658-1.025l2.429,1.477c-1.419,1.881-3.492,2.809-6.215,2.78c-1.121-0.015-2.153-0.239-3.086-0.685c-0.938-0.443-1.743-1.051-2.424-1.822c-0.679-0.772-1.205-1.688-1.569-2.738c-0.369-1.053-0.546-2.191-0.532-3.423c0.012-1.228,0.201-2.362,0.566-3.396s0.883-1.928,1.558-2.677c0.672-0.748,1.483-1.334,2.44-1.757c0.953-0.426,2.027-0.631,3.218-0.617c2.91,0.03,5.292,1.178,6.601,3.208L301.317,277.682z"/><path d="M307.26,273.83l10.547,0.865l-0.276,2.594l-7.439-0.854l-0.387,4.582l4.577,0.322l-0.371,2.45l-4.518-0.506l-0.273,4.995l7.214,0.638l-0.271,2.411l-9.92-0.809L307.26,273.83z"/><polygon points="169.188,299.066 171.816,297.762 174.483,304.16 181.271,301.284 178.557,294.9 181.307,293.842 187.507,309.352 184.952,310.523 182.259,303.631 175.607,306.411 178.479,313.143 175.924,314.314"/><polygon points="154.791,306.057 155.877,308.264 160.417,305.969 166.694,318.775 169.514,317.361 163.336,304.525 167.781,302.371 166.771,300.143"/><path d="M208.829,293.003c1.569,5.306-0.709,9.289-5.017,10.588c-4.399,1.324-8.185-1.241-9.559-5.89c-1.438-4.86,0.562-9.192,4.961-10.518C203.777,285.809,207.498,288.496,208.829,293.003z M197.251,296.745c0.952,3.219,3.308,5.297,6.039,4.472c2.756-0.83,3.543-3.88,2.565-7.189c-0.883-2.98-3.174-5.359-6.021-4.5C197.008,290.377,196.285,293.482,197.251,296.745z"/><path d="M142.703,321.896c3.084,4.606,2.028,9.152-1.798,11.758c-3.907,2.656-8.355,1.383-11.057-2.652c-2.824-4.217-2.14-9.01,1.767-11.67C135.667,316.572,140.083,317.984,142.703,321.896z M132.498,329.143c1.869,2.793,4.774,4.049,7.2,2.396c2.446-1.668,2.323-4.846,0.402-7.721c-1.733-2.59-4.667-4.149-7.195-2.428C130.394,323.096,130.6,326.311,132.498,329.143z"/></g><g fill="#FFFFFF"><path d="M96.029,205.076c9.028,11.84-2.904,31.031-19.688,30.881c-11.417-0.1-22.992-8.311-22.872-21.559c0.189-21.121,21.105-36.234,38.519-29.799c1.136,0.582,2.387,1.164,3.753,1.633l3.594-6.133c-0.114,0-0.227-0.002-0.227-0.117c-1.25-0.695-7.382-4.52-7.31-12.511c0.156-17.354,20.363-17.059,20.251-4.614c-0.05,5.708-4.068,8.185-4.183,8.183l6.334,6.793c0,0,7.011-4.959,7.093-14.322c0.098-10.961-8.752-17.208-19.144-17.301c-11.643-0.103-20.173,8.842-20.283,20.83c-0.027,3.083,0.745,6.287,2.201,9.269c-20.658-0.871-40.443,15.281-40.649,38.23c-0.168,18.84,14.229,30.273,32.042,30.432c24.663,0.221,42.263-27.139,27.576-44.74L96.029,205.076z"/><path d="M317.503,182.42l-0.465,0.742c-4.944,8.051-10.076,14.498-14.189,14.705c-2.059,0.104-3.545-1.258-2.229-5l11.968-35.488l-9.301,0.468l-10,29.471c-5.605,6.738-10.252,10.559-12.225,9.854c-2.549-0.859-1.014-4.434-0.297-6.443l10.979-32.299l-9.303,0.468l-0.432,1.255c-1.255-0.672-2.738-1.02-4.415-0.936c-2.997,0.151-5.86,1.945-8.55,4.696c-1.756-3.233-5.146-5.337-9.273-5.129c-2.235,0.114-2.078,0.012-2.078,0.012c-4.414-0.223-10.123,2.961-12.84,8.827l-8.762,18.905c-0.005-0.002-0.011-0.004-0.016-0.006l-0.463,0.739c-4.944,8.054-10.074,14.498-14.191,14.707c-2.059,0.104-3.545-1.258-2.229-5l23.289-68.447l-9.305,0.469l-20.086,58.691c-0.001-0.002-0.003-0.002-0.004-0.002l-0.464,0.739c-4.944,8.052-12.134,14.603-18.663,14.933c-5.725,0.287-9.936-3.088-7.348-10.75l0.531-1.642c6.562,2.181,17.566,0.459,21.808-11.86l0.815-2.373c3.062-8.764-3.229-14.903-10.832-14.521c-7.513,0.378-12.615,4.582-15.011,11.519l-5.508,15.784l-0.412,0.657c-4.944,8.051-10.075,14.498-14.189,14.703c-2.059,0.104-3.545-1.257-2.231-5l12.06-35.492l7.604-0.382l1.67-4.569l-7.693,0.388l5.318-15.514l-9.303,0.469l-5.319,15.514l-8.408,0.423l-1.67,4.567l8.499-0.427l-8.847,25.74c-0.005-0.001-0.011-0.003-0.016-0.004l-0.465,0.739c-2.486,4.162-5.79,7.914-8.89,10.584c0.946-8.928-2.763-22.372,0.264-34.45l-7.827-3.373c-2.652,5.425-20.606,35.899-26.782,46.076c1.069,1.11,3.646,3.168,5.188,3.987c3.9-6.295,18.401-31.969,20.72-36.479c-1.479,9.76,4.425,26.861-4.431,27.307c-3.131,0.156-5.155-3.147-5.155-3.147l-5.126,3.307c0,0,3.405,7.361,11.9,6.935c0.896-0.043,1.682-0.176,2.555-0.308c0.09-0.004,0.16-0.1,0.248-0.104c5.538-1.034,10.522-4.323,14.737-8.608c0.599,4.599,4.349,7.916,9.923,7.638c5.535-0.279,10.702-4.818,15.278-10.785c1.759,5.722,7.408,9.643,14.865,9.266c6.729-0.339,12.658-3.995,17.543-8.994c0.609,4.586,4.354,7.893,9.92,7.613c5.392-0.272,10.437-4.586,14.924-10.324c0.005,0.021,0.007,0.044,0.012,0.064c1.439,6.295,6.991,9.602,12.986,9.301c0,0,8.877-0.342,13.865-9.396l1.918-4.67l5.34-15.426c0.969-2.919,1.422-5.545,1.39-7.863c2.115-2.674,4.146-4.359,5.961-4.451c1.798-0.089,3.104,1.28,1.981,5.012l0.316-0.09l-7.289,21.171c-2.875,8.396,0.59,14.053,6.762,13.74c5.099-0.256,9.771-5.156,13.27-9.638c0.24,5.013,4.084,8.765,9.989,8.468c7.693-0.39,14.684-8.99,20.348-18.244C320.812,184.227,318.876,182.891,317.503,182.42z M192.415,175.627c3.28-9.401,13.106-8.371,9.751,1.484l-0.812,2.373c-2.75,7.76-8.785,7.885-12.557,6.82L192.415,175.627z M255.254,190.846l-1.648,4.658c-1.189,3.109-3.728,4.672-6.054,4.789c-2.057,0.104-4.04-1.053-4.567-3.357c-0.305-1.33-0.111-2.862,0.517-4.869l2.011-5.84c0,0,6.936-21.916,11.665-21.393c2.048,0.226,3.833,1.331,4.401,3.813c0.345,1.508,0.234,3.397-0.531,5.588l-1.021,2.933c-0.028,0.053-0.059,0.105-0.086,0.158c0.006,0.009,0.015,0.02,0.021,0.027L255.254,190.846z"/><path d="M113.025,108.607l-2.272,7.092c-6.6,20.724,18.537,28.367,27.131,12.065h2.119c2.989,0,6.63-0.967,9.906-2.714c-0.527,6.041,3.831,11.095,10.631,11.095c5.7,0,10.858-4.394,15.351-10.284c2.033,5.965,8.012,10.284,15.69,10.284c6.928,0,12.903-3.448,17.754-8.329c0.804,4.74,4.792,8.329,10.522,8.329c1.057,0,1.039-0.019,2.074-0.226l2.571-6.148c-0.354,0.083-3,0.48-3.346,0.48c-2.119,0-3.705-1.474-2.49-5.25l15.865-51.026h-9.578l-12.925,41.178c-0.004-0.002-0.01-0.005-0.016-0.007l-0.449,0.737c-4.795,8.012-11.961,14.368-18.686,14.368c-5.895,0-10.367-3.683-7.986-11.42l0.483-1.658c6.851,2.578,18.142,1.382,22.045-11.052l0.749-2.395c2.826-8.842-3.896-15.472-11.727-15.472c-7.736,0-12.838,4.051-15.045,11.051l-5.086,15.933l-0.396,0.646c-4.793,8.012-9.841,14.368-14.078,14.368c-2.118,0-3.704-1.474-2.49-5.25l11.09-35.828h7.827l1.549-4.605h-7.92l4.896-15.658h-9.58l-4.895,15.658h-8.658l-1.549,4.605h8.751l-8.146,25.979c-0.004-0.002-0.01-0.005-0.014-0.006l-0.451,0.737c-3.089,4.697-7.825,6.999-12.589,7.091l4.92-15.565c3.155-10.039-4.69-19.525-13.717-19.525c-7.369,0-12.302,2.947-15.3,12.526L113.025,108.607z M190.229,101.7c3.023-9.487,13.201-7.923,10.114,2.025l-0.75,2.395c-2.54,7.829-8.761,7.643-12.692,6.354L190.229,101.7z M118.842,121.225l3.948-12.618l2.54-7.829c3.711-11.42,14.113-6.907,10.934,3.039l-3.842,11.974h-0.46c-3.132,0-4.939,2.578-4.114,5.709c0.315,1.197,0.976,2.303,1.771,3.223l-0.043,0.186C127.106,132.645,115.754,131.172,118.842,121.225z"/><polygon points="135.86,77.866 138.413,84.21 142.707,84.21 138.9,75.205 134.268,75.205 125.862,83.782 130.073,83.782"/><polygon points="81.358,90.665 97.157,90.679 81.161,137.183 92.292,137.064 120.276,57.229 109.635,57.229 99.533,84.568 83.637,84.549 93.827,57.229 83.051,57.229 54.773,137.183 65.575,137.183"/><polygon points="133.047,257.564 135.428,270.158 124.663,275.801 136.623,277.756 139.149,290.104 144.334,279.092 156.529,281.154 147.454,272.4 152.802,261.049 142.053,266.686"/><polygon points="187.23,235.133 186.861,247.945 175.143,251.156 186.407,255.623 186.234,268.225 193.654,258.576 205.125,263.199 198.132,252.707 205.782,242.76 194.077,245.967"/><polygon points="242.334,223.418 239.979,236.018 227.896,237.363 238.331,243.529 236.197,255.951 245.027,247.576 255.641,253.928 250.365,242.477 259.471,233.844 247.41,235.188"/></g></svg>