<svg xmlns="http://www.w3.org/2000/svg" viewBox="0 0 1431.3 1137.7"><path fill="#F9FAFB" d="M0 0h1431.3v1137.7H0z"/><g fill="#3D3D3D"><path d="M239.3 128.5v-20.7H213v20.7h-5.6v-45h5.6v19.4h26.3V83.5h5.6v45.1h-5.6zM253.4 112.2c0-9.5 6.2-17.1 16.1-17.1 9.9 0 16.1 7.6 16.1 17.1s-6.2 17.2-16.1 17.2c-9.9 0-16.1-7.7-16.1-17.2zm27 0c0-6.6-3.9-12.6-10.8-12.6-7 0-10.9 5.9-10.9 12.6 0 6.7 3.9 12.6 10.9 12.6 6.9 0 10.8-5.9 10.8-12.6zM322.2 128.5l-8.5-26.2-8.5 26.2h-5.1l-10.4-32.6h5.3l8 26 8.6-26h4.3l8.6 26 8-26h5.3l-10.4 32.6h-5.2zM399.7 128.5v-37l-15.3 37.1H382l-15.3-37.1v37.1h-5.6V83.5h8l14 33.9 14.1-33.9h8v45.1h-5.5zM436 128.5v-3.7c-2.7 3-6.4 4.5-10.8 4.5-5.5 0-11.4-3.7-11.4-10.8 0-7.3 5.9-10.7 11.4-10.7 4.5 0 8.2 1.4 10.8 4.5v-5.9c0-4.4-3.5-6.9-8.2-6.9-3.9 0-7.1 1.4-10 4.5l-2.4-3.5c3.5-3.6 7.7-5.4 13-5.4 6.9 0 12.6 3.1 12.6 11v22.4h-5zm0-6.8v-6.1c-2-2.7-5.4-4.1-9-4.1-4.7 0-8 3-8 7.2 0 4.1 3.3 7.1 8 7.1 3.6-.1 7-1.4 9-4.1zM473.2 128.5v-21.3c0-5.7-2.9-7.6-7.3-7.6-4 0-7.8 2.4-9.7 5.1v23.8h-5.1V95.9h5.1v4.7c2.3-2.7 6.8-5.5 11.6-5.5 6.8 0 10.4 3.4 10.4 10.5v22.9h-5zM487.4 136.7c.7.3 2 .5 2.8.5 2.2 0 3.7-.7 4.9-3.4l2.2-4.9-13.6-33h5.5l10.9 26.8 10.8-26.8h5.5l-16.3 39.2c-2 4.7-5.3 6.6-9.6 6.6-1.1 0-2.8-.2-3.7-.5l.6-4.5zM539.2 128.5v-45h29.5v5h-23.9V103h23.4v5h-23.4v15.5h23.9v5h-29.5zM616.8 128.5v-22.2c0-4.1-1.8-6.8-6-6.8-3.4 0-7 2.4-8.6 5v23.9h-5.1v-22.2c0-4.1-1.8-6.8-6-6.8-3.3 0-6.8 2.4-8.6 5.1v23.8h-5.1V95.9h5.1v4.7c1.4-2.1 5.7-5.5 10.5-5.5 5 0 7.8 2.7 8.8 6.1 1.8-3 6.2-6.1 10.9-6.1 5.9 0 9.1 3.3 9.1 9.9v23.6h-5zM652.4 128.5v-3.7c-2.7 3-6.4 4.5-10.8 4.5-5.5 0-11.4-3.7-11.4-10.8 0-7.3 5.9-10.7 11.4-10.7 4.5 0 8.2 1.4 10.8 4.5v-5.9c0-4.4-3.5-6.9-8.2-6.9-3.9 0-7.1 1.4-10 4.5l-2.4-3.5c3.5-3.6 7.7-5.4 13-5.4 6.9 0 12.6 3.1 12.6 11v22.4h-5zm0-6.8v-6.1c-2-2.7-5.4-4.1-9-4.1-4.7 0-8 3-8 7.2 0 4.1 3.3 7.1 8 7.1 3.6-.1 7-1.4 9-4.1zM666.7 87.9c0-1.9 1.6-3.4 3.4-3.4 1.9 0 3.4 1.6 3.4 3.4s-1.6 3.4-3.4 3.4c-1.8 0-3.4-1.5-3.4-3.4zm.9 40.6V95.9h5.1v32.6h-5.1zM682.8 128.5v-45h5.1v45.1h-5.1zM695.1 124.2l2.6-3.6c2.2 2.5 6.3 4.7 10.7 4.7 5 0 7.7-2.4 7.7-5.6 0-7.9-20.2-3-20.2-15.1 0-5.1 4.4-9.4 12.2-9.4 5.5 0 9.5 2.1 12.1 4.7l-2.4 3.5c-2-2.4-5.5-4.1-9.7-4.1-4.5 0-7.2 2.2-7.2 5.1 0 7.2 20.2 2.4 20.2 15.1 0 5.5-4.4 9.9-12.8 9.9-5.3 0-9.8-1.7-13.2-5.2zM744.3 122.2l3.3-4.3c3 3.3 7.8 6.4 14.2 6.4 8 0 10.6-4.3 10.6-7.8 0-11.6-26.7-5.2-26.7-21.3 0-7.4 6.6-12.5 15.5-12.5 6.9 0 12.2 2.3 16 6.3l-3.4 4.1c-3.4-3.7-8.1-5.4-13-5.4-5.4 0-9.3 2.9-9.3 7.2 0 10.1 26.7 4.3 26.7 21.1 0 6.6-4.5 13.2-16.6 13.2-7.8.2-13.6-2.8-17.3-7zM808.5 128.5V107c0-5.7-3-7.4-7.4-7.4-3.9 0-7.7 2.4-9.7 5.1v23.8h-5.1v-45h5.1v17.2c2.3-2.7 6.8-5.5 11.7-5.5 6.8 0 10.4 3.3 10.4 10.4v23h-5zM821.8 112.2c0-9.5 6.2-17.1 16.1-17.1s16.1 7.6 16.1 17.1-6.2 17.2-16.1 17.2-16.1-7.7-16.1-17.2zm27 0c0-6.6-3.9-12.6-10.8-12.6s-10.9 5.9-10.9 12.6c0 6.7 3.9 12.6 10.9 12.6s10.8-5.9 10.8-12.6zM884.4 128.5V124c-2.5 2.8-6.8 5.4-11.6 5.4-6.8 0-10.4-3.3-10.4-10.4V96h5.1v21.5c0 5.7 2.9 7.4 7.3 7.4 4 0 7.8-2.3 9.7-4.9V96h5.1v32.6h-5.2zM899.6 128.5v-45h5.1v45.1h-5.1zM938.4 128.5v-4.9c-2.4 3.3-6.4 5.7-11 5.7-8.5 0-14.5-6.5-14.5-17.1 0-10.4 5.9-17.2 14.5-17.2 4.4 0 8.4 2.2 11 5.7V83.5h5.1v45.1h-5.1zm0-8.8v-14.8c-1.8-2.8-5.7-5.3-9.8-5.3-6.6 0-10.5 5.4-10.5 12.6s3.9 12.6 10.5 12.6c4.1 0 8-2.3 9.8-5.1zM971.2 128.5v-45h5.6v45.1h-5.6zM1002.1 122.2l3.3-4.3c3 3.3 7.8 6.4 14.2 6.4 8 0 10.6-4.3 10.6-7.8 0-11.6-26.7-5.2-26.7-21.3 0-7.4 6.6-12.5 15.5-12.5 6.9 0 12.2 2.3 16 6.3l-3.4 4.1c-3.4-3.7-8.1-5.4-13-5.4-5.4 0-9.3 2.9-9.3 7.2 0 10.1 26.7 4.3 26.7 21.1 0 6.6-4.5 13.2-16.6 13.2-7.8.2-13.6-2.8-17.3-7zM1042.3 112.2c0-9.5 6.8-17.1 16.1-17.1 9.9 0 15.7 7.7 15.7 17.5v1.3h-26.4c.4 6.1 4.7 11.3 11.8 11.3 3.7 0 7.5-1.5 10.1-4.1l2.4 3.3c-3.2 3.2-7.6 5-13 5-9.7 0-16.7-7-16.7-17.2zm16-12.9c-7 0-10.4 5.9-10.7 10.9h21.4c0-4.9-3.2-10.9-10.7-10.9zM1104.3 128.5v-21.3c0-5.7-2.9-7.6-7.3-7.6-4 0-7.8 2.4-9.7 5.1v23.8h-5.1V95.9h5.1v4.7c2.3-2.7 6.8-5.5 11.6-5.5 6.8 0 10.4 3.4 10.4 10.5v22.9h-5zM1143.1 128.5v-4.9c-2.4 3.3-6.4 5.7-11 5.7-8.5 0-14.5-6.5-14.5-17.1 0-10.4 5.9-17.2 14.5-17.2 4.4 0 8.4 2.2 11 5.7V83.5h5.1v45.1h-5.1zm0-8.8v-14.8c-1.8-2.8-5.7-5.3-9.8-5.3-6.6 0-10.5 5.4-10.5 12.6s3.9 12.6 10.5 12.6c4.1 0 8-2.3 9.8-5.1zM1176.8 121.7v-21.3h-5.4v-4.5h5.4V87h5.1v8.9h6.6v4.5h-6.6v20.3c0 2.4 1.1 4.2 3.3 4.2 1.4 0 2.8-.6 3.4-1.4l1.5 3.8c-1.3 1.2-3.1 2.1-6.1 2.1-4.8 0-7.2-2.8-7.2-7.7zM1193.7 112.2c0-9.5 6.2-17.1 16.1-17.1s16.1 7.6 16.1 17.1-6.2 17.2-16.1 17.2-16.1-7.7-16.1-17.2zm27 0c0-6.6-3.9-12.6-10.8-12.6s-10.9 5.9-10.9 12.6c0 6.7 3.9 12.6 10.9 12.6s10.8-5.9 10.8-12.6zM431.9 192.1c0-14 10.3-23.3 23.2-23.3 8 0 13.5 3.5 17.5 8.4l-4.5 2.8c-2.8-3.6-7.6-6.2-13-6.2-9.9 0-17.4 7.6-17.4 18.3 0 10.7 7.5 18.4 17.4 18.4 5.4 0 9.9-2.6 12.1-4.9v-9.2h-15.5v-5h21.1v16.3c-4.2 4.7-10.3 7.8-17.7 7.8-12.9-.1-23.2-9.5-23.2-23.4zM479.7 198.2c0-9.5 6.8-17.1 16.1-17.1 9.9 0 15.7 7.7 15.7 17.5v1.3h-26.4c.4 6.1 4.7 11.3 11.8 11.3 3.7 0 7.5-1.5 10.1-4.1l2.4 3.3c-3.2 3.2-7.6 5-13 5-9.7 0-16.7-7-16.7-17.2zm16.1-12.9c-7 0-10.4 5.9-10.7 10.9h21.4c-.1-4.9-3.3-10.9-10.7-10.9zM520.7 207.7v-21.3h-5.4v-4.5h5.4V173h5.1v8.9h6.6v4.5h-6.6v20.3c0 2.4 1.1 4.2 3.3 4.2 1.4 0 2.8-.6 3.4-1.4l1.5 3.8c-1.3 1.2-3.1 2.1-6.1 2.1-4.8 0-7.2-2.8-7.2-7.7zM558 207.7v-21.3h-5.4v-4.5h5.4V173h5.1v8.9h6.6v4.5H563v20.3c0 2.4 1.1 4.2 3.3 4.2 1.4 0 2.8-.6 3.4-1.4l1.5 3.8c-1.3 1.2-3.1 2.1-6.1 2.1-4.7 0-7.1-2.8-7.1-7.7zM598.9 214.5V193c0-5.7-3-7.4-7.4-7.4-3.9 0-7.7 2.4-9.7 5.1v23.8h-5.1v-45.1h5.1v17.2c2.3-2.7 6.8-5.5 11.7-5.5 6.8 0 10.4 3.3 10.4 10.4v23h-5zM612.2 198.2c0-9.5 6.8-17.1 16.1-17.1 9.9 0 15.7 7.7 15.7 17.5v1.3h-26.4c.4 6.1 4.7 11.3 11.8 11.3 3.7 0 7.5-1.5 10.1-4.1l2.4 3.3c-3.2 3.2-7.6 5-13 5-9.7 0-16.7-7-16.7-17.2zm16-12.9c-7 0-10.4 5.9-10.7 10.9H639c-.1-4.9-3.3-10.9-10.8-10.9zM669.8 214.5v-45.1h29.5v5h-23.9V189h23.4v5h-23.4v20.5h-5.6zM705.9 173.9c0-1.9 1.6-3.4 3.4-3.4 1.9 0 3.4 1.6 3.4 3.4s-1.6 3.4-3.4 3.4c-1.9 0-3.4-1.5-3.4-3.4zm.8 40.6v-32.6h5.1v32.6h-5.1zM721.9 214.5v-32.6h5.1v5.3c2.6-3.4 6.4-5.9 10.9-5.9v5.2c-.6-.1-1.2-.2-2-.2-3.1 0-7.4 2.6-8.8 5.2v23.1h-5.2zM741.4 210.2l2.6-3.6c2.2 2.5 6.3 4.7 10.7 4.7 5 0 7.7-2.4 7.7-5.6 0-7.9-20.2-3-20.2-15.1 0-5.1 4.4-9.4 12.2-9.4 5.5 0 9.5 2.1 12.1 4.7l-2.4 3.5c-2-2.4-5.5-4.1-9.7-4.1-4.5 0-7.2 2.2-7.2 5.1 0 7.2 20.2 2.4 20.2 15.1 0 5.5-4.4 9.9-12.8 9.9-5.4 0-9.9-1.7-13.2-5.2zM776.7 207.7v-21.3h-5.4v-4.5h5.4V173h5.1v8.9h6.6v4.5h-6.6v20.3c0 2.4 1.1 4.2 3.3 4.2 1.4 0 2.8-.6 3.4-1.4l1.5 3.8c-1.3 1.2-3.1 2.1-6.1 2.1-4.8 0-7.2-2.8-7.2-7.7zM839.2 214.5l-11.5-17.9h-9v17.9h-5.6v-45.1h18.1c8.2 0 14.1 5.3 14.1 13.6 0 8.1-5.5 12.6-11.7 13.1l12.2 18.4h-6.6zm.3-31.4c0-5.1-3.6-8.6-9-8.6h-11.8v17.2h11.8c5.4 0 9-3.6 9-8.6zM850.1 198.2c0-9.5 6.8-17.1 16.1-17.1 9.9 0 15.7 7.7 15.7 17.5v1.3h-26.4c.4 6.1 4.7 11.3 11.8 11.3 3.7 0 7.5-1.5 10.1-4.1l2.4 3.3c-3.2 3.2-7.6 5-13 5-9.8 0-16.7-7-16.7-17.2zm16-12.9c-7 0-10.4 5.9-10.7 10.9h21.4c0-4.9-3.3-10.9-10.7-10.9zM895.1 209.6V227H890v-45.1h5.1v4.9c2.4-3.3 6.4-5.7 11-5.7 8.6 0 14.5 6.5 14.5 17.1 0 10.5-5.9 17.2-14.5 17.2-4.5 0-8.4-2.1-11-5.8zm20.2-11.4c0-7.2-3.9-12.6-10.5-12.6-4 0-8 2.4-9.7 5.2v14.7c1.8 2.8 5.7 5.3 9.7 5.3 6.6 0 10.5-5.4 10.5-12.6zM928.7 214.5v-45.1h5.1v45.1h-5.1zM942.8 222.7c.7.3 2 .5 2.8.5 2.2 0 3.7-.7 4.9-3.4l2.2-4.9-13.6-33h5.5l10.9 26.8 10.8-26.8h5.5l-16.3 39.2c-2 4.7-5.3 6.6-9.6 6.6-1.1 0-2.8-.2-3.7-.5l.6-4.5zM982.8 196.6c0-8.6 12.2-9.3 12.2-16.5 0-3.4-2.6-6.3-8-6.3-5.1 0-8.2 2.2-10.7 5.5l-3.4-3.6c3.2-4.2 8.2-6.9 14.7-6.9 8.2 0 13.2 4.7 13.2 10.5 0 10.2-13.1 11.1-13.1 17.7 0 1.1.7 2.4 1.8 3.3l-4.1 1.8c-1.8-1.6-2.6-3.5-2.6-5.5zm.3 14.9c0-2 1.7-3.7 3.7-3.7s3.7 1.7 3.7 3.7-1.7 3.7-3.7 3.7-3.7-1.7-3.7-3.7z"/></g><circle fill="#27AAE1" cx="1316.5" cy="797.3" r="9.8"/><circle fill="#27AAE1" cx="1184.7" cy="813.4" r="9.8"/><circle fill="#27AAE1" cx="1051.2" cy="740.9" r="9.8"/><circle fill="#27AAE1" cx="918.9" cy="722.7" r="9.8"/><circle fill="#27AAE1" cx="787.4" cy="721.9" r="9.8"/><circle fill="#27AAE1" cx="253.6" cy="540.8" r="9.8"/><path fill="#27AAE1" d="M1182 815.3L1049.5 742l-130.8-17H785.1l-.4-.2-133.3-36.1-133.8-17.2-.5-.3L385.7 597l-132.1-51.7-.5-.7-131.5-162 4.8-3.9 131 161.4 131.2 51.4 131 74 133.2 17.2 133.1 36.1h133.4l132.1 17.2.5.3 131.3 72.6 133.1-17.7.8 6.2z"/><circle fill="#27AAE1" cx="125.9" cy="382.6" r="9.8"/><circle fill="#27AAE1" cx="389" cy="596.1" r="9.8"/><circle fill="#27AAE1" cx="514.8" cy="666.6" r="9.8"/><circle fill="#27AAE1" cx="655.9" cy="688.3" r="9.8"/><g fill="#27AAE1"><path d="M94.7 356.3l3-3.8c1.9 1.9 4.8 3.1 7.4 3.1 3.3 0 5.1-1.4 5.1-3.4 0-2.1-1.7-3.1-5.4-3.1-1.1 0-2.9 0-3.3.1V344h3.3c3 0 5-.9 5-2.9 0-2.1-2.2-3.2-5-3.2-2.6 0-4.9 1-6.8 2.8l-2.9-3.6c2.2-2.5 5.6-4.3 10.3-4.3 6.3 0 10.2 2.8 10.2 7.3 0 3.4-2.9 5.6-5.9 6.1 2.7.3 6.3 2.4 6.3 6.5 0 4.6-4.2 7.9-10.6 7.9-5 0-8.7-1.9-10.7-4.3zM119 346.7c0-6.9 3.4-13.9 11.1-13.9 7.7 0 11.1 6.9 11.1 13.9 0 6.9-3.5 13.9-11.1 13.9-7.7 0-11.1-6.9-11.1-13.9zm16.4 0c0-5-1.5-8.8-5.3-8.8-3.9 0-5.3 3.8-5.3 8.8 0 5 1.5 8.8 5.3 8.8 3.8.1 5.3-3.8 5.3-8.8zM143.7 339.6c0-3.8 2.7-6.8 6.8-6.8 4.2 0 6.9 3 6.9 6.8s-2.7 6.6-6.9 6.6c-4.1 0-6.8-2.8-6.8-6.6zm10 0c0-2.3-1.3-3.6-3.2-3.6-1.8 0-3.2 1.3-3.2 3.6 0 2.1 1.4 3.5 3.2 3.5 1.8 0 3.2-1.4 3.2-3.5zm-5.8 20.6l17.2-26.9h3.1L151 360.2h-3.1zm10.6-6.2c0-3.8 2.7-6.8 6.8-6.8s6.9 3 6.9 6.8-2.7 6.7-6.9 6.7-6.8-3-6.8-6.7zm10 0c0-2.2-1.4-3.6-3.2-3.6s-3.2 1.4-3.2 3.6 1.3 3.5 3.2 3.5 3.2-1.3 3.2-3.5z"/></g><g fill="#27AAE1"><path d="M247.9 516.5V512c11-8.2 14.2-10.9 14.2-14.2 0-2.3-2.1-3.5-4.4-3.5-3.1 0-5.4 1.2-7.2 3.1l-3.3-3.8c2.6-3 6.6-4.4 10.4-4.4 5.7 0 10.3 3.2 10.3 8.6 0 4.6-3.8 8.6-10.8 13.7h11v5h-20.2zM278.4 516.5V497l-4.5 4.6-3.3-3.4 8.5-8.5h5v26.9h-5.7zM287.9 495.9c0-3.8 2.7-6.8 6.8-6.8 4.2 0 6.9 3 6.9 6.8s-2.7 6.6-6.9 6.6c-4.1 0-6.8-2.8-6.8-6.6zm10 0c0-2.3-1.3-3.6-3.2-3.6-1.8 0-3.2 1.3-3.2 3.6 0 2.1 1.4 3.5 3.2 3.5 1.8 0 3.2-1.4 3.2-3.5zm-5.8 20.6l17.2-26.9h3.1l-17.2 26.9h-3.1zm10.6-6.2c0-3.8 2.7-6.8 6.8-6.8s6.9 3 6.9 6.8-2.7 6.7-6.9 6.7-6.8-3-6.8-6.7zm10 0c0-2.2-1.4-3.6-3.2-3.6s-3.2 1.4-3.2 3.6 1.3 3.5 3.2 3.5 3.2-1.3 3.2-3.5z"/></g><g fill="#27AAE1"><path d="M360.2 648.4v-19.5l-4.5 4.6-3.3-3.4 8.5-8.5h5v26.9h-5.7zM370 641.5c0-3.3 2.5-5.8 5.8-6.9-3-1-5.3-3-5.3-6.3 0-5 5.4-7.1 10.4-7.1s10.4 2.1 10.4 7.1c0 3.3-2.4 5.3-5.4 6.3 3.2 1.1 5.8 3.6 5.8 6.9 0 5-5.2 7.5-10.8 7.5s-10.9-2.5-10.9-7.5zm15.8-.8c0-2.3-3.3-3.3-5-3.6-1.7.2-5 1.3-5 3.6 0 2 2.2 3.3 5 3.3s5-1.3 5-3.3zm-.5-11.6c0-1.9-1.9-3.1-4.5-3.1-2.7 0-4.6 1.1-4.6 3.1s2.9 2.9 4.6 3.2c1.7-.3 4.5-1.2 4.5-3.2zM394.1 627.9c0-3.8 2.7-6.8 6.8-6.8 4.2 0 6.9 3 6.9 6.8s-2.7 6.6-6.9 6.6c-4.1 0-6.8-2.9-6.8-6.6zm10 0c0-2.3-1.3-3.6-3.2-3.6-1.8 0-3.2 1.3-3.2 3.6 0 2.1 1.4 3.5 3.2 3.5 1.9 0 3.2-1.4 3.2-3.5zm-5.8 20.5l17.2-26.9h3.1l-17.2 26.9h-3.1zm10.6-6.1c0-3.8 2.7-6.8 6.8-6.8s6.9 3 6.9 6.8-2.7 6.7-6.9 6.7-6.8-3-6.8-6.7zm10.1 0c0-2.2-1.4-3.6-3.2-3.6s-3.2 1.4-3.2 3.6 1.3 3.5 3.2 3.5 3.2-1.4 3.2-3.5z"/></g><g fill="#27AAE1"><path d="M500.3 643.4v-19.5l-4.5 4.6-3.3-3.4 8.5-8.5h5v26.9h-5.7zM522.6 643.4v-5.6h-12.9v-4.5l10.7-16.8h7.9v16.3h3.5v5h-3.5v5.6h-5.7zm0-21.8l-7.3 11.2h7.3v-11.2zM533.9 622.9c0-3.8 2.7-6.8 6.8-6.8 4.2 0 6.9 3 6.9 6.8s-2.7 6.6-6.9 6.6c-4.1 0-6.8-2.9-6.8-6.6zm10 0c0-2.3-1.3-3.6-3.2-3.6-1.8 0-3.2 1.3-3.2 3.6 0 2.1 1.4 3.5 3.2 3.5 1.9-.1 3.2-1.5 3.2-3.5zm-5.8 20.5l17.2-26.9h3.1l-17.2 26.9h-3.1zm10.6-6.2c0-3.8 2.7-6.8 6.8-6.8s6.9 3 6.9 6.8-2.7 6.7-6.9 6.7-6.8-2.9-6.8-6.7zm10 0c0-2.2-1.4-3.6-3.2-3.6s-3.2 1.4-3.2 3.6 1.3 3.5 3.2 3.5 3.2-1.3 3.2-3.5z"/></g><g fill="#27AAE1"><path d="M636.4 740.1v-19.5l-4.5 4.6-3.3-3.4 8.5-8.5h5v26.9h-5.7zM645.6 736.3l3-3.8c1.9 1.9 4.8 3.1 7.4 3.1 3.3 0 5.1-1.4 5.1-3.4 0-2.1-1.7-3.1-5.4-3.1-1.1 0-2.9 0-3.3.1V724h3.3c3 0 5-.9 5-2.9 0-2.1-2.2-3.2-5-3.2-2.6 0-4.9 1-6.8 2.8l-2.9-3.6c2.2-2.5 5.6-4.3 10.3-4.3 6.3 0 10.2 2.8 10.2 7.3 0 3.4-2.9 5.6-5.9 6.1 2.7.3 6.3 2.4 6.3 6.5 0 4.6-4.2 7.9-10.6 7.9-5 0-8.7-1.9-10.7-4.3zM669.6 719.6c0-3.8 2.7-6.8 6.8-6.8 4.2 0 6.9 3 6.9 6.8s-2.7 6.6-6.9 6.6c-4.1 0-6.8-2.9-6.8-6.6zm10 0c0-2.3-1.3-3.6-3.2-3.6-1.8 0-3.2 1.3-3.2 3.6 0 2.1 1.4 3.5 3.2 3.5 1.8-.1 3.2-1.4 3.2-3.5zm-5.8 20.5l17.2-26.9h3.1l-17.2 26.9h-3.1zm10.6-6.2c0-3.8 2.7-6.8 6.8-6.8s6.9 3 6.9 6.8-2.7 6.7-6.9 6.7-6.8-2.9-6.8-6.7zm10 0c0-2.2-1.4-3.6-3.2-3.6s-3.2 1.4-3.2 3.6 1.3 3.5 3.2 3.5 3.2-1.3 3.2-3.5z"/></g><g fill="#27AAE1"><path d="M769.6 698.7v-19.5l-4.5 4.6-3.3-3.4 8.5-8.5h5v26.9h-5.7zM786.2 698.7v-19.5l-4.5 4.6-3.3-3.4 8.5-8.5h5v26.9h-5.7zM795.6 678.1c0-3.8 2.7-6.8 6.8-6.8 4.2 0 6.9 3 6.9 6.8s-2.7 6.6-6.9 6.6c-4.1 0-6.8-2.8-6.8-6.6zm10 0c0-2.3-1.3-3.6-3.2-3.6-1.8 0-3.2 1.3-3.2 3.6 0 2.1 1.4 3.5 3.2 3.5 1.9 0 3.2-1.4 3.2-3.5zm-5.8 20.6l17.2-26.9h3.1l-17.2 26.9h-3.1zm10.6-6.2c0-3.8 2.7-6.8 6.8-6.8s6.9 3 6.9 6.8-2.7 6.7-6.9 6.7c-4.1 0-6.8-2.9-6.8-6.7zm10.1 0c0-2.2-1.4-3.6-3.2-3.6s-3.2 1.4-3.2 3.6 1.3 3.5 3.2 3.5 3.2-1.3 3.2-3.5z"/></g><g fill="#27AAE1"><path d="M902.1 773.5V754l-4.5 4.6-3.3-3.4 8.5-8.5h5v26.9h-5.7zM918.7 773.5V754l-4.5 4.6-3.3-3.4 8.5-8.5h5v26.9h-5.7zM928.1 752.9c0-3.8 2.7-6.8 6.8-6.8 4.2 0 6.9 3 6.9 6.8s-2.7 6.6-6.9 6.6c-4.1 0-6.8-2.8-6.8-6.6zm10 0c0-2.3-1.3-3.6-3.2-3.6-1.8 0-3.2 1.3-3.2 3.6 0 2.1 1.4 3.5 3.2 3.5 1.9 0 3.2-1.4 3.2-3.5zm-5.8 20.6l17.2-26.9h3.1l-17.2 26.9h-3.1zm10.6-6.2c0-3.8 2.7-6.8 6.8-6.8s6.9 3 6.9 6.8-2.7 6.7-6.9 6.7c-4.1-.1-6.8-3-6.8-6.7zm10.1 0c0-2.2-1.4-3.6-3.2-3.6-1.9 0-3.2 1.4-3.2 3.6s1.3 3.5 3.2 3.5c1.8 0 3.2-1.3 3.2-3.5z"/></g><g fill="#27AAE1"><path d="M1030.7 721v-19.5l-4.5 4.6-3.3-3.4 8.5-8.5h5V721h-5.7zM1040.5 707.6c0-6.9 3.4-13.9 11.1-13.9 7.7 0 11.1 6.9 11.1 13.9 0 6.9-3.5 13.9-11.1 13.9-7.7 0-11.1-7-11.1-13.9zm16.4 0c0-5-1.5-8.8-5.3-8.8-3.9 0-5.3 3.8-5.3 8.8 0 5 1.5 8.8 5.3 8.8 3.9 0 5.3-3.9 5.3-8.8zM1065.2 700.5c0-3.8 2.7-6.8 6.8-6.8 4.2 0 6.9 3 6.9 6.8s-2.7 6.6-6.9 6.6c-4.1 0-6.8-2.9-6.8-6.6zm10 0c0-2.3-1.3-3.6-3.2-3.6-1.8 0-3.2 1.3-3.2 3.6 0 2.1 1.4 3.5 3.2 3.5 1.9-.1 3.2-1.4 3.2-3.5zm-5.8 20.5l17.2-26.9h3.1l-17.2 26.9h-3.1zm10.6-6.2c0-3.8 2.7-6.8 6.8-6.8s6.9 3 6.9 6.8-2.7 6.7-6.9 6.7c-4.1 0-6.8-2.9-6.8-6.7zm10.1 0c0-2.2-1.4-3.6-3.2-3.6-1.9 0-3.2 1.4-3.2 3.6s1.3 3.5 3.2 3.5c1.8 0 3.2-1.3 3.2-3.5z"/></g><g fill="#27AAE1"><path d="M1161.7 848.7c0-8.2 4.6-13.9 12.6-13.9 3.3 0 6 1.1 8 2.8l-2.6 4.4c-1.5-1.4-3-2.1-5.4-2.1-4 0-6.7 3.3-6.7 7.6v.6c1.3-1.8 4-3.5 6.9-3.5 4.8 0 9.2 3 9.2 8.8 0 5.2-4.2 9.2-10.3 9.2-8.3 0-11.7-6.3-11.7-13.9zm16.1 4.8c0-2.8-2.4-4-5-4-2 0-4 .9-5.2 2.5.2 2.6 1.7 5.4 5.4 5.4 3.1.1 4.8-2 4.8-3.9zM1185.9 841.6c0-3.8 2.7-6.8 6.8-6.8 4.2 0 6.9 3 6.9 6.8s-2.7 6.6-6.9 6.6c-4.1 0-6.8-2.9-6.8-6.6zm10 0c0-2.3-1.3-3.6-3.2-3.6-1.8 0-3.2 1.3-3.2 3.6 0 2.1 1.4 3.5 3.2 3.5 1.9-.1 3.2-1.4 3.2-3.5zm-5.8 20.5l17.2-26.9h3.1l-17.2 26.9h-3.1zm10.6-6.2c0-3.8 2.7-6.8 6.8-6.8s6.9 3 6.9 6.8-2.7 6.7-6.9 6.7c-4.1 0-6.8-2.9-6.8-6.7zm10 0c0-2.2-1.4-3.6-3.2-3.6s-3.2 1.4-3.2 3.6 1.3 3.5 3.2 3.5 3.2-1.3 3.2-3.5z"/></g><g fill="#27AAE1"><path d="M1298.9 777.2l9.6-21.9H1295v-5h20.2v4l-10 22.9h-6.3zM1317.1 756.7c0-3.8 2.7-6.8 6.8-6.8 4.2 0 6.9 3 6.9 6.8s-2.7 6.6-6.9 6.6c-4.1 0-6.8-2.9-6.8-6.6zm10 0c0-2.3-1.3-3.6-3.2-3.6-1.8 0-3.2 1.3-3.2 3.6 0 2.1 1.4 3.5 3.2 3.5 1.9 0 3.2-1.4 3.2-3.5zm-5.8 20.5l17.2-26.9h3.1l-17.2 26.9h-3.1zm10.6-6.1c0-3.8 2.7-6.8 6.8-6.8s6.9 3 6.9 6.8-2.7 6.7-6.9 6.7c-4.1-.1-6.8-3-6.8-6.7zm10.1 0c0-2.2-1.4-3.6-3.2-3.6s-3.2 1.4-3.2 3.6 1.3 3.5 3.2 3.5 3.2-1.4 3.2-3.5z"/></g><path fill="#444445" d="M126.8 972.1V948l-4.6 4.9-2.2-2.2 7.2-7.4h3.2v28.8h-3.6zM245.7 972.1v-2.9c10.4-8.2 16-13 16-17.9 0-3.7-3-5.3-6-5.3-3.5 0-6.1 1.5-7.8 3.6l-2.2-2.3c2.2-2.9 6-4.5 10-4.5 4.8 0 9.7 2.7 9.7 8.5 0 5.9-6 11.2-14 17.6h14.1v3.2h-19.8zM372.7 967.8l2.1-2.2c1.7 2.2 4.6 3.8 8 3.8 4.2 0 6.7-2.1 6.7-5.4 0-3.6-2.9-5.1-7.2-5.1h-3v-3.3h3c3.6 0 6.7-1.4 6.7-4.8 0-3.2-2.9-4.9-6.4-4.9-3.2 0-5.5 1.2-7.6 3.5l-2-2.2c2.1-2.5 5.4-4.5 9.9-4.5 5.5 0 9.8 2.8 9.8 7.7 0 4.2-3.5 6.2-6.2 6.7 2.6.2 6.7 2.5 6.7 7.1 0 4.8-3.8 8.3-10.2 8.3-4.9.1-8.5-2.1-10.3-4.7zM515.2 972.1v-7.3h-13.7v-3l12.4-18.5h4.9v18.4h4.1v3.2h-4.1v7.3h-3.6zm0-25.5l-10.1 15h10.1v-15zM645.9 968l2.2-2.4c1.9 2.4 4.4 3.8 8 3.8 3.9 0 6.7-2.7 6.7-6.2 0-3.8-2.7-6.2-6.6-6.2-2.6 0-4.7.8-6.7 2.7l-2.6-.9v-15.6h17.6v3.2h-14v10c1.4-1.4 3.8-2.6 6.7-2.6 4.8 0 9.2 3.3 9.2 9.2 0 5.9-4.5 9.5-10.2 9.5-5.1.1-8.2-1.7-10.3-4.5zM779.3 957.7c0-7.8 3.6-14.9 11.7-14.9 3.7 0 6.2 1.4 8 3.5l-1.8 2.7c-1.5-1.7-3.2-2.9-6.2-2.9-5.6 0-8.1 5.7-8.1 11.3v1.1c1.3-2 4.5-4.5 8.2-4.5 5.2 0 9.4 3.1 9.4 9.2 0 5-3.8 9.4-10.1 9.4-8.1 0-11.1-7.1-11.1-14.9zm17.6 5.6c0-4.2-2.9-6.2-6.7-6.2-2.9 0-5.6 1.8-7.2 4.3.3 3.6 2.2 8 7.3 8 4.4 0 6.6-3.3 6.6-6.1zM916.4 972.1l11.6-25.6h-15.5v-3.2h19.7v2.5l-11.8 26.4h-4zM1040.7 964.8c0-3.8 3.3-6.5 6.9-7.6-3.3-1-6.4-3.1-6.4-6.9 0-5.2 5.1-7.5 9.9-7.5 4.8 0 9.9 2.3 9.9 7.5 0 3.8-3.1 6-6.4 6.9 3.6 1.1 6.9 3.7 6.9 7.6 0 4.9-4.7 7.8-10.3 7.8-5.9 0-10.5-2.9-10.5-7.8zm17-.4c0-3.8-4.9-5.4-6.7-5.6-1.8.2-6.7 1.8-6.7 5.6 0 3.1 3.2 5 6.7 5s6.7-1.9 6.7-5zm-.4-13.6c0-3-2.8-4.8-6.3-4.8s-6.3 1.8-6.3 4.8c0 3.5 4.5 4.7 6.3 5 1.8-.4 6.3-1.5 6.3-5zM1170.3 969.1l1.8-2.7c1.5 1.7 3.2 2.9 6.2 2.9 5.8 0 8.1-5.8 8.1-11.3v-1.2c-1.3 2-4.5 4.5-8.1 4.5-5.2 0-9.5-3.1-9.5-9.2 0-5 3.8-9.4 10.1-9.4 8.1 0 11.2 7 11.2 14.9 0 7.8-3.6 14.9-11.7 14.9-3.8.1-6.3-1.3-8.1-3.4zm15.9-15.1c-.3-3.6-2.2-8-7.2-8-4.4 0-6.6 3.4-6.6 6.1 0 4.2 2.9 6.2 6.7 6.2 2.8 0 5.6-1.7 7.1-4.3z"/><g fill="#444445"><path d="M1300.9 972.1V948l-4.6 4.9-2.2-2.2 7.2-7.4h3.2v28.8h-3.6zM1310.1 957.7c0-7 3.1-14.9 11-14.9s11 7.8 11 14.9c0 7-3.2 14.9-11 14.9-7.9 0-11-7.9-11-14.9zm18.4 0c0-5.8-1.9-11.7-7.3-11.7-5.5 0-7.3 5.9-7.3 11.7 0 5.7 1.9 11.7 7.3 11.7s7.3-6 7.3-11.7z"/></g><path fill="#99999A" d="M1376.2 922.8H58.3V288.5h1317.9v634.3zM60 921.1h1314.5V290.3H60v630.8z"/><g fill="#99999A"><path d="M707.9 409.6c0-4.3 3-7.5 7.3-7.5 4.4 0 7.4 3.3 7.4 7.5s-3 7.4-7.4 7.4-7.3-3.2-7.3-7.4zm11.9 0c0-3-1.9-5.2-4.6-5.2-2.7 0-4.5 2.2-4.5 5.2 0 2.9 1.9 5.1 4.5 5.1 2.7 0 4.6-2.3 4.6-5.1zm-7.5 23.2l19.3-30.3h2.5l-19.4 30.3h-2.4zm11.4-6.9c0-4.3 3-7.5 7.3-7.5s7.3 3.3 7.3 7.5-3 7.4-7.3 7.4-7.3-3.2-7.3-7.4zm11.9 0c0-3-1.9-5.2-4.6-5.2s-4.6 2.2-4.6 5.2c0 2.9 1.9 5.1 4.6 5.1s4.6-2.2 4.6-5.1zM772.5 432.8l-7.7-12h-6v12H755v-30.3h12.2c5.5 0 9.5 3.5 9.5 9.1 0 5.4-3.7 8.4-7.9 8.8l8.2 12.4h-4.5zm.2-21.2c0-3.4-2.5-5.8-6-5.8h-7.9v11.6h7.9c3.5 0 6-2.4 6-5.8zM779.8 421.8c0-6.4 4.5-11.5 10.8-11.5 6.6 0 10.5 5.2 10.5 11.8v.9h-17.8c.3 4.1 3.2 7.6 7.9 7.6 2.5 0 5-1 6.8-2.8l1.6 2.2c-2.2 2.2-5.1 3.4-8.7 3.4-6.4-.1-11.1-4.8-11.1-11.6zm10.8-8.7c-4.7 0-7 4-7.2 7.3h14.4c-.1-3.2-2.3-7.3-7.2-7.3zM810 429.5v11.7h-3.4v-30.3h3.4v3.3c1.6-2.2 4.3-3.8 7.4-3.8 5.8 0 9.8 4.4 9.8 11.5s-4 11.5-9.8 11.5c-3-.1-5.6-1.5-7.4-3.9zm13.6-7.7c0-4.9-2.6-8.4-7-8.4-2.7 0-5.4 1.6-6.5 3.5v9.9c1.2 1.9 3.9 3.5 6.5 3.5 4.4 0 7-3.7 7-8.5zM832.6 432.8v-30.3h3.4v30.3h-3.4zM842.2 405.4c0-1.3 1-2.3 2.3-2.3 1.3 0 2.3 1 2.3 2.3s-1 2.3-2.3 2.3c-1.2 0-2.3-1-2.3-2.3zm.6 27.4v-21.9h3.4v21.9h-3.4zM851.8 421.8c0-6.4 4.5-11.5 10.8-11.5 6.6 0 10.5 5.2 10.5 11.8v.9h-17.8c.3 4.1 3.2 7.6 7.9 7.6 2.5 0 5-1 6.8-2.8l1.6 2.2c-2.2 2.2-5.1 3.4-8.7 3.4-6.5-.1-11.1-4.8-11.1-11.6zm10.7-8.7c-4.7 0-7 4-7.2 7.3h14.4c0-3.2-2.2-7.3-7.2-7.3zM894.5 432.8v-3.3c-1.6 2.2-4.3 3.8-7.4 3.8-5.7 0-9.8-4.4-9.8-11.5 0-7 4-11.5 9.8-11.5 3 0 5.6 1.5 7.4 3.9v-11.7h3.4v30.3h-3.4zm0-6v-9.9c-1.2-1.9-3.9-3.5-6.6-3.5-4.4 0-7 3.6-7 8.5s2.6 8.4 7 8.4c2.7 0 5.4-1.6 6.6-3.5zM915.2 421.8c0-6.4 4.2-11.5 10.9-11.5s10.9 5.1 10.9 11.5-4.2 11.5-10.9 11.5-10.9-5.2-10.9-11.5zm18.1 0c0-4.5-2.6-8.4-7.3-8.4s-7.3 4-7.3 8.4c0 4.5 2.6 8.5 7.3 8.5s7.3-4 7.3-8.5zM957.2 432.8v-14.3c0-3.9-2-5.1-4.9-5.1-2.7 0-5.2 1.6-6.5 3.4v16h-3.4v-21.9h3.4v3.2c1.5-1.8 4.5-3.7 7.8-3.7 4.6 0 7 2.3 7 7.1v15.4h-3.4zM986.8 432.8v-26.9h-9.6v-3.4h23v3.4h-9.6v26.9h-3.8zM1026.7 432.8v-13.9H1009v13.9h-3.8v-30.3h3.8v13h17.7v-13h3.8v30.3h-3.8zM1037.5 432.8v-30.3h3.8v30.3h-3.8zM1046.6 428.5l2.2-2.9c2 2.2 5.3 4.3 9.5 4.3 5.4 0 7.1-2.9 7.1-5.2 0-7.8-17.9-3.5-17.9-14.3 0-5 4.4-8.4 10.4-8.4 4.6 0 8.2 1.5 10.8 4.2l-2.3 2.8c-2.3-2.5-5.4-3.6-8.8-3.6-3.6 0-6.2 2-6.2 4.8 0 6.8 17.9 2.9 17.9 14.2 0 4.4-3 8.9-11.2 8.9-5.2 0-9-2-11.5-4.8zM1085.3 421.8c0-6.4 4.5-11.5 10.8-11.5 6.6 0 10.5 5.2 10.5 11.8v.9h-17.8c.3 4.1 3.2 7.6 7.9 7.6 2.5 0 5-1 6.8-2.8l1.6 2.2c-2.2 2.2-5.1 3.4-8.7 3.4-6.4-.1-11.1-4.8-11.1-11.6zm10.8-8.7c-4.7 0-7 4-7.2 7.3h14.4c-.1-3.2-2.2-7.3-7.2-7.3zM1138.6 432.8v-14.9c0-2.8-1.2-4.5-4-4.5-2.3 0-4.7 1.6-5.8 3.4v16.1h-3.4V418c0-2.8-1.2-4.5-4-4.5-2.2 0-4.6 1.6-5.8 3.4v16h-3.4V411h3.4v3.2c.9-1.4 3.9-3.7 7.1-3.7 3.4 0 5.3 1.8 5.9 4.1 1.2-2 4.2-4.1 7.4-4.1 4 0 6.1 2.2 6.1 6.6v15.8h-3.5zM1162.5 432.8v-2.5c-1.8 2-4.3 3-7.3 3-3.7 0-7.7-2.5-7.7-7.3 0-4.9 4-7.2 7.7-7.2 3 0 5.5 1 7.3 3v-4c0-3-2.4-4.6-5.5-4.6-2.6 0-4.8 1-6.7 3l-1.6-2.4c2.4-2.5 5.2-3.6 8.8-3.6 4.6 0 8.5 2.1 8.5 7.4v15.1h-3.5zm0-4.7V424c-1.3-1.8-3.6-2.7-6-2.7-3.2 0-5.4 2-5.4 4.8s2.2 4.8 5.4 4.8c2.4 0 4.7-.9 6-2.8zM1172.2 405.4c0-1.3 1-2.3 2.3-2.3 1.3 0 2.3 1 2.3 2.3s-1 2.3-2.3 2.3c-1.3 0-2.3-1-2.3-2.3zm.6 27.4v-21.9h3.4v21.9h-3.4zM1183 432.8v-30.3h3.4v30.3h-3.4z"/></g><g fill="#99999A"><path d="M973.7 447.6h1.7v175.5h-1.7z"/><path d="M988.3 619.5l-13.7 13.8-13.8-13.8z"/></g><g><g fill="#434343"><path d="M555.4 1052.1v2.4h-6.3v-2.4h6.3zM562.5 1051.8c0-1.5 0-2.9-.1-4h3.2l.2 1.6c.9-1.3 2.2-1.9 3.9-1.9 2.6 0 4.9 2.3 4.9 6 0 4.3-2.7 6.3-5.4 6.3-1.4 0-2.5-.6-3.1-1.4v5.9h-3.7v-12.5zm3.7 2.8c0 .3 0 .6.1.8.2 1 1.1 1.7 2.2 1.7 1.6 0 2.5-1.3 2.5-3.3 0-1.9-.8-3.3-2.5-3.3-1 0-2 .8-2.2 1.9 0 .2-.1.4-.1.7v1.5zM588.8 1053.7c0 4.3-3.1 6.3-6.2 6.3-3.5 0-6.1-2.3-6.1-6.1s2.5-6.3 6.3-6.3c3.5 0 6 2.5 6 6.1zm-8.6.1c0 2 .8 3.6 2.4 3.6 1.4 0 2.3-1.4 2.3-3.6 0-1.8-.7-3.6-2.3-3.6-1.8 0-2.4 1.8-2.4 3.6zM593.4 1047.9l.9 4.8c.2 1.2.5 2.5.7 3.9.2-1.4.6-2.7.9-3.9l1.3-4.9h2.9l1.2 4.7c.3 1.3.6 2.7.9 4 .2-1.4.4-2.7.7-4l1-4.7h3.6l-3.6 11.8h-3.5l-1.1-4.2c-.3-1.2-.5-2.2-.8-3.7-.2 1.5-.5 2.6-.8 3.7l-1.2 4.2H593l-3.4-11.8h3.8zM611.7 1055c.1 1.5 1.6 2.3 3.3 2.3 1.3 0 2.3-.2 3.3-.5l.5 2.5c-1.2.5-2.7.7-4.3.7-4 0-6.3-2.3-6.3-6 0-3 1.9-6.3 6-6.3 3.8 0 5.3 3 5.3 5.9 0 .6-.1 1.2-.1 1.5h-7.7zm4.3-2.6c0-.9-.4-2.4-2.1-2.4-1.5 0-2.2 1.4-2.3 2.4h4.4zM621.6 1051.8c0-1.7 0-2.9-.1-3.9h3.2l.1 2.2h.1c.6-1.7 2.1-2.4 3.2-2.4h.8v3.5c-.3 0-.6-.1-1-.1-1.4 0-2.3.7-2.5 1.9 0 .2-.1.5-.1.8v6h-3.7v-8zM633.4 1055c.1 1.5 1.6 2.3 3.3 2.3 1.3 0 2.3-.2 3.3-.5l.5 2.5c-1.2.5-2.7.7-4.3.7-4 0-6.3-2.3-6.3-6 0-3 1.9-6.3 6-6.3 3.8 0 5.3 3 5.3 5.9 0 .6-.1 1.2-.1 1.5h-7.7zm4.4-2.6c0-.9-.4-2.4-2.1-2.4-1.5 0-2.2 1.4-2.3 2.4h4.4zM654.9 1042.5v13.6c0 1.3 0 2.7.1 3.5h-3.3l-.2-1.7c-.7 1.3-2.2 2-3.7 2-2.8 0-5.1-2.4-5.1-6.1 0-4 2.5-6.3 5.3-6.3 1.5 0 2.6.5 3.1 1.3v-6.4h3.8zm-3.7 10.4v-.7c-.2-1-1-1.8-2.2-1.8-1.7 0-2.5 1.5-2.5 3.4 0 2 1 3.3 2.5 3.3 1.1 0 1.9-.7 2.1-1.8.1-.3.1-.5.1-.8v-1.6zM662.6 1059.7c0-.8.1-2.2.1-3.5v-13.6h3.7v6.8c.7-1 1.9-1.7 3.6-1.7 2.8 0 4.9 2.3 4.9 6 0 4.3-2.7 6.4-5.4 6.4-1.4 0-2.7-.5-3.6-1.9l-.1 1.6h-3.2zm3.8-5c0 .2 0 .5.1.7.2 1 1.1 1.7 2.2 1.7 1.6 0 2.5-1.2 2.5-3.3 0-1.8-.8-3.3-2.5-3.3-1 0-1.9.8-2.2 1.8 0 .2-.1.4-.1.7v1.7zM679.7 1047.9l1.8 5.8c.2.7.4 1.6.6 2.2h.1c.2-.6.4-1.5.5-2.2l1.5-5.8h3.9l-2.8 7.8c-1.7 4.7-2.8 6.6-4.2 7.8-1.3 1.1-2.6 1.5-3.6 1.6l-.8-3.1c.5-.1 1-.3 1.6-.6.6-.3 1.2-.9 1.5-1.5.1-.2.2-.4.2-.5 0-.1 0-.3-.2-.6l-4.3-10.8h4.2z"/></g><g fill="#8DC23E"><path d="M729.4 1040.8c-.1-.1-.1-.1-.2-.1s-.2.1-.2.1l-17.1 24.5c0 .1-.1.2 0 .2 0 .1.1.1.1.2 2.1 1 4.3 1.5 6.6 1.5 8.5 0 15.4-6.9 15.4-15.4 0-4.1-1.6-8.1-4.6-11zM712.1 1041.6l5.7 8.1.2-.3 7.6-10.9c0-.1.1-.1 0-.2 0-.1-.1-.1-.1-.2-2.1-1.1-4.5-1.6-6.9-1.6-2.9 0-5.7.8-8.2 2.3-.1 0-.1.1-.1.2v.2l1.8 2.4zM712.5 1057.1l2.7-3.8-3.8-5.4-4.1-5.9c0-.1-.1-.1-.2-.1s-.2 0-.2.1c-2.3 2.8-3.6 6.3-3.6 9.9 0 4.2 1.7 8.3 4.8 11.2.1 0 .1.1.2.1s.2-.1.2-.1l4-6z"/></g><g fill="#434343"><path d="M738.8 1064.5c-.1 0-.2-.1-.2-.1v-.3l7.6-10.8-9.6-13.6c-.1-.1-.1-.2 0-.3 0-.1.1-.1.2-.1h4.5c.1 0 .2 0 .2.1l7.2 10.3 7.2-10.3c0-.1.1-.1.2-.1h4.4c.1 0 .2.1.2.1v.3l-17.3 24.7c0 .1-.1.1-.2.1h-4.4zM764.6 1064.6c-.4 0-.8 0-1.3-.1-4.8-.6-8.1-4.5-8.1-9.5 0-5.4 4.1-9.5 9.4-9.5 5.1 0 8.9 4 8.9 9.5v1.1l-.1.5c0 .1-.1.2-.2.2h-13.7v.1c.7 2.4 2.7 3.9 5.2 3.9 1.9 0 3.4-.7 4-2 0-.1.1-.1.2-.1h3.9c.1 0 .2 0 .2.1s.1.1 0 .2l-.1.3c-.9 2.8-3.5 4.7-6.9 5.1-.4.1-.9.2-1.4.2zm-.1-15.4c-2.9.1-4.5 2.1-5 3.9v.1h9.8v-.1c-.5-2.4-2.3-3.9-4.6-3.9h-.2zM783.2 1064.6c-.7 0-1.4-.1-2-.2-3.3-.5-5.4-2.4-6.1-5.4v-.2c0-.1.1-.1.2-.1h3.6c.1 0 .2.1.2.1.6 1.4 2 2.1 4.1 2.1 2.2 0 3.7-.9 3.7-2.1 0-1.4-1.5-1.7-2.2-1.8l-3.8-.6c-4.6-.7-5.6-3.3-5.6-5.3 0-3.4 3-5.7 7.5-5.7 3 0 6.7 1.2 7.7 4.6.1.3.2.7.2.9 0 .1 0 .1-.1.2 0 .1-.1.1-.2.1h-3.5c-.1 0-.2-.1-.2-.2-.1-.2-.2-.5-.3-.7-.8-1.2-2.4-1.4-3.7-1.4-2.1 0-3.4.8-3.4 2 0 .3 0 1.4 2.6 1.8l3.3.6c3.7.6 5.6 2.4 5.6 5.4 0 3-2.2 5.2-5.8 5.8-.4.1-1.1.1-1.8.1zM798.1 1064.1c-.1 0-.2-.1-.2-.2l-6.7-17.8v-.2c0-.1.1-.1.2-.1h3.9c.1 0 .2.1.2.2l4 11 3.7-11c0-.1.1-.2.2-.2h3c.1 0 .2.1.2.2l3.7 11 4.1-11c0-.1.1-.2.2-.2h3.9c.1 0 .2 0 .2.1s.1.2 0 .2l-6.7 17.7c0 .1-.1.2-.2.2h-3c-.1 0-.2-.1-.2-.2L805 1053l-3.6 10.8c0 .1-.1.2-.2.2h-3.1zM827.8 1064.6c-.4 0-.8 0-1.2-.1-4.7-.6-8.2-4.7-8.2-9.5 0-5.3 4.2-9.5 9.4-9.5 1.8 0 3.6.5 5.1 1.4l.1.1v-.9c0-.1.1-.2.2-.2h3.6c.1 0 .1 0 .2.1s.1.1.1.2v17.9c0 .1-.1.2-.2.2h-3.6c-.1 0-.2-.1-.2-.2v-.8l-.1.1c-1.1.7-2.4 1.1-3.7 1.3-.6-.2-1-.1-1.5-.1zm.3-15.4c-3.1 0-5.6 2.6-5.6 5.8 0 1.6.6 3 1.6 4.1 1.1 1.1 2.5 1.7 4 1.7 2 0 3.7-.9 4.9-2.5v-6.6c-1.2-1.6-2.9-2.5-4.9-2.5zM840.2 1064.2c-.1 0-.2-.1-.2-.2v-18c0-.1.1-.2.2-.2h3.6c.1 0 .2.1.2.2v1.5l.2-.1c1.6-1.3 3.5-1.9 5.5-1.9h.6c.1 0 .2.1.2.2v3.4c0 .1-.1.2-.2.2h-.5c-2.4.1-4.4 1.2-5.7 3.3v11.3c0 .1 0 .1-.1.2s-.1.1-.2.1h-3.6zM859.9 1064.6c-.4 0-.8 0-1.2-.1-4.8-.6-8.2-4.5-8.2-9.5 0-5.4 4.1-9.5 9.4-9.5 5.1 0 8.9 4 8.9 9.5v1.1l-.1.5c0 .1-.1.2-.2.2H854.7v.1c.7 2.4 2.7 3.9 5.2 3.9 1.9 0 3.4-.7 4-2 0-.1.1-.1.2-.1h3.9c.1 0 .2 0 .2.1s.1.1 0 .2l-.1.3c-.9 2.8-3.6 4.7-7 5.1-.3.1-.8.2-1.2.2zm-.1-15.4c-2.9 0-4.5 2-5.1 3.9v.1h9.8v-.1c-.5-2.4-2.3-3.9-4.7-3.9z"/></g><g><path fill="#434343" d="M882.2 1052.1v2.4h-6.3v-2.4h6.3z"/></g></g></svg>