<?xml version="1.0" encoding="utf-8"?>
<!-- Generator: Adobe Illustrator 14.0.0, SVG Export Plug-In . SVG Version: 6.00 Build 43363)  -->
<!DOCTYPE svg PUBLIC "-//W3C//DTD SVG 1.1//EN" "http://www.w3.org/Graphics/SVG/1.1/DTD/svg11.dtd">
<svg version="1.1" id="Layer_1" xmlns="http://www.w3.org/2000/svg" xmlns:xlink="http://www.w3.org/1999/xlink" x="0px" y="0px"
	 width="800px" height="800px" viewBox="0 0 800 800" enable-background="new 0 0 800 800" xml:space="preserve">
<path fill="#B41112" d="M185.499,71.287c0,0-50.762-30.278-72.579-23.154C91.101,55.257,75.517,66.39,67.501,82.419
	c-8.015,16.03-16.475,43.312-18.701,65.07c-2.227,21.758-2.226,42.687-8.015,64.06c-5.79,21.373,0.443,32.949,6.678,40.073
	c6.235,7.125,15.584,15.141,35.622,11.578c20.037-3.563,40.195-3.118,59.727-16.03c19.532-12.913,29.774-17.366,46.249-24.936
	s43.637-24.49,47.645-51.207c4.007-26.715,12.912-42.745-14.249-73.914C195.294,65.944,185.499,71.287,185.499,71.287z"/>
<path fill="#E05C5C" d="M110.216,66.07c0,0-7.423-11.333-21.108,6.793C75.424,90.99,63.939,119.77,63.939,119.77
	s-6.617,24.506-5.806,40.041c0.812,15.535-19.343,48.736-0.069,38.897s27.323-9.815,33.847-31.737
	c6.525-21.92,7.321-32.643,22.882-41.481c15.56-8.839,12.674-12.323,6.939-25.306C115.998,87.199,118.93,74.248,110.216,66.07z"/>
<path fill="#479800" d="M250.259,151.715c0,0-7.532-8.938-8.561-17.825c-2.184-18.897,1.27-29.419-6.512-40.477
	c-7.779-11.059-23.487-17.685-26.289-19.12c-2.802-1.436-7.655-9.227-20.685-16.251c-13.028-7.025-18.457-13.695-27.108-7.161
	c-8.652,6.535-23.222,28.082-34.637,28.958c-11.415,0.877,40.369,24.016,56.84,5.051c16.473-18.966-14.561,7.075-13.565,27.557
	c0.996,20.481-1.805,33.55,7.067,33.494c8.871-0.056,14.139,1.52,20.662-7.136c6.525-8.656,13.686-35.763,13.686-35.763
	s0.98,20.812,17.009,32.408C244.195,147.046,250.259,151.715,250.259,151.715z"/>
<path fill="#479800" d="M164.364,55.524c0,0,2.771-18.263-26.57-16.136c-29.341,2.125-34.966-7.521-34.966-7.521
	s0.167,16.569,22.671,21.081C148.003,57.46,164.364,55.524,164.364,55.524z"/>
<ellipse transform="matrix(0.4231 -0.9061 0.9061 0.4231 -7.4133 123.5341)" fill="#FCEE21" cx="93.303" cy="67.589" rx="3.948" ry="2.485"/>
<path fill="#FCEE21" d="M91.395,103.715c-0.923,1.976-2.679,3.105-3.922,2.525c-1.244-0.582-1.504-2.654-0.58-4.627
	c0.921-1.976,2.678-3.106,3.92-2.525C92.057,99.669,92.317,101.74,91.395,103.715z"/>
<path fill="#FCEE21" d="M77.666,89.987c-0.923,1.975-2.678,3.104-3.921,2.524c-1.245-0.581-1.504-2.653-0.581-4.627
	c0.924-1.975,2.678-3.106,3.921-2.525S78.588,88.011,77.666,89.987z"/>
<path fill="#FCEE21" d="M107.832,113.726c-0.923,1.975-2.678,3.104-3.921,2.525c-1.245-0.582-1.505-2.654-0.582-4.628
	c0.922-1.975,2.678-3.105,3.921-2.524C108.494,109.679,108.755,111.751,107.832,113.726z"/>
<path fill="#FCEE21" d="M114.41,136.23c-0.924,1.975-2.678,3.105-3.922,2.525c-1.245-0.581-1.503-2.653-0.581-4.627
	c0.924-1.975,2.678-3.106,3.922-2.525C115.072,132.184,115.333,134.255,114.41,136.23z"/>
<path fill="#FCEE21" d="M71.944,123.164c-0.922,1.976-2.677,3.105-3.92,2.525c-1.245-0.582-1.504-2.653-0.582-4.627
	c0.923-1.976,2.678-3.105,3.921-2.525C72.607,119.118,72.868,121.189,71.944,123.164z"/>
<path fill="#FCEE21" d="M90.355,140.039c-0.923,1.976-2.678,3.105-3.921,2.525c-1.245-0.581-1.505-2.653-0.581-4.627
	c0.923-1.975,2.678-3.106,3.922-2.525C91.018,135.992,91.278,138.063,90.355,140.039z"/>
<path fill="#FCEE21" d="M74.874,156.772c-0.923,1.975-2.679,3.104-3.921,2.524c-1.245-0.58-1.504-2.653-0.582-4.627
	c0.923-1.977,2.679-3.106,3.922-2.525C75.536,152.726,75.797,154.797,74.874,156.772z"/>
<path fill="#FCEE21" d="M114.275,79.69c-0.924,1.976-2.679,3.104-3.922,2.525c-1.244-0.581-1.504-2.653-0.581-4.627
	c0.923-1.975,2.679-3.106,3.922-2.524C114.938,75.644,115.196,77.716,114.275,79.69z"/>
<path fill="#FCEE21" d="M109.699,164.35c-0.923,1.976-2.678,3.104-3.921,2.524c-1.244-0.581-1.504-2.653-0.582-4.627
	c0.923-1.976,2.678-3.105,3.921-2.526C110.361,160.303,110.621,162.374,109.699,164.35z"/>
<ellipse transform="matrix(0.4231 -0.9061 0.9061 0.4231 -117.3833 224.6877)" fill="#FCEE21" cx="117.758" cy="204.526" rx="3.948" ry="2.485"/>
<path fill="#FCEE21" d="M91.395,188.375c-0.923,1.975-2.679,3.104-3.922,2.523c-1.244-0.58-1.504-2.652-0.58-4.627
	c0.921-1.975,2.678-3.105,3.92-2.525C92.057,184.328,92.317,186.4,91.395,188.375z"/>
<path fill="#FCEE21" d="M63.431,188.375c-0.923,1.975-2.679,3.104-3.922,2.523c-1.244-0.58-1.503-2.652-0.58-4.627
	c0.922-1.975,2.678-3.105,3.92-2.525C64.093,184.328,64.354,186.4,63.431,188.375z"/>
<path fill="#FCEE21" d="M122.945,240.85c-0.923,1.976-2.678,3.104-3.921,2.524c-1.245-0.581-1.505-2.653-0.582-4.628
	c0.923-1.976,2.678-3.105,3.921-2.523C123.607,236.803,123.869,238.874,122.945,240.85z"/>
<path fill="#FCEE21" d="M146.975,222.426c-0.923,1.975-2.678,3.104-3.921,2.524c-1.245-0.58-1.504-2.653-0.582-4.627
	c0.923-1.976,2.679-3.106,3.923-2.525C147.637,218.379,147.897,220.45,146.975,222.426z"/>
<path fill="#FCEE21" d="M87.405,213.935c-0.922,1.976-2.678,3.104-3.922,2.525c-1.245-0.581-1.502-2.653-0.582-4.628
	c0.924-1.975,2.679-3.106,3.923-2.524C88.067,209.889,88.327,211.96,87.405,213.935z"/>
<ellipse transform="matrix(0.4231 -0.9061 0.9061 0.4231 -159.4018 175.4267)" fill="#FCEE21" cx="58.055" cy="212.885" rx="3.947" ry="2.485"/>
<path fill="#FCEE21" d="M74.414,246.344c-0.923,1.977-2.678,3.105-3.922,2.525c-1.245-0.581-1.504-2.654-0.581-4.628
	c0.922-1.976,2.678-3.104,3.921-2.524C75.076,242.298,75.337,244.369,74.414,246.344z"/>
<path fill="#FCEE21" d="M105.123,231.848c-0.923,1.977-2.679,3.105-3.922,2.525c-1.245-0.581-1.502-2.654-0.582-4.628
	c0.923-1.976,2.679-3.104,3.922-2.524C105.785,227.803,106.045,229.873,105.123,231.848z"/>
<path fill="#FCEE21" d="M128.003,178.078c-0.922,1.975-2.678,3.105-3.921,2.525c-1.245-0.582-1.504-2.654-0.582-4.629
	c0.923-1.975,2.678-3.105,3.921-2.523C128.666,174.031,128.926,176.104,128.003,178.078z"/>
<path fill="#FCEE21" d="M169.188,149.477c-0.922,1.976-2.678,3.105-3.922,2.525c-1.244-0.581-1.504-2.654-0.58-4.627
	c0.922-1.976,2.678-3.106,3.921-2.525S170.111,147.501,169.188,149.477z"/>
<path fill="#FCEE21" d="M169.188,176.934c-0.922,1.976-2.678,3.105-3.922,2.524c-1.244-0.58-1.504-2.653-0.58-4.627
	c0.922-1.976,2.678-3.106,3.921-2.524C169.851,172.888,170.111,174.959,169.188,176.934z"/>
<path fill="#FCEE21" d="M178.341,205.535c-0.924,1.976-2.678,3.104-3.922,2.525c-1.244-0.582-1.504-2.654-0.58-4.627
	c0.922-1.977,2.678-3.106,3.92-2.526C179.003,201.488,179.264,203.56,178.341,205.535z"/>
<path fill="#FCEE21" d="M148.536,168.053c-0.924,1.975-2.679,3.104-3.922,2.524c-1.244-0.581-1.504-2.653-0.582-4.628
	c0.924-1.975,2.68-3.105,3.922-2.523C149.198,164.006,149.458,166.078,148.536,168.053z"/>
<path fill="#FCEE21" d="M133.241,145.88c-0.922,1.975-2.678,3.104-3.921,2.524c-1.244-0.581-1.503-2.653-0.581-4.627
	c0.923-1.976,2.679-3.106,3.921-2.525C133.904,141.833,134.164,143.904,133.241,145.88z"/>
<path fill="#FCEE21" d="M149.739,128.884c-0.922,1.976-2.678,3.105-3.921,2.525c-1.245-0.581-1.504-2.653-0.581-4.627
	c0.924-1.976,2.678-3.106,3.922-2.525C150.402,124.838,150.663,126.909,149.739,128.884z"/>
<path fill="#FCEE21" d="M133.121,112.266c-0.923,1.976-2.678,3.105-3.922,2.525c-1.244-0.581-1.503-2.653-0.581-4.628
	c0.923-1.976,2.678-3.106,3.922-2.524C133.784,108.219,134.044,110.291,133.121,112.266z"/>
<ellipse transform="matrix(0.4231 -0.9061 0.9061 0.4231 -54.2822 273.3727)" fill="#FCEE21" cx="187.54" cy="179.314" rx="3.947" ry="2.485"/>
<path fill="#FCEE21" d="M206.747,195.6c-0.924,1.975-2.68,3.104-3.923,2.525c-1.244-0.581-1.504-2.654-0.58-4.629
	c0.922-1.975,2.677-3.105,3.921-2.524C207.409,191.554,207.669,193.625,206.747,195.6z"/>
<ellipse transform="matrix(0.4233 -0.906 0.906 0.4233 -26.7023 289.2553)" fill="#FCEE21" cx="213.846" cy="165.601" rx="3.948" ry="2.484"/>
<path fill="#FCEE21" d="M149.739,196.383c-0.922,1.976-2.678,3.104-3.921,2.525c-1.245-0.582-1.504-2.653-0.581-4.629
	c0.924-1.975,2.678-3.104,3.922-2.523C150.402,192.336,150.663,194.408,149.739,196.383z"/>
<path fill="#FCEE21" d="M192.069,152.909c-0.922,1.976-2.679,3.104-3.921,2.525c-1.245-0.581-1.504-2.654-0.581-4.628
	c0.922-1.975,2.678-3.105,3.921-2.524C192.732,148.863,192.992,150.934,192.069,152.909z"/>
<path fill="#479800" d="M198.502,77.65c0,0,5.45-9.362,18.687-15.988c13.236-6.625,0.535-8.482-2.824-10.88
	c-3.358-2.398-6.855-0.302-12.658,2.486s-15.484,16.706-15.484,16.706L198.502,77.65"/>
<path fill="#B41112" d="M443.454,71.287c0,0-50.762-30.278-72.579-23.154c-21.819,7.125-37.403,18.257-45.418,34.286
	c-8.015,16.03-16.475,43.312-18.701,65.07c-2.227,21.758-2.226,42.687-8.015,64.06c-5.79,21.373,0.443,32.949,6.678,40.073
	c6.235,7.125,15.584,15.141,35.622,11.578c20.037-3.563,40.195-3.118,59.727-16.03c19.532-12.913,29.774-17.366,46.249-24.936
	s43.637-24.49,47.645-51.207c4.007-26.715,12.912-42.745-14.249-73.914C453.249,65.944,443.454,71.287,443.454,71.287z"/>
<path fill="#E05C5C" d="M368.171,66.07c0,0-7.423-11.333-21.108,6.793c-13.685,18.127-25.169,46.906-25.169,46.906
	s-6.617,24.506-5.806,40.041c0.812,15.535-19.343,48.736-0.069,38.897s27.323-9.815,33.847-31.737
	c6.525-21.92,7.321-32.643,22.882-41.481c15.56-8.839,12.674-12.323,6.939-25.306C373.953,87.199,376.885,74.248,368.171,66.07z"/>
<path fill="#479800" d="M508.214,151.715c0,0-7.532-8.938-8.561-17.825c-2.184-18.897,1.27-29.419-6.512-40.477
	c-7.779-11.059-23.487-17.685-26.289-19.12c-2.802-1.436-7.655-9.227-20.685-16.251c-13.028-7.025-18.457-13.695-27.108-7.161
	c-8.652,6.535-23.222,28.082-34.637,28.958c-11.415,0.877,40.369,24.016,56.84,5.051c16.473-18.966-14.561,7.075-13.565,27.557
	c0.996,20.481-1.805,33.55,7.067,33.494c8.871-0.056,14.139,1.52,20.662-7.136c6.525-8.656,13.686-35.763,13.686-35.763
	s0.98,20.812,17.009,32.408C502.15,147.046,508.214,151.715,508.214,151.715z"/>
<path fill="#479800" d="M422.319,55.524c0,0,2.771-18.263-26.57-16.136c-29.341,2.125-34.966-7.521-34.966-7.521
	s0.167,16.569,22.671,21.081C405.958,57.46,422.319,55.524,422.319,55.524z"/>
<ellipse transform="matrix(0.4231 -0.9061 0.9061 0.4231 141.4057 357.265)" fill="#FCEE21" cx="351.258" cy="67.589" rx="3.948" ry="2.485"/>
<path fill="#FCEE21" d="M349.35,103.715c-0.923,1.976-2.679,3.105-3.922,2.525c-1.244-0.582-1.504-2.654-0.58-4.627
	c0.921-1.976,2.678-3.106,3.92-2.525C350.012,99.669,350.272,101.74,349.35,103.715z"/>
<path fill="#FCEE21" d="M335.621,89.987c-0.923,1.975-2.678,3.104-3.921,2.524c-1.245-0.581-1.504-2.653-0.581-4.627
	c0.924-1.975,2.678-3.106,3.921-2.525S336.543,88.011,335.621,89.987z"/>
<path fill="#FCEE21" d="M365.787,113.726c-0.923,1.975-2.678,3.104-3.921,2.525c-1.245-0.582-1.505-2.654-0.582-4.628
	c0.922-1.975,2.678-3.105,3.921-2.524C366.449,109.679,366.71,111.751,365.787,113.726z"/>
<path fill="#FCEE21" d="M372.365,136.23c-0.924,1.975-2.678,3.105-3.922,2.525c-1.245-0.581-1.503-2.653-0.581-4.627
	c0.924-1.975,2.678-3.106,3.922-2.525C373.027,132.184,373.288,134.255,372.365,136.23z"/>
<path fill="#FCEE21" d="M329.899,123.164c-0.922,1.976-2.677,3.105-3.92,2.525c-1.245-0.582-1.504-2.653-0.582-4.627
	c0.923-1.976,2.678-3.105,3.921-2.525C330.562,119.118,330.823,121.189,329.899,123.164z"/>
<path fill="#FCEE21" d="M348.31,140.039c-0.923,1.976-2.678,3.105-3.921,2.525c-1.245-0.581-1.505-2.653-0.581-4.627
	c0.923-1.975,2.678-3.106,3.922-2.525C348.973,135.992,349.233,138.063,348.31,140.039z"/>
<path fill="#FCEE21" d="M332.829,156.772c-0.923,1.975-2.679,3.104-3.921,2.524c-1.245-0.58-1.504-2.653-0.582-4.627
	c0.923-1.977,2.679-3.106,3.922-2.525C333.491,152.726,333.752,154.797,332.829,156.772z"/>
<path fill="#FCEE21" d="M372.23,79.69c-0.924,1.976-2.679,3.104-3.922,2.525c-1.244-0.581-1.504-2.653-0.581-4.627
	c0.923-1.975,2.679-3.106,3.922-2.524C372.893,75.644,373.151,77.716,372.23,79.69z"/>
<path fill="#FCEE21" d="M367.654,164.35c-0.923,1.976-2.678,3.104-3.921,2.524c-1.244-0.581-1.504-2.653-0.582-4.627
	c0.923-1.976,2.678-3.105,3.921-2.526C368.316,160.303,368.576,162.374,367.654,164.35z"/>
<ellipse transform="matrix(0.4231 -0.9061 0.9061 0.4231 31.4287 458.4154)" fill="#FCEE21" cx="375.713" cy="204.526" rx="3.948" ry="2.485"/>
<path fill="#FCEE21" d="M349.35,188.375c-0.923,1.975-2.679,3.104-3.922,2.523c-1.244-0.58-1.504-2.652-0.58-4.627
	c0.921-1.975,2.678-3.105,3.92-2.525C350.012,184.328,350.272,186.4,349.35,188.375z"/>
<path fill="#FCEE21" d="M321.386,188.375c-0.923,1.975-2.679,3.104-3.922,2.523c-1.244-0.58-1.503-2.652-0.58-4.627
	c0.922-1.975,2.678-3.105,3.92-2.525C322.048,184.328,322.309,186.4,321.386,188.375z"/>
<path fill="#FCEE21" d="M380.9,240.85c-0.924,1.976-2.678,3.104-3.922,2.524c-1.244-0.581-1.504-2.653-0.581-4.628
	c0.923-1.976,2.679-3.105,3.921-2.523C381.562,236.803,381.824,238.874,380.9,240.85z"/>
<path fill="#FCEE21" d="M404.93,222.426c-0.923,1.975-2.678,3.104-3.921,2.524c-1.245-0.58-1.504-2.653-0.582-4.627
	c0.923-1.976,2.679-3.106,3.923-2.525C405.592,218.379,405.853,220.45,404.93,222.426z"/>
<path fill="#FCEE21" d="M345.36,213.935c-0.922,1.976-2.678,3.104-3.922,2.525c-1.245-0.581-1.502-2.653-0.582-4.628
	c0.924-1.975,2.679-3.106,3.923-2.524C346.022,209.889,346.282,211.96,345.36,213.935z"/>
<ellipse transform="matrix(0.4231 -0.9061 0.9061 0.4231 -10.5759 409.1609)" fill="#FCEE21" cx="316.01" cy="212.885" rx="3.947" ry="2.485"/>
<path fill="#FCEE21" d="M332.369,246.344c-0.923,1.977-2.678,3.105-3.922,2.525c-1.245-0.581-1.504-2.654-0.581-4.628
	c0.922-1.976,2.678-3.104,3.921-2.524C333.031,242.298,333.292,244.369,332.369,246.344z"/>
<path fill="#FCEE21" d="M363.078,231.848c-0.923,1.977-2.679,3.105-3.922,2.525c-1.245-0.581-1.502-2.654-0.582-4.628
	c0.923-1.976,2.679-3.104,3.922-2.524C363.74,227.803,364,229.873,363.078,231.848z"/>
<path fill="#FCEE21" d="M385.958,178.078c-0.923,1.975-2.678,3.105-3.921,2.525c-1.245-0.582-1.504-2.654-0.582-4.629
	c0.924-1.975,2.679-3.105,3.922-2.523C386.621,174.031,386.881,176.104,385.958,178.078z"/>
<path fill="#FCEE21" d="M427.144,149.477c-0.922,1.976-2.678,3.105-3.922,2.525c-1.244-0.581-1.504-2.654-0.58-4.627
	c0.922-1.976,2.678-3.106,3.921-2.525S428.066,147.501,427.144,149.477z"/>
<path fill="#FCEE21" d="M427.144,176.934c-0.922,1.976-2.678,3.105-3.922,2.524c-1.244-0.58-1.504-2.653-0.58-4.627
	c0.922-1.976,2.678-3.106,3.921-2.524C427.806,172.888,428.066,174.959,427.144,176.934z"/>
<path fill="#FCEE21" d="M436.296,205.535c-0.924,1.976-2.678,3.104-3.922,2.525c-1.244-0.582-1.504-2.654-0.58-4.627
	c0.922-1.977,2.678-3.106,3.92-2.526C436.958,201.488,437.219,203.56,436.296,205.535z"/>
<path fill="#FCEE21" d="M406.491,168.053c-0.924,1.975-2.679,3.104-3.922,2.524c-1.244-0.581-1.504-2.653-0.582-4.628
	c0.924-1.975,2.68-3.105,3.922-2.523C407.153,164.006,407.413,166.078,406.491,168.053z"/>
<path fill="#FCEE21" d="M391.196,145.88c-0.923,1.975-2.678,3.104-3.921,2.524c-1.244-0.581-1.504-2.653-0.582-4.627
	c0.924-1.976,2.68-3.106,3.922-2.525C391.859,141.833,392.119,143.904,391.196,145.88z"/>
<path fill="#FCEE21" d="M407.694,128.884c-0.922,1.976-2.678,3.105-3.921,2.525c-1.245-0.581-1.504-2.653-0.581-4.627
	c0.924-1.976,2.678-3.106,3.922-2.525C408.357,124.838,408.618,126.909,407.694,128.884z"/>
<path fill="#FCEE21" d="M391.076,112.266c-0.923,1.976-2.678,3.105-3.922,2.525c-1.244-0.581-1.504-2.653-0.581-4.628
	c0.923-1.976,2.678-3.106,3.923-2.524C391.739,108.219,391.999,110.291,391.076,112.266z"/>
<ellipse transform="matrix(0.4231 -0.9061 0.9061 0.4231 94.5316 507.1012)" fill="#FCEE21" cx="445.495" cy="179.314" rx="3.947" ry="2.485"/>
<path fill="#FCEE21" d="M464.702,195.6c-0.924,1.975-2.68,3.104-3.923,2.525c-1.244-0.581-1.504-2.654-0.58-4.629
	c0.922-1.975,2.677-3.105,3.921-2.524C465.364,191.554,465.624,193.625,464.702,195.6z"/>
<ellipse transform="matrix(0.4233 -0.906 0.906 0.4233 122.0713 522.965)" fill="#FCEE21" cx="471.801" cy="165.601" rx="3.948" ry="2.484"/>
<path fill="#FCEE21" d="M407.694,196.383c-0.922,1.976-2.678,3.104-3.921,2.525c-1.245-0.582-1.504-2.653-0.581-4.629
	c0.924-1.975,2.678-3.104,3.922-2.523C408.357,192.336,408.618,194.408,407.694,196.383z"/>
<path fill="#FCEE21" d="M450.024,152.909c-0.922,1.976-2.679,3.104-3.921,2.525c-1.245-0.581-1.504-2.654-0.581-4.628
	c0.922-1.975,2.678-3.105,3.921-2.524C450.688,148.863,450.947,150.934,450.024,152.909z"/>
<path fill="#479800" d="M456.457,77.65c0,0,5.45-9.362,18.687-15.988c13.236-6.625,0.535-8.482-2.824-10.88
	c-3.358-2.398-6.855-0.302-12.658,2.486s-15.484,16.706-15.484,16.706L456.457,77.65"/>
<path fill="#B41112" d="M701.409,71.287c0,0-50.762-30.278-72.579-23.154c-21.819,7.125-37.403,18.257-45.418,34.286
	c-8.016,16.03-16.476,43.312-18.701,65.07c-2.227,21.758-2.226,42.687-8.015,64.06c-5.79,21.373,0.443,32.949,6.679,40.073
	c6.234,7.125,15.584,15.141,35.621,11.578c20.037-3.563,40.195-3.118,59.727-16.03c19.532-12.913,29.774-17.366,46.249-24.936
	s43.637-24.49,47.645-51.207c4.007-26.715,12.912-42.745-14.249-73.914C711.204,65.944,701.409,71.287,701.409,71.287z"/>
<path fill="#E05C5C" d="M626.127,66.07c0,0-7.424-11.333-21.108,6.793C591.334,90.99,579.85,119.77,579.85,119.77
	s-6.617,24.506-5.806,40.041s-19.343,48.736-0.069,38.897s27.323-9.815,33.847-31.737c6.525-21.92,7.321-32.643,22.882-41.481
	c15.56-8.839,12.674-12.323,6.939-25.306C631.908,87.199,634.84,74.248,626.127,66.07z"/>
<path fill="#479800" d="M766.169,151.715c0,0-7.532-8.938-8.561-17.825c-2.184-18.897,1.27-29.419-6.512-40.477
	c-7.779-11.059-23.487-17.685-26.289-19.12c-2.802-1.436-7.655-9.227-20.685-16.251c-13.028-7.025-18.457-13.695-27.108-7.161
	c-8.652,6.535-23.222,28.082-34.637,28.958c-11.415,0.877,40.369,24.016,56.84,5.051c16.473-18.966-14.561,7.075-13.565,27.557
	c0.996,20.481-1.805,33.55,7.067,33.494c8.871-0.056,14.139,1.52,20.662-7.136c6.525-8.656,13.686-35.763,13.686-35.763
	s0.98,20.812,17.009,32.408C760.105,147.046,766.169,151.715,766.169,151.715z"/>
<path fill="#479800" d="M680.274,55.524c0,0,2.771-18.263-26.57-16.136c-29.341,2.125-34.966-7.521-34.966-7.521
	s0.167,16.569,22.671,21.081C663.913,57.46,680.274,55.524,680.274,55.524z"/>
<ellipse transform="matrix(0.423 -0.9061 0.9061 0.423 290.2538 591.0135)" fill="#FCEE21" cx="609.213" cy="67.589" rx="3.948" ry="2.485"/>
<path fill="#FCEE21" d="M607.305,103.715c-0.924,1.976-2.679,3.105-3.922,2.525c-1.244-0.582-1.504-2.654-0.58-4.627
	c0.922-1.976,2.678-3.106,3.92-2.525C607.967,99.669,608.227,101.74,607.305,103.715z"/>
<path fill="#FCEE21" d="M593.576,89.987c-0.924,1.975-2.679,3.104-3.922,2.524c-1.245-0.581-1.504-2.653-0.581-4.627
	c0.924-1.975,2.679-3.106,3.921-2.525C594.238,85.94,594.498,88.011,593.576,89.987z"/>
<path fill="#FCEE21" d="M623.742,113.726c-0.923,1.975-2.678,3.104-3.921,2.525c-1.245-0.582-1.505-2.654-0.581-4.628
	c0.922-1.975,2.678-3.105,3.921-2.524C624.404,109.679,624.665,111.751,623.742,113.726z"/>
<path fill="#FCEE21" d="M630.32,136.23c-0.924,1.975-2.678,3.105-3.922,2.525c-1.244-0.581-1.504-2.653-0.581-4.627
	c0.924-1.975,2.678-3.106,3.923-2.525C630.982,132.184,631.243,134.255,630.32,136.23z"/>
<path fill="#FCEE21" d="M587.854,123.164c-0.922,1.976-2.677,3.105-3.921,2.525c-1.244-0.582-1.504-2.653-0.581-4.627
	c0.923-1.976,2.679-3.105,3.921-2.525C588.518,119.118,588.777,121.189,587.854,123.164z"/>
<path fill="#FCEE21" d="M606.266,140.039c-0.924,1.976-2.679,3.105-3.922,2.525c-1.245-0.581-1.505-2.653-0.581-4.627
	c0.923-1.975,2.678-3.106,3.922-2.525C606.928,135.992,607.188,138.063,606.266,140.039z"/>
<path fill="#FCEE21" d="M590.784,156.772c-0.923,1.975-2.679,3.104-3.921,2.524c-1.246-0.58-1.505-2.653-0.582-4.627
	c0.923-1.977,2.678-3.106,3.922-2.525C591.446,152.726,591.707,154.797,590.784,156.772z"/>
<path fill="#FCEE21" d="M630.186,79.69c-0.924,1.976-2.679,3.104-3.922,2.525c-1.244-0.581-1.504-2.653-0.582-4.627
	c0.924-1.975,2.68-3.106,3.922-2.524C630.848,75.644,631.106,77.716,630.186,79.69z"/>
<path fill="#FCEE21" d="M625.609,164.35c-0.924,1.976-2.679,3.104-3.922,2.524c-1.244-0.581-1.504-2.653-0.582-4.627
	c0.924-1.976,2.679-3.105,3.922-2.526C626.271,160.303,626.531,162.374,625.609,164.35z"/>
<ellipse transform="matrix(0.4231 -0.9061 0.9061 0.4231 180.2407 692.143)" fill="#FCEE21" cx="633.668" cy="204.526" rx="3.948" ry="2.485"/>
<path fill="#FCEE21" d="M607.305,188.375c-0.924,1.975-2.679,3.104-3.922,2.523c-1.244-0.58-1.504-2.652-0.58-4.627
	c0.922-1.975,2.678-3.105,3.92-2.525C607.967,184.328,608.227,186.4,607.305,188.375z"/>
<path fill="#FCEE21" d="M579.341,188.375c-0.923,1.975-2.679,3.104-3.922,2.523c-1.244-0.58-1.503-2.652-0.58-4.627
	c0.922-1.975,2.678-3.105,3.92-2.525C580.004,184.328,580.264,186.4,579.341,188.375z"/>
<path fill="#FCEE21" d="M638.855,240.85c-0.924,1.976-2.678,3.104-3.922,2.524c-1.244-0.581-1.504-2.653-0.581-4.628
	c0.923-1.976,2.679-3.105,3.921-2.523C639.518,236.803,639.779,238.874,638.855,240.85z"/>
<path fill="#FCEE21" d="M662.885,222.426c-0.923,1.975-2.678,3.104-3.921,2.524c-1.245-0.58-1.504-2.653-0.582-4.627
	c0.923-1.976,2.679-3.106,3.923-2.525C663.547,218.379,663.808,220.45,662.885,222.426z"/>
<path fill="#FCEE21" d="M603.314,213.935c-0.922,1.976-2.678,3.104-3.922,2.525c-1.244-0.581-1.502-2.653-0.581-4.628
	c0.924-1.975,2.679-3.106,3.923-2.524C603.978,209.889,604.237,211.96,603.314,213.935z"/>
<ellipse transform="matrix(0.4231 -0.9061 0.9061 0.4231 138.2501 642.895)" fill="#FCEE21" cx="573.965" cy="212.885" rx="3.947" ry="2.485"/>
<path fill="#FCEE21" d="M590.324,246.344c-0.924,1.977-2.678,3.105-3.922,2.525c-1.244-0.581-1.504-2.654-0.58-4.628
	c0.922-1.976,2.678-3.104,3.921-2.524C590.986,242.298,591.247,244.369,590.324,246.344z"/>
<path fill="#FCEE21" d="M621.033,231.848c-0.924,1.977-2.68,3.105-3.922,2.525c-1.245-0.581-1.503-2.654-0.582-4.628
	c0.924-1.976,2.679-3.104,3.922-2.524C621.695,227.803,621.955,229.873,621.033,231.848z"/>
<path fill="#FCEE21" d="M643.913,178.078c-0.923,1.975-2.678,3.105-3.921,2.525c-1.245-0.582-1.504-2.654-0.582-4.629
	c0.924-1.975,2.679-3.105,3.922-2.523C644.576,174.031,644.836,176.104,643.913,178.078z"/>
<path fill="#FCEE21" d="M685.099,149.477c-0.922,1.976-2.678,3.105-3.922,2.525c-1.244-0.581-1.504-2.654-0.58-4.627
	c0.922-1.976,2.678-3.106,3.921-2.525S686.021,147.501,685.099,149.477z"/>
<path fill="#FCEE21" d="M685.099,176.934c-0.922,1.976-2.678,3.105-3.922,2.524c-1.244-0.58-1.504-2.653-0.58-4.627
	c0.922-1.976,2.678-3.106,3.921-2.524C685.761,172.888,686.021,174.959,685.099,176.934z"/>
<path fill="#FCEE21" d="M694.251,205.535c-0.924,1.976-2.678,3.104-3.922,2.525c-1.244-0.582-1.504-2.654-0.58-4.627
	c0.922-1.977,2.678-3.106,3.92-2.526C694.913,201.488,695.174,203.56,694.251,205.535z"/>
<path fill="#FCEE21" d="M664.446,168.053c-0.924,1.975-2.679,3.104-3.922,2.524c-1.244-0.581-1.504-2.653-0.582-4.628
	c0.924-1.975,2.68-3.105,3.922-2.523C665.108,164.006,665.368,166.078,664.446,168.053z"/>
<path fill="#FCEE21" d="M649.151,145.88c-0.923,1.975-2.678,3.104-3.921,2.524c-1.244-0.581-1.504-2.653-0.582-4.627
	c0.924-1.976,2.68-3.106,3.922-2.525C649.814,141.833,650.074,143.904,649.151,145.88z"/>
<path fill="#FCEE21" d="M665.649,128.884c-0.922,1.976-2.678,3.105-3.921,2.525c-1.245-0.581-1.504-2.653-0.581-4.627
	c0.924-1.976,2.678-3.106,3.922-2.525C666.312,124.838,666.573,126.909,665.649,128.884z"/>
<path fill="#FCEE21" d="M649.031,112.266c-0.923,1.976-2.678,3.105-3.922,2.525c-1.244-0.581-1.504-2.653-0.581-4.628
	c0.923-1.976,2.678-3.106,3.923-2.524C649.694,108.219,649.954,110.291,649.031,112.266z"/>
<ellipse transform="matrix(0.4231 -0.9061 0.9061 0.4231 243.3453 740.8296)" fill="#FCEE21" cx="703.45" cy="179.314" rx="3.947" ry="2.485"/>
<path fill="#FCEE21" d="M722.657,195.6c-0.924,1.975-2.68,3.104-3.923,2.525c-1.244-0.581-1.504-2.654-0.58-4.629
	c0.922-1.975,2.677-3.105,3.921-2.524C723.319,191.554,723.579,193.625,722.657,195.6z"/>
<ellipse transform="matrix(0.4233 -0.906 0.906 0.4233 270.8448 756.6747)" fill="#FCEE21" cx="729.756" cy="165.601" rx="3.948" ry="2.484"/>
<path fill="#FCEE21" d="M665.649,196.383c-0.922,1.976-2.678,3.104-3.921,2.525c-1.245-0.582-1.504-2.653-0.581-4.629
	c0.924-1.975,2.678-3.104,3.922-2.523C666.312,192.336,666.573,194.408,665.649,196.383z"/>
<path fill="#FCEE21" d="M707.979,152.909c-0.922,1.976-2.679,3.104-3.921,2.525c-1.245-0.581-1.504-2.654-0.581-4.628
	c0.922-1.975,2.678-3.105,3.921-2.524C708.643,148.863,708.902,150.934,707.979,152.909z"/>
<path fill="#479800" d="M714.412,77.65c0,0,5.45-9.362,18.687-15.988c13.236-6.625,0.535-8.482-2.824-10.88
	c-3.358-2.398-6.855-0.302-12.658,2.486s-15.484,16.706-15.484,16.706L714.412,77.65"/>
<path fill="#B41112" d="M185.499,323.968c0,0-50.762-30.278-72.579-23.154c-21.819,7.125-37.403,18.257-45.418,34.286
	c-8.015,16.03-16.475,43.312-18.701,65.07c-2.227,21.758-2.226,42.687-8.015,64.06c-5.79,21.373,0.443,32.949,6.678,40.073
	c6.235,7.125,15.584,15.141,35.622,11.578c20.037-3.563,40.195-3.118,59.727-16.03c19.532-12.913,29.774-17.366,46.249-24.936
	s43.637-24.49,47.645-51.207c4.007-26.715,12.912-42.745-14.249-73.914C195.294,318.625,185.499,323.968,185.499,323.968z"/>
<path fill="#E05C5C" d="M110.216,318.751c0,0-7.423-11.333-21.108,6.793c-13.685,18.127-25.169,46.906-25.169,46.906
	s-6.617,24.506-5.806,40.041c0.812,15.535-19.343,48.736-0.069,38.897s27.323-9.815,33.847-31.737
	c6.525-21.92,7.321-32.643,22.882-41.481c15.56-8.839,12.674-12.323,6.939-25.306C115.998,339.881,118.93,326.93,110.216,318.751z"
	/>
<path fill="#479800" d="M250.259,404.396c0,0-7.532-8.938-8.561-17.824c-2.184-18.897,1.27-29.42-6.512-40.478
	c-7.779-11.059-23.487-17.685-26.289-19.12c-2.802-1.436-7.655-9.227-20.685-16.251c-13.028-7.025-18.457-13.695-27.108-7.161
	c-8.652,6.535-23.222,28.082-34.637,28.958c-11.415,0.877,40.369,24.016,56.84,5.051c16.473-18.966-14.561,7.075-13.565,27.557
	c0.996,20.481-1.805,33.55,7.067,33.494c8.871-0.056,14.139,1.521,20.662-7.136c6.525-8.656,13.686-35.764,13.686-35.764
	s0.98,20.812,17.009,32.408C244.195,399.728,250.259,404.396,250.259,404.396z"/>
<path fill="#479800" d="M164.364,312.206c0,0,2.771-18.263-26.57-16.136c-29.341,2.125-34.966-7.521-34.966-7.521
	s0.167,16.569,22.671,21.081C148.003,314.142,164.364,312.206,164.364,312.206z"/>
<ellipse transform="matrix(0.4231 -0.9061 0.9061 0.4231 -236.366 269.3108)" fill="#FCEE21" cx="93.303" cy="320.27" rx="3.948" ry="2.485"/>
<path fill="#FCEE21" d="M91.395,356.397c-0.923,1.976-2.679,3.105-3.922,2.525c-1.244-0.582-1.504-2.654-0.58-4.627
	c0.921-1.976,2.678-3.106,3.92-2.525C92.057,352.351,92.317,354.422,91.395,356.397z"/>
<path fill="#FCEE21" d="M77.666,342.669c-0.923,1.975-2.678,3.104-3.921,2.524c-1.245-0.581-1.504-2.653-0.581-4.627
	c0.924-1.975,2.678-3.106,3.921-2.525S78.588,340.693,77.666,342.669z"/>
<path fill="#FCEE21" d="M107.832,366.407c-0.923,1.976-2.678,3.104-3.921,2.525c-1.245-0.581-1.505-2.653-0.582-4.628
	c0.922-1.976,2.678-3.106,3.921-2.525C108.494,362.36,108.755,364.433,107.832,366.407z"/>
<path fill="#FCEE21" d="M114.41,388.912c-0.924,1.975-2.678,3.104-3.922,2.524c-1.245-0.581-1.503-2.653-0.581-4.628
	c0.924-1.975,2.678-3.105,3.922-2.524C115.072,384.865,115.333,386.937,114.41,388.912z"/>
<path fill="#FCEE21" d="M71.944,375.846c-0.922,1.976-2.677,3.105-3.92,2.525c-1.245-0.582-1.504-2.654-0.582-4.628
	c0.923-1.976,2.678-3.105,3.921-2.524C72.607,371.799,72.868,373.871,71.944,375.846z"/>
<path fill="#FCEE21" d="M90.355,392.721c-0.923,1.975-2.678,3.104-3.921,2.524c-1.245-0.581-1.505-2.653-0.581-4.628
	c0.923-1.975,2.678-3.105,3.922-2.524C91.018,388.674,91.278,390.745,90.355,392.721z"/>
<path fill="#FCEE21" d="M74.874,409.454c-0.923,1.975-2.679,3.104-3.921,2.524c-1.245-0.58-1.504-2.653-0.582-4.627
	c0.923-1.977,2.679-3.106,3.922-2.525C75.536,405.407,75.797,407.479,74.874,409.454z"/>
<path fill="#FCEE21" d="M114.275,332.372c-0.924,1.976-2.679,3.104-3.922,2.525c-1.244-0.581-1.504-2.653-0.581-4.627
	c0.923-1.975,2.679-3.106,3.922-2.524C114.938,328.326,115.196,330.397,114.275,332.372z"/>
<path fill="#FCEE21" d="M109.699,417.031c-0.923,1.976-2.678,3.104-3.921,2.524c-1.244-0.581-1.504-2.653-0.582-4.627
	c0.923-1.976,2.678-3.105,3.921-2.526C110.361,412.984,110.621,415.056,109.699,417.031z"/>
<ellipse transform="matrix(0.4231 -0.9061 0.9061 0.4231 -346.3328 370.4575)" fill="#FCEE21" cx="117.758" cy="457.208" rx="3.948" ry="2.485"/>
<path fill="#FCEE21" d="M91.395,441.057c-0.923,1.975-2.679,3.104-3.922,2.523c-1.244-0.58-1.504-2.652-0.58-4.627
	c0.921-1.975,2.678-3.105,3.92-2.525C92.057,437.01,92.317,439.082,91.395,441.057z"/>
<path fill="#FCEE21" d="M63.431,441.057c-0.923,1.975-2.679,3.104-3.922,2.523c-1.244-0.58-1.503-2.652-0.58-4.627
	c0.922-1.975,2.678-3.105,3.92-2.525C64.093,437.01,64.354,439.082,63.431,441.057z"/>
<path fill="#FCEE21" d="M122.945,493.531c-0.923,1.976-2.678,3.104-3.921,2.524c-1.245-0.581-1.505-2.653-0.582-4.628
	c0.923-1.976,2.678-3.105,3.921-2.523C123.607,489.484,123.869,491.556,122.945,493.531z"/>
<path fill="#FCEE21" d="M146.975,475.107c-0.923,1.975-2.678,3.104-3.921,2.524c-1.245-0.58-1.504-2.653-0.582-4.627
	c0.923-1.976,2.679-3.106,3.923-2.525C147.637,471.061,147.897,473.132,146.975,475.107z"/>
<path fill="#FCEE21" d="M87.405,466.616c-0.922,1.976-2.678,3.104-3.922,2.525c-1.245-0.581-1.502-2.653-0.582-4.628
	c0.924-1.975,2.679-3.106,3.923-2.524C88.067,462.57,88.327,464.642,87.405,466.616z"/>
<ellipse transform="matrix(0.4231 -0.9061 0.9061 0.4231 -388.3577 321.2102)" fill="#FCEE21" cx="58.055" cy="465.567" rx="3.947" ry="2.485"/>
<path fill="#FCEE21" d="M74.414,499.025c-0.923,1.977-2.678,3.105-3.922,2.525c-1.245-0.581-1.504-2.654-0.581-4.628
	c0.922-1.976,2.678-3.104,3.921-2.524C75.076,494.979,75.337,497.051,74.414,499.025z"/>
<path fill="#FCEE21" d="M105.123,484.529c-0.923,1.977-2.679,3.105-3.922,2.525c-1.245-0.581-1.502-2.654-0.582-4.628
	c0.923-1.976,2.679-3.104,3.922-2.524C105.785,480.484,106.045,482.555,105.123,484.529z"/>
<path fill="#FCEE21" d="M128.003,430.76c-0.922,1.975-2.678,3.105-3.921,2.525c-1.245-0.582-1.504-2.654-0.582-4.629
	c0.923-1.975,2.678-3.105,3.921-2.523C128.666,426.713,128.926,428.785,128.003,430.76z"/>
<path fill="#FCEE21" d="M169.188,402.158c-0.922,1.977-2.678,3.105-3.922,2.525c-1.244-0.581-1.504-2.654-0.58-4.627
	c0.922-1.977,2.678-3.106,3.921-2.525S170.111,400.184,169.188,402.158z"/>
<path fill="#FCEE21" d="M169.188,429.615c-0.922,1.976-2.678,3.105-3.922,2.524c-1.244-0.58-1.504-2.653-0.58-4.627
	c0.922-1.976,2.678-3.106,3.921-2.524C169.851,425.569,170.111,427.641,169.188,429.615z"/>
<path fill="#FCEE21" d="M178.341,458.217c-0.924,1.976-2.678,3.104-3.922,2.525c-1.244-0.582-1.504-2.654-0.58-4.627
	c0.922-1.977,2.678-3.106,3.92-2.526C179.003,454.17,179.264,456.241,178.341,458.217z"/>
<path fill="#FCEE21" d="M148.536,420.734c-0.924,1.975-2.679,3.104-3.922,2.524c-1.244-0.581-1.504-2.653-0.582-4.628
	c0.924-1.975,2.68-3.105,3.922-2.523C149.198,416.688,149.458,418.76,148.536,420.734z"/>
<path fill="#FCEE21" d="M133.241,398.562c-0.922,1.975-2.678,3.104-3.921,2.524c-1.244-0.58-1.503-2.652-0.581-4.627
	c0.923-1.976,2.679-3.106,3.921-2.525C133.904,394.515,134.164,396.586,133.241,398.562z"/>
<path fill="#FCEE21" d="M149.739,381.565c-0.922,1.976-2.678,3.105-3.921,2.525c-1.245-0.581-1.504-2.653-0.581-4.627
	c0.924-1.976,2.678-3.106,3.922-2.525C150.402,377.52,150.663,379.591,149.739,381.565z"/>
<path fill="#FCEE21" d="M133.121,364.947c-0.923,1.976-2.678,3.105-3.922,2.525c-1.244-0.581-1.503-2.653-0.581-4.628
	c0.923-1.976,2.678-3.106,3.922-2.524C133.784,360.901,134.044,362.972,133.121,364.947z"/>
<ellipse transform="matrix(0.4231 -0.9061 0.9061 0.4231 -283.2324 419.1442)" fill="#FCEE21" cx="187.54" cy="431.996" rx="3.947" ry="2.485"/>
<path fill="#FCEE21" d="M206.747,448.281c-0.924,1.975-2.68,3.104-3.923,2.525c-1.244-0.581-1.504-2.654-0.58-4.629
	c0.922-1.975,2.677-3.105,3.921-2.524C207.409,444.235,207.669,446.307,206.747,448.281z"/>
<ellipse transform="matrix(0.4233 -0.906 0.906 0.4233 -255.6342 434.9875)" fill="#FCEE21" cx="213.846" cy="418.283" rx="3.948" ry="2.484"/>
<path fill="#FCEE21" d="M149.739,449.064c-0.922,1.976-2.678,3.104-3.921,2.525c-1.245-0.582-1.504-2.653-0.581-4.629
	c0.924-1.975,2.678-3.104,3.922-2.523C150.402,445.018,150.663,447.09,149.739,449.064z"/>
<path fill="#FCEE21" d="M192.069,405.591c-0.922,1.976-2.679,3.104-3.921,2.525c-1.245-0.581-1.504-2.654-0.581-4.628
	c0.922-1.976,2.678-3.105,3.921-2.525C192.732,401.545,192.992,403.615,192.069,405.591z"/>
<path fill="#479800" d="M198.502,330.332c0,0,5.45-9.362,18.687-15.988c13.236-6.625,0.535-8.482-2.824-10.88
	c-3.358-2.398-6.855-0.302-12.658,2.486s-15.484,16.706-15.484,16.706L198.502,330.332"/>
<path fill="#B41112" d="M443.454,323.968c0,0-50.762-30.278-72.579-23.154c-21.819,7.125-37.403,18.257-45.418,34.286
	c-8.015,16.03-16.475,43.312-18.701,65.07c-2.227,21.758-2.226,42.687-8.015,64.06c-5.79,21.373,0.443,32.949,6.678,40.073
	c6.235,7.125,15.584,15.141,35.622,11.578c20.037-3.563,40.195-3.118,59.727-16.03c19.532-12.913,29.774-17.366,46.249-24.936
	s43.637-24.49,47.645-51.207c4.007-26.715,12.912-42.745-14.249-73.914C453.249,318.625,443.454,323.968,443.454,323.968z"/>
<path fill="#E05C5C" d="M368.171,318.751c0,0-7.423-11.333-21.108,6.793c-13.685,18.127-25.169,46.906-25.169,46.906
	s-6.617,24.506-5.806,40.041c0.812,15.535-19.343,48.736-0.069,38.897s27.323-9.815,33.847-31.737
	c6.525-21.92,7.321-32.643,22.882-41.481c15.56-8.839,12.674-12.323,6.939-25.306C373.953,339.881,376.885,326.93,368.171,318.751z"
	/>
<path fill="#479800" d="M508.214,404.396c0,0-7.532-8.938-8.561-17.824c-2.184-18.897,1.27-29.42-6.512-40.478
	c-7.779-11.059-23.487-17.685-26.289-19.12c-2.802-1.436-7.655-9.227-20.685-16.251c-13.028-7.025-18.457-13.695-27.108-7.161
	c-8.652,6.535-23.222,28.082-34.637,28.958c-11.415,0.877,40.369,24.016,56.84,5.051c16.473-18.966-14.561,7.075-13.565,27.557
	c0.996,20.481-1.805,33.55,7.067,33.494c8.871-0.056,14.139,1.521,20.662-7.136c6.525-8.656,13.686-35.764,13.686-35.764
	s0.98,20.812,17.009,32.408C502.15,399.728,508.214,404.396,508.214,404.396z"/>
<path fill="#479800" d="M422.319,312.206c0,0,2.771-18.263-26.57-16.136c-29.341,2.125-34.966-7.521-34.966-7.521
	s0.167,16.569,22.671,21.081C405.958,314.142,422.319,312.206,422.319,312.206z"/>
<ellipse transform="matrix(0.4231 -0.9061 0.9061 0.4231 -87.547 503.0417)" fill="#FCEE21" cx="351.258" cy="320.27" rx="3.948" ry="2.485"/>
<path fill="#FCEE21" d="M349.35,356.397c-0.923,1.976-2.679,3.105-3.922,2.525c-1.244-0.582-1.504-2.654-0.58-4.627
	c0.921-1.976,2.678-3.106,3.92-2.525C350.012,352.351,350.272,354.422,349.35,356.397z"/>
<path fill="#FCEE21" d="M335.621,342.669c-0.923,1.975-2.678,3.104-3.921,2.524c-1.245-0.581-1.504-2.653-0.581-4.627
	c0.924-1.975,2.678-3.106,3.921-2.525S336.543,340.693,335.621,342.669z"/>
<path fill="#FCEE21" d="M365.787,366.407c-0.923,1.976-2.678,3.104-3.921,2.525c-1.245-0.581-1.505-2.653-0.582-4.628
	c0.922-1.976,2.678-3.106,3.921-2.525C366.449,362.36,366.71,364.433,365.787,366.407z"/>
<path fill="#FCEE21" d="M372.365,388.912c-0.924,1.975-2.678,3.104-3.922,2.524c-1.245-0.581-1.503-2.653-0.581-4.628
	c0.924-1.975,2.678-3.105,3.922-2.524C373.027,384.865,373.288,386.937,372.365,388.912z"/>
<path fill="#FCEE21" d="M329.899,375.846c-0.922,1.976-2.677,3.105-3.92,2.525c-1.245-0.582-1.504-2.654-0.582-4.628
	c0.923-1.976,2.678-3.105,3.921-2.524C330.562,371.799,330.823,373.871,329.899,375.846z"/>
<path fill="#FCEE21" d="M348.31,392.721c-0.923,1.975-2.678,3.104-3.921,2.524c-1.245-0.581-1.505-2.653-0.581-4.628
	c0.923-1.975,2.678-3.105,3.922-2.524C348.973,388.674,349.233,390.745,348.31,392.721z"/>
<path fill="#FCEE21" d="M332.829,409.454c-0.923,1.975-2.679,3.104-3.921,2.524c-1.245-0.58-1.504-2.653-0.582-4.627
	c0.923-1.977,2.679-3.106,3.922-2.525C333.491,405.407,333.752,407.479,332.829,409.454z"/>
<path fill="#FCEE21" d="M372.23,332.372c-0.924,1.976-2.679,3.104-3.922,2.525c-1.244-0.581-1.504-2.653-0.581-4.627
	c0.923-1.975,2.679-3.106,3.922-2.524C372.893,328.326,373.151,330.397,372.23,332.372z"/>
<path fill="#FCEE21" d="M367.654,417.031c-0.923,1.976-2.678,3.104-3.921,2.524c-1.244-0.581-1.504-2.653-0.582-4.627
	c0.923-1.976,2.678-3.105,3.921-2.526C368.316,412.984,368.576,415.056,367.654,417.031z"/>
<ellipse transform="matrix(0.4231 -0.9061 0.9061 0.4231 -197.5208 604.1852)" fill="#FCEE21" cx="375.713" cy="457.208" rx="3.948" ry="2.485"/>
<path fill="#FCEE21" d="M349.35,441.057c-0.923,1.975-2.679,3.104-3.922,2.523c-1.244-0.58-1.504-2.652-0.58-4.627
	c0.921-1.975,2.678-3.105,3.92-2.525C350.012,437.01,350.272,439.082,349.35,441.057z"/>
<path fill="#FCEE21" d="M321.386,441.057c-0.923,1.975-2.679,3.104-3.922,2.523c-1.244-0.58-1.503-2.652-0.58-4.627
	c0.922-1.975,2.678-3.105,3.92-2.525C322.048,437.01,322.309,439.082,321.386,441.057z"/>
<path fill="#FCEE21" d="M380.9,493.531c-0.924,1.976-2.678,3.104-3.922,2.524c-1.244-0.581-1.504-2.653-0.581-4.628
	c0.923-1.976,2.679-3.105,3.921-2.523C381.562,489.484,381.824,491.556,380.9,493.531z"/>
<path fill="#FCEE21" d="M404.93,475.107c-0.923,1.975-2.678,3.104-3.921,2.524c-1.245-0.58-1.504-2.653-0.582-4.627
	c0.923-1.976,2.679-3.106,3.923-2.525C405.592,471.061,405.853,473.132,404.93,475.107z"/>
<path fill="#FCEE21" d="M345.36,466.616c-0.922,1.976-2.678,3.104-3.922,2.525c-1.245-0.581-1.502-2.653-0.582-4.628
	c0.924-1.975,2.679-3.106,3.923-2.524C346.022,462.57,346.282,464.642,345.36,466.616z"/>
<ellipse transform="matrix(0.4231 -0.9061 0.9061 0.4231 -239.5317 554.9443)" fill="#FCEE21" cx="316.01" cy="465.567" rx="3.947" ry="2.485"/>
<path fill="#FCEE21" d="M332.369,499.025c-0.923,1.977-2.678,3.105-3.922,2.525c-1.245-0.581-1.504-2.654-0.581-4.628
	c0.922-1.976,2.678-3.104,3.921-2.524C333.031,494.979,333.292,497.051,332.369,499.025z"/>
<path fill="#FCEE21" d="M363.078,484.529c-0.923,1.977-2.679,3.105-3.922,2.525c-1.245-0.581-1.502-2.654-0.582-4.628
	c0.923-1.976,2.679-3.104,3.922-2.524C363.74,480.484,364,482.555,363.078,484.529z"/>
<path fill="#FCEE21" d="M385.958,430.76c-0.923,1.975-2.678,3.105-3.921,2.525c-1.245-0.582-1.504-2.654-0.582-4.629
	c0.924-1.975,2.679-3.105,3.922-2.523C386.621,426.713,386.881,428.785,385.958,430.76z"/>
<path fill="#FCEE21" d="M427.144,402.158c-0.922,1.977-2.678,3.105-3.922,2.525c-1.244-0.581-1.504-2.654-0.58-4.627
	c0.922-1.977,2.678-3.106,3.921-2.525S428.066,400.184,427.144,402.158z"/>
<path fill="#FCEE21" d="M427.144,429.615c-0.922,1.976-2.678,3.105-3.922,2.524c-1.244-0.58-1.504-2.653-0.58-4.627
	c0.922-1.976,2.678-3.106,3.921-2.524C427.806,425.569,428.066,427.641,427.144,429.615z"/>
<path fill="#FCEE21" d="M436.296,458.217c-0.924,1.976-2.678,3.104-3.922,2.525c-1.244-0.582-1.504-2.654-0.58-4.627
	c0.922-1.977,2.678-3.106,3.92-2.526C436.958,454.17,437.219,456.241,436.296,458.217z"/>
<path fill="#FCEE21" d="M406.491,420.734c-0.924,1.975-2.679,3.104-3.922,2.524c-1.244-0.581-1.504-2.653-0.582-4.628
	c0.924-1.975,2.68-3.105,3.922-2.523C407.153,416.688,407.413,418.76,406.491,420.734z"/>
<path fill="#FCEE21" d="M391.196,398.562c-0.923,1.975-2.678,3.104-3.921,2.524c-1.244-0.58-1.504-2.652-0.582-4.627
	c0.924-1.976,2.68-3.106,3.922-2.525C391.859,394.515,392.119,396.586,391.196,398.562z"/>
<path fill="#FCEE21" d="M407.694,381.565c-0.922,1.976-2.678,3.105-3.921,2.525c-1.245-0.581-1.504-2.653-0.581-4.627
	c0.924-1.976,2.678-3.106,3.922-2.525C408.357,377.52,408.618,379.591,407.694,381.565z"/>
<path fill="#FCEE21" d="M391.076,364.947c-0.923,1.976-2.678,3.105-3.922,2.525c-1.244-0.581-1.504-2.653-0.581-4.628
	c0.923-1.976,2.678-3.106,3.923-2.524C391.739,360.901,391.999,362.972,391.076,364.947z"/>
<ellipse transform="matrix(0.4231 -0.9061 0.9061 0.4231 -134.4187 652.8727)" fill="#FCEE21" cx="445.495" cy="431.996" rx="3.947" ry="2.485"/>
<path fill="#FCEE21" d="M464.702,448.281c-0.924,1.975-2.68,3.104-3.923,2.525c-1.244-0.581-1.504-2.654-0.58-4.629
	c0.922-1.975,2.677-3.105,3.921-2.524C465.364,444.235,465.624,446.307,464.702,448.281z"/>
<ellipse transform="matrix(0.4233 -0.906 0.906 0.4233 -106.8606 668.6971)" fill="#FCEE21" cx="471.801" cy="418.283" rx="3.948" ry="2.484"/>
<path fill="#FCEE21" d="M407.694,449.064c-0.922,1.976-2.678,3.104-3.921,2.525c-1.245-0.582-1.504-2.653-0.581-4.629
	c0.924-1.975,2.678-3.104,3.922-2.523C408.357,445.018,408.618,447.09,407.694,449.064z"/>
<path fill="#FCEE21" d="M450.024,405.591c-0.922,1.976-2.679,3.104-3.921,2.525c-1.245-0.581-1.504-2.654-0.581-4.628
	c0.922-1.976,2.678-3.105,3.921-2.525C450.688,401.545,450.947,403.615,450.024,405.591z"/>
<path fill="#479800" d="M456.457,330.332c0,0,5.45-9.362,18.687-15.988c13.236-6.625,0.535-8.482-2.824-10.88
	c-3.358-2.398-6.855-0.302-12.658,2.486s-15.484,16.706-15.484,16.706L456.457,330.332"/>
<path fill="#B41112" d="M701.409,323.968c0,0-50.762-30.278-72.579-23.154c-21.819,7.125-37.403,18.257-45.418,34.286
	c-8.016,16.03-16.476,43.312-18.701,65.07c-2.227,21.758-2.226,42.687-8.015,64.06c-5.79,21.373,0.443,32.949,6.679,40.073
	c6.234,7.125,15.584,15.141,35.621,11.578c20.037-3.563,40.195-3.118,59.727-16.03c19.532-12.913,29.774-17.366,46.249-24.936
	s43.637-24.49,47.645-51.207c4.007-26.715,12.912-42.745-14.249-73.914C711.204,318.625,701.409,323.968,701.409,323.968z"/>
<path fill="#E05C5C" d="M626.127,318.751c0,0-7.424-11.333-21.108,6.793c-13.685,18.127-25.169,46.906-25.169,46.906
	s-6.617,24.506-5.806,40.041s-19.343,48.736-0.069,38.897s27.323-9.815,33.847-31.737c6.525-21.92,7.321-32.643,22.882-41.481
	c15.56-8.839,12.674-12.323,6.939-25.306C631.908,339.881,634.84,326.93,626.127,318.751z"/>
<path fill="#479800" d="M766.169,404.396c0,0-7.532-8.938-8.561-17.824c-2.184-18.897,1.27-29.42-6.512-40.478
	c-7.779-11.059-23.487-17.685-26.289-19.12c-2.802-1.436-7.655-9.227-20.685-16.251c-13.028-7.025-18.457-13.695-27.108-7.161
	c-8.652,6.535-23.222,28.082-34.637,28.958c-11.415,0.877,40.369,24.016,56.84,5.051c16.473-18.966-14.561,7.075-13.565,27.557
	c0.996,20.481-1.805,33.55,7.067,33.494c8.871-0.056,14.139,1.521,20.662-7.136c6.525-8.656,13.686-35.764,13.686-35.764
	s0.98,20.812,17.009,32.408C760.105,399.728,766.169,404.396,766.169,404.396z"/>
<path fill="#479800" d="M680.274,312.206c0,0,2.771-18.263-26.57-16.136c-29.341,2.125-34.966-7.521-34.966-7.521
	s0.167,16.569,22.671,21.081C663.913,314.142,680.274,312.206,680.274,312.206z"/>
<ellipse transform="matrix(0.423 -0.9061 0.9061 0.423 61.2952 736.803)" fill="#FCEE21" cx="609.213" cy="320.27" rx="3.948" ry="2.485"/>
<path fill="#FCEE21" d="M607.305,356.397c-0.924,1.976-2.679,3.105-3.922,2.525c-1.244-0.582-1.504-2.654-0.58-4.627
	c0.922-1.976,2.678-3.106,3.92-2.525C607.967,352.351,608.227,354.422,607.305,356.397z"/>
<path fill="#FCEE21" d="M593.576,342.669c-0.924,1.975-2.679,3.104-3.922,2.524c-1.245-0.581-1.504-2.653-0.581-4.627
	c0.924-1.975,2.679-3.106,3.921-2.525C594.238,338.622,594.498,340.693,593.576,342.669z"/>
<path fill="#FCEE21" d="M623.742,366.407c-0.923,1.976-2.678,3.104-3.921,2.525c-1.245-0.581-1.505-2.653-0.581-4.628
	c0.922-1.976,2.678-3.106,3.921-2.525C624.404,362.36,624.665,364.433,623.742,366.407z"/>
<path fill="#FCEE21" d="M630.32,388.912c-0.924,1.975-2.678,3.104-3.922,2.524c-1.244-0.581-1.504-2.653-0.581-4.628
	c0.924-1.975,2.678-3.105,3.923-2.524C630.982,384.865,631.243,386.937,630.32,388.912z"/>
<path fill="#FCEE21" d="M587.854,375.846c-0.922,1.976-2.677,3.105-3.921,2.525c-1.244-0.582-1.504-2.654-0.581-4.628
	c0.923-1.976,2.679-3.105,3.921-2.524C588.518,371.799,588.777,373.871,587.854,375.846z"/>
<path fill="#FCEE21" d="M606.266,392.721c-0.924,1.975-2.679,3.104-3.922,2.524c-1.245-0.581-1.505-2.653-0.581-4.628
	c0.923-1.975,2.678-3.105,3.922-2.524C606.928,388.674,607.188,390.745,606.266,392.721z"/>
<path fill="#FCEE21" d="M590.784,409.454c-0.923,1.975-2.679,3.104-3.921,2.524c-1.246-0.58-1.505-2.653-0.582-4.627
	c0.923-1.977,2.678-3.106,3.922-2.525C591.446,405.407,591.707,407.479,590.784,409.454z"/>
<path fill="#FCEE21" d="M630.186,332.372c-0.924,1.976-2.679,3.104-3.922,2.525c-1.244-0.581-1.504-2.653-0.582-4.627
	c0.924-1.975,2.68-3.106,3.922-2.524C630.848,328.326,631.106,330.397,630.186,332.372z"/>
<path fill="#FCEE21" d="M625.609,417.031c-0.924,1.976-2.679,3.104-3.922,2.524c-1.244-0.581-1.504-2.653-0.582-4.627
	c0.924-1.976,2.679-3.105,3.922-2.526C626.271,412.984,626.531,415.056,625.609,417.031z"/>
<ellipse transform="matrix(0.4231 -0.9061 0.9061 0.4231 -48.7088 837.9128)" fill="#FCEE21" cx="633.668" cy="457.208" rx="3.948" ry="2.485"/>
<path fill="#FCEE21" d="M607.305,441.057c-0.924,1.975-2.679,3.104-3.922,2.523c-1.244-0.58-1.504-2.652-0.58-4.627
	c0.922-1.975,2.678-3.105,3.92-2.525C607.967,437.01,608.227,439.082,607.305,441.057z"/>
<path fill="#FCEE21" d="M579.341,441.057c-0.923,1.975-2.679,3.104-3.922,2.523c-1.244-0.58-1.503-2.652-0.58-4.627
	c0.922-1.975,2.678-3.105,3.92-2.525C580.004,437.01,580.264,439.082,579.341,441.057z"/>
<path fill="#FCEE21" d="M638.855,493.531c-0.924,1.976-2.678,3.104-3.922,2.524c-1.244-0.581-1.504-2.653-0.581-4.628
	c0.923-1.976,2.679-3.105,3.921-2.523C639.518,489.484,639.779,491.556,638.855,493.531z"/>
<path fill="#FCEE21" d="M662.885,475.107c-0.923,1.975-2.678,3.104-3.921,2.524c-1.245-0.58-1.504-2.653-0.582-4.627
	c0.923-1.976,2.679-3.106,3.923-2.525C663.547,471.061,663.808,473.132,662.885,475.107z"/>
<path fill="#FCEE21" d="M603.314,466.616c-0.922,1.976-2.678,3.104-3.922,2.525c-1.244-0.581-1.502-2.653-0.581-4.628
	c0.924-1.975,2.679-3.106,3.923-2.524C603.978,462.57,604.237,464.642,603.314,466.616z"/>
<ellipse transform="matrix(0.4231 -0.9061 0.9061 0.4231 -90.7058 788.6785)" fill="#FCEE21" cx="573.965" cy="465.567" rx="3.947" ry="2.485"/>
<path fill="#FCEE21" d="M590.324,499.025c-0.924,1.977-2.678,3.105-3.922,2.525c-1.244-0.581-1.504-2.654-0.58-4.628
	c0.922-1.976,2.678-3.104,3.921-2.524C590.986,494.979,591.247,497.051,590.324,499.025z"/>
<path fill="#FCEE21" d="M621.033,484.529c-0.924,1.977-2.68,3.105-3.922,2.525c-1.245-0.581-1.503-2.654-0.582-4.628
	c0.924-1.976,2.679-3.104,3.922-2.524C621.695,480.484,621.955,482.555,621.033,484.529z"/>
<path fill="#FCEE21" d="M643.913,430.76c-0.923,1.975-2.678,3.105-3.921,2.525c-1.245-0.582-1.504-2.654-0.582-4.629
	c0.924-1.975,2.679-3.105,3.922-2.523C644.576,426.713,644.836,428.785,643.913,430.76z"/>
<path fill="#FCEE21" d="M685.099,402.158c-0.922,1.977-2.678,3.105-3.922,2.525c-1.244-0.581-1.504-2.654-0.58-4.627
	c0.922-1.977,2.678-3.106,3.921-2.525S686.021,400.184,685.099,402.158z"/>
<path fill="#FCEE21" d="M685.099,429.615c-0.922,1.976-2.678,3.105-3.922,2.524c-1.244-0.58-1.504-2.653-0.58-4.627
	c0.922-1.976,2.678-3.106,3.921-2.524C685.761,425.569,686.021,427.641,685.099,429.615z"/>
<path fill="#FCEE21" d="M694.251,458.217c-0.924,1.976-2.678,3.104-3.922,2.525c-1.244-0.582-1.504-2.654-0.58-4.627
	c0.922-1.977,2.678-3.106,3.92-2.526C694.913,454.17,695.174,456.241,694.251,458.217z"/>
<path fill="#FCEE21" d="M664.446,420.734c-0.924,1.975-2.679,3.104-3.922,2.524c-1.244-0.581-1.504-2.653-0.582-4.628
	c0.924-1.975,2.68-3.105,3.922-2.523C665.108,416.688,665.368,418.76,664.446,420.734z"/>
<path fill="#FCEE21" d="M649.151,398.562c-0.923,1.975-2.678,3.104-3.921,2.524c-1.244-0.58-1.504-2.652-0.582-4.627
	c0.924-1.976,2.68-3.106,3.922-2.525C649.814,394.515,650.074,396.586,649.151,398.562z"/>
<path fill="#FCEE21" d="M665.649,381.565c-0.922,1.976-2.678,3.105-3.921,2.525c-1.245-0.581-1.504-2.653-0.581-4.627
	c0.924-1.976,2.678-3.106,3.922-2.525C666.312,377.52,666.573,379.591,665.649,381.565z"/>
<path fill="#FCEE21" d="M649.031,364.947c-0.923,1.976-2.678,3.105-3.922,2.525c-1.244-0.581-1.504-2.653-0.581-4.628
	c0.923-1.976,2.678-3.106,3.923-2.524C649.694,360.901,649.954,362.972,649.031,364.947z"/>
<ellipse transform="matrix(0.4231 -0.9061 0.9061 0.4231 14.395 886.6011)" fill="#FCEE21" cx="703.45" cy="431.996" rx="3.947" ry="2.485"/>
<path fill="#FCEE21" d="M722.657,448.281c-0.924,1.975-2.68,3.104-3.923,2.525c-1.244-0.581-1.504-2.654-0.58-4.629
	c0.922-1.975,2.677-3.105,3.921-2.524C723.319,444.235,723.579,446.307,722.657,448.281z"/>
<ellipse transform="matrix(0.4233 -0.906 0.906 0.4233 41.913 902.4069)" fill="#FCEE21" cx="729.756" cy="418.283" rx="3.948" ry="2.484"/>
<path fill="#FCEE21" d="M665.649,449.064c-0.922,1.976-2.678,3.104-3.921,2.525c-1.245-0.582-1.504-2.653-0.581-4.629
	c0.924-1.975,2.678-3.104,3.922-2.523C666.312,445.018,666.573,447.09,665.649,449.064z"/>
<path fill="#FCEE21" d="M707.979,405.591c-0.922,1.976-2.679,3.104-3.921,2.525c-1.245-0.581-1.504-2.654-0.581-4.628
	c0.922-1.976,2.678-3.105,3.921-2.525C708.643,401.545,708.902,403.615,707.979,405.591z"/>
<path fill="#479800" d="M714.412,330.332c0,0,5.45-9.362,18.687-15.988c13.236-6.625,0.535-8.482-2.824-10.88
	c-3.358-2.398-6.855-0.302-12.658,2.486s-15.484,16.706-15.484,16.706L714.412,330.332"/>
<path fill="#B41112" d="M185.499,578.121c0,0-50.762-30.277-72.579-23.153c-21.819,7.124-37.403,18.257-45.418,34.286
	c-8.015,16.03-16.475,43.312-18.701,65.07c-2.227,21.758-2.226,42.687-8.015,64.06c-5.79,21.373,0.443,32.949,6.678,40.073
	c6.235,7.125,15.584,15.141,35.622,11.578c20.037-3.563,40.195-3.118,59.727-16.03c19.532-12.913,29.774-17.366,46.249-24.936
	s43.637-24.49,47.645-51.207c4.007-26.715,12.912-42.745-14.249-73.914C195.294,572.779,185.499,578.121,185.499,578.121z"/>
<path fill="#E05C5C" d="M110.216,572.904c0,0-7.423-11.332-21.108,6.794c-13.685,18.127-25.169,46.906-25.169,46.906
	s-6.617,24.506-5.806,40.041c0.812,15.535-19.343,48.736-0.069,38.897s27.323-9.815,33.847-31.737
	c6.525-21.92,7.321-32.643,22.882-41.481c15.56-8.839,12.674-12.323,6.939-25.307S118.93,581.083,110.216,572.904z"/>
<path fill="#479800" d="M250.259,658.55c0,0-7.532-8.938-8.561-17.824c-2.184-18.897,1.27-29.42-6.512-40.478
	c-7.779-11.059-23.487-17.686-26.289-19.12c-2.802-1.437-7.655-9.227-20.685-16.251c-13.028-7.025-18.457-13.695-27.108-7.16
	c-8.652,6.535-23.222,28.081-34.637,28.957c-11.415,0.877,40.369,24.016,56.84,5.051c16.473-18.966-14.561,7.074-13.565,27.557
	c0.996,20.481-1.805,33.55,7.067,33.494c8.871-0.056,14.139,1.521,20.662-7.136c6.525-8.656,13.686-35.764,13.686-35.764
	s0.98,20.812,17.009,32.408C244.195,653.881,250.259,658.55,250.259,658.55z"/>
<path fill="#479800" d="M164.364,562.359c0,0,2.771-18.263-26.57-16.137c-29.341,2.126-34.966-7.52-34.966-7.52
	s0.167,16.568,22.671,21.08S164.364,562.359,164.364,562.359z"/>
<ellipse transform="matrix(0.4231 -0.9061 0.9061 0.4231 -466.6477 415.9216)" fill="#FCEE21" cx="93.303" cy="574.423" rx="3.947" ry="2.485"/>
<path fill="#FCEE21" d="M91.395,610.551c-0.923,1.975-2.679,3.104-3.922,2.525c-1.244-0.582-1.504-2.654-0.58-4.628
	c0.921-1.976,2.678-3.106,3.92-2.525C92.057,606.504,92.317,608.575,91.395,610.551z"/>
<path fill="#FCEE21" d="M77.666,596.822c-0.923,1.975-2.678,3.104-3.921,2.524c-1.245-0.581-1.504-2.653-0.581-4.628
	c0.924-1.975,2.678-3.105,3.921-2.524S78.588,594.846,77.666,596.822z"/>
<path fill="#FCEE21" d="M107.832,620.561c-0.923,1.976-2.678,3.104-3.921,2.525c-1.245-0.581-1.505-2.653-0.582-4.628
	c0.922-1.976,2.678-3.106,3.921-2.524C108.494,616.514,108.755,618.586,107.832,620.561z"/>
<path fill="#FCEE21" d="M114.41,643.065c-0.924,1.975-2.678,3.104-3.922,2.524c-1.245-0.581-1.503-2.653-0.581-4.628
	c0.924-1.975,2.678-3.105,3.922-2.524C115.072,639.019,115.333,641.09,114.41,643.065z"/>
<path fill="#FCEE21" d="M71.944,629.999c-0.922,1.976-2.677,3.105-3.92,2.525c-1.245-0.582-1.504-2.654-0.582-4.628
	c0.923-1.976,2.678-3.105,3.921-2.524C72.607,625.952,72.868,628.024,71.944,629.999z"/>
<path fill="#FCEE21" d="M90.355,646.874c-0.923,1.975-2.678,3.104-3.921,2.524c-1.245-0.581-1.505-2.653-0.581-4.628
	c0.923-1.975,2.678-3.105,3.922-2.524C91.018,642.827,91.278,644.898,90.355,646.874z"/>
<path fill="#FCEE21" d="M74.874,663.607c-0.923,1.975-2.679,3.104-3.921,2.524c-1.245-0.58-1.504-2.653-0.582-4.627
	c0.923-1.977,2.679-3.106,3.922-2.525C75.536,659.561,75.797,661.632,74.874,663.607z"/>
<path fill="#FCEE21" d="M114.275,586.525c-0.924,1.976-2.679,3.104-3.922,2.525c-1.244-0.581-1.504-2.653-0.581-4.628
	c0.923-1.975,2.679-3.106,3.922-2.524C114.938,582.479,115.196,584.551,114.275,586.525z"/>
<path fill="#FCEE21" d="M109.699,671.185c-0.923,1.976-2.678,3.104-3.921,2.524c-1.244-0.581-1.504-2.653-0.582-4.627
	c0.923-1.976,2.678-3.105,3.921-2.526C110.361,667.138,110.621,669.209,109.699,671.185z"/>
<ellipse transform="matrix(0.4231 -0.9061 0.9061 0.4231 -576.6157 517.0763)" fill="#FCEE21" cx="117.758" cy="711.361" rx="3.948" ry="2.485"/>
<path fill="#FCEE21" d="M91.395,695.21c-0.923,1.975-2.679,3.104-3.922,2.523c-1.244-0.58-1.504-2.652-0.58-4.627
	c0.921-1.975,2.678-3.105,3.92-2.525C92.057,691.163,92.317,693.235,91.395,695.21z"/>
<path fill="#FCEE21" d="M63.431,695.21c-0.923,1.975-2.679,3.104-3.922,2.523c-1.244-0.58-1.503-2.652-0.58-4.627
	c0.922-1.975,2.678-3.105,3.92-2.525C64.093,691.163,64.354,693.235,63.431,695.21z"/>
<path fill="#FCEE21" d="M122.945,747.685c-0.923,1.976-2.678,3.104-3.921,2.524c-1.245-0.581-1.505-2.653-0.582-4.628
	c0.923-1.976,2.678-3.105,3.921-2.523C123.607,743.638,123.869,745.709,122.945,747.685z"/>
<path fill="#FCEE21" d="M146.975,729.261c-0.923,1.975-2.678,3.104-3.921,2.524c-1.245-0.58-1.504-2.653-0.582-4.627
	c0.923-1.976,2.679-3.106,3.923-2.525C147.637,725.214,147.897,727.285,146.975,729.261z"/>
<path fill="#FCEE21" d="M87.405,720.77c-0.922,1.976-2.678,3.104-3.922,2.525c-1.245-0.581-1.502-2.653-0.582-4.628
	c0.924-1.975,2.679-3.106,3.923-2.524C88.067,716.724,88.327,718.795,87.405,720.77z"/>
<ellipse transform="matrix(0.4231 -0.9061 0.9061 0.4231 -618.647 467.8427)" fill="#FCEE21" cx="58.055" cy="719.72" rx="3.947" ry="2.485"/>
<path fill="#FCEE21" d="M74.414,753.179c-0.923,1.977-2.678,3.105-3.922,2.525c-1.245-0.581-1.504-2.654-0.581-4.628
	c0.922-1.976,2.678-3.104,3.921-2.524C75.076,749.133,75.337,751.204,74.414,753.179z"/>
<path fill="#FCEE21" d="M105.123,738.683c-0.923,1.977-2.679,3.105-3.922,2.525c-1.245-0.581-1.502-2.654-0.582-4.628
	c0.923-1.976,2.679-3.104,3.922-2.524C105.785,734.638,106.045,736.708,105.123,738.683z"/>
<path fill="#FCEE21" d="M128.003,684.913c-0.922,1.975-2.678,3.105-3.921,2.525c-1.245-0.582-1.504-2.654-0.582-4.629
	c0.923-1.975,2.678-3.105,3.921-2.523C128.666,680.866,128.926,682.938,128.003,684.913z"/>
<path fill="#FCEE21" d="M169.188,656.312c-0.922,1.977-2.678,3.105-3.922,2.525c-1.244-0.581-1.504-2.654-0.58-4.627
	c0.922-1.977,2.678-3.106,3.921-2.525S170.111,654.337,169.188,656.312z"/>
<path fill="#FCEE21" d="M169.188,683.769c-0.922,1.976-2.678,3.105-3.922,2.524c-1.244-0.58-1.504-2.653-0.58-4.627
	c0.922-1.976,2.678-3.106,3.921-2.524C169.851,679.723,170.111,681.794,169.188,683.769z"/>
<path fill="#FCEE21" d="M178.341,712.37c-0.924,1.976-2.678,3.104-3.922,2.525c-1.244-0.582-1.504-2.654-0.58-4.627
	c0.922-1.977,2.678-3.106,3.92-2.526C179.003,708.323,179.264,710.395,178.341,712.37z"/>
<path fill="#FCEE21" d="M148.536,674.888c-0.924,1.975-2.679,3.104-3.922,2.524c-1.244-0.581-1.504-2.653-0.582-4.628
	c0.924-1.975,2.68-3.105,3.922-2.523C149.198,670.841,149.458,672.913,148.536,674.888z"/>
<path fill="#FCEE21" d="M133.241,652.715c-0.922,1.975-2.678,3.104-3.921,2.524c-1.244-0.58-1.503-2.652-0.581-4.627
	c0.923-1.976,2.679-3.106,3.921-2.525C133.904,648.668,134.164,650.739,133.241,652.715z"/>
<path fill="#FCEE21" d="M149.739,635.719c-0.922,1.976-2.678,3.105-3.921,2.525c-1.245-0.581-1.504-2.653-0.581-4.627
	c0.924-1.976,2.678-3.106,3.922-2.525C150.402,631.673,150.663,633.744,149.739,635.719z"/>
<path fill="#FCEE21" d="M133.121,619.101c-0.923,1.976-2.678,3.105-3.922,2.525c-1.244-0.581-1.503-2.653-0.581-4.628
	c0.923-1.976,2.678-3.105,3.922-2.524C133.784,615.055,134.044,617.125,133.121,619.101z"/>
<ellipse transform="matrix(0.4231 -0.9061 0.9061 0.4231 -513.5162 565.7647)" fill="#FCEE21" cx="187.54" cy="686.149" rx="3.947" ry="2.485"/>
<path fill="#FCEE21" d="M206.747,702.435c-0.924,1.975-2.68,3.104-3.923,2.525c-1.244-0.581-1.504-2.654-0.58-4.629
	c0.922-1.975,2.677-3.105,3.921-2.524C207.409,698.389,207.669,700.46,206.747,702.435z"/>
<ellipse transform="matrix(0.4233 -0.906 0.906 0.4233 -485.8994 581.5684)" fill="#FCEE21" cx="213.846" cy="672.436" rx="3.948" ry="2.484"/>
<path fill="#FCEE21" d="M149.739,703.218c-0.922,1.976-2.678,3.104-3.921,2.525c-1.245-0.582-1.504-2.653-0.581-4.629
	c0.924-1.975,2.678-3.104,3.922-2.523C150.402,699.171,150.663,701.243,149.739,703.218z"/>
<path fill="#FCEE21" d="M192.069,659.744c-0.922,1.976-2.679,3.104-3.921,2.525c-1.245-0.581-1.504-2.654-0.581-4.628
	c0.922-1.976,2.678-3.105,3.921-2.525C192.732,655.698,192.992,657.769,192.069,659.744z"/>
<path fill="#479800" d="M198.502,584.485c0,0,5.45-9.362,18.687-15.987s0.535-8.482-2.824-10.881
	c-3.358-2.397-6.855-0.302-12.658,2.486c-5.803,2.789-15.484,16.707-15.484,16.707L198.502,584.485"/>
<path fill="#B41112" d="M443.454,578.121c0,0-50.762-30.277-72.579-23.153c-21.819,7.124-37.403,18.257-45.418,34.286
	c-8.015,16.03-16.475,43.312-18.701,65.07c-2.227,21.758-2.226,42.687-8.015,64.06c-5.79,21.373,0.443,32.949,6.678,40.073
	c6.235,7.125,15.584,15.141,35.622,11.578c20.037-3.563,40.195-3.118,59.727-16.03c19.532-12.913,29.774-17.366,46.249-24.936
	s43.637-24.49,47.645-51.207c4.007-26.715,12.912-42.745-14.249-73.914C453.249,572.779,443.454,578.121,443.454,578.121z"/>
<path fill="#E05C5C" d="M368.171,572.904c0,0-7.423-11.332-21.108,6.794c-13.685,18.127-25.169,46.906-25.169,46.906
	s-6.617,24.506-5.806,40.041c0.812,15.535-19.343,48.736-0.069,38.897s27.323-9.815,33.847-31.737
	c6.525-21.92,7.321-32.643,22.882-41.481c15.56-8.839,12.674-12.323,6.939-25.307S376.885,581.083,368.171,572.904z"/>
<path fill="#479800" d="M508.214,658.55c0,0-7.532-8.938-8.561-17.824c-2.184-18.897,1.27-29.42-6.512-40.478
	c-7.779-11.059-23.487-17.686-26.289-19.12c-2.802-1.437-7.655-9.227-20.685-16.251c-13.028-7.025-18.457-13.695-27.108-7.16
	c-8.652,6.535-23.222,28.081-34.637,28.957c-11.415,0.877,40.369,24.016,56.84,5.051c16.473-18.966-14.561,7.074-13.565,27.557
	c0.996,20.481-1.805,33.55,7.067,33.494c8.871-0.056,14.139,1.521,20.662-7.136c6.525-8.656,13.686-35.764,13.686-35.764
	s0.98,20.812,17.009,32.408C502.15,653.881,508.214,658.55,508.214,658.55z"/>
<path fill="#479800" d="M422.319,562.359c0,0,2.771-18.263-26.57-16.137c-29.341,2.126-34.966-7.52-34.966-7.52
	s0.167,16.568,22.671,21.08S422.319,562.359,422.319,562.359z"/>
<ellipse transform="matrix(0.4231 -0.9061 0.9061 0.4231 -317.8348 649.6497)" fill="#FCEE21" cx="351.258" cy="574.423" rx="3.947" ry="2.485"/>
<path fill="#FCEE21" d="M349.35,610.551c-0.923,1.975-2.679,3.104-3.922,2.525c-1.244-0.582-1.504-2.654-0.58-4.628
	c0.921-1.976,2.678-3.106,3.92-2.525C350.012,606.504,350.272,608.575,349.35,610.551z"/>
<path fill="#FCEE21" d="M335.621,596.822c-0.923,1.975-2.678,3.104-3.921,2.524c-1.245-0.581-1.504-2.653-0.581-4.628
	c0.924-1.975,2.678-3.105,3.921-2.524S336.543,594.846,335.621,596.822z"/>
<path fill="#FCEE21" d="M365.787,620.561c-0.923,1.976-2.678,3.104-3.921,2.525c-1.245-0.581-1.505-2.653-0.582-4.628
	c0.922-1.976,2.678-3.106,3.921-2.524C366.449,616.514,366.71,618.586,365.787,620.561z"/>
<path fill="#FCEE21" d="M372.365,643.065c-0.924,1.975-2.678,3.104-3.922,2.524c-1.245-0.581-1.503-2.653-0.581-4.628
	c0.924-1.975,2.678-3.105,3.922-2.524C373.027,639.019,373.288,641.09,372.365,643.065z"/>
<path fill="#FCEE21" d="M329.899,629.999c-0.922,1.976-2.677,3.105-3.92,2.525c-1.245-0.582-1.504-2.654-0.582-4.628
	c0.923-1.976,2.678-3.105,3.921-2.524C330.562,625.952,330.823,628.024,329.899,629.999z"/>
<path fill="#FCEE21" d="M348.31,646.874c-0.923,1.975-2.678,3.104-3.921,2.524c-1.245-0.581-1.505-2.653-0.581-4.628
	c0.923-1.975,2.678-3.105,3.922-2.524C348.973,642.827,349.233,644.898,348.31,646.874z"/>
<path fill="#FCEE21" d="M332.829,663.607c-0.923,1.975-2.679,3.104-3.921,2.524c-1.245-0.58-1.504-2.653-0.582-4.627
	c0.923-1.977,2.679-3.106,3.922-2.525C333.491,659.561,333.752,661.632,332.829,663.607z"/>
<path fill="#FCEE21" d="M372.23,586.525c-0.924,1.976-2.679,3.104-3.922,2.525c-1.244-0.581-1.504-2.653-0.581-4.628
	c0.923-1.975,2.679-3.106,3.922-2.524C372.893,582.479,373.151,584.551,372.23,586.525z"/>
<path fill="#FCEE21" d="M367.654,671.185c-0.923,1.976-2.678,3.104-3.921,2.524c-1.244-0.581-1.504-2.653-0.582-4.627
	c0.923-1.976,2.678-3.105,3.921-2.526C368.316,667.138,368.576,669.209,367.654,671.185z"/>
<ellipse transform="matrix(0.4231 -0.9061 0.9061 0.4231 -427.8037 750.804)" fill="#FCEE21" cx="375.713" cy="711.361" rx="3.948" ry="2.485"/>
<path fill="#FCEE21" d="M349.35,695.21c-0.923,1.975-2.679,3.104-3.922,2.523c-1.244-0.58-1.504-2.652-0.58-4.627
	c0.921-1.975,2.678-3.105,3.92-2.525C350.012,691.163,350.272,693.235,349.35,695.21z"/>
<path fill="#FCEE21" d="M321.386,695.21c-0.923,1.975-2.679,3.104-3.922,2.523c-1.244-0.58-1.503-2.652-0.58-4.627
	c0.922-1.975,2.678-3.105,3.92-2.525C322.048,691.163,322.309,693.235,321.386,695.21z"/>
<path fill="#FCEE21" d="M380.9,747.685c-0.924,1.976-2.678,3.104-3.922,2.524c-1.244-0.581-1.504-2.653-0.581-4.628
	c0.923-1.976,2.679-3.105,3.921-2.523C381.562,743.638,381.824,745.709,380.9,747.685z"/>
<path fill="#FCEE21" d="M404.93,729.261c-0.923,1.975-2.678,3.104-3.921,2.524c-1.245-0.58-1.504-2.653-0.582-4.627
	c0.923-1.976,2.679-3.106,3.923-2.525C405.592,725.214,405.853,727.285,404.93,729.261z"/>
<path fill="#FCEE21" d="M345.36,720.77c-0.922,1.976-2.678,3.104-3.922,2.525c-1.245-0.581-1.502-2.653-0.582-4.628
	c0.924-1.975,2.679-3.106,3.923-2.524C346.022,716.724,346.282,718.795,345.36,720.77z"/>
<ellipse transform="matrix(0.4231 -0.9061 0.9061 0.4231 -469.8211 701.5768)" fill="#FCEE21" cx="316.01" cy="719.72" rx="3.947" ry="2.485"/>
<path fill="#FCEE21" d="M332.369,753.179c-0.923,1.977-2.678,3.105-3.922,2.525c-1.245-0.581-1.504-2.654-0.581-4.628
	c0.922-1.976,2.678-3.104,3.921-2.524C333.031,749.133,333.292,751.204,332.369,753.179z"/>
<path fill="#FCEE21" d="M363.078,738.683c-0.923,1.977-2.679,3.105-3.922,2.525c-1.245-0.581-1.502-2.654-0.582-4.628
	c0.923-1.976,2.679-3.104,3.922-2.524C363.74,734.638,364,736.708,363.078,738.683z"/>
<path fill="#FCEE21" d="M385.958,684.913c-0.923,1.975-2.678,3.105-3.921,2.525c-1.245-0.582-1.504-2.654-0.582-4.629
	c0.924-1.975,2.679-3.105,3.922-2.523C386.621,680.866,386.881,682.938,385.958,684.913z"/>
<path fill="#FCEE21" d="M427.144,656.312c-0.922,1.977-2.678,3.105-3.922,2.525c-1.244-0.581-1.504-2.654-0.58-4.627
	c0.922-1.977,2.678-3.106,3.921-2.525S428.066,654.337,427.144,656.312z"/>
<path fill="#FCEE21" d="M427.144,683.769c-0.922,1.976-2.678,3.105-3.922,2.524c-1.244-0.58-1.504-2.653-0.58-4.627
	c0.922-1.976,2.678-3.106,3.921-2.524C427.806,679.723,428.066,681.794,427.144,683.769z"/>
<path fill="#FCEE21" d="M436.296,712.37c-0.924,1.976-2.678,3.104-3.922,2.525c-1.244-0.582-1.504-2.654-0.58-4.627
	c0.922-1.977,2.678-3.106,3.92-2.526C436.958,708.323,437.219,710.395,436.296,712.37z"/>
<path fill="#FCEE21" d="M406.491,674.888c-0.924,1.975-2.679,3.104-3.922,2.524c-1.244-0.581-1.504-2.653-0.582-4.628
	c0.924-1.975,2.68-3.105,3.922-2.523C407.153,670.841,407.413,672.913,406.491,674.888z"/>
<path fill="#FCEE21" d="M391.196,652.715c-0.923,1.975-2.678,3.104-3.921,2.524c-1.244-0.58-1.504-2.652-0.582-4.627
	c0.924-1.976,2.68-3.106,3.922-2.525C391.859,648.668,392.119,650.739,391.196,652.715z"/>
<path fill="#FCEE21" d="M407.694,635.719c-0.922,1.976-2.678,3.105-3.921,2.525c-1.245-0.581-1.504-2.653-0.581-4.627
	c0.924-1.976,2.678-3.106,3.922-2.525C408.357,631.673,408.618,633.744,407.694,635.719z"/>
<path fill="#FCEE21" d="M391.076,619.101c-0.923,1.976-2.678,3.105-3.922,2.525c-1.244-0.581-1.504-2.653-0.581-4.628
	c0.923-1.976,2.678-3.105,3.923-2.524C391.739,615.055,391.999,617.125,391.076,619.101z"/>
<ellipse transform="matrix(0.4231 -0.9061 0.9061 0.4231 -364.7025 799.4932)" fill="#FCEE21" cx="445.495" cy="686.149" rx="3.947" ry="2.485"/>
<path fill="#FCEE21" d="M464.702,702.435c-0.924,1.975-2.68,3.104-3.923,2.525c-1.244-0.581-1.504-2.654-0.58-4.629
	c0.922-1.975,2.677-3.105,3.921-2.524C465.364,698.389,465.624,700.46,464.702,702.435z"/>
<ellipse transform="matrix(0.4233 -0.906 0.906 0.4233 -337.1259 815.2781)" fill="#FCEE21" cx="471.801" cy="672.436" rx="3.948" ry="2.484"/>
<path fill="#FCEE21" d="M407.694,703.218c-0.922,1.976-2.678,3.104-3.921,2.525c-1.245-0.582-1.504-2.653-0.581-4.629
	c0.924-1.975,2.678-3.104,3.922-2.523C408.357,699.171,408.618,701.243,407.694,703.218z"/>
<path fill="#FCEE21" d="M450.024,659.744c-0.922,1.976-2.679,3.104-3.921,2.525c-1.245-0.581-1.504-2.654-0.581-4.628
	c0.922-1.976,2.678-3.105,3.921-2.525C450.688,655.698,450.947,657.769,450.024,659.744z"/>
<path fill="#479800" d="M456.457,584.485c0,0,5.45-9.362,18.687-15.987s0.535-8.482-2.824-10.881
	c-3.358-2.397-6.855-0.302-12.658,2.486c-5.803,2.789-15.484,16.707-15.484,16.707L456.457,584.485"/>
<path fill="#B41112" d="M701.409,578.121c0,0-50.762-30.277-72.579-23.153c-21.819,7.124-37.403,18.257-45.418,34.286
	c-8.016,16.03-16.476,43.312-18.701,65.07c-2.227,21.758-2.226,42.687-8.015,64.06c-5.79,21.373,0.443,32.949,6.679,40.073
	c6.234,7.125,15.584,15.141,35.621,11.578c20.037-3.563,40.195-3.118,59.727-16.03c19.532-12.913,29.774-17.366,46.249-24.936
	s43.637-24.49,47.645-51.207c4.007-26.715,12.912-42.745-14.249-73.914C711.204,572.779,701.409,578.121,701.409,578.121z"/>
<path fill="#E05C5C" d="M626.127,572.904c0,0-7.424-11.332-21.108,6.794c-13.685,18.127-25.169,46.906-25.169,46.906
	s-6.617,24.506-5.806,40.041s-19.343,48.736-0.069,38.897s27.323-9.815,33.847-31.737c6.525-21.92,7.321-32.643,22.882-41.481
	c15.56-8.839,12.674-12.323,6.939-25.307S634.84,581.083,626.127,572.904z"/>
<path fill="#479800" d="M766.169,658.55c0,0-7.532-8.938-8.561-17.824c-2.184-18.897,1.27-29.42-6.512-40.478
	c-7.779-11.059-23.487-17.686-26.289-19.12c-2.802-1.437-7.655-9.227-20.685-16.251c-13.028-7.025-18.457-13.695-27.108-7.16
	c-8.652,6.535-23.222,28.081-34.637,28.957c-11.415,0.877,40.369,24.016,56.84,5.051c16.473-18.966-14.561,7.074-13.565,27.557
	c0.996,20.481-1.805,33.55,7.067,33.494c8.871-0.056,14.139,1.521,20.662-7.136c6.525-8.656,13.686-35.764,13.686-35.764
	s0.98,20.812,17.009,32.408C760.105,653.881,766.169,658.55,766.169,658.55z"/>
<path fill="#479800" d="M680.274,562.359c0,0,2.771-18.263-26.57-16.137c-29.341,2.126-34.966-7.52-34.966-7.52
	s0.167,16.568,22.671,21.08S680.274,562.359,680.274,562.359z"/>
<ellipse transform="matrix(0.4231 -0.9061 0.9061 0.4231 -169.0049 883.4211)" fill="#FCEE21" cx="609.213" cy="574.423" rx="3.947" ry="2.485"/>
<path fill="#FCEE21" d="M607.305,610.551c-0.924,1.975-2.679,3.104-3.922,2.525c-1.244-0.582-1.504-2.654-0.58-4.628
	c0.922-1.976,2.678-3.106,3.92-2.525C607.967,606.504,608.227,608.575,607.305,610.551z"/>
<path fill="#FCEE21" d="M593.576,596.822c-0.924,1.975-2.679,3.104-3.922,2.524c-1.245-0.581-1.504-2.653-0.581-4.628
	c0.924-1.975,2.679-3.105,3.921-2.524C594.238,592.775,594.498,594.846,593.576,596.822z"/>
<path fill="#FCEE21" d="M623.742,620.561c-0.923,1.976-2.678,3.104-3.921,2.525c-1.245-0.581-1.505-2.653-0.581-4.628
	c0.922-1.976,2.678-3.106,3.921-2.524C624.404,616.514,624.665,618.586,623.742,620.561z"/>
<path fill="#FCEE21" d="M630.32,643.065c-0.924,1.975-2.678,3.104-3.922,2.524c-1.244-0.581-1.504-2.653-0.581-4.628
	c0.924-1.975,2.678-3.105,3.923-2.524C630.982,639.019,631.243,641.09,630.32,643.065z"/>
<path fill="#FCEE21" d="M587.854,629.999c-0.922,1.976-2.677,3.105-3.921,2.525c-1.244-0.582-1.504-2.654-0.581-4.628
	c0.923-1.976,2.679-3.105,3.921-2.524C588.518,625.952,588.777,628.024,587.854,629.999z"/>
<path fill="#FCEE21" d="M606.266,646.874c-0.924,1.975-2.679,3.104-3.922,2.524c-1.245-0.581-1.505-2.653-0.581-4.628
	c0.923-1.975,2.678-3.105,3.922-2.524C606.928,642.827,607.188,644.898,606.266,646.874z"/>
<path fill="#FCEE21" d="M590.784,663.607c-0.923,1.975-2.679,3.104-3.921,2.524c-1.246-0.58-1.505-2.653-0.582-4.627
	c0.923-1.977,2.678-3.106,3.922-2.525C591.446,659.561,591.707,661.632,590.784,663.607z"/>
<path fill="#FCEE21" d="M630.186,586.525c-0.924,1.976-2.679,3.104-3.922,2.525c-1.244-0.581-1.504-2.653-0.582-4.628
	c0.924-1.975,2.68-3.106,3.922-2.524C630.848,582.479,631.106,584.551,630.186,586.525z"/>
<path fill="#FCEE21" d="M625.609,671.185c-0.924,1.976-2.679,3.104-3.922,2.524c-1.244-0.581-1.504-2.653-0.582-4.627
	c0.924-1.976,2.679-3.105,3.922-2.526C626.271,667.138,626.531,669.209,625.609,671.185z"/>
<ellipse transform="matrix(0.4231 -0.9061 0.9061 0.4231 -278.9918 984.5316)" fill="#FCEE21" cx="633.668" cy="711.361" rx="3.948" ry="2.485"/>
<path fill="#FCEE21" d="M607.305,695.21c-0.924,1.975-2.679,3.104-3.922,2.523c-1.244-0.58-1.504-2.652-0.58-4.627
	c0.922-1.975,2.678-3.105,3.92-2.525C607.967,691.163,608.227,693.235,607.305,695.21z"/>
<path fill="#FCEE21" d="M579.341,695.21c-0.923,1.975-2.679,3.104-3.922,2.523c-1.244-0.58-1.503-2.652-0.58-4.627
	c0.922-1.975,2.678-3.105,3.92-2.525C580.004,691.163,580.264,693.235,579.341,695.21z"/>
<path fill="#FCEE21" d="M638.855,747.685c-0.924,1.976-2.678,3.104-3.922,2.524c-1.244-0.581-1.504-2.653-0.581-4.628
	c0.923-1.976,2.679-3.105,3.921-2.523C639.518,743.638,639.779,745.709,638.855,747.685z"/>
<path fill="#FCEE21" d="M662.885,729.261c-0.923,1.975-2.678,3.104-3.921,2.524c-1.245-0.58-1.504-2.653-0.582-4.627
	c0.923-1.976,2.679-3.106,3.923-2.525C663.547,725.214,663.808,727.285,662.885,729.261z"/>
<path fill="#FCEE21" d="M603.314,720.77c-0.922,1.976-2.678,3.104-3.922,2.525c-1.244-0.581-1.502-2.653-0.581-4.628
	c0.924-1.975,2.679-3.106,3.923-2.524C603.978,716.724,604.237,718.795,603.314,720.77z"/>
<ellipse transform="matrix(0.4231 -0.9061 0.9061 0.4231 -320.9952 935.311)" fill="#FCEE21" cx="573.965" cy="719.72" rx="3.947" ry="2.485"/>
<path fill="#FCEE21" d="M590.324,753.179c-0.924,1.977-2.678,3.105-3.922,2.525c-1.244-0.581-1.504-2.654-0.58-4.628
	c0.922-1.976,2.678-3.104,3.921-2.524C590.986,749.133,591.247,751.204,590.324,753.179z"/>
<path fill="#FCEE21" d="M621.033,738.683c-0.924,1.977-2.68,3.105-3.922,2.525c-1.245-0.581-1.503-2.654-0.582-4.628
	c0.924-1.976,2.679-3.104,3.922-2.524C621.695,734.638,621.955,736.708,621.033,738.683z"/>
<path fill="#FCEE21" d="M643.913,684.913c-0.923,1.975-2.678,3.105-3.921,2.525c-1.245-0.582-1.504-2.654-0.582-4.629
	c0.924-1.975,2.679-3.105,3.922-2.523C644.576,680.866,644.836,682.938,643.913,684.913z"/>
<path fill="#FCEE21" d="M685.099,656.312c-0.922,1.977-2.678,3.105-3.922,2.525c-1.244-0.581-1.504-2.654-0.58-4.627
	c0.922-1.977,2.678-3.106,3.921-2.525S686.021,654.337,685.099,656.312z"/>
<path fill="#FCEE21" d="M685.099,683.769c-0.922,1.976-2.678,3.105-3.922,2.524c-1.244-0.58-1.504-2.653-0.58-4.627
	c0.922-1.976,2.678-3.106,3.921-2.524C685.761,679.723,686.021,681.794,685.099,683.769z"/>
<path fill="#FCEE21" d="M694.251,712.37c-0.924,1.976-2.678,3.104-3.922,2.525c-1.244-0.582-1.504-2.654-0.58-4.627
	c0.922-1.977,2.678-3.106,3.92-2.526C694.913,708.323,695.174,710.395,694.251,712.37z"/>
<path fill="#FCEE21" d="M664.446,674.888c-0.924,1.975-2.679,3.104-3.922,2.524c-1.244-0.581-1.504-2.653-0.582-4.628
	c0.924-1.975,2.68-3.105,3.922-2.523C665.108,670.841,665.368,672.913,664.446,674.888z"/>
<path fill="#FCEE21" d="M649.151,652.715c-0.923,1.975-2.678,3.104-3.921,2.524c-1.244-0.58-1.504-2.652-0.582-4.627
	c0.924-1.976,2.68-3.106,3.922-2.525C649.814,648.668,650.074,650.739,649.151,652.715z"/>
<path fill="#FCEE21" d="M665.649,635.719c-0.922,1.976-2.678,3.105-3.921,2.525c-1.245-0.581-1.504-2.653-0.581-4.627
	c0.924-1.976,2.678-3.106,3.922-2.525C666.312,631.673,666.573,633.744,665.649,635.719z"/>
<path fill="#FCEE21" d="M649.031,619.101c-0.923,1.976-2.678,3.105-3.922,2.525c-1.244-0.581-1.504-2.653-0.581-4.628
	c0.923-1.976,2.678-3.105,3.923-2.524C649.694,615.055,649.954,617.125,649.031,619.101z"/>
<ellipse transform="matrix(0.4231 -0.9061 0.9061 0.4231 -215.8887 1033.2216)" fill="#FCEE21" cx="703.45" cy="686.149" rx="3.947" ry="2.485"/>
<path fill="#FCEE21" d="M722.657,702.435c-0.924,1.975-2.68,3.104-3.923,2.525c-1.244-0.581-1.504-2.654-0.58-4.629
	c0.922-1.975,2.677-3.105,3.921-2.524C723.319,698.389,723.579,700.46,722.657,702.435z"/>
<ellipse transform="matrix(0.4233 -0.906 0.906 0.4233 -188.3523 1048.9878)" fill="#FCEE21" cx="729.756" cy="672.436" rx="3.948" ry="2.484"/>
<path fill="#FCEE21" d="M665.649,703.218c-0.922,1.976-2.678,3.104-3.921,2.525c-1.245-0.582-1.504-2.653-0.581-4.629
	c0.924-1.975,2.678-3.104,3.922-2.523C666.312,699.171,666.573,701.243,665.649,703.218z"/>
<path fill="#FCEE21" d="M707.979,659.744c-0.922,1.976-2.679,3.104-3.921,2.525c-1.245-0.581-1.504-2.654-0.581-4.628
	c0.922-1.976,2.678-3.105,3.921-2.525C708.643,655.698,708.902,657.769,707.979,659.744z"/>
<path fill="#479800" d="M714.412,584.485c0,0,5.45-9.362,18.687-15.987s0.535-8.482-2.824-10.881
	c-3.358-2.397-6.855-0.302-12.658,2.486c-5.803,2.789-15.484,16.707-15.484,16.707L714.412,584.485"/>
</svg>
