<?xml version="1.0" encoding="utf-8"?>
<!-- Generator: Adobe Illustrator 18.1.1, SVG Export Plug-In . SVG Version: 6.00 Build 0)  -->
<!DOCTYPE svg PUBLIC "-//W3C//DTD SVG 1.1//EN" "http://www.w3.org/Graphics/SVG/1.1/DTD/svg11.dtd">
<svg version="1.1" id="Layer_1" xmlns="http://www.w3.org/2000/svg" xmlns:xlink="http://www.w3.org/1999/xlink" x="0px" y="0px"
	 viewBox="0 0 216 216" style="enable-background:new 0 0 216 216;" xml:space="preserve">
<style type="text/css">
	.st0{fill:#919BA2;}
	.st1{opacity:0.75;}
	.st2{opacity:0.12;fill:#919BA2;}
	.st3{opacity:0.5;}
	.st4{fill:none;stroke:#919BA2;stroke-width:7.2322;stroke-miterlimit:10;}
	.st5{opacity:0.37;}
	.st6{fill:none;stroke:#919BA2;stroke-width:7.2322;stroke-linecap:round;stroke-miterlimit:10;}
	
		.st7{opacity:0.37;fill:none;stroke:#919BA2;stroke-width:7.2322;stroke-linecap:round;stroke-linejoin:round;stroke-miterlimit:10;}
	.st8{opacity:0.25;}
	
		.st9{opacity:0.37;fill:none;stroke:#919BA2;stroke-width:6.5054;stroke-linecap:round;stroke-linejoin:round;stroke-miterlimit:10;}
	.st10{fill:none;stroke:#919BA2;stroke-width:6.6675;stroke-miterlimit:10;}
	.st11{opacity:0.37;fill:#919BA2;}
	.st12{opacity:0.5;fill:#919BA2;}
	.st13{opacity:0.25;fill:#919BA2;}
	.st14{fill:url(#SVGID_1_);}
	.st15{fill:url(#SVGID_2_);}
	.st16{fill:none;stroke:#919BA2;stroke-width:8.9285;stroke-miterlimit:10;}
	.st17{fill:none;stroke:#919BA2;stroke-width:8.9464;stroke-miterlimit:10;}
	
		.st18{opacity:0.37;fill:none;stroke:#919BA2;stroke-width:7.1594;stroke-linecap:round;stroke-linejoin:round;stroke-miterlimit:10;}
	.st19{fill:none;stroke:#919BA2;stroke-width:5.7395;stroke-linecap:round;stroke-linejoin:round;stroke-miterlimit:10;}
	
		.st20{opacity:0.6;fill:none;stroke:#919BA2;stroke-width:4.3046;stroke-linecap:round;stroke-linejoin:round;stroke-miterlimit:10;}
</style>
<g>
	<g>
		<g>
			
				<linearGradient id="SVGID_1_" gradientUnits="userSpaceOnUse" x1="70.343" y1="6.37" x2="118.1373" y2="-41.4243" gradientTransform="matrix(1 0 0 1 14.4683 76.4356)">
				<stop  offset="0" style="stop-color:#919BA2;stop-opacity:0"/>
				<stop  offset="1" style="stop-color:#919BA2"/>
			</linearGradient>
			<path class="st14" d="M153.5,61.9c-12-12-27.9-18.6-44.8-18.6s-32.8,6.6-44.8,18.6l-3-3c12.8-12.8,29.7-19.8,47.8-19.8
				s35,7,47.8,19.8L153.5,61.9z"/>
		</g>
	</g>
	<g class="st1">
		<g>
			
				<linearGradient id="SVGID_2_" gradientUnits="userSpaceOnUse" x1="70.4791" y1="6.5113" x2="118.0011" y2="-41.0108" gradientTransform="matrix(1 0 0 1 14.4683 76.4356)">
				<stop  offset="0" style="stop-color:#919BA2;stop-opacity:0"/>
				<stop  offset="1" style="stop-color:#919BA2"/>
			</linearGradient>
			<path class="st15" d="M108.7,106.7L61.2,59.2c12.7-12.7,29.6-19.7,47.5-19.7s34.8,7,47.5,19.7L108.7,106.7z"/>
		</g>
	</g>
	<g class="st1">
		<path class="st0" d="M86.7,179.5c-11.9-3.6-22.9-10.2-31.8-19c-29.6-29.6-29.6-77.9,0-107.5c29.7-29.6,77.9-29.6,107.5,0
			c29.6,29.6,29.6,77.9,0,107.5c-8.8,8.8-19.8,15.4-31.6,19l-1.2-4c11.2-3.4,21.5-9.6,29.9-17.9c28-28,28-73.6,0-101.6
			c-28-28-73.6-28-101.6,0s-28,73.6,0,101.6c8.4,8.4,18.7,14.6,30,18L86.7,179.5z"/>
	</g>
	<g class="st3">
		<path class="st0" d="M49.8,165.6c-31.3-31.3-31.3-86.4,0-117.7s86.4-31.3,117.7,0l-5.1,5.1c-29.7-29.6-77.9-29.6-107.5,0
			c-29.6,29.6-29.6,77.9,0,107.5L49.8,165.6z"/>
	</g>
	<g>
		<g>
			<rect x="70.7" y="53.4" transform="matrix(-0.5 -0.866 0.866 -0.5 70.6543 151.7599)" class="st0" width="16.9" height="4.2"/>
			<rect x="106" y="39" class="st0" width="6" height="18"/>
			<rect x="136.2" y="47" transform="matrix(0.866 0.5 -0.5 0.866 46.2714 -61.7094)" class="st0" width="4.2" height="16.9"/>
			
				<rect x="90.3" y="51.5" transform="matrix(0.2588 0.9659 -0.9659 0.2588 121.8649 -51.5057)" class="st0" width="8.4" height="4.2"/>
			
				<rect x="120.8" y="49.4" transform="matrix(0.9659 0.2588 -0.2588 0.9659 18.0753 -29.986)" class="st0" width="4.2" height="8.4"/>
			
				<rect x="140.1" y="146.6" transform="matrix(-0.7071 -0.7071 0.7071 -0.7071 140.0601 360.1376)" class="st0" width="9" height="9"/>
			
				<rect x="70.4" y="146.6" transform="matrix(-0.7071 -0.7071 0.7071 -0.7071 21.0662 310.8487)" class="st0" width="9" height="9"/>
			<path class="st0" d="M155,57.4L113.7,95c-1.5-0.7-3.2-1-5-1c-7,0-12.7,5.7-12.7,12.7c0,1.3,0.2,2.6,0.6,3.8l-8.2,7.5l9,9l7.5-8.2
				c1.2,0.4,2.5,0.6,3.8,0.6c7,0,12.7-5.7,12.7-12.7c0-1.8-0.4-3.4-1-5L158,60.4L155,57.4z M108.7,113c-3.5,0-6.3-2.8-6.3-6.3
				s2.8-6.3,6.3-6.3s6.3,2.8,6.3,6.3S112.2,113,108.7,113z"/>
			
				<rect x="151.5" y="134.2" transform="matrix(-0.866 -0.5 0.5 -0.866 230.2929 334.2577)" class="st0" width="16.9" height="4.2"/>
			<rect x="49" y="75" transform="matrix(-0.866 -0.5 0.5 -0.866 68.7088 172.6742)" class="st0" width="16.9" height="4.2"/>
			<rect x="55.4" y="127.8" transform="matrix(-0.5 -0.866 0.866 -0.5 -31.7857 254.1995)" class="st0" width="4.2" height="16.9"/>
			<rect x="151.5" y="75" transform="matrix(-0.866 0.5 -0.5 -0.866 336.9964 63.966)" class="st0" width="16.9" height="4.2"/>
			<rect x="41" y="104" class="st0" width="18" height="6"/>
			<rect x="159" y="104" class="st0" width="19" height="6"/>
			
				<rect x="159.6" y="116.7" transform="matrix(-0.2588 0.9659 -0.9659 -0.2588 320.4161 -4.0349)" class="st0" width="4.2" height="8.4"/>
			
				<rect x="53.5" y="88.3" transform="matrix(0.2588 -0.9659 0.9659 0.2588 -48.0825 122.3189)" class="st0" width="4.2" height="8.4"/>
			
				<rect x="65.7" y="65.8" transform="matrix(0.7071 0.7071 -0.7071 0.7071 68.4582 -29.5302)" class="st0" width="8.4" height="4.2"/>
			
				<rect x="53.5" y="116.7" transform="matrix(-0.2588 -0.9659 0.9659 -0.2588 -46.733 205.9751)" class="st0" width="4.2" height="8.4"/>
			
				<rect x="157.5" y="90.4" transform="matrix(0.9659 -0.2588 0.2588 0.9659 -18.4262 45.0164)" class="st0" width="8.4" height="4.2"/>
		</g>
	</g>
	<circle class="st16" cx="108.7" cy="106.7" r="83.1"/>
</g>
</svg>
