<?xml version="1.0" encoding="UTF-8" standalone="no"?>
<!-- Generator: Adobe Illustrator 17.0.2, SVG Export Plug-In . SVG Version: 6.00 Build 0)  -->

<svg
   xmlns:dc="http://purl.org/dc/elements/1.1/"
   xmlns:cc="http://creativecommons.org/ns#"
   xmlns:rdf="http://www.w3.org/1999/02/22-rdf-syntax-ns#"
   xmlns:svg="http://www.w3.org/2000/svg"
   xmlns="http://www.w3.org/2000/svg"
   xmlns:sodipodi="http://sodipodi.sourceforge.net/DTD/sodipodi-0.dtd"
   xmlns:inkscape="http://www.inkscape.org/namespaces/inkscape"
   version="1.1"
   id="svg3353"
   sodipodi:docname="3-ways_exklusive-invitation_grau_orange.svg"
   inkscape:version="0.91 r13725"
   x="0px"
   y="0px"
   width="512px"
   height="512px"
   viewBox="0 0 512 512"
   enable-background="new 0 0 512 512"
   xml:space="preserve"
   inkscape:export-filename="C:\Users\Carmen Eisenacher\Documents\Timum\Icons\IS24_LP_3_ways\g4.png"
   inkscape:export-xdpi="90"
   inkscape:export-ydpi="90"><metadata
     id="metadata15"><rdf:RDF><cc:Work
         rdf:about=""><dc:format>image/svg+xml</dc:format><dc:type
           rdf:resource="http://purl.org/dc/dcmitype/StillImage" /><dc:title></dc:title></cc:Work></rdf:RDF></metadata><defs
     id="defs13" /><sodipodi:namedview
     pagecolor="#ffffff"
     borderopacity="1"
     bordercolor="#666666"
     gridtolerance="10"
     objecttolerance="10"
     showgrid="false"
     guidetolerance="10"
     inkscape:cx="256"
     inkscape:zoom="0.4609375"
     inkscape:cy="342.77966"
     id="namedview3356"
     inkscape:window-width="1366"
     inkscape:window-maximized="1"
     inkscape:window-height="706"
     inkscape:window-y="-8"
     inkscape:window-x="-8"
     inkscape:current-layer="svg3353"
     inkscape:pageshadow="2"
     inkscape:pageopacity="0" /><g
     id="g4"
     style="fill:#ff7f2a"><path
       id="email-7-icon"
       inkscape:connector-curvature="0"
       d="M202.986,184.498L62.789,291.436v173.065h0.241h279.948V291.436   L202.986,184.498z M202.986,214.927l108.562,82.928l-0.211,0.043l-67.345,51.662l-41.144-40.923l-40.833,40.747l-67.7-51.648   l-0.043-0.009L202.986,214.927L202.986,214.927z M86.561,321.804l58.076,44.449l-58.076,58.075V321.804z M103.833,440.679   l99.009-98.527l98.378,98.527H103.833L103.833,440.679z M319.204,424.768l-58.342-58.342l58.342-44.622V424.768L319.204,424.768z"
       style="fill:#ff7f2a" /></g><path
     d="M303.694,104.37L303.694,104.37c-45.782,0-83.392,34.96-87.616,79.637l29.319,21.709c-0.99-4.284-1.521-8.74-1.521-13.322  c0-32.985,26.835-59.819,59.819-59.819s59.819,26.835,59.819,59.819c0,31.793-24.932,57.872-56.27,59.715  c-0.414,0.024-0.829,0.044-1.245,0.06l31.42,21.532c31.876-13.232,54.3-44.642,54.3-81.307  C391.718,143.782,352.306,104.37,303.694,104.37z"
     id="path7"
     style="fill:#999999" /><path
     d="M303.694,47.14c-80.219,0-145.254,65.035-145.254,145.254c0,3.585,0.131,7.14,0.389,10.659l28.167-19.822  c2.139-27.811,13.999-53.668,33.933-73.603c22.108-22.108,51.502-34.284,82.765-34.284s60.657,12.176,82.765,34.284  c22.108,22.108,34.284,51.502,34.284,82.765c0,31.266-12.176,60.659-34.284,82.767c-9.44,9.439-20.208,17.066-31.884,22.709  l-0.538,30.806c55.405-20.473,94.91-73.76,94.91-136.283C448.948,112.175,383.913,47.14,303.694,47.14z"
     id="path9"
     style="fill:#999999" /><circle
     cx="303.694"
     cy="191.336"
     r="31.025"
     id="circle11"
     style="fill:#999999" /></svg>