<?xml version="1.0" encoding="UTF-8"?>
<svg viewBox="0 0 165 190" xmlns="http://www.w3.org/2000/svg" xmlns:svg="http://www.w3.org/2000/svg">
  <g id="icon-3">
   <path id="svg_1" d="m55.499866,67.199905c0,-9.799927 0,-19.199867 0,-19.599827c0,-12.099972 8.599895,-21.199972 20.099895,-21.199972l2.300049,0c11.699951,0 21.199951,9.500025 21.199951,21.199972c0,0.299984 0,9.599888 0,19.599827l27.600037,0c0,-8.999947 0,-17.199886 0,-17.299858c0,-26.999958 -21.900024,-48.900047 -48.900024,-48.900047l-2,0c-26.899822,0 -47.899687,21.500063 -47.899687,48.900047c0,0.700005 0,8.799908 0,17.299858l27.599779,0z" fill="#6BC1EC"/>
   <path id="svg_2" d="m141.599823,73.199905l-128.49979,0c-6.600007,0 -12.100033,5.400024 -12.100033,12.099976l0,89.400024c0,6.599976 5.399988,12.099976 12.100033,12.099976l128.49979,0c6.599976,0 12.099976,-5.399963 12.099976,-12.099976l0,-89.400024c-0.099976,-6.599976 -5.5,-12.099976 -12.099976,-12.099976zm-45.400024,76.300049c-1,2.200012 -2.299988,4.099976 -4,5.599976c-1.700012,1.5 -3.700012,2.700012 -5.900024,3.5c-2.099976,0.700012 -3.799988,1.100037 -5.699951,1.200012l0,4.299988c0,1 -0.800049,1.800049 -1.800049,1.800049l-3.399963,0c-1,0 -1.799988,-0.800049 -1.799988,-1.800049l0,-4.299988c-3.299988,-0.200012 -6.200012,-0.899963 -9.400024,-2.299988c-2.099953,-0.900024 -3.999962,-2.099976 -5.699959,-3.5c-0.899956,-0.799988 -1.499985,-1.900024 -1.499985,-3.099976c0,-1.300049 0.499996,-2.400024 1.499985,-3.300049c1.999981,-1.699951 5.099991,-1.699951 7.099983,-0.099976l0.099976,0.099976c1,0.800049 2.100037,1.5 3.100037,2.100037c1.099976,0.599976 2.199951,1 3.199951,1.299988c3.200012,0.799988 7.700012,0.599976 10.600037,-0.299988c0.899963,-0.299988 1.700012,-0.799988 2.599976,-1.700012c0.799988,-0.700012 1.400024,-1.700012 1.900024,-2.799988c0.5,-1.100037 0.700012,-2.5 0.700012,-4c0,-2.5 -0.800049,-4.299988 -2.400024,-5.700012c-3,-2.700012 -10.599976,-4.599976 -10.700012,-4.700012c-2.200012,-0.599976 -4.399963,-1.399963 -6.5,-2.299988c-2.099976,-0.900024 -4,-2.099976 -5.59996,-3.400024c-1.600021,-1.399963 -2.999969,-3.099976 -3.999962,-5c-0.999992,-2 -1.499985,-4.399963 -1.499985,-7.199951c0,-2.600037 0.499992,-5 1.499985,-7c0.999992,-2.100037 2.299969,-3.900024 3.899929,-5.300049c1.600018,-1.399963 3.499981,-2.599976 5.699993,-3.5c2,-0.799988 3.700012,-1.199951 5.5,-1.399963l0,-4.100037c0,-1 0.799988,-1.799988 1.799988,-1.799988l3.200012,0c1,0 1.900024,0.799988 1.900024,1.900024l0,4c2.5,0.099976 4.899963,0.599976 7.799988,1.700012c1.700012,0.599976 3.200012,1.299988 4.599976,2.199951c1.100037,0.700012 1.800049,1.900024 1.900024,3.200012c0.099976,1.299988 -0.400024,2.600037 -1.299988,3.5c-1.700012,1.600037 -4.600037,1.799988 -6.600037,0.400024c-0.699951,-0.5 -1.399963,-0.900024 -2.199951,-1.200012c-1.200012,-0.5 -4.200012,-1.700012 -7.900024,-1.700012c-3.200012,0 -5.799988,0.900024 -7.599976,2.799988c-1.600037,1.600037 -2.300049,3.5 -2.300049,6c0,2.400024 0.700012,4.200012 2.100037,5.5c1.5,1.300049 3.599976,2.400024 6,3.100037c0.299988,0.099976 6.5,1.899963 10.799988,3.700012c2.299988,1 4.200012,2.199951 5.900024,3.5c1.699951,1.399963 3.199951,3.199951 4.199951,5.299988c1.100037,2.099976 1.600037,4.599976 1.600037,7.5c0.099976,2.599976 -0.400024,5.099976 -1.400024,7.299988z" fill="#6BC1EC"/>
  </g>
</svg>