<?xml version="1.0" encoding="utf-8"?>
<!-- Generator: Adobe Illustrator 20.0.0, SVG Export Plug-In . SVG Version: 6.00 Build 0)  -->
<svg version="1.1" id="Layer_1" xmlns="http://www.w3.org/2000/svg" xmlns:xlink="http://www.w3.org/1999/xlink" x="0px" y="0px"
	 viewBox="0 0 104.9 113.2" style="enable-background:new 0 0 104.9 113.2;" xml:space="preserve">
<style type="text/css">
	.st0{fill:#1B348E;}
	.st1{fill:#00ABEC;}
	.st2{fill:#FFFFFF;}
</style>
<g>
	<g>
		<g>
			<g>
				<g>
					<g>
						<rect x="15" y="18.7" class="st0" width="6.1" height="11.6"/>
					</g>
				</g>
			</g>
			<g>
				<g>
					<g>
						<rect x="29.6" y="18.7" class="st0" width="6.1" height="11.6"/>
					</g>
				</g>
			</g>
			<g>
				<g>
					<g>
						<rect x="44.3" y="18.7" class="st0" width="6.1" height="11.6"/>
					</g>
				</g>
			</g>
			<g>
				<g>
					<g>
						<rect x="59" y="18.7" class="st0" width="6.1" height="11.6"/>
					</g>
				</g>
			</g>
		</g>
		<g>
			<g>
				<g>
					<g>
						<rect x="65.8" y="31.1" class="st0" width="11.6" height="6.1"/>
					</g>
				</g>
			</g>
			<g>
				<g>
					<g>
						<rect x="65.8" y="45.8" class="st0" width="11.6" height="6.1"/>
					</g>
				</g>
			</g>
			<g>
				<g>
					<g>
						<rect x="65.8" y="60.5" class="st0" width="11.6" height="6.1"/>
					</g>
				</g>
			</g>
			<g>
				<g>
					<g>
						<rect x="65.8" y="75.1" class="st0" width="11.6" height="6.1"/>
					</g>
				</g>
			</g>
		</g>
		<g>
			<g>
				<g>
					<g>
						<rect x="59" y="82.2" class="st0" width="6.1" height="11.6"/>
					</g>
				</g>
			</g>
			<g>
				<g>
					<g>
						<rect x="44.3" y="82.2" class="st0" width="6.1" height="11.6"/>
					</g>
				</g>
			</g>
			<g>
				<g>
					<g>
						<rect x="29.6" y="82.2" class="st0" width="6.1" height="11.6"/>
					</g>
				</g>
			</g>
			<g>
				<g>
					<g>
						<rect x="15" y="82.2" class="st0" width="6.1" height="11.6"/>
					</g>
				</g>
			</g>
		</g>
		<g>
			<g>
				<g>
					<g>
						<rect x="2.4" y="75.1" class="st0" width="11.6" height="6.1"/>
					</g>
				</g>
			</g>
			<g>
				<g>
					<g>
						<rect x="2.4" y="60.5" class="st0" width="11.6" height="6.1"/>
					</g>
				</g>
			</g>
			<g>
				<g>
					<g>
						<rect x="2.4" y="45.8" class="st0" width="11.6" height="6.1"/>
					</g>
				</g>
			</g>
			<g>
				<g>
					<g>
						<rect x="2.4" y="31.1" class="st0" width="11.6" height="6.1"/>
					</g>
				</g>
			</g>
		</g>
		<g>
			<g>
				<path class="st1" d="M64.9,88.4H15.1c-4.1,0-7.3-3.3-7.3-7.3V31.3c0-4.1,3.3-7.3,7.3-7.3h49.8c4.1,0,7.3,3.3,7.3,7.3v49.8
					C72.2,85.1,69,88.4,64.9,88.4z"/>
			</g>
		</g>
		<g>
			<g>
				<g>
					<path class="st2" d="M31.9,50H14.3v-1.5h16.9V34.1h1.5v15.2C32.6,49.7,32.3,50,31.9,50z"/>
				</g>
			</g>
			<g>
				<g>
					<path class="st2" d="M32.6,81.4h-1.5V76c0-0.4,0.3-0.8,0.8-0.8h27.5v1.5H32.6V81.4z"/>
				</g>
			</g>
			<g>
				<g>
					<path class="st2" d="M57.8,63.8H14.3v-1.5H57V34.1h1.5v29C58.5,63.4,58.2,63.8,57.8,63.8z"/>
				</g>
			</g>
			<g>
				<g>
					
						<rect x="50.5" y="32" transform="matrix(0.6424 -0.7664 0.7664 0.6424 -12.6434 53.7618)" class="st2" width="1.5" height="16.9"/>
				</g>
			</g>
			<g>
				<g>
					<rect x="57.8" y="48.5" class="st2" width="4.5" height="1.5"/>
				</g>
			</g>
			<g>
				<g>
					<circle class="st2" cx="44.8" cy="35" r="2.7"/>
				</g>
			</g>
			<g>
				<g>
					<circle class="st2" cx="57.8" cy="34.1" r="2.7"/>
				</g>
			</g>
			<g>
				<g>
					<circle class="st2" cx="31.9" cy="34.1" r="2.7"/>
				</g>
			</g>
			<g>
				<g>
					<circle class="st2" cx="16.2" cy="49.3" r="2.7"/>
				</g>
			</g>
			<g>
				<g>
					<circle class="st2" cx="16.2" cy="63" r="2.7"/>
				</g>
			</g>
			<g>
				<g>
					<circle class="st2" cx="31.9" cy="80" r="2.7"/>
				</g>
			</g>
			<g>
				<g>
					<circle class="st2" cx="59.4" cy="76" r="2.7"/>
				</g>
			</g>
			<g>
				<g>
					<circle class="st2" cx="62.1" cy="49.3" r="2.7"/>
				</g>
			</g>
			<g>
				<g>
					<circle class="st2" cx="39.4" cy="54.7" r="2.7"/>
				</g>
			</g>
			<g>
				<g>
					<path class="st2" d="M44.3,76l-1.5,0l0.1-16.3l-4-4.5l1.1-1l4.2,4.7c0.1,0.1,0.2,0.3,0.2,0.5L44.3,76z"/>
				</g>
			</g>
		</g>
	</g>
	<g>
		<g>
			<g>
				<path class="st1" d="M95.4,91.9H61.2c-2.8,0-5-2.3-5-5V52.7c0-2.8,2.3-5,5-5h34.2c2.8,0,5,2.3,5,5v34.2
					C100.4,89.6,98.1,91.9,95.4,91.9z"/>
				<path class="st0" d="M95.4,94.4H61.2c-4.2,0-7.5-3.4-7.5-7.5V52.7c0-4.2,3.4-7.5,7.5-7.5h34.2c4.2,0,7.5,3.4,7.5,7.5v34.2
					C102.9,91,99.5,94.4,95.4,94.4z M61.2,50.1c-1.4,0-2.5,1.1-2.5,2.5v34.2c0,1.4,1.1,2.5,2.5,2.5h34.2c1.4,0,2.5-1.1,2.5-2.5V52.7
					c0-1.4-1.1-2.5-2.5-2.5H61.2z"/>
			</g>
		</g>
		<g>
			<g>
				<g>
					<path class="st2" d="M72.7,65.5H60.6v-1h11.6v-9.9h1V65C73.2,65.3,73,65.5,72.7,65.5z"/>
				</g>
			</g>
			<g>
				<g>
					<path class="st2" d="M73.2,87.1h-1v-3.8c0-0.3,0.2-0.5,0.5-0.5h18.9v1H73.2V87.1z"/>
				</g>
			</g>
			<g>
				<g>
					<path class="st2" d="M90.5,75H60.6v-1h29.3V54.6h1v19.9C91,74.7,90.7,75,90.5,75z"/>
				</g>
			</g>
			<g>
				<g>
					
						<rect x="85.5" y="53.2" transform="matrix(0.6424 -0.7664 0.7664 0.6424 -14.4195 86.9993)" class="st2" width="1" height="11.6"/>
				</g>
			</g>
			<g>
				<g>
					<rect x="90.5" y="64.5" class="st2" width="3.1" height="1"/>
				</g>
			</g>
			<g>
				<g>
					<circle class="st2" cx="81.6" cy="55.2" r="1.8"/>
				</g>
			</g>
			<g>
				<g>
					<circle class="st2" cx="90.5" cy="54.6" r="1.8"/>
				</g>
			</g>
			<g>
				<g>
					<circle class="st2" cx="72.7" cy="54.6" r="1.8"/>
				</g>
			</g>
			<g>
				<g>
					<circle class="st2" cx="62" cy="65" r="1.8"/>
				</g>
			</g>
			<g>
				<g>
					<circle class="st2" cx="62" cy="74.4" r="1.8"/>
				</g>
			</g>
			<g>
				<g>
					<circle class="st2" cx="72.7" cy="86.1" r="1.8"/>
				</g>
			</g>
			<g>
				<g>
					<circle class="st2" cx="91.6" cy="83.3" r="1.8"/>
				</g>
			</g>
			<g>
				<g>
					<circle class="st2" cx="93.4" cy="65" r="1.8"/>
				</g>
			</g>
			<g>
				<g>
					<circle class="st2" cx="77.9" cy="68.7" r="1.8"/>
				</g>
			</g>
			<g>
				<g>
					<path class="st2" d="M81.2,83.3l-1,0l0.1-11.2l-2.8-3.1l0.8-0.7l2.9,3.2c0.1,0.1,0.1,0.2,0.1,0.4L81.2,83.3z"/>
				</g>
			</g>
		</g>
	</g>
</g>
</svg>
