<?xml version="1.0" encoding="utf-8"?>
<!-- Generator: Adobe Illustrator 20.0.0, SVG Export Plug-In . SVG Version: 6.00 Build 0)  -->
<svg version="1.1" id="Layer_1" xmlns="http://www.w3.org/2000/svg" xmlns:xlink="http://www.w3.org/1999/xlink" x="0px" y="0px"
	 viewBox="0 0 104.9 113.2" style="enable-background:new 0 0 104.9 113.2;" xml:space="preserve">
<g>
	<g>
		<g>
			<path style="fill:#00ABEC;" d="M52,106c-15.8,0-31.4,0-47.1,0c0-0.4,0-0.8,0-1.2c0-30,0-60.1,0-90.1c0-3.8,2.4-5.6,5.6-5.5
				c12.1,0.1,24.2,0,36.3,0c2.7,0,4.6,1.2,5.2,3.4c0.2,0.6,0.2,1.2,0.2,1.8c0,30.2,0,60.4,0,90.6C52,105.4,52,105.7,52,106z
				 M11.9,28.2c11.1,0,22,0,33,0c0-1.6,0-3.1,0-4.7c-11,0-22,0-33,0C11.9,25.1,11.9,26.6,11.9,28.2z M44.9,82.6c-11.1,0-22,0-33,0
				c0,1.6,0,3.1,0,4.6c11,0,22,0,33,0C44.9,85.6,44.9,84.1,44.9,82.6z M11.9,92c0,1.6,0,3.1,0,4.7c11,0,22,0,33,0c0-1.6,0-3.1,0-4.7
				C33.9,92,23,92,11.9,92z"/>
		</g>
	</g>
	<rect x="35.4" y="45.8" style="fill:#FFFFFF;" width="60.4" height="41.4"/>
	<g>
		<path style="fill:#00ABEC;" d="M54,58.9c1.1-0.7,2.2-1.3,3.3-1.9c2.3-1.3,4.7-2.7,7-4c0.4-0.2,0.6-0.3,1-0.1
			c3.4,2,6.8,3.9,10.1,5.9c0.1,0,0.1,0.1,0.3,0.2c-1.2,0.7-2.4,1.4-3.6,2.1c-2.2,1.3-4.5,2.6-6.7,3.9c-0.3,0.2-0.6,0.3-1,0.1
			c-3.4-2-6.8-3.9-10.1-5.9C54.2,59,54.1,59,54,58.9z"/>
	</g>
	<g>
		<path style="fill:#00ABEC;" d="M52.8,61.1c1.1,0.6,2.1,1.2,3.2,1.8c2.4,1.4,4.8,2.7,7.2,4.2c0.2,0.1,0.5,0.5,0.5,0.8
			c0,3.8,0,7.6,0,11.4c0,0.1,0,0.2-0.1,0.4c-1.1-0.6-2.1-1.2-3.2-1.8c-2.3-1.3-4.7-2.7-7-4c-0.5-0.3-0.7-0.6-0.7-1.1
			c0-3.6,0-7.2,0-10.7C52.8,61.7,52.8,61.4,52.8,61.1z"/>
	</g>
	<g>
		<path style="fill:#00ABEC;" d="M66.2,79.5c0-0.3,0-0.5,0-0.7c0-3.6,0-7.2,0-10.8c0-0.5,0.1-0.8,0.5-1c3.2-1.8,6.4-3.7,9.7-5.6
			c0.2-0.1,0.3-0.2,0.6-0.3c0,0.3,0,0.5,0,0.7c0,3.6,0,7.3,0,10.9c0,0.4-0.1,0.7-0.5,1c-3.3,1.9-6.6,3.8-9.8,5.7
			C66.5,79.4,66.4,79.4,66.2,79.5z"/>
	</g>
	<path style="fill:#1B348E;" d="M65.4,40.6c10.3,0,20.6,0,30.9,0c1.6,0,2.9,0.5,4,1.8c0.6,0.8,0.8,1.7,0.8,2.6c0,14.3,0,28.6,0,42.9
		c0,2.6-1.9,4.4-4.5,4.4c-6.9,0-13.8,0-20.7,0c-1.4,0-1.2-0.2-1.5,1.1c-0.3,1.3-0.5,2.6-0.6,3.9c-0.1,1.7,0.7,2.8,2.3,3.5
		c1.6,0.7,3.4,0.8,5.1,0.9c1.9,0.1,3.7,0.1,5.6,0.1c0.5,0,0.7,0.2,0.7,0.7c0,0.9,0,1.9,0,2.8c0,0.4-0.1,0.7-0.6,0.6
		c-0.1,0-0.3,0-0.4,0c-14.8,0-29.5,0-44.3,0c-1,0-1,0-1-1c0-0.8,0-1.6,0-2.4c0-0.5,0.2-0.6,0.6-0.6c1.8,0,3.7,0,5.5-0.2
		c1.9-0.2,3.8-0.4,5.6-0.9c2.6-0.7,3.7-2.5,3.4-5.3c-0.1-0.8-0.3-1.6-0.4-2.5c-0.1-0.7-0.4-0.9-1.1-0.9c-6.7,0-13.3,0-20,0
		c-2.5,0-4.5-1.4-4.5-4.5c0-0.1,0-0.2,0-0.3c0-14.1,0-28.1,0-42.2c0-1.2,0.2-2.4,1-3.4c0.9-1,2-1.4,3.4-1.4
		C44.7,40.6,55.1,40.6,65.4,40.6z M95.8,45.8c-0.3,0-0.5,0-0.8,0c-8.3,0-16.6,0-24.8,0c-11.3,0-22.5,0.1-33.8,0.1c-1,0-1,0-1,1
		c0,13.1,0,26.2,0,39.3c0,1,0,1,1,1c19.4,0,38.9,0,58.3,0c1,0,1,0,1-1.1c0-13,0-26,0-39.1C95.8,46.6,95.8,46.2,95.8,45.8z"/>
</g>
</svg>
