<?xml version="1.0" encoding="utf-8"?>
<!-- Generator: Adobe Illustrator 16.0.0, SVG Export Plug-In . SVG Version: 6.00 Build 0)  -->
<!DOCTYPE svg PUBLIC "-//W3C//DTD SVG 1.1//EN" "http://www.w3.org/Graphics/SVG/1.1/DTD/svg11.dtd">
<svg version="1.1" id="Layer_1" xmlns="http://www.w3.org/2000/svg" xmlns:xlink="http://www.w3.org/1999/xlink" x="0px" y="0px"
	 width="550px" height="500px" viewBox="0 0 550 500" enable-background="new 0 0 550 500" xml:space="preserve">
<circle fill="none" stroke="#00CEFC" stroke-miterlimit="10" cx="274.393" cy="248.515" r="63.238"/>
<path fill="none" stroke="#00CEFC" stroke-miterlimit="10" d="M481.783,248.514c0,114.535-92.854,207.392-207.393,207.392
	c-114.542,0-207.387-92.856-207.387-207.392c0-114.536,92.846-207.389,207.388-207.389
	C388.93,41.125,481.783,133.979,481.783,248.514z"/>
<circle fill="#FFFFFF" stroke="#989898" stroke-miterlimit="10" cx="67.238" cy="248.515" r="63.238"/>
<circle fill="#FFFFFF" stroke="#989898" stroke-miterlimit="10" cx="481.762" cy="248.515" r="63.238"/>
<circle fill="#FFFFFF" stroke="#989898" stroke-miterlimit="10" cx="378.131" cy="428.009" r="63.239"/>
<path fill="#FFFFFF" stroke="#989898" stroke-miterlimit="10" d="M139.25,14.255c30.246-17.462,68.924-7.099,86.385,23.146
	c17.465,30.25,7.1,68.924-23.146,86.387c-30.246,17.462-68.922,7.102-86.385-23.148C98.641,70.395,109.004,31.717,139.25,14.255z"/>
<circle fill="#FFFFFF" stroke="#989898" stroke-miterlimit="10" cx="378.131" cy="69.021" r="63.238"/>
<circle fill="#FFFFFF" stroke="#989898" stroke-miterlimit="10" cx="170.869" cy="428.009" r="63.239"/>
<g enable-background="new    ">
	<path fill="#606060" d="M125.234,433.126v-10.708h1.245v10.708H125.234z"/>
	<path fill="#606060" d="M134.726,433.126v-5.193c0-0.653-0.149-1.143-0.447-1.465s-0.764-0.482-1.399-0.482
		c-0.84,0-1.455,0.227-1.846,0.681s-0.586,1.204-0.586,2.249v4.211h-1.216v-8.027h0.989l0.198,1.099h0.059
		c0.249-0.396,0.598-0.702,1.047-0.919c0.449-0.218,0.95-0.326,1.501-0.326c0.967,0,1.694,0.233,2.183,0.699
		c0.488,0.467,0.732,1.213,0.732,2.238v5.236H134.726z"/>
	<path fill="#606060" d="M142.058,426.044h-2.044v7.082h-1.215v-7.082h-1.436v-0.55l1.436-0.439v-0.446
		c0-1.973,0.861-2.959,2.585-2.959c0.425,0,0.923,0.085,1.494,0.256l-0.315,0.975c-0.469-0.151-0.869-0.228-1.201-0.228
		c-0.459,0-0.798,0.152-1.018,0.458c-0.22,0.305-0.33,0.795-0.33,1.469v0.52h2.044V426.044z M144.738,433.126h-1.216v-11.396h1.216
		V433.126z"/>
	<path fill="#606060" d="M152.253,433.126l-0.241-1.143h-0.059c-0.401,0.503-0.8,0.844-1.198,1.021
		c-0.397,0.179-0.895,0.268-1.49,0.268c-0.796,0-1.42-0.205-1.871-0.615c-0.452-0.41-0.678-0.993-0.678-1.75
		c0-1.621,1.296-2.471,3.89-2.549l1.361-0.045v-0.498c0-0.629-0.135-1.095-0.406-1.395c-0.271-0.301-0.704-0.451-1.3-0.451
		c-0.669,0-1.426,0.205-2.271,0.615l-0.373-0.93c0.395-0.215,0.828-0.383,1.3-0.506c0.471-0.121,0.943-0.183,1.417-0.183
		c0.957,0,1.666,0.212,2.128,0.638c0.461,0.424,0.692,1.105,0.692,2.043v5.479H152.253z M149.506,432.269
		c0.757,0,1.352-0.207,1.784-0.622c0.432-0.415,0.647-0.996,0.647-1.743v-0.725l-1.215,0.051c-0.967,0.034-1.664,0.185-2.092,0.45
		c-0.427,0.267-0.641,0.681-0.641,1.241c0,0.439,0.133,0.774,0.399,1.004C148.655,432.154,149.027,432.269,149.506,432.269z"/>
	<path fill="#606060" d="M165.891,433.126v-5.223c0-0.639-0.138-1.119-0.41-1.438c-0.274-0.32-0.699-0.479-1.275-0.479
		c-0.757,0-1.315,0.217-1.677,0.651s-0.542,1.104-0.542,2.007v4.482h-1.216v-5.223c0-0.639-0.137-1.119-0.41-1.438
		c-0.273-0.32-0.701-0.479-1.282-0.479c-0.762,0-1.319,0.228-1.673,0.685c-0.354,0.456-0.531,1.204-0.531,2.245v4.211h-1.216v-8.027
		h0.988l0.198,1.099h0.059c0.229-0.391,0.553-0.696,0.971-0.915c0.417-0.221,0.885-0.33,1.402-0.33c1.255,0,2.075,0.454,2.461,1.362
		h0.059c0.239-0.42,0.586-0.752,1.04-0.996s0.972-0.366,1.553-0.366c0.908,0,1.588,0.233,2.04,0.699
		c0.451,0.467,0.677,1.213,0.677,2.238v5.236H165.891z"/>
	<path fill="#606060" d="M179.844,433.126v-5.223c0-0.639-0.138-1.119-0.41-1.438c-0.274-0.32-0.699-0.479-1.275-0.479
		c-0.757,0-1.315,0.217-1.677,0.651s-0.542,1.104-0.542,2.007v4.482h-1.216v-5.223c0-0.639-0.137-1.119-0.41-1.438
		c-0.273-0.32-0.701-0.479-1.282-0.479c-0.762,0-1.319,0.228-1.673,0.685c-0.354,0.456-0.531,1.204-0.531,2.245v4.211h-1.216v-8.027
		h0.988l0.198,1.099h0.059c0.229-0.391,0.553-0.696,0.971-0.915c0.417-0.221,0.885-0.33,1.402-0.33c1.255,0,2.075,0.454,2.461,1.362
		h0.059c0.239-0.42,0.586-0.752,1.04-0.996s0.972-0.366,1.553-0.366c0.908,0,1.588,0.233,2.04,0.699
		c0.451,0.467,0.677,1.213,0.677,2.238v5.236H179.844z"/>
	<path fill="#606060" d="M188.501,433.126l-0.241-1.143h-0.059c-0.401,0.503-0.8,0.844-1.198,1.021
		c-0.397,0.179-0.895,0.268-1.49,0.268c-0.796,0-1.42-0.205-1.871-0.615c-0.452-0.41-0.678-0.993-0.678-1.75
		c0-1.621,1.296-2.471,3.89-2.549l1.361-0.045v-0.498c0-0.629-0.135-1.095-0.406-1.395c-0.271-0.301-0.704-0.451-1.3-0.451
		c-0.669,0-1.426,0.205-2.271,0.615l-0.373-0.93c0.395-0.215,0.828-0.383,1.3-0.506c0.471-0.121,0.943-0.183,1.417-0.183
		c0.957,0,1.666,0.212,2.128,0.638c0.461,0.424,0.692,1.105,0.692,2.043v5.479H188.501z M185.754,432.269
		c0.757,0,1.352-0.207,1.784-0.622c0.432-0.415,0.647-0.996,0.647-1.743v-0.725l-1.215,0.051c-0.967,0.034-1.664,0.185-2.092,0.45
		c-0.427,0.267-0.641,0.681-0.641,1.241c0,0.439,0.133,0.774,0.399,1.004C184.903,432.154,185.275,432.269,185.754,432.269z"/>
	<path fill="#606060" d="M194.499,432.269c0.215,0,0.422-0.016,0.622-0.047c0.2-0.032,0.359-0.064,0.477-0.1v0.931
		c-0.132,0.063-0.326,0.116-0.582,0.157c-0.257,0.042-0.487,0.062-0.692,0.062c-1.553,0-2.329-0.817-2.329-2.453v-4.775h-1.15
		v-0.586l1.15-0.506l0.513-1.714h0.703v1.86h2.329v0.945h-2.329v4.724c0,0.483,0.114,0.854,0.345,1.113
		C193.783,432.14,194.099,432.269,194.499,432.269z"/>
	<path fill="#606060" d="M197.099,422.923c0-0.277,0.068-0.481,0.205-0.611c0.137-0.129,0.308-0.193,0.513-0.193
		c0.195,0,0.363,0.065,0.506,0.197c0.141,0.132,0.212,0.335,0.212,0.607c0,0.274-0.071,0.478-0.212,0.612
		c-0.143,0.134-0.311,0.201-0.506,0.201c-0.205,0-0.376-0.067-0.513-0.201C197.167,423.4,197.099,423.197,197.099,422.923z
		 M198.417,433.126h-1.216v-8.027h1.216V433.126z"/>
	<path fill="#606060" d="M207.925,429.104c0,1.31-0.329,2.331-0.989,3.065c-0.658,0.735-1.569,1.103-2.731,1.103
		c-0.718,0-1.354-0.168-1.911-0.506c-0.557-0.336-0.987-0.82-1.289-1.449c-0.304-0.631-0.455-1.367-0.455-2.213
		c0-1.308,0.327-2.327,0.982-3.058c0.653-0.729,1.562-1.095,2.725-1.095c1.122,0,2.015,0.373,2.677,1.121
		C207.594,426.819,207.925,427.831,207.925,429.104z M201.809,429.104c0,1.025,0.205,1.808,0.615,2.344
		c0.41,0.538,1.014,0.807,1.81,0.807s1.4-0.268,1.812-0.803c0.413-0.534,0.619-1.316,0.619-2.348c0-1.02-0.206-1.795-0.619-2.325
		c-0.412-0.529-1.021-0.794-1.827-0.794c-0.796,0-1.396,0.261-1.802,0.783S201.809,428.07,201.809,429.104z"/>
	<path fill="#606060" d="M215.549,433.126v-5.193c0-0.653-0.149-1.143-0.446-1.465c-0.299-0.322-0.765-0.482-1.399-0.482
		c-0.84,0-1.455,0.227-1.846,0.681s-0.586,1.204-0.586,2.249v4.211h-1.216v-8.027h0.988l0.198,1.099h0.059
		c0.249-0.396,0.598-0.702,1.048-0.919c0.448-0.218,0.949-0.326,1.501-0.326c0.967,0,1.694,0.233,2.183,0.699
		c0.488,0.467,0.732,1.213,0.732,2.238v5.236H215.549z"/>
</g>
<g enable-background="new    ">
	<path fill="#606060" d="M353.84,433.126h-1.246v-10.708h5.97v1.106h-4.724v3.918h4.438v1.105h-4.438V433.126z"/>
	<path fill="#606060" d="M360.051,422.923c0-0.277,0.068-0.481,0.205-0.611c0.137-0.129,0.307-0.193,0.512-0.193
		c0.195,0,0.364,0.065,0.506,0.197s0.213,0.335,0.213,0.607c0,0.274-0.071,0.478-0.213,0.612c-0.142,0.134-0.311,0.201-0.506,0.201
		c-0.205,0-0.375-0.067-0.512-0.201C360.119,423.4,360.051,423.197,360.051,422.923z M361.369,433.126h-1.217v-8.027h1.217V433.126z
		"/>
	<path fill="#606060" d="M367.683,424.967c1.055,0,1.873,0.36,2.457,1.08c0.584,0.721,0.875,1.739,0.875,3.058
		s-0.295,2.343-0.883,3.073c-0.588,0.729-1.404,1.095-2.449,1.095c-0.523,0-1-0.097-1.432-0.289
		c-0.433-0.193-0.796-0.489-1.089-0.891h-0.088l-0.256,1.033h-0.871v-11.396h1.215v2.769c0,0.62-0.02,1.177-0.059,1.67h0.059
		C365.729,425.367,366.569,424.967,367.683,424.967z M367.507,425.985c-0.83,0-1.429,0.237-1.795,0.714
		c-0.366,0.476-0.55,1.278-0.55,2.405c0,1.129,0.188,1.936,0.564,2.421c0.376,0.486,0.979,0.729,1.81,0.729
		c0.746,0,1.303-0.272,1.67-0.817c0.365-0.544,0.549-1.326,0.549-2.347c0-1.045-0.184-1.824-0.549-2.337
		C368.839,426.241,368.272,425.985,367.507,425.985z"/>
	<path fill="#606060" d="M376.801,424.952c0.356,0,0.676,0.029,0.959,0.088l-0.168,1.128c-0.332-0.073-0.625-0.11-0.879-0.11
		c-0.649,0-1.205,0.264-1.666,0.791c-0.462,0.527-0.692,1.185-0.692,1.971v4.307h-1.216v-8.027h1.004l0.139,1.486h0.059
		c0.298-0.521,0.656-0.925,1.076-1.208S376.298,424.952,376.801,424.952z"/>
	<path fill="#606060" d="M386.19,429.104c0,1.31-0.329,2.331-0.989,3.065c-0.658,0.735-1.569,1.103-2.731,1.103
		c-0.718,0-1.354-0.168-1.911-0.506c-0.557-0.336-0.987-0.82-1.289-1.449c-0.304-0.631-0.455-1.367-0.455-2.213
		c0-1.308,0.327-2.327,0.982-3.058c0.653-0.729,1.562-1.095,2.725-1.095c1.122,0,2.015,0.373,2.677,1.121
		C385.859,426.819,386.19,427.831,386.19,429.104z M380.074,429.104c0,1.025,0.205,1.808,0.615,2.344
		c0.41,0.538,1.014,0.807,1.81,0.807s1.4-0.268,1.812-0.803c0.413-0.534,0.619-1.316,0.619-2.348c0-1.02-0.206-1.795-0.619-2.325
		c-0.412-0.529-1.021-0.794-1.827-0.794c-0.796,0-1.396,0.261-1.802,0.783S380.074,428.07,380.074,429.104z"/>
	<path fill="#606060" d="M393.499,430.937c0,0.746-0.277,1.323-0.834,1.729s-1.339,0.607-2.344,0.607
		c-1.065,0-1.896-0.168-2.49-0.506v-1.127c0.385,0.195,0.799,0.349,1.241,0.461c0.441,0.112,0.868,0.168,1.278,0.168
		c0.634,0,1.122-0.101,1.465-0.304c0.341-0.202,0.512-0.511,0.512-0.927c0-0.312-0.135-0.579-0.406-0.802
		c-0.271-0.222-0.8-0.484-1.586-0.787c-0.746-0.278-1.277-0.521-1.593-0.729c-0.314-0.208-0.549-0.443-0.703-0.707
		c-0.153-0.264-0.23-0.579-0.23-0.944c0-0.654,0.266-1.171,0.798-1.55c0.532-0.378,1.263-0.567,2.19-0.567
		c0.864,0,1.709,0.176,2.534,0.527l-0.432,0.988c-0.807-0.331-1.536-0.498-2.19-0.498c-0.576,0-1.011,0.091-1.304,0.271
		s-0.439,0.43-0.439,0.747c0,0.215,0.055,0.398,0.165,0.55c0.109,0.151,0.286,0.295,0.53,0.432s0.713,0.335,1.406,0.594
		c0.953,0.347,1.596,0.695,1.931,1.047C393.332,429.962,393.499,430.404,393.499,430.937z"/>
	<path fill="#606060" d="M395.375,422.923c0-0.277,0.068-0.481,0.205-0.611c0.137-0.129,0.308-0.193,0.513-0.193
		c0.195,0,0.363,0.065,0.506,0.197c0.141,0.132,0.212,0.335,0.212,0.607c0,0.274-0.071,0.478-0.212,0.612
		c-0.143,0.134-0.311,0.201-0.506,0.201c-0.205,0-0.376-0.067-0.513-0.201C395.443,423.4,395.375,423.197,395.375,422.923z
		 M396.693,433.126h-1.216v-8.027h1.216V433.126z"/>
	<path fill="#606060" d="M404.449,430.937c0,0.746-0.277,1.323-0.834,1.729s-1.339,0.607-2.344,0.607
		c-1.065,0-1.896-0.168-2.49-0.506v-1.127c0.385,0.195,0.799,0.349,1.241,0.461c0.441,0.112,0.868,0.168,1.278,0.168
		c0.634,0,1.122-0.101,1.465-0.304c0.341-0.202,0.512-0.511,0.512-0.927c0-0.312-0.135-0.579-0.406-0.802
		c-0.271-0.222-0.8-0.484-1.586-0.787c-0.746-0.278-1.277-0.521-1.593-0.729c-0.314-0.208-0.549-0.443-0.703-0.707
		c-0.153-0.264-0.23-0.579-0.23-0.944c0-0.654,0.266-1.171,0.798-1.55c0.532-0.378,1.263-0.567,2.19-0.567
		c0.864,0,1.709,0.176,2.534,0.527l-0.432,0.988c-0.807-0.331-1.536-0.498-2.19-0.498c-0.576,0-1.011,0.091-1.304,0.271
		s-0.439,0.43-0.439,0.747c0,0.215,0.055,0.398,0.165,0.55c0.109,0.151,0.286,0.295,0.53,0.432s0.713,0.335,1.406,0.594
		c0.953,0.347,1.596,0.695,1.931,1.047C404.282,429.962,404.449,430.404,404.449,430.937z"/>
</g>
<g enable-background="new    ">
	<path fill="#606060" d="M342.439,63.036h3.024c1.421,0,2.448,0.212,3.083,0.638c0.635,0.424,0.953,1.096,0.953,2.014
		c0,0.635-0.178,1.158-0.531,1.571c-0.354,0.412-0.871,0.68-1.549,0.802v0.073c1.625,0.278,2.438,1.133,2.438,2.563
		c0,0.957-0.323,1.704-0.971,2.241s-1.552,0.806-2.714,0.806h-3.734V63.036z M343.684,67.621h2.051c0.879,0,1.512-0.138,1.897-0.414
		c0.386-0.275,0.579-0.74,0.579-1.395c0-0.602-0.215-1.034-0.645-1.301c-0.43-0.266-1.113-0.398-2.051-0.398h-1.832V67.621z
		 M343.684,68.676v4.006h2.234c0.864,0,1.515-0.167,1.952-0.501c0.437-0.335,0.655-0.858,0.655-1.571
		c0-0.664-0.224-1.152-0.67-1.465c-0.447-0.312-1.127-0.469-2.04-0.469H343.684z"/>
	<path fill="#606060" d="M353.191,73.744h-1.217V62.348h1.217V73.744z"/>
	<path fill="#606060" d="M362.697,69.723c0,1.31-0.328,2.331-0.988,3.065c-0.658,0.735-1.57,1.103-2.732,1.103
		c-0.717,0-1.354-0.168-1.91-0.506c-0.557-0.336-0.987-0.82-1.29-1.449c-0.303-0.631-0.454-1.367-0.454-2.213
		c0-1.308,0.327-2.327,0.981-3.058c0.653-0.729,1.562-1.095,2.726-1.095c1.121,0,2.014,0.373,2.676,1.121
		C362.367,67.438,362.697,68.449,362.697,69.723z M356.582,69.723c0,1.025,0.205,1.808,0.615,2.344
		c0.41,0.538,1.014,0.807,1.809,0.807c0.797,0,1.4-0.268,1.812-0.803c0.414-0.534,0.619-1.316,0.619-2.348
		c0-1.02-0.205-1.795-0.619-2.325c-0.412-0.529-1.021-0.794-1.826-0.794c-0.797,0-1.396,0.261-1.803,0.783
		C356.785,67.909,356.582,68.688,356.582,69.723z"/>
	<path fill="#606060" d="M371.758,69.723c0,1.31-0.329,2.331-0.989,3.065c-0.658,0.735-1.569,1.103-2.731,1.103
		c-0.718,0-1.354-0.168-1.911-0.506c-0.557-0.336-0.987-0.82-1.289-1.449c-0.304-0.631-0.455-1.367-0.455-2.213
		c0-1.308,0.327-2.327,0.982-3.058c0.653-0.729,1.562-1.095,2.725-1.095c1.122,0,2.015,0.373,2.677,1.121
		C371.427,67.438,371.758,68.449,371.758,69.723z M365.642,69.723c0,1.025,0.205,1.808,0.615,2.344
		c0.41,0.538,1.014,0.807,1.81,0.807s1.4-0.268,1.812-0.803c0.413-0.534,0.619-1.316,0.619-2.348c0-1.02-0.206-1.795-0.619-2.325
		c-0.412-0.529-1.021-0.794-1.827-0.794c-0.796,0-1.396,0.261-1.802,0.783S365.642,68.688,365.642,69.723z"/>
	<path fill="#606060" d="M379.353,72.668h-0.065c-0.562,0.815-1.402,1.223-2.52,1.223c-1.051,0-1.867-0.359-2.45-1.076
		c-0.584-0.719-0.876-1.738-0.876-3.062c0-1.322,0.293-2.351,0.879-3.083s1.401-1.099,2.447-1.099c1.088,0,1.923,0.396,2.504,1.187
		h0.096l-0.051-0.579l-0.029-0.563v-3.267h1.215v11.396h-0.988L379.353,72.668z M376.921,72.873c0.83,0,1.432-0.227,1.806-0.678
		c0.373-0.452,0.561-1.181,0.561-2.187v-0.257c0-1.137-0.189-1.949-0.568-2.435c-0.378-0.486-0.982-0.729-1.812-0.729
		c-0.713,0-1.259,0.277-1.637,0.832c-0.379,0.554-0.568,1.336-0.568,2.348c0,1.025,0.188,1.799,0.564,2.321
		S376.193,72.873,376.921,72.873z"/>
	<path fill="#606060" d="M390.596,66.662h-2.044v7.082h-1.215v-7.082h-1.436v-0.55l1.436-0.439v-0.446
		c0-1.973,0.861-2.959,2.585-2.959c0.425,0,0.923,0.085,1.494,0.256l-0.315,0.975c-0.469-0.151-0.869-0.228-1.201-0.228
		c-0.459,0-0.798,0.152-1.018,0.458c-0.22,0.305-0.33,0.795-0.33,1.469v0.52h2.044V66.662z M393.276,73.744h-1.216V62.348h1.216
		V73.744z"/>
	<path fill="#606060" d="M402.783,69.723c0,1.31-0.329,2.331-0.989,3.065c-0.658,0.735-1.569,1.103-2.731,1.103
		c-0.718,0-1.354-0.168-1.911-0.506c-0.557-0.336-0.987-0.82-1.289-1.449c-0.304-0.631-0.455-1.367-0.455-2.213
		c0-1.308,0.327-2.327,0.982-3.058c0.653-0.729,1.562-1.095,2.725-1.095c1.122,0,2.015,0.373,2.677,1.121
		C402.452,67.438,402.783,68.449,402.783,69.723z M396.667,69.723c0,1.025,0.205,1.808,0.615,2.344
		c0.41,0.538,1.014,0.807,1.81,0.807s1.4-0.268,1.812-0.803c0.413-0.534,0.619-1.316,0.619-2.348c0-1.02-0.206-1.795-0.619-2.325
		c-0.412-0.529-1.021-0.794-1.827-0.794c-0.796,0-1.396,0.261-1.802,0.783S396.667,68.688,396.667,69.723z"/>
	<path fill="#606060" d="M411.469,73.744l-1.472-4.709c-0.093-0.288-0.267-0.942-0.521-1.963h-0.059
		c-0.195,0.854-0.365,1.514-0.512,1.977l-1.517,4.695h-1.406l-2.19-8.027h1.275c0.517,2.017,0.911,3.553,1.183,4.607
		c0.271,1.055,0.426,1.765,0.465,2.131h0.059c0.054-0.278,0.141-0.639,0.26-1.08c0.12-0.442,0.224-0.792,0.312-1.051l1.473-4.607
		h1.318l1.436,4.607c0.272,0.84,0.458,1.545,0.557,2.116h0.059c0.019-0.176,0.071-0.446,0.157-0.813
		c0.085-0.365,0.594-2.336,1.526-5.91h1.26l-2.219,8.027H411.469z"/>
</g>
<g enable-background="new    ">
	<path fill="#606060" d="M150.727,52.996c-1.177,0-2.106,0.392-2.787,1.175c-0.682,0.784-1.022,1.856-1.022,3.22
		c0,1.401,0.328,2.483,0.985,3.248c0.657,0.764,1.593,1.146,2.809,1.146c0.747,0,1.599-0.135,2.556-0.403v1.091
		c-0.742,0.279-1.658,0.418-2.747,0.418c-1.577,0-2.794-0.479-3.651-1.436c-0.857-0.957-1.286-2.316-1.286-4.08
		c0-1.103,0.206-2.069,0.619-2.9c0.413-0.829,1.008-1.469,1.787-1.918s1.696-0.674,2.75-0.674c1.123,0,2.104,0.205,2.944,0.615
		l-0.527,1.068C152.348,53.186,151.538,52.996,150.727,52.996z"/>
	<path fill="#606060" d="M160.358,62.744l-0.241-1.143h-0.059c-0.401,0.503-0.8,0.844-1.198,1.021
		c-0.398,0.179-0.895,0.268-1.49,0.268c-0.796,0-1.42-0.205-1.871-0.615c-0.452-0.41-0.678-0.993-0.678-1.75
		c0-1.621,1.296-2.471,3.889-2.549l1.362-0.045v-0.498c0-0.629-0.135-1.095-0.406-1.395c-0.271-0.301-0.704-0.451-1.3-0.451
		c-0.669,0-1.426,0.205-2.271,0.615l-0.374-0.93c0.396-0.215,0.829-0.383,1.3-0.506c0.471-0.121,0.943-0.183,1.417-0.183
		c0.957,0,1.666,0.212,2.128,0.638c0.461,0.424,0.692,1.105,0.692,2.043v5.479H160.358z M157.612,61.887
		c0.757,0,1.351-0.207,1.784-0.622c0.432-0.415,0.647-0.996,0.647-1.743v-0.725l-1.215,0.051c-0.967,0.034-1.664,0.185-2.091,0.45
		c-0.427,0.267-0.641,0.681-0.641,1.241c0,0.439,0.133,0.774,0.399,1.004C156.761,61.772,157.133,61.887,157.612,61.887z"/>
	<path fill="#606060" d="M167.426,54.57c0.356,0,0.676,0.029,0.959,0.088l-0.168,1.128c-0.332-0.073-0.625-0.11-0.879-0.11
		c-0.649,0-1.205,0.264-1.666,0.791c-0.462,0.527-0.692,1.185-0.692,1.971v4.307h-1.216v-8.027h1.004l0.139,1.486h0.059
		c0.298-0.521,0.656-0.925,1.076-1.208S166.923,54.57,167.426,54.57z"/>
	<path fill="#606060" d="M175.351,61.668h-0.065c-0.562,0.815-1.402,1.223-2.52,1.223c-1.051,0-1.867-0.359-2.45-1.076
		c-0.584-0.719-0.876-1.738-0.876-3.062c0-1.322,0.293-2.351,0.879-3.083s1.401-1.099,2.447-1.099c1.088,0,1.923,0.396,2.504,1.187
		h0.096l-0.051-0.579l-0.029-0.563v-3.267h1.215v11.396h-0.988L175.351,61.668z M172.919,61.873c0.83,0,1.432-0.227,1.806-0.678
		c0.373-0.452,0.561-1.181,0.561-2.187v-0.257c0-1.137-0.189-1.949-0.568-2.435c-0.378-0.486-0.982-0.729-1.812-0.729
		c-0.713,0-1.259,0.277-1.637,0.832c-0.379,0.554-0.568,1.336-0.568,2.348c0,1.025,0.188,1.799,0.564,2.321
		S172.191,61.873,172.919,61.873z"/>
	<path fill="#606060" d="M178.977,52.541c0-0.277,0.068-0.481,0.205-0.611c0.137-0.129,0.308-0.193,0.513-0.193
		c0.195,0,0.363,0.065,0.506,0.197c0.141,0.132,0.212,0.335,0.212,0.607c0,0.274-0.071,0.478-0.212,0.612
		c-0.143,0.134-0.311,0.201-0.506,0.201c-0.205,0-0.376-0.067-0.513-0.201C179.045,53.019,178.977,52.815,178.977,52.541z
		 M180.295,62.744h-1.216v-8.027h1.216V62.744z"/>
	<path fill="#606060" d="M187.81,62.744l-0.241-1.143h-0.059c-0.401,0.503-0.8,0.844-1.198,1.021
		c-0.397,0.179-0.895,0.268-1.49,0.268c-0.796,0-1.42-0.205-1.871-0.615c-0.452-0.41-0.678-0.993-0.678-1.75
		c0-1.621,1.296-2.471,3.89-2.549l1.361-0.045v-0.498c0-0.629-0.135-1.095-0.406-1.395c-0.271-0.301-0.704-0.451-1.3-0.451
		c-0.669,0-1.426,0.205-2.271,0.615l-0.373-0.93c0.395-0.215,0.828-0.383,1.3-0.506c0.471-0.121,0.943-0.183,1.417-0.183
		c0.957,0,1.666,0.212,2.128,0.638c0.461,0.424,0.692,1.105,0.692,2.043v5.479H187.81z M185.062,61.887
		c0.757,0,1.352-0.207,1.784-0.622c0.432-0.415,0.647-0.996,0.647-1.743v-0.725l-1.215,0.051c-0.967,0.034-1.664,0.185-2.092,0.45
		c-0.427,0.267-0.641,0.681-0.641,1.241c0,0.439,0.133,0.774,0.399,1.004C184.212,61.772,184.584,61.887,185.062,61.887z"/>
	<path fill="#606060" d="M194.423,62.891c-1.162,0-2.062-0.357-2.699-1.073c-0.637-0.715-0.956-1.727-0.956-3.036
		c0-1.342,0.324-2.38,0.971-3.112c0.647-0.732,1.568-1.099,2.766-1.099c0.385,0,0.771,0.042,1.156,0.125s0.689,0.181,0.908,0.293
		l-0.373,1.032c-0.269-0.107-0.562-0.196-0.879-0.268c-0.317-0.07-0.599-0.106-0.842-0.106c-1.632,0-2.447,1.041-2.447,3.121
		c0,0.986,0.199,1.742,0.598,2.27c0.397,0.527,0.987,0.791,1.769,0.791c0.669,0,1.354-0.144,2.058-0.432v1.076
		C195.914,62.752,195.238,62.891,194.423,62.891z"/>
</g>
<g enable-background="new    ">
	<path fill="#606060" d="M139.066,79.287c0,1.769-0.479,3.119-1.439,4.055c-0.959,0.935-2.34,1.402-4.142,1.402h-2.966V74.036h3.281
		c1.665,0,2.959,0.462,3.882,1.384C138.605,76.344,139.066,77.633,139.066,79.287z M137.748,79.332c0-1.396-0.351-2.449-1.051-3.157
		c-0.701-0.708-1.742-1.062-3.124-1.062h-1.809v8.555h1.516c1.484,0,2.6-0.365,3.347-1.096
		C137.375,81.843,137.748,80.763,137.748,79.332z"/>
	<path fill="#606060" d="M139.997,76.717h1.304l1.758,4.578c0.386,1.045,0.625,1.799,0.718,2.263h0.059
		c0.063-0.249,0.196-0.675,0.4-1.278c0.201-0.603,0.865-2.457,1.988-5.562h1.303l-3.449,9.141c-0.342,0.903-0.741,1.544-1.198,1.923
		c-0.457,0.378-1.017,0.567-1.681,0.567c-0.371,0-0.737-0.042-1.099-0.125v-0.974c0.269,0.059,0.569,0.088,0.901,0.088
		c0.835,0,1.431-0.469,1.787-1.406l0.447-1.143L139.997,76.717z"/>
	<path fill="#606060" d="M154.008,82.555c0,0.746-0.277,1.323-0.834,1.729s-1.339,0.607-2.344,0.607
		c-1.065,0-1.896-0.168-2.49-0.506v-1.127c0.385,0.195,0.799,0.349,1.241,0.461c0.441,0.112,0.868,0.168,1.278,0.168
		c0.634,0,1.122-0.101,1.465-0.304c0.341-0.202,0.512-0.511,0.512-0.927c0-0.312-0.135-0.579-0.406-0.802
		c-0.271-0.222-0.8-0.484-1.586-0.787c-0.746-0.278-1.277-0.521-1.593-0.729c-0.314-0.208-0.549-0.443-0.703-0.707
		c-0.153-0.264-0.23-0.579-0.23-0.944c0-0.654,0.266-1.171,0.798-1.55c0.532-0.378,1.263-0.567,2.19-0.567
		c0.864,0,1.709,0.176,2.534,0.527l-0.432,0.988c-0.807-0.331-1.536-0.498-2.19-0.498c-0.576,0-1.011,0.091-1.304,0.271
		s-0.439,0.43-0.439,0.747c0,0.215,0.055,0.398,0.165,0.55c0.109,0.151,0.286,0.295,0.53,0.432s0.713,0.335,1.406,0.594
		c0.953,0.347,1.596,0.695,1.931,1.047C153.841,81.58,154.008,82.022,154.008,82.555z"/>
	<path fill="#606060" d="M159.604,77.662h-2.044v7.082h-1.215v-7.082h-1.436v-0.55l1.436-0.439v-0.446
		c0-1.973,0.861-2.959,2.585-2.959c0.425,0,0.923,0.085,1.494,0.256l-0.315,0.975c-0.469-0.151-0.869-0.228-1.201-0.228
		c-0.459,0-0.798,0.152-1.018,0.458c-0.22,0.305-0.33,0.795-0.33,1.469v0.52h2.044V77.662z"/>
	<path fill="#606060" d="M162.211,76.717v5.207c0,0.655,0.148,1.143,0.447,1.465c0.297,0.322,0.764,0.484,1.398,0.484
		c0.84,0,1.454-0.229,1.842-0.689c0.389-0.458,0.582-1.208,0.582-2.248v-4.219h1.217v8.027h-1.004l-0.176-1.076h-0.066
		c-0.248,0.395-0.594,0.698-1.036,0.908c-0.441,0.209-0.946,0.314-1.513,0.314c-0.977,0-1.707-0.231-2.193-0.695
		c-0.485-0.464-0.729-1.206-0.729-2.227v-5.252H162.211z"/>
	<path fill="#606060" d="M175.769,84.744v-5.193c0-0.653-0.149-1.143-0.446-1.465c-0.299-0.322-0.765-0.482-1.399-0.482
		c-0.84,0-1.455,0.227-1.846,0.681s-0.586,1.204-0.586,2.249v4.211h-1.216v-8.027h0.988l0.198,1.099h0.059
		c0.249-0.396,0.598-0.702,1.048-0.919c0.448-0.218,0.949-0.326,1.501-0.326c0.967,0,1.694,0.233,2.183,0.699
		c0.488,0.467,0.732,1.213,0.732,2.238v5.236H175.769z"/>
	<path fill="#606060" d="M182.689,84.891c-1.162,0-2.062-0.357-2.699-1.073c-0.637-0.715-0.956-1.727-0.956-3.036
		c0-1.342,0.324-2.38,0.971-3.112c0.647-0.732,1.568-1.099,2.766-1.099c0.385,0,0.771,0.042,1.156,0.125s0.689,0.181,0.908,0.293
		l-0.373,1.032c-0.269-0.107-0.562-0.196-0.879-0.268c-0.317-0.07-0.599-0.106-0.842-0.106c-1.632,0-2.447,1.041-2.447,3.121
		c0,0.986,0.199,1.742,0.598,2.27c0.397,0.527,0.987,0.791,1.769,0.791c0.669,0,1.354-0.144,2.058-0.432v1.076
		C184.181,84.752,183.505,84.891,182.689,84.891z"/>
	<path fill="#606060" d="M189.216,83.887c0.215,0,0.422-0.016,0.622-0.047c0.2-0.032,0.359-0.064,0.477-0.1v0.931
		c-0.132,0.063-0.326,0.116-0.582,0.157c-0.257,0.042-0.487,0.062-0.692,0.062c-1.553,0-2.329-0.817-2.329-2.453v-4.775h-1.15
		v-0.586l1.15-0.506l0.513-1.714h0.703v1.86h2.329v0.945h-2.329v4.724c0,0.483,0.114,0.854,0.345,1.113
		C188.5,83.758,188.815,83.887,189.216,83.887z"/>
	<path fill="#606060" d="M191.815,74.541c0-0.277,0.068-0.481,0.205-0.611c0.137-0.129,0.308-0.193,0.513-0.193
		c0.195,0,0.363,0.065,0.506,0.197c0.141,0.132,0.212,0.335,0.212,0.607c0,0.274-0.071,0.478-0.212,0.612
		c-0.143,0.134-0.311,0.201-0.506,0.201c-0.205,0-0.376-0.067-0.513-0.201C191.884,75.019,191.815,74.815,191.815,74.541z
		 M193.134,84.744h-1.216v-8.027h1.216V84.744z"/>
	<path fill="#606060" d="M202.641,80.723c0,1.31-0.329,2.331-0.989,3.065c-0.658,0.735-1.569,1.103-2.731,1.103
		c-0.718,0-1.354-0.168-1.911-0.506c-0.557-0.336-0.987-0.82-1.289-1.449c-0.304-0.631-0.455-1.367-0.455-2.213
		c0-1.308,0.327-2.327,0.982-3.058c0.653-0.729,1.562-1.095,2.725-1.095c1.122,0,2.015,0.373,2.677,1.121
		C202.31,78.438,202.641,79.449,202.641,80.723z M196.524,80.723c0,1.025,0.205,1.808,0.615,2.344
		c0.41,0.538,1.014,0.807,1.81,0.807s1.4-0.268,1.812-0.803c0.413-0.534,0.619-1.316,0.619-2.348c0-1.02-0.206-1.795-0.619-2.325
		c-0.412-0.529-1.021-0.794-1.827-0.794c-0.796,0-1.396,0.261-1.802,0.783S196.524,79.688,196.524,80.723z"/>
	<path fill="#606060" d="M210.265,84.744v-5.193c0-0.653-0.149-1.143-0.446-1.465c-0.299-0.322-0.765-0.482-1.399-0.482
		c-0.84,0-1.455,0.227-1.846,0.681s-0.586,1.204-0.586,2.249v4.211h-1.216v-8.027h0.988l0.198,1.099h0.059
		c0.249-0.396,0.598-0.702,1.048-0.919c0.448-0.218,0.949-0.326,1.501-0.326c0.967,0,1.694,0.233,2.183,0.699
		c0.488,0.467,0.732,1.213,0.732,2.238v5.236H210.265z"/>
</g>
<g enable-background="new    ">
	<path fill="#606060" d="M37.361,235.42c0,1.084-0.37,1.918-1.109,2.501c-0.74,0.584-1.798,0.876-3.175,0.876h-1.26v4.211h-1.245
		V232.3h2.776C36.023,232.3,37.361,233.34,37.361,235.42z M31.817,237.727h1.121c1.104,0,1.902-0.178,2.395-0.534
		s0.74-0.928,0.74-1.714c0-0.708-0.232-1.235-0.696-1.582s-1.187-0.52-2.168-0.52h-1.392V237.727z"/>
	<path fill="#606060" d="M40.562,234.98v5.207c0,0.655,0.149,1.143,0.447,1.465s0.764,0.484,1.399,0.484
		c0.84,0,1.454-0.229,1.842-0.689c0.389-0.458,0.582-1.208,0.582-2.248v-4.219h1.217v8.027h-1.004l-0.176-1.076h-0.066
		c-0.248,0.395-0.594,0.698-1.037,0.908c-0.442,0.209-0.946,0.314-1.512,0.314c-0.977,0-1.708-0.231-2.194-0.695
		s-0.729-1.206-0.729-2.227v-5.252H40.562z"/>
	<path fill="#606060" d="M49.842,243.008h-1.216v-11.396h1.216V243.008z"/>
	<path fill="#606060" d="M62.652,243.008v-5.223c0-0.639-0.138-1.119-0.41-1.438c-0.274-0.32-0.699-0.479-1.275-0.479
		c-0.757,0-1.315,0.217-1.677,0.651s-0.542,1.104-0.542,2.007v4.482h-1.216v-5.223c0-0.639-0.137-1.119-0.41-1.438
		c-0.273-0.32-0.701-0.479-1.282-0.479c-0.762,0-1.319,0.228-1.673,0.685c-0.354,0.456-0.531,1.204-0.531,2.245v4.211H52.42v-8.027
		h0.988l0.198,1.099h0.059c0.229-0.391,0.553-0.696,0.971-0.915c0.417-0.221,0.885-0.33,1.402-0.33c1.255,0,2.075,0.454,2.461,1.362
		h0.059c0.239-0.42,0.586-0.752,1.04-0.996s0.972-0.366,1.553-0.366c0.908,0,1.588,0.233,2.04,0.699
		c0.451,0.467,0.677,1.213,0.677,2.238v5.236H62.652z"/>
	<path fill="#606060" d="M73.302,238.986c0,1.31-0.329,2.331-0.989,3.065c-0.658,0.735-1.569,1.103-2.731,1.103
		c-0.718,0-1.354-0.168-1.911-0.506c-0.557-0.336-0.987-0.82-1.289-1.449c-0.304-0.631-0.455-1.367-0.455-2.213
		c0-1.308,0.327-2.327,0.982-3.058c0.653-0.729,1.562-1.095,2.725-1.095c1.122,0,2.015,0.373,2.677,1.121
		C72.971,236.701,73.302,237.713,73.302,238.986z M67.186,238.986c0,1.025,0.205,1.808,0.615,2.344
		c0.41,0.538,1.014,0.807,1.81,0.807s1.4-0.268,1.812-0.803c0.413-0.534,0.619-1.316,0.619-2.348c0-1.02-0.206-1.795-0.619-2.325
		c-0.412-0.529-1.021-0.794-1.827-0.794c-0.796,0-1.396,0.261-1.802,0.783S67.186,237.952,67.186,238.986z"/>
	<path fill="#606060" d="M80.926,243.008v-5.193c0-0.653-0.149-1.143-0.446-1.465c-0.299-0.322-0.765-0.482-1.399-0.482
		c-0.84,0-1.455,0.227-1.846,0.681s-0.586,1.204-0.586,2.249v4.211h-1.216v-8.027h0.988l0.198,1.099h0.059
		c0.249-0.396,0.598-0.702,1.048-0.919c0.448-0.218,0.949-0.326,1.501-0.326c0.967,0,1.694,0.233,2.183,0.699
		c0.488,0.467,0.732,1.213,0.732,2.238v5.236H80.926z"/>
	<path fill="#606060" d="M89.575,243.008l-0.241-1.143h-0.059c-0.401,0.503-0.8,0.844-1.198,1.021
		c-0.397,0.179-0.895,0.268-1.49,0.268c-0.796,0-1.42-0.205-1.871-0.615c-0.452-0.41-0.678-0.993-0.678-1.75
		c0-1.621,1.296-2.471,3.89-2.549l1.361-0.045v-0.498c0-0.629-0.135-1.095-0.406-1.395c-0.271-0.301-0.704-0.451-1.3-0.451
		c-0.669,0-1.426,0.205-2.271,0.615l-0.373-0.93c0.395-0.215,0.828-0.383,1.3-0.506c0.471-0.121,0.943-0.183,1.417-0.183
		c0.957,0,1.666,0.212,2.128,0.638c0.461,0.424,0.692,1.105,0.692,2.043v5.479H89.575z M86.828,242.15
		c0.757,0,1.352-0.207,1.784-0.622c0.432-0.415,0.647-0.996,0.647-1.743v-0.725l-1.215,0.051c-0.967,0.034-1.664,0.185-2.092,0.45
		c-0.427,0.267-0.641,0.681-0.641,1.241c0,0.439,0.133,0.774,0.399,1.004C85.978,242.036,86.35,242.15,86.828,242.15z"/>
	<path fill="#606060" d="M96.644,234.834c0.356,0,0.676,0.029,0.959,0.088l-0.168,1.128c-0.332-0.073-0.625-0.11-0.879-0.11
		c-0.649,0-1.205,0.264-1.666,0.791c-0.462,0.527-0.692,1.185-0.692,1.971v4.307h-1.216v-8.027h1.004l0.139,1.486h0.059
		c0.298-0.521,0.656-0.925,1.076-1.208S96.141,234.834,96.644,234.834z"/>
	<path fill="#606060" d="M97.83,234.98h1.304l1.758,4.578c0.386,1.045,0.625,1.799,0.718,2.263h0.059
		c0.063-0.249,0.196-0.675,0.399-1.278c0.202-0.603,0.865-2.457,1.988-5.562h1.304l-3.45,9.141c-0.342,0.903-0.74,1.544-1.197,1.923
		c-0.456,0.378-1.017,0.567-1.681,0.567c-0.371,0-0.737-0.042-1.099-0.125v-0.974c0.269,0.059,0.568,0.088,0.9,0.088
		c0.836,0,1.431-0.469,1.787-1.406l0.447-1.143L97.83,234.98z"/>
</g>
<g enable-background="new    ">
	<path fill="#606060" d="M35.436,259.551c0,1.769-0.479,3.119-1.439,4.055c-0.959,0.935-2.34,1.402-4.142,1.402h-2.966V254.3h3.281
		c1.665,0,2.959,0.462,3.882,1.384C34.974,256.607,35.436,257.896,35.436,259.551z M34.117,259.596c0-1.396-0.351-2.449-1.051-3.157
		c-0.701-0.708-1.742-1.062-3.124-1.062h-1.809v8.555h1.516c1.484,0,2.6-0.365,3.347-1.096
		C33.744,262.106,34.117,261.026,34.117,259.596z"/>
	<path fill="#606060" d="M36.366,256.98h1.304l1.758,4.578c0.386,1.045,0.625,1.799,0.718,2.263h0.059
		c0.063-0.249,0.196-0.675,0.4-1.278c0.201-0.603,0.865-2.457,1.988-5.562h1.303l-3.449,9.141c-0.342,0.903-0.741,1.544-1.198,1.923
		c-0.457,0.378-1.017,0.567-1.681,0.567c-0.371,0-0.737-0.042-1.099-0.125v-0.974c0.269,0.059,0.569,0.088,0.901,0.088
		c0.835,0,1.431-0.469,1.787-1.406l0.447-1.143L36.366,256.98z"/>
	<path fill="#606060" d="M50.377,262.818c0,0.746-0.277,1.323-0.834,1.729s-1.339,0.607-2.344,0.607
		c-1.065,0-1.896-0.168-2.49-0.506v-1.127c0.385,0.195,0.799,0.349,1.241,0.461c0.441,0.112,0.868,0.168,1.278,0.168
		c0.634,0,1.122-0.101,1.465-0.304c0.341-0.202,0.512-0.511,0.512-0.927c0-0.312-0.135-0.579-0.406-0.802
		c-0.271-0.222-0.8-0.484-1.586-0.787c-0.746-0.278-1.277-0.521-1.593-0.729c-0.314-0.208-0.549-0.443-0.703-0.707
		c-0.153-0.264-0.23-0.579-0.23-0.944c0-0.654,0.266-1.171,0.798-1.55c0.532-0.378,1.263-0.567,2.19-0.567
		c0.864,0,1.709,0.176,2.534,0.527l-0.432,0.988c-0.807-0.331-1.536-0.498-2.19-0.498c-0.576,0-1.011,0.091-1.304,0.271
		s-0.439,0.43-0.439,0.747c0,0.215,0.055,0.398,0.165,0.55c0.109,0.151,0.286,0.295,0.53,0.432s0.713,0.335,1.406,0.594
		c0.953,0.347,1.596,0.695,1.931,1.047C50.21,261.844,50.377,262.286,50.377,262.818z"/>
	<path fill="#606060" d="M55.973,257.926h-2.044v7.082h-1.215v-7.082h-1.436v-0.55l1.436-0.439v-0.446
		c0-1.973,0.861-2.959,2.585-2.959c0.425,0,0.923,0.085,1.494,0.256l-0.315,0.975c-0.469-0.151-0.869-0.228-1.201-0.228
		c-0.459,0-0.798,0.152-1.018,0.458c-0.22,0.305-0.33,0.795-0.33,1.469v0.52h2.044V257.926z"/>
	<path fill="#606060" d="M58.58,256.98v5.207c0,0.655,0.148,1.143,0.447,1.465c0.297,0.322,0.764,0.484,1.398,0.484
		c0.84,0,1.454-0.229,1.842-0.689c0.389-0.458,0.582-1.208,0.582-2.248v-4.219h1.217v8.027h-1.004l-0.176-1.076H62.82
		c-0.248,0.395-0.594,0.698-1.036,0.908c-0.441,0.209-0.946,0.314-1.513,0.314c-0.977,0-1.707-0.231-2.193-0.695
		c-0.485-0.464-0.729-1.206-0.729-2.227v-5.252H58.58z"/>
	<path fill="#606060" d="M72.138,265.008v-5.193c0-0.653-0.149-1.143-0.446-1.465c-0.299-0.322-0.765-0.482-1.399-0.482
		c-0.84,0-1.455,0.227-1.846,0.681s-0.586,1.204-0.586,2.249v4.211h-1.216v-8.027h0.988l0.198,1.099h0.059
		c0.249-0.396,0.598-0.702,1.048-0.919c0.448-0.218,0.949-0.326,1.501-0.326c0.967,0,1.694,0.233,2.183,0.699
		c0.488,0.467,0.732,1.213,0.732,2.238v5.236H72.138z"/>
	<path fill="#606060" d="M79.059,265.154c-1.162,0-2.062-0.357-2.699-1.073c-0.637-0.715-0.956-1.727-0.956-3.036
		c0-1.342,0.324-2.38,0.971-3.112c0.647-0.732,1.568-1.099,2.766-1.099c0.385,0,0.771,0.042,1.156,0.125s0.689,0.181,0.908,0.293
		l-0.373,1.032c-0.269-0.107-0.562-0.196-0.879-0.268c-0.317-0.07-0.599-0.106-0.842-0.106c-1.632,0-2.447,1.041-2.447,3.121
		c0,0.986,0.199,1.742,0.598,2.27c0.397,0.527,0.987,0.791,1.769,0.791c0.669,0,1.354-0.144,2.058-0.432v1.076
		C80.55,265.016,79.874,265.154,79.059,265.154z"/>
	<path fill="#606060" d="M85.585,264.15c0.215,0,0.422-0.016,0.622-0.047c0.2-0.032,0.359-0.064,0.477-0.1v0.931
		c-0.132,0.063-0.326,0.116-0.582,0.157c-0.257,0.042-0.487,0.062-0.692,0.062c-1.553,0-2.329-0.817-2.329-2.453v-4.775h-1.15
		v-0.586l1.15-0.506l0.513-1.714h0.703v1.86h2.329v0.945h-2.329v4.724c0,0.483,0.114,0.854,0.345,1.113
		C84.869,264.021,85.185,264.15,85.585,264.15z"/>
	<path fill="#606060" d="M88.185,254.805c0-0.277,0.068-0.481,0.205-0.611c0.137-0.129,0.308-0.193,0.513-0.193
		c0.195,0,0.363,0.065,0.506,0.197c0.141,0.132,0.212,0.335,0.212,0.607c0,0.274-0.071,0.478-0.212,0.612
		c-0.143,0.134-0.311,0.201-0.506,0.201c-0.205,0-0.376-0.067-0.513-0.201C88.253,255.282,88.185,255.079,88.185,254.805z
		 M89.503,265.008h-1.216v-8.027h1.216V265.008z"/>
	<path fill="#606060" d="M99.01,260.986c0,1.31-0.329,2.331-0.989,3.065c-0.658,0.735-1.569,1.103-2.731,1.103
		c-0.718,0-1.354-0.168-1.911-0.506c-0.557-0.336-0.987-0.82-1.289-1.449c-0.304-0.631-0.455-1.367-0.455-2.213
		c0-1.308,0.327-2.327,0.982-3.058c0.653-0.729,1.562-1.095,2.725-1.095c1.122,0,2.015,0.373,2.677,1.121
		C98.679,258.701,99.01,259.713,99.01,260.986z M92.894,260.986c0,1.025,0.205,1.808,0.615,2.344c0.41,0.538,1.014,0.807,1.81,0.807
		s1.4-0.268,1.812-0.803c0.413-0.534,0.619-1.316,0.619-2.348c0-1.02-0.206-1.795-0.619-2.325c-0.412-0.529-1.021-0.794-1.827-0.794
		c-0.796,0-1.396,0.261-1.802,0.783S92.894,259.952,92.894,260.986z"/>
	<path fill="#606060" d="M106.634,265.008v-5.193c0-0.653-0.149-1.143-0.446-1.465c-0.299-0.322-0.765-0.482-1.399-0.482
		c-0.84,0-1.455,0.227-1.846,0.681s-0.586,1.204-0.586,2.249v4.211h-1.216v-8.027h0.988l0.198,1.099h0.059
		c0.249-0.396,0.598-0.702,1.048-0.919c0.448-0.218,0.949-0.326,1.501-0.326c0.967,0,1.694,0.233,2.183,0.699
		c0.488,0.467,0.732,1.213,0.732,2.238v5.236H106.634z"/>
</g>
<g enable-background="new    ">
	<path fill="#606060" d="M463.343,243.009l-3.633-9.492h-0.059c0.068,0.752,0.103,1.646,0.103,2.681v6.812h-1.15v-10.708h1.875
		l3.392,8.833h0.059l3.421-8.833h1.859v10.708h-1.244v-6.899c0-0.791,0.033-1.65,0.102-2.578h-0.059l-3.662,9.478H463.343z"/>
	<path fill="#606060" d="M473.106,234.981v5.207c0,0.655,0.148,1.143,0.447,1.465c0.297,0.322,0.764,0.484,1.398,0.484
		c0.84,0,1.453-0.229,1.842-0.689c0.389-0.458,0.582-1.208,0.582-2.248v-4.219h1.217v8.027h-1.004l-0.176-1.076h-0.066
		c-0.248,0.395-0.594,0.698-1.037,0.908c-0.441,0.209-0.945,0.314-1.512,0.314c-0.977,0-1.707-0.231-2.193-0.695
		s-0.729-1.206-0.729-2.227v-5.252H473.106z"/>
	<path fill="#606060" d="M486.348,240.819c0,0.746-0.277,1.323-0.834,1.729s-1.339,0.607-2.344,0.607
		c-1.065,0-1.896-0.168-2.49-0.506v-1.127c0.385,0.195,0.799,0.349,1.241,0.461c0.441,0.112,0.868,0.168,1.278,0.168
		c0.634,0,1.122-0.101,1.465-0.304c0.341-0.202,0.512-0.511,0.512-0.927c0-0.312-0.135-0.579-0.406-0.802
		c-0.271-0.222-0.8-0.484-1.586-0.787c-0.746-0.278-1.277-0.521-1.593-0.729c-0.314-0.208-0.549-0.443-0.703-0.707
		c-0.153-0.264-0.23-0.579-0.23-0.944c0-0.654,0.266-1.171,0.798-1.55c0.532-0.378,1.263-0.567,2.19-0.567
		c0.864,0,1.709,0.176,2.534,0.527l-0.432,0.988c-0.807-0.331-1.536-0.498-2.19-0.498c-0.576,0-1.011,0.091-1.304,0.271
		s-0.439,0.43-0.439,0.747c0,0.215,0.055,0.398,0.165,0.55c0.109,0.151,0.286,0.295,0.53,0.432s0.713,0.335,1.406,0.594
		c0.953,0.347,1.596,0.695,1.931,1.047C486.181,239.845,486.348,240.287,486.348,240.819z"/>
	<path fill="#606060" d="M491.533,243.155c-1.162,0-2.062-0.357-2.699-1.073c-0.637-0.715-0.956-1.727-0.956-3.036
		c0-1.342,0.324-2.38,0.971-3.112c0.647-0.732,1.568-1.099,2.766-1.099c0.385,0,0.771,0.042,1.156,0.125s0.689,0.181,0.908,0.293
		l-0.373,1.032c-0.269-0.107-0.562-0.196-0.879-0.268c-0.317-0.07-0.599-0.106-0.842-0.106c-1.632,0-2.447,1.041-2.447,3.121
		c0,0.986,0.199,1.742,0.598,2.27c0.397,0.527,0.987,0.791,1.769,0.791c0.669,0,1.354-0.144,2.058-0.432v1.076
		C493.024,243.017,492.349,243.155,491.533,243.155z"/>
	<path fill="#606060" d="M496.683,243.009h-1.216v-11.396h1.216V243.009z"/>
	<path fill="#606060" d="M502.651,243.155c-1.186,0-2.122-0.361-2.809-1.084c-0.686-0.723-1.029-1.726-1.029-3.01
		c0-1.294,0.319-2.322,0.956-3.084c0.638-0.762,1.493-1.143,2.567-1.143c1.006,0,1.802,0.331,2.388,0.992
		c0.586,0.662,0.879,1.535,0.879,2.619v0.769h-5.53c0.024,0.942,0.263,1.658,0.715,2.146c0.451,0.489,1.088,0.732,1.908,0.732
		c0.863,0,1.718-0.18,2.562-0.541v1.084c-0.43,0.186-0.836,0.318-1.219,0.398C503.656,243.115,503.194,243.155,502.651,243.155z
		 M502.322,235.853c-0.645,0-1.158,0.211-1.542,0.631c-0.383,0.42-0.609,1.001-0.678,1.742h4.197c0-0.766-0.171-1.354-0.513-1.761
		C503.445,236.057,502.957,235.853,502.322,235.853z"/>
</g>
<g enable-background="new    ">
	<path fill="#606060" d="M462.764,265.009l-1.472-4.709c-0.093-0.288-0.267-0.942-0.521-1.963h-0.059
		c-0.195,0.854-0.365,1.514-0.512,1.977l-1.517,4.695h-1.406l-2.19-8.027h1.275c0.518,2.017,0.911,3.553,1.183,4.607
		c0.271,1.055,0.426,1.765,0.465,2.131h0.059c0.054-0.278,0.14-0.639,0.26-1.08c0.12-0.442,0.224-0.792,0.312-1.051l1.473-4.607
		h1.318l1.436,4.607c0.273,0.84,0.459,1.545,0.557,2.116h0.059c0.02-0.176,0.071-0.446,0.157-0.813
		c0.085-0.365,0.595-2.336,1.526-5.91h1.26l-2.219,8.027H462.764z"/>
	<path fill="#606060" d="M472.812,265.009l-0.24-1.143h-0.059c-0.402,0.503-0.801,0.844-1.199,1.021
		c-0.396,0.179-0.895,0.268-1.49,0.268c-0.795,0-1.42-0.205-1.871-0.615s-0.678-0.993-0.678-1.75c0-1.621,1.297-2.471,3.891-2.549
		l1.361-0.045v-0.498c0-0.629-0.135-1.095-0.406-1.395c-0.271-0.301-0.705-0.451-1.301-0.451c-0.668,0-1.426,0.205-2.27,0.615
		l-0.374-0.93c0.396-0.215,0.829-0.383,1.3-0.506c0.471-0.121,0.943-0.183,1.418-0.183c0.957,0,1.666,0.212,2.127,0.638
		c0.461,0.424,0.693,1.105,0.693,2.043v5.479H472.812z M470.066,264.151c0.756,0,1.352-0.207,1.783-0.622s0.648-0.996,0.648-1.743
		v-0.725l-1.215,0.051c-0.968,0.034-1.665,0.185-2.092,0.45c-0.428,0.267-0.641,0.681-0.641,1.241c0,0.439,0.133,0.774,0.398,1.004
		S469.588,264.151,470.066,264.151z"/>
	<path fill="#606060" d="M481.396,262.819c0,0.746-0.277,1.323-0.834,1.729s-1.339,0.607-2.344,0.607
		c-1.065,0-1.896-0.168-2.49-0.506v-1.127c0.385,0.195,0.799,0.349,1.241,0.461c0.441,0.112,0.868,0.168,1.278,0.168
		c0.634,0,1.122-0.101,1.465-0.304c0.341-0.202,0.512-0.511,0.512-0.927c0-0.312-0.135-0.579-0.406-0.802
		c-0.271-0.222-0.8-0.484-1.586-0.787c-0.746-0.278-1.277-0.521-1.593-0.729c-0.314-0.208-0.549-0.443-0.703-0.707
		c-0.153-0.264-0.23-0.579-0.23-0.944c0-0.654,0.266-1.171,0.798-1.55c0.532-0.378,1.263-0.567,2.19-0.567
		c0.864,0,1.709,0.176,2.534,0.527l-0.432,0.988c-0.807-0.331-1.536-0.498-2.19-0.498c-0.576,0-1.011,0.091-1.304,0.271
		s-0.439,0.43-0.439,0.747c0,0.215,0.055,0.398,0.165,0.55c0.109,0.151,0.286,0.295,0.53,0.432s0.713,0.335,1.406,0.594
		c0.953,0.347,1.596,0.695,1.931,1.047C481.229,261.845,481.396,262.287,481.396,262.819z"/>
	<path fill="#606060" d="M485.968,264.151c0.215,0,0.422-0.016,0.622-0.047c0.2-0.032,0.359-0.064,0.477-0.1v0.931
		c-0.132,0.063-0.326,0.116-0.582,0.157c-0.257,0.042-0.487,0.062-0.692,0.062c-1.553,0-2.329-0.817-2.329-2.453v-4.775h-1.15
		v-0.586l1.15-0.506l0.513-1.714h0.703v1.86h2.329v0.945h-2.329v4.724c0,0.483,0.114,0.854,0.345,1.113
		C485.252,264.022,485.567,264.151,485.968,264.151z"/>
	<path fill="#606060" d="M488.567,254.806c0-0.277,0.068-0.481,0.205-0.611c0.137-0.129,0.308-0.193,0.513-0.193
		c0.195,0,0.363,0.065,0.506,0.197c0.141,0.132,0.212,0.335,0.212,0.607c0,0.274-0.071,0.478-0.212,0.612
		c-0.143,0.134-0.311,0.201-0.506,0.201c-0.205,0-0.376-0.067-0.513-0.201C488.636,255.283,488.567,255.08,488.567,254.806z
		 M489.886,265.009h-1.216v-8.027h1.216V265.009z"/>
	<path fill="#606060" d="M497.957,265.009v-5.193c0-0.653-0.149-1.143-0.446-1.465c-0.299-0.322-0.765-0.482-1.399-0.482
		c-0.84,0-1.455,0.227-1.846,0.681s-0.586,1.204-0.586,2.249v4.211h-1.216v-8.027h0.988l0.198,1.099h0.059
		c0.249-0.396,0.598-0.702,1.048-0.919c0.448-0.218,0.949-0.326,1.501-0.326c0.967,0,1.694,0.233,2.183,0.699
		c0.488,0.467,0.732,1.213,0.732,2.238v5.236H497.957z"/>
	<path fill="#606060" d="M508.24,256.981v0.77l-1.487,0.176c0.137,0.171,0.259,0.394,0.366,0.67
		c0.107,0.275,0.161,0.587,0.161,0.934c0,0.786-0.269,1.414-0.806,1.883s-1.274,0.703-2.212,0.703c-0.239,0-0.464-0.02-0.674-0.059
		c-0.518,0.273-0.776,0.617-0.776,1.032c0,0.22,0.09,0.382,0.271,0.487c0.18,0.104,0.49,0.157,0.93,0.157h1.421
		c0.869,0,1.537,0.183,2.003,0.55c0.467,0.365,0.699,0.897,0.699,1.596c0,0.889-0.356,1.566-1.068,2.033
		c-0.714,0.466-1.754,0.699-3.121,0.699c-1.05,0-1.858-0.195-2.428-0.586c-0.568-0.391-0.854-0.942-0.854-1.655
		c0-0.488,0.156-0.911,0.469-1.267c0.312-0.356,0.752-0.599,1.318-0.726c-0.205-0.093-0.377-0.236-0.516-0.433
		c-0.14-0.194-0.209-0.422-0.209-0.681c0-0.293,0.078-0.55,0.234-0.769c0.156-0.221,0.402-0.433,0.74-0.638
		c-0.416-0.171-0.754-0.462-1.015-0.872c-0.262-0.41-0.392-0.879-0.392-1.406c0-0.879,0.264-1.556,0.791-2.032
		c0.527-0.476,1.273-0.714,2.24-0.714c0.42,0,0.799,0.049,1.136,0.146H508.24z M501.838,266.356c0,0.435,0.184,0.764,0.55,0.988
		s0.891,0.338,1.575,0.338c1.02,0,1.775-0.153,2.267-0.458c0.49-0.306,0.735-0.72,0.735-1.241c0-0.436-0.134-0.736-0.402-0.905
		c-0.269-0.168-0.774-0.253-1.516-0.253h-1.458c-0.552,0-0.981,0.133-1.289,0.396S501.838,265.863,501.838,266.356z
		 M502.498,259.552c0,0.562,0.158,0.987,0.476,1.275s0.759,0.432,1.325,0.432c1.188,0,1.78-0.576,1.78-1.729
		c0-1.206-0.601-1.809-1.802-1.809c-0.571,0-1.011,0.153-1.318,0.461S502.498,258.947,502.498,259.552z"/>
</g>
<circle fill="none" stroke="#00CEFC" stroke-miterlimit="10" cx="267.261" cy="262.042" r="2.153"/>
<circle fill="none" stroke="#00CEFC" stroke-miterlimit="10" cx="274.579" cy="264.76" r="1.488"/>
<circle fill="none" stroke="#00CEFC" stroke-miterlimit="10" cx="277.962" cy="256.397" r="3.154"/>
<g>
	<g>
		<path fill="none" stroke="#00CEFC" stroke-miterlimit="10" d="M280.593,240.976v-14.039h2.005v-0.007h-2.005h-6.018h-6.019h-2.005
			v0.007h2.008v14.039c0,0-14.042,20.06-14.042,26.077c0,6.018,6.018,6.018,6.018,6.018h14.042h14.041c0,0,6.019,0,6.019-6.018
			S280.593,240.976,280.593,240.976z"/>
	</g>
</g>
</svg>
