<?xml version="1.0" encoding="utf-8"?>
<!-- Generator: Adobe Illustrator 15.0.2, SVG Export Plug-In . SVG Version: 6.00 Build 0)  -->
<!DOCTYPE svg PUBLIC "-//W3C//DTD SVG 1.1//EN" "http://www.w3.org/Graphics/SVG/1.1/DTD/svg11.dtd">
<svg version="1.1" id="Layer_1" xmlns="http://www.w3.org/2000/svg" xmlns:xlink="http://www.w3.org/1999/xlink" x="0px" y="0px"
	 width="1204px" height="770px" viewBox="0 0 1204 770" enable-background="new 0 0 1204 770" xml:space="preserve">
<g>
	<path fill-rule="evenodd" clip-rule="evenodd" fill="#DEC372" d="M404.022,32.704c0.667,2.088,1.032,4.315,1.032,6.625
		c0,12.003-9.741,21.738-21.755,21.738c-12.012,0-21.755-9.735-21.755-21.738c0-2.31,0.364-4.537,1.034-6.625
		c2.804,8.767,11.019,15.121,20.722,15.121C393.001,47.825,401.219,41.471,404.022,32.704"/>
	<path fill-rule="evenodd" clip-rule="evenodd" fill="#DEC372" d="M362.95,301.383l73.059-57.518l-2.927-23.059
		c-41.903,63.562-109.015,71.545-265.128,76.365C232.951,298.575,297.951,299.979,362.95,301.383"/>
	<path fill-rule="evenodd" clip-rule="evenodd" fill="#DEC372" d="M316.656,174.969l31.083-31.226
		c-5.044,12.183-10.087,24.369-15.131,36.55C327.293,178.521,321.975,176.743,316.656,174.969"/>
	<path fill-rule="evenodd" clip-rule="evenodd" fill="#DEC372" d="M242.792,13.851l39.4,5.448
		c-21.25,5.63-34.678,26.394-40.271,62.286C242,59.077,242.395,36.464,242.792,13.851 M301.491,38.7l20.05,22.286
		c-18.461-7.036-39.339,0.785-62.643,23.464C273.096,69.199,287.294,53.95,301.491,38.7z M171.877,112.457l48.594-5.814
		c-16.87-1.51-26.446-4.873-28.735-10.088C184.748,101.409,178.312,106.934,171.877,112.457z M209.692,147.358l14.376-23.575
		c-6.677,5.495-12.075,6.455-16.195,2.883C208.48,133.563,209.086,140.462,209.692,147.358z M293.609,137.697l-2.742-17.646
		c-2.474,6.483-10.527,8.274-24.162,5.375C275.673,129.517,284.64,133.605,293.609,137.697z M312.125,87.406l7.009,22.85
		c-5.875-10.039-20.115-14.95-42.714-14.738C288.322,92.813,300.224,90.11,312.125,87.406z M173.847,39.882l41.679,1.149
		c-11.737,9.138-9.874,25.287,5.593,48.448C205.363,72.949,189.604,56.414,173.847,39.882z"/>
	<path fill="#394446" d="M259.314,102.115c-0.869-1.035-2.01-1.679-3.21-1.679s-2.34,0.644-3.208,1.679
		c-1.092,1.305-1.772,3.185-1.772,5.324c0,1.476,0.309,2.808,0.851,3.904c0.519,1.052,1.235,1.902,2.067,2.458l0.124,0.075
		l0.161,0.085l0.244,0.137l-0.006,0.01l0.024,0.011c0.228,0.107,0.478,0.193,0.74,0.252c0.208,0.047,0.468,0.071,0.775,0.071
		c1.202,0,2.342-0.641,3.21-1.677c1.092-1.302,1.772-3.182,1.772-5.326C261.086,105.3,260.406,103.42,259.314,102.115
		 M240.417,107.344c0-1.741-0.777-3.155-1.735-3.155v0.021c-0.303,0-0.633,0.21-0.914,0.545c-0.509,0.603-0.822,1.516-0.822,2.59
		s0.313,1.988,0.822,2.59c0.283,0.338,0.61,0.548,0.914,0.548c0.305,0,0.633-0.208,0.916-0.545
		C240.104,109.334,240.417,108.42,240.417,107.344z M397.532,25.091c-3.625-3.564-8.659-5.771-14.233-5.771
		c-5.573,0-10.604,2.207-14.231,5.771c-3.624,3.563-5.868,8.492-5.868,13.937s2.244,10.374,5.868,13.935
		c3.627,3.564,8.659,5.771,14.231,5.771c5.574,0,10.608-2.207,14.233-5.771c3.623-3.561,5.867-8.49,5.867-13.935
		C403.399,33.581,401.155,28.653,397.532,25.091z M383.299,8.707c8.478,0,16.172,3.396,21.755,8.883
		c5.584,5.491,9.043,13.072,9.043,21.438c0,8.364-3.457,15.946-9.043,21.436c-5.583,5.487-13.277,8.883-21.755,8.883
		c-8.478,0-16.17-3.396-21.755-8.883c-5.584-5.489-9.041-13.071-9.041-21.436c0-8.363,3.457-15.946,9.041-21.438
		C367.128,12.103,374.821,8.707,383.299,8.707z M327.287,152.98l-25.289,18.127l9.688,2.303L327.287,152.98z M404.041,170.196
		l-25.033-17.57l15.442,19.851L404.041,170.196z M347.74,179.609v-35.866l-24.311,31.834L347.74,179.609z M358.439,178.664
		l24.229-4.017l-24.229-31.148V178.664z M458.095,109.814c1.721,0,3.127,1.394,3.127,3.101v4.408c0,1.707-1.406,3.103-3.127,3.103
		c-15.593,0-31.183-0.045-46.777-0.045c-2.098,0-3.91-1.198-4.777-2.945l-0.008,0.004l-12.797-25.612c-15.045,0-30.095,0-45.142,0
		c-1.719,0-3.125-1.394-3.125-3.101v-4.409c0-1.707,1.406-3.103,3.125-3.103h48.443v0.017c1.967,0,3.857,1.082,4.785,2.948
		l12.807,25.635H458.095z M215.584,231.691l-9.442-13.2c-0.055-0.079-0.104-0.159-0.15-0.24h-7.304l8.152,11.013l10.201,13.78
		c6.242-8.022,12.35-16.034,18.396-24.203l-16.227-0.531l5.098,7.243c0.997,1.39,0.664,3.335-0.738,4.321l-3.625,2.552
		C218.539,233.414,216.579,233.085,215.584,231.691z M232.127,269.348c1.721,0,3.127,1.394,3.127,3.101v4.409
		c0,1.706-1.406,3.103-3.127,3.103h-14.075h-2.242h-14.075c-1.721,0-3.127-1.396-3.127-3.103v-4.409
		c0-1.707,1.406-3.101,3.127-3.101h10.002v-15.582l-13.507-18.244l-14.188-19.169c-0.779-0.921-1.251-2.111-1.251-3.407
		c0-2.93,2.397-5.307,5.349-5.307h10.563l-6.637-9.426c-0.993-1.39-0.663-3.336,0.743-4.321l3.627-2.549
		c1.402-0.993,3.361-0.661,4.358,0.732c3.685,5.153,7.277,10.408,10.905,15.563c11.306,0,22.656,0.588,33.984,0.961
		c1.111-0.013,2.23,0.319,3.194,1.021c2.378,1.729,2.891,5.041,1.149,7.399c-9.103,12.296-18.201,24.334-27.594,36.405v15.922
		H232.127z M269.362,250.921h19.79c1.721,0,3.127,1.397,3.127,3.103v4.409c0,1.705-1.406,3.101-3.127,3.101H275.23l-10.693,0.051
		c-0.171,0.019-0.346,0.024-0.523,0.024c-2.954,0-5.351-2.376-5.351-5.306v-9.821h-0.261c-0.224,0.051-0.462,0.082-0.7,0.082
		h-12.378c-1.719,0-3.127-1.394-3.127-3.101v-4.409c0-1.707,1.408-3.103,3.127-3.103l18.689-0.051c2.942,0,5.326,2.368,5.326,5.283
		h0.022V250.921z M376.774,262.388c0.783,1.523,0.169,3.397-1.365,4.173l-3.961,2.002c-1.532,0.775-3.424,0.165-4.204-1.354
		l-1.725-3.356l-7.29-13.79l-41.771-0.122c-2.513,5.921-4.991,11.861-7.495,17.788c-0.663,1.572-2.504,2.321-4.091,1.662
		l-4.098-1.701c-1.591-0.661-2.339-2.484-1.678-4.061c2.594-6.141,5.204-12.278,7.804-18.415l-15.794-23.628l-1.707-2.513
		c-0.962-1.414-0.582-3.352,0.844-4.306l3.687-2.464c1.428-0.954,3.377-0.579,4.337,0.839c5.922,8.712,11.682,17.475,17.531,26.227
		l45.656,0.135c2.116,0,3.947,1.227,4.808,2.998C369.763,249.125,373.333,255.698,376.774,262.388z M167.953,297.172h16.316
		c0.252,0,0.499,0.028,0.735,0.085l170.436,0.851l77.598-58.738l0.043-18.563h-61.8l0,0c-1.719,0-3.125-1.396-3.125-3.101v-4.411
		c0-1.705,1.406-3.101,3.125-3.101l0,0h67.139v0.022c2.94,0,5.326,2.366,5.326,5.283l-0.018,7.833h14.368
		c1.721,0,3.127,1.394,3.127,3.101v4.409c0,1.707-1.406,3.101-3.127,3.101h-14.39l-0.019,7.737c0.102,1.698-0.625,3.414-2.089,4.524
		l-18.268,13.826c11.588,0,23.177,0,34.766,0c1.721,0,3.127,1.396,3.127,3.103v4.409c0,1.707-1.406,3.101-3.127,3.101H409.31
		l-36.263,27.451c28.349,0,56.7,0,85.048,0c1.721,0,3.127,1.396,3.127,3.103v4.409c0,1.707-1.406,3.101-3.127,3.101
		c-93.846,0-187.646-0.454-281.517-0.924h-8.626c-1.721,0-3.127-1.394-3.127-3.101v-4.408
		C164.826,298.567,166.231,297.172,167.953,297.172z M358.439,232.468c-0.002,1.705-1.408,3.101-3.129,3.101h-4.443
		c-1.719,0-3.125-1.396-3.127-3.101c0-14.04,0-28.082,0-42.122l-34.772-5.766v-0.01c-0.118-0.021-0.238-0.045-0.356-0.073
		l-24.164-5.746c-1.282-0.25-2.476-0.966-3.298-2.102c-1.719-2.368-1.176-5.672,1.211-7.377l63.348-45.404
		c1.861-1.512,4.592-1.632,6.598-0.13l0.216,0.171l63.251,44.396c2.398,1.683,2.968,4.977,1.273,7.357
		c-0.777,1.092-1.898,1.805-3.115,2.089l0.002,0.004l-24.369,5.797c-0.118,0.028-0.236,0.053-0.356,0.073l0.002,0.008l-34.772,5.766
		V232.468z M233.917,201.285c0.838-26.798,1.751-53.595,2.608-80.397c-2.724-0.524-5.133-2.034-6.946-4.197
		c-2.059-2.449-3.331-5.76-3.331-9.347s1.274-6.896,3.331-9.346c2.281-2.719,5.495-4.401,9.103-4.401v0.022
		c2.189,0,4.25,0.627,6.036,1.726c2.869-3.41,6.889-5.52,11.385-5.52c4.5,0,8.533,2.115,11.399,5.533
		c2.643,3.149,4.28,7.427,4.28,12.081c0,4.655-1.638,8.932-4.278,12.083c-2.698,3.211-6.413,5.271-10.587,5.51l5.249,73.421
		l5.985-3.892c2.472-1.602,5.784-0.918,7.399,1.531c0.802,1.219,1.036,2.647,0.763,3.97l-1.923,11.153l5.955-2.276
		c2.747-1.05,5.835,0.303,6.895,3.027c0.401,1.029,0.458,2.107,0.222,3.106l0.008,0.002l-0.186,0.787
		c0.022,0.312-0.004,0.635-0.083,0.956l-3.857,15.728c-0.405,1.657-2.104,2.681-3.776,2.278l-4.319-1.042
		c-1.672-0.4-2.706-2.087-2.297-3.743l0.371-1.526l1.444-6.107l-4.966,1.896c-0.95,0.439-2.042,0.606-3.155,0.419
		c-2.908-0.492-4.861-3.23-4.366-6.115l1.465-8.503l-3.237,2.106c-0.757,0.517-1.665,0.844-2.647,0.913
		c-2.944,0.205-5.497-1.994-5.705-4.911l-5.361-74.964l-2.183,68.372c-0.053,1.705-1.504,3.056-3.223,3.001l-4.443-0.137
		C235.228,204.433,233.866,202.994,233.917,201.285z M288.686,269.036c1.845,0,3.353,1.51,3.353,3.349v3.913
		c0,1.841-1.508,3.351-3.353,3.351H247.54c-1.719,0-3.125-1.394-3.125-3.103v-4.409c0-1.707,1.406-3.101,3.125-3.101
		C258.368,269.036,277.86,269.036,288.686,269.036z M301.524,120.234l-0.653,19.777c-0.091,2.92-2.553,5.211-5.495,5.119
		c-0.525-0.017-1.025-0.104-1.5-0.258l-0.004,0.01l-27.03-8.858c-1.959-0.629-4.409-1.405-3.437-4.368l1.374-4.19
		c0.883-2.708,3.035-2.255,4.876-1.663l14.561,4.69c0.248,0.077,0.5,0.162,0.712,0.293l5.522,1.811l0.417-12.545l-11.532-0.531
		c-1.719-0.081-3.058-1.538-2.979-3.243l0.208-4.404c0.08-1.703,1.55-3.033,3.268-2.954l39.302,1.337l-7.94-18.563l-16.988,1.862
		c-0.435,0.303-0.962,0.5-1.534,0.551l-16.252,1.412c-1.713,0.146-3.237-1.119-3.387-2.824l-0.389-4.39
		c-0.146-1.701,1.129-3.205,2.848-3.355l7.981-0.875l38.068-23.087l-20.081-15.908l-38.772,36.711
		c-1.644,1.556-3.705,4.16-6.199,1.597l-3.083-3.18c-2.421-2.486,0.114-4.407,1.695-5.912l5.29-5.05l21.8-49.945l-35.936,0.008
		l-3.169,45.545c0.022,0.193,0.026,0.387,0.01,0.588l-1.176,16.146c-0.124,1.701-1.627,2.993-3.345,2.869l-4.433-0.319
		c-1.717-0.122-3.015-1.613-2.891-3.314l0.423-5.809l0.663-9.56l-16.813-24.421l-34.434,2.033l28.676,33.284
		c0.33,0.179,0.625,0.417,0.879,0.718l10.472,12.413c1.105,1.306,0.926,3.275-0.389,4.37l-3.41,2.834
		c-1.32,1.088-3.3,0.915-4.405-0.391l-9.601-11.146l-23.157,22.815l33.53-2.071c15.841-0.977,4.702,9.401,0.934,13.477l-6.749,7.298
		l2.358,14.733l2.755-3.548c0.1-0.214,0.22-0.413,0.368-0.604l9.994-12.793c1.052-1.349,3.027-1.599,4.386-0.553l3.516,2.703
		c1.361,1.044,1.609,2.999,0.553,4.35l-20.679,26.628c-1.798,2.312-5.149,2.738-7.479,0.952c-1.121-0.858-1.799-2.069-2.004-3.356
		h-0.002l-4.704-29.385c-0.265-1.66,0.283-3.257,1.347-4.406l-0.01-0.009l3.853-4.166l-35.472,2.188
		c-2.939,0.171-5.466-2.055-5.64-4.972c-0.093-1.577,0.521-3.027,1.567-4.062v-0.002l33.783-33.284l-30.351-35.229
		c-1.915-2.22-1.652-5.561,0.586-7.461c0.919-0.779,2.03-1.192,3.153-1.257v-0.006l48.161-2.841
		c1.981-0.116,3.778,0.858,4.789,2.398l10.824,15.717l2.417-34.73c0.197-2.918,2.74-5.125,5.68-4.932l48.677-0.011
		c2.94,0,5.327,2.366,5.327,5.284c0,0.853-0.2,1.658-0.56,2.37l-14.966,34.287l17.373-16.449c1.951-1.839,4.946-1.924,6.997-0.309
		l0.002-0.002l29.667,23.506c2.307,1.819,2.691,5.151,0.856,7.44c-0.456,0.57-1.007,1.023-1.613,1.354l-24.945,15.128l5.522-0.604
		c2.531-0.279,4.844,1.251,5.637,3.542l12.618,29.494c1.141,2.691-0.13,5.79-2.842,6.923c-0.787,0.328-1.601,0.458-2.4,0.409
		L301.524,120.234z"/>
	<path fill="#394446" d="M392.267,365.911c0.958,0.96,3.961,3.217,9.383,3.217c6.128,0,9.839-4.34,9.839-8.633
		c0-5.666-5.172-8.207-8.423-9.499c-3.294-1.334-4.545-2.5-4.545-4.042c0-1.125,1.125-2.124,2.626-2.124
		c2.543,0,5.589,2.29,5.963,2.5c0.376,0.289,1.127-0.083,1.418-0.543l2.126-3.209c0.167-0.291,0.25-1.039-0.25-1.332
		c-1.251-0.918-4.586-3.125-8.921-3.125c-6.423,0-9.633,4.166-9.633,8.29c0,5.001,4.502,7.793,8.089,9.211
		c2.834,1.123,4.295,2.457,4.295,4.207c0,1.459-1.211,2.5-2.877,2.5c-2.753,0-5.756-2.207-5.922-2.293
		c-0.291-0.207-1.083-0.29-1.416,0.253l-1.959,3.456C391.726,365.329,391.85,365.496,392.267,365.911 M373.169,358.703l3.127-6.875
		h0.042l3.168,6.875H373.169z M363.08,368.705h4.586c0.834,0,1.294-0.501,1.501-1.001l1.5-3.333h11.342l1.501,3.292
		c0.375,0.791,0.71,1.042,1.458,1.042h4.629c0.626,0,0.96-0.542,0.71-1.085l-13.051-28.041c-0.126-0.251-0.419-0.458-0.71-0.458
		h-0.417c-0.291,0-0.582,0.207-0.708,0.458l-13.057,28.041C362.111,368.163,362.447,368.705,363.08,368.705z M327.677,367.787
		c-0.083,0.543,0.293,0.918,0.793,0.918h4.919c0.417,0,0.751-0.334,0.792-0.668l1.835-12.874h0.085l7.045,13.499
		c0.126,0.256,0.458,0.466,0.708,0.466h0.753c0.208,0,0.582-0.21,0.706-0.466l7.007-13.499h0.083l1.875,12.874
		c0.043,0.334,0.417,0.668,0.792,0.668h4.921c0.499,0,0.875-0.375,0.792-0.918l-4.712-28.001c-0.041-0.372-0.415-0.665-0.75-0.665
		h-0.666c-0.209,0-0.584,0.167-0.71,0.417l-9.674,17.999h-0.082l-9.676-17.999c-0.124-0.25-0.5-0.417-0.708-0.417h-0.667
		c-0.332,0-0.71,0.293-0.751,0.665L327.677,367.787z M308.956,358.703l3.127-6.875h0.042l3.168,6.875H308.956z M298.867,368.705
		h4.586c0.834,0,1.292-0.501,1.501-1.001l1.5-3.333h11.342l1.501,3.292c0.374,0.791,0.71,1.042,1.458,1.042h4.628
		c0.625,0,0.96-0.542,0.708-1.085l-13.049-28.041c-0.126-0.251-0.419-0.458-0.71-0.458h-0.417c-0.291,0-0.584,0.207-0.708,0.458
		l-13.06,28.041C297.898,368.163,298.232,368.705,298.867,368.705z M269.718,367.913c0,0.417,0.375,0.792,0.793,0.792h4.96
		c0.459,0,0.793-0.375,0.793-0.792v-10.958h11.924v10.958c0,0.417,0.334,0.792,0.793,0.792h4.962c0.415,0,0.792-0.375,0.792-0.792
		v-27.584c0-0.417-0.376-0.791-0.792-0.791h-4.962c-0.459,0-0.793,0.374-0.793,0.791v10.5h-11.924v-10.5
		c0-0.417-0.334-0.791-0.793-0.791h-4.96c-0.419,0-0.793,0.374-0.793,0.791V367.913z M249.162,358.703l3.127-6.875h0.041
		l3.169,6.875H249.162z M239.071,368.705h4.587c0.834,0,1.292-0.501,1.5-1.001l1.501-3.333h11.342l1.501,3.292
		c0.375,0.791,0.708,1.042,1.461,1.042h4.626c0.626,0,0.96-0.542,0.71-1.085l-13.051-28.041c-0.126-0.251-0.417-0.458-0.71-0.458
		h-0.417c-0.291,0-0.582,0.207-0.708,0.458l-13.058,28.041C238.106,368.163,238.44,368.705,239.071,368.705z M223.102,362.745
		v-5.957h3.377c1.628,0,3.42,1.25,3.42,2.916c0,1.707-1.377,3.041-3.003,3.041H223.102z M223.102,351.371v-5.833h3.253
		c1.585,0,2.917,1.165,2.917,2.832c0,1.668-1.333,3.001-2.917,3.001H223.102z M216.598,367.913c0,0.417,0.333,0.792,0.792,0.792
		h10.341c4.96,0,9.09-3.376,9.09-8.043c0-3.833-3.377-5.876-5.588-6.791c1.961-1.042,4.838-3.375,4.838-6.584
		c0-4.374-4.045-7.749-8.966-7.749h-9.714c-0.458,0-0.792,0.374-0.792,0.791V367.913z"/>
	<path fill-rule="evenodd" clip-rule="evenodd" fill="#DEC372" d="M969.314,122.711l-47.478,5.397
		c26.596-2.013,45.443,18.016,55.355,60.472C974.567,166.623,971.939,144.667,969.314,122.711"/>
	<path fill-rule="evenodd" clip-rule="evenodd" fill="#DEC372" d="M1030.102,224.899l-73.86-4.337
		c41.426-7.735,61.743-17.784,60.953-30.146L1030.102,224.899z"/>
	<path fill-rule="evenodd" clip-rule="evenodd" fill="#DEC372" d="M931.888,63.548l-20.976,6.99
		c12.126,4.661,20.613,16.449,25.464,35.361C934.879,91.782,933.385,77.665,931.888,63.548"/>
	<path fill-rule="evenodd" clip-rule="evenodd" fill="#DEC372" d="M826.22,202.75c19.124,15.56,57.552,21.073,102.966,22.96
		l-112.784,6.65L826.22,202.75z M819.774,236.71c31.282,14.378,70.979,22.376,116.435,26.009l-133.63,5.697L819.774,236.71z
		 M805.28,308.271l138.615-5.063c-65.967-7.658-83.964-10.804-131.148-29.488L805.28,308.271z M832.197,171.24
		c28.202,14.095,59.176,18.027,90.543,20.51l-100.036,5.507L832.197,171.24z"/>
	<path fill-rule="evenodd" clip-rule="evenodd" fill="#DEC372" d="M781.729,122.711l47.477,5.397
		c-26.591-2.013-45.438,18.016-55.351,60.472C776.48,166.623,779.104,144.667,781.729,122.711"/>
	<path fill-rule="evenodd" clip-rule="evenodd" fill="#DEC372" d="M720.946,224.899l73.856-4.337
		c-41.422-7.735-61.739-17.784-60.953-30.146L720.946,224.899z"/>
	<path fill-rule="evenodd" clip-rule="evenodd" fill="#DEC372" d="M819.156,63.548l20.976,6.99
		c-12.126,4.661-20.614,16.449-25.46,35.361C816.165,91.782,817.662,77.665,819.156,63.548"/>
	<path fill="#394446" d="M760.009,109.395c1.966,0,3.572-1.606,3.572-3.57v-3.814c0-1.966-1.606-3.57-3.572-3.57h-13.371h-0.695
		l1.448-7.192l0.468-2.256l-0.016-0.002l0.016-0.073c0.387-1.925-0.874-3.815-2.799-4.206l-3.744-0.75
		c-1.929-0.385-3.82,0.872-4.203,2.797l-3.356,16.064c-0.614,2.967,1.29,5.872,4.256,6.488c0.379,0.077,0.749,0.116,1.119,0.116
		v0.014h20.878V109.395z M726.911,292.087l-0.008,0.021c-0.402,1.925,0.838,3.825,2.763,4.229l3.735,0.784
		c1.925,0.402,3.829-0.839,4.232-2.762l10.693-50.485l-0.024-0.005l0.061-0.311c0.407-1.923-0.834-3.823-2.759-4.229l-3.739-0.783
		c-1.921-0.402-3.825,0.839-4.228,2.759l-0.59,2.796l-10.161,47.981L726.911,292.087z M746.154,292.087l-0.005,0.021
		c-0.402,1.925,0.839,3.825,2.764,4.229l3.735,0.784c1.924,0.402,3.828-0.839,4.231-2.762l7.841-37.009
		c0.045-0.131,0.077-0.263,0.105-0.403l2.747-13.073c0.407-1.923-0.834-3.823-2.759-4.229l-3.739-0.783
		c-1.913-0.402-3.813,0.83-4.224,2.741l-0.024-0.007l-10.693,50.486L746.154,292.087z M765.404,292.087l-0.008,0.021
		c-0.403,1.925,0.838,3.825,2.763,4.229l3.739,0.784c1.921,0.402,3.825-0.839,4.228-2.762l7.841-37.012
		c0.045-0.13,0.078-0.262,0.106-0.4l2.746-13.073c0.407-1.923-0.838-3.823-2.763-4.229l-3.735-0.783
		c-1.912-0.402-3.813,0.83-4.228,2.741l-0.021-0.007l-10.693,50.486L765.404,292.087z M991.039,109.395
		c-1.966,0-3.572-1.606-3.572-3.57v-3.814c0-1.966,1.606-3.57,3.572-3.57h13.366h0.696l-1.444-7.192l-0.473-2.256l0.017-0.002
		l-0.012-0.073c-0.387-1.925,0.874-3.815,2.799-4.206l3.739-0.75c1.929-0.385,3.825,0.872,4.208,2.797l3.353,16.064
		c0.618,2.967-1.286,5.872-4.256,6.488c-0.375,0.077-0.749,0.116-1.119,0.116v0.014h-20.874V109.395z M1024.137,292.087l0.004,0.021
		c0.402,1.925-0.839,3.825-2.764,4.229l-3.734,0.784c-1.921,0.402-3.825-0.839-4.232-2.762l-10.693-50.485l0.028-0.005l-0.064-0.311
		c-0.407-1.923,0.838-3.823,2.763-4.229l3.735-0.783c1.925-0.402,3.825,0.839,4.231,2.759l0.586,2.796l10.164,47.981
		L1024.137,292.087z M1004.89,292.087l0.004,0.021c0.407,1.925-0.838,3.825-2.763,4.229l-3.735,0.784
		c-1.921,0.402-3.825-0.839-4.231-2.762l-7.837-37.009c-0.045-0.131-0.081-0.263-0.11-0.403l-2.746-13.073
		c-0.403-1.923,0.838-3.823,2.763-4.229l3.735-0.783c1.916-0.402,3.813,0.83,4.228,2.741l0.024-0.007l10.693,50.486L1004.89,292.087
		z M985.644,292.087l0.004,0.021c0.407,1.925-0.838,3.825-2.763,4.229l-3.735,0.784c-1.925,0.402-3.829-0.839-4.231-2.762
		l-7.842-37.012c-0.04-0.13-0.073-0.262-0.105-0.4l-2.746-13.073c-0.403-1.923,0.838-3.823,2.763-4.229l3.735-0.783
		c1.916-0.402,3.816,0.83,4.228,2.741l0.024-0.007l10.693,50.486L985.644,292.087z M875.523,273.72h-62.776l-5.595,29.488h68.371
		h68.372l-5.599-29.488H875.523z M875.523,236.71h-55.749l-4.939,26.009h60.688h60.686l-4.936-26.009H875.523z M875.523,202.75
		H826.22l-4.362,22.96h53.666h53.662l-4.357-22.96H875.523z M875.523,171.24h-43.326l-3.895,20.51h47.221h47.217l-3.894-20.51
		H875.523z M875.523,143.882h-38.135l-3.104,16.357h41.239h41.235l-3.104-16.357H875.523z M875.523,118.865h-33.386l-2.661,14.016
		h36.047h36.044l-2.661-14.016H875.523z M875.523,95.052h-3.486h-0.086H858.58h-0.093h-11.829l-2.441,12.858h31.307h31.304
		l-2.438-12.858h-11.833h-0.094h-13.366h-0.09H875.523z M875.523,70.54H851.31l-2.572,13.556h9.843h13.371h3.572h3.573h13.366h9.843
		l-2.571-13.556H875.523z M803.967,103.537l8.78-39.681c0.562-2.56,2.832-4.297,5.351-4.295v-0.024h23.227l0.158-22.249h-73.49
		l38.477,15.358c1.827,0.727,2.727,2.812,1.998,4.639l-1.412,3.544c-0.729,1.825-2.815,2.723-4.643,1.994l-12.419-4.946
		c-0.094-0.036-0.187-0.077-0.272-0.12l-46.651-18.619l-0.269,0.958c-0.021,0.158-0.057,0.321-0.102,0.479l-0.789,2.677
		l-1.547,5.493l-0.04,0.051c-1.188,1.559-2.531,2.991-4.415,2.452l-3.675-1.052c-1.888-0.542-2.99-2.529-2.449-4.415l4.362-15.475
		l0.012,0.004c0.049-0.181,0.11-0.364,0.184-0.541c0.851-2.15,2.913-3.457,5.094-3.457v-0.024h107.568c3.04,0,5.506,2.464,5.506,5.5
		c0,0.177-0.008,0.352-0.028,0.522l-0.191,27.229h23.233h23.234l-0.195-27.229c-0.017-0.171-0.024-0.346-0.024-0.522
		c0-3.036,2.466-5.5,5.501-5.5h107.568v0.024c2.186,0,4.244,1.307,5.099,3.457c0.069,0.177,0.13,0.36,0.184,0.541l0.008-0.004
		l4.366,15.475c0.537,1.886-0.562,3.873-2.449,4.415l-3.679,1.052c-1.884,0.539-3.227-0.894-4.415-2.452l-0.037-0.051l-1.546-5.493
		l-0.789-2.677c-0.045-0.157-0.081-0.32-0.106-0.479l-0.268-0.958l-46.647,18.619c-0.09,0.043-0.179,0.084-0.272,0.12l-12.419,4.946
		c-1.827,0.729-3.914-0.169-4.643-1.994l-1.412-3.544c-0.729-1.827,0.171-3.912,1.994-4.639l38.477-15.358h-73.486l0.158,22.249
		h23.222v0.024c2.523-0.002,4.79,1.735,5.355,4.295l8.78,39.681h-0.004c0.366,1.872-0.821,3.726-2.693,4.159l-3.719,0.87
		c-1.909,0.452-3.846-0.754-4.289-2.667l-3.044-13.009c-0.089-0.37-0.109-0.736-0.081-1.097l-4.7-21.256h-17.639l8.838,46.569
		h11.426h6.229h32.784c2.824,0,5.155,2.131,5.469,4.871l13.57,71.092c0.557,2.979-1.408,5.845-4.387,6.402
		c-0.342,0.065-0.68,0.098-1.014,0.098v0.01h-25.102c-2.763,0-5.049-2.032-5.444-4.684c-3.597-16.978-7.238-33.945-10.701-50.949
		c-0.402-1.923,0.798-4.23,2.763-4.23l3.813,0.002c1.958,0.003,3.817,0.833,4.229,2.741l0.024-0.004l9.766,46.124h14.018
		l-11.544-60.472h-28.243h-6.229h-9.339l33.24,175.124h79.821v-71.67h-78.657v-0.042c-1.966,0-3.573-1.607-3.573-3.571v-3.816
		c0-1.963,1.607-3.57,3.573-3.57h13.46h54.883l-7.39-30.146h-22.392v-0.045c-1.965,0-3.572-1.605-3.572-3.57v-3.814
		c0-1.964,1.607-3.571,3.572-3.571h7.882v-12.29c0-3.037,2.466-5.501,5.501-5.501h6.026l-1.286-6.171h-17.045v-0.045
		c-1.965,0-3.572-1.605-3.572-3.57v-3.814c0-1.964,1.607-3.571,3.572-3.571c7.397,0,14.791,0,22.185,0l-2.686-12.852
		c-0.135-0.477-0.208-0.98-0.208-1.497c0-3.038,2.466-5.502,5.506-5.502h10.848l-14.974-55.625l-54.073,21.505l-7.019,2.793
		c-1.827,0.727-3.915-0.169-4.644-1.994l-1.411-3.546c-0.729-1.822,0.171-3.91,1.993-4.641l12.419-4.941l0.126-0.045l54.293-21.592
		c2.815-1.115,6.002,0.26,7.116,3.071c0.082,0.2,0.146,0.403,0.204,0.604l0.012-0.002l18.441,68.493
		c0.781,2.933-0.961,5.943-3.891,6.727c-0.476,0.128-0.948,0.191-1.42,0.191v0.002h-11.268l2.768,13.234
		c0.842,4.059-2.519,6.616-6.059,6.616l2.201,10.553c0.618,2.967-1.286,5.872-4.252,6.488c-0.379,0.079-0.749,0.118-1.119,0.118
		v0.012h-7.279v6.791h7.804v0.022c2.479-0.002,4.725,1.679,5.331,4.189l9.053,36.935h4.525c3.039,0,5.505,2.466,5.505,5.501v82.646
		h-0.024c0,3.025-2.453,5.479-5.48,5.479h-89.519c-0.122,0.008-0.24,0.01-0.357,0.01v0.01h-75.005H800.52v-0.01
		c-0.122,0-0.24-0.002-0.361-0.01H710.64c-3.023,0-5.481-2.454-5.481-5.479h-0.02v-82.646c0-3.035,2.466-5.501,5.501-5.501h4.524
		l9.054-36.935c0.61-2.511,2.856-4.191,5.335-4.189v-0.022h7.8v-6.791h-7.275v-0.012c-0.37,0-0.744-0.039-1.119-0.118
		c-2.966-0.616-4.87-3.521-4.256-6.488l2.201-10.553c-3.536,0-6.896-2.558-6.055-6.616l2.763-13.234h-11.263v-0.002
		c-0.472,0-0.944-0.063-1.42-0.191c-2.934-0.783-4.676-3.794-3.895-6.727l18.441-68.493l0.016,0.002
		c0.053-0.201,0.122-0.404,0.204-0.604c1.11-2.812,4.301-4.187,7.112-3.071l54.293,21.592l0.126,0.045l12.418,4.941
		c1.827,0.73,2.727,2.818,1.998,4.641l-1.412,3.546c-0.728,1.825-2.819,2.721-4.643,1.994l-7.019-2.793l-54.073-21.505
		l-14.974,55.625h10.848c3.04,0,5.506,2.464,5.506,5.502c0,0.517-0.078,1.021-0.212,1.497l-2.686,12.852c7.397,0,14.791,0,22.185,0
		c1.965,0,3.572,1.607,3.572,3.571v3.814c0,1.965-1.607,3.57-3.572,3.57v0.045h-17.041l-1.29,6.171h6.026
		c3.039,0,5.505,2.464,5.505,5.501v12.29h7.878c1.965,0,3.572,1.607,3.572,3.571v3.814c0,1.965-1.607,3.57-3.572,3.57v0.045H733.85
		l-7.39,30.146h54.887h13.456c1.966,0,3.572,1.607,3.572,3.57v3.816c0,1.964-1.606,3.571-3.572,3.571v0.042h-78.658v71.67h79.822
		l33.239-175.124h-9.334h-6.229h-28.247l-11.54,60.472h14.014l9.77-46.124l0.024,0.004c0.411-1.908,2.267-2.738,4.224-2.741
		l3.813-0.002c1.97,0,3.166,2.308,2.764,4.23c-3.463,17.004-7.104,33.972-10.697,50.949c-0.396,2.651-2.682,4.684-5.444,4.684
		h-25.106v-0.01c-0.333,0-0.667-0.032-1.009-0.098c-2.982-0.558-4.944-3.424-4.387-6.402l13.57-71.092
		c0.31-2.74,2.641-4.871,5.469-4.871h32.784h6.229h11.422l8.838-46.569h-17.636l-4.703,21.256c0.032,0.36,0.008,0.727-0.077,1.097
		l-3.044,13.009c-0.443,1.913-2.381,3.119-4.289,2.667l-3.719-0.87C804.788,107.263,803.6,105.409,803.967,103.537z"/>
	<path fill="#394446" d="M921.724,368.554c0,0.417,0.333,0.792,0.793,0.792h17.261c0.46,0,0.798-0.375,0.798-0.792v-4.541
		c0-0.417-0.338-0.793-0.798-0.793h-11.548v-5.623h9.51c0.415,0,0.789-0.334,0.789-0.794v-4.541c0-0.417-0.374-0.791-0.789-0.791
		h-9.51v-5.168h11.548c0.46,0,0.798-0.374,0.798-0.791v-4.541c0-0.418-0.338-0.792-0.798-0.792h-17.261
		c-0.46,0-0.793,0.374-0.793,0.792V368.554z M896.5,368.554c0,0.417,0.374,0.792,0.789,0.792h18.099
		c0.456,0,0.794-0.375,0.794-0.792v-4.541c0-0.417-0.338-0.793-0.794-0.793h-9.09v-0.081l10.714-21.627v-0.541
		c0-0.418-0.375-0.792-0.79-0.792h-17.72c-0.42,0-0.794,0.374-0.794,0.792v4.541c0,0.417,0.374,0.791,0.794,0.791h9.09v0.083
		L896.5,367.804V368.554z M885.367,368.554c0,0.417,0.374,0.792,0.789,0.792h5.005c0.415,0,0.793-0.375,0.793-0.792v-27.583
		c0-0.418-0.378-0.792-0.793-0.792h-5.005c-0.415,0-0.789,0.374-0.789,0.792V368.554z M864.058,368.554
		c0,0.417,0.333,0.792,0.793,0.792h15.678c0.46,0,0.794-0.375,0.794-0.792v-4.541c0-0.417-0.334-0.793-0.794-0.793h-9.924v-22.249
		c0-0.418-0.374-0.792-0.794-0.792h-4.96c-0.46,0-0.793,0.374-0.793,0.792V368.554z M839.623,368.554
		c0,0.417,0.334,0.792,0.793,0.792h17.261c0.46,0,0.794-0.375,0.794-0.792v-4.541c0-0.417-0.334-0.793-0.794-0.793h-11.548v-5.623
		h9.506c0.415,0,0.793-0.334,0.793-0.794v-4.541c0-0.417-0.378-0.791-0.793-0.791h-9.506v-5.168h11.548
		c0.46,0,0.794-0.374,0.794-0.791v-4.541c0-0.418-0.334-0.792-0.794-0.792h-17.261c-0.459,0-0.793,0.374-0.793,0.792V368.554z
		 M820.608,363.387v-5.957h3.378c1.627,0,3.422,1.249,3.422,2.915c0,1.709-1.38,3.042-3.003,3.042H820.608z M820.608,352.012v-5.833
		h3.255c1.583,0,2.918,1.166,2.918,2.832c0,1.668-1.335,3.001-2.918,3.001H820.608z M814.106,368.554
		c0,0.417,0.333,0.792,0.789,0.792h10.344c4.96,0,9.09-3.375,9.09-8.043c0-3.833-3.377-5.875-5.591-6.791
		c1.961-1.041,4.838-3.375,4.838-6.583c0-4.375-4.044-7.75-8.964-7.75h-9.717c-0.456,0-0.789,0.374-0.789,0.792V368.554z"/>
	<path fill-rule="evenodd" clip-rule="evenodd" fill="#DEC372" d="M185.272,662.672l-47.042-27.111
		C106.091,646.6,60.7,653.83,2.059,657.252C63.131,659.059,124.201,660.865,185.272,662.672 M155.845,559.389
		c-4.608,20.797-15.723,35.754-33.736,40.535c19.281,1.787,38.365,1.404,57.646,3.19c0.395-9.069,0.789-18.14,1.182-27.214
		C166.193,577.724,157.827,572.219,155.845,559.389z M70.347,631.162l33.362-6.601c-14.632-13.086-24.021-48.815-28.17-107.201
		C73.741,556.76,72.144,591.762,70.347,631.162z M9.957,515.158l53.458-4.264c-28.727-2.161-45.538-7.983-50.431-17.477
		C12.061,500.697,11.009,507.928,9.957,515.158z M9.17,544.346l57.531-5.021c-30.961-1.676-48.869-7.499-53.717-17.472
		C11.713,529.348,10.441,536.851,9.17,544.346z M9.17,574.322l58.154-6.588c-32.635-2.751-50.749-8.569-54.339-17.456
		C11.796,557.757,10.484,566.041,9.17,574.322z M7.786,598.977l59.642-2.779c-30.383-2.832-48.531-8.651-54.443-17.461
		C7.522,598.977,5.786,605.723,7.786,598.977z M8.376,627.179l59.155-2.621c-25.496-1.485-43.681-7.287-54.547-17.407
		C8.374,627.442,6.84,634.12,8.376,627.179z M7.988,491.099l48.006-8.639c-26.04-2.535-40.371-23.189-42.987-61.963
		C11.334,444.032,9.662,467.567,7.988,491.099z M210.091,635.459l44.128-10.791c-23.861-5.335-36.251-14.01-37.17-26.025
		C209.04,607.586,206.677,620.074,210.091,635.459z"/>
	<path fill="#394446" d="M240.191,598.643h-23.142l-3.768,12.243l0.069,0.647l1.27,11.69c0.37-0.073,0.75-0.106,1.143-0.098
		l35.449,0.752c2.779-0.089,5.229,1.941,5.607,4.757l0.663,4.883l0.802-2.641c0.041-0.175,0.087-0.346,0.146-0.517l12.412-36.617
		h0.004c0.616-1.814,2.167-3.251,4.187-3.63l9.94-1.863v-4.875l-10.901,0.55l-10.402,22.957c-0.128,0.285-0.289,0.57-0.472,0.839
		c-1.709,2.502-5.127,3.145-7.631,1.436L240.191,598.643z M218.691,657.252h30.933l-3.052-22.51l-25.879-0.549L218.691,657.252z
		 M67.428,596.197l-0.065-17.461H12.984v17.461H67.428z M63.416,510.895c-1.092-6.132-2.413-11.951-3.953-17.477h-3.627H12.984
		v17.477H63.416z M66.701,539.324c-0.368-6.087-0.909-11.905-1.619-17.472H12.984v17.472H66.701z M67.287,558.318
		c-0.01-2.73-0.046-5.407-0.116-8.04H12.984v17.456h54.337L67.287,558.318z M50.572,469.305
		c-9.056-19.238-21.72-34.737-37.565-48.808v30.184h-0.022v31.779h42.851h0.159C54.358,477.874,52.547,473.5,50.572,469.305z
		 M78.496,624.558h25.213l0.258-75.781c0.12-35.596-8.675-61.971-25.276-82.999c-10.134-12.838-23.245-23.8-39.067-33.729
		c8.189,9.79,15.175,20.492,20.882,32.613c11.444,24.313,17.603,54.175,17.745,93.656L78.496,624.558z M12.984,624.558h54.547
		l-0.063-17.407H12.984V624.558z M301.086,426.869c1.589,0.366,2.787,1.795,2.787,3.491v3.829c0,1.696-1.198,3.129-2.787,3.499
		v0.041h-0.23c-0.185,0.032-0.376,0.045-0.572,0.045h-18.854c-0.195,0-0.391-0.013-0.578-0.045h-28.249l-13.452,24.577
		c-0.846,1.944-2.789,3.308-5.049,3.308h-29.989h-0.083h-19.313h-0.087h-0.484v-0.045c-1.579-0.272-2.787-1.656-2.787-3.312v-4.285
		c0-1.656,1.208-3.031,2.787-3.304v-0.053h0.572h19.313h26.833l13.674-24.984c1.036-1.9,3.036-2.945,5.062-2.856h31.832h18.854
		h0.802V426.869z M277.838,657.248h20.455c1.534,0,2.787,1.254,2.787,2.787v5.429c0,1.534-1.253,2.787-2.787,2.787h-10.231l0,0
		h-97.801h-24.092H7.577l0,0H4.785c-1.532,0-2.785-1.253-2.785-2.787v-5.429c0-1.533,1.253-2.787,2.785-2.787h20.457l0.037,0.004
		h140.89h5.525l-33.463-21.691H2.059v-5.021H2.022V450.681H2v-39.225v-14.453v-4.843c-0.002-1.847,1.51-3.356,3.359-3.356h4.287
		c1.851,0,3.361,1.51,3.361,3.356v4.843v8.203c31.777,15.063,56.873,31.729,74.286,53.78c18.15,22.993,27.767,51.542,27.639,89.79
		l-0.258,75.781h18.451v-15.8h-4.5v-0.004h-4.82c-1.973,0-3.589-1.611-3.589-3.585v-3.829c0-1.973,1.616-3.584,3.589-3.584h18.852
		h0.044h32.719v-16.48h-14.07c-3.038,0-5.503-2.465-5.503-5.501v-16.386h-13.1h-0.089h-18.852c-1.973,0-3.589-1.615-3.589-3.585
		v-3.829c0-1.973,1.616-3.589,3.589-3.589h18.852h18.693c3.04,0,5.505,2.466,5.505,5.502v16.386h14.068
		c3.04,0,5.505,2.462,5.505,5.501v27.482c0,3.035-2.466,5.501-5.505,5.501h-36.79v17.558l47.722,30.937h15.413l-2.646-24.385
		l-4.362,10.929c-0.7,1.848-2.781,2.779-4.628,2.079l-3.581-1.354c-1.845-0.7-2.785-2.779-2.083-4.622l6.686-17.619
		c0.209-0.541,0.533-1.005,0.94-1.375l4.893-12.261l0.002-0.004l0.014-0.032l5.255-17.078c0.725-2.355,2.899-3.873,5.245-3.873
		v-0.017h28.872c1.302,0,2.502,0.452,3.444,1.209l11.043,7.552l8.433-18.611l-0.71-9.192c-0.153-1.965,1.334-3.698,3.302-3.849
		l3.821-0.293c1.967-0.151,3.701,1.334,3.852,3.3l0.059,0.769l0.369,4.35l14.738-0.748c3.027-0.139,5.597,2.197,5.739,5.221
		l0.008,0.26h0.014v15.198c0,2.819-2.12,5.143-4.858,5.46l-10.907,2.043l-11.381,33.577l-0.067,0.188l-7.036,23.181h16.066
		L277.838,657.248z M7.369,685.431h17.873h0.071h252.449h10.303h10.228c1.534,0,2.787,1.253,2.787,2.787v5.432
		c0,1.53-1.253,2.783-2.787,2.783h-10.228h-10.228H25.242H7.369H4.785c-1.532,0-2.785-1.253-2.785-2.783v-5.432
		c0-1.534,1.253-2.787,2.785-2.787H7.369z"/>
	<path fill="#394446" d="M200.783,760.08c0,0.415,0.332,0.789,0.792,0.789h17.263c0.458,0,0.792-0.374,0.792-0.789v-4.541
		c0-0.419-0.333-0.793-0.792-0.793h-11.55v-5.628h9.507c0.415,0,0.792-0.329,0.792-0.789v-4.541c0-0.419-0.376-0.794-0.792-0.794
		h-9.507v-5.167h11.55c0.458,0,0.792-0.375,0.792-0.79v-4.541c0-0.419-0.333-0.793-0.792-0.793h-17.263
		c-0.46,0-0.792,0.374-0.792,0.793V760.08z M178.935,757.37c0,2.124,1.792,3.923,3.918,3.923c2.167,0,4.002-1.799,4.002-3.923
		c0-2.169-1.835-4-4.002-4C180.727,753.37,178.935,755.201,178.935,757.37z M151.624,750.868l3.127-6.873h0.041l3.169,6.873H151.624
		z M141.533,760.869h4.585c0.834,0,1.292-0.5,1.501-1l1.5-3.333h11.342l1.501,3.292c0.375,0.793,0.71,1.041,1.461,1.041h4.626
		c0.626,0,0.96-0.541,0.708-1.082l-13.049-28.043c-0.126-0.249-0.417-0.456-0.71-0.456h-0.415c-0.291,0-0.584,0.207-0.71,0.456
		l-13.057,28.043C140.566,760.328,140.9,760.869,141.533,760.869z M122.728,757.37c0,2.124,1.791,3.923,3.92,3.923
		c2.167,0,4-1.799,4-3.923c0-2.169-1.833-4-4-4C124.518,753.37,122.728,755.201,122.728,757.37z M85.492,749.704
		c0,6.331,5.296,11.589,11.843,11.589c6.588,0,11.924-5.258,11.924-11.589v-17.208c0-0.419-0.375-0.793-0.792-0.793h-5.129
		c-0.458,0-0.792,0.374-0.792,0.793v16.875c0,2.917-2.209,5.248-5.212,5.248c-2.962,0-5.129-2.331-5.129-5.248v-16.875
		c0-0.419-0.334-0.793-0.792-0.793h-5.131c-0.415,0-0.792,0.374-0.792,0.793V749.704z"/>
	<path fill-rule="evenodd" clip-rule="evenodd" fill="#DEC372" d="M628.873,592.071l19.376,7.723
		c-10.782-1.192-15.856,10.213-15.222,34.221C631.644,620.037,630.256,606.052,628.873,592.071"/>
	<path fill-rule="evenodd" clip-rule="evenodd" fill="#DEC372" d="M454.346,560.52l2.348-52.132
		c0.686,29.558,24.709,45.316,72.066,47.282C503.955,557.289,479.15,558.904,454.346,560.52"/>
	<path fill-rule="evenodd" clip-rule="evenodd" fill="#DEC372" d="M748.245,560.52l-2.352-52.132
		c-0.684,29.558-24.707,45.316-72.066,47.282C698.632,557.289,723.437,558.904,748.245,560.52"/>
	<polygon fill-rule="evenodd" clip-rule="evenodd" fill="#DEC372" points="466.561,485.577 537.278,456.793 488.23,485.972 	"/>
	<path fill-rule="evenodd" clip-rule="evenodd" fill="#DEC372" d="M518.013,663.727c0.667,2.083,1.032,4.313,1.032,6.62
		c0,12.008-9.741,21.74-21.755,21.74c-12.012,0-21.753-9.732-21.753-21.74c0-2.308,0.364-4.537,1.029-6.62
		c2.806,8.765,11.021,15.12,20.724,15.12C506.992,678.847,515.21,672.491,518.013,663.727"/>
	<path fill-rule="evenodd" clip-rule="evenodd" fill="#DEC372" d="M701.545,663.727c0.668,2.083,1.03,4.313,1.03,6.62
		c0,12.008-9.741,21.74-21.753,21.74s-21.753-9.732-21.753-21.74c0-2.308,0.361-4.537,1.029-6.62
		c2.804,8.765,11.022,15.12,20.724,15.12C690.526,678.847,698.742,672.491,701.545,663.727"/>
	<path fill-rule="evenodd" clip-rule="evenodd" fill="#DEC372" d="M611.934,682l-5.314-29.269
		c-16.322,14.107-44.394,22.196-84.215,24.268C552.048,678.317,581.992,680.161,611.934,682"/>
	<path fill-rule="evenodd" clip-rule="evenodd" fill="#DEC372" d="M713.968,579.055l12.211,6.709
		c-18.848,0.477-29.414,16.826-31.693,49.044c-0.862-15.69-1.721-31.38-2.579-47.074
		C699.259,584.84,706.615,581.947,713.968,579.055"/>
	<path fill-rule="evenodd" clip-rule="evenodd" fill="#DEC372" d="M476.408,581.821l32.898,4.337
		c-19.702,0.509-29.944,8.94-30.719,25.289C477.466,603.61,477.529,589.658,476.408,581.821"/>
	<path fill-rule="evenodd" clip-rule="evenodd" fill="#DEC372" d="M552.445,445.741l85.14-5.123
		c-36.243-3.052-63.619-6.319-82.129-9.798C554.451,435.793,553.448,440.765,552.445,445.741"/>
	<path fill-rule="evenodd" clip-rule="evenodd" fill="#DEC372" d="M622.342,477.703c0.668,2.088,1.029,4.313,1.029,6.625
		c0,12.003-9.74,21.736-21.752,21.736c-12.014,0-21.755-9.733-21.755-21.736c0-2.312,0.364-4.537,1.031-6.625
		c2.806,8.765,11.021,15.121,20.724,15.121C611.319,492.824,619.539,486.468,622.342,477.703"/>
	<path fill-rule="evenodd" clip-rule="evenodd" fill="#DEC372" d="M601.293,540.936l45.837,23.873
		c-30.559-5.176-61.116-5.343-91.675,0L601.293,540.936z"/>
	<path fill="#394446" d="M506.905,659.12c-2.6-2.177-5.965-3.491-9.646-3.491c-4.146,0-7.898,1.668-10.602,4.362
		c-2.694,2.686-4.36,6.412-4.36,10.538c0,1.628,0.25,3.158,0.704,4.569l0.063,0.18c0.525,1.554,1.3,2.994,2.272,4.269
		c1.398,1.826,3.205,3.328,5.28,4.354c1.981,0.98,4.238,1.53,6.643,1.53v0.024c3.275,0,6.309-1.05,8.775-2.828
		c2.515-1.811,4.445-4.403,5.446-7.426c0.263-0.798,0.456-1.567,0.572-2.287c0.112-0.7,0.171-1.497,0.171-2.385h0.022l-0.002-0.069
		h0.002l-0.002-0.02c0-0.236-0.021-0.606-0.059-1.087l-0.019-0.171v-0.021c-0.039-0.443-0.093-0.846-0.154-1.2
		C511.403,664.438,509.542,661.334,506.905,659.12 M689.379,658.005c-2.319-1.501-5.119-2.376-8.142-2.376
		c-4.146,0-7.898,1.668-10.604,4.362c-2.693,2.686-4.357,6.412-4.357,10.538h-0.024c0,1.583,0.26,3.129,0.736,4.599
		c0.443,1.375,1.07,2.645,1.843,3.779c0.143,0.167,0.281,0.347,0.407,0.537l0.004,0.005l-0.016,0.008
		c1.354,1.803,3.141,3.304,5.22,4.357c2.026,1.034,4.338,1.616,6.792,1.616c2.453,0,4.761-0.582,6.787-1.616
		c2.144-1.09,3.979-2.656,5.354-4.536l0.118-0.176c0.064-0.113,0.138-0.228,0.216-0.337l0.309-0.469
		c0.704-1.147,1.258-2.4,1.632-3.727c0.354-1.258,0.545-2.612,0.545-4.041c0-1.099-0.109-2.14-0.313-3.104
		c-0.225-1.05-0.55-2.043-0.957-2.954C693.745,661.822,691.804,659.576,689.379,658.005z M616.255,485.402
		c0-8.228-6.697-14.901-14.961-14.901c-4.148,0-7.898,1.669-10.602,4.362c-2.696,2.686-4.362,6.413-4.362,10.539
		c0,8.228,6.702,14.9,14.963,14.9c4.146,0,7.898-1.668,10.603-4.362C614.587,493.255,616.255,489.528,616.255,485.402z
		 M601.293,459.499c14.339,0,25.972,11.601,25.972,25.903c0,7.137-2.918,13.614-7.629,18.314c-4.704,4.688-11.19,7.589-18.343,7.589
		c-14.341,0-25.97-11.602-25.97-25.903c0-7.142,2.916-13.615,7.627-18.315C587.654,462.399,594.14,459.499,601.293,459.499z
		 M483.516,648.561c0.153-0.288,0.33-0.565,0.533-0.825l10.866-14.686h-22.088l-16.134,12.891v32.015h15.704
		c-0.718-2.376-1.108-4.87-1.108-7.426c0-7.137,2.915-13.614,7.629-18.314C480.304,650.836,481.85,649.606,483.516,648.561z
		 M562.268,652.731l-39.63,12.293c0.08,0.362,0.148,0.724,0.211,1.09c0.128,0.737,0.222,1.445,0.281,2.124l0.004,0.054
		c0.044,0.537,0.071,1.229,0.073,2.083l0.002,0.114v0.04h0.022c0,1.318-0.116,2.694-0.344,4.105
		c-0.13,0.822-0.291,1.607-0.484,2.364h84.215v-24.268H562.268z M518.021,654.974l37.988-11.784l0.004-7.926h-13.189l-32.394,12.939
		c1.245,0.736,2.423,1.574,3.524,2.494C515.466,651.967,516.831,653.399,518.021,654.974z M706.375,676.999h24.854l-11.653-6.852
		l-12.443-1.506c0.049,0.627,0.077,1.257,0.077,1.888C707.209,672.743,706.916,674.912,706.375,676.999z M662.097,687.998h-49.996
		h-95.69c-1.196,1.302-2.531,2.486-3.971,3.523c-4.265,3.072-9.512,4.887-15.18,4.887v0.024c-4.107,0-8.016-0.973-11.501-2.693
		c-2.494-1.233-4.757-2.856-6.716-4.781H451.19c-3.038,0-5.503-2.466-5.503-5.501v-40.125h0.033c0-1.607,0.7-3.194,2.053-4.276
		l19.33-15.446c0.991-0.968,2.346-1.563,3.839-1.563h34.867v0.013c1.138,0,2.285,0.354,3.268,1.086
		c2.436,1.803,2.944,5.237,1.139,7.671l-5.947,8.032l35.105-14.022c0.734-0.362,1.556-0.565,2.429-0.565h19.694v0.024
		c3.027,0,5.483,2.454,5.483,5.477l-0.006,11.968h45.127c3.039,0,5.505,2.466,5.505,5.501c0,0.163-0.008,0.317-0.02,0.476v0.627
		l44.34,4.695l-0.024,0.229c0.321-0.358,0.654-0.7,0.992-1.042c4.704-4.688,11.194-7.589,18.344-7.589
		c5.184,0,10.034,1.538,14.119,4.184c3.279,2.124,6.047,4.968,8.081,8.313l18.542,2.246v0.017c0.729,0.081,1.457,0.321,2.129,0.716
		l29.639,17.42c1.867,0.879,3.161,2.778,3.161,4.976c0,3.04-2.466,5.502-5.505,5.502h-51.034c-2.1,2.295-4.59,4.203-7.356,5.615
		c-3.54,1.798-7.544,2.819-11.775,2.819c-4.232,0-8.24-1.021-11.78-2.819C666.687,692.201,664.191,690.293,662.097,687.998z
		 M617.586,676.999h38.509c-0.529-2.059-0.806-4.224-0.806-6.47h-0.024c0-2.449,0.342-4.821,0.98-7.071l-38.659-4.094V676.999z
		 M510.488,614.41h5.084c1.63,0,2.962-1.335,2.962-2.963v-10.453v-0.077v-7.666c0-5.574-3.202-10.466-8.36-13.859
		c-4.484-2.95-10.555-4.78-17.118-4.78c-6.563,0-12.632,1.83-17.119,4.78c-5.157,3.394-8.359,8.285-8.359,13.859v7.743v10.453
		c0,1.628,1.333,2.963,2.962,2.963h5.083c1.629,0,2.964-1.335,2.964-2.963v-10.453v-0.077v-7.666c0-1.66,1.292-3.341,3.372-4.708
		c2.75-1.811,6.675-2.934,11.098-2.934c4.423,0,8.348,1.123,11.096,2.934c2.081,1.371,3.373,3.048,3.373,4.708v7.743v10.453
		C507.525,613.075,508.858,614.41,510.488,614.41z M726.387,652.528h5.082c1.632,0,2.967-1.331,2.967-2.962v-10.449v-45.87
		c0-5.57-3.207-10.462-8.362-13.855c-4.488-2.95-10.555-4.78-17.118-4.78s-12.63,1.83-17.118,4.78
		c-5.144,3.386-8.338,8.276-8.338,13.855h-0.024v31.03v0.077v10.453c0,1.632,1.335,2.962,2.967,2.962h5.082
		c1.628,0,2.962-1.33,2.962-2.962v-10.453v-31.107h-0.024c0-1.648,1.303-3.324,3.397-4.704c2.751-1.811,6.674-2.934,11.097-2.934
		s8.346,1.123,11.096,2.934c2.08,1.371,3.374,3.048,3.374,4.704v45.788v10.531C723.425,651.197,724.759,652.528,726.387,652.528z
		 M547.412,583.07h5.083c1.629,0,2.962-1.33,2.962-2.962v-10.454v-0.077v-4.769l45.837-17.208l45.841,17.208v4.769v0.077v10.454
		c0,4.357,11.007,4.357,11.007,0v-10.454v-8.643c0-2.506-1.685-4.622-3.976-5.285l-50.936-19.12
		c-1.343-0.505-2.755-0.456-3.985,0.04l-51.229,19.23c-2.199,0.83-3.554,2.918-3.552,5.135h-0.016v8.643v10.454
		C544.448,581.74,545.78,583.07,547.412,583.07z M605.028,591.754v5.078c0,1.627,1.335,2.962,2.962,2.962h10.462h3.564v23.771
		v10.449c0,1.631,1.335,2.962,2.966,2.962h5.083c1.627,0,2.962-1.331,2.962-2.962v-10.449v-0.082v-23.689h15.222v23.84v0.078v10.453
		c0,1.632,1.335,2.962,2.963,2.962h5.082c1.632,0,2.966-1.33,2.966-2.962v-10.453v-23.918h3.564h10.462
		c1.628,0,2.962-1.335,2.962-2.962v-5.078c0-1.628-1.334-2.963-2.962-2.963c-21.766,0-43.53,0-65.296,0
		C606.363,588.791,605.028,590.126,605.028,591.754z M526.34,591.773v5.083c0,1.627,1.333,2.958,2.962,2.958h10.461h3.566v1.534
		v10.453c0,1.627,1.333,2.962,2.962,2.962h5.082c1.632,0,2.964-1.335,2.964-2.962v-10.453v-0.077v-1.457h15.224v23.673v10.454
		c0,1.627,1.333,2.962,2.962,2.962h5.082c1.63,0,2.964-1.335,2.964-2.962v-10.454v-0.077v-23.596h3.566h10.459
		c1.629,0,2.964-1.331,2.964-2.958v-5.083c0-1.627-1.335-2.958-2.964-2.958c-21.763,0-43.53,0-65.295,0
		C527.673,588.815,526.34,590.146,526.34,591.773z M533.893,548.064l0.08,5.2c0.024,1.632,2.317,2.278,3.837,1.692l0.946-0.37
		l62.539-23.787l60.554,23.03l1.953,0.762c2.315,0.895,3.838-0.477,3.833-2.649l-0.016-4.496c-0.004-1.628-0.171-3.239-1.688-3.833
		c-20.81-8.073-41.736-15.861-62.606-23.796c-1.236-0.492-2.648-0.541-3.987-0.028l-63.757,24.442
		C534.063,544.81,533.868,546.433,533.893,548.064z M534.969,413.458l-0.01,3.69c-0.012,4.663,2.853,3.833,5.861,2.665
		l60.474-23.002l61.694,23.466c2.62,0.993,4.712,0.676,4.729-2.734l0.024-4.053c0.012-1.632-0.171-3.243-1.688-3.833l-62.729-23.83
		c-1.236-0.492-2.648-0.539-3.987-0.028c-21.234,8.075-40.714,15.317-61.847,23.505
		C535.286,410.153,535.026,411.032,534.969,413.458z M519.952,547.512h5.082c1.632,0,2.964-1.335,2.964-2.963v-24.85
		c0-1.627-1.336-2.962-2.964-2.962h-5.082c-1.625,0-2.962,1.339-2.962,2.962v24.85C516.99,546.173,518.323,547.512,519.952,547.512z
		 M473.661,547.512h5.082c1.63,0,2.962-1.335,2.962-2.963v-24.85c0-1.627-1.334-2.962-2.962-2.962h-5.082
		c-1.627,0-2.964,1.335-2.964,2.962v24.85C470.697,546.177,472.031,547.512,473.661,547.512z M723.848,547.512h5.082
		c1.632,0,2.962-1.335,2.962-2.963v-24.85c0-1.627-1.334-2.962-2.962-2.962h-5.082c-1.628,0-2.962,1.339-2.962,2.962v24.85
		C720.886,546.173,722.216,547.512,723.848,547.512z M677.555,547.512h5.082c1.632,0,2.962-1.335,2.962-2.963v-24.85
		c0-1.627-1.334-2.962-2.962-2.962h-5.082c-1.628,0-2.963,1.335-2.963,2.962v24.85C674.592,546.177,675.927,547.512,677.555,547.512
		z M700.699,547.512h5.086c1.628,0,2.962-1.335,2.962-2.963v-24.85c0-1.627-1.334-2.962-2.962-2.962h-5.086
		c-1.628,0-2.963,1.335-2.963,2.962v24.85C697.736,546.177,699.071,547.512,700.699,547.512z M496.808,547.512h5.082
		c1.63,0,2.962-1.335,2.962-2.963v-24.85c0-1.627-1.336-2.962-2.962-2.962h-5.082c-1.627,0-2.964,1.335-2.964,2.962v24.85
		C493.843,546.177,495.176,547.512,496.808,547.512z M647.131,446.12v-15.3l-45.837-17.212l-45.837,17.212v9.798h82.129
		c1.632,0,2.962,1.335,2.962,2.963v5.078c0,1.627-1.33,2.962-2.962,2.962c-27.377,0-54.754-0.004-82.129-0.004
		c0,26.668,0,53.341,0,80.009c0,1.628-1.334,2.958-2.964,2.958h-5.083c-1.629,0-2.964-1.33-2.964-2.958v-23.238h-87.752v47.282
		h61.534h10.532c1.632,0,2.964,1.334,2.964,2.962v5.078c0,1.632-1.333,2.962-2.964,2.962H518.3h-61.607c0,15.434,0,30.872,0,46.306
		c0,1.632-1.334,2.962-2.964,2.962h-5.082c-1.63,0-2.962-1.33-2.962-2.962c0-39.624,0-79.248,0-118.872v-7.189v-10.308v-10.453
		c0-1.632,1.333-2.962,2.962-2.962h5.082c1.63,0,2.964,1.33,2.964,2.962v10.453v0.073v2.031l77.669-32.085
		c2.138-0.883,3.171,0.92,3.171,4.045v2.169c0,3.805,0.684,4.057-2.826,5.505l-55.845,23.071c17.189,0,34.383,0,51.573,0
		c1.629,0,2.964,1.331,2.964,2.959v5.078c0,1.631-1.335,2.962-2.964,2.962h-73.743v1.688v3.284h87.752v-33.729v-9.338v-11.861
		v-7.719v-7.72h0.017c-0.002-2.217,1.353-4.305,3.554-5.135l51.227-19.23c1.233-0.496,2.645-0.549,3.988-0.044l50.936,19.124
		c2.291,0.663,3.976,2.783,3.976,5.285v7.72v7.719v11.861v9.338v33.729h87.752v-4.973h-73.738c-1.632,0-2.963-1.331-2.963-2.962
		v-5.078c0-1.628,1.331-2.959,2.963-2.959c17.188,0,34.379,0,51.57,0l-55.033-22.733c-2.353-0.549-3.508-3.438-3.508-5.644v-2.47
		c-0.069-2.815,1.082-4.753,4.329-3.41l76.384,31.552v-2.031v-0.073v-10.453c0-1.632,1.331-2.962,2.962-2.962h5.083
		c1.631,0,2.962,1.33,2.962,2.962v10.453v17.497l0,0V650.86v10.453c0,1.627-1.335,2.958-2.962,2.958h-5.083
		c-1.631,0-2.966-1.331-2.966-2.958V650.86v-0.082v-84.106h-61.604h-10.462c-1.628,0-2.962-1.33-2.962-2.962v-5.078
		c0-1.628,1.334-2.962,2.962-2.962h10.535h61.531v-47.282h-87.752v23.238c0,1.628-1.335,2.958-2.967,2.958h-5.082
		c-1.628,0-2.962-1.33-2.962-2.958C647.131,503.122,647.131,474.619,647.131,446.12z"/>
	<path fill="#394446" d="M672.22,746.192c0-4.585,3.752-8.378,8.301-8.378c4.586,0,8.338,3.793,8.338,8.378
		c0,4.541-3.752,8.289-8.338,8.289C675.972,754.481,672.22,750.733,672.22,746.192 M665.551,746.192
		c0,8.334,6.629,14.966,14.97,14.966c8.338,0,15.011-6.632,15.011-14.966c0-8.337-6.673-15.043-15.011-15.043
		C672.18,731.149,665.551,737.855,665.551,746.192z M637.613,746.192c0,8.334,6.714,14.966,15.051,14.966
		c3.711,0,7.3-1.302,10.136-4.049c0.289-0.293,0.33-0.834,0.041-1.127l-3.255-3.458c-0.248-0.293-0.79-0.293-1.083-0.041
		c-1.501,1.29-3.629,1.998-5.586,1.998c-4.712,0-8.216-3.833-8.216-8.456c0-4.667,3.459-8.585,8.171-8.585
		c2.047,0,4.089,0.753,5.631,2.128c0.293,0.289,0.749,0.289,1.042,0l3.255-3.377c0.33-0.334,0.33-0.834-0.044-1.168
		c-2.837-2.584-5.921-3.874-10.092-3.874C644.327,731.149,637.613,737.855,637.613,746.192z M619.433,750.733l3.129-6.876h0.041
		l3.17,6.876H619.433z M609.342,760.731h4.586c0.838,0,1.294-0.497,1.501-0.997l1.502-3.337h11.344l1.502,3.292
		c0.374,0.794,0.708,1.042,1.456,1.042h4.631c0.623,0,0.956-0.541,0.708-1.083l-13.054-28.039c-0.121-0.252-0.414-0.46-0.707-0.46
		h-0.416c-0.293,0-0.586,0.208-0.707,0.46l-13.063,28.039C608.377,760.19,608.711,760.731,609.342,760.731z M580.155,759.941
		c0,0.416,0.374,0.79,0.792,0.79h4.962c0.458,0,0.793-0.374,0.793-0.79v-15.543h0.043l16.469,16.549
		c0.081,0.085,0.415,0.211,0.541,0.211h0.667c0.415,0,0.794-0.333,0.794-0.757v-28.043c0-0.415-0.379-0.79-0.794-0.79h-5.004
		c-0.458,0-0.792,0.375-0.792,0.79v14.79h-0.041l-16.636-15.999h-1.044c-0.417,0-0.792,0.334-0.792,0.749L580.155,759.941z
		 M551.802,746.192c0-4.585,3.751-8.378,8.297-8.378c4.588,0,8.339,3.793,8.339,8.378c0,4.541-3.751,8.289-8.339,8.289
		C555.554,754.481,551.802,750.733,551.802,746.192z M545.129,746.192c0,8.334,6.631,14.966,14.97,14.966
		s15.013-6.632,15.013-14.966c0-8.337-6.673-15.043-15.013-15.043S545.129,737.855,545.129,746.192z M508.813,759.815
		c-0.083,0.542,0.291,0.916,0.791,0.916h4.922c0.417,0,0.749-0.33,0.791-0.663l1.833-12.879h0.085l7.048,13.501
		c0.124,0.257,0.458,0.468,0.708,0.468h0.75c0.208,0,0.582-0.211,0.708-0.468l7.005-13.501h0.083l1.876,12.879
		c0.041,0.333,0.419,0.663,0.793,0.663h4.919c0.5,0,0.875-0.374,0.791-0.916l-4.712-27.999c-0.041-0.374-0.417-0.667-0.749-0.667
		h-0.667c-0.209,0-0.583,0.167-0.71,0.419l-9.674,17.998h-0.082l-9.676-17.998c-0.125-0.252-0.499-0.419-0.706-0.419h-0.669
		c-0.333,0-0.708,0.293-0.751,0.667L508.813,759.815z"/>
	<path fill-rule="evenodd" clip-rule="evenodd" fill="#DEC372" d="M1011.807,626.779l32.178-63.672
		c-12.19,24.402-27.148,38.619-44.873,42.656C1003.344,612.77,1007.575,619.772,1011.807,626.779"/>
	<path fill-rule="evenodd" clip-rule="evenodd" fill="#DEC372" d="M971.227,682.395l55.322-6.111
		c-30.985-4.175-59.582-17.619-85.782-40.345C950.919,651.422,961.07,666.908,971.227,682.395"/>
	<path fill-rule="evenodd" clip-rule="evenodd" fill="#DEC372" d="M1192.239,568.011l-12.378-1.347l-7.638-13.289
		c-3.442,15.421-10.612,25.826-21.496,31.221c14.229,1.046,28.462,2.092,42.695,3.138
		C1193.028,581.162,1192.634,574.586,1192.239,568.011"/>
	<path fill-rule="evenodd" clip-rule="evenodd" fill="#DEC372" d="M1129.202,443.768l5.623,181.6
		c-11.719-59.143-23.438-118.29-35.156-177.433C1109.512,446.547,1119.359,445.159,1129.202,443.768"/>
	<path fill-rule="evenodd" clip-rule="evenodd" fill="#DEC372" d="M927.103,555.393l55.538,69.593
		c-24.598-17.753-47.522-28.516-65.809-19.954L927.103,555.393z"/>
	<path fill="#394446" d="M1135.696,750.733l3.129-6.876h0.041l3.17,6.876H1135.696z M1125.609,760.731h4.586
		c0.834,0,1.289-0.497,1.497-0.997l1.501-3.337h11.345l1.497,3.292c0.379,0.794,0.713,1.042,1.461,1.042h4.631
		c0.622,0,0.96-0.541,0.708-1.083l-13.054-28.039c-0.122-0.252-0.415-0.46-0.708-0.46h-0.415c-0.293,0-0.586,0.208-0.712,0.46
		l-13.058,28.039C1124.641,760.19,1124.975,760.731,1125.609,760.731z M1104.8,754.566v-16.874h4.004c4.708,0,8.13,3.707,8.13,8.415
		c0,4.748-3.422,8.459-8.13,8.459H1104.8z M1098.294,759.941c0,0.416,0.334,0.79,0.753,0.79h10.172
		c8.049,0,14.637-6.539,14.637-14.624c0-8-6.588-14.539-14.637-14.539h-10.172c-0.419,0-0.753,0.375-0.753,0.79V759.941z
		 M1067.817,749.566c0,6.335,5.293,11.592,11.841,11.592c6.587,0,11.926-5.257,11.926-11.592v-17.208c0-0.415-0.378-0.79-0.793-0.79
		h-5.132c-0.455,0-0.789,0.375-0.789,0.79v16.874c0,2.917-2.209,5.249-5.212,5.249c-2.963,0-5.132-2.332-5.132-5.249v-16.874
		c0-0.415-0.333-0.79-0.789-0.79h-5.131c-0.415,0-0.789,0.375-0.789,0.79V749.566z M1029.788,759.815
		c-0.085,0.542,0.293,0.916,0.794,0.916h4.919c0.415,0,0.749-0.33,0.789-0.663l1.835-12.879h0.086l7.048,13.501
		c0.126,0.257,0.455,0.468,0.708,0.468h0.752c0.208,0,0.582-0.211,0.704-0.468l7.007-13.501h0.086l1.876,12.879
		c0.04,0.333,0.415,0.663,0.789,0.663h4.924c0.496,0,0.874-0.374,0.789-0.916l-4.708-27.999c-0.045-0.374-0.419-0.667-0.753-0.667
		h-0.667c-0.208,0-0.582,0.167-0.708,0.419l-9.676,17.998h-0.082l-9.676-17.998c-0.122-0.252-0.501-0.419-0.708-0.419h-0.667
		c-0.334,0-0.708,0.293-0.749,0.667L1029.788,759.815z M1010.232,744.064v-6.539h6.173c1.709,0,3.165,1.425,3.165,3.187
		c0,1.758-1.456,3.353-3.165,3.353H1010.232z M1003.686,759.941c0,0.416,0.334,0.79,0.793,0.79h4.961
		c0.419,0,0.793-0.374,0.793-0.79v-10.583h2.877l5.546,10.999c0.081,0.166,0.334,0.374,0.667,0.374h5.547c0.707,0,1-0.663,0.707-1.2
		l-5.713-10.547c3.63-1.461,6.173-4.545,6.173-8.398c0-4.977-4.085-9.018-9.094-9.018h-12.464c-0.459,0-0.793,0.375-0.793,0.79
		V759.941z M979.251,759.941c0,0.416,0.334,0.79,0.794,0.79h17.26c0.46,0,0.794-0.374,0.794-0.79V755.4
		c0-0.419-0.334-0.793-0.794-0.793h-11.552v-5.623h9.51c0.415,0,0.793-0.334,0.793-0.794v-4.541c0-0.415-0.378-0.793-0.793-0.793
		h-9.51v-5.164h11.552c0.46,0,0.794-0.374,0.794-0.793v-4.541c0-0.415-0.334-0.79-0.794-0.79h-17.26c-0.46,0-0.794,0.375-0.794,0.79
		V759.941z M960.236,754.774v-5.957h3.378c1.627,0,3.422,1.249,3.422,2.917c0,1.705-1.38,3.04-3.003,3.04H960.236z M960.236,743.397
		v-5.831h3.256c1.582,0,2.917,1.168,2.917,2.832c0,1.668-1.335,2.999-2.917,2.999H960.236z M953.734,759.941
		c0,0.416,0.334,0.79,0.789,0.79h10.344c4.96,0,9.09-3.373,9.09-8.04c0-3.834-3.377-5.876-5.591-6.792
		c1.962-1.041,4.838-3.373,4.838-6.583c0-4.375-4.044-7.748-8.964-7.748h-9.717c-0.455,0-0.789,0.375-0.789,0.79V759.941z"/>
	<path fill-rule="evenodd" clip-rule="evenodd" fill="#394446" d="M1189.432,673.549h-59.497h-0.077h-4.533h-4.533
		c-1.729,0-3.141-1.416-3.141-3.142v-4.72c0-1.729,1.412-3.142,3.141-3.142h4.533h4.533h59.655h4.537h4.533
		c1.725,0,3.141,1.412,3.141,3.142v4.72c0,1.726-1.416,3.142-3.141,3.142h-4.533h-4.537H1189.432z"/>
	<path fill-rule="evenodd" clip-rule="evenodd" fill="#394446" d="M1111.767,399.493l-9.778,11.73l-6.49,7.792h0.127h0.992v0.021
		h15.149v-0.021h16.142h0.122l-6.486-7.792L1111.767,399.493z M1123.18,436.936l-0.431-6.921h-10.982v-0.021h-10.979l-0.436,6.941
		H1123.18z M999.111,605.764l12.777,15.096l32.096-57.752L999.111,605.764z M950.564,558.168l-5.855,5.619l24.947,29.146
		l5.644-5.412L950.564,558.168z M984.036,604.953l-4.956-5.851l-2.274,2.185l4.972,5.811L984.036,604.953z M997.065,624.961h3.91
		l-9.835-11.617l-2.218,2.104L997.065,624.961z M986.99,591.448l5.018,5.929l50.301-47.819l-63.428,25.216l8.113,9.627
		C988.736,586.472,988.679,589.45,986.99,591.448z M1077.456,628.09l-0.109,1.347c-0.135,1.722,1.159,3.243,2.885,3.382l4.708,0.374
		c1.726,0.139,3.247-1.16,3.381-2.881l0.721-9.033c0.032-0.354-0.008-0.7-0.094-1.029l0.822-13.217h12.927h9.07
		c1.725,0,3.141-1.411,3.141-3.141v-4.72c0-1.726-1.416-3.142-3.141-3.142h-9.07h-0.077h-12.162l1.225-19.702h11.015h9.07
		c1.725,0,3.141-1.412,3.141-3.138v-4.724c0-1.726-1.416-3.138-3.141-3.138h-9.07h-0.077h-10.254l1.005-16.142h9.326h9.07
		c1.725,0,3.141-1.412,3.141-3.137v-4.725c0-1.725-1.416-3.137-3.141-3.137h-9.07h-0.077h-8.565l0.973-15.604h7.67h9.07
		c1.725,0,3.141-1.412,3.141-3.138v-4.724c0-1.726-1.416-3.138-3.141-3.138h-9.07h-0.077h-6.909l0.993-15.987h5.993h9.07
		c1.725,0,3.141-1.412,3.141-3.141v-4.721c0-1.729-1.416-3.141-3.141-3.141h-9.07h-0.077h-5.229l0.822-13.253h3.975
		c0.167,0.028,0.338,0.045,0.509,0.045h9.07c1.725,0,3.141-1.412,3.141-3.138v-4.724c0-1.726-1.416-3.138-3.141-3.138h-9.07h-0.077
		h-3.723l0.772-12.455h24.194l10.693,171.866c-0.089,0.334-0.118,0.692-0.089,1.055l0.72,9.028c0.139,1.718,1.66,3.016,3.382,2.881
		l4.712-0.374c1.725-0.139,3.015-1.66,2.876-3.386l-0.113-1.465l-0.257-4.113h25.61l13.131,15.238h-138.717l6.751-12.479h10.4
		c2.079,0,3.882-1.16,4.81-2.86h0.008l6.019-11.215c1.777-3.259-5.213-5.236-9.754-2.9c-1.33,0.679-2.067,2.042-3.548,4.565
		l-0.79,1.452h-10.034c-2.095-0.146-4.175,0.916-5.229,2.877l-3.706,6.856h-18.58l49.02-88.204c1.469-2.645,0.517-5.985-2.132-7.454
		c-1.583-0.879-3.414-0.896-4.944-0.199l-92.663,36.836l-16.5-19.58c-2.104-2.181-5.578-2.25-7.764-0.15l-9.615,9.225l-6.583-7.69
		l-0.004,0.004c-0.672-0.785-1.571-1.392-2.642-1.7c-2.905-0.839-5.952,0.834-6.791,3.739l-15.942,54.581
		c-0.586,1.693-0.333,3.642,0.843,5.168l5.582,6.934c2.527,3.137,2.751,2.815,6.812,2.815c4.351,0,9.237-0.122,4.635-5.908
		l-6.637-8.345l12.395-42.452l53.414,62.406c-25.997,0-51.994,0-77.991,0c-1.729,0-3.141,1.412-3.141,3.137v4.721
		c0,1.729,1.412,3.141,3.141,3.141c7.414,0,14.824-0.045,22.237-0.045l37.83,48.849c0.98,1.502,2.682,2.494,4.61,2.494h69.152
		v-0.016c1.266,0,2.535-0.432,3.568-1.314c2.304-1.97,2.571-5.433,0.603-7.735l-4.012-4.691h49.58
		c0.131,0.017,0.265,0.024,0.399,0.024h9.069c1.726,0,3.142-1.416,3.142-3.142v-4.72c0-1.729-1.416-3.142-3.142-3.142h-9.069
		c-0.118,0-0.24,0.009-0.354,0.024h-59.005l-15.864-18.534c-2.364-2.763-2.324-3.146-5.929-3.146h-4.468
		c-3.813,0-4.92,2.133-2.987,4.391l26.538,31.002h-54.545l-31.237-40.345h54.37v0.024h39.652l-2.828,5.229
		c-0.554,0.854-0.871,1.88-0.871,2.974c0,3.036,2.466,5.502,5.506,5.502h159.916v-0.021c1.273-0.004,2.555-0.439,3.593-1.335
		c2.291-1.981,2.539-5.444,0.558-7.735l-22.343-25.928c-1.005-1.351-2.608-2.222-4.419-2.222h-7.435v-16.829h28.487
		c3.039,0,5.506-2.466,5.506-5.501v-22.07c0-3.035-2.467-5.502-5.506-5.502h-11.719v-14.652c0-3.035-2.466-5.497-5.506-5.497
		h-19.018h-5.469h-4.781c-1.726,0-3.264,1.416-3.142,3.138l0.346,4.724c0.122,1.722,1.416,3.138,3.142,3.138h3.597h6.308h0.077
		h13.436v14.652c0,3.035,2.466,5.501,5.505,5.501h11.719v11.067h-30.736h-7.983c-1.729,0-3.284,1.421-3.146,3.142l0.395,4.72
		c0.143,1.722,1.416,3.142,3.142,3.142h4.337v16.829h-10.352l-10.237-164.493h1.388h0.081h9.07c1.725,0,3.141-1.412,3.141-3.138
		v-4.724c0-1.726-1.416-3.138-3.141-3.138h-9.07h-2.152l-0.432-6.941h5.994c3.027,0,5.48-2.453,5.48-5.48
		c0-1.348-0.488-2.584-1.298-3.54l-13.957-16.753l-13.993-16.79c-1.933-2.326-5.392-2.644-7.715-0.708
		c-0.321,0.265-0.606,0.558-0.851,0.875l-13.851,16.623l-13.989,16.793c-1.937,2.323-1.615,5.778,0.708,7.711
		c1.025,0.851,2.271,1.266,3.504,1.262v0.028h5.997l-0.431,6.921h-2.153h-9.069c-1.726,0-3.142,1.412-3.142,3.138v4.724
		c0,1.726,1.416,3.138,3.142,3.138h9.069h0.078h1.392l-9.196,147.745l-0.428,6.885l-0.684,11.003l-0.317,5.135L1077.456,628.09z
		 M1189.159,696.408h-119.304c-0.114,0.017-0.228,0.024-0.35,0.024h-9.07c-1.725,0-3.141-1.412-3.141-3.141v-4.721
		c0-1.725,1.416-3.141,3.141-3.141h9.07c0.134,0,0.265,0.008,0.395,0.024h119.214c0.13-0.017,0.265-0.024,0.398-0.024h9.07
		c1.725,0,3.141,1.416,3.141,3.141v4.721c0,1.729-1.416,3.141-3.141,3.141h-9.07
		C1189.395,696.433,1189.272,696.425,1189.159,696.408z"/>
	<path fill-rule="evenodd" clip-rule="evenodd" fill="#394446" d="M909.183,662.57h21.668c3.471,0,4.297,0.09,6.396,3.142
		c1.428,2.071,5.106,7.861-1.27,7.861h-10.942c-0.183,0-0.37-0.017-0.549-0.049h-10.226c-0.175,0.032-0.354,0.049-0.545,0.049
		h-9.066c-1.729,0-3.141-1.416-3.141-3.142v-4.72c0-1.729,1.412-3.142,3.141-3.142H909.183z"/>
	<path fill-rule="evenodd" clip-rule="evenodd" fill="#394446" d="M1048.392,464.093h-38.143c-2.255,0-4.199-1.363-5.05-3.309
		l-12.618-23.03h-36.589h-0.077h-9.069c-1.726,0-3.142-1.412-3.142-3.142v-4.72c0-1.729,1.416-3.142,3.142-3.142h9.069h39.901v0.021
		c1.94,0,3.824,1.038,4.813,2.86l12.857,23.458h34.985h9.066c1.729,0,3.141,1.412,3.141,3.142v4.72c0,1.726-1.412,3.142-3.141,3.142
		h-9.066H1048.392z"/>
	<path fill-rule="evenodd" clip-rule="evenodd" fill="#394446" d="M1005.24,500.425l6.01,6.335c1.188,1.254,3.189,1.307,4.443,0.118
		l3.43-3.247c1.254-1.188,1.307-3.186,0.118-4.439l-9.969-10.551h-0.005c-0.072-0.081-0.15-0.158-0.231-0.235
		c-2.21-2.08-5.685-1.974-7.764,0.235l-5.745,6.079l-5.742-6.079l0,0c-0.077-0.081-0.154-0.158-0.235-0.235
		c-2.21-2.08-5.685-1.974-7.764,0.235l-9.969,10.551c-1.185,1.254-1.136,3.252,0.122,4.443l3.426,3.247
		c1.257,1.188,3.255,1.136,4.443-0.117l6.014-6.336l5.709,6.043c2.075,2.209,5.55,2.311,7.76,0.235
		c0.081-0.073,0.158-0.158,0.236-0.235l0,0L1005.24,500.425z"/>
	<path fill-rule="evenodd" clip-rule="evenodd" fill="#394446" d="M1186.51,488.942l6.01,6.331c1.185,1.253,3.187,1.306,4.439,0.118
		l3.431-3.247c1.253-1.188,1.306-3.183,0.122-4.436l0,0l-0.004-0.004l-9.966-10.547h-0.004c-0.077-0.081-0.15-0.159-0.235-0.24
		c-2.206-2.071-5.681-1.97-7.76,0.24l-5.746,6.079l-5.741-6.079h-0.004c-0.073-0.081-0.15-0.159-0.236-0.24
		c-2.205-2.071-5.68-1.97-7.759,0.24l-9.97,10.551c-1.188,1.253-1.135,3.251,0.118,4.436l3.431,3.251
		c1.253,1.188,3.251,1.135,4.438-0.118l6.011-6.34l5.717,6.051c2.075,2.206,5.55,2.312,7.759,0.236
		c0.082-0.077,0.159-0.159,0.232-0.24l0.004,0.004L1186.51,488.942z"/>
	<path fill-rule="evenodd" clip-rule="evenodd" fill="#394446" d="M904.649,685.431h4.533h4.533h0.081h22.168h0.081h7.215
		c3.112,0,3.149,0.684,4.992,3.141c3.476,4.623,3.476,7.861-2.925,7.861h-9.282h-22.33h-4.533h-4.533
		c-1.729,0-3.141-1.412-3.141-3.141v-4.721C901.509,686.847,902.921,685.431,904.649,685.431"/>
</g>
</svg>
