<?xml version="1.0" encoding="utf-8"?>
<!-- Generator: Adobe Illustrator 15.0.0, SVG Export Plug-In  -->
<!DOCTYPE svg PUBLIC "-//W3C//DTD SVG 1.1//EN" "http://www.w3.org/Graphics/SVG/1.1/DTD/svg11.dtd" [
	<!ENTITY ns_flows "http://ns.adobe.com/Flows/1.0/">
]>
<svg version="1.1"
	 xmlns="http://www.w3.org/2000/svg" xmlns:xlink="http://www.w3.org/1999/xlink" xmlns:a="http://ns.adobe.com/AdobeSVGViewerExtensions/3.0/"
	 x="0px" y="0px" width="160px" height="160px" viewBox="11 10.343 160 160"
	 overflow="visible" enable-background="new 11 10.343 160 160" xml:space="preserve">
<defs>
</defs>
<rect display="none" fill="#EB1D24" width="184.868" height="178.947"/>
<circle fill="none" stroke="#EB1D24" stroke-width="3" stroke-miterlimit="10" cx="91" cy="90.342" r="78"/>
<g>
	<defs>
		<rect id="SVGID_1_" x="39.376" y="37.793" width="103.247" height="98.342"/>
	</defs>
	<clipPath id="SVGID_2_">
		<use xlink:href="#SVGID_1_"  overflow="visible"/>
	</clipPath>
	<polygon clip-path="url(#SVGID_2_)" fill="none" stroke="#EB1D24" stroke-width="3" points="102.412,76.343 90.998,41.28 
		79.517,76.343 42.698,76.343 72.495,98.046 61.014,133.296 90.998,111.532 120.915,133.296 109.437,98.046 139.295,76.343 	"/>
</g>
<g display="none">
	<path fill="none" stroke="#EB1D24" stroke-width="3" d="M91,140.062c27.971,0,50.643-22.675,50.643-50.646
		c0-27.969-22.672-50.645-50.643-50.645c-27.973,0-50.645,22.676-50.645,50.645C40.354,117.387,63.027,140.062,91,140.062z"/>
	<ellipse fill="none" stroke="#EB1D24" stroke-width="3" cx="91" cy="89.416" rx="27.988" ry="50.645"/>
	<line fill="none" stroke="#EB1D24" stroke-width="3" x1="91" y1="38.56" x2="91" y2="141.039"/>
	<line fill="none" stroke="#EB1D24" stroke-width="3" x1="141.727" y1="90.394" x2="40.02" y2="90.394"/>
</g>
<line display="none" fill="none" stroke="#EB1D24" stroke-width="1.9559" x1="133.903" y1="62.568" x2="47.844" y2="62.568"/>
<line display="none" fill="none" stroke="#EB1D24" stroke-width="1.9559" x1="133.903" y1="115.794" x2="47.844" y2="115.794"/>
<line display="none" fill="none" stroke="#EB1D24" stroke-width="3" stroke-linecap="round" x1="46.906" y1="52.644" x2="46.906" y2="117.843"/>
<line display="none" fill="none" stroke="#EB1D24" stroke-width="3" stroke-linecap="round" x1="47" y1="117.843" x2="144.705" y2="117.843"/>
<line display="none" fill="none" stroke="#EB1D24" stroke-width="3" stroke-linecap="round" x1="64.035" y1="80.271" x2="64.035" y2="107.898"/>
<line display="none" fill="none" stroke="#EB1D24" stroke-width="3" stroke-linecap="round" x1="78.4" y1="73.64" x2="78.4" y2="107.898"/>
<line display="none" fill="none" stroke="#EB1D24" stroke-width="3" stroke-linecap="round" x1="92.768" y1="73.64" x2="92.768" y2="107.898"/>
<line display="none" fill="none" stroke="#EB1D24" stroke-width="3" stroke-linecap="round" x1="107.132" y1="61.484" x2="107.132" y2="107.898"/>
<line display="none" fill="none" stroke="#EB1D24" stroke-width="3" stroke-linecap="round" x1="121.5" y1="53.749" x2="121.5" y2="107.898"/>
<path display="none" fill="none" stroke="#EB1D24" stroke-width="3" d="M62.658,42.002c0,0-4.122,0-4.122,4.122v81.814
	c0,0,0,4.121,4.122,4.121h56.72c0,0,4.118,0,4.118-4.121V46.124c0,0,0-4.122-4.118-4.122H62.658z"/>
<path display="none" fill="none" stroke="#EB1D24" stroke-width="3" d="M70.797,51.095c0,0-3.851,0-3.851,3.851v51.995
	c0,0,0,3.852,3.851,3.852h40.44c0,0,3.851,0,3.851-3.852V54.946c0,0,0-3.851-3.851-3.851H70.797z"/>
<path display="none" fill="none" stroke="#EB1D24" stroke-width="3" d="M88.129,121.296c0-1.597,1.293-2.889,2.888-2.889
	s2.889,1.292,2.889,2.889c0,1.596-1.294,2.888-2.889,2.888S88.129,122.892,88.129,121.296z"/>
<circle display="none" fill="none" stroke="#EB1D24" stroke-width="3" cx="90.56" cy="82.059" r="8.089"/>
<path display="none" fill="none" stroke="#EB1D24" stroke-width="3" d="M103.909,103.525c-0.038-7.34-5.999-13.281-13.349-13.281
	c-7.35,0-13.312,5.941-13.349,13.281H103.909z"/>
<path display="none" fill="none" stroke="#EB1D24" stroke-width="3" d="M52.107,47.208c0,0-4.512,0-4.512,4.513v60.456
	c0,0,0,4.513,4.512,4.513h78.568c0,0,4.514,0,4.514-4.513V51.721c0,0,0-4.513-4.514-4.513H52.107z"/>
<path display="none" fill="none" stroke="#EB1D24" stroke-width="3" d="M78.656,125.842c0,0-2.162,0-2.162,2.162v3.312
	c0,0,0,2.162,2.162,2.162h23.56c0,0,2.163,0,2.163-2.162v-3.312c0,0,0-2.162-2.163-2.162H78.656z"/>
<path display="none" fill="none" stroke="#EB1D24" stroke-width="3" d="M62.753,57.204c0,0-4.34,0-4.34,4.339v35.798
	c0,0,0,4.338,4.34,4.338h56.407c0,0,4.34,0,4.34-4.338V61.543c0,0,0-4.339-4.34-4.339H62.753z"/>
<rect x="96.742" y="66.206" display="none" fill="none" stroke="#EB1D24" stroke-width="3" width="16.224" height="9.402"/>
<line display="none" fill="none" stroke="#EB1D24" stroke-width="3" x1="69.262" y1="66.967" x2="91.824" y2="66.967"/>
<line display="none" fill="none" stroke="#EB1D24" stroke-width="3" x1="69.262" y1="74.826" x2="91.824" y2="74.826"/>
<line display="none" fill="none" stroke="#EB1D24" stroke-width="3" x1="69.262" y1="82.684" x2="114.966" y2="82.684"/>
<line display="none" fill="none" stroke="#EB1D24" stroke-width="3" x1="69.262" y1="90.542" x2="114.966" y2="90.542"/>
<path display="none" fill="#FFFFFF" stroke="#EB1D24" stroke-width="3" stroke-miterlimit="10" d="M131.72,102.149V55.482
	c0,0,0-5.491-5.49-5.491H55.77c0,0-5.489,0-5.489,5.491v46.667c0,0,0,5.49,5.489,5.49h4.882l-4.16,6.654
	c0,0-3.928,6.285,2.699,2.973l19.251-9.627h47.788C126.229,107.64,131.72,107.64,131.72,102.149"/>
<path display="none" fill="#FFFFFF" stroke="#EB1D24" stroke-width="3" d="M131.72,102.149V55.482c0,0,0-5.491-5.49-5.491H55.77
	c0,0-5.489,0-5.489,5.491v46.667c0,0,0,5.49,5.489,5.49h4.882l-4.16,6.654c0,0-3.928,6.285,2.699,2.973l19.251-9.627h47.788
	C126.229,107.64,131.72,107.64,131.72,102.149z"/>
<path display="none" fill="#FFFFFF" stroke="#EB1D24" stroke-width="3" stroke-miterlimit="10" d="M75.079,124.386V96.384
	c0,0,0-3.293,3.293-3.293h42.276c0,0,3.295,0,3.295,3.293v28.002c0,0,0,3.291-3.295,3.291h-2.928l2.496,3.994
	c0,0,2.355,3.773-1.622,1.783l-11.549-5.777H78.373C78.373,127.677,75.079,127.677,75.079,124.386"/>
<path display="none" fill="#FFFFFF" stroke="#EB1D24" stroke-width="3" d="M75.079,124.386V96.384c0,0,0-3.293,3.293-3.293h42.276
	c0,0,3.295,0,3.295,3.293v28.002c0,0,0,3.291-3.295,3.291h-2.928l2.496,3.994c0,0,2.355,3.773-1.622,1.783l-11.549-5.777H78.373
	C78.373,127.677,75.079,127.677,75.079,124.386z"/>
<circle display="none" fill="none" stroke="#BCBEC0" stroke-width="3" stroke-miterlimit="10" cx="91" cy="90.342" r="78"/>
<path display="none" fill="none" stroke="#BCBEC0" stroke-width="3" d="M62.658,42.002c0,0-4.122,0-4.122,4.122v81.814
	c0,0,0,4.121,4.122,4.121h56.72c0,0,4.118,0,4.118-4.121V46.124c0,0,0-4.122-4.118-4.122H62.658z"/>
<path display="none" fill="none" stroke="#BCBEC0" stroke-width="3" d="M70.797,51.095c0,0-3.851,0-3.851,3.851v51.995
	c0,0,0,3.852,3.851,3.852h40.44c0,0,3.851,0,3.851-3.852V54.946c0,0,0-3.851-3.851-3.851H70.797z"/>
<path display="none" fill="none" stroke="#BCBEC0" stroke-width="3" d="M88.129,121.296c0-1.597,1.293-2.889,2.888-2.889
	s2.889,1.292,2.889,2.889c0,1.596-1.294,2.888-2.889,2.888S88.129,122.892,88.129,121.296z"/>
<circle display="none" fill="none" stroke="#BCBEC0" stroke-width="3" cx="90.56" cy="82.059" r="8.089"/>
<path display="none" fill="none" stroke="#BCBEC0" stroke-width="3" d="M103.909,103.525c-0.038-7.34-5.999-13.281-13.349-13.281
	c-7.35,0-13.312,5.941-13.349,13.281H103.909z"/>
<path display="none" fill="none" stroke="#BCBEC0" stroke-width="3" d="M52.107,47.208c0,0-4.512,0-4.512,4.513v60.456
	c0,0,0,4.513,4.512,4.513h78.568c0,0,4.514,0,4.514-4.513V51.721c0,0,0-4.513-4.514-4.513H52.107z"/>
<path display="none" fill="none" stroke="#BCBEC0" stroke-width="3" d="M78.656,125.842c0,0-2.162,0-2.162,2.162v3.312
	c0,0,0,2.162,2.162,2.162h23.56c0,0,2.163,0,2.163-2.162v-3.312c0,0,0-2.162-2.163-2.162H78.656z"/>
<path display="none" fill="none" stroke="#BCBEC0" stroke-width="3" d="M62.753,57.204c0,0-4.34,0-4.34,4.339v35.798
	c0,0,0,4.338,4.34,4.338h56.407c0,0,4.34,0,4.34-4.338V61.543c0,0,0-4.339-4.34-4.339H62.753z"/>
<rect x="96.742" y="66.206" display="none" fill="none" stroke="#BCBEC0" stroke-width="3" width="16.224" height="9.402"/>
<line display="none" fill="none" stroke="#BCBEC0" stroke-width="3" x1="69.262" y1="66.967" x2="91.824" y2="66.967"/>
<line display="none" fill="none" stroke="#BCBEC0" stroke-width="3" x1="69.262" y1="74.826" x2="91.824" y2="74.826"/>
<line display="none" fill="none" stroke="#BCBEC0" stroke-width="3" x1="69.262" y1="82.684" x2="114.966" y2="82.684"/>
<line display="none" fill="none" stroke="#BCBEC0" stroke-width="3" x1="69.262" y1="90.542" x2="114.966" y2="90.542"/>
<path display="none" fill="#FFFFFF" stroke="#BCBEC0" stroke-width="3" stroke-miterlimit="10" d="M131.72,102.149V55.482
	c0,0,0-5.491-5.49-5.491H55.77c0,0-5.489,0-5.489,5.491v46.667c0,0,0,5.49,5.489,5.49h4.882l-4.16,6.654
	c0,0-3.928,6.285,2.699,2.973l19.251-9.627h47.788C126.229,107.64,131.72,107.64,131.72,102.149"/>
<path display="none" fill="#FFFFFF" stroke="#BCBEC0" stroke-width="3" d="M131.72,102.149V55.482c0,0,0-5.491-5.49-5.491H55.77
	c0,0-5.489,0-5.489,5.491v46.667c0,0,0,5.49,5.489,5.49h4.882l-4.16,6.654c0,0-3.928,6.285,2.699,2.973l19.251-9.627h47.788
	C126.229,107.64,131.72,107.64,131.72,102.149z"/>
<path display="none" fill="#FFFFFF" stroke="#BCBEC0" stroke-width="3" stroke-miterlimit="10" d="M75.079,124.386V96.384
	c0,0,0-3.293,3.293-3.293h42.276c0,0,3.295,0,3.295,3.293v28.002c0,0,0,3.291-3.295,3.291h-2.928l2.496,3.994
	c0,0,2.355,3.773-1.622,1.783l-11.549-5.777H78.373C78.373,127.677,75.079,127.677,75.079,124.386"/>
<path display="none" fill="#FFFFFF" stroke="#BCBEC0" stroke-width="3" d="M75.079,124.386V96.384c0,0,0-3.293,3.293-3.293h42.276
	c0,0,3.295,0,3.295,3.293v28.002c0,0,0,3.291-3.295,3.291h-2.928l2.496,3.994c0,0,2.355,3.773-1.622,1.783l-11.549-5.777H78.373
	C78.373,127.677,75.079,127.677,75.079,124.386z"/>
<line display="none" fill="none" stroke="#BCBEC0" stroke-width="3" stroke-linecap="round" x1="46.906" y1="52.644" x2="46.906" y2="117.843"/>
<line display="none" fill="none" stroke="#BCBEC0" stroke-width="3" stroke-linecap="round" x1="47" y1="117.843" x2="144.705" y2="117.843"/>
<line display="none" fill="none" stroke="#BCBEC0" stroke-width="3" stroke-linecap="round" x1="64.035" y1="80.271" x2="64.035" y2="107.898"/>
<line display="none" fill="none" stroke="#BCBEC0" stroke-width="3" stroke-linecap="round" x1="78.4" y1="73.64" x2="78.4" y2="107.898"/>
<line display="none" fill="none" stroke="#BCBEC0" stroke-width="3" stroke-linecap="round" x1="92.768" y1="73.64" x2="92.768" y2="107.898"/>
<line display="none" fill="none" stroke="#BCBEC0" stroke-width="3" stroke-linecap="round" x1="107.132" y1="61.484" x2="107.132" y2="107.898"/>
<line display="none" fill="none" stroke="#BCBEC0" stroke-width="3" stroke-linecap="round" x1="121.5" y1="53.749" x2="121.5" y2="107.898"/>
</svg>
