<svg xmlns="http://www.w3.org/2000/svg" viewBox="0 0 471.8 442.4"><circle fill="#FBBA00" cx="234.9" cy="40" r="40"/><circle fill="#00609C" cx="234.4" cy="402.4" r="40"/><circle fill="#AAC811" cx="118.4" cy="99.7" r="40"/><circle fill="#00A09E" cx="357.6" cy="100.7" r="53.8"/><circle fill="#96D4F6" cx="418" cy="223.5" r="53.8"/><circle fill="#00A9E8" cx="115.1" cy="346.1" r="54"/><circle fill="#E8412C" cx="358.3" cy="341" r="40"/><circle fill="#F09112" cx="52.2" cy="222.5" r="52.2"/><linearGradient id="a" gradientUnits="userSpaceOnUse" x1="236.787" y1="301.954" x2="236.787" y2="-53.043"><stop offset="0" stop-color="#1AA439"/><stop offset="1" stop-color="#A8C717"/></linearGradient><path fill="url(#a)" d="M317.9 222.5c0-44.8-36.3-81.1-81.1-81.1s-81.1 36.3-81.1 81.1 36.3 81.1 81.1 81.1 81.1-36.3 81.1-81.1z"/><linearGradient id="b" gradientUnits="userSpaceOnUse" x1="-639.251" y1="289.591" x2="-495.807" y2="289.591" gradientTransform="rotate(-19 -369.57 -2192.183)"><stop offset="0" stop-color="#008048"/><stop offset=".531" stop-color="#008048" stop-opacity="0"/></linearGradient><circle fill="url(#b)" cx="236.8" cy="222.5" r="71.7"/><g fill="#FFF"><path d="M270.8 225.4c.6-1.8-4.2-3.7-5.9-3.7-1.5 0-2.1 1.3-2.2 1.7-1.9-4.2-5.8-12.1-7.6-12.3 0 0-5-1.8-18.6-1.8-13.6 0-15.5 1.8-15.5 1.8-1.8.2-5.6 8.1-7.6 12.3-.1-.5-.6-1.7-2.2-1.7-1.7 0-6.5 1.9-5.9 3.7.6 1.8 4.3 3 5.5 3.3 0 0-.2 3.6-2.3 5-2 1.5-2.8 3.2-2.8 5.3v22.3c0 1 .8 1.7 1.7 1.7h7.4c1 0 1.7-.8 1.7-1.7V258h43v3.3c0 1 .8 1.7 1.7 1.7h7.4c1 0 1.7-.8 1.7-1.7V258v-5.9V239c0-2.1-.8-3.9-2.8-5.3-2-1.5-2.3-5-2.3-5 1.3-.4 5-1.6 5.6-3.3zm-56.6 19.4c-2.1 0-3.9-1.7-3.9-3.9 0-2.1 1.7-3.9 3.9-3.9 2.1 0 3.9 1.7 3.9 3.9 0 2.1-1.7 3.9-3.9 3.9zm22.4-18.2H219l5.2-11.3c1.5-1 9.3-1.2 12.4-1.2 3.1 0 14.1.2 15.5 1.2l5.2 11.3h-20.7zm29.3 14.3c0 2.1-1.7 3.9-3.9 3.9-2.1 0-3.9-1.7-3.9-3.9 0-2.1 1.7-3.9 3.9-3.9 2.1 0 3.9 1.8 3.9 3.9zM245.8 202.4c-.6 0-1.3-.2-1.7-.7-3.3-3.3-8.6-3.3-11.8 0-1 1-2.5 1-3.5 0s-1-2.5 0-3.5c5.2-5.2 13.6-5.2 18.8 0 1 1 1 2.5 0 3.5-.6.4-1.2.7-1.8.7z"/><path d="M254.1 194c-.6 0-1.3-.2-1.7-.7-7.9-7.9-20.6-7.9-28.5 0-1 1-2.5 1-3.5 0s-1-2.5 0-3.5c9.8-9.8 25.7-9.8 35.5 0 1 1 1 2.5 0 3.5-.5.5-1.2.7-1.8.7z"/><path d="M261.4 186.7c-.6 0-1.3-.2-1.7-.7-11.9-11.9-31.2-11.9-43.1 0-1 1-2.5 1-3.5 0s-1-2.5 0-3.5c13.8-13.8 36.3-13.8 50.1 0 1 1 1 2.5 0 3.5-.5.5-1.2.7-1.8.7z"/></g><path fill="none" stroke="#E2E2E2" stroke-width="2.876" stroke-miterlimit="10" d="M152.3 132.8l23.6 23.6M301.5 282.1l23.6 23.6M236.8 90.1v43.3M236.8 313.2v40.3M313.1 144.8l-16.6 16.6M172.8 285.1l-16.6 16.6M355.9 223.5h-33.3M145.8 222.5h-33.4"/><path fill="#FFF" d="M358.3 90.7h-6v9h6c2.9 0 4.6-1.3 4.6-4.5s-1.7-4.5-4.6-4.5zm-24-13.4V124H381V77.3h-46.7zm25 27.7h-7v11h-6.4V85.4h13.8c6.5 0 9.6 3.7 9.6 9.8 0 5.7-3.8 9.8-10 9.8zM257.8 396l-2.1-2.1h2.2v-3.6h-3l-1.1-6c-.2-.9-1-1.6-1.9-1.6h-21.4c-.9 0-1.7.7-1.9 1.6l-.8 4.3h4l.4-2h18.2l1.2 6.1H243l.7 3.5h3.5v7.5c.3.6.5 1.4.5 2.1v3.4h1.4v3.7c0 .4.3.8.8.8h4.3c.4 0 .8-.3.8-.8v-3.7h1.7c1.1 0 2-.9 2-2v-9.7c-.3-.6-.5-1.1-.9-1.5zm-6 8.2c-1.7 0-3.1-1.4-3.1-3.1 0-1.7 1.4-3.1 3.1-3.1 1.7 0 3.1 1.4 3.1 3.1-.1 1.7-1.4 3.1-3.1 3.1zm-9.6-1.9h2.2v-3.6h-3l-1.1-6c-.2-.9-1-1.6-1.9-1.6H217c-.9 0-1.7.7-1.9 1.6l-1.1 6h-3v3.6h2.2l-2.1 2.1c-.4.4-.6.9-.6 1.4v9.7c0 1.1.9 2 2 2h1.7v3.7c0 .4.3.8.8.8h4.3c.4 0 .8-.3.8-.8v-3.7h15.5v3.7c0 .4.3.8.8.8h4.3c.4 0 .8-.3.8-.8v-3.7h1.7c1.1 0 2-.9 2-2v-9.7c0-.5-.2-1.1-.6-1.4l-2.4-2.1zm-23.6-7.3h18.2l1.2 6.1h-20.5l1.1-6.1zm-1.6 17.6c-1.7 0-3.1-1.4-3.1-3.1 0-1.7 1.4-3.1 3.1-3.1 1.7 0 3.1 1.4 3.1 3.1-.1 1.7-1.4 3.1-3.1 3.1zm21.3 0c-1.7 0-3.1-1.4-3.1-3.1 0-1.7 1.4-3.1 3.1-3.1 1.7 0 3.1 1.4 3.1 3.1 0 1.7-1.4 3.1-3.1 3.1zM233.8 38.5h2.3l.1-7.2h-2.7l.3 7.2zm-18.3-17.7v30h4.6l-1.3 7.9c-.1.4.1.5.5.3l12.4-8.3H256v-30h-40.5zm7.9 23.7L235 25.8l11.6 18.7h-23.2zm11.6-4.2c-.7 0-1.3.5-1.3 1.3s.6 1.3 1.3 1.3c.8 0 1.3-.5 1.3-1.3s-.6-1.3-1.3-1.3zM137.6 99.1l-2.2-2.2h2.3v-3.7h-3.1l-1.2-6.2c-.2-.9-1-1.6-2-1.6H122c.3 1.1.4 2.2.4 3.3v.7h7.4l1.2 6.4h-10.6c-.3.4-.6.9-.9 1.3l-.1.1-7.7 9.5c-.6.7-1.4 1.1-2.3 1.1-.9 0-1.7-.4-2.3-1.1l-4.6-5.6v9.6c0 1.1.9 2.1 2.1 2.1h1.7v3.9c0 .4.4.8.8.8h4.5c.4 0 .8-.4.8-.8v-3.9h15.9v3.9c0 .4.4.8.8.8h4.5c.4 0 .8-.4.8-.8v-3.9h1.7c1.1 0 2.1-.9 2.1-2.1v-10c0-.7-.3-1.2-.6-1.6zm-6.3 8.4c-1.7 0-3.2-1.4-3.2-3.2 0-1.7 1.4-3.2 3.2-3.2 1.7 0 3.2 1.4 3.2 3.2 0 1.8-1.4 3.2-3.2 3.2zm-22-2.2c.1 0 .3-.1.4-.2l7.7-9.5c1.6-1.9 2.5-4.3 2.5-6.8 0-5.8-4.8-10.6-10.6-10.6S98.7 83 98.7 88.8c0 2.5.9 4.9 2.5 6.8l7.7 9.5c.1.1.3.2.4.2zm-5.2-16.7c0-2.9 2.3-5.2 5.2-5.2s5.2 2.3 5.2 5.2c0 2.9-2.3 5.2-5.2 5.2s-5.2-2.3-5.2-5.2z"/><g><path fill-rule="evenodd" clip-rule="evenodd" fill="#FFF" d="M122.1 315.8c3.3 0 6 2.7 6 6v22.7h1.5c2.5 0 4.5 2 4.5 4.5v7.6c0 .8.7 1.5 1.5 1.5s1.5-.7 1.5-1.5v-15.1c-3.3 0-6-2.7-6-6 0-1.7.7-3.2 1.8-4.3l-1.8-1.8v-4.3l7.3 7.3c1.2 1.2 1.8 2.6 1.8 4.3v19.9c0 2.5-2.1 4.5-4.5 4.5-2.5 0-4.5-2-4.5-4.5V349c0-.8-.7-1.5-1.5-1.5h-1.5v23.7h2.5c1.4 0 2.5 1.1 2.5 2.5s-1.1 2.5-2.5 2.5H92.4c-1.4 0-2.5-1.1-2.5-2.5s1.1-2.5 2.5-2.5h2.5v-49.4c0-3.3 2.7-6 6-6h21.2zm15.1 20.9c0-.8-.3-1.6-.9-2.1l-1.3-1.3c-.5.5-.9 1.3-.9 2.1 0 1.7 1.4 3 3 3v-1.7zm-15.1-15.8c.6 0 1 .5 1 1V333c0 .6-.5 1-1 1H101c-.6 0-1-.5-1-1v-11.1c0-.6.5-1 1-1h21.1z"/></g><g><path fill-rule="evenodd" clip-rule="evenodd" fill="#FFF" d="M395.7 253.3c-1.5 0-2.7-1.2-2.7-2.7 0-1.5 1.2-2.6 2.7-2.6h2.6l12.9-53.1c.7-3 3.5-5.2 6.7-5.2s5.9 2.2 6.7 5.2l12.9 53.1h2.7c1.5 0 2.7 1.2 2.7 2.6 0 1.5-1.2 2.7-2.7 2.7h-44.5zm31.5-25.4h-18.5l-3.1 12.7h24.7l-3.1-12.7zm-6.1-25.5H415l-3.1 12.7h12.3l-3.1-12.7z"/></g><g><path fill-rule="evenodd" clip-rule="evenodd" fill="#FFF" d="M59.4 244.1c0 4-3.2 7.2-7.2 7.2s-7.2-3.2-7.2-7.2 3.2-7.2 7.2-7.2c4-.1 7.2 3.2 7.2 7.2zm-7.2-27.8c-4 0-7.2 3.2-7.2 7.2s3.2 7.2 7.2 7.2 7.2-3.2 7.2-7.2-3.2-7.2-7.2-7.2zm0-20.6c-4 0-7.2 3.2-7.2 7.2s3.2 7.2 7.2 7.2 7.2-3.2 7.2-7.2c0-3.9-3.2-7.2-7.2-7.2zm16.1 14.5v-14.4h7.8c.9 0 1.7.7 1.7 1.7 0 .5-.2.9-.5 1.2l-5.1 5.1v4.9c0 .9-.7 1.7-1.7 1.7h-2.2zm0 20.5v-14.4h7.8c.9 0 1.7.7 1.7 1.7 0 .5-.2.9-.5 1.2l-5.1 5.1v4.9c0 .9-.7 1.7-1.7 1.7h-2.2zm0 20.6v-14.4h7.8c.9 0 1.7.7 1.7 1.7 0 .5-.2.9-.5 1.2l-5.1 5.1v4.9c0 .9-.7 1.7-1.7 1.7h-2.2zm-32.2-41.1v-14.4h-7.8c-.9 0-1.7.7-1.7 1.7 0 .5.2.9.5 1.2l5.1 5.1v4.9c0 .9.7 1.7 1.7 1.7h2.2zm0 20.5v-14.4h-7.8c-.9 0-1.7.7-1.7 1.7 0 .5.2.9.5 1.2l5.1 5.1v4.9c0 .9.7 1.7 1.7 1.7h2.2zm0 20.6v-14.4h-7.8c-.9 0-1.7.7-1.7 1.7 0 .5.2.9.5 1.2l5.1 5.1v4.9c0 .9.7 1.7 1.7 1.7h2.2zm8.9-61.1c-3.1 0-5.6 2.5-5.6 5.6v55.5c0 3.1 2.5 5.6 5.6 5.6h14.4c3.1 0 5.6-2.5 5.6-5.6v-55.5c0-3.1-2.5-5.6-5.6-5.6H45z"/></g><g><path fill-rule="evenodd" clip-rule="evenodd" fill="#FFF" d="M343.2 334.3c0 1.2-1 2.2-2.2 2.2-1.2 0-2.2-1-2.2-2.2 0-1.2 1-2.2 2.2-2.2 1.2 0 2.2 1 2.2 2.2zm36.4 1.3h-4.3V333h4.3v2.6zm-13 0V333h4.3v2.6h-4.3zm-20.4-7.8c.7 0 1.3.6 1.3 1.3v23.8h1.3c.7 0 1.3.6 1.3 1.3 0 .7-.6 1.3-1.3 1.3h-15.6c-.7 0-1.3-.6-1.3-1.3 0-.7.6-1.3 1.3-1.3h1.3v-23.8c0-.7.6-1.3 1.3-1.3h10.4zm11.7 7.8V333h4.3v2.6h-4.3zm-7.8 0v2.6H380c2.2 0 3.9-1.7 3.9-3.9s-1.7-3.9-3.9-3.9h-29.9v2.6h3.5v2.6h-3.5z"/></g></svg>