<?xml version="1.0" encoding="UTF-8"?>
<!DOCTYPE svg PUBLIC "-//W3C//DTD SVG 1.1//EN" "http://www.w3.org/Graphics/SVG/1.1/DTD/svg11.dtd">
<!-- Creator: CorelDRAW X7 -->
<svg xmlns="http://www.w3.org/2000/svg" xml:space="preserve" width="5439px" height="5000px" version="1.1" style="shape-rendering:geometricPrecision; text-rendering:geometricPrecision; image-rendering:optimizeQuality; fill-rule:evenodd; clip-rule:evenodd"
viewBox="0 0 5439 5000"
 xmlns:xlink="http://www.w3.org/1999/xlink"
 enable-background="new 0 0 1000 600">
 <defs>
  <style type="text/css">
   <![CDATA[
    .fil7 {fill:#35393D}
    .fil5 {fill:#606060}
    .fil3 {fill:#6DAA1B}
    .fil6 {fill:#7E7E7E}
    .fil4 {fill:#8ABB48}
    .fil2 {fill:#A2C96D}
    .fil0 {fill:#B2BAC4}
    .fil1 {fill:#B2BAC4}
    .fil8 {fill:white}
   ]]>
  </style>
 </defs>
 <g id="Camada_x0020_1">
  <metadata id="CorelCorpID_0Corel-Layer"/>
  <g id="_280276023200">
   <path class="fil0" d="M4710 3838l59 -28c3,9 7,34 8,44 -8,0 -26,-5 -35,-7l-31 -8c-1,-1 -1,-1 -1,-1zm158 -117c2,-7 13,-15 19,-18 22,-11 75,-2 78,24 -19,10 -24,19 -48,10 -25,-11 -29,-10 -49,-16zm150 -12c-4,-5 -15,-21 -14,-26l26 0c-7,-24 -43,-44 -66,-54 -7,-3 -22,-10 -29,-7 -3,7 4,11 9,15 13,11 34,36 18,50 -12,-4 -19,-8 -32,-10 -38,-8 -68,4 -87,38 -5,1 -25,-2 -32,-2 -11,-1 -22,-1 -33,-1 -9,-10 -10,-23 -26,-28 -17,-5 -82,-7 -101,-5 -7,0 -16,0 -21,6 -4,5 -2,14 4,17 4,2 15,4 21,6 6,3 13,5 19,8 11,4 25,11 35,18 18,12 43,32 51,54 -4,3 -25,12 -31,15 -10,5 -60,26 -63,32 -3,5 -1,13 4,16 2,1 13,5 17,6 49,15 97,29 149,38 14,2 76,12 84,5 7,-6 3,-34 4,-44 1,-9 8,-25 13,-33 13,-23 40,-63 63,-78 20,-13 54,11 43,-23 -10,-3 -18,-4 -25,-13z"/>
   <path class="fil0" d="M4973 3803c3,-1 9,-6 14,-8 46,-19 89,35 61,74 -23,32 -70,29 -87,-8 -7,-15 -4,-22 -2,-37 -3,3 -9,15 -11,20 -5,10 -5,14 -5,26 0,8 -3,20 4,26 7,6 9,9 17,14 63,40 145,-24 118,-97 -10,-28 -40,-53 -71,-52 -7,4 -37,35 -38,42z"/>
   <path class="fil0" d="M4738 3893c-3,-2 -32,-11 -34,-10 -2,0 -11,5 -15,6 -29,8 -61,-12 -63,-44 -1,-24 14,-46 37,-52 17,-5 33,4 37,2 3,0 27,-12 29,-14 -8,-10 -27,-18 -41,-20 -51,-8 -97,35 -92,87 5,58 70,96 126,59 5,-3 13,-10 16,-14z"/>
  </g>
  <path class="fil0" d="M4047 4438c5,5 8,16 8,23l-46 1 38 -24zm36 -22l8 39 -5 7 -8 -1c-2,-17 -5,-21 -11,-36l16 -9zm-28 64c0,14 -12,34 -21,43 -39,39 -106,23 -123,-28 -19,-55 29,-109 85,-97 12,2 36,13 41,24 -3,3 -27,17 -32,20 -7,4 -28,17 -34,21 -5,5 -4,15 4,16 8,2 65,-1 80,1zm210 -83c100,-11 119,118 37,144 -38,13 -77,-7 -92,-43 -15,-36 3,-79 37,-94 4,4 12,31 14,38 7,19 9,36 21,33 12,-4 3,-21 -3,-37 -4,-12 -11,-30 -14,-41zm-169 -11c-3,-3 -6,-19 -6,-23l44 0 -38 23zm4 20c4,-4 110,-69 115,-70l-93 114 -13 -2 -9 -42zm-77 -110c-2,8 4,14 11,19 12,9 14,5 27,6l18 76c-5,3 -18,12 -22,13 -16,-15 -26,-28 -53,-34 -76,-17 -139,55 -114,127 30,89 159,85 185,-6 1,-3 1,-5 2,-8 1,-4 0,-7 3,-9 3,7 0,13 12,23 7,6 18,8 28,5 19,-6 26,-28 16,-45 2,-4 61,-76 69,-86 4,-5 8,-10 12,-14 1,-2 3,-5 5,-7l7 -7 11 33c-23,13 -36,21 -48,45 -12,24 -13,53 -4,78 18,47 70,74 120,59 78,-25 92,-127 28,-172 -38,-26 -66,-16 -75,-18l-4 2 -29 -87c3,-2 6,-4 9,-7 4,-3 6,-2 10,-5 6,-4 12,-8 19,-12 6,-4 14,-9 10,-18 -7,-16 -25,0 -39,10 -6,3 -5,2 -8,7 -2,4 -5,6 -8,8 -25,16 -8,18 -5,40 -6,5 -44,29 -51,32 -3,1 -74,1 -80,0l-5 -26c8,-3 20,-5 25,-14 4,-18 -70,-12 -82,-8z"/>
  <g id="_280276019808">
   <path class="fil1" d="M1594 4581c-8,3 -8,12 -8,22l0 153c0,29 10,24 37,23 12,0 239,1 244,0 7,-2 8,-12 8,-22l0 -92c0,-96 6,-85 -38,-85 -24,0 -239,-1 -243,1z"/>
   <path class="fil1" d="M2043 4771c9,-1 10,2 10,11 0,5 1,13 -4,15 -8,2 -10,-4 -10,-11 0,-9 -1,-9 4,-15zm-117 -82c3,-2 34,-1 40,-1 29,0 23,-4 46,35 6,10 16,21 8,25 -4,1 -71,1 -81,0 -22,0 -17,3 -17,-42 0,-7 -2,-15 4,-17zm-34 108l-197 0c8,7 20,12 24,32 0,0 1,2 1,3 1,2 0,2 2,3l203 0c4,-37 48,-59 81,-31 3,3 8,9 10,13 3,6 4,12 6,18 8,0 46,0 50,-2 7,-4 5,-12 6,-21 0,-11 -2,-12 -12,-15 -2,-21 3,-27 -8,-45l-41 -66c-12,-18 -11,-16 -37,-16l-80 0c-9,1 -7,11 -8,19 0,36 0,73 0,108z"/>
   <path class="fil1" d="M1969 4826c8,-4 16,2 19,9 3,9 -3,18 -10,20 -19,6 -30,-22 -9,-29zm-34 18c2,20 20,36 42,35 20,-2 37,-20 34,-43 -1,-20 -19,-36 -42,-34 -20,2 -36,20 -34,42z"/>
   <path class="fil1" d="M1657 4844c-5,-21 26,-27 30,-7 5,20 -26,26 -30,7zm53 2c4,-23 -13,-41 -32,-44 -23,-4 -41,13 -44,32 -4,23 13,41 32,44 23,4 41,-13 44,-32z"/>
   <path class="fil1" d="M1623 4835c0,0 0,-1 0,-1 0,0 1,-1 1,-1 1,-5 -1,3 0,-1 4,-13 4,-17 16,-28 3,-3 5,-4 9,-7 -11,0 -24,0 -35,0 -27,0 -28,-2 -28,23 0,18 10,16 37,15z"/>
  </g>
  <g id="_280276021472">
   <path class="fil0" d="M5173 2771l60 0 61 61 -122 0 1 -61zm-83 0l61 0 1 61 -102 0 40 -61zm-82 41c-20,2 -60,-10 -61,20l0 83c8,3 35,19 41,19 6,-83 120,-79 123,0 6,2 102,1 122,1 13,0 29,1 41,0 3,-19 5,-30 18,-44 23,-23 64,-24 88,0 14,13 15,25 18,43l40 -20c1,-12 1,-27 1,-40 0,-11 2,-26 -6,-36 -8,-10 -16,-9 -28,-11 -12,-2 -24,-4 -36,-6 -11,-2 -23,-4 -34,-6 -19,-3 -16,0 -29,-13l-41 -41c-16,-14 -6,-11 -30,-11l-164 0c-4,1 -57,56 -63,62z"/>
   <path class="fil0" d="M5029 2938c-4,-28 37,-32 40,-7 5,29 -36,33 -40,7zm-20 3c3,22 24,38 46,34 23,-3 38,-24 35,-47 -4,-21 -24,-37 -46,-34 -23,3 -38,24 -35,47z"/>
   <path class="fil0" d="M5329 2916c29,-10 38,31 14,38 -28,9 -38,-31 -14,-38zm47 27c5,-22 -10,-43 -31,-48 -22,-5 -43,9 -49,30 -5,23 9,45 31,50 23,5 44,-10 49,-32z"/>
  </g>
  <g id="_280276020576">
   <path class="fil0" d="M3985 404l-26 1c-1,7 -1,73 0,79l26 0 0 -80zm53 0l-26 1 0 79 27 0 -1 -80zm54 0l-27 1 1 79 26 0 0 -80zm66 55c0,16 0,31 0,46 0,14 1,28 -15,32 -8,2 -37,0 -47,0 -12,0 -36,-1 -47,1l-10 39c8,1 15,-2 21,4 6,6 6,13 5,21 -1,21 -22,14 -36,16l-7 25c17,3 18,12 16,27 -1,17 -18,14 -30,14 -14,0 -28,0 -43,0 -11,0 -27,3 -36,-8 -8,-10 -3,-22 0,-34 4,-15 25,-97 26,-104 -14,-1 -49,4 -58,-8 -6,-9 -5,-17 -5,-28l0 -99c0,-10 0,-22 0,-32 1,-12 7,-13 14,-19 14,-2 198,-1 226,-1 13,0 24,4 26,18l0 90z"/>
   <path class="fil0" d="M4383 436c6,24 -8,22 -26,22 -16,0 -32,0 -49,0 -16,16 -20,40 -47,39 -11,0 -57,2 -64,-2 -9,-4 -6,-5 -11,-11 -3,-16 -1,-46 -1,-64 0,-27 10,-29 35,-29 15,0 47,-3 60,5 8,6 20,26 28,35l61 0c9,0 8,0 14,5z"/>
  </g>
  <polygon class="fil2" points="5360,2353 4714,2353 4714,2384 5360,2384 "/>
  <path class="fil2" d="M3449 939c552,261 941,808 975,1450l312 -5c-37,-767 -506,-1421 -1170,-1726l-117 281z"/>
  <path class="fil3" d="M3170 4125c-142,39 -291,59 -446,59 -554,0 -1046,-265 -1357,-675l-255 174c368,488 953,804 1612,804 187,0 367,-25 538,-72l-92 -290z"/>
  <path class="fil4" d="M4426 2510c-12,721 -471,1332 -1112,1569l93 290c769,-276 1321,-1005 1331,-1864l-312 5z"/>
  <polygon class="fil3" points="610,4067 593,4042 1112,3683 1142,3701 "/>
  <polygon class="fil4" points="3628,4961 3600,4971 3407,4369 3432,4346 "/>
  <g id="_280276015552">
   <path class="fil1" d="M2989 4931c-31,-8 -41,37 -13,44 30,8 42,-36 13,-44zm37 40c-5,7 -13,28 -41,29 -30,1 -39,-21 -44,-24 -5,-18 -9,-30 2,-48 17,-27 55,-29 76,-4 12,16 11,29 7,47z"/>
   <path class="fil1" d="M2690 4931c-29,-9 -42,35 -13,44 28,10 43,-35 13,-44zm40 29c-9,36 -43,52 -75,30 -27,-23 -23,-65 10,-80 35,-15 68,13 65,50z"/>
   <path class="fil1" d="M2746 4967l-6 1c-2,-4 0,-10 0,-15l19 0c-2,5 -9,12 -13,14zm-26 -75l3 0c0,5 0,3 -2,6 -4,-1 -5,-1 -6,-3l4 2c-1,5 1,2 -3,5 2,1 1,-1 2,4 0,0 0,1 0,1 0,-1 0,0 0,0 -15,-6 -18,-11 -37,-10 -14,0 -23,5 -34,13 -7,5 -15,19 -18,29 -5,21 3,27 2,43l-15 0 1 -30 -4 -2c2,-28 12,-44 34,-58 21,-14 62,-13 73,0zm361 -111l1 3 -3 1 -1 4c-5,1 -3,-1 -5,3l-6 -2 0 -3 -3 -37 -72 0 4 54 -6 0 -2 -7c2,-7 -1,-38 -2,-47l-36 0 1 48 16 2 2 3c0,0 -1,-1 -1,1 0,3 0,1 1,4 0,0 1,-1 1,-1 0,0 0,0 0,0l-2 1c0,0 0,1 -1,1l4 2c0,0 -1,1 -1,1l10 -1c-2,-1 -2,-1 -2,-3l3 1c3,10 1,45 1,59l-37 0c1,7 1,2 2,9 1,-4 0,-1 -1,-3 -2,4 -1,10 0,15 -5,1 -2,0 -4,2 1,-3 1,-1 -2,-3l0 -15 -28 -1 0 44 10 0 10 -5c0,0 0,0 0,0 4,5 2,5 -2,7 1,5 2,3 -1,3 -1,6 0,3 -2,8 0,0 0,0 -2,-2l0 6c4,4 0,1 4,1 -4,14 -3,20 -1,34l-182 -1c4,-2 11,-9 13,-14l124 0 0 -18 -146 0 -1 -1c-3,-14 -17,-25 -18,-27 0,0 0,-1 0,0 0,0 0,-1 0,-1 -1,-5 0,-3 -2,-4 4,-3 2,0 3,-5l-4 -2c1,2 2,2 6,3 2,-3 2,-1 2,-6l-3 0 24 0 -1 -14 -26 0 1 -7 63 0 0 7 -13 1 0 12 14 1 0 24 121 0 0 -44 -7 0 0 -188c16,0 41,5 56,9 20,6 25,12 38,25 20,3 42,6 62,10 10,2 20,4 29,8 11,4 17,7 16,20l-18 0 2 25zm-2 21c0,5 0,3 -3,4 -1,-3 0,-6 0,-10 0,-1 0,-1 0,-2 3,3 3,2 3,8zm-3 -8c0,1 0,1 0,2 0,4 -1,7 0,10 3,-1 3,1 3,-4 0,-6 0,-5 -3,-8zm8 17l-9 1 -1 -4 -5 3 -2 -21 6 2c2,-4 0,-2 5,-3l1 -4 3 -1 2 27zm-40 2l6 1 19 3 0 -6 5 -3 1 4 9 -1 0 5 11 5c3,6 5,6 5,14l0 59c-6,4 -5,-6 -5,24l5 1 0 50 -62 -1c-1,-12 3,-16 -2,-31 -2,-10 -7,-17 -14,-24 6,0 2,0 4,-2 -4,-8 -1,-1 -7,-4 -2,-2 -1,-4 -5,-5l1 -2c0,0 -2,-1 -2,-1 5,-1 2,1 2,-3l3 0c4,5 10,2 7,7l2 1c0,0 1,0 1,0 1,1 1,0 0,4 0,0 1,-1 1,0 2,5 -1,-3 4,1l3 3c0,8 2,0 3,10 8,1 20,1 28,1 4,0 7,0 11,0 8,0 5,0 10,-3l1 -19c0,0 -1,-3 -1,-3 -1,-4 1,-1 -2,-3l-39 1c-3,-4 -15,-14 -20,-17 -15,-12 -12,-5 -30,-7l0 -67 47 8zm-59 -11l4 3 -1 67 -39 0 0 17c16,-4 27,-12 53,-5 24,7 32,21 38,25 0,3 3,6 5,9l41 1 0 -24c3,2 1,-1 2,3 0,0 1,3 1,3l-1 19c-5,3 -2,3 -10,3 -4,0 -7,0 -11,0 -8,0 -20,0 -28,-1 -1,-10 -3,-2 -3,-10l-3 -3c-5,-4 -2,4 -4,-1 0,-1 -1,0 -1,0 1,-4 1,-3 0,-4 0,0 -1,0 -1,0l-2 -1c3,-5 -3,-2 -7,-7l-3 0c0,4 3,2 -2,3 0,0 2,1 2,1l-1 2c4,1 3,3 5,5 6,3 3,-4 7,4 -2,2 2,2 -4,2 -11,-14 -38,-19 -55,-14 -19,5 -31,18 -38,35 -4,0 0,3 -4,-1l0 -6c2,2 2,2 2,2 2,-5 1,-2 2,-8 3,0 2,2 1,-3 4,-2 6,-2 2,-7 0,0 0,0 0,0l-10 5c3,-9 13,-15 18,-22l0 -6c3,2 3,0 2,3 2,-2 -1,-1 4,-2 -1,-5 -2,-11 0,-15 1,2 2,-1 1,3 -1,-7 -1,-2 -2,-9l37 0c0,-14 2,-49 -1,-59l-3 -1c0,2 0,2 2,3l-10 1c0,0 1,-1 1,-1l-4 -2c1,0 1,-1 1,-1l2 -1c0,0 0,0 0,0 0,0 -1,1 -1,1 -1,-3 -1,-1 -1,-4 0,-2 1,-1 1,-1l-2 -3c6,1 12,3 18,2z"/>
  </g>
  <g id="_280276016672">
   <path class="fil1" d="M5282 1881c-8,-32 -57,-183 -287,-235 -51,-12 -76,-2 -81,30 -14,0 -34,2 -59,13l6 15c23,-9 41,-11 52,-11 1,19 7,43 17,73 0,0 -61,37 -64,115l-28 0 0 24 480 0 0 -24 -36 0 0 0zm-204 -147c-4,12 -17,20 -29,16l-77 -21c-12,-4 -20,-17 -16,-29 3,-13 16,-20 29,-17l76 21c13,4 20,17 17,30z"/>
   <path class="fil1" d="M5212 1978l6 -12 -9 -9 4 -12 -10 -8 1 -13 -10 -5 -232 0 -10 5 2 13 -10 8 3 12 -9 9 6 12 -7 10 7 11 -6 12 9 9 -3 12 10 8 -2 13 11 6 1 13 12 4 2 12 13 3 4 12 13 0 6 11 13 -1 7 10 13 -4 9 9 12 -5 10 7 11 -7 11 5 10 -9 12 4 8 -10 12 1 7 -11 12 0 5 -12 12 -3 3 -12 11 -4 1 -13 11 -6 -1 -13 10 -8 -4 -12 9 -9 -6 -12 7 -11 -7 -10zm-134 36c-14,0 -26,-11 -26,-26 0,-14 12,-25 26,-25 14,0 26,11 26,25 0,15 -12,26 -26,26z"/>
  </g>
  <path class="fil1" d="M4816 1193c4,0 7,1 11,2 4,1 8,4 11,7l61 61c5,-12 9,-25 9,-40 0,-48 -38,-87 -86,-91l-6 0c-11,0 -22,2 -31,6l-188 -188c3,-10 5,-21 5,-32l0 -6c-3,-48 -43,-86 -91,-86 -14,0 -27,4 -39,10l60 60c4,4 6,7 7,11 4,11 2,24 -7,33 -6,6 -13,9 -21,9 -4,0 -7,-1 -11,-3 -4,-1 -8,-3 -11,-6l-61 -61c-5,12 -9,25 -9,39 0,49 38,88 86,91l6 1c11,0 22,-3 32,-6l188 188c-4,10 -6,20 -6,31l0 7c3,47 43,85 91,85 14,0 28,-3 40,-9l-61 -61c-4,-3 -6,-7 -7,-11 -4,-11 -2,-23 7,-32 6,-6 13,-9 21,-9z"/>
  <polygon class="fil5" points="5107,4739 5365,4563 "/>
  <polygon class="fil6" points="4927,4835 5107,4739 "/>
  <g id="_280276014656">
   <path class="fil1" d="M1294 4304c-2,-2 -6,-2 -8,-3 2,-2 2,-8 2,-12 0,-4 0,-7 0,-11 -1,-1 -2,-1 -3,-1 -3,-4 -2,-10 -6,-12 -6,-5 -21,-5 -31,-7 -28,-5 -78,-9 -72,-9 -2,-1 -2,-3 -7,-3 0,1 0,0 -1,0 -22,-13 -40,-34 -67,-42 -9,-4 -22,-5 -34,-5 -12,0 -44,-3 -48,6 -4,5 -5,30 -5,40 -2,5 -5,4 -5,4l-189 0c0,0 -1,7 -1,10 -5,8 0,35 0,43 -3,0 -6,0 -8,2 -2,1 -2,3 -2,7 -2,5 4,20 4,20l69 0c0,-1 0,-2 0,-3l0 -8c0,-23 19,-43 43,-43l1 0c24,0 44,20 44,43l0 8c0,1 0,2 0,3l207 0c0,-1 0,-2 0,-2l0 -9c0,-24 20,-43 43,-43 24,0 44,19 44,43l0 9c0,0 -1,1 -1,2l13 0c0,0 15,-1 19,-6 4,-5 2,-17 -1,-21zm-159 -51l-84 0 -5 -44c0,0 60,-11 89,26 -4,4 0,18 0,18z"/>
   <path class="fil1" d="M926 4280c22,0 41,18 41,41 0,23 -19,41 -41,41 -23,0 -42,-18 -42,-41 0,-23 19,-41 42,-41zm0 24c9,0 17,7 17,17 0,9 -8,17 -17,17 -10,0 -17,-8 -17,-17 0,-10 7,-17 17,-17z"/>
   <path class="fil1" d="M1220 4280c23,0 42,18 42,41 0,23 -19,41 -42,41 -22,0 -41,-18 -41,-41 0,-23 19,-41 41,-41zm0 24c10,0 18,7 18,17 0,9 -8,17 -18,17 -9,0 -17,-8 -17,-17 0,-10 8,-17 17,-17z"/>
  </g>
  <path class="fil7" d="M4228 1353l-79 57 -11 -15 108 -79 16 21 -52 65 65 -47 11 15 -109 79 -13 -17 64 -79zm69 34l11 18 -111 75 -12 -17 112 -76zm42 12l-29 -4 -8 -12 25 -1 12 17zm-95 108l101 -45 11 16 -125 55 -17 -27 103 -90 11 18 -84 73zm80 31l15 25 -16 9 -15 -25 -34 20 18 32 -16 10 -29 -50 116 -68 29 49 -17 10 -18 -31 -33 19zm75 18l10 18 -101 56 16 30 -17 10 -26 -49 118 -65zm38 112c2,3 4,6 6,8 2,2 4,4 6,5 2,0 4,1 6,1 3,0 5,0 7,0l6 12 -122 57 -9 -19 94 -43 -7 -15 13 -6z"/>
  <path class="fil8" d="M4228 1353l-79 57 -11 -15 108 -79 16 21 -52 65 65 -47 11 15 -109 79 -13 -17 64 -79zm69 34l11 18 -111 75 -12 -17 112 -76zm42 12l-29 -4 -8 -12 25 -1 12 17zm-95 108l101 -45 11 16 -125 55 -17 -27 103 -90 11 18 -84 73zm80 31l15 25 -16 9 -15 -25 -34 20 18 32 -16 10 -29 -50 116 -68 29 49 -17 10 -18 -31 -33 19zm75 18l10 18 -101 56 16 30 -17 10 -26 -49 118 -65zm38 112c2,3 4,6 6,8 2,2 4,4 6,5 2,0 4,1 6,1 3,0 5,0 7,0l6 12 -122 57 -9 -19 94 -43 -7 -15 13 -6z"/>
  <path class="fil8" d="M4382 3396l-85 -48 9 -16 117 65 -12 23 -81 -20 70 39 -9 17 -118 -66 11 -19 98 25zm-2 77l-11 18 -115 -70 10 -18 116 70zm7 43l-8 -28 7 -12 12 22 -11 18zm-138 -41l84 73 -11 17 -102 -91 17 -26 125 55 -12 18 -101 -46zm6 86l-17 24 -15 -11 16 -24 -32 -22 -21 30 -16 -11 33 -48 111 77 -33 47 -16 -11 21 -30 -31 -21zm15 75l-13 17 -93 -68 -20 28 -16 -12 33 -45 109 80zm-116 94c4,4 8,6 11,5 3,0 5,-1 7,-4 3,-2 3,-5 3,-8 0,-2 -2,-5 -6,-9l-11 -9 13 -15 10 8c9,7 13,15 14,23 1,7 -2,15 -8,23 -7,8 -14,12 -22,13 -8,0 -16,-4 -25,-11 -5,-4 -9,-9 -12,-14 -3,-6 -5,-11 -7,-16 -2,-6 -3,-11 -3,-16 -1,-6 -2,-11 -2,-16 -1,-4 -2,-8 -3,-12 -2,-4 -4,-7 -7,-9 -1,-1 -1,-2 -2,-2l-26 30 -14 -12 39 -47 13 11c5,4 8,9 11,13 2,5 4,10 5,15 2,5 2,10 3,16 0,5 1,10 2,15 1,5 3,10 5,14 3,5 7,10 12,14z"/>
  <path class="fil8" d="M2259 4315l28 -93 18 5 -38 129 -26 -7 2 -84 -22 77 -18 -5 37 -129 21 6 -2 101zm-75 15l-20 -7 42 -127 20 6 -42 128zm-41 16l25 -14 14 5 -19 16 -20 -7zm9 -143l-52 98 -19 -7 66 -119 29 10 -26 134 -20 -7 22 -109zm-82 25l-27 -11 7 -18 27 11 15 -37 -34 -13 7 -18 54 21 -51 125 -53 -21 7 -18 34 13 14 -34zm-70 30l-19 -8 46 -106 -32 -14 8 -17 51 22 -54 123zm-116 -92c-3,6 -4,10 -3,13 1,2 3,5 6,6 3,2 5,2 8,1 3,-1 5,-3 7,-8l4 -7 18 9 -3 6c-5,10 -11,16 -19,19 -7,3 -16,2 -25,-3 -9,-5 -15,-11 -17,-19 -2,-7 0,-16 5,-26l2 -3c6,-12 15,-18 25,-17 -3,-5 -5,-10 -5,-15 0,-5 2,-11 5,-17l5 -10c5,-9 11,-16 19,-18 7,-3 16,-2 25,3 9,5 15,11 17,18 2,8 0,17 -5,26l-5 10 -18 -9 6 -11c2,-4 3,-8 2,-11 -1,-2 -3,-4 -6,-6 -3,-1 -5,-2 -8,-1 -3,1 -5,4 -8,10l-5 9c-3,6 -4,10 -3,13 0,4 3,6 7,9l7 3 -9 17 -8 -4c-3,-2 -6,-2 -9,-2 -3,1 -6,4 -9,9l-3 6z"/>
 </g>
</svg>
