<svg id="Layer_1" data-name="Layer 1" xmlns="http://www.w3.org/2000/svg" viewBox="0 0 43.99 43.99"><defs><style>.cls-1{fill:#666;}.cls-2{fill:#9b9b9b;}.cls-3,.cls-5{fill:none;}.cls-3{stroke:#339188;}.cls-3,.cls-4,.cls-5{stroke-miterlimit:10;}.cls-4,.cls-6{fill:#c63;}.cls-4,.cls-5{stroke:#9b9b9b;}</style></defs><title>Non_Trad_Asset_Classes_Dark_Gray_White</title><path class="cls-1" d="M375,71a21,21,0,1,1-21,21,21,21,0,0,1,21-21m0-1a22,22,0,1,0,22,22,22,22,0,0,0-22-22h0Z" transform="translate(-353.04 -69.97)"/><path class="cls-2" d="M389.38,98.28" transform="translate(-353.04 -69.97)"/><path class="cls-3" d="M369.06,76.85" transform="translate(-353.04 -69.97)"/><path class="cls-3" d="M374.76,74.05" transform="translate(-353.04 -69.97)"/><path class="cls-1" d="M373,105h-5v-4h-2v4h-4V99h-3.18l8.75-9,8.75,9H373v6Zm-4-1h3V98h1.95l-6.38-6.54L361.19,98H363v6h2v-4h4v4Z" transform="translate(-353.04 -69.97)"/><path class="cls-1" d="M388.6,104.27H378.31a0.5,0.5,0,0,1-.49-0.58l3.39-20.34a0.5,0.5,0,0,1,.49-0.42h3.5a0.5,0.5,0,0,1,.49.42l3.39,20.34A0.5,0.5,0,0,1,388.6,104.27Zm-9.69-1H388l-3.22-19.34h-2.66Z" transform="translate(-353.04 -69.97)"/><path class="cls-1" d="M378.6,104.19l-0.56-.83,8.62-5.89-6.26-5a0.5,0.5,0,0,1,.31-0.89h5.94v1h-4.52l5.68,4.55a0.5,0.5,0,0,1,0,.8Z" transform="translate(-353.04 -69.97)"/><path class="cls-1" d="M388.4,104.19l-9.18-6.27a0.5,0.5,0,0,1,0-.8l5.68-4.55h-4.52v-1h5.94a0.5,0.5,0,0,1,.31.89l-6.26,5,8.62,5.89Z" transform="translate(-353.04 -69.97)"/><path class="cls-1" d="M381,91.24l-0.6-.8L385,87l-3.55-2.81,0.62-.78,4.05,3.21a0.5,0.5,0,0,1,0,.79Z" transform="translate(-353.04 -69.97)"/><path class="cls-1" d="M385.86,91.24l-5.11-3.83a0.5,0.5,0,0,1,0-.79l4.05-3.21,0.62,0.78L381.87,87l4.59,3.44Z" transform="translate(-353.04 -69.97)"/><rect class="cls-1" x="24.03" y="33.59" width="12.88" height="1"/><rect class="cls-1" x="27.42" y="12.97" width="6.1" height="1"/><path class="cls-1" d="M382.57,77.48a0.7,0.7,0,1,1,1.36,0,6.12,6.12,0,0,1-.68,1.7A6.12,6.12,0,0,1,382.57,77.48Z" transform="translate(-353.04 -69.97)"/><path class="cls-1" d="M384.6,79.38a0.59,0.59,0,0,1,.95-0.21,1,1,0,0,1,.17,1.21,4,4,0,0,1-1.32.9A6.9,6.9,0,0,1,384.6,79.38Z" transform="translate(-353.04 -69.97)"/><path class="cls-1" d="M380.78,80.29A1,1,0,0,1,381,79.1a0.61,0.61,0,0,1,.93.33,7,7,0,0,1,.06,1.91A4.32,4.32,0,0,1,380.78,80.29Z" transform="translate(-353.04 -69.97)"/><path class="cls-4" d="M389.38,98.25" transform="translate(-353.04 -69.97)"/><path class="cls-5" d="M369.06,76.82" transform="translate(-353.04 -69.97)"/><path class="cls-5" d="M374.76,74" transform="translate(-353.04 -69.97)"/><path class="cls-6" d="M389.38,98.26" transform="translate(-353.04 -69.97)"/><path class="cls-3" d="M369.06,76.84" transform="translate(-353.04 -69.97)"/><path class="cls-3" d="M374.76,74" transform="translate(-353.04 -69.97)"/><path class="cls-4" d="M389.38,98.25" transform="translate(-353.04 -69.97)"/><path class="cls-5" d="M369.06,76.82" transform="translate(-353.04 -69.97)"/><path class="cls-5" d="M374.76,74" transform="translate(-353.04 -69.97)"/><path class="cls-1" d="M373,90h-3V88h-5.45l1.9-3h-2l2.31-3h-1.54l5.71-7.24L376.62,82h-1.54l2.31,3h-2l1.9,3H373v2Zm-2-1h1V87h3.46l-1.9-3h1.8L373,81h1.51l-3.64-4.62L367.27,81h1.51l-2.31,3h1.8l-1.9,3H371v2Z" transform="translate(-353.04 -69.97)"/></svg>