<?xml version="1.0" encoding="utf-8"?>
<!-- Generator: Adobe Illustrator 17.1.0, SVG Export Plug-In . SVG Version: 6.00 Build 0)  -->
<!DOCTYPE svg PUBLIC "-//W3C//DTD SVG 1.1//EN" "http://www.w3.org/Graphics/SVG/1.1/DTD/svg11.dtd">
<svg version="1.1" id="Icons" xmlns="http://www.w3.org/2000/svg" xmlns:xlink="http://www.w3.org/1999/xlink" x="0px" y="0px"
	 viewBox="5 5 90 90" enable-background="new 5 5 90 90" xml:space="preserve">
<path id="iTunes" fill="#8A8A8A" d="M50,5C25.1,5,5,25.1,5,50s20.1,45,45,45s45-20.1,45-45S74.9,5,50,5z M50,86
	c-19.9,0-36-16.1-36-36s16.1-36,36-36s36,16.1,36,36S69.9,86,50,86z M66.5,62.1c0.3,3.8-2.6,7.3-6.4,7.8c-3.8,0.5-7.2-2.2-7.5-6.1
	C52.3,60,55.2,56.5,59,56c1.2-0.1,2.4,0,3.4,0.4V37.6l-18,3.3v23.5h0c0,0.1,0,0.1,0,0.2c0.3,3.8-2.6,7.3-6.4,7.8
	c-3.8,0.5-7.2-2.2-7.5-6.1c-0.3-3.8,2.6-7.3,6.4-7.8c1.2-0.2,2.4,0,3.4,0.4V32v0l26.1-4.5l0,0v0l0,0l0,0.1v34.2h0
	C66.5,61.9,66.5,62,66.5,62.1z"/>
</svg>
