<?xml version="1.0" encoding="UTF-8" standalone="no"?>
<!-- Created with Inkscape (http://www.inkscape.org/) -->

<svg
   xmlns:svg="http://www.w3.org/2000/svg"
   xmlns="http://www.w3.org/2000/svg"
   version="1.1"
   width="1800"
   height="300"
   id="svg5338">
  <defs
     id="defs5340" />
  <g
     transform="translate(0,-772.36217)"
     id="layer1">
    <rect
       width="1800"
       height="300"
       rx="50"
       ry="50"
       x="0"
       y="0"
       transform="translate(0,772.36217)"
       id="rect5348"
       style="color:#000000;fill:#000000;fill-opacity:1;stroke:none;stroke-width:99;marker:none;visibility:visible;display:inline;overflow:visible;enable-background:accumulate" />
    <rect
       width="1770"
       height="270"
       rx="50"
       ry="50"
       x="15"
       y="15"
       transform="translate(0,772.36217)"
       id="rect5860"
       style="color:#000000;fill:#ffffff;fill-opacity:1;fill-rule:nonzero;stroke:none;stroke-width:99;marker:none;visibility:visible;display:inline;overflow:visible;enable-background:accumulate" />
    <g
       transform="scale(0.89120427,1.1220772)"
       id="text2814"
       style="font-size:222.80107117px;font-style:normal;font-weight:normal;text-align:center;text-anchor:middle;fill:#000000;fill-opacity:1;stroke:none">
      <path
         d="m 323.53892,837.60504 0,-35.86656 c -1e-4,-1.33711 -0.59391,-2.00571 -1.78143,-2.00581 l -76.64226,0 c -2.82402,10e-5 -5.20152,-0.9654 -7.13252,-2.89652 -1.93103,-1.93091 -2.89653,-4.30728 -2.89652,-7.12912 -10e-6,-2.82162 0.96549,-5.19799 2.89652,-7.12912 1.931,-1.93089 4.3085,-2.8964 7.13252,-2.89652 l 20.942,0 c 1.18757,1.2e-4 1.78138,-0.66848 1.78142,-2.00581 l 0,-35.87337 c -4e-5,-3.26805 1.15132,-6.05352 3.45407,-8.3564 2.30267,-2.30254 5.08813,-3.45389 8.3564,-3.45407 3.26816,1.8e-4 6.05363,1.15153 8.3564,3.45407 2.30265,2.30288 3.454,5.08835 3.45407,8.3564 l 0,35.87337 c -7e-5,1.33733 0.59374,2.00593 1.78143,2.00581 l 28.51647,0 c 1.18752,1.2e-4 1.78133,-0.66848 1.78143,-2.00581 l 0,-44.78731 c -1e-4,-3.26352 1.22492,-6.12151 3.67505,-8.57398 2.44993,-2.45212 5.38384,-3.67827 8.80176,-3.67845 3.2681,1.8e-4 6.09096,1.18893 8.46859,3.56626 2.37738,2.37768 3.56613,5.27307 3.56626,8.68617 l 0,4.68475 c -1.3e-4,1.33737 0.66847,2.00597 2.0058,2.00581 l 60.37822,0 c 2.52464,1.6e-4 4.75256,0.96453 6.68376,2.89312 1.93082,1.92891 2.89633,4.15683 2.89653,6.68376 -2e-4,2.52724 -0.96571,4.7189 -2.89653,6.57497 -1.9312,1.85637 -4.15912,2.78448 -6.68376,2.78433 l -60.37822,0 c -1.33733,1.5e-4 -2.00593,0.59396 -2.0058,1.78143 l 0,17.37914 c -1.3e-4,1.33733 0.66847,2.00593 2.0058,2.00581 l 73.29699,0 c 2.82379,1.2e-4 5.20129,0.96563 7.13251,2.89652 1.93081,1.93113 2.89632,4.3075 2.89653,7.12912 -2.1e-4,2.82184 -0.96572,5.19821 -2.89653,7.12912 -1.93122,1.93112 -4.30872,2.89662 -7.13251,2.89652 l -73.29699,0 c -1.33733,10e-5 -2.00593,0.6687 -2.0058,2.00581 l 0,35.20023 c -1.3e-4,15.00395 -1.59684,24.17626 -4.79015,27.51696 -3.19354,3.34078 -11.77318,5.01116 -25.73893,5.01112 -3.71254,4e-5 -10.39629,-0.22208 -20.05128,-0.66633 -2.81954,-0.14955 -5.23217,-1.18985 -7.23791,-3.1209 -2.00587,-1.93098 -3.08357,-4.38101 -3.23309,-7.3501 -0.14965,-2.67436 0.7048,-4.97707 2.56336,-6.90814 1.85842,-1.93096 4.1226,-2.82167 6.79254,-2.67214 8.46738,0.44427 14.26042,0.66639 17.37914,0.66633 4.9045,6e-5 7.76476,-0.4827 8.58078,-1.44826 0.81582,-0.96545 1.22378,-4.41952 1.22388,-10.36221 z M 287.2236,822.45609 c -7.27989,15.44819 -16.48847,29.7812 -27.62576,42.99909 -1.93105,2.3798 -4.49327,3.71814 -7.68666,4.01501 -3.19345,0.29694 -5.98005,-0.52011 -8.3598,-2.45116 -2.37526,-1.78139 -3.71133,-4.19516 -4.00822,-7.24131 -0.29692,-3.04606 0.52014,-5.75673 2.45117,-8.13202 9.50546,-12.03025 17.676,-24.58184 24.51165,-37.6548 1.48222,-2.8239 3.63421,-4.79231 6.45598,-5.90523 2.82168,-1.11273 5.64454,-1.07534 8.46859,0.11219 2.82394,1.18771 4.82974,3.15612 6.01743,5.90523 1.18755,2.74929 1.11276,5.53362 -0.22438,8.353 z m 142.58915,32.4193 c -0.59402,3.04615 -2.15333,5.31147 -4.67795,6.79595 -2.52503,1.48456 -5.30936,1.89252 -8.353,1.22388 -3.04404,-0.66856 -5.38414,-2.26527 -7.02033,-4.79014 -7.72424,-11.14181 -17.15493,-23.02479 -28.29209,-35.64899 -1.93117,-2.08051 -2.71083,-4.53168 -2.33898,-7.35349 0.37154,-2.82164 1.74501,-5.04843 4.12041,-6.68036 2.52466,-1.78134 5.38378,-2.48733 8.57738,-2.118 3.19325,0.36953 5.83026,1.74413 7.91104,4.1238 10.99209,12.47462 20.49757,24.57972 28.51647,36.31533 1.63617,2.37529 2.15518,5.08596 1.55705,8.13202 z m -184.69752,58.26362 c -0.893,-2.52483 -0.55983,-4.97599 0.9995,-7.35349 1.5593,-2.37751 3.67616,-3.71358 6.3506,-4.00822 58.07542,-5.79304 101.44842,-20.94424 130.11914,-45.45365 2.22549,-1.93097 4.78658,-2.85908 7.68326,-2.78433 2.89636,0.0748 5.31012,1.15027 7.24131,3.22629 2.08043,2.08064 3.08333,4.644 3.00871,7.69006 -0.075,3.04615 -1.22519,5.53471 -3.45067,7.46569 -30.45216,26.73504 -76.42478,43.51809 -137.91799,50.34918 -3.11867,0.29915 -5.97779,-0.40572 -8.57738,-2.1146 -2.59965,-1.70892 -4.41847,-4.04789 -5.45648,-7.01693 z"
         id="path2817"
         style="font-variant:normal;font-stretch:normal;font-family:'Rounded M+ 1m medium';-inkscape-font-specification:'Rounded M+ 1m medium,'" />
      <path
         d="m 463.68031,758.95697 c 13.07285,-9.06111 24.28723,-19.30999 33.64318,-30.74665 1.93096,-2.37507 4.34472,-3.82219 7.2413,-4.34139 2.89646,-0.51884 5.60713,-0.0361 8.13202,1.44826 2.52476,1.4847 4.04781,3.60043 4.56917,6.34719 0.52121,2.74711 -0.11113,5.23567 -1.89702,7.46569 -11.88079,15.1491 -26.13901,28.29449 -42.77471,39.43622 -2.37526,1.63197 -4.93748,2.03993 -7.68666,1.22389 -2.74922,-0.8158 -4.71763,-2.56096 -5.90524,-5.2355 -1.33721,-2.81933 -1.56046,-5.67732 -0.66973,-8.57398 0.8907,-2.89638 2.67326,-5.23762 5.34769,-7.02373 z m 13.5919,77.3154 c -2.82403,3.41334 -6.09225,6.97846 -9.80467,10.69538 -2.07608,2.07612 -4.56238,2.66879 -7.45888,1.77803 -2.89654,-0.89066 -4.71649,-2.82054 -5.45988,-5.78965 l 0,-0.22438 c -2.08061,-7.72399 0.0725,-14.33295 6.45938,-19.8269 14.55511,-12.03022 26.735,-25.62211 36.5397,-40.7757 1.63179,-2.5247 3.85971,-4.12141 6.68376,-4.79014 2.82394,-0.66847 5.49835,-0.25938 8.02324,1.22728 2.52475,1.63197 4.15773,3.85989 4.89893,6.68376 0.74105,2.82412 0.37049,5.49852 -1.1117,8.02324 -4.31085,6.98076 -8.69416,13.29282 -13.14994,18.93618 -0.73892,1.03813 -1.10835,2.07843 -1.10829,3.12091 l 0,96.24478 c -6e-5,3.26821 -1.11515,6.05367 -3.34528,8.3564 -2.23024,2.3027 -4.97831,3.45405 -8.24421,3.45407 -3.266,-2e-5 -6.05033,-1.15137 -8.353,-3.45407 -2.30275,-2.30273 -3.4541,-5.08819 -3.45407,-8.3564 l 0,-74.86083 c -3e-5,-0.29457 -0.11109,-0.51669 -0.33317,-0.66634 -0.22214,-0.14952 -0.48278,-0.0747 -0.78192,0.22438 z m 66.62002,-106.28063 96.46916,0 c 2.8238,1.8e-4 5.2387,1.00308 7.24471,3.00872 2.0056,2.00597 3.00851,4.49567 3.00871,7.46908 -2e-4,2.81963 -0.96571,5.23226 -2.89652,7.23791 -1.93122,2.00596 -4.38351,3.00886 -7.3569,3.00871 l -96.46916,0 c -2.82409,1.5e-4 -5.23899,-1.00275 -7.24471,-3.00871 -2.0059,-2.00565 -3.0088,-4.41828 -3.00871,-7.23791 -9e-5,-2.97341 1.00281,-5.46311 3.00871,-7.46908 2.00572,-2.00564 4.42062,-3.00854 7.24471,-3.00872 z m -16.15526,75.08522 c -2.00362,-1.93092 -3.00539,-4.38095 -3.00531,-7.3501 -8e-5,-2.96894 1.00169,-5.41897 3.00531,-7.3501 2.00346,-1.9309 4.41723,-2.8964 7.24131,-2.89652 l 115.41215,0 c 2.81926,1.2e-4 5.23189,0.96562 7.23791,2.89652 2.00559,1.93113 3.0085,4.38116 3.00871,7.3501 -2.1e-4,2.96915 -1.00312,5.41918 -3.00871,7.3501 -2.00602,1.93111 -4.41865,2.89661 -7.23791,2.89652 l -22.9478,0 c -1.1878,9e-5 -1.78161,0.6687 -1.78143,2.00581 l 0,78.20611 c -1.8e-4,14.70473 -1.70908,23.80225 -5.12671,27.29259 -3.41798,3.49031 -12.32965,5.23548 -26.73504,5.2355 -4.90474,-2e-5 -12.77838,-0.22213 -23.62094,-0.66634 -2.96917,-0.1496 -5.49399,-1.30096 -7.57447,-3.45407 -2.08072,-2.15314 -3.19354,-4.71649 -3.33848,-7.69006 -0.1497,-2.81947 0.77841,-5.2321 2.78433,-7.23791 2.00569,-2.0058 4.49312,-2.93391 7.46229,-2.78433 6.38672,0.29464 13.22006,0.44196 20.50003,0.44195 5.34414,10e-6 8.53643,-0.52014 9.57689,-1.56045 1.04014,-1.04029 1.56029,-4.38217 1.56045,-10.02564 l 0,-77.75735 c -1.6e-4,-1.33711 -0.66876,-2.00572 -2.00581,-2.00581 l -64.16546,0 c -2.82408,9e-5 -5.23785,-0.96541 -7.24131,-2.89652 z"
         id="path2819"
         style="font-variant:normal;font-stretch:normal;font-family:'Rounded M+ 1m medium';-inkscape-font-specification:'Rounded M+ 1m medium,'" />
      <path
         d="m 716.5617,848.74918 c -6.23731,2.37529 -13.66446,5.12222 -22.28147,8.24081 -2.82402,1.04261 -5.60948,0.89529 -8.3564,-0.44196 -2.74695,-1.33716 -4.63943,-3.49255 -5.67746,-6.46618 -1.04257,-2.81941 -0.93265,-5.52895 0.32977,-8.12862 1.2624,-2.59956 3.3056,-4.34585 6.12962,-5.2389 28.0722,-8.76202 54.80721,-20.42063 80.20512,-34.97585 0.14949,-0.14949 0.22428,-0.33534 0.22438,-0.55755 -10e-5,-0.22201 -0.14742,-0.33307 -0.44196,-0.33317 l -79.53879,0 c -2.67442,10e-5 -4.97713,-0.9654 -6.90814,-2.89652 -1.93102,-1.93091 -2.89653,-4.23362 -2.89652,-6.90814 -10e-6,-2.6743 0.9655,-4.97701 2.89652,-6.90814 1.93101,-1.93089 4.23372,-2.8964 6.90814,-2.89652 l 69.50975,0 c 1.33712,1.2e-4 2.00572,-0.59369 2.00581,-1.78143 l 0,-19.60932 c -9e-5,-1.18748 -0.66869,-1.78129 -2.00581,-1.78143 l -49.90722,0 c -2.52486,1.4e-4 -4.71539,-0.96536 -6.57157,-2.89653 -1.85626,-1.93086 -2.78437,-4.15878 -2.78434,-6.68376 -3e-5,-2.52466 0.92808,-4.75258 2.78434,-6.68376 1.85618,-1.93085 4.04671,-2.89635 6.57157,-2.89652 l 49.90722,0 c 1.33712,1.7e-4 2.00572,-0.59364 2.00581,-1.78143 l 0,-5.34429 c -9e-5,-3.26804 1.22492,-6.1283 3.67505,-8.58078 2.44993,-2.45211 5.30905,-3.67826 8.57737,-3.67844 3.26812,1.8e-4 6.12838,1.22633 8.58078,3.67844 2.45219,2.45248 3.67834,5.31274 3.67845,8.58078 l 0,5.34429 c -1.1e-4,1.18779 0.66622,1.7816 1.99901,1.78143 l 33.20122,0 c 3.41765,1.7e-4 6.38897,1.26258 8.91395,3.78724 2.52466,2.52498 3.78707,5.49629 3.78724,8.91395 l 0,0.89071 c -1.7e-4,0.29932 0.14828,0.55996 0.44535,0.78193 0.29674,0.22226 0.59252,0.18373 0.88732,-0.11559 6.24163,-5.93795 12.03467,-12.17521 17.37913,-18.71181 1.93084,-2.37507 4.3446,-3.74854 7.24131,-4.12041 2.89633,-0.37152 5.607,0.33334 8.13202,2.1146 2.37504,1.63201 3.78591,3.89619 4.2326,6.79255 0.44629,2.89668 -0.29598,5.46004 -2.22679,7.69006 -9.50568,11.13748 -20.72006,22.20228 -33.64318,33.19443 -0.2948,0.1497 -0.36846,0.37295 -0.22098,0.66973 0.14716,0.29703 0.3704,0.44548 0.66974,0.44536 l 38.53871,0 c 2.6742,1.2e-4 4.97691,0.96563 6.90814,2.89652 1.9308,1.93113 2.89631,4.23384 2.89652,6.90814 -2.1e-4,2.67452 -0.96572,4.97723 -2.89652,6.90814 -1.93123,1.93112 -4.23394,2.89662 -6.90814,2.89652 l -64.16546,0 c -1.18776,10e-5 -2.37538,0.3718 -3.56286,1.11509 -10.09942,6.83118 -18.6394,12.25252 -25.61995,16.26405 -0.14969,0.14514 -0.22448,0.32985 -0.22437,0.55414 -1.1e-4,0.22447 0.1472,0.33666 0.44195,0.33657 l 70.85602,0 c 3.41309,9e-5 6.34587,1.2625 8.79836,3.78724 2.4521,2.5249 3.67825,5.49395 3.67845,8.90715 l 0,78.43049 c -2e-4,3.41326 -1.15155,6.27125 -3.45407,8.57398 -2.3029,2.30269 -5.08837,3.45405 -8.3564,3.45407 l -4.236,0 c -2.07624,-2e-5 -3.89393,-0.77968 -5.45308,-2.33898 -1.55948,-1.55933 -2.33914,-3.37929 -2.33897,-5.45988 -1.7e-4,-0.73887 -0.37187,-1.1083 -1.11509,-1.10829 l -94.69454,0 c -0.74347,-10e-6 -1.11517,0.36942 -1.11509,1.10829 -8e-5,2.08059 -0.77973,3.90055 -2.33898,5.45988 -1.55939,1.5593 -3.37708,2.33896 -5.45308,2.33898 l -4.23599,0 c -3.26828,-2e-5 -6.09114,-1.15138 -8.46859,-3.45407 -2.37756,-2.30273 -3.56631,-5.16072 -3.56626,-8.57398 l 0,-60.16064 c -5e-5,-0.44417 -0.1111,-0.81474 -0.33317,-1.1117 -0.22216,-0.29685 -0.55533,-0.3705 -0.9995,-0.22097 z m 68.61903,-67.51074 11.58609,0 c 1.48666,1.2e-4 2.60175,-0.29678 3.34528,-0.89072 8.31773,-5.9425 16.9325,-12.99795 25.84433,-21.16637 0.29901,-0.14944 0.3738,-0.37269 0.22437,-0.66974 -0.14974,-0.29676 -0.37412,-0.44521 -0.67313,-0.44535 l -40.32694,0 c -1.33279,1.4e-4 -1.99912,0.59395 -1.99901,1.78143 l 0,19.60932 c -1.1e-4,1.18774 0.66622,1.78155 1.99901,1.78143 z m 53.70126,111.40053 0,-15.37332 c -1.7e-4,-1.1876 -0.66877,-1.78141 -2.00581,-1.78143 l -93.13068,0 c -1.19223,2e-5 -1.78831,0.59383 -1.78823,1.78143 l 0,15.37332 c -8e-5,1.18763 0.596,1.78144 1.78823,1.78143 l 93.13068,0 c 1.33704,10e-6 2.00564,-0.5938 2.00581,-1.78143 z m 0,-37.43041 0,-14.70699 c -1.7e-4,-1.18756 -0.66877,-1.78137 -2.00581,-1.78143 l -93.13068,0 c -1.19223,6e-5 -1.78831,0.59387 -1.78823,1.78143 l 0,14.70699 c -8e-5,1.18766 0.596,1.78147 1.78823,1.78143 l 93.13068,0 c 1.33704,4e-5 2.00564,-0.59377 2.00581,-1.78143 z"
         id="path2821"
         style="font-variant:normal;font-stretch:normal;font-family:'Rounded M+ 1m medium';-inkscape-font-specification:'Rounded M+ 1m medium,'" />
      <path
         d="m 923.54067,845.18632 c -2.66991,7.71958 -5.71375,15.14446 -9.13153,22.27466 -1.18764,2.52486 -3.22971,3.82467 -6.12621,3.89943 -2.89654,0.0748 -5.08819,-1.0754 -6.57497,-3.45067 l -0.22438,-0.66633 c -4.30626,-6.98516 -4.52837,-14.1902 -0.66634,-21.61514 10.24887,-19.60471 17.82334,-40.91838 22.72343,-63.94107 0.29914,-1.33709 -0.21988,-2.00569 -1.55705,-2.00581 l -12.47681,0 c -2.82401,1.2e-4 -5.16412,-0.96539 -7.02033,-2.89652 -1.85623,-1.93089 -2.78434,-4.30726 -2.78433,-7.12912 -10e-6,-2.8216 0.9281,-5.19797 2.78433,-7.12912 1.85621,-1.93087 4.19632,-2.89638 7.02033,-2.89652 l 12.70119,0 c 1.33717,1.4e-4 2.00577,-0.66846 2.0058,-2.00581 l 0,-23.62094 c -3e-5,-3.11846 1.07653,-5.75434 3.2297,-7.90764 2.15308,-2.15295 4.78896,-3.22951 7.90764,-3.22969 3.11859,1.8e-4 5.75446,1.07674 7.90764,3.22969 2.15307,2.1533 3.22964,4.78918 3.22969,7.90764 l 0,23.62094 c -5e-5,1.33735 0.59602,2.00595 1.78823,2.00581 l 13.14314,0 c 1.93095,1.4e-4 3.52766,0.63135 4.79014,1.89362 1.26234,1.26255 1.89355,2.85926 1.89362,4.79014 -7e-5,0.74353 0.37162,1.11523 1.1151,1.11509 l 21.16637,0 c 1.18752,1.4e-4 1.78133,-0.59594 1.78143,-1.78823 l 0,-9.79786 c -1e-4,-1.192 -0.59391,-1.78808 -1.78143,-1.78823 l -14.93137,0 c -2.37532,1.5e-4 -4.45365,-0.89056 -6.235,-2.67214 -1.78151,-1.78128 -2.67222,-3.86074 -2.67215,-6.23841 -7e-5,-2.37734 0.89064,-4.45681 2.67215,-6.2384 1.78135,-1.78126 3.85968,-2.67198 6.235,-2.67214 l 14.93137,0 c 1.18752,1.6e-4 1.78133,-0.59364 1.78143,-1.78143 l 0,-1.33947 c -1e-4,-3.11847 1.15125,-5.79174 3.45407,-8.01984 2.3026,-2.22774 5.01323,-3.34169 8.13203,-3.34188 3.1185,1.9e-4 5.7918,1.11414 8.0198,3.34188 2.2278,2.2281 3.3418,4.90137 3.3419,8.01984 l 0,1.33947 c -10e-5,1.18779 0.5937,1.78159 1.7814,1.78143 l 33.6432,0 c 1.1875,1.6e-4 1.7813,-0.59364 1.7814,-1.78143 l 0,-1.33947 c -10e-5,-3.11847 1.1512,-5.79174 3.4541,-8.01984 2.3026,-2.22774 5.0132,-3.34169 8.132,-3.34188 3.1185,1.9e-4 5.7918,1.11414 8.0199,3.34188 2.2277,2.2281 3.3417,4.90137 3.3418,8.01984 l 0,1.33947 c -10e-5,1.18779 0.5959,1.78159 1.7883,1.78143 l 14.2582,0 c 2.375,1.6e-4 4.4534,0.89088 6.235,2.67214 1.7812,1.78159 2.6719,3.86106 2.6722,6.2384 -3e-4,2.37767 -0.891,4.45713 -2.6722,6.23841 -1.7816,1.78158 -3.86,2.67229 -6.235,2.67214 l -14.2582,0 c -1.1924,1.5e-4 -1.7884,0.59623 -1.7883,1.78823 l 0,9.79786 c -10e-5,1.19229 0.5959,1.78837 1.7883,1.78823 l 19.3781,0 c 2.5246,1.4e-4 4.7163,0.92825 6.575,2.78433 1.8583,1.85636 2.7875,4.04688 2.7877,6.57158 -2e-4,2.52494 -0.9294,4.75286 -2.7877,6.68376 -1.8587,1.93113 -4.0504,2.89664 -6.575,2.89652 l -47.677,0 c -1.3374,1.2e-4 -2.006,0.66872 -2.0058,2.00581 l 0,7.12571 c -2e-4,1.33732 0.6684,2.00592 2.0058,2.00581 l 37.8792,0 c 3.413,1.1e-4 6.3458,1.26252 8.7983,3.78724 2.4521,2.52492 3.6783,5.49624 3.6785,8.91395 l 0,58.82117 c -2e-4,3.4133 -1.2264,6.34608 -3.6785,8.79835 -2.4525,2.45232 -5.3853,3.67847 -8.7983,3.67845 l -24.2873,0 c -0.2994,2e-5 -0.4489,0.11108 -0.4488,0.33317 -10e-5,0.22213 0.075,0.40798 0.2244,0.55755 13.2178,6.23728 25.2481,12.99583 36.0909,20.27565 2.3796,1.48226 3.829,3.63539 4.3482,6.45939 0.5188,2.82398 0.035,5.4236 -1.4516,7.79885 -1.4825,2.22564 -3.5982,3.5991 -6.3472,4.1204 -2.7494,0.52127 -5.3116,0.0385 -7.6867,-1.44826 -9.6552,-6.23728 -20.7948,-12.47454 -33.4188,-18.71181 -2.9692,-1.63637 -4.9739,-4.01387 -6.014,-7.13251 -1.0405,-3.11862 -0.6699,-6.16473 1.1117,-9.13833 l 0.8907,-1.33267 c 0.299,-0.29915 0.3364,-0.67085 0.1122,-1.11509 -0.2246,-0.44421 -0.5589,-0.66632 -1.0029,-0.66634 l -31.8618,0 c -0.2947,2e-5 -0.5542,0.22213 -0.7785,0.66634 -0.2245,0.44424 -0.1871,0.81594 0.1122,1.11509 2.2255,2.81948 3.0788,6.04917 2.56,9.68907 -0.5192,3.63993 -2.2632,6.42539 -5.2321,8.3564 -9.8048,6.68602 -21.54049,12.92555 -35.20708,18.71861 -2.81955,1.03802 -5.60388,1.07428 -8.353,0.10879 -2.74928,-0.96552 -4.86501,-2.71069 -6.34719,-5.2355 -1.33728,-2.37525 -1.52313,-4.82528 -0.55755,-7.35009 0.96544,-2.52483 2.7106,-4.38332 5.2355,-5.57547 13.21785,-5.49387 25.24815,-11.95324 36.09092,-19.37815 0.2991,-0.14956 0.3739,-0.37281 0.2244,-0.66973 -0.1497,-0.29689 -0.3718,-0.44534 -0.6663,-0.44536 l -11.8105,0 -10.24662,0 c -3.41789,2e-5 -6.35181,-1.22613 -8.80176,-3.67845 -2.45011,-2.45227 -3.67512,-5.38505 -3.67505,-8.79835 l 0,-20.942 c -7e-5,-0.29912 -0.18592,-0.55976 -0.55754,-0.78193 -0.37178,-0.22205 -0.70721,-0.18579 -1.00631,0.10879 -2.37531,1.78149 -5.04858,2.22684 -8.01983,1.33608 -2.97138,-0.89066 -4.97605,-2.74575 -6.01402,-5.56527 -0.74346,-1.93095 -1.89481,-4.97593 -3.45407,-9.13493 -1.55938,-4.15886 -2.63594,-7.05651 -3.22969,-8.69296 -0.14964,-0.14951 -0.33549,-0.2243 -0.55755,-0.22438 -0.22217,8e-5 -0.33322,0.14966 -0.33317,0.44875 l 0.21758,86.67131 c -5e-5,3.11862 -1.07662,5.7545 -3.22969,7.90764 -2.15318,2.15311 -4.78905,3.22967 -7.90764,3.22969 -3.11868,-2e-5 -5.75456,-1.07658 -7.90764,-3.22969 -2.15317,-2.15314 -3.22973,-4.78902 -3.2297,-7.90764 l 0,-67.06198 c -0.14961,-0.14953 -0.37399,-0.14953 -0.67313,0 z m 70.63164,19.8269 26.28629,0 c 1.192,4e-5 1.7881,-0.66856 1.7882,-2.00581 l 0,-13.5919 c -10e-5,-1.18756 -0.5962,-1.78137 -1.7882,-1.78143 l -26.28629,0 c -1.33731,6e-5 -2.00591,0.59387 -2.00581,1.78143 l 0,13.5919 c -1e-4,1.33725 0.6685,2.00585 2.00581,2.00581 z m 0,-33.4188 26.28629,0 c 1.192,7e-5 1.7881,-0.66853 1.7882,-2.00581 l 0,-12.92556 c -10e-5,-1.33712 -0.5962,-2.00572 -1.7882,-2.00581 l -26.28629,0 c -1.33731,9e-5 -2.00591,0.66869 -2.00581,2.00581 l 0,12.92556 c -1e-4,1.33728 0.6685,2.00588 2.00581,2.00581 z m 82.21089,31.41299 0,-13.5919 c -10e-5,-1.18756 -0.6687,-1.78137 -2.0058,-1.78143 l -25.6199,0 c -1.3374,6e-5 -2.006,0.59387 -2.0058,1.78143 l 0,13.5919 c -2e-4,1.33725 0.6684,2.00585 2.0058,2.00581 l 25.6199,0 c 1.3371,4e-5 2.0057,-0.66856 2.0058,-2.00581 z m -2.0058,-48.35017 -25.6199,0 c -1.3374,9e-5 -2.006,0.66869 -2.0058,2.00581 l 0,12.92556 c -2e-4,1.33728 0.6684,2.00588 2.0058,2.00581 l 25.6199,0 c 1.3371,7e-5 2.0057,-0.66853 2.0058,-2.00581 l 0,-12.92556 c -10e-5,-1.33712 -0.6687,-2.00572 -2.0058,-2.00581 z m -23.8385,-60.6026 -33.6432,0 c -1.1877,1.5e-4 -1.7815,0.59623 -1.7814,1.78823 l 0,9.79786 c -10e-5,1.19229 0.5937,1.78837 1.7814,1.78823 l 33.6432,0 c 1.1875,1.4e-4 1.7813,-0.59594 1.7814,-1.78823 l 0,-9.79786 c -10e-5,-1.192 -0.5939,-1.78808 -1.7814,-1.78823 z m -30.0803,32.31051 -50.34919,0 c -1.48687,1.2e-4 -2.82407,-0.55743 -4.01162,-1.67264 -1.18769,-1.11498 -1.7815,-2.48844 -1.78142,-4.12041 -8e-5,-0.59368 -0.29698,-0.89059 -0.89072,-0.89071 l -14.25823,0 c -1.33727,1.2e-4 -1.70896,0.59393 -1.1151,1.78143 9.94965,23.17228 16.85552,39.28899 20.71762,48.35017 0.14951,0.14512 0.29909,0.21765 0.44876,0.21758 0.1495,7e-5 0.2243,-0.14725 0.22437,-0.44196 l 0,-19.38494 c -7e-5,-3.41771 1.22494,-6.38903 3.67505,-8.91395 2.44995,-2.52472 5.38387,-3.78713 8.80176,-3.78724 l 38.53872,0 c 1.192,1.1e-4 1.7881,-0.66849 1.7882,-2.00581 l 0,-7.12571 c -10e-5,-1.33709 -0.5962,-2.00569 -1.7882,-2.00581 z"
         id="path2823"
         style="font-variant:normal;font-stretch:normal;font-family:'Rounded M+ 1m medium';-inkscape-font-specification:'Rounded M+ 1m medium,'" />
      <path
         d="m 1151.9172,907.78792 c 0,3.11863 -1.0777,5.75564 -3.2331,7.91105 -2.1554,2.15538 -4.7924,3.23307 -7.911,3.23309 -3.1187,-2e-5 -5.7545,-1.07771 -7.9077,-3.23309 -2.1531,-2.15541 -3.2297,-4.79242 -3.2296,-7.91105 l 0,-169.32419 c -10e-5,-3.11846 1.0765,-5.75547 3.2296,-7.91104 2.1532,-2.15522 4.789,-3.23291 7.9077,-3.23309 l 0.8907,0 c 2.824,1.8e-4 5.2389,1.00308 7.2447,3.00871 2.0058,2.00598 3.0087,4.42088 3.0087,7.24471 0,1.0382 0.4442,1.40763 1.3327,1.10829 l 2.2302,-0.89071 c 3.4177,-1.18745 6.7596,-1.07527 10.0256,0.33657 3.2659,1.41216 5.5675,3.75226 6.9048,7.02032 4.1611,9.80028 7.3545,17.89376 9.5802,24.28048 0.2991,0.14972 0.5235,0.14972 0.6732,0 l 0,-35.64219 c -10e-5,-2.97341 1.0391,-5.53676 3.1175,-7.69006 2.0782,-2.15295 4.6031,-3.22951 7.5745,-3.22969 2.9712,1.8e-4 5.5334,1.07674 7.6866,3.22969 2.1531,2.1533 3.2296,4.71665 3.2297,7.69006 l 0,36.5397 c -1e-4,0.14519 0.111,0.21772 0.3332,0.21758 0.222,1.4e-4 0.4078,-0.0724 0.5575,-0.21758 4.0115,-8.46731 7.9484,-18.19717 11.8105,-29.1896 0.8883,-2.52466 2.4839,-4.49307 4.7867,-5.90524 2.3026,-1.41183 4.7164,-1.82092 7.2413,-1.22728 2.5247,0.59398 4.4184,1.96858 5.6809,4.12381 1.2623,2.15555 1.5241,4.42087 0.7853,6.79595 -2.6745,8.16843 -6.2396,17.22969 -10.6954,27.18379 -1.4869,3.26835 -3.938,5.60733 -7.3534,7.01693 -3.4157,1.40986 -6.8324,1.52091 -10.2501,0.33317 l -1.1151,-0.44876 c -1.1877,-0.29451 -1.7815,0.15198 -1.7814,1.33947 l 0,5.34429 c -1e-4,1.19227 0.6685,1.78835 2.0058,1.78823 l 17.8211,0 c 2.6743,1.2e-4 4.977,0.96562 6.9082,2.89652 1.9308,1.93113 2.8964,4.23271 2.8965,6.90474 -10e-5,2.67225 -0.9657,4.97383 -2.8965,6.90474 -1.9312,1.93111 -4.2339,2.89662 -6.9082,2.89652 l -12.028,0 c -1.1878,10e-5 -1.4099,0.52138 -0.6664,1.56386 4.1566,6.83116 11.1373,18.56456 20.942,35.20023 0.5937,0.89304 1.0379,0.81824 1.3327,-0.22438 4.0115,-21.68531 6.0921,-52.43194 6.2418,-92.23997 -10e-5,-3.56271 1.1512,-6.68134 3.4541,-9.35591 2.3025,-2.67424 5.2353,-4.15877 8.7983,-4.45357 21.241,-2.23002 40.4764,-5.86993 57.7061,-10.91976 2.8238,-0.8928 5.5719,-0.63329 8.2442,0.77853 2.6719,1.41217 4.3797,3.53017 5.1233,6.35399 0.7432,2.96922 0.3726,5.79094 -1.1117,8.46519 -1.4847,2.67457 -3.7138,4.456 -6.6871,5.34429 -15.1492,4.45599 -32.3787,7.799 -51.6887,10.02904 -1.1878,0.29478 -1.7816,1.03591 -1.7814,2.22339 -0.4444,17.97307 -0.6665,27.40602 -0.6664,28.29889 -10e-5,1.18773 0.5937,1.78154 1.7815,1.78143 l 55.9246,0 c 2.9689,1.1e-4 5.4926,1.07667 7.5711,3.22969 2.0781,2.15323 3.1173,4.64179 3.1175,7.46568 -2e-4,2.8241 -1.0394,5.27526 -3.1175,7.3535 -2.0785,2.07843 -4.6022,3.11759 -7.5711,3.1175 l -8.0232,0 c -1.3374,9e-5 -2.006,0.66869 -2.0058,2.00581 l 0,96.91792 c -2e-4,3.11863 -1.1142,5.7919 -3.3419,8.01983 -2.2281,2.22791 -4.9014,3.34187 -8.0198,3.34188 -3.1188,-10e-6 -5.8295,-1.11397 -8.132,-3.34188 -2.3029,-2.22793 -3.4543,-4.9012 -3.4541,-8.01983 l 0,-96.91792 c -2e-4,-1.33712 -0.594,-2.00572 -1.7814,-2.00581 l -22.5059,0 c -1.3373,9e-5 -2.0059,0.5939 -2.0058,1.78143 -1.7816,23.02266 -4.8628,42.10955 -9.2437,57.26072 -4.3812,15.15123 -10.359,28.66719 -17.9333,40.54792 -1.9311,2.82398 -4.5681,4.42183 -7.911,4.79354 -3.3432,0.37168 -6.2771,-0.55756 -8.8018,-2.78774 l -6.0174,-5.34428 c -0.8886,-0.89299 -2.0014,-1.33948 -3.3385,-1.33948 l -52.8037,0 c -1.1877,0 -1.7815,0.59381 -1.7815,1.78143 z m 78.4237,-53.47008 -0.6663,0.44876 c -2.525,2.07611 -5.3841,2.81724 -8.5774,2.22339 -3.1935,-0.59377 -5.5336,-2.3004 -7.0203,-5.11991 -0.2993,-0.44871 -1.5628,-2.75255 -3.7907,-6.91154 -2.228,-4.15887 -3.9357,-7.35116 -5.1233,-9.57688 -0.1497,-0.14952 -0.3355,-0.22431 -0.5575,-0.22438 -0.2222,7e-5 -0.3333,0.14965 -0.3332,0.44875 l 0,36.31533 c -1e-4,2.96908 -1.0766,5.53016 -3.2297,7.68326 -2.1532,2.15315 -4.7154,3.22971 -7.6866,3.22969 -2.9714,2e-5 -5.4963,-1.07654 -7.5745,-3.22969 -2.0784,-2.1531 -3.1176,-4.71418 -3.1175,-7.68326 l 0,-31.19542 c -10e-5,-0.29457 -0.1123,-0.44189 -0.3366,-0.44195 -0.2244,6e-5 -0.4114,0.0726 -0.5609,0.21758 -3.8576,8.17287 -8.2386,15.60002 -13.1432,22.28146 -1.7815,2.52487 -4.1952,3.67622 -7.2413,3.45407 -3.0461,-0.22207 -5.3851,-1.67033 -7.0169,-4.34478 l -1.5571,-2.67215 c -0.1496,-0.14954 -0.3354,-0.22433 -0.5575,-0.22437 -0.2222,4e-5 -0.3332,0.14963 -0.3332,0.44875 l 0,25.84433 c 0,1.33722 0.5938,2.00582 1.7815,2.00581 l 63.7167,0 c 1.4866,1e-5 2.4521,-0.5938 2.8965,-1.78143 4.3107,-8.7666 7.9506,-18.94295 10.9197,-30.52908 0.1495,-0.29459 0.1121,-0.55297 -0.1122,-0.77513 -0.2245,-0.22206 -0.484,-0.1858 -0.7785,0.10879 z m -67.062,-82.43531 c -2.5248,-6.68588 -6.09,-15.30065 -10.6953,-25.84432 -0.1497,-0.14943 -0.2981,-0.22422 -0.4454,-0.22438 -0.1474,1.6e-4 -0.221,0.14974 -0.221,0.44876 l 0,102.03783 c 0,0.29923 0.1484,0.48621 0.4454,0.56095 0.2968,0.0748 0.5926,-0.0373 0.8873,-0.33657 10.3984,-12.47447 18.6415,-25.76719 24.7292,-39.87818 0.4487,-1.04248 0.079,-1.56376 -1.1083,-1.56386 l -10.6953,0 c -2.6745,10e-5 -4.9772,-0.96541 -6.9082,-2.89652 -1.931,-1.93091 -2.8965,-4.23249 -2.8965,-6.90474 0,-2.67203 0.9655,-4.97361 2.8965,-6.90474 1.931,-1.9309 4.2337,-2.8964 6.9082,-2.89652 l 14.4826,0 c 1.3371,1.2e-4 2.0057,-0.59596 2.0058,-1.78823 l 0,-5.34429 c -10e-5,-1.18749 -0.5962,-1.63398 -1.7883,-1.33947 l -1.3326,0.44876 c -3.2683,1.18774 -6.4991,1.03929 -9.6925,-0.44536 -3.1935,-1.4844 -5.384,-3.86077 -6.5716,-7.12912 z"
         id="path2825"
         style="font-variant:normal;font-stretch:normal;font-family:'Rounded M+ 1m medium';-inkscape-font-specification:'Rounded M+ 1m medium,'" />
      <path
         d="m 1494.1353,811.09438 c -0.594,0.5939 -0.4444,0.89081 0.4487,0.89072 l 47.0107,0 c 2.5247,9e-5 4.6778,0.89193 6.4594,2.67554 1.7812,1.78378 2.6719,3.93804 2.6722,6.46278 -3e-4,6.38693 -1.6344,12.10518 -4.9024,17.15476 -29.4096,43.96461 -79.8358,72.48332 -151.2787,85.55621 -3.1187,0.59379 -6.0152,0.0736 -8.6896,-1.56045 -2.6744,-1.63413 -4.4558,-3.93797 -5.3442,-6.91154 -0.8931,-2.66989 -0.5599,-5.23097 0.9995,-7.68327 1.5592,-2.4523 3.7509,-3.90056 6.5749,-4.34478 27.3288,-4.90006 51.1673,-12.0303 71.5156,-21.39075 0.8928,-0.59379 0.9676,-1.26239 0.2244,-2.00581 l -12.7012,-11.36171 c -2.2258,-1.93098 -3.3386,-4.38214 -3.3385,-7.3535 -10e-5,-2.97127 1.0379,-5.42016 3.1141,-7.34669 2.3797,-2.08055 5.1289,-3.19565 8.2476,-3.34528 3.1185,-0.14954 5.8655,0.81597 8.2408,2.89652 1.7813,1.63189 7.427,6.75633 16.9372,15.37333 1.1875,0.89301 2.2255,0.9678 3.1141,0.22438 16.4905,-10.54802 30.1572,-22.95228 41.0001,-37.21284 0.5936,-0.88838 0.3692,-1.3326 -0.6732,-1.33267 l -52.3549,0 c -1.487,7e-5 -2.6021,0.29697 -3.3453,0.89071 -21.0917,14.26056 -43.6678,25.92143 -67.7283,34.98265 -2.9692,1.03807 -5.9393,1.03694 -8.9106,-0.003 -2.9714,-1.04026 -5.2752,-2.97014 -6.9115,-5.78964 -1.4823,-2.52932 -1.7044,-5.09267 -0.6664,-7.69007 1.038,-2.5973 2.8942,-4.34246 5.5687,-5.2355 35.6512,-12.32942 63.7982,-27.48062 84.4411,-45.45365 5.7929,-4.89995 11.6608,-5.86546 17.6035,-2.89652 l 0.6664,0.44876 c 2.23,1.18772 3.5672,2.97028 4.0116,5.34769 0.444,2.3776 -0.2246,4.38227 -2.0058,6.01402 z m -140.8077,18.71861 c -0.7435,-2.52475 -0.4466,-4.93852 0.8907,-7.24131 1.3372,-2.30263 3.343,-3.67836 6.0174,-4.1272 24.6544,-4.45575 46.4145,-10.91513 65.2805,-19.37815 1.1876,-0.5937 1.4097,-1.2623 0.6664,-2.00581 -1.3373,-1.18751 -3.3794,-3.00747 -6.1262,-5.45987 -2.747,-2.45219 -4.7891,-4.27214 -6.1262,-5.45988 -2.0807,-1.9309 -3.121,-4.23361 -3.1209,-6.90814 -10e-5,-2.67428 1.0402,-4.97699 3.1209,-6.90814 2.2255,-2.07593 4.8614,-3.11397 7.9076,-3.1141 3.046,1.3e-4 5.7567,1.03817 8.132,3.1141 3.4177,2.97371 8.5422,7.57913 15.3733,13.81628 1.1876,0.8931 2.2279,1.04268 3.1209,0.44876 14.9993,-9.5099 27.4761,-20.79907 37.4305,-33.86756 0.7432,-1.18747 0.5188,-1.78128 -0.6732,-1.78143 l -49.6828,0 c -0.8886,1.5e-4 -2.0762,0.44438 -3.5629,1.33267 -18.1226,12.03499 -38.1738,22.13654 -60.1538,30.3047 -2.9736,1.03815 -5.8713,1.03702 -8.693,-0.003 -2.8217,-1.04018 -5.0485,-2.89526 -6.6803,-5.56527 -1.3373,-2.37964 -1.5231,-4.86933 -0.5576,-7.46908 0.9655,-2.59948 2.7107,-4.34351 5.2355,-5.2321 33.2714,-12.03016 58.9661,-25.69684 77.0842,-41.00008 5.3487,-4.6007 11.0693,-5.41662 17.1616,-2.44776 l 0.2176,0 c 2.23,1.1878 3.6046,3.04402 4.1238,5.56867 0.5189,2.525 -0.1871,4.60559 -2.118,6.2418 -0.1497,0.29481 -0.2245,0.55432 -0.2244,0.77852 -10e-5,0.22455 0.1495,0.33674 0.4488,0.33657 l 44.3385,0 c 2.3751,1.7e-4 4.4171,0.85349 6.1262,2.55996 1.7088,1.7068 2.5632,3.75 2.5634,6.12961 -2e-4,6.08784 -1.487,11.3596 -4.4604,15.81529 -13.3677,19.90408 -31.897,36.65086 -55.5881,50.24039 -23.6913,13.58971 -51.8757,23.35583 -84.5533,29.29839 -2.8195,0.59388 -5.4553,0.11112 -7.9076,-1.44826 -2.4523,-1.55925 -4.1227,-3.74864 -5.0111,-6.56817 z"
         id="path2827"
         style="font-variant:normal;font-stretch:normal;font-family:'Rounded M+ 1m medium';-inkscape-font-specification:'Rounded M+ 1m medium,'" />
      <path
         d="m 1667.6954,915.58678 c -24.2103,-10e-6 -41.0307,-6.05256 -50.4614,-18.15766 -9.4307,-12.10509 -14.146,-34.27435 -14.146,-66.50784 0,-24.95351 0.7411,-54.36293 2.2234,-88.22835 0.1495,-3.41311 1.4505,-6.2711 3.9028,-8.57398 2.4523,-2.30254 5.3114,-3.38024 8.5774,-3.23309 3.2659,0.14749 6.0128,1.4099 8.2408,3.78724 2.2279,2.37767 3.2693,5.20053 3.1243,8.46859 -1.4869,33.42119 -2.2302,62.68103 -2.2302,87.77959 0,13.07294 0.7422,23.69352 2.2268,31.86175 1.4845,8.16832 4.0093,14.51777 7.5745,19.04838 3.565,4.53065 7.724,7.57562 12.4768,9.13492 4.7526,1.55933 10.9162,2.33899 18.4908,2.33898 27.9271,1e-5 50.2833,-18.78884 67.0688,-56.3666 1.1874,-2.8194 3.2295,-4.82407 6.1262,-6.01403 2.8963,-1.18981 5.7543,-1.26347 8.574,-0.22098 2.9734,1.18769 5.0914,3.19237 6.354,6.01403 1.2622,2.82179 1.2996,5.64465 0.1122,8.46859 -9.9545,23.46685 -22.4698,41.06695 -37.546,52.80034 -15.0766,11.73341 -31.973,17.60011 -50.6892,17.60012 z"
         id="path2829"
         style="font-variant:normal;font-stretch:normal;font-family:'Rounded M+ 1m medium';-inkscape-font-specification:'Rounded M+ 1m medium,'" />
    </g>
  </g>
</svg>
