<?xml version="1.0" encoding="UTF-8" standalone="no"?>
<!-- Created with Inkscape (http://www.inkscape.org/) -->

<svg
   xmlns:osb="http://www.openswatchbook.org/uri/2009/osb"
   xmlns:dc="http://purl.org/dc/elements/1.1/"
   xmlns:cc="http://creativecommons.org/ns#"
   xmlns:rdf="http://www.w3.org/1999/02/22-rdf-syntax-ns#"
   xmlns:svg="http://www.w3.org/2000/svg"
   xmlns="http://www.w3.org/2000/svg"
   xmlns:xlink="http://www.w3.org/1999/xlink"
   xmlns:sodipodi="http://sodipodi.sourceforge.net/DTD/sodipodi-0.dtd"
   xmlns:inkscape="http://www.inkscape.org/namespaces/inkscape"
   version="1.1"
   width="1800.4003"
   height="300.40027"
   id="svg2"
   xml:space="preserve"
   inkscape:version="0.48.4 r9939"
   sodipodi:docname="Ajax.svg"><sodipodi:namedview
     pagecolor="#ffffff"
     bordercolor="#666666"
     borderopacity="1"
     objecttolerance="10"
     gridtolerance="10"
     guidetolerance="10"
     inkscape:pageopacity="0"
     inkscape:pageshadow="2"
     inkscape:window-width="1280"
     inkscape:window-height="1001"
     id="namedview28"
     showgrid="false"
     fit-margin-top="0.2"
     fit-margin-left="0.2"
     fit-margin-right="0.2"
     fit-margin-bottom="0.2"
     inkscape:zoom="0.40989584"
     inkscape:cx="913.57296"
     inkscape:cy="8.2990351"
     inkscape:window-x="-8"
     inkscape:window-y="-8"
     inkscape:window-maximized="1"
     inkscape:current-layer="svg2" /><metadata
     id="metadata8"><rdf:RDF><cc:Work
         rdf:about=""><dc:format>image/svg+xml</dc:format><dc:type
           rdf:resource="http://purl.org/dc/dcmitype/StillImage" /><dc:title /></cc:Work></rdf:RDF></metadata><defs
     id="defs6"><linearGradient
       id="linearGradient15703"
       osb:paint="solid"><stop
         style="stop-color:#ffffff;stop-opacity:1;"
         offset="0"
         id="stop15705" /></linearGradient><linearGradient
       inkscape:collect="always"
       xlink:href="#linearGradient15703"
       id="linearGradient15707"
       x1="-37.125"
       y1="465.375"
       x2="967.87512"
       y2="465.375"
       gradientUnits="userSpaceOnUse"
       gradientTransform="translate(961.6578,56.04101)" /></defs><g
     id="g2991"
     transform="matrix(34.167339,0,0,34.167339,14.96955,-265.98947)" /><path
     style="font-size:medium;font-style:normal;font-variant:normal;font-weight:normal;font-stretch:normal;text-indent:0;text-align:start;text-decoration:none;line-height:normal;letter-spacing:normal;word-spacing:normal;text-transform:none;direction:ltr;block-progression:tb;writing-mode:lr-tb;text-anchor:start;baseline-shift:baseline;color:#000000;fill:#000000;fill-opacity:1;fill-rule:nonzero;stroke:none;stroke-width:30;marker:none;visibility:visible;display:inline;overflow:visible;enable-background:accumulate;font-family:Sans;-inkscape-font-specification:Sans"
     d="m 1743.544,300.20026 c 31.1185,0 56.6563,-25.5377 56.6563,-56.6563 l 0,-186.68776 C 1800.2003,25.7364 1774.6619,0.2 1743.544,0.2 L 56.8563,0.2 C 25.7386,0.2 0.2,25.7364 0.2,56.8562 l 0,186.68776 c 0,31.1186 25.5377,56.6563 56.6563,56.6563 z"
     id="path14428"
     inkscape:connector-curvature="0"
     sodipodi:nodetypes="sssssssss" /><path
     inkscape:connector-curvature="0"
     d="m 56.8668,285.20026 c -23.012,0 -41.6668,-18.6548 -41.6668,-41.6668 l 0,-186.66706 c 0,-23.014 18.6548,-41.6668 41.6668,-41.6668 l 1686.6669,0 c 23.0119,0 41.6666,18.6528 41.6666,41.6668 l 0,186.66706 c 0,23.012 -18.6547,41.6668 -41.6666,41.6668 z"
     style="fill:#ffffff;fill-opacity:1;fill-rule:nonzero;stroke:none"
     id="path14430"
     sodipodi:nodetypes="sssssssss" /><path
     inkscape:connector-curvature="0"
     d="m 431.58953,129.89666 c 7.32917,14.50108 14.91026,31.58588 22.7433,51.25446 1.16968,3.16881 1.0883,6.33629 -0.24414,9.50244 -1.33277,3.16627 -3.66738,5.41567 -7.00381,6.74823 -3.16383,1.1648 -6.33004,1.03891 -9.49863,-0.37765 -3.16891,-1.41649 -5.41958,-3.79051 -6.75204,-7.12207 -7.1667,-18.33598 -14.66642,-34.91978 -22.49916,-49.75147 -1.66843,-3.16865 -1.91893,-6.33612 -0.7515,-9.50243 1.16717,-3.1661 3.33393,-5.49943 6.50027,-7 3.16607,-1.50033 6.45817,-1.62496 9.87629,-0.37384 3.41783,1.25133 5.96097,3.45878 7.62942,6.62233 z m -71.00703,75.50077 c -10.49815,17.00345 -24.83127,32.58783 -42.99942,46.75309 -2.83309,2.1668 -5.9993,2.95891 -9.49863,2.37661 -3.49938,-0.58241 -6.33243,-2.37401 -8.49917,-5.37493 -2.16677,-3.00091 -2.95896,-6.25112 -2.37657,-9.75043 0.58236,-3.49932 2.29263,-6.41633 5.13079,-8.75094 18.33091,-14.66882 32.07912,-30.66771 41.24466,-47.99672 0.83408,-1.50038 0.75016,-2.75161 -0.25178,-3.75367 -10.49814,-13.33107 -22.74589,-27.58027 -36.74329,-42.74766 -2.33462,-2.50233 -3.45997,-5.46127 -3.37603,-8.87683 0.0839,-3.41532 1.37583,-6.29033 3.87576,-8.62506 2.49988,-2.33448 5.49951,-3.45981 8.99889,-3.37601 3.49932,0.084 6.41631,1.37468 8.75094,3.87192 10.33019,11.1696 19.82882,22.00336 28.4959,32.50134 0.16778,0.16794 0.37632,0.29382 0.62561,0.37766 0.24917,0.084 0.54035,0.0421 0.87357,-0.12589 0.33308,-0.16775 0.49965,-0.41698 0.49972,-0.74769 3.66713,-14.00242 6.00174,-32.00275 7.00382,-54.001039 -8e-5,-1.332465 -0.66639,-1.998768 -1.99891,-1.998908 l -54.25282,0 c -3.33153,1.4e-4 -6.08066,-1.125194 -8.2474,-3.376022 -2.16677,-2.250529 -3.25015,-4.960239 -3.25014,-8.129151 -1e-5,-3.331353 1.12406,-6.122453 3.37221,-8.373292 2.24812,-2.250508 4.95656,-3.375853 8.12533,-3.376023 l 28.25175,0 c 1.50041,1.7e-4 2.25063,-0.666132 2.25068,-1.998907 l 0,-19.500804 c -5e-5,-3.829774 1.29186,-7.036676 3.87574,-9.620706 2.58378,-2.58363 5.70675,-3.875545 9.36894,-3.875745 3.83498,2e-4 7.04442,1.332805 9.62832,3.997815 2.58375,2.66541 3.87567,5.831622 3.87575,9.498636 l 0,19.500804 c -8e-5,1.332775 0.75014,1.999077 2.25068,1.998907 l 33.75256,0 c 1.66309,1.7e-4 3.161,0.667743 4.49372,2.002728 1.33249,1.335315 1.99879,2.918421 1.99892,4.749318 -1.3e-4,0.666462 0.33557,0.999614 1.00708,0.999454 l 68.24517,0 c 1.33242,1.6e-4 1.99872,-0.750063 1.99891,-2.250679 l 0,-25.001624 c -1.9e-4,-3.667014 1.33368,-6.833226 4.00163,-9.498636 2.66755,-2.66501 5.83504,-3.997615 9.50245,-3.997815 3.66699,2e-4 6.83321,1.332805 9.49864,3.997815 2.66499,2.66541 3.99759,5.831622 3.99781,9.498636 l 0,25.001624 c -2.2e-4,1.500616 0.66608,2.250839 1.99891,2.250679 l 6.25612,0 c 3.33127,1.6e-4 6.12238,1.125494 8.37328,3.376012 2.25045,2.250839 3.37579,4.959279 3.37603,8.125341 -2.4e-4,3.166362 -1.12558,5.874802 -3.37603,8.125331 -2.2509,2.250831 -5.04201,3.376161 -8.37328,3.376021 l -6.25612,0 c -1.33283,1.4e-4 -1.99913,0.75036 -1.99891,2.25068 l 0,120.99502 c -2.2e-4,6.00185 -0.12483,10.75237 -0.37384,14.25178 -0.24945,3.49931 -0.87379,6.74943 -1.87303,9.75034 -0.99967,3.00091 -2.16697,5.16772 -3.5019,6.50032 -1.33537,1.33261 -3.54407,2.49861 -6.62616,3.49812 -3.08249,0.9994 -6.41527,1.625 -9.99835,1.8768 -3.58349,0.2517 -8.4574,0.3776 -14.62179,0.3777 -6.66828,-1e-4 -15.66846,-0.2518 -27.00052,-0.7554 -3.33675,-0.1627 -6.21303,-1.4534 -8.62887,-3.87191 -2.41613,-2.41851 -3.70678,-5.21092 -3.87194,-8.37704 -0.16544,-3.16631 0.83402,-5.83272 2.99837,-7.99953 2.16406,-2.1667 4.83053,-3.16621 7.99944,-2.99831 10.33516,0.49841 18.33587,0.74771 24.00216,0.74771 6.99854,0 11.16421,-0.58241 12.49699,-1.74721 1.33242,-1.1647 1.99872,-4.91582 1.99891,-11.25337 l 0,-120.99502 c -1.9e-4,-1.50032 -0.66649,-2.25054 -1.99891,-2.25068 l -64.49912,0 c -1.66843,1.4e-4 -3.16888,-0.62547 -4.50136,-1.87684 -1.33273,-1.25108 -1.99904,-2.792216 -1.99892,-4.623423 -1.2e-4,-0.666162 -0.33327,-0.999314 -0.99945,-0.999454 l -12.25284,0 c -1.50056,1.4e-4 -2.25079,0.750373 -2.25069,2.250679 -1.16485,30.166858 -5.74759,56.249268 -13.74821,78.247358 -0.49855,1.50051 -0.3307,2.83312 0.50354,3.99781 9.66383,12.83274 18.49615,25.33481 26.49698,37.50625 1.99878,2.99585 2.70706,6.2447 2.12479,9.74659 -0.5825,3.50187 -2.29022,6.33628 -5.12316,8.50299 -2.83317,2.16671 -5.87475,2.95771 -9.12478,2.37271 -3.25023,-0.5849 -5.79083,-2.29391 -7.62179,-5.12692 -5.005,-7.66503 -11.33995,-16.83049 -19.00489,-27.49645 -0.997,-1.33766 -1.83114,-1.25628 -2.50245,0.24414 z"
     id="path2817"
     style="font-size:250px;font-style:normal;font-variant:normal;font-weight:normal;font-stretch:normal;text-align:center;text-anchor:middle;fill:#000000;fill-opacity:1;stroke:none;font-family:'Rounded M+ 1m medium';-inkscape-font-specification:'Rounded M+ 1m medium,'" /><path
     inkscape:connector-curvature="0"
     d="m 580.83627,92.398053 0,154.999347 c -5e-5,3.66721 -1.29196,6.83472 -3.87575,9.50243 -2.58387,2.66771 -5.79077,4.00162 -9.6207,4.00162 -3.66724,0 -6.79276,-1.29191 -9.37657,-3.87572 -2.58385,-2.58381 -3.87576,-5.79332 -3.87574,-9.62833 l 0,-165.497437 c -2e-5,-3.834894 1.37455,-7.168947 4.12371,-10.002178 2.74911,-2.83288 6.0412,-4.249416 9.87628,-4.249586 l 56.49588,0 c 1.50035,1.7e-4 2.50235,-0.666132 3.00599,-1.998907 2.83296,-5.833782 5.83131,-12.667198 8.99507,-20.500258 1.50036,-3.834864 3.95957,-6.751845 7.37766,-8.750953 3.41786,-1.998697 7.12577,-2.74893 11.12369,-2.250678 3.49924,0.503752 6.12376,2.254698 7.87357,5.25286 1.74955,2.998561 1.95809,6.082113 0.62561,9.250675 -2.49749,6.001992 -4.9974,11.668114 -7.49971,16.998354 -0.66644,1.332775 -0.24936,1.999077 1.25122,1.998907 l 93.75033,0 c 3.83483,1.7e-4 7.16888,1.416706 10.00216,4.249586 2.83283,2.833231 4.24936,6.167284 4.24959,10.002178 l 0,141.502907 c -2.3e-4,16.4999 -1.79187,26.62414 -5.37492,30.37275 -3.58352,3.74852 -12.87486,5.62282 -27.8741,5.62282 -5.83415,0 -15.75239,-0.2492 -29.75474,-0.7476 -3.16383,-0.1679 -5.91296,-1.4178 -8.2474,-3.74991 -2.33476,-2.33201 -3.58471,-5.08122 -3.74987,-8.24743 -0.16546,-3.16622 0.83527,-5.83263 3.00219,-7.99943 2.16659,-2.16671 4.83179,-3.16872 7.99563,-3.00602 12.50189,0.50361 20.5026,0.75541 24.00216,0.75531 6.16437,1e-4 9.87227,-0.58361 11.1237,-1.75091 1.25101,-1.1673 1.87663,-4.91712 1.87684,-11.24958 l 0,-131.004817 c -2.1e-4,-1.500306 -0.66652,-2.250529 -1.99891,-2.250689 l -153.25219,0 c -1.50051,1.6e-4 -2.25073,0.750383 -2.25068,2.250689 z m 40.49696,22.750937 76.50784,0 c 3.82981,1.3e-4 7.16132,1.41665 9.99455,4.24958 2.83288,2.83319 4.24941,6.16724 4.24959,10.00218 l 0,59.74601 c -1.8e-4,3.8351 -1.41671,7.16916 -4.24959,10.00217 -2.83323,2.8331 -6.16474,4.24962 -9.99455,4.24959 l -63.00377,0 c -1.50055,3e-5 -2.25076,0.66633 -2.25066,1.99891 l 0,5.0049 c -10e-5,3.49939 -1.25006,6.54098 -3.74987,9.12479 -2.5,2.58385 -5.49963,3.87577 -8.9989,3.87575 -3.49944,2e-5 -6.49908,-1.2919 -8.99891,-3.87575 -2.49998,-2.58381 -3.74993,-5.6254 -3.74986,-9.12479 l 0,-81.00158 c -7e-5,-3.83494 1.41646,-7.16899 4.2496,-10.00218 2.83298,-2.83293 6.16448,-4.24945 9.99453,-4.24958 z m 65.25444,65.25445 0,-42.50353 c -1.5e-4,-1.33249 -0.75037,-1.99879 -2.25068,-1.9989 l -49.49969,0 c -1.50055,1.1e-4 -2.25076,0.66641 -2.25066,1.9989 l 0,42.50353 c -10e-5,1.50051 0.75011,2.25073 2.25066,2.25067 l 49.49969,0 c 1.50031,6e-5 2.25053,-0.75016 2.25068,-2.25067 z"
     id="path2819"
     style="font-size:250px;font-style:normal;font-variant:normal;font-weight:normal;font-stretch:normal;text-align:center;text-anchor:middle;fill:#000000;fill-opacity:1;stroke:none;font-family:'Rounded M+ 1m medium';-inkscape-font-specification:'Rounded M+ 1m medium,'" /><path
     inkscape:connector-curvature="0"
     d="m 895.83982,252.65412 0,-14.75536 c -1.1e-4,-1.3326 -0.75034,-1.99891 -2.25068,-1.99891 l -86.9983,0 c -2.83308,0 -5.33298,-1.0834 -7.49971,-3.25011 -2.16677,-2.16681 -3.25016,-4.66662 -3.25015,-7.49974 -10e-6,-2.83304 1.08338,-5.29098 3.25015,-7.37383 2.16673,-2.08281 4.66663,-3.12423 7.49971,-3.12426 l 86.9983,0 c 1.50034,3e-5 2.25057,-0.75019 2.25068,-2.25067 l 0,-14.50354 c -1.1e-4,-1.33255 -0.75034,-1.99886 -2.25068,-1.99891 l -51.00269,0 -11.24575,0 c -3.83511,5e-5 -7.16916,-1.41648 -10.00218,-4.24958 -2.83309,-2.83301 -4.24962,-6.16707 -4.24959,-10.00218 l 0,-69.24463 c -3e-5,-3.83493 1.4165,-7.12702 4.24959,-9.87629 2.83302,-2.748999 6.16707,-4.123564 10.00218,-4.123704 l 62.24844,0 c 1.50034,1.4e-4 2.25057,-0.750083 2.25068,-2.250679 l 0,-13.25231 c -1.1e-4,-1.332445 -0.75034,-1.998748 -2.25068,-1.998908 l -84.50348,0 c -2.83308,1.6e-4 -5.33298,-1.083214 -7.49972,-3.250132 -2.16676,-2.166598 -3.25015,-4.666497 -3.25013,-7.499728 -2e-5,-2.832881 1.08337,-5.33279 3.25013,-7.499718 2.16674,-2.166579 4.66664,-3.249953 7.49972,-3.250143 l 84.50348,0 c 1.50034,1.9e-4 2.25057,-0.666112 2.25068,-1.998907 l 0,-7.255578 c -1.1e-4,-3.829774 1.37446,-7.078636 4.12371,-9.746586 2.74901,-2.667551 5.95718,-4.001436 9.62451,-4.001636 3.66707,2e-4 6.87524,1.334085 9.62451,4.001636 2.749,2.66795 4.12356,5.916812 4.1237,9.746586 l 0,7.255578 c -1.4e-4,1.332795 0.75009,1.999097 2.25068,1.998907 l 84.50347,0 c 2.8328,1.9e-4 5.3326,1.083564 7.4996,3.250143 2.1665,2.166928 3.2499,4.666837 3.2501,7.499718 -2e-4,2.833231 -1.0836,5.33313 -3.2501,7.499728 -2.167,2.166918 -4.6668,3.250292 -7.4996,3.250132 l -84.50347,0 c -1.50059,1.6e-4 -2.25082,0.666463 -2.25068,1.998908 l 0,13.25231 c -1.4e-4,1.500596 0.75009,2.250819 2.25068,2.250679 l 62.24846,0 c 3.83484,1.4e-4 7.16889,1.374705 10.00216,4.123704 2.83285,2.74927 4.24935,6.04136 4.24955,9.87629 l 0,69.24463 c -2e-4,3.83511 -1.4167,7.16917 -4.24955,10.00218 -2.83327,2.8331 -6.16732,4.24963 -10.00216,4.24958 l -62.24846,0 c -1.50059,5e-5 -2.25082,0.66636 -2.25068,1.99891 l 0,14.50354 c -1.4e-4,1.50048 0.75009,2.2507 2.25068,2.25067 l 86.99827,0 c 2.8328,3e-5 5.3327,1.04145 7.4996,3.12426 2.1665,2.08285 3.25,4.54079 3.2503,7.37383 -3e-4,2.83312 -1.0838,5.33293 -3.2503,7.49974 -2.1669,2.16671 -4.6668,3.25011 -7.4996,3.25011 l -86.99827,0 c -1.50059,0 -2.25082,0.66631 -2.25068,1.99891 l 0,14.75536 c -1.4e-4,3.82991 -1.3747,7.07872 -4.1237,9.74653 -2.74927,2.66771 -5.95744,4.00162 -9.62451,4.00162 -3.66733,0 -6.8755,-1.33391 -9.62451,-4.00162 -2.74925,-2.66781 -4.12382,-5.91662 -4.12371,-9.74653 z m 80.7498,-79.00272 0,-15.75476 c -1.9e-4,-1.33252 -0.75043,-1.99883 -2.25068,-1.99891 l -48.75201,0 c -1.50059,8e-5 -2.25082,0.66639 -2.25068,1.99891 l 0,15.75476 c -1.4e-4,1.50052 0.75009,2.25074 2.25068,2.25068 l 48.75201,0 c 1.50025,6e-5 2.25049,-0.75016 2.25068,-2.25068 z m -2.25068,-55.25228 -48.75201,0 c -1.50059,1.3e-4 -2.25082,0.66643 -2.25068,1.99891 l 0,14.50352 c -1.4e-4,1.33272 0.75009,1.99902 2.25068,1.99891 l 48.75201,0 c 1.50025,1.1e-4 2.25049,-0.66619 2.25068,-1.99891 l 0,-14.50352 c -1.9e-4,-1.33248 -0.75043,-1.99878 -2.25068,-1.99891 z m -131.75249,1.99891 0,14.50352 c -5e-5,1.33272 0.75017,1.99902 2.25069,1.99891 l 48.752,0 c 1.50034,1.1e-4 2.25057,-0.66619 2.25068,-1.99891 l 0,-14.50352 c -1.1e-4,-1.33248 -0.75034,-1.99878 -2.25068,-1.99891 l -48.752,0 c -1.50052,1.3e-4 -2.25074,0.66643 -2.25069,1.99891 z m 2.25069,55.50405 48.752,0 c 1.50034,6e-5 2.25057,-0.75016 2.25068,-2.25068 l 0,-15.75476 c -1.1e-4,-1.33252 -0.75034,-1.99883 -2.25068,-1.99891 l -48.752,0 c -1.50052,8e-5 -2.25074,0.66639 -2.25069,1.99891 l 0,15.75476 c -5e-5,1.50052 0.75017,2.25074 2.25069,2.25068 z"
     id="path2821"
     style="font-size:250px;font-style:normal;font-variant:normal;font-weight:normal;font-stretch:normal;text-align:center;text-anchor:middle;fill:#000000;fill-opacity:1;stroke:none;font-family:'Rounded M+ 1m medium';-inkscape-font-specification:'Rounded M+ 1m medium,'" /><path
     inkscape:connector-curvature="0"
     d="m 1211.0875,137.89991 c -0.6664,0.66642 -0.4986,0.99957 0.5036,0.99947 l 52.7498,0 c 2.8328,1e-4 5.2488,1.00082 7.2479,3.00217 1.9987,2.00155 2.9981,4.41881 2.9984,7.25177 -3e-4,7.16665 -1.8339,13.583 -5.5008,19.24903 -33,49.33188 -89.5824,81.33216 -169.7471,96.00101 -3.4994,0.6663 -6.7495,0.083 -9.7504,-1.7509 -3.0009,-1.83361 -4.9998,-4.41872 -5.9967,-7.75533 -1.002,-2.99581 -0.6282,-5.86963 1.1215,-8.62124 1.7497,-2.75171 4.2089,-4.37671 7.3777,-4.87521 30.6651,-5.49823 57.4138,-13.49896 80.2462,-24.00217 1.0019,-0.66628 1.0858,-1.4165 0.2518,-2.25068 l -14.2517,-12.74876 c -2.4975,-2.16672 -3.7463,-4.91712 -3.7461,-8.25122 -2e-4,-3.33402 1.1647,-6.08188 3.4943,-8.24359 2.6702,-2.33455 5.755,-3.58578 9.2545,-3.75369 3.4992,-0.16778 6.5815,0.9156 9.2468,3.25014 1.9988,1.83111 8.3338,7.58115 19.0049,17.25013 1.3325,1.00203 2.4972,1.08595 3.4943,0.25177 18.5037,-11.83573 33.8388,-25.75433 46.0054,-41.75584 0.6661,-0.99683 0.4144,-1.49528 -0.7553,-1.49536 l -58.7465,0 c -1.6684,8e-5 -2.9197,0.33323 -3.7537,0.99945 -23.6666,16.00151 -48.9988,29.08596 -75.9967,39.25338 -3.3315,1.1648 -6.6644,1.16353 -9.9984,-0.004 -3.3341,-1.16727 -5.9192,-3.33274 -7.7553,-6.49646 -1.6632,-2.83809 -1.9125,-5.71438 -0.7476,-8.62888 1.1647,-2.91437 3.2475,-4.87259 6.2484,-5.87465 40.0036,-13.83461 71.5868,-30.8355 94.7499,-51.00268 6.5001,-5.49815 13.0842,-6.58154 19.7525,-3.25014 l 0.7478,0.50355 c 2.5022,1.33271 4.0027,3.33289 4.5013,6.00054 0.4983,2.66786 -0.2519,4.91726 -2.2507,6.7482 z m -157.9977,21.00381 c -0.8342,-2.83298 -0.501,-5.54142 0.9994,-8.12534 1.5005,-2.58374 3.7511,-4.12742 6.7521,-4.63105 27.6642,-4.99972 52.0809,-12.24765 73.2501,-21.74385 1.3325,-0.66619 1.5817,-1.41641 0.7477,-2.25068 -1.5006,-1.33249 -3.7919,-3.37463 -6.8742,-6.12643 -3.0824,-2.75155 -5.3737,-4.79369 -6.8741,-6.12642 -2.3347,-2.16663 -3.502,-4.75046 -3.5019,-7.7515 -10e-5,-3.000762 1.1672,-5.584591 3.5019,-7.75149 2.4973,-2.329368 5.4549,-3.494133 8.8731,-3.494283 3.4178,1.5e-4 6.4594,1.164915 9.1247,3.494283 3.835,3.336743 9.585,8.5044 17.2502,15.50299 1.3325,1.00212 2.4998,1.16997 3.5019,0.50354 16.8303,-10.670879 30.8303,-23.338257 41.9999,-38.002163 0.834,-1.332435 0.5822,-1.998737 -0.7553,-1.998907 l -55.7482,0 c -0.997,1.7e-4 -2.3296,0.498632 -3.9978,1.495365 -20.3351,13.504241 -42.8342,24.839004 -67.4975,34.004335 -3.3367,1.1649 -6.5881,1.16363 -9.7542,-0.004 -3.1663,-1.16716 -5.6649,-3.24872 -7.4959,-6.24468 -1.5005,-2.67015 -1.709,-5.46379 -0.6256,-8.380921 1.0833,-2.916831 3.0415,-4.873779 5.8746,-5.870843 37.3332,-13.498821 66.1648,-28.833948 86.4948,-46.005423 6.0016,-5.16237 12.4206,-6.077893 19.2567,-2.746591 l 0.2441,0 c 2.5023,1.332805 4.0447,3.415643 4.6272,6.248494 0.5823,2.833261 -0.2099,5.167859 -2.3765,7.003816 -0.168,0.330802 -0.2519,0.621983 -0.2518,0.873564 -10e-5,0.251961 0.1677,0.377851 0.5035,0.377661 l 49.7515,0 c 2.665,1.9e-4 4.9564,0.957684 6.8741,2.872481 1.9173,1.915167 2.8761,4.207806 2.8763,6.877926 -2e-4,6.831046 -1.6685,12.746388 -5.0049,17.746037 -14.9996,22.333999 -35.791,41.125259 -62.3743,56.373789 -26.5836,15.24877 -58.2088,26.20715 -94.8758,32.87519 -3.1636,0.66638 -6.1213,0.12469 -8.8729,-1.62507 -2.7517,-1.74959 -4.626,-4.20627 -5.6229,-7.37002 z"
     id="path2823"
     style="font-size:250px;font-style:normal;font-variant:normal;font-weight:normal;font-stretch:normal;text-align:center;text-anchor:middle;fill:#000000;fill-opacity:1;stroke:none;font-family:'Rounded M+ 1m medium';-inkscape-font-specification:'Rounded M+ 1m medium,'" /><path
     inkscape:connector-curvature="0"
     d="m 1405.8362,255.14893 c -27.166,0 -46.0399,-6.79153 -56.6218,-20.37438 -10.5821,-13.58292 -15.8731,-38.45863 -15.8731,-74.62723 0,-27.99987 0.8316,-60.999632 2.4949,-98.999385 0.1678,-3.829795 1.6275,-7.036687 4.3792,-9.620706 2.7517,-2.58364 5.9599,-3.792905 9.6246,-3.627794 3.6646,0.1655 6.7469,1.582026 9.2468,4.249586 2.4999,2.66795 3.6684,5.835422 3.5057,9.502456 -1.6683,37.501301 -2.5025,70.333213 -2.5024,98.495843 -10e-5,14.6689 0.8328,26.58605 2.4986,35.75147 1.6657,9.16552 4.4988,16.29013 8.4993,21.37383 4.0002,5.08376 8.6669,8.50047 13.9999,10.25013 5.3329,1.74968 12.249,2.62458 20.7483,2.62448 31.3364,1e-4 56.4219,-21.08256 75.2566,-63.24788 1.3324,-3.16358 3.6238,-5.41299 6.8741,-6.74822 3.2499,-1.33507 6.4568,-1.41772 9.6207,-0.24795 3.3364,1.33268 5.713,3.58209 7.1297,6.74822 1.4163,3.16629 1.4583,6.33377 0.1259,9.50245 -11.1697,26.33172 -25.2129,46.08046 -42.1297,59.2463 -16.9172,13.16585 -35.8762,19.74878 -56.8773,19.74878 z"
     id="path2825"
     style="font-size:250px;font-style:normal;font-variant:normal;font-weight:normal;font-stretch:normal;text-align:center;text-anchor:middle;fill:#000000;fill-opacity:1;stroke:none;font-family:'Rounded M+ 1m medium';-inkscape-font-specification:'Rounded M+ 1m medium,'" /></svg>