<?xml version="1.0" encoding="utf-8"?>
<!-- Generator: Adobe Illustrator 18.1.1, SVG Export Plug-In . SVG Version: 6.00 Build 0)  -->
<!DOCTYPE svg PUBLIC "-//W3C//DTD SVG 1.1//EN" "http://www.w3.org/Graphics/SVG/1.1/DTD/svg11.dtd">
<svg version="1.1" id="Layer_3" xmlns="http://www.w3.org/2000/svg" xmlns:xlink="http://www.w3.org/1999/xlink" x="0px" y="0px"
	 viewBox="0 0 658 217" enable-background="new 0 0 658 217" xml:space="preserve">
<path d="M295.9,36.1c3.8,8,1.2,63.8-3.2,83.3c-4.5,19.6-8.9,44.5-10,65.5c-0.5,8.9,0.9,12.5,6.7,12.5c10.3,0,23.4-21.7,39.8-21.2
	c16.4,0.5,21.6,24.9,29.3,24.7c7.7-0.2,13.9-2.8,14-26.6C372.8,103.3,313.3,45.8,295.9,36.1L295.9,36.1L295.9,36.1L295.9,36.1z"/>
<path d="M347.5,92.8c3.6,6.1,12.8,1.4,13.2-5.5c0.4-6.9-0.6-15.6-5.1-15.9c-4.5-0.3-7.7-4.8-12.1-5.1c-4.5-0.3-9.3,4.1-11.3-1.8
	c-2.1-5.9,5.6-8.4,11.3-9.4c-5.1-5.1-8.1-10.8-10.4-16.7s-3.9-11.3,2.4-13.6c6.3-2.3,5.8,9.6,13,15c-2.1-8-2.9-11.3-2.7-16
	c0.2-4.7-0.2-8.2,6.5-7.3c6.6,0.9,3.7,14.7,8.9,20.3c1.6-5.3,2.5-12.1,6.3-14.8c3.8-2.8,12.4-2.8,6.9,8.5
	c-5.5,11.4,1.6,17.5-0.1,26.5c-1.7,9-6.8,7.3-9,13.1c-2.2,5.8,1.3,18.9-2.9,24.8s-4.9,15-2.2,22.2
	C351.8,109.4,347.5,92.8,347.5,92.8L347.5,92.8L347.5,92.8L347.5,92.8z"/>
<path d="M295.7,100.4c-3.4,23-15,25.8-15.6,35.3s3.1,10.5,2.9,19.3c-0.2,8.8-8.1,12.4-9,17.2c-0.9,4.8,4,6.3,6.9,6.3
	s5.8-12.7,7-20.8c1.2-8.1-3.8-12.8-3.8-18.4c0-5.5,7.3-15.7,5.9-6.8C296,123.1,298.8,111,295.7,100.4L295.7,100.4L295.7,100.4
	L295.7,100.4z"/>
<path fill="#FFFFFF" d="M300.2,109.2c-2.5,12.5-18.4,82-10.3,82.9c8.1,0.9,19.6-21.5,38.4-21.4c18.9,0.2,26.3,25.1,30.9,24.9
	s7.6,1.6,8.1-26.5c0.5-28.1-16.7-64-26.8-79.8C326.8,90.3,312,101.3,300.2,109.2L300.2,109.2L300.2,109.2L300.2,109.2z"/>
<g>
	<path fill="none" d="M336.8,94.4c-0.9-8.3-8.7-11.5-16.1-10.5c-6.3,0.9-14.7,6.2-15.4,13c-0.9,7.7,5.2,14.7,12.8,15
		c6.8,0.3,14.1-3,17.2-9.4C336.5,99.9,337,97.2,336.8,94.4"/>
	<path d="M340.4,94.1c-0.8-7.8-6.5-12.7-14-13.9c-7.2-1.2-15.1,2.3-20.1,7.3c-5.7,5.7-5.9,13.6-1.9,20.3c3.9,6.6,12.6,8.8,19.7,7.2
		C333.8,112.7,341,104.2,340.4,94.1"/>
	
		<radialGradient id="SVGID_1_" cx="313.0278" cy="199.9625" r="24.7751" gradientTransform="matrix(1 0 0 -1 0 292)" gradientUnits="userSpaceOnUse">
		<stop  offset="0" style="stop-color:#FFFFFF"/>
		<stop  offset="6.040000e-02" style="stop-color:#FBC8B4"/>
		<stop  offset="7.120000e-02" style="stop-color:#FBC3B0"/>
		<stop  offset="0.1829" style="stop-color:#F7978B"/>
		<stop  offset="0.2995" style="stop-color:#F4716B"/>
		<stop  offset="0.4199" style="stop-color:#F15251"/>
		<stop  offset="0.5453" style="stop-color:#EF3A3D"/>
		<stop  offset="0.6778" style="stop-color:#EE292F"/>
		<stop  offset="0.822" style="stop-color:#ED1F27"/>
		<stop  offset="1" style="stop-color:#ED1C24"/>
	</radialGradient>
	<path fill="url(#SVGID_1_)" stroke="#000000" stroke-width="0.4528" d="M336.8,97c-0.7,7.1-6.3,12.8-13.1,14.4
		c-7.2,1.7-15.1-1-17.7-8.4c-1.3-3.8-1.1-7.6,1.2-11c1.9-2.8,5-5,8.1-6.4c6.3-2.9,15.3-3.2,19.7,3.2C336.6,91.3,336.9,94.1,336.8,97
		"/>
</g>
</svg>
