<?xml version="1.0" encoding="utf-8"?>
<!-- Generator: Adobe Illustrator 15.0.0, SVG Export Plug-In  -->
<!DOCTYPE svg PUBLIC "-//W3C//DTD SVG 1.1//EN" "http://www.w3.org/Graphics/SVG/1.1/DTD/svg11.dtd" [
	<!ENTITY ns_flows "http://ns.adobe.com/Flows/1.0/">
]>
<svg version="1.1"
	 xmlns="http://www.w3.org/2000/svg" xmlns:xlink="http://www.w3.org/1999/xlink" xmlns:a="http://ns.adobe.com/AdobeSVGViewerExtensions/3.0/"
	 x="0px" y="0px" width="300px" height="455px" viewBox="0 -0.239 300 455" enable-background="new 0 -0.239 300 455"
	 xml:space="preserve">
<defs>
</defs>
<polygon fill="#FFFFFF" points="33.388,328.62 43.722,329.954 72.388,329.62 86.055,328.287 112.055,327.954 137.388,323.287 
	147.722,320.62 151.389,314.287 152.555,305.287 151.055,292.453 149.722,277.787 147.888,263.453 147.555,251.62 146.259,246.71 
	141.722,235.453 138.388,215.954 137.555,196.62 138.222,183.454 140.555,166.787 142.722,151.787 144.055,138.954 143.555,126.954 
	142.555,116.787 139.222,108.12 134.055,99.787 129.388,95.62 124.888,92.454 120.555,87.12 107.722,79.954 90.055,77.287 
	58.222,75.787 50.555,79.954 40.222,83.287 31.388,86.954 23.222,90.287 17.388,94.454 11.722,101.787 7.888,110.287 5.722,119.454 
	4.388,128.12 3.555,142.12 2.722,157.287 1.722,167.787 1.055,181.12 0,191.62 0,202.954 2.388,215.454 5.388,226.287 
	14.055,241.12 22.222,249.953 28.029,254.338 29.388,276.62 30.388,294.953 31.388,310.953 31.055,319.953 31.388,326.287 "/>
<path d="M123.376,25.505c-9.741-2.374-11.15,7.746-16.209,13.349c3.398-23.814-19.512-42.271-41.953-34.789
	C60.31,5.7,55.126,8.055,51.865,12.322c-8.053,11.022-3.813,24.624,2.482,35.112c3.239,5.721,9.397,14.928,6.478,21.93
	c-1.332,2.662-4.822,3.982-7.053,5.843C41.82,85.174,22.943,84.62,13.296,97.301c-8.151,10.759-9.104,25.995-10.22,38.807
	c-1.15,12.036-1.004,24.163-1.831,36.232c-1.187,17.345-3.197,36.816,3.375,53.394c4.004,10.098,11.335,22.91,21.501,27.651
	c-2.463-4.3-6.674-7.555-9.718-11.442c-4.855-6.067-8.556-12.727-11.259-20.022c-7.627-20.977-3.193-46.72-1.115-68.65
	c1.039-10.919-0.046-21.576,2.403-32.418c2.475-10.96,5.819-20.917,14.921-28.147c4.768-3.898,10.431-4.769,16.209-6.672
	c8.032-2.647,16.209-6.356,24.79-7.045c11.215-0.9,21.404,2.299,32.418,2.772c-2.209,6.334-6.397,11.047-10.552,16.209
	c-2.015,2.502-5.298,6.007-5.092,9.534c0.325,5.449,13.993,10.93,18.301,7.969c2.817-1.937,4.201-5.924,5.52-8.922
	c2.809-6.384,5.653-12.184,7.079-19.069l3.814,0.953c-2.398,4.214-4.282,8.581-4.768,13.349c6.466-1.483,8.931-6.602,14.302-9.534
	c-0.545,2.267-0.954,4.346-0.954,6.674c6.199-3.677,9.489-1.231,13.683,4.768c5.386,7.837,5.943,18.512,7.021,27.65
	c2.455,20.977-6.812,42.025-6.812,62.93c0,11.806,1.734,23.635,3.532,35.278c0.691,4.902,3.552,11.441,2.758,16.209
	c-1.561,8.581-9.931,12.396-17.322,14.302c-2.617-9.09-7.172-17.792-10.488-26.697c-7.356-20.202-12.911-40.34-12.396-61.976
	c0.241-9.291,2.861-18.399,3.814-27.65c0.293-3.339,1.751-7.134-0.953-9.535c0.524,9.999-2.129,19.742-3.528,29.558
	c-1.24,7.628-0.587,16.21-0.286,23.837c0.77,16.564,7.16,33.372,12.945,48.627c3.094,8.203,5.859,17.163,9.939,24.79h-3.814v1.907
	c5.603-0.559,12.74-2.299,17.077-6.047c3.404-2.944,5.439-7.057,8.667-10.162c1.249,15.807,2.224,31.906,4.086,47.674
	c0.681,6.74,2.588,17.596-1.226,23.837c-3.831,6.012-13.958,4.255-20.023,5.043c-6.79,0.883-13.349,3.538-20.023,4.219
	c-9.535,1.226-19.088,0.467-28.604,1.006c-4.767,0.271-14.743,2.211-18.116-1.99c-2.958-3.705-3.207-10.432-3.952-14.952
	c-1.049-6.354-2.868-12.637-3.513-19.069c-0.542-5.394,0.41-10.992-1.116-16.209c-4.792,9.971-1.405,25.477-0.954,36.232
	c0.223,4.088,2.459,10.273-0.026,13.998c-2.486,3.727-17.645,4.117-19.997,0.082c-1.413-2.463-0.224-5.682-0.358-8.359
	c-0.394-7.882-0.348-15.783-0.729-23.675c-1.792-37.076-1.987-73.909-0.896-110.927c0.28-9.373,0.076-18.907,0.076-28.442
	c0-3.534,0.911-8.026-1.907-10.488c1.907,12.396,0.581,24.794,0,37.186c-0.478,11.767,0.814,23.562,0.591,35.278
	c-0.238,12.422-2.053,24.79-1.544,37.186c0.831,18.116,1.749,36.267,2.785,54.362c0.308,5.373-0.878,10.864-0.294,16.194
	c0.367,4.457,3.971,5.159,5.515,8.785c1.908,4.563,1.767,13.146,1.443,17.912c-0.583,8.739,0.344,17.003,0.954,25.744
	c0.684,9.816,0.581,19.83,1.993,29.571c1.159,6.971-0.238,15.242,8.581,16.195c-0.138,6.716-1.907,13.349-1.907,20.022
	c-0.024,2.495-0.51,5.989,0.954,8.169c1.437,2.065,4.391,2.491,6.674,2.852c6.072,0.963,16.092,0.471,18.116-6.253
	c1.644,0,3.23-0.226,4.768-0.852c0.95-0.375,1.907-0.852,2.719-1.545c6.493-6.072-1.494-9.419-4.961-13.813
	c-1.714-2.32-2.585-5.01-3.479-7.628c2.153,0,5.123,0.412,6.958-0.953c4.47-3.417,2.577-14.206,2.577-19.069
	c0-17.535,0.954-34.929,0.954-52.441c0-6.548,1.629-14.724,0-20.977l0.953-0.953c2.603,0.771,4.768,0.953,7.628,0.953
	c0,11.739,2.145,23.637,3.542,35.279c1.446,12.05,2.122,24.158,3.294,36.231c0.529,5.438,0.621,14.861,5.559,18.175
	c2.86,1.849,6.398,1.849,9.535,1.849v17.162c0,2.064-0.542,5.283,0.848,7.027c1.322,1.659,3.92,1.554,5.827,1.554
	c4.579,0.057,13.771,0.309,15.256-4.768c10.488,0,20.975,1.038,30.505-4.353c4.621-2.616,8.355-8.996,2.724-12.81
	c-8.855-6.326-24.246,7.13-29.416-7.628c8.862-2.448,4.723-13.153,3.578-20.023c-3.578-21.22-4.532-41.439-4.531-62.929
	c0-2.86-0.773-7.57,1.528-9.916c2.852-2.908,7.988-1.787,10.867-4.968c3.796-3.955,3.039-10.668,2.823-15.627
	c-0.517-11.777-2.499-23.549-3.615-35.279c-0.641-6.674-0.162-13.313-1.412-20.022c-1.206-6.295-4.675-11.794-5.949-18.116
	c-4.337-21.514-4.896-41.332-1.144-62.929c2.994-17.162,5.482-35.037,1.841-52.441c-2.08-9.736-6.992-19.458-16.382-23.836
	c5.311-15.651,16.067-27.84,19.422-44.651c0.601-3.593,0.931-8.063-0.113-11.604c-1.193-3.814-3.858-7.1-2.793-11.424
	c1.25-5.081,6.873-5.587,11.134-6.692c-1.459-3.092-3.813-5.692-5.503-8.581c-1.38-2.177-2.575-4.599-4.393-6.457
	c-4.014-4.031-10.546-3.808-13.945,0.916C125.98,9.402,124.762,18.83,123.376,25.505z"/>
<path fill="#646467" d="M100.492,88.434c20.736-2.852,19.687-26.137,24.764-41.953c2.719-8.469,5.156-17.071,15.282-18.115
	c0.893-4.733,3.609-10.449,3.497-15.171c-0.099-4.164-2.667-6.05-1.589-10.573c-12.395-5.721-14.302,9.67-16.555,18.116
	c-2.067,7.339-6.096,13.856-8.784,20.977C111.302,57.094,105.777,72.915,100.492,88.434z"/>
<path fill="#FFFFFF" d="M55.679,12.156c3.139,0.252,5.583,0.69,7.628-1.907c0.614,2.008,0.864,3.618,0.954,5.721
	c0.954-1.614,1.449-2.86,1.907-4.768c1.602,1.388,1.853,1.907,2.86,0c0.536,1.718,0.786,2.978,0.954,4.768
	c0.869-1.312,1.338-2.326,1.907-3.813l2.861,3.813c0.653-1.189,0.714-1.476,0.953-2.86l0.954,3.813
	c0.651-1.436,0.788-2.207,0.954-3.813c0.849,1.664,1.385,2.979,1.907,4.768c0.938-2.223,0.936-4.25,0.953-6.675
	c0.536,1.718,0.786,2.978,0.954,4.768l1.907-2.86l0.954,3.813c0.651-1.436,0.788-2.207,0.953-3.813
	c1.131,1.131,1.457,1.511,1.907,2.86c6.659-0.627,7.423,5.766,12.395,8.581l-0.954,3.814c0.653-1.19,0.714-1.476,0.954-2.86
	c2.096,3.997,2.744,8.057,3.814,12.395l-3.814-1.906c0.33-2.479,0-3.42-0.954-5.721l-0.953,5.721c-1.41-0.94-1.147-0.954-2.86-0.954
	c-0.377,3.391-0.066,6.283,0.953,9.535l2.86-0.954c-5.135,2.888-5.721-5.032-5.721-8.581c-2.13,3.118-1.994,5.981-0.954,9.535
	c-1.7,0.953-1.52,0.953-1.907,2.86l-2.86-0.954v5.722l-0.954-3.814c-0.743,1.687-0.954,2.895-0.954,4.768
	c-2.978-0.953-1.907-0.953-3.814,0.953v-1.906c-1.196,1.906-2.193,3.291-3.813,4.767v-3.813c-1.208,1.472-1.419,1.952-1.907,3.813
	l-0.953-3.813c-0.954,1.313-1.339,2.326-1.907,3.813c-0.954-2.86-0.954-5.56-0.954-8.581c-1.913,3.036-2.367,6.35-3.813,9.535
	l-0.954-2.86c-0.651,1.436-0.788,2.207-0.954,3.813c-2.11-2.46-3.58-4.678-6.674-5.721c2.821,6.675,3.758,11.933,2.86,19.069
	c11.695,0,21.93,0.954,33.372,2.86c3.17-6.018-0.58-12.22,4.767-17.162l-1.907,10.488c2.567-4.202,3.193-9.535,4.415-14.303
	c0.973-3.779,2.863-7.593,3.415-11.441c1.391-9.718-2.484-21.93-8.399-29.543C89.265,1.947,64.119-1.192,55.679,12.156z
	 M142.445,5.481l0.954,3.814l0.954-3.814H142.445z"/>
<path fill="#8C8E93" d="M146.259,10.249c0,3.204,0.954,4.143,3.814,5.721C149.12,13.356,148.339,12.156,146.259,10.249z"/>
<path fill="#8C8E93" d="M144.353,17.877h3.813C146.66,15.97,145.819,15.808,144.353,17.877z"/>
<path fill="#FFFFFF" d="M70.935,20.737c-0.424,3.813-0.01,7.628,0,11.441C72.377,28.743,72.377,24.174,70.935,20.737z M65.214,21.69
	v3.814C66.167,23.729,66.167,23.598,65.214,21.69z M58.54,22.645v4.767C59.332,25.505,59.332,24.58,58.54,22.645z M77.609,22.645
	v3.813C78.286,24.781,78.286,24.322,77.609,22.645z M87.461,23.28c-0.053,0.053-0.106,1.06,0.318,0.635
	C87.833,23.862,87.885,22.855,87.461,23.28z"/>
<path fill="#BCBDC1" d="M123.376,22.645l0.954,0.953L123.376,22.645z"/>
<path fill="#FFFFFF" d="M61.718,24.233c-0.053,0.053-0.105,1.06,0.318,0.635C62.088,24.815,62.142,23.81,61.718,24.233z
	 M92.865,24.551c0.303,2.86,0.591,4.133,2.86,5.722C95.007,27.975,94.393,26.458,92.865,24.551z M87.144,26.458v2.86
	C87.807,27.837,87.807,27.94,87.144,26.458z M74.749,27.411v8.582C75.946,33.138,75.946,30.272,74.749,27.411z M76.656,27.411v3.814
	C77.333,29.548,77.333,29.09,76.656,27.411z M90.004,28.365v5.721C91.282,31.846,91.227,30.643,90.004,28.365z M78.563,29.318
	v13.349C80.152,38.88,80.152,33.133,78.563,29.318z M85.237,31.226c-0.953,4.481-0.953,8.801-0.953,13.349
	C86.367,40.761,86.969,35.354,85.237,31.226z M57.586,32.179v2.86C58.25,33.558,58.25,33.661,57.586,32.179z M87.144,34.086v2.86
	C87.807,35.465,87.807,35.567,87.144,34.086z"/>
<path fill="#BDD4E2" d="M169.142,34.086v181.159c1.687-4.018,0.954-9.023,0.954-13.348v-27.651V79.853V49.342
	C170.096,44.574,171.031,38.586,169.142,34.086z"/>
<path fill="#377F9D" d="M170.096,34.086v180.206h128.719V34.086H170.096z"/>
<path fill="#8AB2C8" d="M298.814,34.086v181.159c1.688-4.018,0.953-9.023,0.953-13.348v-27.651V79.853V49.342
	C299.768,44.574,300.704,38.586,298.814,34.086z"/>
<path fill="#FFFFFF" d="M69.345,39.489c-0.053,0.053-0.105,1.059,0.319,0.635C69.716,40.071,69.77,39.065,69.345,39.489z
	 M88.415,40.442c-0.052,0.053-0.105,1.06,0.319,0.636C88.786,41.025,88.839,40.019,88.415,40.442z M62.354,45.527v2.86
	C63.017,46.906,63.017,47.01,62.354,45.527z M83.33,46.48v4.768C84.122,49.342,84.122,48.417,83.33,46.48z M76.656,47.435
	l-0.954,3.813C76.945,49.658,77.183,49.349,76.656,47.435z M65.214,51.248c0.519,1.56,0.348,1.388,1.907,1.907v-1.907H65.214z"/>
<path fill="#669AB6" d="M192.979,57.923v133.486c1.479-3.527,0.952-7.628,0.952-11.441v-19.07V92.248v-21.93
	C193.932,66.256,194.563,61.736,192.979,57.923z"/>
<path fill="#FFFFFF" d="M193.932,57.923v132.532h81.046V57.923H193.932z"/>
<path fill="#48606E" d="M274.978,57.923l0.953,0.953L274.978,57.923z"/>
<path fill="#8AB2C8" d="M274.978,58.876v132.533c1.479-3.527,0.953-7.628,0.953-11.441v-21.931V89.388V70.318
	C275.931,66.521,276.457,62.403,274.978,58.876z"/>
<path fill="#E3A28D" d="M208.87,63.961c-0.425,0.425,0.583,0.371,0.636,0.318C209.931,63.855,208.923,63.908,208.87,63.961z"/>
<path fill="#D9856E" d="M210.777,63.961c-0.425,0.425,0.583,0.371,0.635,0.318C211.837,63.855,210.83,63.908,210.777,63.961z"/>
<path fill="#CD614B" d="M212.049,64.335c-21.009,0.728-20.023,33.099,0.953,32.68C234.54,96.477,233.767,63.644,212.049,64.335z"/>
<path fill="#D9856E" d="M213.002,63.644c1.436,0.651,2.208,0.787,3.813,0.953C215.38,63.945,214.608,63.81,213.002,63.644z"/>
<path fill="#E9B6A4" d="M205.374,64.597l0.953,0.954L205.374,64.597z"/>
<path fill="#DD8F78" d="M206.327,64.597l0.954,0.954L206.327,64.597z"/>
<path fill="#E3A28D" d="M218.723,64.597l0.953,0.954L218.723,64.597z"/>
<path fill="#F0CCBE" d="M203.468,65.551l0.952,0.953L203.468,65.551z"/>
<path fill="#E3A28D" d="M220.63,65.551l0.953,0.953L220.63,65.551z"/>
<path fill="#E09882" d="M202.514,66.504l0.954,0.953L202.514,66.504z"/>
<path fill="#E9B6A4" d="M223.489,67.457l0.954,0.954L223.489,67.457z M224.443,68.411l0.953,0.953L224.443,68.411z"/>
<path fill="#EDC1B1" d="M225.396,69.364l0.954,0.954L225.396,69.364z"/>
<path fill="#E09882" d="M198.7,70.318l0.953,0.953L198.7,70.318z"/>
<path fill="#F0CCBE" d="M197.746,71.271l0.954,0.953L197.746,71.271z"/>
<path fill="#D9856E" d="M226.351,71.271l0.953,0.953L226.351,71.271z"/>
<path fill="#F0CCBE" d="M227.304,72.225l0.954,0.954L227.304,72.225z"/>
<path fill="#377F9D" d="M52.819,79.853c11.675-3.089,22.523-2.714,34.325-0.381c4.373,0.864,7.628,1.727,8.581-3.434
	c-9.535-1.275-18.116-2.859-27.65-2.859C61.252,73.179,56.319,73.269,52.819,79.853z"/>
<path fill="#E9B6A4" d="M196.793,73.179l0.953,0.953L196.793,73.179z"/>
<path fill="#DD8F78" d="M196.793,74.132l0.953,0.953L196.793,74.132z"/>
<path fill="#E3A28D" d="M228.258,75.085l0.953,0.953L228.258,75.085z M196.157,76.675c-0.053,0.053-0.106,1.059,0.317,0.635
	C196.527,77.257,196.581,76.251,196.157,76.675z"/>
<path d="M212.049,106.55c4.751,1.266,11.244-3.408,15.255-5.721c7.078-4.418,13.79-9.361,20.977-13.349
	c5.305-3.154,11.039-5.318,16.209-8.581v-1.907c-5.897-1.425-12.395,3.083-17.162,6.287
	C235.491,91.098,224.443,99.639,212.049,106.55z"/>
<path fill="#D9856E" d="M196.157,78.581c-0.053,0.053-0.106,1.06,0.317,0.636C196.527,79.164,196.581,78.157,196.157,78.581z"/>
<path fill="#F0CCBE" d="M229.211,77.945v4.768C230.002,80.806,230.002,79.881,229.211,77.945z"/>
<path fill="#D9856E" d="M195.839,80.806v3.814C196.516,82.942,196.516,82.483,195.839,80.806z"/>
<path fill="#FFFFFF" d="M96.679,81.76l-0.954,1.906h1.907C97.632,81.899,97.918,82.379,96.679,81.76z M113.841,83.666
	c-1.131,1.131-1.457,1.511-1.907,2.86l0.954,0.954C114.13,85.89,114.369,85.581,113.841,83.666z"/>
<path fill="#DD8F78" d="M228.258,84.62l0.953,0.953L228.258,84.62z"/>
<path fill="#E9B6A4" d="M228.258,85.573l0.953,0.953L228.258,85.573z"/>
<path fill="#E3A28D" d="M196.793,86.526l0.953,0.954L196.793,86.526z"/>
<path fill="#FFFFFF" d="M124.33,87.48l-0.954,3.813C124.33,89.729,124.704,89.388,124.33,87.48z"/>
<path fill="#E3A28D" d="M227.304,87.48l0.954,0.953L227.304,87.48z M197.746,88.434l0.954,0.954L197.746,88.434z M226.351,89.388
	l0.953,0.953L226.351,89.388z"/>
<path fill="#E09882" d="M225.396,90.341l0.954,0.953L225.396,90.341z"/>
<path d="M239.699,101.782c-4.911,0.102-9.144,3.464-13.349,5.864c-10.105,5.77-23.996,11.796-31.465,20.833
	c9.534-1.721,18.416-8.799,26.697-13.726c12.93-7.691,26.697-14.538,40.046-21.553v-1.907
	C254.879,89.649,243.366,96.069,239.699,101.782z"/>
<path fill="#E9B6A4" d="M199.653,91.294l0.953,0.954L199.653,91.294z M200.606,92.248l0.954,0.953L200.606,92.248z"/>
<path fill="#EDC1B1" d="M201.561,93.201l0.953,0.953L201.561,93.201z"/>
<path fill="#E09882" d="M222.537,93.201l0.952,0.953L222.537,93.201z"/>
<path fill="#D9856E" d="M203.468,94.154l0.952,0.954L203.468,94.154z"/>
<path fill="#E3A28D" d="M221.583,94.154l0.954,0.954L221.583,94.154z"/>
<path fill="#F0CCBE" d="M204.42,95.108l0.954,0.953L204.42,95.108z"/>
<path fill="#E3A28D" d="M219.676,95.108l0.954,0.953L219.676,95.108z M207.281,96.062l0.953,0.953L207.281,96.062z"/>
<path fill="#DD8F78" d="M216.815,96.062l0.954,0.953L216.815,96.062z"/>
<path fill="#E9B6A4" d="M217.77,96.062l0.953,0.953L217.77,96.062z"/>
<path fill="#F0CCBE" d="M210.142,97.015c1.907,0.954,3.572,0.954,5.721,0.954C213.906,97.135,212.289,97.06,210.142,97.015z"/>
<path d="M238.745,115.131c6.675-0.202,14.554-4.601,18.116-10.488C249.443,104.822,243.186,109.41,238.745,115.131z
	 M216.815,122.759c2.508,4.51,1.659,9.332,2.312,14.302c1.503,12.604,2.455,26.371,2.456,39.093
	c11.953-0.953,24.266,0.058,36.232-1.506c3.763-0.401,9.063-0.219,12.092-2.869c3.354-2.937,2.399-9.745,2.125-13.741
	c-0.868-12.396-2.166-24.79-3.729-37.186C251.66,120.852,233.025,118.289,216.815,122.759z"/>
<path fill="#BDD4E2" d="M193.932,190.455c6.675,2.864,17.407,0.954,24.791,0.954h56.255c-6.826-2.86-17.407-0.954-24.79-0.954
	H193.932z"/>
<path fill="#669AB6" d="M170.096,214.292c4.019,1.688,9.024,0.953,13.349,0.953h25.743h89.627c-4.02-1.686-9.023-0.953-13.349-0.953
	h-25.744H170.096z"/>
<path fill="#8E6D72" d="M53.772,297.244c0,8.079,0.916,15.811,1.417,23.837c0.177,2.86-0.025,6.817-2.669,8.581
	c-3.591,2.333-10.812,0.953-14.956,0.953c0,18.116,1.539,36.313,2.775,54.349c0.706,10.304-0.366,22.535,3.274,32.418
	c2.951,7.918,18.676,5.798,25.416,5.721c2.745,0,6.642,0.157,8.827-1.849c1.661-1.613,1.661-4.541,2.063-6.732
	c0.826-5.677,0.552-11.439,0.552-17.162c0-22.286,0.954-44.482,0.954-66.744c-5.119,0-13.438,1.582-18.116-0.953
	c-3.621-2.111-4.346-6.673-5.002-10.488C57.112,312.233,56.633,303.644,53.772,297.244z"/>
<path fill="#8E6D72" d="M91.911,330.615c1.437,8.941,9.435,6.915,16.209,4.768c-4.239,3.813-9.93,2.86-15.255,2.86
	c4.593,4.303,11.406,2.86,17.163,1.907c-4.401,3.335-11.818,1.907-17.163,1.907v1.906c5.614,0.709,10.488,0.116,16.209,0
	c-5.521,2.068-10.488,2.021-16.209,0.954c2.86,15.539,4.557,31.926,5.635,47.674c0.498,7.261-0.398,18.187,3.888,24.527
	c5.591,8.271,21.762,1.738,29.569,1.216c3.333-0.256,9.113-0.507,10.72-4.08c1.246-2.769-0.055-6.408-0.613-9.269
	c-1.199-6.009-2.281-12.053-3.173-18.115c-3.12-20.531-2.166-41.271-2.166-61.977c-9.776,0-18.135,2.861-27.651,4.349
	C103.353,330.142,97.632,329.662,91.911,330.615z"/>
<path fill="#DECFD1" d="M90.004,330.615l0.953,0.954L90.004,330.615z"/>
<path d="M50.912,339.196c3.231,1.356,8.053,1.907,10.488-0.953C57.876,338.688,54.473,339.196,50.912,339.196z M52.819,343.011
	c3.798,1.59,10.488,1.336,13.349-1.907C61.758,342.058,57.29,342.658,52.819,343.011z M51.865,349.685
	c4.138-0.521,8.338-0.938,12.396-1.906C60.747,346.345,54.426,346.825,51.865,349.685z"/>
</svg>
