<?xml version="1.0"?><svg width="6400" height="4800" xmlns="http://www.w3.org/2000/svg" xmlns:xlink="http://www.w3.org/1999/xlink">
 <title>king</title>
 <defs>
  <filter color-interpolation-filters="sRGB" id="filter4764">
   <feGaussianBlur id="feGaussianBlur4766" stdDeviation="2.94984"/>
  </filter>
  <filter color-interpolation-filters="sRGB" id="filter4772">
   <feGaussianBlur id="feGaussianBlur4774" stdDeviation="1.47278"/>
  </filter>
  <filter color-interpolation-filters="sRGB" id="filter4778">
   <feGaussianBlur id="feGaussianBlur4780" stdDeviation="1.13441"/>
  </filter>
  <filter color-interpolation-filters="sRGB" id="filter4784">
   <feGaussianBlur id="feGaussianBlur4786" stdDeviation="2.94879"/>
  </filter>
  <filter color-interpolation-filters="sRGB" id="filter4790">
   <feGaussianBlur id="feGaussianBlur4792" stdDeviation="1.30238"/>
  </filter>
  <filter color-interpolation-filters="sRGB" id="filter4796">
   <feGaussianBlur id="feGaussianBlur4798" stdDeviation="1.94897"/>
  </filter>
  <filter color-interpolation-filters="sRGB" id="filter4802">
   <feGaussianBlur id="feGaussianBlur4804" stdDeviation="3.81473"/>
  </filter>
  <filter color-interpolation-filters="sRGB" id="filter4808">
   <feGaussianBlur id="feGaussianBlur4810" stdDeviation="4.07875"/>
  </filter>
  <filter color-interpolation-filters="sRGB" id="filter4814">
   <feGaussianBlur id="feGaussianBlur4816" stdDeviation="4.07724"/>
  </filter>
  <filter color-interpolation-filters="sRGB" id="filter4820">
   <feGaussianBlur id="feGaussianBlur4822" stdDeviation="3.84259"/>
  </filter>
  <filter color-interpolation-filters="sRGB" id="filter4826">
   <feGaussianBlur id="feGaussianBlur4828" stdDeviation="6.34923"/>
  </filter>
  <filter color-interpolation-filters="sRGB" id="filter4832">
   <feGaussianBlur id="feGaussianBlur4834" stdDeviation="3.45165"/>
  </filter>
  <filter color-interpolation-filters="sRGB" id="filter4838">
   <feGaussianBlur id="feGaussianBlur4840" stdDeviation="2.30954"/>
  </filter>
  <filter color-interpolation-filters="sRGB" id="filter4844">
   <feGaussianBlur id="feGaussianBlur4846" stdDeviation="1.23743"/>
  </filter>
  <filter color-interpolation-filters="sRGB" id="filter4852">
   <feGaussianBlur id="feGaussianBlur4854" stdDeviation="1.08229"/>
  </filter>
  <filter color-interpolation-filters="sRGB" id="filter4858">
   <feGaussianBlur id="feGaussianBlur4860" stdDeviation="2.23105"/>
  </filter>
  <filter color-interpolation-filters="sRGB" id="filter4864">
   <feGaussianBlur id="feGaussianBlur4866" stdDeviation="0.25442"/>
  </filter>
  <filter color-interpolation-filters="sRGB" id="filter4872">
   <feGaussianBlur id="feGaussianBlur4874" stdDeviation="0.41273"/>
  </filter>
  <filter color-interpolation-filters="sRGB" id="filter4878">
   <feGaussianBlur id="feGaussianBlur4880" stdDeviation="4.71431"/>
  </filter>
  <filter color-interpolation-filters="sRGB" id="filter4884">
   <feGaussianBlur id="feGaussianBlur4886" stdDeviation="0.43853"/>
  </filter>
  <filter color-interpolation-filters="sRGB" id="filter4890">
   <feGaussianBlur id="feGaussianBlur4892" stdDeviation="6.6357"/>
  </filter>
  <filter color-interpolation-filters="sRGB" id="filter4896">
   <feGaussianBlur id="feGaussianBlur4898" stdDeviation="4.70752"/>
  </filter>
  <filter color-interpolation-filters="sRGB" id="filter4902">
   <feGaussianBlur id="feGaussianBlur4904" stdDeviation="6.23107"/>
  </filter>
  <filter color-interpolation-filters="sRGB" id="filter4908">
   <feGaussianBlur id="feGaussianBlur4910" stdDeviation="2.67975"/>
  </filter>
  <filter color-interpolation-filters="sRGB" id="filter4916">
   <feGaussianBlur id="feGaussianBlur4918" stdDeviation="3.33051"/>
  </filter>
  <filter color-interpolation-filters="sRGB" id="filter4922">
   <feGaussianBlur id="feGaussianBlur4924" stdDeviation="1.34127"/>
  </filter>
  <filter color-interpolation-filters="sRGB" id="filter4928">
   <feGaussianBlur id="feGaussianBlur4930" stdDeviation="3.84621"/>
  </filter>
  <filter color-interpolation-filters="sRGB" id="filter4934">
   <feGaussianBlur id="feGaussianBlur4936" stdDeviation="0.72778"/>
  </filter>
  <filter color-interpolation-filters="sRGB" id="filter4940">
   <feGaussianBlur id="feGaussianBlur4942" stdDeviation="2.4444"/>
  </filter>
 </defs>
 <metadata id="metadata2986">decorationplantflowerStefan SchroderStefan SchroderStefan Schroderimage/svg+xmlen</metadata>
 <g>
  <title>Layer 1</title>
  <g id="g3770">
   <path fill="#de8787" stroke="#000000" stroke-width="2.9288" d="m301.644867,406.736206c15.566406,-46.69931 -20.609802,-107.767639 -31.132996,-108.965118c-15.566422,15.566437 -15.566422,15.566437 -31.132828,31.132904c-15.566498,-15.566467 -15.566498,-15.566467 -31.133011,-31.132904c-8.519897,6.262421 -46.699387,62.265808 -31.132889,112.047333c-39.603394,-26.15332 -108.861931,-15.441132 -113.252613,-5.803009c9.994312,19.614899 9.994312,19.614899 19.988476,39.229706c-19.614845,9.994385 -19.614845,9.994385 -39.229698,19.988708c3.32312,10.038086 45.910522,62.118896 95.134338,67.971802c-40.042725,34.8573 -47.793655,96.407288 -39.984024,103.561279c21.743225,-3.443787 21.743225,-3.443787 43.48642,-6.887634c3.443909,21.743347 3.443909,21.743347 6.887711,43.486572c10.5737,-0.058533 71.794693,-33.432007 89.235199,-71.667786c17.440506,55.624695 80.018021,76.265564 89.235184,71.048767c3.443817,-21.743225 3.443817,-21.743225 6.887817,-43.486328c21.743073,3.443726 21.743073,3.443726 43.200806,6.28064c2.926208,-10.681396 2.169312,-75.928833 -31.646881,-111.908691c55.450592,-6.975647 89.195984,-49.087219 87.082977,-59.465424c-19.614899,-9.994415 -19.614899,-9.994415 -39.229797,-19.988617c9.994202,-19.61499 9.994202,-19.61499 19.988617,-39.229889c-8.588806,-6.167816 -73.649597,-25.172516 -113.252808,4.062897" id="path572"/>
   <path fill="#ffb3b3" stroke="#000000" stroke-width="1.4644" d="m291.275055,419.72171c12.972015,-38.916107 -17.174896,-89.806366 -25.944092,-90.80426c-12.972107,12.972015 -12.972107,12.972015 -25.944107,25.944061c-12.972122,-12.972046 -12.972122,-12.972046 -25.944122,-25.944061c-7.100021,5.218658 -38.916199,51.888153 -25.944199,93.372772c-33.002808,-21.794403 -90.718193,-12.867523 -94.377083,-4.835815c8.32859,16.345703 8.32859,16.345703 16.657074,32.691406c-16.345718,8.328613 -16.345718,8.328613 -32.691429,16.657196c2.769264,8.365112 38.258736,51.765839 79.278625,56.643158c-33.368996,29.047729 -39.828079,80.339355 -33.32,86.301147c18.119301,-2.869873 18.119301,-2.869873 36.238594,-5.739685c2.869904,18.119507 2.869904,18.119507 5.739807,36.23877c8.811417,-0.048767 59.828903,-27.860107 74.362732,-59.723206c14.533691,46.353943 66.681625,63.554626 74.362625,59.207458c2.869904,-18.119446 2.869904,-18.119446 5.739807,-36.238708c18.119293,2.869751 18.119293,2.869751 36.000671,5.233765c2.438507,-8.901123 1.8078,-63.273926 -26.372284,-93.257202c46.20871,-5.812988 74.329926,-40.906006 72.569,-49.554382c-16.345673,-8.328735 -16.345673,-8.328735 -32.691406,-16.657349c8.328491,-16.345764 8.328491,-16.345764 16.657104,-32.691467c-7.157288,-5.139893 -61.374603,-20.977112 -94.377289,3.385681" id="path566"/>
   <path fill="#ff0000" fill-rule="evenodd" d="m327.532074,510.696899l-84.089417,-15.893005l-4.445404,83.044983l-4.215897,-82.782074l-77.572189,26.007782l74.634888,-33.821075l-44.793396,-69.955292l51.639297,64.863495l52.825027,-64.863495l-45.656647,69.529968l81.673737,23.868713z" id="path569"/>
   <path fill="#ff0000" fill-rule="evenodd" d="m182.245148,474.981689l54.3535,10.272919l2.873398,-53.678497l2.725098,53.508606l50.14093,-16.810913l-48.24231,21.861298l28.9534,45.217438l-33.378418,-41.926331l-34.144913,41.926331l29.511414,-44.942627l-52.792114,-15.428223l0,0l0.000031,0l-0.000015,0z" id="path570"/>
   <path fill="#ffaeae" fill-rule="evenodd" stroke="#ff0000" stroke-width="7.941" d="m265.369843,484.648865a25.944099,25.944099 0 1 1-51.888214,0a25.944099,25.944099 0 1 151.888214,0z" id="path567"/>
   <path fill="#ff0000" fill-rule="evenodd" d="m198.07103,477.099365a7.91295,7.91294 0 1 1-15.825897,0a7.91295,7.91294 0 1 115.825897,0z" id="path571"/>
   <path fill="#ff0000" fill-rule="evenodd" d="m246.396027,432.069153a7.91295,7.91294 0 1 1-15.825897,0a7.91295,7.91294 0 1 115.825897,0z" id="path573"/>
   <path fill="#ff0000" fill-rule="evenodd" d="m299.115021,467.214661a7.91295,7.91294 0 1 1-15.825897,0a7.91295,7.91294 0 1 115.825897,0z" id="path575"/>
   <path fill="#ff0000" fill-rule="evenodd" d="m218.939026,526.522949a7.91295,7.91294 0 1 1-15.825897,0a7.91295,7.91294 0 1 115.825897,0z" id="path576"/>
   <path fill="#ff0000" fill-rule="evenodd" d="m280.443024,530.916077a7.91295,7.91294 0 1 1-15.825897,0a7.91295,7.91294 0 1 115.825897,0z" id="path577"/>
  </g>
  <use fill="#ff66ef" stroke="#ff66ef" height="468" width="468" id="use4760" transform="matrix(0.95710761,-0.18987263,0.18987263,0.95710761,6.6980331,80.098179) " xlink:href="#g3770" y="0" x="0"/>
  <use fill="#5f6fff" stroke="#5f6fff" filter="url(#filter4764)" height="468" width="468" id="use4762" transform="matrix(1.6221738,1.4127286,-1.2813794,1.4713514,890.28062,-211.63894) " xlink:href="#g3770" y="0" x="0"/>
  <use fill="#ffffff" stroke="#ffffff" height="468" width="468" id="use4768" transform="matrix(0.4695499,0.85161531,-0.85161531,0.4695499,502.66952,968.66959) " xlink:href="#g3770" y="0" x="0"/>
  <use fill="#fff3eb" stroke="#fff3eb" filter="url(#filter4772)" height="468" width="468" id="use4770" transform="matrix(0.05088458,2.1268437,-1.9269009,0.04610096,1883.1354,1285.2865) " xlink:href="#g3770" y="0" x="0"/>
  <use fill="#ffffff" stroke="#ffffff" filter="url(#filter4778)" height="468" width="468" id="use4776" transform="matrix(-0.15348127,1.0359428,-1.0359428,-0.15348127,1007.2078,2187.1716) " xlink:href="#g3770" y="0" x="0"/>
  <use fill="#ffffff" stroke="#ffffff" filter="url(#filter4784)" height="468" width="468" id="use4782" transform="matrix(-2.1018403,0.0553682,-0.05010148,-1.9019097,1442.4795,3899.3328) " xlink:href="#g3770" y="0" x="0"/>
  <use fill="#ffffff" stroke="#ffffff" filter="url(#filter4790)" height="468" width="468" id="use4788" transform="matrix(0.52246881,-0.77705933,0.77705933,0.52246881,-155.12595,3295.3897) " xlink:href="#g3770" y="0" x="0"/>
  <use fill="#7bb5ff" stroke="#7bb5ff" filter="url(#filter4796)" height="468" width="468" id="use4794" transform="matrix(1.5291497,1.0246829,-1.1916848,1.7783692,1463.8026,-730.01289) " xlink:href="#g3770" y="0" x="0"/>
  <use fill="#ffffff" stroke="#ffffff" filter="url(#filter4802)" height="468" width="468" id="use4800" transform="matrix(2.9043767,0.91693603,-0.94704213,2.9997372,1424.6801,-895.57379) " xlink:href="#g3770" y="0" x="0"/>
  <use fill="#ffffff" stroke="#ffffff" filter="url(#filter4808)" height="468" width="468" id="use4806" transform="matrix(1.4684846,1.2689495,-1.4650985,1.695477,1744.0739,176.50416) " xlink:href="#g3770" y="0" x="0"/>
  <use fill="#ffffff" stroke="#ffffff" filter="url(#filter4814)" height="468" width="468" id="use4812" transform="matrix(1.6719565,2.3898648,-2.4718033,1.7292809,2740.4043,290.29439) " xlink:href="#g3770" y="0" x="0"/>
  <use fill="#ffffff" stroke="#ffffff" filter="url(#filter4820)" height="468" width="468" id="use4818" transform="matrix(-1.7178254,-0.66394542,0.77209924,-1.9976517,1477.7975,3699.2399) " xlink:href="#g3770" y="0" x="0"/>
  <use fill="#ffffff" stroke="#ffffff" filter="url(#filter4826)" height="468" width="468" id="use4824" transform="matrix(-1.6914543,-2.4680573,2.5505446,-1.747986,799.59486,4569.6908) " xlink:href="#g3770" y="0" x="0"/>
  <use fill="#ffffff" stroke="#ffffff" filter="url(#filter4832)" height="468" width="468" id="use4830" transform="matrix(1.4567937,-1.2983908,1.4979972,1.680752,-79.474312,2820.585) " xlink:href="#g3770" y="0" x="0"/>
  <use fill="#b1ff7c" stroke="#b1ff7c" filter="url(#filter4838)" height="468" width="468" id="use4836" transform="matrix(0.74517504,0.76543655,-0.76543655,0.74517504,1402.8976,-90.025001) " xlink:href="#g3770" y="0" x="0"/>
  <use fill="#aaffbc" stroke="#aaffbc" filter="url(#filter4844)" height="468" width="468" id="use4842" transform="matrix(-0.05142359,2.1596844,-1.959741,-0.0466628,2801.316,391.58566) " xlink:href="#g3770" y="0" x="0"/>
  <use fill="#ffffff" stroke="#ffffff" height="468" width="468" id="use4848" transform="matrix(-0.79609517,0.7167935,-0.7167935,-0.79609517,1965.5516,1698.0263) " xlink:href="#g3770" y="0" x="0"/>
  <use fill="#ffffff" stroke="#ffffff" filter="url(#filter4852)" height="468" width="468" id="use4850" transform="matrix(-2.1607378,0.0187303,-0.01699667,-1.9607454,2287.1645,3007.925) " xlink:href="#g3770" y="0" x="0"/>
  <use fill="#ffffff" stroke="#ffffff" filter="url(#filter4858)" height="468" width="468" id="use4856" transform="matrix(-0.89975799,-0.07346648,0.07346648,-0.89975799,1376.4135,2925.0339) " xlink:href="#g3770" y="0" x="0"/>
  <use fill="#ffffff" stroke="#ffffff" filter="url(#filter4864)" height="468" width="468" id="use4862" transform="matrix(-0.21963577,-2.0760986,1.8772085,-0.19859468,663.50735,3609.0035) " xlink:href="#g3770" y="0" x="0"/>
  <use fill="#ffffff" stroke="#ffffff" height="468" width="468" id="use4868" transform="matrix(0.65102031,0.83821752,-0.83821752,0.65102031,1437.9873,2742.6543) " xlink:href="#g3770" y="0" x="0"/>
  <use fill="#ffffff" stroke="#ffffff" filter="url(#filter4872)" height="468" width="468" id="use4870" transform="matrix(-1.456734,1.1079581,-1.2895704,-1.6955162,3246.6721,1136.4093) " xlink:href="#g3770" y="0" x="0"/>
  <use fill="#ffffff" stroke="#ffffff" filter="url(#filter4878)" height="468" width="468" id="use4876" transform="matrix(-2.2142485,2.1510606,-2.2207404,-2.2859752,4680.9883,1613.3265) " xlink:href="#g3770" y="0" x="0"/>
  <use fill="#ffffff" stroke="#ffffff" filter="url(#filter4884)" height="468" width="468" id="use4882" transform="matrix(-0.90125469,1.6430712,-1.9061004,-1.045531,3519.1469,1556.9977) " xlink:href="#g3770" y="0" x="0"/>
  <use fill="#ffffff" stroke="#ffffff" filter="url(#filter4890)" height="468" width="468" id="use4888" transform="matrix(-2.7247715,1.1720012,-1.2115139,-2.8166342,4101.1563,3129.2317) " xlink:href="#g3770" y="0" x="0"/>
  <use fill="#ffffff" stroke="#ffffff" filter="url(#filter4896)" height="468" width="468" id="use4894" transform="matrix(-0.9354552,-1.6620783,1.9235149,-1.0825976,1611.054,3499.3564) " xlink:href="#g3770" y="0" x="0"/>
  <use fill="#ffffff" stroke="#ffffff" filter="url(#filter4902)" height="468" width="468" id="use4900" transform="matrix(2.9433245,-0.49035877,0.5067923,3.041965,1575.9855,1370.8046) " xlink:href="#g3770" y="0" x="0"/>
  <use fill="#ffffff" stroke="#ffffff" filter="url(#filter4908)" height="468" width="468" id="use4906" transform="matrix(0.69944085,1.6852736,-1.9623573,0.81443919,3115.0659,2400.529) " xlink:href="#g3770" y="0" x="0"/>
  <use fill="#ffffff" stroke="#ffffff" height="468" width="468" id="use4912" transform="matrix(-0.89284319,0.13040225,-0.13040225,-0.89284319,2447.9226,991.56053) " xlink:href="#g3770" y="0" x="0"/>
  <use fill="#ffffff" stroke="#ffffff" filter="url(#filter4916)" height="468" width="468" id="use4914" transform="matrix(-1.6579103,-1.3066596,1.1828602,-1.5008317,2504.5332,2219.2519) " xlink:href="#g3770" y="0" x="0"/>
  <use fill="#ffffff" stroke="#ffffff" filter="url(#filter4922)" height="468" width="468" id="use4920" transform="matrix(-0.69149065,-0.79713771,0.79713771,-0.69149065,1894.4035,2093.5346) " xlink:href="#g3770" y="0" x="0"/>
  <use fill="#ffffff" stroke="#ffffff" filter="url(#filter4928)" height="468" width="468" id="use4926" transform="matrix(-0.75518575,-1.8883828,1.7026818,-0.6809218,2048.9912,2881.1087) " xlink:href="#g3770" y="0" x="0"/>
  <use fill="#ffffff" stroke="#ffffff" filter="url(#filter4934)" height="468" width="468" id="use4932" transform="matrix(0.22030618,-0.91552711,0.91552711,0.22030618,1801.3871,2566.8912) " xlink:href="#g3770" y="0" x="0"/>
  <use fill="#ffffff" stroke="#ffffff" filter="url(#filter4940)" height="468" width="468" id="use4938" transform="matrix(2.0962045,0.32581532,-0.29509794,1.8985775,2305.0712,1749.382) " xlink:href="#g3770" y="0" x="0"/>
  <use fill="#ffffff" stroke="#ffffff" height="468" width="468" id="use4944" transform="matrix(-0.13199637,0.99923611,-0.99923611,-0.13199637,2825.5857,3120.8346) " xlink:href="#g3770" y="0" x="0"/>
 </g>
</svg>