<?xml version="1.0" encoding="utf-8"?>
<!-- Generator: Adobe Illustrator 16.0.4, SVG Export Plug-In . SVG Version: 6.00 Build 0)  -->
<!DOCTYPE svg PUBLIC "-//W3C//DTD SVG 1.1 Tiny//EN" "http://www.w3.org/Graphics/SVG/1.1/DTD/svg11-tiny.dtd">
<svg version="1.1" baseProfile="tiny" id="Layer_1" xmlns="http://www.w3.org/2000/svg" xmlns:xlink="http://www.w3.org/1999/xlink"
	 x="0px" y="0px" width="505.5869px" height="236.1157px" viewBox="0 0 505.5869 236.1157" xml:space="preserve">
<g>
	<path d="M317.1777,208.1196h4.1279v-4.1279h-4.1279V208.1196z M306.9053,208.6001c4.1279,0,6.624-2.208,6.624-5.4717
		c0-2.2402-1.248-3.8408-4.1602-4.5762l-2.752-0.7041c-1.8877-0.4805-2.8477-1.1201-2.8477-2.5918
		c0-1.0879,0.7998-2.2725,3.2002-2.2725c2.1758,0,3.2314,1.2803,3.8076,2.4004l2.5283-1.1201
		c-0.8965-2.0166-2.6562-3.7119-6.3682-3.7119c-3.8721,0-6.0801,2.3994-6.0801,4.8955c0,2.8164,1.7275,4.2881,4.6084,5.0244
		l2.3672,0.6074c2.2402,0.5762,2.8164,1.2803,2.8164,2.5283c0,1.5684-1.3438,2.5918-3.7119,2.5918
		c-2.3359,0-3.5518-1.3115-4.2881-2.9121l-2.5283,1.0566C301.1777,206.8716,302.9053,208.6001,306.9053,208.6001 M292.9531,208.1196
		h2.9766v-24.8955h-2.9766V208.1196z M279.001,208.5679c3.2979,0,4.7373-1.4082,5.8242-3.04l0.1611,2.5918h2.8477
		c0,0-0.1602-2.624-0.1602-4.5117v-6.3359c0-4.96-2.5918-6.752-6.624-6.752c-4.6074,0-6.4648,2.5918-6.8789,4.5762l2.6875,0.7998
		c0.4482-1.4717,1.375-2.9121,3.9355-2.9121c3.3594,0,4,1.9844,4,4.4805v0.4473c0,0-1.4082-0.0957-3.0088-0.0957
		c-4.96,0-8.416,1.8564-8.416,5.6641C273.3691,206.6157,275.8018,208.5679,279.001,208.5679 M279.6426,206.1685
		c-1.7598,0-3.1689-1.0566-3.1689-2.7842c0-2.0801,1.2158-3.2324,5.5361-3.2324c1.4717,0,2.7842,0.0645,2.7842,0.0645v0.3838
		C284.7939,202.52,283.8018,206.1685,279.6426,206.1685 M265.9463,208.1196h2.9766v-17.1191h-2.9766V208.1196z M265.7549,187.3843
		h3.3594v-3.4238h-3.3594V187.3843z M253.5303,208.1196h2.9761v-6.9434c0-2.6562,0-3.5205,0.3203-4.6406
		c0.5757-1.9834,2.272-2.8799,3.936-2.8799c0.8955,0,1.5039,0.0645,1.5039,0.0645v-3.0723c-2.5283,0-4.6724,0.7998-5.7603,3.4561
		h-0.0957v-3.1035h-2.8804V208.1196z M241.6582,192.9517c2.9121,0,4.2563,2.0801,4.4482,4.8965h-9.1519
		C237.1782,195.3521,238.6504,192.9517,241.6582,192.9517 M241.7866,208.6001c3.4556,0,5.7598-1.5996,6.9438-3.6797l-2.3682-1.2803
		c-0.9917,1.4717-2.208,2.4316-4.3521,2.4316c-3.1357,0-5.0879-2.5273-5.1196-5.8877h12.48c0-5.3438-1.9521-9.6318-7.52-9.6318
		c-5.2163,0-8.064,4-8.064,9.0879C233.7866,204.9204,236.6665,208.6001,241.7866,208.6001 M220.8267,193.3364h2.9438l-0.064,10.5918
		c0,3.2002,1.0562,4.5439,4.3521,4.5439c0.7681,0,1.4717-0.0645,2.688-0.3203l-0.1279-2.208c0,0-0.8003,0.1279-1.6001,0.1279
		c-1.6001,0-2.3042-0.416-2.3042-2.1758v-10.5596h3.8403v-2.3359h-3.9043v-4.6406h-2.688l-0.1919,4.6406h-2.9438V193.3364z
		 M208.9546,208.5679c3.2959,0,4.7358-1.4082,5.8237-3.04l0.1602,2.5918h2.8481c0,0-0.1602-2.624-0.1602-4.5117v-6.3359
		c0-4.96-2.5918-6.752-6.624-6.752c-4.6079,0-6.4639,2.5918-6.8799,4.5762l2.688,0.7998c0.4478-1.4717,1.376-2.9121,3.936-2.9121
		c3.3599,0,4,1.9844,4,4.4805v0.4473c0,0-1.4082-0.0957-3.0083-0.0957c-4.96,0-8.416,1.8564-8.416,5.6641
		C203.3223,206.6157,205.7544,208.5679,208.9546,208.5679 M209.5942,206.1685c-1.7598,0-3.168-1.0566-3.168-2.7842
		c0-2.0801,1.2163-3.2324,5.5361-3.2324c1.4722,0,2.7842,0.0645,2.7842,0.0645v0.3838
		C214.7466,202.52,213.7544,206.1685,209.5942,206.1685 M173.4663,208.1196h2.9761v-9.8232c0-3.5527,1.856-5.1201,4.4482-5.1201
		c2.0801,0,3.8721,1.0557,3.8721,4.7041v10.2393h2.9756v-9.8232c0-3.5527,1.856-5.1201,4.4482-5.1201
		c2.0801,0,3.8721,1.0557,3.8721,4.7041v10.2393h2.9761v-11.1357c0-3.6797-1.9844-6.4316-5.9521-6.4316
		c-2.8799,0-4.5439,1.4395-5.8882,3.4238c-0.832-2.0479-2.624-3.4238-5.4077-3.4238c-2.8804,0-4.48,1.5674-5.4399,2.9756v-2.5273
		h-2.8804V208.1196z M152.8906,208.1196h2.9756v-6.9434c0-2.6562,0-3.5205,0.3203-4.6406c0.5762-1.9834,2.272-2.8799,3.936-2.8799
		c0.896,0,1.5039,0.0645,1.5039,0.0645v-3.0723c-2.5278,0-4.6719,0.7998-5.7603,3.4561h-0.0957v-3.1035h-2.8799V208.1196z
		 M140.2515,206.1685c-3.4878,0-5.1201-2.7207-5.1201-6.5928s1.5679-6.5918,5.0562-6.5918c3.4878,0,5.1201,2.7197,5.1201,6.5918
		S143.7393,206.1685,140.2515,206.1685 M140.0913,208.6001c5.3442,0,8.3203-3.9043,8.3203-9.0244
		c0-5.1836-2.7202-9.0234-8.064-9.0234c-5.3442,0-8.3203,3.9033-8.3203,9.0234
		C132.0273,204.7603,134.7476,208.6001,140.0913,208.6001 M115.5474,213.0483c3.0723-0.8008,4.48-2.6562,4.48-5.4727v-3.584h-4.1279
		v4.1279h1.9521c0,2.0801-1.0879,2.9121-2.752,3.4248L115.5474,213.0483z M105.6274,208.6001c4.1279,0,6.624-2.208,6.624-5.4717
		c0-2.2402-1.248-3.8408-4.1602-4.5762l-2.752-0.7041c-1.8877-0.4805-2.8481-1.1201-2.8481-2.5918
		c0-1.0879,0.8003-2.2725,3.2002-2.2725c2.1763,0,3.2319,1.2803,3.8081,2.4004l2.5278-1.1201
		c-0.896-2.0166-2.6558-3.7119-6.3677-3.7119c-3.8721,0-6.0801,2.3994-6.0801,4.8955c0,2.8164,1.728,4.2881,4.6079,5.0244
		l2.3682,0.6074c2.2397,0.5762,2.8159,1.2803,2.8159,2.5283c0,1.5684-1.3442,2.5918-3.7119,2.5918
		c-2.3364,0-3.5522-1.3115-4.2881-2.9121l-2.5283,1.0566C99.8994,206.8716,101.6274,208.6001,105.6274,208.6001 M88.1553,208.1196
		h2.9761v-6.9434c0-2.6562,0-3.5205,0.3203-4.6406c0.5757-1.9834,2.272-2.8799,3.936-2.8799c0.896,0,1.5039,0.0645,1.5039,0.0645
		v-3.0723c-2.5283,0-4.6724,0.7998-5.7603,3.4561h-0.0957v-3.1035h-2.8804V208.1196z M74.3955,208.5679
		c3.2959,0,4.7681-2.0479,5.2798-2.9121v2.4639h2.8804v-17.1191h-2.9761v9.9199c0,2.624-0.9922,5.0557-4.2881,5.0557
		c-2.8799,0-3.7119-2.1758-3.7119-4.7363v-10.2393h-2.9761v10.8477C68.6035,205.8159,70.6836,208.5679,74.3955,208.5679
		 M56.1235,206.1685c-3.4883,0-5.1201-2.7207-5.1201-6.5928s1.5679-6.5918,5.0562-6.5918c3.4878,0,5.1201,2.7197,5.1201,6.5918
		S59.6113,206.1685,56.1235,206.1685 M55.9634,208.6001c5.3442,0,8.3203-3.9043,8.3203-9.0244c0-5.1836-2.7202-9.0234-8.0645-9.0234
		c-5.3438,0-8.3198,3.9033-8.3198,9.0234C47.8994,204.7603,50.6196,208.6001,55.9634,208.6001 M40.4434,208.1196h2.9761v-24.8955
		h-2.9761V208.1196z M27.8047,206.1685c-3.4883,0-5.1201-2.7207-5.1201-6.5928s1.5679-6.5918,5.0557-6.5918
		c3.4883,0,5.1201,2.7197,5.1201,6.5918S31.2925,206.1685,27.8047,206.1685 M27.6445,208.6001c5.3438,0,8.3198-3.9043,8.3198-9.0244
		c0-5.1836-2.7197-9.0234-8.064-9.0234c-5.3438,0-8.3198,3.9033-8.3198,9.0234C19.5806,204.7603,22.3003,208.6001,27.6445,208.6001
		 M9.5645,208.6001c3.9678,0,5.9521-1.8564,7.2002-4.3838l-2.4321-1.0879c-0.8643,1.6953-2.1118,2.9756-4.6079,2.9756
		c-3.4561,0-5.1523-2.7197-5.1523-6.5918c0-3.584,1.792-6.4961,5.0562-6.4961c2.5923,0,3.52,1.6318,4.1279,2.8477l2.752-1.1836
		c-0.7358-1.7598-2.5278-4.1279-6.624-4.1279c-5.6636,0-8.3521,4.3838-8.3521,9.3438
		C1.5322,204.8237,4.0605,208.6001,9.5645,208.6001"/>
	<path d="M246.7773,177.0479c3.0723-0.7998,4.48-2.6558,4.48-5.4717v-3.584h-4.1279v4.1279h1.9521
		c0,2.0801-1.0879,2.9121-2.752,3.4238L246.7773,177.0479z M236.8574,172.6001c4.1279,0,6.624-2.208,6.624-5.4722
		c0-2.2397-1.248-3.8398-4.1602-4.5757l-2.752-0.7041c-1.8877-0.48-2.8477-1.1201-2.8477-2.5923c0-1.0879,0.7998-2.272,3.1997-2.272
		c2.1763,0,3.2319,1.2803,3.8081,2.4004l2.5278-1.1201c-0.896-2.0161-2.6558-3.7119-6.3677-3.7119
		c-3.8721,0-6.0801,2.3999-6.0801,4.8955c0,2.8164,1.728,4.2881,4.6079,5.0244l2.3682,0.6079
		c2.2397,0.5757,2.8159,1.2798,2.8159,2.5278c0,1.5684-1.3442,2.5923-3.7119,2.5923c-2.3364,0-3.5522-1.312-4.2881-2.9121
		l-2.5283,1.0562C231.1294,170.8721,232.8574,172.6001,236.8574,172.6001 M219.6094,156.9521c2.9121,0,4.2559,2.0801,4.4482,4.896
		h-9.1523C215.1294,159.3521,216.6016,156.9521,219.6094,156.9521 M219.7373,172.6001c3.4561,0,5.7603-1.6001,6.9443-3.6802
		l-2.3682-1.2798c-0.9922,1.4717-2.208,2.4316-4.3521,2.4316c-3.1357,0-5.0879-2.5278-5.1201-5.8877h12.48
		c0-5.3442-1.9517-9.6318-7.52-9.6318c-5.2158,0-8.064,4-8.064,9.0879C211.7373,168.9199,214.6177,172.6001,219.7373,172.6001
		 M192.3145,179.2241h2.9761v-9.1523c0.6079,1.1523,2.208,2.5283,4.7681,2.5283c5.1196,0,8.1597-3.9043,8.1597-9.1841
		c0-4.3521-2.0156-8.8638-7.3916-8.8638c-3.0083,0-4.8003,1.7598-5.6641,3.2959V155h-2.8481V179.2241z M199.9624,170.0718
		c-3.1997,0-4.9277-2.5918-4.9277-6.4316s1.5996-6.5601,5.1836-6.5601c3.168,0,4.8643,2.3677,4.8643,6.4639
		C205.0825,167.1279,203.5146,170.0718,199.9624,170.0718 M178.3623,172.5679c3.2959,0,4.7363-1.4077,5.8242-3.04l0.1602,2.5923
		h2.8477c0,0-0.1597-2.624-0.1597-4.5122v-6.3359c0-4.96-2.5923-6.752-6.624-6.752c-4.6084,0-6.4644,2.5918-6.8804,4.5762
		l2.688,0.7998c0.4482-1.4722,1.376-2.9121,3.936-2.9121c3.3604,0,4,1.9844,4,4.48v0.4482c0,0-1.4077-0.0962-3.0078-0.0962
		c-4.96,0-8.416,1.856-8.416,5.6641C172.7305,170.6162,175.1626,172.5679,178.3623,172.5679 M179.0024,170.168
		c-1.7598,0-3.168-1.0562-3.168-2.7837c0-2.0801,1.2158-3.2324,5.5361-3.2324c1.4717,0,2.7837,0.064,2.7837,0.064v0.3843
		C184.1543,166.52,183.1626,170.168,179.0024,170.168 M157.1465,147.2241h-2.9761v24.896h2.9761v-9.8242
		c0-3.5518,1.856-5.1196,4.4478-5.1196c2.0801,0,3.8721,1.0557,3.8721,4.7036v10.2402h2.9761v-11.1362
		c0-3.6797-1.9839-6.4316-5.9521-6.4316c-2.8799,0-4.48,1.5679-5.3438,2.9116V147.2241z M143.0986,172.6001
		c4.1279,0,6.624-2.208,6.624-5.4722c0-2.2397-1.248-3.8398-4.1602-4.5757l-2.752-0.7041c-1.8882-0.48-2.8481-1.1201-2.8481-2.5923
		c0-1.0879,0.8003-2.272,3.2002-2.272c2.1758,0,3.2319,1.2803,3.8076,2.4004l2.5283-1.1201
		c-0.896-2.0161-2.6562-3.7119-6.3682-3.7119c-3.8721,0-6.0801,2.3999-6.0801,4.8955c0,2.8164,1.728,4.2881,4.6079,5.0244
		l2.3682,0.6079c2.2402,0.5757,2.8159,1.2798,2.8159,2.5278c0,1.5684-1.3438,2.5923-3.7119,2.5923
		c-2.3359,0-3.5518-1.312-4.2881-2.9121l-2.5278,1.0562C137.3706,170.8721,139.0986,172.6001,143.0986,172.6001 M112.8276,147.2241
		h-2.9761v24.896h2.9761v-9.8242c0-3.5518,1.856-5.1196,4.4478-5.1196c2.0801,0,3.8721,1.0557,3.8721,4.7036v10.2402h2.9761
		v-11.1362c0-3.6797-1.9839-6.4316-5.9521-6.4316c-2.8799,0-4.48,1.5679-5.3438,2.9116V147.2241z M95.6113,157.3359h2.9443
		l-0.0645,10.5923c0,3.1997,1.0562,4.5439,4.3521,4.5439c0.7681,0,1.4722-0.064,2.688-0.3203l-0.1279-2.208
		c0,0-0.7998,0.1279-1.6001,0.1279c-1.5996,0-2.3037-0.416-2.3037-2.1758v-10.5601h3.8398V155h-3.9038v-4.6401h-2.688L98.5557,155
		h-2.9443V157.3359z M88.9556,172.1201h2.9761V155h-2.9761V172.1201z M88.7637,151.3843h3.3599V147.96h-3.3599V151.3843z
		 M76.6675,172.1201h3.4878L85.4673,155h-2.9761l-3.3276,11.7759c-0.3521,1.248-0.5439,2.4961-0.5439,2.4961h-0.1284
		c0,0-0.1919-1.248-0.5757-2.5278L74.3633,155h-2.688l-3.5518,11.7441c-0.3843,1.248-0.5762,2.3037-0.5762,2.3037h-0.0957
		c0,0-0.1284-1.1196-0.48-2.3037L63.6436,155h-3.1362l5.248,17.1201h3.2959l3.2642-10.5278
		c0.4482-1.4082,0.5439-2.2402,0.5439-2.2402h0.0962c0,0,0.0957,0.832,0.5117,2.1758L76.6675,172.1201z M40.1875,157.3359h2.9438
		l-0.064,10.5923c0,3.1997,1.0562,4.5439,4.3521,4.5439c0.7681,0,1.4722-0.064,2.688-0.3203l-0.1279-2.208
		c0,0-0.7998,0.1279-1.6001,0.1279c-1.6001,0-2.3037-0.416-2.3037-2.1758v-10.5601h3.8398V155h-3.9043v-4.6401h-2.688L43.1313,155
		h-2.9438V157.3359z M29.4683,170.168c-3.4878,0-5.1196-2.7202-5.1196-6.5918c0-3.8721,1.5679-6.5923,5.0557-6.5923
		c3.4883,0,5.1201,2.7202,5.1201,6.5923C34.5244,167.4478,32.9565,170.168,29.4683,170.168 M29.3086,172.6001
		c5.3438,0,8.3198-3.9043,8.3198-9.0239c0-5.1841-2.7197-9.0239-8.064-9.0239c-5.3438,0-8.3198,3.9038-8.3198,9.0239
		C21.2446,168.7603,23.9644,172.6001,29.3086,172.6001 M2.6523,172.1201h2.9761v-9.8242c0-3.5518,1.856-5.1196,4.4482-5.1196
		c2.0796,0,3.8716,1.0557,3.8716,4.7036v10.2402h2.9761v-11.1362c0-3.6797-1.9839-6.4316-5.9517-6.4316
		c-2.8804,0-4.48,1.5679-5.4404,2.9756V155H2.6523V172.1201z"/>
	<path d="M297.4971,141.0479c3.0723-0.7998,4.4805-2.6558,4.4805-5.4717v-3.584h-4.1279v4.1279h1.9521
		c0,2.0801-1.0879,2.9121-2.752,3.4238L297.4971,141.0479z M284.9219,143.5439c6.1113,0,8.1279-3.2642,8.1279-8.2881V119h-2.8486
		v2.5278c-0.7041-1.3438-2.208-2.9756-5.3115-2.9756c-5.0566,0-7.7441,4.064-7.7441,8.9917c0,4.9282,2.5918,8.7041,7.3916,8.7041
		c2.9766,0,4.6084-1.376,5.5361-3.2642v3.1362c0,3.3599-1.4717,5.0239-5.1836,5.0239c-2.4639,0-3.8086-1.0239-4.4805-2.9438
		l-2.8154,0.8638C278.4258,141.4961,280.3135,143.5439,284.9219,143.5439 M285.2734,133.688c-3.4561,0-4.9922-2.5601-4.9922-6.3037
		c0-3.5522,1.6318-6.3682,5.1201-6.3682c3.2002,0,4.9277,2.6558,4.9277,6.272C290.3291,131.1279,288.5371,133.688,285.2734,133.688
		 M258.5532,136.1201h2.9761v-9.8242c0-3.5518,1.8564-5.1196,4.4482-5.1196c2.0801,0,3.8721,1.0557,3.8721,4.7036v10.2402h2.9756
		v-11.1362c0-3.6797-1.9834-6.4316-5.9521-6.4316c-2.8799,0-4.4795,1.5679-5.4395,2.9756V119h-2.8804V136.1201z M249.9775,136.1201
		h2.9761V119h-2.9761V136.1201z M249.7856,115.3843h3.3599V111.96h-3.3599V115.3843z M230.2666,136.1201h2.9756v-9.8242
		c0-3.5518,1.8564-5.1196,4.4482-5.1196c2.0801,0,3.8721,1.0557,3.8721,4.7036v10.2402h2.9761v-11.1362
		c0-3.6797-1.9839-6.4316-5.9521-6.4316c-2.8799,0-4.48,1.5679-5.4399,2.9756V119h-2.8799V136.1201z M216.3145,136.5679
		c3.2959,0,4.7358-1.4077,5.8242-3.04l0.1597,2.5923h2.8481c0,0-0.1602-2.624-0.1602-4.5122v-6.3359
		c0-4.96-2.5918-6.752-6.624-6.752c-4.6079,0-6.4639,2.5918-6.8799,4.5762l2.688,0.7998c0.4482-1.4722,1.376-2.9121,3.936-2.9121
		c3.3599,0,4,1.9844,4,4.48v0.4482c0,0-1.4082-0.0962-3.0078-0.0962c-4.96,0-8.416,1.856-8.416,5.6641
		C210.6826,134.6162,213.1143,136.5679,216.3145,136.5679 M216.9546,134.168c-1.7603,0-3.168-1.0562-3.168-2.7837
		c0-2.0801,1.2158-3.2324,5.5356-3.2324c1.4722,0,2.7842,0.064,2.7842,0.064v0.3843
		C222.1064,130.52,221.1143,134.168,216.9546,134.168 M199.9624,120.9521c2.9121,0,4.2559,2.0801,4.4482,4.896h-9.1523
		C195.4824,123.3521,196.9546,120.9521,199.9624,120.9521 M200.0903,136.6001c3.4561,0,5.7603-1.6001,6.9443-3.6802l-2.3682-1.2798
		c-0.9922,1.4717-2.208,2.4316-4.3521,2.4316c-3.1362,0-5.0879-2.5278-5.1201-5.8877h12.48c0-5.3442-1.9517-9.6318-7.52-9.6318
		c-5.2158,0-8.064,4-8.064,9.0879C192.0903,132.9199,194.9707,136.6001,200.0903,136.6001 M162.2026,136.1201h2.9756v-9.8242
		c0-3.5518,1.8564-5.1196,4.4482-5.1196c2.0801,0,3.8721,1.0557,3.8721,4.7036v10.2402h2.9761v-9.8242
		c0-3.5518,1.856-5.1196,4.4478-5.1196c2.0801,0,3.8721,1.0557,3.8721,4.7036v10.2402h2.9761v-11.1362
		c0-3.6797-1.9839-6.4316-5.9521-6.4316c-2.8799,0-4.5439,1.4399-5.8877,3.4238c-0.832-2.0479-2.624-3.4238-5.4082-3.4238
		c-2.8799,0-4.48,1.5679-5.4399,2.9756V119h-2.8799V136.1201z M137.3076,111.2241h-2.9761v24.896h2.9761v-9.8242
		c0-3.5518,1.856-5.1196,4.4478-5.1196c2.0801,0,3.8721,1.0557,3.8721,4.7036v10.2402h2.9761v-11.1362
		c0-3.6797-1.9839-6.4316-5.9521-6.4316c-2.8799,0-4.48,1.5679-5.3438,2.9116V111.2241z M120.0913,121.3359h2.9443l-0.064,10.5923
		c0,3.1997,1.0557,4.5439,4.3516,4.5439c0.7681,0,1.4722-0.064,2.688-0.3203l-0.1279-2.208c0,0-0.7998,0.1279-1.5996,0.1279
		c-1.6001,0-2.3042-0.416-2.3042-2.1758v-10.5601h3.8398V119h-3.9038v-4.6401h-2.688L123.0356,119h-2.9443V121.3359z
		 M113.4355,136.1201h2.9761V119h-2.9761V136.1201z M113.2437,115.3843h3.3599V111.96h-3.3599V115.3843z M101.1475,136.1201h3.4878
		L109.9473,119h-2.9756l-3.3281,11.7759c-0.3521,1.248-0.5439,2.4961-0.5439,2.4961h-0.1279c0,0-0.1924-1.248-0.5762-2.5278
		L98.8433,119h-2.688l-3.5518,11.7441c-0.3843,1.248-0.5762,2.3037-0.5762,2.3037h-0.0957c0,0-0.1284-1.1196-0.48-2.3037
		L88.1235,119h-3.1362l5.248,17.1201h3.2959l3.2642-10.5278c0.4482-1.4082,0.5439-2.2402,0.5439-2.2402h0.0962
		c0,0,0.0957,0.832,0.5117,2.1758L101.1475,136.1201z M71.9326,136.1201h3.6797l-7.2319-10.0483L74.4927,119h-3.52l-6.9761,8.1919
		v-15.9678h-2.9761v24.896h2.9761v-5.2163l2.272-2.688L71.9326,136.1201z M48.6045,136.1201h2.9761v-6.9438
		c0-2.6562,0-3.5205,0.3198-4.6401c0.5762-1.9839,2.272-2.8804,3.936-2.8804c0.896,0,1.5039,0.0645,1.5039,0.0645v-3.0723
		c-2.5278,0-4.6719,0.7998-5.7598,3.4561h-0.0962V119h-2.8799V136.1201z M35.9644,134.168c-3.4878,0-5.1201-2.7202-5.1201-6.5918
		c0-3.8721,1.5684-6.5923,5.0562-6.5923c3.4883,0,5.1201,2.7202,5.1201,6.5923C41.0205,131.4478,39.4526,134.168,35.9644,134.168
		 M35.8047,136.6001c5.3438,0,8.3198-3.9043,8.3198-9.0239c0-5.1841-2.7202-9.0239-8.064-9.0239
		c-5.3442,0-8.3203,3.9038-8.3203,9.0239C27.7402,132.7603,30.4604,136.6001,35.8047,136.6001 M16.7324,136.1201h3.4883L25.5322,119
		h-2.9756l-3.3281,11.7759c-0.3521,1.248-0.5439,2.4961-0.5439,2.4961h-0.1279c0,0-0.1924-1.248-0.5762-2.5278L14.4282,119h-2.688
		l-3.5518,11.7441c-0.3838,1.248-0.5762,2.3037-0.5762,2.3037H7.5166c0,0-0.1279-1.1196-0.48-2.3037L3.7085,119H0.5723
		l5.248,17.1201h3.2964l3.2637-10.5278c0.4482-1.4082,0.5439-2.2402,0.5439-2.2402h0.0962c0,0,0.0962,0.832,0.5117,2.1758
		L16.7324,136.1201z"/>
	<path d="M439.6396,100.6001c4.1279,0,6.624-2.208,6.624-5.4722c0-2.2397-1.248-3.8398-4.1602-4.5757l-2.752-0.7041
		c-1.8877-0.48-2.8477-1.1201-2.8477-2.5923c0-1.0879,0.7998-2.272,3.1992-2.272c2.1768,0,3.2324,1.2803,3.8086,2.3999
		l2.5273-1.1196c-0.8955-2.0161-2.6553-3.7119-6.3672-3.7119c-3.8721,0-6.0801,2.3999-6.0801,4.8955
		c0,2.8164,1.7275,4.2881,4.6074,5.0244l2.3682,0.6079c2.2402,0.5757,2.8164,1.2798,2.8164,2.5278
		c0,1.5684-1.3447,2.5923-3.7119,2.5923c-2.3369,0-3.5527-1.312-4.2881-2.9121l-2.5283,1.0562
		C433.9111,98.8721,435.6396,100.6001,439.6396,100.6001 M420.0234,85.3359h2.9443l-0.0645,10.5923
		c0,3.1997,1.0566,4.5439,4.3525,4.5439c0.7676,0,1.4717-0.064,2.6875-0.3203l-0.1279-2.208c0,0-0.7998,0.1279-1.5996,0.1279
		c-1.6006,0-2.3047-0.416-2.3047-2.1758V85.3359h3.8398V83h-3.9033v-4.6401h-2.6885L422.9678,83h-2.9443V85.3359z
		 M410.8711,100.6001c4.1279,0,6.624-2.208,6.624-5.4722c0-2.2397-1.248-3.8398-4.1602-4.5757l-2.752-0.7041
		c-1.8877-0.48-2.8477-1.1201-2.8477-2.5923c0-1.0879,0.7998-2.272,3.2002-2.272c2.1758,0,3.2314,1.2803,3.8076,2.3999
		l2.5283-1.1196c-0.8965-2.0161-2.6562-3.7119-6.3682-3.7119c-3.8721,0-6.0801,2.3999-6.0801,4.8955
		c0,2.8164,1.7285,4.2881,4.6084,5.0244l2.3682,0.6079c2.2393,0.5757,2.8154,1.2798,2.8154,2.5278
		c0,1.5684-1.3438,2.5923-3.7119,2.5923c-2.3359,0-3.5518-1.312-4.2881-2.9121l-2.5273,1.0562
		C405.1436,98.8721,406.8711,100.6001,410.8711,100.6001 M396.9209,100.1201h2.9756V83h-2.9756V100.1201z M396.7285,79.3838h3.3604
		V75.96h-3.3604V79.3838z M382.6807,85.3359h2.9434l-0.0635,10.5923c0,3.1997,1.0557,4.5439,4.3516,4.5439
		c0.7686,0,1.4727-0.064,2.6885-0.3203l-0.1279-2.208c0,0-0.7998,0.1279-1.6006,0.1279c-1.5996,0-2.3037-0.416-2.3037-2.1758
		V85.3359h3.8398V83h-3.9033v-4.6401h-2.6885L385.624,83h-2.9434V85.3359z M372.1846,100.1201h2.9756v-6.9438
		c0-2.6562,0-3.5205,0.3203-4.6401c0.5762-1.9839,2.2725-2.8804,3.9355-2.8804c0.8965,0,1.5049,0.0645,1.5049,0.0645v-3.0723
		c-2.5283,0-4.6729,0.7998-5.7607,3.4561h-0.0957V83h-2.8799V100.1201z M358.2324,100.5679c3.2959,0,4.7363-1.4077,5.8242-3.04
		l0.1602,2.5923h2.8477c0,0-0.1602-2.624-0.1602-4.5122V89.272c0-4.96-2.5918-6.752-6.624-6.752
		c-4.6074,0-6.4639,2.5918-6.8799,4.5762l2.6885,0.7998c0.4473-1.4722,1.376-2.9121,3.9355-2.9121c3.3604,0,4,1.9844,4,4.48v0.4482
		c0,0-1.4082-0.0962-3.0078-0.0962c-4.96,0-8.416,1.856-8.416,5.6641C352.6006,98.6162,355.0322,100.5679,358.2324,100.5679
		 M358.8721,98.168c-1.7598,0-3.168-1.0562-3.168-2.7842c0-2.0796,1.2168-3.2319,5.5361-3.2319c1.4727,0,2.7842,0.064,2.7842,0.064
		v0.3843C364.0244,94.52,363.0322,98.168,358.8721,98.168 M331.3525,85.3359h2.9443l-0.0645,10.5923
		c0,3.1997,1.0557,4.5439,4.3525,4.5439c0.7676,0,1.4717-0.064,2.6875-0.3203l-0.1279-2.208c0,0-0.7998,0.1279-1.5996,0.1279
		c-1.6006,0-2.3047-0.416-2.3047-2.1758V85.3359h3.8398V83h-3.9033v-4.6401h-2.6885L334.2969,83h-2.9443V85.3359z
		 M319.4805,100.5679c3.2959,0,4.7363-1.4077,5.8242-3.04l0.1602,2.5923h2.8477c0,0-0.1602-2.624-0.1602-4.5122V89.272
		c0-4.96-2.5918-6.752-6.624-6.752c-4.6074,0-6.4639,2.5918-6.8799,4.5762l2.6885,0.7998c0.4473-1.4722,1.376-2.9121,3.9355-2.9121
		c3.3604,0,4,1.9844,4,4.48v0.4482c0,0-1.4082-0.0962-3.0078-0.0962c-4.96,0-8.416,1.856-8.416,5.6641
		C313.8486,98.6162,316.2803,100.5679,319.4805,100.5679 M320.1201,98.168c-1.7598,0-3.168-1.0562-3.168-2.7842
		c0-2.0796,1.2168-3.2319,5.5361-3.2319c1.4717,0,2.7842,0.064,2.7842,0.064v0.3843C325.2725,94.52,324.2803,98.168,320.1201,98.168
		 M298.2656,75.2241h-2.9766v24.896h2.9766v-9.8242c0-3.5518,1.8555-5.1196,4.4482-5.1196c2.0801,0,3.8711,1.0557,3.8711,4.7036
		v10.2402h2.9766V88.9839c0-3.6797-1.9844-6.4316-5.9521-6.4316c-2.8799,0-4.4795,1.5679-5.3438,2.9116V75.2241z M281.0498,85.3359
		h2.9434l-0.0635,10.5923c0,3.1997,1.0557,4.5439,4.3516,4.5439c0.7686,0,1.4727-0.064,2.6885-0.3203l-0.1279-2.208
		c0,0-0.8008,0.1279-1.6006,0.1279c-1.5996,0-2.3037-0.416-2.3037-2.1758V85.3359h3.8398V83h-3.9043v-4.6401h-2.6875L283.9932,83
		h-2.9434V85.3359z M261.0811,107.5439c6.1123,0,8.1289-3.2642,8.1289-8.2881V83h-2.8486v2.5278
		c-0.7041-1.3438-2.208-2.9756-5.3115-2.9756c-5.0562,0-7.7441,4.064-7.7441,8.9917c0,4.9282,2.5918,8.7041,7.3916,8.7041
		c2.9766,0,4.6084-1.376,5.5361-3.2642v3.1362c0,3.3599-1.4717,5.0239-5.1836,5.0239c-2.4644,0-3.8086-1.0239-4.4805-2.9438
		l-2.8159,0.8638C254.5854,105.4961,256.4736,107.5439,261.0811,107.5439 M261.4336,97.688c-3.4561,0-4.9922-2.5601-4.9922-6.3042
		c0-3.5518,1.6318-6.3677,5.1201-6.3677c3.2002,0,4.9277,2.6558,4.9277,6.272C266.4893,95.1279,264.6973,97.688,261.4336,97.688
		 M234.7134,100.1201h2.9761v-9.8242c0-3.5518,1.856-5.1196,4.4482-5.1196c2.0796,0,3.8716,1.0557,3.8716,4.7036v10.2402h2.9761
		V88.9839c0-3.6797-1.9839-6.4316-5.9521-6.4316c-2.8799,0-4.4795,1.5679-5.4399,2.9756V83h-2.8799V100.1201z M226.1377,100.1201
		h2.9756V83h-2.9756V100.1201z M225.9453,79.3838h3.3604V75.96h-3.3604V79.3838z M212.1855,100.6001
		c3.0718,0,4.7358-1.792,5.4717-3.1362v2.6562h2.8813v-24.896h-2.9771V85.272c-0.6719-1.312-2.3682-2.7197-4.7681-2.7197
		c-5.6001,0-8.1602,4.4795-8.1602,9.1836C204.6333,97.624,207.8335,100.6001,212.1855,100.6001 M212.6655,98.0078
		c-3.4561,0-4.896-2.6558-4.896-6.4956c0-3.7441,1.6001-6.4961,5.1201-6.4961c3.2319,0,4.9277,2.688,4.9277,6.4639
		C217.8174,95.2881,216.1216,98.0078,212.6655,98.0078 M186.0425,100.1201h2.9761v-9.8242c0-3.5518,1.856-5.1196,4.4478-5.1196
		c2.0801,0,3.8721,1.0557,3.8721,4.7036v10.2402h2.9761V88.9839c0-3.6797-1.9839-6.4316-5.9521-6.4316
		c-2.8799,0-4.48,1.5679-5.4399,2.9756V83h-2.8799V100.1201z M172.0903,100.5679c3.2959,0,4.7363-1.4077,5.8242-3.04l0.1597,2.5923
		h2.8481c0,0-0.1597-2.624-0.1597-4.5122V89.272c0-4.96-2.5923-6.752-6.624-6.752c-4.6084,0-6.4644,2.5918-6.8804,4.5762
		l2.688,0.7998c0.4482-1.4722,1.376-2.9121,3.936-2.9121c3.3604,0,4,1.9844,4,4.48v0.4482c0,0-1.4077-0.0962-3.0078-0.0962
		c-4.96,0-8.416,1.856-8.416,5.6641C166.4585,98.6162,168.8906,100.5679,172.0903,100.5679 M172.7305,98.168
		c-1.7598,0-3.168-1.0562-3.168-2.7842c0-2.0796,1.2158-3.2319,5.5361-3.2319c1.4717,0,2.7837,0.064,2.7837,0.064v0.3843
		C177.8823,94.52,176.8906,98.168,172.7305,98.168 M153.6904,85.3359h2.9438l-0.064,10.5923c0,3.1997,1.0562,4.5439,4.3521,4.5439
		c0.7681,0,1.4722-0.064,2.688-0.3203l-0.1279-2.208c0,0-0.7998,0.1279-1.6001,0.1279c-1.6001,0-2.3037-0.416-2.3037-2.1758V85.3359
		h3.8398V83h-3.9038v-4.6401h-2.688L156.6343,83h-2.9438V85.3359z M144.5386,100.6001c4.1279,0,6.624-2.208,6.624-5.4722
		c0-2.2397-1.248-3.8398-4.1602-4.5757l-2.752-0.7041c-1.8882-0.48-2.8481-1.1201-2.8481-2.5923c0-1.0879,0.8003-2.272,3.2002-2.272
		c2.1758,0,3.2319,1.2803,3.8081,2.3999l2.5278-1.1196c-0.896-2.0161-2.6562-3.7119-6.3682-3.7119
		c-3.8721,0-6.0801,2.3999-6.0801,4.8955c0,2.8164,1.728,4.2881,4.6084,5.0244l2.3677,0.6079
		c2.2402,0.5757,2.8159,1.2798,2.8159,2.5278c0,1.5684-1.3438,2.5923-3.7119,2.5923c-2.3359,0-3.5518-1.312-4.2881-2.9121
		l-2.5278,1.0562C138.8105,98.8721,140.5386,100.6001,144.5386,100.6001 M127.0664,100.1201h2.9761v-6.9438
		c0-2.6562,0-3.5205,0.3198-4.6401c0.5762-1.9839,2.272-2.8804,3.936-2.8804c0.896,0,1.5039,0.0645,1.5039,0.0645v-3.0723
		c-2.5278,0-4.6719,0.7998-5.7598,3.4561h-0.0962V83h-2.8799V100.1201z M115.1943,84.9521c2.9121,0,4.2563,2.0796,4.4482,4.896
		h-9.1523C110.7144,87.3521,112.1865,84.9521,115.1943,84.9521 M115.3223,100.6001c3.457,0,5.7603-1.6001,6.9443-3.6802
		l-2.3682-1.2798c-0.9922,1.4717-2.208,2.4316-4.3521,2.4316c-3.1357,0-5.0879-2.5278-5.1201-5.8877h12.48
		c0-5.3442-1.9517-9.6318-7.52-9.6318c-5.2158,0-8.064,4-8.064,9.0879C107.3223,96.9199,110.2026,100.6001,115.3223,100.6001
		 M94.4912,100.6001c3.0723,0,4.7363-1.792,5.4722-3.1362v2.6562h2.8799v-24.896h-2.9756V85.272
		c-0.6724-1.312-2.3682-2.7197-4.7681-2.7197c-5.6001,0-8.1602,4.4795-8.1602,9.1836
		C86.9395,97.624,90.1396,100.6001,94.4912,100.6001 M94.9717,98.0078c-3.4561,0-4.896-2.6558-4.896-6.4956
		c0-3.7441,1.5996-6.4961,5.1196-6.4961c3.2319,0,4.9282,2.688,4.9282,6.4639C100.1235,95.2881,98.4272,98.0078,94.9717,98.0078
		 M68.3477,100.1201h2.9756v-9.8242c0-3.5518,1.8564-5.1196,4.4482-5.1196c2.0801,0,3.8721,1.0557,3.8721,4.7036v10.2402h2.9761
		V88.9839c0-3.6797-1.9844-6.4316-5.9521-6.4316c-2.8799,0-4.48,1.5679-5.4399,2.9756V83h-2.8799V100.1201z M54.5874,100.5679
		c3.2959,0,4.7681-2.0479,5.2803-2.9121v2.4644h2.8799V83h-2.9761v9.9199c0,2.624-0.9922,5.0562-4.2881,5.0562
		c-2.8799,0-3.7119-2.1763-3.7119-4.7363V83h-2.9761v10.8481C48.7954,97.8159,50.8755,100.5679,54.5874,100.5679 M21.0845,100.1201
		h2.9761v-9.8242c0-3.5518,1.856-5.1196,4.4478-5.1196c2.0801,0,3.8721,1.0557,3.8721,4.7036v10.2402h2.9761V88.9839
		c0-3.6797-1.9839-6.4316-5.9521-6.4316c-2.8799,0-4.48,1.5679-5.4399,2.9756V83h-2.8799V100.1201z M7.1323,100.5679
		c3.2959,0,4.7363-1.4077,5.8242-3.04l0.1602,2.5923h2.8477c0,0-0.1597-2.624-0.1597-4.5122V89.272c0-4.96-2.5923-6.752-6.624-6.752
		c-4.6084,0-6.4644,2.5918-6.8804,4.5762l2.688,0.7998c0.4482-1.4722,1.376-2.9121,3.936-2.9121c3.3604,0,4,1.9844,4,4.48v0.4482
		c0,0-1.4077-0.0962-3.0078-0.0962c-4.96,0-8.416,1.856-8.416,5.6641C1.5005,98.6162,3.9326,100.5679,7.1323,100.5679
		 M7.7725,98.168c-1.7598,0-3.168-1.0562-3.168-2.7842c0-2.0796,1.2158-3.2319,5.5361-3.2319c1.4717,0,2.7837,0.064,2.7837,0.064
		v0.3843C12.9243,94.52,11.9326,98.168,7.7725,98.168"/>
	<path d="M315.1289,49.3359h2.9434l-0.0635,10.5923c0,3.1997,1.0557,4.5439,4.3516,4.5439c0.7686,0,1.4717-0.064,2.6885-0.3203
		l-0.1279-2.208c0,0-0.8008,0.1279-1.6006,0.1279c-1.5996,0-2.3037-0.416-2.3037-2.1758V49.3359h3.8398V47h-3.9043v-4.6401h-2.6875
		L318.0723,47h-2.9434V49.3359z M305.1777,48.9521c2.9121,0,4.2559,2.0801,4.4473,4.896h-9.1514
		C300.6973,51.3521,302.1689,48.9521,305.1777,48.9521 M305.3057,64.6001c3.4561,0,5.7598-1.6001,6.9434-3.6802l-2.3672-1.2798
		c-0.9922,1.4717-2.208,2.4316-4.3525,2.4316c-3.1357,0-5.0879-2.5278-5.1201-5.8877h12.4805c0-5.3442-1.9521-9.6318-7.5205-9.6318
		c-5.2158,0-8.0635,4-8.0635,9.0879C297.3057,60.9199,300.1855,64.6001,305.3057,64.6001 M278.7139,64.1201h2.9756v-9.8242
		c0-3.5518,1.8564-5.1196,4.4482-5.1196c2.0801,0,3.8721,1.0557,3.8721,4.7036v10.2402h2.9756V52.9839
		c0-3.6797-1.9844-6.4316-5.9521-6.4316c-2.8799,0-4.4795,1.5679-5.4395,2.9756V47h-2.8799V64.1201z M266.8418,48.9521
		c2.9121,0,4.2559,2.0801,4.4473,4.896h-9.1514C262.3613,51.3521,263.833,48.9521,266.8418,48.9521 M266.9697,64.6001
		c3.4561,0,5.7598-1.6001,6.9434-3.6802l-2.3672-1.2798c-0.9922,1.4717-2.208,2.4316-4.3525,2.4316
		c-3.1357,0-5.0879-2.5278-5.1201-5.8877h12.4805c0-5.3442-1.9521-9.6318-7.5205-9.6318c-5.2158,0-8.064,4-8.064,9.0879
		C258.9692,60.9199,261.8496,64.6001,266.9697,64.6001 M246.0093,49.3359h2.9443l-0.064,10.5923
		c0,3.1997,1.0557,4.5439,4.3516,4.5439c0.7681,0,1.4722-0.064,2.6885-0.3203l-0.1284-2.208c0,0-0.7998,0.1279-1.5996,0.1279
		c-1.6001,0-2.3042-0.416-2.3042-2.1758V49.3359h3.8398V47h-3.9038v-4.6401h-2.688L248.9536,47h-2.9443V49.3359z M228.6343,64.6001
		c3.9683,0,5.9521-1.856,7.2002-4.3843l-2.4321-1.0879c-0.8638,1.6963-2.1118,2.9761-4.6079,2.9761
		c-3.4561,0-5.1519-2.7197-5.1519-6.5918c0-3.584,1.792-6.4961,5.0557-6.4961c2.5923,0,3.52,1.6318,4.1284,2.8477l2.752-1.1836
		c-0.7363-1.7603-2.5283-4.1279-6.624-4.1279c-5.6641,0-8.3521,4.3838-8.3521,9.3438
		C220.6025,60.8242,223.1304,64.6001,228.6343,64.6001 M213.1465,64.1201h2.9761V47h-2.9761V64.1201z M212.9546,43.3843h3.3599
		V39.96h-3.3599V43.3843z M202.0742,64.6001c4.1284,0,6.624-2.208,6.624-5.4722c0-2.2397-1.2476-3.8398-4.1597-4.5757l-2.752-0.7041
		c-1.8882-0.48-2.8481-1.1201-2.8481-2.5923c0-1.0879,0.7998-2.272,3.2002-2.272c2.1758,0,3.2319,1.2803,3.8076,2.4004
		l2.5283-1.1201c-0.896-2.0161-2.6562-3.7119-6.3682-3.7119c-3.8721,0-6.0801,2.3999-6.0801,4.896
		c0,2.8159,1.728,4.2876,4.6079,5.0239l2.3682,0.6079c2.2402,0.5757,2.8159,1.2798,2.8159,2.5278
		c0,1.5684-1.3438,2.5923-3.7119,2.5923c-2.3359,0-3.5518-1.312-4.2881-2.9121l-2.5278,1.0562
		C196.3467,62.8721,198.0742,64.6001,202.0742,64.6001 M182.7466,64.5679c3.2959,0,4.7358-1.4077,5.8237-3.04l0.1602,2.5923h2.8481
		c0,0-0.1602-2.624-0.1602-4.5122V53.272c0-4.96-2.5918-6.752-6.624-6.752c-4.6079,0-6.4639,2.5918-6.8799,4.5762l2.688,0.7998
		c0.4478-1.4722,1.376-2.9121,3.936-2.9121c3.3599,0,4,1.9844,4,4.48v0.4482c0,0-1.4082-0.0962-3.0083-0.0962
		c-4.96,0-8.416,1.856-8.416,5.6641C177.1143,62.6162,179.5464,64.5679,182.7466,64.5679 M183.3862,62.168
		c-1.7598,0-3.168-1.0562-3.168-2.7837c0-2.0801,1.2163-3.2324,5.5361-3.2324c1.4722,0,2.7842,0.064,2.7842,0.064v0.3843
		C188.5386,58.52,187.5464,62.168,183.3862,62.168 M165.5303,62.0718c-3.1997,0-4.9277-2.5918-4.9277-6.4316
		s1.6001-6.5601,5.1841-6.5601c3.168,0,4.8638,2.3682,4.8638,6.4639C170.6504,59.1279,169.0825,62.0718,165.5303,62.0718
		 M165.6265,64.6001c5.6001,0,8.1602-4.1279,8.1602-9.1841c0-4.3838-2.0161-8.8638-7.3921-8.8638
		c-3.1362,0-4.7681,1.8877-5.4399,3.1357V39.2241h-3.0723v24.896h2.8481v-2.3042
		C161.3384,63.1602,162.9062,64.6001,165.6265,64.6001 M138.6504,64.6001c4.1279,0,6.624-2.208,6.624-5.4722
		c0-2.2397-1.248-3.8398-4.1602-4.5757l-2.752-0.7041c-1.8877-0.48-2.8477-1.1201-2.8477-2.5923c0-1.0879,0.7998-2.272,3.2007-2.272
		c2.1753,0,3.231,1.2803,3.8081,2.4004l2.5278-1.1201c-0.897-2.0161-2.6567-3.7119-6.3687-3.7119
		c-3.8721,0-6.0791,2.3999-6.0791,4.896c0,2.8159,1.7271,4.2876,4.6069,5.0239l2.3691,0.6079
		c2.2388,0.5757,2.8149,1.2798,2.8149,2.5278c0,1.5684-1.3433,2.5923-3.7119,2.5923c-2.3359,0-3.5522-1.312-4.2881-2.9121
		l-2.5283,1.0562C132.9224,62.8721,134.6504,64.6001,138.6504,64.6001 M119.0356,49.3359h2.9438l-0.064,10.5923
		c0,3.1997,1.0562,4.5439,4.3521,4.5439c0.7681,0,1.4717-0.064,2.688-0.3203l-0.1279-2.208c0,0-0.8003,0.1279-1.6001,0.1279
		c-1.6001,0-2.3042-0.416-2.3042-2.1758V49.3359h3.8403V47h-3.9043v-4.6401h-2.688L121.9795,47h-2.9438V49.3359z M112.3794,64.1201
		h2.9761V47h-2.9761V64.1201z M112.1875,43.3843h3.3599V39.96h-3.3599V43.3843z M93.1475,64.6001c4.1279,0,6.624-2.208,6.624-5.4722
		c0-2.2397-1.248-3.8398-4.1602-4.5757l-2.752-0.7041c-1.8877-0.48-2.8481-1.1201-2.8481-2.5923c0-1.0879,0.8003-2.272,3.2002-2.272
		c2.1763,0,3.2319,1.2803,3.8081,2.4004l2.5278-1.1201c-0.896-2.0161-2.6558-3.7119-6.3677-3.7119
		c-3.8721,0-6.0801,2.3999-6.0801,4.896c0,2.8159,1.728,4.2876,4.6079,5.0239l2.3682,0.6079
		c2.2397,0.5757,2.8159,1.2798,2.8159,2.5278c0,1.5684-1.3442,2.5923-3.7119,2.5923c-2.3364,0-3.5522-1.312-4.2881-2.9121
		l-2.5283,1.0562C87.4194,62.8721,89.1475,64.6001,93.1475,64.6001 M73.8193,64.5679c3.2959,0,4.7363-1.4077,5.8242-3.04
		l0.1597,2.5923h2.8481c0,0-0.1602-2.624-0.1602-4.5122V53.272c0-4.96-2.5918-6.752-6.6235-6.752
		c-4.6084,0-6.4644,2.5918-6.8804,4.5762l2.688,0.7998c0.4482-1.4722,1.376-2.9121,3.936-2.9121c3.3604,0,4,1.9844,4,4.48v0.4482
		c0,0-1.4077-0.0962-3.0078-0.0962c-4.96,0-8.416,1.856-8.416,5.6641C68.1875,62.6162,70.6196,64.5679,73.8193,64.5679
		 M74.4595,62.168c-1.7603,0-3.168-1.0562-3.168-2.7837c0-2.0801,1.2158-3.2324,5.5361-3.2324c1.4717,0,2.7837,0.064,2.7837,0.064
		v0.3843C79.6113,58.52,78.6196,62.168,74.4595,62.168 M47.2275,64.6001c3.0718,0,4.7358-1.792,5.4717-3.1362v2.6562h2.8804v-24.896
		h-2.9761V49.272c-0.6719-1.312-2.3682-2.7197-4.7681-2.7197c-5.6001,0-8.1602,4.48-8.1602,9.1836
		C39.6753,61.624,42.8755,64.6001,47.2275,64.6001 M47.7075,62.0083c-3.4561,0-4.896-2.6562-4.896-6.4961
		c0-3.7441,1.6001-6.4961,5.1201-6.4961c3.2319,0,4.9277,2.688,4.9277,6.4639C52.8594,59.2881,51.1636,62.0083,47.7075,62.0083
		 M26.8442,64.5679c3.2964,0,4.7363-1.4077,5.8242-3.04l0.1602,2.5923h2.8477c0,0-0.1597-2.624-0.1597-4.5122V53.272
		c0-4.96-2.5923-6.752-6.624-6.752c-4.6079,0-6.4644,2.5918-6.8799,4.5762l2.688,0.7998c0.4478-1.4722,1.376-2.9121,3.9355-2.9121
		c3.3604,0,4,1.9844,4,4.48v0.4482c0,0-1.4077-0.0962-3.0078-0.0962c-4.96,0-8.416,1.856-8.416,5.6641
		C21.2124,62.6162,23.6445,64.5679,26.8442,64.5679 M27.4844,62.168c-1.7598,0-3.168-1.0562-3.168-2.7837
		c0-2.0801,1.2158-3.2324,5.5361-3.2324c1.4717,0,2.7837,0.064,2.7837,0.064v0.3843C32.6362,58.52,31.6445,62.168,27.4844,62.168
		 M5.6284,39.2241H2.6523v24.896h2.9761v-9.8242c0-3.5518,1.856-5.1196,4.4482-5.1196c2.0796,0,3.8716,1.0557,3.8716,4.7036v10.2402
		h2.9761V52.9839c0-3.6797-1.9839-6.4316-5.9517-6.4316c-2.8804,0-4.48,1.5679-5.3442,2.9116V39.2241z"/>
	<path d="M410.6797,33.0479c3.0713-0.7998,4.4795-2.6558,4.4795-5.4717v-3.584h-4.1279v4.1279h1.9521
		c0,2.0801-1.0879,2.9116-2.752,3.4238L410.6797,33.0479z M397.1113,13.3359h2.9443l-0.0645,10.5923
		c0,3.1997,1.0566,4.5439,4.3525,4.5439c0.7676,0,1.4717-0.064,2.6875-0.3203l-0.1279-2.208c0,0-0.7998,0.1279-1.5996,0.1279
		c-1.6006,0-2.3047-0.416-2.3047-2.1758V13.3359h3.8408V11h-3.9043V6.3599h-2.6885L400.0557,11h-2.9443V13.3359z M385.2725,28.5679
		c3.2959,0,4.7676-2.0479,5.2803-2.9121v2.4644h2.8799V11h-2.9766v9.9199c0,2.624-0.9912,5.0562-4.2871,5.0562
		c-2.8809,0-3.7129-2.1763-3.7129-4.7363V11h-2.9756v10.8481C379.4805,25.8159,381.5605,28.5679,385.2725,28.5679 M359.2568,35.2241
		h2.9756v-9.1523c0.6084,1.1523,2.208,2.5283,4.7676,2.5283c5.1201,0,8.1602-3.9043,8.1602-9.1841
		c0-4.3521-2.0156-8.8638-7.3916-8.8638c-3.0078,0-4.7998,1.7598-5.6641,3.2959V11h-2.8477V35.2241z M366.9043,26.0718
		c-3.2002,0-4.9277-2.5918-4.9277-6.4316c0-3.8403,1.5996-6.5601,5.1836-6.5601c3.168,0,4.8643,2.3677,4.8643,6.4639
		C372.0244,23.1279,370.4561,26.0718,366.9043,26.0718 M336.248,35.2241h2.9443L347.7363,11h-2.9443l-3.8076,11.4561
		c-0.5117,1.5039-0.6396,2.3682-0.6396,2.3682h-0.0967c0,0-0.0957-0.832-0.5752-2.208L335.7041,11h-3.1992l6.1113,17.1201
		L336.248,35.2241z M326.1689,28.1201h2.9756V3.2241h-2.9756V28.1201z M305.7842,35.2241h2.9766v-9.1523
		c0.6074,1.1523,2.208,2.5283,4.7676,2.5283c5.1201,0,8.1602-3.9043,8.1602-9.1841c0-4.3521-2.0156-8.8638-7.3916-8.8638
		c-3.0088,0-4.8008,1.7598-5.6641,3.2959V11h-2.8486V35.2241z M313.4326,26.0718c-3.2002,0-4.9277-2.5918-4.9277-6.4316
		c0-3.8403,1.5996-6.5601,5.1836-6.5601c3.168,0,4.8643,2.3677,4.8643,6.4639C318.5527,23.1279,316.9844,26.0718,313.4326,26.0718
		 M274.7764,28.1201h2.9766v-9.8242c0-3.5518,1.8555-5.1196,4.4473-5.1196c2.0801,0,3.8721,1.0557,3.8721,4.7036v10.2402h2.9766
		v-9.8242c0-3.5518,1.8555-5.1196,4.4473-5.1196c2.0801,0,3.8721,1.0557,3.8721,4.7036v10.2402h2.9766V16.9839
		c0-3.6797-1.9844-6.4316-5.9521-6.4316c-2.8799,0-4.5439,1.4399-5.8877,3.4238c-0.832-2.0479-2.624-3.4238-5.4082-3.4238
		c-2.8799,0-4.4805,1.5679-5.4404,2.9756V11h-2.8799V28.1201z M266.2012,28.1201h2.9766V11h-2.9766V28.1201z M266.0098,7.3843
		h3.3594V3.96h-3.3594V7.3843z M255.1294,28.6001c4.1279,0,6.6245-2.208,6.6245-5.4722c0-2.2397-1.2485-3.8398-4.1606-4.5757
		l-2.752-0.7041c-1.8877-0.48-2.8477-1.1201-2.8477-2.5923c0-1.0879,0.7998-2.272,3.1997-2.272
		c2.1763,0,3.2319,1.2803,3.8081,2.4004l2.5278-1.1201c-0.896-2.0161-2.6558-3.7119-6.3677-3.7119
		c-3.8721,0-6.0801,2.3999-6.0801,4.8955c0,2.8164,1.728,4.2881,4.6079,5.0244l2.3682,0.6079
		c2.2397,0.5757,2.8159,1.2798,2.8159,2.5278c0,1.5684-1.3442,2.5923-3.7119,2.5923c-2.3364,0-3.5522-1.312-4.2881-2.9121
		l-2.5278,1.0562C249.4014,26.8721,251.1294,28.6001,255.1294,28.6001 M232.1533,33.0479c3.0723-0.7998,4.48-2.6558,4.48-5.4717
		v-3.584h-4.1279v4.1279h1.9521c0,2.0801-1.0879,2.9116-2.752,3.4238L232.1533,33.0479z M218.5854,13.3359h2.9438l-0.064,10.5923
		c0,3.1997,1.0562,4.5439,4.3521,4.5439c0.7681,0,1.4722-0.064,2.688-0.3203l-0.1279-2.208c0,0-0.7998,0.1279-1.6001,0.1279
		c-1.6001,0-2.3037-0.416-2.3037-2.1758V13.3359h3.8398V11h-3.9038V6.3599h-2.688L221.5293,11h-2.9438V13.3359z M208.0894,28.1201
		h2.9761v-6.9438c0-2.6562,0-3.5205,0.3198-4.6401c0.5762-1.9839,2.272-2.8804,3.936-2.8804c0.896,0,1.5044,0.0645,1.5044,0.0645
		v-3.0723c-2.5283,0-4.6724,0.7998-5.7603,3.4561h-0.0962V11h-2.8799V28.1201z M194.1387,28.5679
		c3.2959,0,4.7358-1.4077,5.8237-3.04l0.1602,2.5923h2.8481c0,0-0.1602-2.624-0.1602-4.5122V17.272c0-4.96-2.5923-6.752-6.624-6.752
		c-4.6079,0-6.4639,2.5918-6.8799,4.5762l2.688,0.7998c0.4478-1.4722,1.376-2.9121,3.936-2.9121c3.3599,0,4,1.9844,4,4.48v0.4482
		c0,0-1.4082-0.0962-3.0083-0.0962c-4.96,0-8.416,1.856-8.416,5.6641C188.5063,26.6162,190.9385,28.5679,194.1387,28.5679
		 M194.7783,26.168c-1.7598,0-3.168-1.0562-3.168-2.7837c0-2.0801,1.2163-3.2324,5.5361-3.2324c1.4722,0,2.7842,0.064,2.7842,0.064
		v0.3843C199.9307,22.52,198.9385,26.168,194.7783,26.168 M172.9224,28.1201h2.9761V3.2241h-2.9761V28.1201z M158.9707,28.5679
		c3.2959,0,4.7358-1.4077,5.8237-3.04l0.1602,2.5923h2.8477c0,0-0.1597-2.624-0.1597-4.5122V17.272c0-4.96-2.5923-6.752-6.624-6.752
		c-4.6079,0-6.4639,2.5918-6.8799,4.5762l2.688,0.7998c0.4478-1.4722,1.376-2.9121,3.936-2.9121c3.3599,0,4,1.9844,4,4.48v0.4482
		c0,0-1.4082-0.0962-3.0083-0.0962c-4.96,0-8.416,1.856-8.416,5.6641C153.3384,26.6162,155.7705,28.5679,158.9707,28.5679
		 M159.6104,26.168c-1.7598,0-3.168-1.0562-3.168-2.7837c0-2.0801,1.2163-3.2324,5.5361-3.2324c1.4722,0,2.7842,0.064,2.7842,0.064
		v0.3843C164.7627,22.52,163.7705,26.168,159.6104,26.168 M140.7305,28.5679c3.2959,0,4.7681-2.0479,5.2798-2.9121v2.4644h2.8804V11
		h-2.9761v9.9199c0,2.624-0.9922,5.0562-4.2881,5.0562c-2.8799,0-3.7119-2.1763-3.7119-4.7363V11h-2.9761v10.8481
		C134.9385,25.8159,137.0186,28.5679,140.7305,28.5679 M120.8584,13.3359h2.9438l-0.064,10.5923
		c0,3.1997,1.0562,4.5439,4.3521,4.5439c0.7681,0,1.4722-0.064,2.688-0.3203l-0.1279-2.208c0,0-0.7998,0.1279-1.6001,0.1279
		c-1.5996,0-2.3037-0.416-2.3037-2.1758V13.3359h3.8398V11h-3.9038V6.3599h-2.688L123.8022,11h-2.9438V13.3359z M102.3945,35.2241
		h2.9761v-9.1523c0.6079,1.1523,2.208,2.5283,4.7681,2.5283c5.1196,0,8.1597-3.9043,8.1597-9.1841
		c0-4.3521-2.0161-8.8638-7.3921-8.8638c-3.0078,0-4.7998,1.7598-5.6636,3.2959V11h-2.8481V35.2241z M110.0425,26.0718
		c-3.2002,0-4.9282-2.5918-4.9282-6.4316c0-3.8403,1.6001-6.5601,5.1841-6.5601c3.168,0,4.8643,2.3677,4.8643,6.4639
		C115.1626,23.1279,113.5942,26.0718,110.0425,26.0718 M90.5234,12.9521c2.9121,0,4.2559,2.0796,4.4482,4.896h-9.1523
		C86.0435,15.3521,87.5156,12.9521,90.5234,12.9521 M90.6514,28.6001c3.4561,0,5.7603-1.6001,6.9443-3.6802l-2.3682-1.2798
		c-0.9922,1.4717-2.208,2.4316-4.3521,2.4316c-3.1362,0-5.0879-2.5278-5.1201-5.8877h12.48c0-5.3442-1.9521-9.6318-7.52-9.6318
		c-5.2158,0-8.064,4-8.064,9.0879C82.6514,24.9199,85.5312,28.6001,90.6514,28.6001 M72.6353,28.6001
		c3.9683,0,5.9521-1.856,7.2002-4.3843l-2.4321-1.0879c-0.8638,1.6963-2.1118,2.9761-4.6079,2.9761
		c-3.4561,0-5.1519-2.7197-5.1519-6.5918c0-3.584,1.792-6.4961,5.0557-6.4961c2.5923,0,3.52,1.6318,4.1284,2.8477l2.752-1.1836
		c-0.7363-1.7603-2.5283-4.1279-6.624-4.1279c-5.6641,0-8.3521,4.3838-8.3521,9.3438
		C64.6035,24.8242,67.1313,28.6001,72.6353,28.6001 M46.0127,28.1201h2.9756v-9.8242c0-3.5518,1.856-5.1196,4.4482-5.1196
		c2.0801,0,3.8721,1.0557,3.8721,4.7036v10.2402h2.9761V16.9839c0-3.6797-1.9844-6.4316-5.9521-6.4316
		c-2.8799,0-4.48,1.5679-5.4399,2.9756V11h-2.8799V28.1201z M33.3726,26.168c-3.4883,0-5.1201-2.7202-5.1201-6.5918
		c0-3.8721,1.5679-6.5923,5.0562-6.5923c3.4878,0,5.1196,2.7202,5.1196,6.5923C38.4282,23.4478,36.8604,26.168,33.3726,26.168
		 M33.2124,28.6001c5.3442,0,8.3198-3.9043,8.3198-9.0239c0-5.1841-2.7197-9.0239-8.064-9.0239
		c-5.3438,0-8.3198,3.9038-8.3198,9.0239C25.1484,24.7603,27.8687,28.6001,33.2124,28.6001 M12.4443,28.6001
		c6.6562,0,9.1201-4.96,9.5039-6.752l-2.8159-0.8643c-0.6079,1.792-2.1758,4.96-6.688,4.96c-4.6396,0-7.4238-3.936-7.4238-9.856
		c0-5.6958,2.688-9.856,7.4238-9.856c3.0723,0,5.0879,1.5361,6.5283,4.5122l2.752-1.2803c-1.1523-2.8799-3.9043-5.856-9.2163-5.856
		c-6.3037,0-10.752,4.9282-10.752,12.48C1.7563,24.4082,6.2686,28.6001,12.4443,28.6001"/>
</g>
</svg>
