<?xml version="1.0" encoding="UTF-8"?>
<!DOCTYPE svg PUBLIC "-//W3C//DTD SVG 1.1//EN" "http://www.w3.org/Graphics/SVG/1.1/DTD/svg11.dtd">
<!-- Creator: CorelDRAW X5 -->
<?xml-stylesheet href="KT23 See how Many Fox I give.css" type="text/css"?>
<svg xmlns="http://www.w3.org/2000/svg" xml:space="preserve" width="107.95mm" height="107.95mm" style="shape-rendering:geometricPrecision; text-rendering:geometricPrecision; image-rendering:optimizeQuality; fill-rule:evenodd; clip-rule:evenodd"
viewBox="0 0 10795 10795"
 xmlns:xlink="http://www.w3.org/1999/xlink">
 <defs>
   <clipPath id="id0">
    <rect width="10795" height="10795"/>
   </clipPath>
 </defs>
 <g id="KT23_x0020_layer_x0020_1_x0020_jpeg">
  <metadata id="CorelCorpID_0Corel-Layer"/>
  <g style="clip-path:url(#id0)">
   <image id="Farmstyle_x0020_kitchen.jpg" transform="matrix(1 0 0 1 -5397.49 5397.49)" x="5398" y="-5397" width="10795" height="10795" xlink:href="KT23 See how Many Fox I give_Images\KT23 See how Many Fox I give_ImgID1.jpg"/>
  </g>
 </g>
 <g id="KT23_x0020_layer_x0020_2_x0020_rustic_x0020_red">
  <metadata id="CorelCorpID_1Corel-Layer"/>
  <path class="fil0" d="M5975 2708c-331,-357 -522,-370 -502,136 -125,80 -467,337 -437,688 188,179 449,330 662,433 -78,521 -156,1041 -235,1562 -223,52 -218,152 -66,197 143,10 272,-1 389,-28 16,-322 76,-644 155,-966 14,23 28,47 42,70 -41,256 -81,513 -122,769 264,0 529,0 793,0 -59,-250 -119,-500 -178,-751 11,-27 22,-53 33,-80 16,42 31,84 47,127 89,278 131,768 267,835 122,42 244,48 366,5 88,-113 67,-183 -33,-220 -39,-3 -78,-6 -117,-9 0,-20 0,-41 0,-61 1328,-460 1407,-1736 2111,-2604 -1906,-45 -2002,1636 -2158,1848 -20,25 -43,40 -75,28 -30,-235 -59,-469 -89,-704 248,-87 415,-254 586,-418 -31,-257 -168,-475 -399,-657 -1,-484 -144,-527 -408,-197 -200,-30 -409,-37 -633,-5zm75 1356c99,-995 -575,-1370 -793,-493 244,205 512,362 793,493zm1145 -422c-278,-996 -881,-447 -826,422 275,-30 551,-155 826,-422zm994 -399c-89,2 -178,3 -267,5 214,-193 484,-356 1037,-361 -182,216 -335,456 -455,722 -30,-52 -59,-103 -89,-155 -52,33 -103,66 -155,99 2,-59 3,-119 5,-178 -58,17 -116,34 -174,52 33,-61 66,-122 99,-183z"/>
 </g>
 <g id="KT23_x0020_black">
  <metadata id="CorelCorpID_2Corel-Layer"/>
  <g id="_303016192">
   <circle class="fil1" cx="6218" cy="4205" r="152"/>
   <path class="fil1" d="M6480 3750c222,10 142,-26 271,-89l0 0c-33,127 -159,149 -271,157 -19,0 -34,-15 -34,-34 0,-19 15,-34 34,-34z"/>
   <path class="fil1" d="M5933 3753c-222,10 -142,-26 -271,-89l0 0c33,127 159,149 271,157 19,0 34,-15 34,-34 0,-19 -15,-34 -34,-34z"/>
   <g>
    <path class="fil2" d="M5118 1506c4,7 4,14 2,20 -2,6 -6,10 -10,14 -5,3 -11,5 -18,5 -7,0 -13,-2 -18,-7 -6,-4 -9,-10 -10,-18 -1,-8 -3,-15 -7,-23 -4,-8 -12,-14 -23,-20 -11,-6 -30,-9 -55,-9 -15,0 -27,6 -38,19 -11,13 -19,31 -26,54 -7,23 -11,50 -14,82 -3,32 -4,67 -3,104 0,26 5,47 16,64 11,17 24,32 39,46 16,13 33,26 51,37 18,11 35,24 51,37 16,13 30,28 40,45 11,17 17,38 17,63 1,36 -5,65 -18,86 -13,21 -32,36 -56,44 -24,8 -52,10 -84,5 -32,-5 -67,-16 -103,-32 -8,-4 -12,-9 -12,-16 0,-7 3,-13 8,-20 5,-6 12,-11 21,-13 9,-3 18,-1 27,4 10,5 25,11 43,16 19,6 37,9 55,9 18,0 34,-4 48,-12 14,-8 21,-23 21,-46 0,-23 -5,-42 -16,-57 -11,-16 -24,-30 -40,-44 -16,-13 -34,-27 -54,-39 -19,-13 -37,-27 -53,-44 -16,-16 -30,-36 -40,-58 -11,-22 -16,-49 -15,-80 1,-35 2,-71 5,-107 3,-36 8,-69 17,-98 9,-29 23,-53 40,-72 18,-19 42,-29 73,-31 30,-1 54,2 72,11 18,9 32,19 42,30 10,11 16,22 20,32 3,10 5,16 6,19zm35 418c0,-18 0,-42 0,-71 0,-29 0,-60 1,-92 1,-33 2,-66 3,-100 1,-34 4,-66 7,-95 3,-30 7,-55 13,-77 5,-22 12,-37 20,-46 17,-18 36,-28 56,-29 21,-1 41,3 61,14 20,10 39,24 57,41 18,17 32,34 42,52 19,32 33,68 42,109 9,40 15,80 17,119 2,39 1,74 -3,105 -4,31 -10,53 -18,66 -6,9 -15,16 -29,21 -13,4 -29,7 -45,9 -17,2 -34,3 -53,3 -19,0 -36,0 -52,0 -16,0 -30,0 -40,1 -11,0 -17,2 -20,6 -4,5 -5,14 -5,26 0,12 3,26 8,40 5,14 13,28 24,40 11,13 26,22 45,27 13,4 27,5 42,5 15,0 29,-2 43,-5 13,-3 25,-8 35,-14 10,-6 17,-12 20,-20 3,-7 8,-10 15,-9 7,1 14,5 20,10 6,5 11,12 13,20 3,8 1,14 -5,19 -7,7 -17,14 -30,23 -12,9 -27,17 -44,24 -17,7 -36,12 -58,14 -22,3 -45,0 -69,-7 -26,-7 -47,-18 -62,-33 -15,-15 -26,-32 -34,-51 -8,-20 -13,-42 -15,-67 -2,-25 -3,-51 -3,-79zm85 -434c-7,8 -13,24 -18,46 -5,23 -9,49 -11,79 -3,30 -5,61 -7,93 -1,32 -2,62 -2,90 0,27 1,50 3,68 2,18 4,27 7,28 3,1 10,1 21,2 11,0 24,0 39,0 15,0 31,-1 48,-2 17,-1 32,-2 46,-4 14,-2 26,-4 36,-7 9,-3 15,-6 15,-9 10,-67 11,-127 4,-181 -8,-54 -21,-98 -40,-134 -11,-20 -23,-36 -35,-50 -12,-13 -25,-23 -38,-30 -13,-6 -25,-9 -37,-7 -12,1 -22,7 -31,17zm279 434c0,-18 0,-42 0,-71 0,-29 0,-60 1,-92 1,-33 2,-66 3,-100 1,-34 4,-66 7,-95 3,-30 7,-55 13,-77 5,-22 12,-37 20,-46 17,-18 36,-28 56,-29 21,-1 41,3 61,14 20,10 39,24 57,41 18,17 32,34 42,52 19,32 33,68 42,109 9,40 15,80 17,119 2,39 1,74 -3,105 -4,31 -10,53 -18,66 -6,9 -15,16 -29,21 -13,4 -29,7 -45,9 -17,2 -34,3 -53,3 -19,0 -36,0 -52,0 -16,0 -30,0 -40,1 -11,0 -17,2 -20,6 -4,5 -5,14 -5,26 0,12 3,26 8,40 5,14 13,28 24,40 11,13 26,22 45,27 13,4 27,5 42,5 15,0 29,-2 43,-5 13,-3 25,-8 35,-14 10,-6 17,-12 20,-20 3,-7 8,-10 15,-9 7,1 14,5 20,10 6,5 11,12 13,20 3,8 1,14 -5,19 -7,7 -17,14 -30,23 -12,9 -27,17 -44,24 -17,7 -36,12 -58,14 -22,3 -45,0 -69,-7 -26,-7 -47,-18 -62,-33 -15,-15 -26,-32 -34,-51 -8,-20 -13,-42 -15,-67 -2,-25 -3,-51 -3,-79zm85 -434c-7,8 -13,24 -18,46 -5,23 -9,49 -11,79 -3,30 -5,61 -7,93 -1,32 -2,62 -2,90 0,27 1,50 3,68 2,18 4,27 7,28 3,1 10,1 21,2 11,0 24,0 39,0 15,0 31,-1 48,-2 17,-1 32,-2 46,-4 14,-2 26,-4 36,-7 9,-3 15,-6 15,-9 10,-67 11,-127 4,-181 -8,-54 -21,-98 -40,-134 -11,-20 -23,-36 -35,-50 -12,-13 -25,-23 -38,-30 -13,-6 -25,-9 -37,-7 -12,1 -22,7 -31,17zm776 -21c2,-9 7,-15 13,-19 7,-4 13,-6 21,-7 7,-1 14,0 19,2 5,2 9,5 10,10 1,3 1,17 1,42 0,25 -1,56 -3,92 -1,37 -3,77 -5,120 -2,43 -3,84 -5,123 -1,39 -3,73 -4,103 -1,30 -2,50 -2,60 -1,31 -1,56 0,77 1,20 2,35 2,45 0,4 -3,9 -9,14 -6,5 -12,8 -19,10 -7,1 -12,0 -17,-5 -5,-5 -6,-14 -5,-29 1,-4 1,-16 2,-33 0,-18 1,-37 1,-57 0,-20 0,-38 -1,-55 0,-17 -1,-27 -2,-30 1,-1 -4,-2 -14,-2 -10,0 -24,0 -40,1 -16,1 -34,2 -54,3 -19,1 -37,3 -53,4 -16,1 -29,3 -39,4 -10,1 -15,3 -13,3 -1,1 -2,7 -2,16 0,9 0,21 1,34 0,13 1,28 2,43 1,15 2,30 2,43 0,13 1,25 1,34 0,9 1,14 1,16 -1,3 -5,6 -11,8 -6,3 -12,4 -19,5 -7,1 -13,1 -19,1 -6,-1 -10,-3 -10,-8 -1,-3 -1,-15 -1,-37 0,-22 0,-48 1,-79 1,-31 1,-65 2,-101 1,-36 1,-71 2,-103 1,-32 1,-61 2,-85 1,-24 1,-39 1,-46 0,-10 -1,-27 -2,-50 -1,-23 -2,-48 -4,-73 -1,-26 -3,-49 -4,-71 -1,-22 -1,-36 -1,-44 1,-7 4,-13 10,-16 6,-4 12,-6 19,-7 7,-1 13,0 19,3 6,3 9,6 9,11 0,4 0,14 0,30 0,16 0,37 -1,61 0,24 -1,50 -1,79 0,29 0,57 -1,83 0,27 -1,51 -1,73 0,22 0,39 0,50 0,9 0,20 0,33 0,13 0,28 1,44 0,1 5,1 16,-1 11,-1 25,-2 41,-4 16,-1 34,-3 53,-5 19,-2 36,-4 52,-7 16,-2 29,-4 39,-7 10,-2 15,-4 13,-4 -1,-43 -1,-87 -2,-131 -1,-44 -1,-85 -1,-122 0,-38 0,-69 1,-96 1,-26 2,-43 4,-50zm163 -2c19,-15 40,-25 62,-31 23,-6 46,-9 69,-7 23,1 46,7 69,16 23,9 43,22 62,38 18,15 32,40 40,73 8,33 13,70 14,112 1,41 -1,84 -7,130 -5,45 -13,88 -21,128 -9,40 -19,76 -30,107 -11,31 -22,52 -33,63 -13,15 -29,27 -46,38 -18,11 -37,18 -57,21 -20,4 -40,3 -61,-1 -21,-4 -41,-15 -61,-31 -11,-9 -20,-25 -28,-47 -8,-22 -15,-48 -20,-78 -5,-30 -9,-63 -11,-99 -2,-36 -3,-72 -3,-109 0,-37 2,-73 5,-109 3,-36 7,-68 13,-97 5,-29 12,-54 19,-75 7,-21 16,-35 25,-42zm38 43c-11,12 -20,33 -27,64 -7,31 -13,67 -16,107 -3,40 -5,82 -5,127 0,44 2,86 5,124 4,38 9,71 15,99 7,28 15,45 25,51 26,17 52,24 80,21 28,-3 52,-19 73,-49 7,-9 14,-27 23,-53 9,-26 17,-55 25,-90 8,-34 14,-71 19,-110 5,-39 7,-77 7,-113 -1,-36 -5,-70 -14,-100 -8,-30 -22,-53 -42,-69 -13,-11 -27,-19 -43,-25 -15,-6 -31,-9 -46,-10 -16,-1 -30,1 -44,5 -14,4 -26,12 -35,22zm732 554c1,-15 4,-37 7,-64 3,-27 7,-65 11,-112 5,-47 10,-107 16,-179 6,-72 12,-160 19,-265 1,-2 4,-4 10,-7 6,-2 13,-4 20,-4 7,-1 13,0 19,1 6,1 9,4 10,9 1,9 1,23 -2,42 -3,19 -5,39 -6,60 -1,5 -2,17 -4,36 -2,19 -4,41 -7,68 -3,27 -6,57 -10,91 -4,34 -8,67 -12,102 -4,34 -8,68 -11,101 -4,33 -7,63 -10,90 -3,27 -5,49 -8,66 -2,17 -4,28 -4,32 -1,9 -6,15 -13,19 -7,4 -16,5 -25,5 -9,0 -18,-2 -26,-5 -8,-3 -13,-7 -15,-13 -4,-11 -9,-27 -15,-49 -7,-22 -14,-46 -22,-74 -8,-27 -16,-56 -24,-86 -8,-30 -16,-58 -23,-85 -7,-27 -14,-50 -20,-71 -6,-20 -11,-35 -14,-44 -2,-7 -4,-10 -6,-11 -2,-1 -3,-1 -4,1 -1,1 -2,3 -3,6 -1,3 -1,4 -1,4 -3,8 -7,22 -14,42 -6,20 -13,43 -21,69 -8,26 -16,54 -25,83 -8,30 -17,58 -25,85 -8,27 -15,52 -22,74 -7,22 -12,39 -15,50 -4,12 -10,21 -19,25 -9,4 -18,6 -27,4 -9,-1 -18,-5 -25,-11 -7,-6 -12,-14 -13,-22 -1,-3 -2,-17 -4,-42 -2,-25 -4,-56 -7,-92 -3,-37 -5,-77 -8,-120 -3,-43 -5,-84 -8,-123 -3,-39 -5,-73 -7,-103 -2,-30 -3,-50 -3,-60 -1,-31 -2,-56 -4,-77 -2,-20 -4,-35 -4,-45 0,-4 3,-9 8,-15 5,-5 11,-9 18,-11 7,-2 13,-1 18,4 5,4 8,14 7,28l36 596c1,1 4,4 7,7 3,3 5,0 8,-9 4,-12 9,-32 17,-57 8,-26 16,-54 25,-85 9,-31 18,-63 28,-96 10,-33 19,-63 28,-91 9,-27 16,-50 23,-68 7,-18 12,-28 15,-30 7,-4 15,-5 26,-4 11,1 18,4 22,10 1,2 5,13 11,31 6,19 13,42 21,70 8,28 17,59 26,92 9,33 19,65 27,96 9,31 17,59 24,83 7,24 13,42 17,52 1,1 3,3 6,5 3,2 5,-1 6,-7zm468 -531c-1,15 -4,36 -7,63 -3,27 -6,63 -10,110 -4,47 -9,105 -15,176 -6,71 -12,159 -19,264 -1,2 -5,4 -11,7 -6,2 -12,4 -19,4 -7,1 -13,0 -19,-1 -6,-1 -9,-4 -10,-9 -1,-9 -1,-23 2,-42 3,-19 5,-39 6,-60 1,-5 2,-17 4,-36 2,-19 4,-41 7,-68 3,-27 6,-57 10,-91 4,-34 8,-67 12,-102 4,-34 8,-68 11,-101 4,-33 7,-63 10,-90 3,-27 5,-49 8,-66 2,-18 4,-28 4,-32 1,-9 5,-15 13,-19 8,-4 16,-5 25,-5 9,0 18,2 26,5 8,3 13,7 15,13 4,11 10,27 16,49 6,22 13,46 21,74 8,27 16,56 24,86 8,30 16,58 24,85 8,27 14,50 20,71 6,20 10,35 13,44 2,7 4,10 6,11 2,1 3,1 4,-1 1,-1 2,-3 3,-6 1,-3 1,-4 1,-4 3,-8 7,-22 14,-42 6,-20 13,-43 21,-69 8,-26 16,-54 25,-83 8,-30 17,-58 25,-85 8,-27 15,-52 22,-74 7,-22 12,-39 15,-50 4,-12 10,-20 19,-25 9,-5 18,-6 27,-5 9,1 18,5 25,11 7,6 12,14 13,22 0,3 1,17 3,42 2,25 4,56 7,92 2,37 5,77 8,120 3,43 6,84 9,123 3,39 5,73 7,103 1,30 3,50 3,60 1,31 2,56 4,77 2,20 4,35 4,45 0,4 -3,9 -8,15 -5,5 -11,9 -18,11 -7,2 -13,1 -18,-4 -5,-4 -8,-14 -7,-28l-34 -588c-1,-1 -4,-4 -7,-7 -3,-3 -5,0 -8,9 -4,13 -9,32 -17,57 -8,25 -16,53 -25,84 -9,31 -19,62 -28,94 -10,32 -19,62 -28,89 -9,27 -17,49 -24,67 -7,18 -12,28 -15,29 -7,4 -15,5 -26,4 -11,-1 -18,-4 -22,-10 -1,-2 -5,-12 -11,-31 -6,-18 -13,-41 -21,-69 -8,-28 -17,-58 -27,-90 -9,-32 -19,-64 -28,-94 -9,-30 -17,-57 -25,-81 -7,-24 -13,-41 -17,-51 -1,-1 -3,-3 -6,-5 -3,-2 -5,1 -6,7zm542 -42c-10,0 -18,-3 -23,-8 -5,-5 -8,-11 -8,-18 0,-7 3,-13 8,-19 5,-6 13,-10 23,-11 9,-1 25,-3 46,-4 21,-1 43,-1 66,0 23,1 43,4 62,9 19,5 31,12 37,21 9,17 17,43 23,78 6,35 10,75 13,120 3,45 5,92 5,142 1,50 1,98 0,143 -1,45 -1,86 -2,122 -1,36 -1,63 -1,79 0,7 -3,11 -9,14 -6,3 -13,3 -20,3 -7,-1 -13,-3 -19,-5 -6,-3 -8,-7 -8,-11 1,-9 2,-17 3,-22 0,-5 -2,-9 -8,-13 -2,-1 -11,2 -25,8 -15,6 -32,12 -53,18 -21,6 -43,11 -66,14 -23,3 -45,2 -65,-5 -20,-7 -36,-20 -49,-40 -13,-20 -18,-50 -17,-90 1,-29 8,-52 21,-68 13,-16 30,-28 49,-36 19,-7 40,-11 63,-12 23,-1 45,0 65,2 20,2 38,4 52,7 15,3 23,3 26,2 3,-1 5,-10 7,-29 1,-19 2,-42 2,-69 0,-27 -1,-57 -2,-89 -1,-32 -3,-63 -6,-92 -3,-29 -6,-55 -9,-77 -4,-22 -8,-36 -13,-42 -7,-9 -18,-16 -33,-19 -15,-3 -30,-5 -47,-5 -17,0 -33,0 -50,2 -16,1 -30,2 -40,2zm190 480c-3,-1 -10,-4 -22,-7 -12,-3 -26,-6 -42,-9 -16,-3 -33,-4 -51,-5 -18,-1 -34,1 -49,4 -15,3 -27,9 -37,18 -10,8 -15,20 -15,36 0,26 5,46 16,59 11,13 24,21 40,25 16,4 33,4 52,1 19,-3 36,-8 52,-14 16,-6 30,-12 42,-19 12,-6 18,-11 20,-14 2,-4 4,-10 5,-17 1,-7 2,-14 1,-22 -1,-8 -2,-15 -4,-21 -2,-6 -5,-11 -9,-14z"/>
    <path class="fil2" d="M8632 1440c0,-3 2,-5 7,-7 4,-1 9,-2 15,-2 5,0 11,1 16,2 5,1 10,4 14,7 3,3 4,9 3,19 -1,9 -2,20 -3,30 -1,11 -2,20 -3,28 0,8 1,13 4,15 4,-1 9,-7 16,-18 7,-10 17,-21 28,-33 12,-12 25,-22 41,-32 16,-10 34,-15 54,-15 34,0 60,6 80,18 20,12 35,27 46,45 11,18 18,38 22,59 4,21 7,40 9,57 1,12 3,32 5,61 2,29 4,62 7,98 3,37 5,76 8,116 3,41 5,79 7,114 2,35 3,65 5,90 1,25 3,40 3,45 1,8 -2,13 -8,16 -6,3 -12,4 -19,3 -7,-1 -14,-3 -20,-6 -7,-3 -10,-8 -11,-14 -1,-5 -3,-22 -4,-50 -1,-28 -3,-66 -5,-112 -2,-46 -5,-100 -9,-161 -4,-61 -9,-128 -15,-200 -4,-38 -13,-68 -28,-89 -15,-22 -38,-32 -68,-30 -24,1 -44,9 -60,22 -16,13 -29,28 -38,46 -9,17 -17,36 -22,54 -5,19 -9,34 -11,45 -4,19 -7,42 -9,71 -2,28 -3,58 -4,90 -1,32 -1,65 -1,98 0,34 1,65 1,95 0,30 1,57 1,81 0,24 0,43 -1,56 0,4 -2,8 -7,11 -5,3 -10,5 -16,5 -6,1 -12,0 -17,-3 -5,-3 -9,-7 -10,-14 -1,-3 -1,-14 -2,-34 -1,-20 -1,-46 -2,-77 0,-31 -1,-67 -1,-107 0,-40 0,-81 -1,-122 0,-42 0,-83 0,-125 0,-41 1,-79 1,-113 0,-34 1,-63 2,-87 1,-24 1,-40 2,-48zm364 23c-3,-9 -2,-17 2,-24 4,-7 9,-13 16,-16 7,-4 14,-5 22,-4 8,1 13,6 17,14 2,6 7,21 15,44 8,24 16,52 26,85 10,33 20,67 31,104 11,36 20,70 30,101 9,31 17,56 22,76 6,20 9,30 9,30 0,0 3,-10 9,-30 6,-20 14,-44 24,-74 9,-30 20,-63 31,-99 11,-36 22,-71 33,-103 11,-33 20,-62 27,-87 8,-26 13,-43 16,-51 4,-13 9,-22 16,-26 7,-4 14,-5 20,-2 6,3 11,9 15,19 4,9 5,20 2,33 -2,9 -8,27 -17,54 -9,27 -20,59 -32,95 -12,36 -26,74 -40,113 -15,39 -28,76 -39,109 -12,34 -22,62 -30,84 -8,23 -12,35 -11,37 1,3 1,13 2,31 0,18 1,37 2,59 1,21 1,41 2,61 0,19 1,32 1,39 0,7 -3,12 -8,17 -5,5 -11,8 -18,9 -7,1 -13,0 -19,-4 -6,-4 -9,-12 -10,-24 -1,-12 -1,-27 -1,-46 0,-19 0,-38 0,-57 0,-19 0,-36 1,-51 0,-15 1,-24 1,-26 0,-1 -4,-14 -11,-37 -8,-23 -17,-52 -28,-86 -11,-34 -24,-71 -38,-112 -14,-40 -27,-78 -39,-113 -12,-35 -22,-66 -31,-92 -9,-26 -14,-42 -16,-48z"/>
   </g>
   <path class="fil2" d="M5251 5918c2,-4 8,-7 16,-10 8,-3 17,-4 27,-4 10,0 19,1 29,4 10,2 17,6 23,11 5,6 8,15 9,26 1,11 1,25 1,41 -1,16 -2,34 -4,53 -2,19 -4,39 -5,61 -1,14 -2,48 -4,100 -1,52 -3,114 -4,185 -2,71 -4,147 -5,227 -2,80 -4,154 -5,222 -2,68 -4,125 -6,171 -2,46 -4,72 -5,77 -6,13 -17,22 -32,26 -15,4 -26,-4 -32,-26 -2,-11 -4,-24 -4,-40 -1,-16 -1,-33 0,-50 1,-17 1,-33 3,-48 1,-15 2,-27 2,-37 0,-5 0,-22 0,-53 0,-30 0,-69 -1,-115 -1,-46 -1,-99 -2,-157 -1,-58 -1,-117 -2,-177 -1,-60 -1,-119 -1,-176 0,-57 0,-108 1,-154 1,-46 1,-83 2,-111 1,-28 2,-43 3,-45zm1027 0c15,17 21,29 16,37 -5,8 -12,15 -23,22 -12,7 -26,8 -41,4 -15,-5 -32,-10 -51,-14 -18,-5 -37,-7 -57,-5 -20,1 -40,11 -60,30 -32,30 -60,70 -84,119 -24,50 -43,105 -57,166 -14,61 -23,124 -28,189 -4,65 -3,128 4,189 7,61 20,116 40,166 20,50 45,90 78,121 23,20 45,34 68,41 23,7 44,10 63,10 20,-1 37,-4 51,-9 14,-5 24,-10 30,-13 14,-10 25,-24 33,-45 8,-20 13,-41 15,-63 2,-22 2,-42 0,-61 -2,-18 -7,-30 -12,-35 -6,-5 -21,-8 -45,-9 -24,-1 -50,-2 -77,-2 -27,0 -51,0 -74,-1 -23,-1 -35,-3 -37,-6 -5,-8 -10,-17 -15,-25 -5,-8 -2,-17 12,-27 7,-5 24,-10 51,-15 27,-5 56,-10 88,-13 32,-4 63,-5 93,-4 30,1 50,5 61,13 7,6 13,18 19,36 5,18 9,40 10,65 1,26 1,53 -1,81 -2,29 -6,56 -12,82 -6,26 -15,50 -26,70 -11,21 -25,35 -42,44 -38,20 -82,30 -131,30 -49,0 -99,-12 -149,-37 -45,-23 -81,-62 -108,-118 -27,-56 -46,-120 -58,-192 -12,-72 -16,-150 -13,-232 3,-82 12,-160 29,-235 16,-75 38,-143 66,-204 28,-61 61,-107 99,-136 31,-25 61,-41 91,-48 30,-7 57,-10 82,-7 25,2 47,8 65,17 18,9 31,18 38,26zm164 148c-2,2 -4,24 -4,65 -1,41 -1,91 -1,151 0,60 0,125 1,195 1,70 1,136 2,198 1,62 1,114 2,157 1,43 1,67 1,73 0,10 -1,22 -2,37 -1,15 -2,31 -3,48 -1,17 -1,34 0,50 1,16 2,29 4,40 6,21 17,30 32,26 15,-4 26,-13 32,-26 1,-5 3,-26 5,-65 2,-39 4,-87 6,-144 2,-58 4,-120 5,-186 2,-67 4,-130 5,-191 2,-61 3,-113 4,-159 1,-45 2,-75 4,-89 1,-21 3,-42 5,-61 2,-19 4,-37 4,-53 1,-16 0,-30 -1,-41 -1,-11 -4,-20 -9,-26 -6,-5 -14,-8 -23,-11 -10,-2 -19,-4 -29,-4 -10,0 -18,1 -27,4 -8,3 -14,6 -16,10zm-2 -146c1,-7 8,-13 20,-17 12,-4 24,-7 37,-7 13,-1 25,1 37,5 11,4 17,10 17,19 0,8 0,15 0,20 0,5 0,9 -1,12 -1,4 -1,8 -3,12 -1,5 -2,11 -4,18 -2,7 -9,12 -20,16 -11,4 -22,5 -35,5 -12,0 -24,-1 -34,-4 -10,-2 -15,-7 -15,-12 0,-11 -1,-21 -2,-30 -1,-10 -1,-22 2,-37zm184 25c11,-24 20,-38 27,-44 7,-5 16,-1 27,12 2,4 8,20 17,49 9,29 20,66 33,111 13,45 27,95 43,151 15,56 31,114 48,173 17,59 33,116 48,171 15,55 30,105 43,149 13,44 24,79 33,105 9,26 15,39 17,39 2,0 8,-14 17,-41 9,-27 20,-63 32,-107 12,-44 26,-94 42,-152 15,-57 31,-115 47,-174 16,-59 32,-117 48,-174 16,-57 31,-108 45,-151 14,-44 26,-79 36,-106 10,-27 18,-40 22,-38 9,1 17,2 21,2 5,0 8,1 11,2 2,1 5,4 7,8 2,4 5,11 9,20 2,5 0,24 -7,58 -7,34 -17,77 -30,130 -13,53 -29,112 -47,178 -18,66 -37,133 -57,201 -20,68 -40,134 -60,199 -20,65 -39,122 -57,173 -18,51 -34,91 -48,122 -14,31 -25,47 -32,48 -6,1 -16,-14 -29,-45 -14,-31 -29,-72 -46,-122 -17,-50 -36,-108 -56,-174 -20,-65 -40,-132 -60,-201 -20,-69 -38,-137 -56,-203 -18,-67 -34,-127 -47,-180 -14,-53 -24,-97 -31,-131 -7,-34 -10,-53 -7,-58zm708 761c0,-30 0,-68 0,-115 0,-47 1,-97 2,-151 1,-53 3,-108 5,-163 2,-55 6,-107 12,-155 5,-48 12,-90 20,-126 8,-36 19,-61 32,-75 27,-30 58,-45 92,-47 34,-2 67,6 100,22 33,17 64,39 93,67 29,28 52,56 69,85 31,52 54,111 69,177 15,66 24,131 28,194 4,64 2,121 -4,171 -7,51 -16,86 -29,108 -10,15 -25,27 -47,34 -22,7 -47,12 -74,15 -27,3 -56,4 -86,4 -30,0 -59,0 -85,0 -26,0 -48,0 -66,1 -18,1 -29,4 -32,10 -6,8 -9,23 -8,43 1,20 5,42 13,65 8,23 21,45 39,66 18,21 42,35 73,44 21,6 44,9 69,9 24,0 48,-3 70,-8 22,-5 41,-13 57,-22 16,-10 27,-20 33,-32 5,-12 13,-17 25,-14 12,2 23,8 33,17 10,9 17,20 21,32 4,12 1,23 -8,31 -12,11 -28,23 -48,37 -20,14 -44,27 -72,38 -28,11 -59,19 -94,23 -35,4 -73,0 -113,-12 -43,-12 -76,-30 -101,-53 -24,-24 -43,-52 -55,-84 -12,-32 -21,-68 -24,-109 -4,-40 -5,-83 -5,-128zm139 -708c-12,13 -22,38 -29,76 -8,37 -14,80 -19,128 -5,48 -8,99 -11,151 -2,53 -4,102 -4,146 0,45 1,81 4,110 3,29 7,44 12,45 5,1 16,2 34,3 18,1 39,1 63,0 24,-1 50,-1 78,-3 27,-1 53,-3 76,-6 23,-3 42,-7 58,-11 15,-4 24,-9 25,-15 17,-109 19,-208 6,-295 -12,-87 -34,-160 -65,-218 -18,-32 -37,-59 -57,-81 -20,-22 -41,-38 -61,-48 -21,-10 -41,-14 -60,-12 -19,2 -36,12 -50,29zm474 1011c20,-23 43,-23 68,-2 10,8 17,18 21,28 5,10 4,22 -2,37 -4,7 -11,13 -21,18 -11,5 -22,7 -34,7 -12,0 -23,-2 -33,-7 -10,-5 -16,-13 -17,-25 -1,-7 -1,-16 2,-26 2,-10 8,-20 16,-29zm162 0c20,-23 43,-23 68,-2 10,8 17,18 21,28 5,10 4,22 -2,37 -4,7 -11,13 -21,18 -11,5 -22,7 -34,7 -12,0 -23,-2 -33,-7 -10,-5 -16,-13 -17,-25 -1,-7 -1,-16 2,-26 2,-10 8,-20 16,-29zm162 0c20,-23 43,-23 68,-2 10,8 17,18 21,28 5,10 4,22 -2,37 -4,7 -11,13 -21,18 -11,5 -22,7 -34,7 -12,0 -23,-2 -33,-7 -10,-5 -16,-13 -17,-25 -1,-7 -1,-16 2,-26 2,-10 8,-20 16,-29zm162 0c20,-23 43,-23 68,-2 10,8 17,18 21,28 5,10 4,22 -2,37 -4,7 -11,13 -21,18 -11,5 -22,7 -34,7 -12,0 -23,-2 -33,-7 -10,-5 -16,-13 -17,-25 -1,-7 -1,-16 2,-26 2,-10 8,-20 16,-29z"/>
  </g>
 </g>
</svg>
