<?xml version="1.0"?><svg width="6000" height="6000" xmlns="http://www.w3.org/2000/svg">
 <title>camera silhouette</title>
 <g>
  <title>Layer 1</title>
  <g id="layer1">
   <path fill="#000000" fill-rule="evenodd" stroke-width="20" stroke-linecap="round" stroke-miterlimit="4" stroke-dashoffset="0" id="rect17472" d="m2151.10791,53.582195c-233.670288,0 -426.22229,196.776386 -426.22229,435.572468l0,290.38208l-142.07312,0c0,-158.359009 -129.186523,-290.38208 -284.146484,-290.38208l-142.072876,0c-154.959961,0 -284.146118,132.023071 -284.146118,290.38208c-469.795715,0 -852.441833,391.043213 -852.441833,871.145874l0,1211.438965l0,603.448242c0,480.105469 382.646118,871.148438 852.441833,871.148438l1636.507568,0c334.132813,432.878418 850.4729,712.341309 1430.502197,712.342773c599.884521,0 1131.375732,-299.224609 1463.800537,-757.716309c338.527832,-115.430664 583.833496,-441.667236 583.833496,-825.774902l0,-603.448242l0,-1211.438965c0,-480.102661 -382.647949,-871.145874 -852.442383,-871.145874l-994.51416,0l0,-290.38208c0,-238.796082 -192.550049,-435.572468 -426.21875,-435.572468l-1562.807373,0l-0.000244,0zm0,290.383472l1562.807617,0c81.166504,0 142.07251,62.241089 142.07251,145.188995l0,580.765869l1278.6604,0c317.292969,0 568.294922,256.509277 568.294922,580.762085l0,563.974854c-95.974121,-88.097412 -212.212402,-152.242188 -339.644043,-188.747925c-334.344238,-427.611938 -847.94043,-702.814575 -1423.842529,-702.814575c-130.435303,0 -257.294434,14.541138 -380.048096,41.290161c-112.911133,-31.112305 -230.821533,-49.9104 -353.40625,-49.9104c-500.883301,0 -939.871826,271.233887 -1187.201172,676.499146l-1146.354248,0c-218.362976,0 -417.261444,85.049072 -568.294037,223.683594l0,-563.974854c0,-324.252808 251.000275,-580.762085 568.294037,-580.762085l1136.586304,0l0,-580.765869c0,-82.947906 60.907593,-145.188995 142.074585,-145.188995zm497.255615,290.380646c-115.604492,0 -213.109375,99.644226 -213.109375,217.785706c0,118.143982 97.504883,217.788513 213.109375,217.788513l568.293701,0c115.606689,0 213.110107,-99.644531 213.110107,-217.788513c0,-118.141479 -97.503418,-217.785706 -213.110107,-217.785706l-568.293701,0zm557.638916,825.319824c14.773682,0 28.881836,2.166626 43.510498,2.724243c-663.780762,278.704468 -1133.036377,946.168213 -1133.036377,1723.687988c0,74.751465 5.342529,148.031494 13.762939,220.508789c-114.600098,-193.314941 -181.587524,-419.206543 -181.587524,-661.97998c0,-710.078247 562.519165,-1284.94104 1257.350464,-1284.94104zm733.454346,98.911377c880.397217,0 1592.554932,727.783569 1592.554932,1627.500854c-0.001465,899.717285 -712.157715,1627.954346 -1592.554932,1627.954346c-880.39917,0 -1592.999023,-728.237061 -1592.999023,-1627.954346c0,-899.717285 712.599854,-1627.500854 1592.999023,-1627.500854zm0,216.42688c-761.345947,0 -1380.776855,633.020996 -1380.776855,1411.073975c0,778.052246 619.430908,1411.076416 1380.776855,1411.076416c761.343506,0 1380.776611,-633.02417 1380.776611,-1411.076416c0,-778.052979 -619.430664,-1411.073975 -1380.776611,-1411.073975zm0,145.190186c684.473877,0 1238.703369,566.387939 1238.703369,1265.883789c0,44.359375 -2.312012,87.950195 -6.660645,131.127441c-325.144043,-320.949463 -764.606445,-521.32666 -1252.021729,-521.32666c-467.66748,0 -892.71582,183.711426 -1213.839355,481.851318c-2.138916,-30.429199 -4.88501,-60.662598 -4.88501,-91.6521c0,-699.49585 554.227539,-1265.883789 1238.703369,-1265.883789z"/>
  </g>
 </g>
</svg>