<?xml version="1.0" encoding="UTF-8" standalone="no"?>
<!-- Created with Inkscape (http://www.inkscape.org/) -->
<svg xmlns:dc="http://purl.org/dc/elements/1.1/" xmlns:cc="http://creativecommons.org/ns#" xmlns:rdf="http://www.w3.org/1999/02/22-rdf-syntax-ns#" xmlns:svg="http://www.w3.org/2000/svg" xmlns="http://www.w3.org/2000/svg" xmlns:sodipodi="http://sodipodi.sourceforge.net/DTD/sodipodi-0.dtd" xmlns:inkscape="http://www.inkscape.org/namespaces/inkscape" id="svg3262" version="1.1" inkscape:version="0.48.3.1 r9886" width="344.33038" height="404.82425" sodipodi:docname="Stylized-Floral-Border-2005489.jpg">
  <defs id="defs3266"/>
  <sodipodi:namedview pagecolor="#ffffff" bordercolor="#666666" borderopacity="1" objecttolerance="10" gridtolerance="10" guidetolerance="10" inkscape:pageopacity="0" inkscape:pageshadow="2" inkscape:window-width="1391" inkscape:window-height="876" id="namedview3264" showgrid="false" fit-margin-top="0" fit-margin-left="0" fit-margin-right="0" fit-margin-bottom="0" inkscape:zoom="1.0089087" inkscape:cx="325.38766" inkscape:cy="164.46641" inkscape:window-x="49" inkscape:window-y="24" inkscape:window-maximized="1" inkscape:current-layer="svg3262"/>
  <path style="fill:#000000;stroke:#000000;stroke-width:0.30000001;stroke-linecap:round;stroke-linejoin:round;stroke-miterlimit:4;stroke-opacity:1;stroke-dasharray:none" d="m 48.030756,24.442962 c 2.533408,-2.717538 4.481627,-4.219429 3.159354,-8.982478 -1.646468,-5.930854 6.783823,-7.992125 6.690398,-0.929222 -0.08689,6.5685 -5.836059,7.645797 -9.849752,9.9117 z" id="path3272" inkscape:connector-curvature="0" sodipodi:nodetypes="cssc"/>
  <path sodipodi:nodetypes="cssc" inkscape:connector-curvature="0" id="path4042" d="m 59.431261,16.883249 c 2.948626,-3.161529 5.216152,-4.908799 3.677163,-10.450035 -1.916319,-6.8998373 7.89567,-9.2978789 7.786933,-1.081039 -0.101131,7.641662 -6.792571,8.894968 -11.464096,11.531074 z" style="fill:#000000;stroke:#000000;stroke-width:0.30000001;stroke-linecap:round;stroke-linejoin:round;stroke-miterlimit:4;stroke-opacity:1;stroke-dasharray:none"/>
  <path style="fill:none;stroke:#000000;stroke-width:1px;stroke-linecap:round;stroke-linejoin:round;stroke-opacity:1" d="m 20.401893,33.177649 c -0.702166,-0.657841 -2.5027,-7.573168 4.626178,-7.175662 5.904843,0.329254 5.591783,11.415113 -0.214831,12.462588 -2.637573,0.475801 -5.770928,0.110326 -8.22998,-2.489405 -4.304937,-4.551219 -2.825332,-12.2599 2.085539,-15.414471 6.532541,-4.196275 16.543128,-0.629636 21.17775,5.96426 6.107795,8.689847 1.613863,20.844027 -3.182638,26.445551 C 15.679139,79.229194 19.447355,86.47378 20.429595,90.62679" id="path4046" inkscape:connector-curvature="0" sodipodi:nodetypes="cssssscc"/>
  <path sodipodi:nodetypes="cssssscc" inkscape:connector-curvature="0" id="path4051" d="m 91.860102,20.770983 c 0.51817,-1.150914 8.317258,-6.314833 10.829968,2.711785 2.08127,7.476739 -11.769835,11.779258 -15.513455,5.007211 -1.70049,-3.076108 -2.56882,-7.124306 -0.38798,-11.280147 3.81788,-7.275417 14.059675,-8.795788 19.954965,-3.931891 9.17284,7.56803 7.05082,18.713203 0.14312,27.963613 C 98.556052,52.397545 77.216069,49.790329 74.394937,48.828963 67.869189,46.627114 59.97119,43.687735 49.884684,43.659764" style="fill:none;stroke:#000000;stroke-width:1px;stroke-linecap:round;stroke-linejoin:round;stroke-opacity:1"/>
  <path style="fill:none;stroke:#000000;stroke-width:0.99999994px;stroke-linecap:round;stroke-linejoin:round;stroke-opacity:1" d="m 50.387516,65.630958 c 0.220346,0.979917 5.480672,6.250863 8.884533,-0.384282 2.819409,-5.495885 -7.301224,-11.061892 -11.305162,-6.380818 -1.818735,2.126313 -3.143517,5.143291 -2.106138,8.731149 1.816082,6.281075 9.519299,9.01407 14.942936,6.25192 7.214624,-3.674276 9.11411,-14.823703 3.833832,-21.367152 -3.342654,-4.142299 -6.964382,-5.884063 -13.038368,-7.861052 -2.606793,-0.607102 -5.329681,-0.537392 -8.224923,-0.279148" id="path4053" inkscape:connector-curvature="0" sodipodi:nodetypes="cssssscc"/>
  <path sodipodi:nodetypes="cssssscc" inkscape:connector-curvature="0" id="path4055" d="m 65.846682,162.73981 c 0.771609,-0.64297 8.154052,-1.61944 6.812336,5.71618 -1.111343,6.07607 -12.528247,4.32623 -12.852648,-1.82509 -0.147354,-2.79415 0.639536,-5.99384 3.647581,-8.20755 5.266037,-3.87543 13.040132,-1.3511 15.659288,4.14302 3.484047,7.30838 -1.847646,17.12157 -9.973685,19.28156 -5.246725,1.39464 -14.177644,-1.20478 -15.624436,-2.82183 -1.880804,-1.10325 -4.257193,-4.93221 -6.38579,-7.39832" style="fill:none;stroke:#000000;stroke-width:0.99999994px;stroke-linecap:round;stroke-linejoin:round;stroke-opacity:1"/>
  <path style="fill:none;stroke:#000000;stroke-width:1px;stroke-linecap:round;stroke-linejoin:round;stroke-opacity:1" d="m 25.521712,191.31256 c -1.120867,-0.0279 -8.260455,4.04948 -2.005188,9.31659 5.181233,4.36274 13.964764,-4.67903 9.988409,-10.05729 -1.806206,-2.44299 -4.711202,-4.60666 -8.877945,-4.46943 -7.294498,0.24025 -12.352366,7.51574 -10.84023,13.86453 2.011478,8.44526 10.028348,13.2065 19.263583,11.60356 12.170757,-2.11246 18.099704,-15.64762 18.678967,-23.84849 0.753818,-5.82383 -0.650698,-8.64717 -4.977477,-16.47249" id="path4057" inkscape:connector-curvature="0" sodipodi:nodetypes="cssssscc"/>
  <path sodipodi:nodetypes="csssssssc" inkscape:connector-curvature="0" id="path4059" d="m 209.09284,38.115216 c -0.57462,-0.463231 -6.03024,-1.106239 -4.9804,4.251414 0.86958,4.437736 9.28012,3.045399 9.46939,-1.461408 0.0859,-2.047153 -0.52075,-4.382126 -2.75848,-5.973581 -3.91751,-2.786082 -9.63363,-0.862186 -11.52161,3.185807 -2.51142,5.384723 0.76123,13.282686 6.76194,14.798018 6.39128,1.61396 16.01808,-7.206356 20.42774,-10.741559 18.44521,-14.787449 28.17029,2.138384 21.26027,11.854222 -4.39375,6.177829 -18.45318,8.426793 -34.97847,6.816374" style="fill:none;stroke:#000000;stroke-width:1px;stroke-linecap:round;stroke-linejoin:round;stroke-opacity:1"/>
  <path style="fill:none;stroke:#000000;stroke-width:1px;stroke-linecap:round;stroke-linejoin:round;stroke-opacity:1" d="m 297.7577,36.600317 c 0.18053,-0.395218 2.89776,-2.16848 3.77322,0.931213 0.72511,2.567474 -4.10067,4.044937 -5.40497,1.719451 -0.59246,-1.05632 -0.89499,-2.44645 -0.13512,-3.873543 1.33018,-2.498341 5.19765,-2.929439 6.95242,-1.350191 2.36637,2.129674 2.43028,7.217649 -0.82628,9.51495 -9.99735,7.052511 -25.90063,7.821186 -49.15192,9.336314" id="path4061" inkscape:connector-curvature="0" sodipodi:nodetypes="csssasc"/>
  <path style="fill:none;stroke:#000000;stroke-width:0.99999988px;stroke-linecap:round;stroke-linejoin:round;stroke-opacity:1" d="m 40.175948,92.018518 c 0.435666,-0.360667 4.603942,-0.908407 3.846382,3.2065 -0.627487,3.40837 -7.073701,2.42679 -7.256864,-1.02379 -0.0832,-1.56738 0.361095,-3.362242 2.059499,-4.60402 2.973309,-2.17392 7.607716,-0.462306 8.841549,2.32403 1.645781,3.71663 -0.954676,10.011162 -5.631344,10.815982 C 33.201809,104.25738 21.190252,92.660498 19.883279,89.908" id="path4063" inkscape:connector-curvature="0" sodipodi:nodetypes="csssasc"/>
  <path sodipodi:nodetypes="cssc" inkscape:connector-curvature="0" id="path4067" d="m 8.2127343,69.355826 c -0.410879,-3.692472 -0.280846,-6.14896 -4.755639,-8.249263 -5.5719229,-2.615255 -1.642819,-10.353525 3.654246,-5.680789 4.9262657,4.345646 1.997611,9.408895 1.101393,13.930052 z" style="fill:#000000;stroke:#000000;stroke-width:0.30000001;stroke-linecap:round;stroke-linejoin:round;stroke-miterlimit:4;stroke-opacity:1;stroke-dasharray:none"/>
  <path style="fill:#000000;stroke:#000000;stroke-width:0.30000001;stroke-linecap:round;stroke-linejoin:round;stroke-miterlimit:4;stroke-opacity:1;stroke-dasharray:none" d="m 9.9059623,55.781813 c -0.477154,-4.29674 -0.325225,-7.155331 -5.531551,-9.598265 -6.4828157,-3.041893 -1.908937,-12.047744 4.253528,-6.611541 5.7310907,5.055673 2.3220167,10.948412 1.278023,16.209806 z" id="path4069" inkscape:connector-curvature="0" sodipodi:nodetypes="cssc"/>
  <path style="fill:#000000;stroke:#000000;stroke-width:0.30000001;stroke-linecap:round;stroke-linejoin:round;stroke-miterlimit:4;stroke-opacity:1;stroke-dasharray:none" d="m 6.7812313,306.90141 c -0.157453,3.71193 0.140233,6.15378 -4.180484,8.55512 -5.3800715,2.99009 -0.931075,10.44161 4.034106,5.41764 4.6176127,-4.6723 1.349623,-9.52346 0.146378,-13.97276 z" id="path4071" inkscape:connector-curvature="0" sodipodi:nodetypes="cssc"/>
  <path sodipodi:nodetypes="cssc" inkscape:connector-curvature="0" id="path4073" d="m 9.3985913,320.32789 c -0.182257,4.31931 0.164766,7.16082 -4.862346,9.954 -6.2596609,3.47803 -1.08073,12.15008 4.695624,6.30525 5.3720087,-5.43569 1.5680087,-11.08156 0.166722,-16.25925 z" style="fill:#000000;stroke:#000000;stroke-width:0.30000001;stroke-linecap:round;stroke-linejoin:round;stroke-miterlimit:4;stroke-opacity:1;stroke-dasharray:none"/>
  <path style="fill:none;stroke:#000000;stroke-width:1px;stroke-linecap:round;stroke-linejoin:round;stroke-opacity:1" d="m 41.720974,290.23839 c 0.459358,-5.90812 -8.057236,-4.92496 -6.875606,1.51014 0.978744,5.33015 10.44496,3.73151 11.319144,-1.60105 0.420913,-2.56759 -0.585196,-5.89056 -3.124764,-7.5504 -4.59311,-3.00202 -11.789,-0.85284 -13.878521,3.98485 -2.519114,5.83229 3.644935,13.8679 7.206741,17.7906 23.053716,25.38962 -18.603487,33.8561 -14.799811,2.64625 1.463239,-12.00614 47.754674,-33.748 52.530239,-87.3953" id="path4075" inkscape:connector-curvature="0" sodipodi:nodetypes="cssssssc"/>
  <path style="fill:none;stroke:#000000;stroke-width:1px;stroke-linecap:round;stroke-linejoin:miter;stroke-opacity:1" d="m 83.960668,190.1542 c -11.211646,-0.58204 -24.550605,-4.92056 -34.195364,-14.49587 34.009801,34.47554 15.053295,41.65382 33.947571,58.10734" id="path4077" inkscape:connector-curvature="0" sodipodi:nodetypes="ccc"/>
  <path style="fill:none;stroke:#000000;stroke-width:1px;stroke-linecap:round;stroke-linejoin:miter;stroke-opacity:1" d="m 36.594578,253.96499 c 16.052562,-12.81076 19.817979,-6.53241 21.729744,-26.58511 1.08549,-11.38582 3.922153,-24.40527 -8.062916,-50.68504 35.277273,37.6598 1.07581,57.20672 7.359062,76.7445" id="path4079" inkscape:connector-curvature="0" sodipodi:nodetypes="cscc"/>
  <path style="fill:none;stroke:#000000;stroke-width:1px;stroke-linecap:butt;stroke-linejoin:miter;stroke-opacity:1" d="m 41.959839,234.88074 c 6.541715,-0.85076 11.047458,-4.60477 16.23041,-8.05325" id="path4081" inkscape:connector-curvature="0" sodipodi:nodetypes="cc"/>
  <path style="fill:none;stroke:#000000;stroke-width:1px;stroke-linecap:round;stroke-linejoin:miter;stroke-opacity:1" d="M 54.983977,241.13933 C 45.06412,263.31341 29.84305,267.9841 16.065524,295.7138 c -11.9721827,37.47537 25.660657,53.98899 45.276264,35.85512 2.578368,-2.3836 13.0376,-16.96501 18.158615,-20.49199" id="path4083" inkscape:connector-curvature="0" sodipodi:nodetypes="ccsc"/>
  <path style="fill:#000000;stroke:#000000;stroke-width:0.30000001;stroke-linecap:butt;stroke-linejoin:round;stroke-miterlimit:4;stroke-opacity:1;stroke-dasharray:none" d="m 36.136716,107.14371 c -36.9502698,10.90231 3.815411,50.46663 17.007938,71.89161 l -2.292836,-1.18786 C 28.458561,152.54968 1.5214263,116.64628 36.136716,107.14371 z" id="path4085" inkscape:connector-curvature="0" sodipodi:nodetypes="cccc"/>
  <path style="fill:#000000;stroke:#000000;stroke-width:0.2;stroke-linecap:butt;stroke-linejoin:miter;stroke-miterlimit:4;stroke-opacity:1;stroke-dasharray:none" d="m 51.137485,308.45709 c 13.865388,22.95462 -13.905187,30.87819 -21.639145,27.55268 1.148746,0.56347 -8.285001,-5.59248 -7.124119,-4.45672 5.236539,5.12324 7.483474,8.65961 15.03846,8.05138 15.484347,-2.03304 26.910541,-21.88251 13.724804,-31.14734 z" id="path4087" inkscape:connector-curvature="0" sodipodi:nodetypes="ccscc"/>
  <path style="fill:none;stroke:#000000;stroke-width:1px;stroke-linecap:round;stroke-linejoin:miter;stroke-opacity:1" d="m 32.114345,337.14761 c 28.287246,18.88068 27.373784,31.04584 29.711301,40.34449" id="path4089" inkscape:connector-curvature="0" sodipodi:nodetypes="cc"/>
  <path style="fill:none;stroke:#000000;stroke-width:1px;stroke-linecap:butt;stroke-linejoin:round;stroke-opacity:1" d="m 62.066568,330.86281 c 10.091192,-3.20612 17.61791,-0.56636 23.237989,4.40229" id="path4091" inkscape:connector-curvature="0" sodipodi:nodetypes="cc"/>
  <path style="fill:none;stroke:#000000;stroke-width:1px;stroke-linecap:round;stroke-linejoin:miter;stroke-opacity:1" d="M 317.1334,56.346246 C 269.66287,56.54574 196.41424,47.223766 184.81221,42.469867 -15.584253,-28.230089 -14.042507,112.92333 55.83622,112.4093" id="path4093" inkscape:connector-curvature="0" sodipodi:nodetypes="ccc"/>
  <path style="fill:none;stroke:#000000;stroke-width:1px;stroke-linecap:round;stroke-linejoin:miter;stroke-opacity:1" d="M 77.682672,63.680681 C 74.304011,62.941358 69.599553,59.468658 66.381256,55.445541" id="path4095" inkscape:connector-curvature="0" sodipodi:nodetypes="cc"/>
  <path style="fill:none;stroke:#000000;stroke-width:1px;stroke-linecap:butt;stroke-linejoin:miter;stroke-opacity:1" d="M 19.861473,89.787828 C 11.178745,68.565202 24.466012,44.704741 49.976681,43.662281" id="path4097" inkscape:connector-curvature="0" sodipodi:nodetypes="cc"/>
  <path style="fill:none;stroke:#000000;stroke-width:1px;stroke-linecap:round;stroke-linejoin:miter;stroke-opacity:1" d="M 13.641314,71.390174 C 21.126318,20.382078 107.11873,18.173664 121.57422,73.492763" id="path4099" inkscape:connector-curvature="0" sodipodi:nodetypes="cc"/>
  <path style="fill:#000000;stroke:#000000;stroke-width:0.2;stroke-linecap:butt;stroke-linejoin:miter;stroke-miterlimit:4;stroke-opacity:1;stroke-dasharray:none" d="M 13.509902,73.448959 C 30.090859,9.057526 105.28672,43.759214 111.06127,52.99252 c 36.44584,18.497904 60.36463,3.530503 61.1389,-17.66898 0.42489,-11.633453 -18.88195,-29.718361 -32.75395,-12.117698 21.04614,-15.954788 31.77336,8.167857 29.23813,19.629593 -4.26306,19.273202 -36.13186,22.893676 -58.49916,9.193398 C 105.98065,39.157025 34.429709,6.238092 13.290882,71.083546 z" id="path4101" inkscape:connector-curvature="0" sodipodi:nodetypes="ccacaccc"/>
  <path style="fill:none;stroke:#000000;stroke-width:1px;stroke-linecap:butt;stroke-linejoin:miter;stroke-opacity:1" d="M 241.59701,72.266253 C 231.82733,62.050098 200.32938,59.987123 180.23929,52.309268 109.78508,25.383691 80.304303,24.597808 57.270037,26.359726" id="path4103" inkscape:connector-curvature="0" sodipodi:nodetypes="csc"/>
  <path style="fill:none;stroke:#000000;stroke-width:1px;stroke-linecap:round;stroke-linejoin:miter;stroke-opacity:1" d="M 169.07739,67.001323 C 161.10026,56.50126 145.29497,45.383909 117.13388,31.969659" id="path4105" inkscape:connector-curvature="0" sodipodi:nodetypes="cc"/>
  <g id="g4113" transform="matrix(0.9972678,-0.07387111,0.07387111,0.9972678,-13.872819,-1.5804982)" style="fill:#000000;stroke:#000000">
    <path sodipodi:nodetypes="ccc" inkscape:connector-curvature="0" id="path4107" d="m 128.66625,86.913217 c -8.86029,1.624028 -11.13979,5.24755 -11.21261,8.610789 2.05292,1.453509 8.87329,0.541384 11.21261,-8.610789 z" style="fill:#000000;stroke:#000000;stroke-width:0.40000001;stroke-linecap:round;stroke-linejoin:round;stroke-miterlimit:4;stroke-opacity:1;stroke-dasharray:none"/>
    <path sodipodi:nodetypes="ccc" inkscape:connector-curvature="0" id="path4109" d="m 129.40963,94.161147 c 4.50018,9.236243 4.67585,18.142243 -1.05311,18.088853 -4.89159,0.11422 -5.293,-8.26418 1.05311,-18.088853 z" style="fill:#000000;stroke:#000000;stroke-width:1px;stroke-linecap:butt;stroke-linejoin:miter;stroke-opacity:1"/>
    <path style="fill:#000000;stroke:#000000;stroke-width:0.40000001;stroke-linecap:round;stroke-linejoin:round;stroke-miterlimit:4;stroke-opacity:1;stroke-dasharray:none" d="m 131.38589,87.251596 c 8.5239,2.912971 10.24408,6.833048 9.8201,10.17025 -2.24483,1.134854 -8.85611,-0.773154 -9.8201,-10.17025 z" id="path4111" inkscape:connector-curvature="0" sodipodi:nodetypes="ccc"/>
  </g>
  <g id="g4118" transform="matrix(0.53833706,-0.84272962,0.84272962,0.53833706,-56.580883,299.37015)" style="fill:#000000;stroke:#000000;stroke-opacity:1">
    <path style="fill:#000000;stroke:#000000;stroke-width:0.40000001;stroke-linecap:round;stroke-linejoin:round;stroke-miterlimit:4;stroke-opacity:1;stroke-dasharray:none" d="m 128.66625,86.913217 c -8.86029,1.624028 -11.13979,5.24755 -11.21261,8.610789 2.05292,1.453509 8.87329,0.541384 11.21261,-8.610789 z" id="path4120" inkscape:connector-curvature="0" sodipodi:nodetypes="ccc"/>
    <path style="fill:#000000;stroke:#000000;stroke-width:1px;stroke-linecap:butt;stroke-linejoin:miter;stroke-opacity:1" d="m 129.40963,94.161147 c 4.50018,9.236243 4.67585,18.142243 -1.05311,18.088853 -4.89159,0.11422 -5.293,-8.26418 1.05311,-18.088853 z" id="path4122" inkscape:connector-curvature="0" sodipodi:nodetypes="ccc"/>
    <path sodipodi:nodetypes="ccc" inkscape:connector-curvature="0" id="path4124" d="m 131.38589,87.251596 c 8.5239,2.912971 10.24408,6.833048 9.8201,10.17025 -2.24483,1.134854 -8.85611,-0.773154 -9.8201,-10.17025 z" style="fill:#000000;stroke:#000000;stroke-width:0.40000001;stroke-linecap:round;stroke-linejoin:round;stroke-miterlimit:4;stroke-opacity:1;stroke-dasharray:none"/>
  </g>
  <path style="fill:none;stroke:#000000;stroke-width:1px;stroke-linecap:butt;stroke-linejoin:miter;stroke-opacity:1" d="m 260.57477,53.496632 10.09754,7.062086" id="path4126" inkscape:connector-curvature="0" sodipodi:nodetypes="cc"/>
  <path style="fill:#000000;stroke:#000000;stroke-width:0.2;stroke-linecap:round;stroke-linejoin:round;stroke-miterlimit:4;stroke-opacity:1;stroke-dasharray:none" d="m 271.78738,57.894949 c 13.7759,6.411646 22.1178,6.146741 28.24834,3.840784 -0.24588,1.730194 -1.79155,7.084759 -13.87638,4.398317 2.828,2.264294 7.34748,3.358751 11.02677,5.203642 1.35738,0.680623 5.41765,5.228051 6.81429,7.185982 -2.01208,-0.1193 -7.50894,0.14247 -9.04443,-0.619481 -4.09824,-2.033653 -7.75197,-6.078381 -12.01793,-7.557671 9.11734,8.985656 5.90086,11.724564 4.52221,14.124172 -1.94808,-9.786597 -11.76639,-15.762627 -19.14197,-22.796909 -0.87153,-3.316559 -0.45133,-3.800416 3.4691,-3.778836 z" id="path4128" inkscape:connector-curvature="0" sodipodi:nodetypes="cccscscccc"/>
  <path sodipodi:nodetypes="cccscscccc" inkscape:connector-curvature="0" id="path4130" d="m 88.046556,334.81315 c 9.516096,8.14828 16.198874,9.78912 21.578654,9.31852 -0.57921,1.31931 -2.99484,5.22813 -11.994798,0.41314 1.74313,2.42556 5.089008,4.29756 7.601188,6.57899 0.92681,0.84168 3.14177,5.35363 3.8163,7.21827 -1.57125,-0.54124 -5.9942,-1.55322 -7.04439,-2.49899 -2.802958,-2.5243 -4.806658,-6.54686 -7.865828,-8.66818 5.24568,9.1584 2.08379,10.61947 0.45654,12.21895 0.62491,-8.20343 -5.845276,-15.12756 -10.140933,-22.34993 0.04394,-2.82694 0.484988,-3.1179 3.593267,-2.23077 z" style="fill:#000000;stroke:#000000;stroke-width:0.2;stroke-linecap:round;stroke-linejoin:round;stroke-miterlimit:4;stroke-opacity:1;stroke-dasharray:none"/>
  <g transform="matrix(-0.29932127,-0.95415239,-0.95415239,0.29932127,154.60896,354.58203)" id="g4132" style="fill:#000000;stroke:#000000">
    <path sodipodi:nodetypes="ccc" inkscape:connector-curvature="0" id="path4134" d="m 128.66625,86.913217 c -8.86029,1.624028 -11.13979,5.24755 -11.21261,8.610789 2.05292,1.453509 8.87329,0.541384 11.21261,-8.610789 z" style="fill:#000000;stroke:#000000;stroke-width:0.40000001;stroke-linecap:round;stroke-linejoin:round;stroke-miterlimit:4;stroke-opacity:1;stroke-dasharray:none"/>
    <path sodipodi:nodetypes="ccc" inkscape:connector-curvature="0" id="path4136" d="m 129.40963,94.161147 c 4.50018,9.236243 4.67585,18.142243 -1.05311,18.088853 -4.89159,0.11422 -5.293,-8.26418 1.05311,-18.088853 z" style="fill:#000000;stroke:#000000;stroke-width:1px;stroke-linecap:butt;stroke-linejoin:miter;stroke-opacity:1"/>
    <path style="fill:#000000;stroke:#000000;stroke-width:0.40000001;stroke-linecap:round;stroke-linejoin:round;stroke-miterlimit:4;stroke-opacity:1;stroke-dasharray:none" d="m 131.38589,87.251596 c 8.5239,2.912971 10.24408,6.833048 9.8201,10.17025 -2.24483,1.134854 -8.85611,-0.773154 -9.8201,-10.17025 z" id="path4138" inkscape:connector-curvature="0" sodipodi:nodetypes="ccc"/>
  </g>
  <path style="fill:#000000;stroke:#000000;stroke-width:0.2;stroke-linecap:butt;stroke-linejoin:miter;stroke-miterlimit:4;stroke-opacity:1;stroke-dasharray:none" d="m 17.923968,121.26788 c 12.265876,-14.02759 17.458865,9.23658 8.053256,15.54898 -12.516482,6.961 6.129564,19.56157 11.646247,2.35403 3.404854,-9.28413 1.45451,-15.65303 -3.840784,-23.78808 -3.943347,-5.45859 -6.057055,-11.7975 -2.725718,-23.911978 2.220785,-8.00442 11.668615,-8.465636 12.389626,-8.486893 10.136295,-0.298842 10.135886,6.865036 10.90287,9.787809 0.667529,7.248222 -4.288086,11.758312 -7.92936,12.823252 -11.566101,3.38266 -8.759306,1.94951 -12.197911,2.08484 l -0.501455,-1.96093 c 3.4757,0.51032 9.621779,0.6245 12.079885,-0.80533 4.431754,-2.57786 7.24796,-5.678562 7.309877,-12.141832 0.469869,-9.816808 -17.131182,-12.973101 -21.124309,-1.300916 -1.841736,10.330828 4.177178,18.123488 7.867411,27.071328 4.279988,9.07198 1.796384,18.65288 -0.185844,23.78809 -6.969129,12.99952 -25.324058,3.13117 -19.699504,-3.34521 15.032821,-18.16871 7.559733,-25.93369 -2.044287,-17.71716 z" id="path4140" inkscape:connector-curvature="0" sodipodi:nodetypes="cccccscsccscccccc"/>
  <path style="fill:#000000;stroke:#000000;stroke-width:0.2;stroke-linecap:butt;stroke-linejoin:miter;stroke-miterlimit:4;stroke-opacity:1;stroke-dasharray:none" d="m 241.46377,72.143017 c 3.90901,-0.637543 8.13947,1.008799 7.61962,6.721372 0.60336,0.158134 1.43038,0.181918 1.95137,0.09292 -1.67786,-3.394966 2.96155,-7.420717 6.25675,-3.407147 3.9332,3.601876 7.34508,1.964587 10.28339,1.858444 -2.28218,5.060793 -6.41992,3.995419 -10.28338,3.840784 -2.36208,0.801913 -0.974,3.491796 0.74337,3.469095 5.24943,-1.509479 7.40682,4.559627 7.18599,6.938189 -0.48839,4.351024 0.31359,5.094694 0.68142,6.721374 -2.24814,-1.10931 -4.76065,-1.07302 -7.24793,-1.14604 -5.91108,-0.45587 -6.03493,-4.30139 -6.3187,-8.053258 -0.40393,-2.514373 -2.87989,-2.236749 -2.97351,-0.247793 0.27121,3.429151 2.19372,6.547431 -4.02663,10.345331 -0.21526,-3.04551 0.50874,-8.40113 -1.22348,-9.338673 -2.84833,-1.797462 -3.90891,-8.076667 2.8651,-7.666081 -0.034,-0.467662 -0.0413,-1.218313 -0.34071,-1.765522 -4.48622,0.601723 -6.49643,-4.200784 -5.17267,-8.362995 z" id="path4142" inkscape:connector-curvature="0" sodipodi:nodetypes="ccccccccccccccccc"/>
  <path sodipodi:nodetypes="ccccccccccccccccc" inkscape:connector-curvature="0" id="path4144" d="m 77.36362,63.768461 c 2.362539,-3.178872 6.545728,-4.941871 10.149195,-0.478828 0.543245,-0.306487 1.153535,-0.865123 1.465607,-1.29169 -3.567892,-1.269307 -3.039612,-7.389085 2.12003,-6.801547 5.33107,-0.152155 6.64077,-3.702698 8.67634,-5.824337 1.884538,5.221924 -1.82765,7.337466 -4.70895,9.91591 -1.13755,2.220016 1.73148,3.184852 2.94862,1.973048 2.717868,-4.737954 8.491558,-1.882649 9.988808,-0.02131 2.67824,3.463662 3.77169,3.439277 5.16813,4.351043 -2.3862,0.768598 -4.16471,2.543678 -6.00121,4.222719 -4.56102,3.787586 -7.326898,1.113031 -10.142398,-1.382964 -2.04032,-1.523929 -3.62458,0.398965 -2.30724,1.892044 2.58184,2.273055 6.132768,3.173416 4.31088,10.230151 -2.2746,-2.03658 -5.48302,-6.385475 -7.37927,-5.852708 -3.29612,0.692368 -8.428656,-3.07729 -3.279649,-7.498096 -0.349961,-0.312074 -0.877751,-0.845899 -1.47363,-1.030323 -2.801864,3.554968 -7.588186,1.506521 -9.535263,-2.403112 z" style="fill:#000000;stroke:#000000;stroke-width:0.2;stroke-linecap:butt;stroke-linejoin:miter;stroke-miterlimit:4;stroke-opacity:1;stroke-dasharray:none"/>
  <path style="fill:#000000;stroke:#000000;stroke-width:0.2;stroke-linecap:butt;stroke-linejoin:miter;stroke-miterlimit:4;stroke-opacity:1;stroke-dasharray:none" d="m 42.378466,235.07153 c -1.06453,-3.81492 -4.33652,-6.96156 -9.30148,-4.08876 -0.397086,-0.48101 -0.766285,-1.22143 -0.90449,-1.73157 3.78575,0.0955 5.488595,-5.8063 0.461742,-7.10932 -4.921457,-2.05496 -4.869893,-5.839 -6.0086,-8.54978 -3.632811,4.19795 -0.926942,7.50464 0.837247,10.94526 0.265191,2.48036 -2.758979,2.35145 -3.460223,0.78361 -0.836764,-5.39768 -7.250524,-4.80429 -9.315954,-3.60416 -3.742745,2.27198 -4.7546207,1.85686 -6.3852377,2.20682 1.9514957,1.57364 2.9746207,3.86869 4.0863257,6.0949 2.898181,5.17197 6.439573,3.668 9.963206,2.3485 2.45126,-0.69031 3.240044,1.67301 1.474658,2.59394 -3.225525,1.19525 -6.863045,0.76148 -7.694646,8.00201 2.853902,-1.08476 7.409157,-3.99277 8.987952,-2.81506 2.828178,1.829 8.97156,0.15208 5.75177,-5.82192 0.438633,-0.16572 1.122825,-0.4746 1.745198,-0.43292 1.339653,4.3236 6.542258,4.12904 9.762551,1.17844 z" id="path4146" inkscape:connector-curvature="0" sodipodi:nodetypes="ccccccccccccccccc"/>
  <path sodipodi:nodetypes="ccccccccccccccccc" inkscape:connector-curvature="0" id="path4148" d="m 57.083434,252.20525 c -2.575257,3.40304 -3.136504,8.26204 2.567504,10.64255 -0.153095,0.65442 -0.546768,1.45426 -0.893851,1.90577 -2.389681,-3.3075 -8.560531,-0.91429 -6.395717,4.24539 1.451418,5.56025 -1.826014,7.98641 -3.406344,10.73219 5.970255,0.3735 7.038299,-4.1047 8.835925,-7.86314 1.953086,-1.84658 3.816915,0.82991 2.930732,2.45456 -4.080727,4.24107 0.615169,9.35159 2.992364,10.33858 4.391036,1.72509 4.69579,2.86347 6.060335,4.03278 0.07493,-2.70017 1.374351,-5.07548 2.55693,-7.48178 2.541448,-5.86078 -1.059782,-7.91463 -4.491288,-10.0737 -2.192063,-1.65056 -0.681133,-3.86956 1.260854,-2.95749 3.130377,1.98463 5.133297,5.38592 11.882952,1.3719 -2.793054,-1.73821 -8.259762,-3.74454 -8.280922,-5.86674 -0.278515,-3.61836 -5.726715,-7.78974 -8.745727,-1.12969 -0.428418,-0.26781 -1.139879,-0.65264 -1.510469,-1.21336 2.831699,-3.97094 -0.731604,-8.30364 -5.363298,-9.13783 z" style="fill:#000000;stroke:#000000;stroke-width:0.2;stroke-linecap:butt;stroke-linejoin:miter;stroke-miterlimit:4;stroke-opacity:1;stroke-dasharray:none"/>
  <g id="g4152" transform="matrix(0.00407883,-0.99999168,0.99999168,0.00407883,231.05699,186.13274)" style="fill:#000000;stroke:#000000">
    <path style="fill:#000000;stroke:#000000;stroke-width:0.40000001;stroke-linecap:round;stroke-linejoin:round;stroke-miterlimit:4;stroke-opacity:1;stroke-dasharray:none" d="m 128.66625,86.913217 c -8.86029,1.624028 -11.13979,5.24755 -11.21261,8.610789 2.05292,1.453509 8.87329,0.541384 11.21261,-8.610789 z" id="path4154" inkscape:connector-curvature="0" sodipodi:nodetypes="ccc"/>
    <path style="fill:#000000;stroke:#000000;stroke-width:1px;stroke-linecap:butt;stroke-linejoin:miter;stroke-opacity:1" d="m 129.40963,94.161147 c 4.50018,9.236243 4.67585,18.142243 -1.05311,18.088853 -4.89159,0.11422 -5.293,-8.26418 1.05311,-18.088853 z" id="path4156" inkscape:connector-curvature="0" sodipodi:nodetypes="ccc"/>
    <path sodipodi:nodetypes="ccc" inkscape:connector-curvature="0" id="path4158" d="m 131.38589,87.251596 c 8.5239,2.912971 10.24408,6.833048 9.8201,10.17025 -2.24483,1.134854 -8.85611,-0.773154 -9.8201,-10.17025 z" style="fill:#000000;stroke:#000000;stroke-width:0.40000001;stroke-linecap:round;stroke-linejoin:round;stroke-miterlimit:4;stroke-opacity:1;stroke-dasharray:none"/>
  </g>
  <path sodipodi:nodetypes="cccscscccc" inkscape:connector-curvature="0" id="path4160" d="m 58.17542,109.95034 c 15.171597,-0.84101 22.403163,-5.00778 26.722255,-9.93184 0.598943,1.64174 1.760503,7.09254 -10.163381,10.42136 3.561525,0.66343 8.063145,-0.50235 12.177656,-0.61011 1.517943,-0.0398 7.242642,2.05608 9.397452,3.12421 -1.83064,0.84347 -6.554728,3.66606 -8.268085,3.71808 -4.572965,0.13892 -9.702142,-1.70533 -14.161639,-0.9985 12.276983,3.62541 10.731844,7.55732 10.64745,10.32349 -6.332262,-7.71199 -17.80839,-8.35282 -27.629307,-11.07861 -2.33231,-2.51385 -2.189885,-3.13867 1.277599,-4.96808 z" style="fill:#000000;stroke:#000000;stroke-width:0.2;stroke-linecap:round;stroke-linejoin:round;stroke-miterlimit:4;stroke-opacity:1;stroke-dasharray:none"/>
  <path style="fill:#000000;stroke:#000000;stroke-width:0.2;stroke-linecap:round;stroke-linejoin:round;stroke-miterlimit:4;stroke-opacity:1;stroke-dasharray:none" d="m 86.297552,187.83374 c 15.171588,-0.84101 22.403158,-5.00778 26.722248,-9.93184 0.59894,1.64174 1.7605,7.09254 -10.16338,10.42136 3.56153,0.66343 8.06315,-0.50235 12.17766,-0.61011 1.51794,-0.0398 7.24264,2.05608 9.39745,3.12421 -1.83064,0.84347 -6.55473,3.66606 -8.26809,3.71808 -4.57296,0.13892 -9.70214,-1.70533 -14.16164,-0.9985 12.27699,3.62541 10.73185,7.55732 10.64745,10.32349 -6.33226,-7.71199 -17.808388,-8.35282 -27.629298,-11.07861 -2.33231,-2.51385 -2.18989,-3.13867 1.2776,-4.96808 z" id="path4162" inkscape:connector-curvature="0" sodipodi:nodetypes="cccscscccc"/>
  <g transform="matrix(-0.56006206,-0.82845064,0.82845064,-0.56006206,82.005449,466.58961)" id="g4164" style="fill:#000000;stroke:#000000">
    <path sodipodi:nodetypes="ccc" inkscape:connector-curvature="0" id="path4166" d="m 128.66625,86.913217 c -8.86029,1.624028 -11.13979,5.24755 -11.21261,8.610789 2.05292,1.453509 8.87329,0.541384 11.21261,-8.610789 z" style="fill:#000000;stroke:#000000;stroke-width:0.40000001;stroke-linecap:round;stroke-linejoin:round;stroke-miterlimit:4;stroke-opacity:1;stroke-dasharray:none"/>
    <path sodipodi:nodetypes="ccc" inkscape:connector-curvature="0" id="path4168" d="m 129.40963,94.161147 c 4.50018,9.236243 4.67585,18.142243 -1.05311,18.088853 -4.89159,0.11422 -5.293,-8.26418 1.05311,-18.088853 z" style="fill:#000000;stroke:#000000;stroke-width:1px;stroke-linecap:butt;stroke-linejoin:miter;stroke-opacity:1"/>
    <path style="fill:#000000;stroke:#000000;stroke-width:0.40000001;stroke-linecap:round;stroke-linejoin:round;stroke-miterlimit:4;stroke-opacity:1;stroke-dasharray:none" d="m 131.38589,87.251596 c 8.5239,2.912971 10.24408,6.833048 9.8201,10.17025 -2.24483,1.134854 -8.85611,-0.773154 -9.8201,-10.17025 z" id="path4170" inkscape:connector-curvature="0" sodipodi:nodetypes="ccc"/>
  </g>
  <g id="g4172" transform="matrix(0.98520458,-0.17138241,0.17138241,0.98520458,-80.935058,315.65793)" style="fill:#000000;stroke:#000000">
    <path style="fill:#000000;stroke:#000000;stroke-width:0.40000001;stroke-linecap:round;stroke-linejoin:round;stroke-miterlimit:4;stroke-opacity:1;stroke-dasharray:none" d="m 128.66625,86.913217 c -8.86029,1.624028 -11.13979,5.24755 -11.21261,8.610789 2.05292,1.453509 8.87329,0.541384 11.21261,-8.610789 z" id="path4174" inkscape:connector-curvature="0" sodipodi:nodetypes="ccc"/>
    <path style="fill:#000000;stroke:#000000;stroke-width:1px;stroke-linecap:butt;stroke-linejoin:miter;stroke-opacity:1" d="m 129.40963,94.161147 c 4.50018,9.236243 4.67585,18.142243 -1.05311,18.088853 -4.89159,0.11422 -5.293,-8.26418 1.05311,-18.088853 z" id="path4176" inkscape:connector-curvature="0" sodipodi:nodetypes="ccc"/>
    <path sodipodi:nodetypes="ccc" inkscape:connector-curvature="0" id="path4178" d="m 131.38589,87.251596 c 8.5239,2.912971 10.24408,6.833048 9.8201,10.17025 -2.24483,1.134854 -8.85611,-0.773154 -9.8201,-10.17025 z" style="fill:#000000;stroke:#000000;stroke-width:0.40000001;stroke-linecap:round;stroke-linejoin:round;stroke-miterlimit:4;stroke-opacity:1;stroke-dasharray:none"/>
  </g>
  <path sodipodi:nodetypes="cccscscccc" inkscape:connector-curvature="0" id="path4180" d="m 172.66545,66.814511 c 10.87587,10.611309 18.83494,13.12343 25.3832,12.977426 -0.8049,1.551184 -4.03633,6.091925 -14.54998,-0.444383 1.91876,3.072949 5.82092,5.602112 8.68181,8.561185 1.05545,1.091672 3.38099,6.726989 4.05056,9.036919 -1.85908,-0.77879 -7.13255,-2.35185 -8.32914,-3.57923 -3.1937,-3.275917 -5.30208,-8.302273 -8.83761,-11.11062 5.62782,11.49763 1.68589,13.01704 -0.40952,14.82482 1.40224,-9.879598 -5.88352,-18.769469 -10.51394,-27.849088 0.27577,-3.418052 0.83248,-3.735483 4.52462,-2.417029 z" style="fill:#000000;stroke:#000000;stroke-width:0.2;stroke-linecap:round;stroke-linejoin:round;stroke-miterlimit:4;stroke-opacity:1;stroke-dasharray:none"/>
  <metadata>
    <rdf:RDF>
      <cc:Work>
        <dc:format>image/svg+xml</dc:format>
        <dc:type rdf:resource="http://purl.org/dc/dcmitype/StillImage"/>
        <cc:license rdf:resource="http://creativecommons.org/licenses/publicdomain/"/>
        <dc:publisher>
          <cc:Agent rdf:about="http://openclipart.org/">
            <dc:title>Open Clip Art Library</dc:title>
          </cc:Agent>
        </dc:publisher>
        <dc:title>Stylized Flowers (Border)</dc:title>
        <dc:date>2012-08-09T14:04:04</dc:date>
        <dc:description/>
        <dc:source>http://openclipart.org/detail/171579/stylized-border-flowers-by-cyberscooty-171579</dc:source>
        <dc:creator>
          <cc:Agent>
            <dc:title>cyberscooty</dc:title>
          </cc:Agent>
        </dc:creator>
        <dc:subject>
          <rdf:Bag>
            <rdf:li>black and white</rdf:li>
            <rdf:li>border</rdf:li>
            <rdf:li>bordure</rdf:li>
            <rdf:li>clip art</rdf:li>
            <rdf:li>clipart</rdf:li>
            <rdf:li>fleur</rdf:li>
            <rdf:li>flower</rdf:li>
            <rdf:li>grass</rdf:li>
            <rdf:li>herbe</rdf:li>
            <rdf:li>noir et blanc</rdf:li>
            <rdf:li>plant</rdf:li>
            <rdf:li>plante</rdf:li>
            <rdf:li>stylisé</rdf:li>
            <rdf:li>stylized</rdf:li>
          </rdf:Bag>
        </dc:subject>
      </cc:Work>
      <cc:License rdf:about="http://creativecommons.org/licenses/publicdomain/">
        <cc:permits rdf:resource="http://creativecommons.org/ns#Reproduction"/>
        <cc:permits rdf:resource="http://creativecommons.org/ns#Distribution"/>
        <cc:permits rdf:resource="http://creativecommons.org/ns#DerivativeWorks"/>
      </cc:License>
    </rdf:RDF>
  </metadata>
</svg>
