<?xml version="1.0" encoding="utf-8"?>
<!-- Generator: Adobe Illustrator 16.0.0, SVG Export Plug-In . SVG Version: 6.00 Build 0)  -->
<!DOCTYPE svg PUBLIC "-//W3C//DTD SVG 1.1//EN" "http://www.w3.org/Graphics/SVG/1.1/DTD/svg11.dtd">
<svg version="1.1" id="Layer_1" xmlns="http://www.w3.org/2000/svg" xmlns:xlink="http://www.w3.org/1999/xlink" x="0px" y="0px"
	 width="296.341px" height="310.5px" viewBox="0 0 296.341 310.5" enable-background="new 0 0 296.341 310.5" xml:space="preserve">
<g>
	<g>
		<path fill="#14091C" d="M185.036,59.126c-11.843-2.703-24.029-0.635-34.316,5.828c-21.232,13.34-27.655,41.467-14.316,62.701
			c6.462,10.285,16.543,17.439,28.386,20.145c11.843,2.703,24.029,0.635,34.314-5.828c21.233-13.34,27.656-41.467,14.317-62.701
			C206.96,68.985,196.879,61.831,185.036,59.126z"/>
		<path fill="#14091C" d="M148.17,13.507c-78.281,0-141.742,63.461-141.742,141.742c0,78.283,63.461,141.744,141.742,141.744
			c78.283,0,141.743-63.461,141.743-141.744C289.913,76.968,226.453,13.507,148.17,13.507z M205.803,152.638
			c-13.133,8.25-28.696,10.893-43.817,7.439c-9.818-2.242-18.677-6.891-25.949-13.463l-20.064,12.605l-2.853-4.543L58.548,188.96
			c-2.454,1.541-5.301,1.941-7.918,1.344c-2.619-0.598-5.01-2.195-6.552-4.648c-3.085-4.908-1.605-11.387,3.304-14.471
			l54.571-34.281L99.1,132.36l20.082-12.617c-7.084-24.285,2.382-51.346,24.839-65.455c13.135-8.25,28.697-10.893,43.819-7.439
			s27.995,12.588,36.245,25.723C241.119,99.685,232.917,135.603,205.803,152.638z"/>
	</g>
	<g>
		<defs>
			<circle id="SVGID_1_" cx="174.912" cy="103.463" r="41.419"/>
		</defs>
		<clipPath id="SVGID_2_">
			<use xlink:href="#SVGID_1_"  overflow="visible"/>
		</clipPath>
		<g clip-path="url(#SVGID_2_)">
			<polygon fill="#1CE8B5" points="136.367,89.601 203.917,70.806 177.915,117.851 155.346,126.462 			"/>
			<polygon fill="#1CE8B5" points="207.199,72.614 238.028,98.313 182.659,117.138 			"/>
			<polygon fill="#1CE8B5" points="179.59,122.704 236.688,103.384 183.916,199.116 179.458,196.659 148.83,179.591 			"/>
			<polygon fill="#1CE8B5" points="146.452,182.821 182.282,202.212 127.432,217.327 			"/>
			<polygon fill="#1CE8B5" points="107.513,160.942 143.153,180.644 123.98,215.425 119.634,213.028 88.317,195.767 			"/>
		</g>
	</g>
	<g>
		<g>
			<polygon fill="#1CE8B5" points="155.126,180.464 174.944,191.19 144.603,199.552 			"/>
			<polygon fill="#1CE8B5" points="133.585,168.36 153.3,179.261 142.695,198.499 140.289,197.175 122.966,187.626 			"/>
		</g>
	</g>
	<circle opacity="0.1" fill="#FFFFFF" cx="174.912" cy="103.463" r="41.419"/>
	<path fill="#FFFFFF" d="M206.751,92.466c-0.892,0-1.763-0.444-2.272-1.255c-4.794-7.632-12.273-12.94-21.06-14.947
		c-8.785-2.005-17.827-0.471-25.459,4.324c-1.257,0.789-2.908,0.408-3.694-0.843c-0.788-1.253-0.41-2.907,0.843-3.695
		c8.844-5.556,19.32-7.336,29.504-5.01c10.182,2.325,18.849,8.477,24.405,17.321c0.787,1.253,0.409,2.907-0.844,3.694
		C207.73,92.333,207.237,92.466,206.751,92.466z"/>
</g>
<g>
	<path fill="#1CE8B5" d="M60.831,243.687v-20.902h4.665v16.746h8.91v4.156H60.831z"/>
	<path fill="#1CE8B5" d="M91.301,241.354c-1.813,1.715-3.941,2.572-6.384,2.572c-2.441,0-4.46-0.752-6.056-2.257
		c-1.595-1.505-2.392-3.524-2.392-6.056c0-2.531,0.812-4.545,2.437-6.041c1.625-1.495,3.544-2.242,5.757-2.242
		s4.091,0.668,5.637,2.003c1.544,1.336,2.317,3.17,2.317,5.502v2.392H80.896c0.14,0.877,0.599,1.595,1.376,2.153
		c0.777,0.558,1.653,0.837,2.631,0.837c1.574,0,2.87-0.528,3.888-1.584L91.301,241.354z M86.995,231.816
		c-0.618-0.518-1.371-0.777-2.257-0.777c-0.888,0-1.7,0.269-2.438,0.807c-0.738,0.538-1.166,1.266-1.285,2.183h7.056
		C87.973,233.071,87.613,232.334,86.995,231.816z"/>
	<path fill="#1CE8B5" d="M109.512,243.687h-4.216v-1.944c-1.156,1.456-2.587,2.183-4.291,2.183s-3.136-0.494-4.291-1.48
		c-1.156-0.987-1.734-2.302-1.734-3.947c0-1.645,0.598-2.875,1.794-3.693c1.196-0.817,2.831-1.227,4.904-1.227h3.35v-0.089
		c0-1.714-0.908-2.571-2.722-2.571c-0.777,0-1.601,0.154-2.467,0.463c-0.867,0.31-1.601,0.693-2.198,1.151l-2.003-2.9
		c2.112-1.535,4.524-2.302,7.235-2.302c1.954,0,3.549,0.489,4.785,1.465c1.236,0.977,1.854,2.522,1.854,4.635V243.687z
		 M104.997,237.557v-0.777h-2.812c-1.793,0-2.69,0.559-2.69,1.675c0,0.578,0.214,1.021,0.643,1.33s1.042,0.463,1.839,0.463
		c0.798,0,1.5-0.244,2.108-0.732C104.693,239.027,104.997,238.375,104.997,237.557z"/>
	<path fill="#1CE8B5" d="M122.072,231.547c-1.336,0-2.333,0.473-2.991,1.42c-0.657,0.947-0.986,2.198-0.986,3.752v6.967h-4.485
		V227.6h4.485v2.123c0.578-0.658,1.301-1.215,2.168-1.674c0.867-0.458,1.749-0.697,2.646-0.717l0.029,4.216H122.072z"/>
	<path fill="#1CE8B5" d="M130.385,234.717v8.97h-4.485V227.6h4.485v1.794c1.355-1.375,2.881-2.063,4.574-2.063
		c1.695,0,3.115,0.598,4.262,1.794s1.72,2.792,1.72,4.784v9.778h-4.486v-9.09c0-2.472-0.907-3.708-2.721-3.708
		c-0.897,0-1.68,0.324-2.347,0.971C130.719,232.508,130.385,233.46,130.385,234.717z"/>
	<path fill="#1CE8B5" d="M172.068,230.529l-5.652,11.424h-2.781l-5.621-11.424v13.158h-4.664v-20.902h6.309l5.383,11.483
		l5.412-11.483h6.279v20.902h-4.664V230.529z"/>
	<path fill="#1CE8B5" d="M197.516,235.644c0,2.332-0.807,4.296-2.422,5.89c-1.615,1.596-3.644,2.393-6.086,2.393
		c-2.441,0-4.471-0.797-6.085-2.393c-1.614-1.594-2.422-3.558-2.422-5.89c0-2.333,0.808-4.301,2.422-5.906
		c1.614-1.605,3.644-2.407,6.085-2.407c2.442,0,4.471,0.802,6.086,2.407C196.709,231.342,197.516,233.311,197.516,235.644z
		 M185.017,235.644c0,1.315,0.373,2.387,1.121,3.214c0.748,0.828,1.704,1.241,2.87,1.241s2.124-0.414,2.871-1.241
		c0.748-0.827,1.121-1.898,1.121-3.214c0-1.316-0.373-2.393-1.121-3.23c-0.747-0.837-1.705-1.255-2.871-1.255
		s-2.122,0.418-2.87,1.255C185.39,233.251,185.017,234.327,185.017,235.644z"/>
	<path fill="#1CE8B5" d="M209.297,231.547c-1.336,0-2.333,0.473-2.99,1.42c-0.658,0.947-0.987,2.198-0.987,3.752v6.967h-4.485V227.6
		h4.485v2.123c0.578-0.658,1.301-1.215,2.168-1.674c0.867-0.458,1.749-0.697,2.646-0.717l0.03,4.216H209.297z"/>
	<path fill="#1CE8B5" d="M227.059,241.354c-1.814,1.715-3.942,2.572-6.385,2.572c-2.441,0-4.46-0.752-6.055-2.257
		c-1.596-1.505-2.393-3.524-2.393-6.056c0-2.531,0.813-4.545,2.438-6.041c1.624-1.495,3.543-2.242,5.756-2.242
		s4.092,0.668,5.637,2.003c1.545,1.336,2.318,3.17,2.318,5.502v2.392h-11.723c0.14,0.877,0.599,1.595,1.376,2.153
		c0.776,0.558,1.653,0.837,2.632,0.837c1.573,0,2.869-0.528,3.887-1.584L227.059,241.354z M222.752,231.816
		c-0.617-0.518-1.371-0.777-2.257-0.777c-0.888,0-1.7,0.269-2.438,0.807s-1.166,1.266-1.285,2.183h7.056
		C223.729,233.071,223.371,232.334,222.752,231.816z"/>
</g>
<path fill="#1CE8B5" d="M175.85,189.478l19.117-31.507c-9.418,3.486-19.568,4.455-29.621,2.763l-8.905,17.944l16.942,9.443
	L175.85,189.478z"/>
</svg>
