<?xml version="1.0" encoding="utf-8"?>
<!-- Generator: Adobe Illustrator 19.0.0, SVG Export Plug-In . SVG Version: 6.00 Build 0)  -->
<svg version="1.1" id="Layer_1" xmlns="http://www.w3.org/2000/svg" xmlns:xlink="http://www.w3.org/1999/xlink" x="0px" y="0px"
	 viewBox="49.5 368.3 286 69.1" style="enable-background:new 49.5 368.3 286 69.1;" xml:space="preserve">
<style type="text/css">
	.st0{fill:#FF4C4C;}
	.st1{fill:#4D4D4D;}
</style>
<g>
	<path class="st0" d="M64.5,412.8h9.7v13.9c-1.5,0.5-3,0.8-4.6,1.1s-3.4,0.4-5.4,0.4c-4.3,0-7.7-1.3-10.1-3.9
		c-2.4-2.6-3.6-6.2-3.6-10.8c0-3,0.6-5.6,1.8-7.8c1.2-2.2,2.9-3.9,5.1-5.1c2.2-1.2,4.9-1.8,7.9-1.8c3,0,5.9,0.6,8.5,1.7l-1.3,2.9
		c-2.6-1.1-5.1-1.6-7.4-1.6c-3.5,0-6.2,1-8.1,3.1s-2.9,4.9-2.9,8.6c0,3.9,0.9,6.8,2.8,8.8c1.9,2,4.6,3,8.3,3c2,0,3.9-0.2,5.8-0.7
		v-8.8h-6.4V412.8z"/>
	<path class="st0" d="M97,427.8H81v-28.6H97v2.9H84.4v9.2h11.8v2.9H84.4v10.5H97V427.8z"/>
	<path class="st0" d="M112.1,427.8h-3.3v-25.6h-9v-2.9h21.4v2.9h-9V427.8z"/>
	<path class="st1" d="M125.4,427.8v-28.6h3.3v25.5h12.6v3H125.4z"/>
	<path class="st1" d="M142.3,406.4h3.5l4.7,12.2c1,2.8,1.7,4.8,1.9,6h0.2c0.2-0.7,0.5-1.8,1.1-3.4c0.5-1.6,2.3-6.6,5.3-14.8h3.5
		l-9.2,24.4c-0.9,2.4-2,4.1-3.2,5.1c-1.2,1-2.7,1.5-4.5,1.5c-1,0-2-0.1-2.9-0.3v-2.6c0.7,0.2,1.5,0.2,2.4,0.2c2.2,0,3.8-1.2,4.8-3.8
		l1.2-3L142.3,406.4z"/>
	<path class="st1" d="M175.6,406c1,0,1.8,0.1,2.6,0.2l-0.4,3c-0.9-0.2-1.7-0.3-2.3-0.3c-1.7,0-3.2,0.7-4.4,2.1s-1.8,3.2-1.8,5.3
		v11.5h-3.2v-21.4h2.7l0.4,4h0.2c0.8-1.4,1.8-2.5,2.9-3.2C173,406.4,174.3,406,175.6,406z"/>
	<path class="st1" d="M181.9,400.6c0-0.7,0.2-1.3,0.5-1.6c0.4-0.3,0.8-0.5,1.4-0.5c0.5,0,1,0.2,1.3,0.5s0.6,0.9,0.6,1.6
		c0,0.7-0.2,1.3-0.6,1.6c-0.4,0.4-0.8,0.5-1.3,0.5c-0.5,0-1-0.2-1.4-0.5C182.1,401.8,181.9,401.3,181.9,400.6z M185.4,427.8h-3.2
		v-21.4h3.2V427.8z"/>
	<path class="st1" d="M200.8,428.2c-3.1,0-5.5-1-7.2-2.9s-2.5-4.6-2.5-8.1c0-3.6,0.9-6.3,2.6-8.3s4.2-2.9,7.4-2.9
		c1,0,2.1,0.1,3.1,0.3c1,0.2,1.8,0.5,2.4,0.8l-1,2.8c-0.7-0.3-1.5-0.5-2.3-0.7c-0.8-0.2-1.6-0.3-2.2-0.3c-4.3,0-6.5,2.8-6.5,8.3
		c0,2.6,0.5,4.6,1.6,6.1s2.6,2.1,4.7,2.1c1.8,0,3.6-0.4,5.5-1.2v2.9C204.8,427.8,203,428.2,200.8,428.2z"/>
	<path class="st1" d="M225.1,421.9c0,2-0.7,3.5-2.2,4.6s-3.6,1.6-6.2,1.6c-2.8,0-5.1-0.4-6.6-1.3v-3c1,0.5,2.1,0.9,3.3,1.2
		s2.3,0.4,3.4,0.4c1.7,0,3-0.3,3.9-0.8s1.4-1.4,1.4-2.5c0-0.8-0.4-1.5-1.1-2.1c-0.7-0.6-2.1-1.3-4.2-2.1c-2-0.7-3.4-1.4-4.2-1.9
		c-0.8-0.6-1.5-1.2-1.9-1.9s-0.6-1.5-0.6-2.5c0-1.7,0.7-3.1,2.1-4.1c1.4-1,3.4-1.5,5.8-1.5c2.3,0,4.6,0.5,6.8,1.4l-1.2,2.6
		c-2.1-0.9-4.1-1.3-5.8-1.3c-1.5,0-2.7,0.2-3.5,0.7c-0.8,0.5-1.2,1.1-1.2,2c0,0.6,0.1,1.1,0.4,1.5c0.3,0.4,0.8,0.8,1.4,1.2
		c0.7,0.4,1.9,0.9,3.8,1.6c2.5,0.9,4.3,1.9,5.1,2.8S225.1,420.5,225.1,421.9z"/>
	<path class="st1" d="M229.9,425.7c0-0.9,0.2-1.5,0.6-2s1-0.7,1.7-0.7c0.8,0,1.3,0.2,1.8,0.7s0.6,1.1,0.6,2c0,0.8-0.2,1.5-0.6,2
		s-1,0.7-1.8,0.7c-0.7,0-1.2-0.2-1.7-0.6S229.9,426.6,229.9,425.7z"/>
	<path class="st1" d="M259.5,417.1c0,3.5-0.9,6.2-2.6,8.2s-4.2,2.9-7.3,2.9c-1.9,0-3.6-0.4-5.1-1.3s-2.6-2.2-3.4-3.9
		s-1.2-3.6-1.2-5.9c0-3.5,0.9-6.2,2.6-8.2c1.7-1.9,4.2-2.9,7.3-2.9c3,0,5.4,1,7.1,3S259.5,413.7,259.5,417.1z M243.2,417.1
		c0,2.7,0.5,4.8,1.6,6.2s2.7,2.1,4.8,2.1s3.7-0.7,4.8-2.1s1.7-3.5,1.7-6.3c0-2.7-0.5-4.8-1.7-6.2c-1.1-1.4-2.7-2.1-4.9-2.1
		c-2.1,0-3.7,0.7-4.8,2.1C243.8,412.2,243.2,414.3,243.2,417.1z"/>
	<path class="st1" d="M275,406c1,0,1.8,0.1,2.6,0.2l-0.4,3c-0.9-0.2-1.7-0.3-2.3-0.3c-1.7,0-3.2,0.7-4.4,2.1s-1.8,3.2-1.8,5.3v11.5
		h-3.2v-21.4h2.7l0.4,4h0.2c0.8-1.4,1.8-2.5,2.9-3.2C272.4,406.4,273.6,406,275,406z"/>
	<path class="st1" d="M299.1,406.4v2.1l-4,0.5c0.4,0.5,0.7,1.1,1,1.8c0.3,0.7,0.4,1.6,0.4,2.5c0,2.1-0.7,3.8-2.1,5s-3.4,1.9-5.9,1.9
		c-0.6,0-1.2-0.1-1.8-0.2c-1.4,0.7-2.1,1.6-2.1,2.8c0,0.6,0.2,1,0.7,1.3s1.3,0.4,2.5,0.4h3.8c2.3,0,4.1,0.5,5.3,1.5s1.9,2.4,1.9,4.3
		c0,2.4-1,4.2-2.9,5.4s-4.7,1.9-8.3,1.9c-2.8,0-5-0.5-6.5-1.6s-2.3-2.5-2.3-4.4c0-1.3,0.4-2.4,1.2-3.4s2-1.6,3.5-1.9
		c-0.5-0.2-1-0.6-1.4-1.2s-0.6-1.1-0.6-1.8c0-0.8,0.2-1.5,0.6-2.1s1.1-1.2,2-1.7c-1.1-0.5-2-1.2-2.7-2.3s-1-2.3-1-3.8
		c0-2.3,0.7-4.2,2.1-5.4s3.4-1.9,6-1.9c1.1,0,2.1,0.1,3,0.4H299.1z M282,431.4c0,1.2,0.5,2,1.5,2.6s2.4,0.9,4.2,0.9
		c2.7,0,4.7-0.4,6-1.2s2-1.9,2-3.3c0-1.2-0.4-2-1.1-2.4s-2.1-0.7-4-0.7h-3.9c-1.5,0-2.6,0.4-3.4,1.1S282,430.1,282,431.4z
		 M283.8,413.2c0,1.5,0.4,2.6,1.3,3.4c0.8,0.8,2,1.2,3.5,1.2c3.2,0,4.7-1.5,4.7-4.6c0-3.2-1.6-4.8-4.8-4.8c-1.5,0-2.7,0.4-3.5,1.2
		S283.8,411.6,283.8,413.2z"/>
</g>
<g>
	<g>
		<path class="st0" d="M300.7,382c-1-1-2.7-0.6-2.7-0.6c-6.4,4.9-13.6,17.8-13.6,17.8c-1.4,2.3,0,3.5,0,3.5c1.7,1.7,7.1-3.7,11.8-10
			C300.9,386.3,301.7,383,300.7,382z M321.6,405.4c0,0,0.4-1.7-0.7-2.7c-1-1-4.3-0.1-10.5,4.9c-6.2,5-11.3,10.6-9.6,12.2
			c0,0,1.2,1.3,3.5-0.1C304.4,419.7,316.9,412,321.6,405.4z M334.5,390c0,0,0.9-7.4-7.1-15.2c-7.9-7.8-14-6-14-6s-9.5-2.6-18.7,4
			c-1.2,0.8-2.3,2.3-2.7,3.1c-0.3,0.8-1.6,2.1-2.6,3.2c-1.4,1.4-3.1,3.7-4.1,7.1c0,0-3.1,3.8-3.4,5.9c-0.2,1.2,0.1,2.4,0.4,3.3
			c-0.1,0.6,0.3,5.1,0.3,5.1s3-6,6.8-11.1c3.8-5.1,7.6-8.5,7.6-8.5l-3.2,0.1c0,0-0.5,0.1-1.7,1l-0.5,0c0,0,0.1-0.6,0.1-1.3
			c0-0.7,0.4-1.6,1.1-2c0.7-0.4,1.5-1.3,1.8-2c0.3-0.7,1.4-2.2,2.6-2.9c2.6-1.6,7.7-3.8,15.3-3c0,0,1.5,0.8,8,4.5
			c8.3,4.9,9.9,13,9.9,13s1.2,2.6,1.9,2.7c0,0,1.7,8-2.7,15.4c-0.7,1.3-2.1,2.4-2.9,2.6c-0.8,0.2-1.7,1-2.1,1.6
			c-0.3,0.7-1.1,1.2-1.7,1.3c-0.4,0-0.8,0.1-1.1,0.3l-0.2-0.8c0,0,0.8-1.2,0.8-1.6c0.1-0.4-0.4-2.5-0.4-2.5s-3.9,5.3-17.3,13.8
			c0,0,4.4,1.5,7.3,0.8c2.9-0.6,5.3-3.3,5.3-3.3s4.4-1.5,6.5-3.7c0.5-0.6,1-1.1,1.3-1.5c0.7-0.8,1.8-1.8,2.5-2
			c0.7-0.2,2.2-1.3,3-2.5C332.7,405.8,335.8,399.4,334.5,390z"/>
	</g>
</g>
</svg>
