<?xml version="1.0" encoding="utf-8"?>
<!-- Generator: Adobe Illustrator 15.1.0, SVG Export Plug-In . SVG Version: 6.00 Build 0)  -->
<!DOCTYPE svg PUBLIC "-//W3C//DTD SVG 1.1//EN" "http://www.w3.org/Graphics/SVG/1.1/DTD/svg11.dtd">
<svg version="1.1" id="Layer_1" xmlns="http://www.w3.org/2000/svg" xmlns:xlink="http://www.w3.org/1999/xlink" x="0px" y="0px"
	 width="430.5em" height="387.5em" viewBox="0 0 430.5 387.5" enable-background="new 0 0 430.5 387.5" xml:space="preserve">
<g>
	<g>
		<defs>
			<rect id="SVGID_1_" x="1" y="3" width="430.615" height="382.039"/>
		</defs>
		<clipPath id="SVGID_2_">
			<use xlink:href="#SVGID_1_"  overflow="visible"/>
		</clipPath>
		<path clip-path="url(#SVGID_2_)" fill="#1A171B" d="M374.016,120.759h-13.543v8.435h-0.242
			c-3.444-6.892-10.449-10.096-18.173-10.096c-17.469,0-27.805,14.259-27.805,30.771c0,17.584,8.079,32.318,27.567,32.318
			c7.604,0,14.615-4.036,18.412-10.81h0.242v9.388c0,10.097-4.874,15.681-15.803,15.681c-6.894,0-13.072-1.307-14.735-9.028h-13.541
			c1.182,14.376,15.084,19.13,27.444,19.13c19.367,0,30.177-9.148,30.177-27.571v-58.217H374.016z M343.956,171.496
			c-11.287,0-16.158-10.222-16.158-20.32c0-10.223,4.162-21.389,16.158-21.389c11.766,0,16.519,9.743,16.519,20.317
			C360.473,160.562,355.958,171.496,343.956,171.496 M249.842,182.187h13.547v-36.239c0-9.028,5.818-16.16,14.849-16.16
			c7.959,0,11.766,4.161,12.003,13.783v38.616h13.542v-42.179c0-13.781-8.435-20.91-21.74-20.91c-8.076,0-15.09,4.153-19.128,10.93
			l-0.243-0.24v-9.028h-12.83V182.187z M194.708,146.068c0.36-9.148,6.777-16.28,16.163-16.28c9.148,0,14.967,7.72,15.443,16.28
			H194.708z M239.861,154.976c2.254-18.414-9.625-35.878-28.99-35.878c-18.3,0-29.706,14.964-29.706,32.432
			c0,18.891,10.815,32.32,30.06,32.32c13.426,0,24.837-7.482,27.802-20.914h-12.832c-2.374,6.778-7.128,10.224-14.97,10.224
			c-11.286,0-16.517-8.56-16.517-18.183H239.861z M142.315,182.187h13.542v-29.227c0-13.549,7.369-21.028,16.637-21.028
			c1.899,0,3.919,0.354,5.816,0.588v-13.064c-1.182-0.12-2.017-0.357-5.105-0.357c-8.318,0-16.397,7.008-17.943,13.542h-0.234
			v-11.88h-12.713V182.187z M70.502,204.884h13.543v-30.66h0.237c4.277,6.775,12.71,9.625,20.557,9.625
			c18.179,0,26.496-15.56,26.496-32.082c0-17.939-9.388-32.67-28.753-32.67c-7.844,0-15.212,2.965-19.013,9.977h-0.237v-8.315
			H70.502V204.884z M117.79,151.53c0,10.695-4.631,21.629-16.991,21.629c-10.931,0-17.229-9.268-17.229-21.629
			c0-13.067,5.824-21.742,17.229-21.742C111.971,129.788,117.79,140.366,117.79,151.53 M5.46,162.464
			c0.234,14.494,11.759,21.385,27.208,21.385c12.71,0,27.45-5.348,27.45-19.958c0-12.123-9.985-15.687-19.845-17.943
			c-9.982-2.257-19.966-3.205-19.966-9.865c0-5.345,7.251-6.295,11.168-6.295c5.944,0,11.294,1.783,12.477,8.201h14.14
			c-1.662-13.666-13.064-18.891-25.662-18.891c-11.167,0-25.664,4.153-25.664,17.584c0,12.477,9.742,16.037,19.722,18.174
			c9.865,2.26,19.728,3.091,20.083,10.222c0.354,7.006-8.555,8.081-13.666,8.081c-7.246,0-13.189-2.852-13.9-10.695H5.46z"/>
	</g>
	<g>
		<defs>
			<rect id="SVGID_3_" x="1" y="3" width="431.582" height="384.5"/>
		</defs>
		<clipPath id="SVGID_4_">
			<use xlink:href="#SVGID_3_"  overflow="visible"/>
		</clipPath>
		<path clip-path="url(#SVGID_4_)" fill="#1A171B" d="M354.625,80.486c-8.492,0-17.62-5.829-17.62-18
			c0-5.954,2.914-11.915,10.391-17.362c11.533,9.38,19.267,16.73,26.363,24.584C369.831,75.16,362.479,80.486,354.625,80.486
			 M355.002,8.748c6.34,0,10.517,6.085,10.517,13.182c0,6.975-3.292,12.038-8.869,16.097c-7.857-5.956-11.658-10.39-11.658-16.859
			C344.993,13.818,349.303,8.748,355.002,8.748 M409.886,33.715h-29.152v3.678c8.87,1.139,10.14,2.785,7.602,8.619
			c-2.281,5.32-4.434,9.502-7.345,13.938c-8.246-8.363-16.859-15.841-20.918-19.388c4.692-3.168,7.858-5.578,10.145-7.606
			c2.785-2.405,5.323-5.954,5.323-11.025c0-10.139-8.495-17.62-19.269-17.62c-11.277,0-21.166,8.878-21.166,20.281
			c0,6.97,3.423,12.291,8.998,17.617c-10.772,7.734-18.758,12.799-18.758,24.335c0,11.028,9.001,23.066,25.347,23.066
			c8.874,0,17.239-4.56,26.117-16.474c4.183,4.307,9.249,10.012,10.894,11.785c1.525,1.646,8.617,4.566,16.48,5.069l0.886-1.138
			c-4.183-7.608-15.085-19.899-20.915-25.605c4.311-6.587,7.482-11.659,11.027-16.599c4.183-6.085,6.081-8.24,14.706-9.253v-3.678
			H409.886z M246.764,87.833h12.833v-8.435h0.234c4.043,8.081,12.952,10.099,21.271,10.099c18.179,0,26.496-15.566,26.496-32.08
			c0-17.938-9.389-32.677-28.756-32.677c-6.889,0-14.611,3.687-18.294,9.625h-0.237V3.001h-13.547V87.833z M294.058,57.177
			c0,10.695-4.637,21.628-16.996,21.628c-10.93,0-17.23-9.268-17.23-21.628c0-13.069,5.827-21.742,17.23-21.742
			C288.232,35.435,294.058,46.012,294.058,57.177 M204.907,89.498c19.724,0,31.008-13.543,31.008-32.434
			c0-18.777-11.284-32.323-31.008-32.323c-19.725,0-31.013,13.546-31.013,32.323C173.894,75.955,185.182,89.498,204.907,89.498
			 M204.907,78.805c-12.123,0-17.465-11.053-17.465-21.742c0-10.578,5.342-21.628,17.465-21.628
			c12.117,0,17.466,11.051,17.466,21.628C222.375,67.752,217.023,78.805,204.907,78.805 M166.3,46.958
			c-1.306-15.086-13.423-22.217-27.68-22.217c-20.2,0-30.3,14.494-30.3,33.034c0,18.06,10.574,31.723,29.82,31.723
			c15.802,0,25.668-8.789,28.16-24.712h-13.543c-1.306,8.792-6.774,14.02-14.617,14.02c-11.759,0-16.277-10.813-16.277-21.031
			c0-18.654,9.86-22.339,16.874-22.339c7.482,0,12.95,4.045,14.02,11.523H166.3z M97.34,42.561c0-12.949-12.593-17.82-24.596-17.82
			c-13.542,0-26.974,4.631-27.919,20.437h13.541c0.599-6.654,5.944-9.743,13.546-9.743c5.467,0,12.715,1.309,12.715,8.316
			c0,7.958-8.674,6.895-18.417,8.675c-11.406,1.311-23.645,3.803-23.645,19.131c0,11.999,9.982,17.94,21.034,17.94
			c7.246,0,15.919-2.254,21.269-7.485c1.068,5.588,4.988,7.485,10.456,7.485c2.254,0,6.534-0.83,8.555-1.544v-9.388
			c-1.429,0.24-2.5,0.24-3.33,0.24c-2.497,0-3.208-1.308-3.208-4.64V42.561L97.34,42.561z M83.792,67.16
			c0,8.555-9.266,11.646-15.205,11.646c-4.751,0-12.478-1.783-12.478-7.845c0-7.126,5.227-9.263,11.052-10.217
			c5.943-1.069,12.477-0.949,16.631-3.68V67.16z M18.41,15.829h13.546V3H18.41V15.829z M18.41,92.468
			c0,6.058-0.474,9.034-5.465,9.034c-1.306,0-2.853-0.24-4.634-0.479v10.696c1.782,0.234,3.445,0.468,6.056,0.468
			c12.715,0,17.589-6.885,17.589-19.125V26.404H18.41V92.468z"/>
	</g>
	<g>
		<defs>
			<rect id="SVGID_5_" x="1" y="3" width="431.582" height="384.5"/>
		</defs>
		<clipPath id="SVGID_6_">
			<use xlink:href="#SVGID_5_"  overflow="visible"/>
		</clipPath>
		<path clip-path="url(#SVGID_6_)" fill="#1A171B" d="M380.215,366.246V364c-4.661-0.578-5.157-0.831-5.157-6.403v-15.968
			c0-8.066-4.08-12.811-10.731-12.811c-2.413,0-4.491,0.919-6.819,2.496c-2.078,1.331-3.825,2.662-5.489,3.825v-6.568
			c-3.908,1.663-8.072,2.659-12.226,3.412v1.994c4.406,0.828,4.906,1.08,4.906,6.405v17.132c0,5.491-0.417,5.908-5.992,6.486v2.246
			h18.386V364c-4.577-0.497-5.075-0.831-5.075-6.403v-19.628c2.408-2.083,5.408-3.912,8.568-3.912c4.988,0,7.152,3.416,7.152,9.148
			v13.891c0,5.822-0.5,6.406-5.16,6.903v2.246H380.215z M320.581,331.985c4.407,0,7.068,3.989,6.985,8.314
			c0,1.246-0.5,1.663-1.912,1.663c-4.574,0.166-8.985,0.252-13.391,0.252C313.429,335.555,316.92,331.985,320.581,331.985
			 M333.557,357.183c-2.998,2.746-6.157,4.074-9.483,4.074c-5.822,0-12.063-4.654-12.225-15.554
			c9.648-0.333,19.962-1.166,21.374-1.412c1.583-0.252,1.997-1.001,1.997-2.749c0-6.486-5.573-12.724-12.642-12.724h-0.083
			c-4.242,0-8.733,2.328-12.228,6.073c-3.408,3.66-5.575,8.816-5.575,14.64c0,9.394,5.995,17.716,16.306,17.716
			c2.825,0,8.648-1.586,13.808-8.237L333.557,357.183z M301.794,363.256l-0.755-2.248c-1.242,0.583-2.989,1.244-4.988,1.244
			c-1.994,0-4.823-1.16-4.823-7.812v-21.211h8.651c1.16-0.668,1.328-2.497,0.5-3.411h-9.151v-11.48l-1.163-0.246l-6.157,5.735v5.992
			h-3.66l-2.323,2.494l0.413,0.917h5.57v24.035c0,6.736,3.078,9.985,8.569,9.985c0.748,0,1.997-0.335,3.409-1.083L301.794,363.256z
			 M276.343,366.246V364c-3.079-0.246-5.153-1.415-8.067-4.491c-2.743-2.991-10.983-12.812-12.729-15.468
			c3.331-3.994,4.746-5.657,6.905-7.82c3.081-2.912,5.075-3.825,10.646-4.74v-2.165l-17.134,0.751v2.246
			c3.825,0.414,4.077,1.166,2.497,3.573c-1.415,2.165-3.825,5.409-5.657,7.32c-1.246,1.331-2.743,2.411-5.158,2.914v-38.926
			c-3.66,1.166-8.648,2.491-12.641,2.908v1.997c4.991,0.414,5.405,0.911,5.405,6.237v39.176c0,5.405-0.5,5.989-5.986,6.486v2.246
			h19.131V364c-5.24-0.497-5.909-0.995-5.909-6.486v-9.154c0.503-0.16,0.83-0.16,1.164-0.16c0.751,0,1.414,0.498,2.497,1.742
			c4.409,5.658,9.48,12.474,13.057,16.389L276.343,366.246z M216.71,331.985c4.407,0,7.069,3.989,6.982,8.314
			c0,1.246-0.497,1.663-1.911,1.663c-4.574,0.166-8.983,0.252-13.389,0.252C209.556,335.555,213.048,331.985,216.71,331.985
			 M229.681,357.183c-2.994,2.746-6.151,4.074-9.479,4.074c-5.823,0-12.061-4.654-12.229-15.554
			c9.649-0.333,19.963-1.166,21.376-1.412c1.582-0.252,2.001-1.001,2.001-2.749c0-6.486-5.575-12.724-12.646-12.724h-0.083
			c-4.242,0-8.733,2.328-12.225,6.073c-3.412,3.66-5.575,8.816-5.575,14.64c0,9.394,5.991,17.716,16.306,17.716
			c2.823,0,8.648-1.586,13.804-8.237L229.681,357.183z M197.245,363.256l-0.746-2.248c-1.25,0.583-2.996,1.244-4.988,1.244
			c-2,0-4.829-1.16-4.829-7.812v-21.211h8.653c1.165-0.668,1.334-2.497,0.499-3.411h-9.152v-11.48l-1.161-0.246l-6.157,5.735v5.992
			h-3.657l-2.329,2.494l0.417,0.917h5.569v24.035c0,6.736,3.079,9.985,8.571,9.985c0.746,0,1.991-0.335,3.411-1.083L197.245,363.256
			z M170.713,366.246V364c-5.319-0.497-5.819-0.995-5.819-6.651v-28.612c-3.828,1.497-8.072,2.494-12.395,3.247v1.994
			c4.743,0.749,5.074,1.163,5.074,6.319v17.051c0,5.737-0.582,6.154-5.743,6.651v2.246L170.713,366.246L170.713,366.246z
			 M160.733,321.917c2.497,0,4.494-2.081,4.494-4.491c0-2.656-1.997-4.655-4.41-4.655c-2.494,0-4.572,1.997-4.572,4.655
			C156.246,319.835,158.323,321.917,160.733,321.917 M146.837,366.246V364c-4.743-0.497-5.32-0.914-5.32-6.319V342.96
			c0-9.815-4.659-14.139-11.479-14.139c-4.406,0-8.818,2.996-11.727,5.907v-27.531c-3.577,1.08-8.736,2.249-12.812,2.829v2.077
			c5.24,0.501,5.492,0.752,5.492,5.992V357.6c0,5.489-0.669,5.906-5.573,6.403l-0.083,2.245h18.048v-2.245
			c-4.658-0.498-5.072-1.08-5.072-6.32v-19.964c2.161-2.488,5.155-3.903,8.149-3.903c5.07,0,7.734,3.16,7.734,9.977v13.891
			c0,5.327-0.583,5.822-5.236,6.32v2.245h17.878V366.246z M101.684,356.847c-3.663,3.417-6.319,4.412-9.817,4.412
			c-4.488,0-12.392-3.829-12.392-15.216c0-8.816,4.575-13.145,9.649-13.145c2.829,0,5.737,1.083,8.399,3.574
			c0.666,0.668,1.081,0.917,1.583,0.917c0.998,0,2.91-1.912,2.91-3.74c0-1.001-0.249-1.748-1.33-2.668
			c-1.332-1.074-4.077-2.159-7.402-2.159h-0.086c-3.16,0-8.231,1.333-12.725,4.827c-5.486,4.236-8.399,9.811-8.399,16.217
			c0,8.897,6.322,17.386,16.97,17.386c4.907,0,10.396-3.66,14.137-8.571L101.684,356.847z M55.022,337.714v-9.056
			c-4.244,1.663-8.15,2.657-12.309,3.325v1.994c4.573,0.663,4.989,0.995,4.989,6.239v17.381c0,5.408-0.663,5.906-5.655,6.403v2.246
			h19.797V364c-6.406-0.497-6.822-0.995-6.822-6.403v-15.219c1.748-4.494,4.245-6.654,6.239-6.654c1.415,0,2.412,0.498,3.657,1.664
			c0.5,0.497,1.252,0.665,2.245,0.248c1.75-0.745,2.913-2.577,2.913-4.49c0-2.081-1.992-4.324-4.99-4.324
			c-3.825,0-7.321,4.489-9.896,8.896h-0.168V337.714z M25.608,359.347c-1.497,1.409-4.077,2.66-6.074,2.66
			c-2.495,0-5.734-1.994-5.734-6.319c0-3.078,1.745-4.571,4.82-6.074c1.745-0.828,5.243-2.411,6.988-3.325V359.347z M39.331,362.92
			l-0.833-2.245c-0.83,0.503-1.909,0.831-2.91,0.831c-1.497,0-2.911-1.166-2.911-4.903v-15.141c0-4.406-0.831-7.899-3.825-10.399
			c-1.915-1.494-4.412-2.244-7.069-2.244c-4.657,1-10.231,4.076-12.646,5.821c-1.745,1.246-2.743,2.248-2.743,3.497
			c0,1.991,2.247,3.657,3.909,3.657c1.331,0,2.246-0.585,2.661-2.08c0.669-2.577,1.413-4.406,2.414-5.572
			c0.831-1,2.077-1.583,3.577-1.583c3.992,0,6.655,3.326,6.655,9.235v1.577c-1.914,1.583-7.989,3.75-12.977,5.492
			c-4.488,1.583-6.654,4.08-6.654,8.15c0,5.157,4.163,10.234,10.231,10.234c2.329,0,6.324-3,9.568-5.242
			c0.416,1.331,0.995,2.497,2.078,3.576c0.911,0.914,2.661,1.666,4.074,1.666L39.331,362.92z"/>
	</g>
</g>
</svg>
