<?xml version="1.0" encoding="utf-8"?>
<!-- Generator: Adobe Illustrator 18.0.0, SVG Export Plug-In . SVG Version: 6.00 Build 0)  -->
<!DOCTYPE svg PUBLIC "-//W3C//DTD SVG 1.1//EN" "http://www.w3.org/Graphics/SVG/1.1/DTD/svg11.dtd">
<svg version="1.1" id="Layer_1" xmlns="http://www.w3.org/2000/svg" xmlns:xlink="http://www.w3.org/1999/xlink" x="0px" y="0px"
	 viewBox="0 260.8 419.3 73.9" enable-background="new 0 260.8 419.3 73.9" xml:space="preserve">
<g>
	<g>
		<g>
			<path fill="#ED125F" d="M72.2,305.4l4.6-8.6c3.2,3.6,7,5.3,11,5.3c2.3,0,3.8-0.6,5.1-1.5c1.1-1,1.7-2.5,1.7-4.2
				c0-1.9-0.6-3.2-1.7-4.2c-1.1-1-2.9-1.3-5.1-1.3h-7v-5.9l9.9-10.3H74.5v-8.7h29.1v6.5l-11,11.6l2.1,0.4c3.2,0.6,5.9,1.9,8,4
				c1.9,2.1,3,4.8,3,8.2c0,4.2-1.5,7.6-4.6,10.3c-3,2.7-7.2,4-12.2,4c-3,0-5.9-0.6-8.9-1.5C76.8,308.3,74.3,307,72.2,305.4z"/>
			<path fill="#FFFFFF" d="M123.5,288.1c0-4.2,1-8,3-11.4c2.1-3.4,4.8-6.1,8.4-8s7.6-2.9,12-2.9c3.2,0,6.5,0.8,9.7,2.1
				c3.2,1.3,5.9,3.2,8.2,5.5l-6.5,7.8c-1.5-1.7-3.2-3.2-5.1-4.2c-2.1-1-4-1.5-5.9-1.5c-3.4,0-6.5,1.1-8.7,3.6
				c-2.3,2.5-3.6,5.5-3.6,9.1c0,3.8,1.1,6.8,3.6,9.3c2.3,2.5,5.3,3.8,8.7,3.8c1.9,0,3.8-0.4,5.7-1.3c2.1-1,3.8-2.3,5.3-3.8l6.5,6.8
				c-2.5,2.5-5.3,4.4-8.6,5.7c-3.2,1.5-6.5,2.1-9.7,2.1s-6.3-0.6-9.1-1.7c-2.9-1.1-5.3-2.7-7.2-4.8c-2.1-1.9-3.6-4.4-4.8-7.2
				C124.1,294.2,123.5,291.4,123.5,288.1z"/>
			<path fill="#FFFFFF" d="M170.2,310.2v-46.7h10.8v18.4c2.5-4,6.3-6.1,11.4-6.1c3.8,0,6.8,1.1,8.9,3.6c2.3,2.3,3.4,5.5,3.4,9.5
				v21.3H194v-18.4c0-1.9-0.6-3.6-1.5-4.8c-1.1-1-2.5-1.5-4.4-1.5c-2.1,0-3.8,0.8-5.1,2.3c-1.3,1.5-1.9,3.4-1.9,5.9v16.5H170.2z"/>
			<path fill="#FFFFFF" d="M210.1,293.3c0-5.3,1.7-9.5,4.9-12.7s7.6-4.8,12.7-4.8c5.9,0,10.3,1.7,13.3,5.3c2.7,3.2,4,7.4,4,12.7
				c0,0.8,0,1.3,0,2.1H221c0.6,1.9,1.5,3.6,2.9,4.6c1.3,1.1,3,1.7,5.1,1.7c3,0,5.9-1.1,8.2-3.4l5.9,5.7c-3.6,4-8.6,6.1-14.8,6.1
				c-5.5,0-9.9-1.5-13.1-4.8C211.9,302.8,210.1,298.6,210.1,293.3z M220.6,290.4h13.7c0-1.9-0.6-3.4-1.7-4.6
				c-1.1-1.1-2.9-1.7-4.8-1.7c-1.9,0-3.4,0.6-4.8,1.7C221.7,287,221,288.5,220.6,290.4z"/>
			<path fill="#FFFFFF" d="M247.8,293.5c0-5.3,1.5-9.5,4.8-12.7s7.4-4.8,12.7-4.8c3.4,0,6.3,0.6,8.9,1.9c2.7,1.3,4.8,3.2,6.1,5.7
				l-7.8,4.8c-1.7-2.3-4-3.6-6.8-3.6c-2.1,0-3.8,0.8-5.1,2.5c-1.3,1.5-1.9,3.6-1.9,6.3s0.6,4.8,1.9,6.3c1.3,1.5,3,2.5,5.1,2.5
				c3.2,0,5.5-1.3,6.8-3.8l8,4.6c-1.3,2.5-3.4,4.4-6.1,5.7c-2.7,1.3-5.7,2.1-9.3,2.1c-5.1,0-9.5-1.5-12.5-4.8
				S247.8,298.6,247.8,293.5z"/>
			<path fill="#FFFFFF" d="M286.1,310.2v-46.7H297v24.7l11.2-12h12.4L308,289.3l12.9,20.9H308l-7.4-13.1l-3.6,3.8v9.3H286.1z"/>
			<path fill="#FFFFFF" d="M325.9,310.2v-46.7h10.8v46.7H325.9z"/>
			<path fill="#FFFFFF" d="M345.4,266.5c0-1.7,0.6-3,1.5-4.2c1-1.1,2.7-1.5,4.4-1.5s3,0.6,4.2,1.5c1.1,1.1,1.7,2.5,1.7,4.2
				s-0.6,3-1.7,4.2c-1.1,1.1-2.5,1.5-4.2,1.5s-3-0.6-4.2-1.5C346,269.7,345.4,268.2,345.4,266.5z M345.8,310.2v-33.8h10.8v33.8
				H345.8z"/>
			<path fill="#FFFFFF" d="M362.1,305.4l3.4-6.8c2.1,1.3,4.2,2.3,6.5,2.9c2.3,0.8,4.4,1,6.5,1c1.1,0,1.9-0.2,2.7-0.6
				c0.8-0.4,1-1,1-1.5s-0.2-1-0.8-1.5c-0.6-0.4-1.1-0.8-2.1-1c-0.8-0.2-1.7-0.6-2.9-1s-2.1-0.6-3.2-1c-1.1-0.4-2.3-0.8-3.4-1.1
				c-1.1-0.6-2.1-1.1-3-1.7s-1.5-1.5-2.1-2.5c-0.6-1.1-0.8-2.3-0.8-3.6c0-3.6,1.3-6.3,4-8.4c2.7-1.9,6.3-3,10.6-3
				c5.1,0,10.1,1.3,14.4,4.2l-4,7.2c-4.4-2.1-8-3.2-11-3.2c-1,0-1.7,0.2-2.5,0.6c-0.6,0.4-1,1-1,1.5s0.2,1,0.8,1.3
				c0.6,0.4,1.1,0.8,2.1,1c0.8,0.2,1.9,0.6,2.9,0.8c1.1,0.4,2.3,0.6,3.2,1c1.1,0.4,2.3,0.8,3.4,1.3c1.1,0.6,2.1,1.1,3,1.7
				c1,0.6,1.5,1.5,2.1,2.5c0.6,1.1,0.8,2.3,0.8,3.6c0,3.6-1.3,6.3-4.2,8.4c-2.7,1.9-6.3,3-10.6,3c-3,0-5.9-0.4-8.7-1.3
				C366.5,308.5,364.2,307.1,362.1,305.4z"/>
			<path fill="#FFFFFF" d="M394.4,284.9v-7h4.8v-9.5H410v9.3h8.7v7.2H410v13.3c0,1.3,0.2,2.3,0.8,2.9c0.6,0.6,1.1,1,2.1,1h0.2
				c1.1,0,2.5-0.4,4.2-1.1l2.1,7.6c-2.7,1.5-5.7,2.3-9.1,2.3c-3.4,0-6.1-1-8.2-2.9s-3-4.6-3-8v-15
				C399,284.9,394.4,284.9,394.4,284.9z"/>
		</g>
		<g>
			<path fill="#7D7D7D" d="M177.5,334.5v-9.7h1.1v5.5l5.1-5.5h1.3l-3.8,4.2l4.2,5.5h-1.3l-3.6-4.6l-1.9,2.1v2.5H177.5z"/>
			<path fill="#7D7D7D" d="M187.2,334.5v-9.7h1.1l5.7,7.8v-7.8h1.1v9.7H194l-5.7-7.8v7.8H187.2z"/>
			<path fill="#7D7D7D" d="M197,329.6c0-1,0.2-1.7,0.8-2.5c0.4-0.8,1.1-1.3,1.9-1.7c0.8-0.4,1.5-0.6,2.5-0.6c1,0,1.7,0.2,2.5,0.6
				s1.3,1,1.9,1.7c0.4,0.8,0.8,1.5,0.8,2.5c0,1-0.2,1.7-0.8,2.5c-0.4,0.8-1.1,1.3-1.9,1.7c-0.8,0.4-1.5,0.6-2.5,0.6
				c-0.8,0-1.3-0.2-1.9-0.4c-0.6-0.2-1.1-0.6-1.5-1c-0.4-0.4-0.8-1-1.1-1.5C197.2,330.9,197,330.3,197,329.6z M198.7,327.7
				c-0.4,0.6-0.6,1.1-0.6,1.9c0,0.8,0.2,1.3,0.6,1.9c0.4,0.6,0.8,1,1.5,1.3c0.6,0.4,1.3,0.6,1.9,0.6c0.6,0,1-0.2,1.5-0.4
				s1-0.4,1.3-0.8c0.4-0.4,0.6-0.8,0.8-1.1s0.4-1,0.4-1.5s-0.2-1-0.4-1.5c-0.2-0.4-0.6-1-0.8-1.1c-0.4-0.4-0.8-0.6-1.3-0.8
				c-0.6-0.2-1-0.4-1.5-0.4c-0.8,0-1.3,0.2-1.9,0.6C199.5,326.7,199.1,327.1,198.7,327.7z"/>
			<path fill="#7D7D7D" d="M207.7,324.8h1.1l2.7,8.4l2.7-8.4h1.1l2.7,8.4l2.7-8.4h1.1l-3.2,9.7h-1.1l-2.7-8.2l-2.7,8.2h-1.1
				L207.7,324.8z"/>
			<path fill="#7D7D7D" d="M221.9,333l0.6-1c0.4,0.4,1,0.8,1.5,1c0.6,0.2,1.1,0.4,1.7,0.4c0.8,0,1.3-0.2,1.7-0.4
				c0.4-0.2,0.6-0.6,0.6-1.1c0-0.2,0-0.6-0.2-0.8c-0.2-0.2-0.2-0.4-0.6-0.6s-0.4-0.2-0.8-0.4c-0.4-0.2-0.6-0.2-0.8-0.4
				c-0.4,0-0.6-0.2-1-0.2s-0.6-0.2-0.8-0.4s-0.6-0.4-0.8-0.6s-0.4-0.4-0.6-0.8c-0.2-0.4-0.2-0.6-0.2-1c0-0.8,0.4-1.3,1-1.7
				c0.6-0.4,1.3-0.8,2.5-0.8c0.6,0,1.1,0,1.7,0.2s1,0.4,1.3,0.6l-0.4,1c-0.4-0.2-0.8-0.6-1.3-0.6c-0.4-0.2-1-0.2-1.3-0.2
				c-0.6,0-1.1,0.2-1.5,0.4c-0.4,0.2-0.6,0.6-0.6,1c0,0.2,0,0.6,0.2,0.8s0.4,0.4,0.6,0.6c0.2,0.2,0.4,0.2,0.8,0.4
				c0.2,0.2,0.6,0.2,0.8,0.4c0.4,0,0.6,0.2,1,0.2s0.6,0.2,1,0.4c0.2,0.2,0.6,0.4,0.8,0.6s0.4,0.4,0.6,0.8s0.2,0.6,0.2,1
				c0,0.8-0.4,1.5-1,1.9s-1.5,0.8-2.5,0.8c-0.8,0-1.3-0.2-2.1-0.4C223.1,333.7,222.5,333.6,221.9,333z"/>
			<path fill="#7D7D7D" d="M233.7,324.8h1.1l2.7,8.4l2.7-8.4h1.1l2.7,8.4l2.7-8.4h1.1l-3.2,9.7h-1.1l-2.7-8.2l-2.7,8.2h-1
				L233.7,324.8z"/>
			<path fill="#7D7D7D" d="M249.1,334.5v-9.7h1.1v4.4h5.7v-4.4h1.1v9.7h-1.1v-4.2h-5.7v4.2H249.1z"/>
			<path fill="#7D7D7D" d="M258.6,334.5l4.4-9.7h1.1l4.4,9.7h-1.1l-1.1-2.5h-5.3l-1.1,2.5H258.6z M261.3,330.9h4.4l-2.1-4.9
				L261.3,330.9z"/>
			<path fill="#7D7D7D" d="M267.7,326v-1.1h7.4v1.1h-3.2v8.6h-1.1V326H267.7z"/>
			<path fill="#7D7D7D" d="M280.3,334.5v-9.7h1.1l5.7,7.8v-7.8h1.1v9.7h-1.1l-5.7-7.8v7.8H280.3z"/>
			<path fill="#7D7D7D" d="M291.3,334.5v-9.7h6.5v1.1h-5.5v3.2h4.8v1.1h-4.8v3.2h5.5v1.1h-6.5V334.5z"/>
			<path fill="#7D7D7D" d="M300.2,334.5v-9.7h6.5v1.1h-5.5v3.2h4.8v1.1h-4.8v3.2h5.5v1.1h-6.5V334.5z"/>
			<path fill="#7D7D7D" d="M309.1,334.5v-9.7h3.8c1,0,1.7,0.2,2.5,0.6s1.3,1,1.7,1.7s0.6,1.5,0.6,2.5c0,0.8-0.2,1.3-0.4,1.9
				c-0.2,0.6-0.6,1.1-1,1.5s-1,0.8-1.5,1s-1.3,0.4-1.9,0.4h-3.8V334.5z M310.3,333.4h2.9c0.8,0,1.3-0.2,1.9-0.6
				c0.6-0.4,1-0.8,1.3-1.3c0.4-0.6,0.6-1.1,0.6-1.9c0-0.8-0.2-1.3-0.6-1.9s-0.8-1-1.3-1.3c-0.6-0.4-1.3-0.6-1.9-0.6h-2.9V333.4z"/>
			<path fill="#7D7D7D" d="M318.8,333l0.6-1c0.4,0.4,1,0.8,1.5,1s1.1,0.4,1.7,0.4c0.8,0,1.3-0.2,1.7-0.4c0.4-0.2,0.6-0.6,0.6-1.1
				c0-0.2,0-0.6-0.2-0.8c-0.2-0.2-0.2-0.4-0.6-0.6c-0.2-0.2-0.4-0.2-0.8-0.4s-0.6-0.2-0.8-0.4c-0.4,0-0.6-0.2-1-0.2
				s-0.6-0.2-0.8-0.4s-0.6-0.4-0.8-0.6s-0.4-0.4-0.6-0.8c-0.2-0.4-0.2-0.6-0.2-1c0-0.8,0.4-1.3,1-1.7c0.6-0.4,1.3-0.8,2.5-0.8
				c0.6,0,1.1,0,1.7,0.2c0.6,0.2,1,0.4,1.3,0.6l-0.4,1c-0.4-0.2-0.8-0.6-1.3-0.6c-0.4-0.2-1-0.2-1.3-0.2c-0.6,0-1.1,0.2-1.5,0.4
				s-0.6,0.6-0.6,1c0,0.2,0,0.6,0.2,0.8s0.4,0.4,0.6,0.6c0.2,0.2,0.4,0.2,0.8,0.4c0.2,0.2,0.6,0.2,0.8,0.4c0.4,0,0.6,0.2,1,0.2
				c0.4,0,0.6,0.2,1,0.4c0.2,0.2,0.6,0.4,0.8,0.6s0.4,0.4,0.6,0.8c0.2,0.4,0.2,0.6,0.2,1c0,0.8-0.4,1.5-1,1.9
				c-0.6,0.4-1.5,0.8-2.5,0.8c-0.8,0-1.3-0.2-2.1-0.4C320,333.7,319.4,333.6,318.8,333z"/>
			<path fill="#7D7D7D" d="M330.8,326v-1.1h7.4v1.1H335v8.6h-1.1V326H330.8z"/>
			<path fill="#7D7D7D" d="M338.2,329.6c0-1,0.2-1.7,0.8-2.5c0.4-0.8,1.1-1.3,1.9-1.7s1.5-0.6,2.5-0.6c1,0,1.7,0.2,2.5,0.6
				s1.3,1,1.9,1.7c0.4,0.8,0.8,1.5,0.8,2.5c0,1-0.2,1.7-0.8,2.5c-0.4,0.8-1.1,1.3-1.9,1.7c-0.8,0.4-1.5,0.6-2.5,0.6
				c-0.8,0-1.3-0.2-1.9-0.4c-0.6-0.2-1.1-0.6-1.5-1s-0.8-1-1.1-1.5C338.4,330.9,338.2,330.3,338.2,329.6z M339.7,327.7
				c-0.4,0.6-0.6,1.1-0.6,1.9c0,0.8,0.2,1.3,0.6,1.9c0.4,0.6,0.8,1,1.5,1.3c0.6,0.4,1.3,0.6,1.9,0.6c0.6,0,1-0.2,1.5-0.4
				c0.6-0.2,1-0.4,1.3-0.8c0.4-0.4,0.6-0.8,0.8-1.1s0.4-1,0.4-1.5s-0.2-1-0.4-1.5c-0.2-0.4-0.6-1-0.8-1.1c-0.4-0.4-0.8-0.6-1.3-0.8
				c-0.6-0.2-1-0.4-1.5-0.4c-0.8,0-1.3,0.2-1.9,0.6C340.7,326.7,340.1,327.1,339.7,327.7z"/>
			<path fill="#7D7D7D" d="M354,334.5v-9.7h4c1,0,1.7,0.2,2.3,0.6s0.8,1,0.8,1.7c0,0.6-0.2,1-0.4,1.3c-0.4,0.4-0.8,0.6-1.3,0.8
				c0.8,0.2,1.1,0.4,1.5,0.8s0.6,1,0.6,1.7s-0.4,1.5-1,1.9c-0.6,0.4-1.5,0.8-2.5,0.8h-4V334.5z M355.1,329h2.9
				c0.6,0,1.1-0.2,1.5-0.4c0.4-0.2,0.6-0.6,0.6-1.1s-0.2-1-0.6-1.1s-1-0.4-1.5-0.4h-2.9V329z M355.1,333.4h2.9
				c0.8,0,1.3-0.2,1.9-0.4c0.4-0.4,0.6-0.8,0.6-1.3c0-0.6-0.2-1-0.6-1.1c-0.4-0.4-1-0.4-1.9-0.4h-2.9V333.4z"/>
			<path fill="#7D7D7D" d="M363.9,334.5v-9.7h6.5v1.1h-5.5v3.2h4.8v1.1h-4.8v3.2h5.5v1.1h-6.5V334.5z"/>
			<path fill="#7D7D7D" d="M376.6,334.5v-9.7h3.8c1,0,1.7,0.2,2.5,0.6c0.8,0.4,1.3,1,1.7,1.7s0.6,1.5,0.6,2.5c0,0.8-0.2,1.3-0.4,1.9
				c-0.2,0.6-0.6,1.1-1,1.5s-1,0.8-1.5,1c-0.6,0.2-1.3,0.4-1.9,0.4h-3.8V334.5z M377.5,333.4h2.9c0.8,0,1.3-0.2,1.9-0.6
				c0.6-0.4,1-0.8,1.3-1.3c0.4-0.6,0.6-1.1,0.6-1.9c0-0.8-0.2-1.3-0.6-1.9s-0.8-1-1.3-1.3c-0.6-0.4-1.3-0.6-1.9-0.6h-2.9V333.4z"/>
			<path fill="#7D7D7D" d="M386.1,329.6c0-1,0.2-1.7,0.8-2.5c0.4-0.8,1.1-1.3,1.9-1.7s1.5-0.6,2.5-0.6c1,0,1.7,0.2,2.5,0.6
				s1.3,1,1.9,1.7c0.4,0.8,0.8,1.5,0.8,2.5c0,1-0.2,1.7-0.8,2.5c-0.4,0.8-1.1,1.3-1.9,1.7c-0.8,0.4-1.5,0.6-2.5,0.6
				c-0.8,0-1.3-0.2-1.9-0.4c-0.6-0.2-1.1-0.6-1.5-1s-0.8-1-1.1-1.5C386.3,330.9,386.1,330.3,386.1,329.6z M387.8,327.7
				c-0.4,0.6-0.6,1.1-0.6,1.9c0,0.8,0.2,1.3,0.6,1.9c0.4,0.6,0.8,1,1.5,1.3c0.6,0.4,1.3,0.6,1.9,0.6c0.6,0,1-0.2,1.5-0.4
				s1-0.4,1.3-0.8c0.4-0.4,0.6-0.8,0.8-1.1c0.2-0.4,0.4-1,0.4-1.5s-0.2-1-0.4-1.5c-0.2-0.4-0.6-1-0.8-1.1c-0.4-0.4-0.8-0.6-1.3-0.8
				s-1-0.4-1.5-0.4c-0.8,0-1.3,0.2-1.9,0.6C388.6,326.7,388.2,327.1,387.8,327.7z"/>
			<path fill="#7D7D7D" d="M398.2,334.5v-9.7h1.1l5.7,7.8v-7.8h1.1v9.7h-1.1l-5.7-7.8v7.8H398.2z"/>
			<path fill="#7D7D7D" d="M409.1,334.5v-9.7h6.5v1.1H410v3.2h4.8v1.1H410v3.2h5.5v1.1h-6.5V334.5z"/>
		</g>
	</g>
	<g>
		<path fill="#ED125F" d="M0,265.7h12l8.7,32.7l8.6-32.7h11l8.7,32.7l8.6-32.7h11.6L54.5,310H42.9l-8.6-31.4L25.8,310H14.4L0,265.7z
			"/>
	</g>
</g>
</svg>
