<?xml version="1.0" encoding="utf-8"?>
<!-- Generator: Adobe Illustrator 18.1.0, SVG Export Plug-In . SVG Version: 6.00 Build 0)  -->
<svg version="1.1" id="Layer_1" xmlns="http://www.w3.org/2000/svg" xmlns:xlink="http://www.w3.org/1999/xlink" x="0px" y="0px"
	 viewBox="0 0 380 55" enable-background="new 0 0 380 55" xml:space="preserve">
<path fill="#024963" d="M357.2,48.5h-2.7c0.1,2.8,2.5,3.7,4.9,3.7c2.4,0,4.7-0.9,4.7-3.6c0-1.9-1.6-2.5-3.3-2.9
	c-1.6-0.4-3.2-0.5-3.2-1.6c0-0.8,0.9-1,1.6-1c1,0,1.9,0.3,2,1.4h2.7c-0.2-2.6-2.3-3.3-4.6-3.3c-2.2,0-4.5,0.7-4.5,3.4
	c0,1.8,1.7,2.4,3.3,2.8c2.1,0.4,3.2,0.7,3.2,1.6c0,1-1,1.3-1.9,1.3C358.3,50.3,357.3,49.8,357.2,48.5 M346.5,41.5h-2.9v10.4h2.9
	V41.5z M346.5,37.5h-2.9v2.4h2.9V37.5z M335.3,48.9c0-1,0.8-1.4,1.7-1.5c0.9-0.2,1.9-0.2,2.4-0.6v1.1c0,0.6-0.1,2.4-2.3,2.4
	C336.1,50.3,335.3,50,335.3,48.9 M332.4,49.1c0,2.1,1.6,3.1,3.5,3.1c1.3,0,2.6-0.3,3.5-1.3c0,0.3,0.1,0.7,0.2,1h2.9
	c-0.3-0.4-0.4-1.4-0.4-2.3v-5.4c0-2.5-2.5-3-4.6-3c-2.3,0-4.7,0.8-4.9,3.5h2.9c0.1-1.1,0.8-1.6,1.9-1.6c1,0,1.9,0.2,1.9,1.4
	c0,1.2-1.6,1.1-3.4,1.4C334.2,46.1,332.4,46.7,332.4,49.1 M327.6,41.5h-0.7v1.9h0.7v8.5h2.9v-8.5h2v-1.9h-2v-0.6
	c0-0.9,0.3-1.2,1.1-1.2c0.4,0,0.7,0,1,0.1v-2.1c-0.5,0-1-0.1-1.5-0.1c-2.3,0-3.5,1.3-3.5,3.2V41.5z M320.3,43.4h1.7v8.5h2.9v-8.5h1
	v-1.9h-1v-0.6c0-0.9,0.3-1.2,1.1-1.2c0.4,0,0.7,0,1.1,0.1v-2.1c-0.5,0-1-0.1-1.5-0.1c-2.3,0-3.5,1.3-3.5,3.2v0.8h-1.7V43.4z
	 M312.3,46.3l1.9-5.3h0l1.8,5.3H312.3z M312.6,37.5l-5.5,14.4h3.2l1.1-3.2h5.4l1.1,3.2h3.3l-5.4-14.4H312.6z M298.1,41.5h-1.7v1.9
	h1.7v6.1c0,2.1,1.5,2.5,3.3,2.5c0.6,0,1.2,0,1.7-0.1v-2.2c-0.3,0.1-0.6,0.1-0.9,0.1c-1,0-1.2-0.2-1.2-1.2v-5.2h2.1v-1.9h-2.1v-3.1
	h-2.9V41.5z M288.9,41.5h-2.7v10.4h2.9v-5.5c0-2.1,0.7-3,2.2-3c1.3,0,1.8,0.8,1.8,2.6v5.9h2.9v-6.4c0-2.6-0.8-4.3-3.8-4.3
	c-1.2,0-2.5,0.6-3.2,1.7h-0.1V41.5z M288.4,28.5c0-0.8,0.6-2.2,2.4-2.2c1.4,0,2,0.8,2.3,2.2H288.4z M285.5,29.6c0,3.2,2,5.5,5.3,5.5
	c2.4,0,4.1-1,4.9-3.5h-2.5c-0.2,0.6-1.1,1.3-2.3,1.3c-1.6,0-2.5-0.8-2.6-2.6h7.5c0.2-3.2-1.5-6.2-5.1-6.2
	C287.7,24.1,285.5,26.5,285.5,29.6 M277.8,45.6c0-0.8,0.6-2.2,2.4-2.2c1.4,0,2,0.8,2.3,2.2H277.8z M274.9,46.7c0,3.2,2,5.5,5.3,5.5
	c2.4,0,4.1-1,4.9-3.5h-2.5c-0.2,0.6-1.1,1.4-2.3,1.4c-1.6,0-2.5-0.8-2.6-2.6h7.5c0.2-3.2-1.5-6.2-5.1-6.2
	C277,41.2,274.9,43.6,274.9,46.7 M271.4,34.8v-5.5c0-2.1,0.7-3,2.2-3c1.3,0,1.8,0.8,1.8,2.6v5.9h2.9v-6.4c0-2.6-0.8-4.3-3.8-4.3
	c-1.2,0-2.5,0.6-3.2,1.7h-0.1v-1.5h-2.7v10.4H271.4z M245.5,43.4h1.7v6.1c0,2.1,1.5,2.5,3.3,2.5c0.6,0,1.2,0,1.7-0.1v-2.2
	c-0.3,0.1-0.6,0.1-0.9,0.1c-1,0-1.2-0.2-1.2-1.2v-5.2h2.1v-1.9h-2.1v-3.1h-2.9v3.1h-1.7V43.4z M254.5,34.8v-4.7
	c0-1.8,0.7-3.3,2.8-3.3c0.3,0,0.8,0,1,0.1v-2.7c-0.2-0.1-0.4-0.1-0.6-0.1c-1.4,0-2.8,0.9-3.3,2.2h0v-1.9h-2.7v10.4H254.5z
	 M247.7,29.6c0,1.7-0.6,3.3-2.5,3.3c-1.9,0-2.5-1.7-2.5-3.3c0-1.7,0.6-3.3,2.5-3.3C247.1,26.2,247.7,27.9,247.7,29.6 M250.5,29.6
	c0-3.3-2.1-5.5-5.4-5.5c-3.3,0-5.4,2.2-5.4,5.5c0,3.3,2.1,5.5,5.4,5.5C248.4,35.1,250.5,32.9,250.5,29.6 M236.6,47.1h-3.1
	c0,3.5,2.9,5.1,6.1,5.1c3.9,0,6-2,6-4.6c0-3.3-3.2-3.9-4.3-4.2c-3.6-0.9-4.3-1.1-4.3-2.2c0-1.2,1.2-1.6,2.2-1.6
	c1.5,0,2.7,0.4,2.8,2.2h3.1c0-3.3-2.8-4.6-5.8-4.6c-2.6,0-5.4,1.4-5.4,4.4c0,2.7,2.2,3.5,4.3,4.1c2.1,0.6,4.3,0.8,4.3,2.4
	c0,1.5-1.7,1.8-2.8,1.8C238.1,49.8,236.6,49,236.6,47.1 M234.8,24.4h-1.7v1.9h1.7v8.5h2.9v-8.5h2v-1.9h-2v-0.6
	c0-0.9,0.3-1.2,1.1-1.2c0.4,0,0.7,0,1,0.1v-2.1c-0.5,0-1-0.1-1.5-0.1c-2.3,0-3.5,1.3-3.5,3.2V24.4z M246.7,12.3V3.3h-3.2v8.9
	c0,2.1-0.7,3.1-3,3.1c-2.6,0-3-1.6-3-3.1V3.3h-3.2v8.9c0,3.9,2.3,5.8,6.1,5.8C244.4,18.1,246.7,16.2,246.7,12.3 M261.9,17.7L255.7,9
	l5.6-5.7h-3.9l-5.6,6v-6h-3.2v14.4h3.2v-4.6l1.8-1.8l4.3,6.5H261.9z M259.8,51.9h2.7V41.5h-2.9v5.5c0,2.1-0.7,3-2.2,3
	c-1.3,0-1.8-0.8-1.8-2.6v-5.9h-2.9v6.4c0,2.6,0.8,4.3,3.8,4.3c1.2,0,2.5-0.6,3.2-1.7h0.1V51.9z M266.3,46.7c0-1.7,0.6-3.3,2.5-3.3
	c1.9,0,2.5,1.6,2.5,3.3c0,1.7-0.6,3.4-2.5,3.4C267.1,50,266.3,48.3,266.3,46.7 M263.4,46.6c0,2.9,1.5,5.6,4.7,5.6
	c1.3,0,2.5-0.5,3.2-1.6h0v1.3h2.7V37.5h-2.9v5.2h0c-0.7-1-1.9-1.6-3.1-1.6C265,41.2,263.4,43.8,263.4,46.6 M266.9,20.4h-3.2v14.4
	h3.2V20.4z M269.7,10.6c0-2.5,1.1-4.9,3.9-4.9c1.6,0,2.9,1.1,3.1,2.5h3.1c-0.4-3.3-3-5.2-6.2-5.2c-4.5,0-7.1,3.3-7.1,7.6
	c0,4.1,2.6,7.5,7.1,7.5c3.5,0,6-2.3,6.3-5.9h-3.1c-0.2,1.9-1.3,3.2-3.3,3.2C270.8,15.4,269.7,13,269.7,10.6 M280.5,21.2v3.1h-1.7
	v1.9h1.7v6.1c0,2.1,1.5,2.5,3.3,2.5c0.6,0,1.2,0,1.7-0.1v-2.2c-0.3,0.1-0.6,0.1-0.9,0.1c-1,0-1.2-0.2-1.2-1.2v-5.2h2.1v-1.9h-2.1
	v-3.1H280.5z M288.6,12.5c0,1.7-0.6,3.3-2.5,3.3c-1.9,0-2.5-1.7-2.5-3.3c0-1.7,0.6-3.3,2.5-3.3C288,9.2,288.6,10.9,288.6,12.5
	 M291.4,12.5c0-3.3-2.1-5.5-5.4-5.5c-3.3,0-5.4,2.2-5.4,5.5c0,3.3,2.1,5.5,5.4,5.5C289.3,18,291.4,15.8,291.4,12.5 M299.5,17.7h2.7
	V7.3h-2.9v5.5c0,2.1-0.7,3-2.2,3c-1.3,0-1.8-0.8-1.8-2.6V7.3h-2.9v6.4c0,2.6,0.8,4.3,3.8,4.3c1.2,0,2.5-0.6,3.2-1.7h0.1V17.7z
	 M302.4,26.8c0.3,0,0.8,0,1,0.1v-2.7c-0.2-0.1-0.4-0.1-0.6-0.1c-1.4,0-2.8,0.9-3.3,2.2h0v-1.9h-2.7v10.4h2.9v-4.7
	C299.6,28.3,300.3,26.8,302.4,26.8 M310.5,17.7h2.9v-6.4c0-2.6-0.8-4.3-3.8-4.3c-1.2,0-2.5,0.6-3.2,1.7h-0.1V7.3h-2.7v10.4h2.9v-5.5
	c0-2.1,0.7-3,2.2-3c1.3,0,1.8,0.8,1.8,2.6V17.7z M311.1,34.8h2.9v-6.4c0-2.6-0.8-4.3-3.8-4.3c-1.2,0-2.5,0.6-3.2,1.7h-0.1v-1.5h-2.7
	v10.4h2.9v-5.5c0-2.1,0.7-3,2.2-3c1.3,0,1.8,0.8,1.8,2.6V34.8z M317.3,12.6c0-1.5,0.6-3.4,2.4-3.4c1.2,0,1.9,0.6,2.1,1.8h2.8
	c-0.2-2.7-2.4-4-4.9-4c-3.4,0-5.3,2.4-5.3,5.6c0,3.1,2.1,5.3,5.3,5.3c2.7,0,4.7-1.5,5-4.3H322c-0.2,1.3-0.9,2.1-2.3,2.1
	C317.9,15.9,317.3,14.1,317.3,12.6 M321.8,30.8c0,0.6-0.1,2.4-2.3,2.4c-0.9,0-1.8-0.3-1.8-1.3c0-1,0.8-1.4,1.7-1.5
	c0.9-0.2,1.9-0.2,2.4-0.6V30.8z M322.1,34.8h2.9c-0.3-0.4-0.4-1.4-0.4-2.3v-5.4c0-2.5-2.5-3-4.6-3c-2.3,0-4.7,0.8-4.9,3.5h2.9
	c0.1-1.1,0.8-1.6,1.9-1.6c1,0,1.9,0.2,1.9,1.4c0,1.2-1.6,1.1-3.4,1.4c-1.8,0.2-3.5,0.8-3.5,3.2c0,2.1,1.6,3.1,3.5,3.1
	c1.3,0,2.6-0.3,3.5-1.3C321.9,34.1,322,34.5,322.1,34.8 M325.6,5.7h2.9V3.3h-2.9V5.7z M325.6,17.7h2.9V7.3h-2.9V17.7z M331.8,24.4
	h-2.1v-3.1h-2.9v3.1h-1.7v1.9h1.7v6.1c0,2.1,1.5,2.5,3.3,2.5c0.6,0,1.2,0,1.7-0.1v-2.2c-0.3,0.1-0.6,0.1-0.9,0.1
	c-1,0-1.2-0.2-1.2-1.2v-5.2h2.1V24.4z M330,17.7h2.9V3.3H330V17.7z M332.4,22.8h2.9v-2.4h-2.9V22.8z M332.4,34.8h2.9V24.4h-2.9V34.8
	z M344.3,29.6c0,1.7-0.6,3.3-2.5,3.3c-1.9,0-2.5-1.7-2.5-3.3c0-1.7,0.6-3.3,2.5-3.3C343.8,26.2,344.3,27.9,344.3,29.6 M347.2,29.6
	c0-3.3-2.1-5.5-5.4-5.5c-3.3,0-5.4,2.2-5.4,5.5c0,3.3,2.1,5.5,5.4,5.5C345.1,35.1,347.2,32.9,347.2,29.6 M350.7,41.5H348v10.4h2.9
	v-4.7c0-1.8,0.7-3.3,2.8-3.3c0.3,0,0.8,0,1,0.1v-2.7c-0.2-0.1-0.4-0.1-0.6-0.1c-1.4,0-2.8,0.9-3.3,2.2h0V41.5z M355.2,34.8h2.9v-6.4
	c0-2.6-0.8-4.3-3.8-4.3c-1.2,0-2.5,0.6-3.2,1.7H351v-1.5h-2.7v10.4h2.9v-5.5c0-2.1,0.7-3,2.2-3c1.3,0,1.8,0.8,1.8,2.6V34.8z
	 M365.9,30.8c0,0.6-0.1,2.4-2.3,2.4c-0.9,0-1.8-0.3-1.8-1.3c0-1,0.8-1.4,1.7-1.5c0.9-0.2,1.9-0.2,2.4-0.6V30.8z M366.2,34.8h2.9
	c-0.3-0.4-0.4-1.4-0.4-2.3v-5.4c0-2.5-2.5-3-4.6-3c-2.3,0-4.7,0.8-4.9,3.5h2.9c0.1-1.1,0.8-1.6,1.9-1.6c1,0,1.9,0.2,1.9,1.4
	c0,1.2-1.6,1.1-3.4,1.4c-1.8,0.2-3.5,0.8-3.5,3.2c0,2.1,1.6,3.1,3.5,3.1c1.3,0,2.6-0.3,3.5-1.3C366,34.1,366.1,34.5,366.2,34.8
	 M373.1,20.4h-2.9v14.4h2.9V20.4z"/>
<path fill="#74C6CE" d="M42.4,33.6V3.4H31.7v30.2c0,7.2-2.4,10.5-10.1,10.5c-8.6,0-10-5.2-10-10.5V3.4H1v30.2
	c0,13.2,7.6,19.5,20.7,19.5C34.7,53.1,42.4,46.7,42.4,33.6 M68.5,22.6l19-19.2H74.1l-19,20.1V3.4H44.5V52h10.7V36.3l6.1-6.2L75.9,52
	h13.4L68.5,22.6z"/>
<path fill="#024963" d="M93.5,27.9c0-8.5,3.6-16.7,13.2-16.7c5.3,0,9.9,3.7,10.6,8.5h10.3c-1.3-11.2-10.3-17.5-20.9-17.5
	c-15,0-23.9,11.2-23.9,25.6c0,14,8.8,25.2,23.9,25.2c11.9,0,20.3-7.8,21.3-19.9h-10.3c-0.8,6.4-4.5,10.9-11,10.9
	C97.1,44.2,93.5,36,93.5,27.9 M129.8,52h10.7V3.4h-10.7V52z M154.4,16.1c0-4.1,3.9-5.5,7.3-5.5c5.1,0,9.2,1.5,9.6,7.3h10.3
	c0-11.2-9.3-15.6-19.4-15.6c-8.8,0-18.1,4.8-18.1,14.7c0,9.1,7.3,11.9,14.5,13.8c7.1,1.9,14.4,2.8,14.4,8c0,5-5.7,6.1-9.4,6.1
	c-5.7,0-10.7-2.5-10.7-9h-10.3c-0.1,12,9.9,17.3,20.7,17.3c13.2,0,20.2-6.7,20.2-15.6c0-11-10.9-13.3-14.4-14.1
	C156.7,20.3,154.4,19.8,154.4,16.1 M210.5,33.2h-12.6l6.3-17.8h0.1L210.5,33.2z M228,52L209.9,3.4h-10.9L180.5,52h10.8l3.8-10.8
	h18.1L217,52H228z"/>
</svg>
