<?xml version="1.0" encoding="utf-8"?>
<!-- Generator: Adobe Illustrator 17.0.0, SVG Export Plug-In . SVG Version: 6.00 Build 0)  -->
<!DOCTYPE svg PUBLIC "-//W3C//DTD SVG 1.1//EN" "http://www.w3.org/Graphics/SVG/1.1/DTD/svg11.dtd">
<svg version="1.1" id="Camada_1" xmlns="http://www.w3.org/2000/svg" xmlns:xlink="http://www.w3.org/1999/xlink" x="0px" y="0px"
	 width="834.678px" height="173.462px" viewBox="0 0 834.678 173.462" enable-background="new 0 0 834.678 173.462"
	 xml:space="preserve">
<g>
	<g>
		<path fill="#2DACE3" d="M71.713,34.459c-3.958,0-7.451-0.931-10.012-2.561l-4.657-17.462c-1.164-0.233-2.329-0.466-3.26-0.466
			c-5.821,0-8.848,6.519-8.848,27.242v20.489h21.421v15.367H45.17v77.069c4.89,1.63,8.382,3.026,10.71,4.19
			c1.63,0.699,3.027,1.63,4.191,2.329v9.546H0.699v-9.546c0.931-0.699,2.095-1.63,3.259-2.329c1.863-1.164,4.657-2.561,8.615-4.19
			V77.068H0V66.823l12.573-4.191V55.88C12.573,20.722,25.845,0,54.716,0C75.438,0,85.45,8.149,85.45,20.257
			C85.45,29.337,79.862,34.459,71.713,34.459z"/>
		<path fill="#2DACE3" d="M172.526,113.391c0,29.104-10.012,60.071-54.017,60.071c-39.349,0-48.197-21.188-48.197-54.716v-0.233
			c0-28.871,9.779-60.071,53.785-60.071C163.446,58.441,172.526,79.629,172.526,113.391z M103.84,114.089
			c0,31.433,4.424,45.17,17.463,45.17c13.271,0,17.462-14.901,17.462-41.212v-0.232c0-30.967-4.424-45.17-17.462-45.17
			C108.264,72.644,103.84,87.778,103.84,114.089z"/>
		<path fill="#2DACE3" d="M250.522,163.683c-8.149,6.287-18.627,9.779-30.501,9.779c-19.558,0-27.474-10.478-27.474-29.104v-67.29
			h-11.875V66.823l13.737-4.889l18.161-35.158h12.806v34.925h22.119v15.367h-22.119v57.278c0,15.134,1.629,20.723,8.848,20.723
			c3.492,0,7.451-1.165,11.875-3.26L250.522,163.683z"/>
		<path fill="#2DACE3" d="M360.182,113.391c0,29.104-10.012,60.071-54.017,60.071c-39.349,0-48.197-21.188-48.197-54.716v-0.233
			c0-28.871,9.779-60.071,53.785-60.071C351.101,58.441,360.182,79.629,360.182,113.391z M291.496,114.089
			c0,31.433,4.424,45.17,17.463,45.17c13.271,0,17.462-14.901,17.462-41.212v-0.232c0-30.967-4.424-45.17-17.462-45.17
			C295.919,72.644,291.496,87.778,291.496,114.089z"/>
		<path fill="#2DACE3" d="M440.738,34.459c-3.958,0-7.45-0.931-10.012-2.561l-4.656-17.462c-1.164-0.233-2.329-0.466-3.26-0.466
			c-5.821,0-8.848,6.519-8.848,27.242v20.489h21.421v15.367h-21.188v77.069c4.89,1.63,8.382,3.026,10.711,4.19
			c1.63,0.699,3.026,1.63,4.19,2.329v9.546h-59.372v-9.546c0.931-0.699,2.095-1.63,3.259-2.329c1.863-1.164,4.657-2.561,8.615-4.19
			V77.068h-12.573V66.823l12.573-4.191V55.88C381.599,20.722,394.87,0,423.741,0c20.723,0,30.734,8.149,30.734,20.257
			C454.475,29.337,448.887,34.459,440.738,34.459z"/>
		<path fill="#2DACE3" d="M541.552,113.391c0,29.104-10.012,60.071-54.018,60.071c-39.349,0-48.196-21.188-48.196-54.716v-0.233
			c0-28.871,9.778-60.071,53.784-60.071C532.471,58.441,541.552,79.629,541.552,113.391z M472.866,114.089
			c0,31.433,4.424,45.17,17.463,45.17c13.271,0,17.463-14.901,17.463-41.212v-0.232c0-30.967-4.424-45.17-17.463-45.17
			S472.866,87.778,472.866,114.089z"/>
		<path fill="#2DACE3" d="M605.344,170.202h-54.716v-9.546c0.932-0.699,1.863-1.63,3.027-2.329c1.63-1.164,4.424-2.561,7.916-4.19
			V21.421l-12.806-4.89V6.752c3.26-0.699,6.985-1.63,10.943-2.329c7.218-1.63,16.764-2.794,28.639-4.424l6.752,3.26
			c-0.466,7.451-0.699,18.161-0.699,31.898v118.979c3.493,1.63,6.287,3.026,7.917,4.19c1.164,0.699,2.095,1.63,3.026,2.329V170.202z
			"/>
		<path fill="#2DACE3" d="M727.579,170.202h-43.307v-66.823c0-16.765-2.562-25.845-11.176-25.845
			c-10.245,0-18.161,14.204-18.161,35.391v41.212c3.492,1.396,6.286,2.794,8.382,4.19c1.164,0.699,2.096,1.63,3.026,2.329v9.546
			h-55.182v-9.546c0.932-0.699,1.863-1.63,3.027-2.329c1.63-1.164,4.424-2.561,7.916-4.19V21.421l-12.806-4.89V6.752
			c3.26-0.699,6.985-1.63,10.943-2.329C627.46,2.794,637.006,1.63,648.881,0l6.52,3.26c-0.233,7.218-0.466,18.859-0.466,34.692
			v37.719c5.588-10.943,16.531-17.229,31.665-17.229c23.982,0,30.501,16.531,30.501,36.09v59.605c3.027,1.63,5.821,2.562,7.684,4.19
			c1.164,0.699,2.096,1.63,2.794,2.329V170.202z"/>
		<path fill="#2DACE3" d="M834.678,166.477c-2.562,0.699-5.355,1.63-8.615,2.328c-5.588,1.63-13.504,3.027-23.05,4.191l-6.287-3.26
			c-1.164-3.958-1.63-9.313-1.862-13.97c-4.657,10.943-16.531,17.695-32.131,17.695c-19.791,0-28.406-11.176-28.406-29.803
			c0-21.188,14.436-36.788,49.361-36.788c2.794,0,5.354,0.232,7.45,0.232c0.233-4.424,0.233-8.848,0.233-13.271
			c0-16.531-3.26-21.886-13.272-21.886c-3.026,0-5.588,0.466-7.916,1.63l-5.588,17.462c-2.794,1.164-6.286,1.863-10.478,1.863
			c-10.012,0-15.134-4.191-15.134-12.574c0-10.245,10.244-21.886,44.005-21.886c24.913,0,40.979,6.752,40.979,32.597
			c0,13.971-0.466,30.502-0.466,42.609c0,6.752,0.466,13.504,1.396,18.859l9.779,4.191V166.477z M791.138,120.608
			c-2.562-0.466-5.355-0.698-8.149-0.698c-12.34,0-16.531,7.684-16.531,19.092c0,11.409,3.027,16.997,9.081,16.997
			c8.614,0,15.6-9.313,15.6-27.94V120.608z"/>
	</g>
</g>
</svg>
