<svg id="Vrstva_1" xmlns="http://www.w3.org/2000/svg" viewBox="0 0 466.5 221.5"><path fill="#EC7404" d="M340.5 125.3c-.8-.4-2.1-.8-4-1.1l-5-.8c-2-.3-3-.7-3-1.2 0-.4.4-.7 1.3-1 .9-.2 2-.4 3.5-.4 2.2 0 4.6.2 7.2.5V120c-2.7-.3-5.1-.4-7.2-.4-2.7 0-4.9.3-6.4.8s-2.3 1.2-2.3 2.1c0 1.3 1.7 2.1 5 2.6l4.3.6c2.5.4 3.8.9 3.8 1.4 0 .5-.5.8-1.6 1.1-1.1.3-2.4.4-4 .4-2.2 0-4.9-.3-8-.9v1.7c2.9.4 5.6.6 8.1.6 2.9 0 5.2-.3 6.9-.8 1.7-.6 2.6-1.3 2.6-2.3 0-.6-.4-1.1-1.2-1.6zM365.4 121c-1.8-.9-4.4-1.4-7.6-1.4-3.2 0-5.7.5-7.6 1.4s-2.8 2.2-2.8 3.8c0 1.6.9 2.9 2.8 3.9 1.8.9 4.4 1.4 7.6 1.4 3.2 0 5.8-.5 7.6-1.4 1.8-.9 2.8-2.2 2.8-3.9 0-1.6-.9-2.9-2.8-3.8zm-3.1 6.7c-1.1.7-2.6 1-4.5 1s-3.4-.3-4.5-1-1.6-1.6-1.6-2.9c0-1.2.5-2.2 1.6-2.8 1.1-.7 2.6-1 4.5-1s3.4.3 4.5 1 1.6 1.6 1.6 2.8c0 1.2-.5 2.2-1.6 2.9z"/><path fill="#FFF" d="M388.4 82.8l-21.6-1.7c-1.4 1.5-2.6 2.5-3.8 3.1-1.9.9-4 1.4-6.2 1.4-3.4 0-6.2-1.1-8.3-3.2-1.5-1.5-2.5-3.7-2.9-6.8h44v-2.1c0-6.5-1.2-11.8-3.7-15.8s-6.1-7.1-10.9-9.3c-4.7-2.1-11.2-3.2-19.4-3.2-10.1 0-18 2.4-23.8 7.1-5.7 4.7-8.6 11-8.6 18.7 0 5.4 1.4 10.1 4.3 14.1s6.5 6.9 10.8 8.8c4.4 1.8 10.3 2.8 17.9 2.8 8.7 0 15.5-1.1 20.1-3.2 4.8-2.2 8.8-5.8 12.1-10.7zm-40.2-22.9c2.1-2.4 4.9-3.6 8.4-3.6 3 0 5.5.8 7.3 2.4 1.8 1.6 3 4.2 3.4 7.8h-21.6c.3-2.9 1.2-5.1 2.5-6.6zM311.1 82.1c-2.9.8-5.2 1.2-6.8 1.2-1.8 0-3.1-.5-3.8-1.6-.5-.7-.7-2.1-.7-4.2V60.1h12.1V46.3h-12.1V27.6l-22 9.7v9h-8.1v13.8h8.1v17.3c0 5.5.6 9.5 1.9 11.9 1.2 2.5 3.1 4.3 5.7 5.5 2.6 1.2 6.6 1.8 12.1 1.8 4.7 0 9.8-.5 15.2-1.5l-1.6-13z"/><path fill="#EC7404" d="M315.6 125.3c-.8-.4-2.1-.8-4-1.1l-5-.8c-2-.3-3-.7-3-1.2 0-.4.4-.7 1.3-1 .9-.2 2-.4 3.5-.4 2.2 0 4.6.2 7.2.5V120c-2.7-.3-5.1-.4-7.2-.4-2.7 0-4.9.3-6.4.8s-2.3 1.2-2.3 2.1c0 1.3 1.7 2.1 5 2.6l4.3.6c2.5.4 3.8.9 3.8 1.4 0 .5-.5.8-1.6 1.1-1.1.3-2.4.4-4 .4-2.2 0-4.9-.3-8-.9v1.7c2.9.4 5.6.6 8.1.6 2.9 0 5.2-.3 6.9-.8 1.7-.6 2.6-1.3 2.6-2.3 0-.6-.4-1.1-1.2-1.6zM406.2 115.2h5v2.3h-5z"/><path fill="#FFF" d="M444.5 37.8v57.7h22V27.6z"/><path fill="#EC7404" d="M427.3 125.3h15v-.6c0-1.8-.7-3.1-2.2-3.9-1.4-.8-3.7-1.3-6.7-1.3s-5.5.5-7.4 1.5c-1.9 1-2.9 2.3-2.9 3.9 0 1.7 1 2.9 3 3.8 2 .9 4.9 1.3 8.7 1.3 2.3 0 4.8-.2 7.6-.6V128c-2.6.5-4.9.7-7.1.7-5 0-7.7-1.1-8-3.4zm1.9-3.6c1-.5 2.3-.8 3.9-.8 3.3 0 5 .9 5 2.7v.3h-10.6c.1-.9.7-1.7 1.7-2.2zM380.5 121.7v-1.9h-4v10.1h4v-6.5c1.3-.8 2.5-1.3 3.6-1.7 1.2-.3 2.5-.5 4-.5.5 0 1 0 1.6.1v1.4h3v-2.9c-1.5-.2-2.9-.2-4.1-.2-3.3 0-6.1.7-8.1 2.1zM277.6 125.3h15v-.6c0-1.8-.7-3.1-2.2-3.9-1.4-.8-3.7-1.3-6.7-1.3s-5.5.5-7.4 1.5c-1.9 1-2.9 2.3-2.9 3.9 0 1.7 1 2.9 3 3.8 2 .9 4.9 1.3 8.7 1.3 2.3 0 4.8-.2 7.6-.6V128c-2.6.5-4.9.7-7.1.7-5.1 0-7.7-1.1-8-3.4zm1.9-3.6c1-.5 2.3-.8 3.9-.8 3.3 0 5 .9 5 2.7v.3h-10.6c.1-.9.7-1.7 1.7-2.2zM398.8 121.2h7.9v8.6h4v-10h-11.9zM465.3 125.3c-.8-.4-2.1-.8-4-1.1l-5-.8c-2-.3-3-.7-3-1.2 0-.4.4-.7 1.3-1 .9-.2 2-.4 3.5-.4 2.2 0 4.6.2 7.2.5V120c-2.7-.3-5.1-.4-7.2-.4-2.8 0-4.9.3-6.4.8s-2.3 1.2-2.3 2.1c0 1.3 1.7 2.1 5 2.6l4.3.6c2.5.4 3.8.9 3.8 1.4 0 .5-.5.8-1.6 1.1-1.1.3-2.4.4-4 .4-2.3 0-4.9-.3-8-.9v1.7c2.9.4 5.6.6 8.1.6 2.9 0 5.2-.3 6.9-.8 1.7-.6 2.6-1.3 2.6-2.3 0-.6-.4-1.1-1.2-1.6z"/><path fill="#FFF" d="M426.1 27.6l-22 10.2v57.7h22z"/><path fill="#EC7404" d="M217.9 128.7c-.8 0-1.3-.1-1.6-.3-.3-.2-.4-.6-.4-1.2V123c0-1.2-.6-2.1-1.7-2.6-1.2-.5-3.1-.8-5.9-.8-2.5 0-5.1.2-8 .7v1.6c2.5-.6 4.9-.9 7.2-.9 1.6 0 2.7.2 3.4.5.7.3 1 .8 1 1.5v.9h-2.5c-3.3 0-6 .3-8 1-2 .6-3 1.5-3 2.5 0 .8.6 1.5 2 2 1.3.5 3 .8 5 .8 2.4 0 4.8-.5 7.2-1.4.7.9 2 1.4 4 1.4.7 0 1.7-.1 3-.3l-.4-1.1c-.7-.1-1.1-.1-1.3-.1zm-6.1-1.3c-2 .7-3.8 1.1-5.5 1.1-1.2 0-2.1-.1-2.8-.4-.7-.3-1.1-.7-1.1-1.2 0-1.4 2.7-2 8.2-2h1.2v2.5zM230.3 127.7c-1.5-.7-2.2-1.6-2.2-2.9 0-1.2.7-2.1 2-2.8 1.4-.7 3.3-1 5.7-1 1.8 0 4.1.2 6.7.6V120c-2.4-.3-4.7-.5-7-.5-3.6 0-6.5.5-8.5 1.4-2 .9-3.1 2.2-3.1 3.9 0 1.7 1 3 3.1 3.9 2.1.9 5 1.4 8.9 1.4 2.3 0 4.7-.2 7.1-.6v-1.4c-2.4.4-4.6.6-6.5.6-2.7 0-4.8-.4-6.2-1zM255.2 127.7c-1.5-.7-2.2-1.6-2.2-2.9 0-1.2.7-2.1 2.1-2.8 1.4-.7 3.3-1 5.7-1 1.8 0 4 .2 6.7.6V120c-2.4-.3-4.7-.5-7-.5-3.6 0-6.5.5-8.5 1.4-2 .9-3.1 2.2-3.1 3.9 0 1.7 1 3 3.1 3.9 2.1.9 5 1.4 8.9 1.4 2.3 0 4.7-.2 7.1-.6v-1.4c-2.4.4-4.6.6-6.5.6-2.8 0-4.8-.4-6.3-1z"/><path fill="#FFF" d="M256.3 87.9c2-2.7 3-5.5 3-8.3 0-2.8-.9-5.4-2.8-7.7-1.9-2.4-4.6-4.2-8.2-5.4-3.6-1.3-9-2.2-16.3-3-4.8-.5-8-1.1-9.4-1.7-1.4-.6-2.2-1.5-2.2-2.7 0-1.1.6-2 1.7-2.8 1.1-.8 2.9-1.1 5.4-1.1 2.5 0 4.5.5 6.3 1.5 1.3.7 2.2 1.9 2.7 3.5l20.8-1.8c-1.5-3.2-3.3-5.8-5.4-7.6-2.2-1.9-4.9-3.3-8.1-4.2-3.3-.9-8.3-1.3-15.1-1.3-6.5 0-11.6.6-15.5 1.7-3.8 1.1-6.9 2.9-9.1 5.3-2.2 2.3-3.3 5.1-3.3 8.4 0 3 1 5.6 3.1 7.9 2 2.3 4.5 4 7.5 4.9 3 1 8.3 2 15.9 3.2 5.1.8 8.3 1.4 9.5 1.9 1.6.7 2.5 1.8 2.5 3.2 0 1.2-.6 2.2-1.9 3-1.6 1.1-3.9 1.6-6.9 1.6-2.7 0-4.9-.5-6.5-1.4-1.6-1-2.9-2.5-3.8-4.8L198.4 82c1.3 4.7 4.1 8.4 8.6 10.9 4.4 2.6 11.9 3.8 22.4 3.8 7.4 0 13.3-.8 17.6-2.4 4.1-1.6 7.3-3.7 9.3-6.4z"/><path fill="#EC7404" d="M163.5 122.8c1.8-6.8 2.5-14 2-21.4-2.8-38.4-38.4-67-79.4-64-6.5.5-12.7 1.7-18.6 3.6-.6-13.4-.1-27.4-1.7-41-.3 15.6-1.7 29.8-2.5 42.5C40.7 51.3 23.8 70 18.5 92.4c-4.5-.5-9.2-1-14.1-1.4L0 96.7c5.9.6 11.6 1.3 16.9 2.1-1.8 6.8-2.5 14-2 21.4 2.8 38.4 38.4 67 79.4 64 6.5-.5 12.7-1.7 18.6-3.6.6 13.4.1 27.4 1.7 41 .3-15.6 1.7-29.8 2.5-42.5 22.6-8.8 39.5-27.5 44.8-49.9 4.5.5 9.2 1 14.1 1.4l4.4-5.7c-5.9-.7-11.6-1.4-16.9-2.1zM62.9 49.7c-1.1 24.7 1.2 43.7 20.6 57.4-14.7-6.5-35.5-11.3-64.6-14.7 7.2-19.4 23.3-35.2 44-42.7zm33.4 126.6c-41 3-76.6-25.6-79.4-64-.3-4.6-.2-9.1.4-13.5 78.6 11.5 92.4 40.9 95.1 74.6-5.1 1.5-10.5 2.5-16.1 2.9zm21.2-4.5c1.1-24.7-1.2-43.7-20.6-57.4 14.7 6.5 35.5 11.3 64.7 14.6-7.3 19.5-23.4 35.3-44.1 42.8zM67.9 48.1c5.1-1.5 10.5-2.5 16.1-2.9 41-3 76.6 25.6 79.4 64 .3 4.6.2 9.1-.4 13.5-78.6-11.5-92.3-40.9-95.1-74.6z"/></svg>