<?xml version="1.0" encoding="utf-8"?>
<!-- Generator: Adobe Illustrator 16.0.3, SVG Export Plug-In . SVG Version: 6.00 Build 0)  -->
<!DOCTYPE svg PUBLIC "-//W3C//DTD SVG 1.1//EN" "http://www.w3.org/Graphics/SVG/1.1/DTD/svg11.dtd">
<svg version="1.1" id="Layer_1" xmlns="http://www.w3.org/2000/svg" xmlns:xlink="http://www.w3.org/1999/xlink" x="0px" y="0px"
	 width="449.576px" height="359.002px" viewBox="0 0 449.576 359.002" enable-background="new 0 0 449.576 359.002"
	 xml:space="preserve">
<g>
	<g>
		<g>
			<path fill="#010101" d="M153.329,198.553c-2.283-15.256-1.852-30.943-4.514-46.672c-2.629-15.613-1.551-25.379-1.826-34.005
				c-0.391-12.413-1.031-48.817-5.5-58.256c0.02-0.144,0.027-0.283,0.039-0.432c1.08-9.223-1.34-12.396-11.518-10.189
				c-1.09,0.237-1.961,0.52-2.654,0.86c-21.949,4.019-36.793,60.001-32.42,76.808c0.52,1.693,1.098,4.715,1.824,8.191
				c-2.539,5.361-4.596,10.934-6.371,17.463c-1.867,8.314-1.545,16.607-2.834,24.943c-0.346,2.266-1.865,5.947-3.434,9.908
				c-3.215,8.123-12.637,20.535,0.059,23.629c11.387,2.455,7.316-11.313,8.404-19.309c0.961-7.014,0.256-8.838,1.426-13.57
				c2.686-10.799,21.109-13.582,32.832-12.045c6.121,0.799,11.441-1.412,11.998-6.141c1.164-6.176-19.418-7.848-17.377-11.066
				c5.744-9.104-3.463-37.234,0.867-47.289c1.545,4.268,16.6,4.896,17.402,9.255c3.674,15.255,5.172,36.046,6.523,51.288
				c1.342,15.25-0.768,31.066,1.971,45.852c0.445,4.16,1.785,27.471,14.205,23.492c4.189-1.348,3.978-10.24,0-15.758
				C158.901,210.625,154.7,206.855,153.329,198.553z"/>
			<path fill="#010101" d="M247.942,174.043c-0.07,6.113-2.811,23.496-9.68,23.105c-3.65-0.201-12.232-12.287-14.969-14.906
				c-3.418-2.461-5.477-8.465-7.338-11.998c-2.807-6.186-4.738-16.363-5.881-22.928c-1.494-8.631,6.295-13.598,13.895-14.924
				l6.541,0.338c1.02-0.225,3.336-1.105,4.014-1.262C249.381,132.119,247.526,164.102,247.942,174.043z M268.696,134.756
				c-5.563-15.236-23.965-31.525-40.229-31.566c-9.549-0.023-21.227,4.547-29.369,9.475c2.975-4.942,3.963-15.822,5.988-21.045
				c4.658-2.923,11.828-4.524,20.254-9.291c10.625-7.756,19.42-16.241,25.174-28.219c4.926-10.266,7.119-19.788,0.777-30.057
				c-4.582-7.436-13.793-17.249-21.879-20.561c-9.227-3.783-27.203-6.787-31.467,3.813l-1.779,1.408
				c-6.723,3.879-12.342,17.318-14.545,24.361c-3.451,10.996-2.832,22.598,1.688,32.89c3.557,8.114,12.986,13.474,14.438,21.599
				c1.332,7.436-0.09,18.361-2.531,25.451c-2.914,8.451-12.184,12.986-16.316,21.17c-5.139,10.158-4.301,24.387-2.922,35.699
				c0.695,3.891,4.875,29.359,10.543,26.191c1.422-1.061,1.434-7.068,1.785-8.836c0.734-7.424-0.523-8.432,2.32-15.844
				c3.559-8.129,4.814-12.066,7.324-20.545c8.457,10.627,10.555,19.822,17.24,31.857c5.98,11.684,20.006,26.391,34.604,19.535
				C270.561,192.484,275.79,154.193,268.696,134.756z M195.85,34.716c-0.469-4.604,1.725-8.29,3.797-11.041
				c3.098-4.002,8.148-5.683,12.234-5.714c11,0,17.01,7.375,18.43,16.064c1.545,9.74,3.383,21.393-0.004,30.419
				c-3.475,12.11-18.639,8.654-25.004,0.667C197.088,55.816,196.944,46.404,195.85,34.716z"/>
			<path fill="#010101" d="M360.252,108.869c-0.129,0.446-0.219,0.838-0.27,1.176c-1.803,4.963-2.635,9.377-5.387,13.676
				c-1.252,1.762-2.691,3.291-4.17,4.627c-0.779,0.633-1.539,1.252-2.279,1.852c-0.186,0.15-0.361,0.283-0.545,0.422
				c-2.354,1.713-4.672,2.965-6.486,3.818c-16.379,5.799-5.965-29.584-18.158-40.688c-6.213-5.662-21.719-9.843-22.201-17.121
				c0.113-1.973,0.865-3.418,4.895-5.209c18.834-8.368,28.736-5.887,46.551,4.333c5.281,2.343,9.01,6.106,10.016,11.153
				C363.815,94.952,362.266,101.722,360.252,108.869z M363.854,70.875c-4.031-8.578-15.066-13.356-26.885-14.593l-7.244,0.356
				c-17.209,4.877-34.984,6.059-40.238,26.258c-0.553,2.133-0.813,4.207-0.852,6.221c0,0,0,0.041,0,0.062
				c-0.014,1.055,0.033,2.1,0.127,3.132c0.689,7.288,3.568,18.418,5.254,29.379c0.607,3.959,1.07,7.881,1.484,11.57
				c0.211,1.842,0.369,3.631,0.543,5.34c0.277,2.738-0.027,5.486,0.248,8.363c0.088,0.961,0.182,1.926,0.264,2.893
				c1.93,13.412,2.359,34.016-2.764,47.332c-0.494,1.275-1.002,2.529-1.592,3.779c-0.59,1.242-1.258,2.477-1.977,3.684
				c-0.695,1.17-1.439,2.303-2.246,3.4c-1.602,2.188-2.805,4.24-4.961,6.031c-0.953,0.938-1.951,1.838-3.004,2.693
				c-1.051,0.859-2.145,1.684-3.316,2.434c-6.064,3.873,0.934,14.061,5.629,12.158c4.473-1.814,7.316-5.031,9.24-8.932
				c0.635-1.289,1.193-2.656,1.645-4.086c0.787-2.498,1.398-5.035,1.939-7.592c0.273-1.275,0.514-2.555,0.744-3.84
				c0.486-1.297,0.854-2.676,1.143-4.113c0.281-1.443,0.479-2.951,0.641-4.479c1.148-10.412,3.035-36.947,14.775-34.207
				c7.201,1.449,7.455,11.521,10.523,18.102c0.5,1.297,1.01,2.529,1.504,3.637c0.467,1.045,0.932,2.133,1.424,3.217
				c3.932,8.717,9.197,17.926,13.977,15.531c9.049-3.186-2.115-12.15-4.303-17.65c-2.303-4.732-4.023-9.121-6.182-13.201
				c-0.717-1.357-1.494-2.668-2.342-3.971c-5.102-7.895-14.625-11.695-21.307-17.76c-0.594-0.736-1.152-1.475-1.668-2.219
				c-1.533-2.205-2.742-4.473-3.639-7.154c-0.672-1.984-1.111-4.09-1.285-6.148c-0.178-2.07-0.045-4.098,0.486-5.957
				c2.072-7.125,7.477-4.127,12.08-0.9c2.824,1.98,5.889,4.688,9.652,7.463c6.029,4.811,12.764,8.576,19.422,8.613
				c23.076,0.135,30.1-27.395,31.025-45.22C372.139,94.402,368.583,79.273,363.854,70.875z"/>
		</g>
	</g>
</g>
<g>
	<path fill="#010101" d="M119.985,331.111l0.154-0.154h5.512c1.639,0,3.248,0.279,4.549,1.082c1.518,0.959,2.57,2.602,2.57,5.076
		c0,5.76-6.037,6.037-6.037,6.037l0.682,0.682l3.621,4.363c0.525,0.621,1.299,1.301,2.477,1.301c0.123,0,0.217-0.029,0.342-0.029
		l0.123,0.154l-0.342,2.105l-0.184,0.152c-0.219,0.031-0.436,0.064-0.65,0.064c-2.135,0-3.561-1.857-4.117-2.57l-4.83-6.004
		l-0.217-0.125h-1.053v8.451l-0.154,0.154h-2.291l-0.154-0.154V331.111z M125.618,340.863c2.262,0,4.553-0.869,4.553-3.748
		c0-2.816-2.291-3.775-4.553-3.775h-3.033v7.523H125.618z"/>
	<path fill="#010101" d="M138.911,336.9l0.154-0.188l2.166-0.309l0.154,0.123v9.723c0,2.723,1.518,3.744,3.281,3.744
		c0.838,0,3.158-0.869,3.158-0.869V336.9l0.154-0.188l2.168-0.309l0.154,0.123v12.291l0.775,2.725l-0.154,0.186l-1.891,0.277
		l-0.186-0.125l-0.898-2.229c-0.371,1.146-1.514,2.57-4.301,2.57c-2.756,0-4.736-1.887-4.736-5.447V336.9z"/>
	<path fill="#010101" d="M156.657,329.84l0.154-0.184l2.166-0.309l0.156,0.123v7.77l-0.156,1.363
		c0.248-0.561,1.176-2.416,4.305-2.416c2.724,0,4.765,1.826,4.765,5.416v5.264c0,3.469-2.443,5.355-5.634,5.355
		c-1.887,0-3.621-0.838-3.621-0.838l-1.98,0.281l-0.154-0.156V329.84z M162.169,349.994c2.041,0,3.402-1.27,3.402-3.654v-4.301
		c0-2.662-1.515-3.623-3.343-3.623c-0.68,0-2.537,0.559-3.094,0.715v10.307C159.134,349.438,160.62,349.994,162.169,349.994z"/>
	<path fill="#010101" d="M173.815,329.84l0.154-0.184l2.166-0.309l0.158,0.123v7.77l-0.158,1.363
		c0.248-0.561,1.178-2.416,4.305-2.416c2.725,0,4.768,1.826,4.768,5.416v5.264c0,3.469-2.445,5.355-5.635,5.355
		c-1.889,0-3.621-0.838-3.621-0.838l-1.982,0.281l-0.154-0.156V329.84z M179.327,349.994c2.041,0,3.402-1.27,3.402-3.654v-4.301
		c0-2.662-1.516-3.623-3.342-3.623c-0.68,0-2.537,0.559-3.094,0.715v10.307C176.293,349.438,177.778,349.994,179.327,349.994z"/>
	<path fill="#010101" d="M190.448,341.668c0-3.467,2.385-5.48,5.881-5.48c3.963,0,5.418,2.416,5.418,4.582
		c0,3.064-2.166,4.553-5.107,4.553c-3.033,0-3.777-1.52-3.871-1.738l0.158,1.146v1.609c0,2.385,1.361,3.654,3.465,3.654
		c1.857,0,2.787-0.619,3.373-1.639l0.219-0.064l1.857,0.65l0.094,0.184c-0.744,1.982-2.787,3.098-5.418,3.098
		c-3.809,0-6.068-1.826-6.068-5.355V341.668z M195.926,343.123c1.703,0,3.221-0.557,3.221-2.479c0-1.082-0.838-2.229-2.91-2.229
		c-2.104,0-3.311,1.207-3.311,3.59v0.561C192.926,342.566,194.256,343.123,195.926,343.123z"/>
	<path fill="#010101" d="M207.389,339.781l-0.773-2.91l0.154-0.188l1.887-0.279l0.188,0.123l0.865,2.166
		c0.125-0.4,1.023-2.506,4.24-2.506l0.154,0.188l-0.463,2.6l-0.217,0.156c-0.434-0.219-0.959-0.279-1.609-0.279
		c-0.682,0-1.301,0.092-1.951,0.279v12.566l-0.154,0.154h-2.166l-0.154-0.154V339.781z"/>
	<path fill="#010101" d="M225.446,350.893l0.928-1.92l0.248-0.031c0.65,0.496,1.361,0.805,2.26,0.805
		c1.053,0,2.725-0.773,2.725-3.406v-15.074l0.156-0.186l2.289-0.311l0.154,0.123v15.695c0,3.438-2.072,5.635-5.17,5.635
		c-1.455,0-2.662-0.432-3.559-1.115L225.446,350.893z"/>
	<path fill="#010101" d="M240.372,341.668c0-3.467,2.385-5.48,5.881-5.48c3.961,0,5.416,2.416,5.416,4.582
		c0,3.064-2.166,4.553-5.105,4.553c-3.033,0-3.777-1.52-3.871-1.738l0.158,1.146v1.609c0,2.385,1.359,3.654,3.465,3.654
		c1.857,0,2.785-0.619,3.373-1.639l0.217-0.064l1.857,0.65l0.094,0.184c-0.744,1.982-2.785,3.098-5.416,3.098
		c-3.809,0-6.068-1.826-6.068-5.355V341.668z M245.85,343.123c1.703,0,3.221-0.557,3.221-2.479c0-1.082-0.838-2.229-2.91-2.229
		c-2.105,0-3.311,1.207-3.311,3.59v0.561C242.85,342.566,244.18,343.123,245.85,343.123z"/>
	<path fill="#010101" d="M255.297,336.9l0.156-0.188l2.322-0.309l0.154,0.123l3.748,11.113l0.432,1.643l0.432-1.643l2.508-7.553
		V336.9l0.154-0.188l2.135-0.309l0.158,0.123v3.963l2.32,7.15l0.432,1.643l0.438-1.643l3.59-10.77l0.184-0.158l2.508-0.309
		l0.094,0.154l-5.635,15.322l-0.215,0.188l-2.105-0.434l-0.188-0.186l-2.383-7.244l-0.369-1.516l-0.402,1.516l-2.508,7.676
		l-0.219,0.188l-2.074-0.402l-0.184-0.188L255.297,336.9z"/>
	<path fill="#010101" d="M280.852,341.668c0-3.467,2.383-5.48,5.879-5.48c3.963,0,5.416,2.416,5.416,4.582
		c0,3.064-2.166,4.553-5.104,4.553c-3.035,0-3.779-1.52-3.873-1.738l0.158,1.146v1.609c0,2.385,1.361,3.654,3.465,3.654
		c1.857,0,2.787-0.619,3.373-1.639l0.219-0.064l1.855,0.65l0.094,0.184c-0.744,1.982-2.785,3.098-5.416,3.098
		c-3.809,0-6.066-1.826-6.066-5.355V341.668z M286.329,343.123c1.703,0,3.221-0.557,3.221-2.479c0-1.082-0.838-2.229-2.91-2.229
		c-2.105,0-3.311,1.207-3.311,3.59v0.561C283.329,342.566,284.659,343.123,286.329,343.123z"/>
	<path fill="#010101" d="M297.635,329.84l0.156-0.184l2.166-0.309l0.154,0.123v18.82c0,1.207,0.93,1.395,1.395,1.395h0.125
		l0.123,0.154l-0.342,1.951l-0.154,0.154h-0.248c-0.834,0-3.375-0.248-3.375-3.5V329.84z"/>
	<path fill="#010101" d="M306.991,339.781l-0.775-2.91l0.154-0.188l1.887-0.279l0.188,0.123l0.865,2.166
		c0.125-0.4,1.023-2.506,4.242-2.506l0.154,0.188l-0.463,2.6l-0.219,0.156c-0.432-0.219-0.959-0.279-1.607-0.279
		c-0.682,0-1.303,0.092-1.953,0.279v12.566l-0.154,0.154h-2.164l-0.154-0.154V339.781z"/>
	<path fill="#010101" d="M318.2,356.773c1.24,0,2.199-0.959,2.879-2.816l0.959-2.602l-0.338-0.123l-0.248-0.217l-5.324-14.115
		l0.154-0.188l2.414-0.309l0.154,0.123l3.623,11.145l0.463,1.643l0.373-1.365l3.529-11.078l0.184-0.158l2.477-0.309l0.092,0.154
		l-6.471,18.42c-0.895,2.568-2.566,4.023-4.855,4.023c-1.488,0-2.633-0.527-3.561-1.207l-0.064-0.248l0.928-1.672l0.219-0.061
		C315.786,355.814,316.776,356.773,318.2,356.773z"/>
</g>
<g>
	<g>
		<g>
			<g>
				<path fill="#010101" d="M9.613,280.176l0.245-0.205l3.465-0.455l0.248,0.166l9.775,27.719l-0.122,0.205h-3.302l-0.245-0.205
					l-2.271-6.641H5.897L3.671,307.4l-0.204,0.205H0.124L0,307.4L9.613,280.176z M16.375,297.623l-4.288-12.703l-0.416-1.773
					l-0.41,1.773l-4.288,12.703H16.375z"/>
				<path fill="#010101" d="M29.722,280.176l0.208-0.25l3.051-0.41l0.287,0.166l13.365,20.127l1.07,1.984v-21.617l0.209-0.25
					l3.057-0.41l0.205,0.166V307.4l-0.205,0.205h-2.928l-0.338-0.205l-13.439-20.299l-1.072-1.977V307.4l-0.211,0.205H29.93
					l-0.208-0.205V280.176z"/>
				<path fill="#010101" d="M60.927,280.176l0.209-0.25l3.053-0.41l0.283,0.166l13.367,20.127l1.072,1.984v-21.617l0.207-0.25
					l3.055-0.41l0.205,0.166V307.4l-0.205,0.205h-2.928l-0.334-0.205l-13.447-20.299l-1.068-1.977V307.4l-0.207,0.205h-3.053
					l-0.209-0.205V280.176z"/>
				<path fill="#010101" d="M115.335,280.176l0.211-0.25l3.096-0.41l0.242,0.166l9.283,16.867l9.027-16.414l0.211-0.246l3.377-0.373
					l0.211,0.166V307.4l-0.211,0.205h-3.047l-0.123-0.205v-21.777l-1.031,2.27l-6.682,11.959l-0.248,0.209h-2.965l-0.258-0.209
					l-6.672-11.959l-0.955-2.27V307.4l-0.201,0.205h-3.055l-0.211-0.205V280.176z"/>
				<path fill="#010101" d="M150.751,280.176l0.209-0.25l3.045-0.41l0.209,0.166V307.4l-0.209,0.205h-3.045l-0.209-0.205V280.176z"
					/>
				<path fill="#010101" d="M187.192,280.176l0.203-0.25l3.053-0.41l0.211,0.166v11.678h1.936l0.326-0.174l8.58-10.965l0.33-0.209
					l4.33-0.496l0.164,0.209l-9.814,11.879l-1.197,1.199l1.197,1.314l6.516,8.666c0.373,0.488,1.443,1.729,3.26,1.729
					c0.168,0,0.328,0,0.496-0.039l0.166,0.205l-0.453,2.805l-0.248,0.207c-0.246,0.037-0.494,0.037-0.738,0.037
					c-3.184,0-5.123-2.803-5.531-3.377l-7.225-9.781l-0.328-0.162h-1.766V307.4l-0.211,0.205h-3.053l-0.203-0.205V280.176z"/>
				<path fill="#010101" d="M249.268,279.971l0.209-0.209h7.504c4.701,0,9.033,1.361,9.033,7.059c0,2.637-1.318,4.904-3.834,5.813
					c2.883,0.947,4.578,3.463,4.578,6.766c0,5.732-4.377,8.207-9.037,8.207h-8.244l-0.209-0.205V279.971z M257.022,291.148
					c2.846,0,5.527-0.785,5.527-4.127c0-3.461-2.682-4.086-5.527-4.086h-4.293v8.213H257.022z M257.266,304.432
					c2.967,0,5.984-1.277,5.984-5.033c0-3.709-2.971-5.072-5.984-5.072h-4.537v10.105H257.266z"/>
				<path fill="#010101" d="M275.278,279.971l0.209-0.209h7.342c2.182,0,4.328,0.373,6.061,1.447
					c2.023,1.281,3.426,3.463,3.426,6.766c0,7.668-8.043,8.037-8.043,8.037l0.908,0.908l4.824,5.818
					c0.699,0.826,1.73,1.734,3.299,1.734c0.168,0,0.285-0.041,0.453-0.041l0.164,0.201l-0.449,2.809l-0.248,0.201
					c-0.291,0.047-0.584,0.084-0.867,0.084c-2.85,0-4.746-2.479-5.484-3.422l-6.441-8l-0.283-0.162h-1.402V307.4l-0.207,0.205
					h-3.051l-0.209-0.205V279.971z M282.786,292.965c3.014,0,6.063-1.158,6.063-4.99c0-3.756-3.049-5.039-6.063-5.039h-4.041v10.029
					H282.786z"/>
				<path fill="#010101" d="M300.461,289.58c0-6.678,4.377-10.229,10.854-10.229c6.475,0,10.848,3.551,10.848,10.229v8.416
					c0,6.637-4.373,10.104-10.848,10.104c-6.477,0-10.854-3.467-10.854-10.104V289.58z M311.315,304.801
					c4.207,0,7.299-2.266,7.299-7.178v-7.752c0-4.787-3.092-7.219-7.299-7.219c-4.211,0-7.305,2.432-7.305,7.219v7.752
					C304.01,302.535,307.104,304.801,311.315,304.801z"/>
				<path fill="#010101" d="M354.18,280.176l0.205-0.25l3.047-0.41l0.293,0.166l13.359,20.127l1.074,1.984v-21.617l0.207-0.25
					l3.051-0.41l0.209,0.166V307.4l-0.209,0.205h-2.928l-0.33-0.205l-13.443-20.299l-1.074-1.977V307.4l-0.209,0.205h-3.047
					l-0.205-0.205V280.176z"/>
				<path fill="#010101" d="M385.383,280.176l0.203-0.25l3.051-0.41l0.209,0.166V307.4l-0.209,0.205h-3.051l-0.203-0.205V280.176z"
					/>
				<path fill="#010101" d="M398.614,280.176l0.209-0.25l3.049-0.41l0.293,0.166l13.357,20.127l1.074,1.984v-21.617l0.207-0.25
					l3.051-0.41l0.203,0.166V307.4l-0.203,0.205h-2.926l-0.332-0.205l-13.439-20.299l-1.08-1.977V307.4l-0.205,0.205h-3.049
					l-0.209-0.205V280.176z"/>
				<path fill="#010101" d="M429.819,280.176l0.209-0.25l3.049-0.41l0.203,0.166v11.678h1.939l0.334-0.174l8.574-10.965l0.334-0.209
					l4.328-0.496l0.166,0.209l-9.814,11.879l-1.197,1.199l1.197,1.314l6.514,8.666c0.373,0.488,1.443,1.729,3.26,1.729
					c0.16,0,0.33,0,0.492-0.039l0.168,0.205l-0.453,2.805l-0.25,0.207c-0.25,0.037-0.492,0.037-0.744,0.037
					c-3.17,0-5.113-2.803-5.525-3.377l-7.217-9.781l-0.328-0.162h-1.777V307.4l-0.203,0.205h-3.049l-0.209-0.205V280.176z"/>
			</g>
		</g>
		<path fill="#010101" d="M345.663,306.285c-2.16,1.205-4.549,1.822-6.869,1.822c-1.482,0-2.938-0.252-4.281-0.771
			c-2.691-1.025-4.641-2.957-5.49-5.443c-0.846-2.447-0.428-5.109,1.139-7.295c0.676-0.949,1.521-1.758,2.5-2.404
			c-0.316-0.477-0.586-0.998-0.781-1.553c-0.928-2.613-0.307-5.615,1.615-7.848c3.9-4.518,9.148-3.992,12.363-1.588l0.461,0.398
			l-0.012,0.324l-2.113,2.227l-0.264,0.008l-0.186-0.125c-2.02-1.508-5.135-1.76-7.572,1.068c-1.08,1.254-1.459,2.957-0.961,4.348
			c0.17,0.488,0.441,0.916,0.793,1.273c1.037-0.266,2.152-0.408,3.309-0.408c2.922,0,4.645,0.596,5.252,1.82
			c0.363,0.717,0.287,1.568-0.199,2.213c-1.307,1.762-4.912,1.344-6.4,1.082c-0.895-0.16-1.715-0.43-2.461-0.789
			c-1.01,0.471-1.859,1.152-2.467,2.004c-0.906,1.27-1.146,2.721-0.676,4.102c0.51,1.477,1.715,2.641,3.408,3.289
			c2.471,0.949,5.533,0.629,8.168-0.838l0.311-0.166l0.311,0.076l1.76,2.52l-0.053,0.256L345.663,306.285z"/>
		<path fill="#010101" d="M228.329,306.285c-2.162,1.205-4.553,1.822-6.871,1.822c-1.484,0-2.939-0.252-4.283-0.771
			c-2.689-1.025-4.641-2.957-5.49-5.443c-0.84-2.447-0.42-5.109,1.141-7.295c0.676-0.949,1.525-1.758,2.502-2.404
			c-0.322-0.477-0.588-0.998-0.783-1.553c-0.932-2.613-0.309-5.615,1.617-7.848c3.904-4.518,9.145-3.992,12.361-1.588l0.463,0.398
			l-0.01,0.324l-2.119,2.227l-0.256,0.008l-0.191-0.125c-2.016-1.508-5.135-1.76-7.57,1.068c-1.08,1.254-1.459,2.957-0.963,4.348
			c0.172,0.488,0.439,0.916,0.793,1.273c1.043-0.266,2.148-0.408,3.311-0.408c2.922,0,4.641,0.596,5.256,1.82
			c0.357,0.717,0.281,1.568-0.205,2.213c-1.307,1.762-4.912,1.344-6.402,1.082c-0.895-0.16-1.713-0.43-2.455-0.789
			c-1.014,0.471-1.863,1.152-2.471,2.004c-0.906,1.27-1.148,2.721-0.676,4.102c0.506,1.477,1.719,2.641,3.412,3.289
			c2.467,0.949,5.529,0.629,8.164-0.838l0.311-0.166l0.313,0.076l1.76,2.52l-0.055,0.256L228.329,306.285z"/>
		<path fill="#010101" d="M178.784,306.285c-2.156,1.205-4.551,1.822-6.869,1.822c-1.484,0-2.943-0.252-4.289-0.771
			c-2.683-1.025-4.634-2.957-5.488-5.443c-0.838-2.447-0.42-5.109,1.145-7.295c0.676-0.949,1.52-1.758,2.505-2.404
			c-0.328-0.477-0.591-0.998-0.791-1.553c-0.926-2.613-0.307-5.615,1.621-7.848c3.9-4.518,9.145-3.992,12.363-1.588l0.455,0.398
			l-0.002,0.324l-2.121,2.227l-0.262,0.008l-0.188-0.125c-2.018-1.508-5.135-1.76-7.568,1.068c-1.086,1.254-1.465,2.957-0.969,4.348
			c0.174,0.488,0.445,0.916,0.799,1.273c1.039-0.266,2.148-0.408,3.311-0.408c2.916,0,4.639,0.596,5.25,1.82
			c0.357,0.717,0.287,1.568-0.199,2.213c-1.305,1.762-4.912,1.344-6.402,1.082c-0.893-0.16-1.713-0.43-2.459-0.789
			c-1.014,0.471-1.859,1.152-2.467,2.004c-0.906,1.27-1.146,2.721-0.676,4.102c0.504,1.477,1.713,2.641,3.408,3.289
			c2.471,0.949,5.533,0.629,8.166-0.838l0.313-0.166l0.313,0.076l1.754,2.52l-0.049,0.256L178.784,306.285z"/>
		<path fill="#010101" d="M106.095,306.285c-2.16,1.205-4.549,1.822-6.867,1.822c-1.484,0-2.945-0.252-4.283-0.771
			c-2.691-1.025-4.641-2.957-5.49-5.443c-0.84-2.447-0.426-5.109,1.139-7.295c0.678-0.949,1.525-1.758,2.504-2.404
			c-0.322-0.477-0.588-0.998-0.785-1.553c-0.93-2.613-0.311-5.615,1.615-7.848c3.906-4.518,9.148-3.992,12.361-1.588l0.467,0.398
			l-0.01,0.324l-2.119,2.227l-0.258,0.008l-0.193-0.125c-2.018-1.508-5.135-1.76-7.572,1.068c-1.08,1.254-1.455,2.957-0.961,4.348
			c0.172,0.488,0.438,0.916,0.795,1.273c1.043-0.266,2.15-0.408,3.313-0.408c2.922,0,4.641,0.596,5.252,1.82
			c0.361,0.717,0.281,1.568-0.203,2.213c-1.309,1.762-4.916,1.344-6.402,1.082c-0.893-0.16-1.713-0.43-2.459-0.789
			c-1.014,0.471-1.859,1.152-2.467,2.004c-0.906,1.27-1.15,2.721-0.676,4.102c0.508,1.477,1.715,2.641,3.412,3.289
			c2.469,0.949,5.529,0.629,8.164-0.838l0.309-0.166l0.314,0.076l1.762,2.52l-0.057,0.256L106.095,306.285z"/>
	</g>
</g>
</svg>
