<?xml version="1.0" encoding="utf-8"?>
<!-- Generator: Adobe Illustrator 15.1.0, SVG Export Plug-In . SVG Version: 6.00 Build 0)  -->
<!DOCTYPE svg PUBLIC "-//W3C//DTD SVG 1.1//EN" "http://www.w3.org/Graphics/SVG/1.1/DTD/svg11.dtd">
<svg version="1.1" id="Layer_1" xmlns="http://www.w3.org/2000/svg" xmlns:xlink="http://www.w3.org/1999/xlink" x="0px" y="0px"
	 width="786.201px" height="189px" viewBox="0 0 786.201 189" enable-background="new 0 0 786.201 189" xml:space="preserve">
<g id="Layer_1_1_">
	<path fill="none" d="M148.219,94.528c0.024-0.012,0.042-0.039,0.067-0.056C148.26,94.489,148.24,94.516,148.219,94.528z"/>
	<g>
		<path fill="none" d="M354.072,79.102c-17.381,0-28.141,15.951-28.141,30.731c0,14.883,10.76,30.944,28.141,30.944
			s28.139-16.063,28.139-30.944C382.211,95.053,371.453,79.102,354.072,79.102z"/>
		<path fill="none" d="M202.124,110.048c0,14.884,10.841,30.946,28.355,30.946c17.381,0,28.139-16.063,28.139-30.946
			s-10.758-30.947-28.139-30.947C212.965,79.102,202.124,95.164,202.124,110.048z"/>
		<path fill="#707372" d="M230.55,71.873c-11.864,0-23.58,6.61-29.58,17.392V76.783c0-1.745-1.338-3.614-3.5-3.614
			c-2.162,0-3.5,1.869-3.5,3.614v107.568c0,2.062,1.44,3.613,3.5,3.613c2.06,0,3.5-1.554,3.5-3.613v-53.309
			c6,10.648,17.653,17.178,29.58,17.178c19.501,0,35.366-17.125,35.366-38.174S250.051,71.873,230.55,71.873z M258.618,110.048
			c0,14.884-10.758,30.946-28.139,30.946c-17.514,0-28.355-16.063-28.355-30.946s10.841-30.947,28.355-30.947
			C247.86,79.102,258.618,95.164,258.618,110.048z"/>
		<path fill="#707372" d="M310.752,73.386c-10.162,0-19.782,7.467-24.782,14.976V77c0-2.06-1.44-3.613-3.5-3.613
			c-2.06,0-3.5,1.554-3.5,3.613v65.88c0,2.062,1.44,3.614,3.5,3.614c2.06,0,3.5-1.555,3.5-3.614v-28.942
			c0-18.563,9.52-31.021,25.287-33.328c2.113-0.264,3.324-1.658,3.324-3.825C314.581,74.751,312.602,73.386,310.752,73.386z"/>
		<path fill="#707372" d="M354.072,71.657c-19.501,0-35.366,17.125-35.366,38.176c0,21.049,15.865,38.174,35.366,38.174
			c19.62,0,35.582-17.125,35.582-38.174C389.654,88.782,373.692,71.657,354.072,71.657z M354.072,140.779
			c-17.381,0-28.141-16.063-28.141-30.946c0-14.778,10.76-30.73,28.141-30.73s28.139,15.952,28.139,30.73
			C382.211,124.716,371.453,140.779,354.072,140.779z"/>
		<path fill="#707372" d="M427.231,109.833l21.369-30.987l0.074-0.148c0.237-0.713,0.462-1.386,0.462-1.914
			c0-2.061-1.554-3.614-3.612-3.614c-1.009,0-2.347,0.508-2.861,1.551l-19.815,28.669l-19.619-28.688
			c-0.764-1.016-1.795-1.531-3.063-1.531c-2.063,0-3.614,1.554-3.614,3.614c0,0.525,0.226,1.195,0.463,1.914l21.445,31.136
			l-21.413,31.271c-0.146,0.299-0.495,1.088-0.495,1.992c0,2.061,1.556,3.613,3.614,3.613c1.271,0,2.302-0.518,3.08-1.556
			l19.604-28.878l19.773,28.811c0.558,1.114,1.896,1.623,2.903,1.623c2.061,0,3.612-1.555,3.612-3.613
			c0-0.906-0.346-1.695-0.533-2.063L427.231,109.833z"/>
		<path fill="none" d="M778.481,106.57c-1.471-14-12.153-27.333-27.863-27.333c-16.034,0-26.221,13.333-27.854,27.333H778.481z"/>
		<path fill="none" d="M621.497,79.102c-17.381,0-28.139,16.063-28.139,30.946c0,14.884,10.758,30.946,28.139,30.946
			s28.139-16.063,28.139-30.946S638.878,79.102,621.497,79.102z"/>
		<path fill="#BE3A34" d="M467.955,112.404c0-11.918,2.284-20.945,7.755-26.604c4.16-4.303,9.908-6.483,16.979-6.483
			c14.584,0,21.278,13.019,21.278,25.113v38.666c0,2.061,1.439,3.613,3.5,3.613c1.746,0,3.5-1.453,3.5-3.613v-29.81
			c0-16.361,7.812-33.971,24.62-33.971c14.584,0,21.38,13.019,21.38,25.115v38.663c0,2.062,1.439,3.613,3.5,3.613
			c1.746,0,3.5-1.451,3.5-3.613v-38.661c0-16.073-9.755-32.344-28.435-32.344c-11.527,0-21.574,6.8-27.143,18.271
			c-4.384-11.309-14.126-18.271-25.757-18.271c-9.994,0-18.668,5.119-24.668,13.802V77c0-2.06-1.438-3.613-3.5-3.613
			c-2.061,0-3.5,1.554-3.5,3.613v66.098c0,2.061,1.439,3.612,3.5,3.612c2.063,0,3.5-1.554,3.5-3.612L467.955,112.404z"/>
		<path fill="#BE3A34" d="M654.47,73.169c-2.162,0-3.5,1.869-3.5,3.614v12.299c-6-10.668-17.739-17.209-29.562-17.209
			c-19.501,0-35.321,17.125-35.321,38.175s15.798,38.175,35.299,38.175c11.821,0,23.584-6.541,29.584-17.209v11.65
			c0,2.063,1.439,3.613,3.5,3.613c2.063,0,3.5-1.555,3.5-3.613V76.783C657.97,75.038,656.632,73.169,654.47,73.169z
			 M649.636,110.048c0,14.884-10.758,30.946-28.139,30.946s-28.139-16.063-28.139-30.946s10.758-30.947,28.139-30.947
			S649.636,95.164,649.636,110.048z"/>
		<path fill="#BE3A34" d="M709.105,73.571H693.97V50.647c0-2.06-1.938-3.613-4-3.613c-2.061,0-4,1.554-4,3.613v22.925h-14.665
			c-2.162,0-3.612,1.754-3.612,3.5c0,2.061,1.554,3.5,3.612,3.5h14.665v62.958c0,1.744,1.838,3.611,4,3.611s4-1.867,4-3.611V80.571
			h15.136c2.062,0,3.613-1.439,3.613-3.5C712.719,75.325,711.267,73.571,709.105,73.571z"/>
		<path fill="#BE3A34" d="M750.618,71.873c-19.501,0-35.366,17.125-35.366,38.175s15.865,38.175,35.366,38.175
			c13.173,0,24.874-6.156,30.555-16.101c0.23-0.463,0.492-0.986,0.492-1.771c0-2.061-1.554-3.613-3.614-3.613
			c-1.146,0-2.207,0.604-3.075,1.765c-5.965,8.521-13.705,12.446-24.355,12.446c-16.034,0-26.222-14.379-27.854-27.379h59.606
			c2.111,0,3.83-1.575,3.83-3.567C786.201,88.953,770.238,71.873,750.618,71.873z M750.618,79.238
			c15.71,0,26.395,13.333,27.862,27.333h-55.718C724.396,92.571,734.584,79.238,750.618,79.238z"/>
	</g>
	<g>
		<path fill="#BE3A34" d="M158.02,30.538c18.083-4.308,14.825-22.052,11.283-22.523c-5.174-0.691-13.368,1.958-19.891,3.545
			c-7.285,1.766-13.935-14.874-34.009-10.963C100.979,3.408,98.092,11.32,95.63,20.56c-0.022,0.114-0.051,0.218-0.061,0.328
			c-0.537,3.428-0.734,6.881-0.524,10.243c0.191,3.352,0.82,6.63,2.084,9.415c1.274,2.781,3.218,4.89,5.793,5.983
			c1.281,0.552,2.708,0.909,4.23,1.028c1.497,0.129,3.192,0.129,4.711-0.064c3.097-0.326,5.767-1.408,7.384-3.623
			c1.66-2.224,2.235-5.589,2.201-8.973c0.004-3.427-0.583-6.943-1.348-10.479c2.021,3.034,3.433,6.464,4.302,10.136
			c0.4,1.844,0.623,3.771,0.514,5.776c-0.114,1.991-0.573,4.095-1.66,6.035c-1.047,1.948-2.748,3.592-4.64,4.683
			c-1.903,1.109-3.952,1.708-5.943,2.058c-2.025,0.305-3.924,0.438-5.984,0.295c-2.042-0.151-4.162-0.57-6.15-1.464
			c-1.983-0.889-3.84-2.201-5.275-3.838c-0.205-0.232-0.392-0.48-0.583-0.72c0.152,3.798,0.006,6.471-1.207,7.154
			C63.9,71.257,49.726,93.863,49.726,132.064c0,15.358-2.589,22.119-16.395,22.119c-29.58,0-35.827,11.696-32.541,11.696
			c0,0,130.817,0,136.077,0c7.554,0,28.922,0,28.922,0s3.146-10.463-8.545-13.175c-15.007-3.479-15.939-19.924-14.132-28.443
			c2.323-10.896,15.527-26.469,13.229-42.571c-2.299-16.104-20.002-30.852-10.369-34.498c7.701-2.905,20.047-7.498,20.379-11.598
			c0.147-1.823-15.956,3.048-20.861-1.844C143.564,31.837,151.724,32.042,158.02,30.538z M104.316,138.715
			C74.303,121.784,72.956,88.5,72.956,88.5l31.361-7.119l31.361,7.119C135.677,88.5,134.33,121.784,104.316,138.715z"/>
	</g>
</g>
<g id="Layer_2">
</g>
</svg>
