<?xml version="1.0" encoding="UTF-8" standalone="no"?>
<!-- Created with Inkscape (http://www.inkscape.org/) -->
<svg
   xmlns:dc="http://purl.org/dc/elements/1.1/"
   xmlns:cc="http://creativecommons.org/ns#"
   xmlns:rdf="http://www.w3.org/1999/02/22-rdf-syntax-ns#"
   xmlns:svg="http://www.w3.org/2000/svg"
   xmlns="http://www.w3.org/2000/svg"
   xmlns:sodipodi="http://sodipodi.sourceforge.net/DTD/sodipodi-0.dtd"
   xmlns:inkscape="http://www.inkscape.org/namespaces/inkscape"
   width="8400"
   height="8400"
   id="svg2"
   inkscape:label="Pozadí"
   sodipodi:version="0.32"
   inkscape:version="0.46"
   version="1.0"
   sodipodi:docbase="C:\Users\petrk\Pictures\_COMMONS"
   sodipodi:docname="Logo_Czechoslovakia_Armed_Forces_(pre1961).svg"
   inkscape:output_extension="org.inkscape.output.svg.inkscape"
   sodipodi:modified="true">
  <defs
     id="defs5057">
    <inkscape:perspective
       sodipodi:type="inkscape:persp3d"
       inkscape:vp_x="0 : 4200 : 1"
       inkscape:vp_y="0 : 1000 : 0"
       inkscape:vp_z="8400 : 4200 : 1"
       inkscape:persp3d-origin="4200 : 2800 : 1"
       id="perspective468" />
    <inkscape:perspective
       id="perspective146"
       inkscape:persp3d-origin="300 : 226.66667 : 1"
       inkscape:vp_z="600 : 340 : 1"
       inkscape:vp_y="0 : 1000 : 0"
       inkscape:vp_x="0 : 340 : 1"
       sodipodi:type="inkscape:persp3d" />
  </defs>
  <sodipodi:namedview
     id="base"
     pagecolor="#ffffff"
     bordercolor="#666666"
     borderopacity="1.0"
     inkscape:pageopacity="0.0"
     inkscape:pageshadow="2"
     inkscape:zoom="0.050373353"
     inkscape:cx="9667.0171"
     inkscape:cy="4200"
     inkscape:document-units="px"
     inkscape:current-layer="g1319"
     width="8400px"
     height="8400px"
     units="px"
     inkscape:window-width="1920"
     inkscape:window-height="1024"
     inkscape:window-x="-4"
     inkscape:window-y="-4"
     showgrid="false" />
  <metadata
     id="metadata5060">
    <rdf:RDF>
      <cc:Work
         rdf:about="">
        <dc:format>image/svg+xml</dc:format>
        <dc:type
           rdf:resource="http://purl.org/dc/dcmitype/StillImage" />
        <dc:title>Logo Armády České republiky</dc:title>
        <dc:date>2008-12-16</dc:date>
        <dc:creator>
          <cc:Agent>
            <dc:title>vectorized by Petr Kadlec &lt;http://commons.wikimedia.org/wiki/User:Mormegil&gt;</dc:title>
          </cc:Agent>
        </dc:creator>
        <dc:source>http://commons.wikimedia.org/wiki/Images:Logo_of_the_Czech_Armed_Forces.svg</dc:source>
        <dc:description>257/1999 Sb.</dc:description>
        <cc:license
           rdf:resource="http://web.resource.org/cc/PublicDomain" />
        <dc:relation>http://www.army.cz/images/id_logo/army1.gif</dc:relation>
        <dc:subject>
          <rdf:Bag />
        </dc:subject>
        <dc:contributor>
          <cc:Agent>
            <dc:title>Tlusťa &lt;http://commons.wikimedia.org/wiki/User:Tlus%C5%A5a&gt;, Jiří Louda</dc:title>
          </cc:Agent>
        </dc:contributor>
      </cc:Work>
      <cc:License
         rdf:about="http://web.resource.org/cc/PublicDomain">
        <cc:permits
           rdf:resource="http://web.resource.org/cc/Reproduction" />
        <cc:permits
           rdf:resource="http://web.resource.org/cc/Distribution" />
        <cc:permits
           rdf:resource="http://web.resource.org/cc/DerivativeWorks" />
      </cc:License>
    </rdf:RDF>
  </metadata>
  <g
     inkscape:label="Štít a meče"
     inkscape:groupmode="layer"
     id="layer1"
     transform="translate(3813.7599,3656.3096)">
    <g
       style="fill-rule:evenodd;display:inline"
       id="g4606"
       transform="matrix(0.4084353,0,0,0.4084353,-3252.8368,-3764.5565)">
      <path
         id="path7183"
         d="M 19124.786,10548.39 L 8909.7999,333.40439 L -1305.1858,10548.39 L 8909.3693,20762.945 L 19124.786,10548.39 z "
         style="fill:#fcb825;fill-opacity:1;fill-rule:evenodd;stroke:#000000;stroke-width:81.28092194;stroke-linecap:butt;stroke-linejoin:miter;stroke-miterlimit:4;stroke-dasharray:none;stroke-opacity:1" />
      <path
         id="path9141"
         d="M 17567.144,10550.247 L 8909.3402,1892.4439 L 252.45662,10549.327 L 8907.0348,19203.905 L 17567.144,10550.247 z "
         style="fill:none;fill-rule:evenodd;stroke:#000000;stroke-width:81.28092194;stroke-linecap:butt;stroke-linejoin:miter;stroke-miterlimit:4;stroke-dasharray:none;stroke-opacity:1" />
      <path
         id="path9143"
         d="M 16874.557,10549.268 L 8909.1836,2583.8944 L 945.04291,10548.035 L 8909.4624,18512.455 L 16874.557,10549.268 z "
         style="fill:none;fill-rule:evenodd;stroke:#000000;stroke-width:81.28092194;stroke-linecap:butt;stroke-linejoin:miter;stroke-miterlimit:4;stroke-dasharray:none;stroke-opacity:1" />
    </g>
    <g
       transform="matrix(-0.4084353,0,0,0.4084353,4033.3925,-3771.2482)"
       style="fill-rule:evenodd;display:inline"
       id="g4594">
      <path
         transform="translate(-9.0820435e-6,0)"
         sodipodi:nodetypes="cccccccccccccc"
         id="path4596"
         d="M 17256.994,2236.1347 L 15352.773,2236.1347 L 3493.49,14095.418 L 3319.9045,13921.832 L 3023.4224,14218.314 L 1433.0355,13300.104 L 826.3586,13906.781 L 5587.5633,18667.985 L 6193.917,18061.632 L 5276.3537,16472.366 L 5571.483,16177.236 L 5397.1918,16002.945 L 17257.909,4142.2275 L 17256.994,2236.1347 z "
         style="fill:#fcb825;fill-opacity:1;fill-rule:evenodd;stroke:#000000;stroke-width:81.28092194;stroke-linecap:butt;stroke-linejoin:miter;stroke-miterlimit:4;stroke-dasharray:none;stroke-opacity:1;display:inline" />
      <path
         sodipodi:nodetypes="ccccc"
         id="path4598"
         d="M 3319.9043,13921.832 L 3023.4222,14218.314 L 5276.3535,16472.366 L 5571.4828,16177.236 L 3319.9043,13921.832 z "
         style="opacity:1;fill:#fcb825;fill-opacity:1;fill-rule:evenodd;stroke:#000000;stroke-width:81.28092194;stroke-linecap:butt;stroke-linejoin:miter;stroke-miterlimit:4;stroke-dasharray:none;stroke-opacity:1;display:inline" />
      <path
         id="path4600"
         d="M 17256.994,2236.1347 L 4445.4647,15047.664"
         style="fill:none;fill-rule:evenodd;stroke:#000000;stroke-width:81.28092194;stroke-linecap:butt;stroke-linejoin:miter;stroke-miterlimit:4;stroke-dasharray:none;stroke-opacity:1" />
      <path
         sodipodi:open="true"
         sodipodi:end="11.088755"
         sodipodi:start="6.203807"
         transform="translate(340.84135,200.17667)"
         d="M 513.49978,19360.181 A 930.55103,930.55103 0 1 1 -327.53714,18507.455"
         sodipodi:ry="930.55103"
         sodipodi:rx="930.55103"
         sodipodi:cy="19433.969"
         sodipodi:cx="-414.12112"
         id="path4602"
         style="opacity:1;fill:#fcb825;fill-opacity:1;stroke:#000000;stroke-width:81.28092194;stroke-linecap:butt;stroke-linejoin:round;stroke-miterlimit:4;stroke-dasharray:none;stroke-opacity:1"
         sodipodi:type="arc" />
      <path
         sodipodi:nodetypes="ccccccccccccccccccccccccccccc"
         d="M 2505.5352,15582.61 L 3874.1347,16951.209 C 3925.5314,17251.474 3663.4446,17510.764 3395.0135,17361.594 C 3486.9866,17621.282 3146.239,17875.533 2967.0861,17728.129 C 3034.7134,17947.241 2704.1194,18216.185 2535.7998,18097.541 C 2585.1176,18338.294 2275.4445,18582.461 2110.0738,18462.191 C 2172.2909,18716.469 1882.7349,18883.679 1680.0886,18830.489 C 1699.0242,19041.486 1451.0465,19254.491 1263.711,19210.122 C 1212.3143,19496.862 985.72209,19554.991 834.23704,19554.991 L -3.0857173,18717.669 C 45.605904,18531.018 202.66293,18327.121 378.7166,18327.077 C 348.96061,18126.9 535.98112,17874.09 751.77271,17878.541 C 692.26073,17610.738 912.16053,17425.293 1087.2039,17437.611 C 1057.4479,17183.333 1200.6683,16974.267 1433.4554,16977.746 C 1357.7128,16745.108 1599.4774,16533.922 1785.1698,16536.279 C 1704.029,16306.695 1922.178,16065.985 2144.6421,16089.07 C 2052.669,15810.445 2251.2567,15582.61 2505.5352,15582.61 z M 378.7166,18327.077 L 1263.711,19210.122 M 751.77271,17878.541 L 1680.0886,18830.489 M 1087.2039,17437.611 L 2110.0738,18462.191 M 1433.4554,16977.746 L 2535.7998,18097.541 M 1785.1698,16536.279 L 2967.0861,17728.129 M 2144.6421,16089.07 L 3395.0135,17361.594"
         style="fill:#fcb825;fill-opacity:1;fill-rule:evenodd;stroke:#000000;stroke-width:81.28092194;stroke-linecap:butt;stroke-linejoin:miter;stroke-miterlimit:4;stroke-opacity:1;display:inline"
         id="path4604" />
    </g>
    <g
       style="fill-rule:evenodd;display:inline"
       id="g4587"
       transform="matrix(0.4084353,0,0,0.4084353,-3260.2201,-3771.9398)">
      <path
         transform="translate(-9.0820435e-6,0)"
         sodipodi:nodetypes="cccccccccccccc"
         id="path9145"
         d="M 17256.994,2236.1347 L 15352.773,2236.1347 L 3493.49,14095.418 L 3319.9045,13921.832 L 3023.4224,14218.314 L 1433.0355,13300.104 L 826.3586,13906.781 L 5587.5633,18667.985 L 6193.917,18061.632 L 5276.3537,16472.366 L 5571.483,16177.236 L 5397.1918,16002.945 L 17257.909,4142.2275 L 17256.994,2236.1347 z "
         style="fill:#fcb825;fill-opacity:1;fill-rule:evenodd;stroke:#000000;stroke-width:81.28092194;stroke-linecap:butt;stroke-linejoin:miter;stroke-miterlimit:4;stroke-dasharray:none;stroke-opacity:1;display:inline" />
      <path
         sodipodi:nodetypes="ccccc"
         id="path10126"
         d="M 3319.9043,13921.832 L 3023.4222,14218.314 L 5276.3535,16472.366 L 5571.4828,16177.236 L 3319.9043,13921.832 z "
         style="opacity:1;fill:#fcb825;fill-opacity:1;fill-rule:evenodd;stroke:#000000;stroke-width:81.28092194;stroke-linecap:butt;stroke-linejoin:miter;stroke-miterlimit:4;stroke-dasharray:none;stroke-opacity:1;display:inline" />
      <path
         id="path10128"
         d="M 17256.994,2236.1347 L 4445.4647,15047.664"
         style="fill:none;fill-rule:evenodd;stroke:#000000;stroke-width:81.28092194;stroke-linecap:butt;stroke-linejoin:miter;stroke-miterlimit:4;stroke-dasharray:none;stroke-opacity:1" />
      <path
         sodipodi:open="true"
         sodipodi:end="11.088755"
         sodipodi:start="6.203807"
         transform="translate(340.84135,200.17667)"
         d="M 513.49978,19360.181 A 930.55103,930.55103 0 1 1 -327.53714,18507.455"
         sodipodi:ry="930.55103"
         sodipodi:rx="930.55103"
         sodipodi:cy="19433.969"
         sodipodi:cx="-414.12112"
         id="path4585"
         style="opacity:1;fill:#fcb825;fill-opacity:1;stroke:#000000;stroke-width:81.28092194;stroke-linecap:butt;stroke-linejoin:round;stroke-miterlimit:4;stroke-dasharray:none;stroke-opacity:1"
         sodipodi:type="arc" />
      <path
         sodipodi:nodetypes="ccccccccccccccccccccccccccccc"
         d="M 2505.5352,15582.61 L 3874.1347,16951.209 C 3925.5314,17251.474 3663.4446,17510.764 3395.0135,17361.594 C 3486.9866,17621.282 3146.239,17875.533 2967.0861,17728.129 C 3034.7134,17947.241 2704.1194,18216.185 2535.7998,18097.541 C 2585.1176,18338.294 2275.4445,18582.461 2110.0738,18462.191 C 2172.2909,18716.469 1882.7349,18883.679 1680.0886,18830.489 C 1699.0242,19041.486 1451.0465,19254.491 1263.711,19210.122 C 1212.3143,19496.862 985.72209,19554.991 834.23704,19554.991 L -3.0857173,18717.669 C 45.605904,18531.018 202.66293,18327.121 378.7166,18327.077 C 348.96061,18126.9 535.98112,17874.09 751.77271,17878.541 C 692.26073,17610.738 912.16053,17425.293 1087.2039,17437.611 C 1057.4479,17183.333 1200.6683,16974.267 1433.4554,16977.746 C 1357.7128,16745.108 1599.4774,16533.922 1785.1698,16536.279 C 1704.029,16306.695 1922.178,16065.985 2144.6421,16089.07 C 2052.669,15810.445 2251.2567,15582.61 2505.5352,15582.61 z M 378.7166,18327.077 L 1263.711,19210.122 M 751.77271,17878.541 L 1680.0886,18830.489 M 1087.2039,17437.611 L 2110.0738,18462.191 M 1433.4554,16977.746 L 2535.7998,18097.541 M 1785.1698,16536.279 L 2967.0861,17728.129 M 2144.6421,16089.07 L 3395.0135,17361.594"
         style="fill:#fcb825;fill-opacity:1;fill-rule:evenodd;stroke:#000000;stroke-width:81.28092194;stroke-linecap:butt;stroke-linejoin:miter;stroke-miterlimit:4;stroke-opacity:1;display:inline"
         id="path2618" />
    </g>
    <g
       transform="matrix(0.4084353,0,0,0.4084353,-6837.8541,1832.6127)"
       style="fill-rule:evenodd;display:inline"
       id="Layer 2" />
    <g
       transform="matrix(6.9447222,0,0,6.9447222,7935.9037,-1105.5069)"
       inkscape:label="Layer 1"
       inkscape:groupmode="layer"
       id="g2127" />
    <g
       inkscape:label="Layer 1"
       inkscape:groupmode="layer"
       id="g1693"
       transform="matrix(6.9447222,0,0,6.9447222,5786.192,-966.90176)" />
    <g
       inkscape:label="Layer 1"
       inkscape:groupmode="layer"
       id="g1567"
       transform="matrix(6.9447222,0,0,6.9447222,6279.2397,-1122.8257)">
      <g
         transform="matrix(0.160664,0,0,0.160664,316.2016,94.47225)"
         inkscape:label="Layer 1"
         inkscape:groupmode="layer"
         id="g5014">
        <g
           transform="translate(182.8562,94.86106)"
           inkscape:label="Layer 1"
           inkscape:groupmode="layer"
           id="g5016" />
        <g
           inkscape:label="Layer 1"
           inkscape:groupmode="layer"
           id="g5018"
           transform="translate(-126.6899,114.8194)" />
        <g
           id="g1319"
           inkscape:groupmode="layer"
           inkscape:label="Layer 1"
           transform="translate(315.254,234.9764)">
          <path
             sodipodi:nodetypes="ccccccccccccccc"
             id="path5157"
             d="M -9448.3315,-1214.9438 L -9448.3315,2327.2514 L -9445.5855,2327.2514 L -9445.5855,2388.4624 C -9418.2475,2627.0002 -9202.8045,2809.092 -8946.2845,2809.0919 L -7786.4135,2807.9148 C -7780.1455,2804.6868 -7640.0965,2887.6485 -7572.1745,3051.3855 L -7559.6195,3051.4244 C -7483.8315,2884.4549 -7343.5365,2804.2895 -7345.5765,2807.13 L -6186.4915,2805.9528 C -5934.4995,2802.1315 -5712.4985,2625.3746 -5684.2475,2390.6205 L -5684.2475,2327.2514 L -5681.4995,2327.2514 L -5681.4995,-1214.9438 L -9448.3315,-1214.9438 z"
             style="fill:#fcb825;fill-opacity:1;fill-rule:nonzero;stroke:#000000;stroke-width:29.75352859;stroke-miterlimit:4;stroke-dasharray:none;stroke-dashoffset:0;stroke-opacity:1" />
          <path
             sodipodi:nodetypes="ccccccccccccccc"
             id="rect3167"
             d="M -9311.5777,-1060.0544 L -9311.5777,2224.9437 L -9309.0305,2224.9437 L -9309.0305,2281.7102 C -9283.677,2502.9279 -9083.8787,2671.7981 -8845.9831,2671.798 L -7770.3305,2670.7064 C -7764.5173,2667.7128 -7634.6374,2744.6507 -7571.6477,2896.4988 L -7560.0032,2896.5349 C -7489.7187,2741.689 -7359.6104,2667.3443 -7361.5024,2669.9786 L -6286.5779,2668.8869 C -6052.883,2665.343 -5847.0017,2501.4204 -5820.8012,2283.7116 L -5820.8012,2224.9437 L -5818.2534,2224.9437 L -5818.2534,-1060.0544 L -9311.5777,-1060.0544 z"
             style="fill:#fcb825;fill-opacity:1;fill-rule:nonzero;stroke:#000000;stroke-width:29.75352787;stroke-miterlimit:4;stroke-dasharray:none;stroke-dashoffset:0;stroke-opacity:1" />
          <g
             id="g14663"
             transform="matrix(14.233874,0,0,14.233874,-14950.602,-2593.0533)"
             style="fill:#fcb825;fill-opacity:1;stroke:#000000;stroke-width:1.88896836;stroke-miterlimit:4;stroke-dasharray:none;stroke-opacity:1">
            <g
               transform="translate(2.182956,-1.746365)"
               id="g8589"
               style="fill:#fcb825;fill-opacity:1;stroke:#000000;stroke-width:1.88896836;stroke-miterlimit:4;stroke-dasharray:none;stroke-opacity:1">
              <path
                 style="fill:#fcb825;fill-opacity:1;fill-rule:nonzero;stroke:#000000;stroke-width:1.88896836;stroke-miterlimit:4;stroke-dasharray:none;stroke-dashoffset:0;stroke-opacity:1"
                 d="M 426.78009,133.42882 C 428.07265,132.45981 428.38148,130.66775 427.46215,129.44146 C 427.20678,129.10083 422.07667,123.58907 418.91554,124.28492 C 418.92337,124.29816 424.04302,128.73133 422.78642,132.94675 C 423.70575,134.17304 425.48751,134.39783 426.78009,133.42882 z"
                 id="path8571"
                 sodipodi:nodetypes="ccccc" />
              <path
                 style="fill:#fcb825;fill-opacity:1;fill-rule:nonzero;stroke:#000000;stroke-width:1.88896836;stroke-miterlimit:4;stroke-dasharray:none;stroke-dashoffset:0;stroke-opacity:1"
                 d="M 419.709,147.16626 C 420.41792,145.71466 419.87611,143.97878 418.49893,143.30621 C 418.11639,143.11939 411.03809,140.55126 408.54145,142.61129 C 408.55445,142.61951 415.13188,144.23233 415.93448,148.55722 C 417.31165,149.22979 419.00007,148.61787 419.709,147.16626 z"
                 id="path8573"
                 sodipodi:nodetypes="ccccc" />
              <path
                 style="fill:#fcb825;fill-opacity:1;fill-rule:nonzero;stroke:#000000;stroke-width:1.88896836;stroke-miterlimit:4;stroke-dasharray:none;stroke-dashoffset:0;stroke-opacity:1"
                 d="M 420.01894,160.96191 C 420.72786,162.41351 420.18605,164.14939 418.80887,164.82196 C 418.42633,165.00878 411.34803,167.57691 408.85139,165.51688 C 408.86439,165.50866 415.44182,163.89584 416.24442,159.57095 C 417.62159,158.89838 419.31001,159.5103 420.01894,160.96191 z"
                 id="path8575"
                 sodipodi:nodetypes="ccccc" />
              <path
                 style="fill:#fcb825;fill-opacity:1;fill-rule:nonzero;stroke:#000000;stroke-width:1.88896836;stroke-miterlimit:4;stroke-dasharray:none;stroke-dashoffset:0;stroke-opacity:1"
                 d="M 426.59708,174.28625 C 427.88964,175.25526 428.19847,177.04732 427.27914,178.27361 C 427.02377,178.61424 421.89366,184.126 418.73253,183.43015 C 418.74036,183.41691 423.86001,178.98374 422.60341,174.76832 C 423.52274,173.54203 425.3045,173.31724 426.59708,174.28625 z"
                 id="path8577"
                 sodipodi:nodetypes="ccccc" />
              <path
                 style="fill:#fcb825;fill-opacity:1;fill-rule:evenodd;stroke:#000000;stroke-width:1.88896836;stroke-linecap:butt;stroke-linejoin:miter;stroke-miterlimit:4;stroke-dasharray:none;stroke-opacity:1"
                 d="M 439.31785,141.86393 C 439.31785,141.86393 432.18618,143.02828 432.04063,141.13621 C 431.89509,139.24413 433.4318,128.36224 425.92777,130.22038 C 418.28669,132.11245 424.36577,141.65014 423.7446,142.7372 C 423.16243,143.75601 415.88699,141.26473 415.30303,146.81244 C 414.72085,152.34312 420.97926,153.79857 420.97926,154.2352 C 420.97926,154.52629 415.87714,155.69108 416.17629,161.07578 C 416.46738,166.31539 423.74461,166.0243 423.7446,166.46093 C 423.7446,166.92118 419.2102,173.91719 423.30797,176.64904 C 427.23767,179.26884 435.09707,176.50349 435.97033,173.01043 C 436.8436,169.51736 440.48221,161.36688 442.51983,161.65797 C 444.55745,161.94906 447.17725,144.33818 447.17725,144.33818 L 439.31785,141.86393 z"
                 id="path8579"
                 sodipodi:nodetypes="cczzzzzzzcccc" />
              <path
                 style="fill:#fcb825;fill-opacity:1;fill-rule:evenodd;stroke:#000000;stroke-width:1.88896836;stroke-linecap:butt;stroke-linejoin:miter;stroke-miterlimit:4;stroke-dasharray:none;stroke-opacity:1"
                 d="M 420.97694,154.14017 C 420.97694,154.14017 429.60492,151.6576 431.31291,154.81738"
                 id="path8581"
                 sodipodi:nodetypes="cc" />
              <path
                 style="fill:#fcb825;fill-opacity:1;fill-rule:evenodd;stroke:#000000;stroke-width:1.88896836;stroke-linecap:butt;stroke-linejoin:miter;stroke-miterlimit:4;stroke-dasharray:none;stroke-opacity:1"
                 d="M 423.53658,166.40677 C 423.53658,166.40677 431.89509,164.95964 431.89509,160.34807"
                 id="path8583"
                 sodipodi:nodetypes="cc" />
              <path
                 style="fill:#fcb825;fill-opacity:1;fill-rule:evenodd;stroke:#000000;stroke-width:1.88896836;stroke-linecap:butt;stroke-linejoin:miter;stroke-miterlimit:4;stroke-dasharray:none;stroke-opacity:1"
                 d="M 429.58261,148.10402 C 428.68044,143.87127 424.29364,143.30951 423.43965,142.96791"
                 id="path8585"
                 sodipodi:nodetypes="cc" />
            </g>
            <path
               style="fill:#fcb825;fill-opacity:1;fill-rule:evenodd;stroke:#000000;stroke-width:1.88896836;stroke-linecap:butt;stroke-linejoin:miter;stroke-miterlimit:4;stroke-dasharray:none;stroke-opacity:1"
               d="M 486.54646,172.74666 C 486.54646,172.74666 479.40637,168.1566 475.83632,168.4116 C 472.26628,168.6666 466.14619,157.95646 461.81114,156.17144 C 457.47608,154.38642 454.92604,142.40126 447.53095,142.40126 C 440.13585,142.40126 439.88084,142.40126 439.88084,142.40126 C 439.88084,142.40126 442.94089,142.91126 442.17588,146.73631 C 441.41087,150.56136 437.84082,151.32637 437.84082,151.32637 C 437.84082,151.32637 437.33081,151.83638 439.88084,152.34639 C 442.43088,152.85639 443.9609,149.79635 443.9609,149.79635 L 440.90086,157.70146 C 440.90086,157.70146 437.33081,159.23148 437.84082,163.31153 C 438.35082,167.39159 444.72591,169.94162 444.98091,171.47164 C 445.23592,173.00166 439.17644,172.60702 439.23512,173.40988 C 440.17958,177.7953 450.08098,174.02168 448.55096,175.5517 C 447.02094,177.08172 443.7059,183.2018 445.23592,186.00684 C 446.76594,188.81187 444.2159,184.73182 447.53095,183.7118 C 450.84599,182.69179 455.18105,183.7118 452.88602,185.24183 C 450.59099,186.77185 444.47091,190.8519 443.7059,189.57688 C 442.94089,188.30187 442.43088,190.5969 444.47091,192.12692 C 446.51093,193.65694 454.67104,191.87191 455.43605,190.34189 C 456.20106,188.81187 452.12101,199.01201 448.04095,199.52201 C 443.9609,200.03202 453.88959,201.57953 455.92962,199.5395 C 457.96965,197.49947 463.85116,193.14693 463.85116,193.14693 C 463.85116,193.14693 458.49609,199.01201 459.77111,202.83706 C 461.04613,206.66211 456.60054,206.90942 456.65965,207.8014 C 456.93621,211.13604 465.84957,210.12057 468.69623,203.85707 C 469.21568,205.32519 469.46124,211.25217 466.9112,212.52719 C 464.36117,213.8022 462.83115,213.8022 462.83115,213.8022 C 462.83115,213.8022 461.81114,215.84223 464.36117,216.09724 C 466.9112,216.35224 468.44122,216.86225 468.44122,216.86225 L 469.20623,223.74734 L 503.37669,202.07205 L 486.54646,172.74666 z"
               id="path8938"
               sodipodi:nodetypes="ccccccccccccccccccccccccccccccccc" />
            <path
               style="fill:#fcb825;fill-opacity:1;fill-rule:nonzero;stroke:#000000;stroke-width:1.88896836;stroke-miterlimit:4;stroke-dasharray:none;stroke-dashoffset:0;stroke-opacity:1"
               d="M 445.78151,219.05789 C 447.07407,218.08888 447.3829,216.29682 446.46357,215.07053 C 446.2082,214.7299 441.07809,209.21814 437.91696,209.91399 C 437.92479,209.92723 443.04444,214.3604 441.78784,218.57582 C 442.70717,219.80211 444.48893,220.0269 445.78151,219.05789 z"
               id="path11240"
               sodipodi:nodetypes="ccccc" />
            <path
               style="fill:#fcb825;fill-opacity:1;fill-rule:nonzero;stroke:#000000;stroke-width:1.88896836;stroke-miterlimit:4;stroke-dasharray:none;stroke-dashoffset:0;stroke-opacity:1"
               d="M 438.71042,232.79533 C 439.41934,231.34373 438.87753,229.60785 437.50035,228.93528 C 437.11781,228.74846 430.03951,226.18033 427.54287,228.24036 C 427.55587,228.24858 434.1333,229.8614 434.9359,234.18629 C 436.31307,234.85886 438.00149,234.24694 438.71042,232.79533 z"
               id="path11244"
               sodipodi:nodetypes="ccccc" />
            <path
               style="fill:#fcb825;fill-opacity:1;fill-rule:nonzero;stroke:#000000;stroke-width:1.88896836;stroke-miterlimit:4;stroke-dasharray:none;stroke-dashoffset:0;stroke-opacity:1"
               d="M 439.02036,246.59098 C 439.72928,248.04258 439.18747,249.77846 437.81029,250.45103 C 437.42775,250.63785 430.34945,253.20598 427.85281,251.14595 C 427.86581,251.13773 434.44324,249.52491 435.24584,245.20002 C 436.62301,244.52745 438.31143,245.13937 439.02036,246.59098 z"
               id="path11246"
               sodipodi:nodetypes="ccccc" />
            <path
               style="fill:#fcb825;fill-opacity:1;fill-rule:nonzero;stroke:#000000;stroke-width:1.88896836;stroke-miterlimit:4;stroke-dasharray:none;stroke-dashoffset:0;stroke-opacity:1"
               d="M 445.5985,259.91532 C 446.89106,260.88433 447.19989,262.67639 446.28056,263.90268 C 446.02519,264.24331 440.89508,269.75507 437.73395,269.05922 C 437.74178,269.04598 442.86143,264.61281 441.60483,260.39739 C 442.52416,259.1711 444.30592,258.94631 445.5985,259.91532 z"
               id="path11242"
               sodipodi:nodetypes="ccccc" />
            <path
               style="fill:#fcb825;fill-opacity:1;fill-rule:evenodd;stroke:#000000;stroke-width:1.88896836;stroke-linecap:butt;stroke-linejoin:miter;stroke-miterlimit:4;stroke-dasharray:none;stroke-opacity:1"
               d="M 458.31927,227.493 C 458.31927,227.493 451.1876,228.65735 451.04205,226.76528 C 450.89651,224.8732 452.43322,213.99131 444.92919,215.84945 C 437.28811,217.74152 443.36719,227.27921 442.74602,228.36627 C 442.16385,229.38508 434.88841,226.8938 434.30445,232.44151 C 433.72227,237.97219 439.98068,239.42764 439.98068,239.86427 C 439.98068,240.15536 434.87856,241.32015 435.17771,246.70485 C 435.4688,251.94446 442.74603,251.65337 442.74602,252.09 C 442.74602,252.55025 438.21162,259.54626 442.30939,262.27811 C 446.23909,264.89791 454.09849,262.13256 454.97175,258.6395 C 455.84502,255.14643 459.48363,246.99595 461.52125,247.28704 C 463.55887,247.57813 466.17867,229.96725 466.17867,229.96725 L 458.31927,227.493 z"
               id="path11230"
               sodipodi:nodetypes="cczzzzzzzcccc" />
            <path
               style="fill:#fcb825;fill-opacity:1;fill-rule:evenodd;stroke:#000000;stroke-width:1.88896836;stroke-linecap:butt;stroke-linejoin:miter;stroke-miterlimit:4;stroke-dasharray:none;stroke-opacity:1"
               d="M 489.02914,202.86954 C 489.02914,202.86954 473.1868,215.11015 471.79751,214.55444 C 470.40822,213.99872 466.80054,216.20669 466.80054,217.87384 C 466.80054,219.54098 455.9641,224.26456 455.13053,226.20956 C 454.29696,228.15457 453.18553,232.04457 453.46338,234.26743 C 453.74124,236.49029 454.57481,237.32386 454.57481,237.32386 C 454.57481,237.32386 454.29696,236.21243 455.68624,233.98957 C 457.07553,231.76671 460.40982,232.04457 459.57625,234.54529 C 458.74268,237.046 457.35339,239.82458 456.24196,240.10244 C 455.13053,240.38029 455.13053,240.38029 455.13053,240.38029 C 455.13053,240.38029 454.85267,242.3253 458.46482,241.76958 C 462.07697,241.21387 462.35482,239.26886 462.35482,239.26886 C 462.35482,239.26886 462.91054,240.38029 462.35482,241.76958 C 461.79911,243.15887 459.02053,242.3253 457.9091,244.54816 C 456.79767,246.77102 457.07553,251.21673 459.02053,253.71745 C 460.96554,256.21817 463.1884,257.60746 461.79911,260.94175 C 460.40982,264.27604 458.74268,264.83175 458.74268,264.83175 C 458.74268,264.83175 464.57768,265.66532 465.68911,263.72032 C 466.80054,261.77532 467.35626,254.55102 467.35626,254.55102 C 467.35626,254.55102 469.0234,253.16174 471.52412,254.82888 C 474.02484,256.49603 475.96984,257.3296 474.85841,260.10817 C 473.74698,262.88675 471.52412,264.83175 471.52412,264.83175 C 471.52412,264.83175 475.13627,265.94318 477.63698,263.16461 C 480.1377,260.38603 483.74985,255.66245 482.63842,253.71745 C 481.52699,251.77245 479.30413,248.71602 479.30413,248.71602 C 479.30413,248.71602 482.63842,247.32673 483.74985,249.27173 C 484.86128,251.21673 485.74953,254.55251 484.58342,256.49603 C 484.41492,256.66601 488.19557,255.66245 488.75128,253.99531 C 492.07813,248.33773 490.69628,240.38029 489.86271,238.99101 C 489.02914,237.60172 492.70341,240.21329 493.69953,244.04712 C 494.5848,247.88096 492.91914,250.66102 492.91914,250.66102 C 492.91914,250.66102 495.41986,250.93888 495.97558,247.60459 C 496.53129,244.2703 495.41986,236.76815 496.80915,235.65672 C 498.19844,234.54529 502.64416,230.09957 502.64416,230.09957 L 499.86558,205.92597 L 489.02914,202.86954 z"
               id="path8156"
               sodipodi:nodetypes="cccccccccccccccccccccccccccccccccccc" />
            <path
               style="fill:#fcb825;fill-opacity:1;fill-rule:nonzero;stroke:#000000;stroke-width:1.88896836;stroke-miterlimit:4;stroke-dasharray:none;stroke-dashoffset:0;stroke-opacity:1"
               d="M 457.30195,314.22356 C 458.46902,313.10658 458.56078,311.29042 457.50105,310.18319 C 457.2067,309.87563 451.45279,305.01865 448.39789,306.08847 C 448.40725,306.10068 454.02145,309.88809 453.27929,314.22376 C 454.339,315.33099 456.13486,315.34055 457.30195,314.22356 z"
               id="path12023"
               sodipodi:nodetypes="ccccc" />
            <path
               style="fill:#fcb825;fill-opacity:1;fill-rule:nonzero;stroke:#000000;stroke-width:1.88896836;stroke-miterlimit:4;stroke-dasharray:none;stroke-dashoffset:0;stroke-opacity:1"
               d="M 448.93241,325.36648 C 449.13683,323.67942 448.06554,322.65325 446.54523,323.08833 C 446.12293,323.20919 438.59475,326.1686 436.89325,329.62611 C 436.9082,329.62352 443.65489,326.24395 445.80574,329.19107 C 447.32605,328.75599 448.72798,327.05354 448.93241,325.36648 z"
               id="path12025"
               sodipodi:nodetypes="ccccc" />
            <path
               style="fill:#fcb825;fill-opacity:1;fill-rule:nonzero;stroke:#000000;stroke-width:1.88896836;stroke-miterlimit:4;stroke-dasharray:none;stroke-dashoffset:0;stroke-opacity:1"
               d="M 477.46453,342.4245 C 479.0774,342.51589 480.32668,343.8373 480.23997,345.36749 C 480.21589,345.79252 478.99501,353.22267 475.97726,354.39321 C 475.97645,354.37785 477.78574,347.85173 474.40557,345.03688 C 474.49228,343.50671 475.85164,342.33311 477.46453,342.4245 z"
               id="path12029"
               sodipodi:nodetypes="ccccc" />
            <path
               style="fill:#fcb825;fill-opacity:1;fill-rule:nonzero;stroke:#000000;stroke-width:1.88896836;stroke-miterlimit:4;stroke-dasharray:none;stroke-dashoffset:0;stroke-opacity:1"
               d="M 456.05039,339.57149 C 456.75931,341.02309 456.2175,342.75897 454.84032,343.43154 C 454.45778,343.61836 447.37948,346.18649 444.88284,344.12646 C 444.89584,344.11824 451.47327,342.50542 452.27587,338.18053 C 453.65304,337.50796 455.34146,338.11988 456.05039,339.57149 z"
               id="path12027"
               sodipodi:nodetypes="ccccc" />
            <path
               style="fill:#fcb825;fill-opacity:1;fill-rule:evenodd;stroke:#000000;stroke-width:1.88896836;stroke-linecap:butt;stroke-linejoin:miter;stroke-miterlimit:4;stroke-dasharray:none;stroke-opacity:1"
               d="M 477.36875,314.86534 C 477.36875,314.86534 468.27042,316.03932 466.50945,318.09378 C 462.04588,305.14877 449.11624,311.49749 453.53334,320.31394 C 443.64746,319.11794 443.89339,335.51527 453.96086,332.54667 C 446.26789,343.78893 461.92128,345.27169 464.23546,336.34852 C 471.33195,333.98648 473.91902,349.70794 477.91394,347.27899 C 481.90886,344.85004 479.49505,338.88081 480.10314,335.43319 C 481.71736,330.15029 486.90732,321.61571 486.90732,321.61571 L 477.36875,314.86534 z"
               id="path12021"
               sodipodi:nodetypes="ccccczccc" />
            <path
               style="fill:#fcb825;fill-opacity:1;fill-rule:evenodd;stroke:#000000;stroke-width:1.88896836;stroke-linecap:butt;stroke-linejoin:miter;stroke-miterlimit:4;stroke-dasharray:none;stroke-opacity:1"
               d="M 532.57992,244.44356 C 532.57992,244.44356 511.65256,247.43318 507.38167,251.27698 C 503.11078,255.12078 503.11078,257.25623 498.83989,257.68332 C 494.569,258.11041 485.43278,260.71298 484.15152,267.9735 C 482.87025,275.23401 482.27582,281.54794 479.74819,285.70898 C 478.22464,290.5394 483.46469,297.82968 482.61051,302.95475 C 481.75633,308.07981 474.92291,314.91324 474.49582,316.62159 C 474.06873,318.32995 469.37075,324.30919 470.65202,329.43426 C 471.93329,334.55933 472.97226,334.11479 472.97226,334.11479 C 472.97226,334.11479 471.93329,333.27806 473.64164,329.86135 C 475.35,326.44464 477.14202,336.26768 477.05835,336.26768 C 476.97468,336.26768 477.05835,334.13224 479.62089,331.99679 C 482.18342,329.86135 486.02722,329.00717 486.02722,329.00717 C 486.02722,329.00717 488.58976,326.01755 488.58976,330.71553 C 488.58976,335.41351 486.8814,338.83022 486.8814,338.83022 C 486.8814,338.83022 494.14191,336.26768 494.14191,332.85097 C 494.14191,329.43426 494.14191,324.73628 494.14191,324.73628 C 494.14191,324.73628 497.43132,327.53597 498.4128,330.71553 C 499.91533,326.13125 495.85027,325.59046 497.55862,323.02793 C 499.26698,320.46539 502.68369,324.73628 501.82951,329.43426 C 500.97534,334.13224 498.4128,335.84059 498.4128,335.84059 C 498.4128,335.84059 504.81914,335.84059 505.67331,329.00717 C 506.52749,322.17375 506.95458,320.89248 506.95458,320.89248 L 511.65256,323.02793 C 511.65256,323.02793 511.65256,320.89248 509.9442,319.18413 C 508.23585,317.47577 509.9442,313.20488 509.9442,313.20488 C 509.9442,313.20488 515.06927,314.05906 515.06927,316.62159 C 515.06927,319.18413 514.64218,323.45501 514.64218,323.45501 L 514.21509,326.01755 C 514.21509,326.01755 518.1306,324.36718 518.91307,322.17375 C 519.67485,320.03831 521.38321,313.15253 519.34016,309.78817 C 517.29711,306.42381 513.36092,304.23601 513.36092,304.23601 C 513.36092,304.23601 518.48598,308.5069 521.47561,305.09019 C 524.46523,301.67348 524.03814,300.8193 524.03814,300.8193 L 519.76725,300.8193 C 519.76725,300.8193 518.91307,295.26714 516.35054,295.26714 C 513.788,295.26714 513.788,295.26714 513.788,295.26714 L 512.93383,282.77172 C 512.93383,282.77172 517.70676,279.61475 520.69638,280.46892 C 523.686,281.3231 525.74649,278.18359 527.88194,276.04814 C 530.01738,273.9127 531.29865,276.04814 533.86118,275.62105 C 536.42372,275.19396 543.25714,270.92307 543.25714,270.92307 L 541.1217,245.72483 L 532.57992,244.44356 z"
               id="path6638"
               sodipodi:nodetypes="cccccccccczcccccccccccccccccczzccccccccccccc" />
            <path
               style="fill:#fcb825;fill-opacity:1;fill-rule:nonzero;stroke:#000000;stroke-width:1.88896836;stroke-miterlimit:4;stroke-dasharray:none;stroke-dashoffset:0;stroke-opacity:1"
               d="M 579.06952,337.02318 C 579.7361,335.55167 579.14425,333.8322 577.74816,333.1998 C 577.36038,333.02413 570.21067,330.66206 567.77474,332.79353 C 567.78797,332.80137 574.40935,334.22304 575.33686,338.52287 C 576.73293,339.15528 578.40291,338.49472 579.06952,337.02318 z"
               id="path12793"
               sodipodi:nodetypes="ccccc" />
            <path
               style="fill:#fcb825;fill-opacity:1;fill-rule:nonzero;stroke:#000000;stroke-width:1.88896836;stroke-miterlimit:4;stroke-dasharray:none;stroke-dashoffset:0;stroke-opacity:1"
               d="M 581.70971,350.98436 C 580.40384,350.03337 578.6001,350.26442 577.69786,351.50337 C 577.44725,351.84749 573.68509,358.37006 575.2786,361.18744 C 575.28895,361.17607 578.02315,354.98026 582.42173,354.94351 C 583.32397,353.70459 583.01558,351.93539 581.70971,350.98436 z"
               id="path13563"
               sodipodi:nodetypes="ccccc" />
            <path
               style="fill:#fcb825;fill-opacity:1;fill-rule:nonzero;stroke:#000000;stroke-width:1.88896836;stroke-miterlimit:4;stroke-dasharray:none;stroke-dashoffset:0;stroke-opacity:1"
               d="M 595.74582,357.64132 C 594.34768,358.45055 593.82893,360.19346 594.5967,361.51995 C 594.80994,361.8884 599.25173,367.96854 602.473,367.65167 C 602.46679,367.6376 597.90774,362.6297 599.65439,358.59261 C 598.88665,357.26614 597.14401,356.83209 595.74582,357.64132 z"
               id="path13565"
               sodipodi:nodetypes="ccccc" />
            <path
               style="fill:#fcb825;fill-opacity:1;fill-rule:nonzero;stroke:#000000;stroke-width:1.88896836;stroke-miterlimit:4;stroke-dasharray:none;stroke-dashoffset:0;stroke-opacity:1"
               d="M 609.23076,353.3596 C 607.83262,354.16883 607.31387,355.91174 608.08164,357.23823 C 608.29488,357.60668 612.73667,363.68682 615.95794,363.36995 C 615.95173,363.35588 611.39268,358.34798 613.13933,354.31089 C 612.37159,352.98442 610.62895,352.55037 609.23076,353.3596 z"
               id="path13567"
               sodipodi:nodetypes="ccccc" />
            <path
               style="fill:#fcb825;fill-opacity:1;fill-rule:evenodd;stroke:#000000;stroke-width:1.88896836;stroke-linecap:butt;stroke-linejoin:miter;stroke-miterlimit:4;stroke-dasharray:none;stroke-opacity:1"
               d="M 599.01386,325.34997 C 599.01386,325.34997 587.41522,332.86716 586.89727,335.52301 C 574.49537,328.59817 568.6395,339.37124 580.09263,344.10766 C 572.40891,352.83672 583.22208,359.51507 590.51387,351.96547 C 589.36982,365.53976 603.7793,362.05306 601.38923,353.14992 C 606.14535,359.06983 611.53731,357.38329 613.26462,354.33821 C 614.97646,351.32041 612.71312,345.18918 611.54089,341.89043 C 610.3382,336.49893 610.6412,326.5148 610.6412,326.5148 L 599.01386,325.34997 z"
               id="path12801"
               sodipodi:nodetypes="ccccczccc" />
            <path
               style="fill:#fcb825;fill-opacity:1;fill-rule:evenodd;stroke:#000000;stroke-width:1.88896836;stroke-linecap:butt;stroke-linejoin:miter;stroke-miterlimit:4;stroke-dasharray:none;stroke-opacity:1"
               d="M 594.3198,243.3836 C 594.57071,236.85995 583.54808,229.45049 578.7808,227.1923 C 574.01352,224.93412 574.17348,228.25118 570.66075,226.74573 C 567.14802,225.24027 561.3771,218.46571 561.3771,218.46571 C 561.3771,218.46571 568.40256,220.97481 571.9153,219.21844 C 575.42803,217.46207 570.91166,204.66569 568.65347,205.16751 C 566.39529,205.66933 559.45473,204.43853 559.70647,200.76683 C 559.90311,197.89878 560.12255,202.15659 562.88255,201.15296 C 565.64256,200.14932 566.39529,195.63295 568.65347,197.1384 C 570.91166,198.64386 572.41711,199.39659 572.41711,199.39659 C 572.41711,199.39659 569.90802,195.13113 571.66439,192.87294 C 573.42075,190.61476 576.68258,186.60021 575.42803,183.08747 C 574.17348,179.57474 570.66754,179.18556 573.09145,175.21304 C 573.42811,178.57958 582.21578,176.81995 580.69136,185.3278 C 582.19682,186.83326 595.50079,164.77108 595.50079,164.77108 C 595.50079,164.77108 595.24988,151.47288 597.00625,148.96378 C 598.76261,146.45469 596.00261,151.47288 598.5117,153.48015 C 601.0208,155.48743 604.03171,151.97469 602.77716,149.21469 C 601.52262,146.45469 597.75897,130.8983 599.76625,127.38556 C 601.77353,123.87283 601.77353,117.60009 599.76625,115.59282 C 597.75897,113.58554 608.04626,118.60373 609.80263,123.1201 C 611.559,127.63647 615.08382,118.98298 614.91866,113.67073 C 617.76124,113.7462 619.33719,114.58918 619.5881,118.35282 C 619.83901,122.11646 618.08264,127.88738 618.08264,127.88738 L 625.60993,122.36737 C 626.50897,121.70807 624.16548,123.54882 624.28172,127.54497 C 624.53263,131.81043 619.08628,131.14921 620.34083,134.16012 C 621.59538,137.17103 625.23068,136.797 625.36534,137.40298 C 625.36534,138.00895 623.85356,141.93831 619.33719,143.69468 C 614.82082,145.45105 613.81718,158.74925 609.80263,163.01471 C 605.78808,167.28017 603.66898,174.74472 605.15534,175.65291 C 606.61221,176.54308 601.0208,177.31655 599.26443,176.31292 C 597.50806,175.30928 586.21714,189.86203 586.46805,195.13113 C 586.71896,200.40023 588.47532,219.97117 590.98442,221.47663 C 593.49351,222.98208 594.65054,224.50583 597.41054,229.0222 C 600.17055,233.53857 594.06889,249.90725 594.3198,243.3836 z"
               id="path15101"
               sodipodi:nodetypes="cccccczccccccccccccccccccccccczccccc" />
            <path
               style="fill:#fcb825;fill-opacity:1;fill-rule:evenodd;stroke:#000000;stroke-width:1.88896836;stroke-linecap:butt;stroke-linejoin:miter;stroke-miterlimit:4;stroke-dasharray:none;stroke-opacity:1"
               d="M 599.19066,156.94591 C 599.19066,156.94591 597.68951,158.79349 599.19066,161.10295 C 600.69181,163.41241 601.26918,166.87661 599.8835,168.95513 C 598.49782,171.03365 598.49782,171.03365 598.49782,171.03365"
               id="path18208" />
            <path
               style="fill:#fcb825;fill-opacity:1;fill-rule:evenodd;stroke:#000000;stroke-width:1.88896836;stroke-linecap:butt;stroke-linejoin:miter;stroke-miterlimit:4;stroke-dasharray:none;stroke-opacity:1"
               d="M 603.11675,174.15143 C 603.11675,174.15143 601.50012,172.76575 599.53708,173.80501 C 597.57403,174.84426 594.80268,175.999 593.76342,175.42163 C 592.72416,174.84426 592.72416,174.84426 592.72416,174.84426"
               id="path18210" />
            <path
               style="fill:#fcb825;fill-opacity:1;fill-rule:evenodd;stroke:#000000;stroke-width:1.88896836;stroke-linecap:butt;stroke-linejoin:miter;stroke-miterlimit:4;stroke-dasharray:none;stroke-opacity:1"
               d="M 575.22629,266.91913 C 591.41833,272.41831 596.19222,268.50002 605.94645,276.23529 C 607.4519,279.99893 604.55147,287.3737 604.55147,287.3737 C 604.55147,287.3737 616.44055,284.60362 615.1209,274.41391 C 614.36217,268.55538 591.64461,263.18799 591.64461,263.18799 C 591.64461,263.18799 597.20139,257.09779 598.00885,254.63866 C 598.88862,251.95931 600.83731,230.0127 605.60459,227.75451 C 610.37187,225.49633 610.21191,228.81339 613.72464,227.30794 C 617.23737,225.80248 623.00829,219.02792 623.00829,219.02792 C 623.00829,219.02792 615.98283,221.53702 612.47009,219.78065 C 608.95736,218.02428 613.47373,205.2279 615.73192,205.72972 C 617.9901,206.23154 624.93066,205.00074 624.67892,201.32904 C 624.48228,198.46099 624.26284,202.7188 621.50284,201.71517 C 618.74283,200.71153 617.9901,196.19516 615.73192,197.70061 C 613.47373,199.20607 611.96828,199.9588 611.96828,199.9588 C 611.96828,199.9588 614.47737,195.69334 612.721,193.43515 C 610.96464,191.17697 607.70281,187.16242 608.95736,183.64968 C 610.21191,180.13695 614.64577,179.97975 612.22186,176.00723 C 611.8852,179.37377 602.16961,177.38216 603.69403,185.89001 C 602.18857,187.39547 588.8846,165.33329 588.8846,165.33329 C 588.8846,165.33329 589.13551,152.03509 587.37914,149.52599 C 585.62278,147.0169 588.38278,152.03509 585.87369,154.04236 C 583.36459,156.04964 580.35368,152.5369 581.60823,149.7769 C 582.86277,147.0169 586.62642,131.46051 584.61914,127.94777 C 582.61186,124.43504 582.61186,118.1623 584.61914,116.15503 C 586.62642,114.14775 576.33913,119.16594 574.58276,123.68231 C 572.82639,128.19868 569.30157,119.54519 569.46673,114.23294 C 566.62415,114.30841 565.0482,115.15139 564.79729,118.91503 C 564.54638,122.67867 566.30275,128.44959 566.30275,128.44959 L 558.77546,122.92958 C 557.87642,122.27028 560.21991,124.11103 560.10367,128.10718 C 559.85276,132.37264 565.29911,131.71142 564.04456,134.72233 C 562.79001,137.73324 559.15471,137.35921 559.02005,137.96519 C 559.02005,138.57116 560.53183,142.50052 565.0482,144.25689 C 569.56457,146.01326 570.56821,159.31146 574.58276,163.57692 C 578.59731,167.84238 580.43063,173.74932 578.07095,174.85147 C 575.83458,175.89603 583.36459,177.87876 585.12096,176.87513 C 586.87733,175.87149 598.16825,190.42424 597.91734,195.69334 C 597.66643,200.96244 595.91007,220.53338 593.40097,222.03884 C 590.89188,223.54429 593.40097,244.62069 590.64097,249.13706 C 587.88096,253.65343 583.7853,260.05666 571.36986,251.13186 C 563.84257,248.62276 575.22629,266.91913 575.22629,266.91913 z"
               id="path15099"
               sodipodi:nodetypes="cccsczccccczccccccccccccccccccccccczcccccc" />
            <path
               style="fill:#fcb825;fill-opacity:1;fill-rule:evenodd;stroke:#000000;stroke-width:1.88896836;stroke-linecap:butt;stroke-linejoin:miter;stroke-miterlimit:4;stroke-dasharray:none;stroke-opacity:1"
               d="M 530.00048,249.78414 C 524.0897,258.22812 508.89054,251.75441 507.20174,257.10226"
               id="path19941"
               sodipodi:nodetypes="cc" />
            <path
               style="fill:#fcb825;fill-opacity:1;fill-rule:evenodd;stroke:#000000;stroke-width:1.88896836;stroke-linecap:butt;stroke-linejoin:miter;stroke-miterlimit:4;stroke-dasharray:none;stroke-opacity:1"
               d="M 542.11939,266.85322 C 542.11939,266.85322 532.38361,263.57269 532.27779,260.71545 C 532.17197,257.85821 532.48944,252.99033 531.53703,251.29715 C 530.58461,249.60397 520.2139,240.82061 520.2139,240.82061 C 520.2139,240.82061 535.55832,246.74673 537.88644,249.39232 C 540.21456,252.03791 547.41057,259.33975 546.77563,261.03292 C 546.14069,262.7261 542.11939,266.85322 542.11939,266.85322 z"
               id="path1556" />
            <path
               style="fill:#fcb825;fill-opacity:1;fill-rule:evenodd;stroke:#000000;stroke-width:1.88896836;stroke-linecap:butt;stroke-linejoin:miter;stroke-miterlimit:4;stroke-dasharray:none;stroke-opacity:1"
               d="M 528.57396,245.79431 C 535.76996,249.28649 531.64285,260.18634 539.89709,263.46687"
               id="path2316"
               sodipodi:nodetypes="cc" />
            <path
               style="fill:#fcb825;fill-opacity:1;fill-rule:evenodd;stroke:#000000;stroke-width:1.88896836;stroke-linecap:butt;stroke-linejoin:miter;stroke-miterlimit:4;stroke-dasharray:none;stroke-opacity:1"
               d="M 489.238,171.75331 C 489.238,171.75331 483.28981,174.7274 478.82868,176.00201 C 474.36754,177.27662 470.11884,176.42688 470.11884,176.42688 C 470.11884,176.42688 476.06702,180.88802 478.61624,181.10045 C 481.16546,181.31289 474.36754,182.79993 473.94267,184.49941 C 473.5178,186.19889 482.86494,185.98646 482.86494,185.98646 C 482.86494,185.98646 486.68877,191.72221 482.22764,192.99682 C 477.7665,194.27143 476.91676,194.6963 476.91676,194.6963 C 476.91676,194.6963 483.92712,198.52013 487.75095,197.03308 C 491.57478,195.54604 490.08774,197.88282 490.08774,197.88282 C 490.08774,197.88282 481.01209,208.92124 481.16546,209.56675 C 481.30466,210.15262 490.29884,207.49184 490.51261,208.07971 C 490.63336,208.41178 487.32608,210.84136 487.96339,214.24032 C 488.60069,217.63929 484.16303,222.3587 481.18894,222.14627 C 480.10888,222.27819 483.71468,227.83617 487.11364,224.86208 C 490.51261,221.88799 492.6621,231.2955 492.85498,231.42409 C 492.98412,231.51018 495.33488,228.51485 495.39861,228.47348 C 497.09809,225.07451 499.01001,233.14705 499.01001,233.14705 C 509.42716,242.18672 523.0012,237.12294 528.32605,242.70663 C 533.6509,248.29032 540.43485,252.90351 539.58511,258.42682 C 538.73537,263.95013 536.18615,269.04858 539.79755,274.78432 C 544.35595,281.72536 549.14133,288.92468 556.15505,290.29208 C 559.72507,309.73884 577.57074,302.5876 580.37265,311.11072 C 587.90962,313.00475 587.99795,313.01593 589.97248,317.41445 C 587.81458,326.37586 593.96849,331.07962 592.90632,332.35423 C 591.84414,333.62884 593.11875,336.81537 594.39336,337.66511 C 595.66797,338.51485 594.39336,335.54076 595.66797,334.26615 C 596.94258,332.99154 595.45554,338.08998 598.42963,339.78946 C 601.40372,341.48894 599.70424,341.70137 600.12911,337.45267 C 600.55398,333.20397 603.31564,340.6392 606.07729,341.2765 C 608.83895,341.91381 606.50216,340.42676 606.50216,336.3905 C 606.50216,332.35423 606.50216,335.75319 610.53843,336.60293 C 614.57469,337.45267 619.03583,339.36458 618.61096,342.12624 C 618.18609,344.88789 624.34671,339.57702 621.37262,335.75319 C 618.39853,331.92936 609.26382,325.34387 611.17573,326.19361 C 613.08765,327.04335 621.79749,330.86719 623.49697,330.22988 C 616.65624,325.60063 619.11745,321.06611 619.4607,317.90865 C 620.92315,316.90349 624.77158,322.36978 624.77158,321.09517 C 624.77158,319.82056 625.51733,314.26147 620.73531,310.47342 C 625.5956,307.63238 629.63298,298.96055 624.98401,295.60296 C 624.037,299.5632 626.68461,303.26739 619.67425,303.9047 C 612.6639,304.542 603.59516,288.95374 595.66797,286.89312 C 592.90632,286.46825 590.17373,279.17614 586.77476,279.38857 C 583.3758,279.60101 581.22239,267.3491 579.73534,265.22474 C 578.2483,263.10039 572.93742,250.56672 570.3882,248.86724 C 567.83898,247.16776 562.31566,236.54601 558.2794,235.05896 C 554.24313,233.57192 545.32086,226.13669 546.59547,219.76364 C 547.87008,213.39058 556.57992,204.25588 556.57992,204.25588 L 531.06289,173.50872 L 489.238,171.75331 z"
               id="path2821"
               sodipodi:nodetypes="cccccccccczzccczcczccccccccccccczccccccccccccccccc" />
            <path
               style="fill:#fcb825;fill-opacity:1;fill-rule:evenodd;stroke:#000000;stroke-width:1.88896836;stroke-linecap:butt;stroke-linejoin:miter;stroke-miterlimit:4;stroke-dasharray:none;stroke-opacity:1"
               d="M 496.95995,150.71372 C 496.95995,150.71372 491.05271,152.27108 490.08607,154.68767 C 489.11943,157.10427 491.16012,161.99118 495.7785,162.6356 C 499.43025,163.17262 521.34074,164.24667 525.85172,161.13194 C 530.3627,158.01721 530.57751,155.65432 530.57751,155.65432 C 515.30778,159.61065 503.29681,154.52657 501.68574,155.86913 C 500.07468,157.21168 496.36691,157.12251 495.24148,155.54691 C 494.16744,154.04325 496.95995,150.71372 496.95995,150.71372 z"
               id="path14339"
               sodipodi:nodetypes="czccczzc" />
            <path
               style="fill:#fcb825;fill-opacity:1;fill-rule:nonzero;stroke:#000000;stroke-width:1.88896836;stroke-miterlimit:4;stroke-dasharray:none;stroke-dashoffset:0;stroke-opacity:1"
               d="M 511.33903,149.47011 C 510.15086,149.19582 508.97279,149.91785 508.7203,151.07968 C 508.65016,151.40238 508.00402,157.2137 509.95067,158.72936 C 509.95441,158.71805 509.98765,153.45724 513.01842,152.07191 C 513.27091,150.9101 512.52722,149.74443 511.33903,149.47011 z"
               id="path14335"
               sodipodi:nodetypes="ccccc" />
            <path
               style="fill:#fcb825;fill-opacity:1;fill-rule:nonzero;stroke:#000000;stroke-width:1.88896836;stroke-miterlimit:4;stroke-dasharray:none;stroke-dashoffset:0;stroke-opacity:1"
               d="M 515.31337,163.04736 C 514.1252,163.32165 512.94713,162.59962 512.69464,161.43779 C 512.6245,161.11509 511.97836,155.30377 513.92501,153.78811 C 513.92875,153.79942 513.96199,159.06023 516.99276,160.44556 C 517.24525,161.60737 516.50156,162.77304 515.31337,163.04736 z"
               id="path14337"
               sodipodi:nodetypes="ccccc" />
            <path
               style="fill:#fcb825;fill-opacity:1;fill-rule:evenodd;stroke:#000000;stroke-width:1.88896836;stroke-linecap:butt;stroke-linejoin:miter;stroke-miterlimit:4;stroke-dasharray:none;stroke-opacity:1"
               d="M 520.78125,131.7587 L 505.1875,134.8212 L 505,138.03995 C 500.81705,139.94129 502.06655,151.8748 506.375,151.60245 L 517.15625,151.91495 C 517.15623,151.91496 518.12728,148.50343 520.21875,148.8837 C 522.28497,149.25938 528.37464,149.83629 530.65625,153.2587 C 527.61408,159.34299 525.71947,157.05012 521.15625,158.5712 C 516.59302,160.09227 517.355,162.95674 511.46085,161.24553 C 508.85989,160.49042 507.82643,160.7695 504.65625,159.66495 C 504.58444,159.69433 504.50873,159.69183 504.4375,159.72745 C 501.82955,161.03143 500.67395,164.83381 501.34375,165.8837 C 503.89854,166.39101 498.47693,165.4209 497.78125,165.97745 C 495.87991,167.49853 491.86746,169.61562 490.15625,168.66495 C 488.44506,167.71427 485.78125,164.66495 485.78125,164.66495 C 485.40099,164.47482 483.33321,165.98464 484.09375,169.97745 C 484.93112,174.37363 493.40344,175.31907 495.6875,175.3212 C 497.96345,175.32333 508.33239,172.8804 508.5,172.85245 L 508.5,172.8837 C 508.30245,172.99555 506.34292,177.96392 496.0625,181.3837 C 498.15397,184.04558 506.53125,183.10245 506.53125,183.10245 C 506.53124,183.10245 494.90362,195.07347 495.09375,197.16495 C 495.28387,199.25642 493.96875,203.13223 493.96875,204.0087 C 493.96875,204.67417 505.16028,198.24408 504.8125,198.6962 C 502.91116,201.16794 500.6359,212.58401 497.59375,213.91495 C 494.5516,215.2459 493.84089,223.45412 494.15625,223.78995 C 494.65562,224.32174 502.90451,215.83381 503.28125,216.1337 C 503.7322,216.49267 504.64877,229.27431 505.00299,229.88178 C 505.11097,230.06697 508.21839,227.4183 510.5,222.66495 C 510.65452,222.34303 512.48738,217.71622 512.90625,216.72745 C 512.90625,216.72745 512.98682,227.40969 513.9375,227.78995 C 514.88817,228.17022 516.78127,220.9413 516.78125,219.03995 C 516.02071,216.18794 521.36219,203.45865 520.03125,207.0712 C 518.70031,210.68375 521.92996,217.1465 520.21875,218.47745 C 518.50755,219.80839 521.90854,232.34455 524,232.91495 C 524.95068,218.65489 532.29046,214.19859 531.625,207.2587 C 530.56751,217.95434 537.49471,225.88897 537.875,225.5087 C 537.68487,225.5087 539.22404,207.61527 538.84375,208.9462 C 538.46349,210.27714 544.16119,217.70902 546.0625,219.03995 C 547.96384,220.37089 553.87499,218.66495 553.875,218.66495 C 553.875,218.66495 550.92225,215.77693 550.4375,212.3837 C 549.86709,208.39089 557.09147,204.7903 556.52107,204.02977 C 555.95067,203.26924 553.68413,195.66232 558.4375,195.85245 C 561.66978,195.09191 562.23949,198.51398 563,198.1337 C 563.76053,197.75343 563.18785,190.70183 560.90625,188.03995 C 558.79908,185.58158 558.24472,175.89387 558.625,177.41495 C 559.00527,178.93603 564.87726,181.97481 566.96875,182.16495 C 569.06023,182.35508 570.78917,185.56629 571.16942,184.61562 C 571.54969,183.66495 569.46123,179.88143 567.75,177.78995 C 566.03879,175.69848 564.33059,173.78804 565.28125,169.41495 C 566.23192,165.04187 561.66909,162.76924 563,162.0087 C 564.52106,160.48762 569.06778,166.38405 569.06777,166.38406 C 568.87764,160.29977 564.32827,154.1962 563.1875,154.1962 C 562.0467,154.1962 561.28234,143.16531 554.05723,139.93303 C 551.58549,138.79223 556.32867,135.7696 551.19504,131.20638 L 520.78125,131.7587 z"
               id="path1431"
               sodipodi:nodetypes="ccccczccccccccczzccccczzczzzcccccccccccczccczccccccccccc" />
            <path
               sodipodi:nodetypes="cccccccccccccccc"
               id="path1444"
               d="M 522.3125,122.60245 C 523.45329,124.5038 525.15625,125.4462 525.15625,125.4462 C 525.15626,125.4462 527.62799,126.96691 525.15625,127.72745 C 522.68452,128.48798 518.4921,129.63933 519.0625,126.97745 C 519.63291,124.31557 522.47438,122.3995 519.8125,121.2587 C 517.15061,120.11789 510.5,118.78995 510.5,118.78995 C 510.5,118.78995 517.43487,128.49781 517.625,131.53995 C 518.5364,131.85702 540.6173,131.85791 541.53125,131.53995 C 541.72138,128.49781 548.65628,118.78995 548.65625,118.78995 C 548.65625,118.78995 541.97436,120.11789 539.3125,121.2587 C 536.65062,122.3995 539.52337,124.31557 540.09375,126.97745 C 540.66415,129.63933 536.47176,128.48798 534,127.72745 C 531.52826,126.96691 534.00002,125.4462 534,125.4462 C 534,125.4462 535.70293,124.5038 536.84375,122.60245 C 537.98456,120.70111 529.45255,112.8212 529.45254,112.8212 C 529.45254,112.8212 521.17169,120.70111 522.3125,122.60245 z"
               style="fill:#fcb825;fill-opacity:1;fill-rule:evenodd;stroke:#000000;stroke-width:1.88896836;stroke-linecap:butt;stroke-linejoin:miter;stroke-miterlimit:4;stroke-dasharray:none;stroke-opacity:1" />
            <path
               style="fill:#fcb825;fill-opacity:1;fill-rule:evenodd;stroke:#000000;stroke-width:1.88896836;stroke-linecap:butt;stroke-linejoin:miter;stroke-miterlimit:4;stroke-dasharray:none;stroke-opacity:1"
               d="M 439.97836,239.76924 C 439.97836,239.76924 448.60634,237.28667 450.31433,240.44645"
               id="path11232"
               sodipodi:nodetypes="cc" />
            <path
               style="fill:#fcb825;fill-opacity:1;fill-rule:evenodd;stroke:#000000;stroke-width:1.88896836;stroke-linecap:butt;stroke-linejoin:miter;stroke-miterlimit:4;stroke-dasharray:none;stroke-opacity:1"
               d="M 442.538,252.03584 C 442.538,252.03584 450.89651,250.58871 450.89651,245.97714"
               id="path11234"
               sodipodi:nodetypes="cc" />
            <path
               style="fill:#fcb825;fill-opacity:1;fill-rule:evenodd;stroke:#000000;stroke-width:1.88896836;stroke-linecap:butt;stroke-linejoin:miter;stroke-miterlimit:4;stroke-dasharray:none;stroke-opacity:1"
               d="M 448.58403,233.73309 C 447.68186,229.50034 443.29506,228.93858 442.44107,228.59698"
               id="path11236"
               sodipodi:nodetypes="cc" />
            <path
               style="fill:#fcb825;fill-opacity:1;fill-rule:evenodd;stroke:#000000;stroke-width:1.88896836;stroke-linecap:butt;stroke-linejoin:miter;stroke-miterlimit:4;stroke-dasharray:none;stroke-opacity:1"
               d="M 593.93487,339.18517 C 593.93487,339.18517 593.29174,341.75771 589.3043,342.85104 C 585.31687,343.94437 582.6157,343.6228 582.6157,343.6228"
               id="path14327" />
            <path
               style="fill:#fcb825;fill-opacity:1;fill-rule:evenodd;stroke:#000000;stroke-width:1.88896836;stroke-linecap:butt;stroke-linejoin:miter;stroke-miterlimit:4;stroke-dasharray:none;stroke-opacity:1"
               d="M 600.40431,351.34413 C 599.63032,349.90671 598.40509,347.14975 600.21948,345.18918 C 602.40238,342.83041 607.53435,345.82404 607.23919,341.23934"
               id="path14329"
               sodipodi:nodetypes="csc" />
            <path
               style="fill:#fcb825;fill-opacity:1;fill-rule:evenodd;stroke:#000000;stroke-width:1.88896836;stroke-linecap:butt;stroke-linejoin:miter;stroke-miterlimit:4;stroke-dasharray:none;stroke-opacity:1"
               d="M 591.55527,349.47533 L 595.60702,340.47144"
               id="path14331" />
            <path
               style="fill:#fcb825;fill-opacity:1;fill-rule:evenodd;stroke:#000000;stroke-width:1.88896836;stroke-linecap:butt;stroke-linejoin:miter;stroke-miterlimit:4;stroke-dasharray:none;stroke-opacity:1"
               d="M 589.53416,233.96191 L 593.21565,234.97952 L 593.71765,224.69037 L 590.20352,222.65515 L 589.53416,233.96191 z"
               id="path17400"
               sodipodi:nodetypes="ccccc" />
            <path
               style="fill:#fcb825;fill-opacity:1;fill-rule:evenodd;stroke:#000000;stroke-width:1.88896836;stroke-linecap:butt;stroke-linejoin:miter;stroke-miterlimit:4;stroke-dasharray:none;stroke-opacity:1"
               d="M 480.07048,246.88618 C 480.07048,246.88618 475.9692,242.67406 475.52582,239.34871 C 475.08244,236.02335 477.96442,230.03771 477.96442,230.03771"
               id="path8158"
               sodipodi:nodetypes="ccc" />
            <path
               style="fill:#fcb825;fill-opacity:1;fill-rule:evenodd;stroke:#000000;stroke-width:1.88896836;stroke-linecap:butt;stroke-linejoin:miter;stroke-miterlimit:4;stroke-dasharray:none;stroke-opacity:1"
               d="M 465.21722,251.20914 C 465.21722,251.20914 462.2244,245.33435 464.99553,245.66688 C 467.76666,245.99942 469.87271,247.10787 469.76187,245.55604 C 469.65102,244.00421 465.54975,240.56801 468.32088,236.68842 C 471.09201,232.80884 471.53539,232.47631 471.53539,232.47631"
               id="path8162" />
            <path
               id="path2056"
               d="M 522.19199,176.62982 C 522.19199,176.62982 512.6419,181.67516 512.46171,185.45916 C 512.28152,189.24316 513.18247,192.30639 513.18247,192.30639 C 513.18247,192.30639 513.54285,189.96392 514.98437,189.06297 C 516.4259,188.16201 525.07504,183.83744 525.07504,183.83744"
               style="fill:#fcb825;fill-opacity:1;fill-rule:evenodd;stroke:#000000;stroke-width:1.88896836;stroke-linecap:butt;stroke-linejoin:miter;stroke-miterlimit:4;stroke-dasharray:none;stroke-opacity:1" />
            <path
               id="path2058"
               d="M 538.40914,163.65611 C 538.40914,163.65611 535.16571,169.06182 536.06666,171.22411 C 536.96761,173.38639 536.24685,185.63935 533.72418,188.3422 C 531.20152,191.04506 527.23733,197.35173 527.41752,199.6942 C 527.59771,202.03668 524.35428,196.45078 524.89485,193.74792 C 525.43542,191.04506 517.14666,190.86487 515.52495,193.20735 C 513.90323,195.54982 509.75885,202.21687 510.83999,207.98297 C 511.92114,213.74906 512.10133,213.74906 512.10133,213.74906"
               style="fill:#fcb825;fill-opacity:1;fill-rule:evenodd;stroke:#000000;stroke-width:1.88896836;stroke-linecap:butt;stroke-linejoin:miter;stroke-miterlimit:4;stroke-dasharray:none;stroke-opacity:1" />
            <path
               id="path2062"
               d="M 550.66209,213.92925 C 550.66209,213.92925 545.61675,211.58678 546.15733,207.62258 C 546.6979,203.65839 549.04037,196.27059 546.51771,193.74792 C 543.99504,191.22525 543.99504,191.22525 543.99504,191.22525"
               style="fill:#fcb825;fill-opacity:1;fill-rule:evenodd;stroke:#000000;stroke-width:1.88896836;stroke-linecap:butt;stroke-linejoin:miter;stroke-miterlimit:4;stroke-dasharray:none;stroke-opacity:1" />
            <path
               id="path2064"
               d="M 556.96875,195.36963 C 555.88761,195.36963 553.54514,196.45078 552.46399,191.40544 C 551.38285,186.36011 550.12152,185.09878 547.95923,185.09878 C 545.79694,185.09878 545.79694,185.09878 545.79694,185.09878"
               style="fill:#fcb825;fill-opacity:1;fill-rule:evenodd;stroke:#000000;stroke-width:1.88896836;stroke-linecap:butt;stroke-linejoin:miter;stroke-miterlimit:4;stroke-dasharray:none;stroke-opacity:1" />
            <path
               id="path2066"
               d="M 541.29218,168.52125 C 541.29218,168.52125 542.9139,175.90906 546.6979,176.9902 C 550.4819,178.07135 551.38285,180.59401 551.38285,180.59401 C 551.38285,180.59401 553.90552,179.15249 551.20266,176.26944 C 548.4998,173.38639 549.04037,168.70144 547.05828,167.44011 C 545.07618,166.17878 552.2838,166.89954 553.54514,169.96278 C 554.80647,173.02601 555.34704,173.92697 555.34704,173.92697 C 555.34704,173.92697 556.78856,174.10716 556.24799,169.78259 C 555.70742,165.45801 551.38285,159.15135 548.13942,159.33154 C 544.89599,159.51173 548.31961,156.44849 548.31961,156.44849 C 548.31961,156.44849 553.72533,156.2683 554.08571,158.2504 C 554.44609,160.23249 555.16685,149.78144 553.18475,149.42106 C 551.20266,149.06068 551.02247,139.69078 551.02247,139.69078"
               style="fill:#fcb825;fill-opacity:1;fill-rule:evenodd;stroke:#000000;stroke-width:1.88896836;stroke-linecap:butt;stroke-linejoin:miter;stroke-miterlimit:4;stroke-dasharray:none;stroke-opacity:1" />
            <path
               id="path2068"
               d="M 540.03085,190.14411 C 540.03085,190.14411 540.21104,197.8923 537.86856,199.87439 C 535.52609,201.85649 538.58933,205.4603 538.58933,205.4603"
               style="fill:#fcb825;fill-opacity:1;fill-rule:evenodd;stroke:#000000;stroke-width:1.88896836;stroke-linecap:butt;stroke-linejoin:miter;stroke-miterlimit:4;stroke-dasharray:none;stroke-opacity:1" />
            <path
               id="path2070"
               d="M 505.0739,212.12735 C 508.17003,210.15709 504.23081,200.33605 509.86013,197.52139"
               style="fill:#fcb825;fill-opacity:1;fill-rule:evenodd;stroke:#000000;stroke-width:1.88896836;stroke-linecap:butt;stroke-linejoin:miter;stroke-miterlimit:4;stroke-dasharray:none;stroke-opacity:1"
               sodipodi:nodetypes="cc" />
            <path
               id="path2074"
               d="M 525.61561,188.52239 C 525.61561,188.52239 526.51656,185.09878 528.31847,184.37801 C 530.12037,183.65725 529.75999,179.69306 528.85904,176.9902 C 527.95809,174.28735 529.39961,170.14297 529.39961,170.14297"
               style="fill:#fcb825;fill-opacity:1;fill-rule:evenodd;stroke:#000000;stroke-width:1.88896836;stroke-linecap:butt;stroke-linejoin:miter;stroke-miterlimit:4;stroke-dasharray:none;stroke-opacity:1" />
            <path
               id="path2076"
               d="M 503.99275,167.98068 C 503.99275,167.98068 505.61447,169.24201 508.8579,169.60239 C 512.10133,169.96278 515.16456,168.34106 518.2278,167.07973 C 521.29104,165.81839 521.29104,165.81839 521.29104,165.81839"
               style="fill:#fcb825;fill-opacity:1;fill-rule:evenodd;stroke:#000000;stroke-width:1.88896836;stroke-linecap:butt;stroke-linejoin:miter;stroke-miterlimit:4;stroke-dasharray:none;stroke-opacity:1" />
            <path
               style="fill:#fcb825;fill-opacity:1;fill-rule:evenodd;stroke:#000000;stroke-width:1.88896836;stroke-linecap:butt;stroke-linejoin:miter;stroke-miterlimit:4;stroke-dasharray:none;stroke-opacity:1"
               d="M 598.61812,313.92993 C 598.61812,313.92993 596.76253,322.16364 602.09111,321.88944 C 607.41968,321.61522 606.30974,322.23973 608.96627,324.69644"
               id="path3581"
               sodipodi:nodetypes="ccc" />
            <path
               style="fill:#fcb825;fill-opacity:1;fill-rule:evenodd;stroke:#000000;stroke-width:1.88896836;stroke-linecap:butt;stroke-linejoin:miter;stroke-miterlimit:4;stroke-dasharray:none;stroke-opacity:1"
               d="M 617.58575,318.11592 C 617.58575,318.11592 613.25712,319.14112 612.34583,315.15423 C 611.43454,311.16733 612.23192,307.97781 611.20672,307.74999 C 610.18151,307.52217 610.18151,307.63608 610.18151,307.63608"
               id="path3583"
               sodipodi:nodetypes="cccc" />
            <path
               style="fill:#fcb825;fill-opacity:1;fill-rule:evenodd;stroke:#000000;stroke-width:1.88896836;stroke-linecap:butt;stroke-linejoin:miter;stroke-miterlimit:4;stroke-dasharray:none;stroke-opacity:1"
               d="M 604.87261,325.98873 C 604.87261,325.98873 603.37144,327.9903 603.57159,329.79171 C 603.77175,331.59311 603.77175,333.29444 603.77175,333.29444 C 599.56847,332.99421 598.86792,325.08803 598.86792,325.08803 C 598.86792,325.08803 595.96565,325.88866 595.76549,327.58999 C 595.56534,329.29131 595.46526,330.39217 595.46526,330.39217 C 595.46526,330.39217 592.46291,326.28897 593.46369,324.28741 C 594.46448,322.28584 594.66463,322.28584 594.66463,322.28584"
               id="path3599"
               sodipodi:nodetypes="cccccccc" />
            <path
               style="fill:#fcb825;fill-opacity:1;fill-rule:evenodd;stroke:#000000;stroke-width:1.88896836;stroke-linecap:butt;stroke-linejoin:miter;stroke-miterlimit:4;stroke-dasharray:none;stroke-opacity:1"
               d="M 549.50828,258.2486 C 549.50828,258.2486 552.58388,261.3242 551.44477,264.39981 C 550.30566,267.47542 551.90042,272.03187 551.90042,272.03187 C 551.90042,272.03187 551.33086,266.56413 552.81171,266.22239 C 554.29255,265.88066 556.57078,271.46231 556.00122,272.82925 C 555.43167,274.19619 556.00122,279.55002 557.48207,280.68913 C 558.96292,281.82824 559.64639,281.94216 559.64639,281.94216 C 559.64639,281.94216 557.70989,279.43611 558.16554,277.27179 C 558.62118,275.10748 558.62118,275.10748 558.62118,275.10748"
               id="path3589" />
            <path
               style="fill:#fcb825;fill-opacity:1;fill-rule:evenodd;stroke:#000000;stroke-width:1.88896836;stroke-linecap:butt;stroke-linejoin:miter;stroke-miterlimit:4;stroke-dasharray:none;stroke-opacity:1"
               d="M 540.05364,235.80807 C 540.05364,235.80807 543.81271,236.03589 544.724,240.70625 C 545.63529,245.37662 544.95182,250.95827 543.6988,251.86956 C 542.44577,252.78085 540.62319,252.43912 540.62319,252.43912 C 540.62319,252.43912 541.76231,255.74255 544.38227,255.2869 C 547.00223,254.83126 549.7361,249.47743 549.7361,249.47743"
               id="path3591" />
            <path
               style="fill:#fcb825;fill-opacity:1;fill-rule:evenodd;stroke:#000000;stroke-width:1.88896836;stroke-linecap:butt;stroke-linejoin:miter;stroke-miterlimit:4;stroke-dasharray:none;stroke-opacity:1"
               d="M 561.39726,285.9402 C 561.39726,285.9402 560.21703,291.25125 561.20056,292.82489 C 562.18408,294.39853 561.98738,295.18536 561.98738,295.18536 C 561.98738,295.18536 563.36431,293.80842 562.7742,291.64466 C 562.18408,289.4809 566.70831,291.25125 566.90501,294.00512 C 567.10172,296.759 567.10172,296.759 567.10172,296.759"
               id="path3593" />
            <path
               style="fill:#fcb825;fill-opacity:1;fill-rule:evenodd;stroke:#000000;stroke-width:1.88896836;stroke-linecap:butt;stroke-linejoin:miter;stroke-miterlimit:4;stroke-dasharray:none;stroke-opacity:1"
               d="M 511.23902,304.01394 C 511.23902,304.01394 507.89213,303.8466 506.55337,302.50784 C 505.21461,301.16908 506.21868,294.30793 506.21868,294.30793 C 506.21868,294.30793 500.86364,299.66297 500.69629,300.83439 C 500.52895,302.0058 498.35346,313.71995 507.55744,312.21384"
               id="path8928"
               sodipodi:nodetypes="ccccc" />
            <path
               style="fill:#fcb825;fill-opacity:1;fill-rule:evenodd;stroke:#000000;stroke-width:1.88896836;stroke-linecap:butt;stroke-linejoin:miter;stroke-miterlimit:4;stroke-dasharray:none;stroke-opacity:1"
               d="M 496.68001,318.74031 C 496.68001,318.74031 495.84329,316.23013 492.32904,316.39748 C 488.8148,316.56482 487.97807,309.70367 489.48418,307.1935 C 490.99028,304.68332 493.16577,301.00173 493.16577,301.00173"
               id="path8930" />
            <path
               style="fill:#fcb825;fill-opacity:1;fill-rule:evenodd;stroke:#000000;stroke-width:1.88896836;stroke-linecap:butt;stroke-linejoin:miter;stroke-miterlimit:4;stroke-dasharray:none;stroke-opacity:1"
               d="M 474.92516,326.43818 C 474.92516,326.43818 474.08843,323.42597 476.43126,319.74438 C 478.7741,316.06279 482.28834,317.06686 483.96179,314.89137 C 485.63524,312.71588 485.4679,312.38119 485.4679,312.38119"
               id="path8932" />
            <path
               style="fill:#fcb825;fill-opacity:1;fill-rule:evenodd;stroke:#000000;stroke-width:1.88896836;stroke-linecap:butt;stroke-linejoin:miter;stroke-miterlimit:4;stroke-dasharray:none;stroke-opacity:1"
               d="M 579.04557,123.9432 C 579.52122,130.50705 578.37968,130.03141 575.14532,129.55576 C 575.4307,132.31448 580.28225,138.40269 574.85994,149.72295"
               id="path18160"
               sodipodi:nodetypes="ccc" />
            <path
               style="fill:#fcb825;fill-opacity:1;fill-rule:evenodd;stroke:#000000;stroke-width:1.88896836;stroke-linecap:butt;stroke-linejoin:miter;stroke-miterlimit:4;stroke-dasharray:none;stroke-opacity:1"
               d="M 574.28917,141.44679 C 574.28917,141.44679 575.81122,136.50013 573.24276,133.93166 C 570.67429,131.3632 568.96199,130.03141 569.43763,127.55807 C 569.91327,125.08474 569.81814,124.70423 569.81814,124.70423"
               id="path18162" />
            <path
               style="fill:#fcb825;fill-opacity:1;fill-rule:evenodd;stroke:#000000;stroke-width:1.88896836;stroke-linecap:butt;stroke-linejoin:miter;stroke-miterlimit:4;stroke-dasharray:none;stroke-opacity:1"
               d="M 572.19635,145.1568 C 572.19635,145.1568 570.10352,142.11269 566.58378,141.44679 C 563.06403,140.7809 562.30301,138.11731 562.30301,138.11731"
               id="path18164" />
            <path
               style="fill:#fcb825;fill-opacity:1;fill-rule:evenodd;stroke:#000000;stroke-width:1.88896836;stroke-linecap:butt;stroke-linejoin:miter;stroke-miterlimit:4;stroke-dasharray:none;stroke-opacity:1"
               d="M 605.07843,123.66798 C 604.60278,130.23183 605.74432,129.75619 608.97868,129.28054 C 608.6933,132.03926 603.84175,138.12747 609.26406,149.44773"
               id="path18173"
               sodipodi:nodetypes="ccc" />
            <path
               style="fill:#fcb825;fill-opacity:1;fill-rule:evenodd;stroke:#000000;stroke-width:1.88896836;stroke-linecap:butt;stroke-linejoin:miter;stroke-miterlimit:4;stroke-dasharray:none;stroke-opacity:1"
               d="M 609.83483,141.17157 C 609.83483,141.17157 608.31278,136.22491 610.88124,133.65644 C 613.44971,131.08798 615.16201,129.75619 614.68637,127.28285 C 614.21073,124.80952 614.30586,124.42901 614.30586,124.42901"
               id="path18175" />
            <path
               style="fill:#fcb825;fill-opacity:1;fill-rule:evenodd;stroke:#000000;stroke-width:1.88896836;stroke-linecap:butt;stroke-linejoin:miter;stroke-miterlimit:4;stroke-dasharray:none;stroke-opacity:1"
               d="M 611.92765,144.88158 C 611.92765,144.88158 614.02048,141.83747 617.54022,141.17157 C 621.05997,140.50568 621.82099,137.84209 621.82099,137.84209"
               id="path18177" />
            <path
               style="fill:#fcb825;fill-opacity:1;fill-rule:evenodd;stroke:#000000;stroke-width:1.88896836;stroke-linecap:butt;stroke-linejoin:miter;stroke-miterlimit:4;stroke-dasharray:none;stroke-opacity:1"
               d="M 574.78091,201.34437 C 574.78091,201.34437 578.9298,201.34437 579.40852,205.97198 C 579.88724,210.59959 577.1745,215.2272 580.04681,216.02506 C 582.91912,216.82292 582.75955,216.82292 582.75955,216.82292"
               id="path18179" />
            <path
               style="fill:#fcb825;fill-opacity:1;fill-rule:evenodd;stroke:#000000;stroke-width:1.88896836;stroke-linecap:butt;stroke-linejoin:miter;stroke-miterlimit:4;stroke-dasharray:none;stroke-opacity:1"
               d="M 580.6851,187.46154 C 580.6851,187.46154 577.65322,187.62112 577.81279,190.33385 C 577.97236,193.04659 582.4404,193.52531 582.75955,195.44018 C 583.07869,197.35505 583.07869,197.35505 583.07869,197.35505"
               id="path18181" />
            <path
               style="fill:#fcb825;fill-opacity:1;fill-rule:evenodd;stroke:#000000;stroke-width:1.88896836;stroke-linecap:butt;stroke-linejoin:miter;stroke-miterlimit:4;stroke-dasharray:none;stroke-opacity:1"
               d="M 578.29151,224.80156 C 578.29151,224.80156 579.24895,221.92925 582.28083,222.72711 C 585.31271,223.52498 583.55741,226.39729 586.11057,227.03558 C 588.66374,227.67387 588.66374,227.67387 588.66374,227.67387"
               id="path18183" />
            <path
               style="fill:#fcb825;fill-opacity:1;fill-rule:evenodd;stroke:#000000;stroke-width:1.88896836;stroke-linecap:butt;stroke-linejoin:miter;stroke-miterlimit:4;stroke-dasharray:none;stroke-opacity:1"
               d="M 610.25409,201.43141 C 610.25409,201.43141 606.1052,201.43141 605.62648,206.05902 C 605.14776,210.68663 607.8605,215.31424 604.98819,216.1121 C 602.11588,216.90996 602.27545,216.90996 602.27545,216.90996"
               id="path18192" />
            <path
               style="fill:#fcb825;fill-opacity:1;fill-rule:evenodd;stroke:#000000;stroke-width:1.88896836;stroke-linecap:butt;stroke-linejoin:miter;stroke-miterlimit:4;stroke-dasharray:none;stroke-opacity:1"
               d="M 604.3499,187.54858 C 604.3499,187.54858 607.38178,187.70816 607.22221,190.42089 C 607.06264,193.13363 602.5946,193.61235 602.27545,195.52722 C 601.95631,197.44209 601.95631,197.44209 601.95631,197.44209"
               id="path18194" />
            <path
               style="fill:#fcb825;fill-opacity:1;fill-rule:evenodd;stroke:#000000;stroke-width:1.88896836;stroke-linecap:butt;stroke-linejoin:miter;stroke-miterlimit:4;stroke-dasharray:none;stroke-opacity:1"
               d="M 606.74349,224.8886 C 606.74349,224.8886 605.78605,222.01629 602.75417,222.81415 C 599.72229,223.61202 601.47759,226.48433 598.92443,227.12262 C 596.37126,227.76091 596.37126,227.76091 596.37126,227.76091"
               id="path18196" />
            <path
               style="fill:#fcb825;fill-opacity:1;fill-rule:evenodd;stroke:#000000;stroke-width:1.88896836;stroke-linecap:butt;stroke-linejoin:miter;stroke-miterlimit:4;stroke-dasharray:none;stroke-opacity:1"
               d="M 585.21834,157.02305 C 585.21834,157.02305 586.71949,158.87063 585.21834,161.18009 C 583.71719,163.48955 583.13982,166.95375 584.5255,169.03227 C 585.91118,171.11079 585.91118,171.11079 585.91118,171.11079"
               id="path18198" />
            <path
               style="fill:#fcb825;fill-opacity:1;fill-rule:evenodd;stroke:#000000;stroke-width:1.88896836;stroke-linecap:butt;stroke-linejoin:miter;stroke-miterlimit:4;stroke-dasharray:none;stroke-opacity:1"
               d="M 581.29225,174.22857 C 581.29225,174.22857 582.90888,172.84289 584.87192,173.88215 C 586.83497,174.9214 589.60632,176.07614 590.64558,175.49877 C 591.68484,174.9214 591.68484,174.9214 591.68484,174.9214"
               id="path18200" />
            <path
               style="fill:#fcb825;fill-opacity:1;fill-rule:evenodd;stroke:#000000;stroke-width:1.88896836;stroke-linecap:butt;stroke-linejoin:miter;stroke-miterlimit:4;stroke-dasharray:none;stroke-opacity:1"
               d="M 455.47454,154.25771 C 455.47454,154.25771 454.09849,158.38588 455.99056,161.99803 C 457.88264,165.61017 463.73088,169.39433 463.73088,169.39433 C 463.73088,169.39433 461.8388,169.05031 461.8388,165.78218 C 461.8388,162.51405 468.20306,163.8901 467.68704,165.78218 C 467.17102,167.67426 465.10693,170.08235 466.13898,171.80242 C 467.17102,173.52249 470.43915,173.6945 470.43915,173.6945 C 470.43915,173.6945 468.03105,172.14644 468.71908,170.42637 C 469.40711,168.7063 473.36327,170.25436 473.36327,170.25436"
               id="path18212" />
            <path
               style="fill:#fcb825;fill-opacity:1;fill-rule:evenodd;stroke:#000000;stroke-width:1.88896836;stroke-linecap:butt;stroke-linejoin:miter;stroke-miterlimit:4;stroke-dasharray:none;stroke-opacity:1"
               d="M 501.69236,260.61559 C 501.69236,260.61559 500.66246,264.99269 504.39586,264.349 C 508.12927,263.70531 509.28791,262.03171 509.28791,262.03171 C 509.28791,262.03171 508.00053,269.36978 499.37507,268.59735 C 505.03955,275.163 496.02788,278.12397 496.02788,278.12397 C 496.02788,278.12397 496.80031,277.8665 497.444,276.06416 C 498.08769,274.26183 494.86924,273.10319 494.86924,273.10319 C 494.86924,273.10319 491.0071,274.13309 491.39331,275.67795 C 491.77953,277.22281 494.22555,276.32164 494.22555,276.32164 C 494.22555,276.32164 485.72883,281.85738 486.63,275.42047 C 487.27369,273.74688 487.91738,270.91464 486.75874,270.7859"
               id="path18216"
               sodipodi:nodetypes="ccccccccccc" />
            <path
               style="fill:#fcb825;fill-opacity:1;fill-rule:evenodd;stroke:#000000;stroke-width:1.88896836;stroke-linecap:butt;stroke-linejoin:miter;stroke-miterlimit:4;stroke-dasharray:none;stroke-opacity:1"
               d="M 456.92561,194.47027 C 459.16984,187.88719 468.446,187.88719 467.24908,183.39873"
               id="path18405"
               sodipodi:nodetypes="cc" />
            <path
               style="fill:#fcb825;fill-opacity:1;fill-rule:evenodd;stroke:#000000;stroke-width:1.88896836;stroke-linecap:butt;stroke-linejoin:miter;stroke-miterlimit:4;stroke-dasharray:none;stroke-opacity:1"
               d="M 463.95753,204.49451 C 463.95753,204.49451 462.46138,202.5495 463.05984,201.05335 C 463.6583,199.5572 468.74523,198.21066 468.59561,195.51758 C 468.446,192.8245 468.59561,192.8245 468.59561,192.8245"
               id="path18407" />
            <path
               style="fill:#fcb825;fill-opacity:1;fill-rule:evenodd;stroke:#000000;stroke-width:1.88896836;stroke-linecap:butt;stroke-linejoin:miter;stroke-miterlimit:4;stroke-dasharray:none;stroke-opacity:1"
               d="M 452.73637,188.48565 C 456.77599,182.50103 461.86292,186.54065 460.51638,178.91026"
               id="path18409"
               sodipodi:nodetypes="cc" />
            <path
               style="fill:#fcb825;fill-opacity:1;fill-rule:evenodd;stroke:#000000;stroke-width:1.88896836;stroke-linecap:butt;stroke-linejoin:miter;stroke-miterlimit:4;stroke-dasharray:none;stroke-opacity:1"
               d="M 447.79907,181.1545 C 450.34253,174.27219 455.72869,177.4141 455.27984,169.33487"
               id="path18411"
               sodipodi:nodetypes="cc" />
            <path
               style="fill:#fcb825;fill-opacity:1;fill-rule:evenodd;stroke:#000000;stroke-width:1.88896836;stroke-linecap:butt;stroke-linejoin:miter;stroke-miterlimit:4;stroke-dasharray:none;stroke-opacity:1"
               d="M 450.49214,170.53179 C 449.74406,164.24794 443.75944,169.03564 441.81444,165.14564 C 439.86944,161.25564 442.86175,159.75948 445.55483,154.97179 C 448.24791,150.18409 444.80676,144.79794 444.80676,144.79794"
               id="path18413"
               sodipodi:nodetypes="cccc" />
            <path
               style="fill:#fcb825;fill-opacity:1;fill-rule:evenodd;stroke:#000000;stroke-width:1.88896836;stroke-linecap:butt;stroke-linejoin:miter;stroke-miterlimit:4;stroke-dasharray:none;stroke-opacity:1"
               d="M 460.21715,162.45256 C 456.32715,160.65717 456.92561,153.62525 456.92561,153.62525"
               id="path18415"
               sodipodi:nodetypes="cc" />
            <path
               style="fill:#fcb825;fill-opacity:1;fill-rule:evenodd;stroke:#000000;stroke-width:1.88896836;stroke-linecap:butt;stroke-linejoin:miter;stroke-miterlimit:4;stroke-dasharray:none;stroke-opacity:1"
               d="M 496.50603,260.47985 L 497.6319,264.42038 C 497.6319,264.42038 495.38017,266.39064 492.28404,265.54624 C 489.18792,264.70184 489.46938,268.3609 489.46938,268.3609"
               id="path19943" />
            <path
               style="fill:#fcb825;fill-opacity:1;fill-rule:evenodd;stroke:#000000;stroke-width:1.88896836;stroke-linecap:butt;stroke-linejoin:miter;stroke-miterlimit:4;stroke-dasharray:none;stroke-opacity:1"
               d="M 485.81033,304.95149 C 493.12844,294.81871 479.05514,292.56698 484.96593,281.87127"
               id="path19945"
               sodipodi:nodetypes="cc" />
            <path
               style="fill:#fcb825;fill-opacity:1;fill-rule:evenodd;stroke:#000000;stroke-width:1.88896836;stroke-linecap:butt;stroke-linejoin:miter;stroke-miterlimit:4;stroke-dasharray:none;stroke-opacity:1"
               d="M 505.23148,179.13618 C 527.18583,172.09953 519.27455,167.63134 533.06639,164.53521"
               id="path20706"
               sodipodi:nodetypes="cc" />
            <path
               style="fill:#fcb825;fill-opacity:1;fill-rule:evenodd;stroke:#000000;stroke-width:1.88896836;stroke-linecap:butt;stroke-linejoin:miter;stroke-miterlimit:4;stroke-dasharray:none;stroke-opacity:1"
               d="M 497.91336,197.71293 C 500.16509,190.67628 509.45346,193.77241 509.73493,185.89136"
               id="path21494"
               sodipodi:nodetypes="cc" />
            <path
               style="fill:#fcb825;fill-opacity:1;fill-rule:evenodd;stroke:#000000;stroke-width:1.88896836;stroke-linecap:butt;stroke-linejoin:miter;stroke-miterlimit:4;stroke-dasharray:none;stroke-opacity:1"
               d="M 515.08279,208.40864 C 515.08279,208.40864 513.95692,191.23922 522.96384,196.86854"
               id="path21496"
               sodipodi:nodetypes="cc" />
            <path
               style="fill:#fcb825;fill-opacity:1;fill-rule:evenodd;stroke:#000000;stroke-width:1.88896836;stroke-linecap:butt;stroke-linejoin:miter;stroke-miterlimit:4;stroke-dasharray:none;stroke-opacity:1"
               d="M 531.97075,201.37199 C 524.65264,194.6168 548.29578,188.14309 539.0074,168.159"
               id="path21498"
               sodipodi:nodetypes="cc" />
            <path
               style="fill:#fcb825;fill-opacity:1;fill-rule:evenodd;stroke:#000000;stroke-width:1.88896836;stroke-linecap:butt;stroke-linejoin:miter;stroke-miterlimit:4;stroke-dasharray:none;stroke-opacity:1"
               d="M 522.68237,221.07461 C 528.87462,212.34916 521.5565,203.90519 526.05996,201.65346"
               id="path24532"
               sodipodi:nodetypes="cc" />
            <path
               style="fill:#fcb825;fill-opacity:1;fill-rule:evenodd;stroke:#000000;stroke-width:1.88896836;stroke-linecap:butt;stroke-linejoin:miter;stroke-miterlimit:4;stroke-dasharray:none;stroke-opacity:1"
               d="M 553.9251,203.90519 C 544.35525,206.43838 558.71002,190.95775 544.07379,186.17283"
               id="path25292"
               sodipodi:nodetypes="cc" />
            <path
               style="fill:#fcb825;fill-opacity:1;fill-rule:evenodd;stroke:#000000;stroke-width:1.88896836;stroke-linecap:butt;stroke-linejoin:miter;stroke-miterlimit:4;stroke-dasharray:none;stroke-opacity:1"
               d="M 556.17682,160.84089 C 558.42855,172.381 562.65054,167.59607 563.49494,177.44738"
               id="path26052"
               sodipodi:nodetypes="cc" />
            <path
               style="fill:#fcb825;fill-opacity:1;fill-rule:evenodd;stroke:#000000;stroke-width:1.88896836;stroke-linecap:butt;stroke-linejoin:miter;stroke-miterlimit:4;stroke-dasharray:none;stroke-opacity:1"
               d="M 555.05096,145.64172 C 561.24321,150.14518 557.86562,159.43355 563.21347,158.58916"
               id="path26054"
               sodipodi:nodetypes="cc" />
            <path
               style="fill:#fcb825;fill-opacity:1;fill-rule:evenodd;stroke:#000000;stroke-width:1.88896836;stroke-linecap:butt;stroke-linejoin:miter;stroke-miterlimit:4;stroke-dasharray:none;stroke-opacity:1"
               d="M 542.10352,196.86854 C 542.10352,196.86854 538.72593,211.78623 549.14018,216.28969"
               id="path26814"
               sodipodi:nodetypes="cc" />
            <path
               style="fill:#fcb825;fill-opacity:1;fill-rule:evenodd;stroke:#000000;stroke-width:1.88896836;stroke-linecap:butt;stroke-linejoin:miter;stroke-miterlimit:4;stroke-dasharray:none;stroke-opacity:1"
               d="M 559.55442,191.23922 C 555.33243,192.92802 555.61389,181.3879 546.04405,180.26204"
               id="path27574"
               sodipodi:nodetypes="cc" />
            <path
               style="fill:#fcb825;fill-opacity:1;fill-rule:evenodd;stroke:#000000;stroke-width:1.88896836;stroke-linecap:butt;stroke-linejoin:miter;stroke-miterlimit:4;stroke-dasharray:none;stroke-opacity:1"
               d="M 495.33687,176.92053 C 489.74363,186.31716 480.57073,182.7375 479.00462,183.85615"
               id="path28428"
               sodipodi:nodetypes="cc" />
            <path
               style="fill:#fcb825;fill-opacity:1;fill-rule:evenodd;stroke:#000000;stroke-width:1.88896836;stroke-linecap:butt;stroke-linejoin:miter;stroke-miterlimit:4;stroke-dasharray:none;stroke-opacity:1"
               d="M 500.03518,185.19852 C 493.77075,194.81889 481.68937,194.59516 481.68937,194.59516"
               id="path28430"
               sodipodi:nodetypes="cc" />
            <path
               style="fill:#fcb825;fill-opacity:1;fill-rule:evenodd;stroke:#000000;stroke-width:1.88896836;stroke-linecap:butt;stroke-linejoin:miter;stroke-miterlimit:4;stroke-dasharray:none;stroke-opacity:1"
               d="M 484.82159,206.22908 C 490.41482,204.43925 492.87585,198.84601 492.87585,198.84601"
               id="path28432"
               sodipodi:nodetypes="cc" />
            <path
               style="fill:#fcb825;fill-opacity:1;fill-rule:evenodd;stroke:#000000;stroke-width:1.88896836;stroke-linecap:butt;stroke-linejoin:miter;stroke-miterlimit:4;stroke-dasharray:none;stroke-opacity:1"
               d="M 487.73007,220.54777 C 491.30974,208.91384 499.81146,209.13757 498.69281,204.66298"
               id="path28434"
               sodipodi:nodetypes="cc" />
            <path
               style="fill:#fcb825;fill-opacity:1;fill-rule:evenodd;stroke:#000000;stroke-width:1.88896836;stroke-linecap:butt;stroke-linejoin:miter;stroke-miterlimit:4;stroke-dasharray:none;stroke-opacity:1"
               d="M 480.66695,228.97491 C 488.46019,233.50002 478.6558,239.53349 487.706,247.32673"
               id="path29194"
               sodipodi:nodetypes="cc" />
            <path
               style="fill:#fcb825;fill-opacity:1;fill-rule:evenodd;stroke:#000000;stroke-width:1.88896836;stroke-linecap:butt;stroke-linejoin:miter;stroke-miterlimit:4;stroke-dasharray:none;stroke-opacity:1"
               d="M 473.6279,243.5558 C 472.37092,251.85184 480.41556,256.12555 477.39882,259.64507"
               id="path29196"
               sodipodi:nodetypes="cc" />
            <path
               style="fill:#fcb825;fill-opacity:1;fill-rule:evenodd;stroke:#000000;stroke-width:1.88896836;stroke-linecap:butt;stroke-linejoin:miter;stroke-miterlimit:4;stroke-dasharray:none;stroke-opacity:1"
               d="M 465.08047,258.3881 C 459.29839,252.85742 460.80676,245.56697 460.80676,245.56697"
               id="path29198"
               sodipodi:nodetypes="cc" />
            <path
               style="fill:#fcb825;fill-opacity:1;fill-rule:evenodd;stroke:#000000;stroke-width:1.88896836;stroke-linecap:butt;stroke-linejoin:miter;stroke-miterlimit:4;stroke-dasharray:none;stroke-opacity:1"
               d="M 455.27607,230.73467 C 465.58326,230.23188 472.11953,213.13703 481.16974,213.63982"
               id="path29958"
               sodipodi:nodetypes="cc" />
            <path
               style="fill:#fcb825;fill-opacity:1;fill-rule:evenodd;stroke:#000000;stroke-width:1.88896836;stroke-linecap:butt;stroke-linejoin:miter;stroke-miterlimit:4;stroke-dasharray:none;stroke-opacity:1"
               d="M 479.91277,325.00774 C 479.91277,325.00774 486.95182,319.47705 486.95182,315.95752 C 486.95182,312.438 488.2088,323.75077 494.99646,321.73961"
               id="path30718"
               sodipodi:nodetypes="ccc" />
            <path
               style="fill:#fcb825;fill-opacity:1;fill-rule:evenodd;stroke:#000000;stroke-width:1.88896836;stroke-linecap:butt;stroke-linejoin:miter;stroke-miterlimit:4;stroke-dasharray:none;stroke-opacity:1"
               d="M 503.29249,317.46589 C 490.47135,312.68939 502.03552,312.94079 496.25344,296.85152"
               id="path31478"
               sodipodi:nodetypes="cc" />
            <path
               style="fill:#fcb825;fill-opacity:1;fill-rule:evenodd;stroke:#000000;stroke-width:1.88896836;stroke-linecap:butt;stroke-linejoin:miter;stroke-miterlimit:4;stroke-dasharray:none;stroke-opacity:1"
               d="M 541.84611,258.8921 C 538.49979,265.32733 544.42021,279.48482 556.26102,287.72191"
               id="path32238"
               sodipodi:nodetypes="cc" />
            <path
               style="fill:#fcb825;fill-opacity:1;fill-rule:evenodd;stroke:#000000;stroke-width:1.88896836;stroke-linecap:butt;stroke-linejoin:miter;stroke-miterlimit:4;stroke-dasharray:none;stroke-opacity:1"
               d="M 564.75552,300.84978 C 572.99262,298.7905 582.51675,308.82946 582.51675,308.82946 C 582.51675,308.82946 593.07053,310.37391 592.04089,320.15546"
               id="path32998"
               sodipodi:nodetypes="ccc" />
            <path
               style="fill:#fcb825;fill-opacity:1;fill-rule:evenodd;stroke:#000000;stroke-width:1.88896836;stroke-linecap:butt;stroke-linejoin:miter;stroke-miterlimit:4;stroke-dasharray:none;stroke-opacity:1"
               d="M 579.42784,166.48223 C 572.22039,152.83955 586.12048,136.10797 582.77416,131.2172"
               id="path33941"
               sodipodi:nodetypes="cc" />
            <path
               style="fill:#fcb825;fill-opacity:1;fill-rule:evenodd;stroke:#000000;stroke-width:1.88896836;stroke-linecap:butt;stroke-linejoin:miter;stroke-miterlimit:4;stroke-dasharray:none;stroke-opacity:1"
               d="M 605.02522,164.80907 C 612.23267,151.16639 598.33258,134.43481 601.6789,129.54404"
               id="path34701"
               sodipodi:nodetypes="cc" />
            <path
               style="fill:#fcb825;fill-opacity:1;fill-rule:evenodd;stroke:#000000;stroke-width:1.88896836;stroke-linecap:butt;stroke-linejoin:miter;stroke-miterlimit:4;stroke-dasharray:none;stroke-opacity:1"
               d="M 576.08152,195.05464 C 587.40752,201.74728 580.45747,221.56777 589.46679,224.39927"
               id="path34705"
               sodipodi:nodetypes="cc" />
            <path
               style="fill:#fcb825;fill-opacity:1;fill-rule:evenodd;stroke:#000000;stroke-width:1.88896836;stroke-linecap:butt;stroke-linejoin:miter;stroke-miterlimit:4;stroke-dasharray:none;stroke-opacity:1"
               d="M 607.74284,195.82687 C 596.41684,202.51951 603.36689,222.34 594.35757,225.1715"
               id="path35465"
               sodipodi:nodetypes="cc" />
            <path
               sodipodi:nodetypes="cc"
               id="path2932"
               d="M 496.1488,160.98768 C 490.14952,159.06255 492.97008,154.31686 492.97008,154.31686"
               style="fill:#fcb825;fill-opacity:1;fill-rule:evenodd;stroke:#000000;stroke-width:1.88896836;stroke-linecap:butt;stroke-linejoin:miter;stroke-miterlimit:4;stroke-dasharray:none;stroke-opacity:1" />
            <path
               id="path5974"
               d="M 505.08443,138.26952 L 507.13541,139.83792 L 510.21188,139.11405"
               style="fill:#fcb825;fill-opacity:1;fill-rule:evenodd;stroke:#000000;stroke-width:1.88896836;stroke-linecap:butt;stroke-linejoin:miter;stroke-miterlimit:4;stroke-dasharray:none;stroke-opacity:1" />
            <path
               sodipodi:nodetypes="ccc"
               id="path5976"
               d="M 596.38677,249.1755 C 596.38677,249.1755 593.04285,262.21676 587.19101,262.21676 C 581.33916,262.21676 579.16562,260.712 579.16562,260.712"
               style="fill:#fcb825;fill-opacity:1;fill-rule:evenodd;stroke:#000000;stroke-width:1.88896836;stroke-linecap:butt;stroke-linejoin:miter;stroke-miterlimit:4;stroke-dasharray:none;stroke-opacity:1" />
            <path
               sodipodi:nodetypes="ccc"
               id="path6736"
               d="M 593.43038,267.26188 C 593.43038,267.26188 607.00712,267.63383 611.88283,274.15768 C 613.09076,280.31644 608.1262,283.60218 608.1262,283.60218"
               style="fill:#fcb825;fill-opacity:1;fill-rule:evenodd;stroke:#000000;stroke-width:1.88896836;stroke-linecap:butt;stroke-linejoin:miter;stroke-miterlimit:4;stroke-dasharray:none;stroke-opacity:1" />
            <path
               style="fill:#fcb825;fill-opacity:1;fill-rule:evenodd;stroke:#000000;stroke-width:1.88896836;stroke-linecap:butt;stroke-linejoin:miter;stroke-miterlimit:4;stroke-dasharray:none;stroke-opacity:1"
               d="M 532.18536,138.61199 L 522.10825,135.56985 C 522.10825,135.56985 521.91812,139.94293 524.96026,140.51333 C 528.00241,141.08373 531.99523,140.51334 532.18536,138.61199 z"
               id="path1442"
               sodipodi:nodetypes="cccc" />
          </g>
          <path
             sodipodi:nodetypes="ccccccccccccccc"
             id="path5020"
             d="M -7851.6087,-20.888609 L -7851.6087,506.89233 L -7851.1995,506.89233 L -7851.1995,516.01267 C -7847.1261,551.55439 -7815.0257,578.68576 -7776.8044,578.68574 L -7603.9858,578.51035 C -7603.0518,578.0294 -7582.1848,590.39054 -7572.0646,614.78707 L -7570.1938,614.79286 C -7558.9016,589.91471 -7537.9978,577.97019 -7538.3018,578.39342 L -7365.6001,578.21803 C -7328.0537,577.64865 -7294.976,551.3122 -7290.7666,516.33422 L -7290.7666,506.89233 L -7290.3573,506.89233 L -7290.3573,-20.888609 L -7851.6087,-20.888609 z"
             style="fill:#fcb825;fill-opacity:1;fill-rule:nonzero;stroke:#000000;stroke-width:26.88733768;stroke-miterlimit:4;stroke-dasharray:none;stroke-dashoffset:0;stroke-opacity:1" />
          <path
             sodipodi:nodetypes="cccccccccccccccccccccc"
             id="path21073"
             d="M -7611.3218,53.287492 C -7611.3218,53.767596 -7588.3846,130.16693 -7592.8664,174.9845 C -7634.0118,175.66991 -7684.0903,160.75483 -7710.9808,154.0322 C -7704.6025,189.40485 -7705.2227,201.09395 -7713.912,235.45303 C -7688.6535,230.43261 -7634.0362,215.77592 -7596.0146,216.45484 L -7597.4259,293.75035 C -7597.4259,293.75035 -7673.3609,294.0208 -7745.069,278.33467 C -7740.055,314.24926 -7738.4966,327.37538 -7745.2862,363.22947 C -7714.7331,361.7409 -7675.7871,347.55783 -7599.5971,345.31689 C -7600.8084,395.35567 -7601.7684,450.21446 -7601.7684,449.53555 L -7569.5257,450.51259 L -7534.2434,449.53555 C -7534.2434,450.21446 -7535.2034,395.35567 -7536.4146,345.31689 C -7460.2247,347.55783 -7421.3872,361.7409 -7390.8341,363.22947 C -7397.6237,327.37538 -7395.9567,314.24926 -7390.9427,278.33467 C -7462.6509,294.0208 -7538.6944,293.75035 -7538.6944,293.75035 L -7539.9971,216.45484 C -7501.9755,215.77592 -7447.4668,230.43261 -7422.2083,235.45303 C -7430.8976,201.09395 -7431.4092,189.40485 -7425.0309,154.0322 C -7451.9215,160.75483 -7502,175.66991 -7543.1454,174.9845 C -7547.6271,130.16693 -7524.7986,53.287492 -7524.7986,53.287492 C -7544.0023,60.008833 -7591.6379,60.008833 -7611.3218,53.287492 z"
             style="fill:#fcb825;fill-opacity:1;fill-rule:evenodd;stroke:#000000;stroke-width:26.88733768;stroke-linecap:butt;stroke-linejoin:miter;stroke-miterlimit:4;stroke-dasharray:none;stroke-opacity:1" />
          <path
             style="fill:#fcb825;fill-opacity:1;fill-rule:evenodd;stroke:#000000;stroke-width:26.88733768;stroke-linecap:butt;stroke-linejoin:miter;stroke-miterlimit:4;stroke-dasharray:none;stroke-opacity:1"
             d="M -7562.496,441.36376 C -7595.9405,441.09528 -7626.6778,453.84911 -7636.7111,494.98575 C -7656.2761,474.4174 -7666.3422,476.47475 -7678.3822,476.47475 C -7722.0368,475.97306 -7777.5258,578.41353 -7777.5258,578.41356 C -7777.5258,578.41355 -7688.2458,578.11367 -7602.1178,577.81459 C -7597.5941,580.03332 -7580.3776,592.59473 -7571.6903,613.53703 L -7570.6596,613.40458 C -7561.0421,592.21589 -7543.8845,580.15829 -7539.9755,577.83296 C -7539.9755,577.83296 -7360.334,576.89756 -7360.5579,576.6737 C -7360.1102,576.67367 -7414.7063,476.85726 -7458.3609,477.35894 C -7470.401,477.35891 -7480.3815,475.38718 -7499.9465,495.95551 C -7508.0593,462.69301 -7528.6108,441.63223 -7562.496,441.36376 z"
             id="path25641"
             sodipodi:nodetypes="cccccccccccc" />
          <g
             id="g1324"
             inkscape:groupmode="layer"
             inkscape:label="Layer 1"
             transform="translate(182.8562,94.86106)" />
        </g>
      </g>
    </g>
  </g>
</svg>
