<?xml version="1.0" encoding="utf-8"?>
<!-- Generator: Adobe Illustrator 19.1.0, SVG Export Plug-In . SVG Version: 6.00 Build 0)  -->
<svg version="1.1" id="Ebene_1" xmlns="http://www.w3.org/2000/svg" xmlns:xlink="http://www.w3.org/1999/xlink" x="0px" y="0px"
	 viewBox="-172 263.1 246 97.9" style="enable-background:new -172 263.1 246 97.9;" xml:space="preserve">
<style type="text/css">
	.st0{fill:#A11A16;}
</style>
<g>
	<g>
		<path class="st0" d="M-65.4,359.8c-1.8,0.5-3.6,0.8-5.5,0.8c-2.1,0-4.1-0.4-6-1.2c-1.9-0.8-3.6-2.1-5.1-3.7
			c-1.6-1.8-2.7-4-3.6-6.4c-0.8-2.5-1.1-5.2-1.1-7.9s0.4-5.3,1.2-7.8c0.8-2.5,1.9-4.5,3.4-6.3c1.4-1.8,3.1-3.1,5.1-4.1
			c1.9-1,4.1-1.5,6.3-1.5c1.8,0,3.6,0.3,5.2,0.8c1.6,0.5,3,1.2,4.4,2.3l-2.5,2.9c-1.1-0.8-2.3-1.5-3.4-1.8c-1.1-0.4-2.5-0.5-3.8-0.5
			c-2.2,0-4.1,0.5-5.6,1.6s-2.7,2.7-3.7,4.9c-0.5,1.2-1,2.7-1.2,4.4c-0.3,1.6-0.4,3.6-0.4,5.7c0,1.8,0,3.4,0.3,4.5
			c0.1,1.2,0.5,2.3,1,3.6c1,2.5,2.3,4.2,4.2,5.3c1.9,1.1,3.8,1.8,6,1.8c1.4,0,2.7-0.1,3.8-0.5s2.3-1,3.6-1.8l2.5,3
			C-61.8,358.5-63.5,359.2-65.4,359.8z"/>
		<path class="st0" d="M-36.3,361c-1-0.3-1.8-0.8-2.5-1.5c-0.7-0.7-1.1-1.6-1.4-2.6c-1.4,1.4-2.6,2.3-3.7,2.9
			c-1.2,0.5-2.6,0.8-4.1,0.8c-1.8,0-3.1-0.3-4.2-0.7c-1.1-0.5-2.1-1.1-2.7-1.8c-0.6-0.7-1.1-1.6-1.4-2.6c-0.3-1-0.4-1.8-0.4-2.7
			c0-3.1,1.2-5.6,3.8-7.2c2.6-1.8,6.2-2.6,10.8-2.6c0.5,0,1.2,0,1.9,0v-2c0-1.2,0-2.1-0.1-2.7s-0.3-1.1-0.8-1.6
			c-0.4-0.5-1-1-1.6-1.1c-0.5-0.3-1.4-0.4-2.2-0.4s-1.6,0-2.5,0.3c-0.8,0.1-1.6,0.4-2.5,0.7c-0.8,0.3-1.5,0.7-2.2,1.1
			s-1.2,0.8-1.8,1.2l-2.2-3.1c3.7-2.5,7.5-3.7,11.6-3.7c3.8,0,6.4,1.5,7.7,4.4c0.3,0.8,0.5,1.6,0.5,2.7s0,2.2,0,3.4l-0.1,9
			c0,1.1,0,2.1,0,2.7c0,0.8,0.1,1.4,0.3,1.8c0.1,0.5,0.4,1,0.7,1.2c0.3,0.2,0.7,0.7,1.2,1L-36.3,361z M-41.5,345.8
			c-0.3,0-0.7,0-1.1,0c-1.8,0-3.3,0.1-4.5,0.4c-1.2,0.3-2.2,0.7-3,1.2s-1.2,1.2-1.6,2.1c-0.4,0.8-0.5,1.8-0.5,2.7
			c0,3.3,1.6,4.9,4.8,4.9c1.4,0,2.7-0.4,4-1.2c1.2-0.8,2.2-1.8,2.7-3.1l0.1-7.1C-40.8,346-41.1,346-41.5,345.8z"/>
		<path class="st0" d="M-13.9,324.6c-0.5-0.3-1.1-0.5-1.9-0.8c-0.8-0.3-1.5-0.4-2.2-0.4c-2.5,0-3.7,1.6-3.7,4.8v4.2h7.7l-1.4,3.3
			h-6.3v24.2h-4.5v-24.2h-2.7v-3.3h2.7v-4.2c0-1,0.1-1.9,0.3-2.6c0.1-0.7,0.4-1.4,0.8-1.9c0.3-0.5,0.7-1,1-1.4
			c0.3-0.3,0.7-0.7,1-0.8c1.2-1,2.9-1.4,4.8-1.4c2.5,0,4.5,0.5,6.2,1.6L-13.9,324.6z"/>
		<path class="st0" d="M-6.9,346.9v0.7c0,1.2,0,2.5,0.3,3.4c0.1,1,0.5,1.8,1,2.6c0.8,1.2,1.8,2.1,3,2.6s2.5,0.8,4,0.8
			c2.6,0,4.9-1,6.8-2.6l1.6,2.7c-1.2,1.1-2.6,1.9-4.2,2.6c-1.6,0.5-3.3,1-5.1,1c-3.8,0-6.8-1.2-9-3.8s-3.3-6.2-3.3-10.8
			c0-2.3,0.3-4.2,0.8-5.9c0.5-1.6,1.4-3.1,2.6-4.5c2.2-2.6,4.9-3.8,8.2-3.8c3,0,5.6,1,7.5,3c0.5,0.7,1.1,1.2,1.5,1.9s0.8,1.5,1,2.3
			c0.3,1,0.4,1.9,0.5,3.1c0.1,1.2,0.1,2.6,0.1,4.2v0.7L-6.9,346.9L-6.9,346.9z M5.3,340c-0.1-1-0.5-1.8-1-2.5
			c-0.5-0.8-1.1-1.4-2.1-1.8S0.4,335-0.7,335c-4,0-6.2,2.9-6.3,8.6H5.6C5.7,342.1,5.5,340.9,5.3,340z"/>
	</g>
	<g>
		<path class="st0" d="M-145.9,289.9c0,3.4-0.4,6.2-1.2,8.5c-0.8,2.3-1.8,4.2-3.1,5.6c-0.8,1-1.8,1.6-2.6,2.3s-1.8,1.1-2.7,1.5
			c-1,0.4-1.9,0.7-3,0.8c-1.1,0.1-2.3,0.1-3.7,0.1h-9.8v-37.6h7.5c1.5,0,2.7,0,3.8,0c1.1,0,2.1,0.1,3,0.4c1,0.1,1.8,0.5,2.7,1
			c0.8,0.4,1.8,1,2.7,1.6c2.2,1.5,3.8,3.7,4.8,6.3C-146.4,283-145.9,286.2-145.9,289.9z M-150.8,290.3c0-2.7-0.3-5.2-0.7-7.1
			s-1.4-3.7-2.6-5.2c-0.7-0.8-1.2-1.4-1.9-1.8s-1.4-0.8-2.1-1c-0.7-0.3-1.5-0.4-2.3-0.5c-0.8,0-1.8-0.1-2.7-0.1h-4.5V305h4.5
			c1,0,1.9,0,2.9-0.1c1,0,1.8-0.3,2.7-0.5c0.8-0.3,1.6-0.7,2.3-1.2s1.4-1.2,1.8-2.1c0.8-1.5,1.5-3.1,1.9-4.9
			C-151.1,294.3-150.8,292.4-150.8,290.3z"/>
		<path class="st0" d="M-119.1,309.9c-1-0.3-1.8-0.8-2.5-1.5c-0.7-0.7-1.1-1.6-1.4-2.6c-1.4,1.4-2.6,2.3-3.7,2.9
			c-1.2,0.5-2.6,0.8-4.1,0.8c-1.8,0-3.1-0.3-4.2-0.7c-1-0.6-2-1.1-2.7-1.8c-0.7-0.8-1.1-1.6-1.4-2.6c-0.3-1-0.4-1.8-0.4-2.7
			c0-3.1,1.2-5.6,3.8-7.2c2.6-1.6,6.2-2.6,10.8-2.6c0.5,0,1.2,0,1.9,0V290c0-1.2,0-2.1-0.1-2.7c0-0.7-0.3-1.1-0.8-1.6
			c-0.4-0.5-1-1-1.6-1.1c-0.5-0.3-1.4-0.4-2.2-0.4c-0.8,0-1.6,0-2.5,0.3c-0.8,0.1-1.6,0.4-2.5,0.7c-0.8,0.3-1.5,0.7-2.2,1.1
			s-1.2,0.8-1.8,1.2l-2.2-3.1c3.7-2.5,7.5-3.7,11.6-3.7c3.8,0,6.4,1.5,7.7,4.4c0.3,0.8,0.5,1.6,0.5,2.7c0,1,0,2.2,0,3.4l-0.1,9
			c0,1.1,0,2.1,0,2.7c0,0.8,0.1,1.4,0.3,1.8c0.1,0.5,0.4,1,0.7,1.2c0.3,0.3,0.7,0.7,1.2,1L-119.1,309.9z M-124.3,294.7
			c-0.3,0-0.7,0-1.1,0c-1.8,0-3.3,0.1-4.5,0.4c-1.2,0.3-2.2,0.7-3,1.2c-0.8,0.5-1.2,1.2-1.6,2.1c-0.3,0.8-0.5,1.8-0.5,2.7
			c0,3.3,1.6,4.9,4.8,4.9c1.4,0,2.7-0.4,4-1.2c1.2-0.8,2.2-1.8,2.7-3.1l0.1-7.1C-123.5,294.9-123.9,294.9-124.3,294.7z"/>
		<path class="st0" d="M-99.1,284.6h-5.7v17.8c0,1.5,0.3,2.6,0.8,3.1s1.4,1,2.7,1c0.7,0,1.1,0,1.5-0.1c0.4,0,0.8-0.3,1.2-0.4
			l0.7,2.7c-1.4,0.8-3,1.1-4.9,1.1c-0.8,0-1.4,0-1.9-0.1s-1.1-0.3-1.6-0.5c-1-0.5-1.6-1.1-1.9-2.1c-0.4-1-0.5-2.1-0.5-3.4v-19h-3.6
			v-3.3h3.6c0-0.7,0-1.4,0-2.2c0-0.8,0-1.6,0.1-2.3c0-0.7,0.1-1.5,0.3-2.5l4.5-1c-0.1,1-0.1,1.8-0.3,2.6c0,0.8-0.1,1.6-0.1,2.6
			s0,1.8,0,2.7h6.7L-99.1,284.6z"/>
		<path class="st0" d="M-86.2,272.8c0,1-0.3,1.8-1,2.5s-1.4,1-2.3,1c-1,0-1.8-0.3-2.3-1s-1-1.4-1-2.3c0-0.9,0.3-1.8,1-2.5
			c0.7-0.7,1.4-1,2.3-1c1,0,1.8,0.3,2.3,1C-86.6,271.2-86.2,271.9-86.2,272.8z M-91.9,308.8v-27.3l4.5-0.7v28H-91.9z"/>
		<path class="st0" d="M-61.6,308.8v-18.5c0-0.8,0-1.4,0-1.8c0-0.4,0-1-0.1-1.2c-0.1-0.3-0.1-0.7-0.3-0.8c-0.1-0.3-0.3-0.4-0.4-0.7
			c-0.7-0.8-1.6-1.1-3-1.1c-0.5,0-1.1,0.1-1.8,0.3c-0.7,0.1-1.4,0.4-2.1,0.8c-0.7,0.3-1.4,0.8-2.1,1.2c-0.7,0.4-1.2,1-1.8,1.5v20.4
			h-4.1v-21.3c0-1.9-0.4-4-1.1-5.7l4.2-1.1c0,0,0.1,0.3,0.3,0.7c0.1,0.4,0.3,1,0.4,1.6c0.1,0.7,0.3,1.4,0.3,2.1
			c2.9-2.9,5.7-4.2,8.7-4.2c1.5,0,2.9,0.4,4.1,1.1c1.2,0.8,2.1,1.8,2.7,2.9c0.4,1,0.7,2.1,0.7,3.1v20.8h-4.6V308.8z"/>
		<path class="st0" d="M-26.7,285c-0.7,0.3-1.5,0.4-2.3,0.4s-1.4-0.1-1.9-0.3c1.1,1.4,1.6,3,1.6,4.6c0,1.5-0.4,3-1.1,4.4
			c-0.7,1.4-1.8,2.5-3,3.3c-0.7,0.4-1.5,0.8-2.3,1c-1,0.1-1.8,0.3-2.7,0.3c-1.9,0.7-3.1,1.2-3.8,1.8c-0.7,0.5-1.1,1-1.1,1.5
			c0,1,0.8,1.4,2.2,1.4h4.5c1.6,0,2.9,0.1,3.8,0.3c1,0.1,1.9,0.7,2.7,1.2c1.1,0.8,1.8,1.6,2.3,2.6s0.7,2.1,0.7,3.3c0,3-1,5.2-3,6.6
			c-1.9,1.4-4.6,2.1-8.1,2.1c-2.2,0-4.1-0.1-5.5-0.5c-1.5-0.4-2.7-1-3.7-1.5c-1-0.7-1.6-1.4-2.1-2.2c-0.4-0.8-0.7-1.8-0.7-2.7
			c0-0.5,0-1,0.1-1.5c0-0.4,0.3-1,0.4-1.5l4.6-0.4c-0.1,0.3-0.4,0.7-0.5,1.1c-0.1,0.4-0.3,1-0.3,1.4c0,1.5,0.5,2.6,1.6,3.3
			c0.7,0.4,1.5,0.7,2.5,1c1,0.3,2.1,0.3,3.1,0.3c2.2,0,3.8-0.4,4.9-1.1c1.1-0.8,1.8-1.9,1.8-3.7c0-1.6-0.5-2.7-1.5-3.4
			c-0.5-0.4-1.2-0.7-2.1-0.8c-1-0.1-1.9-0.3-3.4-0.3c-0.3,0-0.7,0-1.1,0s-0.8,0-1.1,0c-0.4,0-0.8,0-1.1,0s-0.7,0-1,0
			c-1.6,0-2.9-0.4-3.8-1.1c-0.9-0.7-1.4-1.6-1.4-2.9c0-1.1,0.4-2.1,1.1-2.7c0.7-0.6,2.1-1.4,3.8-1.9c-1.9-0.5-3.4-1.6-4.5-3
			c-1.1-1.5-1.8-3-1.8-4.9c0-1.4,0.3-2.6,0.8-3.7c0.5-1.1,1.2-2.1,2.1-3c1-0.8,1.9-1.5,3.1-1.9c1.2-0.4,2.6-0.7,4.1-0.7
			c1,0,1.9,0,2.6,0.3c0.7,0.1,1.4,0.3,1.9,0.5c0.5,0.1,1.1,0.4,1.8,0.5c0.5,0.1,1.4,0.3,2.2,0.3s1.4,0,1.9-0.3
			c0.5-0.1,1.2-0.5,1.8-1l2.7,2.7C-25.3,284.5-26,284.9-26.7,285z M-34.2,289.9c0-1.8-0.4-3.3-1.1-4.1c-0.7-0.8-2.1-1.4-3.8-1.4
			c-3.4,0-5.2,1.9-5.2,5.6c0,1.8,0.4,3.1,1.4,4.1s2.2,1.4,4,1.4C-35.9,295.5-34.2,293.6-34.2,289.9z"/>
	</g>
	<path class="st0" d="M35.9,277.4c4.5-4.9,11.5-7.8,18.5-7c12,1.2,20.8,12,19.5,24.2c-0.7,6.8-4.5,12.3-9.7,16
		c-15.6,11.3-35.8,10.5-42.4,25.1c1-17.8,30.3-18.6,40.3-28c5.3-5.1,7.2-7.9,7.8-13.5c1.1-10.7-6.6-20.1-17.2-21.3
		c-5.9-0.7-10.8,1.1-15.3,5.2c-0.3,0.3-0.5,0.5-0.8,0.8L35.9,277.4z"/>
	<path class="st0" d="M21.8,335.7c-1.2-15.9-17.9-25.4-24.7-34.9c-4.2-5.9-5.3-9.6-5.2-15.3c0.4-12.7,11.2-22.8,23.9-22.4
		c8.7,0.3,17.1,5.7,20.6,14.4l-0.3,0.8c-3.3-8.1-11.2-12.8-18.9-13.1c-11.6-0.3-21.5,8.9-21.7,20.5c-0.1,6.2,2.3,11.2,6.3,15.7
		C9,309.3,25.1,320.7,21.8,335.7z"/>
</g>
</svg>
