<?xml version="1.0" encoding="utf-8"?>
<!-- Generator: Adobe Illustrator 16.0.0, SVG Export Plug-In . SVG Version: 6.00 Build 0)  -->
<!DOCTYPE svg PUBLIC "-//W3C//DTD SVG 1.1//EN" "http://www.w3.org/Graphics/SVG/1.1/DTD/svg11.dtd">
<svg version="1.1" id="Layer_1" xmlns="http://www.w3.org/2000/svg" xmlns:xlink="http://www.w3.org/1999/xlink" x="0px" y="0px"
	 width="480px" height="480px" viewBox="0 0 480 480" enable-background="new 0 0 480 480" xml:space="preserve">
<g>
	<g>
		<path fill="#B3DB71" d="M128.596,273.258c19.352-8.02,28.54-30.198,20.528-49.55c-8.012-19.354-30.203-28.532-49.547-20.518
			c-19.349,8.014-28.542,30.197-20.52,49.539C87.064,272.078,109.252,281.271,128.596,273.258z"/>
		<path fill="#B3DB71" d="M136.543,291.381c-19.352,8.024-28.54,30.202-20.528,49.551c8.015,19.342,30.203,28.54,49.549,20.519
			c19.349-8.012,28.535-30.19,20.523-49.542C178.073,292.56,155.887,283.377,136.543,291.381z"/>
		<path fill="#B3DB71" d="M224.894,78.082c-19.352,8.019-28.538,30.207-20.528,49.554c8.012,19.349,30.203,28.537,49.549,20.516
			c19.35-8.012,28.535-30.19,20.518-49.542C266.423,79.258,244.237,70.072,224.894,78.082z"/>
		<path fill="#B3DB71" d="M313.396,115.05c-19.349,8.019-28.537,30.197-20.523,49.549c8.007,19.344,30.198,28.537,49.539,20.518
			c19.349-8.014,28.54-30.192,20.528-49.539C354.929,116.224,332.74,107.035,313.396,115.05z"/>
		<path fill="#B3DB71" d="M312.838,291.618c-19.349,8.022-28.543,30.205-20.523,49.555c8.007,19.344,30.195,28.537,49.542,20.513
			c19.354-8.004,28.537-30.189,20.52-49.541C354.367,292.793,332.185,283.612,312.838,291.618z"/>
		<path fill="#B3DB71" d="M23.022,220.287c-9.933,4.122-14.647,15.503-10.538,25.437c4.117,9.931,15.503,14.652,25.434,10.535
			c9.933-4.116,14.655-15.506,10.541-25.437C44.339,220.892,32.958,216.18,23.022,220.287z"/>
		<path fill="#B3DB71" d="M82.784,368.199c-9.936,4.117-14.65,15.504-10.541,25.439c4.114,9.934,15.509,14.65,25.431,10.538
			c9.936-4.111,14.663-15.506,10.541-25.437C104.101,368.805,92.714,364.098,82.784,368.199z"/>
		<path fill="#B3DB71" d="M246.849,45.525c9.931-4.111,14.65-15.503,10.536-25.437c-4.117-9.925-15.504-14.642-25.431-10.541
			c-9.933,4.123-14.648,15.512-10.539,25.439C225.527,44.921,236.918,49.643,246.849,45.525z"/>
		<path fill="#B3DB71" d="M395.057,107.685c9.928-4.112,14.65-15.504,10.535-25.437c-4.111-9.936-15.503-14.643-25.434-10.53
			c-9.936,4.111-14.647,15.5-10.541,25.437C373.731,107.079,385.123,111.802,395.057,107.685z"/>
		<path fill="#B3DB71" d="M406.032,378.932c-4.112-9.933-15.504-14.65-25.435-10.538c-9.931,4.122-14.649,15.504-10.541,25.432
			c4.117,9.931,15.504,14.657,25.439,10.546C405.427,400.254,410.146,388.867,406.032,378.932z"/>
	</g>
	<g>
		<path fill="#01A8E6" d="M351.023,204.692c-8.454,3.499-14.968,9.703-18.956,17.19c-0.06,0.054-0.111,0.105-0.165,0.157
			c-3.223,6.041-9.566,10.146-16.885,10.146c-8.73,0-16.08-5.865-18.374-13.861c-0.025-0.055-0.069-0.106-0.104-0.158l-0.067,0.047
			c-0.186-0.486-0.328-0.99-0.532-1.477c-12.768-30.829-48.119-45.463-78.945-32.706c-1.353,0.566-2.659,1.185-3.949,1.828
			c-6.866,2.705-14.968,1.329-20.523-4.226c-4.869-4.861-6.509-11.694-5.038-17.937c2.933-8.465,2.936-17.977-0.763-26.906
			c-8.009-19.346-30.195-28.537-49.542-20.522c-19.349,8.014-28.54,30.029-20.525,49.376c7.52,18.159,27.534,27.26,45.959,21.632
			c0.021,0,0.042,0,0.06,0c6.54-2.811,13.937-0.237,19.103,4.935c6.181,6.184,7.231,15.604,3.186,22.879
			c-0.002,0.033-0.01,0.108-0.015,0.14c-6.509,14.608-7.254,31.78-0.646,47.726c6.659,16.067,19.452,27.733,34.534,33.42
			l-0.01,0.026c0.005,0.005,0.008,0.005,0.015,0.013c7.823,2.395,13.518,9.672,13.518,18.288c0,7.081-3.866,13.252-9.586,16.554
			c-0.067,0.07-0.14,0.138-0.205,0.207c-17.36,8.935-25.263,29.825-17.655,48.181c8.012,19.344,30.203,28.537,49.542,20.523
			c19.349-8.015,28.537-30.195,20.525-49.547c-3.496-8.451-9.703-14.957-17.195-18.947c-0.028-0.034-0.057-0.062-0.09-0.091
			c-6.039-3.215-10.146-9.563-10.146-16.88c0-7.854,4.761-14.551,11.534-17.494c1.391-0.46,2.777-0.96,4.155-1.528
			c16.143-6.69,27.837-19.566,33.487-34.741c0.016-0.044,0.036-0.093,0.049-0.14c2.424-7.769,9.667-13.417,18.242-13.417
			c7.086,0,13.254,3.864,16.557,9.59c0.137,0.126,0.264,0.258,0.396,0.391c9.01,17.182,29.802,24.971,48.069,17.396
			c19.35-8.007,28.535-30.19,20.521-49.542C392.551,205.864,370.362,196.679,351.023,204.692z"/>
		<path fill="#01A8E6" d="M85.613,73.212c-9.931,4.117-14.647,15.506-10.536,25.432c4.117,9.936,15.506,14.652,25.439,10.541
			c9.928-4.117,14.65-15.499,10.53-25.435C106.935,73.817,95.549,69.103,85.613,73.212z"/>
		<path fill="#01A8E6" d="M233.782,432.474c-9.936,4.112-14.65,15.501-10.541,25.437c4.117,9.931,15.506,14.647,25.439,10.536
			c9.934-4.117,14.655-15.509,10.533-25.442C255.099,433.068,243.712,428.359,233.782,432.474z"/>
		<path fill="#01A8E6" d="M469.512,231.932c-4.117-9.936-15.509-14.647-25.437-10.541c-9.931,4.117-14.647,15.509-10.533,25.439
			c4.115,9.928,15.499,14.655,25.432,10.533C468.909,253.249,473.629,241.868,469.512,231.932z"/>
	</g>
</g>
<path fill="#0060BF" d="M293.837,260.184c0.182-0.491,0.367-0.982,0.527-1.481C294.173,259.184,293.995,259.685,293.837,260.184"/>
</svg>
