<?xml version="1.0" encoding="utf-8"?>
<!-- Generator: Adobe Illustrator 16.0.0, SVG Export Plug-In . SVG Version: 6.00 Build 0)  -->
<!DOCTYPE svg PUBLIC "-//W3C//DTD SVG 1.1//EN" "http://www.w3.org/Graphics/SVG/1.1/DTD/svg11.dtd">
<svg version="1.1" id="Layer_1" xmlns="http://www.w3.org/2000/svg" xmlns:xlink="http://www.w3.org/1999/xlink" x="0px" y="0px"
	 width="612px" height="216.418px" viewBox="0 0 612 216.418" enable-background="new 0 0 612 216.418" xml:space="preserve">
<g>
	<g>
		<path opacity="0.8" fill="#FAAE42" enable-background="new    " d="M270.944,62.263c2.236,3.188,1.469,7.583-1.715,9.821
			c-3.186,2.235-7.584,1.469-9.821-1.718c-2.235-3.184-1.468-7.58,1.72-9.82C264.312,58.311,268.706,59.079,270.944,62.263z"/>
		<path opacity="0.8" fill="#FAAE42" enable-background="new    " d="M291.057,79.759c-3.839,0.697-7.407,2.16-10.548,4.212
			c-0.799,0.526-1.568,1.083-2.303,1.681c-3.489,2.811-6.306,6.418-8.175,10.548c-0.745-0.662-1.426-1.426-2.024-2.277
			c-2.531-3.603-3.058-8.022-1.809-11.915c0.863-2.721,2.59-5.194,5.111-6.963c2.721-1.911,5.898-2.68,8.968-2.402
			c3.846,0.332,7.521,2.302,9.909,5.703C290.507,78.807,290.797,79.28,291.057,79.759z"/>
		<path opacity="0.8" fill="#81CED0" enable-background="new    " d="M244.449,116.368c3.734-1.093,7.651,1.045,8.749,4.778
			c1.096,3.736-1.045,7.651-4.778,8.748c-3.736,1.099-7.651-1.045-8.749-4.776C238.575,121.384,240.714,117.468,244.449,116.368z"/>
		<path opacity="0.8" fill="#81CED0" enable-background="new    " d="M275.882,128.348c-0.751,0.396-1.549,0.715-2.395,0.965
			c-4.029,1.183-8.171,0.407-11.402-1.775c-2.52-1.698-4.489-4.254-5.412-7.407c-0.875-2.993-0.674-6.046,0.379-8.737
			c1.467-3.773,4.608-6.845,8.804-8.082c0.697-0.206,1.396-0.348,2.093-0.438c-0.301,1.68-0.461,3.408-0.461,5.171
			c0,2.485,0.312,4.897,0.91,7.206c0.268,1.029,0.587,2.04,0.966,3.021C270.812,122.087,273.054,125.507,275.882,128.348z"/>
		<g opacity="0.8">
			<g>
				<path fill="#B3D45D" d="M355.432,97.566c-4.562,1.446-9.432-1.079-10.878-5.642c-1.441-4.562,1.082-9.432,5.645-10.877
					c4.563-1.449,9.432,1.078,10.882,5.643C362.521,91.249,359.993,96.121,355.432,97.566z"/>
				<path fill="#B3D45D" d="M333.497,112.284c-1.224,0.793-2.572,1.438-4.028,1.897c-1.769,0.563-3.562,0.812-5.318,0.776
					c0.552-2.219,0.841-4.532,0.841-6.916c0-1.497-0.112-2.964-0.33-4.396c-0.498-3.236-1.533-6.295-3.019-9.075
					c-1.898-3.585-4.539-6.715-7.715-9.193c1.58-1.29,3.42-2.302,5.474-2.952c1.62-0.515,3.265-0.763,4.881-0.775
					c7.127-0.076,13.766,4.473,16.032,11.619C342.632,100.583,339.639,108.31,333.497,112.284z"/>
			</g>
		</g>
		<g opacity="0.8">
			<path fill="#9C739E" d="M323.631,162.55c-2.665-3.969-1.612-9.353,2.357-12.022c3.973-2.67,9.354-1.615,12.027,2.356
				c2.667,3.972,1.613,9.355-2.358,12.022C331.686,167.579,326.301,166.521,323.631,162.55z"/>
			<path fill="#9C739E" d="M323.499,146.834c-5.987,4.027-13.647,3.646-19.155-0.402c-1.508-1.105-2.852-2.49-3.958-4.129
				c-1.172-1.744-1.971-3.628-2.414-5.562c4.146-0.242,8.058-1.372,11.549-3.193c2.536-1.325,4.855-3.021,6.88-5.012
				c2.792-2.745,5.021-6.054,6.508-9.738c1.988,1.214,3.745,2.863,5.129,4.916c0.557,0.822,1.022,1.681,1.414,2.556
				C332.663,133.521,330.312,142.255,323.499,146.834z"/>
		</g>
		<g opacity="0.8">
			<g>
				<path fill="#B3D45D" d="M341.368,128.704c-3.647-0.965-5.82-4.703-4.851-8.347c0.963-3.646,4.699-5.817,8.344-4.853
					c3.647,0.964,5.816,4.7,4.852,8.349C348.75,127.498,345.014,129.671,341.368,128.704z"/>
				<path fill="#B3D45D" d="M333.669,119.604c-0.716,2.709-2.229,4.992-4.218,6.666c-3.16,2.67-7.525,3.799-11.825,2.664
					c-0.421-0.113-0.829-0.242-1.226-0.396c2.792-2.745,5.021-6.053,6.508-9.738c0.502-1.242,0.917-2.52,1.241-3.839
					c0.552-2.219,0.841-4.532,0.841-6.916c0-1.497-0.112-2.964-0.33-4.396c4.347,1.266,7.56,4.603,8.837,8.637
					C334.225,114.58,334.331,117.102,333.669,119.604z"/>
			</g>
		</g>
		<g opacity="0.8">
			<circle fill="#9C739E" cx="261.517" cy="157.333" r="8.664"/>
			<path fill="#9C739E" d="M294.092,136.718c-1.013,3.929-3.39,7.218-6.532,9.425c-3.359,2.365-7.596,3.502-11.984,2.862
				c-9.1-1.323-15.406-9.778-14.081-18.883c0.131-0.894,0.325-1.757,0.591-2.586c1.236-3.964,3.882-7.212,7.278-9.265
				c1.448,3.814,3.69,7.234,6.519,10.074c2.018,2.022,4.336,3.75,6.887,5.101C286.188,135.268,290.021,136.416,294.092,136.718z"/>
		</g>
		<g opacity="0.8">
			<path fill="#81CED0" d="M242.029,81.581c4.536,1.524,6.978,6.438,5.454,10.975c-1.523,4.533-6.437,6.978-10.973,5.453
				c-4.537-1.524-6.978-6.436-5.455-10.972C232.58,82.501,237.495,80.059,242.029,81.581z"/>
			<path fill="#81CED0" d="M278.206,85.651c-3.489,2.811-6.306,6.418-8.175,10.548c-0.952,2.101-1.656,4.337-2.083,6.673
				c-0.301,1.68-0.461,3.408-0.461,5.171c0,2.484,0.312,4.898,0.91,7.206c-1.969,0.082-3.992-0.188-5.98-0.856
				c-2.017-0.683-3.82-1.711-5.365-3c-5.123-4.271-7.371-11.396-5.117-18.099c2.164-6.447,7.893-10.701,14.264-11.287
				c2.242-0.207,4.561,0.041,6.832,0.805C274.964,83.462,276.705,84.433,278.206,85.651z"/>
		</g>
		<path opacity="0.8" fill="#9C739E" enable-background="new    " d="M289.188,159.9c-0.014-3.893,3.13-7.061,7.02-7.078
			c3.893-0.016,7.064,3.128,7.079,7.021c0.018,3.892-3.124,7.06-7.021,7.078C292.375,166.938,289.206,163.798,289.188,159.9z"/>
		<path opacity="0.8" fill="#9C739E" enable-background="new    " d="M309.686,135.6c0.019,4.414-2.082,8.349-5.342,10.832
			c-2.265,1.729-5.089,2.758-8.152,2.77c-3.271,0.018-6.282-1.135-8.632-3.059c-3.016-2.475-4.951-6.226-4.97-10.431
			c-0.004-0.771,0.06-1.526,0.179-2.267c3.42,1.822,7.252,2.971,11.323,3.271c0.709,0.047,1.425,0.076,2.147,0.076
			c0.58,0,1.158-0.018,1.732-0.053c4.146-0.242,8.058-1.372,11.548-3.193C309.627,134.215,309.686,134.9,309.686,135.6z"/>
		<g opacity="0.8">
			<circle fill="#FAAE42" cx="296.164" cy="48.213" r="8.665"/>
			<path fill="#FAAE42" d="M312.709,78.05c-0.006,2.011-0.374,3.945-1.036,5.726c-3.372-2.142-7.223-3.608-11.357-4.194
				c-1.331-0.189-2.692-0.29-4.076-0.29c-1.77,0-3.502,0.161-5.183,0.468c-3.839,0.697-7.407,2.16-10.548,4.212
				c-0.729-1.875-1.119-3.916-1.113-6.046c0.007-1.846,0.314-3.627,0.882-5.283c2.23-6.602,8.489-11.341,15.837-11.311
				c7.33,0.029,13.542,4.791,15.736,11.383C312.413,74.387,312.714,76.186,312.709,78.05z"/>
		</g>
		<g opacity="0.8">
			<circle fill="#FAAE42" cx="324.949" cy="67.06" r="6.828"/>
			<path fill="#FAAE42" d="M322.618,93.342c-0.302,0.438-0.627,0.846-0.977,1.23c-1.898-3.585-4.539-6.715-7.715-9.193
				c-0.723-0.568-1.473-1.101-2.255-1.604c-3.372-2.142-7.223-3.608-11.357-4.194c0.229-0.426,0.491-0.846,0.773-1.254
				c2.551-3.65,6.627-5.608,10.763-5.613c2.598-0.008,5.219,0.762,7.508,2.359c2.396,1.674,4.069,4.005,4.923,6.578
				C325.564,85.456,325.091,89.798,322.618,93.342z"/>
		</g>
		<path fill="none" d="M324.99,108.043c0,2.384-0.289,4.697-0.841,6.916c-0.324,1.318-0.739,2.598-1.241,3.839
			c-1.485,3.687-3.716,6.993-6.508,9.738c-2.023,1.991-4.344,3.687-6.881,5.012c-3.49,1.821-7.401,2.951-11.548,3.193
			c-0.574,0.034-1.152,0.053-1.732,0.053c-0.723,0-1.438-0.028-2.147-0.076c-4.071-0.302-7.903-1.45-11.323-3.271
			c-2.551-1.35-4.869-3.077-6.887-5.1c-2.828-2.841-5.07-6.261-6.519-10.076c-0.379-0.981-0.698-1.992-0.966-3.021
			c-0.598-2.309-0.91-4.721-0.91-7.206c0-1.763,0.16-3.491,0.461-5.171c0.427-2.336,1.131-4.572,2.083-6.673
			c1.869-4.13,4.686-7.737,8.175-10.548c0.734-0.598,1.504-1.154,2.303-1.681c3.141-2.052,6.709-3.515,10.548-4.212
			c1.681-0.307,3.413-0.468,5.183-0.468c1.384,0,2.745,0.101,4.076,0.29c4.135,0.586,7.985,2.053,11.357,4.194
			c0.782,0.503,1.532,1.035,2.255,1.604c3.176,2.479,5.815,5.608,7.715,9.193c1.484,2.78,2.521,5.839,3.019,9.075
			C324.878,105.079,324.99,106.546,324.99,108.043z"/>
	</g>
</g>
<path fill="#81CED0" d="M65.497,67.716l18.607-1.476l-1.64,34.592h0.164l7.787-16.64l18.115,1.475l-10.656,20.657l12.295,18.935
	l-17.049,8.442l-10.656-20.574h-0.164l0.656,19.1l-17.049,1.475L65.497,67.716z"/>
<path fill="#81CED0" d="M185.444,132.661l-16.066,1.066v-4.673h-0.164c-1.312,1.75-3.102,3.021-5.369,3.812
	c-2.268,0.792-4.549,1.188-6.844,1.188c-2.787,0-5.479-0.561-8.074-1.68c-2.596-1.12-4.905-2.732-6.926-4.837
	c-2.022-2.103-3.635-4.685-4.836-7.746c-1.201-3.06-1.803-6.529-1.803-10.41c0-3.496,0.506-6.789,1.517-9.877
	c1.01-3.087,2.472-5.792,4.385-8.115c1.912-2.321,4.275-4.152,7.09-5.491c2.814-1.339,6.025-2.009,9.631-2.009
	c1.803,0,3.552,0.233,5.246,0.697c1.693,0.465,3.168,1.243,4.426,2.336l-0.738-19.509l18.853-1.476L185.444,132.661z
	 M162.739,116.432c1.201-0.437,2.213-1.024,3.033-1.763c0.82-0.737,1.461-1.557,1.926-2.459c0.464-0.901,0.724-1.844,0.779-2.828
	c0.054-0.983-0.082-1.938-0.41-2.868c-0.328-0.874-0.834-1.667-1.517-2.378c-0.684-0.709-1.49-1.271-2.418-1.68
	c-0.93-0.41-1.955-0.642-3.074-0.697c-1.121-0.054-2.282,0.138-3.483,0.574c-1.258,0.438-2.295,1.039-3.115,1.803
	c-0.82,0.767-1.463,1.599-1.926,2.501c-0.465,0.901-0.725,1.858-0.779,2.868c-0.055,1.012,0.082,1.955,0.41,2.828
	c0.328,0.93,0.833,1.735,1.517,2.418c0.683,0.685,1.488,1.229,2.418,1.64c0.929,0.41,1.953,0.629,3.074,0.656
	C160.292,117.074,161.481,116.87,162.739,116.432z"/>
<path fill="#81CED0" d="M196.14,118.071c1.502,0.273,3.128,0.409,4.877,0.409c0.765,0,1.57-0.013,2.418-0.041
	c0.847-0.026,1.611-0.108,2.295-0.245c0.683-0.136,1.256-0.369,1.721-0.697c0.463-0.328,0.697-0.819,0.697-1.476
	c0-0.819-0.424-1.435-1.271-1.844c-0.848-0.41-1.885-0.806-3.115-1.188c-1.23-0.382-2.582-0.833-4.058-1.353
	c-1.476-0.519-2.828-1.283-4.058-2.296c-1.229-1.01-2.268-2.362-3.115-4.057c-0.848-1.693-1.271-3.907-1.271-6.64
	c0-1.804,0.354-3.579,1.065-5.328c0.709-1.748,1.857-3.333,3.443-4.754c1.584-1.421,3.633-2.568,6.147-3.443
	c2.513-0.873,5.546-1.312,9.099-1.312c1.365,0,2.732,0.056,4.099,0.164c1.365,0.11,2.664,0.26,3.894,0.451s2.363,0.383,3.402,0.573
	c1.037,0.192,1.912,0.369,2.623,0.533v14.427c-1.367-0.328-2.705-0.601-4.017-0.82c-1.312-0.218-2.733-0.327-4.263-0.327
	c-0.328,0-0.848,0.014-1.557,0.041c-0.711,0.027-1.422,0.109-2.131,0.245c-0.711,0.138-1.34,0.369-1.885,0.697
	c-0.547,0.328-0.82,0.766-0.82,1.312c0,0.875,0.437,1.53,1.312,1.967c0.874,0.438,1.953,0.849,3.238,1.229
	c1.284,0.383,2.691,0.849,4.222,1.394c1.529,0.547,2.937,1.326,4.221,2.336c1.284,1.013,2.363,2.365,3.238,4.058
	c0.874,1.694,1.312,3.908,1.312,6.64c0,2.951-0.643,5.41-1.926,7.378c-1.285,1.967-2.979,3.538-5.082,4.713
	c-2.104,1.176-4.522,2.008-7.254,2.5c-2.733,0.492-5.574,0.737-8.525,0.737c-2.295,0-4.549-0.137-6.762-0.409
	c-2.213-0.274-4.44-0.71-6.681-1.312v-15.328C193.148,117.443,194.637,117.798,196.14,118.071z"/>
<polygon fill="#81CED0" points="114.032,102.045 131.966,102.045 131.966,129.805 114.032,133.139 "/>
<circle fill="#81CED0" cx="122.999" cy="89.254" r="8.966"/>
<g enable-background="new    ">
	<path fill="#B3D45D" d="M390.193,107.922l4.846-22.016l13.345-1.02l5.015,23.29h0.17l5.016-24.056l18.53,1.53l-13.091,49.046
		l-17.595,1.36l-4.761-23.716h-0.17l-4.845,22.355l-17.425,1.445l-13.261-50.491l19.04-1.53l5.016,23.801H390.193z"/>
	<path fill="#B3D45D" d="M464.824,129.938h-0.17c-1.529,2.154-3.472,3.655-5.822,4.505c-2.353,0.851-4.888,1.275-7.607,1.275
		c-2.268,0-4.42-0.41-6.461-1.232c-2.04-0.821-3.824-1.998-5.355-3.527c-1.529-1.53-2.748-3.371-3.654-5.525
		c-0.906-2.153-1.36-4.561-1.36-7.226c0-2.322,0.454-4.462,1.36-6.417s2.139-3.655,3.697-5.101s3.4-2.578,5.525-3.4
		c2.125-0.82,4.434-1.232,6.928-1.232c2.605,0,4.803,0.383,6.588,1.147c1.785,0.766,3.3,1.63,4.547,2.593v-2.55
		c0-2.605-0.85-4.335-2.55-5.186c-1.7-0.85-3.91-1.274-6.63-1.274c-2.494,0-4.817,0.255-6.971,0.765
		c-2.154,0.51-4.335,1.105-6.545,1.785l3.314-13.516c2.721-0.793,5.554-1.345,8.501-1.657c2.946-0.311,5.95-0.468,9.011-0.468
		c2.775,0,5.495,0.327,8.16,0.978c2.662,0.652,5,1.715,7.012,3.188c2.012,1.475,3.613,3.372,4.803,5.695
		c1.19,2.324,1.756,5.186,1.7,8.585l-0.935,32.131l-17.086,1.445V129.938z M454.029,114.212c-1.928,0.284-3.515,0.95-4.76,1.998
		c-1.248,1.049-1.785,2.225-1.615,3.527c0.226,1.305,1.033,2.282,2.422,2.933c1.389,0.652,3.188,0.808,5.398,0.468
		c2.209-0.34,3.853-1.048,4.93-2.125c1.076-1.076,1.501-2.238,1.275-3.485c-0.17-1.076-0.893-1.997-2.168-2.763
		C458.236,114,456.409,113.816,454.029,114.212z"/>
	<path fill="#B3D45D" d="M509.535,104.438l4.165-18.701l17.511,1.53l-18.191,64.092l-19.21-1.53l7.311-19.976l-15.98-41.821
		l18.53-2.295l5.695,18.701H509.535z"/>
</g>
</svg>
