<?xml version="1.0" encoding="UTF-8" standalone="no"?>
<svg width="7817px" height="2963px" viewBox="0 0 7817 2963" version="1.1" xmlns="http://www.w3.org/2000/svg" xmlns:xlink="http://www.w3.org/1999/xlink" xmlns:sketch="http://www.bohemiancoding.com/sketch/ns">
    <!-- Generator: Sketch 3.2.2 (9983) - http://www.bohemiancoding.com/sketch -->
    <title>logo-lazio</title>
    <desc>Created with Sketch.</desc>
    <defs></defs>
    <g id="Page-1" stroke="none" stroke-width="1" fill="none" fill-rule="evenodd" sketch:type="MSPage">
        <g id="Livello_x0020_1" sketch:type="MSLayerGroup" fill="#17386E">
            <path d="M1849,8 C1840,11 1838,39 1842,109 C1845,153 1846,190 1845,192 C1844,193 1836,177 1826,155 C1797,89 1772,53 1742,35 C1727,26 1711,19 1706,20 C1701,21 1694,34 1691,48 C1679,102 1685,142 1740,380 C1801,641 1813,714 1807,804 C1804,855 1794,893 1776,934 C1768,952 1757,983 1751,1002 C1720,1103 1652,1225 1575,1316 C1524,1376 1440,1452 1360,1511 C1417,1470 1513,1356 1554,1297 C1587,1248 1605,1182 1582,1196 C1568,1204 1556,1210 1542,1218 L1557,1189 C1576,1152 1574,1145 1544,1147 L1520,1149 L1547,1109 C1562,1087 1573,1066 1572,1062 C1571,1058 1563,1054 1554,1054 C1527,1054 1527,1053 1554,1012 C1581,970 1584,955 1563,960 C1556,962 1545,962 1538,961 C1527,960 1529,954 1552,913 C1566,888 1577,867 1576,865 C1575,863 1560,865 1541,870 C1523,875 1507,878 1507,876 C1507,874 1521,841 1539,803 C1557,765 1572,731 1571,727 C1569,717 1546,724 1491,752 C1465,765 1443,774 1442,773 C1440,772 1451,740 1464,701 C1478,662 1491,616 1495,599 C1501,565 1498,536 1487,539 C1483,540 1457,561 1429,586 C1401,611 1378,631 1376,630 C1375,629 1377,604 1381,575 C1390,505 1390,460 1381,424 C1368,375 1352,385 1286,483 C1267,511 1250,532 1248,530 C1246,527 1243,474 1241,411 C1236,276 1226,214 1213,217 C1208,218 1188,251 1167,291 C1147,331 1129,361 1127,358 C1125,355 1121,327 1118,296 C1111,224 1099,175 1085,163 C1075,154 1074,155 1066,168 C1055,184 1037,247 1021,318 C1015,347 1008,370 1007,371 C1006,371 995,329 984,277 C958,158 928,90 904,96 C885,101 868,251 870,388 C877,628 899,875 998,1085 C1057,1211 1073,1256 1076,1311 C1098,1461 997,1487 967,1586 C967,1589 966,1593 966,1596 C953,1593 937,1590 936,1589 C773,1546 637,1487 537,1572 C516,1698 429,1587 433,1731 C434,1752 449,1799 456,1803 C458,1804 468,1796 478,1785 C629,1744 666,1839 677,1918 C679,1947 708,2011 732,2038 C739,2046 747,2053 756,2059 C756,2059 756,2060 755,2060 C754,2065 752,2070 751,2075 C747,2091 744,2106 741,2122 C740,2126 740,2131 739,2135 C724,2148 705,2172 680,2208 C647,2257 611,2283 557,2297 L517,2307 L469,2282 C395,2243 373,2239 299,2253 C246,2263 236,2267 228,2277 C220,2289 219,2289 236,2281 C264,2268 295,2273 310,2293 C324,2312 336,2314 380,2309 C417,2305 429,2312 418,2329 C410,2340 407,2341 365,2343 C315,2345 223,2370 216,2384 C213,2390 216,2390 231,2383 C249,2375 253,2375 275,2389 L299,2405 L366,2390 C453,2370 470,2372 498,2408 C529,2447 538,2477 529,2501 C525,2512 522,2522 523,2525 C524,2528 519,2540 512,2552 C498,2576 500,2577 524,2558 C533,2551 541,2542 542,2537 C544,2532 556,2519 569,2507 C597,2483 598,2469 571,2470 L554,2471 L571,2462 C591,2451 591,2450 569,2422 C539,2384 542,2364 579,2355 C600,2350 655,2358 696,2372 L730,2383 L725,2401 C722,2411 721,2420 724,2421 C731,2425 828,2387 868,2364 C878,2358 890,2350 903,2342 C903,2342 903,2342 904,2343 C925,2330 949,2322 971,2311 C977,2308 984,2304 991,2301 C989,2311 986,2321 984,2333 C972,2390 963,2417 944,2450 C917,2497 879,2528 838,2539 C814,2545 808,2542 745,2486 C722,2465 707,2456 694,2455 C684,2455 666,2452 653,2449 C625,2443 589,2450 592,2461 C593,2465 601,2470 611,2471 C626,2473 695,2515 698,2524 C699,2526 687,2528 673,2530 C654,2532 644,2536 635,2545 C629,2552 613,2560 601,2563 C564,2572 539,2601 546,2627 C548,2634 552,2632 565,2617 C584,2595 596,2591 652,2589 C694,2587 758,2601 802,2620 C827,2631 827,2632 838,2671 C846,2700 853,2717 865,2730 C874,2741 883,2753 884,2758 C888,2772 875,2796 859,2809 L844,2821 L867,2815 C885,2811 893,2805 903,2790 C925,2756 930,2719 917,2684 C911,2667 899,2643 891,2631 C883,2619 877,2607 878,2605 C881,2600 1063,2543 1067,2546 C1061,2572 1067,2596 1045,2606 C1219,2541 1282,2294 1258,2626 C1248,2782 1249,2821 1267,2837 C1272,2842 1276,2841 1286,2830 C1293,2823 1300,2817 1301,2818 C1303,2819 1312,2831 1322,2844 C1332,2857 1343,2866 1348,2865 C1352,2864 1360,2852 1366,2839 C1377,2812 1384,2812 1395,2837 C1400,2847 1408,2859 1413,2863 C1422,2871 1424,2869 1434,2845 C1440,2831 1445,2818 1445,2816 C1446,2814 1455,2819 1465,2827 C1493,2849 1505,2843 1512,2800 L1518,2764 L1534,2776 C1543,2783 1552,2788 1553,2787 C1557,2786 1563,2749 1564,2716 L1565,2692 L1586,2707 C1597,2715 1608,2720 1609,2718 C1620,2699 1600,2534 1561,2434 C1529,2257 1406,2256 1409,2094 L1450,2118 C1498,2146 1536,2166 1535,2163 C1534,2159 1520,2138 1502,2116 C1485,2094 1471,2075 1472,2073 C1473,2072 1503,2085 1538,2104 C1574,2122 1603,2136 1604,2135 C1605,2134 1589,2112 1569,2087 C1549,2062 1533,2040 1533,2036 C1533,2033 1562,2045 1598,2064 C1634,2083 1664,2096 1664,2093 C1664,2090 1649,2070 1630,2048 C1611,2026 1598,2008 1600,2007 C1603,2006 1633,2018 1667,2032 C1701,2047 1729,2057 1730,2056 C1731,2054 1719,2041 1703,2026 C1687,2011 1676,1997 1677,1995 C1678,1993 1717,1999 1762,2009 C1807,2019 1851,2026 1859,2024 C1873,2020 1872,2019 1861,1990 C1847,1955 1847,1955 1908,1963 C1957,1970 1958,1969 1938,1925 C1931,1909 1926,1894 1928,1891 C1930,1888 1947,1887 1967,1889 C2021,1893 2021,1893 2006,1855 C1994,1823 1994,1823 2008,1819 C2016,1817 2035,1815 2052,1815 C2093,1813 2097,1806 2075,1774 C2065,1759 2061,1748 2063,1744 C2065,1740 2082,1736 2106,1735 C2128,1733 2147,1730 2149,1726 C2151,1723 2144,1707 2133,1690 L2114,1661 L2169,1650 C2240,1636 2244,1633 2219,1600 L2200,1575 C2234,1566 2272,1555 2301,1539 C2301,1535 2288,1522 2271,1509 C2254,1496 2242,1483 2244,1480 C2246,1477 2276,1466 2311,1455 C2375,1436 2404,1421 2400,1407 C2399,1403 2383,1394 2365,1388 C2347,1382 2332,1376 2332,1374 C2332,1372 2356,1356 2386,1336 C2449,1296 2453,1287 2414,1273 C2349,1251 2465,1191 2480,1161 C2479,1157 2465,1151 2449,1148 L2420,1142 L2450,1114 C2486,1080 2513,1047 2466,1039 L2433,1034 L2449,1019 C2479,991 2502,959 2501,946 C2500,936 2494,933 2465,931 L2430,929 L2458,893 C2488,855 2506,819 2502,805 C2501,800 2492,797 2482,798 C2472,799 2457,799 2447,799 L2429,800 L2455,760 C2477,726 2492,693 2489,681 C2489,679 2467,684 2441,690 C2415,697 2393,700 2393,698 C2393,696 2404,672 2419,645 C2449,589 2466,539 2460,517 C2454,493 2451,494 2395,535 C2386,542 2377,545 2375,544 C2373,543 2375,522 2380,497 C2390,453 2389,399 2379,402 C2376,403 2362,416 2348,431 C2334,446 2322,457 2321,457 C2320,456 2320,437 2320,414 C2321,370 2311,321 2299,310 C2293,305 2288,309 2272,333 C2261,349 2251,363 2249,364 C2247,364 2241,339 2236,309 C2225,247 2208,197 2193,185 C2179,173 2164,186 2148,224 C2140,242 2132,257 2130,258 C2128,259 2120,244 2111,225 C2078,154 2030,84 2020,91 C2017,93 2012,119 2010,149 C2004,208 2004,207 1978,148 C1968,126 1952,96 1941,80 C1922,52 1874,5 1861,1 C1859,0 1858,0 1856,0 L1849,8 Z M677,1634 C689,1634 690,1638 685,1648 C667,1668 648,1656 629,1659 C627,1653 647,1637 661,1635 C667,1634 673,1634 677,1634 L677,1634 Z M377,2458 C337,2458 306,2509 308,2535 C318,2559 336,2573 354,2590 C394,2596 424,2585 450,2562 C451,2535 447,2509 438,2486 C427,2467 402,2458 377,2458 L377,2458 Z M112,2496 C84,2501 61,2524 51,2543 C49,2547 50,2562 51,2576 C52,2588 55,2597 53,2601 L113,2623 C127,2624 172,2542 164,2527 C149,2511 130,2500 111,2496 L112,2496 Z M15,2596 C6,2624 0,2654 0,2685 C0,2839 125,2963 278,2963 C412,2963 524,2868 550,2741 C513,2851 409,2929 287,2929 C133,2929 9,2804 9,2651 C9,2632 11,2614 15,2596 L15,2596 Z M478,2711 C472,2744 466,2775 464,2805 L507,2804 C526,2802 542,2734 533,2725 L479,2711 L478,2711 Z M240,2720 C200,2728 174,2748 158,2777 C161,2795 192,2836 210,2849 C227,2848 262,2852 277,2847 C284,2840 300,2785 305,2777 C300,2761 271,2724 240,2720 L240,2720 Z" id="Shape" sketch:type="MSShapeGroup"></path>
            <path d="M6794,863 L6676,950 C6611,998 6543,1046 6526,1057 C6498,1076 6471,1096 6378,1165 C6363,1176 6207,1289 6077,1383 L6381,1383 C6590,1383 6696,1474 6696,1657 C6696,1854 6590,1952 6380,1952 L6305,1952 C6188,1952 6129,2001 6129,2098 L6129,2251 L6737,2251 L6737,2411 L6033,2411 C6051,2467 6057,2484 6077,2547 L6161,2806 L7425,2806 L7466,2682 C7489,2614 7567,2374 7639,2150 C7712,1926 7781,1712 7794,1674 L7817,1605 L7769,1570 C7743,1551 7719,1533 7715,1530 C7712,1527 7676,1502 7636,1473 C7597,1445 7544,1407 7516,1386 L7516,1927 L7651,1927 L7651,2087 L7516,2087 L7516,2410 L7354,2410 L7354,2087 L6806,2087 L6806,1382 L6968,1382 L6968,1927 L7354,1927 L7354,1269 C7228,1178 7078,1070 7063,1059 C7052,1052 7039,1042 7033,1037 C7027,1032 6993,1007 6957,981 C6921,955 6869,918 6842,898 L6793,861 L6794,863 Z M7355,1271 C7424,1321 7490,1368 7514,1386 C7515,1387 7516,1388 7517,1388 L7355,1271 L7355,1271 Z M6032,2412 C6008,2337 5993,2293 5972,2231 L6032,2412 L6032,2412 Z M5972,2231 L5972,2102 C5972,1897 6089,1793 6323,1793 L6400,1793 C6492,1793 6538,1749 6538,1661 C6538,1583 6492,1544 6400,1544 L6066,1544 L6066,1390 C6011,1430 5994,1442 5940,1481 C5911,1502 5861,1538 5830,1560 C5798,1583 5773,1606 5773,1611 C5773,1618 5847,1848 5971,2230 L5972,2231 Z M6066,1390 C6070,1387 6072,1386 6076,1383 L6066,1390 L6066,1390 Z M6408,2476 L6421,2476 C6439,2476 6456,2479 6473,2486 C6490,2493 6505,2503 6519,2517 L6538,2536 L6500,2575 L6480,2556 C6472,2548 6463,2542 6453,2538 C6443,2534 6432,2531 6421,2531 C6410,2531 6400,2534 6389,2538 C6379,2542 6370,2548 6362,2556 C6354,2564 6347,2573 6343,2583 C6339,2593 6337,2603 6337,2614 C6337,2625 6339,2635 6343,2646 C6347,2656 6354,2666 6362,2674 C6378,2690 6398,2698 6421,2698 C6432,2698 6442,2696 6453,2692 C6463,2688 6472,2682 6480,2674 L6500,2655 L6538,2693 L6519,2712 C6505,2726 6490,2736 6473,2743 C6456,2750 6438,2753 6421,2753 C6403,2753 6386,2750 6369,2743 C6352,2736 6337,2726 6323,2712 C6309,2698 6299,2683 6293,2666 C6286,2649 6283,2632 6283,2615 C6283,2597 6287,2580 6293,2563 C6300,2546 6310,2531 6323,2517 C6337,2503 6352,2493 6369,2486 C6382,2481 6395,2478 6408,2476 L6408,2476 Z M6991,2476 C7014,2476 7035,2481 7054,2491 C7073,2501 7089,2515 7102,2532 C7115,2515 7130,2501 7150,2491 C7169,2481 7191,2476 7213,2476 C7232,2476 7250,2479 7267,2486 C7284,2493 7298,2503 7311,2515 C7324,2528 7333,2543 7340,2559 C7347,2576 7351,2593 7351,2613 L7351,2752 L7297,2752 L7297,2613 C7297,2601 7295,2591 7290,2581 C7286,2571 7279,2562 7272,2555 C7264,2547 7256,2542 7246,2537 C7236,2533 7225,2530 7214,2530 C7202,2530 7192,2532 7182,2537 C7172,2541 7163,2547 7156,2555 C7148,2563 7142,2571 7138,2581 C7134,2591 7132,2602 7132,2613 L7132,2752 L7077,2752 L7077,2613 C7077,2601 7075,2591 7070,2581 C7066,2571 7060,2562 7052,2555 C7044,2547 7036,2542 7026,2537 C7016,2533 7004,2530 6993,2530 C6982,2530 6971,2532 6961,2537 C6951,2541 6942,2547 6935,2555 C6927,2563 6922,2571 6917,2581 C6913,2591 6910,2602 6910,2613 L6910,2752 L6856,2752 L6856,2613 C6856,2594 6859,2576 6866,2559 C6873,2542 6883,2527 6895,2515 C6908,2502 6922,2493 6939,2486 C6956,2479 6974,2476 6993,2476 L6991,2476 Z M6697,2477 C6716,2477 6735,2481 6751,2488 C6768,2495 6782,2505 6794,2517 C6807,2530 6817,2545 6824,2561 C6831,2578 6835,2595 6835,2615 C6835,2634 6831,2652 6824,2669 C6817,2686 6807,2700 6794,2713 C6781,2726 6767,2736 6751,2743 C6734,2750 6716,2753 6697,2753 C6678,2753 6660,2750 6643,2743 C6626,2736 6612,2726 6600,2713 C6587,2700 6577,2686 6570,2669 C6563,2652 6560,2634 6560,2615 C6560,2596 6563,2578 6570,2561 C6577,2544 6588,2529 6600,2517 C6613,2504 6627,2495 6643,2488 C6660,2481 6678,2477 6697,2477 L6697,2477 Z M6697,2532 C6685,2532 6675,2534 6665,2539 C6655,2543 6645,2549 6638,2557 C6630,2565 6625,2573 6620,2583 C6616,2593 6613,2604 6613,2615 C6613,2626 6615,2637 6620,2647 C6624,2657 6630,2667 6638,2674 C6646,2682 6655,2687 6665,2692 C6675,2696 6686,2699 6697,2699 C6709,2699 6720,2697 6730,2692 C6740,2688 6749,2682 6756,2674 C6764,2666 6769,2657 6774,2647 C6778,2637 6781,2626 6781,2615 C6781,2603 6779,2593 6774,2583 C6770,2573 6764,2564 6756,2557 C6748,2549 6740,2544 6730,2539 C6720,2535 6708,2532 6697,2532 L6697,2532 Z M6237,2705 C6243,2705 6247,2709 6252,2716 C6256,2724 6258,2729 6258,2733 C6258,2739 6256,2745 6250,2751 C6244,2757 6238,2760 6231,2760 C6213,2760 6205,2753 6205,2738 C6205,2717 6216,2706 6238,2706 L6237,2705 Z" id="Shape" sketch:type="MSShapeGroup"></path>
            <path d="M1726,2394 C1726,2337 1737,2284 1758,2235 C1779,2186 1808,2143 1845,2106 C1882,2069 1925,2040 1975,2019 C2025,1998 2077,1987 2133,1987 C2190,1987 2243,1998 2292,2019 C2341,2040 2384,2069 2422,2106 C2460,2143 2489,2186 2510,2235 C2531,2284 2542,2337 2542,2394 L2542,2802 L2380,2802 L2380,2394 C2380,2360 2374,2328 2361,2299 C2348,2269 2331,2243 2308,2221 C2286,2199 2259,2181 2229,2168 C2199,2155 2167,2149 2133,2149 C2099,2149 2067,2155 2038,2168 C2008,2181 1982,2198 1960,2221 C1938,2243 1920,2269 1907,2299 C1894,2329 1888,2360 1888,2394 L1888,2802 L1726,2802 L1726,2394 L1726,2394 Z" id="Shape" sketch:type="MSShapeGroup"></path>
            <path d="M3233,2514 L3347,2628 L3291,2684 C3252,2723 3208,2752 3159,2773 C3109,2794 3057,2804 3003,2804 C2949,2804 2897,2794 2847,2773 C2797,2752 2753,2723 2715,2684 C2675,2644 2645,2599 2626,2549 C2607,2499 2597,2448 2597,2396 C2597,2344 2607,2293 2626,2244 C2645,2194 2675,2150 2715,2110 C2755,2070 2800,2040 2850,2020 C2900,2000 2951,1990 3003,1990 C3055,1990 3106,2000 3156,2020 C3206,2040 3251,2070 3291,2110 L3347,2166 L2895,2618 C2941,2641 2990,2649 3041,2641 C3092,2633 3137,2610 3176,2571 L3232,2515 L3233,2514 Z M2828,2222 C2780,2270 2755,2328 2755,2396 C2755,2434 2763,2469 2780,2503 L2846,2437 C2876,2407 2907,2376 2940,2343 C2973,2310 3005,2278 3036,2248 C3067,2218 3091,2194 3108,2177 C3062,2154 3013,2146 2962,2153 C2911,2160 2866,2183 2827,2222 L2828,2222 Z" id="Shape" sketch:type="MSShapeGroup"></path>
            <path d="M4872,1987 L4872,2393 C4872,2449 4861,2501 4840,2551 C4819,2601 4790,2644 4752,2682 C4714,2720 4671,2749 4622,2770 C4573,2791 4520,2802 4463,2802 C4396,2802 4335,2787 4278,2758 C4221,2728 4174,2688 4137,2637 C4099,2688 4053,2728 3996,2758 C3940,2788 3878,2802 3810,2802 C3754,2802 3702,2791 3652,2770 C3602,2749 3559,2720 3521,2682 C3483,2645 3454,2601 3433,2551 C3412,2501 3401,2449 3401,2393 L3401,1987 L3564,1987 L3564,2393 C3564,2427 3570,2459 3583,2489 C3596,2519 3613,2546 3636,2568 C3658,2590 3684,2608 3714,2621 C3744,2634 3775,2640 3809,2640 C3843,2640 3875,2634 3905,2621 C3935,2608 3962,2591 3984,2568 C4006,2546 4024,2519 4037,2489 C4050,2459 4056,2427 4056,2393 L4056,1987 L4218,1987 L4218,2393 C4218,2427 4224,2459 4237,2489 C4250,2519 4267,2546 4290,2568 C4312,2590 4338,2608 4368,2621 C4398,2634 4429,2640 4463,2640 C4497,2640 4529,2634 4559,2621 C4589,2608 4616,2591 4638,2568 C4660,2546 4678,2519 4691,2489 C4704,2459 4710,2427 4710,2393 L4710,1987 L4871,1987 L4872,1987 Z" id="Shape" sketch:type="MSShapeGroup"></path>
            <path d="M5663,1986 L5663,2148 L5171,2148 C5148,2148 5129,2156 5113,2172 C5097,2188 5090,2207 5090,2230 C5090,2253 5098,2273 5113,2289 C5129,2305 5148,2313 5171,2313 L5498,2313 C5532,2313 5564,2319 5593,2332 C5623,2345 5649,2362 5671,2384 C5693,2406 5711,2431 5724,2461 C5737,2491 5743,2522 5743,2556 C5743,2590 5737,2622 5724,2651 C5711,2681 5694,2707 5671,2729 C5649,2751 5623,2769 5593,2782 C5563,2795 5532,2801 5498,2801 L5008,2801 L5008,2640 L5498,2640 C5522,2640 5542,2632 5558,2616 C5574,2600 5582,2580 5582,2556 C5582,2533 5574,2514 5558,2498 C5542,2482 5522,2474 5498,2474 L5171,2474 C5137,2474 5105,2468 5076,2455 C5046,2442 5021,2425 4999,2402 C4977,2380 4960,2354 4947,2324 C4934,2294 4928,2263 4928,2229 C4928,2195 4934,2163 4947,2134 C4960,2104 4977,2079 4999,2057 C5021,2035 5046,2018 5076,2005 C5106,1992 5137,1986 5171,1986 L5663,1986 L5663,1986 Z" id="Shape" sketch:type="MSShapeGroup"></path>
            <path d="M2582,712 L2753,712 L2753,1919 L2582,1919 L2582,712 Z" id="Shape" sketch:type="MSShapeGroup"></path>
            <path d="M3247,1056 C3307,1056 3363,1067 3415,1090 C3467,1112 3512,1143 3551,1182 C3590,1221 3621,1266 3643,1318 C3665,1370 3677,1426 3677,1486 L3677,1918 L3247,1918 C3188,1918 3133,1907 3080,1884 C3028,1862 2981,1831 2942,1791 C2902,1751 2871,1705 2849,1653 C2827,1601 2815,1545 2815,1486 C2815,1426 2826,1370 2849,1318 C2871,1266 2902,1221 2942,1182 C2982,1143 3028,1112 3080,1090 C3133,1068 3188,1056 3247,1056 L3247,1056 Z M3506,1747 L3506,1486 C3506,1450 3499,1417 3486,1385 C3473,1354 3454,1326 3430,1303 C3406,1279 3379,1261 3347,1247 C3316,1234 3282,1227 3246,1227 C3210,1227 3176,1234 3144,1247 C3112,1260 3084,1279 3061,1303 C3037,1327 3019,1354 3005,1385 C2992,1416 2985,1450 2985,1486 C2985,1522 2992,1556 3005,1588 C3018,1620 3037,1648 3061,1671 C3085,1695 3112,1713 3144,1727 C3176,1740 3210,1747 3246,1747 L3505,1747 L3506,1747 Z" id="Shape" sketch:type="MSShapeGroup"></path>
            <path d="M4572,1059 C4500,1156 4433,1250 4370,1339 C4343,1377 4316,1416 4287,1455 C4259,1494 4232,1532 4206,1568 C4180,1604 4156,1638 4133,1670 C4110,1701 4091,1728 4075,1750 L4587,1750 L4587,1921 L3741,1921 C3811,1824 3879,1730 3943,1641 C3970,1603 3998,1564 4026,1525 C4055,1486 4082,1448 4108,1412 C4134,1376 4158,1342 4181,1310 C4204,1279 4223,1252 4239,1230 L3727,1230 L3727,1059 L4571,1059 L4572,1059 Z" id="Shape" sketch:type="MSShapeGroup"></path>
            <path d="M4644,1057 L4813,1057 L4813,1919 L4644,1919 L4644,1057 Z" id="Shape" sketch:type="MSShapeGroup"></path>
            <path d="M4867,1491 C4867,1431 4878,1375 4901,1323 C4923,1271 4954,1226 4993,1187 C5032,1148 5078,1117 5130,1095 C5182,1073 5238,1061 5297,1061 C5357,1061 5413,1072 5465,1095 C5517,1117 5563,1148 5602,1187 C5642,1226 5673,1272 5695,1323 C5717,1375 5729,1431 5729,1491 C5729,1550 5718,1606 5695,1658 C5673,1710 5642,1757 5602,1796 C5562,1836 5517,1867 5465,1889 C5413,1911 5357,1923 5297,1923 C5238,1923 5183,1912 5130,1889 C5078,1867 5032,1836 4993,1796 C4954,1756 4923,1710 4901,1658 C4879,1606 4867,1550 4867,1491 L4867,1491 Z M5036,1491 C5036,1527 5043,1561 5056,1593 C5069,1625 5088,1653 5112,1676 C5136,1700 5163,1718 5195,1732 C5227,1745 5261,1752 5297,1752 C5333,1752 5367,1745 5399,1732 C5431,1719 5459,1700 5482,1676 C5506,1652 5524,1625 5538,1593 C5551,1561 5558,1527 5558,1491 C5558,1455 5551,1422 5538,1390 C5525,1359 5506,1331 5482,1307 C5458,1283 5431,1265 5399,1251 C5367,1238 5333,1231 5297,1231 C5261,1231 5227,1238 5195,1251 C5163,1264 5135,1283 5112,1307 C5088,1331 5070,1358 5056,1390 C5043,1421 5036,1455 5036,1491 L5036,1491 Z" id="Shape" sketch:type="MSShapeGroup"></path>
        </g>
    </g>
</svg>