<?xml version="1.0" encoding="utf-8"?>
<!-- Generator: Adobe Illustrator 15.0.0, SVG Export Plug-In . SVG Version: 6.00 Build 0)  -->
<!DOCTYPE svg PUBLIC "-//W3C//DTD SVG 1.1//EN" "http://www.w3.org/Graphics/SVG/1.1/DTD/svg11.dtd">
<svg version="1.1" id="Layer_1" xmlns="http://www.w3.org/2000/svg" xmlns:xlink="http://www.w3.org/1999/xlink" x="0px" y="0px"
	 width="1118.55px" height="204.477px" viewBox="0 0 1118.55 204.477" enable-background="new 0 0 1118.55 204.477"
	 xml:space="preserve">
<g>
	<path d="M810.181,135.328l7.92,38.4C797.703,197.249,764.101,155.97,810.181,135.328L810.181,135.328z M870.226,184.179
		c0,0-4.336-0.622-4.447-0.667c-3.756-0.362-4.787-8.322-4.787-8.322c0-0.074-7.979-47.419-7.979-47.419
		c0,0.058-1.887-9.202-1.887-9.202c-1.943-9.848-3.959-20.052-7.713-29.427c-12.26-28.421-47.441-33.096-73.354-25.421
		c-4.152,1.262-8.092,3.395-8.092,3.395v17.616c10.656-4.624,21.049-4.904,29.461-0.906c10.941,5.299,14.027,18.779,14.594,24.362
		c0,0.095,0.959,6.241,0.959,6.241c-12.637,1.904-28.342,5.024-39.92,13.191c-12.939,9.223-19.748,23.918-18.238,39.271
		c0.471,16.331,13.107,29.403,25.311,33.93c16.221,5.734,38.484,4.808,51.723-10.433c0.076-0.075,1.623-1.801,1.623-1.801
		l3.746,3.648c9.658,10.13,20.24,9.811,32.5,9.45l6.508-0.131L870.226,184.179L870.226,184.179z M554.755,175.668
		c0,0-13.572,9.956-34.366,7.049c-19.062-2.667-24.953-32.522-24.953-32.522l73.535-23.757c0,0-1.383-32.124-19.128-49.561
		c-16.241-15.959-40.879-20.708-63.548-11.363c-13.489,5.224-25.958,19.253-31.744,35.719
		c-11.303,31.348-4.579,66.421,16.736,87.257c19.669,18.836,50.269,18.483,72.353,11.864c-0.082,0.02,11.134-4.789,11.134-4.789
		L554.755,175.668L554.755,175.668z M494.432,130.165c-1.167-13.488,0.498-27.908,3.746-34.527c3.289-6.724,7.01-9.313,11.572-9.866
		c19.497-2.364,21.657,33.396,21.657,33.396l-36.976,11.079C494.454,130.271,494.432,130.143,494.432,130.165L494.432,130.165z
		 M1104.33,175.668c0,0-13.57,9.956-34.359,7.049c-19.061-2.667-24.951-32.522-24.951-32.522l73.531-23.757
		c0,0-1.381-32.124-19.131-49.561c-16.24-15.959-40.879-20.708-63.549-11.363c-13.48,5.224-25.951,19.253-31.74,35.719
		c-11.301,31.348-4.58,66.421,16.74,87.257c19.67,18.836,50.27,18.483,72.35,11.864c-0.08,0.02,11.129-4.789,11.129-4.789
		L1104.33,175.668L1104.33,175.668z M1044.009,130.165c-1.16-13.488,0.5-27.908,3.75-34.527c3.291-6.724,7.01-9.313,11.57-9.866
		c19.5-2.364,21.66,33.396,21.66,33.396l-36.98,11.079C1044.031,130.271,1044.009,130.143,1044.009,130.165L1044.009,130.165z
		 M251.014,135.489l7.92,38.399C238.534,197.408,204.934,156.128,251.014,135.489L251.014,135.489z M311.059,184.339
		c0,0-4.337-0.623-4.448-0.669c-3.755-0.361-4.787-8.32-4.787-8.32c0-0.075-7.978-47.419-7.978-47.419
		c0,0.056-1.886-9.203-1.886-9.203c-1.943-9.849-3.96-20.051-7.714-29.426c-12.259-28.422-47.44-33.096-73.351-25.422
		c-4.155,1.262-8.092,3.394-8.092,3.394v17.618c10.656-4.624,21.049-4.905,29.46-0.908c10.941,5.3,14.026,18.78,14.592,24.364
		c0,0.094,0.96,6.239,0.96,6.239c-12.637,1.905-28.34,5.024-39.92,13.193c-12.939,9.221-19.747,23.917-18.238,39.271
		c0.471,16.331,13.108,29.403,25.311,33.93c16.221,5.734,38.483,4.809,51.722-10.432c0.077-0.075,1.622-1.801,1.622-1.801
		l3.748,3.647c9.658,10.129,20.239,9.811,32.5,9.45l6.506-0.131L311.059,184.339L311.059,184.339z M925.312,81.787l0.039,119.824
		l42.719-0.019v-76.692l0.17-2.864c0.381-6.317,0.738-12.844,3.699-18.353c6.391-12.353,21.199-12.09,31.551-10.752L1011,60.74
		c0,0-4.719-1.981-11.619-1.999c-19.121,0-29.551,22.181-29.67,22.429l-1.811,4.263V82.71l-0.012-24.104L925.312,81.787
		L925.312,81.787z M443.556,58.878l-43.274,23.19v119.477l43.365-0.018L443.556,58.878L443.556,58.878z M444.715,20.928
		c-1.646-4.661-5.123-9.139-9.491-12.217c-9.866-5.956-24.042-4.249-31.639,3.828c-5.745,5.37-8.494,14.362-7.017,22.958
		c1.166,8.036,7.743,14.485,13.323,17.069c9.199,3.684,22.875,2.934,31.22-7.368c4.725-5.662,6.248-15.882,3.604-24.292V20.928
		L444.715,20.928z M918.541,58.719l-43.275,23.19v119.477l43.365-0.018L918.541,58.719L918.541,58.719z M919.699,20.769
		c-1.646-4.662-5.121-9.139-9.49-12.218c-9.867-5.955-24.041-4.249-31.641,3.829c-5.744,5.37-8.492,14.363-7.016,22.958
		c1.166,8.036,7.742,14.486,13.322,17.07c9.199,3.682,22.877,2.932,31.219-7.369c4.727-5.663,6.248-15.881,3.605-24.293V20.769
		L919.699,20.769z M667.708,177.892c-11.371-5.915-20.881-14.6-22.098-39.522c-1.418-29.024,4.352-49.418,19.854-55.33
		c11.76-4.485,27.906,5.409,27.906,5.409l0.16-23.458c0,0-22.139-10.731-46.984-2.795c-22.436,7.169-36.895,24.655-42.021,53.247
		c-3.734,20.83-0.771,43.834,9.545,61.922c11.885,19.577,34.412,29.765,60.109,26.275c6.99-0.949,21.557-5.435,21.557-5.435
		l-0.203-21.678C695.531,176.528,679.429,183.991,667.708,177.892L667.708,177.892z M700.818,201.415h42.623V16.066l-42.623,22.819
		V201.415L700.818,201.415z M316.024,81.789l0.037,119.825l42.721-0.02v-76.692l0.17-2.864c0.377-6.317,0.734-12.844,3.698-18.353
		c6.394-12.353,21.198-12.091,31.554-10.752l7.506-32.193c0,0-4.716-1.98-11.618-1.998c-19.125,0-29.555,22.181-29.668,22.429
		l-1.811,4.263v-2.722l-0.016-24.104L316.024,81.789L316.024,81.789z M0,81.546v120.091h41.928l0.085-89.908
		c0-7.021,6.968-13.188,13.94-12.96c6.534,0.213,13.102,6.38,13.102,12.96c0,0,0.019,88.172,0.019,89.812c1.754,0,41.981,0,43.755,0
		c0-1.64-0.075-89.812-0.075-89.812c0.073-7.104,7.572-13.276,14.72-12.96c6.538,0.288,12.782,6.463,12.782,12.96l0.001,89.772
		h43.999l-0.075-104.019c0-4.281,0-10.488-1.151-15.465c-2.207-8.902-9.769-16.579-18.391-18.619
		c-19.935-4.9-38.081,2.7-48.566,20.333l-0.983,1.643l-0.697-1.773c-5.224-13.051-13.485-20.276-24.557-21.466
		c-18.427-2.865-32.649,4.152-46.21,22.767l-1.698,2.341c0,0,0-24.313,0-27.05C39.382,61.494,0,81.546,0,81.546L0,81.546z"/>
</g>
</svg>
