<?xml version="1.0" encoding="utf-8"?>
<!-- Generator: Adobe Illustrator 16.0.4, SVG Export Plug-In . SVG Version: 6.00 Build 0)  -->
<!DOCTYPE svg PUBLIC "-//W3C//DTD SVG 1.1//EN" "http://www.w3.org/Graphics/SVG/1.1/DTD/svg11.dtd">
<svg version="1.1" id="Calque_1" xmlns="http://www.w3.org/2000/svg" xmlns:xlink="http://www.w3.org/1999/xlink" x="0px" y="0px"
	 width="7086.609px" height="5669.289px" viewBox="0 0 7086.609 5669.289" enable-background="new 0 0 7086.609 5669.289"
	 xml:space="preserve">
<g>
	<path fill="#1D1D1B" d="M1016.809,1975.223H760.24v-958.414h363.721c257.939,0,403.155,163.422,403.155,376.266
		c0,212.891-145.216,374.852-403.155,374.852h-107.151V1975.223z M1111.262,1551.02c115.544,0,157.853-64.883,157.853-157.945
		c0-92.992-42.309-159.289-157.853-159.289h-94.453v317.234H1111.262z"/>
	<path fill="#1D1D1B" d="M1692.456,1975.223h-250.936l466.649-975.297c4.223-9.82,12.616-9.82,16.921,0l465.207,975.297h-265.066
		l-36.654-81.789H1727.73L1692.456,1975.223z M1905.327,1479.074l-95.863,222.711h194.59L1905.327,1479.074z"/>
	<path fill="#1D1D1B" d="M2840.479,1987.887c-269.268,0-498.998-203-498.998-491.945c0-288.922,228.298-490.461,484.786-490.461
		c207.288,0,334.183,87.43,414.505,205.828l-193.169,131.039c-36.612-56.383-95.801-114.148-217.031-114.148
		c-140.942,0-226.98,116.93-226.98,267.742c0,150.961,88.798,269.289,235.374,269.289c124.124,0,184.764-56.461,225.621-132.57
		l197.36,126.891C3167.431,1918.832,3034.914,1987.887,2840.479,1987.887"/>
	<path fill="#1D1D1B" d="M3293.44,1495.949c0-288.914,238.217-490.477,514.541-490.477c276.199,0,514.436,201.562,514.436,490.477
		c0,288.93-238.236,491.922-514.436,491.922C3531.657,1987.871,3293.44,1784.879,3293.44,1495.949 M4060.244,1495.949
		c0-150.828-91.537-267.766-252.264-267.766c-160.686,0-252.348,116.938-252.348,267.766c0,150.961,91.662,269.266,252.348,269.266
		C3968.707,1765.215,4060.244,1646.91,4060.244,1495.949 M3795.209,661.605c4.285-5.672,8.424-5.672,12.771,0l225.506,295.922
		h-179.119l-52.053-54.883l-53.555,54.883h-179.078L3795.209,661.605z"/>
	<path fill="#1D1D1B" d="M4442.996,999.926c0-8.508,5.48-9.836,12.607-2.828l491.984,474.922l486.465-474.922
		c5.416-5.68,12.523-4.273,12.523,2.828v975.289h-256.611v-441.211l-241.039,238.156c-5.479,5.734-7.002,5.734-12.605,0
		l-236.836-238.156v441.211h-256.488V999.926z"/>
	<polygon fill="#1D1D1B" points="5613.543,1016.809 6285.904,1016.809 6285.904,1232.48 5870.215,1232.48 5870.215,1455.066 
		6216.861,1455.066 6216.861,1659.52 5870.215,1659.52 5870.215,1759.551 6305.639,1759.551 6305.639,1975.207 5613.543,1975.207 	
		"/>
	<path fill="#1D1D1B" d="M1395.474,2900.16c19.794-39.508,30.969-83.227,33.832-132.555h214.282
		c-4.305,119.844-45.1,222.836-110.014,305.953l153.63,194.547h-297.446l-35.202-43.672
		c-67.644,36.562-148.028,57.719-235.405,57.719c-212.85,0-369.333-105.773-369.333-281.883
		c0-142.375,78.973-214.188,212.85-279.094c-39.466-64.969-59.209-133.961-59.209-188.945
		c0-142.398,117.059-233.992,280.545-233.992c162.138,0,269.248,83.102,269.248,217.164c0,106.977-54.966,174.711-173.384,239.484
		L1395.474,2900.16z M1069.808,2863.559c-42.309,32.32-57.768,66.227-57.768,111.312c0,62.078,39.507,102.828,125.432,102.828
		c29.62,0,59.229-5.547,88.798-16.875L1069.808,2863.559z M1243.192,2526.551c0-38.039-18.332-57.766-52.144-57.766
		c-33.791,0-56.335,12.719-56.335,54.984c0,35.352,11.195,60.625,40.774,98.609
		C1217.856,2595.621,1243.192,2566.121,1243.192,2526.551"/>
	<path fill="#1D1D1B" d="M749.828,4079.957c0-286.977,236.568-487.148,511.048-487.148c274.346,0,510.935,200.172,510.935,487.148
		c0,287.055-236.589,488.586-510.935,488.586C986.396,4568.543,749.828,4367.012,749.828,4079.957 M1511.492,4079.957
		c0-149.812-91.074-265.922-250.617-265.922c-159.697,0-250.668,116.109-250.668,265.922c0,149.828,90.971,267.406,250.668,267.406
		C1420.418,4347.363,1511.492,4229.785,1511.492,4079.957"/>
	<polygon fill="#1D1D1B" points="1940.478,3603.918 2195.316,3603.918 2195.316,4341.801 2599.914,4341.801 2599.914,4556.02 
		1940.478,4556.02 	"/>
	<rect x="2772.557" y="3603.918" fill="#1D1D1B" width="254.756" height="952.102"/>
	<path fill="#1D1D1B" d="M3635.1,4565.785c-4.098,8.32-12.523,8.32-16.725,0l-448.018-961.867h271.667l194.601,443.867
		l189.008-443.867h259L3635.1,4565.785z"/>
	<rect x="4227.912" y="3603.918" fill="#1D1D1B" width="254.922" height="952.102"/>
	<polygon fill="#1D1D1B" points="4702.883,3603.918 5370.65,3603.918 5370.65,3818.254 4957.66,3818.254 4957.66,4039.316 
		5301.977,4039.316 5301.977,4242.309 4957.66,4242.309 4957.66,4341.801 5390.178,4341.801 5390.178,4556.02 4702.883,4556.02 	"/>
	<path fill="#1D1D1B" d="M6321.684,4556.02h-275.643l-133.043-218.445h-95.205v218.445h-254.9v-952.125h361.248
		c256.18,0,400.324,162.562,400.324,374c0,137.102-60.168,246.352-172.199,307.836L6321.684,4556.02z M5911.473,4134.582
		c114.793,0,156.834-64.391,156.834-156.688c0-92.422-42.041-158.258-156.834-158.258h-93.68v314.945H5911.473z"/>
	<path fill="#1D1D1B" d="M1583.75,3211.91h4526.434c75.861,0,137.678-57.773,137.678-128.656v-599.852
		c0-71-61.816-128.773-137.678-128.773H1664.834c-15.922,0-28.858-12.555-28.858-28.172c0-15.547,12.936-28.219,28.858-28.219
		h4445.349c107.811,0,195.434,83.102,195.434,185.164v599.852c0,101.945-87.623,185.094-195.434,185.094H1664.834"/>
	<path fill="#1D1D1B" d="M138.426,1075.348c-32.473,0-58.777-26.219-58.777-58.727V565.145
		c0-216.094,175.805-391.812,391.94-391.812h579.506c32.503,0,58.807,26.32,58.807,58.781c0,32.508-26.304,58.719-58.807,58.719
		H471.589c-151.303,0-274.417,123.102-274.417,274.312v451.477C197.171,1049.129,170.909,1075.348,138.426,1075.348"/>
	<path fill="#1D1D1B" d="M6615.104,5399.449h-579.629c-32.402,0-58.787-26.266-58.787-58.789c0-32.445,26.385-58.664,58.787-58.664
		h579.629c151.211,0,274.324-123.219,274.324-274.43V4556.02c0-32.523,26.264-58.789,58.725-58.789
		c32.566,0,58.809,26.266,58.809,58.789v451.547C7006.961,5223.723,6831.074,5399.449,6615.104,5399.449"/>
	<polygon fill="#1D1D1B" points="1828.712,2636.012 1876.551,2636.012 1876.551,2909.207 2018.225,2909.207 2018.225,2952.48 
		1828.712,2952.48 	"/>
	<path fill="#1D1D1B" d="M2029.018,2691.402c-9.032-3.734-17.148-14.422-17.148-27.922c0-17.695,13.986-30.711,29.342-30.711
		c16.241,0,30.228,13.016,30.228,30.25c0,10.242-3.615,18.617-9.475,29.32l-26.18,49.797h-23.029L2029.018,2691.402z"/>
	<path fill="#1D1D1B" d="M2179.271,2632.77h5.397l134.464,319.711H2269.5l-17.591-44.68h-140.324l-17.611,44.68h-46.006
		L2179.271,2632.77z M2234.762,2866.379l-38.343-98.641c-7.683-18.625-15.356-47.016-15.356-47.016s-7.219,28.391-14.892,47.016
		l-38.343,98.641H2234.762z"/>
	<path fill="#1D1D1B" d="M2581.695,2952.48h-55.028l-55.048-83.297c-8.59,0.922-17.148,1.875-25.737,1.875h-28.879v81.422h-47.808
		v-316.469h76.687c84.833,0,132.229,45.625,132.229,118.219c0,48.875-21.216,82.367-61.382,100.516L2581.695,2952.48z
		 M2444.09,2828.699c60.918,0,85.276-27.469,85.276-74.469c0-47.477-25.264-74.93-85.276-74.93h-27.087v149.398H2444.09z"/>
	<polygon fill="#1D1D1B" points="2706.2,2679.309 2615.064,2679.309 2615.064,2636.02 2844.732,2636.02 2844.732,2679.309 
		2753.575,2679.309 2753.575,2952.504 2706.2,2952.504 	"/>
	<polygon fill="#1D1D1B" points="2999.434,2636.012 3194.374,2636.012 3194.374,2679.301 3047.273,2679.301 3047.273,2802.168 
		3177.668,2802.168 3177.668,2844.527 3047.273,2844.527 3047.273,2909.207 3200.677,2909.207 3200.677,2952.48 2999.434,2952.48 	
		"/>
	<polygon fill="#1D1D1B" points="3332.833,2679.309 3241.698,2679.309 3241.698,2636.02 3471.366,2636.02 3471.366,2679.309 
		3380.209,2679.309 3380.209,2952.504 3332.833,2952.504 	"/>
	<polygon fill="#1D1D1B" points="3626.057,2636.012 3673.887,2636.012 3673.887,2909.207 3815.58,2909.207 3815.58,2952.48 
		3626.057,2952.48 	"/>
	<path fill="#1D1D1B" d="M3978.861,2632.77h5.418l134.463,319.711h-49.641l-17.592-44.68h-140.334l-17.59,44.68h-46.037
		L3978.861,2632.77z M4034.352,2866.379l-38.354-98.641c-7.662-18.625-15.324-47.016-15.324-47.016s-7.23,28.391-14.893,47.016
		l-38.354,98.641H4034.352z"/>
	<path fill="#1D1D1B" d="M4272.074,2632.754h4.965l146.637,176.852l145.32-176.852h4.963v319.727h-45.582v-164.273
		c0-17.688,1.812-45.617,1.812-45.617s-14.893,23.742-27.541,38.172l-77.16,95.875h-5.396l-77.16-95.875
		c-11.74-14.43-27.086-38.172-27.086-38.172s1.812,27.93,1.812,45.617v164.273h-45.584V2632.754z"/>
	<path fill="#1D1D1B" d="M4755.283,2632.77h5.418l134.465,319.711h-49.662l-17.592-44.68H4687.6l-17.592,44.68h-46.037
		L4755.283,2632.77z M4810.775,2866.379l-38.354-98.641c-7.662-18.625-15.324-47.016-15.324-47.016s-7.23,28.391-14.893,47.016
		l-38.354,98.641H4810.775z"/>
	<polygon fill="#1D1D1B" points="4975.436,2679.309 4884.289,2679.309 4884.289,2636.02 5113.959,2636.02 5113.959,2679.309 
		5022.812,2679.309 5022.812,2952.504 4975.436,2952.504 	"/>
	<rect x="5167.162" y="2636.02" fill="#1D1D1B" width="47.377" height="316.461"/>
	<polygon fill="#1D1D1B" points="5289.865,2636.012 5484.805,2636.012 5484.805,2679.301 5337.693,2679.301 5337.693,2802.168 
		5468.1,2802.168 5468.1,2844.527 5337.693,2844.527 5337.693,2909.207 5491.109,2909.207 5491.109,2952.48 5289.865,2952.48 	"/>
	<path fill="#1D1D1B" d="M5767.205,2952.48h-55.018l-55.059-83.297c-8.59,0.922-17.137,1.875-25.727,1.875h-28.879v81.422h-47.828
		v-316.469h76.707c84.844,0,132.219,45.625,132.219,118.219c0,48.875-21.217,82.367-61.361,100.516L5767.205,2952.48z
		 M5629.609,2828.699c60.908,0,85.277-27.469,85.277-74.469c0-47.477-25.275-74.93-85.277-74.93h-27.086v149.398H5629.609z"/>
	<polygon fill="#1D1D1B" points="5827.639,2636.012 6022.58,2636.012 6022.58,2679.301 5875.469,2679.301 5875.469,2802.168 
		6005.875,2802.168 6005.875,2844.527 5875.469,2844.527 5875.469,2909.207 6028.883,2909.207 6028.883,2952.48 5827.639,2952.48 	
		"/>
</g>
</svg>
