<svg xmlns="http://www.w3.org/2000/svg" viewBox="0 0 89.2 125.7" enable-background="new 0 0 89.2 125.7"><g fill="#A64D42"><path d="M13.1 85.5l2.7 2.7.3-.1-2.7-2.7-.3.1M13.5 85.3l2.7 2.7.3-.2-2.7-2.7c-.1.1-.2.2-.3.2M13.9 85.1l2.7 2.7.3-.2-2.7-2.7c-.1.1-.2.2-.3.2M17.6 77.6c-.4-.4-.8-.7-1.3-.9.5.9.8 1.9.8 3 0 2-1 3.9-2.9 5.2l2.7 2.7c1.8-1.3 2.9-3.2 2.9-5.2.1-1.8-.7-3.5-2.2-4.8M13.1 70.8c-.2-.1-.6-.4-1-.6l2.7 2.7c.5.3.8.5 1 .6l.1.1-2.7-2.7s-.1 0-.1-.1M13.8 71.1h-.3l2.7 2.7h.5l-2.7-2.7h-.2M16.3 66.7M14.1 71.1c.1 0 .1-.1 0 0 .1-.1.1 0 0 0"/><path d="M15 70.4l1.5-2.2-1.5 2.2z"/></g><path fill="#A64D42" d="M14.5 70.9l2.5 2.6z"/><g fill="#A64D42"><path d="M19.4 70.2c0-.3-.1-.5-.2-.6l-.1-.1-2.7-2.7.1.1v.1c.1.1.1.3.1.5v.7l-1.6 2.2c-.1.2-.3.3-.4.4l2.7 2.7c.2-.1.3-.3.4-.4l1.5-2.2c.1-.2.2-.5.2-.7"/><path d="M17 73.5l-2.6-2.6-.3.1h-.1l2.7 2.7.3-.1v-.1zM16.6 67.9v.1-.1M16.6 67.8M16.4 66.9M16.4 66.9c0-.1-.1-.1-.1-.1.1 0 .1 0 .1.1M16.6 67.8v-.4l-.1-.5c.1.1.1.3.1.5v.4"/></g><path fill="#A64D42" d="M14.1 71.1l2.7 2.7-2.7-2.7zM16.5 68.2zM14.2 71l.3-.1c-.1.1-.2.1-.3.1"/><path fill="#E26F59" d="M13.8 80.5s-.1.5-.4 1c-.1.1-.2.2-.3.4-.5.6-1.3 1.3-2.6 1.6h-1c-2.4 0-4.2-1.2-4.3-1.2-.1 0-.1-.1 0-.2 0-.1.1-.1.2 0 0 0 2 1.3 4.6 1.2h.3c1.6-.2 2.5-1.2 2.9-1.9.3-.5.4-.8.4-.8s.5-1.8-.4-3c-.6-.9-2.5-1.9-4.2-2.8-1-.5-1.9-1-2.5-1.4-.2-.1-.6-.5-1-1.1-.3-.6-.6-1.3-.5-2.3.1-1 .6-1.9 1.4-2.5.9-.7 2-1.1 3.3-.9 1.5.2 2.5.5 3.1.8 0 0 .1 0 .1.1.6.3.8.5.8.6.1.1.1.2 0 .2-.1.1-.2.1-.2 0 0 0-.3-.3-.8-.6-.1-.1-.3-.1-.5-.2-.6-.2-1.4-.5-2.5-.6-1.5-.1-2.5.4-3 .9-.7.6-1.2 1.5-1.3 2.3-.1.7.1 1.3.3 1.9.3.6.7 1.1 1.1 1.3.6.4 1.5.9 2.5 1.4 1.8 1 3.6 2 4.3 2.9.7 1 .2 2.8.2 2.9m1.4-4.5c-.3-.4-.6-.8-1-1.1-1.1-.9-2.4-1.6-3.4-2l-.4-.2c-1.1-.4-1.8-.8-2.3-1.2-.6-.5-.8-1-.8-1.6 0-.9.9-1.5 1.8-1.5 1.5 0 3.3 1.2 3.9 1.6.1.1.1.1.2.1l.2.1c.1 0 .2 0 .3-.1h.1c.2-.1.3-.2.4-.3l1.5-2.2c.1-.1.1-.3.1-.5 0-.1-.1-.3-.2-.4h-.1c-1.1-.8-3.4-2.2-6.2-2.2-2.1 0-3.8.6-5 1.8-1.1 1-1.7 2.5-1.7 4s.6 2.8 1.7 3.9l.2.2c.9.9 2.2 1.7 3.7 2.3 1.3.5 3 1.4 3 2.9 0 .2 0 .4-.1.6-.3.7-1 1.1-1.9 1.1-1.4 0-3-.8-4-1.5l-.1-.1c-.1-.1-.2-.1-.4-.1-.3 0-.5.1-.6.3l-1.4 2.4c-.1.2-.2.3-.1.5 0 .1.1.2.2.3l.1.1c.5.5 2.5 2.2 6.5 2.2 4.3 0 6.8-3 6.8-6 .1-1.3-.3-2.4-1-3.4"/><path fill="#A64D42" d="M16 66.4M9.5 85.6c-4.1 0-6.2-1.8-6.7-2.3l-.1-.1c-.1-.1-.2-.2-.2-.3-.1-.2-.1-.4.1-.7l1.4-2.4c.2-.3.4-.4.8-.4.1 0 .2 0 .3.1l.2.1s.1 0 .1.1c1.5 1 2.7 1.4 3.4 1.5h.4c.8 0 1.4-.4 1.7-1 .1-.2.1-.4.1-.6v-.1c-.1-1.3-1.6-2.1-2.8-2.6-1.6-.6-2.9-1.4-3.8-2.3l-.2-.2c-.9-.9-1.5-2-1.7-3.2l-.1-.9c0-1.6.6-3 1.8-4.1 1.3-1.2 3.1-1.9 5.2-1.9.6 0 1.1.1 1.6.2 2.1.4 3.8 1.4 4.7 2.1l.1.1c.2.1.2.3.3.6 0 .2 0 .4-.1.6l-1.5 2.1c-.1.2-.2.3-.4.4 0 0-.1 0-.1.1-.1.1-.2.1-.3.1h-.2c-.1 0-.3 0-.4-.1 0 0-.1-.1-.2-.1-.6-.4-2.3-1.6-3.8-1.6-.8 0-1.6.5-1.6 1.2 0 1 .9 1.7 3 2.6.1 0 .2.1.4.2 1 .4 2.4 1.1 3.5 2.1.5.5 1 1 1.3 1.5.6.9.9 2 .9 3.1 0 3-2.7 6.1-7.1 6.1m-6.1-11.9l.2.3c-.1-.1-.2-.2-.2-.3m11.6 1.3l-.1-.1s.1 0 .1.1m1.1 1.5c-.3-.5-.6-1-1.1-1.5l-.5-.5c-1.1-1-2.5-1.6-3.5-2.1.3-.3.7-.4 1.1-.4.8 0 1.6.3 2.3.7l-2.7-2.7c-.7-.4-1.6-.7-2.3-.7-.6 0-1.3.4-1.3 1 0 .3.1.6.3.8-.4-.3-.6-.7-.6-1.1 0-.6.7-1 1.3-1 .9 0 1.8.4 2.6.9.5.3.8.5 1 .6.1.1.2.1.2.1l.2.1h.6l.3-.1s.1 0 .1-.1c.2-.1.3-.3.4-.4l1.5-2.2c.1-.2.2-.5.2-.8 0-.2-.1-.4-.2-.5l-.1-.1-.1-.1-.1-.1c-1.2-.8-3.5-2.3-6.5-2.3-2.1 0-3.9.7-5.2 2-1.2 1.1-1.8 2.7-1.8 4.3 0 1.6.6 3 1.8 4.3l.1.1h.1l.1.1-.1-.1.1.1c1 .9 2.3 1.7 3.9 2.4.8.3 1.7.7 2.2 1.4-.5-.5-1.3-.8-1.9-1.1-1.6-.6-2.9-1.4-3.9-2.4l-.1-.1 2.7 2.7.1.1c.9.8 2 1.6 3.4 2.2-.2.5-.7.8-1.4.8s-1.9-.2-3.7-1.4c-.1 0-.1-.1-.1-.1-.2-.1-.4-.2-.7-.2-.4 0-.8.2-1 .5l-1.4 2.4c-.4.6-.2 1 .1 1.3l.1.1.2.2c.7.7 2.9 2.2 6.7 2.2 1.8 0 3.2-.5 4.4-1.2 0 0 .1 0 .1-.1 1.8-1.3 2.9-3.2 2.9-5.2-.1-.9-.3-1.9-.8-2.8"/><path fill="#fff" d="M9.5 85.4c-4 0-6-1.7-6.5-2.2l-.1-.1-.2-.3c0-.1 0-.3.1-.5l1.4-2.4c.1-.2.3-.3.6-.3.2 0 .3 0 .4.1l.1.1c1.1.7 2.6 1.5 4 1.5.9 0 1.6-.5 1.9-1.1.1-.2.1-.4.1-.6 0-1.6-1.7-2.4-3-2.9-1.5-.6-2.8-1.4-3.7-2.3l-.2-.2c-1.1-1.1-1.7-2.5-1.7-3.9 0-1.5.6-2.9 1.7-4 1.2-1.2 3-1.8 5-1.8 2.8 0 5.1 1.4 6.2 2.2h.1c.1.1.2.3.2.4 0 .2 0 .3-.1.5l-1.5 2.2c-.1.1-.2.3-.4.3h-.1l-.3.1c-.1 0-.2 0-.2-.1 0 0-.1-.1-.2-.1-.6-.4-2.4-1.6-3.9-1.6-.9 0-1.8.6-1.8 1.5 0 .6.3 1.1.8 1.6.5.4 1.2.8 2.3 1.2.1 0 .3.1.4.2 1 .4 2.3 1.1 3.4 2 .4.3.7.7 1 1.1.7 1 1.1 2.1 1.1 3.3-.1 3-2.7 6.1-6.9 6.1m6.2-9.1c-.3-.6-.8-1.1-1.3-1.5-1.1-1-2.4-1.6-3.5-2.1l-.4-.2c-2.1-.9-3-1.6-3-2.6 0-.8.8-1.2 1.6-1.2 1.5 0 3.2 1.2 3.8 1.6.1.1.2.1.2.1.1.1.2.1.4.1h.2l.3-.1s.1 0 .1-.1c.2-.1.3-.2.4-.4l1.5-2.2c.1-.2.1-.4.1-.6 0-.2-.1-.4-.3-.6l-.1-.1c-.9-.7-2.6-1.7-4.7-2.1-.5-.1-1.1-.2-1.6-.2-2.1 0-3.9.6-5.2 1.9-1.1 1.1-1.8 2.6-1.8 4.1 0 .3 0 .6.1.9.2 1.2.7 2.2 1.7 3.2.1.1.1.2.2.2 1 .9 2.2 1.7 3.8 2.3 1.2.5 2.7 1.2 2.8 2.6v.1c0 .2 0 .3-.1.5-.2.6-.8 1-1.7 1h-.4c-.8-.1-1.9-.4-3.4-1.5-.1 0-.1-.1-.1-.1l-.2-.1-.3-.1c-.3 0-.6.1-.8.4l-1.4 2.4c-.2.3-.2.5-.1.7 0 .1.1.2.2.3l.1.1c.5.5 2.6 2.3 6.7 2.3 4.4 0 7.1-3.2 7.1-6.3 0-.7-.3-1.8-.9-2.7"/><path fill="#A64D42" d="M27.9 85.7l2.7 2.7.3-.2-2.7-2.7c-.1.1-.2.2-.3.2"/><path fill="#A64D42" d="M28.4 85.1l-.1.3 2.7 2.7c.1-.1.1-.2.1-.3l-2.7-2.7zM27.4 85.9h-3.5c-.2 0-.5-.1-.6-.2l2.5 2.5c.2.3.5.4.8.4h3.5l-2.7-2.7"/><path fill="#A64D42" d="M28.4 84.8l2.7 2.8v-19.200000000000003c0-.3-.1-.5-.3-.7l-2.7-2.7c.2.2.3.5.3.7v19.1zM27.5 85.9l2.7 2.7.3-.1-2.7-2.7-.3.1M23.2 85.7l-.2-.2c.1.1.2.1.2.2"/><path fill="#E26F59" d="M25.5 68.6v14.2c0 .1-.1.2-.2.2h-.1v-15.999999999999998c0-.1.1-.2.2-.2h.1v1.8zm1.9-3.7c-.1-.1-.2-.1-.3-.1h-3.5c-.3 0-.5.3-.5.6v19.2c0 .1 0 .2.1.3.1.1.3.2.4.2h3.4c.3 0 .5-.3.5-.6v-19.1c.1-.2 0-.4-.1-.5"/><path fill="#A64D42" d="M27.5 85.2c-.1 0-.1.1 0 0-.2.1-.3.1-.4.1h-3.5c-.2 0-.5-.1-.6-.3-.1-.1-.1-.2-.1-.3l-.1-.3v-19c0-.4.4-.8.8-.8h3.4c.1 0 .2 0 .3.1.1 0 .2.1.2.1.2.1.3.4.3.6v19.2c.1.2-.1.5-.3.6m.4-20.4l-.1-.2-.1-.1c-.2-.2-.4-.3-.7-.3h-3.5c-.6 0-1.1.5-1.1 1.1v19.2c0 .3.2.6.4.8l.1.1c.2.1.4.2.6.2h3.6l.3-.1s.1 0 .1-.1l.2-.2s0-.1.1-.1c.1-.1.1-.2.1-.3v-19.4c.2-.2.1-.4 0-.6"/><path fill="#fff" d="M27.6 84.5c0 .3-.3.5-.5.5h-3.5c-.2 0-.3-.1-.4-.2-.1-.1-.1-.2-.1-.3v-19.1c0-.3.3-.6.5-.6h3.4c.1 0 .2 0 .3.1.1.1.2.3.2.4v19.2zm-.1-19.8c-.1-.1-.1-.1-.2-.1l-.3-.1h-3.5c-.4 0-.8.4-.8.8v19.2c0 .1 0 .2.1.3 0 .1.1.2.1.2.1.2.4.3.6.3h3.5c.1 0 .2 0 .3-.1 0 0 .1 0 .1-.1.2-.1.4-.4.4-.7v-19c.1-.3-.1-.5-.3-.7M25.4 66.9h-.1c-.1 0-.2.1-.2.2v15.9h.1c.1 0 .2-.1.2-.2v-15.799999999999999c.1-.1 0-.1 0-.1"/><path fill="#A64D42" d="M79.5 76.3l2.7 2.7v-.4l-2.7-2.8zM79.5 77.5l2.7 2.8v-.5l-2.7-2.7zM79.5 76.9l2.7 2.8v-.5l-2.7-2.8zM79.5 84.8l2.7 2.8v-7.3l-2.7-2.7v7.2zM78.6 85.9l2.7 2.7.3-.1-2.7-2.7-.3.1M79 85.7l2.7 2.7.2-.2-2.7-2.7c0 .1-.1.1-.2.2M79.3 85.4l2.7 2.7c.1-.1.1-.2.1-.3l-2.7-2.7c0 .1 0 .2-.1.3M78.4 85.9h-3.4c-.3 0-.5-.1-.7-.3l2.7 2.7c.2.2.4.3.7.3h3.5l-2.8-2.7M73 64.9M72.7 64.6M88.7 67.9l-.1-.2-2.8-2.7s.1.1.1.2c.2.3.2.7 0 1.1l-6.4 9.5 2.7 2.7 6.4-9.5c.2-.4.2-.8.1-1.1M85.4 65.8l-6.5 9.6v9.2c0 .3-.2.5-.4.7 0 0-.1 0-.1.1l-.3.1h-3.4c-.3 0-.5-.1-.6-.3-.1-.1-.1-.1-.1-.2l-.1-.3v-9.100000000000001l-6.4-9.6-.1-.2c-.1-.2-.1-.5 0-.7.1-.3.4-.4.7-.4h3.8c.1 0 .2 0 .3.1.1 0 .2.1.2.1l.2.2 3.8 5.6.2-.3.4-.7 3.2-4.7c.1-.1.3-.4.7-.4h3.8c.1 0 .2 0 .3.1.1 0 .2.1.2.1l.2.2c.1.2.1.5 0 .8m.2-1c-.1-.1-.1-.1-.1-.2l-.1-.1c-.2-.2-.4-.2-.7-.2h-3.8c-.5 0-.8.3-.9.5l-3.1 4.6-1-1.5-.2-.2-2.7-2.7.1.1 3.4 4.9v.1l-3.6-5.3-.1-.1-.1-.1c-.2-.2-.5-.2-.7-.2h-3.8c-.4 0-.7.2-.9.5-.2.3-.2.7 0 1.1l6.3 9.6v9.1c0 .3.1.5.3.7v.1s.1.1.2.1c.2.1.4.2.6.2h3.6l.3-.1s.1 0 .1-.1l.2-.2s0-.1.1-.1c.1-.1.1-.2.1-.3v-9.6l6.4-9.5c.3-.3.3-.7.1-1.1"/><path fill="#fff" d="M85.1 65.6l-6.4 9.5-.1.1v9.299999999999999c0 .3-.3.6-.6.6h-3.4c-.2 0-.3-.1-.4-.2-.1-.1-.1-.2-.1-.3v-9.299999999999999l-.1-.1-6.3-9.5c-.1-.2-.1-.4 0-.6.1-.2.3-.3.5-.3h3.8c.1 0 .2 0 .3.1.1 0 .1.1.2.2l3.6 5.3.4.6 4-5.9c.1-.1.2-.3.5-.3h3.8c.1 0 .2 0 .3.1.1 0 .1.1.2.2 0 .2-.1.4-.2.5m.3-.6c-.1-.1-.1-.2-.2-.2-.1-.1-.1-.1-.2-.1l-.3-.1h-3.8c-.4 0-.6.2-.7.4l-3.8 5.6-3.8-5.6-.2-.2c-.1-.1-.1-.1-.2-.1l-.3-.1h-3.8c-.3 0-.6.1-.7.4-.1.2-.1.4 0 .7 0 .1 0 .1.1.2l6.4 9.6v9.100000000000001c0 .1 0 .2.1.3 0 .1.1.2.1.2.1.2.4.3.6.3h3.4c.1 0 .2 0 .3-.1 0 0 .1 0 .1-.1.2-.1.4-.4.4-.7v-9.2l6.4-9.6c.2-.2.2-.5.1-.7"/><path fill="#A64D42" d="M76.4 82.9c.1 0 .2-.1.2-.2v-.2l-.3.3.1.1M48.1 85.7l2.7 2.7.3-.2-2.7-2.7c-.1.1-.2.2-.3.2"/><path fill="#A64D42" d="M48.5 85.1l-.1.3 2.7 2.7c.1-.1.1-.2.1-.3l-2.7-2.7zM47.7 85.9l2.7 2.7c.1 0 .2 0 .3-.1l-2.7-2.7-.3.1M47.5 85.9h-10.9c-.3 0-.5-.1-.7-.3l2.7 2.7c.2.2.4.3.7.3h10.9l-2.7-2.7"/><path fill="#A64D42" d="M48.6 84.8v.1l2.7 2.7v-3.3000000000000003c0-.3-.1-.5-.2-.7l-.1.1-2.7-2.7c.2.2.3.5.3.7v3.1z"/><path fill="#E26F59" d="M37.7 82.9v-15.900000000000002c0-.1.1-.2.2-.2s.1.1.1.2v15.6h7.2c.1 0 .2.1.2.2s-.1.2-.2.2h-7.5zm9.9-1.9c-.1-.1-.2-.1-.4-.1h-6.8v-15.5c0-.2-.1-.3-.2-.4-.1-.1-.2-.1-.3-.1h-3.4c-.3 0-.5.2-.5.6v19.2c0 .1 0 .2.1.3.1.1.3.2.4.2h10.9c.3 0 .6-.2.6-.6v-3.2l-.4-.4"/><path fill="#A64D42" d="M48 84.5c0 .3-.2.6-.4.7h-.1l-.3.1h-10.9c-.2 0-.5-.1-.6-.3-.1-.1-.1-.1-.1-.2l-.1-.3v-19.1c0-.4.4-.8.8-.8h3.4c.1 0 .2 0 .3.1.1 0 .2.1.2.1.2.1.3.4.3.6v15.2h6.6c.1 0 .2 0 .3.1.1 0 .2.1.3.2.2.1.3.4.3.6v3zm.1-3.7l-.1-.2c-.2-.2-.4-.3-.7-.3h-3.3v-11.9c0-.3-.1-.6-.4-.8l-2.7-2.7c.2.2.3.4.3.7v14.7h-.3v-15c0-.2-.1-.4-.2-.6l-.1-.2h-.1c-.2-.2-.4-.2-.7-.2h-3.4c-.6 0-1.1.5-1.1 1.1v19.2c0 .3.1.5.3.7 0 0 .1.1.2.1.2.1.4.2.6.2h11c.1 0 .2 0 .3-.1 0 0 .1 0 .1-.1l.3-.2s0-.1.1-.1c.1-.1.1-.2.1-.3v-3.4000000000000004c0-.2-.1-.4-.2-.6"/><path fill="#A64D42" d="M48 84.6z"/><path fill="#fff" d="M47.8 84.5c0 .3-.2.6-.5.6h-11c-.2 0-.3-.1-.4-.2-.1-.1-.1-.2-.1-.3v-19.2c0-.3.2-.6.6-.6h3.4c.1 0 .2 0 .3.1.1.1.2.3.2.4v15.5h6.8l.4.1c.1.1.2.2.2.4v3.2zm0-3.7l-.3-.2h-6.8999999999999995v-15.2c0-.3-.1-.5-.3-.6-.1-.1-.1-.1-.2-.1l-.3-.1h-3.4c-.4 0-.8.4-.8.8v19.2c0 .1 0 .2.1.3 0 .1.1.2.1.2.1.2.4.3.6.3h10.9c.1 0 .2 0 .3-.1h.1c.2-.1.4-.4.4-.7v-3.2c-.1-.3-.2-.5-.3-.6M45.1 82.6h-7.1v-15.6c0-.1-.1-.2-.2-.2s-.2.1-.2.2v15.9h7.5c.1 0 .2-.1.2-.2s-.1-.1-.2-.1"/><path fill="#A64D42" d="M66.1 85.7l2.7 2.7.3-.2-2.7-2.7c-.1.1-.2.2-.3.2"/><path fill="#A64D42" d="M66.5 85.1l-.1.3 2.7 2.7c.1-.1.1-.2.1-.3l-2.7-2.7zM65.6 85.9l2.7 2.7c.1 0 .2 0 .3-.1l-2.6-2.7c-.1 0-.2.1-.4.1M65.5 85.9h-10.9c-.3 0-.5-.1-.7-.3l2.7 2.7c.2.2.4.3.7.3h10.9l-2.7-2.7"/><path fill="#A64D42" d="M66.6 84.8v.1l2.7 2.7v-3.3000000000000003c0-.3-.1-.5-.2-.7l-.1.1-2.7-2.7c.2.2.3.5.3.7v3.1z"/><path fill="#E26F59" d="M55.7 82.9v-15.900000000000002c0-.1.1-.2.2-.2s.1.1.1.2v15.6h7.2c.1 0 .2.1.2.2s-.1.2-.2.2h-7.5zm9.9-1.9c-.1-.1-.2-.1-.4-.1h-6.8v-15.5c0-.2-.1-.3-.2-.4-.1-.1-.2-.1-.3-.1h-3.4c-.3 0-.5.2-.5.6v19.2c0 .1 0 .2.1.3.1.1.3.2.4.2h10.9c.3 0 .6-.2.6-.6v-3.2l-.4-.4"/><path fill="#A64D42" d="M66 84.5c0 .3-.2.6-.4.7h-.1l-.3.1h-10.9c-.2 0-.5-.1-.6-.3-.1-.1-.1-.1-.1-.2l-.1-.3v-19.1c0-.4.4-.8.8-.8h3.4c.1 0 .2 0 .3.1.1 0 .2.1.2.1.2.1.3.4.3.6v15.2h6.6c.1 0 .2 0 .3.1.1 0 .2.1.3.2.2.1.3.4.3.6v3zm.1-3.7l-.1-.2c-.2-.2-.4-.3-.7-.3h-3.3v-11.9c0-.3-.1-.6-.4-.8l-2.7-2.7c.2.2.3.4.3.7v14.7h-.3v-15c0-.2-.1-.4-.2-.6l-.1-.2h-.1c-.2-.2-.4-.2-.7-.2h-3.4c-.6 0-1.1.5-1.1 1.1v19.2c0 .3.1.5.3.7 0 0 .1.1.2.1.2.1.4.2.6.2h11c.1 0 .2 0 .3-.1 0 0 .1 0 .1-.1l.3-.2s0-.1.1-.1c.1-.1.1-.2.1-.3v-3.4000000000000004c0-.2-.1-.4-.2-.6"/><path fill="#A64D42" d="M66 84.6z"/><path fill="#fff" d="M65.8 84.5c0 .3-.2.6-.5.6h-11c-.2 0-.3-.1-.4-.2-.1-.1-.1-.2-.1-.3v-19.2c0-.3.2-.6.6-.6h3.4c.1 0 .2 0 .3.1.1.1.2.3.2.4v15.5h6.8l.4.1c.1.1.2.2.2.4v3.2zm-.1-3.7l-.3-.2h-6.8999999999999995v-15.2c0-.3-.1-.5-.3-.6-.1-.1-.1-.1-.2-.1l-.3-.1h-3.4c-.4 0-.8.4-.8.8v19.2c0 .1 0 .2.1.3 0 .1.1.2.1.2.1.2.4.3.6.3h10.9c.1 0 .2 0 .3-.1h.1c.2-.1.4-.4.4-.7v-3.2c0-.3-.1-.5-.3-.6M63.1 82.6h-7.1v-15.6c0-.1-.1-.2-.2-.2s-.2.1-.2.2v15.9h7.5c.1 0 .2-.1.2-.2s-.1-.1-.2-.1M13.3 77.2c-.7-.9-2.5-1.9-4.3-2.9-.9-.5-1.8-1-2.5-1.4-.4-.3-.8-.7-1.1-1.3-.2-.5-.4-1.1-.3-1.9.1-.9.6-1.7 1.3-2.3.6-.5 1.6-1 3-.9 1.1.1 1.9.3 2.5.6l.5.2c.6.3.8.5.8.6.1.1.2.1.2 0 .1-.1.1-.2 0-.2 0 0-.3-.3-.8-.6 0 0-.1 0-.1-.1-.6-.3-1.6-.7-3.1-.8-1.2-.1-2.4.2-3.3.9-.8.7-1.3 1.6-1.4 2.5-.1 1 .2 1.8.5 2.3.4.6.9 1 1 1.1.6.4 1.5.9 2.5 1.4 1.7.9 3.6 1.9 4.2 2.8.9 1.3.4 3 .4 3s-.1.4-.4.8c-.4.7-1.3 1.7-2.9 1.9h-.3c-2.6.2-4.6-1.2-4.6-1.2h-.2v.2c.1.1 1.9 1.2 4.3 1.2h1c1.4-.2 2.2-1 2.6-1.6l.3-.4c.3-.5.4-.9.4-1 .3.3.8-1.5-.2-2.9"/><path fill="#A64D42" d="M2.6 83.5"/><path fill="#A64D42" d="M13 85.6c-.9.4-2 .6-3.2.6-3.9 0-6-1.6-6.7-2.3l2.6 2.6c.6.6 2.7 2.4 6.9 2.4 1.2 0 2.3-.2 3.2-.6l-2.8-2.7zM3 83.9"/><path fill="#CAB580" d="M4 111h1c.1 0 .3 0 .4.1l-.1-.2c-.2-.1-.4-.2-.6-.2h-.9v1.4h.2v-1.1zM6.1 109.9l.4.2c.5-.3 1.1-.9 1.1-1.7 0-.6-.3-1.2-.8-1.5.3.3.5.8.5 1.2 0 .8-.7 1.5-1.2 1.8M7.1 110.7c.2.3.4.6.4 1.1 0 1.3-1.1 2.2-2.5 2.2h-2.7v.1c0 .1.1.2.2.2h2.8c1.4 0 2.5-.9 2.5-2.2 0-.6-.3-1.1-.7-1.4"/><path fill="#CAB580" d="M3.8 107.6v1.4h.2v-1.1h1.2l-.1-.2c-.1-.1-.3-.1-.5-.1h-.8zM14.8 107.7h-3.2v1.2h.4v-.9h3.2c.1 0 .2-.1.2-.2v-1.2c0-.1-.1-.2-.2-.2h-.1v1.2s-.1.1-.3.1M15.1 112.6l-.1 1.2c0 .1-.1.2-.2.2h-4.7v.1c0 .1.1.2.2.2h4.7c.1 0 .2-.1.2-.2v-1.2c.2-.2.1-.3-.1-.3M14.3 110.8h-2.6v1.3h.3v-1h2.6c.1 0 .2-.1.2-.2v-1.2c0-.1-.1-.2-.2-.2h-.1v1.2s-.1.1-.2.1M22.3 112.6l-.1 1.2c0 .1-.1.2-.2.2h-4.2v.1c0 .1.1.2.2.2h4.3c.1 0 .2-.1.2-.2v-1.2c0-.2 0-.3-.2-.3"/><path fill="#CAB580" d="M19.6 112.1v-5.6c0-.1-.1-.2-.2-.2h-.1v5.8h.3zM30.8 110.2l-.1 3c0 .1 0 .1-.1.2 0 0-1.2.7-2.8.7-1.1 0-2-.4-2.8-1.1.8.8 1.8 1.4 3.1 1.4 1.7 0 2.8-.7 2.8-.7s.1-.1.1-.2v-3.1c0-.1-.1-.2-.2-.2"/><path fill="#CAB580" d="M28.2 111.4c0 .2.1.3.2.3h.2v-.3h-.4zM30.6 107.3l-.9 1c-.1.1-.2.1-.3 0-.4-.4-.9-.5-1.5-.5-1.2 0-2.3 1.1-2.3 2.3 0 .6.2 1.1.6 1.5l.2.1c-.3-.4-.4-.8-.4-1.3 0-1.3 1-2.3 2.3-2.3.6 0 1.1.1 1.5.5.1.1.2.1.3 0l.9-1c.1-.1.1-.2 0-.3l-.2-.2c-.2.1-.2.1-.2.2M35.1 106.3l-.1 7.5c0 .1-.1.2-.2.2h-1.3v.1c0 .1.1.2.2.2h1.4c.1 0 .2-.1.2-.2v-7.6c0-.1-.1-.2-.2-.2"/><path fill="#CAB580" d="M39.9 111h.4l.5-1.1-.2-.4z"/><g fill="#CAB580"><path d="M41.2 106.3c0-.1-.1-.1-.2-.1l3.5 7.5c.1.1 0 .3-.2.3h-1.4000000000000001c.1.2.2.3.4.3h1.3c.2 0 .3-.1.2-.3l-3.6-7.7zM39.1 112.8l-.4.9c-.1.1-.2.3-.4.3h-1.2c-.1.1 0 .3.2.3h1.3c.2 0 .4-.1.4-.3l.4-.9h2.8l-.1-.3h-3zM53.3 106.3l-.1 7.6c0 .1-.1.2-.2.2h-.2s-.1 0-.1-.1l.3.3.1.1h.2c.1 0 .2-.1.2-.2v-7.7c0-.1-.1-.2-.2-.2"/><path d="M48.2 109.5v4.3c0 .1-.1.2-.2.2h-1.3v.1c0 .1.1.2.2.2h1.4c.1 0 .2-.1.2-.2v-4.3l-.3-.3zM61.7 111h.9c.1 0 .3 0 .4.1l-.1-.2c-.2-.1-.4-.2-.6-.2h-.9v1.4h.3v-1.1zM64.7 110.7c.2.3.4.6.4 1.1 0 1.3-1.1 2.2-2.5 2.2h-2.8v.1c0 .1.1.2.2.2h2.8c1.4 0 2.5-.9 2.5-2.2.1-.6-.2-1.1-.6-1.4"/><path d="M61.4 107.6v1.4h.3v-1.1h1.2l-.1-.2c-.1-.1-.3-.1-.5-.1h-.9zM63.7 109.9l.4.2c.5-.3 1.1-.9 1.1-1.7 0-.6-.3-1.2-.8-1.5.3.3.5.8.5 1.2 0 .8-.7 1.5-1.2 1.8M71.9 110.8h-2.6v1.3h.3v-1h2.6c.1 0 .2-.1.2-.2v-1.2c0-.1-.1-.2-.2-.2h-.1v1.2s-.1.1-.2.1M72.5 107.7h-3.2v1.2h.3v-.9h3.2c.1 0 .2-.1.2-.2v-1.2c0-.1-.1-.2-.2-.2h-.1v1.2s-.1.1-.2.1M72.8 112.6l-.1 1.2c0 .1-.1.2-.2.2h-4.7v.1c0 .1.1.2.2.2h4.7c.1 0 .2-.1.2-.2v-1.2c.1-.2 0-.3-.1-.3M79.5 110.8h-2.6v1.3h.3v-1h2.6c.1 0 .2-.1.2-.2v-1.2c0-.1-.1-.2-.2-.2h-.1v1.2s-.1.1-.2.1M80.1 107.7h-3.2v1.2h.3v-.9h3.2c.1 0 .2-.1.2-.2v-1.2c0-.1-.1-.2-.2-.2h-.1v1.2s-.1.1-.2.1M80.4 112.6l-.1 1.2c0 .1-.1.2-.2.2h-4.7v.1c0 .1.1.2.2.2h4.7c.1 0 .2-.1.2-.2v-1.2c.1-.2 0-.3-.1-.3"/><path d="M87.5 111.1c1-.4 1.7-1.2 1.7-2.3 0-.8-.3-1.4-.9-1.9.4.4.6 1 .6 1.6 0 1.1-.7 1.9-1.7 2.3l1.6 2.9c.1.1 0 .3-.2.3h-1.5l.1.2s.1.1.2.1h1.5c.2 0 .3-.2.2-.3l-1.6-2.9zM84.8 107.9h1.7c.1 0 .2 0 .3.1l-.1-.2c-.1-.1-.3-.2-.5-.2h-1.7v1.6h.3v-1.3zM84.6 110.9v2.9c0 .1-.1.2-.2.2h-1.4v.1c0 .1.1.2.2.2h1.4c.1 0 .2-.1.2-.2v-2.9h.5l-.1-.3h-.6zM6.8 106.9l-.3-.3.2.2c.1 0 .1 0 .1.1M7.1 110.7l-.3-.3.1.2c.1.1.2.1.2.1M24.7 112.8c.1.1.2.2.3.2l-.1-.1-.2-.1M52.5 113.8l.2.3-.2-.3M53 106v.3M64.7 110.7l-.3-.3.1.2c.1 0 .2.1.2.1M64.5 106.9l-.3-.3.2.2.1.1"/><path d="M59.6 113.8c0 .1.1.2.2.2h.1v-.2h-.3zM88.3 106.9l-.3-.3.1.2c.1 0 .2.1.2.1M26.4 111.7l-.1-.1-.2-.1.3.2"/></g><path fill="#CAB580" d="M48.2 109.5l.3.3-.3-.3zM48.5 109.8l4 4z"/><path fill="#A64D42" d="M4.6 112.1h-1.1v-1.6h.9c.3 0 .6.2.8.4l.1.2v.2c.1.5-.3.8-.7.8m-.2-4.7c.3 0 .5.1.7.4l.1.2v.2c0 .5-.4.8-.8.8h-.9000000000000001v-1.6h.9zm2.6 3.2l-.1-.2c-.1-.1-.2-.3-.4-.4-.1-.1-.3-.2-.4-.2l-.3-.2c.5-.3 1.3-.9 1.3-1.8 0-.4-.1-.8-.4-1.1l-.2-.2c-.5-.5-1.1-.8-1.9-.8h-2.7c-.1 0-.2.1-.2.2v7.6c0 .1.1.2.2.2h2.8c1.4 0 2.5-.9 2.5-2.2.1-.3 0-.6-.2-.9M14.8 112.3c0-.1-.1-.2-.2-.2h-3.2v-1.5h2.6c.1 0 .2-.1.2-.2v-1.3c0-.1-.1-.2-.2-.2h-2.5v-1.4h3.2c.1 0 .2-.1.2-.2v-1.3c0-.1-.1-.2-.2-.2h-4.8c-.1 0-.2.1-.2.2v7.6c0 .1.1.2.2.2h4.7c.1 0 .2-.1.2-.2v-1.3M22 112.3c0-.1-.1-.2-.2-.2h-2.7v-6.1c0-.1-.1-.2-.2-.2h-1.4c-.1 0-.2.1-.2.2v7.6c0 .1.1.2.2.2h4.3c.1 0 .2-.1.2-.2v-1.3"/><path fill="#A64D42" d="M30.5 110.2v-.3c0-.1-.1-.2-.2-.2h-2.3c-.1 0-.2.1-.2.2v1.1c0 .1.1.2.2.2h.7v.7c-.3.1-.7.2-1 .2-.5 0-.9-.2-1.3-.4l.1.1-.3-.3c-.5-.4-.8-1-.8-1.7 0-1.3 1-2.3 2.3-2.3.6 0 1.1.1 1.5.5.1.1.2.1.3 0l.9-1 .1-.1v-.1s0-.1-.1-.1c-.8-.7-1.8-1.1-2.8-1.1-2.3 0-4.1 1.8-4.1 4.1 0 1.2.5 2.3 1.3 3l.1.1c.7.6 1.6 1 2.7 1 1.7 0 2.8-.7 2.8-.7s.1-.1.1-.2v-2.7zM34.8 106c0-.1-.1-.2-.2-.2h-1.4c-.1 0-.2.1-.2.2v7.6c0 .1.1.2.2.2h1.4000000000000001c.1 0 .2-.1.2-.2v-7.6M40.3 111h-.7l.9-1.9.2.3.2.5.5 1.1h-1.1zm4 2.5l-3.4-7.3-.1-.3v-.1c0-.1-.1-.1-.2-.1h-.1c-.1 0-.2.1-.2.1l-3.6 7.7c-.1.2 0 .3.2.3h1.2000000000000002c.2 0 .4-.1.4-.3l.4-.9h3.1l.1.2.1.3.2.4.2.3h1.5c.2 0 .3-.2.2-.3"/><path fill="#A64D42" d="M53 106.3v-.3c0-.1-.1-.2-.2-.2h-1.4c-.1 0-.2.1-.2.2v4.1l-4.6-4.4h-.3c-.1 0-.2.1-.2.2v7.7c0 .1.1.2.2.2h1.4000000000000001c.1 0 .2-.1.2-.2v-4.3l.2.2.3.3 4 4 .1.1h.2c.1 0 .2-.1.2-.2v-7.4zM62.2 112.1h-1v-1.6h.9c.3 0 .6.2.8.4l.1.2v.2c0 .5-.4.8-.8.8m-1-4.7h.8c.3 0 .5.1.7.4l.1.2v.2c0 .5-.4.8-.8.8h-.8999999999999999v-1.6zm3.4 3.2l-.1-.2c-.1-.1-.2-.3-.4-.4-.1-.1-.3-.2-.4-.2l-.3-.2c.5-.3 1.3-.9 1.3-1.8 0-.4-.1-.8-.4-1.1l-.2-.2c-.5-.5-1.1-.8-1.9-.8h-2.7c-.1 0-.2.1-.2.2v7.6c0 .1.1.2.2.2h2.8c1.4 0 2.5-.9 2.5-2.2.1-.3 0-.6-.2-.9"/><path fill="#A64D42" d="M72.5 112.6v-.3c0-.1-.1-.2-.2-.2h-3.2v-1.5h2.6c.1 0 .2-.1.2-.2v-1.3c0-.1-.1-.2-.2-.2h-2.6v-1.4h3.2c.1 0 .2-.1.2-.2v-1.3c0-.1-.1-.2-.2-.2h-4.7c-.1 0-.2.1-.2.2v7.6c0 .1.1.2.2.2h4.7c.1 0 .2-.1.2-.2v-1zM80.1 106c0-.1-.1-.2-.2-.2h-4.7c-.1 0-.2.1-.2.2v7.6c0 .1.1.2.2.2h4.7c.1 0 .2-.1.2-.2v-1.3c0-.1-.1-.2-.2-.2h-3.2v-1.5h2.6c.1 0 .2-.1.2-.2v-1.3c0-.1-.1-.2-.2-.2h-2.6v-1.4h3.2c.1 0 .2-.1.2-.2v-1.3"/><path fill="#A64D42" d="M84.3 107.4h1.7c.3 0 .6.1.7.4l.1.2.1.3c0 .5-.4.9-.9.9h-1.7v-1.8zm2.7 3.1c1-.4 1.7-1.2 1.7-2.3 0-.5-.2-1-.5-1.5l-.1-.2c-.5-.5-1.1-.8-1.9-.8h-3.4c-.1 0-.2.1-.2.2v7.6c0 .1.1.2.2.2h1.3c.1 0 .2-.1.2-.2v-2.9h.8l.1.2.1.3 1.3 2.5s.1.1.2.1h1.5999999999999999c.2 0 .3-.2.2-.3l-1.6-2.9z"/><path fill="#E26F59" d="M19.7 98.1l-1-2.2-1 2.2h2zm-3.6 1.7l2.4-5.4.1-.1h.1s.1 0 .1.1l2.4 5.4c0 .1 0 .2-.1.2h-.5c-.1 0-.2 0-.2-.1l-.4-1.1h-2.6l-.5 1.1c0 .1-.1.1-.2.1h-.5s-.1-.1-.1-.2"/><path fill="#E26F59" d="M26.6 97.1c.5 0 1-.4 1-1 0-.5-.5-.9-1-.9h-1.4v1.9h1.4zm-2.3-2.5c0-.1.1-.2.2-.2h2.2c1 0 1.7.8 1.7 1.7 0 .7-.5 1.3-1.2 1.6l1.1 2c.1.1 0 .2-.1.2h-.6c-.1 0-.1 0-.1-.1l-1.1-2.1h-1.2v2c0 .1-.1.2-.2.2h-.5c-.1 0-.2-.1-.2-.2v-5.1zM32.5 95.2h-1.3c-.1 0-.2-.1-.2-.2v-.4c0-.1.1-.2.2-.2h3.4c.1 0 .2.1.2.2v.4c0 .1-.1.2-.2.2h-1.3v4.7c0 .1-.1.2-.2.2h-.5c-.1 0-.2-.1-.2-.2v-4.7zM37.7 94.6c0-.1.1-.2.2-.2h.5c.1 0 .2.1.2.2v5.3c0 .1-.1.2-.2.2h-.5c-.1 0-.2-.1-.2-.2v-5.3zM41.9 99.2l.2-.3c.1-.1.2-.1.3-.1 0 0 .7.5 1.3.5.5 0 .9-.3.9-.7 0-.5-.4-.8-1.2-1.1-.8-.3-1.4-.8-1.4-1.7 0-.6.5-1.5 1.7-1.5.8 0 1.4.4 1.5.5.1 0 .1.2 0 .3l-.2.3c-.1.1-.2.2-.3.1-.1 0-.6-.4-1.1-.4-.7 0-.9.4-.9.7 0 .5.4.7 1 1 .9.4 1.7.8 1.7 1.8 0 .8-.7 1.5-1.8 1.5-1 0-1.6-.5-1.7-.6 0-.1-.1-.2 0-.3M51.5 98.1l-1-2.2-1 2.2h2zm-3.6 1.7l2.4-5.4.1-.1h.1s.1 0 .1.1l2.4 5.4c0 .1 0 .2-.1.2h-.5c-.1 0-.2 0-.2-.1l-.5-1.1h-2.6l-.5 1.1c0 .1-.1.1-.2.1h-.5c.1 0 0-.1 0-.2"/><path fill="#E26F59" d="M56.1 94.5c0-.1.1-.1.2-.1h.2l3.5 4v-3.8c0-.1.1-.2.2-.2h.5c.1 0 .2.1.2.2v5.4c0 .1-.1.1-.2.1h-.2l-3.6-4.1v3.9c0 .1-.1.2-.2.2h-.5c-.1 0-.2-.1-.2-.2v-5.4zM67.3 98.1l-1-2.2-1 2.2h2zm-3.6 1.7l2.4-5.4.1-.1h.1s.1 0 .1.1l2.4 5.4c0 .1 0 .2-.1.2h-.5c-.1 0-.2 0-.2-.1l-.5-1.1h-2.5l-.5 1.1c0 .1-.1.1-.2.1h-.5c-.1 0-.2-.1-.1-.2"/><path fill="#E26F59" d="M71.8 94.6c0-.1.1-.2.2-.2h.5c.1 0 .2.1.2.2v4.7h2.2c.1 0 .2.1.2.2v.4c0 .1-.1.2-.2.2h-2.9c-.1 0-.2-.1-.2-.2v-5.3zM18.2 124.8l.2-.3c.1-.1.2-.1.3-.1 0 0 .7.5 1.3.5.5 0 .9-.3.9-.7 0-.5-.4-.8-1.2-1.1-.8-.3-1.4-.8-1.4-1.7 0-.6.5-1.5 1.7-1.5.8 0 1.4.4 1.5.5.1 0 .1.2 0 .3l-.2.3c-.1.1-.2.2-.3.1-.1 0-.6-.4-1.1-.4-.7 0-.9.4-.9.7 0 .5.3.7 1 1 .9.4 1.7.8 1.7 1.8 0 .8-.7 1.5-1.8 1.5-1 0-1.6-.5-1.7-.6v-.3"/><path fill="#E26F59" d="M24.5 120.2c0-.1.1-.2.2-.2h.5c.1 0 .2.1.2.2v5.3c0 .1-.1.2-.2.2h-.5c-.1 0-.2-.1-.2-.2v-5.3zM28.4 120.1c0-.1.1-.1.2-.1h.2l3.5 4v-3.8c0-.1.1-.2.2-.2h.5c.1 0 .2.1.2.2v5.4c0 .1-.1.1-.2.1h-.2l-3.5-4.1v3.9c0 .1-.1.2-.2.2h-.5c-.1 0-.2-.1-.2-.2v-5.4zM38.6 120c.8 0 1.4.3 1.9.7.1.1.1.2 0 .2l-.3.4c-.1.1-.1.1-.2 0-.4-.3-.9-.5-1.4-.5-1.1 0-2 1-2 2.1s.9 2.1 2 2.1c.6 0 1-.2 1.4-.5.1-.1.1 0 .2 0l.4.4c.1.1 0 .2 0 .2-.5.5-1.2.8-1.9.8-1.6 0-2.9-1.3-2.9-2.9 0-1.7 1.3-3 2.8-3"/><path fill="#E26F59" d="M43.3 120.2c0-.1.1-.2.2-.2h3.2c.1 0 .2.1.2.2v.4c0 .1-.1.2-.2.2h-2.5v1.6h2.1c.1 0 .2.1.2.2v.4c0 .1-.1.2-.2.2h-2.1v1.7h2.5c.1 0 .2.1.2.2v.4c0 .1-.1.2-.2.2h-3.2c-.1 0-.2-.1-.2-.2v-5.3zM53.3 121.4l-.6.3c-.1 0-.2 0-.2-.1l-.1-.3v-.2l1.1-1h.4c.1 0 .1.1.1.2v5.1c0 .1-.1.2-.1.2h-.5c-.1 0-.2-.1-.2-.2v-4zM59.6 121.6c0-.5-.4-.8-.9-.8s-.9.3-.9.8c0 .4.3.8.9.9.7-.1.9-.5.9-.9m-.9 3.5c.6 0 1-.3 1-.9 0-.4-.4-.9-1-1-.6.1-1 .5-1 1s.5.9 1 .9m-.8-2.3c-.3-.2-.8-.6-.8-1.3 0-.9.7-1.5 1.7-1.5s1.7.6 1.7 1.5c0 .6-.5 1.1-.8 1.2.4.2 1 .6 1 1.3 0 .9-.7 1.5-1.9 1.5-1.1 0-1.8-.7-1.8-1.5-.1-.5.6-1 .9-1.2M63.1 124.8l.3-.3c.1-.1.1-.1.2 0s.5.5 1.1.5c.7 0 1.1-.6 1.1-1.1 0-.6-.4-1-1.1-1h-1.2c-.2 0-.2-.2-.2-.3v-2.2c0-.1.1-.2.2-.2h2.5c.1 0 .2.1.2.2v.4c0 .1-.1.2-.2.2h-1.9v1.3h.8c1.2 0 1.8.7 1.8 1.7s-.8 1.8-1.9 1.8c-.9 0-1.4-.4-1.6-.7-.2-.2-.2-.2-.1-.3M72.1 122.9c0-1.3-.4-2.1-1.2-2.1-.7 0-1.2.7-1.2 2.1 0 1.3.4 2.1 1.2 2.1.8 0 1.2-.8 1.2-2.1m-3.1 0c0-1.7.7-2.8 2-2.8 1.2 0 2 1 2 2.8s-.7 2.8-2 2.8-2-1-2-2.8"/><path fill="#C5B284" d="M68.1 45.9M68.2 45.9c.6 0 1.3 0 1.9-.1h-.3c-.5.1-1.1.1-1.6.1"/><path fill="#CAB580" d="M81.5 40.6v-2.9c0-.3-.2-.6-.6-.7-.3-.1-.7.2-.8.5v3l1.4.1zM5.6 55.4c-1.3-.2-2.6-.4-3.9-.5v1.4c.4.1.9.2 1.3.2h8.6l-2.1-.5c-1.4-.2-2.6-.5-3.9-.6M82.6 49.9c-1.6 0-3.3.2-5 .3l-2.6.2-2.6.3-2.6.4-2.6.4c-.8.2-1.7.4-2.5.5l-1.2.3-1.2.3c-.8.2-1.6.4-2.3.6-.8.2-1.5.5-2.2.7-1.5.4-2.8 1-4 1.4-1 .4-2 .8-2.8 1.2h7.2l.5-.2 2.1-.8 2.2-.7 1.2-.4 1.2-.3c.8-.2 1.6-.4 2.4-.7.8-.2 1.6-.4 2.5-.6.8-.2 1.7-.4 2.5-.5l2.5-.4 2.5-.4c1.7-.2 3.3-.4 4.9-.6 1.6-.1 3.2-.2 4.6-.3h1.8v-.7l-1.8-.1c-1.5.1-3 .1-4.7.1M83.2 52.3c-1.3.1-2.6.3-3.9.5-1.3.2-2.6.4-3.9.7-1.3.3-2.5.5-3.7.9-1.2.3-2.4.6-3.4 1-1.1.3-2.1.7-3.1 1l-.4.2h7.5c1.1-.4 2.3-.7 3.5-1.1 1.2-.3 2.5-.7 3.7-.9 1.3-.3 2.5-.6 3.8-.8 1.3-.2 2.5-.4 3.7-.6.7-.1 1.4-.2 2.1-.2v-.9c-.7-.1-1.4-.1-2.1-.1l-3.8.3M84.5 54.9c-.9.2-1.8.4-2.6.7-.8.2-1.7.5-2.4.8l-.6.2h6.9l1.8-.6 1.5-.4v-1.6l-1.9.3-2.7.6M24.8 55.8l-2.3-.6-1.2-.3-1.2-.3c-.8-.2-1.7-.4-2.5-.5-.8-.2-1.7-.3-2.6-.4h-.1l-2.5-.4c-.2 0-.4 0-.6-.1-.7-.1-1.4-.1-2-.2-.9-.1-1.7-.2-2.6-.2-1.7-.1-3.4-.2-5-.3h-.6v1h.5c1.6.1 3.3.4 4.9.6l2.5.4 2.5.4 2.5.5 2.5.6 1.8.5h8.2-.1c-.6-.2-1.3-.5-2.1-.7M85.2 48.2c-1.8-.1-3.7-.1-5.6-.2-1.9.1-4 .1-6 .2s-4.1.3-6.2.5l-3.1.4-3.1.5c-2 .4-4 .8-5.9 1.3l-2.8.7c-.9.3-1.8.5-2.6.8-.9.2-1.7.6-2.5.8-.8.3-1.6.5-2.3.8-1.1.4-2 .8-3 1.2l-1 .4-1.5.7h5.8c.2-.1.3-.2.5-.2.7-.3 1.4-.6 2.2-.9.8-.3 1.5-.6 2.4-.9l2.5-.9 2.7-.8c1.8-.6 3.8-1 5.7-1.5 1-.3 2-.4 3-.6l3-.6 6.1-.8c2-.1 4-.3 5.9-.4 1.9 0 3.8 0 5.6-.1.9 0 1.7 0 2.6.1.5 0 .9 0 1.4.1v-.5l-1.3-.1c-.8.1-1.6 0-2.5 0"/><path fill="#CAB580" d="M78.7 35.3l.4-4.2 2.9 4.5.9.6-4.4-.3.2-.6zm4.4 7.3c-.6.2-1 .7-1.1 1.3l-3.4-.2v-7.2l4.5.3v5.8zm6 4.8v-4.2c-.5-.9-1.5-1.5-2.5-1.5-.9 0-1.8.4-2.3 1.1-.2-.2-.5-.3-.8-.3h-.1v-5.9l.5-.2-1.6-1-3.3-4.9-3.2 5.1-1.5 1 .5.2v2.8l-8.6-.2-1.4 3.2c-.4.2-.8.5-.9.9-.3-.1-.6-.2-.9-.2-.5 0-.9.2-1.2.4-.5-.7-1.3-1.1-2.2-1.1-1.1 0-2 .7-2.3 1.7-.3-.2-.7-.3-1.1-.3-1.2 0-2.1 1-2.1 2.2-.9 0-1.7.8-1.7 1.7-1.1.2-2.2.5-3.3.8-2.2.6-4.2 1.1-6.2 1.8-1.5.5-2.8 1-4.1 1.5-.9-.3-1.8-.5-2.8-.8-2.2-.5-4.4-1-6.7-1.4l-1.6-.3-1.4-.2-4-.5-1.2-.1c-.5 0-1-.1-1.4-.1-.3 0-.6 0-.9-.1h-1.2c-.8 0-1.6-.1-2.3-.1h-.1v-.3c0-2.3-1.9-4.1-4.1-4.1h-.5c-.4-.3-.9-.5-1.5-.5h-.3c-.8-.9-1.9-1.5-3.2-1.5-.8 0-1.6.2-2.2.7-.3-.5-.8-.8-1.4-.9v7.8999999999999995h.2c1-.1 2-.1 3.1-.2l3.2-.1h5c.5 0 1.1 0 1.6.1h.1l2.8.2h.6l1.3.1c.7.1 1.5.2 2.2.2l2.4.3 1.1.2c.5.1.9.2 1.4.2.7.1 1.4.3 2 .4 2.3.4 4.4 1 6.6 1.6l.4.1c-1 .4-1.9.9-2.8 1.3l-.8-.3c-.9-.3-1.8-.5-2.8-.7-1.9-.5-3.9-.9-5.9-1.3-1-.2-2-.3-3.1-.5l-3.1-.4c-.8-.1-1.7-.2-2.5-.2l-3.7-.3-6-.2-3.6.1v.7h3.6c1.9.1 3.9.3 5.9.4 1.2.1 2.5.3 3.8.5l2.3.3 3 .6c1 .2 2 .3 3 .6 2 .5 3.9.9 5.7 1.5l1.6.5c-.4.2-.7.4-1 .6l-.3.2h5.2c.6-.3 1.2-.7 1.9-1 .6-.3 1.2-.6 1.9-.9l.9-.4c.9-.4 1.9-.8 2.9-1.2l1.4-.6c1.9-.7 3.9-1.4 6-2 2.1-.6 4.3-1.2 6.6-1.6.7-.1 1.4-.3 2-.4.5-.1.9-.2 1.4-.2l1.1-.2c.8-.1 1.6-.2 2.4-.4.7-.1 1.5-.2 2.2-.2l1.3-.1h.6c1-.1 1.9-.1 2.8-.2.6 0 1.1 0 1.7-.1h5c1.1 0 2.2.1 3.2.1 1.1 0 2.1.1 3.1.2s2 .2 2.9.3c.5.1 1 .1 1.6.2l1.2.1c.2 0 .3 0 .5.1v-.3z"/><path fill="#C5B284" d="M12.3 49l-.8.1h-.2.2l.8-.1M14.6 48.8c-.3 0-.5 0-.8.1.3-.1.6-.1.8-.1l3.3-.2h.1-.1c-1.1 0-2.2.1-3.3.2M13.7 48.5h-4 .6.4 1.7 1.3"/><path fill="#A64D42" d="M1.6 56.5h87.5v.6h-87.5z"/><path fill="#fff" d="M37.2 3s.6-.6.6-1.5c-.5.5-1.1.6-1.9.5-1.9-.2-2.9-1.7-7.5-1.4-2.1.7-2.7 1.1-2.9 1.1-8.2 4.8-4.4 13.8-2.9 14.4 0 0-.2-1.3-.6-1.8 2.3 1.2 3.4 3.3 3.1 4.4 0 0 .3-.3.7-.4-.5 1.1-.2 2.6 1.2 2.7-.8-.7-.7-2.1.3-2.8-.4.8.3 2.1 1.2 2.3-.5-.7-.3-1.8.7-2.5-.3 1.1.5 2.4 1.7 2.2-1.4-1.8.7-3.1-.3-5.2-1.1 1.7-2.7 2.1-4 1.7.8-.3 1.7-.8 1.7-2.1-2.2 1.6-4.2.9-5.3-1.1 2.2 1.2 4.1.9 4.6-.8 0 0-1.6 1.1-3.1-.6 4.9 0 4.4-4.4 6.2-5.1 0 0-.3 1 0 1.6 0 0 3-1 3.9-4.2 0 0 .5 1.1.3 2 1.1-.2 2.2-2.4 3.2-2.4-.1-.1 0-.9-.9-1M34.5 7.3c-.4 1.9-2.3 2.2-2.3 2.2l-.2 1.7c2.9.5 1.9 6 5.3 6.7.3.6.5 1.3 1.3 1.3.9 0 1.4-1.3 1.3-1.7-.1-.4.3-1.1 1-1.6.1 0-.4-.2-.5-.5.4.2.4.1.9-.4l-.6-.2c-.3.2-.6.5-1.5.4.8 0 .8-1.3 1.5-1.7l.1-.9c-.3.3-.8.6-1.4.9 0 0-1.3-.3-.5-1.6 0 .7.3.9.3.9.6-.3 1.1-1.3 1.1-1.3.2-.1.6-.1.8 0 .1-.3.2-.6.4-.9-1.2-.6-3.5-1.6-3.1-2.2.1-1.1-.1-2-.9-3-.7.7-1.9 1.8-3 1.9M58.7 21.6c-1.1-1-2-2.1-2.8-3.5-.1.3-.3.6-.5.9-.2.3-.2.6-1.1 1.1-.4.3-.9.5-1.4.5 2.3 5.1 3.2 10 10.3 10.4-1.7 0-4.3 1.2-6.7-.1-1.8 2-.7 3.5.7 4.4v-.1h.2c1.3 0 4.3-1.7 5.3-2.3l.1-.1h.1c.9.1 1.6-.2 1.9-.8v-.1c.1-.1.1-.3.1-.5.2-.9.1-2.2.1-2.2s-.1-3.1-2.6-5.4c-.4-.3-.8-.5-1.3-.8-.1.1-1.7-.9-2.4-1.4M48 27.2l-.3.2-.2-.2c-2.4-2.1-6.1-3.1-9.6-2.7.7.6 2.2 2.1 2.2 3.7.7.6 3.3.1 4.6-.7 0 1.2-1.8 2.4-1.8 2.4 2.8.2 3.9-1.7 3.9-1.7.2.4.5 1 1.1 1.6 1.3-.2 2.3-.3 3-.3.9 0 1.5.2 1.9.6.3.3.4.7.4 1 .2 0 .5.1.8.2.4-.2.9-.5 1.3-.8-1.3-.9-1.8-2.3-1.9-3.2-.4-.4-2.9-1.7-5.4-.1M35.6 31.6c2.2-1 1.4-3.6 3.4-3.5-.3-2-1.6-3.1-2-3.4h-.1c1.6 5.3-1.6 4.7-1.3 6.9M53.7 18.3c.2-.1.4-.2.6-.2-.1-.3-.1-1 .3-2.2.4-1.3 1.4-2.2 1.7-2.1.2.1.3.5.2 1.2.2-.7.3-1.3.2-1.6-.4-.2-.6-.6-.7-.9-.1-.4-.2-.7-.7-.9l-10.3-4s-1.4.1-2.9 2.9c-.4.7-.6 1.6-.6 2.5-.1.4 11.8 5.4 12.2 5.3"/><path fill="#fff" d="M29.6 33.9c.3.2.7.4 1.1.6l1.6-2.1-.7-.2-2 1.7zM24.3 25.1c.3 1.4 1.5 2.9 1.4 3.6 2.9-.1 2.9 1.3 4.2 2.1l.1-.1h.4c1.1 0 1.5.4 1.7.8h.7c-6.4-2.8-8.2-7.5-7.5-7.7v-.3c-.3.1-.6.2-.8.4-.3.4-.2.8-.2 1v.2M20 36.7s.6-1.3 0-2.6c0 0 1.4-.1 1.7 1.5.8-.4 1.8-1.1 2.7-2l.3-.3c1.1-1.1 2-2.4 2.4-3.2l-3.1-.2s.4-2.2-1.1-4.1c-.9.3-2.2 1-3.1 2.6l-.1.2h-.2c-2.6.4-4.7 1.8-5.8 3.7-.7 1.4-.9 3-.5 4.8.8 1.7 2.6 2.3 6.8-.4"/><path fill="#fff" d="M33.9 32.8l-.8-.2-1.7 2.1c.4.1.8.3 1.4.4l1.1-2.3zM33.4 31.7s.8.5 1.6 0c-.1-.5.3-2.1 1.3-2.8.3-1.4.4-3.6-.4-4.3 0 0-1 1.9-.5 2.5-2.6-1.1-1.3-4-3.2-4.8-1.8 4.5 1.6 3.2 1.2 6.9-.5-1.2-3.5-2.3-4-3.6-1 3.6 4 4.9 4 6.1M35.5 23.4c.9 0 1.4-1.3 1.1-2-1.9 0-2.7 1.4-1.1 2M52.3 37h-.3c-.4 0-.8-.1-1.1-.3 0 0-.1 0-.1-.1-.2.9-.4 1.8-.6 2.6-.7 3.4-1.2 6.4-1.4 9.2-.2 2.9-.2 5.6 0 8h1.7c-.4-4.6-.2-9.9 1.2-16.4.2-.9.4-1.9.6-3M30.4 56.5h7.3c-.3-1-.1-1.7 0-2.5.2-1.1.4-2.1-.6-4.2-.6-1.2-.3-2.2-.1-3.3 0-.1 0-.2.1-.2.2-.8.4-1.8.2-2.9-.1-.6-.4-1.3-.8-2l-2.9 1.1c-.6.2-1 .8-1.4 1.6-.9 2.1-1.3 5.4-1.4 7-.2 2.3-.3 4.1-.4 5.4M36.2 32.5s0-.1-.1-.1l-.1-.1h-.30000000000000004l-1.1.5-1.1 2.3s.2.1.3.3c0 .1.1.2.1.2v.1c-1.5-.1-2.6-.5-3.4-.8-.5-.2-.8-.4-1.1-.6-.5-.1-.8-.3-1.4-.3.1-.2.2-.3.3-.4.1-.1.3-.1.5-.1h.2l2.3-1.8c-.1-.2-.7-.3-1-.3l-2.6 2.1-.8 2-.1.3-.2.6c-.1.2-.1.4-.1.6 0 0-.1-.6-.1-1.2v-.6l-.1-.1c-.2-.3-.5-.8-.8-1.1l-.1-.1h-.1c-.1 0-.2 0-.3.3.3.7.4 1.5.4 2.2s-.1 1.3-.4 1.8c.4 1.1 1.5 2.3 1.5 2.3l.1.1v.2c-.2 2-1.6 3.5-3.1 5.1l-.7.7c-1.7 1.7-3.4 3.4-4.3 5.8-.2.5-.3 1.3-.3 2.1s.1 1.6.1 2.1v.6c-.2.4-.3.8-.3 1.1 0 .3.1.7.2.9.3.6 1 .9 1.4.9h.3c1 0 1.8-1.2 1.9-1.2l.1-.2h.2c.7 0 1.3-.2 1.9-.4.6-.2 1.1-.5 1.5-.9l.3-.3c.1-.1.2-.2.3-.4l.1-.2.5-.8c.4-.7.7-1.6 1-2.5.3-1 .5-2 .8-3.1.6-2.6 1.2-5.3 2.7-7.3v-.1h.1c1.9-.9 2.2-2.3 2.7-4.5l.1-.5c.1-.3.2-.7.3-1.1.1-.4.2-.9.4-1.4v-.1l1.4-2.6M41.1 46.7c-.4.2-.8.3-1.1.5-.1.1-.2.1-.4.2-2.8 1.4 4.6-2.3 4.8-8.6-2.8.7-5.1 1.4-7.2 2.2.4.8.7 1.6.8 2.3.3 1.4 0 2.5-.3 3.4-.3 1-.5 1.8 0 2.7.4.8.7 1.6.8 2.2.2 1.1.1 1.8-.1 2.6-.1.7-.3 1.4.1 2.3h4.1c1.8-3 0-6.7-.4-10.2-.3.1-.7.3-1.1.4M52.9 31.8h-.4v-.4c0-.4 0-.7-.2-.8-.2-.2-.6-.3-1.3-.3-1.2 0-3.2.3-6.4 1.1-2.5.6-5.2 1.2-7.9 2l-.5.9c3.6-1 7.3-1.9 10.8-2.6 1.4-.4 2.3-.5 2.9-.5.5 0 .9.1 1.1.4.4.5.2 1.1 0 2.1-.1.5-.3.9-.4 1.3l.2.2c.2.2.5.5.9.6 0-.3 0-.7.1-1 .3-1 1.1-1.7 1.8-1.5l.3.1.2-.9v-.3c-.3-.3-.9-.4-1.2-.4"/><path fill="#fff" d="M35.5 35.5c-.3 1-.5 2-.7 2.8l-.1.6c2.8-.8 5.7-1.6 8.7-2.4l1.9-.5 1.2-3.5c-3.5.8-7.2 1.7-10.9 2.8l-.1.2zM53.3 34c-.3 0-.6.3-.8.8-.1.3-.1.6 0 .8 0 .2.1.3.2.3.2.1.6-.3.8-.8.2-.5.1-1-.2-1.1M25.7 40.9l-.2-.3-.3-.3-.3-.4-.3-.5c-9.4 3.9-17.7 9.3-22 16.8 1.6-3.1 3.7-5.8 6.2-8.2 3.5-3.3 7.9-6 12.7-8.3.9-.4 1.8-.8 2.8-1.2v-.1l-.3-.4.1-.1c.1-.1.2-.3.2-.5-10.4 4.1-19.5 10.1-22.5 19.1l-.2.6-.3 1-.2.8c.4-.4.8-.8 1.1-1.2l.6-.6.4-.4.2-.2c5.4-5.5 10.7-9.2 16.1-11.9 0 0 .1 0 .1-.1 1.8-.9 3.7-1.7 5.5-2.5.4-.3.5-.7.6-1.1"/><path fill="#A64D42" d="M35.8 10.6c.8-.8 2.3-.3 2.6 0 .1-.4.2-1.2-.1-1.8.2-.3.3-.6.1-.9-.2.5-2 .6-2 .6-.2.4-1.5 1.3-1.5 1.3.4.1.9 0 .9 0-.1.2 0 .8 0 .8M38.3 7.7c0-.6-.4-.9-.4-.9-1.7-.1-2.3 1.7-3.4 1.6v.3c1.4.1 2.3-1.3 3.8-1M54.2 31.3c-.3-.1-.6-.2-.8-.2 0-.4-.1-.7-.4-1-.4-.4-1-.6-1.9-.6-.7 0-1.7.1-3 .3-.6-.6-.9-1.1-1.1-1.6 0 0-1.1 1.8-3.9 1.7 0 0 1.7-1.2 1.8-2.4-1.3.8-3.9 1.3-4.6.7 0-1.7-1.5-3.1-2.2-3.7 3.4-.4 7.1.6 9.6 2.7l.2.2.3-.2c2.4-1.6 4.9-.3 5.5 0 .2.9.7 2.3 1.9 3.2-.6.4-1 .6-1.4.9m-.1 1.2l-.2.9c-.1-.1-.2-.1-.3-.1-.7-.2-1.5.5-1.8 1.5-.1.3-.1.7-.1 1-.4-.1-.7-.3-.9-.6l-.2-.2c.1-.3.2-.8.4-1.3.2-1 .4-1.6 0-2.1-.2-.3-.6-.4-1.1-.4-.6 0-1.5.2-2.9.5-3.5.7-7.1 1.6-10.8 2.6l.5-.9c2.7-.7 5.4-1.4 7.9-2 3.2-.7 5.2-1.1 6.4-1.1.6 0 1.1.1 1.3.3.1.1.2.4.2.8v.4h.4c.3 0 .9.1 1.1.3.1.1.1.2.1.4m-.5 2.7c-.2.6-.5.9-.8.8-.1 0-.2-.1-.2-.3-.1-.2-.1-.5 0-.8.1-.5.5-.8.7-.8h.1c.2 0 .3.5.2 1.1m-8.3.9l-1.9.5c-3.1.8-6 1.6-8.7 2.4l.1-.6c.2-.8.4-1.8.7-2.8l.1-.2c3.7-1.1 7.4-2 10.9-2.8l-1.2 3.5zm-11.2 1.6l-.1.5c-.5 2.2-.8 3.6-2.7 4.5h-.1v.1c-1.4 2-2.1 4.7-2.7 7.3-.2 1.1-.5 2.1-.8 3.1-.3.9-.6 1.7-1 2.5-.2.3-.3.6-.5.8l-.1.2-.3.4-.3.3c-.4.4-.9.7-1.5.9-.5.2-1.2.3-1.9.4h-.2l-.2.3s-.8 1.2-1.9 1.2h-.3c-.4-.1-1.1-.3-1.4-.9 0-.3-.1-.6-.1-1 0-.3.1-.7.2-1.2v-.6c-.1-.5-.1-1.3-.1-2.1s.1-1.6.3-2.1c.9-2.4 2.7-4.1 4.3-5.8l.7-.7c1.5-1.6 2.8-3.1 3.1-5.1v-.2l-.1-.1s-1-1.3-1.5-2.3c.3-.5.4-1.1.4-1.8s-.1-1.4-.4-2.2c.1-.3.3-.3.3-.3h.1l.1.1c.3.3.6.8.8 1.1l.1.1v.6c0 .6.1 1.2.1 1.2l.1-.6.2-.6.1-.3.8-2 2.6-2.1c.3 0 .9 0 1 .3l-2.2 2h-.2c-.2 0-.3 0-.5.1-.1.1-.3.2-.3.4.6 0 .9.2 1.3.4.3.2.6.4 1.1.6.8.4 1.9.7 3.4.8v-.1c0-.1 0-.2-.1-.2-.1-.2-.3-.3-.3-.3l1.1-2.3 1.1-.5h.30000000000000004c.1 0 .1 0 .1.1 0 0 0 .1.1.1v.1l-1.5 2.5v.1l-.4 1.4c0 .2 0 .5-.1.9m-30.6 18.8l-.2.2-.4.4-.6.6-1.1 1.2c0-.3.1-.5.2-.8l.3-1 .2-.6c2.9-9 12.1-15 22.5-19.2-.1.2-.1.4-.2.5l-.2.2.1.2v.1l-2.8 1.2c-4.7 2.2-9.1 4.9-12.7 8.3-2.5 2.4-4.6 5.1-6.2 8.2 4.4-7.5 12.7-12.9 22-16.8l.3.5c.1.2.2.3.3.4l.3.3.2.3c-.1.4-.2.8-.4 1.2-1.9.7-3.7 1.6-5.5 2.5 0 0-.1 0-.1.1-5.3 2.9-10.6 6.6-16 12m9.7-19.5c-.4-1.8-.2-3.4.5-4.8 1-2 3.2-3.3 5.8-3.7h.2l.1-.2c.9-1.5 2.2-2.2 3.1-2.6 1.5 1.9 1.1 4.1 1.1 4.1l3.1.2c-.4.8-1.4 2.1-2.4 3.2l-.3.3c-.9.9-1.9 1.7-2.7 2-.3-1.6-1.7-1.5-1.7-1.5.6 1.4 0 2.6 0 2.6-4.1 2.8-6 2.2-6.8.4m11.2-13.1c.2-.2.4-.4.8-.4v.3c-.7.2 1.1 4.8 7.5 7.7h-.7c-.1-.4-.5-.8-1.7-.8h-.4l-.1.1c-1.3-.8-1.3-2.2-4.2-2.1.1-.7-1-2.2-1.3-3.6v-.2c-.1-.2-.1-.6.1-1m6.4 10.6c-.5-.2-.8-.4-1.1-.6l2.1-1.7.7.2-1.7 2.1zm2.3-1.9l.8.2-1.1 2.3c-.5-.1-1-.2-1.4-.4l1.7-2.1zm-3.7-7c.5 1.4 3.5 2.4 4 3.6.3-3.7-3-2.4-1.2-6.9 1.9.8.6 3.7 3.2 4.8-.5-.5.5-2.5.5-2.5.8.7.7 3 .4 4.3-1 .7-1.4 2.3-1.3 2.8-.8.5-1.6 0-1.6 0 0-1.2-5-2.6-4-6.1m7.1-4.3c.4.7-.2 2-1.1 2-1.5-.5-.7-1.9 1.1-2m.4 3.4c.5.3 1.8 1.4 2.1 3.4-2-.1-1.2 2.5-3.3 3.5-.4-2.2 2.8-1.6 1.2-6.9m.2-3.6c2.6-.4 3.5-1.2 3.8-1.8.1-.3.1-.5.2-.7.1-.6-.4-1-.3-1.5 0-.5.9-1.6 1.1-1.7 0 0 0-.2-.2-.4 0 0 0-.1-.1-.1l.3.1.5.2c0 .2-.1.4 0 .6l.1.4c.2.4.5.7 1 1 .4.2.9.5 1.5.7 1.4 2.2 2.3 2.9 3.9 3.1.6.1 1.3 0 2.2 0 1.4 1.8 2.1 4.5 2.3 5-.6-.2-1.4-.5-2.3-.6-1-.1-2 .1-3.1.7-1.6-1.3-3.7-2.2-5.9-2.6-1.7-.3-3.5-.3-5.2 0 .2-.5.8-1.6.2-2.4m4.9-10.7c1.5-2.8 2.9-2.9 2.9-2.9l10.3 4c.5.2.6.5.7.9.1.3.2.7.7.9.1.2 0 .9-.2 1.6.1-.7 0-1.1-.2-1.2-.3-.1-1.3.8-1.7 2.1-.4 1.2-.4 1.9-.3 2.2l-.6.2c-.3.2-12.3-4.8-12.3-5.3.1-.8.3-1.7.7-2.5m23.3 19s0 1.4-.1 2.2l-.1.5v.1c-.3.6-1 .9-1.9.8h-.1l-.1.1c-1 .6-4 2.3-5.3 2.3h-.2v.1c-1.4-.9-2.5-2.4-.7-4.4 2.4 1.3 5 .1 6.7.1-7.1-.4-8-5.3-10.3-10.4.6 0 1-.2 1.4-.5.8-.6.9-.9 1.1-1.1.2-.3.4-.7.5-.9.7 1.4 1.7 2.5 2.8 3.5.7.5 2.3 1.5 2.7 1.7.5.3.9.5 1.3.8l-2.1-2c-1.6-1.4-3.2-2.8-4.2-4.9.3-.5.5-1 .5-1-.3-.4.8-3.4-.2-3.8-.1-.1-.2-.2-.3-.5-.1-.4-.4-1-1.2-1.4l-10.2-4s-1.8-.4-3.7 3.6l-.1.2-.4.9c-.2-.1-.6-.1-.8 0 0 0-.5 1-1.1 1.3 0 0-.4-.2-.3-.9-.8 1.3.5 1.6.5 1.6.7-.3 1.1-.7 1.4-.9-.1.3-.1.6-.1.9-.7.4-.7 1.6-1.5 1.7.9.1 1.2-.2 1.5-.4l.6.2c-.5.6-.5.6-.9.4.1.3.6.5.5.5-.6.5-1 1.2-1 1.6.1.4-.4 1.7-1.3 1.7-.7 0-1-.6-1.3-1.3-3.3-.6-2.3-6.2-5.3-6.7l.1-1.7s1.9-.3 2.3-2.2c1.1 0 2.3-1.1 3-1.9.4-.4.6-.7.6-.7h.1c.1 0 .3-.1.5 0 .1 0 .3.1.4.2 0 0 .1-.2.1-.5v-.2c0-.5-.1-1.1-.9-1.7.1-.1.8-.8.1-1.9l-.3-.3v.1c-.1.2-.6 1.1-2 .8h-.2c0-.1-.1-.1-.2-.1s-.2-.1-.2-.1c-1.4-.6-3.3-1.5-7-.2 4.6-.4 5.6 1.1 7.4 1.3.8.1 1.5 0 1.9-.5 0 .8-.6 1.5-.6 1.5 1 .1.9.9.9.9-.9 0-2.1 2.2-3.2 2.4.2-.8-.3-2-.3-2-.8 3.3-3.9 4.2-3.9 4.2-.3-.7 0-1.6 0-1.6-1.8.8-1.3 5.1-6.2 5.1 1.5 1.7 3.1.6 3.1.6-.5 1.7-2.3 2-4.6.8 1.1 2.1 3.1 2.7 5.3 1.1 0 1.3-.9 1.9-1.7 2.1 1.4.4 2.9 0 4-1.7 1.1 2.1-1.1 3.4.3 5.2-1.3.1-2-1.1-1.7-2.2-1 .7-1.2 1.8-.7 2.5-.9-.2-1.6-1.5-1.2-2.3-1 .8-1.1 2.2-.3 2.8-1.4-.1-1.7-1.6-1.2-2.7-.4.1-.7.4-.7.4.3-1.1-.8-3.2-3.1-4.4.4.5.6 1.8.6 1.8-1.6-.5-5.4-9.5 2.9-14.4-8.7 2.6-7.2 12.8-3.5 15.7.2.1.3.3.4.4.4.6.3 1.3-.2 1.8-.2.2-.4.4-.6.5.9.2 1.7 0 1.7 0-.2.4-.1.8.1 1.1.3.6 1 1 1.7 1v.30000000000000004c-.6.1-1.1.4-1.4.8-.2.2-.3.5-.3.7-.1.2-.1.5-.1.7-.9.2-2.9.8-4.3 3-.8.1-1.6.4-2.3.7-1.7.7-3.1 1.9-3.9 3.5-.1.1-.2.3-.2.5l-.1.3c-.6 1.6-.8 4 .7 7.3v.1c-.1.4-.2.8-.2 1.2l-.1 1-.9.6-.2.1-.9.6-.2.1-1.8 1.4-.1.1c-.3.2-.6.5-.8.7.1.2.1.2 0 .2-.6.5-1.1 1-1.6 1.6l-.1.1c-.3.3-.5.5-.7.8l-.1.1c-.5.6-1 1.2-1.4 1.8l-.6.9-.6 1.1-.3.6-.6 1.3-.5 1.2c0 .1 0 .1-.1.2 0 .1 0 .1-.1.2-.1.3-.2.4-.2.6l-.2.6-.2.7-.2.7v.1c0 .2-.1.4-.1.7v.1l-.1.8-.2 1.3.9-1c1.1-1.2 2.2-2.3 3.2-3.4l.4-.4.1-.1c.7-.7 1.4-1.4 2.1-2l.1-.1 2.1-1.8.2-.1.9-.7.1-.1 1-.8.2-.1.8-.6.3-.2 1-.7.1.4c.2.9.5 1.7.9 2.4l-.5.7c-.5 1-.7 2.1-.3 3.3l.1.5v.2c0 .1.1.3.2.4 0 .1 0 .1.1.2.4.9 1.1 1.6 1.9 2.2l.3.2.1.1c.2.1.3.2.5.2h.1l.5.2.2.3c-.1-.1-.2-.2-.2-.3l.2.3s.1 0 .1.1c.1.1.1.1.2.1 0 0 .1 0 .1.1l.3.1h.1l.4.1.5.1h.9-.4c.5 0 .9-.1 1.2-.3.8-.5 1.1-1.2 1.2-1.3l.1.1c.1.1.9-.1 1.8-.5.3-.1.6-.3.9-.5.5-.3.9-.6 1.2-1 .1-.1.2-.2.2-.3l.2-.3c.1-.1.3-.3.5-.6h3.1c.1-1.3.2-3.1.4-5.5.1-1.6.4-4.9 1.4-7 .4-.8.8-1.4 1.4-1.6.9-.4 1.9-.7 2.9-1.1.4.7.6 1.4.8 2 .3 1.2.1 2.1-.2 2.9 0 .1 0 .2-.1.3-.3 1.1-.5 2.1.1 3.3 1 2.1.8 3.2.6 4.2-.1.7-.2 1.5 0 2.5h.9c-.3-.9-.2-1.6-.1-2.3.1-.7.3-1.5.1-2.6-.1-.6-.4-1.3-.8-2.2-.5-.9-.3-1.7 0-2.7.2-.9.5-2 .3-3.4-.1-.7-.4-1.4-.8-2.3 2.1-.8 4.4-1.5 7.2-2.2-.2 6.3-7.6 10-4.8 8.6.1-.1.2-.1.4-.2.4-.2.8-.4 1.1-.5.4-.2.8-.3 1.2-.4.4 3.5 2.2 7.2.4 10.2h3.7v-3.4999999999999996.6c0-1.6 0-3.4-.2-5-.1-1-.2-1.9-.4-2.7-.1-.4 0-.8.1-1.3.1-.3.2-.7.4-1.1.5-1.4 1-3.1 1-5.2h1.8c-.4 1.7-.7 3.4-.9 4.9-.1.6-.2 1.1-.2 1.7-.6 4.4-.6 8.1-.3 11.5h1.3c-.2-2.4-.2-5.1 0-8 .2-2.8.6-5.9 1.4-9.2l.6-2.6s.1 0 .1.1c.3.2.7.3 1.1.3h.4c-.3 1.1-.5 2.2-.7 3.2-1.3 6.5-1.5 11.8-1.2 16.4h1.3v-.6c0-.3 0-.6-.1-.8v-6.400000000000001c0-.2 0-.4.1-.6v-.5c0-.2 0-.4.1-.6 0-.2 0-.4.1-.6 0-.2 0-.3.1-.5v-.6c0-.2 0-.3.1-.5l.1-.8c0-.1 0-.2.1-.4l.1-.9v-.2c.2-1.2.5-2.4.7-3.7l.7.2h.6c1.1-.2 2.1-1.1 3.1-2.6 1.7-.2 4.7-1.9 5.4-2.4 1.2 0 2.1-.4 2.6-1.3.5-1.2.3-2.3-.4-3.5"/><path fill="#fff" d="M76.4 74.3l-5-7.5c0-.1-.1-.1-.2 0-.1 0-.1.1 0 .2l5.1 7.6v8.299999999999999l.1.1c.1 0 .2-.1.2-.2v-8.1l1.9-2.9 3.2-4.7v-.2h-.2l-3.1 4.6-2 2.8z"/><path fill="#E26F59" d="M81.7 67l-3.2 4.7-1.9 2.9v8.1c0 .1-.1.2-.2.2s-.1 0-.1-.1v-8.2l-5.1-7.6v-.2h.2l5 7.5 1.9-2.8 3.1-4.6c0-.1.1-.1.2 0 .1-.1.1 0 .1.1m3.5-1.9c0-.1-.1-.1-.2-.2s-.2-.1-.3-.1h-3.8c-.2 0-.4.1-.5.3l-3.2 4.8-.4.6-.4.5-.4-.6-3.6-5.3c0-.1-.1-.1-.2-.2s-.2-.1-.3-.1h-3.8c-.2 0-.4.1-.5.3-.1.2-.1.4 0 .6l6.3 9.5.1.1v9.299999999999999c0 .1 0 .2.1.3.1.1.3.2.4.2h3.4c.3 0 .6-.3.6-.6v-9.299999999999999l.1-.1 6.4-9.5c.2-.1.3-.3.2-.5"/></svg>