<?xml version="1.0" encoding="UTF-8"?>
<!DOCTYPE svg PUBLIC "-//W3C//DTD SVG 1.1//EN" "http://www.w3.org/Graphics/SVG/1.1/DTD/svg11.dtd">
<!-- Creator: CorelDRAW X7 -->
<svg xmlns="http://www.w3.org/2000/svg" xml:space="preserve" width="6200px" height="3695px" version="1.1" style="shape-rendering:geometricPrecision; text-rendering:geometricPrecision; image-rendering:optimizeQuality; fill-rule:evenodd; clip-rule:evenodd"
viewBox="0 0 6200 3695"
 xmlns:xlink="http://www.w3.org/1999/xlink">
 <defs>
  <style type="text/css">
   <![CDATA[
    .fil2 {fill:#FEFEFE}
    .fil3 {fill:#FFCC29}
    .fil1 {fill:#201E1E}
    .fil0 {fill:#FEFEFE;fill-rule:nonzero}
    .fil4 {fill:#FFCC29;fill-rule:nonzero}
   ]]>
  </style>
 </defs>
 <g id="Camada_x0020_1">
  <metadata id="CorelCorpID_0Corel-Layer"/>
  <g id="_491637051520">
   <g>
    <path class="fil0" d="M6170 1847l-140 0 0 0 -4 -82 -10 -81 -18 -80 -24 -80 -31 -78 -38 -78 -44 -76 -51 -75 -57 -73 -64 -72 -69 -71 -75 -68 -81 -66 -86 -64 -92 -62 -97 -59 -102 -57 -106 -54 -112 -50 -115 -48 -120 -45 -123 -41 -127 -38 -131 -35 -135 -31 -137 -27 -141 -23 -143 -19 -146 -15 -148 -11 -150 -7 -153 -2 0 -158 156 2 154 7 152 12 150 15 147 20 144 24 141 28 139 31 134 36 132 39 128 43 123 46 120 50 116 53 111 56 106 59 102 62 97 65 92 68 86 71 81 73 75 77 69 78 64 82 56 83 50 86 43 89 36 90 29 93 20 95 13 96 4 97 0 0zm-3070 1827l0 -158 0 0 153 -2 150 -7 148 -11 146 -15 143 -19 141 -23 137 -27 135 -31 131 -35 127 -38 123 -41 120 -45 115 -48 112 -50 106 -54 102 -57 97 -59 92 -62 86 -64 81 -66 75 -68 69 -71 64 -72 57 -73 51 -75 44 -76 38 -78 31 -78 24 -80 18 -80 10 -81 4 -83 140 0 -4 98 -13 96 -20 95 -29 93 -36 90 -43 89 -50 86 -56 83 -64 82 -69 78 -75 77 -81 73 -86 71 -92 68 -97 65 -102 62 -106 59 -111 56 -116 53 -120 50 -123 46 -128 43 -132 39 -134 36 -139 31 -141 28 -144 24 -147 20 -150 15 -152 12 -154 7 -156 2 0 0zm-3070 -1827l140 0 0 0 4 83 10 81 18 80 24 80 31 78 38 78 44 76 51 75 57 73 64 72 69 71 75 68 81 66 86 64 92 62 97 59 102 57 106 54 112 50 115 48 120 45 123 41 127 38 131 35 135 31 137 27 141 23 143 19 146 15 148 11 150 7 153 2 0 158 -156 -2 -154 -7 -152 -12 -150 -15 -147 -20 -144 -24 -141 -28 -139 -31 -134 -36 -132 -39 -128 -43 -123 -46 -120 -50 -116 -53 -111 -56 -106 -59 -102 -62 -97 -65 -92 -68 -86 -71 -81 -73 -75 -77 -69 -78 -64 -82 -56 -83 -50 -86 -43 -89 -36 -90 -29 -93 -20 -95 -13 -96 -4 -98 0 0zm3070 -1826l0 158 0 0 -153 2 -150 7 -148 11 -146 15 -143 19 -141 23 -137 27 -135 31 -131 35 -127 38 -123 41 -120 45 -115 48 -112 50 -106 54 -102 57 -97 59 -92 62 -86 64 -81 66 -75 68 -69 71 -64 72 -57 73 -51 75 -44 76 -38 78 -31 78 -24 80 -18 80 -10 81 -4 82 -140 0 4 -97 13 -96 20 -95 29 -93 36 -90 43 -89 50 -86 56 -83 64 -82 69 -78 75 -77 81 -73 86 -71 92 -68 97 -65 102 -62 106 -59 111 -56 116 -53 120 -50 123 -46 128 -43 132 -39 134 -36 139 -31 141 -28 144 -24 147 -20 150 -15 152 -12 154 -7 156 -2 0 0z"/>
    <path id="1" class="fil1" d="M3100 100c1657,0 3000,783 3000,1747 0,965 -1343,1748 -3000,1748 -1657,0 -3000,-783 -3000,-1748 0,-964 1343,-1747 3000,-1747z"/>
   </g>
   <g id="_491637055296">
    <path class="fil2" d="M4516 2571c-425,165 -1085,250 -1764,205 -397,-26 -743,-93 -1010,-186 31,3 64,6 96,9 251,79 566,137 922,160 632,42 1246,-31 1661,-177 32,-4 64,-7 95,-11z"/>
    <path class="fil2" d="M3407 907c397,25 744,89 1011,177 -32,-3 -64,-6 -97,-9 -251,-75 -566,-130 -922,-152 -631,-40 -1246,30 -1660,169 -33,3 -64,6 -96,9 425,-155 1085,-236 1764,-194z"/>
    <path class="fil2" d="M4723 2546c-438,207 -1202,321 -1990,268 -489,-32 -907,-123 -1203,-247 31,4 63,7 94,11 284,109 670,189 1117,219 739,49 1456,-51 1890,-239 31,-4 62,-8 92,-12z"/>
    <path class="fil2" d="M3427 871c489,31 906,117 1202,234 -31,-3 -62,-6 -94,-10 -284,-104 -670,-179 -1117,-207 -739,-47 -1456,48 -1890,226 -31,4 -62,8 -92,12 439,-197 1203,-305 1991,-255z"/>
    <path class="fil2" d="M4339 2590c-404,131 -980,195 -1572,156 -323,-21 -611,-71 -847,-140 371,30 783,45 1216,42 432,-3 840,-24 1203,-58z"/>
    <path class="fil2" d="M3392 936c323,20 611,67 847,133 -370,-28 -783,-43 -1215,-40 -433,2 -841,22 -1204,55 404,-124 980,-185 1572,-148z"/>
    <path class="fil3" d="M1286 1305l-37 0 -164 1149 -165 -1 -182 -1153 -47 -1 0 -111 318 3 0 111 -50 0 106 794 96 -792 -51 -1 -1 -111 177 2 0 111zm552 1157l-317 -3 -1 -109 59 0 -37 -270 -158 -2 -25 270 59 1 1 109 -189 -2 -1 -109 43 0 108 -1152 253 2 154 1155 51 1 0 109zm-312 -489l-70 -591 -61 589 131 2zm870 102c1,126 -19,225 -60,298 -40,73 -95,109 -165,109 -185,-2 -278,-221 -280,-656 -1,-220 20,-382 63,-486 43,-104 111,-155 203,-154 29,0 53,6 72,17 19,11 41,33 66,64l26 -63 71 1 2 417 -133 -1 -1 -131c0,-79 -7,-131 -19,-157 -13,-26 -32,-39 -59,-40 -28,0 -47,15 -56,45 -10,30 -15,96 -14,199l2 536c1,120 9,202 26,244 12,31 33,46 62,47 41,0 72,-26 90,-78 19,-52 28,-141 28,-267l74 1 2 55zm671 399l-317 -4 -1 -109 59 1 -37 -270 -158 -2 -25 270 59 0 0 110 -189 -2 0 -109 43 0 108 -1152 253 2 154 1155 51 1 0 109zm-312 -490l-71 -590 -60 589 131 1zm870 495l-507 -5 0 -109 52 1 -4 -1043 -53 0 0 -111 311 3 1 111 -53 -1 5 1043 111 1 -1 -326 136 2 2 434zm626 -626c1,227 -24,393 -75,500 -46,97 -115,145 -205,144 -191,-2 -287,-218 -288,-650 -1,-229 24,-395 75,-500 47,-95 116,-143 207,-142 105,1 182,73 230,215 37,109 55,253 56,433zm-218 362l-3 -725c-1,-71 -5,-119 -14,-144 -9,-25 -26,-37 -51,-37 -25,-1 -41,12 -51,38 -9,26 -13,73 -13,142l3 725c1,67 5,114 15,140 9,26 26,39 51,40 24,0 40,-13 50,-39 9,-26 13,-72 13,-140zm805 -116c1,126 -19,225 -60,298 -40,73 -95,109 -165,108 -185,-2 -278,-220 -280,-655 -1,-220 20,-383 63,-486 43,-104 111,-155 203,-155 28,1 53,7 72,18 19,11 41,32 66,63l26 -62 71 0 2 418 -133 -1 -1 -131c0,-79 -7,-132 -19,-158 -13,-26 -32,-39 -59,-39 -28,0 -47,15 -57,45 -9,30 -14,96 -13,198l2 536c1,121 9,202 26,244 12,31 33,47 62,47 41,1 71,-25 90,-77 19,-53 28,-142 28,-267l74 0 2 56zm671 398l-318 -3 0 -109 59 1 -37 -271 -158 -1 -25 270 59 0 0 109 -189 -2 0 -109 43 1 108 -1153 253 3 153 1155 52 0 0 109zm-312 -489l-71 -590 -60 589 131 1z"/>
    <path class="fil3" d="M2400 774c3,17 5,32 5,44 3,49 -12,73 -43,72 -29,-1 -45,-27 -47,-77l-1 -20 -1 -21c-1,-18 -13,-28 -37,-28 0,0 -2,0 -5,0l3 59 21 1 4 82 -99 -3 -4 -82 20 1 -7 -147 -20 0 -4 -79 94 3c34,0 57,6 69,18 11,11 18,32 20,65 2,39 -13,61 -45,66 -2,0 -4,0 -7,1 27,4 42,13 44,29l3 21 2 17c1,8 4,13 10,13 8,0 12,-10 11,-30l0 -5 14 0zm-130 -61l6 1c26,0 38,-8 38,-26 -1,-20 -14,-31 -39,-31 -2,0 -4,0 -8,0l3 56zm432 18l3 82 -99 -2 -4 -82 21 0 -8 -42 -45 -1 -4 42 23 0 4 82 -83 -2 -4 -82 19 1 30 -224 76 1 53 227 18 0zm-94 -75l-21 -95 -13 94 34 1zm445 -201l3 79 -20 -1 11 229 -63 -2 -81 -244 8 161 23 0 4 82 -83 -2 -4 -82 21 1 -7 -147 -21 -1 -3 -78 91 2 71 216 -6 -136 -24 0 -3 -79 83 2zm236 10l-1 -18 52 2 5 123 -51 -2 0 -5c-1,-26 -9,-38 -23,-39 -9,0 -15,4 -16,12 -2,9 -2,32 0,70 2,43 10,64 23,64 13,0 19,-11 18,-35l-1 -13 -1 -11 57 2c3,16 5,33 5,49 3,65 -21,96 -73,95 -36,-1 -59,-11 -70,-29 -10,-19 -17,-62 -20,-129 -3,-65 -1,-108 6,-129 7,-21 23,-31 48,-31 19,1 33,9 42,24zm388 47l4 79 -20 -1 7 147 20 0 4 83 -88 -3 -4 -82 10 1 -3 -60 -36 -1 3 60 10 0 4 82 -88 -2 -4 -82 20 0 -6 -146 -20 -1 -4 -78 87 2 4 78 -10 0 3 55 36 1 -3 -55 -9 0 -4 -79 87 2zm160 236l-3 -68c-2,-52 1,-86 11,-102 10,-16 32,-24 65,-23 31,0 52,10 63,27 12,17 18,51 21,102l3 68c2,47 -2,79 -13,96 -10,17 -31,25 -62,24 -31,-1 -53,-10 -64,-26 -12,-17 -19,-50 -21,-98zm58 -66l2 58c2,29 9,45 22,45 13,0 18,-15 17,-45l-3 -59 -1 -13 -1 -9c-1,-13 -8,-20 -19,-20 -13,0 -19,14 -17,43z"/>
    <path class="fil4" d="M1898 2897c-6,19 -15,34 -27,43 -13,8 -27,11 -43,6 -41,-11 -53,-51 -34,-119 9,-34 21,-58 36,-72 14,-13 32,-17 52,-11 7,1 12,4 16,7 4,3 8,7 12,14l9 -8 16 4 -18 65 -30 -8 6 -21c3,-12 4,-20 2,-25 -2,-5 -5,-8 -12,-10 -6,-2 -11,-1 -14,3 -4,5 -8,15 -12,31l-23 83c-6,19 -7,32 -5,40 1,5 5,9 12,11 9,2 17,0 24,-7 6,-7 12,-20 18,-40l17 5 -2 9zm155 2c-9,36 -22,61 -38,74 -14,13 -32,16 -53,11 -43,-11 -56,-51 -39,-118 10,-36 22,-61 38,-74 15,-12 33,-16 54,-10 24,6 38,21 43,46 4,20 2,43 -5,71zm-65 45l30 -114c2,-11 3,-19 2,-23 -1,-5 -4,-8 -10,-9 -5,-2 -10,-1 -13,3 -3,3 -6,11 -9,21l-29 114c-3,11 -4,18 -3,23 1,4 5,7 11,9 5,1 9,0 12,-3 4,-4 7,-11 9,-21zm236 -96l-11 -2 -27 120c-5,23 -13,39 -23,47 -10,8 -26,9 -46,5 -21,-5 -35,-13 -42,-25 -8,-12 -9,-29 -5,-50l27 -123 -12 -3 4 -17 74 16 -4 18 -14 -3 -27 123c-4,16 -5,27 -3,33 2,6 8,11 18,13 10,2 16,1 20,-4 4,-5 8,-16 12,-34l27 -121 -15 -3 4 -18 47 11 -4 17zm149 29l-12 -3 -38 183 -41 -8 -22 -146 -24 118 12 3 -4 17 -43 -9 4 -17 12 2 33 -165 -12 -2 4 -18 57 12 19 138 23 -112 -12 -2 3 -18 45 9 -4 18zm130 71l-26 -4 8 -53 -15 -2 -28 166 13 2 -3 18 -73 -12 3 -18 13 2 27 -166 -14 -3 -9 53 -27 -5 12 -70 131 22 -12 70zm135 151l-60 -8 8 -65c2,-11 1,-18 -1,-22 -3,-4 -8,-7 -17,-8l-4 0 -10 74 14 2 -2 17 -75 -9 3 -18 12 2 22 -167 -12 -2 2 -18 60 8c30,4 49,10 59,19 9,9 13,25 10,46 -2,13 -6,23 -12,29 -6,6 -16,10 -29,11 14,7 22,13 25,19 4,6 4,17 2,33l-5 38 12 1 -2 18zm-44 -135l5 -36c1,-10 1,-16 -2,-19 -2,-3 -9,-5 -21,-6l-10 76c10,1 17,1 21,0 4,-2 6,-7 7,-15zm209 -36l-11 -1 -43 103 -6 62 15 1 -2 18 -76 -8 2 -17 14 1 5 -57 -27 -114 -10 -1 2 -18 74 7 -1 18 -12 -1 14 77 30 -73 -12 -1 2 -18 44 4 -2 18zm189 196l-122 -5 1 -18 12 1 8 -169 -13 0 1 -18 122 5 -3 56 -32 -1 2 -38 -29 -2 -3 74 14 1 1 -20 25 1 -2 57 -26 -1 1 -20 -14 -1 -3 78 29 1 1 -42 32 1 -2 60zm213 -51c0,16 -5,30 -16,40 -10,10 -24,15 -40,15 -7,0 -12,-1 -16,-3 -4,-1 -9,-4 -13,-9l-7 9 -21 0 1 -67 30 1 0 11c0,27 8,41 25,41 5,0 9,-1 12,-5 3,-3 5,-7 5,-12 0,-10 -6,-21 -18,-35 -12,-13 -24,-27 -36,-40 -13,-17 -19,-33 -19,-49 0,-14 5,-27 15,-37 9,-9 21,-14 35,-14 7,0 12,1 18,3 5,2 11,6 17,11l5 -11 18 0 -1 58 -31 0 0 -14c1,-19 -6,-29 -21,-29 -4,0 -7,1 -10,3 -3,3 -4,6 -4,11 0,9 6,20 19,34 23,25 34,38 35,39 12,17 19,33 18,49zm141 48l-121 7 -1 -17 12 -1 -10 -168 -12 0 -2 -18 122 -7 4 56 -33 2 -2 -38 -29 2 5 73 14 -1 -1 -20 25 -1 3 57 -25 2 -1 -20 -14 0 5 78 28 -2 -2 -42 32 -2 3 60zm169 -9l-60 5 -5 -65c-1,-12 -3,-19 -6,-22 -3,-4 -9,-5 -19,-4l-3 0 6 75 13 -1 2 18 -75 5 -1 -17 12 -1 -13 -168 -12 1 -2 -18 61 -5c30,-2 50,0 61,7 11,7 18,21 19,42 1,14 0,24 -5,31 -5,7 -13,13 -26,17 14,4 24,8 29,13 4,6 7,16 8,32l3 38 12 -1 1 18zm-70 -123l-3 -36c-1,-10 -3,-16 -6,-18 -3,-2 -10,-3 -22,-2l6 77c11,-1 17,-3 21,-5 3,-3 4,-8 4,-16zm196 -24l-27 3 -6 -53 -15 2 19 167 12 -1 2 17 -73 9 -2 -18 13 -1 -19 -168 -15 2 6 53 -27 3 -8 -71 132 -15 8 71zm146 116l-74 11 -2 -18 14 -2 -15 -42 -37 6 0 44 14 -2 3 17 -44 7 -3 -17 10 -2 -1 -189 59 -8 62 179 12 -2 2 18zm-83 -67l-30 -92 -1 96 31 -4zm202 -142l-13 2 31 184 -42 7 -72 -128 20 119 11 -2 3 17 -43 8 -3 -18 12 -2 -28 -166 -12 2 -3 -18 58 -10 67 122 -19 -112 -12 3 -3 -18 45 -8 3 18zm167 157l-119 25 -4 -18 12 -2 -33 -165 -12 2 -4 -18 120 -24 11 55 -32 7 -7 -38 -29 6 15 72 14 -3 -4 -19 25 -5 11 56 -24 5 -5 -20 -13 3 15 76 28 -6 -8 -41 31 -7 12 59zm79 -214l-12 3 34 122c11,40 -1,65 -36,75 -13,4 -25,3 -36,-2 -11,-4 -18,-12 -21,-23 -2,-8 -2,-14 1,-20 3,-6 7,-10 14,-12 6,-1 12,-1 16,2 5,2 8,7 10,14 1,5 1,11 -2,16 -2,5 -6,8 -11,10l-2 0c3,3 7,4 14,2 7,-2 11,-7 12,-15 0,-6 -1,-15 -4,-27l-36 -128 -14 3 -5 -17 73 -20 5 17zm154 42c11,35 14,62 7,83 -5,18 -19,30 -39,37 -43,13 -75,-13 -95,-80 -12,-35 -14,-63 -7,-83 6,-18 19,-30 39,-37 24,-7 45,-2 62,17 14,14 25,35 33,63zm-31 72l-36 -112c-3,-11 -6,-18 -10,-21 -3,-4 -7,-4 -13,-3 -5,2 -8,5 -9,10 -1,5 0,12 3,23l36 112c3,10 6,17 10,21 3,3 7,4 13,2 5,-2 8,-5 9,-10 1,-4 0,-12 -3,-22z"/>
   </g>
   <path class="fil2" d="M3100 152c1608,0 2911,759 2911,1695 0,937 -1303,1696 -2911,1696 -1608,0 -2911,-759 -2911,-1696 0,-936 1303,-1695 2911,-1695zm0 94c1534,0 2778,717 2778,1601 0,885 -1244,1602 -2778,1602 -1534,0 -2778,-717 -2778,-1602 0,-884 1244,-1601 2778,-1601z"/>
  </g>
 </g>
</svg>
