<?xml version="1.0" encoding="utf-8"?>
<!-- Generator: Adobe Illustrator 17.1.0, SVG Export Plug-In . SVG Version: 6.00 Build 0)  -->
<!DOCTYPE svg PUBLIC "-//W3C//DTD SVG 1.1//EN" "http://www.w3.org/Graphics/SVG/1.1/DTD/svg11.dtd">
<svg version="1.1" id="Layer_1" xmlns="http://www.w3.org/2000/svg" xmlns:xlink="http://www.w3.org/1999/xlink" x="0px" y="0px"
	 width="5756.3px" height="5756.1px" viewBox="1.8 -142.1 5756.3 5756.1" enable-background="new 1.8 -142.1 5756.3 5756.1"
	 xml:space="preserve">
<g>
	<path fill="#FFFFFF" d="M3702,2972.2h-2l-294,236.5c-45.2-110.3-76.5-212.9-102-307.4c-27.6-112.4-31.4-179.4-11.8-197.3
		c37.2-33.5,66.6-70.9,92.2-112.4c1.8-3.8,5.8-9.7,9.8-13.7c0-1.9,0-1.9,2-1.9l303.8,396.2H3702z M4368.4,2577.9l2-1.9
		c0,0,0,0,0-2.1c37.3,21.7,72.5,51.4,105.9,88.8c27.4,29.5,47,59.3,60.8,86.7c7.8,11.9,11.8,23.7,15.6,37.6
		c5.8,29.5-62.7,100.4-207.7,212.8c-127.4,98.6-276.4,200.9-446.9,305.5h-2l-129.5-319.3L4368.4,2577.9z M2194.4,2558.3
		L2194.4,2558.3h1.9H2194.4l60.8,47.2l-1033.1,197.2l-345-339.2l78.5-27.5c37.2,7.8,74.5,19.6,113.6,35.5
		c58.9,21.5,96.1,45.3,113.7,67c31.5,37.4,45.2,106.4,39.3,207l-3.9,53.2l41.3-33.6c86.2-72.9,168.4-116.3,244.9-130.1
		c49-9.8,180.4-25.5,390.2-47.2L2194.4,2558.3z M2255.2,1050.5v49.2h43.1c3.9,11.8,15.7,17.8,37.3,17.8c9.8,0,19.6-3.8,27.4-9.9
		c3.9-1.9,5.9-3.8,7.9-7.8h131.3c-5.8,25.7-21.6,45.4-47,65.2c-31.5,21.5-70.6,33.4-115.7,33.4c-45.1,0-82.4-11.8-115.7-33.4
		c-31.3-23.7-47-51.2-47-82.9c0-33.5,15.7-61.2,47-82.7c33.3-23.7,70.6-35.5,115.7-35.5c45.2,0,84.2,11.8,115.7,35.5
		c21.5,13.7,35.3,31.4,43,51.2H2255.2z M3858.7,1637.8c17.8,0,33.4,7.8,45.2,19.6c13.6,13.9,19.6,29.7,19.6,45.4
		c0,17.7-6,33.6-19.6,45.3c-11.8,13.7-27.4,19.9-45.2,19.9c-17.6,0-31.4-6.1-45-19.9c-11.8-11.8-17.7-27.6-17.7-45.3
		c0-15.7,6-31.5,17.7-45.4C3827.4,1645.7,3841.1,1637.8,3858.7,1637.8 M2811.9,1060.4c0-2.1,2-8,4-19.9c3.9-9.9,17.7-25.7,41.2-41.3
		c33.4-23.7,70.5-35.5,117.5-35.5c43.2,0,82.4,11.8,115.7,35.5c19.6,13.7,35.2,31.4,41.2,51.2h-233.4v49.2h41.2
		c4,11.8,15.7,17.8,35.3,17.8c21.6,0,33.3-5.9,39.2-17.8h121.6c-3.8,25.7-19.5,45.4-45,65.2c-33.3,21.5-72.5,33.4-115.7,33.4
		c-47,0-84.2-11.8-117.5-33.4c-31.4-23.7-47.1-51.2-47.1-82.9C2810,1074.1,2810,1066.3,2811.9,1060.4 M3578.5,959.8
		c7.8,17.8,17.6,39.5,31.4,61c0,4,2,5.9,3.8,8h-217.5v51.3h245.1c1.8,5.9,5.8,11.8,7.8,17.7c19.6,49.4,9.8,106.4-27.6,167.5
		l-54.8,74.9c-17.6,29.5-19.6,55.2-7.8,78.9c6,13.7,23.6,33.6,53,57.1c17.6,15.8,25.4,39.5,21.6,70.9c62.6-15.8,88.2-47.2,72.4-98.5
		c-7.8-29.5-5.8-57.2,7.9-84.8l17.6-35.5c2-4,3.8-5.9,3.8-7.8v-1.9c2.1,0,2.1,0,2.1-2v-1.9v1.9c33.2-55.4,52.8-96.6,62.6-124.3
		c2-9.8,3.8-17.8,3.8-25.5c0-23.6-11.6-47.3-37.2-67.1h70.6c64.8,61.2,78.5,173.4,45.1,335c5.8,94.7-7.8,147.9-41.2,157.8
		c-33.3,7.8-66.7-1.9-101.9-29.6l2,924.3l466.5,2.1l66.8,90.7l-535.3,362.6l-499.9-650.4c115.7-100.6,188.3-163.7,213.7-189.2
		c59-59.3,148.9-159.8,270.5-305.7c-315.6,240.5-509.7,374.6-580.1,398.3l-70.7,27.7c-25.5,7.8-49,13.7-70.6,17.7
		c-54.8,7.8-131.4,1.9-229.4-19.8c-92.1-21.8-150.9-66.9-176.5-135.9c-5.9-17.9-13.6-49.3-21.5-94.7c-7.9-41.4-15.7-74.9-23.5-96.6
		c-7.9-17.7-25.6-53.2-54.8-104.4c-29.4-53.2-55.1-100.5-70.7-139.9c-52.9-120.3-82.3-252.3-94.1-400.2h7.9
		c58.8,0,109.7-17.7,151-49.2c9.7-8,17.6-13.9,23.5-21.8l37.3-114.3v-1.8c7.8-51.3,43.1-78.9,105.9-78.9c62.7,0,96,25.5,105.8,73
		c-1.9,7.8-1.9,15.8-1.9,25.5c0,45.3,19.6,84.8,62.8,118.4c41.1,31.5,92.1,49.2,150.9,49.2c59,0,107.9-17.7,151-49.2
		c39.2-33.6,60.8-73,60.8-118.4v-1.9h80.3v-51.3h-90.1c-9.8-23.7-27.4-45.4-51-65c-43.1-31.6-92-49.3-151-49.3
		c-58.8,0-109.8,17.7-150.9,49.3c-13.7,9.9-23.5,21.7-33.4,33.6c-3.9-5.9-7.8-11.8-11.8-15.9c-29.3-31.6-68.6-47.4-121.4-47.4
		c-51,0-92.2,15.8-119.6,47.4c-5.9,4-9.9,9.9-13.6,15.9c-8-11.8-19.8-21.7-33.4-33.6c-33.4-25.7-70.7-41.6-115.6-47.4
		c80.4-208.9,262.6-429.6,546.8-662.3C3060.9,620.8,3280.5,857.3,3578.5,959.8 M2733.5-47.3c297.9,0,584.2,59.1,856.8,175.3
		C3854.7,240.4,4088.2,398,4292,603.1c203.9,205.1,360.8,439.4,472.3,703.6c115.7,275.9,174.7,561.8,174.7,863.2
		c0,232.7-35.4,459.3-105.9,676.2c-99.9-45.4-178.5-77-239.2-88.8c-13.6-41.2-41.2-82.7-78.3-126c-43.2-47.4-86.2-80.8-129.5-106.5
		c-43-21.7-78.4-29.6-105.7-19.9l-11.8-15.6h174.5c86.2,0,158.9-25.7,217.7-80.8c72.6-69,107.7-173.4,105.9-315.4
		c-3.9-139.8-37.3-311.4-100.1-512.4c-72.6-230.6-168.5-443.4-286.2-638.5c-143.1-232.5-305.6-415.9-486.1-547.9
		c-213.6-155.7-446.9-234.6-699.8-234.6c-286.3-2.1-515.6,96.7-686.2,293.7c-105.8,120.3-186.3,277.8-243.1,473
		c-27.5,7.8-52.9,19.7-76.5,37.5c-23.5,19.6-41.1,41.3-51,65h-98v51.3h86.2c0,0,0,0,0,1.9c0,45.3,21.6,84.8,62.7,118.4
		c5.9,1.9,9.9,5.8,13.8,9.7c-27.4,181.4-37.3,378.5-29.4,589.5c5.8,175.3,17.5,297.6,33.3,366.4c25.5,98.7,60.9,169.6,109.8,215
		c72.6,68.9,188.2,104.4,345.1,104.4l660.6,1.9l37.2,49.3c-19.6,45.4-53,88.8-99.9,130.2c-11.8,11.8-19.6,27.5-23.6,51.3
		c-307.8,129.9-478.3,226.6-509.6,287.8l-170.6,307.4L2390.5,2580l-76.4,13.7l-105.8-82.9l-323.5,33.7
		c-207.7,21.5-337.2,37.4-388.1,47.1c-52.9,9.9-113.7,35.6-178.4,75.1c-19.6,13.7-37.2,23.7-51,33.4l-2-45.2
		c-7.9-67-23.5-114.3-49-146c-23.5-29.5-74.5-59.1-147.1-84.8l-115.6-35.4l-5.8,2.1L841.7,2430l-52.9-51.1l252.9,1212.2
		c-139.3-169.6-252.9-354.8-339.2-557.9c-115.7-275.9-174.5-563.5-174.5-863.3c0-301.5,58.8-587.3,174.5-863.2
		c111.7-264.2,268.5-498.5,472.4-703.6c204-205,437.2-362.6,699.9-475.1C2149.3,11.7,2433.6-47.3,2733.5-47.3 M3627.5,41.3
		c-286.2-122.2-582.2-183.4-894-183.4c-311.6,0-609.6,61.2-893.9,183.4C1565.2,157.5,1322,323.1,1108.4,536
		C896.6,750.9,732,995.2,616.3,1271.2c-121.4,287.8-182.2,585.4-182.2,898.7c0,313.5,60.8,613.1,182.2,899
		c115.7,275.9,280.3,520.2,492.1,735c211.7,213,454.9,378.4,731.2,494.8c284.3,122.2,582.3,183.2,893.9,183.2
		c311.8,0,607.8-61,894-183.2c274.4-116.4,517.5-281.8,731.1-494.8c211.7-214.9,376.4-459.1,492.1-735
		c121.7-285.8,182.3-585.5,182.3-899c0-313.3-60.6-610.9-182.3-898.7C4735,993.3,4570.3,748.9,4358.6,536
		C4144.9,323.1,3901.9,157.5,3627.5,41.3"/>
	<path fill="#FFFFFF" d="M2829.6,1880.3c-43.2,13.7-74.5,23.6-94.1,25.5c-23.6,4-53,4-88.3-1.9c-31.3-4-51-9.9-60.7-13.8
		c-11.8-5.8-19.7-15.8-23.6-31.6c-5.9,27.6,7.9,49.4,43.2,65.2c23.5,11.8,52.9,19.6,88.1,23.6c35.4,1.9,80.5-9.8,133.5-39.4
		c52.9-29.5,74.5-45.4,62.7-49.4C2890.4,1858.5,2868.8,1864.4,2829.6,1880.3"/>
	<path fill="#FFFFFF" d="M2800.2,1844.8c41.1,0,56.9-7.8,51-15.9c-17.6-21.7-78.4-43.2-184.4-72.8l-39.1,19.6l-31.5-19.6
		c-19.5,3.8-37.2,21.5-51,57l43.2,13.9l33.4,23.7c17.6-5.9,37.2-5.9,60.8-5.9H2800.2z"/>
	<path fill="#FFFFFF" d="M3780.4,1444.6c11.8,11.9,25.6,21.7,41.2,31.6c-21.6-51.3-33.4-86.7-35.4-112.4
		C3772.6,1407.2,3770.6,1434.7,3780.4,1444.6"/>
	<path fill="#FFFFFF" d="M2416,1533.4c33.3,45.3,60.8,74.9,86.3,86.7c27.5,13.7,96.1,7.8,211.7-11.8L2416,1533.4z"/>
	<rect x="1.8" y="4565.8" fill="#FFFFFF" width="150.1" height="829.3"/>
	<polygon fill="#FFFFFF" points="220.1,4796.8 373.2,4796.8 526.9,5170.1 697.2,4796.8 851.5,4796.8 478.7,5614.1 324.3,5614.1 
		446.4,5349.7 	"/>
	<path fill="#FFFFFF" d="M936.8,4796.8h150.1v61.7c33.8-28.6,64.3-48.4,91.7-59.6c27.4-11.2,55.5-16.8,84.2-16.8
		c58.8,0,108.6,20.7,149.6,62c34.5,35.2,51.7,87.2,51.7,156.1V5395h-150.1v-261.5c0-71.3-3.2-118.6-9.4-142
		c-6.3-23.4-17.2-41.2-32.8-53.5c-15.5-12.3-34.8-18.4-57.7-18.4c-29.7,0-55.3,10.2-76.5,30.5c-21.3,20.3-36.1,48.3-44.3,84.1
		c-4.3,18.7-6.4,59.1-6.4,121.2V5395H936.8V4796.8z"/>
	<path fill="#FFFFFF" d="M1890.3,4919.7c-46.3,0-84.7,16.5-115.4,49.2c-30.7,32.7-46,74.8-46,126c0,51.6,15.6,94,46.8,127.4
		c31.1,33.4,69.5,50,115.1,50c47,0,86-16.4,117-49.2c31-32.7,46.5-75.7,46.5-128.8c0-52-15.5-94-46.5-126.3
		C1976.9,4935.8,1937.7,4919.7,1890.3,4919.7 M2047.7,4565.8h150.1v829.3h-150.1v-63.7c-29.2,27.8-58.5,47.8-87.9,60
		c-29.4,12.3-61.2,18.4-95.6,18.4c-77,0-143.6-29.9-199.8-89.7c-56.2-59.8-84.3-134.1-84.3-223c0-92.1,27.2-167.7,81.6-226.5
		c54.4-58.9,120.5-88.4,198.2-88.4c35.7,0,69.3,6.8,100.7,20.2c31.4,13.4,60.4,33.6,87.1,60.6V4565.8z"/>
	<path fill="#FFFFFF" d="M2630.3,4919.7c-46.3,0-84.7,16.4-115.4,49.1c-30.7,32.8-46,74.8-46,126c0,51.6,15.6,94.1,46.8,127.4
		c31.2,33.4,69.5,50,115.1,50c47,0,86-16.4,117-49.2c31-32.7,46.5-75.7,46.5-128.8c0-52-15.5-94-46.5-126.3
		C2716.9,4935.8,2677.7,4919.7,2630.3,4919.7 M2787.7,4796.8h150.1V5395h-150.1v-63.7c-29.2,27.8-58.5,47.8-87.9,60
		c-29.4,12.3-61.2,18.4-95.5,18.4c-77.1,0-143.7-29.9-199.9-89.7c-56.2-59.8-84.3-134.1-84.3-223c0-92.1,27.2-167.7,81.6-226.5
		c54.4-58.9,120.5-88.4,198.2-88.4c35.8,0,69.3,6.8,100.7,20.1c31.4,13.5,60.4,33.6,87.1,60.4V4796.8z"/>
	<path fill="#FFFFFF" d="M3135.6,5293.3c-13.1,13.2-19.6,29.3-19.6,48.3c0,18.7,6.5,34.7,19.6,48.1c13.1,13.4,28.9,20,47.5,20
		c18.5,0,34.3-6.7,47.4-20c13.1-13.3,19.7-29.4,19.7-48.1c0-19-6.6-35.1-19.7-48.3c-13.1-13.2-28.9-19.8-47.4-19.8
		C3164.5,5273.5,3148.7,5280.2,3135.6,5293.3"/>
	<path fill="#FFFFFF" d="M3986.8,4920.4l-60.8,38c-52.4-70.4-123.8-105.5-214.4-105.5c-72.4,0-132.5,23.4-180.4,70.4
		c-47.8,46.9-71.7,104-71.7,171c0,43.7,11,84.7,33,123.2c22,38.5,52.1,68.3,90.5,89.6c38.4,21.3,81.4,31.9,129,31.9
		c87.3,0,158.6-35.1,213.9-105.5l60.8,40.1c-28.5,43.2-66.7,76.6-114.7,100.5c-48,23.7-102.6,35.6-163.8,35.6
		c-94.1,0-172.2-29.9-234.2-90c-62-60-93-133-93-218.9c0-57.8,14.5-111.4,43.5-161c29-49.6,68.8-88.2,119.5-116
		c50.7-27.8,107.4-41.7,170.2-41.7c39.3,0,77.4,6,114,17.9c36.6,12,67.7,27.6,93.3,46.8C3947.2,4866.1,3969,4890.7,3986.8,4920.4"/>
	<path fill="#FFFFFF" d="M4416.5,4856.9c-63.4,0-117.9,23.7-163.4,70.8c-45.6,47.2-68.3,104.3-68.3,171.1
		c0,43.2,10.3,83.4,31.1,120.7c20.8,37.3,48.8,66.1,84.2,86.4c35.4,20.3,74.1,30.4,116.4,30.4c42.3,0,81-10.1,116.4-30.4
		c35.4-20.3,63.4-49.1,84.2-86.4c20.7-37.3,31.2-77.5,31.2-120.7c0-66.8-22.9-124-68.7-171.1
		C4533.9,4880.5,4479.5,4856.9,4416.5,4856.9 M4416.8,4782.1c91.6,0,167.5,33.3,227.7,99.8c54.8,60.8,82.2,132.6,82.2,215.7
		c0,83.4-29,156.2-86.8,218.6c-57.9,62.4-132.2,93.5-223,93.5c-91.2,0-165.8-31.1-223.6-93.5c-57.9-62.3-86.8-135.2-86.8-218.6
		c0-82.7,27.3-154.3,82.1-215.1C4248.7,4815.6,4324.8,4782.1,4416.8,4782.1"/>
	<path fill="#FFFFFF" d="M4868.3,4796.8h77v103.4c26.7-38,54-66,82.2-83.6c38.8-22.9,79.5-34.5,122.3-34.5
		c28.9,0,56.3,5.7,82.3,17.1c25.9,11.4,47.2,26.4,63.6,45.4c16.5,18.8,30.7,45.9,42.7,81.1c25.4-46.9,57.2-82.6,95.3-107
		c38.1-24.4,79.1-36.6,123-36.6c41,0,77.2,10.4,108.6,31.3c31.4,20.9,54.7,50,70,87.3c15.3,37.4,22.9,93.4,22.9,168.1V5395h-77.1
		v-326.1c0-64.1-4.6-108.1-13.7-132.1c-9.1-24-24.6-43.2-46.6-57.9c-22-14.6-48.3-21.9-78.8-21.9c-37,0-71,11-101.7,33
		c-30.7,22-53.1,51.2-67.3,87.8c-14.2,36.6-21.2,97.8-21.2,183.4v234h-77.1v-305.9c0-72.1-4.5-121-13.4-146.9
		c-8.9-25.8-24.5-46.5-46.7-62c-22.2-15.6-48.7-23.4-79.4-23.4c-35.4,0-68.5,10.8-99.4,32.1c-30.8,21.4-53.5,50.2-68.3,86.5
		c-14.8,36.2-22.2,91.7-22.2,166.4V5395h-77V4796.8z"/>
	<polygon fill="#FFFFFF" points="4236.2,4091.9 4203,4091.9 4203,4112.6 4236.2,4112.6 4236.2,4280.9 4260.1,4280.9 4260.1,4112.6 
		4298.7,4112.6 4298.7,4091.9 4260.1,4091.9 4260.1,4021.8 4236.2,4021.8 	"/>
	<path fill="#FFFFFF" d="M4333.4,4091.9h23.9v32.6c8.4-12,17.1-20.9,25.9-26.4c12.3-7.3,25.1-10.9,38.6-10.9c9.1,0,17.8,1.7,26,5.4
		c8.1,3.5,14.9,8.4,20.1,14.3c5.1,5.9,9.6,14.4,13.4,25.6c8-14.8,18-26,30-33.8c12-7.6,24.9-11.5,38.8-11.5
		c12.9,0,24.3,3.2,34.2,9.9c10,6.5,17.3,15.8,22.1,27.5c4.8,11.8,7.2,29.6,7.2,53.1v103.1h-23.9v-103.3c0-20.2-1.5-34.1-4.3-41.7
		c-2.9-7.6-7.8-13.7-14.8-18.4c-7-4.6-15.3-6.9-24.9-6.9c-11.8,0-22.5,3.5-32.2,10.4c-9.7,6.9-16.9,16.2-21.3,27.8
		c-4.5,11.6-6.7,31-6.7,58v74h-23.9v-96.7c0-22.9-1.4-38.3-4.2-46.5c-2.8-8.2-7.8-14.8-14.9-19.6c-7-5-15.3-7.4-25.1-7.4
		c-11.2,0-21.7,3.4-31.4,10.1c-9.7,6.8-17,15.9-21.7,27.4c-4.7,11.5-7,29-7,52.6v80.1h-23.9V4091.9z"/>
</g>
</svg>
