<?xml version="1.0"?><svg width="800" height="600" xmlns="http://www.w3.org/2000/svg">
 <g>
  <text font-size="47" fill="black" y="80.595428" x="139.40105" xml:space="preserve">
   <tspan y="80.595428" x="139.40105">Many</tspan>
  </text>
  <text font-size="47" fill="black" y="84.395477" x="598.69751" xml:space="preserve">
   <tspan y="83.395477" x="599.69751">Few</tspan>
  </text>
  <g>
   <path d="m91.615623,152.702942c0,3.543686 -2.872719,6.416397 -6.416397,6.416397c-3.543678,0 -6.416397,-2.872711 -6.416397,-6.416397c0,-3.543671 2.872719,-6.416397 6.416397,-6.416397c3.543678,0 6.416397,2.872726 6.416397,6.416397z"/>
   <g>
    <path d="m74.985428,193.354218c-0.013519,3.394958 9.043846,0.546783 10.457283,-0.117859c1.471443,0.538208 10.288376,4.449799 10.290482,1.03595l-0.039368,-32.167755l-10.541733,-0.987793l-10.040436,0.933151l-0.126228,31.304306z"/>
   </g>
   <path d="m84.579628,193.700439l-0.013069,14.811737c-0.00415,4.955444 -9.477982,4.889542 -9.477982,-0.000305l0,-14.877045c0,-4.893692 9.495506,-4.958725 9.491051,0.065613l0,0z"/>
   <path d="m77.280037,168.005112l-4.831688,12.719406c-1.616463,4.255295 -8.271667,1.668137 -6.679619,-2.532074l4.843765,-12.778976c1.593246,-4.203354 8.306496,-1.722885 6.667542,2.591644z"/>
   <path d="m72.454216,180.651581l-4.831635,12.719269c-1.616455,4.255295 -8.271648,1.668152 -6.679604,-2.531906l4.843781,-12.778961c1.593231,-4.203323 8.306511,-1.723083 6.667458,2.591599l0,0z"/>
   <path d="m80.158554,168.92276c-0.963593,2.542175 -3.877625,3.794556 -6.508675,2.797287c-2.631058,-0.997284 -3.982811,-3.866577 -3.019218,-6.408737c0.963585,-2.542175 3.877617,-3.794556 6.508675,-2.797272c2.63105,0.997269 3.982803,3.866562 3.019218,6.408722z"/>
   <path d="m84.53968,209.800079l-0.013039,14.811829c-0.004356,4.955353 -9.477982,4.889618 -9.477982,-0.000198l0,-14.877167c0,-4.893494 9.495445,-4.958771 9.49102,0.065536z"/>
   <path d="m95.640541,193.83049l-0.013062,14.811737c-0.004456,4.95546 -9.477982,4.889542 -9.477982,-0.00029l0,-14.87706c0,-4.893402 9.495499,-4.958725 9.491043,0.065613l0,0z"/>
   <path d="m99.540413,165.481461l5.468254,12.458862c1.829384,4.167999 -4.73098,6.987335 -6.538979,2.875458l-5.501808,-12.509933c-1.809486,-4.114838 4.717621,-7.050583 6.572533,-2.824387l0,0z"/>
   <path d="m104.961754,177.884201l5.468246,12.458862c1.829681,4.167999 -4.730675,6.98735 -6.538971,2.875458l-5.501511,-12.509918c-1.809784,-4.114853 4.717316,-7.050598 6.572235,-2.824402l0,0z"/>
   <path d="m95.600433,209.930161l-0.013031,14.811829c-0.004372,4.955338 -9.477989,4.889618 -9.477989,-0.000214l0,-14.877167c0,-4.893494 9.495445,-4.958771 9.49102,0.065552z"/>
   <path d="m99.221275,165.067108c1.094444,2.488632 -0.106316,5.424316 -2.681969,6.557022c-2.575653,1.132721 -5.55085,0.033524 -6.645294,-2.455124c-1.094437,-2.488632 0.106323,-5.424316 2.681976,-6.557022c2.575653,-1.132706 5.55085,-0.033508 6.645287,2.455124z"/>
  </g>
  <g>
   <path d="m158.748825,129.280258c0,3.543671 -2.872726,6.416397 -6.416412,6.416397c-3.543671,0 -6.416397,-2.872726 -6.416397,-6.416397c0,-3.543686 2.872726,-6.416405 6.416397,-6.416405c3.543686,0 6.416412,2.872719 6.416412,6.416405z"/>
   <g>
    <path d="m142.118622,169.931519c-0.013519,3.394958 9.043839,0.546783 10.457275,-0.117859c1.471451,0.538208 10.288391,4.449814 10.290497,1.03595l-0.039383,-32.16774l-10.541733,-0.987793l-10.040436,0.933136l-0.126221,31.304306z"/>
   </g>
   <path d="m151.71283,170.277756l-0.013077,14.811722c-0.00415,4.95546 -9.477982,4.889542 -9.477982,-0.000305l0,-14.877045c0,-4.893692 9.495499,-4.958725 9.491058,0.065628l0,0z"/>
   <path d="m144.413239,144.582428l-4.831696,12.719391c-1.616455,4.25531 -8.271667,1.668152 -6.679611,-2.532059l4.84375,-12.778992c1.593262,-4.203354 8.306503,-1.722885 6.667557,2.59166z"/>
   <path d="m139.587418,157.228897l-4.831635,12.719254c-1.616455,4.25531 -8.27166,1.668152 -6.679611,-2.531906l4.843781,-12.778946c1.593231,-4.203339 8.306503,-1.723083 6.667465,2.591599l0,0z"/>
   <path d="m147.291748,145.500076c-0.963593,2.54216 -3.877625,3.79454 -6.508682,2.797272c-2.631058,-0.997284 -3.982803,-3.866562 -3.019211,-6.408737c0.963577,-2.542175 3.877609,-3.794556 6.508667,-2.797272c2.631058,0.997284 3.982803,3.866562 3.019226,6.408737z"/>
   <path d="m151.672882,186.377396l-0.013046,14.811813c-0.004364,4.955353 -9.477982,4.889633 -9.477982,-0.000198l0,-14.877167c0,-4.893494 9.495453,-4.958771 9.491028,0.065552z"/>
   <path d="m162.773743,170.407806l-0.013062,14.811722c-0.004456,4.95546 -9.477997,4.889542 -9.477997,-0.00029l0,-14.877045c0,-4.893402 9.495514,-4.958725 9.491058,0.065613l0,0z"/>
   <path d="m166.673615,142.058762l5.468246,12.458862c1.829376,4.167999 -4.730972,6.987335 -6.538986,2.875473l-5.501801,-12.509933c-1.809494,-4.114853 4.717621,-7.050598 6.57254,-2.824402l0,0z"/>
   <path d="m172.09494,154.461502l5.468262,12.458862c1.829681,4.167999 -4.730682,6.98735 -6.538986,2.875458l-5.501511,-12.509918c-1.809784,-4.114853 4.717316,-7.050598 6.572235,-2.824402l0,0z"/>
   <path d="m162.733627,186.507462l-0.013031,14.811829c-0.004364,4.955338 -9.477997,4.889618 -9.477997,-0.000214l0,-14.877167c0,-4.893478 9.495453,-4.958771 9.491028,0.065552z"/>
   <path d="m166.354477,141.644409c1.094437,2.488647 -0.106323,5.424316 -2.681976,6.557037c-2.575653,1.132706 -5.550842,0.033508 -6.645294,-2.455139c-1.094437,-2.488632 0.106323,-5.424316 2.681976,-6.557022c2.575653,-1.132706 5.550842,-0.033508 6.645294,2.455124z"/>
  </g>
  <g>
   <path d="m223.748825,130.708817c0,3.543686 -2.872726,6.416397 -6.416412,6.416397c-3.543671,0 -6.416397,-2.872711 -6.416397,-6.416397c0,-3.543678 2.872726,-6.416397 6.416397,-6.416397c3.543686,0 6.416412,2.872719 6.416412,6.416397z"/>
   <g>
    <path d="m207.118622,171.360092c-0.013519,3.394958 9.043839,0.546768 10.457275,-0.117859c1.471451,0.538208 10.288391,4.449799 10.290497,1.035934l-0.039383,-32.16774l-10.541733,-0.987793l-10.040436,0.933151l-0.126221,31.304306z"/>
   </g>
   <path d="m216.71283,171.706314l-0.013077,14.811737c-0.00415,4.955444 -9.477982,4.889526 -9.477982,-0.000305l0,-14.87706c0,-4.893677 9.495499,-4.95871 9.491058,0.065628l0,0z"/>
   <path d="m209.413239,146.010986l-4.831696,12.719406c-1.616455,4.255295 -8.271667,1.668137 -6.679611,-2.532074l4.84375,-12.778976c1.593262,-4.203354 8.306503,-1.722885 6.667557,2.591644z"/>
   <path d="m204.587418,158.657455l-4.831635,12.719269c-1.616455,4.255295 -8.271652,1.668152 -6.679611,-2.531921l4.843781,-12.778946c1.593231,-4.203339 8.306503,-1.723083 6.667465,2.591599l0,0z"/>
   <path d="m212.291748,146.928635c-0.963593,2.542175 -3.877625,3.794556 -6.508682,2.797272c-2.631058,-0.997269 -3.982803,-3.866562 -3.019211,-6.408737c0.963577,-2.54216 3.877609,-3.79454 6.508667,-2.797256c2.631058,0.997269 3.982803,3.866562 3.019226,6.408722z"/>
   <path d="m216.672882,187.805954l-0.013046,14.811829c-0.004364,4.955353 -9.477982,4.889618 -9.477982,-0.000214l0,-14.877151c0,-4.893494 9.495453,-4.958771 9.491028,0.065536z"/>
   <path d="m227.773743,171.836365l-0.013062,14.811737c-0.004456,4.95546 -9.477997,4.889526 -9.477997,-0.00029l0,-14.87706c0,-4.893402 9.495514,-4.958725 9.491058,0.065613l0,0z"/>
   <path d="m231.673615,143.487335l5.468246,12.458862c1.829376,4.167999 -4.730972,6.987335 -6.538986,2.875458l-5.501801,-12.509933c-1.809494,-4.114838 4.717621,-7.050583 6.57254,-2.824387l0,0z"/>
   <path d="m237.09494,155.890076l5.468262,12.458862c1.829681,4.167999 -4.730682,6.987335 -6.538986,2.875458l-5.501511,-12.509933c-1.809784,-4.114838 4.717316,-7.050583 6.572235,-2.824387l0,0z"/>
   <path d="m227.733627,187.93602l-0.013031,14.811844c-0.004364,4.955338 -9.477997,4.889618 -9.477997,-0.000214l0,-14.877167c0,-4.893494 9.495453,-4.958771 9.491028,0.065536z"/>
   <path d="m231.354477,143.072983c1.094437,2.488632 -0.106323,5.424316 -2.681976,6.557022c-2.575653,1.132706 -5.550842,0.033524 -6.645294,-2.455124c-1.094437,-2.488647 0.106323,-5.424316 2.681976,-6.557022c2.575653,-1.132706 5.550842,-0.033524 6.645294,2.455124z"/>
  </g>
  <g>
   <path d="m295.891693,138.565964c0,3.543671 -2.872742,6.416397 -6.416412,6.416397c-3.543671,0 -6.416412,-2.872726 -6.416412,-6.416397c0,-3.543686 2.872742,-6.416412 6.416412,-6.416412c3.543671,0 6.416412,2.872726 6.416412,6.416412z"/>
   <g>
    <path d="m279.261475,179.217224c-0.013519,3.394958 9.043854,0.546783 10.457275,-0.117859c1.471466,0.538208 10.288391,4.449814 10.290497,1.03595l-0.039368,-32.16774l-10.541748,-0.987793l-10.040436,0.933136l-0.126221,31.304306z"/>
   </g>
   <path d="m288.855682,179.563461l-0.013062,14.811722c-0.00415,4.95546 -9.477997,4.889542 -9.477997,-0.000305l0,-14.877045c0,-4.893692 9.495514,-4.95871 9.491058,0.065628l0,0z"/>
   <path d="m281.556091,153.868134l-4.831696,12.719391c-1.616455,4.25531 -8.271667,1.668152 -6.679596,-2.532059l4.84375,-12.778992c1.593262,-4.203354 8.306488,-1.722885 6.667542,2.59166z"/>
   <path d="m276.730286,166.514603l-4.831635,12.719254c-1.616455,4.25531 -8.271667,1.668152 -6.679626,-2.531906l4.843781,-12.778946c1.593231,-4.203339 8.306519,-1.723083 6.66748,2.591599l0,0z"/>
   <path d="m284.434601,154.785782c-0.963593,2.54216 -3.877625,3.79454 -6.508667,2.797272c-2.631073,-0.997284 -3.982819,-3.866562 -3.019226,-6.408737c0.963593,-2.542175 3.877625,-3.794556 6.508667,-2.797272c2.631073,0.997284 3.982819,3.866562 3.019226,6.408737z"/>
   <path d="m288.815735,195.663101l-0.013031,14.811829c-0.004364,4.955338 -9.477997,4.889618 -9.477997,-0.000214l0,-14.877167c0,-4.893494 9.495453,-4.958771 9.491028,0.065552z"/>
   <path d="m299.916595,179.693512l-0.013062,14.811722c-0.004456,4.95546 -9.477997,4.889542 -9.477997,-0.00029l0,-14.877045c0,-4.893402 9.495514,-4.958725 9.491058,0.065613l0,0z"/>
   <path d="m303.816467,151.344467l5.468262,12.458862c1.829376,4.167999 -4.730988,6.98735 -6.539001,2.875473l-5.501801,-12.509933c-1.809479,-4.114853 4.717621,-7.050598 6.57254,-2.824402l0,0z"/>
   <path d="m309.237793,163.747208l5.468262,12.458862c1.829681,4.167999 -4.730682,6.98735 -6.538971,2.875458l-5.501526,-12.509918c-1.809784,-4.114853 4.717316,-7.050598 6.572235,-2.824402l0,0z"/>
   <path d="m299.876495,195.793167l-0.013031,14.811829c-0.004364,4.955338 -9.477997,4.889618 -9.477997,-0.000214l0,-14.877167c0,-4.893478 9.495453,-4.958755 9.491028,0.065552z"/>
   <path d="m303.497345,150.930115c1.094421,2.488647 -0.106323,5.424316 -2.681976,6.557037c-2.575653,1.132706 -5.550842,0.033508 -6.645294,-2.455139c-1.094452,-2.488632 0.106323,-5.424316 2.681976,-6.557022c2.575653,-1.132706 5.550842,-0.033508 6.645294,2.455124z"/>
  </g>
  <g>
   <path d="m348.74884,195.708817c0,3.543686 -2.872742,6.416397 -6.416412,6.416397c-3.543671,0 -6.416382,-2.872711 -6.416382,-6.416397c0,-3.543686 2.872711,-6.416397 6.416382,-6.416397c3.543671,0 6.416412,2.872711 6.416412,6.416397z"/>
   <g>
    <path d="m332.118622,236.360092c-0.013519,3.394958 9.043854,0.546768 10.457306,-0.117859c1.471436,0.538208 10.288361,4.449799 10.290466,1.035934l-0.039368,-32.16774l-10.541718,-0.987793l-10.040436,0.933151l-0.126251,31.304306z"/>
   </g>
   <path d="m341.71283,236.706314l-0.013062,14.811722c-0.00415,4.955475 -9.477997,4.889557 -9.477997,-0.00029l0,-14.87706c0,-4.893692 9.495514,-4.95871 9.491058,0.065628l0,0z"/>
   <path d="m334.413239,211.010986l-4.831696,12.719406c-1.616455,4.255295 -8.271667,1.668137 -6.679596,-2.532074l4.84375,-12.778976c1.593262,-4.203354 8.306488,-1.722885 6.667542,2.591644z"/>
   <path d="m329.587433,223.657455l-4.831635,12.719269c-1.616455,4.255295 -8.271667,1.668152 -6.679626,-2.531921l4.843781,-12.778946c1.593231,-4.203339 8.306519,-1.723083 6.66748,2.591599l0,0z"/>
   <path d="m337.291748,211.928635c-0.963593,2.542175 -3.877625,3.794556 -6.508667,2.797272c-2.631042,-0.997269 -3.982819,-3.866562 -3.019226,-6.408737c0.963593,-2.54216 3.877625,-3.79454 6.508667,-2.797272c2.631073,0.997284 3.982819,3.866577 3.019226,6.408737z"/>
   <path d="m341.672882,252.805954l-0.013031,14.811813c-0.004364,4.955353 -9.477997,4.889648 -9.477997,-0.000183l0,-14.877167c0,-4.893494 9.495453,-4.958771 9.491028,0.065536z"/>
   <path d="m352.773743,236.836365l-0.013062,14.811722c-0.004456,4.95546 -9.477997,4.889542 -9.477997,-0.00029l0,-14.877045c0,-4.893402 9.495514,-4.958725 9.491058,0.065613l0,0z"/>
   <path d="m356.673615,208.487335l5.468262,12.458862c1.829376,4.167984 -4.730988,6.987335 -6.538971,2.875458l-5.501831,-12.509933c-1.809479,-4.114853 4.717621,-7.050583 6.57254,-2.824387l0,0z"/>
   <path d="m362.09494,220.890076l5.468262,12.458862c1.829681,4.167999 -4.730682,6.987335 -6.538971,2.875458l-5.501495,-12.509933c-1.809784,-4.114838 4.717316,-7.050583 6.572205,-2.824387l0,0z"/>
   <path d="m352.733643,252.93602l-0.013031,14.811844c-0.004364,4.955322 -9.477997,4.889618 -9.477997,-0.000214l0,-14.877167c0,-4.893494 9.495453,-4.958771 9.491028,0.065536z"/>
   <path d="m356.354492,208.072983c1.094421,2.488632 -0.106323,5.424316 -2.681976,6.557022c-2.575653,1.132706 -5.550842,0.033508 -6.645294,-2.455124c-1.094452,-2.488647 0.106323,-5.424316 2.681976,-6.557022c2.575653,-1.132721 5.550842,-0.033524 6.645294,2.455124z"/>
  </g>
  <g>
   <path d="m281.605957,236.423111c0,3.543671 -2.872711,6.416397 -6.416412,6.416397c-3.543671,0 -6.416382,-2.872726 -6.416382,-6.416397c0,-3.543686 2.872711,-6.416397 6.416382,-6.416397c3.543701,0 6.416412,2.872711 6.416412,6.416397z"/>
   <g>
    <path d="m264.975769,277.074371c-0.013519,3.394958 9.043823,0.546783 10.457275,-0.117859c1.471436,0.538208 10.288391,4.449799 10.290497,1.03595l-0.039398,-32.16774l-10.541718,-0.987793l-10.040436,0.933136l-0.126221,31.304306z"/>
   </g>
   <path d="m274.569977,277.420593l-0.013092,14.811737c-0.00415,4.955444 -9.477966,4.889557 -9.477966,-0.000305l0,-14.877045c0,-4.893677 9.495483,-4.95871 9.491058,0.065613l0,0z"/>
   <path d="m267.270386,251.725281l-4.831696,12.719391c-1.616455,4.25531 -8.271683,1.668152 -6.679626,-2.532074l4.843781,-12.778976c1.593231,-4.203354 8.306488,-1.722885 6.667542,2.59166z"/>
   <path d="m262.44455,264.371735l-4.831635,12.719269c-1.616455,4.25531 -8.271652,1.668152 -6.679611,-2.531891l4.843796,-12.778961c1.593231,-4.203339 8.306519,-1.723083 6.66745,2.591583l0,0z"/>
   <path d="m270.148895,252.642929c-0.963593,2.54216 -3.877625,3.79454 -6.508698,2.797272c-2.631042,-0.997284 -3.982788,-3.866562 -3.019196,-6.408737c0.963593,-2.542175 3.877594,-3.794556 6.508667,-2.797272c2.631042,0.997284 3.982819,3.866562 3.019226,6.408737z"/>
   <path d="m274.530029,293.520233l-0.013062,14.811829c-0.004364,4.955353 -9.477966,4.889618 -9.477966,-0.000214l0,-14.877136c0,-4.893494 9.495453,-4.958771 9.491028,0.065521z"/>
   <path d="m285.63089,277.550659l-0.013062,14.811737c-0.004456,4.955444 -9.477997,4.889526 -9.477997,-0.000305l0,-14.877045c0,-4.893402 9.495514,-4.95874 9.491058,0.065613l0,0z"/>
   <path d="m289.530762,249.20163l5.468231,12.458862c1.829376,4.167999 -4.730957,6.987335 -6.538971,2.875458l-5.501801,-12.509933c-1.809479,-4.114853 4.717621,-7.050583 6.57254,-2.824387l0,0z"/>
   <path d="m294.952087,261.60437l5.468262,12.458862c1.829681,4.167999 -4.730682,6.987335 -6.539001,2.875458l-5.501495,-12.509949c-1.809784,-4.114838 4.717316,-7.050568 6.572235,-2.824371l0,0z"/>
   <path d="m285.590759,293.650299l-0.013031,14.811859c-0.004364,4.955322 -9.477997,4.889618 -9.477997,-0.000214l0,-14.877167c0,-4.893494 9.495453,-4.958771 9.491028,0.065521z"/>
   <path d="m289.211609,248.787262c1.094452,2.488647 -0.106323,5.424332 -2.681976,6.557037c-2.575653,1.13269 -5.550842,0.033508 -6.645294,-2.455139c-1.094421,-2.488632 0.106323,-5.424316 2.681976,-6.557022c2.575653,-1.132706 5.550842,-0.033508 6.645294,2.455124z"/>
  </g>
  <g>
   <path d="m219.463104,232.851669c0,3.543686 -2.872711,6.416412 -6.416397,6.416412c-3.543671,0 -6.416397,-2.872726 -6.416397,-6.416412c0,-3.543671 2.872726,-6.416397 6.416397,-6.416397c3.543686,0 6.416397,2.872726 6.416397,6.416397z"/>
   <g>
    <path d="m202.832916,273.50296c-0.013519,3.394958 9.043839,0.546753 10.457275,-0.117859c1.471451,0.538208 10.288376,4.449799 10.290482,1.035919l-0.039368,-32.167725l-10.541733,-0.987808l-10.040436,0.933151l-0.126221,31.304321z"/>
   </g>
   <path d="m212.427109,273.849182l-0.013062,14.811707c-0.00415,4.955475 -9.477982,4.889557 -9.477982,-0.000275l0,-14.877075c0,-4.893677 9.495499,-4.95871 9.491043,0.065643l0,0z"/>
   <path d="m205.127518,248.153854l-4.83168,12.719406c-1.61647,4.25528 -8.271667,1.668121 -6.679626,-2.532074l4.843765,-12.778992c1.593246,-4.203354 8.306503,-1.722885 6.667542,2.59166z"/>
   <path d="m200.301697,260.800323l-4.831635,12.719269c-1.616455,4.25528 -8.271652,1.668152 -6.679596,-2.531921l4.843781,-12.778961c1.593231,-4.203323 8.306503,-1.723083 6.66745,2.591614l0,0z"/>
   <path d="m208.006042,249.071503c-0.963593,2.54216 -3.877625,3.79454 -6.508682,2.797272c-2.631058,-0.997284 -3.982803,-3.866562 -3.019211,-6.408737c0.963577,-2.542175 3.877609,-3.794556 6.508667,-2.797272c2.631058,0.997284 3.982803,3.866562 3.019226,6.408737z"/>
   <path d="m212.387161,289.948822l-0.013031,14.811829c-0.004364,4.955322 -9.477982,4.889618 -9.477982,-0.000214l0,-14.877167c0,-4.893494 9.495438,-4.958771 9.491013,0.065552z"/>
   <path d="m223.488022,273.979218l-0.013062,14.811737c-0.004456,4.955475 -9.477982,4.889526 -9.477982,-0.000305l0,-14.877045c0,-4.893402 9.495499,-4.95871 9.491043,0.065613l0,0z"/>
   <path d="m227.387894,245.630188l5.468262,12.458862c1.829376,4.167999 -4.730988,6.987335 -6.538986,2.875458l-5.501801,-12.509918c-1.809494,-4.114853 4.717621,-7.050598 6.572525,-2.824402l0,0z"/>
   <path d="m232.809235,258.032928l5.468246,12.458862c1.829681,4.167999 -4.730667,6.987335 -6.538971,2.875458l-5.501511,-12.509918c-1.809784,-4.114838 4.717316,-7.050598 6.572235,-2.824402l0,0z"/>
   <path d="m223.447922,290.078888l-0.013031,14.811829c-0.004379,4.955353 -9.477997,4.889618 -9.477997,-0.000214l0,-14.877167c0,-4.893494 9.495453,-4.958771 9.491028,0.065552z"/>
   <path d="m227.068756,245.215836c1.094452,2.488632 -0.106308,5.424316 -2.681961,6.557037c-2.575653,1.132706 -5.550858,0.033508 -6.645294,-2.455139c-1.094437,-2.488632 0.106323,-5.424316 2.681976,-6.557022c2.575653,-1.132706 5.550842,-0.033508 6.645279,2.455124z"/>
  </g>
  <g>
   <path d="m153.034546,229.280243c0,3.543686 -2.872726,6.416397 -6.416412,6.416397c-3.543671,0 -6.416397,-2.872711 -6.416397,-6.416397c0,-3.543671 2.872726,-6.416397 6.416397,-6.416397c3.543686,0 6.416412,2.872726 6.416412,6.416397z"/>
   <g>
    <path d="m136.404343,269.931519c-0.013519,3.394958 9.043839,0.546783 10.457275,-0.117859c1.471451,0.538208 10.288391,4.449799 10.290497,1.03595l-0.039383,-32.167755l-10.541733,-0.987793l-10.040436,0.933151l-0.126221,31.304306z"/>
   </g>
   <path d="m145.99855,270.27774l-0.013077,14.811737c-0.00415,4.955444 -9.477982,4.889526 -9.477982,-0.000305l0,-14.877045c0,-4.893707 9.495499,-4.95871 9.491058,0.065613l0,0z"/>
   <path d="m138.698959,244.582413l-4.831696,12.719406c-1.616455,4.25531 -8.271667,1.668152 -6.679619,-2.532074l4.843758,-12.778976c1.593262,-4.203354 8.306503,-1.722885 6.667557,2.591644z"/>
   <path d="m133.873138,257.228882l-4.831635,12.719269c-1.616463,4.25531 -8.27166,1.668152 -6.679611,-2.531921l4.843781,-12.778946c1.593231,-4.203339 8.306503,-1.723083 6.667465,2.591599l0,0z"/>
   <path d="m141.577469,245.500061c-0.963593,2.542175 -3.877625,3.794556 -6.508682,2.797272c-2.631058,-0.997269 -3.982803,-3.866562 -3.019211,-6.408737c0.963577,-2.54216 3.877609,-3.79454 6.508667,-2.797256c2.631058,0.997269 3.982803,3.866562 3.019226,6.408722z"/>
   <path d="m145.958603,286.37738l-0.013046,14.811829c-0.004364,4.955353 -9.477982,4.889618 -9.477982,-0.000214l0,-14.877167c0,-4.893463 9.495453,-4.958771 9.491028,0.065552z"/>
   <path d="m157.059464,270.407806l-0.013062,14.811707c-0.004456,4.955475 -9.477997,4.889557 -9.477997,-0.000275l0,-14.877045c0,-4.893402 9.495514,-4.95874 9.491058,0.065613l0,0z"/>
   <path d="m160.959335,242.058762l5.468246,12.458862c1.829376,4.167984 -4.730972,6.98735 -6.538986,2.875473l-5.501801,-12.509949c-1.809494,-4.114838 4.717621,-7.050583 6.57254,-2.824387l0,0z"/>
   <path d="m166.380661,254.461502l5.468262,12.458847c1.829681,4.16803 -4.730682,6.987366 -6.538986,2.875488l-5.501495,-12.509949c-1.809799,-4.114838 4.7173,-7.050583 6.57222,-2.824387l0,0z"/>
   <path d="m157.019348,286.507446l-0.013031,14.811829c-0.004364,4.955353 -9.477997,4.889618 -9.477997,-0.000214l0,-14.877136c0,-4.893494 9.495453,-4.958771 9.491028,0.065521z"/>
   <path d="m160.640198,241.644409c1.094437,2.488632 -0.106323,5.424316 -2.681976,6.557022c-2.575653,1.132706 -5.550842,0.033524 -6.645294,-2.455124c-1.094437,-2.488632 0.106323,-5.424316 2.681976,-6.557022c2.575653,-1.132706 5.550842,-0.033524 6.645294,2.455124z"/>
  </g>
  <g>
   <path d="m83.748817,255.708817c0,3.543686 -2.872719,6.416397 -6.416397,6.416397c-3.543686,0 -6.416405,-2.872711 -6.416405,-6.416397c0,-3.543686 2.872719,-6.416397 6.416405,-6.416397c3.543678,0 6.416397,2.872711 6.416397,6.416397z"/>
   <g>
    <path d="m67.118622,296.360077c-0.013527,3.394958 9.043839,0.546783 10.457283,-0.117859c1.471436,0.538208 10.288376,4.449829 10.290482,1.03595l-0.039368,-32.167725l-10.54174,-0.987793l-10.040428,0.933136l-0.126228,31.304291z"/>
   </g>
   <path d="m76.712822,296.706329l-0.013069,14.811707c-0.00415,4.955475 -9.477982,4.889557 -9.477982,-0.000305l0,-14.877045c0,-4.893677 9.495506,-4.95871 9.491051,0.065643l0,0z"/>
   <path d="m69.413231,271.010986l-4.831688,12.719391c-1.616463,4.25531 -8.271671,1.668152 -6.679619,-2.532074l4.843761,-12.778961c1.59325,-4.203369 8.306499,-1.7229 6.667545,2.591644z"/>
   <path d="m64.58741,283.65744l-4.831635,12.719269c-1.616455,4.25531 -8.271652,1.668152 -6.679607,-2.531891l4.843781,-12.778961c1.593235,-4.203339 8.306515,-1.723083 6.667461,2.591583l0,0z"/>
   <path d="m72.29174,271.92865c-0.963585,2.542145 -3.877617,3.794525 -6.508675,2.797272c-2.631054,-0.997284 -3.982803,-3.866577 -3.019215,-6.408752c0.963585,-2.542175 3.877613,-3.794556 6.508671,-2.797272c2.631058,0.997284 3.982811,3.866577 3.019218,6.408752z"/>
   <path d="m76.672874,312.805939l-0.013039,14.811829c-0.004364,4.955353 -9.477989,4.889648 -9.477989,-0.000183l0,-14.877167c0,-4.893494 9.495453,-4.958771 9.491028,0.065521z"/>
   <path d="m87.773735,296.836365l-0.013062,14.811737c-0.004456,4.955444 -9.477989,4.889526 -9.477989,-0.000305l0,-14.877045c0,-4.893402 9.495506,-4.95874 9.491051,0.065613l0,0z"/>
   <path d="m91.673607,268.487335l5.468254,12.458862c1.829376,4.167999 -4.73098,6.987335 -6.538986,2.875458l-5.501801,-12.509918c-1.809486,-4.114868 4.717613,-7.050598 6.572533,-2.824402l0,0z"/>
   <path d="m97.09494,280.890076l5.468254,12.458862c1.829681,4.167999 -4.730675,6.987335 -6.538979,2.875458l-5.501503,-12.509918c-1.809784,-4.114868 4.717316,-7.050598 6.572227,-2.824402l0,0z"/>
   <path d="m87.733627,312.936035l-0.013031,14.811829c-0.004372,4.955322 -9.477997,4.889618 -9.477997,-0.000214l0,-14.877167c0,-4.893494 9.495453,-4.958771 9.491028,0.065552z"/>
   <path d="m91.354469,268.072968c1.094444,2.488647 -0.106316,5.424316 -2.681969,6.557037c-2.575653,1.132721 -5.55085,0.033508 -6.645294,-2.455139c-1.094437,-2.488617 0.106316,-5.424316 2.681976,-6.557007c2.575645,-1.132721 5.55085,-0.033508 6.645287,2.455109z"/>
  </g>
  <g>
   <path d="m145.891678,327.851685c0,3.543671 -2.872711,6.416382 -6.416397,6.416382c-3.543686,0 -6.416397,-2.872711 -6.416397,-6.416382c0,-3.543701 2.872711,-6.416412 6.416397,-6.416412c3.543686,0 6.416397,2.872711 6.416397,6.416412z"/>
   <g>
    <path d="m129.26149,368.50296c-0.013535,3.394958 9.043839,0.546753 10.457275,-0.117859c1.471436,0.538208 10.288376,4.449799 10.290482,1.035919l-0.039368,-32.167725l-10.541733,-0.987793l-10.040436,0.933136l-0.126221,31.304321z"/>
   </g>
   <path d="m138.855682,368.849182l-0.013062,14.811707c-0.004166,4.955475 -9.477997,4.889557 -9.477997,-0.000275l0,-14.877075c0,-4.893677 9.495514,-4.95871 9.491058,0.065643l0,0z"/>
   <path d="m131.556091,343.153839l-4.831688,12.719421c-1.616463,4.25528 -8.271667,1.668121 -6.679619,-2.532074l4.843765,-12.778992c1.593246,-4.203339 8.306488,-1.72287 6.667542,2.591644z"/>
   <path d="m126.73027,355.800323l-4.831635,12.719269c-1.616455,4.25528 -8.271652,1.668152 -6.679604,-2.531921l4.843781,-12.778961c1.593231,-4.203339 8.306511,-1.723083 6.667458,2.591614l0,0z"/>
   <path d="m134.434601,344.071503c-0.963577,2.542175 -3.877609,3.794556 -6.508667,2.797272c-2.631058,-0.997284 -3.982811,-3.866577 -3.019218,-6.408752c0.963585,-2.542145 3.877617,-3.794525 6.508675,-2.797272c2.631058,0.997284 3.982803,3.866577 3.019211,6.408752z"/>
   <path d="m138.815735,384.948822l-0.013031,14.811829c-0.004364,4.955322 -9.477997,4.889618 -9.477997,-0.000214l0,-14.877167c0,-4.893494 9.495453,-4.958771 9.491028,0.065552z"/>
   <path d="m149.916595,368.979218l-0.013062,14.811737c-0.004456,4.955475 -9.477982,4.889526 -9.477982,-0.000305l0,-14.877045c0,-4.893402 9.495499,-4.95871 9.491043,0.065613l0,0z"/>
   <path d="m153.816467,340.630188l5.468262,12.458862c1.829376,4.167999 -4.730988,6.987335 -6.538986,2.875458l-5.501801,-12.509918c-1.809494,-4.114868 4.717606,-7.050598 6.572525,-2.824402l0,0z"/>
   <path d="m159.237808,353.032928l5.468246,12.458862c1.829681,4.167999 -4.730667,6.987335 -6.538971,2.875458l-5.501511,-12.509918c-1.809784,-4.114838 4.717316,-7.050598 6.572235,-2.824402l0,0z"/>
   <path d="m149.876495,385.078888l-0.013046,14.811829c-0.004364,4.955353 -9.477982,4.889618 -9.477982,-0.000214l0,-14.877167c0,-4.893494 9.495453,-4.958771 9.491028,0.065552z"/>
   <path d="m153.49733,340.215851c1.094452,2.488617 -0.106308,5.424316 -2.681961,6.557007c-2.575653,1.132721 -5.550858,0.033508 -6.645294,-2.455109c-1.094452,-2.488647 0.106308,-5.424316 2.681961,-6.557037c2.575653,-1.132721 5.550858,-0.033508 6.645294,2.455139z"/>
  </g>
  <g>
   <path d="m219.463104,334.994537c0,3.543671 -2.872711,6.416382 -6.416397,6.416382c-3.543671,0 -6.416397,-2.872711 -6.416397,-6.416382c0,-3.543701 2.872726,-6.416412 6.416397,-6.416412c3.543686,0 6.416397,2.872711 6.416397,6.416412z"/>
   <g>
    <path d="m202.832916,375.645813c-0.013519,3.394958 9.043839,0.546753 10.457275,-0.117859c1.471451,0.538177 10.288376,4.449799 10.290482,1.035919l-0.039368,-32.167725l-10.541733,-0.987793l-10.040436,0.933136l-0.126221,31.304321z"/>
   </g>
   <path d="m212.427109,375.992035l-0.013062,14.811707c-0.00415,4.955475 -9.477982,4.889557 -9.477982,-0.000275l0,-14.877075c0,-4.893677 9.495499,-4.95871 9.491043,0.065643l0,0z"/>
   <path d="m205.127518,350.296692l-4.83168,12.719391c-1.61647,4.25531 -8.271667,1.668152 -6.679626,-2.532043l4.843765,-12.778992c1.593246,-4.203369 8.306503,-1.7229 6.667542,2.591644z"/>
   <path d="m200.301697,362.943176l-4.831635,12.719238c-1.616455,4.25531 -8.271652,1.668152 -6.679596,-2.531891l4.843781,-12.778961c1.593231,-4.203339 8.306503,-1.723083 6.66745,2.591614l0,0z"/>
   <path d="m208.006042,351.214355c-0.963593,2.542175 -3.877625,3.794556 -6.508682,2.797272c-2.631058,-0.997284 -3.982803,-3.866577 -3.019211,-6.408752c0.963577,-2.542175 3.877609,-3.794525 6.508667,-2.797272c2.631058,0.997284 3.982803,3.866577 3.019226,6.408752z"/>
   <path d="m212.387161,392.091675l-0.013031,14.811829c-0.004364,4.955322 -9.477982,4.889618 -9.477982,-0.000214l0,-14.877167c0,-4.893494 9.495438,-4.958771 9.491013,0.065552z"/>
   <path d="m223.488022,376.12207l-0.013062,14.811737c-0.004456,4.955444 -9.477982,4.889526 -9.477982,-0.000305l0,-14.877045c0,-4.893402 9.495499,-4.95871 9.491043,0.065613l0,0z"/>
   <path d="m227.387894,347.773041l5.468262,12.458862c1.829376,4.167999 -4.730988,6.987335 -6.538986,2.875458l-5.501801,-12.509918c-1.809494,-4.114868 4.717621,-7.050598 6.572525,-2.824402l0,0z"/>
   <path d="m232.809235,360.175781l5.468246,12.458862c1.829681,4.167999 -4.730667,6.987335 -6.538971,2.875458l-5.501511,-12.509918c-1.809784,-4.114868 4.717316,-7.050598 6.572235,-2.824402l0,0z"/>
   <path d="m223.447922,392.221741l-0.013031,14.811829c-0.004379,4.955322 -9.477997,4.889618 -9.477997,-0.000214l0,-14.877167c0,-4.893494 9.495453,-4.958771 9.491028,0.065552z"/>
   <path d="m227.068756,347.358673c1.094452,2.488647 -0.106308,5.424347 -2.681961,6.557037c-2.575653,1.132721 -5.550858,0.033508 -6.645294,-2.455139c-1.094437,-2.488617 0.106323,-5.424286 2.681976,-6.557007c2.575653,-1.132721 5.550842,-0.033508 6.645279,2.455109z"/>
  </g>
  <g>
   <path d="m284.463104,332.851685c0,3.543671 -2.872711,6.416382 -6.416382,6.416382c-3.543701,0 -6.416412,-2.872711 -6.416412,-6.416382c0,-3.543701 2.872711,-6.416412 6.416412,-6.416412c3.543671,0 6.416382,2.872711 6.416382,6.416412z"/>
   <g>
    <path d="m267.832916,373.50296c-0.013519,3.394958 9.043854,0.546753 10.457275,-0.117859c1.471436,0.538208 10.288391,4.449799 10.290497,1.035919l-0.039368,-32.167725l-10.541748,-0.987793l-10.040436,0.933136l-0.126221,31.304321z"/>
   </g>
   <path d="m277.427124,373.849182l-0.013092,14.811707c-0.00415,4.955475 -9.477966,4.889557 -9.477966,-0.000275l0,-14.877075c0,-4.893677 9.495514,-4.95871 9.491058,0.065643l0,0z"/>
   <path d="m270.127533,348.153839l-4.831696,12.719421c-1.616455,4.25528 -8.271667,1.668121 -6.679626,-2.532074l4.843781,-12.778992c1.593231,-4.203339 8.306488,-1.72287 6.667542,2.591644z"/>
   <path d="m265.301697,360.800323l-4.831635,12.719269c-1.616455,4.25528 -8.271652,1.668152 -6.679596,-2.531921l4.843781,-12.778961c1.593231,-4.203339 8.306519,-1.723083 6.66745,2.591614l0,0z"/>
   <path d="m273.006042,349.071503c-0.963593,2.542175 -3.877625,3.794556 -6.508698,2.797272c-2.631042,-0.997284 -3.982788,-3.866577 -3.019196,-6.408752c0.963593,-2.542145 3.877625,-3.794525 6.508667,-2.797272c2.631042,0.997284 3.982819,3.866577 3.019226,6.408752z"/>
   <path d="m277.387177,389.948822l-0.013062,14.811829c-0.004333,4.955322 -9.477966,4.889618 -9.477966,-0.000214l0,-14.877167c0,-4.893494 9.495453,-4.958771 9.491028,0.065552z"/>
   <path d="m288.488037,373.979218l-0.013062,14.811737c-0.004456,4.955475 -9.477997,4.889526 -9.477997,-0.000305l0,-14.877045c0,-4.893402 9.495514,-4.95871 9.491058,0.065613l0,0z"/>
   <path d="m292.387909,345.630188l5.468231,12.458862c1.829376,4.167999 -4.730957,6.987335 -6.538971,2.875458l-5.501801,-12.509918c-1.809479,-4.114868 4.717621,-7.050598 6.57254,-2.824402l0,0z"/>
   <path d="m297.809235,358.032928l5.468262,12.458862c1.829681,4.167999 -4.730682,6.987335 -6.538971,2.875458l-5.501526,-12.509918c-1.809784,-4.114838 4.717316,-7.050598 6.572235,-2.824402l0,0z"/>
   <path d="m288.447906,390.078888l-0.013031,14.811829c-0.004364,4.955353 -9.477966,4.889618 -9.477966,-0.000214l0,-14.877167c0,-4.893494 9.495422,-4.958771 9.490997,0.065552z"/>
   <path d="m292.068756,345.215851c1.094452,2.488617 -0.106323,5.424316 -2.681976,6.557007c-2.575653,1.132721 -5.550842,0.033508 -6.645294,-2.455109c-1.094421,-2.488647 0.106323,-5.424316 2.681976,-6.557037c2.575653,-1.132721 5.550873,-0.033508 6.645294,2.455139z"/>
  </g>
  <g>
   <path d="m350.891693,292.851685c0,3.543671 -2.872742,6.416382 -6.416412,6.416382c-3.543671,0 -6.416412,-2.872711 -6.416412,-6.416382c0,-3.543701 2.872742,-6.416412 6.416412,-6.416412c3.543671,0 6.416412,2.872711 6.416412,6.416412z"/>
   <g>
    <path d="m334.261475,333.50296c-0.013519,3.394958 9.043854,0.546753 10.457275,-0.117859c1.471466,0.538208 10.288391,4.449799 10.290497,1.035919l-0.039368,-32.167725l-10.541748,-0.987793l-10.040436,0.933136l-0.126221,31.304321z"/>
   </g>
   <path d="m343.855682,333.849182l-0.013062,14.811707c-0.00415,4.955475 -9.477997,4.889557 -9.477997,-0.000275l0,-14.877075c0,-4.893677 9.495514,-4.95871 9.491058,0.065643l0,0z"/>
   <path d="m336.556091,308.153839l-4.831696,12.719421c-1.616455,4.25528 -8.271667,1.668121 -6.679596,-2.532074l4.84375,-12.778992c1.593262,-4.203339 8.306488,-1.72287 6.667542,2.591644z"/>
   <path d="m331.730286,320.800323l-4.831635,12.719269c-1.616455,4.25528 -8.271667,1.668152 -6.679626,-2.531921l4.843781,-12.778961c1.593231,-4.203339 8.306519,-1.723083 6.66748,2.591614l0,0z"/>
   <path d="m339.434601,309.071503c-0.963593,2.542175 -3.877625,3.794556 -6.508667,2.797272c-2.631073,-0.997284 -3.982819,-3.866577 -3.019226,-6.408752c0.963593,-2.542145 3.877625,-3.794525 6.508667,-2.797272c2.631073,0.997284 3.982819,3.866577 3.019226,6.408752z"/>
   <path d="m343.815735,349.948822l-0.013031,14.811829c-0.004364,4.955322 -9.477997,4.889618 -9.477997,-0.000214l0,-14.877167c0,-4.893494 9.495453,-4.958771 9.491028,0.065552z"/>
   <path d="m354.916595,333.979218l-0.013062,14.811737c-0.004456,4.955475 -9.477997,4.889526 -9.477997,-0.000305l0,-14.877045c0,-4.893402 9.495514,-4.95871 9.491058,0.065613l0,0z"/>
   <path d="m358.816467,305.630188l5.468262,12.458862c1.829376,4.167999 -4.730988,6.987335 -6.539001,2.875458l-5.501801,-12.509918c-1.809479,-4.114868 4.717621,-7.050598 6.57254,-2.824402l0,0z"/>
   <path d="m364.237793,318.032928l5.468262,12.458862c1.829681,4.167999 -4.730682,6.987335 -6.538971,2.875458l-5.501526,-12.509918c-1.809784,-4.114838 4.717316,-7.050598 6.572235,-2.824402l0,0z"/>
   <path d="m354.876495,350.078888l-0.013031,14.811829c-0.004364,4.955353 -9.477997,4.889618 -9.477997,-0.000214l0,-14.877167c0,-4.893494 9.495453,-4.958771 9.491028,0.065552z"/>
   <path d="m358.497345,305.215851c1.094421,2.488617 -0.106323,5.424316 -2.681976,6.557007c-2.575653,1.132721 -5.550842,0.033508 -6.645294,-2.455109c-1.094452,-2.488647 0.106323,-5.424316 2.681976,-6.557037c2.575653,-1.132721 5.550842,-0.033508 6.645294,2.455139z"/>
  </g>
  <g>
   <path d="m82.320251,358.565948c0,3.543701 -2.872719,6.416412 -6.416397,6.416412c-3.543686,0 -6.416397,-2.872711 -6.416397,-6.416412c0,-3.543671 2.872711,-6.416382 6.416397,-6.416382c3.543678,0 6.416397,2.872711 6.416397,6.416382z"/>
   <g>
    <path d="m65.690056,399.217224c-0.013519,3.394958 9.043839,0.546783 10.457283,-0.117859c1.471443,0.538208 10.288376,4.449799 10.290482,1.03595l-0.039368,-32.167755l-10.541733,-0.987793l-10.040436,0.933167l-0.126228,31.304291z"/>
   </g>
   <path d="m75.284256,399.563446l-0.013069,14.811737c-0.00415,4.955444 -9.477982,4.889526 -9.477982,-0.000305l0,-14.877045c0,-4.893707 9.495506,-4.95871 9.491051,0.065613l0,0z"/>
   <path d="m67.984665,373.868134l-4.831688,12.719391c-1.616463,4.25531 -8.271671,1.668152 -6.679619,-2.532074l4.843765,-12.778961c1.593246,-4.203369 8.306496,-1.7229 6.667542,2.591644z"/>
   <path d="m63.158844,386.514587l-4.831635,12.719269c-1.616451,4.25531 -8.271648,1.668152 -6.679604,-2.531921l4.843781,-12.778931c1.593231,-4.203339 8.306511,-1.723083 6.667458,2.591583l0,0z"/>
   <path d="m70.863182,374.785767c-0.963593,2.542175 -3.877625,3.794556 -6.508682,2.797272c-2.631054,-0.997253 -3.982803,-3.866547 -3.019215,-6.408722c0.963589,-2.542175 3.877621,-3.794556 6.508671,-2.797272c2.631058,0.997284 3.982811,3.866577 3.019226,6.408722z"/>
   <path d="m75.244308,415.663086l-0.013039,14.811829c-0.004364,4.955353 -9.477989,4.889618 -9.477989,-0.000214l0,-14.877136c0,-4.893494 9.495453,-4.958771 9.491028,0.065521z"/>
   <path d="m86.345169,399.693512l-0.013062,14.811737c-0.004456,4.955444 -9.477989,4.889526 -9.477989,-0.000305l0,-14.877045c0,-4.893402 9.495506,-4.95874 9.491051,0.065613l0,0z"/>
   <path d="m90.245041,371.344482l5.468254,12.458862c1.829376,4.167969 -4.73098,6.987335 -6.538979,2.875458l-5.501808,-12.509949c-1.809486,-4.114838 4.717621,-7.050568 6.572533,-2.824371l0,0z"/>
   <path d="m95.666374,383.747223l5.468254,12.458862c1.829681,4.167999 -4.730675,6.987335 -6.538971,2.875458l-5.501511,-12.509949c-1.809784,-4.114838 4.717316,-7.050568 6.572227,-2.824371l0,0z"/>
   <path d="m86.305061,415.793152l-0.013031,14.811859c-0.004372,4.955322 -9.477989,4.889587 -9.477989,-0.000214l0,-14.877167c0,-4.893494 9.495445,-4.958771 9.49102,0.065521z"/>
   <path d="m89.925903,370.930115c1.094444,2.488647 -0.106316,5.424316 -2.681969,6.557037c-2.575653,1.13269 -5.55085,0.033508 -6.645294,-2.455139c-1.094437,-2.488647 0.106323,-5.424316 2.681976,-6.557007c2.575653,-1.132721 5.55085,-0.033539 6.645287,2.455109z"/>
  </g>
  <g>
   <path d="m350.177399,390.708801c0,3.543701 -2.872742,6.416412 -6.416412,6.416412c-3.543671,0 -6.416382,-2.872711 -6.416382,-6.416412c0,-3.543671 2.872711,-6.416382 6.416382,-6.416382c3.543671,0 6.416412,2.872711 6.416412,6.416382z"/>
   <g>
    <path d="m333.54718,431.360077c-0.013519,3.394958 9.043854,0.546783 10.457306,-0.117859c1.471436,0.538208 10.288361,4.449829 10.290466,1.03595l-0.039368,-32.167725l-10.541718,-0.987793l-10.040436,0.933136l-0.126251,31.304291z"/>
   </g>
   <path d="m343.141388,431.706329l-0.013062,14.811707c-0.00415,4.955475 -9.477997,4.889557 -9.477997,-0.000305l0,-14.877045c0,-4.893677 9.495514,-4.95871 9.491058,0.065643l0,0z"/>
   <path d="m335.841797,406.010986l-4.831696,12.719391c-1.616455,4.25531 -8.271667,1.668152 -6.679596,-2.532074l4.84375,-12.778961c1.593262,-4.203369 8.306488,-1.7229 6.667542,2.591644z"/>
   <path d="m331.015991,418.65744l-4.831635,12.719269c-1.616455,4.25531 -8.271667,1.668152 -6.679626,-2.531891l4.843781,-12.778961c1.593231,-4.203339 8.306519,-1.723083 6.66748,2.591583l0,0z"/>
   <path d="m338.720306,406.92865c-0.963593,2.542145 -3.877625,3.794525 -6.508667,2.797272c-2.631042,-0.997284 -3.982819,-3.866577 -3.019226,-6.408752c0.963593,-2.542175 3.877625,-3.794556 6.508698,-2.797272c2.631042,0.997284 3.982788,3.866577 3.019196,6.408752z"/>
   <path d="m343.10144,447.805939l-0.013031,14.811829c-0.004364,4.955353 -9.477997,4.889648 -9.477997,-0.000183l0,-14.877167c0,-4.893494 9.495453,-4.958771 9.491028,0.065521z"/>
   <path d="m354.202301,431.836365l-0.013062,14.811737c-0.004456,4.955444 -9.477966,4.889526 -9.477966,-0.000305l0,-14.877045c0,-4.893402 9.495483,-4.95874 9.491028,0.065613l0,0z"/>
   <path d="m358.102173,403.487335l5.468262,12.458862c1.829376,4.167999 -4.730988,6.987335 -6.538971,2.875458l-5.501801,-12.509918c-1.809509,-4.114868 4.71759,-7.050598 6.57251,-2.824402l0,0z"/>
   <path d="m363.523529,415.890076l5.468231,12.458862c1.829681,4.167999 -4.730682,6.987335 -6.538971,2.875458l-5.501495,-12.509918c-1.809784,-4.114868 4.717316,-7.050598 6.572235,-2.824402l0,0z"/>
   <path d="m354.162201,447.936035l-0.013031,14.811829c-0.004364,4.955322 -9.477997,4.889618 -9.477997,-0.000214l0,-14.877167c0,-4.893494 9.495453,-4.958771 9.491028,0.065552z"/>
   <path d="m357.783051,403.072968c1.094421,2.488647 -0.106323,5.424316 -2.681976,6.557037c-2.575653,1.132721 -5.550842,0.033508 -6.645294,-2.455139c-1.094452,-2.488617 0.106323,-5.424316 2.681976,-6.557007c2.575653,-1.132721 5.550842,-0.033508 6.645294,2.455109z"/>
  </g>
  <g>
   <path d="m283.034546,436.423096c0,3.543671 -2.872711,6.416412 -6.416412,6.416412c-3.543671,0 -6.416382,-2.872742 -6.416382,-6.416412c0,-3.543671 2.872711,-6.416412 6.416382,-6.416412c3.543701,0 6.416412,2.872742 6.416412,6.416412z"/>
   <g>
    <path d="m266.404358,477.074371c-0.01355,3.394958 9.043823,0.546783 10.457275,-0.117859c1.471436,0.538208 10.288361,4.449799 10.290466,1.03595l-0.039368,-32.167755l-10.541718,-0.987793l-10.040436,0.933136l-0.126221,31.304321z"/>
   </g>
   <path d="m275.998535,477.420593l-0.013062,14.811737c-0.00415,4.955444 -9.477997,4.889526 -9.477997,-0.000305l0,-14.877045c0,-4.893707 9.495514,-4.95874 9.491058,0.065613l0,0z"/>
   <path d="m268.698944,451.725281l-4.831665,12.719391c-1.616486,4.25531 -8.271683,1.668152 -6.679626,-2.532074l4.84375,-12.778992c1.593262,-4.203339 8.306488,-1.72287 6.667542,2.591675z"/>
   <path d="m263.873138,464.371735l-4.831635,12.719269c-1.616455,4.25531 -8.271652,1.668152 -6.679611,-2.531921l4.843765,-12.778931c1.593262,-4.203339 8.306519,-1.723114 6.66748,2.591583l0,0z"/>
   <path d="m271.577454,452.642914c-0.963562,2.542175 -3.877625,3.794556 -6.508667,2.797272c-2.631042,-0.997284 -3.982788,-3.866547 -3.019226,-6.408722c0.963593,-2.542175 3.877625,-3.794556 6.508698,-2.797272c2.631042,0.997284 3.982788,3.866547 3.019196,6.408722z"/>
   <path d="m275.958588,493.520233l-0.013031,14.811829c-0.004364,4.955353 -9.477997,4.889618 -9.477997,-0.000214l0,-14.877167c0,-4.893494 9.495453,-4.958771 9.491028,0.065552z"/>
   <path d="m287.059448,477.550659l-0.013062,14.811707c-0.004456,4.955475 -9.477966,4.889557 -9.477966,-0.000275l0,-14.877045c0,-4.893402 9.495483,-4.95874 9.491028,0.065613l0,0z"/>
   <path d="m290.95932,449.201599l5.468262,12.458862c1.829376,4.167999 -4.730988,6.987335 -6.538971,2.875488l-5.501801,-12.509949c-1.809509,-4.114838 4.71759,-7.050598 6.57251,-2.824402l0,0z"/>
   <path d="m296.380676,461.60434l5.468231,12.458862c1.829681,4.167999 -4.730682,6.987366 -6.538971,2.875458l-5.501495,-12.509918c-1.809784,-4.114838 4.717316,-7.050598 6.572235,-2.824402l0,0z"/>
   <path d="m287.019348,493.650299l-0.013031,14.811829c-0.004364,4.955353 -9.477997,4.889618 -9.477997,-0.000214l0,-14.877167c0,-4.893463 9.495453,-4.958771 9.491028,0.065552z"/>
   <path d="m290.640198,448.787262c1.094421,2.488647 -0.106323,5.424316 -2.681976,6.557037c-2.575653,1.13269 -5.550842,0.033508 -6.645294,-2.455139c-1.094452,-2.488647 0.106323,-5.424316 2.681976,-6.557037c2.575653,-1.13269 5.550842,-0.033508 6.645294,2.455139z"/>
  </g>
  <g>
   <path d="m216.605957,441.423096c0,3.543701 -2.872711,6.416412 -6.416397,6.416412c-3.543686,0 -6.416397,-2.872711 -6.416397,-6.416412c0,-3.543671 2.872711,-6.416382 6.416397,-6.416382c3.543686,0 6.416397,2.872711 6.416397,6.416382z"/>
   <g>
    <path d="m199.975769,482.074371c-0.013535,3.394958 9.043839,0.546783 10.457275,-0.117859c1.471436,0.538208 10.288376,4.449799 10.290482,1.03595l-0.039368,-32.167755l-10.541733,-0.987793l-10.040436,0.933167l-0.126221,31.304291z"/>
   </g>
   <path d="m209.569962,482.420593l-0.013062,14.811737c-0.004166,4.955444 -9.477997,4.889557 -9.477997,-0.000305l0,-14.877045c0,-4.893677 9.495514,-4.95871 9.491058,0.065613l0,0z"/>
   <path d="m202.27037,456.725281l-4.83168,12.719391c-1.61647,4.25531 -8.271683,1.668152 -6.679626,-2.532074l4.843765,-12.778961c1.593246,-4.203369 8.306488,-1.7229 6.667542,2.591644z"/>
   <path d="m197.44455,469.371735l-4.831635,12.719269c-1.616455,4.25531 -8.271652,1.668152 -6.679611,-2.531891l4.843796,-12.778961c1.593231,-4.203339 8.306503,-1.723083 6.66745,2.591583l0,0z"/>
   <path d="m205.14888,457.642914c-0.963577,2.542175 -3.877609,3.794556 -6.508667,2.797272c-2.631058,-0.997253 -3.982803,-3.866547 -3.019226,-6.408722c0.963593,-2.542175 3.877625,-3.794556 6.508682,-2.797272c2.631058,0.997284 3.982803,3.866577 3.019211,6.408722z"/>
   <path d="m209.530014,498.520233l-0.013031,14.811859c-0.004364,4.955322 -9.477997,4.889587 -9.477997,-0.000244l0,-14.877136c0,-4.893494 9.495453,-4.958771 9.491028,0.065521z"/>
   <path d="m220.630875,482.550659l-0.013062,14.811737c-0.004456,4.955444 -9.477982,4.889526 -9.477982,-0.000305l0,-14.877045c0,-4.893402 9.495499,-4.95874 9.491043,0.065613l0,0z"/>
   <path d="m224.530746,454.20163l5.468246,12.458862c1.829391,4.167999 -4.730972,6.987335 -6.538971,2.875458l-5.501801,-12.509949c-1.809494,-4.114838 4.717606,-7.050568 6.572525,-2.824371l0,0z"/>
   <path d="m229.952087,466.60437l5.468246,12.458862c1.829681,4.167999 -4.730667,6.987335 -6.538971,2.875458l-5.501511,-12.509949c-1.809784,-4.114838 4.717316,-7.050568 6.572235,-2.824371l0,0z"/>
   <path d="m220.590775,498.650299l-0.013046,14.811859c-0.004364,4.955322 -9.477982,4.889587 -9.477982,-0.000244l0,-14.877136c0,-4.893494 9.495453,-4.958771 9.491028,0.065521z"/>
   <path d="m224.211609,453.787262c1.094452,2.488647 -0.106308,5.424316 -2.681961,6.557037c-2.575653,1.13269 -5.550858,0.033508 -6.645294,-2.455139c-1.094452,-2.488617 0.106308,-5.424316 2.681961,-6.557007c2.575653,-1.132721 5.550858,-0.033539 6.645294,2.455109z"/>
  </g>
  <g>
   <path d="m140.177399,434.994537c0,3.543671 -2.872726,6.416412 -6.416412,6.416412c-3.543671,0 -6.416389,-2.872742 -6.416389,-6.416412c0,-3.543671 2.872719,-6.416412 6.416389,-6.416412c3.543686,0 6.416412,2.872742 6.416412,6.416412z"/>
   <g>
    <path d="m123.547195,475.645813c-0.013519,3.394958 9.043839,0.546783 10.457275,-0.117859c1.471451,0.538208 10.288391,4.449799 10.290497,1.03595l-0.039383,-32.167755l-10.541733,-0.987793l-10.040428,0.933136l-0.126228,31.304321z"/>
   </g>
   <path d="m133.141388,475.992035l-0.013062,14.811737c-0.00415,4.955444 -9.477982,4.889526 -9.477982,-0.000305l0,-14.877045c0,-4.893707 9.495499,-4.95874 9.491043,0.065613l0,0z"/>
   <path d="m125.841805,450.296722l-4.831688,12.719391c-1.616463,4.25531 -8.271667,1.668152 -6.679619,-2.532074l4.843765,-12.778992c1.593246,-4.203339 8.306496,-1.72287 6.667542,2.591675z"/>
   <path d="m121.015984,462.943176l-4.831635,12.719269c-1.616455,4.25531 -8.271652,1.668152 -6.679604,-2.531921l4.843781,-12.778961c1.593231,-4.203308 8.306511,-1.723083 6.667458,2.591614l0,0z"/>
   <path d="m128.720322,451.214355c-0.963593,2.542175 -3.877625,3.794556 -6.508682,2.797272c-2.63105,-0.997284 -3.982803,-3.866547 -3.019211,-6.408722c0.963585,-2.542175 3.877617,-3.794556 6.508667,-2.797272c2.631058,0.997284 3.982803,3.866547 3.019226,6.408722z"/>
   <path d="m133.10144,492.091675l-0.013031,14.811829c-0.004364,4.955353 -9.477982,4.889618 -9.477982,-0.000214l0,-14.877167c0,-4.893494 9.495453,-4.958771 9.491013,0.065552z"/>
   <path d="m144.202316,476.122101l-0.013062,14.811707c-0.004456,4.955475 -9.477997,4.889557 -9.477997,-0.000275l0,-14.877075c0,-4.893372 9.495499,-4.95871 9.491058,0.065643l0,0z"/>
   <path d="m148.102188,447.773041l5.468246,12.458862c1.829376,4.167999 -4.730972,6.987335 -6.538986,2.875458l-5.501801,-12.509918c-1.809494,-4.114838 4.717621,-7.050598 6.57254,-2.824402l0,0z"/>
   <path d="m153.523514,460.175781l5.468262,12.458862c1.829666,4.167999 -4.730682,6.987366 -6.538986,2.875458l-5.501511,-12.509918c-1.809784,-4.114838 4.717316,-7.050598 6.572235,-2.824402l0,0z"/>
   <path d="m144.162201,492.221741l-0.013031,14.811829c-0.004364,4.955353 -9.477997,4.889618 -9.477997,-0.000214l0,-14.877167c0,-4.893463 9.495453,-4.958771 9.491028,0.065552z"/>
   <path d="m147.783051,447.358704c1.094437,2.488617 -0.106323,5.424316 -2.681976,6.557007c-2.575653,1.132721 -5.550842,0.033539 -6.645294,-2.455109c-1.094437,-2.488647 0.106323,-5.424316 2.681976,-6.557037c2.575653,-1.13269 5.550842,-0.033508 6.645294,2.455139z"/>
  </g>
  <g>
   <path d="m628.360168,158.261383c0,3.543671 -2.872742,6.416397 -6.416443,6.416397c-3.54364,0 -6.416382,-2.872726 -6.416382,-6.416397c0,-3.543686 2.872742,-6.416412 6.416382,-6.416412c3.543701,0 6.416443,2.872726 6.416443,6.416412z"/>
   <g>
    <path d="m611.729919,198.912643c-0.013489,3.394958 9.043884,0.546783 10.457275,-0.117859c1.471497,0.538208 10.288391,4.449814 10.290527,1.03595l-0.039368,-32.16774l-10.541748,-0.987793l-10.040466,0.933136l-0.126221,31.304306z"/>
   </g>
   <path d="m621.324158,199.258881l-0.013062,14.811722c-0.00415,4.95546 -9.478027,4.889542 -9.478027,-0.000305l0,-14.877045c0,-4.893692 9.495544,-4.958725 9.491089,0.065628l0,0z"/>
   <path d="m614.024536,173.563553l-4.831665,12.719391c-1.616455,4.25531 -8.271667,1.668152 -6.679626,-2.532059l4.84375,-12.778992c1.593262,-4.203354 8.306519,-1.722885 6.667542,2.59166z"/>
   <path d="m609.19873,186.210022l-4.831604,12.719254c-1.616455,4.25531 -8.271667,1.668152 -6.679626,-2.531906l4.84375,-12.778946c1.593262,-4.203339 8.306519,-1.723083 6.66748,2.591599l0,0z"/>
   <path d="m616.903076,174.481201c-0.963623,2.54216 -3.877625,3.79454 -6.508667,2.797272c-2.631104,-0.997284 -3.982849,-3.866562 -3.019226,-6.408737c0.963562,-2.542175 3.877625,-3.794556 6.508667,-2.797272c2.631042,0.997284 3.982788,3.866562 3.019226,6.408737z"/>
   <path d="m621.28418,215.358521l-0.013,14.811813c-0.004395,4.955353 -9.478027,4.889633 -9.478027,-0.000198l0,-14.877167c0,-4.893494 9.495483,-4.958771 9.491028,0.065552z"/>
   <path d="m632.385071,199.388931l-0.013062,14.811722c-0.004456,4.95546 -9.478027,4.889542 -9.478027,-0.00029l0,-14.877045c0,-4.893402 9.495544,-4.958725 9.491089,0.065613l0,0z"/>
   <path d="m636.284912,171.039886l5.468262,12.458862c1.829407,4.167999 -4.730957,6.987335 -6.539001,2.875473l-5.50177,-12.509933c-1.809509,-4.114853 4.71759,-7.050598 6.57251,-2.824402l0,0z"/>
   <path d="m641.706238,183.442627l5.468262,12.458862c1.829712,4.167999 -4.730652,6.98735 -6.53894,2.875458l-5.501526,-12.509918c-1.809814,-4.114853 4.717285,-7.050598 6.572205,-2.824402l0,0z"/>
   <path d="m632.344971,215.488586l-0.013062,14.811829c-0.004333,4.955338 -9.477966,4.889618 -9.477966,-0.000214l0,-14.877167c0,-4.893478 9.495422,-4.958771 9.491028,0.065552z"/>
   <path d="m635.96582,170.625534c1.094421,2.488647 -0.106323,5.424316 -2.682007,6.557037c-2.575623,1.132706 -5.550842,0.033508 -6.645264,-2.455139c-1.094482,-2.488632 0.106323,-5.424316 2.681946,-6.557022c2.575684,-1.132706 5.550842,-0.033508 6.645325,2.455124z"/>
  </g>
  <g>
   <path d="m699.788696,158.975662c0,3.543686 -2.872681,6.416397 -6.416382,6.416397c-3.543701,0 -6.416382,-2.872711 -6.416382,-6.416397c0,-3.543671 2.872681,-6.416397 6.416382,-6.416397c3.543701,0 6.416382,2.872726 6.416382,6.416397z"/>
   <g>
    <path d="m683.158508,199.626938c-0.013489,3.394958 9.043884,0.546783 10.457275,-0.117859c1.471436,0.538208 10.288391,4.449799 10.290527,1.03595l-0.039368,-32.167755l-10.541748,-0.987793l-10.040466,0.933151l-0.126221,31.304306z"/>
   </g>
   <path d="m692.752747,199.97316l-0.013062,14.811737c-0.004211,4.955444 -9.478027,4.889542 -9.478027,-0.000305l0,-14.877045c0,-4.893692 9.495544,-4.958725 9.491089,0.065613l0,0z"/>
   <path d="m685.453125,174.277832l-4.831665,12.719406c-1.616455,4.255295 -8.271667,1.668137 -6.679626,-2.532074l4.84375,-12.778976c1.593262,-4.203354 8.306519,-1.722885 6.667542,2.591644z"/>
   <path d="m680.627319,186.924301l-4.831665,12.719269c-1.616455,4.255295 -8.271606,1.668152 -6.679565,-2.531906l4.84375,-12.778961c1.593262,-4.203323 8.306519,-1.723083 6.66748,2.591599l0,0z"/>
   <path d="m688.331665,175.19548c-0.963623,2.542175 -3.877625,3.794556 -6.508667,2.797287c-2.631104,-0.997284 -3.982849,-3.866577 -3.019226,-6.408752c0.963562,-2.54216 3.877625,-3.79454 6.508667,-2.797256c2.631042,0.997269 3.982788,3.866562 3.019226,6.408722z"/>
   <path d="m692.712769,216.0728l-0.013,14.811829c-0.004395,4.955353 -9.478027,4.889618 -9.478027,-0.000198l0,-14.877167c0,-4.893494 9.495483,-4.958771 9.491028,0.065536z"/>
   <path d="m703.81366,200.10321l-0.013062,14.811737c-0.004456,4.95546 -9.478027,4.889542 -9.478027,-0.00029l0,-14.87706c0,-4.893402 9.495544,-4.958725 9.491089,0.065613l0,0z"/>
   <path d="m707.713501,171.754181l5.468262,12.458862c1.829407,4.167999 -4.730957,6.987335 -6.539001,2.875458l-5.50177,-12.509933c-1.809509,-4.114838 4.71759,-7.050583 6.57251,-2.824387l0,0z"/>
   <path d="m713.134827,184.156921l5.468262,12.458862c1.829712,4.167999 -4.730652,6.98735 -6.53894,2.875458l-5.501526,-12.509918c-1.809814,-4.114853 4.717285,-7.050598 6.572205,-2.824402l0,0z"/>
   <path d="m703.77356,216.202881l-0.013062,14.811829c-0.004395,4.955338 -9.477966,4.889618 -9.477966,-0.000214l0,-14.877167c0,-4.893494 9.495422,-4.958771 9.491028,0.065552z"/>
   <path d="m707.394348,171.339828c1.094482,2.488632 -0.106323,5.424316 -2.681946,6.557022c-2.575623,1.132721 -5.550842,0.033524 -6.645264,-2.455124c-1.094482,-2.488632 0.106262,-5.424316 2.681946,-6.557022c2.575623,-1.132706 5.550842,-0.033508 6.645264,2.455124z"/>
  </g>
  <g>
   <path d="m666.217285,239.689941c0,3.543686 -2.872742,6.416397 -6.416382,6.416397c-3.543701,0 -6.416382,-2.872711 -6.416382,-6.416397c0,-3.543671 2.872681,-6.416397 6.416382,-6.416397c3.54364,0 6.416382,2.872726 6.416382,6.416397z"/>
   <g>
    <path d="m649.587097,280.341217c-0.01355,3.394958 9.043823,0.546783 10.457275,-0.117859c1.471436,0.538208 10.288391,4.449799 10.290466,1.03595l-0.039368,-32.167755l-10.541687,-0.987793l-10.040466,0.933151l-0.126221,31.304306z"/>
   </g>
   <path d="m659.181274,280.687439l-0.013062,14.811737c-0.00415,4.955444 -9.477966,4.889526 -9.477966,-0.000305l0,-14.877045c0,-4.893707 9.495483,-4.95871 9.491028,0.065613l0,0z"/>
   <path d="m651.881714,254.992111l-4.831726,12.719406c-1.616455,4.25531 -8.271667,1.668152 -6.679565,-2.532074l4.84375,-12.778976c1.593262,-4.203354 8.306458,-1.722885 6.667542,2.591644z"/>
   <path d="m647.055908,267.63858l-4.831665,12.719269c-1.616455,4.25531 -8.271667,1.668152 -6.679626,-2.531921l4.843811,-12.778931c1.593201,-4.203339 8.306519,-1.723083 6.66748,2.591583l0,0z"/>
   <path d="m654.760193,255.909775c-0.963562,2.54216 -3.877625,3.79454 -6.508667,2.797256c-2.631042,-0.997284 -3.982788,-3.866562 -3.019226,-6.408722c0.963623,-2.542175 3.877625,-3.794556 6.508667,-2.797272c2.631104,0.997269 3.982849,3.866562 3.019226,6.408737z"/>
   <path d="m659.141357,296.787079l-0.013062,14.811829c-0.004333,4.955353 -9.477966,4.889618 -9.477966,-0.000214l0,-14.877167c0,-4.893463 9.495422,-4.958771 9.491028,0.065552z"/>
   <path d="m670.242188,280.817505l-0.013062,14.811707c-0.004456,4.955475 -9.477966,4.889557 -9.477966,-0.000275l0,-14.877045c0,-4.893402 9.495483,-4.95874 9.491028,0.065613l0,0z"/>
   <path d="m674.14209,252.46846l5.468262,12.458878c1.829346,4.167969 -4.731018,6.987335 -6.539001,2.875458l-5.501831,-12.509949c-1.809448,-4.114838 4.717651,-7.050583 6.572571,-2.824387l0,0z"/>
   <path d="m679.563416,264.871216l5.468262,12.458832c1.829651,4.16803 -4.730713,6.987366 -6.539001,2.875488l-5.501465,-12.509949c-1.809814,-4.114838 4.717285,-7.050568 6.572205,-2.824371l0,0z"/>
   <path d="m670.202087,296.917145l-0.013,14.811859c-0.004395,4.955322 -9.478027,4.889587 -9.478027,-0.000244l0,-14.877136c0,-4.893494 9.495483,-4.958771 9.491028,0.065521z"/>
   <path d="m673.822937,252.054108c1.094421,2.488632 -0.106323,5.424316 -2.681946,6.557037c-2.575684,1.13269 -5.550842,0.033508 -6.645325,-2.455139c-1.094421,-2.488632 0.106323,-5.424316 2.682007,-6.557022c2.575623,-1.132706 5.550842,-0.033508 6.645264,2.455124z"/>
  </g>
  <title>Layer 1</title>
 </g>
</svg>