<?xml version="1.0"?><svg width="640" height="480" xmlns="http://www.w3.org/2000/svg">
 <title>Many Hearts</title>
 <metadata id="metadata2445">image/svg+xml2 hearts2008-03-16Christoph Brill</metadata>

 <g>
  <title>Layer 1</title>
  <path d="m79.686295,19.875414c-3.935776,0.027914 -7.819389,0.753735 -11.087105,2.530264c-10.352367,5.628187 -14.722549,17.81427 -5.24897,26.487019c5.604889,5.131084 14.92749,3.506069 17.782219,-3.517242c2.205124,-5.425167 -0.851517,-10.474049 -6.980774,-11.646397c-4.315407,-0.825409 -7.761299,2.633816 -6.034523,5.437378c1.38166,2.243252 11.93055,-5.444386 9.837349,4.934917c-0.692345,3.433056 -9.768074,4.000103 -13.015297,-0.466576c-3.99213,-5.491322 -2.334976,-12.55827 3.963509,-15.32515c8.009521,-3.518539 19.255989,-3.337469 25.869904,2.081636c4.030609,3.302473 3.177353,10.801508 5.713158,16.581305c2.715599,6.189606 5.757599,-1.610027 5.088287,-7.96764c-0.799789,-7.596954 -3.520775,-11.579849 -6.980774,-14.033096c-3.720688,-2.638084 -11.393242,-5.149708 -18.906982,-5.096418zm-38.599545,17.981028c-3.766201,0.018429 -7.890911,0.906635 -11.497736,3.301907c-11.080952,7.358803 -10.444632,21.966602 -3.535015,31.493721c9.945818,13.713478 20.903379,16.12336 33.493406,24.728401c3.602978,2.462563 9.052174,8.068275 12.37257,12.130913c0.791451,-7.953987 7.908356,-12.423599 5.87384,-15.630211c-2.342155,-3.691498 -4.113266,1.391174 -7.92701,6.209015c-6.347164,-6.166557 -16.661537,-11.647087 -23.33469,-16.258301c-10.704334,-7.39679 -19.974955,-19.831017 -16.496761,-31.90646c4.298725,-14.924038 21.185959,-8.052673 21.424362,-8.147091c4.472374,-1.771297 -2.087334,-5.962429 -10.372967,-5.921894zm48.615421,12.20269c-6.766739,0.0322 -12.361534,2.963123 -16.193237,9.510925c-6.275024,10.723095 -1.235367,19.661709 5.552483,29.196751c4.88163,6.857338 9.434326,9.390137 15.086311,17.227325c5.529556,7.667427 10.455154,14.686066 14.747093,23.131279c5.720619,-6.548798 6.333328,-15.087212 16.675285,-19.45253c7.64698,-3.22776 13.368507,-4.263733 20.156731,-8.147087c4.816193,-2.755203 10.85585,-10.930115 11.10498,-17.38884c0.37442,-9.707703 0.63884,-14.010208 -8.569748,-21.695679c-7.953537,-6.637985 -19.748459,-5.788879 -28.726486,-1.579166c-12.387115,5.808208 -24.301888,23.833385 -6.195213,31.260433c6.015549,2.467468 12.947067,-0.3172 17.782219,-4.629845c4.036987,-3.600754 6.358246,-9.172478 3.177933,-13.710083c-1.885696,-2.690506 -6.459099,-4.657623 -9.837341,-4.468346c-5.5224,0.309433 -8.63092,4.600067 -9.051781,10.049286c-0.311775,4.036537 4.956024,5.650597 4.445549,2.871223c-1.211304,-6.595253 2.039902,-7.909889 5.070435,-7.501076c6.740982,0.909348 4.583511,4.057564 1.588974,7.501076c-4.183388,4.810585 -10.315628,6.107948 -14.443596,1.112595c-5.193954,-6.28537 1.303268,-12.606064 6.980766,-15.953232c9.442581,-5.566856 20.30159,-5.736416 26.976837,4.145332c5.813629,8.606247 0.31694,20.677498 -8.87326,24.8899c-14.641418,6.711021 -22.298248,9.158287 -27.45887,20.42157c-3.000412,-5.736176 -6.383102,-9.768715 -10.319397,-15.002136c-4.507782,-5.99324 -12.505188,-11.496948 -17.139473,-19.614029c-5.778,-10.120338 -7.07811,-19.473175 0.946236,-25.05143c3.126633,-2.173523 9.326744,-2.612755 14.140068,-1.435612c2.995636,0.73262 9.10405,6.464561 10.462227,4.629848c2.010895,-2.716408 -7.223709,-8.508377 -10.944275,-9.421196c-2.494118,-0.611912 -4.885864,-0.907986 -7.141449,-0.897259zm8.159111,11.98735c-1.345673,-0.034718 -3.701096,1.605778 -5.998817,4.988766c-1.44323,2.124878 -5.4179,4.954308 -6.927208,9.92366c-1.743835,5.741539 2.902206,7.193253 4.445557,1.435608c1.322624,-4.934181 5.861618,-7.166214 7.552078,-9.851883c2.680954,-4.259285 2.453499,-6.456795 0.928391,-6.496151z" id="path2451" stroke-width="2" stroke="#ffffff" fill-rule="evenodd" fill="#5e198c"/>
  <path id="svg_1" d="m486.323303,18.375423c-3.877838,0.028681 -7.704315,0.774433 -10.92395,2.599745c-10.200073,5.78274 -14.505951,18.303453 -5.171753,27.21435c5.5224,5.271992 14.707855,3.602352 17.520569,-3.613819c2.172699,-5.574146 -0.838959,-10.761665 -6.878052,-11.966206c-4.251923,-0.848078 -7.647095,2.706135 -5.94574,5.586689c1.361359,2.304852 11.755005,-5.593895 9.692627,5.070423c-0.682159,3.527328 -9.624359,4.109951 -12.823822,-0.479385c-3.93338,-5.642113 -2.300629,-12.903122 3.905212,-15.745975c7.891663,-3.615158 18.972656,-3.429119 25.489288,2.138796c3.971283,3.39316 3.130615,11.09812 5.629089,17.036627c2.675659,6.35957 5.672913,-1.654243 5.013397,-8.186432c-0.787964,-7.805565 -3.468964,-11.897833 -6.878052,-14.418446c-3.665894,-2.710526 -11.225586,-5.291119 -18.628815,-5.236366zm-38.031616,18.474785c-3.710785,0.018936 -7.774811,0.931534 -11.328583,3.392582c-10.917908,7.560871 -10.290985,22.569805 -3.483002,32.358536c9.799469,14.090057 20.595825,16.566109 33.00061,25.407448c3.549988,2.530182 8.919006,8.289818 12.190552,12.46402c0.779816,-8.172409 7.792023,-12.764755 5.787415,-16.059418c-2.307678,-3.792862 -4.052765,1.429382 -7.810394,6.379517c-6.253784,-6.335892 -16.416382,-11.966911 -22.991364,-16.70475c-10.546844,-7.599907 -19.681061,-20.37558 -16.254028,-32.782608c4.235474,-15.333858 20.874237,-8.2738 21.109131,-8.370811c4.406586,-1.819942 -2.056641,-6.12616 -10.220337,-6.084515zm47.900146,12.537777c-6.667175,0.033092 -12.179657,3.044491 -15.954987,9.772099c-6.182709,11.017544 -1.217194,20.201618 5.470795,29.998486c4.809814,7.045639 9.295532,9.647995 14.864349,17.700394c5.448212,7.877975 10.301361,15.089348 14.530121,23.766464c5.636414,-6.72863 6.240112,-15.501503 16.429932,-19.986694c7.534485,-3.316399 13.171875,-4.380814 19.860168,-8.370811c4.745361,-2.830856 10.696106,-11.230247 10.94165,-17.866333c0.368835,-9.974281 0.629456,-14.394928 -8.443726,-22.291443c-7.836487,-6.820267 -19.457886,-5.947842 -28.303833,-1.622532c-12.204895,5.967701 -23.944336,24.48785 -6.104065,32.118847c5.927063,2.535217 12.756592,-0.325912 17.52063,-4.756989c3.977539,-3.699615 6.264709,-9.424347 3.131165,-14.086555c-1.857971,-2.764389 -6.364075,-4.785522 -9.692627,-4.591042c-5.441101,0.317924 -8.503967,4.726379 -8.918579,10.325233c-0.30719,4.147377 4.883057,5.805771 4.380127,2.950066c-1.193481,-6.776352 2.009888,-8.12709 4.99585,-7.707054c6.641785,0.934326 4.516052,4.168983 1.565552,7.707054c-4.121826,4.942688 -10.163879,6.275681 -14.231018,1.14315c-5.117554,-6.45797 1.284058,-12.952225 6.878052,-16.391304c9.30365,-5.719727 20.002869,-5.893944 26.579895,4.259155c5.728088,8.842575 0.312256,21.2453 -8.742737,25.57338c-14.425964,6.895309 -21.970154,9.409775 -27.05481,20.982346c-2.956299,-5.893692 -6.289215,-10.036964 -10.167603,-15.414093c-4.441437,-6.157822 -12.321198,-11.812653 -16.887299,-20.152634c-5.693024,-10.398239 -6.973969,-20.007908 0.932281,-25.739338c3.080658,-2.233212 9.189575,-2.684505 13.932037,-1.475033c2.951569,0.752739 8.970123,6.642075 10.308319,4.756985c1.981323,-2.791004 -7.117432,-8.74202 -10.783264,-9.679905c-2.457428,-0.628716 -4.813965,-0.932915 -7.036377,-0.921898zm8.039093,12.316525c-1.325867,-0.035671 -3.646667,1.649872 -5.910553,5.125751c-1.422028,2.183235 -5.338196,5.090355 -6.825317,10.196167c-1.71817,5.8992 2.859497,7.390785 4.380127,1.475029c1.303192,-5.069664 5.775421,-7.362991 7.44101,-10.122414c2.641479,-4.376244 2.417358,-6.634098 0.914734,-6.674534z" stroke-width="2" stroke="#ffffff" fill-rule="evenodd" fill="#5e198c"/>
  <path id="svg_2" d="m288.891815,16.375423c-3.848877,0.028681 -7.64679,0.774435 -10.842407,2.599747c-10.123901,5.782738 -14.397644,18.303448 -5.133118,27.214348c5.481171,5.271992 14.598053,3.602352 17.389771,-3.613823c2.156464,-5.574142 -0.832703,-10.761663 -6.826721,-11.966204c-4.220154,-0.848078 -7.589996,2.706137 -5.901337,5.586687c1.351166,2.304852 11.667236,-5.593891 9.620239,5.070427c-0.677063,3.527328 -9.55249,4.109947 -12.728058,-0.479385c-3.904022,-5.642113 -2.283447,-12.903118 3.876068,-15.745975c7.832733,-3.615158 18.830994,-3.429119 25.29895,2.138796c3.941681,3.393158 3.107239,11.098116 5.587067,17.036627c2.65567,6.35957 5.630554,-1.65424 4.975983,-8.186432c-0.782135,-7.805565 -3.443054,-11.897833 -6.826691,-14.418446c-3.63858,-2.710526 -11.141785,-5.291119 -18.489746,-5.236366zm-37.747665,18.474785c-3.68309,0.018936 -7.716766,0.931534 -11.244003,3.392578c-10.836411,7.560879 -10.214111,22.569809 -3.457001,32.35854c9.726334,14.09005 20.442078,16.566101 32.754242,25.40744c3.523468,2.53019 8.852417,8.289825 12.099518,12.464027c0.773987,-8.172409 7.733856,-12.764755 5.744232,-16.059418c-2.290466,-3.792862 -4.022522,1.429382 -7.752075,6.379517c-6.207092,-6.335892 -16.293854,-11.966911 -22.819733,-16.70475c-10.468094,-7.599907 -19.534119,-20.37558 -16.13269,-32.782608c4.203857,-15.333858 20.718414,-8.273804 20.951538,-8.370811c4.373688,-1.819942 -2.04126,-6.12616 -10.144028,-6.084515zm47.542526,12.537777c-6.617401,0.033089 -12.088745,3.044491 -15.835876,9.772099c-6.136536,11.017544 -1.208099,20.201618 5.429962,29.998486c4.773895,7.045639 9.226105,9.647995 14.753357,17.700394c5.407532,7.877975 10.224426,15.089348 14.421661,23.766464c5.59436,-6.72863 6.193512,-15.501503 16.307281,-19.986694c7.47818,-3.316399 13.073456,-4.380814 19.711884,-8.370811c4.709869,-2.830856 10.616241,-11.230255 10.859894,-17.866333c0.36615,-9.974281 0.624725,-14.394928 -8.380646,-22.291447c-7.778015,-6.820263 -19.312622,-5.947838 -28.092499,-1.622528c-12.113739,5.967701 -23.765564,24.48785 -6.058472,32.118847c5.882751,2.535217 12.661316,-0.325912 17.38974,-4.756981c3.947906,-3.699631 6.217957,-9.424355 3.107819,-14.086563c-1.844055,-2.764389 -6.316559,-4.785522 -9.620239,-4.591042c-5.400513,0.317924 -8.44046,4.726379 -8.85202,10.325233c-0.304901,4.147385 4.846649,5.805763 4.347443,2.950066c-1.18457,-6.776352 1.994873,-8.12709 4.958557,-7.707054c6.592194,0.934319 4.48233,4.168983 1.553864,7.707054c-4.091034,4.942688 -10.087952,6.275673 -14.124817,1.14315c-5.079315,-6.45797 1.274506,-12.952225 6.826721,-16.391304c9.234192,-5.719727 19.853546,-5.893944 26.38147,4.259155c5.685303,8.842575 0.309937,21.2453 -8.677429,25.57338c-14.318298,6.895309 -21.806152,9.409775 -26.852875,20.982346c-2.934235,-5.893692 -6.242218,-10.036964 -10.091675,-15.414093c-4.408295,-6.157814 -12.229187,-11.812653 -16.7612,-20.152634c-5.650513,-10.398239 -6.921906,-20.007908 0.925323,-25.739338c3.057648,-2.233212 9.120941,-2.684505 13.828003,-1.475033c2.929535,0.752739 8.903168,6.642075 10.231354,4.756985c1.966522,-2.791004 -7.064301,-8.74202 -10.702728,-9.679905c-2.439087,-0.628716 -4.778046,-0.932915 -6.983856,-0.921898zm7.979034,12.316525c-1.315948,-0.035671 -3.619415,1.649872 -5.866425,5.125751c-1.411377,2.183235 -5.298309,5.090355 -6.774323,10.196167c-1.705353,5.8992 2.838135,7.390778 4.347443,1.475029c1.293457,-5.069664 5.732269,-7.362991 7.385406,-10.122414c2.621765,-4.376247 2.399353,-6.634098 0.907898,-6.674534z" stroke-width="2" stroke="#ffffff" fill-rule="evenodd" fill="#5e198c"/>
  <path id="svg_3" d="m80.165894,152.375412c-3.733109,0.027649 -7.416733,0.746826 -10.516182,2.507111c-9.819279,5.57666 -13.964417,17.651199 -4.978676,26.244568c5.316269,5.084122 14.158806,3.473984 16.866531,-3.485046c2.091576,-5.375504 -0.807663,-10.378189 -6.6213,-11.539795c-4.093185,-0.817856 -7.361641,2.609711 -5.723785,5.387604c1.310524,2.222733 11.316193,-5.394547 9.330788,4.88974c-0.656693,3.401642 -9.265076,3.963501 -12.345085,-0.462296c-3.786556,-5.441071 -2.214741,-12.443329 3.759415,-15.184875c7.597076,-3.486343 18.264412,-3.306915 24.537743,2.062576c3.823059,3.272247 3.013741,10.702652 5.418968,16.429535c2.57576,6.13295 5.461113,-1.595291 4.826271,-7.894714c-0.758606,-7.527405 -3.339478,-11.473846 -6.6213,-13.904633c-3.529106,-2.613937 -10.806564,-5.102585 -17.933388,-5.049774zm-36.611889,17.816437c-3.572262,0.018265 -7.48457,0.898346 -10.905666,3.271683c-10.510347,7.291443 -9.906794,21.765533 -3.352983,31.205444c9.433664,13.587967 19.826979,15.975784 31.76869,24.50206c3.417446,2.440033 8.58604,7.994415 11.735447,12.019897c0.750702,-7.88121 7.501129,-12.309891 5.571373,-15.487167c-2.22155,-3.6577 -3.901459,1.378448 -7.518814,6.152191c-6.020317,-6.110107 -15.803558,-11.540482 -22.133087,-16.109482c-10.153122,-7.329086 -18.946354,-19.64949 -15.647266,-31.61441c4.077362,-14.78743 20.094997,-7.978973 20.321129,-8.07251c4.242069,-1.755096 -1.979851,-5.907867 -9.838821,-5.867706zm46.112011,12.091003c-6.418297,0.031906 -11.724991,2.935989 -15.359383,9.423859c-5.951897,10.624939 -1.171753,19.48175 5.266563,28.929504c4.630249,6.794571 8.948517,9.304199 14.309456,17.069656c5.244812,7.597229 9.916771,14.551636 13.987694,22.919556c5.426048,-6.488876 6.007202,-14.949127 15.816605,-19.27449c7.253204,-3.198227 12.680115,-4.224701 19.11879,-8.07251c4.568176,-2.729996 10.296814,-10.830063 10.533127,-17.229675c0.355133,-9.618851 0.605942,-13.881973 -8.128464,-21.497086c-7.543961,-6.57724 -18.731522,-5.735901 -27.247231,-1.564713c-11.749252,5.755035 -23.050476,23.615219 -5.876198,30.974289c5.705788,2.44487 12.280373,-0.314316 16.866531,-4.587479c3.829102,-3.56778 6.030838,-9.088501 3.014297,-13.584595c-1.788605,-2.665878 -6.126495,-4.614975 -9.33078,-4.427429c-5.238022,0.306595 -8.186478,4.557968 -8.585663,9.957291c-0.295723,3.999588 4.700813,5.598892 4.216629,2.84494c-1.148926,-6.534866 1.934853,-7.837479 4.809334,-7.432404c6.393852,0.901016 4.347488,4.020416 1.507149,7.432404c-3.967964,4.766556 -9.784431,6.052063 -13.699829,1.102417c-4.926491,-6.227844 1.23616,-12.490662 6.6213,-15.807205c8.956337,-5.5159 19.256172,-5.683914 25.587685,4.107376c5.514252,8.527481 0.300613,20.488235 -8.416336,24.662079c-13.887474,6.649612 -21.150024,9.074463 -26.044899,20.234634c-2.845909,-5.683655 -6.054405,-9.679276 -9.788002,-14.864792c-4.275665,-5.938385 -11.861252,-11.391708 -16.256897,-19.434509c-5.480469,-10.027679 -6.713623,-19.294922 0.897514,-24.822113c2.96563,-2.153641 8.846466,-2.588852 13.411934,-1.42247c2.841377,0.725906 8.635239,6.40538 9.923477,4.587463c1.907341,-2.691528 -6.851723,-8.430496 -10.380699,-9.334961c-2.365685,-0.606308 -4.634277,-0.899673 -6.773705,-0.889038zm7.73896,11.877625c-1.276382,-0.034409 -3.510513,1.59108 -5.689911,4.943085c-1.368919,2.105438 -5.138916,4.908981 -6.570503,9.83284c-1.65403,5.68898 2.752762,7.127411 4.216637,1.422455c1.254517,-4.888992 5.559784,-7.100616 7.163193,-9.761688c2.5429,-4.220306 2.327156,-6.397705 0.880585,-6.436691z" stroke-width="2" stroke="#ffffff" fill-rule="evenodd" fill="#5e198c"/>
  <path id="svg_4" d="m92.419556,313.375397c-3.414627,0.027161 -6.783997,0.733032 -9.619019,2.460785c-8.981567,5.473633 -12.773071,17.325104 -4.553932,25.759705c4.862724,4.990173 12.950882,3.40979 15.427605,-3.420654c1.913132,-5.276215 -0.738762,-10.186462 -6.056419,-11.326599c-3.743988,-0.802765 -6.733597,2.561462 -5.235474,5.288055c1.198715,2.181671 10.350784,-5.294861 8.534752,4.799408c-0.600662,3.338806 -8.474648,3.890259 -11.291893,-0.453766c-3.463516,-5.340515 -2.025795,-12.213409 3.43869,-14.904327c6.948952,-3.421906 16.70623,-3.245819 22.444366,2.024475c3.496902,3.211823 2.75663,10.504913 4.956657,16.126007c2.356018,6.019623 4.995216,-1.565826 4.414528,-7.748871c-0.693893,-7.388336 -3.054581,-11.261871 -6.056419,-13.647736c-3.22802,-2.565643 -9.884621,-5.008301 -16.403442,-4.956482zm-33.48843,17.487274c-3.267506,0.017944 -6.846046,0.881744 -9.975277,3.211243c-9.613682,7.156738 -9.061619,21.363403 -3.066933,30.628906c8.628857,13.336914 18.135483,15.680603 29.058426,24.049347c3.125885,2.394958 7.853539,7.846741 10.734261,11.797821c0.686661,-7.735596 6.861183,-12.082458 5.096062,-15.201019c-2.032021,-3.590149 -3.568611,1.352966 -6.877365,6.038513c-5.506706,-5.997223 -14.455315,-11.327271 -20.24485,-15.811859c-9.286934,-7.193665 -17.329994,-19.286438 -14.312359,-31.030304c3.729511,-14.514221 18.380642,-7.831543 18.587482,-7.92337c3.880157,-1.722656 -1.810944,-5.798676 -8.999447,-5.759277zm42.178074,11.867615c-5.870735,0.031311 -10.724701,2.881744 -14.049034,9.249756c-5.444122,10.42865 -1.071785,19.121796 4.817253,28.394989c4.235237,6.669037 8.185097,9.132324 13.088684,16.754303c4.797363,7.456848 9.070747,14.282776 12.794373,22.496063c4.963127,-6.368958 5.494705,-14.672913 14.467247,-18.918365c6.634399,-3.13913 11.598328,-4.146637 17.487701,-7.92334c4.178467,-2.679565 9.418381,-10.629974 9.634521,-16.911377c0.324844,-9.441132 0.55426,-13.625488 -7.434998,-21.099884c-6.900375,-6.455719 -17.133484,-5.629944 -24.922691,-1.535828c-10.746895,5.648712 -21.083984,23.178925 -5.374886,30.402039c5.219009,2.399689 11.232697,-0.308502 15.427612,-4.502716c3.502426,-3.501862 5.516327,-8.920624 2.757126,-13.333618c-1.636002,-2.616638 -5.603836,-4.529694 -8.534744,-4.345642c-4.791153,0.300934 -7.488068,4.473755 -7.853203,9.773315c-0.270485,3.92572 4.299782,5.495453 3.856903,2.792419c-1.050911,-6.414185 1.769783,-7.692719 4.39904,-7.295135c5.848373,0.88443 3.976593,3.946167 1.378571,7.295135c-3.629456,4.678497 -8.949699,5.940216 -12.531067,1.082031c-4.506195,-6.112793 1.130699,-12.259888 6.056419,-15.515137c8.192238,-5.414032 17.61338,-5.578918 23.404732,4.031464c5.043823,8.369934 0.274979,20.10968 -7.698318,24.206421c-12.702682,6.526764 -19.345657,8.906799 -23.822937,19.860809c-2.603119,-5.578644 -5.537888,-9.500458 -8.952965,-14.590179c-3.910896,-5.828674 -10.849335,-11.181244 -14.869972,-19.075409c-5.012917,-9.842438 -6.140869,-18.938477 0.820946,-24.363525c2.712624,-2.113861 8.091743,-2.541016 12.267723,-1.396179c2.598976,0.712494 7.898544,6.287018 9.076881,4.502716c1.744621,-2.641846 -6.267189,-8.27475 -9.495102,-9.162506c-2.163857,-0.595123 -4.238907,-0.883057 -6.195816,-0.87262zm7.078728,11.658173c-1.167488,-0.033752 -3.211021,1.561676 -5.204491,4.851776c-1.252129,2.066528 -4.7005,4.818237 -6.009956,9.651154c-1.512924,5.583862 2.517914,6.995728 3.856911,1.396179c1.147484,-4.798676 5.085457,-6.969421 6.552078,-9.581329c2.325958,-4.142334 2.128616,-6.27951 0.805458,-6.31778z" stroke-width="2" stroke="#ffffff" fill-rule="evenodd" fill="#5e198c"/>
  <path id="svg_5" d="m294.871429,164.375412c-3.64624,0.02713 -7.244141,0.733032 -10.271484,2.460785c-9.59082,5.473618 -13.639526,17.325073 -4.862854,25.759674c5.192566,4.990189 13.829376,3.40979 16.474091,-3.420654c2.042938,-5.276184 -0.788849,-10.186447 -6.467224,-11.326584c-3.997955,-0.80275 -7.190369,2.561478 -5.590607,5.288071c1.280029,2.181641 11.052887,-5.294891 9.113678,4.799393c-0.641418,3.338791 -9.0495,3.890259 -12.057831,-0.453766c-3.698456,-5.34053 -2.163239,-12.213425 3.671936,-14.904312c7.420288,-3.421936 17.839447,-3.245834 23.966827,2.02446c3.7341,3.211792 2.943604,10.504913 5.292877,16.125992c2.515839,6.019638 5.334045,-1.565811 4.713959,-7.748856c-0.740936,-7.388336 -3.26178,-11.261856 -6.467255,-13.647736c-3.44696,-2.565643 -10.555084,-5.008301 -17.516113,-4.956467zm-35.76004,17.487259c-3.489136,0.017929 -7.31041,0.881744 -10.651917,3.211243c-10.265808,7.156723 -9.676285,21.363403 -3.274963,30.628891c9.214172,13.336914 19.365662,15.680618 31.02951,24.049377c3.337952,2.394928 8.386292,7.84671 11.462402,11.797806c0.733246,-7.735596 7.32663,-12.082458 5.441772,-15.201019c-2.169861,-3.590149 -3.810699,1.352966 -7.343903,6.038513c-5.880249,-5.997208 -15.435852,-11.327271 -21.618103,-15.811859c-9.916885,-7.193665 -18.505524,-19.286438 -15.283203,-31.030289c3.982498,-14.514236 19.627441,-7.831558 19.848328,-7.92337c4.143372,-1.722672 -1.933807,-5.798706 -9.609924,-5.759293zm45.039124,11.867599c-6.268951,0.031326 -11.452179,2.88176 -15.002014,9.249756c-5.813416,10.42865 -1.14447,19.121811 5.144043,28.39502c4.522522,6.669022 8.740295,9.132294 13.976501,16.754272c5.122803,7.456863 9.686035,14.282791 13.662262,22.496078c5.299774,-6.368958 5.867401,-14.672913 15.448608,-18.918365c7.084412,-3.13913 12.385071,-4.146637 18.67392,-7.923355c4.461884,-2.67955 10.05722,-10.629974 10.288055,-16.911346c0.346863,-9.441132 0.591858,-13.625504 -7.939331,-21.099915c-7.368469,-6.455719 -18.295715,-5.629929 -26.613281,-1.535812c-11.475861,5.648712 -22.51416,23.178925 -5.739441,30.402023c5.572998,2.399704 11.994629,-0.308502 16.47406,-4.502716c3.740021,-3.501862 5.890533,-8.920593 2.944183,-13.333603c-1.746979,-2.616623 -5.983948,-4.529724 -9.113678,-4.345642c-5.11615,0.300934 -7.996033,4.473755 -8.385895,9.773331c-0.288879,3.92569 4.591431,5.495453 4.1185,2.792389c-1.122192,-6.414154 1.889832,-7.692688 4.697449,-7.295105c6.245087,0.884384 4.246338,3.946152 1.472076,7.295105c-3.875641,4.678497 -9.556793,5.940231 -13.381073,1.082047c-4.811859,-6.112778 1.207397,-12.259903 6.467255,-15.515167c8.747955,-5.413986 18.808136,-5.578888 24.99231,4.031494c5.385956,8.369919 0.29361,20.109695 -8.22052,24.206421c-13.564331,6.526749 -20.657898,8.906799 -25.438873,19.860809c-2.779724,-5.578659 -5.913544,-9.500458 -9.560272,-14.590179c-4.176208,-5.828674 -11.585266,-11.181244 -15.878662,-19.075424c-5.352966,-9.842422 -6.557404,-18.938446 0.876617,-24.363525c2.896637,-2.113831 8.640656,-2.541 13.099884,-1.396179c2.775269,0.712494 8.434357,6.287033 9.692596,4.502701c1.862976,-2.6418 -6.692322,-8.274719 -10.13916,-9.162491c-2.310669,-0.595108 -4.526459,-0.883041 -6.616119,-0.87262zm7.558899,11.658188c-1.246674,-0.033768 -3.428833,1.561676 -5.557526,4.851761c-1.337067,2.066544 -5.019318,4.818268 -6.417603,9.651169c-1.61557,5.583878 2.68869,6.995728 4.1185,1.396179c1.225342,-4.798676 5.43045,-6.969437 6.996552,-9.581345c2.483704,-4.142319 2.27298,-6.279495 0.860077,-6.317764z" stroke-width="2" stroke="#ffffff" fill-rule="evenodd" fill="#5e198c"/>
  <path id="svg_6" d="m300.02887,319.375427c-3.791016,0.027893 -7.531769,0.753723 -10.679291,2.530243c-9.971619,5.628174 -14.18103,17.81427 -5.055908,26.48703c5.398712,5.131073 14.378418,3.506073 17.128143,-3.517242c2.124023,-5.425171 -0.82019,-10.47406 -6.723999,-11.646423c-4.156677,-0.825409 -7.47583,2.63382 -5.812561,5.437408c1.330841,2.243225 11.491699,-5.444397 9.475494,4.934906c-0.66687,3.433075 -9.408752,4.000122 -12.53656,-0.466583c-3.845306,-5.491302 -2.249084,-12.558258 3.817749,-15.325134c7.714905,-3.518524 18.547699,-3.337463 24.918335,2.081635c3.882355,3.30249 3.060486,10.801514 5.503021,16.581299c2.615723,6.189606 5.545837,-1.610016 4.901123,-7.967651c-0.770355,-7.596954 -3.391266,-11.579834 -6.723999,-14.033081c-3.583832,-2.638092 -10.974152,-5.149719 -18.211548,-5.096405zm-37.17981,17.981018c-3.627655,0.018433 -7.600647,0.906616 -11.074829,3.30188c-10.67337,7.358826 -10.06044,21.966614 -3.404984,31.493744c9.580002,13.71347 20.134537,16.123352 32.261459,24.728394c3.470459,2.462585 8.719238,8.068268 11.91748,12.13092c0.76236,-7.95401 7.617493,-12.423584 5.657806,-15.630219c-2.255981,-3.691498 -3.961975,1.391174 -7.635437,6.209015c-6.113708,-6.166534 -16.048706,-11.647095 -22.47641,-16.258301c-10.310608,-7.39679 -19.240234,-19.830994 -15.889969,-31.906464c4.14061,-14.924011 20.406693,-8.052673 20.636337,-8.147064c4.307861,-1.771301 -2.010559,-5.962433 -9.991455,-5.921906zm46.827271,12.202698c-6.517853,0.032196 -11.90686,2.963135 -15.597595,9.510925c-6.04422,10.723083 -1.189941,19.661682 5.348236,29.196747c4.702087,6.85733 9.087341,9.390137 14.531403,17.227325c5.326202,7.667419 10.070618,14.686066 14.204681,23.131287c5.510223,-6.548828 6.100372,-15.087219 16.061951,-19.452545c7.365692,-3.227783 12.876801,-4.263733 19.415344,-8.147064c4.639008,-2.755219 10.456512,-10.930145 10.696503,-17.388855c0.360657,-9.707703 0.615356,-14.010223 -8.254547,-21.695679c-7.66098,-6.638 -19.022095,-5.788879 -27.669891,-1.579163c-11.931488,5.808197 -23.40799,23.833374 -5.967316,31.260437c5.794281,2.467438 12.470856,-0.31723 17.128143,-4.629852c3.888489,-3.600769 6.12439,-9.172485 3.061066,-13.710114c-1.816345,-2.690491 -6.221527,-4.657593 -9.475525,-4.468323c-5.319275,0.309418 -8.313477,4.600067 -8.718842,10.049255c-0.300323,4.03656 4.773743,5.650635 4.282043,2.871277c-1.166748,-6.595276 1.964874,-7.909912 4.883942,-7.501099c6.493011,0.909363 4.414917,4.057556 1.530487,7.501099c-4.02948,4.810577 -9.936188,6.107941 -13.912292,1.112579c-5.00293,-6.28537 1.25531,-12.606079 6.723999,-15.953217c9.095276,-5.566895 19.554871,-5.73645 25.984589,4.145294c5.599762,8.606262 0.305267,20.67749 -8.546906,24.889893c-14.102875,6.71106 -21.478088,9.158295 -26.448883,20.42157c-2.890076,-5.736145 -6.148315,-9.768677 -9.939819,-15.002106c-4.34201,-5.993256 -12.045227,-11.496948 -16.509064,-19.614014c-5.565491,-10.120361 -6.817749,-19.473206 0.911407,-25.051453c3.011658,-2.173523 8.983704,-2.612762 13.619995,-1.435608c2.885437,0.732605 8.769196,6.464569 10.077393,4.629852c1.93692,-2.7164 -6.958008,-8.508392 -10.541718,-9.421204c-2.402374,-0.611908 -4.706146,-0.90799 -6.878784,-0.897247zm7.859009,11.987335c-1.296173,-0.034729 -3.564941,1.605774 -5.778168,4.98877c-1.390137,2.124878 -5.218597,4.954285 -6.672424,9.923676c-1.679688,5.741516 2.795471,7.193237 4.282043,1.435577c1.273987,-4.934143 5.646027,-7.166199 7.274323,-9.851868c2.582336,-4.259277 2.36322,-6.456787 0.894226,-6.496155z" stroke-width="2" stroke="#ffffff" fill-rule="evenodd" fill="#5e198c"/>
  <path id="svg_7" d="m500.734436,167.375427c-3.704163,0.027893 -7.359222,0.753723 -10.434631,2.530258c-9.743134,5.628174 -13.85614,17.81427 -4.940063,26.487015c5.275024,5.131088 14.048981,3.506073 16.735718,-3.517242c2.075348,-5.425171 -0.801392,-10.47406 -6.569977,-11.646393c-4.061432,-0.825409 -7.304535,2.633804 -5.679382,5.437378c1.300354,2.243256 11.228455,-5.444397 9.258392,4.934906c-0.651581,3.43306 -9.193176,4.000107 -12.249298,-0.466568c-3.757202,-5.491333 -2.197571,-12.558273 3.730255,-15.32515c7.538147,-3.518539 18.122742,-3.337479 24.347412,2.081619c3.793396,3.30249 2.990417,10.801529 5.376953,16.581314c2.555786,6.189606 5.418762,-1.610031 4.788818,-7.967636c-0.752686,-7.596954 -3.313538,-11.579849 -6.569946,-14.033096c-3.501709,-2.638077 -10.722717,-5.149704 -17.79425,-5.096405zm-36.327972,17.981018c-3.544556,0.018433 -7.426514,0.906631 -10.821075,3.30191c-10.428833,7.358795 -9.829956,21.966599 -3.326965,31.493713c9.360474,13.713486 19.673187,16.123367 31.522278,24.728409c3.39093,2.462555 8.51947,8.068268 11.64444,12.130905c0.744873,-7.953995 7.442963,-12.423584 5.528168,-15.630219c-2.204315,-3.691498 -3.871216,1.39119 -7.46051,6.209015c-5.973633,-6.166534 -15.681,-11.647095 -21.961426,-16.258301c-10.074371,-7.396774 -18.799408,-19.831009 -15.525909,-31.906448c4.045746,-14.924042 19.939148,-8.052673 20.163513,-8.147079c4.209198,-1.771317 -1.964478,-5.962433 -9.762512,-5.921906zm45.754395,12.202682c-6.3685,0.032211 -11.634033,2.96312 -15.240265,9.510925c-5.905731,10.723099 -1.162659,19.661697 5.225739,29.196747c4.59433,6.857346 8.879089,9.390152 14.198456,17.227341c5.204163,7.667419 9.839844,14.686066 13.879211,23.131287c5.383911,-6.548798 5.960571,-15.087219 15.69397,-19.452545c7.196899,-3.227768 12.581726,-4.263733 18.970459,-8.147079c4.532715,-2.755203 10.21698,-10.930115 10.451477,-17.38884c0.352356,-9.707718 0.601257,-14.010223 -8.06543,-21.695679c-7.485474,-6.638 -18.586304,-5.788895 -27.03595,-1.579163c-11.658142,5.808197 -22.871704,23.833374 -5.830566,31.260422c5.661499,2.467468 12.18512,-0.317215 16.735657,-4.629852c3.799438,-3.600739 5.98407,-9.17247 2.990967,-13.710083c-1.774719,-2.690506 -6.078979,-4.657623 -9.258484,-4.468338c-5.197327,0.309433 -8.122925,4.600067 -8.519043,10.049271c-0.293396,4.036545 4.664368,5.65062 4.18396,2.871246c-1.140015,-6.595261 1.919861,-7.909897 4.772034,-7.501083c6.344238,0.909348 4.313782,4.057571 1.495422,7.501083c-3.937195,4.810593 -9.708557,6.107941 -13.593567,1.112595c-4.888245,-6.285385 1.226624,-12.606064 6.569946,-15.953232c8.886902,-5.566864 19.106873,-5.73642 25.389221,4.145309c5.471497,8.606262 0.298279,20.677505 -8.351074,24.889908c-13.779724,6.711029 -20.985962,9.158279 -25.842834,20.421555c-2.823853,-5.736145 -6.007446,-9.768677 -9.712097,-15.002106c-4.242493,-5.993256 -11.769257,-11.496948 -16.130829,-19.614029c-5.437988,-10.120331 -6.66156,-19.47319 0.890533,-25.051437c2.942627,-2.173523 8.777832,-2.612762 13.307922,-1.435608c2.819336,0.732605 8.568298,6.464554 9.846558,4.629852c1.892517,-2.716415 -6.798645,-8.508377 -10.300232,-9.421204c-2.347351,-0.611908 -4.598328,-0.90799 -6.721161,-0.897263zm7.678925,11.98735c-1.266479,-0.034714 -3.483276,1.605789 -5.645752,4.988754c-1.358337,2.124893 -5.09906,4.95433 -6.519531,9.923676c-1.641235,5.741531 2.731384,7.193253 4.183929,1.435608c1.244781,-4.934174 5.516632,-7.166214 7.107635,-9.851883c2.523132,-4.259277 2.309082,-6.456787 0.873718,-6.496155z" stroke-width="2" stroke="#ffffff" fill-rule="evenodd" fill="#5e198c"/>
  <path id="svg_8" d="m500.008484,315.375427c-3.588348,0.028412 -7.12912,0.767517 -10.108398,2.576569c-9.438507,5.731232 -13.422913,18.140411 -4.785614,26.971924c5.110107,5.225006 13.609741,3.570251 16.212494,-3.581635c2.010468,-5.524475 -0.776337,-10.665802 -6.364563,-11.859619c-3.934448,-0.840515 -7.076172,2.682037 -5.501831,5.536926c1.259705,2.284302 10.877411,-5.544037 8.968994,5.025269c-0.631256,3.495911 -8.905792,4.073334 -11.866394,-0.475128c-3.639709,-5.591858 -2.128845,-12.788177 3.613647,-15.605682c7.30249,-3.582947 17.556122,-3.39859 23.586182,2.11972c3.674805,3.362946 2.896912,10.999268 5.208862,16.884857c2.47583,6.302917 5.249329,-1.639496 4.639099,-8.113495c-0.729187,-7.736053 -3.210022,-11.79184 -6.364563,-14.289978c-3.392273,-2.686401 -10.387451,-5.243988 -17.237915,-5.189728zm-35.192169,18.310181c-3.433716,0.018799 -7.194305,0.923248 -10.482758,3.362366c-10.102753,7.49353 -9.522614,22.368744 -3.222961,32.070251c9.067841,13.964539 19.058136,16.418549 30.536743,25.181122c3.284943,2.507629 8.253113,8.215973 11.280365,12.352997c0.721588,-8.09964 7.210266,-12.651031 5.355347,-15.916382c-2.135406,-3.759064 -3.750183,1.416656 -7.227264,6.322693c-5.786865,-6.279419 -15.190735,-11.860321 -21.27478,-16.555939c-9.759399,-7.532196 -18.211639,-20.194031 -15.040497,-32.49057c3.91925,-15.197235 19.315735,-8.200073 19.533112,-8.296204c4.077576,-1.803741 -1.903076,-6.071594 -9.457306,-6.030334zm44.323853,12.426117c-6.169373,0.032776 -11.270264,3.017365 -14.763763,9.685028c-5.721069,10.919403 -1.126282,20.021637 5.062347,29.731232c4.450714,6.98288 8.601501,9.562042 13.754547,17.542725c5.041443,7.80777 9.532227,14.954926 13.445313,23.554718c5.215576,-6.668701 5.774231,-15.363403 15.203247,-19.808655c6.971924,-3.286865 12.188416,-4.341766 18.37738,-8.296204c4.390991,-2.805664 9.897522,-11.130219 10.124695,-17.707184c0.341309,-9.885437 0.582458,-14.266693 -7.813293,-22.092865c-7.251404,-6.759491 -18.005127,-5.894867 -26.190613,-1.608063c-11.29364,5.91452 -22.156616,24.269684 -5.648315,31.832703c5.484497,2.512634 11.804138,-0.323029 16.212463,-4.7146c3.680603,-3.666687 5.796997,-9.340424 2.8974,-13.96109c-1.719238,-2.739746 -5.888916,-4.742859 -8.968994,-4.55014c-5.034851,0.315094 -7.868958,4.684296 -8.252686,10.233246c-0.284241,4.110443 4.518494,5.754059 4.053162,2.923798c-1.104431,-6.716003 1.859802,-8.054688 4.622803,-7.638397c6.145874,0.926025 4.178894,4.131866 1.448669,7.638397c-3.814087,4.898682 -9.405029,6.219788 -13.168518,1.132965c-4.735474,-6.400421 1.188232,-12.836823 6.364502,-16.24527c8.60907,-5.668793 18.50946,-5.841431 24.595398,4.221191c5.300476,8.763824 0.289001,21.05603 -8.089966,25.345551c-13.348877,6.833893 -20.329834,9.325958 -25.034851,20.79541c-2.735596,-5.841156 -5.819641,-9.94751 -9.408447,-15.276733c-4.109863,-6.102966 -11.401276,-11.707428 -15.626495,-19.973114c-5.267944,-10.305603 -6.453278,-19.829681 0.862701,-25.51004c2.850647,-2.213318 8.503418,-2.660583 12.891846,-1.461884c2.731201,0.746033 8.300415,6.582916 9.538696,4.71463c1.833374,-2.766144 -6.58606,-8.664154 -9.978149,-9.593689c-2.273987,-0.623108 -4.45459,-0.924622 -6.511078,-0.913666zm7.438873,12.206757c-1.226929,-0.035339 -3.37439,1.635193 -5.469238,5.080109c-1.315857,2.163788 -4.939636,5.044983 -6.315704,10.105347c-1.589935,5.846619 2.645966,7.324921 4.053101,1.461884c1.205872,-5.024506 5.344147,-7.297424 6.885406,-10.032227c2.444275,-4.33728 2.236877,-6.575012 0.846436,-6.615112z" stroke-width="2" stroke="#ffffff" fill-rule="evenodd" fill="#5e198c"/>
 </g>
</svg>