<?xml version="1.0" standalone="no"?><!-- Generator: Adobe Fireworks CS6, Export SVG Extension by Aaron Beall (http://fireworks.abeall.com) . Version: 0.6.1  --><!DOCTYPE svg PUBLIC "-//W3C//DTD SVG 1.1//EN" "http://www.w3.org/Graphics/SVG/1.1/DTD/svg11.dtd"><svg id="Untitled-Page%201" viewBox="0 0 127 181" style="background-color:#ffffff00" version="1.1"	xmlns="http://www.w3.org/2000/svg" xmlns:xlink="http://www.w3.org/1999/xlink" xml:space="preserve"	x="0px" y="0px" width="127px" height="181px">	<g id="Layer%201">		<path d="M 86.7167 42.5062 C 85.7101 47.8362 86.885 84.6848 86.9524 88.429 C 87.0153 92.1756 87.7759 93.9717 83.9171 96.8227 C 79.0729 100.387 77.7739 94.9925 77.7739 94.9925 L 60.7875 34.8453 C 59.2998 38.1507 65.3805 98.7719 65.3805 98.7719 C 65.3805 98.7719 68.8325 107.7769 64.7427 111.4761 C 59.078 116.5922 55.4541 104.1384 55.4541 104.1384 C 55.4541 104.1384 36.8787 39.586 35.5939 35.6255 C 34.3024 31.6589 26.5031 38.2868 27.8678 32.4683 C 29.2344 26.6448 39.7833 25.4029 41.4084 25.7394 C 44.1077 26.2972 45.4865 28.5673 46.136 30.491 C 46.7805 32.4124 58.5695 80.137 58.5695 80.137 C 58.5695 80.137 54.3094 29.8725 53.7035 22.8739 C 53.0897 15.8729 55.2754 15.2386 61.0166 15.0186 C 66.7557 14.801 67.5654 19.1346 67.5654 19.1346 L 82.1846 75.5851 C 81.8416 72.1241 80.3042 31.981 80.3214 25.6969 C 80.33 19.419 84.6594 22.3623 89.7189 25.3008 C 94.7758 28.2319 94.8297 31.1364 94.8297 31.1364 C 97.354 50.0601 105.4008 73.5897 107.8279 79.593 C 110.2523 85.5902 113.0912 87.2332 116.3342 84.1574 C 119.5835 81.0853 116.6573 74.6105 119.7985 72.6199 C 122.1482 71.1398 123.8021 75.607 123.7678 80.5384 C 130.6667 59.2401 125.5853 34.9705 108.4927 18.07 C 84.1322 -6.0233 44.6367 -6.0233 20.2788 18.07 C 7.5731 30.6345 1.4932 47.2723 2.0437 63.7328 L 2 63.7328 L 2 117.8023 C 2 121.2256 4.8057 124 8.2681 124 L 64.4435 124 L 64.4435 123.9951 C 80.3866 123.9806 96.3241 117.3287 108.4927 105.2978 C 112.9387 100.9011 116.569 95.9963 119.3905 90.7756 C 96.2209 104.4058 86.7167 42.5062 86.7167 42.5062 Z" fill="#0093da"/>		<g>			<path d="M 2.6179 169.4343 L 13.4845 169.4343 L 13.4845 167.0424 L 9.519 167.0424 L 9.519 153.1999 C 11.682 151.2152 13.948 149.7393 16.5746 149.7393 C 19.3556 149.7393 20.4886 151.3169 20.4886 154.3195 L 20.4886 167.0424 L 16.5231 167.0424 L 16.5231 169.4343 L 27.4412 169.4343 L 27.4412 167.0424 L 23.4241 167.0424 L 23.4241 154.1669 C 23.4241 153.8106 23.4241 153.5053 23.3727 153.1999 C 25.6387 151.1643 27.9047 149.7393 30.5313 149.7393 C 33.3123 149.7393 34.4452 151.3169 34.4452 154.3195 L 34.4452 167.0424 L 30.4797 167.0424 L 30.4797 169.4343 L 41.3463 169.4343 L 41.3463 167.0424 L 37.3807 167.0424 L 37.3807 154.0142 C 37.3807 148.9251 34.4967 147.2965 31.2522 147.2965 C 27.8016 147.2965 25.1752 149.1795 23.0636 151.2152 C 22.1881 148.2635 19.8191 147.2965 17.347 147.2965 C 13.9995 147.2965 11.476 149.0268 9.416 150.9607 L 9.416 147.8563 L 2.6179 147.8563 L 2.6179 150.2991 L 6.5835 150.2991 L 6.5835 167.0424 L 2.6179 167.0424 L 2.6179 169.4343 L 2.6179 169.4343 Z" fill="#0093da"/>			<path d="M 50.6132 169.9941 C 54.0122 169.9941 56.8961 168.162 58.6472 166.6353 L 58.6472 169.4343 L 65.4967 169.4343 L 65.4967 167.0424 L 61.5313 167.0424 L 61.5313 154.8285 C 61.5313 149.5866 59.0077 147.2965 53.5486 147.2965 C 50.7161 147.2965 47.7806 147.9072 45.566 148.7724 L 45.566 151.1643 C 47.5231 150.4009 50.3041 149.7393 53.0337 149.7393 C 57.0507 149.7393 58.5442 151.1643 58.5442 155.032 L 58.5442 157.0677 L 53.6516 157.0677 C 49.2742 157.0677 43.7635 158.2382 43.7635 163.6835 C 43.7635 167.9075 46.905 169.9941 50.6132 169.9941 L 50.6132 169.9941 ZM 51.3341 167.6531 C 48.6046 167.6531 46.8021 166.1772 46.8021 163.6327 C 46.8021 159.9685 50.4071 159.2051 53.7031 159.2051 L 58.5442 159.2051 L 58.5442 164.3451 C 56.8447 165.8719 54.2697 167.6531 51.3341 167.6531 L 51.3341 167.6531 Z" fill="#0093da"/>			<path d="M 67.3912 169.4343 L 78.5154 169.4343 L 78.5154 167.0424 L 74.4469 167.0424 L 74.4469 153.5562 C 76.5583 151.6732 79.3394 149.7902 82.3779 149.7902 C 85.5194 149.7902 86.5494 151.775 86.5494 154.6758 L 86.5494 167.0424 L 82.481 167.0424 L 82.481 169.4343 L 93.605 169.4343 L 93.605 167.0424 L 89.5365 167.0424 L 89.5365 154.3195 C 89.5365 149.6884 87.0645 147.2965 83.1504 147.2965 C 79.9574 147.2965 76.9188 148.8742 74.3954 151.2152 L 74.3954 147.8563 L 67.3912 147.8563 L 67.3912 150.2991 L 71.4598 150.2991 L 71.4598 167.0424 L 67.3912 167.0424 L 67.3912 169.4343 L 67.3912 169.4343 Z" fill="#0093da"/>			<path d="M 101.0673 180.1215 C 104.3634 180.1215 106.6809 178.1876 107.8138 175.1341 L 117.2385 150.2991 L 120.483 150.2991 L 120.483 147.8563 L 110.1313 147.8563 L 110.1313 150.2482 L 114.2515 150.2482 L 107.3503 168.7727 L 101.3248 150.2482 L 105.4448 150.2482 L 105.4448 147.8563 L 94.9902 147.8563 L 94.9902 150.2991 L 98.2347 150.2991 L 104.7239 169.4343 L 107.0929 169.4343 L 105.2904 174.3199 C 104.4148 176.5591 102.8699 177.7296 100.7583 177.7296 C 99.2133 177.7296 98.0803 177.1698 96.9988 176.5082 L 96.1233 178.6456 C 97.5138 179.4599 99.1104 180.1215 101.0673 180.1215 L 101.0673 180.1215 Z" fill="#0093da"/>		</g>	</g></svg>