<?xml version="1.0" encoding="utf-8"?>
<!-- Generator: Adobe Illustrator 19.1.0, SVG Export Plug-In . SVG Version: 6.00 Build 0)  -->
<svg version="1.1" id="Icons" xmlns="http://www.w3.org/2000/svg" xmlns:xlink="http://www.w3.org/1999/xlink" x="0px" y="0px"
	 viewBox="-211 282 188 230" style="enable-background:new -211 282 188 230;" xml:space="preserve" preserveAspectRatio="xMidYMid slice" width="188px" height="230px">
<style type="text/css">
	.st0{fill:#354e53;}
	.st1{fill:none;}
	.st2{fill:#cbd62b;}
</style>
<g>
	<path class="st0" d="M-157.5,392.9c-8.9,0-17.3-2-25-5.7l-1.1-0.5v1.3v2.8v41.6l0.2,0.2c6.1,8.2,15.9,13.5,27,13.5
		c11.4,0,21.4-5.5,27.4-14l0.2-0.2V393v-6l-1.1,0.6C-138.3,392-147.6,392.9-157.5,392.9z M-165.2,421.3c0,0.7-0.4,1.3-1,1.3h-8.3
		c-0.6,0-1-0.6-1-1.3v-3.7c0-0.7,0.4-1.3,1-1.3h8.3c0.6,0,1,0.6,1,1.3V421.3z M-165.2,411.4c0,0.7-0.4,1.3-1,1.3h-8.3
		c-0.6,0-1-0.6-1-1.3v-3.7c0-0.7,0.4-1.3,1-1.3h8.3c0.6,0,1,0.6,1,1.3V411.4z M-165.2,401.5c0,0.7-0.4,1.3-1,1.3h-8.3
		c-0.6,0-1-0.6-1-1.3v-3.7c0-0.7,0.4-1.3,1-1.3h8.3c0.6,0,1,0.6,1,1.3V401.5z M-151,421.3c0,0.7-0.5,1.3-1,1.3h-8.3
		c-0.6,0-1-0.6-1-1.3v-3.7c0-0.7,0.4-1.3,1-1.3h8.3c0.6,0,1,0.6,1,1.3V421.3z M-151,411.4c0,0.7-0.5,1.3-1,1.3h-8.3
		c-0.6,0-1-0.6-1-1.3v-3.7c0-0.7,0.4-1.3,1-1.3h8.3c0.6,0,1,0.6,1,1.3V411.4z M-151,401.5c0,0.7-0.5,1.3-1,1.3h-8.3
		c-0.6,0-1-0.6-1-1.3v-3.7c0-0.7,0.4-1.3,1-1.3h8.3c0.6,0,1,0.6,1,1.3V401.5z M-136.9,421.3c0,0.7-0.4,1.3-1,1.3h-8.2
		c-0.6,0-1-0.6-1-1.3v-3.7c0-0.7,0.4-1.3,1-1.3h8.3c0.6,0,1,0.6,1,1.3v3.7H-136.9z M-165.2,431c0,0.7-0.4,1.3-1,1.3h-8.3
		c-0.6,0-1-0.6-1-1.3v-3.7c0-0.7,0.4-1.3,1-1.3h8.3c0.6,0,1,0.6,1,1.3V431z M-151,431c0,0.7-0.5,1.3-1,1.3h-8.3c-0.6,0-1-0.6-1-1.3
		v-3.7c0-0.7,0.4-1.3,1-1.3h8.3c0.6,0,1,0.6,1,1.3V431z M-136.9,431c0,0.7-0.4,1.3-1,1.3h-8.2c-0.6,0-1-0.6-1-1.3v-3.7
		c0-0.7,0.4-1.3,1-1.3h8.3c0.6,0,1,0.6,1,1.3v3.7H-136.9z M-136.9,411.4c0,0.7-0.4,1.3-1,1.3h-8.2c-0.6,0-1-0.6-1-1.3v-3.7
		c0-0.7,0.4-1.3,1-1.3h8.3c0.6,0,1,0.6,1,1.3v3.7H-136.9z M-136.9,401.5c0,0.7-0.4,1.3-1,1.3h-8.2c-0.6,0-1-0.6-1-1.3v-3.7
		c0-0.7,0.4-1.3,1-1.3h8.3c0.6,0,1,0.6,1,1.3v3.7H-136.9z"/>
	<path class="st0" d="M-138.6,330.3h-35.3c-5.4,0-9.7,4.6-9.7,10.2h-0.1v43.4l0.4,0.2c7.9,4,16.6,6.3,25.7,6.3
		c10.1,0,19.7-1.1,28.2-6l0.4-0.2v-25.7v-17.2v-0.8C-128.8,334.9-133.2,330.3-138.6,330.3z M-164.5,334.8h16.6
		c0.9,0,1.6,0.5,1.6,1.1s-0.7,1.1-1.6,1.1h-16.6c-0.9,0-1.6-0.5-1.6-1.1S-165.4,334.8-164.5,334.8z M-167.9,378.6h-5.9
		c-1.1,0-2-0.9-2-2.1s0.9-2.1,2-2.1h5.9c1.1,0,2,0.9,2,2.1S-166.8,378.6-167.9,378.6z M-155.9,378.5c-1,0-1.8-0.9-1.8-1.9
		c0-1.1,0.8-1.9,1.8-1.9s1.8,0.9,1.8,1.9S-154.9,378.5-155.9,378.5z M-139.1,378.6h-5.8c-1.1,0-2-0.9-2-2.1s0.9-2.1,2-2.1h5.8
		c1.1,0,2,0.9,2,2.1C-137,377.7-137.9,378.6-139.1,378.6z M-137,363.5h-39.1v-23.7h39.2L-137,363.5L-137,363.5z"/>
</g>
<g>
	<path class="st0" d="M-105.5,320.1c-5.4,0-10.6-1.2-15.2-3.5l-0.7-0.3v0.8v1.7v25.3l0.1,0.1c3.7,5,9.7,8.2,16.5,8.2
		c6.9,0,13-3.4,16.7-8.5l0.1-0.1v-23.6v-3.6l-0.7,0.4C-93.8,319.6-99.4,320.1-105.5,320.1z M-110.2,337.4c0,0.4-0.3,0.8-0.6,0.8h-5
		c-0.3,0-0.6-0.4-0.6-0.8v-2.2c0-0.5,0.3-0.8,0.6-0.8h5c0.3,0,0.6,0.4,0.6,0.8V337.4z M-110.2,331.4c0,0.5-0.3,0.8-0.6,0.8h-5
		c-0.3,0-0.6-0.4-0.6-0.8v-2.2c0-0.5,0.3-0.8,0.6-0.8h5c0.3,0,0.6,0.4,0.6,0.8V331.4z M-110.2,325.4c0,0.5-0.3,0.8-0.6,0.8h-5
		c-0.3,0-0.6-0.4-0.6-0.8v-2.2c0-0.5,0.3-0.8,0.6-0.8h5c0.3,0,0.6,0.4,0.6,0.8V325.4z M-101.5,337.4c0,0.4-0.3,0.8-0.6,0.8h-5
		c-0.3,0-0.6-0.4-0.6-0.8v-2.2c0-0.5,0.3-0.8,0.6-0.8h5c0.3,0,0.6,0.4,0.6,0.8V337.4z M-101.5,331.4c0,0.5-0.3,0.8-0.6,0.8h-5
		c-0.3,0-0.6-0.4-0.6-0.8v-2.2c0-0.5,0.3-0.8,0.6-0.8h5c0.3,0,0.6,0.4,0.6,0.8V331.4z M-101.5,325.4c0,0.5-0.3,0.8-0.6,0.8h-5
		c-0.3,0-0.6-0.4-0.6-0.8v-2.2c0-0.5,0.3-0.8,0.6-0.8h5c0.3,0,0.6,0.4,0.6,0.8V325.4z M-92.9,337.4c0,0.4-0.3,0.8-0.6,0.8h-5
		c-0.3,0-0.6-0.4-0.6-0.8v-2.2c0-0.5,0.3-0.8,0.6-0.8h5c0.3,0,0.6,0.4,0.6,0.8V337.4z M-110.2,343.4c0,0.4-0.3,0.8-0.6,0.8h-5
		c-0.3,0-0.6-0.4-0.6-0.8v-2.2c0-0.5,0.3-0.8,0.6-0.8h5c0.3,0,0.6,0.4,0.6,0.8V343.4z M-101.5,343.4c0,0.4-0.3,0.8-0.6,0.8h-5
		c-0.3,0-0.6-0.4-0.6-0.8v-2.2c0-0.5,0.3-0.8,0.6-0.8h5c0.3,0,0.6,0.4,0.6,0.8V343.4z M-92.9,343.4c0,0.4-0.3,0.8-0.6,0.8h-5
		c-0.3,0-0.6-0.4-0.6-0.8v-2.2c0-0.5,0.3-0.8,0.6-0.8h5c0.3,0,0.6,0.4,0.6,0.8V343.4z M-92.9,331.4c0,0.5-0.3,0.8-0.6,0.8h-5
		c-0.3,0-0.6-0.4-0.6-0.8v-2.2c0-0.5,0.3-0.8,0.6-0.8h5c0.3,0,0.6,0.4,0.6,0.8V331.4z M-92.9,325.4c0,0.5-0.3,0.8-0.6,0.8h-5
		c-0.3,0-0.6-0.4-0.6-0.8v-2.2c0-0.5,0.3-0.8,0.6-0.8h5c0.3,0,0.6,0.4,0.6,0.8V325.4z"/>
	<path class="st0" d="M-94,282h-21.5c-3.3,0-5.9,2.8-5.9,6.2l0,0v26.4l0.3,0.1c4.8,2.5,10.1,3.8,15.7,3.8c6.1,0,12-0.7,17.2-3.7
		l0.2-0.1v-15.5v-10.5v-0.5C-88,284.8-90.7,282-94,282z M-109.8,284.8h10.1c0.5,0,1,0.3,1,0.7s-0.4,0.7-1,0.7h-10.1
		c-0.5,0-1-0.3-1-0.7C-110.7,285.1-110.3,284.8-109.8,284.8z M-111.9,311.5h-3.6c-0.7,0-1.2-0.6-1.2-1.3c0-0.7,0.6-1.3,1.2-1.3h3.6
		c0.7,0,1.2,0.6,1.2,1.3C-110.6,310.9-111.2,311.5-111.9,311.5z M-104.5,311.4c-0.6,0-1.1-0.5-1.1-1.2c0-0.6,0.5-1.2,1.1-1.2
		c0.6,0,1.1,0.5,1.1,1.2C-103.4,310.8-103.9,311.4-104.5,311.4z M-94.3,311.5h-3.6c-0.7,0-1.2-0.6-1.2-1.3c0-0.7,0.6-1.3,1.2-1.3
		h3.6c0.7,0,1.2,0.6,1.2,1.3C-93,310.9-93.6,311.5-94.3,311.5z M-93,302.2h-23.8v-14.4h23.9v14.4H-93z"/>
</g>
<g>
	<path class="st0" d="M-200.9,325.1c-3.5,0-6.8-0.8-9.8-2.2l-0.4-0.2v0.5v1.1v16.3l0.1,0.1c2.4,3.2,6.2,5.3,10.6,5.3
		c4.4,0,8.4-2.2,10.7-5.5l0.1-0.1v-15.3v-2.3l-0.5,0.2C-193.4,324.8-197,325.1-200.9,325.1z M-203.9,336.2c0,0.3-0.2,0.5-0.4,0.5
		h-3.2c-0.2,0-0.4-0.2-0.4-0.5v-1.4c0-0.3,0.2-0.5,0.4-0.5h3.2c0.2,0,0.4,0.2,0.4,0.5V336.2z M-203.9,332.4c0,0.3-0.2,0.5-0.4,0.5
		h-3.2c-0.2,0-0.4-0.2-0.4-0.5V331c0-0.3,0.2-0.5,0.4-0.5h3.2c0.2,0,0.4,0.2,0.4,0.5C-203.9,331-203.9,332.4-203.9,332.4z
		 M-203.9,328.5c0,0.3-0.2,0.5-0.4,0.5h-3.2c-0.2,0-0.4-0.2-0.4-0.5v-1.4c0-0.3,0.2-0.5,0.4-0.5h3.2c0.2,0,0.4,0.2,0.4,0.5V328.5z
		 M-198.4,336.2c0,0.3-0.2,0.5-0.4,0.5h-3.2c-0.2,0-0.4-0.2-0.4-0.5v-1.4c0-0.3,0.2-0.5,0.4-0.5h3.2c0.2,0,0.4,0.2,0.4,0.5V336.2z
		 M-198.4,332.4c0,0.3-0.2,0.5-0.4,0.5h-3.2c-0.2,0-0.4-0.2-0.4-0.5V331c0-0.3,0.2-0.5,0.4-0.5h3.2c0.2,0,0.4,0.2,0.4,0.5V332.4z
		 M-198.4,328.5c0,0.3-0.2,0.5-0.4,0.5h-3.2c-0.2,0-0.4-0.2-0.4-0.5v-1.4c0-0.3,0.2-0.5,0.4-0.5h3.2c0.2,0,0.4,0.2,0.4,0.5V328.5z
		 M-192.8,336.2c0,0.3-0.2,0.5-0.4,0.5h-3.2c-0.2,0-0.4-0.2-0.4-0.5v-1.4c0-0.3,0.2-0.5,0.4-0.5h3.2c0.2,0,0.4,0.2,0.4,0.5V336.2z
		 M-203.9,340c0,0.3-0.2,0.5-0.4,0.5h-3.2c-0.2,0-0.4-0.2-0.4-0.5v-1.4c0-0.3,0.2-0.5,0.4-0.5h3.2c0.2,0,0.4,0.2,0.4,0.5V340z
		 M-198.4,340c0,0.3-0.2,0.5-0.4,0.5h-3.2c-0.2,0-0.4-0.2-0.4-0.5v-1.4c0-0.3,0.2-0.5,0.4-0.5h3.2c0.2,0,0.4,0.2,0.4,0.5V340z
		 M-192.8,340c0,0.3-0.2,0.5-0.4,0.5h-3.2c-0.2,0-0.4-0.2-0.4-0.5v-1.4c0-0.3,0.2-0.5,0.4-0.5h3.2c0.2,0,0.4,0.2,0.4,0.5V340z
		 M-192.8,332.4c0,0.3-0.2,0.5-0.4,0.5h-3.2c-0.2,0-0.4-0.2-0.4-0.5V331c0-0.3,0.2-0.5,0.4-0.5h3.2c0.2,0,0.4,0.2,0.4,0.5V332.4z
		 M-192.8,328.5c0,0.3-0.2,0.5-0.4,0.5h-3.2c-0.2,0-0.4-0.2-0.4-0.5v-1.4c0-0.3,0.2-0.5,0.4-0.5h3.2c0.2,0,0.4,0.2,0.4,0.5V328.5z"
		/>
	<path class="st0" d="M-193.5,300.6h-13.8c-2.1,0-3.8,1.8-3.8,4l0,0v17l0.2,0.1c3.1,1.6,6.5,2.5,10.1,2.5c3.9,0,7.7-0.4,11-2.4
		l0.2-0.1v-10V305v-0.3C-189.7,302.4-191.4,300.6-193.5,300.6z M-203.6,302.4h6.5c0.3,0,0.6,0.2,0.6,0.4c0,0.2-0.3,0.4-0.6,0.4h-6.5
		c-0.3,0-0.6-0.2-0.6-0.4C-204.2,302.6-204,302.4-203.6,302.4z M-205,319.5h-2.3c-0.4,0-0.8-0.4-0.8-0.8c0-0.5,0.4-0.8,0.8-0.8h2.3
		c0.4,0,0.8,0.4,0.8,0.8C-204.2,319.2-204.5,319.5-205,319.5z M-200.3,319.5c-0.4,0-0.7-0.3-0.7-0.7c0-0.4,0.3-0.7,0.7-0.7
		s0.7,0.3,0.7,0.7C-199.5,319.1-199.9,319.5-200.3,319.5z M-193.7,319.5h-2.3c-0.4,0-0.8-0.4-0.8-0.8c0-0.5,0.4-0.8,0.8-0.8h2.3
		c0.4,0,0.8,0.4,0.8,0.8C-192.9,319.2-193.2,319.5-193.7,319.5z M-192.9,313.6h-15.3v-9.3h15.3V313.6z"/>
</g>
<g>
	<path class="st0" d="M-33.5,493c-3.2,0-6.3-0.7-9-2.1l-0.4-0.2v0.5v1v15l0.1,0.1c2.2,2.9,5.7,4.9,9.8,4.9s7.7-2,9.9-5.1l0.1-0.1
		v-14v-2.1l-0.4,0.2C-26.6,492.7-29.9,493-33.5,493z M-36.3,503.3c0,0.3-0.2,0.5-0.4,0.5h-3c-0.2,0-0.4-0.2-0.4-0.5V502
		c0-0.3,0.2-0.5,0.4-0.5h3c0.2,0,0.4,0.2,0.4,0.5V503.3z M-36.3,499.7c0,0.3-0.2,0.5-0.4,0.5h-3c-0.2,0-0.4-0.2-0.4-0.5v-1.3
		c0-0.3,0.2-0.5,0.4-0.5h3c0.2,0,0.4,0.2,0.4,0.5V499.7z M-36.3,496.1c0,0.3-0.2,0.5-0.4,0.5h-3c-0.2,0-0.4-0.2-0.4-0.5v-1.3
		c0-0.3,0.2-0.5,0.4-0.5h3c0.2,0,0.4,0.2,0.4,0.5V496.1z M-31.2,503.3c0,0.3-0.2,0.5-0.4,0.5h-3c-0.2,0-0.4-0.2-0.4-0.5V502
		c0-0.3,0.2-0.5,0.4-0.5h3c0.2,0,0.4,0.2,0.4,0.5V503.3z M-31.2,499.7c0,0.3-0.2,0.5-0.4,0.5h-3c-0.2,0-0.4-0.2-0.4-0.5v-1.3
		c0-0.3,0.2-0.5,0.4-0.5h3c0.2,0,0.4,0.2,0.4,0.5V499.7z M-31.2,496.1c0,0.3-0.2,0.5-0.4,0.5h-3c-0.2,0-0.4-0.2-0.4-0.5v-1.3
		c0-0.3,0.2-0.5,0.4-0.5h3c0.2,0,0.4,0.2,0.4,0.5V496.1z M-26.1,503.3c0,0.3-0.2,0.5-0.4,0.5h-3c-0.2,0-0.4-0.2-0.4-0.5V502
		c0-0.3,0.2-0.5,0.4-0.5h3c0.2,0,0.4,0.2,0.4,0.5V503.3z M-36.3,506.8c0,0.3-0.2,0.5-0.4,0.5h-3c-0.2,0-0.4-0.2-0.4-0.5v-1.3
		c0-0.3,0.2-0.5,0.4-0.5h3c0.2,0,0.4,0.2,0.4,0.5V506.8z M-31.2,506.8c0,0.3-0.2,0.5-0.4,0.5h-3c-0.2,0-0.4-0.2-0.4-0.5v-1.3
		c0-0.3,0.2-0.5,0.4-0.5h3c0.2,0,0.4,0.2,0.4,0.5V506.8z M-26.1,506.8c0,0.3-0.2,0.5-0.4,0.5h-3c-0.2,0-0.4-0.2-0.4-0.5v-1.3
		c0-0.3,0.2-0.5,0.4-0.5h3c0.2,0,0.4,0.2,0.4,0.5V506.8z M-26.1,499.7c0,0.3-0.2,0.5-0.4,0.5h-3c-0.2,0-0.4-0.2-0.4-0.5v-1.3
		c0-0.3,0.2-0.5,0.4-0.5h3c0.2,0,0.4,0.2,0.4,0.5V499.7z M-26.1,496.1c0,0.3-0.2,0.5-0.4,0.5h-3c-0.2,0-0.4-0.2-0.4-0.5v-1.3
		c0-0.3,0.2-0.5,0.4-0.5h3c0.2,0,0.4,0.2,0.4,0.5V496.1z"/>
	<path class="st0" d="M-26.7,470.4h-12.7c-1.9,0-3.5,1.7-3.5,3.7l0,0v15.7l0.2,0.1c2.8,1.5,6,2.3,9.3,2.3c3.6,0,7.1-0.4,10.2-2.2
		l0.1-0.1v-9.3v-6.2v-0.3C-23.2,472.1-24.8,470.4-26.7,470.4z M-36.1,472.1h6c0.3,0,0.6,0.2,0.6,0.4c0,0.2-0.3,0.4-0.6,0.4h-6
		c-0.3,0-0.6-0.2-0.6-0.4C-36.6,472.2-36.4,472.1-36.1,472.1z M-37.3,487.9h-2.1c-0.4,0-0.7-0.3-0.7-0.8c0-0.4,0.3-0.8,0.7-0.8h2.1
		c0.4,0,0.7,0.3,0.7,0.8C-36.6,487.5-36.9,487.9-37.3,487.9z M-33,487.8c-0.4,0-0.7-0.3-0.7-0.7s0.3-0.7,0.7-0.7s0.7,0.3,0.7,0.7
		S-32.6,487.8-33,487.8z M-26.9,487.9H-29c-0.4,0-0.7-0.3-0.7-0.8c0-0.4,0.3-0.8,0.7-0.8h2.1c0.4,0,0.7,0.3,0.7,0.8
		C-26.1,487.5-26.5,487.9-26.9,487.9z M-26.1,482.4h-14.1v-8.5h14.1V482.4z"/>
</g>
<g>
	<g>
		<path class="st1" d="M-40.4,423.5h6.2c0.4,0,0.8-0.5,0.8-1v-2.8c0-0.6-0.3-1-0.8-1h-6.2c-0.4,0-0.8,0.5-0.8,1v2.8
			C-41.2,423-40.8,423.5-40.4,423.5z"/>
		<path class="st1" d="M-44.1,422.5v-2.8c0-0.6-0.3-1-0.8-1H-48v4.8h3.1C-44.4,423.5-44.1,423-44.1,422.5z"/>
		<path class="st1" d="M-40.4,431h6.2c0.4,0,0.8-0.5,0.8-1v-2.8c0-0.6-0.3-1-0.8-1h-6.2c-0.4,0-0.8,0.5-0.8,1v2.8
			C-41.2,430.5-40.8,431-40.4,431z"/>
		<path class="st1" d="M-40.4,445.8h6.2c0.4,0,0.8-0.5,0.8-1V442c0-0.6-0.3-1-0.8-1h-6.2c-0.4,0-0.8,0.5-0.8,1v2.8
			C-41.2,445.3-40.8,445.8-40.4,445.8z"/>
		<path class="st1" d="M-44.1,429.9v-2.8c0-0.6-0.3-1-0.8-1H-48v2v2.9h3.1C-44.4,431-44.1,430.5-44.1,429.9z"/>
		<path class="st1" d="M-44.1,437.4v-2.8c0-0.6-0.3-1-0.8-1H-48v4.8h3.1C-44.4,438.4-44.1,437.9-44.1,437.4z"/>
		<path class="st1" d="M-35.1,402h-4.4c-0.9,0-1.5,0.7-1.5,1.6s0.7,1.6,1.5,1.6h4.4c0.8,0,1.5-0.7,1.5-1.6
			C-33.5,402.7-34.2,402-35.1,402z"/>
		<path class="st1" d="M-44.1,444.8V442c0-0.6-0.3-1-0.8-1H-48v4.8h3.1C-44.4,445.8-44.1,445.3-44.1,444.8z"/>
		<rect x="-63.1" y="375.8" class="st1" width="29.6" height="17.9"/>
		<path class="st1" d="M-62.4,404.1"/>
		<path class="st1" d="M-40.4,438.4h6.2c0.4,0,0.8-0.5,0.8-1v-2.8c0-0.6-0.3-1-0.8-1h-6.2c-0.4,0-0.8,0.5-0.8,1v2.8
			C-41.2,437.9-40.8,438.4-40.4,438.4z"/>
		<path class="st1" d="M-54.3,373.6h12.5c0.7,0,1.2-0.4,1.2-0.8s-0.5-0.8-1.2-0.8h-12.5c-0.7,0-1.2,0.4-1.2,0.8
			C-55.5,373.3-55,373.6-54.3,373.6z"/>
		<path class="st1" d="M-47.8,402.1c-0.8,0-1.4,0.7-1.4,1.4c0,0.8,0.6,1.4,1.4,1.4c0.8,0,1.4-0.6,1.4-1.4
			C-46.4,402.8-47,402.1-47.8,402.1z"/>
		<path class="st0" d="M-44.9,418.7c0.4,0,0.8,0.5,0.8,1v2.8c0,0.6-0.3,1-0.8,1H-48v2.6h3.1c0.4,0,0.8,0.5,0.8,1v2.8
			c0,0.6-0.3,1-0.8,1H-48v2.6h3.1c0.4,0,0.8,0.5,0.8,1v2.8c0,0.6-0.3,1-0.8,1H-48v2.6h3.1c0.4,0,0.8,0.5,0.8,1v2.8
			c0,0.6-0.3,1-0.8,1H-48v4.1c0,0.4-0.1,0.8-0.1,1.2c0.1,0.4,0.1,0.8,0.1,1.2v3.9c8.5-0.1,16-4.2,20.5-10.6l0.1-0.2V416v-4.5
			l-0.9,0.5c-6,3.2-12.7,3.9-19.8,4v2.8L-44.9,418.7C-44.9,418.8-44.9,418.7-44.9,418.7z M-41.2,419.7c0-0.6,0.3-1,0.8-1h6.2
			c0.4,0,0.8,0.5,0.8,1v2.8c0,0.6-0.3,1-0.8,1h-6.2c-0.4,0-0.8-0.5-0.8-1V419.7z M-41.2,427.1c0-0.6,0.3-1,0.8-1h6.2
			c0.4,0,0.8,0.5,0.8,1v2.8c0,0.6-0.3,1-0.8,1h-6.2c-0.4,0-0.8-0.5-0.8-1V427.1z M-41.2,434.6c0-0.6,0.3-1,0.8-1h6.2
			c0.4,0,0.8,0.5,0.8,1v2.8c0,0.6-0.3,1-0.8,1h-6.2c-0.4,0-0.8-0.5-0.8-1V434.6z M-41.2,442c0-0.6,0.3-1,0.8-1h6.2
			c0.4,0,0.8,0.5,0.8,1v2.8c0,0.6-0.3,1-0.8,1h-6.2c-0.4,0-0.8-0.5-0.8-1V442z"/>
		<path class="st0" d="M-62.4,397.9c8.2,0,14.4,6.9,14.4,14.9v0.7v0.6c7.2-0.1,14.1-1,20.3-4.5l0.3-0.2V390v-13v-0.6
			c0-4.3-3.3-7.7-7.4-7.7h-26.7c-4.1,0-7.3,3.5-7.4,7.7l0,0V398L-62.4,397.9 M-54.3,372h12.5c0.7,0,1.2,0.4,1.2,0.8
			s-0.5,0.8-1.2,0.8h-12.5c-0.7,0-1.2-0.4-1.2-0.8S-55,372-54.3,372z M-47.8,405c-0.8,0-1.4-0.6-1.4-1.4s0.6-1.4,1.4-1.4
			c0.8,0,1.4,0.7,1.4,1.4C-46.4,404.4-47,405-47.8,405z M-35.1,405.2h-4.4c-0.9,0-1.5-0.7-1.5-1.6s0.7-1.6,1.5-1.6h4.4
			c0.8,0,1.5,0.7,1.5,1.6C-33.5,404.5-34.2,405.2-35.1,405.2z M-33.5,393.7h-29.6v-17.9h29.6V393.7z"/>
	</g>
	<g>
		<path class="st2" d="M-78.5,457.3c-7.5,0-14.7-1.7-21.3-4.8l-0.9-0.4v1.1v2.4v35.3l0.1,0.2c5.1,6.9,13.5,11.5,23,11.5
			c9.7,0,18.2-4.7,23.3-11.9l0.1-0.2v-33.1v-5l-1,0.5C-62.2,456.5-70.1,457.3-78.5,457.3z M-85,481.4c0,0.6-0.4,1.1-0.8,1.1h-7
			c-0.5,0-0.8-0.5-0.8-1.1v-3.1c0-0.6,0.4-1.1,0.8-1.1h7c0.5,0,0.8,0.5,0.8,1.1V481.4z M-85,473c0,0.6-0.4,1.1-0.8,1.1h-7
			c-0.5,0-0.8-0.5-0.8-1.1v-3.1c0-0.6,0.4-1.1,0.8-1.1h7c0.5,0,0.8,0.5,0.8,1.1V473z M-85,464.7c0,0.6-0.4,1.1-0.8,1.1h-7
			c-0.5,0-0.8-0.5-0.8-1.1v-3.1c0-0.6,0.4-1.1,0.8-1.1h7c0.5,0,0.8,0.5,0.8,1.1V464.7z M-73,481.4c0,0.6-0.4,1.1-0.9,1.1h-7
			c-0.5,0-0.9-0.5-0.9-1.1v-3.1c0-0.6,0.4-1.1,0.9-1.1h7c0.5,0,0.9,0.5,0.9,1.1V481.4z M-73,473c0,0.6-0.4,1.1-0.9,1.1h-7
			c-0.5,0-0.9-0.5-0.9-1.1v-3.1c0-0.6,0.4-1.1,0.9-1.1h7c0.5,0,0.9,0.5,0.9,1.1V473z M-73,464.7c0,0.6-0.4,1.1-0.9,1.1h-7
			c-0.5,0-0.9-0.5-0.9-1.1v-3.1c0-0.6,0.4-1.1,0.9-1.1h7c0.5,0,0.9,0.5,0.9,1.1V464.7z M-61,481.4c0,0.6-0.4,1.1-0.8,1.1h-7
			c-0.5,0-0.8-0.5-0.8-1.1v-3.1c0-0.6,0.4-1.1,0.8-1.1h7c0.5,0,0.8,0.5,0.8,1.1C-61,478.3-61,481.4-61,481.4z M-85,489.7
			c0,0.6-0.4,1.1-0.8,1.1h-7c-0.5,0-0.8-0.5-0.8-1.1v-3.1c0-0.6,0.4-1.1,0.8-1.1h7c0.5,0,0.8,0.5,0.8,1.1V489.7z M-73,489.7
			c0,0.6-0.4,1.1-0.9,1.1h-7c-0.5,0-0.9-0.5-0.9-1.1v-3.1c0-0.6,0.4-1.1,0.9-1.1h7c0.5,0,0.9,0.5,0.9,1.1V489.7z M-61,489.7
			c0,0.6-0.4,1.1-0.8,1.1h-7c-0.5,0-0.8-0.5-0.8-1.1v-3.1c0-0.6,0.4-1.1,0.8-1.1h7c0.5,0,0.8,0.5,0.8,1.1
			C-61,486.6-61,489.7-61,489.7z M-61,473c0,0.6-0.4,1.1-0.8,1.1h-7c-0.5,0-0.8-0.5-0.8-1.1v-3.1c0-0.6,0.4-1.1,0.8-1.1h7
			c0.5,0,0.8,0.5,0.8,1.1C-61,469.9-61,473-61,473z M-61,464.7c0,0.6-0.4,1.1-0.8,1.1h-7c-0.5,0-0.8-0.5-0.8-1.1v-3.1
			c0-0.6,0.4-1.1,0.8-1.1h7c0.5,0,0.8,0.5,0.8,1.1C-61,461.6-61,464.7-61,464.7z"/>
		<path class="st2" d="M-62.4,404.1h-30c-4.6,0-8.2,3.9-8.3,8.7l0,0v36.9l0.4,0.2c6.7,3.4,14.1,5.3,21.8,5.3c8.5,0,16.7-0.9,24-5.1
			l0.3-0.2v-21.8v-14.6v-0.7C-54.2,408-57.9,404.1-62.4,404.1z M-84.5,408h14.1c0.7,0,1.3,0.4,1.3,0.9s-0.6,0.9-1.3,0.9h-14.1
			c-0.7,0-1.3-0.4-1.3-0.9C-85.8,408.4-85.2,408-84.5,408z M-87.4,445.2h-5c-1,0-1.7-0.8-1.7-1.8s0.8-1.8,1.7-1.8h5
			c1,0,1.7,0.8,1.7,1.8C-85.6,444.4-86.4,445.2-87.4,445.2z M-77.2,445.1c-0.9,0-1.6-0.7-1.6-1.6s0.7-1.6,1.6-1.6
			c0.9,0,1.6,0.7,1.6,1.6C-75.6,444.3-76.3,445.1-77.2,445.1z M-62.8,445.2h-5c-1,0-1.7-0.8-1.7-1.8s0.8-1.8,1.7-1.8h5
			c1,0,1.7,0.8,1.7,1.8S-61.9,445.2-62.8,445.2z M-61.1,432.3h-33.3v-20.1h33.3V432.3z"/>
	</g>
	<g>
		<polygon class="st1" points="-155.9,374.6 -155.9,376.5 -155.9,376.5 		"/>
		<path class="st1" d="M-185.4,439.9C-185.5,439.9-185.5,439.9-185.4,439.9c-1.6,0-2.9,1.2-2.9,2.8s1.3,2.8,2.8,2.8
			c1.6,0,2.8-1.3,2.8-2.8c0-0.1,0-0.1,0-0.2"/>
		<path class="st0" d="M-182.6,442.3l-0.3-0.3v0.4c0,0.1,0,0.2,0,0.2c0,1.5-1.2,2.6-2.6,2.6c-1.5,0-2.6-1.2-2.6-2.6
			c0-1.5,1.2-2.6,2.6-2.6c0,0,0,0,0.1,0h0.4l-0.3-0.3c-0.9-0.9-1.7-1.9-2.5-3v-0.1h-14.9v-56.3h13.1v-3.4v-1.3v-0.2h-1.1v-2h0.9h0.2
			v-5.9h-9.6c-5.2,0-9.3,4.1-9.3,9.2V439c0,5.1,4.2,9.2,9.3,9.2h25.1V448C-177.2,446.5-180.1,444.5-182.6,442.3z"/>
	</g>
</g>
<g>
	<path class="st0" d="M-95.3,376.6h-27.6v11.1v5.1H-91v5.6h7.6v-10.1C-83.4,381.9-88.7,376.6-95.3,376.6z M-105.4,384.1v2.5h-1.3
		h-11.6h-1.3v-2.5h1.3h11.6H-105.4z"/>
	<path class="st0" d="M-134.1,445.3l-0.3,0.2c-2.2,1.5-4.6,2.7-7.1,3.7l-0.1,0.1v18.5c0,6.5,5.3,11.7,11.9,11.8h23.8v-14.7h-28.2
		V445.3z M-115.4,472.2c0-1.9,1.6-3.5,3.5-3.5c1.9,0,3.5,1.6,3.5,3.5s-1.6,3.5-3.5,3.5S-115.4,474.1-115.4,472.2z"/>
</g>
<g>
	<g>
		<path class="st0" d="M-166.1,286.4h-11c-2.1,0-3.8,1.7-3.8,3.8v25.4c0,2.1,1.7,3.8,3.8,3.8h11c2.1,0,3.8-1.7,3.8-3.8v-25.4
			C-162.3,288.1-164,286.4-166.1,286.4z M-172.6,317.1c0-0.6,0.5-1.1,1.1-1.1s1.1,0.5,1.1,1.1s-0.5,1.1-1.1,1.1
			C-172.2,318.2-172.6,317.7-172.6,317.1z M-173.7,289.6v-0.8h4.3v0.8H-173.7z M-164.8,291.6v23h-13.8v-23H-164.8z"/>
	</g>
</g>
</svg>
