<?xml version="1.0" encoding="utf-8"?>
<!-- Generator: Adobe Illustrator 19.2.1, SVG Export Plug-In . SVG Version: 6.00 Build 0)  -->
<svg version="1.1" id="Layer_1" xmlns="http://www.w3.org/2000/svg" xmlns:xlink="http://www.w3.org/1999/xlink" x="0px" y="0px"
	 viewBox="0 0 160 90" style="enable-background:new 0 0 160 90;" xml:space="preserve">
<style type="text/css">
	.st0{fill:#F29120;}
	.st1{fill:#FFFFFF;}
	.st2{fill:#F1F2F2;}
</style>
<g>
	<circle class="st0" cx="80.2" cy="45.2" r="33.9"/>
	<g>
		<path class="st1" d="M81.9,24.6v9.6H91v3h-9.2V47h-3.3v-9.7h-9.1v-3h9.1v-9.6H81.9z"/>
	</g>
	<g>
		<path class="st2" d="M58.8,58c0.1,0.1,0.1,0.2,0.2,0.4c0.1-0.1,0.1-0.3,0.2-0.4c0.1-0.1,0.1-0.2,0.2-0.3l2.2-4.1
			c0-0.1,0.1-0.1,0.1-0.1s0.1-0.1,0.1-0.1c0,0,0.1,0,0.1,0c0.1,0,0.1,0,0.2,0H63v7.4h-1.2v-4.8c0-0.1,0-0.2,0-0.3c0-0.1,0-0.2,0-0.3
			l-2.2,4.2c-0.1,0.1-0.1,0.2-0.2,0.2c-0.1,0.1-0.2,0.1-0.3,0.1h-0.2c-0.1,0-0.2,0-0.3-0.1s-0.2-0.1-0.2-0.2l-2.3-4.3
			c0,0.1,0,0.2,0,0.3c0,0.1,0,0.2,0,0.3v4.8H55v-7.4H56c0.1,0,0.1,0,0.2,0s0.1,0,0.1,0c0,0,0.1,0,0.1,0.1c0,0.1,0.1,0.1,0.1,0.1
			l2.2,4.1C58.7,57.8,58.8,57.9,58.8,58z"/>
		<path class="st2" d="M68.4,60.8h-0.6c-0.1,0-0.2,0-0.3-0.1c-0.1,0-0.1-0.1-0.2-0.2l-0.1-0.4c-0.1,0.1-0.3,0.2-0.4,0.3
			c-0.1,0.1-0.3,0.2-0.4,0.2c-0.2,0.1-0.3,0.1-0.4,0.1c-0.2,0-0.3,0.1-0.5,0.1c-0.2,0-0.4,0-0.6-0.1c-0.2-0.1-0.4-0.2-0.5-0.3
			s-0.2-0.3-0.3-0.4C64,59.8,64,59.6,64,59.4c0-0.2,0.1-0.4,0.2-0.6s0.3-0.4,0.5-0.5c0.2-0.2,0.6-0.3,1-0.4c0.4-0.1,0.9-0.2,1.5-0.2
			v-0.3c0-0.4-0.1-0.6-0.2-0.8c-0.2-0.2-0.4-0.3-0.6-0.3c-0.2,0-0.4,0-0.5,0.1c-0.1,0.1-0.3,0.1-0.4,0.2c-0.1,0.1-0.2,0.1-0.3,0.2
			c-0.1,0.1-0.2,0.1-0.3,0.1c-0.1,0-0.2,0-0.2-0.1c-0.1-0.1-0.1-0.1-0.2-0.2l-0.2-0.4c0.6-0.6,1.3-0.8,2.2-0.8
			c0.3,0,0.6,0.1,0.8,0.2c0.2,0.1,0.4,0.2,0.6,0.4c0.2,0.2,0.3,0.4,0.4,0.6c0.1,0.3,0.1,0.5,0.1,0.8C68.4,57.4,68.4,60.8,68.4,60.8z
			 M65.9,60c0.1,0,0.3,0,0.4,0s0.2-0.1,0.3-0.1c0.1-0.1,0.2-0.1,0.3-0.2c0.1-0.1,0.2-0.2,0.3-0.3v-0.9c-0.4,0-0.7,0-0.9,0.1
			c-0.3,0.1-0.4,0.1-0.6,0.2c-0.2,0.1-0.3,0.2-0.3,0.3c-0.1,0.1-0.1,0.2-0.1,0.3c0,0.2,0.1,0.4,0.2,0.5C65.5,59.9,65.7,60,65.9,60z"
			/>
		<path class="st2" d="M69.4,60.8v-5.3h0.8c0.2,0,0.3,0.1,0.3,0.2l0.1,0.4c0.1-0.1,0.2-0.2,0.3-0.3c0.1-0.1,0.2-0.2,0.4-0.2
			c0.1-0.1,0.3-0.1,0.4-0.2c0.2,0,0.3-0.1,0.5-0.1c0.3,0,0.5,0.1,0.8,0.2c0.2,0.1,0.4,0.2,0.6,0.4c0.2,0.2,0.3,0.4,0.3,0.6
			c0.1,0.3,0.1,0.5,0.1,0.8v3.4h-1.3v-3.4c0-0.3-0.1-0.6-0.2-0.7c-0.2-0.2-0.4-0.3-0.7-0.3c-0.2,0-0.4,0.1-0.6,0.2
			c-0.2,0.1-0.4,0.2-0.5,0.4v3.8H69.4z"/>
		<path class="st2" d="M76.8,62.2c0,0.1-0.1,0.2-0.2,0.2c-0.1,0.1-0.2,0.1-0.3,0.1h-1l1-2.1l-2.1-4.9h1.1c0.1,0,0.2,0,0.2,0.1
			c0.1,0.1,0.1,0.1,0.1,0.2l1.1,2.7c0,0.1,0.1,0.2,0.1,0.3c0,0.1,0.1,0.2,0.1,0.3c0-0.1,0.1-0.2,0.1-0.3c0-0.1,0.1-0.2,0.1-0.3
			l1.1-2.7c0-0.1,0.1-0.1,0.1-0.2c0.1-0.1,0.1-0.1,0.2-0.1h1L76.8,62.2z"/>
		<path class="st2" d="M85.9,58c0.1,0.1,0.1,0.2,0.2,0.4c0.1-0.1,0.1-0.3,0.2-0.4c0.1-0.1,0.1-0.2,0.2-0.3l2.2-4.1
			c0-0.1,0.1-0.1,0.1-0.1c0,0,0.1-0.1,0.1-0.1c0.1,0,0.1,0,0.1,0s0.1,0,0.2,0h1.1v7.4h-1.2v-4.8c0-0.1,0-0.2,0-0.3
			c0-0.1,0-0.2,0-0.3l-2.2,4.2c-0.1,0.1-0.1,0.2-0.2,0.2c-0.1,0.1-0.2,0.1-0.3,0.1H86c-0.1,0-0.2,0-0.3-0.1
			c-0.1-0.1-0.2-0.1-0.2-0.2l-2.3-4.3c0,0.1,0,0.2,0,0.3s0,0.2,0,0.3v4.8h-1.2v-7.4h1.1c0.1,0,0.1,0,0.2,0c0.1,0,0.1,0,0.1,0
			c0,0,0.1,0,0.1,0.1c0,0.1,0.1,0.1,0.1,0.1l2.2,4.1C85.8,57.8,85.9,57.9,85.9,58z"/>
		<path class="st2" d="M93.6,55.4c0.4,0,0.7,0.1,1.1,0.2c0.3,0.1,0.6,0.3,0.8,0.5c0.2,0.2,0.4,0.5,0.5,0.9c0.1,0.3,0.2,0.7,0.2,1.1
			c0,0.4-0.1,0.8-0.2,1.1s-0.3,0.6-0.5,0.9c-0.2,0.2-0.5,0.4-0.8,0.5c-0.3,0.1-0.7,0.2-1.1,0.2c-0.4,0-0.7-0.1-1.1-0.2
			s-0.6-0.3-0.8-0.5c-0.2-0.2-0.4-0.5-0.5-0.9C91,58.9,91,58.5,91,58.1c0-0.4,0.1-0.8,0.2-1.1c0.1-0.3,0.3-0.6,0.5-0.9
			s0.5-0.4,0.8-0.5C92.8,55.5,93.2,55.4,93.6,55.4z M93.6,59.9c0.4,0,0.8-0.2,1-0.4c0.2-0.3,0.3-0.7,0.3-1.3s-0.1-1-0.3-1.3
			c-0.2-0.3-0.5-0.4-1-0.4s-0.8,0.2-1,0.5c-0.2,0.3-0.3,0.7-0.3,1.3c0,0.6,0.1,1,0.3,1.3C92.8,59.7,93.1,59.9,93.6,59.9z"/>
		<path class="st2" d="M97,60.8v-5.3h0.7c0.1,0,0.2,0,0.3,0.1c0.1,0.1,0.1,0.1,0.1,0.3l0.1,0.6c0.2-0.3,0.4-0.6,0.7-0.8
			c0.3-0.2,0.5-0.3,0.9-0.3c0.3,0,0.5,0.1,0.6,0.2l-0.2,1c0,0.1,0,0.1-0.1,0.1c0,0-0.1,0.1-0.1,0.1s-0.1,0-0.2,0s-0.2,0-0.4,0
			c-0.3,0-0.5,0.1-0.7,0.2c-0.2,0.2-0.4,0.4-0.5,0.6v3.2H97z"/>
		<path class="st2" d="M103.2,55.4c0.3,0,0.6,0.1,0.9,0.2c0.3,0.1,0.5,0.3,0.7,0.5s0.4,0.5,0.5,0.7c0.1,0.3,0.2,0.6,0.2,1
			c0,0.1,0,0.2,0,0.2c0,0.1,0,0.1-0.1,0.2c0,0-0.1,0.1-0.1,0.1c0,0-0.1,0-0.2,0h-3.3c0,0.5,0.2,1,0.4,1.2c0.3,0.2,0.6,0.4,1,0.4
			c0.2,0,0.4,0,0.5-0.1c0.2-0.1,0.3-0.1,0.4-0.2c0.1-0.1,0.2-0.1,0.3-0.2s0.2-0.1,0.3-0.1c0.1,0,0.1,0,0.1,0s0.1,0.1,0.1,0.1
			l0.4,0.5c-0.1,0.2-0.3,0.3-0.5,0.4c-0.2,0.1-0.4,0.2-0.5,0.3c-0.2,0.1-0.4,0.1-0.6,0.2c-0.2,0-0.4,0.1-0.6,0.1
			c-0.4,0-0.7-0.1-1-0.2c-0.3-0.1-0.6-0.3-0.8-0.5c-0.2-0.2-0.4-0.5-0.5-0.9c-0.1-0.4-0.2-0.8-0.2-1.2c0-0.4,0.1-0.7,0.2-1
			c0.1-0.3,0.3-0.6,0.5-0.8c0.2-0.2,0.5-0.4,0.8-0.6C102.4,55.5,102.8,55.4,103.2,55.4z M103.2,56.3c-0.4,0-0.7,0.1-0.9,0.3
			s-0.3,0.5-0.4,0.9h2.4c0-0.2,0-0.3-0.1-0.5c-0.1-0.2-0.1-0.3-0.2-0.4c-0.1-0.1-0.2-0.2-0.4-0.3C103.6,56.3,103.4,56.3,103.2,56.3z
			"/>
	</g>
</g>
</svg>
