<?xml version="1.0"?><svg width="640" height="480" xmlns="http://www.w3.org/2000/svg">
 <title>blue.butterfly</title>
 <g>
  <title>Layer 1</title>
  <g id="        _x0020_1">
   <metadata fill="#aaffff" id="CorelCorpID_0Corel-Layer"/>
   <path d="m47.9603,50.6549c8.7537,35.780998 39.787998,60.272102 47.298397,83.477104c8.833305,23.86499 4.109505,37.201996 0.781502,55.244995c0.940804,-0.880997 8.626801,-14.184998 27.180801,-23.233002c24.805992,-13.179001 56.338997,-8.071991 76.937996,-25.291c-2.479996,2.998001 -19.160004,40.496002 -27.634995,42.119003c0.326996,7.852005 -5.076004,9.070999 -8.039001,9.852997c0.136002,7.445007 -5.591995,8.490997 -8.817001,8.279999c0.177002,2.31601 -0.561996,8.641006 -8.268005,8.208008c-1.720001,4.000992 -5.29599,5.332001 -7.694992,5.94899c-8.399002,2.161011 -25.554001,-6.571991 -32.910004,-11.498993c4.219002,2.972992 12.672005,9.544998 15.307999,18.184006c1.144005,3.750992 2.721001,14.554993 -1.626999,15.485001c-2.068001,1.278992 -6.975998,1.446991 -9.509995,-1.02301c-4.387001,2.266006 -7.520401,0.34201 -10.605301,-1.769989c-2.274101,0.168991 -4.476799,0.143997 -6.193504,-1.612015c-5.1689,-5.286987 -4.479897,-20.542999 -2.160797,-33.796997c-16.876801,11.983002 -39.175602,22.693008 -59.903603,19.585999c-5.226999,-0.987 -6.972198,-3.179001 -6.012999,-9.541c-4.6005,-2.701996 -6.190901,-7.985992 -3.3153,-11.830994c-2.6961,-1.315002 -8.9765,-8.289001 -6.279001,-13.716995c0.625202,-1.258011 2.031301,-3.343002 5.862301,-4.118011c16.079102,-5.756989 39.036999,4.969009 47.184002,7.443008c0,0 -10.511501,-4.346008 -24.782803,-12.776001c-8.494198,-5.018005 -23.6549,-16.216995 -20.627798,-29.119003c-2.216301,-2.640991 -5.148201,-11.626999 0.5359,-16.503998c-0.840401,-1.477997 -4.853201,-10.066002 2.3144,-15.508003c-2.676701,-8.278 1.3855,-12.503593 3.6313,-13.712799c-1.4704,-14.256897 16.096798,-33.2631 17.3475,-48.777298zm55.167797,149.202095c5.693901,2.596008 9.169899,3.414001 13.756905,4.019989c1.326996,0.175003 5.046997,0.323013 7.078995,-0.23999c2.081001,-0.975998 1.398003,-1.837997 0.166,-3.17601c2.663002,1.103012 9.78701,-0.788986 6.311012,-4.291c2.386993,0.886002 4.914993,0.77301 4.083984,3.337021c-1.547989,2.209991 -4.26799,2.46698 -6.668991,1.751999c1.569,1.595001 0.849991,2.688004 -0.167,3.278c-3.156006,1.681992 -7.783005,1.348984 -10.152,0.764984c-5.139,-1.34198 -9.302002,-2.317001 -14.408905,-5.444992zm-23.121696,-10.646011c-6.567101,-3.737 -13.308601,-7.650986 -17.703899,-11.414978c-3.188301,-2.730011 -5.181801,-5.294998 -4.787903,-8.070023c0.250301,-1.521988 2.1194,-1.694 4.300102,-1.433975c-1.402702,-0.826004 -4.203201,-4.208023 -3.436001,-6.999023c0.734501,-1.867981 1.5177,-2.401978 4.187401,-2.241989c-2.554901,-1.709991 -5.343002,-3.334991 -7.264999,-0.709991c-1.195301,2.580994 0.285099,5.136002 2.7286,6.972992c-2.394302,-0.483002 -4.212402,0.314987 -4.524002,2.060989c-0.7341,3.947998 2.426502,7.854019 7.803101,11.518021c5.140503,3.774979 12.025002,7.530991 18.697601,10.319l0,-0.001022zm31.509598,21.479004c1.959999,3.737 4.704002,6.878998 5.515999,12.227997c0.246002,1.62001 0.506004,4.573013 -0.889999,6.78302c-2.072998,2.054993 -4.064995,1.07399 -5.972,0.048981c-1.125,2.229019 -5.206001,2.080002 -6.401001,0.409012c1.131004,2.48999 2.545006,3.452988 5.241005,3.434006c1.226997,-0.186996 2.646996,-1.344009 2.630997,-2.182999c1.738998,2.356979 3.797005,2.79599 5.731003,1.429993c2.548996,-2.785004 1.558998,-7.216003 1.240997,-8.843002c-2.071999,-7.084991 -3.711998,-8.914001 -7.097,-13.306992l0,0l0,0l0,-0.000015zm-54.727398,-25.36499c-5.022102,-1.638992 -15.18,-2.112 -21.699001,-0.82399c-1.9403,0.382996 -7.2544,2.621979 -7.962799,5.562988c-0.7082,2.939972 1.778,4.809998 3.5483,5.812973c-3.4258,3.269028 -1.4902,9.081009 1.282999,9.524017c-6.514399,-0.99498 -6.5268,-4.445999 -6.5982,-6.233978c-0.0714,-1.789001 1.236601,-4.26503 2.2131,-4.543045c-3.381599,-1.358978 -6.425699,-4.218979 -4.512699,-7.712967c1.411999,-2.741989 5.663399,-3.659012 8.016199,-4.20401c2.352798,-0.544998 16.184898,-1.715988 25.712101,2.618011z" fill="#aaffff" id="svg_1" class="fil0"/>
  </g>
  <text xml:space="preserve" text-anchor="middle" font-family="serif" font-size="24" id="svg_3" y="92" x="68" stroke-width="0" stroke="#000000" fill="#000000"/>
  <text font-weight="bold" xml:space="preserve" text-anchor="middle" font-family="serif" font-size="12" id="svg_4" y="146" x="106" stroke-width="0" stroke="#000000" fill="#000000">Park, Laura</text>
  <text font-weight="bold" xml:space="preserve" text-anchor="middle" font-family="Serif" font-size="22" id="svg_5" y="96" x="107" stroke-width="0" stroke="#000000" fill="#000000">Many Thanks</text>
  <text font-weight="normal" xml:space="preserve" text-anchor="middle" font-family="serif" font-size="12" id="svg_6" y="130" x="107" stroke-width="0" stroke="#000000" fill="#000000">from</text>
  <text font-weight="bold" xml:space="preserve" text-anchor="middle" font-family="serif" font-size="12" id="svg_7" y="164" x="105" stroke-width="0" stroke="#000000" fill="#000000">&amp;</text>
  <text font-weight="bold" xml:space="preserve" text-anchor="middle" font-family="serif" font-size="12" id="svg_8" y="179" x="104" stroke-width="0" stroke="#000000" fill="#000000">Isabelle</text>
 </g>
</svg>