<?xml version="1.0" encoding="UTF-8" standalone="no"?>
<!-- Created with Inkscape (http://www.inkscape.org/) -->
<svg
   xmlns:svg="http://www.w3.org/2000/svg"
   xmlns="http://www.w3.org/2000/svg"
   version="1.0"
   width="510"
   height="330"
   id="svg3178">
  <defs
     id="defs3180">
    <marker
       refX="0"
       refY="0"
       orient="auto"
       style="overflow:visible"
       id="Arrow2Lend">
      <path
         d="M 8.7185878,4.0337352 L -2.2072895,0.016013256 L 8.7185884,-4.0017078 C 6.97309,-1.6296469 6.9831476,1.6157441 8.7185878,4.0337352 z "
         transform="matrix(-1.1,0,0,-1.1,-1.1,0)"
         style="font-size:12px;fill-rule:evenodd;stroke-width:0.625;stroke-linejoin:round"
         id="path3378" />
    </marker>
  </defs>
  <g
     transform="translate(1112.1428,-907.36218)"
     id="layer1">
    <rect
       width="80"
       height="50"
       ry="7.8473091"
       x="-806.94318"
       y="956.86218"
       style="opacity:1;fill:#87cfff;fill-opacity:1;stroke:#0000ff;stroke-width:1;stroke-linecap:round;stroke-linejoin:bevel;stroke-miterlimit:4;stroke-dasharray:none;stroke-dashoffset:0;stroke-opacity:1"
       id="rect3198" />
    <rect
       width="80"
       height="50"
       ry="7.8473091"
       x="-847.00574"
       y="1132.394"
       style="fill:#87cfff;fill-opacity:1;stroke:#0000ff;stroke-width:1;stroke-linecap:round;stroke-linejoin:bevel;stroke-miterlimit:4;stroke-dasharray:none;stroke-dashoffset:0;stroke-opacity:1"
       id="rect3200" />
    <rect
       width="80"
       height="50"
       ry="7.8473091"
       x="-756.55518"
       y="1132.394"
       style="fill:#87cfff;fill-opacity:1;stroke:#0000ff;stroke-width:1;stroke-linecap:round;stroke-linejoin:bevel;stroke-miterlimit:4;stroke-dasharray:none;stroke-dashoffset:0;stroke-opacity:1"
       id="rect3202" />
    <rect
       width="189.98749"
       height="70.625786"
       x="-856.77417"
       y="1122.0812"
       style="opacity:1;fill:none;fill-opacity:1;stroke:#0000d1;stroke-width:1;stroke-linecap:round;stroke-linejoin:bevel;stroke-miterlimit:4;stroke-dasharray:none;stroke-dashoffset:0;stroke-opacity:1"
       id="rect3204" />
    <path
       d="M -997.4961,982.75724 L -808.9909,982.75724 L -808.9909,981.75724 L -997.4961,981.75724 L -997.4961,982.75724 z "
       style="fill:#bf6100;fill-opacity:1;fill-rule:evenodd;stroke:none;stroke-width:1px;stroke-linecap:butt;stroke-linejoin:miter;stroke-opacity:1"
       id="path3406" />
    <path
       d="M -827.9486,974.77404 L -807.6699,982.23113 L -827.9486,989.68824 C -824.709,985.28554 -824.7277,979.26193 -827.9486,974.77404 z "
       style="font-size:12px;fill:#bf6100;fill-opacity:1;fill-rule:evenodd;stroke-width:0.625;stroke-linejoin:round"
       id="path3416" />
    <path
       d="M -1012.1948,1013.7177 L -869.81152,1130.855 L -869.1762,1130.0828 L -1011.5595,1012.9455 L -1012.1948,1013.7177 z "
       style="fill:#bf6100;fill-opacity:1;fill-rule:evenodd;stroke:none;stroke-width:1px;stroke-linecap:butt;stroke-linejoin:miter;stroke-opacity:1"
       id="path3426" />
    <path
       d="M -879.37968,1112.6458 L -868.45714,1131.288 L -888.85498,1124.1633 C -883.55608,1122.8215 -879.7436,1118.1579 -879.37968,1112.6458 z "
       style="font-size:12px;fill:#bf6100;fill-opacity:1;fill-rule:evenodd;stroke-width:0.625;stroke-linejoin:round"
       id="path3428" />
    <rect
       width="80"
       height="50"
       ry="7.8473091"
       x="-1076.6428"
       y="956.86218"
       style="opacity:1;fill:#87cfff;fill-opacity:1;stroke:#0000ff;stroke-width:1;stroke-linecap:round;stroke-linejoin:bevel;stroke-miterlimit:4;stroke-dasharray:none;stroke-dashoffset:0;stroke-opacity:1"
       id="rect3196" />
    <g
       id="g3803">
      <path
         d="M -767.90625,1030.4375 L -767.90625,1107.25 L -765.90625,1107.25 L -765.90625,1030.4375 L -767.90625,1030.4375 z "
         style="fill:#0000ff;fill-opacity:1;fill-rule:evenodd;stroke:none;stroke-width:2;stroke-linecap:butt;stroke-linejoin:miter;stroke-miterlimit:4;stroke-dasharray:none;stroke-opacity:1"
         id="path3442" />
      <path
         d="M -775.78217,1051.8219 L -766.94318,1027.785 L -758.10419,1051.8219 C -763.32273,1047.9818 -770.46259,1048.0039 -775.78217,1051.8219 z "
         style="font-size:12px;fill:#0000ff;fill-rule:evenodd;stroke-width:0.625;stroke-linejoin:round"
         id="path3450" />
    </g>
    <text
       x="-1036.5881"
       y="985.05457"
       style="font-size:28px;font-style:italic;font-weight:normal;text-align:center;text-anchor:middle;fill:#00008f;fill-opacity:1;stroke:none;stroke-width:1px;stroke-linecap:butt;stroke-linejoin:miter;stroke-opacity:1;font-family:Times New Roman"
       id="text3452"
       xml:space="preserve"><tspan
         x="-1036.5881"
         y="985.05457"
         id="tspan3454">φ</tspan></text>
    <text
       x="-805.4198"
       y="1160.5864"
       style="font-size:28px;font-style:italic;font-weight:normal;text-align:center;text-anchor:middle;fill:#00008f;fill-opacity:1;stroke:none;stroke-width:1px;stroke-linecap:butt;stroke-linejoin:miter;stroke-opacity:1;font-family:Times New Roman"
       id="text3460"
       xml:space="preserve"><tspan
         x="-805.4198"
         y="1160.5864"
         id="tspan3462">ρ</tspan></text>
    <text
       x="-717.89502"
       y="1160.5864"
       style="font-size:28px;font-style:italic;font-weight:normal;text-align:center;text-anchor:middle;fill:#00008f;fill-opacity:1;stroke:none;stroke-width:1px;stroke-linecap:butt;stroke-linejoin:miter;stroke-opacity:1;font-family:Times New Roman"
       id="text3464"
       xml:space="preserve"><tspan
         x="-717.89502"
         y="1160.5864"
         id="tspan3466">ψ</tspan></text>
    <text
       x="-914.62604"
       y="963.18744"
       style="font-size:22.42414284px;font-style:normal;font-weight:normal;text-align:center;text-anchor:middle;fill:#00008f;fill-opacity:1;stroke:none;stroke-width:1px;stroke-linecap:butt;stroke-linejoin:miter;stroke-opacity:1;font-family:Arial"
       id="text3468"
       xml:space="preserve"><tspan
         x="-914.62604"
         y="963.18744"
         id="tspan3470">Observation</tspan></text>
    <text
       x="-994.3382"
       y="1083.7882"
       style="font-size:22.42414284px;font-style:normal;font-weight:normal;text-align:center;text-anchor:middle;fill:#00008f;fill-opacity:1;stroke:none;stroke-width:1px;stroke-linecap:butt;stroke-linejoin:miter;stroke-opacity:1;font-family:Arial"
       id="text3472"
       xml:space="preserve"><tspan
         x="-994.3382"
         y="1083.7882"
         id="tspan3474">Splitting</tspan></text>
    <text
       x="-688.29315"
       y="1078.006"
       style="font-size:22.42414284px;font-style:normal;font-weight:normal;text-align:center;text-anchor:middle;fill:#00008f;fill-opacity:1;stroke:none;stroke-width:1px;stroke-linecap:butt;stroke-linejoin:miter;stroke-opacity:1;font-family:Arial"
       id="text3476"
       xml:space="preserve"><tspan
         x="-688.29315"
         y="1078.006"
         id="tspan3478">Partial trace</tspan></text>
    <path
       d="M 320.46875,50 L 369.46875,99 L 370.875,99 L 321.90625,50 L 320.46875,50 z "
       transform="translate(-1112.1428,907.36218)"
       style="fill:#0000ff;fill-opacity:1;fill-rule:evenodd;stroke:none;stroke-width:1px;stroke-linecap:butt;stroke-linejoin:miter;stroke-opacity:1"
       id="path3480" />
    <path
       d="M 316.1875,50 L 365.15625,99 L 366.59375,99 L 317.625,50 L 316.1875,50 z "
       transform="translate(-1112.1428,907.36218)"
       style="fill:#0000ff;fill-opacity:1;fill-rule:evenodd;stroke:none;stroke-width:1px;stroke-linecap:butt;stroke-linejoin:miter;stroke-opacity:1"
       id="path3482" />
    <path
       d="M 367.71875,50 L 384.71875,67 L 384.71875,65.59375 L 369.125,50 L 367.71875,50 z "
       transform="translate(-1112.1428,907.36218)"
       style="fill:#0000ff;fill-opacity:1;fill-rule:evenodd;stroke:none;stroke-width:1px;stroke-linecap:butt;stroke-linejoin:miter;stroke-opacity:1"
       id="path3484" />
    <path
       d="M 363.40625,50 L 384.71875,71.3125 L 384.71875,69.875 L 364.84375,50 L 363.40625,50 z "
       transform="translate(-1112.1428,907.36218)"
       style="fill:#0000ff;fill-opacity:1;fill-rule:evenodd;stroke:none;stroke-width:1px;stroke-linecap:butt;stroke-linejoin:miter;stroke-opacity:1"
       id="path3486" />
    <path
       d="M 359.125,50 L 384.71875,75.625 L 384.71875,74.15625 L 360.5625,50 L 359.125,50 z "
       transform="translate(-1112.1428,907.36218)"
       style="fill:#0000ff;fill-opacity:1;fill-rule:evenodd;stroke:none;stroke-width:1px;stroke-linecap:butt;stroke-linejoin:miter;stroke-opacity:1"
       id="path3488" />
    <path
       d="M 354.84375,50 L 384.71875,79.90625 L 384.71875,78.46875 L 356.25,50 L 354.84375,50 z "
       transform="translate(-1112.1428,907.36218)"
       style="fill:#0000ff;fill-opacity:1;fill-rule:evenodd;stroke:none;stroke-width:1px;stroke-linecap:butt;stroke-linejoin:miter;stroke-opacity:1"
       id="path3490" />
    <path
       d="M 350.53125,50 L 384.71875,84.1875 L 384.71875,82.78125 L 351.96875,50 L 350.53125,50 z "
       transform="translate(-1112.1428,907.36218)"
       style="fill:#0000ff;fill-opacity:1;fill-rule:evenodd;stroke:none;stroke-width:1px;stroke-linecap:butt;stroke-linejoin:miter;stroke-opacity:1"
       id="path3492" />
    <path
       d="M 346.25,50 L 384.71875,88.5 L 384.71875,87.0625 L 347.65625,50 L 346.25,50 z "
       transform="translate(-1112.1428,907.36218)"
       style="fill:#0000ff;fill-opacity:1;fill-rule:evenodd;stroke:none;stroke-width:1px;stroke-linecap:butt;stroke-linejoin:miter;stroke-opacity:1"
       id="path3494" />
    <path
       d="M 341.9375,50 L 384.625,92.6875 C 384.67269,92.346519 384.71875,91.979457 384.71875,91.625 L 384.71875,91.375 L 343.375,50 L 341.9375,50 z "
       transform="translate(-1112.1428,907.36218)"
       style="fill:#0000ff;fill-opacity:1;fill-rule:evenodd;stroke:none;stroke-width:1px;stroke-linecap:butt;stroke-linejoin:miter;stroke-opacity:1"
       id="path3496" />
    <path
       d="M 337.65625,50 L 383.4375,95.8125 C 383.63952,95.516931 383.77947,95.1997 383.9375,94.875 L 339.09375,50 L 337.65625,50 z "
       transform="translate(-1112.1428,907.36218)"
       style="fill:#0000ff;fill-opacity:1;fill-rule:evenodd;stroke:none;stroke-width:1px;stroke-linecap:butt;stroke-linejoin:miter;stroke-opacity:1"
       id="path3498" />
    <path
       d="M 333.375,50 L 381.25,97.90625 C 381.54525,97.721576 381.82883,97.536174 382.09375,97.3125 L 334.78125,50 L 333.375,50 z "
       transform="translate(-1112.1428,907.36218)"
       style="fill:#0000ff;fill-opacity:1;fill-rule:evenodd;stroke:none;stroke-width:1px;stroke-linecap:butt;stroke-linejoin:miter;stroke-opacity:1"
       id="path3500" />
    <path
       d="M 329.0625,50 L 378.03125,98.96875 C 378.45088,98.93155 378.85429,98.88564 379.25,98.78125 L 330.5,50 L 329.0625,50 z "
       transform="translate(-1112.1428,907.36218)"
       style="fill:#0000ff;fill-opacity:1;fill-rule:evenodd;stroke:none;stroke-width:1px;stroke-linecap:butt;stroke-linejoin:miter;stroke-opacity:1"
       id="path3502" />
    <path
       d="M 324.78125,50 L 373.75,99 L 375.1875,99 L 326.1875,50 L 324.78125,50 z "
       transform="translate(-1112.1428,907.36218)"
       style="fill:#0000ff;fill-opacity:1;fill-rule:evenodd;stroke:none;stroke-width:1px;stroke-linecap:butt;stroke-linejoin:miter;stroke-opacity:1"
       id="path3504" />
    <path
       d="M 372,50 L 384.71875,62.71875 L 384.71875,61.28125 L 373.4375,50 L 372,50 z "
       transform="translate(-1112.1428,907.36218)"
       style="fill:#0000ff;fill-opacity:1;fill-rule:evenodd;stroke:none;stroke-width:1px;stroke-linecap:butt;stroke-linejoin:miter;stroke-opacity:1"
       id="path3506" />
    <path
       d="M 376.3125,50 L 384.71875,58.40625 L 384.71875,57.34375 C 384.71875,57.216279 384.6938,57.094555 384.6875,56.96875 L 377.75,50.03125 C 377.6242,50.024948 377.50247,50 377.375,50 L 376.3125,50 z "
       transform="translate(-1112.1428,907.36218)"
       style="fill:#0000ff;fill-opacity:1;fill-rule:evenodd;stroke:none;stroke-width:1px;stroke-linecap:butt;stroke-linejoin:miter;stroke-opacity:1"
       id="path3508" />
    <path
       d="M 313.0625,50 C 312.70805,50 312.34055,50.046055 312,50.09375 L 360.875,99 L 362.3125,99 L 313.3125,50 L 313.0625,50 z "
       transform="translate(-1112.1428,907.36218)"
       style="fill:#0000ff;fill-opacity:1;fill-rule:evenodd;stroke:none;stroke-width:1px;stroke-linecap:butt;stroke-linejoin:miter;stroke-opacity:1"
       id="path3510" />
    <path
       d="M 309.8125,50.78125 C 309.48841,50.939577 309.16966,51.078779 308.875,51.28125 L 356.59375,99 L 358,99 L 309.8125,50.78125 z "
       transform="translate(-1112.1428,907.36218)"
       style="fill:#0000ff;fill-opacity:1;fill-rule:evenodd;stroke:none;stroke-width:1px;stroke-linecap:butt;stroke-linejoin:miter;stroke-opacity:1"
       id="path3512" />
    <path
       d="M 307.375,52.6875 C 307.16313,52.944616 306.98813,53.214888 306.8125,53.5 L 352.28125,99 L 353.71875,99 L 307.375,52.6875 z "
       transform="translate(-1112.1428,907.36218)"
       style="fill:#0000ff;fill-opacity:1;fill-rule:evenodd;stroke:none;stroke-width:1px;stroke-linecap:butt;stroke-linejoin:miter;stroke-opacity:1"
       id="path3514" />
    <path
       d="M 305.9375,55.5 C 305.83297,55.906339 305.78427,56.318738 305.75,56.75 L 348,99 L 349.40625,99 L 305.9375,55.5 z "
       transform="translate(-1112.1428,907.36218)"
       style="fill:#0000ff;fill-opacity:1;fill-rule:evenodd;stroke:none;stroke-width:1px;stroke-linecap:butt;stroke-linejoin:miter;stroke-opacity:1"
       id="path3516" />
    <path
       d="M 305.71875,59.5625 L 305.71875,61 L 343.6875,99 L 345.125,99 L 305.71875,59.5625 z "
       transform="translate(-1112.1428,907.36218)"
       style="fill:#0000ff;fill-opacity:1;fill-rule:evenodd;stroke:none;stroke-width:1px;stroke-linecap:butt;stroke-linejoin:miter;stroke-opacity:1"
       id="path3518" />
    <path
       d="M 305.71875,63.875 L 305.71875,65.28125 L 339.40625,99 L 340.84375,99 L 305.71875,63.875 z "
       transform="translate(-1112.1428,907.36218)"
       style="fill:#0000ff;fill-opacity:1;fill-rule:evenodd;stroke:none;stroke-width:1px;stroke-linecap:butt;stroke-linejoin:miter;stroke-opacity:1"
       id="path3520" />
    <path
       d="M 305.71875,68.15625 L 305.71875,69.59375 L 335.125,99 L 336.53125,99 L 305.71875,68.15625 z "
       transform="translate(-1112.1428,907.36218)"
       style="fill:#0000ff;fill-opacity:1;fill-rule:evenodd;stroke:none;stroke-width:1px;stroke-linecap:butt;stroke-linejoin:miter;stroke-opacity:1"
       id="path3522" />
    <path
       d="M 305.71875,72.46875 L 305.71875,73.875 L 330.8125,99 L 332.25,99 L 305.71875,72.46875 z "
       transform="translate(-1112.1428,907.36218)"
       style="fill:#0000ff;fill-opacity:1;fill-rule:evenodd;stroke:none;stroke-width:1px;stroke-linecap:butt;stroke-linejoin:miter;stroke-opacity:1"
       id="path3524" />
    <path
       d="M 305.71875,76.78125 L 305.71875,78.1875 L 326.53125,99 L 327.9375,99 L 305.71875,76.78125 z "
       transform="translate(-1112.1428,907.36218)"
       style="fill:#0000ff;fill-opacity:1;fill-rule:evenodd;stroke:none;stroke-width:1px;stroke-linecap:butt;stroke-linejoin:miter;stroke-opacity:1"
       id="path3526" />
    <path
       d="M 305.71875,81.0625 L 305.71875,82.5 L 322.21875,99 L 323.65625,99 L 305.71875,81.0625 z "
       transform="translate(-1112.1428,907.36218)"
       style="fill:#0000ff;fill-opacity:1;fill-rule:evenodd;stroke:none;stroke-width:1px;stroke-linecap:butt;stroke-linejoin:miter;stroke-opacity:1"
       id="path3528" />
    <path
       d="M 305.71875,85.34375 L 305.71875,86.78125 L 317.9375,99 L 319.375,99 L 305.71875,85.34375 z "
       transform="translate(-1112.1428,907.36218)"
       style="fill:#0000ff;fill-opacity:1;fill-rule:evenodd;stroke:none;stroke-width:1px;stroke-linecap:butt;stroke-linejoin:miter;stroke-opacity:1"
       id="path3530" />
    <path
       d="M 305.71875,89.65625 L 305.71875,91.0625 L 313.65625,99 L 315.0625,99 L 305.71875,89.65625 z "
       transform="translate(-1112.1428,907.36218)"
       style="fill:#0000ff;fill-opacity:1;fill-rule:evenodd;stroke:none;stroke-width:1px;stroke-linecap:butt;stroke-linejoin:miter;stroke-opacity:1"
       id="path3532" />
    <path
       d="M 306.28125,94.5 C 307.02085,96.265228 308.42814,97.692048 310.1875,98.4375 L 306.28125,94.5 z "
       transform="translate(-1112.1428,907.36218)"
       style="fill:#0000ff;fill-opacity:1;fill-rule:evenodd;stroke:none;stroke-width:1px;stroke-linecap:butt;stroke-linejoin:miter;stroke-opacity:1"
       id="path3534" />
  </g>
</svg>
