<?xml version="1.0" encoding="utf-8"?>
<!-- Generator: Adobe Illustrator 16.0.1, SVG Export Plug-In . SVG Version: 6.00 Build 0)  -->
<!DOCTYPE svg PUBLIC "-//W3C//DTD SVG 1.1//EN" "http://www.w3.org/Graphics/SVG/1.1/DTD/svg11.dtd">
<svg version="1.1" id="Layer_1" xmlns="http://www.w3.org/2000/svg" xmlns:xlink="http://www.w3.org/1999/xlink" x="0px" y="0px"
	 width="542px" height="262px" viewBox="0 0 542 262" enable-background="new 0 0 542 262" xml:space="preserve">
<g>
	<g transform="translate(0,-952.36218)">
		<path fill="#88BF58" d="M170.43,957.422c-2.548,0-4.735,1.986-4.735,4.533c0,2.548,2.187,4.736,4.735,4.736
			c2.543,0,4.533-2.188,4.533-4.736C174.963,959.408,172.973,957.422,170.43,957.422z M183.836,957.422
			c-2.543,0-4.533,1.986-4.533,4.533c0,2.548,1.99,4.736,4.533,4.736c2.548,0,4.538-2.188,4.538-4.736
			C188.374,959.408,186.384,957.422,183.836,957.422z M197.247,957.422c-2.548,0-4.538,1.986-4.538,4.533
			c0,2.548,1.99,4.736,4.538,4.736s4.533-2.188,4.533-4.736C201.78,959.408,199.795,957.422,197.247,957.422z M210.658,957.422
			c-2.548,0-4.538,1.986-4.538,4.533c0,2.548,1.99,4.736,4.538,4.736c2.543,0,4.532-2.188,4.532-4.736
			C215.19,959.408,213.201,957.422,210.658,957.422z M224.064,957.422c-2.548,0-4.534,1.986-4.534,4.533
			c0,2.548,1.985,4.736,4.534,4.736c2.548,0,4.538-2.188,4.538-4.736C228.602,959.408,226.612,957.422,224.064,957.422z
			 M237.475,957.422c-2.548,0-4.538,1.986-4.538,4.533c0,2.548,1.989,4.736,4.538,4.736s4.533-2.188,4.533-4.736
			C242.008,959.408,240.023,957.422,237.475,957.422z M384.977,957.422c-2.548,0-4.533,1.986-4.533,4.533
			c0,2.548,1.985,4.736,4.533,4.736c2.547,0,4.73-2.188,4.73-4.736C389.707,959.408,387.523,957.422,384.977,957.422z
			 M398.585,957.422c-2.548,0-4.74,1.986-4.74,4.533c0,2.548,2.192,4.736,4.74,4.736s4.532-2.188,4.532-4.736
			C403.117,959.408,401.133,957.422,398.585,957.422z M411.996,957.422c-2.548,0-4.74,1.986-4.74,4.533
			c0,2.548,2.192,4.736,4.74,4.736c2.547,0,4.533-2.188,4.533-4.736C416.529,959.408,414.543,957.422,411.996,957.422z
			 M425.407,957.422c-2.548,0-4.74,1.986-4.74,4.533c0,2.548,2.192,4.736,4.74,4.736s4.522-2.188,4.522-4.736
			C429.93,959.408,427.955,957.422,425.407,957.422z M438.818,957.422c-2.549,0-4.74,1.986-4.74,4.533
			c0,2.548,2.191,4.736,4.74,4.736c2.537,0,4.522-2.188,4.522-4.736C443.341,959.408,441.355,957.422,438.818,957.422z
			 M452.219,957.422c-2.548,0-4.73,1.986-4.73,4.533c0,2.548,2.183,4.736,4.73,4.736c2.549,0,4.533-2.188,4.533-4.736
			C456.752,959.408,454.768,957.422,452.219,957.422z M49.746,970.828c-2.548,0-4.735,1.99-4.735,4.538s2.187,4.533,4.735,4.533
			s4.533-1.985,4.533-4.533S52.294,970.828,49.746,970.828z M63.152,970.828c-2.543,0-4.73,1.99-4.73,4.538s2.187,4.533,4.73,4.533
			c2.548,0,4.538-1.985,4.538-4.533S65.7,970.828,63.152,970.828z M76.562,970.828c-2.548,0-4.73,1.99-4.73,4.538
			s2.182,4.533,4.73,4.533c2.548,0,4.538-1.985,4.538-4.533S79.111,970.828,76.562,970.828z M89.974,970.828
			c-2.547,0-4.735,1.99-4.735,4.538s2.188,4.533,4.735,4.533c2.548,0,4.533-1.985,4.533-4.533S92.521,970.828,89.974,970.828z
			 M103.38,970.828c-2.543,0-4.73,1.99-4.73,4.538s2.188,4.533,4.73,4.533c2.548,0,4.538-1.985,4.538-4.533
			S105.928,970.828,103.38,970.828z M116.791,970.828c-2.548,0-4.73,1.99-4.73,4.538s2.182,4.533,4.73,4.533
			c2.548,0,4.538-1.985,4.538-4.533S119.339,970.828,116.791,970.828z M130.202,970.828c-2.548,0-4.735,1.99-4.735,4.538
			s2.187,4.533,4.735,4.533c2.543,0,4.533-1.985,4.533-4.533S132.745,970.828,130.202,970.828z M143.608,970.828
			c-2.543,0-4.73,1.99-4.73,4.538s2.187,4.533,4.73,4.533c2.548,0,4.538-1.985,4.538-4.533S146.156,970.828,143.608,970.828z
			 M157.019,970.828c-2.548,0-4.73,1.99-4.73,4.538s2.182,4.533,4.73,4.533c2.548,0,4.533-1.985,4.533-4.533
			S159.567,970.828,157.019,970.828z M170.43,970.828c-2.548,0-4.735,1.99-4.735,4.538s2.187,4.533,4.735,4.533
			c2.543,0,4.533-1.985,4.533-4.533S172.973,970.828,170.43,970.828z M183.836,970.828c-2.543,0-4.533,1.99-4.533,4.538
			s1.99,4.533,4.533,4.533c2.548,0,4.538-1.985,4.538-4.533S186.384,970.828,183.836,970.828z M197.247,970.828
			c-2.548,0-4.538,1.99-4.538,4.538s1.99,4.533,4.538,4.533s4.533-1.985,4.533-4.533S199.795,970.828,197.247,970.828z
			 M210.658,970.828c-2.548,0-4.538,1.99-4.538,4.538s1.99,4.533,4.538,4.533c2.543,0,4.532-1.985,4.532-4.533
			S213.201,970.828,210.658,970.828z M224.064,970.828c-2.548,0-4.534,1.99-4.534,4.538s1.985,4.533,4.534,4.533
			c2.548,0,4.538-1.985,4.538-4.533S226.612,970.828,224.064,970.828z M291.109,970.828c-2.538,0-4.533,1.99-4.533,4.538
			s1.995,4.533,4.533,4.533c2.547,0,4.73-1.985,4.73-4.533S293.656,970.828,291.109,970.828z M304.521,970.828
			c-2.548,0-4.533,1.99-4.533,4.538s1.985,4.533,4.533,4.533s4.729-1.985,4.729-4.533S307.068,970.828,304.521,970.828z
			 M331.332,970.828c-2.538,0-4.523,1.99-4.523,4.538s1.985,4.533,4.523,4.533c2.549,0,4.74-1.985,4.74-4.533
			S333.881,970.828,331.332,970.828z M344.743,970.828c-2.548,0-4.522,1.99-4.522,4.538s1.975,4.533,4.522,4.533
			s4.74-1.985,4.74-4.533S347.291,970.828,344.743,970.828z M358.154,970.828c-2.548,0-4.533,1.99-4.533,4.538
			s1.985,4.533,4.533,4.533s4.74-1.985,4.74-4.533S360.702,970.828,358.154,970.828z M371.565,970.828
			c-2.548,0-4.533,1.99-4.533,4.538s1.985,4.533,4.533,4.533s4.74-1.985,4.74-4.533S374.113,970.828,371.565,970.828z
			 M384.977,970.828c-2.548,0-4.533,1.99-4.533,4.538s1.985,4.533,4.533,4.533c2.547,0,4.73-1.985,4.73-4.533
			S387.523,970.828,384.977,970.828z M398.585,970.828c-2.548,0-4.74,1.99-4.74,4.538s2.192,4.533,4.74,4.533
			s4.532-1.985,4.532-4.533S401.133,970.828,398.585,970.828z M411.996,970.828c-2.548,0-4.74,1.99-4.74,4.538
			s2.192,4.533,4.74,4.533c2.547,0,4.533-1.985,4.533-4.533S414.543,970.828,411.996,970.828z M425.407,970.828
			c-2.548,0-4.74,1.99-4.74,4.538s2.192,4.533,4.74,4.533s4.522-1.985,4.522-4.533S427.955,970.828,425.407,970.828z
			 M438.818,970.828c-2.549,0-4.74,1.99-4.74,4.538s2.191,4.533,4.74,4.533c2.537,0,4.522-1.985,4.522-4.533
			S441.355,970.828,438.818,970.828z M452.219,970.828c-2.548,0-4.73,1.99-4.73,4.538s2.183,4.533,4.73,4.533
			c2.549,0,4.533-1.985,4.533-4.533S454.768,970.828,452.219,970.828z M465.63,970.828c-2.548,0-4.73,1.99-4.73,4.538
			s2.183,4.533,4.73,4.533s4.532-1.985,4.532-4.533S468.178,970.828,465.63,970.828z M479.041,970.828
			c-2.548,0-4.73,1.99-4.73,4.538s2.183,4.533,4.73,4.533c2.538,0,4.533-1.985,4.533-4.533S481.579,970.828,479.041,970.828z
			 M492.441,970.828c-2.547,0-4.721,1.99-4.721,4.538s2.174,4.533,4.721,4.533c2.549,0,4.543-1.985,4.543-4.533
			S494.99,970.828,492.441,970.828z M505.854,970.828c-2.549,0-4.73,1.99-4.73,4.538s2.182,4.533,4.73,4.533
			c2.547,0,4.543-1.985,4.543-4.533S508.4,970.828,505.854,970.828z M519.264,970.828c-2.547,0-4.73,1.99-4.73,4.538
			s2.184,4.533,4.73,4.533c2.549,0,4.543-1.985,4.543-4.533S521.812,970.828,519.264,970.828z M532.676,970.828
			c-2.549,0-4.73,1.99-4.73,4.538s2.182,4.533,4.73,4.533c2.547,0,4.542-1.985,4.542-4.533S535.223,970.828,532.676,970.828z
			 M22.731,984.041c-2.548,0-4.538,2.188-4.538,4.73c0,2.548,1.99,4.538,4.538,4.538c2.543,0,4.73-1.99,4.73-4.538
			C27.461,986.229,25.274,984.041,22.731,984.041z M36.335,984.041c-2.548,0-4.731,2.188-4.731,4.73
			c0,2.548,2.183,4.538,4.731,4.538c2.548,0,4.538-1.99,4.538-4.538C40.873,986.229,38.883,984.041,36.335,984.041z M49.746,984.041
			c-2.548,0-4.735,2.188-4.735,4.73c0,2.548,2.187,4.538,4.735,4.538s4.533-1.99,4.533-4.538
			C54.278,986.229,52.294,984.041,49.746,984.041z M63.152,984.041c-2.543,0-4.73,2.188-4.73,4.73c0,2.548,2.187,4.538,4.73,4.538
			c2.548,0,4.538-1.99,4.538-4.538C67.689,986.229,65.7,984.041,63.152,984.041z M76.562,984.041c-2.548,0-4.73,2.188-4.73,4.73
			c0,2.548,2.182,4.538,4.73,4.538c2.548,0,4.538-1.99,4.538-4.538C81.101,986.229,79.111,984.041,76.562,984.041z M89.974,984.041
			c-2.547,0-4.735,2.188-4.735,4.73c0,2.548,2.188,4.538,4.735,4.538c2.548,0,4.533-1.99,4.533-4.538
			C94.506,986.229,92.521,984.041,89.974,984.041z M103.38,984.041c-2.543,0-4.73,2.188-4.73,4.73c0,2.548,2.188,4.538,4.73,4.538
			c2.548,0,4.538-1.99,4.538-4.538C107.918,986.229,105.928,984.041,103.38,984.041z M116.791,984.041
			c-2.548,0-4.73,2.188-4.73,4.73c0,2.548,2.182,4.538,4.73,4.538c2.548,0,4.538-1.99,4.538-4.538
			C121.329,986.229,119.339,984.041,116.791,984.041z M130.202,984.041c-2.548,0-4.735,2.188-4.735,4.73
			c0,2.548,2.187,4.538,4.735,4.538c2.543,0,4.533-1.99,4.533-4.538C134.734,986.229,132.745,984.041,130.202,984.041z
			 M170.43,984.041c-2.548,0-4.735,2.188-4.735,4.73c0,2.548,2.187,4.538,4.735,4.538c2.543,0,4.533-1.99,4.533-4.538
			C174.963,986.229,172.973,984.041,170.43,984.041z M183.836,984.041c-2.543,0-4.533,2.188-4.533,4.73
			c0,2.548,1.99,4.538,4.533,4.538c2.548,0,4.538-1.99,4.538-4.538C188.374,986.229,186.384,984.041,183.836,984.041z
			 M237.475,984.041c-0.637,0-1.225,0.163-1.778,0.395c-1.654,0.701-2.76,2.429-2.76,4.335c0,2.548,1.989,4.538,4.538,4.538
			s4.533-1.99,4.533-4.538C242.008,986.229,240.023,984.041,237.475,984.041z M277.703,984.041c-2.548,0-4.538,2.188-4.538,4.73
			c0,2.548,1.99,4.538,4.538,4.538c2.553,0,4.726-1.99,4.726-4.538C282.429,986.229,280.256,984.041,277.703,984.041z
			 M291.109,984.041c-2.538,0-4.533,2.188-4.533,4.73c0,2.548,1.995,4.538,4.533,4.538c2.547,0,4.73-1.99,4.73-4.538
			C295.84,986.229,293.656,984.041,291.109,984.041z M304.521,984.041c-2.548,0-4.533,2.188-4.533,4.73
			c0,2.548,1.985,4.538,4.533,4.538s4.729-1.99,4.729-4.538C309.25,986.229,307.068,984.041,304.521,984.041z M317.932,984.041
			c-2.549,0-4.533,2.188-4.533,4.73c0,2.548,1.984,4.538,4.533,4.538c2.548,0,4.73-1.99,4.73-4.538
			C322.662,986.229,320.479,984.041,317.932,984.041z M331.332,984.041c-2.538,0-4.523,2.188-4.523,4.73
			c0,2.548,1.985,4.538,4.523,4.538c2.549,0,4.74-1.99,4.74-4.538C336.072,986.229,333.881,984.041,331.332,984.041z
			 M344.743,984.041c-2.548,0-4.522,2.188-4.522,4.73c0,2.548,1.975,4.538,4.522,4.538s4.74-1.99,4.74-4.538
			C349.483,986.229,347.291,984.041,344.743,984.041z M358.154,984.041c-2.548,0-4.533,2.188-4.533,4.73
			c0,2.548,1.985,4.538,4.533,4.538s4.74-1.99,4.74-4.538C362.895,986.229,360.702,984.041,358.154,984.041z M371.565,984.041
			c-2.548,0-4.533,2.188-4.533,4.73c0,2.548,1.985,4.538,4.533,4.538s4.74-1.99,4.74-4.538
			C376.306,986.229,374.113,984.041,371.565,984.041z M384.977,984.041c-2.548,0-4.533,2.188-4.533,4.73
			c0,2.548,1.985,4.538,4.533,4.538c2.547,0,4.73-1.99,4.73-4.538C389.707,986.229,387.523,984.041,384.977,984.041z
			 M398.585,984.041c-2.548,0-4.74,2.188-4.74,4.73c0,2.548,2.192,4.538,4.74,4.538s4.532-1.99,4.532-4.538
			C403.117,986.229,401.133,984.041,398.585,984.041z M411.996,984.041c-2.548,0-4.74,2.188-4.74,4.73
			c0,2.548,2.192,4.538,4.74,4.538c2.547,0,4.533-1.99,4.533-4.538C416.529,986.229,414.543,984.041,411.996,984.041z
			 M425.407,984.041c-2.548,0-4.74,2.188-4.74,4.73c0,2.548,2.192,4.538,4.74,4.538s4.522-1.99,4.522-4.538
			C429.93,986.229,427.955,984.041,425.407,984.041z M438.818,984.041c-2.549,0-4.74,2.188-4.74,4.73
			c0,2.548,2.191,4.538,4.74,4.538c2.537,0,4.522-1.99,4.522-4.538C443.341,986.229,441.355,984.041,438.818,984.041z
			 M452.219,984.041c-2.548,0-4.73,2.188-4.73,4.73c0,2.548,2.183,4.538,4.73,4.538c2.549,0,4.533-1.99,4.533-4.538
			C456.752,986.229,454.768,984.041,452.219,984.041z M465.63,984.041c-2.548,0-4.73,2.188-4.73,4.73
			c0,2.548,2.183,4.538,4.73,4.538s4.532-1.99,4.532-4.538C470.162,986.229,468.178,984.041,465.63,984.041z M479.041,984.041
			c-2.548,0-4.73,2.188-4.73,4.73c0,2.548,2.183,4.538,4.73,4.538c2.538,0,4.533-1.99,4.533-4.538
			C483.574,986.229,481.579,984.041,479.041,984.041z M492.441,984.041c-2.547,0-4.721,2.188-4.721,4.73
			c0,2.548,2.174,4.538,4.721,4.538c2.549,0,4.543-1.99,4.543-4.538C496.984,986.229,494.99,984.041,492.441,984.041z
			 M505.854,984.041c-2.549,0-4.73,2.188-4.73,4.73c0,2.548,2.182,4.538,4.73,4.538c2.547,0,4.543-1.99,4.543-4.538
			C510.396,986.229,508.4,984.041,505.854,984.041z M519.264,984.041c-2.547,0-4.73,2.188-4.73,4.73c0,2.548,2.184,4.538,4.73,4.538
			c2.549,0,4.543-1.99,4.543-4.538C523.807,986.229,521.812,984.041,519.264,984.041z M9.32,997.452
			c-2.548,0-4.538,1.986-4.538,4.534s1.99,4.735,4.538,4.735s4.73-2.187,4.73-4.735S11.868,997.452,9.32,997.452z M63.152,997.452
			c-2.543,0-4.73,1.986-4.73,4.534s2.187,4.735,4.73,4.735c2.548,0,4.538-2.187,4.538-4.735S65.7,997.452,63.152,997.452z
			 M76.562,997.452c-2.548,0-4.73,1.986-4.73,4.534s2.182,4.735,4.73,4.735c2.548,0,4.538-2.187,4.538-4.735
			S79.111,997.452,76.562,997.452z M89.974,997.452c-2.547,0-4.735,1.986-4.735,4.534s2.188,4.735,4.735,4.735
			c2.548,0,4.533-2.187,4.533-4.735S92.521,997.452,89.974,997.452z M103.38,997.452c-2.543,0-4.73,1.986-4.73,4.534
			s2.188,4.735,4.73,4.735c2.548,0,4.538-2.187,4.538-4.735S105.928,997.452,103.38,997.452z M116.791,997.452
			c-2.548,0-4.73,1.986-4.73,4.534s2.182,4.735,4.73,4.735c2.548,0,4.538-2.187,4.538-4.735S119.339,997.452,116.791,997.452z
			 M143.608,997.452c-2.543,0-4.73,1.986-4.73,4.534s2.187,4.735,4.73,4.735c2.548,0,4.538-2.187,4.538-4.735
			S146.156,997.452,143.608,997.452z M157.019,997.452c-2.548,0-4.73,1.986-4.73,4.534s2.182,4.735,4.73,4.735
			c2.548,0,4.533-2.187,4.533-4.735S159.567,997.452,157.019,997.452z M250.886,997.452c-2.548,0-4.538,1.986-4.538,4.534
			s1.99,4.735,4.538,4.735c2.543,0,4.533-2.187,4.533-4.735S253.429,997.452,250.886,997.452z M277.703,997.452
			c-2.548,0-4.538,1.986-4.538,4.534s1.99,4.735,4.538,4.735c2.553,0,4.726-2.187,4.726-4.735S280.256,997.452,277.703,997.452z
			 M291.109,997.452c-2.538,0-4.533,1.986-4.533,4.534s1.995,4.735,4.533,4.735c2.547,0,4.73-2.187,4.73-4.735
			S293.656,997.452,291.109,997.452z M304.521,997.452c-2.548,0-4.533,1.986-4.533,4.534s1.985,4.735,4.533,4.735
			s4.729-2.187,4.729-4.735S307.068,997.452,304.521,997.452z M317.932,997.452c-2.549,0-4.533,1.986-4.533,4.534
			s1.984,4.735,4.533,4.735c2.548,0,4.73-2.187,4.73-4.735S320.479,997.452,317.932,997.452z M331.332,997.452
			c-2.538,0-4.523,1.986-4.523,4.534s1.985,4.735,4.523,4.735c2.549,0,4.74-2.187,4.74-4.735S333.881,997.452,331.332,997.452z
			 M344.743,997.452c-2.548,0-4.522,1.986-4.522,4.534s1.975,4.735,4.522,4.735s4.74-2.187,4.74-4.735
			S347.291,997.452,344.743,997.452z M358.154,997.452c-2.548,0-4.533,1.986-4.533,4.534s1.985,4.735,4.533,4.735
			s4.74-2.187,4.74-4.735S360.702,997.452,358.154,997.452z M371.565,997.452c-2.548,0-4.533,1.986-4.533,4.534
			s1.985,4.735,4.533,4.735s4.74-2.187,4.74-4.735S374.113,997.452,371.565,997.452z M384.977,997.452
			c-2.548,0-4.533,1.986-4.533,4.534s1.985,4.735,4.533,4.735c2.547,0,4.73-2.187,4.73-4.735S387.523,997.452,384.977,997.452z
			 M398.585,997.452c-2.548,0-4.74,1.986-4.74,4.534s2.192,4.735,4.74,4.735s4.532-2.187,4.532-4.735
			S401.133,997.452,398.585,997.452z M411.996,997.452c-2.548,0-4.74,1.986-4.74,4.534s2.192,4.735,4.74,4.735
			c2.547,0,4.533-2.187,4.533-4.735S414.543,997.452,411.996,997.452z M425.407,997.452c-2.548,0-4.74,1.986-4.74,4.534
			s2.192,4.735,4.74,4.735s4.522-2.187,4.522-4.735S427.955,997.452,425.407,997.452z M438.818,997.452
			c-2.549,0-4.74,1.986-4.74,4.534s2.191,4.735,4.74,4.735c2.537,0,4.522-2.187,4.522-4.735S441.355,997.452,438.818,997.452z
			 M452.219,997.452c-2.548,0-4.73,1.986-4.73,4.534s2.183,4.735,4.73,4.735c2.549,0,4.533-2.187,4.533-4.735
			S454.768,997.452,452.219,997.452z M465.63,997.452c-2.548,0-4.73,1.986-4.73,4.534s2.183,4.735,4.73,4.735
			s4.532-2.187,4.532-4.735S468.178,997.452,465.63,997.452z M479.041,997.452c-2.548,0-4.73,1.986-4.73,4.534
			s2.183,4.735,4.73,4.735c2.538,0,4.533-2.187,4.533-4.735S481.579,997.452,479.041,997.452z M63.152,1010.661
			c-2.543,0-4.73,2.187-4.73,4.735c0,2.547,2.187,4.533,4.73,4.533c2.548,0,4.538-1.985,4.538-4.533
			C67.689,1012.848,65.7,1010.661,63.152,1010.661z M76.562,1010.661c-2.548,0-4.73,2.187-4.73,4.735
			c0,2.547,2.182,4.533,4.73,4.533c2.548,0,4.538-1.985,4.538-4.533C81.101,1012.848,79.111,1010.661,76.562,1010.661z
			 M89.974,1010.661c-2.547,0-4.735,2.187-4.735,4.735c0,2.547,2.188,4.533,4.735,4.533c2.548,0,4.533-1.985,4.533-4.533
			C94.506,1012.848,92.521,1010.661,89.974,1010.661z M103.38,1010.661c-2.543,0-4.73,2.187-4.73,4.735
			c0,2.547,2.188,4.533,4.73,4.533c2.548,0,4.538-1.985,4.538-4.533C107.918,1012.848,105.928,1010.661,103.38,1010.661z
			 M116.791,1010.661c-2.548,0-4.73,2.187-4.73,4.735c0,2.547,2.182,4.533,4.73,4.533c2.548,0,4.538-1.985,4.538-4.533
			C121.329,1012.848,119.339,1010.661,116.791,1010.661z M130.202,1010.661c-2.548,0-4.735,2.187-4.735,4.735
			c0,2.547,2.187,4.533,4.735,4.533c2.543,0,4.533-1.985,4.533-4.533C134.734,1012.848,132.745,1010.661,130.202,1010.661z
			 M143.608,1010.661c-2.543,0-4.73,2.187-4.73,4.735c0,2.547,2.187,4.533,4.73,4.533c2.548,0,4.538-1.985,4.538-4.533
			C148.146,1012.848,146.156,1010.661,143.608,1010.661z M250.886,1010.661c-2.548,0-4.538,2.187-4.538,4.735
			c0,2.547,1.99,4.533,4.538,4.533c2.543,0,4.533-1.985,4.533-4.533C255.419,1012.848,253.429,1010.661,250.886,1010.661z
			 M264.292,1010.661c-2.548,0-4.533,2.187-4.533,4.735c0,2.547,1.985,4.533,4.533,4.533c2.548,0,4.735-1.985,4.735-4.533
			C269.027,1012.848,266.84,1010.661,264.292,1010.661z M277.703,1010.661c-2.548,0-4.538,2.187-4.538,4.735
			c0,2.547,1.99,4.533,4.538,4.533c2.553,0,4.726-1.985,4.726-4.533C282.429,1012.848,280.256,1010.661,277.703,1010.661z
			 M291.109,1010.661c-2.538,0-4.533,2.187-4.533,4.735c0,2.547,1.995,4.533,4.533,4.533c2.547,0,4.73-1.985,4.73-4.533
			C295.84,1012.848,293.656,1010.661,291.109,1010.661z M304.521,1010.661c-2.548,0-4.533,2.187-4.533,4.735
			c0,2.547,1.985,4.533,4.533,4.533s4.729-1.985,4.729-4.533C309.25,1012.848,307.068,1010.661,304.521,1010.661z M317.932,1010.661
			c-2.549,0-4.533,2.187-4.533,4.735c0,2.547,1.984,4.533,4.533,4.533c2.548,0,4.73-1.985,4.73-4.533
			C322.662,1012.848,320.479,1010.661,317.932,1010.661z M331.332,1010.661c-2.538,0-4.523,2.187-4.523,4.735
			c0,2.547,1.985,4.533,4.523,4.533c2.549,0,4.74-1.985,4.74-4.533C336.072,1012.848,333.881,1010.661,331.332,1010.661z
			 M344.743,1010.661c-2.548,0-4.522,2.187-4.522,4.735c0,2.547,1.975,4.533,4.522,4.533s4.74-1.985,4.74-4.533
			C349.483,1012.848,347.291,1010.661,344.743,1010.661z M358.154,1010.661c-2.548,0-4.533,2.187-4.533,4.735
			c0,2.547,1.985,4.533,4.533,4.533s4.74-1.985,4.74-4.533C362.895,1012.848,360.702,1010.661,358.154,1010.661z M371.565,1010.661
			c-2.548,0-4.533,2.187-4.533,4.735c0,2.547,1.985,4.533,4.533,4.533s4.74-1.985,4.74-4.533
			C376.306,1012.848,374.113,1010.661,371.565,1010.661z M384.977,1010.661c-2.548,0-4.533,2.187-4.533,4.735
			c0,2.547,1.985,4.533,4.533,4.533c2.547,0,4.73-1.985,4.73-4.533C389.707,1012.848,387.523,1010.661,384.977,1010.661z
			 M398.585,1010.661c-2.548,0-4.74,2.187-4.74,4.735c0,2.547,2.192,4.533,4.74,4.533s4.532-1.985,4.532-4.533
			C403.117,1012.848,401.133,1010.661,398.585,1010.661z M411.996,1010.661c-2.548,0-4.74,2.187-4.74,4.735
			c0,2.547,2.192,4.533,4.74,4.533c2.547,0,4.533-1.985,4.533-4.533C416.529,1012.848,414.543,1010.661,411.996,1010.661z
			 M425.407,1010.661c-2.548,0-4.74,2.187-4.74,4.735c0,2.547,2.192,4.533,4.74,4.533s4.522-1.985,4.522-4.533
			C429.93,1012.848,427.955,1010.661,425.407,1010.661z M438.818,1010.661c-2.549,0-4.74,2.187-4.74,4.735
			c0,2.547,2.191,4.533,4.74,4.533c2.537,0,4.522-1.985,4.522-4.533C443.341,1012.848,441.355,1010.661,438.818,1010.661z
			 M452.219,1010.661c-2.548,0-4.73,2.187-4.73,4.735c0,2.547,2.183,4.533,4.73,4.533c2.549,0,4.533-1.985,4.533-4.533
			C456.752,1012.848,454.768,1010.661,452.219,1010.661z M465.63,1010.661c-2.548,0-4.73,2.187-4.73,4.735
			c0,2.547,2.183,4.533,4.73,4.533s4.532-1.985,4.532-4.533C470.162,1012.848,468.178,1010.661,465.63,1010.661z M479.041,1010.661
			c-2.548,0-4.73,2.187-4.73,4.735c0,2.547,2.183,4.533,4.73,4.533c2.538,0,4.533-1.985,4.533-4.533
			C483.574,1012.848,481.579,1010.661,479.041,1010.661z M519.264,1010.661c-2.547,0-4.73,2.187-4.73,4.735
			c0,2.547,2.184,4.533,4.73,4.533c2.549,0,4.543-1.985,4.543-4.533C523.807,1012.848,521.812,1010.661,519.264,1010.661z
			 M49.746,1024.072c-2.548,0-4.735,1.99-4.735,4.533c0,2.547,2.187,4.735,4.735,4.735s4.533-2.188,4.533-4.735
			C54.278,1026.062,52.294,1024.072,49.746,1024.072z M63.152,1024.072c-2.543,0-4.73,1.99-4.73,4.533
			c0,2.547,2.187,4.735,4.73,4.735c2.548,0,4.538-2.188,4.538-4.735C67.689,1026.062,65.7,1024.072,63.152,1024.072z
			 M76.562,1024.072c-2.548,0-4.73,1.99-4.73,4.533c0,2.547,2.182,4.735,4.73,4.735c2.548,0,4.538-2.188,4.538-4.735
			C81.101,1026.062,79.111,1024.072,76.562,1024.072z M89.974,1024.072c-2.547,0-4.735,1.99-4.735,4.533
			c0,2.547,2.188,4.735,4.735,4.735c2.548,0,4.533-2.188,4.533-4.735C94.506,1026.062,92.521,1024.072,89.974,1024.072z
			 M103.38,1024.072c-2.543,0-4.73,1.99-4.73,4.533c0,2.547,2.188,4.735,4.73,4.735c2.548,0,4.538-2.188,4.538-4.735
			C107.918,1026.062,105.928,1024.072,103.38,1024.072z M116.791,1024.072c-2.548,0-4.73,1.99-4.73,4.533
			c0,2.547,2.182,4.735,4.73,4.735c2.548,0,4.538-2.188,4.538-4.735C121.329,1026.062,119.339,1024.072,116.791,1024.072z
			 M130.202,1024.072c-2.548,0-4.735,1.99-4.735,4.533c0,2.547,2.187,4.735,4.735,4.735c2.543,0,4.533-2.188,4.533-4.735
			C134.734,1026.062,132.745,1024.072,130.202,1024.072z M250.886,1024.072c-2.548,0-4.538,1.99-4.538,4.533
			c0,2.547,1.99,4.735,4.538,4.735c2.543,0,4.533-2.188,4.533-4.735C255.419,1026.062,253.429,1024.072,250.886,1024.072z
			 M277.703,1024.072c-2.548,0-4.538,1.99-4.538,4.533c0,2.547,1.99,4.735,4.538,4.735c2.553,0,4.726-2.188,4.726-4.735
			C282.429,1026.062,280.256,1024.072,277.703,1024.072z M291.109,1024.072c-2.538,0-4.533,1.99-4.533,4.533
			c0,2.547,1.995,4.735,4.533,4.735c2.547,0,4.73-2.188,4.73-4.735C295.84,1026.062,293.656,1024.072,291.109,1024.072z
			 M304.521,1024.072c-2.548,0-4.533,1.99-4.533,4.533c0,2.547,1.985,4.735,4.533,4.735s4.729-2.188,4.729-4.735
			C309.25,1026.062,307.068,1024.072,304.521,1024.072z M317.932,1024.072c-2.549,0-4.533,1.99-4.533,4.533
			c0,2.547,1.984,4.735,4.533,4.735c2.548,0,4.73-2.188,4.73-4.735C322.662,1026.062,320.479,1024.072,317.932,1024.072z
			 M331.332,1024.072c-2.538,0-4.523,1.99-4.523,4.533c0,2.547,1.985,4.735,4.523,4.735c2.549,0,4.74-2.188,4.74-4.735
			C336.072,1026.062,333.881,1024.072,331.332,1024.072z M344.743,1024.072c-2.548,0-4.522,1.99-4.522,4.533
			c0,2.547,1.975,4.735,4.522,4.735s4.74-2.188,4.74-4.735C349.483,1026.062,347.291,1024.072,344.743,1024.072z M358.154,1024.072
			c-2.548,0-4.533,1.99-4.533,4.533c0,2.547,1.985,4.735,4.533,4.735s4.74-2.188,4.74-4.735
			C362.895,1026.062,360.702,1024.072,358.154,1024.072z M371.565,1024.072c-2.548,0-4.533,1.99-4.533,4.533
			c0,2.547,1.985,4.735,4.533,4.735s4.74-2.188,4.74-4.735C376.306,1026.062,374.113,1024.072,371.565,1024.072z M384.977,1024.072
			c-2.548,0-4.533,1.99-4.533,4.533c0,2.547,1.985,4.735,4.533,4.735c2.547,0,4.73-2.188,4.73-4.735
			C389.707,1026.062,387.523,1024.072,384.977,1024.072z M398.585,1024.072c-2.548,0-4.74,1.99-4.74,4.533
			c0,2.547,2.192,4.735,4.74,4.735s4.532-2.188,4.532-4.735C403.117,1026.062,401.133,1024.072,398.585,1024.072z M411.996,1024.072
			c-2.548,0-4.74,1.99-4.74,4.533c0,2.547,2.192,4.735,4.74,4.735c2.547,0,4.533-2.188,4.533-4.735
			C416.529,1026.062,414.543,1024.072,411.996,1024.072z M425.407,1024.072c-2.548,0-4.74,1.99-4.74,4.533
			c0,2.547,2.192,4.735,4.74,4.735s4.522-2.188,4.522-4.735C429.93,1026.062,427.955,1024.072,425.407,1024.072z M438.818,1024.072
			c-2.549,0-4.74,1.99-4.74,4.533c0,2.547,2.191,4.735,4.74,4.735c2.537,0,4.522-2.188,4.522-4.735
			C443.341,1026.062,441.355,1024.072,438.818,1024.072z M452.219,1024.072c-2.548,0-4.73,1.99-4.73,4.533
			c0,2.547,2.183,4.735,4.73,4.735c2.549,0,4.533-2.188,4.533-4.735C456.752,1026.062,454.768,1024.072,452.219,1024.072z
			 M465.63,1024.072c-2.548,0-4.73,1.99-4.73,4.533c0,2.547,2.183,4.735,4.73,4.735s4.532-2.188,4.532-4.735
			C470.162,1026.062,468.178,1024.072,465.63,1024.072z M479.041,1024.072c-2.548,0-4.73,1.99-4.73,4.533
			c0,2.547,2.183,4.735,4.73,4.735c2.538,0,4.533-2.188,4.533-4.735C483.574,1026.062,481.579,1024.072,479.041,1024.072z
			 M49.746,1037.483c-2.548,0-4.735,1.985-4.735,4.533s2.187,4.538,4.735,4.538s4.533-1.99,4.533-4.538
			S52.294,1037.483,49.746,1037.483z M63.152,1037.483c-2.543,0-4.73,1.985-4.73,4.533s2.187,4.538,4.73,4.538
			c2.548,0,4.538-1.99,4.538-4.538S65.7,1037.483,63.152,1037.483z M76.562,1037.483c-2.548,0-4.73,1.985-4.73,4.533
			s2.182,4.538,4.73,4.538c2.548,0,4.538-1.99,4.538-4.538S79.111,1037.483,76.562,1037.483z M89.974,1037.483
			c-2.547,0-4.735,1.985-4.735,4.533s2.188,4.538,4.735,4.538c2.548,0,4.533-1.99,4.533-4.538S92.521,1037.483,89.974,1037.483z
			 M103.38,1037.483c-2.543,0-4.73,1.985-4.73,4.533s2.188,4.538,4.73,4.538c2.548,0,4.538-1.99,4.538-4.538
			S105.928,1037.483,103.38,1037.483z M116.791,1037.483c-2.548,0-4.73,1.985-4.73,4.533s2.182,4.538,4.73,4.538
			c2.548,0,4.538-1.99,4.538-4.538S119.339,1037.483,116.791,1037.483z M250.886,1037.483c-2.548,0-4.538,1.985-4.538,4.533
			s1.99,4.538,4.538,4.538c2.543,0,4.533-1.99,4.533-4.538S253.429,1037.483,250.886,1037.483z M264.292,1037.483
			c-2.548,0-4.533,1.985-4.533,4.533s1.985,4.538,4.533,4.538c2.548,0,4.735-1.99,4.735-4.538S266.84,1037.483,264.292,1037.483z
			 M317.932,1037.483c-2.549,0-4.533,1.985-4.533,4.533s1.984,4.538,4.533,4.538c2.548,0,4.73-1.99,4.73-4.538
			S320.479,1037.483,317.932,1037.483z M331.332,1037.483c-2.538,0-4.523,1.985-4.523,4.533s1.985,4.538,4.523,4.538
			c2.549,0,4.74-1.99,4.74-4.538S333.881,1037.483,331.332,1037.483z M344.743,1037.483c-2.548,0-4.522,1.985-4.522,4.533
			s1.975,4.538,4.522,4.538s4.74-1.99,4.74-4.538S347.291,1037.483,344.743,1037.483z M358.154,1037.483
			c-2.548,0-4.533,1.985-4.533,4.533s1.985,4.538,4.533,4.538s4.74-1.99,4.74-4.538S360.702,1037.483,358.154,1037.483z
			 M371.565,1037.483c-2.548,0-4.533,1.985-4.533,4.533s1.985,4.538,4.533,4.538s4.74-1.99,4.74-4.538
			S374.113,1037.483,371.565,1037.483z M384.977,1037.483c-2.548,0-4.533,1.985-4.533,4.533s1.985,4.538,4.533,4.538
			c2.547,0,4.73-1.99,4.73-4.538S387.523,1037.483,384.977,1037.483z M398.585,1037.483c-2.548,0-4.74,1.985-4.74,4.533
			s2.192,4.538,4.74,4.538s4.532-1.99,4.532-4.538S401.133,1037.483,398.585,1037.483z M411.996,1037.483
			c-2.548,0-4.74,1.985-4.74,4.533s2.192,4.538,4.74,4.538c2.547,0,4.533-1.99,4.533-4.538S414.543,1037.483,411.996,1037.483z
			 M425.407,1037.483c-2.548,0-4.74,1.985-4.74,4.533s2.192,4.538,4.74,4.538s4.522-1.99,4.522-4.538
			S427.955,1037.483,425.407,1037.483z M438.818,1037.483c-2.549,0-4.74,1.985-4.74,4.533s2.191,4.538,4.74,4.538
			c2.537,0,4.522-1.99,4.522-4.538S441.355,1037.483,438.818,1037.483z M452.219,1037.483c-2.548,0-4.73,1.985-4.73,4.533
			s2.183,4.538,4.73,4.538c2.549,0,4.533-1.99,4.533-4.538S454.768,1037.483,452.219,1037.483z M63.152,1050.692
			c-2.543,0-4.73,2.188-4.73,4.735c0,2.548,2.187,4.533,4.73,4.533c2.548,0,4.538-1.985,4.538-4.533
			C67.689,1052.879,65.7,1050.692,63.152,1050.692z M76.562,1050.692c-2.548,0-4.73,2.188-4.73,4.735
			c0,2.548,2.182,4.533,4.73,4.533c2.548,0,4.538-1.985,4.538-4.533C81.101,1052.879,79.111,1050.692,76.562,1050.692z
			 M116.791,1050.692c-2.548,0-4.73,2.188-4.73,4.735c0,2.548,2.182,4.533,4.73,4.533c2.548,0,4.538-1.985,4.538-4.533
			C121.329,1052.879,119.339,1050.692,116.791,1050.692z M237.475,1050.692c-2.548,0-4.538,2.188-4.538,4.735
			c0,2.548,1.989,4.533,4.538,4.533s4.533-1.985,4.533-4.533C242.008,1052.879,240.023,1050.692,237.475,1050.692z
			 M250.886,1050.692c-2.548,0-4.538,2.188-4.538,4.735c0,2.548,1.99,4.533,4.538,4.533c2.543,0,4.533-1.985,4.533-4.533
			C255.419,1052.879,253.429,1050.692,250.886,1050.692z M264.292,1050.692c-2.548,0-4.533,2.188-4.533,4.735
			c0,2.548,1.985,4.533,4.533,4.533c2.548,0,4.735-1.985,4.735-4.533C269.027,1052.879,266.84,1050.692,264.292,1050.692z
			 M277.703,1050.692c-2.548,0-4.538,2.188-4.538,4.735c0,2.548,1.99,4.533,4.538,4.533c2.553,0,4.726-1.985,4.726-4.533
			C282.429,1052.879,280.256,1050.692,277.703,1050.692z M291.109,1050.692c-2.538,0-4.533,2.188-4.533,4.735
			c0,2.548,1.995,4.533,4.533,4.533c2.547,0,4.73-1.985,4.73-4.533C295.84,1052.879,293.656,1050.692,291.109,1050.692z
			 M304.521,1050.692c-2.548,0-4.533,2.188-4.533,4.735c0,2.548,1.985,4.533,4.533,4.533s4.729-1.985,4.729-4.533
			C309.25,1052.879,307.068,1050.692,304.521,1050.692z M317.932,1050.692c-2.549,0-4.533,2.188-4.533,4.735
			c0,2.548,1.984,4.533,4.533,4.533c2.548,0,4.73-1.985,4.73-4.533C322.662,1052.879,320.479,1050.692,317.932,1050.692z
			 M331.332,1050.692c-2.538,0-4.523,2.188-4.523,4.735c0,2.548,1.985,4.533,4.523,4.533c2.549,0,4.74-1.985,4.74-4.533
			C336.072,1052.879,333.881,1050.692,331.332,1050.692z M344.743,1050.692c-2.548,0-4.522,2.188-4.522,4.735
			c0,2.548,1.975,4.533,4.522,4.533s4.74-1.985,4.74-4.533C349.483,1052.879,347.291,1050.692,344.743,1050.692z M358.154,1050.692
			c-2.548,0-4.533,2.188-4.533,4.735c0,2.548,1.985,4.533,4.533,4.533s4.74-1.985,4.74-4.533
			C362.895,1052.879,360.702,1050.692,358.154,1050.692z M371.565,1050.692c-2.548,0-4.533,2.188-4.533,4.735
			c0,2.548,1.985,4.533,4.533,4.533s4.74-1.985,4.74-4.533C376.306,1052.879,374.113,1050.692,371.565,1050.692z M384.977,1050.692
			c-2.548,0-4.533,2.188-4.533,4.735c0,2.548,1.985,4.533,4.533,4.533c2.547,0,4.73-1.985,4.73-4.533
			C389.707,1052.879,387.523,1050.692,384.977,1050.692z M398.585,1050.692c-2.548,0-4.74,2.188-4.74,4.735
			c0,2.548,2.192,4.533,4.74,4.533s4.532-1.985,4.532-4.533C403.117,1052.879,401.133,1050.692,398.585,1050.692z M411.996,1050.692
			c-2.548,0-4.74,2.188-4.74,4.735c0,2.548,2.192,4.533,4.74,4.533c2.547,0,4.533-1.985,4.533-4.533
			C416.529,1052.879,414.543,1050.692,411.996,1050.692z M425.407,1050.692c-2.548,0-4.74,2.188-4.74,4.735
			c0,2.548,2.192,4.533,4.74,4.533s4.522-1.985,4.522-4.533C429.93,1052.879,427.955,1050.692,425.407,1050.692z M438.818,1050.692
			c-2.549,0-4.74,2.188-4.74,4.735c0,2.548,2.191,4.533,4.74,4.533c2.537,0,4.522-1.985,4.522-4.533
			C443.341,1052.879,441.355,1050.692,438.818,1050.692z M452.219,1050.692c-2.548,0-4.73,2.188-4.73,4.735
			c0,2.548,2.183,4.533,4.73,4.533c2.549,0,4.533-1.985,4.533-4.533C456.752,1052.879,454.768,1050.692,452.219,1050.692z
			 M63.152,1064.102c-2.543,0-4.73,1.99-4.73,4.538c0,2.544,2.187,4.73,4.73,4.73c2.548,0,4.538-2.187,4.538-4.73
			C67.689,1066.093,65.7,1064.102,63.152,1064.102z M76.562,1064.102c-2.548,0-4.73,1.99-4.73,4.538c0,2.544,2.182,4.73,4.73,4.73
			c2.548,0,4.538-2.187,4.538-4.73C81.101,1066.093,79.111,1064.102,76.562,1064.102z M224.064,1064.102
			c-2.548,0-4.534,1.99-4.534,4.538c0,2.544,1.985,4.73,4.534,4.73c2.548,0,4.538-2.187,4.538-4.73
			C228.602,1066.093,226.612,1064.102,224.064,1064.102z M237.475,1064.102c-2.548,0-4.538,1.99-4.538,4.538
			c0,2.544,1.989,4.73,4.538,4.73s4.533-2.187,4.533-4.73C242.008,1066.093,240.023,1064.102,237.475,1064.102z M250.886,1064.102
			c-2.548,0-4.538,1.99-4.538,4.538c0,2.544,1.99,4.73,4.538,4.73c2.543,0,4.533-2.187,4.533-4.73
			C255.419,1066.093,253.429,1064.102,250.886,1064.102z M264.292,1064.102c-2.548,0-4.533,1.99-4.533,4.538
			c0,2.544,1.985,4.73,4.533,4.73c2.548,0,4.735-2.187,4.735-4.73C269.027,1066.093,266.84,1064.102,264.292,1064.102z
			 M277.703,1064.102c-2.548,0-4.538,1.99-4.538,4.538c0,2.544,1.99,4.73,4.538,4.73c2.553,0,4.726-2.187,4.726-4.73
			C282.429,1066.093,280.256,1064.102,277.703,1064.102z M291.109,1064.102c-2.538,0-4.533,1.99-4.533,4.538
			c0,2.544,1.995,4.73,4.533,4.73c2.547,0,4.73-2.187,4.73-4.73C295.84,1066.093,293.656,1064.102,291.109,1064.102z
			 M304.521,1064.102c-2.548,0-4.533,1.99-4.533,4.538c0,2.544,1.985,4.73,4.533,4.73s4.729-2.187,4.729-4.73
			C309.25,1066.093,307.068,1064.102,304.521,1064.102z M331.332,1064.102c-2.538,0-4.523,1.99-4.523,4.538
			c0,2.544,1.985,4.73,4.523,4.73c2.549,0,4.74-2.187,4.74-4.73C336.072,1066.093,333.881,1064.102,331.332,1064.102z
			 M344.743,1064.102c-2.548,0-4.522,1.99-4.522,4.538c0,2.544,1.975,4.73,4.522,4.73s4.74-2.187,4.74-4.73
			C349.483,1066.093,347.291,1064.102,344.743,1064.102z M358.154,1064.102c-2.548,0-4.533,1.99-4.533,4.538
			c0,2.544,1.985,4.73,4.533,4.73s4.74-2.187,4.74-4.73C362.895,1066.093,360.702,1064.102,358.154,1064.102z M384.977,1064.102
			c-2.548,0-4.533,1.99-4.533,4.538c0,2.544,1.985,4.73,4.533,4.73c2.547,0,4.73-2.187,4.73-4.73
			C389.707,1066.093,387.523,1064.102,384.977,1064.102z M398.585,1064.102c-2.548,0-4.74,1.99-4.74,4.538
			c0,2.544,2.192,4.73,4.74,4.73s4.532-2.187,4.532-4.73C403.117,1066.093,401.133,1064.102,398.585,1064.102z M411.996,1064.102
			c-2.548,0-4.74,1.99-4.74,4.538c0,2.544,2.192,4.73,4.74,4.73c2.547,0,4.533-2.187,4.533-4.73
			C416.529,1066.093,414.543,1064.102,411.996,1064.102z M425.407,1064.102c-2.548,0-4.74,1.99-4.74,4.538
			c0,2.544,2.192,4.73,4.74,4.73s4.522-2.187,4.522-4.73C429.93,1066.093,427.955,1064.102,425.407,1064.102z M438.818,1064.102
			c-2.549,0-4.74,1.99-4.74,4.538c0,2.544,2.191,4.73,4.74,4.73c2.537,0,4.522-2.187,4.522-4.73
			C443.341,1066.093,441.355,1064.102,438.818,1064.102z M452.219,1064.102c-2.548,0-4.73,1.99-4.73,4.538
			c0,2.544,2.183,4.73,4.73,4.73c2.549,0,4.533-2.187,4.533-4.73C456.752,1066.093,454.768,1064.102,452.219,1064.102z
			 M89.974,1077.316c-2.547,0-4.735,2.183-4.735,4.73c0,2.548,2.188,4.539,4.735,4.539c2.548,0,4.533-1.99,4.533-4.539
			C94.506,1079.498,92.521,1077.316,89.974,1077.316z M224.064,1077.316c-2.548,0-4.534,2.183-4.534,4.73
			c0,2.548,1.985,4.539,4.534,4.539c2.548,0,4.538-1.99,4.538-4.539C228.602,1079.498,226.612,1077.316,224.064,1077.316z
			 M237.475,1077.316c-2.548,0-4.538,2.183-4.538,4.73c0,2.548,1.989,4.539,4.538,4.539s4.533-1.99,4.533-4.539
			C242.008,1079.498,240.023,1077.316,237.475,1077.316z M250.886,1077.316c-2.548,0-4.538,2.183-4.538,4.73
			c0,2.548,1.99,4.539,4.538,4.539c2.543,0,4.533-1.99,4.533-4.539C255.419,1079.498,253.429,1077.316,250.886,1077.316z
			 M264.292,1077.316c-2.548,0-4.533,2.183-4.533,4.73c0,2.548,1.985,4.539,4.533,4.539c2.548,0,4.735-1.99,4.735-4.539
			C269.027,1079.498,266.84,1077.316,264.292,1077.316z M277.703,1077.316c-2.548,0-4.538,2.183-4.538,4.73
			c0,2.548,1.99,4.539,4.538,4.539c2.553,0,4.726-1.99,4.726-4.539C282.429,1079.498,280.256,1077.316,277.703,1077.316z
			 M291.109,1077.316c-2.538,0-4.533,2.183-4.533,4.73c0,2.548,1.995,4.539,4.533,4.539c2.547,0,4.73-1.99,4.73-4.539
			C295.84,1079.498,293.656,1077.316,291.109,1077.316z M304.521,1077.316c-2.548,0-4.533,2.183-4.533,4.73
			c0,2.548,1.985,4.539,4.533,4.539s4.729-1.99,4.729-4.539C309.25,1079.498,307.068,1077.316,304.521,1077.316z M317.932,1077.316
			c-2.549,0-4.533,2.183-4.533,4.73c0,2.548,1.984,4.539,4.533,4.539c2.548,0,4.73-1.99,4.73-4.539
			C322.662,1079.498,320.479,1077.316,317.932,1077.316z M344.743,1077.316c-2.548,0-4.522,2.183-4.522,4.73
			c0,2.548,1.975,4.539,4.522,4.539s4.74-1.99,4.74-4.539C349.483,1079.498,347.291,1077.316,344.743,1077.316z M384.977,1077.316
			c-2.548,0-4.533,2.183-4.533,4.73c0,2.548,1.985,4.539,4.533,4.539c2.547,0,4.73-1.99,4.73-4.539
			C389.707,1079.498,387.523,1077.316,384.977,1077.316z M398.585,1077.316c-2.548,0-4.74,2.183-4.74,4.73
			c0,2.548,2.192,4.539,4.74,4.539s4.532-1.99,4.532-4.539C403.117,1079.498,401.133,1077.316,398.585,1077.316z M411.996,1077.316
			c-2.548,0-4.74,2.183-4.74,4.73c0,2.548,2.192,4.539,4.74,4.539c2.547,0,4.533-1.99,4.533-4.539
			C416.529,1079.498,414.543,1077.316,411.996,1077.316z M438.818,1077.316c-2.549,0-4.74,2.183-4.74,4.73
			c0,2.548,2.191,4.539,4.74,4.539c2.537,0,4.522-1.99,4.522-4.539C443.341,1079.498,441.355,1077.316,438.818,1077.316z
			 M452.219,1077.316c-2.548,0-4.73,2.183-4.73,4.73c0,2.548,2.183,4.539,4.73,4.539c2.549,0,4.533-1.99,4.533-4.539
			C456.752,1079.498,454.768,1077.316,452.219,1077.316z M103.38,1090.722c-2.543,0-4.73,1.99-4.73,4.539
			c0,2.548,2.188,4.73,4.73,4.73c2.548,0,4.538-2.183,4.538-4.73C107.918,1092.712,105.928,1090.722,103.38,1090.722z
			 M116.791,1090.722c-2.548,0-4.73,1.99-4.73,4.539c0,2.548,2.182,4.73,4.73,4.73c2.548,0,4.538-2.183,4.538-4.73
			C121.329,1092.712,119.339,1090.722,116.791,1090.722z M130.202,1090.722c-2.548,0-4.735,1.99-4.735,4.539
			c0,2.548,2.187,4.73,4.735,4.73c2.543,0,4.533-2.183,4.533-4.73C134.734,1092.712,132.745,1090.722,130.202,1090.722z
			 M143.608,1090.722c-2.543,0-4.73,1.99-4.73,4.539c0,2.548,2.187,4.73,4.73,4.73c2.548,0,4.538-2.183,4.538-4.73
			C148.146,1092.712,146.156,1090.722,143.608,1090.722z M237.475,1090.722c-2.548,0-4.538,1.99-4.538,4.539
			c0,2.548,1.989,4.73,4.538,4.73s4.533-2.183,4.533-4.73C242.008,1092.712,240.023,1090.722,237.475,1090.722z M250.886,1090.722
			c-2.548,0-4.538,1.99-4.538,4.539c0,2.548,1.99,4.73,4.538,4.73c2.543,0,4.533-2.183,4.533-4.73
			C255.419,1092.712,253.429,1090.722,250.886,1090.722z M264.292,1090.722c-2.548,0-4.533,1.99-4.533,4.539
			c0,2.548,1.985,4.73,4.533,4.73c2.548,0,4.735-2.183,4.735-4.73C269.027,1092.712,266.84,1090.722,264.292,1090.722z
			 M277.703,1090.722c-2.548,0-4.538,1.99-4.538,4.539c0,2.548,1.99,4.73,4.538,4.73c2.553,0,4.726-2.183,4.726-4.73
			C282.429,1092.712,280.256,1090.722,277.703,1090.722z M291.109,1090.722c-2.538,0-4.533,1.99-4.533,4.539
			c0,2.548,1.995,4.73,4.533,4.73c2.547,0,4.73-2.183,4.73-4.73C295.84,1092.712,293.656,1090.722,291.109,1090.722z
			 M304.521,1090.722c-2.548,0-4.533,1.99-4.533,4.539c0,2.548,1.985,4.73,4.533,4.73s4.729-2.183,4.729-4.73
			C309.25,1092.712,307.068,1090.722,304.521,1090.722z M317.932,1090.722c-2.549,0-4.533,1.99-4.533,4.539
			c0,2.548,1.984,4.73,4.533,4.73c2.548,0,4.73-2.183,4.73-4.73C322.662,1092.712,320.479,1090.722,317.932,1090.722z
			 M331.332,1090.722c-2.538,0-4.523,1.99-4.523,4.539c0,2.548,1.985,4.73,4.523,4.73c2.549,0,4.74-2.183,4.74-4.73
			C336.072,1092.712,333.881,1090.722,331.332,1090.722z M398.585,1090.722c-2.548,0-4.74,1.99-4.74,4.539
			c0,2.548,2.192,4.73,4.74,4.73s4.532-2.183,4.532-4.73C403.117,1092.712,401.133,1090.722,398.585,1090.722z M438.818,1090.722
			c-2.549,0-4.74,1.99-4.74,4.539c0,2.548,2.191,4.73,4.74,4.73c2.537,0,4.522-2.183,4.522-4.73
			C443.341,1092.712,441.355,1090.722,438.818,1090.722z M116.791,1104.134c-2.548,0-4.73,1.989-4.73,4.532
			c0,2.548,2.182,4.538,4.73,4.538c2.548,0,4.538-1.99,4.538-4.538C121.329,1106.123,119.339,1104.134,116.791,1104.134z
			 M130.202,1104.134c-2.548,0-4.735,1.989-4.735,4.532c0,2.548,2.187,4.538,4.735,4.538c2.543,0,4.533-1.99,4.533-4.538
			C134.734,1106.123,132.745,1104.134,130.202,1104.134z M143.608,1104.134c-2.543,0-4.73,1.989-4.73,4.532
			c0,2.548,2.187,4.538,4.73,4.538c2.548,0,4.538-1.99,4.538-4.538C148.146,1106.123,146.156,1104.134,143.608,1104.134z
			 M157.019,1104.134c-2.548,0-4.73,1.989-4.73,4.532c0,2.548,2.182,4.538,4.73,4.538c2.548,0,4.533-1.99,4.533-4.538
			C161.552,1106.123,159.567,1104.134,157.019,1104.134z M277.703,1104.134c-2.548,0-4.538,1.989-4.538,4.532
			c0,2.548,1.99,4.538,4.538,4.538c2.553,0,4.726-1.99,4.726-4.538C282.429,1106.123,280.256,1104.134,277.703,1104.134z
			 M291.109,1104.134c-2.538,0-4.533,1.989-4.533,4.532c0,2.548,1.995,4.538,4.533,4.538c2.547,0,4.73-1.99,4.73-4.538
			C295.84,1106.123,293.656,1104.134,291.109,1104.134z M304.521,1104.134c-2.548,0-4.533,1.989-4.533,4.532
			c0,2.548,1.985,4.538,4.533,4.538s4.729-1.99,4.729-4.538C309.25,1106.123,307.068,1104.134,304.521,1104.134z M317.932,1104.134
			c-2.549,0-4.533,1.989-4.533,4.532c0,2.548,1.984,4.538,4.533,4.538c2.548,0,4.73-1.99,4.73-4.538
			C322.662,1106.123,320.479,1104.134,317.932,1104.134z M331.332,1104.134c-2.538,0-4.523,1.989-4.523,4.532
			c0,2.548,1.985,4.538,4.523,4.538c2.549,0,4.74-1.99,4.74-4.538C336.072,1106.123,333.881,1104.134,331.332,1104.134z
			 M438.818,1104.134c-2.549,0-4.74,1.989-4.74,4.532c0,2.548,2.191,4.538,4.74,4.538c2.537,0,4.522-1.99,4.522-4.538
			C443.341,1106.123,441.355,1104.134,438.818,1104.134z M103.38,1117.347c-2.543,0-4.73,2.184-4.73,4.73s2.188,4.537,4.73,4.537
			c2.548,0,4.538-1.99,4.538-4.537S105.928,1117.347,103.38,1117.347z M116.791,1117.347c-2.548,0-4.73,2.184-4.73,4.73
			s2.182,4.537,4.73,4.537c2.548,0,4.538-1.99,4.538-4.537S119.339,1117.347,116.791,1117.347z M130.202,1117.347
			c-2.548,0-4.735,2.184-4.735,4.73s2.187,4.537,4.735,4.537c2.543,0,4.533-1.99,4.533-4.537S132.745,1117.347,130.202,1117.347z
			 M143.608,1117.347c-2.543,0-4.73,2.184-4.73,4.73s2.187,4.537,4.73,4.537c2.548,0,4.538-1.99,4.538-4.537
			S146.156,1117.347,143.608,1117.347z M157.019,1117.347c-2.548,0-4.73,2.184-4.73,4.73s2.182,4.537,4.73,4.537
			c2.548,0,4.533-1.99,4.533-4.537S159.567,1117.347,157.019,1117.347z M170.43,1117.347c-2.548,0-4.735,2.184-4.735,4.73
			s2.187,4.537,4.735,4.537c2.543,0,4.533-1.99,4.533-4.537S172.973,1117.347,170.43,1117.347z M183.836,1117.347
			c-2.543,0-4.533,2.184-4.533,4.73s1.99,4.537,4.533,4.537c2.548,0,4.538-1.99,4.538-4.537S186.384,1117.347,183.836,1117.347z
			 M277.703,1117.347c-2.548,0-4.538,2.184-4.538,4.73s1.99,4.537,4.538,4.537c2.553,0,4.726-1.99,4.726-4.537
			S280.256,1117.347,277.703,1117.347z M291.109,1117.347c-2.538,0-4.533,2.184-4.533,4.73s1.995,4.537,4.533,4.537
			c2.547,0,4.73-1.99,4.73-4.537S293.656,1117.347,291.109,1117.347z M304.521,1117.347c-2.548,0-4.533,2.184-4.533,4.73
			s1.985,4.537,4.533,4.537s4.729-1.99,4.729-4.537S307.068,1117.347,304.521,1117.347z M317.932,1117.347
			c-2.549,0-4.533,2.184-4.533,4.73s1.984,4.537,4.533,4.537c2.548,0,4.73-1.99,4.73-4.537S320.479,1117.347,317.932,1117.347z
			 M452.219,1117.347c-2.548,0-4.73,2.184-4.73,4.73s2.183,4.537,4.73,4.537c2.549,0,4.533-1.99,4.533-4.537
			S454.768,1117.347,452.219,1117.347z M492.441,1117.347c-2.547,0-4.721,2.184-4.721,4.73s2.174,4.537,4.721,4.537
			c2.549,0,4.543-1.99,4.543-4.537S494.99,1117.347,492.441,1117.347z M116.791,1130.753c-2.548,0-4.73,1.99-4.73,4.537
			c0,2.549,2.182,4.73,4.73,4.73c2.548,0,4.538-2.182,4.538-4.73C121.329,1132.743,119.339,1130.753,116.791,1130.753z
			 M130.202,1130.753c-2.548,0-4.735,1.99-4.735,4.537c0,2.549,2.187,4.73,4.735,4.73c2.543,0,4.533-2.182,4.533-4.73
			C134.734,1132.743,132.745,1130.753,130.202,1130.753z M143.608,1130.753c-2.543,0-4.73,1.99-4.73,4.537
			c0,2.549,2.187,4.73,4.73,4.73c2.548,0,4.538-2.182,4.538-4.73C148.146,1132.743,146.156,1130.753,143.608,1130.753z
			 M157.019,1130.753c-2.548,0-4.73,1.99-4.73,4.537c0,2.549,2.182,4.73,4.73,4.73c2.548,0,4.533-2.182,4.533-4.73
			C161.552,1132.743,159.567,1130.753,157.019,1130.753z M170.43,1130.753c-2.548,0-4.735,1.99-4.735,4.537
			c0,2.549,2.187,4.73,4.735,4.73c2.543,0,4.533-2.182,4.533-4.73C174.963,1132.743,172.973,1130.753,170.43,1130.753z
			 M183.836,1130.753c-2.543,0-4.533,1.99-4.533,4.537c0,2.549,1.99,4.73,4.533,4.73c2.548,0,4.538-2.182,4.538-4.73
			C188.374,1132.743,186.384,1130.753,183.836,1130.753z M277.703,1130.753c-2.548,0-4.538,1.99-4.538,4.537
			c0,2.549,1.99,4.73,4.538,4.73c2.553,0,4.726-2.182,4.726-4.73C282.429,1132.743,280.256,1130.753,277.703,1130.753z
			 M291.109,1130.753c-2.538,0-4.533,1.99-4.533,4.537c0,2.549,1.995,4.73,4.533,4.73c2.547,0,4.73-2.182,4.73-4.73
			C295.84,1132.743,293.656,1130.753,291.109,1130.753z M304.521,1130.753c-2.548,0-4.533,1.99-4.533,4.537
			c0,2.549,1.985,4.73,4.533,4.73s4.729-2.182,4.729-4.73C309.25,1132.743,307.068,1130.753,304.521,1130.753z M317.932,1130.753
			c-2.549,0-4.533,1.99-4.533,4.537c0,2.549,1.984,4.73,4.533,4.73c2.548,0,4.73-2.182,4.73-4.73
			C322.662,1132.743,320.479,1130.753,317.932,1130.753z M465.63,1130.753c-2.548,0-4.73,1.99-4.73,4.537
			c0,2.549,2.183,4.73,4.73,4.73s4.532-2.182,4.532-4.73C470.162,1132.743,468.178,1130.753,465.63,1130.753z M130.202,1143.962
			c-2.548,0-4.735,2.191-4.735,4.74c0,2.547,2.187,4.532,4.735,4.532c2.543,0,4.533-1.985,4.533-4.532
			C134.734,1146.153,132.745,1143.962,130.202,1143.962z M143.608,1143.962c-2.543,0-4.73,2.191-4.73,4.74
			c0,2.547,2.187,4.532,4.73,4.532c2.548,0,4.538-1.985,4.538-4.532C148.146,1146.153,146.156,1143.962,143.608,1143.962z
			 M157.019,1143.962c-2.548,0-4.73,2.191-4.73,4.74c0,2.547,2.182,4.532,4.73,4.532c2.548,0,4.533-1.985,4.533-4.532
			C161.552,1146.153,159.567,1143.962,157.019,1143.962z M170.43,1143.962c-2.548,0-4.735,2.191-4.735,4.74
			c0,2.547,2.187,4.532,4.735,4.532c2.543,0,4.533-1.985,4.533-4.532C174.963,1146.153,172.973,1143.962,170.43,1143.962z
			 M183.836,1143.962c-2.543,0-4.533,2.191-4.533,4.74c0,2.547,1.99,4.532,4.533,4.532c2.548,0,4.538-1.985,4.538-4.532
			C188.374,1146.153,186.384,1143.962,183.836,1143.962z M277.703,1143.962c-2.548,0-4.538,2.191-4.538,4.74
			c0,2.547,1.99,4.532,4.538,4.532c2.553,0,4.726-1.985,4.726-4.532C282.429,1146.153,280.256,1143.962,277.703,1143.962z
			 M291.109,1143.962c-2.538,0-4.533,2.191-4.533,4.74c0,2.547,1.995,4.532,4.533,4.532c2.547,0,4.73-1.985,4.73-4.532
			C295.84,1146.153,293.656,1143.962,291.109,1143.962z M304.521,1143.962c-2.548,0-4.533,2.191-4.533,4.74
			c0,2.547,1.985,4.532,4.533,4.532s4.729-1.985,4.729-4.532C309.25,1146.153,307.068,1143.962,304.521,1143.962z M317.932,1143.962
			c-2.549,0-4.533,2.191-4.533,4.74c0,2.547,1.984,4.532,4.533,4.532c2.548,0,4.73-1.985,4.73-4.532
			C322.662,1146.153,320.479,1143.962,317.932,1143.962z M344.743,1143.962c-2.548,0-4.522,2.191-4.522,4.74
			c0,2.547,1.975,4.532,4.522,4.532s4.74-1.985,4.74-4.532C349.483,1146.153,347.291,1143.962,344.743,1143.962z M438.818,1143.962
			c-2.549,0-4.74,2.191-4.74,4.74c0,2.547,2.191,4.532,4.74,4.532c2.537,0,4.522-1.985,4.522-4.532
			C443.341,1146.153,441.355,1143.962,438.818,1143.962z M452.219,1143.962c-2.548,0-4.73,2.191-4.73,4.74
			c0,2.547,2.183,4.532,4.73,4.532c2.549,0,4.533-1.985,4.533-4.532C456.752,1146.153,454.768,1143.962,452.219,1143.962z
			 M465.63,1143.962c-2.548,0-4.73,2.191-4.73,4.74c0,2.547,2.183,4.532,4.73,4.532s4.532-1.985,4.532-4.532
			C470.162,1146.153,468.178,1143.962,465.63,1143.962z M479.041,1143.962c-2.548,0-4.73,2.191-4.73,4.74
			c0,2.547,2.183,4.532,4.73,4.532c2.538,0,4.533-1.985,4.533-4.532C483.574,1146.153,481.579,1143.962,479.041,1143.962z
			 M492.441,1143.962c-2.547,0-4.721,2.191-4.721,4.74c0,2.547,2.174,4.532,4.721,4.532c2.549,0,4.543-1.985,4.543-4.532
			C496.984,1146.153,494.99,1143.962,492.441,1143.962z M130.202,1157.372c-2.548,0-4.735,1.995-4.735,4.543s2.187,4.73,4.735,4.73
			c2.543,0,4.533-2.183,4.533-4.73S132.745,1157.372,130.202,1157.372z M143.608,1157.372c-2.543,0-4.73,1.995-4.73,4.543
			s2.187,4.73,4.73,4.73c2.548,0,4.538-2.183,4.538-4.73S146.156,1157.372,143.608,1157.372z M157.019,1157.372
			c-2.548,0-4.73,1.995-4.73,4.543s2.182,4.73,4.73,4.73c2.548,0,4.533-2.183,4.533-4.73S159.567,1157.372,157.019,1157.372z
			 M170.43,1157.372c-2.548,0-4.735,1.995-4.735,4.543s2.187,4.73,4.735,4.73c2.543,0,4.533-2.183,4.533-4.73
			S172.973,1157.372,170.43,1157.372z M291.109,1157.372c-2.538,0-4.533,1.995-4.533,4.543s1.995,4.73,4.533,4.73
			c2.547,0,4.73-2.183,4.73-4.73S293.656,1157.372,291.109,1157.372z M304.521,1157.372c-2.548,0-4.533,1.995-4.533,4.543
			s1.985,4.73,4.533,4.73s4.729-2.183,4.729-4.73S307.068,1157.372,304.521,1157.372z M331.332,1157.372
			c-2.538,0-4.523,1.995-4.523,4.543s1.985,4.73,4.523,4.73c2.549,0,4.74-2.183,4.74-4.73S333.881,1157.372,331.332,1157.372z
			 M438.818,1157.372c-2.549,0-4.74,1.995-4.74,4.543s2.191,4.73,4.74,4.73c2.537,0,4.522-2.183,4.522-4.73
			S441.355,1157.372,438.818,1157.372z M452.219,1157.372c-2.548,0-4.73,1.995-4.73,4.543s2.183,4.73,4.73,4.73
			c2.549,0,4.533-2.183,4.533-4.73S454.768,1157.372,452.219,1157.372z M465.63,1157.372c-2.548,0-4.73,1.995-4.73,4.543
			s2.183,4.73,4.73,4.73s4.532-2.183,4.532-4.73S468.178,1157.372,465.63,1157.372z M479.041,1157.372
			c-2.548,0-4.73,1.995-4.73,4.543s2.183,4.73,4.73,4.73c2.538,0,4.533-2.183,4.533-4.73S481.579,1157.372,479.041,1157.372z
			 M492.441,1157.372c-2.547,0-4.721,1.995-4.721,4.543s2.174,4.73,4.721,4.73c2.549,0,4.543-2.183,4.543-4.73
			S494.99,1157.372,492.441,1157.372z M130.202,1170.784c-2.548,0-4.735,1.994-4.735,4.543c0,2.547,2.187,4.521,4.735,4.521
			c2.543,0,4.533-1.975,4.533-4.521C134.734,1172.778,132.745,1170.784,130.202,1170.784z M143.608,1170.784
			c-2.543,0-4.73,1.994-4.73,4.543c0,2.547,2.187,4.521,4.73,4.521c2.548,0,4.538-1.975,4.538-4.521
			C148.146,1172.778,146.156,1170.784,143.608,1170.784z M157.019,1170.784c-2.548,0-4.73,1.994-4.73,4.543
			c0,2.547,2.182,4.521,4.73,4.521c2.548,0,4.533-1.975,4.533-4.521C161.552,1172.778,159.567,1170.784,157.019,1170.784z
			 M291.109,1170.784c-2.538,0-4.533,1.994-4.533,4.543c0,2.547,1.995,4.521,4.533,4.521c2.547,0,4.73-1.975,4.73-4.521
			C295.84,1172.778,293.656,1170.784,291.109,1170.784z M304.521,1170.784c-2.548,0-4.533,1.994-4.533,4.543
			c0,2.547,1.985,4.521,4.533,4.521s4.729-1.975,4.729-4.521C309.25,1172.778,307.068,1170.784,304.521,1170.784z M438.818,1170.784
			c-2.549,0-4.74,1.994-4.74,4.543c0,2.547,2.191,4.521,4.74,4.521c2.537,0,4.522-1.975,4.522-4.521
			C443.341,1172.778,441.355,1170.784,438.818,1170.784z M452.219,1170.784c-2.548,0-4.73,1.994-4.73,4.543
			c0,2.547,2.183,4.521,4.73,4.521c2.549,0,4.533-1.975,4.533-4.521C456.752,1172.778,454.768,1170.784,452.219,1170.784z
			 M465.63,1170.784c-2.548,0-4.73,1.994-4.73,4.543c0,2.547,2.183,4.521,4.73,4.521s4.532-1.975,4.532-4.521
			C470.162,1172.778,468.178,1170.784,465.63,1170.784z M479.041,1170.784c-2.548,0-4.73,1.994-4.73,4.543
			c0,2.547,2.183,4.521,4.73,4.521c2.538,0,4.533-1.975,4.533-4.521C483.574,1172.778,481.579,1170.784,479.041,1170.784z
			 M492.441,1170.784c-2.547,0-4.721,1.994-4.721,4.543c0,2.547,2.174,4.521,4.721,4.521c2.549,0,4.543-1.975,4.543-4.521
			C496.984,1172.778,494.99,1170.784,492.441,1170.784z M130.202,1183.997c-2.548,0-4.735,2.191-4.735,4.73
			c0,2.547,2.187,4.533,4.735,4.533c2.543,0,4.533-1.986,4.533-4.533C134.734,1186.188,132.745,1183.997,130.202,1183.997z
			 M143.608,1183.997c-2.543,0-4.73,2.191-4.73,4.73c0,2.547,2.187,4.533,4.73,4.533c2.548,0,4.538-1.986,4.538-4.533
			C148.146,1186.188,146.156,1183.997,143.608,1183.997z M492.441,1183.997c-2.547,0-4.721,2.191-4.721,4.73
			c0,2.547,2.174,4.533,4.721,4.533c2.549,0,4.543-1.986,4.543-4.533C496.984,1186.188,494.99,1183.997,492.441,1183.997z
			 M143.608,1197.408c-2.543,0-4.73,1.985-4.73,4.532c0,2.549,2.187,4.73,4.73,4.73c2.548,0,4.538-2.182,4.538-4.73
			C148.146,1199.393,146.156,1197.408,143.608,1197.408z"/>
	</g>
	<circle fill="#121615" cx="358.237" cy="116.379" r="4.665"/>
	<circle fill="#121615" cx="331.307" cy="89.599" r="4.665"/>
	<circle fill="#121615" cx="250.87" cy="49.587" r="4.665"/>
	<circle fill="#121615" cx="411.948" cy="89.599" r="4.665"/>
	<circle fill="#121615" cx="465.646" cy="76.135" r="4.665"/>
</g>
<g>
	<g opacity="0.4">
		<image overflow="visible" width="348" height="136" xlink:href="2F5826E1FDAF73BD.png"  transform="matrix(1 0 0 1 97 92)">
		</image>
	</g>
	<rect x="133.937" y="128.946" fill="#3EA8F4" width="274.735" height="62.569"/>
	<g>
		<path fill="#FFFFFF" d="M213.402,161.007v4.098l-2.657-0.017v-11.044l2.657,0.017h4.466v2.289h-4.466v2.4h3.906v2.257H213.402z"/>
		<path fill="#FFFFFF" d="M222.089,165.104h-2.641v-11.044h2.641V165.104z"/>
		<path fill="#FFFFFF" d="M226.793,158.158v6.946h-2.561v-11.044h2.753l4.546,6.723v-6.723h2.561v11.044h-2.625L226.793,158.158z"/>
		<path fill="#FFFFFF" d="M236.232,154.061h3.89c3.297,0,5.618,2.32,5.618,5.521c0,3.186-2.321,5.522-5.618,5.522h-3.89V154.061z
			 M238.874,156.301v6.562h1.185c1.745,0,2.945-1.36,2.945-3.281c0-1.92-1.201-3.281-2.945-3.281H238.874z"/>
		<path fill="#FFFFFF" d="M255.643,153.9c3.394,0,5.698,2.305,5.698,5.682s-2.305,5.683-5.698,5.683
			c-3.393,0-5.682-2.306-5.682-5.683S252.25,153.9,255.643,153.9z M255.643,162.959c1.761,0,2.961-1.359,2.961-3.377
			c0-2.017-1.201-3.377-2.961-3.377s-2.945,1.36-2.945,3.377C252.698,161.6,253.882,162.959,255.643,162.959z"/>
		<path fill="#FFFFFF" d="M272.316,160.543c0,2.785-1.681,4.722-4.738,4.722c-3.058,0-4.722-1.921-4.722-4.722v-6.482h2.641v6.354
			c0,1.553,0.705,2.529,2.081,2.529s2.097-0.977,2.097-2.529v-6.354h2.641V160.543z"/>
		<path fill="#FFFFFF" d="M279.435,156.396v8.708h-2.657v-8.708h-3.137v-2.336h8.916v2.336H279.435z"/>
		<path fill="#FFFFFF" d="M289.562,158.094v7.011h-2.417v-11.044h3.313l2.802,7.314l2.769-7.314h3.233v11.044h-2.465v-6.963
			l-2.674,6.963h-1.84L289.562,158.094z"/>
		<path fill="#FFFFFF" d="M306.522,153.9c3.394,0,5.698,2.305,5.698,5.682s-2.305,5.683-5.698,5.683s-5.683-2.306-5.683-5.683
			S303.129,153.9,306.522,153.9z M306.522,162.959c1.761,0,2.962-1.359,2.962-3.377c0-2.017-1.201-3.377-2.962-3.377
			s-2.944,1.36-2.944,3.377C303.578,161.6,304.762,162.959,306.522,162.959z"/>
		<path fill="#FFFFFF" d="M317.434,161.247h-1.008v3.857h-2.625v-11.044h4.161c2.401,0,4.21,1.072,4.21,3.585
			c0,1.665-0.801,2.705-2.033,3.218l2.529,4.241h-3.025L317.434,161.247z M316.426,156.301v2.705h1.457
			c0.943,0,1.615-0.448,1.615-1.36c0-0.913-0.672-1.345-1.615-1.345H316.426z"/>
		<path fill="#FFFFFF" d="M324.137,154.061h7.459v2.305h-4.818v2.08h4.258v2.241h-4.258v2.097h4.962v2.321h-7.603V154.061z"/>
	</g>
</g>
</svg>
