<?xml version="1.0" encoding="utf-8"?>
<!-- Generator: Adobe Illustrator 18.1.1, SVG Export Plug-In . SVG Version: 6.00 Build 0)  -->
<svg version="1.1" id="Layer_1" xmlns="http://www.w3.org/2000/svg" xmlns:xlink="http://www.w3.org/1999/xlink" x="0px" y="0px"
	 viewBox="0 0 612 792" enable-background="new 0 0 612 792" xml:space="preserve">
<g>
	<path fill="none" stroke="#56554B" stroke-width="19" stroke-linecap="round" d="M239.9,201.8c0,0-88,0-88,88V515c0,0,0,88,88,88
		h26c0,0,88,0,88-88V289.8c0,0,0-88-88-88L239.9,201.8L239.9,201.8z"/>
</g>
<line fill="none" stroke="#56554B" stroke-width="19" stroke-linecap="round" x1="355.3" y1="403.7" x2="437.3" y2="498.1"/>
<line fill="none" stroke="#56554B" stroke-width="19" stroke-linecap="round" x1="355.3" y1="277.7" x2="448.3" y2="277.7"/>
<line fill="none" stroke="#56554B" stroke-width="19" stroke-linecap="round" x1="327.2" y1="219" x2="384.1" y2="138.9"/>
<g>
	<line fill="none" stroke="#56554B" stroke-width="19" stroke-linecap="round" x1="221.4" y1="201.9" x2="187.3" y2="112.7"/>
	<line fill="none" stroke="#56554B" stroke-width="19" stroke-linecap="round" x1="151.8" y1="271.5" x2="54.9" y2="250.7"/>
	<line fill="none" stroke="#56554B" stroke-width="19" stroke-linecap="round" x1="152.6" y1="525.1" x2="54.9" y2="537.2"/>
</g>
<line fill="none" stroke="#56554B" stroke-width="19" stroke-linecap="round" x1="181.4" y1="589" x2="181.4" y2="696"/>
<g>
	<path fill="#20201E" d="M414.3,524.4v2.1h-5v5.1h6.7v2.1h-8.9v-15.2h8.7v2.1h-6.5v3.9L414.3,524.4L414.3,524.4z"/>
	<path fill="#20201E" d="M417.2,528.6l7.8-10.2h1.5v9.5h2.4v2.1h-2.4v3.7h-2.1v-3.7h-7.2V528.6z M424.4,527.9v-5.1l-4,5.1H424.4z"/>
	<path fill="#20201E" d="M430.2,522.6v-2.2l3.5-2.1h1.5v15.2h-2.2v-12.4L430.2,522.6z"/>
	<path fill="#20201E" d="M439,522.6v-2.2l3.5-2.1h1.5v15.2h-2.2v-12.4L439,522.6z"/>
</g>
<g>
	<path fill="#20201E" d="M409.2,544.2v11.1h-2.2v-15.2h1.5l9.2,11.1v-11.1h2.2v15.2h-1.5L409.2,544.2z"/>
	<path fill="#20201E" d="M431.2,554.5c-0.8,0.8-2,1.2-3.2,1.2c-0.9,0-1.9-0.3-2.6-0.7c-1.6-0.9-2.6-2.6-2.6-4.6s1.1-3.7,2.7-4.6
		c0.7-0.4,1.6-0.7,2.5-0.7c1.2,0,2.3,0.4,3.2,1.2v-0.9h2v10.2h-2L431.2,554.5L431.2,554.5z M431.1,548.4c-0.6-0.8-1.7-1.5-3-1.5
		c-2,0-3.3,1.6-3.3,3.4c0,1.9,1.4,3.4,3.4,3.4c1.1,0,2.1-0.5,2.8-1.5L431.1,548.4L431.1,548.4z"/>
	<path fill="#20201E" d="M438.9,545.2v1c0.4-0.5,1.6-1.2,3-1.2c1.5,0,2.8,0.7,3.6,1.7c0.9-0.9,2.1-1.7,3.8-1.7
		c1.5,0,2.8,0.7,3.6,1.7c0.6,0.8,0.9,1.8,0.9,3.5v5.2h-2.1v-5.5c0-1.1-0.2-1.6-0.6-2.1c-0.5-0.6-1.2-0.9-1.9-0.9
		c-1.5,0-2.5,0.8-3.2,1.5c0.1,0.5,0.2,1.1,0.2,1.8v5.2h-2.1v-5.5c0-1.1-0.2-1.6-0.6-2.1c-0.5-0.6-1.2-0.9-2-0.9
		c-1.3,0-2.3,0.8-2.9,1.5v7h-2.1v-10.2L438.9,545.2L438.9,545.2z"/>
	<path fill="#20201E" d="M458.1,553.9c-0.6-0.8-0.9-1.8-0.9-3.5v-5.2h2.1v5.5c0,1.1,0.2,1.6,0.6,2.1c0.5,0.6,1.2,0.9,2,0.9
		c1.3,0,2.3-0.8,2.9-1.5v-7h2.1v10.2h-2v-0.9c-0.5,0.4-1.6,1.2-3,1.2C460.3,555.7,459,555,458.1,553.9z"/>
	<path fill="#20201E" d="M476,547c-0.2-0.1-0.5-0.1-0.8-0.1c-1.1,0-2.2,0.8-2.8,1.7v6.8h-2.1v-10.2h2v1.2c0.5-0.7,1.6-1.4,3.1-1.4
		c0.2,0,0.6,0,0.8,0.1L476,547z"/>
</g>
<g>
	<path fill="#20201E" d="M409.2,575.1h6.7v2.1h-8.9V562h2.2C409.2,562,409.2,575.1,409.2,575.1z"/>
	<path fill="#20201E" d="M418.7,575.7c-0.6-0.8-0.9-1.8-0.9-3.5v-5.2h2.1v5.5c0,1.1,0.2,1.6,0.6,2.1c0.5,0.6,1.2,0.9,2,0.9
		c1.3,0,2.3-0.8,2.9-1.5v-7h2.1v10.2h-2v-0.9c-0.5,0.4-1.6,1.2-3,1.2C420.9,577.3,419.6,576.7,418.7,575.7z"/>
	<path fill="#20201E" d="M434.8,573.3l-2.8,3.8h-2.5l3.8-5.4l-3.5-4.8h2.5l2.4,3.4l2.4-3.4h2.5l-3.5,4.8l3.8,5.4h-2.5L434.8,573.3z"
		/>
	<path fill="#20201E" d="M442.9,572.5c0.1,1.7,1.5,3.1,3.4,3.1c1.5,0,2.4-0.8,3-1.4l1.4,1.3c-0.8,1-2.3,1.9-4.3,1.9
		c-3,0-5.3-2.3-5.3-5.3c0-3.1,2.1-5.3,5-5.3c2.9,0,4.9,2.3,4.9,5.3c0,0.1,0,0.2,0,0.4L442.9,572.5L442.9,572.5z M443.1,570.7h5.5
		c-0.3-1.3-1.5-2.3-2.7-2.3C444.6,568.5,443.4,569.4,443.1,570.7z"/>
	<path fill="#20201E" d="M455.6,566.9v1c0.4-0.5,1.6-1.2,3-1.2c1.5,0,2.8,0.7,3.6,1.7c0.9-0.9,2.1-1.7,3.8-1.7
		c1.5,0,2.8,0.7,3.6,1.7c0.6,0.8,0.9,1.8,0.9,3.5v5.2h-2.1v-5.5c0-1.1-0.2-1.6-0.6-2.1c-0.5-0.6-1.2-0.9-1.9-0.9
		c-1.5,0-2.5,0.8-3.2,1.5c0.1,0.5,0.2,1.1,0.2,1.8v5.2h-2.1v-5.5c0-1.1-0.2-1.6-0.6-2.1c-0.5-0.6-1.2-0.9-2-0.9
		c-1.3,0-2.3,0.8-2.9,1.5v7h-2.1v-10.2H455.6L455.6,566.9z"/>
	<path fill="#20201E" d="M476.1,577.1h-2v-15.5h2.1v6.1c0.9-0.8,2.1-1.1,3.2-1.1c1,0,1.8,0.2,2.5,0.7c1.6,0.9,2.7,2.7,2.7,4.6
		c0,2.1-1.1,3.7-2.6,4.6c-0.7,0.4-1.7,0.7-2.6,0.7c-1.2,0-2.4-0.4-3.2-1.2L476.1,577.1L476.1,577.1z M476.2,574
		c0.7,0.9,1.8,1.5,2.8,1.5c2,0,3.4-1.6,3.4-3.4c0-1.8-1.3-3.4-3.3-3.4c-1.3,0-2.3,0.6-3,1.5L476.2,574L476.2,574z"/>
	<path fill="#20201E" d="M491.7,566.7c3.1,0,5.3,2.3,5.3,5.3c0,3.1-2.3,5.3-5.3,5.3c-3.1,0-5.3-2.3-5.3-5.3
		C486.5,569,488.8,566.7,491.7,566.7z M491.7,575.4c1.9,0,3.3-1.5,3.3-3.4s-1.3-3.4-3.3-3.4c-2,0-3.3,1.5-3.3,3.4
		C488.6,573.9,489.8,575.4,491.7,575.4z"/>
	<path fill="#20201E" d="M500.6,575.7c-0.6-0.8-0.9-1.8-0.9-3.5v-5.2h2.1v5.5c0,1.1,0.2,1.6,0.6,2.1c0.5,0.6,1.2,0.9,2,0.9
		c1.3,0,2.3-0.8,2.9-1.5v-7h2.1v10.2h-2v-0.9c-0.5,0.4-1.6,1.2-3,1.2C502.8,577.3,501.4,576.7,500.6,575.7z"/>
	<path fill="#20201E" d="M518.5,568.8c-0.2-0.1-0.5-0.1-0.8-0.1c-1.1,0-2.2,0.8-2.8,1.7v6.8h-2.1v-10.2h2v1.2
		c0.5-0.7,1.6-1.4,3.1-1.4c0.2,0,0.6,0,0.8,0.1L518.5,568.8z"/>
	<path fill="#20201E" d="M525.4,577.3c-0.9,0-1.9-0.3-2.6-0.7c-1.6-0.9-2.6-2.6-2.6-4.6s1.1-3.7,2.7-4.6c0.7-0.4,1.6-0.7,2.5-0.7
		c1.2,0,2.3,0.4,3.2,1.2V567h2v9.8c0,1.5-0.2,2.6-0.6,3.4c-0.8,1.6-2.4,2.6-4.4,2.6c-2.7,0-4.3-1.4-5-2.4l1.5-1.4
		c0.8,1,1.7,1.9,3.4,1.9c1.1,0,2-0.4,2.5-1.2c0.4-0.6,0.6-1.4,0.6-2.7v-0.6C527.7,576.9,526.6,577.3,525.4,577.3z M528.5,570.1
		c-0.6-0.8-1.7-1.5-3-1.5c-2,0-3.3,1.6-3.3,3.4c0,1.9,1.4,3.4,3.4,3.4c1.1,0,2.1-0.5,2.8-1.5L528.5,570.1L528.5,570.1z"/>
</g>
<g>
	<path fill="#20201E" d="M215.9,652.2v2.1h-5v5.1h6.7v2.1h-8.9v-15.2h8.7v2.1h-6.5v3.9L215.9,652.2L215.9,652.2z"/>
	<path fill="#20201E" d="M219.6,650.5v-2.2l3.5-2.1h1.5v15.2h-2.2v-12.5L219.6,650.5z"/>
	<path fill="#20201E" d="M234.1,656.4c-0.3,0-0.6,0-0.8,0c-2.8,0-5-2.3-5-5.1c0-3,2.3-5.2,5.3-5.2s5.2,2.3,5.2,5.1
		c0,0.7-0.1,1.5-0.5,2.4c-0.3,0.7-0.8,1.6-1.5,2.5l-3.6,5.5h-2.5L234.1,656.4z M236.7,651.3c0-1.8-1.4-3.2-3.2-3.2
		c-1.9,0-3.2,1.4-3.2,3.2c0,1.7,1.3,3.2,3.1,3.2c1,0,1.9-0.3,2.4-0.8C236.4,652.8,236.7,652.1,236.7,651.3z"/>
</g>
<g>
	<path fill="#20201E" d="M216.9,680h-1.5l-4.4-7v10.2h-2.2V668h1.5l5.9,9.3l5.9-9.3h1.5v15.2h-2.2v-10.2L216.9,680z"/>
	<path fill="#20201E" d="M231.8,672.8c3.1,0,5.3,2.3,5.3,5.3s-2.3,5.3-5.3,5.3c-3.1,0-5.3-2.3-5.3-5.3
		C226.5,675.1,228.8,672.8,231.8,672.8z M231.8,681.5c1.9,0,3.3-1.5,3.3-3.4c0-1.9-1.3-3.4-3.3-3.4c-2,0-3.3,1.5-3.3,3.4
		C228.6,680,230,681.5,231.8,681.5z"/>
	<path fill="#20201E" d="M241.9,674c0.6-0.5,1.6-1.2,3.1-1.2s2.9,0.7,3.7,1.8c0.7,0.8,1,1.9,1,3.6v5h-2.1v-5.1
		c0-1.3-0.2-1.9-0.6-2.4c-0.5-0.6-1.3-1-2.1-1c-1.4,0-2.4,0.7-3,1.5v7h-2.1V673h2C241.9,673,241.9,674,241.9,674z"/>
	<path fill="#20201E" d="M253.3,680.5c1,0.8,2,1.1,3.1,1.1c0.9,0,1.8-0.5,1.8-1.3c0-1.2-1.7-1.3-3.2-1.8c-1.3-0.4-2.4-1.2-2.4-2.7
		c0-2.2,2-3.2,3.7-3.2c1.5,0,2.6,0.5,3.4,1.1l-1.1,1.5c-0.6-0.5-1.4-0.8-2.2-0.8c-1,0-1.9,0.5-1.9,1.3c0,0.7,0.8,0.9,1.9,1.2
		c1.6,0.4,3.7,1.1,3.7,3.3c0,2-1.8,3.2-3.8,3.2c-1.7,0-3-0.5-4.1-1.4L253.3,680.5z"/>
</g>
<g>
	<path fill="#20201E" d="M210.8,698.3v6.7h-2.2v-15.2h5.7c1.5,0,2.5,0.4,3.2,1c0.9,0.8,1.5,2,1.5,3.3c0,1.3-0.6,2.5-1.5,3.3
		c-0.8,0.6-1.7,1-3.2,1L210.8,698.3L210.8,698.3z M214.4,696.2c1.1,0,1.6-0.3,2-0.7c0.4-0.4,0.6-0.9,0.6-1.5c0-0.6-0.2-1.1-0.6-1.5
		c-0.4-0.4-1-0.7-2-0.7h-3.4v4.3H214.4z"/>
	<path fill="#20201E" d="M228.6,704.1c-0.8,0.8-2,1.2-3.2,1.2c-0.9,0-1.9-0.3-2.6-0.7c-1.6-0.9-2.6-2.6-2.6-4.6s1.1-3.7,2.7-4.6
		c0.7-0.4,1.6-0.7,2.5-0.7c1.2,0,2.3,0.4,3.2,1.2v-0.9h2v10.2h-2C228.6,705.2,228.6,704.1,228.6,704.1z M228.5,698
		c-0.6-0.8-1.7-1.5-3-1.5c-2,0-3.3,1.6-3.3,3.4c0,1.9,1.4,3.4,3.4,3.4c1.1,0,2.1-0.5,2.8-1.5L228.5,698L228.5,698z"/>
	<path fill="#20201E" d="M239.9,696.6c-0.2-0.1-0.5-0.1-0.8-0.1c-1.1,0-2.2,0.8-2.8,1.7v6.8h-2.2v-10.2h2v1.2
		c0.5-0.7,1.6-1.4,3.1-1.4c0.2,0,0.6,0,0.8,0.1L239.9,696.6z"/>
	<path fill="#20201E" d="M243.8,689.8c0.8,0,1.4,0.6,1.4,1.4s-0.6,1.4-1.4,1.4s-1.4-0.6-1.4-1.4S243,689.8,243.8,689.8z
		 M242.7,694.8h2.1v10.2h-2.1V694.8z"/>
	<path fill="#20201E" d="M248.6,702.3c1,0.8,2,1.1,3.1,1.1c0.9,0,1.8-0.5,1.8-1.3c0-1.2-1.7-1.3-3.2-1.8c-1.3-0.4-2.4-1.2-2.4-2.7
		c0-2.2,2-3.2,3.7-3.2c1.5,0,2.6,0.5,3.4,1.1l-1.1,1.5c-0.6-0.5-1.4-0.8-2.2-0.8c-1,0-1.9,0.5-1.9,1.3c0,0.7,0.8,0.9,1.9,1.2
		c1.6,0.4,3.7,1.1,3.7,3.3c0,2-1.8,3.2-3.8,3.2c-1.7,0-3-0.5-4.1-1.4L248.6,702.3z"/>
</g>
<g>
	<g>
		<path fill="#20201E" d="M50.6,421.6h-6.4l-1.6,3.9h-2.3l6.3-15.2h1.5l6.3,15.2h-2.3L50.6,421.6z M45,419.6h4.7l-2.4-5.6L45,419.6z
			"/>
		<path fill="#20201E" d="M55.6,420.9c0-1.8,1-3.3,2.4-3.9c-0.9-0.6-1.5-1.7-1.5-2.9c0-2.2,1.9-4,4.2-4c2.4,0,4.2,1.8,4.2,4
			c0,1.1-0.6,2.3-1.5,2.9c1.4,0.8,2.4,2.3,2.4,3.9c0,2.7-2.3,4.8-5.2,4.8C57.9,425.8,55.6,423.6,55.6,420.9z M57.8,420.9
			c0,1.6,1.3,2.8,3.1,2.8c1.8,0,3.1-1.2,3.1-2.8c0-1.6-1.3-2.8-3.1-2.8C59.1,418.2,57.8,419.4,57.8,420.9z M58.8,414.1
			c0,1.1,0.9,2,2.1,2c1.2,0,2.1-0.9,2.1-2c0-1.1-0.9-2-2.1-2S58.8,413,58.8,414.1z"/>
	</g>
	<g>
		<path fill="#20201E" d="M40.6,432.1H51v2.1h-4.1v13.1h-2.2v-13.1h-4.1L40.6,432.1L40.6,432.1z"/>
		<path fill="#20201E" d="M56,436.8c3.1,0,5.3,2.3,5.3,5.3s-2.3,5.3-5.3,5.3c-3.1,0-5.3-2.3-5.3-5.3C50.7,439.1,53,436.8,56,436.8z
			 M56,445.6c1.9,0,3.3-1.5,3.3-3.4c0-1.9-1.3-3.4-3.3-3.4s-3.3,1.5-3.3,3.4C52.8,444,54.2,445.6,56,445.6z"/>
		<path fill="#20201E" d="M64.8,445.8c-0.6-0.8-0.9-1.8-0.9-3.5V437H66v5.5c0,1.1,0.2,1.6,0.6,2.1c0.5,0.6,1.2,0.9,2,0.9
			c1.3,0,2.3-0.8,2.9-1.5v-7h2.1v10.2h-2v-0.9c-0.5,0.4-1.6,1.2-3,1.2C67,447.4,65.7,446.9,64.8,445.8z"/>
		<path fill="#20201E" d="M82.7,438.9c-0.2-0.1-0.5-0.1-0.8-0.1c-1.1,0-2.2,0.8-2.8,1.7v6.8h-2.1V437h2v1.2c0.5-0.7,1.6-1.4,3.1-1.4
			c0.2,0,0.6,0,0.8,0.1L82.7,438.9z"/>
		<path fill="#20201E" d="M87.6,438c0.6-0.5,1.6-1.2,3.1-1.2c1.5,0,2.9,0.7,3.7,1.8c0.7,0.8,1,1.9,1,3.6v5h-2.1v-5.1
			c0-1.3-0.2-1.9-0.6-2.4c-0.5-0.6-1.3-1-2.1-1c-1.4,0-2.4,0.7-3,1.5v7h-2.1V437h2L87.6,438L87.6,438z"/>
		<path fill="#20201E" d="M106.3,446.4c-0.8,0.8-2,1.2-3.2,1.2c-0.9,0-1.9-0.3-2.6-0.7c-1.6-0.9-2.6-2.6-2.6-4.6
			c0-2.1,1.1-3.7,2.7-4.6c0.7-0.4,1.6-0.7,2.5-0.7c1.2,0,2.3,0.4,3.2,1.2v-0.9h2v10.1h-2L106.3,446.4L106.3,446.4z M106.3,440.2
			c-0.6-0.8-1.7-1.5-3-1.5c-2,0-3.3,1.6-3.3,3.4c0,1.9,1.4,3.4,3.4,3.4c1.1,0,2.1-0.5,2.8-1.5L106.3,440.2L106.3,440.2z"/>
		<path fill="#20201E" d="M113,432.1c0.8,0,1.4,0.6,1.4,1.4s-0.6,1.4-1.4,1.4c-0.8,0-1.4-0.6-1.4-1.4S112.3,432.1,113,432.1z
			 M112,437.1h2.1v10.2H112V437.1z"/>
	</g>
	<g>
		<path fill="#20201E" d="M44.3,467H51v2.1h-8.9v-15.2h2.2V467z"/>
		<path fill="#20201E" d="M54.4,453.8c0.8,0,1.4,0.6,1.4,1.4c0,0.8-0.6,1.4-1.4,1.4c-0.8,0-1.4-0.6-1.4-1.4
			C53,454.3,53.6,453.8,54.4,453.8z M53.4,458.8h2.1V469h-2.1V458.8z"/>
		<path fill="#20201E" d="M59.1,453.6h2.1V469h-2.1V453.6z"/>
		<path fill="#20201E" d="M64.9,453.6H67V469h-2.1V453.6z"/>
		<path fill="#20201E" d="M71.8,464.3c0.1,1.7,1.5,3.1,3.4,3.1c1.5,0,2.4-0.8,3-1.4l1.4,1.3c-0.8,1-2.3,1.9-4.3,1.9
			c-3,0-5.3-2.3-5.3-5.3c0-3.1,2.1-5.3,5-5.3c2.9,0,4.9,2.3,4.9,5.3c0,0.1,0,0.2,0,0.4L71.8,464.3L71.8,464.3z M71.9,462.6h5.5
			c-0.3-1.3-1.5-2.3-2.7-2.3C73.5,460.4,72.3,461.2,71.9,462.6z"/>
	</g>
	<g>
		<path fill="#20201E" d="M44.3,484v6.7h-2.2v-15.2h5.7c1.5,0,2.5,0.4,3.2,1c0.9,0.8,1.5,2,1.5,3.3s-0.6,2.5-1.5,3.3
			c-0.8,0.6-1.7,1-3.2,1L44.3,484L44.3,484z M47.8,481.9c1.1,0,1.6-0.3,2-0.7c0.4-0.4,0.6-0.9,0.6-1.5s-0.2-1.1-0.6-1.5
			c-0.4-0.4-1-0.7-2-0.7h-3.4v4.3L47.8,481.9L47.8,481.9z"/>
		<path fill="#20201E" d="M61.9,489.8c-0.8,0.8-2,1.2-3.2,1.2c-0.9,0-1.9-0.3-2.6-0.7c-1.6-0.9-2.6-2.6-2.6-4.6
			c0-2.1,1.1-3.7,2.7-4.6c0.7-0.4,1.6-0.7,2.5-0.7c1.2,0,2.3,0.4,3.2,1.2v-0.9h2v10.2h-2L61.9,489.8L61.9,489.8z M61.9,483.7
			c-0.6-0.8-1.7-1.5-3-1.5c-2,0-3.3,1.6-3.3,3.4c0,1.9,1.4,3.4,3.4,3.4c1.1,0,2.1-0.5,2.8-1.5L61.9,483.7L61.9,483.7z"/>
		<path fill="#20201E" d="M73.3,482.3c-0.2-0.1-0.5-0.1-0.8-0.1c-1.1,0-2.2,0.8-2.8,1.7v6.8h-2.1v-10.2h2v1.2
			c0.5-0.7,1.6-1.4,3.1-1.4c0.2,0,0.6,0,0.8,0.1L73.3,482.3z"/>
		<path fill="#20201E" d="M77.1,475.5c0.8,0,1.4,0.6,1.4,1.4s-0.6,1.4-1.4,1.4c-0.8,0-1.4-0.6-1.4-1.4S76.3,475.5,77.1,475.5z
			 M76.1,480.6h2.1v10.2h-2.1V480.6z"/>
		<path fill="#20201E" d="M81.9,488c1,0.8,2,1.1,3.1,1.1c0.9,0,1.8-0.5,1.8-1.3c0-1.2-1.7-1.3-3.2-1.8c-1.3-0.4-2.4-1.2-2.4-2.7
			c0-2.2,2-3.2,3.7-3.2c1.5,0,2.6,0.5,3.4,1.1l-1.1,1.5c-0.6-0.5-1.4-0.8-2.2-0.8c-1,0-1.9,0.5-1.9,1.3c0,0.7,0.8,0.9,1.9,1.2
			c1.6,0.4,3.7,1.1,3.7,3.3c0,2-1.8,3.2-3.8,3.2c-1.7,0-3-0.5-4.1-1.4L81.9,488z"/>
	</g>
	<g>
		<path fill="#20201E" d="M49.3,137.4v2.1h-5v5.1H51v2.1h-8.9v-15.2h8.7v2.1h-6.5v3.9L49.3,137.4L49.3,137.4z"/>
		<path fill="#20201E" d="M52.3,141.5l7.8-10.2h1.5v9.5h2.4v2.1h-2.4v3.7h-2.2v-3.7h-7.2L52.3,141.5L52.3,141.5z M59.5,141v-5.1
			l-4,5.1H59.5z"/>
		<path fill="#20201E" d="M70.6,131.2c3.8,0,5.2,3.5,5.2,7.8s-1.4,7.8-5.2,7.8c-3.8,0-5.2-3.5-5.2-7.8S66.9,131.2,70.6,131.2z
			 M70.6,133.3c-2.4,0-3.1,2.8-3.1,5.7c0,3,0.7,5.7,3.1,5.7c2.4,0,3.1-2.8,3.1-5.7C73.7,136,73,133.3,70.6,133.3z"/>
	</g>
	<g>
		<path fill="#20201E" d="M54.7,165.8c-1.3,1.7-3.5,2.9-5.9,2.9c-4.5,0-7.9-3.4-7.9-7.8s3.4-7.8,7.7-7.8c2.2,0,4.2,0.9,5.5,2.4
			l-1.5,1.5c-0.9-1-2.5-1.7-4.1-1.7c-3.2,0-5.5,2.5-5.5,5.7c0,3.4,2.5,5.7,5.7,5.7c1.6,0,3-0.6,3.7-1.4v-3.9h-4.3v-2.1h6.5
			L54.7,165.8L54.7,165.8z"/>
		<path fill="#20201E" d="M60.1,159.1c0.6-0.5,1.6-1.1,3-1.1c1.5,0,2.9,0.7,3.7,1.8c0.7,0.8,1,1.9,1,3.6v5h-2.1v-5.1
			c0-1.3-0.2-1.9-0.6-2.4c-0.5-0.6-1.3-1-2.1-1c-1.4,0-2.4,0.7-3,1.5v7H58V153h2.1L60.1,159.1L60.1,159.1z"/>
		<path fill="#20201E" d="M72.4,163.7c0.1,1.7,1.5,3.1,3.4,3.1c1.5,0,2.4-0.8,3-1.4l1.4,1.3c-0.8,1-2.3,1.9-4.3,1.9
			c-3,0-5.3-2.3-5.3-5.3c0-3.1,2.1-5.3,5-5.3c2.9,0,4.9,2.3,4.9,5.3c0,0.1,0,0.2,0,0.4L72.4,163.7L72.4,163.7z M72.6,162h5.5
			c-0.3-1.3-1.5-2.3-2.7-2.3C74.2,159.8,73,160.7,72.6,162z"/>
		<path fill="#20201E" d="M85.1,159.2c0.6-0.5,1.6-1.2,3.1-1.2c1.5,0,2.9,0.7,3.7,1.8c0.7,0.8,1,1.9,1,3.6v5h-2.1v-5.1
			c0-1.3-0.2-1.9-0.6-2.4c-0.5-0.6-1.3-1-2.1-1c-1.4,0-2.4,0.7-3,1.5v7h-2.1v-10.2h2L85.1,159.2L85.1,159.2z"/>
		<path fill="#20201E" d="M102.6,168.4c-0.4,0.1-1,0.2-1.6,0.2c-1.3,0-2.3-0.5-2.9-1.2c-0.6-0.7-0.8-1.6-0.8-2.8v-4.6h-2.6v-1.9h2.6
			v-2.9h2.1v2.9h3.3v1.9h-3.3v4.8c0,0.6,0,1,0.3,1.3c0.3,0.4,0.9,0.6,1.4,0.6c0.3,0,0.8,0,1.1-0.1L102.6,168.4z"/>
	</g>
	<g>
		<path fill="#20201E" d="M42.1,190.1V175h5.2c1.5,0,2.4,0.4,3.2,1.1c0.8,0.7,1.3,1.8,1.3,2.9c0,1.1-0.5,2.1-1.2,2.8
			c1.5,0.7,2.5,2.3,2.5,4c0,1.4-0.7,2.7-1.7,3.5c-0.8,0.7-1.8,1-3.4,1L42.1,190.1L42.1,190.1z M47,181c1.2,0,1.8-0.2,2.1-0.6
			c0.3-0.4,0.5-0.8,0.5-1.3s-0.2-1-0.5-1.3c-0.4-0.4-0.9-0.6-2.1-0.6h-2.6v3.9H47V181z M47.6,188.1c1.4,0,2.1-0.3,2.5-0.8
			s0.7-1.1,0.7-1.8c0-0.7-0.3-1.3-0.7-1.8c-0.5-0.5-1.1-0.8-2.5-0.8h-3.4v5.1L47.6,188.1L47.6,188.1z"/>
		<path fill="#20201E" d="M61.2,181.8c-0.2-0.1-0.5-0.1-0.8-0.1c-1.1,0-2.2,0.8-2.8,1.7v6.8h-2.1v-10.2h2v1.2
			c0.5-0.7,1.6-1.4,3.1-1.4c0.2,0,0.6,0,0.8,0.1L61.2,181.8z"/>
		<path fill="#20201E" d="M64.7,188.6c-0.6-0.8-0.9-1.8-0.9-3.5v-5.2h2.1v5.5c0,1.1,0.2,1.6,0.6,2.1c0.5,0.6,1.2,0.9,2,0.9
			c1.3,0,2.3-0.8,2.9-1.5v-7h2.1v10.2h-2v-0.9c-0.5,0.4-1.6,1.2-3,1.2C66.9,190.4,65.6,189.7,64.7,188.6z"/>
		<path fill="#20201E" d="M81.4,190.4c-0.9,0-1.9-0.3-2.6-0.7c-1.6-0.9-2.6-2.6-2.6-4.6s1.1-3.7,2.7-4.6c0.7-0.4,1.6-0.7,2.5-0.7
			c1.2,0,2.3,0.4,3.2,1.2v-0.9h2v9.8c0,1.5-0.2,2.6-0.6,3.4c-0.8,1.6-2.4,2.6-4.4,2.6c-2.7,0-4.3-1.4-5-2.4l1.5-1.4
			c0.8,1,1.7,1.9,3.4,1.9c1.1,0,2-0.4,2.5-1.2c0.4-0.6,0.6-1.4,0.6-2.7v-0.6C83.6,190,82.5,190.4,81.4,190.4z M84.4,183.1
			c-0.6-0.8-1.7-1.5-3-1.5c-2,0-3.3,1.6-3.3,3.4c0,1.9,1.4,3.4,3.4,3.4c1.1,0,2.1-0.5,2.8-1.5L84.4,183.1L84.4,183.1z"/>
		<path fill="#20201E" d="M91.3,185.5c0.1,1.7,1.5,3.1,3.4,3.1c1.5,0,2.4-0.8,3-1.4l1.4,1.3c-0.8,1-2.3,1.9-4.3,1.9
			c-3,0-5.3-2.3-5.3-5.3s2.1-5.3,5-5.3c2.9,0,4.9,2.3,4.9,5.3c0,0.1,0,0.2,0,0.4L91.3,185.5L91.3,185.5z M91.5,183.7H97
			c-0.3-1.3-1.5-2.3-2.7-2.3C93.1,181.6,91.8,182.4,91.5,183.7z"/>
		<path fill="#20201E" d="M102.1,187.5c1,0.8,2,1.1,3.1,1.1c0.9,0,1.8-0.5,1.8-1.3c0-1.2-1.7-1.3-3.2-1.8c-1.3-0.4-2.4-1.2-2.4-2.7
			c0-2.2,2-3.2,3.7-3.2c1.5,0,2.6,0.5,3.4,1.1l-1.1,1.5c-0.6-0.5-1.4-0.8-2.2-0.8c-1,0-1.9,0.5-1.9,1.3c0,0.7,0.8,0.9,1.9,1.2
			c1.6,0.4,3.7,1.1,3.7,3.3c0,2-1.8,3.2-3.8,3.2c-1.7,0-3-0.5-4.1-1.4L102.1,187.5z"/>
	</g>
	<g>
		<path fill="#20201E" d="M48.5,196.4c4.3,0,7.6,3.4,7.6,7.8s-3.4,7.8-7.6,7.8s-7.6-3.4-7.6-7.8S44.3,196.4,48.5,196.4z M48.5,210
			c3.2,0,5.4-2.5,5.4-5.7c0-3.3-2.4-5.7-5.4-5.7c-3.1,0-5.4,2.5-5.4,5.7C43.1,207.6,45.5,210,48.5,210z"/>
		<path fill="#20201E" d="M58.9,209.1c1,0.8,2,1.1,3.1,1.1c0.9,0,1.8-0.5,1.8-1.3c0-1.2-1.7-1.3-3.2-1.8c-1.3-0.4-2.4-1.2-2.4-2.7
			c0-2.2,2-3.2,3.7-3.2c1.5,0,2.6,0.5,3.4,1.1l-1.1,1.5c-0.6-0.5-1.4-0.8-2.2-0.8c-1,0-1.9,0.5-1.9,1.3c0,0.7,0.8,0.9,1.9,1.2
			c1.6,0.4,3.7,1.1,3.7,3.3c0,2-1.8,3.2-3.8,3.2c-1.7,0-3-0.5-4.1-1.4L58.9,209.1z"/>
		<path fill="#20201E" d="M74.9,211.9c-0.4,0.1-1,0.2-1.6,0.2c-1.3,0-2.3-0.5-2.9-1.2c-0.6-0.7-0.8-1.6-0.8-2.8v-4.6h-2.6v-1.9h2.6
			v-2.9h2.1v2.9H75v1.9h-3.3v4.8c0,0.6,0,1,0.3,1.3c0.3,0.4,0.9,0.6,1.4,0.6c0.3,0,0.8,0,1.1-0.1L74.9,211.9z"/>
		<path fill="#20201E" d="M78.8,207.2c0.1,1.7,1.5,3.1,3.4,3.1c1.5,0,2.4-0.8,3-1.4l1.4,1.3c-0.8,1-2.3,1.9-4.3,1.9
			c-3,0-5.3-2.3-5.3-5.3c0-3.1,2.1-5.3,5-5.3c2.9,0,4.9,2.3,4.9,5.3c0,0.1,0,0.2,0,0.4L78.8,207.2L78.8,207.2z M79,205.5h5.5
			c-0.3-1.3-1.5-2.3-2.7-2.3C80.6,203.2,79.3,204.1,79,205.5z"/>
		<path fill="#20201E" d="M91.5,202.6c0.6-0.5,1.6-1.2,3.1-1.2c1.5,0,2.9,0.7,3.7,1.8c0.7,0.8,1,1.9,1,3.6v5h-2.1v-5.1
			c0-1.3-0.2-1.9-0.6-2.4c-0.5-0.6-1.3-1-2.1-1c-1.4,0-2.4,0.7-3,1.5v7h-2.1v-10.2h2L91.5,202.6L91.5,202.6z"/>
		<path fill="#20201E" d="M110.2,210.9c-0.8,0.8-2,1.2-3.2,1.2c-0.9,0-1.9-0.3-2.6-0.7c-1.6-0.9-2.6-2.6-2.6-4.6
			c0-2.1,1.1-3.7,2.7-4.6c0.7-0.4,1.6-0.7,2.5-0.7c1.1,0,2.3,0.4,3.2,1.1v-6.1h2.1v15.5h-2L110.2,210.9L110.2,210.9z M110.1,204.9
			c-0.6-0.8-1.7-1.5-3-1.5c-2,0-3.3,1.6-3.3,3.4c0,1.9,1.4,3.4,3.4,3.4c1.1,0,2.1-0.5,2.8-1.5L110.1,204.9L110.1,204.9z"/>
	</g>
</g>
<g>
	<path fill="#20201E" d="M414.3,308.8v2.1h-5v5.1h6.7v2.1h-8.9v-15.2h8.7v2.1h-6.5v3.9L414.3,308.8L414.3,308.8z"/>
	<path fill="#20201E" d="M417.2,312.9l7.8-10.2h1.5v9.5h2.4v2.1h-2.4v3.7h-2.1v-3.7h-7.2V312.9z M424.4,312.3v-5.1l-4,5.1H424.4z"/>
	<path fill="#20201E" d="M430.2,307v-2.2l3.5-2.1h1.5v15.2h-2.2v-12.5L430.2,307z"/>
	<path fill="#20201E" d="M439,307v-2.2l3.5-2.1h1.5v15.2h-2.2v-12.5L439,307z"/>
</g>
<g>
	<path fill="#20201E" d="M409.2,328.6v11.2h-2.2v-15.2h1.5l9.2,11.1v-11.1h2.2v15.2h-1.5L409.2,328.6z"/>
	<path fill="#20201E" d="M431.2,338.8c-0.8,0.8-2,1.2-3.2,1.2c-0.9,0-1.9-0.3-2.6-0.7c-1.6-0.9-2.6-2.6-2.6-4.6s1.1-3.7,2.7-4.6
		c0.7-0.4,1.6-0.7,2.5-0.7c1.2,0,2.3,0.4,3.2,1.2v-0.9h2v10.2h-2L431.2,338.8L431.2,338.8z M431.1,332.7c-0.6-0.8-1.7-1.5-3-1.5
		c-2,0-3.3,1.6-3.3,3.4c0,1.9,1.4,3.4,3.4,3.4c1.1,0,2.1-0.5,2.8-1.5L431.1,332.7L431.1,332.7z"/>
	<path fill="#20201E" d="M438.9,329.6v1c0.4-0.5,1.6-1.2,3-1.2c1.5,0,2.8,0.7,3.6,1.7c0.9-0.9,2.1-1.7,3.8-1.7
		c1.5,0,2.8,0.7,3.6,1.7c0.6,0.8,0.9,1.8,0.9,3.5v5.2h-2.1v-5.5c0-1.1-0.2-1.6-0.6-2.1c-0.5-0.6-1.2-0.9-1.9-0.9
		c-1.5,0-2.5,0.8-3.2,1.5c0.1,0.5,0.2,1.1,0.2,1.8v5.2h-2.1v-5.5c0-1.1-0.2-1.6-0.6-2.1c-0.5-0.6-1.2-0.9-2-0.9
		c-1.3,0-2.3,0.8-2.9,1.5v7h-2.1v-10.2L438.9,329.6L438.9,329.6z"/>
	<path fill="#20201E" d="M458.1,338.2c-0.6-0.8-0.9-1.8-0.9-3.5v-5.2h2.1v5.5c0,1.1,0.2,1.6,0.6,2.1c0.5,0.6,1.2,0.9,2,0.9
		c1.3,0,2.3-0.8,2.9-1.5v-7h2.1v10.3h-2v-1c-0.5,0.4-1.6,1.2-3,1.2C460.3,340,459,339.3,458.1,338.2z"/>
	<path fill="#20201E" d="M476,331.4c-0.2-0.1-0.5-0.1-0.8-0.1c-1.1,0-2.2,0.8-2.8,1.7v6.8h-2.1v-10.2h2v1.2c0.5-0.7,1.6-1.4,3.1-1.4
		c0.2,0,0.6,0,0.8,0.1L476,331.4z"/>
</g>
<g>
	<path fill="#20201E" d="M409.2,359.4h6.7v2.1h-8.9v-15.2h2.2C409.2,346.3,409.2,359.4,409.2,359.4z"/>
	<path fill="#20201E" d="M418.7,360c-0.6-0.8-0.9-1.8-0.9-3.5v-5.2h2.1v5.5c0,1.1,0.2,1.6,0.6,2.1c0.5,0.6,1.2,0.9,2,0.9
		c1.3,0,2.3-0.8,2.9-1.5v-7h2.1v10.2h-2v-0.9c-0.5,0.4-1.6,1.2-3,1.2C420.9,361.7,419.6,361.1,418.7,360z"/>
	<path fill="#20201E" d="M434.8,357.7l-2.8,3.8h-2.5l3.8-5.4l-3.5-4.8h2.5l2.4,3.4l2.4-3.4h2.5l-3.5,4.8l3.8,5.4h-2.5L434.8,357.7z"
		/>
	<path fill="#20201E" d="M442.9,356.9c0.1,1.7,1.5,3.1,3.4,3.1c1.5,0,2.4-0.8,3-1.4l1.4,1.3c-0.8,1-2.3,1.9-4.3,1.9
		c-3,0-5.3-2.3-5.3-5.3s2.1-5.3,5-5.3c2.9,0,4.9,2.3,4.9,5.3c0,0.1,0,0.2,0,0.4L442.9,356.9L442.9,356.9z M443.1,355.1h5.5
		c-0.3-1.3-1.5-2.3-2.7-2.3C444.6,352.9,443.4,353.8,443.1,355.1z"/>
	<path fill="#20201E" d="M455.6,351.3v1c0.4-0.5,1.6-1.2,3-1.2c1.5,0,2.8,0.7,3.6,1.7c0.9-0.9,2.1-1.7,3.8-1.7
		c1.5,0,2.8,0.7,3.6,1.7c0.6,0.8,0.9,1.8,0.9,3.5v5.2h-2.1V356c0-1.1-0.2-1.6-0.6-2.1c-0.5-0.6-1.2-0.9-1.9-0.9
		c-1.5,0-2.5,0.8-3.2,1.5c0.1,0.5,0.2,1.1,0.2,1.8v5.2h-2.1V356c0-1.1-0.2-1.6-0.6-2.1c-0.5-0.6-1.2-0.9-2-0.9
		c-1.3,0-2.3,0.8-2.9,1.5v7h-2.1v-10.2L455.6,351.3L455.6,351.3z"/>
	<path fill="#20201E" d="M476.1,361.5h-2V346h2.1v6.1c0.9-0.8,2.1-1.1,3.2-1.1c1,0,1.8,0.2,2.5,0.7c1.6,0.9,2.7,2.7,2.7,4.6
		c0,2.1-1.1,3.7-2.6,4.6c-0.7,0.4-1.7,0.7-2.6,0.7c-1.2,0-2.4-0.4-3.2-1.2L476.1,361.5L476.1,361.5z M476.2,358.4
		c0.7,0.9,1.8,1.5,2.8,1.5c2,0,3.4-1.6,3.4-3.4s-1.3-3.4-3.3-3.4c-1.3,0-2.3,0.6-3,1.5L476.2,358.4L476.2,358.4z"/>
	<path fill="#20201E" d="M491.7,351.1c3.1,0,5.3,2.3,5.3,5.3s-2.3,5.3-5.3,5.3c-3.1,0-5.3-2.3-5.3-5.3
		C486.5,353.3,488.8,351.1,491.7,351.1z M491.7,359.7c1.9,0,3.3-1.5,3.3-3.4c0-1.9-1.3-3.4-3.3-3.4c-2,0-3.3,1.5-3.3,3.4
		C488.6,358.3,489.8,359.7,491.7,359.7z"/>
	<path fill="#20201E" d="M500.6,360c-0.6-0.8-0.9-1.8-0.9-3.5v-5.2h2.1v5.5c0,1.1,0.2,1.6,0.6,2.1c0.5,0.6,1.2,0.9,2,0.9
		c1.3,0,2.3-0.8,2.9-1.5v-7h2.1v10.2h-2v-0.9c-0.5,0.4-1.6,1.2-3,1.2C502.8,361.7,501.4,361.1,500.6,360z"/>
	<path fill="#20201E" d="M518.5,353.1c-0.2-0.1-0.5-0.1-0.8-0.1c-1.1,0-2.2,0.8-2.8,1.7v6.8h-2.1v-10.2h2v1.2
		c0.5-0.7,1.6-1.4,3.1-1.4c0.2,0,0.6,0,0.8,0.1L518.5,353.1z"/>
	<path fill="#20201E" d="M525.4,361.7c-0.9,0-1.9-0.3-2.6-0.7c-1.6-0.9-2.6-2.6-2.6-4.6c0-2.1,1.1-3.7,2.7-4.6
		c0.7-0.4,1.6-0.7,2.5-0.7c1.2,0,2.3,0.4,3.2,1.2v-0.9h2v9.8c0,1.5-0.2,2.6-0.6,3.4c-0.8,1.6-2.4,2.6-4.4,2.6c-2.7,0-4.3-1.4-5-2.4
		l1.5-1.4c0.8,1,1.7,1.9,3.4,1.9c1.1,0,2-0.4,2.5-1.2c0.4-0.6,0.6-1.4,0.6-2.7v-0.6C527.7,361.3,526.6,361.7,525.4,361.7z
		 M528.5,354.5c-0.6-0.8-1.7-1.5-3-1.5c-2,0-3.3,1.6-3.3,3.4c0,1.9,1.4,3.4,3.4,3.4c1.1,0,2.1-0.5,2.8-1.5L528.5,354.5L528.5,354.5z
		"/>
</g>
<g>
	<path fill="#20201E" d="M407.1,217.6v-15.2h5.2c1.5,0,2.4,0.4,3.2,1.1c0.8,0.7,1.3,1.8,1.3,2.9s-0.5,2.1-1.2,2.8
		c1.5,0.7,2.5,2.3,2.5,4c0,1.4-0.7,2.7-1.7,3.5c-0.8,0.7-1.8,1-3.4,1L407.1,217.6L407.1,217.6z M411.9,208.5c1.2,0,1.8-0.2,2.1-0.6
		c0.3-0.4,0.5-0.8,0.5-1.3s-0.2-1-0.5-1.3c-0.4-0.4-0.9-0.6-2.1-0.6h-2.6v3.9h2.6V208.5z M412.6,215.6c1.4,0,2.1-0.3,2.5-0.8
		c0.4-0.5,0.7-1.1,0.7-1.8s-0.3-1.3-0.7-1.8c-0.5-0.5-1.1-0.8-2.5-0.8h-3.4v5.1L412.6,215.6L412.6,215.6z"/>
	<path fill="#20201E" d="M426.2,209.2c-0.2-0.1-0.5-0.1-0.8-0.1c-1.1,0-2.2,0.8-2.8,1.7v6.8h-2.1v-10.2h2v1.2
		c0.5-0.7,1.6-1.4,3.1-1.4c0.2,0,0.6,0,0.8,0.1L426.2,209.2z"/>
	<path fill="#20201E" d="M429.6,216.1c-0.6-0.8-0.9-1.8-0.9-3.5v-5.2h2.1v5.5c0,1.1,0.2,1.6,0.6,2.1c0.5,0.6,1.2,0.9,2,0.9
		c1.3,0,2.3-0.8,2.9-1.5v-7h2.1v10.2h-2v-0.9c-0.5,0.4-1.6,1.2-3,1.2C431.8,217.9,430.5,217.2,429.6,216.1z"/>
	<path fill="#20201E" d="M442,215c1,0.8,2,1.1,3.1,1.1c0.9,0,1.8-0.5,1.8-1.3c0-1.2-1.7-1.3-3.2-1.8c-1.3-0.4-2.4-1.2-2.4-2.7
		c0-2.2,2-3.2,3.7-3.2c1.5,0,2.6,0.5,3.4,1.1l-1.1,1.5c-0.6-0.5-1.4-0.8-2.2-0.8c-1,0-1.9,0.5-1.9,1.3c0,0.7,0.8,0.9,1.9,1.2
		c1.6,0.4,3.7,1.1,3.7,3.3c0,2-1.8,3.2-3.8,3.2c-1.7,0-3-0.5-4.1-1.4L442,215z"/>
	<path fill="#20201E" d="M451.9,215c1,0.8,2,1.1,3.1,1.1c0.9,0,1.8-0.5,1.8-1.3c0-1.2-1.7-1.3-3.2-1.8c-1.3-0.4-2.4-1.2-2.4-2.7
		c0-2.2,2-3.2,3.7-3.2c1.5,0,2.6,0.5,3.4,1.1l-1.1,1.5c-0.6-0.5-1.4-0.8-2.2-0.8c-1,0-1.9,0.5-1.9,1.3c0,0.7,0.8,0.9,1.9,1.2
		c1.6,0.4,3.7,1.1,3.7,3.3c0,2-1.8,3.2-3.8,3.2c-1.7,0-3-0.5-4.1-1.4L451.9,215z"/>
	<path fill="#20201E" d="M462.8,213c0.1,1.7,1.5,3.1,3.4,3.1c1.5,0,2.4-0.8,3-1.4l1.4,1.3c-0.8,1-2.3,1.9-4.3,1.9
		c-3,0-5.3-2.3-5.3-5.3c0-3.1,2.1-5.3,5-5.3c2.9,0,4.9,2.3,4.9,5.3c0,0.1,0,0.2,0,0.4L462.8,213L462.8,213z M463,211.2h5.5
		c-0.3-1.3-1.5-2.3-2.7-2.3C464.6,209,463.4,209.9,463,211.2z"/>
	<path fill="#20201E" d="M473.6,202.2h2.1v15.4h-2.1V202.2z"/>
	<path fill="#20201E" d="M479.4,215c1,0.8,2,1.1,3.1,1.1c0.9,0,1.8-0.5,1.8-1.3c0-1.2-1.7-1.3-3.2-1.8c-1.3-0.4-2.4-1.2-2.4-2.7
		c0-2.2,2-3.2,3.7-3.2c1.5,0,2.6,0.5,3.4,1.1l-1.1,1.5c-0.6-0.5-1.4-0.8-2.2-0.8c-1,0-1.9,0.5-1.9,1.3c0,0.7,0.8,0.9,1.9,1.2
		c1.6,0.4,3.7,1.1,3.7,3.3c0,2-1.8,3.2-3.8,3.2c-1.7,0-3-0.5-4.1-1.4L479.4,215z"/>
</g>
<g>
	<path fill="#20201E" d="M409.2,228.3v11.1h-2.2v-15.2h1.5l9.2,11.1v-11.1h2.2v15.2h-1.5L409.2,228.3z"/>
	<path fill="#20201E" d="M431.2,238.5c-0.8,0.8-2,1.2-3.2,1.2c-0.9,0-1.9-0.3-2.6-0.7c-1.6-0.9-2.6-2.6-2.6-4.6s1.1-3.7,2.7-4.6
		c0.7-0.4,1.6-0.7,2.5-0.7c1.2,0,2.3,0.4,3.2,1.2v-0.9h2v10.2h-2L431.2,238.5L431.2,238.5z M431.1,232.4c-0.6-0.8-1.7-1.5-3-1.5
		c-2,0-3.3,1.6-3.3,3.4c0,1.9,1.4,3.4,3.4,3.4c1.1,0,2.1-0.5,2.8-1.5L431.1,232.4L431.1,232.4z"/>
	<path fill="#20201E" d="M443,239.4c-0.4,0.1-1,0.2-1.6,0.2c-1.3,0-2.3-0.5-2.9-1.2c-0.6-0.7-0.8-1.6-0.8-2.8V231h-2.6v-1.9h2.6
		v-2.9h2.1v2.9h3.3v1.9h-3.3v4.8c0,0.6,0,1,0.3,1.3c0.3,0.4,0.9,0.6,1.4,0.6c0.3,0,0.8,0,1.1-0.1L443,239.4z"/>
	<path fill="#20201E" d="M446.9,224.2c0.8,0,1.4,0.6,1.4,1.4c0,0.8-0.6,1.4-1.4,1.4s-1.4-0.6-1.4-1.4
		C445.5,224.8,446.2,224.2,446.9,224.2z M445.9,229.2h2.1v10.2h-2.1V229.2z"/>
	<path fill="#20201E" d="M456,229c3.1,0,5.3,2.3,5.3,5.3c0,3.1-2.3,5.3-5.3,5.3c-3.1,0-5.3-2.3-5.3-5.3
		C450.8,231.2,453.1,229,456,229z M456,237.6c1.9,0,3.3-1.5,3.3-3.4c0-1.9-1.3-3.4-3.3-3.4s-3.3,1.5-3.3,3.4
		C452.9,236.2,454.2,237.6,456,237.6z"/>
	<path fill="#20201E" d="M466.2,230.1c0.6-0.5,1.6-1.2,3.1-1.2c1.5,0,2.9,0.7,3.7,1.8c0.7,0.8,1,1.9,1,3.6v5h-2.1v-5.1
		c0-1.3-0.2-1.9-0.6-2.4c-0.5-0.6-1.3-1-2.1-1c-1.4,0-2.4,0.7-3,1.5v7h-2.1v-10.2h2L466.2,230.1L466.2,230.1z"/>
	<path fill="#20201E" d="M484.9,238.5c-0.8,0.8-2,1.2-3.2,1.2c-0.9,0-1.9-0.3-2.6-0.7c-1.6-0.9-2.6-2.6-2.6-4.6s1.1-3.7,2.7-4.6
		c0.7-0.4,1.6-0.7,2.5-0.7c1.2,0,2.3,0.4,3.2,1.2v-0.9h2v10.2h-2L484.9,238.5L484.9,238.5z M484.8,232.4c-0.6-0.8-1.7-1.5-3-1.5
		c-2,0-3.3,1.6-3.3,3.4c0,1.9,1.4,3.4,3.4,3.4c1.1,0,2.1-0.5,2.8-1.5L484.8,232.4L484.8,232.4z"/>
	<path fill="#20201E" d="M490.6,223.9h2.1v15.5h-2.1V223.9z"/>
	<path fill="#20201E" d="M510.7,235.5h-6.4l-1.6,3.9h-2.3l6.3-15.2h1.5l6.3,15.2h-2.3L510.7,235.5z M505.2,233.4h4.7l-2.4-5.6
		L505.2,233.4z"/>
	<path fill="#20201E" d="M517.5,224.2c0.8,0,1.4,0.6,1.4,1.4c0,0.8-0.6,1.4-1.4,1.4s-1.4-0.6-1.4-1.4
		C516.2,224.8,516.8,224.2,517.5,224.2z M516.6,229.2h2.1v10.2h-2.1V229.2z"/>
	<path fill="#20201E" d="M527.9,231c-0.2-0.1-0.5-0.1-0.8-0.1c-1.1,0-2.2,0.8-2.8,1.7v6.8h-2.1v-10.2h2v1.2c0.5-0.7,1.6-1.4,3.1-1.4
		c0.2,0,0.6,0,0.8,0.1L527.9,231z"/>
	<path fill="#20201E" d="M532.8,244.6h-2.1v-15.5h2v0.9c0.9-0.8,2.1-1.2,3.2-1.2c1,0,1.8,0.2,2.5,0.7c1.6,0.9,2.7,2.7,2.7,4.6
		c0,2.1-1.1,3.7-2.6,4.6c-0.7,0.4-1.7,0.7-2.6,0.7c-1.2,0-2.3-0.4-3.1-1.1L532.8,244.6L532.8,244.6z M532.8,236.2
		c0.7,0.9,1.8,1.5,2.8,1.5c2,0,3.4-1.6,3.4-3.4s-1.3-3.4-3.3-3.4c-1.3,0-2.3,0.6-3,1.5L532.8,236.2L532.8,236.2z"/>
	<path fill="#20201E" d="M548.3,229c3.1,0,5.3,2.3,5.3,5.3c0,3.1-2.3,5.3-5.3,5.3c-3.1,0-5.3-2.3-5.3-5.3
		C543.1,231.2,545.3,229,548.3,229z M548.3,237.6c1.9,0,3.3-1.5,3.3-3.4c0-1.9-1.3-3.4-3.3-3.4s-3.3,1.5-3.3,3.4
		C545.1,236.2,546.4,237.6,548.3,237.6z"/>
	<path fill="#20201E" d="M562.1,231c-0.2-0.1-0.5-0.1-0.8-0.1c-1.1,0-2.2,0.8-2.8,1.7v6.8h-2.1v-10.2h2v1.2c0.5-0.7,1.6-1.4,3.1-1.4
		c0.2,0,0.6,0,0.8,0.1L562.1,231z"/>
	<path fill="#20201E" d="M571.5,239.4c-0.4,0.1-1,0.2-1.6,0.2c-1.3,0-2.3-0.5-2.9-1.2s-0.8-1.6-0.8-2.8V231h-2.6v-1.9h2.6v-2.9h2.1
		v2.9h3.3v1.9h-3.4v4.8c0,0.6,0,1,0.3,1.3c0.3,0.4,0.9,0.6,1.4,0.6c0.3,0,0.8,0,1.1-0.1L571.5,239.4z"/>
</g>
<g>
	<path fill="#20201E" d="M198.8,365.9v-15.2h5.2c1.5,0,2.4,0.4,3.2,1.1c0.8,0.7,1.3,1.8,1.3,2.9c0,1.1-0.5,2.1-1.2,2.8
		c1.5,0.7,2.5,2.3,2.5,4c0,1.4-0.7,2.7-1.7,3.5c-0.8,0.7-1.8,1-3.4,1L198.8,365.9L198.8,365.9z M203.7,356.8c1.2,0,1.8-0.2,2.1-0.6
		c0.3-0.4,0.5-0.8,0.5-1.3c0-0.5-0.2-1-0.5-1.3c-0.4-0.4-0.9-0.6-2.1-0.6h-2.6v3.9h2.6V356.8z M204.3,364c1.4,0,2.1-0.3,2.5-0.8
		c0.4-0.5,0.7-1.1,0.7-1.8c0-0.7-0.3-1.3-0.7-1.8c-0.5-0.5-1.1-0.8-2.5-0.8H201v5.1L204.3,364L204.3,364z"/>
	<path fill="#20201E" d="M217.9,357.6c-0.2-0.1-0.5-0.1-0.8-0.1c-1.1,0-2.2,0.8-2.8,1.7v6.8h-2.1v-10.2h2v1.2
		c0.5-0.7,1.6-1.4,3.1-1.4c0.2,0,0.6,0,0.8,0.1L217.9,357.6z"/>
	<path fill="#20201E" d="M221.4,364.5c-0.6-0.8-0.9-1.8-0.9-3.5v-5.2h2.1v5.5c0,1.1,0.2,1.6,0.6,2.1c0.5,0.6,1.2,0.9,2,0.9
		c1.3,0,2.3-0.8,2.9-1.5v-7h2.1v10.2h-2v-0.9c-0.5,0.4-1.6,1.2-3,1.2C223.6,366.2,222.3,365.5,221.4,364.5z"/>
	<path fill="#20201E" d="M233.8,363.3c1,0.8,2,1.1,3.1,1.1c0.9,0,1.8-0.5,1.8-1.3c0-1.2-1.7-1.3-3.2-1.8c-1.3-0.4-2.4-1.2-2.4-2.7
		c0-2.2,2-3.2,3.7-3.2c1.5,0,2.6,0.5,3.4,1.1l-1.1,1.5c-0.6-0.5-1.4-0.8-2.2-0.8c-1,0-1.9,0.5-1.9,1.3c0,0.7,0.8,0.9,1.9,1.2
		c1.6,0.4,3.7,1.1,3.7,3.3c0,2-1.8,3.2-3.8,3.2c-1.7,0-3-0.5-4.1-1.4L233.8,363.3z"/>
	<path fill="#20201E" d="M243.7,363.3c1,0.8,2,1.1,3.1,1.1c0.9,0,1.8-0.5,1.8-1.3c0-1.2-1.7-1.3-3.2-1.8c-1.3-0.4-2.4-1.2-2.4-2.7
		c0-2.2,2-3.2,3.7-3.2c1.5,0,2.6,0.5,3.4,1.1l-1.1,1.5c-0.6-0.5-1.4-0.8-2.2-0.8c-1,0-1.9,0.5-1.9,1.3c0,0.7,0.8,0.9,1.9,1.2
		c1.6,0.4,3.7,1.1,3.7,3.3c0,2-1.8,3.2-3.8,3.2c-1.7,0-3-0.5-4.1-1.4L243.7,363.3z"/>
	<path fill="#20201E" d="M254.6,361.3c0.1,1.7,1.5,3.1,3.4,3.1c1.5,0,2.4-0.8,3-1.4l1.4,1.3c-0.8,1-2.3,1.9-4.3,1.9
		c-3,0-5.3-2.3-5.3-5.3s2.1-5.3,5-5.3c2.9,0,4.9,2.3,4.9,5.3c0,0.1,0,0.2,0,0.4L254.6,361.3L254.6,361.3z M254.8,359.5h5.5
		c-0.3-1.3-1.5-2.3-2.7-2.3C256.4,357.4,255.2,358.3,254.8,359.5z"/>
	<path fill="#20201E" d="M265.3,350.6h2.1V366h-2.1V350.6z"/>
	<path fill="#20201E" d="M271.2,363.3c1,0.8,2,1.1,3.1,1.1c0.9,0,1.8-0.5,1.8-1.3c0-1.2-1.7-1.3-3.2-1.8c-1.3-0.4-2.4-1.2-2.4-2.7
		c0-2.2,2-3.2,3.7-3.2c1.5,0,2.6,0.5,3.4,1.1l-1.1,1.5c-0.6-0.5-1.4-0.8-2.2-0.8c-1,0-1.9,0.5-1.9,1.3c0,0.7,0.8,0.9,1.9,1.2
		c1.6,0.4,3.7,1.1,3.7,3.3c0,2-1.8,3.2-3.8,3.2c-1.7,0-3-0.5-4.1-1.4L271.2,363.3z"/>
</g>
<g>
	<g>
		<path fill="#20201E" d="M414.3,90.8v2.1h-5V98h6.7v2.1h-8.9V84.9h8.7v2.1h-6.5v3.9L414.3,90.8L414.3,90.8z"/>
		<path fill="#20201E" d="M417.9,89v-2.2l3.5-2.1h1.5V100h-2.2V87.5L417.9,89z"/>
		<path fill="#20201E" d="M432.5,94.9c-0.3,0-0.6,0-0.8,0c-2.8,0-5-2.3-5-5.1c0-3,2.3-5.2,5.3-5.2s5.2,2.3,5.2,5.1
			c0,0.7-0.1,1.5-0.5,2.4c-0.3,0.7-0.8,1.6-1.5,2.5l-3.6,5.5h-2.5L432.5,94.9z M435.1,89.8c0-1.8-1.4-3.2-3.2-3.2
			c-1.9,0-3.2,1.4-3.2,3.2c0,1.7,1.3,3.2,3.1,3.2c1,0,1.9-0.3,2.4-0.8C434.8,91.4,435.1,90.7,435.1,89.8z"/>
	</g>
</g>
<g>
	<path fill="#20201E" d="M415.5,117.9h-6.4l-1.6,3.9h-2.3l6.3-15.2h1.5l6.3,15.2h-2.3L415.5,117.9z M409.9,115.8h4.7l-2.4-5.6
		L409.9,115.8z"/>
	<path fill="#20201E" d="M423.2,112.6c0.6-0.5,1.6-1.2,3.1-1.2c1.5,0,2.9,0.7,3.7,1.8c0.7,0.8,1,1.9,1,3.6v5h-2.1v-5.1
		c0-1.3-0.2-1.9-0.6-2.4c-0.5-0.6-1.3-1-2.1-1c-1.4,0-2.4,0.7-3,1.5v7h-2.1v-10.2h2L423.2,112.6L423.2,112.6z"/>
	<path fill="#20201E" d="M440.8,121.8c-0.4,0.1-1,0.2-1.6,0.2c-1.3,0-2.3-0.5-2.9-1.2s-0.8-1.6-0.8-2.8v-4.6H433v-1.9h2.6v-2.9h2.1
		v2.9h3.3v1.9h-3.3v4.8c0,0.6,0,1,0.3,1.3c0.3,0.4,0.9,0.6,1.4,0.6c0.3,0,0.8,0,1.1-0.1L440.8,121.8z"/>
	<path fill="#20201E" d="M451.3,111.6l2.8,7l2.8-7h2.2l-4.1,10.2h-1.5l-2.9-7.2l-2.9,7.2h-1.5l-4-10.2h2.2l2.8,7l2.8-7H451.3z"/>
	<path fill="#20201E" d="M462.1,117.1c0.1,1.7,1.5,3.1,3.4,3.1c1.5,0,2.4-0.8,3-1.4l1.4,1.3c-0.8,1-2.3,1.9-4.3,1.9
		c-3,0-5.3-2.3-5.3-5.3c0-3.1,2.1-5.3,5-5.3c2.9,0,4.9,2.3,4.9,5.3c0,0.1,0,0.2,0,0.4L462.1,117.1L462.1,117.1z M462.2,115.3h5.5
		c-0.3-1.3-1.5-2.3-2.7-2.3C463.7,113.2,462.5,114,462.2,115.3z"/>
	<path fill="#20201E" d="M478.3,113.4c-0.2-0.1-0.5-0.1-0.8-0.1c-1.1,0-2.2,0.8-2.8,1.7v6.8h-2.1v-10.2h2v1.2
		c0.5-0.7,1.6-1.4,3.1-1.4c0.2,0,0.6,0,0.8,0.1L478.3,113.4z"/>
	<path fill="#20201E" d="M483.2,127.1h-2.1v-15.5h2v0.9c0.9-0.8,2.1-1.2,3.2-1.2c1,0,1.8,0.2,2.5,0.7c1.6,0.9,2.7,2.7,2.7,4.6
		c0,2.1-1.1,3.7-2.6,4.6c-0.7,0.4-1.7,0.7-2.6,0.7c-1.2,0-2.3-0.4-3.1-1.1L483.2,127.1L483.2,127.1z M483.2,118.6
		c0.7,0.9,1.8,1.5,2.8,1.5c2,0,3.4-1.6,3.4-3.4c0-1.8-1.3-3.4-3.3-3.4c-1.3,0-2.3,0.6-3,1.5L483.2,118.6L483.2,118.6z"/>
</g>
<g>
	<path fill="#20201E" d="M415.5,139.6h-6.4l-1.6,3.9h-2.3l6.3-15.2h1.5l6.3,15.2h-2.3L415.5,139.6z M409.9,137.5h4.7l-2.4-5.6
		L409.9,137.5z"/>
	<path fill="#20201E" d="M423.2,133.3v1c0.4-0.5,1.6-1.2,3-1.2c1.5,0,2.8,0.7,3.6,1.7c0.9-0.9,2.1-1.7,3.8-1.7
		c1.5,0,2.8,0.7,3.6,1.7c0.6,0.8,0.9,1.8,0.9,3.5v5.2h-2V138c0-1.1-0.2-1.6-0.6-2.1c-0.5-0.6-1.2-0.9-1.9-0.9
		c-1.5,0-2.5,0.8-3.2,1.5c0.1,0.5,0.2,1.1,0.2,1.8v5.2h-2.1V138c0-1.1-0.2-1.6-0.6-2.1c-0.5-0.6-1.2-0.9-2-0.9
		c-1.3,0-2.3,0.8-2.9,1.5v7h-2.1v-10.2C421.3,133.3,423.2,133.3,423.2,133.3z"/>
	<path fill="#20201E" d="M441.9,140.9c1,0.8,2,1.1,3.1,1.1c0.9,0,1.8-0.5,1.8-1.3c0-1.2-1.7-1.3-3.2-1.8c-1.3-0.4-2.4-1.2-2.4-2.7
		c0-2.2,2-3.2,3.7-3.2c1.5,0,2.6,0.5,3.4,1.1l-1.1,1.5c-0.6-0.5-1.4-0.8-2.2-0.8c-1,0-1.9,0.5-1.9,1.3c0,0.7,0.8,0.9,1.9,1.2
		c1.6,0.4,3.7,1.1,3.7,3.3c0,2-1.8,3.2-3.8,3.2c-1.7,0-3-0.5-4.1-1.4L441.9,140.9z"/>
	<path fill="#20201E" d="M458,143.5c-0.4,0.1-1,0.2-1.6,0.2c-1.3,0-2.3-0.5-2.9-1.2c-0.6-0.7-0.8-1.6-0.8-2.8v-4.6H450v-1.9h2.6
		v-2.9h2.1v2.9h3.3v1.9h-3.3v4.8c0,0.6,0,1,0.3,1.3c0.3,0.4,0.9,0.6,1.4,0.6c0.3,0,0.8,0,1.1-0.1L458,143.5z"/>
	<path fill="#20201E" d="M461.9,138.9c0.1,1.7,1.5,3.1,3.4,3.1c1.5,0,2.4-0.8,3-1.4l1.4,1.3c-0.8,1-2.3,1.9-4.3,1.9
		c-3,0-5.3-2.3-5.3-5.3s2.1-5.3,5-5.3c2.9,0,4.9,2.3,4.9,5.3c0,0.1,0,0.2,0,0.4L461.9,138.9L461.9,138.9z M462,137.1h5.5
		c-0.3-1.3-1.5-2.3-2.7-2.3C463.5,134.9,462.4,135.8,462,137.1z"/>
	<path fill="#20201E" d="M478.1,135.1c-0.2-0.1-0.5-0.1-0.8-0.1c-1.1,0-2.2,0.8-2.8,1.7v6.8h-2.1v-10.2h2v1.2
		c0.5-0.7,1.6-1.4,3.1-1.4c0.2,0,0.6,0,0.8,0.1L478.1,135.1z"/>
	<path fill="#20201E" d="M488.2,142.6c-0.8,0.8-2,1.2-3.2,1.2c-0.9,0-1.9-0.3-2.6-0.7c-1.6-0.9-2.6-2.6-2.6-4.6s1.1-3.7,2.7-4.6
		c0.7-0.4,1.6-0.7,2.5-0.7c1.1,0,2.2,0.4,3.2,1.1v-6.1h2.1v15.5h-2L488.2,142.6L488.2,142.6z M488.1,136.5c-0.6-0.8-1.7-1.5-3-1.5
		c-2,0-3.3,1.6-3.3,3.4c0,1.9,1.4,3.4,3.4,3.4c1.1,0,2.1-0.5,2.8-1.5L488.1,136.5L488.1,136.5z"/>
	<path fill="#20201E" d="M501.3,142.6c-0.8,0.8-2,1.2-3.2,1.2c-0.9,0-1.9-0.3-2.6-0.7c-1.6-0.9-2.6-2.6-2.6-4.6s1.1-3.7,2.7-4.6
		c0.7-0.4,1.6-0.7,2.5-0.7c1.2,0,2.3,0.4,3.2,1.2v-0.9h2v10.2h-2V142.6L501.3,142.6z M501.3,136.5c-0.6-0.8-1.7-1.5-3-1.5
		c-2,0-3.3,1.6-3.3,3.4c0,1.9,1.4,3.4,3.4,3.4c1.1,0,2.1-0.5,2.8-1.5L501.3,136.5L501.3,136.5z"/>
	<path fill="#20201E" d="M509,133.3v1c0.4-0.5,1.6-1.2,3-1.2c1.5,0,2.8,0.7,3.6,1.7c0.9-0.9,2.1-1.7,3.8-1.7c1.5,0,2.8,0.7,3.6,1.7
		c0.6,0.8,0.9,1.8,0.9,3.5v5.2h-2V138c0-1.1-0.2-1.6-0.6-2.1c-0.5-0.6-1.2-0.9-1.9-0.9c-1.5,0-2.5,0.8-3.2,1.5
		c0.1,0.5,0.2,1.1,0.2,1.8v5.2h-2.1V138c0-1.1-0.2-1.6-0.6-2.1c-0.5-0.6-1.2-0.9-2-0.9c-1.3,0-2.3,0.8-2.9,1.5v7H507v-10.2
		C507,133.3,509,133.3,509,133.3z"/>
</g>
<g>
	<g>
		<path fill="#20201E" d="M223.3,96.1h-6.4l-1.6,3.9H213l6.3-15.2h1.5l6.3,15.2h-2.3L223.3,96.1z M217.7,94h4.7l-2.4-5.6L217.7,94z"
			/>
		<path fill="#20201E" d="M228.4,89v-2.2l3.5-2.1h1.5V100h-2.2V87.5L228.4,89z"/>
		<path fill="#20201E" d="M236.9,88c0.8-2.9,3.2-3.4,4.4-3.4c2.7,0,4.6,2.1,4.6,4.6c0,1.8-0.9,3.2-2,4.4l-3.8,4.3h5.8v2.1h-9.2v-1.4
			l5.2-5.9c1.2-1.4,1.8-2.2,1.8-3.5c0-1.3-1-2.6-2.4-2.6s-2.2,0.9-2.6,2.1L236.9,88z"/>
	</g>
</g>
<g>
	<path fill="#20201E" d="M223.3,117.9h-6.4l-1.6,3.9H213l6.3-15.2h1.5l6.3,15.2h-2.3L223.3,117.9z M217.7,115.8h4.7l-2.4-5.6
		L217.7,115.8z"/>
	<path fill="#20201E" d="M231.1,112.6c0.6-0.5,1.6-1.2,3.1-1.2s2.9,0.7,3.7,1.8c0.7,0.8,1,1.9,1,3.6v5h-2.1v-5.1
		c0-1.3-0.2-1.9-0.6-2.4c-0.5-0.6-1.3-1-2.1-1c-1.4,0-2.4,0.7-3,1.5v7h-2.1v-10.2h2C231.1,111.6,231.1,112.6,231.1,112.6z"/>
	<path fill="#20201E" d="M248.6,121.8c-0.4,0.1-1,0.2-1.6,0.2c-1.3,0-2.3-0.5-2.9-1.2c-0.6-0.7-0.8-1.6-0.8-2.8v-4.6h-2.6v-1.9h2.6
		v-2.9h2.1v2.9h3.3v1.9h-3.3v4.8c0,0.6,0,1,0.3,1.3c0.3,0.4,0.9,0.6,1.4,0.6c0.3,0,0.8,0,1.1-0.1L248.6,121.8z"/>
	<path fill="#20201E" d="M259.1,111.6l2.8,7l2.8-7h2.2l-4.1,10.2h-1.5l-2.9-7.2l-2.9,7.2H254l-4-10.2h2.2l2.8,7l2.8-7H259.1z"/>
	<path fill="#20201E" d="M269.9,117.1c0.1,1.7,1.5,3.1,3.4,3.1c1.5,0,2.4-0.8,3-1.4l1.4,1.3c-0.8,1-2.3,1.9-4.3,1.9
		c-3,0-5.3-2.3-5.3-5.3c0-3.1,2.1-5.3,5-5.3c2.9,0,4.9,2.3,4.9,5.3c0,0.1,0,0.2,0,0.4L269.9,117.1L269.9,117.1z M270.1,115.3h5.5
		c-0.3-1.3-1.5-2.3-2.7-2.3C271.6,113.2,270.4,114,270.1,115.3z"/>
	<path fill="#20201E" d="M286.2,113.4c-0.2-0.1-0.5-0.1-0.8-0.1c-1.1,0-2.2,0.8-2.8,1.7v6.8h-2.1v-10.2h2v1.2
		c0.5-0.7,1.6-1.4,3.1-1.4c0.2,0,0.6,0,0.8,0.1L286.2,113.4z"/>
	<path fill="#20201E" d="M291.1,127.1H289v-15.5h2v0.9c0.9-0.8,2.1-1.2,3.2-1.2c1,0,1.8,0.2,2.5,0.7c1.6,0.9,2.7,2.7,2.7,4.6
		c0,2.1-1.1,3.7-2.6,4.6c-0.7,0.4-1.7,0.7-2.6,0.7c-1.2,0-2.3-0.4-3.1-1.1C291.1,120.8,291.1,127.1,291.1,127.1z M291.1,118.6
		c0.7,1,1.8,1.5,2.9,1.5c2,0,3.4-1.6,3.4-3.4c0-1.8-1.3-3.4-3.3-3.4c-1.3,0-2.3,0.6-3,1.5V118.6z"/>
</g>
<g>
	<path fill="#56554B" d="M388.4,239.3c6.3,0,11.4-5.1,11.4-11.4c0-6.3-5.1-11.4-11.4-11.4s-11.4,5.1-11.4,11.4
		S382.1,239.3,388.4,239.3"/>
	<path fill="#56554B" d="M223.9,289.1l27.6,13l1.7,10.2l-4.9,14.7l-13.6,9.8c0,0-8.5,5-9,5.4s-5.6,0-6.2-0.6c-0.5-0.6-1-1.9-1.3-3.2
		c-0.3-1.3-5.5-25.2-5.8-26.8c-0.3-1.7,0.5-3.8,1.7-6C215.3,303.4,223.9,289.1,223.9,289.1"/>
</g>
</svg>
