<?xml version="1.0" encoding="UTF-8" standalone="no"?>
<svg height="7538.9126" id="svg2" version="1.1" width="8237.1025" xmlns="http://www.w3.org/2000/svg" xmlns:cc="http://creativecommons.org/ns#" xmlns:dc="http://purl.org/dc/elements/1.1/" xmlns:rdf="http://www.w3.org/1999/02/22-rdf-syntax-ns#" xmlns:svg="http://www.w3.org/2000/svg">
  <g id="APRILIA" style="stroke-width:0.5;stroke-miterlimit:4;stroke-dasharray:none;stroke:#000000;stroke-opacity:1;stroke-linejoin:round;fill:#f8c300;fill-opacity:1;fill-rule:evenodd" transform="matrix(32,0,0,32,-8354.6515,-10383.079)">
    <path d="m 277.2901,368.70761 0.10529,0.20389 0.14321,0.18619 0.11881,0.11902 0.138,0.0788 2.41949,0.37479 1.41361,0.19232 2.3735,0.6048 3.0933,2.20898 1.87738,2.48462 -0.0791,0.25528 0.1672,1.4389 0.0511,0.0466 0.20709,0.0397 1.98779,0.27929 0.2768,-0.0599 0.10742,-0.0432 0.69748,-0.0714 1.0004,0.007 0.72311,0.11502 2.2439,0.3822 0.36608,0.0707 0.11753,0.0746 0.0841,0.12289 0.008,0.011 0.15268,0.3862 0.0161,0.0711 0.007,0.0302 0.0654,0.2468 0.0584,0.18039 0.57608,0.7272 0.62152,-0.47339 0.31418,-0.2724 0.88742,-0.863 2.98999,-3.1453 0.86191,-1.51129 0.1145,-0.21731 1.15308,-2.25989 0.35971,-1.0647 0.0731,-0.59302 0.0486,-0.4891 0.029,-0.19479 0.12231,-0.34681 0.0582,-0.11828 0.16519,-0.0953 0.1788,-0.0891 0.17069,-0.0563 0.19311,-0.0553 -0.39221,-1.17758 -0.012,-0.11002 0.0422,-0.2056 0.22541,-0.75149 0.2669,-0.89899 -1.07382,-0.7084 -1.03198,-0.58442 -0.10791,0.0374 -0.29471,0.0783 -0.1926,0.0165 -0.1849,0.0159 -0.23758,0.004 -0.13391,-0.004 -0.0843,-0.0185 -0.41861,-0.15509 -0.0833,-0.0709 -0.004,-0.005 -0.047,-0.0533 -10e-4,-0.0548 0.64648,-1.98459 0.13691,-0.3132 0.11081,-0.17642 -0.67191,-1.27759 -1.15021,-0.23151 -0.28958,0.009 -1.20471,-0.13699 -0.32419,-0.0962 -0.1579,-0.0525 -0.44622,-0.18018 -0.0875,-0.0403 -0.0175,-0.0178 -0.0264,-0.0274 -0.022,-0.0488 -0.0337,-0.0813 -0.014,-0.0997 0.1712,-0.58651 0.0326,-0.0971 0.0697,-0.13321 0.62201,-0.9133 0.12458,-0.16668 0.16662,-0.13172 0.32898,-0.8508 0.0277,-0.24499 0.0321,-0.3338 0.0217,-0.39231 0.041,-1.3808 -0.0515,-0.15161 -0.0897,-0.13379 -0.17932,-0.0888 -0.2944,-0.0881 -0.1394,-0.0346 -0.2674,0.002 -0.21829,0.0531 -1.52121,0.8616 -0.14218,0.1113 -0.13281,0.12641 -0.2486,0.63089 -0.12711,0.41632 -0.0594,0.0749 -0.4415,0.3627 -0.19211,0.10559 -0.61859,0.005 -0.42832,-4e-4 -1.99078,-0.45999 -1.0321,-1.91971 -0.004,-0.0886 -0.0291,-0.59671 -0.002,-0.04 -0.008,-1.0752 -0.94852,0.4845 -0.42389,0.17099 -0.87219,0.2793 -0.7609,0.1987 -0.79181,0.40371 -0.0559,0.0377 -0.0427,0.0287 -0.3107,0.20901 -0.80371,0.47159 -0.34158,0.194 -1.0491,0.4202 -0.34439,0.0992 -0.0888,-0.17819 -0.29532,-0.37051 -0.74789,-0.91419 -0.16831,-0.185 -0.10888,-0.0879 -0.12702,-0.18091 -0.12839,-0.21517 -0.0964,-0.21732 -0.0188,-0.18768 -0.068,-0.75302 0.0548,-0.16178 0.0978,-0.2261 0.0823,-0.14121 0.0424,-0.1145 0.0992,-0.36621 0.049,-0.45038 0.012,-0.9787 -0.023,-0.17422 -0.0599,-0.24158 -0.006,-0.0245 -0.0349,-0.2033 0.0145,-0.1229 0.0156,-0.13229 0.11261,-0.40781 0.1004,-0.31491 -0.0883,-0.42209 -0.0728,-0.16839 -0.0765,-0.23352 -0.0328,-0.1894 -0.0377,-0.21679 -0.005,-0.029 -0.047,-0.81931 0.0443,-0.2933 0.0474,-0.25449 0.17639,-0.52252 0.1037,-0.19159 0.0995,-0.17591 0.10779,-0.12869 0.0539,-0.0992 0.0275,-0.16068 0.007,-0.16153 -0.0288,-0.39678 -0.002,-0.1688 0.0308,-0.12179 0.0858,-0.0909 0.0929,-0.0918 0.0478,-0.0641 0.0592,-0.0795 -0.0146,-0.12491 -0.14599,-0.2034 -0.11792,-0.1658 -0.30329,-0.56689 -0.10229,-0.254 -0.0622,-0.1987 -0.0364,-0.25922 -0.0391,-0.43698 -0.0162,-0.59692 0.009,-0.18079 -0.10828,-0.74429 -0.0443,-0.0336 0.009,0.0366 -0.67072,0.3988 -0.2666,0.13111 -0.0546,0.0926 -0.004,0.009 -0.005,0.0557 -0.004,0.0408 0.0655,0.0758 0.1232,0.10778 0.0474,0.0773 0.11081,0.2384 0.01,0.0706 0.0211,0.15182 -0.10031,0.39929 -0.0923,0.1077 -0.94821,7e-4 -0.14129,-0.0231 -0.0883,-0.0801 -0.159,-0.50378 0.0276,-0.0695 0.18408,-0.0731 0.12461,-0.0927 0.21399,-0.21997 0.20822,-0.26594 0.0298,-0.0716 -0.0311,-0.31369 -0.0583,-0.21899 -0.004,-0.1575 0.0253,-0.154 0.0787,-0.27252 0.0974,-0.25909 0.0329,-0.0615 0.1571,-0.294 -0.0331,-0.0471 -0.0779,-0.0272 -0.22162,0.0259 -0.12848,0.031 -0.0835,0.0158 -0.1218,-0.053 -0.36819,-0.25619 -0.4224,-0.20151 -0.6065,-0.27539 -0.33469,-0.3732 -0.0753,-0.0956 -0.0501,-0.0797 -0.2214,0.10702 -0.1445,0.10898 -3.9581,3.0083 -0.75461,0.60651 -1.5874,1.33068 -0.0926,0.0953 -0.0446,0.1087 -0.01,0.13752 0.0188,0.10678 -0.0192,0.12802 -0.0341,0.0761 -0.40512,0.85501 -0.0708,0.13611 -0.19541,0.1582 -1.15118,0.68689 -1.43701,0.92819 -0.8682,0.74231 -0.2077,0.1976 -2.72729,2.9253 -1.07651,2.5907 0.0677,0.2377 -0.0627,0.42141 -0.0985,0.20789 -0.152,0.24109 -0.4108,0.53351 -0.32102,0.1896 -3.1329,1.75019 0.60971,0.16192 0.7915,0.25839 0.2338,0.0906 0.3624,0.23389 0.85031,0.64841 1.42019,1.58969 0.0251,0.0391 0.0651,0.1015 2.12238,1.8299 0.67032,0.3027 0.0259,0.0455 1.59042,3.67862 0.82468,1.95978 0.57861,1.4798 0.3057,1.21771 -0.1146,0.4386 0.0404,0.1521 0.11999,0.0803 0.142,0.055 0.14661,0.0481 0.0522,0.0172 0.17542,0.0415 0.12048,0.0165 0.3038,-0.0705 0.2667,-0.17801 0.0843,-0.0637 0.11538,-0.0875 0.22022,-0.14352 0.0462,-0.0152 0.17148,-0.0543 0.29932,-0.0707 3.20599,-0.19098 0.1015,0.0693 0.1051,0.2803 0.0132,0.11792 0.0228,0.20499 0.012,0.10879 0.0196,0.30292 z" id="path57" style="stroke-width:0.125;stroke-miterlimit:4;stroke-dasharray:none"/>
  </g>
  <g id="BASSIANO" style="stroke-width:0.5;stroke-miterlimit:4;stroke-dasharray:none;stroke:#000000;stroke-opacity:1;stroke-linejoin:round;fill:#f8c300;fill-opacity:1;fill-rule:evenodd" transform="matrix(32,0,0,32,-8354.6515,-10383.079)">
    <path d="m 346.16141,360.57611 0.98099,0.53238 1.48791,1.55222 1.08798,0.72668 0.24512,0.11981 0.33838,0.13321 0.42401,0.10639 0.1684,0.1333 0.11129,0.15341 0.0547,0.0755 0.21979,0.30209 0.31799,0.52661 0.74072,1.69999 0.7295,2.69461 0.0194,0.14679 -0.15708,0.16809 -1.92032,1.37591 -1.3967,1.00379 -1.33599,1.76251 -0.49411,1.14651 0.67361,0.54999 0.92499,0.7533 0.0759,0.0537 0.22512,-0.15592 0.72001,-0.6856 1.82949,0.22012 0.23859,0.14108 0.93341,0.4382 0.2038,-0.19558 1.13449,-1.1868 0.18051,-0.9137 2.04559,-2.10122 3.7522,-2.28229 3.24551,-4.7265 0.0577,-0.0941 0.3515,-0.81082 0.16672,-0.44119 -0.69061,-0.81699 -0.9538,-1.01422 -3.8407,-3.2619 -1.10931,0.8457 -2.1543,1.32092 -3.74328,-0.9122 -0.17151,-0.1596 -0.45661,-0.44541 -0.4563,-0.62771 -0.8576,-0.14039 -0.26529,-0.0113 -1.20709,0.028 -0.3598,0.022 -0.13892,0.16901 -1.2439,1.3634 -0.73208,0.7182 z" id="path117" style="stroke-width:0.125;stroke-miterlimit:4;stroke-dasharray:none"/>
  </g>
  <g id="CAMPODIMELE" style="stroke-width:0.5;stroke-miterlimit:4;stroke-dasharray:none;stroke:#000000;stroke-opacity:1;stroke-linejoin:round;fill:#f8c300;fill-opacity:1;fill-rule:evenodd" transform="matrix(32,0,0,32,-8354.6515,-10383.079)">
    <path d="m 455.28589,412.32791 0.88962,-1.63071 0.21118,-0.21099 0.25842,-0.2164 0.13809,-0.10892 0.83069,-0.59738 0.17932,-0.0873 0.18189,-0.0609 0.16659,-0.0504 0.12351,-0.0265 0.15539,-0.0144 0.0749,-0.009 0.0854,-0.0244 0.19339,-0.0553 -0.22198,-0.73438 -0.19001,-0.5607 -0.1426,-0.419 -0.1825,-0.2594 -0.8111,-1.11582 -1.11129,-1.48608 -0.15,-0.18472 -0.208,-0.14438 -0.33512,-0.17862 -1.72268,-3.45609 -0.7468,-1.41641 -0.10761,-0.0878 -0.85369,-0.6232 -0.24662,-0.14868 -0.2416,-0.129 -0.22348,-0.11441 -1.36252,-0.0904 -0.9415,0.1987 -1.91779,0.0936 -1.03701,-0.1229 -0.32889,0.0692 -0.96509,0.67871 -0.37012,0.30529 -0.91299,0.93451 -0.16849,0.19178 -0.72601,1.00701 -0.0713,0.20261 -0.0319,0.24909 0.033,0.46899 0.0563,0.24002 0.53958,2.21429 0.42252,0.779 0.67358,0.9324 0.3617,0.54099 0.3891,2.14831 0.0606,0.3725 -0.12768,0.0525 -2.0607,0.7637 0.48029,1.271 1.2214,3.01382 1.02191,1.38828 0.74198,0.87231 0.39532,0.005 0.22739,-0.0404 0.14789,-0.0526 2.2601,-0.8613 3.5415,-2.37311 0.1604,-0.11679 0.20932,-0.18842 0.1568,-0.21728 0.10358,-0.15412 0.3106,-0.34478 0.18912,-0.17462 0.17798,-0.15799 0.23462,-0.146 0.1727,-0.0865 0.26208,-0.11602 0.1601,-0.028 0.3172,0.42871 z" id="path165" style="stroke-width:0.125;stroke-miterlimit:4;stroke-dasharray:none"/>
  </g>
  <g id="CASTELFORTE" style="stroke-width:0.5;stroke-miterlimit:4;stroke-dasharray:none;stroke:#000000;stroke-opacity:1;stroke-linejoin:round;fill:#f8c300;fill-opacity:1;fill-rule:evenodd" transform="matrix(32,0,0,32,-8354.6515,-10383.079)">
    <path d="m 504.26251,424.116 0.1138,0.39819 0.0461,0.2272 -0.0119,0.61591 -0.0855,0.3735 -0.0454,0.14219 -0.13989,0.1585 -0.24771,0.22092 -0.1582,0.1358 0.2853,2.7114 0.4188,2.17978 0.544,1.38412 0.2941,0.10938 0.0758,0.0282 0.11859,0.0443 0.0872,0.079 0.0814,0.11279 0.24298,0.43201 0.0114,0.0405 -0.005,0.84391 0.94409,-0.10831 2.24732,-1.4891 1.0845,-0.56211 0.96619,-0.31909 1.54748,0.18701 2.77491,-0.17511 0.61993,-0.0399 0.32007,-0.19598 0.50171,-0.4808 0.57641,-0.97919 0.94422,-3.30472 0.0146,-0.27829 -0.39373,-0.79751 -0.14527,-0.23969 -0.78698,-0.97751 -1.56275,-2.04989 -0.18835,-0.2742 -0.91651,-1.7341 -0.0516,-0.16611 -0.0333,-0.13858 -0.007,-0.16892 0.0389,-0.12329 0.0579,-0.0879 -1.47302,0.62167 -0.75049,0.46802 -0.95072,0.31189 -2.63171,0.56671 -0.10269,-0.11291 -3.64279,-1.9595 -0.56452,0.17462 -0.27539,0.17019 -0.0929,0.11219 -0.10492,2.9504 0.0242,0.11542 0.098,0.24369 0.2879,0.6033 z" id="path246" style="stroke-width:0.125;stroke-miterlimit:4;stroke-dasharray:none"/>
  </g>
  <g id="CISTERNA_DI_LATINA" style="stroke-width:1;stroke-miterlimit:4;stroke-dasharray:none;stroke:#000000;stroke-opacity:1;stroke-linejoin:round;fill:#da271d;fill-opacity:1;fill-rule:evenodd" transform="matrix(32,0,0,32,-8354.6515,-10383.079)">
    <path d="m 334.6886,366.71609 0.1221,-0.29067 -0.1004,-0.98502 -0.0133,-0.0791 -0.0555,-0.0517 -0.4325,-0.3674 -0.38272,-0.17291 -0.88018,-0.63599 -0.29392,-0.2619 0.0841,-0.15631 0.1391,-0.2587 2.53219,-2.94339 1.9571,-1.1788 0.15881,-0.0953 0.10739,-0.0521 0.0115,-0.001 0.14001,-0.0125 0.38559,0.012 0.0624,0.0115 0.0765,0.0141 0.94782,0.729 0.0881,0.0678 0.4155,0.3291 1.04141,0.58951 0.29419,-0.26111 0.0341,-0.0429 0.0242,-0.0433 0.0173,-0.0528 0.0576,-0.22991 0.0602,-1.8129 -0.3255,-0.7309 -1.70108,-1.0292 -3.0925,-3.64221 -0.1145,-0.17078 -0.1506,-0.23032 -0.11002,-0.24438 -0.0871,-0.2251 8e-4,-0.24161 -0.50138,0.25281 -1.39111,0.70459 -0.79761,0.57559 -0.24029,0.17941 -0.28769,0.19431 -0.3345,0.2218 -0.3349,0.21839 -0.4968,0.17111 -0.49121,0.1156 -0.43509,0.0941 -0.10852,0.007 -0.3216,0.0203 -0.27679,-0.016 -0.31189,-0.0564 -4.14801,-0.84339 -1.70401,-1.26702 -0.23019,-0.23829 -0.1536,-0.2543 -0.6105,-3.52109 0.94391,-1.62161 0.21298,-2.67471 -0.10239,-1.02359 -0.0896,-0.142 -0.22879,-0.0787 -0.67831,-5.78778 -0.0846,-0.1213 -1.20569,-0.28791 -2.17361,0.4137 0.18149,1.93149 -0.36499,0.65051 -0.0958,0.1564 -0.63299,0.4469 -0.0204,-0.0818 -0.41519,-0.81878 -0.46381,-0.7684 -0.194,-0.0497 -0.3811,0.14139 -0.14099,0.1225 -0.61331,0.60181 -0.0591,0.0862 -0.74859,1.17032 -0.0311,0.11489 0.12729,0.375 0.1246,0.17081 0.4762,0.5387 0.4776,0.4967 0.0754,0.11728 0.012,0.20691 -0.0632,0.28439 -0.0855,0.11362 -0.19449,0.11438 -0.6998,0.4007 -0.0849,0.0476 -0.68561,0.1586 -0.10849,0.0214 -0.2301,-0.0513 -0.70651,2.38272 0.0599,2.19009 -0.0434,0.0664 -0.25501,-0.0296 -2.1184,-0.38361 -0.17258,-0.10449 -0.0923,-0.0577 -0.83929,-0.0212 -1.80829,1.5535 -0.0216,0.21331 -0.1614,1.22159 -0.11609,0.60471 -0.2508,0.91339 -0.2019,0.61001 -0.0361,0.10331 -2.08512,4.15179 -0.69888,1.37241 -0.085,0.13418 -0.1907,0.24472 -0.96308,1.21729 -0.0661,0.0746 -0.1571,0.14808 -0.11081,0.17642 -0.13691,0.3132 -0.64648,1.98459 0.001,0.0548 0.047,0.0533 0.004,0.005 0.0833,0.0709 0.41861,0.15509 0.0843,0.0185 0.13391,0.004 0.23758,-0.004 0.1849,-0.0159 0.1926,-0.0165 0.29471,-0.0783 0.10791,-0.0374 1.03198,0.58442 1.07382,0.7084 -0.2669,0.89899 -0.22541,0.75149 -0.0422,0.2056 0.012,0.11002 0.39221,1.17758 1.25351,-0.22629 0.17639,-0.0162 0.14249,-0.004 0.1774,0.0272 0.1987,0.15701 0.0492,0.15381 0.16849,0.56818 0.0178,0.0703 0.0114,0.3641 0.1665,0.66391 1.3064,2.85269 0.2308,0.35221 0.0694,0.0578 0.0509,0.0421 0.26599,0.2204 0.2056,-0.0114 0.19949,0.005 0.0611,0.001 0.0892,0.0359 0.54221,0.22132 0.0201,0.0795 0.14169,0.59101 -0.007,0.0784 -0.3428,1.21008 -0.0743,0.1973 -0.32181,0.346 -1.04999,1.79212 1.62219,4.99029 0.5091,0.719 0.0925,0.0771 0.20401,0.0181 0.37588,0.0133 0.26261,0.005 1.527,0.26169 0.14801,0.0374 0.1323,0.0446 0.17428,0.0933 0.13462,0.13361 0.10928,0.1178 0.11731,0.16821 0.0415,0.12149 0.3909,0.61819 2.0167,0.49121 0.307,0.0605 0.1239,-0.1062 0.28299,-0.81598 0.0774,-0.34192 -0.0723,-0.35879 -0.14358,-0.31769 -0.16922,-0.3472 -0.16098,-0.3765 -0.14771,-0.39532 -0.0615,-0.37439 0.0136,-0.54309 0.0208,-0.7114 0.3652,-2.05941 0.33799,-1.69349 0.1488,-0.5758 0.0768,-0.27582 0.0816,-0.1799 2.31518,-2.5827 0.0966,-0.10388 0.1835,-0.197 0.2844,-0.3052 0.0865,-0.093 0.2334,-0.2482 0.45142,-0.42648 0.2446,-0.45291 0.4515,-1.34519 0.2797,-0.962 0.24618,-0.6774 0.20661,-0.344 0.44839,-0.4653 0.9126,-0.8342 0.4386,-0.39852 0.54053,-0.305 0.46768,-0.33328 0.4917,-0.4541 0.29309,-0.2897 0.10501,-0.1038 0.1867,-0.33352 0.0997,-0.46509 0.1008,-0.3237 0.152,-0.27689 0.1612,-0.25482 0.0243,-0.0179 0.0531,-0.039 0.03,-0.0221 0.0138,-0.0101 0.0525,-0.0387 3.05628,1.71463 0.006,0.004 1.34061,0.75241 0.62158,0.3489 0.9245,0.51899 0.17392,0.0874 0.0782,0.0393 z" id="path306" style="stroke-width:0.125;stroke-miterlimit:4;stroke-dasharray:none"/>
  </g>
  <g id="CORI" style="fill:#f8c300;fill-opacity:1;stroke:#000000;stroke-width:0.125;stroke-linejoin:round;stroke-miterlimit:4;stroke-opacity:1;stroke-dasharray:none" transform="matrix(32,0,0,32,-8354.6515,-10383.079)">
    <path d="m 346.75629,342.0834 -0.54129,-0.11099 -0.3353,-0.17401 -4.12961,-3.0444 -0.25299,-0.24079 -0.11871,-0.2221 -0.13578,-0.27072 -0.23992,-0.361 -0.13379,-0.19079 -0.16169,-0.21491 -1.47171,-1.78219 -0.58261,-0.6446 -0.8345,0.87461 -0.27618,0.034 -0.30961,-0.045 -3.81719,-0.7814 -0.61731,-0.19229 -0.2078,-0.0649 -0.12161,-0.038 -0.6658,-0.23099 -1.43619,-0.54531 -0.43311,-0.1724 -0.3016,-0.17218 -0.86429,-0.56021 0.007,-0.0829 0.1893,-0.7984 0.0679,-0.19751 0.8822,-0.7691 0.5585,-0.3667 -1.3948,-1.25919 -0.2493,-0.0831 -0.74371,-0.33469 -1.29209,-1.22009 -0.2258,-0.22452 -0.24749,-0.19019 -0.2323,-0.1336 -0.0598,-0.0186 -0.24188,-0.0532 -0.22641,0.0308 -0.25531,0.12979 -0.18869,0.0884 -0.2283,0.0482 -0.0517,0.0109 -0.31909,0.0449 -0.1528,-0.11979 -2.23932,-1.95431 -0.88919,-0.9462 -2.7071,2.76682 1.16211,1.16568 0.25309,0.23251 0.20419,0.0798 0.15512,-0.0523 0.18848,-0.17731 0.18011,-0.16058 0.60278,-0.40262 0.0728,0.0922 0.4537,0.8183 0.0333,0.332 0.0793,0.81628 0.0293,0.3581 -0.1441,0.41861 -0.15332,0.40439 -0.0341,0.0899 -0.21399,0.42691 -0.23392,0.45569 -0.15368,0.47971 -0.12452,0.55981 -0.0674,0.48709 0.1582,0.42999 0.34708,2.1893 -0.0234,0.44571 1.20569,0.28791 0.0846,0.1213 0.67831,5.78778 0.22879,0.0787 0.0896,0.142 0.10239,1.02359 -0.21298,2.67471 -0.94391,1.62161 0.6105,3.52109 0.1536,0.2543 0.23019,0.23829 1.70401,1.26702 4.14801,0.84339 0.31189,0.0564 0.27679,0.016 0.3216,-0.0203 0.10852,-0.007 0.43509,-0.0941 0.49121,-0.1156 0.4968,-0.17111 0.3349,-0.21839 0.3345,-0.2218 0.28769,-0.19431 0.24029,-0.17941 0.79761,-0.57559 1.39111,-0.70459 0.50138,-0.25281 0.2113,-0.0849 0.28192,-0.16031 0.43988,-0.2546 0.0454,-0.0264 0.56119,-0.41419 0.74561,-0.58349 2.80169,-0.0145 2.40961,-0.3034 0.84601,-0.95472 0.11719,-0.1336 0.38049,-0.78369 0.46371,-1.02591 1.4007,-3.0398 0.54269,-0.91388 -0.1979,-1.19211 z" id="path378" style="stroke-width:0.125;stroke-miterlimit:4;stroke-dasharray:none"/>
  </g>
  <g id="FONDI" style="fill:#f8c300;fill-opacity:1;stroke:#000000;stroke-width:0.125;stroke-linejoin:round;stroke-miterlimit:4;stroke-opacity:1;stroke-dasharray:none" transform="matrix(32,0,0,32,-8354.6515,-10383.079)">
    <path d="m 435.05042,432.58691 0.28979,-0.86602 0.75949,-1.07169 0.1676,-0.2215 0.16101,-0.21051 0.69828,-0.8356 0.41052,-0.27258 0.28329,-0.18472 0.193,-0.0583 0.18399,-0.18991 0.4834,-0.6131 1.47931,-2.01068 0.99789,-1.4101 0.42392,-0.68112 0.9581,-1.51688 0.44629,-0.67981 0.4512,-0.68069 1.90491,-2.80402 0.91678,-1.32739 -0.74198,-0.87231 -1.02191,-1.38828 -1.2214,-3.01382 -0.48029,-1.271 -0.59161,-1.13678 -0.1193,-0.13711 -0.27771,-0.1182 -0.0677,-0.0241 -0.3905,-0.1344 -0.1535,-0.0514 -0.1106,0.009 -2.87161,1.001 -1.6066,-0.24209 -0.33929,-0.0507 -0.2908,0.0156 -0.5853,0.11548 -0.19571,0.0468 -1.5325,0.60309 -0.56479,0.35822 -0.0636,0.0514 -0.0654,0.0673 -1.25741,-1.2334 -0.16318,-1.91409 -0.0804,-0.1854 -0.0726,-0.16561 -0.24109,-0.4672 -1.03939,-1.89029 -3.14701,0.1128 -0.14239,-0.0723 -0.17932,-0.1608 -0.14359,-0.18411 -0.21011,-0.25699 -0.3858,-0.45749 -0.21628,-0.22882 -0.116,-0.0322 -2.65671,-0.56369 -0.242,-0.0203 -2.60568,0.24289 -0.23441,0.0484 -0.14822,0.16449 -0.14438,0.25821 -0.0859,0.23389 -0.0746,0.2435 -0.0542,0.126 -0.78458,0.56641 -0.12991,0.0709 -0.28779,-0.0512 -0.68032,-0.16952 -0.17838,0.17032 -0.1308,0.13009 -0.28122,0.306 -0.0905,0.12299 -0.1181,0.1958 -0.0909,0.22791 -0.0217,0.1502 -0.1381,1.4278 0.0202,0.24649 0.052,0.23862 0.24298,1.02099 0.33981,0.41959 0.18149,0.1586 1.43192,2.5336 -0.0445,4.87372 0.1489,3.87259 -0.002,0.25232 -0.0394,0.19229 -0.0556,0.15109 -0.0624,0.17001 -0.0918,0.16858 -0.54468,0.98551 -0.1326,0.21319 -0.2572,0.37222 -0.0634,0.0716 -0.0206,0.0233 -0.12219,-0.0188 -1.1405,-0.39758 -2.37799,-0.0682 -1.35501,0.0717 -0.125,-0.0291 -0.43241,-0.19522 -0.0619,-0.0441 -0.0425,-0.2153 -0.0416,-0.1731 -0.0557,-0.1943 -0.3226,-0.58268 -0.0522,-0.0198 -0.60372,0.0676 -0.11179,0.0605 -2.0166,1.2775 -1.27991,1.01272 -0.0417,0.0394 -0.1246,0.11758 -0.5488,0.56391 -0.23449,0.712 0.0122,0.1568 0.1283,0.223 0.10138,0.22619 -9.8e-4,0.1778 -0.006,0.16952 -0.0813,0.11789 -0.10382,0.11331 -0.76169,0.6377 -2.70471,2.3551 -0.0861,0.1023 -0.0138,0.0164 -0.14041,0.16672 -0.17389,0.21698 -0.009,0.0191 -0.0363,0.0756 0.12021,-0.0635 0.3681,-0.0176 1.0387,0.004 0.42617,0.0104 0.37513,0.0256 0.45559,0.0498 0.49949,0.0637 0.44131,0.0611 1.7804,0.28851 0.354,0.0629 0.24451,0.0467 1.60678,0.3399 0.17532,0.0407 1.13989,0.2757 0.19379,0.0514 0.50821,0.13641 1.75729,0.48249 0.7363,0.21689 0.7999,0.25381 0.60611,0.1983 0.48159,0.1586 0.2526,0.0908 0.52731,0.1958 0.4541,0.17151 0.52371,0.19971 0.8938,0.35068 0.84928,0.34411 0.91702,0.3985 0.43268,0.19409 0.418,0.19431 1.57721,0.75009 0.17251,0.085 0.4773,0.2558 0.0831,0.0746 0.50189,-2.7313 -1.32419,-0.75979 -0.22241,-0.13672 -0.31369,-0.2486 -0.0312,-0.0495 0.67892,-0.42678 1.84818,-1.09742 0.11172,0.2793 0.23658,0.4715 0.1665,0.2034 0.521,0.55792 1.28781,0.14718 0.24341,-0.0296 0.17248,-0.055 0.14182,-0.0257 0.2073,-0.0156 0.2301,0.005 0.2945,0.0721 0.26981,0.0778 1.43359,0.44098 0.0843,0.0488 0.3703,0.27111 1.1384,0.89661 2.0831,-0.84262 0.70282,-0.70548 z" id="path425" style="stroke-width:0.125;stroke-miterlimit:4;stroke-dasharray:none"/>
  </g>
  <g id="FORMIA" style="fill:#f8c300;fill-opacity:1;stroke:#000000;stroke-width:0.125;stroke-linejoin:round;stroke-miterlimit:4;stroke-opacity:1;stroke-dasharray:none" transform="matrix(32,0,0,32,-8354.6515,-10383.079)">
    <path d="m 479.55399,443.1012 -0.3541,-0.6074 -0.0703,-0.18621 -0.10172,-3.17969 0.0308,-0.20569 0.0894,-0.20261 0.4332,-0.90289 0.10541,-0.18112 0.17288,-0.1991 0.59952,-0.4881 0.1542,-0.0838 0.68338,-0.3045 1.5383,-0.60968 0.0868,-0.0693 0.0484,-0.0897 0.17649,-0.41311 -0.7359,-0.1966 -0.0523,-0.0313 -2.7825,-4.76938 -0.7825,-1.6293 -0.0823,-0.22681 -0.0788,-0.1524 -0.47519,-0.69269 -0.387,-0.0576 -0.26819,0.0229 -0.26052,0.0347 -0.96268,-0.3396 -3.86371,-1.49582 -0.0644,-0.22229 -0.0729,-0.48489 0.0373,-0.0732 0.12311,-0.0605 -1.02109,-0.36771 -0.12921,-0.0298 -0.22101,0.0131 -1.86709,0.2431 -0.55371,0.0977 -0.63449,0.1264 -0.14951,0.12189 -0.13718,0.16351 -0.11492,0.1568 -0.11561,-0.0301 -1.26089,-0.82141 -0.16,-0.11801 -0.28769,-0.3551 -1.39249,-2.1265 -0.72302,-1.13418 -0.1969,-0.36051 -0.0709,-0.18951 -0.026,-0.0892 -0.0124,-0.0656 -0.006,-0.11429 -0.1893,0.04 -0.11432,0.0314 -0.11459,0.0429 -0.0869,0.0808 -0.3789,0.4469 -3.58112,4.26578 -0.6,1.00171 -0.006,0.34961 0.0177,0.11829 0.37369,0.21939 0.41571,1.28622 -0.26419,2.7702 -0.35092,2.29038 -3.98099,4.55881 -0.3714,0.31201 -0.33609,0.2796 -0.1983,0.13528 0.0425,0.11972 0.2008,0.55768 0.0225,0.0626 0.003,0.01 0.045,0.12548 0.10812,0.10691 0.0502,0.0496 0.79639,0.71252 0.97531,0.7677 0.0306,0.0231 0.008,0.006 0.15332,0.1157 0.26438,0.17361 0.28292,0.0664 0.323,0.0377 0.32318,0.0446 0.26691,0.0575 0.44199,0.1387 0.0183,0.0248 0.1246,0.16861 0.0751,0.1716 0.6995,1.73099 0.0411,-0.0355 0.10791,-0.0809 0.2674,-0.1986 0.19839,-0.14231 0.3606,-0.23138 0.23831,-0.14371 0.1828,-0.0987 0.0391,-0.0197 0.38299,-0.19128 0.0641,-0.0314 0.0595,-0.0249 0.30581,-0.12661 0.14069,-0.0574 0.20731,-0.0506 1.51269,-0.31991 1.18659,-0.7551 0.99002,-0.8125 0.005,-0.0126 0.01,-0.0251 0.0324,-0.0388 0.0234,-0.0147 0.7175,-0.38858 0.79059,-0.32612 0.0534,-0.0152 0.2605,-0.0161 1.32892,-0.0285 0.4679,0.0355 1.08218,0.1041 0.0538,0.0103 0.049,0.0104 0.54441,0.12152 0.88269,0.2291 0.557,0.1474 0.0238,0.008 0.81119,0.2807 2.2113,0.96759 0.0987,0.2417 0.13272,0.43641 0.0618,0.1282 0.0805,0.1604 0.0393,0.053 0.23862,0.24829 0.0367,0.0281 0.0668,0.042 0.1578,0.099 1.98859,0.8518 0.10132,0.0319 0.1784,0.026 0.0803,-0.006 0.0724,-0.007 0.0833,-0.0157 0.0282,-0.008 1.07029,-0.5603 z" id="path443" style="stroke-width:0.125;stroke-miterlimit:4;stroke-dasharray:none"/>
  </g>
  <g id="GAETA" style="fill:#f8c300;fill-opacity:1;stroke:#000000;stroke-width:0.125;stroke-linejoin:round;stroke-miterlimit:4;stroke-opacity:1;stroke-dasharray:none" transform="matrix(32,0,0,32,-8354.6515,-10383.079)">
    <path d="m 459.0239,453.14389 1.16449,0.0685 0.0522,-0.004 0.56519,-0.21109 0.26861,-0.37009 0.0119,-0.073 -0.009,-0.0329 -0.079,-0.13928 -0.0319,-0.0508 -0.0419,-0.0655 -0.0747,-0.0716 -0.0231,-0.0194 -0.0512,-0.0323 -0.0396,-0.0208 -0.0476,-0.0142 -0.0456,0.007 -0.0291,0.0203 -0.006,0.0365 0.0155,0.0457 0.025,0.0331 0.0314,0.0226 0.0398,0.0358 0.0285,0.0442 -0.142,0.11319 -0.11102,0.005 -0.0901,-0.0118 -0.41181,-0.10568 -0.25299,-0.0818 -1.92401,-1.05679 -0.25259,-0.1547 -0.19409,-0.28299 -0.0146,-0.0615 -0.52258,-2.42279 -0.0186,-0.13699 -0.0179,-0.1381 -0.0819,-0.67251 0.0222,-0.1427 0.0148,-0.0945 0.012,-0.0647 0.73569,-1.6998 0.30011,-0.64859 0.0284,-0.0437 0.4238,-0.47891 0.0598,-0.0666 0.13681,-0.13291 0.14319,-0.13809 0.2576,-0.2106 -0.6995,-1.73099 -0.0751,-0.1716 -0.1246,-0.16861 -0.0183,-0.0248 -0.44199,-0.1387 -0.26691,-0.0575 -0.32318,-0.0446 -0.323,-0.0377 -0.28292,-0.0664 -0.26438,-0.17361 -0.15332,-0.1157 -0.008,-0.006 -0.0306,-0.0231 -0.97531,-0.7677 -0.79639,-0.71252 -0.0502,-0.0496 -0.10812,-0.10691 -0.045,-0.12548 -0.003,-0.01 -0.0225,-0.0626 -0.2008,-0.55768 -0.0425,-0.11972 -0.5203,0.3143 -0.20761,0.13611 -0.3515,0.26969 -0.6976,0.63202 -0.0296,0.1329 -0.019,0.3353 -0.0331,0.0495 -0.9541,0.38708 -2.00381,0.5791 -0.1843,0.045 -0.2323,-0.003 -0.20849,-0.0692 -0.25269,-0.0144 -0.53751,0.21209 -2.0603,0.82501 -0.9284,0.41968 -1.70389,1.0857 -0.73822,1.51132 -0.11389,0.0887 -0.8187,-0.0554 1.7749,1.45719 0.41611,0.34262 3.2934,1.45709 0.2033,-7e-4 0.59119,0.0422 0.036,0.005 0.1626,0.0457 0.57068,0.30969 0.2521,0.1413 0.0929,0.0591 1.0712,0.728 0.73111,0.591 -0.022,0.81098 0.0153,0.0202 0.11289,0.08 0.11789,0.0667 1.7825,0.88562 1.7138,0.5766 0.0308,-0.24042 0.2503,-0.45398 0.0127,-0.0203 0.01,-0.0151 0.0301,-0.0268 0.096,-0.0564 0.18591,-0.0229 0.0637,-10e-4 0.1323,10e-4 0.0458,8.9e-4 0.0705,0.0153 0.3215,0.0724 0.0513,0.0136 0.7041,0.25519 0.7999,0.31241 0.0526,0.0206 0.0403,0.0165 0.0468,0.0196 0.21478,0.14481 0.058,0.0476 0.0499,0.0526 0.02,0.0244 0.0223,0.0658 -0.0156,0.0789 -0.0124,0.009 -0.0229,-0.001 -0.0374,0.0106 -0.0533,0.0356 -0.0668,0.11362 -0.0142,0.0333 -0.0613,0.14828 -0.0214,0.0864 -0.004,0.058 -0.003,0.11749 0.0166,0.0146 0.0281,0.0177 0.12311,0.036 1.0498,0.0397 0.0583,-0.02 0.1283,-0.0452 0.23159,-0.12622 0.0804,-0.0824 0.3978,-0.4599 z" id="path458" style="stroke-width:0.125;stroke-miterlimit:4;stroke-dasharray:none"/>
  </g>
  <g id="ITRI" style="fill:#f8c300;fill-opacity:1;stroke:#000000;stroke-width:0.125;stroke-linejoin:round;stroke-miterlimit:4;stroke-opacity:1;stroke-dasharray:none" transform="matrix(32,0,0,32,-8354.6515,-10383.079)">
    <path d="m 439.1658,444.79599 1.8313,0.43881 0.8187,0.0554 0.11389,-0.0887 0.73822,-1.51132 1.70389,-1.0857 0.9284,-0.41968 2.0603,-0.82501 0.53751,-0.21209 0.25269,0.0144 0.20849,0.0692 0.2323,0.003 0.1843,-0.045 2.00381,-0.5791 0.9541,-0.38708 0.0331,-0.0495 0.019,-0.3353 0.0296,-0.1329 0.6976,-0.63202 0.3515,-0.26969 0.20761,-0.13611 0.5203,-0.3143 0.1983,-0.13528 0.33609,-0.2796 0.3714,-0.31201 3.98099,-4.55881 0.35092,-2.29038 0.26419,-2.7702 -0.41571,-1.28622 -0.37369,-0.21939 -0.0177,-0.11829 0.006,-0.34961 0.6,-1.00171 3.58112,-4.26578 0.3789,-0.4469 0.0869,-0.0808 0.11459,-0.0429 0.11432,-0.0314 0.1893,-0.04 0.0176,-0.15292 -0.0476,-0.31149 -0.0503,-0.32059 -0.0872,-0.22931 -1.95789,-2.9657 -0.1286,-0.14029 -1.328,-1.25412 -0.0572,-0.0531 -0.10989,-0.10168 -0.15549,-0.12341 -1.5715,-1.0824 -0.10062,-0.0658 -0.14829,-0.0934 -0.18231,-0.0998 -0.1615,-0.0861 -0.55038,-0.22651 -1.45282,-0.48959 -0.3172,-0.42871 -0.1601,0.028 -0.26208,0.11602 -0.1727,0.0865 -0.23462,0.146 -0.17798,0.15799 -0.18912,0.17462 -0.3106,0.34478 -0.10358,0.15412 -0.1568,0.21728 -0.20932,0.18842 -0.1604,0.11679 -3.5415,2.37311 -2.2601,0.8613 -0.14789,0.0526 -0.22739,0.0404 -0.39532,-0.005 -0.91678,1.32739 -1.90491,2.80402 -0.4512,0.68069 -0.44629,0.67981 -0.9581,1.51688 -0.42392,0.68112 -0.99789,1.4101 -1.47931,2.01068 -0.4834,0.6131 -0.18399,0.18991 -0.193,0.0583 -0.28329,0.18472 -0.41052,0.27258 -0.69828,0.8356 -0.16101,0.21051 -0.1676,0.2215 -0.75949,1.07169 -0.28979,0.86602 -0.0146,0.0232 -0.0518,0.13638 -0.0212,0.0604 -0.0125,0.0563 -0.0331,0.2308 -0.0122,0.0849 0.0138,0.17392 0.0407,0.18219 0.0382,0.14679 0.1514,0.24491 0.31268,0.33651 0.78922,0.63599 0.7203,0.55499 0.13718,0.112 0.25162,0.32761 0.0404,0.0785 0.004,0.008 0.007,0.0152 0.0259,0.0663 0.62589,2.0044 0.19381,1.0336 0.0337,0.24569 0.0628,0.89341 -0.0575,0.17037 -0.0173,0.0514 -0.0721,0.28 -0.0463,0.18789 -0.13788,0.75189 0.002,0.11872 0.18579,0.9591 0.0826,0.2129 0.87259,1.82458 z" id="path519" style="stroke-width:0.125;stroke-miterlimit:4;stroke-dasharray:none"/>
  </g>
  <g id="LATINA" style="fill:#f8c300;fill-opacity:1;stroke:#000000;stroke-width:0.125;stroke-linejoin:round;stroke-miterlimit:4;stroke-opacity:1;stroke-dasharray:none" transform="matrix(32,0,0,32,-8354.6515,-10383.079)">
    <path d="m 306.55661,400.112 0.2963,-0.11762 0.0293,-0.0115 0.353,-0.10532 0.0906,-0.0254 0.02,-0.005 0.2291,-0.0452 0.0908,-0.0172 0.0589,-0.01 0.26199,-0.0406 0.31,-0.0228 0.11621,-0.001 1.1488,-0.0104 0.26688,0.0285 0.26032,0.028 0.216,0.0413 0.16248,0.034 0.0813,0.017 0.49878,0.14502 0.092,0.0341 0.0279,0.0132 3.9013,0.38758 0.2471,-0.0403 0.94519,-0.1084 0.42161,-0.012 0.0493,5.8e-4 0.39838,0.0286 0.4277,0.0389 0.3201,0.0324 1.4523,0.2396 0.51361,0.116 0.29541,0.068 0.2442,0.0657 0.2847,0.0794 0.0279,0.008 0.22689,0.0665 0.0924,0.027 0.3161,0.0952 0.34009,0.1094 0.23721,0.0806 0.83518,0.36389 0.26001,0.11502 0.35611,0.16599 0.53528,0.26471 0.58911,0.29648 2.3179,1.27371 0.94729,0.5585 3.1713,2.056 0.20761,0.13849 1.01569,0.7612 1.30572,1.06281 0.29788,-0.32401 0.14792,-0.15158 0.13019,-0.1286 0.1228,-0.0582 0.2135,-0.0461 0.25449,-0.0305 0.61911,-0.0195 0.0278,-9.1e-4 0.31259,-0.01 0.6139,-0.0186 0.4877,-0.0152 2.88852,-0.3335 3.2193,-0.492 0.33749,-0.0585 0.3284,-0.0623 0.27579,-0.0932 0.19912,-0.18229 2.55109,-2.63662 1.3176,-1.3739 0.0821,-0.10608 0.0779,-0.10062 0.0107,-0.0281 0.11939,-0.31231 0.0978,-0.26221 0.0922,-0.31708 0.0762,-0.32821 0.1705,-0.5528 0.5456,-1.6319 0.10611,-0.2994 0.23599,-0.65479 -0.0434,-0.0591 -0.0919,-0.12491 -0.0712,-0.14798 -0.0168,-0.035 0.0206,-0.0291 0.12149,-0.17169 0.17642,-0.21411 0.2598,-0.30469 2.29498,-2.16089 0.1529,-0.14221 0.54892,-0.51001 0.9479,-0.88119 0.3375,-0.30719 0.0148,-0.0135 -0.0328,-0.0479 -0.10519,-0.15372 -0.16932,-0.1922 -0.52838,-0.56729 -0.92932,-0.98209 -6.1318,-6.38992 -1.10999,-1.1344 -1.37451,-1.4086 -3.32819,-3.35788 -0.31851,-0.3486 0.0182,-0.0231 0.30029,-0.36801 0.46039,-0.6604 0.2829,-0.48388 0.11041,-0.21491 0.0288,-0.31329 -0.0432,-0.29721 -0.0593,-0.3082 -0.1149,-0.2663 -0.20849,-0.30139 -0.13861,-0.21051 -0.3787,-0.8948 -0.0185,-0.11289 0.0808,-0.2905 0.48071,-1.44 0.53379,-1.47201 -0.39008,-0.2186 -0.4679,-0.2507 -0.15921,-0.0518 -0.8312,-0.46082 -0.0213,-0.0119 -0.60141,-0.33459 -0.5083,-0.28269 -0.007,-0.004 -0.15222,-0.0858 -2.8435,-1.60101 -0.69739,-0.39271 -0.0782,-0.0393 -0.17392,-0.0874 -0.9245,-0.51899 -0.62158,-0.3489 -1.34061,-0.75241 -0.006,-0.004 -3.05628,-1.71463 -0.0525,0.0387 -0.0138,0.0101 -0.03,0.0221 -0.0531,0.039 -0.0243,0.0179 -0.1612,0.25482 -0.152,0.27689 -0.1008,0.3237 -0.0997,0.46509 -0.1867,0.33352 -0.10501,0.1038 -0.29309,0.2897 -0.4917,0.4541 -0.46768,0.33328 -0.54053,0.305 -0.4386,0.39852 -0.9126,0.8342 -0.44839,0.4653 -0.20661,0.344 -0.24618,0.6774 -0.2797,0.962 -0.4515,1.34519 -0.2446,0.45291 -0.45142,0.42648 -0.2334,0.2482 -0.0865,0.093 -0.2844,0.3052 -0.1835,0.197 -0.0966,0.10388 -2.31518,2.5827 -0.0816,0.1799 -0.0768,0.27582 -0.1488,0.5758 -0.33799,1.69349 -0.3652,2.05941 -0.0208,0.7114 -0.0136,0.54309 0.0615,0.37439 0.14771,0.39532 0.16098,0.3765 0.16922,0.3472 0.14358,0.31769 0.0723,0.35879 -0.0774,0.34192 -0.28299,0.81598 -0.1239,0.1062 -0.307,-0.0605 -2.0167,-0.49121 -0.3909,-0.61819 -0.0415,-0.12149 -0.11731,-0.16821 -0.10928,-0.1178 -0.13462,-0.13361 -0.17428,-0.0933 -0.1323,-0.0446 -0.14801,-0.0374 -1.527,-0.26169 -0.26261,-0.005 -0.37588,-0.0133 -0.20401,-0.0181 -0.0925,-0.0771 -0.5091,-0.719 -1.62219,-4.99029 1.04999,-1.79212 0.32181,-0.346 0.0743,-0.1973 0.3428,-1.21008 0.007,-0.0784 -0.14169,-0.59101 -0.0201,-0.0795 -0.54221,-0.22132 -0.0892,-0.0359 -0.0611,-0.001 -0.19949,-0.005 -0.2056,0.0114 -0.26599,-0.2204 -0.0509,-0.0421 -0.0694,-0.0578 -0.2308,-0.35221 -1.3064,-2.85269 -0.1665,-0.66391 -0.0114,-0.3641 -0.0178,-0.0703 -0.16849,-0.56818 -0.0492,-0.15381 -0.1987,-0.15701 -0.1774,-0.0272 -0.14249,0.004 -0.17639,0.0162 -1.25351,0.22629 -0.19311,0.0553 -0.17069,0.0563 -0.1788,0.0891 -0.16519,0.0953 -0.0582,0.11828 -0.12231,0.34681 -0.029,0.19479 -0.0486,0.4891 -0.0731,0.59302 -0.35971,1.0647 -1.15308,2.25989 -0.1145,0.21731 -0.86191,1.51129 -2.98999,3.1453 -0.88742,0.863 -0.31418,0.2724 -0.62152,0.47339 -0.57608,-0.7272 -0.0584,-0.18039 -0.0654,-0.2468 -0.6755,0.83021 0.1152,0.4165 0.0442,0.13519 0.0682,0.1929 0.059,0.16721 1.0899,3.00299 0.0749,0.0956 0.17859,0.1742 0.70499,0.39538 0.52411,0.23261 0.25769,0.075 0.47171,-0.0421 0.14609,-0.0381 0.13211,-0.0557 0.0512,-0.0286 0.6092,0.37201 0.2023,0.20831 0.0842,0.1051 0.46871,0.8982 0.0554,0.2145 0.0368,1.95069 -0.1373,0.46939 -0.27451,0.75052 -0.26181,0.4559 -0.13589,8.9e-4 -0.50159,0.1047 -0.29141,0.099 -0.1268,0.0833 -0.19199,0.1854 0.12039,2.0365 0.0288,0.488 0.3891,0.26779 0.7771,0.40549 0.33447,0.0853 0.60492,0.0458 0.39301,-0.26191 0.1095,-0.0729 0.1712,-0.11438 0.0447,-0.011 0.029,-0.007 0.0408,-0.01 2.48279,2.64169 0.0352,0.0631 0.1972,0.57499 0.42301,1.23312 0.23251,0.67789 0.2583,2.3009 z" id="path543" style="stroke-width:0.125;stroke-miterlimit:4;stroke-dasharray:none"/>
  </g>
  <g id="LENOLA" style="fill:#f8c300;fill-opacity:1;stroke:#000000;stroke-width:0.125;stroke-linejoin:round;stroke-miterlimit:4;stroke-opacity:1;stroke-dasharray:none" transform="matrix(32,0,0,32,-8354.6515,-10383.079)">
    <path d="m 430.11301,404.9241 1.03939,1.89029 0.24109,0.4672 0.0726,0.16561 0.0804,0.1854 0.16318,1.91409 1.25741,1.2334 0.0654,-0.0673 0.0636,-0.0514 0.56479,-0.35822 1.5325,-0.60309 0.19571,-0.0468 0.5853,-0.11548 0.2908,-0.0156 0.33929,0.0507 1.6066,0.24209 2.87161,-1.001 0.1106,-0.009 0.1535,0.0514 0.3905,0.1344 0.0677,0.0241 0.27771,0.1182 0.1193,0.13711 0.59161,1.13678 2.0607,-0.7637 0.12768,-0.0525 -0.0606,-0.3725 -0.3891,-2.14831 -0.3617,-0.54099 -0.67358,-0.9324 -0.42252,-0.779 -0.53958,-2.21429 -0.0563,-0.24002 -0.033,-0.46899 0.0319,-0.24909 0.0713,-0.20261 0.72601,-1.00701 0.16849,-0.19178 0.91299,-0.93451 0.37012,-0.30529 0.96509,-0.67871 0.32889,-0.0692 0.18661,-2.1672 -0.95419,-0.53571 -0.40802,-0.19589 -0.5615,-0.172 -0.82638,-0.19491 -0.22672,-0.0382 -0.2214,0.0135 -2.68329,-1.0102 -1.72531,-0.65661 -0.4599,-0.1756 -0.52188,-0.22781 -1.65961,-0.8877 -0.48871,-0.26938 -0.15259,-0.18912 -0.0891,-0.43319 -0.72488,-2.35691 -0.9808,-0.9754 -1.624,1.0213 -1.10672,0.7201 -0.3742,0.3146 -0.11469,0.16611 -0.10559,1.29501 0.0254,0.1518 0.11581,0.1553 0.17359,0.22098 0.12311,0.1727 0.16238,0.23181 0.5444,1.35141 0.8739,3.48959 0.0705,0.38089 -0.0561,0.40512 -0.7768,3.2081 -0.17031,0.19519 -0.1977,0.19489 -0.319,0.61502 -0.4443,1.06659 -0.0861,0.22918 -0.12329,1.55472 z" id="path546" style="stroke-width:0.125;stroke-miterlimit:4;stroke-dasharray:none"/>
  </g>
  <g id="MAENZA" style="fill:#f8c300;fill-opacity:1;stroke:#000000;stroke-width:0.125;stroke-linejoin:round;stroke-miterlimit:4;stroke-opacity:1;stroke-dasharray:none" transform="matrix(32,0,0,32,-8354.6515,-10383.079)">
    <path d="m 391.28271,369.08981 -1.15481,-0.9042 -1.52329,-1.72421 -1.2528,-1.65149 -0.1413,-0.2623 -0.13593,-2.95182 0.014,-0.3128 0.0231,-0.40799 0.11002,-0.27161 0.26569,-0.19778 -0.006,-0.37991 -0.27109,-0.73359 -0.0984,-0.26471 -0.36789,-2.0035 -0.0734,-0.1507 -0.18671,-0.1402 -0.2616,-0.0516 -1.05951,-0.0666 -0.48709,0.0149 -0.22729,0.0732 -0.0261,0.16519 0.003,0.36939 -0.0281,0.17871 -0.1604,0.11871 -0.185,0.0434 -1.2836,0.17099 -0.3016,0.0157 -0.61209,1.45569 -0.1796,0.29331 -0.4714,0.548 -4.34381,2.413 -1.194,0.53149 -1.34678,0.47641 -0.32772,0.0389 -1.0879,0.9176 -0.0875,0.14621 -0.0122,0.2547 0.16681,1.12961 0.0401,0.17978 0.0778,0.15301 0.9607,0.10901 0.33911,0.0745 3.09649,0.76059 3.4155,2.12399 0.13922,4.9306 -0.78399,2.64731 0.21139,0.0365 2.3493,0.5383 0.82679,0.35721 0.18789,0.10949 0.56571,-0.003 2.3244,-0.6579 1.30399,-0.31079 0.3832,0.2171 0.6923,0.33579 0.5144,0.1543 0.1192,-0.006 0.3848,-0.1597 0.0807,-0.036 0.66778,-0.67899 0.44882,-0.45871 0.35428,-0.41369 0.4252,-1.35129 0.29032,-1.6441 0.0113,-0.2092 0.004,-0.28131 -0.0386,-0.2789 -0.001,-0.009 -0.20968,-1.07941 -0.0961,-0.48349 -0.7725,-1.5455 z" id="path563" style="stroke-width:0.125;stroke-miterlimit:4;stroke-dasharray:none"/>
  </g>
  <g id="MINTURNO" style="fill:#f8c300;fill-opacity:1;stroke:#000000;stroke-width:0.125;stroke-linejoin:round;stroke-miterlimit:4;stroke-opacity:1;stroke-dasharray:none" transform="matrix(32,0,0,32,-8354.6515,-10383.079)">
    <path d="m 495.56,444.07019 0.1709,-0.59338 0.45999,-1.44001 2.09411,-4.26641 0.26709,-0.92987 -0.16009,-0.47403 -0.0492,-0.1099 -0.044,-0.0981 -0.1297,-0.2489 -0.10199,-0.15842 -0.0846,-0.13119 -0.17761,-0.2732 -0.70941,-0.9024 -1.3754,-1.7338 -1.33728,-1.09329 -0.1275,-0.0926 -0.14081,-0.22089 -0.0971,-0.16269 -0.4361,-1.01812 -0.0503,-0.20218 -0.005,-0.48352 0.008,-0.22568 -1.70791,-2.61722 -1.23789,1.0957 -2.10309,1.8758 -0.59982,1.57272 -0.62808,1.0492 -0.8934,1.39129 -0.14811,0.21179 -0.1662,0.20511 -0.18859,0.2153 -0.2493,0.2222 -0.57932,0.34641 -1.40289,0.4631 -0.483,0.13529 -0.17649,0.41311 -0.0484,0.0897 -0.0868,0.0693 -1.5383,0.60968 -0.68338,0.3045 -0.1542,0.0838 -0.59952,0.4881 -0.17288,0.1991 -0.10541,0.18112 -0.4332,0.90289 -0.0894,0.20261 -0.0308,0.20569 0.10172,3.17969 0.0703,0.18621 0.3541,0.6074 0.8269,-0.79471 1.5387,-0.92179 0.0497,-0.0237 0.2735,-0.0869 0.11319,-0.027 0.0883,-0.0174 0.32638,-0.0463 0.0842,0.0148 0.0684,0.0185 0.8338,0.40618 0.45688,0.25132 0.3732,0.20819 0.6189,0.38489 0.59411,0.40371 0.18579,0.13281 1.30612,0.95508 0.17679,0.133 1.45819,1.13 0.15052,0.11911 0.64669,0.5242 0.27131,0.24201 1.19128,1.0628 0.34042,0.30878 1.83478,1.67072 0.2883,-0.4968 0.112,-0.21381 0.1004,-0.21319 0.19721,-0.42792 0.6835,-1.55518 0.22131,-1.10012 0.59519,-1.0723 z" id="path602" style="stroke-width:0.125;stroke-miterlimit:4;stroke-dasharray:none"/>
  </g>
  <g id="MONTE_SAN_BIAGIO" style="fill:#f8c300;fill-opacity:1;stroke:#000000;stroke-width:0.125;stroke-linejoin:round;stroke-miterlimit:4;stroke-opacity:1;stroke-dasharray:none" transform="matrix(32,0,0,32,-8354.6515,-10383.079)">
    <path d="m 398.64969,413.2001 0.87421,0.9325 0.3258,0.3775 0.15741,0.18341 0.14328,0.17008 0.12842,0.21392 0.0762,0.20209 0.1174,0.668 0.0355,0.2161 1.22379,2.51501 1.19421,2.1785 0.9469,1.6738 0.26459,0.13748 0.12741,0.0413 0.0679,0.022 0.0699,-0.0181 0.2091,-0.1434 0.16892,-0.1398 0.2446,-0.18942 0.25668,-0.1536 2.04312,-0.91418 0.15998,0.10718 0.2142,0.22171 0.19592,0.2059 0.13999,0.22931 0.6004,1.09128 2.0166,-1.2775 0.11179,-0.0605 0.60372,-0.0676 0.0522,0.0198 0.3226,0.58268 0.0557,0.1943 0.0416,0.1731 0.0425,0.2153 0.0619,0.0441 0.43241,0.19522 0.125,0.0291 1.35501,-0.0717 2.37799,0.0682 1.1405,0.39758 0.12219,0.0188 0.0206,-0.0233 0.0634,-0.0716 0.2572,-0.37222 0.1326,-0.21319 0.54468,-0.98551 0.0918,-0.16858 0.0624,-0.17001 0.0556,-0.15109 0.0394,-0.19229 0.002,-0.25232 -0.1489,-3.87259 0.0445,-4.87372 -1.43192,-2.5336 -0.18149,-0.1586 -0.33981,-0.41959 -0.24298,-1.02099 -0.052,-0.23862 -0.0202,-0.24649 0.1381,-1.4278 0.0217,-0.1502 0.0909,-0.22791 0.1181,-0.1958 0.0905,-0.12299 0.28122,-0.306 0.1308,-0.13009 0.17838,-0.17032 -2.08499,-1.71378 -1.57581,-0.3887 -0.51648,-0.0741 -0.29471,-0.0422 -1.37951,-0.047 -1.05069,4.9e-4 -0.2977,0.0352 -0.211,0.0816 -0.10669,0.20322 -0.0764,0.25949 -0.1571,0.17331 -1.11298,0.4169 -0.2745,0.0717 -1.01032,-0.1806 -0.3288,-0.0212 -0.255,0.009 -0.24139,0.0324 -0.20011,0.0503 -0.20569,0.11051 -0.1159,0.0911 -0.47779,0.53 -0.51162,0.52939 -0.1315,0.0937 -2.96649,0.25168 -1.09919,0.0512 -0.31912,-0.13221 -0.31479,-0.15808 -0.34341,-0.11172 -0.4242,-0.0804 -0.36749,-0.0582 -0.27771,0.0124 -0.17648,0.0927 -0.20191,0.18601 -0.14111,0.13177 -0.0384,0.0359 -0.12991,0.1691 -0.0871,0.1723 0.0184,0.246 0.55972,4.04328 0.1204,0.49951 0.12069,0.15869 0.18741,0.22711 0.11279,0.2096 0.21299,0.95321 0.004,0.194 -0.0816,0.21359 -0.0615,0.10001 -0.0479,0.0781 -0.43552,0.69979 z" id="path620" style="stroke-width:0.125;stroke-miterlimit:4;stroke-dasharray:none"/>
  </g>
  <g id="NORMA" style="fill:#f8c300;fill-opacity:1;stroke:#000000;stroke-width:0.125;stroke-linejoin:round;stroke-miterlimit:4;stroke-opacity:1;stroke-dasharray:none" transform="matrix(32,0,0,32,-8354.6515,-10383.079)">
    <path d="m 335.70679,351.9689 -8e-4,0.24161 0.0871,0.2251 0.11002,0.24438 0.1506,0.23032 0.1145,0.17078 3.0925,3.64221 1.70108,1.0292 0.3255,0.7309 1.10251,0.63779 2.31409,1.49102 0.36191,0.35529 0.2265,0.0983 0.86911,-0.48969 0.73208,-0.7182 1.2439,-1.3634 0.13892,-0.16901 0.3598,-0.022 1.20709,-0.028 0.26529,0.0113 0.8576,0.14039 0.63361,-0.77958 0.12219,-0.16192 0.0944,-0.1323 0.064,-0.16568 0.52808,-1.58352 0.0206,-0.29428 0.0677,-0.30912 0.22049,-0.17889 1.42121,-1.12891 0.0334,-0.0737 -0.004,-0.2669 -0.40839,-1.31049 -0.2937,-0.85269 -0.1181,-0.10251 -0.29379,-0.16421 -0.24542,-0.12207 -0.21659,-0.0569 -0.7471,-0.45221 -1.42251,-1.41989 -1.06418,-1.60751 -0.24521,-0.40918 -0.2959,-0.63392 -0.089,-0.32098 -0.19241,-0.57321 -0.1373,-0.34949 -0.2063,-0.2923 -0.44739,-0.5133 -0.79062,-0.896 -0.54269,0.91388 -1.4007,3.0398 -0.46371,1.02591 -0.38049,0.78369 -0.11719,0.1336 -0.84601,0.95472 -2.40961,0.3034 -2.80169,0.0145 -0.74561,0.58349 -0.56119,0.41419 -0.0454,0.0264 -0.43988,0.2546 -0.28192,0.16031 -0.2113,0.0849 z" id="path701" style="stroke-width:0.125;stroke-miterlimit:4;stroke-dasharray:none"/>
  </g>
  <g id="PONTINIA" style="fill:#f8c300;fill-opacity:1;stroke:#000000;stroke-width:0.125;stroke-linejoin:round;stroke-miterlimit:4;stroke-opacity:1;stroke-dasharray:none" transform="matrix(32,0,0,32,-8354.6515,-10383.079)">
    <path d="m 383.86481,409.6965 0.25409,-1.05221 0.2424,-0.93308 0.3074,-1.09512 0.0778,-0.2753 0.1958,-0.69269 0.62702,-2.12469 0.15689,-0.49732 0.0742,-0.24139 0.0439,-0.17911 0.0264,-0.1221 0.0126,-0.0583 -0.0256,-0.25781 -0.58301,-2.5018 -0.0831,-0.0827 -0.1199,-0.11869 -0.36618,-0.328 -0.85462,-0.76321 -0.13739,-0.0879 -0.0173,-0.0111 -0.005,-0.003 -0.76569,-0.39871 -0.2215,-0.1088 -0.26901,-0.1134 -0.2168,-0.0835 -0.23721,-0.10269 -0.25348,-0.11951 -1.3193,-0.7127 -0.77982,-0.41968 -0.25619,-0.1424 -1.3815,-0.85922 -0.18219,-0.13638 -0.1026,-0.0768 -0.86451,-1.21241 -0.14721,-0.21798 -0.0867,-0.23441 -0.0113,-0.061 -0.0266,-0.1438 -0.0818,-0.23191 -0.0497,-0.0643 -0.0317,-0.0411 -0.0316,-0.0243 -0.15378,-0.11798 -0.01,-0.007 -3.0654,-2.45828 -0.97629,-1.12522 -1.5375,1.37601 -1.24301,1.19299 -2.07258,1.91602 -0.0848,0.0541 -1.14331,-1.20349 -0.41529,-0.4769 -0.50171,-0.50602 -0.11731,-0.0843 -0.0679,0.0385 -0.0416,0.0236 -0.19751,0.16839 -4.00418,3.89832 -1.06882,1.05048 -0.019,0.0208 -0.61191,0.66971 -0.25421,0.25699 -0.009,-0.01 -0.0492,-0.0507 -2.3024,-2.37992 -0.801,-0.8287 -1.5653,-1.53241 -0.0148,0.0135 -0.3375,0.30719 -0.9479,0.88119 -0.54892,0.51001 -0.1529,0.14221 -2.29498,2.16089 -0.2598,0.30469 -0.17642,0.21411 -0.12149,0.17169 -0.0206,0.0291 0.0168,0.035 0.0712,0.14798 0.0919,0.12491 0.0434,0.0591 2.10821,1.45609 1.49408,1.19159 1.14392,0.90402 0.19718,0.13 1.03232,0.57169 0.3042,0.16821 0.32208,0.16449 0.009,0.003 0.0112,0.004 0.13101,0.0507 0.2508,0.0973 0.3374,0.13101 0.35339,0.15229 0.1334,0.0693 0.18029,0.0936 1.3339,1.147 0.42712,0.4191 0.16168,0.24021 0.0972,0.2211 0.10163,0.18948 0.45138,0.69382 0.14648,0.18588 4.24753,3.172 0.49408,0.28112 0.20432,0.14988 0.11389,0.1434 0.0835,0.10541 0.8229,1.05819 0.258,0.34061 0.78341,1.11569 0.0911,0.14221 0.0491,0.0765 0.16489,0.61878 0.1586,0.65042 0.3641,1.37609 0.1652,0.43421 0.24819,0.24518 0.004,0.004 0.0137,0.0135 0.0669,0.0659 0.5423,0.54001 0.26242,0.33631 0.18399,0.25958 0.0888,0.24472 0.13598,0.5491 1.54721,3.80139 0.2371,0.53 1.19769,-1.19741 1.04492,-0.86039 1.1893,-1.0791 0.37158,-0.3616 1.75782,-1.74561 0.12158,-0.1535 0.0176,-0.0222 0.0219,-0.0278 0.0171,-0.0216 7e-4,-0.18009 1.97378,-1.74652 2.31641,-1.70868 0.0756,-0.2847 0.167,-0.52752 0.3284,-0.61438 0.16479,-0.22901 0.34149,-0.40399 1.28922,-1.42911 z" id="path802" style="stroke-width:0.125;stroke-miterlimit:4;stroke-dasharray:none"/>
  </g>
  <g id="PONZA" style="fill:#f8c300;fill-opacity:1;stroke:#000000;stroke-width:1;stroke-linejoin:round;stroke-miterlimit:4;stroke-opacity:1;stroke-dasharray:none" transform="matrix(4,0,0,4,-6563.3774,-9119.0794)">
    <path d="m 2293.6632,3952.7841 2.8287,-4.52 -1.9232,-6.1713 -3.944,0.6384 -1.7944,0.01 -1.1327,-0.8555 -1.8977,-2.5039 -0.352,-1.648 8.1128,-36.9047 4.0394,-6.8843 3.4951,-5.6294 0.2568,-0.3408 11.3279,-11.0024 1.3664,-0.8305 1.8985,-0.724 9.8095,-3.7304 5.0809,-0.284 2.1848,-0.4272 3.065,-1.1529 4.5214,-4.9966 -0.4416,-1.644 -0.4152,-1.4688 -1.4633,-1.3721 -0.5136,-0.1152 -16.6233,-2.4038 -0.8513,0.152 -7.1494,4.5928 -10.2617,6.9023 -4.2239,5.5235 -0.8984,4.3223 -0.3688,0.7872 -0.7464,0.56 -2.6712,2.1992 -2.5456,3.0693 -1.7232,2.0332 -4.1816,2.3897 -3.1712,-2.3706 -2.1696,-1.2671 -1.2241,-0.3848 -0.4328,-0.1208 -0.7504,0.2216 -7.9617,4.8409 -0.5968,1.5679 -9.0031,36.1088 12.0014,8.6216 -3.6247,19.2579 2.2336,3.8134 6.1585,10.2871 1.3566,0.5 2.2411,-0.7448 2.4206,-0.8823 1.2768,-0.7616 0.8753,-0.5984 1.9016,-1.3804 0.48,-0.4152 3.9743,-6.3096 2.1497,-7.5517 z" id="path805" style="fill-opacity:1;stroke-width:1;stroke-linejoin:round;stroke-miterlimit:4;stroke-opacity:1;stroke-dasharray:none"/>
    <path d="m 2114.9961,3845.613 7.981,-0.6944 4.2409,-13.4846 3.0815,0.1514 3.0765,8.628 2.0281,15.9662 -2.617,16.1726 -4.3305,2.6128 -4.9679,2.1465 -3.075,8.1082 -4.5931,7.5988 -2.5239,1.832 2.1083,-14.8934 6.5137,-10.5474 3.4957,-3.523 -1.5537,-16.5951 -8.8646,-3.4786 z" id="path4540" style="stroke-width:1;stroke-miterlimit:4;stroke-dasharray:none"/>
    <path d="m 2429.8377,3788.1694 7.1633,-1.93 6.9179,2.7309 1.1453,5.4901 1.3483,5.826 -7.4176,2.5696 -5.6527,0.4829 -8.8744,-1.197 -2.7758,-1.7666 1.7617,-6.2165 0.8731,-1.9133 5.5109,-4.0761 z" id="path4544" style="stroke-width:1;stroke-miterlimit:4;stroke-dasharray:none"/>
  </g>
  <g id="PRIVERNO" style="fill:#f8c300;fill-opacity:1;stroke:#000000;stroke-width:0.125;stroke-linejoin:round;stroke-miterlimit:4;stroke-opacity:1;stroke-dasharray:none" transform="matrix(32,0,0,32,-8354.6515,-10383.079)">
    <path d="m 387.5795,394.07489 0.6817,-1.20551 0.0616,-0.19079 -0.43661,-2.31238 -0.40311,-0.5726 -0.30758,-0.22702 -0.11182,-0.15711 -0.81299,-1.24798 -0.0677,-0.21079 -0.42431,-1.4797 0.1723,-1.8414 0.0368,-0.18631 1.52481,-1.75809 2.56888,-1.18222 1.1814,-0.5368 1.0726,-0.11359 -0.32999,-2.64569 0.11029,-3.586 -0.4252,1.35129 -0.35428,0.41369 -0.44882,0.45871 -0.66778,0.67899 -0.0807,0.036 -0.3848,0.1597 -0.1192,0.006 -0.5144,-0.1543 -0.6923,-0.33579 -0.3832,-0.2171 -1.30399,0.31079 -2.3244,0.6579 -0.56571,0.003 -0.18789,-0.10949 -0.82679,-0.35721 -2.3493,-0.5383 -0.21139,-0.0365 -1.39112,0.0396 -1.45459,0.14258 -0.2417,0.12042 -0.0607,0.0302 -0.7052,0.47312 -1.64761,0.98959 -0.52731,0.27539 -0.2764,0.0882 -0.20838,0.005 -1.12841,-0.0714 -0.3938,-0.10791 -0.0277,0.18109 -0.14038,0.2178 -0.1214,0.1434 -0.16342,0.17911 -0.1767,0.0975 -0.4711,0.0902 -0.31189,0.0181 -0.3179,0.0577 -0.17569,0.1409 -0.16342,0.1882 -0.26609,0.35202 -0.0242,0.13788 0.0974,0.11401 0.80822,0.7432 0.33539,0.2327 0.7543,0.3497 0.0651,0.2915 0.11081,0.7291 0.005,0.43109 -0.43991,0.58182 -1.06479,2.233 -0.008,0.0258 -0.0425,0.137 0.009,0.0997 0.0141,0.15002 0.11349,0.23108 1.5513,1.97 0.97629,1.12522 3.0654,2.45828 0.01,0.007 0.15378,0.11798 0.0316,0.0243 0.0317,0.0411 0.0497,0.0643 0.0818,0.23191 0.0266,0.1438 0.0113,0.061 0.0867,0.23441 0.14721,0.21798 0.86451,1.21241 0.1026,0.0768 0.18219,0.13638 1.3815,0.85922 0.25619,0.1424 0.77982,0.41968 1.3193,0.7127 0.25348,0.11951 0.23721,0.10269 0.2168,0.0835 0.26901,0.1134 0.2215,0.1088 0.76569,0.39871 0.005,0.003 0.0173,0.0111 0.13739,0.0879 0.85462,0.76321 0.36618,0.328 0.1199,0.11869 0.0831,0.0827 0.6029,-3.20069 0.1041,-0.54769 0.0596,-0.18552 0.0273,-0.085 0.0965,-0.1434 0.2103,-0.004 0.2066,0.0477 0.4436,-0.0888 0.0517,-0.0192 0.0514,-0.0214 0.0897,-0.0412 0.7742,-0.38938 0.0373,-0.0609 -0.0103,-0.0518 -0.15338,-0.3096 -0.28671,-0.48932 z" id="path822" style="stroke-width:0.125;stroke-miterlimit:4;stroke-dasharray:none"/>
  </g>
  <g id="PROSSEDI" style="fill:#f8c300;fill-opacity:1;stroke:#000000;stroke-width:0.125;stroke-linejoin:round;stroke-miterlimit:4;stroke-opacity:1;stroke-dasharray:none" transform="matrix(32,0,0,32,-8354.6515,-10383.079)">
    <path d="m 404.353,382.75159 -0.45951,-0.5838 -1.68069,-3.07248 -0.0613,-0.1171 -0.0104,-0.0746 -0.15332,-1.10748 0.12781,-0.97842 -0.65591,-1.6854 -0.4581,-1.42138 -0.1402,-0.3227 -0.1105,-0.22091 -0.17118,-0.2981 -1.3067,-1.60379 -0.19202,-0.1987 -0.71399,-0.6066 -0.11019,-0.0864 -0.698,-0.47348 -0.21112,-0.13471 -0.211,-0.13019 -0.22168,-0.0964 -0.93332,-0.3678 -0.71869,-0.1496 -2.22089,-0.20101 -0.30831,-0.0118 -1.45109,0.28112 0.7725,1.5455 0.0961,0.48349 0.20968,1.07941 0.001,0.009 0.0386,0.2789 -0.004,0.28131 -0.0113,0.2092 -0.29032,1.6441 -0.11029,3.586 0.32999,2.64569 1.42972,0.20291 0.19568,0.151 0.1571,0.1673 0.16171,0.26559 0.58399,1.0308 1.68042,3.45129 0.53879,1.26682 -0.003,0.28018 0.0299,0.2431 0.0943,0.53702 0.0575,0.27408 0.1423,0.32281 0.16498,0.33869 0.12192,0.2124 0.16568,0.26132 0.18411,0.2724 0.21298,0.242 0.19773,0.16248 0.21298,0.13141 0.11911,0.0639 0.0777,0.0417 0.1445,0.0704 0.0585,0.0286 0.51959,0.19082 0.2056,-0.11712 0.28391,-0.1694 0.92431,-0.83268 0.96839,-0.89541 0.2817,-0.2789 0.28229,-0.24689 0.30472,-0.15231 0.71728,-0.21491 0.34671,-0.092 0.29319,-0.0378 0.33371,-0.0562 0.20501,-0.155 1.13758,-1.40418 0.014,-0.087 -0.77389,-2.5589 -0.0835,-0.21961 -0.11401,-0.1618 -0.53729,-0.62991 z" id="path828" style="stroke-width:0.125;stroke-miterlimit:4;stroke-dasharray:none"/>
  </g>
  <g id="ROCCA_MASSIMA" style="fill:#f8c300;fill-opacity:1;stroke:#000000;stroke-width:0.125;stroke-linejoin:round;stroke-miterlimit:4;stroke-opacity:1;stroke-dasharray:none" transform="matrix(32,0,0,32,-8354.6515,-10383.079)">
    <path d="m 326.7926,327.82111 1.29209,1.22009 0.74371,0.33469 0.2493,0.0831 1.3948,1.25919 -0.5585,0.3667 -0.8822,0.7691 -0.0679,0.19751 -0.1893,0.7984 -0.007,0.0829 0.86429,0.56021 0.3016,0.17218 0.43311,0.1724 1.43619,0.54531 0.6658,0.23099 0.12161,0.038 0.2078,0.0649 0.61731,0.19229 3.81719,0.7814 0.30961,0.045 0.27618,-0.034 0.8345,-0.87461 -0.22458,-1.7167 0.1673,-1.65299 0.14899,-0.22451 0.21841,-0.17569 0.21088,-0.0963 0.2594,-0.0724 0.25131,-0.2164 0.55341,-0.79511 0.11279,-0.16919 9e-5,-0.0923 0,-0.0422 -0.43689,-0.23328 -0.19821,-0.1231 -0.18008,-0.22831 -0.18641,-0.29351 -0.3507,-1.09791 -0.0577,-0.32177 -0.12799,-0.3262 -1.00809,-2.0091 -2.48532,0.42947 -0.27979,0.0681 -0.36209,0.23639 -1.27081,0.5939 -1.3345,0.20801 -0.0463,-0.003 -0.1925,-0.0156 -0.28031,-0.0458 -0.2453,-0.0922 -0.76608,-0.51251 -0.7955,-0.4043 -0.34622,-0.0431 -0.27558,0.0604 -1.87442,0.50299 -0.15109,0.0436 -0.31329,0.0904 -0.23002,0.16281 -0.0628,0.39148 0.29971,1.21042 z" id="path863" style="stroke-width:0.125;stroke-miterlimit:4;stroke-dasharray:none"/>
  </g>
  <g id="ROCCAGORGA" style="fill:#f8c300;fill-opacity:1;stroke:#000000;stroke-width:0.125;stroke-linejoin:round;stroke-miterlimit:4;stroke-opacity:1;stroke-dasharray:none" transform="matrix(32,0,0,32,-8354.6515,-10383.079)">
    <path d="m 368.98221,367.51999 -0.0163,0.0869 -0.19531,0.4968 -0.12579,0.2652 -0.0462,0.0574 -0.11471,0.1423 -0.30558,0.31369 -0.2373,0.1243 -0.0865,0.0836 -0.14578,1.82809 -0.0116,0.29349 1.9e-4,0.18582 9e-5,0.0388 0.043,0.6095 0.0276,0.2316 0.2178,0.643 0.0926,0.1937 0.15469,0.2456 0.72602,1.1153 0.11389,0.1297 0.14789,0.14041 0.1827,-0.03 0.7587,0.1185 0.16312,0.11038 0.42309,0.30292 0.54249,0.69739 0.4281,0.63839 0.0767,0.2009 0.0907,0.3212 0.33389,1.82831 0.3938,0.10791 1.12841,0.0714 0.20838,-0.005 0.2764,-0.0882 0.52731,-0.27539 1.64761,-0.98959 0.7052,-0.47312 0.0607,-0.0302 0.2417,-0.12042 1.45459,-0.14258 1.39112,-0.0396 0.78399,-2.64731 -0.13922,-4.9306 -3.4155,-2.12399 -3.09649,-0.76059 -0.33911,-0.0745 -0.9607,-0.10901 -0.1141,-0.0522 -0.25598,-0.10809 -0.27222,-0.11451 -1.73349,-0.6806 -0.30609,-0.0113 -0.25812,0.12439 -0.29199,0.30972 -0.2435,0.35648 -0.19959,0.40301 -0.4313,0.99039 z" id="path882" style="stroke-width:0.125;stroke-miterlimit:4;stroke-dasharray:none"/>
  </g>
  <g id="ROCCASECCA_DEI_VOLSCI" style="fill:#f8c300;fill-opacity:1;stroke:#000000;stroke-width:0.125;stroke-linejoin:round;stroke-miterlimit:4;stroke-opacity:1;stroke-dasharray:none" transform="matrix(32,0,0,32,-8354.6515,-10383.079)">
    <path d="m 399.56329,391.06161 -0.51959,-0.19082 -0.0585,-0.0286 -0.1445,-0.0704 -0.0777,-0.0417 -0.11911,-0.0639 -0.21298,-0.13141 -0.19773,-0.16248 -0.21298,-0.242 -0.18411,-0.2724 -0.16568,-0.26132 -0.12192,-0.2124 -0.16498,-0.33869 -0.1423,-0.32281 -0.0575,-0.27408 -0.0943,-0.53702 -0.0299,-0.2431 0.003,-0.28018 -0.53879,-1.26682 -1.68042,-3.45129 -0.58399,-1.0308 -0.16171,-0.26559 -0.1571,-0.1673 -0.19568,-0.151 -1.42972,-0.20291 -1.0726,0.11359 -1.1814,0.5368 -2.56888,1.18222 -1.52481,1.75809 -0.0368,0.18631 -0.1723,1.8414 0.42431,1.4797 0.0677,0.21079 0.81299,1.24798 0.11182,0.15711 0.30758,0.22702 0.40311,0.5726 0.43661,2.31238 -0.0616,0.19079 -0.6817,1.20551 1.14722,0.5441 0.16098,0.025 0.14111,-0.0694 0.19879,-0.11557 0.23431,-0.15612 0.2547,-0.26099 0.46378,-0.4263 0.24121,-0.14419 3.4913,-2.01511 0.0856,-0.008 0.91459,1.05511 0.1542,0.24359 0.19132,0.51551 0.0523,0.24078 0.1138,0.2598 0.35849,0.729 1.1196,1.15662 0.16629,0.1644 0.14643,0.0882 0.20477,0.0717 0.0867,0.0171 0.94922,-1.57962 0.30118,-1.7916 0.0657,-0.22238 0.0863,-0.20432 0.6539,-1.13028 z" id="path891" style="stroke-width:0.125;stroke-miterlimit:4;stroke-dasharray:none"/>
  </g>
  <g id="SABAUDIA" style="fill:#f8c300;fill-opacity:1;stroke:#000000;stroke-width:0.125;stroke-linejoin:round;stroke-miterlimit:4;stroke-opacity:1;stroke-dasharray:none" transform="matrix(32,0,0,32,-8354.6515,-10383.079)">
    <path d="m 333.45001,408.3812 0.19919,0.1014 0.24731,0.13431 0.19559,0.1308 0.20639,0.15228 0.95352,0.77112 0.64249,0.52948 0.31891,0.26242 0.5162,0.43009 0.71109,0.6141 2.21619,2.0055 0.92172,0.89151 0.9249,0.93429 0.55908,0.58289 0.32861,0.36551 2.84589,3.6578 0.86652,1.26431 1.10339,1.60569 0.22321,0.34381 0.0734,0.11477 0.46311,0.76502 0.4989,0.84619 0.47659,0.8663 1.3291,2.4235 0.73721,1.44671 0.4029,0.7891 0.28488,0.60021 1.01022,2.15049 0.40418,0.93829 0.31152,0.72681 0.28018,0.6589 0.177,0.4234 0.25931,0.61911 0.5141,1.31299 0.0445,0.11789 0.28021,0.7598 0.23468,0.68222 0.0405,0.11798 0.85311,2.54361 0.0915,0.58511 -0.0204,0.20218 -0.0431,0.0315 0.74451,-0.22522 0.56649,-0.006 0.46881,-7.1e-4 0.4943,0.12711 0.31589,0.11182 0.10592,0.0406 0.151,0.0581 0.30979,0.14801 0.1712,0.097 0.23111,0.15911 0.1622,0.19458 0.14288,0.13791 0.1717,0.11859 0.1232,0.0594 0.15631,0.0416 0.11541,0.0203 0.57178,-0.0356 0.72431,-0.0614 0.77139,-0.0957 0.10901,-0.0655 0.0592,-0.0724 10e-4,-0.0597 -0.0182,-0.11779 -0.0973,-0.31693 -0.24011,-0.77048 -0.48279,-3.29541 0.1362,-0.57712 0.01,-0.45239 4e-4,-0.0175 -0.0178,-1.41822 -0.29148,-1.14898 -0.0125,-0.048 -0.0542,-0.20819 -0.0466,-0.18002 -0.31051,-0.88208 -0.0664,-0.14911 -0.0624,-0.069 -0.0546,-0.0675 -0.0847,-0.1044 -0.14368,-0.2781 -0.0232,-0.0467 -0.047,-0.0985 0.005,-0.0305 0.008,-0.0504 0.17541,-0.22992 0.97638,-1.03888 1.1217,-1.10821 0.1987,-0.19119 0.39371,-0.36771 0.14581,-0.1355 0.18589,-0.16791 2.43609,-2.51239 3.5708,-3.72061 1.35621,-1.48279 -0.2371,-0.53 -1.54721,-3.80139 -0.13598,-0.5491 -0.0888,-0.24472 -0.18399,-0.25958 -0.26242,-0.33631 -0.5423,-0.54001 -0.0669,-0.0659 -0.0137,-0.0135 -0.004,-0.004 -0.24819,-0.24518 -0.1652,-0.43421 -0.3641,-1.37609 -0.1586,-0.65042 -0.16489,-0.61878 -0.0491,-0.0765 -0.0911,-0.14221 -0.78341,-1.11569 -0.258,-0.34061 -0.8229,-1.05819 -0.0835,-0.10541 -0.11389,-0.1434 -0.20432,-0.14988 -0.49408,-0.28112 -4.24753,-3.172 -0.14648,-0.18588 -0.45138,-0.69382 -0.10163,-0.18948 -0.0972,-0.2211 -0.16168,-0.24021 -0.42712,-0.4191 -1.3339,-1.147 -0.18029,-0.0936 -0.1334,-0.0693 -0.35339,-0.15229 -0.3374,-0.13101 -0.2508,-0.0973 -0.13101,-0.0507 -0.0112,-0.004 -0.009,-0.003 -0.32208,-0.16449 -0.3042,-0.16821 -1.03232,-0.57169 -0.19718,-0.13 -1.14392,-0.90402 -1.49408,-1.19159 -2.10821,-1.45609 -0.23599,0.65479 -0.10611,0.2994 -0.5456,1.6319 -0.1705,0.5528 -0.0762,0.32821 -0.0922,0.31708 -0.0978,0.26221 -0.11939,0.31231 -0.0107,0.0281 -0.0779,0.10062 -0.0821,0.10608 -1.3176,1.3739 -2.55109,2.63662 -0.19912,0.18229 -0.27579,0.0932 -0.3284,0.0623 -0.33749,0.0585 -3.2193,0.492 -2.88852,0.3335 -0.4877,0.0152 -0.6139,0.0186 -0.31259,0.01 -0.0278,9.1e-4 -0.61911,0.0195 -0.25449,0.0305 -0.2135,0.0461 -0.1228,0.0582 -0.13019,0.1286 -0.14792,0.15158 -0.29788,0.32401 z" id="path908" style="stroke-width:0.125;stroke-miterlimit:4;stroke-dasharray:none"/>
  </g>
  <g id="SAN_FELICE_CIRCEO" style="fill:#f8c300;fill-opacity:1;stroke:#000000;stroke-width:0.125;stroke-linejoin:round;stroke-miterlimit:4;stroke-opacity:1;stroke-dasharray:none" transform="matrix(32,0,0,32,-8354.6515,-10383.079)">
    <path d="m 359.4628,448.4519 0.0885,0.0837 0.27789,0.18299 0.0681,0.0314 2.39389,0.62109 4.96051,-0.68649 -0.0683,-0.16449 -0.003,-0.0476 0.14179,-0.48181 0.20682,-0.69418 0.0204,-0.0686 1.5224,-2.50022 0.2338,-0.2926 2.34481,-2.00629 2.72821,-1.95031 0.15299,-0.10669 0.20779,-0.14429 0.20642,-0.12122 -1.33181,-1.33758 -1.00391,-1.18701 -0.0616,-0.0914 -0.1319,-0.19599 -0.54791,-1.1513 -0.21021,-0.4444 -0.449,-1.0622 -0.0779,-0.20721 -0.1518,-0.40341 -0.2442,-0.42768 -0.0723,-0.12661 -0.0463,-0.0581 -0.15558,-0.10089 -0.0409,-0.006 -0.18069,-0.0264 -0.22818,-0.0177 -0.13541,0.001 -0.14419,0.007 -3.69061,0.30121 -3.64689,0.33951 -1.0852,0.0785 0.0664,0.14911 0.31051,0.88208 0.0466,0.18002 0.0542,0.20819 0.0125,0.048 0.29148,1.14898 0.0178,1.41822 -4e-4,0.0175 -0.01,0.45239 -0.1362,0.57712 0.48279,3.29541 0.24011,0.77048 0.0973,0.31693 0.0182,0.11779 -10e-4,0.0597 -0.0592,0.0724 -0.10901,0.0655 -0.77139,0.0957 -0.72431,0.0614 -0.57178,0.0356 -0.11541,-0.0203 -0.15631,-0.0416 -0.1232,-0.0594 -0.1717,-0.11859 -0.14288,-0.13791 -0.1622,-0.19458 -0.23111,-0.15911 -0.1712,-0.097 -0.30979,-0.14801 -0.151,-0.0581 -0.10592,-0.0406 -0.31589,-0.11182 -0.4943,-0.12711 -0.46881,7.1e-4 -0.56649,0.006 -0.74451,0.22522 -0.0591,2.7e-4 -0.2056,0.009 -0.2153,0.7908 0.0969,0.81369 1.20679,2.50891 0.0102,0.0183 0.6456,0.77008 0.35828,0.2779 0.0287,0.0191 0.6112,0.20181 0.15509,0.047 0.6962,0.1141 z" id="path929" style="stroke-width:0.125;stroke-miterlimit:4;stroke-dasharray:none"/>
  </g>
  <g id="SANTI_COSMA_E_DAMIANO" style="fill:#f8c300;fill-opacity:1;stroke:#000000;stroke-width:0.125;stroke-linejoin:round;stroke-miterlimit:4;stroke-opacity:1;stroke-dasharray:none" transform="matrix(32,0,0,32,-8354.6515,-10383.079)">
    <path d="m 495.56,444.07019 1.27969,0.0417 5.1453,-0.58301 2.08871,-0.25421 2.26901,-1.11228 0.078,-0.0697 0.43152,-0.43832 0.9007,-1.79779 0.34549,-0.81931 -0.0593,-0.21298 -0.92129,-0.77692 -0.17291,-0.10888 -1.21738,-2.67731 -0.0624,-0.28391 0.0441,-0.2608 0.11761,-0.2886 0.035,-0.042 0.0269,-0.0323 0.005,-0.84391 -0.0114,-0.0405 -0.24298,-0.43201 -0.0814,-0.11279 -0.0872,-0.079 -0.11859,-0.0443 -0.0758,-0.0282 -0.2941,-0.10938 -0.544,-1.38412 -0.4188,-2.17978 -0.2853,-2.7114 0.1582,-0.1358 0.24771,-0.22092 0.13989,-0.1585 0.0454,-0.14219 0.0855,-0.3735 0.0119,-0.61591 -0.0461,-0.2272 -0.1138,-0.39819 -2.70401,0.64911 -3.08609,2.06668 -3.74591,1.781 -1.1922,0.59882 -0.008,0.22568 0.005,0.48352 0.0503,0.20218 0.4361,1.01812 0.0971,0.16269 0.14081,0.22089 0.1275,0.0926 1.33728,1.09329 1.3754,1.7338 0.70941,0.9024 0.17761,0.2732 0.0846,0.13119 0.10199,0.15842 0.1297,0.2489 0.044,0.0981 0.0492,0.1099 0.16009,0.47403 -0.26709,0.92987 -2.09411,4.26641 -0.45999,1.44001 -0.1709,0.59338 z" id="path974" style="stroke-width:0.125;stroke-miterlimit:4;stroke-dasharray:none"/>
  </g>
  <g id="SERMONETA" style="fill:#f8c300;fill-opacity:1;stroke:#000000;stroke-width:0.125;stroke-linejoin:round;stroke-miterlimit:4;stroke-opacity:1;stroke-dasharray:none" transform="matrix(32,0,0,32,-8354.6515,-10383.079)">
    <path d="m 345.0549,383.18329 0.34351,-0.30658 0.32769,-0.31082 0.46479,-0.44458 0.16592,-0.2681 -0.008,-0.33212 -0.0589,-0.12689 -0.005,-0.0118 -0.0953,-0.2049 -0.18661,-0.33469 -0.2236,-0.37631 -0.1789,-0.20318 -0.0491,-0.55512 -0.0557,-1.03409 0.008,-0.15701 0.03,-0.5571 0.0106,-0.1351 0.0414,-0.16 0.12939,-0.0851 0.63409,-0.37521 0.63001,-0.45279 0.35708,-0.51459 0.36411,-0.6008 0.03,-0.15271 0.0146,-0.0743 0.0389,-0.47348 0.49411,-1.14651 1.33599,-1.76251 1.3967,-1.00379 1.92032,-1.37591 0.15708,-0.16809 -0.0194,-0.14679 -0.7295,-2.69461 -0.74072,-1.69999 -0.31799,-0.52661 -0.21979,-0.30209 -0.0547,-0.0755 -0.11129,-0.15341 -0.1684,-0.1333 -0.42401,-0.10639 -0.33838,-0.13321 -0.24512,-0.11981 -1.08798,-0.72668 -1.48791,-1.55222 -0.98099,-0.53238 -0.86911,0.48969 -0.2265,-0.0983 -0.36191,-0.35529 -2.31409,-1.49102 -1.10251,-0.63779 -0.0602,1.8129 -0.0576,0.22991 -0.0173,0.0528 -0.0242,0.0433 -0.0341,0.0429 -0.29419,0.26111 -1.04141,-0.58951 -0.4155,-0.3291 -0.0881,-0.0678 -0.94782,-0.729 -0.0765,-0.0141 -0.0624,-0.0115 -0.38559,-0.012 -0.14001,0.0125 -0.0115,0.001 -0.10739,0.0521 -0.15881,0.0953 -1.9571,1.1788 -2.53219,2.94339 -0.1391,0.2587 -0.0841,0.15631 0.29392,0.2619 0.88018,0.63599 0.38272,0.17291 0.4325,0.3674 0.0555,0.0517 0.0133,0.0791 0.1004,0.98502 -0.1221,0.29067 0.69739,0.39271 2.8435,1.60101 0.15222,0.0858 0.007,0.004 0.5083,0.28269 0.60141,0.33459 0.0213,0.0119 0.8312,0.46082 0.15921,0.0518 0.4679,0.2507 0.39008,0.2186 -0.53379,1.47201 -0.48071,1.44 -0.0808,0.2905 0.0185,0.11289 0.3787,0.8948 0.13861,0.21051 0.20849,0.30139 0.1149,0.2663 0.0593,0.3082 0.0432,0.29721 -0.0288,0.31329 -0.11041,0.21491 -0.2829,0.48388 -0.46039,0.6604 -0.30029,0.36801 -0.0182,0.0231 0.31851,0.3486 3.32819,3.35788 1.37451,1.4086 z" id="path992" style="stroke-width:0.125;stroke-miterlimit:4;stroke-dasharray:none"/>
  </g>
  <g id="SEZZE" style="fill:#f8c300;fill-opacity:1;stroke:#000000;stroke-width:0.125;stroke-linejoin:round;stroke-miterlimit:4;stroke-opacity:1;stroke-dasharray:none" transform="matrix(32,0,0,32,-8354.6515,-10383.079)">
    <path d="m 372.2204,378.9332 -0.33389,-1.82831 -0.0907,-0.3212 -0.0767,-0.2009 -0.4281,-0.63839 -0.54249,-0.69739 -0.42309,-0.30292 -0.16312,-0.11038 -0.7587,-0.1185 -0.1827,0.03 -0.14789,-0.14041 -0.11389,-0.1297 -0.72602,-1.1153 -0.15469,-0.2456 -0.0926,-0.1937 -0.2178,-0.643 -0.0276,-0.2316 -0.043,-0.6095 -9e-5,-0.0388 -1.9e-4,-0.18582 0.0116,-0.29349 0.14578,-1.82809 0.0865,-0.0836 0.2373,-0.1243 0.30558,-0.31369 0.11471,-0.1423 0.0462,-0.0574 0.12579,-0.2652 0.19531,-0.4968 0.0163,-0.0869 -1.3826,-2.4165 -2.29172,-1.52848 -0.0535,-0.007 -0.13278,-0.0143 -0.5791,-0.055 -0.16672,0.44119 -0.3515,0.81082 -0.0577,0.0941 -3.24551,4.7265 -3.7522,2.28229 -2.04559,2.10122 -0.18051,0.9137 -1.13449,1.1868 -0.2038,0.19558 -0.93341,-0.4382 -0.23859,-0.14108 -1.82949,-0.22012 -0.72001,0.6856 -0.22512,0.15592 -0.0759,-0.0537 -0.92499,-0.7533 -0.67361,-0.54999 -0.0389,0.47348 -0.0146,0.0743 -0.03,0.15271 -0.36411,0.6008 -0.35708,0.51459 -0.63001,0.45279 -0.63409,0.37521 -0.12939,0.0851 -0.0414,0.16 -0.0106,0.1351 -0.03,0.5571 -0.008,0.15701 0.0557,1.03409 0.0491,0.55512 0.1789,0.20318 0.2236,0.37631 0.18661,0.33469 0.0953,0.2049 0.005,0.0118 0.0589,0.12689 0.008,0.33212 -0.16592,0.2681 -0.46479,0.44458 -0.32769,0.31082 -0.34351,0.30658 1.10999,1.1344 6.1318,6.38992 0.92932,0.98209 0.52838,0.56729 0.16932,0.1922 0.10519,0.15372 0.0328,0.0479 1.5653,1.53241 0.801,0.8287 2.3024,2.37992 0.0492,0.0507 0.009,0.01 0.25421,-0.25699 0.61191,-0.66971 0.019,-0.0208 1.06882,-1.05048 4.00418,-3.89832 0.19751,-0.16839 0.0416,-0.0236 0.0679,-0.0385 0.11731,0.0843 0.50171,0.50602 0.41529,0.4769 1.14331,1.20349 0.0848,-0.0541 2.07258,-1.91602 1.24301,-1.19299 1.5375,-1.37601 -1.5513,-1.97 -0.11349,-0.23108 -0.0141,-0.15002 -0.009,-0.0997 0.0425,-0.137 0.008,-0.0258 1.06479,-2.233 0.43991,-0.58182 -0.005,-0.43109 -0.11081,-0.7291 -0.0651,-0.2915 -0.7543,-0.3497 -0.33539,-0.2327 -0.80822,-0.7432 -0.0974,-0.11401 0.0242,-0.13788 0.26609,-0.35202 0.16342,-0.1882 0.17569,-0.1409 0.3179,-0.0577 0.31189,-0.0181 0.4711,-0.0902 0.1767,-0.0975 0.16342,-0.17911 0.1214,-0.1434 0.14038,-0.2178 0.0277,-0.18109 z" id="path1001" style="stroke-width:0.125;stroke-miterlimit:4;stroke-dasharray:none"/>
  </g>
  <g id="SONNINO" style="fill:#f8c300;fill-opacity:1;stroke:#000000;stroke-width:0.125;stroke-linejoin:round;stroke-miterlimit:4;stroke-opacity:1;stroke-dasharray:none" transform="matrix(32,0,0,32,-8354.6515,-10383.079)">
    <path d="m 383.86481,409.6965 0.0991,0.21829 0.0433,0.0952 0.1604,0.3457 0.0783,0.16858 2.0065,2.6644 0.7796,0.78421 5.2587,1.73788 0.2319,0.0753 4.17408,-0.3988 0.49282,-0.0677 0.0319,-0.004 1.04718,-0.14411 0.35311,-0.0713 0.028,-1.89981 0.43552,-0.69979 0.0479,-0.0781 0.0615,-0.10001 0.0816,-0.21359 -0.004,-0.194 -0.21299,-0.95321 -0.11279,-0.2096 -0.18741,-0.22711 -0.12069,-0.15869 -0.1204,-0.49951 -0.55972,-4.04328 -0.0184,-0.246 0.0871,-0.1723 0.12991,-0.1691 0.0384,-0.0359 0.14111,-0.13177 0.20191,-0.18601 0.17648,-0.0927 0.27771,-0.0124 0.36749,0.0582 0.4242,0.0804 0.34341,0.11172 0.31479,0.15808 0.31912,0.13221 1.09919,-0.0512 2.96649,-0.25168 0.1315,-0.0937 0.51162,-0.52939 0.47779,-0.53 0.1159,-0.0911 0.20569,-0.11051 0.20011,-0.0503 0.24139,-0.0324 0.255,-0.009 0.3288,0.0212 -0.42169,-0.49429 -1.0546,-1.93021 -0.5235,-1.11929 -0.1221,-0.23859 -0.1842,-0.28622 -1.7485,-1.33789 -0.0143,-0.0109 -0.1969,-0.14902 -0.2239,-0.0822 -0.0242,-0.009 -4.8436,-1.75842 -0.43042,-0.18408 -0.0867,-0.0171 -0.20477,-0.0717 -0.14643,-0.0882 -0.16629,-0.1644 -1.1196,-1.15662 -0.35849,-0.729 -0.1138,-0.2598 -0.0523,-0.24078 -0.19132,-0.51551 -0.1542,-0.24359 -0.91459,-1.05511 -0.0856,0.008 -3.4913,2.01511 -0.24121,0.14419 -0.46378,0.4263 -0.2547,0.26099 -0.23431,0.15612 -0.19879,0.11557 -0.14111,0.0694 -0.16098,-0.025 -1.14722,-0.5441 0.28671,0.48932 0.15338,0.3096 0.0103,0.0518 -0.0373,0.0609 -0.7742,0.38938 -0.0897,0.0412 -0.0514,0.0214 -0.0517,0.0192 -0.4436,0.0888 -0.2066,-0.0477 -0.2103,0.004 -0.0965,0.1434 -0.0273,0.085 -0.0596,0.18552 -0.1041,0.54769 -0.6029,3.20069 0.58301,2.5018 0.0256,0.25781 -0.0126,0.0583 -0.0264,0.1221 -0.0439,0.17911 -0.0742,0.24139 -0.15689,0.49732 -0.62702,2.12469 -0.1958,0.69269 -0.0778,0.2753 -0.3074,1.09512 -0.2424,0.93308 -0.25409,1.05221 z" id="path1007" style="stroke-width:0.125;stroke-miterlimit:4;stroke-dasharray:none"/>
  </g>
  <g id="SPERLONGA" style="fill:#f8c300;fill-opacity:1;stroke:#000000;stroke-width:0.125;stroke-linejoin:round;stroke-miterlimit:4;stroke-opacity:1;stroke-dasharray:none" transform="matrix(32,0,0,32,-8354.6515,-10383.079)">
    <path d="m 424.21741,436.2392 0.53888,0.24991 1.80481,0.87368 0.18121,0.10602 6.81238,4.0697 0.18701,0.1185 1.69159,1.25629 0.26422,0.1962 0.3989,0.30871 0.0634,0.0667 0.1853,0.19641 0.56601,0.90729 1.29968,0.7999 0.66861,-0.27088 0.0735,-0.0389 0.019,-0.0112 0.0636,-0.0556 0.0186,-0.0306 0.11169,-0.1853 -0.87259,-1.82458 -0.0826,-0.2129 -0.18579,-0.9591 -0.002,-0.11872 0.13788,-0.75189 0.0463,-0.18789 0.0721,-0.28 0.0173,-0.0514 0.0575,-0.17037 -0.0628,-0.89341 -0.0337,-0.24569 -0.19381,-1.0336 -0.62589,-2.0044 -0.0259,-0.0663 -0.007,-0.0152 -0.004,-0.008 -0.0404,-0.0785 -0.25162,-0.32761 -0.13718,-0.112 -0.7203,-0.55499 -0.78922,-0.63599 -0.31268,-0.33651 -0.1514,-0.24491 -0.0382,-0.14679 -0.0407,-0.18219 -0.0138,-0.17392 0.0122,-0.0849 0.0331,-0.2308 0.0125,-0.0563 0.0212,-0.0604 0.0518,-0.13638 0.0146,-0.0232 -0.70282,0.70548 -2.0831,0.84262 -1.1384,-0.89661 -0.3703,-0.27111 -0.0843,-0.0488 -1.43359,-0.44098 -0.26981,-0.0778 -0.2945,-0.0721 -0.2301,-0.005 -0.2073,0.0156 -0.14182,0.0257 -0.17248,0.055 -0.24341,0.0296 -1.28781,-0.14718 -0.521,-0.55792 -0.1665,-0.2034 -0.23658,-0.4715 -0.11172,-0.2793 -1.84818,1.09742 -0.67892,0.42678 0.0312,0.0495 0.31369,0.2486 0.22241,0.13672 1.32419,0.75979 -0.50189,2.7313 z" id="path1016" style="stroke-width:0.125;stroke-miterlimit:4;stroke-dasharray:none"/>
  </g>
  <g id="SPIGNO_SATURNIA" style="fill:#f8c300;fill-opacity:1;stroke:#000000;stroke-width:0.125;stroke-linejoin:round;stroke-miterlimit:4;stroke-opacity:1;stroke-dasharray:none" transform="matrix(32,0,0,32,-8354.6515,-10383.079)">
    <path d="m 483.1467,435.3783 0.483,-0.13529 1.40289,-0.4631 0.57932,-0.34641 0.2493,-0.2222 0.18859,-0.2153 0.1662,-0.20511 0.14811,-0.21179 0.8934,-1.39129 0.62808,-1.0492 0.59982,-1.57272 2.10309,-1.8758 1.23789,-1.0957 -0.2941,-0.77469 -0.16339,-0.0683 -0.54221,-0.4996 -1.41778,-1.45749 -0.18662,-0.27142 -3.66,-2.3971 -1.0813,-0.59399 -0.64588,-1.41351 0.2714,-0.8729 0.0614,-0.13788 -0.28571,-2.52652 -0.0612,-0.19369 -0.195,-0.50531 -0.12772,-0.0686 -0.12848,0.002 -0.95022,-0.10919 -0.88199,0.66049 -1.17929,1.32691 -0.61582,1.56979 -0.1177,0.12921 -1.3259,1.15839 -0.17569,0.028 -0.26059,-0.0552 -1.92142,-0.6189 -0.18478,-0.11951 -0.14002,-0.14889 -0.63049,0.3999 -1.4675,1.04282 -0.0259,0.0537 -0.10089,0.2095 -0.86301,1.86099 -0.0657,0.72812 0.13672,0.2377 0.15518,0.2489 0.27161,0.784 0.005,0.18948 -0.22628,0.25672 -0.0909,0.0988 -0.27609,0.25632 -0.12311,0.0605 -0.0373,0.0732 0.0729,0.48489 0.0644,0.22229 3.86371,1.49582 0.96268,0.3396 0.26052,-0.0347 0.26819,-0.0229 0.387,0.0576 0.47519,0.69269 0.0788,0.1524 0.0823,0.22681 0.7825,1.6293 2.7825,4.76938 0.0523,0.0313 0.7359,0.1966 z" id="path1019" style="stroke-width:0.125;stroke-miterlimit:4;stroke-dasharray:none"/>
  </g>
  <g id="TERRACINA" style="fill:#f8c300;fill-opacity:1;stroke:#000000;stroke-width:0.125;stroke-linejoin:round;stroke-miterlimit:4;stroke-opacity:1;stroke-dasharray:none" transform="matrix(32,0,0,32,-8354.6515,-10383.079)">
    <path d="m 371.4679,422.2897 -1.35621,1.48279 -3.5708,3.72061 -2.43609,2.51239 -0.18589,0.16791 -0.14581,0.1355 -0.39371,0.36771 -0.1987,0.19119 -1.1217,1.10821 -0.97638,1.03888 -0.17541,0.22992 -0.008,0.0504 -0.005,0.0305 0.047,0.0985 0.0232,0.0467 0.14368,0.2781 0.0847,0.1044 0.0546,0.0675 0.0624,0.069 1.0852,-0.0785 3.64689,-0.33951 3.69061,-0.30121 0.14419,-0.007 0.13541,-10e-4 0.22818,0.0177 0.18069,0.0264 0.0409,0.006 0.15558,0.10089 0.0463,0.0581 0.0723,0.12661 0.2442,0.42768 0.1518,0.40341 0.0779,0.20721 0.449,1.0622 0.21021,0.4444 0.54791,1.1513 0.1319,0.19599 0.0616,0.0914 1.00391,1.18701 1.33181,1.33758 0.004,-0.0337 0.009,-0.0187 0.0189,-0.0199 0.1897,-0.1926 0.10461,-0.10489 1.1373,-0.88702 1.3081,-0.83679 0.8331,-0.50879 1.24881,-0.7056 0.54389,-0.27661 1.74869,-0.78781 0.42691,-0.17588 0.4599,-0.18832 0.45379,-0.16708 0.37531,-0.13501 0.7012,-0.20389 0.22378,-0.0633 3.53711,-0.95401 0.31742,-0.0729 0.46908,-0.0659 1.11292,-0.13211 0.33008,-0.033 1.42291,-0.047 0.7745,-0.009 0.2537,0.002 1.1604,0.0298 0.70401,0.0368 0.61648,0.0434 0.8042,0.0955 0.1434,0.018 0.4881,0.0834 1.08881,-0.4433 1.07809,-0.88611 0.0666,-0.0662 0.23609,-0.2641 0.11261,-0.27991 0.0255,-0.1206 0.0202,-0.1883 0,-0.20068 0.10422,-0.27912 0.0547,-0.11428 0.0651,-0.10431 0.41782,-0.21122 0.0937,-0.0409 0.1539,-0.0588 0.1091,-0.033 0.44519,-0.1156 0.1665,-0.0319 0.1897,-0.0298 0.35382,-0.0526 0.40539,-0.0542 0.1467,-0.003 0.2782,-0.003 0.0506,0.0347 0.0363,-0.0756 0.009,-0.0191 0.17389,-0.21698 0.14041,-0.16672 0.0138,-0.0164 0.0861,-0.1023 2.70471,-2.3551 0.76169,-0.6377 0.10382,-0.11331 0.0813,-0.11789 0.006,-0.16952 9.8e-4,-0.1778 -0.10138,-0.22619 -0.1283,-0.223 -0.0122,-0.1568 0.23449,-0.712 0.5488,-0.56391 0.1246,-0.11758 0.0417,-0.0394 1.27991,-1.01272 -0.6004,-1.09128 -0.13999,-0.22931 -0.19592,-0.2059 -0.2142,-0.22171 -0.15998,-0.10718 -2.04312,0.91418 -0.25668,0.1536 -0.2446,0.18942 -0.16892,0.1398 -0.2091,0.1434 -0.0699,0.0181 -0.0679,-0.022 -0.12741,-0.0413 -0.26459,-0.13748 -0.9469,-1.6738 -1.19421,-2.1785 -1.22379,-2.51501 -0.0355,-0.2161 -0.1174,-0.668 -0.0762,-0.20209 -0.12842,-0.21392 -0.14328,-0.17008 -0.15741,-0.18341 -0.3258,-0.3775 -0.87421,-0.9325 -0.028,1.89981 -0.35311,0.0713 -1.04718,0.14411 -0.0319,0.004 -0.49282,0.0677 -4.17408,0.3988 -0.2319,-0.0753 -5.2587,-1.73788 -0.7796,-0.78421 -2.0065,-2.6644 -0.0783,-0.16858 -0.1604,-0.3457 -0.0433,-0.0952 -0.0991,-0.21829 -1.28922,1.42911 -0.34149,0.40399 -0.16479,0.22901 -0.3284,0.61438 -0.167,0.52752 -0.0756,0.2847 -2.31641,1.70868 -1.97378,1.74652 -7e-4,0.18009 -0.0171,0.0216 -0.0219,0.0278 -0.0176,0.0222 -0.12158,0.1535 -1.75782,1.74561 -0.37158,0.3616 -1.1893,1.0791 -1.04492,0.86039 -1.19769,1.19741 z" id="path1046" style="stroke-width:0.125;stroke-miterlimit:4;stroke-dasharray:none"/>
  </g>
  <g id="VENTOTENE" style="fill:#f8c300;fill-opacity:1;stroke:#000000;stroke-width:1;stroke-linejoin:round;stroke-miterlimit:4;stroke-opacity:1;stroke-dasharray:none" transform="matrix(4,0,0,4,-6563.3774,-9119.0794)">
    <path d="m 3001.3735,4141.6831 -6.8167,-9.6246 -14.0793,17.0464 -11.252,8.75 -1.2007,0.312 -0.9521,0.308 -1.648,0.8174 -2.1055,2.3818 -0.056,0.28 0.064,0.4224 0.3872,0.8135 0.5848,0.3216 0.8216,0.316 0.2304,0.064 4.2088,0.1064 2.3896,-0.064 1.2815,-0.2168 0.4752,-0.176 0.3408,-0.156 3.8394,-1.8447 0.7688,-0.38 14.7168,-7.5127 2.7575,-2.0923 2.9881,-3.4385 0.58,-0.8364 0.087,-0.288 1.5862,-5.3159 z" id="path1132" style="fill-opacity:1;stroke-width:1;stroke-linejoin:round;stroke-miterlimit:4;stroke-opacity:1;stroke-dasharray:none"/>
    <path d="m 3033.4005,4145.849 8.4287,-0.047 2.5917,4.1233 3.3272,2.0079 -3.2257,1.9931 -6.7307,3.3576 -5.5706,-0.8885 -0.053,-4.9207 1.2325,-5.6259 z" id="path4548" style="stroke-width:1;stroke-miterlimit:4;stroke-dasharray:none"/>
  </g>
</svg>
