<?xml version="1.0" encoding="UTF-8" standalone="no"?>
<svg height="3898.2207" id="svg68000" version="1.1" width="6406.0718" xmlns="http://www.w3.org/2000/svg" xmlns:cc="http://creativecommons.org/ns#" xmlns:dc="http://purl.org/dc/elements/1.1/" xmlns:rdf="http://www.w3.org/1999/02/22-rdf-syntax-ns#" xmlns:svg="http://www.w3.org/2000/svg">
  <g id="AVETRANA" style="stroke-width:0.5;stroke-miterlimit:4;stroke-dasharray:none;stroke:#000000;stroke-opacity:1;stroke-linejoin:round;fill:#f8c300;fill-opacity:1" transform="matrix(40,0,0,40,-11819.168,-11775.59)">
    <path d="m 454.39249,383.7012 1.04272,-3.2211 0.0669,-0.3284 0.004,-0.1199 0.0624,-2.61859 -0.0333,-0.71112 -0.033,-0.19968 -0.1969,-1.03421 0.0127,-0.0876 0.009,-0.12671 0.003,-0.13941 -0.006,-0.14889 -0.0161,-0.14051 -0.0381,-0.14441 -0.0496,-0.15759 -0.0437,-0.0838 -0.5542,-0.79349 -0.11011,-0.1344 -0.12097,-0.1167 -0.20791,-0.13052 -0.14539,-0.0432 -0.1047,0.0584 -0.42371,0.22522 -1.03351,0.3851 -0.156,0.0248 -0.92438,-1.03519 -0.01,-0.3493 0.0327,-0.38651 -0.0686,0.0456 -0.1467,0.0904 -0.26339,0.0743 -1.7594,0.32242 -3.28891,0.51868 -0.28839,2.1e-4 -0.28711,-0.003 -0.11838,-0.007 -0.401,0.18921 -0.9801,0.42749 -0.9896,0.35681 -0.2113,0.0655 -0.0198,0.006 -0.28131,0.0365 -0.2749,0.002 -0.2211,-0.0239 -0.18118,-0.0648 -0.25891,-0.051 -0.20789,0.0326 -1.552,0.58871 -0.017,0.0543 -0.36481,1.16559 -0.0588,0.25711 -0.11219,0.4907 -0.0479,0.2875 -0.0287,0.4913 -0.0107,0.19642 -0.003,0.17977 -4e-4,0.0311 0.005,4.00092 0.0333,0.19479 0.11899,0.0188 0.80441,0.0383 0.12308,0.004 0.0572,0.002 0.0926,0.003 0.65821,-0.0306 0.5299,-0.0831 0.0578,0.0118 0.0554,0.0263 0.0131,0.0125 0.0484,0.0463 0.0708,0.0864 0.034,0.17761 -5.8e-4,0.18448 -0.006,0.6651 -0.003,0.20752 -0.1742,0.79568 -0.03,0.0841 -0.0372,0.1015 -0.0472,0.0435 -0.0979,0.0187 -0.12939,-0.01 -0.1576,0.0196 -0.1253,0.0202 -0.12149,0.0654 -0.34802,0.22039 -0.0771,0.12589 -0.0662,0.1564 -0.0366,0.14121 0.0263,2.07571 0.009,0.0271 0.0158,0.0461 0.26101,-0.0541 0.23789,-0.0813 0.033,-1.3e-4 0.16678,-5.8e-4 2.40701,0.52698 0.39969,0.0987 0.3937,0.10537 0.12751,0.0341 0.87249,0.0946 0.14402,0.006 0.0757,0.003 2.6817,-0.1507 0.1839,-0.041 0.176,-0.0685 0.1221,-0.0877 0.10232,-0.0457 0.66318,-0.15301 0.12762,0.0138 0.37439,0.14038 0.14801,0.0822 0.32969,0.19708 0.0832,0.0679 0.51892,0.42932 0.3587,-0.0275 0.2377,-0.0184 0.23719,0.0127 0.84271,0.0458 0.17148,0.0417 0.17501,0.0764 0.14881,0.0419 0.20318,0.0505 0.0683,-0.001 0.0347,-0.005 0.0133,-0.002 0.0253,-0.0476 0.0216,-0.2947 0.0267,-0.43448 -0.009,-0.21271 -0.12769,-0.48611 -0.18661,-0.5846 -0.10059,-0.20789 -0.10791,-0.16671 -0.0699,-0.11109 -0.24561,-0.39129 -0.0245,-0.32383 10e-4,-0.082 0.12878,-0.0823 0.44861,-0.26651 0.6181,-0.3931 0.13501,-0.1149 0.1142,-0.10611 0.44858,-0.5946 -0.095,-0.13129 z" id="path69" style="stroke-width:0.125;stroke-miterlimit:4;stroke-dasharray:none"/>
  </g>
  <g id="CAROSINO" style="stroke-width:0.5;stroke-miterlimit:4;stroke-dasharray:none;stroke:#000000;stroke-opacity:1;stroke-linejoin:round;fill:#f8c300;fill-opacity:1" transform="matrix(40,0,0,40,-11819.168,-11775.59)">
    <path d="m 401.35229,356.8775 -0.046,-0.94949 -1.40631,-1.8754 -0.41949,-0.38482 -0.40851,-0.0129 -0.16989,0.21588 -2.54511,1.6253 -0.13449,0.17102 -0.7059,2.28278 -0.0112,0.22922 0.63611,1.59668 0.0408,0.0614 0.0118,0.0161 0.0419,0.0377 0.26261,0.22461 0.0533,0.0431 0.0776,0.0386 0.0999,0.0321 0.0529,0.0137 0.5166,0.1258 0.17212,0.009 1.15988,-0.0671 0.14441,0.0184 0.43841,0.10111 2.17289,0.5946 0.64441,0.1937 0.0735,-1.49869 -0.77289,-2.09152 0.0207,-0.75089 z" id="path145" style="stroke-width:0.125;stroke-miterlimit:4;stroke-dasharray:none"/>
  </g>
  <g id="CASTELLANETA" style="stroke-width:0.5;stroke-miterlimit:4;stroke-dasharray:none;stroke:#000000;stroke-opacity:1;stroke-linejoin:round;fill:#f8c300;fill-opacity:1" transform="matrix(40,0,0,40,-11819.168,-11775.59)">
    <path d="m 333.35559,351.7923 -0.2229,0.0207 -0.23788,0.007 -0.11622,-0.0149 -0.15069,-0.0199 -0.24381,-0.0887 -0.19049,-0.12879 -0.16839,-0.1232 -1.13462,-0.94061 -0.18978,-0.16308 -0.1395,-0.12412 -0.13052,-0.12579 -0.12369,-0.1355 -0.5892,-0.85092 -0.0183,-0.1026 0.0617,-0.16428 0.0842,-0.16742 0.27121,-0.42639 0.12179,-0.17169 0.13892,-0.1745 0.14209,-0.16611 0.1749,-0.16379 0.17779,-0.14502 0.19971,-0.12838 0.20059,-0.0989 0.19391,-0.10129 0.15271,-0.0913 0.0957,-0.0637 0.16169,-0.11892 0.0943,-0.0914 1.27781,-2.6821 0.0729,-0.19178 0.0494,-0.22662 0.39249,-2.0386 0.0564,-1.4621 0.0572,-2.05298 -0.014,-0.30231 -0.0639,-0.055 -0.23181,0.0287 -0.0982,0.0272 -0.0779,0.0386 -0.0856,-0.0216 -0.0269,-0.007 -0.2367,-0.1373 -0.16098,-0.16232 -1.12341,-3.29199 -0.0162,-0.12659 -0.1633,-1.99551 0.28901,-1.85581 0.0231,-0.1773 -0.36801,-1.1258 -0.15329,-0.98108 -0.0173,-0.47082 -0.42059,-0.33948 -0.60999,-0.82541 -0.44732,-0.71289 -0.2413,-0.41281 0.55212,-1.57559 0.13058,-0.85932 -0.17059,-1.29919 -0.48889,-0.78491 -0.11722,-0.13059 -0.10068,-0.1058 -0.0797,-0.12812 -0.0715,-0.27047 -0.0191,-0.14231 -0.004,-0.10559 0.004,-0.12561 0.0461,-0.0941 1.6789,-0.9083 0.0526,-0.11249 -0.0223,-0.16079 -0.80811,-3.52362 -0.51611,-1.1463 -0.32309,-1.521 0.12699,-0.6095 -0.0682,0.0379 -0.20111,0.0816 -2.45191,0.98639 -0.11538,0.0231 -0.1514,0.0155 -0.87512,0.0505 -0.0751,-0.0206 -0.4653,-0.13129 -0.097,-0.0468 -0.0365,-0.0706 -0.006,-0.11871 -0.007,-0.40781 0.0224,-0.30249 0.0157,-0.1116 -0.0141,-0.12289 -0.0459,-0.0948 -0.0671,-0.0992 -0.0478,-0.0639 -0.21899,-0.21319 -0.3469,-0.0618 -0.54312,0.41559 -0.48279,0.35549 -1.77591,-0.51168 -1.10739,-0.9079 0.002,-0.18012 -0.0303,-0.0537 -1.54511,-0.52572 -0.11938,0.022 -0.1001,0.0237 -0.44592,0.23911 -0.20349,0.11099 -0.26191,0.2161 -0.27948,0.31201 -0.033,0.1083 -0.0127,0.12049 -0.0269,0.13391 -0.0522,0.1568 -0.004,0.0132 -0.0659,0.1001 -0.113,0.14682 -0.1529,0.18808 -0.11431,0.11212 -0.1221,0.0873 -1.12171,0.6311 -0.16049,0.0346 -0.49991,0.10501 -0.37729,0.10309 -1.33529,0.3877 -0.0159,0.51101 -0.006,0.1919 0.0232,0.1987 0.032,0.19439 0.0419,0.23929 0.0672,0.21741 0.10412,0.19061 0.12449,0.21479 0.18011,0.4122 -1.15521,0.13949 0.34479,0.63281 0.7926,0.59681 1.38431,-0.0641 0.0259,1.4638 0.12588,0.0493 2.03992,0.8443 0.13427,0.14838 0.0605,0.38772 -0.0122,0.0868 -0.064,0.1373 -0.0579,0.0259 -0.2341,0.10208 -0.7341,1.10511 1.87689,1.3649 -0.474,0.69879 -0.0315,0.11801 0.008,0.0697 0.56149,2.19199 0.52011,0.5448 0.5614,0.79452 0.077,1.23508 0.0662,0.8327 0.0557,0.12061 0.4755,0.77209 0.13412,0.15961 0.17148,0.15451 0.30322,0.38638 0.11808,0.20822 0.19641,0.42838 0.0275,0.3226 -0.52688,2.3107 -0.0477,0.1561 -1.5394,3.14032 -0.0615,0.061 -0.11289,0.0862 -0.14541,0.0723 -0.18219,0.0206 -0.9766,-0.0625 -2.27209,0.94211 -0.7374,0.27511 -0.0556,0.37888 0.0423,0.1116 0.17798,0.41641 0.0838,0.16111 0.11972,0.1885 0.664,1.01828 0.2742,0.16101 0.15189,0.0293 0.15109,-0.0226 0.11331,-0.0122 0.10291,-10e-4 0.1828,0.0191 0.52639,0.0545 2.2584,0.2673 0.11441,0.0147 0.1961,0.0401 0.11569,0.0407 -0.01,0.13629 -0.0219,0.23441 -0.003,0.0232 -0.0114,0.0859 -0.0307,0.0817 -0.0537,0.10818 -0.0457,0.0821 -0.89679,1.26108 -2.17721,1.37061 -3.24899,1.974 -1.1836,0.64819 7e-4,0.005 0.0574,0.0679 2.27282,2.51492 0.46769,0.3812 0.1503,0.002 0.1213,-0.14319 0.10861,-0.10181 0.14249,0.0629 2.45831,3.3396 0.73569,1.1492 0.8002,1.3284 0.4885,0.3703 0.0673,0.0509 1.75091,1.25171 0.4452,0.30179 0.2517,0.14871 0.20981,0.11139 0.43149,0.22031 0.25711,0.1286 0.31809,0.16519 0.14669,0.0899 0.4105,0.4067 0.1521,0.16388 0.75601,0.96421 0.0653,0.15081 0.0433,0.12818 0.22458,0.69592 0.0912,0.2886 0.0356,0.11808 0.0412,0.1365 0.0966,0.27622 0.6557,1.414 0.0721,0.13589 0.1416,0.10181 1.84802,-1.8671 0.45038,-0.42611 0.63742,-0.58701 0.6987,-0.63489 1.54868,-1.3648 0.7735,-0.62949 0.7673,-0.6199 1.28381,-0.99042 0.43549,-0.32169 1.09131,-0.7919 0.3941,-0.28561 0.2645,-0.19129 1.10449,-0.76541 0.1568,-0.1019 0.088,-0.0555 0.47779,-0.29882 0.0625,-0.0308 0.0508,-0.0234 -0.0892,-0.0636 -0.10369,-0.0337 -0.10859,-0.0324 -1.30041,-0.23178 -0.30301,0.009 -0.2099,-0.0271 -0.1601,-0.0319 -0.20867,-0.0753 -0.18641,-0.0835 -0.20941,-0.13141 -0.1752,-0.12311 -0.54391,-0.46478 -0.70398,-0.51321 -0.1016,-0.0507 -0.79202,0.0655 z" id="path183" style="stroke-width:0.125;stroke-miterlimit:4;stroke-dasharray:none"/>
  </g>
  <g id="CRISPIANO" style="stroke-width:0.5;stroke-miterlimit:4;stroke-dasharray:none;stroke:#000000;stroke-opacity:1;stroke-linejoin:round;fill:#f8c300;fill-opacity:1" transform="matrix(40,0,0,40,-11819.168,-11775.59)">
    <path d="m 399.04999,333.39331 0.38031,-0.0632 0.1448,-0.029 0.39881,-0.42618 0.0282,-0.0433 -0.4957,-2.92709 -0.0372,-0.14642 -0.15912,-0.0698 -2.64978,-0.582 -0.8725,0.25882 0.0848,0.0812 -0.035,0.11081 -0.12848,0.1221 -0.5326,0.4332 -1.35562,1.01349 -0.16128,0.004 -1.42682,-0.0954 -0.6792,-0.2355 -0.0357,-0.2027 -0.0631,-0.138 -0.25741,0.007 -1.27729,0.4039 -0.22241,0.19229 0.0265,0.0942 0.12879,0.32751 -0.3284,-0.759 -0.0604,-0.11282 -0.85809,-0.7967 -0.5235,0.0221 -0.86511,0.8251 -0.1535,0.1604 -0.0613,0.1528 -0.19559,0.30811 -0.3916,0.49109 -0.0246,0.0217 -0.009,0.008 -0.0915,0.0309 -0.0124,-0.001 -0.0679,-0.006 -0.094,-0.0177 -0.0694,-0.0234 -0.0309,-0.0104 -0.77948,-1.246 -0.4483,-0.76318 -0.7547,-0.0508 -0.59412,0.0449 -0.4317,-0.12759 -0.26858,-0.093 -1.01972,-1.92352 -2.45398,-2.6564 -1.1513,-0.9585 -0.48291,-0.3117 -0.78449,-0.23948 -0.63141,-0.12402 -0.13501,-0.0171 -1.06439,0.1937 -0.24301,0.0442 -0.0437,0.0346 -0.18228,0.21131 -0.2504,0.48941 -0.047,0.29559 0.0241,0.1257 0.11462,0.0756 0.15149,0.0437 0.19699,0.0791 0.124,0.12051 0.11682,0.19479 0.0856,0.20139 0.0442,0.207 -0.044,0.2001 -0.0915,0.14661 -0.8721,0.67011 -0.0865,0.0254 -1.47891,0.0433 -0.11551,-0.0463 -0.46518,-0.59882 -0.32632,-0.0673 -0.88959,-0.18341 -1.07199,-0.1127 -0.1922,-0.009 -0.1832,-0.0743 -0.54351,-0.49042 -0.0546,-0.0725 -0.0613,-0.092 -0.30319,-0.49881 -0.46091,-0.61749 -1.10718,-0.94699 -0.406,-0.0142 -0.27622,0.14041 -0.0704,0.0788 -0.0394,0.067 -0.0761,0.15668 -0.0373,0.13022 -0.0563,0.19568 -0.004,0.14361 0.008,0.11719 0.0584,0.1383 0.0378,0.1373 0.0625,0.4458 -0.0597,0.12641 -0.078,0.1047 -0.13968,-0.0151 -0.0428,-0.0522 -0.1352,-0.12051 -0.0922,0.0532 -0.0151,0.0485 -0.0226,0.0696 0.005,0.10932 0.1138,0.0795 0.0258,0.0302 0.0163,0.10342 -0.0882,0.10468 -0.10211,0.11282 -0.18369,0.14569 -0.1643,0.0518 -0.12622,-0.0257 -0.0472,-0.16919 0.24609,-0.46331 0.14181,-0.3053 0.0303,-0.0992 0.0143,-0.19892 -0.0938,-0.15808 -0.0499,0.0815 -0.0715,0.1175 -0.6651,0.54202 -0.1644,0.0699 -0.3338,0.116 -0.22269,0.0619 -0.2051,0.035 -0.2287,0.0285 -0.6727,0.0229 -0.6041,0.0269 -0.12301,0.0453 0.0355,0.16467 0.1167,0.63202 0.068,0.6576 -0.016,0.2366 -0.0441,0.33401 -0.0593,0.3877 0.1893,0.117 0.2944,0.2313 0.117,0.2016 0.47031,-0.0368 0.0888,-0.0512 0.0656,-0.0223 0.12512,-0.004 0.15949,0.0107 0.17901,0.0289 0.19248,0.12339 0.12591,0.1119 0.0898,0.0421 0.17289,0.008 0.20568,-0.001 0.15262,-0.003 0.0834,0.1001 -0.01,0.17422 -0.0262,0.1597 0.005,0.1575 0.0246,0.17999 0.0665,0.0847 0.1474,0.003 0.23929,-0.0447 0.0562,-0.12839 0.0572,-0.16452 -0.0219,-0.0746 -0.13068,-0.0632 -0.005,-0.0712 0.0377,-0.0697 0.2684,0.0287 0.15378,0.0162 10e-4,0.10541 -0.0232,0.392 -0.0296,0.1507 -0.14609,0.37091 -0.0548,0.13198 -0.0627,0.0364 -0.0914,0.0949 -0.0595,0.1229 -0.051,0.1228 0.002,0.12439 0.0137,0.14191 -0.0645,0.0569 -0.0848,0.0222 -0.1994,-0.0516 -0.0515,-0.0531 -0.0253,-0.57599 0.0717,-0.0623 0.062,-0.2193 -0.156,-0.0776 -0.61829,-0.3024 -0.0306,-0.0839 0.0513,-0.059 0.11761,-0.0407 0.0695,-0.10819 -0.0104,-0.1373 -0.0893,-0.1231 -0.12338,-0.008 -0.1153,0.0901 -0.0623,0.083 -0.0215,0.11441 -0.0493,0.0955 -0.076,0.0514 -0.1059,-0.0134 -0.2063,-0.01 -0.0433,-0.004 -0.29181,0.14402 -0.0237,0.0547 0.0101,0.29251 0.0454,0.0387 0.18591,0.0374 0.0338,-0.0503 0.078,0.0358 3.9e-4,0.0552 -0.0256,0.1287 -0.045,0.0234 -0.0619,0.004 -0.12128,-0.0148 -0.1282,-0.0173 -0.0579,-0.0132 -0.122,-0.19782 -0.009,-0.0405 -0.005,-0.0833 0.0151,-0.0546 0.17621,-0.47428 0.0389,-0.0575 0.0806,0.008 0.15741,-0.0215 0.11157,-0.0145 0.064,-0.0621 -0.17901,-0.24969 -0.0451,-0.044 -0.66769,-0.17489 -0.22309,-0.0581 -0.1473,-0.009 -0.0136,0.0635 0.0711,0.32489 0.0538,0.0361 0.0232,0.10571 0.0271,0.4347 -1.9e-4,0.2915 -0.007,0.16748 -0.0134,0.1929 -0.0196,0.31122 0.0492,0.2341 0.0124,0.0503 0.94251,0.219 0.156,0.003 0.31879,0.28451 0.0924,0.0665 0.7575,0.29129 0.29691,-0.15488 0.2312,-0.41211 0.0901,-0.0415 0.13019,-10e-4 0.20822,0.0343 0.0295,0.12179 -0.0264,1.08261 -0.0721,0.0691 -0.36722,0.15769 -0.3063,0.12042 -0.23328,0.0824 -0.18332,0.0784 -0.0703,0.13489 -0.0893,0.0701 -0.388,0.24291 -0.21222,0.0619 -0.1521,0.26609 -0.0595,0.25921 -0.0298,0.0981 -0.1474,0.13791 -0.25711,0.2872 0.036,0.78491 0.0324,0.48428 0.009,0.10962 -0.11399,0.39118 -0.21011,0.61081 -0.0579,0.0592 -0.0943,0.0791 -0.0993,0.0683 -0.15659,0.0931 -0.14832,0.10678 -0.0426,0.0616 -0.0616,0.13651 -0.1257,0.3815 -0.005,0.0763 0.0873,0.0694 0.11969,0.0785 0.0202,0.0132 0.10602,0.0815 0.15249,0.13772 0.0474,0.0942 -0.0505,0.1091 -0.13379,0.19361 0.3862,0.18191 2.11191,0.13229 2.46259,-0.44961 0.75921,-0.5683 0.9263,-0.6922 0.12058,-0.0714 0.22262,-0.0721 0.12238,-0.0262 0.062,-0.0133 0.2049,-0.0333 1.0184,-0.0467 1.81189,0.0562 0.1857,0.0443 0.0792,0.0196 0.0531,0.0134 0.6843,0.17289 1.33569,0.3392 0.1481,0.0373 3.4672,1.1995 0.71661,0.52117 0.13989,0.0832 0.1543,0.0309 1.03909,-0.0843 0.59442,-0.26501 0.18988,0.009 1.2392,0.43329 0.68631,0.34851 0.19861,0.2002 0.1983,0.21219 0.0822,0.13031 -0.0638,0.1535 -0.13711,0.0757 -0.17499,0.007 0.0676,0.69128 1.9324,1.50721 0.64838,-0.23789 0.1871,-0.0761 0.1644,-0.1412 0.0813,-0.0957 1.16562,-1.41388 10e-4,-0.10852 -0.0184,-0.33899 -1.11502,-2.4747 -0.83939,-1.78219 -0.0662,-0.15561 -0.0376,-0.12689 0.0854,-0.0669 0.4874,-0.1542 1.03631,-0.6518 -0.0808,-0.83832 -0.0577,-0.15219 -0.0485,-0.0978 -0.0301,-0.0443 -0.0411,-0.0539 -0.0615,-0.0732 -0.33481,-0.3729 -0.0718,-0.0612 -0.1124,-0.0306 -0.1149,-0.0611 -0.0422,-0.0963 -0.0582,-0.33512 0.0704,-0.0622 0.1417,-0.10971 0.64871,-0.4906 0.16018,0.0524 0.56662,0.26062 0.30408,0.1698 0.10751,0.0742 0.0837,0.021 1.5427,0.0379 0.4769,-0.0765 0.13278,-0.0381 0.55121,-0.16171 1.3287,-0.34708 0.41831,0.0645 2.40088,0.6976 0.96151,0.63291 1.37851,0.92181 1.08319,-0.39532 0.71079,-0.42438 z" id="path258" style="stroke-width:0.125;stroke-miterlimit:4;stroke-dasharray:none"/>
  </g>
  <g id="FAGGIANO" style="stroke-width:0.5;stroke-miterlimit:4;stroke-dasharray:none;stroke:#000000;stroke-opacity:1;stroke-linejoin:round;fill:#f8c300;fill-opacity:1" transform="matrix(40,0,0,40,-11819.168,-11775.59)">
    <path d="m 391.44971,372.17969 0.25488,-0.33789 0.0217,-0.0408 0.69961,-1.77819 0.01,-0.3776 -0.60992,0.0213 -0.5127,0.0688 -0.3955,0.23712 -0.0946,0.83328 0.1283,1.4116 0.4982,-0.0376 z" id="path279" style="stroke-width:0.125;stroke-miterlimit:4;stroke-dasharray:none"/>
    <path d="m 391.95129,362.89441 -2.1694,-0.51932 -0.6586,0.3002 -0.0827,0.13571 -0.0905,0.18619 -0.058,0.12641 -0.0224,0.0923 0.0557,0.3309 0.0839,0.3237 0.0473,0.1503 0.15778,0.46018 0.19101,0.51782 0.0843,0.16678 0.0582,0.1142 0.006,0.0118 0.0498,0.098 0.1553,0.26501 0.0821,0.13379 0.10361,0.1463 0.13199,0.1817 0.0247,0.0309 0.006,0.007 0.49331,-0.10428 0.92551,0.003 1.71039,1.06372 0.17151,0.34848 0.0193,0.1803 0.01,0.3028 -0.0197,1.57812 -0.38391,0.0975 -0.21469,-0.0326 -0.1466,0.0134 -0.1756,0.15042 -0.2013,1.37 0.76249,0.66168 -0.0117,0.49911 0.71899,0.04 1.65451,0.73578 0.62418,0.3027 0.0182,0.088 -0.002,0.13519 -0.0193,0.1474 -0.10431,-0.004 -0.16858,-0.0137 -0.20062,-0.0435 -0.57688,1.33542 -0.0301,0.16528 -0.009,0.22421 0.005,0.0503 1.17441,-0.2666 0.19259,-0.0435 0.22278,-0.0233 0.19821,-0.002 0.13291,0.006 0.16229,0.0252 0.12079,0.0168 0.19799,0.009 0.33573,0.006 0.22009,0.003 0.54199,-0.0855 0.1203,-0.028 0.20411,-0.095 0.0454,-0.043 0.45648,-0.7389 0.0172,-0.79611 -0.61929,-2.37729 -1.94391,-4.5979 -0.0502,-0.10751 -0.0603,-0.11371 -0.0916,-0.1546 -0.0771,-0.11438 -0.0811,-0.0958 -0.10511,-0.0955 -0.0639,-0.0485 -0.0737,-0.0528 -0.10699,-0.0728 -2.016,-1.3959 -0.6777,-1.20038 -1.30722,-0.0579 -0.0741,-0.014 z" id="path281" style="stroke-width:0.125;stroke-miterlimit:4;stroke-dasharray:none"/>
  </g>
  <g id="FRAGAGNANO" style="stroke-width:0.5;stroke-miterlimit:4;stroke-dasharray:none;stroke:#000000;stroke-opacity:1;stroke-linejoin:round;fill:#f8c300;fill-opacity:1" transform="matrix(40,0,0,40,-11819.168,-11775.59)">
    <path d="m 405.1694,359.85669 0.0819,0.21692 0.0755,0.9888 -0.9403,0.9718 0.51638,1.26379 0.0821,0.0519 0.48092,0.4134 0.0542,0.0786 0.007,0.0463 0.0135,0.0825 -0.003,0.13779 -0.0241,0.69962 -0.07,1.39889 -0.069,0.6695 -0.008,0.0829 0.0552,0.1658 0.18811,0.43918 0.452,1.48432 1.68839,-0.009 0.7091,0.80999 0.13721,0.1626 0.11838,0.16248 0.36822,0.5267 0.11478,0.17081 0.22891,0.3742 0.10761,0.1875 0.14828,0.25839 0.1756,0.34882 0.69192,-0.37402 1.55738,-0.84168 0.0611,-0.1156 0.323,-0.73212 0.1034,-0.27969 0.0862,-0.32959 0.52173,-2.5867 -0.003,-0.12482 -0.0203,-0.11798 -0.116,-0.55902 -1.68289,-2.11438 0.0344,-0.13202 0.0369,-0.16198 0.009,-0.17591 0.008,-0.16339 -0.0161,-0.21341 -0.0269,-0.3287 -0.0221,-0.15509 -0.0481,-0.17212 -0.0774,-0.17148 -0.068,-0.13861 -0.006,-0.0121 -0.025,-0.0489 -0.25152,-0.47888 -0.0652,-0.0455 -0.003,-0.002 -0.0762,-0.0518 -0.8226,-0.42719 -0.18671,-0.0861 -0.13049,-0.0376 -0.0788,-0.0227 -0.2424,-0.0563 -1.56122,-0.11029 -1.58679,-0.8316 -1.0058,0.0154 z" id="path290" style="stroke-width:0.125;stroke-miterlimit:4;stroke-dasharray:none"/>
  </g>
  <g id="GINOSA" style="stroke-width:0.5;stroke-miterlimit:4;stroke-dasharray:none;stroke:#000000;stroke-opacity:1;stroke-linejoin:round;fill:#f8c300;fill-opacity:1" transform="matrix(40,0,0,40,-11819.168,-11775.59)">
    <path d="m 326.41809,363.56601 -0.1416,-0.10181 -0.0721,-0.13589 -0.6557,-1.414 -0.0966,-0.27622 -0.0412,-0.1365 -0.0356,-0.11808 -0.0912,-0.2886 -0.22458,-0.69592 -0.0433,-0.12818 -0.0653,-0.15081 -0.75601,-0.96421 -0.1521,-0.16388 -0.4105,-0.4067 -0.14669,-0.0899 -0.31809,-0.16519 -0.25711,-0.1286 -0.43149,-0.22031 -0.20981,-0.11139 -0.2517,-0.14871 -0.4452,-0.30179 -1.75091,-1.25171 -0.0673,-0.0509 -0.4885,-0.3703 -0.8002,-1.3284 -0.73569,-1.1492 -2.45831,-3.3396 -0.14249,-0.0629 -0.10861,0.10181 -0.1213,0.14319 -0.1503,-0.002 -0.46769,-0.3812 -2.27282,-2.51492 -0.0574,-0.0679 -7e-4,-0.005 1.1836,-0.64819 3.24899,-1.974 2.17721,-1.37061 0.89679,-1.26108 0.0457,-0.0821 0.0537,-0.10818 0.0307,-0.0817 0.0114,-0.0859 0.003,-0.0232 0.0219,-0.23441 0.01,-0.13629 -0.11569,-0.0407 -0.1961,-0.0401 -0.11441,-0.0147 -2.2584,-0.2673 -0.52639,-0.0545 -0.1828,-0.0191 -0.10291,10e-4 -0.11331,0.0122 -0.15109,0.0226 -0.15189,-0.0293 -0.2742,-0.16101 -0.664,-1.01828 -0.11972,-0.1885 -0.0838,-0.16111 -0.17798,-0.41641 -0.0423,-0.1116 0.0556,-0.37888 -0.0127,-0.0399 -0.0414,-0.0702 -0.11622,-0.18561 -0.2984,-0.2305 -0.0803,-0.005 -0.181,0.0294 -0.194,0.0472 -0.16501,0.10251 -0.1752,0.11698 -0.17438,0.0464 -0.5592,0.1334 -0.39532,0.0697 -1.8494,0.2193 -1.18509,0.0721 -0.2847,-0.23331 -0.11139,-0.0989 -0.0577,-0.1001 -0.0609,-0.12711 -0.0454,-0.117 10e-4,-0.16898 0.0728,-0.12292 -0.0825,-0.74668 -0.0371,-0.2026 -0.40961,-0.50601 -0.032,-0.0382 -0.578,-0.54618 -1.33911,-1.2517 -0.16431,-0.107 -2.23801,-1.2009 -1.46319,-0.53952 -0.19479,0.16211 -0.16691,0.10761 -0.28878,0.1459 -0.20731,0.0674 -0.004,0.001 -0.0434,0.008 -0.1658,0.0292 -0.19272,0.0121 -0.74368,-0.0653 -2.39401,1.65152 0.58801,1.0709 0.1134,0.95559 -0.6062,1.86731 -0.0658,0.1995 -0.086,0.21579 -0.245,0.53119 -0.28778,0.80441 -0.32822,1.3995 -0.009,0.19849 0.0473,0.93072 0.1146,0.17148 0.20431,0.163 0.1865,0.005 0.12411,0.0455 0.11288,0.0955 0.54129,0.52078 0.20423,0.24671 0.58868,0.72711 0.55091,0.71918 0.0824,0.16262 -0.0365,0.12699 -0.1325,0.12201 -0.4365,0.6185 -0.6137,1.1058 -0.016,0.10709 -0.006,0.0376 1.09528,1.69159 0.12872,0.15811 0.1521,0.0964 0.83258,0.28971 0.19791,0.0487 0.1726,0.0119 0.19519,-0.0179 0.18332,0.0775 0.11988,0.7992 0.0236,0.53348 -0.0199,0.22772 -0.1864,0.45099 -0.3107,0.57101 -0.32871,0.5289 -0.67321,1.00809 -0.96268,1.57419 -0.0732,0.16601 0.0914,0.30399 0.0558,0.12921 2.17328,2.15341 1.1915,0.6203 0.15832,0.0236 0.22718,-0.006 0.0412,-0.005 0.0552,-0.009 0.14402,-0.0406 0.14718,-0.0447 0.0515,-0.0256 0.51208,-0.9877 0.0452,-0.065 0.054,0.008 0.4671,0.49969 3.1e-4,0.0432 -0.17511,0.67881 -0.0415,0.0429 0.6351,0.2577 0.88031,0.0399 1.77929,0.0764 0.54911,-0.025 0.006,-0.14352 0.0121,-0.0826 0.0313,-0.11542 0.0269,-0.0364 0.0332,-0.0281 0.0572,-0.002 1.378,0.4704 0.6672,0.32989 0.12012,0.0608 0.6933,0.4737 0.009,0.0128 0.0738,0.1001 0.0927,0.14191 0.0831,0.1343 0.66959,1.46198 0.0686,0.164 0.0373,0.3389 -0.002,0.1189 -0.13468,0.22341 -0.0458,0.23649 0.0215,0.9707 0.0683,0.6687 0.0102,0.10181 1.3031,1.64239 0.7702,0.96131 1.76029,1.73901 1.862,1.42239 1.7839,0.5633 0.8053,0.38339 0.33289,-0.53528 0.48831,-0.77451 1.10269,-1.59661 0.57281,-0.83139 0.1138,-0.1626 2.4108,-3.1615 0.30881,-0.3526 0.89218,-0.95279 z" id="path310" style="stroke-width:0.125;stroke-miterlimit:4;stroke-dasharray:none"/>
  </g>
  <g id="GROTTAGLIE" style="stroke-width:0.5;stroke-miterlimit:4;stroke-dasharray:none;stroke:#000000;stroke-opacity:1;stroke-linejoin:round;fill:#f8c300;fill-opacity:1" transform="matrix(40,0,0,40,-11819.168,-11775.59)">
    <path d="m 405.89059,336.85141 -0.61129,-0.1073 -0.0225,0.52768 -0.271,2.0426 0.24728,0.0945 0.6575,-2.5575 z" id="path328" style="stroke-width:0.125;stroke-miterlimit:4;stroke-dasharray:none"/>
    <path d="m 394.91599,332.65829 -2.40088,-0.6976 -0.41831,-0.0645 -1.3287,0.34708 -0.55121,0.16171 -0.13278,0.0381 -0.4769,0.0765 -1.5427,-0.0379 -0.0837,-0.021 -0.10751,-0.0742 -0.30408,-0.1698 -0.56662,-0.26062 -0.16018,-0.0524 -0.64871,0.4906 -0.1417,0.10971 -0.0704,0.0622 0.0582,0.33512 0.0422,0.0963 0.1149,0.0611 0.1124,0.0306 0.0718,0.0612 0.33481,0.3729 0.0615,0.0732 0.0411,0.0539 0.0301,0.0443 0.0485,0.0978 0.0577,0.15219 0.0808,0.83832 0.8743,0.241 1.26679,-0.2749 0.7442,-0.025 0.26169,0.15198 0.2861,0.57871 0.0899,0.4226 1.14432,1.68259 0.40439,0.18561 0.1091,0.0787 0.1254,0.24841 0.027,0.069 0.45209,1.49609 0.0389,0.146 0.002,0.12438 -0.084,0.079 -0.1445,0.087 -0.55841,0.2514 -0.0962,-0.0403 -0.0786,-0.1525 -0.10071,-0.13299 -0.11179,-0.0513 -0.21069,-0.0592 -0.15311,0.0293 -0.15869,0.0485 -0.10251,0.0393 -0.19079,0.0963 -0.0579,0.0471 0.11062,0.6247 0.0543,0.14151 0.052,0.1102 0.0879,0.0973 0.48652,-0.0604 1.79629,0.0949 1.13269,0.89459 0.39819,0.7396 0.0441,0.0828 4.9e-4,0.10791 -0.086,0.4643 -0.0351,0.14981 -0.16571,-0.0423 -0.14331,0.0214 -0.0337,0.0167 -0.1088,0.054 -1.53351,0.87399 -0.0391,0.31711 -0.13172,0.64188 -0.55319,1.293 -0.0106,2.1e-4 -0.4198,0.007 -0.97531,0.0166 -0.009,10e-5 -0.62589,1.01788 -0.21032,0.71982 -0.0207,0.12219 0.0559,0.0709 0.0584,0.0738 0.9328,0.89969 1.26679,-0.0143 3.104,0.7214 1.24671,-0.2951 0.99679,0.36902 0.0894,0.1044 0.008,0.13708 -0.0105,0.0705 -0.35089,0.76211 -0.21921,0.43769 1.42401,0.62341 0.16211,0.0407 0.0251,0.0321 0.0524,0.0669 0.16009,0.9306 0.0252,0.18308 0.16989,-0.21588 0.40851,0.0129 0.41949,0.38482 1.40631,1.8754 0.046,0.94949 0.98121,-0.86542 0.10321,-0.008 0.15878,0.002 0.14572,0.007 0.18729,0.0199 0.26831,0.0589 0.2987,0.16101 0.96659,0.663 0.84561,1.53891 0.04,0.58468 -0.17829,0.8165 1.0058,-0.0154 1.77561,-0.5567 0.7239,-0.5036 1.21619,-1.6008 -0.2113,-0.94352 0.0372,-0.117 0.11898,-0.0971 0.12571,-0.086 0.20022,-0.1278 -0.22122,-0.71591 -0.0809,-0.973 -0.1311,-0.64151 -0.0367,-0.14248 -0.53271,-1.51911 -0.0377,-0.052 -0.63071,-0.70071 -0.49768,-0.5669 -0.0915,-0.15988 -0.10028,-0.20642 -0.3617,-0.78568 -0.3775,-0.89321 -0.11801,-0.31281 -0.068,-0.56018 -0.13391,-0.48221 -0.0486,-0.16339 -0.0537,-0.1597 -0.26581,-0.79352 -0.0809,-0.1571 -0.1098,-0.1875 -0.0361,-0.0443 -0.0161,-0.0198 -0.006,-0.007 -0.38471,-0.43768 -0.43011,-0.48691 -0.0328,-0.061 -0.1492,-0.31641 -0.4097,-1.4552 -0.0976,-0.3735 -0.0586,-0.29718 -0.0164,-0.1474 0.005,-0.13831 0.029,-0.1214 0.46902,-1.8353 -0.31521,-0.0764 -0.43991,-0.13339 -0.4278,-0.32801 -1.41528,-1.54098 -0.31082,-0.72541 -0.63349,-0.28631 -0.95331,0.0191 -0.33429,-0.0196 -0.1521,-0.0647 -1.01339,-0.90899 0.336,-0.70401 0.1947,-0.25119 -0.53482,-1.4809 -0.71079,0.42438 -1.08319,0.39532 -1.37851,-0.92181 -0.96151,-0.63291 z" id="path330" style="stroke-width:0.125;stroke-miterlimit:4;stroke-dasharray:none"/>
  </g>
  <g id="LATERZA" style="stroke-width:0.5;stroke-miterlimit:4;stroke-dasharray:none;stroke:#000000;stroke-opacity:1;stroke-linejoin:round;fill:#f8c300;fill-opacity:1" transform="matrix(40,0,0,40,-11819.168,-11775.59)">
    <path d="m 312.5618,315.34799 -0.55731,0.16681 -0.2052,0.0505 -0.4719,-0.16672 -0.63928,-0.29129 -0.12802,-0.12021 -0.39587,-2.0448 -0.51063,-2.41388 -0.0503,-0.22711 -0.0659,-0.22589 -0.1907,-0.58832 -0.0792,-0.14078 -0.065,-0.10592 -0.074,-0.0809 -0.0788,-0.16839 -0.0751,-0.18179 -0.13272,-0.39841 -0.068,-0.20969 -0.0528,-0.1885 -0.0672,-0.2493 -0.0201,-0.1142 -0.1087,0.1958 -0.0643,0.0503 -0.87518,0.55903 -0.22061,0.12167 -1.1239,0.56781 -0.6189,0.22241 -0.2384,0.0683 -0.21558,0.0454 -0.22952,0.0632 -0.45258,0.22522 -0.16641,0.0835 -0.69439,0.38818 -0.20542,0.1395 -0.0666,0.0605 -1.19171,0.8089 -1.0191,0.66739 -0.1243,0.0441 -0.2164,-0.005 -0.1861,-0.0424 -0.21499,-0.0727 -0.2005,-0.0972 -0.15091,-0.0928 -0.20658,-0.14612 -0.17941,-0.12808 -0.21271,0.18729 -0.77109,0.52911 -1.36489,0.89749 -0.0615,-0.1047 0.0514,-0.16791 0.011,-0.2009 -0.57739,-0.60519 -0.0369,-0.0386 -0.92679,1.24451 -0.0476,0.07 -0.1203,0.18429 -0.025,0.0582 -0.0398,0.0991 0.0203,0.10101 2.7363,2.44641 0.23419,-0.0369 0.50861,0.0426 0.95428,0.17642 -0.1615,1.49448 -0.0625,0.57251 -0.62979,2.5509 -0.7767,2.91849 -0.388,1.34842 -0.12439,0.31509 -0.24811,0.77851 -0.0581,0.2597 -0.0568,0.2702 -0.0234,0.1446 0.0123,0.17099 0.0155,0.1632 10e-4,0.0118 0.24459,2.27149 0.0936,0.57001 0.0478,0.1112 1.64609,2.52908 0.20831,0.1229 0.0608,0.0331 0.0511,0.0244 0.0665,0.0154 0.23532,10e-4 0.74368,0.0653 0.19272,-0.0121 0.1658,-0.0292 0.0434,-0.008 0.004,-0.001 0.20731,-0.0674 0.28878,-0.1459 0.16691,-0.10761 0.19479,-0.16211 1.46319,0.53952 2.23801,1.2009 0.16431,0.107 1.33911,1.2517 0.578,0.54618 0.032,0.0382 0.40961,0.50601 0.0371,0.2026 0.0825,0.74668 -0.0728,0.12292 -0.001,0.16898 0.0454,0.117 0.0609,0.12711 0.0577,0.1001 0.11139,0.0989 0.2847,0.23331 1.18509,-0.0721 1.8494,-0.2193 0.39532,-0.0697 0.5592,-0.1334 0.17438,-0.0464 0.1752,-0.11698 0.16501,-0.10251 0.194,-0.0472 0.181,-0.0294 0.0803,0.005 0.2984,0.2305 0.11622,0.18561 0.0414,0.0702 0.0127,0.0399 0.7374,-0.27511 2.27209,-0.94211 0.9766,0.0625 0.18219,-0.0206 0.14541,-0.0723 0.11289,-0.0862 0.0615,-0.061 1.5394,-3.14032 0.0477,-0.1561 0.52688,-2.3107 -0.0275,-0.3226 -0.19641,-0.42838 -0.11808,-0.20822 -0.30322,-0.38638 -0.17148,-0.15451 -0.13412,-0.15961 -0.4755,-0.77209 -0.0557,-0.12061 -0.0662,-0.8327 -0.077,-1.23508 -0.5614,-0.79452 -0.52011,-0.5448 -0.56149,-2.19199 -0.008,-0.0697 0.0315,-0.11801 0.474,-0.69879 -1.87689,-1.3649 0.7341,-1.10511 0.2341,-0.10208 0.0579,-0.0259 0.064,-0.1373 0.0122,-0.0868 -0.0605,-0.38772 -0.13427,-0.14838 -2.03992,-0.8443 -0.12588,-0.0493 -0.0259,-1.4638 -1.38431,0.0641 -0.7926,-0.59681 -0.34479,-0.63281 z" id="path345" style="stroke-width:0.125;stroke-miterlimit:4;stroke-dasharray:none"/>
  </g>
  <g id="LEPORANO" style="stroke-width:0.5;stroke-miterlimit:4;stroke-dasharray:none;stroke:#000000;stroke-opacity:1;stroke-linejoin:round;fill:#f8c300;fill-opacity:1" transform="matrix(40,0,0,40,-11819.168,-11775.59)">
    <path d="m 388.8512,378.87259 -0.0673,-0.1453 -0.0966,-0.35858 -0.0555,-0.54351 0.32238,0.012 0.6341,-0.53589 0.2391,-1.05081 -0.15909,-0.1518 -0.16189,-0.15429 -0.3971,-0.3787 0.13279,-1.4888 0.0913,-0.64239 -0.9143,-0.0205 -0.6294,-0.0329 0.027,-0.21551 0.005,-0.0375 -0.007,-0.0638 0.21008,-0.25229 0.15912,-0.39862 0.003,-0.725 -0.11938,-1.96409 -0.23432,-10e-4 -0.1,-4.9e-4 -0.14759,-9.2e-4 -0.16641,0.0298 -0.1954,1.45438 0.0503,0.0488 0.1047,0.054 0.1073,0.049 0.0864,0.0394 0.0841,0.0556 0.005,0.011 0.034,0.0806 0.0163,0.10691 0.005,0.11429 -0.298,0.42681 -0.1041,0.0671 -0.004,-3e-4 -0.0453,-0.002 -4.0675,0.038 -1.92542,-0.26248 -0.6947,2.85498 0.0615,0.18612 0.20569,0.3042 1.3288,0.319 1.5531,0.8555 0.0281,0.022 0.4299,0.44953 0.0888,0.40188 -0.0103,0.0297 -0.0107,0.0422 0.0174,0.1008 0.009,0.0456 0.0375,0.0599 0.0796,0.0947 0.0416,0.0494 0.0913,0.0835 0.0571,0.0391 0.0988,0.0509 2.0982,1.00702 0.0603,0.0152 0.0371,10e-4 1.45169,-0.0814 0.5178,-0.091 z" id="path354" style="stroke-width:0.125;stroke-miterlimit:4;stroke-dasharray:none"/>
  </g>
  <g id="LIZZANO" style="stroke-width:0.5;stroke-miterlimit:4;stroke-dasharray:none;stroke:#000000;stroke-opacity:1;stroke-linejoin:round;fill:#f8c300;fill-opacity:1" transform="matrix(40,0,0,40,-11819.168,-11775.59)">
    <path d="m 410.82111,374.06839 -0.96152,-2.02768 -0.1756,-0.34882 -0.14828,-0.25839 -0.10761,-0.1875 -0.22891,-0.3742 -0.11478,-0.17081 -0.36822,-0.5267 -0.11838,-0.16248 -0.13721,-0.1626 -0.7091,-0.80999 -1.68839,0.009 -0.452,-1.48432 -0.7825,0.10401 -0.61941,0.1571 -0.4141,0.15369 -2.22399,1.20431 -0.54783,0.37509 -0.54269,0.585 -0.21249,1.0393 -0.0371,0.2319 -0.0263,0.16211 -0.0167,0.16999 -0.0116,0.23181 0.0112,0.22439 -7e-4,0.0879 -9.8e-4,0.1285 -0.0212,0.11692 -0.28949,1.52029 -0.13141,0.43649 -0.0729,0.0747 -0.2713,0.11859 -0.44989,0.21421 -0.1269,0.0888 0.004,2.63501 1.3541,0.1261 2.17349,0.27078 0.39279,0.049 0.0398,0.051 0.0222,0.0284 0.44819,1.19049 -0.062,0.29981 -0.22821,1.10379 -0.007,0.0321 -0.0662,0.28931 -0.0516,0.156 -0.12711,0.14518 -0.0144,0.0164 -0.13269,0.0793 -0.43652,2.1835 0.0896,1.0791 0.8172,0.12552 0.37231,0.0635 0.3494,0.1141 0.0826,0.0469 0.89969,0.50909 0.18591,0.11902 0.0789,0.0525 0.023,0.0316 0.1842,0.38031 0.0554,0.3963 0.3689,0.513 0.32409,0.41141 0.3725,0.16558 1.2319,0.29032 0.0708,-1.29822 6.1e-4,-0.008 0.0205,-0.2655 0.025,-0.1666 0.0712,-0.32629 0.0602,-0.0243 0.38522,-2.3956 -0.0339,-0.8133 0.0995,-0.9349 0.3876,-2.64682 -0.195,-1.86688 0.006,-0.1745 1.71011,-2.12781 0.646,-0.82721 z" id="path371" style="stroke-width:0.125;stroke-miterlimit:4;stroke-dasharray:none"/>
  </g>
  <g id="MANDURIA" style="stroke-width:1;stroke-miterlimit:4;stroke-dasharray:none;stroke:#000000;stroke-opacity:1;stroke-linejoin:round;fill:#da271d;fill-opacity:1" transform="matrix(40,0,0,40,-11819.168,-11775.59)">
    <path d="m 450.30569,391.48349 0.59452,-2.96518 -0.51892,-0.42932 -0.0832,-0.0679 -0.32969,-0.19708 -0.14801,-0.0822 -0.37439,-0.14038 -0.12762,-0.0138 -0.66318,0.15301 -0.10232,0.0457 -0.1221,0.0877 -0.176,0.0685 -0.1839,0.041 -2.6817,0.1507 -0.0757,-0.003 -0.14402,-0.006 -0.87249,-0.0946 -0.12751,-0.0341 -0.3937,-0.10537 -0.39969,-0.0987 -2.40701,-0.52698 -0.16678,5.8e-4 -0.033,1.3e-4 -0.23789,0.0813 -0.26101,0.0541 -0.0158,-0.0461 -0.009,-0.0271 -0.0263,-2.07571 0.0366,-0.14121 0.0662,-0.1564 0.0771,-0.12589 0.34802,-0.22039 0.12149,-0.0654 0.1253,-0.0202 0.1576,-0.0196 0.12939,0.01 0.0979,-0.0187 0.0472,-0.0435 0.0372,-0.1015 0.03,-0.0841 0.1742,-0.79568 0.003,-0.20752 0.006,-0.6651 5.8e-4,-0.18448 -0.034,-0.17761 -0.0708,-0.0864 -0.0484,-0.0463 -0.0131,-0.0125 -0.0554,-0.0263 -0.0578,-0.0118 -0.5299,0.0831 -0.65821,0.0306 -0.0926,-0.003 -0.0572,-0.002 -0.12308,-0.004 -0.80441,-0.0383 -0.11899,-0.0188 -0.0333,-0.19479 -0.005,-4.00092 4e-4,-0.0311 0.003,-0.17977 0.0107,-0.19642 0.0287,-0.4913 0.0479,-0.2875 0.11219,-0.4907 0.0588,-0.25711 0.36481,-1.16559 0.017,-0.0543 1.552,-0.58871 0.20789,-0.0326 0.25891,0.051 0.18118,0.0648 0.2211,0.0239 0.2749,-0.002 0.28131,-0.0365 0.0198,-0.006 0.2113,-0.0655 0.9896,-0.35681 0.9801,-0.42749 0.401,-0.18921 -0.0394,-0.9154 -1.4046,-1.73831 -1.25482,-0.52958 -0.46668,-0.1607 -1.37301,-0.42661 -0.13089,-0.0192 -0.4412,-0.10202 -1.2753,-3.11148 -0.0759,-0.19471 -0.0396,-0.2265 -0.2436,-1.4429 0.008,-0.11731 0.016,-0.13299 0.0524,-0.319 -0.96478,-0.10169 -0.87851,0.11139 -2.6059,-1.64261 -1.77319,-0.39499 -0.2844,-0.0395 10e-4,-0.20861 0.0351,-0.26209 0.0689,-0.5968 -0.37351,-0.5521 -1.5451,-0.48571 -1.81711,0.0341 -1.82529,0.19921 -0.37011,0.26261 -0.13019,0.004 -1.1351,-0.006 -0.7341,-0.051 -0.22599,0.6011 -0.0168,0.10529 0.51581,0.5538 0.60199,0.64178 0.0447,0.0518 0.0138,0.1109 -0.1474,0.19071 -0.12241,0.1517 -0.90399,1.10669 -0.0808,0.0791 -0.62378,0.5687 -0.7634,-0.71881 -2.61862,-0.54999 -1.44299,0.18201 0.3414,1.09869 0.26251,0.26999 0.13049,0.0974 0.13901,0.10251 1.75018,1.19458 1.36811,0.91992 -0.1788,1.52338 -0.0976,0.1318 -0.0733,0.11182 -0.1742,0.35269 -0.0601,0.12259 -0.0497,0.11932 -0.12051,1.10398 -0.002,0.0242 0.414,0.16391 0.0906,0.003 0.0869,9.1e-4 0.0875,-0.0112 0.1565,-0.013 0.13019,0.0249 0.32949,0.0646 0.2753,0.7041 -0.0123,0.3075 -0.2471,1.10702 -0.71859,1.7012 -0.6091,1.3913 -0.15311,0.11078 -0.18488,0.13351 -0.0916,0.0945 -0.0724,0.20501 -0.19562,0.63181 -0.0286,0.15378 -0.0362,0.1951 -0.0665,0.3591 -0.26962,2.0129 0.0578,0.19541 0.27682,0.64279 0.18018,0.0922 0.10241,0.0653 0.25061,0.19202 0.61319,0.9342 1.5365,0.99518 0.1749,0.10523 0.89239,0.41857 0.0935,0.0118 0.21701,-0.004 0.18469,-0.007 0.21851,-0.003 0.1449,0.006 0.1405,0.0338 1.09329,0.8602 0.2691,0.21731 0.15,0.1554 0.11481,0.2218 0.074,0.2178 0.0465,0.1641 0.0522,0.2467 0.0826,0.4462 0.0316,0.2153 0.15759,1.254 0.0859,0.74148 0.2023,1.90351 0.0267,0.69681 2.52929,-0.3108 1.4318,-0.1748 3.3771,-0.2478 1.2272,-0.0321 1.05509,-0.0291 0.37359,0.005 0.0765,0.006 1.99781,0.1997 3.9591,0.55509 2.20719,0.53622 0.0575,0.0536 0.35489,0.23581 0.37979,0.15808 0.0828,0.0204 0.0943,0.0233 0.10853,0.004 1.5689,-0.0133 0.32669,-0.33399 0.0781,-0.0732 0.20779,-0.0361 0.31601,0.0479 0.20981,0.0882 0.26788,0.17599 z" id="path389" style="stroke-width:0.125;stroke-miterlimit:4;stroke-dasharray:none"/>
  </g>
  <g id="MARTINA_FRANCA" style="fill:#f8c300;fill-opacity:1;stroke:#000000;stroke-width:0.125;stroke-linejoin:round;stroke-miterlimit:4;stroke-opacity:1;stroke-dasharray:none" transform="matrix(40,0,0,40,-11819.168,-11775.59)">
    <path d="m 389.853,331.48361 -0.12879,-0.32751 -0.0265,-0.0942 0.22241,-0.19229 1.27729,-0.4039 0.25741,-0.007 0.0631,0.138 0.0357,0.2027 0.6792,0.2355 1.42682,0.0954 0.16128,-0.004 1.35562,-1.01349 0.5326,-0.4332 0.12848,-0.1221 0.035,-0.11081 -0.0848,-0.0812 0.8725,-0.25882 2.64978,0.582 0.15912,0.0698 0.0372,0.14642 0.4957,2.92709 -0.0282,0.0433 -0.39881,0.42618 -0.1448,0.029 -0.38031,0.0632 0.53482,1.4809 1.89889,-0.003 0.18921,0.0391 0.2572,0.15738 0.0599,0.089 -0.26327,1.1163 -0.0579,0.21689 -0.0603,0.1471 -0.011,0.027 -0.0451,0.0837 -0.0397,0.0495 -0.005,0.007 0.63349,0.28631 0.0635,-0.0671 0.2052,-0.16889 0.2609,-0.20831 0.33282,-0.13501 0.19849,-0.0566 0.33081,-0.0747 0.32169,-0.0428 0.26559,-0.005 0.2988,0.0394 0.86081,0.37341 0.61129,0.1073 0.27802,-0.45502 0.84879,-1.38678 0.25769,-0.20941 0.19381,-0.15869 0.707,-0.62781 0.30259,-0.89331 -0.12558,-0.84619 -0.16312,-1.09491 -0.2449,-0.12488 -0.72318,-0.44149 -0.11911,-0.0918 -0.11099,-0.13068 -0.0686,-0.12833 -1.99319,-1.11309 -0.12582,-0.0381 -1.42279,-0.43191 -0.23639,-0.0721 -0.18052,-0.1004 -0.95489,-0.8407 -0.1778,-0.2363 -0.0695,-0.0965 -0.11068,-0.1539 -0.0714,-0.14331 -0.0616,-0.13269 -0.0543,-0.14331 -0.022,-0.1341 -0.0696,-0.83819 -0.13141,-1.2125 -0.3255,-2.71222 -0.4415,-2.34829 -0.34,-1.9375 0.80951,-0.0515 0.0775,0.0489 0.0946,0.054 0.0494,-0.0435 0.1116,-0.19519 0.1174,-0.34222 0.006,-0.0659 2.1e-4,-0.138 -0.007,-0.1214 -0.0307,-0.2652 -0.0299,-0.0917 -0.0512,-0.0111 -0.116,-0.1543 -0.0314,-0.0134 -0.0687,-0.0274 -0.14529,-0.0176 -0.18179,-0.002 -0.33442,0.18399 -0.0324,0.0494 -0.0353,0.10099 -0.009,0.031 -0.021,0.0669 -0.1177,0.10162 -0.0821,0.055 -0.11509,0.0707 -0.3645,0.21649 -0.0489,0.028 -0.088,-0.0456 -0.0794,-0.0422 -0.87729,-0.4802 -0.17361,-0.11688 -0.0704,-0.0525 -0.0885,-0.0664 -0.006,-0.005 -0.2695,-0.2771 -0.43631,-0.4537 -0.11499,-0.1276 -0.1846,-0.2128 -0.11221,-0.17559 -1.06159,-2.6153 -0.0349,-0.16992 -0.15109,-0.82709 0.0605,-0.33481 0.1495,-0.21408 0.0504,-0.0727 -0.27448,-0.5062 -0.16,-0.24319 -0.1922,-0.19879 -0.51462,-0.20081 -0.31619,-0.1203 -0.26551,-0.0196 -0.27209,0.0427 -0.1727,0.0868 -0.62601,-0.40549 -0.68368,-0.58402 -0.36002,-0.16198 -0.7482,-0.2576 -0.0896,-0.0156 -0.0186,-0.004 -0.0719,-0.0137 -0.1947,-0.0438 -0.0883,-0.0206 -0.15888,-0.0464 -0.10421,-0.0325 -0.12131,-0.066 -0.3819,-0.2222 -0.0256,-0.0517 -0.007,-0.0481 -0.0449,-0.30789 0.068,-1.5788 0.0146,-0.1029 0.0339,-0.23221 0.0198,-0.112 0.0406,-0.16941 0.0282,-0.0913 0.0334,-0.0943 0.19761,-0.1276 0.18759,-0.094 -0.25428,-0.0374 -0.2149,0.12928 -0.31772,0.38342 -0.24921,0.4599 -0.0768,0.0599 -0.1885,0.0413 -0.2894,0.0273 -0.26691,0.027 -0.19818,0.0378 -0.0853,0.10388 0.0115,0.14691 0.053,0.14139 0.074,0.121 0.0604,0.12741 0.14761,0.31351 -4e-4,0.14658 -0.11392,0.0227 -0.41379,0.0602 -0.12289,-0.0256 -0.11231,-0.10141 -0.0585,-0.11948 -0.20389,-0.34222 -0.17752,-0.18088 -0.82049,-0.5145 -0.62671,-0.0792 -0.1127,0.0358 -0.11579,0.16052 -0.0756,0.13238 -0.1272,0.33542 -0.61752,-0.16101 -0.0541,-0.15191 -0.10922,-0.2295 -0.6105,-0.3648 -0.14609,-0.0588 -0.0945,-10e-4 -0.10758,0.003 -0.0676,0.002 -0.10079,0.10678 -0.10068,0.17142 -0.0679,0.10388 -0.14811,-0.0504 -0.41619,-0.50052 -0.0747,-0.1037 -0.0716,-0.1423 0.007,-0.1546 0.1011,-0.1861 -0.46451,-1.02948 -0.5505,-1.08261 -0.0316,-0.0453 -0.0603,-0.0583 -0.69391,-0.45889 -0.46649,-0.29559 -0.0532,-0.0511 -0.0893,-0.0859 -0.13202,-0.1394 -0.1423,-0.21631 -0.003,-0.1987 0.36152,-0.82541 0.78369,-0.2088 0.91781,0.0499 0.3067,0.16312 0.21259,0.0807 0.0449,-0.0733 0.0343,-0.13388 -0.031,-0.2548 -0.73758,-0.51062 -0.888,-0.93029 -0.15552,-0.95761 0.0542,-0.10868 0.2124,-0.17202 0.12882,-0.0575 0.6261,0.0383 0.008,0.0957 -0.0816,0.16382 -0.0985,0.14758 -0.0295,0.1464 0.0926,0.1408 0.13559,0.0725 0.67002,0.002 0.1513,-10e-4 1.13349,-0.62881 0.29239,-0.27899 0.0301,-0.1023 -0.0959,-0.0739 -0.1004,-0.0364 -0.1597,-0.20679 -0.5293,-0.72272 -0.33279,-0.47869 -0.0168,-0.14988 -0.066,-0.42901 -0.0238,-0.0747 -0.0631,-0.0829 -0.0749,-0.0951 -0.027,0.0423 -0.29498,0.37619 -1.85962,0.32141 -0.24469,0.0301 -0.7663,-0.006 -3.36511,-0.20648 -0.44928,-0.0359 -0.59772,-0.29151 -0.15478,0.008 -0.55072,0.0985 -0.2309,0.0867 0.55451,1.64511 0.62851,2.97531 0.0221,0.1478 0.006,0.15679 -0.0165,0.91529 -0.007,0.0847 -0.43899,0.5792 -2.45731,1.5148 -0.4606,0.15369 -0.0979,0.006 -0.15778,-0.0116 -0.2547,-0.0509 -0.1007,-0.0251 -0.1135,-0.0616 -1.80112,-0.31479 -0.89538,0.5112 -0.0496,-0.008 -0.0827,-0.56369 -0.5426,0.4907 -0.7254,0.58599 -0.39941,0.20679 -0.0523,0.0565 -0.29608,0.858 -0.7363,1.73749 -1.0083,1.86859 -0.9769,1.38641 -0.2402,0.25061 -0.0563,0.14609 -0.39529,2.12689 -5.2e-4,0.004 -0.0268,0.19732 0.0267,0.16278 0.17032,0.693 0.72927,0.57742 0.18891,0.0652 0.4407,0.089 0.20889,0.0154 0.12101,0.0304 0.0679,0.0316 0.0316,0.0147 0.0703,0.0327 0.1026,0.0787 0.10449,0.0849 0.58682,1.83578 0.14469,0.7443 -0.0797,0.0291 -0.0121,0.004 -1.3248,0.11661 0.59561,0.47812 0.23529,0.19558 0.0235,0.0752 -0.42511,0.69949 -0.15768,0.13431 -0.0928,0.21979 -0.27591,0.81762 -0.43438,1.50348 0.0431,0.38922 0.0234,0.17298 0.0943,0.1365 0.53101,0.31061 0.13699,0.0759 0.32569,0.0704 0.0848,-0.0394 -0.0123,-0.1177 -0.0219,-0.14261 -2.1e-4,-0.2041 0.0643,-0.1099 0.1388,-0.0637 0.15969,0.12979 0.11811,0.15 0.22949,0.43362 -0.0335,0.30719 -0.045,0.0886 -0.0553,0.0845 -0.0438,0.0424 0.406,0.0142 1.10718,0.94699 0.46091,0.61749 0.30319,0.49881 0.0613,0.092 0.0546,0.0725 0.54351,0.49042 0.1832,0.0743 0.1922,0.009 1.07199,0.1127 0.88959,0.18341 0.32632,0.0673 0.46518,0.59882 0.11551,0.0463 1.47891,-0.0433 0.0865,-0.0254 0.8721,-0.67011 0.0915,-0.14661 0.044,-0.2001 -0.0442,-0.207 -0.0856,-0.20139 -0.11682,-0.19479 -0.124,-0.12051 -0.19699,-0.0791 -0.15149,-0.0437 -0.11462,-0.0756 -0.0241,-0.1257 0.047,-0.29559 0.2504,-0.48941 0.18228,-0.21131 0.0437,-0.0346 0.24301,-0.0442 1.06439,-0.1937 0.13501,0.0171 0.63141,0.12402 0.78449,0.23948 0.48291,0.3117 1.1513,0.9585 2.45398,2.6564 1.01972,1.92352 0.26858,0.093 0.4317,0.12759 0.59412,-0.0449 0.7547,0.0508 0.4483,0.76318 0.77948,1.246 0.0309,0.0104 0.0694,0.0234 0.094,0.0177 0.0679,0.006 0.0124,10e-4 0.0915,-0.0309 0.009,-0.008 0.0246,-0.0217 0.3916,-0.49109 0.19559,-0.30811 0.0613,-0.1528 0.1535,-0.1604 0.86511,-0.8251 0.5235,-0.0221 0.85809,0.7967 0.0604,0.11282 0.3284,0.759 z" id="path410" style="stroke-width:0.125;stroke-miterlimit:4;stroke-dasharray:none"/>
  </g>
  <g id="MARUGGIO" style="fill:#f8c300;fill-opacity:1;stroke:#000000;stroke-width:0.125;stroke-linejoin:round;stroke-miterlimit:4;stroke-opacity:1;stroke-dasharray:none" transform="matrix(40,0,0,40,-11819.168,-11775.59)">
    <path d="m 428.01801,390.62531 -0.0267,-0.69681 -0.2023,-1.90351 -0.0859,-0.74148 -0.15759,-1.254 -0.0316,-0.2153 -0.0826,-0.4462 -0.0522,-0.2467 -0.0465,-0.1641 -0.074,-0.2178 -0.11481,-0.2218 -0.15,-0.1554 -0.2691,-0.21731 -1.09329,-0.8602 -0.1405,-0.0338 -0.1449,-0.006 -0.21851,0.003 -0.18469,0.007 -0.21701,0.004 -0.0935,-0.0118 -0.89239,-0.41857 -0.1749,-0.10523 -1.5365,-0.99518 -0.61319,-0.9342 -0.25061,-0.19202 -0.10241,-0.0653 -0.18018,-0.0922 -0.7435,-0.5025 -0.98801,-0.6182 -0.53479,-0.2557 -0.82721,0.7503 -0.073,0.0807 -0.0646,0.0342 -0.0795,0.0405 -0.15939,0.0749 -0.1463,0.0442 -0.57862,0.12509 -0.32769,0.0488 -0.1406,0.088 -0.11709,0.0859 -2.5037,2.04651 -0.0222,0.90859 10e-4,0.076 -0.2265,1.39209 -0.23133,0.6319 -0.10778,0.2637 -0.0605,0.076 -0.15402,-0.0427 -0.1658,0.2511 -0.1619,0.72412 -0.13849,1.04629 -0.0216,0.16861 0.0158,0.35169 0.0295,0.1055 0.1409,0.38809 0.1204,0.2041 0.11248,0.19391 0.0867,0.25769 0.0136,0.1781 -0.0207,0.13422 -0.10662,0.32247 -0.1,0.11051 -0.0259,0.0286 0.0425,1.0514 0.003,0.0108 0.0233,0.0345 0.014,0.0201 0.0474,0.0457 0.0665,0.0555 0.094,0.0717 0.0382,0.022 0.249,0.1377 0.12872,0.0455 0.008,0.002 0.0121,0.002 0.24628,0.0255 0.0262,7e-4 2.7789,-0.0493 0.1485,-0.0303 1.46329,-0.35009 1.50512,-0.0645 0.387,-0.0183 0.88849,-0.0909 0.89981,-0.103 2.20037,-0.19748 3.47593,-0.21582 0.6951,-0.0377 z" id="path413" style="stroke-width:0.125;stroke-miterlimit:4;stroke-dasharray:none"/>
  </g>
  <g id="MASSAFRA" style="fill:#f8c300;fill-opacity:1;stroke:#000000;stroke-width:0.125;stroke-linejoin:round;stroke-miterlimit:4;stroke-opacity:1;stroke-dasharray:none" transform="matrix(40,0,0,40,-11819.168,-11775.59)">
    <path d="m 363.6239,330.36761 0.0834,-0.0413 0.0358,-0.0613 -0.01,-0.0898 -0.0225,-0.0642 -0.0464,0.002 -0.11539,0.0236 -0.0106,0.15341 0.005,0.0781 0.0805,-1.9e-4 z" id="path416" style="stroke-width:0.125;stroke-miterlimit:4;stroke-dasharray:none"/>
    <path d="m 364.26639,330.23489 0.0488,-0.173 -0.002,-0.19858 -0.17089,-0.29992 -0.0635,-0.0724 -0.30618,-0.0228 -0.10172,0.1767 0.41501,0.60669 0.086,0.0676 0.0944,-0.0843 z" id="path418" style="stroke-width:0.125;stroke-miterlimit:4;stroke-dasharray:none"/>
    <path d="m 365.035,328.0466 0.005,-0.0866 -0.0361,-0.056 -0.0892,-0.0127 -0.0981,0.0218 -0.0569,0.0783 -0.0323,0.0573 0.0169,0.15768 9e-5,0.0604 0.0341,0.15158 0.0306,0.1426 0.0774,0.0608 0.12772,0.037 0.0758,-0.0808 0.0183,-0.11899 0.0568,-0.0792 -0.004,-0.11249 -0.009,-0.113 -0.0564,-0.01 -0.0725,0.0243 0.0116,-0.12231 z" id="path420" style="stroke-width:0.125;stroke-miterlimit:4;stroke-dasharray:none"/>
    <path d="m 364.0372,327.90079 0.0807,-0.14328 0.0647,-0.11991 0.0385,-0.099 -0.10519,-0.047 -0.0274,-0.009 -0.10739,-0.0815 -0.10602,-0.0178 -0.0345,0.0839 0.003,0.34189 0.0269,0.10089 0.0775,0.0452 0.0887,-0.0546 z" id="path422" style="stroke-width:0.125;stroke-miterlimit:4;stroke-dasharray:none"/>
    <path d="m 365.05029,319.67001 0.27591,-0.81762 0.0928,-0.21979 0.15768,-0.13431 0.42511,-0.69949 -0.0235,-0.0752 -0.23529,-0.19558 -0.59561,-0.47812 -1.33871,-0.12009 -0.26279,0.007 -0.21521,0.0315 -1.18189,0.19928 -2.67639,0.63181 -0.19812,0.10901 -0.12738,0.10168 -0.77051,0.63101 -1.20379,1.5589 -0.0698,-0.0971 -0.30941,-0.2576 -0.80259,0.20779 -0.14532,0.052 -0.11639,0.0606 -2.41709,2.80149 -0.0437,0.0715 -0.1188,0.22272 -0.0253,0.14151 0.067,0.13998 0.0354,0.16891 -0.0486,0.168 -0.76401,1.7125 -0.72549,0.40948 -0.40412,0.58801 -0.78848,1.1753 -0.53741,1.05841 -0.0579,0.13159 -0.0269,0.20279 -0.0813,0.76361 -0.0176,0.9584 -0.1069,1.2883 -0.0505,0.5123 0.0359,0.0463 0.0429,0.0661 0.0165,0.0257 0.033,0.2023 -0.0194,1.49051 -0.0768,1.51699 -0.0763,0.78989 -0.39792,1.79861 -0.0299,0.0981 -0.10038,0.26501 -0.82492,1.3682 -0.50558,0.53869 -0.12351,0.14041 -0.2362,0.31101 -0.14679,0.19858 -0.13251,0.24212 -0.0302,0.1171 -0.13107,0.6365 -0.01,0.13199 -0.0244,1.72199 0.0236,0.33951 0.0203,0.28561 0.12741,-0.0235 0.1578,-0.025 0.10059,0.0248 0.0514,0.0635 0.0699,0.0892 0.14889,0.38739 0.19541,0.51059 0.0702,0.29382 0.20019,0.8768 0.34641,1.89279 0.0267,0.17191 0.009,0.0604 0.5856,-0.2044 0.37439,-0.1044 0.55539,-0.14591 0.13092,-0.0261 0.1618,-0.0291 0.2053,-0.0335 1.43969,-0.19242 0.2703,-0.0264 0.39831,-0.0329 0.67328,-0.0252 1.0456,-0.003 1.29641,0.0586 0.36219,0.0262 1.16632,0.19818 0.54449,0.1257 0.33771,0.0834 0.4465,-0.979 0.19318,-0.4278 0.3544,-0.9389 0.12881,-0.3562 0.1063,-0.3808 0.0114,-0.0763 0.001,-0.01 -0.0686,-0.0677 -0.17761,-0.0925 -0.76691,-1.07251 1.24499,-0.78528 0.0726,-0.0495 0.55532,-0.9484 0.0277,-0.069 0.008,-0.1278 -0.0198,-0.22492 0.53311,0.006 0.0895,-0.0111 0.4607,-0.4415 0.0693,-0.0935 0.62988,-1.26309 0.0597,-0.14019 -0.0348,-0.11112 -0.1445,-0.1835 -0.23411,-0.38339 0.008,-0.1157 0.16061,-0.39379 0.53949,-0.93692 0.13379,-0.19361 0.0505,-0.1091 -0.0474,-0.0942 -0.15249,-0.13772 -0.10602,-0.0815 -0.0202,-0.0132 -0.11969,-0.0785 -0.0873,-0.0694 0.005,-0.0763 0.1257,-0.3815 0.0616,-0.13651 0.0426,-0.0616 0.14832,-0.10678 0.15659,-0.0931 0.0993,-0.0683 0.0943,-0.0791 0.0579,-0.0592 0.21011,-0.61081 0.11399,-0.39118 -0.009,-0.10962 -0.0324,-0.48428 -0.036,-0.78491 0.25711,-0.2872 0.1474,-0.13791 0.0298,-0.0981 0.0595,-0.25921 0.1521,-0.26609 0.21222,-0.0619 0.388,-0.24291 0.0893,-0.0701 0.0703,-0.13489 0.18332,-0.0784 0.23328,-0.0824 0.3063,-0.12042 0.36722,-0.15769 0.0721,-0.0691 0.0264,-1.08261 -0.0295,-0.12179 -0.20822,-0.0343 -0.13019,10e-4 -0.0901,0.0415 -0.2312,0.41211 -0.29691,0.15488 -0.7575,-0.29129 -0.0924,-0.0665 -0.31879,-0.28451 -0.156,-0.003 -0.94251,-0.219 -0.0124,-0.0503 -0.0492,-0.2341 0.0196,-0.31122 0.0134,-0.1929 0.007,-0.16748 1.9e-4,-0.2915 -0.0271,-0.4347 -0.0232,-0.10571 -0.0538,-0.0361 -0.0711,-0.32489 0.0136,-0.0635 0.1473,0.009 0.22309,0.0581 0.66769,0.17489 0.0451,0.044 0.17901,0.24969 -0.064,0.0621 -0.11157,0.0145 -0.15741,0.0215 -0.0806,-0.008 -0.0389,0.0575 -0.17621,0.47428 -0.0151,0.0546 0.005,0.0833 0.009,0.0405 0.122,0.19782 0.0579,0.0132 0.1282,0.0173 0.12128,0.0148 0.0619,-0.004 0.045,-0.0234 0.0256,-0.1287 -3.9e-4,-0.0552 -0.078,-0.0358 -0.0338,0.0503 -0.18591,-0.0374 -0.0454,-0.0387 -0.0101,-0.29251 0.0237,-0.0547 0.29181,-0.14402 0.0433,0.004 0.2063,0.01 0.1059,0.0134 0.076,-0.0514 0.0493,-0.0955 0.0215,-0.11441 0.0623,-0.083 0.1153,-0.0901 0.12338,0.008 0.0893,0.1231 0.0104,0.1373 -0.0695,0.10819 -0.11761,0.0407 -0.0513,0.059 0.0306,0.0839 0.61829,0.3024 0.156,0.0776 -0.062,0.2193 -0.0717,0.0623 0.0253,0.57599 0.0515,0.0531 0.1994,0.0516 0.0848,-0.0222 0.0645,-0.0569 -0.0137,-0.14191 -0.002,-0.12439 0.051,-0.1228 0.0595,-0.1229 0.0914,-0.0949 0.0627,-0.0364 0.0548,-0.13198 0.14609,-0.37091 0.0296,-0.1507 0.0232,-0.392 -0.001,-0.10541 -0.15378,-0.0162 -0.2684,-0.0287 -0.0377,0.0697 0.005,0.0712 0.13068,0.0632 0.0219,0.0746 -0.0572,0.16452 -0.0562,0.12839 -0.23929,0.0447 -0.1474,-0.003 -0.0665,-0.0847 -0.0246,-0.17999 -0.005,-0.1575 0.0262,-0.1597 0.01,-0.17422 -0.0834,-0.1001 -0.15262,0.003 -0.20568,0.001 -0.17289,-0.008 -0.0898,-0.0421 -0.12591,-0.1119 -0.19248,-0.12339 -0.17901,-0.0289 -0.15949,-0.0107 -0.12512,0.004 -0.0656,0.0223 -0.0888,0.0512 -0.47031,0.0368 -0.117,-0.2016 -0.2944,-0.2313 -0.1893,-0.117 0.0593,-0.3877 0.0441,-0.33401 0.016,-0.2366 -0.068,-0.6576 -0.1167,-0.63202 -0.0355,-0.16467 0.12301,-0.0453 0.6041,-0.0269 0.6727,-0.0229 0.2287,-0.0285 0.2051,-0.035 0.22269,-0.0619 0.3338,-0.116 0.1644,-0.0699 0.6651,-0.54202 0.0715,-0.1175 0.0499,-0.0815 0.0938,0.15808 -0.0143,0.19892 -0.0303,0.0992 -0.14181,0.3053 -0.24609,0.46331 0.0472,0.16919 0.12622,0.0257 0.1643,-0.0518 0.18369,-0.14569 0.10211,-0.11282 0.0882,-0.10468 -0.0163,-0.10342 -0.0258,-0.0302 -0.1138,-0.0795 -0.005,-0.10932 0.0226,-0.0696 0.0151,-0.0485 0.0922,-0.0532 0.1352,0.12051 0.0428,0.0522 0.13968,0.0151 0.078,-0.1047 0.0597,-0.12641 -0.0625,-0.4458 -0.0378,-0.1373 -0.0584,-0.1383 -0.008,-0.11719 0.004,-0.14361 0.0563,-0.19568 0.0373,-0.13022 0.0761,-0.15668 0.0394,-0.067 0.0704,-0.0788 0.27622,-0.14041 0.0438,-0.0424 0.0553,-0.0845 0.045,-0.0886 0.0335,-0.30719 -0.22949,-0.43362 -0.11811,-0.15 -0.15969,-0.12979 -0.1388,0.0637 -0.0643,0.1099 2.1e-4,0.2041 0.0219,0.14261 0.0123,0.1177 -0.0848,0.0394 -0.32569,-0.0704 -0.13699,-0.0759 -0.53101,-0.31061 -0.0943,-0.1365 -0.0234,-0.17298 -0.0431,-0.38922 0.43438,-1.50348 z" id="path424" style="stroke-width:0.125;stroke-miterlimit:4;stroke-dasharray:none"/>
  </g>
  <g id="MONTEIASI" style="fill:#f8c300;fill-opacity:1;stroke:#000000;stroke-width:0.125;stroke-linejoin:round;stroke-miterlimit:4;stroke-opacity:1;stroke-dasharray:none" transform="matrix(40,0,0,40,-11819.168,-11775.59)">
    <path d="m 398.9021,353.87079 -0.0252,-0.18308 -0.16009,-0.9306 -0.0524,-0.0669 -0.0251,-0.0321 -0.16211,-0.0407 -1.42401,-0.62341 0.21921,-0.43769 0.35089,-0.76211 0.0105,-0.0705 -0.008,-0.13708 -0.0894,-0.1044 -0.99679,-0.36902 -1.24671,0.2951 -3.104,-0.7214 -1.26679,0.0143 -0.079,0.93079 -0.54791,1.75412 -0.0506,0.68768 0.17041,0.21561 0.0396,-0.0712 0.66879,-0.3212 0.0795,-0.0234 0.13668,-0.0101 2.0965,-0.14709 2.19531,0.95731 0.0547,0.0733 0.10632,0.2388 0.0839,0.1875 0.41739,1.14609 0.0636,0.17669 2.54511,-1.6253 z" id="path477" style="stroke-width:0.125;stroke-miterlimit:4;stroke-dasharray:none"/>
  </g>
  <g id="MONTEMESOLA" style="fill:#f8c300;fill-opacity:1;stroke:#000000;stroke-width:0.125;stroke-linejoin:round;stroke-miterlimit:4;stroke-opacity:1;stroke-dasharray:none" transform="matrix(40,0,0,40,-11819.168,-11775.59)">
    <path d="m 385.16431,344.952 -0.0401,0.59301 0.0422,0.0894 1.67829,0.49481 0.44659,-0.11761 0.3967,-0.44321 2.6423,-3.4054 0.7879,-1.03939 -0.0879,-0.0973 -0.052,-0.1102 -0.0543,-0.14151 -0.11062,-0.6247 0.0579,-0.0471 0.19079,-0.0963 0.10251,-0.0393 0.15869,-0.0485 0.15311,-0.0293 0.21069,0.0592 0.11179,0.0513 0.10071,0.13299 0.0786,0.1525 0.0962,0.0403 0.55841,-0.2514 0.1445,-0.087 0.084,-0.079 -0.002,-0.12438 -0.0389,-0.146 -0.45209,-1.49609 -0.027,-0.069 -0.1254,-0.24841 -0.1091,-0.0787 -0.40439,-0.18561 -1.14432,-1.68259 -0.0899,-0.4226 -0.2861,-0.57871 -0.26169,-0.15198 -0.7442,0.025 -1.26679,0.2749 -0.8743,-0.241 -1.03631,0.6518 -0.4874,0.1542 -0.0854,0.0669 0.0376,0.12689 0.0662,0.15561 0.83939,1.78219 1.11502,2.4747 0.0184,0.33899 -10e-4,0.10852 -1.16562,1.41388 -0.0813,0.0957 -0.1644,0.1412 -0.1871,0.0761 -0.64838,0.23789 -0.091,2.3443 z" id="path483" style="stroke-width:0.125;stroke-miterlimit:4;stroke-dasharray:none"/>
  </g>
  <g id="MONTEPARANO" style="fill:#f8c300;fill-opacity:1;stroke:#000000;stroke-width:0.125;stroke-linejoin:round;stroke-miterlimit:4;stroke-opacity:1;stroke-dasharray:none" transform="matrix(40,0,0,40,-11819.168,-11775.59)">
    <path d="m 402.03101,361.2186 -0.64441,-0.1937 -2.17289,-0.5946 -0.43841,-0.10111 -0.14441,-0.0184 -1.15988,0.0671 0.0272,0.40631 0.0557,0.004 0.1124,0.0195 0.19342,0.15409 0.1543,0.14181 0.0192,0.51068 -0.0333,1.2508 -0.1861,0.40631 0.006,0.0861 0.003,0.0355 0.0257,0.17499 0.009,0.0423 0.0146,0.0446 0.47769,0.24619 0.78312,0.11261 0.38259,0.0393 0.72379,-0.34891 0.55441,-0.45681 0.45179,-0.45899 0.78482,-1.5693 z" id="path486" style="stroke-width:0.125;stroke-miterlimit:4;stroke-dasharray:none"/>
  </g>
  <g id="MOTTOLA" style="fill:#f8c300;fill-opacity:1;stroke:#000000;stroke-width:0.125;stroke-linejoin:round;stroke-miterlimit:4;stroke-opacity:1;stroke-dasharray:none" transform="matrix(40,0,0,40,-11819.168,-11775.59)">
    <path d="m 365.1474,317.0499 1.3248,-0.11661 0.0121,-0.004 0.0797,-0.0291 -0.14469,-0.7443 -0.58682,-1.83578 -0.10449,-0.0849 -0.1026,-0.0787 -0.0703,-0.0327 -0.0316,-0.0147 -0.0679,-0.0316 -0.12101,-0.0304 -0.20889,-0.0154 -0.4407,-0.089 -0.18891,-0.0652 -0.72927,-0.57742 -0.17032,-0.693 -0.0267,-0.16278 0.0268,-0.19732 5.2e-4,-0.004 0.39529,-2.12689 0.0563,-0.14609 0.2402,-0.25061 0.9769,-1.38641 1.0083,-1.86859 0.7363,-1.73749 0.29608,-0.858 0.0523,-0.0565 0.39941,-0.20679 0.7254,-0.58599 0.5426,-0.4907 -0.0307,-0.18332 -0.2612,-0.14248 -0.10611,0.0478 -5.89749,3.38699 -0.0511,0.0454 -0.091,0.0809 -0.14218,0.13761 -0.12741,0.14068 -0.0779,0.1807 -0.0657,0.15771 -0.31513,1.36771 -0.38968,2.0336 -0.0398,0.22568 -0.0475,0.53891 -0.0332,0.3764 0.0242,0.2749 -0.0374,0.27851 -0.0289,0.19308 -0.0325,0.13761 -0.0503,0.15911 -0.14118,0.15928 -0.12142,0.0524 -0.11579,0.0331 -1.55731,0.3092 -0.1394,0.0154 -1.4914,0.13608 -0.19089,0.0166 -0.12179,-9.8e-4 -0.95401,-0.22741 -0.0403,-0.0374 0.003,-0.12912 0.043,-0.13748 0.11408,-0.32651 0.064,-0.15619 -0.006,-0.065 -0.005,-0.0577 -0.1286,-0.0758 -0.15049,-0.0245 -0.15921,-0.014 -1.5971,-0.11492 -0.7573,0.59341 -1.55459,-0.3797 0.0526,-0.27121 0.054,-0.39078 -0.004,-0.11779 -0.0564,-0.15702 -0.29071,-0.25921 -0.54108,-0.21 -3.10431,-0.1976 -0.16531,-0.008 -0.12268,-0.006 -0.19861,0.11789 -0.21079,0.28491 -0.1318,0.20248 -0.19141,0.19272 -0.14929,0.0621 -2.7233,0.93688 -0.23492,-0.0158 -1.17359,-0.0965 -0.2041,-0.081 -0.15082,-0.16242 -2.98458,-3.35098 -0.0115,-0.18652 0.18961,-0.17579 0.3493,-0.2601 0.61951,-0.74679 1.79309,-2.5679 0.0208,-0.0696 -0.85791,-1.44321 -0.5108,0.3815 -0.70731,0.51092 -1.59417,0.84919 -3.20041,1.64441 -0.14832,0.0707 -0.0534,0.0255 -0.15408,0.0634 -0.12008,0.003 -1.21192,-0.1001 -0.24359,-0.0259 -0.3696,-0.0537 -0.17102,-0.0313 -0.25659,-0.0408 -0.24469,-0.0362 -0.43341,-0.0631 -0.12491,-0.01 -0.1012,-0.002 -0.12878,0.004 -0.15671,0.007 -0.18411,0.0167 -0.36038,0.0731 -0.99311,0.25241 -0.15219,0.0551 -0.9577,0.44892 -0.34442,0.28598 -0.0569,0.0802 -0.4338,1.5448 -0.002,0.0923 0.0197,0.43921 0.68741,1.7959 0.42249,0.72528 -0.12699,0.6095 0.32309,1.521 0.51611,1.1463 0.80811,3.52362 0.0223,0.16079 -0.0526,0.11249 -1.6789,0.9083 -0.0461,0.0941 -0.004,0.12561 0.004,0.10559 0.0191,0.14231 0.0715,0.27047 0.0797,0.12812 0.10068,0.1058 0.11722,0.13059 0.48889,0.78491 0.17059,1.29919 -0.13058,0.85932 -0.55212,1.57559 0.2413,0.41281 0.44732,0.71289 0.60999,0.82541 0.42059,0.33948 0.24552,0.14932 0.11367,0.0561 1.45212,0.44711 0.1984,0.0354 0.20569,-0.006 0.14282,-0.0309 0.1871,-0.0837 0.1676,-0.0571 0.12769,-0.0418 0.55179,-0.0658 1.4501,0.40409 0.21222,0.0886 0.24548,0.1261 0.14252,0.083 0.14328,0.16839 0.12961,0.20172 0.0979,0.2876 0.11929,0.48978 0.0434,0.4465 0.10892,0.789 0.1315,0.93592 0.10208,0.42868 0.083,0.18701 0.15921,-0.0742 0.19638,-0.0474 0.18972,-0.0421 0.3057,-0.0279 0.20819,0.039 0.43289,0.18311 1.50781,0.0813 1.8841,-0.026 2.009,-0.1799 3.04279,0.10968 1.92831,0.16751 0.0505,-0.5123 0.1069,-1.2883 0.0176,-0.9584 0.0813,-0.76361 0.0269,-0.20279 0.0579,-0.13159 0.53741,-1.05841 0.78848,-1.1753 0.40412,-0.58801 0.72549,-0.40948 0.76401,-1.7125 0.0486,-0.168 -0.0354,-0.16891 -0.067,-0.13998 0.0253,-0.14151 0.1188,-0.22272 0.0437,-0.0715 2.41709,-2.80149 0.11639,-0.0606 0.14532,-0.052 0.80259,-0.20779 0.30941,0.2576 0.0698,0.0971 1.20379,-1.5589 0.77051,-0.63101 0.12738,-0.10168 0.19812,-0.10901 2.67639,-0.63181 1.18189,-0.19928 0.21521,-0.0315 0.26279,-0.007 1.33871,0.12009 z" id="path501" style="stroke-width:0.125;stroke-miterlimit:4;stroke-dasharray:none"/>
  </g>
  <g id="PALAGIANELLO" style="fill:#f8c300;fill-opacity:1;stroke:#000000;stroke-width:0.125;stroke-linejoin:round;stroke-miterlimit:4;stroke-opacity:1;stroke-dasharray:none" transform="matrix(40,0,0,40,-11819.168,-11775.59)">
    <path d="m 333.35559,351.7923 -0.0619,-1.53559 2.1687,-1.4198 0.29871,-0.18652 1.64279,-1.02789 0.83749,-0.46219 0.23612,-0.11972 0.005,-0.0267 0.0229,-0.12958 0.027,-0.15451 0.35421,-2.0549 0.0524,-0.3497 0.1417,-1.0315 0.0588,-0.57172 0.002,-0.16107 -0.0153,-0.23172 -0.26471,-3.39029 -0.1203,-0.6874 -0.17539,-0.4975 -0.10311,-0.21478 -0.2761,-1.04502 -0.20648,-1.42081 -0.0397,-0.28649 -0.0248,-0.27659 -0.1622,-2.01281 -0.083,-0.18701 -0.10208,-0.42868 -0.1315,-0.93592 -0.10892,-0.789 -0.0434,-0.4465 -0.11929,-0.48978 -0.0979,-0.2876 -0.12961,-0.20172 -0.14328,-0.16839 -0.14252,-0.083 -0.24548,-0.1261 -0.21222,-0.0886 -1.4501,-0.40409 -0.55179,0.0658 -0.12769,0.0418 -0.1676,0.0571 -0.1871,0.0837 -0.14282,0.0309 -0.20569,0.006 -0.1984,-0.0354 -1.45212,-0.44711 -0.11367,-0.0561 -0.24552,-0.14932 0.0173,0.47082 0.15329,0.98108 0.36801,1.1258 -0.0231,0.1773 -0.28901,1.85581 0.1633,1.99551 0.0162,0.12659 1.12341,3.29199 0.16098,0.16232 0.2367,0.1373 0.0269,0.007 0.0856,0.0216 0.0779,-0.0386 0.0982,-0.0272 0.23181,-0.0287 0.0639,0.055 0.014,0.30231 -0.0572,2.05298 -0.0564,1.4621 -0.39249,2.0386 -0.0494,0.22662 -0.0729,0.19178 -1.27781,2.6821 -0.0943,0.0914 -0.16169,0.11892 -0.0957,0.0637 -0.15271,0.0913 -0.19391,0.10129 -0.20059,0.0989 -0.19971,0.12838 -0.17779,0.14502 -0.1749,0.16379 -0.14209,0.16611 -0.13892,0.1745 -0.12179,0.17169 -0.27121,0.42639 -0.0842,0.16742 -0.0617,0.16428 0.0183,0.1026 0.5892,0.85092 0.12369,0.1355 0.13052,0.12579 0.1395,0.12412 0.18978,0.16308 1.13462,0.94061 0.16839,0.1232 0.19049,0.12879 0.24381,0.0887 0.15069,0.0199 0.11622,0.0149 0.23788,-0.007 0.2229,-0.0207 z" id="path548" style="stroke-width:0.125;stroke-miterlimit:4;stroke-dasharray:none"/>
  </g>
  <g id="PALAGIANO" style="fill:#f8c300;fill-opacity:1;stroke:#000000;stroke-width:0.125;stroke-linejoin:round;stroke-miterlimit:4;stroke-opacity:1;stroke-dasharray:none" transform="matrix(40,0,0,40,-11819.168,-11775.59)">
    <path d="m 338.5517,353.57999 0.56909,-0.3497 1.0487,-0.59589 2.20551,-1.16501 0.35129,-0.1683 0.2597,-0.11649 0.3162,-0.1362 0.74172,-0.29999 1.05909,-0.40222 0.46179,-0.16928 0.24991,-0.0838 0.10211,-0.0323 0.1568,-0.0466 1.7222,-0.50348 0.10568,-0.0304 0.42822,-0.12058 0.0983,-0.0252 -0.009,-0.0604 -0.0267,-0.17191 -0.34641,-1.89279 -0.20019,-0.8768 -0.0702,-0.29382 -0.19541,-0.51059 -0.14889,-0.38739 -0.0699,-0.0892 -0.0514,-0.0635 -0.10059,-0.0248 -0.1578,0.025 -0.12741,0.0235 -0.0203,-0.28561 -0.0236,-0.33951 0.0244,-1.72199 0.01,-0.13199 0.13107,-0.6365 0.0302,-0.1171 0.13251,-0.24212 0.14679,-0.19858 0.2362,-0.31101 0.12351,-0.14041 0.50558,-0.53869 0.82492,-1.3682 0.10038,-0.26501 0.0299,-0.0981 0.39792,-1.79861 0.0763,-0.78989 0.0768,-1.51699 0.0194,-1.49051 -0.033,-0.2023 -0.0165,-0.0257 -0.0429,-0.0661 -0.0359,-0.0463 -1.92831,-0.16751 -3.04279,-0.10968 -2.009,0.1799 -1.8841,0.026 -1.50781,-0.0813 -0.43289,-0.18311 -0.20819,-0.039 -0.3057,0.0279 -0.18972,0.0421 -0.19638,0.0474 -0.15921,0.0742 0.1622,2.01281 0.0248,0.27659 0.0397,0.28649 0.20648,1.42081 0.2761,1.04502 0.10311,0.21478 0.17539,0.4975 0.1203,0.6874 0.26471,3.39029 0.0153,0.23172 -0.002,0.16107 -0.0588,0.57172 -0.1417,1.0315 -0.0524,0.3497 -0.35421,2.0549 -0.027,0.15451 -0.0229,0.12958 -0.005,0.0267 -0.23612,0.11972 -0.83749,0.46219 -1.64279,1.02789 -0.29871,0.18652 -2.1687,1.4198 0.0619,1.53559 0.79202,-0.0655 0.1016,0.0507 0.70398,0.51321 0.54391,0.46478 0.1752,0.12311 0.20941,0.13141 0.18641,0.0835 0.20867,0.0753 0.1601,0.0319 0.2099,0.0271 0.30301,-0.009 1.30041,0.23178 0.10859,0.0324 0.10369,0.0337 0.0892,0.0636 z" id="path551" style="stroke-width:0.125;stroke-miterlimit:4;stroke-dasharray:none"/>
  </g>
  <g id="PULSANO" style="fill:#f8c300;fill-opacity:1;stroke:#000000;stroke-width:0.125;stroke-linejoin:round;stroke-miterlimit:4;stroke-opacity:1;stroke-dasharray:none" transform="matrix(40,0,0,40,-11819.168,-11775.59)">
    <path d="m 393.84561,381.37241 0.7027,0.44549 0.0208,0.0141 0.0606,0.0507 0.0667,0.0651 0.0566,0.0641 0.11862,0.21329 0.0119,0.0235 0.0126,0.0383 0.005,0.0315 -0.004,0.0341 -0.0226,0.0272 -0.0868,0.0683 -0.21191,0.33151 -0.002,0.0101 4.9e-4,0.0104 0.15549,0.25299 0.0115,0.0158 0.70779,0.47198 0.0539,0.0241 0.0188,0.007 0.34659,-1.15488 0.5777,-2.17282 -0.062,-0.0368 -0.0425,-0.0249 -0.6218,-0.4422 -0.72952,-3.9032 -0.0331,-0.38809 -0.005,-0.0503 0.009,-0.22421 0.0301,-0.16528 0.57688,-1.33542 0.20062,0.0435 0.16858,0.0137 0.10431,0.004 0.0193,-0.1474 0.002,-0.13519 -0.0182,-0.088 -0.62418,-0.3027 -1.65451,-0.73578 -0.71899,-0.04 0.065,1.29911 -1.14362,-0.012 -0.5014,-0.21731 -0.64349,-0.55271 0.12921,-0.5859 -0.1283,-1.4116 -0.33462,-0.26998 -0.12119,-0.0738 -0.6094,-0.24612 -0.0434,1.01581 -0.0248,0.5813 -0.0168,0.39251 0.008,4e-4 0.43671,0.0217 -0.0535,1.04288 -9.2e-4,0.0178 -0.17028,0.14578 -0.0431,1.2e-4 -0.0731,0 -0.44339,4e-4 -0.0913,0.64239 -0.13279,1.4888 0.3971,0.3787 0.16189,0.15429 0.15909,0.1518 -0.2391,1.05081 -0.6341,0.53589 -0.32238,-0.012 0.0555,0.54351 0.0966,0.35858 0.0673,0.1453 0.1716,0.2373 0.18109,0.23822 0.19751,0.20438 0.0159,0.0153 0.0336,0.0326 0.203,0.18851 0.49329,0.4519 0.0295,0.0236 0.0754,0.0486 0.0165,0.0102 0.13562,0.0666 2.27429,1.11759 0.0714,0.004 0.54138,-0.009 0.55432,-0.13018 z" id="path609" style="stroke-width:0.125;stroke-miterlimit:4;stroke-dasharray:none"/>
  </g>
  <g id="ROCCAFORZATA" style="fill:#f8c300;fill-opacity:1;stroke:#000000;stroke-width:0.125;stroke-linejoin:round;stroke-miterlimit:4;stroke-opacity:1;stroke-dasharray:none" transform="matrix(40,0,0,40,-11819.168,-11775.59)">
    <path d="m 394.01031,364.16669 2.016,1.3959 0.43768,-0.27859 1.23141,-1.10169 0.30149,-0.0906 0.19272,-0.0576 0.24169,-0.0726 1.4748,1.7193 0.30841,0.46801 1.14529,-0.5397 0.82459,-0.99649 -0.0686,0.008 -0.0838,0.008 -0.0675,2.8e-4 -0.2909,-0.008 -0.0702,-0.0119 -0.23089,-0.49939 -0.12631,-1.32151 -0.45179,0.45899 -0.55441,0.45681 -0.72379,0.34891 -0.38259,-0.0393 -0.78312,-0.11261 -0.47769,-0.24619 -0.0146,-0.0446 -0.009,-0.0423 -0.0257,-0.17499 -0.003,-0.0355 -0.006,-0.0861 0.1861,-0.40631 0.0333,-1.2508 -0.0192,-0.51068 -0.1543,-0.14181 -0.19342,-0.15409 -0.1124,-0.0195 -0.0557,-0.004 0.041,1.50278 -0.0144,0.86282 -0.0197,0.1947 -0.0817,-0.007 -0.1908,-0.0245 -0.0506,-0.007 -0.16291,-0.10291 -0.0386,-0.0339 -0.0155,-0.0541 -0.1305,-0.2283 -1.3591,0.31189 -0.4935,0.17141 -0.11941,0.0488 -0.21549,0.13529 -0.0784,0.0502 -0.55829,0.56189 z" id="path623" style="stroke-width:0.125;stroke-miterlimit:4;stroke-dasharray:none"/>
  </g>
  <g id="SAN_GIORGIO_IONICO" style="fill:#f8c300;fill-opacity:1;stroke:#000000;stroke-width:0.125;stroke-linejoin:round;stroke-miterlimit:4;stroke-opacity:1;stroke-dasharray:none" transform="matrix(40,0,0,40,-11819.168,-11775.59)">
    <path d="m 390.4147,353.2894 -0.22369,0.2424 -0.0465,0.0784 -0.0105,0.0705 0.0214,0.0944 0.0613,0.0792 0.7554,0.55218 -1.38892,2.13211 -1.37549,0.35431 -0.14929,0.003 -0.15301,0.0923 -0.10001,0.1784 -0.0239,0.17618 -0.007,0.20291 0.0204,0.2211 0.002,0.0234 0.0163,0.1784 0.0433,0.1655 0.0715,0.1388 0.3324,0.5028 0.5694,0.71628 0.2655,1.81082 -0.095,0.75238 -0.0128,0.10492 0.01,0.0654 0.003,0.0212 0.01,0.005 0.10001,0.051 0.32779,0.13391 0.0604,-0.003 0.0154,-6.8e-4 0.2681,-0.0579 2.1694,0.51932 0.0741,0.014 1.30722,0.0579 0.6777,1.20038 0.55829,-0.56189 0.0784,-0.0502 0.21549,-0.13529 0.11941,-0.0488 0.4935,-0.17141 1.3591,-0.31189 0.1305,0.2283 0.0155,0.0541 0.0386,0.0339 0.16291,0.10291 0.0506,0.007 0.1908,0.0245 0.0817,0.007 0.0197,-0.1947 0.0144,-0.86282 -0.041,-1.50278 -0.0272,-0.40631 -0.17212,-0.009 -0.5166,-0.1258 -0.0529,-0.0137 -0.0999,-0.0321 -0.0776,-0.0386 -0.0533,-0.0431 -0.26261,-0.22461 -0.0419,-0.0377 -0.0118,-0.0161 -0.0408,-0.0614 -0.63611,-1.59668 0.0112,-0.22922 0.7059,-2.28278 0.13449,-0.17102 -0.0636,-0.17669 -0.41739,-1.14609 -0.0839,-0.1875 -0.10632,-0.2388 -0.0547,-0.0733 -2.19531,-0.95731 -2.0965,0.14709 -0.13668,0.0101 -0.0795,0.0234 -0.66879,0.3212 -0.0396,0.0712 z" id="path668" style="stroke-width:0.125;stroke-miterlimit:4;stroke-dasharray:none"/>
  </g>
  <g id="SAN_MARZANO_DI_SAN_GIUSEPPE" style="fill:#f8c300;fill-opacity:1;stroke:#000000;stroke-width:0.125;stroke-linejoin:round;stroke-miterlimit:4;stroke-opacity:1;stroke-dasharray:none" transform="matrix(40,0,0,40,-11819.168,-11775.59)">
    <path d="m 413.06509,365.97949 0.0639,-0.0649 2.55841,0.4357 0.0723,0.0399 0.0867,0.0766 2.00558,-1.8302 0.47372,-0.84931 -0.86282,-0.6835 -0.13858,-0.11108 -0.5206,-0.45221 -1.1698,-1.31549 -0.6445,-0.7309 -0.0718,-0.11911 0.0388,-1.43469 0.0208,-0.43952 -0.0171,-0.17328 -0.0626,-0.26492 -0.0727,-0.20718 -0.0835,-0.13761 -0.1148,-0.1708 -0.978,-1.1059 -0.40039,0.0107 -0.3566,-0.0324 -0.88391,-0.134 -0.20749,-0.0445 -1.24872,-0.3017 -0.1683,-0.0458 -0.22138,-0.0846 -0.20022,0.1278 -0.12571,0.086 -0.11898,0.0971 -0.0372,0.117 0.2113,0.94352 -1.21619,1.6008 -0.7239,0.5036 -0.18882,1.3883 1.56122,0.11029 0.2424,0.0563 0.0788,0.0227 0.13049,0.0376 0.18671,0.0861 0.8226,0.42719 0.0762,0.0518 0.003,0.002 0.0652,0.0455 0.25152,0.47888 0.025,0.0489 0.006,0.0121 0.068,0.13861 0.0774,0.17148 0.0481,0.17212 0.0221,0.15509 0.0269,0.3287 0.0161,0.21341 -0.008,0.16339 -0.009,0.17591 -0.0369,0.16198 -0.0344,0.13202 1.68289,2.11438 z" id="path692" style="stroke-width:0.125;stroke-miterlimit:4;stroke-dasharray:none"/>
  </g>
  <g id="SAVA" style="fill:#f8c300;fill-opacity:1;stroke:#000000;stroke-width:0.125;stroke-linejoin:round;stroke-miterlimit:4;stroke-opacity:1;stroke-dasharray:none" transform="matrix(40,0,0,40,-11819.168,-11775.59)">
    <path d="m 417.7886,379.81909 0.82721,-0.7503 0.53479,0.2557 0.98801,0.6182 0.7435,0.5025 -0.27682,-0.64279 -0.0578,-0.19541 0.26962,-2.0129 0.0665,-0.3591 0.0362,-0.1951 0.0286,-0.15378 0.19562,-0.63181 0.0724,-0.20501 0.0916,-0.0945 0.18488,-0.13351 0.15311,-0.11078 0.6091,-1.3913 0.71859,-1.7012 0.2471,-1.10702 0.0123,-0.3075 -0.2753,-0.7041 -0.32949,-0.0646 -0.13019,-0.0249 -0.1565,0.013 -0.0875,0.0112 -0.0869,-9.1e-4 -0.0906,-0.003 -0.414,-0.16391 0.002,-0.0242 0.12051,-1.10398 0.0497,-0.11932 0.0601,-0.12259 0.1742,-0.35269 0.0733,-0.11182 0.0976,-0.1318 0.1788,-1.52338 -1.36811,-0.91992 -1.75018,-1.19458 -0.13901,-0.10251 -0.13049,-0.0974 -0.26251,-0.26999 -0.44309,-0.40491 -0.47372,0.84931 -2.00558,1.8302 -0.0867,-0.0766 -0.0723,-0.0399 -2.55841,-0.4357 -0.0639,0.0649 0.116,0.55902 0.0203,0.11798 0.003,0.12482 -0.52173,2.5867 -0.0862,0.32959 -0.1034,0.27969 -0.323,0.73212 -0.0611,0.1156 -1.55738,0.84168 -0.69192,0.37402 0.96152,2.02768 0.49929,1.33841 1.24299,0.62469 0.20092,0.0852 0.1384,0.0506 0.4382,0.0765 0.13379,0.002 0.24991,0.0349 0.21738,0.0437 0.17901,0.0607 0.19461,0.1052 0.0627,0.0339 0.0592,0.036 0.0822,0.0503 2.31559,1.935 0.63849,0.7182 0.31481,0.55539 z" id="path745" style="stroke-width:0.125;stroke-miterlimit:4;stroke-dasharray:none"/>
  </g>
  <g id="STATTE" style="fill:#f8c300;fill-opacity:1;stroke:#000000;stroke-width:0.125;stroke-linejoin:round;stroke-miterlimit:4;stroke-opacity:1;stroke-dasharray:none" transform="matrix(40,0,0,40,-11819.168,-11775.59)">
    <path d="m 385.16431,344.952 0.091,-2.3443 -1.9324,-1.50721 -0.0676,-0.69128 0.17499,-0.007 0.13711,-0.0757 0.0638,-0.1535 -0.0822,-0.13031 -0.1983,-0.21219 -0.19861,-0.2002 -0.68631,-0.34851 -1.2392,-0.43329 -0.18988,-0.009 -0.59442,0.26501 -1.03909,0.0843 -0.1543,-0.0309 -0.13989,-0.0832 -0.71661,-0.52117 -3.4672,-1.1995 -0.1481,-0.0373 -1.33569,-0.3392 -0.6843,-0.17289 -0.0531,-0.0134 -0.0792,-0.0196 -0.1857,-0.0443 -1.81189,-0.0562 -1.0184,0.0467 -0.2049,0.0333 -0.062,0.0133 -0.12238,0.0262 -0.22262,0.0721 -0.12058,0.0714 -0.9263,0.6922 -0.75921,0.5683 -2.46259,0.44961 -2.11191,-0.13229 -0.3862,-0.18191 -0.53949,0.93692 -0.16061,0.39379 -0.008,0.1157 0.23411,0.38339 0.1445,0.1835 0.0348,0.11112 -0.0597,0.14019 -0.62988,1.26309 -0.0693,0.0935 -0.4607,0.4415 -0.0895,0.0111 -0.53311,-0.006 0.56522,0.77472 0.28888,0.38498 0.14242,0.15491 5.1594,5.54361 0.0469,0.0458 0.0206,-0.002 0.0337,-0.004 0.1034,-0.0299 2.4353,-1.1853 1.4761,-0.9335 -0.0321,-0.0746 -0.11609,-0.27502 -0.002,-0.009 -0.0215,-0.0736 -0.0191,-0.0751 -0.0492,-0.2591 -0.024,-0.12729 -0.0104,-0.0752 -0.057,-0.4159 0.94962,-0.2879 0.006,0.0144 0.17001,0.41282 0.17359,0.4606 0.2539,0.80038 0.26429,0.63401 0.28472,0.54959 0.33548,0.5632 0.0137,0.0201 0.008,-10e-4 0.041,-0.007 0.12078,-0.0208 1.7179,-0.49252 0.64352,-0.95749 0.0591,-0.17981 0.10879,-0.41489 0.0156,-0.0598 0.06,-0.4393 0.0139,-0.10309 -0.003,-0.0641 -0.0211,-0.0787 -0.0169,-0.0517 -0.0149,-0.0583 -0.009,-0.0733 -3.9e-4,-0.0751 0.006,-0.33332 0.017,-0.0691 0.0389,-0.12912 0.0376,-0.0706 0.9418,-0.12179 0.0527,0.005 0.0641,0.0112 0.6412,0.21369 0.37448,0.15991 0.10422,0.0703 0.0528,0.0447 0.14191,0.11182 0.0589,0.0455 0.0685,0.0348 0.39002,0.18381 0.0816,0.0224 0.16708,0.0263 0.9831,0.1532 0.0586,-0.006 0.14319,-0.20111 0.0241,-0.0391 0.0345,-0.0555 0.0418,-0.0675 0.0992,-0.1466 0.41641,-0.6063 0.12979,-0.1712 1.57782,-0.2099 0.42578,0.11658 0.2084,0.0915 0.16141,0.10168 0.0955,0.0385 0.0555,0.01 0.0928,0.008 1.41198,-0.0546 0.23221,-0.01 0.34531,-0.0161 0.10599,-0.0123 0.0501,-0.0141 0.0242,-0.0141 z" id="path779" style="stroke-width:0.125;stroke-miterlimit:4;stroke-dasharray:none"/>
  </g>
  <g id="TARANTO" style="fill:#f8c300;fill-opacity:1;stroke:#000000;stroke-width:1.25;stroke-linejoin:round;stroke-miterlimit:4;stroke-opacity:1;stroke-dasharray:none" transform="matrix(4,0,0,4,-10221.168,-11061.961)">
    <path d="m 3680.0081,3414.4387 -17.7561,5.567 15.8679,8.316 1.8882,-13.883 z" id="path804" style="fill:#f8c300;fill-opacity:1;stroke:#000000;stroke-width:1.25;stroke-linejoin:round;stroke-miterlimit:4;stroke-opacity:1;stroke-dasharray:none"/>
    <path d="m 3655.6431,3469.6737 0.241,-6.9962 0.03,-1.3779 -0.135,-0.825 -0.07,-0.463 -0.542,-0.786 -4.8092,-4.134 -0.821,-0.519 -5.1638,-12.6379 9.403,-9.718 -0.755,-9.888 -0.819,-2.1692 1.7829,-8.165 -0.4,-5.8468 -8.4561,-15.3891 -9.6659,-6.63 -2.987,-1.6101 -2.6831,-0.589 -1.8729,-0.199 -1.4572,-0.07 -1.5878,-0.02 -1.0321,0.08 -9.8121,8.6542 -0.207,7.5089 7.7289,20.9152 -0.735,14.9869 -7.8482,15.693 1.2631,13.2151 2.3089,4.9939 0.702,0.119 2.909,0.08 0.675,0 0.838,-0.08 0.686,-0.08 -8.2459,9.9649 -11.4529,5.397 -3.0841,-4.6801 -14.748,-17.193 -2.4169,0.726 -1.9272,0.576 -3.0149,0.906 -12.3141,11.0169 -4.3768,2.7859 1.0699,0.728 0.737,0.528 0.639,0.485 1.0511,0.955 0.811,0.958 0.771,1.1438 0.916,1.546 0.603,1.1371 0.502,1.0751 19.4391,45.979 6.1929,23.7729 -0.172,7.9611 -4.5648,7.389 -0.454,0.43 -2.0411,0.95 -1.203,0.28 -5.4199,0.855 -2.2009,-0.03 -3.3573,-0.06 -1.9799,-0.09 -1.2079,-0.168 -1.6229,-0.252 -1.3291,-0.06 -1.9821,0.02 -2.2278,0.233 -1.9259,0.435 -11.7441,2.666 0.331,3.8809 7.2952,39.032 6.218,4.422 0.425,0.249 0.62,0.368 -5.777,21.7282 -3.4659,11.5488 4.1788,-1.4059 0.354,-0.04 1.1951,0.894 3.1149,2.9278 0.187,0.184 0,0.289 0,0.312 -0.122,2.157 7.4951,2.735 13.5651,2.1808 14.9689,-1.2439 9.9249,0.193 3.305,0.105 1.5332,0.143 3.494,0.682 2.056,0.512 1.7508,0.902 -0.896,-10.791 4.3652,-21.835 1.3269,-0.793 0.144,-0.164 1.2711,-1.4518 0.516,-1.56 0.662,-2.8931 0.07,-0.321 2.2821,-11.0379 0.62,-2.9981 -4.4819,-11.9049 -0.222,-0.284 -0.398,-0.51 -3.9279,-0.49 -21.7349,-2.7078 -13.541,-1.261 -0.04,-26.3501 1.269,-0.888 4.4989,-2.1421 2.713,-1.1859 0.729,-0.747 1.3141,-4.3649 2.8949,-15.2029 0.212,-1.1692 0.01,-1.285 0.01,-0.879 -0.112,-2.2439 0.116,-2.3181 0.167,-1.6999 0.263,-1.6211 0.371,-2.319 2.1249,-10.393 5.4269,-5.85 5.4783,-3.7509 22.2399,-12.0431 4.141,-1.5369 6.1941,-1.571 7.825,-1.0401 -1.8811,-4.3918 -0.552,-1.658 0.08,-0.829 0.69,-6.695 0.7,-13.9889 z" id="path806" style="fill:#f8c300;fill-opacity:1;stroke:#000000;stroke-width:1.25;stroke-linejoin:round;stroke-miterlimit:4;stroke-opacity:1;stroke-dasharray:none"/>
    <path d="m 3518.5042,3311.6585 0.282,-0.02 2.732,-1.0831 4.216,-2.7151 1.9198,-2.006 0.681,-1.2619 1.142,-2.3831 0.833,-1.7389 0.846,-2.2039 0.491,-2.3252 -5.073,0.917 -1.261,0.396 -18.3709,8.027 1.1169,1.427 0.208,0.262 3.859,2.8119 2.6001,1.3021 2.6489,0.677 1.1292,-0.08 z" id="path808" style="fill:#f8c300;fill-opacity:1;stroke:#000000;stroke-width:1.25;stroke-linejoin:round;stroke-miterlimit:4;stroke-opacity:1;stroke-dasharray:none"/>
    <path d="m 3549.405,3256.0656 0.86,-4.643 0,-1.0791 -0.441,-0.828 -3.9819,-7.396 -11.3269,-8.9459 -17.9629,-0.949 -4.8652,0.604 -7.879,10.3939 -26.423,34.054 -3.967,4.4321 -4.4659,1.1761 -16.7829,-4.9481 -0.422,-0.894 0.401,-5.9301 -0.242,0.141 -0.501,0.141 -1.0599,0.123 -3.4531,0.161 -2.3221,0.1 -14.1198,0.546 -0.928,-0.08 -0.555,-0.1 -0.955,-0.385 -1.6141,-1.0168 -2.084,-0.915 -4.2578,-1.1658 -15.7782,2.099 -1.2979,1.712 -4.1641,6.063 -0.992,1.466 -0.418,0.675 -0.345,0.555 -0.241,0.391 -1.4319,2.0111 -0.586,0.06 -9.831,-1.532 -1.6708,-0.263 -0.816,-0.224 -3.9002,-1.8381 -0.685,-0.348 -0.589,-0.455 -1.4191,-1.1182 -0.528,-0.447 -1.0422,-0.703 -3.7448,-1.5991 -6.412,-2.1369 -0.641,-0.112 -0.527,-0.05 -9.418,1.2179 -0.376,0.706 -0.389,1.2912 -0.17,0.691 -0.06,3.3332 0,0.751 0.09,0.733 0.149,0.583 0.169,0.517 0.211,0.787 0.03,0.641 -0.139,1.0309 -0.6,4.393 -0.156,0.598 -1.0879,4.1489 -0.591,1.7981 -6.4352,9.5749 -17.179,4.9252 -1.2078,0.208 -0.41,0.07 -0.08,0.01 -0.137,-0.201 -3.3548,-5.632 -2.8472,-5.4959 -2.6429,-6.3401 -2.539,-8.0038 -1.7359,-4.606 -1.7001,-4.1282 -0.06,-0.144 -9.4962,2.879 0.57,4.159 0.104,0.752 0.24,1.2729 0.492,2.591 0.191,0.751 0.215,0.736 0.02,0.09 1.1609,2.7502 0.321,0.746 -14.761,9.335 -24.353,11.853 -1.034,0.299 -0.337,0.04 -0.206,0.02 -0.469,-0.458 -51.594,-55.4361 -1.4242,-1.5491 -2.8888,-3.8498 -5.6522,-7.7472 0.198,2.2492 -0.08,1.278 -0.277,0.69 -5.5532,9.484 -0.726,0.495 -12.4499,7.8528 7.6691,10.7251 1.7761,0.925 0.686,0.677 -0.01,0.1 -0.114,0.763 -1.063,3.808 -1.2881,3.562 -3.544,9.389 -1.9318,4.278 -4.465,9.79 2.316,0.591 3.143,1.0839 3.9199,1.756 4.8081,2.6361 0.898,0.497 12.3862,8.2931 1.2417,1.2888 1.6333,1.9561 1.207,1.6309 0.734,1.0031 -0.07,3.0911 -7.0709,19.0927 0.472,0.668 3.3108,-0.274 5.9321,-5.574 3.991,-3.7332 12.7091,-11.8949 4.075,4.307 -0.247,0.237 0.795,5.2118 0.219,0.323 9.9359,14.678 5.799,6.7859 0.462,-0.218 1.8811,-3.5342 3.172,-3.0939 1.4899,1.4429 0.521,2.5512 0.789,11.7588 -0.03,1.178 -1.037,5.6851 4.83,3.2971 18.1409,1.694 29.9661,0.349 2.6499,-1.3089 12.5012,8.1391 9.4549,6.235 7.4671,7.688 2.1359,2.2348 6.6821,8.3502 0.277,0.348 2.266,3.769 0.51,1.3769 3.5138,16.4642 0.325,5.3409 -0.454,2.305 -4.917,15.3961 -0.755,1.8598 -0.05,0.321 -0.06,0.279 -0.138,0.544 -0.411,1.401 -0.105,0.354 -1.1972,2.9831 -0.308,0.77 -0.424,0.684 -3.678,5.6931 -0.77,0.734 -11.8808,9.8029 -1.4801,1.199 -1.1261,0.659 -1.308,0.676 -1.648,0.646 -0.822,0.254 -2.8671,0.499 -0.659,0.07 -0.322,-0.01 -2.9202,-0.335 -0.382,-0.172 -0.977,-1.2042 -0.387,-0.505 -1.0309,-0.1 -0.778,-0.06 -1.076,0.02 -0.357,0.04 -14.122,3.475 -4.082,3.288 -9.798,14.812 -0.143,0.222 -0.112,0.233 -0.24,1.271 -0.09,0.803 -0.07,0.985 0.04,0.573 0.03,0.141 1.6071,4.7589 0.164,0.261 0.533,0.733 0.07,0.04 2.3569,0.382 9.3561,-2.8028 6.4261,1.6858 17.0459,7.7002 5.9149,5.8029 0.684,0.579 0.668,0.391 2.3069,0.537 0.266,0.05 6.0229,0.237 3.8761,4.487 8.272,5.398 19.7291,12.1191 0.583,0.03 0.394,-0.05 0.255,-0.05 0.09,-0.05 0.432,-0.3 1.344,-1.3629 0.04,-0.08 0.07,-0.175 0.02,-0.08 0.07,-0.373 0.01,-0.08 0.04,-0.608 0.06,-0.271 0.02,-0.08 0.105,-0.128 0.08,-0.09 0.07,-0.05 0.05,-0.01 0.413,-0.107 0.124,-0.03 0.181,-0.04 0.515,-0.04 0.459,-0.01 0.07,0.01 0.665,0.08 1.8088,0.396 0.255,0.08 0.234,0.07 0.956,0.316 0.586,0.228 0.322,0.143 13.06,10.0732 0.815,1.525 2.395,4.5929 0.08,0.313 -0.08,0.396 0.135,4.101 0.124,0.505 0.295,0.474 0.355,0.165 0.425,0.06 0.375,0.03 2.804,-0.08 0.257,-0.03 2.5092,-0.557 0.311,-0.147 0.279,-0.218 0.353,-0.457 0.369,-0.644 -2.0569,-3.042 -0.615,-1.8612 6.947,-28.5498 19.2542,2.6248 40.675,-0.38 0.453,0.02 0.04,0 1.041,-0.671 2.98,-4.2681 -0.05,-1.1429 -0.163,-1.0691 -0.34,-0.806 -0.05,-0.11 -0.841,-0.556 -0.864,-0.394 -1.073,-0.49 -1.047,-0.54 -0.503,-0.488 1.954,-14.5438 1.6641,-0.298 1.4759,0.01 1,0 2.3432,0.01 1.1938,19.6409 -0.03,7.25 -1.5912,3.9862 -2.1008,2.5229 0.07,0.638 -0.05,0.375 -0.27,2.1551 6.294,0.329 9.143,0.205 4.4339,0 0.731,0 0.431,0 1.7028,-1.4578 0.01,-0.178 0.535,-10.4288 -4.3671,-0.217 -0.08,0 0.168,-3.9251 0.248,-5.813 0.434,-10.1581 6.094,2.4612 1.2119,0.738 3.3462,2.6998 0.946,-8.3328 3.955,-2.3712 5.127,-0.688 6.0992,-0.213 -0.1,3.776 -6.9961,17.7819 -0.217,0.408 -2.5488,3.3789 -4.982,0.376 -1.2921,5.859 6.4349,5.5271 5.014,2.1731 11.4362,0.12 -0.65,-12.9911 0.117,-4.9911 -7.6249,-6.6168 2.013,-13.7 1.756,-1.5042 1.466,-0.134 2.1469,0.326 3.8391,-0.975 0.197,-15.7812 -0.1,-3.028 -0.193,-1.803 -1.7151,-3.4848 -17.1039,-10.6372 -9.2551,-0.03 -4.9331,1.0428 -0.06,-0.07 -0.247,-0.309 -1.3199,-1.817 -1.0361,-1.463 -0.821,-1.3379 -1.553,-2.6501 -0.498,-0.98 -0.06,-0.118 -0.582,-1.142 -0.843,-1.6678 -1.9101,-5.1782 -1.5778,-4.6018 -0.473,-1.503 -0.839,-3.237 -0.557,-3.309 0.224,-0.923 0.58,-1.2641 0.905,-1.8619 0.827,-1.3571 6.586,-3.002 -2.681,0.579 -0.154,0.01 -0.604,0.03 -3.2779,-1.3391 -1.0001,-0.51 -0.1,-0.05 -0.03,-0.212 -0.1,-0.654 0.128,-1.0492 0.95,-7.5238 -2.655,-18.1082 -5.694,-7.1628 -3.324,-5.028 -0.715,-1.388 -0.433,-1.655 -0.163,-1.784 -0.02,-0.234 -0.204,-2.211 0.07,-2.0291 0.239,-1.7618 1.0001,-1.784 1.5301,-0.923 1.4929,-0.03 13.7549,-3.5431 13.8892,-21.3211 -7.554,-5.5218 -0.613,-0.792 -0.214,-0.944 0.105,-0.705 0.465,-0.784 2.2369,-2.424 -1.7041,-2.1561 0.506,-6.8768 5.4791,-17.5412 0.79,-9.3079 -9.328,-8.9969 -0.584,-0.738 -0.559,-0.709 0.207,-1.2219 2.1032,-7.1982 6.2589,-10.1788 0.09,0 9.7531,-0.166 4.198,-0.07 0.106,0 5.5319,-12.93 1.3172,-6.4188 0.391,-3.1711 15.3351,-8.7399 1.088,-0.54 0.337,-0.167 1.4331,-0.214 1.6571,0.423 0.351,-1.4981 z" id="path810" style="fill:#f8c300;fill-opacity:1;stroke:#000000;stroke-width:1.25;stroke-linejoin:round;stroke-miterlimit:4;stroke-opacity:1;stroke-dasharray:none"/>
    <path d="m 3652.8309,3215.6817 -2.4728,-0.945 2.71,-20.426 0.225,-5.2768 -8.6081,-3.7341 -2.988,-0.394 -2.6559,0.05 -3.2169,0.428 -3.3081,0.747 -1.9849,0.566 -3.3282,1.3501 -2.609,2.0831 -2.052,1.6889 -0.635,0.671 3.1082,7.2541 14.1528,15.4098 4.278,3.2801 4.3991,1.3339 3.1521,0.764 1.8338,-4.8519 z" id="path812" style="fill:#f8c300;fill-opacity:1;stroke:#000000;stroke-width:1.25;stroke-linejoin:round;stroke-miterlimit:4;stroke-opacity:1;stroke-dasharray:none"/>
    <path d="m 3606.0389,3189.8195 9.5331,-0.191 0.05,-0.07 0.397,-0.495 0.451,-0.837 0.11,-0.27 0.603,-1.471 0.579,-2.1689 2.6327,-11.163 -0.599,-0.89 -2.572,-1.5738 -1.8921,-0.391 -18.9889,0.03 -1.947,2.5119 -3.36,7.0401 10.1339,9.0899 1.521,0.647 3.3429,0.196 z" id="path814" style="fill:#f8c300;fill-opacity:1;stroke:#000000;stroke-width:1.25;stroke-linejoin:round;stroke-miterlimit:4;stroke-opacity:1;stroke-dasharray:none"/>
    <path d="m 3242.0775,3451.894 6.9291,-0.1406 11.8941,3.1892 2.9224,7.606 -0.6263,6.4479 -18.4085,1.0597 -6.9915,-7.5945 -4.4836,-4.0966 8.7643,-6.4711 z" id="path2853" style="color:#000000;fill:#f8c300;fill-opacity:1;stroke:#000000;stroke-width:1.25;stroke-linecap:butt;stroke-linejoin:round;stroke-miterlimit:4;stroke-opacity:1;stroke-dasharray:none;stroke-dashoffset:0;marker:none;visibility:visible;display:inline;overflow:visible;enable-background:accumulate"/>
    <path d="m 3233.7959,3415.6988 0.1522,10.9982 5.1055,10.2588 -0.7436,7.6569 -11.9999,2.0888 -3.2906,4.562 -9.5428,1.9207 -4.4053,-4.9026 -12.9856,-4.5155 0.4581,-8.9049 11.5968,-2.1281 9.3239,-8.0438 2.0309,-8.3454 5.552,-2.7152 8.7484,2.0701 z" id="path3664" style="color:#000000;fill:#f8c300;fill-opacity:1;stroke:#000000;stroke-width:1.25;stroke-linecap:butt;stroke-linejoin:round;stroke-miterlimit:4;stroke-opacity:1;stroke-dasharray:none;stroke-dashoffset:0;marker:none;visibility:visible;display:inline;overflow:visible;enable-background:accumulate"/>
  </g>
  <g id="TORRICELLA" style="fill:#f8c300;fill-opacity:1;stroke:#000000;stroke-width:0.125;stroke-linejoin:round;stroke-miterlimit:4;stroke-opacity:1;stroke-dasharray:none" transform="matrix(40,0,0,40,-11819.168,-11775.59)">
    <path d="m 417.7886,379.81909 -0.31481,-0.55539 -0.63849,-0.7182 -2.31559,-1.935 -0.0822,-0.0503 -0.0592,-0.036 -0.0627,-0.0339 -0.19461,-0.1052 -0.17901,-0.0607 -0.21738,-0.0437 -0.24991,-0.0349 -0.13379,-0.002 -0.4382,-0.0765 -0.1384,-0.0506 -0.20092,-0.0852 -1.24299,-0.62469 -0.49929,-1.33841 -0.646,0.82721 -1.71011,2.12781 -0.006,0.1745 0.195,1.86688 -0.3876,2.64682 -0.0995,0.9349 0.0339,0.8133 -0.38522,2.3956 -0.0602,0.0243 -0.0712,0.32629 -0.025,0.1666 -0.0205,0.2655 -6.1e-4,0.008 -0.0708,1.29822 0.0448,0.0284 0.15961,0.098 0.0807,0.0484 0.16391,0.042 0.7189,0.0892 0.95401,0.11249 0.19199,0.0374 0.23251,0.0533 0.8237,0.2565 0.10608,0.0353 0.2453,0.0898 0.1691,0.138 0.0491,0.0445 0.28232,0.26569 0.13028,0.1333 0.56482,0.69061 0.0915,0.1517 0.0259,-0.0286 0.1,-0.11051 0.10662,-0.32247 0.0207,-0.13422 -0.0136,-0.1781 -0.0867,-0.25769 -0.11248,-0.19391 -0.1204,-0.2041 -0.1409,-0.38809 -0.0295,-0.1055 -0.0158,-0.35169 0.0216,-0.16861 0.13849,-1.04629 0.1619,-0.72412 0.1658,-0.2511 0.15402,0.0427 0.0605,-0.076 0.10778,-0.2637 0.23133,-0.6319 0.2265,-1.39209 -10e-4,-0.076 0.0222,-0.90859 2.5037,-2.04651 0.11709,-0.0859 0.1406,-0.088 0.32769,-0.0488 0.57862,-0.12509 0.1463,-0.0442 0.15939,-0.0749 0.0795,-0.0405 0.0646,-0.0342 0.073,-0.0807 z" id="path843" style="stroke-width:0.125;stroke-miterlimit:4;stroke-dasharray:none"/>
  </g>
</svg>
