<?xml version="1.0" encoding="UTF-8" standalone="no"?>
<svg height="6844.0176" id="svg2" version="1.1" width="3352.9519" xmlns="http://www.w3.org/2000/svg" xmlns:cc="http://creativecommons.org/ns#" xmlns:dc="http://purl.org/dc/elements/1.1/" xmlns:rdf="http://www.w3.org/1999/02/22-rdf-syntax-ns#" xmlns:svg="http://www.w3.org/2000/svg">
  <g id="CANTAGALLO" style="stroke-width:0.5;stroke-miterlimit:4;stroke-dasharray:none;stroke:#000000;stroke-opacity:1;stroke-linejoin:round;fill:#f8c300;fill-opacity:1;fill-rule:evenodd" transform="matrix(80,0,0,80,-23085.801,-10159.36)">
    <path d="m 324.996,158.90739 0.2089,-0.18129 0.9262,-1.3207 0.0391,-0.0729 0.32779,-1.15251 0.0259,-0.27549 0.005,-0.2018 -0.5275,-3.2029 -0.0997,-0.4451 -0.1445,-0.1517 -0.28299,-0.146 -0.4371,-0.0946 -0.86902,-0.5565 -0.26749,-0.2233 -0.4982,-0.8002 -1.9425,-0.9811 -0.85819,0.0594 -1.6774,-0.0193 -1.6719,-0.3582 -0.18262,-0.0569 -0.1,-0.033 -0.0646,-0.0451 -0.40241,-1.38459 -0.10791,-0.57241 1.30451,-1.6866 -1.3776,-1.23768 -0.1268,-0.0141 -0.17221,-0.0414 -0.1325,-0.049 -0.8588,-0.36771 -0.64099,-0.3098 -0.24179,-0.23449 -0.38651,-0.6556 -0.0379,-0.064 -0.28339,-0.76171 0.0651,-0.2115 0.3602,-2.7371 -0.60272,-4.2728 -0.88288,-1.8467 -0.0566,-0.0992 -0.302,-0.37731 -0.12271,-0.0901 -0.22769,-0.10581 -0.39231,-0.17399 -0.0827,0.312 -0.0628,0.1203 -0.048,0.0771 -0.3324,0.4678 -0.0655,0.0723 -0.0756,0.0394 -1.1492,-0.0267 -1.08761,-0.3795 -1.66208,-0.0523 -2.2757,0.0849 -0.31952,0.0551 -0.1481,0.0398 -0.11978,0.0536 -0.1579,0.0831 -0.10721,0.0713 -0.17801,0.8001 -0.002,1.12629 0.9874,2.38181 -0.83982,3.2753 -0.56479,1.5321 -0.0258,0.0646 -0.43659,0.79601 -0.12421,0.0578 -0.13168,0.0903 -1.01041,1.91699 -0.0398,0.10121 -0.0246,0.1059 0.002,0.1131 0.0261,0.0963 0.2041,0.3443 0.0759,0.1192 0.18591,0.28509 0.0704,0.0757 0.0884,0.0587 0.0776,0.0562 0.0595,0.0733 0.009,0.0632 -0.38251,1.09739 -0.37118,0.82161 -0.40082,0.7751 -0.83829,1.5429 -1.06979,1.3395 -1.07532,0.9458 -0.8999,0.4153 0.46411,2.353 1.52741,-0.476 1.2619,-0.2606 0.4816,-0.0708 0.20868,-0.021 0.1463,0.0188 0.24771,0.0865 0.17981,0.0806 2.578,1.52031 1.90219,1.8768 1.35871,0.33719 1.9566,2.92961 0.56219,-0.0811 2.74469,-0.78981 2.76181,-0.4235 1.78601,-0.4588 1.01099,-0.80259 2.315,0.9272 0.22031,0.0383 0.21799,0.0361 0.8508,0.13071 0.35611,-0.007 1.86618,-0.37551 0.14941,-0.0331 0.1879,-0.0875 0.6972,-0.38431 z" id="path108" style="stroke-width:0.05;stroke-miterlimit:4;stroke-dasharray:none"/>
  </g>
  <g id="CARMIGNANO" style="stroke-width:0.5;stroke-miterlimit:4;stroke-dasharray:none;stroke:#000000;stroke-opacity:1;stroke-linejoin:round;fill:#f8c300;fill-opacity:1;fill-rule:evenodd" transform="matrix(80,0,0,80,-23085.801,-10159.36)">
    <path d="m 291.004,206.0018 1.1177,0.0962 0.15589,0.0538 0.6272,0.42601 0.27862,0.2154 0.15628,0.1277 0.66281,0.5791 0.5921,0.51871 0.17749,0.0608 0.16922,0.0454 0.22379,0.0445 1.46939,0.2573 3.1731,0.2097 1.19912,1.8298 1.94458,0.61971 0.0281,0.0468 0.0578,0.0966 0.40891,0.67112 0.12469,0.16189 0.19791,0.1505 0.0206,0.0158 0.17199,0.1064 0.211,0.11178 0.21909,0.0532 0.0584,0.005 0.1289,0.0122 0.14261,-0.0313 0.14539,-0.0572 0.0663,-0.0939 0.0333,-0.0472 0.022,-0.0882 0.0362,-0.14521 0.0126,-0.2454 -0.0105,-0.2764 0.005,-0.2804 0.093,-0.3152 0.69522,-2.22909 0.0872,-0.1718 0.10889,-0.16471 0.0789,-0.0679 0.0237,-0.0187 0.18872,-0.0388 -1.008,-0.63172 -0.17172,-0.11729 -0.21848,-0.1685 -0.14221,-0.16449 -0.0383,-0.21401 0.045,-0.2272 0.0667,-0.0721 0.0769,-0.0831 2.98471,-2.6179 -1.06482,-0.90061 -0.1022,-0.1026 -0.3374,-0.56729 -0.05,-0.0969 -0.2663,-0.70028 -0.1217,-0.37272 -0.73709,0.18561 -1.85382,0.98551 -0.18158,0.0129 -0.1876,-0.009 -0.539,-0.1024 -0.16732,-0.0345 -0.5767,-0.1729 -1.17929,-0.8281 -0.3092,-3.0159 -0.93161,-1.9994 -0.0218,-0.0919 0.0477,-0.1619 0.0301,-0.0688 0.0968,-0.11949 0.11032,-0.12992 0.13648,-0.12928 0.11831,-0.1037 0.1781,-0.0435 1.98749,-0.32321 -1.7561,-1.97169 -0.25159,-0.1649 -0.25351,-0.0888 -0.44488,-0.12609 -0.3739,-0.0809 -0.2479,-0.0495 -0.0718,0.0787 -0.20709,0.22651 -0.2471,0.2908 -0.5517,0.6694 -2.2254,1.02699 -0.393,-0.0138 -0.15152,0.0333 -1.78428,0.7791 -0.16601,0.0874 -0.724,0.4871 -0.028,0.1646 0.002,0.1958 0.0452,0.1712 0.0108,0.0411 0.0581,0.22101 -0.008,0.16291 -0.0132,0.11669 -0.0146,0.1305 -0.0122,0.0691 -0.0157,0.089 -2.1113,1.32181 -0.68878,-0.1533 -0.0617,0.0246 -0.19,0.089 -0.37811,0.37601 -0.1269,0.19268 0.4719,1.27231 0.3605,0.6348 0.10111,0.1568 0.18899,0.13279 0.19132,0.13071 0.16818,0.0888 0.12381,0.11811 0.2146,0.2509 0.17709,0.2629 0.21072,0.3225 0.42148,0.8168 0.10611,0.3091 0.0177,0.44411 -0.0947,0.76098 -0.0514,0.22921 -0.20032,0.615 z" id="path140" style="stroke-width:0.05;stroke-miterlimit:4;stroke-dasharray:none"/>
  </g>
  <g id="MONTEMURLO" style="stroke-width:0.5;stroke-miterlimit:4;stroke-dasharray:none;stroke:#000000;stroke-opacity:1;stroke-linejoin:round;fill:#f8c300;fill-opacity:1;fill-rule:evenodd" transform="matrix(80,0,0,80,-23085.801,-10159.36)">
    <path d="m 299.2605,179.2086 0.71591,-1.1741 0.10339,-0.1149 0.10071,-0.0911 2.12729,-0.48061 0.0668,0.0408 0.18979,0.196 0.15061,0.10159 0.31509,0.0839 1.34851,-0.4756 1.64981,-0.7093 2.1781,-2.2159 0.0765,-0.0829 0.65301,-1.6798 0.26349,-1.50241 0.0158,-0.19099 0.0335,-0.88631 -0.0181,-0.0367 -0.0319,-0.0646 1.32172,-2.13481 0.6596,-0.97059 0.23069,-0.2899 0.19009,-0.24311 0.093,-0.12588 0.002,-1.00681 -0.14899,-0.0798 -0.26642,-0.1133 -0.14209,-0.0927 -0.44321,-0.48091 -1.32849,-2.52089 -0.0969,-0.64869 -1.9566,-2.92961 -0.91581,3.04541 -0.16269,0.28729 -0.5419,0.73669 -0.72741,0.36042 -0.14179,0.0682 -0.10391,0.0366 -0.19641,0.0604 -0.1911,0.0235 -0.13278,0.0576 -0.13572,0.098 -0.007,0.005 -0.84231,0.6707 -0.008,0.009 -0.1019,0.114 -0.6904,0.81581 -0.10202,0.1389 -0.068,0.0961 -1.91189,2.75609 -0.1344,0.21201 -0.0664,0.1179 -0.0791,0.1873 -0.21759,0.6579 -1.31671,4.75611 -0.42258,2.05539 0.009,0.0278 0.0418,0.1257 0.367,0.7308 0.29538,0.5334 0.17771,0.2436 0.20739,0.19641 0.14102,0.13598 0.0721,0.71071 -0.008,0.13899 -0.041,0.24691 -0.0618,0.1963 -0.0882,0.1196 0.0532,0.147 z" id="path485" style="stroke-width:0.05;stroke-miterlimit:4;stroke-dasharray:none"/>
  </g>
  <g id="POGGIO_A_CAIANO" style="stroke-width:1;stroke-miterlimit:4;stroke-dasharray:none;stroke:#000000;stroke-opacity:1;stroke-linejoin:round;fill:#da271d;fill-opacity:1;fill-rule:evenodd" transform="matrix(80,0,0,80,-23085.801,-10159.36)">
    <path d="m 305.9592,201.20959 -0.28119,-2.2032 0.1369,-0.49449 -3.83542,-3.45221 -1.98749,0.32321 -0.1781,0.0435 -0.11831,0.1037 -0.13648,0.12928 -0.11032,0.12992 -0.0968,0.11949 -0.0301,0.0688 -0.0477,0.1619 0.0218,0.0919 0.93161,1.9994 0.3092,3.0159 1.17929,0.8281 0.5767,0.1729 0.16732,0.0345 0.539,0.1024 0.1876,0.009 0.18158,-0.0129 1.85382,-0.98551 0.73709,-0.18561 z" id="path614" style="stroke-width:0.05;stroke-miterlimit:4;stroke-dasharray:none"/>
  </g>
  <g id="PRATO" style="fill:#f8c300;fill-opacity:1;stroke:#000000;stroke-width:0.05;stroke-linejoin:round;stroke-miterlimit:4;stroke-opacity:1;stroke-dasharray:none" transform="matrix(80,0,0,80,-23085.801,-10159.36)">
    <path d="m 300.22339,193.088 1.7561,1.97169 3.83542,3.45221 0.002,-0.087 0.0132,-0.0931 0.0576,-0.11821 1.13949,-1.70909 0.10199,-0.0806 0.005,-0.004 1.3559,0.37741 0.43801,0.39149 0.0155,0.0765 -0.0394,0.0903 -0.0957,0.1564 -0.0882,0.11729 0.0376,0.0684 0.1615,0.0954 0.70642,0.3982 0.0636,-0.009 1.13079,-0.2988 0.7641,-0.25591 1.19821,-1.06779 0.36069,-0.354 0.0265,-0.3516 -0.0994,-0.12871 -0.0458,-0.0881 0.56512,-0.9077 2.8794,-4.47571 2.09128,-0.5771 0.53649,-0.8799 0.57572,-0.61791 0.47681,0.15801 0.28088,-0.4603 0.0686,-0.1178 0.53662,-1.3757 -0.0171,-0.1004 -0.16919,-0.71759 -0.59951,-1.31481 -0.7537,-0.8751 -0.0953,-0.11769 -0.88068,-1.11641 0.0213,-0.1473 0.0407,-0.1338 0.0596,-0.192 0.0976,-0.3019 0.0926,-0.28241 0.14969,-0.28979 0.1546,-0.22431 0.18289,-0.22358 0.23621,-0.16791 0.15371,-0.18739 0.67588,-1.26111 0.3988,-0.7769 0.0375,-0.12729 0.0153,-0.0518 -0.0587,-0.0994 -0.1271,-0.15759 -0.3303,-0.3369 -0.2052,-0.18359 -0.23031,-0.22782 -0.1,-0.1091 0.0947,-0.1084 2.31228,-1.99288 0.41291,-0.30901 0.70208,0.01 0.31501,0.004 0.3536,0.0332 0.22971,0.002 0.12741,-0.0206 0.0699,-0.0786 0.0524,-0.078 0.11999,-0.1795 0.076,-0.11659 -0.0289,-0.0638 -0.0725,-0.1541 -1,-2.0744 -3.04031,1.85861 -0.491,0.45051 -0.31479,0.2778 -0.62439,0.41339 -0.21722,0.1075 -0.22928,0.0659 -0.55472,0.1271 -0.57968,0.0829 -0.1051,0.002 -1.7276,-3.4254 -1.00351,-3.0959 -0.1131,-0.20079 -0.36371,-0.5811 -0.1221,-0.19011 -0.37949,-0.2249 -1.4841,-0.77249 -0.34021,0.13049 -0.67908,0.2634 -0.6596,0.97059 -1.32172,2.13481 0.0319,0.0646 0.0181,0.0367 -0.0335,0.88631 -0.0158,0.19099 -0.26349,1.50241 -0.65301,1.6798 -0.0765,0.0829 -2.1781,2.2159 -1.64981,0.7093 -1.34851,0.4756 -0.31509,-0.0839 -0.15061,-0.10159 -0.18979,-0.196 -0.0668,-0.0408 -2.12729,0.48061 -0.10071,0.0911 -0.10339,0.1149 -0.71591,1.1741 -0.2049,0.32559 -0.10089,0.19101 -0.225,0.4316 -0.0623,0.1333 -0.78098,1.8772 -0.3685,1.2044 -0.34152,2.24669 0.35282,0.23471 0.34359,0.34101 1.4476,2.38579 0.11679,0.316 -0.15478,0.69429 -0.18051,0.85231 -0.0284,0.1754 -0.002,0.1783 0.1185,0.77919 0.021,0.12191 0.002,0.0113 1.01059,1.3794 z" id="path651" style="stroke-width:0.05;stroke-miterlimit:4;stroke-dasharray:none"/>
  </g>
  <g id="VAIANO" style="fill:#f8c300;fill-opacity:1;stroke:#000000;stroke-width:0.05;stroke-linejoin:round;stroke-miterlimit:4;stroke-opacity:1;stroke-dasharray:none" transform="matrix(80,0,0,80,-23085.801,-10159.36)">
    <path d="m 325.6636,165.83771 -0.177,-0.42652 -0.27969,-0.68139 -0.55151,-1.5822 0.0223,-0.0973 0.10611,-0.20379 0.18058,-0.45189 0.4953,-2.07671 0.007,-0.25751 -0.0464,-0.3524 -0.0755,-0.20228 -0.0285,-0.0765 -0.32019,-0.52181 -0.6972,0.38431 -0.1879,0.0875 -0.14941,0.0331 -1.86618,0.37551 -0.35611,0.007 -0.8508,-0.13071 -0.21799,-0.0361 -0.22031,-0.0383 -2.315,-0.9272 -1.01099,0.80259 -1.78601,0.4588 -2.76181,0.4235 -2.74469,0.78981 -0.56219,0.0811 0.0969,0.64869 1.32849,2.52089 0.44321,0.48091 0.14209,0.0927 0.26642,0.1133 0.14899,0.0798 -0.002,1.00681 -0.093,0.12588 -0.19009,0.24311 -0.23069,0.2899 0.67908,-0.2634 0.34021,-0.13049 1.4841,0.77249 0.37949,0.2249 0.1221,0.19011 0.36371,0.5811 0.1131,0.20079 1.00351,3.0959 1.7276,3.4254 0.1051,-0.002 0.57968,-0.0829 0.55472,-0.1271 0.22928,-0.0659 0.21722,-0.1075 0.62439,-0.41339 0.31479,-0.2778 0.491,-0.45051 3.04031,-1.85861 -0.4111,-1.75679 0.0664,-0.1113 0.5286,-0.7908 0.86059,-0.4277 0.29392,-0.10539 0.18338,-0.0626 0.19522,-0.7581 0.39709,-1.68129 z" id="path854" style="stroke-width:0.05;stroke-miterlimit:4;stroke-dasharray:none"/>
  </g>
  <g id="VERNIO" style="fill:#f8c300;fill-opacity:1;stroke:#000000;stroke-width:0.05;stroke-linejoin:round;stroke-miterlimit:4;stroke-opacity:1;stroke-dasharray:none" transform="matrix(80,0,0,80,-23085.801,-10159.36)">
    <path d="m 330.45929,129.83701 -1.30609,-0.72281 -1.5192,-0.56411 -1.94549,-0.22059 -0.3216,-0.0389 -0.0941,-0.0133 -0.3476,-0.0526 -0.1066,-0.0354 -0.88369,-0.3645 -0.0683,-0.0799 -0.002,-0.002 -0.0841,-0.1392 -0.0627,-0.1242 -0.0197,-0.0378 -0.1611,-0.2466 -0.0906,-0.0709 -0.0111,-0.006 -0.12649,-0.0631 -0.10172,-0.0233 -0.12719,-0.009 -0.0108,-8e-4 -0.2005,-0.005 -2.9209,0.494 -0.1466,0.0343 -0.10529,0.0484 -0.066,0.1222 -0.0434,0.1261 -0.0375,0.1208 -0.0245,0.0548 -0.0532,0.0737 -0.0782,0.0404 -0.10691,-0.004 -1.11111,-0.1536 -0.19568,-0.0398 -0.1481,-0.0429 -0.50571,-0.2143 -0.0333,0.07 -0.0715,0.133 -0.1196,0.1252 -0.1669,0.1719 -0.1409,0.0986 -0.10931,0.0667 -1.5567,0.9453 -2.65979,1.5177 -0.1514,0.081 -1.03641,0.46851 0.39231,0.17399 0.22769,0.10581 0.12271,0.0901 0.302,0.37731 0.0566,0.0992 0.88288,1.8467 0.60272,4.2728 -0.3602,2.7371 -0.0651,0.2115 0.28339,0.76171 0.0379,0.064 0.38651,0.6556 0.24179,0.23449 0.64099,0.3098 0.8588,0.36771 0.1325,0.049 0.17221,0.0414 0.1268,0.0141 1.3776,1.23768 -1.30451,1.6866 0.10791,0.57241 0.40241,1.38459 0.0646,0.0451 0.1,0.033 0.18262,0.0569 1.6719,0.3582 1.6774,0.0193 0.85819,-0.0594 1.9425,0.9811 0.4982,0.8002 0.26749,0.2233 0.86902,0.5565 0.4371,0.0946 0.31259,-0.2924 1.12821,-1.00549 0.5924,-0.2518 0.23828,-0.14492 0.2454,-0.41209 0.56411,-2.6814 -0.01,-0.0818 -0.12769,-0.4807 -1.32659,-1.67331 -0.67051,-0.7809 -0.0135,-0.39819 -10e-4,-0.4415 0.1879,-1.28669 0.0333,-0.0969 0.0509,-0.0987 0.1148,-0.11219 0.15518,-0.0634 0.14191,-0.0593 0.1149,-0.11219 0.0894,-0.14341 0.19302,-0.32969 0.0784,-0.14369 0.0442,-0.0923 0.0587,-0.30941 0.0704,-1.5637 -0.13809,-0.90599 -0.0342,-0.19661 -0.0407,-0.20121 -0.006,-0.21969 1e-4,-0.19679 0.208,-0.78492 0.392,-0.66919 1.76172,-1.5354 -0.0795,-3.39199 0.0328,-0.1035 0.21972,-0.4442 0.0396,-0.0697 0.045,-0.0586 0.0533,-0.0431 0.22351,-0.0463 0.0428,0.003 z" id="path863" style="stroke-width:0.05;stroke-miterlimit:4;stroke-dasharray:none"/>
  </g>
</svg>
