<?xml version="1.0" encoding="UTF-8" standalone="no"?>
<svg
   xmlns:dc="http://purl.org/dc/elements/1.1/"
   xmlns:cc="http://creativecommons.org/ns#"
   xmlns:rdf="http://www.w3.org/1999/02/22-rdf-syntax-ns#"
   xmlns:svg="http://www.w3.org/2000/svg"
   xmlns="http://www.w3.org/2000/svg"
   xmlns:sodipodi="http://sodipodi.sourceforge.net/DTD/sodipodi-0.dtd"
   xmlns:inkscape="http://www.inkscape.org/namespaces/inkscape"
   height="6783.6641"
   id="svg2"
   version="1.1"
   width="8333.6543"
   inkscape:version="0.48.4 r9939"
   sodipodi:docname="Map_of_comune_of_X_(province_of_Ancona,_region_Marche,_Italy).svg">
  <metadata
     id="metadata9205">
    <rdf:RDF>
      <cc:Work
         rdf:about="">
        <dc:format>image/svg+xml</dc:format>
        <dc:type
           rdf:resource="http://purl.org/dc/dcmitype/StillImage" />
      </cc:Work>
    </rdf:RDF>
  </metadata>
  <defs
     id="defs9203" />
  <sodipodi:namedview
     pagecolor="#ffffff"
     bordercolor="#666666"
     borderopacity="1"
     objecttolerance="10"
     gridtolerance="10"
     guidetolerance="10"
     inkscape:pageopacity="0"
     inkscape:pageshadow="2"
     inkscape:window-width="1312"
     inkscape:window-height="779"
     id="namedview9201"
     showgrid="false"
     inkscape:zoom="0.55663134"
     inkscape:cx="3516.9573"
     inkscape:cy="6572.1171"
     inkscape:window-x="0"
     inkscape:window-y="0"
     inkscape:window-maximized="0"
     inkscape:current-layer="svg2" />
  <g
     id="AGUGLIANO"
     style="stroke-width:0.5;stroke-miterlimit:4;stroke-dasharray:none;stroke:#000000;stroke-opacity:1;stroke-linejoin:round;fill:#f8c300;fill-opacity:1;fill-rule:evenodd"
     transform="matrix(32,0,0,32,-7225.9856,-4019.3968)">
    <path
       d="m 392.4752,208.7127 0.1012,-0.242 0.0677,-0.1571 1.3845,-1.9989 0.3168,0.1101 0.5858,0.4844 0.1121,0.0994 0.1691,0.1589 0.0945,0.1285 0.2478,0.5462 0.0426,0.1859 0.0271,0.1126 0.2033,0.0954 5.91,1.9286 6.5534,-0.5873 0.2396,-0.0403 0.4325,-0.1043 2.6991,-1.2027 0.3048,-0.1443 0.6375,-0.302 0.9276,-0.477 -0.784,-3.6398 -0.776,-4.0529 -0.4729,-2.3853 -0.9058,-1.2963 -1.6674,-0.2328 -3.4893,-1.7166 -3.39,0.9941 -2.4254,2.0268 -2.3086,1.3004 -1.3478,-0.2488 -3.0184,-1.2575 -0.2953,-0.2626 -0.1017,0.0548 -0.0766,0.0613 -0.3022,0.2756 -1.3949,1.3381 -0.1275,0.1434 -0.1209,0.1438 -0.0933,0.1152 -1.4653,1.8907 0.0799,0.0379 0.4313,0.2045 0.1246,0.059 1.1028,0.4829 0.9639,3.0994 0.8038,4.2706 z"
       id="path16"
       style="stroke-width:0.125;stroke-miterlimit:4;stroke-dasharray:none" />
  </g>
  <g
     id="ANCONA"
     style="stroke-width:0.5;stroke-miterlimit:4;stroke-dasharray:none;stroke:#000000;stroke-opacity:1;stroke-linejoin:round;fill:#f8c300;fill-opacity:1;fill-rule:evenodd"
     transform="matrix(32,0,0,32,-7225.9856,-4019.3968)">
    <path
       d="m 417.8896,209.8052 0.6571,0.0558 0.0214,-0.002 0.0723,-0.007 0.042,-0.004 0.0798,-0.0752 1.1445,-1.1662 0.6188,-0.7333 1.7043,-1.4752 3.0913,-0.958 0.5045,0.7565 0.7066,0.9224 1.5631,1.535 0.0563,0.0365 0.0238,0.015 0.1199,0.0755 1.4249,0.783 0.3177,0.1565 0.1493,0.0575 0.5325,0.1133 3.5813,0.4117 0.5567,0.2612 1.1605,0.4475 0.9069,0.3014 0.1806,0.0292 3.522,0.0934 1.9535,-0.1149 0.1479,-0.0202 2.5462,-0.3456 0.1915,0.0102 0.1364,-0.033 0.5009,-0.2746 1.685,-1.4603 0.2859,-0.613 0.0781,-0.1953 0.0469,-0.1387 0.0233,-0.0711 -0.0538,-0.4478 -0.0341,-0.1361 -0.0411,-0.117 -0.0659,-0.3302 0.0121,-0.6879 0.143,-0.5149 0.041,-0.1037 0.0613,-0.1149 0.411,-0.7686 0.1243,-0.1522 1.0882,-1.2578 0.1278,0.074 0.0258,0.0154 1.5842,1.0066 0.1185,0.0965 2.8891,-0.7707 0.9445,-0.7905 0.8003,0.2519 0.9559,0.5135 3.6464,2.084 0.2817,6.7303 0.3962,2.0487 0.1888,0.9108 0.9446,3.6253 0.6719,1.0838 1.5937,-3.3792 2.5583,-1.9156 1.8267,-5.0633 0.0809,-0.2269 0.1316,-0.374 0.9122,-2.7409 0.4168,-1.4582 0.263,-0.9759 0.8587,-3.6825 -0.2382,-0.0261 -0.3738,-0.0414 -0.5162,-0.0956 -0.1422,-0.047 -1.1312,-0.7376 -0.3099,-0.2059 -0.1274,-0.1585 -0.0739,-0.1365 -0.0407,-0.0565 -0.1015,-0.1407 -0.155,-0.174 -0.3263,-0.3364 -0.6628,-0.3815 -0.1089,-0.0599 -0.0968,-0.0231 -0.2003,-0.0267 -0.2373,0.0323 -0.2471,0.1313 -0.8359,0.4803 -0.4936,-0.0957 -0.6363,-0.2912 -0.9155,-0.4515 -0.488,-0.2397 -0.0705,-0.0359 -0.2432,-0.1583 -0.2042,-0.1519 -0.5137,-0.408 -0.2197,-0.2275 -0.6313,-0.6581 -0.0588,-0.0808 -0.515,-0.7858 -0.2765,-0.469 -0.1475,-0.3118 -0.1366,-0.3606 -0.154,-0.4428 -0.7761,-2.3454 0.0325,-0.7846 0.125,-0.7265 -3.4914,-5.4564 -6.2526,-7.1122 -1.2542,-0.8477 -1.0383,-0.1445 -0.4712,-0.2408 -0.8301,-0.3504 -1.0705,-0.3592 -0.2503,-0.0927 -0.6875,-0.4804 -0.1563,-0.1217 -0.1038,-0.3188 -0.0102,-0.0955 0.0935,-0.225 -0.3309,-0.3524 -0.1777,-0.1563 -0.1262,-0.0934 -0.7904,-0.5574 -0.0779,-0.0288 -0.8187,-0.2572 -0.1962,-0.0586 -0.1251,-0.0347 -0.1094,0.0893 -0.8845,0.7528 -0.0298,0.0274 -0.006,0.0303 0.0711,0.0256 0.0128,-0.0405 -0.002,-0.0134 0.0152,-0.0238 0.1756,-0.1509 0.1458,-0.1201 0.0101,-2e-4 0.6243,0.4823 0.9445,1.0791 0.7162,1.1193 0.0425,0.0711 0.14,0.3444 0.0501,0.4477 -0.3246,0.8879 -1.4503,1.9207 -0.2143,-1.3231 0.2228,-0.1992 -10e-5,-0.008 -1.0269,-1.1401 -0.4101,-0.0453 -0.4946,0.2607 -0.6472,0.3585 -0.5389,0.7946 0.5048,1.152 0.5225,0.9976 -3.0503,1.3629 -0.6205,0.4031 -0.2811,0.1828 -0.0279,0.004 -0.0352,0.005 -2.0162,-0.3164 -1.6367,-0.2963 -3.3878,-0.6691 -0.1341,-0.0358 -0.3331,-0.0889 -0.4145,-0.1106 -0.234,-0.076 -0.083,-0.0269 -4.2034,-1.5934 -0.2588,-0.0992 -1.8777,-0.8574 -0.4453,-0.219 -0.4063,-0.2101 -1.4255,-0.8207 -1.9261,2.9065 -0.2433,2.8261 0.8409,1.3989 0.0196,0.1176 -0.0752,0.1284 -0.2199,0.1596 -0.2031,0.1093 -0.4078,0.1531 -2.1743,0.2853 -1.7163,-0.3593 -0.0766,-0.1259 -0.0922,-0.192 -1.0465,-0.857 -4.3235,-1.2119 -0.3165,-0.0749 -0.5188,-0.1104 -0.2614,0.0375 -0.3448,0.0913 -0.2067,0.1021 0.0121,0.0854 0.1669,0.2012 0.8822,0.7704 0.4853,0.3999 0.5704,0.5756 -0.0759,0.0931 -0.7227,0.5093 -0.1609,0.101 1.4093,2.223 1.6823,1.3584 0.1866,0.1316 0.1384,0.004 0.1814,-0.1281 0.1802,-0.1865 0.1068,-0.1532 0.0353,-0.1818 -0.0609,-0.2204 -0.1026,-0.1784 -0.1942,-0.1621 -0.2254,-0.1479 -0.112,-0.103 0.5506,-1.1698 0.0559,-0.0288 1.5022,-0.4608 0.2954,0.0828 0.1534,0.0681 0.2075,0.1152 0.7749,0.7314 0.0673,0.1819 -0.0104,0.2201 -0.1503,1.9095 -0.0828,0.3011 -0.0581,0.1564 -0.0293,0.0791 -0.1055,0.2168 -0.3226,0.5073 -0.1303,0.039 -0.1984,-0.003 -0.216,-0.0132 -1.1875,3.9062 -0.5126,2.2046 0.9058,1.2963 0.4729,2.3853 0.776,4.0529 0.784,3.6398 4.3574,2.4984 z"
       id="path25"
       style="stroke-width:0.125;stroke-miterlimit:4;stroke-dasharray:none" />
  </g>
  <g
     id="ARCEVIA"
     style="stroke-width:0.5;stroke-miterlimit:4;stroke-dasharray:none;stroke:#000000;stroke-opacity:1;stroke-linejoin:round;fill:#f8c300;fill-opacity:1;fill-rule:evenodd"
     transform="matrix(32,0,0,32,-7225.9856,-4019.3968)">
    <path
       d="m 303.8784,228.2575 1.5427,-1.9753 0.0582,-0.0766 0.4768,-1.3453 0.2879,-1.275 -0.713,-2.9461 0.2271,-0.4042 -1.1243,-1.0644 -1.5205,-3.0046 0.0968,-3.6484 -1.4728,-1.1253 -0.2094,0.0994 -0.1786,0.0427 -0.6183,0.0824 -0.0601,-0.0481 -0.0517,-0.0873 -0.0749,-0.1819 -0.0539,-0.1757 -0.0244,-0.1336 0.1515,-2.8248 0.3552,-1.6991 1.2074,-2.8084 1.8078,-3.8896 0.3547,-1.5878 -0.1132,-0.1589 -0.1811,-0.1729 -0.2825,-0.2679 -0.1732,-0.1514 -0.715,-0.4672 -0.8462,-0.477 -0.944,-0.0328 -1.3691,-0.5555 -0.1263,-0.1067 -2.4598,-2.1189 -0.0658,-0.0879 -0.037,-0.0909 -0.003,-0.243 0.0421,-0.1569 0.7146,-2.2874 0.5962,-1.4633 0.2415,-1.5651 0.008,-0.0932 -0.2082,-1.1738 -0.3213,-0.1088 -0.1213,-0.0394 -0.1538,-5e-4 -0.0793,0.005 -0.2523,0.1099 -4.2503,3.6151 -0.0405,0.0828 -0.0556,0.0397 -0.0772,0.0281 -0.2024,0.064 -0.1148,-0.0156 -2.1041,-0.3222 -0.0911,-0.0301 -0.1429,-0.0633 -4.0968,-1.8605 -0.2515,-2.0162 -0.767,-0.543 -3.285,0.2288 -0.2749,0.0558 -0.119,0.0527 -0.1013,0.0517 -0.0837,0.0525 -0.094,0.0662 -0.0715,0.1078 -0.6981,1.2347 -0.0263,0.0923 0.007,0.1204 0.0178,0.1509 0.0199,0.2322 -0.0113,0.1213 -0.0703,0.1397 -0.3049,0.4129 -0.0718,0.0972 -0.0977,0.059 -2.4162,1.1481 -0.0602,-0.003 -0.3932,-0.0221 -0.1564,-0.0126 -0.1347,-0.0223 -0.071,-0.0122 -0.0608,-0.0329 -0.2021,-0.1508 -0.3822,-0.2864 -1.1742,1.4702 -0.0629,0.1277 -0.2482,0.5321 0.2279,0.3515 0.3154,3.5444 -2.1524,3.5942 -6.7776,7.8623 -1.2019,0.56 -1.2276,1.0727 -0.7823,0.7934 -0.0538,0.107 -0.0317,0.1433 -0.022,0.1066 0.3656,0.3367 0.6819,3.4466 1.625,3.3036 0.0956,0.004 0.0694,0.0933 1.2669,2.1569 0.0519,0.0943 0.0559,0.1085 0.0414,0.1008 0.1602,0.4737 0.3063,0.9272 0.0241,0.1123 0.0129,0.2337 -0.464,3.5891 -0.264,0.3037 -0.0521,0.047 -0.8599,0.3535 -0.6415,0.1925 -0.0812,0.003 -0.0889,-0.0342 -0.0789,-0.0408 -0.0981,0.0308 -0.2803,0.0963 -0.6406,0.2209 -0.1587,0.3015 -0.2604,2.6611 0.0158,0.7635 0.0211,0.144 1.2695,3.3859 2.5515,2.1498 1.3775,1.0728 3.1763,0.4193 5.2185,-4.9646 0.177,-0.2848 0.1138,-0.097 0.2056,-0.1192 0.1118,-0.0441 8.8977,-0.8032 0.0638,-0.004 0.4734,0.1356 0.1532,0.0638 0.1362,0.07 0.0718,0.0547 0.007,0.006 0.0248,0.0205 0.0222,0.0184 -0.2262,0.5737 -0.0638,0.1435 -0.064,0.1294 -0.1564,3.4108 0.38,4.7237 0.9301,3.3673 1.4847,-0.0456 1.0532,1.0656 1.7326,-1.7657 0.5877,-0.664 1.069,-1.778 -0.3497,-1.4647 -0.1921,-0.3482 -0.3252,-0.7589 0.0422,-0.5877 0.0421,-0.1551 0.4778,-0.8388 1.793,-2.0734 0.2336,-0.13 0.7512,-0.3435 0.123,-0.0241 0.1759,-0.0324 0.1662,-0.008 0.1267,0.0111 0.1996,0.003 0.1396,-0.007 0.1083,-0.0265 0.0877,-0.0382 0.0796,-0.0756 1.7546,-1.7906 0.196,-0.2239 3.6793,-2.6966 z"
       id="path40"
       style="stroke-width:0.125;stroke-miterlimit:4;stroke-dasharray:none" />
  </g>
  <g
     id="BARBARA"
     style="stroke-width:0.5;stroke-miterlimit:4;stroke-dasharray:none;stroke:#000000;stroke-opacity:1;stroke-linejoin:round;fill:#f8c300;fill-opacity:1;fill-rule:evenodd"
     transform="matrix(32,0,0,32,-7225.9856,-4019.3968)">
    <path
       d="m 304.3426,198.1805 0.8646,-0.6733 2.8347,-0.8336 1.1188,0.0508 0.8981,0.2943 0.0847,-0.0135 4.0209,-2.4314 0.0907,-0.0591 0.1219,-0.0841 0.338,-0.3684 -2.0757,-0.2655 -1.2652,-0.4112 -0.6949,-0.5141 -0.1374,-0.1197 -0.1989,-0.1792 -0.7951,-0.872 -0.5109,-0.6446 -0.0766,-0.1114 -0.0858,-0.1807 -0.1154,-0.2458 -0.0484,-0.1083 -0.0163,-0.0873 -0.006,-0.1027 -0.003,-0.1379 0.0113,-0.1195 0.0294,-0.2616 0.1786,-0.5246 0.0835,-0.2025 0.0539,-0.1174 0.1075,-0.0955 0.0694,-0.0637 0.0228,-0.0854 0.039,-0.27 -0.0124,-0.0316 -0.0287,-0.0728 -0.2179,-0.3832 -1.026,-1.7889 -0.2484,-0.1798 -0.1041,-0.0616 -0.3364,-0.1611 -0.6015,-0.2834 -0.2004,-0.0945 -0.1207,-0.0359 -2.3754,-0.3357 -0.3984,-0.6637 -0.0982,-0.1178 -0.0726,-0.0759 -0.1745,-0.0419 -0.1739,-0.0173 -0.1766,0.004 -0.1126,0.0317 -3.4686,0.9962 -0.1508,0.0722 -0.1637,0.1016 -0.0184,0.0159 -0.1206,0.1045 -0.0782,0.1181 -0.0399,0.1075 -0.3411,0.9618 0.2082,1.1738 -0.008,0.0932 -0.2415,1.5651 -0.5962,1.4633 -0.7146,2.2874 -0.0421,0.1569 0.003,0.243 0.037,0.0909 0.0658,0.0879 2.4598,2.1189 0.1263,0.1067 1.3691,0.5555 0.944,0.0328 0.8462,0.477 0.715,0.4672 0.1732,0.1514 0.2825,0.2679 0.1811,0.1729 0.1132,0.1589 z"
       id="path56"
       style="stroke-width:0.125;stroke-miterlimit:4;stroke-dasharray:none" />
  </g>
  <g
     id="BELVEDERE_OSTRENSE"
     style="stroke-width:0.5;stroke-miterlimit:4;stroke-dasharray:none;stroke:#000000;stroke-opacity:1;stroke-linejoin:round;fill:#f8c300;fill-opacity:1;fill-rule:evenodd"
     transform="matrix(32,0,0,32,-7225.9856,-4019.3968)">
    <path
       d="m 343.2381,210.5329 0.0723,-2.0057 1.4891,-1.2462 0.1371,-0.0425 0.1901,-0.0329 0.1485,4e-4 0.1453,0.0143 0.1309,0.0154 0.149,0.0251 0.1492,0.0287 0.1384,0.007 0.116,-0.0172 0.1408,-0.0282 0.3085,-0.1117 0.1088,-0.0493 0.1039,-0.0972 0.8845,-1.0997 0.0576,-0.103 0.0604,-0.1471 0.1404,-0.3672 0.0429,-0.1409 0.0289,-1.1003 0.77,-6.1587 0.0195,-0.0803 0.0564,-0.1719 0.4186,-1.2308 0.0477,-0.0824 0.3743,-0.5055 3.8942,-4.2497 0.5693,0.009 1.4834,-0.2781 0.1086,-0.0705 0.101,-0.0761 0.064,-0.0691 0.286,-0.6601 -0.184,-0.5743 -0.6078,-1.7522 -2.349,-3.8794 -1.0627,-1.3407 -1.0269,-0.193 -0.3844,0.8705 -1.6743,2.0699 -1.3214,1.5833 -4.6213,0.7548 -4.3285,1.5265 -4.1174,-0.2631 -3.1529,6.8091 -0.0355,0.083 -0.0118,0.0277 0.006,0.043 0.0112,0.0832 0.0597,0.1407 1.7061,0.8296 1.0565,0.4215 0.1031,0.0263 -2.5681,4.8076 2.3966,2.6331 0.062,2.2843 1.8387,1.2726 1.0438,-0.2748 2.1178,0.4781 1.7116,2.4107 2.3975,-0.7559 z"
       id="path71"
       style="stroke-width:0.125;stroke-miterlimit:4;stroke-dasharray:none" />
  </g>
  <g
     id="CAMERANO"
     style="stroke-width:0.5;stroke-miterlimit:4;stroke-dasharray:none;stroke:#000000;stroke-opacity:1;stroke-linejoin:round;fill:#f8c300;fill-opacity:1;fill-rule:evenodd"
     transform="matrix(32,0,0,32,-7225.9856,-4019.3968)">
    <path
       d="m 463.485,220.4271 -0.6719,-1.0838 -0.9446,-3.6253 -0.1888,-0.9108 -0.3962,-2.0487 -0.2817,-6.7303 -3.6464,-2.084 -0.9559,-0.5135 -0.8003,-0.2519 -0.9445,0.7905 -2.8891,0.7707 -0.1185,-0.0965 -1.5842,-1.0066 -0.0258,-0.0154 -0.1278,-0.074 -1.0882,1.2578 -0.1243,0.1522 -0.411,0.7686 -0.0613,0.1149 -0.041,0.1037 -0.143,0.5149 -0.0121,0.6879 0.0659,0.3302 0.0411,0.117 0.0341,0.1361 0.0538,0.4478 -0.0233,0.0711 -0.0469,0.1387 -0.0781,0.1953 -0.2859,0.613 -1.685,1.4603 -0.5009,0.2746 -0.1364,0.033 -0.1915,-0.0102 0.0767,0.085 0.0458,0.0506 0.229,0.3461 1.4992,2.3159 0.1066,0.1727 0.0939,0.1858 0.1829,0.4591 0.082,0.241 0.2009,0.5655 0.1899,0.4913 0.6226,1.5409 0.3091,0.7233 0.7855,1.1466 1.271,1.2866 1.0014,0.7425 1.9117,1.1681 0.393,0.0687 0.3215,-0.1929 0.1241,-0.082 0.1436,-0.0596 0.1598,-0.003 0.1684,0.0542 0.2031,0.0763 0.1262,0.0547 0.0103,0.0102 1.2676,1.3969 4.8107,2.3039 -0.07,-0.3923 -0.005,-0.0727 0.002,-0.0793 0.0636,-0.6109 0.4424,-2.8412 0.4942,-0.8697 0.5448,-0.5739 0.4009,-0.2359 z"
       id="path86"
       style="stroke-width:0.125;stroke-miterlimit:4;stroke-dasharray:none" />
  </g>
  <g
     id="CAMERATA_PICENA"
     style="stroke-width:0.5;stroke-miterlimit:4;stroke-dasharray:none;stroke:#000000;stroke-opacity:1;stroke-linejoin:round;fill:#f8c300;fill-opacity:1;fill-rule:evenodd"
     transform="matrix(32,0,0,32,-7225.9856,-4019.3968)">
    <path
       d="m 392.6513,196.5355 0.2953,0.2626 3.0184,1.2575 1.3478,0.2488 2.3086,-1.3004 2.4254,-2.0268 3.39,-0.9941 3.4893,1.7166 1.6674,0.2328 0.5126,-2.2046 1.1875,-3.9062 0.216,0.0132 0.1984,0.003 0.1303,-0.039 0.3226,-0.5073 0.1055,-0.2168 0.0293,-0.0791 0.0581,-0.1564 0.0828,-0.3011 0.1503,-1.9095 0.0104,-0.2201 -0.0673,-0.1819 -0.7749,-0.7314 -0.2075,-0.1152 -0.1534,-0.0681 -0.2954,-0.0828 -1.5022,0.4608 -0.0559,0.0288 -0.5506,1.1698 0.112,0.103 0.2254,0.1479 0.1942,0.1621 0.1026,0.1784 0.0609,0.2204 -0.0353,0.1818 -0.1068,0.1532 -0.1802,0.1865 -0.1814,0.1281 -0.1384,-0.004 -0.1866,-0.1316 -1.6823,-1.3584 -1.4093,-2.223 -3.2581,3.6527 -0.9841,0.8629 -2.0439,0.6201 -4.3524,-0.5757 -0.1332,-0.1129 -1.2871,-0.6817 -0.2786,-0.124 -0.7988,-0.3135 -0.1169,-0.0378 -0.0329,-0.0107 -0.0466,0.1636 -0.0305,2.1507 0.002,0.1166 0.0201,0.1017 0.0136,0.0401 0.009,0.0264 -0.795,6.0234 z"
       id="path89"
       style="stroke-width:0.125;stroke-miterlimit:4;stroke-dasharray:none" />
  </g>
  <g
     id="CASTEL_COLONNA"
     style="stroke-width:0.5;stroke-miterlimit:4;stroke-dasharray:none;stroke:#000000;stroke-opacity:1;stroke-linejoin:round;fill:#f8c300;fill-opacity:1;fill-rule:evenodd"
     transform="matrix(32,0,0,32,-7225.9856,-4019.3968)">
    <path
       style="stroke-width:4;stroke-miterlimit:4;stroke-dasharray:none"
       d="M 3206.8125 265.46875 L 3106 283.5 L 3042.3125 291.84375 L 2992.1562 305.53125 L 2962.625 329.625 L 2887.6875 338.25 L 2890.8438 346 L 2891.9375 348.3125 L 2895.2188 354.125 L 2897.125 357.0625 L 2900.875 362.59375 L 2911.6562 377.59375 L 2914 380.8125 L 2931.4062 396.46875 L 2944.375 407.21875 L 2966.75 423.21875 L 3000.125 453.28125 L 3019.7812 473.0625 L 3020.1562 485.5 L 3019.7812 565.0625 L 3008.625 618.5625 L 2966.2188 696.625 L 2952.7812 718.625 L 3059.125 790.03125 L 3055.375 966.09375 L 3052.25 972.03125 L 3050.7812 977.9375 L 3041.5 1040.5312 L 3041.5312 1043.5 L 3042.3438 1058.8438 L 3042.75 1061.6875 L 3043.9688 1065.25 L 3086.6562 1161.25 L 3109.75 1199.2188 L 3116.2812 1206.3125 L 3117.9062 1207.75 L 3119.8438 1208.6875 L 3122.3125 1207.75 L 3124.6562 1206.4375 L 3127.8125 1205.8125 L 3130.1875 1205.5312 L 3139.3438 1209.3125 L 3155.5938 1219.5 L 3205.0938 1254.125 L 3239.0625 1340.7812 L 3240.4688 1348.0312 L 3261.9375 1326.0312 L 3268.375 1320.4688 L 3298.9688 1304.9688 L 3312.75 1298.2188 L 3333.3125 1289.5 L 3454.1562 1241.1875 L 3488.5938 1230.0312 L 3535.5312 1221.8438 L 3560.625 1217.5625 L 3596.1562 1214.9688 L 3600 1215.3438 L 3643.8438 1229.9688 L 3670.9688 1241.4688 L 3673.9688 1243.9062 L 3675.375 1246.125 L 3690.4062 1278.9062 L 3695.75 1274.7188 L 3698.0938 1272.8438 L 3699.4062 1271.2188 L 3700.6875 1268.625 L 3701.7812 1266.1875 L 3702.75 1263.25 L 3703.3438 1260.5 L 3731.2188 1124.8438 L 3736.0312 1053.7812 L 3692.0625 1013.5938 L 3688.0312 1010.875 L 3637.9375 986.3125 L 3530.4062 934.0625 L 3519.5312 893.9375 L 3513.4062 763.90625 L 3508 650.25 L 3485.1875 554.8125 L 3455.2812 486.3125 L 3428.0625 422.71875 L 3419.75 396.34375 L 3394.0938 275.8125 L 3370.375 290.6875 L 3206.8125 265.46875 z M 3156.5 329.03125 L 3160 330.0625 L 3172.7188 342.03125 L 3178.3438 347.3125 L 3218.9375 339.875 L 3243.0312 348.625 L 3240.5625 374.71875 L 3236.125 380.3125 L 3224.4375 391.40625 L 3210.3125 400.8125 L 3150.5 411.5625 L 3114.5625 375 L 3123.2188 365.5 L 3124.2188 364.40625 L 3141.7812 345.15625 L 3156.5 329.03125 z M 3097.875 394.28125 L 3099.25 395.53125 L 3121.375 415.5 L 3125.1875 418.90625 L 3137.4688 430.0625 L 3142.25 435.6875 L 3147.0938 447.59375 L 3145.375 448.375 L 3075.9062 504.78125 L 3030.3438 469.40625 L 3083.0625 410.75 L 3097.875 394.28125 z "
       transform="matrix(0.03125,0,0,0.03125,225.81205,125.60615)"
       id="path117" />
  </g>
  <g
     id="CASTELBELLINO"
     style="stroke-width:0.5;stroke-miterlimit:4;stroke-dasharray:none;stroke:#000000;stroke-opacity:1;stroke-linejoin:round;fill:#f8c300;fill-opacity:1;fill-rule:evenodd"
     transform="matrix(32,0,0,32,-7225.9856,-4019.3968)">
    <path
       d="m 336.3495,230.2364 2.6663,-0.5524 0.7899,0.1755 0.1456,0.0355 0.122,0.0855 0.0733,0.1326 0.0422,0.1363 0.0284,0.1656 0.0322,0.1764 0.038,0.1184 0.0224,0.0559 2.317,-0.9508 0.3295,-0.273 0.7959,-0.9066 0.0511,-0.0822 0.0201,-0.041 0.0271,-0.0555 1.0475,-2.1599 0.3758,-1.3831 0.076,-0.0757 0.1224,-0.0556 0.1377,0.002 0.9696,0.0662 1.0302,0.1012 0.3967,0.0481 0.8324,0.2537 0.9004,0.146 2.7646,-0.0639 0.9951,-0.054 -5.2486,-3.9826 -1.7188,0.0849 -2.1296,0.2129 -5.2861,0.9295 -0.0701,0.03 -0.7168,1.2762 -0.1901,0.6685 -0.005,0.0739 -0.005,0.0845 0.0124,1.0318 0.0138,0.6133 0.0135,0.1314 -0.1358,0.8778 -0.7901,1.4738 -0.8926,1.4493 z"
       id="path123"
       style="stroke-width:0.125;stroke-miterlimit:4;stroke-dasharray:none" />
  </g>
  <g
     id="CASTELFIDARDO"
     style="stroke-width:0.5;stroke-miterlimit:4;stroke-dasharray:none;stroke:#000000;stroke-opacity:1;stroke-linejoin:round;fill:#f8c300;fill-opacity:1;fill-rule:evenodd"
     transform="matrix(32,0,0,32,-7225.9856,-4019.3968)">
    <path
       d="m 470.545,240.9806 -0.5162,-0.664 -0.0365,-0.0708 -0.0246,-0.4234 0.0397,-0.1567 0.0586,-0.0815 0.6106,-0.6389 0.4135,-0.4025 0.2125,-0.1878 0.2474,-0.1734 0.1611,-0.0829 0.2034,-0.0999 0.2489,-0.0992 1.4574,-0.4771 0.5552,-0.1598 0.5667,-0.1009 0.2255,-0.0475 0.5944,-0.1259 0.1682,-0.0772 0.2205,-0.1201 0.0698,-0.0614 0.0796,-0.0892 0.2305,-0.3562 0.0654,-0.104 0.066,-0.1626 -1.6005,-1.0195 -0.1175,-0.0701 -1.4501,-0.7656 -0.1921,-0.0901 -0.3946,-0.1508 -1.2366,-0.2487 -0.1305,-0.006 -0.3391,0.01 -0.3562,0.0315 -0.1081,0.0116 -0.0995,0.0122 -0.0533,0.0129 -0.1156,0.043 -0.3026,0.0804 -0.8222,0.0198 -0.2164,-0.0491 -0.1099,-0.0255 -0.1276,-0.0335 -0.2432,-0.1724 -0.1862,-0.1533 -0.2744,-0.2253 -0.2843,-0.2346 -0.1253,-0.104 -0.1439,-0.1563 -0.178,-0.2941 -0.0837,-0.1423 -0.0731,-0.1506 -0.0774,-0.1897 -0.6731,-1.3702 -0.3179,-0.6338 -0.1352,-0.2617 -0.1346,-0.2246 -0.8081,-1.201 -0.0719,-0.0764 -0.1403,-0.1384 -0.8481,-0.6506 -0.8885,-0.621 -1.3912,-0.6769 -4.8107,-2.3039 0.1211,0.3569 -0.002,0.0882 -0.0123,0.1211 -0.0196,0.0943 -0.02,0.0677 -2.8362,5.9025 -0.8085,1.4336 -0.1202,0.1964 -0.0553,0.0676 -0.094,0.0832 -0.167,0.1409 -0.1785,0.0874 -2.4153,2.0275 -5.3401,5.3045 -0.1213,0.1258 -0.204,0.2432 -0.0896,0.1223 -0.0758,0.1071 -0.0372,0.0809 -0.0243,0.0564 -0.0401,0.0935 0.6246,2.1688 0.1419,2.024 -0.009,0.0878 -0.0952,0.2138 -0.0477,0.0822 -0.7766,0.7791 2.2253,0.1138 1.1416,0.4806 2.3703,0.8971 0.0956,0.0353 0.4323,0.0976 2.3538,-0.4258 2.6597,-0.2941 0.9028,-0.0406 2.3251,-0.0579 1.4396,-0.0321 0.6067,-0.007 1.4297,-0.2038 2.4681,-0.3637 3.7601,-1.4097 2.2349,-3.7646 z"
       id="path129"
       style="stroke-width:0.125;stroke-miterlimit:4;stroke-dasharray:none" />
  </g>
  <g
     id="CASTELLEONE_DI_SUASA"
     style="stroke-width:0.5;stroke-miterlimit:4;stroke-dasharray:none;stroke:#000000;stroke-opacity:1;stroke-linejoin:round;fill:#f8c300;fill-opacity:1;fill-rule:evenodd"
     transform="matrix(32,0,0,32,-7225.9856,-4019.3968)">
    <path
       d="m 293.6231,169.97 -0.5234,1.76 -1.3442,4.265 -1.489,3.3877 -1.0659,2.4157 -0.0574,0.1261 -0.0713,0.122 -1.9949,3.3708 -0.1331,0.1844 -0.0651,0.0887 -0.0761,0.074 -0.0594,0.0219 -0.678,0.2114 0.2515,2.0162 4.0968,1.8605 0.1429,0.0633 0.0911,0.0301 2.1041,0.3222 0.1148,0.0156 0.2024,-0.064 0.0772,-0.0281 0.0556,-0.0397 0.0405,-0.0828 4.2503,-3.6151 0.2523,-0.1099 0.0793,-0.005 0.1538,5e-4 0.1213,0.0394 0.3213,0.1088 0.3411,-0.9618 0.0399,-0.1075 0.0782,-0.1181 0.1206,-0.1045 0.0184,-0.0159 0.1637,-0.1016 0.1508,-0.0722 3.4686,-0.9962 0.1126,-0.0317 0.1766,-0.004 0.1739,0.0173 0.1745,0.0419 0.0726,0.0759 0.0982,0.1178 0.3984,0.6637 0.1288,-1.2774 -0.006,-0.0124 -0.0945,-0.1902 -1.0314,-2.7337 -0.1185,-0.35 -0.1218,-0.3714 -0.0469,-0.1788 -0.2246,-0.9555 -0.0557,-0.2498 -0.0699,-0.4113 -0.003,-0.1414 -3.6188,-4.8853 -0.1275,-0.1491 -0.1228,-0.1066 -0.2816,-0.2148 -0.2664,-0.1929 -0.6374,-0.4368 -1.1582,-0.7443 -0.6438,-0.4123 -0.2154,-0.1251 -0.2047,-0.1157 -0.8462,-0.4344 -0.1899,-0.0921 -0.2899,-0.141 -0.1389,-0.0208 z"
       id="path132"
       style="stroke-width:0.125;stroke-miterlimit:4;stroke-dasharray:none" />
  </g>
  <g
     id="CASTELPLANIO"
     style="stroke-width:0.5;stroke-miterlimit:4;stroke-dasharray:none;stroke:#000000;stroke-opacity:1;stroke-linejoin:round;fill:#f8c300;fill-opacity:1;fill-rule:evenodd"
     transform="matrix(32,0,0,32,-7225.9856,-4019.3968)">
    <path
       d="m 340.8406,211.2888 -1.7116,-2.4107 -2.0217,1.1229 -5.0401,3.4611 0.0387,0.4733 -0.1506,0.833 -0.108,0.3831 -0.0433,0.1144 -1.0869,2.2609 -0.6445,-0.3744 -0.2187,-0.1397 -1.0126,-0.3979 -7.0749,2.7766 -3.6638,4.8913 -0.8637,2.3573 0.8749,0.4101 1.2731,0.9769 0.0541,0.0486 0.0471,0.0482 1.7051,1.95 1.0527,2.1546 0.745,-0.9398 2.8365,-3.5118 0.01,-0.0113 0.0698,-0.0819 0.108,-0.0776 3.1602,-1.7527 2.5985,-0.0727 1.9646,-0.7607 -0.0294,-0.0707 -0.023,-0.0555 -0.0583,-0.0806 -0.0799,-0.1081 -0.3629,-0.4188 -0.0976,-0.0967 -0.2923,-0.2687 1.3206,-3.1692 2.9777,-5.0854 1.7599,-2.0629 1.9877,-2.3145 z"
       id="path135"
       style="stroke-width:0.125;stroke-miterlimit:4;stroke-dasharray:none" />
  </g>
  <g
     id="CERRETO_D-ESI"
     style="stroke-width:0.5;stroke-miterlimit:4;stroke-dasharray:none;stroke:#000000;stroke-opacity:1;stroke-linejoin:round;fill:#f8c300;fill-opacity:1;fill-rule:evenodd"
     transform="matrix(32,0,0,32,-7225.9856,-4019.3968)">
    <path
       d="m 309.7328,288.0831 -1.3921,-1.4848 0.4295,-2.1324 -0.7134,-0.6685 -0.0642,-0.0349 -0.099,-0.0154 -0.0373,0.0129 -0.0747,0.0258 -0.0522,0.0222 -1.3726,0.6786 -0.4597,0.2302 -0.1357,0.0711 -0.0934,0.0679 -0.1451,0.1236 -0.0754,0.0793 -0.0722,0.0866 -0.0501,0.1247 -0.4578,1.6464 -3.7122,2.9036 -0.0465,-0.0482 -0.0718,-0.0511 -0.4859,-0.2883 -4.306,-1.3407 -0.1169,-0.0339 -1.7655,-0.4555 -0.5437,-0.0314 -0.1552,-3e-4 -0.0294,0.006 -0.1107,0.023 -0.115,0.0474 -2.1158,1.0906 -0.0973,0.0554 -0.1434,0.0849 -0.1412,0.0975 -0.0586,0.0554 -0.0791,0.0757 -1.5733,1.514 -0.1237,0.1336 -0.1335,0.1561 -0.3069,0.4215 -0.1183,0.1956 -0.0943,0.1827 -0.2946,0.6322 -0.0569,0.1367 -0.0462,0.1285 -0.0391,0.1376 -0.0237,0.1666 -0.2467,4.3354 0.003,0.261 0.1099,0.7685 0.4478,1.614 0.5943,1.561 0.486,0.8743 1.0068,1.7202 0.522,0.6182 2.2694,0.4211 0.1186,0.0589 0.2815,0.1371 0.3979,0.1568 0.3357,0.0337 -0.1499,-1.6811 0.6775,-2.2788 3.7139,-1.9757 4.1091,-2.401 0.0456,-0.1603 0.671,-1.6979 1.5954,-3.4561 2.3735,-2.2775 1.056,-0.6745 1.3518,-0.7854 z"
       id="path150"
       style="stroke-width:0.125;stroke-miterlimit:4;stroke-dasharray:none" />
  </g>
  <g
     id="CHIARAVALLE"
     style="stroke-width:0.5;stroke-miterlimit:4;stroke-dasharray:none;stroke:#000000;stroke-opacity:1;stroke-linejoin:round;fill:#f8c300;fill-opacity:1;fill-rule:evenodd"
     transform="matrix(32,0,0,32,-7225.9856,-4019.3968)">
    <path
       d="m 393.4463,190.5121 -0.009,-0.0264 -0.0136,-0.0401 -0.0201,-0.1017 -0.002,-0.1166 0.0305,-2.1507 0.0466,-0.1636 0.0329,0.0107 0.1169,0.0378 0.7988,0.3135 0.2786,0.124 1.2871,0.6817 0.1332,0.1129 4.3524,0.5757 2.0439,-0.6201 0.9841,-0.8629 -0.0432,-0.5937 -0.0578,-0.4003 -0.0454,-0.1507 -0.1385,-0.3834 -0.056,-0.1495 -1.4057,-0.7642 -1.0238,0.1158 -0.1177,-0.0362 -2.3886,-1.7866 -0.6531,-0.9788 -0.0488,-0.1403 -0.2328,-5.9958 0.2463,-1.1454 -0.0578,-0.0701 -1.3301,-0.9947 -0.2251,-0.1036 -0.2096,-0.0357 -0.2587,-0.0188 -0.2867,-0.0132 -0.1644,-0.0421 -2.24,-1.713 -0.1186,-0.1015 -0.3358,-0.3142 -0.4114,-0.3869 -0.5861,0.9547 -0.8832,1.5007 -0.5397,1.1337 -0.4546,0.981 -0.0257,0.124 -0.2861,0.5643 -0.0445,0.0683 -0.0203,0.021 -0.0527,0.0546 -0.0731,0.058 -3.0528,1.4695 -0.1759,0.0686 -0.1271,0.0199 -1.0674,-0.1136 -0.1294,-0.0844 -0.126,-0.1036 -0.535,-0.7128 0.034,-0.083 0.1472,-0.2289 0.1138,-0.1495 0.1214,-0.1191 0.2647,-0.214 -0.5225,-1.1377 -2.1926,-2.2956 -0.0976,-0.0898 -0.4209,-0.3272 -0.8782,-0.349 -0.6706,-0.0682 -0.8782,0.3326 -0.2847,0.6068 -0.8647,2.0195 0.1011,1.2729 4.0994,4.8179 0.0906,0.1001 0.1074,0.0691 0.7816,0.4818 0.1071,0.0461 2.0463,0.7221 0.647,0.1377 2.078,1.9427 1.11,2.2166 0.0809,0.1436 0.329,0.5309 0.2921,0.4531 0.0263,0.0384 0.0652,0.0935 0.1015,0.1324 3.7878,1.329 z"
       id="path156"
       style="stroke-width:0.125;stroke-miterlimit:4;stroke-dasharray:none" />
  </g>
  <g
     id="CORINALDO"
     style="stroke-width:0.5;stroke-miterlimit:4;stroke-dasharray:none;stroke:#000000;stroke-opacity:1;stroke-linejoin:round;fill:#f8c300;fill-opacity:1;fill-rule:evenodd"
     transform="matrix(32,0,0,32,-7225.9856,-4019.3968)">
    <path
       d="m 325.382,173.6714 1.6945,-5.939 -0.0439,-0.2264 -1.0613,-2.7079 -1.5468,-1.0819 -0.5078,-0.3188 -0.2861,-0.1183 -0.0741,0.009 -0.0986,0.0199 -0.0735,0.0405 -0.0772,0.0298 -0.061,-0.0295 -0.0507,-0.0449 -0.2035,-0.2219 -0.7216,-1.1866 -1.3343,-3.0001 -0.0381,-0.1113 -0.0124,-0.0889 -0.0255,-0.4797 -10e-4,-0.0919 0.29,-1.9562 0.0454,-0.1849 0.0984,-0.1859 0.1168,-5.5012 -3.3232,-2.2323 -0.7803,0.4349 -0.1186,0.0702 -1.1461,0.712 -0.1953,0.1246 -4.1103,2.741 -0.7588,0.5792 -0.0974,0.0765 -0.1384,0.1363 -0.0714,0.1325 -0.3323,0.4782 -0.0826,0.1072 -0.2064,0.2672 -0.1348,0.14 -0.3533,0.3412 -0.1385,0.1292 -0.1985,0.151 -0.2528,0.0972 -0.3477,0.1279 -0.5765,0.198 -0.225,0.0721 -0.2151,0.0478 -0.1814,-0.0317 -0.317,-0.0737 -1.415,-0.3476 -0.5883,0.2894 -0.2065,0.1065 -0.2339,0.1476 -0.1043,0.0867 -0.1106,0.1095 -0.1766,0.1803 -0.0721,0.0937 -0.0648,0.1116 -0.4666,0.9291 -1.8341,2.551 -2.4577,2.2333 -3.667,1.1266 -1.4891,0.0927 -0.5983,7.1381 0.1389,0.0208 0.2899,0.141 0.1899,0.0921 0.8462,0.4344 0.2047,0.1157 0.2154,0.1251 0.6438,0.4123 1.1582,0.7443 0.6374,0.4368 0.2664,0.1929 0.2816,0.2148 0.1228,0.1066 0.1275,0.1491 3.6188,4.8853 0.003,0.1414 0.0699,0.4113 0.0557,0.2498 0.2246,0.9555 0.0469,0.1788 0.1218,0.3714 0.1185,0.35 1.0314,2.7337 0.0945,0.1902 0.006,0.0124 0.019,-0.005 0.0721,-0.018 0.2888,-0.0719 0.2405,-0.142 0.1703,-0.1277 0.2401,-0.1861 0.1453,-0.1272 0.2391,-0.2179 2.9988,-3.0875 0.3315,-0.3423 3.1304,-2.3478 2.2582,-2.2683 1.0685,-1.242 2.1188,-0.6891 0.1198,-0.0277 0.1733,-0.011 0.1173,0.0181 0.0685,0.0511 0.0829,0.0693 0.0543,0.0557 0.0586,0.0646 4.7449,0.4977 2.5036,0.1904 z"
       id="path177"
       style="stroke-width:0.125;stroke-miterlimit:4;stroke-dasharray:none"
       inkscape:connector-curvature="0"
       sodipodi:nodetypes="ccccccccccccccccccccccccccccccccccccccccccccccccccccccccccccccccccccccccccccccccccccccccccccccccccccccccccccccc" />
  </g>
  <g
     id="CUPRAMONTANA"
     style="stroke-width:0.5;stroke-miterlimit:4;stroke-dasharray:none;stroke:#000000;stroke-opacity:1;stroke-linejoin:round;fill:#f8c300;fill-opacity:1;fill-rule:evenodd"
     transform="matrix(32,0,0,32,-7225.9856,-4019.3968)">
    <path
       d="m 315.647,236.9407 -0.006,0.0627 -0.009,0.0919 -0.008,0.1285 0.0406,0.3834 0.0564,0.137 0.0696,0.1075 2.3735,2.1802 0.1149,0.0851 0.4421,0.3218 1.0094,0.6127 0.1032,0.0227 0.0852,0.0254 0.1606,0.0644 0.1022,0.0579 1.191,0.763 0.0687,0.0651 0.1447,0.1484 1.5165,1.6389 1.4886,2.8771 0.006,0.0921 -10e-4,0.12 -0.208,2.0026 1.5159,-0.0772 0.0709,0.005 0.0429,0.0392 1.2349,1.2209 1.8535,1.1209 0.5223,0.1495 1.5624,0.1267 0.6178,0.0112 0.3384,-0.0256 0.1231,-0.0134 0.1027,0.0228 1.4971,0.5174 0.104,0.0687 0.9625,0.9006 0.0904,0.0928 0.0656,0.1004 0.6832,1.1993 0.1878,0.343 0.18,0.4751 0.3077,0.6686 0.0399,0.0443 0.064,0.0385 0.5581,0.3227 0.0638,0.0261 0.1066,0.0194 1.2656,0.1266 0.6047,0.0602 0.0597,-0.008 0.102,-0.0161 0.1476,-0.0279 0.0596,-0.0165 0.0804,-0.0295 0.119,-0.0506 0.4522,-2.8113 0.1891,-0.8805 0.0492,-0.16 0.0568,-0.1437 0.0538,-0.1244 0.4801,-0.783 0.103,-0.1414 0.3283,-0.455 0.5094,-0.7461 0.057,-0.1349 0.0785,-0.2786 -0.028,-0.1462 -0.4112,-1.5178 -0.064,-0.1815 -0.157,-0.4069 -0.1702,-0.3387 -0.051,-0.0908 -0.0588,-0.0859 -0.1229,-0.128 -0.1123,-0.1398 -0.0222,-0.0558 -0.009,-0.0588 0.1432,-1.3453 1.3555,-1.8957 0.1079,-0.0829 0.1154,-0.0631 0.5951,-0.2139 -0.82,-0.6854 -0.101,-0.0934 -0.1136,-0.191 -0.8594,-1.4961 -0.1102,-0.1962 -0.0478,-0.0942 -0.162,-0.6102 -0.0242,-0.1301 0.004,-0.1622 0.0165,-0.1291 0.002,-0.0131 0.0428,-0.0483 0.0365,-0.0413 0.4442,-0.5004 0.0759,-0.0845 0.1778,-0.0918 1.4733,-0.6008 0.5284,-0.0654 0.1591,0.1775 3.7507,-3.3433 1.8598,-1.6687 -0.3393,-0.9811 -0.0664,-0.1287 -0.1056,-0.143 -0.1049,-0.1218 -0.0824,-0.0465 -0.078,-0.0163 -0.1052,0.0512 -0.2571,0.342 -0.2565,0.3826 -0.2254,0.3648 -0.0287,0.0464 -0.0358,0.058 -0.065,0.0939 -0.8334,0.6432 -0.1744,0.106 -1.4654,0.6399 -4.76,1.9319 -1.2633,0.3484 -1.9508,0.0865 -0.1482,0.007 -0.173,-0.003 -0.117,-0.0217 -0.7343,-0.312 -0.4897,-0.2539 -0.0151,-0.0124 -0.161,-0.1323 -0.3776,7e-4 -2.4745,0.2021 -2.1277,1.0123 -4.1913,-0.1559 -0.0943,-0.1105 -0.0154,-0.0149 -0.0602,-0.0542 -0.1073,-0.0583 -0.8351,-0.3731 -4.8997,-1.1077 -0.5533,0.1353 -3.5674,1.3297 -0.5348,0.3199 z"
       id="path189"
       style="stroke-width:0.125;stroke-miterlimit:4;stroke-dasharray:none" />
  </g>
  <g
     id="FABRIANO"
     style="stroke-width:0.5;stroke-miterlimit:4;stroke-dasharray:none;stroke:#000000;stroke-opacity:1;stroke-linejoin:round;fill:#f8c300;fill-opacity:1;fill-rule:evenodd"
     transform="matrix(32,0,0,32,-7225.9856,-4019.3968)">
    <path
       d="m 293.1552,305.0849 -2.2694,-0.4211 -0.522,-0.6182 -1.0068,-1.7202 -0.486,-0.8743 -0.5943,-1.561 -0.4478,-1.614 -0.1099,-0.7685 -0.003,-0.261 0.2467,-4.3354 0.0237,-0.1666 0.0391,-0.1376 0.0462,-0.1285 0.0569,-0.1367 0.2946,-0.6322 0.0943,-0.1827 0.1183,-0.1956 0.3069,-0.4215 0.1335,-0.1561 0.1237,-0.1336 1.5733,-1.514 0.0791,-0.0757 0.0586,-0.0554 0.1412,-0.0975 0.1434,-0.0849 0.0973,-0.0554 2.1158,-1.0906 0.115,-0.0474 0.1107,-0.023 0.0294,-0.006 0.1552,3e-4 0.5437,0.0314 1.7655,0.4555 0.1169,0.0339 4.306,1.3407 0.4859,0.2883 0.0718,0.0511 0.0465,0.0482 3.7122,-2.9036 0.4578,-1.6464 0.0501,-0.1247 0.0722,-0.0866 0.0754,-0.0793 0.1451,-0.1236 0.0934,-0.0679 0.1357,-0.0711 0.4597,-0.2302 1.3726,-0.6786 0.0522,-0.0222 0.0747,-0.0258 0.0373,-0.0129 0.099,0.0154 0.0642,0.0349 0.7134,0.6685 -0.4295,2.1324 2.0133,-1.0152 1.0643,-2.7133 -0.059,-1.4631 -0.004,-0.1803 0.01,-0.1955 0.0415,-0.1869 0.0228,-0.0917 0.0288,-0.1159 0.0487,-0.1778 0.0624,-0.1876 0.2486,-0.5282 0.0638,-0.1364 0.1555,-0.2855 0.0889,-0.1122 1.5527,-1.7448 0.8735,-0.9391 0.0966,-0.0977 0.1254,-0.0521 0.1298,-0.0325 0.1514,-0.0103 0.1168,0.0181 0.4484,-0.1159 0.1364,-0.0445 0.0903,-0.0556 0.0923,-0.1262 0.0499,-0.1282 0.4226,-1.0864 0.002,-0.0122 0.0229,-0.1332 -0.278,-3.3171 -0.2368,-0.9386 -1.1749,-2.4119 -0.4534,-3.6269 0.0651,-0.9909 0.0211,-0.4248 0.007,-0.2794 -1.2026,-3.8451 -1.5403,-3.7366 -0.6311,-0.7021 -2.0397,-0.761 -0.4826,-0.1153 -0.0214,-10e-4 -0.0703,-0.003 -0.0775,0.0192 -0.077,0.0333 -0.0441,0.0647 -0.0488,0.0789 -0.071,0.3034 -0.0971,0.4356 -0.0438,0.1614 -0.0567,0.1324 -0.0579,0.0886 -0.0558,0.0855 -0.0192,0.0292 -0.0914,0.0995 -1.4615,0.7131 -0.1285,0.009 -0.0686,-0.0182 -0.642,-0.1744 -0.0822,-0.0336 -0.005,-0.006 -0.0456,-0.0509 -0.538,-0.697 -0.6998,-1.3002 0.008,-0.4589 -0.0604,-0.1834 -0.1664,-0.4812 -0.5338,-0.5584 -0.3666,-0.2933 -1.6268,-0.6797 -0.0907,-0.0212 -0.2281,0.0614 -3.4119,1.1953 -0.0863,0.0715 -0.0491,0.0755 -0.5781,0.9893 -0.1511,0.2623 -0.0403,1.7805 -1.0239,0.5001 -0.8596,3.7223 -0.2025,8.461 0.002,0.1757 0.0372,0.1886 0.003,0.007 0.0442,0.1109 0.3731,0.8284 0.004,0.008 0.079,0.1464 0.006,0.007 0.1127,0.1364 1.9212,2.2959 0.2855,0.3807 -1.8316,2.4758 -1.209,-1.2129 -0.1366,0.0341 -1.0219,0.3148 -0.084,0.0277 -0.0692,0.0514 -0.0786,0.104 -0.0511,0.0788 -0.0546,0.068 -0.0549,0.0609 -0.0724,0.0689 -0.0726,0.0619 -1.0198,0.3261 -1.3635,-1.7979 -0.057,-0.1375 -0.4329,-1.4467 -0.3617,-1.2166 -0.7912,-2.7492 -0.7736,-2.686 -0.0618,-0.1179 -0.0474,-0.0888 -0.1042,-0.1142 -0.1071,-0.068 -0.007,-0.004 -1.2997,-0.6725 -0.6894,-0.3382 -1.4047,-0.4596 -0.1268,-0.0298 -0.007,-0.001 -0.243,-0.0147 -0.007,-3e-4 -0.1234,0.003 -2.211,0.5956 -0.0586,0.0466 -1.9021,2.8092 -1.0166,0.8259 -1.1273,0.6124 -0.1434,0.0462 -0.1438,0.0392 -0.1136,0.004 -0.1935,-0.005 -0.1522,-0.005 -3.0945,1.8729 -1.2893,1.8717 -0.6066,0.8468 -0.362,0.4562 -0.1198,0.1444 -0.1339,0.1456 -0.2254,0.1501 -0.1735,0.1101 -0.1719,0.0396 0.0903,-0.6208 0.3178,-2.1848 -2.01,-2.4374 -0.0964,-0.0982 -0.006,-0.005 -0.096,-0.0771 -0.008,-0.006 -0.1186,0.0527 -0.1226,0.0349 -0.2676,0.0277 -0.1493,-0.003 -0.2186,-0.0885 -0.2608,-0.1276 -0.3287,-0.1621 -0.1443,-0.1026 -0.1902,-0.1379 -0.4524,-2.5974 -0.6415,0.4839 -1.5401,1.1588 -1.2988,1.1913 -0.0914,0.031 -2.2282,0.4708 -2.4534,-0.5134 -0.0996,-0.0209 -7.3951,4.2806 -0.091,0.0329 -1.271,0.2388 -0.4429,-0.0667 -1.356,-0.5407 -0.1942,0.256 -0.2105,0.0535 -1.1474,0.1198 -0.2164,-0.0543 -0.409,-0.1301 -0.1635,-0.0533 -0.0916,-0.0491 -0.0446,-0.0681 -0.0189,-0.1611 -4e-4,-0.008 -0.0197,-0.1018 -0.0487,-0.0911 -0.1559,-0.0612 -0.008,-0.003 -0.1304,-0.0383 -0.008,-0.002 -0.1016,-0.0144 -0.008,-7e-4 -1.299,-0.1049 -1.2041,-0.0425 -0.5486,0.0561 -2.6648,0.3739 -0.1277,0.0284 -0.5098,0.1868 -0.2019,0.0932 -5.281,3.0649 -3.3836,1.725 0.2051,0.4757 0.6853,0.1372 0.2385,0.0903 0.6414,0.2568 0.1326,0.0784 0.7042,0.4998 0.0506,0.0446 0.6086,0.6156 2.2573,5.223 1.2916,2.15 2.0408,1.1863 0.4188,0.3323 0.0868,0.0905 0.0944,0.1032 0.1569,0.2014 0.2088,0.2865 0.0401,0.0695 0.004,0.007 0.048,0.0872 0.1885,0.3459 0.0321,0.0791 1.3443,3.7517 0.9739,6.6342 0.047,0.4365 0.009,0.3571 0.003,0.2579 -0.002,0.0706 -0.0527,0.8098 -0.0336,0.4487 -0.2759,2.2475 -0.0497,0.3862 -0.3568,1.421 -0.042,0.1499 -0.1545,0.1519 -0.2556,0.1878 -0.2114,0.1299 -0.2576,0.1154 -0.2168,0.0589 -0.2193,0.0871 -0.4013,0.2572 -0.2938,0.2197 -0.1027,0.11 -0.1471,0.1629 -0.6958,0.9888 -0.0654,0.1719 -0.0238,0.1807 0.0144,0.1402 0.0734,0.1254 0.2299,0.2907 0.3477,0.3655 4.2164,4.1442 0.2822,-0.1071 0.0875,-0.019 0.1344,0.0239 4.8476,1.715 1.0017,2.348 0.091,1.7508 -0.0905,0.1706 -0.4387,0.8627 -0.0195,0.0609 -0.045,0.1674 -0.046,0.2592 -0.1987,1.1563 -0.018,0.1245 0.7301,5.3661 0.004,0.007 0.0522,0.1048 0.004,0.007 0.2009,0.2847 0.2221,0.2874 0.2789,0.3095 0.083,0.0868 0.3843,0.438 0.1521,0.1765 0.0873,0.1153 0.0694,0.0932 0.1758,0.2605 0.0805,0.1419 0.004,0.007 0.0815,0.154 0.7102,1.491 0.3468,1.8579 0.013,0.0942 0.006,0.1062 -0.005,0.0739 -0.1844,0.3517 -0.349,0.5137 1.8749,1.5341 0.7207,0.5348 0.7046,0.467 0.6972,0.4507 0.1337,0.008 3.2259,-0.5233 0.2176,-1.0878 6.3832,-4.1506 0.1654,0.002 1.541,0.0173 0.1019,-0.006 0.0902,-0.0452 0.0693,-0.0391 0.4298,-0.5343 0.1559,-0.2329 0.093,-0.1561 0.4677,-0.4916 0.0385,-1.402 -1.4636,-3.0967 -1.3462,-3.0311 -0.8647,-2.4789 -0.5531,-3.3718 -0.0603,-0.4407 -0.0393,-0.7152 0.002,-0.1765 0.0487,-0.1672 0.0571,-0.1121 0.0871,-0.1708 0.252,-0.3325 0.1195,-0.148 0.7176,-0.7099 0.1209,-0.0879 0.1129,0.009 0.1897,0.1254 2.9283,-1.5475 0.4169,-0.7803 1.1443,-1.9645 0.1421,0.2044 0.8325,1.4693 0.0811,0.1574 1.6019,2.2772 5.6647,-1.2372 4.1076,-1.1245 1.6328,-0.4645 0.0732,-0.023 0.7747,-0.2739 4.022,-1.6659 2.682,-2.0613 0.4771,-0.5016 0.596,-1.3901 z"
       id="path195"
       style="stroke-width:0.125;stroke-miterlimit:4;stroke-dasharray:none" />
  </g>
  <g
     id="FALCONARA_MARITTIMA"
     style="stroke-width:0.5;stroke-miterlimit:4;stroke-dasharray:none;stroke:#000000;stroke-opacity:1;stroke-linejoin:round;fill:#f8c300;fill-opacity:1;fill-rule:evenodd"
     transform="matrix(32,0,0,32,-7225.9856,-4019.3968)">
    <path
       d="m 403.5068,188.2863 3.2581,-3.6527 0.1609,-0.101 0.7227,-0.5093 0.0759,-0.0931 -0.5704,-0.5756 -0.4853,-0.3999 -0.8822,-0.7704 -0.1669,-0.2012 -0.0121,-0.0854 0.2067,-0.1021 0.3448,-0.0913 0.2614,-0.0375 0.5188,0.1104 0.3165,0.0749 4.3235,1.2119 1.0465,0.857 0.0922,0.192 0.0766,0.1259 1.7163,0.3593 2.1743,-0.2853 0.4078,-0.1531 0.2031,-0.1093 0.2199,-0.1596 0.0752,-0.1284 -0.0196,-0.1176 -0.8409,-1.3989 0.2433,-2.8261 1.9261,-2.9065 -0.4623,-0.1738 -0.5135,-0.2635 -0.3721,-0.1909 -0.1467,-0.075 -0.8876,-0.4711 -0.0645,-0.0342 -0.0931,-0.0512 -1.2547,-0.7647 -0.8618,-0.5374 -1.3581,-0.8471 -1.2914,-0.8293 -0.4732,-0.3266 -0.7245,-0.5225 -0.1428,-0.1043 -0.2553,-0.1931 -0.036,-0.0275 -0.1295,-0.1001 -0.5234,-0.492 -0.1578,-0.1887 -0.0585,-0.1784 -0.0158,-0.0846 0.0198,-0.0782 0.0349,-0.0254 -4.2895,-2.2399 -5.254,-2.0432 -0.1861,-0.0882 -0.2399,-0.1226 -0.3265,-0.1986 -0.3732,-0.2296 -0.849,-0.6007 -1.8588,2.1144 0.8444,1.5209 -3.0631,2.6385 -1.6329,1.3786 0.4114,0.3869 0.3358,0.3142 0.1186,0.1015 2.24,1.713 0.1644,0.0421 0.2867,0.0132 0.2587,0.0188 0.2096,0.0357 0.2251,0.1036 1.3301,0.9947 0.0578,0.0701 -0.2463,1.1454 0.2328,5.9958 0.0488,0.1403 0.6531,0.9788 2.3886,1.7866 0.1177,0.0362 1.0238,-0.1158 1.4057,0.7642 0.056,0.1495 0.1385,0.3834 0.0454,0.1507 0.0578,0.4003 0.0432,0.5937 z"
       id="path198"
       style="stroke-width:0.125;stroke-miterlimit:4;stroke-dasharray:none" />
  </g>
  <g
     id="FILOTTRANO"
     style="stroke-width:0.5;stroke-miterlimit:4;stroke-dasharray:none;stroke:#000000;stroke-opacity:1;stroke-linejoin:round;fill:#f8c300;fill-opacity:1;fill-rule:evenodd"
     transform="matrix(32,0,0,32,-7225.9856,-4019.3968)">
    <path
       d="m 416.3715,249.0365 -0.0147,-0.2361 -0.008,-0.2617 -0.006,-0.3164 0.0147,-0.1564 0.0283,-0.1768 0.6752,-4.2228 0.7756,-1.1665 -3.4723,-9.0747 -8.7077,-0.7458 -2.4549,0.1605 -4.6931,0.3788 -0.2766,0.1162 -0.2414,0.1215 -0.1532,0.105 -0.1455,0.1407 -1.3992,1.3906 -1.9095,1.2845 -5.7818,1.8478 -0.4188,0.0647 -0.229,0.0323 -0.2402,-0.005 -1.9462,-0.0533 -0.8183,1.4514 -0.1244,0.1189 -0.1219,0.0837 -0.0915,0.0235 -0.1863,0.0275 -0.205,0.002 -0.1559,-0.0187 -0.2448,-0.0621 -0.1241,-0.0364 -0.1462,-0.0535 -0.1602,-0.0842 -0.1934,-0.123 -0.1754,-0.1273 -0.1297,-0.1286 -0.0943,-0.1214 -0.1439,-0.124 -0.1288,-0.0825 -0.175,-0.085 -0.011,-0.005 -0.149,-0.0619 -0.163,-0.0367 -3.2635,-0.2213 -0.1437,0.0597 -0.0792,0.0859 -0.1411,0.187 -0.0407,0.0738 -1.8902,1.6436 1.3317,4.1437 1.2086,1.7572 0.4363,2.3479 0.1839,2.0823 -0.0409,0.5806 0.001,1.0771 0.004,0.1944 0.0296,0.0774 0.0193,0.0367 0.0681,0.1285 0.0193,0.0363 0.1022,0.1642 0.2348,0.2716 2.9492,2.6331 0.1614,0.0837 0.054,0.028 0.1243,0.0294 0.1242,0.0259 0.1412,0.0232 0.0996,0.0351 0.1249,0.0542 0.1072,0.0761 1.5998,2.3446 0.7583,1.2029 0.0728,0.1185 0.0805,0.1437 0.2837,0.9505 0.0873,0.2994 0.0443,0.2813 0.0204,0.1087 0.0551,0.1265 0.0659,0.104 0.9281,1.0793 0.0829,0.0838 1.3334,0.7172 0.2493,0.1224 0.0994,0.0335 2.3006,0.7553 0.6565,-0.1547 0.8893,-0.1691 0.052,-0.01 0.1233,-0.0219 0.1424,0.0534 0.0937,0.1143 0.2576,0.8786 -0.0286,0.1557 -0.1037,0.4924 5.7977,-2.7213 -0.0802,-2.2766 0.004,-0.1587 0.0604,-0.1557 0.1099,-0.1549 0.1734,-0.141 3.0917,-2.0783 1.4007,-0.9098 1.7465,-0.8316 1.343,-0.4818 2.3537,-0.9051 0.1603,-0.0974 1.4884,-0.933 1.1068,-0.8154 1.7491,-2.0755 0.1029,-0.1535 0.0472,-0.1246 0.2312,-0.6516 0.26,-0.535 0.3291,-0.5542 0.1052,-0.1283 0.0828,-0.0883 0.0343,-0.0365 0.0319,-0.028 0.0447,-0.038 0.0305,-0.0245 0.005,-0.004 0.4665,-0.2067 z"
       id="path222"
       style="stroke-width:0.125;stroke-miterlimit:4;stroke-dasharray:none" />
  </g>
  <g
     id="GENGA"
     style="stroke-width:0.5;stroke-miterlimit:4;stroke-dasharray:none;stroke:#000000;stroke-opacity:1;stroke-linejoin:round;fill:#f8c300;fill-opacity:1;fill-rule:evenodd"
     transform="matrix(32,0,0,32,-7225.9856,-4019.3968)">
    <path
       d="m 266.322,264.7894 0.4524,2.5974 0.1902,0.1379 0.1443,0.1026 0.3287,0.1621 0.2608,0.1276 0.2186,0.0885 0.1493,0.003 0.2676,-0.0277 0.1226,-0.0349 0.1186,-0.0527 0.008,0.006 0.096,0.0771 0.006,0.005 0.0964,0.0982 2.01,2.4374 -0.3178,2.1848 -0.0903,0.6208 0.1719,-0.0396 0.1735,-0.1101 0.2254,-0.1501 0.1339,-0.1456 0.1198,-0.1444 0.362,-0.4562 0.6066,-0.8468 1.2893,-1.8717 3.0945,-1.8729 0.1522,0.005 0.1935,0.005 0.1136,-0.004 0.1438,-0.0392 0.1434,-0.0462 1.1273,-0.6124 1.0166,-0.8259 1.9021,-2.8092 0.0586,-0.0466 2.211,-0.5956 0.1234,-0.003 0.007,3e-4 0.243,0.0147 0.007,10e-4 0.1268,0.0298 1.4047,0.4596 0.6894,0.3382 1.2997,0.6725 0.007,0.004 0.1071,0.068 0.1042,0.1142 0.0474,0.0888 0.0618,0.1179 0.7736,2.686 0.7912,2.7492 0.3617,1.2166 0.4329,1.4467 0.057,0.1375 1.3635,1.7979 1.0198,-0.3261 0.0726,-0.0619 0.0724,-0.0689 0.0549,-0.0609 0.0546,-0.068 0.0511,-0.0788 0.0786,-0.104 0.0692,-0.0514 0.084,-0.0277 1.0219,-0.3148 0.1366,-0.0341 1.209,1.2129 1.8316,-2.4758 -0.2855,-0.3807 -1.9212,-2.2959 -0.1127,-0.1364 -0.006,-0.007 -0.079,-0.1464 -0.004,-0.008 -0.3731,-0.8284 -0.0442,-0.1109 -0.003,-0.007 -0.0372,-0.1886 -0.002,-0.1757 0.2025,-8.461 0.8596,-3.7223 1.0239,-0.5001 0.0403,-1.7805 -0.1933,-0.042 -0.0781,-0.0267 -1.9094,-0.9038 -0.1217,-0.0677 -0.5149,-0.5632 -0.0513,-0.0801 -3.3325,-5.7143 -0.0223,-0.0417 -0.0334,-0.0634 0.005,-0.088 0.1502,-1.2182 0.0544,-0.091 0.0718,-0.0902 0.1377,-0.1435 0.0624,-0.0552 0.1283,-0.091 0.1813,-0.092 -1.0532,-1.0656 -1.4847,0.0456 -0.9301,-3.3673 -0.38,-4.7237 0.1564,-3.4108 0.064,-0.1294 0.0638,-0.1435 0.2262,-0.5737 -0.0222,-0.0184 -0.0248,-0.0205 -0.007,-0.006 -0.0718,-0.0547 -0.1362,-0.07 -0.1532,-0.0638 -0.4734,-0.1356 -0.0638,0.004 -8.8977,0.8032 -0.1118,0.0441 -0.2056,0.1192 -0.1138,0.097 -0.177,0.2848 -5.2185,4.9646 -0.2324,0.8789 -0.3662,1.3053 -0.0658,0.1876 -0.0846,0.1479 -0.8321,1.0274 -1.142,1.336 -0.8051,0.2554 -0.0451,0.0402 -0.3074,0.2875 -1.5219,1.5038 -0.065,0.087 -0.2323,0.4252 0.0163,0.0997 -0.0415,4.6418 -4.4908,4.0757 -0.0605,2.8947 1.132,1.0839 2.7559,2.5177 0.7828,1.2443 0.0505,0.1825 0.006,0.1133 -0.0299,1.0527 -0.007,0.1285 -0.2572,2.6183 z"
       id="path258"
       style="stroke-width:0.125;stroke-miterlimit:4;stroke-dasharray:none" />
  </g>
  <g
     id="JESI"
     style="stroke-width:0.5;stroke-miterlimit:4;stroke-dasharray:none;stroke:#000000;stroke-opacity:1;stroke-linejoin:round;fill:#f8c300;fill-opacity:1;fill-rule:evenodd"
     transform="matrix(32,0,0,32,-7225.9856,-4019.3968)">
    <path
       d="m 396.5227,220.7725 -0.5884,-0.5202 -0.5064,-0.4658 -0.0231,-0.108 -0.221,-1.6233 -5e-4,-0.3527 0.0412,-0.3927 0.0299,-0.2525 0.0867,-0.9185 0.078,-0.9269 -0.3711,-2.1187 -0.5293,-0.3243 -0.2467,-0.1329 -0.1821,-0.0819 -0.2104,-0.0904 -0.1032,-0.0337 -0.116,0.0134 -0.2175,0.0964 -0.2816,0.0506 -0.1307,0.0109 -0.1345,-0.009 -0.1383,-0.0214 -0.1559,-0.0257 -0.1421,-0.0286 -0.1123,-0.1206 -0.1171,-0.2145 -0.007,-0.0443 -0.0206,-0.1214 -0.003,-0.6693 0.2134,-2.3883 0.0626,-0.2457 -0.8038,-4.2706 -0.9639,-3.0994 -1.1028,-0.4829 -0.1246,-0.059 -0.4313,-0.2045 -0.0799,-0.0379 1.4653,-1.8907 0.0933,-0.1152 0.1209,-0.1438 0.1275,-0.1434 1.3949,-1.3381 0.3022,-0.2756 0.0766,-0.0613 0.1017,-0.0548 0.795,-6.0234 -3.7878,-1.329 0.009,0.1162 0.01,0.1196 -0.0116,0.1035 -0.0234,0.0959 -0.0193,0.0661 -0.02,0.0643 -0.0202,0.0537 -0.0313,0.0516 -0.0164,0.0271 -1.4173,1.4731 -0.6163,0.4818 -1.3056,0.695 -0.0915,0.0253 -0.12,0.003 -0.3645,0.004 -0.0638,-0.0227 -0.3106,-0.1874 -1.1253,1.7957 -0.6085,1.8736 -0.4936,1.5184 -1.1837,1.5448 -3.0736,3.5668 -0.128,0.1329 -0.1916,0.1455 -0.0907,0.066 -4.9226,1.6732 -0.8145,-0.2218 -0.3489,-0.138 -0.4826,-0.2331 -0.1932,-0.1176 -0.1549,-0.1262 -2.8477,-2.0773 -0.1285,-0.0507 -0.7114,-0.197 -0.1423,-0.0355 -0.0848,-8e-4 -1.0255,0.0112 -0.059,0.0182 -0.0394,0.0121 -0.136,0.076 -0.1436,0.0598 -0.2957,0.0697 -0.8662,0.0141 -0.3506,-0.0231 -0.4415,-0.3121 -0.2654,-0.6544 -0.0631,-0.1621 -1.876,0.4113 -0.6143,0.5567 -0.6233,0.7876 -0.1891,0.2429 -1.5383,2.2968 -0.6207,1.5364 -2.7149,2.3221 -0.0752,-0.055 -0.0503,-0.0273 -0.422,-0.0725 -0.1594,-0.0204 -0.149,-0.0111 -0.1628,0.008 -0.9419,0.0725 -0.0721,0.007 -0.0194,0.002 -1.9845,0.269 -3.7545,1.4514 -0.0158,0.0857 -0.2077,1.1567 0.003,0.1343 0.2472,2.2442 -0.591,0.5954 -0.8579,0.3754 0.8012,1.232 0.06,0.1584 0.0488,0.1331 0.5452,1.4893 0.0346,0.1289 0.1005,0.7077 0.2173,2.4988 5.2486,3.9826 3.2699,-0.066 3.5591,-0.2576 -1.2978,4.8727 -0.7865,2.6881 -0.0536,0.1385 -0.0705,0.1642 -0.7967,1.381 2.4508,2.9669 1.5811,-0.3701 0.0775,-0.005 0.1873,0.01 0.8253,0.0949 0.2086,0.0282 0.2408,0.0335 0.7667,0.3586 1.4565,0.7415 2.8419,1.6493 0.8659,0.0495 0.776,-0.0274 4.8102,-0.2726 0.0796,-0.0736 0.128,-0.1294 0.1009,-0.069 0.13,-0.0269 3.5064,-0.1551 0.0407,-0.0738 0.1411,-0.187 0.0792,-0.0859 0.1437,-0.0597 3.2635,0.2213 0.163,0.0367 0.149,0.0619 0.011,0.005 0.175,0.085 0.1288,0.0825 0.1439,0.124 0.0943,0.1214 0.1297,0.1286 0.1754,0.1273 0.1934,0.123 0.1602,0.0842 0.1462,0.0535 0.1241,0.0364 0.2448,0.0621 0.1559,0.0187 0.205,-0.002 0.1863,-0.0275 0.0915,-0.0235 0.1219,-0.0837 0.1244,-0.1189 0.8183,-1.4514 0.0356,-0.3213 -0.001,-0.0565 -0.0932,-0.591 -1.1819,-2.7274 -1.2747,-4.8261 -0.2298,-1.6622 -0.139,-1.0088 0.1963,-0.9292 1.5027,-3.0456 1.3039,-2.4326 0.9051,-1.1837 0.682,-0.5191 2.0495,-0.8787 1.3115,-0.1561 0.0844,0.1598 0.0537,0.3806 0.0179,0.1952 -0.0224,0.1118 -0.0438,0.1072 -0.0752,0.1179 -0.0363,0.1323 0.0143,0.1826 0.0169,0.1386 0.237,0.7116 0.0908,0.1212 0.8179,0.9625 0.6958,0.5183 0.1722,0.1237 0.1533,0.0716 0.1744,0.0638 0.1278,0.0331 0.4662,0.0579 0.171,0.004 1.2747,-0.0394 0.3737,-0.0405 0.0991,-0.0174 0.0558,-0.01 0.1264,-0.0446 0.108,-0.0756 0.0939,-0.0728 0.0797,-0.0806 0.0646,-0.0743 0.0186,-0.022 0.1893,-0.2337 0.0823,-0.1458 0.007,-0.4892 z"
       id="path276"
       style="stroke-width:0.125;stroke-miterlimit:4;stroke-dasharray:none" />
  </g>
  <g
     id="LORETO"
     style="stroke-width:0.5;stroke-miterlimit:4;stroke-dasharray:none;stroke:#000000;stroke-opacity:1;stroke-linejoin:round;fill:#f8c300;fill-opacity:1;fill-rule:evenodd"
     transform="matrix(32,0,0,32,-7225.9856,-4019.3968)">
    <path
       d="m 478.5358,254.8417 0.0753,-0.16 0.0342,-0.0528 0.0689,-0.0968 0.2593,-0.344 0.1003,-0.1109 2.555,-1.7272 0.1118,-0.0538 0.1367,-0.0559 0.6241,-0.2529 0.9744,-0.1856 0.6798,-0.0891 0.2102,-0.0836 0.0452,-0.0197 0.0985,-0.0429 0.2731,-0.1365 0.4825,-0.2678 0.1889,-0.1166 0.1389,-0.1299 0.1387,-0.1529 0.2038,-0.2764 0.0444,-0.0964 0.1386,-0.3683 0.0271,-0.0744 0.0505,-0.1454 0.0115,-0.1742 -0.64,-4.6617 -0.0486,-0.1758 -0.0158,-0.0548 -0.0816,-0.2826 -6.1299,0.3036 -3.4502,-2.4363 -3.3762,-0.7314 -1.9202,-0.6081 -2.2349,3.7646 -0.0602,0.2104 -0.0251,0.0745 -0.0877,0.2617 -0.103,0.2451 -1.4901,2.6967 -0.279,0.3995 -0.1036,0.139 -0.1492,0.1295 -0.658,0.5552 -0.6015,0.3287 -0.2833,0.1433 0.009,2.573 1.6459,2.801 8.0604,0.9637 0.4836,0.002 2.332,-0.4335 0.0944,-0.0407 1.1528,-0.7003 0.1607,-0.1058 0.1279,-0.1467 z"
       id="path282"
       style="stroke-width:0.125;stroke-miterlimit:4;stroke-dasharray:none" />
  </g>
  <g
     id="MAIOLATI_SPONTINI"
     style="stroke-width:0.5;stroke-miterlimit:4;stroke-dasharray:none;stroke:#000000;stroke-opacity:1;stroke-linejoin:round;fill:#f8c300;fill-opacity:1;fill-rule:evenodd"
     transform="matrix(32,0,0,32,-7225.9856,-4019.3968)">
    <path
       d="m 336.3495,230.2364 0.8926,-1.4493 0.7901,-1.4738 0.1358,-0.8778 -0.0135,-0.1314 -0.0138,-0.6133 -0.0124,-1.0318 0.005,-0.0845 0.005,-0.0739 0.1901,-0.6685 0.7168,-1.2762 0.0701,-0.03 5.2861,-0.9295 2.1296,-0.2129 1.7188,-0.0849 -0.2173,-2.4988 -0.1005,-0.7077 -0.0346,-0.1289 -0.5452,-1.4893 -0.0488,-0.1331 -0.06,-0.1584 -0.8012,-1.232 -3.2046,-4.4175 -2.3975,0.7559 -1.9877,2.3145 -1.7599,2.0629 -2.9777,5.0854 -1.3206,3.1692 0.2923,0.2687 0.0976,0.0967 0.3629,0.4188 0.0799,0.1081 0.0583,0.0806 0.023,0.0555 0.0294,0.0707 -1.9646,0.7607 -2.5985,0.0727 -3.1602,1.7527 -0.108,0.0776 -0.0698,0.0819 -0.01,0.0113 -2.8365,3.5118 -0.745,0.9398 -2.4967,3.0627 0.5533,-0.1353 4.8997,1.1077 0.8351,0.3731 0.1073,0.0583 0.0602,0.0542 0.0154,0.0149 0.0943,0.1105 4.1913,0.1559 2.1277,-1.0123 2.4745,-0.2021 0.3776,-7e-4 0.3696,-0.3647 0.2745,-0.3589 0.0359,-0.1148 0.0295,-0.1133 -0.006,-0.2651 -0.2503,-0.7752 -0.0344,-0.1042 -0.0515,-0.0873 -0.0725,-0.0936 -0.0687,-0.0617 -0.5292,-0.6178 -0.3268,-0.6766 0.1409,-0.309 0.4024,-0.5345 0.9503,-1.1022 z"
       id="path300"
       style="stroke-width:0.125;stroke-miterlimit:4;stroke-dasharray:none" />
  </g>
  <g
     id="MERGO"
     style="stroke-width:0.5;stroke-miterlimit:4;stroke-dasharray:none;stroke:#000000;stroke-opacity:1;stroke-linejoin:round;fill:#f8c300;fill-opacity:1;fill-rule:evenodd"
     transform="matrix(32,0,0,32,-7225.9856,-4019.3968)">
    <path
       d="m 315.647,236.9407 0.5348,-0.3199 -0.077,-0.12 -0.0107,-0.0167 -0.3397,-0.4828 -0.0441,-0.0586 -1.9972,-2.3699 -0.1409,-0.134 -0.0684,-0.0546 -0.9777,-0.4378 -0.977,-0.5367 -1.8328,-1.1892 -0.1046,-0.1039 -0.1314,-0.1848 -0.0378,-0.0936 -1.1018,-1.9375 -4.4623,-0.6432 -3.6793,2.6966 0.6051,0.9438 0.3364,0.4753 1.0532,1.2108 1.9012,1.704 0.0759,0.0602 0.0569,0.0239 0.8233,-0.1367 0.3678,-0.1252 0.3173,-0.1736 0.2999,-0.162 0.1357,-0.0694 0.0735,-0.0265 0.1412,-0.004 0.1175,0.0392 0.8561,0.5024 1.1124,0.7655 0.0689,0.0669 1.2436,1.9744 0.9113,1.6917 0.1186,0.682 0.1505,0.5406 0.599,0.1033 1.3917,-1.0214 0.7222,-0.5406 0.1796,-0.1555 0.2549,-0.2718 1.5342,-2.111 z"
       id="path324"
       style="stroke-width:0.125;stroke-miterlimit:4;stroke-dasharray:none" />
  </g>
  <g
     id="MONSANO"
     style="stroke-width:0.5;stroke-miterlimit:4;stroke-dasharray:none;stroke:#000000;stroke-opacity:1;stroke-linejoin:round;fill:#f8c300;fill-opacity:1;fill-rule:evenodd"
     transform="matrix(32,0,0,32,-7225.9856,-4019.3968)">
    <path
       d="m 385.2453,192.3528 -0.408,0.1731 -0.1161,0.0346 -0.1206,-0.015 -0.0863,-0.0663 -1.708,-1.5221 -0.3269,-0.0751 -2.7798,-0.4614 -1.4048,0.3284 -0.1202,-0.004 -1.7332,-0.4794 -1.4658,1.4784 -0.7862,0.6235 -0.1157,0.0735 -0.1675,0.085 -1.4988,0.5746 -1.8814,0.6893 -0.6452,-0.0665 -0.1555,0.006 -0.8156,0.0836 -0.3966,0.151 -2.2089,1.0808 -0.4233,0.5628 -0.5067,0.9435 -0.422,0.7996 -0.8616,2.3856 -0.2577,0.845 0.0631,0.1621 0.2654,0.6544 0.4415,0.3121 0.3506,0.0231 0.8662,-0.0141 0.2957,-0.0697 0.1436,-0.0598 0.136,-0.076 0.0394,-0.0121 0.059,-0.0182 1.0255,-0.0112 0.0848,8e-4 0.1423,0.0355 0.7114,0.197 0.1285,0.0507 2.8477,2.0773 0.1549,0.1262 0.1932,0.1176 0.4826,0.2331 0.3489,0.138 0.8145,0.2218 4.9226,-1.6732 0.0907,-0.066 0.1916,-0.1455 0.128,-0.1329 3.0736,-3.5668 1.1837,-1.5448 0.4936,-1.5184 0.6085,-1.8736 1.1253,-1.7957 z"
       id="path347"
       style="stroke-width:0.125;stroke-miterlimit:4;stroke-dasharray:none" />
  </g>
  <g
     id="MONTE_ROBERTO"
     style="stroke-width:0.5;stroke-miterlimit:4;stroke-dasharray:none;stroke:#000000;stroke-opacity:1;stroke-linejoin:round;fill:#f8c300;fill-opacity:1;fill-rule:evenodd"
     transform="matrix(32,0,0,32,-7225.9856,-4019.3968)">
    <path
       d="m 336.3495,230.2364 -0.9503,1.1022 -0.4024,0.5345 -0.1409,0.309 0.3268,0.6766 0.5292,0.6178 0.0687,0.0617 0.0725,0.0936 0.0515,0.0873 0.0344,0.1042 0.2503,0.7752 0.006,0.2651 -0.0295,0.1133 -0.0359,0.1148 -0.2745,0.3589 -0.3696,0.3647 0.161,0.1323 0.0151,0.0124 0.4897,0.2539 0.7343,0.312 0.117,0.0217 0.173,0.003 0.1482,-0.007 1.9508,-0.0865 1.2633,-0.3484 4.76,-1.9319 1.4654,-0.6399 0.1744,-0.106 0.8334,-0.6432 0.065,-0.0939 0.0358,-0.058 0.0287,-0.0464 0.2254,-0.3648 0.2565,-0.3826 0.2571,-0.342 0.1052,-0.0512 0.078,0.0163 0.0824,0.0465 0.1049,0.1218 0.1056,0.143 0.0664,0.1287 0.3393,0.9811 1.4539,0.4387 0.0478,0.008 0.0657,0.0103 0.1411,-0.007 0.4506,-0.0691 0.2641,-0.0414 0.158,-0.0274 0.9957,-0.3259 3.2449,0.4376 0.9795,0.8918 0.7967,-1.381 0.0705,-0.1642 0.0536,-0.1385 0.7865,-2.6881 1.2978,-4.8727 -3.5591,0.2576 -3.2699,0.066 -0.9951,0.054 -2.7646,0.0639 -0.9004,-0.146 -0.8324,-0.2537 -0.3967,-0.0481 -1.0302,-0.1012 -0.9696,-0.0662 -0.1377,-0.002 -0.1224,0.0556 -0.076,0.0757 -0.3758,1.3831 -1.0475,2.1599 -0.0271,0.0555 -0.0201,0.041 -0.0511,0.0822 -0.7959,0.9066 -0.3295,0.273 -2.317,0.9508 -0.0224,-0.0559 -0.038,-0.1184 -0.0322,-0.1764 -0.0284,-0.1656 -0.0422,-0.1363 -0.0733,-0.1326 -0.122,-0.0855 -0.1456,-0.0355 -0.7899,-0.1755 -2.6663,0.5524 z"
       id="path377"
       style="stroke-width:0.125;stroke-miterlimit:4;stroke-dasharray:none" />
  </g>
  <g
     id="MONTE_SAN_VITO"
     style="stroke-width:0.5;stroke-miterlimit:4;stroke-dasharray:none;stroke:#000000;stroke-opacity:1;stroke-linejoin:round;fill:#f8c300;fill-opacity:1;fill-rule:evenodd"
     transform="matrix(32,0,0,32,-7225.9856,-4019.3968)">
    <path
       d="m 376.4414,190.2652 1.7332,0.4794 0.1202,0.004 1.4048,-0.3284 2.7798,0.4614 0.3269,0.0751 1.708,1.5221 0.0863,0.0663 0.1206,0.015 0.1161,-0.0346 0.408,-0.1731 0.3106,0.1874 0.0638,0.0227 0.3645,-0.004 0.12,-0.003 0.0915,-0.0253 1.3056,-0.695 0.6163,-0.4818 1.4173,-1.4731 0.0164,-0.0271 0.0313,-0.0516 0.0202,-0.0537 0.02,-0.0643 0.0193,-0.0661 0.0234,-0.0959 0.0116,-0.1035 -0.01,-0.1196 -0.009,-0.1162 -0.1015,-0.1324 -0.0652,-0.0935 -0.0263,-0.0384 -0.2921,-0.4531 -0.329,-0.5309 -0.0809,-0.1436 -1.11,-2.2166 -2.078,-1.9427 -0.647,-0.1377 -2.0463,-0.7221 -0.1071,-0.0461 -0.7816,-0.4818 -0.1074,-0.0691 -0.0906,-0.1001 -4.0994,-4.8179 -0.1011,-1.2729 0.8647,-2.0195 0.2847,-0.6068 -0.0884,-0.167 -0.0551,-0.0947 -0.2552,-0.345 -0.0904,-0.1036 -0.5998,-0.4158 -0.8492,-0.1408 -0.0833,0.0911 -0.0553,0.0642 -0.0723,0.0934 -0.0616,0.0992 -0.0478,0.0859 -0.0508,0.1104 -0.0502,0.128 -0.0366,0.1253 -0.4475,1.7955 -0.0274,0.2087 0.0303,0.0916 0.0827,0.0767 0.0506,0.045 0.0564,0.1494 0.0375,0.1132 0.0352,0.1501 -6e-4,0.1571 -0.0784,0.0739 -0.0668,0.0389 -0.05,0.029 -0.1235,0.0237 -0.0821,-0.0307 -0.7204,-0.6144 -0.5632,-0.5251 -0.4795,-0.5613 -1.3597,-2.2115 -1.6832,0.2828 -3.1653,3.507 -0.1379,0.1678 -0.4156,0.595 -0.5923,2.288 -0.0855,1.1451 0.53,6.9571 0.0727,0.2633 0.0862,0.2215 0.0885,0.1846 0.2635,0.3931 0.087,0.1016 0.0581,0.0577 0.0825,0.0695 0.0882,0.0406 0.0368,0.017 0.4489,0.143 0.2415,0.2136 0.7165,0.584 0.3923,0.3061 1.9359,0.6941 0.313,0.1114 0.3386,0.1021 0.2238,0.0556 1.3715,0.2646 0.5267,0.05 0.3241,0.0307 1.6529,-0.48 z"
       id="path389"
       style="stroke-width:0.125;stroke-miterlimit:4;stroke-dasharray:none" />
  </g>
  <g
     id="MONTECAROTTO"
     style="stroke-width:0.5;stroke-miterlimit:4;stroke-dasharray:none;stroke:#000000;stroke-opacity:1;stroke-linejoin:round;fill:#f8c300;fill-opacity:1;fill-rule:evenodd"
     transform="matrix(32,0,0,32,-7225.9856,-4019.3968)">
    <path
       d="m 305.7581,220.235 -0.2271,0.4042 1.3128,0.3811 0.7243,1.1952 0.8324,1.1316 0.78,-0.4848 -0.0652,-0.0614 -0.062,-0.0842 -0.0478,-0.0871 -0.1594,-0.3097 -0.0634,-0.1443 -0.0304,-0.088 -0.0201,-0.1087 0.001,-0.0988 0.008,-0.0985 0.363,-0.4856 0.1752,-0.2157 0.1787,-0.2085 0.273,-0.2657 0.1253,-0.084 0.9066,-0.3567 1.9793,-0.2867 3.1055,-1.9867 0.0724,-0.0759 0.1155,-0.2027 0.0501,-0.1141 0.005,-0.1004 0.003,-0.3318 1.0926,-1.0378 1.5613,-1.103 2.6841,-0.0873 0.6411,0.0633 2.682,-0.3307 3.8469,-1.8036 1.5113,-2.2313 0.4896,-1.473 -0.0444,-0.2388 -0.003,-0.1343 0.0256,-0.1241 0.112,-0.36 0.0672,-0.1573 0.1244,-0.2817 1.3423,-2.2341 0.077,-0.0297 1.7628,-0.3858 -2.3966,-2.6331 -1.3278,-0.3765 -0.1463,-0.0567 -0.0929,-0.0434 -1.6401,-1.5272 -3.3008,-3.7435 -0.1395,-0.2188 -0.1653,-0.2783 -0.0601,-0.1513 -0.2486,-0.669 -0.002,-0.069 6e-4,-0.1324 -0.2785,-1.1861 -1.2168,-1.5271 -0.0906,-0.0963 -0.3438,-0.3311 -0.3236,-0.2331 -0.0645,-0.0367 -0.0784,-0.0198 -0.2713,0.045 -1.8407,2.5404 -0.4763,0.3669 -0.0729,0.0582 -0.0865,0.0911 -0.3155,0.4277 -0.0852,0.1318 -0.0494,0.16 -0.5499,2.6763 -0.004,0.1304 0.0931,0.3683 0.0725,0.2208 0.0405,0.0885 0.3536,0.743 0.6271,0.6681 0.075,0.0249 0.1541,0.0852 0.8226,0.5648 0.0469,0.034 0.0371,0.0725 0.0877,0.5852 -0.0172,0.0395 -0.0431,0.0988 -1.6949,1.7761 -0.0902,0.0768 -0.08,0.0579 -0.1014,0.0533 -0.3282,0.1728 -0.1786,0.0813 -0.3117,0.1207 -0.0638,-0.001 -0.0821,-0.0411 -0.1144,-0.0426 -1.2694,-0.1504 -0.1096,-0.0124 -0.0922,-0.008 -0.1256,0.0733 -2.3959,3.2343 -0.0576,0.1031 -0.0705,0.1572 -0.0462,0.1461 -0.0767,0.3441 -0.0282,0.1522 0.007,0.1451 0.0275,0.1161 0.0658,0.0898 0.066,0.1021 0.0519,0.1084 0.0311,0.1181 0.0136,0.1242 0.0233,0.2466 0.081,2.6966 -0.0477,0.379 -0.82,3.1682 -0.1636,0.4141 -0.5523,0.7093 -0.6266,0.5539 -1.4664,0.9104 -3.7066,1.9459 -0.6583,0.1041 z"
       id="path404"
       style="stroke-width:0.125;stroke-miterlimit:4;stroke-dasharray:none" />
  </g>
  <g
     id="MONTEMARCIANO"
     style="stroke-width:0.5;stroke-miterlimit:4;stroke-dasharray:none;stroke:#000000;stroke-opacity:1;stroke-linejoin:round;fill:#f8c300;fill-opacity:1;fill-rule:evenodd"
     transform="matrix(32,0,0,32,-7225.9856,-4019.3968)">
    <path
       d="m 372.642,171.8983 1.3597,2.2115 0.4795,0.5613 0.5632,0.5251 0.7204,0.6144 0.0821,0.0307 0.1235,-0.0237 0.05,-0.029 0.0668,-0.0389 0.0784,-0.0739 6e-4,-0.1571 -0.0352,-0.1501 -0.0375,-0.1132 -0.0564,-0.1494 -0.0506,-0.045 -0.0827,-0.0767 -0.0303,-0.0916 0.0274,-0.2087 0.4475,-1.7955 0.0366,-0.1253 0.0502,-0.128 0.0508,-0.1104 0.0478,-0.0859 0.0616,-0.0992 0.0723,-0.0934 0.0553,-0.0642 0.0833,-0.0911 0.8492,0.1408 0.5998,0.4158 0.0904,0.1036 0.2552,0.345 0.0551,0.0947 0.0884,0.167 0.8782,-0.3326 0.6706,0.0682 0.8782,0.349 0.4209,0.3272 0.0976,0.0898 2.1926,2.2956 0.5225,1.1377 -0.2647,0.214 -0.1214,0.1191 -0.1138,0.1495 -0.1472,0.2289 -0.034,0.083 0.535,0.7128 0.126,0.1036 0.1294,0.0844 1.0674,0.1136 0.1271,-0.0199 0.1759,-0.0686 3.0528,-1.4695 0.0731,-0.058 0.0527,-0.0546 0.0203,-0.021 0.0445,-0.0683 0.2861,-0.5643 0.0257,-0.124 0.4546,-0.981 0.5397,-1.1337 0.8832,-1.5007 0.5861,-0.9547 1.6329,-1.3786 3.0631,-2.6385 -0.8444,-1.5209 1.8588,-2.1144 -2.3921,-1.3332 -0.02,-0.0111 -2.1287,-1.2129 -6.48,-3.8382 -2.6816,-1.7774 -0.9481,1.8596 0.8628,1.8561 0.5495,0.5228 0.0383,0.0391 0.009,0.009 -0.6151,2.8196 -0.0393,0.1639 -0.2201,0.8308 -0.0137,0.005 -0.0243,0.007 -0.0887,0.0259 -0.588,0.1709 -0.1661,0.007 -0.1707,-0.0247 -2.8017,-0.692 -4.1687,1.535 -0.1546,0.0627 -0.1331,0.0744 -0.1011,0.076 -0.9134,0.6894 -1.362,4.45 -0.22,1.1523 z"
       id="path466"
       style="stroke-width:0.125;stroke-miterlimit:4;stroke-dasharray:none" />
  </g>
  <g
     id="MONTERADO"
     style="stroke-width:0.5;stroke-miterlimit:4;stroke-dasharray:none;stroke:#000000;stroke-opacity:1;stroke-linejoin:round;fill:#f8c300;fill-opacity:1;fill-rule:evenodd" />
  <g
     id="MORRO_D-ALBA"
     style="stroke-width:0.5;stroke-miterlimit:4;stroke-dasharray:none;stroke:#000000;stroke-opacity:1;stroke-linejoin:round;fill:#f8c300;fill-opacity:1;fill-rule:evenodd"
     transform="matrix(32,0,0,32,-7225.9856,-4019.3968)">
    <path
       d="m 356.1737,190.4108 0.1631,0.0895 0.8614,0.2396 0.1062,0.007 2.5691,-0.4648 4.9157,-1.1043 3.6154,-0.8449 -0.4489,-0.143 -0.0368,-0.017 -0.0882,-0.0406 -0.0825,-0.0695 -0.0581,-0.0577 -0.087,-0.1016 -0.2635,-0.3931 -0.0885,-0.1846 -0.0862,-0.2215 -0.0727,-0.2633 -0.53,-6.9571 0.0855,-1.1451 0.5923,-2.288 0.4156,-0.595 0.1379,-0.1678 3.1653,-3.507 -0.6514,2e-4 -1.3303,-0.453 -0.8108,-0.3433 -1.1253,-0.6225 -0.2362,-0.1145 -0.3205,-0.0887 -1.9837,-0.5372 -0.7484,-0.0576 -0.4732,0.0625 -0.1269,0.0377 -4.6683,1.7245 -1.3023,1.1717 -0.0453,0.0543 -0.3224,0.4657 -0.0513,0.0874 -1.9607,3.4498 -0.0716,0.1288 -0.0329,0.1131 -0.2635,1.4045 -0.0172,0.181 0.0246,0.1442 0.0102,0.1506 0.0193,0.3929 -0.005,0.0845 -0.0187,0.1245 -0.224,1.0922 -0.035,0.1624 -0.4099,1.5066 -0.0659,0.062 -1.7418,0.2988 1.0627,1.3407 2.349,3.8794 0.6078,1.7522 0.184,0.5743 z"
       id="path487"
       style="stroke-width:0.125;stroke-miterlimit:4;stroke-dasharray:none" />
  </g>
  <g
     id="NUMANA"
     style="stroke-width:0.5;stroke-miterlimit:4;stroke-dasharray:none;stroke:#000000;stroke-opacity:1;stroke-linejoin:round;fill:#f8c300;fill-opacity:1;fill-rule:evenodd"
     transform="matrix(32,0,0,32,-7225.9856,-4019.3968)">
    <path
       d="m 467.0207,231.9576 0.0774,0.1897 0.0731,0.1506 0.0837,0.1423 0.178,0.2941 0.1439,0.1563 0.1253,0.104 0.2843,0.2346 0.2744,0.2253 0.1862,0.1533 0.2432,0.1724 0.1276,0.0335 0.1099,0.0255 0.2164,0.0491 0.8222,-0.0198 0.3026,-0.0804 0.1156,-0.043 0.0533,-0.0129 0.0995,-0.0122 0.1081,-0.0116 0.3562,-0.0315 0.3391,-0.01 0.1305,0.006 1.2366,0.2487 0.3946,0.1508 0.1921,0.0901 1.4501,0.7656 0.1175,0.0701 1.6005,1.0195 0.0586,0.009 0.2225,0.004 0.3167,-0.076 0.1793,-0.0429 0.2845,-0.0848 1.004,-0.585 0.2886,-0.277 0.0903,-0.0903 0.0761,-0.0999 0.0756,-0.1282 0.062,-0.0902 0.1041,-0.1107 0.2957,-0.2766 0.1153,-0.0801 0.6399,-0.1655 0.1549,-0.0232 0.1414,-0.003 0.8519,0.102 0.1277,-0.0752 -0.0227,-0.1308 -0.0762,-0.1806 -0.0907,-0.2034 -0.9494,-1.9605 -0.3236,-0.6692 -0.005,-0.01 -0.1581,-0.295 -0.7549,-1.3987 -0.5937,-1.0921 -0.1801,-0.322 -0.3,-0.576 -0.1661,-0.3222 -0.567,-1.1297 -0.1563,-0.317 -0.1426,-0.2908 -0.2683,-0.5801 -0.2372,-0.5556 -0.088,-0.2335 -0.0746,-0.2073 -0.0844,-0.2405 -0.1051,-0.3196 -0.1086,-0.3691 -0.006,-0.0211 -0.0602,-0.2762 -0.071,-0.5516 0.0199,-0.2917 0.0237,-0.1663 0.0199,-0.1328 0.0628,-0.2077 0.034,-0.0599 0.0227,-0.0399 0.0693,-0.0824 0.0667,-0.077 0.0682,-0.0435 0.0596,-0.0275 0.0457,-0.0166 0.658,-0.9698 -0.7128,-1.8879 -0.161,-0.0392 -0.4037,0 -1.0121,0.5369 -0.3318,0.2482 -2.7685,3.7023 -1.0672,1.4663 -0.2586,0.36 -1.3974,2.4298 -0.0369,0.1127 0.051,0.0982 0.1324,0.1044 0.0623,0.1112 -0.0497,0.1914 -0.2677,0.6862 -0.1086,0.2747 -1.2684,2.9031 -0.4934,1.1027 z"
       id="path501"
       style="stroke-width:0.125;stroke-miterlimit:4;stroke-dasharray:none" />
  </g>
  <g
     id="OFFAGNA"
     style="stroke-width:0.5;stroke-miterlimit:4;stroke-dasharray:none;stroke:#000000;stroke-opacity:1;stroke-linejoin:round;fill:#f8c300;fill-opacity:1;fill-rule:evenodd"
     transform="matrix(32,0,0,32,-7225.9856,-4019.3968)">
    <path
       d="m 434.301,210.3024 -3.5813,-0.4117 -0.5325,-0.1133 -0.1493,-0.0575 -0.3177,-0.1565 -1.4249,-0.783 -0.1199,-0.0755 -0.0238,-0.015 -0.0563,-0.0365 -1.5631,-1.535 -0.7066,-0.9224 -0.5045,-0.7565 -3.0913,0.958 -1.7043,1.4752 -0.6188,0.7333 -1.1445,1.1662 -0.0798,0.0752 -0.042,0.004 -0.0723,0.007 -0.0214,0.002 -0.6571,-0.0558 0.0766,0.3166 0.3468,1.5086 -0.6289,1.1248 -0.0991,0.1642 -0.1175,0.1439 -0.1533,0.1295 -0.1639,0.1167 -0.1497,0.1192 -0.1077,0.0931 -0.0827,0.1227 -0.4489,1.6571 -0.0161,0.0786 0.0484,0.1332 0.0509,0.0733 0.5703,0.7275 0.6797,-0.0307 3.4516,0.43 1.4937,0.1898 1.115,0.1414 0.3734,0.0743 0.4642,0.2491 0.7001,0.0561 0.6636,0.0151 2.8219,-0.4464 0.1036,-0.0572 1.6618,-1.0837 1.6842,-1.6339 1.1427,-1.703 0.9307,-2.2127 z"
       id="path504"
       style="stroke-width:0.125;stroke-miterlimit:4;stroke-dasharray:none" />
  </g>
  <g
     id="OSIMO"
     style="stroke-width:0.5;stroke-miterlimit:4;stroke-dasharray:none;stroke:#000000;stroke-opacity:1;stroke-linejoin:round;fill:#f8c300;fill-opacity:1;fill-rule:evenodd"
     transform="matrix(32,0,0,32,-7225.9856,-4019.3968)">
    <path
       d="m 444.0994,245.9558 0.7766,-0.7791 0.0477,-0.0822 0.0952,-0.2138 0.009,-0.0878 -0.1419,-2.024 -0.6246,-2.1688 0.0401,-0.0935 0.0243,-0.0564 0.0372,-0.0809 0.0758,-0.1071 0.0896,-0.1223 0.204,-0.2432 0.1213,-0.1258 5.3401,-5.3045 2.4153,-2.0275 0.1785,-0.0874 0.167,-0.1409 0.094,-0.0832 0.0553,-0.0676 0.1202,-0.1964 0.8085,-1.4336 2.8362,-5.9025 0.02,-0.0677 0.0196,-0.0943 0.0123,-0.1211 0.002,-0.0882 -0.1211,-0.3569 -1.2676,-1.3969 -0.0103,-0.0102 -0.1262,-0.0547 -0.2031,-0.0763 -0.1684,-0.0542 -0.1598,0.003 -0.1436,0.0596 -0.1241,0.082 -0.3215,0.1929 -0.393,-0.0687 -1.9117,-1.1681 -1.0014,-0.7425 -1.271,-1.2866 -0.7855,-1.1466 -0.3091,-0.7233 -0.6226,-1.5409 -0.1899,-0.4913 -0.2009,-0.5655 -0.082,-0.241 -0.1829,-0.4591 -0.0939,-0.1858 -0.1066,-0.1727 -1.4992,-2.3159 -0.229,-0.3461 -0.0458,-0.0506 -0.0767,-0.085 -2.5462,0.3456 -0.1479,0.0202 -1.9535,0.1149 -3.522,-0.0934 -0.1806,-0.0292 -0.9069,-0.3014 -1.1605,-0.4475 -0.5567,-0.2612 -0.9307,2.2127 -1.1427,1.703 -1.6842,1.6339 -1.6618,1.0837 -0.1036,0.0572 -2.8219,0.4464 -0.6636,-0.0151 -0.7001,-0.0561 -0.4642,-0.2491 -0.3734,-0.0743 -1.115,-0.1414 -1.4937,-0.1898 -3.4516,-0.43 -0.6797,0.0307 -0.4045,1.1123 -0.0279,0.044 -0.0273,0.0431 -0.006,0.0102 -0.1896,0.2583 -4.1853,4.8931 -5.635,2.9211 -0.1371,0.0298 -1.3963,0.1331 -0.1459,0.0135 -0.048,0.005 -1.9562,-1.0245 -2.7268,-1.229 -0.8151,-0.304 -0.1526,-0.0327 -0.8508,-0.1488 -0.3186,0.1546 -0.2065,0.0951 -1.1795,1.0931 -0.2559,0.3377 0.7449,0.6219 0.1147,0.0819 0.1209,0.0434 0.1597,0.0278 0.1524,0.0362 0.1531,0.0574 0.1532,0.0681 0.2248,0.1595 0.1669,0.1695 0.1194,0.1331 2.7845,3.4519 -1.8288,1.1136 -0.1566,-0.0541 -0.2097,-0.0622 -0.226,-0.0136 -0.2847,0.0875 -0.2242,0.0889 -0.362,0.2653 -1.4117,1.1233 -0.4965,0.6026 0.2484,2.3719 1.3992,-1.3906 0.1455,-0.1407 0.1532,-0.105 0.2414,-0.1215 0.2766,-0.1162 4.6931,-0.3788 2.4549,-0.1605 8.7077,0.7458 3.4723,9.0747 -0.7756,1.1665 -0.6752,4.2228 -0.0283,0.1768 -0.0147,0.1564 0.006,0.3164 0.008,0.2617 0.0147,0.2361 0.997,0.2644 0.3297,0.0705 0.8321,0.1325 1.6133,0.2307 0.3575,0.0508 0.2653,0.0336 0.2294,0.003 0.2495,-0.0556 0.7741,-0.3065 0.4306,-1.1353 1.6561,-1.8396 0.171,-0.1092 1.7585,-1.0995 0.7792,0.5184 0.003,0.0143 0.0511,0.2323 0.0403,0.0993 0.0331,0.0708 0.007,0.0147 0.0236,0.0344 0.0205,0.0293 0.1594,0.2275 0.2788,0.3716 0.072,0.0727 0.1939,0.1728 0.9376,0.7036 0.1466,0.0961 0.1131,0.0343 0.1208,0.0295 0.1598,0.0386 0.1518,0.008 1.9349,-0.1486 1.2292,-0.1352 3.0146,0.9536 1.8232,-0.237 5.892,-1.0989 0.0311,-0.0111 0.0636,-0.0227 0.0824,-0.1208 0.7014,-1.2685 z"
       id="path516"
       style="stroke-width:0.125;stroke-miterlimit:4;stroke-dasharray:none" />
  </g>
  <g
     id="OSTRA"
     style="stroke-width:0.5;stroke-miterlimit:4;stroke-dasharray:none;stroke:#000000;stroke-opacity:1;stroke-linejoin:round;fill:#f8c300;fill-opacity:1;fill-rule:evenodd"
     transform="matrix(32,0,0,32,-7225.9856,-4019.3968)">
    <path
       d="m 325.382,173.6714 0.002,0.0193 0.009,0.1118 0.0435,0.2035 0.0912,0.2622 0.0559,0.1229 0.5522,1.0671 1.7951,3.265 0.4702,0.59 0.0543,0.0521 0.9812,0.504 0.16,0.0239 0.0952,-0.0236 0.077,-0.0227 0.0597,-0.0253 0.0289,-0.0173 0.0445,-0.0267 0.1473,-0.0527 0.0679,0.0263 0.0572,0.024 1.165,0.8098 0.2128,0.1642 0.0684,0.0563 0.6681,1.3574 0.0722,0.2207 0.0139,0.142 -0.4532,0.7614 -2.4722,3.808 -0.5833,0.8151 -0.0333,0.0189 -0.0295,0.0168 -0.3899,0.1256 -0.2284,0.0399 -4.1557,2.0763 -2.1486,1.6459 0.2713,-0.045 0.0784,0.0198 0.0645,0.0367 0.3236,0.2331 0.3438,0.3311 0.0906,0.0963 1.2168,1.5271 0.2785,1.1861 -6e-4,0.1324 0.002,0.069 0.2486,0.669 0.0601,0.1513 0.1653,0.2783 0.1395,0.2188 3.3008,3.7435 1.6401,1.5272 0.0929,0.0434 0.1463,0.0567 1.3278,0.3765 2.5681,-4.8076 -0.1031,-0.0263 -1.0565,-0.4215 -1.7061,-0.8296 -0.0597,-0.1407 -0.0112,-0.0832 -0.006,-0.043 0.0118,-0.0277 0.0355,-0.083 3.1529,-6.8091 4.1174,0.2631 4.3285,-1.5265 4.6213,-0.7548 1.3214,-1.5833 1.6743,-2.0699 0.3844,-0.8705 0.1154,-0.3844 0.4763,-1.6763 0.6633,-2.7104 -0.0216,-0.1723 -0.0472,-0.3696 -0.0702,0.0229 -0.0922,-0.001 -0.1206,-0.008 -0.2625,-0.0414 -0.0934,-0.2131 -0.0383,-0.2879 0.5636,-3.201 0.0706,-0.1747 0.0574,-0.1366 0.3807,-0.876 0.0813,-0.176 0.0779,-0.1497 0.2298,-0.3468 0.192,-0.2905 0.1108,-0.1162 0.1572,-0.0945 0.3213,-0.2045 0.1001,-0.115 0.0544,-0.1261 0.0488,-0.1812 0.1847,-0.7834 0.0355,-0.1677 0.1714,-1.0702 -0.0571,-0.008 -0.4937,-0.0708 -4.583,0.1205 -0.0638,0.0126 -0.0631,0.0181 -5.0664,2.2777 -1.9702,1.3634 -0.1956,0.1138 -0.4074,0.1915 -0.0585,0.0271 -1.5394,-1.4756 -0.0613,-0.0634 -0.1526,-1.483 0.061,-1.0722 0.3325,-0.0135 0.9605,-1.866 0.2052,-1.1197 -0.4691,-1.0245 -0.0441,-0.0693 -0.0939,-0.0754 -0.8473,-0.3601 -1.3705,-0.4567 -0.1205,-0.0113 -1.1104,0.0806 -0.7834,0.1341 -1.4675,0.2554 -1.0759,0.3492 -3.7766,1.5096 -0.6419,0.2719 -0.4308,0.2118 -0.9558,0.4842 -0.2014,0.1737 -0.6713,0.6873 -1.6945,5.939 z"
       id="path519"
       style="stroke-width:0.125;stroke-miterlimit:4;stroke-dasharray:none" />
  </g>
  <g
     id="OSTRA_VETERE"
     style="stroke-width:0.5;stroke-miterlimit:4;stroke-dasharray:none;stroke:#000000;stroke-opacity:1;stroke-linejoin:round;fill:#f8c300;fill-opacity:1;fill-rule:evenodd"
     transform="matrix(32,0,0,32,-7225.9856,-4019.3968)">
    <path
       d="m 314.715,194.0622 0.2036,0.2394 0.0812,0.002 0.4512,-0.0821 1.5418,-0.3254 0.9883,-0.2377 1.2175,0.3351 0.8406,0.3802 1.8407,-2.5404 2.1486,-1.6459 4.1557,-2.0763 0.2284,-0.0399 0.3899,-0.1256 0.0295,-0.0168 0.0333,-0.0189 0.5833,-0.8151 2.4722,-3.808 0.4532,-0.7614 -0.0139,-0.142 -0.0722,-0.2207 -0.6681,-1.3574 -0.0684,-0.0563 -0.2128,-0.1642 -1.165,-0.8098 -0.0572,-0.024 -0.0679,-0.0263 -0.1473,0.0527 -0.0445,0.0267 -0.0289,0.0173 -0.0597,0.0253 -0.077,0.0227 -0.0952,0.0236 -0.16,-0.0239 -0.9812,-0.504 -0.0543,-0.0521 -0.4702,-0.59 -1.7951,-3.265 -0.5522,-1.0671 -0.0559,-0.1229 -0.0912,-0.2622 -0.0435,-0.2035 -0.009,-0.1118 -0.002,-0.0193 -2.5036,-0.1904 -4.7449,-0.4977 -0.0586,-0.0646 -0.0543,-0.0557 -0.0829,-0.0693 -0.0685,-0.0511 -0.1173,-0.0181 -0.1733,0.011 -0.1198,0.0277 -2.1188,0.6891 -1.0685,1.242 -2.2582,2.2683 -3.1304,2.3478 -0.3315,0.3423 -2.9988,3.0875 -0.2391,0.2179 -0.1453,0.1272 -0.2401,0.1861 -0.1703,0.1277 -0.2405,0.142 -0.2888,0.0719 -0.0721,0.018 -0.019,0.005 -0.1288,1.2774 2.3754,0.3357 0.1207,0.0359 0.2004,0.0945 0.6015,0.2834 0.3364,0.1611 0.1041,0.0616 0.2484,0.1798 1.026,1.7889 0.2179,0.3832 0.0287,0.0728 0.0124,0.0316 -0.039,0.27 -0.0228,0.0854 -0.0694,0.0637 -0.1075,0.0955 -0.0539,0.1174 -0.0835,0.2025 -0.1786,0.5246 -0.0294,0.2616 -0.0113,0.1195 0.003,0.1379 0.006,0.1027 0.0163,0.0873 0.0484,0.1083 0.1154,0.2458 0.0858,0.1807 0.0766,0.1114 0.5109,0.6446 0.7951,0.872 0.1989,0.1792 0.1374,0.1197 0.6949,0.5141 1.2652,0.4112 2.0757,0.2655 z"
       id="path522"
       style="stroke-width:0.125;stroke-miterlimit:4;stroke-dasharray:none" />
  </g>
  <g
     id="POGGIO_SAN_MARCELLO"
     style="stroke-width:0.5;stroke-miterlimit:4;stroke-dasharray:none;stroke:#000000;stroke-opacity:1;stroke-linejoin:round;fill:#f8c300;fill-opacity:1;fill-rule:evenodd"
     transform="matrix(32,0,0,32,-7225.9856,-4019.3968)">
    <path
       d="m 339.129,208.8781 -2.1178,-0.4781 -1.0438,0.2748 -1.8387,-1.2726 -0.062,-2.2843 -1.7628,0.3858 -0.077,0.0297 -1.3423,2.2341 -0.1244,0.2817 -0.0672,0.1573 -0.112,0.36 -0.0256,0.1241 0.003,0.1343 0.0444,0.2388 -0.4896,1.473 -1.5113,2.2313 -3.8469,1.8036 -2.682,0.3307 -0.6411,-0.0633 -2.6841,0.0873 -1.5613,1.103 -1.0926,1.0378 -0.003,0.3318 -0.005,0.1004 -0.0501,0.1141 -0.1155,0.2027 -0.0724,0.0759 -3.1055,1.9867 -1.9793,0.2867 -0.9066,0.3567 -0.1253,0.084 -0.273,0.2657 -0.1787,0.2085 -0.1752,0.2157 -0.363,0.4856 -0.008,0.0985 -10e-4,0.0988 0.0201,0.1087 0.0304,0.088 0.0634,0.1443 0.1594,0.3097 0.0478,0.0871 0.062,0.0842 0.0652,0.0614 1.9552,3.2168 0.0932,0.0593 0.666,0.2266 0.1209,0.0289 0.3364,0.0428 2.115,0.2603 2.1843,0.0555 0.5874,-0.1125 0.8637,-2.3573 3.6638,-4.8913 7.0749,-2.7766 1.0126,0.3979 0.2187,0.1397 0.6445,0.3744 1.0869,-2.2609 0.0433,-0.1144 0.108,-0.3831 0.1506,-0.833 -0.0387,-0.4733 5.0401,-3.4611 2.0217,-1.1229 z"
       id="path580"
       style="stroke-width:0.125;stroke-miterlimit:4;stroke-dasharray:none" />
  </g>
  <g
     id="POLVERIGI"
     style="stroke-width:0.5;stroke-miterlimit:4;stroke-dasharray:none;stroke:#000000;stroke-opacity:1;stroke-linejoin:round;fill:#f8c300;fill-opacity:1;fill-rule:evenodd"
     transform="matrix(32,0,0,32,-7225.9856,-4019.3968)">
    <path
       d="m 392.4752,208.7127 -0.0626,0.2457 -0.2134,2.3883 0.003,0.6693 0.0206,0.1214 0.007,0.0443 0.1171,0.2145 0.1123,0.1206 0.1421,0.0286 0.1559,0.0257 0.1383,0.0214 0.1345,0.009 0.1307,-0.0109 0.2816,-0.0506 0.2175,-0.0964 0.116,-0.0134 0.1032,0.0337 0.2104,0.0904 0.1821,0.0819 0.2467,0.1329 0.5293,0.3243 0.3711,2.1187 -0.078,0.9269 -0.0867,0.9185 -0.0299,0.2525 -0.0412,0.3927 5e-4,0.3527 0.221,1.6233 0.0231,0.108 0.5064,0.4658 0.5884,0.5202 1.4686,2.4203 0.3186,-0.1546 0.8508,0.1488 0.1526,0.0327 0.8151,0.304 2.7268,1.229 1.9562,1.0245 0.048,-0.005 0.1459,-0.0135 1.3963,-0.1331 0.1371,-0.0298 5.635,-2.9211 4.1853,-4.8931 0.1896,-0.2583 0.006,-0.0102 0.0273,-0.0431 0.0279,-0.044 0.4045,-1.1123 -0.5703,-0.7275 -0.0509,-0.0733 -0.0484,-0.1332 0.0161,-0.0786 0.4489,-1.6571 0.0827,-0.1227 0.1077,-0.0931 0.1497,-0.1192 0.1639,-0.1167 0.1533,-0.1295 0.1175,-0.1439 0.0991,-0.1642 0.6289,-1.1248 -0.3468,-1.5086 -0.0766,-0.3166 -4.3574,-2.4984 -0.9276,0.477 -0.6375,0.302 -0.3048,0.1443 -2.6991,1.2027 -0.4325,0.1043 -0.2396,0.0403 -6.5534,0.5873 -5.91,-1.9286 -0.2033,-0.0954 -0.0271,-0.1126 -0.0426,-0.1859 -0.2478,-0.5462 -0.0945,-0.1285 -0.1691,-0.1589 -0.1121,-0.0994 -0.5858,-0.4844 -0.3168,-0.1101 -1.3845,1.9989 -0.0677,0.1571 -0.1012,0.242 z"
       id="path589"
       style="stroke-width:0.125;stroke-miterlimit:4;stroke-dasharray:none" />
  </g>
  <g
     id="RIPE"
     style="stroke-width:1;stroke-miterlimit:4;stroke-dasharray:none;stroke:#000000;stroke-opacity:1;stroke-linejoin:round;fill:#da271d;fill-opacity:1;fill-rule:evenodd"
     transform="matrix(32,0,0,32,-7225.9856,-4019.3968)" />
  <g
     id="ROSORA"
     style="fill:#f8c300;fill-opacity:1;stroke:#000000;stroke-width:0.125;stroke-linejoin:round;stroke-miterlimit:4;stroke-opacity:1;stroke-dasharray:none"
     transform="matrix(32,0,0,32,-7225.9856,-4019.3968)">
    <path
       d="m 322.2459,232.2284 -1.0527,-2.1546 -1.7051,-1.95 -0.0471,-0.0482 -0.0541,-0.0486 -1.2731,-0.9769 -0.8749,-0.4101 -0.5874,0.1125 -2.1843,-0.0555 -2.115,-0.2603 -0.3364,-0.0428 -0.1209,-0.0289 -0.666,-0.2266 -0.0932,-0.0593 -1.9552,-3.2168 -0.78,0.4848 -0.8324,-1.1316 -0.7243,-1.1952 -1.3128,-0.3811 0.713,2.9461 -0.2879,1.275 -0.4768,1.3453 -0.0582,0.0766 -1.5427,1.9753 4.4623,0.6432 1.1018,1.9375 0.0378,0.0936 0.1314,0.1848 0.1046,0.1039 1.8328,1.1892 0.977,0.5367 0.9777,0.4378 0.0684,0.0546 0.1409,0.134 1.9972,2.3699 0.0441,0.0586 0.3397,0.4828 0.0107,0.0167 0.077,0.12 3.5674,-1.3297 2.4967,-3.0627 z"
       id="path627"
       style="stroke-width:0.125;stroke-miterlimit:4;stroke-dasharray:none" />
  </g>
  <g
     id="SAN_MARCELLO"
     style="fill:#f8c300;fill-opacity:1;stroke:#000000;stroke-width:0.125;stroke-linejoin:round;stroke-miterlimit:4;stroke-opacity:1;stroke-dasharray:none"
     transform="matrix(32,0,0,32,-7225.9856,-4019.3968)">
    <path
       d="m 343.2381,210.5329 3.2046,4.4175 0.8579,-0.3754 0.591,-0.5954 -0.2472,-2.2442 -0.003,-0.1343 0.2077,-1.1567 0.0158,-0.0857 3.7545,-1.4514 1.9845,-0.269 0.0194,-0.002 0.0721,-0.007 0.9419,-0.0725 0.1628,-0.008 0.149,0.0111 0.1594,0.0204 0.422,0.0725 0.0503,0.0273 0.0752,0.055 2.7149,-2.3221 0.6207,-1.5364 1.5383,-2.2968 0.1891,-0.2429 0.6233,-0.7876 0.6143,-0.5567 1.876,-0.4113 0.2577,-0.845 0.8616,-2.3856 0.422,-0.7996 0.5067,-0.9435 0.4233,-0.5628 2.2089,-1.0808 0.3966,-0.151 0.8156,-0.0836 0.1555,-0.006 0.6452,0.0665 1.8814,-0.6893 1.4988,-0.5746 0.1675,-0.085 0.1157,-0.0735 0.7862,-0.6235 1.4658,-1.4784 -1.6529,0.48 -0.3241,-0.0307 -0.5267,-0.05 -1.3715,-0.2646 -0.2238,-0.0556 -0.3386,-0.1021 -0.313,-0.1114 -1.9359,-0.6941 -0.3923,-0.3061 -0.7165,-0.584 -0.2415,-0.2136 -3.6154,0.8449 -4.9157,1.1043 -2.5691,0.4648 -0.1062,-0.007 -0.8614,-0.2396 -0.1631,-0.0895 -0.286,0.6601 -0.064,0.0691 -0.101,0.0761 -0.1086,0.0705 -1.4834,0.2781 -0.5693,-0.009 -3.8942,4.2497 -0.3743,0.5055 -0.0477,0.0824 -0.4186,1.2308 -0.0564,0.1719 -0.0195,0.0803 -0.77,6.1587 -0.0289,1.1003 -0.0429,0.1409 -0.1404,0.3672 -0.0604,0.1471 -0.0576,0.103 -0.8845,1.0997 -0.1039,0.0972 -0.1088,0.0493 -0.3085,0.1117 -0.1408,0.0282 -0.116,0.0172 -0.1384,-0.007 -0.1492,-0.0287 -0.149,-0.0251 -0.1309,-0.0154 -0.1453,-0.0143 -0.1485,-4e-4 -0.1901,0.0329 -0.1371,0.0425 -1.4891,1.2462 -0.0723,2.0057 z"
       id="path654"
       style="stroke-width:0.125;stroke-miterlimit:4;stroke-dasharray:none" />
  </g>
  <g
     id="SAN_PAOLO_DI_JESI"
     style="fill:#f8c300;fill-opacity:1;stroke:#000000;stroke-width:0.125;stroke-linejoin:round;stroke-miterlimit:4;stroke-opacity:1;stroke-dasharray:none"
     transform="matrix(32,0,0,32,-7225.9856,-4019.3968)">
    <path
       d="m 349.5215,232.8868 -1.8598,1.6687 -3.7507,3.3433 -0.1591,-0.1775 -0.5284,0.0654 -1.4733,0.6008 -0.1778,0.0918 -0.0759,0.0845 -0.4442,0.5004 -0.0365,0.0413 -0.0428,0.0483 -0.002,0.0131 -0.0165,0.1291 -0.004,0.1622 0.0242,0.1301 0.162,0.6102 0.0478,0.0942 0.1102,0.1962 0.8594,1.4961 0.1136,0.191 0.101,0.0934 0.82,0.6854 0.8285,0.7513 0.4406,0.2939 0.0895,0.054 0.3817,0.1974 0.086,0.0396 0.1206,0.029 1.549,0.2807 0.0849,0.0149 1.2121,-0.4177 3.9664,-2.4948 3.9167,-2.7139 3.908,-1.8202 -2.4508,-2.9669 -0.9795,-0.8918 -3.2449,-0.4376 -0.9957,0.3259 -0.158,0.0274 -0.2641,0.0414 -0.4506,0.0691 -0.1411,0.007 -0.0657,-0.0103 -0.0478,-0.008 -1.4539,-0.4387 z"
       id="path657"
       style="stroke-width:0.125;stroke-miterlimit:4;stroke-dasharray:none" />
  </g>
  <g
     id="SANTA_MARIA_NUOVA"
     style="fill:#f8c300;fill-opacity:1;stroke:#000000;stroke-width:0.125;stroke-linejoin:round;stroke-miterlimit:4;stroke-opacity:1;stroke-dasharray:none"
     transform="matrix(32,0,0,32,-7225.9856,-4019.3968)">
    <path
       d="m 385.7666,238.2632 1.9462,0.0533 0.2402,0.005 0.229,-0.0323 0.4188,-0.0647 5.7818,-1.8478 1.9095,-1.2845 -0.2484,-2.3719 0.4965,-0.6026 1.4117,-1.1233 0.362,-0.2653 0.2242,-0.0889 0.2847,-0.0875 0.226,0.0136 0.2097,0.0622 0.1566,0.0541 1.8288,-1.1136 -2.7845,-3.4519 -0.1194,-0.1331 -0.1669,-0.1695 -0.2248,-0.1595 -0.1532,-0.0681 -0.1531,-0.0574 -0.1524,-0.0362 -0.1597,-0.0278 -0.1209,-0.0434 -0.1147,-0.0819 -0.7449,-0.6219 0.2559,-0.3377 1.1795,-1.0931 0.2065,-0.0951 -1.4686,-2.4203 -0.007,0.4892 -0.0823,0.1458 -0.1893,0.2337 -0.0186,0.022 -0.0646,0.0743 -0.0797,0.0806 -0.0939,0.0728 -0.108,0.0756 -0.1264,0.0446 -0.0558,0.01 -0.0991,0.0174 -0.3737,0.0405 -1.2747,0.0394 -0.171,-0.004 -0.4662,-0.0579 -0.1278,-0.0331 -0.1744,-0.0638 -0.1533,-0.0716 -0.1722,-0.1237 -0.6958,-0.5183 -0.8179,-0.9625 -0.0908,-0.1212 -0.237,-0.7116 -0.0169,-0.1386 -0.0143,-0.1826 0.0363,-0.1323 0.0752,-0.1179 0.0438,-0.1072 0.0224,-0.1118 -0.0179,-0.1952 -0.0537,-0.3806 -0.0844,-0.1598 -1.3115,0.1561 -2.0495,0.8787 -0.682,0.5191 -0.9051,1.1837 -1.3039,2.4326 -1.5027,3.0456 -0.1963,0.9292 0.139,1.0088 0.2298,1.6622 1.2747,4.8261 1.1819,2.7274 0.0932,0.591 10e-4,0.0565 -0.0356,0.3213 z"
       id="path681"
       style="stroke-width:0.125;stroke-miterlimit:4;stroke-dasharray:none" />
  </g>
  <g
     id="SASSOFERRATO"
     style="fill:#f8c300;fill-opacity:1;stroke:#000000;stroke-width:0.125;stroke-linejoin:round;stroke-miterlimit:4;stroke-opacity:1;stroke-dasharray:none"
     transform="matrix(32,0,0,32,-7225.9856,-4019.3968)">
    <path
       d="m 247.413,271.5358 1.356,0.5407 0.4429,0.0667 1.271,-0.2388 0.091,-0.0329 7.3951,-4.2806 0.0996,0.0209 2.4534,0.5134 2.2282,-0.4708 0.0914,-0.031 1.2988,-1.1913 1.5401,-1.1588 0.6415,-0.4839 0.2572,-2.6183 0.007,-0.1285 0.0299,-1.0527 -0.006,-0.1133 -0.0505,-0.1825 -0.7828,-1.2443 -2.7559,-2.5177 -1.132,-1.0839 0.0605,-2.8947 4.4908,-4.0757 0.0415,-4.6418 -0.0163,-0.0997 0.2323,-0.4252 0.065,-0.087 1.5219,-1.5038 0.3074,-0.2875 0.0451,-0.0402 0.8051,-0.2554 1.142,-1.336 0.8321,-1.0274 0.0846,-0.1479 0.0658,-0.1876 0.3662,-1.3053 0.2324,-0.8789 -3.1763,-0.4193 -1.3775,-1.0728 -2.5515,-2.1498 -1.2695,-3.3859 -0.0211,-0.144 -0.0158,-0.7635 0.2604,-2.6611 0.1587,-0.3015 0.6406,-0.2209 0.2803,-0.0963 0.0981,-0.0308 0.0789,0.0408 0.0889,0.0342 0.0812,-0.003 0.6415,-0.1925 0.8599,-0.3535 0.0521,-0.047 0.264,-0.3037 0.464,-3.5891 -0.0129,-0.2337 -0.0241,-0.1123 -0.3063,-0.9272 -0.1602,-0.4737 -0.0414,-0.1008 -0.0559,-0.1085 -0.0519,-0.0943 -1.2669,-2.1569 -0.0694,-0.0933 -0.0956,-0.004 -1.625,-3.3036 -0.6819,-3.4466 -0.3656,-0.3367 -0.1785,0.1552 -0.022,0.0191 -0.2911,0.2301 -3.0833,1.3467 -2.0849,0.8408 -0.9394,0.4402 -1.0302,0.4943 -1.3675,0.6907 -0.2113,1.3904 -0.0225,0.2232 -0.0573,0.2375 -0.2412,0.7905 -0.0632,0.1542 -0.1202,0.1339 -2.0301,2.1045 -0.4615,0.4678 -0.2205,0.2176 -0.3709,0.2813 -0.5417,0.3529 -5.3968,1.8408 -0.084,0.0227 -1.064,0.1137 -0.3702,0.0378 -0.5713,0.6995 -2.3168,4.0488 -0.037,0.1908 0.002,0.1943 0.0487,0.2388 0.4125,1.4455 0.4903,2.3814 0.0703,0.3828 0.0173,0.1332 -0.0294,0.1252 -0.008,0.0355 -0.0937,0.0611 -2.4018,1.3223 -0.2408,0.0932 -0.0816,0.0239 -0.1222,0.0357 -0.1127,-0.002 -0.2653,-0.0103 -0.1071,-0.0455 -0.1319,-0.0325 -0.0951,0.01 -1.3334,0.4302 -0.6791,0.2445 -0.5112,0.2004 -0.058,0.0227 -0.5297,0.2691 -0.1803,0.1207 -0.1372,0.1456 -1.3123,2.0452 -0.0593,0.1456 -0.5,1.3776 -0.1192,0.685 0.0163,0.3212 1.0711,0.987 0.5327,0.7763 0.9641,1.8985 -0.6333,0.4523 -0.2427,0.1621 -0.4428,0.2094 -0.7591,0.5218 -0.2358,0.1659 -0.5393,0.4137 -0.0398,0.0847 -0.4351,4.8501 0.2071,2.1953 0.0139,0.1225 0.0999,0.4247 0.0842,0.1221 0.0694,0.0932 0.2781,0.3711 0.2366,0.2685 0.1114,0.0721 0.2279,0.081 0.5445,0.1695 0.9745,1.0789 0.9407,1.4129 0.4635,0.9691 -1.3942,4.6142 -0.0195,0.0609 -0.047,0.0862 -0.0344,0.0386 -0.1044,0.0607 -3.098,1.7913 -0.3934,0.1906 -0.1148,0.053 -1.1328,0.3691 -3.0457,2.052 0.128,0.6629 0.6693,3.0954 1.796,2.2971 0.1086,0.1037 0.0546,0.0643 0.246,0.3466 0.1987,0.3233 0.0406,0.0671 0.0264,0.0701 0.028,0.1107 0.3587,1.5595 0.007,0.1133 -0.005,0.0775 -0.0326,0.1027 -0.2505,0.768 3.3836,-1.725 5.281,-3.0649 0.2019,-0.0932 0.5098,-0.1868 0.1277,-0.0284 2.6648,-0.3739 0.5486,-0.0561 1.2041,0.0425 1.299,0.1049 0.008,7e-4 0.1016,0.0144 0.008,0.002 0.1304,0.0383 0.008,0.003 0.1559,0.0612 0.0487,0.0911 0.0197,0.1018 4e-4,0.008 0.0189,0.1611 0.0446,0.0681 0.0916,0.0491 0.1635,0.0533 0.409,0.1301 0.2164,0.0543 1.1474,-0.1198 0.2105,-0.0535 0.1942,-0.256 z"
       id="path698"
       style="stroke-width:0.125;stroke-miterlimit:4;stroke-dasharray:none" />
  </g>
  <g
     id="SENIGALLIA"
     style="fill:#da271d;fill-opacity:1;stroke:#000000;stroke-width:0.125;stroke-linejoin:round;stroke-miterlimit:4;stroke-opacity:1;stroke-dasharray:none"
     transform="matrix(32,0,0,32,-7225.9856,-4019.3968)">
    <path
       d="m 350.9433,182.6712 1.0269,0.193 1.7418,-0.2988 0.0659,-0.062 0.4099,-1.5066 0.035,-0.1624 0.224,-1.0922 0.0187,-0.1245 0.005,-0.0845 -0.0193,-0.3929 -0.0102,-0.1506 -0.0246,-0.1442 0.0172,-0.181 0.2635,-1.4045 0.0329,-0.1131 0.0716,-0.1288 1.9607,-3.4498 0.0513,-0.0874 0.3224,-0.4657 0.0453,-0.0543 1.3023,-1.1717 4.6683,-1.7245 0.1269,-0.0377 0.4732,-0.0625 0.7484,0.0576 1.9837,0.5372 0.3205,0.0887 0.2362,0.1145 1.1253,0.6225 0.8108,0.3433 1.3303,0.453 0.6514,-2e-4 1.6832,-0.2828 0.22,-1.1523 1.362,-4.45 0.9134,-0.6894 0.1011,-0.076 0.1331,-0.0744 0.1546,-0.0627 4.1687,-1.535 2.8017,0.692 0.1707,0.0247 0.1661,-0.007 0.588,-0.1709 0.0887,-0.0259 0.0243,-0.007 0.0137,-0.005 0.2201,-0.8308 0.0393,-0.1639 0.6151,-2.8196 -0.009,-0.009 -0.0383,-0.0391 -0.5495,-0.5228 -0.8628,-1.8561 0.9481,-1.8596 -0.9548,-0.648 -3.0515,-2.1103 -0.4498,-0.3287 -2.1363,-1.5808 -1.1102,-0.8389 -0.5824,-0.4435 -0.6759,-0.5188 -1.0807,-0.8825 -1.7579,-1.4416 -0.8059,-0.6592 -3.7613,-3.1878 -6.5653,-5.1944 -0.0414,-0.033 -0.0335,-0.0405 -1.0004,-1.7851 -6.0885,-5.2128 -1.1462,-0.8953 -0.0699,-0.0571 -1.6299,-1.4587 -0.3535,-0.3289 -3.2042,-2.9752 -2.8027,2.5644 -0.1425,0.1305 -0.1325,0.1082 -0.1288,0.0871 -6.8012,3.889 -0.3263,0.1586 -1.43,0.5962 -0.612,0.215 -0.2292,0.0698 -2.9294,0.7693 0.8021,3.767 0.2597,0.8237 0.8505,1.9875 0.9348,2.1404 0.7122,2.9822 0.1693,3.5521 0.1912,4.0633 0.3399,1.2546 3.3603,1.6329 1.5656,0.7667 0.1259,0.0857 1.3742,1.2552 -0.1503,2.2215 -0.8708,4.2391 -0.0193,0.0856 -0.0299,0.092 -0.0339,0.076 -0.0406,0.081 -0.0413,0.0509 -0.0731,0.0582 -0.167,0.1311 -0.2052,1.1197 -0.9605,1.866 -0.3325,0.0135 -0.061,1.0722 0.1526,1.483 0.0613,0.0634 1.5394,1.4756 0.0585,-0.0271 0.4074,-0.1915 0.1956,-0.1138 1.9702,-1.3634 5.0664,-2.2777 0.0631,-0.0181 0.0638,-0.0126 4.583,-0.1205 0.4937,0.0708 0.0571,0.008 -0.1714,1.0702 -0.0355,0.1677 -0.1847,0.7834 -0.0488,0.1812 -0.0544,0.1261 -0.1001,0.115 -0.3213,0.2045 -0.1572,0.0945 -0.1108,0.1162 -0.192,0.2905 -0.2298,0.3468 -0.0779,0.1497 -0.0813,0.176 -0.3807,0.876 -0.0574,0.1366 -0.0706,0.1747 -0.5636,3.201 0.0383,0.2879 0.0934,0.2131 0.2625,0.0414 0.1206,0.008 0.0922,0.001 0.0702,-0.0229 0.0472,0.3696 0.0216,0.1723 -0.6633,2.7104 -0.4763,1.6763 -0.1154,0.3844 z"
       id="path704"
       style="stroke-width:0.125;stroke-miterlimit:4;stroke-dasharray:none"
       inkscape:connector-curvature="0"
       sodipodi:nodetypes="ccccccccccccccccccccccccccccccccccccccccccccccccccccccccccccccccccccccccccccccccccccccccccccccccccccccccccccccccccccccccccccccccccccccccccccccccccccccccc" />
  </g>
  <g
     id="SERRA_DE-CONTI"
     style="fill:#f8c300;fill-opacity:1;stroke:#000000;stroke-width:0.125;stroke-linejoin:round;stroke-miterlimit:4;stroke-opacity:1;stroke-dasharray:none"
     transform="matrix(32,0,0,32,-7225.9856,-4019.3968)">
    <path
       d="m 320.0392,194.3739 -0.8406,-0.3802 -1.2175,-0.3351 -0.9883,0.2377 -1.5418,0.3254 -0.4512,0.0821 -0.0812,-0.002 -0.2036,-0.2394 -0.338,0.3684 -0.1219,0.0841 -0.0907,0.0591 -4.0209,2.4314 -0.0847,0.0135 -0.8981,-0.2943 -1.1188,-0.0508 -2.8347,0.8336 -0.8646,0.6733 -0.3547,1.5878 -1.8078,3.8896 -1.2074,2.8084 -0.3552,1.6991 -0.1515,2.8248 0.0244,0.1336 0.0539,0.1757 0.0749,0.1819 0.0517,0.0873 0.0601,0.0481 0.6183,-0.0824 0.1786,-0.0427 0.2094,-0.0994 1.4728,1.1253 -0.0968,3.6484 1.5205,3.0046 1.1243,1.0644 0.6583,-0.1041 3.7066,-1.9459 1.4664,-0.9104 0.6266,-0.5539 0.5523,-0.7093 0.1636,-0.4141 0.82,-3.1682 0.0477,-0.379 -0.081,-2.6966 -0.0233,-0.2466 -0.0136,-0.1242 -0.0311,-0.1181 -0.0519,-0.1084 -0.066,-0.1021 -0.0658,-0.0898 -0.0275,-0.1161 -0.007,-0.1451 0.0282,-0.1522 0.0767,-0.3441 0.0462,-0.1461 0.0705,-0.1572 0.0576,-0.1031 2.3959,-3.2343 0.1256,-0.0733 0.0922,0.008 0.1096,0.0124 1.2694,0.1504 0.1144,0.0426 0.0821,0.0411 0.0638,0.001 0.3117,-0.1207 0.1786,-0.0813 0.3282,-0.1728 0.1014,-0.0533 0.08,-0.0579 0.0902,-0.0768 1.6949,-1.7761 0.0431,-0.0988 0.0172,-0.0395 -0.0877,-0.5852 -0.0371,-0.0725 -0.0469,-0.034 -0.8226,-0.5648 -0.1541,-0.0852 -0.075,-0.0249 -0.6271,-0.6681 -0.3536,-0.743 -0.0405,-0.0885 -0.0725,-0.2208 -0.0931,-0.3683 0.004,-0.1304 0.5499,-2.6763 0.0494,-0.16 0.0852,-0.1318 0.3155,-0.4277 0.0865,-0.0911 0.0729,-0.0582 0.4763,-0.3669 z"
       id="path707"
       style="stroke-width:0.125;stroke-miterlimit:4;stroke-dasharray:none" />
  </g>
  <g
     id="SERRA_SAN_QUIRICO"
     style="fill:#f8c300;fill-opacity:1;stroke:#000000;stroke-width:0.125;stroke-linejoin:round;stroke-miterlimit:4;stroke-opacity:1;stroke-dasharray:none"
     transform="matrix(32,0,0,32,-7225.9856,-4019.3968)">
    <path
       d="m 320.9848,267.3014 1.7499,-2.13 0.1391,-0.6888 0.0122,-0.2219 0.007,-0.1638 0.006,-0.2152 -0.0382,-0.1254 -0.703,-1.1258 -0.1976,-0.3134 -0.8211,-1.2021 -1.4198,-1.1467 -0.4165,-0.3082 -0.0789,-0.0515 -0.1929,0.0329 -0.1613,0.0486 -0.2399,-0.3013 -0.1133,-0.1769 -0.0274,-0.1125 -0.0176,-0.1439 0.184,-2.417 0.029,-0.1204 0.051,-0.0858 0.6159,-0.5349 0.7721,-0.6243 0.0588,-0.0394 0.4354,-0.2647 0.0976,-0.0553 0.0909,-0.0344 0.688,-0.3017 0.8471,-0.4439 0.1147,-0.095 0.4888,-0.6823 1.2317,-3.5343 0.0459,-0.1354 0.0823,-0.2697 0.0323,-0.1326 0.0505,-0.2553 0.208,-2.0026 10e-4,-0.12 -0.006,-0.0921 -1.4886,-2.8771 -1.5165,-1.6389 -0.1447,-0.1484 -0.0687,-0.0651 -1.191,-0.763 -0.1022,-0.0579 -0.1606,-0.0644 -0.0852,-0.0254 -0.1032,-0.0227 -1.0094,-0.6127 -0.4421,-0.3218 -0.1149,-0.0851 -2.3735,-2.1802 -0.0696,-0.1075 -0.0564,-0.137 -0.0406,-0.3834 0.008,-0.1285 0.009,-0.0919 0.006,-0.0627 -1.5342,2.111 -0.2549,0.2718 -0.1796,0.1555 -0.7222,0.5406 -1.3917,1.0214 -0.599,-0.1033 -0.1505,-0.5406 -0.1186,-0.682 -0.9113,-1.6917 -1.2436,-1.9744 -0.0689,-0.0669 -1.1124,-0.7655 -0.8561,-0.5024 -0.1175,-0.0392 -0.1412,0.004 -0.0735,0.0265 -0.1357,0.0694 -0.2999,0.162 -0.3173,0.1736 -0.3678,0.1252 -0.8233,0.1367 -0.0569,-0.0239 -0.0759,-0.0602 -1.9012,-1.704 -1.0532,-1.2108 -0.3364,-0.4753 -0.6051,-0.9438 -0.196,0.2239 -1.7546,1.7906 -0.0796,0.0756 -0.0877,0.0382 -0.1083,0.0265 -0.1396,0.007 -0.1996,-0.003 -0.1267,-0.0111 -0.1662,0.008 -0.1759,0.0324 -0.123,0.0241 -0.7512,0.3435 -0.2336,0.13 -1.793,2.0734 -0.4778,0.8388 -0.0421,0.1551 -0.0422,0.5877 0.3252,0.7589 0.1921,0.3482 0.3497,1.4647 -1.069,1.778 -0.5877,0.664 -1.7326,1.7657 -0.1813,0.092 -0.1283,0.091 -0.0624,0.0552 -0.1377,0.1435 -0.0718,0.0902 -0.0544,0.091 -0.1502,1.2182 -0.005,0.088 0.0334,0.0634 0.0223,0.0417 3.3325,5.7143 0.0513,0.0801 0.5149,0.5632 0.1217,0.0677 1.9094,0.9038 0.0781,0.0267 0.1933,0.042 0.1511,-0.2623 0.5781,-0.9893 0.0491,-0.0755 0.0863,-0.0715 3.4119,-1.1953 0.2281,-0.0614 0.0907,0.0212 1.6268,0.6797 0.3666,0.2933 0.5338,0.5584 0.1664,0.4812 0.0604,0.1834 -0.008,0.4589 0.6998,1.3002 0.538,0.697 0.0456,0.0509 0.005,0.006 0.0822,0.0336 0.642,0.1744 0.0686,0.0182 0.1285,-0.009 1.4615,-0.7131 0.0914,-0.0995 0.0192,-0.0292 0.0558,-0.0855 0.0579,-0.0886 0.0567,-0.1324 0.0438,-0.1614 0.0971,-0.4356 0.071,-0.3034 0.0488,-0.0789 0.0441,-0.0647 0.077,-0.0333 0.0775,-0.0192 0.0703,0.003 0.0214,10e-4 0.4826,0.1153 2.0397,0.761 0.6311,0.7021 1.5403,3.7366 1.2026,3.8451 -0.007,0.2794 -0.0211,0.4248 -0.0651,0.9909 0.4534,3.6269 1.1749,2.4119 2.455,-2.253 -0.0785,-0.4965 0.0902,-0.5252 0.2034,-0.5057 0.0692,-0.0584 0.2955,-0.1832 0.1045,-0.055 0.0944,-0.0377 0.077,-0.021 0.9517,0.2833 0.8005,0.7614 z"
       id="path710"
       style="stroke-width:0.125;stroke-miterlimit:4;stroke-dasharray:none" />
  </g>
  <g
     id="SIROLO"
     style="fill:#f8c300;fill-opacity:1;stroke:#000000;stroke-width:0.125;stroke-linejoin:round;stroke-miterlimit:4;stroke-opacity:1;stroke-dasharray:none"
     transform="matrix(32,0,0,32,-7225.9856,-4019.3968)">
    <path
       d="m 467.0207,231.9576 0.4934,-1.1027 1.2684,-2.9031 0.1086,-0.2747 0.2677,-0.6862 0.0497,-0.1914 -0.0623,-0.1112 -0.1324,-0.1044 -0.051,-0.0982 0.0369,-0.1127 1.3974,-2.4298 0.2586,-0.36 1.0672,-1.4663 2.7685,-3.7023 0.3318,-0.2482 1.0121,-0.5369 0.4037,0 0.161,0.0392 -0.0199,-0.0564 -0.0215,-0.0671 -0.0571,-0.1966 -0.7489,-4.774 -0.0656,-0.6553 0.005,-0.5334 0.1004,-0.7959 0.0498,-0.249 0.029,-0.1125 0.0216,-0.031 0.0155,-0.0209 0.0189,-0.0119 0.0126,-0.008 0.0404,-0.0183 0.0351,-0.013 0.0279,-0.0251 0.2784,-0.319 0.0788,-0.0931 0.0469,-0.0555 0.1412,-0.1719 0.8756,-1.3519 0.356,-2.043 -0.2166,-0.9501 -0.5688,-1.0535 -3.62,-2.7583 -1.0876,-0.6934 -0.8587,3.6825 -0.263,0.9759 -0.4168,1.4582 -0.9122,2.7409 -0.1316,0.374 -0.0809,0.2269 -1.8267,5.0633 -2.5583,1.9156 -1.5937,3.3792 -0.4009,0.2359 -0.5448,0.5739 -0.4942,0.8697 -0.4424,2.8412 -0.0636,0.6109 -0.002,0.0793 0.005,0.0727 0.07,0.3923 1.3912,0.6769 0.8885,0.621 0.8481,0.6506 0.1403,0.1384 0.0719,0.0764 0.8081,1.201 0.1346,0.2246 0.1352,0.2617 0.3179,0.6338 0.6731,1.3702 z"
       id="path728"
       style="stroke-width:0.125;stroke-miterlimit:4;stroke-dasharray:none" />
  </g>
  <g
     id="STAFFOLO"
     style="fill:#f8c300;fill-opacity:1;stroke:#000000;stroke-width:0.125;stroke-linejoin:round;stroke-miterlimit:4;stroke-opacity:1;stroke-dasharray:none"
     transform="matrix(32,0,0,32,-7225.9856,-4019.3968)">
    <path
       d="m 341.0592,257.6693 0.8252,-0.0259 0.1615,-0.0255 0.098,-0.041 1.7229,-1.058 0.0552,-0.0502 0.052,-0.0521 0.0687,-0.0707 0.1262,-0.165 0.1239,-0.188 0.7734,-0.2773 1.4912,-0.2343 3.984,0.0395 2.0518,0.4177 0.9886,0.2458 1.3179,0.3543 0.7223,0.1266 0.851,0.0342 0.5825,10e-4 0.1017,-0.0196 1.1987,-0.3613 4.1968,-6.0516 2.3429,-5.1883 3.0637,-5.3702 -2.8419,-1.6493 -1.4565,-0.7415 -0.7667,-0.3586 -0.2408,-0.0335 -0.2086,-0.0282 -0.8253,-0.0949 -0.1873,-0.01 -0.0775,0.005 -1.5811,0.3701 -3.908,1.8202 -3.9167,2.7139 -3.9664,2.4948 -1.2121,0.4177 -0.0849,-0.0149 -1.549,-0.2807 -0.1206,-0.029 -0.086,-0.0396 -0.3817,-0.1974 -0.0895,-0.054 -0.4406,-0.2939 -0.8285,-0.7513 -0.5951,0.2139 -0.1154,0.0631 -0.1079,0.0829 -1.3555,1.8957 -0.1432,1.3453 0.009,0.0588 0.0222,0.0558 0.1123,0.1398 0.1229,0.128 0.0588,0.0859 0.051,0.0908 0.1702,0.3387 0.157,0.4069 0.064,0.1815 0.4112,1.5178 0.028,0.1462 -0.0785,0.2786 -0.057,0.1349 -0.5094,0.7461 -0.3283,0.455 -0.103,0.1414 -0.4801,0.783 -0.0538,0.1244 -0.0568,0.1437 -0.0492,0.16 -0.1891,0.8805 -0.4522,2.8113 1.3377,1.3045 z"
       id="path737"
       style="stroke-width:0.125;stroke-miterlimit:4;stroke-dasharray:none" />
  </g>
</svg>
