<?xml version="1.0" encoding="UTF-8" standalone="no"?>
<svg height="7179.4224" id="svg2" version="1.1" width="6282.4751" xmlns="http://www.w3.org/2000/svg" xmlns:cc="http://creativecommons.org/ns#" xmlns:dc="http://purl.org/dc/elements/1.1/" xmlns:rdf="http://www.w3.org/1999/02/22-rdf-syntax-ns#" xmlns:svg="http://www.w3.org/2000/svg">
  <g id="ABETONE" style="stroke-width:0.5;stroke-miterlimit:4;stroke-dasharray:none;stroke:#000000;stroke-opacity:1;stroke-linejoin:round;fill:#f8c300;fill-opacity:1;fill-rule:evenodd" transform="matrix(80,0,0,80,-18305.576,-9237.088)">
    <path d="m 236.20171,127.7794 0.77719,-0.6639 2.8442,-1.4146 0.1993,-0.0808 0.81281,-0.1313 1.67019,-0.179 0.35809,0.0182 1.29331,0.2854 1.53191,-2.0624 -0.23362,-0.0635 -0.20669,-0.0913 -0.1512,-0.1183 -0.14211,-0.1334 -2.23559,-3.1424 -0.0604,-0.1578 0.3584,-1.3821 0.35851,-1.2777 0.39039,-0.442 -2.62381,-0.6496 -0.42709,0.0413 -1.9922,0.1944 -0.2166,0.063 -1.13809,0.4315 -1.93651,0.0568 -0.19209,-0.2176 -0.18471,-0.1617 -0.1631,-0.0815 -2.5365,-0.918 -0.2154,0.002 -0.2693,0.0621 -2.9319,4.4565 0.0233,1.6964 0.1175,1.8136 -0.0804,1.0596 -0.035,0.2146 -0.0749,0.2312 -0.0324,0.0603 0.81472,0.6789 1.69718,1.4121 2.36551,0.8079 0.5167,-0.2615 0.306,-0.0418 1.1602,0.0537 0.48421,0.0325 z" id="path7" style="stroke-width:0.075;stroke-miterlimit:4;stroke-dasharray:none"/>
  </g>
  <g id="AGLIANA" style="stroke-width:0.5;stroke-miterlimit:4;stroke-dasharray:none;stroke:#000000;stroke-opacity:1;stroke-linejoin:round;fill:#f8c300;fill-opacity:1;fill-rule:evenodd" transform="matrix(80,0,0,80,-18305.576,-9237.088)">
    <path d="m 299.2605,179.2086 -0.0532,-0.147 -0.39542,-0.4641 -1.32809,-1.50219 -1.4816,-1.58622 -1.2796,-1.38989 -0.51828,-0.61259 -0.26081,-0.25202 -0.24402,-0.13629 -0.22128,-0.0793 -0.194,-0.0285 -1.8775,2.808 -0.1723,0.3417 -10e-4,0.008 -0.009,0.0535 -0.003,0.0162 0.28671,3.2599 0.20981,0.63989 0.17718,0.17821 0.39762,0.74671 1.3468,1.72608 1.55109,1.95092 0.13461,0.12709 0.28149,0.20041 0.13159,0.0749 1.4379,0.47619 0.34152,-2.24669 0.3685,-1.2044 0.78098,-1.8772 0.0623,-0.1333 0.225,-0.4316 0.10089,-0.19101 0.2049,-0.32559 z" id="path10" style="stroke-width:0.075;stroke-miterlimit:4;stroke-dasharray:none"/>
  </g>
  <g id="BUGGIANO" style="stroke-width:0.5;stroke-miterlimit:4;stroke-dasharray:none;stroke:#000000;stroke-opacity:1;stroke-linejoin:round;fill:#f8c300;fill-opacity:1;fill-rule:evenodd" transform="matrix(80,0,0,80,-18305.576,-9237.088)">
    <path d="m 254.1006,189.39841 -0.002,-0.4915 -0.23239,-0.068 -1.57501,-0.664 -0.2141,-0.10669 -1.431,-0.86301 -7e-4,-0.004 -0.0167,-0.10251 0.0231,-1.3934 0.0101,-0.2694 0.0599,-0.2467 0.0332,-0.12101 0.1469,-0.4319 0.0931,-0.1611 -0.15821,-2.23839 -0.6121,-3.0814 -0.2238,-0.894 -0.0546,-0.21429 -0.0779,-0.14301 -0.8283,-0.75661 -0.49601,-0.1322 -0.22268,-0.0199 -0.12561,-0.0613 -0.069,-0.1515 -0.148,-0.3488 -0.37871,-1.1278 -0.0677,-0.5254 -0.051,-0.69471 0.0669,-0.0595 0.068,-0.11169 0.0456,-0.086 0.0893,-0.2939 0.0457,-0.19468 0.10089,-0.5307 0.007,-0.14331 -0.14669,-0.82509 -0.4274,-1.73111 -0.0269,-0.0766 -0.0385,-0.0929 -0.005,-0.0132 -0.006,-0.0146 -0.10389,-0.0521 -1.3971,-0.59661 -0.1887,0.0222 -0.2101,0.1044 -0.172,0.16609 -0.1187,0.128 -0.1694,2.9712 0.0465,0.4967 0.0427,0.2597 0.0629,0.3405 0.20621,0.60221 0.16409,0.4209 0.0175,0.1026 -0.2395,1.30619 -0.1682,1.76661 0.0404,0.15739 0.27468,0.7798 0.30941,0.6805 0.1649,0.8993 0.0173,0.11341 -0.0282,0.0973 -0.24121,0.7583 -0.78199,2.15829 1.6683,3.86161 0.0292,0.0659 0.0489,0.064 0.2426,0.21381 0.0263,0.0147 0.1228,0.0667 0.17771,0.0733 0.2453,0.0812 0.31799,0.0566 0.4119,0.0586 0.3553,0.0466 0.2967,0.0301 0.0292,-0.002 0.21592,-0.0127 1.26999,-0.0995 1.74099,0.0562 0.35681,0.1837 1.7634,1.04421 z" id="path72" style="stroke-width:0.075;stroke-miterlimit:4;stroke-dasharray:none"/>
  </g>
  <g id="CHIESINA_UZZANESE" style="stroke-width:0.5;stroke-miterlimit:4;stroke-dasharray:none;stroke:#000000;stroke-opacity:1;stroke-linejoin:round;fill:#f8c300;fill-opacity:1;fill-rule:evenodd" transform="matrix(80,0,0,80,-18305.576,-9237.088)">
    <path d="m 243.11391,192.13271 0.67959,0.6902 0.8263,0.82379 0.0471,0.0466 0.1131,0.0263 0.10251,0.0108 0.0766,-0.007 0.0457,0.004 0.0113,0.001 0.028,0.003 0.0771,0.0731 0.39121,0.4194 0.21929,0.38071 0.0568,0.10339 0.0608,0.1252 0.0585,0.1273 0.75319,2.11189 0.0763,0.32341 0.0893,0.4302 0.24741,1.2229 1.48809,0.4898 -0.035,-0.1029 -0.0492,-0.15109 -0.0512,-0.16411 -0.0401,-0.1705 -0.0578,-0.26 -0.2968,-1.3652 -0.0491,-0.262 -0.003,-0.14579 0.3297,-1.0282 0.2485,-0.59491 0.0543,-0.0881 -1.43989,-5.92509 -0.40171,-1.4805 -2.31028,-0.75011 0.15319,0.0945 0.0631,0.0419 0.0684,0.0456 0.0622,0.06 0.0657,0.0992 0.3537,2.1122 -0.0214,0.0844 -0.0803,0.2853 -0.0535,0.0511 -2.68781,-0.2422 -0.48531,-0.10131 -0.59349,-0.15348 1.80941,2.7052 z" id="path238" style="stroke-width:0.075;stroke-miterlimit:4;stroke-dasharray:none"/>
  </g>
  <g id="CUTIGLIANO" style="stroke-width:0.5;stroke-miterlimit:4;stroke-dasharray:none;stroke:#000000;stroke-opacity:1;stroke-linejoin:round;fill:#f8c300;fill-opacity:1;fill-rule:evenodd" transform="matrix(80,0,0,80,-18305.576,-9237.088)">
    <path d="m 256.90381,122.8839 -0.2449,-0.128 -0.26682,-0.1535 -0.25549,-0.1664 -0.8536,-0.6315 -0.21501,-0.1603 -0.14819,-0.204 -1.3277,-2.1744 -0.7653,-1.3774 -0.1276,-0.1941 -0.1434,-0.1833 -0.2238,-0.203 -0.2689,-0.1686 -0.33181,-0.2005 -0.41029,-0.1261 -1.5155,-0.4233 -1.5745,-0.0329 -0.2507,0.01 -3.1516,0.1629 -1.0623,0.213 -0.39039,0.442 -0.35851,1.2777 -0.3584,1.3821 0.0604,0.1578 2.23559,3.1424 0.14211,0.1334 0.1512,0.1183 0.20669,0.0913 0.23362,0.0635 -1.53191,2.0624 -1.29331,-0.2854 -0.35809,-0.0182 -1.67019,0.179 -0.81281,0.1313 -0.1993,0.0808 -2.8442,1.4146 -0.77719,0.6639 1.19349,0.5795 2.4283,1.4603 2.7291,1.6452 0.7055,0.258 0.16249,0.10341 0.61551,0.47358 0.15241,0.16191 0.098,0.1411 0.11059,0.16541 0.40531,0.45189 0.5144,0.4738 0.592,0.3341 0.21071,0.1 0.21849,0.0437 0.3377,0.0114 0.2436,-0.001 0.6521,-0.019 0.2136,-0.0391 0.14209,-0.0775 0.1026,-0.0761 0.38311,0.0406 0.1792,0.032 0.1638,0.0361 0.1351,0.0441 0.0824,0.0474 0.0691,0.0536 0.6147,0.4956 0.0201,-0.1192 0.0637,-0.2074 0.55648,-0.4732 0.36951,-0.3053 0.69949,-0.5267 2.41442,-2.06031 0.21359,-1.75669 0.0459,-0.29261 0.0697,-0.3703 0.0172,-0.0627 0.5558,-1.46679 0.2913,-0.4765 0.1364,-0.2123 0.1657,-0.2487 1.24029,-2.3045 0.38712,-0.9518 z" id="path280" style="stroke-width:0.075;stroke-miterlimit:4;stroke-dasharray:none"/>
  </g>
  <g id="LAMPORECCHIO" style="stroke-width:0.5;stroke-miterlimit:4;stroke-dasharray:none;stroke:#000000;stroke-opacity:1;stroke-linejoin:round;fill:#f8c300;fill-opacity:1;fill-rule:evenodd" transform="matrix(80,0,0,80,-18305.576,-9237.088)">
    <path d="m 264.26639,203.6982 1.68121,-0.82621 1.93161,-1.01229 0.22489,-0.11361 1.12371,0.38752 0.11338,0.009 0.1282,0.0268 0.22373,0.0528 0.97329,0.41969 0.34159,0.1512 0.1697,0.2212 0.14829,0.2034 0.0236,0.0158 0.0706,0.0472 0.0967,0.062 0.0163,0.01 0.1846,0.11301 0.67899,0.29148 1.25211,0.15432 0.1614,0.008 0.50211,0.005 2.97378,-0.7478 2.8191,-0.8442 0.3063,-0.11689 0.5994,-0.51241 1.3417,-1.6194 0.65692,-1.0959 1.49558,-1.9178 0.2048,-0.254 -0.0827,-0.1085 -0.18128,-0.2782 -0.18261,-0.3152 -0.1799,-0.3391 -0.0413,-0.1945 -0.15851,-0.7865 -0.0424,-0.3315 -0.21011,-0.5442 -0.0586,-0.1101 -0.0744,-0.0887 -0.0834,-0.0759 -3.46508,-2.55921 -1.5343,0.0974 -0.29322,0.2977 -0.9573,1.235 -0.1377,0.286 -1.28927,2.75621 -0.23462,0.51219 -0.0175,0.1931 0.063,0.2037 0.16049,0.1471 0.062,0.1558 -0.0283,0.12079 -0.003,0.0135 -0.0147,0.0626 -0.3353,0.80989 -2.7254,1.30831 -0.67908,0.27611 -0.30432,0.0345 -0.22018,-0.018 -2.59082,1.46851 -0.70658,0.63449 -0.12402,0.0777 -0.36478,0.2005 -0.2933,0.13819 -0.27622,0.0341 -0.3237,0.0189 -0.28628,0.0133 -0.3049,0.0585 -0.21192,0.1018 -0.54568,0.3794 -0.23331,0.184 -0.73349,0.5797 -0.19952,0.2327 z" id="path375" style="stroke-width:0.075;stroke-miterlimit:4;stroke-dasharray:none"/>
  </g>
  <g id="LARCIANO" style="stroke-width:0.5;stroke-miterlimit:4;stroke-dasharray:none;stroke:#000000;stroke-opacity:1;stroke-linejoin:round;fill:#f8c300;fill-opacity:1;fill-rule:evenodd" transform="matrix(80,0,0,80,-18305.576,-9237.088)">
    <path d="m 264.26639,203.6982 0.19952,-0.2327 0.73349,-0.5797 0.23331,-0.184 0.54568,-0.3794 0.21192,-0.1018 0.3049,-0.0585 0.28628,-0.0133 0.3237,-0.0189 0.27622,-0.0341 0.2933,-0.13819 0.36478,-0.2005 0.12402,-0.0777 0.70658,-0.63449 2.59082,-1.46851 0.22018,0.018 0.30432,-0.0345 0.67908,-0.27611 2.7254,-1.30831 0.3353,-0.80989 0.0147,-0.0626 0.003,-0.0135 0.0283,-0.12079 -0.062,-0.1558 -0.16049,-0.1471 -0.063,-0.2037 0.0175,-0.1931 0.23462,-0.51219 1.28927,-2.75621 0.1377,-0.286 0.9573,-1.235 0.29322,-0.2977 -0.008,-0.30901 -0.0249,-0.24839 -0.0291,-0.042 -0.0978,-0.1414 -1.2485,-0.7353 -0.23688,-0.0554 -1.12851,-0.16271 -0.26709,0.0178 -0.22082,0.0972 -0.25208,0.12909 -0.29681,0.1694 -0.5275,0.3186 -0.21011,-1.9685 0.35312,-1.22049 -0.0331,-0.18122 -1.40429,-0.53839 -0.27359,-0.0823 -0.26761,-0.0582 -0.12601,-0.0191 -0.009,-0.001 -0.11859,0.2191 -0.0942,0.19791 0.0375,0.17698 0.15049,0.59491 0.084,0.14971 0.11511,0.13089 0.0859,0.16279 0.0367,0.21401 -0.007,0.2129 -0.22278,0.4756 -2.3251,4.0337 -0.0879,0.1176 -1.36508,1.6244 -0.49381,0.487 -0.58499,0.5567 -1.0152,0.3602 -3.10751,1.4147 -1.80841,0.87819 1.133,2.21012 0.36611,2.11509 0.0221,0.18959 -0.0316,0.24291 -0.28061,1.04201 -0.59249,1.21128 2.26428,-1.47039 z" id="path378" style="stroke-width:0.075;stroke-miterlimit:4;stroke-dasharray:none"/>
  </g>
  <g id="MARLIANA" style="stroke-width:0.5;stroke-miterlimit:4;stroke-dasharray:none;stroke:#000000;stroke-opacity:1;stroke-linejoin:round;fill:#f8c300;fill-opacity:1;fill-rule:evenodd" transform="matrix(80,0,0,80,-18305.576,-9237.088)">
    <path d="m 264.37149,170.909 0.041,-0.77539 0.104,-1.15232 0.0203,-0.0865 0.4979,-1.12421 1.5834,-1.6915 0.15729,0.0143 0.30252,0.0807 0.26679,0.0124 0.13421,-0.0275 0.0306,-0.0971 -1.05478,-3.63301 -0.6687,-1.72178 -0.12372,-0.2462 -0.15048,-0.22731 -0.72162,-0.7378 -0.12668,-0.1137 -0.28912,-0.0977 -0.0698,-0.0146 -1.34131,-0.97521 -1.68109,-2.1112 -0.15619,-0.96019 0.044,-0.20781 0.11499,-0.1475 0.1189,-0.1235 0.15289,-0.15421 -0.12219,-0.1875 -1.08679,-0.61959 -0.1854,-0.0645 -0.005,-0.002 -1.1239,-0.1113 -0.5517,0.14599 -0.0805,0.0348 -0.05,0.0589 -0.003,0.0108 -0.0212,2.06529 0.0717,0.15252 0.34918,0.32429 0.23032,0.20261 0.1608,0.16958 0.5227,0.56771 0.0162,0.0926 0.009,0.11569 -0.62082,1.54612 -1.59848,2.20588 -0.1561,-0.005 -0.23062,-0.0582 -0.21939,-0.1097 -0.008,-0.004 -3.60019,-2.5446 -2.79811,0.44969 -0.26481,0.22149 -0.10159,0.1187 -1.2026,1.5513 -0.4804,0.96411 -0.0843,0.2592 0.005,0.0219 0.0312,0.14411 0.0816,0.0778 0.4776,0.19481 0.37278,0.0796 0.25132,0.027 0.20208,0.0717 0.29412,0.17571 0.18499,0.15399 0.0596,0.0788 0.0405,0.0537 1.4216,2.7415 0.0706,0.79089 -0.001,0.1543 -0.0453,0.173 -0.1382,0.3189 -0.52681,0.47599 0.53911,0.48542 1.3486,1.52018 0.0702,0.0928 0.57142,0.9102 0.11608,0.1982 0.16501,0.3645 0.2052,0.53489 0.4029,1.71122 1.58909,-0.72931 0.21359,-0.16069 0.12381,-0.15821 0.19361,-0.2481 0.11529,-0.1715 0.10932,-0.19771 0.15249,-0.16639 0.2334,-0.1667 0.80649,-0.25229 0.72742,0.76149 0.35418,0.51651 0.0695,0.12329 0.0509,0.17289 0.3641,0.36231 0.7291,0.6768 0.0755,0.0495 0.0933,-0.0632 1.19278,-1.6006 2.6557,-1.5314 z" id="path428" style="stroke-width:0.075;stroke-miterlimit:4;stroke-dasharray:none"/>
  </g>
  <g id="MASSA_E_COZZILE" style="stroke-width:0.5;stroke-miterlimit:4;stroke-dasharray:none;stroke:#000000;stroke-opacity:1;stroke-linejoin:round;fill:#f8c300;fill-opacity:1;fill-rule:evenodd" transform="matrix(80,0,0,80,-18305.576,-9237.088)">
    <path d="m 254.5219,173.69231 -0.4029,-1.71122 -0.2052,-0.53489 -0.16501,-0.3645 -0.11608,-0.1982 -0.57142,-0.9102 -0.0702,-0.0928 -1.3486,-1.52018 -0.53911,-0.48542 -0.92099,0.58951 -1.47979,1.55631 -1.37201,0.0888 0.4274,1.73111 0.14669,0.82509 -0.007,0.14331 -0.10089,0.5307 -0.0457,0.19468 -0.0893,0.2939 -0.0456,0.086 -0.068,0.11169 -0.0669,0.0595 0.051,0.69471 0.0677,0.5254 0.37871,1.1278 0.148,0.3488 0.069,0.1515 0.12561,0.0613 0.22268,0.0199 0.49601,0.1322 0.8283,0.75661 0.0779,0.14301 0.0546,0.21429 0.2238,0.894 0.6121,3.0814 0.15821,2.23839 -0.0931,0.1611 -0.1469,0.4319 -0.0332,0.12101 -0.0599,0.2467 -0.0101,0.2694 -0.0231,1.3934 0.0167,0.10251 7e-4,0.004 1.431,0.86301 0.2141,0.10669 1.57501,0.664 0.23239,0.068 -0.14411,-2.85601 -0.0926,-0.8826 -0.3955,-1.0283 -0.3494,-0.94029 -0.8676,-2.47551 0.002,-0.0347 0.3649,-2.8235 0.4431,-1.3823 0.1798,-0.42669 0.10099,-0.11751 0.52971,-0.4193 0.1241,-0.0734 0.1463,-0.0861 0.18419,-0.22439 0.0585,-0.17711 0.11731,-0.976 0.0216,-0.29089 z" id="path437" style="stroke-width:0.075;stroke-miterlimit:4;stroke-dasharray:none"/>
  </g>
  <g id="MONSUMMANO_TERME" style="stroke-width:0.5;stroke-miterlimit:4;stroke-dasharray:none;stroke:#000000;stroke-opacity:1;stroke-linejoin:round;fill:#f8c300;fill-opacity:1;fill-rule:evenodd" transform="matrix(80,0,0,80,-18305.576,-9237.088)">
    <path d="m 261.38559,198.15759 1.80841,-0.87819 3.10751,-1.4147 1.0152,-0.3602 0.58499,-0.5567 0.49381,-0.487 1.36508,-1.6244 0.0879,-0.1176 2.3251,-4.0337 0.22278,-0.4756 0.007,-0.2129 -0.0367,-0.21401 -0.0859,-0.16279 -0.11511,-0.13089 -0.084,-0.14971 -0.15049,-0.59491 -0.0375,-0.17698 0.0942,-0.19791 0.11859,-0.2191 -1.54499,-1.0894 -0.23641,-0.1836 -0.0791,-0.27349 -0.2615,-0.61911 -0.1564,-0.2405 -0.18259,-0.19 -0.0844,-0.0878 -1.42249,-1.3125 -0.582,-0.47169 -0.65079,-0.16721 -0.33221,-0.0807 -1.29901,-0.19831 -0.2406,0.10121 -0.65549,0.0704 -1.091,-0.018 -0.70801,-0.515 -0.18109,0.1787 -0.4578,0.6271 -0.1221,0.18 -0.58099,0.8593 -0.0425,0.1426 -0.12839,0.5691 -0.0615,0.31179 -0.26709,1.60761 -1.0138,3.5638 -0.7438,2.2324 -0.28769,0.6657 -0.46591,1.1207 -0.0335,0.1341 -0.0112,0.1106 0.0171,0.1178 0.79178,1.1674 0.1304,0.1355 0.0786,0.061 0.0309,0.024 0.2344,0.37469 0.79431,1.4415 0.6211,1.166 0.1423,0.18359 0.36249,0.308 z" id="path452" style="stroke-width:0.075;stroke-miterlimit:4;stroke-dasharray:none"/>
  </g>
  <g id="MONTALE" style="stroke-width:0.5;stroke-miterlimit:4;stroke-dasharray:none;stroke:#000000;stroke-opacity:1;stroke-linejoin:round;fill:#f8c300;fill-opacity:1;fill-rule:evenodd" transform="matrix(80,0,0,80,-18305.576,-9237.088)">
    <path d="m 307.31281,158.2887 -1.35871,-0.33719 -1.90219,-1.8768 -2.578,-1.52031 -0.17981,-0.0806 -0.24771,-0.0865 -0.1463,-0.0188 -0.20868,0.021 -0.4816,0.0708 -1.2619,0.2606 -1.52741,0.476 -0.64639,0.2475 -0.20871,0.91481 -0.0222,0.19079 -0.39871,2.0539 -0.7178,1.8009 -1.2945,1.3188 -0.0546,0.0835 -0.0793,0.91791 -0.0227,0.93229 0.005,0.709 0.0188,0.2179 0.0249,0.2354 0.078,0.39331 0.1347,0.40329 0.0662,0.1582 0.578,1.07719 0.41601,0.71451 0.1178,0.1051 0.45169,0.5066 0.0294,0.1399 -1.38959,4.3851 -0.075,0.2069 -0.22677,0.59691 0.51828,0.61259 1.2796,1.38989 1.4816,1.58622 1.32809,1.50219 0.39542,0.4641 0.0882,-0.1196 0.0618,-0.1963 0.041,-0.24691 0.008,-0.13899 -0.0721,-0.71071 -0.14102,-0.13598 -0.20739,-0.19641 -0.17771,-0.2436 -0.29538,-0.5334 -0.367,-0.7308 -0.0418,-0.1257 -0.009,-0.0278 0.42258,-2.05539 1.31671,-4.75611 0.21759,-0.6579 0.0791,-0.1873 0.0664,-0.1179 0.1344,-0.21201 1.91189,-2.75609 0.068,-0.0961 0.10202,-0.1389 0.6904,-0.81581 0.1019,-0.114 0.008,-0.009 0.84231,-0.6707 0.007,-0.005 0.13572,-0.098 0.13278,-0.0576 0.1911,-0.0235 0.19641,-0.0604 0.10391,-0.0366 0.14179,-0.0682 0.72741,-0.36042 0.5419,-0.73669 0.16269,-0.28729 0.91581,-3.04541 z" id="path461" style="stroke-width:0.075;stroke-miterlimit:4;stroke-dasharray:none"/>
  </g>
  <g id="MONTECATINI-TERME" style="stroke-width:0.5;stroke-miterlimit:4;stroke-dasharray:none;stroke:#000000;stroke-opacity:1;stroke-linejoin:round;fill:#f8c300;fill-opacity:1;fill-rule:evenodd" transform="matrix(80,0,0,80,-18305.576,-9237.088)">
    <path d="m 254.1006,189.39841 0.7935,0.6084 0.2105,-2.668 0.0305,-0.0972 0.2307,-0.27989 0.0452,-0.0426 0.5055,-1.08341 0.98001,-2.1922 0.31968,-1.83268 0.15231,-0.56652 0.1788,-0.27659 0.1789,-0.081 0.17791,-0.0553 0.0379,-0.0118 0.27102,-0.0942 0.24469,-0.086 1.32529,-0.5955 0.68921,-1.7029 0.53451,-1.2278 0.27179,-0.4203 -0.12341,-0.45711 -0.003,-0.16969 0.0392,-0.39059 0.18179,-0.50481 0.1261,-0.1604 0.2959,-0.3219 0.0315,-1.8237 -0.11102,-0.4243 -1.19278,1.6006 -0.0933,0.0632 -0.0755,-0.0495 -0.7291,-0.6768 -0.3641,-0.36231 -0.0509,-0.17289 -0.0695,-0.12329 -0.35418,-0.51651 -0.72742,-0.76149 -0.80649,0.25229 -0.2334,0.1667 -0.15249,0.16639 -0.10932,0.19771 -0.11529,0.1715 -0.19361,0.2481 -0.12381,0.15821 -0.21359,0.16069 -1.58909,0.72931 -0.0216,0.29089 -0.11731,0.976 -0.0585,0.17711 -0.18419,0.22439 -0.1463,0.0861 -0.1241,0.0734 -0.52971,0.4193 -0.10099,0.11751 -0.1798,0.42669 -0.4431,1.3823 -0.3649,2.8235 -0.002,0.0347 0.8676,2.47551 0.3494,0.94029 0.3955,1.0283 0.0926,0.8826 0.14411,2.85601 0.002,0.4915 z" id="path473" style="stroke-width:0.075;stroke-miterlimit:4;stroke-dasharray:none"/>
  </g>
  <g id="PESCIA" style="stroke-width:0.5;stroke-miterlimit:4;stroke-dasharray:none;stroke:#000000;stroke-opacity:1;stroke-linejoin:round;fill:#f8c300;fill-opacity:1;fill-rule:evenodd" transform="matrix(80,0,0,80,-18305.576,-9237.088)">
    <path d="m 234.9404,186.17081 0.66411,-0.12451 1.48028,-1.1924 -0.008,-0.0667 -0.002,-0.0139 0.54779,-0.48911 0.12871,-0.091 0.64639,0.037 0.41299,0.4433 1.08692,1.69422 0.0663,0.81459 -0.001,0.0695 -0.0107,0.94569 0.073,1.02572 0.0393,0.10739 0.0298,0.0125 0.0589,0.0246 0.0526,0.0209 0.078,0.016 1.02031,0.0229 0.59349,0.15348 0.48531,0.10131 2.68781,0.2422 0.0535,-0.0511 0.0803,-0.2853 0.0214,-0.0844 -0.3537,-2.1122 -0.0657,-0.0992 -0.0622,-0.06 -0.0684,-0.0456 -0.0631,-0.0419 -0.15319,-0.0945 -0.73641,-1.17419 -2.5702,-2.9077 -0.0671,-0.245 -0.01,-0.1763 0.1645,-1.93409 0.53951,-2.18741 0.0995,-0.26331 1.13111,-2.53619 0.0826,-0.0766 1.58532,-1.00681 0.5728,-0.18818 -0.20621,-0.60221 -0.0629,-0.3405 -0.0427,-0.2597 -0.0465,-0.4967 0.1694,-2.9712 0.1187,-0.128 0.172,-0.16609 0.2101,-0.1044 0.1887,-0.0222 1.3971,0.59661 0.10389,0.0521 0.006,0.0146 0.005,0.0132 0.0385,0.0929 0.0269,0.0766 1.37201,-0.0888 1.47979,-1.55631 0.92099,-0.58951 0.52681,-0.47599 0.1382,-0.3189 0.0453,-0.173 0.001,-0.1543 -0.0706,-0.79089 -1.4216,-2.7415 -0.0405,-0.0537 -0.0596,-0.0788 -0.18499,-0.15399 -0.29412,-0.17571 -0.20208,-0.0717 -0.25132,-0.027 -0.37278,-0.0796 -0.4776,-0.19481 -0.0816,-0.0778 -0.0312,-0.14411 -0.005,-0.0219 0.0843,-0.2592 0.4804,-0.96411 -0.3162,-0.22938 -0.1123,-0.10601 -0.003,-0.003 -0.4516,-0.45191 -0.41681,-0.9024 -0.15269,-0.4935 -0.0614,-0.3633 0.6965,-3.3081 0.069,-0.1619 0.0872,-0.004 0.0906,0.0586 0.13369,0.0278 0.14872,0.0279 0.10249,-0.0805 0.55141,-0.58641 0.0738,-0.11029 0.54049,-2.9897 0.11181,-1.802 -0.0172,-0.0857 -0.2254,-0.60051 -0.3203,-0.84619 -0.11991,-0.11621 -0.16929,0.003 -0.1207,0.115 -0.1103,0.1369 -0.0569,0.0988 -0.74199,1.0826 -0.0491,0.0425 -1.0175,0.43541 -0.7247,0.27848 -0.0704,0.0116 -0.16181,-0.0207 -0.56109,-0.1051 -0.9771,-0.12461 -0.149,0.001 -0.0904,0.0242 -0.77281,0.58429 -0.35679,0.29699 -0.89099,0.79502 -0.0784,0.0789 -0.47622,0.77091 -0.0593,0.1118 -0.0395,0.1058 -0.0306,0.1016 -0.0618,0.2357 -0.02,0.117 -0.0159,0.3454 -0.004,0.0978 0.005,0.10009 0.007,0.0719 -0.007,0.12381 -0.0365,0.2863 -0.23658,0.4148 -2.45411,2.88569 -0.4685,0.52111 -0.17999,0.12249 -0.30791,-0.14089 -0.648,0.9349 -0.0638,4.1976 0.25519,1.12281 -0.1402,1.61279 -1.90039,7.353 -0.50571,1.41641 -0.0734,0.0572 -1.65091,1.13659 -0.0336,0.16071 -0.0153,0.1041 -4.2e-4,0.004 -0.0179,0.14611 -0.008,0.0782 -0.006,0.0781 -0.002,0.0805 0.009,0.10451 0.0221,0.0961 0.2393,0.93761 0.0225,0.0788 0.3526,0.8485 0.3753,0.80769 0.2202,0.46971 -0.62151,2.1556 -0.0885,0.0341 -0.11079,0.8905 -0.0109,0.1063 0.1443,3.1602 0.0102,0.1416 0.0952,0.0541 1.2818,0.007 z" id="path560" style="stroke-width:0.075;stroke-miterlimit:4;stroke-dasharray:none"/>
  </g>
  <g id="PIEVE_A_NIEVOLE" style="stroke-width:0.5;stroke-miterlimit:4;stroke-dasharray:none;stroke:#000000;stroke-opacity:1;stroke-linejoin:round;fill:#f8c300;fill-opacity:1;fill-rule:evenodd" transform="matrix(80,0,0,80,-18305.576,-9237.088)">
    <path d="m 259.23099,194.68381 -0.0309,-0.024 -0.0786,-0.061 -0.1304,-0.1355 -0.79178,-1.1674 -0.0171,-0.1178 0.0112,-0.1106 0.0335,-0.1341 0.46591,-1.1207 0.28769,-0.6657 0.7438,-2.2324 1.0138,-3.5638 0.26709,-1.60761 0.0615,-0.31179 0.12839,-0.5691 0.0425,-0.1426 0.58099,-0.8593 0.1221,-0.18 0.4578,-0.6271 0.18109,-0.1787 -0.13318,-0.10949 -0.077,-0.0835 -0.0191,-0.0208 -0.17081,-0.19071 -0.0739,-0.11909 -0.0772,-0.1691 -0.32751,-1.0161 0.026,-0.0886 0.38602,-1.13749 0.31069,-0.8935 0.0149,-0.0543 0.004,-0.0148 -1.1641,-0.2842 -0.27179,0.4203 -0.53451,1.2278 -0.68921,1.7029 -1.32529,0.5955 -0.24469,0.086 -0.27102,0.0942 -0.0379,0.0118 -0.17791,0.0553 -0.1789,0.081 -0.1788,0.27659 -0.15231,0.56652 -0.31968,1.83268 -0.98001,2.1922 -0.5055,1.08341 -0.0452,0.0426 -0.2307,0.27989 -0.0305,0.0972 -0.2105,2.668 1.8396,2.65309 0.87989,2.0431 0.0415,0.1055 0.0994,0.15441 0.10711,0.0958 0.11969,0.0221 0.19342,-0.0523 0.974,-0.2769 0.0823,-0.0678 z" id="path582" style="stroke-width:0.075;stroke-miterlimit:4;stroke-dasharray:none"/>
  </g>
  <g id="PISTOIA" style="stroke-width:0.5;stroke-miterlimit:4;stroke-dasharray:none;stroke:#000000;stroke-opacity:1;stroke-linejoin:round;fill:#f8c300;fill-opacity:1;fill-rule:evenodd" transform="matrix(80,0,0,80,-18305.576,-9237.088)">
    <path d="m 297.4205,155.1969 -0.46411,-2.353 -0.31689,0.0532 -0.1315,0.003 -0.39609,-0.0226 -0.11102,-0.0266 -0.30131,-0.1399 -0.19699,-0.0961 -0.75958,-0.3923 -1.04861,-0.7139 -0.6796,-0.76941 -0.6896,-0.91729 0.1452,-1.0264 0.14239,-0.8969 0.0135,-0.46499 -0.009,-0.0813 -1.9284,-4.38771 -0.10709,-0.1158 -0.78491,-0.7229 -0.6564,-0.33519 -3.70829,-1.75301 -0.3937,-0.1375 -1.02662,-0.0892 -0.21487,-7e-4 -0.46982,0.0173 -0.0132,0.005 -0.1882,0.0728 -0.18781,0.14999 -0.23959,0.1162 -0.20892,0.0234 -0.21659,-0.0224 -0.1766,-0.0476 -0.6597,-0.20659 -0.5556,-0.34121 -0.18949,-0.1703 -0.11362,-0.1846 -0.13308,-0.2184 -0.1333,0.0709 -0.14142,0.0467 -0.1604,0.009 -0.37018,-0.0194 -0.19721,-0.0111 -0.1947,-0.0197 -0.14651,-0.0186 -0.93698,-0.1715 -0.35681,-0.12561 -0.1587,-0.0624 -0.14901,-0.0991 -0.12058,-0.0962 -0.13071,-0.13571 -0.032,-0.0767 -0.022,-0.0528 -0.0123,-0.13071 0.0569,-0.1814 0.4328,-1.3491 0.58929,-1.28031 0.0602,-0.13559 -0.0133,-0.1786 -0.26462,-1.1694 -0.0471,-0.1424 -0.0268,-0.0724 -0.044,-0.0923 -0.0508,-0.0794 -0.0491,-0.0555 -1.48431,-1.00161 -1.82269,-1.27429 -0.1012,-0.0827 -0.11841,-0.0984 -0.0751,-0.0756 -0.163,-0.27769 -0.46829,-0.21631 -0.29071,-0.25971 -0.13919,-0.0553 -0.12912,-0.0181 -1.53738,-0.1456 -1.26532,0.23911 -0.19629,0.0413 -0.17001,0.044 -0.13489,0.0448 1.15051,1.2925 2.83047,2.9386 0.43671,0.468 0.0502,0.10341 -0.20977,0.9012 -1.99582,1.20169 -0.15039,0.0771 -0.21021,0.0931 0.83069,1.35032 1.21411,1.25338 1.59311,2.84722 0.21658,0.39189 0.0359,0.10319 0.0856,0.27591 0.0137,0.114 -0.0535,0.2408 -0.0156,0.0224 -0.0351,0.0503 -0.0194,0.0192 -1.17148,1.07579 -0.0563,0.0284 -0.0566,0.0286 -0.008,0.003 -0.2211,0.0787 -0.3609,0.12441 -0.22669,0.0733 -0.88891,0.2015 -0.98169,0.2308 -0.30689,0.2012 -0.47372,0.3134 -0.23859,0.16989 -0.17841,0.13301 -0.1427,0.12951 -0.0163,0.0148 -0.25211,0.388 -0.0475,0.16198 -0.0398,0.20781 -0.0605,0.1531 -0.11591,0.1822 -0.11319,0.1584 -0.22079,0.26039 -0.13862,0.12081 -1.73019,1.29229 -0.0409,0.0101 -0.023,0.005 -0.55051,-0.37181 -0.0709,-0.12101 -0.0668,-0.18429 -0.11828,-0.2087 -0.74512,-0.5493 -0.90939,-0.34311 -0.125,-0.0347 -0.36261,0.0694 -0.1109,0.0273 -0.15668,0.0422 -0.94382,0.35331 -1.43737,0.79319 -0.0803,0.0561 -0.50598,0.4991 -0.1413,0.147 -0.0374,0.1036 0.4584,1.4416 0.65,0.9727 0.0177,0.1603 -0.44409,1.5494 -0.14942,0.45729 -0.15289,0.15421 -0.1189,0.1235 -0.11499,0.1475 -0.044,0.20781 0.15619,0.96019 1.68109,2.1112 1.34131,0.97521 0.0698,0.0146 0.28912,0.0977 0.12668,0.1137 0.72162,0.7378 0.15048,0.22731 0.12372,0.2462 0.6687,1.72178 1.05478,3.63301 -0.0306,0.0971 -0.13421,0.0275 -0.26679,-0.0124 -0.30252,-0.0807 -0.15729,-0.0143 -1.5834,1.6915 -0.4979,1.12421 -0.0203,0.0865 -0.104,1.15232 -0.041,0.77539 0.99112,0.21319 1.36459,0.23891 0.21479,-0.0105 1.6354,2.687 1.6229,0.806 1.13681,1.4846 0.289,2.10491 0.0675,0.30159 0.0973,0.2413 0.84272,0.6496 2.4143,0.6831 0.0653,-0.0812 0.0298,-0.15368 -0.016,-0.15911 -0.0618,-0.2623 -0.0459,-0.19239 0.12512,-0.11461 0.1019,-0.0564 0.40649,-0.0777 0.2414,-0.0359 0.0811,-0.007 0.36588,0.16051 1.01492,0.5712 1.22858,0.7762 0.0117,0.007 1.5494,0.1111 0.0132,-0.0975 0.12051,-0.47999 0.13828,-0.004 0.0259,-5e-4 1.26879,0.1772 1.24021,0.3658 0.2818,0.2001 0.08,0.1323 0.654,1.296 0.8478,-0.4346 1.66019,1.56101 1.88141,0.31829 2.34338,-1.77751 0.0624,-0.0638 0.1019,-0.14321 0.9718,-1.39248 0.0579,-0.13561 -0.17718,-0.17821 -0.20981,-0.63989 -0.28671,-3.2599 0.003,-0.0162 0.009,-0.0535 10e-4,-0.008 0.1723,-0.3417 1.8775,-2.808 0.194,0.0285 0.22128,0.0793 0.24402,0.13629 0.26081,0.25202 0.22677,-0.59691 0.075,-0.2069 1.38959,-4.3851 -0.0294,-0.1399 -0.45169,-0.5066 -0.1178,-0.1051 -0.41601,-0.71451 -0.578,-1.07719 -0.0662,-0.1582 -0.1347,-0.40329 -0.078,-0.39331 -0.0249,-0.2354 -0.0188,-0.2179 -0.005,-0.709 0.0227,-0.93229 0.0793,-0.91791 0.0546,-0.0835 1.2945,-1.3188 0.7178,-1.8009 0.39871,-2.0539 0.0222,-0.19079 0.20871,-0.91481 0.64639,-0.2475 z" id="path597" style="stroke-width:0.075;stroke-miterlimit:4;stroke-dasharray:none"/>
  </g>
  <g id="PITEGLIO" style="stroke-width:0.5;stroke-miterlimit:4;stroke-dasharray:none;stroke:#000000;stroke-opacity:1;stroke-linejoin:round;fill:#f8c300;fill-opacity:1;fill-rule:evenodd" transform="matrix(80,0,0,80,-18305.576,-9237.088)">
    <path d="m 261.0242,150.0089 -0.30551,-0.6547 -1.74808,-1.54471 -0.11612,-0.1026 -1.59179,-2.3434 -2.2692,-1.76869 -1.4066,-1.476 0.0722,-0.1941 0.1144,-0.3216 0.0429,-0.1262 0.006,-0.0184 0.0482,-0.30339 0.0279,-0.27341 0.04,-0.4297 -0.0175,-0.8158 -0.007,-0.1741 -0.1624,-1.2435 -0.39949,-1.07331 -1.42939,-0.85879 -2.26571,-1.5676 -0.6147,-0.4956 -0.0691,-0.0536 -0.0824,-0.0474 -0.1351,-0.0441 -0.1638,-0.0361 -0.1792,-0.032 -0.38311,-0.0406 -0.1026,0.0761 -0.14209,0.0775 -0.2136,0.0391 -0.6521,0.019 -0.2436,0.001 -0.3377,-0.0114 -0.21849,-0.0437 0.13279,1.19442 0.35289,3.44069 -0.0168,0.1715 -0.0453,0.1751 -0.0605,0.164 -0.0951,0.24159 -0.605,1.44222 -0.1105,0.24559 -0.1156,0.1781 -0.0734,0.2572 -0.0396,0.2188 -0.004,0.1826 0.0258,0.44411 0.0637,1.08299 0.44229,0.5039 0.62649,0.5458 0.12812,0.0613 0.89759,0.16659 0.9545,2.75099 0.1386,0.38991 0.0425,0.064 0.0791,0.0951 0.0569,-0.0988 0.1103,-0.1369 0.1207,-0.115 0.16929,-0.003 0.11991,0.11621 0.3203,0.84619 0.2254,0.60051 0.0172,0.0857 -0.11181,1.802 -0.54049,2.9897 -0.0738,0.11029 -0.55141,0.58641 -0.10249,0.0805 -0.14872,-0.0279 -0.13369,-0.0278 -0.0906,-0.0586 -0.0872,0.004 -0.069,0.1619 -0.6965,3.3081 0.0614,0.3633 0.15269,0.4935 0.41681,0.9024 0.4516,0.45191 0.003,0.003 0.1123,0.10601 0.3162,0.22938 1.2026,-1.5513 0.10159,-0.1187 0.26481,-0.22149 2.79811,-0.44969 3.60019,2.5446 0.008,0.004 0.21939,0.1097 0.23062,0.0582 0.1561,0.005 1.59848,-2.20588 0.62082,-1.54612 -0.009,-0.11569 -0.0162,-0.0926 -0.5227,-0.56771 -0.1608,-0.16958 -0.23032,-0.20261 -0.34918,-0.32429 -0.0717,-0.15252 0.0212,-2.06529 0.003,-0.0108 0.05,-0.0589 0.0805,-0.0348 0.5517,-0.14599 1.1239,0.1113 0.005,0.002 0.1854,0.0645 1.08679,0.61959 0.12219,0.1875 0.14942,-0.45729 0.44409,-1.5494 -0.0177,-0.1603 -0.65,-0.9727 -0.4584,-1.4416 z" id="path600" style="stroke-width:0.075;stroke-miterlimit:4;stroke-dasharray:none"/>
  </g>
  <g id="PONTE_BUGGIANESE" style="stroke-width:0.5;stroke-miterlimit:4;stroke-dasharray:none;stroke:#000000;stroke-opacity:1;stroke-linejoin:round;fill:#f8c300;fill-opacity:1;fill-rule:evenodd" transform="matrix(80,0,0,80,-18305.576,-9237.088)">
    <path d="m 248.5621,199.5388 1.06971,0.6465 4.26939,2.06681 0.0365,0.0146 0.0179,0.007 0.1015,0.0402 0.4378,0.155 2.91431,0.35159 0.1445,-0.0187 1.0596,-0.5251 1.11749,-0.5695 2.78779,-1.33969 -1.133,-2.21012 -0.36249,-0.308 -0.1423,-0.18359 -0.6211,-1.166 -0.79431,-1.4415 -0.2344,-0.37469 -0.0823,0.0678 -0.974,0.2769 -0.19342,0.0523 -0.11969,-0.0221 -0.10711,-0.0958 -0.0994,-0.15441 -0.0415,-0.1055 -0.87989,-2.0431 -1.8396,-2.65309 -0.7935,-0.6084 -1.7634,-1.04421 -0.35681,-0.1837 -1.74099,-0.0562 -1.26999,0.0995 -0.21592,0.0127 -0.0292,0.002 -0.2967,-0.0301 -0.3553,-0.0466 -0.4119,-0.0586 -0.31799,-0.0566 -0.2453,-0.0812 -0.17771,-0.0733 -0.1228,-0.0667 -0.0263,-0.0147 0.40171,1.4805 1.43989,5.92509 -0.0543,0.0881 -0.2485,0.59491 -0.3297,1.0282 0.003,0.14579 0.0491,0.262 0.2968,1.3652 0.0578,0.26 0.0401,0.1705 0.0512,0.16411 0.0492,0.15109 0.035,0.1029 z" id="path626" style="stroke-width:0.075;stroke-miterlimit:4;stroke-dasharray:none"/>
  </g>
  <g id="QUARRATA" style="stroke-width:0.5;stroke-miterlimit:4;stroke-dasharray:none;stroke:#000000;stroke-opacity:1;stroke-linejoin:round;fill:#f8c300;fill-opacity:1;fill-rule:evenodd" transform="matrix(80,0,0,80,-18305.576,-9237.088)">
    <path d="m 279.94971,191.0845 3.46508,2.55921 0.0834,0.0759 0.0744,0.0887 0.0586,0.1101 0.21011,0.5442 0.0424,0.3315 0.15851,0.7865 0.0413,0.1945 0.1799,0.3391 0.18261,0.3152 0.18128,0.2782 0.0827,0.1085 0.19141,0.1284 0.43701,0.2755 0.45438,0.276 0.11462,0.0483 0.8764,0.25979 1.34208,1.06452 0.471,0.58738 0.1269,-0.19268 0.37811,-0.37601 0.19,-0.089 0.0617,-0.0246 0.68878,0.1533 2.1113,-1.32181 0.0157,-0.089 0.0122,-0.0691 0.0146,-0.1305 0.0132,-0.11669 0.008,-0.16291 -0.0581,-0.22101 -0.0108,-0.0411 -0.0452,-0.1712 -0.002,-0.1958 0.028,-0.1646 0.724,-0.4871 0.16601,-0.0874 1.78428,-0.7791 0.15152,-0.0333 0.393,0.0138 2.2254,-1.02699 0.5517,-0.6694 0.2471,-0.2908 0.20709,-0.22651 0.0718,-0.0787 0.2479,0.0495 0.3739,0.0809 0.44488,0.12609 0.25351,0.0888 0.25159,0.1649 -1.01059,-1.3794 -0.002,-0.0113 -0.021,-0.12191 -0.1185,-0.77919 0.002,-0.1783 0.0284,-0.1754 0.18051,-0.85231 0.15478,-0.69429 -0.11679,-0.316 -1.4476,-2.38579 -0.34359,-0.34101 -0.35282,-0.23471 -1.4379,-0.47619 -0.13159,-0.0749 -0.28149,-0.20041 -0.13461,-0.12709 -1.55109,-1.95092 -1.3468,-1.72608 -0.39762,-0.74671 -0.0579,0.13561 -0.9718,1.39248 -0.1019,0.14321 -0.0624,0.0638 -2.34338,1.77751 -1.88141,-0.31829 -1.66019,-1.56101 -0.8478,0.4346 -0.79102,1.55159 -0.0211,0.0441 -0.019,0.0409 -0.0665,0.1691 -0.16989,0.531 -0.11539,0.5387 -0.2098,1.0215 -0.36411,1.07449 -0.22031,0.53852 -0.4053,0.69079 -0.96259,1.6303 -0.38131,0.60231 -0.1789,0.1763 -0.11358,0.0909 z" id="path657" style="stroke-width:0.075;stroke-miterlimit:4;stroke-dasharray:none"/>
  </g>
  <g id="SAMBUCA_PISTOIESE" style="stroke-width:0.5;stroke-miterlimit:4;stroke-dasharray:none;stroke:#000000;stroke-opacity:1;stroke-linejoin:round;fill:#f8c300;fill-opacity:1;fill-rule:evenodd" transform="matrix(80,0,0,80,-18305.576,-9237.088)">
    <path d="m 296.95639,152.8439 0.8999,-0.4153 1.07532,-0.9458 1.06979,-1.3395 0.83829,-1.5429 0.40082,-0.7751 0.37118,-0.82161 0.38251,-1.09739 -0.009,-0.0632 -0.0595,-0.0733 -0.0776,-0.0562 -0.0884,-0.0587 -0.0704,-0.0757 -0.18591,-0.28509 -0.0759,-0.1192 -0.2041,-0.3443 -0.0261,-0.0963 -0.002,-0.1131 0.0246,-0.1059 0.0398,-0.10121 1.01041,-1.91699 0.13168,-0.0903 0.12421,-0.0578 0.43659,-0.79601 0.0258,-0.0646 0.56479,-1.5321 0.83982,-3.2753 -0.9874,-2.38181 0.002,-1.12629 0.17801,-0.8001 -0.40372,-1.1363 -0.87887,-0.2217 -1.01282,-0.1336 -0.73489,0.097 -0.12461,0.0451 -0.26358,0.009 -0.15341,-0.006 -0.1354,-0.0294 -0.11521,-0.0441 -0.64819,-0.32241 -1.9848,-1.4832 -0.2157,-0.1893 -1.65961,-1.5724 -0.0344,-0.1068 -0.0366,-0.1204 0.46499,-1.4109 0.3367,-0.9268 0.19819,-0.0213 0.17611,-0.0197 0.19049,-0.0672 0.45032,-0.1869 0.14429,-0.0618 0.1333,-0.0641 0.11899,-0.1059 0.0589,-0.0725 0.0352,-0.0926 0.0335,-0.2014 0.0146,-0.2345 0.0577,-1.6207 -0.1399,-1.0058 -0.0218,-0.0545 -0.021,-0.0493 -0.3392,-0.1664 -0.9527,-0.0897 -2.51999,0.7344 -0.0562,0.053 -0.004,0.0753 -4e-4,0.007 0.0197,0.0939 0.0656,0.0994 0.002,0.002 0.0643,0.0731 0.002,0.002 0.0727,0.0843 0.1146,0.1594 0.0735,0.1387 0.0431,0.1228 0.0175,0.0918 -0.003,0.1325 -0.009,0.0397 -0.0152,0.0641 -0.0483,0.0924 -0.0882,0.1022 -0.1008,0.0824 -0.92701,0.554 -0.6813,0.3816 -0.31101,0.1491 -0.50848,0.3228 -0.21991,0.2883 -0.97049,1.3576 -0.4617,1.3024 0.0317,0.0541 0.0252,0.043 0.009,0.0871 -0.13361,0.8079 -0.0422,0.1099 -3.0852,4.37559 -1.2862,1.64891 -0.10351,0.10849 -0.12039,0.0798 -0.1445,0.0793 -0.7548,0.3715 -0.1199,0.0526 -0.0686,0.03 -0.31269,0.0811 -0.21911,0.05 -0.13089,0.0579 -1.04431,0.4628 -0.11701,0.12342 -0.513,1.10359 -0.63998,1.3725 -0.12131,0.2146 -0.1431,0.20761 -0.0991,0.11299 -0.0935,0.0565 0.13308,0.2184 0.11362,0.1846 0.18949,0.1703 0.5556,0.34121 0.6597,0.20659 0.1766,0.0476 0.21659,0.0224 0.20892,-0.0234 0.23959,-0.1162 0.18781,-0.14999 0.1882,-0.0728 0.0132,-0.005 0.46982,-0.0173 0.21487,7e-4 1.02662,0.0892 0.3937,0.1375 3.70829,1.75301 0.6564,0.33519 0.78491,0.7229 0.10709,0.1158 1.9284,4.38771 0.009,0.0813 -0.0135,0.46499 -0.14239,0.8969 -0.1452,1.0264 0.6896,0.91729 0.6796,0.76941 1.04861,0.7139 0.75958,0.3923 0.19699,0.0961 0.30131,0.1399 0.11102,0.0266 0.39609,0.0226 0.1315,-0.003 0.31689,-0.0532 z" id="path699" style="stroke-width:0.075;stroke-miterlimit:4;stroke-dasharray:none"/>
  </g>
  <g id="SAN_MARCELLO_PISTOIESE" style="stroke-width:0.5;stroke-miterlimit:4;stroke-dasharray:none;stroke:#000000;stroke-opacity:1;stroke-linejoin:round;fill:#f8c300;fill-opacity:1;fill-rule:evenodd" transform="matrix(80,0,0,80,-18305.576,-9237.088)">
    <path d="m 261.0242,150.0089 0.0374,-0.1036 0.1413,-0.147 0.50598,-0.4991 0.0803,-0.0561 1.43737,-0.79319 0.94382,-0.35331 0.15668,-0.0422 0.1109,-0.0273 0.36261,-0.0694 0.125,0.0347 0.90939,0.34311 0.74512,0.5493 0.11828,0.2087 0.0668,0.18429 0.0709,0.12101 0.55051,0.37181 0.023,-0.005 0.0409,-0.0101 1.73019,-1.29229 0.13862,-0.12081 0.22079,-0.26039 0.11319,-0.1584 0.11591,-0.1822 0.0605,-0.1531 0.0398,-0.20781 0.0475,-0.16198 0.25211,-0.388 0.0163,-0.0148 0.1427,-0.12951 0.17841,-0.13301 0.23859,-0.16989 0.47372,-0.3134 0.30689,-0.2012 0.98169,-0.2308 0.88891,-0.2015 0.22669,-0.0733 0.3609,-0.12441 0.2211,-0.0787 0.008,-0.003 0.0566,-0.0286 0.0563,-0.0284 1.17148,-1.07579 0.0194,-0.0192 0.0351,-0.0503 0.0156,-0.0224 0.0535,-0.2408 -0.0137,-0.114 -0.0856,-0.27591 -0.0359,-0.10319 -0.21658,-0.39189 -1.59311,-2.84722 -1.21411,-1.25338 -0.83069,-1.35032 0.21021,-0.0931 0.15039,-0.0771 1.99582,-1.20169 0.20977,-0.9012 -0.0502,-0.10341 -0.43671,-0.468 -2.83047,-2.9386 -1.15051,-1.2925 -0.14551,0.0721 -0.0198,0.009 -0.13382,0.0429 -0.19378,0.0305 -0.9195,0.0926 -0.0535,-0.0621 -0.28879,-0.62179 -0.0999,-0.23922 -0.0341,-0.14428 -0.55349,-1.72791 -2.09809,-1.6817 -0.0974,-0.055 -0.0938,-0.036 -1.2558,0.5899 -1.33569,-0.267 -1.55069,-0.5506 -0.17621,-0.0734 -0.19101,-0.0976 -0.13428,-0.1104 -2.11492,-2.1432 -1.33588,-0.3822 -0.38712,0.9518 -1.24029,2.3045 -0.1657,0.2487 -0.1364,0.2123 -0.2913,0.4765 -0.5558,1.46679 -0.0172,0.0627 -0.0697,0.3703 -0.0459,0.29261 -0.21359,1.75669 -2.41442,2.06031 -0.69949,0.5267 -0.36951,0.3053 -0.55648,0.4732 -0.0637,0.2074 -0.0201,0.1192 2.26571,1.5676 1.42939,0.85879 0.39949,1.07331 0.1624,1.2435 0.007,0.1741 0.0175,0.8158 -0.04,0.4297 -0.0279,0.27341 -0.0482,0.30339 -0.006,0.0184 -0.0429,0.1262 -0.1144,0.3216 -0.0722,0.1941 1.4066,1.476 2.2692,1.76869 1.59179,2.3434 0.11612,0.1026 1.74808,1.54471 0.30551,0.6547 z" id="path723" style="stroke-width:0.075;stroke-miterlimit:4;stroke-dasharray:none"/>
  </g>
  <g id="SERRAVALLE_PISTOIESE" style="stroke-width:1;stroke-miterlimit:4;stroke-dasharray:none;stroke:#000000;stroke-opacity:1;stroke-linejoin:round;fill:#da271d;fill-opacity:1;fill-rule:evenodd" transform="matrix(80,0,0,80,-18305.576,-9237.088)">
    <path d="m 283.96851,182.384 -0.654,-1.296 -0.08,-0.1323 -0.2818,-0.2001 -1.24021,-0.3658 -1.26879,-0.1772 -0.0259,5e-4 -0.13828,0.004 -0.12051,0.47999 -0.0132,0.0975 -1.5494,-0.1111 -0.0117,-0.007 -1.22858,-0.7762 -1.01492,-0.5712 -0.36588,-0.16051 -0.0811,0.007 -0.2414,0.0359 -0.40649,0.0777 -0.1019,0.0564 -0.12512,0.11461 0.0459,0.19239 0.0618,0.2623 0.016,0.15911 -0.0298,0.15368 -0.0653,0.0812 -2.4143,-0.6831 -0.84272,-0.6496 -0.0973,-0.2413 -0.0675,-0.30159 -0.289,-2.10491 -1.13681,-1.4846 -1.6229,-0.806 -1.6354,-2.687 -0.21479,0.0105 -1.36459,-0.23891 -0.99112,-0.21319 -2.6557,1.5314 0.11102,0.4243 -0.0315,1.8237 -0.2959,0.3219 -0.1261,0.1604 -0.18179,0.50481 -0.0392,0.39059 0.003,0.16969 0.12341,0.45711 1.1641,0.2842 -0.004,0.0148 -0.0149,0.0543 -0.31069,0.8935 -0.38602,1.13749 -0.026,0.0886 0.32751,1.0161 0.0772,0.1691 0.0739,0.11909 0.17081,0.19071 0.0191,0.0208 0.077,0.0835 0.13318,0.10949 0.70801,0.515 1.091,0.018 0.65549,-0.0704 0.2406,-0.10121 1.29901,0.19831 0.33221,0.0807 0.65079,0.16721 0.582,0.47169 1.42249,1.3125 0.0844,0.0878 0.18259,0.19 0.1564,0.2405 0.2615,0.61911 0.0791,0.27349 0.23641,0.1836 1.54499,1.0894 0.009,0.001 0.12601,0.0191 0.26761,0.0582 0.27359,0.0823 1.40429,0.53839 0.0331,0.18122 -0.35312,1.22049 0.21011,1.9685 0.5275,-0.3186 0.29681,-0.1694 0.25208,-0.12909 0.22082,-0.0972 0.26709,-0.0178 1.12851,0.16271 0.23688,0.0554 1.2485,0.7353 0.0978,0.1414 0.0291,0.042 0.0249,0.24839 0.008,0.30901 1.5343,-0.0974 0.11358,-0.0909 0.1789,-0.1763 0.38131,-0.60231 0.96259,-1.6303 0.4053,-0.69079 0.22031,-0.53852 0.36411,-1.07449 0.2098,-1.0215 0.11539,-0.5387 0.16989,-0.531 0.0665,-0.1691 0.019,-0.0409 0.0211,-0.0441 0.79102,-1.55159 z" id="path785" style="stroke-width:0.075;stroke-miterlimit:4;stroke-dasharray:none"/>
  </g>
  <g id="UZZANO" style="fill:#f8c300;fill-opacity:1;stroke:#000000;stroke-width:0.075;stroke-linejoin:round;stroke-miterlimit:4;stroke-opacity:1;stroke-dasharray:none" transform="matrix(80,0,0,80,-18305.576,-9237.088)">
    <path d="m 246.77029,187.8004 -0.2426,-0.21381 -0.0489,-0.064 -0.0292,-0.0659 -1.6683,-3.86161 0.78199,-2.15829 0.24121,-0.7583 0.0282,-0.0973 -0.0173,-0.11341 -0.1649,-0.8993 -0.30941,-0.6805 -0.27468,-0.7798 -0.0404,-0.15739 0.1682,-1.76661 0.2395,-1.30619 -0.0175,-0.1026 -0.16409,-0.4209 -0.5728,0.18818 -1.58532,1.00681 -0.0826,0.0766 -1.13111,2.53619 -0.0995,0.26331 -0.53951,2.18741 -0.1645,1.93409 0.01,0.1763 0.0671,0.245 2.5702,2.9077 0.73641,1.17419 2.31028,0.75011 z" id="path845" style="stroke-width:0.075;stroke-miterlimit:4;stroke-dasharray:none"/>
  </g>
</svg>
