<?xml version="1.0" encoding="utf-8"?>
<!-- Generator: Adobe Illustrator 17.1.0, SVG Export Plug-In . SVG Version: 6.00 Build 0)  -->
<!DOCTYPE svg PUBLIC "-//W3C//DTD SVG 1.1//EN" "http://www.w3.org/Graphics/SVG/1.1/DTD/svg11.dtd">
<svg version="1.1" id="Ebene_1" xmlns="http://www.w3.org/2000/svg" xmlns:xlink="http://www.w3.org/1999/xlink" x="0px" y="0px"
	 width="384.2px" height="202.2px" viewBox="0 0 384.2 202.2" style="enable-background:new 0 0 384.2 202.2;" xml:space="preserve"
	>
<style type="text/css">
	.st0{fill:#2B93D1;}
</style>
<g>
	<circle class="st0" cx="101.1" cy="3.1" r="3.1"/>
	<circle class="st0" cx="101.1" cy="17.1" r="3.1"/>
	<circle class="st0" cx="101.1" cy="31.1" r="3.1"/>
	<circle class="st0" cx="101.1" cy="45.1" r="3.1"/>
	<circle class="st0" cx="101.1" cy="59.1" r="3.1"/>
	<circle class="st0" cx="101.1" cy="73.1" r="3.1"/>
	<circle class="st0" cx="101.1" cy="87.1" r="3.1"/>
	<circle class="st0" cx="101.1" cy="115.1" r="3.1"/>
	<circle class="st0" cx="101.1" cy="129.1" r="3.1"/>
	<circle class="st0" cx="101.1" cy="143.1" r="3.1"/>
	<circle class="st0" cx="101.1" cy="157.1" r="3.1"/>
	<circle class="st0" cx="87.1" cy="17.1" r="3.1"/>
	<circle class="st0" cx="87.1" cy="31.1" r="3.1"/>
	<circle class="st0" cx="87.1" cy="45.1" r="3.1"/>
	<circle class="st0" cx="87.1" cy="73.1" r="3.1"/>
	<circle class="st0" cx="87.1" cy="87.1" r="3.1"/>
	<circle class="st0" cx="87.1" cy="101.1" r="3.1"/>
	<circle class="st0" cx="87.1" cy="115.1" r="3.1"/>
	<circle class="st0" cx="73.1" cy="17.1" r="3.1"/>
	<circle class="st0" cx="73.1" cy="31.1" r="3.1"/>
	<circle class="st0" cx="73.1" cy="45.1" r="3.1"/>
	<circle class="st0" cx="73.1" cy="59.1" r="3.1"/>
	<circle class="st0" cx="73.1" cy="73.1" r="3.1"/>
	<circle class="st0" cx="73.1" cy="87.1" r="3.1"/>
	<circle class="st0" cx="73.1" cy="101.1" r="3.1"/>
	<circle class="st0" cx="73.1" cy="115.1" r="3.1"/>
	<circle class="st0" cx="59.1" cy="17.1" r="3.1"/>
	<circle class="st0" cx="59.1" cy="31.1" r="3.1"/>
	<circle class="st0" cx="59.1" cy="45.1" r="3.1"/>
	<circle class="st0" cx="59.1" cy="59.1" r="3.1"/>
	<circle class="st0" cx="59.1" cy="73.1" r="3.1"/>
	<circle class="st0" cx="59.1" cy="87.1" r="3.1"/>
	<circle class="st0" cx="59.1" cy="101.1" r="3.1"/>
	<circle class="st0" cx="45.1" cy="31.1" r="3.1"/>
	<circle class="st0" cx="45.1" cy="45.1" r="3.1"/>
	<circle class="st0" cx="45.1" cy="59.1" r="3.1"/>
	<circle class="st0" cx="45.1" cy="73.1" r="3.1"/>
	<circle class="st0" cx="45.1" cy="87.1" r="3.1"/>
	<circle class="st0" cx="31.1" cy="31.1" r="3.1"/>
	<circle class="st0" cx="31.1" cy="45.1" r="3.1"/>
	<circle class="st0" cx="31.1" cy="59.1" r="3.1"/>
	<circle class="st0" cx="17.1" cy="31.1" r="3.1"/>
	<circle class="st0" cx="17.1" cy="45.1" r="3.1"/>
	<circle class="st0" cx="17.1" cy="59.1" r="3.1"/>
	<circle class="st0" cx="3.1" cy="45.1" r="3.1"/>
	<circle class="st0" cx="3.1" cy="59.1" r="3.1"/>
	<circle class="st0" cx="115.1" cy="17.1" r="3.1"/>
	<circle class="st0" cx="115.1" cy="31.1" r="3.1"/>
	<circle class="st0" cx="115.1" cy="45.1" r="3.1"/>
	<circle class="st0" cx="115.1" cy="115.1" r="3.1"/>
	<circle class="st0" cx="115.1" cy="129.1" r="3.1"/>
	<circle class="st0" cx="115.1" cy="143.1" r="3.1"/>
	<circle class="st0" cx="115.1" cy="157.1" r="3.1"/>
	<circle class="st0" cx="115.1" cy="171.1" r="3.1"/>
	<circle class="st0" cx="115.1" cy="185.1" r="3.1"/>
	<circle class="st0" cx="129.1" cy="3.1" r="3.1"/>
	<circle class="st0" cx="129.1" cy="17.1" r="3.1"/>
	<circle class="st0" cx="129.1" cy="31.1" r="3.1"/>
	<circle class="st0" cx="129.1" cy="45.1" r="3.1"/>
	<circle class="st0" cx="129.1" cy="129.1" r="3.1"/>
	<circle class="st0" cx="129.1" cy="143.1" r="3.1"/>
	<circle class="st0" cx="129.1" cy="157.1" r="3.1"/>
	<circle class="st0" cx="129.1" cy="171.1" r="3.1"/>
	<circle class="st0" cx="129.1" cy="185.1" r="3.1"/>
	<circle class="st0" cx="143.1" cy="3.1" r="3.1"/>
	<circle class="st0" cx="143.1" cy="17.1" r="3.1"/>
	<circle class="st0" cx="143.1" cy="31.1" r="3.1"/>
	<circle class="st0" cx="143.1" cy="143.1" r="3.1"/>
	<circle class="st0" cx="143.1" cy="157.1" r="3.1"/>
	<circle class="st0" cx="157.1" cy="3.1" r="3.1"/>
	<circle class="st0" cx="157.1" cy="17.1" r="3.1"/>
	<circle class="st0" cx="157.1" cy="31.1" r="3.1"/>
	<circle class="st0" cx="171.1" cy="73.1" r="3.1"/>
	<circle class="st0" cx="171.1" cy="101.1" r="3.1"/>
	<circle class="st0" cx="171.1" cy="115.1" r="3.1"/>
	<circle class="st0" cx="171.1" cy="129.1" r="3.1"/>
	<circle class="st0" cx="185.1" cy="45.1" r="3.1"/>
	<circle class="st0" cx="185.1" cy="59.1" r="3.1"/>
	<circle class="st0" cx="185.1" cy="87.1" r="3.1"/>
	<circle class="st0" cx="185.1" cy="101.1" r="3.1"/>
	<circle class="st0" cx="185.1" cy="115.1" r="3.1"/>
	<circle class="st0" cx="185.1" cy="129.1" r="3.1"/>
	<circle class="st0" cx="185.1" cy="143.1" r="3.1"/>
	<circle class="st0" cx="185.1" cy="157.1" r="3.1"/>
	<circle class="st0" cx="199.1" cy="31.1" r="3.1"/>
	<circle class="st0" cx="199.1" cy="45.1" r="3.1"/>
	<circle class="st0" cx="199.1" cy="59.1" r="3.1"/>
	<circle class="st0" cx="199.1" cy="101.1" r="3.1"/>
	<circle class="st0" cx="199.1" cy="115.1" r="3.1"/>
	<circle class="st0" cx="199.1" cy="129.1" r="3.1"/>
	<circle class="st0" cx="199.1" cy="143.1" r="3.1"/>
	<circle class="st0" cx="199.1" cy="157.1" r="3.1"/>
	<circle class="st0" cx="199.1" cy="171.1" r="3.1"/>
	<circle class="st0" cx="199.1" cy="185.1" r="3.1"/>
	<circle class="st0" cx="213.1" cy="31.1" r="3.1"/>
	<circle class="st0" cx="213.1" cy="45.1" r="3.1"/>
	<circle class="st0" cx="213.1" cy="59.1" r="3.1"/>
	<circle class="st0" cx="213.1" cy="73.1" r="3.1"/>
	<circle class="st0" cx="213.1" cy="87.1" r="3.1"/>
	<circle class="st0" cx="213.1" cy="101.1" r="3.1"/>
	<circle class="st0" cx="213.1" cy="115.1" r="3.1"/>
	<circle class="st0" cx="213.1" cy="129.1" r="3.1"/>
	<circle class="st0" cx="213.1" cy="143.1" r="3.1"/>
	<circle class="st0" cx="213.1" cy="157.1" r="3.1"/>
	<circle class="st0" cx="227.1" cy="45.1" r="3.1"/>
	<circle class="st0" cx="227.1" cy="59.1" r="3.1"/>
	<circle class="st0" cx="227.1" cy="73.1" r="3.1"/>
	<circle class="st0" cx="227.1" cy="87.1" r="3.1"/>
	<circle class="st0" cx="227.1" cy="101.1" r="3.1"/>
	<circle class="st0" cx="227.1" cy="115.1" r="3.1"/>
	<circle class="st0" cx="241.1" cy="31.1" r="3.1"/>
	<circle class="st0" cx="241.1" cy="45.1" r="3.1"/>
	<circle class="st0" cx="241.1" cy="59.1" r="3.1"/>
	<circle class="st0" cx="241.1" cy="73.1" r="3.1"/>
	<circle class="st0" cx="241.1" cy="87.1" r="3.1"/>
	<circle class="st0" cx="241.1" cy="101.1" r="3.1"/>
	<circle class="st0" cx="255.1" cy="31.1" r="3.1"/>
	<circle class="st0" cx="255.1" cy="45.1" r="3.1"/>
	<circle class="st0" cx="255.1" cy="59.1" r="3.1"/>
	<circle class="st0" cx="255.1" cy="73.1" r="3.1"/>
	<circle class="st0" cx="255.1" cy="87.1" r="3.1"/>
	<circle class="st0" cx="255.1" cy="101.1" r="3.1"/>
	<circle class="st0" cx="255.1" cy="115.1" r="3.1"/>
	<circle class="st0" cx="269.1" cy="31.1" r="3.1"/>
	<circle class="st0" cx="269.1" cy="45.1" r="3.1"/>
	<circle class="st0" cx="269.1" cy="59.1" r="3.1"/>
	<circle class="st0" cx="269.1" cy="73.1" r="3.1"/>
	<circle class="st0" cx="269.1" cy="87.1" r="3.1"/>
	<circle class="st0" cx="269.1" cy="101.1" r="3.1"/>
	<circle class="st0" cx="269.1" cy="115.1" r="3.1"/>
	<circle class="st0" cx="269.1" cy="129.1" r="3.1"/>
	<circle class="st0" cx="283.1" cy="31.1" r="3.1"/>
	<circle class="st0" cx="283.1" cy="45.1" r="3.1"/>
	<circle class="st0" cx="283.1" cy="59.1" r="3.1"/>
	<circle class="st0" cx="283.1" cy="73.1" r="3.1"/>
	<circle class="st0" cx="283.1" cy="87.1" r="3.1"/>
	<circle class="st0" cx="283.1" cy="101.1" r="3.1"/>
	<circle class="st0" cx="283.1" cy="115.1" r="3.1"/>
	<circle class="st0" cx="297.1" cy="17.1" r="3.1"/>
	<circle class="st0" cx="297.1" cy="31.1" r="3.1"/>
	<circle class="st0" cx="297.1" cy="45.1" r="3.1"/>
	<circle class="st0" cx="297.1" cy="59.1" r="3.1"/>
	<circle class="st0" cx="297.1" cy="73.1" r="3.1"/>
	<circle class="st0" cx="297.1" cy="87.1" r="3.1"/>
	<circle class="st0" cx="297.1" cy="101.1" r="3.1"/>
	<circle class="st0" cx="297.1" cy="115.1" r="3.1"/>
	<circle class="st0" cx="297.1" cy="129.1" r="3.1"/>
	<circle class="st0" cx="311.1" cy="31.1" r="3.1"/>
	<circle class="st0" cx="311.1" cy="45.1" r="3.1"/>
	<circle class="st0" cx="311.1" cy="59.1" r="3.1"/>
	<circle class="st0" cx="311.1" cy="73.1" r="3.1"/>
	<circle class="st0" cx="311.1" cy="87.1" r="3.1"/>
	<circle class="st0" cx="311.1" cy="101.1" r="3.1"/>
	<circle class="st0" cx="311.1" cy="115.1" r="3.1"/>
	<circle class="st0" cx="311.1" cy="129.1" r="3.1"/>
	<circle class="st0" cx="311.1" cy="143.1" r="3.1"/>
	<circle class="st0" cx="311.1" cy="171.1" r="3.1"/>
	<circle class="st0" cx="325.1" cy="31.1" r="3.1"/>
	<circle class="st0" cx="325.1" cy="45.1" r="3.1"/>
	<circle class="st0" cx="325.1" cy="59.1" r="3.1"/>
	<circle class="st0" cx="325.1" cy="73.1" r="3.1"/>
	<circle class="st0" cx="325.1" cy="87.1" r="3.1"/>
	<circle class="st0" cx="325.1" cy="101.1" r="3.1"/>
	<circle class="st0" cx="325.1" cy="157.1" r="3.1"/>
	<circle class="st0" cx="325.1" cy="171.1" r="3.1"/>
	<circle class="st0" cx="339.1" cy="17.1" r="3.1"/>
	<circle class="st0" cx="339.1" cy="31.1" r="3.1"/>
	<circle class="st0" cx="339.1" cy="45.1" r="3.1"/>
	<circle class="st0" cx="339.1" cy="59.1" r="3.1"/>
	<circle class="st0" cx="339.1" cy="73.1" r="3.1"/>
	<circle class="st0" cx="339.1" cy="87.1" r="3.1"/>
	<circle class="st0" cx="339.1" cy="101.1" r="3.1"/>
	<circle class="st0" cx="339.1" cy="115.1" r="3.1"/>
	<circle class="st0" cx="339.1" cy="129.1" r="3.1"/>
	<circle class="st0" cx="339.1" cy="143.1" r="3.1"/>
	<circle class="st0" cx="339.1" cy="157.1" r="3.1"/>
	<circle class="st0" cx="339.1" cy="171.1" r="3.1"/>
	<circle class="st0" cx="339.1" cy="185.1" r="3.1"/>
	<circle class="st0" cx="353.1" cy="31.1" r="3.1"/>
	<circle class="st0" cx="353.1" cy="45.1" r="3.1"/>
	<circle class="st0" cx="353.1" cy="157.1" r="3.1"/>
	<circle class="st0" cx="353.1" cy="171.1" r="3.1"/>
	<circle class="st0" cx="353.1" cy="185.1" r="3.1"/>
	<circle class="st0" cx="367.1" cy="31.1" r="3.1"/>
	<circle class="st0" cx="367.1" cy="45.1" r="3.1"/>
	<circle class="st0" cx="367.1" cy="59.1" r="3.1"/>
	<circle class="st0" cx="367.1" cy="199.1" r="3.1"/>
	<circle class="st0" cx="381.1" cy="31.1" r="3.1"/>
	<circle class="st0" cx="381.1" cy="185.1" r="3.1"/>
	<circle class="st0" cx="227.1" cy="143.1" r="3.1"/>
	<circle class="st0" cx="199.1" cy="87.1" r="3.1"/>
	<circle class="st0" cx="185.1" cy="73.1" r="3.1"/>
	<circle class="st0" cx="199.1" cy="73.1" r="3.1"/>
	<circle class="st0" cx="367.1" cy="87.1" r="3.1"/>
	<circle class="st0" cx="17.1" cy="73.1" r="3.1"/>
	<circle class="st0" cx="87.1" cy="59.1" r="3.1"/>
	<circle class="st0" cx="325.1" cy="185.1" r="3.1"/>
	<circle class="st0" cx="353.1" cy="199.1" r="3.1"/>
	<circle class="st0" cx="325.1" cy="143.1" r="3.1"/>
	<circle class="st0" cx="269.1" cy="17.1" r="3.1"/>
	<circle class="st0" cx="283.1" cy="17.1" r="3.1"/>
	<circle class="st0" cx="255.1" cy="17.1" r="3.1"/>
	<circle class="st0" cx="115.1" cy="199.1" r="3.1"/>
</g>
</svg>
