<?xml version="1.0" encoding="utf-8"?>
<!-- Generator: Adobe Illustrator 17.1.0, SVG Export Plug-In . SVG Version: 6.00 Build 0)  -->
<!DOCTYPE svg PUBLIC "-//W3C//DTD SVG 1.1//EN" "http://www.w3.org/Graphics/SVG/1.1/DTD/svg11.dtd">
<svg version="1.1" id="Layer_1" xmlns="http://www.w3.org/2000/svg" xmlns:xlink="http://www.w3.org/1999/xlink" x="0px" y="0px"
	 viewBox="0 0 117.1 124.1" enable-background="new 0 0 117.1 124.1" xml:space="preserve">
<path fill="#7AD2F6" d="M58.4,0L0,20.5L9.2,97l49.2,27l49.5-27.4l9.2-76.5L58.4,0z M58.4,0"/>
<path fill="#396C7F" d="M111.3,24.6L58.2,6.5v111.1L102.7,93L111.3,24.6z M111.3,24.6"/>
<path fill="#1F99CA" d="M6.5,24.9l7.9,68.4l43.8,24.3V6.5L6.5,24.9z M6.5,24.9"/>
<path fill="#BFDEE8" d="M70.5,61.8L58.3,36.3L47.6,61.8H70.5z M75.2,72.5H42.8l-7.2,18.1l-13.5,0.2l36.1-80.3l37.3,80.3H83.1
	L75.2,72.5z M75.2,72.5"/>
<path fill="#A2CFDC" d="M58.2,10.5l0.1,25.7l12.2,25.5H58.3l0,10.7l16.9,0l7.9,18.3L96,91.1L58.2,10.5z M58.2,10.5"/>
<g>
</g>
<g>
</g>
<g>
</g>
<g>
</g>
<g>
</g>
<g>
</g>
</svg>
