<?xml version="1.0" standalone="no"?><!DOCTYPE svg PUBLIC "-//W3C//DTD SVG 1.1//EN" "http://www.w3.org/Graphics/SVG/1.1/DTD/svg11.dtd"><svg xmlns:xlink="http://www.w3.org/1999/xlink" version="1.1" style="font-family:'lucida grande', 'lucida sans unicode', arial, helvetica, sans-serif;font-size:12px;" xmlns="http://www.w3.org/2000/svg" width="600" height="400"><desc>Created with Highcharts 4.2.0</desc><defs><clipPath id="highcharts-13"><rect x="0" y="0" width="580" height="308"></rect></clipPath></defs><g class="highcharts-series-group" ><g class="highcharts-series highcharts-series-0"  transform="translate(10,36) scale(1 1)"><path fill="#ee0808" d="M 289.9706710586679 10.000002986759739 A 144 144 0 0 1 428.89761236142346 116.00719436135645 L 290 154 A 0 0 0 0 0 290 154 Z" stroke="#FFFFFF" stroke-width="1" stroke-linejoin="round" transform="translate(0,0)"></path><path fill="#ed931b" d="M 428.93553571192956 116.14611094696951 A 144 144 0 0 1 305.492626155959 297.16416637829343 L 290 154 A 0 0 0 0 0 290 154 Z" stroke="#FFFFFF" stroke-width="1" stroke-linejoin="round" transform="translate(0,0)"></path><path fill="#97980e" d="M 305.349454267129 297.1795874197901 A 144 144 0 0 1 147.30232536237477 173.32287900429043 L 290 154 A 0 0 0 0 0 290 154 Z" stroke="#FFFFFF" stroke-width="1" stroke-linejoin="round" transform="translate(0,0)"></path><path fill="#24CBE5" d="M 147.28307383542233 173.18017169199706 A 144 144 0 0 1 289.7999868889177 10.000138907166303 L 290 154 A 0 0 0 0 0 290 154 Z" stroke="#FFFFFF" stroke-width="1" stroke-linejoin="round" transform="translate(0,0)"></path></g><g class="highcharts-markers highcharts-series-0"  transform="translate(10,36) scale(1 1)"></g></g><text x="300" text-anchor="middle" class="highcharts-title"  style="color:#000000;font-size:10px;font-family:'arial', sans-serif;fill:#000000;width:536px;" y="17"><tspan>What Chips do Students at Hale like?</tspan></text><g class="highcharts-data-labels highcharts-series-0"  visibility="visible" transform="translate(10,36) scale(1 1)" opacity="1"><path fill="none" d="M 400.6179595652726 15.721850542942104 C 395.6179595652726 15.721850542942104 390.76196142434054 22.07946660993327 384.08496398055894 30.821188702046125 L 377.40796653677734 39.56291079415898" stroke="#ee0808" stroke-width="1"></path><path fill="none" d="M 438.70338474785325 252.10880292823097 C 433.70338474785325 252.10880292823097 427.0963325755382 247.5980533683123 418.01163583860495 241.39577272342413 L 408.9269391016717 235.19349207853597" stroke="#ed931b" stroke-width="1"></path><path fill="none" d="M 177.550716997395 290.85997070811504 C 182.550716997395 290.85997070811504 187.49091391705502 284.5675582617649 194.28368468158752 275.9154911480335 L 201.07645544612 267.2634240343021" stroke="#97980e" stroke-width="1"></path><path fill="none" d="M 154.05268604594704 39.419020041637395 C 159.05268604594704 39.419020041637395 165.0732522047541 44.68711107420579 173.35153067311379 51.93073624398733 L 181.62980914147346 59.17436141376888" stroke="#24CBE5" stroke-width="1"></path><g  style="cursor:pointer;" transform="translate(406,6)"><text x="5"  style="font-size:10px;font-weight:bold;font-family:'arial', sans-serif;color:#000000;text-shadow:0 0 6px #ffffff, 0 0 3px #ffffff;fill:#000000;text-rendering:geometricprecision;" y="15"><tspan>Takis : 0.20762711864 </tspan></text></g><g  style="cursor:pointer;" transform="translate(444,242)"><text x="5"  style="font-size:10px;font-weight:bold;font-family:'arial', sans-serif;color:#000000;text-shadow:0 0 6px #ffffff, 0 0 3px #ffffff;fill:#000000;text-rendering:geometricprecision;" y="15"><tspan>Doritos : 0.27542372881 </tspan></text></g><g  style="cursor:pointer;" transform="translate(39,281)"><text x="5"  style="font-size:10px;font-weight:bold;font-family:'arial', sans-serif;color:#000000;text-shadow:0 0 6px #ffffff, 0 0 3px #ffffff;fill:#000000;text-rendering:geometricprecision;" y="15"><tspan>Cheetos : 0.24576271186 </tspan></text></g><g  style="cursor:pointer;" transform="translate(32,29)"><text x="5"  style="font-size:10px;font-weight:bold;font-family:'arial', sans-serif;color:#000000;text-shadow:0 0 6px #ffffff, 0 0 3px #ffffff;fill:#000000;text-rendering:geometricprecision;" y="15"><tspan>Lays : 0.27118644067 </tspan></text></g></g><g class="highcharts-legend"  transform="translate(147,356)"><g ><g><g class="highcharts-legend-item"  transform="translate(8,3)"><text x="21" style="color:#333;font-size:9pt;font-weight:normal;cursor:pointer;font-family:'lucida grande','lucida sans unicode',arial,helvetica,sans-serif;text-transform:none;fill:#333;" text-anchor="start"  y="15">Takis</text><rect x="0" y="4" width="16" height="12"  fill="#ee0808"></rect></g><g class="highcharts-legend-item"  transform="translate(79.8125,3)"><text x="21" y="15" style="color:#333;font-size:9pt;font-weight:normal;cursor:pointer;font-family:'lucida grande','lucida sans unicode',arial,helvetica,sans-serif;text-transform:none;fill:#333;" text-anchor="start" >Doritos</text><rect x="0" y="4" width="16" height="12"  fill="#ed931b"></rect></g><g class="highcharts-legend-item"  transform="translate(163.515625,3)"><text x="21" y="15" style="color:#333;font-size:9pt;font-weight:normal;cursor:pointer;font-family:'lucida grande','lucida sans unicode',arial,helvetica,sans-serif;text-transform:none;fill:#333;" text-anchor="start" >Cheetos</text><rect x="0" y="4" width="16" height="12"  fill="#97980e"></rect></g><g class="highcharts-legend-item"  transform="translate(251.609375,3)"><text x="21" y="15" style="color:#333;font-size:9pt;font-weight:normal;cursor:pointer;font-family:'lucida grande','lucida sans unicode',arial,helvetica,sans-serif;text-transform:none;fill:#333;" text-anchor="start" >Lays</text><rect x="0" y="4" width="16" height="12"  fill="#24CBE5"></rect></g></g></g></g><g class="highcharts-tooltip"  style="cursor:default;padding:0;pointer-events:none;white-space:nowrap;" transform="translate(0,-9999)"><path fill="none" d="M 3.5 0.5 L 13.5 0.5 C 16.5 0.5 16.5 0.5 16.5 3.5 L 16.5 13.5 C 16.5 16.5 16.5 16.5 13.5 16.5 L 3.5 16.5 C 0.5 16.5 0.5 16.5 0.5 13.5 L 0.5 3.5 C 0.5 0.5 0.5 0.5 3.5 0.5"  stroke="black" stroke-opacity="0.049999999999999996" stroke-width="5" transform="translate(1, 1)"></path><path fill="none" d="M 3.5 0.5 L 13.5 0.5 C 16.5 0.5 16.5 0.5 16.5 3.5 L 16.5 13.5 C 16.5 16.5 16.5 16.5 13.5 16.5 L 3.5 16.5 C 0.5 16.5 0.5 16.5 0.5 13.5 L 0.5 3.5 C 0.5 0.5 0.5 0.5 3.5 0.5"  stroke="black" stroke-opacity="0.09999999999999999" stroke-width="3" transform="translate(1, 1)"></path><path fill="none" d="M 3.5 0.5 L 13.5 0.5 C 16.5 0.5 16.5 0.5 16.5 3.5 L 16.5 13.5 C 16.5 16.5 16.5 16.5 13.5 16.5 L 3.5 16.5 C 0.5 16.5 0.5 16.5 0.5 13.5 L 0.5 3.5 C 0.5 0.5 0.5 0.5 3.5 0.5"  stroke="black" stroke-opacity="0.15" stroke-width="1" transform="translate(1, 1)"></path><path fill="rgb(249, 249, 249)" fill-opacity=" .85" d="M 3.5 0.5 L 13.5 0.5 C 16.5 0.5 16.5 0.5 16.5 3.5 L 16.5 13.5 C 16.5 16.5 16.5 16.5 13.5 16.5 L 3.5 16.5 C 0.5 16.5 0.5 16.5 0.5 13.5 L 0.5 3.5 C 0.5 0.5 0.5 0.5 3.5 0.5"></path><text x="8"  style="font-size:12px;color:#000000;fill:#000000;" y="20"></text></g><text x="590" text-anchor="end"  style="cursor:pointer;color:#909090;font-size:9px;fill:#909090;" y="395">meta-chart.com</text></svg>