<svg id="Layer_1" data-name="Layer 1" xmlns="http://www.w3.org/2000/svg" viewBox="0 0 45 45"><title>MiniFeatures-Icons</title><circle cx="22.5" cy="22.5" r="22.5" style="fill:#eb585c"/><path d="M27.56,33.57L27.72,29a1,1,0,0,0-.26-0.71h0a0.9,0.9,0,0,0-.25-0.18l1.63-2.5a2.8,2.8,0,0,0,.09-2.89l-5.09-8.6H29v0.57a1.45,1.45,0,0,0,.54.79,1.32,1.32,0,0,0,.87.33h3a1.12,1.12,0,0,0,1.1-1.12V11.64a1.09,1.09,0,0,0-1.06-1.12H30.29A1.29,1.29,0,0,0,29,11.63V12.2H16V11.62a1.3,1.3,0,0,0-1.29-1.12h-3a1.14,1.14,0,0,0-1.13,1.12l0,3.06a1.09,1.09,0,0,0,1.06,1.12h3.14A1.29,1.29,0,0,0,16,14.68V14.12h5.17l-5,8.59a2.81,2.81,0,0,0,0,2.89l1.61,2.51a1,1,0,0,0-.28.19,1,1,0,0,0-.26.71l0.17,4.56a1,1,0,0,0,.27.65,0.9,0.9,0,0,0,.65.28h8.25A0.94,0.94,0,0,0,27.56,33.57ZM17.68,23.7l3.9-6.9v4.9a1.86,1.86,0,0,0-.85,1.58,1.78,1.78,0,1,0,3.55,0,1.87,1.87,0,0,0-.85-1.58V16.8l3.91,6.91a0.79,0.79,0,0,1,0,.82l-2.06,3.15a0.71,0.71,0,0,1-.6.33H20.37a0.75,0.75,0,0,1-.61-0.33l-2.06-3.15A0.8,0.8,0,0,1,17.68,23.7Zm1.6,8.87-0.1-2.63h6.66l-0.09,2.63H19.28Z" style="fill:#fff"/></svg>