<?xml version="1.0" encoding="UTF-8" standalone="no"?>
<!-- Created with Inkscape (http://www.inkscape.org/) -->

<svg
   xmlns:dc="http://purl.org/dc/elements/1.1/"
   xmlns:cc="http://creativecommons.org/ns#"
   xmlns:rdf="http://www.w3.org/1999/02/22-rdf-syntax-ns#"
   xmlns:svg="http://www.w3.org/2000/svg"
   xmlns="http://www.w3.org/2000/svg"
   xmlns:sodipodi="http://sodipodi.sourceforge.net/DTD/sodipodi-0.dtd"
   xmlns:inkscape="http://www.inkscape.org/namespaces/inkscape"
   width="437.01428mm"
   height="330.77512mm"
   viewBox="0 0 1548.4757 1172.0378"
   id="svg2"
   version="1.1"
   inkscape:version="0.91 r13725"
   sodipodi:docname="Mistpuzzle.svg">
  <defs
     id="defs4" />
  <sodipodi:namedview
     id="base"
     pagecolor="#ffffff"
     bordercolor="#666666"
     borderopacity="1.0"
     inkscape:pageopacity="0.0"
     inkscape:pageshadow="2"
     inkscape:zoom="0.49497476"
     inkscape:cx="532.17484"
     inkscape:cy="281.34301"
     inkscape:document-units="px"
     inkscape:current-layer="layer1"
     showgrid="false"
     inkscape:window-width="1920"
     inkscape:window-height="1025"
     inkscape:window-x="-2"
     inkscape:window-y="-3"
     inkscape:window-maximized="1"
     fit-margin-top="0"
     fit-margin-left="0"
     fit-margin-right="0"
     fit-margin-bottom="0"
     showguides="false" />
  <metadata
     id="metadata7">
    <rdf:RDF>
      <cc:Work
         rdf:about="">
        <dc:format>image/svg+xml</dc:format>
        <dc:type
           rdf:resource="http://purl.org/dc/dcmitype/StillImage" />
        <dc:title />
      </cc:Work>
    </rdf:RDF>
  </metadata>
  <g
     inkscape:label="Layer 1"
     inkscape:groupmode="layer"
     id="layer1"
     transform="translate(0.2500906,-52.112114)">
    <path
       style="opacity:1;fill:#b4b4b4;fill-opacity:0.70588235;stroke:#000000;stroke-width:15;stroke-miterlimit:4;stroke-dasharray:none;stroke-opacity:1"
       d="M 334.08008 666.41992 L 333.67578 666.41992 L 208.17773 666.41992 C 205.68 666.41992 203.41036 666.31172 201.35547 666.10156 C 199.30058 665.89141 197.4593 665.57861 195.81641 665.17188 C 194.17351 664.76512 192.72853 664.26362 191.4668 663.67383 C 190.20506 663.08403 189.12627 662.40771 188.21484 661.64844 C 187.30342 660.88916 186.5607 660.04801 185.96875 659.13281 C 185.3768 658.21761 184.93613 657.22749 184.63281 656.16992 C 184.32949 655.11236 184.16272 653.98715 184.11719 652.80078 C 184.07165 651.61441 184.14673 650.36607 184.32812 649.06445 C 184.69094 646.46122 185.47696 643.64108 186.5625 640.6582 C 187.64804 637.67533 189.03418 634.53139 190.5957 631.27734 C 193.71875 624.76925 197.54721 617.82673 201.09375 610.88477 C 202.86702 607.41378 204.5691 603.94214 206.07812 600.52539 C 207.58716 597.10864 208.90233 593.74623 209.90039 590.49219 C 210.39942 588.86516 210.81951 587.26523 211.14453 585.69922 C 211.46955 584.13321 211.70014 582.60079 211.82031 581.10938 C 211.94048 579.61793 211.94951 578.16698 211.83398 576.76367 C 211.71846 575.36036 211.47776 574.00476 211.0957 572.70312 C 210.71365 571.40152 210.19115 570.15512 209.51172 568.96875 C 208.83228 567.78238 207.99594 566.65717 206.98828 565.59961 C 205.98063 564.54204 204.80226 563.55192 203.43555 562.63672 C 202.06883 561.72152 200.51443 560.88037 198.75781 560.12109 C 197.00119 559.36182 195.0426 558.68355 192.86523 558.09375 C 190.68787 557.50395 188.29107 557.00246 185.66211 556.5957 C 183.03315 556.18895 180.17194 555.87813 177.06055 555.66797 C 173.94916 555.45781 170.58756 555.34961 166.96289 555.34961 C 162.9681 555.34961 159.26364 555.45781 155.83203 555.66797 C 152.40043 555.87813 149.24158 556.18895 146.33984 556.5957 C 143.43811 557.00246 140.79385 557.50395 138.38867 558.09375 C 135.98349 558.68355 133.81694 559.36182 131.875 560.12109 C 129.93306 560.88037 128.21515 561.72152 126.70312 562.63672 C 125.19111 563.55192 123.8869 564.54204 122.77148 565.59961 C 121.65607 566.65717 120.72869 567.78238 119.97656 568.96875 C 119.22443 570.15512 118.64677 571.40153 118.22461 572.70312 C 117.80245 574.00474 117.53761 575.36036 117.41211 576.76367 C 117.28661 578.16698 117.29966 579.61792 117.4375 581.10938 C 117.57534 582.60081 117.83722 584.13321 118.20508 585.69922 C 118.57294 587.26523 119.04676 588.86516 119.61133 590.49219 C 120.74046 593.74623 122.2312 597.10864 123.94727 600.52539 C 125.66333 603.94214 127.60612 607.41378 129.64258 610.88477 C 133.7155 617.82673 138.16264 624.76925 141.91797 631.27734 C 143.79563 634.53139 145.49997 637.67533 146.89844 640.6582 C 148.2969 643.64108 149.38827 646.46122 150.04102 649.06445 C 150.36739 650.36607 150.58386 651.61441 150.67383 652.80078 C 150.76379 653.98715 150.72859 655.11236 150.54883 656.16992 C 150.36907 657.22749 150.0453 658.21761 149.5625 659.13281 C 149.0797 660.04801 148.43634 660.88916 147.61719 661.64844 C 146.79804 662.40771 145.8021 663.08403 144.61328 663.67383 C 143.42446 664.26362 142.04298 664.76512 140.45117 665.17188 C 138.85936 665.57862 137.05741 665.89141 135.0293 666.10156 C 133.00118 666.31172 130.74773 666.41992 128.25 666.41992 L 7.5 666.41992 L 7.5 993 L 334.08008 993 L 334.08008 873.6582 C 334.08008 871.60558 334.18106 869.77571 334.375 868.1543 C 334.56894 866.53288 334.8551 865.11906 335.23047 863.89648 C 335.60583 862.67391 336.069 861.64321 336.61328 860.78711 C 337.15756 859.93101 337.78369 859.25051 338.48438 858.72852 C 339.18506 858.20652 339.96011 857.8433 340.80469 857.62305 C 341.64926 857.40279 342.56311 857.32588 343.53906 857.375 C 344.51501 857.42412 345.55362 857.59865 346.64844 857.88477 C 347.74326 858.17089 348.89453 858.56784 350.0957 859.05859 C 352.49805 860.04011 355.10083 861.39804 357.85352 863.00391 C 360.6062 864.60977 363.50879 866.46428 366.51172 868.43555 C 372.51758 872.37809 378.92383 876.79204 385.33008 880.64258 C 388.5332 882.56785 391.7356 884.35137 394.88867 885.86523 C 398.04175 887.3791 401.14551 888.62328 404.14844 889.4668 C 405.6499 889.88856 407.12711 890.21039 408.57227 890.41602 C 410.01743 890.62164 411.4303 890.71085 412.80664 890.66797 C 414.18298 890.62509 415.52139 890.45071 416.81641 890.12695 C 418.11142 889.8032 419.36328 889.33035 420.56445 888.69336 C 421.76562 888.05637 422.9169 887.25408 424.01172 886.27148 C 425.10654 885.28888 426.14514 884.1262 427.12109 882.76562 C 428.09705 881.40505 429.01089 879.84709 429.85547 878.07617 C 430.70004 876.30526 431.4751 874.32105 432.17578 872.10742 C 432.87646 869.8938 433.50259 867.45042 434.04688 864.76172 C 434.59116 862.07302 435.05432 859.1395 435.42969 855.94336 C 435.80505 852.74722 436.09122 849.28869 436.28516 845.55273 C 436.4791 841.81678 436.58008 837.80227 436.58008 833.49414 C 436.58008 829.34093 436.4791 825.4863 436.28516 821.91406 C 436.09122 818.34182 435.80505 815.05186 435.42969 812.02734 C 435.05432 809.00283 434.59116 806.24441 434.04688 803.73438 C 433.50259 801.22434 432.87646 798.9624 432.17578 796.93359 C 431.4751 794.90479 430.70004 793.11012 429.85547 791.5293 C 429.01089 789.94847 428.09705 788.5821 427.12109 787.41602 C 426.14514 786.24993 425.10654 785.28264 424.01172 784.49805 C 422.9169 783.71345 421.76562 783.11213 420.56445 782.67578 C 419.36328 782.23943 418.11142 781.96901 416.81641 781.84766 C 415.52139 781.7263 414.18298 781.75367 412.80664 781.91406 C 411.4303 782.07446 410.01743 782.36649 408.57227 782.77539 C 407.12711 783.18429 405.6499 783.70983 404.14844 784.33398 C 401.14551 785.58229 398.04175 787.22883 394.88867 789.13867 C 391.7356 791.04851 388.5332 793.22194 385.33008 795.52734 C 378.92383 800.13815 372.51758 805.2739 366.51172 809.87109 C 363.50879 812.16969 360.6062 814.33424 357.85352 816.23047 C 355.10083 818.1267 352.49805 819.75454 350.0957 820.98242 C 348.89453 821.59636 347.74326 822.11083 346.64844 822.50781 C 345.55362 822.9048 344.51501 823.18525 343.53906 823.33203 C 342.56311 823.47881 341.64926 823.49214 340.80469 823.35547 C 339.96011 823.2188 339.18506 822.93188 338.48438 822.47852 C 337.78369 822.02515 337.15756 821.40487 336.61328 820.60156 C 336.069 819.79825 335.60583 818.8115 335.23047 817.625 C 334.8551 816.4385 334.56894 815.05216 334.375 813.44922 C 334.18106 811.84628 334.08008 810.02724 334.08008 807.97461 L 334.08008 666.73828 L 334.08008 666.41992 z "
       id="path4266"
       transform="translate(-0.25015164,52.112114)" />
    <path
       style="opacity:1;fill:#b4b4b4;fill-opacity:0.70588235;stroke:#000000;stroke-width:15;stroke-miterlimit:4;stroke-dasharray:none;stroke-opacity:1"
       d="M 334.08008 666.41992 L 334.08008 666.73828 L 334.08008 807.97461 C 334.08008 810.02724 334.18106 811.84628 334.375 813.44922 C 334.56894 815.05216 334.8551 816.4385 335.23047 817.625 C 335.60583 818.8115 336.069 819.79825 336.61328 820.60156 C 337.15756 821.40487 337.78369 822.02515 338.48438 822.47852 C 339.18506 822.93188 339.96011 823.2188 340.80469 823.35547 C 341.64926 823.49214 342.56311 823.47881 343.53906 823.33203 C 344.51501 823.18525 345.55362 822.9048 346.64844 822.50781 C 347.74326 822.11083 348.89453 821.59636 350.0957 820.98242 C 352.49805 819.75454 355.10083 818.1267 357.85352 816.23047 C 360.6062 814.33424 363.50879 812.16969 366.51172 809.87109 C 372.51758 805.2739 378.92383 800.13815 385.33008 795.52734 C 388.5332 793.22194 391.7356 791.04851 394.88867 789.13867 C 398.04175 787.22883 401.14551 785.58229 404.14844 784.33398 C 405.6499 783.70983 407.12711 783.18429 408.57227 782.77539 C 410.01743 782.36649 411.4303 782.07446 412.80664 781.91406 C 414.18298 781.75367 415.52139 781.7263 416.81641 781.84766 C 418.11142 781.96901 419.36328 782.23943 420.56445 782.67578 C 421.76562 783.11213 422.9169 783.71345 424.01172 784.49805 C 425.10654 785.28264 426.14514 786.24993 427.12109 787.41602 C 428.09705 788.5821 429.01089 789.94847 429.85547 791.5293 C 430.70004 793.11012 431.4751 794.90479 432.17578 796.93359 C 432.87646 798.9624 433.50259 801.22434 434.04688 803.73438 C 434.59116 806.24441 435.05432 809.00283 435.42969 812.02734 C 435.80505 815.05186 436.09122 818.34182 436.28516 821.91406 C 436.4791 825.4863 436.58008 829.34093 436.58008 833.49414 C 436.58008 837.80227 436.4791 841.81678 436.28516 845.55273 C 436.09122 849.28869 435.80505 852.74722 435.42969 855.94336 C 435.05432 859.1395 434.59116 862.07302 434.04688 864.76172 C 433.50259 867.45042 432.87646 869.8938 432.17578 872.10742 C 431.4751 874.32105 430.70004 876.30526 429.85547 878.07617 C 429.01089 879.84709 428.09705 881.40505 427.12109 882.76562 C 426.14514 884.1262 425.10654 885.28888 424.01172 886.27148 C 422.9169 887.25408 421.76562 888.05637 420.56445 888.69336 C 419.36328 889.33035 418.11142 889.8032 416.81641 890.12695 C 415.52139 890.45071 414.18298 890.62509 412.80664 890.66797 C 411.4303 890.71085 410.01743 890.62164 408.57227 890.41602 C 407.12711 890.21039 405.6499 889.88856 404.14844 889.4668 C 401.14551 888.62328 398.04175 887.3791 394.88867 885.86523 C 391.7356 884.35137 388.5332 882.56785 385.33008 880.64258 C 378.92383 876.79204 372.51758 872.37809 366.51172 868.43555 C 363.50879 866.46428 360.6062 864.60977 357.85352 863.00391 C 355.10083 861.39804 352.49805 860.04011 350.0957 859.05859 C 348.89453 858.56784 347.74326 858.17089 346.64844 857.88477 C 345.55362 857.59865 344.51501 857.42412 343.53906 857.375 C 342.56311 857.32588 341.64926 857.40279 340.80469 857.62305 C 339.96011 857.8433 339.18506 858.20652 338.48438 858.72852 C 337.78369 859.25051 337.15756 859.93101 336.61328 860.78711 C 336.069 861.64321 335.60583 862.67391 335.23047 863.89648 C 334.8551 865.11906 334.56894 866.53288 334.375 868.1543 C 334.18106 869.77571 334.08008 871.60558 334.08008 873.6582 L 334.08008 993 L 667.41016 993 L 667.41016 904.71289 C 667.41016 900.85686 667.30616 897.31994 667.10547 894.08008 C 666.90478 890.84021 666.60718 887.89759 666.21875 885.23242 C 665.83032 882.56725 665.35228 880.17881 664.78906 878.04688 C 664.22585 875.91493 663.57858 874.04057 662.85352 872.40039 C 662.12845 870.76021 661.32513 869.3559 660.45117 868.16602 C 659.57721 866.97613 658.631 865.9998 657.62109 865.21875 C 656.61119 864.4377 655.5372 863.85119 654.4043 863.4375 C 653.27139 863.02381 652.08085 862.7831 650.83789 862.69531 C 649.59493 862.60752 648.29905 862.6725 646.95898 862.86914 C 645.61892 863.06578 644.23477 863.39438 642.81055 863.83398 C 639.96209 864.71319 636.95701 866.03641 633.84961 867.63867 C 630.74221 869.24094 627.5323 871.12164 624.26953 873.11523 C 621.00676 875.10883 617.69152 877.21634 614.37695 879.26953 C 611.06239 881.32272 607.74715 883.32246 604.48438 885.10352 C 601.22159 886.88458 598.0117 888.44585 594.9043 889.62305 C 593.3506 890.21165 591.82161 890.70464 590.32617 891.08008 C 588.83073 891.45551 587.36954 891.71318 585.94531 891.83398 C 584.52109 891.95479 583.13499 891.93897 581.79492 891.76367 C 580.45485 891.58838 579.15898 891.25505 577.91602 890.74219 C 576.67305 890.22933 575.48252 889.53642 574.34961 888.64453 C 573.2167 887.75264 572.14272 886.66004 571.13281 885.34766 C 570.12291 884.03527 569.17669 882.50287 568.30273 880.72852 C 567.42878 878.95416 566.6274 876.93794 565.90234 874.66016 C 565.17728 872.38238 564.53001 869.84416 563.9668 867.02148 C 563.40358 864.19881 562.92358 861.09263 562.53516 857.68359 C 562.14673 854.27455 561.84912 850.56226 561.64844 846.52539 C 561.44775 842.48852 561.34375 838.12608 561.34375 833.41992 C 561.34375 828.28296 561.44775 823.53697 561.64844 819.1582 C 561.84912 814.77944 562.14673 810.76846 562.53516 807.10156 C 562.92358 803.43466 563.40358 800.1127 563.9668 797.11133 C 564.53001 794.10996 565.17728 791.42904 565.90234 789.04688 C 566.6274 786.6647 567.42878 784.58079 568.30273 782.77148 C 569.17669 780.96218 570.12291 779.42731 571.13281 778.14453 C 572.14272 776.86175 573.2167 775.83188 574.34961 775.0293 C 575.48252 774.22672 576.67305 773.65192 577.91602 773.2832 C 579.15898 772.91448 580.45485 772.75072 581.79492 772.76953 C 583.13499 772.78834 584.52109 772.9896 585.94531 773.34961 C 587.36954 773.70962 588.83073 774.22794 590.32617 774.88281 C 591.82161 775.53768 593.3506 776.32902 594.9043 777.23242 C 598.0117 779.03922 601.2216 781.29739 604.48438 783.82031 C 607.74715 786.34323 611.06239 789.13163 614.37695 792 C 621.00608 797.73674 627.6348 803.79297 633.84961 808.6875 C 636.95701 811.13477 639.96209 813.29194 642.81055 814.97266 C 644.23477 815.81301 645.61892 816.53406 646.95898 817.11328 C 648.29905 817.6925 649.59493 818.12864 650.83789 818.40039 C 652.08085 818.67214 653.27139 818.77932 654.4043 818.69727 C 655.5372 818.61521 656.61119 818.34548 657.62109 817.86328 C 658.631 817.38109 659.57721 816.68648 660.45117 815.75781 C 661.32513 814.82915 662.12845 813.66561 662.85352 812.24414 C 663.57858 810.82267 664.22585 809.1442 664.78906 807.18359 C 665.35228 805.22298 665.83032 802.97968 666.21875 800.43359 C 666.60718 797.88751 666.90478 795.03725 667.10547 791.85938 C 667.30616 788.68149 667.41016 785.17634 667.41016 781.32031 L 667.41016 666.5918 L 667.41016 666.41992 L 666.56055 666.41992 L 534.2168 666.41992 C 532.09077 666.41992 530.18976 666.31292 528.5 666.10547 C 526.81024 665.89801 525.33043 665.59098 524.04492 665.18945 C 522.75941 664.78793 521.66915 664.29119 520.75586 663.70898 C 519.84257 663.12677 519.1063 662.4585 518.5332 661.70898 C 517.96011 660.95947 517.55008 660.12999 517.28516 659.22656 C 517.02023 658.32313 516.90089 657.34474 516.91211 656.30078 C 516.92333 655.25682 517.06497 654.14767 517.32031 652.97656 C 517.57565 651.80545 517.94468 650.57394 518.41211 649.28906 C 519.34698 646.71931 520.67454 643.93474 522.26562 640.99023 C 523.85672 638.04572 525.71204 634.94071 527.70312 631.72852 C 531.68531 625.30413 536.21087 618.45229 540.25586 611.59961 C 542.27836 608.17327 544.1801 604.74585 545.83398 601.37305 C 547.48787 598.00024 548.89279 594.68094 549.92188 591.46875 C 550.43641 589.86265 550.85768 588.28415 551.16797 586.73828 C 551.47826 585.19241 551.67793 583.67929 551.75195 582.20703 C 551.82598 580.73478 551.77435 579.30323 551.58008 577.91797 C 551.38581 576.53271 551.04928 575.19308 550.55469 573.9082 C 550.0601 572.62333 549.40701 571.39182 548.58008 570.2207 C 547.75314 569.04959 546.75185 567.94045 545.56055 566.89648 C 544.36924 565.85252 542.9881 564.87413 541.40039 563.9707 C 539.81269 563.06727 538.02003 562.23779 536.00391 561.48828 C 533.98778 560.73877 531.74806 560.07049 529.27148 559.48828 C 526.79491 558.90607 524.08038 558.40934 521.11133 558.00781 C 518.14228 557.60629 514.91933 557.29925 511.42578 557.0918 C 507.93223 556.88434 504.16727 556.77734 500.11719 556.77734 C 496.29881 556.77734 492.75299 556.88434 489.46289 557.0918 C 486.17279 557.29925 483.13878 557.60629 480.3457 558.00781 C 477.55263 558.40934 475.00111 558.90607 472.67383 559.48828 C 470.34654 560.07049 468.2443 560.73877 466.35156 561.48828 C 464.45882 562.23779 462.7746 563.06727 461.28516 563.9707 C 459.79572 564.87413 458.50019 565.85252 457.38281 566.89648 C 456.26543 567.94045 455.32735 569.04959 454.55078 570.2207 C 453.77421 571.39182 453.16035 572.62333 452.69336 573.9082 C 452.22637 575.19308 451.90546 576.53271 451.7168 577.91797 C 451.52813 579.30323 451.47088 580.73478 451.5293 582.20703 C 451.58772 583.67929 451.76284 585.19241 452.03711 586.73828 C 452.31137 588.28415 452.68567 589.86265 453.14453 591.46875 C 454.06226 594.68094 455.31648 598.00024 456.78516 601.37305 C 458.25383 604.74585 459.9354 608.17327 461.70508 611.59961 C 465.24443 618.45229 469.13716 625.30413 472.38086 631.72852 C 474.00271 634.94071 475.46174 638.04572 476.63477 640.99023 C 477.80779 643.93474 478.69372 646.71931 479.16797 649.28906 C 479.40509 650.57394 479.53912 651.80545 479.55469 652.97656 C 479.57025 654.14767 479.4677 655.25682 479.23047 656.30078 C 478.99324 657.34474 478.62284 658.32313 478.10156 659.22656 C 477.58029 660.12999 476.90883 660.95947 476.07227 661.70898 C 475.2357 662.4585 474.23387 663.12677 473.05078 663.70898 C 471.86769 664.29119 470.50227 664.78793 468.94141 665.18945 C 467.38054 665.59098 465.62418 665.89801 463.6543 666.10547 C 461.68442 666.31292 459.50193 666.41992 457.0918 666.41992 L 334.08008 666.41992 z "
       id="path4236"
       transform="translate(-0.25015164,52.112114)" />
    <path
       style="opacity:1;fill:#b4b4b4;fill-opacity:0.70588235;stroke:#000000;stroke-width:15;stroke-miterlimit:4;stroke-dasharray:none;stroke-opacity:1"
       d="M 334.08008 333.08984 L 333.82227 333.08984 L 205.19336 333.08984 C 202.86124 333.08984 200.75072 333.21338 198.8457 333.45117 C 196.94068 333.68896 195.2424 334.04171 193.73438 334.50195 C 192.22635 334.96219 190.90874 335.52992 189.76758 336.19727 C 188.62642 336.86461 187.66183 337.63112 186.85742 338.49023 C 186.05302 339.34935 185.40792 340.3004 184.91016 341.33594 C 184.41239 342.37148 184.06109 343.49088 183.83984 344.6875 C 183.6186 345.88412 183.52758 347.15763 183.55273 348.5 C 183.57789 349.84237 183.7195 351.25379 183.96094 352.72656 C 184.44382 355.6721 185.32877 358.86319 186.49609 362.23828 C 187.66342 365.61338 189.11378 369.17355 190.72461 372.85547 C 193.94627 380.21931 197.81322 388.07297 201.36328 395.92773 C 203.13831 399.85512 204.83436 403.78242 206.33008 407.64844 C 207.8258 411.51446 209.12218 415.32003 210.09766 419.00195 C 210.5854 420.84291 210.99218 422.6519 211.30469 424.42383 C 211.61719 426.19575 211.83426 427.92964 211.94141 429.61719 C 212.04856 431.30474 212.04629 432.94733 211.91797 434.53516 C 211.78965 436.12299 211.53649 437.65614 211.14258 439.12891 C 210.74867 440.60168 210.21305 442.0131 209.52344 443.35547 C 208.83383 444.69784 207.99004 445.97134 206.97461 447.16797 C 205.95918 448.36459 204.77176 449.48399 203.40039 450.51953 C 202.02902 451.55507 200.47227 452.50807 198.71484 453.36719 C 196.95741 454.2263 194.99977 454.99281 192.82617 455.66016 C 190.65257 456.3275 188.26442 456.89523 185.64453 457.35547 C 183.02464 457.81571 180.17247 458.16846 177.07617 458.40625 C 173.97987 458.64404 170.63798 458.76564 167.03516 458.76562 C 163.20462 458.76562 159.65239 458.64404 156.35938 458.40625 C 153.06635 458.16846 150.03326 457.81571 147.24609 457.35547 C 144.45893 456.89523 141.91648 456.3275 139.60352 455.66016 C 137.29055 454.99281 135.20635 454.2263 133.33594 453.36719 C 131.46552 452.50807 129.80914 451.55507 128.34961 450.51953 C 126.89008 449.48399 125.62717 448.36459 124.54688 447.16797 C 123.46657 445.97134 122.56867 444.69784 121.83594 443.35547 C 121.10321 442.0131 120.53596 440.60168 120.11914 439.12891 C 119.70232 437.65614 119.43529 436.12299 119.30273 434.53516 C 119.17017 432.94733 119.17293 431.30474 119.29297 429.61719 C 119.41301 427.92964 119.65121 426.19575 119.99219 424.42383 C 120.33317 422.6519 120.77638 420.84291 121.30664 419.00195 C 122.36717 415.32003 123.77462 411.51446 125.40234 407.64844 C 127.03006 403.78242 128.87866 399.85512 130.82031 395.92773 C 134.70362 388.07297 138.96061 380.21931 142.58008 372.85547 C 144.38981 369.17355 146.04041 365.61338 147.4043 362.23828 C 148.76818 358.86319 149.84694 355.6721 150.51172 352.72656 C 150.84411 351.25379 151.07151 349.84237 151.18164 348.5 C 151.29177 347.15763 151.28442 345.88412 151.14062 344.6875 C 150.99683 343.49088 150.71648 342.37148 150.28711 341.33594 C 149.85774 340.3004 149.27786 339.34935 148.53125 338.49023 C 147.78464 337.63112 146.87284 336.86461 145.77734 336.19727 C 144.68184 335.52992 143.40379 334.96219 141.92773 334.50195 C 140.45168 334.04171 138.77693 333.68896 136.88867 333.45117 C 135.00041 333.21338 132.89853 333.08984 130.56641 333.08984 L 7.5 333.08984 L 7.5 666.41992 L 128.25 666.41992 C 130.74773 666.41992 133.00118 666.31172 135.0293 666.10156 C 137.05741 665.89141 138.85936 665.57861 140.45117 665.17188 C 142.04298 664.76512 143.42446 664.26362 144.61328 663.67383 C 145.8021 663.08403 146.79804 662.40771 147.61719 661.64844 C 148.43634 660.88916 149.0797 660.04801 149.5625 659.13281 C 150.0453 658.21761 150.36907 657.22749 150.54883 656.16992 C 150.72859 655.11236 150.76379 653.98715 150.67383 652.80078 C 150.58386 651.61441 150.36739 650.36607 150.04102 649.06445 C 149.38827 646.46122 148.2969 643.64108 146.89844 640.6582 C 145.49997 637.67533 143.79563 634.53139 141.91797 631.27734 C 138.16264 624.76925 133.7155 617.82673 129.64258 610.88477 C 127.60612 607.41378 125.66333 603.94214 123.94727 600.52539 C 122.2312 597.10864 120.74046 593.74623 119.61133 590.49219 C 119.04676 588.86516 118.57294 587.26523 118.20508 585.69922 C 117.83722 584.13321 117.57534 582.60079 117.4375 581.10938 C 117.29966 579.61793 117.28661 578.16698 117.41211 576.76367 C 117.53761 575.36036 117.80245 574.00477 118.22461 572.70312 C 118.64677 571.40152 119.22443 570.15512 119.97656 568.96875 C 120.72869 567.78238 121.65607 566.65717 122.77148 565.59961 C 123.8869 564.54204 125.19111 563.55192 126.70312 562.63672 C 128.21518 561.72152 129.93306 560.88037 131.875 560.12109 C 133.81694 559.36182 135.98349 558.68355 138.38867 558.09375 C 140.79385 557.50395 143.43811 557.00246 146.33984 556.5957 C 149.24158 556.18895 152.40043 555.87813 155.83203 555.66797 C 159.26364 555.45781 162.9681 555.34961 166.96289 555.34961 C 170.58756 555.34961 173.94916 555.45781 177.06055 555.66797 C 180.17194 555.87813 183.03315 556.18895 185.66211 556.5957 C 188.29107 557.00246 190.68787 557.50395 192.86523 558.09375 C 195.0426 558.68355 197.00119 559.36182 198.75781 560.12109 C 200.51443 560.88037 202.06883 561.72152 203.43555 562.63672 C 204.80226 563.55192 205.98063 564.54204 206.98828 565.59961 C 207.99594 566.65717 208.83228 567.78238 209.51172 568.96875 C 210.19115 570.15512 210.71365 571.40154 211.0957 572.70312 C 211.47776 574.00474 211.71846 575.36036 211.83398 576.76367 C 211.94951 578.16698 211.94048 579.61791 211.82031 581.10938 C 211.70014 582.60081 211.46955 584.13321 211.14453 585.69922 C 210.81951 587.26523 210.39942 588.86516 209.90039 590.49219 C 208.90233 593.74623 207.58716 597.10864 206.07812 600.52539 C 204.56909 603.94214 202.86702 607.41378 201.09375 610.88477 C 197.54721 617.82673 193.71875 624.76925 190.5957 631.27734 C 189.03418 634.53139 187.64804 637.67533 186.5625 640.6582 C 185.47696 643.64108 184.69094 646.46122 184.32812 649.06445 C 184.14672 650.36607 184.07165 651.61441 184.11719 652.80078 C 184.16272 653.98715 184.32949 655.11236 184.63281 656.16992 C 184.93613 657.22749 185.3768 658.21761 185.96875 659.13281 C 186.5607 660.04801 187.30342 660.88916 188.21484 661.64844 C 189.12627 662.40771 190.20506 663.08403 191.4668 663.67383 C 192.72853 664.26362 194.17351 664.76512 195.81641 665.17188 C 197.4593 665.57862 199.30058 665.89141 201.35547 666.10156 C 203.41036 666.31172 205.68 666.41992 208.17773 666.41992 L 333.67578 666.41992 L 334.08008 666.41992 L 334.08008 532.64648 C 334.08008 530.71663 334.18039 528.99645 334.375 527.46875 C 334.56961 525.94105 334.8577 524.60649 335.23438 523.45117 C 335.61105 522.29585 336.07687 521.31859 336.62305 520.50586 C 337.16922 519.69313 337.79687 519.04485 338.5 518.54492 C 339.20313 518.045 339.98061 517.69347 340.82812 517.47656 C 341.67564 517.25966 342.59291 517.17656 343.57227 517.21289 C 344.55162 517.24922 345.59473 517.40623 346.69336 517.66602 C 347.79199 517.9258 348.94699 518.28873 350.15234 518.74219 C 352.56306 519.6491 355.17327 520.91314 357.93555 522.41602 C 360.69782 523.91889 363.61161 525.66092 366.625 527.52148 C 372.65179 531.24261 379.07924 535.44182 385.50781 539.16406 C 388.7221 541.02518 391.9375 542.7675 395.10156 544.27148 C 398.26563 545.77547 401.37919 547.04065 404.39258 547.94922 C 405.89927 548.4035 407.38184 548.76854 408.83203 549.0293 C 410.28223 549.29005 411.70089 549.44693 413.08203 549.48438 C 414.46317 549.52182 415.80594 549.44027 417.10547 549.22461 C 418.40499 549.00895 419.65988 548.6587 420.86523 548.16016 C 422.07059 547.66162 423.22559 547.01433 424.32422 546.20312 C 425.42285 545.39192 426.46596 544.41733 427.44531 543.26367 C 428.42467 542.11001 429.34194 540.77785 430.18945 539.25195 C 431.03697 537.72606 431.81445 536.00604 432.51758 534.07812 C 433.2207 532.15021 433.84835 530.01402 434.39453 527.6543 C 434.94071 525.29457 435.40458 522.71194 435.78125 519.89062 C 436.15792 517.06931 436.44796 514.008 436.64258 510.69531 C 436.83719 507.38263 436.9375 503.81822 436.9375 499.98438 C 436.9375 496.30498 436.83719 492.88713 436.64258 489.7168 C 436.44796 486.54647 436.15792 483.62223 435.78125 480.93164 C 435.40458 478.24106 434.94071 475.78312 434.39453 473.54297 C 433.84835 471.30282 433.2207 469.28193 432.51758 467.46289 C 431.81445 465.64385 431.03697 464.02685 430.18945 462.59961 C 429.34194 461.17237 428.42467 459.93389 427.44531 458.86914 C 426.46596 457.80439 425.42285 456.91322 424.32422 456.18164 C 423.22559 455.45006 422.07059 454.8789 420.86523 454.45117 C 419.65988 454.02344 418.40499 453.73913 417.10547 453.58594 C 415.80594 453.43275 414.46317 453.40992 413.08203 453.50195 C 411.70089 453.59399 410.28223 453.80143 408.83203 454.10938 C 407.38184 454.41732 405.89927 454.82578 404.39258 455.32031 C 401.37919 456.30938 398.26563 457.64163 395.10156 459.20117 C 391.9375 460.76072 388.7221 462.54786 385.50781 464.44336 C 379.07924 468.23436 372.65179 472.46178 366.625 476.18945 C 363.61161 478.05329 360.69782 479.79284 357.93555 481.28906 C 355.17327 482.78528 352.56306 484.03951 350.15234 484.93359 C 348.94699 485.38063 347.79199 485.7377 346.69336 485.99023 C 345.59473 486.24277 344.55162 486.39121 343.57227 486.41992 C 342.59291 486.44863 341.67564 486.35724 340.82812 486.13281 C 339.98061 485.90838 339.20313 485.54985 338.5 485.04297 C 337.79687 484.53608 337.16922 483.88116 336.62305 483.0625 C 336.07687 482.24384 335.61105 481.2613 335.23438 480.10156 C 334.8577 478.94182 334.56961 477.60436 334.375 476.07422 C 334.18039 474.54408 334.08008 472.82244 334.08008 470.89258 L 334.08008 333.22852 L 334.08008 333.08984 z "
       id="path4263"
       transform="translate(-0.25015164,52.112114)" />
    <path
       style="opacity:1;fill:#b4b4b4;fill-opacity:0.70588235;stroke:#000000;stroke-width:15;stroke-miterlimit:4;stroke-dasharray:none;stroke-opacity:1"
       d="M 334.08008 333.08984 L 334.08008 333.22852 L 334.08008 470.89258 C 334.08008 472.82244 334.18039 474.54408 334.375 476.07422 C 334.56961 477.60436 334.8577 478.94182 335.23438 480.10156 C 335.61105 481.2613 336.07687 482.24384 336.62305 483.0625 C 337.16922 483.88116 337.79687 484.53608 338.5 485.04297 C 339.20313 485.54985 339.98061 485.90838 340.82812 486.13281 C 341.67564 486.35724 342.59291 486.44863 343.57227 486.41992 C 344.55162 486.39121 345.59473 486.24277 346.69336 485.99023 C 347.79199 485.7377 348.94699 485.38063 350.15234 484.93359 C 352.56306 484.03951 355.17327 482.78528 357.93555 481.28906 C 360.69782 479.79284 363.61161 478.05329 366.625 476.18945 C 372.65179 472.46178 379.07924 468.23436 385.50781 464.44336 C 388.7221 462.54786 391.9375 460.76072 395.10156 459.20117 C 398.26563 457.64163 401.37919 456.30938 404.39258 455.32031 C 405.89927 454.82578 407.38184 454.41732 408.83203 454.10938 C 410.28223 453.80143 411.70089 453.59399 413.08203 453.50195 C 414.46317 453.40992 415.80594 453.43275 417.10547 453.58594 C 418.40499 453.73913 419.65988 454.02344 420.86523 454.45117 C 422.07059 454.8789 423.22559 455.45006 424.32422 456.18164 C 425.42285 456.91322 426.46596 457.80439 427.44531 458.86914 C 428.42467 459.93389 429.34194 461.17237 430.18945 462.59961 C 431.03697 464.02685 431.81445 465.64385 432.51758 467.46289 C 433.2207 469.28193 433.84835 471.30282 434.39453 473.54297 C 434.94071 475.78312 435.40458 478.24106 435.78125 480.93164 C 436.15792 483.62223 436.44796 486.54647 436.64258 489.7168 C 436.83719 492.88713 436.9375 496.30498 436.9375 499.98438 C 436.9375 503.81822 436.83719 507.38263 436.64258 510.69531 C 436.44796 514.008 436.15792 517.06931 435.78125 519.89062 C 435.40458 522.71194 434.94071 525.29457 434.39453 527.6543 C 433.84835 530.01402 433.2207 532.15021 432.51758 534.07812 C 431.81445 536.00604 431.03697 537.72606 430.18945 539.25195 C 429.34194 540.77785 428.42467 542.11001 427.44531 543.26367 C 426.46596 544.41733 425.42285 545.39192 424.32422 546.20312 C 423.22559 547.01433 422.07059 547.66162 420.86523 548.16016 C 419.65988 548.6587 418.40499 549.00895 417.10547 549.22461 C 415.80594 549.44027 414.46317 549.52182 413.08203 549.48438 C 411.70089 549.44693 410.28223 549.29005 408.83203 549.0293 C 407.38184 548.76854 405.89927 548.4035 404.39258 547.94922 C 401.37919 547.04065 398.26563 545.77547 395.10156 544.27148 C 391.9375 542.7675 388.7221 541.02518 385.50781 539.16406 C 379.07924 535.44182 372.65179 531.24261 366.625 527.52148 C 363.61161 525.66092 360.69782 523.91889 357.93555 522.41602 C 355.17327 520.91314 352.56306 519.6491 350.15234 518.74219 C 348.94699 518.28873 347.79199 517.9258 346.69336 517.66602 C 345.59473 517.40623 344.55162 517.24922 343.57227 517.21289 C 342.59291 517.17656 341.67564 517.25966 340.82812 517.47656 C 339.98061 517.69347 339.20313 518.045 338.5 518.54492 C 337.79687 519.04485 337.16922 519.69313 336.62305 520.50586 C 336.07687 521.31859 335.61105 522.29585 335.23438 523.45117 C 334.8577 524.60649 334.56961 525.94105 334.375 527.46875 C 334.18039 528.99645 334.08008 530.71663 334.08008 532.64648 L 334.08008 666.41992 L 457.0918 666.41992 C 459.50193 666.41992 461.68442 666.31292 463.6543 666.10547 C 465.62418 665.89801 467.38054 665.59098 468.94141 665.18945 C 470.50227 664.78793 471.86769 664.29119 473.05078 663.70898 C 474.23387 663.12677 475.2357 662.4585 476.07227 661.70898 C 476.90883 660.95947 477.58029 660.12999 478.10156 659.22656 C 478.62284 658.32313 478.99324 657.34474 479.23047 656.30078 C 479.4677 655.25682 479.57025 654.14767 479.55469 652.97656 C 479.53912 651.80545 479.40509 650.57394 479.16797 649.28906 C 478.69372 646.71931 477.80779 643.93474 476.63477 640.99023 C 475.46174 638.04572 474.00271 634.94071 472.38086 631.72852 C 469.13716 625.30413 465.24443 618.45229 461.70508 611.59961 C 459.9354 608.17327 458.25383 604.74585 456.78516 601.37305 C 455.31648 598.00024 454.06226 594.68094 453.14453 591.46875 C 452.68567 589.86265 452.31137 588.28415 452.03711 586.73828 C 451.76284 585.19241 451.58772 583.67929 451.5293 582.20703 C 451.47088 580.73478 451.52813 579.30323 451.7168 577.91797 C 451.90546 576.53271 452.22637 575.19308 452.69336 573.9082 C 453.16035 572.62333 453.77421 571.39182 454.55078 570.2207 C 455.32735 569.04959 456.26543 567.94045 457.38281 566.89648 C 458.50019 565.85252 459.79572 564.87413 461.28516 563.9707 C 462.7746 563.06727 464.45882 562.23779 466.35156 561.48828 C 468.2443 560.73877 470.34654 560.07049 472.67383 559.48828 C 475.00111 558.90607 477.55263 558.40934 480.3457 558.00781 C 483.13878 557.60629 486.17279 557.29925 489.46289 557.0918 C 492.75299 556.88434 496.29881 556.77734 500.11719 556.77734 C 504.16727 556.77734 507.93223 556.88434 511.42578 557.0918 C 514.91933 557.29925 518.14228 557.60629 521.11133 558.00781 C 524.08038 558.40934 526.79491 558.90607 529.27148 559.48828 C 531.74806 560.07049 533.98778 560.73877 536.00391 561.48828 C 538.02003 562.23779 539.81269 563.06727 541.40039 563.9707 C 542.9881 564.87413 544.36924 565.85252 545.56055 566.89648 C 546.75185 567.94045 547.75314 569.04959 548.58008 570.2207 C 549.40701 571.39182 550.0601 572.62333 550.55469 573.9082 C 551.04928 575.19308 551.38581 576.53271 551.58008 577.91797 C 551.77435 579.30323 551.82598 580.73478 551.75195 582.20703 C 551.67793 583.67929 551.47826 585.19241 551.16797 586.73828 C 550.85768 588.28415 550.4364 589.86265 549.92188 591.46875 C 548.89279 594.68094 547.48787 598.00024 545.83398 601.37305 C 544.1801 604.74585 542.27836 608.17327 540.25586 611.59961 C 536.21087 618.45229 531.68531 625.30413 527.70312 631.72852 C 525.71204 634.94071 523.85671 638.04572 522.26562 640.99023 C 520.67454 643.93474 519.34698 646.71931 518.41211 649.28906 C 517.94468 650.57394 517.57565 651.80545 517.32031 652.97656 C 517.06497 654.14767 516.92333 655.25682 516.91211 656.30078 C 516.90089 657.34474 517.02023 658.32313 517.28516 659.22656 C 517.55008 660.12999 517.96011 660.95947 518.5332 661.70898 C 519.1063 662.4585 519.84257 663.12677 520.75586 663.70898 C 521.66915 664.29119 522.75941 664.78793 524.04492 665.18945 C 525.33043 665.59098 526.81024 665.89801 528.5 666.10547 C 530.18976 666.31292 532.09077 666.41992 534.2168 666.41992 L 666.56055 666.41992 L 667.41016 666.41992 L 667.41016 540.1543 C 667.41016 537.7578 667.30616 535.59036 667.10547 533.63672 C 666.90478 531.68307 666.60718 529.9426 666.21875 528.40039 C 665.83032 526.85818 665.35228 525.51375 664.78906 524.35156 C 664.22585 523.18938 663.57858 522.21006 662.85352 521.39648 C 662.12845 520.58291 661.32513 519.93583 660.45117 519.43945 C 659.57721 518.94308 658.631 518.59731 657.62109 518.38672 C 656.61119 518.17613 655.5372 518.10075 654.4043 518.14453 C 653.27139 518.18831 652.08085 518.35045 650.83789 518.61719 C 648.35197 519.15066 645.659 520.09911 642.81055 521.33594 C 639.96209 522.57277 636.95701 524.09823 633.84961 525.78711 C 627.6348 529.16487 621.00608 533.19491 614.37695 536.87305 C 611.06239 538.71212 607.74715 540.46474 604.48438 542.00195 C 601.22159 543.53916 598.0117 544.86166 594.9043 545.8457 C 593.3506 546.33773 591.82161 546.74417 590.32617 547.05078 C 588.83073 547.35739 587.36954 547.56451 585.94531 547.6543 C 584.52109 547.74409 583.13499 547.71704 581.79492 547.55859 C 580.45485 547.40015 579.15898 547.10996 577.91602 546.67188 C 576.67305 546.23378 575.48252 545.6476 574.34961 544.89844 C 573.2167 544.14928 572.14272 543.23812 571.13281 542.14648 C 570.12291 541.05485 569.17669 539.78388 568.30273 538.31836 C 567.42878 536.85284 566.6274 535.19114 565.90234 533.32031 C 565.17728 531.44949 564.53001 529.36809 563.9668 527.06055 C 563.40358 524.75301 562.92358 522.22098 562.53516 519.44531 C 562.14673 516.66965 561.84912 513.65216 561.64844 510.37695 C 561.44775 507.10175 561.34375 503.56788 561.34375 499.76172 C 561.34375 496.07767 561.44775 492.66415 561.64844 489.50391 C 561.84912 486.34366 562.14673 483.43718 562.53516 480.76953 C 562.92358 478.10188 563.40358 475.67304 563.9668 473.4668 C 564.53001 471.26055 565.17728 469.27604 565.90234 467.5 C 566.6274 465.72396 567.42878 464.15633 568.30273 462.7793 C 569.17669 461.40227 570.12291 460.21625 571.13281 459.20703 C 572.14272 458.19781 573.2167 457.36401 574.34961 456.69141 C 575.48252 456.0188 576.67305 455.50783 577.91602 455.14062 C 579.15898 454.77344 580.45485 454.55001 581.79492 454.45703 C 583.13499 454.36406 584.52109 454.40074 585.94531 454.55078 C 587.36954 454.70083 588.83073 454.9643 590.32617 455.32617 C 591.82161 455.68804 593.3506 456.14891 594.9043 456.69141 C 598.0117 457.77639 601.2216 459.1922 604.48438 460.8125 C 607.74715 462.4328 611.06239 464.25803 614.37695 466.16406 C 621.00608 469.97613 627.6348 474.10889 633.84961 477.56641 C 636.95701 479.29517 639.96209 480.85534 642.81055 482.12109 C 645.659 483.38685 648.35197 484.35894 650.83789 484.91211 C 652.08085 485.18869 653.27139 485.36047 654.4043 485.41211 C 655.5372 485.46375 656.61119 485.39591 657.62109 485.19141 C 658.631 484.98691 659.57721 484.64614 660.45117 484.1543 C 661.32513 483.66246 662.12845 483.01936 662.85352 482.20898 C 663.57858 481.39861 664.22585 480.41987 664.78906 479.25977 C 665.35228 478.09966 665.83032 476.75784 666.21875 475.2168 C 666.60718 473.67576 666.90478 471.93559 667.10547 469.98242 C 667.30616 468.02925 667.41016 465.86329 667.41016 463.4668 L 667.41016 333.08984 L 667 333.08984 L 535.13477 333.08984 C 532.8976 333.08984 530.89038 333.2115 529.09766 333.44531 C 527.30493 333.67912 525.72618 334.02598 524.3457 334.47852 C 522.96523 334.93105 521.78166 335.48836 520.78125 336.14453 C 519.78084 336.8007 518.96307 337.55566 518.31055 338.40039 C 517.65802 339.24512 517.17082 340.17907 516.83398 341.19727 C 516.49715 342.21546 516.31113 343.31756 516.25781 344.49414 C 516.20449 345.67072 516.28442 346.9223 516.48242 348.24219 C 516.68042 349.56207 516.99692 350.95033 517.41406 352.39844 C 518.24834 355.29464 519.48814 358.43143 521.00586 361.75 C 522.52357 365.06857 524.31805 368.5692 526.26172 372.18945 C 530.14905 379.42997 534.63151 387.15179 538.67773 394.875 C 540.70085 398.73661 542.61441 402.59912 544.29102 406.40039 C 545.96762 410.20166 547.40785 413.94224 548.48047 417.5625 C 549.01678 419.37263 549.45984 421.15228 549.79688 422.89453 C 550.13391 424.63678 550.36318 426.34267 550.46875 428.00195 C 550.57432 429.66124 550.55651 431.2747 550.39844 432.83594 C 550.24036 434.39717 549.94219 435.90541 549.48828 437.35352 C 549.03437 438.80162 548.42451 440.18988 547.64258 441.50977 C 546.86065 442.82965 545.90776 444.08123 544.76562 445.25781 C 543.62349 446.4344 542.29234 447.53454 540.75781 448.55273 C 539.22329 449.57093 537.48449 450.50684 535.52539 451.35156 C 533.56629 452.19629 531.38657 452.95125 528.9707 453.60742 C 526.55484 454.26359 523.90286 454.82091 520.99805 455.27344 C 518.09324 455.72597 514.93571 456.07283 511.50977 456.30664 C 508.08382 456.54045 504.38942 456.66211 500.41016 456.66211 C 496.62244 456.66211 493.10559 456.54045 489.84375 456.30664 C 486.58191 456.07283 483.57535 455.72597 480.80859 455.27344 C 478.04184 454.82091 475.51537 454.26359 473.21289 453.60742 C 470.91041 452.95125 468.83189 452.19629 466.96289 451.35156 C 465.09389 450.50684 463.43507 449.57093 461.96875 448.55273 C 460.50243 447.53454 459.22922 446.4344 458.13477 445.25781 C 457.04032 444.08123 456.12447 442.82965 455.37109 441.50977 C 454.61772 440.18988 454.02709 438.80162 453.58398 437.35352 C 453.14088 435.90541 452.84528 434.39717 452.68164 432.83594 C 452.518 431.2747 452.48529 429.66124 452.57031 428.00195 C 452.65534 426.34267 452.85726 424.63678 453.16016 422.89453 C 453.46305 421.15228 453.86747 419.37263 454.35742 417.5625 C 455.33733 413.94224 456.65977 410.20166 458.20312 406.40039 C 459.74649 402.59912 461.51072 398.73661 463.37109 394.875 C 467.09185 387.15179 471.20056 379.42997 474.71094 372.18945 C 476.46612 368.5692 478.07133 365.06857 479.4043 361.75 C 480.73727 358.43143 481.79855 355.29464 482.46289 352.39844 C 482.79506 350.95033 483.02767 349.56207 483.14648 348.24219 C 483.26529 346.9223 483.26988 345.67072 483.14453 344.49414 C 483.01918 343.31756 482.7636 342.21546 482.36328 341.19727 C 481.96297 340.17907 481.41702 339.24512 480.71094 338.40039 C 480.00486 337.55566 479.13835 336.8007 478.0957 336.14453 C 477.05305 335.48836 475.83385 334.93105 474.42383 334.47852 C 473.01381 334.02598 471.41366 333.67912 469.60547 333.44531 C 467.79728 333.2115 465.78208 333.08984 463.54492 333.08984 L 334.08008 333.08984 z "
       id="path4233"
       transform="translate(-0.25015164,52.112114)" />
    <path
       style="opacity:1;fill:#b4b4b4;fill-opacity:0.70588235;stroke:#000000;stroke-width:15;stroke-miterlimit:4;stroke-dasharray:none;stroke-opacity:1"
       d="M 667.41016 333.08984 L 667.41016 463.4668 C 667.41016 465.86329 667.30616 468.02925 667.10547 469.98242 C 666.90478 471.93559 666.60718 473.67576 666.21875 475.2168 C 665.83032 476.75784 665.35228 478.09966 664.78906 479.25977 C 664.22585 480.41987 663.57858 481.39861 662.85352 482.20898 C 662.12845 483.01936 661.32513 483.66246 660.45117 484.1543 C 659.57721 484.64614 658.631 484.98691 657.62109 485.19141 C 656.61119 485.39591 655.5372 485.46375 654.4043 485.41211 C 653.27139 485.36047 652.08085 485.18869 650.83789 484.91211 C 648.35197 484.35894 645.659 483.38685 642.81055 482.12109 C 639.96209 480.85534 636.95701 479.29517 633.84961 477.56641 C 627.6348 474.10889 621.00608 469.97613 614.37695 466.16406 C 611.06239 464.25803 607.74715 462.4328 604.48438 460.8125 C 601.2216 459.1922 598.0117 457.77639 594.9043 456.69141 C 593.3506 456.14891 591.82161 455.68804 590.32617 455.32617 C 588.83073 454.9643 587.36954 454.70083 585.94531 454.55078 C 584.52109 454.40074 583.13499 454.36406 581.79492 454.45703 C 580.45485 454.55001 579.15898 454.77343 577.91602 455.14062 C 576.67305 455.50782 575.48252 456.0188 574.34961 456.69141 C 573.2167 457.36401 572.14272 458.19781 571.13281 459.20703 C 570.12291 460.21625 569.17669 461.40227 568.30273 462.7793 C 567.42878 464.15633 566.6274 465.72396 565.90234 467.5 C 565.17728 469.27604 564.53001 471.26055 563.9668 473.4668 C 563.40358 475.67304 562.92358 478.10188 562.53516 480.76953 C 562.14673 483.43718 561.84912 486.34366 561.64844 489.50391 C 561.44775 492.66415 561.34375 496.07767 561.34375 499.76172 C 561.34375 503.56788 561.44775 507.10175 561.64844 510.37695 C 561.84912 513.65216 562.14673 516.66965 562.53516 519.44531 C 562.92358 522.22098 563.40358 524.75301 563.9668 527.06055 C 564.53001 529.36809 565.17728 531.44949 565.90234 533.32031 C 566.6274 535.19114 567.42878 536.85284 568.30273 538.31836 C 569.17669 539.78388 570.12291 541.05485 571.13281 542.14648 C 572.14272 543.23812 573.2167 544.14928 574.34961 544.89844 C 575.48252 545.6476 576.67305 546.23378 577.91602 546.67188 C 579.15898 547.10997 580.45485 547.40015 581.79492 547.55859 C 583.13499 547.71704 584.52109 547.74409 585.94531 547.6543 C 587.36954 547.56451 588.83073 547.35739 590.32617 547.05078 C 591.82161 546.74417 593.3506 546.33773 594.9043 545.8457 C 598.0117 544.86166 601.2216 543.53916 604.48438 542.00195 C 607.74715 540.46474 611.06239 538.71212 614.37695 536.87305 C 621.00608 533.19491 627.6348 529.16487 633.84961 525.78711 C 636.95701 524.09823 639.96209 522.57277 642.81055 521.33594 C 645.659 520.09911 648.35197 519.15066 650.83789 518.61719 C 652.08085 518.35045 653.27139 518.18831 654.4043 518.14453 C 655.5372 518.10075 656.61119 518.17613 657.62109 518.38672 C 658.631 518.59731 659.57721 518.94308 660.45117 519.43945 C 661.32513 519.93583 662.12845 520.58291 662.85352 521.39648 C 663.57858 522.21006 664.22585 523.18938 664.78906 524.35156 C 665.35228 525.51375 665.83032 526.85818 666.21875 528.40039 C 666.60718 529.9426 666.90478 531.68307 667.10547 533.63672 C 667.30616 535.59036 667.41016 537.7578 667.41016 540.1543 L 667.41016 666.41992 L 775.15625 666.41992 C 778.28278 666.41992 781.15236 666.3142 783.78125 666.10742 C 786.41014 665.90064 788.79843 665.59358 790.96289 665.19336 C 793.12736 664.79314 795.06754 664.29906 796.80078 663.71875 C 798.53402 663.13844 800.05931 662.47168 801.39453 661.72461 C 802.72975 660.97754 803.8753 660.15049 804.8457 659.25 C 805.81611 658.34951 806.61121 657.37455 807.25 656.33398 C 807.88879 655.29342 808.37055 654.18683 808.71094 653.01953 C 809.05133 651.85223 809.25098 650.62444 809.32617 649.34375 C 809.40136 648.06306 809.35212 646.73036 809.19531 645.34961 C 809.03851 643.96886 808.77356 642.53973 808.41797 641.07227 C 807.70678 638.13735 806.63133 635.04353 805.32422 631.8418 C 804.01711 628.64007 802.47919 625.33057 800.8418 621.96875 C 799.2044 618.60693 797.46767 615.19252 795.76562 611.77734 C 794.06358 608.36217 792.39558 604.94775 790.89453 601.58594 C 789.39349 598.22412 788.0598 594.91462 787.02539 591.71289 C 786.50819 590.11203 786.06558 588.53888 785.71484 586.99805 C 785.36411 585.45721 785.1042 583.94793 784.95312 582.48047 C 784.80206 581.01301 784.75998 579.58582 784.8418 578.20508 C 784.92361 576.82433 785.13062 575.49163 785.47852 574.21094 C 785.82641 572.93025 786.31571 571.70245 786.96289 570.53516 C 787.61007 569.36786 788.41486 568.26127 789.39453 567.2207 C 790.37421 566.18014 791.52767 565.20517 792.87305 564.30469 C 794.21842 563.4042 795.75572 562.57715 797.5 561.83008 C 799.24428 561.08301 801.19666 560.41625 803.37305 559.83594 C 805.54943 559.25562 807.9501 558.76154 810.5918 558.36133 C 813.23349 557.96111 816.11564 557.65404 819.25586 557.44727 C 822.39608 557.24049 825.79486 557.13477 829.4668 557.13477 C 833.48335 557.13477 837.19455 557.24049 840.62109 557.44727 C 844.04764 557.65404 847.18774 557.96111 850.06055 558.36133 C 852.93336 558.76154 855.53919 559.25562 857.89453 559.83594 C 860.24987 560.41625 862.35632 561.08301 864.23047 561.83008 C 866.10461 562.57715 867.74656 563.4042 869.17578 564.30469 C 870.605 565.20517 871.82123 566.18014 872.8418 567.2207 C 873.86236 568.26127 874.68776 569.36786 875.33594 570.53516 C 875.98412 571.70245 876.45551 572.93025 876.76758 574.21094 C 877.07964 575.49163 877.23192 576.82433 877.24414 578.20508 C 877.25636 579.58582 877.1283 581.01301 876.87695 582.48047 C 876.6256 583.94793 876.25014 585.45721 875.77148 586.99805 C 875.29283 588.53888 874.7107 590.11203 874.04102 591.71289 C 872.70165 594.91462 871.01673 598.22412 869.13086 601.58594 C 867.24499 604.94775 865.15783 608.36217 863.01562 611.77734 C 858.73122 618.6077 854.22502 625.43834 850.65625 631.8418 C 848.87187 635.04353 847.32061 638.13735 846.15039 641.07227 C 845.56528 642.53973 845.07638 643.96886 844.69922 645.34961 C 844.32205 646.73036 844.05678 648.06306 843.92383 649.34375 C 843.79088 650.62444 843.78996 651.85223 843.9375 653.01953 C 844.08504 654.18683 844.38141 655.29342 844.8457 656.33398 C 845.31 657.37455 845.94244 658.34951 846.75977 659.25 C 847.57709 660.15049 848.57853 660.97754 849.78516 661.72461 C 850.99178 662.47168 852.40296 663.13844 854.03516 663.71875 C 855.66735 664.29906 857.5212 664.79314 859.61523 665.19336 C 861.70927 665.59358 864.04262 665.90064 866.63477 666.10742 C 869.22691 666.3142 872.07855 666.41992 875.20508 666.41992 L 993 666.41992 L 993 333.08984 L 874.02734 333.08984 C 870.94197 333.08984 868.13406 333.21211 865.58594 333.44727 C 863.03782 333.68243 860.74878 334.03118 858.70117 334.48633 C 856.65356 334.94148 854.84751 335.50214 853.26367 336.16211 C 851.67984 336.82207 850.31891 337.58008 849.16211 338.42969 C 848.0053 339.2793 847.05167 340.22006 846.28516 341.24414 C 845.51864 342.26822 844.93836 343.37716 844.52539 344.56055 C 844.11242 345.74393 843.86764 347.00256 843.77148 348.33008 C 843.67533 349.65759 843.7282 351.05329 843.91211 352.50977 C 844.09602 353.96624 844.41066 355.48247 844.83789 357.05273 C 845.26512 358.62299 845.80564 360.24714 846.43945 361.91602 C 847.70709 365.25377 849.35109 368.77288 851.22461 372.41406 C 854.97165 379.69643 859.63594 387.46456 864.04297 395.23242 C 866.24648 399.11635 868.38489 403.00098 870.3125 406.82422 C 872.24011 410.64746 873.95667 414.4096 875.31445 418.05078 C 875.99335 419.87137 876.58313 421.66174 877.06445 423.41406 C 877.54578 425.16638 877.919 426.87995 878.16602 428.54883 C 878.41303 430.2177 878.5338 431.84185 878.50977 433.41211 C 878.48573 434.98237 878.31619 436.50056 877.98438 437.95703 C 877.65255 439.4135 877.15878 440.8092 876.48242 442.13672 C 875.80606 443.46423 874.94827 444.72287 873.89062 445.90625 C 872.83299 447.08963 871.57526 448.19662 870.09961 449.2207 C 868.62396 450.24479 866.93041 451.18555 865 452.03516 C 863.06959 452.88477 860.90238 453.64277 858.48047 454.30273 C 856.05856 454.9627 853.38179 455.52532 850.43164 455.98047 C 847.48149 456.43562 844.25731 456.78437 840.74219 457.01953 C 837.22706 457.25469 833.41958 457.375 829.30273 457.375 C 825.06094 457.375 821.12872 457.25469 817.48633 457.01953 C 813.84394 456.78437 810.49143 456.43562 807.41211 455.98047 C 804.33278 455.52532 801.52721 454.9627 798.97461 454.30273 C 796.42201 453.64277 794.12276 452.88477 792.06055 452.03516 C 789.99833 451.18555 788.17262 450.24479 786.56445 449.2207 C 784.95628 448.19662 783.56546 447.08963 782.375 445.90625 C 781.18454 444.72287 780.19386 443.46423 779.38477 442.13672 C 778.57567 440.8092 777.94844 439.4135 777.48438 437.95703 C 777.0203 436.50056 776.71984 434.98237 776.56445 433.41211 C 776.40907 431.84185 776.39867 430.2177 776.51562 428.54883 C 776.63258 426.87995 776.8775 425.16638 777.23047 423.41406 C 777.58344 421.66174 778.04502 419.87137 778.59766 418.05078 C 779.70292 414.4096 781.17153 410.64746 782.85742 406.82422 C 784.54332 403.00098 786.44607 399.11635 788.42188 395.23242 C 792.37348 387.46456 796.61352 379.69643 799.98047 372.41406 C 801.66394 368.77288 803.12924 365.25377 804.23047 361.91602 C 804.78109 360.24714 805.24125 358.62299 805.5918 357.05273 C 805.94234 355.48247 806.18469 353.96624 806.29883 352.50977 C 806.41296 351.05329 806.39885 349.65759 806.24023 348.33008 C 806.08162 347.00256 805.77825 345.74393 805.31055 344.56055 C 804.84284 343.37716 804.21157 342.26822 803.39844 341.24414 C 802.5853 340.22006 801.58943 339.2793 800.39453 338.42969 C 799.19963 337.58008 797.80442 336.82207 796.19141 336.16211 C 794.57839 335.50214 792.74715 334.94148 790.67969 334.48633 C 788.61223 334.03118 786.30825 333.68243 783.75 333.44727 C 781.19175 333.21211 778.3803 333.08984 775.29492 333.08984 L 667.41016 333.08984 z "
       id="path4191"
       transform="translate(-0.25015164,52.112114)" />
    <path
       style="opacity:1;fill:#b4b4b4;fill-opacity:0.70588235;stroke:#000000;stroke-width:15;stroke-miterlimit:4;stroke-dasharray:none;stroke-opacity:1"
       d="M 334.08008 7.5 L 7.5 7.5 L 7.5 333.08984 L 130.56641 333.08984 C 132.89853 333.08984 135.00041 333.21338 136.88867 333.45117 C 138.77693 333.68896 140.45168 334.04171 141.92773 334.50195 C 143.40379 334.96219 144.68184 335.52992 145.77734 336.19727 C 146.87284 336.86461 147.78464 337.63112 148.53125 338.49023 C 149.27786 339.34935 149.85774 340.3004 150.28711 341.33594 C 150.71648 342.37148 150.99684 343.49088 151.14062 344.6875 C 151.28442 345.88412 151.29177 347.15763 151.18164 348.5 C 151.07151 349.84237 150.84411 351.25379 150.51172 352.72656 C 149.84694 355.6721 148.76818 358.86319 147.4043 362.23828 C 146.04041 365.61338 144.38981 369.17355 142.58008 372.85547 C 138.96061 380.21931 134.70362 388.07297 130.82031 395.92773 C 128.87866 399.85512 127.03006 403.78242 125.40234 407.64844 C 123.77462 411.51446 122.36717 415.32003 121.30664 419.00195 C 120.77638 420.84291 120.33317 422.6519 119.99219 424.42383 C 119.65121 426.19575 119.41301 427.92964 119.29297 429.61719 C 119.17293 431.30474 119.17017 432.94733 119.30273 434.53516 C 119.43529 436.12299 119.70232 437.65614 120.11914 439.12891 C 120.53596 440.60168 121.10321 442.0131 121.83594 443.35547 C 122.56867 444.69784 123.46655 445.97134 124.54688 447.16797 C 125.62717 448.36459 126.89008 449.48399 128.34961 450.51953 C 129.80914 451.55507 131.46552 452.50807 133.33594 453.36719 C 135.20635 454.2263 137.29055 454.99281 139.60352 455.66016 C 141.91648 456.3275 144.45893 456.89523 147.24609 457.35547 C 150.03326 457.81571 153.06635 458.16846 156.35938 458.40625 C 159.6524 458.64404 163.20462 458.76564 167.03516 458.76562 C 170.63798 458.76562 173.97987 458.64404 177.07617 458.40625 C 180.17247 458.16846 183.02464 457.81571 185.64453 457.35547 C 188.26442 456.89523 190.65257 456.3275 192.82617 455.66016 C 194.99977 454.99281 196.95741 454.2263 198.71484 453.36719 C 200.47227 452.50807 202.02902 451.55507 203.40039 450.51953 C 204.77176 449.48399 205.95918 448.36459 206.97461 447.16797 C 207.99004 445.97134 208.83383 444.69784 209.52344 443.35547 C 210.21305 442.0131 210.74867 440.60168 211.14258 439.12891 C 211.53649 437.65614 211.78965 436.12299 211.91797 434.53516 C 212.04629 432.94733 212.04856 431.30474 211.94141 429.61719 C 211.83426 427.92964 211.61719 426.19575 211.30469 424.42383 C 210.99218 422.6519 210.5854 420.84291 210.09766 419.00195 C 209.12218 415.32003 207.8258 411.51446 206.33008 407.64844 C 204.83436 403.78242 203.13831 399.85512 201.36328 395.92773 C 197.81322 388.07297 193.94627 380.21931 190.72461 372.85547 C 189.11378 369.17355 187.66342 365.61338 186.49609 362.23828 C 185.32877 358.86319 184.44382 355.6721 183.96094 352.72656 C 183.7195 351.25379 183.57789 349.84237 183.55273 348.5 C 183.52758 347.15763 183.6186 345.88412 183.83984 344.6875 C 184.06109 343.49088 184.41239 342.37148 184.91016 341.33594 C 185.40792 340.3004 186.05302 339.34935 186.85742 338.49023 C 187.66183 337.63112 188.62642 336.86461 189.76758 336.19727 C 190.90874 335.52992 192.22635 334.96219 193.73438 334.50195 C 195.2424 334.04171 196.94068 333.68896 198.8457 333.45117 C 200.75072 333.21338 202.86124 333.08984 205.19336 333.08984 L 333.82227 333.08984 L 334.08008 333.08984 L 334.08008 210.41406 C 334.08008 208.16777 334.18104 206.15441 334.37695 204.35547 C 334.57286 202.55653 334.86301 200.9721 335.24219 199.58789 C 335.62136 198.20368 336.08887 197.01968 336.63867 196.01758 C 337.18848 195.01547 337.8215 194.19559 338.5293 193.54297 C 339.23709 192.89034 340.0199 192.40413 340.87305 192.06836 C 341.7262 191.73259 342.64891 191.54763 343.63477 191.49609 C 344.62063 191.44456 345.66946 191.52648 346.77539 191.72656 C 347.88132 191.92664 349.04445 192.245 350.25781 192.66406 C 352.68455 193.50219 355.31312 194.74533 358.09375 196.26367 C 360.87438 197.78201 363.80838 199.57416 366.8418 201.51172 C 372.90863 205.38683 379.37832 209.84012 385.84961 213.82617 C 389.08525 215.8192 392.32272 217.69494 395.50781 219.32422 C 398.6929 220.9535 401.82596 222.33726 404.85938 223.3418 C 406.37608 223.84407 407.86829 224.25168 409.32812 224.54883 C 410.78796 224.84598 412.21515 225.03239 413.60547 225.0918 C 414.99578 225.1512 416.34809 225.08401 417.65625 224.87305 C 418.96441 224.66209 420.22999 224.30692 421.44336 223.79297 C 422.65673 223.27902 423.81789 222.60542 424.92383 221.75586 C 426.02976 220.9063 427.08055 219.87991 428.06641 218.66211 C 429.05227 217.44431 429.97498 216.03468 430.82812 214.41602 C 431.68127 212.79735 432.46408 210.97012 433.17188 208.91797 C 433.87967 206.86582 434.51074 204.58857 435.06055 202.07031 C 435.61035 199.55206 436.07785 196.79238 436.45703 193.77539 C 436.83621 190.7584 437.12831 187.48389 437.32422 183.93555 C 437.52013 180.3872 437.62109 176.56545 437.62109 172.45312 C 437.62109 169.24424 437.52013 166.27293 437.32422 163.52539 C 437.12831 160.77785 436.83621 158.25543 436.45703 155.94141 C 436.07785 153.62738 435.61035 151.52161 435.06055 149.61328 C 434.51074 147.70495 433.87967 145.99335 433.17188 144.46289 C 432.46408 142.93243 431.68127 141.58275 430.82812 140.40234 C 429.97498 139.22193 429.05227 138.20975 428.06641 137.35156 C 427.08055 136.49338 426.02976 135.79034 424.92383 135.22656 C 423.81789 134.66278 422.65673 134.23861 421.44336 133.94141 C 420.22999 133.6442 418.96441 133.47446 417.65625 133.41602 C 416.34809 133.35757 414.99578 133.41002 413.60547 133.5625 C 410.82484 133.86747 407.89279 134.56707 404.85938 135.54883 C 401.82596 136.53058 398.6929 137.79451 395.50781 139.23047 C 392.32272 140.66643 389.08525 142.27383 385.84961 143.94141 C 379.37832 147.27656 372.90863 150.85319 366.8418 153.7793 C 363.80838 155.24235 360.87438 156.5434 358.09375 157.57031 C 355.31312 158.59722 352.68455 159.35057 350.25781 159.71875 C 349.04445 159.90284 347.88132 159.98912 346.77539 159.9668 C 345.66946 159.94447 344.62063 159.81321 343.63477 159.55664 C 342.64891 159.30008 341.7262 158.91902 340.87305 158.40039 C 340.0199 157.88176 339.23709 157.22453 338.5293 156.41602 C 337.8215 155.6075 337.18848 154.64771 336.63867 153.52148 C 336.08887 152.39526 335.62136 151.10262 335.24219 149.63086 C 334.86301 148.1591 334.57286 146.50918 334.37695 144.66406 C 334.18104 142.81895 334.08008 140.7795 334.08008 138.5332 L 334.08008 7.5 z "
       id="path4260"
       transform="translate(-0.25015164,52.112114)" />
    <path
       style="opacity:1;fill:#b4b4b4;fill-opacity:0.70588235;stroke:#000000;stroke-width:15;stroke-miterlimit:4;stroke-dasharray:none;stroke-opacity:1"
       d="M 334.08008 7.5 L 334.08008 138.5332 C 334.08008 140.7795 334.18104 142.81895 334.37695 144.66406 C 334.57286 146.50918 334.86301 148.1591 335.24219 149.63086 C 335.62136 151.10262 336.08887 152.39526 336.63867 153.52148 C 337.18848 154.64771 337.8215 155.6075 338.5293 156.41602 C 339.23709 157.22453 340.0199 157.88176 340.87305 158.40039 C 341.7262 158.91902 342.64891 159.30008 343.63477 159.55664 C 344.62063 159.81321 345.66946 159.94447 346.77539 159.9668 C 347.88132 159.98912 349.04445 159.90284 350.25781 159.71875 C 352.68455 159.35057 355.31312 158.59722 358.09375 157.57031 C 360.87438 156.5434 363.80838 155.24235 366.8418 153.7793 C 372.90863 150.85319 379.37832 147.27656 385.84961 143.94141 C 389.08525 142.27383 392.32272 140.66643 395.50781 139.23047 C 398.6929 137.79451 401.82596 136.53058 404.85938 135.54883 C 407.89279 134.56707 410.82484 133.86747 413.60547 133.5625 C 414.99578 133.41002 416.34809 133.35757 417.65625 133.41602 C 418.96441 133.47446 420.22999 133.6442 421.44336 133.94141 C 422.65673 134.23861 423.81789 134.66278 424.92383 135.22656 C 426.02976 135.79034 427.08055 136.49338 428.06641 137.35156 C 429.05227 138.20975 429.97498 139.22193 430.82812 140.40234 C 431.68127 141.58275 432.46408 142.93243 433.17188 144.46289 C 433.87967 145.99335 434.51074 147.70495 435.06055 149.61328 C 435.61035 151.52161 436.07785 153.62738 436.45703 155.94141 C 436.83621 158.25543 437.12831 160.77785 437.32422 163.52539 C 437.52013 166.27293 437.62109 169.24424 437.62109 172.45312 C 437.62109 176.56545 437.52013 180.3872 437.32422 183.93555 C 437.12831 187.48389 436.83621 190.7584 436.45703 193.77539 C 436.07785 196.79238 435.61035 199.55206 435.06055 202.07031 C 434.51074 204.58857 433.87967 206.86582 433.17188 208.91797 C 432.46408 210.97012 431.68127 212.79735 430.82812 214.41602 C 429.97498 216.03468 429.05227 217.44431 428.06641 218.66211 C 427.08055 219.87991 426.02976 220.9063 424.92383 221.75586 C 423.81789 222.60542 422.65673 223.27902 421.44336 223.79297 C 420.22999 224.30692 418.96441 224.66209 417.65625 224.87305 C 416.34809 225.08401 414.99578 225.1512 413.60547 225.0918 C 412.21515 225.03239 410.78796 224.84598 409.32812 224.54883 C 407.86829 224.25168 406.37608 223.84407 404.85938 223.3418 C 401.82596 222.33726 398.6929 220.9535 395.50781 219.32422 C 392.32272 217.69494 389.08525 215.8192 385.84961 213.82617 C 379.37832 209.84012 372.90863 205.38683 366.8418 201.51172 C 363.80838 199.57416 360.87438 197.78201 358.09375 196.26367 C 355.31312 194.74533 352.68455 193.50219 350.25781 192.66406 C 349.04445 192.245 347.88132 191.92664 346.77539 191.72656 C 345.66946 191.52648 344.62063 191.44456 343.63477 191.49609 C 342.64891 191.54763 341.7262 191.73259 340.87305 192.06836 C 340.0199 192.40413 339.23709 192.89034 338.5293 193.54297 C 337.8215 194.19559 337.18848 195.01547 336.63867 196.01758 C 336.08887 197.01968 335.62136 198.20368 335.24219 199.58789 C 334.86301 200.9721 334.57286 202.55653 334.37695 204.35547 C 334.18104 206.15441 334.08008 208.16777 334.08008 210.41406 L 334.08008 333.08984 L 463.54492 333.08984 C 465.78208 333.08984 467.79728 333.2115 469.60547 333.44531 C 471.41366 333.67912 473.01381 334.02598 474.42383 334.47852 C 475.83385 334.93105 477.05305 335.48836 478.0957 336.14453 C 479.13835 336.8007 480.00486 337.55566 480.71094 338.40039 C 481.41702 339.24512 481.96297 340.17907 482.36328 341.19727 C 482.7636 342.21546 483.01918 343.31756 483.14453 344.49414 C 483.26988 345.67072 483.26529 346.9223 483.14648 348.24219 C 483.02767 349.56207 482.79506 350.95033 482.46289 352.39844 C 481.79855 355.29464 480.73727 358.43143 479.4043 361.75 C 478.07133 365.06857 476.46612 368.5692 474.71094 372.18945 C 471.20056 379.42997 467.09185 387.15179 463.37109 394.875 C 461.51072 398.73661 459.74649 402.59912 458.20312 406.40039 C 456.65977 410.20166 455.33733 413.94224 454.35742 417.5625 C 453.86747 419.37263 453.46305 421.15228 453.16016 422.89453 C 452.85726 424.63678 452.65534 426.34267 452.57031 428.00195 C 452.48529 429.66124 452.518 431.2747 452.68164 432.83594 C 452.84528 434.39717 453.14088 435.90541 453.58398 437.35352 C 454.02709 438.80162 454.61772 440.18988 455.37109 441.50977 C 456.12447 442.82965 457.04032 444.08123 458.13477 445.25781 C 459.22922 446.4344 460.50243 447.53454 461.96875 448.55273 C 463.43507 449.57093 465.09389 450.50684 466.96289 451.35156 C 468.83189 452.19629 470.91041 452.95125 473.21289 453.60742 C 475.51537 454.26359 478.04184 454.82091 480.80859 455.27344 C 483.57535 455.72597 486.58191 456.07283 489.84375 456.30664 C 493.10559 456.54045 496.62244 456.66211 500.41016 456.66211 C 504.38942 456.66211 508.08382 456.54045 511.50977 456.30664 C 514.93571 456.07283 518.09324 455.72597 520.99805 455.27344 C 523.90286 454.82091 526.55484 454.26359 528.9707 453.60742 C 531.38657 452.95125 533.56629 452.19629 535.52539 451.35156 C 537.48449 450.50684 539.22329 449.57093 540.75781 448.55273 C 542.29234 447.53454 543.62349 446.4344 544.76562 445.25781 C 545.90778 444.08123 546.86065 442.82965 547.64258 441.50977 C 548.42451 440.18988 549.03437 438.80162 549.48828 437.35352 C 549.94219 435.90541 550.24036 434.39717 550.39844 432.83594 C 550.55651 431.2747 550.57432 429.66124 550.46875 428.00195 C 550.36318 426.34267 550.13391 424.63678 549.79688 422.89453 C 549.45983 421.15228 549.01678 419.37263 548.48047 417.5625 C 547.40785 413.94224 545.96762 410.20166 544.29102 406.40039 C 542.61441 402.59912 540.70085 398.73661 538.67773 394.875 C 534.63151 387.15179 530.14905 379.42997 526.26172 372.18945 C 524.31805 368.5692 522.52357 365.06857 521.00586 361.75 C 519.48814 358.43143 518.24834 355.29464 517.41406 352.39844 C 516.99692 350.95033 516.68042 349.56207 516.48242 348.24219 C 516.28442 346.9223 516.20449 345.67072 516.25781 344.49414 C 516.31113 343.31756 516.49715 342.21546 516.83398 341.19727 C 517.17082 340.17907 517.65802 339.24512 518.31055 338.40039 C 518.96307 337.55566 519.78084 336.8007 520.78125 336.14453 C 521.78166 335.48836 522.96523 334.93105 524.3457 334.47852 C 525.72618 334.02598 527.30493 333.67912 529.09766 333.44531 C 530.89038 333.2115 532.8976 333.08984 535.13477 333.08984 L 667 333.08984 L 667.41016 333.08984 L 667.41016 332.93164 L 667.41016 209.46289 C 667.41016 207.10087 667.30624 204.9665 667.10352 203.04492 C 666.90079 201.12334 666.5994 199.41462 666.20703 197.90234 C 665.81466 196.39007 665.33065 195.07551 664.76172 193.94141 C 664.19278 192.8073 663.53906 191.85347 662.80664 191.06641 C 662.07422 190.27934 661.26369 189.65867 660.38086 189.1875 C 659.49803 188.71633 658.54164 188.39538 657.52148 188.20898 C 656.50133 188.02258 655.41589 187.96988 654.27148 188.03711 C 653.12708 188.10434 651.9255 188.29035 650.66992 188.58008 C 648.15876 189.15953 645.43792 190.15292 642.56055 191.43555 C 639.68318 192.71817 636.64872 194.29063 633.50977 196.02734 C 627.23186 199.50077 620.53432 203.63244 613.83789 207.42773 C 610.48968 209.32538 607.1416 211.13965 603.8457 212.74414 C 600.5498 214.34863 597.30692 215.74439 594.16797 216.80664 C 592.59849 217.33776 591.05554 217.7859 589.54492 218.13477 C 588.0343 218.48363 586.55587 218.73368 585.11719 218.86914 C 583.6785 219.0046 582.27945 219.02509 580.92578 218.91602 C 579.57211 218.80695 578.26339 218.56833 577.00781 218.18359 C 575.75223 217.79886 574.54871 217.26771 573.4043 216.57617 C 572.25989 215.88463 571.17446 215.03143 570.1543 214.00195 C 569.13414 212.97247 568.1797 211.7677 567.29688 210.36914 C 566.41404 208.97058 565.60352 207.37884 564.87109 205.58008 C 564.13867 203.78131 563.48495 201.77503 562.91602 199.54492 C 562.34708 197.31481 561.86307 194.86056 561.4707 192.16797 C 561.07833 189.47538 560.77694 186.54363 560.57422 183.35742 C 560.37149 180.17122 560.26758 176.73049 560.26758 173.01953 C 560.26758 168.92969 560.37149 165.13137 560.57422 161.60742 C 560.77694 158.08348 561.07833 154.83483 561.4707 151.84375 C 561.86307 148.85267 562.34708 146.12014 562.91602 143.62891 C 563.48495 141.13767 564.13867 138.8877 564.87109 136.86328 C 565.60352 134.83887 566.41405 133.03984 567.29688 131.44922 C 568.1797 129.8586 569.13414 128.47501 570.1543 127.28516 C 571.17446 126.0953 572.25989 125.09751 573.4043 124.27539 C 574.54871 123.45327 575.75223 122.80772 577.00781 122.32031 C 578.26339 121.83291 579.57211 121.50408 580.92578 121.31836 C 582.27945 121.13264 583.6785 121.09088 585.11719 121.17383 C 586.55587 121.25677 588.0343 121.46462 589.54492 121.7832 C 591.05554 122.10179 592.59849 122.52959 594.16797 123.05078 C 597.30692 124.09317 600.5498 125.50744 603.8457 127.16211 C 607.1416 128.81678 610.48968 130.71209 613.83789 132.71484 C 620.53432 136.72035 627.23186 141.15812 633.50977 144.9707 C 636.64872 146.877 639.68318 148.62809 642.56055 150.08984 C 645.43792 151.5516 648.15876 152.72356 650.66992 153.47656 C 651.9255 153.85307 653.12708 154.12561 654.27148 154.27539 C 655.41589 154.42517 656.50133 154.45177 657.52148 154.3418 C 658.54164 154.23182 659.49803 153.98478 660.38086 153.58203 C 661.26369 153.17928 662.07422 152.62113 662.80664 151.89258 C 663.53906 151.16402 664.19278 150.26512 664.76172 149.17773 C 665.33065 148.09035 665.81466 146.81518 666.20703 145.33594 C 666.5994 143.8567 666.90079 142.17365 667.10352 140.26953 C 667.30624 138.36541 667.41016 136.24093 667.41016 133.87891 L 667.41016 7.5 L 334.08008 7.5 z "
       id="path4230"
       transform="translate(-0.25015164,52.112114)" />
    <path
       style="opacity:1;fill:#b4b4b4;fill-opacity:0.70588235;stroke:#000000;stroke-width:15;stroke-miterlimit:4;stroke-dasharray:none;stroke-opacity:1"
       d="M 667.41016 7.5 L 667.41016 133.87891 C 667.41016 136.24093 667.30624 138.36541 667.10352 140.26953 C 666.90079 142.17365 666.5994 143.8567 666.20703 145.33594 C 665.81466 146.81518 665.33065 148.09035 664.76172 149.17773 C 664.19278 150.26512 663.53906 151.16402 662.80664 151.89258 C 662.07422 152.62113 661.26369 153.17928 660.38086 153.58203 C 659.49803 153.98478 658.54164 154.23182 657.52148 154.3418 C 656.50133 154.45177 655.41589 154.42517 654.27148 154.27539 C 653.12708 154.12561 651.9255 153.85307 650.66992 153.47656 C 648.15876 152.72356 645.43792 151.5516 642.56055 150.08984 C 639.68318 148.62809 636.64872 146.877 633.50977 144.9707 C 627.23186 141.15812 620.53432 136.72035 613.83789 132.71484 C 610.48968 130.71209 607.1416 128.81678 603.8457 127.16211 C 600.5498 125.50744 597.30692 124.09317 594.16797 123.05078 C 592.59849 122.52959 591.05554 122.10179 589.54492 121.7832 C 588.0343 121.46462 586.55587 121.25677 585.11719 121.17383 C 583.6785 121.09088 582.27945 121.13264 580.92578 121.31836 C 579.57211 121.50408 578.26339 121.83291 577.00781 122.32031 C 575.75223 122.80772 574.54871 123.45327 573.4043 124.27539 C 572.25989 125.09751 571.17446 126.0953 570.1543 127.28516 C 569.13414 128.47501 568.1797 129.8586 567.29688 131.44922 C 566.41405 133.03984 565.60352 134.83887 564.87109 136.86328 C 564.13867 138.8877 563.48495 141.13767 562.91602 143.62891 C 562.34708 146.12014 561.86307 148.85267 561.4707 151.84375 C 561.07833 154.83483 560.77694 158.08348 560.57422 161.60742 C 560.37149 165.13137 560.26758 168.92969 560.26758 173.01953 C 560.26758 176.73049 560.37149 180.17122 560.57422 183.35742 C 560.77694 186.54363 561.07833 189.47538 561.4707 192.16797 C 561.86307 194.86056 562.34708 197.31481 562.91602 199.54492 C 563.48495 201.77503 564.13867 203.78131 564.87109 205.58008 C 565.60352 207.37884 566.41405 208.97058 567.29688 210.36914 C 568.1797 211.7677 569.13414 212.97247 570.1543 214.00195 C 571.17446 215.03143 572.25989 215.88463 573.4043 216.57617 C 574.54871 217.26771 575.75223 217.79886 577.00781 218.18359 C 578.26339 218.56833 579.57211 218.80695 580.92578 218.91602 C 582.27945 219.02509 583.6785 219.0046 585.11719 218.86914 C 586.55587 218.73368 588.0343 218.48363 589.54492 218.13477 C 591.05554 217.7859 592.59849 217.33776 594.16797 216.80664 C 597.30692 215.74439 600.5498 214.34863 603.8457 212.74414 C 607.1416 211.13965 610.48968 209.32538 613.83789 207.42773 C 620.53432 203.63244 627.23186 199.50077 633.50977 196.02734 C 636.64872 194.29063 639.68318 192.71817 642.56055 191.43555 C 645.43792 190.15292 648.15876 189.15953 650.66992 188.58008 C 651.9255 188.29035 653.12708 188.10434 654.27148 188.03711 C 655.41589 187.96988 656.50133 188.02258 657.52148 188.20898 C 658.54164 188.39538 659.49803 188.71633 660.38086 189.1875 C 661.26369 189.65867 662.07422 190.27934 662.80664 191.06641 C 663.53906 191.85347 664.19278 192.8073 664.76172 193.94141 C 665.33065 195.07551 665.81466 196.39007 666.20703 197.90234 C 666.5994 199.41462 666.90079 201.12334 667.10352 203.04492 C 667.30624 204.9665 667.41016 207.10087 667.41016 209.46289 L 667.41016 332.93164 L 667.41016 333.08984 L 775.29492 333.08984 C 778.3803 333.08984 781.19175 333.21211 783.75 333.44727 C 786.30825 333.68243 788.61223 334.03118 790.67969 334.48633 C 792.74715 334.94148 794.57839 335.50214 796.19141 336.16211 C 797.80442 336.82207 799.19963 337.58008 800.39453 338.42969 C 801.58943 339.2793 802.5853 340.22006 803.39844 341.24414 C 804.21157 342.26822 804.84284 343.37716 805.31055 344.56055 C 805.77825 345.74393 806.08162 347.00256 806.24023 348.33008 C 806.39885 349.65759 806.41296 351.05329 806.29883 352.50977 C 806.18469 353.96624 805.94234 355.48247 805.5918 357.05273 C 805.24125 358.62299 804.78109 360.24714 804.23047 361.91602 C 803.12924 365.25377 801.66394 368.77288 799.98047 372.41406 C 796.61352 379.69643 792.37348 387.46456 788.42188 395.23242 C 786.44606 399.11635 784.54332 403.00098 782.85742 406.82422 C 781.17153 410.64746 779.70292 414.4096 778.59766 418.05078 C 778.04502 419.87137 777.58344 421.66174 777.23047 423.41406 C 776.8775 425.16638 776.63258 426.87995 776.51562 428.54883 C 776.39868 430.2177 776.40907 431.84185 776.56445 433.41211 C 776.71984 434.98237 777.0203 436.50056 777.48438 437.95703 C 777.94844 439.4135 778.57567 440.8092 779.38477 442.13672 C 780.19386 443.46423 781.18454 444.72287 782.375 445.90625 C 783.56546 447.08963 784.95628 448.19662 786.56445 449.2207 C 788.17262 450.24479 789.99833 451.18555 792.06055 452.03516 C 794.12276 452.88477 796.42201 453.64277 798.97461 454.30273 C 801.52721 454.9627 804.33278 455.52532 807.41211 455.98047 C 810.49143 456.43562 813.84394 456.78437 817.48633 457.01953 C 821.12872 457.25469 825.06094 457.375 829.30273 457.375 C 833.41958 457.375 837.22706 457.25469 840.74219 457.01953 C 844.25731 456.78437 847.48149 456.43562 850.43164 455.98047 C 853.38179 455.52532 856.05856 454.9627 858.48047 454.30273 C 860.90238 453.64277 863.06959 452.88477 865 452.03516 C 866.93041 451.18555 868.62396 450.24479 870.09961 449.2207 C 871.57526 448.19662 872.833 447.08963 873.89062 445.90625 C 874.94826 444.72287 875.80606 443.46423 876.48242 442.13672 C 877.15878 440.8092 877.65254 439.4135 877.98438 437.95703 C 878.31619 436.50056 878.48573 434.98237 878.50977 433.41211 C 878.5338 431.84185 878.41303 430.2177 878.16602 428.54883 C 877.919 426.87995 877.54578 425.16638 877.06445 423.41406 C 876.58313 421.66174 875.99335 419.87137 875.31445 418.05078 C 873.95667 414.4096 872.24011 410.64746 870.3125 406.82422 C 868.38489 403.00098 866.24648 399.11635 864.04297 395.23242 C 859.63594 387.46456 854.97165 379.69643 851.22461 372.41406 C 849.35109 368.77288 847.70709 365.25377 846.43945 361.91602 C 845.80564 360.24714 845.26512 358.62299 844.83789 357.05273 C 844.41066 355.48247 844.09602 353.96624 843.91211 352.50977 C 843.7282 351.05329 843.67533 349.65759 843.77148 348.33008 C 843.86764 347.00256 844.11242 345.74393 844.52539 344.56055 C 844.93836 343.37716 845.51864 342.26822 846.28516 341.24414 C 847.05167 340.22006 848.0053 339.2793 849.16211 338.42969 C 850.31891 337.58008 851.67984 336.82207 853.26367 336.16211 C 854.84751 335.50214 856.65356 334.94148 858.70117 334.48633 C 860.74878 334.03118 863.03782 333.68243 865.58594 333.44727 C 868.13406 333.21211 870.94197 333.08984 874.02734 333.08984 L 993 333.08984 L 993 7.5 L 667.41016 7.5 z "
       id="rect4165"
       transform="translate(-0.25015164,52.112114)" />
    <path
       style="opacity:1;fill:#b4b4b4;fill-opacity:1;stroke:#000000;stroke-width:15;stroke-miterlimit:4;stroke-dasharray:none;stroke-opacity:1"
       d="m 1066.1888,743.92141 -0.086,0.14885 -57.3642,99.3578 c -1.928,3.33942 -3.7707,6.32297 -5.5334,8.97476 -1.7627,2.65182 -3.44554,4.97141 -5.05503,6.98213 -1.60941,2.01078 -3.14502,3.71453 -4.61316,5.13082 -1.46805,1.41634 -2.86778,2.54634 -4.20647,3.41482 -1.33869,0.86848 -2.61613,1.47448 -3.83737,1.84172 -1.22116,0.36731 -2.38789,0.49576 -3.50359,0.40839 -1.1157,-0.0874 -2.18067,-0.39076 -3.20282,-0.88614 -1.02212,-0.49543 -1.99966,-1.18349 -2.94016,-2.0403 -0.94059,-0.85685 -1.8448,-1.88251 -2.71567,-3.05412 -0.87095,-1.17167 -1.70918,-2.48822 -2.52239,-3.92809 -1.62643,-2.87974 -3.15034,-6.25046 -4.61779,-9.92355 -2.93491,-7.34619 -5.64742,-15.90539 -8.5201,-24.18815 -1.43626,-4.14133 -2.91319,-8.21381 -4.47731,-12.03007 -1.56421,-3.81632 -3.21498,-7.3769 -5.00267,-10.49533 -0.89384,-1.55922 -1.82233,-3.00904 -2.79003,-4.32392 -0.96762,-1.31484 -1.9739,-2.49432 -3.02729,-3.51819 -1.05338,-1.02388 -2.15315,-1.89123 -3.30431,-2.57757 -1.15116,-0.68633 -2.35523,-1.19242 -3.61606,-1.4946 -1.26083,-0.30218 -2.57923,-0.39963 -3.96164,-0.27103 -1.38241,0.1286 -2.82746,0.4835 -4.34345,1.08947 -1.51599,0.60597 -3.10285,1.4621 -4.76441,2.592 -1.66148,1.12996 -3.39746,2.53398 -5.21651,4.23446 -1.81895,1.70052 -3.71999,3.69861 -5.70842,6.01627 -1.98843,2.31766 -4.0651,4.95456 -6.235,7.93594 -2.16981,2.98143 -4.43303,6.30624 -6.79622,9.99801 -2.3632,3.69177 -4.82626,7.74992 -7.39474,12.19866 -2.35308,4.07565 -4.44424,7.90564 -6.28886,11.50202 -1.84462,3.59638 -3.44304,6.96012 -4.81119,10.10663 -1.36807,3.14657 -2.50547,6.0766 -3.42906,8.8027 -0.9236,2.72612 -1.63213,5.24793 -2.14315,7.58305 -0.51093,2.33516 -0.82501,4.48196 -0.95537,6.45555 -0.13028,1.97366 -0.077,3.77385 0.14135,5.41538 0.21845,1.64143 0.60226,3.12465 1.13743,4.46351 0.53517,1.33886 1.21972,2.53418 2.03974,3.59986 0.82007,1.0656 1.77557,2.00223 2.84848,2.8241 1.07291,0.82186 2.26541,1.52859 3.55935,2.13582 1.29379,0.60748 2.68808,1.11491 4.17083,1.5375 1.48289,0.42256 3.05355,0.76011 4.69339,1.02721 3.27969,0.53422 6.84014,0.78713 10.55636,0.87605 3.71613,0.0889 7.58711,0.0147 11.48415,-0.10612 3.89712,-0.12082 7.82192,-0.28837 11.64439,-0.38348 3.82246,-0.0951 7.54267,-0.11889 11.03489,0.0472 3.49222,0.1661 6.75632,0.52271 9.66271,1.18549 1.45319,0.3314 2.81625,0.73892 4.07513,1.23867 1.25879,0.49971 2.41356,1.09138 3.44614,1.78891 1.03248,0.69749 1.94322,1.50124 2.7175,2.42596 0.77427,0.92471 1.41113,1.96965 1.8952,3.15101 0.48408,1.18135 0.81534,2.49998 0.97722,3.96741 0.16197,1.46746 0.15549,3.08528 -0.0367,4.86827 -0.19213,1.78299 -0.56882,3.72983 -1.14705,5.85775 -0.57814,2.12797 -1.35837,4.43537 -2.35461,6.9377 -0.99615,2.50238 -2.20972,5.19955 -3.65594,8.10569 -1.44609,2.9061 -3.12448,6.02114 -5.05253,9.36062 l -44.1435,76.45878 281.96906,162.7949 163.29,-282.82654 -102.0134,-58.89745 c -2.7077,-1.5633 -5.1244,-3.08065 -7.2659,-4.55583 -2.1414,-1.47513 -4.0087,-2.90775 -5.622,-4.30135 -1.6134,-1.3936 -2.9719,-2.74843 -4.0952,-4.0671 -1.1234,-1.31866 -2.0121,-2.60164 -2.6836,-3.85197 -0.6714,-1.25028 -1.1251,-2.46723 -1.3827,-3.65578 -0.2576,-1.1885 -0.3178,-2.34904 -0.1996,-3.48235 0.1182,-1.1333 0.4148,-2.23983 0.8707,-3.32449 0.4558,-1.08472 1.0706,-2.14751 1.8258,-3.19032 0.7555,-1.04261 1.6515,-2.06416 2.6686,-3.07133 1.017,-1.00716 2.155,-2.00038 3.3954,-2.97868 2.4809,-1.95662 5.3712,-3.86035 8.5174,-5.74093 6.2924,-3.76115 13.6102,-7.42356 20.7358,-11.19663 3.5627,-1.88652 7.0775,-3.7999 10.3916,-5.76841 3.3141,-1.96847 6.428,-3.99213 9.1889,-6.09521 1.3804,-1.05154 2.6711,-2.12287 3.856,-3.21792 1.1849,-1.09511 2.2648,-2.21443 3.2161,-3.35964 0.9515,-1.14516 1.7759,-2.31714 2.4557,-3.519 0.68,-1.20176 1.2143,-2.43216 1.5844,-3.69727 0.3701,-1.26516 0.5758,-2.56417 0.598,-3.89917 0.022,-1.33501 -0.1392,-2.70605 -0.5027,-4.11746 -0.3636,-1.41145 -0.9293,-2.8639 -1.7168,-4.35834 -0.7876,-1.4945 -1.796,-3.03169 -3.0456,-4.61577 -1.2494,-1.58404 -2.7404,-3.21472 -4.4899,-4.89493 -1.7496,-1.68022 -3.7594,-3.41106 -6.0472,-5.19405 -2.2878,-1.783 -4.8537,-3.61898 -7.7177,-5.5113 -2.8641,-1.89238 -6.0253,-3.83953 -9.5037,-5.84778 -3.18,-1.836 -6.1762,-3.4438 -8.9992,-4.83487 -2.8229,-1.39103 -5.4724,-2.56615 -7.9603,-3.5404 -2.4879,-0.97426 -4.814,-1.74672 -6.9889,-2.33235 -2.175,-0.58564 -4.1991,-0.98436 -6.0833,-1.20952 -1.8841,-0.22517 -3.629,-0.27758 -5.2444,-0.17043 -1.6154,0.10714 -3.1017,0.37479 -4.4705,0.78609 -1.3687,0.41131 -2.619,0.96725 -3.763,1.65461 -1.1442,0.6873 -2.1818,1.50596 -3.1234,2.44112 -0.9417,0.93516 -1.7873,1.98581 -2.5485,3.14067 -0.7614,1.15476 -1.4386,2.41174 -2.0413,3.75825 -0.6029,1.34641 -1.1324,2.78343 -1.5992,4.29319 -0.4666,1.5098 -0.8698,3.09348 -1.2224,4.73847 -0.705,3.28998 -1.2047,6.82294 -1.5857,10.48486 -0.381,3.66196 -0.6436,7.45294 -0.8773,11.26156 -0.2336,3.80863 -0.4367,7.634 -0.6995,11.36412 -0.2629,3.73012 -0.5858,7.36518 -1.0547,10.79151 -0.4689,3.42633 -1.0844,6.64341 -1.936,9.54068 -0.4258,1.44865 -0.9108,2.81882 -1.4654,4.09298 -0.5546,1.27417 -1.1783,2.45292 -1.8838,3.52443 -0.7053,1.07161 -1.4922,2.035 -2.3707,2.87572 -0.8784,0.84071 -1.8489,1.55819 -2.9224,2.13994 -1.0735,0.58176 -2.2495,1.02855 -3.5402,1.3232 -1.2906,0.29465 -2.6963,0.4381 -4.2261,0.41748 -1.5299,-0.0206 -3.1842,-0.20584 -4.9753,-0.56988 -1.7913,-0.36408 -3.7186,-0.9063 -5.7931,-1.6419 -2.0746,-0.73565 -4.2965,-1.66388 -6.6766,-2.79925 -2.3801,-1.13537 -4.918,-2.47857 -7.6257,-4.04187 l -93.3108,-53.87302 z"
       id="path4188"
       inkscape:connector-curvature="0" />
    <path
       style="fill:#8cb3cf;fill-opacity:1;fill-rule:nonzero;stroke:#000000;stroke-width:5.54291534;stroke-miterlimit:4;stroke-dasharray:none;stroke-opacity:1"
       d="m 1113.1531,836.90477 c -8.5149,-4.91608 -19.4034,-1.99901 -24.3186,6.5141 -2.5166,4.35916 -2.9709,9.33455 -1.6828,13.8168 l -57.0461,41.67236 c -1.1527,-1.00324 -2.4124,-1.91779 -3.7855,-2.71057 -11.5197,-6.65094 -26.2508,-2.70232 -32.90084,8.81582 -6.6514,11.52036 -2.7041,26.24995 8.81574,32.9009 6.4406,3.71853 13.8841,4.11998 20.3587,1.74099 l 45.7395,73.48873 c -2.272,1.8198 -4.2633,4.066 -5.8065,6.739 -6.6513,11.5203 -2.7033,26.2472 8.8148,32.8971 11.5204,6.6513 26.2483,2.7071 32.8995,-8.8133 1.6902,-2.9275 2.6863,-6.0633 3.0575,-9.22 l 84.6103,2.8063 c 1.2137,6.7318 5.262,12.9073 11.6507,16.596 11.5203,6.6512 26.2474,2.7032 32.8986,-8.8171 6.65,-11.5182 2.7069,-26.2485 -8.8133,-32.8997 -1.2763,-0.7368 -2.5972,-1.3234 -3.9369,-1.8041 l 7.5105,-69.69348 c 4.7855,-1.00114 9.146,-3.93813 11.7838,-8.50699 4.9151,-8.51311 1.9953,-19.40242 -6.5179,-24.31753 -7.0998,-4.09912 -15.8341,-2.73512 -21.3952,2.7609 l -93.6294,-54.05694 c 1.9791,-7.56415 -1.2078,-15.81079 -8.3066,-19.90929 z m 4.9115,27.62476 92.6004,53.46287 c -0.035,0.10726 -0.057,0.21555 -0.089,0.32353 l -36.8738,-3.21609 c -1.1035,-6.72959 -5.1006,-12.92982 -11.4672,-16.6056 -6.4942,-3.74944 -14.0272,-4.03919 -20.494,-1.46898 l -23.6758,-32.49546 z m -7.806,4.54056 22.9113,33.83549 c -1.1665,1.26276 -2.2259,2.6593 -3.1216,4.21062 -1.0778,1.86693 -1.8432,3.82378 -2.3654,5.8129 l -13.5568,-0.0546 -4.2348,-43.68814 c 0.122,-0.0409 0.2463,-0.0729 0.3673,-0.11626 z m 99.1939,58.19476 -37.3363,18.74961 -5.5204,-9.96273 c 1.6342,-1.53904 3.0796,-3.33136 4.2599,-5.37543 0.9784,-1.69471 1.6976,-3.46484 2.2171,-5.26404 l 36.3797,1.85259 z m 4.1645,7.28285 c 1.3591,1.72361 3.0484,3.2319 5.0654,4.39639 1.3302,0.76804 2.7228,1.32261 4.1373,1.71677 l -7.3921,68.56814 c -2.5817,0.021 -5.1334,0.4552 -7.5643,1.28 l -31.6815,-57.15944 37.4352,-18.80186 z m -112.0734,-64.64629 4.1633,42.94058 -67.7845,-0.26725 c -0.4731,-2.49025 -1.3443,-4.89243 -2.5709,-7.12532 l 55.9769,-40.89258 c 1.1544,1.21798 2.4953,2.30004 4.0228,3.18192 1.971,1.13803 4.0704,1.83654 6.1924,2.16265 z m 25.8628,53.77501 c 0.7637,3.67658 2.3968,7.15257 4.8143,10.11437 l -13.3724,24.50957 c -0.1067,-0.0125 -0.2143,-0.0125 -0.3212,-0.0229 l -3.3843,-34.90907 12.2636,0.30806 z m 29.8906,17.74174 5.4262,9.31444 -30.5273,15.33026 c -0.4565,-0.62102 -0.9508,-1.21735 -1.485,-1.78552 l 13.788,-22.60394 c 4.2696,1.11778 8.6945,0.99156 12.7981,-0.25524 z m -50.5903,-18.26395 3.5022,36.11175 c -2.3594,0.82319 -4.5637,2.10065 -6.4737,3.79726 l -66.5878,-38.44456 c 0.3494,-1.05325 0.5965,-2.1218 0.7944,-3.19468 l 68.7649,1.73023 z m 60.2423,34.83088 33.1555,56.90101 c -0.8724,0.7345 -1.7154,1.5126 -2.4868,2.3801 l -62.057,-35.82862 c 0.5277,-2.56692 0.5166,-5.17991 0.014,-7.69294 l 31.3752,-15.75955 z m -133.8024,-26.00383 65.6596,37.90863 c -2.9132,6.75416 -1.6771,14.4483 2.8396,19.94368 l -10.5208,19.28363 c -5.0988,-1.7369 -10.514,-1.6477 -15.4268,0.01 l -45.877,-73.69945 c 1.2061,-1.02043 2.3199,-2.16899 3.3254,-3.4429 z m 98.9664,57.13832 61.129,35.29282 c -0.6207,1.5581 -1.0673,3.1497 -1.3466,4.7572 l -85.1055,-2.8201 c -1.0551,-4.4285 -3.3548,-8.5423 -6.7504,-11.7948 l 11.2309,-18.40804 c 7.6408,2.1918 15.9977,-0.51937 20.8426,-7.02708 z"
       id="path46-4"
       inkscape:connector-curvature="0" />
    <g
       id="layer1-6"
       transform="matrix(1.2000764,0.69286443,-0.69286443,1.2000764,1305.9861,228.5879)">
      <path
         inkscape:connector-curvature="0"
         style="fill:#8cb3cf;fill-opacity:1;fill-rule:nonzero;stroke:none"
         id="path46"
         d="m 69.082153,534.25314 81.028637,43.26488 81.02605,-43.26488 -30.50707,-69.00894 -101.039068,0 -30.508549,69.00894 0,0 z m 81.028637,50.11732 -88.826486,-47.43088 34.369418,-77.74079 108.913568,0 34.36905,77.74079 -88.82555,47.43088 0,0" />
      <path
         inkscape:connector-curvature="0"
         style="fill:#b5d3e2;fill-opacity:1;fill-rule:nonzero;stroke:none"
         id="path48"
         d="m 234.87352,538.03959 -166.751519,0 0,-6.04541 166.751519,0 0,6.04541" />
      <path
         inkscape:connector-curvature="0"
         style="fill:#8cb3cf;fill-opacity:1;fill-rule:nonzero;stroke:none"
         id="path50"
         d="m 83.487009,535.52082 c 0,9.59968 -7.78108,17.38075 -17.379651,17.38075 -9.599122,0 -17.381124,-7.78106 -17.381124,-17.38075 0,-9.59784 7.782002,-17.38076 17.381124,-17.38076 9.598571,0 17.379651,7.78292 17.379651,17.38076" />
      <path
         inkscape:connector-curvature="0"
         style="fill:#8cb3cf;fill-opacity:1;fill-rule:nonzero;stroke:none"
         id="path52"
         d="m 251.2464,535.52082 c 0,9.59968 -7.78107,17.38075 -17.38074,17.38075 -9.59968,0 -17.37892,-7.78106 -17.37892,-17.38075 0,-9.59784 7.77924,-17.38076 17.37892,-17.38076 9.59967,0 17.38074,7.78292 17.38074,17.38076" />
      <path
         inkscape:connector-curvature="0"
         style="fill:#b5d3e2;fill-opacity:1;fill-rule:nonzero;stroke:none"
         id="path54"
         d="m 155.78768,537.1828 -5.05228,-3.32212 49.37108,-75.06356 5.05043,3.32211 -49.36923,75.06357 0,0" />
      <path
         inkscape:connector-curvature="0"
         style="fill:#b5d3e2;fill-opacity:1;fill-rule:nonzero;stroke:none"
         id="path56"
         d="m 148.786,537.78162 -52.896977,-74.05569 4.919417,-3.51558 52.89533,74.05754 -4.91777,3.51373 0,0" />
      <path
         inkscape:connector-curvature="0"
         style="fill:#8cb3cf;fill-opacity:1;fill-rule:nonzero;stroke:none"
         id="path58"
         d="m 214.59628,462.59829 c 0,7.0975 -5.75242,12.8481 -12.84624,12.8481 -7.09565,0 -12.84625,-5.7506 -12.84625,-12.8481 0,-7.09381 5.7506,-12.84625 12.84625,-12.84625 7.09382,0 12.84624,5.75244 12.84624,12.84625" />
      <path
         inkscape:connector-curvature="0"
         style="fill:#8cb3cf;fill-opacity:1;fill-rule:nonzero;stroke:none"
         id="path60"
         d="m 111.82484,462.59829 c 0,7.0975 -5.75133,12.8481 -12.845873,12.8481 -7.095285,0 -12.847532,-5.7506 -12.847532,-12.8481 0,-7.09381 5.752247,-12.84625 12.847532,-12.84625 7.094543,0 12.845873,5.75244 12.845873,12.84625" />
      <path
         inkscape:connector-curvature="0"
         style="fill:#8cb3cf;fill-opacity:1;fill-rule:nonzero;stroke:none"
         id="path62"
         d="m 168.87714,487.53535 c 0,9.39145 -7.61157,17.00487 -17.00119,17.00487 -9.38963,0 -17.00304,-7.61342 -17.00304,-17.00487 0,-9.38962 7.61341,-17.0012 17.00304,-17.0012 9.38962,0 17.00119,7.61158 17.00119,17.0012" />
      <path
         inkscape:connector-curvature="0"
         style="fill:#b5d3e2;fill-opacity:1;fill-rule:nonzero;stroke:none"
         id="path64"
         d="m 165.85536,536.40156 c 0,7.72396 -6.25913,13.98126 -13.97941,13.98126 -7.72029,0 -13.98126,-6.2573 -13.98126,-13.98126 0,-7.72029 6.26097,-13.97941 13.98126,-13.97941 7.72028,0 13.97941,6.25912 13.97941,13.97941" />
      <path
         inkscape:connector-curvature="0"
         style="fill:#8cb3cf;fill-opacity:1;fill-rule:nonzero;stroke:none"
         id="path66"
         d="m 68.335736,537.40574 -2.945866,-5.28074 83.87888,-47.98547 4.45712,6.79162 -85.390134,46.47459 0,0" />
      <path
         inkscape:connector-curvature="0"
         style="fill:#8cb3cf;fill-opacity:1;fill-rule:nonzero;stroke:none"
         id="path68"
         d="m 149.46958,490.65477 -52.141724,-25.31476 2.545669,-5.48159 53.653355,23.80204 -3.30185,6.23887 -0.75545,0.75544" />
      <path
         inkscape:connector-curvature="0"
         style="fill:#8cb3cf;fill-opacity:1;fill-rule:nonzero;stroke:none"
         id="path70"
         d="m 149.4143,484.06397 51.00726,-23.80203 2.6551,5.42999 -49.49635,25.31477" />
      <path
         inkscape:connector-curvature="0"
         style="fill:#8cb3cf;fill-opacity:1;fill-rule:nonzero;stroke:none"
         id="path72"
         d="m 233.09362,538.50758 -83.88016,-47.98547 4.56768,-6.72714 82.36743,49.49637 -3.05495,5.21624 0,0" />
      <path
         inkscape:connector-curvature="0"
         style="fill:#8cb3cf;fill-opacity:1;fill-rule:nonzero;stroke:none"
         id="path74"
         d="m 154.52001,580.48452 -6.80084,0 -2.26634,-93.70278 11.33536,0 -2.26818,93.70278 0,0" />
      <path
         inkscape:connector-curvature="0"
         style="fill:#8cb3cf;fill-opacity:1;fill-rule:nonzero;stroke:none"
         id="path76"
         d="m 168.12169,582.37313 c 0,9.59968 -7.78107,17.37891 -17.38075,17.37891 -9.59784,0 -17.37891,-7.77923 -17.37891,-17.37891 0,-9.59968 7.78107,-17.38076 17.37891,-17.38076 9.59968,0 17.38075,7.78108 17.38075,17.38076" />
    </g>
  </g>
</svg>
