<svg version="1.1" id="money-svg" xmlns="http://www.w3.org/2000/svg" xmlns:xlink="http://www.w3.org/1999/xlink" x="0px" y="0px" width="800px"
	 height="800px" viewBox="0 0 800 800" enable-background="new 0 0 800 800" xml:space="preserve">
<g id="money">
	<g>
		<g>
			<polygon fill="#32BCD0" points="416.065,640.848 356.624,640.848 365,320.452 416.34,285.562 			"/>
			<polygon fill="#55B6B3" points="371.471,669.599 265.22,669.599 310.644,638.646 416.895,638.646 			"/>
			<rect x="265.22" y="315.154" fill="#468495" width="106.251" height="354.445"/>
			<rect x="279.748" y="342.547" fill="#FFF8F3" width="77.192" height="32.372"/>
			<rect x="297.746" y="342.547" fill="#104C5E" width="4.679" height="31.542"/>
			<rect x="336.483" y="342.547" fill="#104C5E" width="4.679" height="31.542"/>
			<rect x="279.055" y="370.771" fill="#104C5E" width="79.138" height="4.98"/>
			<rect x="301.746" y="346.85" fill="#104C5E" width="37.077" height="4.678"/>
			<rect x="313.919" y="344.762" fill="#104C5E" width="9.411" height="3.872"/>
			<polyline fill="#3D7680" points="279.055,375.75 358.192,390.69 358.192,375.75 			"/>
			<polyline fill="#3D7680" points="279.055,455.023 358.192,469.967 358.192,455.023 			"/>
			<polyline fill="#3D7680" points="279.055,528.488 358.192,543.432 358.192,528.488 			"/>
			<rect x="279.748" y="421.127" fill="#FFF8F3" width="77.192" height="32.373"/>
			<rect x="297.746" y="421.127" fill="#104C5E" width="4.679" height="31.542"/>
			<rect x="336.483" y="421.127" fill="#104C5E" width="4.679" height="31.542"/>
			<rect x="279.055" y="449.35" fill="#104C5E" width="79.138" height="4.982"/>
			<rect x="301.746" y="428.746" fill="#104C5E" width="37.077" height="4.679"/>
			<rect x="313.919" y="426.659" fill="#104C5E" width="9.411" height="3.876"/>
			<path fill="#32BCD0" d="M318.413,363.64c-0.646,0-1.169-0.522-1.169-1.169v-8.096c0-0.646,0.523-1.169,1.169-1.169
				c0.647,0,1.171,0.523,1.171,1.169v8.096C319.584,363.118,319.061,363.64,318.413,363.64z"/>
			<path fill="#32BCD0" d="M317.585,359.073h-3.869v-3.869c0-0.646,0.522-1.168,1.169-1.168s1.17,0.522,1.17,1.168v1.529h1.53
				c0.646,0,1.17,0.524,1.17,1.17C318.755,358.549,318.231,359.073,317.585,359.073z"/>
			<path fill="#32BCD0" d="M318.619,361.356c-0.605,0-1.116-0.464-1.164-1.081c-0.049-0.643,0.434-1.207,1.077-1.255l1.618-0.121
				v-2.034c0-0.646,0.522-1.168,1.17-1.168c0.646,0,1.168,0.522,1.168,1.168v4.199l-3.778,0.29
				C318.681,361.356,318.65,361.356,318.619,361.356z"/>
			<polygon fill="#33605E" points="321.32,370.972 315.926,370.972 313.224,362.544 324.017,362.544 			"/>
			<path fill="#32BCD0" d="M341.861,342.547c0,0,6.309,12.835,15.448,18.055l0.361-18.055"/>
			<path fill="#32BCD0" d="M345.395,370.771h11.618l0.297-10.168C357.31,360.603,347.259,366.411,345.395,370.771z"/>
			<path fill="#32BCD0" d="M295.412,342.547c0,0-6.67,12.835-15.805,18.055v-18.055"/>
			<path fill="#32BCD0" d="M291.886,370.771l-12.072,0.103l-0.206-10.271C279.607,360.603,290.02,366.411,291.886,370.771z"/>
			<polygon fill="#32BCD0" points="298.283,438.558 279.468,438.558 279.468,429.844 279.468,421.128 298.283,421.128 			"/>
			
				<line fill="none" stroke="#A0A1A2" stroke-width="0.75" stroke-miterlimit="10" x1="288.877" y1="438.558" x2="288.877" y2="443.264"/>
			<path fill="#32BCD0" d="M290.398,444.508c0,0.844-0.681,1.521-1.521,1.521c-0.84,0-1.521-0.678-1.521-1.521
				c0-0.842,0.681-1.524,1.521-1.524C289.718,442.983,290.398,443.666,290.398,444.508z"/>
			<path fill-rule="evenodd" clip-rule="evenodd" fill="#33605E" d="M352.275,442.943c0-0.166-0.071-0.23-0.158-0.26v-0.016
				c-0.032,0-0.097,0-0.138,0c-0.046-0.002-0.089-0.002-0.13,0c-0.29,0-0.679,0-1.162,0c-0.547-0.002-1.2-0.002-1.888-0.002
				c-0.108,0-0.216,0-0.326,0c-0.688,0-1.341,0-1.892,0.002c-0.479,0-0.865,0-1.153,0c-0.048-0.002-0.091-0.002-0.137,0
				c-0.037,0-0.099,0-0.134,0v0.016c-0.092,0.029-0.159,0.094-0.159,0.26c0.005,0.349-0.104,0.712,0.089,1.045
				c0.334,1.436,0.675,2.863,0.996,4.304c0.039,0.171,0.097,0.307,0.193,0.394c0.021,0.023,0.065,0.035,0.095,0.055
				c0.051,0.025,0.105,0.041,0.172,0.052c0.027,0.003,0.034,0.021,0.065,0.018c0.674-0.028,1.352-0.026,2.027-0.032
				c0.673,0.006,1.352,0.004,2.023,0.032c0.036,0.003,0.045-0.015,0.073-0.018c0.062-0.011,0.121-0.026,0.167-0.052
				c0.032-0.02,0.074-0.031,0.098-0.055c0.095-0.087,0.148-0.223,0.189-0.394c0.326-1.44,0.662-2.868,0.998-4.304
				C352.377,443.655,352.273,443.292,352.275,442.943z"/>
			<path fill-rule="evenodd" clip-rule="evenodd" fill="#67CADC" d="M351.217,440.354c-0.2-0.211,0.051-0.316,0.121-0.443
				c0.332-0.566,0.697-1.119,1.095-1.762c-0.626,0.125-1.052,0.404-1.48,0.682c-0.098,0.063-0.198,0.316-0.367,0.063
				c0.321-0.86,0.642-1.716,1.003-2.693c-0.822,0.532-1.355,1.155-1.818,1.841c-0.166-0.081-0.069-0.189-0.039-0.302
				c0.21-0.735,0.413-1.48,0.639-2.301c-0.645,0.438-0.976,1.014-1.311,1.594c-0.084,0.147-0.046,0.431-0.343,0.407
				c-0.089-0.729-0.181-1.451-0.272-2.172c-0.031,0-0.064,0-0.098,0c-0.086,0.646-0.176,1.293-0.263,1.941
				c-0.096,0.055-0.041,0.236-0.176,0.261c-0.352-0.751-0.729-1.465-1.507-2.038c0.268,0.994,0.505,1.871,0.742,2.745
				c-0.571-0.668-1.047-1.437-1.954-1.938c0.373,1.001,0.705,1.888,1.031,2.774c-0.181,0.129-0.239-0.064-0.341-0.131
				c-0.44-0.293-0.87-0.604-1.533-0.717c0.208,0.332,0.375,0.562,0.504,0.818c0.234,0.46,0.675,0.811,0.734,1.369
				c-0.367-0.072-0.73-0.219-1.183-0.095c0.368,0.616,0.71,1.187,1.051,1.757c0.062,0.034,0.125,0.06,0.196,0.078
				c-0.053,0.006-0.11,0.01-0.162,0.023c0.148,0.194,0.362,0.11,0.546,0.113c0.769,0.016,1.537,0.02,2.303,0.027
				c1.004,0.072,2.013,0.101,3.013-0.008c-0.015-0.047-0.025-0.089-0.034-0.133c0.337-0.617,0.675-1.238,1.034-1.889
				C351.907,440.162,351.562,440.252,351.217,440.354z M348.335,442.125v-0.029h0.014L348.335,442.125z"/>
			<rect x="302.85" y="439.113" fill-rule="evenodd" clip-rule="evenodd" fill="#33605E" width="2.489" height="10.379"/>
			
				<rect x="306.376" y="439.116" transform="matrix(0.9831 -0.1831 0.1831 0.9831 -76.1347 63.8203)" fill-rule="evenodd" clip-rule="evenodd" fill="#33605E" width="2.491" height="10.372"/>
			<rect x="279.748" y="494.728" fill="#FFF8F3" width="77.192" height="32.375"/>
			<polygon fill="#32BCD0" points="357.013,512.023 279.468,512.023 279.468,503.307 279.468,494.593 357.013,494.593 			"/>
			
				<line fill="none" stroke="#FFFFFF" stroke-width="0.25" stroke-miterlimit="10" x1="357.013" y1="497.148" x2="279.686" y2="497.148"/>
			
				<line fill="none" stroke="#FFFFFF" stroke-width="0.25" stroke-miterlimit="10" x1="357.013" y1="499.85" x2="279.686" y2="499.85"/>
			
				<line fill="none" stroke="#FFFFFF" stroke-width="0.25" stroke-miterlimit="10" x1="357.013" y1="502.547" x2="279.686" y2="502.547"/>
			
				<line fill="none" stroke="#FFFFFF" stroke-width="0.25" stroke-miterlimit="10" x1="357.013" y1="505.246" x2="279.686" y2="505.246"/>
			
				<line fill="none" stroke="#FFFFFF" stroke-width="0.25" stroke-miterlimit="10" x1="357.013" y1="507.942" x2="279.686" y2="507.942"/>
			
				<line fill="none" stroke="#FFFFFF" stroke-width="0.25" stroke-miterlimit="10" x1="357.013" y1="510.643" x2="279.686" y2="510.643"/>
			<line fill="#32BCD0" x1="283.897" y1="508.909" x2="283.897" y2="513.615"/>
			<polygon fill="#32BCD0" points="283.26,513.48 284.67,513.48 285.378,515.684 282.553,515.684 			"/>
			<rect x="297.746" y="494.728" fill="#104C5E" width="4.679" height="31.543"/>
			<rect x="336.483" y="494.728" fill="#104C5E" width="4.679" height="31.543"/>
			<rect x="313.919" y="500.264" fill="#104C5E" width="9.411" height="3.87"/>
			<rect x="301.746" y="502.348" fill="#104C5E" width="37.077" height="4.678"/>
			<rect x="279.055" y="522.949" fill="#104C5E" width="79.138" height="4.982"/>
			<rect x="290.125" y="581.476" fill="#FFF8F3" width="55.889" height="56.583"/>
			<rect x="289.501" y="638.369" fill="#32BCD0" width="57.273" height="9.338"/>
			<rect x="315.729" y="582.165" fill="#104C5E" width="4.679" height="55.894"/>
			<rect x="286.041" y="577.74" fill="#32BCD0" width="64.193" height="4.979"/>
			<rect x="324.017" y="609.004" fill="#32BCD0" width="3.321" height="3.323"/>
			<rect x="308.66" y="609.004" fill="#32BCD0" width="3.319" height="3.323"/>
			<polygon fill="#C39C51" points="523.317,641.469 463.872,641.469 463.872,471.539 523.589,465.209 			"/>
			<polygon fill="#C39C51" points="478.718,670.219 372.467,670.219 417.891,639.267 524.141,639.267 			"/>
			<rect x="372.467" y="494.801" fill="#9E8333" width="106.251" height="175.418"/>
			<polygon fill="#A88D4E" points="478.718,495.883 372.467,495.883 417.891,464.932 524.141,464.932 			"/>
			<line fill="none" stroke="#FFFFFF" stroke-miterlimit="10" x1="524.141" y1="478.97" x2="478.718" y2="509.922"/>
			<line fill="none" stroke="#FFFFFF" stroke-miterlimit="10" x1="524.141" y1="470.711" x2="478.718" y2="501.666"/>
			<line fill="none" stroke="#FFFFFF" stroke-miterlimit="10" x1="524.141" y1="488.051" x2="478.718" y2="519.005"/>
			<line fill="none" stroke="#FFFFFF" stroke-miterlimit="10" x1="524.141" y1="497.135" x2="478.718" y2="528.086"/>
			<line fill="none" stroke="#FFFFFF" stroke-miterlimit="10" x1="524.141" y1="506.215" x2="478.718" y2="537.166"/>
			<line fill="none" stroke="#FFFFFF" stroke-miterlimit="10" x1="524.141" y1="515.297" x2="478.718" y2="546.248"/>
			<line fill="none" stroke="#FFFFFF" stroke-miterlimit="10" x1="524.141" y1="524.375" x2="478.718" y2="555.33"/>
			<line fill="none" stroke="#FFFFFF" stroke-miterlimit="10" x1="524.141" y1="533.457" x2="478.718" y2="564.411"/>
			<line fill="none" stroke="#FFFFFF" stroke-miterlimit="10" x1="524.141" y1="542.543" x2="478.718" y2="573.496"/>
			<line fill="none" stroke="#FFFFFF" stroke-miterlimit="10" x1="524.141" y1="551.625" x2="478.718" y2="582.575"/>
			<line fill="none" stroke="#FFFFFF" stroke-miterlimit="10" x1="524.141" y1="560.707" x2="478.718" y2="591.656"/>
			<line fill="none" stroke="#FFFFFF" stroke-miterlimit="10" x1="524.141" y1="569.784" x2="478.718" y2="600.736"/>
			<line fill="none" stroke="#FFFFFF" stroke-miterlimit="10" x1="524.141" y1="578.865" x2="478.718" y2="609.819"/>
			<line fill="none" stroke="#FFFFFF" stroke-miterlimit="10" x1="524.141" y1="587.949" x2="478.718" y2="618.903"/>
			<line fill="none" stroke="#FFFFFF" stroke-miterlimit="10" x1="524.141" y1="597.032" x2="478.718" y2="627.983"/>
			<line fill="none" stroke="#FFFFFF" stroke-miterlimit="10" x1="524.141" y1="606.113" x2="478.718" y2="637.066"/>
			<line fill="none" stroke="#FFFFFF" stroke-miterlimit="10" x1="524.141" y1="615.193" x2="478.718" y2="646.146"/>
			<line fill="none" stroke="#FFFFFF" stroke-miterlimit="10" x1="524.141" y1="624.275" x2="478.718" y2="655.226"/>
			<line fill="none" stroke="#FFFFFF" stroke-miterlimit="10" x1="524.141" y1="633.357" x2="478.718" y2="664.311"/>
			<line fill="#FFD80D" x1="524.141" y1="634.184" x2="478.718" y2="665.135"/>
			<rect x="381.309" y="501.666" fill="none" stroke="#FFFFFF" stroke-miterlimit="10" width="88.102" height="164.209"/>
			<path fill="#FFFFFF" d="M421.579,607.23c-16.194,0-29.321-13.129-29.321-29.324c0-16.191,13.127-29.324,29.321-29.324
				c16.195,0,29.324,13.133,29.324,29.324C450.903,594.102,437.774,607.23,421.579,607.23z"/>
			<path fill="#9E8333" d="M421.579,604.492c-14.658,0-26.583-11.926-26.583-26.586s11.925-26.586,26.583-26.586
				c14.66,0,26.586,11.926,26.586,26.586S436.239,604.492,421.579,604.492z M421.579,553.659c-13.369,0-24.245,10.878-24.245,24.247
				c0,13.37,10.876,24.246,24.245,24.246s24.247-10.876,24.247-24.246C445.826,564.537,434.948,553.659,421.579,553.659z"/>
			<circle fill="none" stroke="#FFFFFF" stroke-miterlimit="10" cx="461.689" cy="509.29" r="7.624"/>
			<path fill="none" stroke="#FFFFFF" stroke-miterlimit="10" d="M389.126,516.914c-4.21,0-7.623-3.416-7.623-7.625
				s3.413-7.623,7.623-7.623c4.214,0,7.626,3.414,7.626,7.623S393.34,516.914,389.126,516.914z"/>
			<path fill="none" stroke="#FFFFFF" stroke-miterlimit="10" d="M461.689,666.168c-4.209,0-7.625-3.412-7.625-7.619
				c0-4.215,3.416-7.627,7.625-7.627c4.211,0,7.625,3.412,7.625,7.627C469.314,662.756,465.9,666.168,461.689,666.168z"/>
			<g>
				<g>
					<path fill="#FFFFFF" d="M462.13,508.328c-0.152,0.04-0.232-0.032-0.257-0.185c-0.064-0.312-0.232-0.514-0.586-0.505
						c-0.289,0.008-0.401,0.208-0.361,0.36c0.129,0.61,2.344,0.426,2.368,2.199c0.008,0.193-0.112,1.261-1.324,1.55v0.497
						c0,0.16-0.081,0.241-0.241,0.241h-0.898c-0.153,0.008-0.241-0.081-0.241-0.233v-0.529c-0.907-0.265-1.092-1.044-1.14-1.533
						c-0.008-0.137,0.064-0.225,0.192-0.257l0.851-0.2c0.145-0.032,0.225,0.023,0.249,0.185c0.04,0.369,0.161,0.586,0.594,0.577
						c0.45-0.008,0.554-0.272,0.514-0.433c-0.152-0.667-2.263-0.354-2.295-2.127c-0.008-0.193,0.016-1.236,1.1-1.541v-0.498
						c0-0.16,0.088-0.241,0.24-0.241h0.899c0.16,0,0.24,0.081,0.24,0.241v0.514c0.892,0.257,1.092,1.003,1.132,1.453
						c0.017,0.145-0.048,0.225-0.185,0.257L462.13,508.328z"/>
				</g>
			</g>
			<g>
				<path fill="#9E8333" d="M426.043,574.761c-0.624,0.164-0.952-0.132-1.051-0.756c-0.263-1.28-0.952-2.102-2.397-2.068
					c-1.182,0.033-1.642,0.854-1.478,1.478c0.525,2.496,9.589,1.74,9.688,8.997c0.032,0.788-0.46,5.155-5.418,6.338v2.036
					c0,0.656-0.329,0.984-0.985,0.984h-3.678c-0.624,0.033-0.985-0.328-0.985-0.952v-2.167c-3.711-1.084-4.466-4.269-4.663-6.271
					c-0.032-0.559,0.263-0.92,0.788-1.051l3.48-0.821c0.592-0.131,0.92,0.099,1.019,0.755c0.164,1.511,0.656,2.397,2.43,2.365
					c1.839-0.033,2.266-1.117,2.102-1.773c-0.624-2.726-9.26-1.445-9.392-8.702c-0.032-0.788,0.066-5.057,4.499-6.305v-2.036
					c0-0.656,0.361-0.984,0.985-0.984h3.678c0.656,0,0.984,0.328,0.984,0.984v2.102c3.646,1.051,4.467,4.105,4.631,5.943
					c0.065,0.592-0.197,0.92-0.756,1.051L426.043,574.761z"/>
			</g>
			<g>
				<g>
					<path fill="#FFFFFF" d="M389.471,508.331c-0.152,0.04-0.232-0.032-0.257-0.185c-0.064-0.312-0.232-0.514-0.586-0.506
						c-0.289,0.009-0.401,0.209-0.361,0.361c0.129,0.61,2.344,0.426,2.368,2.199c0.008,0.193-0.112,1.261-1.324,1.549v0.498
						c0,0.16-0.081,0.241-0.241,0.241h-0.898c-0.153,0.008-0.241-0.081-0.241-0.233v-0.529c-0.907-0.265-1.092-1.044-1.14-1.533
						c-0.008-0.137,0.064-0.225,0.192-0.257l0.851-0.2c0.145-0.032,0.226,0.023,0.249,0.185c0.04,0.369,0.161,0.586,0.594,0.577
						c0.45-0.008,0.554-0.272,0.514-0.433c-0.152-0.667-2.263-0.354-2.295-2.127c-0.008-0.193,0.016-1.236,1.1-1.541v-0.498
						c0-0.16,0.088-0.241,0.24-0.241h0.899c0.16,0,0.24,0.081,0.24,0.241v0.514c0.892,0.257,1.092,1.003,1.132,1.453
						c0.017,0.145-0.048,0.225-0.185,0.257L389.471,508.331z"/>
				</g>
			</g>
			<g>
				<g>
					<path fill="#FFFFFF" d="M462.13,657.768c-0.152,0.04-0.232-0.032-0.257-0.185c-0.064-0.312-0.232-0.514-0.586-0.505
						c-0.289,0.008-0.401,0.208-0.361,0.36c0.129,0.61,2.344,0.426,2.368,2.199c0.008,0.193-0.112,1.261-1.324,1.55v0.497
						c0,0.16-0.081,0.241-0.241,0.241h-0.898c-0.153,0.008-0.241-0.081-0.241-0.233v-0.529c-0.907-0.265-1.092-1.044-1.14-1.533
						c-0.008-0.137,0.064-0.225,0.192-0.257l0.851-0.2c0.145-0.032,0.225,0.023,0.249,0.185c0.04,0.369,0.161,0.586,0.594,0.577
						c0.45-0.008,0.554-0.272,0.514-0.433c-0.152-0.667-2.263-0.354-2.295-2.127c-0.008-0.193,0.016-1.236,1.1-1.541v-0.498
						c0-0.16,0.088-0.241,0.24-0.241h0.899c0.16,0,0.24,0.081,0.24,0.241v0.514c0.892,0.257,1.092,1.003,1.132,1.453
						c0.017,0.145-0.048,0.225-0.185,0.257L462.13,657.768z"/>
				</g>
			</g>
			<g>
				<g>
					<path fill="#FFFFFF" d="M389.471,657.763c-0.152,0.04-0.232-0.032-0.257-0.185c-0.064-0.312-0.232-0.514-0.586-0.506
						c-0.289,0.009-0.401,0.209-0.361,0.361c0.129,0.61,2.344,0.426,2.368,2.199c0.008,0.193-0.112,1.261-1.324,1.549v0.498
						c0,0.16-0.081,0.241-0.241,0.241h-0.898c-0.153,0.008-0.241-0.081-0.241-0.233v-0.529c-0.907-0.265-1.092-1.044-1.14-1.533
						c-0.008-0.137,0.064-0.225,0.192-0.257l0.851-0.2c0.145-0.032,0.226,0.023,0.249,0.185c0.04,0.369,0.161,0.586,0.594,0.577
						c0.45-0.008,0.554-0.272,0.514-0.433c-0.152-0.667-2.263-0.354-2.295-2.127c-0.008-0.193,0.016-1.236,1.1-1.541v-0.498
						c0-0.16,0.088-0.241,0.24-0.241h0.899c0.16,0,0.24,0.081,0.24,0.241v0.514c0.892,0.257,1.092,1.003,1.132,1.453
						c0.017,0.145-0.048,0.225-0.185,0.257L389.471,657.763z"/>
				</g>
			</g>
			<path fill="none" stroke="#FFFFFF" stroke-miterlimit="10" d="M389.126,666.168c-4.21,0-7.623-3.412-7.623-7.619
				c0-4.215,3.413-7.627,7.623-7.627c4.214,0,7.626,3.412,7.626,7.627C396.752,662.756,393.34,666.168,389.126,666.168z"/>
			<line fill="none" stroke="#FFFFFF" stroke-miterlimit="10" x1="418.463" y1="302.29" x2="373.042" y2="333.243"/>
			<line fill="none" stroke="#FFFFFF" stroke-miterlimit="10" x1="418.463" y1="294.032" x2="373.042" y2="324.985"/>
			<line fill="none" stroke="#FFFFFF" stroke-miterlimit="10" x1="418.463" y1="311.37" x2="373.042" y2="342.323"/>
			<line fill="none" stroke="#FFFFFF" stroke-miterlimit="10" x1="418.463" y1="320.452" x2="373.042" y2="351.405"/>
			<line fill="none" stroke="#FFFFFF" stroke-miterlimit="10" x1="418.463" y1="329.535" x2="373.042" y2="360.489"/>
			<line fill="none" stroke="#FFFFFF" stroke-miterlimit="10" x1="418.463" y1="338.615" x2="373.042" y2="369.568"/>
			<line fill="none" stroke="#FFFFFF" stroke-miterlimit="10" x1="418.463" y1="347.699" x2="373.042" y2="378.65"/>
			<line fill="none" stroke="#FFFFFF" stroke-miterlimit="10" x1="418.463" y1="356.779" x2="373.042" y2="387.729"/>
			<line fill="none" stroke="#FFFFFF" stroke-miterlimit="10" x1="418.463" y1="365.861" x2="373.042" y2="396.811"/>
			<line fill="none" stroke="#FFFFFF" stroke-miterlimit="10" x1="418.463" y1="374.943" x2="373.042" y2="405.896"/>
			<line fill="none" stroke="#FFFFFF" stroke-miterlimit="10" x1="418.463" y1="384.025" x2="373.042" y2="414.976"/>
			<line fill="none" stroke="#FFFFFF" stroke-miterlimit="10" x1="418.463" y1="393.106" x2="373.042" y2="424.061"/>
			<line fill="none" stroke="#FFFFFF" stroke-miterlimit="10" x1="418.463" y1="402.187" x2="373.042" y2="433.139"/>
			<line fill="none" stroke="#FFFFFF" stroke-miterlimit="10" x1="418.463" y1="411.268" x2="373.042" y2="442.221"/>
			<line fill="none" stroke="#FFFFFF" stroke-miterlimit="10" x1="418.463" y1="420.35" x2="373.042" y2="451.303"/>
			<line fill="none" stroke="#FFFFFF" stroke-miterlimit="10" x1="418.463" y1="429.432" x2="373.042" y2="460.385"/>
			<line fill="none" stroke="#FFFFFF" stroke-miterlimit="10" x1="418.463" y1="438.516" x2="373.042" y2="469.467"/>
			<line fill="none" stroke="#FFFFFF" stroke-miterlimit="10" x1="418.463" y1="447.596" x2="373.042" y2="478.549"/>
			<line fill="none" stroke="#FFFFFF" stroke-miterlimit="10" x1="418.463" y1="456.678" x2="373.042" y2="487.631"/>
			
				<polyline fill="none" stroke="#FFFFFF" stroke-width="6" stroke-linecap="round" stroke-linejoin="round" stroke-miterlimit="10" points="
				586.754,194.646 608.597,186.98 537.646,377.485 491.654,358.192 441.754,479.98 			"/>
			
				<line fill="none" stroke="#FFFFFF" stroke-width="6" stroke-linecap="round" stroke-linejoin="round" stroke-miterlimit="10" x1="608.597" y1="186.98" x2="620.754" y2="204.98"/>
			<g>
				<polygon fill="#32BCD0" points="375.058,305 292.752,305 301.605,299 290.521,299 265.22,316 371.471,316 396.772,299 
					383.914,299 				"/>
				<polygon fill="#468495" points="375.058,305 383.914,299 301.605,299 292.752,305 				"/>
				<polygon fill="none" points="426,265 282,265 282,299 290.521,299 310.644,285 416.895,285 396.772,299 426,299 				"/>
				<polygon fill="#32BCD0" points="310.644,285 290.521,299 301.605,299 308.986,294 391.298,294 383.914,299 396.772,299 
					416.895,285 				"/>
				<polygon fill="#468495" points="391.298,294 308.986,294 301.605,299 383.914,299 				"/>
			</g>
		</g>
		<g opacity="0.3">
			<g>
				<path fill="#32BCD0" d="M255.621,647.738c-3.298,0-5.979-2.682-5.979-5.979s2.682-5.979,5.979-5.979s5.979,2.682,5.979,5.979
					S258.919,647.738,255.621,647.738z M255.621,639.767c-1.098,0-1.993,0.895-1.993,1.993c0,1.1,0.896,1.992,1.993,1.992
					s1.993-0.893,1.993-1.992C257.614,640.661,256.719,639.767,255.621,639.767z"/>
			</g>
			<g>
				<path fill="#32BCD0" d="M303.454,647.738c-3.297,0-5.979-2.682-5.979-5.979s2.682-5.979,5.979-5.979s5.979,2.682,5.979,5.979
					S306.751,647.738,303.454,647.738z M303.454,639.767c-1.097,0-1.993,0.895-1.993,1.993c0,1.1,0.896,1.992,1.993,1.992
					c1.098,0,1.993-0.893,1.993-1.992C305.447,640.661,304.552,639.767,303.454,639.767z"/>
			</g>
			<g>
				<path fill="#32BCD0" d="M546.606,679.627H442.968c-1.102,0-1.992-0.891-1.992-1.992s0.891-1.992,1.992-1.992h103.639
					c1.102,0,1.992,0.891,1.992,1.992S547.708,679.627,546.606,679.627z"/>
			</g>
			<g>
				<path fill="#32BCD0" d="M474.856,687.6h-47.833c-1.103,0-1.994-0.893-1.994-1.994c0-1.1,0.892-1.99,1.994-1.99h47.833
					c1.103,0,1.993,0.891,1.993,1.99C476.85,686.707,475.959,687.6,474.856,687.6z"/>
			</g>
			<g>
				<path fill="#32BCD0" d="M602.412,472.351h-23.916c-1.103,0-1.993-0.892-1.993-1.993c0-1.101,0.891-1.992,1.993-1.992h23.916
					c1.103,0,1.993,0.892,1.993,1.992C604.405,471.459,603.515,472.351,602.412,472.351z"/>
			</g>
			<g>
				<path fill="#32BCD0" d="M586.468,480.323h-15.944c-1.102,0-1.993-0.892-1.993-1.993c0-1.103,0.892-1.994,1.993-1.994h15.944
					c1.102,0,1.992,0.892,1.992,1.994C588.46,479.432,587.569,480.323,586.468,480.323z"/>
			</g>
			<g>
				<g>
					<path fill="#32BCD0" d="M195.829,472.351c-0.518,0-1.035-0.22-1.415-0.579c-0.359-0.379-0.578-0.896-0.578-1.414
						s0.219-1.035,0.578-1.416c0.757-0.736,2.073-0.736,2.831,0c0.357,0.381,0.577,0.898,0.577,1.416s-0.22,1.035-0.577,1.414
						C196.864,472.131,196.348,472.351,195.829,472.351z"/>
				</g>
				<g>
					<path fill="#32BCD0" d="M185.863,470.357c0-1.099,0.896-1.992,1.993-1.992l0,0c1.096,0,1.994,0.894,1.994,1.992l0,0
						c0,1.096-0.898,1.993-1.994,1.993l0,0C186.759,472.351,185.863,471.453,185.863,470.357z M177.893,470.357
						c0-1.099,0.894-1.992,1.992-1.992l0,0c1.095,0,1.993,0.894,1.993,1.992l0,0c0,1.096-0.898,1.993-1.993,1.993l0,0
						C178.786,472.351,177.893,471.453,177.893,470.357z"/>
				</g>
				<g>
					<path fill="#32BCD0" d="M171.912,472.351c-0.517,0-1.035-0.22-1.414-0.579c-0.36-0.379-0.578-0.896-0.578-1.414
						s0.218-1.035,0.578-1.416c0.737-0.736,2.073-0.736,2.828,0c0.359,0.381,0.579,0.898,0.579,1.416s-0.22,1.035-0.579,1.414
						C172.948,472.131,172.43,472.351,171.912,472.351z"/>
				</g>
			</g>
			<g>
				<path fill="#32BCD0" d="M195.829,568.018h-7.973c-1.102,0-1.993-0.893-1.993-1.994s0.892-1.994,1.993-1.994h7.973
					c1.102,0,1.993,0.893,1.993,1.994S196.931,568.018,195.829,568.018z"/>
			</g>
			<g>
				<path fill="#32BCD0" d="M514.718,273.046h-23.916c-1.102,0-1.994-0.895-1.994-1.994c0-1.101,0.893-1.994,1.994-1.994h23.916
					c1.102,0,1.993,0.894,1.993,1.994C516.711,272.151,515.819,273.046,514.718,273.046z"/>
			</g>
			<g>
				<path fill="#32BCD0" d="M466.884,249.127h-7.971c-1.103,0-1.994-0.892-1.994-1.992c0-1.099,0.892-1.993,1.994-1.993h7.971
					c1.103,0,1.994,0.894,1.994,1.993C468.878,248.235,467.986,249.127,466.884,249.127z"/>
			</g>
			<g>
				<path fill="#32BCD0" d="M586.468,560.044h-15.944c-1.102,0-1.993-0.892-1.993-1.993s0.892-1.992,1.993-1.992h15.944
					c1.102,0,1.992,0.891,1.992,1.992S587.569,560.044,586.468,560.044z"/>
			</g>
			<g>
				<path fill="#32BCD0" d="M642.272,591.934h-7.972c-1.102,0-1.992-0.893-1.992-1.992c0-1.104,0.891-1.994,1.992-1.994h7.972
					c1.102,0,1.994,0.891,1.994,1.994C644.267,591.041,643.374,591.934,642.272,591.934z"/>
			</g>
			<g>
				<path fill="#32BCD0" d="M155.969,615.851h-23.918c-1.101,0-1.993-0.892-1.993-1.993s0.893-1.992,1.993-1.992h23.918
					c1.102,0,1.992,0.891,1.992,1.992S157.07,615.851,155.969,615.851z"/>
			</g>
			<g>
				<path fill="#32BCD0" d="M251.635,328.852H235.69c-1.102,0-1.993-0.895-1.993-1.993c0-1.1,0.892-1.994,1.993-1.994h15.944
					c1.102,0,1.993,0.894,1.993,1.994C253.628,327.957,252.736,328.852,251.635,328.852z"/>
			</g>
			<g>
				<path fill="#32BCD0" d="M179.885,480.323h-39.861c-1.101,0-1.992-0.892-1.992-1.993c0-1.103,0.892-1.994,1.992-1.994h39.861
					c1.102,0,1.993,0.892,1.993,1.994C181.878,479.432,180.986,480.323,179.885,480.323z"/>
			</g>
			<g>
				<g>
					<path fill="#32BCD0" d="M323.385,671.654c-0.518,0-1.036-0.219-1.414-0.576c-0.361-0.379-0.579-0.898-0.579-1.416
						c0-0.519,0.218-1.037,0.579-1.416c0.756-0.735,2.091-0.735,2.829,0c0.358,0.379,0.579,0.897,0.579,1.416
						c0,0.538-0.221,1.037-0.579,1.416C324.42,671.436,323.901,671.654,323.385,671.654z"/>
				</g>
				<g>
					<path fill="#32BCD0" d="M313.42,669.662c0-1.096,0.895-1.992,1.993-1.992l0,0c1.095,0,1.991,0.896,1.991,1.992l0,0
						c0,1.097-0.896,1.992-1.991,1.992l0,0C314.314,671.654,313.42,670.759,313.42,669.662z M305.447,669.662
						c0-1.096,0.896-1.992,1.993-1.992l0,0c1.096,0,1.993,0.896,1.993,1.992l0,0c0,1.097-0.897,1.992-1.993,1.992l0,0
						C306.343,671.654,305.447,670.759,305.447,669.662z M297.476,669.662c0-1.096,0.895-1.992,1.992-1.992l0,0
						c1.097,0,1.993,0.896,1.993,1.992l0,0c0,1.097-0.896,1.992-1.993,1.992l0,0C298.37,671.654,297.476,670.759,297.476,669.662z
						 M289.503,669.662c0-1.096,0.896-1.992,1.992-1.992l0,0c1.098,0,1.994,0.896,1.994,1.992l0,0c0,1.097-0.896,1.992-1.994,1.992
						l0,0C290.398,671.654,289.503,670.759,289.503,669.662z M281.53,669.662c0-1.096,0.896-1.992,1.994-1.992l0,0
						c1.095,0,1.991,0.896,1.991,1.992l0,0c0,1.097-0.896,1.992-1.991,1.992l0,0C282.426,671.654,281.53,670.759,281.53,669.662z
						 M273.558,669.662c0-1.096,0.896-1.992,1.994-1.992l0,0c1.096,0,1.992,0.896,1.992,1.992l0,0c0,1.097-0.896,1.992-1.992,1.992
						l0,0C274.454,671.654,273.558,670.759,273.558,669.662z M265.586,669.662c0-1.096,0.896-1.992,1.993-1.992l0,0
						c1.096,0,1.994,0.896,1.994,1.992l0,0c0,1.097-0.898,1.992-1.994,1.992l0,0C266.481,671.654,265.586,670.759,265.586,669.662z
						 M257.614,669.662c0-1.096,0.895-1.992,1.992-1.992l0,0c1.098,0,1.994,0.896,1.994,1.992l0,0c0,1.097-0.896,1.992-1.994,1.992
						l0,0C258.509,671.654,257.614,670.759,257.614,669.662z M249.642,669.662c0-1.096,0.895-1.992,1.993-1.992l0,0
						c1.095,0,1.993,0.896,1.993,1.992l0,0c0,1.097-0.898,1.992-1.993,1.992l0,0C250.536,671.654,249.642,670.759,249.642,669.662z
						 M241.669,669.662c0-1.096,0.896-1.992,1.993-1.992l0,0c1.097,0,1.993,0.896,1.993,1.992l0,0c0,1.097-0.896,1.992-1.993,1.992
						l0,0C242.565,671.654,241.669,670.759,241.669,669.662z M233.697,669.662c0-1.096,0.896-1.992,1.993-1.992l0,0
						c1.096,0,1.992,0.896,1.992,1.992l0,0c0,1.097-0.896,1.992-1.992,1.992l0,0C234.593,671.654,233.697,670.759,233.697,669.662z"
						/>
				</g>
				<g>
					<path fill="#32BCD0" d="M227.718,671.654c-0.518,0-1.036-0.219-1.414-0.576c-0.361-0.379-0.579-0.898-0.579-1.416
						c0-0.519,0.218-1.037,0.579-1.416c0.757-0.735,2.092-0.735,2.829,0c0.358,0.379,0.578,0.897,0.578,1.416
						c0,0.518-0.22,1.037-0.578,1.416C228.755,671.436,228.235,671.654,227.718,671.654z"/>
				</g>
			</g>
			<g>
				<path fill="#32BCD0" d="M656.225,510.219c0-1.098,0.897-1.993,1.993-1.993l0,0c1.096,0,1.994,0.896,1.994,1.993l0,0
					c0,1.097-0.898,1.992-1.994,1.992l0,0C657.122,512.211,656.225,511.315,656.225,510.219z M648.253,510.219
					c0-1.098,0.896-1.993,1.992-1.993l0,0c1.096,0,1.993,0.896,1.993,1.993l0,0c0,1.097-0.897,1.992-1.993,1.992l0,0
					C649.149,512.211,648.253,511.315,648.253,510.219z M640.28,510.219c0-1.098,0.897-1.993,1.992-1.993l0,0
					c1.097,0,1.994,0.896,1.994,1.993l0,0c0,1.097-0.897,1.992-1.994,1.992l0,0C641.178,512.211,640.28,511.315,640.28,510.219z
					 M632.309,510.219c0-1.098,0.896-1.993,1.992-1.993l0,0c1.097,0,1.993,0.896,1.993,1.993l0,0c0,1.097-0.896,1.992-1.993,1.992
					l0,0C633.205,512.211,632.309,511.315,632.309,510.219z M624.336,510.219c0-1.098,0.896-1.993,1.992-1.993l0,0
					c1.097,0,1.993,0.896,1.993,1.993l0,0c0,1.097-0.896,1.992-1.993,1.992l0,0C625.232,512.211,624.336,511.315,624.336,510.219z
					 M616.363,510.219c0-1.098,0.897-1.993,1.994-1.993l0,0c1.095,0,1.992,0.896,1.992,1.993l0,0c0,1.097-0.897,1.992-1.992,1.992
					l0,0C617.261,512.211,616.363,511.315,616.363,510.219z M608.392,510.219c0-1.098,0.896-1.993,1.993-1.993l0,0
					c1.096,0,1.992,0.896,1.992,1.993l0,0c0,1.097-0.896,1.992-1.992,1.992l0,0C609.288,512.211,608.392,511.315,608.392,510.219z
					 M600.419,510.219c0-1.098,0.896-1.993,1.993-1.993l0,0c1.096,0,1.993,0.896,1.993,1.993l0,0c0,1.097-0.897,1.992-1.993,1.992
					l0,0C601.315,512.211,600.419,511.315,600.419,510.219z M592.448,510.219c0-1.098,0.896-1.993,1.99-1.993l0,0
					c1.097,0,1.994,0.896,1.994,1.993l0,0c0,1.097-0.897,1.992-1.994,1.992l0,0C593.345,512.211,592.448,511.315,592.448,510.219z"
					/>
			</g>
			<g>
				<path fill="#32BCD0" d="M161.948,510.219c0-1.098,0.895-1.993,1.993-1.993l0,0c1.095,0,1.992,0.896,1.992,1.993l0,0
					c0,1.097-0.897,1.992-1.992,1.992l0,0C162.843,512.211,161.948,511.315,161.948,510.219z M153.976,510.219
					c0-1.098,0.896-1.993,1.993-1.993l0,0c1.096,0,1.992,0.896,1.992,1.993l0,0c0,1.097-0.896,1.992-1.992,1.992l0,0
					C154.871,512.211,153.976,511.315,153.976,510.219z M146.003,510.219c0-1.098,0.896-1.993,1.993-1.993l0,0
					c1.096,0,1.993,0.896,1.993,1.993l0,0c0,1.097-0.897,1.992-1.993,1.992l0,0C146.898,512.211,146.003,511.315,146.003,510.219z
					 M138.031,510.219c0-1.098,0.896-1.993,1.992-1.993l0,0c1.097,0,1.993,0.896,1.993,1.993l0,0c0,1.097-0.896,1.992-1.993,1.992
					l0,0C138.927,512.211,138.031,511.315,138.031,510.219z M130.058,510.219c0-1.098,0.896-1.993,1.993-1.993l0,0
					c1.097,0,1.994,0.896,1.994,1.993l0,0c0,1.097-0.897,1.992-1.994,1.992l0,0C130.953,512.211,130.058,511.315,130.058,510.219z
					 M122.087,510.219c0-1.098,0.896-1.993,1.993-1.993l0,0c1.096,0,1.992,0.896,1.992,1.993l0,0c0,1.097-0.896,1.992-1.992,1.992
					l0,0C122.982,512.211,122.087,511.315,122.087,510.219z M114.114,510.219c0-1.098,0.896-1.993,1.993-1.993l0,0
					c1.096,0,1.992,0.896,1.992,1.993l0,0c0,1.097-0.896,1.992-1.992,1.992l0,0C115.01,512.211,114.114,511.315,114.114,510.219z
					 M106.143,510.219c0-1.098,0.895-1.993,1.993-1.993l0,0c1.095,0,1.993,0.896,1.993,1.993l0,0c0,1.097-0.898,1.992-1.993,1.992
					l0,0C107.037,512.211,106.143,511.315,106.143,510.219z M98.169,510.219c0-1.098,0.896-1.993,1.994-1.993l0,0
					c1.096,0,1.992,0.896,1.992,1.993l0,0c0,1.097-0.896,1.992-1.992,1.992l0,0C99.065,512.211,98.169,511.315,98.169,510.219z
					 M90.196,510.219c0-1.098,0.896-1.993,1.994-1.993l0,0c1.096,0,1.993,0.896,1.993,1.993l0,0c0,1.097-0.897,1.992-1.993,1.992
					l0,0C91.093,512.211,90.196,511.315,90.196,510.219z M82.226,510.219c0-1.098,0.896-1.993,1.993-1.993l0,0
					c1.096,0,1.992,0.896,1.992,1.993l0,0c0,1.097-0.896,1.992-1.992,1.992l0,0C83.121,512.211,82.226,511.315,82.226,510.219z"/>
			</g>
			<g>
				<path fill="#32BCD0" d="M138.031,605.885c0-1.096,0.896-1.993,1.992-1.993l0,0c1.097,0,1.993,0.897,1.993,1.993l0,0
					c0,1.096-0.896,1.992-1.993,1.992l0,0C138.927,607.877,138.031,606.98,138.031,605.885z M130.058,605.885
					c0-1.096,0.896-1.993,1.993-1.993l0,0c1.097,0,1.994,0.897,1.994,1.993l0,0c0,1.096-0.897,1.992-1.994,1.992l0,0
					C130.953,607.877,130.058,606.98,130.058,605.885z M122.087,605.885c0-1.096,0.896-1.993,1.993-1.993l0,0
					c1.096,0,1.992,0.897,1.992,1.993l0,0c0,1.096-0.896,1.992-1.992,1.992l0,0C122.982,607.877,122.087,606.98,122.087,605.885z
					 M114.114,605.885c0-1.096,0.896-1.993,1.993-1.993l0,0c1.096,0,1.992,0.897,1.992,1.993l0,0c0,1.096-0.896,1.992-1.992,1.992
					l0,0C115.01,607.877,114.114,606.98,114.114,605.885z"/>
			</g>
			<g>
				<path fill="#32BCD0" d="M480.835,255.108c0-1.097,0.898-1.995,1.994-1.995l0,0c1.096,0,1.993,0.897,1.993,1.995l0,0
					c0,1.095-0.897,1.991-1.993,1.991l0,0C481.733,257.1,480.835,256.203,480.835,255.108z M472.863,255.108
					c0-1.097,0.897-1.995,1.993-1.995l0,0c1.096,0,1.993,0.897,1.993,1.995l0,0c0,1.095-0.897,1.991-1.993,1.991l0,0
					C473.761,257.1,472.863,256.203,472.863,255.108z M464.891,255.108c0-1.097,0.898-1.995,1.993-1.995l0,0
					c1.096,0,1.994,0.897,1.994,1.995l0,0c0,1.095-0.898,1.991-1.994,1.991l0,0C465.789,257.1,464.891,256.203,464.891,255.108z
					 M456.919,255.108c0-1.097,0.896-1.995,1.994-1.995l0,0c1.096,0,1.992,0.897,1.992,1.995l0,0c0,1.095-0.896,1.991-1.992,1.991
					l0,0C457.815,257.1,456.919,256.203,456.919,255.108z M448.946,255.108c0-1.097,0.898-1.995,1.994-1.995l0,0
					c1.096,0,1.992,0.897,1.992,1.995l0,0c0,1.095-0.896,1.991-1.992,1.991l0,0C449.845,257.1,448.946,256.203,448.946,255.108z
					 M440.976,255.108c0-1.097,0.896-1.995,1.992-1.995l0,0c1.096,0,1.994,0.897,1.994,1.995l0,0c0,1.095-0.898,1.991-1.994,1.991
					l0,0C441.872,257.1,440.976,256.203,440.976,255.108z M433.003,255.108c0-1.097,0.897-1.995,1.992-1.995l0,0
					c1.096,0,1.994,0.897,1.994,1.995l0,0c0,1.095-0.898,1.991-1.994,1.991l0,0C433.9,257.1,433.003,256.203,433.003,255.108z"/>
			</g>
			<g>
				<path fill="#32BCD0" d="M600.419,566.023c0-1.096,0.896-1.994,1.993-1.994l0,0c1.096,0,1.993,0.898,1.993,1.994l0,0
					c0,1.096-0.897,1.994-1.993,1.994l0,0C601.315,568.018,600.419,567.119,600.419,566.023z M592.448,566.023
					c0-1.096,0.896-1.994,1.99-1.994l0,0c1.097,0,1.994,0.898,1.994,1.994l0,0c0,1.096-0.897,1.994-1.994,1.994l0,0
					C593.345,568.018,592.448,567.119,592.448,566.023z M584.475,566.023c0-1.096,0.896-1.994,1.993-1.994l0,0
					c1.096,0,1.992,0.898,1.992,1.994l0,0c0,1.096-0.896,1.994-1.992,1.994l0,0C585.371,568.018,584.475,567.119,584.475,566.023z
					 M576.503,566.023c0-1.096,0.897-1.994,1.993-1.994l0,0c1.095,0,1.991,0.898,1.991,1.994l0,0c0,1.096-0.896,1.994-1.991,1.994
					l0,0C577.4,568.018,576.503,567.119,576.503,566.023z"/>
			</g>
			<g>
				<path fill="#32BCD0" d="M496.78,717.494c0-1.094,0.896-1.99,1.994-1.99l0,0c1.095,0,1.992,0.896,1.992,1.99l0,0
					c0,1.099-0.897,1.994-1.992,1.994l0,0C497.677,719.488,496.78,718.593,496.78,717.494z M488.808,717.494
					c0-1.094,0.876-1.99,1.994-1.99l0,0c1.096,0,1.992,0.896,1.992,1.99l0,0c0,1.099-0.896,1.994-1.992,1.994l0,0
					C489.684,719.488,488.808,718.593,488.808,717.494z M480.835,717.494c0-1.094,0.898-1.99,1.994-1.99l0,0
					c1.096,0,1.993,0.896,1.993,1.99l0,0c0,1.099-0.897,1.994-1.993,1.994l0,0C481.733,719.488,480.835,718.593,480.835,717.494z
					 M472.863,717.494c0-1.094,0.897-1.99,1.993-1.99l0,0c1.096,0,1.993,0.896,1.993,1.99l0,0c0,1.099-0.897,1.994-1.993,1.994l0,0
					C473.761,719.488,472.863,718.593,472.863,717.494z"/>
			</g>
			<g>
				<path fill="#32BCD0" d="M323.366,749.502c-0.141-1.096,0.638-2.092,1.731-2.21l0,0c1.098-0.14,2.074,0.636,2.213,1.731l0,0
					c0.14,1.098-0.637,2.096-1.734,2.215l0,0l0,0l0,0c-0.077,0.02-0.159,0.02-0.237,0.02l0,0
					C324.342,751.258,323.483,750.519,323.366,749.502z M317.066,750.221c-1.035-0.379-1.555-1.534-1.175-2.551l0,0
					c0.396-1.036,1.534-1.555,2.568-1.176l0,0c1.038,0.4,1.558,1.534,1.177,2.572l0,0c-0.317,0.799-1.075,1.295-1.873,1.295l0,0
					C317.526,750.361,317.284,750.32,317.066,750.221z M330.82,747.688c-0.618-0.917-0.402-2.151,0.497-2.769l0,0
					c0.916-0.639,2.154-0.4,2.769,0.496l0,0c0.638,0.899,0.42,2.154-0.498,2.771l0,0l0,0l0,0c-0.339,0.24-0.735,0.362-1.135,0.362
					l0,0C331.836,748.549,331.197,748.248,330.82,747.688z M309.989,745.378c-0.734-0.839-0.656-2.093,0.16-2.829l0,0
					c0.817-0.717,2.094-0.658,2.81,0.179l0,0c0.739,0.814,0.659,2.075-0.158,2.81l0,0c-0.378,0.339-0.857,0.5-1.316,0.5l0,0
					C310.928,746.037,310.391,745.816,309.989,745.378z M336.577,742.607c-0.976-0.518-1.336-1.713-0.838-2.691l0,0
					c0.521-0.975,1.717-1.355,2.693-0.834l0,0c0.977,0.517,1.355,1.712,0.836,2.688l0,0c-0.358,0.677-1.057,1.057-1.772,1.057l0,0
					C337.196,742.827,336.878,742.767,336.577,742.607z M305.985,737.784c-0.279-1.057,0.379-2.151,1.437-2.411l0,0
					c1.073-0.258,2.152,0.379,2.43,1.457l0,0c0.259,1.053-0.398,2.15-1.454,2.41l0,0c-0.16,0.039-0.319,0.059-0.479,0.059l0,0
					C307.021,739.299,306.204,738.701,305.985,737.784z M337.336,733.439c0-0.02,0-0.041,0-0.061l0,0c0-0.019,0-0.037,0-0.037l0,0
					c0-1.119,0.876-2.016,1.974-2.016l0,0c1.096-0.02,2.013,0.879,2.013,1.975l0,0l0,0l0,0c0,0.02,0,0.06,0,0.078l0,0
					c0,0.02,0,0.041,0,0.061l0,0c0,1.096-0.897,1.994-1.993,1.994l0,0C338.231,735.434,337.336,734.535,337.336,733.439z
					 M337.336,733.32c0,0.021,0,0.021,0,0.021l0,0l0,0l0,0C337.336,733.342,337.336,733.342,337.336,733.32z M307.422,731.625
					c-1.079-0.258-1.736-1.334-1.477-2.41l0,0c0.259-1.076,1.335-1.734,2.411-1.477l0,0c1.058,0.26,1.716,1.337,1.475,2.414l0,0
					c-0.238,0.916-1.056,1.534-1.952,1.534l0,0C307.74,731.687,307.58,731.665,307.422,731.625z M335.7,726.885
					c-0.517-0.979-0.159-2.196,0.818-2.713l0,0c0.957-0.518,2.172-0.16,2.69,0.816l0,0c0.517,0.979,0.159,2.173-0.818,2.691l0,0
					c-0.297,0.158-0.616,0.238-0.935,0.238l0,0C336.736,727.918,336.059,727.541,335.7,726.885z M310.091,724.41
					c-0.836-0.718-0.918-1.974-0.179-2.811l0,0c0.716-0.816,1.974-0.916,2.811-0.18l0,0c0.817,0.719,0.896,1.994,0.179,2.811l0,0
					c-0.399,0.439-0.958,0.679-1.495,0.679l0,0C310.928,724.909,310.469,724.75,310.091,724.41z M331.235,721.9L331.235,721.9
					c-0.914-0.619-1.136-1.852-0.518-2.772l0,0c0.619-0.894,1.854-1.134,2.772-0.515l0,0c0.896,0.617,1.135,1.854,0.518,2.77l0,0
					c-0.379,0.556-1.016,0.876-1.655,0.876l0,0C331.976,722.259,331.575,722.139,331.235,721.9z M315.79,719.268
					c-0.397-1.016,0.12-2.172,1.136-2.57l0,0c1.036-0.398,2.193,0.123,2.595,1.137l0,0c0.396,1.035-0.122,2.192-1.157,2.59l0,0
					c-0.241,0.08-0.479,0.123-0.721,0.123l0,0C316.848,720.547,316.09,720.067,315.79,719.268z M324.979,719.588h0.021
					c-1.098-0.14-1.895-1.115-1.773-2.213l0,0c0.141-1.094,1.116-1.871,2.21-1.754l0,0c1.099,0.121,1.875,1.117,1.757,2.213l0,0
					c-0.122,0.998-0.978,1.754-1.975,1.754l0,0C325.138,719.588,325.058,719.588,324.979,719.588z"/>
			</g>
			<g>
				<path fill="#32BCD0" d="M558.703,366.876c-0.179-1.074,0.539-2.109,1.615-2.311l0,0c1.095-0.18,2.134,0.54,2.312,1.614l0,0
					c0.198,1.098-0.54,2.133-1.616,2.313l0,0c-0.117,0.019-0.239,0.038-0.356,0.038l0,0
					C559.722,368.53,558.885,367.853,558.703,366.876z M551.628,366.876L551.628,366.876L551.628,366.876
					c-0.955-0.557-1.274-1.771-0.737-2.728l0,0c0.559-0.958,1.774-1.277,2.731-0.738l0,0c0.957,0.558,1.276,1.774,0.736,2.73l0,0
					c-0.376,0.639-1.057,0.996-1.734,0.996l0,0C552.286,367.136,551.946,367.058,551.628,366.876z M566.457,363.967
					c-0.856-0.717-0.958-1.972-0.259-2.81l0,0c0.716-0.857,1.971-0.958,2.811-0.262l0,0c0.856,0.721,0.956,1.975,0.258,2.811l0,0
					c-0.397,0.48-0.977,0.719-1.534,0.719l0,0C567.274,364.426,566.815,364.268,566.457,363.967z M545.47,359.603L545.47,359.603
					L545.47,359.603c-0.377-1.038,0.141-2.193,1.176-2.571l0,0c1.037-0.376,2.193,0.16,2.57,1.175l0,0
					c0.381,1.038-0.158,2.192-1.175,2.574l0,0c-0.239,0.078-0.479,0.115-0.696,0.115l0,0
					C546.526,360.896,545.771,360.399,545.47,359.603z M568.53,354.761c0-0.021,0-0.042,0-0.061l0,0c0-0.02,0-0.04,0-0.059l0,0
					c-0.02-1.099,0.855-1.995,1.973-2.015l0,0c1.097-0.018,1.993,0.878,2.013,1.975l0,0c0,0.04,0,0.059,0,0.099l0,0
					c0,0.019,0,0.039,0,0.061l0,0l0,0l0,0c0,1.095-0.896,1.991-1.992,1.991l0,0C569.427,356.752,568.53,355.856,568.53,354.761z
					 M546.626,352.608c-1.035-0.362-1.574-1.496-1.217-2.533l0,0c0.38-1.035,1.516-1.573,2.553-1.214l0,0
					c1.037,0.378,1.574,1.514,1.216,2.55l0,0c-0.3,0.816-1.057,1.316-1.874,1.316l0,0
					C547.063,352.728,546.847,352.687,546.626,352.608z M566.138,348.283L566.138,348.283c-0.718-0.84-0.639-2.093,0.199-2.811l0,0
					c0.836-0.718,2.113-0.617,2.811,0.22l0,0c0.718,0.817,0.638,2.093-0.199,2.81l0,0c-0.379,0.319-0.836,0.476-1.296,0.476l0,0
					C567.073,348.979,566.518,348.741,566.138,348.283z M550.791,345.451c-0.559-0.935-0.239-2.172,0.698-2.709l0,0c0,0,0,0,0-0.02
					l0,0c0.956-0.559,2.172-0.24,2.729,0.717l0,0c0.559,0.938,0.24,2.172-0.696,2.733l0,0c-0.319,0.178-0.678,0.276-1.018,0.276l0,0
					C551.829,346.447,551.171,346.09,550.791,345.451z M560.198,344.932c-1.074-0.178-1.812-1.213-1.634-2.29l0,0
					c0.18-1.096,1.215-1.833,2.292-1.654l0,0l0,0l0,0c1.097,0.178,1.813,1.215,1.634,2.291l0,0
					c-0.159,0.975-0.997,1.673-1.952,1.673l0,0C560.417,344.952,560.318,344.952,560.198,344.932z"/>
			</g>
			<g>
				<path fill="#32BCD0" d="M259.588,263.199c-0.141-1.097,0.638-2.093,1.731-2.212l0,0c1.078-0.14,2.075,0.638,2.213,1.732l0,0
					c0.142,1.099-0.635,2.095-1.733,2.213l0,0c-0.079,0.021-0.159,0.021-0.238,0.021l0,0
					C260.565,264.953,259.705,264.214,259.588,263.199z M253.29,263.917c-1.036-0.379-1.556-1.536-1.177-2.552l0,0
					c0.397-1.035,1.534-1.554,2.569-1.176l0,0c1.038,0.399,1.558,1.535,1.176,2.571l0,0c-0.317,0.797-1.075,1.296-1.873,1.296l0,0
					C253.749,264.055,253.508,264.015,253.29,263.917z M267.042,261.385c-0.619-0.914-0.4-2.154,0.499-2.77l0,0
					c0.915-0.638,2.152-0.4,2.768,0.498l0,0c0.639,0.898,0.42,2.153-0.499,2.77l0,0l0,0l0,0c-0.339,0.241-0.736,0.359-1.135,0.359
					l0,0C268.058,262.241,267.419,261.943,267.042,261.385z M246.213,259.073c-0.736-0.837-0.658-2.091,0.159-2.811l0,0
					c0.817-0.735,2.095-0.679,2.811,0.161l0,0c0.737,0.815,0.657,2.074-0.16,2.808l0,0c-0.377,0.339-0.855,0.498-1.315,0.498l0,0
					C247.149,259.729,246.614,259.511,246.213,259.073z M272.8,256.303c-0.975-0.519-1.336-1.715-0.837-2.69l0,0
					c0.519-0.976,1.716-1.357,2.69-0.839l0,0c0.978,0.497,1.358,1.717,0.838,2.691l0,0c-0.357,0.681-1.037,1.058-1.754,1.058l0,0
					C273.419,256.523,273.099,256.461,272.8,256.303z M242.207,251.479c-0.279-1.056,0.379-2.151,1.455-2.41l0,0
					c1.055-0.26,2.134,0.378,2.413,1.456l0,0c0.258,1.074-0.399,2.153-1.455,2.41l0,0c-0.159,0.041-0.318,0.062-0.479,0.062l0,0
					C243.244,252.996,242.427,252.396,242.207,251.479z M273.558,247.135c0-0.02,0-0.041,0-0.06l0,0c0-0.019,0-0.039,0-0.039l0,0
					c0-1.099,0.875-2.013,1.974-2.013l0,0c1.097,0,1.993,0.876,2.013,1.973l0,0c0,0.02,0,0.06,0,0.079l0,0c0,0.02,0,0.04,0,0.06l0,0
					c0,1.095-0.896,1.992-1.992,1.992l0,0C274.454,249.127,273.558,248.23,273.558,247.135z M243.644,245.321
					c-1.078-0.258-1.736-1.335-1.476-2.412l0,0l0,0l0,0c0.259-1.076,1.336-1.734,2.412-1.475l0,0
					c1.056,0.261,1.733,1.336,1.452,2.411l0,0c-0.218,0.917-1.034,1.537-1.932,1.537l0,0
					C243.94,245.382,243.802,245.362,243.644,245.321z M271.924,240.559c-0.518-0.957-0.16-2.171,0.817-2.691l0,0
					c0.977-0.518,2.172-0.159,2.69,0.817l0,0c0.517,0.977,0.159,2.172-0.818,2.691l0,0c-0.298,0.16-0.617,0.238-0.935,0.238l0,0
					C272.96,241.614,272.282,241.236,271.924,240.559z M246.313,238.106c-0.837-0.715-0.919-1.973-0.179-2.811l0,0l0,0l0,0
					c0.717-0.817,1.974-0.895,2.812-0.178l0,0c0.815,0.737,0.894,1.993,0.178,2.81l0,0c-0.398,0.46-0.957,0.677-1.494,0.677l0,0
					C247.149,238.604,246.691,238.445,246.313,238.106z M267.457,235.595c-0.914-0.619-1.153-1.852-0.516-2.772l0,0
					c0.618-0.895,1.853-1.135,2.771-0.516l0,0l0,0l0,0c0.896,0.618,1.135,1.852,0.518,2.771l0,0
					c-0.379,0.557-1.016,0.876-1.653,0.876l0,0C268.198,235.954,267.797,235.833,267.457,235.595z M252.013,232.963
					c-0.397-1.015,0.12-2.171,1.137-2.571l0,0c1.036-0.398,2.191,0.119,2.592,1.138l0,0c0.396,1.038-0.12,2.193-1.156,2.59l0,0
					c-0.241,0.08-0.479,0.12-0.72,0.12l0,0C253.069,234.24,252.312,233.762,252.013,232.963z M261.201,233.263
					c-1.076-0.121-1.874-1.098-1.734-2.19l0,0c0.121-1.097,1.099-1.876,2.192-1.756l0,0c1.097,0.12,1.873,1.117,1.754,2.213l0,0
					c-0.119,1.017-0.977,1.753-1.973,1.753l0,0C261.36,233.283,261.281,233.283,261.201,233.263z"/>
			</g>
			<g>
				<path fill="#32BCD0" d="M590.454,400.6c-3.298,0-5.979-2.684-5.979-5.979c0-3.296,2.682-5.979,5.979-5.979
					s5.979,2.683,5.979,5.979C596.433,397.917,593.752,400.6,590.454,400.6z M590.454,392.627c-1.101,0-1.994,0.896-1.994,1.994
					c0,1.098,0.894,1.991,1.994,1.991c1.1,0,1.994-0.894,1.994-1.991C592.448,393.523,591.554,392.627,590.454,392.627z"/>
			</g>
			<g>
				<path fill="#32BCD0" d="M403.106,719.488c-5.494,0-9.965-4.471-9.965-9.965s4.471-9.967,9.965-9.967s9.966,4.473,9.966,9.967
					S408.601,719.488,403.106,719.488z M403.106,703.544c-3.297,0-5.979,2.684-5.979,5.979c0,3.297,2.682,5.98,5.979,5.98
					c3.298,0,5.979-2.684,5.979-5.98C409.086,706.228,406.404,703.544,403.106,703.544z"/>
			</g>
			<g>
				<path fill="#32BCD0" d="M140.023,568.018c-5.493,0-9.966-4.471-9.966-9.967c0-5.493,4.473-9.965,9.966-9.965
					c5.494,0,9.966,4.472,9.966,9.965C149.989,563.547,145.518,568.018,140.023,568.018z M140.023,552.072
					c-3.296,0-5.979,2.682-5.979,5.979s2.683,5.979,5.979,5.979c3.298,0,5.979-2.682,5.979-5.979S143.321,552.072,140.023,552.072z"
					/>
			</g>
			<g>
				<path fill="#32BCD0" d="M179.885,376.684c-5.494,0-9.965-4.471-9.965-9.965c0-5.496,4.471-9.967,9.965-9.967
					c5.495,0,9.966,4.471,9.966,9.967C189.851,372.212,185.38,376.684,179.885,376.684z M179.885,360.739
					c-3.297,0-5.979,2.681-5.979,5.979c0,3.297,2.683,5.979,5.979,5.979c3.298,0,5.979-2.682,5.979-5.979
					C185.863,363.42,183.183,360.739,179.885,360.739z"/>
			</g>
			<g>
				<path fill="#32BCD0" d="M147.996,406.58c-3.297,0-5.979-2.682-5.979-5.98c0-3.297,2.683-5.979,5.979-5.979
					c3.298,0,5.979,2.682,5.979,5.979C153.976,403.898,151.294,406.58,147.996,406.58z M147.996,398.607
					c-1.098,0-1.993,0.896-1.993,1.993c0,1.097,0.896,1.994,1.993,1.994s1.993-0.896,1.993-1.994
					C149.989,399.502,149.094,398.607,147.996,398.607z"/>
			</g>
			<g>
				<path fill="#32BCD0" d="M606.536,645.904c-0.179-1.074,0.539-2.113,1.615-2.312l0,0c1.096-0.199,2.111,0.538,2.312,1.612l0,0
					c0.197,1.098-0.518,2.115-1.615,2.313l0,0c-0.118,0.019-0.239,0.042-0.338,0.042l0,0
					C607.554,647.561,606.718,646.861,606.536,645.904z M599.462,645.904c-0.955-0.557-1.275-1.773-0.738-2.73l0,0
					c0.56-0.955,1.775-1.275,2.73-0.737l0,0c0.958,0.56,1.277,1.773,0.737,2.729l0,0c-0.377,0.641-1.056,0.998-1.733,0.998l0,0
					C600.118,646.164,599.78,646.064,599.462,645.904z M614.29,642.996c-0.855-0.719-0.957-1.975-0.258-2.811l0,0
					c0.716-0.836,1.972-0.958,2.811-0.259l0,0c0.837,0.716,0.954,1.972,0.259,2.81l0,0c-0.399,0.479-0.978,0.717-1.536,0.717l0,0
					C615.108,643.453,614.649,643.294,614.29,642.996z M593.303,638.631c-0.377-1.036,0.161-2.193,1.177-2.572l0,0
					c1.037-0.377,2.193,0.159,2.57,1.177l0,0c0.381,1.036-0.16,2.192-1.176,2.571l0,0c-0.238,0.08-0.479,0.12-0.696,0.12l0,0
					C594.36,639.927,593.603,639.428,593.303,638.631z M616.363,633.788c0-0.021,0-0.042,0-0.061l0,0c0-0.021,0-0.039,0-0.062l0,0
					c-0.019-1.096,0.876-1.992,1.973-2.012l0,0c1.098-0.02,1.994,0.879,2.014,1.973l0,0c0,0.02,0,0.062,0,0.101l0,0
					c0,0.019,0,0.04,0,0.061l0,0l0,0l0,0c0,1.095-0.897,1.993-1.992,1.993l0,0C617.261,635.781,616.363,634.883,616.363,633.788z
					 M594.46,631.635c-1.037-0.357-1.575-1.494-1.217-2.532l0,0c0.38-1.035,1.516-1.594,2.551-1.214l0,0
					c1.038,0.357,1.575,1.514,1.217,2.548l0,0c-0.301,0.817-1.057,1.316-1.875,1.316l0,0
					C594.918,631.753,594.679,631.715,594.46,631.635z M613.972,627.31c-0.719-0.836-0.617-2.112,0.198-2.81l0,0
					c0.837-0.719,2.114-0.639,2.812,0.219l0,0c0,0,0,0,0-0.021l0,0c0.717,0.839,0.638,2.095-0.2,2.812l0,0
					c-0.379,0.339-0.837,0.497-1.295,0.497l0,0C614.907,628.006,614.352,627.768,613.972,627.31z M598.624,624.48
					c-0.559-0.938-0.239-2.174,0.699-2.73l0,0l0,0l0,0c0.955-0.559,2.172-0.239,2.729,0.716l0,0
					c0.559,0.938,0.238,2.173-0.698,2.731l0,0c-0.318,0.179-0.676,0.258-1.016,0.258l0,0
					C599.661,625.455,598.985,625.117,598.624,624.48z M608.053,623.959h-0.022c-1.074-0.178-1.811-1.213-1.631-2.29l0,0
					c0.178-1.095,1.213-1.833,2.289-1.654l0,0l0,0l0,0c1.076,0.181,1.814,1.216,1.635,2.292l0,0
					c-0.159,0.978-0.996,1.674-1.951,1.674l0,0C608.271,623.98,608.151,623.98,608.053,623.959z"/>
			</g>
			<g>
				<path fill="#32BCD0" d="M650.245,400.6c-5.493,0-9.965-4.47-9.965-9.965c0-5.495,4.472-9.966,9.965-9.966
					c5.494,0,9.967,4.471,9.967,9.966C660.212,396.13,655.739,400.6,650.245,400.6z M650.245,384.656
					c-3.298,0-5.979,2.681-5.979,5.979c0,3.297,2.681,5.978,5.979,5.978c3.297,0,5.979-2.681,5.979-5.978
					C656.225,387.337,653.542,384.656,650.245,384.656z"/>
			</g>
			<g>
				<g>
					<g>
						<path fill="#32BCD0" d="M581.647,297.795c-1.6,0-3.102-0.621-4.23-1.751c-2.329-2.33-2.329-6.122-0.002-8.454
							c2.264-2.261,6.204-2.259,8.459,0c2.331,2.332,2.331,6.124,0,8.454C584.745,297.175,583.242,297.795,581.647,297.795z
							 M581.645,289.824c-0.531,0-1.032,0.206-1.408,0.584c-0.778,0.778-0.778,2.042,0,2.818c0.754,0.752,2.067,0.755,2.819,0
							c0.776-0.777,0.776-2.04,0-2.818C582.678,290.03,582.179,289.824,581.645,289.824z"/>
					</g>
					<g>
						<path fill="#32BCD0" d="M192.68,686.766c-1.598,0-3.098-0.625-4.229-1.752c-2.33-2.332-2.33-6.125-0.003-8.457
							c2.262-2.258,6.202-2.258,8.459,0c2.331,2.332,2.331,6.125,0,8.457C195.778,686.141,194.275,686.766,192.68,686.766z
							 M192.68,678.792c-0.532,0-1.034,0.206-1.412,0.584c-0.774,0.776-0.774,2.042,0.004,2.821c0.752,0.748,2.064,0.754,2.815,0
							c0.776-0.779,0.776-2.045,0-2.822C193.712,678.998,193.211,678.792,192.68,678.792z"/>
					</g>
				</g>
				<g>
					<g>
						<path fill="#32BCD0" d="M662.204,492.281c-3.297,0-5.979-2.682-5.979-5.979s2.683-5.979,5.979-5.979s5.979,2.681,5.979,5.979
							S665.501,492.281,662.204,492.281z M662.204,484.309c-1.099,0-1.992,0.893-1.992,1.993c0,1.097,0.891,1.993,1.992,1.993
							c1.1,0,1.993-0.896,1.993-1.993C664.197,485.201,663.304,484.309,662.204,484.309z"/>
					</g>
					<g>
						<path fill="#32BCD0" d="M112.121,492.281c-3.297,0-5.979-2.682-5.979-5.979s2.682-5.979,5.979-5.979s5.979,2.681,5.979,5.979
							S115.418,492.281,112.121,492.281z M112.121,484.309c-1.098,0-1.992,0.896-1.992,1.993c0,1.097,0.895,1.993,1.992,1.993
							s1.993-0.896,1.993-1.993C114.114,485.204,113.219,484.309,112.121,484.309z"/>
					</g>
				</g>
				<g>
					<g>
						<path fill="#32BCD0" d="M581.647,686.766c-1.6,0-3.102-0.625-4.23-1.752c-2.329-2.332-2.329-6.125,0.002-8.457
							c2.256-2.256,6.191-2.258,8.455-0.002c2.331,2.334,2.331,6.127,0,8.459C584.745,686.141,583.242,686.766,581.647,686.766z
							 M581.647,678.792c-0.534,0-1.035,0.206-1.41,0.583c-0.776,0.777-0.776,2.041,0,2.822c0.754,0.754,2.063,0.752,2.818,0
							c0.776-0.781,0.776-2.045,0-2.822C582.681,678.998,582.179,678.792,581.647,678.792z"/>
					</g>
					<g>
						<path fill="#32BCD0" d="M192.68,297.795c-1.598,0-3.098-0.621-4.229-1.749c-2.33-2.332-2.33-6.124-0.003-8.456
							c2.262-2.259,6.202-2.259,8.459,0c2.331,2.332,2.331,6.124,0,8.454C195.778,297.175,194.275,297.795,192.68,297.795z
							 M192.68,289.824c-0.532,0-1.034,0.208-1.41,0.584c-0.776,0.778-0.776,2.042,0,2.818c0.754,0.751,2.065,0.752,2.819,0
							c0.774-0.777,0.774-2.04-0.002-2.818C193.712,290.032,193.211,289.824,192.68,289.824z"/>
					</g>
				</g>
			</g>
			<g>
				<path fill="#32BCD0" d="M181.878,631.793c-3.297,0-5.979-2.68-5.979-5.978s2.682-5.979,5.979-5.979s5.979,2.682,5.979,5.979
					S185.175,631.793,181.878,631.793z M181.878,623.822c-1.098,0-1.993,0.893-1.993,1.993c0,1.099,0.896,1.993,1.993,1.993
					s1.992-0.895,1.992-1.993C183.87,624.715,182.976,623.822,181.878,623.822z"/>
			</g>
			<g>
				<path fill="#32BCD0" d="M179.885,432.488h-7.973c-1.101,0-1.992-0.891-1.992-1.992s0.892-1.992,1.992-1.992h7.973
					c1.102,0,1.993,0.891,1.993,1.992S180.986,432.488,179.885,432.488z"/>
			</g>
			<g>
				<path fill="#32BCD0" d="M530.662,695.572h-15.944c-1.101,0-1.992-0.893-1.992-1.994s0.892-1.992,1.992-1.992h15.944
					c1.101,0,1.993,0.891,1.993,1.992S531.763,695.572,530.662,695.572z"/>
			</g>
			<g>
				<path fill="#32BCD0" d="M283.524,695.572h-23.918c-1.101,0-1.992-0.893-1.992-1.994s0.892-1.992,1.992-1.992h23.918
					c1.101,0,1.991,0.891,1.991,1.992S284.625,695.572,283.524,695.572z"/>
			</g>
			<g>
				<path fill="#32BCD0" d="M355.274,703.544h-7.973c-1.103,0-1.994-0.892-1.994-1.993s0.892-1.994,1.994-1.994h7.973
					c1.101,0,1.993,0.893,1.993,1.994S356.375,703.544,355.274,703.544z"/>
			</g>
			<g>
				<path fill="#32BCD0" d="M554.579,312.906h-7.973c-1.102,0-1.992-0.893-1.992-1.992c0-1.102,0.891-1.994,1.992-1.994h7.973
					c1.102,0,1.993,0.892,1.993,1.994C556.572,312.013,555.681,312.906,554.579,312.906z"/>
			</g>
			<g>
				<path fill="#32BCD0" d="M618.357,360.739h-11.958c-1.103,0-1.994-0.892-1.994-1.994c0-1.1,0.892-1.994,1.994-1.994h11.958
					c1.101,0,1.992,0.894,1.992,1.994C620.35,359.847,619.458,360.739,618.357,360.739z"/>
			</g>
			<g>
				<path fill="#32BCD0" d="M642.272,440.461h-7.972c-1.102,0-1.992-0.891-1.992-1.992c0-1.104,0.891-1.993,1.992-1.993h7.972
					c1.102,0,1.994,0.89,1.994,1.993C644.267,439.57,643.374,440.461,642.272,440.461z"/>
			</g>
			<g>
				<path fill="#32BCD0" d="M235.69,360.739h-7.973c-1.102,0-1.993-0.892-1.993-1.994c0-1.1,0.892-1.994,1.993-1.994h7.973
					c1.101,0,1.992,0.894,1.992,1.994C237.683,359.847,236.791,360.739,235.69,360.739z"/>
			</g>
			<g>
				<g>
					<path fill="#32BCD0" d="M243.662,336.822c-0.517,0-1.035-0.219-1.415-0.576c-0.359-0.378-0.578-0.898-0.578-1.416
						c0-0.519,0.219-1.038,0.578-1.415c0.758-0.738,2.073-0.738,2.831,0c0.357,0.377,0.577,0.896,0.577,1.415
						c0,0.518-0.22,1.038-0.577,1.416C244.698,336.603,244.18,336.822,243.662,336.822z"/>
				</g>
				<g>
					<path fill="#32BCD0" d="M265.586,334.83c0-1.095,0.896-1.994,1.993-1.994l0,0c1.096,0,1.994,0.898,1.994,1.994l0,0
						c0,1.096-0.898,1.992-1.994,1.992l0,0C266.481,336.822,265.586,335.926,265.586,334.83z M257.614,334.83
						c0-1.095,0.895-1.994,1.992-1.994l0,0c1.098,0,1.994,0.898,1.994,1.994l0,0c0,1.096-0.896,1.992-1.994,1.992l0,0
						C258.509,336.822,257.614,335.926,257.614,334.83z M249.642,334.83c0-1.095,0.895-1.994,1.993-1.994l0,0
						c1.095,0,1.993,0.898,1.993,1.994l0,0c0,1.096-0.898,1.992-1.993,1.992l0,0C250.536,336.822,249.642,335.926,249.642,334.83z"
						/>
				</g>
				<g>
					<path fill="#32BCD0" d="M275.552,336.822c-0.518,0-1.035-0.219-1.416-0.576c-0.359-0.378-0.578-0.898-0.578-1.416
						c0-0.519,0.219-1.038,0.578-1.415c0.758-0.738,2.094-0.738,2.83,0c0.359,0.377,0.578,0.896,0.578,1.415
						c0,0.518-0.219,1.038-0.578,1.416C276.587,336.603,276.069,336.822,275.552,336.822z"/>
				</g>
			</g>
			<g>
				<path fill="#32BCD0" d="M417.059,741.414c0-1.098,0.896-1.996,1.993-1.996l0,0c1.096,0,1.992,0.898,1.992,1.996l0,0
					c0,1.095-0.896,1.992-1.992,1.992l0,0C417.955,743.406,417.059,742.509,417.059,741.414z M409.086,741.414
					c0-1.098,0.897-1.996,1.992-1.996l0,0c1.097,0,1.994,0.898,1.994,1.996l0,0c0,1.095-0.897,1.992-1.994,1.992l0,0
					C409.983,743.406,409.086,742.509,409.086,741.414z"/>
			</g>
			<g>
				<path fill="#32BCD0" d="M608.392,414.551c0-1.096,0.896-1.992,1.993-1.992l0,0c1.096,0,1.992,0.896,1.992,1.992l0,0
					c0,1.098-0.896,1.993-1.992,1.993l0,0C609.288,416.544,608.392,415.648,608.392,414.551z M600.419,414.551
					c0-1.096,0.896-1.992,1.993-1.992l0,0c1.096,0,1.993,0.896,1.993,1.992l0,0c0,1.098-0.897,1.993-1.993,1.993l0,0
					C601.315,416.544,600.419,415.648,600.419,414.551z M592.448,414.551c0-1.096,0.896-1.992,1.99-1.992l0,0
					c1.097,0,1.994,0.896,1.994,1.992l0,0c0,1.098-0.897,1.993-1.994,1.993l0,0C593.345,416.544,592.448,415.648,592.448,414.551z"
					/>
			</g>
			<g>
				<path fill="#32BCD0" d="M618.357,552.072c-5.495,0-9.966-4.471-9.966-9.965s4.471-9.966,9.966-9.966
					c5.494,0,9.964,4.472,9.964,9.966S623.852,552.072,618.357,552.072z M618.357,536.128c-3.298,0-5.98,2.683-5.98,5.979
					s2.683,5.979,5.98,5.979c3.296,0,5.979-2.682,5.979-5.979S621.653,536.128,618.357,536.128z"/>
			</g>
			<g>
				<path fill="#32BCD0" d="M207.788,512.211c-1.099,0-1.993,0.893-1.993,1.994c0,1.1,0.895,1.992,1.993,1.992
					c1.098,0,1.993-0.893,1.993-1.992C209.781,513.104,208.886,512.211,207.788,512.211z"/>
			</g>
			<g>
				<path fill="#32BCD0" d="M566.536,607.877c-3.296,0-5.979-2.682-5.979-5.979s2.683-5.979,5.979-5.979
					c3.299,0,5.979,2.682,5.979,5.979S569.835,607.877,566.536,607.877z M566.536,599.904c-1.098,0-1.992,0.895-1.992,1.994
					s0.895,1.993,1.992,1.993c1.101,0,1.994-0.894,1.994-1.993S567.637,599.904,566.536,599.904z"/>
			</g>
		</g>
		<g opacity="0.3">
			<path fill="#32BCD0" d="M528.79,445.197v-4.024c-2.312-0.04-4.701-0.757-6.096-1.753l0.956-2.669
				c1.435,0.956,3.506,1.713,5.737,1.713c2.828,0,4.741-1.634,4.741-3.904c0-2.191-1.555-3.546-4.503-4.741
				c-4.063-1.594-6.573-3.427-6.573-6.893c0-3.307,2.351-5.816,6.016-6.414v-4.024h2.471v3.865c2.391,0.079,4.023,0.717,5.179,1.394
				l-0.996,2.63c-0.836-0.478-2.47-1.354-5.02-1.354c-3.067,0-4.224,1.833-4.224,3.427c0,2.071,1.475,3.107,4.94,4.541
				c4.104,1.674,6.176,3.745,6.176,7.291c0,3.147-2.191,6.096-6.295,6.773v4.144H528.79z"/>
		</g>
		<g opacity="0.3">
			<path fill="#32BCD0" d="M232.79,437.197v-4.024c-2.312-0.04-4.701-0.757-6.096-1.753l0.956-2.669
				c1.435,0.956,3.506,1.713,5.737,1.713c2.828,0,4.741-1.634,4.741-3.904c0-2.191-1.555-3.546-4.503-4.741
				c-4.063-1.594-6.573-3.427-6.573-6.893c0-3.307,2.351-5.816,6.016-6.414v-4.024h2.471v3.865c2.391,0.079,4.023,0.717,5.179,1.394
				l-0.996,2.63c-0.836-0.478-2.47-1.354-5.02-1.354c-3.067,0-4.224,1.833-4.224,3.427c0,2.071,1.475,3.107,4.94,4.541
				c4.104,1.674,6.176,3.745,6.176,7.291c0,3.147-2.191,6.096-6.295,6.773v4.144H232.79z"/>
		</g>
		<g opacity="0.3">
			<path fill="#32BCD0" d="M139.001,341.372v-2.269c-1.303-0.022-2.65-0.427-3.437-0.988l0.539-1.505
				c0.809,0.539,1.977,0.966,3.234,0.966c1.595,0,2.673-0.921,2.673-2.201c0-1.235-0.876-1.999-2.538-2.673
				c-2.291-0.898-3.706-1.932-3.706-3.886c0-1.864,1.325-3.279,3.392-3.616v-2.269h1.393v2.179c1.348,0.045,2.269,0.404,2.92,0.786
				l-0.562,1.482c-0.472-0.27-1.393-0.764-2.83-0.764c-1.729,0-2.381,1.033-2.381,1.932c0,1.168,0.831,1.752,2.785,2.561
				c2.313,0.943,3.481,2.111,3.481,4.11c0,1.774-1.235,3.437-3.549,3.818v2.336H139.001z"/>
		</g>
		<g opacity="0.3">
			<path fill="#32BCD0" d="M223.668,292.704v-2.269c-1.303-0.022-2.65-0.427-3.437-0.988l0.539-1.505
				c0.809,0.539,1.977,0.966,3.234,0.966c1.595,0,2.673-0.921,2.673-2.201c0-1.235-0.876-1.999-2.538-2.673
				c-2.291-0.898-3.706-1.932-3.706-3.886c0-1.864,1.325-3.279,3.392-3.616v-2.269h1.393v2.179c1.348,0.045,2.269,0.404,2.92,0.786
				l-0.562,1.482c-0.472-0.27-1.393-0.764-2.83-0.764c-1.729,0-2.381,1.033-2.381,1.932c0,1.168,0.831,1.752,2.785,2.561
				c2.313,0.943,3.481,2.111,3.481,4.11c0,1.774-1.235,3.437-3.549,3.818v2.336H223.668z"/>
		</g>
		<g opacity="0.3">
			<path fill="#32BCD0" d="M229.668,589.372v-2.269c-1.303-0.022-2.65-0.427-3.437-0.988l0.539-1.505
				c0.809,0.539,1.977,0.966,3.234,0.966c1.595,0,2.673-0.921,2.673-2.201c0-1.235-0.876-1.999-2.538-2.673
				c-2.291-0.898-3.706-1.932-3.706-3.886c0-1.864,1.325-3.279,3.392-3.616v-2.269h1.393v2.179c1.348,0.045,2.269,0.404,2.92,0.786
				l-0.562,1.482c-0.472-0.27-1.393-0.764-2.83-0.764c-1.729,0-2.381,1.033-2.381,1.932c0,1.168,0.831,1.752,2.785,2.561
				c2.313,0.943,3.481,2.111,3.481,4.11c0,1.774-1.235,3.437-3.549,3.818v2.336H229.668z"/>
		</g>
		<g opacity="0.3">
			<path fill="#32BCD0" d="M134.82,672.116v-3.229c-1.854-0.032-3.772-0.607-4.891-1.406l0.767-2.143
				c1.151,0.768,2.813,1.375,4.604,1.375c2.27,0,3.805-1.311,3.805-3.133c0-1.758-1.247-2.845-3.612-3.804
				c-3.261-1.279-5.275-2.749-5.275-5.53c0-2.653,1.887-4.668,4.827-5.147v-3.229h1.982v3.101c1.918,0.064,3.229,0.576,4.155,1.119
				l-0.799,2.11c-0.672-0.384-1.982-1.087-4.028-1.087c-2.461,0-3.389,1.47-3.389,2.749c0,1.662,1.184,2.493,3.965,3.645
				c3.292,1.342,4.954,3.005,4.954,5.85c0,2.525-1.758,4.891-5.051,5.435v3.324H134.82z"/>
		</g>
		<g opacity="0.3">
			<path fill="#32BCD0" d="M672.82,573.448v-3.229c-1.854-0.032-3.772-0.607-4.891-1.406l0.767-2.143
				c1.151,0.768,2.813,1.375,4.604,1.375c2.27,0,3.805-1.311,3.805-3.133c0-1.758-1.247-2.845-3.612-3.804
				c-3.261-1.279-5.275-2.749-5.275-5.53c0-2.653,1.887-4.668,4.827-5.147v-3.229h1.982v3.101c1.918,0.064,3.229,0.576,4.155,1.119
				l-0.799,2.11c-0.672-0.384-1.982-1.087-4.028-1.087c-2.461,0-3.389,1.47-3.389,2.749c0,1.662,1.184,2.493,3.965,3.645
				c3.292,1.342,4.954,3.005,4.954,5.85c0,2.525-1.758,4.891-5.051,5.435v3.324H672.82z"/>
		</g>
		<g opacity="0.3">
			<path fill="#32BCD0" d="M695.487,438.782v-3.229c-1.854-0.032-3.772-0.607-4.891-1.406l0.767-2.143
				c1.151,0.768,2.813,1.375,4.604,1.375c2.27,0,3.805-1.311,3.805-3.133c0-1.758-1.247-2.845-3.612-3.804
				c-3.261-1.279-5.275-2.749-5.275-5.53c0-2.653,1.887-4.668,4.827-5.147v-3.229h1.982v3.101c1.918,0.064,3.229,0.576,4.155,1.119
				l-0.799,2.11c-0.672-0.384-1.982-1.087-4.028-1.087c-2.461,0-3.389,1.47-3.389,2.749c0,1.662,1.184,2.493,3.965,3.645
				c3.292,1.342,4.954,3.005,4.954,5.85c0,2.525-1.758,4.891-5.051,5.435v3.324H695.487z"/>
		</g>
		<g opacity="0.3">
			<path fill="#32BCD0" d="M454.137,333.516v-3.529c-2.026-0.035-4.123-0.664-5.346-1.537l0.839-2.341
				c1.258,0.838,3.074,1.502,5.031,1.502c2.48,0,4.158-1.433,4.158-3.424c0-1.922-1.362-3.11-3.948-4.158
				c-3.564-1.398-5.766-3.006-5.766-6.046c0-2.899,2.062-5.102,5.276-5.625v-3.529h2.166v3.39c2.097,0.069,3.529,0.629,4.543,1.223
				l-0.874,2.306c-0.733-0.419-2.166-1.188-4.402-1.188c-2.69,0-3.704,1.607-3.704,3.005c0,1.817,1.293,2.726,4.333,3.983
				c3.599,1.468,5.416,3.285,5.416,6.395c0,2.761-1.922,5.347-5.521,5.94v3.634H454.137z"/>
		</g>
		<g opacity="0.3">
			<path fill="#32BCD0" d="M638.23,324.196v-4.19c-2.407-0.042-4.896-0.788-6.349-1.826l0.996-2.779
				c1.494,0.996,3.651,1.784,5.975,1.784c2.945,0,4.938-1.701,4.938-4.066c0-2.281-1.618-3.692-4.688-4.937
				c-4.232-1.66-6.846-3.568-6.846-7.178c0-3.443,2.447-6.058,6.265-6.68v-4.19h2.572v4.024c2.489,0.083,4.19,0.747,5.394,1.452
				l-1.037,2.738c-0.871-0.498-2.572-1.411-5.228-1.411c-3.194,0-4.398,1.909-4.398,3.568c0,2.157,1.535,3.236,5.146,4.729
				c4.272,1.743,6.431,3.9,6.431,7.593c0,3.277-2.282,6.348-6.556,7.053v4.315H638.23z"/>
		</g>
		<g opacity="0.3">
			<path fill="#32BCD0" d="M525.453,254.573v-1.668c-0.958-0.017-1.948-0.313-2.526-0.726l0.396-1.106
				c0.594,0.396,1.452,0.71,2.377,0.71c1.172,0,1.965-0.677,1.965-1.618c0-0.908-0.644-1.47-1.865-1.965
				c-1.685-0.66-2.725-1.42-2.725-2.856c0-1.37,0.975-2.41,2.493-2.658v-1.667h1.023v1.602c0.99,0.033,1.668,0.297,2.146,0.578
				l-0.413,1.089c-0.347-0.198-1.023-0.561-2.08-0.561c-1.271,0-1.75,0.759-1.75,1.419c0,0.859,0.611,1.288,2.047,1.883
				c1.701,0.693,2.56,1.552,2.56,3.021c0,1.304-0.908,2.525-2.608,2.807v1.717H525.453z"/>
		</g>
		<g opacity="0.3">
			<path fill="#32BCD0" d="M259.859,252.164v-2.118c-1.342-0.168-2.285-0.649-3.04-1.468c-0.713-0.796-1.175-2.013-1.175-3.543
				c0-2.704,1.656-4.759,4.215-5.179v-2.096h1.3v2.054c0.943,0,1.803,0.273,2.285,0.524l-0.42,1.405
				c-0.419-0.252-1.132-0.524-2.18-0.524c-2.076,0-3.354,1.677-3.354,3.731c0,2.327,1.426,3.69,3.271,3.69
				c1.153,0,1.887-0.294,2.39-0.524l0.336,1.321c-0.42,0.23-1.3,0.565-2.327,0.607v2.118H259.859z"/>
		</g>
		<g opacity="0.3">
			<path fill="#32BCD0" d="M650.213,394.365v-1.309c-0.829-0.104-1.412-0.401-1.878-0.907c-0.44-0.492-0.726-1.243-0.726-2.189
				c0-1.671,1.023-2.94,2.604-3.199v-1.296h0.804v1.27c0.583,0,1.113,0.169,1.412,0.324l-0.26,0.868
				c-0.259-0.155-0.699-0.324-1.347-0.324c-1.283,0-2.073,1.036-2.073,2.306c0,1.438,0.881,2.28,2.021,2.28
				c0.712,0,1.166-0.182,1.477-0.324l0.207,0.816c-0.259,0.143-0.803,0.35-1.438,0.376v1.309H650.213z"/>
		</g>
		<g opacity="0.3">
			<path fill="#32BCD0" d="M606.713,635.865v-1.309c-0.829-0.104-1.412-0.401-1.878-0.907c-0.44-0.492-0.726-1.243-0.726-2.189
				c0-1.671,1.023-2.94,2.604-3.199v-1.296h0.804v1.27c0.583,0,1.113,0.169,1.412,0.324l-0.26,0.868
				c-0.259-0.155-0.699-0.324-1.347-0.324c-1.283,0-2.073,1.036-2.073,2.306c0,1.438,0.881,2.28,2.021,2.28
				c0.712,0,1.166-0.182,1.477-0.324l0.207,0.816c-0.259,0.143-0.803,0.35-1.438,0.376v1.309H606.713z"/>
		</g>
		<g opacity="0.3">
			<path fill="#32BCD0" d="M626.411,483.433v-2.389c-1.514-0.189-2.578-0.733-3.43-1.655c-0.805-0.899-1.324-2.271-1.324-3.997
				c0-3.052,1.868-5.369,4.754-5.842v-2.365h1.466v2.317c1.064,0,2.034,0.308,2.578,0.592l-0.473,1.584
				c-0.474-0.283-1.277-0.591-2.46-0.591c-2.342,0-3.784,1.892-3.784,4.21c0,2.625,1.608,4.162,3.689,4.162
				c1.301,0,2.129-0.331,2.696-0.591l0.378,1.49c-0.473,0.26-1.466,0.639-2.625,0.686v2.389H626.411z"/>
		</g>
		<g opacity="0.3">
			<path fill="#32BCD0" d="M229.411,723.433v-2.389c-1.514-0.189-2.578-0.733-3.43-1.655c-0.805-0.899-1.324-2.271-1.324-3.997
				c0-3.052,1.868-5.369,4.754-5.842v-2.365h1.466v2.317c1.064,0,2.034,0.308,2.578,0.592l-0.473,1.584
				c-0.474-0.283-1.277-0.591-2.46-0.591c-2.342,0-3.784,1.892-3.784,4.21c0,2.625,1.608,4.162,3.689,4.162
				c1.301,0,2.129-0.331,2.696-0.591l0.378,1.49c-0.473,0.26-1.466,0.639-2.625,0.686v2.389H229.411z"/>
		</g>
		<g opacity="0.3">
			<path fill="#32BCD0" d="M323.911,738.933v-2.389c-1.514-0.189-2.578-0.733-3.43-1.655c-0.805-0.899-1.324-2.271-1.324-3.997
				c0-3.052,1.868-5.369,4.754-5.842v-2.365h1.466v2.317c1.064,0,2.034,0.308,2.578,0.592l-0.473,1.584
				c-0.474-0.283-1.277-0.591-2.46-0.591c-2.342,0-3.784,1.892-3.784,4.21c0,2.625,1.608,4.162,3.689,4.162
				c1.301,0,2.129-0.331,2.696-0.591l0.378,1.49c-0.473,0.26-1.466,0.639-2.625,0.686v2.389H323.911z"/>
		</g>
		<g opacity="0.3">
			<path fill="#32BCD0" d="M227.911,480.433v-2.389c-1.514-0.189-2.578-0.733-3.43-1.655c-0.805-0.899-1.324-2.271-1.324-3.997
				c0-3.052,1.868-5.369,4.754-5.842v-2.365h1.466v2.317c1.064,0,2.034,0.308,2.578,0.592l-0.473,1.584
				c-0.474-0.283-1.277-0.591-2.46-0.591c-2.342,0-3.784,1.892-3.784,4.21c0,2.625,1.608,4.162,3.689,4.162
				c1.301,0,2.129-0.331,2.696-0.591l0.378,1.49c-0.473,0.26-1.466,0.639-2.625,0.686v2.389H227.911z"/>
		</g>
		<g opacity="0.3">
			<path fill="#32BCD0" d="M122.612,452.502v-3.471c-2.199-0.275-3.745-1.065-4.982-2.405c-1.168-1.307-1.924-3.299-1.924-5.808
				c0-4.433,2.714-7.801,6.906-8.487v-3.437h2.131v3.367c1.546,0,2.955,0.447,3.745,0.859l-0.687,2.302
				c-0.688-0.412-1.856-0.858-3.574-0.858c-3.401,0-5.498,2.749-5.498,6.116c0,3.814,2.337,6.048,5.36,6.048
				c1.891,0,3.093-0.48,3.918-0.859l0.55,2.165c-0.688,0.378-2.131,0.928-3.814,0.997v3.471H122.612z"/>
		</g>
		<g opacity="0.3">
			<path fill="#32BCD0" d="M558.274,230.33v-1.647c-1.044-0.131-1.777-0.506-2.365-1.142c-0.554-0.62-0.913-1.566-0.913-2.757
				c0-2.104,1.289-3.703,3.278-4.029v-1.631h1.012v1.599c0.734,0,1.402,0.212,1.778,0.407l-0.326,1.093
				c-0.326-0.195-0.881-0.407-1.697-0.407c-1.614,0-2.609,1.305-2.609,2.903c0,1.811,1.109,2.871,2.545,2.871
				c0.896,0,1.468-0.229,1.859-0.408l0.261,1.027c-0.326,0.18-1.012,0.44-1.811,0.474v1.647H558.274z"/>
		</g>
		<g opacity="0.3">
			<path fill="#32BCD0" d="M702.386,497.554v-2.255c-1.429-0.179-2.433-0.691-3.236-1.562c-0.76-0.849-1.25-2.143-1.25-3.772
				c0-2.88,1.763-5.067,4.486-5.514v-2.232h1.385v2.188c1.004,0,1.92,0.29,2.433,0.558l-0.446,1.496
				c-0.446-0.268-1.205-0.559-2.321-0.559c-2.21,0-3.572,1.786-3.572,3.974c0,2.479,1.519,3.93,3.482,3.93
				c1.229,0,2.01-0.312,2.545-0.559l0.357,1.406c-0.446,0.246-1.384,0.604-2.478,0.647v2.255H702.386z"/>
		</g>
		<g opacity="0.3">
			<path fill="#32BCD0" d="M479.886,226.054v-2.255c-1.429-0.179-2.433-0.691-3.236-1.562c-0.76-0.849-1.25-2.143-1.25-3.772
				c0-2.88,1.763-5.067,4.486-5.514v-2.232h1.385v2.188c1.004,0,1.92,0.29,2.433,0.558l-0.446,1.496
				c-0.446-0.268-1.205-0.559-2.321-0.559c-2.21,0-3.572,1.786-3.572,3.974c0,2.479,1.519,3.93,3.482,3.93
				c1.229,0,2.01-0.312,2.545-0.559l0.357,1.406c-0.446,0.246-1.384,0.604-2.478,0.647v2.255H479.886z"/>
		</g>
		<g opacity="0.3">
			<path fill="#32BCD0" d="M180.121,369.178v-0.803c-0.509-0.063-0.867-0.247-1.153-0.557c-0.27-0.302-0.445-0.764-0.445-1.344
				c0-1.025,0.629-1.805,1.599-1.964v-0.795h0.492v0.779c0.358,0,0.684,0.104,0.867,0.199l-0.159,0.532
				c-0.159-0.096-0.43-0.198-0.827-0.198c-0.787,0-1.271,0.636-1.271,1.415c0,0.882,0.54,1.398,1.24,1.398
				c0.437,0,0.715-0.111,0.906-0.198l0.127,0.501c-0.159,0.087-0.493,0.214-0.883,0.23v0.803H180.121z"/>
		</g>
		<g opacity="0.3">
			<path fill="#32BCD0" d="M92.398,573.823v-3.709c-2.13-0.037-4.334-0.698-5.619-1.616l0.881-2.461
				c1.322,0.882,3.232,1.579,5.289,1.579c2.607,0,4.37-1.506,4.37-3.599c0-2.021-1.432-3.27-4.149-4.371
				c-3.747-1.469-6.061-3.158-6.061-6.354c0-3.049,2.167-5.362,5.546-5.913v-3.71h2.277v3.562c2.203,0.073,3.709,0.661,4.774,1.286
				l-0.918,2.424c-0.771-0.441-2.277-1.249-4.628-1.249c-2.828,0-3.893,1.689-3.893,3.158c0,1.91,1.358,2.865,4.554,4.188
				c3.783,1.543,5.693,3.452,5.693,6.721c0,2.902-2.021,5.62-5.804,6.244v3.819H92.398z"/>
		</g>
		<g opacity="0.3">
			<path fill="#32BCD0" d="M557.929,237.175c-0.093-0.726,0.422-1.383,1.146-1.463l0,0c0.713-0.092,1.372,0.422,1.463,1.146l0,0
				c0.094,0.726-0.419,1.386-1.146,1.463l0,0c-0.053,0.014-0.105,0.014-0.158,0.014l0,0
				C558.575,238.335,558.007,237.847,557.929,237.175z M553.764,237.65c-0.685-0.251-1.028-1.016-0.778-1.689l0,0
				c0.264-0.682,1.015-1.025,1.699-0.775l0,0c0.687,0.263,1.03,1.015,0.777,1.699l0,0c-0.209,0.527-0.711,0.856-1.238,0.856l0,0
				C554.067,237.741,553.908,237.715,553.764,237.65z M562.858,235.976c-0.409-0.604-0.265-1.424,0.33-1.832l0,0
				c0.605-0.42,1.424-0.264,1.83,0.329l0,0c0.423,0.595,0.277,1.424-0.33,1.832l0,0l0,0l0,0c-0.224,0.161-0.486,0.237-0.75,0.237
				l0,0C563.53,236.542,563.108,236.344,562.858,235.976z M549.083,234.447c-0.486-0.555-0.435-1.383,0.105-1.859l0,0
				c0.541-0.486,1.386-0.448,1.859,0.105l0,0c0.487,0.54,0.435,1.372-0.106,1.858l0,0c-0.249,0.224-0.565,0.33-0.87,0.33l0,0
				C549.703,234.881,549.349,234.737,549.083,234.447z M566.666,232.615c-0.645-0.345-0.884-1.135-0.554-1.78l0,0
				c0.344-0.646,1.135-0.897,1.779-0.555l0,0c0.646,0.33,0.898,1.136,0.555,1.779l0,0c-0.236,0.451-0.686,0.701-1.16,0.701l0,0
				C567.075,232.761,566.864,232.719,566.666,232.615z M546.435,229.425c-0.186-0.698,0.25-1.424,0.962-1.595l0,0
				c0.698-0.172,1.411,0.25,1.597,0.962l0,0c0.17,0.71-0.265,1.425-0.963,1.595l0,0c-0.105,0.026-0.211,0.04-0.316,0.04l0,0
				C547.12,230.427,546.579,230.031,546.435,229.425z M567.167,226.552c0-0.014,0-0.027,0-0.04l0,0c0-0.012,0-0.026,0-0.026l0,0
				c0-0.727,0.579-1.331,1.306-1.331l0,0c0.726,0,1.318,0.579,1.331,1.305l0,0c0,0.014,0,0.04,0,0.052l0,0c0,0.013,0,0.026,0,0.04
				l0,0c0,0.725-0.593,1.317-1.317,1.317l0,0C567.761,227.87,567.167,227.277,567.167,226.552z M547.384,225.352
				c-0.713-0.17-1.147-0.882-0.975-1.595l0,0l0,0l0,0c0.17-0.71,0.883-1.146,1.595-0.975l0,0c0.698,0.172,1.146,0.884,0.96,1.594
				l0,0c-0.144,0.607-0.684,1.016-1.277,1.016l0,0C547.581,225.392,547.489,225.379,547.384,225.352z M566.087,222.203
				c-0.342-0.634-0.105-1.437,0.541-1.781l0,0c0.646-0.342,1.436-0.104,1.779,0.54l0,0c0.342,0.646,0.105,1.437-0.541,1.781l0,0
				c-0.197,0.105-0.408,0.157-0.619,0.157l0,0C566.772,222.9,566.324,222.65,566.087,222.203z M549.149,220.582
				c-0.553-0.475-0.607-1.306-0.117-1.858l0,0l0,0l0,0c0.474-0.542,1.305-0.593,1.859-0.119l0,0
				c0.539,0.487,0.591,1.318,0.117,1.857l0,0c-0.264,0.306-0.633,0.449-0.988,0.449l0,0
				C549.703,220.91,549.399,220.804,549.149,220.582z M563.133,218.92c-0.604-0.41-0.763-1.225-0.341-1.834l0,0
				c0.408-0.592,1.225-0.75,1.832-0.341l0,0l0,0l0,0c0.592,0.408,0.75,1.226,0.342,1.832l0,0c-0.25,0.368-0.671,0.579-1.093,0.579
				l0,0C563.623,219.157,563.357,219.077,563.133,218.92z M552.919,217.179c-0.263-0.67,0.08-1.435,0.752-1.701l0,0
				c0.686-0.263,1.449,0.08,1.714,0.753l0,0c0.263,0.685-0.079,1.452-0.765,1.712l0,0c-0.159,0.053-0.316,0.08-0.476,0.08l0,0
				C553.618,218.024,553.116,217.708,552.919,217.179z M558.995,217.376c-0.711-0.078-1.238-0.724-1.146-1.447l0,0
				c0.08-0.726,0.727-1.241,1.45-1.162l0,0c0.726,0.08,1.238,0.739,1.159,1.464l0,0c-0.078,0.671-0.646,1.16-1.304,1.16l0,0
				C559.101,217.392,559.049,217.392,558.995,217.376z"/>
		</g>
		<g opacity="0.3">
			<path fill="#32BCD0" d="M504.274,309.662v-1.647c-1.044-0.131-1.777-0.506-2.365-1.142c-0.554-0.62-0.913-1.566-0.913-2.757
				c0-2.104,1.289-3.703,3.278-4.029v-1.631h1.012v1.599c0.734,0,1.402,0.212,1.778,0.407l-0.326,1.093
				c-0.326-0.195-0.881-0.407-1.697-0.407c-1.614,0-2.609,1.305-2.609,2.903c0,1.811,1.109,2.871,2.545,2.871
				c0.896,0,1.468-0.229,1.859-0.408l0.261,1.027c-0.326,0.18-1.012,0.44-1.811,0.474v1.647H504.274z"/>
		</g>
		<g opacity="0.3">
			<path fill="#32BCD0" d="M503.929,316.509c-0.093-0.726,0.422-1.384,1.146-1.462l0,0c0.713-0.093,1.372,0.421,1.463,1.145l0,0
				c0.094,0.726-0.419,1.386-1.146,1.464l0,0c-0.053,0.013-0.105,0.013-0.158,0.013l0,0
				C504.575,317.668,504.007,317.18,503.929,316.509z M499.764,316.983c-0.685-0.251-1.028-1.016-0.778-1.689l0,0
				c0.264-0.683,1.015-1.026,1.699-0.776l0,0c0.687,0.262,1.03,1.015,0.777,1.699l0,0c-0.209,0.528-0.711,0.856-1.238,0.856l0,0
				C500.067,317.074,499.908,317.049,499.764,316.983z M508.858,315.308c-0.409-0.604-0.265-1.423,0.33-1.831l0,0
				c0.605-0.422,1.424-0.265,1.83,0.328l0,0c0.423,0.595,0.277,1.423-0.33,1.832l0,0l0,0l0,0c-0.224,0.161-0.486,0.237-0.75,0.237
				l0,0C509.53,315.875,509.108,315.678,508.858,315.308z M495.083,313.779c-0.486-0.554-0.435-1.383,0.105-1.859l0,0
				c0.541-0.486,1.386-0.448,1.859,0.106l0,0c0.487,0.54,0.435,1.372-0.106,1.858l0,0c-0.249,0.224-0.565,0.33-0.87,0.33l0,0
				C495.703,314.214,495.349,314.071,495.083,313.779z M512.666,311.949c-0.645-0.345-0.884-1.136-0.554-1.781l0,0
				c0.344-0.645,1.135-0.897,1.779-0.554l0,0c0.646,0.33,0.898,1.136,0.555,1.78l0,0c-0.236,0.45-0.686,0.7-1.16,0.7l0,0
				C513.075,312.094,512.864,312.053,512.666,311.949z M492.435,308.759c-0.186-0.699,0.25-1.424,0.962-1.596l0,0
				c0.698-0.171,1.411,0.251,1.597,0.963l0,0c0.17,0.71-0.265,1.425-0.963,1.594l0,0c-0.105,0.027-0.211,0.042-0.316,0.042l0,0
				C493.12,309.761,492.579,309.365,492.435,308.759z M513.167,305.886c0-0.014,0-0.027,0-0.04l0,0c0-0.012,0-0.026,0-0.026l0,0
				c0-0.727,0.579-1.331,1.306-1.331l0,0c0.726,0,1.318,0.579,1.331,1.303l0,0c0,0.015,0,0.042,0,0.054l0,0c0,0.013,0,0.026,0,0.04
				l0,0c0,0.725-0.593,1.317-1.317,1.317l0,0C513.761,307.203,513.167,306.61,513.167,305.886z M493.384,304.686
				c-0.713-0.17-1.147-0.883-0.975-1.596l0,0l0,0l0,0c0.17-0.711,0.883-1.146,1.595-0.975l0,0c0.698,0.171,1.146,0.882,0.96,1.593
				l0,0c-0.144,0.608-0.684,1.017-1.277,1.017l0,0C493.581,304.726,493.489,304.712,493.384,304.686z M512.087,301.536
				c-0.342-0.634-0.105-1.437,0.541-1.781l0,0c0.646-0.342,1.436-0.104,1.779,0.54l0,0c0.342,0.647,0.105,1.437-0.541,1.781l0,0
				c-0.197,0.105-0.408,0.157-0.619,0.157l0,0C512.772,302.233,512.324,301.983,512.087,301.536z M495.149,299.914
				c-0.553-0.474-0.607-1.305-0.117-1.858l0,0l0,0l0,0c0.474-0.54,1.305-0.593,1.859-0.118l0,0c0.539,0.487,0.591,1.317,0.117,1.857
				l0,0c-0.264,0.305-0.633,0.449-0.988,0.449l0,0C495.703,300.243,495.399,300.138,495.149,299.914z M509.133,298.253
				c-0.604-0.41-0.763-1.224-0.341-1.833l0,0c0.408-0.591,1.225-0.75,1.832-0.342l0,0l0,0l0,0c0.592,0.41,0.75,1.226,0.342,1.833
				l0,0c-0.25,0.369-0.671,0.579-1.093,0.579l0,0C509.623,298.49,509.357,298.41,509.133,298.253z M498.919,296.512
				c-0.263-0.67,0.08-1.435,0.752-1.701l0,0c0.686-0.263,1.449,0.08,1.714,0.753l0,0c0.263,0.686-0.079,1.45-0.765,1.712l0,0
				c-0.159,0.054-0.316,0.08-0.476,0.08l0,0C499.618,297.357,499.116,297.042,498.919,296.512z M504.995,296.71
				c-0.711-0.08-1.238-0.726-1.146-1.447l0,0c0.08-0.726,0.727-1.241,1.45-1.163l0,0c0.726,0.08,1.238,0.739,1.159,1.465l0,0
				c-0.078,0.671-0.646,1.159-1.304,1.159l0,0C505.101,296.724,505.049,296.724,504.995,296.71z"/>
		</g>
		<g opacity="0.3">
			<path fill="#32BCD0" d="M112.274,378.83v-1.647c-1.044-0.131-1.777-0.506-2.365-1.142c-0.554-0.62-0.913-1.566-0.913-2.757
				c0-2.104,1.289-3.703,3.278-4.029v-1.631h1.012v1.599c0.734,0,1.402,0.212,1.778,0.407l-0.326,1.093
				c-0.326-0.195-0.881-0.407-1.697-0.407c-1.614,0-2.609,1.305-2.609,2.903c0,1.811,1.109,2.871,2.545,2.871
				c0.896,0,1.468-0.229,1.859-0.408l0.261,1.027c-0.326,0.18-1.012,0.44-1.811,0.474v1.647H112.274z"/>
		</g>
		<g opacity="0.3">
			<path fill="#32BCD0" d="M111.929,385.675c-0.093-0.726,0.422-1.383,1.146-1.463l0,0c0.713-0.092,1.372,0.422,1.463,1.146l0,0
				c0.094,0.726-0.419,1.386-1.146,1.463l0,0c-0.053,0.014-0.105,0.014-0.158,0.014l0,0
				C112.575,386.835,112.007,386.347,111.929,385.675z M107.764,386.15c-0.685-0.251-1.028-1.016-0.778-1.689l0,0
				c0.264-0.683,1.015-1.025,1.699-0.775l0,0c0.687,0.263,1.03,1.015,0.777,1.699l0,0c-0.209,0.527-0.711,0.856-1.238,0.856l0,0
				C108.067,386.241,107.908,386.215,107.764,386.15z M116.858,384.476c-0.409-0.605-0.265-1.424,0.33-1.832l0,0
				c0.605-0.42,1.424-0.264,1.83,0.329l0,0c0.423,0.595,0.277,1.424-0.33,1.832l0,0l0,0l0,0c-0.224,0.161-0.486,0.237-0.75,0.237
				l0,0C117.53,385.042,117.108,384.845,116.858,384.476z M103.083,382.946c-0.486-0.554-0.435-1.382,0.105-1.858l0,0
				c0.541-0.486,1.386-0.448,1.859,0.105l0,0c0.487,0.54,0.435,1.372-0.106,1.858l0,0c-0.249,0.224-0.565,0.33-0.87,0.33l0,0
				C103.703,383.381,103.349,383.237,103.083,382.946z M120.666,381.115c-0.645-0.345-0.884-1.135-0.554-1.78l0,0
				c0.344-0.646,1.135-0.897,1.779-0.555l0,0c0.646,0.33,0.898,1.136,0.555,1.779l0,0c-0.236,0.451-0.686,0.701-1.16,0.701l0,0
				C121.075,381.261,120.864,381.219,120.666,381.115z M100.435,377.925c-0.186-0.698,0.25-1.424,0.962-1.595l0,0
				c0.698-0.172,1.411,0.25,1.597,0.962l0,0c0.17,0.71-0.265,1.425-0.963,1.595l0,0c-0.105,0.026-0.211,0.04-0.316,0.04l0,0
				C101.12,378.927,100.579,378.531,100.435,377.925z M121.167,375.053c0-0.014,0-0.028,0-0.04l0,0c0-0.013,0-0.027,0-0.027l0,0
				c0-0.727,0.579-1.331,1.306-1.331l0,0c0.726,0,1.318,0.579,1.331,1.303l0,0c0,0.015,0,0.042,0,0.055l0,0c0,0.012,0,0.025,0,0.04
				l0,0c0,0.724-0.593,1.317-1.317,1.317l0,0C121.761,376.37,121.167,375.777,121.167,375.053z M101.384,373.852
				c-0.713-0.17-1.147-0.882-0.975-1.595l0,0l0,0l0,0c0.17-0.71,0.883-1.146,1.595-0.975l0,0c0.698,0.172,1.146,0.883,0.96,1.594
				l0,0c-0.144,0.607-0.684,1.016-1.277,1.016l0,0C101.581,373.892,101.489,373.879,101.384,373.852z M120.087,370.703
				c-0.342-0.634-0.105-1.435,0.541-1.78l0,0c0.646-0.342,1.436-0.104,1.779,0.54l0,0c0.342,0.646,0.105,1.437-0.541,1.781l0,0
				c-0.197,0.105-0.408,0.157-0.619,0.157l0,0C120.772,371.4,120.324,371.15,120.087,370.703z M103.149,369.082
				c-0.553-0.475-0.607-1.306-0.117-1.858l0,0l0,0l0,0c0.474-0.542,1.305-0.593,1.859-0.119l0,0
				c0.539,0.487,0.591,1.318,0.117,1.857l0,0c-0.264,0.307-0.633,0.449-0.988,0.449l0,0
				C103.703,369.41,103.399,369.304,103.149,369.082z M117.133,367.42c-0.604-0.409-0.763-1.225-0.341-1.833l0,0
				c0.408-0.591,1.225-0.75,1.832-0.341l0,0l0,0l0,0c0.592,0.409,0.75,1.226,0.342,1.832l0,0c-0.25,0.369-0.671,0.579-1.093,0.579
				l0,0C117.623,367.657,117.357,367.577,117.133,367.42z M106.919,365.679c-0.263-0.67,0.08-1.435,0.752-1.701l0,0
				c0.686-0.263,1.449,0.08,1.714,0.753l0,0c0.263,0.685-0.079,1.451-0.765,1.712l0,0c-0.159,0.053-0.316,0.08-0.476,0.08l0,0
				C107.618,366.524,107.116,366.208,106.919,365.679z M112.995,365.876c-0.711-0.078-1.238-0.724-1.146-1.447l0,0
				c0.08-0.726,0.727-1.241,1.45-1.162l0,0c0.726,0.08,1.238,0.739,1.159,1.464l0,0c-0.078,0.671-0.646,1.16-1.304,1.16l0,0
				C113.101,365.892,113.049,365.892,112.995,365.876z"/>
		</g>
	</g>
	<path fill="#FFFFFF" d="M362.078,232.85h-5.473c-6.048,0-10.952-2.652-10.952-5.934v-88.309c0-3.277,4.904-5.935,10.952-5.935
		h5.473"/>
	<path fill="#FFFFFF" d="M401.023,212.012l-4.73,2.754c-5.224,3.043-10.799,3.212-12.444,0.383l-44.434-76.322
		c-1.649-2.832,1.251-7.596,6.479-10.636l4.73-2.753"/>
	<path fill="#FFFFFF" d="M424.359,174.561l-2.769,4.724c-3.055,5.218-7.826,8.108-10.646,6.455l-76.214-44.618
		c-2.831-1.657-2.643-7.233,0.411-12.45l2.766-4.723"/>
	<path fill="#FFFFFF" d="M336.573,177.805c-19.452,0-35.225-15.767-35.225-35.221c0-19.451,15.772-35.227,35.225-35.227
		c19.455,0,35.227,15.775,35.227,35.227C371.8,162.038,356.028,177.805,336.573,177.805z"/>
	<path fill="#104C5E" d="M336.573,224.593c-5.47,0-9.906-4.927-9.906-11.006v-55.044c0-6.078,4.437-11.004,9.906-11.004l0,0
		c5.474,0,9.908,4.926,9.908,11.004v55.044C346.481,219.666,342.047,224.593,336.573,224.593L336.573,224.593z"/>
	<rect x="319.235" y="46.082" fill="#FFFFFF" width="34.678" height="72.285"/>
	<g>
		<defs>
			<rect id="SVGID_1_" x="302.176" y="186.616" width="77.058" height="112.835"/>
		</defs>
		<clipPath id="SVGID_2_">
			<use xlink:href="#SVGID_1_"  overflow="visible"/>
		</clipPath>
		<rect x="312.909" y="207.808" clip-path="url(#SVGID_2_)" fill="#C39C51" width="61.094" height="122.19"/>
		
			<rect x="315.936" y="211.111" clip-path="url(#SVGID_2_)" fill="none" stroke="#FFFFFF" stroke-miterlimit="10" width="55.039" height="115.58"/>
		<path clip-path="url(#SVGID_2_)" fill="#FFFFFF" d="M344.283,285.416c-11.402,0-20.644-9.244-20.644-20.64
			c0-11.4,9.241-20.641,20.644-20.641c11.397,0,20.639,9.24,20.639,20.641C364.922,276.172,355.681,285.416,344.283,285.416z"/>
		<path clip-path="url(#SVGID_2_)" fill="#C39C51" d="M344.283,283.832c-10.51,0-19.06-8.549-19.06-19.056
			c0-10.511,8.55-19.062,19.06-19.062c10.507,0,19.056,8.551,19.056,19.062C363.339,275.283,354.79,283.832,344.283,283.832z
			 M344.283,248.053c-9.22,0-16.721,7.502-16.721,16.724c0,9.218,7.501,16.717,16.721,16.717c9.218,0,16.718-7.499,16.718-16.717
			C361.001,255.555,353.501,248.053,344.283,248.053z"/>
		<path clip-path="url(#SVGID_2_)" fill="none" stroke="#FFFFFF" stroke-miterlimit="10" d="M365.539,221.843
			c-2.962,0-5.363-2.404-5.363-5.366c0-2.963,2.401-5.365,5.363-5.365c2.965,0,5.368,2.402,5.368,5.365
			C370.907,219.438,368.504,221.843,365.539,221.843z"/>
		<circle clip-path="url(#SVGID_2_)" fill="none" stroke="#FFFFFF" stroke-miterlimit="10" cx="321.437" cy="216.477" r="5.366"/>
		<path clip-path="url(#SVGID_2_)" fill="none" stroke="#FFFFFF" stroke-miterlimit="10" d="M365.539,326.901
			c-2.962,0-5.363-2.403-5.363-5.368c0-2.963,2.401-5.367,5.363-5.367c2.965,0,5.368,2.404,5.368,5.367
			C370.907,324.498,368.504,326.901,365.539,326.901z"/>
		<g clip-path="url(#SVGID_2_)">
			<text transform="matrix(0 1 -1 0 363.4785 214.8223)" fill="#FFFFFF" font-family="'Cubano-Regular'" font-size="5.6536">$</text>
		</g>
		<g clip-path="url(#SVGID_2_)">
			<text transform="matrix(0 1 -1 0 335.4004 257.7979)" fill="#D1B070" font-family="'Cubano-Regular'" font-size="23.1171">$</text>
		</g>
		<g clip-path="url(#SVGID_2_)">
			<text transform="matrix(0 1 -1 0 319.3115 214.8223)" fill="#FFFFFF" font-family="'Cubano-Regular'" font-size="5.6536">$</text>
		</g>
		<circle clip-path="url(#SVGID_2_)" fill="none" stroke="#FFFFFF" stroke-miterlimit="10" cx="321.437" cy="321.534" r="5.368"/>
		<g clip-path="url(#SVGID_2_)">
			<text transform="matrix(0 1 -1 0 319.3115 319.8818)" fill="#FFFFFF" font-family="'Cubano-Regular'" font-size="5.6536">$</text>
		</g>
		<g clip-path="url(#SVGID_2_)">
			<text transform="matrix(0 1 -1 0 363.6865 319.8818)" fill="#FFFFFF" font-family="'Cubano-Regular'" font-size="5.6536">$</text>
		</g>
	</g>
	<path fill="#FFFFFF" d="M310.979,232.85h5.474c6.049,0,10.95-2.652,10.95-5.934v-88.309c0-3.277-4.901-5.935-10.95-5.935h-5.474"/>
</g>
</svg>
