<?xml version="1.0" encoding="utf-8"?>
<!-- Generator: Adobe Illustrator 15.0.0, SVG Export Plug-In . SVG Version: 6.00 Build 0)  -->
<!DOCTYPE svg PUBLIC "-//W3C//DTD SVG 1.1//EN" "http://www.w3.org/Graphics/SVG/1.1/DTD/svg11.dtd">
<svg version="1.1" id="Capa_1" xmlns="http://www.w3.org/2000/svg" xmlns:xlink="http://www.w3.org/1999/xlink" x="0px" y="0px"
	 width="6624px" height="4608px" viewBox="0 0 6624 4608" enable-background="new 0 0 6624 4608" xml:space="preserve">
<path fill="#F39200" d="M6595.333,2234.86V410.956c0-164.992-192.392-359.051-429.736-359.051H471.736
	C234.403,51.905,42,268.578,42,433.568v1775.291L6595.333,2234.86z"/>
<path fill="#009FE3" d="M42,2208.859v1961.297c0,177.439,192.403,386.107,429.736,386.107h5693.861
	c237.345,0,429.736-232.998,429.736-410.413V2234.86L42,2208.859z"/>
<g>
	<path fill="#FFFFFF" stroke="#000000" stroke-width="40" d="M3055.726,1856.855c-369.879,58.139-336.193,29.831-798.878,40.364
		l95.717-731.703c441.436,0,957.31-248.591,1175.322-656.058h606.29l-664.773,3777.643h-880.979L3055.726,1856.855z"/>
	<path fill="#FFFFFF" stroke="#000000" stroke-width="40" d="M4253.725,516.727l2210.158,0.147l-131.109,626.521l-1451.596,31.107
		l-94.945,624.19c222.959-110.877,382.205-142.624,605.115-142.624c843.979,0,912.676,687.73,912.676,1200.01
		c0,781.495-483.014,1431.023-1438.463,1431.023c-705.996,0-1151.837-473.857-1151.837-1133.941v-73.901h700.643v68.695
		c0,248.124,169.853,438.206,456.5,438.206c355.636,0,668.776-64.768,668.776-693.106c0-475.28-275.132-584.464-514.002-584.464
		c-260.08,0-414.023,147.878-477.711,290.453l-668.798-21.114L4253.725,516.727z"/>
</g>
<path d="M1094.01,3111.813l-83.342,55.563c0,0-6.947,6.949,0,97.227l2.234,67.078c0,0,1.031,24.084-29.339,36.655l-56.569,69.138
	c0,0-55.524,45.078,0,93.25c0,0,108.939,92.192,157.133,100.564c0,0,10.337,1.032,9.883,14.657l0.014,151.905
	c0,0-5.698,19.911,10.017,37.712l294.355,318.442c0,0,53.437,33.537,114.191-19.889S1764,3904.701,1764,3904.701
	s62.854-18.858,85.897-1.057l357.221,339.409c0,0,56.568,70.808,128.85,11.835l120.464-114.488c0,0,42.956-34.568-25.141-81.708
	l-178.09-181.245c0,0,25.144-40.854,53.426-49.227c28.286-8.371,622.25,0,622.25,0s75.425-26.394,33.527-133.146l-184.375-848.424
	c0,0-20.955-62.854-125.707-62.854l-486.06-37.713l-8.384-117.31c0,0-20.942-54.48-92.18-54.48c0,0-1014.041-41.911-1127.176,25.142
	c0,0-234.657,58.655-83.809,213.701L1094.01,3111.813z"/>
<path d="M700.279,2961.039c0,0-88.375,86.153-22.096,128.138h35.354c0,0-59.636,35.33-41.97,68.476
	c17.665,33.146,53.02,66.291,88.363,66.291c0,0,90.573-4.421,94.992-22.098c4.418-17.677,4.418-17.677,4.418-17.677
	s33.133-8.841,44.183-13.259c0,0,19.887-70.71,11.048-114.879C914.57,3056.031,868.18,2923.473,700.279,2961.039z"/>
<path fill="#FFFFFF" d="M1199.548,3020.701l-236.376-243.018c0,0,17.677-92.759,108.25-63.393l205.453,229.072
	C1276.874,2943.363,1272.442,3033.959,1199.548,3020.701z"/>
<path fill="#FFFFFF" d="M1363.027,3051.612L1184.091,3168.7l-55.229,35.332c0,0-28.727,28.748-30.937,72.918l-8.838,97.204
	c0,0-11.047,50.797-39.764,59.637c0,0-46.377,35.329,24.308,92.781c0,0,70.673,50.799,117.077,0c0,0,44.182-61.87,59.648-26.517
	c0,0,33.133,68.476-8.839,112.672l-66.266,81.757c0,0-33.133,37.517,46.391,117.063l178.95,178.964c0,0,37.54,55.24,117.076-8.842
	c0,0,154.654-152.442,181.157-148.024c0,0,79.525,0.025,19.875-46.378c0,0-81.721-50.797-174.516-15.469l-48.601,30.913
	c0,0-26.517,15.468-19.888-64.058c0,0,19.874-163.468-6.629-192.194l-92.784-126.616c0,0-19.259-36.852,11.356-63.367l26.198-30.936
	c0,0,35.354-19.888,68.488,22.096c0,0,101.633,86.154,214.29-11.049l2.21-17.676c0,0-106.041-8.815-125.926-64.058l-2.211-114.88
	c0,0-66.265-92.782-81.733-88.362C1488.956,3051.612,1379.919,3040.563,1363.027,3051.612z"/>
<path fill="#FFFFFF" d="M2014.727,3886.679c0,0,28.727-41.983,128.138-15.467l176.728,192.192c0,0,50.81,46.381,0,81.736
	c0,0-33.135,44.17-86.154,0L2014.727,3886.679z"/>
<path fill="#FFFFFF" d="M1597.206,3162.071c0,0-19.874,55.219,0,86.155c0,0,55.23,61.821,97.203,50.797
	C1694.409,3299.023,1731.973,3226.153,1597.206,3162.071z"/>
<path fill="#FFFFFF" d="M1924.154,3641.452c0,0-46.392,61.846,0,110.46c0,0,57.452,48.588,125.927-11.048
	c0,0,112.671-41.962,97.203-83.944c0,0,2.199-128.58-22.096-127.255c0,0-95.005-16.351-110.461,16.795L1924.154,3641.452z"/>
<path fill="#FFFFFF" d="M1889.598,3623.774l125.129-172.307c0,0,35.354-141.396-83.944-141.396l-163.48,189.984
	C1767.303,3500.056,1700.398,3692.25,1889.598,3623.774z"/>
<path fill="#FFFFFF" d="M1601.612,3431.58c0,0,167.901-41.959,167.901-143.579c0,0-11.05-72.921-44.183-75.131
	c0,0-44.18-147.976,53.022-134.741c0,0,139.382,12.596,99.411,176.308c0,0-116.684,241.2-233.97,241.2
	C1643.793,3495.637,1571.278,3488.468,1601.612,3431.58z"/>
<path fill="#FFFFFF" d="M1546.395,3022.026c0,0,66.267,94.87,130.335,78.174c0,0,66.268-61.821-22.096-119.273
	C1654.633,2980.927,1559.653,2904.078,1546.395,3022.026z"/>
<path fill="#FFFFFF" d="M1686.489,3626.647c0,0,55.636,63.591,86.277,61.306c0,0-43.126,61.285-101.033,11.344
	C1671.733,3699.297,1638.81,3659.57,1686.489,3626.647z"/>
<path fill="#FFFFFF" d="M1861.301,3778.773c0,0,11.354,34.028,35.195,31.77c0,0-35.195,42.01-62.436,13.627
	C1834.06,3824.17,1813.621,3782.186,1861.301,3778.773z"/>
<path fill="#FFFFFF" d="M1540.049,3479.063c0,0,27.707,60.179,54.148,56.765c0,0-42.807,55.93-79.131,0.148
	C1515.066,3535.977,1469.215,3473.466,1540.049,3479.063z"/>
<path fill="#FFFFFF" d="M1199.485,3551.715c0,0-47.679,23.84-38.595,42.008c9.084,18.169,20.428,28.408,29.512,26.124
	c9.083-2.285,35.208-48.835,42.009-40.881C1232.411,3578.966,1222.195,3526.721,1199.485,3551.715z"/>
<path fill="#FFFFFF" d="M746.032,3024.333c0,0-37.712-6.284-32.604,7.072c0,0-7.464,20.034,23.176,20.819
	c0,0,34.961,27.107,16.892,44.784c0,0-38.497,14.927-37.712,29.854c0,0-8.641,23.571,2.751,27.105s85.636,3.143,89.172-7.463
	C807.707,3146.506,823.814,3054.976,746.032,3024.333z"/>
<path fill="#FFFFFF" d="M820.671,3025.514c0,0-15.713,47.531,2.749,46.748c18.464-0.787,39.679-17.68,40.856-20.822
	C865.455,3048.297,868.94,3011.518,820.671,3025.514z"/>
<path fill="#FFFFFF" d="M853.668,3105.258c0,0-19.641,7.464-7.464,20.429c10.939,11.636,27.598,18.216,31.441,22.292
	c0.429,0.466,0.7,0.885,0.773,1.277c0.786,3.928,18.854-11,8.642-25.534C887.06,3123.722,876.452,3098.186,853.668,3105.258z"/>
<path fill="#F39200" d="M1682.647,2935.111c0,0-113.922-132.064-156.976-69.825c0,0-88.607,145.396-222.809,0l-143.127-132.73
	c0,0-36.644-65.824,95.017-65.824h731.728c0,0,71.679,5.059,28.247,27.844c0,0-128.333,35.453-125.129,53.179
	c3.203,17.728-39.849,91.162,170.306,103.808l554.499,13.725c0,0,44.365,5.694,56.272,50.037c0.811,3.021,1.473,6.235,1.964,9.648
	c7.6,53.179,35.441,334.228,35.441,334.228l-602.596,27.253c0,0-52.712-42.72-85.858-55.241c0,0-92.341-42.377-76.713-96.295
	c0.761-2.625,1.768-5.278,3.056-7.953C1945.968,3126.963,1839.621,3004.938,1682.647,2935.111z"/>
<path fill="#EA5B0C" d="M2047.245,2708.545v117.704c0,0-132.96,11.439-143.702-58.853
	C1903.543,2767.396,1897.858,2719.986,2047.245,2708.545z"/>
<polygon fill="#36A9E1" points="2381.463,3740.274 2830.398,3733.181 2708.864,3262.244 2107.535,3289.325 "/>
<path fill="#FFFFFF" stroke="#000000" stroke-width="14" d="M2256.848,2956.25h84.374l32.531,100.616l32.298-100.616h84.314v165.359
	h-52.529v-126.1l-40.475,126.1h-47.558l-40.416-126.1v126.1h-52.54V2956.25z"/>
<path fill="#FFFFFF" stroke="#000000" stroke-width="14" d="M2385.439,3233.443h106.63c23.238,0,40.621,4.739,52.198,14.168
	c11.552,9.379,17.334,22.808,17.334,40.217c0,17.874-6.31,31.845-18.906,41.885c-12.593,10.093-31.844,15.101-57.71,15.101h-35.108
	v65.701h-64.438V3233.443z M2449.877,3308.966h15.7c12.388,0,21.066-1.841,26.076-5.5c5.007-3.681,7.488-8.346,7.488-14.066
	c0-5.573-2.161-10.287-6.494-14.144c-4.36-3.877-12.508-5.795-24.516-5.795h-18.254V3308.966z"/>
<path fill="#FFFFFF" stroke="#000000" stroke-width="14" d="M2517.041,3478.696h84.225c16.572,0,30.003,2.405,40.216,7.269
	c10.214,4.861,18.672,11.809,25.35,20.868c6.666,9.06,11.504,19.593,14.51,31.624c2.997,12.055,4.506,24.771,4.506,38.201
	c0,21.117-2.232,37.467-6.701,49.08c-4.47,11.612-10.655,21.313-18.586,29.168c-7.919,7.858-16.426,13.086-25.523,15.664
	c-12.436,3.611-23.693,5.426-33.771,5.426h-84.225V3478.696z M2573.731,3523.381v107.76h13.885c11.845,0,20.267-1.375,25.275-4.175
	c5.01-2.847,8.924-7.808,11.747-14.827c2.848-7.049,4.272-18.465,4.272-34.252c0-20.918-3.18-35.23-9.515-42.941
	c-6.334-7.71-16.853-11.564-31.523-11.564H2573.731z"/>
<g>
	<path fill="#FFFFFF" stroke="#000000" stroke-width="17" d="M939.663,1174.502v963.131h-218.92l-0.294-650.214l-87.146,650.214
		H478.034l-91.912-635.335l-0.294,635.335H166.909v-963.131h324.063c9.613,57.919,19.519,126.149,29.721,204.765l35.563,244.981
		l57.563-449.746H939.663z"/>
	<path fill="#FFFFFF" stroke="#000000" stroke-width="17" d="M1007.095,1174.502h252.225c68.218,0,120.661,5.353,157.354,16.058
		c36.68,10.704,64.253,26.172,82.691,46.404c18.439,20.23,30.935,44.733,37.479,73.483c6.544,28.751,9.809,73.264,9.809,133.539
		v83.896c0,61.478-6.347,106.286-19.028,134.422c-12.707,28.186-35.992,49.792-69.898,64.843
		c-33.919,15.099-78.237,22.612-132.964,22.612h-67.224v387.875h-250.444V1174.502z M1257.539,1339.297v245.079
		c7.146,0.418,13.284,0.615,18.439,0.615c23.005,0,38.964-5.672,47.889-16.966c8.924-11.294,13.393-34.791,13.393-70.489v-79.132
		c0-32.899-5.168-54.333-15.467-64.253C1311.468,1344.256,1290.059,1339.297,1257.539,1339.297z"/>
	<path fill="#FFFFFF" stroke="#000000" stroke-width="17" d="M1594.959,1174.502h187.381c120.969,0,202.764,5.549,245.401,16.647
		c42.621,11.122,75.043,29.364,97.262,54.751c22.207,25.387,36.079,53.621,41.641,84.754c5.549,31.156,8.335,92.316,8.335,183.527
		v337.297c0,86.473-4.077,144.269-12.203,173.412c-8.127,29.167-22.305,51.977-42.537,68.427
		c-20.218,16.45-45.212,27.965-74.956,34.496c-29.745,6.555-74.566,9.82-134.437,9.82h-315.887V1174.502z M1845.402,1339.297
		v633.543c36.08,0,58.3-7.219,66.636-21.705c8.323-14.461,12.484-53.842,12.484-118.095v-374.175c0-43.63-1.389-71.594-4.162-83.895
		c-2.773-12.276-9.134-21.311-19.042-27.057C1891.401,1342.169,1872.767,1339.297,1845.402,1339.297z"/>
</g>
</svg>
