<svg xmlns="http://www.w3.org/2000/svg" xmlns:xlink="http://www.w3.org/1999/xlink" viewBox="-1617 819.7 167 72.3" enable-background="new -1617 819.7 167 72.3"><style type="text/css">.st0{fill:#E13A3E;} .st1{fill:#FFFFFF;} .st2{fill:#E0393D;} .st3{fill:#E03A3E;}</style><path d="M-3151.1 1644.9c.5 0 1 0 1.5 0s1 .1 1.5.1.9.1 1.3.2c.7.2 1.5.3 2.2.6 1.1.3 2.2.8 3.3 1.4.5.3 1 .6 1.5.9.6.4 1.1.8 1.6 1.2s.9.8 1.3 1.2c.3.2.5.5.7.8.4.4.7.8 1 1.2.5.6.9 1.3 1.3 2s.8 1.5 1.1 2.2c.4.9.7 1.9.9 2.8.2.8.3 1.6.4 2.5 0 .4.1.8.1 1.3v.1c0 .5 0 1 0 1.5s-.1 1-.1 1.4-.1.9-.2 1.3c-.2.7-.3 1.5-.6 2.2-.2.6-.4 1.2-.7 1.8-.3.8-.7 1.5-1.2 2.3-.4.7-.8 1.3-1.3 1.9s-1 1.2-1.5 1.7c-.2.3-.5.5-.8.7-.4.4-.8.7-1.2 1-.6.5-1.3.9-2 1.3s-1.5.8-2.3 1.1c-.9.4-1.9.7-2.9.9-.8.2-1.6.3-2.5.4-.4 0-.8.1-1.3.1h-.1c-.5 0-1 0-1.5 0s-1-.1-1.5-.1-.9-.1-1.3-.2c-.7-.2-1.5-.3-2.2-.6-1.1-.3-2.2-.8-3.3-1.4-.5-.3-1-.5-1.4-.9-.5-.3-1-.7-1.5-1.1s-1-.9-1.5-1.3c-.3-.2-.5-.5-.7-.8-.4-.4-.7-.8-1-1.2-.5-.6-.9-1.3-1.3-2s-.8-1.5-1.1-2.2c-.4-.9-.7-1.9-.9-2.8-.2-.8-.3-1.6-.4-2.5 0-.4-.1-.8-.1-1.3v-.1c0-.5 0-1 0-1.5s.1-1 .1-1.4.1-.9.2-1.3c.2-.7.3-1.5.6-2.2.3-1.1.8-2.2 1.4-3.3.3-.5.6-1 .9-1.4.3-.5.7-1 1.1-1.5s.9-1 1.3-1.5c.2-.3.5-.5.8-.7.4-.4.8-.7 1.2-1 .6-.5 1.3-.9 2-1.3s1.5-.8 2.3-1.1c.9-.4 1.9-.7 2.9-.9.8-.2 1.6-.3 2.5-.4.4-.1.9-.1 1.4-.1-.1 0 0 0 0 0zm8.3 10.7c0 .1.1.2.1.3.1.5.3 1 .6 1.4.5.6 1.1.8 1.9.9.4 0 .8 0 1.2-.1.6-.1 1.1-.4 1.5-.7.4-.3.7-.7.9-1.2.3-.6.4-1.2.2-1.8-.1-.6-.4-1.1-.8-1.5-.4-.5-.9-.9-1.5-1.1-.5-.2-1.1-.3-1.6-.4-.2 0-.4 0-.6 0-.4 0-.8.2-1.2.3-.6.3-1 .7-1.4 1.2-.2.2-.3.5-.5.8-.2.5-.4 1.1-.6 1.6-.4 1.1-.8 2.1-1.1 3.2-.2.5-.3.9-.5 1.4-.1-.1-.2-.2-.3-.2-.4-.4-.8-.8-1.2-1.2-.1-.1-.2-.2-.4-.4-.3-.4-.7-.8-1-1.2-.2-.3-.4-.5-.7-.8 0 0-.1-.1 0-.2s.1-.2.2-.2c.4-.6.8-1.2 1.1-1.8.4-.6.6-1.3.7-2 0-.4 0-.9-.1-1.3-.3-.9-.8-1.6-1.7-2.1-.4-.2-.9-.4-1.3-.5-.5-.1-1-.2-1.5-.2-.6 0-1.1 0-1.6.1s-.9.2-1.3.4-.8.5-1.2.7c-.5.4-1 .9-1.5 1.4-.4.5-.7 1-1 1.6-.3.6-.5 1.3-.5 2 0 .6 0 1.3.1 1.9.1.6.2 1.2.4 1.8.2.5.4 1.1.6 1.6-.3.2-.6.3-.9.5-.6.3-1.2.7-1.8 1-.4.2-.9.5-1.2.9-.3.3-.6.6-.9 1-.4.5-.7 1-.9 1.6-.2.5-.3 1-.5 1.4-.1.3-.2.7-.2 1 0 .3 0 .6 0 .9s0 .6.1.9c.2.7.4 1.3.7 1.9.4.6.8 1.2 1.3 1.8.3.3.7.6 1 .9.4.4.9.6 1.4.8.5.2 1 .3 1.5.4s.9.1 1.4.2c.3 0 .7 0 1 0 .2 0 .4 0 .5 0s.3 0 .4 0c-.2.2-.4.3-.5.5-.4.6-.6 1.2-.6 1.9 0 .4.1.7.2 1.1.2.5.4 1 .7 1.3.3.3.7.5 1.2.7.7.3 1.4.4 2.2.4.5 0 1 0 1.5 0 .6 0 1.1-.2 1.7-.4.8-.3 1.6-.7 2.4-1.2.7-.5 1.5-1 2.1-1.6.4-.3.7-.7 1-1 .4-.5.7-.9 1.1-1.4.4-.6.7-1.3.9-1.9.2-.6.4-1.3.5-1.9.1-.5.1-.9.2-1.4 0-.3 0-.6 0-.9 0-.4-.1-.8-.2-1.1-.2-.7-.5-1.4-.8-2.1-.2-.3-.3-.6-.5-.9-.3-.5-.6-.9-.9-1.4-.2-.3-.5-.6-.7-.9-.2-.3-.5-.5-.7-.8-.2-.2-.3-.2-.2-.5.5-1.5 1-3 1.6-4.5.3-.5.4-.7.5-.9z" class="st0"/><path d="M-3142.8 1655.6c-.1.2-.2.4-.3.6-.6 1.5-1.1 3-1.6 4.5-.1.3-.1.3.2.5.3.2.5.5.7.8.3.3.5.6.7.9.3.4.6.9.9 1.4.2.3.3.6.5.9.3.7.6 1.4.8 2.1.1.4.1.8.2 1.1 0 .3 0 .6 0 .9 0 .5-.1.9-.2 1.4-.1.7-.3 1.3-.5 1.9-.2.7-.5 1.3-.9 1.9-.3.5-.7 1-1.1 1.4-.3.4-.7.7-1 1-.6.6-1.4 1.1-2.1 1.6-.7.5-1.5.9-2.4 1.2-.5.2-1.1.4-1.7.4-.5 0-1 .1-1.5 0-.7 0-1.5-.1-2.2-.4-.4-.2-.8-.4-1.2-.7-.4-.4-.6-.8-.7-1.3-.1-.3-.2-.7-.2-1.1 0-.7.2-1.3.6-1.9.1-.2.3-.3.5-.5-.1 0-.3 0-.4 0-.2 0-.4 0-.5 0-.3 0-.7 0-1 0-.5 0-.9-.1-1.4-.2-.5-.1-1-.2-1.5-.4s-1-.4-1.4-.8c-.3-.3-.7-.6-1-.9-.5-.5-1-1.1-1.3-1.8-.3-.6-.6-1.2-.7-1.9-.1-.3-.1-.6-.1-.9 0-.3 0-.6 0-.9 0-.4.1-.7.2-1 .1-.5.3-1 .5-1.4.2-.6.5-1.1.9-1.6.3-.4.6-.7.9-1 .4-.3.8-.6 1.2-.9.6-.3 1.2-.7 1.8-1 .3-.2.6-.4.9-.5-.2-.5-.4-1.1-.6-1.6-.2-.6-.3-1.2-.4-1.8s-.1-1.3-.1-1.9c0-.7.2-1.3.5-2 .3-.6.6-1.1 1-1.6s.9-1 1.5-1.4c.4-.3.8-.5 1.2-.7.4-.2.9-.3 1.3-.4.5-.1 1.1-.2 1.6-.1.5 0 1 .1 1.5.2s.9.3 1.3.5c.9.5 1.4 1.1 1.7 2.1.1.4.1.9.1 1.3 0 .7-.3 1.4-.7 2-.4.6-.8 1.2-1.1 1.8-.1.1-.1.2-.2.2-.1.1 0 .1 0 .2.2.3.4.6.7.8.3.4.7.8 1 1.2.1.1.2.3.4.4.4.4.8.8 1.2 1.2.1.1.2.2.3.2.2-.5.3-.9.5-1.4.4-1.1.8-2.1 1.1-3.2.2-.5.4-1.1.6-1.6.1-.3.3-.5.5-.8.4-.5.8-.9 1.4-1.2.4-.2.8-.3 1.2-.3.2 0 .4-.1.6 0 .6 0 1.1.1 1.6.4.6.3 1.1.6 1.5 1.1.4.4.6 1 .8 1.5.1.6 0 1.3-.2 1.8s-.5.9-.9 1.2c-.4.4-1 .6-1.5.7-.4.1-.8.1-1.2.1-.7 0-1.4-.3-1.9-.9-.3-.4-.5-.9-.6-1.4-.3.2-.3.1-.3 0zm-14.2 5.2c-.1 0-.1 0 0 0-.8.5-1.2 1.2-1.2 2 0 .2 0 .3 0 .5 0 .1 0 .2 0 .3.1.3.1.5.2.8.1.6.3 1.3.6 1.9.3.5.6 1 1 1.4.2.2.4.4.7.6.3.3.7.6 1 .8.9.6 2 .8 3.1.7.5-.1 1-.2 1.5-.5.1-.1.3-.2.4-.3-.1-.1-.2-.2-.2-.3-.3-.4-.7-.8-1-1.2-.2-.2-.3-.4-.5-.6-.3-.4-.7-.8-1-1.2-.2-.3-.5-.5-.7-.8-.4-.4-.7-.8-1.1-1.2-.3-.3-.5-.5-.7-.8-.4-.4-.8-.8-1.1-1.2-.1-.1-.3-.3-.4-.5-.3 0-.4-.2-.6-.4zm7.1 17.7c.1 0 .2 0 .2-.1.3-.2.6-.4.9-.7.5-.4.9-.9 1.1-1.5.2-.4.3-.9.3-1.4 0-.3 0-.6-.1-.8-.1-.5-.2-1-.3-1.4-.2-.8-.6-1.6-1.1-2.4-.2.4-.5.6-.7.9-.2.2-.5.4-.7.6-.3.2-.6.5-.9.7-.4.3-.9.6-1.3.9.2.1.4.1.6.2.4.2.7.4 1.1.7.4.3.7.7.9 1.2.1.3.2.7.2 1 0 .4 0 .7-.1 1.1.1.3 0 .7-.1 1zm-.7-23.9c.2-.2.3-.4.5-.6.3-.4.5-.8.7-1.2.2-.4.2-.8.2-1.3-.1-.5-.2-.9-.5-1.3-.2-.3-.4-.6-.7-.8-.4-.3-.9-.2-1.2.3-.1.2-.2.5-.2.8 0 .6 0 1.2.1 1.8.1.4.2.9.4 1.2.2.4.4.7.7 1.1z" class="st1"/><path d="M-3157 1660.8c.2.2.3.4.5.6.1.2.3.3.4.5.4.4.8.8 1.1 1.2.3.3.5.5.7.8.4.4.7.8 1.1 1.2.2.3.5.5.7.8.3.4.7.8 1 1.2.2.2.3.4.5.6.3.4.7.8 1 1.2.1.1.1.2.2.3-.1.1-.3.2-.4.3-.5.3-1 .4-1.5.5-1.1.1-2.1-.1-3.1-.7-.4-.2-.7-.5-1-.8-.2-.2-.5-.4-.7-.6-.4-.4-.8-.9-1-1.4-.3-.6-.5-1.2-.6-1.9-.1-.3-.1-.5-.2-.8 0-.1 0-.2 0-.3 0-.2 0-.3 0-.5.1-1 .5-1.7 1.3-2.2-.1 0-.1 0 0 0zM-3149.9 1678.5c.1-.3.2-.7.2-1 .1-.4.1-.7.1-1.1 0-.3-.1-.7-.2-1-.2-.5-.5-.8-.9-1.2-.3-.3-.7-.5-1.1-.7-.2-.1-.4-.1-.6-.2.4-.3.8-.6 1.3-.9.3-.2.6-.5.9-.7.2-.2.5-.4.7-.6.3-.3.6-.5.7-.9.5.8.8 1.5 1.1 2.4.1.5.2 1 .3 1.4.1.3.1.6.1.8 0 .5-.1.9-.3 1.4-.3.6-.6 1.1-1.1 1.5-.3.3-.6.5-.9.7-.1.1-.2.1-.3.1zM-3150.6 1654.6c-.2-.4-.5-.7-.7-1.1-.2-.4-.3-.8-.4-1.2-.1-.6-.1-1.2-.1-1.8 0-.3 0-.5.2-.8.2-.5.7-.6 1.2-.3.3.2.5.5.7.8.2.4.4.8.5 1.3 0 .4 0 .9-.2 1.3s-.4.8-.7 1.2c-.2.2-.4.4-.5.6z" class="st0"/><path id="SVGID_1_" d="M-3209.9 1686.6c2.2 0 3.5.6 4.1 2.1 1 2.5-.6 4.8-2.4 5.3-2.7.7-5.2-2-4.3-4.8.3-.8.9-1.7 1.6-2.1.2-.3.7-.3 1-.5zm37.1 0c.1.8.2 1.5.3 2.3-.1 0-.2 0-.3 0-.1-1.2-1-1.9-2.3-1.8-.5.4-.7.4-.7 1.4h.1c.3 1 1.9 1.4 2.7 2 .4.3.5.7.8 1 0 1.5-.3 2-1.5 2.4-.2.1-.7.3-1 .2-.3-.1-1.3-.5-1.5-.3-.1 0-.2.1-.3.1 0 .1 0 .2 0 .3-.1 0-.2 0-.3 0-.1-.8-.2-1.6-.3-2.3.1 0 .2 0 .3 0v.1c.9.9.8 1.8 2.7 1.8.3-.3.6-.3.7-.7.2-.2.2-.4.2-.8-.1-.3-.3-.5-.4-.8-.8-.7-2.3-1-2.9-2-.2-.4-.3-1.4 0-1.7.5-1.6 2.2-.8 3.5-.7-.1-.4-.1-.4.2-.5zm8.3 0c1.1 0 1.7.3 2.7.3.1-.2.2-.3.4-.3v.1c.3.4.1 1.8.2 2.3-.1 0-.2 0-.3 0v-.1c-.4-.5-.5-1.2-1-1.6-2-1.3-3.5.6-3.9 2.2-.4 1.8.5 3.3 1.5 3.8 1.3.6 3.1-.1 3.5-.9l.1.1c.1 0 .1.1.2.1l-.1.1c-.7 1.1-2.8 1.7-4.4 1-1.3-.5-2.6-2.3-2-4.4.3-1.1 1.1-2.1 2.1-2.5.3-.1.7 0 1-.2zm7.1 0c.2 0 .2 0 .3.1.5.7.7 1.6 1 2.4.4.9.9 1.8 1.3 2.7.3.6.4 1.5 1 1.7.1.1.1.1.3.1 0 .1 0 .2 0 .3-.9 0-1.8 0-2.8 0 0-.1 0-.1 0-.2.5-.1.8 0 .8-.7-.2-.5-.4-1-.6-1.5-1 0-1.9 0-2.9 0-.3.6-.6 1.3-.5 2 .2.1.5.1.7.2 0 .1 0 .1 0 .2-.7 0-1.4 0-2.2 0 0-.1 0-.1 0-.2.9-.4.9-1 1.3-1.8.5-1.1 1-2.3 1.5-3.5.2-.5.7-1.1.8-1.8zm34.1 0c1.1 0 1.7.3 2.7.3.1-.2.2-.3.4-.3v.1c.3.4.1 1.8.2 2.3-.1 0-.2 0-.3 0v-.1c-.4-.5-.5-1.2-1-1.6-2-1.3-3.5.6-3.9 2.2-.4 1.8.5 3.3 1.5 3.8 1.3.6 3.1-.1 3.5-.9l.1.1c.1 0 .1.1.2.1l-.1.1c-.7 1.1-2.8 1.7-4.4 1-1.3-.5-2.6-2.3-2-4.4.3-1.1 1.1-2.1 2.1-2.5.3-.1.7 0 1-.2zm10.3 0c2.2 0 3.5.6 4.1 2.1 1 2.5-.6 4.8-2.4 5.3-2.7.7-5.2-2-4.3-4.8.3-.8.9-1.7 1.6-2.1.2-.3.7-.3 1-.5zm23.5 0c.1.8.2 1.5.3 2.3-.1 0-.2 0-.3 0-.1-1.2-1-1.9-2.3-1.8-.5.4-.7.4-.7 1.4h.1c.3 1 1.9 1.4 2.7 2 .4.3.5.7.8 1 0 1.5-.3 2-1.5 2.4-.2.1-.7.3-1 .2-.3-.1-1.3-.5-1.5-.3-.1 0-.2.1-.3.1 0 .1 0 .2 0 .3-.1 0-.2 0-.3 0-.1-.8-.2-1.6-.3-2.3.1 0 .2 0 .3 0v.1c.9.9.8 1.8 2.7 1.8.3-.3.6-.3.7-.7.2-.2.2-.4.2-.8-.1-.3-.3-.5-.4-.8-.8-.7-2.3-1-2.9-2-.2-.4-.3-1.4 0-1.7.5-1.6 2.2-.8 3.5-.7-.1-.4-.1-.4.2-.5zm8.8 0c.1.8.2 1.5.3 2.3-.1 0-.2 0-.3 0-.1-1.2-1-1.9-2.3-1.8-.5.4-.7.4-.7 1.4h.1c.3 1 1.9 1.4 2.7 2 .4.3.5.7.8 1 0 1.5-.3 2-1.5 2.4-.2.1-.7.3-1 .2-.3-.1-1.3-.5-1.5-.3-.1 0-.2.1-.3.1 0 .1 0 .2 0 .3-.1 0-.2 0-.3 0-.1-.8-.2-1.6-.3-2.3.1 0 .2 0 .3 0v.1c.9.9.8 1.8 2.7 1.8.3-.3.6-.3.7-.7.2-.2.2-.4.2-.8-.1-.3-.3-.5-.4-.8-.8-.7-2.3-1-2.9-2-.2-.4-.3-1.4 0-1.7.5-1.6 2.2-.8 3.5-.7-.1-.4-.1-.4.2-.5zm-151.4.1c1 0 2 0 3 0 0 .1 0 .2 0 .3-.4 0-.5.1-.8.2-.4.9-.3 5.4.3 6 .7.7 2 .3 2.9.1.7-1.2.8-4.2.4-6-.1 0-.2-.1-.3-.1-.2-.1-.3-.2-.6-.2 0-.1 0-.2 0-.3.8 0 1.7 0 2.5 0 0 .1 0 .2 0 .3-.3 0-.5.1-.7.2-1.2 2.2.9 5.6-1.8 6.7-.4.2-1.1.4-1.7.3-.4-.1-1-.2-1.3-.4-1.1-.7-1-2.4-1-4.2 0-.8.2-2-.3-2.3-.2-.1-.4-.2-.7-.2.1-.2.1-.3.1-.4zm7.7 0c.6 0 1.3 0 1.9 0 .2.6.8.9 1.1 1.4.7.9 2.1 3.1 3 3.7 0-1.4 0-2.8 0-4.2-.1-.2-.2-.4-.3-.5-.2-.1-.4-.2-.7-.2 0-.1 0-.2 0-.3.8 0 1.7 0 2.5 0 0 .1 0 .2 0 .3-.4 0-.6.1-.8.3-.3.4-.2 1.3-.2 1.9 0 1.6 0 3.2 0 4.8-.1 0-.2 0-.3 0-.8-1.3-2-2.3-2.9-3.5-.5-.7-1.1-1.8-1.8-2.3 0 1.6 0 3.2 0 4.8.1.1.1.1.1.3.3.2.6.3 1 .4 0 .1 0 .1 0 .2-.9 0-1.7 0-2.6 0 0-.1 0-.1 0-.2l.1-.1c.4 0 .6-.1.8-.3.3-.3.2-1.1.2-1.6 0-1.4.2-3.1-.1-4.3-.3-.2-.4-.3-1-.3 0-.1 0-.2 0-.3zm8 0c1.1 0 2.1 0 3.2 0 0 .1 0 .2 0 .3-.4 0-.6.1-.9.2-.5 1.1-.2 3.3-.2 4.7 0 .6-.1 1.3.2 1.6.2.2.6.2.9.3 0 .1 0 .1 0 .2-1.1 0-2.1 0-3.2 0 0-.1 0-.1 0-.2l.1-.1c.5 0 .7 0 .9-.3.2-.3.1-1 .1-1.4 0-1 .2-4.4-.3-4.8-.2-.2-.4-.2-.8-.2 0-.1 0-.2 0-.3zm10.9 0c.6 0 1.3 0 1.9 0 .2.6.8.9 1.1 1.4.7.9 2.1 3.1 3 3.7 0-1.4 0-2.8 0-4.2-.1-.2-.2-.4-.3-.5-.2-.1-.4-.2-.7-.2 0-.1 0-.2 0-.3.8 0 1.7 0 2.5 0 0 .1 0 .2 0 .3-.4 0-.6.1-.8.3-.3.4-.2 1.3-.2 1.9 0 1.6 0 3.2 0 4.8-.1 0-.2 0-.3 0-.8-1.3-2-2.3-2.9-3.5-.5-.7-1.1-1.8-1.8-2.3 0 1.6 0 3.2 0 4.8.1.1.1.1.1.3.3.2.6.3 1 .4 0 .1 0 .1 0 .2-.9 0-1.7 0-2.6 0 0-.1 0-.1 0-.2l.1-.1c.4 0 .6-.1.8-.3.3-.3.2-1.1.2-1.6 0-1.4.2-3.1-.1-4.3-.3-.2-.4-.3-1-.3 0-.1 0-.2 0-.3zm10.7 0c.7 0 1.4 0 2.1 0 .8 1.8 1.7 3.6 2.5 5.4h.1c.1-1.1 1.2-2.6 1.6-3.6.1-.3.5-1.6.7-1.7.7 0 1.4 0 2.2 0 0 .1 0 .2 0 .3-.4 0-.5.1-.8.2-.4 1-.3 5.1-.1 6.2.2.1.5.2.9.3 0 .1 0 .1 0 .2-1 0-2 0-3 0 0-.1 0-.1 0-.2l.1-.1c.4 0 .5-.1.8-.2.2-1.7.1-3.7.1-5.5h-.1c0 .1 0 .1 0 .2-.4.4-.5 1-.7 1.6-.6 1.4-1.3 2.9-2 4.2-.1 0-.1 0-.2 0-.5-2.1-2.1-3.7-2.6-5.8h-.1c0 1.6 0 3.2 0 4.8.1.1.1.1.1.3.3.2.6.3 1 .4 0 .1 0 .1 0 .2-.9 0-1.7 0-2.6 0 0-.1 0-.1 0-.2l.1-.1c.4 0 .6-.1.8-.3.3-.3.2-1.1.2-1.6 0-1.4 0-2.9 0-4.3-.1-.1-.2-.1-.3-.2-.2-.1-.4-.2-.7-.2-.1-.1-.1-.2-.1-.3zm9.6 0c1 0 2 0 3 0 0 .1 0 .2 0 .3-.4 0-.5.1-.8.2-.4.9-.3 5.4.3 6 .7.7 2 .3 2.9.1.7-1.2.8-4.2.4-6-.1 0-.2-.1-.3-.1-.2-.1-.3-.2-.6-.2 0-.1 0-.2 0-.3.8 0 1.7 0 2.5 0 0 .1 0 .2 0 .3-.3 0-.5.1-.7.2-1.2 2.2.9 5.6-1.8 6.7-.4.2-1.1.4-1.7.3-.4-.1-1-.2-1.3-.4-1.1-.7-1-2.4-1-4.2 0-.8.2-2-.3-2.3-.2-.1-.4-.2-.7-.2.1-.2.1-.3.1-.4zm13.8 0c1.1 0 2.1 0 3.2 0 0 .1 0 .2 0 .3-.4 0-.6.1-.9.2-.5 1.1-.2 3.3-.2 4.7 0 .6-.1 1.3.2 1.6.2.2.6.2.9.3 0 .1 0 .1 0 .2-1.1 0-2.1 0-3.2 0 0-.1 0-.1 0-.2l.1-.1c.5 0 .7 0 .9-.3.2-.3.1-1 .1-1.4 0-1 .2-4.4-.3-4.8-.2-.2-.4-.2-.8-.2 0-.1 0-.2 0-.3zm18.1 0c1 0 2.1 0 3.1 0 0 .1 0 .2 0 .3-.4 0-.6.1-.9.2-.4 1-.3 5-.1 6.2.1 0 .1 0 .2 0 .9.6 3.1-.2 3.4-.6.3-.4.2-.7.7-.8 0 .1 0 .1 0 .2-.3.4-.5 1.2-.5 1.7-2 0-3.9 0-5.9 0 0-.1 0-.1 0-.2l.1-.1c.5 0 .6 0 .8-.3.2-.3.1-1.2.1-1.6 0-1.4.2-3.2-.1-4.5-.1 0-.1 0-.2 0-.2-.1-.4-.2-.7-.2 0-.1 0-.2 0-.3zm9 0c1.9 0 3.9 0 5.8 0 0 .5 0 1 0 1.6-.1 0-.2 0-.3 0 0-.4-.2-.8-.5-1-.5-.4-1.9-.2-2.8-.2-.3.6-.2 1.9-.2 2.8.9 0 2.4.2 2.7-.4.1-.2.2-.3.2-.6.1 0 .2 0 .3 0 0 .8 0 1.7 0 2.5-.1 0-.2 0-.3 0 0-.4-.1-.7-.4-.9-.5-.3-1.7-.2-2.4-.2 0 1-.1 2.2.1 3 .1 0 .1 0 .2 0 .6.4 2.5.1 2.9-.2.5-.3.5-1 1.1-1.1v.1c-.3.4-.2 1.2-.5 1.6-.3.2-1.2.1-1.6.1-1.4 0-2.8 0-4.2 0 0-.1 0-.1 0-.2l.1-.1c.5 0 .6 0 .8-.3.2-.3.1-1.2.1-1.6 0-1.4.2-3.2-.1-4.5-.1 0-.1 0-.2 0-.2-.1-.4-.2-.7-.2-.1 0-.1-.1-.1-.2zm6.7 0c3.4-.1 6.1-.1 7 2.3.1.4.4 1.1.3 1.7-.8 3.3-3.2 3.2-7.3 3.1 0-.1 0-.1 0-.2l.1-.1c.5 0 .7-.1.8-.4.2-.3.1-1 .1-1.4 0-1 .2-4.3-.3-4.7-.2-.1-.4-.2-.7-.3 0 .2 0 .1 0 0zm7.6 0c1.1 0 2.1 0 3.2 0 0 .1 0 .2 0 .3-.4 0-.6.1-.9.2-.5 1.1-.2 3.3-.2 4.7 0 .6-.1 1.3.2 1.6.2.2.6.2.9.3 0 .1 0 .1 0 .2-1.1 0-2.1 0-3.2 0 0-.1 0-.1 0-.2l.1-.1c.5 0 .7 0 .9-.3.2-.3.1-1 .1-1.4 0-1 .2-4.4-.3-4.8-.2-.2-.4-.2-.8-.2 0-.1 0-.2 0-.3zm10.7 0c1.1 0 2.1 0 3.2 0 0 .1 0 .2 0 .3-.4 0-.6.1-.9.2-.5 1.1-.2 3.3-.2 4.7 0 .6-.1 1.3.2 1.6.2.2.6.2.9.3 0 .1 0 .1 0 .2-1.1 0-2.1 0-3.2 0 0-.1 0-.1 0-.2l.1-.1c.5 0 .7 0 .9-.3.2-.3.1-1 .1-1.4 0-1 .2-4.4-.3-4.8-.2-.2-.4-.2-.8-.2 0-.1 0-.2 0-.3zm10.6 0c.6 0 1.3 0 1.9 0 .2.6.8.9 1.1 1.4.7.9 2.1 3.1 3 3.7 0-1.4 0-2.8 0-4.2-.1-.2-.2-.4-.3-.5-.2-.1-.4-.2-.7-.2 0-.1 0-.2 0-.3.8 0 1.7 0 2.5 0 0 .1 0 .2 0 .3-.4 0-.6.1-.8.3-.3.4-.2 1.3-.2 1.9 0 1.6 0 3.2 0 4.8-.1 0-.2 0-.3 0-.8-1.3-2-2.3-2.9-3.5-.5-.7-1.1-1.8-1.8-2.3 0 1.6 0 3.2 0 4.8.1.1.1.1.1.3.3.2.6.3 1 .4 0 .1 0 .1 0 .2-.9 0-1.7 0-2.6 0 0-.1 0-.1 0-.2l.1-.1c.4 0 .6-.1.8-.3.3-.3.2-1.1.2-1.6 0-1.4.2-3.1-.1-4.3-.3-.2-.4-.3-1-.3 0-.1 0-.2 0-.3zm7.8 0c1.9 0 3.9 0 5.8 0 0 .5 0 1 0 1.6-.1 0-.2 0-.3 0 0-.4-.2-.8-.5-1-.5-.4-1.9-.2-2.8-.2-.3.6-.2 1.9-.2 2.8.9 0 2.4.2 2.7-.4.1-.2.2-.3.2-.6.1 0 .2 0 .3 0 0 .8 0 1.7 0 2.5-.1 0-.2 0-.3 0 0-.4-.1-.7-.4-.9-.5-.3-1.7-.2-2.4-.2 0 1-.1 2.2.1 3 .1 0 .1 0 .2 0 .6.4 2.5.1 2.9-.2.5-.3.5-1 1.1-1.1v.1c-.3.4-.2 1.2-.5 1.6-.3.2-1.2.1-1.6.1-1.4 0-2.8 0-4.2 0 0-.1 0-.1 0-.2l.1-.1c.5 0 .6 0 .8-.3.2-.3.1-1.2.1-1.6 0-1.4.2-3.2-.1-4.5-.1 0-.1 0-.2 0-.2-.1-.4-.2-.7-.2-.1 0-.1-.1-.1-.2zm23.7 0c1 0 2.1 0 3.1 0 0 .1 0 .2 0 .3-.4 0-.6.1-.9.2-.4 1-.3 5-.1 6.2.1 0 .1 0 .2 0 .9.6 3.1-.2 3.4-.6.3-.4.2-.7.7-.8 0 .1 0 .1 0 .2-.3.4-.5 1.2-.5 1.7-2 0-3.9 0-5.9 0 0-.1 0-.1 0-.2l.1-.1c.5 0 .6 0 .8-.3.2-.3.1-1.2.1-1.6 0-1.4.2-3.2-.1-4.5-.1 0-.1 0-.2 0-.2-.1-.4-.2-.7-.2 0-.1 0-.2 0-.3zm-132.2.3c-.2.1-.5.1-.7.2-.5.6-1 .9-1.3 1.8-.2.6-.1 1.7 0 2.3.4 1.6.7 2.5 2.8 2.4.6-.5 1.2-.7 1.6-1.5.2-.5.1-1 .2-1.6.3-1.9-.7-3.6-2.6-3.6zm96.9 0c-.2.1-.5.1-.7.2-.5.6-1 .9-1.3 1.8-.2.6-.1 1.7 0 2.3.4 1.6.7 2.5 2.8 2.4.6-.5 1.2-.7 1.6-1.5.2-.5.1-1 .2-1.6.3-1.9-.7-3.6-2.6-3.6zm-22.8.1c-.4.8-.2 4.8-.2 6.1.1.1 0 0 .1.2.2 0 .3 0 .5 0 .1 0 .7 0 1-.1 1.5-.4 2-.8 2.3-2.3.1-.3.2-1 .1-1.4-.5-1.7-1.6-2.5-3.8-2.5zm-22.3 1.1c-.4 1-.8 2-1.2 2.9.8 0 1.7 0 2.5 0v-.1c-.7-.7-.6-2.1-1.3-2.8zm78 4.6c.2 0 .4 0 .6 0 .2.3.3.3.3.9-.3.2-.3.3-.9.3-.1-.1 0 0-.2-.1 0-.1 0-.1 0-.2-.2-.3 0-.5.2-.9zm9.8 0c.2 0 .4 0 .6 0 .2.3.3.3.3.9-.3.2-.3.3-.9.3-.1-.1 0 0-.2-.1 0-.1 0-.1 0-.2-.2-.3 0-.5.2-.9z" class="st0"/><defs><path id="SVGID_2_" d="M-1602 874c0 .6-.3 1.1-.4 1.5-.5 1.4-.7 2.6-1.1 4-.3.8-.7 1.6-.8 2.4.1 0 .1 0 .2-.1 1.1-1.1 1.9-3.3 4.3-2.7 1.4 2-.7 5.7-2 6.6-.7.5-1.8.7-1.7-.6.3-.2.3-.3.8-.3.2.2.3.2.7.2.8-1.2 1.7-2.8 1.5-4.7-.3-.2-.3-.3-.8-.3-.2.2-.4.2-.6.3-1 .7-2 2.4-2.7 3.5-.3.5-.7 2.1-1.1 2.2-.1.1-.1.1-.3.1-.3-.2-.4-.1-.4-.6.4-.6.6-2.3.9-3.1.5-1.6.9-3.2 1.5-5 .2-.7.6-1.6.4-2.5-.1 0-.1 0-.2-.1-.2-.1-.4-.1-.6-.1 0-.2 0-.3.2-.4.2-.1 1.8-.3 2.2-.3zm-12.6.4c0 .3 0 .4.2.6.4.3 1.6.1 2.2.1 1.6 0 3.3 0 4.9 0 .7-.2.5-.6 1.3-.6 0 1-.4 1.8-.6 2.7-.2 0-.3 0-.5 0 0 0 0 0-.1-.1 0-.4 0-.7-.1-1-.6-.4-1.4-.4-2.4-.3-.8 1.5-1 3.6-1.6 5.3-.4 1.1-1.1 2.7-1.1 4 .3.2.8.3 1.3.3 0 .2 0 .4-.1.6-1.3 0-2.9 0-4.3 0 0-.1-.1-.2-.1-.4.1-.1 0 0 .1-.1.3-.1.8-.1 1.1-.1.9-1.2 1.1-3 1.6-4.6.4-1.1.6-2.2 1-3.4.1-.4.4-.9.4-1.5-.7-.2-1.8-.1-2.7-.1-.2.1-.6.2-.8.2-.2.4-.4.8-1 .8 0-.5.4-2.1.7-2.4.2 0 .3 0 .6 0zm132.5 4c-.2 0-.4-.1-.6-.1 0-.1 0-.2 0-.3.3-.4-.1-1-.2-1.3-.5-.7-2.1-1.5-3.6-1.1-2.4.6-3.6 1.9-4.3 4.2-.2.5-.5 1.5-.3 2.3.3 1.4 1 2.6 2.2 3.1 2.8 1.2 4.5-.9 4.5-3.3-.4-.2-1.4 0-1.8-.3-.1-.1-.1-.1-.1-.3.1-.1 0-.1.1-.2 1.5 0 3 0 4.5 0 0 .2 0 .4-.1.5-.3.1-.7.2-1 .3-.6 1.1-.8 2.5-1.3 3.8-1.2.2-2.8.8-4.3.4-3.1-.8-5.5-3.8-3.8-7.5 1-2.1 3.1-3.1 5.7-3.7 1.6-.3 3.2.4 4 .8.4.2.9.3 1 .9-.4.4-.5 1.3-.6 1.8zm-73.6-3.4c1 0 2.1 0 3.1 0 0 .7 0 1.5 0 2.2-1 0-2.1 0-3.1 0 0-.7 0-1.5 0-2.2zm25.9 3.4c-1.1 0-2.2 0-3.4 0-.1-.5-.4-.5-.7-.8-.6-.1-1.1 0-1.6.1-.1.2-.1.2-.1.5 1.9 1.7 5.2.7 6 3.7.1.3.2 1 .1 1.3-.1.3-.2.7-.3 1-1.8 3.1-9.1 2.5-9.4-1.7 1.1 0 2.3 0 3.4 0 .2 1.2 1.5 1.2 2.6.9.2-.3.3-.3.3-.7-1.9-1.7-5.2-.6-6-3.7-.1-.3-.2-1-.1-1.4.1-.3.2-.8.4-1 1.8-2.7 8.6-2.1 8.8 1.8zm-58.6-3.1c1.4 0 2.8 0 4.3 0 0 0 0 .1 0 .1.6 2 1.2 4 1.7 6 .1 0 .1 0 .2 0 0-.5.3-1 .4-1.5.2-.7.3-1.3.5-2 .3-.8.6-1.7.8-2.7 1.4 0 2.8 0 4.3 0 0 3.6 0 7.1 0 10.7-1 0-2.1 0-3.1 0 0-1.9 0-3.8.1-5.6-.1 0-.1 0-.2 0-.5 1.9-1 3.7-1.5 5.6-.8 0-1.7 0-2.5 0-.5-1.8-1-3.6-1.5-5.4-.1 0-.1 0-.2 0 0 1.8 0 3.6.1 5.4-1.1 0-2.1 0-3.2 0-.2-3.5-.2-7.1-.2-10.6zm69.7 0c1 0 2.1 0 3.1 0 0 3.6 0 7.1 0 10.7-1 0-2.1 0-3.1 0 0-3.6 0-7.2 0-10.7zm64.3 4c.8 0 1.6-.2 2.5-.1.3.4.7.6.8 1.2.2.7-.1 1.5-.3 1.9-.6 1.6-1.7 3.2-3.3 3.7-.6.2-1.1 0-1.7-.1-.1 1.2-.8 2.1-.9 3.3.3.2.7.3 1.1.4 0 .1 0 .2-.1.3-1.2 0-2.1 0-3.4 0 0-.1 0-.3 0-.4.4-.1.8-.1 1-.4.5-.6.5-1.7.8-2.4.5-1.3.7-2.7 1.2-4 .2-.7.5-1.4.6-2.2-.7 0-1.2.5-1.8.6 0 0 0-.1 0-.1-.1-.1-.1-.3-.1-.3.5-.5 1.4-.6 2.1-.9.2-.5.2-1.4.6-1.7.2-.2.5-.1.8-.1 0 .1.1.2.1.4.1.2.1.6 0 .9zm-103 1.1c-.9 0-1.9 0-2.8 0-.1-.3-.2-.5-.5-.6-.3-.2-.7-.1-1 0-.1.2-.2.2-.2.5 1.5.9 5.8.8 4.8 3.8-.1.2-.3.6-.4.8-1 1.4-4.9 1.6-6.5.6-.6-.4-1.1-1.1-1.1-2.1 1 0 2 0 3 0 0 .2 0 .3.1.3.1.3.3.4.5.6.4 0 .7.1 1-.1.3-.1.4-.3.4-.7-1.5-.9-5.5-.7-4.7-3.7.1-.2.3-.6.4-.8 1.3-1.8 7-1.5 7 1.4zm14.8.7c-1.1 0-2.1 0-3.2 0 0-.5-.2-.7-.5-.9-.3-.2-.8-.1-1.1-.1-.2.2-.3.3-.5.5-.4.6-.4 2.2 0 2.8.2.2.3.3.5.5.4 0 .7 0 1.1 0 .3-.3.5-.5.6-1 1.1 0 2.1 0 3.2 0-.3 2.7-3.5 4.2-6.4 2.9-1.2-.5-2-1.5-2.3-2.9-.1-.5 0-1.3.1-1.7.4-1.6 1.1-2.6 2.7-3.1 2.7-.9 5.6.5 5.8 3zm22.9 4.9c-1.1 0-2.2 0-3.3 0 0-.2 0-.5-.1-.7-.6.1-1.1.7-1.8.8-2.1.5-4.6-.8-3.8-3.2.4-1.2 1.8-1.4 3.1-1.7.9-.2 2.1.1 2.2-.9-.1-.1-.2-.2-.3-.3-.3-.3-1.1-.1-1.5 0 0 .1-.2.5-.3.6-1 0-2 0-3 0 .1-1.6 1-2.2 2.4-2.5.4 0 .7 0 1.1-.1.4-.1 1.1-.1 1.5 0 1 .2 1.7.1 2.3.6 1.1.8.8 3.2.8 5.1 0 .5 0 1.1 0 1.6.4.3.6.2.7.7zm14.4-3.3c-1.9 0-3.9 0-5.8 0 0 .8.5 1 .9 1.4.6 0 1.1.1 1.5-.3.1-.1.1-.2.2-.3 1 0 2 0 3 0 0 0 0 .1 0 .1-.1.2-.1.5-.3.7-.5.8-1.3 1.3-2.2 1.6-3.5 1.1-7.3-1.4-6.1-5.2.7-2.1 3.5-3.7 6.3-2.5 1.5.7 2.5 2.3 2.5 4.5zm8.6-2.3c-1 0-1.9 0-2.9 0 0-.2-.1-.3-.1-.5-.3-.2-.5-.3-1-.3-.2.2-.4.1-.5.3-.1.2 0 .2 0 .4 1.7.5 5.5.9 4.7 3.6-.1.2-.2.6-.3.8-1.5 2-7.7 2-7.7-1.4 1 0 2 0 2.9 0 .1.4.1.7.5.8.2.2.8.3 1.1.1.3-.1.4-.3.3-.8-1.4-.8-5.4-.7-4.7-3.4.1-.3.2-.7.3-.9 1.6-1.9 7.4-1.7 7.4 1.3zm-78-2.3c1 0 2.1 0 3.1 0 0 1.3-.3 5.1.6 5.4.3.3.8.1 1.1 0 .7-1.2.5-3.6.5-5.4 1 0 2.1 0 3.1 0 0 2.6 0 5.2 0 7.8-1 0-2 0-2.9 0 0-.3 0-.6 0-.8-.1 0-.1 0-.2 0-.9 1.3-3.8 1.4-4.7.1-1-1.3-.6-4.9-.6-7.1zm19 0c1 0 2.1 0 3.1 0 0 2.6 0 5.2 0 7.8-1 0-2.1 0-3.1 0 0-2.6 0-5.2 0-7.8zm-39.1 1c1 0 2-.1 2.2.6.3.4.2 1 0 1.3-.5.9-1.5 1.2-2.6 1.5-.5.1-1 .1-1.5.2-.1.1-.1.3-.1.5-.6.9.6 2.2 1.6 2 .6-.2.9-.7 1.5-.8.1.1 0 0 .1.1 0 .1 0 .1.1.1-.4 1.2-3.2 2.4-4.3 1-1.3-1.8.2-4.9 1.4-5.8.6-.3 1.2-.4 1.6-.7zm116.9 2.2c.1 0 .1 0 .2 0 .3-1 1.2-1.6 1.8-2.2.5 0 .9 0 1 .3.1.1.1.3.1.6-.1.2-.2.3-.3.4-.5.4-.8-.1-1.3-.1-.1.2-.4.4-.6.6-.7 1.1-1.2 2.4-1.7 3.7-.2.6-.3 1.6-1.1 1.6-.1-.1-.2-.1-.3-.1 0-.1-.1-.2-.1-.4.3-.4.3-1 .5-1.5.4-1 1-2.2.8-3.6-.2-.1-.2-.2-.6-.2-.3.3-.5.5-.8.9-.1 0-.1 0-.1-.1-.2 0-.2-.1-.3-.1 0-.1 0-.1.1-.2.7-.8.7-1.8 2.2-1.7.6.7.6.9.5 2.1zm6.9-2.2c.6 0 1.3-.1 1.7.1 1.1.5 1.9 2.1 1.3 3.8-.4 1.1-1 2-2 2.6-.5.3-1.3.8-2.2.6-2.9-.7-2.2-4.2-.8-5.9.6-.6 1.3-.7 2-1.2zm9.4 3.3c-.1 0-.1 0-.2 0-.7 1.1-1.8 1.9-2.7 2.8-.4.4-.8 1-1.5 1-.3-.3-.4-.3-.4-1 .2-.6.4-1.1.6-1.7.4-.9 1.1-1.9 1.2-3-.1 0-.2-.1-.3-.1-.2.2-.5.5-.8.6 0 0 0 0 0-.1-.1-.1-.1-.1-.2-.3.9-.6 1-1.6 2.5-1.6.1.2.2.3.2.8-.3.5-.4 1.1-.6 1.7-.4.9-1 1.9-1.1 2.9.1 0 .2.1.3.1 1.2-1.3 2.5-2.4 3.5-3.8.4-.6.5-1.6 1.5-1.6.1.2.2.2.2.6-.3.5-.4 1.2-.6 1.7-.4 1-1.1 2.1-1.1 3.4.1 0 .2.1.3.1.2-.2.5-.3.7-.6.1-.2.5-.9.6-1 .1 0 .1 0 .2 0 .1.1 0 0 .1.1 0 .1 0 .1.1.1-.3.9-1.9 2.7-3.1 2.7-.9-.9.5-2.6.6-3.8zm-134.9-.1c1.6-.1 2.1-.7 2.9-1.5 0-.3 0-.7-.1-.9-.1-.1-.3-.2-.3-.3-1.3 0-2.3 1.5-2.5 2.7zm125.9-2.6c-.4.3-.8.4-1.1.8-.5.7-1.6 2.9-1 4.4.1.4.5.5.7.8 2 0 2.5-1.7 2.9-3.3.3-1 .1-2.3-.6-2.5-.3-.2-.6-.2-.9-.2zm17 .1c-.3.2-.9 0-1 .3-.3.4-.2 1.1-.4 1.6-.3.9-.7 1.9-.8 3 .2.2.2.4.5.5.7.4 1.3-.5 1.6-.8.5-.5 1.8-2.7 1.4-3.9-.1-.3-.5-.5-.7-.7-.2.1-.4 0-.6 0zm-57.5 1.3c.9 0 1.8 0 2.7 0 0-.6-.4-1-.8-1.1-.6-.5-1.6.1-1.7.6-.2.1-.2.3-.2.5zm-12.2 1.5c-.6.1-2 .3-2.2.8-.1.2 0 .4 0 .6.3.2 1 .5 1.4.1.7-.1.9-.7.8-1.5z"/></defs><use fill="#E0393D" fill-rule="evenodd" xlink:href="#SVGID_2_" overflow="visible" clip-rule="evenodd"/><clipPath id="SVGID_3_"><use xlink:href="#SVGID_2_" overflow="visible"/></clipPath><path d="M-1532.1 821.1c.1 0 .1.1.2.1.3 0 .6 0 .9.1.7.1 1.3.1 2 .3 2.5.5 4.9 1.4 7.1 2.6 1.8 1.1 3.5 2.3 5.1 3.8 1.8 1.7 3.2 3.7 4.3 5.9.7 1.3 1.3 2.7 1.7 4.2.3 1 .5 2 .7 3.1.1.8.2 1.5.3 2.3 0 .4 0 .8 0 1.2 0 .8 0 1.5-.1 2.3-.2 1.8-.5 3.5-1.1 5.2-1.1 3.5-3 6.5-5.5 9.1-1.7 1.8-3.7 3.3-5.8 4.4-1.9 1-3.9 1.7-6 2.2-1.1.3-2.3.5-3.5.5-.8 0-1.5.1-2.3.1-.9 0-1.9-.1-2.8-.2-1.1-.1-2.1-.3-3.1-.6-2.8-.8-5.4-2-7.6-3.8-.9-.7-1.8-1.5-2.7-2.3-1-1-1.9-2.1-2.7-3.3-1.2-1.7-2.1-3.5-2.8-5.4-.3-1-.6-2.1-.9-3.1-.2-.7-.2-1.5-.3-2.2-.2-1.1-.2-2.3-.2-3.4 0-.6.1-1.2.2-1.8.1-.7.1-1.3.3-2 .3-1.5.7-2.9 1.3-4.3 1.8-4.3 4.5-7.7 8.3-10.4 2.4-1.7 5-2.9 7.8-3.6.7-.2 1.5-.4 2.3-.5.6-.1 1.3-.1 1.9-.2.1 0 .2-.1.3-.1 1-.2 1.9-.2 2.7-.2zm-10.4 17.6c-.1.1-.3.1-.4.2-.2.1-.3.2-.5.2-1.7.9-3.1 2-4.4 3.5-.6.7-1.1 1.4-1.4 2.2-.9 2-1.1 4-.7 6.2.4 2.1 1.4 3.8 3.1 5.1 1.3 1 2.7 1.5 4.3 1.8.8.1 1.5.2 2.3.1.2 0 .3 0 .5 0-.1.2-.2.4-.4.6-.9 1.6-1 3.6.4 5.2 1 1.1 2.3 1.7 3.8 1.8 1 .1 2 .1 3-.1 1.5-.2 2.9-.6 4.2-1.3 3.1-1.6 5.3-3.9 6.5-7.2.5-1.5.9-3 .9-4.5 0-1 0-1.9-.3-2.9-.5-2.5-1.7-4.7-3.3-6.6-.5-.5-.9-1.1-1.4-1.6.5-1.5 2.4-6.1 2.6-6.3.1.2.2.5.3.7.7 1.7 2.4 2.7 4.3 2.3 2.7-.5 4.2-3.3 3.4-5.7-.6-2.1-2.5-3.1-4.4-3.1-1.2 0-2.2.5-3.1 1.3-.9.9-1.5 1.9-1.9 3-.8 2-1.6 3.9-2.4 5.9 0 .1-.1.2-.2.4-1.5-1.5-2.9-3-4.3-4.4.1-.1.1-.2.2-.2.4-.6.9-1.1 1.3-1.7.7-1 1.1-2.1 1.2-3.3.1-.9-.1-1.7-.5-2.5-.5-1-1.4-1.7-2.4-2.2-1.3-.6-2.7-.7-4.2-.5-1.2.2-2.3.6-3.3 1.1-2 1.1-3.3 2.9-3.9 5.1-.3 1.2-.4 2.5-.2 3.8.1.6.2 1.3.4 1.9.4.4.7 1 .9 1.7z" class="st2"/><path d="M-1542.5 838.7c-.3-.6-.5-1.2-.7-1.8-.2-.6-.3-1.2-.4-1.9-.1-1.3-.1-2.5.2-3.8.6-2.2 1.9-4 3.9-5.1 1-.6 2.1-1 3.3-1.1 1.4-.2 2.8-.1 4.2.5 1 .4 1.9 1.2 2.4 2.2.4.8.6 1.6.5 2.5-.1 1.2-.5 2.3-1.2 3.3-.4.6-.9 1.1-1.3 1.7-.1.1-.1.1-.2.2 1.4 1.5 2.9 2.9 4.3 4.4.1-.2.1-.3.2-.4.8-2 1.6-3.9 2.4-5.9.5-1.1 1.1-2.2 1.9-3 .9-.8 1.9-1.3 3.1-1.3 2 0 3.8 1 4.4 3.1.7 2.4-.7 5.2-3.4 5.7-1.9.3-3.6-.7-4.3-2.3-.1-.2-.2-.5-.3-.7-.2.2-2.1 4.8-2.6 6.3.5.5.9 1.1 1.4 1.6 1.7 1.9 2.8 4.1 3.3 6.6.2.9.3 1.9.3 2.9 0 1.6-.3 3.1-.9 4.5-1.2 3.3-3.4 5.6-6.5 7.2-1.3.7-2.7 1.1-4.2 1.3-1 .1-2 .2-3 .1-1.5-.2-2.8-.7-3.8-1.8-1.4-1.5-1.4-3.6-.4-5.2.1-.2.2-.3.4-.6-.2 0-.4 0-.5 0-.8.1-1.6 0-2.3-.1-1.6-.2-3-.8-4.3-1.8-1.7-1.3-2.7-3-3.1-5.1-.4-2.1-.2-4.2.7-6.2.4-.8.9-1.5 1.4-2.2 1.2-1.4 2.7-2.6 4.4-3.5.2-.1.3-.2.5-.2-.1 0 .1-.1.2-.1zm1.7 2.1c-.2.1-.3.3-.4.4-.9 1-1.3 2.2-1.3 3.6 0 1 .3 1.9.8 2.7.7 1.3 1.7 2.4 3 3.3 1.8 1.2 3.6 1.5 5.7.9.3-.1.6-.2.9-.5-3-3.4-6-6.7-8.7-10.4zm10 12.2c0 .1-.1.1-.1.1-.6.8-1.2 1.6-2.1 2.2-.5.3-.9.6-1.4.9-.2.1-.3.2-.5.3.1.1.2.1.3.1.3.1.6.2.9.4.7.4 1.2 1.1 1.6 1.8.3.8.5 1.6.3 2.5-.1.3-.2.7-.2 1 .8-.2 1.6-1 2-1.4.5-.6.8-1.2 1-1.9.1-.6.1-1.1 0-1.7-.4-1.5-1-2.9-1.8-4.3zm-2.4-19.3c.3-.3.5-.5.7-.7.5-.5.9-1.1 1.2-1.8.3-.7.4-1.4.3-2.2-.2-.8-.5-1.5-1.3-1.9-.7-.4-1.4-.5-2 0-.5.3-.7.8-.8 1.3-.2 1 0 2 .5 2.9.3.7.8 1.3 1.2 2 0 .2.1.3.2.4z" class="st1"/><path d="M-1540.8 840.8c2.7 3.6 5.8 7 8.7 10.4-.3.3-.6.4-.9.5-2 .6-3.9.2-5.7-.9-1.3-.8-2.3-1.9-3-3.3-.4-.9-.7-1.7-.8-2.7-.1-1.4.3-2.6 1.3-3.6.1-.1.2-.2.4-.4zM-1530.8 853c.8 1.4 1.5 2.8 1.7 4.4.1.6.1 1.1 0 1.7-.1.7-.5 1.4-1 1.9-.4.4-1.2 1.1-2 1.4.1-.3.2-.7.2-1 .2-.9 0-1.7-.3-2.5s-.8-1.4-1.6-1.8c-.3-.2-.6-.3-.9-.4-.1 0-.1-.1-.3-.1.2-.1.4-.2.5-.3.5-.3 1-.6 1.4-.9.8-.6 1.5-1.3 2.1-2.2.1-.1.1-.2.2-.2zM-1533.2 833.7c-.1-.1-.2-.2-.3-.3-.4-.6-.8-1.3-1.2-2-.4-.9-.6-1.9-.5-2.9.1-.5.3-1 .8-1.3.7-.5 1.4-.4 2 0 .7.4 1.1 1.1 1.3 1.9.2.8.1 1.5-.3 2.2-.3.7-.7 1.3-1.2 1.8-.1.1-.3.4-.6.6z" class="st3"/></svg>