<?xml version="1.0" encoding="utf-8"?>
<!-- Generator: Adobe Illustrator 19.1.0, SVG Export Plug-In . SVG Version: 6.00 Build 0)  -->
<svg version="1.1" id="Layer_1" xmlns="http://www.w3.org/2000/svg" xmlns:xlink="http://www.w3.org/1999/xlink" x="0px" y="0px"
	 viewBox="-478 336.6 233.3 169.3" style="enable-background:new -478 336.6 233.3 169.3;" xml:space="preserve">
<style type="text/css">
	.st0{fill:#AEB939;}
	.st1{fill:#DB4146;}
	.st2{fill:#0D5FA8;}
	.st3{enable-background:new    ;}
</style>
<path class="st0" d="M-338.8,396.6L-338.8,396.6l-6.2,17.1h-1.9l-5.9-17.1h-0.1l-2.4,16.8h-5.3l4.6-27.7h3.7l6.7,17.8l6.4-17.8h3.8
	l4,27.7h-5.3L-338.8,396.6z"/>
<path class="st0" d="M-331.6,386.3h6.1l4.7,9.4l5.2-9.4h6.2l-8.5,14.7v12.4h-5.3V401L-331.6,386.3z"/>
<path class="st0" d="M-425,429.6v6h8.4v4.6h-8.4v7.3h8.7v4.6h-14v-27h14v4.5L-425,429.6L-425,429.6z"/>
<path class="st0" d="M-413.6,425h6.2l4.3,8.4l3.9-8.4h6.3l-7.5,12.7l8.3,14.3h-6.1l-5.4-9.9l-5.2,9.9h-6.2l8.6-14.3L-413.6,425z"/>
<path class="st0" d="M-385.2,452h-5.3v-27h7.2c5.7,0,9.4,2.3,9.4,8.4c0,5.7-3.1,8.5-8.6,8.5h-2.6L-385.2,452L-385.2,452z
	 M-385.2,437.6h1.1c3.1,0,4.8-0.7,4.8-4.2s-2-4-4.9-4h-0.9L-385.2,437.6L-385.2,437.6z"/>
<path class="st0" d="M-366.3,429.6v6h8.4v4.6h-8.4v7.3h8.7v4.6h-14v-27h14v4.5L-366.3,429.6L-366.3,429.6z"/>
<path class="st0" d="M-335.7,452h-6.4l-6.6-10.9h-0.1V452h-5.3v-27h7.1c5.3,0,9,2.4,9,8.1c0,3.4-1.9,6.9-5.5,7.5L-335.7,452z
	 M-348.8,437.5h0.7c2.9,0,4.9-0.9,4.9-4.2s-2.1-4-4.9-4h-0.7V437.5z"/>
<path class="st0" d="M-328.8,452h-5.3v-27h5.3V452z"/>
<path class="st0" d="M-319.7,429.6v6h8.4v4.6h-8.4v7.3h8.7v4.6h-14v-27h14v4.5L-319.7,429.6L-319.7,429.6z"/>
<path class="st0" d="M-307.4,424.3h3.8l14.2,18.9h0.1V425h5.3v27.6h-3.9l-14.2-18.9h-0.1v18.4h-5.3L-307.4,424.3L-307.4,424.3
	L-307.4,424.3z"/>
<path class="st0" d="M-262.2,432.2c-1.5-1.8-3.7-2.9-5.9-2.9c-5.1,0-8,4.7-8,9.3s3,9.1,7.9,9.1c2.3,0,4.5-1.2,6-2.9v6.3
	c-2,0.9-3.9,1.6-6.1,1.6c-7.6,0-13.2-6.6-13.2-14c0-7.7,5.4-14.4,13.3-14.4c2.1,0,4.2,0.6,6,1.6V432.2L-262.2,432.2z"/>
<path class="st0" d="M-253.4,429.6v6h8.4v4.6h-8.4v7.3h8.7v4.6h-14v-27h14v4.5L-253.4,429.6L-253.4,429.6z"/>
<path class="st1" d="M-331.1,356.7c-1.4,1.9-1.7,4.5-1.7,4.5h-0.3l-0.4,1.9c0.4,0.2,0.8,0.3,1.3,0.5c0.1-0.2,0.3-0.4,0.6-0.3
	c0.3,0.1,0.4,0.3,0.4,0.6l0,0c0.4,0.1,0.7,0.2,1.1,0.3c0.1-0.2,0.3-0.4,0.6-0.3c0.3,0.1,0.4,0.3,0.4,0.6l0,0
	c0.7,0.2,1.2,0.3,1.2,0.3l0.4-1.1c0,0,0.8,0.1,1.8,0.8c0.4,0.2,0.8,0.5,1.3,0.8c0.1-0.2,0.3-0.3,0.5-0.2c0.3,0.1,0.4,0.3,0.4,0.6
	v0.1c0.4,0.2,0.8,0.4,1.2,0.6c0.1-0.2,0.3-0.4,0.6-0.3c0.3,0.1,0.4,0.3,0.4,0.6l0,0c0.2,0.1,0.3,0.1,0.5,0.2
	c0.3,0.1,0.5,0.1,0.8,0.2l0,0c0.1-0.3,0.3-0.4,0.6-0.4c0.2,0.1,0.4,0.3,0.4,0.5c0.5,0.1,0.9,0.1,1.3,0.1v-0.1
	c0.1-0.3,0.3-0.4,0.6-0.4c0.2,0.1,0.3,0.2,0.4,0.5c0.4,0,0.7-0.1,0.7-0.1l0.4-1.4l-0.2-0.2c0,0,0.2-0.4,0.3-1s0.2-1.4-3.1-3.4
	c-3.2-1.9-3.6-3.8-3-5.4c0.4-1.1,1.5-3.6,2.7-6.2c1.1-2.5,2.5-5.2,3.6-8.4c0-0.1,0.1-0.4-0.1-0.5c-1-0.1-11.1-4-11.4-4.1
	c-0.2-0.1-0.3,0.1-0.4,0.2c-1.7,5.6-2.1,9.4-2.3,11.6C-329.6,350.6-329.9,355.1-331.1,356.7"/>
<g>
	<path class="st2" d="M-350.3,348.7c-2.1-0.5-4.3-0.8-6.5-1s-4.4-0.2-6.5-0.1c-0.8,0-1.5,0.7-1.7,1.4c-0.9,3.5-1.1,5.8-0.8,9.4
		c0.1,0.8,0.7,1.5,1.5,1.7c2.1,0.5,4.3,0.8,6.5,1s4.4,0.2,6.5,0.1c0.8,0,1.5-0.7,1.7-1.4c0.9-3.5,1.1-5.8,0.8-9.4
		C-348.9,349.6-349.6,348.9-350.3,348.7z"/>
	<path class="st2" d="M-341.6,346.5l-9.1-0.8c-0.2-0.2-0.7-0.5-1.3-0.7l4-3.4c0.2,0.1,0.4,0.1,0.6,0c0.2-0.2,0.2-0.5,0.1-0.7
		c-0.2-0.2-0.5-0.2-0.7-0.1c-0.2,0.1-0.2,0.4-0.1,0.6l-4.1,3.5c-0.5-0.1-1.1-0.2-1.8-0.3s-1.3-0.1-1.8,0l-3.5-4.1
		c0.1-0.2,0.1-0.4,0-0.6c-0.2-0.2-0.5-0.2-0.7-0.1c-0.2,0.2-0.2,0.5-0.1,0.7s0.4,0.2,0.6,0.1l3.4,4c-0.7,0.1-1.2,0.2-1.4,0.4
		l-9.1-0.8c-0.4,0-0.7,0.2-0.7,0.6l-1.5,17.1c0,0.4,0.2,0.7,0.6,0.7l2.6,0.2l-1.5,5.9h0.4l3.5-5.7l15.1,1.3l2.4,6.2h0.4l-0.4-6
		l2.6,0.2c0.4,0,0.7-0.2,0.7-0.6l1.5-17.1C-341,346.9-341.3,346.5-341.6,346.5z M-348.9,361c-0.1,0.7-0.6,1.2-1.3,1.1l-15.6-1.4
		c-0.7-0.1-1.2-0.6-1.1-1.3l1-11.7c0.1-0.7,0.6-1.2,1.3-1.1l15.6,1.4c0.7,0.1,1.2,0.6,1.1,1.3L-348.9,361z M-344.2,361.9l-3-0.3V361
		l3,0.3V361.9z M-344.1,360.8l-3-0.3v-0.6l3,0.3V360.8z M-344,359.7l-3-0.3v-0.6l3,0.3V359.7z M-345.2,356.4c-1-0.1-1.7-0.9-1.6-1.9
		c0.1-1,0.9-1.7,1.9-1.6c1,0.1,1.7,0.9,1.6,1.9S-344.3,356.5-345.2,356.4z M-344.8,351.9c-1-0.1-1.7-0.9-1.6-1.9s0.9-1.7,1.9-1.6
		c1,0.1,1.7,0.9,1.6,1.9C-343,351.2-343.9,352-344.8,351.9z"/>
	<circle class="st2" cx="-344.7" cy="350.1" r="1.5"/>
	<circle class="st2" cx="-345.1" cy="354.6" r="1.5"/>
</g>
<path class="st1" d="M-370.2,378.7c0,0-21.5-30-21.7-30.4c-0.3-0.4-0.9-0.1-0.9-0.1l-1.5-2.1l0.2-1.4l-0.8-1.2l-1-0.9
	c-3.1,0.2-6.7,2-8.5,3.4c-1.8,1.3-4.7,4-5.9,6.9l0.5,1.2l0.8,1.2l1.4,0.3l1.5,2.1c0,0-0.5,0.4-0.2,0.8c0.3,0.4,21.7,30.4,21.7,30.4
	s-0.3,0.3-0.1,0.5s0.4,0.5,0.4,0.5l7.5-5.3l7.5-5.3c0,0-0.2-0.3-0.4-0.5C-369.8,378.5-370.2,378.7-370.2,378.7z M-382.7,379.8
	l-2.4,1.7l-2.5-3.4l2.4-1.7L-382.7,379.8z M-385.4,375.9l-2.4,1.7l-2.4-3.4l2.4-1.7L-385.4,375.9z M-388.2,372l-2.4,1.7l-2.4-3.4
	l2.4-1.7L-388.2,372z M-391,368.2l-2.4,1.7l-2.4-3.4l2.4-1.7L-391,368.2z M-393.7,364.3l-2.4,1.7l-2.4-3.4l2.4-1.7L-393.7,364.3z
	 M-396.5,360.5l-2.4,1.7l-2.4-3.4l2.4-1.7L-396.5,360.5z M-379.8,377.7l-2.4,1.7l-2.5-3.4l2.4-1.7L-379.8,377.7z M-382.6,373.8
	l-2.4,1.8l-2.4-3.4l2.4-1.7L-382.6,373.8z M-385.3,370l-2.4,1.7l-2.4-3.4l2.4-1.7L-385.3,370z M-388.1,366.1l-2.4,1.7l-2.4-3.4
	l2.4-1.7L-388.1,366.1z M-390.9,362.3l-2.4,1.7l-2.4-3.4l2.4-1.7L-390.9,362.3z M-393.6,358.4l-2.4,1.7l-2.4-3.4l2.4-1.7
	L-393.6,358.4z M-377,375.7l-2.4,1.7l-2.5-3.4l2.4-1.7L-377,375.7z M-379.7,371.8l-2.4,1.7l-2.4-3.4l2.4-1.7L-379.7,371.8z
	 M-382.5,367.9l-2.4,1.8l-2.4-3.4l2.4-1.7L-382.5,367.9z M-385.2,364.1l-2.4,1.7l-2.4-3.4l2.4-1.7L-385.2,364.1z M-388,360.2
	l-2.4,1.7l-2.4-3.4l2.4-1.7L-388,360.2z M-390.8,356.4l-2.4,1.7l-2.4-3.4l2.4-1.7L-390.8,356.4z M-394.7,348.8l-10.1,7.2l-1.1-1.5
	l10.1-7.2L-394.7,348.8z"/>
<g>
	<path class="st2" d="M-410.5,388c-2.9-0.5-5.6,1.5-6.1,4.4s1.5,5.6,4.4,6.1s5.6-1.5,6.1-4.4C-405.7,391.2-407.6,388.4-410.5,388z
		 M-406.7,392.3c0.1,0.5-0.2,1-0.7,1.1s-1-0.2-1.1-0.7s0.2-1,0.7-1.1C-407.3,391.4-406.8,391.8-406.7,392.3z M-413.7,389
		c0.5-0.2,1-0.1,1.3,0.4c0.2,0.5,0.1,1-0.4,1.3c-0.5,0.2-1,0.1-1.3-0.4C-414.3,389.8-414.1,389.3-413.7,389z M-415.8,391.2
		c0.2-0.5,0.8-0.7,1.2-0.5c0.5,0.2,0.7,0.8,0.5,1.2c-0.2,0.5-0.8,0.7-1.2,0.5C-415.8,392.3-416,391.7-415.8,391.2z M-416.1,394.2
		c-0.1-0.5,0.2-1,0.7-1.1s1,0.2,1.1,0.7s-0.2,1-0.7,1.1C-415.5,395-416,394.7-416.1,394.2z M-413.4,396.7c-0.4,0.4-0.9,0.4-1.3,0
		c-0.4-0.4-0.4-0.9,0-1.3c0.4-0.4,0.9-0.4,1.3,0C-413,395.7-413,396.3-413.4,396.7z M-412.2,397.9c-0.5-0.1-0.9-0.6-0.8-1.1
		s0.6-0.9,1.1-0.8c0.5,0.1,0.9,0.6,0.8,1.1C-411.2,397.7-411.7,398-412.2,397.9z M-410.9,390.3c-0.5-0.1-0.9-0.6-0.8-1.1
		s0.6-0.9,1.1-0.8c0.5,0.1,0.9,0.6,0.8,1.1C-409.9,390.1-410.4,390.4-410.9,390.3z M-409.4,389.8c0.4-0.4,0.9-0.4,1.3,0
		c0.4,0.4,0.4,0.9,0,1.3c-0.4,0.4-0.9,0.4-1.3,0C-409.8,390.7-409.8,390.2-409.4,389.8z M-409.1,397.4c-0.5,0.2-1,0.1-1.3-0.4
		c-0.2-0.5-0.1-1,0.4-1.3c0.5-0.2,1-0.1,1.3,0.4C-408.5,396.6-408.7,397.2-409.1,397.4z M-408.3,395.7c-0.5-0.2-0.7-0.8-0.5-1.2
		c0.2-0.5,0.8-0.7,1.2-0.5c0.5,0.2,0.7,0.8,0.5,1.2C-407.3,395.7-407.8,395.9-408.3,395.7z"/>
	<g>
		<path class="st2" d="M-404.7,387c-0.7-0.7-4.4-1.5-5.4-1.7c-0.9-0.2-4.8-0.6-5.6-0.1c-0.9,0.5-0.4,1-2.1,2.9
			c-1.7,1.9-6.5,5.6-7,8.4c-0.4,2.8,2.1,4.9,2.1,4.9s-0.7,0.4-0.8,0.9c0,0.3,0.2,0.4,0.3,0.5c0,0,0.3,0,0.7,0.1l-0.1,0.5
			c0,0.3,0.2,0.6,0.5,0.6h0.3c0.3,0,0.6-0.2,0.6-0.5l0.1-0.5c2.9,0.5,7.9,1.3,7.9,1.3s5.1,0.8,8,1.3l-0.1,0.5c0,0.3,0.2,0.6,0.5,0.6
			h0.3c0.3,0,0.6-0.2,0.6-0.5l0.1-0.5c0.3,0.1,0.5,0.1,0.6,0.1c0.2,0,0.4,0,0.5-0.3c0.1-0.5-0.5-1.1-0.5-1.1s3.1-1.3,3.5-4
			c0.4-2.8-3-7.8-3.9-10.1C-404.5,388-404.1,387.7-404.7,387z M-412.4,399.1c-3.2-0.5-5.4-3.6-4.9-6.8s3.6-5.4,6.8-4.9
			s5.4,3.6,4.9,6.8S-409.1,399.6-412.4,399.1z"/>
		<path class="st2" d="M-393.7,389.6c0.9-5.4-5.2-6.2-5.2-6.2s-3.2-2.3-10.3-3.5s-10.9,0-10.9,0s-6-1.2-6.9,4.2
			c-0.6,3.5,2.1,4.7,2.1,4.7s-0.3,0.2-0.3,0.5s0.2,0.5,0.6,0.5c0.3,0,2.8-0.4,4.7-1.6c2-1.3,3.4-3.4,3.5-3.9s-0.3-0.7-0.8-0.5
			c0,0-0.2-1.1-0.9-1.8c0,0,3.7-0.2,8.5,0.6s8.2,2.2,8.2,2.2c-0.9,0.5-1.4,1.5-1.4,1.5c-0.4-0.4-0.8-0.2-0.9,0.2
			c-0.1,0.5,0.7,3,2.1,4.8c1.5,1.8,3.7,2.9,3.9,3c0.4,0.1,0.7,0,0.7-0.3s-0.2-0.6-0.2-0.6S-394.3,393.1-393.7,389.6z"/>
	</g>
</g>
<g>
	<path class="st1" d="M-444.1,419.5c-0.4,0.2-1.9,0.5-7.6,1c-5.7,0.5-7.4,0.3-7.7,0.3s-0.6-0.2-0.6-0.5l0,0c0-0.3,0.2-0.6,0.5-0.6
		l15.4-1.2c0.3,0,0.6,0.2,0.6,0.5l0,0C-443.5,419.2-443.7,419.4-444.1,419.5z"/>
	<path class="st1" d="M-432.2,397.5c0.1-0.9-2.2,0.2-3.8,0.3s-1.4,4-3.1,5.5c-2-4.6-6.8-7.9-12.5-8.2c0.1-0.2,0.1-0.4,0.1-0.6
		c-0.1-0.9-1.2-1.6-2.6-1.5c-1.4,0.1-2.4,0.9-2.3,1.9c0,0.2,0.1,0.4,0.2,0.6c-6.9,1.5-11.9,7.3-11.4,13.8c0.4,4.7,3.6,8.6,8.1,10.6
		l15.1-1.3c1.5-1,2.8-2.2,3.8-3.5c1-0.2,3.7-1,5-4.1s0.4-5.1,1-7.8C-433.9,400.5-432.3,399-432.2,397.5z"/>
	<path class="st1" d="M-470.4,406.2c-0.2-2.9,1.9-5.3,4.7-5.5c0.4,0,0.7,0,1,0c0.6-0.7,1.3-1.4,2.1-2c-1-0.4-2.1-0.7-3.3-0.6
		c-4.1,0.3-7.2,3.9-6.9,8.2c0.2,4,3.4,7.1,7.2,7.3c-0.6-0.9-1.1-1.8-1.4-2.8C-468.9,410.1-470.2,408.3-470.4,406.2z"/>
</g>
<path class="st2" d="M-443.7,475.5c-0.1,0-3.5-1-3.5-1c0.1-7.4-0.4-28.2-0.8-34.7c1.1-4,2.4-8.6,2.5-9.1c-1-0.3-1.9,0.2-2.7-0.2
	c0.1,0.6,0.8,1.2,2,1.2c0,0.2-0.4,1.3-0.4,1.3c-8,4.8-23.3,30-24.2,32.4c-0.2-0.1-0.5-0.1-0.5-0.1c-0.1,0-0.1,0-0.1,0.1s0,0-0.1,0.2
	c-0.1,0.3,0.2,0.4,0.5,0.5c0.1,0,1.5,0.5,1.7,0.5h0.1c0.2,0.1,0.4,0.1,0.6,0.2h0.1c2.8,0.9,7.2,2.2,10.4,3.2
	c-0.1,0.4-0.2,0.8-0.4,1.5l0,0l0.7,0.4l0,0l0,0l-0.2,0.7c-0.2-0.1-0.4-0.1-0.6-0.1c-0.2-0.1-2.3-1-4.3-1.9l-1-0.5
	c-1-0.4-1.7-0.8-1.9-0.9c-0.6-0.3-0.6,0.1-0.6,0.2l-0.2,0.1c-0.2,0.1-0.3,0.1-0.4,0.2c-0.1,0-0.3,0-0.4,0c-0.1,0.1-0.3,0.3-0.5,0.6
	c-0.2,0-0.7-0.2-1.2-0.3h-0.1c-0.2-0.1-0.4-0.1-0.5-0.1l0,0h-0.1c-0.2,0-0.3,0.1-0.4,0.1c0,0-0.1,0-0.2,0l0.1-0.4
	c-0.7-0.2-3.3-0.9-3.6-1c-0.5-0.2-1.8-0.1-1.9-0.1c-0.1,0-0.2,0-0.2,0c-0.2,0.1-0.7,0.7-0.7,0.8s-0.2,0.5-0.1,0.7
	c0.2,0.2,0.7,0.5,0.8,0.6s0.3,0.1,0.3,0.3s0,0.1-0.1,0.2c0,0.2-0.4,0.2,0.3,0.4c0.6,0.2,10.5,3.7,13.2,4.6c2.7,0.9,9,2.7,11.7,3
	c1.9,0.2,2.8-0.7,3.2-1.3l2.7-1.1l0.4-1.4L-443.7,475.5C-443.6,475.7-443.4,475.5-443.7,475.5z M-448.2,440.4c0,0.6,0.1,2.2,0.2,3.1
	c-0.6,1.3-6.6,20.9-7.2,22.2C-454.8,464-448.8,442.8-448.2,440.4z M-452,474.8l-0.2-0.1c-1.7-0.5-3.2-0.9-3.2-0.9
	c-0.2-0.1-0.4,0-0.7-0.4l-0.1-0.1l-0.2-0.2c-0.2-0.2-0.5-0.4-0.5-0.4s0,0-0.1,0l0.1-0.5c0.2,0.1,0.4,0.2,0.6,0.3l0.2,0.1
	c1.1,0.5,2.6,1.1,3.9,1.7l0.2,0.1c1.7,0.7,3.3,1.4,4.3,1.8C-448.6,475.7-450.4,475.2-452,474.8z M-445,476.7l-1.3,0.4l-0.2-0.6
	c0,0-0.1,0-0.1-0.1c-0.1-0.1-0.3-0.2-0.7-0.3c0-0.2,0-0.3,0-0.5v-0.2c0-0.2,0-0.5,0-0.8l0.8,0.2l0.2,0.1l1.6,0.4L-445,476.7z"/>
<path class="st1" d="M-405.2,484.4c-0.6-1.4-2.6-3.7-3.7-4.8c0,0,0.3-0.8,0.1-0.9c-0.2-0.1-0.9,0.2-0.9,0.2c-1.2-1-3.6-2.8-5.1-3.2
	c0,0-6.6-5.5-19.6-2.8c0,0,5,4.4,5.9,10.1c0,0,3.8,1.6,9.3,6.6l-7.8,8.5l-0.2-0.2l-2,2.2c-0.7,0.8-0.9,2.5,0.3,3.7
	c1.2,1.1,2.6,0.9,3.9-0.5c0.2-0.2,0.2-0.5,0-0.7s-0.5-0.2-0.7,0c-0.6,0.7-1.6,1.3-2.5,0.5s-0.6-2-0.3-2.3l2-2.2l-0.2-0.2l7.8-8.5
	c5.7,5.2,7.7,8.9,7.7,8.9c5.8,0.4,10.5,4.8,10.5,4.8C-398.5,490.7-405.2,484.4-405.2,484.4z"/>
<g>
	<path class="st2" d="M-356,500c-0.8,2.2,0.3,4.7,2.5,5.6c2.2,0.8,4.7-0.3,5.6-2.5s-0.3-4.7-2.5-5.6
		C-352.7,496.7-355.2,497.8-356,500z M-353.9,500.8c0.4-1.1,1.6-1.6,2.6-1.2c1.1,0.4,1.6,1.6,1.2,2.6c-0.4,1.1-1.6,1.6-2.6,1.2
		C-353.8,503.1-354.3,501.9-353.9,500.8z"/>
	<path class="st2" d="M-396.5,483.2c-0.4,1,0.1,1.2,1.1,1.5c0.3,0.1,2.9,1.1,6.3,2.4c0.7-1.5,1.7-1.8,3-1.7c-1,0.5-1.8,1.3-2.3,2.4
		c-0.8,2.2,0.3,4.7,2.5,5.6c2.2,0.9,4.7-0.3,5.6-2.5c0.4-1.1,0.4-2.3-0.1-3.3c1,0.7,1.6,1.7,1.1,3.2c6.4,2.4,10.7,4.1,10.7,4.1
		s5.2,2,11.7,4.4c1.2-2.5,4-3.7,6.6-2.7s4,3.8,3.2,6.4c1.8,0.7,2.6,1,2.7,1c0.6,0.2,0.7,0,1-0.8c0.2-0.6,0.1-0.8-0.7-1.1
		c-0.4-0.2-0.2-0.9,0.1-1.6c0.4-1,1-1.5,1.4-2.6c0.5-1.4,0.7-1.7-1.2-3.3c-1.7-1.4-6.9-4.4-11.3-6c0,0-1.1-5.1-1.6-6.4
		c-0.8-1.9-0.5-3.3-14.7-8.6c-6.2-2.3-10.6-4.3-13.3-1.9c-2,1.8-4.2,3.6-4.2,3.6s-0.9-0.1-2.3,0.9c-1.3,1-2.9,2.9-3.5,4.5
		s-0.6,1.6-0.6,1.6S-396.1,482.1-396.5,483.2z M-363.3,480.5c0.2-0.5,0.8-0.8,1.3-0.6c0,0,0.9,0.3,2.1,0.8c1,0.4,1.6,1.2,1.9,2.1
		c0.7,2,1.2,5.2,1.2,5.2l-7.2-2.7c-0.5-0.2-0.8-0.8-0.6-1.3L-363.3,480.5z M-371.9,477.2c0.2-0.5,0.8-0.8,1.3-0.6l5.3,2
		c0.5,0.2,0.8,0.8,0.6,1.3l-1.3,3.4c-0.2,0.5-0.8,0.8-1.3,0.6l-5.3-2c-0.5-0.2-0.8-0.8-0.6-1.3L-371.9,477.2z M-386.1,488.6
		c0.4-1.1,1.6-1.6,2.6-1.2c1.1,0.4,1.6,1.6,1.2,2.6c-0.4,1.1-1.6,1.6-2.6,1.2C-386,490.9-386.6,489.7-386.1,488.6z M-383.6,476.7
		c0.4-1,2.5-4.1,7.4-2.2c1.3,0.5,2.1,0.8,2.1,0.8c0.5,0.2,0.8,0.8,0.6,1.3l-1.3,3.4c-0.2,0.5-0.8,0.8-1.3,0.6l-7-2.6
		C-383.7,477.8-383.8,477.2-383.6,476.7z"/>
</g>
<g class="st3">
	<path class="st0" d="M-298.1,386.2h5.4v15.4c0,3.4,0.3,8.2,4.9,8.2s4.9-4.8,4.9-8.2v-15.4h5.4v16.5c0,6.7-2.8,11.8-10.2,11.8
		s-10.2-5.1-10.2-11.8v-16.5H-298.1z"/>
	<path class="st0" d="M-259.9,386.2h6.6l-10.4,12.7l11,14.8h-6.9l-8.8-12.4h-0.1v12.4h-5.4v-27.5h5.4v11.6h0.1L-259.9,386.2z"/>
</g>
</svg>
