<?xml version="1.0" encoding="UTF-8" standalone="no"?>
<!-- Created with Inkscape (http://www.inkscape.org/) -->

<svg
   xmlns:dc="http://purl.org/dc/elements/1.1/"
   xmlns:cc="http://creativecommons.org/ns#"
   xmlns:rdf="http://www.w3.org/1999/02/22-rdf-syntax-ns#"
   xmlns:svg="http://www.w3.org/2000/svg"
   xmlns="http://www.w3.org/2000/svg"
   xmlns:inkscape="http://www.inkscape.org/namespaces/inkscape"
   version="1.0"
   width="615.82001"
   height="500.39001"
   id="svg2">
  <defs
     id="defs4">
    <marker
       refX="0"
       refY="0"
       orient="auto"
       id="TriangleOutM"
       style="overflow:visible">
      <path
         d="m 5.77,0 -8.65,5 0,-10 8.65,5 z"
         inkscape:connector-curvature="0"
         transform="scale(0.4,0.4)"
         id="path8224"
         style="fill-rule:evenodd;stroke:#000000;stroke-width:1pt;marker-start:none" />
    </marker>
    <marker
       refX="0"
       refY="0"
       orient="auto"
       id="TriangleOutL"
       style="overflow:visible">
      <path
         d="m 5.77,0 -8.65,5 0,-10 8.65,5 z"
         inkscape:connector-curvature="0"
         transform="scale(0.8,0.8)"
         id="path8227"
         style="fill-rule:evenodd;stroke:#000000;stroke-width:1pt;marker-start:none" />
    </marker>
  </defs>
  <metadata
     id="metadata7">
    <rdf:RDF>
      <cc:Work
         rdf:about="">
        <dc:format>image/svg+xml</dc:format>
        <dc:type
           rdf:resource="http://purl.org/dc/dcmitype/StillImage" />
      </cc:Work>
    </rdf:RDF>
  </metadata>
  <g
     transform="translate(-41.671523,-61.193478)"
     id="layer1">
    <g
       transform="translate(55.152288,42.263966)"
       id="g7059">
      <path
         d="m 168.3093,103.44527 a 55.558392,58.083771 0 0 1 80.13125,11.85503 l -45.39989,33.48043 z"
         transform="matrix(1.3807456,0,0,1.3294309,-170.20585,-84.055691)"
         id="path6086"
         style="fill:#000000;fill-opacity:1;stroke:#000000;stroke-width:1.4761833;stroke-linecap:round;stroke-linejoin:miter;stroke-miterlimit:4;stroke-opacity:1;stroke-dasharray:none;stroke-dashoffset:0" />
      <path
         d="m 254.45707,170.7872 a 55.558392,58.083771 0 0 1 -91.93659,17.73248 l 40.52018,-39.73895 z"
         transform="matrix(1.3807456,0,0,1.3294309,-169.23073,-84.368299)"
         id="path2162"
         style="fill:#bcded9;fill-opacity:1;stroke:none" />
      <path
         d="m 256.67891,163.91904 a 55.558392,58.083771 0 1 1 0.12992,-0.51243"
         transform="matrix(1.0755778,0,0,1.0549071,-106.26032,-43.019382)"
         id="path3134"
         style="fill:#fff3f3;fill-opacity:1;stroke:#000000;stroke-width:1.4761833;stroke-linecap:round;stroke-linejoin:miter;stroke-miterlimit:4;stroke-opacity:1;stroke-dasharray:none;stroke-dashoffset:0" />
      <path
         d="m 168.3093,103.44527 a 55.558392,58.083771 0 1 1 -0.35928,0.3034"
         transform="matrix(1.4168749,0,0,1.3292085,-176.86063,-84.621096)"
         id="path6088"
         style="fill:none;stroke:#060000;stroke-width:1.4761833;stroke-linecap:round;stroke-linejoin:miter;stroke-miterlimit:4;stroke-opacity:1;stroke-dasharray:none;stroke-dashoffset:0" />
    </g>
    <text
       x="92.527931"
       y="258.21985"
       id="text7075"
       xml:space="preserve"
       style="font-size:10px;font-style:normal;font-weight:normal;fill:#000000;fill-opacity:1;stroke:none;font-family:Bitstream Vera Sans"><tspan
         x="92.527931"
         y="258.21985"
         id="tspan7077" /></text>
    <text
       x="103.63961"
       y="260.24014"
       id="text7083"
       xml:space="preserve"
       style="font-size:10px;font-style:normal;font-weight:normal;fill:#000000;fill-opacity:1;stroke:none;font-family:Bitstream Vera Sans"><tspan
         x="103.63961"
         y="260.24014"
         id="tspan7085" /></text>
    <text
       x="100.60915"
       y="260.24017"
       id="text7091"
       xml:space="preserve"
       style="font-size:10px;font-style:normal;font-weight:normal;fill:#000000;fill-opacity:1;stroke:none;font-family:Bitstream Vera Sans"><tspan
         x="100.60915"
         y="260.24017"
         id="tspan7093"
         style="font-size:20px">Host Plasmid</tspan></text>
    <text
       x="191.62158"
       y="-173.23482"
       transform="matrix(0.3883351,0.9215182,-0.9215182,0.3883351,0,0)"
       id="text7095"
       xml:space="preserve"
       style="font-size:10px;font-style:normal;font-weight:normal;fill:#000000;fill-opacity:1;stroke:none;font-family:Bitstream Vera Sans"><tspan
         x="191.62158"
         y="-173.23482"
         id="tspan7097">G C T A</tspan></text>
    <text
       x="-218.82303"
       y="163.59265"
       transform="matrix(-0.3212281,-0.9470018,0.9470018,-0.3212281,0,0)"
       id="text7099"
       xml:space="preserve"
       style="font-size:9.99997139px;font-style:normal;font-weight:normal;fill:#000000;fill-opacity:1;stroke:none;font-family:Bitstream Vera Sans"><tspan
         x="-218.82303"
         y="163.59265"
         id="tspan7101">T C G C</tspan></text>
    <path
       d="m 246.36671,114.19736 -20.33602,9.963 9.66796,18.78115 -15.01507,6.70439"
       inkscape:connector-curvature="0"
       id="path7107"
       style="fill:none;stroke:#000000;stroke-width:1.04039717px;stroke-linecap:butt;stroke-linejoin:miter;stroke-opacity:1" />
    <text
       x="269.30463"
       y="117.80863"
       id="text7109"
       xml:space="preserve"
       style="font-size:10px;font-style:normal;font-weight:normal;fill:#000000;fill-opacity:1;stroke:none;font-family:Bitstream Vera Sans"><tspan
         x="269.30463"
         y="117.80863"
         id="tspan7111"
         style="font-size:13px">Site of cleavage</tspan></text>
    <g
       transform="matrix(1.0637667,0,0,1.0172946,32.055677,43.524917)"
       id="g7153">
      <path
         d="m 168.3093,103.44527 a 55.558392,58.083771 0 0 1 80.13125,11.85503 l -45.39989,33.48043 z"
         transform="matrix(1.416995,0,0,1.3409263,-163.12336,172.92932)"
         id="path7133"
         style="fill:#000000;fill-opacity:1;stroke:#000000;stroke-width:1.4761833;stroke-linecap:round;stroke-linejoin:miter;stroke-miterlimit:4;stroke-opacity:1;stroke-dasharray:none;stroke-dashoffset:0" />
      <path
         d="m 254.45707,170.7872 a 55.558392,58.083771 0 0 1 -91.93659,17.73248 l 40.52018,-39.73895 z"
         transform="matrix(1.416995,0,0,1.3409263,-162.12263,172.61401)"
         id="path7135"
         style="fill:#bcded9;fill-opacity:1;stroke:none" />
      <path
         d="m 256.67891,163.91904 a 55.558392,58.083771 0 1 1 -1.38535,-34.87413"
         transform="matrix(1.1038154,0,0,1.0640288,-97.499035,214.32047)"
         id="path7137"
         style="fill:#fff3f3;fill-opacity:1;stroke:#000000;stroke-width:1.4761833;stroke-linecap:round;stroke-linejoin:miter;stroke-miterlimit:4;stroke-opacity:1;stroke-dasharray:none;stroke-dashoffset:0" />
      <path
         d="m 256.00017,166.33771 a 55.558392,58.083771 0 1 1 1.03653,-31.23457"
         transform="matrix(1.4158103,0,0,1.3583593,-161.14761,170.73037)"
         id="path7139"
         style="fill:none;stroke:#060000;stroke-width:1.4761833;stroke-linecap:round;stroke-linejoin:miter;stroke-miterlimit:4;stroke-opacity:1;stroke-dasharray:none;stroke-dashoffset:0" />
      <path
         d="m 202.24951,355.27274 -2.33251,0.76416 -1.03667,-2.80194 2.85085,-1.01889 -1.29584,-2.80194 -2.59169,1.01889 -1.03667,-2.54722 3.36919,-1.2736 -1.81418,-3.56611 -3.11002,1.27361 -1.03667,-3.05666 3.11002,-1.01888"
         inkscape:connector-curvature="0"
         id="path7145"
         style="fill:none;stroke:#000000;stroke-width:1.01741207px;stroke-linecap:butt;stroke-linejoin:miter;stroke-opacity:1" />
      <path
         d="m 194.63085,410.20696 -2.21175,-1.05549 1.25076,-2.7162 2.76363,1.2293 1.06539,-2.89422 -2.57825,-1.05131 1.06964,-2.534 3.31549,1.40312 1.23798,-3.79683 -3.13011,-1.22512 1.43188,-2.89842 2.94901,1.40732"
         inkscape:connector-curvature="0"
         id="path7147"
         style="fill:none;stroke:#000000;stroke-width:1.01741207px;stroke-linecap:butt;stroke-linejoin:miter;stroke-opacity:1" />
      <path
         d="m 185.2704,351.42133 2.27515,-1.08488 -1.30961,-2.69738 -2.84347,1.26608 -1.11952,-2.87778 2.65339,-1.0857 -1.12141,-2.51776 -3.41181,1.4473 -1.30387,-3.77745 3.2217,-1.26687 -1.49776,-2.87702 -3.03356,1.4465"
         inkscape:connector-curvature="0"
         id="path7149"
         style="fill:none;stroke:#000000;stroke-width:1.0332526px;stroke-linecap:butt;stroke-linejoin:miter;stroke-opacity:1" />
      <path
         d="m 186.71951,388.9974 2.2891,0.88189 -1.03035,2.80419 -2.85315,-1.01268 -0.83134,2.96738 2.65413,0.84949 -0.86432,2.60861 -3.41717,-1.14345 -0.93144,3.88049 3.21817,0.98027 -1.19638,2.99979 -3.05215,-1.17587"
         inkscape:connector-curvature="0"
         id="path7151"
         style="fill:none;stroke:#000000;stroke-width:1.01741207px;stroke-linecap:butt;stroke-linejoin:miter;stroke-opacity:1" />
    </g>
    <path
       d="m 168.28937,266.02603 0,56.42912"
       inkscape:connector-curvature="0"
       id="path7163"
       style="fill:none;stroke:#000000;stroke-width:2.56837082;stroke-linecap:round;stroke-linejoin:miter;stroke-miterlimit:4;stroke-opacity:1;stroke-dasharray:none;marker-end:url(#TriangleOutL)" />
    <text
       x="204.65486"
       y="292.56503"
       id="text8332"
       xml:space="preserve"
       style="font-size:10px;font-style:normal;font-weight:normal;fill:#000000;fill-opacity:1;stroke:none;font-family:Bitstream Vera Sans"><tspan
         x="204.65486"
         y="292.56503"
         id="tspan8334" /></text>
    <text
       x="197.5838"
       y="297.61578"
       id="text8340"
       xml:space="preserve"
       style="font-size:10px;font-style:normal;font-weight:normal;fill:#000000;fill-opacity:1;stroke:none;font-family:Bitstream Vera Sans"><tspan
         x="197.5838"
         y="297.61578"
         id="tspan8342" /></text>
    <text
       x="183.44165"
       y="292.56503"
       id="text8348"
       xml:space="preserve"
       style="font-size:10px;font-style:normal;font-weight:normal;fill:#000000;fill-opacity:1;stroke:none;font-family:Bitstream Vera Sans"><tspan
         x="183.44165"
         y="292.56503"
         id="tspan8350"
         style="font-size:13px">Cleavage by Restriction </tspan><tspan
         x="183.44165"
         y="308.81503"
         id="tspan8352"
         style="font-size:13px">Endonucleases</tspan></text>
    <g
       transform="translate(312.03153,305.69458)"
       id="g8354">
      <path
         d="m 168.3093,103.44527 a 55.558392,58.083771 0 0 1 80.13125,11.85503 l -45.39989,33.48043 z"
         transform="matrix(1.3807456,0,0,1.3294309,-170.20585,-84.055691)"
         id="path8356"
         style="fill:#000000;fill-opacity:1;stroke:#000000;stroke-width:1.4761833;stroke-linecap:round;stroke-linejoin:miter;stroke-miterlimit:4;stroke-opacity:1;stroke-dasharray:none;stroke-dashoffset:0" />
      <path
         d="m 254.45707,170.7872 a 55.558392,58.083771 0 0 1 -91.93659,17.73248 l 40.52018,-39.73895 z"
         transform="matrix(1.3807456,0,0,1.3294309,-169.23073,-84.368299)"
         id="path8358"
         style="fill:#bcded9;fill-opacity:1;stroke:none" />
      <path
         d="m 256.67891,163.91904 a 55.558392,58.083771 0 1 1 0.12992,-0.51243"
         transform="matrix(1.0755778,0,0,1.0549071,-106.26032,-43.019382)"
         id="path8360"
         style="fill:#fff3f3;fill-opacity:1;stroke:#000000;stroke-width:1.4761833;stroke-linecap:round;stroke-linejoin:miter;stroke-miterlimit:4;stroke-opacity:1;stroke-dasharray:none;stroke-dashoffset:0" />
      <path
         d="m 168.3093,103.44527 a 55.558392,58.083771 0 1 1 -0.35928,0.3034"
         transform="matrix(1.4168749,0,0,1.3292085,-176.86063,-84.621096)"
         id="path8362"
         style="fill:none;stroke:#060000;stroke-width:1.4761833;stroke-linecap:round;stroke-linejoin:miter;stroke-miterlimit:4;stroke-opacity:1;stroke-dasharray:none;stroke-dashoffset:0" />
    </g>
    <path
       d="m 266.42857,502.29075 9.28572,0 0,-4.64286 20.35714,0 0,5 8.92857,-0.35714 0.35714,4.28571 -38.21428,0.35715 -0.71429,-4.64286 z"
       inkscape:connector-curvature="0"
       id="path8364"
       style="fill:none;stroke:#000000;stroke-width:1px;stroke-linecap:butt;stroke-linejoin:miter;stroke-opacity:1" />
    <path
       d="m 322.66647,507.67395 -4.67968,-8.0203 -4.01015,2.33984 -10.25929,-17.58295 4.31862,-2.51982 -4.80817,-7.53184 3.52169,-2.46832 19.56715,32.8266 -3.65017,2.95679 z"
       inkscape:connector-curvature="0"
       id="path8366"
       style="fill:none;stroke:#000000;stroke-width:1px;stroke-linecap:butt;stroke-linejoin:miter;stroke-opacity:1" />
    <path
       d="m 294.18594,535.62359 7.71471,-5.16796 -2.58399,-3.85736 16.91301,-11.32976 2.78275,4.15408 7.21922,-5.26591 2.68192,3.36186 -31.5502,21.56487 -3.17742,-3.45982 z"
       inkscape:connector-curvature="0"
       id="path8368"
       style="fill:none;stroke:#000000;stroke-width:1px;stroke-linecap:butt;stroke-linejoin:miter;stroke-opacity:1" />
    <path
       d="m 249.91603,509.23791 8.89983,2.64906 1.32453,-4.44992 19.51116,5.80756 -1.42642,4.79222 8.65942,2.20488 -0.88035,4.20949 -36.7281,-10.5596 0.63993,-4.65369 z"
       inkscape:connector-curvature="0"
       id="path8370"
       style="fill:none;stroke:#000000;stroke-width:1px;stroke-linecap:butt;stroke-linejoin:miter;stroke-opacity:1" />
    <path
       d="m 254.22069,502.20385 6.16471,-6.94413 -3.47207,-3.08236 13.51492,-15.22366 3.73915,3.31946 5.66052,-6.91415 3.44208,2.57816 -25.10303,28.81487 -3.94628,-2.54819 z"
       inkscape:connector-curvature="0"
       id="path8372"
       style="fill:none;stroke:#000000;stroke-width:1px;stroke-linecap:butt;stroke-linejoin:miter;stroke-opacity:1" />
    <path
       d="m 288.66672,452.78224 1.65835,9.13644 4.56821,-0.82917 3.6356,20.02987 -4.91961,0.89295 1.94596,8.72125 -4.15303,1.11678 -7.17613,-37.53614 4.44065,-1.53198 z"
       inkscape:connector-curvature="0"
       id="path8374"
       style="fill:none;stroke:#000000;stroke-width:1px;stroke-linecap:butt;stroke-linejoin:miter;stroke-opacity:1" />
    <path
       d="m 286.42857,448.71933 c 0,-0.11905 0,-0.2381 0,0 z"
       inkscape:connector-curvature="0"
       id="path8376"
       style="fill:none;stroke:#000000;stroke-width:1px;stroke-linecap:butt;stroke-linejoin:miter;stroke-opacity:1" />
    <path
       d="M 276.37541,463.16067 249.92478,434.72401"
       inkscape:connector-curvature="0"
       id="path8382"
       style="fill:none;stroke:#000000;stroke-width:2.15878749;stroke-linecap:butt;stroke-linejoin:miter;stroke-miterlimit:4;stroke-opacity:1;stroke-dasharray:none;marker-end:url(#TriangleOutM)" />
    <text
       x="250.71429"
       y="550.50507"
       id="text8386"
       xml:space="preserve"
       style="font-size:10px;font-style:normal;font-weight:normal;fill:#000000;fill-opacity:1;stroke:none;font-family:Bitstream Vera Sans"><tspan
         x="250.71429"
         y="550.50507"
         id="tspan8388">Specified Genes</tspan></text>
    <text
       x="-213.09689"
       y="406.26251"
       transform="matrix(0.4191509,-0.9239965,0.7877328,0.6492593,0,0)"
       id="text8390"
       xml:space="preserve"
       style="font-size:5.24681711px;font-style:normal;font-weight:normal;fill:#000000;fill-opacity:1;stroke:none;font-family:Bitstream Vera Sans"><tspan
         x="-213.09689"
         y="406.26251"
         id="tspan8392">T C G C</tspan></text>
    <text
       x="478.71704"
       y="-27.610096"
       transform="matrix(0.4267222,0.8386203,-1.0126106,0.3534012,0,0)"
       id="text8394"
       xml:space="preserve"
       style="font-size:5.03399086px;font-style:normal;font-weight:normal;fill:#000000;fill-opacity:1;stroke:none;font-family:Bitstream Vera Sans"><tspan
         x="478.71704"
         y="-27.610096"
         id="tspan8396">G C T A</tspan></text>
    <path
       d="m 493.55849,384.48891 -8.33376,4.79822 2.77792,5.80838 -7.07106,3.283"
       inkscape:connector-curvature="0"
       id="path8398"
       style="fill:none;stroke:#000000;stroke-width:1px;stroke-linecap:butt;stroke-linejoin:miter;stroke-opacity:1" />
    <path
       d="m 483.29765,431.33195 9.59857,-0.58479 0.0995,-6.43772 7.79321,0.20955"
       inkscape:connector-curvature="0"
       id="path8400"
       style="fill:none;stroke:#000000;stroke-width:1px;stroke-linecap:butt;stroke-linejoin:miter;stroke-opacity:1" />
    <text
       x="515.47852"
       y="387.88083"
       id="text8402"
       xml:space="preserve"
       style="font-size:10px;font-style:normal;font-weight:normal;fill:#000000;fill-opacity:1;stroke:none;font-family:Bitstream Vera Sans"><tspan
         x="515.47852"
         y="387.88083"
         id="tspan8406"
         style="font-size:13px">Point of attatchment</tspan><tspan
         x="515.47852"
         y="404.13083"
         id="tspan8426"
         style="font-size:13px">and annealing</tspan></text>
    <path
       d="m 265.15295,416.31414 56.41327,-1.33725"
       inkscape:connector-curvature="0"
       id="path8408"
       style="fill:none;stroke:#000000;stroke-width:2.56837082;stroke-linecap:round;stroke-linejoin:miter;stroke-miterlimit:4;stroke-opacity:1;stroke-dasharray:none;marker-end:url(#TriangleOutL)" />
    <text
       x="269.28571"
       y="396.93359"
       id="text8410"
       xml:space="preserve"
       style="font-size:10px;font-style:normal;font-weight:normal;fill:#000000;fill-opacity:1;stroke:none;font-family:Bitstream Vera Sans"><tspan
         x="269.28571"
         y="396.93359"
         id="tspan8412"
         style="font-size:1px">Annealing</tspan></text>
    <text
       x="110.66058"
       y="532.24683"
       id="text8414"
       xml:space="preserve"
       style="font-size:10px;font-style:normal;font-weight:normal;fill:#000000;fill-opacity:1;stroke:none;font-family:Bitstream Vera Sans"><tspan
         x="110.66058"
         y="532.24683"
         id="tspan8416"
         style="font-size:20px">Sticky ends</tspan></text>
    <text
       x="367.80344"
       y="527.24683"
       id="text8418"
       xml:space="preserve"
       style="font-size:10px;font-style:normal;font-weight:normal;fill:#000000;fill-opacity:1;stroke:none;font-family:Bitstream Vera Sans"><tspan
         x="367.80344"
         y="527.24683"
         id="tspan8420"
         style="font-size:20px">Recombinant</tspan><tspan
         x="367.80344"
         y="552.24683"
         id="tspan8422"
         style="font-size:20px">Plasmid DNA</tspan></text>
    <text
       x="261.67151"
       y="392.29779"
       id="text8432"
       xml:space="preserve"
       style="font-size:10px;font-style:normal;font-weight:normal;fill:#000000;fill-opacity:1;stroke:none;font-family:Bitstream Vera Sans"><tspan
         x="261.67151"
         y="392.29779"
         id="tspan8434"
         style="font-size:13px">Annealing</tspan></text>
  </g>
</svg>
