<svg id="85bffa9a-db7f-4b77-aa96-7526301cfa00" data-name="Layer 1" xmlns="http://www.w3.org/2000/svg" xmlns:xlink="http://www.w3.org/1999/xlink" viewBox="0 0 185.54 50"><defs><style>.\36 e18578f-d006-48ce-af5d-14bc0c8b4f50{fill:none;}.\34 da67888-d381-4865-b6a5-1bc322da0ebb{clip-path:url(#d9f3ccef-7a25-4a47-8667-eb5e69fbdbed);}.\37 7746889-875f-4278-86e6-3e8525029f6c{fill:#ba0000;}.\35 d46e85f-57df-4f3b-94e4-1fa26d4f97d2{fill:#003dc9;}</style><clipPath id="d9f3ccef-7a25-4a47-8667-eb5e69fbdbed" transform="translate(-7.3 -5)"><rect class="6e18578f-d006-48ce-af5d-14bc0c8b4f50" width="200" height="60"/></clipPath></defs><title>newsable_logo</title><g class="4da67888-d381-4865-b6a5-1bc322da0ebb"><path class="77746889-875f-4278-86e6-3e8525029f6c" d="M56.23,20.39h4V23a6.2,6.2,0,0,1,5.35-3c3.86,0,6.09,2.59,6.09,6.55V37.51H67.7V27.78c0-2.66-1.33-4.18-3.66-4.18s-3.86,1.59-3.86,4.25v9.66h-4V20.39" transform="translate(-7.3 -5)"/><path class="77746889-875f-4278-86e6-3e8525029f6c" d="M72.72,29v-.06c0-4.9,3.47-8.91,8.36-8.91,5.45,0,8.2,4.28,8.2,9.2,0,.36,0,.71-.07,1.1H76.64a4.77,4.77,0,0,0,4.93,4.34,6.22,6.22,0,0,0,4.64-2l2.3,2a8.66,8.66,0,0,1-7,3.21A8.54,8.54,0,0,1,72.72,29m12.67-1.27c-.26-2.53-1.75-4.51-4.34-4.51-2.4,0-4.08,1.85-4.44,4.51Z" transform="translate(-7.3 -5)"/><polyline class="77746889-875f-4278-86e6-3e8525029f6c" points="80.9 15.39 84.95 15.39 88.39 27.12 92.18 15.33 95.55 15.33 99.34 27.12 102.84 15.39 106.8 15.39 101.19 32.63 97.66 32.63 93.83 20.93 89.97 32.63 86.47 32.63 80.9 15.39"/><path class="77746889-875f-4278-86e6-3e8525029f6c" d="M113,35.27l1.75-2.66a9.69,9.69,0,0,0,5.61,2.11c1.69,0,2.66-.71,2.66-1.85v-.06c0-1.33-1.82-1.78-3.82-2.4-2.53-.71-5.35-1.75-5.35-5v-.07c0-3.27,2.69-5.25,6.09-5.25A11.87,11.87,0,0,1,126.27,22l-1.56,2.79a9.93,9.93,0,0,0-4.83-1.62c-1.52,0-2.4.75-2.4,1.68V25c0,1.26,1.85,1.78,3.86,2.43,2.5.78,5.32,1.91,5.32,5v.07c0,3.6-2.79,5.38-6.35,5.38A11.81,11.81,0,0,1,113,35.27" transform="translate(-7.3 -5)"/><path class="77746889-875f-4278-86e6-3e8525029f6c" d="M127.74,32.58v-.06c0-3.69,2.92-5.51,7.1-5.51a14.31,14.31,0,0,1,4.6.71V27.3c0-2.43-1.49-3.73-4.25-3.73a11.89,11.89,0,0,0-4.89,1.07l-1.07-3.08a14.84,14.84,0,0,1,6.48-1.39c2.56,0,4.47.68,5.67,1.91a7.09,7.09,0,0,1,1.85,5.28V37.51h-3.83V35.37a7,7,0,0,1-5.57,2.5c-3.21,0-6.1-1.85-6.1-5.28m11.77-1.23V30.18a10.89,10.89,0,0,0-3.89-.68c-2.53,0-4,1.07-4,2.85v.07c0,1.65,1.46,2.59,3.34,2.59C137.53,35,139.51,33.52,139.51,31.35Z" transform="translate(-7.3 -5)"/><path class="77746889-875f-4278-86e6-3e8525029f6c" d="M148.7,34.85v2.66h-4V16.9h4v6.35A6.85,6.85,0,0,1,154.53,20c4,0,7.94,3.18,7.94,8.88V29c0,5.67-3.89,8.88-7.94,8.88a7,7,0,0,1-5.83-3M158.49,29v-.06c0-3.31-2.27-5.48-4.9-5.48a5.16,5.16,0,0,0-5,5.48V29a5.16,5.16,0,0,0,5,5.48C156.28,34.46,158.49,32.35,158.49,29Z" transform="translate(-7.3 -5)"/><rect class="77746889-875f-4278-86e6-3e8525029f6c" x="156.26" y="11.9" width="3.95" height="20.61"/><path class="77746889-875f-4278-86e6-3e8525029f6c" d="M168.61,29v-.06c0-4.9,3.47-8.91,8.36-8.91,5.45,0,8.2,4.28,8.2,9.2,0,.36,0,.71-.06,1.1H172.53a4.78,4.78,0,0,0,4.93,4.34,6.21,6.21,0,0,0,4.63-2l2.3,2a8.66,8.66,0,0,1-7,3.21A8.54,8.54,0,0,1,168.61,29m12.67-1.27c-.26-2.53-1.75-4.51-4.34-4.51-2.4,0-4.08,1.85-4.44,4.51Z" transform="translate(-7.3 -5)"/><path class="77746889-875f-4278-86e6-3e8525029f6c" d="M162.13,55a1.18,1.18,0,0,1-1.18-1.18V43.46H57.38a1.18,1.18,0,1,1,0-2.36H162.13a1.18,1.18,0,0,1,1.18,1.18v7.09l4.28-7.51a1.18,1.18,0,0,1,1-.59h8.77a14.2,14.2,0,0,0,13.15-10,1.18,1.18,0,1,1,2.27.62,16.65,16.65,0,0,1-15.43,11.78h-8.08L163.15,54.4a1.18,1.18,0,0,1-1,.6" transform="translate(-7.3 -5)"/><polyline class="5d46e85f-57df-4f3b-94e4-1fa26d4f97d2" points="22.73 38.6 21.39 36.31 20.06 38.6 22.73 38.6"/><polyline class="5d46e85f-57df-4f3b-94e4-1fa26d4f97d2" points="17.84 38.6 20.28 34.4 18.95 32.11 15.18 38.6 17.84 38.6"/><polyline class="5d46e85f-57df-4f3b-94e4-1fa26d4f97d2" points="12.78 38.6 17.75 30.04 16.42 27.75 10.12 38.6 12.78 38.6"/><polyline class="5d46e85f-57df-4f3b-94e4-1fa26d4f97d2" points="7.72 38.6 15.22 25.68 13.89 23.39 5.06 38.6 7.72 38.6"/><polyline class="5d46e85f-57df-4f3b-94e4-1fa26d4f97d2" points="21.46 1.65 0 38.6 2.66 38.6 22.79 3.94 21.46 1.65"/><polyline class="5d46e85f-57df-4f3b-94e4-1fa26d4f97d2" points="28.04 21.04 30.38 17.01 29.05 14.72 25.38 21.04 28.04 21.04"/><polyline class="5d46e85f-57df-4f3b-94e4-1fa26d4f97d2" points="22.98 21.04 27.85 12.65 26.52 10.37 20.32 21.04 22.98 21.04"/><polyline class="5d46e85f-57df-4f3b-94e4-1fa26d4f97d2" points="17.92 21.04 25.32 8.3 23.99 6.01 15.27 21.04 17.92 21.04"/><path class="5d46e85f-57df-4f3b-94e4-1fa26d4f97d2" d="M66.76,12.16q0,.8,0,1.42c0,.41,0,.81,0,1.21s0,.8.06,1.22.06.89.1,1.41H63.19L63,15.83a3.57,3.57,0,0,1-1.4,1.37,3.73,3.73,0,0,1-1.74.43,3.32,3.32,0,0,1-1.39-.3,3.36,3.36,0,0,1-1.18-.9,4.51,4.51,0,0,1-.82-1.5,6.59,6.59,0,0,1-.3-2.1,5.38,5.38,0,0,1,.47-2.27A5.58,5.58,0,0,1,57.9,8.79a5.7,5.7,0,0,1,1.85-1.16A6.07,6.07,0,0,1,62,7.22a11.89,11.89,0,0,1,1.61.09,7.54,7.54,0,0,1,1.2.27L67,7q-.08.73-.13,1.34t-.08,1.22c0,.4,0,.81,0,1.23s0,.88,0,1.37m-6.63-.24a3.81,3.81,0,0,0,.46,2.18,1.4,1.4,0,0,0,1.17.63,1.5,1.5,0,0,0,.66-.16A1.38,1.38,0,0,0,63,14c0-.31,0-.63,0-1s0-.69,0-1.08q0-1.63-.06-2.37a2.17,2.17,0,0,0-.45-.15,3.07,3.07,0,0,0-.61-.05,1.64,1.64,0,0,0-1.26.59A2.81,2.81,0,0,0,60.13,11.93Z" transform="translate(-7.3 -5)"/><path class="5d46e85f-57df-4f3b-94e4-1fa26d4f97d2" d="M75.84,10.08a4.65,4.65,0,0,0-1.23-.34,9.92,9.92,0,0,0-1.36-.09,2.47,2.47,0,0,0-1.09.16.45.45,0,0,0-.27.37.44.44,0,0,0,.21.36,3.85,3.85,0,0,0,1,.36l1,.3a4.14,4.14,0,0,1,2,1.14,3,3,0,0,1,.66,2,2.82,2.82,0,0,1-.33,1.37,3.09,3.09,0,0,1-.92,1,4.46,4.46,0,0,1-1.38.65,6.34,6.34,0,0,1-1.74.23,13.68,13.68,0,0,1-2.46-.19,8.42,8.42,0,0,1-1.87-.58l.63-2.32a5.91,5.91,0,0,0,1.48.51,7.63,7.63,0,0,0,1.58.18,3.28,3.28,0,0,0,1.17-.15.44.44,0,0,0,.11-.82,4.46,4.46,0,0,0-1.08-.42l-1-.31A4.07,4.07,0,0,1,69,12.49a2.79,2.79,0,0,1-.66-2,2.67,2.67,0,0,1,.32-1.27,3.06,3.06,0,0,1,.9-1A4.75,4.75,0,0,1,71,7.48a5.93,5.93,0,0,1,1.82-.26,14.54,14.54,0,0,1,2,.13,9.1,9.1,0,0,1,1.65.38l-.67,2.35" transform="translate(-7.3 -5)"/><path class="5d46e85f-57df-4f3b-94e4-1fa26d4f97d2" d="M81.65,12.6c0,.47,0,.9,0,1.29s0,.76,0,1.14,0,.75.06,1.14.05.81.08,1.27H77.76c0-.46.05-.88.08-1.27s0-.77.06-1.14,0-.75,0-1.14,0-.81,0-1.29,0-1,0-1.36,0-.81,0-1.21,0-.8,0-1.21,0-.87-.09-1.36h4.06c0,.5-.07,1-.09,1.36s0,.81-.05,1.21,0,.79,0,1.21,0,.87,0,1.36" transform="translate(-7.3 -5)"/><path class="5d46e85f-57df-4f3b-94e4-1fa26d4f97d2" d="M93.68,12.16q0,.8,0,1.42t0,1.21c0,.39,0,.8.06,1.22s.06.89.1,1.41H90.11l-.2-1.59a3.55,3.55,0,0,1-1.4,1.37,3.72,3.72,0,0,1-1.74.43,3.31,3.31,0,0,1-1.39-.3,3.37,3.37,0,0,1-1.18-.9,4.5,4.5,0,0,1-.82-1.5,6.55,6.55,0,0,1-.3-2.1,5.38,5.38,0,0,1,.47-2.27,5.58,5.58,0,0,1,1.27-1.77,5.68,5.68,0,0,1,1.85-1.16,6.06,6.06,0,0,1,2.22-.41,11.93,11.93,0,0,1,1.61.09,7.55,7.55,0,0,1,1.2.27L93.93,7q-.08.73-.13,1.34t-.08,1.22q0,.6,0,1.23t0,1.37M87,11.93a3.83,3.83,0,0,0,.46,2.18,1.4,1.4,0,0,0,1.17.63,1.49,1.49,0,0,0,.66-.16,1.39,1.39,0,0,0,.56-.53c0-.31,0-.63,0-1s0-.69,0-1.08q0-1.63-.06-2.37a2.12,2.12,0,0,0-.45-.15,3.06,3.06,0,0,0-.61-.05,1.63,1.63,0,0,0-1.25.59A2.8,2.8,0,0,0,87,11.93Z" transform="translate(-7.3 -5)"/><path class="5d46e85f-57df-4f3b-94e4-1fa26d4f97d2" d="M99.52,9a3.84,3.84,0,0,1,1.36-1.37,3.53,3.53,0,0,1,1.78-.45,2.89,2.89,0,0,1,1.23.26,3,3,0,0,1,1,.73,3.41,3.41,0,0,1,.65,1.1,4.06,4.06,0,0,1,.23,1.4q0,.47,0,.86c0,.26,0,.52,0,.78s0,.53,0,.81,0,.59,0,.91V15c0,.26,0,.52,0,.77s0,.52,0,.79,0,.57.07.89H101.7c0-.31,0-.6.07-.84s0-.5,0-.75,0-.5,0-.77,0-.55,0-.86V12.71a9.81,9.81,0,0,0-.08-1.24,1.9,1.9,0,0,0-.38-1,.87.87,0,0,0-.66-.31,1.23,1.23,0,0,0-.64.16,1.67,1.67,0,0,0-.52.55q-.06.61-.08,1.35c0,.5,0,1,0,1.57v1q0,.44,0,.85c0,.27,0,.56,0,.85s0,.62,0,1H95.5q0-.69.08-1.27c0-.39,0-.77.06-1.14s0-.75,0-1.14,0-.81,0-1.29,0-1,0-1.36,0-.81,0-1.21,0-.8,0-1.21S95.54,8,95.5,7.46h3.85L99.52,9" transform="translate(-7.3 -5)"/><path class="5d46e85f-57df-4f3b-94e4-1fa26d4f97d2" d="M110.73,13.17a2,2,0,0,0,.75,1.31,3.1,3.1,0,0,0,1.82.43,7.49,7.49,0,0,0,1.92-.23,5.51,5.51,0,0,0,1.55-.68l.55,2.35a6.76,6.76,0,0,1-2.11,1,10.23,10.23,0,0,1-2.62.29,7.32,7.32,0,0,1-2.3-.34,5,5,0,0,1-1.79-1,4.56,4.56,0,0,1-1.16-1.64,5.68,5.68,0,0,1-.41-2.23,5.23,5.23,0,0,1,.41-2.08,4.85,4.85,0,0,1,1.15-1.65,5.37,5.37,0,0,1,1.76-1.08,6.14,6.14,0,0,1,2.22-.39,5.68,5.68,0,0,1,2,.33,4.19,4.19,0,0,1,1.55,1,4.61,4.61,0,0,1,1,1.62,6.22,6.22,0,0,1,.36,2.2v.36c0,.12,0,.27,0,.44h-6.63m1.49-3.81a1.24,1.24,0,0,0-1.08.49,2.53,2.53,0,0,0-.43,1.24h3a2.32,2.32,0,0,0-.42-1.26A1.23,1.23,0,0,0,112.22,9.36Z" transform="translate(-7.3 -5)"/><path class="5d46e85f-57df-4f3b-94e4-1fa26d4f97d2" d="M122.89,10v1c0,.35,0,.68,0,1l0,.88a5.86,5.86,0,0,0,.05.69,1.34,1.34,0,0,0,.41,1,1.3,1.3,0,0,0,.86.31,3.14,3.14,0,0,0,.81-.1,2.68,2.68,0,0,0,.74-.33l.49,2.08a4.18,4.18,0,0,1-1.58.78,7.62,7.62,0,0,1-2.15.29,3.88,3.88,0,0,1-1.37-.24,3,3,0,0,1-1.08-.69,3.16,3.16,0,0,1-.71-1.09,3.88,3.88,0,0,1-.26-1.46q0-.55,0-1c0-.32,0-.64,0-1s0-.64,0-1,0-.73,0-1.16h-1.43V7.46h1.43V6.21q0-.54,0-1.21h3.92c-.05.54,0,.35-.08.9S123,7,123,7.46h2.77V10h-2.87" transform="translate(-7.3 -5)"/><polyline class="77746889-875f-4278-86e6-3e8525029f6c" points="15.22 25.7 35.41 25.7 34.08 23.39 13.89 23.39 15.22 25.7"/><polyline class="77746889-875f-4278-86e6-3e8525029f6c" points="17.75 30.05 37.95 30.05 36.61 27.75 16.42 27.75 17.75 30.05"/><polyline class="77746889-875f-4278-86e6-3e8525029f6c" points="20.29 34.41 40.48 34.41 39.15 32.11 18.95 32.11 20.29 34.41"/><polyline class="77746889-875f-4278-86e6-3e8525029f6c" points="22.73 38.6 42.92 38.6 41.59 36.3 21.39 36.3 22.73 38.6"/></g></svg>