<?xml version="1.0" encoding="UTF-8" standalone="no"?>
<!-- Created with Inkscape (http://www.inkscape.org/) -->
<svg
   xmlns:svg="http://www.w3.org/2000/svg"
   xmlns="http://www.w3.org/2000/svg"
   xmlns:xlink="http://www.w3.org/1999/xlink"
   version="1.0"
   width="270"
   height="270"
   id="svg2">
  <defs
     id="defs4" />
  <g
     transform="translate(-211.62697,-244.24014)"
     id="layer1">
    <path
       d="M 313.1473,382.63104 A 13.131983,13.131983 0 1 1 286.88334,382.63104 A 13.131983,13.131983 0 1 1 313.1473,382.63104 z"
       transform="translate(-69.256365,-121.25892)"
       id="path2396"
       style="opacity:1;fill:#000000;fill-opacity:1;stroke:none;stroke-width:17;stroke-linecap:round;stroke-miterlimit:4;stroke-dasharray:none;stroke-dashoffset:0;stroke-opacity:1" />
    <use
       id="use2432"
       style="fill:#000000"
       x="0"
       y="0"
       width="744.09448"
       height="1052.3622"
       xlink:href="#path2396" />
    <use
       transform="translate(0,78.791897)"
       id="use2434"
       style="fill:#000000"
       x="0"
       y="0"
       width="744.09448"
       height="1052.3622"
       xlink:href="#path2396" />
    <use
       transform="translate(0,157.58379)"
       id="use2436"
       style="fill:#000000"
       x="0"
       y="0"
       width="744.09448"
       height="1052.3622"
       xlink:href="#path2396" />
    <use
       transform="translate(78.791897,0)"
       id="use2438"
       style="fill:#000000"
       x="0"
       y="0"
       width="744.09448"
       height="1052.3622"
       xlink:href="#path2396" />
    <use
       transform="translate(78.791897,78.791897)"
       id="use2440"
       style="fill:#000000"
       x="0"
       y="0"
       width="744.09448"
       height="1052.3622"
       xlink:href="#path2396" />
    <use
       transform="translate(78.791897,157.58379)"
       id="use2442"
       style="fill:#000000"
       x="0"
       y="0"
       width="744.09448"
       height="1052.3622"
       xlink:href="#path2396" />
    <use
       transform="translate(157.58379,0)"
       id="use2444"
       style="fill:#000000"
       x="0"
       y="0"
       width="744.09448"
       height="1052.3622"
       xlink:href="#path2396" />
    <use
       transform="translate(157.58379,78.791897)"
       id="use2446"
       style="fill:#000000"
       x="0"
       y="0"
       width="744.09448"
       height="1052.3622"
       xlink:href="#path2396" />
    <use
       transform="translate(157.58379,157.58379)"
       id="use2448"
       style="fill:#000000"
       x="0"
       y="0"
       width="744.09448"
       height="1052.3622"
       xlink:href="#path2396" />
    <path
       d="M 221.59375,257.375 L 227.78125,263.53125 L 227.78125,500.28125 L 227.78125,509.9375 L 234.59375,503.09375 L 350.96875,386.71875 L 387.03125,422.78125 L 392.6875,417.125 L 356.625,381.0625 L 473.5,264.1875 L 480.3125,257.375 L 470.65625,257.375 L 231.25,257.375 L 221.59375,257.375 z M 240.9375,265.375 L 461,265.375 L 350.96875,375.40625 L 240.9375,265.375 z M 235.78125,271.53125 L 345.3125,381.0625 L 235.78125,490.59375 L 235.78125,271.53125 z"
       id="path2472"
       style="fill:#000000;fill-opacity:1;fill-rule:evenodd;stroke:none;stroke-width:8;stroke-linecap:butt;stroke-linejoin:miter;stroke-opacity:1" />
  </g>
</svg>
