<?xml version="1.0" encoding="utf-8"?>
<!-- Generator: Adobe Illustrator 18.1.1, SVG Export Plug-In . SVG Version: 6.00 Build 0)  -->
<svg version="1.1" id="Layer_1" xmlns="http://www.w3.org/2000/svg" xmlns:xlink="http://www.w3.org/1999/xlink" x="0px" y="0px"
	 viewBox="0 0 202 200" enable-background="new 0 0 202 200" xml:space="preserve">
<g>
	<g>
		<path d="M25.879,144.759c0,1.385-0.846,2.129-1.877,2.129c-1.073,0-1.817-0.834-1.817-2.058c0-1.283,0.792-2.122,1.871-2.122
			C25.165,142.708,25.879,143.553,25.879,144.759z M22.736,144.818c0,0.869,0.468,1.644,1.296,1.644c0.827,0,1.295-0.762,1.295-1.68
			c0-0.81-0.42-1.648-1.289-1.648C23.168,143.134,22.736,143.937,22.736,144.818z"/>
		<path d="M27.038,146.821v-4.042h0.576l1.289,2.045c0.294,0.474,0.534,0.899,0.72,1.313l0.018-0.006
			c-0.048-0.54-0.06-1.031-0.06-1.661v-1.691h0.492v4.042h-0.528l-1.283-2.051c-0.281-0.45-0.552-0.911-0.749-1.35l-0.019,0.006
			c0.03,0.51,0.036,0.996,0.036,1.668v1.727H27.038z"/>
		<path d="M33.554,144.927h-1.565v1.457h1.751v0.438h-2.278v-4.042h2.188v0.438h-1.661v1.277h1.565V144.927z"/>
		<path d="M40.104,144.759c0,1.385-0.846,2.129-1.877,2.129c-1.073,0-1.817-0.834-1.817-2.058c0-1.283,0.792-2.122,1.871-2.122
			C39.391,142.708,40.104,143.553,40.104,144.759z M36.962,144.818c0,0.869,0.468,1.644,1.296,1.644c0.827,0,1.295-0.762,1.295-1.68
			c0-0.81-0.42-1.648-1.289-1.648C37.394,143.134,36.962,143.937,36.962,144.818z"/>
		<path d="M41.259,142.779h2.177v0.438h-1.649v1.344h1.523v0.432h-1.523v1.829h-0.527V142.779z"/>
		<path d="M47.072,145.55l-0.42,1.271h-0.54l1.38-4.042h0.623l1.38,4.042h-0.558l-0.433-1.271H47.072z M48.403,145.143l-0.401-1.164
			c-0.091-0.264-0.15-0.503-0.21-0.737h-0.013c-0.06,0.234-0.119,0.485-0.203,0.731l-0.396,1.17H48.403z"/>
		<path d="M52.322,142.779h0.521v1.949h0.019c0.107-0.156,0.216-0.3,0.317-0.432l1.235-1.518h0.647l-1.463,1.715l1.577,2.327h-0.618
			l-1.325-1.985l-0.39,0.444v1.541h-0.521V142.779z"/>
		<path d="M56.576,142.779v4.042h-0.528v-4.042H56.576z"/>
		<path d="M57.968,146.821v-4.042h0.576l1.289,2.045c0.294,0.474,0.534,0.899,0.72,1.313l0.018-0.006
			c-0.048-0.54-0.06-1.031-0.06-1.661v-1.691h0.492v4.042h-0.528l-1.283-2.051c-0.281-0.45-0.552-0.911-0.749-1.35l-0.019,0.006
			c0.03,0.51,0.036,0.996,0.036,1.668v1.727H57.968z"/>
		<path d="M62.396,142.84c0.317-0.055,0.695-0.09,1.109-0.09c0.75,0,1.283,0.18,1.637,0.503c0.366,0.33,0.576,0.798,0.576,1.451
			c0,0.66-0.21,1.199-0.582,1.571c-0.384,0.378-1.007,0.582-1.793,0.582c-0.378,0-0.684-0.019-0.947-0.048V142.84z M62.918,146.413
			c0.132,0.019,0.324,0.024,0.528,0.024c1.121,0,1.721-0.624,1.721-1.715c0.006-0.954-0.534-1.56-1.637-1.56
			c-0.271,0-0.475,0.024-0.612,0.054V146.413z"/>
		<path d="M66.309,147.564c0.132-0.359,0.294-1.001,0.359-1.438l0.588-0.061c-0.144,0.51-0.407,1.176-0.575,1.457L66.309,147.564z"
			/>
		<path d="M72.229,144.927h-1.564v1.457h1.751v0.438h-2.279v-4.042h2.189v0.438h-1.661v1.277h1.564V144.927z"/>
		<path d="M73.574,146.821v-4.042h0.575l1.29,2.045c0.294,0.474,0.533,0.899,0.72,1.313l0.018-0.006
			c-0.048-0.54-0.06-1.031-0.06-1.661v-1.691h0.491v4.042h-0.527l-1.283-2.051c-0.282-0.45-0.552-0.911-0.75-1.35l-0.018,0.006
			c0.029,0.51,0.035,0.996,0.035,1.668v1.727H73.574z"/>
		<path d="M80.089,144.927h-1.565v1.457h1.751v0.438h-2.278v-4.042h2.188v0.438h-1.661v1.277h1.565V144.927z"/>
		<path d="M81.434,142.833c0.265-0.048,0.648-0.083,1.002-0.083c0.558,0,0.924,0.107,1.169,0.329
			c0.198,0.18,0.318,0.456,0.318,0.773c0,0.528-0.336,0.882-0.756,1.025v0.019c0.306,0.107,0.492,0.396,0.588,0.815
			c0.132,0.563,0.228,0.953,0.312,1.109h-0.539c-0.066-0.12-0.156-0.462-0.265-0.966c-0.119-0.558-0.342-0.768-0.815-0.785h-0.491
			v1.751h-0.522V142.833z M81.956,144.675h0.533c0.558,0,0.912-0.307,0.912-0.768c0-0.522-0.378-0.75-0.93-0.75
			c-0.252,0-0.426,0.018-0.516,0.042V144.675z"/>
		<path d="M88.242,146.642c-0.234,0.09-0.702,0.222-1.248,0.222c-0.611,0-1.115-0.156-1.511-0.534
			c-0.348-0.335-0.563-0.875-0.563-1.505c0-1.205,0.833-2.087,2.188-2.087c0.468,0,0.84,0.103,1.014,0.187l-0.132,0.426
			c-0.216-0.103-0.486-0.175-0.894-0.175c-0.983,0-1.625,0.612-1.625,1.626c0,1.025,0.611,1.631,1.559,1.631
			c0.342,0,0.576-0.048,0.696-0.108v-1.205h-0.815v-0.42h1.331V146.642z"/>
		<path d="M90.415,146.821v-1.715l-1.283-2.327h0.6l0.569,1.115c0.15,0.307,0.276,0.552,0.402,0.834h0.012
			c0.108-0.264,0.252-0.527,0.408-0.834l0.581-1.115h0.588l-1.35,2.321v1.721H90.415z"/>
		<path d="M94.993,142.84c0.229-0.055,0.594-0.09,0.954-0.09c0.521,0,0.857,0.09,1.104,0.293c0.21,0.156,0.342,0.396,0.342,0.714
			c0,0.396-0.264,0.737-0.684,0.888v0.018c0.384,0.09,0.833,0.408,0.833,1.008c0,0.348-0.138,0.617-0.348,0.81
			c-0.275,0.258-0.731,0.378-1.392,0.378c-0.359,0-0.635-0.024-0.81-0.048V142.84z M95.516,144.494h0.474
			c0.546,0,0.869-0.293,0.869-0.684c0-0.468-0.354-0.659-0.881-0.659c-0.24,0-0.378,0.018-0.462,0.036V144.494z M95.516,146.426
			c0.107,0.018,0.252,0.023,0.438,0.023c0.54,0,1.037-0.197,1.037-0.785c0-0.546-0.474-0.779-1.043-0.779h-0.432V146.426z"/>
		<path d="M99.379,145.55l-0.42,1.271H98.42l1.379-4.042h0.624l1.379,4.042h-0.558l-0.432-1.271H99.379z M100.71,145.143
			l-0.401-1.164c-0.09-0.264-0.149-0.503-0.21-0.737h-0.012c-0.061,0.234-0.12,0.485-0.204,0.731l-0.396,1.17H100.71z"/>
		<path d="M102.871,142.779h0.528v3.604h1.727v0.438h-2.255V142.779z"/>
		<path d="M106.843,145.55l-0.42,1.271h-0.539l1.379-4.042h0.624l1.379,4.042h-0.558l-0.432-1.271H106.843z M108.174,145.143
			l-0.401-1.164c-0.09-0.264-0.149-0.503-0.21-0.737h-0.012c-0.061,0.234-0.12,0.485-0.204,0.731l-0.396,1.17H108.174z"/>
		<path d="M110.341,146.821v-4.042h0.576l1.289,2.045c0.294,0.474,0.534,0.899,0.72,1.313l0.018-0.006
			c-0.048-0.54-0.06-1.031-0.06-1.661v-1.691h0.492v4.042h-0.528l-1.283-2.051c-0.281-0.45-0.552-0.911-0.749-1.35l-0.019,0.006
			c0.03,0.51,0.036,0.996,0.036,1.668v1.727H110.341z"/>
		<path d="M117.588,146.695c-0.186,0.096-0.575,0.192-1.067,0.192c-1.14,0-1.991-0.72-1.991-2.052c0-1.271,0.857-2.122,2.111-2.122
			c0.497,0,0.821,0.107,0.959,0.18l-0.132,0.426c-0.191-0.096-0.474-0.168-0.81-0.168c-0.947,0-1.577,0.605-1.577,1.667
			c0,0.995,0.57,1.625,1.548,1.625c0.323,0,0.647-0.065,0.857-0.168L117.588,146.695z"/>
		<path d="M119.251,142.779v4.042h-0.527v-4.042H119.251z"/>
		<path d="M120.644,146.821v-4.042h0.575l1.29,2.045c0.294,0.474,0.533,0.899,0.72,1.313l0.018-0.006
			c-0.048-0.54-0.06-1.031-0.06-1.661v-1.691h0.491v4.042h-0.527l-1.283-2.051c-0.282-0.45-0.552-0.911-0.75-1.35l-0.018,0.006
			c0.029,0.51,0.035,0.996,0.035,1.668v1.727H120.644z"/>
		<path d="M128.153,146.642c-0.233,0.09-0.701,0.222-1.247,0.222c-0.611,0-1.115-0.156-1.511-0.534
			c-0.349-0.335-0.564-0.875-0.564-1.505c0-1.205,0.834-2.087,2.189-2.087c0.468,0,0.839,0.103,1.013,0.187l-0.132,0.426
			c-0.216-0.103-0.485-0.175-0.894-0.175c-0.983,0-1.625,0.612-1.625,1.626c0,1.025,0.612,1.631,1.56,1.631
			c0.342,0,0.575-0.048,0.695-0.108v-1.205h-0.815v-0.42h1.331V146.642z"/>
		<path d="M129.067,147.564c0.132-0.359,0.294-1.001,0.359-1.438l0.588-0.061c-0.144,0.51-0.407,1.176-0.575,1.457L129.067,147.564z
			"/>
		<path d="M133.423,142.779v1.691h1.955v-1.691h0.527v4.042h-0.527v-1.895h-1.955v1.895h-0.528v-4.042H133.423z"/>
		<path d="M139.38,144.927h-1.565v1.457h1.751v0.438h-2.278v-4.042h2.188v0.438h-1.661v1.277h1.565V144.927z"/>
		<path d="M141.379,145.55l-0.42,1.271h-0.54l1.38-4.042h0.623l1.38,4.042h-0.558l-0.433-1.271H141.379z M142.71,145.143
			l-0.401-1.164c-0.091-0.264-0.15-0.503-0.21-0.737h-0.013c-0.06,0.234-0.119,0.485-0.203,0.731l-0.396,1.17H142.71z"/>
		<path d="M144.871,142.779h0.527v3.604h1.728v0.438h-2.255V142.779z"/>
		<path d="M148.711,142.779v4.042h-0.528v-4.042H148.711z"/>
		<path d="M150.103,146.821v-4.042h0.576l1.289,2.045c0.294,0.474,0.534,0.899,0.72,1.313l0.018-0.006
			c-0.048-0.54-0.06-1.031-0.06-1.661v-1.691h0.492v4.042h-0.528l-1.283-2.051c-0.281-0.45-0.552-0.911-0.749-1.35l-0.019,0.006
			c0.03,0.51,0.036,0.996,0.036,1.668v1.727H150.103z"/>
		<path d="M157.613,146.642c-0.234,0.09-0.702,0.222-1.248,0.222c-0.611,0-1.115-0.156-1.511-0.534
			c-0.348-0.335-0.563-0.875-0.563-1.505c0-1.205,0.833-2.087,2.188-2.087c0.468,0,0.84,0.103,1.014,0.187l-0.132,0.426
			c-0.216-0.103-0.486-0.175-0.894-0.175c-0.983,0-1.625,0.612-1.625,1.626c0,1.025,0.611,1.631,1.559,1.631
			c0.342,0,0.576-0.048,0.696-0.108v-1.205h-0.815v-0.42h1.331V146.642z"/>
		<path d="M160.639,142.827c0.252-0.042,0.582-0.077,1.001-0.077c0.517,0,0.894,0.119,1.134,0.335
			c0.216,0.192,0.354,0.486,0.354,0.846c0,0.366-0.107,0.654-0.312,0.863c-0.282,0.294-0.726,0.444-1.235,0.444
			c-0.156,0-0.3-0.006-0.42-0.036v1.619h-0.521V142.827z M161.16,144.776c0.114,0.03,0.258,0.042,0.432,0.042
			c0.63,0,1.014-0.312,1.014-0.857c0-0.54-0.384-0.798-0.953-0.798c-0.229,0-0.402,0.019-0.492,0.042V144.776z"/>
		<path d="M164.832,142.779v4.042h-0.527v-4.042H164.832z"/>
		<path d="M168.312,144.927h-1.565v1.457h1.751v0.438h-2.278v-4.042h2.188v0.438h-1.661v1.277h1.565V144.927z"/>
		<path d="M172.476,146.695c-0.187,0.096-0.576,0.192-1.067,0.192c-1.14,0-1.991-0.72-1.991-2.052c0-1.271,0.857-2.122,2.11-2.122
			c0.498,0,0.822,0.107,0.96,0.18l-0.132,0.426c-0.192-0.096-0.474-0.168-0.81-0.168c-0.947,0-1.577,0.605-1.577,1.667
			c0,0.995,0.569,1.625,1.547,1.625c0.324,0,0.647-0.065,0.857-0.168L172.476,146.695z"/>
		<path d="M175.704,144.927h-1.565v1.457h1.751v0.438h-2.278v-4.042h2.188v0.438h-1.661v1.277h1.565V144.927z"/>
		<path d="M176.982,146.186c0.234,0.15,0.569,0.264,0.93,0.264c0.533,0,0.846-0.281,0.846-0.689c0-0.372-0.216-0.594-0.762-0.798
			c-0.66-0.239-1.067-0.587-1.067-1.151c0-0.629,0.521-1.097,1.308-1.097c0.407,0,0.713,0.096,0.887,0.197l-0.144,0.426
			c-0.126-0.078-0.396-0.191-0.762-0.191c-0.552,0-0.762,0.33-0.762,0.605c0,0.378,0.246,0.563,0.804,0.779
			c0.684,0.264,1.025,0.594,1.025,1.188c0,0.624-0.456,1.17-1.409,1.17c-0.39,0-0.815-0.12-1.031-0.265L176.982,146.186z"/>
	</g>
	<g id="Color">
		<g>
			<path fill="#094770" d="M81.278,92.408c-0.817,0-1.582,0.356-2.294,1.068l-1.1,0.22l0.566,0.754
				c-0.273,0.712-0.409,3.425-0.409,8.138c-0.084,0.105-0.209,1.037-0.377,2.796l0.377,1.257v8.986l-0.817,0.942
				c0.167,0.461,0.44,1.089,0.817,1.885v4.242c0,0.65,0.342,1.236,1.026,1.759c0.601,0.44,1.254,0.702,1.959,0.786v0.754
				c0.544,0-1.236-0.063-5.341-0.189c-2.053-0.063-3.802,0.042-5.247,0.314v-0.691c1.654-0.46,2.471-1.403,2.451-2.828v-4.713
				c0-0.146,0.314-0.775,0.943-1.885l-0.848-1.068v-5.121c0-0.146,0.167-0.817,0.503-2.011c-0.335-0.984-0.503-1.571-0.503-1.759
				v-2.67c0-0.063,0.079-0.346,0.236-0.848c0.157-0.503,0.225-0.796,0.204-0.88c-0.188-0.817-0.335-1.33-0.44-1.54v-2.388
				l-1.885,4.65c-0.294,0.377-0.712,0.911-1.257,1.602l0.063,1.382c-1.152,2.786-3.079,7.164-5.781,13.134l-0.408,1.697
				c-0.273,0.545-0.566,1.163-0.88,1.854l-1.194,3.865c-0.21,0-0.534,0-0.974,0c-0.461-1.363-0.681-2.328-0.66-2.894
				c-0.21-0.189-0.503-0.472-0.88-0.85c-0.084-0.083-0.932-1.888-2.545-5.412v-1.322l-0.97-0.849
				c-1.754-3.931-2.631-5.938-2.631-6.022l-0.013-1.694l-1.38-1.223c-0.418-0.943-1.097-2.482-2.038-4.618l-0.313-2.042
				l-0.533,0.153l-1.109-2.366v10.645l-0.503,1.57l0.503,1.476v4.145l-0.503,1.256l0.503,0.346v5.056
				c0,2.428,1.372,3.82,4.116,4.176v0.565c-0.251,0-2.105,0-5.561,0l-1.351-0.409c-0.817,0.273-2.001,0.409-3.551,0.409v-0.567
				c2.723-0.587,4.085-2.067,4.085-4.439v-8.469c0.105-0.294,0.22-0.618,0.346-0.975c-0.231-1.175-0.346-1.689-0.346-1.543v-6.044
				l0.346-2.613c0-0.839-0.01-1.364-0.029-1.574c-0.019-0.126-0.077-0.346-0.173-0.661c-0.096-0.314-0.144-0.556-0.144-0.724v-4.597
				h-2.828l-0.566-0.44l-0.943,0.44h-3.142c-1.005-0.021-2.189,0.179-3.55,0.598c-1.362,0.42-2.43,0.934-3.205,1.543l-0.817,0.157
				c0,0.189-0.094,0.525-0.283,1.008c-0.608,0.84-0.911,1.806-0.911,2.898c0,0.609,0.105,1.25,0.314,1.921l-0.314,0.756l0.691,0.378
				c0.586,1.554,1.424,2.688,2.514,3.401l0.188,0.693h1.1c0.691,0.314,1.466,0.472,2.325,0.472c0.46,0,0.921-0.042,1.383-0.126
				l0.943,0.189c0.9-0.67,1.801-1.341,2.702-2.011c0.88-0.837,1.32-1.812,1.32-2.922c0-0.837-0.241-1.812-0.723-2.922l0.408-0.251
				c0.817,1.115,1.225,2.261,1.225,3.44c0,1.283-0.335,2.514-1.006,3.692h-0.628l-0.785,1.885c-1.404,1.341-2.996,2.252-4.776,2.734
				l-1.54-0.409c-0.21-0.063-0.482-0.01-0.817,0.157c-0.335,0.168-0.597,0.252-0.785,0.252c-0.859,0-1.896-0.597-3.111-1.791
				l0.22-1.131l-1.54-0.629c-0.88-1.529-1.32-3.236-1.32-5.121c0-0.754,0.074-1.519,0.22-2.294l0.471-0.534l-0.126-0.723
				c0.67-2.136,1.948-3.854,3.833-5.153l0.754,0.031l0.22-0.66c1.906-1.026,3.54-1.54,4.902-1.54L38.516,92
				c0.566-0.146,1.822-0.22,3.771-0.22L44.548,92l0.44-0.22h2.639l0.157,0.346c0.88-0.042,1.424-0.157,1.634-0.346h1.54
				c0.586,1.11,0.921,1.875,1.006,2.293l0.283,1.603L53,96.43c0.209,0.44,0.901,1.948,2.074,4.523l-0.503,0.754l1.038,0.409
				c0.44,1.006,1.479,3.288,3.115,6.848l-0.002,1.128l0.809,0.727l1.355,2.986l0.094,1.634l1.665,2.262l2.796-6.778l1.006-1.036
				l0.974-3.734l0.786-0.816c0.377-1.632,1.194-3.964,2.451-6.998l0.817-1.067l0.22-1.443l1.54-4.048h1.163
				c0.921,0,2.105,0.168,3.55,0.503l0.943-0.377h2.356L81.278,92.408z"/>
			<path fill="#094770" d="M136.479,126.028h-2.482c-1.487-0.335-3.907-0.346-7.258-0.031l-0.032-0.503
				c2.032-0.419,3.048-1.592,3.048-3.519l0.503-0.817c-0.042-0.104-0.147-0.261-0.314-0.471c-0.147-0.146-0.21-0.303-0.189-0.472
				l0.566-0.754l-0.566-1.477c0-0.817,0-1.435,0-1.854c0-1.173-0.335-2.188-1.006-3.047v-0.597h-0.564
				c-0.647-0.398-1.409-0.597-2.286-0.597c-0.543,0-1.461,0.136-2.755,0.409l-0.47,0.534c-1.169,0.65-2.15,1.32-2.943,2.011v1.163
				l-0.472,0.565l0.472,0.66l0.063,2.577l-0.503,0.691l0.408,0.409c0,1.382,0.146,2.388,0.44,3.016
				c0.419,0.901,1.236,1.425,2.451,1.571v0.534h-9.363v-0.471c1.822-0.419,2.733-1.519,2.733-3.299c0-0.083,0.083-0.204,0.251-0.361
				c0.168-0.157,0.262-0.256,0.283-0.299c-0.168-0.23-0.335-0.534-0.503-0.911v-1.791l0.597-1.288
				c-0.44-1.236-0.66-2.765-0.66-4.587c0.062-0.335-0.168-0.733-0.691-1.194c-0.608-0.523-1.278-0.743-2.011-0.66l-0.032-0.565h2.49
				c0.581,0.188,1.079,0.283,1.494,0.283c0.228,0,0.601-0.047,1.12-0.142c0.518-0.094,1.017-0.141,1.494-0.141v0.503l-0.503,0.345
				l0.503,0.346l-0.063,0.911c0.188-0.155,0.679-0.417,1.473-0.786h0.596l0.564-0.472c1.756-0.691,3.668-1.037,5.736-1.037
				c0.272,0.105,0.574,0.21,0.909,0.314l0.376-0.314c2.78,0.316,4.17,1.304,4.17,2.965c0,0.085-0.074,0.269-0.22,0.553
				c-0.147,0.284-0.21,0.457-0.189,0.52l0.409,0.883v5.237c0,0.042-0.121,0.106-0.361,0.189c-0.241,0.084-0.372,0.147-0.393,0.189
				l0.754,0.252v1.325c0,0.694,0.314,1.341,0.943,1.941c0.629,0.6,1.288,0.962,1.979,1.088V126.028z"/>
			<path fill="#094770" d="M154.734,121.472c0,1.131-0.702,2.147-2.105,3.047l-1.068-0.031v0.566
				c-1.781,0.754-3.634,1.131-5.561,1.131c-0.126,0-0.451-0.084-0.974-0.251c-0.314-0.105-0.618-0.052-0.911,0.157
				c-2.032-0.189-3.697-0.566-4.996-1.131l0.66-0.22l-1.414-0.157c-0.922-0.503-1.456-1.057-1.602-1.665l0.503-0.22l-0.566-0.534
				c0.105-0.837,0.796-1.592,2.074-2.262c0,0.587,0.104,1.1,0.314,1.54l-0.063,0.597c0.146,0.084,0.303,0.126,0.471,0.126
				c0.482,0.754,1.194,1.362,2.137,1.822l0.125,0.471l0.597-0.094c1.466,0.671,2.702,1.006,3.707,1.006
				c1.026,0,1.969-0.303,2.828-0.911h0.377l0.88-0.88l-0.22-0.502c0.482-0.482,0.472-1.026-0.031-1.634l-0.503-0.157
				c-0.608-0.607-2.063-1.236-4.367-1.885l-1.131-0.628c-0.252,0.021-0.786,0.021-1.602,0c-0.566-0.063-1.645-0.429-3.237-1.1
				l0.754-0.377c-1.257-0.167-1.979-0.293-2.168-0.377c-1.006-0.503-1.508-1.32-1.508-2.451l0.503-0.346l-0.251-0.629
				c0.356-0.754,0.911-1.267,1.665-1.54c0.251-0.063,0.628-0.146,1.131-0.251c0.105-0.042,0.555-0.167,1.351-0.377l-0.723-0.126
				c1.822-0.649,3.822-0.974,6.001-0.974c1.822,0,3.425,0.252,4.807,0.754l0.063,0.314l0.943,0.126
				c0.837,0.461,1.403,0.974,1.697,1.54l-0.22,0.22l0.283,0.377c0.021,0.126,0.031,0.262,0.031,0.409
				c0,0.817-0.691,1.55-2.074,2.199c0-0.189-0.053-0.482-0.157-0.88l0.282-0.094l-0.502-0.377c-0.273-0.544-0.639-1.026-1.1-1.445
				l0.157-0.346l-0.66-0.032c-0.545-0.419-1.142-0.754-1.791-1.005l0.472-0.252c-3.038-0.398-4.42-0.597-4.148-0.597
				c-1.215,0-2.074,0.325-2.577,0.974l-0.565,0.534c-0.084,0.377-0.126,0.702-0.126,0.974c0,0.943,0.723,1.739,2.168,2.388
				l0.345,0.345c0.629,0.168,1.466,0.388,2.514,0.66c2.953,0.734,4.545,1.142,4.776,1.225c2.157,0.691,3.508,1.498,4.053,2.419
				l-0.094,0.346L154.734,121.472z"/>
		</g>
		<path fill="#094770" d="M103.677,126.852c-0.31,0.027-0.626,0.044-0.941,0.054c-1.524,0.925-3.33,1.458-5.256,1.458
			c-2.225,0-4.277-0.707-5.931-1.904c0,0-0.005-0.005-0.011-0.005c-0.811-0.522-1.529-1.23-2.155-2.111l-1.524-0.609l0.653-0.784
			c-0.468-0.99-0.8-2.035-1.007-3.14l-0.044-0.044l-0.653-1.703l0.522-0.609c0-1.371,0.103-2.443,0.31-3.232
			c-0.267-0.751-0.495-1.333-0.702-1.741l1.355-0.261c0.473-1.088,1.154-2.008,2.03-2.742c0.201-0.18,0.408-0.337,0.631-0.49
			l-0.092-0.027l-1.175-0.365c0.713-0.093,1.355-0.18,1.926-0.261c0.648-0.501,1.36-0.958,2.122-1.355
			c-0.789-0.098-1.208-0.152-1.262-0.169c-3.112,0.495-5.664,1.6-7.672,3.314l0.267,0.696l-1.66,0.871
			c-0.756,0.876-1.311,1.953-1.66,3.232l0.789,1.349l-1.05,1.181c0,2.269,0.555,3.836,1.66,4.707l-0.174,0.615
			c0.898,1.54,1.774,2.617,2.617,3.227s2.149,1.164,3.923,1.66l1.05,0.696c0.724,0.234,1.48,0.408,2.264,0.522l1.311-0.392
			l1.219,0.566c2.737,0,5.512-0.713,8.336-2.138C103.693,126.917,103.688,126.896,103.677,126.852z"/>
		<path fill="#094770" d="M125.326,129.183c-0.391,0.034-0.789,0.055-1.187,0.069c-1.922,1.167-4.2,1.839-6.63,1.839
			c-2.807,0-5.395-0.892-7.481-2.402c0,0-0.007-0.007-0.014-0.007c-1.023-0.659-1.929-1.551-2.718-2.663l-1.922-0.769l0.824-0.988
			c-0.59-1.249-1.009-2.567-1.27-3.96l-0.055-0.055l-0.824-2.148l0.659-0.769c0-1.73,0.13-3.082,0.391-4.077
			c-0.336-0.947-0.625-1.681-0.885-2.196l1.709-0.329c0.597-1.373,1.455-2.533,2.56-3.459c0.254-0.227,0.515-0.426,0.796-0.618
			l-0.117-0.034l-1.482-0.46c0.899-0.117,1.709-0.227,2.43-0.329c0.817-0.631,1.716-1.208,2.677-1.709
			c-0.995-0.124-1.524-0.192-1.592-0.213c-3.926,0.625-7.145,2.018-9.677,4.18l0.336,0.878l-2.093,1.098
			c-0.954,1.105-1.654,2.464-2.093,4.077l0.995,1.702l-1.325,1.489c0,2.862,0.7,4.839,2.093,5.937l-0.22,0.776
			c1.132,1.942,2.237,3.301,3.301,4.07s2.711,1.469,4.949,2.093l1.325,0.879c0.913,0.295,1.867,0.515,2.855,0.659l1.654-0.494
			l1.537,0.714c3.452,0,6.953-0.899,10.515-2.697C125.346,129.265,125.339,129.238,125.326,129.183z"/>
		<g>
			<path fill="#A34A9B" d="M124.593,67.576c-0.817,0-1.582,0.356-2.293,1.068l-1.1,0.22l0.565,0.754
				c-0.272,0.712-0.408,3.425-0.408,8.138c-0.084,0.105-0.21,1.037-0.377,2.796l0.377,1.257v8.986l-0.816,0.942
				c0.167,0.461,0.44,1.089,0.816,1.885v4.242c0,0.65,0.342,1.236,1.026,1.759c0.601,0.44,1.254,0.702,1.959,0.786v0.754
				c0.544,0-1.236-0.063-5.342-0.189c-2.053-0.063-3.801,0.042-5.247,0.314v-0.691c1.654-0.46,2.471-1.403,2.451-2.828v-4.713
				c0-0.146,0.314-0.775,0.942-1.885l-0.848-1.068v-5.121c0-0.146,0.168-0.817,0.502-2.011c-0.335-0.984-0.502-1.571-0.502-1.759
				v-2.671c0-0.063,0.078-0.346,0.236-0.848c0.157-0.503,0.225-0.796,0.204-0.88c-0.188-0.817-0.335-1.33-0.44-1.54v-2.388
				l-1.885,4.65c-0.294,0.377-0.712,0.911-1.257,1.602l0.063,1.383c-1.153,2.786-3.079,7.164-5.782,13.134l-0.408,1.697
				c-0.272,0.545-0.566,1.163-0.88,1.854l-1.194,3.865c-0.21,0-0.534,0-0.974,0c-0.461-1.363-0.681-2.328-0.66-2.894
				c-0.21-0.189-0.503-0.472-0.88-0.85c-0.085-0.083-0.933-1.888-2.545-5.412v-1.322l-0.97-0.849
				c-1.754-3.931-2.631-5.938-2.631-6.022l-0.013-1.694l-1.38-1.223c-0.418-0.942-1.097-2.482-2.038-4.618l-0.313-2.042
				l-0.533,0.153l-1.109-2.366v10.645l-0.503,1.57l0.503,1.476v4.145l-0.503,1.256l0.503,0.346v5.056
				c0,2.428,1.372,3.82,4.116,4.176v0.565c-0.251,0-2.105,0-5.561,0l-1.351-0.409c-0.817,0.273-2.001,0.409-3.551,0.409v-0.567
				c2.723-0.587,4.085-2.067,4.085-4.439V87.69c0.105-0.294,0.22-0.619,0.346-0.975c-0.231-1.175-0.346-1.689-0.346-1.543v-6.044
				l0.346-2.613c0-0.84-0.01-1.364-0.029-1.574c-0.019-0.126-0.077-0.346-0.173-0.661c-0.096-0.315-0.144-0.556-0.144-0.724v-4.596
				h-2.828l-0.566-0.44l-0.943,0.44h-3.142c-1.005-0.021-2.189,0.179-3.55,0.598c-1.362,0.42-2.43,0.934-3.205,1.543l-0.817,0.158
				c0,0.189-0.094,0.525-0.283,1.008c-0.608,0.84-0.911,1.806-0.911,2.898c0,0.609,0.105,1.249,0.314,1.921l-0.314,0.756
				l0.691,0.378c0.586,1.554,1.424,2.688,2.514,3.402l0.188,0.693h1.1c0.691,0.314,1.466,0.471,2.325,0.471
				c0.46,0,0.921-0.042,1.382-0.126l0.943,0.188c0.9-0.67,1.801-1.34,2.702-2.011c0.88-0.837,1.32-1.811,1.32-2.922
				c0-0.838-0.241-1.811-0.723-2.922l0.408-0.251c0.817,1.116,1.225,2.262,1.225,3.44c0,1.283-0.335,2.514-1.006,3.692h-0.628
				l-0.785,1.885c-1.404,1.341-2.996,2.252-4.776,2.734l-1.54-0.408c-0.21-0.063-0.482-0.01-0.817,0.157
				c-0.335,0.168-0.597,0.251-0.785,0.251c-0.859,0-1.896-0.597-3.111-1.791l0.22-1.131l-1.54-0.628
				c-0.88-1.529-1.32-3.236-1.32-5.121c0-0.754,0.074-1.519,0.22-2.294l0.471-0.534l-0.126-0.723
				c0.67-2.136,1.948-3.854,3.833-5.153l0.754,0.031l0.22-0.66c1.906-1.026,3.54-1.54,4.902-1.54l1.162,0.22
				c0.566-0.146,1.822-0.22,3.771-0.22l2.262,0.22l0.44-0.22h2.639l0.157,0.346c0.88-0.042,1.424-0.157,1.634-0.346h1.54
				c0.586,1.11,0.921,1.875,1.006,2.294l0.283,1.602l0.754,0.754c0.209,0.44,0.901,1.948,2.074,4.523l-0.503,0.754l1.038,0.408
				c0.44,1.005,1.479,3.288,3.115,6.848l-0.002,1.128l0.809,0.727l1.355,2.986l0.094,1.634l1.665,2.262l2.796-6.778l1.006-1.036
				l0.974-3.734l0.786-0.816c0.377-1.632,1.194-3.964,2.451-6.998l0.817-1.067l0.22-1.443l1.54-4.048h1.162
				c0.922,0,2.105,0.168,3.551,0.503l0.942-0.377h2.357L124.593,67.576z"/>
			<path fill="#A34A9B" d="M144.733,101.227h-4.148l-0.471-0.251c-0.503,0.042-1.068,0.126-1.697,0.251h-0.723v-1.759
				c-0.398,0.21-0.985,0.492-1.759,0.848l-0.063-0.063c-0.231,0.189-0.697,0.393-1.398,0.613c-0.702,0.22-1.199,0.299-1.492,0.236
				c-0.419,0.23-1.079,0.345-1.979,0.345c-3.645,0-5.802-0.963-6.473-2.89l0.754-0.786l-0.817-0.597
				c0.104-0.503,0.398-1.016,0.88-1.54h1.037l-0.094-0.849c1.32-0.837,2.356-1.288,3.11-1.351c0.209-0.105,0.859-0.319,1.948-0.644
				c1.089-0.324,1.697-0.476,1.822-0.455c0.419-0.146,1.047-0.377,1.885-0.691h0.66c0.419-0.187,0.827-0.385,1.225-0.593
				c0.545-0.333,0.796-0.822,0.754-1.468v-0.5l0.628-0.812l-0.817-0.125c-0.377-1.041-1.351-1.561-2.922-1.561
				c-0.796,0-1.833,0.177-3.11,0.531c-1.027,0.292-2.053,0.593-3.079,0.905l1.225,0.219c-0.188,0.146-0.943,0.833-2.262,2.061
				l0.252,0.562c-0.126,0.375-0.189,0.698-0.189,0.968c-1.068-0.542-1.749-1.157-2.042-1.845c-0.063-0.125-0.094-0.323-0.094-0.594
				l0.503-0.625L125.63,88.3c0.419-0.563,1.414-1.115,2.985-1.657c0.083-0.062,0.209-0.146,0.377-0.25
				c0.88-0.5,2.828-0.75,5.844-0.75c1.445,0,2.712,0.157,3.802,0.47l0.471,0.533l1.163,0.156c0.419,0.251,0.859,0.909,1.32,1.976
				c-0.168,0.774-0.251,1.515-0.251,2.226c0,0.104,0.031,0.267,0.094,0.486c0.063,0.22,0.094,0.382,0.094,0.486
				c0.063,3.491,0.052,5.362-0.031,5.613c0.277,0.899,0.534,1.515,0.769,1.85c0.534,0.731,1.357,1.108,2.468,1.129V101.227z
				 M138.355,92.461l-0.66-0.094V92.21c-1.822,0.503-2.996,0.744-3.519,0.723c-0.964,0.398-1.917,0.786-2.86,1.163
				c-1.068,0.565-1.801,1.257-2.199,2.074l-0.974,0.754l0.629,0.754c0,0.67,0.167,1.246,0.502,1.728l-0.094,0.503l0.691,0.095
				c0.44,0.272,0.984,0.408,1.634,0.408c0.9,0,1.602-0.094,2.105-0.283c0.083-0.042,0.701-0.356,1.854-0.943
				c0.209-0.146,0.534-0.335,0.974-0.565c0.167-0.042,0.419-0.115,0.754-0.22c0.104-0.168,0.272-0.377,0.503-0.629
				c0-0.398,0.209-1.141,0.628-2.231c-0.21-0.335-0.419-0.681-0.628-1.037v-1.351L138.355,92.461z"/>
			<path fill="#A34A9B" d="M168.266,101.196h-2.482c-1.487-0.335-3.907-0.346-7.258-0.031l-0.032-0.503
				c2.032-0.419,3.048-1.592,3.048-3.519l0.503-0.817c-0.042-0.104-0.147-0.261-0.314-0.471c-0.147-0.146-0.21-0.304-0.189-0.472
				l0.566-0.754l-0.566-1.477c0-0.817,0-1.435,0-1.854c0-1.173-0.335-2.188-1.006-3.048v-0.597h-0.564
				c-0.647-0.398-1.409-0.597-2.286-0.597c-0.543,0-1.461,0.136-2.755,0.408l-0.47,0.534c-1.169,0.65-2.15,1.32-2.943,2.011v1.163
				l-0.472,0.565l0.472,0.66l0.063,2.577l-0.503,0.691l0.408,0.409c0,1.383,0.146,2.388,0.44,3.016
				c0.419,0.901,1.236,1.425,2.451,1.571v0.534h-9.363v-0.471c1.822-0.419,2.733-1.519,2.733-3.299c0-0.083,0.083-0.204,0.251-0.361
				c0.168-0.157,0.262-0.256,0.283-0.299c-0.168-0.23-0.335-0.534-0.503-0.911v-1.791l0.597-1.288
				c-0.44-1.236-0.66-2.765-0.66-4.587c0.062-0.335-0.168-0.733-0.691-1.194c-0.608-0.523-1.278-0.743-2.011-0.66l-0.032-0.566h2.49
				c0.581,0.188,1.079,0.283,1.494,0.283c0.228,0,0.601-0.047,1.12-0.141c0.518-0.094,1.017-0.141,1.494-0.141v0.503l-0.503,0.346
				l0.503,0.346l-0.063,0.911c0.188-0.155,0.679-0.417,1.473-0.786h0.596l0.564-0.471c1.756-0.691,3.668-1.037,5.736-1.037
				c0.272,0.105,0.574,0.21,0.909,0.314l0.376-0.314c2.78,0.316,4.17,1.304,4.17,2.965c0,0.084-0.074,0.268-0.22,0.552
				c-0.147,0.284-0.21,0.458-0.189,0.52l0.409,0.883v5.237c0,0.042-0.121,0.106-0.361,0.189c-0.241,0.084-0.372,0.147-0.393,0.189
				l0.754,0.252v1.325c0,0.694,0.314,1.341,0.943,1.941c0.629,0.6,1.288,0.962,1.979,1.088V101.196z"/>
			<path fill="#A34A9B" d="M188.5,86.396c-0.88,0.251-1.487,0.482-1.822,0.691c-0.587,0.356-0.953,0.889-1.1,1.6l-0.754,0.157
				l0.943,1.601v15.317c-0.147,0.858-0.377,1.988-0.691,3.39l0.188,0.879c-0.021,0.795-0.786,2.218-2.294,4.269l-1.1,0.314
				l0.345,0.534c-1.341,1.214-2.943,1.82-4.807,1.82c-0.021,0-0.325-0.084-0.911-0.251l-0.817,0.157
				c-1.906-0.314-3.718-1.058-5.436-2.231l-0.157-0.471l-0.597-0.126c-1.173-0.943-2.136-2.22-2.891-3.833l0.314-1.1
				c0.021-0.105-0.053-0.257-0.22-0.455c-0.168-0.199-0.252-0.341-0.252-0.424c0-1.152,0.649-2.168,1.948-3.047l1.822-0.22
				c0-0.252-0.037-0.419-0.11-0.503c-0.074-0.084-0.1-0.157-0.079-0.22c1.131-0.545,2.22-0.817,3.268-0.817
				c0.356,0,0.723,0.042,1.1,0.125l0.314,0.534l0.565-0.22c0.712,0.377,1.403,0.984,2.074,1.822c-0.545-0.294-1.236-0.44-2.074-0.44
				c-1.068,0-2.136,0.282-3.205,0.848c-1.152,0.607-1.937,1.372-2.356,2.294l-1.006,0.251l0.695,0.691
				c-0.231,1.047-0.105,2.095,0.379,3.142l0.504,0.157c1.41,2.178,3.378,3.267,5.904,3.267c0.758,0,1.411-0.115,1.958-0.345
				l0.568,0.251l0.158-0.754c0.694-0.398,1.284-1.048,1.768-1.948l1.105-0.063l-0.817-0.66l0.817-1.854l-0.157-1.006
				c0-0.335,0.026-0.854,0.078-1.555c0.052-0.702,0.079-1.231,0.079-1.587l0.566-1.382l-0.566-0.629
				c0.042-0.838,0.167-1.969,0.377-3.393l-0.188-0.377v-1.257c-0.168,0.377-0.77,0.817-1.807,1.32
				c-1.037,0.503-2.299,0.754-3.786,0.754c-0.147,0-0.383-0.042-0.707-0.126c-0.325-0.084-0.571-0.125-0.739-0.125
				c-0.084,0-0.194,0-0.33,0c-0.136,0-0.236,0-0.299,0c-0.649,0-1.372-0.146-2.168-0.438c-0.88-0.355-1.477-0.761-1.791-1.221
				l-0.22-1.127l-0.817-1.69c0.126-0.5,0.314-1.471,0.566-2.91l-0.503-2.284v-1.033c0.01-0.521,0.021-1.032,0.031-1.533
				c0-0.73-0.125-1.304-0.377-1.721c-0.377-0.584-1.204-0.865-2.482-0.845l-0.031-0.563h2.451c0.44,0.147,1.739,0.147,3.896,0h2.859
				v0.471c-0.65,0.168-1.1,0.304-1.351,0.408c-0.482,0.21-0.838,0.482-1.068,0.817l-1.131,0.377l0.629,1.006v3.519
				c0,2.284,0.031,3.897,0.094,4.839c0.398,2.095,1.56,3.142,3.488,3.142c0.272,0,0.555,0,0.848,0l0.471,0.157l0.503-0.44
				c0.88-0.23,1.591-0.597,2.136-1.1c0.482-0.545,0.963-1.1,1.445-1.665l0.597-0.157l-0.597-0.723v-5.153l0.597-2.136l-0.66-0.66
				c-0.231-1.277-0.88-1.99-1.948-2.136c0-0.146,0-0.335,0-0.566c0.754,0,1.602,0.042,2.545,0.126c-0.335,0,1.739,0,6.221,0V86.396z
				"/>
		</g>
		<g>
			<path fill="#08827A" d="M66.051,58.252c-1.509-1.202-2.58-1.804-3.214-1.804c-1.006,0-1.76,0.842-2.263,2.525
				c-0.153,0.175-0.503,0.438-1.049,0.787l0.623,1.017c-0.175,1.181-0.219,3.226-0.131,6.133l-0.656,0.558l0.59,0.656V69.6h5.407
				l0.431,0.59c-1.531,0-2.865,0.383-4.001,1.148l-0.951-0.197l-1.082,1.279l-0.23,1.509l0.426,1.705v3.903
				c0-0.022-0.219,0.011-0.656,0.098c-0.066,0.022-0.11,0.044-0.131,0.065l0.787,0.656v1.935c0.021,0.569,0.328,1.137,0.918,1.705
				c0.525,0.503,1.093,0.831,1.705,0.984v0.656h-4.395c-0.197,0-0.541-0.049-1.033-0.148c-0.492-0.098-0.858-0.148-1.099-0.148
				c-0.153,0-0.361,0.049-0.623,0.148c-0.262,0.098-0.471,0.148-0.623,0.148l-1.705-0.033c0-0.349,0.011-0.535,0.033-0.556
				c0.503-0.109,1.115-0.404,1.837-0.884c0.809-0.545,1.214-1.004,1.214-1.375v-2.52l0.394-1.505
				c-0.131-0.262-0.262-0.742-0.394-1.44v-2.782l0.361-0.982c-0.065-0.153-0.186-0.382-0.361-0.687v-2.062h-2.821
				c-0.022-0.021-0.022-0.207,0-0.558c1.64-0.634,2.58-1.738,2.821-3.313v-3.542l0.558-1.115l-0.426-1.41
				c0.218-1.815,0.656-3.203,1.312-4.166l1.378-0.426l-0.82-0.262c0.962-0.94,2.329-1.235,4.1-0.885l0.229,0.361l0.689-0.098
				c0.809,0.416,1.989,1.345,3.542,2.788L66.051,58.252z"/>
		</g>
		<g>
			<path fill="#08827A" d="M52.006,65.665l-1.441-2.355l0.369-2.173c-1.225-2.798-2.878-4.971-4.96-6.521
				c-0.347-0.285-0.56-0.439-0.644-0.457c-0.918-0.329-1.609-0.563-2.081-0.706c-1.039-0.53-1.814-0.947-2.326-1.255
				c-0.673-0.347-2.059-0.519-4.162-0.519c-0.384,0-0.772,0.011-1.152,0.037c2.927,0.652,5.521,2.296,7.474,4.594
				c0.069,0.082,0.519-0.115,0.519-0.115s-0.17,0.541-0.1,0.632c1.561,2.011,2.652,4.467,3.09,7.168l0.545,0.446l-0.337,1.013
				c0.102,0.589,0.216,1.192,0.337,1.803c0.285,1.938,0.256,3.859-0.091,5.753c-0.121,0.593-0.208,1.028-0.26,1.302
				c-0.051,0.274-0.077,0.955-0.077,2.037l-0.735,0.15c-1.796,4.206-4.908,6.488-9.334,6.858l-0.582,0.49
				c-0.512-0.124-1.551-0.296-3.123-0.519c-1.284-0.183-2.312-0.413-3.076-0.688c-0.764-0.278-1.635-0.486-2.615-0.629
				c-1.551-1.386-3.113-2.772-4.685-4.159c-1.489-1.529-2.619-3.332-3.394-5.413c-0.45-1.222-0.786-2.129-1.013-2.721
				c0.062-0.446,0.051-1.028-0.029-1.741c-0.08-0.878-0.121-1.448-0.121-1.712c0-1.101,0.099-2.151,0.304-3.149
				c0.143-0.571,0.256-1.009,0.336-1.317l0.124-1.5c0.593-0.772,0.969-1.291,1.13-1.558c0.593-0.878,1.031-1.54,1.317-1.986
				c1.328-1.774,3.134-3.325,5.417-4.649h-0.64c-2.063,1.123-3.54,1.986-4.44,2.6l-0.673,1.039l-1.653,0.885
				c-0.446,0.245-1.174,1.072-2.173,2.48c-0.878,1.222-1.489,2.18-1.836,2.871l0.091,1.042c0,0.633-0.6,2.344-1.807,5.135
				c0,0.49,0.245,1.009,0.735,1.562c-0.428,0.633-0.651,0.966-0.673,1.009c-0.04,0.08,0.051,0.731,0.274,1.957
				c0.245,1.426,0.563,2.538,0.951,3.332c0.143,0.347,0.245,0.582,0.307,0.702c0.629,0.633,1.112,1.094,1.437,1.379l0.764,1.924
				c0.143,0.347,0.75,0.944,1.821,1.789c1.072,0.849,1.821,1.32,2.249,1.423c0.347,0.08,0.9,0.124,1.653,0.124v0.914
				c2.041,0.958,4.305,1.591,6.796,1.898c0.735,0.102,1.119,0.143,1.163,0.121l1.467-0.366l2.143,0.366
				c1.551-0.326,3.102-0.651,4.652-0.98c1.386-0.406,2.765-1.306,4.133-2.692l1.009-0.154c2.447-1.917,3.917-3.518,4.407-4.806
				c0.326-1.141,0.552-2.019,0.673-2.63l1.47-1.532c0.753-2.099,1.13-4.221,1.13-6.364C52.064,66.645,52.046,66.155,52.006,65.665z"
				/>
		</g>
	</g>
	<g id="black" display="none">
		<g display="inline">
			<path d="M81.278,92.408c-0.817,0-1.582,0.356-2.294,1.068l-1.1,0.22l0.566,0.754c-0.273,0.712-0.409,3.425-0.409,8.138
				c-0.084,0.105-0.209,1.037-0.377,2.796l0.377,1.257v8.986l-0.817,0.942c0.167,0.461,0.44,1.089,0.817,1.885v4.242
				c0,0.65,0.342,1.236,1.026,1.759c0.601,0.44,1.254,0.702,1.959,0.786v0.754c0.544,0-1.236-0.063-5.341-0.189
				c-2.053-0.063-3.802,0.042-5.247,0.314v-0.691c1.654-0.46,2.471-1.403,2.451-2.828v-4.713c0-0.146,0.314-0.775,0.943-1.885
				l-0.848-1.068v-5.121c0-0.146,0.167-0.817,0.503-2.011c-0.335-0.984-0.503-1.571-0.503-1.759v-2.67
				c0-0.063,0.079-0.346,0.236-0.848c0.157-0.503,0.225-0.796,0.204-0.88c-0.188-0.817-0.335-1.33-0.44-1.54v-2.388l-1.885,4.65
				c-0.294,0.377-0.712,0.911-1.257,1.602l0.063,1.382c-1.152,2.786-3.079,7.164-5.781,13.134l-0.408,1.697
				c-0.273,0.545-0.566,1.163-0.88,1.854l-1.194,3.865c-0.21,0-0.534,0-0.974,0c-0.461-1.363-0.681-2.328-0.66-2.894
				c-0.21-0.189-0.503-0.472-0.88-0.85c-0.084-0.083-0.932-1.888-2.545-5.412v-1.322l-0.97-0.849
				c-1.754-3.931-2.631-5.938-2.631-6.022l-0.013-1.694l-1.38-1.223c-0.418-0.943-1.097-2.482-2.038-4.618l-0.313-2.042
				l-0.533,0.153l-1.109-2.366v10.645l-0.503,1.57l0.503,1.476v4.145l-0.503,1.256l0.503,0.346v5.056
				c0,2.428,1.372,3.82,4.116,4.176v0.565c-0.251,0-2.105,0-5.561,0l-1.351-0.409c-0.817,0.273-2.001,0.409-3.551,0.409v-0.567
				c2.723-0.587,4.085-2.067,4.085-4.439v-8.469c0.105-0.294,0.22-0.618,0.346-0.975c-0.231-1.175-0.346-1.689-0.346-1.543v-6.044
				l0.346-2.613c0-0.839-0.01-1.364-0.029-1.574c-0.019-0.126-0.077-0.346-0.173-0.661c-0.096-0.314-0.144-0.556-0.144-0.724v-4.597
				h-2.828l-0.566-0.44l-0.943,0.44h-3.142c-1.005-0.021-2.189,0.179-3.55,0.598c-1.362,0.42-2.43,0.934-3.205,1.543l-0.817,0.157
				c0,0.189-0.094,0.525-0.283,1.008c-0.608,0.84-0.911,1.806-0.911,2.898c0,0.609,0.105,1.25,0.314,1.921l-0.314,0.756l0.691,0.378
				c0.586,1.554,1.424,2.688,2.514,3.401l0.188,0.693h1.1c0.691,0.314,1.466,0.472,2.325,0.472c0.46,0,0.921-0.042,1.383-0.126
				l0.943,0.189c0.9-0.67,1.801-1.341,2.702-2.011c0.88-0.837,1.32-1.812,1.32-2.922c0-0.837-0.241-1.812-0.723-2.922l0.408-0.251
				c0.817,1.115,1.225,2.261,1.225,3.44c0,1.283-0.335,2.514-1.006,3.692h-0.628l-0.785,1.885c-1.404,1.341-2.996,2.252-4.776,2.734
				l-1.54-0.409c-0.21-0.063-0.482-0.01-0.817,0.157c-0.335,0.168-0.597,0.252-0.785,0.252c-0.859,0-1.896-0.597-3.111-1.791
				l0.22-1.131l-1.54-0.629c-0.88-1.529-1.32-3.236-1.32-5.121c0-0.754,0.074-1.519,0.22-2.294l0.471-0.534l-0.126-0.723
				c0.67-2.136,1.948-3.854,3.833-5.153l0.754,0.031l0.22-0.66c1.906-1.026,3.54-1.54,4.902-1.54L38.516,92
				c0.566-0.146,1.822-0.22,3.771-0.22L44.548,92l0.44-0.22h2.639l0.157,0.346c0.88-0.042,1.424-0.157,1.634-0.346h1.54
				c0.586,1.11,0.921,1.875,1.006,2.293l0.283,1.603L53,96.43c0.209,0.44,0.901,1.948,2.074,4.523l-0.503,0.754l1.038,0.409
				c0.44,1.006,1.479,3.288,3.115,6.848l-0.002,1.128l0.809,0.727l1.355,2.986l0.094,1.634l1.665,2.262l2.796-6.778l1.006-1.036
				l0.974-3.734l0.786-0.816c0.377-1.632,1.194-3.964,2.451-6.998l0.817-1.067l0.22-1.443l1.54-4.048h1.163
				c0.921,0,2.105,0.168,3.55,0.503l0.943-0.377h2.356L81.278,92.408z"/>
			<path d="M136.479,126.028h-2.482c-1.487-0.335-3.907-0.346-7.258-0.031l-0.032-0.503c2.032-0.419,3.048-1.592,3.048-3.519
				l0.503-0.817c-0.042-0.104-0.147-0.261-0.314-0.471c-0.147-0.146-0.21-0.303-0.189-0.472l0.566-0.754l-0.566-1.477
				c0-0.817,0-1.435,0-1.854c0-1.173-0.335-2.188-1.006-3.047v-0.597h-0.564c-0.647-0.398-1.409-0.597-2.286-0.597
				c-0.543,0-1.461,0.136-2.755,0.409l-0.47,0.534c-1.169,0.65-2.15,1.32-2.943,2.011v1.163l-0.472,0.565l0.472,0.66l0.063,2.577
				l-0.503,0.691l0.408,0.409c0,1.382,0.146,2.388,0.44,3.016c0.419,0.901,1.236,1.425,2.451,1.571v0.534h-9.363v-0.471
				c1.822-0.419,2.733-1.519,2.733-3.299c0-0.083,0.083-0.204,0.251-0.361c0.168-0.157,0.262-0.256,0.283-0.299
				c-0.168-0.23-0.335-0.534-0.503-0.911v-1.791l0.597-1.288c-0.44-1.236-0.66-2.765-0.66-4.587
				c0.062-0.335-0.168-0.733-0.691-1.194c-0.608-0.523-1.278-0.743-2.011-0.66l-0.032-0.565h2.49
				c0.581,0.188,1.079,0.283,1.494,0.283c0.228,0,0.601-0.047,1.12-0.142c0.518-0.094,1.017-0.141,1.494-0.141v0.503l-0.503,0.345
				l0.503,0.346l-0.063,0.911c0.188-0.155,0.679-0.417,1.473-0.786h0.596l0.564-0.472c1.756-0.691,3.668-1.037,5.736-1.037
				c0.272,0.105,0.574,0.21,0.909,0.314l0.376-0.314c2.78,0.316,4.17,1.304,4.17,2.965c0,0.085-0.074,0.269-0.22,0.553
				c-0.147,0.284-0.21,0.457-0.189,0.52l0.409,0.883v5.237c0,0.042-0.121,0.106-0.361,0.189c-0.241,0.084-0.372,0.147-0.393,0.189
				l0.754,0.252v1.325c0,0.694,0.314,1.341,0.943,1.941c0.629,0.6,1.288,0.962,1.979,1.088V126.028z"/>
			<path d="M154.734,121.472c0,1.131-0.702,2.147-2.105,3.047l-1.068-0.031v0.566c-1.781,0.754-3.634,1.131-5.561,1.131
				c-0.126,0-0.451-0.084-0.974-0.251c-0.314-0.105-0.618-0.052-0.911,0.157c-2.032-0.189-3.697-0.566-4.996-1.131l0.66-0.22
				l-1.414-0.157c-0.922-0.503-1.456-1.057-1.602-1.665l0.503-0.22l-0.566-0.534c0.105-0.837,0.796-1.592,2.074-2.262
				c0,0.587,0.104,1.1,0.314,1.54l-0.063,0.597c0.146,0.084,0.303,0.126,0.471,0.126c0.482,0.754,1.194,1.362,2.137,1.822
				l0.125,0.471l0.597-0.094c1.466,0.671,2.702,1.006,3.707,1.006c1.026,0,1.969-0.303,2.828-0.911h0.377l0.88-0.88l-0.22-0.502
				c0.482-0.482,0.472-1.026-0.031-1.634l-0.503-0.157c-0.608-0.607-2.063-1.236-4.367-1.885l-1.131-0.628
				c-0.252,0.021-0.786,0.021-1.602,0c-0.566-0.063-1.645-0.429-3.237-1.1l0.754-0.377c-1.257-0.167-1.979-0.293-2.168-0.377
				c-1.006-0.503-1.508-1.32-1.508-2.451l0.503-0.346l-0.251-0.629c0.356-0.754,0.911-1.267,1.665-1.54
				c0.251-0.063,0.628-0.146,1.131-0.251c0.105-0.042,0.555-0.167,1.351-0.377l-0.723-0.126c1.822-0.649,3.822-0.974,6.001-0.974
				c1.822,0,3.425,0.252,4.807,0.754l0.063,0.314l0.943,0.126c0.837,0.461,1.403,0.974,1.697,1.54l-0.22,0.22l0.283,0.377
				c0.021,0.126,0.031,0.262,0.031,0.409c0,0.817-0.691,1.55-2.074,2.199c0-0.189-0.053-0.482-0.157-0.88l0.282-0.094l-0.502-0.377
				c-0.273-0.544-0.639-1.026-1.1-1.445l0.157-0.346l-0.66-0.032c-0.545-0.419-1.142-0.754-1.791-1.005l0.472-0.252
				c-3.038-0.398-4.42-0.597-4.148-0.597c-1.215,0-2.074,0.325-2.577,0.974l-0.565,0.534c-0.084,0.377-0.126,0.702-0.126,0.974
				c0,0.943,0.723,1.739,2.168,2.388l0.345,0.345c0.629,0.168,1.466,0.388,2.514,0.66c2.953,0.734,4.545,1.142,4.776,1.225
				c2.157,0.691,3.508,1.498,4.053,2.419l-0.094,0.346L154.734,121.472z"/>
		</g>
		<path display="inline" d="M103.677,126.852c-0.31,0.027-0.626,0.044-0.941,0.054c-1.524,0.925-3.33,1.458-5.256,1.458
			c-2.225,0-4.277-0.707-5.931-1.904c0,0-0.005-0.005-0.011-0.005c-0.811-0.522-1.529-1.23-2.155-2.111l-1.524-0.609l0.653-0.784
			c-0.468-0.99-0.8-2.035-1.007-3.14l-0.044-0.044l-0.653-1.703l0.522-0.609c0-1.371,0.103-2.443,0.31-3.232
			c-0.267-0.751-0.495-1.333-0.702-1.741l1.355-0.261c0.473-1.088,1.154-2.008,2.03-2.742c0.201-0.18,0.408-0.337,0.631-0.49
			l-0.092-0.027l-1.175-0.365c0.713-0.093,1.355-0.18,1.926-0.261c0.648-0.501,1.36-0.958,2.122-1.355
			c-0.789-0.098-1.208-0.152-1.262-0.169c-3.112,0.495-5.664,1.6-7.672,3.314l0.267,0.696l-1.66,0.871
			c-0.756,0.876-1.311,1.953-1.66,3.232l0.789,1.349l-1.05,1.181c0,2.269,0.555,3.836,1.66,4.707l-0.174,0.615
			c0.898,1.54,1.774,2.617,2.617,3.227s2.149,1.164,3.923,1.66l1.05,0.696c0.724,0.234,1.48,0.408,2.264,0.522l1.311-0.392
			l1.219,0.566c2.737,0,5.512-0.713,8.336-2.138C103.693,126.917,103.688,126.896,103.677,126.852z"/>
		<path display="inline" d="M125.326,129.183c-0.391,0.034-0.789,0.055-1.187,0.069c-1.922,1.167-4.2,1.839-6.63,1.839
			c-2.807,0-5.395-0.892-7.481-2.402c0,0-0.007-0.007-0.014-0.007c-1.023-0.659-1.929-1.551-2.718-2.663l-1.922-0.769l0.824-0.988
			c-0.59-1.249-1.009-2.567-1.27-3.96l-0.055-0.055l-0.824-2.148l0.659-0.769c0-1.73,0.13-3.082,0.391-4.077
			c-0.336-0.947-0.625-1.681-0.885-2.196l1.709-0.329c0.597-1.373,1.455-2.533,2.56-3.459c0.254-0.227,0.515-0.426,0.796-0.618
			l-0.117-0.034l-1.482-0.46c0.899-0.117,1.709-0.227,2.43-0.329c0.817-0.631,1.716-1.208,2.677-1.709
			c-0.995-0.124-1.524-0.192-1.592-0.213c-3.926,0.625-7.145,2.018-9.677,4.18l0.336,0.878l-2.093,1.098
			c-0.954,1.105-1.654,2.464-2.093,4.077l0.995,1.702l-1.325,1.489c0,2.862,0.7,4.839,2.093,5.937l-0.22,0.776
			c1.132,1.942,2.237,3.301,3.301,4.07s2.711,1.469,4.949,2.093l1.325,0.879c0.913,0.295,1.867,0.515,2.855,0.659l1.654-0.494
			l1.537,0.714c3.452,0,6.953-0.899,10.515-2.697C125.346,129.265,125.339,129.238,125.326,129.183z"/>
		<g display="inline">
			<path d="M124.593,67.576c-0.817,0-1.582,0.356-2.293,1.068l-1.1,0.22l0.565,0.754c-0.272,0.712-0.408,3.425-0.408,8.138
				c-0.084,0.105-0.21,1.037-0.377,2.796l0.377,1.257v8.986l-0.816,0.942c0.167,0.461,0.44,1.089,0.816,1.885v4.242
				c0,0.65,0.342,1.236,1.026,1.759c0.601,0.44,1.254,0.702,1.959,0.786v0.754c0.544,0-1.236-0.063-5.342-0.189
				c-2.053-0.063-3.801,0.042-5.247,0.314v-0.691c1.654-0.46,2.471-1.403,2.451-2.828v-4.713c0-0.146,0.314-0.775,0.942-1.885
				l-0.848-1.068v-5.121c0-0.146,0.168-0.817,0.502-2.011c-0.335-0.984-0.502-1.571-0.502-1.759v-2.671
				c0-0.063,0.078-0.346,0.236-0.848c0.157-0.503,0.225-0.796,0.204-0.88c-0.188-0.817-0.335-1.33-0.44-1.54v-2.388l-1.885,4.65
				c-0.294,0.377-0.712,0.911-1.257,1.602l0.063,1.383c-1.153,2.786-3.079,7.164-5.782,13.134l-0.408,1.697
				c-0.272,0.545-0.566,1.163-0.88,1.854l-1.194,3.865c-0.21,0-0.534,0-0.974,0c-0.461-1.363-0.681-2.328-0.66-2.894
				c-0.21-0.189-0.503-0.472-0.88-0.85c-0.085-0.083-0.933-1.888-2.545-5.412v-1.322l-0.97-0.849
				c-1.754-3.931-2.631-5.938-2.631-6.022l-0.013-1.694l-1.38-1.223c-0.418-0.942-1.097-2.482-2.038-4.618l-0.313-2.042
				l-0.533,0.153l-1.109-2.366v10.645l-0.503,1.57l0.503,1.476v4.145l-0.503,1.256l0.503,0.346v5.056
				c0,2.428,1.372,3.82,4.116,4.176v0.565c-0.251,0-2.105,0-5.561,0l-1.351-0.409c-0.817,0.273-2.001,0.409-3.551,0.409v-0.567
				c2.723-0.587,4.085-2.067,4.085-4.439V87.69c0.105-0.294,0.22-0.619,0.346-0.975c-0.231-1.175-0.346-1.689-0.346-1.543v-6.044
				l0.346-2.613c0-0.84-0.01-1.364-0.029-1.574c-0.019-0.126-0.077-0.346-0.173-0.661c-0.096-0.315-0.144-0.556-0.144-0.724v-4.596
				h-2.828l-0.566-0.44l-0.943,0.44h-3.142c-1.005-0.021-2.189,0.179-3.55,0.598c-1.362,0.42-2.43,0.934-3.205,1.543l-0.817,0.158
				c0,0.189-0.094,0.525-0.283,1.008c-0.608,0.84-0.911,1.806-0.911,2.898c0,0.609,0.105,1.249,0.314,1.921l-0.314,0.756
				l0.691,0.378c0.586,1.554,1.424,2.688,2.514,3.402l0.188,0.693h1.1c0.691,0.314,1.466,0.471,2.325,0.471
				c0.46,0,0.921-0.042,1.382-0.126l0.943,0.188c0.9-0.67,1.801-1.34,2.702-2.011c0.88-0.837,1.32-1.811,1.32-2.922
				c0-0.838-0.241-1.811-0.723-2.922l0.408-0.251c0.817,1.116,1.225,2.262,1.225,3.44c0,1.283-0.335,2.514-1.006,3.692h-0.628
				l-0.785,1.885c-1.404,1.341-2.996,2.252-4.776,2.734l-1.54-0.408c-0.21-0.063-0.482-0.01-0.817,0.157
				c-0.335,0.168-0.597,0.251-0.785,0.251c-0.859,0-1.896-0.597-3.111-1.791l0.22-1.131l-1.54-0.628
				c-0.88-1.529-1.32-3.236-1.32-5.121c0-0.754,0.074-1.519,0.22-2.294l0.471-0.534l-0.126-0.723
				c0.67-2.136,1.948-3.854,3.833-5.153l0.754,0.031l0.22-0.66c1.906-1.026,3.54-1.54,4.902-1.54l1.162,0.22
				c0.566-0.146,1.822-0.22,3.771-0.22l2.262,0.22l0.44-0.22h2.639l0.157,0.346c0.88-0.042,1.424-0.157,1.634-0.346h1.54
				c0.586,1.11,0.921,1.875,1.006,2.294l0.283,1.602l0.754,0.754c0.209,0.44,0.901,1.948,2.074,4.523l-0.503,0.754l1.038,0.408
				c0.44,1.005,1.479,3.288,3.115,6.848l-0.002,1.128l0.809,0.727l1.355,2.986l0.094,1.634l1.665,2.262l2.796-6.778l1.006-1.036
				l0.974-3.734l0.786-0.816c0.377-1.632,1.194-3.964,2.451-6.998l0.817-1.067l0.22-1.443l1.54-4.048h1.162
				c0.922,0,2.105,0.168,3.551,0.503l0.942-0.377h2.357L124.593,67.576z"/>
			<path d="M144.733,101.227h-4.148l-0.471-0.251c-0.503,0.042-1.068,0.126-1.697,0.251h-0.723v-1.759
				c-0.398,0.21-0.985,0.492-1.759,0.848l-0.063-0.063c-0.231,0.189-0.697,0.393-1.398,0.613c-0.702,0.22-1.199,0.299-1.492,0.236
				c-0.419,0.23-1.079,0.345-1.979,0.345c-3.645,0-5.802-0.963-6.473-2.89l0.754-0.786l-0.817-0.597
				c0.104-0.503,0.398-1.016,0.88-1.54h1.037l-0.094-0.849c1.32-0.837,2.356-1.288,3.11-1.351c0.209-0.105,0.859-0.319,1.948-0.644
				c1.089-0.324,1.697-0.476,1.822-0.455c0.419-0.146,1.047-0.377,1.885-0.691h0.66c0.419-0.187,0.827-0.385,1.225-0.593
				c0.545-0.333,0.796-0.822,0.754-1.468v-0.5l0.628-0.812l-0.817-0.125c-0.377-1.041-1.351-1.561-2.922-1.561
				c-0.796,0-1.833,0.177-3.11,0.531c-1.027,0.292-2.053,0.593-3.079,0.905l1.225,0.219c-0.188,0.146-0.943,0.833-2.262,2.061
				l0.252,0.562c-0.126,0.375-0.189,0.698-0.189,0.968c-1.068-0.542-1.749-1.157-2.042-1.845c-0.063-0.125-0.094-0.323-0.094-0.594
				l0.503-0.625L125.63,88.3c0.419-0.563,1.414-1.115,2.985-1.657c0.083-0.062,0.209-0.146,0.377-0.25
				c0.88-0.5,2.828-0.75,5.844-0.75c1.445,0,2.712,0.157,3.802,0.47l0.471,0.533l1.163,0.156c0.419,0.251,0.859,0.909,1.32,1.976
				c-0.168,0.774-0.251,1.515-0.251,2.226c0,0.104,0.031,0.267,0.094,0.486c0.063,0.22,0.094,0.382,0.094,0.486
				c0.063,3.491,0.052,5.362-0.031,5.613c0.277,0.899,0.534,1.515,0.769,1.85c0.534,0.731,1.357,1.108,2.468,1.129V101.227z
				 M138.355,92.461l-0.66-0.094V92.21c-1.822,0.503-2.996,0.744-3.519,0.723c-0.964,0.398-1.917,0.786-2.86,1.163
				c-1.068,0.565-1.801,1.257-2.199,2.074l-0.974,0.754l0.629,0.754c0,0.67,0.167,1.246,0.502,1.728l-0.094,0.503l0.691,0.095
				c0.44,0.272,0.984,0.408,1.634,0.408c0.9,0,1.602-0.094,2.105-0.283c0.083-0.042,0.701-0.356,1.854-0.943
				c0.209-0.146,0.534-0.335,0.974-0.565c0.167-0.042,0.419-0.115,0.754-0.22c0.104-0.168,0.272-0.377,0.503-0.629
				c0-0.398,0.209-1.141,0.628-2.231c-0.21-0.335-0.419-0.681-0.628-1.037v-1.351L138.355,92.461z"/>
			<path d="M168.266,101.196h-2.482c-1.487-0.335-3.907-0.346-7.258-0.031l-0.032-0.503c2.032-0.419,3.048-1.592,3.048-3.519
				l0.503-0.817c-0.042-0.104-0.147-0.261-0.314-0.471c-0.147-0.146-0.21-0.304-0.189-0.472l0.566-0.754l-0.566-1.477
				c0-0.817,0-1.435,0-1.854c0-1.173-0.335-2.188-1.006-3.048v-0.597h-0.564c-0.647-0.398-1.409-0.597-2.286-0.597
				c-0.543,0-1.461,0.136-2.755,0.408l-0.47,0.534c-1.169,0.65-2.15,1.32-2.943,2.011v1.163l-0.472,0.565l0.472,0.66l0.063,2.577
				l-0.503,0.691l0.408,0.409c0,1.383,0.146,2.388,0.44,3.016c0.419,0.901,1.236,1.425,2.451,1.571v0.534h-9.363v-0.471
				c1.822-0.419,2.733-1.519,2.733-3.299c0-0.083,0.083-0.204,0.251-0.361c0.168-0.157,0.262-0.256,0.283-0.299
				c-0.168-0.23-0.335-0.534-0.503-0.911v-1.791l0.597-1.288c-0.44-1.236-0.66-2.765-0.66-4.587
				c0.062-0.335-0.168-0.733-0.691-1.194c-0.608-0.523-1.278-0.743-2.011-0.66l-0.032-0.566h2.49
				c0.581,0.188,1.079,0.283,1.494,0.283c0.228,0,0.601-0.047,1.12-0.141c0.518-0.094,1.017-0.141,1.494-0.141v0.503l-0.503,0.346
				l0.503,0.346l-0.063,0.911c0.188-0.155,0.679-0.417,1.473-0.786h0.596l0.564-0.471c1.756-0.691,3.668-1.037,5.736-1.037
				c0.272,0.105,0.574,0.21,0.909,0.314l0.376-0.314c2.78,0.316,4.17,1.304,4.17,2.965c0,0.084-0.074,0.268-0.22,0.552
				c-0.147,0.284-0.21,0.458-0.189,0.52l0.409,0.883v5.237c0,0.042-0.121,0.106-0.361,0.189c-0.241,0.084-0.372,0.147-0.393,0.189
				l0.754,0.252v1.325c0,0.694,0.314,1.341,0.943,1.941c0.629,0.6,1.288,0.962,1.979,1.088V101.196z"/>
			<path d="M188.5,86.396c-0.88,0.251-1.487,0.482-1.822,0.691c-0.587,0.356-0.953,0.889-1.1,1.6l-0.754,0.157l0.943,1.601v15.317
				c-0.147,0.858-0.377,1.988-0.691,3.39l0.188,0.879c-0.021,0.795-0.786,2.218-2.294,4.269l-1.1,0.314l0.345,0.534
				c-1.341,1.214-2.943,1.82-4.807,1.82c-0.021,0-0.325-0.084-0.911-0.251l-0.817,0.157c-1.906-0.314-3.718-1.058-5.436-2.231
				l-0.157-0.471l-0.597-0.126c-1.173-0.943-2.136-2.22-2.891-3.833l0.314-1.1c0.021-0.105-0.053-0.257-0.22-0.455
				c-0.168-0.199-0.252-0.341-0.252-0.424c0-1.152,0.649-2.168,1.948-3.047l1.822-0.22c0-0.252-0.037-0.419-0.11-0.503
				c-0.074-0.084-0.1-0.157-0.079-0.22c1.131-0.545,2.22-0.817,3.268-0.817c0.356,0,0.723,0.042,1.1,0.125l0.314,0.534l0.565-0.22
				c0.712,0.377,1.403,0.984,2.074,1.822c-0.545-0.294-1.236-0.44-2.074-0.44c-1.068,0-2.136,0.282-3.205,0.848
				c-1.152,0.607-1.937,1.372-2.356,2.294l-1.006,0.251l0.695,0.691c-0.231,1.047-0.105,2.095,0.379,3.142l0.504,0.157
				c1.41,2.178,3.378,3.267,5.904,3.267c0.758,0,1.411-0.115,1.958-0.345l0.568,0.251l0.158-0.754
				c0.694-0.398,1.284-1.048,1.768-1.948l1.105-0.063l-0.817-0.66l0.817-1.854l-0.157-1.006c0-0.335,0.026-0.854,0.078-1.555
				c0.052-0.702,0.079-1.231,0.079-1.587l0.566-1.382l-0.566-0.629c0.042-0.838,0.167-1.969,0.377-3.393l-0.188-0.377v-1.257
				c-0.168,0.377-0.77,0.817-1.807,1.32c-1.037,0.503-2.299,0.754-3.786,0.754c-0.147,0-0.383-0.042-0.707-0.126
				c-0.325-0.084-0.571-0.125-0.739-0.125c-0.084,0-0.194,0-0.33,0c-0.136,0-0.236,0-0.299,0c-0.649,0-1.372-0.146-2.168-0.438
				c-0.88-0.355-1.477-0.761-1.791-1.221l-0.22-1.127l-0.817-1.69c0.126-0.5,0.314-1.471,0.566-2.91l-0.503-2.284v-1.033
				c0.01-0.521,0.021-1.032,0.031-1.533c0-0.73-0.125-1.304-0.377-1.721c-0.377-0.584-1.204-0.865-2.482-0.845l-0.031-0.563h2.451
				c0.44,0.147,1.739,0.147,3.896,0h2.859v0.471c-0.65,0.168-1.1,0.304-1.351,0.408c-0.482,0.21-0.838,0.482-1.068,0.817
				l-1.131,0.377l0.629,1.006v3.519c0,2.284,0.031,3.897,0.094,4.839c0.398,2.095,1.56,3.142,3.488,3.142c0.272,0,0.555,0,0.848,0
				l0.471,0.157l0.503-0.44c0.88-0.23,1.591-0.597,2.136-1.1c0.482-0.545,0.963-1.1,1.445-1.665l0.597-0.157l-0.597-0.723v-5.153
				l0.597-2.136l-0.66-0.66c-0.231-1.277-0.88-1.99-1.948-2.136c0-0.146,0-0.335,0-0.566c0.754,0,1.602,0.042,2.545,0.126
				c-0.335,0,1.739,0,6.221,0V86.396z"/>
		</g>
		<g display="inline">
			<path d="M66.051,58.252c-1.509-1.202-2.58-1.804-3.214-1.804c-1.006,0-1.76,0.842-2.263,2.525
				c-0.153,0.175-0.503,0.438-1.049,0.787l0.623,1.017c-0.175,1.181-0.219,3.226-0.131,6.133l-0.656,0.558l0.59,0.656V69.6h5.407
				l0.431,0.59c-1.531,0-2.865,0.383-4.001,1.148l-0.951-0.197l-1.082,1.279l-0.23,1.509l0.426,1.705v3.903
				c0-0.022-0.219,0.011-0.656,0.098c-0.066,0.022-0.11,0.044-0.131,0.065l0.787,0.656v1.935c0.021,0.569,0.328,1.137,0.918,1.705
				c0.525,0.503,1.093,0.831,1.705,0.984v0.656h-4.395c-0.197,0-0.541-0.049-1.033-0.148c-0.492-0.098-0.858-0.148-1.099-0.148
				c-0.153,0-0.361,0.049-0.623,0.148c-0.262,0.098-0.471,0.148-0.623,0.148l-1.705-0.033c0-0.349,0.011-0.535,0.033-0.556
				c0.503-0.109,1.115-0.404,1.837-0.884c0.809-0.545,1.214-1.004,1.214-1.375v-2.52l0.394-1.505
				c-0.131-0.262-0.262-0.742-0.394-1.44v-2.782l0.361-0.982c-0.065-0.153-0.186-0.382-0.361-0.687v-2.062h-2.821
				c-0.022-0.021-0.022-0.207,0-0.558c1.64-0.634,2.58-1.738,2.821-3.313v-3.542l0.558-1.115l-0.426-1.41
				c0.218-1.815,0.656-3.203,1.312-4.166l1.378-0.426l-0.82-0.262c0.962-0.94,2.329-1.235,4.1-0.885l0.229,0.361l0.689-0.098
				c0.809,0.416,1.989,1.345,3.542,2.788L66.051,58.252z"/>
		</g>
		<g display="inline">
			<path d="M52.006,65.665l-1.441-2.355l0.369-2.173c-1.225-2.798-2.878-4.971-4.96-6.521c-0.347-0.285-0.56-0.439-0.644-0.457
				c-0.918-0.329-1.609-0.563-2.081-0.706c-1.039-0.53-1.814-0.947-2.326-1.255c-0.673-0.347-2.059-0.519-4.162-0.519
				c-0.384,0-0.772,0.011-1.152,0.037c2.927,0.652,5.521,2.296,7.474,4.594c0.069,0.082,0.519-0.115,0.519-0.115
				s-0.17,0.541-0.1,0.632c1.561,2.011,2.652,4.467,3.09,7.168l0.545,0.446l-0.337,1.013c0.102,0.589,0.216,1.192,0.337,1.803
				c0.285,1.938,0.256,3.859-0.091,5.753c-0.121,0.593-0.208,1.028-0.26,1.302c-0.051,0.274-0.077,0.955-0.077,2.037l-0.735,0.15
				c-1.796,4.206-4.908,6.488-9.334,6.858l-0.582,0.49c-0.512-0.124-1.551-0.296-3.123-0.519c-1.284-0.183-2.312-0.413-3.076-0.688
				c-0.764-0.278-1.635-0.486-2.615-0.629c-1.551-1.386-3.113-2.772-4.685-4.159c-1.489-1.529-2.619-3.332-3.394-5.413
				c-0.45-1.222-0.786-2.129-1.013-2.721c0.062-0.446,0.051-1.028-0.029-1.741c-0.08-0.878-0.121-1.448-0.121-1.712
				c0-1.101,0.099-2.151,0.304-3.149c0.143-0.571,0.256-1.009,0.336-1.317l0.124-1.5c0.593-0.772,0.969-1.291,1.13-1.558
				c0.593-0.878,1.031-1.54,1.317-1.986c1.328-1.774,3.134-3.325,5.417-4.649h-0.64c-2.063,1.123-3.54,1.986-4.44,2.6l-0.673,1.039
				l-1.653,0.885c-0.446,0.245-1.174,1.072-2.173,2.48c-0.878,1.222-1.489,2.18-1.836,2.871l0.091,1.042
				c0,0.633-0.6,2.344-1.807,5.135c0,0.49,0.245,1.009,0.735,1.562c-0.428,0.633-0.651,0.966-0.673,1.009
				c-0.04,0.08,0.051,0.731,0.274,1.957c0.245,1.426,0.563,2.538,0.951,3.332c0.143,0.347,0.245,0.582,0.307,0.702
				c0.629,0.633,1.112,1.094,1.437,1.379l0.764,1.924c0.143,0.347,0.75,0.944,1.821,1.789c1.072,0.849,1.821,1.32,2.249,1.423
				c0.347,0.08,0.9,0.124,1.653,0.124v0.914c2.041,0.958,4.305,1.591,6.796,1.898c0.735,0.102,1.119,0.143,1.163,0.121l1.467-0.366
				l2.143,0.366c1.551-0.326,3.102-0.651,4.652-0.98c1.386-0.406,2.765-1.306,4.133-2.692l1.009-0.154
				c2.447-1.917,3.917-3.518,4.407-4.806c0.326-1.141,0.552-2.019,0.673-2.63l1.47-1.532c0.753-2.099,1.13-4.221,1.13-6.364
				C52.064,66.645,52.046,66.155,52.006,65.665z"/>
		</g>
	</g>
</g>
</svg>
