<?xml version="1.0" encoding="UTF-8" standalone="no"?>
<!-- Created with Inkscape (http://www.inkscape.org/) -->

<svg
   xmlns:dc="http://purl.org/dc/elements/1.1/"
   xmlns:cc="http://creativecommons.org/ns#"
   xmlns:rdf="http://www.w3.org/1999/02/22-rdf-syntax-ns#"
   xmlns:svg="http://www.w3.org/2000/svg"
   xmlns="http://www.w3.org/2000/svg"
   xmlns:xlink="http://www.w3.org/1999/xlink"
   xmlns:sodipodi="http://sodipodi.sourceforge.net/DTD/sodipodi-0.dtd"
   xmlns:inkscape="http://www.inkscape.org/namespaces/inkscape"
   id="svg2985"
   version="1.1"
   inkscape:version="0.48.2 r9819"
   width="7000"
   height="7000"
   sodipodi:docname="Oh.png"
   inkscape:export-filename="H:\Pics\Vectors\Oh.png"
   inkscape:export-xdpi="90"
   inkscape:export-ydpi="90">
  <metadata
     id="metadata2991">
    <rdf:RDF>
      <cc:Work
         rdf:about="">
        <dc:format>image/svg+xml</dc:format>
        <dc:type
           rdf:resource="http://purl.org/dc/dcmitype/StillImage" />
        <dc:title></dc:title>
      </cc:Work>
    </rdf:RDF>
  </metadata>
  <defs
     id="defs2989">
    <linearGradient
       inkscape:collect="always"
       id="linearGradient3953">
      <stop
         style="stop-color:#631d48;stop-opacity:1;"
         offset="0"
         id="stop3955" />
      <stop
         style="stop-color:#d1338c;stop-opacity:1"
         offset="1"
         id="stop3957" />
    </linearGradient>
    <linearGradient
       inkscape:collect="always"
       id="linearGradient3845">
      <stop
         style="stop-color:#631d48;stop-opacity:1;"
         offset="0"
         id="stop3847" />
      <stop
         style="stop-color:#d1338c;stop-opacity:1"
         offset="1"
         id="stop3849" />
    </linearGradient>
    <defs
       id="defmain">
      <g
         id="def9">
        <path
           id="def9:0"
           d="m 71,-137 -3,22 -39,29 -41,41 -31,39 -14,18 38,-19 42,-21 20,-10 Q 4,20 -18,91 q -22,72 -31,148 -9,75 -10,146 l 3,127 8,89 3,34 q -57,-119 -80,-211 -23,-90 -26,-154 -3,-62 3,-94 l 6,-31 -45,30 -47,41 -38,34 -14,13 q -8,-114 8,-214 17,-100 46,-181 29,-81 60,-140 30,-58 52,-89 l 22,-32 q 67,21 104,55 37,34 51,73 15,38 16,73 l -2,55"
           inkscape:connector-curvature="0"
           style="fill:#1998d5" />
        <path
           id="def9:1"
           d="m -98,-393 q 67,21 103,55 37,34 52,72 -31,20 -59,60 l -53,86 -41,92 -28,72 -10,31 101,-52 q -30,71 -40,154 -11,82 -8,163 l 12,148 17,107 7,40 q -57,-119 -80,-211 -23,-90 -26,-154 -3,-62 3,-94 l 6,-31 -45,30 -47,41 -38,34 -14,13 q -8,-114 8,-214 17,-100 46,-181 29,-81 60,-140 30,-58 52,-89 l 22,-32"
           inkscape:connector-curvature="0"
           style="fill:#ffe96b" />
        <path
           id="def9:2"
           d="m -19,-357 q -49,54 -85,121 -35,66 -59,134 l -37,127 -20,93 -5,39 31,-19 44,-29 39,-25 17,-11 q -23,68 -24,145 -2,77 9,150 l 25,134 27,97 12,36 q -57,-119 -80,-211 -23,-90 -26,-154 -3,-62 3,-94 l 6,-31 -45,30 -47,41 -38,34 -14,13 q -8,-114 8,-214 17,-100 46,-181 29,-81 60,-140 30,-58 52,-89 l 22,-32 q 47,15 79,36"
           inkscape:connector-curvature="0"
           style="fill:#ee4043" />
        <path
           id="def9:3"
           d="m 240,-422 q 19,35 14,74 -5,39 -39,67 20,0 42,26 23,25 34,64 11,39 0,81 -11,42 -57,76 -48,29 -83,29 -35,-1 -57,-20 -22,-19 -33,-47 -11,-28 -13,-55 -2,-27 4,-43 l -8,10 -24,22 q -15,11 -35,17 l -44,1 q -22,-8 -28,-29 -5,-21 1,-46 l 23,-49 q 14,-22 32,-33 l -19,-9 -38,-25 q -21,-16 -31,-43 -10,-26 4,-62 23,-49 59,-68 36,-20 73,-15 38,5 63,31 l 99,-4 q 41,16 61,50"
           inkscape:connector-curvature="0"
           style="fill:#ffffff" />
        <path
           id="def9:4"
           d="m 244,-336 q 11,-30 0,-63 -9,-28 -35,-51 -27,-22 -72,-23 l -30,3 -23,9 -13,11 q -20,30 -15,53 6,22 31,31 l 8,2 -7,5 -24,29 q -13,21 -17,49 -3,34 22,60 13,15 28,21 l 28,2 q 20,-6 26,-24 l -1,-18 -5,-19 -3,-9 q 24,23 17,49 -6,23 -31,30 l -13,1 -30,-6 -28,-20 q -27,-30 -24,-67 3,-26 18,-48 l 26,-32 q -12,-5 -22,-14 -9,-10 -12,-21 -4,-12 3,-31 6,-21 27,-40 l -32,-21 -39,-7 q -37,0 -67,22 -30,21 -46,59 -15,36 -2,66 12,23 31,38 19,14 35,21 l 17,8 9,3 -8,5 -29,29 -21,43 q -8,23 -6,44 4,26 27,33 l 20,3 q 24,-2 43,-14 l 32,-24 11,-14 20,-26 -12,31 q -5,12 -4,33 0,20 6,43 6,23 20,43 27,39 71,40 37,-1 83,-28 37,-27 50,-59 11,-31 10,-58 -2,-27 -8,-42 -11,-33 -29,-52 l -33,-27 -15,-9 q 26,-21 37,-52 m -43,-139 38,30 22,38 q 10,33 -3,66 -14,32 -39,55 20,7 42,31 21,24 32,56 l 7,46 q 2,30 -11,64 -14,34 -54,64 Q 187,4 148,4 99,4 69,-39 53,-65 46,-97 q -5,-32 -2,-56 l -34,26 q -21,13 -48,15 l -23,-4 q -28,-8 -33,-40 l 5,-42 19,-44 29,-33 -25,-13 -31,-22 q -15,-14 -24,-33 l -10,-39 q -3,-21 5,-41 18,-41 50,-64 31,-23 71,-23 l 47,11 q 24,11 39,26 l 30,-11 34,-3 56,12"
           inkscape:connector-curvature="0"
           style="fill:#1998d5" />
      </g>
    </defs>
    <linearGradient
       inkscape:collect="always"
       xlink:href="#linearGradient3845"
       id="linearGradient3851"
       x1="215.90384"
       y1="156.43231"
       x2="200.61537"
       y2="164.93451"
       gradientUnits="userSpaceOnUse" />
    <clipPath
       clipPathUnits="userSpaceOnUse"
       id="clipPath3858">
      <path
         transform="matrix(0.9001365,-0.31153851,0.37940596,0.73100151,-36.705379,111.31856)"
         d="m 216.6875,153.59375 a 14.28125,19.53125 0 1 1 -28.5625,0 14.28125,19.53125 0 1 1 28.5625,0 z"
         sodipodi:ry="19.53125"
         sodipodi:rx="14.28125"
         sodipodi:cy="153.59375"
         sodipodi:cx="202.40625"
         id="path3860"
         style="fill:#ffffff;fill-opacity:1;stroke:none"
         sodipodi:type="arc" />
    </clipPath>
    <clipPath
       clipPathUnits="userSpaceOnUse"
       id="clipPath3869">
      <path
         transform="matrix(1.0199128,-0.27046629,0.28224485,0.99183566,-51.285484,56.269312)"
         d="m 216.6875,153.59375 a 14.28125,19.53125 0 1 1 -28.5625,0 14.28125,19.53125 0 1 1 28.5625,0 z"
         sodipodi:ry="19.53125"
         sodipodi:rx="14.28125"
         sodipodi:cy="153.59375"
         sodipodi:cx="202.40625"
         id="path3871"
         style="fill:#ffffff;fill-opacity:1;stroke:none"
         sodipodi:type="arc" />
    </clipPath>
    <clipPath
       clipPathUnits="userSpaceOnUse"
       id="clipPath3892">
      <path
         clip-path="url(#clipPath3858)"
         transform="matrix(1.0833334,0,0,1.2937853,-26.770833,-54.63983)"
         d="m 220.75,165.5625 a 9,11.0625 0 1 1 -18,0 9,11.0625 0 1 1 18,0 z"
         sodipodi:ry="11.0625"
         sodipodi:rx="9"
         sodipodi:cy="165.5625"
         sodipodi:cx="211.75"
         id="path3894"
         style="fill:url(#linearGradient3896);fill-opacity:1;stroke:none"
         sodipodi:type="arc" />
    </clipPath>
    <linearGradient
       inkscape:collect="always"
       xlink:href="#linearGradient3845"
       id="linearGradient3896"
       gradientUnits="userSpaceOnUse"
       x1="215.90384"
       y1="156.43231"
       x2="200.61537"
       y2="164.93451" />
    <linearGradient
       inkscape:collect="always"
       xlink:href="#linearGradient3953"
       id="linearGradient3959"
       x1="231.71761"
       y1="148.99297"
       x2="222.91026"
       y2="155.71048"
       gradientUnits="userSpaceOnUse"
       gradientTransform="matrix(32.239586,0,0,30.023115,-1573.897,-9287.5309)" />
    <linearGradient
       inkscape:collect="always"
       xlink:href="#linearGradient3845"
       id="linearGradient3969"
       gradientUnits="userSpaceOnUse"
       x1="215.90384"
       y1="156.43231"
       x2="200.61537"
       y2="164.93451" />
  </defs>
  <sodipodi:namedview
     pagecolor="#ffffff"
     bordercolor="#666666"
     borderopacity="1"
     objecttolerance="10"
     gridtolerance="10"
     guidetolerance="10"
     inkscape:pageopacity="0"
     inkscape:pageshadow="2"
     inkscape:window-width="1920"
     inkscape:window-height="1024"
     id="namedview2987"
     showgrid="false"
     inkscape:zoom="0.125"
     inkscape:cx="2923.3316"
     inkscape:cy="3533.6448"
     inkscape:window-x="-4"
     inkscape:window-y="-4"
     inkscape:window-maximized="1"
     inkscape:current-layer="layer34" />
  <g
     inkscape:groupmode="layer"
     id="layer33"
     inkscape:label="Back - Fill"
     transform="translate(0,6640)">
    <path
       style="fill:#95cffd;fill-opacity:1;stroke:none"
       d="m 3903.2938,-1774.2465 -123.8454,172.6329 -104.0072,173.4285 -66.3424,180.451 -26.5368,196.3734 0,246.79357 84.9182,352.94123 148.607,313.13568 -18.5759,108.801664 -395.4006,15.922158 -451.1279,-918.178002 549.3146,-950.0223 188.4125,-23.8834 z"
       id="path3965"
       inkscape:connector-curvature="0" />
    <path
       style="fill:#95cffd;fill-opacity:1;stroke:none"
       d="m 4575.0433,-1805.0097 -10.6147,318.4432 2.654,456.4354 55.7274,228.21771 50.4203,382.1318 87.572,305.17476 172.49,122.0697771 294.5601,31.8443159 368.8634,-31.8443159 76.957,-76.9570491 -42.459,-137.991938 -236.1789,-376.82462 -132.6845,-363.5559 -183.1049,-1106.59014 z"
       id="path3967"
       inkscape:connector-curvature="0" />
  </g>
  <g
     inkscape:groupmode="layer"
     id="layer32"
     inkscape:label="Front - Fill"
     transform="translate(0,6640)">
    <path
       style="fill:#a6e2ff;fill-opacity:1;stroke:none"
       d="m 3654.2118,-4986.7882 -42.4593,-206.9881 -82.2645,-289.2526 10.615,-249.447 66.3424,-238.8324 106.1476,-193.7196 122.0698,-137.9922 167.1828,135.3384 228.2177,305.1748 724.4583,236.1786 1024.3257,785.4933 -124.7236,443.167 34.4981,51.7469 112.7818,-3.9805 34.4981,103.4939 -21.2297,114.1089 -72.9766,91.5525 -171.1632,168.5095 -237.5054,99.5134 -376.8246,41.1323 114.1089,264.0425 147.2798,473.6842 11.9417,318.4432 -80.963,302.1589 78.3093,204.6967 68.9961,273.3305 26.5368,244.1398 -21.2293,395.4002 -114.1089,291.90638 -140.6456,159.22159 -114.1089,29.19057 -175.1437,-119.41604 -228.2177,-469.7038 61.0349,-281.2917 161.8753,-196.3731 c 0,0 37.1518,-106.1479 15.9221,-98.1867 -21.2296,7.961 -183.1049,95.533 -183.1049,95.533 l -191.0659,55.7274 -342.3263,-50.4202 -191.0662,84.9183 -366.2096,-84.9183 -179.1474,164.7128 -114.4631,204.5325 -110.7102,258.9493 -31.8996,288.9725 22.5174,318.99559 73.1813,360.27737 153.8685,317.119153 13.1351,91.945787 -78.8107,80.68712 -303.984,41.28178 -213.9147,-15.01155 -240.1849,-78.81068 -95.6987,-142.609793 -13.1351,-232.679137 30.0231,-576.06851 71.3049,-536.66313 155.7449,-375.289 105.0809,-86.3164 197.0267,-5.6294 -30.0231,-140.7333 -195.1503,-491.6285 -33.776,-399.6827 86.3165,-330.2543 193.2738,-165.1271 223.2969,-58.1698 277.7138,1.8764 260.8258,155.7449 313.3663,133.2276 z"
       id="path3962"
       inkscape:connector-curvature="0" />
  </g>
  <g
     inkscape:groupmode="layer"
     id="layer5"
     inkscape:label="Mane - Fill - Yellow"
     transform="translate(0,6640)">
    <path
       style="fill:#f6f2b6;fill-opacity:1;stroke:none"
       d="m 4107.024,-5989.1597 485.5038,-303.0215 667.9867,251.1226 318.0886,940.8731 -303.0215,-220.9878 18.4159,227.6844 -16.7415,120.539 -256.1452,-349.8975 -286.28,-262.8419 -294.6505,-159.0444 -224.3363,-25.1123 -112.1681,-227.6845 z"
       id="path3818"
       inkscape:connector-curvature="0" />
  </g>
  <g
     inkscape:groupmode="layer"
     id="layer8"
     inkscape:label="Mane - Fill - Purple"
     transform="translate(0,6640)">
    <path
       style="fill:#75439b;fill-opacity:1;stroke:none"
       d="m 3783.9129,-4115.7843 c 0,0 185.8308,3.3482 192.5274,6.6966 6.6967,3.3482 358.2682,602.6945 358.2682,602.6945 l 13.3933,308.0438 -40.1796,252.7967 -70.3144,85.3819 -66.966,-246.1004 -97.1007,-276.2349 -207.5949,-441.9759 z"
       id="path3827"
       inkscape:connector-curvature="0" />
  </g>
  <g
     inkscape:groupmode="layer"
     id="layer7"
     inkscape:label="Mane - Fill - Blue"
     transform="translate(0,6640)">
    <path
       style="fill:#37aae5;fill-opacity:1;stroke:none"
       d="m 3772.1937,-4129.1776 c 198.4332,253.7313 408.5989,392.9419 574.2341,842.0982 l -13.3934,-287.9541 227.6848,207.5948 0,-170.7633 c 0,0 -102.1233,-282.9316 -105.4718,-289.6282 -3.3481,-6.6967 -483.8297,-575.9082 -483.8297,-575.9082 0,0 -242.7519,-532.3801 -247.7744,-549.1216 -5.0223,-16.7415 -63.6175,-78.6852 -63.6175,-78.6852 l -8.371,97.1008 -3.3482,266.19 60.2696,346.5493 z"
       id="path3824"
       inkscape:connector-curvature="0"
       sodipodi:nodetypes="ccccccccccccc" />
  </g>
  <g
     inkscape:groupmode="layer"
     id="layer6"
     inkscape:label="Mane - Fill - Green"
     transform="translate(0,6640)">
    <path
       style="fill:#74ca61;fill-opacity:1;stroke:none"
       d="m 3698.531,-4971.2759 c 67.7517,484.6941 332.3721,901.5026 788.5253,1252.2654 l -63.6178,-160.7186 -192.5274,-252.7967 147.3255,-82.0334 c 0,0 16.7415,-30.1348 10.0449,-30.1348 -6.6967,0 -226.0104,-110.494 -226.0104,-110.494 l -172.4375,-170.7634 -207.5948,-301.3474 -28.4607,-82.0334 z"
       id="path3821"
       inkscape:connector-curvature="0"
       sodipodi:nodetypes="cccccsccccc" />
  </g>
  <g
     inkscape:groupmode="layer"
     id="layer4"
     inkscape:label="Mane - Fill - Orange"
     transform="translate(0,6640)">
    <path
       style="fill:#f78047;fill-opacity:1;stroke:none"
       d="m 4538.9552,-6278.7879 c 582.9075,240.2756 797.9456,796.3346 999.4683,1188.7184 l 277.9092,152.2769 386.729,147.3252 83.2808,12.5029 239.4034,-33.483 132.2581,-172.4375 -88.73,-15.0674 -242.7519,-77.0111 -167.9142,-127.4496 -79.4336,-472.6803 132.2581,100.4489 222.6619,276.2352 -83.7074,-336.5045 -120.5389,-113.8422 c 0,0 -830.379,-642.8742 -832.0531,-649.5708 -1.6753,-6.6966 -599.3463,-3.3483 -599.3463,-3.3483 z"
       id="path3815"
       inkscape:connector-curvature="0"
       sodipodi:nodetypes="cccccccccccccccccc" />
  </g>
  <g
     inkscape:groupmode="layer"
     id="layer3"
     inkscape:label="Mane - Fill - Red"
     transform="translate(0,6640)">
    <path
       style="fill:#f8555a;fill-opacity:1;stroke:none"
       d="m 4763.2915,-6374.2146 c 511.4888,118.1547 1033.5673,311.3977 1593.7921,775.132 l -58.5953,-150.6734 -133.9322,-190.8533 -254.4711,-234.3812 -155.696,-120.539 75.3367,-1.674 411.8415,117.1904 -30.1348,-66.9659 -220.9881,-128.9097 -257.8193,-95.4266 -348.2234,-58.5953 -358.2685,63.6178 z"
       id="path3812"
       inkscape:connector-curvature="0"
       sodipodi:nodetypes="cccccccccccccc" />
  </g>
  <g
     inkscape:groupmode="layer"
     id="layer24"
     inkscape:label="Tail - Fill - Red "
     transform="translate(0,6640)">
    <path
       style="fill:#f8555a;fill-opacity:1;stroke:none"
       d="m 1693.1322,-918.67598 -132.6847,-1316.23192 663.4235,-934.1002 764.2636,-10.6147 -84.9183,164.5291 -217.6027,58.3811 -163.3831,116.6455 -142.6098,232.6792 -101.328,255.1965 -78.8107,379.0418 -11.2586,469.1111 -123.8454,-60.0462 -22.5173,330.2543 -45.0347,382.79469 -101.328,318.9956 -153.8685,210.1618 -33.776,-273.96092 37.5289,-311.48982 z"
       id="path4275"
       inkscape:connector-curvature="0" />
  </g>
  <g
     inkscape:groupmode="layer"
     id="layer23"
     inkscape:label="Tail - Fill - Orange"
     transform="translate(0,6640)">
    <path
       style="fill:#f78047;fill-opacity:1;stroke:none"
       d="m 2961.5978,-3110.6267 c -1176.8273,-190.3564 -1102.1572,1454.9559 -1218.0454,2091.1103 l -140.6457,260.062 -331.7117,-95.53295 265.3693,-2505.08665 c 0,0 976.5593,-58.3812 987.174,-66.3424 10.6147,-7.9609 541.3534,148.6069 541.3534,148.6069 l -31.8444,87.5718 -55.7274,87.572 z"
       id="path4272"
       inkscape:connector-curvature="0"
       sodipodi:nodetypes="cccccccccc" />
  </g>
  <g
     inkscape:groupmode="layer"
     id="layer22"
     inkscape:label="Tail - Fill - Yellow"
     transform="translate(0,6640)">
    <path
       style="fill:#f6f2b6;fill-opacity:1;stroke:none"
       d="m 3030.5936,-3184.9303 c -276.8062,-240.6241 -1200.8633,-383.8101 -1316.2318,1077.3996 -36.9781,468.3495 -19.4194,946.6222 -136.6652,1389.20857 l -130.031,226.89068 -110.1283,139.31896 -95.533,-409.99565 62.3618,-955.32946 59.7082,-1260.5046 238.8324,-525.4312 902.2557,-191.0659 594.4273,334.3653 79.6108,79.6108 z"
       id="path4269"
       inkscape:connector-curvature="0"
       sodipodi:nodetypes="csccccccccccc" />
  </g>
  <g
     inkscape:groupmode="layer"
     id="layer21"
     inkscape:label="Tail - Fill - Green"
     transform="translate(0,6640)">
    <path
       style="fill:#74ca61;fill-opacity:1;stroke:none"
       d="m 1334.8836,-379.97634 c 207.5134,-385.64481 142.8533,-1111.68386 152.3266,-1512.50926 23.325,-986.9132 236.2907,-2102.0194 1625.6479,-1438.3975 l -297.2135,-281.2917 -514.8165,-196.3734 -764.2638,212.2956 -376.8245,774.8785 -5.3074,1090.668 c 0,0 -26.5369,1215.39156 -13.2684,1345.42257 13.2684,130.03101 -34.498,172.49 -34.498,172.49 l 103.494,-18.5759 188.4123,-185.75841 z"
       id="path4266"
       inkscape:connector-curvature="0"
       sodipodi:nodetypes="csccccccscccc" />
  </g>
  <g
     inkscape:groupmode="layer"
     id="layer20"
     inkscape:label="Tail - Fill - Blue"
     transform="translate(0,6640)">
    <path
       style="fill:#37aae5;fill-opacity:1;stroke:none"
       d="M 2657.7501,-3655.9611 C 680.16742,-3724.3354 1568.8804,-1528.6916 1158.413,-423.76235 L 964.69336,-291.0776 664.826,-126.54853 c -179.99884,78.332109 -168.16367,20.7817 -185.75856,-15.92216 l 214.9492,-116.76259 185.75853,-233.52489 c 113.27061,-160.60925 166.24543,-357.39576 209.64173,-559.92963 l 26.537,-485.6256 -98.1867,-658.116 143.2995,-965.9445 586.4663,-605.042 631.5791,-50.4202 z"
       id="path4244"
       inkscape:connector-curvature="0"
       sodipodi:nodetypes="cccccccccccccc" />
  </g>
  <g
     inkscape:groupmode="layer"
     id="layer19"
     inkscape:label="Tail - Fill - Purple"
     transform="translate(0,6640)">
    <path
       style="fill:#75439b;fill-opacity:1;stroke:none"
       d="M 2454.7422,-3747.5133 C 1154.5313,-3920.3278 1083.5374,-2374.522 1119.9344,-1667.0174 l -201.68067,557.2755 -140.64575,130.03103 100.84035,-504.20193 39.8054,-260.062 100.84037,-936.7536 164.529,-522.7778 42.4591,-74.3033 -214.9492,66.3424 -151.26051,132.6848 92.87927,-307.8285 307.82844,-291.9064 376.8245,-156.5678 286.5989,-47.7665 525.4314,74.3033 z"
       id="path4242"
       inkscape:connector-curvature="0"
       sodipodi:nodetypes="ccccccccccccccccc" />
  </g>
  <g
     inkscape:groupmode="layer"
     id="layer18"
     inkscape:label="Tail"
     transform="translate(0,6640)">
    <g
       id="g4229"
       transform="matrix(30.023115,0,0,30.023115,-1024.2499,-9253.7549)">
      <g
         id="g4233">
        <g
           id="g4237">
          <path
             sodipodi:nodetypes="scscscsccccccccccccccccccccsccccsccscsccs"
             inkscape:connector-curvature="0"
             id="path4221"
             d="m 101.5625,178.0625 c -1.94467,-0.10239 -3.879624,-0.0821 -5.78125,0.0625 -15.213011,1.1571 -32.544796,12.22705 -35.09375,28.875 -0.285485,1.86458 -0.421639,3.72917 0.28125,5.59375 l 2.5625,-5.21875 c 1.91041,-3.89071 8.02217,-6.92928 10.1875,-7.125 -6.035268,9.50822 -7.781409,21.79266 -8.8125,34.40625 -1.153351,14.10922 -3.573869,32.74083 -7.59375,44.25 l -1.59375,4.5625 3.625,-3.21875 c 4.325654,-3.85551 8.856142,-13.53425 10.9375,-19.125 -0.285024,14.91592 -3.295011,24.38158 -7.21875,30.3125 -5.427231,7.20175 -13.206247,12.11825 -21.15625,14.4375 10.108524,2.48812 20.637774,-1.15882 28.15625,-7.75 -0.431888,3.12663 -5.228965,7.34086 -8,9.84375 13.495,-1.12344 24.142973,-19.44503 28.75,-27.71875 -0.09421,8.48012 -1.845016,16.344 -2.375,24.625 14.61822,-11.38974 15.89443,-38.02807 14.9375,-52.84375 l -1.5,-3.625 c -0.8556,26.45558 -2.790775,37.40201 -9.1875,47.375 0.30962,-5.72506 1.128553,-14.00341 0.4375,-19.8125 l -0.40625,-3.25 -1.875,2.6875 c -6.066867,8.68968 -9.569613,18.76581 -18.59375,24.0625 0.989334,-2.60698 1.645041,-4.54808 1.96875,-7.34375 L 71.375,294 c -5.173077,3.95843 -12.262716,8.44587 -18.78125,9.625 3.311255,-2.18573 9.164928,-5.67691 12.5625,-10.8125 4.890823,-7.39271 8.515276,-19.10617 7.71875,-38.875 l -0.25,-6.25 -2.1875,5.875 c -2.068329,5.60025 -5.185988,14.10809 -8.3125,18.875 2.718084,-10.93368 4.301527,-25.57732 5.28125,-37.5625 1.144407,-13.99981 3.199164,-27.22517 10.5625,-36.34375 l 2.28125,-2.8125 -3.53125,0.8125 c -4.319028,0.99372 -8.684105,3.3887 -12.03125,6 5.923777,-13.83967 18.203631,-20.91157 31.28125,-21.90625 14.33326,-1.09019 30.61788,5.33416 43.125,18.96875 l 1.8125,-1.6875 C 129.55598,185.53279 115.17519,178.77926 101.5625,178.0625 z"
             style="font-size:medium;font-style:normal;font-variant:normal;font-weight:normal;font-stretch:normal;text-indent:0;text-align:start;text-decoration:none;line-height:normal;letter-spacing:normal;word-spacing:normal;text-transform:none;direction:ltr;block-progression:tb;writing-mode:lr-tb;text-anchor:start;baseline-shift:baseline;color:#000000;fill:#37aae5;fill-opacity:1;stroke:none;stroke-width:2.5;marker:none;visibility:visible;display:inline;overflow:visible;enable-background:accumulate;font-family:Sans;-inkscape-font-specification:Sans" />
          <path
             sodipodi:nodetypes="ccccsc"
             inkscape:connector-curvature="0"
             id="path4227"
             d="m 130.625,209.1875 c -20.11138,0.15559 -24.31852,36.16665 -21.875,57.9375 -7.74869,-11.05457 -8.4672,-22.48551 -7.625,-34 1.39435,7.53849 1.07562,14.62017 4.6875,22.75 -0.47142,-10.6747 2.12901,-50.78242 25.8125,-49.07767 0.37919,0.0273 -1,2.39017 -1,2.39017 z"
             style="fill:#37aae5;fill-opacity:1;stroke:none" />
        </g>
      </g>
    </g>
  </g>
  <g
     inkscape:groupmode="layer"
     id="layer11"
     inkscape:label="Back"
     transform="translate(0,6640)">
    <path
       style="font-size:medium;font-style:normal;font-variant:normal;font-weight:normal;font-stretch:normal;text-indent:0;text-align:start;text-decoration:none;line-height:normal;letter-spacing:normal;word-spacing:normal;text-transform:none;direction:ltr;block-progression:tb;writing-mode:lr-tb;text-anchor:start;baseline-shift:baseline;color:#000000;fill:#7cb8f0;fill-opacity:1;stroke:none;stroke-width:2;marker:none;visibility:visible;display:inline;overflow:visible;enable-background:accumulate;font-family:Sans;-inkscape-font-specification:Sans"
       d="m 3502.6729,-3377.6684 c -271.618,3.6733 -456.5441,97.8795 -558.2423,258.9493 -101.6982,161.0698 -120.5281,383.04 -80.6872,639.8676 23.7123,152.8579 85.535,283.121 138.857,407.1885 32.2042,74.9317 121.5347,249.9791 129.6452,383.1448 57.1922,-101.5397 -48.6507,-346.5379 -75.2284,-407.537 -54.3589,-124.7611 -112.0675,-249.7248 -134.1657,-392.177 -38.583,-248.7199 -17.8452,-454.9655 72.2431,-597.6476 90.0882,-142.6822 249.1357,-228.2459 507.5783,-231.7409 145.4406,-1.9665 228.1645,40.8263 317.1191,98.5133 88.9546,57.687 183.2893,132.2819 336.8218,182.0152 l 17.8262,-57.2316 c -143.7419,-46.562 -229.4531,-115.5539 -321.8102,-175.4476 -92.3571,-59.8937 -191.9918,-110.0317 -349.9569,-107.8955 z"
       id="path3844"
       inkscape:connector-curvature="0"
       sodipodi:nodetypes="cssscsssssccscc" />
  </g>
  <g
     inkscape:groupmode="layer"
     id="layer12"
     inkscape:label="Leg1"
     transform="translate(0,6640)">
    <path
       style="fill:#7cb8f0;fill-opacity:1;stroke:none"
       d="m 4662.8423,-2234.0382 c 128.0053,-153.9978 540.3548,-432.1515 683.0537,-66.9659 245.2,627.4996 162.486,1010.7966 8.7134,1294.1037 -57.5171,144.48503 -209.8532,260.32111 -320.1056,130.59904 -311.3793,-398.56584 -292.4266,-622.73224 -177.1889,-776.64904 95.9383,-128.1396 185.5801,-238.4289 128.8067,-414.8915 9.4915,186.7672 -128.6893,288.7293 -223.4531,419.594 -71.8276,99.1907 -86.608,260.3866 -0.2402,445.0807 176.835,378.14862 364.2714,627.31315 593.5111,328.53993 382.777,-498.88183 149.2596,-1385.27913 -60.2693,-1598.81463 -232.7785,-237.2297 -578.1996,94.4197 -632.8293,239.4037 z"
       id="path3851"
       inkscape:connector-curvature="0"
       sodipodi:nodetypes="csccscssssc" />
    <path
       style="fill:#7cb8f0;fill-opacity:1;stroke:none"
       d="m 4707.728,-2303.4501 c -14.4045,-55.0453 -50.4871,-88.4127 -79.3147,-129.0349 52.1285,7.3062 84.4535,50.2921 124.2993,85.2342 z"
       id="path3853"
       inkscape:connector-curvature="0"
       sodipodi:nodetypes="cccc" />
    <path
       style="font-size:medium;font-style:normal;font-variant:normal;font-weight:normal;font-stretch:normal;text-indent:0;text-align:start;text-decoration:none;line-height:normal;letter-spacing:normal;word-spacing:normal;text-transform:none;direction:ltr;block-progression:tb;writing-mode:lr-tb;text-anchor:start;baseline-shift:baseline;color:#000000;fill:#7cb8f0;fill-opacity:1;stroke:none;stroke-width:2;marker:none;visibility:visible;display:inline;overflow:visible;enable-background:accumulate;font-family:Sans;-inkscape-font-specification:Sans"
       d="m 4984.4598,-1985.0946 c -190.1874,109.0815 -392.3889,193.2023 -637.3868,128.2846 l -30.0232,52.5404 c 264.4824,70.0806 491.3328,-12.2864 685.8406,-123.8453 z"
       id="path3855"
       inkscape:connector-curvature="0"
       sodipodi:nodetypes="ccccc" />
  </g>
  <g
     inkscape:groupmode="layer"
     id="layer13"
     inkscape:label="Leg2"
     style="display:inline"
     transform="translate(0,6640)">
    <path
       style="font-size:medium;font-style:normal;font-variant:normal;font-weight:normal;font-stretch:normal;text-indent:0;text-align:start;text-decoration:none;line-height:normal;letter-spacing:normal;word-spacing:normal;text-transform:none;direction:ltr;block-progression:tb;writing-mode:lr-tb;text-anchor:start;baseline-shift:baseline;color:#000000;fill:#7cb8f0;fill-opacity:1;stroke:none;stroke-width:2;marker:none;visibility:visible;display:inline;overflow:visible;enable-background:accumulate;font-family:Sans;-inkscape-font-specification:Sans"
       d="m 3688.4409,-1881.2038 c -323.1634,259.642 -438.8977,621.782 -452.2232,959.80142 -13.3254,338.01944 73.0652,653.67946 158.5596,835.017874 38.8112,82.3209781 86.1177,160.318028 97.5751,212.038246 5.7287,25.86011 3.2023,41.09624 -5.6293,52.54045 -8.8316,11.44421 -29.8433,24.61415 -75.0578,30.96134 -147.3291,20.68172 -356.2459,49.14063 -522.5898,21.57911 -83.1719,-13.78091 -154.9298,-41.74564 -204.5325,-88.1929 -49.6027,-46.44726 -80.1836,-111.585106 -79.7489,-212.038244 2.3028,-531.939036 17.9529,-1049.597596 221.4205,-1518.043696 41.7351,-96.0875 83.6717,-121.1292 133.2275,-130.4129 49.5559,-9.2838 111.2885,3.8964 180.1387,0.9367 l -2.8132,-60.0463 c -58.4345,2.51 -122.1916,-12.4376 -188.5826,0 -66.3911,12.4377 -130.6276,58.5559 -177.3241,166.0654 -209.4631,482.2496 -223.8049,1008.65416 -226.1115,1541.499295 -0.4894,113.268204 37.6766,198.289465 99.4515,256.134695 61.775,57.84524 145.1513,88.23553 235.4938,103.20446 180.6848,29.93785 393.1635,-0.9097 540.4161,-21.57912 53.397,-7.49587 91.7206,-24.00798 114.4631,-53.47867 22.7425,-29.47069 23.7369,-67.11367 15.9498,-102.26623 -15.5742,-70.30483 -64.4362,-146.924119 -101.328,-225.17336 -80.6628,-171.09002 -165.7871,-480.73882 -152.9303,-806.87121 12.8568,-326.13236 122.2292,-667.72786 429.7059,-914.76676 l -37.5289,-46.9111 z"
       id="path3862"
       inkscape:connector-curvature="0" />
  </g>
  <g
     inkscape:groupmode="layer"
     id="layer14"
     inkscape:label="Leg3"
     transform="translate(0,6640)">
    <path
       style="font-size:medium;font-style:normal;font-variant:normal;font-weight:normal;font-stretch:normal;text-indent:0;text-align:start;text-decoration:none;line-height:normal;letter-spacing:normal;word-spacing:normal;text-transform:none;direction:ltr;block-progression:tb;writing-mode:lr-tb;text-anchor:start;baseline-shift:baseline;color:#000000;fill:#7cb8f0;fill-opacity:1;stroke:none;stroke-width:2;marker:none;visibility:visible;display:inline;overflow:visible;enable-background:accumulate;font-family:Sans;-inkscape-font-specification:Sans"
       d="m 4550.6672,-1789.258 c -23.4072,398.6535 -31.8503,835.01724 135.104,1542.43748 24.6445,104.42339 76.791,179.591061 144.4863,228.926244 67.6952,49.335183 149.2187,73.540719 232.6791,81.625343 143.0718,13.859571 279.2354,-2.113627 410.0032,-15.011557 42.5553,-4.197832 82.8722,-9.801947 117.2777,-20.640891 34.4056,-10.838945 64.9049,-27.21835593 84.4401,-55.355118 19.5351,-28.136762 23.7134,-65.97039 13.1351,-106.957351 -10.5784,-40.98695 -34.4173,-87.34594 -74.1196,-144.48623 -141.9847,-204.34723 -221.8561,-403.59803 -280.5285,-594.83296 l -58.1698,17.82622 c 59.7388,194.71101 142.587,400.10184 288.9725,610.78274 37.3521,53.75789 57.9729,95.87732 65.6756,125.72179 7.7027,29.844479 3.7961,45.007353 -4.6911,57.231565 -8.4873,12.224211 -26.0277,24.189923 -53.4787,32.837781 -27.451,8.647858 -63.477,13.814836 -104.1427,17.826225 C 5335.8629,1.6390631 5203.5447,16.760205 5068.5659,3.6848381 4992.6273,-3.6714259 4922.3858,-24.584927 4865.9099,-65.743615 4809.434,-106.9023 4765.7594,-167.50576 4743.941,-259.95564 4578.3557,-961.57541 4587.4023,-1388.4873 4610.7134,-1785.5052 l -60.0462,-3.7528 z"
       id="path3869"
       inkscape:connector-curvature="0" />
  </g>
  <g
     inkscape:groupmode="layer"
     id="layer15"
     inkscape:label="Leg4"
     style="display:inline"
     transform="translate(0,6640)">
    <path
       style="font-size:medium;font-style:normal;font-variant:normal;font-weight:normal;font-stretch:normal;text-indent:0;text-align:start;text-decoration:none;line-height:normal;letter-spacing:normal;word-spacing:normal;text-transform:none;direction:ltr;block-progression:tb;writing-mode:lr-tb;text-anchor:start;baseline-shift:baseline;color:#000000;fill:#7cb8f0;fill-opacity:1;stroke:none;stroke-width:2;marker:none;visibility:visible;display:inline;overflow:visible;enable-background:accumulate;font-family:Sans;-inkscape-font-specification:Sans"
       d="m 3915.4907,-1813.6518 c -411.6833,387.9875 -439.2274,871.38065 -290.8489,1322.89347 36.0016,109.55194 106.183,225.86269 142.6098,313.36626 18.2132,43.75178 26.4707,80.114577 23.4555,96.636898 -1.5071,8.26116 -3.9015,12.055782 -9.3822,15.94978 -5.4807,3.893998 -16.1548,8.273169 -35.6525,9.382223 -13.105,0.744573 -85.4725,4.297509 -153.8684,6.567556 -34.1982,1.134874 -68.0723,2.275752 -91.9458,1.876445 -11.9369,-0.210162 -21.1756,-1.27298 -26.2702,-1.876445 -2.546,-0.300231 -4.6515,-0.603464 -2.8132,0 0.9187,0.300231 3.3197,0.489377 7.5058,3.75289 4.1861,3.262611 11.6384,14.407792 10.3204,26.270225 l -48.4537,-9.231207 c -1.4081,12.680563 7.0987,24.1731111 12.1969,28.14667007 5.0982,3.97355903 7.5481,4.71873303 10.3205,5.62933403 5.5449,1.822403 -1.1409,4.9394029 3.419,5.4768159 9.1219,1.07783 19.8963,1.660279 32.8378,1.876445 25.8829,0.432333 60.0672,-0.726559 94.7604,-1.876445 69.3864,-2.3027729 141.6803,-6.7591029 154.8067,-7.5057779 26.6957,-1.51917 49.4151,-6.816448 67.552,-19.7026691 18.137,-12.886221 30.0535,-33.080369 33.776,-53.478673 7.4455,-40.796305 -7.4598,-82.972785 -27.2084,-130.412905 -39.4975,-94.87995 -108.1388,-210.42841 -140.7334,-309.61337 -143.8275,-437.66435 -119.8366,-888.95502 274.8992,-1260.97082 l -41.2818,-43.1582 z"
       id="path3876"
       inkscape:connector-curvature="0"
       sodipodi:nodetypes="csscscsccccccsccsccssssccc" />
  </g>
  <g
     inkscape:groupmode="layer"
     id="layer17"
     inkscape:label="Cutie Mark"
     transform="translate(0,6640)">
    <g
       id="g4143"
       transform="matrix(-1.0522979,0.12947468,0.12947468,1.0522979,3470.0317,-2685.0538)">
      <path
         id="path16"
         d="m 69.582082,-143.57283 -2.897611,21.24915 -37.668946,28.010244 -39.600687,39.600692 -29.941983,37.668946 -13.522186,17.38566713 36.703076,-18.35153713 40.566557,-20.283279 19.317409,-9.658704 Q 4.8687648,8.0688324 -16.380385,76.645632 -37.629534,146.1883 -46.322368,219.59445 q -8.692833,72.44028 -9.658704,141.01708 l 2.897611,122.66554 7.726964,85.96247 2.897611,32.83959 q -55.054618,-114.93857 -77.269634,-203.79865 -22.21501,-86.92834 -25.11263,-148.74405 -2.89761,-59.88396 2.89762,-90.79182 l 5.79522,-29.94198 -43.46417,28.97611 -45.39591,39.60069 -36.70308,32.83959 -13.52218,12.55632 q -7.72697,-110.10923 7.72696,-206.696265 16.4198,-96.587042 44.43004,-174.822545 28.01024,-78.23551 57.95223,-135.22186 28.97611,-56.02049 50.22526,-85.96247 l 21.249146,-30.90785 q 64.713314,20.28328 100.4505197,53.12287 35.7372053,32.83959 49.2593903,70.50854 14.488057,36.70308 15.453927,70.50854 l -1.931741,53.12287"
         inkscape:connector-curvature="0"
         style="fill:#1998d5" />
      <path
         id="path18"
         d="m -93.650014,-390.83565 q 64.713314,20.28328 99.4846492,53.12287 35.7372048,32.83959 50.2252608,69.54267 -29.941982,19.31741 -56.98635364,57.95222 l -51.19113236,83.06486 -39.600684,88.860083 -27.044366,69.54267 -9.65871,29.941983 97.552909,-50.225262 q -28.976112,68.5768 -38.634817,148.744036 -10.624574,79.20138 -7.726963,157.43688 l 11.590445,142.94882 16.419797,103.34814 6.761093,38.63481 q -55.054618,-114.93857 -77.269634,-203.79865 -22.21501,-86.92834 -25.11263,-148.74405 -2.89761,-59.88396 2.89762,-90.79182 l 5.79522,-29.94198 -43.46417,28.97611 -45.39591,39.60069 -36.70308,32.83959 -13.52218,12.55632 q -7.72697,-110.10923 7.72696,-206.696265 16.4198,-96.587042 44.43004,-174.822545 28.01024,-78.23551 57.95223,-135.22186 28.97611,-56.02049 50.22526,-85.96247 l 21.249146,-30.90785"
         inkscape:connector-curvature="0"
         style="fill:#ffe96b" />
      <path
         id="path20"
         d="m -17.346255,-356.06432 q -47.327651,52.157 -82.098989,116.87032 -33.805456,63.74745 -56.986346,129.42664 l -35.73721,122.665545 -19.3174,89.825945 -4.82936,37.66895 29.94199,-18.35154 42.49829,-28.01024 37.66895,-24.146761 16.419796,-10.624574 q -22.215016,65.679185 -23.180886,140.051205 -1.93174,74.37202 8.69283,144.88056 l 24.146758,129.42664 26.078501,93.68943 11.590445,34.77133 q -55.054618,-114.93857 -77.269634,-203.79865 -22.21501,-86.92834 -25.11263,-148.74405 -2.89761,-59.88396 2.89762,-90.79182 l 5.79522,-29.94198 -43.46417,28.97611 -45.39591,39.60069 -36.70308,32.83959 -13.52218,12.55632 q -7.72697,-110.10923 7.72696,-206.696265 16.4198,-96.587042 44.43004,-174.822545 28.01024,-78.23551 57.95223,-135.22186 28.97611,-56.02049 50.22526,-85.96247 l 21.249146,-30.90785 q 45.395906,14.48805 76.303759,34.77133"
         inkscape:connector-curvature="0"
         style="fill:#ee4043" />
      <path
         id="path22"
         d="m 232.81419,-418.8459 q 18.35153,33.80547 13.52218,71.47442 -4.82935,37.66894 -37.66894,64.71331 19.3174,0 40.56655,25.11263 22.21502,24.14676 32.8396,61.81571 10.62457,37.66895 0,78.2355 -10.62458,40.566566 -55.05462,73.40616 -46.36178,28.010242 -80.16724,28.010242 -33.80546,-0.96587 -55.054618,-19.317408 -21.249149,-18.351538 -31.873724,-45.395909 -10.624574,-27.044375 -12.556315,-53.122875 -1.931741,-26.0785 3.863481,-41.53243 l -7.726963,9.6587 -23.18089,21.24915 q -14.4880558,10.62458 -33.805464,16.4198 l -42.498299,0.96587 q -21.249149,-7.72696 -27.044371,-28.01024 -4.829353,-20.28328 0.96587,-44.43004 l 22.21502,-47.32765 q 13.522185,-21.24915 30.907853,-31.87372 l -18.351538,-8.69284 -36.703076,-24.14676 q -20.283276,-15.45393 -29.941976,-41.53243 -9.65871,-25.11263 3.86348,-59.88396 22.215014,-47.32765 56.986349,-65.67919 34.771335,-19.31741 70.508541,-14.48806 36.703076,4.82935 60.849836,29.94199 l 95.621174,-3.86349 q 39.60069,15.45393 58.9181,48.29352"
         inkscape:connector-curvature="0"
         style="fill:#ffffff" />
      <g
         style="display:inline"
         inkscape:label="Layer"
         id="layer1-4">
        <path
           sodipodi:nodetypes="cssccsscssccssccsscsccsscssssc"
           inkscape:connector-curvature="0"
           id="path3361"
           d="m 74.690594,-360.10399 c -22.23367,25.21952 -32.745717,47.3024 -36.285455,63.03703 -14.708379,65.38082 34.426639,101.87475 74.729011,104.94875 34.26404,2.61345 59.92159,-46.10467 24.52031,-76.82631 54.06946,132.93011 -189.993346,44.54796 -43.944615,-94.21857 -77.472049,-14.77277 -31.820776,-109.31054 25.840345,-105.08997 11.2951,0.82676 7.94715,-1.36139 25.57919,-0.1497 120.35338,8.27082 127.93852,130.03895 55.55503,183.03868 80.78431,41.64741 81.78422,107.56936 81.30666,131.50545 C 279.86451,-47.271225 160.32466,-15.458535 121.24849,-24.027613 72.010005,-34.825212 27.118096,-128.8889 65.903901,-202.44515 c -106.427023,149.026084 -226.906831,38.52587 -86.618778,-77.88713 -79.282207,-30.45075 -114.190803,-84.41502 -83.134333,-147.92487 11.780248,-24.0904 38.265787,-54.57795 78.498231,-63.38168 28.8507353,-6.31317 63.2626,-0.70734 98.902014,32.31179 l 7.865101,-6.36699 c -42.056875,-35.28848 -73.472474,-42.60152 -98.673708,-38.40746 -27.163067,4.52055 -46.885213,14.79853 -62.856333,29.42774 -76.642955,70.20337 -56.878235,150.19041 40.931847,198.8657 -78.867342,72.32926 -55.439643,148.47085 -13.070128,152.10822 25.652353,2.20222 60.0360447,-6.65006 86.477726,-7.54021 l 10.486798,23.22078 c 6.805233,33.10714 33.202404,89.536783 88.974412,98.0979646 65.50085,10.05458383 205.254,-68.1683226 143.94562,-210.7715446 -10.24047,-23.81934 -28.89646,-47.08134 -63.18738,-67.50352 86.79521,-79.69196 24.7769,-164.52054 -24.53956,-182.31193 -19.88724,-7.17452 -44.87681,-9.25936 -72.93341,-8.56664 -25.218512,0.62265 -45.233846,14.18635 -51.462399,21.48584 -15.491812,18.15553 -28.164053,43.14732 -22.524536,64.12732 4.343988,16.16039 15.818347,27.98459 31.705509,33.35778 z"
           style="fill:#1998d5;fill-opacity:1;stroke:none" />
      </g>
    </g>
    <path
       style="fill:#a6e2ff;fill-opacity:1;stroke:none"
       d="m 3115.187,-2826.9319 c 9.3823,-3.7529 191.3974,-41.2818 191.3974,-41.2818 l 386.5476,69.4284 264.5787,75.0578 -45.0347,534.7867 -142.6098,236.4321 -253.32,-46.9111 z"
       id="path4151"
       inkscape:connector-curvature="0" />
  </g>
  <g
     inkscape:groupmode="layer"
     id="layer16"
     inkscape:label="Wing"
     style="display:inline"
     transform="translate(0,6640)">
    <path
       style="fill:#7cb8f0;fill-opacity:1;stroke:none"
       d="m 4324.1755,-2662.1426 c 652.3396,323.2571 28.7093,1334.9157 -760.0018,767.1047 -263.8104,-189.9229 -905.9934,-1020.3253 -267.5399,-994.3953 364.6845,14.8113 612.2716,121.24 845.236,220.1878 l -142.0565,0 c -1405.6723,-516.5552 -833.2108,272.9149 -547.9525,588.6833 606.2856,671.1313 1496.1659,-42.3674 872.3147,-581.5805 z"
       id="path3883"
       inkscape:connector-curvature="0"
       sodipodi:nodetypes="cssccsc" />
    <path
       style="font-size:medium;font-style:normal;font-variant:normal;font-weight:normal;font-stretch:normal;text-indent:0;text-align:start;text-decoration:none;line-height:normal;letter-spacing:normal;word-spacing:normal;text-transform:none;direction:ltr;block-progression:tb;writing-mode:lr-tb;text-anchor:start;baseline-shift:baseline;color:#000000;fill:#7cb8f0;fill-opacity:1;stroke:none;stroke-width:2;marker:none;visibility:visible;display:inline;overflow:visible;enable-background:accumulate;font-family:Sans;-inkscape-font-specification:Sans"
       d="m 4052.0022,-2704.963 c -4.3819,0.4143 -8.9688,0.8436 -13.7287,1.339 -33.1638,3.437 -65.8221,8.9847 -104.9566,34.3143 -39.8581,25.798 -72.6839,75.2514 -91.9458,146.3627 -106.7325,-2.9843 -195.0812,37.7706 -238.3085,109.772 -45.149,75.2028 -35.9685,178.1455 37.5289,273.0227 -6.3535,92.9324 19.7543,168.7773 66.6138,227.0498 49.4304,61.4696 117.6936,106.8349 185.768,149.1774 l 35.451,-47.7548 c -66.8404,-41.5754 -132.876,-87.4285 -174.3079,-138.9515 -41.4319,-51.5229 -63.7057,-110.9942 -54.4169,-197.0267 l 0.9368,-12.1969 -7.5058,-10.3204 c -68.2137,-83.1724 -70.9726,-157.8955 -38.4671,-212.0383 32.5054,-54.1427 105.3652,-90.8574 205.4707,-81.6253 l 26.2702,1.8764 5.6293,-26.2702 c 14.6057,-138.303 128.6239,-196.7454 246.2832,-182.4841 l -86.3161,-34.2452 z"
       id="path3885"
       inkscape:connector-curvature="0"
       sodipodi:nodetypes="csscscsccscccscccccc" />
    <path
       style="font-size:medium;font-style:normal;font-variant:normal;font-weight:normal;font-stretch:normal;text-indent:0;text-align:start;text-decoration:none;line-height:normal;letter-spacing:normal;word-spacing:normal;text-transform:none;direction:ltr;block-progression:tb;writing-mode:lr-tb;text-anchor:start;baseline-shift:baseline;color:#000000;fill:#7cb8f0;fill-opacity:1;stroke:none;stroke-width:1.20000005;marker:none;visibility:visible;display:inline;overflow:visible;enable-background:accumulate;font-family:Sans;-inkscape-font-specification:Sans"
       d="m 3133.0133,-2464.7781 -20.6409,30.0231 534.7867,365.9067 20.6409,-30.0231 -534.7867,-365.9067 z"
       id="path3891"
       inkscape:connector-curvature="0" />
    <path
       style="font-size:medium;font-style:normal;font-variant:normal;font-weight:normal;font-stretch:normal;text-indent:0;text-align:start;text-decoration:none;line-height:normal;letter-spacing:normal;word-spacing:normal;text-transform:none;direction:ltr;block-progression:tb;writing-mode:lr-tb;text-anchor:start;baseline-shift:baseline;color:#000000;fill:#7cb8f0;fill-opacity:1;stroke:none;stroke-width:1.20000005;marker:none;visibility:visible;display:inline;overflow:visible;enable-background:accumulate;font-family:Sans;-inkscape-font-specification:Sans"
       d="m 3083.6012,-2745.3006 -17.2966,33.8532 596.4905,309.5242 17.2967,-33.8532 -596.4906,-309.5242 z"
       id="path3891-1"
       inkscape:connector-curvature="0" />
    <path
       style="font-size:medium;font-style:normal;font-variant:normal;font-weight:normal;font-stretch:normal;text-indent:0;text-align:start;text-decoration:none;line-height:normal;letter-spacing:normal;word-spacing:normal;text-transform:none;direction:ltr;block-progression:tb;writing-mode:lr-tb;text-anchor:start;baseline-shift:baseline;color:#000000;fill:#7cb8f0;fill-opacity:1;stroke:none;stroke-width:1.10000002;marker:none;visibility:visible;display:inline;overflow:visible;enable-background:accumulate;font-family:Sans;-inkscape-font-specification:Sans"
       d="m 3250.4559,-2866.3787 -40.5297,22.3441 678.1912,300.4872 16.1359,-37.3556 z"
       id="path3891-7"
       inkscape:connector-curvature="0"
       sodipodi:nodetypes="ccccc" />
  </g>
  <g
     inkscape:groupmode="layer"
     id="layer34"
     inkscape:label="eye1">
    <path
       sodipodi:type="arc"
       style="fill:#ffffff;fill-opacity:1;stroke:none;display:inline"
       id="path3840"
       sodipodi:cx="202.40625"
       sodipodi:cy="153.59375"
       sodipodi:rx="14.28125"
       sodipodi:ry="19.53125"
       d="m 216.6875,153.59375 a 14.28125,19.53125 0 1 1 -28.5625,0 14.28125,19.53125 0 1 1 28.5625,0 z"
       transform="matrix(29.276978,-12.101235,12.340195,28.394631,-3026.8594,70.144482)" />
  </g>
  <g
     inkscape:groupmode="layer"
     id="layer26"
     inkscape:label="Eye1"
     style="display:inline"
     transform="translate(0,6640)">
    <path
       style="fill:#ffffff;fill-opacity:1;stroke:none"
       d="m 5883.3143,-4364.497 50.4202,-156.5678 37.1515,-168.5096 3.9808,-153.9144 -335.6924,-191.0659 -2.654,152.5874 7.9612,196.3734 50.4202,164.5291 36.0488,70.539 55.3551,50.8988 z"
       id="path3927"
       inkscape:connector-curvature="0" />
  </g>
  <g
     inkscape:groupmode="layer"
     id="layer27"
     inkscape:label="Eye2"
     style="display:inline"
     transform="translate(0,6640)">
    <path
       sodipodi:type="arc"
       style="fill:url(#linearGradient3969);fill-opacity:1;stroke:none"
       id="path3843"
       sodipodi:cx="211.75"
       sodipodi:cy="165.5625"
       sodipodi:rx="9"
       sodipodi:ry="11.0625"
       d="m 220.75,165.5625 a 9,11.0625 0 1 1 -18,0 9,11.0625 0 1 1 18,0 z"
       transform="matrix(32.525043,0,0,38.843464,-1827.9937,-10894.213)"
       clip-path="url(#clipPath3858)" />
    <path
       style="fill:url(#linearGradient3959);fill-opacity:1;stroke:none"
       d="m 5834.1553,-4354.3579 c -95.7892,-60.5485 -153.806,-141.6821 -150.1155,-277.7138 4.1595,-153.3205 67.2089,-277.7138 150.1155,-277.7138 63.2596,0 117.3795,72.3887 139.4778,174.8327 -6.3073,141.4707 -50.3737,389.9894 -139.4778,380.5949 z"
       id="path3929"
       inkscape:connector-curvature="0"
       sodipodi:nodetypes="csscc" />
  </g>
  <g
     inkscape:groupmode="layer"
     id="layer30"
     inkscape:label="Eye4"
     style="display:inline"
     transform="translate(0,6640)">
    <g
       id="g3888"
       clip-path="url(#clipPath3892)"
       transform="matrix(30.023115,0,0,30.023115,-1024.2499,-9253.7549)">
      <path
         inkscape:connector-curvature="0"
         id="path3880"
         d="m 203.4375,160.75 -16.65625,2.9375 3.15625,6.03125 z"
         style="fill:#e769b3;fill-opacity:1;stroke:none"
         sodipodi:nodetypes="cccc" />
      <path
         sodipodi:nodetypes="cccc"
         inkscape:connector-curvature="0"
         id="path3882"
         d="m 203.39964,160.76484 -13.49339,8.86016 4.75,2.25 z"
         style="fill:#fcc2eb;fill-opacity:1;stroke:none" />
    </g>
    <path
       style="fill:#e769b3;fill-opacity:1;stroke:none"
       d="m 5832.8941,-4588.0707 -154.5776,32.5078 30.5176,68.9961 z"
       id="path3947"
       inkscape:connector-curvature="0"
       sodipodi:nodetypes="cccc" />
    <path
       style="fill:#fcc2eb;fill-opacity:1;stroke:none"
       d="m 5846.1625,-4565.5144 -142.6359,68.9962 39.8052,51.7469 z"
       id="path3949"
       inkscape:connector-curvature="0"
       sodipodi:nodetypes="cccc" />
  </g>
  <g
     inkscape:groupmode="layer"
     id="layer28"
     inkscape:label="Eye3"
     style="display:inline"
     transform="translate(0,6640)">
    <path
       sodipodi:type="arc"
       style="fill:#000000;fill-opacity:1;stroke:none"
       id="path3867"
       sodipodi:cx="208.375"
       sodipodi:cy="162.78125"
       sodipodi:rx="6.125"
       sodipodi:ry="9.96875"
       d="m 214.5,162.78125 a 6.125,9.96875 0 1 1 -12.25,0 6.125,9.96875 0 1 1 12.25,0 z"
       transform="matrix(29.759037,-3.9732995,3.9732995,29.759037,-1719.2059,-8448.5073)"
       clip-path="url(#clipPath3869)" />
    <path
       style="fill:#000000;fill-opacity:1;stroke:none"
       d="m 5849.2749,-4354.3058 c -63.993,-4.0315 -109.8371,-103.049 -102.3961,-221.1617 7.4411,-118.1126 65.3495,-210.5934 129.3425,-206.5619 41.2167,2.5966 74.9045,44.5971 91.6754,105.7243 -40.5771,107.6953 -26.4981,323.7558 -118.6218,321.9993 z"
       id="path3940"
       inkscape:connector-curvature="0"
       sodipodi:nodetypes="csscc" />
  </g>
  <g
     inkscape:groupmode="layer"
     id="layer29"
     inkscape:label="Eyeshines"
     style="display:inline"
     transform="translate(0,6640)">
    <path
       sodipodi:type="arc"
       style="fill:#ffffff;fill-opacity:1;stroke:none"
       id="path3874"
       sodipodi:cx="205.28125"
       sodipodi:cy="158.40625"
       sodipodi:rx="2.96875"
       sodipodi:ry="5.03125"
       d="m 208.25,158.40625 a 2.96875,5.03125 0 1 1 -5.9375,0 2.96875,5.03125 0 1 1 5.9375,0 z"
       transform="matrix(32.464579,15.839133,-16.018336,29.991453,899.38141,-12604.359)" />
    <path
       sodipodi:type="arc"
       style="fill:#ffffff;fill-opacity:1;stroke:none"
       id="path3877"
       sodipodi:cx="206.4375"
       sodipodi:cy="164.0625"
       sodipodi:rx="1.5"
       sodipodi:ry="2.3125"
       d="m 207.9375,164.0625 a 1.5,2.3125 0 1 1 -3,0 1.5,2.3125 0 1 1 3,0 z"
       transform="matrix(27.829369,11.265596,-11.265596,27.829369,1222.4665,-11281.408)" />
    <path
       sodipodi:type="arc"
       style="fill:#ffffff;fill-opacity:1;stroke:none"
       id="path3943"
       sodipodi:cx="229.36777"
       sodipodi:cy="153.69055"
       sodipodi:rx="2.032932"
       sodipodi:ry="3.9001358"
       d="m 231.4007,153.69055 a 2.032932,3.9001358 0 1 1 -4.06586,0 2.032932,3.9001358 0 1 1 4.06586,0 z"
       transform="matrix(27.517886,12.006388,-12.006388,27.517886,1351.8511,-11678.331)" />
    <path
       sodipodi:type="arc"
       style="fill:#ffffff;fill-opacity:1;stroke:none"
       id="path3945"
       sodipodi:cx="229.01421"
       sodipodi:cy="159.20377"
       sodipodi:rx="0.70710677"
       sodipodi:ry="1.2153398"
       d="m 229.72131,159.20377 a 0.70710677,1.2153398 0 1 1 -1.41421,0 0.70710677,1.2153398 0 1 1 1.41421,0 z"
       transform="matrix(26.103616,14.832015,-14.832015,26.103616,2217.435,-12088.86)" />
  </g>
  <g
     inkscape:groupmode="layer"
     id="layer25"
     inkscape:label="Eyebrows"
     style="display:inline"
     transform="translate(0,6640)">
    <path
       style="fill:#000000;fill-opacity:1;stroke:none"
       d="m 4338.629,-4780.3108 c -49.8913,-737.5479 953.0084,-479.2737 940.0987,317.1191 118.5829,-770.5042 -963.614,-1147.5933 -988.8863,-379.0418 -48.1622,-11.0326 -101.4841,-24.08 -149.6463,-18.2955 -29.7523,3.5734 -68.5041,42.1816 -7.9751,57.7008 62.2311,15.9555 136.1056,16.9409 206.409,22.5174 z"
       id="path4278"
       inkscape:connector-curvature="0"
       sodipodi:nodetypes="cccssc" />
    <path
       style="fill:#000000;fill-opacity:1;stroke:none"
       d="m 4323.6174,-4952.0055 c -65.9941,-14.2604 -133.593,-30.5933 -185.768,-84.44 -29.8715,-30.829 -2.3088,-50.0206 16.888,-45.9729 66.7717,14.0796 127.1893,36.2538 184.8298,74.1195 z"
       id="path3898"
       inkscape:connector-curvature="0"
       sodipodi:nodetypes="csscc" />
    <path
       style="fill:#000000;fill-opacity:1;stroke:none"
       d="m 4368.4242,-5082.6022 c -45.6949,-43.8055 -108.775,-78.924 -127.7253,-152.0772 -10.8494,-41.8825 16.4445,-43.9204 31.7134,-33.6892 37.1816,24.9142 101.4992,81.0476 131.1579,142.2999 z"
       id="path3898-1"
       inkscape:connector-curvature="0"
       sodipodi:nodetypes="csscc" />
    <path
       style="fill:#000000;fill-opacity:1;stroke:none"
       d="m 5665.3696,-5028.2681 c -26.5906,165.59 -28.2124,416.7469 80.4403,599.3964 -149.2175,-171.5367 -137.0168,-406.7537 -135.826,-629.5661 z"
       id="path3918"
       inkscape:connector-curvature="0"
       sodipodi:nodetypes="cccc" />
  </g>
  <g
     inkscape:groupmode="layer"
     id="layer31"
     inkscape:label="Forehead"
     transform="translate(0,6640)">
    <path
       style="font-size:medium;font-style:normal;font-variant:normal;font-weight:normal;font-stretch:normal;text-indent:0;text-align:start;text-decoration:none;line-height:normal;letter-spacing:normal;word-spacing:normal;text-transform:none;direction:ltr;block-progression:tb;writing-mode:lr-tb;text-anchor:start;baseline-shift:baseline;color:#000000;fill:#7cb8f0;fill-opacity:1;stroke:none;stroke-width:0.80000001;marker:none;visibility:visible;display:inline;overflow:visible;enable-background:accumulate;font-family:Sans;-inkscape-font-specification:Sans"
       d="m 5983.3327,-4829.0984 -24.3938,0.9367 c 5.1766,201.075 -44.4669,349.8441 -93.8222,472.8641 l 22.5173,8.444 c 49.7991,-124.1267 100.984,-276.9404 95.6987,-482.2463 z"
       id="path3921"
       inkscape:connector-curvature="0" />
  </g>
  <g
     inkscape:groupmode="layer"
     id="layer2"
     inkscape:label="Mane"
     style="display:inline"
     transform="translate(0,6640)">
    <path
       style="font-size:medium;font-style:normal;font-variant:normal;font-weight:normal;font-stretch:normal;text-indent:0;text-align:start;text-decoration:none;line-height:normal;letter-spacing:normal;word-spacing:normal;text-transform:none;direction:ltr;block-progression:tb;writing-mode:lr-tb;text-anchor:start;baseline-shift:baseline;color:#000000;fill:#37aae5;fill-opacity:1;stroke:none;stroke-width:2.29999995;marker:none;visibility:visible;display:inline;overflow:visible;enable-background:accumulate;font-family:Sans;-inkscape-font-specification:Sans"
       d="m 5249.6428,-6544.1688 c -378.9979,31.9458 -765.5996,215.0106 -1155.8899,520.7134 l 43.1583,54.4169 c 383.4357,-300.3339 757.5288,-475.2761 1118.361,-505.7019 289.7251,-24.4299 676.8693,48.0185 965.3434,271.1115 -112.0841,-45.9336 -544.0065,-172.601 -651.9333,-108.5482 223.2879,-12.8565 807.3194,212.4326 912.8813,248.2835 -290.3923,-260.3271 -651.6268,-529.0332 -1231.9208,-480.2752 z"
       id="path3771"
       inkscape:connector-curvature="0"
       sodipodi:nodetypes="cccscccc" />
    <path
       style="fill:#37aae5;fill-opacity:1;stroke:none"
       d="m 5757.7372,-6300.5519 c 420.4614,257.2032 698.159,603.8299 713.1886,1114.9849 -163.3897,-247.5664 -367.8762,-475.6662 -616.0878,-683.0538 212.1451,102.377 368.8772,270.438 529.0319,453.6949 -44.4925,-391.4309 -413.3162,-690.1681 -724.9075,-897.3451 z"
       id="path3777"
       inkscape:connector-curvature="0"
       sodipodi:nodetypes="cccccc" />
    <path
       style="font-size:medium;font-style:normal;font-variant:normal;font-weight:normal;font-stretch:normal;text-indent:0;text-align:start;text-decoration:none;line-height:normal;letter-spacing:normal;word-spacing:normal;text-transform:none;direction:ltr;block-progression:tb;writing-mode:lr-tb;text-anchor:start;baseline-shift:baseline;color:#000000;fill:#37aae5;fill-opacity:1;stroke:none;stroke-width:2.79999995;marker:none;visibility:visible;display:inline;overflow:visible;enable-background:accumulate;font-family:Sans;-inkscape-font-specification:Sans"
       d="m 6003.1155,-5742.8642 c 0.4804,8.9535 10.8204,57.1631 13.0271,65.9443 77.2347,307.3187 44.8158,471.7739 183.9195,591.6868 119.8072,103.2783 260.5778,139.8795 409.0649,134.1658 -67.6367,89.9057 -157.3226,130.8915 -267.3934,137.9187 -134.9214,8.6136 -292.7719,-51.499 -464.42,-114.4631 -256.3428,-94.0321 -636.8401,-450.5377 -737.8331,-532.8662 155.7332,204.2262 355.8931,446.1654 702.1806,608.8622 173.1439,81.3485 348.2156,132.9612 505.7019,122.9071 157.4862,-10.0541 297.965,-88.2614 379.98,-251.4436 l 36.5907,-72.2431 -79.7489,12.1969 c -163.7542,24.2986 -306.0457,-2.2337 -429.7058,-108.8338 -118.1566,-101.8555 -78.5735,-243.9708 -153.0339,-532.2618 -28.9122,-18.6359 -49.101,-48.0799 -98.3296,-61.5702 z"
       id="path3779"
       inkscape:connector-curvature="0"
       sodipodi:nodetypes="csscsscsscccscc" />
    <path
       style="font-size:medium;font-style:normal;font-variant:normal;font-weight:normal;font-stretch:normal;text-indent:0;text-align:start;text-decoration:none;line-height:normal;letter-spacing:normal;word-spacing:normal;text-transform:none;direction:ltr;block-progression:tb;writing-mode:lr-tb;text-anchor:start;baseline-shift:baseline;color:#000000;fill:#37aae5;fill-opacity:1;stroke:none;stroke-width:2.5999999;marker:none;visibility:visible;display:inline;overflow:visible;enable-background:accumulate;font-family:Sans;-inkscape-font-specification:Sans"
       d="m 4216.6601,-5804.8496 3.8456,77.8724 c 467.6527,16.5569 808.9155,432.9195 1055.4089,819.0681 l 59.108,91.9458 13.1351,-108.8338 c 14.4987,-120.6701 -9.9875,-270.8922 -52.1012,-394.8829 -45.5106,-29.6229 -51.4771,-52.9977 -102.8871,-82.8308 49.6663,104.488 73.9226,265.1675 81.5313,360.2894 -246.6008,-361.5146 -593.1051,-746.1678 -1058.0391,-762.6282 z"
       id="path3785"
       inkscape:connector-curvature="0"
       sodipodi:nodetypes="cccccccccc" />
    <path
       style="fill:#37aae5;fill-opacity:1;stroke:none"
       d="m 3611.8675,-5117.7992 c -20.0344,1271.4282 446.0639,1457.8342 610.8428,2372.3428 179.0308,-197.8481 164.2231,-484.5386 132.586,-778.9428 153.9651,136.44 227.0876,325.1899 307.7892,509.0356 19.0118,-427.9618 -125.5516,-796.8246 -395.1033,-1109.3085 l 257.782,-121.8476 c -227.9532,-66.4033 -445.8228,-122.43 -695.7403,-558.8496 l -92.673,-101.7129 c 136.9682,327.8305 338.4392,563.7935 622.6806,681.8711 -118.648,48.2541 -155.9043,53.0169 -227.2903,49.7198 237.1256,211.0265 375.8444,444.1202 402.4935,713.8335 l -255.7017,-207.1655 c 44.0213,253.8715 88.0391,507.7428 -37.8817,752.8992 -160.2547,-713.2126 -632.0061,-1188.0867 -561.123,-2089.4136 z"
       id="path3791"
       inkscape:connector-curvature="0"
       sodipodi:nodetypes="ccccccccccccccc" />
  </g>
  <g
     inkscape:groupmode="layer"
     id="layer1"
     inkscape:label="Ear"
     transform="translate(0,6640)">
    <path
       style="fill:#7cb8f0;fill-opacity:1;stroke:none"
       d="m 3867.6203,-4760.3329 c -206.1345,-287.1518 -502.0351,-867.4923 -93.7523,-1426.3768 46.1762,-63.2089 80.1206,-58.8928 110.4938,-36.8312 181.3751,131.7409 272.4673,351.3245 364.9652,565.8631 -36.5282,-260.1842 -138.7689,-474.6616 -338.1786,-636.1775 -56.819,-46.0218 -103.1531,-68.4115 -160.7185,3.3483 -489.4915,610.1885 -170.9237,1265.7071 117.1904,1530.1741 z"
       id="path3764"
       inkscape:connector-curvature="0"
       sodipodi:nodetypes="csscssc" />
    <path
       style="fill:#7cb8f0;fill-opacity:1;stroke:none"
       d="m 3790.6095,-5848.5312 c 5.9134,215.4075 43.2378,424.1186 137.2804,639.526 -89.0359,-95.6897 -216.4207,-350.5174 -137.2804,-639.526 z"
       id="path3766"
       inkscape:connector-curvature="0"
       sodipodi:nodetypes="ccc" />
  </g>
  <g
     inkscape:groupmode="layer"
     id="layer9"
     inkscape:label="Face"
     transform="translate(0,6640)">
    <path
       style="fill:#7cb8f0;fill-opacity:1;stroke:none"
       d="m 5716.8079,-4483.9236 c 45.0569,54.7024 94.2834,97.1609 206.6704,101.9492 152.9189,6.5154 156.7693,96.7144 117.1907,215.9656 -233.6017,703.8484 -1382.5821,406.818 -1510.0846,316.4145 360.4245,60.8602 1175.4608,264.7279 1465.7195,-333.1563 25.2215,-51.9523 7.0596,-120.5368 -93.7526,-140.6285 -129.0429,-25.7181 -156.8341,-100.4012 -185.7434,-160.5445 z"
       id="path3830"
       inkscape:connector-curvature="0"
       sodipodi:nodetypes="csscssc" />
    <path
       style="fill:#7cb8f0;fill-opacity:1;stroke:none"
       d="m 5730.9509,-4245.531 c 16.1191,54.0077 52.1664,82.4987 100.4492,84.5445 -78.2609,45.3106 -107.2542,3.4496 -100.4492,-84.5445 z"
       id="path3832"
       inkscape:connector-curvature="0"
       sodipodi:nodetypes="ccc" />
    <path
       style="fill:#7cb8f0;fill-opacity:1;stroke:none"
       d="m 5776.9901,-3910.7009 c -67.8282,-66.3616 -211.9677,-60.9665 -320.6,-58.5952 121.4069,-92.1557 254.9293,-38.2147 400.1223,5.8596 z"
       id="path3834"
       inkscape:connector-curvature="0"
       sodipodi:nodetypes="cccc" />
  </g>
  <g
     inkscape:groupmode="layer"
     id="layer10"
     inkscape:label="Neck"
     transform="translate(0,6640)">
    <path
       style="font-size:medium;font-style:normal;font-variant:normal;font-weight:normal;font-stretch:normal;text-indent:0;text-align:start;text-decoration:none;line-height:normal;letter-spacing:normal;word-spacing:normal;text-transform:none;direction:ltr;block-progression:tb;writing-mode:lr-tb;text-anchor:start;baseline-shift:baseline;color:#000000;fill:#7cb8f0;fill-opacity:1;stroke:none;stroke-width:2;marker:none;visibility:visible;display:inline;overflow:visible;enable-background:accumulate;font-family:Sans;-inkscape-font-specification:Sans"
       d="m 5193.3495,-3748.2663 -56.2933,21.5791 c 73.9166,191.6829 178.7411,425.1919 233.6173,661.4468 54.8763,236.2549 60.0808,473.1234 -61.9227,675.5201 l 51.6023,30.9613 c 133.0075,-220.6522 126.1454,-475.4364 69.4284,-719.6165 -56.7169,-244.1801 -163.5317,-480.8439 -236.432,-669.8908 z"
       id="path3837"
       inkscape:connector-curvature="0" />
  </g>
</svg>
