<?xml version="1.0" standalone="no"?>
<!DOCTYPE svg PUBLIC "-//W3C//DTD SVG 20010904//EN" "http://www.w3.org/TR/2001/REC-SVG-20010904/DTD/svg10.dtd">
<svg version="1.1" xmlns="http://www.w3.org/2000/svg" width="7cm" height="7cm" viewBox="0 0 630 630">
	<g id="Roomy_Maze_Puzzle_by_Adam_Stanislav">
		<title>Roomy Maze Puzzle, by Adam Stanislav</title>

		<g id="Puzzle" transform="translate(0,630) scale(1,-1)" fill="#000" stroke="none">
			<path d="M0 315l0-315 28 1c23 2 24 2 5 6-21 4-23 10-22 58 1 46 4 52 15 40 16-16 18-35 4-35-5 0-10-5-10-11 0-5 4-8 9-5 5 4 11 2 13-3 1-5 9-3 16 5 7 8 8 14 2 14-5 0-10 8-10 18 0 9-9 23-21 30-15 10-19 21-17 48 3 39 20 47 29 12 5-22 5-22 11 4 4 20 1 28-8 28-8 0-14 6-14 13 0 8-4 7-10-3-7-11-10-4-10 25l0 40 16-32c9-18 23-33 32-33 12 0 11 3-4 17-11 10-25 30-33 45-19 38 0 60 48 58 53-3 58-1 65 15 3 9 0 15-10 15-8 0-12-4-9-10 3-5-13-9-41-8-28 0-49-5-54-12-5-7-8 35-8 93l-1 107 30 0c16 0 29 5 29 11 0 5-4 8-9 5-5-4-12 0-14 6-4 10-6 10-6 1-1-19-31-16-31 3 0 8 4 13 8 10 4-2 14-1 22 5 12 7 10 9-7 9-14 0-23 6-23 15 0 10 11 15 35 15 19 0 35-4 35-10 0-5 5-10 11-10 5 0 7 5 4 10-10 16 41 12 55-5 7-8 10-31 8-50-3-24 0-35 9-35 7 0 13-6 13-12 0-9 4-8 10 2 8 12 10 9 10-12 0-25-4-28-32-29-31-1-31-1-8-8 38-11 50-2 50 36 0 27-4 33-17 31-14-2-19 5-21 37-2 22-9 43-15 47-6 4 27 7 73 7 55 0 87-4 92-12 6-9 8-9 8 1 0 6 12 12 28 12 15 0 22-4 16-8-8-5-7-11 4-22 14-13 15-12 9 3-8 21 19 35 36 18 6-6 18-11 26-10 11 0 10 3-4 9-14 6 1 9 48 9 43 1 66-3 62-9-9-15 4-12 21 5 14 13-17 15-280 15l-296 0 0-315zM601 603l1-28 8 25c7 22 8 21 9-12 1-30-3-38-16-38-15 0-16 2-3 10 9 6 10 10 3 10-17 0-29-23-15-28 7-2 12-10 12-18 0-10-12-14-42-14-42 0-42 0-19-16 15-11 21-23 18-36-3-11 3-27 18-41 13-12 25-31 28-42 4-17 5-17 6 4 0 13-7 31-16 40-10 9-20 27-22 41-1 14-8 28-15 32-6 4 3 8 21 8 25 0 33 5 36 23 4 19 4 19 6-5 0-14-5-29-11-31-10-4-10-6 0-6 6-1 12-12 12-25 0-13-6-27-12-29-10-4-10-6 0-6 15-1 17-91 2-91-5 0-9-17-9-37l2-38 7 35 7 35 2-37c1-45-18-51-36-11-15 32-17 55-3 33 7-10 10-11 10-2 0 7-8 16-17 19-10 4-21 11-25 17-5 7-8 7-8-1 0-7-7-13-15-13-8 0-15 8-15 18 0 13 2 14 9 4 7-11 9-11 14 1 4 10 13 13 27 10 16-4 18-8 8-14-9-6-3-9 17-9 25 1 27 2 13 11-9 5-16 15-14 22 1 6 1 9-1 5-3-5-12-8-21-7-11 0-12 2-4 6 6 2 12 12 12 20 0 13-3 13-17-3-10-11-31-26-46-33-23-12-25-16-12-24 22-12 9-27-25-27-15 0-30-7-34-15-3-8-1-15 4-15 6 0 10 4 10 8 0 4 12 9 27 10 15 1 31 8 36 15 6 8 7 4 4-10-3-13-1-23 3-23 5 0 10 9 12 20 4 27 22 27 26 0 2-11 8-20 13-20 5 0 9-7 9-15 0-8-6-15-12-15-7 0-13-11-13-25 0-14 5-25 12-25 7 0 10 7 7 15-8 21 3 34 26 28 27-7 29-69 3-76-17-4-17-5-1-6 16-1 17-2 2-20-9-10-24-17-33-16-9 1-10 0-3-2 6-3 12-11 12-18 0-7-6-16-12-18-10-4-10-6 0-6 7-1 16 7 19 17 4 9 13 23 20 30 11 11 13 11 13-2 0-9-4-16-10-16-5 0-10-12-9-27l1-28 8 25c6 20 8 14 8-25 0-27-3-41-5-31-7 25-28 46-47 46-23 0-28 18-9 29 11 6 13 11 5 11-7 0-19-6-26-13-11-10-11-15 0-25 7-7 19-12 27-12 17 0 37-20 37-37 0-9-15-13-46-13-41 0-44 2-30 15 18 19 11 45-13 44-10 0-11-2-3-6 16-6 15-21-2-39-19-19-34-18-39 4-4 16-5 16-6 0-1-21-27-24-34-5-4 9-6 9-6 0-1-19-29-15-34 4-4 17-5 17-6 1-1-23-28-23-34-1-4 17-5 17-6 1-1-19-51-27-51-8 0 6-12 10-27 9l-28-1 25-8 25-8-27-1c-19-1-28 4-28 14 0 22 58 23 72 2 6-9 8-8 8 1 0 8-9 16-20 19-11 3-20 10-20 15 0 14 27 38 34 31 3-4 6 1 6 10 0 19-26 13-34-8-2-7-13-12-23-11-10 2-12 1-5-1 6-3 12-11 12-19 0-13-14-18-50-15-10 0-11-1-2-5 26-12 12-34-22-34-25 0-35 5-39 20-3 11-12 20-21 20-19 0-22 26-3 33 10 4 10 6 0 6-7 1-13 8-13 16 0 9-6 12-15 9-13-6-14-8-1-18 9-7 11-17 6-31-8-19-9-19-9 3-1 12-5 22-11 22-15 0-12 19 4 36 20 20 36 18 36-5 0-10 7-21 15-25 8-3 15-1 15 4 0 6-4 10-10 10-15 0-12 19 4 36 19 19 36 18 36-3 0-9 3-13 7-10 3 4 0 18-7 32-13 24-14 24-27 5-9-12-26-20-42-20-16 0-31-7-35-15-3-9-12-12-23-9-10 3-14 2-8-3 15-13 35-51 35-68 0-9 6-15 13-14 29 4 47-2 47-15 0-10-14-16-42-19-24-2 86-4 245-5l287-2 0 315c0 273-2 315-15 315-10 0-15-9-14-27zM43 603c9-2 17-11 17-18 0-9 6-12 15-9 14 6 13 8-2 20-10 7-25 13-33 13-11-1-10-3 3-6zM116 596c5-14 34-31 34-20 0 7-27 34-34 34-3 0-3-6 0-14zM201 585c0-20 2-26 8-17 4 8 11 13 15 13 3-1 29-1 58-1 48 0 50 1 32 15-10 8-26 14-34 14-10 0-8-3 5-9 18-8 17-9-7-9-14-1-29 5-31 12-4 10-6 10-6 0-1-7-7-13-15-13-8 0-17 6-19 13-3 6-6-1-6-18zM401 598c-1-12 6-18 19-18 11 0 20-7 20-15 0-10-9-15-27-14-25 0-26 1-8 10 19 9 19 9-1 5-13-2-29 4-39 16-9 11-19 17-22 14-3-3 8-19 26-35 17-16 31-36 31-45 0-9 7-16 16-16 18 0 44-23 44-39 0-6-7-11-15-11-9 0-12-6-8-16 4-11 8-12 13-4 5 8 9 4 13-9 7-28-6-34-23-11-11 15-15 16-27 5-7-8-12-24-12-37 1-20 2-21 6-3 7 30 21 41 29 22 6-18 34-24 34-8 0 5 9 11 20 14 11 3 20 11 19 19 0 10-2 10-6 1-2-7-11-13-19-13-13 0-18 16-15 52 1 9-3 19-9 23-5 3-10 16-11 28 0 12-3 16-6 10-7-18-33-16-33 2 0 8 3 14 8 14 22-4 32 3 32 22 0 18 5 21 30 17 17-3 30-1 30 4 0 4-22 8-49 8-30 0-51 5-54 13-3 7-6 5-6-5zM478 603c7-3 16-2 19 1 4 3-2 6-13 5-11 0-14-3-6-6zM518 575c3-26 9-35 23-35 10 0 19-4 19-10 0-5 4-10 8-10 5 0 7 14 4 30-3 18 0 30 7 30 6 0 11 4 11 9 0 4-12 6-27 3-16-3-22-7-15-9 17-6 15-33-3-33-8 0-14 3-14 8 4 21-2 52-9 52-4 0-6-16-4-35zM181 584c0-11 3-14 6-6 3 7 2 16-1 19-3 4-6-2-5-13zM94 576c-6-6-13-21-16-33-5-19-2-21 31-20 20 0 28 2 19 4-10 3-18 10-18 16 0 7-5 6-11-3-8-12-9-11-7 5 3 13 10 19 23 17 12-2 16 1 10 5-5 5-12 11-15 15-3 3-10 1-16-6zM248 563c13-5 17-29 5-36-5-2-3-2 4-1 7 2 15-1 18-6 4-6 0-10-7-11-7-1-2-4 12-8 32-10 50-3 49 18 0 10-2 11-6 4-6-17-21-16-39 1-19 19-18 34 4 39 9 2 1 4-18 4-19 0-29-2-22-4zM325 560c16-7 14-9-15-9-21-1-30-4-23-9 7-5 25-7 40-6 16 1 34-5 41-12 7-8 8-14 2-14-5 0-10-7-10-16 0-14 2-14 16 1 14 13 14 18 2 33-20 27-42 41-58 41-10 0-8-3 5-9zM463 555c-3-9-3-19 1-22 3-4 6 1 6 10 0 8 6 18 13 20 9 4 9 6-1 6-7 1-15-6-19-14zM130 550c-13-8-12-10 3-10 9 0 17 5 17 10 0 12-1 12-20 0zM180 549c0-11 48-17 62-8 7 5 9 9 3 10-47 4-65 4-65-2zM491 551c-11-7-11-9 0-14 11-4 11-6-1-6-12-1-13-3-1-10 7-5 14-21 14-36 0-19 2-23 8-14 6 10 9 11 9 2 0-7 7-13 17-13 13 0 12 3-5 19-27 22-28 38-4 44 15 4 15 5 0 6-9 0-18 8-20 16-2 9-8 12-17 6zM27 523c-16-15-5-23 31-21l37 1-35 5c-29 4-32 6-15 12 15 6 16 9 4 9-9 1-19-2-22-6zM220 504c0-8 5-12 10-9 6 3 10 1 10-4 0-6 4-11 10-11 14 0 1 27-16 34-8 3-14-1-14-10zM340 509c0-14-25-39-39-39-6 0-11 5-11 10 0 6-4 10-10 10-5 0-7-7-4-15 4-8 16-15 28-15l21-1-22-18c-18-15-23-31-25-87-3-61-5-69-22-66-16 3-15 0 5-21 13-13 26-20 28-14 2 5-3 13-10 18-11 7-10 9 4 9 9 0 17-8 18-17 0-14 2-15 6-3 3 8 11 19 17 23 7 5 3 7-9 5-15-2-21 3-23 25-3 22 1 27 20 28 21 1 21 2 3 7-29 10-32 58-6 81 12 10 21 27 21 37 0 14 2 16 9 6 5-9 8-3 9 17 0 17-1 31-4 31-2 0-4-5-4-11zM460 510c0-6 5-10 10-10 6 0 10-19 10-42 0-25 4-38 8-31 12 19 2 81-14 87-8 3-14 1-14-4zM98 499c-2-7-20-12-39-12-18 0-26-2-16-4 9-3 17-10 17-16 0-7 4-6 11 3 8 12 10 12 8-5-3-37 1-65 9-65 4 0 6 16 4 35-2 20 1 42 8 50 7 9 10 18 7 21-2 3-7 0-9-7zM120 490c0-11-4-20-10-20-5 0-10-5-10-11 0-5 5-7 10-4 6 3 10-3 10-14 0-12 7-21 16-21 18 0 37-17 47-42 3-10 12-18 19-17 10 0 10 2 1 6-7 2-13 11-13 18 0 7 6 16 13 18 10 4 10 6 0 6-7 1-13 9-14 19 0 14-2 14-9-3-8-19-9-19-9 3-1 12-6 22-12 22-5 0-7-4-4-10 3-5-1-10-9-10-12 0-16 10-16 35 0 25 4 35 16 35 8 0 12-4 9-10-3-5 1-10 9-10 10 0 13 6 10 15-9 23-54 19-54-5zM384 478c-4-6-2-14 4-16 18-6 14-23-10-43-11-11-16-19-10-19 6 0 12-6 15-12 2-7 3-5 1 5-1 10 4 21 11 23 21 9 26 32 9 49-14 13-14 15 0 15 9 0 16-4 16-10 0-5 8-10 17-10 15 0 14 2-3 15-23 18-40 19-50 3zM221 468c0-10-5-18-11-18-5 0-10-8-10-17 1-17 1-17 10-1 6 10 18 14 30 11 20-5 28-29 11-35-5-1-3-8 4-15 10-9 13-6 13 15 0 14 5 28 11 30 14 5-12 32-31 32-10 0-9-3 2-10 13-8 13-10-2-10-9 0-19 8-21 18-4 16-5 16-6 0zM580 470c0-6 5-10 11-10 5 0 7-4 4-10-3-5-1-10 4-10 17 0 13 27-4 34-8 3-15 1-15-4zM40 432c0-26-4-41-10-37-5 3-10 1-10-4 0-6 6-11 14-11 16 0 27 63 14 83-4 7-8-6-8-31zM350 445c-15-28-11-38 10-25 13 9 13 10 0 11-12 0-11 2 2 7 11 4 14 12 9 20-5 9-11 5-21-13zM518 420c4-25 1-30-16-30-11 0-22-7-26-15-6-16-35-10-48 9-5 7-8 6-8-2 0-8 9-16 20-19 43-11 18-40-29-34-11 2-11 0 0-12 9-9 16-11 20-5 4 6 20 11 35 11 16 0 23 2 17 4-7 3-13 9-13 15 0 13 26 38 41 38 13 0 38 29 39 45 0 6-5 3-11-5-9-12-10-11-6 8 3 13 0 22-7 22-8 0-11-11-8-30zM21 424c0-11 3-14 6-6 3 7 2 16-1 19-3 4-6-2-5-13zM220 420c0-5 7-7 15-4 8 4 15 8 15 10 0 2-7 4-15 4-8 0-15-4-15-10zM312 410c-17-28-16-30 18-30 43 0 35-35-12-53-26-9-22-24 7-29 14-3 25-1 25 3 0 5-10 9-22 9-20 0-18 3 10 16 23 12 32 23 32 40 0 24-7 28-45 25-15-2-17 0-6 7 7 6 12 15 10 21-2 6-10 2-17-9zM117 393c4-10 8-12 11-5 3 9 7 8 18-2 18-19 18-25-5-45-10-9-20-25-23-36-2-13-11-19-23-18-11 1-14 0-7-3 18-8 15-34-5-34-14 0-15 2-5 9 11 7 11 9-2 14-10 4-16 1-16-9 0-9 9-18 19-21 11-3 22-12 24-22 2-9 4-1 4 17 0 19 5 37 10 40 6 4 12 16 14 26 10 49 69 40 69-10 0-25-24-34-33-11-4 9-6 9-6-1-1-7-5-10-11-7-5 3-10 1-10-4 0-6 5-11 10-11 14 0 12-27-2-33-11-5 63-12 85-8 4 0 7-20 6-47 0-34-3-42-9-27-6 16-8 14-7-12 0-32 0-32 17-13 10 11 24 20 31 20 9-1 5-8-10-20-13-11-18-20-11-20 14 0 40 25 40 39 0 6-9 11-20 11-33 0-19 37 20 53 13 5 13 6 0 6-8 1-21 14-28 30-13 29-42 50-42 31 0-6 5-10 11-10 5 0 7-4 4-10-3-5 0-10 8-10 17 0 30-37 16-46-5-3-9 4-9 15 0 18-6 21-40 21-29 0-40 4-40 15 0 8 3 14 8 14 26-4 32 4 31 49 0 26-3 41-6 35-3-10-8-10-19 1-8 8-14 20-14 27 0 14-30 38-47 39-8 0-10-7-6-17zM60 393c0-7 28-33 35-33 3 0 4 4 1 9-4 5 0 11 6 13 7 3 1 7-14 10-16 3-28 3-28 1zM209 389c-13-8-8-11 19-8 4 0 10-10 14-23 6-22 6-22 7 3 1 29-18 42-40 28zM318 363c7-3 16-2 19 1 4 3-2 6-13 5-11 0-14-3-6-6zM221 347c0-10 9-22 22-27l22-9-22 0c-13-1-23-5-23-10 0-4 11-6 24-4 18 4 23 11 23 36 0 18-2 24-4 15-3-10-11-18-18-18-7 0-16 8-18 18-4 16-5 16-6-1zM380 343c0-7-4-13-10-13-5 0-10-8-9-17 0-11 3-13 6-6 6 17 33-9 33-31 0-11 9-16 28-15 23 2 24 2 4 6-12 2-20 8-17 13 3 5-4 18-16 29-24 22-19 27 31 33 20 3 17 5-12 9-27 4-38 1-38-8zM32 314c-7-8-8-14-3-14 5 0 12-10 14-22 3-16 5-12 6 12 2 29 4 32 11 15 7-16 9-17 9-3 1 9 7 18 14 21 6 2 1 4-13 4-14 0-31-6-38-13zM152 314c-16-18-16-19 13-19 29 0 30 2 12 19-10 11-15 11-25 0zM90 310c-13-8-12-10 3-10 9 0 17 5 17 10 0 12-1 12-20 0zM369 281c7-5 14-21 14-36 0-15-7-32-14-37-11-8-11-9 2-5 9 3 24-4 33-15 10-11 20-17 23-14 4 3-4 14-15 25-27 22-28 38-4 44 14 4 15 5 1 6-9 0-19 10-22 21-3 11-11 20-19 20-11 0-11-2 1-9zM481 253c1-22 3-30 6-18 3 11 10 23 17 27 8 6 7 8-2 8-7 0-10 5-7 10 3 6 1 10-4 10-6 0-10-17-10-37zM333 273c-7-3-13-12-12-21 0-11 2-12 6-4 6 16 33 15 33-2 0-8-11-13-27-14-50 0-59-5-23-11 46-9 60-4 60 24 0 24-16 35-37 28zM460 265c0-8-8-15-17-16-14 0-15-2-3-6 8-3 18-10 21-15 3-5 6 5 7 21 0 17-1 31-4 31-2 0-4-7-4-15zM520 258c-11-12-20-27-20-34 0-18-40-25-47-8-3 8-17 14-32 13-14 0-20-3-14-6 7-2 15-4 19-3 3 1 13-7 22-18 19-20 62-36 62-21 0 5-10 9-22 10-21 0-21 1-4 8 11 4 23 16 27 27 6 15 8 12 8-13 1-35 9-40 57-35 28 3 34 8 34 28 0 16-5 24-17 23-11 0-13-3-5-6 27-11 12-33-23-33-35 0-50 22-22 33 10 4 10 6 0 6-22 2-14 29 10 33 19 3 20 4 5 10-12 5-25 0-38-14zM119 216c-2-31-3-56-1-56 2 0 10 7 18 15 9 8 11 15 6 15-6 0-9 14-8 30 1 17-1 35-5 41-4 7-9-13-10-45zM79 220c-9-22 0-40 19-40 11 0 13 3 6 8-7 4-13 16-16 27-3 15-5 17-9 5zM158 203c7-3 16-2 19 1 4 3-2 6-13 5-11 0-14-3-6-6zM194 201c4-5 0-12-6-14-10-4-10-6 0-6 8-1 12-18 12-51 0-27 3-50 8-50 4 0 5 22 4 50-3 33 0 50 8 50 7 0 6 5-4 15-16 16-30 20-22 6zM318 175c3-25 9-35 21-34 10 0 11 2 4 6-7 2-13 11-13 19 0 16 45 20 55 4 3-5 11-10 16-10 22 0-21 30-45 32-14 1-26 6-26 10 0 4-4 8-8 8-4 0-6-16-4-35zM62 175c2-15-2-20-19-19-13 0-23-3-23-8 0-4 11-8 25-8 14 0 25 5 25 10 0 6 8 10 18 11 13 0 14 2 2 6-8 3-19 11-23 17-5 7-7 3-5-9zM276 175c-3-8-1-15 4-15 6 0 10 5 10 11 0 5 5 7 10 4 6-3 10-1 10 4 0 17-27 13-34-4zM440 175c0-8 4-15 10-15 5 0 7 7 4 15-4 8-8 15-10 15-2 0-4-7-4-15zM356 140c2-24-2-30-17-30-12 0-19-7-19-19 0-12-8-21-22-24-23-4-23-4-1-6 14-1 23-9 26-23l4-23 2 23c0 12 7 22 15 22 8 0 17-10 19-22 4-20 4-19 6 5 1 21-4 27-19 27-11 0-20 7-20 15 0 8 9 15 20 15 18 0 25 10 21 33 0 4 4 7 10 7 6 0 4 7-5 15-20 21-22 19-20-15zM475 160c4-7-7-10-30-8-41 2-54-11-47-47 3-19 7-21 17-12 7 7 9 14 4 15-5 2-9 10-9 18 0 10 12 14 40 14 29 0 40 4 40 15 0 8-5 15-11 15-5 0-7-5-4-10zM520 158c0-14 8-18 37-18 40 0 42 6 3 12-14 1-28 8-32 13-4 6-8 2-8-7zM301 144c0-11 3-14 6-6 3 7 2 16-1 19-3 4-6-2-5-13zM501 151c0-7-11-22-23-32-16-15-17-19-6-19 9 0 19 7 22 16 3 8 10 13 16 9 11-7-31-55-42-49-3 2-14-3-22-12-15-14-16-14-16 0 0 9 4 16 9 16 5 0 11 11 13 25 4 17 1 25-9 25-8 0-11-5-8-10 7-12-16-70-27-70-5 0-8-8-8-17 0-15 1-15 14 2 13 18 13 18 24-1 11-18 11-18 12 4 0 13 6 22 15 22 9 0 15-9 15-22 0-18 2-20 9-9 5 8 7 21 4 29-3 8 7 25 23 40 23 22 25 27 12 30-9 2-19 11-21 20-3 11-5 12-6 3zM159 140c-7-19 1-60 12-60 5 0 9-6 9-13 0-9 11-12 38-8l37 5-35 6c-30 4-35 9-33 30 2 22 2 23-6 5-7-17-9-15-12 15-2 19-7 28-10 20zM380 101c0-5-8-12-17-14-17-4-17-5 0-6 9 0 17-8 17-16 0-9 6-12 16-8 15 5 15 7 1 15-9 5-14 15-11 23 4 8 3 15 0 15-3 0-6-4-6-9zM129 69c-11-7-9-9 8-9 14 0 23-7 26-22 4-21 4-20 6 3 1 29-18 42-40 28zM554 41c4-5 0-12-6-14-7-3 0-6 15-6 25-1 27 1 13 14-16 16-30 20-22 6zM20 28c0-4 26-8 57-8 31 0 54 2 52 4-8 9-109 12-109 4zM180 30c0-6 7-10 15-10 8 0 15 2 15 4 0 2-7 6-15 10-8 3-15 1-15-4z"/>
		</g>
	</g>
</svg>
