<svg id="Layer_1" data-name="Layer 1" xmlns="http://www.w3.org/2000/svg" viewBox="0 0 305 574.39"><defs><style>.cls-1{fill:#eae9e0;}.cls-2{fill:#e9655f;}.cls-3{fill:#4a505e;}</style></defs><title>optum-pull-quotes</title><rect class="cls-1" width="305" height="574.39"/><path class="cls-2" d="M100.38,244.44H94.63v-2l4.78-7.52h3.53v7.28h1.55v2.25h-1.55v2.49h-2.56v-2.49Zm-3.24-2.25h3.24v-5Z"/><path class="cls-2" d="M111.67,234.72c3.43,0,5,3.1,5,6.2s-1.55,6.22-5,6.22-5-3.12-5-6.22S108.22,234.72,111.67,234.72Zm0,2.27c-1.73,0-2.38,1.71-2.38,3.93s0.65,3.95,2.38,3.95,2.36-1.73,2.36-3.95S113.38,237,111.67,237Z"/><path class="cls-2" d="M125.33,234.9H131a3.86,3.86,0,1,1,0,7.72h-3.06v4.31h-2.56v-12Zm5.28,2.2h-2.72v3.32h2.72A1.66,1.66,0,1,0,130.61,237.1Z"/><path class="cls-2" d="M137.71,234.9h8.51v2.2h-5.95v2.61h5.82v2.2h-5.82v2.79h5.95v2.22h-8.51v-12Z"/><path class="cls-2" d="M153.79,242.61h-1.87v4.31h-2.56v-12H155a3.75,3.75,0,0,1,4,3.88,3.45,3.45,0,0,1-2.63,3.57l2.7,4.58h-2.94Zm0.81-5.52h-2.69v3.32h2.69A1.66,1.66,0,1,0,154.6,237.1Z"/><path class="cls-2" d="M161.5,240.92a6.09,6.09,0,0,1,6.31-6.22,5.55,5.55,0,0,1,5.12,2.94l-2.2,1.08a3.29,3.29,0,0,0-2.92-1.75,4,4,0,0,0,0,7.9,3.26,3.26,0,0,0,2.92-1.75l2.2,1.06a5.58,5.58,0,0,1-5.12,3A6.09,6.09,0,0,1,161.5,240.92Z"/><path class="cls-2" d="M175.6,234.9h8.51v2.2h-5.95v2.61H184v2.2h-5.82v2.79h5.95v2.22H175.6v-12Z"/><path class="cls-2" d="M189.81,238.85v8.08h-2.56v-12h2.63l5.57,7.79V234.9H198v12h-2.47Z"/><path class="cls-2" d="M204.3,237.15h-3.52V234.9h9.59v2.25h-3.5v9.77H204.3v-9.77Z"/><path class="cls-3" d="M85.7,264.74A6.22,6.22,0,1,1,79.43,271,6,6,0,0,1,85.7,264.74Zm0,2.27A4,4,0,1,0,89.36,271,3.64,3.64,0,0,0,85.7,267Z"/><path class="cls-3" d="M94.93,264.94h8.51v2.2H97.49v2.61h5.82V272H97.49v5H94.93v-12Z"/><path class="cls-3" d="M112.11,264.94h5.63a3.86,3.86,0,1,1,0,7.72h-3.06V277h-2.56v-12Zm5.28,2.2h-2.72v3.32h2.72A1.66,1.66,0,1,0,117.39,267.14Z"/><path class="cls-3" d="M132.73,271.92H127v5h-2.56v-12H127v4.72h5.68v-4.72h2.58v12h-2.58v-5Z"/><path class="cls-3" d="M142.16,272l-4.63-7.1h2.92l3,4.83,3-4.83h2.92l-4.6,7.1V277h-2.56V272Z"/><path class="cls-3" d="M151.78,273.32a5.27,5.27,0,0,0,3.82,1.62c1.41,0,2.09-.67,2.09-1.35,0-.9-1-1.21-2.43-1.53-2-.45-4.49-1-4.49-3.68,0-2,1.73-3.62,4.56-3.62a6.69,6.69,0,0,1,4.69,1.68l-1.42,1.87a5.13,5.13,0,0,0-3.44-1.32c-1.15,0-1.77.5-1.77,1.23s1,1.06,2.4,1.39c2,0.45,4.51,1,4.51,3.72,0,2.2-1.57,3.86-4.81,3.86a6.86,6.86,0,0,1-5.09-1.91Z"/><path class="cls-3" d="M163.15,264.94h2.56v12h-2.56v-12Z"/><path class="cls-3" d="M168.65,271a6.09,6.09,0,0,1,6.31-6.22,5.55,5.55,0,0,1,5.12,2.94l-2.2,1.08A3.29,3.29,0,0,0,175,267a4,4,0,0,0,0,7.9,3.26,3.26,0,0,0,2.92-1.75l2.2,1.06a5.58,5.58,0,0,1-5.12,3A6.09,6.09,0,0,1,168.65,271Z"/><path class="cls-3" d="M182.75,264.94h2.56v12h-2.56v-12Z"/><path class="cls-3" d="M196.49,274.89h-5.37L190.35,277h-2.81l4.65-12h3.21L200,277h-2.79Zm-4.69-2.22h4l-2-5.52Z"/><path class="cls-3" d="M204.85,268.89V277h-2.56v-12h2.63l5.57,7.79v-7.79h2.56v12h-2.47Z"/><path class="cls-3" d="M217.14,273.32a5.27,5.27,0,0,0,3.82,1.62c1.41,0,2.09-.67,2.09-1.35,0-.9-1-1.21-2.43-1.53-2-.45-4.49-1-4.49-3.68,0-2,1.73-3.62,4.56-3.62a6.69,6.69,0,0,1,4.69,1.68L224,268.31a5.13,5.13,0,0,0-3.44-1.32c-1.15,0-1.77.5-1.77,1.23s1,1.06,2.4,1.39c2,0.45,4.51,1,4.51,3.72,0,2.2-1.57,3.86-4.81,3.86a6.86,6.86,0,0,1-5.09-1.91Z"/><path class="cls-3" d="M80.09,302.7H78.22V307H75.66V295h5.63a3.75,3.75,0,0,1,4,3.88,3.45,3.45,0,0,1-2.63,3.57L85.39,307H82.46Zm0.81-5.52H78.22v3.32h2.69A1.66,1.66,0,1,0,80.91,297.18Z"/><path class="cls-3" d="M88.38,295h8.51v2.2H90.94v2.61h5.82V302H90.94v2.79h5.95V307H88.38V295Z"/><path class="cls-3" d="M100,295h5.63a3.86,3.86,0,1,1,0,7.72h-3.06V307H100V295Zm5.28,2.2h-2.72v3.32h2.72A1.66,1.66,0,1,0,105.31,297.18Z"/><path class="cls-3" d="M118.11,294.78a6.22,6.22,0,1,1-6.27,6.22A6,6,0,0,1,118.11,294.78Zm0,2.27a4,4,0,1,0,3.66,3.95A3.64,3.64,0,0,0,118.11,297.06Z"/><path class="cls-3" d="M131.77,302.7H129.9V307h-2.56V295H133a3.75,3.75,0,0,1,4,3.88,3.45,3.45,0,0,1-2.63,3.57l2.71,4.58h-2.94Zm0.81-5.52H129.9v3.32h2.69A1.66,1.66,0,1,0,132.58,297.18Z"/><path class="cls-3" d="M142.66,297.24h-3.52V295h9.59v2.25h-3.5V307h-2.58v-9.77Z"/><path class="cls-3" d="M151.51,295H160v2.2h-5.95v2.61h5.82V302h-5.82v2.79H160V307h-8.51V295Z"/><path class="cls-3" d="M163.15,295h4.74c3.77,0,6.38,2.4,6.38,6s-2.62,6-6.38,6h-4.74V295Zm4.74,9.77a3.6,3.6,0,0,0,3.77-3.75,3.52,3.52,0,0,0-3.77-3.77h-2.18v7.52h2.18Z"/><path class="cls-3" d="M185.76,297.24h-3.52V295h9.59v2.25h-3.5V307h-2.58v-9.77Z"/><path class="cls-3" d="M202.85,302h-5.68v5h-2.56V295h2.56v4.72h5.68V295h2.58v12h-2.58v-5Z"/><path class="cls-3" d="M216.58,304.94h-5.37L210.45,307h-2.81l4.65-12h3.21l4.63,12h-2.79Zm-4.69-2.22h4l-2-5.52Z"/><path class="cls-3" d="M224,297.24h-3.52V295h9.59v2.25h-3.5V307H224v-9.77Z"/><path class="cls-3" d="M39.76,325h5.63a3.86,3.86,0,1,1,0,7.72H42.32v4.31H39.76V325Zm5.28,2.2H42.32v3.32H45A1.66,1.66,0,1,0,45,327.22Z"/><path class="cls-3" d="M58.47,335H53.1l-0.76,2.07H49.53l4.65-12h3.21l4.63,12H59.23Zm-4.69-2.22h4l-2-5.52Z"/><path class="cls-3" d="M65.9,327.28H62.38V325H72v2.25h-3.5v9.77H65.9v-9.77Z"/><path class="cls-3" d="M74.75,325h2.56v12H74.75V325Z"/><path class="cls-3" d="M80.82,325h8.51v2.2H83.38v2.61h5.82V332H83.38v2.79h5.95v2.22H80.82V325Z"/><path class="cls-3" d="M95,329v8.08H92.47V325H95.1l5.57,7.79V325h2.56v12h-2.47Z"/><path class="cls-3" d="M109.52,327.28H106V325h9.59v2.25h-3.5v9.77h-2.58v-9.77Z"/><path class="cls-3" d="M118.82,333.41a5.27,5.27,0,0,0,3.82,1.62c1.41,0,2.09-.67,2.09-1.35,0-.9-1-1.21-2.43-1.53-2-.45-4.49-1-4.49-3.68,0-2,1.73-3.62,4.56-3.62a6.69,6.69,0,0,1,4.69,1.68l-1.42,1.87a5.13,5.13,0,0,0-3.44-1.32c-1.15,0-1.77.5-1.77,1.23s1,1.06,2.4,1.39c2,0.45,4.51,1,4.51,3.72,0,2.2-1.57,3.86-4.81,3.86a6.86,6.86,0,0,1-5.09-1.91Z"/><path class="cls-3" d="M135.94,325h8.51v2.2H138.5v2.61h5.82V332H138.5v2.79h5.95v2.22h-8.51V325Z"/><path class="cls-3" d="M152.42,332.65l-3,4.4h-3l4.36-6.17L146.61,325h3l2.76,4.11,2.72-4.11h3.08l-4.09,5.84,4.36,6.18h-3.07Z"/><path class="cls-3" d="M160.77,325h5.63a3.86,3.86,0,1,1,0,7.72h-3.06v4.31h-2.56V325Zm5.28,2.2h-2.72v3.32H166A1.66,1.66,0,1,0,166,327.22Z"/><path class="cls-3" d="M173.15,325h8.51v2.2h-5.95v2.61h5.82V332h-5.82v2.79h5.95v2.22h-8.51V325Z"/><path class="cls-3" d="M189.23,332.74h-1.88v4.31h-2.56V325h5.63a3.75,3.75,0,0,1,4,3.88,3.45,3.45,0,0,1-2.63,3.57l2.71,4.58h-2.94Zm0.81-5.52h-2.69v3.32H190A1.66,1.66,0,1,0,190,327.22Z"/><path class="cls-3" d="M197.52,325h2.56v12h-2.56V325Z"/><path class="cls-3" d="M203.59,325h8.51v2.2h-5.95v2.61H212V332h-5.82v2.79h5.95v2.22h-8.51V325Z"/><path class="cls-3" d="M217.8,329v8.08h-2.56V325h2.63l5.57,7.79V325H226v12h-2.47Z"/><path class="cls-3" d="M228.94,331a6.09,6.09,0,0,1,6.31-6.22,5.55,5.55,0,0,1,5.12,2.94l-2.2,1.08a3.29,3.29,0,0,0-2.92-1.75,4,4,0,0,0,0,7.9,3.26,3.26,0,0,0,2.92-1.75l2.2,1.06a5.58,5.58,0,0,1-5.12,3A6.09,6.09,0,0,1,228.94,331Z"/><path class="cls-3" d="M243,325h8.51v2.2H245.6v2.61h5.82V332H245.6v2.79h5.95v2.22H243V325Z"/><path class="cls-3" d="M254.68,325h4.74c3.77,0,6.38,2.4,6.38,6s-2.62,6-6.38,6h-4.74V325Zm4.74,9.77a3.6,3.6,0,0,0,3.77-3.75,3.52,3.52,0,0,0-3.77-3.77h-2.18v7.52h2.18Z"/><path class="cls-3" d="M55,355.07h5.63a3.86,3.86,0,1,1,0,7.72H57.61v4.31H55v-12Zm5.28,2.2H57.61v3.32h2.72A1.66,1.66,0,1,0,60.33,357.27Z"/><path class="cls-3" d="M71.86,362.78H70v4.31H67.43v-12h5.63a3.75,3.75,0,0,1,4,3.88,3.45,3.45,0,0,1-2.63,3.57l2.7,4.58H74.23Zm0.81-5.52H70v3.32h2.69A1.66,1.66,0,1,0,72.68,357.27Z"/><path class="cls-3" d="M85.85,354.87a6.22,6.22,0,1,1-6.27,6.22A6,6,0,0,1,85.85,354.87Zm0,2.27a4,4,0,1,0,3.66,3.95A3.64,3.64,0,0,0,85.85,357.14Z"/><path class="cls-3" d="M95.08,355.07h6.33c2.29,0,3.46,1.46,3.46,3.07a2.67,2.67,0,0,1-2.07,2.76,2.92,2.92,0,0,1,2.31,3,3.17,3.17,0,0,1-3.5,3.25H95.08v-12Zm5.77,4.83a1.33,1.33,0,1,0,0-2.65H97.64v2.65h3.21Zm0.09,5a1.38,1.38,0,0,0,1.55-1.42,1.41,1.41,0,0,0-1.55-1.41h-3.3v2.83h3.3Z"/><path class="cls-3" d="M108.17,355.07h2.56v9.77h5.08v2.25h-7.64v-12Z"/><path class="cls-3" d="M118.73,355.07h8.51v2.2h-5.95v2.61h5.82v2.2h-5.82v2.79h5.95v2.22h-8.51v-12Z"/><path class="cls-3" d="M140.83,358.44l-3.39,8.65h-1.12l-3.39-8.65v8.65h-2.56v-12H134l2.92,7.5,2.92-7.5h3.61v12h-2.58v-8.65Z"/><path class="cls-3" d="M147.5,363.45a5.27,5.27,0,0,0,3.82,1.62c1.41,0,2.09-.67,2.09-1.35,0-.9-1-1.21-2.43-1.53-2-.45-4.49-1-4.49-3.68,0-2,1.73-3.62,4.56-3.62a6.69,6.69,0,0,1,4.69,1.68l-1.42,1.87a5.13,5.13,0,0,0-3.44-1.32c-1.15,0-1.77.5-1.77,1.23s1,1.06,2.4,1.39c2,0.45,4.51,1,4.51,3.72,0,2.2-1.57,3.86-4.81,3.86a6.86,6.86,0,0,1-5.09-1.91Z"/><path class="cls-3" d="M164.62,355.07H171c2.29,0,3.46,1.46,3.46,3.07a2.67,2.67,0,0,1-2.07,2.76,2.92,2.92,0,0,1,2.31,3,3.17,3.17,0,0,1-3.5,3.25h-6.53v-12Zm5.77,4.83a1.33,1.33,0,1,0,0-2.65h-3.21v2.65h3.21Zm0.09,5a1.38,1.38,0,0,0,1.55-1.42,1.41,1.41,0,0,0-1.55-1.41h-3.3v2.83h3.3Z"/><path class="cls-3" d="M177.71,355.07h8.51v2.2h-5.95v2.61h5.82v2.2h-5.82v2.79h5.95v2.22h-8.51v-12Z"/><path class="cls-3" d="M188.78,361.09a6.09,6.09,0,0,1,6.31-6.22,5.55,5.55,0,0,1,5.12,2.94l-2.2,1.08a3.29,3.29,0,0,0-2.92-1.75,4,4,0,0,0,0,7.9,3.26,3.26,0,0,0,2.92-1.75l2.2,1.06a5.58,5.58,0,0,1-5.12,3A6.09,6.09,0,0,1,188.78,361.09Z"/><path class="cls-3" d="M210.41,365H205l-0.76,2.07h-2.81l4.65-12h3.21l4.63,12h-2.79Zm-4.69-2.22h4l-2-5.52Z"/><path class="cls-3" d="M215.62,355.07h2.6v7.14a2.78,2.78,0,1,0,5.55,0v-7.14h2.6v7.21c0,3-1.71,5-5.36,5s-5.39-2.06-5.39-5v-7.23Z"/><path class="cls-3" d="M230.45,363.45a5.27,5.27,0,0,0,3.82,1.62c1.41,0,2.09-.67,2.09-1.35,0-.9-1-1.21-2.43-1.53-2-.45-4.49-1-4.49-3.68,0-2,1.73-3.62,4.56-3.62a6.69,6.69,0,0,1,4.69,1.68l-1.42,1.87a5.13,5.13,0,0,0-3.44-1.32c-1.15,0-1.77.5-1.77,1.23s1,1.06,2.4,1.39c2,0.45,4.51,1,4.51,3.72,0,2.2-1.57,3.86-4.81,3.86a6.86,6.86,0,0,1-5.09-1.91Z"/><path class="cls-3" d="M241.83,355.07h8.51v2.2h-5.95v2.61h5.82v2.2h-5.82v2.79h5.95v2.22h-8.51v-12Z"/><path class="cls-3" d="M60.18,391.13a6.09,6.09,0,0,1,6.31-6.22,5.55,5.55,0,0,1,5.12,2.94l-2.2,1.08a3.29,3.29,0,0,0-2.92-1.75,4,4,0,0,0,0,7.9,3.26,3.26,0,0,0,2.92-1.75l2.2,1.06a5.58,5.58,0,0,1-5.12,3A6.09,6.09,0,0,1,60.18,391.13Z"/><path class="cls-3" d="M81.82,395.06H76.44l-0.76,2.07H72.87l4.65-12h3.21l4.63,12H82.57Zm-4.69-2.22h4l-2-5.52Z"/><path class="cls-3" d="M92.05,392.83H90.18v4.31H87.62v-12h5.63a3.75,3.75,0,0,1,4,3.88,3.45,3.45,0,0,1-2.63,3.57l2.7,4.58H94.42Zm0.81-5.52H90.18v3.32h2.69A1.66,1.66,0,1,0,92.86,387.31Z"/><path class="cls-3" d="M100.34,385.11h8.51v2.2h-5.95v2.61h5.82v2.2h-5.82v2.79h5.95v2.22h-8.51v-12Z"/><path class="cls-3" d="M124.83,388.88l-2.09,8.26H120l-3.44-12h2.87l2.11,8.69,2.29-8.69h2l2.27,8.69,2.09-8.69h2.88l-3.43,12h-2.72Z"/><path class="cls-3" d="M142.29,395.06h-5.37l-0.76,2.07h-2.81l4.65-12h3.21l4.63,12H143Zm-4.69-2.22h4l-2-5.52Z"/><path class="cls-3" d="M148.55,393.49a5.27,5.27,0,0,0,3.82,1.62c1.41,0,2.09-.67,2.09-1.35,0-.9-1-1.21-2.43-1.53-2-.45-4.49-1-4.49-3.68,0-2,1.73-3.62,4.56-3.62a6.69,6.69,0,0,1,4.69,1.68l-1.42,1.87a5.13,5.13,0,0,0-3.44-1.32c-1.15,0-1.77.5-1.77,1.23s1,1.06,2.4,1.39c2,0.45,4.51,1,4.51,3.72,0,2.2-1.57,3.86-4.81,3.86a6.86,6.86,0,0,1-5.09-1.91Z"/><path class="cls-3" d="M162.48,389.06v8.08h-2.56v-12h2.63l5.57,7.79v-7.79h2.56v12h-2.47Z"/><path class="cls-3" d="M174,389.31a3,3,0,0,0,1.39-1.71,0.83,0.83,0,0,1-.34.07,1.23,1.23,0,0,1-1.23-1.3,1.44,1.44,0,0,1,1.41-1.44,1.68,1.68,0,0,1,1.62,1.84,4.2,4.2,0,0,1-1.86,3.35Z"/><path class="cls-3" d="M182.7,387.36h-3.52v-2.25h9.59v2.25h-3.5v9.77H182.7v-9.77Z"/><path class="cls-3" d="M204.39,388.88l-2.09,8.26h-2.72l-3.44-12H199l2.11,8.69,2.29-8.69h2l2.27,8.69,2.09-8.69h2.88l-3.43,12H206.5Z"/><path class="cls-3" d="M215,385.11h8.51v2.2h-5.95v2.61h5.82v2.2h-5.82v2.79h5.95v2.22H215v-12Z"/><path class="cls-3" d="M226.63,385.11h2.56v9.77h5.08v2.25h-7.64v-12Z"/><path class="cls-3" d="M237.2,385.11h2.56v9.77h5.08v2.25H237.2v-12Z"/><path class="cls-3" d="M44,421.17A6.09,6.09,0,0,1,50.36,415a5.55,5.55,0,0,1,5.12,2.94L53.28,419a3.29,3.29,0,0,0-2.92-1.75,4,4,0,0,0,0,7.9,3.26,3.26,0,0,0,2.92-1.75l2.2,1.06a5.58,5.58,0,0,1-5.12,3A6.09,6.09,0,0,1,44,421.17Z"/><path class="cls-3" d="M63.84,415a6.22,6.22,0,1,1-6.27,6.22A6,6,0,0,1,63.84,415Zm0,2.27a4,4,0,1,0,3.66,3.95A3.64,3.64,0,0,0,63.84,417.23Z"/><path class="cls-3" d="M78.77,415a6.22,6.22,0,1,1-6.27,6.22A6,6,0,0,1,78.77,415Zm0,2.27a4,4,0,1,0,3.66,3.95A3.64,3.64,0,0,0,78.77,417.23Z"/><path class="cls-3" d="M92.43,422.87H90.56v4.31H88v-12h5.63a3.75,3.75,0,0,1,4,3.88A3.45,3.45,0,0,1,95,422.6l2.71,4.58H94.79Zm0.81-5.52H90.56v3.32h2.69A1.66,1.66,0,1,0,93.24,417.35Z"/><path class="cls-3" d="M100.72,415.15h4.74c3.77,0,6.38,2.4,6.38,6s-2.62,6-6.38,6h-4.74v-12Zm4.74,9.77a3.6,3.6,0,0,0,3.77-3.75,3.52,3.52,0,0,0-3.77-3.77h-2.18v7.52h2.18Z"/><path class="cls-3" d="M114.8,415.15h2.56v12H114.8v-12Z"/><path class="cls-3" d="M123.43,419.1v8.08h-2.56v-12h2.63l5.57,7.79v-7.79h2.56v12h-2.47Z"/><path class="cls-3" d="M142.81,425.11h-5.37l-0.76,2.07h-2.81l4.65-12h3.21l4.63,12h-2.79Zm-4.69-2.22h4l-2-5.52Z"/><path class="cls-3" d="M150.24,417.41h-3.52v-2.25h9.59v2.25h-3.5v9.77h-2.58v-9.77Z"/><path class="cls-3" d="M159.09,415.15h8.51v2.2h-5.95V420h5.82v2.2h-5.82V425h5.95v2.22h-8.51v-12Z"/><path class="cls-3" d="M170.73,415.15h4.74c3.77,0,6.38,2.4,6.38,6s-2.62,6-6.38,6h-4.74v-12Zm4.74,9.77a3.6,3.6,0,0,0,3.77-3.75,3.52,3.52,0,0,0-3.77-3.77h-2.18v7.52h2.18Z"/><path class="cls-3" d="M198.22,425.11h-5.37l-0.76,2.07h-2.81l4.65-12h3.21l4.63,12H199Zm-4.69-2.22h4l-2-5.52Z"/><path class="cls-3" d="M214.48,418.52l-3.39,8.65H210l-3.39-8.65v8.65H204v-12h3.59l2.92,7.5,2.92-7.5h3.61v12h-2.58v-8.65Z"/><path class="cls-3" d="M226.27,415a6.22,6.22,0,1,1-6.27,6.22A6,6,0,0,1,226.27,415Zm0,2.27a4,4,0,1,0,3.66,3.95A3.64,3.64,0,0,0,226.27,417.23Z"/><path class="cls-3" d="M238.06,419.1v8.08H235.5v-12h2.63l5.57,7.79v-7.79h2.56v12h-2.47Z"/><path class="cls-3" d="M255.6,415a5.63,5.63,0,0,1,5,2.63l-2.13,1.15a3.41,3.41,0,0,0-2.85-1.51,4,4,0,0,0,0,7.9,4.06,4.06,0,0,0,2.6-.92v-1.46H255v-2.2h5.73v4.6a6.67,6.67,0,0,1-5.12,2.27A6.23,6.23,0,1,1,255.6,415Z"/><path class="cls-3" d="M96.58,445.19h5.63a3.86,3.86,0,1,1,0,7.72H99.14v4.31H96.58v-12Zm5.28,2.2H99.14v3.32h2.72A1.66,1.66,0,1,0,101.86,447.4Z"/><path class="cls-3" d="M113.4,452.91h-1.88v4.31H109v-12h5.63a3.75,3.75,0,0,1,4,3.88,3.45,3.45,0,0,1-2.63,3.57l2.71,4.58h-2.94Zm0.81-5.52h-2.69v3.32h2.69A1.66,1.66,0,1,0,114.21,447.4Z"/><path class="cls-3" d="M127.38,445a6.22,6.22,0,1,1-6.27,6.22A6,6,0,0,1,127.38,445Zm0,2.27a4,4,0,1,0,3.66,3.95A3.64,3.64,0,0,0,127.38,447.27Z"/><path class="cls-3" d="M135,445.19h2.92l3.34,9.25,3.32-9.25h2.92l-4.63,12h-3.21Z"/><path class="cls-3" d="M149.72,445.19h2.56v12h-2.56v-12Z"/><path class="cls-3" d="M155.79,445.19h4.74c3.77,0,6.38,2.4,6.38,6s-2.62,6-6.38,6h-4.74v-12Zm4.74,9.77a3.6,3.6,0,0,0,3.77-3.75,3.52,3.52,0,0,0-3.77-3.77h-2.18V455h2.18Z"/><path class="cls-3" d="M169.87,445.19h8.51v2.2h-5.95V450h5.82v2.2h-5.82V455h5.95v2.22h-8.51v-12Z"/><path class="cls-3" d="M185.95,452.91h-1.87v4.31h-2.56v-12h5.63a3.75,3.75,0,0,1,4,3.88,3.45,3.45,0,0,1-2.63,3.57l2.7,4.58h-2.94Zm0.81-5.52h-2.69v3.32h2.69A1.66,1.66,0,1,0,186.76,447.4Z"/><path class="cls-3" d="M194.82,453.58a5.27,5.27,0,0,0,3.82,1.62c1.41,0,2.09-.67,2.09-1.35,0-.9-1-1.21-2.43-1.53-2-.45-4.49-1-4.49-3.68,0-2,1.73-3.62,4.56-3.62a6.69,6.69,0,0,1,4.69,1.68l-1.42,1.87a5.13,5.13,0,0,0-3.44-1.32c-1.15,0-1.77.5-1.77,1.23s1,1.06,2.4,1.39c2,0.45,4.51,1,4.51,3.72,0,2.2-1.57,3.86-4.81,3.86a6.86,6.86,0,0,1-5.09-1.91Z"/><path class="cls-3" d="M207.31,454.5a1.46,1.46,0,1,1-1.46,1.46A1.48,1.48,0,0,1,207.31,454.5Z"/><path class="cls-3" d="M97.53,512.76H95.85a2.81,2.81,0,0,1,0-5.62h1.68A2.81,2.81,0,0,1,97.53,512.76Zm-8.71,0H87.14a2.81,2.81,0,0,1,0-5.62h1.68A2.81,2.81,0,0,1,88.82,512.76Z"/><path class="cls-3" d="M80.11,512.76H78.43a2.81,2.81,0,0,1,0-5.62h1.68A2.81,2.81,0,0,1,80.11,512.76Z"/><path class="cls-3" d="M71.4,512.76H69.72a2.81,2.81,0,0,1,0-5.62H71.4A2.81,2.81,0,0,1,71.4,512.76Z"/><path class="cls-3" d="M62.69,512.76H61a2.81,2.81,0,0,1,0-5.62h1.68A2.81,2.81,0,0,1,62.69,512.76Z"/><path class="cls-3" d="M54,512.76H52.3a2.81,2.81,0,0,1,0-5.62H54A2.81,2.81,0,0,1,54,512.76Z"/><path class="cls-3" d="M252.7,512.76H251a2.81,2.81,0,0,1,0-5.62h1.68A2.81,2.81,0,0,1,252.7,512.76Zm-8.71,0h-1.68a2.81,2.81,0,0,1,0-5.62H244A2.81,2.81,0,0,1,244,512.76Z"/><path class="cls-3" d="M235.27,512.76H233.6a2.81,2.81,0,0,1,0-5.62h1.68A2.81,2.81,0,0,1,235.27,512.76Z"/><path class="cls-3" d="M226.57,512.76h-1.68a2.81,2.81,0,0,1,0-5.62h1.68A2.81,2.81,0,0,1,226.57,512.76Z"/><path class="cls-3" d="M217.86,512.76h-1.68a2.81,2.81,0,0,1,0-5.62h1.68A2.81,2.81,0,0,1,217.86,512.76Z"/><path class="cls-3" d="M209.15,512.76h-1.68a2.81,2.81,0,0,1,0-5.62h1.68A2.81,2.81,0,0,1,209.15,512.76Z"/><path class="cls-3" d="M152.5,516.43a6.48,6.48,0,1,1,6.48-6.48A6.49,6.49,0,0,1,152.5,516.43Zm0-8.86a2.38,2.38,0,1,0,2.38,2.38A2.38,2.38,0,0,0,152.5,507.57Z"/><path class="cls-2" d="M149.93,113.47V44.08a3.73,3.73,0,0,1,3.95-3.72c37.83,2.13,70.29,34.58,70.29,74.31,0,23.34-9.53,43.45-27.47,57.83a3.73,3.73,0,0,1-5.36-.71l-40.71-56.15A3.71,3.71,0,0,1,149.93,113.47Z"/><path class="cls-3" d="M149.63,186.67h-0.13c-2.08-.09-4.17-0.26-6.24-0.52a3,3,0,1,1,.75-6c1.9,0.24,3.82.4,5.73,0.48A3,3,0,0,1,149.63,186.67Zm10-.28a3,3,0,0,1-.29-6c1.91-.19,3.82-0.46,5.7-0.81a3,3,0,0,1,1.09,5.91c-2,.38-4.13.67-6.2,0.88h-0.3Zm-25.8-2.16a3,3,0,0,1-.79-0.11c-2-.54-4-1.18-6-1.89a3,3,0,0,1,2.05-5.65c1.8,0.65,3.64,1.24,5.48,1.74A3,3,0,0,1,133.83,184.23ZM175.27,183a3,3,0,0,1-1-5.85c1.81-.61,3.62-1.3,5.37-2.06a3,3,0,0,1,2.38,5.52c-1.91.82-3.87,1.58-5.85,2.24A3,3,0,0,1,175.27,183ZM119,178.35a3,3,0,0,1-1.41-.35c-1.83-1-3.65-2-5.4-3.17a3,3,0,0,1,3.26-5.05c1.61,1,3.28,2,5,2.91A3,3,0,0,1,119,178.35Zm70.81-2.06a3,3,0,0,1-1.56-5.57c1.63-1,3.25-2.07,4.79-3.19a3,3,0,0,1,3.53,4.86c-1.68,1.22-3.43,2.39-5.2,3.47A3,3,0,0,1,189.77,176.29Zm-84-7a3,3,0,0,1-2-.73c-1.57-1.36-3.1-2.8-4.56-4.29a3,3,0,0,1,4.3-4.2c1.34,1.37,2.75,2.69,4.19,3.94A3,3,0,0,1,105.79,169.31ZM94.92,157.59a3,3,0,0,1-2.42-1.22l-0.43-.59c-1.09-1.5-2.12-3-3.09-4.58a3,3,0,0,1,5.1-3.17c0.89,1.43,1.84,2.85,2.84,4.22l0.4,0.55A3,3,0,0,1,94.92,157.59Zm-8.08-13.8A3,3,0,0,1,84.1,142c-0.85-1.9-1.63-3.85-2.31-5.81a3,3,0,0,1,5.67-2c0.63,1.8,1.35,3.6,2.13,5.35A3,3,0,0,1,86.84,143.78ZM82,128.55A3,3,0,0,1,79,126.14c-0.41-2-.74-4.11-1-6.18a3,3,0,0,1,6-.7c0.22,1.9.53,3.82,0.91,5.69A3,3,0,0,1,82,128.55Zm-1.42-15.72H80.48a3.07,3.07,0,0,1-2.94-3.17c0-2.08.17-4.23,0.39-6.3a3,3,0,0,1,3.3-2.7A3,3,0,0,1,83.9,104c-0.2,1.9-.32,3.93-0.36,5.84A3.09,3.09,0,0,1,80.54,112.83Zm2.1-16.06a3,3,0,0,1-2.92-3.73c0.5-2,1.09-4,1.75-6A3,3,0,1,1,87.17,89c-0.61,1.81-1.15,3.66-1.61,5.52A3,3,0,0,1,82.64,96.78Zm5.54-15a3,3,0,0,1-2.68-4.36c0.93-1.85,2-3.69,3.05-5.46a3,3,0,1,1,5.12,3.15c-1,1.63-1.94,3.32-2.8,5A3,3,0,0,1,88.18,81.78Zm8.76-13.36a3,3,0,0,1-2.31-4.93c1.33-1.6,2.75-3.16,4.21-4.64a3,3,0,0,1,4.28,4.22c-1.34,1.36-2.64,2.79-3.86,4.26A3,3,0,0,1,96.94,68.42Zm11.55-11.05A3,3,0,0,1,106.67,52l1.42-1.05c1.21-.88,2.45-1.73,3.68-2.53a3,3,0,1,1,3.27,5c-1.14.74-2.29,1.53-3.42,2.36l-1.3,1A3,3,0,0,1,108.49,57.37ZM122.14,49a3,3,0,0,1-1.28-5.72c1.9-.9,3.84-1.71,5.78-2.43a3,3,0,0,1,2.08,5.64c-1.78.65-3.56,1.4-5.3,2.22A3,3,0,0,1,122.14,49ZM137.29,44a3,3,0,0,1-.6-5.95c2-.42,4.11-0.75,6.19-1a3,3,0,1,1,.69,6c-1.9.22-3.81,0.53-5.67,0.91A3,3,0,0,1,137.29,44Z"/><path class="cls-3" d="M194.37,172.95a3,3,0,0,1-1.77-5.43c18.62-13.53,28.87-33.37,28.87-55.89,0-38.1-31.34-69.1-69.86-69.1a3,3,0,0,1,0-6c41.84,0,75.87,33.69,75.87,75.11,0,24.49-11.13,46.07-31.35,60.75A3,3,0,0,1,194.37,172.95Z"/></svg>