<svg xmlns="http://www.w3.org/2000/svg" xmlns:xlink="http://www.w3.org/1999/xlink" viewBox="0 0 300 200"><defs><style>.a,.i{fill:none;}.b{fill:#fff;}.c{fill:#4757a6;}.d{fill:#ee3a39;}.e{fill:#74bf44;}.f,.k{fill:#333;}.g{fill:#697767;}.h{fill:#252b23;}.i{stroke:#fff;stroke-miterlimit:10;}.j{fill:url(#a);}.k{fill-rule:evenodd;}</style><linearGradient id="a" x1="154.04" y1="123.18" x2="154.04" y2="122.46" gradientTransform="matrix(-1, 0, 0, 1, 353, -81)" gradientUnits="userSpaceOnUse"><stop offset="0.24" stop-color="#ec1d7f"/><stop offset="0.86" stop-color="#fff"/></linearGradient></defs><title>P1-Bundled-ManySizes</title><rect class="a" width="300" height="200"/><circle class="b" cx="107.33" cy="58" r="35.26"/><circle class="b" cx="192.67" cy="58" r="35.26"/><circle class="b" cx="107.33" cy="142" r="35.26"/><circle class="b" cx="192.67" cy="142" r="35.26"/><rect class="c" x="111.21" y="43.19" width="11.56" height="17.72"/><rect class="d" x="88.55" y="43.19" width="11.56" height="17.72"/><rect class="e" x="99.99" y="43.19" width="11.35" height="17.72"/><path class="f" d="M553.89,154.5a1,1,0,0,0-.54-0.27l0.54-.54a1,1,0,0,0-.54-1.65l0.54-.54a1,1,0,0,0-.54-1.65l0.54-.54a1,1,0,0,0-.54-1.65l0.54-.54a1,1,0,0,0-.54-1.65l0.54-.54a1,1,0,0,0-.54-1.65l0.54-.54a1,1,0,0,0-.54-1.65l0.54-.54a1,1,0,0,0-.54-1.65l0.54-.54a1,1,0,0,0-.54-1.65l0.54-.54a1,1,0,0,0-.54-1.65l0.54-.54a1,1,0,0,0-.54-1.65l0.54-.54a1,1,0,0,0-.54-1.65l0.54-.54a1,1,0,0,0-.54-1.65l0.54-.54a1,1,0,0,0-.54-1.65l0.54-.54a1,1,0,0,0-1.38-1.38l-1,1h-3.28v1.17h2.11l-0.08.08a1,1,0,0,0,.54,1.65l-0.54.54a1,1,0,0,0,.54,1.65l-0.54.54a1,1,0,0,0,.54,1.65l-0.54.54a1,1,0,0,0,.54,1.65l-0.54.54a1,1,0,0,0,.54,1.65l-0.54.54a1,1,0,0,0,.54,1.65l-0.54.54a1,1,0,0,0,.54,1.65l-0.54.54a1,1,0,0,0,.54,1.65l-0.54.54a1,1,0,0,0,.54,1.65l-0.54.54a1,1,0,0,0,.54,1.65l-0.54.54a1,1,0,0,0,.54,1.65l-0.54.54a1,1,0,0,0,.54,1.65l-0.54.54a1,1,0,0,0,.54,1.65l-0.54.54a9,9,0,0,1,1.2,2.37l0.1,0.09v1.43a0.17,0.17,0,0,1-.17.17h-3a0.75,0.75,0,0,0-.63-0.35h-5.23v0.14a0.22,0.22,0,0,1-.22.22h-4a0.22,0.22,0,0,1-.22-0.22V158.2H510.48c-0.41,0-6.14.52-6.14,0.93s5.72,0.93,6.14.93h27.67V160a0.22,0.22,0,0,1,.22-0.22h4a0.22,0.22,0,0,1,.22.22v0.11h5.23a0.75,0.75,0,0,0,.63-0.35h3a1.34,1.34,0,0,0,1.34-1.34V157l0.1-.09,1-1A1,1,0,0,0,553.89,154.5Z" transform="translate(-421 -81)"/><path class="f" d="M543,122.64H510.37a2.11,2.11,0,0,0-2.11,2.11v18.58h36.8V124.76A2.11,2.11,0,0,0,543,122.64Zm-32.58,1.81H543a0.3,0.3,0,0,1,.3.3v16.76H510.07V124.76A0.3,0.3,0,0,1,510.37,124.46Z" transform="translate(-421 -81)"/><path class="f" d="M546.56,118.93H506.82a2.74,2.74,0,0,0-2.73,2.73v24.69h2.15v2.7h-2.15v4.32a2.74,2.74,0,0,0,2.73,2.73h39.73a2.74,2.74,0,0,0,2.73-2.73V121.67A2.74,2.74,0,0,0,546.56,118.93Zm-40.23,32.35h0.28a1.87,1.87,0,0,0,1.87-1.87V146a1.87,1.87,0,0,0-1.87-1.87h-0.28V121.67a0.5,0.5,0,0,1,.5-0.5h39.73a0.5,0.5,0,0,1,.5.5v31.71a0.5,0.5,0,0,1-.5.5H506.82a0.5,0.5,0,0,1-.5-0.5v-2.09Z" transform="translate(-421 -81)"/><polyline class="f" points="124.42 159.5 123.76 159.46 123.32 160.36 123.76 161.27 124.42 161.22"/><path class="f" d="M540.14,242.54l0.17,0,1.25-.07,0.44-.94,0.45,0.92,1.41-.12,0.44-.92-0.44-.93-1.42-.11-0.44.91-0.45-.94-1.41-.12-0.45.92-0.44-.94-0.7,0-20.45-.05c-0.76,0-1.51,0-2.24.07s-1.19.06-1.67,0.06h-0.25l-0.13-.15-0.3-.19,0,0.08-0.11.34-0.36,0c-0.9.09-2.8,0.17-3.77,0.21h-0.07v0.2l-0.33.18a0.47,0.47,0,0,0,0,.94l0.33,0.14v0.23h0.07c1.25,0.05,3,.14,3.77.21l0.36,0,0.11,0.35,0,0.07,0.31-.19,0.12-.14h0.25c0.48,0,1,0,1.64.06s1.5,0.07,2.27.07l20.13-.05,0.53,0,0.48,0,0.44-.94Z" transform="translate(-421 -81)"/><path class="f" d="M553.89,230.32a7.66,7.66,0,0,1-1.78-2.66,9.31,9.31,0,0,1-.22-6,6.5,6.5,0,0,1,1.83-2.68l0.23-.23a4.39,4.39,0,0,0,1.71-3.33c0-5.63-1.78-6.89-3.5-8.11l-0.64-.46a8.43,8.43,0,0,0-4.28-1.35,6.92,6.92,0,0,0-4.61.93,5.24,5.24,0,0,0-2.21,3.31l-0.16.64,2.35,0.15,0.12-.43a2.85,2.85,0,0,1,1.17-1.72,5.76,5.76,0,0,1,6.2.32l0.34,0.26c1.35,1,2.89,2.16,2.89,6.33a2.49,2.49,0,0,1-1.06,1.83l-0.21.21a8.77,8.77,0,0,0-2.38,3.56,11.76,11.76,0,0,0,.25,7.66,9.89,9.89,0,0,0,2.25,3.4,2.93,2.93,0,0,1,1.1,1.95c0.13,1.84-1.45,3.43-2,4a8.31,8.31,0,0,1-4.89,2.25V240l-1.56-.11-0.72,1.48,0.72,1.49,1.56-.12v-0.24a10.72,10.72,0,0,0,6.55-3c0.8-.81,2.92-2.95,2.72-5.84A5.1,5.1,0,0,0,553.89,230.32Z" transform="translate(-421 -81)"/><path class="f" d="M545.71,211.47h-2.12l-0.38-1a1.32,1.32,0,0,0-1.13-.85h-0.67a6.3,6.3,0,0,0-.64,0h-0.13a1.32,1.32,0,0,0-1.23.85l-0.38,1H505.41a2.58,2.58,0,0,0-2.57,2.57v18.62a3.63,3.63,0,0,0,2,3.2c1.11,0.52,4.85,1.1,8,1.48a99.22,99.22,0,0,0,25.57,0c3.13-.37,6.86-1,8-1.48a3.63,3.63,0,0,0,2-3.2V214A2.58,2.58,0,0,0,545.71,211.47ZM504.89,214a0.52,0.52,0,0,1,.52-0.52h35l0.7-1.85h0.32l0.7,1.85h3.54a0.52,0.52,0,0,1,.52.52v18.62a1.54,1.54,0,0,1-.78,1.34c-1.27.59-11.32,2.11-19.89,2.11s-18.62-1.51-19.89-2.11a1.54,1.54,0,0,1-.78-1.34V214Z" transform="translate(-421 -81)"/><rect class="f" x="86.77" y="137.38" width="35.54" height="11.43" rx="1.11" ry="1.11"/><rect class="g" x="88.01" y="138.62" width="33.06" height="8.95"/><rect class="f" x="93.15" y="145.61" width="26.22" height="0.97"/><path class="h" d="M513,227c-0.15-.27-0.36-0.61-0.63-1l0.59-.86a0.57,0.57,0,0,0-.14-0.79,0.57,0.57,0,0,0-.79.14l-0.35.51c-0.1-.16-0.19-0.31-0.26-0.45a0.57,0.57,0,0,0-1,.53,9.86,9.86,0,0,0,.58.93l-0.69,1a0.55,0.55,0,0,0-.11.42,0.57,0.57,0,0,0,.56.48h0.09a0.55,0.55,0,0,0,.37-0.23l0.47-.66c0.13,0.2.24,0.38,0.33,0.54a0.56,0.56,0,0,0,.34.27,0.55,0.55,0,0,0,.43,0,0.56,0.56,0,0,0,.27-0.34A0.55,0.55,0,0,0,513,227Z" transform="translate(-421 -81)"/><polyline class="a" points="193.6 55.73 193.6 59.61 193.6 57.62"/><path class="f" d="M629.81,133.58H599.46a2,2,0,0,0-2,2V143a2,2,0,0,0,2,2h30.34a2,2,0,0,0,2-2v-7.47A2,2,0,0,0,629.81,133.58Zm-30.09,9.7a0.51,0.51,0,0,1-.51-0.51v-6.91a0.51,0.51,0,0,1,.51-0.51h29.83a0.51,0.51,0,0,1,.51.51v6.91a0.51,0.51,0,0,1-.51.51H599.72Z" transform="translate(-421 -81)"/><path class="f" d="M602.85,141l-0.52-.73,0.47-.64a0.25,0.25,0,0,0-.2-0.41h-0.24a0.25,0.25,0,0,0-.2.1l-0.26.34-0.24-.33a0.25,0.25,0,0,0-.21-0.11h-0.26a0.25,0.25,0,0,0-.21.4l0.46,0.65-0.53.72a0.25,0.25,0,0,0,.2.41h0.26a0.25,0.25,0,0,0,.21-0.11l0.29-.41,0.28,0.4a0.25,0.25,0,0,0,.21.11h0.27A0.25,0.25,0,0,0,602.85,141Z" transform="translate(-421 -81)"/><rect class="f" x="182.65" y="59.71" width="24.26" height="0.69" rx="0.25" ry="0.25"/><path class="i" d="M598,124.26" transform="translate(-421 -81)"/><path class="i" d="M596.86,123.36" transform="translate(-421 -81)"/><line class="j" x1="199.32" y1="41.46" x2="198.6" y2="42.18"/><path class="f" d="M633.42,119.21h0c-1.17-.13-13.54-1-18.82-1s-17.65.92-18.82,1a4.17,4.17,0,0,0-3.8,3.91v29.62a5.17,5.17,0,0,0,2.83,4.32c2.33,1,15.5,2,19.8,2s17.47-1,19.8-2a5.17,5.17,0,0,0,2.83-4.32V123.13A4.17,4.17,0,0,0,633.42,119.21Zm-6,4.39,4.18,0.32h0.16c0.51,0,.74.68,0.74,1.49a1.33,1.33,0,0,1-.88,1.49l-4.2.32-7.79.14v0.9a3.43,3.43,0,0,1-.45,1.6,18.86,18.86,0,0,1-2.69,1.66h-3.78a18.9,18.9,0,0,1-2.68-1.66,3.43,3.43,0,0,1-.45-1.6v-0.94h-0.34c-3.29-.14-6.77-0.32-6.77-0.32l-0.42.43a2.3,2.3,0,0,1,0-.47l-4.72-.64a0.94,0.94,0,0,1,.09-1.83l4.63-.63a2.36,2.36,0,0,1,0-.48l0.44,0.47s3.47-.21,6.76-0.35h0.34v-3c1.93-.1,3.63-0.17,5-0.17s3.1,0.07,5,.17v2.95Zm-18.55-.83c-2.72.12-5.56,0.27-6.37,0.31a0.77,0.77,0,0,0-.66-0.47,0.83,0.83,0,0,0-.72.57l-3.84.58a1.69,1.69,0,0,0-.08,3.31l3.93,0.58a0.82,0.82,0,0,0,.71.56,0.77,0.77,0,0,0,.66-0.46c0.8,0,3.65.19,6.37,0.31v0.22a4.13,4.13,0,0,0,.6,2.06,14.55,14.55,0,0,0,2.85,1.9l0.22,0h4.12l0.22,0a14.56,14.56,0,0,0,2.85-1.9,4.11,4.11,0,0,0,.58-2.06l0-.16,7.11-.13,4.4-.32c0.88,0,1.56-1,1.56-2.24s-0.69-2.23-1.56-2.24l-4.38-.32-7.13-.13v-2.17c5,0.27,11.7.73,12.49,0.81a2.36,2.36,0,0,1,2.18,2.11v28.89a3.29,3.29,0,0,1-1.74,2.72c-1.76.79-13.93,1.8-18.65,1.8s-16.88-1-18.65-1.8a3.29,3.29,0,0,1-1.74-2.72V123.47a2.36,2.36,0,0,1,2.18-2.11c0.79-.08,7.51-0.54,12.49-0.81v2.22Z" transform="translate(-421 -81)"/><path class="k" d="M631.31,124.59V125h-0.54v-0.45l-0.25,0v0l-0.84,0h0l-0.54,0V125h-0.54v-0.6l-0.53,0h0l-0.56,0h0l-0.54,0V125h-0.54v-0.73l-0.54,0h0l-19.28-.05c-1.35,0-2.91.13-3.94,0.13a0.93,0.93,0,0,1-.49-0.33,0.44,0.44,0,0,0-.05.38c-0.37.13-3.88,0.28-3.88,0.28v0h0v0.23a0.53,0.53,0,1,0,0,1v0.2h0v0s3.51,0.15,3.88.28a0.45,0.45,0,0,0,.05.38,0.91,0.91,0,0,1,.49-0.33c1,0,2.59.13,3.94,0.13l19.28-.05h0l0.54,0v-0.73H627v0.7l0.54,0h0l0.56,0h0l0.53,0v-0.59h0.54v0.55l0.54,0h0l0.84,0v0l0.25,0v-0.45h0.54v0.42l0.54,0v-1.53Z" transform="translate(-421 -81)"/><path class="f" d="M626,200H601.78a6,6,0,0,0-6,6v38.86H632V206A6,6,0,0,0,626,200Zm-24.21,2H626a4,4,0,0,1,3.95,3.95v36.85H597.83V206A4,4,0,0,1,601.78,202Z" transform="translate(-421 -81)"/><path class="f" d="M626,203.17h-1.86v0a1.2,1.2,0,0,1-1.2,1.2H604.84a1.2,1.2,0,0,1-1.2-1.2v0h-1.86A2.82,2.82,0,0,0,599,206v31.88a2.82,2.82,0,0,0,2.82,2.82H626a2.82,2.82,0,0,0,2.82-2.82V206A2.82,2.82,0,0,0,626,203.17Zm0.59,35.19H601.2V205.51h25.39v32.86Z" transform="translate(-421 -81)"/><path class="f" d="M607.17,202.45h15.52a0.34,0.34,0,0,1,.37.31v0.87a0.34,0.34,0,0,1-.37.31H607.17s-2.45-.37-2.45-0.74S607.17,202.45,607.17,202.45Z" transform="translate(-421 -81)"/><path class="f" d="M616.11,210.72h7.44a1.08,1.08,0,1,0,0-2.16h-7.44A1.08,1.08,0,1,0,616.11,210.72Z" transform="translate(-421 -81)"/><path class="f" d="M623.55,213.85h-7.44a1.08,1.08,0,1,0,0,2.16h7.44A1.08,1.08,0,1,0,623.55,213.85Z" transform="translate(-421 -81)"/><path class="f" d="M623.55,219.15H604.23a1.08,1.08,0,1,0,0,2.16h19.33A1.08,1.08,0,1,0,623.55,219.15Z" transform="translate(-421 -81)"/><path class="f" d="M623.55,224.44H604.23a1.08,1.08,0,1,0,0,2.16h19.33A1.08,1.08,0,1,0,623.55,224.44Z" transform="translate(-421 -81)"/><path class="f" d="M623.55,234.07H612a1.08,1.08,0,1,0,0,2.16h11.52A1.08,1.08,0,0,0,623.55,234.07Z" transform="translate(-421 -81)"/><path class="f" d="M608.5,233.18l1-1a1.62,1.62,0,0,0,0-2.29,1.66,1.66,0,0,0-2.29,0l-1,1-1-1a1.62,1.62,0,0,0-2.29,2.29l1,1-1,1a1.62,1.62,0,0,0,0,2.29,1.66,1.66,0,0,0,2.29,0l1-1,1,1a1.62,1.62,0,1,0,2.29-2.29Z" transform="translate(-421 -81)"/><rect class="d" x="183.46" y="127.28" width="2.77" height="8.44"/><rect class="e" x="186.24" y="127.28" width="2.77" height="8.44"/><rect class="c" x="189.01" y="127.28" width="2.77" height="8.44"/></svg>