<?xml version="1.0" encoding="utf-8"?>
<!-- Generator: Adobe Illustrator 18.1.1, SVG Export Plug-In . SVG Version: 6.00 Build 0)  -->
<svg version="1.1" id="Livello_1" xmlns="http://www.w3.org/2000/svg" xmlns:xlink="http://www.w3.org/1999/xlink" x="0px" y="0px"
	 viewBox="-269 -14.3 419.5 423" enable-background="new -269 -14.3 419.5 423" xml:space="preserve">
<path fill="#FCEA10" stroke="#5EB45C" stroke-width="6" stroke-miterlimit="10" d="M138.4,197.3c0,108.9-88.3,197.2-197.2,197.2
	c-108.9,0-197.1-88.3-197.1-197.2S-167.7,0.2-58.8,0.2S138.4,88.4,138.4,197.3z"/>
<path fill="#009760" stroke="#FCEA10" stroke-width="4" stroke-miterlimit="10" d="M-148.4,304.7l0.4-219L-13.4,86
	c27.8,0,49.2,7,63.7,20.7c14.5,13.7,21.5,30.3,21.5,50.6c0,19.9-6.8,36.3-20.6,50.1c-13.8,13.9-30,20.6-49.4,20.5
	c-16,0-32.4-6.4-48.7-18.9l-14.5-11.1l-0.2,106.9L-148.4,304.7z M-61.4,186.6l6.7,1.8c3.8,1,7.5,1.6,11,1.6
	c10.4,0,18.9-3.4,25.6-10.1c6.6-6.7,9.9-15.4,9.9-25.9c0-10.2-2.8-18.6-8.5-24.9c-5.9-6.6-14.1-9.9-24.4-9.9l-20.2,0L-61.4,186.6z"
	/>
</svg>
