<?xml version="1.0" standalone="no"?>
<!DOCTYPE svg PUBLIC "-//W3C//DTD SVG 20010904//EN"
 "http://www.w3.org/TR/2001/REC-SVG-20010904/DTD/svg10.dtd">
<svg version="1.0" xmlns="http://www.w3.org/2000/svg"
 width="1024.000000pt" height="1024.000000pt" viewBox="0 0 1024.000000 1024.000000"
 preserveAspectRatio="xMidYMid meet">

<g transform="translate(0.000000,1024.000000) scale(0.100000,-0.100000)"
fill="#000000" stroke="none">
<path d="M4789 9596 c-2 -3 -41 -9 -85 -15 -45 -6 -97 -17 -115 -26 -36 -18
-136 -149 -168 -221 -10 -22 -35 -55 -56 -74 -84 -78 -155 -163 -155 -186 0
-7 -4 -14 -9 -16 -6 -1 -11 -14 -13 -28 -2 -14 -9 -35 -16 -47 -7 -12 -12 -31
-12 -42 0 -10 -16 -75 -36 -143 -20 -68 -37 -136 -37 -153 -2 -77 12 -263 21
-285 5 -14 13 -64 16 -111 8 -92 3 -104 -41 -93 -11 3 -30 -3 -43 -14 -23 -19
-25 -25 -22 -110 3 -73 0 -96 -14 -117 -16 -24 -16 -29 -2 -58 26 -55 107
-154 151 -187 37 -27 47 -30 87 -25 l46 6 27 -67 c15 -36 39 -81 52 -98 25
-33 44 -99 45 -153 0 -28 -6 -36 -37 -52 -21 -11 -60 -42 -88 -70 -27 -28 -58
-51 -70 -51 -11 0 -32 14 -47 32 l-26 33 -36 -38 c-20 -21 -36 -45 -36 -53 0
-20 -113 -134 -134 -134 -9 0 -21 -11 -28 -25 -10 -23 -45 -36 -133 -47 -15
-3 -22 -16 -31 -53 -6 -28 -16 -61 -21 -75 -14 -39 -6 -56 47 -95 27 -20 47
-41 44 -48 -2 -7 -64 -49 -137 -94 -73 -45 -163 -111 -202 -148 -97 -91 -106
-99 -137 -115 -15 -7 -37 -21 -47 -32 -11 -10 -22 -18 -25 -18 -13 0 -83 -54
-102 -78 -17 -23 -21 -42 -22 -124 -1 -54 -8 -121 -17 -150 -21 -76 -30 -460
-14 -650 12 -136 11 -150 -6 -187 -10 -22 -29 -48 -42 -57 -35 -22 -55 -77
-62 -169 l-6 -80 -45 2 c-25 1 -114 3 -199 5 l-153 3 -22 38 c-18 32 -19 39
-6 46 11 8 12 14 3 33 -16 31 -30 84 -37 136 -9 59 -44 126 -104 193 -76 88
-92 114 -92 153 0 32 -4 36 -32 44 -18 5 -39 7 -46 4 -16 -6 -24 -40 -20 -87
3 -34 7 -40 34 -47 18 -5 47 -26 68 -50 20 -24 47 -54 60 -68 49 -55 67 -93
85 -189 5 -24 5 -57 0 -74 -5 -17 -5 -35 -1 -41 14 -19 12 -57 -4 -63 -14 -5
-54 22 -52 36 0 3 0 14 -1 23 -1 21 -39 20 -62 -3 -16 -16 -34 -65 -31 -85 1
-6 -8 -11 -20 -11 -13 -1 -35 -1 -51 -2 l-27 -1 2 -423 3 -422 38 0 c20 0 37
3 37 8 0 4 6 5 13 0 6 -4 23 -8 37 -8 20 0 25 -6 27 -28 1 -19 -2 -25 -10 -21
-8 5 -8 3 0 -7 18 -19 16 -29 -7 -29 -11 0 -20 7 -20 16 0 10 -5 12 -12 7 -23
-14 -41 -12 -66 8 -36 28 -42 24 -42 -27 l0 -47 57 7 c32 4 62 11 67 16 14 14
41 12 80 -6 45 -22 36 -40 -22 -43 -26 -1 -76 -6 -112 -9 l-65 -7 -3 -1867 -2
-1868 2880 0 2880 0 0 386 0 387 -37 -8 c-21 -4 -56 -8 -78 -10 -22 -2 -57 -6
-77 -8 -20 -2 -42 0 -50 5 -10 7 -9 8 4 4 17 -5 31 7 34 32 1 6 2 12 1 12 -1
1 -20 3 -42 6 -50 6 -145 35 -145 43 1 19 20 33 39 28 21 -5 51 15 51 34 0 11
-2 11 -58 0 l-42 -8 4 36 c2 20 9 35 15 34 5 -2 8 4 4 12 -5 14 -7 13 -18 -1
-7 -11 -17 -14 -25 -9 -8 5 -11 4 -6 -3 3 -6 -1 -15 -10 -20 -11 -6 -15 -16
-10 -27 4 -12 2 -16 -7 -12 -8 3 -22 -6 -32 -19 -9 -13 -22 -21 -27 -18 -6 4
-5 -3 1 -15 9 -16 9 -21 0 -21 -7 0 -1 -10 12 -23 13 -13 32 -33 41 -44 15
-20 15 -22 -3 -39 -11 -10 -37 -19 -58 -20 -22 -1 -44 -5 -50 -8 -5 -4 -13 -1
-16 5 -6 8 -105 6 -155 -4 -3 -1 -27 3 -55 8 -27 5 -53 9 -57 9 -3 1 -9 4 -13
8 -11 11 -13 148 -4 223 24 193 25 277 3 420 -9 55 -20 129 -25 165 -6 36 -15
92 -20 125 -5 33 -9 89 -9 125 -1 36 -5 83 -10 105 -20 90 -31 127 -44 148
-25 38 -38 106 -28 137 6 16 6 32 1 37 -4 4 -11 35 -14 68 -8 89 -16 129 -27
142 -14 18 -68 165 -68 187 0 11 21 79 46 153 55 162 80 316 64 396 -31 155
-40 189 -67 267 -41 118 -98 287 -113 338 -20 64 -3 71 57 23 129 -103 266
-158 436 -173 147 -14 175 -6 265 70 123 103 139 122 190 225 67 134 91 204
109 307 8 46 18 89 23 95 5 6 5 17 0 25 -16 25 -11 58 9 65 11 3 24 12 31 19
9 12 5 13 -25 6 -39 -9 -48 -1 -77 65 -7 17 -15 32 -19 35 -3 3 -27 34 -52 69
-32 45 -43 67 -35 72 19 12 -6 77 -52 134 -22 28 -35 52 -30 53 13 5 13 133 0
166 -6 17 -6 26 0 26 6 0 10 57 10 143 0 106 4 156 16 191 17 49 13 150 -7
161 -5 4 -9 30 -9 60 0 45 3 55 21 60 11 4 18 12 16 18 -5 14 -234 13 -309 -1
-25 -5 -52 -6 -58 -2 -11 7 -22 99 -35 278 -8 114 -24 166 -53 170 -21 3 -112
-43 -112 -57 0 -11 -43 -29 -57 -24 -7 3 -13 10 -13 16 0 13 -40 43 -53 39 -4
-1 -3 7 3 19 7 11 9 27 6 35 -3 8 -1 14 5 14 5 0 3 10 -5 23 -15 22 -14 27 9
117 2 8 4 30 4 49 1 28 3 31 15 21 12 -9 15 -8 13 9 -1 15 -6 19 -19 15 -13
-4 -21 2 -30 20 -6 14 -15 26 -20 26 -5 0 -7 4 -3 9 3 5 -5 33 -18 63 l-24 53
-35 -55 c-48 -74 -64 -88 -73 -61 -6 20 -25 29 -25 13 0 -11 -46 -32 -70 -32
-27 0 -26 42 2 80 29 40 16 49 -26 16 -19 -14 -38 -26 -41 -26 -4 0 -3 25 1
56 5 43 3 58 -7 65 -26 16 -49 9 -84 -23 -60 -58 -65 -61 -65 -41 -1 16 -2 16
-17 -2 -12 -16 -14 -16 -10 -3 3 10 0 30 -8 45 -8 15 -15 22 -15 15 0 -7 -5
-10 -11 -7 -16 10 -59 16 -143 18 -78 2 -80 1 -79 -40 1 -15 -24 -6 -62 22
-16 12 -54 28 -82 34 -56 14 -68 32 -32 51 15 9 20 20 18 43 -4 46 21 143 43
166 25 27 23 39 -7 47 -40 10 -47 38 -52 183 -5 159 -15 210 -52 244 -38 36
-73 40 -435 46 l-58 1 7 66 c4 36 18 97 31 135 13 38 24 77 24 88 0 31 40 50
88 41 45 -8 53 -5 46 15 -3 7 7 17 25 23 22 8 38 26 61 71 16 33 30 72 30 86
0 15 4 35 10 45 7 12 3 47 -11 116 -30 142 -32 145 -72 139 -45 -8 -56 8 -56
80 0 58 -9 278 -15 380 -4 58 -45 182 -75 224 -12 16 -28 48 -36 71 -8 22 -20
47 -27 54 -38 38 -76 99 -128 206 -13 25 -27 54 -33 65 -6 11 -17 32 -25 48
-9 18 -21 27 -37 27 -55 0 -106 41 -75 60 9 6 8 10 -6 18 -10 6 -19 19 -19 29
0 15 -7 18 -44 15 -24 -1 -52 -7 -62 -13 -13 -6 -19 -6 -19 1 0 5 5 10 12 10
20 0 2 11 -28 16 -15 3 -31 7 -35 10 -4 2 -10 0 -14 -6 -11 -18 -60 -10 -95
15 -36 27 -60 32 -60 14 0 -7 -10 -5 -25 5 -23 15 -57 21 -66 12z m448 -311
c42 -28 58 -69 54 -137 -1 -19 -31 -31 -55 -22 -9 4 -31 27 -48 53 -18 25 -34
48 -37 51 -3 3 -12 16 -20 29 -12 22 -11 26 5 38 22 16 66 11 101 -12z m193
-205 c14 -10 29 -18 33 -18 13 -1 67 -73 67 -89 0 -8 -7 -21 -15 -29 -9 -9
-15 -11 -15 -4 0 6 -4 8 -10 5 -5 -3 -10 -2 -10 4 0 6 -7 8 -15 5 -10 -4 -18
3 -25 20 -10 28 -84 106 -100 106 -17 0 -11 28 8 33 18 4 43 -6 82 -33z m-34
-215 c19 -14 38 -34 44 -44 9 -17 7 -18 -23 -11 -57 13 -126 58 -127 82 0 17
74 -3 106 -27z m155 -225 c5 0 5 -7 2 -17 -4 -10 -2 -14 4 -10 12 7 15 2 44
-82 17 -48 23 -91 33 -241 1 -19 -4 -41 -11 -48 -14 -15 -16 -12 -17 33 -1 16
-6 30 -12 30 -6 0 -18 8 -28 18 -10 10 -36 27 -57 38 -21 10 -39 24 -39 29 0
5 15 19 33 32 56 39 55 37 40 108 -7 36 -18 77 -24 92 -6 15 -8 36 -4 45 6 16
8 16 18 -4 5 -13 14 -23 18 -23z m3 -1986 c28 -11 18 -41 -15 -53 -46 -16 -67
-14 -74 9 -12 38 40 63 89 44z m896 -275 c0 -5 -16 1 -35 12 -19 12 -35 23
-35 26 0 2 5 1 10 -2 6 -3 10 -1 10 6 0 7 11 2 25 -11 14 -13 25 -27 25 -31z
m-1250 -24 c0 -35 -103 -68 -115 -37 -10 26 18 67 50 73 31 6 65 -13 65 -36z
m1851 -329 c-10 -12 -8 -14 11 -10 13 2 16 1 8 -2 -36 -16 -67 -58 -38 -51 7
1 12 -7 12 -18 0 -13 -6 -20 -17 -19 -9 1 -17 -2 -17 -6 0 -5 -8 -7 -17 -5
-10 2 -25 4 -33 4 -18 1 -28 71 -10 71 5 0 10 -6 10 -12 0 -7 5 -5 11 5 5 9 7
22 4 27 -11 18 13 49 35 43 13 -3 20 0 20 8 0 10 4 9 17 -3 13 -14 14 -20 4
-32z m-1921 -55 c0 -41 -10 -53 -47 -58 -17 -3 -23 3 -28 27 -8 38 16 70 52
70 20 0 23 -5 23 -39z m762 -64 c11 -17 -14 -57 -39 -63 -41 -11 -70 46 -37
71 18 13 65 8 76 -8z m1053 -137 c4 -6 10 -8 14 -5 11 6 5 -38 -8 -64 -16 -28
-61 -49 -91 -41 -30 7 -37 32 -15 53 8 9 15 20 15 26 0 16 31 29 53 23 14 -3
18 -1 13 6 -4 7 -3 12 3 12 5 0 13 -5 16 -10z m-1565 -129 c0 -5 -9 -11 -20
-14 -20 -5 -26 3 -13 16 9 10 33 8 33 -2z m1473 -58 c24 -45 56 -89 103 -143
17 -19 38 -48 47 -65 22 -44 56 -71 112 -90 82 -27 129 -60 171 -120 29 -44
35 -58 25 -65 -18 -11 -74 -5 -103 11 -22 13 -27 14 -56 17 -7 1 -11 6 -8 11
8 12 -4 42 -14 36 -10 -6 -99 89 -128 136 -12 19 -32 41 -45 48 -21 11 -85
118 -91 152 -5 31 -20 65 -37 88 -11 13 -19 28 -19 34 0 17 18 -4 43 -50z
m534 -112 c17 -11 52 -40 78 -64 39 -38 46 -50 43 -78 -3 -29 -8 -34 -54 -49
-28 -9 -56 -14 -63 -12 -7 2 -20 -3 -29 -11 -26 -23 -92 -26 -106 -5 -9 15 -3
25 33 62 43 43 43 44 36 99 -10 81 3 93 62 58z m176 -543 c21 -20 28 -33 19
-36 -7 -2 -18 0 -25 6 -13 10 -56 22 -99 28 -26 3 -27 2 -22 -29 3 -17 8 -39
11 -47 4 -8 5 -21 4 -28 -1 -8 2 -19 8 -26 7 -8 4 -15 -10 -24 -22 -14 -21
-15 -24 58 -1 25 -5 61 -10 82 -7 33 -5 37 16 41 70 13 100 7 132 -25z m129
-229 c10 -5 18 -14 18 -20 0 -6 -4 -7 -10 -4 -11 7 -14 -18 -3 -29 13 -13 10
-46 -5 -46 -8 0 -12 6 -9 14 3 8 -1 17 -10 20 -12 5 -14 1 -10 -14 6 -25 -11
-27 -20 -2 -4 9 -21 35 -40 58 -18 23 -33 48 -33 57 0 13 7 12 52 -5 29 -11
60 -24 70 -29z m-4792 31 c0 -5 -12 -12 -27 -15 -16 -3 -41 -10 -58 -16 -47
-16 -49 -15 -53 8 -4 25 10 30 86 32 28 0 52 -3 52 -9z m50 -99 c0 -14 7 -35
15 -45 31 -41 20 -53 -52 -59 -97 -10 -163 -8 -163 2 0 5 9 12 19 16 11 3 26
17 35 30 14 21 14 24 1 19 -8 -4 -15 -2 -15 3 0 17 37 44 86 63 55 21 74 14
74 -29z m-185 -24 c0 -15 -57 -47 -83 -47 -25 0 -29 4 -30 30 l-1 30 57 -4
c31 -3 57 -7 57 -9z m-437 -117 c7 0 10 -4 7 -10 -11 -17 -65 -12 -65 6 0 12
6 15 23 10 12 -3 28 -6 35 -6z m710 -206 c26 -18 28 -39 6 -85 -9 -19 -26 -54
-38 -78 -11 -24 -31 -48 -43 -54 -28 -12 -22 -23 16 -30 18 -4 32 -14 36 -28
12 -36 -13 -49 -94 -50 -61 -1 -77 3 -94 20 -28 28 -10 47 54 56 56 8 62 18
19 34 -16 5 -30 12 -30 14 0 2 21 41 46 88 26 46 52 94 58 106 13 27 33 29 64
7z m-203 -344 c28 -5 68 -11 90 -12 31 -2 40 -7 39 -21 -2 -23 -65 -114 -84
-122 -8 -4 -61 -8 -117 -10 -84 -3 -103 -2 -103 10 0 8 13 21 29 30 46 23 61
52 54 101 -5 42 -5 43 18 38 13 -2 47 -9 74 -14z m-415 -10 c0 -5 -8 -10 -17
-10 -15 0 -16 2 -3 10 19 12 20 12 20 0z m223 -147 c-7 -2 -21 -2 -30 0 -10 3
-4 5 12 5 17 0 24 -2 18 -5z m1147 -2591 c0 -5 -7 -9 -15 -9 -8 0 -15 4 -15 9
0 4 7 8 15 8 8 0 15 -4 15 -8z m-475 -382 c3 -5 -1 -10 -10 -10 -9 0 -13 5
-10 10 3 6 8 10 10 10 2 0 7 -4 10 -10z"/>
<path d="M6897 5743 c-10 -9 -9 -23 1 -23 5 0 9 7 9 15 0 17 -1 18 -10 8z"/>
<path d="M7076 6134 c-3 -8 1 -14 9 -14 20 0 28 17 11 23 -8 3 -17 -1 -20 -9z"/>
<path d="M7992 4730 c0 -14 2 -19 5 -12 2 6 2 18 0 25 -3 6 -5 1 -5 -13z"/>
<path d="M7987 4503 c-2 -21 0 -42 4 -47 5 -6 9 10 9 37 0 57 -6 61 -13 10z"/>
<path d="M7993 4320 c0 -47 2 -66 4 -42 2 23 2 61 0 85 -2 23 -4 4 -4 -43z"/>
</g>
</svg>
