<?xml version="1.0" standalone="no"?>
<!DOCTYPE svg PUBLIC "-//W3C//DTD SVG 20010904//EN"
 "http://www.w3.org/TR/2001/REC-SVG-20010904/DTD/svg10.dtd">
<svg version="1.0" xmlns="http://www.w3.org/2000/svg"
 width="1024.000000pt" height="1024.000000pt" viewBox="0 0 1024.000000 1024.000000"
 preserveAspectRatio="xMidYMid meet">

<g transform="translate(0.000000,1024.000000) scale(0.100000,-0.100000)"
fill="#000000" stroke="none">
<path d="M2080 7568 l0 -2673 133 -32 c148 -36 157 -36 272 15 39 17 93 36
120 43 28 7 93 30 145 52 71 30 117 42 182 48 125 13 331 64 421 105 77 36
161 53 260 54 30 0 78 12 133 34 55 23 100 35 127 34 105 -3 178 35 278 142
25 28 54 50 64 50 17 0 17 -1 0 -20 -15 -16 -17 -33 -13 -107 4 -73 11 -104
42 -178 21 -49 59 -125 84 -168 51 -85 141 -201 150 -193 3 3 -2 14 -12 25
-15 16 -15 19 -1 24 8 4 15 2 15 -3 0 -5 7 -6 17 -3 10 4 14 2 10 -4 -9 -15
32 -24 55 -12 23 12 15 29 -11 22 -15 -4 -22 3 -31 31 -6 20 -9 40 -5 46 3 5
0 10 -7 10 -10 0 -10 2 -1 8 8 5 9 13 3 22 -15 23 -12 40 5 34 10 -4 15 0 15
10 0 9 -6 16 -13 14 -13 -3 -17 3 -17 28 0 10 6 14 14 11 10 -4 12 0 8 15 -3
13 -7 16 -12 8 -5 -8 -10 -2 -14 15 -4 14 -4 31 0 37 4 7 3 8 -4 4 -7 -4 -12
-1 -12 8 0 9 -4 16 -10 16 -5 0 -10 9 -10 20 0 11 -5 20 -11 20 -6 0 -9 17 -7
43 2 30 -1 41 -9 40 -7 -2 -13 7 -13 19 0 20 1 20 18 5 22 -20 32 -21 32 -6 0
18 -51 58 -67 52 -9 -4 -11 0 -7 11 3 9 15 16 27 16 l20 0 -21 18 c-11 10 -17
23 -13 30 10 16 6 53 -10 86 -11 23 -11 30 -1 34 6 2 12 17 12 33 0 16 5 29
10 29 6 0 10 -6 10 -14 0 -18 57 -39 66 -24 4 6 9 5 15 -3 7 -11 9 -10 9 3 0
9 4 19 9 22 4 3 8 -5 8 -17 -1 -26 24 -87 35 -87 4 0 8 6 8 14 0 9 7 12 21 9
12 -3 18 -11 15 -19 -3 -8 -2 -13 2 -12 23 7 71 -14 77 -33 6 -17 9 -19 16 -8
5 8 9 12 10 9 0 -3 2 -13 4 -23 2 -9 -3 -24 -12 -32 -13 -13 -13 -15 2 -15 9
0 32 -12 51 -26 19 -15 34 -21 34 -14 0 6 6 10 13 7 6 -2 22 -1 34 4 24 9 48
-11 40 -33 -4 -8 -6 -7 -6 5 -1 18 -31 25 -31 6 0 -5 4 -7 10 -4 5 3 7 0 4 -8
-3 -9 6 -24 22 -36 34 -27 44 -27 44 2 0 16 3 18 9 8 7 -11 11 -10 20 5 9 13
14 15 17 7 3 -7 14 -13 24 -13 10 0 21 -4 25 -9 3 -5 20 -13 37 -17 34 -7 77
-31 90 -49 4 -5 8 -7 8 -2 0 4 13 1 30 -8 36 -19 36 -19 44 1 4 9 -1 28 -10
41 -8 14 -13 31 -10 38 3 8 0 16 -7 19 -17 7 12 26 29 19 8 -3 29 12 49 32 34
36 36 37 86 31 40 -5 54 -4 63 8 6 8 32 18 58 21 38 4 49 2 57 -13 9 -15 10
-14 11 7 0 24 0 24 15 5 8 -11 15 -14 15 -6 0 17 27 15 34 -4 3 -8 11 -12 17
-8 8 5 8 9 -1 14 -19 12 -2 32 18 21 9 -4 22 -6 29 -4 6 2 17 -5 23 -16 15
-29 28 -26 36 6 4 15 14 34 22 42 13 13 16 13 27 -2 13 -19 35 -23 35 -7 0 6
7 10 15 10 13 0 21 25 16 53 0 4 4 7 9 7 6 0 10 -4 10 -10 0 -15 27 -12 33 4
3 8 3 17 -1 19 -4 2 0 2 8 0 8 -3 19 -5 25 -6 5 -1 12 16 15 38 4 30 10 41 25
43 13 2 28 21 45 58 13 31 27 49 30 42 6 -17 35 -17 52 0 11 11 10 12 -3 7
-29 -11 -31 33 -4 57 14 12 22 25 19 30 -3 4 2 8 10 8 10 0 13 -6 10 -15 -9
-21 2 -19 25 7 17 17 18 24 8 36 -10 12 -8 17 7 26 10 6 31 24 47 39 16 16 33
26 39 22 5 -3 7 0 4 9 -3 9 3 19 18 27 12 7 29 18 36 26 7 7 18 13 23 13 9 0
5 -206 -6 -346 -16 -200 -17 -300 -1 -329 9 -16 16 -37 16 -46 0 -9 7 -22 15
-29 17 -14 97 -33 135 -32 14 0 43 -13 64 -30 30 -24 58 -35 115 -45 51 -9 92
-23 131 -47 124 -76 134 -79 234 -71 169 14 203 6 241 -59 38 -64 74 -86 142
-86 36 0 75 -8 101 -20 38 -17 52 -18 118 -10 89 11 139 3 194 -34 22 -14 42
-26 45 -26 3 0 5 1231 5 2735 l0 2735 -2910 0 -2910 0 0 -2672z m3341 1902 c6
0 7 4 4 10 -10 16 28 -1 48 -22 21 -21 28 -23 25 -6 -2 8 9 11 32 10 19 -1 45
-3 57 -3 13 -1 39 -20 60 -43 20 -22 52 -51 70 -62 31 -19 39 -20 75 -9 26 7
44 20 49 33 5 12 16 22 26 22 14 0 15 2 4 9 -9 6 -10 11 -2 15 11 7 51 -14 51
-26 0 -5 10 -8 21 -8 12 0 28 -8 36 -17 8 -11 11 -12 7 -3 -7 13 -5 13 8 2 9
-7 20 -27 23 -43 8 -37 46 -63 84 -57 18 3 29 0 28 -6 -1 -6 5 -10 14 -8 8 1
35 -16 59 -38 24 -22 46 -40 49 -40 3 0 14 -14 23 -30 10 -17 21 -29 25 -28
12 4 63 -38 56 -46 -3 -3 2 -6 12 -6 14 0 15 -3 5 -15 -10 -12 -10 -15 2 -15
8 0 23 -9 33 -20 10 -11 24 -20 32 -20 7 0 13 -4 13 -9 0 -5 3 -16 6 -25 3 -9
1 -16 -5 -16 -6 0 -11 7 -11 15 0 8 -9 19 -21 25 -28 15 -37 5 -10 -12 12 -7
21 -18 21 -24 0 -15 38 -25 46 -13 8 14 24 0 17 -16 -3 -10 2 -15 16 -15 14 0
21 -6 21 -20 0 -18 -3 -19 -22 -10 -19 9 -21 9 -8 -2 30 -26 49 -65 38 -76 -8
-8 -7 -13 5 -18 9 -3 17 -12 17 -19 0 -7 7 -16 16 -19 9 -4 14 -13 10 -21 -3
-9 1 -18 10 -22 15 -5 39 -53 51 -101 4 -17 2 -23 -5 -18 -8 5 -10 2 -6 -8 3
-9 10 -16 16 -16 5 0 6 -5 3 -10 -4 -6 -2 -16 3 -23 5 -7 10 -31 10 -54 1 -23
6 -51 12 -63 6 -11 9 -24 7 -28 -3 -4 1 -41 8 -82 8 -45 10 -81 4 -90 -7 -12
-8 -11 -9 5 0 11 -10 36 -22 55 -45 75 -58 102 -53 111 4 5 0 9 -7 9 -9 0 -9
3 2 10 13 8 12 10 -2 10 -10 0 -18 7 -18 15 0 14 -50 52 -111 85 -15 8 -42 29
-59 47 -17 17 -44 35 -60 38 -17 4 -32 11 -35 16 -10 15 -25 10 -19 -6 7 -17
-7 -20 -21 -6 -6 5 -28 14 -50 20 -34 9 -37 8 -22 -3 9 -7 17 -16 17 -18 0
-10 -38 -16 -47 -7 -20 20 -107 28 -148 13 -22 -7 -51 -14 -64 -14 -40 0 -90
-39 -132 -102 -39 -59 -45 -84 -14 -58 14 12 14 10 5 -15 -13 -35 1 -55 24
-35 9 7 23 9 32 6 10 -4 25 1 35 10 16 15 17 14 12 -5 -7 -26 13 -28 45 -5 13
9 46 18 75 20 29 3 72 7 97 9 74 8 194 5 228 -4 17 -5 34 -6 38 -3 4 4 4 1 0
-5 -4 -8 -1 -13 7 -13 8 0 20 -7 27 -15 7 -9 15 -13 18 -10 7 7 42 -25 42 -39
0 -6 9 -17 20 -24 11 -7 20 -19 20 -26 0 -8 9 -18 20 -21 28 -9 49 -44 48 -80
0 -16 5 -50 10 -74 6 -25 9 -49 6 -53 -3 -4 -1 -8 5 -8 10 0 20 -23 27 -67 11
-75 14 -92 19 -138 3 -27 11 -73 16 -102 6 -29 12 -96 15 -150 2 -54 7 -114
10 -133 9 -58 12 -223 3 -246 -4 -11 -10 -43 -13 -70 -8 -68 -22 -143 -34
-181 -6 -20 -7 -33 -1 -33 5 0 9 -5 9 -11 0 -5 -4 -8 -9 -5 -5 3 -10 -20 -11
-52 -7 -212 -11 -249 -26 -274 -4 -7 -9 -19 -9 -28 -4 -38 -17 -80 -26 -80 -6
0 -9 -6 -7 -14 2 -8 -6 -22 -17 -31 -11 -9 -14 -14 -7 -10 17 9 16 4 -14 -54
-20 -41 -30 -51 -51 -51 -19 0 -24 -4 -19 -16 5 -12 2 -15 -13 -11 -14 3 -17
0 -14 -14 3 -12 0 -19 -8 -19 -8 0 -20 -9 -26 -19 -10 -16 -9 -20 5 -26 14 -5
14 -7 2 -15 -10 -6 -23 -4 -39 6 -13 9 -21 11 -17 6 3 -6 1 -14 -5 -18 -8 -5
-8 -9 1 -14 17 -11 -35 -64 -53 -54 -6 4 -9 3 -4 -1 10 -12 -33 -55 -55 -55
-10 0 -18 -5 -18 -11 0 -5 -5 -7 -12 -3 -7 4 -8 3 -4 -5 4 -6 1 -18 -8 -26
-18 -19 -47 -9 -39 13 6 14 5 14 -16 0 -13 -9 -34 -14 -48 -12 -14 3 -22 1
-19 -5 3 -5 1 -11 -4 -13 -6 -2 -13 -12 -15 -23 -2 -11 -4 -21 -4 -23 -3 -10
-33 31 -36 49 -6 32 -13 35 -30 13 -12 -17 -12 -20 0 -30 21 -15 19 -24 -5
-24 -11 0 -20 5 -20 10 0 6 -7 10 -16 10 -10 0 -14 -6 -10 -17 17 -57 17 -70
2 -76 -12 -5 -14 0 -10 22 4 16 1 32 -5 35 -6 4 -11 2 -11 -4 0 -6 -4 -8 -10
-5 -5 3 -10 1 -10 -5 0 -7 7 -9 16 -6 12 5 15 2 10 -10 -3 -8 -6 -19 -6 -24 0
-4 -16 -24 -37 -45 -24 -24 -39 -33 -46 -26 -7 7 -6 15 3 26 10 12 10 15 -4
15 -10 0 -15 -4 -11 -9 3 -5 -4 -12 -15 -16 -11 -4 -18 -11 -15 -16 4 -5 1 -9
-4 -9 -6 0 -11 5 -11 10 0 6 -4 10 -10 10 -5 0 -10 -7 -10 -15 0 -14 -3 -13
-25 1 -23 15 -25 15 -31 0 -3 -9 -12 -16 -20 -16 -8 0 -11 6 -8 15 9 21 -6 19
-26 -5 -11 -13 -21 -17 -25 -11 -10 17 -33 -11 -27 -34 5 -18 4 -18 -11 -6 -9
7 -17 9 -17 3 0 -17 -41 -22 -47 -5 -5 13 -8 11 -15 -8 -7 -19 -11 -21 -18 -9
-8 13 -10 12 -10 -2 0 -9 -4 -19 -9 -22 -5 -4 -7 4 -4 16 3 17 2 19 -5 9 -8
-11 -14 -9 -31 8 -11 11 -21 28 -21 38 0 13 -3 13 -18 -5 -18 -20 -18 -20 -30
-1 -7 10 -23 19 -37 19 -31 0 -32 14 -3 27 l22 10 -22 5 c-12 3 -21 3 -20 -1
1 -3 -4 -17 -11 -31 l-11 -25 3 28 c3 15 0 27 -4 27 -5 0 -9 -5 -9 -11 0 -8
-4 -9 -13 0 -8 6 -17 7 -21 3 -4 -4 -6 0 -4 8 2 11 -5 14 -24 13 -18 -1 -28 4
-31 18 -3 11 -10 18 -15 17 -16 -5 -14 9 10 75 8 20 8 31 -1 40 -8 8 -11 8
-11 -1 0 -7 -7 -12 -15 -12 -18 0 -19 -12 -4 -27 9 -9 7 -12 -10 -10 -11 1
-21 7 -21 14 0 7 -2 13 -4 13 -2 0 -12 3 -22 7 -13 5 -15 3 -9 -8 7 -11 6 -12
-7 -2 -8 7 -18 10 -21 6 -4 -3 -7 -1 -7 5 0 7 8 12 18 12 10 0 24 9 32 20 8
11 21 20 28 20 8 0 12 6 9 13 -2 6 -14 11 -27 9 -14 -2 -20 0 -16 7 5 7 -4 11
-23 11 -24 0 -31 -4 -31 -19 0 -11 6 -22 13 -25 10 -5 10 -7 0 -12 -7 -3 -13
-12 -13 -20 0 -8 -4 -14 -9 -14 -13 0 -24 37 -16 50 3 6 -1 17 -10 26 -15 15
-16 14 -10 -12 3 -16 2 -23 -1 -16 -3 6 -12 12 -20 12 -10 0 -7 8 11 27 26 29
31 48 15 58 -6 4 -2 21 10 45 23 45 24 50 9 50 -5 0 -7 -4 -4 -10 3 -5 0 -10
-8 -10 -8 0 -20 -7 -27 -15 -7 -8 -17 -12 -22 -9 -6 4 -5 10 3 15 8 5 9 9 3 9
-6 0 -11 7 -11 15 0 8 4 15 9 15 4 0 8 -5 8 -11 0 -5 5 -7 10 -4 6 4 7 11 4
17 -4 6 1 8 14 4 13 -5 22 -1 26 10 8 20 -2 54 -15 54 -6 0 -3 10 5 21 16 24
11 49 -10 49 -8 0 -14 5 -14 11 0 5 5 7 11 3 8 -5 8 -1 0 14 -6 11 -16 23 -23
25 -8 3 -6 6 5 6 9 1 17 6 17 11 0 6 6 10 13 10 8 0 11 14 11 40 -1 22 2 40 8
40 5 0 6 9 3 20 -3 11 -2 20 3 20 6 0 12 -5 14 -10 2 -6 13 -2 24 9 14 12 26
16 35 11 21 -13 41 8 29 30 -6 11 -9 28 -7 38 4 29 57 69 102 78 l40 8 -50 9
c-27 5 -68 8 -90 8 -22 0 -48 2 -57 5 -18 5 -24 38 -12 68 9 23 50 20 72 -5
l20 -20 6 24 c7 31 20 36 76 28 25 -3 72 -3 105 0 33 3 62 2 63 -3 4 -10 36
-11 45 -1 4 3 -1 12 -11 19 -15 12 -15 15 -2 24 11 7 11 10 2 10 -7 0 -15 -7
-19 -16 -5 -15 -7 -15 -15 0 -5 9 -13 14 -19 11 -5 -4 -9 -2 -9 3 0 5 -7 9
-15 9 -8 0 -15 -5 -15 -10 0 -6 -8 -4 -17 4 -10 8 -31 21 -46 29 -23 11 -27
19 -25 44 3 30 1 31 -37 33 -22 1 -42 2 -45 3 -15 7 -50 6 -50 -1 0 -17 -105
-35 -115 -19 -7 11 29 32 39 23 3 -3 6 -2 6 4 0 13 58 38 67 29 4 -3 17 3 29
15 13 12 36 23 51 25 15 1 29 8 31 13 5 14 142 15 142 1 0 -5 15 -10 33 -10
18 0 38 -5 43 -10 7 -7 20 -7 40 -1 16 6 46 12 68 14 54 7 65 23 24 35 -44 13
-66 12 -73 -6 -4 -10 -15 -12 -48 -6 -23 4 -50 8 -59 9 -10 1 -21 4 -24 8 -4
4 -18 7 -32 7 -15 0 -26 7 -29 20 -3 11 -12 20 -20 20 -8 0 -11 5 -7 11 4 8
-1 9 -16 4 -20 -6 -21 -5 -11 14 7 12 18 21 26 21 8 0 15 5 15 10 0 6 5 9 12
8 7 -2 12 3 13 10 0 6 3 11 6 10 4 -2 17 6 29 17 24 22 29 22 40 6 3 -6 23
-14 44 -16 22 -3 35 -1 31 5 -6 10 34 55 50 55 13 0 19 35 6 36 -6 1 -17 2
-23 3 -7 1 -16 -2 -19 -7 -7 -10 -89 66 -89 83 0 5 -4 10 -8 10 -4 0 -9 10
-10 23 -4 37 -7 51 -16 65 -4 7 -5 16 -2 19 3 3 -2 18 -11 34 -16 27 -16 31 7
81 14 29 29 56 33 59 5 3 7 12 6 20 -5 24 12 62 49 112 34 47 37 49 78 45 23
-1 40 0 37 5 -2 4 0 7 5 7 5 0 5 20 -1 50 -7 34 -15 51 -29 55 -10 4 -18 12
-17 18 3 28 -2 48 -11 42 -6 -4 -8 -11 -4 -16 3 -6 -3 -5 -15 3 -23 14 -26 24
-12 32 5 4 8 14 6 24 -2 9 -4 21 -4 25 -1 5 -6 5 -13 1 -7 -4 -8 -3 -4 4 4 8
-3 16 -18 22 -22 8 -24 13 -16 34 7 20 6 24 -5 20 -7 -3 -11 -12 -9 -19 3 -7
1 -16 -5 -20 -6 -3 -11 1 -11 9 0 9 -4 16 -10 16 -5 0 -9 3 -9 8 5 29 -3 50
-18 48 -10 0 -21 -5 -25 -11 -12 -16 -63 21 -62 45 1 23 -7 25 -24 8 -9 -9
-12 -9 -13 0 -1 7 -3 17 -4 22 -1 6 -3 16 -4 23 -1 15 -86 107 -99 107 -16 0
-63 50 -57 60 3 6 17 7 31 4 13 -3 24 -4 24 0 0 10 -60 37 -69 31 -5 -3 -11
-2 -13 2 -14 32 -130 53 -181 34 -22 -9 -28 -7 -37 9 -8 15 -6 22 12 34 12 9
20 17 18 17 -9 3 -55 10 -72 12 -21 2 -20 -1 -9 30 7 18 6 30 -5 43 -9 11 -13
13 -9 7 4 -9 -1 -13 -15 -13 -22 0 -41 35 -32 60 5 12 3 13 -10 3 -8 -7 -17
-10 -20 -8 -3 3 -4 -5 -3 -17 1 -13 -4 -36 -11 -53 -7 -16 -13 -26 -14 -21 0
6 -6 2 -12 -7 -16 -20 -68 -34 -68 -18 0 16 -42 13 -68 -5 -20 -14 -22 -14
-22 0 0 9 4 16 10 16 5 0 12 11 16 25 3 14 11 25 18 25 6 0 17 9 24 20 9 15 9
20 0 20 -23 0 1 12 34 16 18 3 43 16 56 28 22 21 22 24 7 40 -9 9 -21 16 -26
16 -10 0 -34 -49 -30 -63 1 -5 -3 -6 -8 -3 -5 3 -7 15 -4 26 3 11 0 20 -6 20
-6 0 -11 -6 -11 -14 0 -8 -4 -17 -9 -21 -6 -3 -6 6 -1 25 6 21 5 30 -3 30 -6
0 -1 9 11 20 12 11 26 20 32 20 5 0 10 7 10 15 0 11 7 14 25 11 14 -3 25 0 25
6 0 6 -8 7 -17 3 -15 -5 -16 -4 -5 6 6 7 12 24 13 39 0 22 2 23 12 8 10 -15
12 -15 29 4 21 24 22 34 7 43 -11 8 22 45 41 45 5 0 10 6 10 13 0 8 11 24 24
36 14 13 22 30 19 38 -4 10 0 13 12 11 21 -4 45 29 30 40 -19 13 -17 44 2 42
54 -6 98 27 88 64 -5 19 -4 19 7 -2 11 -17 17 -19 26 -10 9 9 7 14 -6 24 -9 7
-14 16 -10 20 4 4 14 1 23 -6 12 -10 15 -10 15 3 0 18 8 24 41 31 13 3 35 8
49 12 14 4 48 9 75 10 28 1 58 3 68 3 10 1 16 5 13 9 -3 5 1 9 9 9 8 0 13 -5
12 -11 -1 -5 6 -12 16 -14 10 -2 17 2 17 12 0 17 12 21 24 9 11 -11 36 -12 36
-1 0 6 7 7 15 4 10 -3 18 1 22 11 4 11 8 13 11 5 2 -7 8 -12 13 -12z m313 -11
c43 2 48 0 37 -12 -9 -12 -9 -17 0 -23 7 -4 9 -3 6 3 -5 8 31 33 49 33 12 0
-9 -66 -26 -84 -22 -23 -58 -16 -95 19 -15 13 -30 25 -35 27 -4 2 -11 14 -15
27 -6 21 -5 23 11 16 11 -5 41 -7 68 -6z m-1034 -389 c0 -5 -4 -10 -10 -10 -5
0 -10 5 -10 10 0 6 5 10 10 10 6 0 10 -4 10 -10z m-80 -105 c0 -8 -4 -15 -10
-15 -5 0 -7 7 -4 15 4 8 8 15 10 15 2 0 4 -7 4 -15z m-67 -98 c3 -8 1 -20 -4
-28 -11 -19 -32 2 -23 24 7 20 20 22 27 4z m-13 -68 c0 -5 -7 -9 -15 -9 -15 0
-20 12 -9 23 8 8 24 -1 24 -14z m280 -360 c25 -6 56 -17 70 -26 14 -9 38 -18
54 -20 16 -2 43 -10 59 -18 17 -8 36 -15 44 -15 8 0 11 -5 8 -10 -3 -6 6 -15
20 -20 14 -5 23 -15 20 -20 -4 -6 -11 -7 -17 -4 -7 4 -8 2 -4 -4 4 -7 16 -12
28 -12 14 0 18 -5 14 -16 -3 -8 -2 -13 3 -10 12 8 17 -19 17 -79 -1 -32 -5
-50 -13 -51 -7 -1 -15 -3 -18 -4 -3 -1 -11 -3 -17 -4 -7 0 -14 -7 -14 -13 -1
-7 -2 -16 -3 -20 0 -3 -12 3 -24 16 -23 21 -57 21 -57 -1 0 -6 -20 -8 -52 -3
-29 3 -99 8 -156 9 -62 1 -107 7 -114 14 -9 9 -9 12 0 12 7 0 12 6 12 14 0 7
10 17 23 21 61 21 56 24 -36 20 -54 -2 -104 -8 -110 -12 -7 -4 -22 -8 -34 -9
-26 -1 -40 36 -18 52 17 13 16 54 -2 54 -7 0 -13 5 -13 10 0 6 8 10 17 10 12
0 14 3 6 11 -8 8 -17 8 -31 0 -11 -6 -23 -11 -26 -11 -12 0 -6 28 7 34 8 3 6
9 -8 17 -19 12 -19 12 0 19 11 4 26 2 34 -4 11 -8 15 -8 19 2 7 22 34 43 63
49 16 3 29 9 29 14 0 17 154 23 220 8z m-384 -123 c2 -14 0 -15 -12 -5 -17 14
-19 32 -2 27 6 -2 12 -12 14 -22z m-71 -56 c-10 -11 -20 -18 -23 -16 -5 6 21
35 32 36 5 0 1 -9 -9 -20z m2326 -97 c-12 -20 -14 -14 -5 12 4 9 9 14 11 11 3
-2 0 -13 -6 -23z m-1821 -119 c0 -8 -9 -14 -20 -14 -17 0 -19 3 -8 19 13 21
28 19 28 -5z m97 1 c7 -19 4 -22 -22 -27 -14 -2 -21 3 -23 20 -3 17 2 22 18
22 11 0 23 -7 27 -15z m-50 -86 c-2 -11 -10 -25 -18 -31 -10 -7 -6 -8 16 -4
l30 6 -25 -15 c-27 -15 -64 -20 -56 -7 3 5 -21 3 -54 -4 -32 -6 -105 -11 -162
-10 -98 3 -168 -8 -168 -26 0 -4 12 -8 26 -8 42 0 198 -34 206 -44 4 -6 4 -14
1 -19 -3 -5 -9 -3 -14 4 -7 11 -9 11 -9 -1 0 -13 -1 -13 -10 0 -6 10 -10 11
-10 3 0 -7 -6 -12 -12 -10 -7 1 -13 -5 -13 -13 0 -8 9 -15 20 -15 11 -1 25 -4
31 -7 6 -4 23 -5 37 -2 15 2 43 -3 63 -11 21 -8 39 -13 42 -10 6 6 32 -14 32
-25 0 -5 -9 -6 -20 -3 -27 7 -25 -9 5 -35 27 -24 45 -28 45 -11 0 5 5 7 11 3
7 -4 7 -9 2 -13 -22 -14 -8 -47 20 -49 14 -1 36 -36 36 -57 1 -13 -11 -25 -32
-35 -26 -12 -33 -23 -39 -55 -4 -22 -3 -49 2 -60 10 -24 21 -73 18 -80 -2 -2
6 -11 17 -19 11 -9 14 -16 8 -16 -7 0 -13 -6 -13 -13 0 -7 -18 -21 -40 -31
-22 -10 -38 -22 -35 -27 4 -5 0 -6 -8 -3 -8 3 -31 -15 -57 -46 -23 -27 -49
-50 -56 -50 -8 0 -14 -4 -14 -10 0 -5 -11 -12 -25 -16 -14 -3 -25 -10 -25 -15
0 -12 17 -11 25 1 3 6 14 10 25 10 13 0 17 -5 13 -20 -3 -11 -10 -17 -17 -13
-6 4 -5 -1 3 -10 7 -9 17 -14 22 -11 5 3 6 -2 3 -10 -4 -11 0 -16 10 -16 9 0
16 -4 16 -10 0 -5 -4 -10 -10 -10 -5 0 -10 -7 -10 -15 0 -12 -4 -13 -25 -3
-14 6 -25 18 -25 26 0 8 -6 12 -15 8 -8 -3 -15 0 -16 7 0 7 -4 3 -8 -8 -9 -21
6 -38 23 -28 5 4 6 1 1 -7 -4 -7 -2 -15 4 -20 7 -4 14 -16 16 -26 2 -10 4 -21
5 -24 1 -3 3 -9 4 -15 0 -5 5 -11 10 -12 5 -1 13 -7 17 -15 8 -11 10 -11 18 0
6 10 10 3 15 -23 5 -25 3 -40 -4 -45 -8 -5 -8 -14 1 -34 11 -23 10 -28 -7 -41
-12 -9 -14 -14 -6 -15 8 0 22 10 32 22 15 19 21 20 41 11 13 -7 18 -12 11 -12
-10 -1 -10 -6 -2 -21 8 -15 8 -18 -3 -14 -11 4 -13 -2 -10 -23 5 -27 5 -27
-11 -8 -16 19 -16 19 -12 -8 3 -18 0 -30 -10 -34 -7 -3 -11 -9 -8 -14 3 -5 14
1 24 13 10 13 22 20 26 15 4 -4 -2 -16 -14 -27 -12 -12 -22 -26 -22 -33 0 -7
3 -8 8 -2 4 6 13 11 20 13 10 2 10 -2 2 -18 -12 -23 -5 -56 16 -78 8 -7 11
-19 7 -25 -5 -8 -8 -7 -11 3 -3 7 -18 25 -33 38 -16 13 -29 30 -29 37 0 7 -6
24 -13 37 -11 21 -15 23 -26 11 -7 -8 -10 -21 -6 -31 4 -9 9 -28 11 -40 1 -13
9 -33 16 -45 9 -14 11 -35 7 -57 -3 -19 -7 -27 -8 -18 0 10 -9 22 -19 27 -14
7 -18 6 -19 -9 -1 -10 5 -21 14 -24 12 -5 13 -9 3 -21 -6 -8 -9 -19 -5 -25 11
-18 -27 -11 -41 8 -12 15 -13 15 -14 1 0 -21 -31 -19 -53 3 -16 16 -16 17 0
27 15 9 11 10 -18 11 -23 0 -42 -7 -50 -17 -8 -9 -9 -14 -3 -10 12 7 24 -11
30 -45 6 -28 -25 -30 -50 -3 -13 14 -29 25 -35 25 -7 0 -11 8 -10 18 4 48 -1
64 -20 59 -12 -3 -28 4 -42 19 -19 20 -20 24 -6 24 9 0 17 4 17 9 0 14 -63 71
-70 63 -11 -15 -29 -11 -27 8 1 10 5 16 9 14 4 -3 8 1 8 8 0 9 3 9 10 -2 7
-11 8 -5 3 19 -6 32 -5 34 19 29 27 -5 34 15 14 41 -8 11 -8 13 2 7 6 -4 12
-2 12 3 0 6 -6 11 -14 11 -19 0 -28 29 -21 72 4 25 1 39 -10 48 -17 14 -21 50
-5 50 6 0 5 9 -2 25 -6 13 -15 23 -21 22 -5 -1 -10 27 -11 66 -1 37 2 67 5 67
13 0 -2 105 -16 116 -8 6 -15 19 -15 28 0 9 -6 16 -12 17 -9 0 -9 2 -2 5 7 3
9 14 6 26 -3 12 -1 19 4 16 5 -4 10 6 11 20 13 147 13 153 1 146 -8 -5 -9 -2
-5 11 4 9 2 24 -4 31 -6 8 -9 21 -5 29 4 11 -1 15 -19 15 -30 0 -32 13 -4 41
11 11 18 23 15 26 -3 4 -1 12 6 20 13 17 9 22 -23 25 -18 2 -23 -1 -21 -15 4
-25 -18 -53 -29 -35 -5 9 -11 4 -18 -15 -15 -38 -22 -34 -10 5 5 18 9 35 9 37
0 2 7 1 15 -2 8 -4 17 -2 20 3 4 6 1 10 -6 10 -8 0 -6 6 4 18 23 26 22 52 -3
52 -13 0 -20 -7 -20 -19 0 -11 -4 -22 -8 -25 -4 -2 -7 11 -7 29 0 18 2 32 4
30 2 -3 12 0 23 6 20 11 50 -3 45 -21 -2 -8 3 -10 22 -10 12 0 4 51 -10 65 -5
5 -9 19 -9 32 0 13 -4 23 -9 23 -17 0 84 102 124 125 22 13 71 29 109 35 75
12 89 17 81 29 -9 16 45 30 87 23 52 -9 122 -4 240 17 5 0 6 -8 5 -20z m-1047
-429 c18 -23 30 -43 27 -46 -6 -7 -65 44 -78 67 -19 36 18 21 51 -21z m1380
-7 c0 -27 -21 -53 -43 -52 -27 1 -68 -11 -100 -29 -5 -2 -3 5 5 17 7 12 16 21
20 21 5 0 8 7 8 16 0 17 18 38 39 45 26 9 71 -3 71 -18z m-1454 -18 c14 -22
14 -30 1 -87 -9 -35 -19 -88 -22 -118 -4 -30 -13 -84 -21 -120 -8 -36 -14 -69
-14 -75 0 -5 -4 -3 -10 5 -16 26 -21 4 -10 -46 24 -102 23 -103 -16 -44 -24
36 -26 43 -14 65 11 20 10 28 -10 60 -25 40 -26 30 22 261 16 81 24 102 42
111 31 16 34 15 52 -12z m3199 -29 c40 -37 47 -77 33 -186 -14 -116 -7 -160
34 -206 31 -35 31 -37 19 -82 -14 -54 -114 -234 -170 -309 -21 -27 -44 -67
-51 -87 -15 -46 -60 -76 -116 -76 -43 0 -71 15 -75 40 -3 22 12 89 21 95 5 3
29 -5 55 -17 l45 -22 22 22 22 22 -32 6 c-22 4 -30 10 -24 18 5 6 12 19 15 28
6 16 4 16 -16 5 -12 -6 -26 -18 -30 -24 -14 -22 -45 -15 -49 10 -9 55 38 117
87 117 28 0 65 24 65 42 0 10 4 18 9 18 5 0 7 9 4 21 -5 16 -11 19 -32 14 -14
-4 -30 -13 -34 -21 -4 -8 -14 -14 -22 -14 -8 0 -19 -9 -25 -20 -6 -11 -16 -20
-22 -20 -14 0 -3 71 13 81 6 4 8 12 5 18 -4 6 -1 11 6 11 10 0 10 2 -1 9 -11
7 -11 14 2 42 30 69 37 95 36 141 -1 27 3 54 9 60 6 7 11 18 11 23 1 6 3 24 6
40 3 17 7 52 9 79 2 26 8 51 14 55 6 3 13 18 17 33 5 18 18 31 43 42 51 21 67
20 97 -8z m-2832 -16 c-3 -12 -8 -19 -11 -16 -5 6 5 36 12 36 2 0 2 -9 -1 -20z
m-269 -37 c44 -60 53 -93 31 -109 -13 -10 -14 -14 -3 -20 7 -5 21 -7 31 -6 22
4 22 -16 1 -40 -16 -16 -16 -23 -1 -85 23 -99 25 -138 7 -138 -8 -1 -22 4 -30
11 -8 6 -34 14 -56 17 l-41 5 13 -44 c7 -25 11 -51 8 -58 -3 -9 3 -17 15 -21
15 -4 21 -15 21 -36 0 -39 -12 -37 -46 8 -35 45 -62 102 -79 165 -12 42 -11
52 11 115 29 82 28 76 50 191 9 50 21 92 26 92 4 0 23 -21 42 -47z m40 32 c3
-8 1 -15 -4 -15 -6 0 -10 7 -10 15 0 8 2 15 4 15 2 0 6 -7 10 -15z m351 -3
c-5 -4 -10 -13 -10 -21 0 -8 -5 -16 -11 -18 -7 -2 -10 6 -7 22 3 15 12 25 22
25 9 0 12 -3 6 -8z m-236 -459 c0 -25 -1 -25 -8 -8 -5 11 -7 23 -4 28 8 14 13
7 12 -20z m964 2 c7 -16 3 -20 -34 -29 -18 -4 -31 -1 -39 9 -10 11 -6 16 22
24 45 13 45 13 51 -4z m-1247 -62 c-7 -7 -26 7 -26 19 0 6 6 6 15 -2 9 -7 13
-15 11 -17z m209 -33 c3 -5 17 -10 31 -10 29 0 30 -9 3 -38 -20 -22 -21 -22
-49 -5 -16 9 -32 24 -35 32 -9 24 36 43 50 21z m-170 -16 c13 -13 13 -19 3
-32 -10 -12 -10 -14 0 -8 7 4 12 1 12 -8 0 -25 -20 -19 -30 10 -10 26 -13 54
-6 54 3 0 12 -7 21 -16z m272 -151 c17 -36 -1 -55 -67 -72 -72 -19 -130 -1
-130 40 0 23 11 29 57 31 21 1 52 7 68 14 44 19 59 17 72 -13z m300 -125 c-7
-4 -18 0 -24 9 -7 9 -13 13 -13 8 0 -16 -11 2 -20 34 l-9 32 39 -38 c25 -25
34 -40 27 -45z m3 62 c0 -5 -2 -10 -4 -10 -3 0 -8 5 -11 10 -3 6 -1 10 4 10 6
0 11 -4 11 -10z m508 -163 c-10 -20 -10 -21 6 -8 16 13 16 12 5 -12 -22 -48
-38 -26 -23 30 4 13 10 20 15 17 5 -3 4 -15 -3 -27z m66 -142 c-4 -8 -10 -12
-15 -9 -11 6 -2 24 11 24 5 0 7 -7 4 -15z m36 -94 c-11 -22 -35 -19 -44 5 -5
12 -2 12 15 3 18 -9 21 -7 26 12 4 13 8 18 10 12 3 -7 -1 -21 -7 -32z m30 -3
c0 -16 -3 -19 -11 -11 -6 6 -8 16 -5 22 11 17 16 13 16 -11z m-40 -122 c0 -3
-4 -8 -10 -11 -5 -3 -10 -1 -10 4 0 6 5 11 10 11 6 0 10 -2 10 -4z m-52 -81
c-3 -3 -9 2 -12 12 -6 14 -5 15 5 6 7 -7 10 -15 7 -18z m52 -65 c0 -10 -4 -21
-9 -25 -15 -8 -24 14 -12 29 6 7 7 17 3 21 -4 5 -1 5 6 1 6 -4 12 -16 12 -26z
m38 -25 c-3 -3 -9 2 -12 12 -6 14 -5 15 5 6 7 -7 10 -15 7 -18z m30 -27 c15
-15 16 -48 2 -48 -9 0 -14 14 -11 33 0 4 -3 7 -9 7 -5 0 -10 5 -10 10 0 14 13
13 28 -2z m983 -31 c-10 -9 -11 -8 -5 6 3 10 9 15 12 12 3 -3 0 -11 -7 -18z
m-906 -7 c-3 -4 -1 -10 4 -12 5 -1 7 -15 4 -30 -3 -15 -9 -25 -15 -22 -5 3
-16 0 -25 -8 -12 -9 -15 -9 -9 0 5 8 -2 16 -19 22 -14 5 -24 14 -20 20 3 5 12
7 20 3 10 -3 15 1 15 12 0 11 5 15 15 11 9 -3 15 0 15 10 0 8 5 12 10 9 6 -4
8 -10 5 -15z m555 -145 c-7 -8 -18 -15 -24 -15 -6 0 -2 7 8 15 25 19 32 19 16
0z m-1212 -193 c2 -7 -2 -10 -12 -6 -9 3 -16 11 -16 16 0 13 23 5 28 -10z
m1265 -136 c4 -10 0 -12 -15 -8 -15 4 -17 7 -6 13 17 11 15 11 21 -5z m-818
-126 c3 -5 1 -10 -4 -10 -6 0 -11 5 -11 10 0 6 2 10 4 10 3 0 8 -4 11 -10z"/>
<path d="M4735 9050 c-3 -5 1 -10 10 -10 9 0 13 5 10 10 -3 6 -8 10 -10 10 -2
0 -7 -4 -10 -10z"/>
<path d="M4682 8939 c-7 -10 -8 -19 -3 -19 13 0 33 28 23 33 -4 3 -13 -3 -20
-14z"/>
<path d="M4971 8917 c2 -1 12 -9 22 -16 14 -12 17 -11 17 3 0 10 -8 16 -22 16
-12 0 -19 -1 -17 -3z"/>
<path d="M5728 8896 c-17 -23 -17 -24 2 -19 11 3 26 0 34 -6 11 -9 16 -9 21
-1 4 7 17 9 30 6 15 -4 25 -1 29 9 4 11 -2 15 -25 15 -17 0 -32 -6 -35 -15 -6
-14 -8 -13 -19 2 -10 13 -10 20 -2 25 8 5 7 8 -3 8 -8 -1 -23 -11 -32 -24z"/>
<path d="M4700 8890 c0 -11 4 -20 9 -20 13 0 32 26 24 33 -13 14 -33 6 -33
-13z"/>
<path d="M5608 8878 c8 -8 17 -8 34 0 22 10 21 11 -11 11 -27 1 -32 -2 -23
-11z"/>
<path d="M4776 8864 c-22 -22 -20 -25 9 -12 14 6 25 15 25 20 0 13 -17 9 -34
-8z"/>
<path d="M4700 8850 c0 -5 5 -10 11 -10 5 0 7 5 4 10 -3 6 -8 10 -11 10 -2 0
-4 -4 -4 -10z"/>
<path d="M4604 8769 c-3 -6 -2 -15 3 -20 5 -5 9 -1 9 11 0 23 -2 24 -12 9z"/>
<path d="M4815 8730 c-3 -6 1 -7 9 -4 18 7 21 14 7 14 -6 0 -13 -4 -16 -10z"/>
<path d="M5797 8503 c-4 -3 -7 -11 -7 -17 0 -6 5 -5 12 2 6 6 9 14 7 17 -3 3
-9 2 -12 -2z"/>
<path d="M5777 8413 c-4 -3 -7 -11 -7 -17 0 -6 5 -5 12 2 6 6 9 14 7 17 -3 3
-9 2 -12 -2z"/>
<path d="M5940 8170 c0 -5 -15 -10 -33 -10 -38 0 -63 -23 -89 -82 -19 -42 -41
-56 -80 -53 -24 2 -28 -2 -28 -25 0 -17 7 -30 17 -34 15 -6 15 -8 3 -16 -12
-8 -11 -10 5 -11 13 0 15 -2 6 -6 -10 -4 -5 -10 15 -20 16 -7 21 -11 12 -8
-11 2 -18 -1 -18 -10 0 -23 22 -29 36 -11 8 11 18 15 26 10 8 -5 6 2 -4 18
-20 31 -14 61 11 54 9 -3 28 -8 43 -12 24 -5 26 -9 17 -27 -10 -17 -7 -23 12
-38 13 -10 29 -19 35 -19 5 0 30 -10 55 -22 50 -24 172 -58 209 -57 23 0 22 1
-9 14 -18 8 -43 16 -55 16 -19 1 -19 2 -2 6 18 5 18 6 -5 19 -13 7 -19 13 -13
14 7 0 9 11 6 25 l-4 25 123 -5 c68 -2 138 -6 154 -8 47 -5 127 -46 167 -85
21 -20 40 -33 44 -29 3 3 -7 17 -22 31 -16 14 -24 26 -17 26 15 0 5 38 -16 53
-9 7 -16 19 -16 27 0 8 -16 25 -35 38 -19 13 -34 30 -34 38 1 7 -2 12 -6 9 -4
-3 -24 2 -43 10 -26 11 -43 12 -61 5 -14 -5 -33 -7 -43 -5 -71 18 -212 45
-230 45 -12 0 -26 8 -32 18 -5 9 -12 16 -15 15 -15 -7 -26 -2 -20 9 5 7 3 8
-7 2 -19 -12 -39 -14 -39 -4 0 8 78 40 97 40 7 0 15 5 19 11 4 7 0 9 -12 6
-11 -3 -36 -8 -57 -12 -33 -5 -39 -3 -44 14 -5 21 -23 29 -23 11z m-95 -140
c-10 -11 -23 -20 -28 -20 -6 0 -2 9 8 20 10 11 23 20 28 20 6 0 2 -9 -8 -20z
m330 -30 c-3 -5 -11 -10 -16 -10 -6 0 -7 5 -4 10 3 6 11 10 16 10 6 0 7 -4 4
-10z m-85 -160 c13 -9 13 -10 0 -10 -8 0 -22 5 -30 10 -13 9 -13 10 0 10 8 0
22 -5 30 -10z"/>
<path d="M6371 8069 c63 -58 69 -63 69 -48 0 8 -17 25 -38 39 -51 34 -62 37
-31 9z"/>
<path d="M5586 8052 c-2 -4 -1 -14 5 -22 7 -12 9 -10 9 8 0 23 -5 28 -14 14z"/>
<path d="M5600 7980 c0 -12 28 -25 36 -17 3 3 -4 10 -15 17 -15 7 -21 7 -21 0z"/>
<path d="M5693 7901 c1 -19 7 -36 14 -38 7 -3 11 4 10 16 -1 12 -4 21 -8 21
-4 0 -10 8 -13 18 -2 9 -4 2 -3 -17z"/>
<path d="M5750 7820 c0 -5 5 -10 10 -10 6 0 10 5 10 10 0 6 -4 10 -10 10 -5 0
-10 -4 -10 -10z"/>
<path d="M6233 7783 c9 -9 20 -13 24 -9 4 4 1 11 -7 16 -25 16 -35 11 -17 -7z"/>
<path d="M6610 7750 c0 -5 5 -10 11 -10 5 0 7 5 4 10 -3 6 -8 10 -11 10 -2 0
-4 -4 -4 -10z"/>
<path d="M6630 7717 c0 -7 9 -20 20 -30 23 -19 27 -6 5 16 -8 8 -11 17 -8 21
4 3 1 6 -5 6 -7 0 -12 -6 -12 -13z"/>
<path d="M5685 7440 c-3 -5 -13 -10 -22 -10 -18 0 -73 -38 -73 -50 0 -5 28 -8
63 -6 59 3 127 -14 127 -31 -1 -20 -18 -32 -44 -30 -39 3 -43 -16 -7 -29 44
-17 119 -10 135 12 9 11 10 21 5 25 -6 3 -11 17 -11 30 -1 13 -6 30 -11 37
-15 19 -74 42 -108 42 -16 0 -29 5 -29 10 0 6 -4 10 -9 10 -6 0 -13 -4 -16
-10z"/>
<path d="M6060 7290 c0 -5 5 -10 10 -10 6 0 10 5 10 10 0 6 -4 10 -10 10 -5 0
-10 -4 -10 -10z"/>
<path d="M5380 7261 c0 -17 6 -21 30 -21 26 0 29 2 18 14 -7 8 -15 12 -17 10
-2 -2 -10 1 -18 7 -10 9 -13 7 -13 -10z"/>
<path d="M6084 7269 c-2 -4 31 -47 74 -97 110 -128 107 -125 127 -175 20 -54
19 -207 -3 -215 -7 -2 -10 -7 -8 -11 3 -4 1 -24 -4 -44 -10 -45 2 -57 20 -19
33 71 50 140 50 201 0 64 -15 141 -29 151 -4 3 -27 32 -51 65 -24 33 -62 78
-84 100 -23 21 -40 43 -39 47 3 9 -47 6 -53 -3z"/>
<path d="M5510 7222 c0 -10 5 -10 23 -1 33 17 33 19 4 17 -15 -1 -27 -8 -27
-16z"/>
<path d="M5773 7158 l-23 -11 27 -23 c18 -15 31 -20 37 -14 13 13 29 13 21 0
-6 -10 37 -25 54 -18 16 5 -14 37 -39 41 -13 2 -28 11 -35 20 -14 19 -13 19
-42 5z"/>
<path d="M5910 7110 c0 -6 8 -14 18 -17 9 -4 20 -11 24 -17 12 -19 20 2 8 23
-11 21 -50 30 -50 11z"/>
<path d="M5910 7073 c0 -22 26 -32 56 -24 l29 9 -30 1 c-17 1 -36 6 -43 13 -8
8 -12 8 -12 1z"/>
<path d="M5866 6922 c-3 -3 -36 -7 -73 -8 -38 -2 -88 -6 -113 -9 -25 -3 -71
-8 -103 -12 -32 -3 -60 -10 -63 -14 -5 -9 28 -12 116 -11 25 0 54 -5 66 -13
11 -7 33 -11 49 -8 18 4 32 1 39 -9 6 -8 25 -14 41 -14 28 1 30 -1 27 -34 l-4
-35 26 24 c25 24 26 24 26 3 0 -29 -5 -31 -93 -33 -42 -1 -74 -6 -71 -10 3 -5
16 -9 30 -9 13 0 24 -4 24 -10 0 -5 7 -7 15 -4 8 4 27 -2 42 -11 18 -12 28
-14 31 -7 2 8 12 7 32 -3 39 -20 40 -20 90 25 24 22 49 40 56 40 23 0 114 81
114 102 0 17 3 18 15 8 13 -11 15 -8 13 14 -1 14 -6 27 -10 27 -25 4 -46 1
-72 -10 -17 -7 -45 -9 -70 -5 -22 4 -50 7 -61 7 -11 1 -22 4 -25 7 -7 9 -87
19 -94 12z"/>
<path d="M5495 6900 c4 -6 11 -8 16 -5 14 9 11 15 -7 15 -8 0 -12 -5 -9 -10z"/>
<path d="M5295 6740 c-11 -17 5 -32 21 -19 7 6 11 15 8 20 -7 12 -21 11 -29
-1z"/>
<path d="M5690 6740 c0 -5 7 -10 16 -10 8 0 12 5 9 10 -3 6 -10 10 -16 10 -5
0 -9 -4 -9 -10z"/>
<path d="M5633 6733 c9 -2 25 -2 35 0 9 3 1 5 -18 5 -19 0 -27 -2 -17 -5z"/>
<path d="M5501 6419 c-13 -10 -19 -19 -15 -19 13 1 48 29 43 34 -2 2 -15 -4
-28 -15z"/>
<path d="M5426 6417 c3 -10 9 -15 12 -12 3 3 0 11 -7 18 -10 9 -11 8 -5 -6z"/>
<path d="M5055 6249 c-4 -6 -5 -12 -2 -15 2 -3 7 2 10 11 7 17 1 20 -8 4z"/>
<path d="M5158 6103 c7 -3 16 -2 19 1 4 3 -2 6 -13 5 -11 0 -14 -3 -6 -6z"/>
<path d="M6142 6087 c-9 -11 -10 -17 -2 -22 15 -9 23 -1 18 21 -3 15 -4 16
-16 1z"/>
<path d="M6050 6038 c0 -9 5 -20 10 -23 13 -8 13 5 0 25 -8 13 -10 13 -10 -2z"/>
<path d="M5222 5971 c-8 -5 -10 -15 -5 -29 7 -17 11 -18 24 -8 14 9 15 15 5
28 -7 10 -17 13 -24 9z"/>
<path d="M5366 5891 c-3 -5 0 -11 7 -14 8 -3 14 1 14 9 0 16 -13 19 -21 5z"/>
<path d="M5796 9421 c-4 -7 -5 -15 -2 -18 9 -9 19 4 14 18 -4 11 -6 11 -12 0z"/>
<path d="M4930 8176 c0 -7 72 -47 77 -42 3 2 -13 14 -36 26 -23 11 -41 19 -41
16z"/>
<path d="M4835 7940 c-16 -7 -17 -9 -3 -9 9 -1 20 4 23 9 7 11 7 11 -20 0z"/>
<path d="M4878 7943 c7 -3 16 -2 19 1 4 3 -2 6 -13 5 -11 0 -14 -3 -6 -6z"/>
<path d="M4325 7780 c3 -5 3 -16 -2 -22 -4 -7 -9 -22 -10 -32 -3 -18 -2 -19
16 -2 22 20 25 66 4 66 -8 0 -11 -4 -8 -10z"/>
<path d="M4621 7764 c0 -11 3 -14 6 -6 3 7 2 16 -1 19 -3 4 -6 -2 -5 -13z"/>
<path d="M4321 7610 c-16 -9 -6 -30 15 -30 15 0 20 25 6 34 -4 2 -14 1 -21 -4z"/>
<path d="M4310 7521 c0 -5 9 -7 20 -4 11 3 20 7 20 9 0 2 -9 4 -20 4 -11 0
-20 -4 -20 -9z"/>
<path d="M4670 7163 c-81 -88 -110 -148 -110 -231 0 -58 23 -142 36 -129 3 3
1 14 -5 25 -13 25 -14 101 -2 121 5 7 14 10 20 7 7 -4 10 0 9 11 -3 45 2 65
17 59 11 -4 14 1 13 19 -2 27 17 69 47 103 30 33 58 82 46 82 -5 0 -37 -30
-71 -67z"/>
<path d="M4410 6560 c0 -5 7 -10 15 -10 8 0 15 5 15 10 0 6 -7 10 -15 10 -8 0
-15 -4 -15 -10z"/>
<path d="M4654 6556 c-7 -19 3 -36 22 -36 9 0 13 8 11 22 -5 27 -25 36 -33 14z"/>
<path d="M6940 7460 c0 -5 12 -10 26 -10 14 0 23 4 19 10 -3 6 -15 10 -26 10
-10 0 -19 -4 -19 -10z"/>
<path d="M7020 6970 c0 -5 -7 -10 -16 -10 -10 0 -14 -6 -11 -15 4 -8 -7 -27
-25 -45 -21 -21 -28 -34 -21 -41 13 -13 83 74 83 102 0 11 -2 19 -5 19 -3 0
-5 -4 -5 -10z"/>
<path d="M6820 6710 c-13 -11 -19 -20 -13 -20 14 0 49 28 42 34 -3 3 -16 -3
-29 -14z"/>
<path d="M4496 5522 c-3 -5 1 -15 9 -22 16 -14 20 -3 6 19 -5 8 -11 9 -15 3z"/>
<path d="M4596 5428 c3 -5 10 -6 15 -3 13 9 11 12 -6 12 -8 0 -12 -4 -9 -9z"/>
<path d="M5767 5416 c-4 -10 -1 -13 9 -9 7 3 14 9 14 14 0 14 -17 10 -23 -5z"/>
<path d="M5800 5375 c7 -9 15 -13 17 -11 7 7 -7 26 -19 26 -6 0 -6 -6 2 -15z"/>
<path d="M5490 5365 c-8 -9 -8 -15 -2 -15 12 0 26 19 19 26 -2 2 -10 -2 -17
-11z"/>
<path d="M4450 5356 c0 -4 7 -14 15 -22 8 -9 15 -11 15 -6 0 5 -7 15 -15 22
-8 7 -15 9 -15 6z"/>
<path d="M5685 5340 c3 -5 12 -7 20 -3 21 7 19 13 -6 13 -11 0 -18 -4 -14 -10z"/>
<path d="M4860 5220 c0 -5 5 -10 11 -10 5 0 7 5 4 10 -3 6 -8 10 -11 10 -2 0
-4 -4 -4 -10z"/>
<path d="M5055 5216 c-11 -8 -25 -12 -31 -9 -7 2 -15 -1 -19 -7 -5 -8 1 -11
16 -9 37 4 90 -11 83 -23 -5 -7 0 -9 14 -6 12 4 25 2 28 -3 3 -5 13 -9 22 -8
13 0 12 3 -5 11 -13 6 -23 16 -23 22 0 10 -49 46 -62 46 -2 0 -13 -6 -23 -14z"/>
<path d="M3740 5153 c-226 -22 -225 -21 -270 -56 -110 -84 -85 -76 -290 -99
l-115 -12 45 -12 c119 -30 147 -34 241 -34 116 0 139 9 191 72 20 24 62 59 94
78 57 35 60 35 171 35 108 0 114 1 111 20 -4 25 -5 25 -178 8z"/>
<path d="M4930 5153 c1 -11 70 -45 70 -34 0 6 -17 17 -62 39 -5 2 -8 0 -8 -5z"/>
<path d="M6550 5090 c0 -11 4 -20 10 -20 5 0 43 -23 85 -51 41 -27 98 -57 127
-65 28 -9 68 -27 89 -41 43 -28 156 -63 204 -63 22 0 41 10 65 35 37 38 89 60
120 50 26 -8 25 -1 -2 25 -27 25 -53 25 -148 0 -109 -29 -137 -26 -226 20 -42
23 -113 51 -158 65 -103 30 -132 41 -141 54 -10 18 -25 12 -25 -9z"/>
<path d="M3785 5020 c-55 -12 -99 -42 -179 -123 l-79 -80 -106 5 c-86 4 -127
12 -221 43 -109 35 -120 37 -205 31 -133 -9 -285 -39 -415 -81 -103 -34 -125
-38 -211 -37 -63 1 -118 8 -160 21 -35 11 -77 21 -94 23 l-30 3 -3 -1470 c-1
-808 0 -1484 3 -1500 3 -18 25 -51 53 -80 45 -47 100 -127 116 -169 3 -11 9
-56 12 -100 2 -45 7 -91 9 -102 15 -68 -26 -272 -59 -296 -5 -3 -9 -28 -8 -55
1 -26 -6 -86 -14 -133 -9 -47 -20 -110 -25 -140 -9 -55 -20 -96 -65 -242 -22
-72 -24 -93 -24 -308 l0 -230 84 0 83 0 7 53 c4 28 34 194 67 367 33 173 65
342 71 375 6 33 14 65 18 70 4 6 11 31 14 57 4 26 12 50 17 54 5 3 31 -5 57
-18 51 -25 113 -27 552 -20 l175 3 104 -36 c57 -20 143 -56 191 -80 92 -46
268 -102 485 -155 392 -96 449 -100 1620 -100 452 -1 662 3 810 14 110 8 270
18 355 21 85 4 198 15 250 25 52 10 146 21 209 25 145 7 190 19 240 61 30 27
44 50 61 102 12 37 31 75 42 84 27 24 85 39 203 52 l100 11 0 1862 0 1862 -29
24 c-94 81 -174 85 -302 17 -104 -55 -136 -52 -208 18 -28 27 -61 55 -73 61
-52 27 -140 2 -192 -53 -57 -60 -115 -56 -287 24 -139 64 -181 86 -225 121
-47 37 -66 36 -87 -2 -9 -17 -53 -87 -97 -156 -116 -181 -114 -178 -125 -250
-5 -37 -17 -74 -27 -86 -10 -12 -35 -40 -55 -62 -21 -23 -67 -81 -103 -129
-92 -124 -121 -161 -189 -241 -87 -103 -330 -339 -395 -382 -31 -21 -73 -52
-94 -70 -20 -18 -43 -33 -51 -33 -8 0 -36 18 -63 39 -26 21 -92 74 -145 118
-53 43 -122 98 -154 123 -401 311 -466 374 -668 650 -26 36 -68 91 -94 122
-49 58 -68 89 -120 188 -23 44 -93 174 -141 260 -4 8 -21 16 -37 16 -16 1 -49
6 -74 11 -25 5 -58 6 -75 3z m-110 -1680 c-3 -5 -14 -10 -23 -9 -14 0 -13 2 3
9 27 11 27 11 20 0z m197 -16 c51 -9 100 -20 108 -26 11 -7 8 -8 -10 -3 -27 6
-127 22 -225 35 l-60 7 47 2 c27 0 90 -6 140 -15z m-452 -19 c0 -2 -10 -10
-22 -16 -21 -11 -22 -11 -9 4 13 16 31 23 31 12z m3298 -53 c34 -32 59 -62 55
-65 -3 -4 -29 16 -56 43 -27 28 -53 50 -57 50 -4 0 -10 7 -14 15 -10 27 8 16
72 -43z m-88 33 c0 -13 11 -19 32 -16 3 0 21 -19 40 -43 18 -24 48 -54 65 -66
18 -12 45 -33 60 -46 16 -13 37 -27 48 -30 10 -4 25 -12 32 -19 24 -24 178
-66 252 -69 39 -1 71 1 71 5 0 4 16 10 36 14 32 6 79 23 124 45 34 17 60 -147
58 -368 0 -75 3 -149 7 -164 4 -15 0 -92 -9 -170 -9 -79 -19 -185 -22 -235 -4
-57 -11 -93 -18 -93 -14 0 -36 -47 -36 -77 0 -13 -4 -23 -10 -23 -5 0 -10 -8
-10 -18 0 -10 -3 -22 -7 -26 -5 -4 -8 -11 -9 -14 0 -9 -41 -100 -59 -134 -8
-14 -15 -33 -15 -41 0 -9 -4 -17 -8 -19 -11 -4 -92 -147 -92 -163 0 -7 -7 -16
-15 -19 -9 -3 -23 -22 -31 -41 -8 -20 -26 -41 -39 -47 -14 -6 -25 -18 -25 -25
0 -8 -16 -30 -36 -48 -30 -29 -35 -39 -30 -61 6 -24 6 -25 -9 -10 -18 18 -35
21 -35 6 0 -14 -13 -12 -36 6 -18 15 -18 15 6 10 21 -4 16 3 -27 42 -91 83
-94 86 -105 71 -7 -10 -8 -8 -4 7 7 23 -22 57 -44 52 -7 -2 -15 3 -18 11 -3 8
0 11 7 7 17 -11 13 2 -6 22 -29 30 -77 85 -102 117 -12 17 -62 71 -110 120
-48 50 -96 105 -106 123 -19 32 -35 42 -35 21 0 -5 -4 -7 -10 -4 -5 3 -10 11
-10 16 0 6 5 7 10 4 21 -13 8 20 -27 68 -20 27 -39 45 -41 38 -2 -6 -8 -9 -13
-5 -11 6 -12 24 -1 23 20 -3 21 3 5 29 -10 15 -20 29 -24 32 -4 3 -21 33 -38
68 -17 34 -38 62 -46 62 -8 0 -15 5 -15 11 0 5 5 7 10 4 6 -3 10 0 10 8 0 8
-9 17 -20 20 -11 3 -20 10 -20 17 0 6 5 8 10 5 6 -3 10 1 10 9 0 8 -5 18 -12
22 -7 4 -8 3 -4 -4 4 -7 3 -12 -3 -12 -15 0 -26 23 -13 28 7 2 12 10 12 18 0
8 -6 11 -16 7 -12 -4 -14 0 -8 21 5 20 2 26 -10 26 -9 0 -16 5 -16 11 0 5 5 7
10 4 6 -3 10 1 10 9 0 9 -9 16 -20 16 -11 0 -20 5 -20 10 0 6 5 10 10 10 6 0
10 5 10 10 0 6 -7 10 -16 10 -11 0 -14 6 -9 20 4 13 2 20 -5 18 -7 -2 -15 3
-17 10 -3 6 0 12 6 12 6 0 11 7 11 15 0 9 -6 12 -15 9 -8 -4 -15 -2 -15 4 0 6
5 12 11 14 8 3 6 20 -7 55 -12 33 -22 49 -31 46 -7 -3 -13 0 -13 6 0 6 5 11
10 11 6 0 10 7 10 15 0 9 -6 12 -15 9 -20 -8 -19 6 3 22 16 13 16 13 -1 14
-10 0 -16 4 -13 8 3 5 6 37 7 71 2 75 17 95 57 80 34 -14 179 -13 215 0 15 6
27 8 27 5 0 -3 6 -2 13 3 6 4 20 9 29 10 25 4 110 53 133 76 27 28 56 91 44
95 -5 2 -9 10 -9 19 0 10 6 12 19 8 23 -7 58 34 40 46 -7 4 -8 12 -4 19 6 9 9
10 15 0 5 -9 9 -9 14 -1 4 6 2 11 -3 11 -6 0 -11 7 -11 15 0 8 7 15 15 15 10
0 15 7 13 18 -2 12 3 16 16 14 16 -3 18 -1 8 11 -6 7 -9 17 -5 20 11 12 23 8
23 -8z m-2902 -28 c8 -7 16 -7 20 -1 9 11 42 15 42 4 0 -4 9 -10 21 -13 17 -5
19 -9 10 -26 -22 -40 -31 -71 -21 -71 6 0 10 5 10 10 0 16 51 90 63 90 6 0 7
-27 2 -73 -6 -71 -5 -74 18 -90 14 -9 28 -13 32 -9 12 12 35 73 35 93 0 10 4
20 9 23 14 9 71 -15 71 -30 0 -8 7 -14 16 -14 9 0 18 -9 21 -20 5 -17 20 -25
44 -22 19 3 -1 -62 -27 -89 l-29 -31 50 30 c27 17 53 28 57 26 15 -9 8 -31
-17 -58 -59 -63 -67 -96 -24 -96 24 0 61 18 71 35 4 6 28 12 53 13 47 0 60
-12 24 -23 -11 -4 -18 -9 -15 -13 3 -3 -1 -13 -10 -23 -14 -16 -14 -19 1 -42
11 -17 22 -23 35 -20 15 4 20 0 20 -15 0 -12 5 -24 10 -27 13 -8 13 -45 -1
-45 -6 0 -3 -7 5 -16 19 -18 19 -20 6 -45 -9 -15 -7 -21 5 -25 18 -7 20 -35 4
-51 -9 -9 -5 -14 14 -18 33 -9 42 -33 21 -56 -20 -22 -57 -25 -76 -6 -15 14
-58 18 -58 5 0 -4 -11 -8 -25 -8 -16 0 -25 6 -25 15 0 8 -4 15 -10 15 -15 0
-50 -38 -50 -55 0 -21 -40 -98 -85 -164 -35 -53 -36 -56 -23 -90 8 -20 20 -36
28 -37 38 -1 80 -17 80 -29 0 -7 -12 -21 -27 -31 -17 -10 -23 -19 -15 -22 7
-2 10 -8 7 -12 -3 -5 4 -26 15 -47 11 -21 20 -40 20 -43 0 -9 -43 -4 -75 9
-16 7 -47 18 -68 24 -26 9 -42 21 -53 45 -14 30 -58 58 -89 56 -23 -2 -105
-29 -105 -35 0 -4 -60 -6 -132 -4 -139 3 -167 11 -248 68 -34 24 -38 22 -49
-20 -17 -60 -15 -75 10 -68 12 4 33 1 47 -6 20 -11 26 -11 29 -1 9 26 33 12
33 -20 l1 -33 23 29 c32 38 61 30 51 -14 -6 -28 -5 -30 24 -30 16 0 32 -4 35
-9 8 -12 49 -8 53 6 3 7 -3 9 -16 6 -16 -4 -21 -1 -21 15 0 28 35 38 64 18 16
-10 27 -11 34 -4 12 12 75 0 66 -13 -3 -5 0 -9 6 -9 6 0 13 7 16 15 8 19 30
20 37 1 3 -8 3 -25 0 -38 -6 -23 -5 -23 24 5 41 38 57 36 50 -7 -3 -18 -1 -38
5 -44 8 -8 6 -18 -6 -36 -19 -30 -29 -32 -47 -10 -9 11 -22 14 -47 9 l-35 -6
6 35 c3 20 2 36 -4 36 -5 0 -9 -11 -9 -24 0 -34 -61 -51 -87 -25 -9 9 -19 8
-39 -6 -14 -9 -24 -12 -20 -7 3 6 -2 13 -13 17 -11 3 -22 12 -25 20 -7 20 -41
19 -71 -1 -23 -15 -25 -15 -31 1 -5 12 -14 15 -35 11 -29 -6 -43 11 -33 39 4
8 1 15 -5 15 -6 0 -11 -6 -11 -13 0 -7 -6 -21 -13 -31 -18 -25 -61 -13 -54 15
3 10 1 22 -4 25 -5 3 -9 -6 -9 -20 0 -17 -5 -26 -16 -26 -13 0 -15 8 -12 35 2
19 0 35 -4 35 -13 0 -9 22 6 39 17 19 48 120 40 132 -14 23 -74 5 -74 -21 0
-26 -9 -29 -83 -36 -77 -6 -87 3 -61 52 18 33 18 34 -4 54 -24 23 -29 49 -9
52 6 0 17 2 22 3 6 2 20 3 33 4 12 0 25 9 29 19 3 9 14 26 24 37 16 18 17 28
9 80 -6 33 -7 87 -4 120 3 33 7 74 9 92 2 17 8 40 14 52 11 19 9 21 -18 21
-26 0 -31 -5 -40 -37 -6 -21 -11 -44 -11 -51 0 -21 -26 -24 -59 -8 -16 9 -41
16 -55 16 -33 0 -38 11 -20 45 11 22 12 30 2 36 -9 6 -9 11 2 24 13 16 37 16
105 -1 18 -5 18 -3 -4 15 -13 12 -34 21 -47 21 -26 0 -32 18 -12 38 8 8 18 7
40 -5 22 -14 30 -15 40 -5 16 16 -2 34 -34 36 -28 1 -35 28 -13 50 9 9 13 16
8 16 -4 1 3 10 16 21 13 11 21 22 18 26 -4 3 7 19 23 35 17 15 30 31 30 34 0
9 57 61 74 67 8 3 22 -1 33 -8 28 -22 32 -18 26 24 -6 47 19 64 47 32 16 -20
17 -20 17 10 0 17 6 34 13 39 15 9 59 -8 61 -24 5 -48 17 -64 45 -58 27 5 27
9 12 97 -2 16 2 20 22 20 14 0 32 6 40 14 10 10 15 10 18 2 3 -9 7 -9 18 0 8
6 25 8 39 5 14 -4 25 -2 25 3 0 11 39 3 58 -12z m367 -17 c3 -5 2 -10 -4 -10
-5 0 -13 5 -16 10 -3 6 -2 10 4 10 5 0 13 -4 16 -10z m-805 -4 c0 -2 -7 -6
-15 -10 -8 -3 -15 -1 -15 4 0 6 7 10 15 10 8 0 15 -2 15 -4z m3590 -118 c0
-10 -35 10 -66 38 -39 35 -27 36 21 2 25 -18 45 -36 45 -40z m-350 31 c0 -11
-4 -18 -10 -14 -5 3 -7 12 -3 20 7 21 13 19 13 -6z m-3385 -36 c-27 -19 -38
-16 -17 5 9 11 21 17 26 14 5 -3 1 -11 -9 -19z m3765 -9 c0 -8 -5 -12 -10 -9
-6 4 -8 11 -5 16 9 14 15 11 15 -7z m30 -14 c0 -5 -4 -10 -10 -10 -5 0 -10 5
-10 10 0 6 5 10 10 10 6 0 10 -4 10 -10z m444 -11 c-3 -5 -10 -7 -15 -3 -5 3
-7 10 -3 15 3 5 10 7 15 3 5 -3 7 -10 3 -15z m-410 2 c3 -4 26 -14 51 -21 25
-7 43 -15 41 -18 -8 -7 -96 21 -108 35 -7 9 -7 13 0 13 6 0 13 -4 16 -9z m376
-11 c0 -5 -4 -10 -9 -10 -5 0 -16 -3 -25 -6 -9 -3 -16 -1 -16 4 0 9 16 17 43
21 4 0 7 -3 7 -9z m-4188 -32 c-9 -9 -15 -9 -24 0 -9 9 -7 12 12 12 19 0 21
-3 12 -12z m3933 2 c3 -5 1 -10 -4 -10 -6 0 -11 5 -11 10 0 6 2 10 4 10 3 0 8
-4 11 -10z m195 6 c0 -11 -19 -15 -25 -6 -3 5 1 10 9 10 9 0 16 -2 16 -4z
m-160 -16 c0 -5 -4 -10 -10 -10 -5 0 -10 5 -10 10 0 6 5 10 10 10 6 0 10 -4
10 -10z m45 0 c3 -5 -1 -10 -9 -10 -9 0 -16 5 -16 10 0 6 4 10 9 10 6 0 13 -4
16 -10z m71 3 c-12 -12 -58 -15 -51 -3 3 5 18 10 32 10 15 0 23 -3 19 -7z
m-956 -77 c0 -3 -4 -8 -10 -11 -5 -3 -10 -1 -10 4 0 6 5 11 10 11 6 0 10 -2
10 -4z m-265 -16 c3 -5 1 -10 -4 -10 -6 0 -11 5 -11 10 0 6 2 10 4 10 3 0 8
-4 11 -10z m112 -6 c-3 -3 -12 -4 -19 -1 -8 3 -5 6 6 6 11 1 17 -2 13 -5z m40
0 c-3 -3 -12 -4 -19 -1 -8 3 -5 6 6 6 11 1 17 -2 13 -5z m-1773 -510 c3 -8 2
-12 -4 -9 -6 3 -10 10 -10 16 0 14 7 11 14 -7z m-169 -24 c3 -5 2 -10 -4 -10
-5 0 -13 5 -16 10 -3 6 -2 10 4 10 5 0 13 -4 16 -10z m96 -31 c30 -7 47 -14
40 -19 -11 -6 -88 14 -100 26 -6 6 3 5 60 -7z m-146 -169 c8 -13 -15 -13 -35
0 -12 8 -11 10 7 10 12 0 25 -4 28 -10z m1999 -26 c3 -8 2 -12 -4 -9 -6 3 -10
10 -10 16 0 14 7 11 14 -7z m-1958 -39 c-9 -9 -16 -13 -16 -8 0 12 22 34 28
28 2 -2 -3 -11 -12 -20z m2034 -99 c0 -16 -17 -2 -32 25 -27 46 -21 59 7 17
14 -20 25 -39 25 -42z m-2097 12 c2 -18 1 -40 -4 -48 -6 -11 -8 -6 -9 17 0 17
-5 35 -10 38 -6 4 -8 11 -5 16 12 18 23 9 28 -23z m2141 -84 c5 -14 4 -15 -9
-4 -17 14 -19 20 -6 20 5 0 12 -7 15 -16z m-2359 -14 c3 -5 1 -10 -4 -10 -6 0
-11 5 -11 10 0 6 2 10 4 10 3 0 8 -4 11 -10z m130 -10 c3 -5 18 -10 33 -11 15
0 36 -4 47 -9 15 -7 10 -9 -22 -8 -36 2 -108 37 -76 38 6 0 15 -4 18 -10z
m2255 -16 c0 -8 -4 -12 -10 -9 -5 3 -10 10 -10 16 0 5 5 9 10 9 6 0 10 -7 10
-16z m50 -74 c0 -5 -2 -10 -4 -10 -3 0 -8 5 -11 10 -3 6 -1 10 4 10 6 0 11 -4
11 -10z m-2703 -6 c-3 -3 -12 -4 -19 -1 -8 3 -5 6 6 6 11 1 17 -2 13 -5z m91
-11 c-10 -2 -26 -2 -35 0 -10 3 -2 5 17 5 19 0 27 -2 18 -5z m82 -12 c0 -5 -9
-7 -20 -4 -11 3 -20 7 -20 9 0 2 9 4 20 4 11 0 20 -4 20 -9z m140 0 c0 -17
-38 -23 -87 -14 l-48 8 65 6 c36 3 66 6 68 7 1 1 2 -2 2 -7z m2415 -1 c3 -5 1
-10 -4 -10 -6 0 -11 5 -11 10 0 6 2 10 4 10 3 0 8 -4 11 -10z m82 -106 c-6 -7
-67 55 -67 68 0 5 16 -7 36 -27 19 -20 33 -39 31 -41z m68 -72 c-6 -6 -45 33
-45 44 0 4 11 -3 25 -16 14 -13 23 -26 20 -28z m712 -24 c-3 -8 -6 -5 -6 6 -1
11 2 17 5 13 3 -3 4 -12 1 -19z m-677 -8 c13 -11 21 -22 18 -25 -2 -3 -15 6
-28 20 -28 30 -22 33 10 5z m50 -55 c7 -9 8 -15 2 -15 -5 0 -12 7 -16 15 -3 8
-4 15 -2 15 2 0 9 -7 16 -15z m590 -9 c0 -3 -4 -8 -10 -11 -5 -3 -10 -1 -10 4
0 6 5 11 10 11 6 0 10 -2 10 -4z m-560 -26 c0 -5 -2 -10 -4 -10 -3 0 -8 5 -11
10 -3 6 -1 10 4 10 6 0 11 -4 11 -10z m30 -31 c0 -6 -4 -7 -10 -4 -5 3 -10 11
-10 16 0 6 5 7 10 4 6 -3 10 -11 10 -16z m-4383 -21 c-3 -7 -5 -2 -5 12 0 14
2 19 5 13 2 -7 2 -19 0 -25z m4443 -48 c0 -5 -2 -10 -4 -10 -3 0 -8 5 -11 10
-3 6 -1 10 4 10 6 0 11 -4 11 -10z m380 6 c0 -3 -4 -8 -10 -11 -5 -3 -10 -1
-10 4 0 6 5 11 10 11 6 0 10 -2 10 -4z m-30 -41 c-7 -9 -15 -13 -17 -11 -7 7
7 26 19 26 6 0 6 -6 -2 -15z m-290 -15 c0 -5 -4 -10 -10 -10 -5 0 -10 5 -10
10 0 6 5 10 10 10 6 0 10 -4 10 -10z m230 -50 c0 -5 -5 -10 -11 -10 -5 0 -7 5
-4 10 3 6 8 10 11 10 2 0 4 -4 4 -10z m-165 -18 c-3 -3 -11 0 -18 7 -9 10 -8
11 6 5 10 -3 15 -9 12 -12z m135 -12 c0 -5 -4 -10 -10 -10 -5 0 -10 5 -10 10
0 6 5 10 10 10 6 0 10 -4 10 -10z"/>
<path d="M6650 3176 c0 -2 19 -15 43 -30 l42 -27 -35 31 c-30 27 -50 37 -50
26z"/>
<path d="M6740 3116 c0 -2 14 -14 30 -26 17 -12 30 -19 30 -16 0 2 -13 14 -30
26 -16 12 -30 19 -30 16z"/>
<path d="M6871 3032 c2 -23 18 -46 32 -48 9 -1 17 1 17 6 0 4 18 -1 41 -12 22
-10 51 -20 62 -20 40 -2 53 -24 34 -55 -15 -24 23 -14 47 12 22 24 25 24 52
10 16 -8 34 -15 41 -15 7 0 16 -6 20 -13 4 -8 18 -16 31 -19 16 -5 22 -2 22
11 0 10 8 27 18 38 21 25 62 39 62 22 0 -9 4 -8 15 1 13 11 15 7 15 -29 0 -49
-1 -44 10 -81 5 -18 5 -30 -1 -30 -5 0 -9 8 -10 18 0 10 -3 12 -6 4 -2 -6 -9
-10 -13 -7 -21 13 -17 -16 4 -33 22 -16 33 -62 16 -62 -3 0 -10 -8 -16 -17
-10 -16 -7 -18 20 -19 l31 0 -2 78 c-1 43 -2 79 -3 81 0 1 -2 28 -4 60 -4 73
-14 85 -62 68 -19 -7 -38 -10 -41 -7 -3 3 -17 -1 -32 -8 -28 -13 -176 -12
-195 2 -6 5 -23 8 -38 7 -16 0 -28 3 -28 7 0 4 -7 8 -15 8 -8 0 -39 11 -70 24
-30 14 -55 22 -54 18z m384 -102 c-3 -5 -11 -10 -16 -10 -6 0 -7 5 -4 10 3 6
11 10 16 10 6 0 7 -4 4 -10z"/>
<path d="M6930 2970 c0 -6 7 -10 15 -10 8 0 15 2 15 4 0 2 -7 6 -15 10 -8 3
-15 1 -15 -4z"/>
<path d="M6419 2925 c-52 -26 -90 -37 -178 -49 -61 -9 -115 -15 -119 -15 -4 1
-24 1 -44 0 -32 -1 -38 -5 -38 -22 0 -14 5 -19 14 -16 8 3 20 0 26 -8 13 -16
40 -9 40 10 0 15 27 28 41 19 5 -3 7 -10 4 -15 -13 -20 8 -30 22 -10 18 27 28
27 30 0 3 -30 49 -76 90 -90 34 -11 42 -24 21 -32 -10 -4 -10 -6 0 -6 6 -1 12
-7 12 -15 0 -16 27 -30 53 -27 9 1 20 -5 23 -13 3 -9 10 -14 15 -11 4 3 6 12
2 20 -3 9 0 22 7 30 8 9 8 20 2 31 -8 15 -10 15 -15 0 -9 -24 -32 -19 -53 11
-34 49 -82 93 -96 88 -19 -6 -49 20 -43 37 4 9 21 16 45 17 22 1 50 3 63 3 28
2 50 -4 60 -17 4 -6 11 -4 17 5 5 8 10 10 10 5 0 -15 50 -17 66 -4 11 9 14 7
14 -7 0 -16 -6 -19 -45 -16 -28 3 -45 0 -46 -7 -1 -6 -2 -17 -3 -23 -1 -7 -8
-12 -15 -10 -9 2 -11 -3 -7 -13 3 -9 6 -19 6 -21 0 -2 4 -4 10 -4 5 0 7 6 4
14 -4 11 0 13 18 9 13 -3 28 -10 34 -15 13 -9 24 2 48 50 17 33 13 78 -5 67
-5 -4 -9 -2 -9 4 0 5 5 11 11 13 15 5 2 68 -14 68 -7 -1 -42 -16 -78 -35z m39
-29 c0 -27 -17 -39 -37 -26 -18 11 -15 21 11 35 13 7 24 13 24 14 1 1 2 -10 2
-23z"/>
<path d="M6051 2772 c-1 -51 35 -191 55 -212 12 -12 14 -11 14 14 0 25 2 27
16 15 14 -12 16 -11 12 6 -2 13 -10 19 -24 17 -26 -3 -45 42 -63 153 l-9 50
-1 -43z"/>
<path d="M7018 2783 c-42 -29 -48 -48 -18 -56 19 -5 60 25 60 44 0 4 3 14 6
23 8 22 -5 19 -48 -11z"/>
<path d="M7136 2765 c8 -39 21 -52 35 -38 7 7 3 19 -16 39 l-25 29 6 -30z"/>
<path d="M7220 2774 c0 -8 5 -12 10 -9 6 4 8 11 5 16 -9 14 -15 11 -15 -7z"/>
<path d="M6526 2760 c-14 -5 -16 -9 -7 -14 7 -5 16 -17 20 -29 10 -27 19 -9
12 24 -5 21 -10 25 -25 19z"/>
<path d="M6090 2710 c0 -5 6 -10 14 -10 8 0 18 5 21 10 3 6 -3 10 -14 10 -12
0 -21 -4 -21 -10z"/>
<path d="M6500 2696 c0 -8 5 -18 10 -21 6 -3 10 1 10 9 0 8 -4 18 -10 21 -5 3
-10 -1 -10 -9z"/>
<path d="M7025 2691 c-6 -11 9 -23 19 -14 9 9 7 23 -3 23 -6 0 -12 -4 -16 -9z"/>
<path d="M7106 2679 c-19 -19 -19 -19 11 -19 47 0 66 9 52 26 -16 19 -40 17
-63 -7z"/>
<path d="M7255 2693 c-11 -3 -24 -10 -30 -15 -7 -7 -2 -9 15 -4 14 3 35 6 48
6 12 0 22 5 22 10 0 10 -20 11 -55 3z"/>
<path d="M6530 2683 c0 -5 5 -15 10 -23 8 -12 10 -11 10 8 0 12 -4 22 -10 22
-5 0 -10 -3 -10 -7z"/>
<path d="M6110 2671 c0 -5 5 -13 10 -16 6 -3 10 -2 10 4 0 5 -4 13 -10 16 -5
3 -10 2 -10 -4z"/>
<path d="M6968 2653 c-21 -11 -19 -12 25 -9 57 4 69 12 28 18 -16 2 -40 -1
-53 -9z"/>
<path d="M6166 2644 c-10 -25 -7 -31 20 -49 18 -11 29 -14 36 -7 6 6 17 8 24
5 9 -3 14 2 14 17 0 20 -2 21 -16 9 -14 -11 -18 -11 -28 1 -6 8 -18 21 -27 28
-14 10 -18 10 -23 -4z"/>
<path d="M6540 2620 c0 -11 4 -20 9 -20 5 0 7 9 4 20 -3 11 -7 20 -9 20 -2 0
-4 -9 -4 -20z"/>
<path d="M6452 2608 c-7 -7 -12 -15 -12 -19 0 -8 69 6 78 16 4 4 -4 4 -17 0
-14 -4 -26 -3 -30 4 -5 8 -10 8 -19 -1z"/>
<path d="M6340 2580 c0 -6 11 -8 28 -4 39 10 40 14 4 14 -18 0 -32 -5 -32 -10z"/>
<path d="M6256 2571 c-3 -4 6 -6 19 -3 14 2 25 6 25 8 0 8 -39 4 -44 -5z"/>
<path d="M6150 2403 c0 -10 5 -25 10 -33 8 -12 10 -9 10 12 0 15 -4 30 -10 33
-5 3 -10 -2 -10 -12z"/>
<path d="M6180 2340 c0 -11 4 -20 9 -20 5 0 7 9 4 20 -3 11 -7 20 -9 20 -2 0
-4 -9 -4 -20z"/>
<path d="M7363 2307 c-19 -7 -33 -18 -32 -27 0 -10 2 -11 6 -2 2 6 11 12 19
12 17 0 20 -95 4 -105 -6 -4 -7 -11 -4 -17 4 -6 -2 -6 -15 1 -11 7 -21 8 -21
4 -1 -4 -8 5 -16 21 -13 24 -14 30 -2 38 10 8 10 9 -3 5 -8 -3 -21 3 -27 14
-10 15 -21 18 -63 15 -65 -5 -80 -18 -44 -42 26 -17 28 -17 40 -1 21 29 41 19
64 -32 12 -27 32 -62 44 -77 38 -49 13 -149 -27 -109 -9 10 -20 14 -24 10 -4
-3 1 -12 11 -19 21 -16 22 -26 2 -26 -8 0 -15 -4 -15 -10 0 -5 5 -10 11 -10 6
0 8 -9 4 -21 -4 -12 -8 -28 -9 -35 -3 -18 -16 -30 -17 -16 -3 26 -4 31 -11 38
-4 3 -5 -3 -3 -15 l4 -22 -30 22 c-22 15 -29 27 -26 41 4 16 3 17 -9 7 -8 -6
-14 -8 -14 -4 0 4 -7 2 -15 -5 -13 -11 -14 -10 -10 2 4 10 -1 17 -13 20 -16 5
-19 0 -19 -34 0 -40 1 -41 56 -20 10 4 13 1 8 -10 -3 -9 -3 -19 1 -23 4 -4 7
-12 7 -18 0 -7 11 -11 23 -9 18 3 23 -1 21 -15 -2 -10 0 -24 4 -31 10 -15 0
-52 -14 -52 -5 0 -9 -7 -9 -15 0 -8 -4 -15 -10 -15 -5 0 -7 -6 -4 -13 3 -8 -2
-14 -11 -14 -13 0 -20 17 -16 40 1 5 -3 6 -9 2 -6 -4 -8 -15 -5 -26 4 -10 2
-19 -4 -19 -6 0 -9 -19 -8 -44 1 -24 6 -42 12 -39 13 5 66 87 92 143 12 25 38
81 58 125 36 77 63 144 70 175 2 8 9 38 15 65 23 96 36 206 23 204 -4 -1 -23
-7 -40 -12z"/>
<path d="M7280 2300 c0 -5 5 -10 10 -10 6 0 10 -7 10 -15 0 -8 5 -15 10 -15
14 0 13 23 -2 38 -15 15 -28 16 -28 2z"/>
<path d="M7085 2290 c-36 -4 -45 -8 -32 -14 21 -10 87 1 87 14 0 6 -1 9 -2 8
-2 0 -25 -4 -53 -8z"/>
<path d="M7175 2290 c3 -5 10 -10 16 -10 5 0 9 5 9 10 0 6 -7 10 -16 10 -8 0
-12 -4 -9 -10z"/>
<path d="M6216 2241 c9 -17 17 -31 19 -31 9 0 -13 54 -23 58 -7 2 -6 -8 4 -27z"/>
<path d="M7075 2241 c-3 -5 -1 -12 5 -16 5 -3 10 1 10 9 0 18 -6 21 -15 7z"/>
<path d="M6532 2226 c-35 -6 -63 -14 -62 -18 1 -23 -1 -27 -12 -23 -8 3 -13
-4 -13 -20 0 -19 5 -25 22 -25 52 0 73 31 31 45 -22 6 -22 7 6 15 24 8 34 5
58 -15 16 -14 33 -25 37 -25 6 0 31 58 31 73 0 9 -19 7 -98 -7z"/>
<path d="M6355 2210 c-11 -5 -32 -9 -48 -9 -27 -1 -27 -1 -11 -26 20 -31 37
-32 58 -2 15 22 16 22 31 3 19 -26 28 -16 16 18 -11 28 -15 29 -46 16z"/>
<path d="M6246 2192 c-7 -12 42 -105 88 -169 20 -28 36 -54 36 -59 0 -5 17
-30 38 -56 20 -25 48 -61 62 -79 14 -18 78 -87 143 -153 64 -66 117 -126 117
-132 0 -7 7 -14 15 -18 8 -3 15 -3 15 0 0 3 -7 12 -15 20 -8 9 -15 28 -15 43
0 15 -9 44 -20 65 -10 22 -17 42 -15 46 8 13 -18 28 -55 32 -37 3 -97 55 -156
134 -16 21 -37 48 -46 58 -10 11 -18 25 -18 32 0 6 -9 23 -21 38 -11 14 -18
30 -14 36 4 6 -1 7 -11 3 -11 -4 -15 -3 -11 4 4 6 4 13 -1 15 -4 1 -29 36 -56
76 -53 77 -52 76 -60 64z m434 -517 c5 3 11 1 14 -4 4 -5 2 -12 -4 -16 -14 -9
-38 17 -31 35 4 12 6 12 9 -3 2 -9 7 -15 12 -12z"/>
<path d="M6539 2156 c17 -21 51 -40 51 -29 0 16 -16 31 -40 38 -23 7 -24 6
-11 -9z"/>
<path d="M6390 2129 c0 -24 23 -21 28 4 2 10 -3 17 -12 17 -10 0 -16 -9 -16
-21z"/>
<path d="M7256 2061 c-3 -5 0 -13 7 -19 10 -8 13 -6 13 9 0 20 -11 25 -20 10z"/>
<path d="M6412 2048 c2 -6 10 -14 16 -16 7 -2 10 2 6 12 -7 18 -28 22 -22 4z"/>
<path d="M6660 1973 c0 -5 5 -15 10 -23 8 -12 10 -11 10 8 0 12 -4 22 -10 22
-5 0 -10 -3 -10 -7z"/>
<path d="M6520 1951 c-8 -6 -27 -7 -42 -4 -21 4 -28 2 -28 -11 0 -15 21 -22
45 -16 6 2 19 2 30 2 18 -1 34 13 35 31 0 10 -22 9 -40 -2z"/>
<path d="M6583 1913 c-18 -7 -16 -40 3 -47 30 -11 37 -6 19 14 -10 11 -13 20
-7 20 7 0 12 5 12 10 0 11 -7 12 -27 3z"/>
<path d="M7126 1794 c-7 -20 16 -50 32 -40 15 9 8 50 -9 54 -9 2 -19 -5 -23
-14z"/>
<path d="M6856 1423 c38 -38 77 -69 86 -70 11 -1 -2 15 -30 39 -26 23 -60 54
-76 69 -17 16 -34 29 -40 29 -5 0 22 -30 60 -67z"/>
<path d="M3590 3213 c0 -5 5 -15 10 -23 8 -12 10 -11 10 8 0 12 -4 22 -10 22
-5 0 -10 -3 -10 -7z"/>
<path d="M3731 3204 c0 -11 3 -14 6 -6 3 7 2 16 -1 19 -3 4 -6 -2 -5 -13z"/>
<path d="M3398 3118 c5 -5 16 -8 23 -6 8 3 3 7 -10 11 -17 4 -21 3 -13 -5z"/>
<path d="M3493 3103 c-11 -11 -22 -25 -24 -31 -2 -6 -10 -12 -18 -14 -7 -2
-27 -15 -45 -30 -17 -16 -34 -28 -39 -28 -14 0 -126 -123 -121 -132 3 -4 -1
-8 -9 -8 -8 0 -27 -23 -42 -51 -21 -41 -23 -50 -10 -45 9 3 23 6 30 6 17 0 58
66 50 80 -4 6 -2 9 3 8 5 -2 25 13 43 32 19 19 50 46 69 60 19 14 45 36 57 49
13 13 26 21 29 18 4 -3 23 2 43 12 30 16 133 30 151 21 3 -1 17 -4 32 -5 14
-2 53 -9 85 -15 32 -7 66 -13 76 -13 9 -1 17 -6 17 -11 0 -5 3 -7 6 -3 12 11
93 -53 143 -112 77 -93 109 -157 118 -236 4 -39 7 -78 6 -87 -3 -19 13 -23 36
-9 15 10 18 65 6 95 -11 26 7 50 41 55 25 4 22 6 -16 10 -51 7 -55 19 -11 41
17 8 29 20 26 27 -2 7 2 10 11 6 7 -3 14 0 14 7 0 10 -17 48 -26 59 -2 2 -22
-9 -45 -25 l-41 -28 -19 23 c-11 13 -19 30 -19 39 0 15 -15 33 -102 118 -21
21 -38 42 -38 48 0 6 14 23 32 38 18 14 29 30 25 34 -4 5 -18 -3 -30 -16 -44
-50 -55 -55 -77 -35 -42 38 -302 71 -351 44 -16 -8 -23 -7 -33 7 -12 16 -14
16 -33 -3z"/>
<path d="M3213 2995 c0 -8 4 -12 9 -9 5 3 6 10 3 15 -9 13 -12 11 -12 -6z"/>
<path d="M3696 2952 c-3 -6 -18 -13 -33 -17 -15 -3 -43 -13 -62 -22 -20 -8
-63 -17 -96 -19 -122 -9 -135 -13 -135 -41 0 -13 10 -15 68 -9 37 4 84 9 105
11 41 4 185 73 187 90 1 13 -27 19 -34 7z"/>
<path d="M3654 2881 c-87 -44 -91 -48 -98 -86 -18 -94 -18 -105 -2 -105 20 0
26 12 33 67 3 26 13 53 22 60 27 21 108 16 140 -8 23 -17 35 -19 62 -13 54 13
122 5 142 -18 16 -16 18 -28 12 -71 -12 -85 -13 -88 -47 -121 -51 -48 -60 -63
-65 -103 -8 -56 -20 -73 -53 -73 -17 0 -33 7 -39 18 -8 14 -12 15 -22 5 -20
-19 -56 -15 -72 7 -14 21 -14 21 -21 -2 -6 -21 -8 -21 -19 -7 -15 20 -83 13
-132 -13 -36 -20 -27 -24 60 -32 33 -3 74 -8 90 -11 17 -3 45 -8 62 -10 18 -2
46 -6 63 -10 35 -8 46 -6 42 6 -1 5 4 9 11 9 19 0 67 68 125 176 9 17 23 50
27 64 0 3 6 21 13 40 6 19 13 49 15 65 2 17 7 38 11 48 14 30 0 43 -65 61 -37
10 -89 35 -126 62 -35 24 -67 43 -71 43 -4 -1 -48 -22 -98 -48z"/>
<path d="M3375 2810 c4 -6 3 -16 -2 -23 -5 -7 -8 -34 -8 -62 2 -46 4 -50 25
-47 53 6 74 25 84 76 7 37 6 50 -5 57 -20 13 -102 11 -94 -1z"/>
<path d="M3656 2768 c-15 -47 -15 -86 -1 -98 21 -18 34 -3 46 50 11 48 12 45
-19 54 -14 5 -24 3 -26 -6z"/>
<path d="M3766 2743 c-3 -16 -8 -45 -12 -65 -5 -28 -14 -42 -40 -57 -19 -11
-34 -16 -34 -11 0 6 -18 10 -39 10 -31 0 -43 6 -60 28 -19 26 -20 26 -34 8
-12 -17 -20 -18 -71 -9 -31 6 -68 8 -81 5 -22 -4 -25 -10 -25 -45 0 -22 5 -57
12 -76 22 -71 41 -121 44 -121 14 0 72 35 68 41 -2 5 -11 6 -19 3 -7 -3 -23
-1 -34 5 l-20 11 22 33 c12 18 31 52 41 75 10 23 25 42 33 42 20 0 35 -48 31
-98 -2 -25 1 -41 7 -39 5 2 10 29 9 60 0 48 2 56 20 61 11 3 25 1 30 -3 12 -9
25 -10 98 -11 33 0 48 -5 52 -16 5 -13 9 -14 20 -5 13 11 55 9 75 -3 5 -3 14
0 20 8 9 11 7 15 -11 20 -13 3 -35 6 -51 6 -40 0 -51 32 -40 108 10 60 0 89
-11 35z"/>
<path d="M3846 2709 c-5 -38 -4 -54 6 -60 25 -17 37 -9 43 29 3 20 8 45 10 55
2 9 -3 17 -10 17 -7 0 -20 2 -28 6 -11 4 -16 -7 -21 -47z"/>
<path d="M3288 2703 c6 -2 18 -2 25 0 6 3 1 5 -13 5 -14 0 -19 -2 -12 -5z"/>
<path d="M4040 2700 c19 -13 30 -13 30 0 0 6 -10 10 -22 10 -19 0 -20 -2 -8
-10z"/>
<path d="M4010 2642 c0 -5 14 -12 31 -16 44 -8 55 -8 44 3 -15 14 -75 24 -75
13z"/>
<path d="M3258 2633 c6 -2 18 -2 25 0 6 3 1 5 -13 5 -14 0 -19 -2 -12 -5z"/>
<path d="M3310 2630 c8 -5 20 -10 25 -10 6 0 3 5 -5 10 -8 5 -19 10 -25 10 -5
0 -3 -5 5 -10z"/>
<path d="M4262 2593 c2 -10 11 -19 21 -21 16 -3 17 -1 5 17 -16 25 -31 27 -26
4z"/>
<path d="M3258 2593 c18 -2 45 -2 60 0 15 2 0 4 -33 4 -33 0 -45 -2 -27 -4z"/>
<path d="M4002 2595 c3 -3 27 -7 54 -10 34 -3 44 -2 34 5 -15 10 -98 14 -88 5z"/>
<path d="M3236 2562 c-2 -4 4 -9 15 -9 11 -1 17 2 14 8 -7 11 -22 12 -29 1z"/>
<path d="M4031 2556 c2 -2 18 -6 34 -10 22 -5 26 -4 15 4 -14 9 -59 15 -49 6z"/>
<path d="M3721 2530 c-1 -8 -4 -26 -7 -40 -5 -22 -4 -23 6 -7 6 10 9 28 7 40
-2 12 -5 15 -6 7z"/>
<path d="M3980 2529 c0 -5 9 -9 20 -9 11 0 20 2 20 4 0 2 -9 6 -20 9 -11 3
-20 1 -20 -4z"/>
<path d="M3243 2523 c9 -2 25 -2 35 0 9 3 1 5 -18 5 -19 0 -27 -2 -17 -5z"/>
<path d="M4045 2510 c27 -12 35 -12 35 0 0 6 -12 10 -27 9 -25 0 -26 -1 -8 -9z"/>
<path d="M3601 2484 c0 -11 3 -14 6 -6 3 7 2 16 -1 19 -3 4 -6 -2 -5 -13z"/>
<path d="M3971 2486 c2 -2 27 -6 54 -10 34 -4 43 -3 30 3 -19 9 -93 15 -84 7z"/>
<path d="M3955 2452 c28 -13 109 -22 99 -12 -5 5 -34 11 -64 15 -35 3 -48 2
-35 -3z"/>
<path d="M3917 2429 c7 -7 15 -10 18 -7 3 3 -2 9 -12 12 -14 6 -15 5 -6 -5z"/>
<path d="M3263 2423 c9 -2 23 -2 30 0 6 3 -1 5 -18 5 -16 0 -22 -2 -12 -5z"/>
<path d="M3323 2423 c9 -2 25 -2 35 0 9 3 1 5 -18 5 -19 0 -27 -2 -17 -5z"/>
<path d="M3910 2390 c8 -5 31 -9 50 -9 32 1 33 2 10 9 -14 4 -36 8 -50 9 -20
1 -22 -1 -10 -9z"/>
<path d="M3288 2371 c-14 -5 -15 -9 -3 -24 13 -18 14 -17 20 3 8 26 5 29 -17
21z"/>
<path d="M3340 2371 c0 -4 5 -23 11 -41 10 -27 13 -30 21 -16 5 10 5 23 -2 35
-8 16 -6 20 8 24 10 3 6 5 -10 6 -16 0 -28 -3 -28 -8z"/>
<path d="M3422 2362 c0 -9 -4 -28 -7 -42 -6 -20 -5 -23 5 -13 7 6 18 9 25 7 9
-4 13 5 12 28 -1 25 -6 34 -18 35 -10 1 -18 -5 -17 -15z"/>
<path d="M3510 2360 c0 -5 5 -10 11 -10 5 0 7 5 4 10 -3 6 -8 10 -11 10 -2 0
-4 -4 -4 -10z"/>
<path d="M3870 2360 c8 -5 31 -9 50 -9 32 1 33 2 10 9 -14 4 -36 8 -50 9 -20
1 -22 -1 -10 -9z"/>
<path d="M3180 2332 c0 -14 6 -22 16 -22 14 0 15 3 3 18 -7 9 -15 19 -16 21
-2 2 -3 -5 -3 -17z"/>
<path d="M3915 2320 c11 -5 29 -9 40 -9 l20 0 -20 9 c-11 5 -29 9 -40 9 l-20
0 20 -9z"/>
<path d="M3784 2275 c0 -25 0 -45 2 -45 1 0 12 14 24 30 18 25 19 34 10 45
-22 27 -35 16 -36 -30z"/>
<path d="M3567 2303 c-4 -3 -7 -11 -7 -17 0 -6 5 -5 12 2 6 6 9 14 7 17 -3 3
-9 2 -12 -2z"/>
<path d="M3100 2285 c0 -8 4 -15 9 -15 19 0 20 -33 1 -60 -26 -36 -26 -37 10
-35 79 4 76 3 54 19 -14 11 -19 26 -18 60 1 44 0 46 -28 46 -18 0 -28 -5 -28
-15z"/>
<path d="M3177 2288 c-5 -16 3 -48 12 -48 3 0 7 14 8 30 2 30 -11 42 -20 18z"/>
<path d="M3874 2283 c3 -8 6 -19 6 -25 0 -6 6 -6 15 2 21 17 19 27 -6 33 -15
4 -19 2 -15 -10z"/>
<path d="M3230 2250 c-22 -7 -21 -8 13 -9 23 -1 36 3 32 9 -7 11 -10 11 -45 0z"/>
<path d="M3962 2208 c-15 -60 -15 -63 8 -64 18 -1 20 5 20 52 0 65 -14 70 -28
12z"/>
<path d="M3540 2201 c0 -20 30 -33 57 -24 46 16 40 33 -11 33 -25 0 -46 -4
-46 -9z"/>
<path d="M4039 2159 c-11 -6 -11 -11 -1 -21 10 -10 15 -9 28 4 13 13 13 16 1
21 -7 3 -20 1 -28 -4z"/>
<path d="M4016 2104 c-21 -21 -20 -31 4 -38 11 -3 29 -9 40 -12 20 -5 20 -5 3
30 -20 40 -25 42 -47 20z"/>
<path d="M2830 4970 c-57 -24 -45 -24 55 -1 74 18 76 19 35 20 -25 0 -65 -9
-90 -19z"/>
<path d="M4554 4904 c8 -15 13 -31 10 -36 -3 -4 2 -5 11 -2 21 9 15 33 -13 52
-22 14 -22 14 -8 -14z"/>
<path d="M6080 4845 c-8 -8 -76 -74 -151 -147 -75 -73 -153 -159 -173 -190
-20 -32 -41 -58 -47 -58 -6 0 -8 -9 -4 -20 4 -11 2 -20 -4 -20 -6 0 -11 -9
-11 -20 0 -11 -3 -20 -8 -20 -6 0 -12 -90 -6 -90 2 0 191 254 274 370 46 63
101 136 123 163 36 43 41 66 7 32z"/>
<path d="M7400 4830 c21 -39 73 -50 127 -29 l28 12 -45 12 c-25 6 -62 14 -83
18 -34 5 -36 4 -27 -13z"/>
<path d="M4742 4497 c130 -128 178 -169 178 -149 0 12 -65 95 -108 138 -19 19
-62 50 -95 70 -34 20 -73 45 -87 56 -14 12 37 -40 112 -115z"/>
<path d="M5555 4300 c-3 -5 -2 -10 4 -10 5 0 13 5 16 10 3 6 2 10 -4 10 -5 0
-13 -4 -16 -10z"/>
<path d="M5103 4233 c-8 -20 43 -67 64 -59 8 3 12 2 8 -3 -3 -5 23 -26 57 -46
35 -20 70 -41 78 -46 8 -5 26 -15 40 -21 14 -7 36 -19 49 -27 29 -18 51 -23
51 -10 0 5 6 9 13 9 7 0 35 14 63 32 36 23 44 33 32 36 -10 2 -18 10 -18 19 0
10 -4 13 -12 7 -15 -11 -53 -10 -94 1 -16 5 -35 7 -42 6 -8 -1 -23 6 -35 16
-19 17 -20 17 -14 1 7 -20 -10 -20 -31 0 -12 10 -19 10 -38 -3 -16 -10 -23
-11 -22 -4 2 7 -12 17 -30 22 -24 7 -31 14 -27 26 3 8 3 12 -1 9 -8 -8 -34 16
-34 31 0 6 -3 11 -7 12 -5 0 -16 2 -26 4 -10 2 -21 -4 -24 -12z"/>
<path d="M5488 4153 c7 -3 16 -2 19 1 4 3 -2 6 -13 5 -11 0 -14 -3 -6 -6z"/>
<path d="M2081 754 c0 -11 3 -14 6 -6 3 7 2 16 -1 19 -3 4 -6 -2 -5 -13z"/>
</g>
</svg>
