<?xml version="1.0" standalone="no"?>
<!DOCTYPE svg PUBLIC "-//W3C//DTD SVG 20010904//EN"
 "http://www.w3.org/TR/2001/REC-SVG-20010904/DTD/svg10.dtd">
<svg version="1.0" xmlns="http://www.w3.org/2000/svg"
 width="1024.000000pt" height="1024.000000pt" viewBox="0 0 1024.000000 1024.000000"
 preserveAspectRatio="xMidYMid meet">

<g transform="translate(0.000000,1024.000000) scale(0.100000,-0.100000)"
fill="#000000" stroke="none">
<path d="M7550 10228 c-198 -86 -300 -139 -300 -155 0 -9 -6 -12 -18 -9 -10 4
-27 -1 -38 -9 -10 -8 -27 -15 -36 -15 -10 0 -18 -5 -18 -11 0 -5 -4 -7 -10 -4
-6 4 -7 -5 -4 -24 4 -19 1 -37 -10 -52 -10 -16 -16 -18 -16 -9 0 13 -2 13 -9
1 -8 -12 -11 -9 -16 12 -9 33 -35 35 -54 6 -10 -17 -15 -19 -21 -8 -7 11 -18
9 -59 -11 -28 -14 -49 -30 -47 -37 3 -6 -10 -16 -27 -22 -30 -10 -31 -10 -12
5 18 15 18 16 2 10 -10 -3 -23 -6 -28 -6 -6 0 -8 -4 -5 -9 3 -5 -5 -8 -18 -8
-33 0 -92 -21 -106 -38 -16 -19 1 -27 80 -40 52 -9 66 -15 69 -31 2 -10 0 -16
-4 -12 -5 4 -13 1 -19 -7 -6 -9 -26 -16 -43 -18 -18 -1 -33 -6 -33 -10 0 -14
-44 -25 -52 -13 -5 7 -8 5 -8 -6 0 -11 -8 -18 -20 -18 -11 0 -20 -5 -20 -11 0
-5 -4 -7 -10 -4 -5 3 -10 1 -10 -5 0 -6 -4 -9 -9 -6 -5 3 -14 -1 -21 -9 -7 -8
-16 -13 -20 -10 -5 3 -16 -2 -24 -11 -9 -8 -16 -12 -16 -8 0 4 -8 0 -18 -9
-10 -9 -33 -20 -51 -23 -22 -5 -30 -11 -27 -21 3 -8 1 -11 -4 -8 -6 3 -10 2
-10 -2 0 -5 -9 -10 -20 -11 -11 -1 -29 -3 -40 -4 -18 -2 -24 -9 -17 -24 3 -9
-32 -26 -42 -20 -5 3 -12 -1 -15 -10 -4 -11 -13 -14 -27 -11 -12 3 -22 0 -25
-8 -5 -12 -50 -35 -79 -39 -5 -1 -23 -7 -38 -14 -16 -7 -34 -12 -40 -12 -7 0
-19 -9 -27 -19 -7 -11 -17 -18 -21 -15 -4 2 -10 0 -14 -6 -3 -5 -14 -10 -25
-10 -10 0 -20 -6 -23 -14 -3 -8 -24 -17 -47 -21 -33 -6 -39 -10 -30 -20 9 -11
7 -13 -14 -9 -29 5 -92 -28 -88 -46 2 -7 -3 -10 -12 -7 -9 4 -22 0 -30 -8 -8
-8 -26 -15 -39 -15 -14 0 -28 -7 -31 -16 -3 -8 -10 -13 -15 -10 -13 8 -42 -4
-35 -15 8 -14 -5 -11 -37 8 -16 10 -32 25 -35 35 -3 10 -24 37 -48 60 -23 24
-46 57 -50 73 -7 29 -22 65 -55 135 -49 106 -169 185 -293 195 -35 2 -83 7
-108 11 -41 6 -47 4 -59 -19 -8 -14 -25 -27 -42 -31 -19 -4 -27 -10 -23 -19 5
-14 -19 -14 -203 -3 -22 1 -34 16 -13 16 16 0 12 17 -6 24 -9 3 -12 2 -9 -4 4
-7 -9 -9 -37 -6 -39 4 -41 3 -15 -7 15 -6 27 -14 27 -19 0 -14 -37 -9 -50 7
-13 15 -94 16 -118 1 -7 -4 -18 -3 -25 2 -14 12 -96 0 -106 -15 -3 -6 -18 -13
-33 -17 -16 -3 -28 -12 -28 -20 0 -7 -11 -19 -25 -26 -14 -7 -25 -18 -25 -25
0 -6 -18 -22 -40 -35 -23 -14 -49 -32 -59 -40 -22 -18 -91 -142 -91 -164 0 -8
-13 -45 -30 -81 -16 -36 -30 -72 -30 -80 0 -8 -5 -15 -11 -15 -6 0 -8 -8 -5
-18 4 -12 -4 -32 -23 -55 -17 -22 -31 -55 -36 -83 -3 -25 -12 -47 -20 -50 -18
-7 -85 -165 -85 -201 0 -16 -8 -61 -18 -99 -14 -52 -17 -84 -11 -124 4 -30 12
-91 18 -135 12 -88 29 -171 42 -196 16 -31 48 -165 51 -214 l3 -50 -42 -3
c-59 -4 -67 -23 -58 -133 5 -73 3 -94 -11 -125 -16 -34 -16 -38 0 -68 23 -43
92 -134 157 -207 30 -33 66 -74 80 -91 21 -25 35 -31 80 -36 30 -2 60 -9 67
-15 7 -5 19 -35 28 -65 21 -70 62 -146 104 -188 19 -20 37 -53 46 -86 19 -73
18 -93 -8 -111 -13 -8 -34 -37 -48 -63 -13 -27 -38 -71 -56 -99 -17 -27 -55
-88 -84 -135 -30 -47 -59 -90 -64 -97 -29 -33 -36 -43 -36 -51 0 -16 -35 -41
-116 -82 -113 -58 -173 -98 -238 -157 -32 -29 -62 -53 -68 -53 -21 0 -157 -70
-203 -105 -26 -20 -78 -56 -116 -81 -43 -27 -86 -66 -114 -102 -25 -32 -59
-69 -75 -80 -16 -12 -54 -59 -84 -105 -30 -45 -69 -95 -86 -112 -68 -64 -104
-154 -247 -610 -9 -27 -20 -55 -25 -62 -11 -14 -73 -33 -228 -70 -63 -15 -116
-31 -118 -35 -2 -4 -17 -8 -33 -8 -17 0 -28 -4 -25 -9 4 -5 2 -11 -3 -13 -10
-3 -13 -111 -12 -455 l1 -203 32 14 c203 85 198 85 142 -14 -42 -74 -71 -155
-93 -261 -4 -19 -11 -41 -15 -47 -9 -15 -27 -202 -26 -267 0 -27 6 -64 12 -81
10 -28 8 -35 -10 -59 -25 -31 -28 -69 -10 -126 10 -35 9 -42 -9 -62 -25 -27
-32 -117 -9 -117 25 0 28 -32 5 -56 l-22 -23 1 -1428 c1 -785 1 -1431 2 -1435
0 -5 1299 -8 2886 -8 l2886 0 -7 823 c-4 452 -10 826 -12 830 -3 4 -11 3 -19
-4 -21 -17 -30 -3 -10 16 9 9 21 13 26 10 7 -5 10 45 9 155 -1 150 -2 160 -17
147 -10 -8 -25 -12 -35 -8 -19 7 -24 25 -7 27 6 1 13 3 18 4 4 2 14 3 22 4 13
1 15 55 16 421 1 257 -2 395 -7 355 -11 -90 -15 -180 -8 -180 4 0 3 -19 -2
-42 -4 -24 -9 -68 -10 -98 -1 -30 -4 -44 -6 -30 -3 14 -10 28 -15 31 -7 4 -8
15 -3 25 13 30 16 56 6 50 -5 -4 -9 24 -9 64 0 38 3 72 7 74 4 3 5 29 4 58
-15 233 -8 297 31 282 22 -9 27 161 26 1041 -1 797 -5 915 -30 900 -15 -9 -30
4 -24 20 3 7 12 11 20 8 8 -3 14 0 14 5 0 6 -9 9 -19 7 -24 -4 -90 64 -121
124 -17 33 -21 62 -23 147 -2 92 -5 108 -21 120 -11 8 -28 12 -38 8 -27 -8
-55 12 -53 38 1 13 0 27 -3 31 -2 5 -5 41 -7 80 -1 40 -3 86 -4 104 -1 24 -10
39 -35 58 -44 34 -77 24 -83 -25 -4 -39 -8 -45 -23 -35 -33 20 -62 88 -126
295 -64 204 -147 307 -276 340 -24 6 -81 34 -128 61 -113 67 -105 63 -190 84
-41 10 -83 22 -94 27 -10 6 -56 16 -103 24 -73 11 -91 18 -127 49 -22 20 -61
50 -85 68 l-44 32 7 297 c7 321 4 357 -41 416 -13 18 -43 42 -66 54 -40 21
-54 22 -289 21 -137 -1 -248 2 -248 6 0 4 15 13 34 19 42 16 55 31 76 90 10
26 34 88 55 137 55 131 62 216 30 353 -31 129 -37 140 -77 144 -30 3 -33 7
-41 48 -4 25 -6 86 -3 135 8 136 -8 244 -68 445 -14 47 -26 93 -26 103 0 23
19 22 46 -4 28 -27 40 -19 55 34 13 44 13 70 0 75 -5 1 -6 14 -3 28 3 17 0 24
-9 22 -7 -2 -15 5 -17 16 -3 12 0 16 8 11 6 -4 19 0 28 8 9 8 28 18 40 22 22
6 23 5 17 -17 -4 -12 -13 -26 -19 -30 -7 -5 -5 -8 5 -8 18 0 33 -26 23 -41 -3
-5 2 -9 11 -9 10 0 13 -5 9 -11 -5 -9 1 -10 22 -5 31 8 46 24 37 39 -15 24 55
-7 77 -34 30 -35 40 -30 40 20 0 41 14 70 24 52 4 -6 16 -11 28 -11 17 0 18 2
8 15 -7 8 -18 15 -25 15 -7 0 -21 8 -32 18 -10 9 -13 13 -6 8 11 -7 13 -3 8
22 -5 31 3 39 38 33 4 0 6 5 5 11 -2 7 4 11 12 9 8 -2 27 -3 43 -3 15 0 27 -3
27 -7 0 -5 13 -11 29 -14 18 -4 36 -18 47 -36 25 -42 44 -47 44 -13 0 39 10
49 53 57 21 4 37 13 37 21 0 8 6 13 13 11 6 -1 12 7 12 18 0 11 4 23 9 27 6 4
5 12 -2 21 -10 12 -8 16 14 21 20 5 31 2 46 -13 19 -22 38 -27 38 -12 0 19 52
-4 79 -35 25 -28 31 -31 41 -18 7 7 9 14 4 14 -5 0 -2 6 7 13 9 7 19 24 23 40
4 17 13 27 25 27 10 0 24 7 31 15 7 8 16 12 21 9 5 -3 9 0 9 6 0 7 7 9 16 6 9
-3 12 -2 9 5 -4 6 3 7 19 3 40 -10 73 3 80 30 14 55 100 -12 113 -88 9 -56 19
-42 20 27 0 34 6 76 12 92 7 17 13 32 13 35 0 3 17 15 38 27 24 15 62 25 109
29 68 7 71 8 71 32 0 19 3 23 11 15 6 -6 17 -9 25 -6 7 2 19 -8 29 -26 8 -17
13 -31 10 -31 -4 0 1 -10 9 -22 9 -12 16 -30 16 -40 0 -9 5 -20 11 -23 7 -5 8
26 3 103 -6 106 -6 111 16 128 12 11 28 25 35 31 7 7 31 15 54 18 22 2 57 14
78 25 38 20 63 14 63 -16 0 -8 8 -22 18 -32 18 -18 48 -77 78 -152 16 -40 40
-58 57 -41 10 10 -2 73 -25 128 -6 15 -12 30 -13 33 -8 24 -21 47 -32 59 -18
17 -13 82 7 91 8 4 40 18 70 30 30 12 67 29 81 36 23 12 53 20 82 23 4 1 7 87
7 191 l0 190 -212 -1 c-130 0 -223 -5 -238 -11z m-590 -298 c0 -5 -5 -10 -11
-10 -5 0 -7 5 -4 10 3 6 8 10 11 10 2 0 4 -4 4 -10z m-2490 -334 c0 -2 -7 -9
-15 -16 -13 -11 -14 -10 -9 4 5 14 24 23 24 12z m-40 -36 c0 -5 -4 -10 -10
-10 -5 0 -10 5 -10 10 0 6 5 10 10 10 6 0 10 -4 10 -10z m2115 -207 c-28 -20
-41 -16 -19 6 10 10 23 16 28 13 5 -3 1 -11 -9 -19z m-86 -42 c8 -14 7 -20 -4
-25 -11 -4 -14 1 -13 19 3 30 4 31 17 6z m-369 -146 c0 -8 -9 -15 -20 -15 -25
0 -26 17 -2 23 9 3 18 5 20 6 1 0 2 -6 2 -14z m-136 -54 c3 -5 -3 -11 -14 -14
-20 -5 -35 5 -23 17 9 9 31 7 37 -3z m-194 -2492 c0 -6 6 -9 14 -6 8 3 19 0
25 -7 24 -29 -27 -96 -72 -96 -16 0 -17 -3 -7 -15 17 -20 -10 -31 -40 -15 -51
27 -49 108 3 134 37 18 77 21 77 5z m-1775 -396 c-8 -8 -19 -11 -25 -8 -18 11
-11 23 14 23 22 0 23 -2 11 -15z m1385 -42 c0 -3 -9 -12 -20 -19 -14 -9 -20
-23 -20 -51 0 -48 -23 -77 -75 -96 -28 -10 -33 -14 -17 -15 24 0 27 -7 12 -30
-5 -8 -10 -10 -10 -3 0 6 -9 9 -20 6 -16 -4 -24 3 -40 39 -25 58 -12 111 34
135 59 31 156 52 156 34z m399 -37 c4 3 7 -4 8 -14 1 -12 -7 -20 -23 -24 -30
-8 -32 -26 -2 -26 27 0 15 -13 -15 -16 -36 -3 -38 5 -12 34 14 15 25 36 26 47
0 11 3 14 6 7 2 -6 8 -10 12 -8z m-109 -34 c0 -5 -2 -10 -4 -10 -3 0 -8 5 -11
10 -3 6 -1 10 4 10 6 0 11 -4 11 -10z m-352 -347 c21 -5 23 -10 17 -42 -4 -20
-14 -51 -22 -68 -14 -30 -20 -33 -58 -33 -46 0 -55 10 -55 59 0 34 51 85 90
90 3 0 16 -2 28 -6z m59 -29 c-3 -3 -12 -4 -19 -1 -8 3 -5 6 6 6 11 1 17 -2
13 -5z m1017 -10 c5 -13 1 -15 -21 -9 -41 10 -47 20 -14 23 19 1 31 -3 35 -14z
m-714 -29 c0 -8 7 -11 20 -8 21 6 24 -5 14 -44 -9 -33 -19 -28 -33 15 -7 20
-15 43 -18 51 -3 9 -1 11 6 7 6 -4 11 -13 11 -21z m-93 3 c7 -6 27 -11 43 -10
16 0 29 -2 29 -6 -1 -4 -1 -9 1 -12 1 -3 3 -16 6 -30 3 -20 2 -22 -6 -8 -8 13
-17 15 -40 8 -23 -7 -32 -5 -39 8 -8 14 -10 14 -26 -1 -20 -21 -20 -21 -22 1
-1 9 -4 26 -8 37 -5 17 -1 21 21 23 15 1 33 -3 41 -10z m498 -48 c4 -6 15 -8
25 -5 21 7 35 -23 25 -54 -7 -22 -75 -35 -87 -17 -10 14 -10 70 -1 79 10 10
31 8 38 -3z m1181 -1876 c-3 -9 -6 -23 -6 -32 0 -15 -2 -15 -15 -1 -18 18 -10
49 12 49 10 0 13 -6 9 -16z m30 -296 c11 -13 28 -36 38 -52 l18 -29 -26 7
c-14 3 -26 2 -26 -3 0 -5 10 -11 23 -13 16 -2 21 -9 19 -25 -2 -12 3 -32 11
-45 7 -13 12 -36 10 -53 -8 -71 -9 -185 -2 -185 5 0 6 -19 4 -42 -3 -24 -7
-61 -10 -83 -2 -22 -4 -42 -5 -45 -3 -6 -6 -29 -8 -52 -3 -29 -18 -20 -29 17
-8 23 -8 35 -1 35 6 0 7 8 3 18 -12 31 -26 166 -27 262 0 33 -7 64 -17 79 -10
15 -11 22 -3 17 12 -7 11 58 -4 177 -5 42 4 47 32 15z m332 -210 c-3 -7 -12
-14 -21 -16 -12 -2 -15 1 -11 12 7 19 38 22 32 4z m1 -50 c7 -55 6 -396 -2
-391 -5 3 -6 11 -3 19 3 8 1 14 -3 14 -9 0 -18 113 -24 293 -2 74 0 87 13 87
9 0 17 -10 19 -22z m366 -155 c1 -14 -6 -23 -17 -26 -16 -4 -17 -3 -7 9 6 7 8
21 5 30 -4 9 -1 14 6 12 6 -2 12 -14 13 -25z m-4324 -55 c1 -13 3 -75 5 -139
2 -64 4 -120 5 -125 4 -25 -2 -54 -11 -49 -5 3 -10 2 -10 -4 0 -5 4 -12 9 -15
5 -3 8 -36 7 -73 -1 -67 -1 -68 -28 -67 -25 1 -26 0 -12 -21 8 -12 11 -25 7
-28 -3 -4 -2 -7 3 -7 6 0 14 4 20 10 13 13 36 -3 29 -21 -3 -8 -34 -31 -68
-51 -34 -20 -74 -48 -89 -62 -22 -21 -37 -26 -78 -26 -53 0 -65 15 -35 40 11
9 15 27 14 56 -2 28 3 50 13 61 9 10 19 29 23 43 9 32 73 150 93 173 8 9 15
32 14 51 -1 27 5 38 25 51 25 17 26 19 19 92 -5 61 -3 81 11 104 21 35 33 37
34 7z m3687 -194 c-3 -3 -2 -21 2 -40 5 -21 4 -34 -2 -34 -6 0 -8 -9 -5 -21 4
-16 3 -18 -8 -9 -14 11 -14 27 -2 47 4 6 3 13 -2 15 -4 1 -12 13 -15 26 -6 18
-4 22 15 22 12 0 20 -2 17 -6z m-3 -134 c3 -5 -1 -10 -10 -10 -9 0 -13 5 -10
10 3 6 8 10 10 10 2 0 7 -4 10 -10z m5 -54 c0 -3 -4 -8 -10 -11 -5 -3 -10 -1
-10 4 0 6 5 11 10 11 6 0 10 -2 10 -4z m11 -123 c13 -16 12 -17 -3 -4 -10 7
-18 15 -18 17 0 8 8 3 21 -13z m609 -142 c0 -20 -2 -23 -10 -11 -5 8 -10 11
-11 5 0 -5 -4 1 -8 15 -5 14 -6 29 -4 33 9 15 33 -16 33 -42z m-4302 27 c-2
-6 -10 -14 -16 -16 -7 -2 -10 2 -6 12 7 18 28 22 22 4z m3802 -37 c0 -5 -13
-9 -30 -9 -16 1 -27 5 -24 10 7 11 54 10 54 -1z m-3867 -25 c4 -10 1 -13 -9
-9 -15 6 -19 23 -5 23 5 0 11 -7 14 -14z m3710 -26 c7 -26 -7 -34 -27 -14 -21
21 -20 34 3 34 10 0 21 -9 24 -20z m-3743 -6 c0 -8 -5 -12 -10 -9 -6 4 -8 11
-5 16 9 14 15 11 15 -7z m-20 -22 c0 -5 -8 -17 -19 -28 -26 -29 -33 -57 -18
-78 11 -15 18 -16 60 -5 103 26 186 -7 199 -77 3 -21 11 -51 17 -66 12 -32 -1
-80 -21 -77 -26 3 -39 -1 -33 -11 4 -6 2 -17 -4 -24 -12 -14 -4 -49 9 -41 4 3
18 -3 31 -13 13 -10 38 -24 56 -31 42 -17 46 -30 58 -172 4 -48 4 -100 0 -117
-5 -26 -11 -31 -36 -30 -51 2 -63 51 -29 118 26 51 25 56 -8 73 -25 12 -32 12
-48 0 -10 -7 -30 -11 -44 -8 -35 7 -56 -7 -35 -25 8 -7 15 -17 15 -22 0 -5 13
-26 29 -46 16 -20 31 -48 34 -61 5 -21 3 -23 -23 -19 -16 3 -31 1 -32 -3 -2
-3 -24 -1 -50 6 -27 6 -48 8 -48 3 0 -4 -4 -8 -10 -8 -5 0 -22 -13 -37 -28
-39 -40 -63 -47 -70 -22 -8 28 -21 25 -57 -15 -18 -19 -37 -35 -43 -35 -12 0
-57 -65 -67 -98 -4 -12 -14 -22 -22 -22 -8 0 -14 -5 -14 -11 0 -8 -12 -10 -34
-6 -37 6 -64 -12 -50 -34 4 -7 -1 -18 -11 -26 -11 -7 -15 -13 -9 -13 5 0 3 -4
-4 -9 -7 -4 -16 -23 -19 -42 -2 -19 -8 -38 -13 -44 -4 -5 -11 -24 -14 -42 -9
-39 -26 -46 -93 -37 -67 8 -89 23 -75 51 6 11 9 35 6 54 -7 42 10 89 32 89 13
0 12 4 -6 18 l-22 18 27 109 c14 61 29 123 33 140 5 20 15 31 32 35 19 5 24
12 22 31 -2 13 -6 44 -9 68 -3 24 0 69 6 100 6 31 13 76 17 101 8 67 23 144
50 250 20 79 30 100 56 123 33 27 58 35 58 17 0 -5 6 -10 14 -10 7 0 19 -7 26
-15 20 -24 50 -18 135 30 79 43 105 53 105 37z m3882 -86 c18 -27 -42 -36 -76
-11 -19 14 -18 15 5 23 26 10 60 4 71 -12z m176 -48 c-1 -7 4 -24 11 -36 18
-33 7 -72 -18 -65 -15 4 -18 0 -14 -21 3 -15 9 -29 14 -32 17 -10 9 -34 -12
-34 -13 0 -18 -4 -13 -12 4 -7 3 -8 -5 -4 -14 9 -5 26 15 26 28 0 13 15 -16
16 -17 1 -34 4 -38 8 -4 4 5 30 20 57 27 48 27 49 8 61 -18 11 -18 14 -3 30
18 21 55 24 51 6z m118 -15 c-10 -10 -19 5 -10 18 6 11 8 11 12 0 2 -7 1 -15
-2 -18z m-2 -25 c-3 -4 0 -8 7 -8 10 0 10 -3 2 -11 -7 -7 -23 -9 -40 -4 -25 6
-26 8 -11 19 19 14 50 17 42 4z m136 -64 c0 -2 -9 -4 -21 -4 -11 0 -18 4 -14
10 5 8 35 3 35 -6z m50 1 c0 -1 -7 -8 -15 -15 -13 -10 -15 -9 -15 8 0 15 5 20
15 16 8 -4 15 -7 15 -9z m-490 -24 c0 -4 16 -11 36 -14 39 -7 74 -32 74 -54 0
-7 -6 -13 -12 -14 -10 0 -10 -2 0 -6 6 -2 12 -8 12 -13 0 -11 -82 18 -102 37
-10 9 -18 22 -18 28 0 7 -8 16 -17 19 -15 6 -15 8 -3 16 19 12 30 12 30 1z
m490 -21 c0 -5 -4 -10 -10 -10 -5 0 -10 5 -10 10 0 6 5 10 10 10 6 0 10 -4 10
-10z m-125 -30 c5 -8 11 -7 21 1 15 12 19 2 6 -18 -9 -14 -50 -22 -51 -10 -3
36 9 51 24 27z m-75 -40 c0 -5 -5 -10 -11 -10 -5 0 -7 5 -4 10 3 6 8 10 11 10
2 0 4 -4 4 -10z m134 -16 c10 -25 7 -30 -14 -31 -11 -1 -20 2 -20 7 0 16 12
40 20 40 4 0 11 -7 14 -16z m-356 -47 c21 -17 13 -23 -35 -25 -53 -2 -80 13
-62 35 13 15 73 9 97 -10z m257 -7 c3 -6 -1 -7 -9 -4 -18 7 -21 14 -7 14 6 0
13 -4 16 -10z m-65 -287 c-23 -17 -32 -12 -37 17 -2 17 0 18 28 8 30 -10 30
-10 9 -25z m95 27 c3 -5 3 -10 -2 -11 -4 0 -18 -2 -30 -5 -22 -4 -30 6 -16 19
10 10 41 8 48 -3z m-372 -26 c11 -11 -3 -24 -18 -18 -8 4 -12 10 -9 15 6 11
18 12 27 3z m551 -109 c-6 -16 -24 -21 -24 -7 0 11 11 22 21 22 5 0 6 -7 3
-15z m-445 -9 c9 -11 8 -15 -5 -20 -22 -9 -50 14 -32 25 18 12 24 11 37 -5z
m-3655 -218 c-4 -46 -7 -111 -6 -145 3 -56 0 -64 -29 -97 -17 -20 -35 -34 -39
-31 -5 3 -24 -4 -42 -15 -50 -30 -79 -41 -120 -47 -21 -3 -38 -9 -38 -13 0 -4
-6 -8 -12 -7 -45 1 -58 -5 -64 -29 -4 -16 -12 -23 -20 -20 -8 3 -14 -1 -14 -8
0 -14 -35 -28 -81 -31 -14 -2 -36 -6 -50 -10 -28 -10 -66 -11 -94 -3 -11 4
-36 9 -56 12 -44 8 -43 23 1 75 16 18 32 48 36 67 8 43 17 48 79 50 35 1 57
-4 74 -17 13 -11 37 -19 53 -19 31 0 162 53 189 76 8 8 23 14 32 14 9 0 17 7
17 16 0 8 -4 13 -9 10 -5 -4 -12 0 -14 6 -4 10 -8 9 -16 -2 -7 -10 -11 -11
-11 -2 0 14 -56 17 -64 3 -4 -5 -28 -14 -54 -20 -26 -5 -54 -12 -62 -15 -8 -4
-26 4 -40 17 -14 12 -33 21 -42 19 -21 -4 -24 13 -5 25 6 4 23 9 35 11 28 3
38 11 100 74 42 42 59 51 162 83 232 73 215 75 204 -27z m80 -1047 c7 -10 -23
-20 -43 -13 -11 4 -11 6 0 13 18 11 36 11 43 0z"/>
<path d="M5550 5690 c0 -5 5 -10 10 -10 6 0 10 5 10 10 0 6 -4 10 -10 10 -5 0
-10 -4 -10 -10z"/>
<path d="M3492 2514 c-14 -16 -16 -28 -2 -19 6 4 7 -1 3 -11 -5 -13 -2 -16 9
-12 10 4 15 1 14 -7 -2 -21 18 -23 22 -3 2 10 -5 29 -15 42 -15 19 -21 21 -31
10z"/>
<path d="M3770 1100 c0 -5 -6 -7 -14 -4 -12 5 -32 -23 -23 -32 5 -6 67 20 67
27 0 4 -7 9 -15 13 -8 3 -15 1 -15 -4z"/>
<path d="M7836 9388 c37 -165 51 -326 54 -603 3 -278 5 -344 15 -378 4 -16 3
-38 -3 -50 -15 -34 -13 -67 4 -60 10 4 12 0 8 -11 -3 -9 -10 -16 -15 -16 -5 0
-9 -18 -9 -40 0 -23 5 -40 11 -40 7 0 9 -11 6 -30 -5 -24 -4 -28 11 -24 14 5
14 3 -2 -10 -15 -12 -17 -18 -7 -30 9 -11 9 -15 -1 -19 -10 -4 -10 -8 2 -16 8
-6 10 -11 5 -11 -6 0 -12 -11 -13 -25 -2 -22 2 -25 28 -23 23 2 27 5 18 16 -9
10 -13 10 -19 0 -4 -7 -11 -9 -16 -5 -12 13 19 26 38 16 17 -8 17 13 13 388
-2 219 -6 425 -9 458 -17 210 -87 535 -116 535 -4 0 -6 -10 -3 -22z"/>
<path d="M6511 9244 c0 -11 3 -14 6 -6 3 7 2 16 -1 19 -3 4 -6 -2 -5 -13z"/>
<path d="M7470 9185 c-1 -16 -2 -33 -1 -37 2 -17 30 -298 36 -363 3 -38 8
-124 10 -190 3 -66 8 -134 11 -151 3 -18 1 -35 -5 -38 -5 -4 -8 -13 -5 -20 3
-7 7 -42 9 -77 2 -35 4 -65 5 -66 6 -8 4 -63 -2 -63 -5 0 -8 -4 -8 -10 0 -5 7
-10 15 -10 8 0 15 -5 15 -11 0 -6 5 -9 12 -7 11 4 19 198 8 198 -3 0 -5 35 -5
78 -1 126 -25 351 -65 617 -11 72 -21 141 -23 155 -4 23 -5 22 -7 -5z"/>
<path d="M6180 9120 c-12 -8 -10 -10 8 -10 13 0 20 4 17 10 -7 12 -6 12 -25 0z"/>
<path d="M7534 8115 c-2 -5 -3 -26 -1 -45 2 -25 8 -35 19 -34 10 1 18 -8 21
-22 3 -17 0 -24 -10 -24 -10 0 -13 -6 -9 -15 3 -8 9 -22 13 -32 4 -9 2 -14 -3
-10 -6 3 -11 -8 -12 -26 -2 -17 -8 -38 -15 -46 -8 -12 -6 -11 9 2 20 16 21 16
20 -4 -1 -12 4 -24 10 -26 9 -3 12 34 13 129 0 73 -2 141 -5 150 -5 18 -44 21
-50 3z"/>
<path d="M7535 8010 c-3 -5 1 -10 10 -10 9 0 13 5 10 10 -3 6 -8 10 -10 10 -2
0 -7 -4 -10 -10z"/>
<path d="M7920 7980 c0 -5 5 -10 11 -10 5 0 7 5 4 10 -3 6 -8 10 -11 10 -2 0
-4 -4 -4 -10z"/>
<path d="M7940 7968 c-31 -47 -33 -51 -21 -44 11 7 8 -54 -4 -74 -3 -6 -1 -10
5 -10 7 0 5 -7 -4 -16 -33 -32 -9 -47 31 -19 12 9 20 21 17 28 -2 7 0 34 5 60
4 26 5 47 0 47 -4 0 -9 11 -11 25 l-3 26 -15 -23z"/>
<path d="M7569 7818 c0 -2 -2 -11 -4 -20 -5 -25 11 -23 18 2 3 11 1 20 -4 20
-5 0 -9 -1 -10 -2z"/>
<path d="M7916 7765 c-5 -15 2 -45 10 -45 3 0 14 9 25 19 13 12 17 21 10 26
-6 3 -11 1 -11 -5 0 -6 -5 -8 -10 -5 -6 4 -8 11 -5 16 4 5 2 9 -3 9 -6 0 -12
-7 -16 -15z"/>
<path d="M7570 7760 c-9 -6 -10 -10 -3 -10 6 0 16 -12 21 -27 11 -31 14 -11 4
24 -5 17 -11 20 -22 13z"/>
<path d="M7937 7710 c-12 -12 -15 -20 -8 -25 8 -4 8 -12 0 -27 -7 -14 -8 -18
0 -14 9 6 34 77 28 82 -1 1 -10 -7 -20 -16z"/>
<path d="M7924 7595 c-9 -36 17 -99 41 -103 19 -3 19 -2 2 8 -13 8 -15 15 -8
24 7 8 7 24 0 49 -12 46 -27 55 -35 22z m23 -67 c-3 -7 -5 -2 -5 12 0 14 2 19
5 13 2 -7 2 -19 0 -25z"/>
<path d="M7583 7564 c-3 -8 -2 -19 3 -24 5 -5 9 1 9 16 0 28 -3 30 -12 8z"/>
<path d="M7583 7500 c-1 -14 4 -20 18 -20 22 0 24 11 7 28 -17 17 -24 15 -25
-8z"/>
<path d="M7585 7450 c3 -5 14 -10 23 -10 15 0 15 2 2 10 -20 13 -33 13 -25 0z"/>
<path d="M7925 7353 c-3 -14 -2 -30 4 -36 7 -7 7 -16 0 -29 -6 -11 -8 -22 -6
-25 3 -2 8 5 12 17 5 15 13 20 25 17 16 -4 18 0 13 32 -7 41 -8 44 -27 47 -8
1 -17 -9 -21 -23z"/>
<path d="M7930 7220 c0 -5 5 -10 10 -10 6 0 10 5 10 10 0 6 -4 10 -10 10 -5 0
-10 -4 -10 -10z"/>
<path d="M7930 7190 c0 -5 5 -10 10 -10 6 0 10 5 10 10 0 6 -4 10 -10 10 -5 0
-10 -4 -10 -10z"/>
<path d="M7930 7154 c0 -1 8 -8 17 -15 9 -8 14 -9 10 -2 -4 6 -1 13 5 16 7 3
3 4 -9 4 -13 -1 -23 -2 -23 -3z"/>
<path d="M7945 7061 c-3 -5 -2 -12 3 -15 5 -3 9 1 9 9 0 17 -3 19 -12 6z"/>
<path d="M7970 7045 c0 -8 2 -15 4 -15 2 0 6 7 10 15 3 8 1 15 -4 15 -6 0 -10
-7 -10 -15z"/>
<path d="M7945 7010 c-3 -5 -2 -10 4 -10 5 0 13 5 16 10 3 6 2 10 -4 10 -5 0
-13 -4 -16 -10z"/>
<path d="M7978 6983 c7 -3 16 -2 19 1 4 3 -2 6 -13 5 -11 0 -14 -3 -6 -6z"/>
<path d="M7948 6886 c-4 -18 -1 -23 11 -21 9 2 19 4 24 4 4 1 7 10 7 21 0 30
-36 26 -42 -4z"/>
<path d="M7959 6848 c-11 -7 -11 -11 -1 -15 10 -4 10 -8 0 -21 -11 -13 -11
-14 2 -7 13 8 13 7 1 -8 -9 -11 -10 -17 -2 -17 14 0 15 -27 0 -32 -11 -4 -19
-168 -8 -168 3 0 4 -11 1 -25 -4 -21 0 -25 19 -25 22 0 22 0 3 -15 -10 -8 -15
-15 -10 -15 5 0 2 -8 -5 -17 -8 -10 -9 -14 -2 -10 6 4 14 3 18 -3 3 -5 1 -10
-5 -10 -7 0 -10 -7 -7 -15 4 -8 2 -17 -3 -20 -6 -4 -10 -11 -10 -16 0 -6 4 -8
9 -4 14 8 18 -24 9 -70 -14 -75 -20 -154 -12 -167 10 -16 15 -158 6 -172 -11
-18 -10 -51 2 -58 8 -6 8 -8 -1 -8 -7 0 -11 -21 -11 -60 1 -33 4 -60 8 -60 9
0 5 -194 -5 -232 -5 -21 -3 -29 10 -34 12 -5 15 -14 10 -33 -4 -14 -11 -29
-17 -32 -6 -4 -7 -13 -2 -20 4 -7 8 -22 9 -33 4 -42 7 -131 5 -136 -8 -24 -4
-50 7 -50 9 0 11 -5 6 -12 -10 -17 -13 -40 -6 -51 3 -5 9 -3 14 4 5 8 9 386 8
841 0 862 0 854 -40 826z"/>
<path d="M7660 5908 c0 -9 5 -20 10 -23 13 -8 13 5 0 25 -8 13 -10 13 -10 -2z"/>
<path d="M7977 5153 c-11 -10 -8 -41 3 -48 6 -4 10 5 8 24 -3 34 -2 34 -11 24z"/>
<path d="M7974 5064 c-4 -14 -2 -30 4 -36 9 -9 11 -2 10 25 -1 44 -5 46 -14
11z"/>
<path d="M7992 2920 c0 -14 2 -19 5 -12 2 6 2 18 0 25 -3 6 -5 1 -5 -13z"/>
</g>
</svg>
