<?xml version="1.0" standalone="no"?>
<!DOCTYPE svg PUBLIC "-//W3C//DTD SVG 20010904//EN"
 "http://www.w3.org/TR/2001/REC-SVG-20010904/DTD/svg10.dtd">
<svg version="1.0" xmlns="http://www.w3.org/2000/svg"
 width="1024.000000pt" height="1024.000000pt" viewBox="0 0 1024.000000 1024.000000"
 preserveAspectRatio="xMidYMid meet">

<g transform="translate(0.000000,1024.000000) scale(0.100000,-0.100000)"
fill="#000000" stroke="none">
<path d="M4380 7453 c-19 -1 -78 -6 -130 -10 -62 -4 -85 -9 -65 -12 16 -4 31
-13 33 -22 2 -13 -13 -18 -87 -28 -50 -6 -104 -14 -121 -17 -26 -6 -30 -4 -30
15 0 13 7 21 18 22 10 0 12 3 5 6 -27 10 -306 -70 -422 -121 -280 -125 -390
-245 -399 -438 -4 -80 -2 -93 22 -143 35 -70 126 -162 223 -226 72 -47 77 -48
95 -33 10 10 18 27 18 40 0 14 9 28 22 35 18 10 24 8 35 -7 7 -10 13 -22 13
-27 0 -4 5 -5 10 -2 25 15 6 -20 -25 -48 l-36 -31 33 -18 c45 -24 48 -23 48
16 0 18 7 39 15 46 13 11 15 6 16 -36 1 -27 1 -52 0 -56 0 -5 4 -8 10 -8 14 0
52 -87 44 -101 -10 -15 15 -69 32 -69 9 0 13 -8 11 -22 -2 -17 -11 -24 -33
-26 -27 -2 -32 2 -48 43 -16 39 -21 43 -38 35 -10 -6 -16 -17 -13 -25 4 -8 10
-12 15 -9 13 8 14 -26 4 -198 -6 -87 -10 -108 -22 -108 -13 0 -15 18 -12 123
l4 122 -37 -1 c-30 -1 -49 -11 -101 -57 l-65 -57 -7 -169 c-8 -177 -14 -207
-38 -181 -11 12 -12 36 -6 110 4 52 8 119 8 147 l1 53 -109 -88 c-60 -48 -125
-99 -144 -114 -41 -32 -42 -39 -56 -286 -9 -152 -17 -182 -48 -182 -13 0 -14
17 -8 118 4 64 11 151 15 192 4 41 6 76 5 78 -2 2 -122 -99 -269 -224 -223
-190 -266 -231 -266 -253 0 -14 -4 -75 -10 -136 -5 -60 -10 -143 -12 -183 -2
-86 -12 -103 -50 -95 -33 6 -34 10 -14 223 10 107 11 147 2 152 -6 3 -53 36
-103 72 l-93 65 0 -2649 0 -2650 2900 0 2900 0 0 1071 0 1071 -102 172 c-56
94 -161 270 -233 391 -72 121 -198 333 -280 470 -81 138 -196 331 -255 430
-59 99 -148 250 -199 335 l-91 155 0 -60 c0 -33 7 -222 15 -420 8 -198 15
-402 15 -452 l0 -93 -31 0 c-30 0 -31 1 -25 33 4 23 3 28 -4 17 -5 -8 -10 -23
-10 -32 0 -11 -7 -16 -21 -15 -43 3 -56 63 -63 288 -4 112 -9 227 -11 254 -2
28 -6 185 -10 350 -8 418 -2 386 -94 540 -43 72 -144 241 -225 377 -81 136
-145 252 -141 258 4 6 2 9 -4 8 -6 -2 -53 66 -104 150 l-94 152 -8 -360 -7
-360 -34 2 -34 2 0 391 c0 234 4 396 10 405 8 12 10 12 11 -5 0 -11 3 -15 5
-8 5 12 -22 62 -41 75 -6 5 -6 11 3 20 14 14 16 186 5 477 -5 145 -9 186 -22
198 -14 14 -17 10 -35 -43 -10 -33 -22 -61 -25 -64 -3 -3 -7 -18 -8 -34 -3
-39 -7 -42 -58 -28 -25 7 -60 12 -78 12 -17 0 -42 3 -55 6 -23 7 -23 7 7 25
52 32 58 58 36 165 -5 22 -12 31 -23 29 -10 -1 -11 0 -4 2 8 3 12 13 9 24 -8
30 16 22 41 -14 20 -29 22 -30 22 -9 0 12 -7 25 -15 28 -22 9 -18 21 9 28 14
3 27 14 30 24 5 17 0 -17 -11 -69 -4 -24 -1 -28 32 -39 20 -7 35 -14 32 -16
-2 -2 -18 1 -36 7 -37 13 -39 12 -47 -29 l-6 -32 42 15 c23 8 52 15 64 15 17
0 18 2 6 10 -12 8 -9 10 11 10 15 0 32 7 39 15 7 8 22 15 33 15 32 0 186 88
248 141 31 27 74 74 95 104 36 53 38 61 42 148 3 76 0 102 -17 149 -75 197
-343 355 -808 473 -239 62 -466 91 -770 101 l-202 7 6 -21 c6 -25 23 -30 23
-7 0 8 7 15 15 15 8 0 14 -5 13 -12 -2 -6 8 -15 22 -19 15 -4 -18 -7 -82 -8
-58 -1 -113 -4 -122 -7 -9 -3 -16 -1 -16 5 0 6 6 11 14 11 8 0 16 6 19 14 3 8
16 16 29 19 27 5 -29 5 -82 0z m297 -39 c-3 -3 -12 -4 -19 -1 -8 3 -5 6 6 6
11 1 17 -2 13 -5z m-407 -14 c0 -5 -7 -10 -15 -10 -8 0 -15 5 -15 10 0 6 7 10
15 10 8 0 15 -4 15 -10z m108 3 c-10 -2 -26 -2 -35 0 -10 3 -2 5 17 5 19 0 27
-2 18 -5z m851 -35 c1 -5 -6 -8 -14 -8 -21 0 -31 30 -14 41 13 8 26 -8 28 -33z
m-246 25 c-7 -2 -21 -2 -30 0 -10 3 -4 5 12 5 17 0 24 -2 18 -5z m-1016 -20
c4 -12 -36 -26 -106 -38 -19 -3 -42 -10 -52 -15 -29 -16 -59 -12 -52 6 5 13 7
13 14 2 8 -12 13 -4 10 14 0 4 18 12 42 18 23 6 56 14 72 19 38 12 67 9 72 -6z
m1453 -18 c21 -13 42 -30 46 -36 4 -7 -3 -5 -17 4 -13 9 -31 17 -41 17 -10 0
-17 6 -15 12 1 9 -14 13 -51 14 -40 1 -59 -4 -84 -22 -40 -30 -47 -30 -22 -3
47 53 115 58 184 14z m148 -48 c2 -12 -1 -15 -12 -11 -19 7 -22 38 -3 32 6 -3
13 -12 15 -21z m-218 -27 c0 -5 -11 -10 -24 -10 -14 0 -28 5 -31 10 -4 6 7 10
24 10 17 0 31 -4 31 -10z m-6 -62 c9 -34 8 -37 -14 -31 -21 6 -24 12 -14 37 9
23 21 20 28 -6z m-1844 2 c0 -5 -6 -10 -14 -10 -8 0 -17 -6 -19 -12 -4 -8 -6
-7 -6 4 -1 15 11 25 32 27 4 1 7 -3 7 -9z m1777 -34 c-2 -6 -13 -12 -25 -14
-24 -4 -25 -2 -16 21 6 17 47 11 41 -7z m153 -6 c0 -25 -21 -26 -51 0 l-24 19
38 1 c30 0 37 -3 37 -20z m-1990 -4 c0 -2 -7 -6 -15 -10 -8 -3 -15 -1 -15 4 0
6 7 10 15 10 8 0 15 -2 15 -4z m-77 -33 c-7 -2 -13 -11 -13 -19 0 -8 -7 -14
-17 -14 -14 0 -14 2 2 20 10 11 23 20 29 19 6 0 6 -3 -1 -6z m1977 -33 c0 -13
-11 -13 -30 0 -12 8 -11 10 8 10 12 0 22 -4 22 -10z m157 -114 c37 -33 42 -36
63 -36 6 0 10 -6 10 -13 0 -7 16 -19 36 -26 19 -7 51 -26 70 -43 40 -35 53
-75 84 -253 12 -66 23 -129 25 -140 3 -11 2 -15 -1 -8 -3 7 -11 10 -19 7 -10
-4 -12 3 -8 33 3 21 -2 69 -11 106 -9 38 -16 83 -16 102 0 19 -4 37 -10 40 -6
4 -10 -10 -10 -34 0 -55 -20 -64 -21 -9 -1 24 -4 54 -8 68 l-7 25 -12 -23
c-10 -18 -10 -32 3 -74 16 -54 19 -86 8 -75 -3 4 -9 23 -12 44 -6 36 -31 59
-31 28 0 -9 -4 -14 -9 -10 -5 3 -7 20 -4 39 3 18 1 36 -5 40 -6 3 -9 -2 -7
-11 4 -26 -12 -41 -39 -36 -20 4 -24 0 -31 -34 -9 -49 -9 -47 13 -53 19 -5 19
-7 0 -110 -10 -58 -19 -120 -19 -137 -1 -35 -18 -43 -38 -19 -9 11 -7 15 11
19 l22 6 -22 24 c-12 13 -22 27 -22 32 0 5 6 0 14 -11 13 -17 15 -18 21 -2 4
9 4 22 0 28 -3 5 -2 10 3 10 9 0 8 67 -1 77 -3 2 -8 -5 -12 -16 -4 -14 -15
-21 -31 -21 -13 0 -23 -3 -21 -7 4 -13 -17 -11 -38 3 -17 12 -17 14 -2 14 9 0
17 6 17 14 0 8 4 17 9 20 5 4 7 -3 4 -14 -4 -16 0 -20 17 -20 16 0 20 4 16 15
-8 21 3 45 20 45 16 0 19 19 4 21 -5 1 -15 2 -22 3 -15 1 -22 23 -9 31 6 3 11
15 11 26 0 10 4 19 10 19 5 0 6 8 3 17 -5 13 -2 15 11 10 11 -5 16 -3 14 5 -5
14 -48 31 -48 18 0 -6 -4 -10 -10 -10 -5 0 -10 11 -10 24 0 14 -4 36 -10 51
-5 14 -6 24 -1 21 5 -3 14 1 21 9 7 8 20 15 30 15 9 0 25 16 36 35 10 19 22
35 26 35 5 0 8 5 8 10 0 19 -18 10 -104 -55 -47 -35 -97 -67 -111 -71 -29 -7
-90 18 -99 42 -12 30 -7 47 12 39 9 -4 42 -8 72 -10 l55 -3 32 50 c24 36 31
57 27 74 -9 34 9 30 53 -10z m-324 -77 c-4 -4 -15 -4 -23 1 -12 7 -11 12 5 31
l20 21 3 -22 c2 -12 0 -26 -5 -31z m-12 -40 c34 -36 39 -46 33 -71 -8 -37 -34
-64 -57 -60 -9 2 -17 -2 -17 -8 0 -9 -4 -9 -12 -3 -7 6 -21 9 -31 8 -10 -2
-17 2 -16 8 1 7 1 19 0 27 -1 13 -3 13 -10 1 -6 -10 -5 -27 5 -49 16 -40 18
-66 4 -57 -6 3 -10 -4 -10 -17 -1 -45 -26 7 -29 59 -1 26 -4 59 -6 73 -1 14
-3 30 -4 37 -2 17 -32 9 -43 -11 -6 -10 -24 -66 -40 -125 -16 -58 -35 -120
-43 -137 -8 -16 -17 -49 -21 -71 -5 -35 -3 -42 12 -46 16 -4 15 -5 -3 -6 -17
-1 -22 -6 -20 -23 2 -21 0 -22 -103 -19 -92 2 -183 11 -258 27 l-23 5 3 214
c2 117 7 217 11 222 5 4 122 8 261 9 224 1 255 3 279 19 15 10 42 21 60 25 17
5 33 8 35 9 2 1 21 -18 43 -40z m-733 -110 c2 -41 0 -134 -3 -207 l-7 -133
-28 6 c-34 7 -37 -3 -32 -107 3 -59 6 -68 23 -68 10 0 19 -3 19 -6 0 -13 -53
-104 -58 -99 -3 2 3 16 12 31 16 23 16 27 2 43 -11 12 -16 37 -16 81 0 58 -1
62 -15 44 -16 -22 -20 -80 -5 -89 5 -3 8 -16 6 -28 -3 -12 -5 -28 -5 -34 -1
-7 -8 -13 -17 -13 -14 0 -16 8 -10 58 l6 57 -20 -24 c-16 -18 -20 -38 -20 -92
0 -39 -4 -69 -10 -69 -5 0 -10 21 -10 47 0 43 -1 45 -15 27 -14 -19 -14 -19
-15 1 0 11 7 33 15 49 8 15 15 35 15 42 0 8 7 14 15 14 34 0 61 122 30 134 -9
3 -13 10 -10 16 3 6 0 17 -9 25 -13 13 -15 13 -18 -3 -3 -13 -10 -8 -27 21
-13 20 -34 40 -47 43 -18 5 -27 18 -39 59 -8 30 -26 67 -40 83 -14 17 -25 35
-25 40 0 28 303 140 345 128 6 -1 11 -36 13 -77z m-448 61 c18 -12 2 -12 -25
0 -13 6 -15 9 -5 9 8 0 22 -4 30 -9z m1450 -50 c0 -11 -7 -20 -15 -20 -18 0
-39 -70 -24 -85 6 -6 12 -2 15 13 4 12 11 22 16 22 5 0 6 10 3 21 -5 15 -4 19
4 15 17 -11 14 -76 -5 -83 -8 -3 -13 -12 -10 -19 3 -7 1 -16 -5 -20 -5 -3 -7
-15 -4 -27 2 -12 2 -16 -1 -9 -3 6 -10 9 -16 6 -7 -4 -7 0 -1 12 14 29 10 49
-10 48 -14 -2 -16 4 -12 30 3 17 7 42 9 56 5 41 17 60 37 60 12 0 19 -7 19
-20z m-197 -5 c0 -6 -7 -11 -16 -13 -12 -3 -15 1 -11 13 7 17 25 17 27 0z m42
-62 c-3 -20 -2 -40 4 -47 9 -10 6 -12 -14 -8 -24 4 -36 22 -15 22 6 0 10 7 10
16 0 11 -6 15 -20 11 -16 -4 -20 0 -20 20 0 23 2 24 18 12 9 -8 21 -18 25 -24
5 -6 7 2 4 17 -2 16 0 25 5 22 6 -4 7 -22 3 -41z m68 0 c-3 -7 -9 -10 -14 -7
-14 8 -11 21 5 21 8 0 12 -6 9 -14z m-223 -3 c0 -5 -2 -10 -4 -10 -3 0 -8 5
-11 10 -3 6 -1 10 4 10 6 0 11 -4 11 -10z m451 -33 c-6 -6 -14 -7 -18 -2 -5 4
-3 10 4 12 7 2 10 12 7 21 -4 14 -3 13 6 -1 9 -14 9 -22 1 -30z m-351 -1 c0
-2 -7 -9 -15 -16 -13 -11 -14 -10 -9 4 5 14 24 23 24 12z m125 -5 c3 -5 1 -12
-5 -16 -5 -3 -10 1 -10 9 0 18 6 21 15 7z m-118 -58 c-17 -18 -22 -8 -11 22 5
12 10 13 17 6 8 -8 6 -16 -6 -28z m-157 -17 c0 -8 -4 -17 -9 -21 -6 -3 -9 4
-8 15 1 23 17 28 17 6z m70 -16 c0 -5 -4 -10 -10 -10 -5 0 -10 5 -10 10 0 6 5
10 10 10 6 0 10 -4 10 -10z m328 -136 c1 -16 -1 -24 -5 -19 -4 6 -17 10 -28
10 -13 0 -19 5 -16 15 2 8 4 20 4 27 1 25 42 -4 45 -33z m-1446 -96 c-4 -36
-22 -54 -22 -23 0 14 21 67 25 63 1 -2 0 -20 -3 -40z m1143 32 c3 -5 1 -10 -4
-10 -6 0 -11 5 -11 10 0 6 2 10 4 10 3 0 8 -4 11 -10z m293 -32 c20 -20 14
-28 -13 -16 -13 6 -22 15 -19 19 7 12 18 11 32 -3z m62 7 c0 -2 -10 -10 -22
-16 -21 -11 -22 -11 -9 4 13 16 31 23 31 12z m164 -85 c-3 -3 -11 3 -18 12 -7
10 -15 16 -17 13 -3 -2 -5 5 -5 16 0 19 3 18 23 -7 12 -16 20 -31 17 -34z
m-184 21 c0 -6 -4 -13 -10 -16 -5 -3 -10 1 -10 9 0 9 5 16 10 16 6 0 10 -4 10
-9z m150 -36 c11 -13 8 -13 -18 2 -18 10 -32 22 -32 26 0 11 34 -8 50 -28z
m-165 3 c9 -9 17 -100 8 -95 -5 3 -7 -10 -5 -30 4 -28 2 -34 -9 -27 -33 20
-59 49 -59 66 0 10 -4 18 -9 18 -6 0 -9 18 -8 40 l1 40 39 -4 c21 -2 40 -6 42
-8z m-1399 -55 c-4 -4 -11 -1 -16 7 -16 25 -11 35 7 17 9 -9 13 -20 9 -24z
m1535 10 c13 -16 12 -17 -3 -4 -10 7 -18 15 -18 17 0 8 8 3 21 -13z m79 -33
c0 -5 -2 -10 -4 -10 -3 0 -8 5 -11 10 -3 6 -1 10 4 10 6 0 11 -4 11 -10z
m-533 -32 c-3 -8 -6 -5 -6 6 -1 11 2 17 5 13 3 -3 4 -12 1 -19z m-1374 -207
c-5 -7 -11 3 -13 19 -1 8 -1 40 1 70 l3 55 5 -70 c3 -38 5 -72 4 -74z m707 79
c0 -13 -50 -13 -70 0 -11 7 -4 10 28 10 23 0 42 -4 42 -10z m1189 -101 l62
-110 -17 -47 c-10 -26 -21 -51 -25 -56 -15 -17 -66 107 -73 179 -4 39 -9 87
-13 108 -3 20 -3 37 -1 37 3 0 33 -50 67 -111z m-1289 91 c0 -5 -2 -10 -4 -10
-3 0 -8 5 -11 10 -3 6 -1 10 4 10 6 0 11 -4 11 -10z m-600 -131 c0 -17 -5 -29
-11 -27 -6 2 -10 7 -10 11 1 4 1 16 1 27 0 11 5 20 10 20 6 0 10 -14 10 -31z
m1959 -436 c-1 -193 -3 -222 -20 -255 -11 -21 -23 -38 -27 -38 -4 0 -32 67
-63 149 l-57 148 12 64 11 64 41 -99 41 -99 6 124 c6 113 8 125 29 141 13 10
24 18 26 18 2 0 2 -98 1 -217z m-2305 92 c-4 -8 -8 -15 -10 -15 -2 0 -4 7 -4
15 0 8 4 15 10 15 5 0 7 -7 4 -15z m-314 -361 c-19 -22 -50 -37 -50 -24 0 5 6
10 14 10 7 0 19 7 26 15 7 8 15 15 17 15 3 0 0 -7 -7 -16z m-280 -34 c8 -5 11
-10 5 -10 -5 0 -17 5 -25 10 -8 5 -10 10 -5 10 6 0 17 -5 25 -10z m240 -14 c0
-3 -4 -8 -10 -11 -5 -3 -10 -1 -10 4 0 6 5 11 10 11 6 0 10 -2 10 -4z m2650
-196 l0 -189 -31 2 -32 2 7 170 c6 155 9 172 27 188 12 9 23 17 25 17 2 0 4
-85 4 -190z m557 -256 c-3 -3 -12 -4 -19 -1 -8 3 -5 6 6 6 11 1 17 -2 13 -5z
m-544 -188 c-3 -4 -9 -2 -14 5 -13 22 -11 31 5 17 8 -7 12 -17 9 -22z m21 -76
c-6 -5 -24 21 -24 34 0 6 6 1 14 -10 8 -10 12 -21 10 -24z m1356 -1224 c0 -3
-4 -8 -10 -11 -5 -3 -10 -1 -10 4 0 6 5 11 10 11 6 0 10 -2 10 -4z m23 -151
c-3 -9 -8 -14 -10 -11 -3 3 -2 9 2 15 9 16 15 13 8 -4z m-438 -15 c19 -8 19
-9 -2 -9 -12 -1 -25 4 -28 9 -7 12 2 12 30 0z m113 -33 c6 -5 12 -19 12 -31 0
-19 5 -22 38 -22 20 1 42 4 48 8 14 9 73 7 80 -3 2 -4 0 -10 -6 -14 -5 -3 -10
-1 -10 6 0 19 -13 1 -17 -22 -2 -16 1 -20 14 -15 9 4 20 1 25 -6 14 -22 9 -29
-17 -22 -15 4 -25 2 -25 -5 0 -6 -4 -11 -10 -11 -5 0 -10 6 -10 14 0 8 -5 18
-12 22 -7 4 -8 3 -4 -4 7 -12 -5 -16 -33 -13 -7 2 -10 -2 -6 -8 3 -6 12 -11
20 -11 8 0 16 -4 19 -9 9 -14 -32 -1 -45 15 -6 8 -18 14 -25 14 -8 0 -14 5
-14 10 0 6 -7 10 -16 10 -11 0 -15 6 -11 20 6 24 -1 25 -22 6 -14 -13 -19 -13
-35 0 -11 7 -16 17 -13 21 4 4 13 1 19 -5 19 -19 24 -14 25 23 0 19 -3 35 -8
35 -5 0 -9 4 -9 10 0 10 27 3 48 -13z m157 3 c-3 -5 2 -10 11 -10 10 0 15 -3
11 -6 -3 -4 -14 -3 -24 1 -10 5 -21 7 -25 7 -5 -1 -8 3 -8 8 0 6 9 10 21 10
11 0 17 -4 14 -10z m-245 -63 c0 -23 -5 -19 -31 26 -9 17 -8 17 10 7 12 -6 21
-21 21 -33z m314 -23 c5 -12 2 -15 -10 -10 -8 3 -18 6 -20 6 -3 0 -2 5 1 10 9
15 22 12 29 -6z m162 -64 c0 -13 -7 -20 -18 -20 -20 0 -25 26 -5 33 21 9 23 8
23 -13z m-531 -8 c-3 -3 -11 0 -18 7 -9 10 -8 11 6 5 10 -3 15 -9 12 -12z
m332 12 c-3 -3 -12 -4 -19 -1 -8 3 -5 6 6 6 11 1 17 -2 13 -5z m153 -23 c0
-13 -45 -22 -67 -14 -10 3 -15 3 -11 -2 4 -4 3 -14 -3 -22 -6 -7 -7 -13 -2
-13 5 0 10 -6 10 -14 0 -22 -25 -7 -29 17 -2 16 -9 21 -22 19 -17 -3 -18 -2
-7 12 7 9 17 14 21 11 4 -2 27 -1 51 4 61 12 59 12 59 2z m-199 -18 c34 -20
40 -40 7 -21 -13 7 -45 12 -73 12 -38 -1 -41 0 -12 3 20 2 35 8 32 14 -10 15
14 11 46 -8z m-211 -33 c6 -11 8 -20 6 -20 -3 0 -10 9 -16 20 -6 11 -8 20 -6
20 3 0 10 -9 16 -20z m117 -22 c29 -12 30 -15 14 -25 -12 -8 -22 -8 -32 -1
-11 8 -10 9 4 4 9 -3 17 -1 17 4 0 6 -10 11 -22 12 -13 0 -27 2 -33 3 -5 2
-16 3 -23 4 -7 0 -11 5 -8 10 7 11 43 6 83 -11z m103 -18 c0 -8 -48 -5 -56 3
-3 3 -3 10 0 15 6 10 56 -7 56 -18z m68 1 c1 -1 -3 -7 -10 -15 -9 -10 -17 -11
-26 -4 -10 9 -11 6 -3 -14 9 -25 9 -26 -27 -21 -20 2 -46 6 -57 8 -11 2 -24 4
-28 4 -5 1 -5 6 -1 12 4 7 23 9 50 5 42 -5 49 -1 45 26 0 5 33 4 57 -1z m147
-9 c-3 -3 -11 0 -18 7 -9 10 -8 11 6 5 10 -3 15 -9 12 -12z m-340 -20 c-3 -3
-11 0 -18 7 -9 10 -8 11 6 5 10 -3 15 -9 12 -12z m289 -63 c-3 -6 0 -15 7 -20
21 -13 -7 -12 -33 2 -17 9 -18 13 -7 20 20 12 41 11 33 -2z m-309 -20 c11 -16
1 -19 -13 -3 -7 8 -8 14 -3 14 5 0 13 -5 16 -11z m413 -24 c-3 -3 -9 2 -12 12
-6 14 -5 15 5 6 7 -7 10 -15 7 -18z m-3438 0 c0 -9 -6 -12 -15 -9 -8 4 -12 10
-9 15 8 14 24 10 24 -6z m3180 -14 c0 -4 -5 -12 -11 -18 -8 -8 -8 -13 0 -17
16 -10 31 2 24 19 -7 19 11 19 26 1 10 -11 8 -16 -8 -21 -23 -7 -27 -25 -11
-41 7 -7 6 -11 -4 -11 -8 0 -13 4 -10 9 3 4 0 8 -7 8 -7 0 -9 3 -6 7 11 10
-13 33 -34 33 -27 0 -24 20 4 21 12 0 16 3 10 6 -21 8 -15 22 7 16 11 -3 20
-8 20 -12z m94 -5 c-3 -9 -12 -16 -20 -16 -20 0 -17 28 4 32 22 5 24 4 16 -16z
m51 14 c3 -5 -1 -10 -10 -10 -9 0 -13 5 -10 10 3 6 8 10 10 10 2 0 7 -4 10
-10z m95 -22 c0 -4 -4 -8 -9 -8 -6 0 -12 4 -15 8 -3 5 1 9 9 9 8 0 15 -4 15
-9z m-132 -40 c2 -4 8 -8 13 -8 6 0 7 5 3 12 -5 7 -3 8 5 4 9 -6 9 -12 -3 -25
-9 -10 -15 -20 -14 -22 2 -2 -7 6 -18 18 -12 13 -29 23 -38 23 -10 0 -14 5
-11 10 7 11 58 2 63 -12z m325 5 c-7 -2 -19 -2 -25 0 -7 3 -2 5 12 5 14 0 19
-2 13 -5z m-248 -23 c3 -5 2 -10 -4 -10 -5 0 -13 5 -16 10 -3 6 -2 10 4 10 5
0 13 -4 16 -10z m-332 -7 c-7 -2 -21 -2 -30 0 -10 3 -4 5 12 5 17 0 24 -2 18
-5z m217 -43 c-12 -8 -12 -10 -1 -10 8 0 12 -3 8 -6 -9 -9 -28 6 -22 17 4 5
12 9 18 9 7 0 6 -4 -3 -10z m223 -7 c-7 -2 -19 -2 -25 0 -7 3 -2 5 12 5 14 0
19 -2 13 -5z m-348 -23 c3 -5 -1 -10 -9 -10 -9 0 -16 5 -16 10 0 6 4 10 9 10
6 0 13 -4 16 -10z m-25 -51 c0 -6 -4 -7 -10 -4 -5 3 -10 11 -10 16 0 6 5 7 10
4 6 -3 10 -11 10 -16z m156 -43 c0 -14 -6 -22 -13 -19 -18 7 -16 43 1 43 8 0
13 -9 12 -24z m81 16 c8 -5 9 -13 3 -22 -8 -13 -10 -12 -10 2 0 9 -8 19 -17
21 -13 3 -14 5 -3 6 8 0 20 -3 27 -7z m-4694 -29 c-7 -2 -19 -2 -25 0 -7 3 -2
5 12 5 14 0 19 -2 13 -5z m4921 -21 c3 -5 -8 -6 -25 -4 -26 4 -29 1 -29 -22 0
-15 -7 -29 -15 -33 -19 -7 -34 5 -19 15 6 4 16 17 23 30 12 22 54 31 65 14z
m70 -47 c-4 -8 -11 -15 -16 -15 -6 0 -5 6 2 15 7 8 8 15 3 15 -5 0 -18 7 -29
15 -17 14 -16 14 13 0 22 -10 30 -20 27 -30z m88 38 c-6 -2 -9 -10 -6 -15 4
-7 2 -8 -5 -4 -13 9 -5 26 12 25 9 0 8 -2 -1 -6z m-243 -63 c25 0 28 -15 5
-24 -16 -6 -53 28 -53 49 0 6 6 2 13 -7 7 -10 23 -18 35 -18z m108 16 c0 -8
-6 -12 -15 -9 -11 5 -11 7 0 14 7 5 13 9 14 9 0 0 1 -6 1 -14z m31 -107 c-3
-8 -7 -3 -11 10 -4 17 -3 21 5 13 5 -5 8 -16 6 -23z m82 -146 c0 -10 -28 -31
-34 -26 -3 4 -6 0 -6 -7 0 -7 -3 -11 -6 -8 -9 9 17 45 32 45 8 0 14 -2 14 -4z
m-56 -18 c-4 -8 -10 -12 -15 -9 -11 6 -2 24 11 24 5 0 7 -7 4 -15z m-354 -60
c-7 -9 -15 -13 -19 -10 -3 3 1 10 9 15 21 14 24 12 10 -5z m35 -4 c-3 -5 -1
-12 5 -16 18 -11 11 -23 -10 -18 -11 3 -20 7 -20 8 0 13 14 35 22 35 5 0 7 -4
3 -9z m79 -26 c3 -8 1 -15 -4 -15 -6 0 -10 7 -10 15 0 8 2 15 4 15 2 0 6 -7
10 -15z m3 -47 c-3 -8 -6 -5 -6 6 -1 11 2 17 5 13 3 -3 4 -12 1 -19z m133 -4
c0 -2 -9 0 -20 6 -11 6 -20 13 -20 16 0 2 9 0 20 -6 11 -6 20 -13 20 -16z
m350 -38 c0 -2 -8 -10 -17 -17 -16 -13 -17 -12 -4 4 13 16 21 21 21 13z
m-1070 -36 c0 -11 -2 -20 -4 -20 -2 0 -6 9 -9 20 -3 11 -1 20 4 20 5 0 9 -9 9
-20z m805 -80 c-3 -5 1 -10 9 -10 10 0 16 -8 15 -22 0 -13 -3 -17 -6 -10 -2 6
-10 9 -15 6 -7 -4 -8 -2 -4 5 4 6 0 14 -8 17 -16 6 -12 24 5 24 6 0 7 -4 4
-10z m42 4 c-3 -3 -12 -4 -19 -1 -8 3 -5 6 6 6 11 1 17 -2 13 -5z m46 -27 c3
-8 -3 -14 -14 -14 -10 -1 -19 3 -19 8 0 6 5 7 10 4 6 -3 10 -1 10 4 0 15 7 14
13 -2z m-163 -37 c0 -5 -7 -7 -15 -4 -8 4 -15 8 -15 10 0 2 7 4 15 4 8 0 15
-4 15 -10z m227 -12 c-3 -8 -6 -5 -6 6 -1 11 2 17 5 13 3 -3 4 -12 1 -19z
m147 -178 c10 -13 9 -13 -6 -1 -10 7 -18 21 -17 30 0 13 1 14 6 1 3 -8 11 -22
17 -30z m-192 -57 c-3 -16 -7 -22 -10 -15 -4 13 4 42 11 42 2 0 2 -12 -1 -27z
m162 -69 c7 -19 2 -18 -19 6 -16 17 -16 20 -3 15 9 -4 19 -13 22 -21z m71 -74
c3 -6 -1 -7 -9 -4 -18 7 -21 14 -7 14 6 0 13 -4 16 -10z m-210 -330 c3 -5 1
-10 -4 -10 -6 0 -11 5 -11 10 0 6 2 10 4 10 3 0 8 -4 11 -10z"/>
<path d="M4320 6423 c0 -22 2 -25 10 -13 13 20 13 40 0 40 -5 0 -10 -12 -10
-27z"/>
<path d="M6850 2912 c0 -5 7 -13 16 -16 10 -4 14 -1 12 6 -5 15 -28 23 -28 10z"/>
<path d="M6890 2901 c0 -11 31 -24 39 -16 3 3 -1 10 -9 15 -19 12 -30 12 -30
1z"/>
<path d="M4108 7423 c7 -3 16 -2 19 1 4 3 -2 6 -13 5 -11 0 -14 -3 -6 -6z"/>
<path d="M4048 7413 c7 -3 16 -2 19 1 4 3 -2 6 -13 5 -11 0 -14 -3 -6 -6z"/>
<path d="M3585 6490 c3 -5 8 -10 11 -10 2 0 4 5 4 10 0 6 -5 10 -11 10 -5 0
-7 -4 -4 -10z"/>
<path d="M3582 6333 c-24 -8 -41 -17 -39 -19 4 -5 97 26 97 32 0 6 -11 4 -58
-13z"/>
<path d="M5730 6342 c0 -5 7 -17 15 -28 15 -19 20 -8 9 20 -6 17 -24 22 -24 8z"/>
<path d="M3480 6270 c-25 -21 -43 -41 -40 -44 7 -7 97 70 90 77 -3 3 -25 -12
-50 -33z"/>
<path d="M5970 6241 c0 -5 5 -13 10 -16 6 -3 10 -2 10 4 0 5 -4 13 -10 16 -5
3 -10 2 -10 -4z"/>
<path d="M3371 6176 c-7 -8 -8 -17 -3 -20 6 -3 13 1 16 10 9 23 2 28 -13 10z"/>
<path d="M3478 6153 c-32 -26 -47 -46 -48 -62 0 -20 2 -22 16 -10 11 9 13 14
4 17 -6 2 10 24 37 48 59 53 54 57 -9 7z"/>
<path d="M3080 6105 c-8 -9 -8 -15 -2 -15 12 0 26 19 19 26 -2 2 -10 -2 -17
-11z"/>
<path d="M3374 6090 c-6 -6 -67 -13 -137 -17 l-127 -6 -1 -31 c-1 -17 -4 -75
-8 -129 -3 -53 -4 -97 -2 -97 8 0 226 167 259 197 23 22 32 40 32 62 0 34 -1
36 -16 21z"/>
<path d="M6046 5858 l7 -223 54 -73 c83 -111 245 -347 420 -607 86 -129 158
-233 160 -232 2 2 -1 100 -6 218 -6 118 -13 307 -17 420 l-7 207 -236 236
c-235 235 -237 237 -289 245 -29 4 -58 13 -65 20 -6 6 -15 11 -19 11 -5 0 -6
-100 -2 -222z"/>
<path d="M2894 5987 c-65 -42 -172 -110 -236 -149 l-118 -72 0 -43 c0 -23 -7
-118 -15 -209 -9 -92 -14 -169 -11 -171 2 -2 106 79 230 181 125 102 242 197
260 211 33 25 34 27 40 123 4 53 9 122 12 153 6 55 5 57 -18 55 -14 0 -78 -36
-144 -79z"/>
<path d="M2735 6043 c-139 -8 -457 -55 -474 -69 -2 -2 36 -42 85 -88 l89 -84
30 16 c34 17 340 198 370 219 21 14 25 14 -100 6z"/>
<path d="M6496 5973 c16 -15 116 -101 221 -191 106 -89 198 -168 205 -175 40
-38 368 -322 763 -660 154 -132 292 -251 308 -265 l27 -26 0 500 0 500 -132
36 c-117 32 -150 42 -218 66 -8 3 -26 7 -40 9 -48 5 -95 16 -106 24 -6 5 -28
11 -50 14 -101 12 -201 33 -224 45 -14 7 -47 15 -75 17 -53 4 -129 16 -210 34
-78 17 -86 19 -149 28 -80 13 -154 30 -196 46 -19 7 -62 15 -95 19 l-60 7 31
-28z"/>
<path d="M2220 5650 l0 -325 75 -53 75 -53 29 22 c34 25 34 26 51 239 14 180
20 221 30 215 9 -5 53 45 46 52 -2 3 -14 -1 -26 -7 -21 -11 -30 -5 -103 66
-45 44 -84 81 -87 84 -3 3 -25 23 -48 45 l-42 39 0 -324z"/>
<path d="M3055 5699 c-11 -17 1 -21 15 -4 8 9 8 15 2 15 -6 0 -14 -5 -17 -11z"/>
<path d="M6690 5487 c0 -32 3 -36 22 -34 31 5 32 20 3 47 l-25 23 0 -36z"/>
<path d="M6811 5328 c0 -40 8 -248 17 -463 l17 -390 579 -865 c318 -476 582
-869 587 -874 5 -6 9 290 9 720 l-1 729 -604 608 -605 607 1 -72z"/>
<path d="M2453 5185 c-15 -17 -16 -25 -3 -25 5 0 14 9 20 20 12 23 1 26 -17 5z"/>
<path d="M6733 4285 c3 -11 8 -33 11 -48 4 -15 11 -25 16 -22 16 10 11 38 -11
65 -17 21 -20 22 -16 5z"/>
</g>
</svg>
