<?xml version="1.0" standalone="no"?>
<!DOCTYPE svg PUBLIC "-//W3C//DTD SVG 20010904//EN"
 "http://www.w3.org/TR/2001/REC-SVG-20010904/DTD/svg10.dtd">
<svg version="1.0" xmlns="http://www.w3.org/2000/svg"
 width="1024.000000pt" height="1024.000000pt" viewBox="0 0 1024.000000 1024.000000"
 preserveAspectRatio="xMidYMid meet">

<g transform="translate(0.000000,1024.000000) scale(0.100000,-0.100000)"
fill="#000000" stroke="none">
<path d="M1280 10070 c0 -168 1 -175 31 -172 4 1 5 -6 3 -16 -3 -11 6 -22 28
-33 18 -9 34 -22 34 -30 1 -8 2 -18 3 -23 0 -5 8 -3 16 4 16 14 45 7 45 -11 0
-8 -4 -8 -15 1 -12 10 -15 10 -15 -3 0 -8 -7 -20 -15 -27 -18 -15 -20 -33 -2
-27 17 6 69 -22 62 -33 -4 -6 -13 -10 -21 -10 -22 0 -28 -27 -10 -45 9 -9 16
-22 15 -28 0 -8 -2 -8 -6 1 -2 6 -9 10 -14 7 -5 -4 -3 -16 4 -28 20 -32 16
-62 -8 -62 -11 0 -26 -5 -32 -12 -15 -14 -17 -27 -3 -18 6 3 10 -3 10 -15 0
-12 -4 -18 -10 -15 -5 3 -10 -3 -10 -14 0 -22 -14 -28 -25 -11 -4 6 -17 4 -36
-5 -27 -14 -29 -20 -29 -70 0 -47 2 -53 19 -50 19 3 69 -51 57 -62 -3 -4 -6
-1 -6 5 0 7 -4 12 -10 12 -5 0 -10 -11 -10 -25 0 -15 6 -25 14 -25 8 0 18 -9
21 -20 3 -11 11 -20 16 -20 5 0 9 -14 9 -31 0 -16 -4 -28 -9 -25 -5 3 -17 -7
-26 -22 -10 -15 -26 -34 -35 -42 -10 -8 -20 -24 -21 -35 -4 -30 11 -95 22 -95
10 0 -7 -35 -28 -58 -15 -16 -17 -108 -3 -117 6 -4 8 -10 5 -15 -3 -5 0 -12 6
-15 5 -4 8 -13 5 -20 -3 -8 -2 -15 2 -17 9 -4 52 -92 52 -107 0 -6 7 -11 15
-11 9 0 15 -9 15 -22 0 -20 6 -23 45 -24 24 -1 62 -11 85 -23 22 -11 47 -21
54 -21 7 0 19 -7 26 -15 7 -9 15 -13 18 -11 2 3 12 -4 21 -14 10 -13 33 -22
66 -25 28 -3 59 -7 70 -9 11 -2 46 -7 78 -11 31 -4 60 -12 63 -16 3 -5 16 -9
30 -9 14 0 27 -6 30 -14 3 -8 13 -14 22 -14 15 2 50 -12 120 -45 12 -6 22 -16
22 -23 0 -7 3 -14 8 -16 4 -1 14 -16 22 -32 8 -16 23 -30 34 -32 49 -7 116
-27 116 -34 0 -5 -8 -11 -17 -13 -16 -4 -16 -5 -1 -6 9 0 20 -10 23 -21 3 -11
11 -20 16 -20 6 0 7 -4 4 -10 -3 -5 -22 -10 -41 -10 -44 0 -36 -16 16 -30 28
-8 38 -15 34 -25 -4 -9 3 -18 19 -24 14 -6 28 -19 32 -30 3 -12 11 -21 16 -21
5 0 9 -11 9 -25 0 -17 7 -26 23 -30 18 -5 22 -12 21 -45 0 -24 5 -41 13 -44 7
-3 10 -12 6 -22 -7 -19 12 -34 47 -34 15 0 32 -6 39 -12 11 -11 13 -9 8 10 -3
12 -1 20 4 16 5 -3 9 1 9 9 0 7 6 14 13 14 9 0 12 -9 9 -23 -3 -17 1 -23 19
-27 24 -4 24 -4 2 -6 -13 0 -23 -5 -23 -10 0 -9 35 -7 61 4 10 4 19 0 22 -9 8
-20 44 -21 63 -1 17 16 39 21 29 6 -12 -20 28 -20 114 1 8 2 16 -3 19 -11 3
-8 0 -11 -7 -7 -6 4 -11 1 -11 -8 0 -8 6 -17 13 -19 6 -3 3 -6 -8 -6 -19 -1
-19 -1 0 -15 29 -19 83 -19 81 1 0 9 5 18 12 20 6 3 12 -3 12 -12 0 -12 8 -16
28 -14 15 1 35 -1 44 -5 20 -9 41 1 33 15 -3 5 2 6 11 2 12 -4 15 -3 10 5 -4
7 -1 12 8 12 8 0 16 -6 19 -12 3 -10 7 -10 20 0 13 11 15 10 10 -6 -3 -14 1
-21 19 -24 32 -6 51 1 40 15 -17 22 -21 46 -10 53 7 4 8 3 4 -4 -4 -7 -4 -12
1 -12 4 0 14 14 22 31 20 46 50 53 54 12 1 -16 4 -18 23 -9 17 8 19 14 11 28
-6 9 -18 19 -27 21 -9 2 -3 7 14 12 38 10 81 -5 82 -30 2 -40 4 -46 17 -44 30
4 47 -2 47 -17 0 -26 -24 -42 -54 -37 -23 5 -27 3 -24 -13 4 -21 79 -42 133
-38 17 1 39 3 50 3 18 1 18 2 -3 17 -12 8 -22 19 -22 25 0 16 21 10 42 -13 16
-19 19 -20 14 -4 -5 15 -2 17 13 13 11 -2 29 2 40 10 23 16 41 10 41 -14 0
-10 -6 -13 -16 -9 -10 4 -14 1 -11 -6 2 -7 -4 -24 -14 -37 -21 -26 -17 -41 11
-41 10 0 22 -4 25 -10 3 -5 0 -10 -8 -10 -8 0 -28 -7 -43 -15 -16 -8 -23 -15
-16 -15 9 0 12 -9 9 -29 -4 -24 -2 -28 11 -24 10 4 13 2 8 -5 -5 -8 -2 -10 8
-6 9 3 16 1 16 -5 0 -6 -5 -11 -11 -11 -5 0 -8 -4 -4 -10 14 -23 31 3 29 44
-3 40 -1 44 22 44 25 0 33 -13 12 -20 -16 -6 -21 -48 -5 -48 8 0 17 3 21 7 13
14 54 11 49 -3 -6 -16 19 -43 44 -47 30 -4 45 -18 40 -38 -3 -11 1 -20 12 -22
14 -4 14 -5 -1 -6 -24 -1 -23 -16 1 -18 11 -1 22 6 24 15 3 9 5 4 6 -12 1 -21
5 -27 16 -22 10 3 15 -1 15 -14 0 -10 5 -22 10 -25 6 -3 10 -1 10 6 0 7 3 9 7
6 3 -4 17 3 31 15 23 23 24 23 38 4 8 -11 14 -34 15 -50 0 -17 3 -25 6 -18 2
6 9 10 14 6 8 -4 15 43 10 69 -1 5 3 6 9 2 5 -3 7 -17 4 -30 -4 -15 0 -30 9
-40 19 -19 28 -19 21 -1 -3 8 -1 17 4 20 6 3 13 -5 16 -19 7 -27 36 -25 36 4
0 14 -2 14 -10 1 -8 -12 -10 -9 -10 13 0 23 4 27 26 27 23 0 26 -3 22 -29 -3
-23 -1 -27 14 -23 10 2 21 8 24 13 3 5 15 2 27 -6 15 -9 27 -11 37 -5 8 5 10
10 5 10 -6 0 -11 10 -12 21 l-2 22 15 -22 c12 -17 25 -21 65 -21 28 0 59 5 70
10 13 7 19 7 19 0 0 -5 6 -10 14 -10 19 0 57 -53 48 -66 -4 -6 -15 -13 -24
-17 -11 -4 -18 -17 -18 -32 0 -30 -20 -34 -27 -5 -3 11 -10 17 -15 14 -5 -4 2
-18 16 -33 40 -41 4 -68 -58 -42 -16 6 -32 9 -35 5 -3 -4 0 -9 7 -12 10 -3 7
-8 -9 -16 -34 -17 -42 -50 -17 -73 20 -16 21 -17 15 0 -4 9 -2 18 3 18 20 3
25 4 38 13 16 10 62 -19 62 -39 0 -8 5 -15 10 -15 6 0 10 -5 10 -11 0 -5 -5
-7 -12 -3 -7 5 -8 3 -3 -5 5 -9 12 -7 26 8 10 11 19 24 19 28 0 4 18 16 39 27
40 19 83 16 126 -7 31 -17 48 -17 66 -1 9 8 34 13 60 13 34 -1 50 -8 69 -29
54 -57 54 -57 32 -85 -13 -16 -23 -22 -27 -15 -5 8 -13 7 -29 -3 -18 -12 -23
-12 -35 0 -8 9 -23 12 -41 8 -20 -4 -29 -2 -33 9 -4 9 -1 16 5 16 9 0 9 3 1
11 -6 6 -21 8 -33 4 -13 -4 -19 -10 -14 -14 5 -3 9 -26 9 -50 0 -36 -4 -45
-20 -48 -43 -10 -118 -6 -111 5 7 12 -5 25 -58 60 -37 24 -52 29 -58 20 -4 -8
-8 -9 -8 -2 0 6 -7 11 -15 11 -10 0 -8 -6 8 -22 12 -12 24 -20 27 -19 3 2 12
-1 20 -7 12 -7 12 -9 -3 -9 -10 0 -25 -7 -33 -15 -9 -8 -11 -15 -5 -15 15 0
14 -77 -1 -83 -7 -3 -2 -6 11 -6 14 -1 39 -17 61 -40 24 -25 37 -33 36 -23 -1
15 8 16 59 13 33 -2 62 -7 65 -11 3 -5 29 -20 58 -35 46 -23 58 -38 53 -67 0
-5 5 -8 13 -8 27 0 28 -20 2 -31 -14 -7 -28 -20 -31 -31 -4 -10 -11 -18 -16
-18 -6 0 -7 5 -4 10 3 6 1 10 -4 10 -6 0 -11 -5 -11 -11 0 -6 -9 -8 -20 -4
-14 5 -20 2 -20 -9 0 -9 6 -16 13 -16 8 0 7 -4 -3 -11 -12 -8 -12 -10 5 -8 35
2 45 -1 45 -14 0 -7 9 -18 21 -25 12 -8 18 -9 14 -3 -4 7 2 10 17 8 13 -2 24
-12 26 -21 2 -9 0 -16 -5 -15 -20 3 -23 -2 -9 -16 8 -8 36 -17 63 -20 26 -2
40 -2 31 1 -22 7 -24 24 -3 24 8 0 15 5 15 10 0 10 -14 14 -37 11 -22 -3 -14
16 9 23 40 10 68 7 68 -9 0 -8 9 -15 20 -15 18 0 19 3 9 21 -6 12 -7 25 -2 30
13 13 86 14 111 0 12 -6 23 -8 23 -4 6 34 4 70 -3 80 -17 22 12 24 41 4 16
-12 31 -17 33 -11 1 5 27 12 56 15 40 4 64 0 97 -15 50 -23 59 -24 49 -9 -7
12 13 29 36 29 8 0 27 -11 40 -23 17 -16 32 -22 45 -17 12 4 15 9 7 14 -16 9
-5 33 19 39 28 7 14 33 -18 31 -15 0 -29 -6 -31 -12 -2 -7 -21 -12 -41 -12
-25 0 -44 -7 -56 -20 -23 -25 -30 -25 -55 0 -25 25 -25 34 0 27 14 -3 30 3 48
19 25 23 25 25 5 19 -22 -6 -86 8 -111 23 -7 5 -14 22 -16 38 -3 23 -9 30 -32
34 l-29 5 25 18 c13 9 19 17 12 17 -7 0 -10 4 -7 10 3 5 0 7 -8 4 -11 -4 -14
4 -13 33 1 32 7 41 45 66 38 26 47 29 76 20 22 -7 48 -7 77 -1 38 9 50 7 87
-11 34 -18 45 -20 57 -10 11 9 18 9 26 1 7 -7 20 -12 29 -12 9 0 22 -7 30 -16
15 -18 58 -11 76 12 7 10 23 14 44 12 26 -2 35 2 48 23 9 14 26 41 38 60 26
39 28 49 11 50 -7 1 -17 2 -23 4 -5 1 -18 3 -27 3 -10 1 -18 8 -18 16 0 7 -7
19 -15 26 -8 7 -12 16 -10 20 9 15 67 40 91 40 25 0 87 -56 78 -71 -6 -10 29
-13 39 -3 3 4 -2 18 -13 31 -31 40 -6 68 40 43 11 -6 21 -6 24 -1 3 5 -6 12
-19 15 -14 4 -31 18 -37 31 -13 29 -21 31 -38 10 -16 -20 -27 -11 -27 21 0 18
7 28 23 34 25 10 57 3 49 -10 -7 -11 32 -20 87 -20 27 0 50 5 55 13 8 13 88
37 124 37 11 0 40 -12 65 -26 33 -19 48 -23 57 -15 15 12 64 -9 84 -35 6 -9
16 -13 22 -9 7 3 11 -2 11 -14 0 -11 5 -23 10 -26 18 -11 8 -65 -12 -65 -46 0
-19 -54 45 -89 21 -11 35 -16 31 -10 -4 7 4 9 22 7 16 -2 28 -7 27 -13 -3 -18
28 -43 60 -48 18 -3 42 -8 55 -12 16 -5 22 -3 22 7 0 9 -17 20 -39 26 -21 7
-43 18 -48 25 -15 19 -22 56 -12 63 19 11 8 25 -18 22 -20 -2 -28 2 -28 12 0
11 9 14 33 12 33 -4 82 19 82 38 0 6 -9 10 -19 10 -26 0 -34 15 -21 40 13 25
49 22 72 -5 12 -15 28 -20 64 -20 41 0 49 -3 52 -20 5 -34 24 -63 43 -68 11
-3 21 -1 24 3 3 5 20 -4 37 -20 37 -34 85 -54 94 -39 3 6 7 21 9 35 2 22 -2
24 -39 26 -22 0 -46 1 -52 1 -18 -1 -10 54 10 76 22 24 52 20 108 -16 21 -12
42 -23 48 -23 5 0 20 -10 31 -21 19 -19 23 -20 30 -6 8 13 13 14 37 2 21 -10
40 -11 82 -3 30 5 59 14 65 19 14 14 30 11 56 -12 l24 -21 -36 7 c-28 5 -39 3
-45 -8 -5 -8 -20 -17 -33 -19 -20 -2 -27 -12 -37 -50 -10 -42 -10 -46 5 -41
27 10 9 -3 -43 -30 -45 -24 -51 -25 -77 -11 -16 8 -28 18 -28 22 4 26 -3 29
-57 20 -30 -5 -59 -6 -64 -3 -19 12 -137 -55 -123 -69 3 -3 -1 -6 -11 -6 -9 0
-15 -4 -11 -9 3 -6 14 -8 25 -6 11 2 22 0 25 -6 11 -18 25 -9 25 16 0 23 2 25
21 14 15 -7 24 -8 32 0 7 7 16 7 29 0 28 -15 22 -26 -21 -33 -45 -7 -60 -21
-63 -63 -1 -19 -7 -29 -14 -26 -6 2 -19 -3 -27 -12 -12 -12 -26 -14 -52 -9
-30 5 -36 3 -46 -19 -13 -30 -5 -77 15 -77 7 0 18 -11 24 -24 9 -19 7 -27 -8
-44 -18 -19 -18 -20 9 -46 15 -15 39 -26 54 -26 15 0 27 -3 27 -7 -1 -11 -57
-49 -105 -71 -22 -11 -46 -26 -53 -35 -7 -8 -32 -19 -55 -22 -39 -7 -136 -69
-137 -88 0 -5 4 -5 10 -2 6 3 10 1 10 -4 0 -16 -19 -13 -36 4 -9 8 -25 13 -37
11 -12 -3 -37 -8 -54 -12 -26 -5 -34 -3 -39 11 -5 11 -1 21 9 27 10 5 17 14
17 19 0 15 26 39 34 31 9 -8 26 18 26 40 0 9 -7 24 -16 32 -14 14 -19 14 -51
1 -46 -20 -53 -19 -53 5 0 11 -7 23 -15 26 -17 7 -45 -18 -45 -40 0 -10 -9
-16 -22 -17 -13 0 -41 -1 -63 -3 -22 -1 -61 -3 -87 -4 -55 -2 -78 -27 -56 -62
10 -16 10 -22 -2 -34 -20 -19 -147 -59 -160 -51 -6 4 -18 1 -27 -7 -9 -7 -19
-12 -22 -10 -14 8 -10 -18 4 -30 9 -7 24 -21 33 -32 9 -10 23 -24 30 -31 6 -8
8 -16 3 -19 -5 -3 -12 2 -16 12 -6 16 -7 16 -16 0 -6 -10 -17 -18 -24 -18 -8
0 -15 -9 -15 -20 0 -15 -8 -22 -30 -26 -45 -10 -80 -80 -49 -100 12 -7 -15
-28 -36 -29 -17 -1 -37 24 -29 36 4 8 3 9 -4 5 -7 -4 -12 -3 -12 2 0 6 -9 8
-20 5 -14 -4 -20 0 -20 12 0 9 -6 15 -12 12 -7 -2 -12 -13 -10 -25 4 -28 -23
-79 -51 -93 -12 -7 -23 -12 -24 -11 -2 1 -6 2 -9 2 -4 0 7 -14 25 -30 17 -17
29 -35 26 -40 -4 -6 -1 -10 4 -10 6 0 11 -6 11 -14 0 -16 50 -28 51 -12 0 6 4
1 9 -11 5 -12 21 -25 35 -29 14 -3 25 -12 25 -19 0 -8 8 -13 19 -12 11 1 17 7
14 17 -6 21 21 43 44 36 10 -3 31 -18 47 -33 24 -22 38 -27 78 -26 27 0 52 3
55 7 15 15 64 3 103 -25 28 -20 45 -27 49 -20 4 6 25 12 47 13 44 1 110 -34
139 -74 15 -22 16 -22 30 -4 8 11 21 16 30 13 8 -4 26 -2 39 3 17 6 30 4 45
-7 12 -8 36 -17 53 -20 17 -3 40 -16 50 -29 12 -15 30 -24 47 -24 33 0 50 -16
44 -41 -6 -20 -23 -26 -23 -8 0 8 -5 7 -15 -1 -13 -10 -20 -11 -39 -1 -13 7
-32 12 -42 10 -26 -3 -55 10 -80 37 -26 27 -48 17 -39 -18 7 -27 -5 -35 -70
-45 -16 -2 -31 -9 -33 -14 -2 -5 -10 -9 -18 -9 -20 0 -17 28 4 33 15 4 -12 8
-82 11 -11 1 -21 7 -24 14 -2 6 -8 12 -13 12 -6 0 -7 -4 -4 -10 3 -5 -1 -19
-9 -31 -8 -12 -12 -28 -9 -35 3 -8 0 -14 -6 -14 -6 0 -11 8 -11 17 0 11 -3 14
-10 7 -6 -6 -6 -21 -1 -41 8 -26 6 -30 -8 -27 -9 3 -29 0 -46 -4 -32 -9 -52 1
-116 59 -15 15 -51 32 -79 39 -27 7 -50 15 -50 19 0 11 -131 4 -143 -8 -6 -6
-17 -11 -25 -11 -29 0 -82 -33 -82 -50 0 -10 -7 -20 -15 -24 -19 -7 -19 4 0
40 23 45 19 51 -31 49 -25 -1 -51 3 -57 9 -7 6 -22 11 -34 10 -21 -1 -21 0 -5
21 9 12 23 20 32 18 10 -3 16 3 17 16 2 18 -4 20 -51 19 -59 -2 -71 3 -79 32
-4 15 0 20 14 20 19 0 23 9 20 43 -1 9 4 17 13 17 25 0 19 17 -8 24 -30 7 -45
55 -22 68 10 6 16 23 16 44 0 21 4 33 10 29 6 -3 10 1 10 10 0 9 -4 13 -10 10
-10 -6 -14 7 -11 32 1 7 -8 17 -19 23 -24 13 -25 23 -5 44 13 12 13 19 3 35
-16 26 -49 34 -62 16 -6 -8 -23 -16 -38 -17 -31 -3 -36 -19 -13 -38 10 -9 15
-9 15 -1 0 6 4 11 9 11 4 0 6 -11 3 -25 -2 -14 -11 -25 -18 -25 -8 0 -14 -9
-14 -19 0 -11 -5 -21 -11 -23 -8 -3 -10 -16 -5 -41 4 -21 11 -35 17 -32 5 4 9
1 9 -4 0 -6 3 -10 8 -10 25 4 32 -5 7 -10 -25 -5 -31 -11 -33 -40 -2 -21 0
-31 7 -26 7 3 11 -2 11 -14 0 -26 -37 -70 -68 -82 -13 -5 -21 -12 -18 -17 2
-4 -8 -8 -24 -8 -15 -1 -38 -9 -51 -17 l-22 -16 27 -11 c23 -8 26 -13 16 -24
-9 -12 -8 -20 5 -40 11 -16 16 -40 13 -68 -3 -40 -1 -43 27 -48 17 -3 44 -1
60 6 17 6 46 10 65 8 71 -8 158 -9 153 -1 -2 4 5 7 17 7 12 0 19 -4 16 -8 -2
-4 -1 -14 3 -20 5 -9 15 -5 36 15 l28 28 -8 -35 c-9 -46 -38 -107 -43 -92 -9
29 -82 4 -82 -28 0 -16 -7 -20 -30 -20 -17 0 -33 6 -36 14 -9 25 -44 15 -44
-12 0 -20 -4 -23 -22 -19 -16 4 -30 -1 -47 -18 -25 -27 -41 -32 -41 -14 0 16
-41 50 -52 43 -5 -3 -15 0 -23 6 -8 7 -24 9 -36 5 -22 -7 -69 11 -69 27 0 5 8
4 18 -1 23 -12 62 -3 62 14 0 8 8 16 18 18 14 4 14 5 -3 6 -11 0 -26 -3 -34
-8 -7 -5 -29 -5 -50 0 -20 4 -40 4 -45 -1 -5 -5 -29 -7 -52 -3 -24 3 -49 1
-56 -4 -7 -6 -57 -11 -110 -11 -90 0 -99 2 -129 27 -18 15 -33 35 -35 45 -2
14 0 15 14 4 13 -11 15 -10 10 10 -4 12 -2 22 3 22 5 0 9 5 9 12 0 6 -3 9 -6
5 -6 -6 -132 39 -150 54 -6 5 -14 6 -17 2 -4 -3 -7 -1 -7 5 0 7 -9 12 -21 12
-13 0 -18 4 -13 12 4 7 3 8 -5 4 -6 -4 -9 -10 -7 -14 2 -4 -2 -13 -10 -20 -8
-7 -14 -8 -14 -2 0 19 -3 25 -19 37 -19 13 -34 7 -24 -10 4 -8 1 -7 -9 1 -14
11 -18 10 -28 -5 -10 -16 -11 -16 -6 -1 3 10 1 20 -4 23 -6 4 -10 2 -10 -3 0
-5 -12 -15 -27 -22 -23 -11 -25 -14 -10 -17 21 -5 23 -23 2 -23 -8 0 -15 -4
-15 -9 0 -5 23 -12 50 -16 48 -7 73 -29 28 -24 -13 1 -41 -6 -63 -15 -101 -44
-125 -58 -125 -76 0 -10 -4 -22 -10 -25 -6 -3 -10 -17 -10 -30 0 -13 -9 -33
-21 -44 -13 -12 -18 -24 -13 -32 5 -9 2 -10 -9 -6 -14 5 -17 0 -17 -27 0 -18
-6 -39 -14 -45 -12 -10 -12 -16 0 -39 12 -24 12 -28 -3 -39 -9 -7 -11 -13 -5
-13 7 0 12 -13 12 -28 0 -15 5 -33 12 -40 6 -6 11 -31 10 -55 -2 -33 3 -49 20
-68 16 -17 27 -47 34 -89 10 -61 10 -64 -16 -94 -42 -49 -53 -75 -46 -117 6
-37 5 -38 -28 -44 -39 -8 -136 -61 -136 -75 0 -6 -30 -10 -67 -10 -50 0 -81
-6 -119 -24 -55 -25 -94 -61 -94 -84 0 -21 -78 -191 -107 -234 -22 -32 -24
-44 -19 -83 4 -25 3 -60 -2 -78 -6 -18 -20 -83 -33 -146 l-23 -114 -160 7
c-166 7 -201 8 -446 5 -209 -2 -664 12 -670 20 -8 11 -40 21 -40 13 0 -11
-170 -3 -192 9 -13 7 -18 6 -18 -2 0 -8 -27 -10 -101 -4 -140 10 -159 12 -177
27 -12 10 -14 10 -8 1 5 -10 -4 -13 -36 -12 -24 0 -37 3 -30 6 24 10 11 18
-33 20 -51 2 -62 -14 -12 -20 l32 -4 -32 -1 c-17 -1 -38 4 -45 10 -15 15 -48
20 -48 8 0 -5 8 -11 18 -13 13 -4 11 -5 -5 -6 -16 -1 -23 5 -23 17 0 10 -7 19
-15 19 -8 0 -12 -4 -9 -9 8 -13 -21 -9 -34 4 -10 10 -15 10 -22 -2 -5 -8 -12
-11 -16 -8 -4 4 -16 3 -27 -3 -13 -8 -17 -8 -13 0 4 5 -3 15 -14 21 -11 6 -19
14 -16 18 2 4 -13 6 -35 4 -25 -3 -39 0 -39 8 0 6 5 8 10 5 6 -3 10 0 10 7 0
8 -8 14 -19 14 -16 0 -19 -9 -20 -63 -1 -59 0 -63 21 -63 13 0 129 -4 258 -9
129 -6 341 -12 470 -16 129 -3 260 -8 290 -10 30 -3 246 -14 480 -25 234 -11
488 -25 565 -30 77 -5 152 -10 168 -10 24 0 27 -4 27 -31 0 -17 -20 -77 -43
-133 -55 -127 -63 -148 -78 -216 -7 -30 -19 -60 -28 -67 -9 -7 -11 -13 -5 -13
16 0 13 -33 -5 -48 -14 -11 -14 -11 2 -6 13 5 16 2 11 -10 -7 -17 -29 -22 -38
-7 -3 5 -21 2 -41 -7 -23 -11 -31 -19 -22 -24 8 -5 7 -8 -5 -8 -10 0 -18 -4
-18 -10 0 -5 7 -7 15 -4 11 5 13 2 9 -10 -4 -10 -13 -15 -20 -12 -8 3 -11 0
-7 -11 3 -8 0 -19 -8 -24 -12 -7 -12 -9 0 -9 8 0 19 7 26 17 15 20 50 10 41
-12 -3 -9 0 -15 8 -15 7 0 19 -7 27 -16 10 -13 10 -17 0 -24 -11 -6 -11 -9 0
-13 9 -3 6 -8 -11 -15 -18 -8 -20 -11 -7 -11 13 -1 17 -10 17 -36 0 -20 -8
-42 -17 -52 -11 -11 -17 -29 -15 -47 2 -18 -4 -36 -16 -50 -11 -11 -23 -31
-27 -44 -6 -22 -8 -22 -25 -7 -11 10 -20 12 -24 6 -4 -5 -1 -13 5 -17 8 -5 8
-9 -1 -14 -9 -6 -6 -14 10 -30 22 -22 22 -24 5 -37 -24 -16 -45 -17 -45 0 0 8
-4 7 -10 -3 -17 -26 -11 -40 18 -40 l27 -1 -22 -18 c-12 -10 -29 -35 -37 -56
-17 -41 -21 -58 -7 -36 6 9 16 11 32 6 l24 -8 -25 -10 c-21 -8 -22 -11 -7 -14
9 -3 17 -13 17 -24 0 -16 -5 -18 -36 -13 -32 5 -36 3 -30 -12 5 -13 4 -15 -7
-5 -11 8 -18 7 -31 -7 -9 -10 -13 -22 -9 -25 3 -4 1 -7 -5 -7 -17 0 -15 50 2
56 9 3 12 12 9 21 -5 13 -1 15 20 9 20 -5 27 -3 27 9 0 8 -8 15 -17 15 -15 0
-16 2 -3 10 12 8 11 10 -7 10 -12 0 -24 -6 -26 -12 -4 -10 -6 -10 -6 0 -1 6
-6 12 -12 12 -6 0 -9 -7 -5 -15 5 -13 3 -13 -17 0 -23 15 -67 10 -67 -7 0 -6
6 -8 14 -5 8 3 17 1 20 -6 3 -9 7 -8 15 3 5 8 13 11 17 7 4 -4 -3 -18 -15 -31
-20 -21 -32 -25 -83 -27 -7 0 -37 4 -65 9 -29 5 -53 6 -53 1 0 -4 22 -10 49
-14 28 -4 55 -13 62 -21 9 -11 9 -14 -1 -14 -9 0 -7 -7 5 -20 10 -11 20 -18
23 -15 3 3 13 -2 23 -11 18 -16 27 -16 129 1 29 4 31 4 13 -5 -13 -5 -23 -18
-23 -30 0 -13 -7 -20 -20 -20 -11 0 -20 4 -20 8 0 4 -59 8 -130 8 -113 -1
-127 -3 -103 -14 26 -11 25 -12 -24 -9 -29 2 -53 0 -53 -4 0 -10 -43 -18 -125
-23 -38 -3 -71 -10 -73 -15 -2 -6 -10 -11 -18 -11 -8 0 -14 -4 -14 -9 0 -12
66 -3 100 14 18 9 30 9 45 1 21 -12 32 -56 14 -56 -6 0 -9 -7 -5 -15 3 -10 -1
-15 -14 -15 -10 0 -22 -5 -26 -11 -5 -8 -92 -9 -313 -4 -386 10 -423 13 -443
33 -7 7 -26 12 -42 12 -37 0 -25 15 24 28 l35 10 -50 1 c-27 0 -62 2 -77 4
-16 3 -28 0 -28 -4 0 -18 -71 -9 -92 11 -19 18 -20 20 -4 20 9 0 14 4 11 10
-3 5 1 10 9 10 9 0 16 -4 16 -10 0 -5 10 -10 23 -10 18 0 19 2 7 10 -11 7 -1
10 35 11 l50 2 -47 6 c-26 4 -83 6 -127 5 -45 -1 -78 2 -75 7 3 5 18 9 35 9
18 0 28 5 27 13 -2 6 2 11 8 10 6 -1 11 4 11 12 0 10 -6 11 -23 5 -12 -5 -24
-7 -25 -6 -2 2 -24 6 -48 10 -39 6 -43 5 -31 -9 11 -13 8 -15 -16 -16 -16 -1
-44 -3 -61 -5 -20 -2 -33 1 -33 7 0 6 6 9 14 6 13 -5 31 18 28 35 -1 5 10 8
24 8 23 0 25 2 13 16 -12 14 -11 16 6 12 11 -2 19 -11 19 -21 -1 -9 2 -17 7
-17 5 0 9 4 9 10 0 5 7 7 15 4 8 -4 15 -1 15 5 0 6 -5 11 -11 11 -6 0 -9 6 -7
13 3 7 23 12 51 13 26 0 56 8 69 18 22 16 18 17 -90 12 -129 -6 -150 1 -127
45 9 16 22 24 42 25 76 2 138 24 102 36 -7 2 -9 13 -5 26 6 17 14 21 36 18 16
-2 27 1 24 5 -3 5 5 9 18 9 34 0 49 12 33 27 -9 8 -20 7 -43 -4 -28 -14 -33
-14 -47 1 -9 9 -21 16 -26 16 -6 0 -8 4 -5 9 4 5 0 12 -6 14 -8 4 -7 6 4 6 10
1 22 16 29 36 8 22 19 34 29 32 8 -1 15 5 15 13 0 18 -77 24 -110 9 -19 -9
-18 -9 3 -5 14 3 22 -1 22 -10 0 -8 -8 -14 -17 -15 -11 0 -13 -3 -5 -6 6 -2
12 -12 12 -20 0 -10 -6 -13 -16 -9 -9 3 -20 6 -25 6 -6 0 -7 5 -4 10 4 6 -5
10 -19 10 -14 0 -26 -4 -26 -8 0 -5 -7 -9 -15 -9 -8 0 -12 4 -9 9 3 4 -3 8
-13 8 -10 0 -25 5 -33 11 -13 9 -12 10 3 5 11 -3 17 0 17 9 0 8 -4 15 -10 15
-5 0 -10 5 -10 10 0 19 28 10 33 -10 4 -15 14 -20 36 -20 24 0 29 4 24 16 -4
11 -13 14 -29 10 -18 -5 -24 -2 -24 10 0 12 6 15 25 10 14 -4 34 -1 45 6 17
11 26 10 51 -4 30 -17 30 -17 24 2 -4 11 -2 20 4 20 6 0 11 -5 11 -11 0 -6 7
-8 16 -5 10 4 13 2 8 -7 -5 -7 -1 -7 10 2 12 10 14 17 6 25 -15 15 -12 29 5
22 8 -3 15 -1 15 4 0 6 -12 10 -27 11 -16 0 -22 3 -15 6 16 6 6 23 -15 23 -9
0 -13 -6 -10 -14 3 -8 -1 -17 -9 -20 -8 -3 -14 1 -14 9 0 8 -7 15 -15 15 -8 0
-15 5 -15 11 0 6 6 9 14 6 8 -3 17 -3 21 1 12 12 73 9 69 -3 -3 -6 2 -12 11
-12 9 0 14 5 12 12 -3 7 7 11 26 10 17 0 32 6 35 14 3 10 -2 12 -19 9 -13 -3
-35 -2 -49 3 l-25 8 25 -1 c49 -1 55 2 56 27 2 26 -14 33 -33 14 -8 -8 -20 -6
-42 6 -17 9 -36 13 -42 10 -5 -4 -17 -1 -26 6 -13 12 -12 14 13 21 15 4 48 5
73 2 31 -4 42 -2 32 4 -7 5 -22 7 -32 5 -10 -3 -19 0 -19 6 0 6 -12 11 -27 10
-39 -3 -93 11 -93 23 0 7 19 9 54 4 34 -4 57 -2 61 4 4 6 3 10 -2 9 -4 -1 -21
-1 -36 0 l-28 1 28 26 c22 21 25 27 13 34 -22 14 -33 12 -27 -5 4 -8 2 -17 -2
-20 -13 -7 -20 17 -14 49 l6 28 -27 -17 c-28 -18 -33 -14 -40 32 -2 12 -11 18
-27 18 -14 0 -24 6 -24 15 -1 15 -8 16 -37 5 -10 -4 -18 -3 -18 3 0 6 16 16
36 22 25 8 34 16 30 27 -3 8 -6 17 -6 19 0 2 -7 4 -16 4 -21 0 -11 47 14 67
15 13 14 13 -8 7 -14 -4 -31 -9 -37 -11 -7 -3 -13 0 -13 6 0 6 9 11 21 11 11
0 18 4 15 9 -7 10 17 21 45 21 26 0 24 17 -2 25 -15 5 -18 9 -9 15 9 5 9 9 1
14 -14 9 -5 25 23 37 21 9 21 10 -2 5 -32 -6 -39 12 -52 142 -1 10 -19 -2 -23
-15 -2 -10 -8 -26 -12 -36 -6 -14 -3 -16 11 -11 18 5 18 5 1 -6 -9 -6 -14 -16
-11 -22 4 -6 1 -9 -7 -6 -8 3 -13 11 -12 19 3 24 13 73 18 86 2 7 -1 15 -7 19
-7 4 -8 3 -4 -4 4 -7 1 -12 -10 -12 -14 0 -15 -2 -3 -17 8 -9 10 -14 4 -11 -6
3 -11 -7 -12 -24 -3 -36 -7 -43 -23 -33 -9 6 -9 10 1 16 10 6 8 9 -9 9 -13 0
-21 -4 -18 -9 4 -5 3 -17 0 -26 -10 -24 -22 0 -16 31 3 19 9 24 23 21 22 -6
31 5 23 26 -3 9 -13 13 -26 10 -16 -5 -19 -2 -16 17 3 23 -25 50 -38 37 -5 -4
-9 -86 -11 -181 -4 -171 -3 -174 17 -169 11 3 17 10 14 15 -7 10 13 28 31 28
6 0 4 -4 -4 -9 -20 -13 -4 -33 18 -22 19 10 50 -3 38 -16 -5 -4 -12 -1 -17 7
-8 13 -10 12 -10 -3 0 -10 -4 -15 -10 -12 -5 3 -10 1 -10 -5 0 -6 10 -8 24 -4
13 3 34 0 47 -6 21 -12 21 -13 4 -22 -12 -8 -20 -7 -26 3 -5 8 -9 9 -9 3 0 -5
5 -15 10 -20 7 -7 1 -9 -20 -6 -26 4 -29 7 -18 19 11 14 8 15 -21 8 -29 -6
-33 -5 -28 9 5 11 1 16 -13 16 -13 0 -20 -7 -20 -20 0 -11 5 -20 10 -20 6 0
10 -9 10 -21 0 -11 -4 -17 -10 -14 -7 4 -10 -82 -10 -251 0 -232 2 -258 18
-271 16 -14 16 -14 0 -9 -16 5 -18 -2 -18 -44 0 -32 4 -49 11 -48 6 2 14 -3
16 -9 3 -7 -2 -13 -11 -13 -14 0 -16 -49 -16 -481 0 -433 2 -480 15 -469 12
10 19 10 27 2 18 -18 30 -14 21 5 -18 39 -9 58 32 68 22 6 49 15 60 21 11 6
26 9 33 7 7 -3 12 3 12 14 0 14 2 15 9 5 7 -11 9 -11 14 1 3 8 17 13 36 12 40
-2 49 -12 26 -29 -17 -12 -15 -13 15 -19 27 -6 31 -9 20 -22 -7 -8 -21 -15
-31 -15 -10 0 -24 -9 -31 -19 -6 -10 -17 -17 -24 -14 -6 2 -15 -1 -19 -8 -6
-8 -12 -4 -21 12 l-13 24 -1 -24 c0 -18 -4 -22 -18 -19 -13 4 -22 -3 -31 -22
-6 -16 -19 -27 -29 -26 -13 1 -17 -7 -17 -31 0 -18 -3 -33 -7 -33 -5 0 -8 -7
-8 -15 0 -8 -5 -15 -11 -15 -6 0 -9 -7 -5 -15 6 -18 -10 -20 -20 -3 -5 7 -11
5 -21 -7 -9 -14 -13 -59 -13 -167 0 -125 2 -148 15 -148 8 0 15 -4 15 -10 0
-5 -6 -10 -13 -10 -10 0 -14 -24 -16 -90 -2 -76 0 -89 12 -84 8 3 18 1 22 -5
5 -10 -7 -15 -27 -12 -5 0 -8 -12 -8 -28 0 -24 5 -30 30 -35 17 -3 30 -10 30
-15 0 -6 -13 -17 -30 -26 l-30 -16 0 -314 0 -315 185 0 c158 0 185 2 185 15 0
8 7 15 16 15 14 0 14 -3 4 -15 -11 -13 19 -15 263 -15 259 0 277 1 286 19 8
13 27 20 73 25 79 9 241 52 288 77 40 22 53 23 79 8 11 -8 29 -9 47 -4 l29 8
-33 13 c-50 22 -29 34 56 34 42 0 128 10 189 22 114 22 143 20 107 -7 -10 -8
-16 -15 -12 -15 5 0 -2 -11 -14 -25 -15 -18 -24 -22 -29 -13 -6 9 -11 9 -23
-1 -9 -7 -13 -18 -9 -24 3 -5 1 -7 -5 -3 -6 3 -32 -7 -59 -23 -49 -30 -153
-63 -253 -79 -33 -6 1201 -10 3128 -11 l3182 -1 0 2525 0 2525 -25 0 c-32 0
-32 13 0 30 l25 13 0 1089 c0 1108 0 1095 -34 1089 -4 -1 -14 3 -21 9 -14 11
-9 49 6 52 27 4 34 1 40 -22 4 -14 7 640 8 1453 l1 1477 -1184 0 c-1175 0
-1184 0 -1189 -20 -6 -25 -29 -27 -25 -2 3 14 -7 17 -64 20 -62 3 -68 1 -68
-17 0 -12 -11 -23 -30 -30 -27 -9 -34 -7 -64 19 l-34 30 -414 0 c-309 0 -417
-3 -426 -12 -9 -9 -12 -9 -12 0 0 21 -47 14 -53 -8 -5 -21 6 -34 41 -44 24 -8
29 3 10 22 -7 7 -8 12 -2 12 5 0 17 -9 27 -20 16 -19 16 -22 0 -46 -16 -25
-17 -25 -31 -8 -7 11 -17 18 -22 17 -5 -2 -21 2 -35 7 -21 8 -24 14 -19 36 4
17 2 29 -7 35 -20 13 -449 9 -449 -4 0 -7 -4 -7 -12 1 -7 7 -43 12 -92 12 -72
0 -78 -1 -60 -15 10 -8 14 -15 8 -15 -6 0 -17 7 -24 15 -14 17 -160 19 -157 2
1 -6 -7 -11 -18 -11 -11 0 -19 5 -18 12 2 9 -115 12 -511 12 -511 0 -514 0
-509 -20 3 -11 9 -23 14 -26 13 -8 11 -44 -2 -44 -14 0 -47 38 -59 68 l-10 22
-1090 0 -1090 0 0 -170z m3410 112 c0 -26 -25 -5 -27 23 -2 26 -1 26 12 9 8
-11 15 -25 15 -32z m-105 -7 c0 -10 -7 -20 -15 -22 -12 -4 -12 -3 -1 5 9 7 10
12 2 16 -15 10 -14 29 2 24 6 -3 12 -13 12 -23z m223 -15 c25 -32 26 -74 2
-76 -33 -2 -40 -4 -40 -13 0 -5 11 -11 25 -13 16 -4 25 -1 25 8 0 12 36 30 53
26 11 -3 8 13 -5 26 -9 9 -6 14 13 21 13 5 27 7 32 4 4 -2 7 1 7 6 0 24 32 9
41 -19 8 -23 15 -28 26 -21 9 4 24 6 33 4 10 -3 21 0 25 7 5 8 12 6 26 -6 12
-11 29 -15 50 -12 30 5 31 4 13 -9 -18 -14 -18 -15 9 -34 15 -12 27 -25 27
-30 0 -5 9 -18 19 -28 14 -14 22 -16 30 -8 8 8 4 19 -16 39 -26 27 -26 29 -10
46 13 12 20 14 25 5 4 -6 21 -13 37 -15 23 -2 29 1 27 13 -4 26 26 31 49 8
l21 -21 -7 22 c-5 17 -3 21 12 20 31 -4 44 0 38 9 -3 5 0 13 6 17 9 5 10 -2 6
-25 -8 -37 13 -52 44 -33 14 9 21 8 34 -4 8 -8 15 -12 15 -8 0 5 5 3 12 -4 9
-9 7 -16 -6 -31 -15 -16 -22 -18 -39 -10 -17 10 -19 9 -14 -5 4 -10 1 -16 -8
-16 -12 0 -14 -11 -10 -50 3 -33 1 -50 -6 -50 -18 0 -59 49 -60 71 -1 10 -3
24 -4 29 -1 6 -3 15 -4 21 0 5 -6 7 -12 4 -6 -4 -8 -13 -5 -20 2 -7 0 -17 -4
-21 -5 -5 -13 -27 -18 -49 -5 -25 -14 -40 -22 -40 -10 0 -15 -9 -14 -25 2 -38
3 -40 17 -40 7 0 13 -10 14 -21 2 -18 -2 -20 -28 -15 -35 7 -39 -9 -4 -18 20
-5 25 -13 26 -39 l1 -32 12 40 c9 29 19 41 35 43 16 3 19 7 12 16 -5 6 -7 31
-4 54 4 33 10 42 22 40 9 -2 16 -13 15 -26 0 -16 4 -22 16 -20 24 4 50 -21 50
-49 0 -13 7 -26 15 -29 19 -8 2 -44 -20 -44 -9 0 -15 -10 -15 -23 0 -13 -3
-27 -7 -31 -18 -18 -7 -58 24 -93 37 -40 42 -68 15 -76 -11 -2 -22 -14 -25
-27 -5 -19 -3 -21 16 -15 43 13 52 11 49 -10 -5 -29 -40 -103 -52 -110 -8 -5
-8 -11 -1 -19 7 -9 6 -19 -6 -35 -14 -21 -21 -22 -70 -16 -50 6 -55 5 -60 -14
-3 -11 -9 -18 -14 -15 -5 3 -9 1 -9 -4 0 -6 12 -15 28 -20 15 -6 44 -27 64
-46 33 -33 68 -50 53 -27 -3 5 -1 13 5 16 16 10 40 -14 40 -40 0 -13 6 -26 13
-28 7 -3 5 -6 -5 -6 -9 -1 -24 -10 -32 -22 -15 -22 -36 -18 -36 7 0 17 -2 17
-35 2 -16 -7 -26 -20 -27 -37 0 -14 -2 -33 -3 -41 -1 -8 3 -23 7 -33 8 -15 6
-17 -16 -11 -23 5 -26 3 -26 -18 0 -32 -18 -48 -52 -48 -18 0 -28 -5 -28 -15
0 -8 -7 -15 -15 -15 -8 0 -19 -9 -25 -20 -13 -25 -29 -26 -29 -2 0 9 -3 30 -7
45 -6 27 -5 28 29 25 52 -3 57 9 17 43 -35 28 -83 38 -95 19 -3 -6 -17 -7 -31
-4 -18 5 -24 2 -24 -11 0 -11 -5 -15 -15 -11 -17 6 -45 -2 -45 -13 0 -4 11
-13 25 -19 l25 -12 -20 -20 c-26 -26 -43 -26 -35 0 5 15 0 21 -19 26 -33 8
-34 34 -2 34 27 0 43 29 24 42 -7 4 -23 6 -35 3 -13 -3 -23 -1 -23 5 0 5 -7
10 -15 10 -19 0 -19 -9 2 -32 9 -10 13 -21 10 -25 -4 -3 -16 4 -26 16 -23 27
-56 24 -56 -4 0 -28 -31 -31 -45 -5 -9 16 -18 20 -35 16 -25 -6 -61 23 -37 31
19 7 14 22 -8 20 -11 -1 -20 -4 -20 -8 0 -8 -51 1 -65 11 -5 4 -31 6 -57 5
-27 -1 -48 2 -48 8 0 6 -3 7 -7 4 -3 -4 -12 -2 -19 3 -6 6 -16 10 -20 9 -5 -1
-21 -1 -36 0 -32 1 -39 21 -8 21 11 0 23 7 26 15 4 8 11 12 16 9 6 -4 8 2 6
12 -2 11 -10 18 -16 17 -7 -2 -12 3 -12 11 0 8 -10 18 -22 22 -38 12 -48 34
-31 67 11 22 12 32 2 43 -6 7 -15 11 -20 9 -30 -19 -79 30 -79 78 0 10 -6 31
-14 45 -31 61 -38 81 -31 91 3 6 10 9 15 6 14 -9 28 19 26 52 -2 24 3 34 16
39 10 3 18 10 18 15 0 5 27 7 63 4 l62 -5 -23 20 c-13 10 -21 23 -18 28 7 12
-15 82 -26 82 -4 0 -8 5 -8 10 0 6 12 9 26 8 33 -4 44 19 12 24 -16 2 -22 9
-20 21 4 25 -14 45 -42 45 -28 0 -96 48 -96 68 0 23 63 18 78 -6 19 -31 42
-25 42 10 0 17 -4 30 -10 30 -5 0 -10 7 -10 15 0 8 5 15 11 15 5 0 7 -4 4 -10
-3 -5 0 -10 8 -10 19 0 29 25 21 56 -5 18 -2 24 10 24 9 0 16 -7 16 -15 0 -8
4 -15 10 -15 13 0 50 41 50 57 0 7 9 13 19 13 11 0 23 5 26 10 11 18 35 10 35
-12 0 -20 3 -19 36 13 27 26 35 30 32 15 -2 -13 5 -22 24 -28 21 -7 31 -5 47
11 12 12 26 21 31 21 6 0 10 5 10 10 0 6 -10 10 -21 10 -17 0 -20 4 -15 23 3
12 6 28 6 35 0 21 24 12 48 -18z m500 5 c-3 -3 -9 2 -12 12 -6 14 -5 15 5 6 7
-7 10 -15 7 -18z m-286 -7 c-7 -7 -12 -8 -12 -2 0 14 12 26 19 19 2 -3 -1 -11
-7 -17z m-567 -38 c3 -5 1 -10 -4 -10 -6 0 -11 5 -11 10 0 6 2 10 4 10 3 0 8
-4 11 -10z m-1149 -84 c1 0 11 -20 23 -43 l21 -43 -22 0 c-12 0 -29 -7 -38
-15 -15 -14 -20 -13 -43 6 -25 19 -37 59 -19 59 5 0 15 11 22 25 10 19 19 24
34 19 12 -4 22 -7 22 -8z m1067 -76 c-3 -12 -8 -19 -11 -16 -5 6 5 36 12 36 2
0 2 -9 -1 -20z m1166 -87 c29 -28 22 -38 -16 -28 -15 5 -30 9 -33 9 -3 1 -14
7 -25 14 -19 12 -19 12 -2 26 22 17 43 11 76 -21z m186 -58 c37 -46 40 -70 9
-82 -18 -7 -54 31 -53 57 0 10 2 11 6 3 7 -18 23 -16 23 2 0 8 -9 15 -19 15
-20 0 -35 25 -25 41 10 16 21 9 59 -36z m-190 -65 c3 -5 1 -10 -4 -10 -6 0
-11 5 -11 10 0 6 2 10 4 10 3 0 8 -4 11 -10z m-1108 -52 c-3 -8 -6 -5 -6 6 -1
11 2 17 5 13 3 -3 4 -12 1 -19z m-287 -58 c0 -11 -6 -20 -14 -20 -9 0 -12 7
-9 20 3 11 9 20 14 20 5 0 9 -9 9 -20z m234 4 c3 -7 -2 -10 -15 -7 -22 6 -26
20 -4 20 8 0 16 -6 19 -13z m1362 -49 c-5 -14 20 -29 35 -19 5 3 9 0 9 -5 0
-6 -8 -16 -19 -22 -16 -11 -17 -15 -5 -38 7 -14 11 -27 9 -29 -7 -7 -25 9 -25
24 0 8 -10 14 -25 14 -22 0 -24 3 -15 19 5 11 10 35 10 54 0 18 3 37 7 41 10
9 26 -22 19 -39z m-1718 -62 c-1 -5 2 -24 6 -44 6 -30 11 -36 27 -32 15 4 18
1 13 -11 -9 -23 -20 -20 -44 14 -12 17 -28 30 -36 30 -17 0 -18 22 -2 38 13
13 39 16 36 5z m1608 -24 c3 -6 0 -22 -7 -37 -11 -20 -11 -26 -1 -29 6 -3 12
-14 11 -26 l0 -22 -16 23 c-8 12 -21 22 -28 22 -7 0 -15 11 -17 24 -8 38 39
75 58 45z m-1379 -75 c-10 -11 -47 22 -47 41 0 18 3 17 26 -8 14 -16 24 -31
21 -33z m-82 28 c-3 -3 -11 0 -18 7 -9 10 -8 11 6 5 10 -3 15 -9 12 -12z
m1675 -2 c0 -5 -8 -10 -17 -10 -15 0 -16 2 -3 10 19 12 20 12 20 0z m-1545
-50 c-3 -5 -12 -10 -18 -10 -7 0 -6 4 3 10 19 12 23 12 15 0z m-3 -104 c2 -19
2 -39 0 -45 -6 -18 -32 -12 -32 8 0 10 -7 24 -15 31 -19 16 -19 34 0 27 8 -4
17 -2 20 3 12 19 23 9 27 -24z m1747 -5 c9 -6 10 -10 2 -16 -16 -9 -44 2 -36
15 8 12 16 12 34 1z m-461 -60 c5 -14 -34 -9 -50 7 -8 8 -4 10 18 8 15 -2 30
-8 32 -15z m-1248 -7 c0 -2 -7 -4 -15 -4 -8 0 -15 4 -15 10 0 5 7 7 15 4 8 -4
15 -8 15 -10z m1320 -4 c0 -5 -4 -10 -10 -10 -5 0 -10 5 -10 10 0 6 5 10 10
10 6 0 10 -4 10 -10z m-94 -56 c35 -37 48 -38 57 -3 4 15 2 19 -9 15 -9 -3
-12 -1 -9 4 16 26 89 -8 78 -36 -3 -8 6 -18 22 -24 35 -13 35 -14 35 14 0 29
19 46 21 19 1 -10 2 -30 3 -45 1 -33 13 -46 22 -24 8 22 14 21 54 -14 36 -31
50 -37 50 -20 0 5 7 7 15 4 20 -8 19 -20 -6 -45 -14 -14 -19 -28 -15 -45 5
-20 3 -24 -16 -24 -13 0 -35 -7 -50 -14 -18 -10 -30 -11 -34 -4 -3 5 -14 8
-24 5 -13 -3 -19 3 -24 23 -3 17 -14 31 -26 35 -11 3 -20 11 -20 17 0 6 6 6
15 -2 12 -10 15 -10 15 3 0 8 5 17 12 19 17 6 2 38 -17 38 -10 0 -13 -5 -9
-12 5 -7 2 -9 -7 -6 -8 3 -44 15 -81 27 -38 13 -68 27 -68 32 0 5 -7 9 -15 9
-11 0 -15 12 -15 45 0 25 3 45 7 45 4 0 21 -16 39 -36z m-1170 -92 c2 -30 -12
-37 -25 -13 -16 29 -13 43 7 39 10 -2 17 -13 18 -26z m1554 -32 c0 -5 -4 -10
-10 -10 -5 0 -10 5 -10 10 0 6 5 10 10 10 6 0 10 -4 10 -10z m-330 -60 c0 -11
-5 -20 -11 -20 -6 0 -8 -8 -4 -19 7 -24 -4 -71 -17 -71 -7 0 -9 18 -6 45 4 28
1 46 -6 48 -7 3 -3 11 9 21 27 21 35 20 35 -4z m-159 -10 c22 -12 25 -38 6
-64 -11 -15 -16 -15 -38 -4 -24 13 -25 15 -12 46 15 36 16 36 44 22z m51 -125
c4 -16 0 -25 -12 -28 -16 -4 -18 -18 -11 -59 0 -5 9 -8 19 -9 11 -1 8 -4 -8
-8 -19 -5 -29 -2 -42 15 -20 25 -23 50 -8 59 6 3 10 17 10 30 0 13 3 31 6 40
6 15 8 15 24 0 10 -9 20 -27 22 -40z m-542 7 c0 -10 6 -24 13 -31 10 -10 8
-14 -6 -22 -14 -8 -17 -18 -12 -40 5 -23 4 -28 -8 -23 -22 8 -28 30 -17 60 6
14 7 30 4 35 -8 13 3 39 16 39 5 0 10 -8 10 -18z m-183 -18 c25 -13 33 -22 31
-38 -2 -15 -9 -20 -23 -18 -47 7 -84 40 -69 63 8 13 21 11 61 -7z m913 6 c0
-5 -2 -10 -4 -10 -3 0 -8 5 -11 10 -3 6 -1 10 4 10 6 0 11 -4 11 -10z m-599
-35 c-2 -17 -36 -11 -39 7 -3 14 1 16 18 10 12 -4 21 -12 21 -17z m-74 -11
c-3 -3 -12 -4 -19 -1 -8 3 -5 6 6 6 11 1 17 -2 13 -5z m824 -14 c5 0 9 -8 9
-17 1 -17 1 -17 14 0 12 15 15 16 26 2 9 -11 10 -19 2 -27 -6 -6 -8 -17 -5
-24 3 -9 -2 -14 -17 -14 -13 0 -24 8 -27 20 -3 11 -12 20 -19 20 -8 0 -14 4
-14 9 0 5 -3 17 -7 27 -5 14 -3 16 11 11 10 -4 22 -7 27 -7z m-698 -12 c36
-17 34 -27 -5 -25 -32 2 -38 6 -38 27 0 13 10 13 43 -2z m677 -48 c0 -5 -5
-10 -11 -10 -5 0 -7 5 -4 10 3 6 8 10 11 10 2 0 4 -4 4 -10z m-335 -20 c14
-16 15 -22 5 -35 -10 -12 -9 -17 3 -30 9 -8 21 -14 28 -13 6 2 14 -3 16 -9 3
-7 -2 -13 -11 -13 -16 0 -20 -10 -17 -42 1 -10 -3 -18 -9 -18 -6 0 -9 -4 -6
-8 3 -5 -4 -19 -15 -30 -23 -25 -31 -28 -23 -8 7 18 -52 66 -81 66 -30 0 -39
14 -20 30 11 9 12 17 5 30 -15 27 -12 32 10 20 16 -9 20 -8 20 5 0 9 9 15 21
15 17 0 20 4 15 24 -9 38 30 48 59 16z m-419 -3 c6 -8 14 -47 10 -47 -13 0
-74 48 -68 54 5 6 53 -1 58 -7z m494 -1 c0 -11 -19 -15 -25 -6 -3 5 1 10 9 10
9 0 16 -2 16 -4z m303 -184 c18 -16 23 -32 9 -32 -5 0 -19 9 -32 20 -13 11
-32 20 -42 20 -11 0 -16 5 -13 10 8 13 55 2 78 -18z m147 -17 c0 -13 -4 -14
-20 -5 -11 6 -20 13 -20 15 0 3 9 5 20 5 11 0 20 -7 20 -15z m-57 -42 c-3 -6
-11 -9 -19 -6 -17 6 -17 8 -2 36 11 21 11 21 18 2 4 -11 5 -25 3 -32z m-459
-147 c-5 -13 -9 -14 -14 -5 -11 16 0 43 12 31 5 -5 6 -17 2 -26z m271 -2 c-22
-16 -56 -15 -62 2 -2 6 11 15 29 21 41 12 62 -2 33 -23z m2149 27 c17 -27 -26
-60 -51 -40 -11 10 -11 15 4 30 20 20 39 24 47 10z m-344 -19 c0 -24 -28 -62
-46 -62 -8 0 -14 5 -14 10 0 6 -7 10 -15 10 -11 0 -8 8 12 30 29 33 63 40 63
12z m460 -34 c0 -18 -44 -58 -64 -58 -21 0 -20 7 6 61 22 45 24 46 41 28 9
-10 17 -24 17 -31z m-200 -33 c0 -8 -4 -15 -10 -15 -5 0 -10 7 -10 15 0 8 5
15 10 15 6 0 10 -7 10 -15z m-215 -25 c17 -18 17 -20 0 -26 -17 -7 -35 10 -35
34 0 18 14 15 35 -8z m-372 -182 c2 -18 0 -36 -6 -40 -17 -10 -28 2 -22 22 3
10 1 21 -5 25 -16 10 -12 25 9 25 13 0 20 -9 24 -32z m-1332 -71 c-6 -8 -7
-17 -3 -21 4 -4 3 -7 -3 -6 -5 1 -21 2 -36 1 -21 -1 -25 -6 -25 -32 1 -23 -6
-37 -26 -52 -25 -18 -28 -19 -43 -3 -9 8 -13 20 -10 26 6 9 -8 14 -27 11 -17
-2 -6 10 34 39 30 22 52 30 85 30 23 0 43 5 43 10 0 6 5 10 11 10 8 0 9 -4 0
-13z m-2453 -49 c7 -10 19 -18 27 -18 13 0 35 -29 35 -44 0 -10 -24 -6 -51 8
-24 12 -26 12 -22 -5 3 -11 9 -19 14 -19 10 0 49 -41 49 -52 0 -19 -32 -6 -66
27 -22 21 -34 41 -30 50 6 16 -22 35 -42 28 -7 -3 -20 1 -28 8 -14 11 -10 15
28 25 55 14 70 13 86 -8z m-857 -57 c6 10 8 8 7 -7 -2 -19 -29 -29 -28 -11 1
39 2 42 7 23 4 -15 7 -16 14 -5z m3352 -46 c3 -17 -1 -28 -12 -34 -24 -11 -46
-7 -43 8 1 7 -2 19 -8 25 -13 17 -3 26 31 26 21 0 28 -6 32 -25z m-3383 -36
c0 -10 -12 -11 -34 -3 -25 10 -19 22 9 16 14 -2 25 -8 25 -13z m120 1 c0 -5
-5 -10 -11 -10 -5 0 -7 5 -4 10 3 6 8 10 11 10 2 0 4 -4 4 -10z m144 -5 c-4
-8 -8 -15 -10 -15 -2 0 -4 7 -4 15 0 8 4 15 10 15 5 0 7 -7 4 -15z m2714 -17
c-6 -18 -28 -21 -28 -4 0 9 7 16 16 16 9 0 14 -5 12 -12z m-1764 -63 c6 -5 18
-10 26 -10 8 0 15 -11 17 -26 1 -21 -5 -28 -33 -38 -20 -7 -37 -11 -40 -9 -9
9 -16 98 -10 115 7 17 8 17 19 -2 6 -11 15 -24 21 -30z m-662 3 c-9 -9 -15 -9
-24 0 -9 9 -7 12 12 12 19 0 21 -3 12 -12z m4733 -208 c3 -5 1 -10 -5 -10 -7
0 -9 -8 -5 -20 5 -16 2 -20 -15 -20 -11 0 -23 7 -26 15 -7 18 -37 20 -66 4
-28 -15 -33 -4 -9 20 16 16 34 21 70 21 28 0 53 -4 56 -10z m-4085 -40 c0 -5
-5 -10 -11 -10 -5 0 -7 5 -4 10 3 6 8 10 11 10 2 0 4 -4 4 -10z m3664 -40 c10
-22 27 -47 38 -56 10 -10 18 -25 18 -35 0 -10 4 -20 9 -23 15 -10 1 -45 -15
-39 -8 3 -22 -1 -32 -8 -15 -13 -16 -12 -4 3 9 11 9 18 3 23 -15 9 -51 -13
-51 -30 0 -8 -6 -15 -14 -15 -8 0 -16 -7 -18 -15 -3 -12 -7 -12 -35 1 -17 9
-33 24 -36 35 -3 10 -12 19 -20 19 -21 0 -68 -26 -60 -33 3 -4 -3 -7 -14 -7
-16 0 -22 8 -25 34 -2 18 -1 45 3 60 5 17 3 26 -4 26 -7 0 -3 6 7 12 14 8 24
8 38 -1 13 -8 24 -9 39 -1 11 6 25 10 31 8 16 -6 58 40 52 56 -5 14 12 23 51
25 14 0 26 -11 39 -39z m276 24 c0 -2 -7 -4 -15 -4 -8 0 -15 4 -15 10 0 5 7 7
15 4 8 -4 15 -8 15 -10z m-255 -3 c3 -5 1 -12 -4 -15 -5 -3 -11 1 -15 9 -6 16
9 21 19 6z m80 -58 c29 -32 31 -46 10 -63 -12 -10 -15 -10 -15 3 0 9 -9 21
-20 27 -20 11 -29 60 -10 60 5 0 21 -12 35 -27z m-3450 -4 c-30 -12 -45 -10
-45 4 0 10 10 12 32 9 28 -4 30 -6 13 -13z m4440 -13 c62 -44 69 -66 20 -66
-14 0 -26 -7 -30 -19 -3 -11 -13 -22 -21 -25 -8 -3 -13 -10 -9 -15 3 -5 -10
-9 -30 -8 -34 2 -46 19 -24 32 6 4 10 24 8 44 -3 62 0 79 19 84 19 4 25 2 67
-27z m-141 -1 c9 -14 12 -25 6 -25 -5 0 -10 5 -10 10 0 6 -11 10 -25 10 -26 0
-34 15 -12 23 21 9 24 8 41 -18z m-574 -26 c0 -5 -4 -9 -10 -9 -5 0 -10 7 -10
16 0 8 5 12 10 9 6 -3 10 -10 10 -16z m943 -27 c0 -24 -3 -46 -6 -49 -3 -2
-24 -6 -46 -7 -51 -3 -59 -11 -35 -37 19 -21 19 -21 -6 -17 -20 2 -24 8 -22
27 2 22 -1 23 -32 18 -34 -5 -35 -5 -25 20 5 13 7 28 5 32 -7 10 27 38 40 34
6 -2 22 2 36 10 14 7 40 13 59 12 34 0 34 -1 32 -43z m-4060 22 c9 -9 -3 -34
-17 -34 -6 0 -12 9 -12 20 0 19 16 27 29 14z m-63 -28 c0 -11 -19 -15 -25 -6
-3 5 1 10 9 10 9 0 16 -2 16 -4z m1235 -48 c24 -11 29 -19 26 -46 -1 -8 3 -19
8 -26 9 -10 1 -13 -37 -12 -29 0 -52 6 -59 16 -8 9 -12 11 -13 3 0 -6 5 -15
10 -18 6 -3 10 -11 10 -16 0 -6 -4 -7 -10 -4 -5 3 -20 -6 -33 -21 -14 -16 -29
-24 -35 -20 -17 10 -15 33 4 40 12 5 15 14 10 39 -5 28 -2 35 27 54 37 25 56
28 92 11z m2685 4 c0 -4 -5 -13 -12 -20 -9 -9 -7 -12 10 -12 19 0 22 -5 22
-45 0 -49 -2 -50 -49 -34 -31 11 -32 14 -26 48 9 47 22 71 40 71 8 0 15 -4 15
-8z m-4390 -12 c0 -5 -4 -10 -10 -10 -5 0 -10 5 -10 10 0 6 5 10 10 10 6 0 10
-4 10 -10z m3472 -8 l37 -18 -34 -10 c-27 -8 -35 -8 -39 2 -6 16 -36 7 -33 -9
1 -7 -9 -11 -25 -9 -16 2 -28 -1 -28 -7 0 -6 -4 -11 -10 -11 -24 0 -7 27 33
52 49 32 51 33 99 10z m138 -42 c0 -32 4 -40 19 -40 10 0 24 -6 30 -14 12 -14
5 -46 -10 -46 -5 0 -9 -7 -9 -15 0 -12 -4 -13 -18 -6 -12 7 -24 4 -41 -10 -13
-10 -35 -19 -50 -19 -30 0 -83 25 -94 45 -4 8 -14 12 -21 9 -22 -8 -29 14 -15
46 10 20 23 30 46 35 18 3 37 4 42 1 4 -3 28 -2 52 3 37 8 41 10 22 16 -37 12
-28 35 12 35 34 0 35 -1 35 -40z m-510 15 c0 -17 -16 -35 -30 -35 -25 0 -48
29 -31 39 11 7 61 3 61 -4z m1500 7 c0 -5 -11 -19 -24 -31 -18 -17 -25 -19
-29 -9 -2 7 3 21 12 30 17 18 41 24 41 10z m-4110 -12 c0 -5 -4 -10 -10 -10
-5 0 -10 5 -10 10 0 6 5 10 10 10 6 0 10 -4 10 -10z m3991 -43 c-13 -13 -26
-3 -16 12 3 6 11 8 17 5 6 -4 6 -10 -1 -17z m-1563 -4 c13 -12 16 -33 6 -33
-4 0 -17 11 -30 25 -20 21 -21 25 -6 23 9 -2 23 -8 30 -15z m1407 -34 c3 -4 1
-10 -5 -14 -13 -8 -52 13 -45 25 6 9 43 2 50 -11z m-1275 -53 c0 -2 -7 -7 -16
-10 -8 -3 -12 -2 -9 4 6 10 25 14 25 6z m-2100 -25 c0 -4 -5 -12 -12 -19 -8
-8 -8 -15 1 -26 21 -25 -17 -37 -61 -19 -48 19 -49 36 -3 31 30 -3 35 -1 35
17 0 12 3 24 6 28 7 7 34 -2 34 -12z m2867 5 c-6 -14 22 -22 98 -28 20 -2 31
-9 33 -21 3 -15 -2 -18 -20 -16 -15 2 -41 -10 -72 -34 -27 -20 -57 -38 -67
-39 -85 -8 -86 -7 -85 52 1 30 5 35 27 38 14 2 39 16 55 31 34 34 38 36 31 17z
m-2296 -31 c22 -37 23 -45 6 -45 -8 0 -20 -11 -27 -25 -7 -14 -19 -25 -26 -25
-16 0 -25 -26 -17 -47 6 -15 4 -16 -9 -5 -9 7 -14 21 -11 33 4 13 1 19 -8 17
-8 -2 -13 3 -11 10 1 6 -2 12 -7 12 -5 0 -16 3 -24 6 -8 3 -22 -2 -31 -11 -28
-28 -67 3 -52 41 5 13 9 14 21 4 9 -7 17 -11 19 -9 1 2 15 21 31 42 27 36 30
38 78 35 44 -3 53 -7 68 -33z m994 25 c3 -5 -1 -10 -10 -10 -9 0 -13 5 -10 10
3 6 8 10 10 10 2 0 7 -4 10 -10z m1518 -47 c4 -3 -1 -11 -9 -18 -15 -10 -14
-14 7 -31 26 -21 31 -52 12 -76 -15 -18 -7 -28 21 -28 13 0 30 -14 45 -35 13
-19 30 -35 37 -35 22 0 16 -16 -11 -34 -14 -9 -25 -23 -25 -31 0 -11 -5 -12
-25 -5 -31 12 -55 3 -55 -20 0 -21 -36 -33 -61 -19 -17 8 -16 11 6 35 15 16
29 23 37 18 8 -4 7 -1 -2 9 -18 18 -76 32 -84 19 -3 -5 -2 -22 3 -38 7 -27 5
-30 -33 -41 -38 -11 -44 -10 -78 12 -41 27 -47 40 -22 49 25 10 31 7 37 -14 6
-23 27 -27 27 -5 0 8 9 19 20 25 12 6 20 21 20 35 0 27 -17 34 -26 10 -9 -22
-20 -10 -19 22 0 25 6 30 60 47 70 22 74 25 57 35 -7 4 -17 22 -22 41 -8 27
-6 36 8 46 9 7 23 14 30 14 6 0 12 5 12 10 0 11 23 14 33 3z m221 -29 c11 -28
6 -54 -9 -54 -11 0 -14 9 -12 35 2 37 11 45 21 19z m-3184 -9 c7 -8 21 -15 31
-15 12 0 19 -7 19 -20 0 -20 -14 -27 -24 -11 -3 4 -25 7 -48 5 -50 -3 -94 20
-68 36 8 6 25 8 38 5 12 -3 22 -1 22 5 0 15 16 12 30 -5z m1380 -25 c0 -5 -4
-10 -9 -10 -6 0 -13 5 -16 10 -3 6 1 10 9 10 9 0 16 -4 16 -10z m-1040 -55
c13 -14 20 -28 17 -32 -12 -11 -54 14 -60 36 -7 29 14 27 43 -4z m110 0 c0 -9
-9 -15 -25 -15 -26 0 -34 15 -12 23 23 10 37 7 37 -8z m2042 -20 c-1 -11 -4
-46 -6 -79 -3 -52 -7 -61 -34 -83 -26 -20 -32 -32 -32 -63 0 -34 -4 -42 -32
-56 -18 -9 -49 -17 -69 -18 -21 0 -37 -3 -37 -6 2 -27 -9 -44 -48 -72 -25 -18
-52 -33 -60 -33 -8 0 -19 -6 -23 -14 -10 -16 -43 -8 -39 10 2 6 -5 16 -14 22
-16 11 -45 7 -148 -18 -15 -4 -20 -3 -13 2 6 5 11 26 10 48 -1 39 38 135 55
135 4 0 13 -11 21 -25 13 -26 13 -26 31 -7 16 18 21 19 65 7 40 -10 52 -10 75
2 24 13 27 19 22 45 -7 34 13 61 38 52 12 -5 11 2 -4 35 -22 44 -25 71 -10 71
6 0 10 10 10 21 0 19 4 20 35 15 21 -4 35 -3 35 3 0 14 41 18 67 8 15 -7 28
-5 45 7 31 22 64 17 60 -9z m298 5 c0 -5 -2 -10 -4 -10 -3 0 -8 5 -11 10 -3 6
-1 10 4 10 6 0 11 -4 11 -10z m-3165 -30 c3 -5 -3 -10 -14 -10 -12 0 -21 5
-21 10 0 6 6 10 14 10 8 0 18 -4 21 -10z m153 -19 c94 -46 115 -58 123 -72 7
-13 3 -18 -17 -23 -34 -9 -62 1 -69 25 -4 10 -13 19 -21 19 -8 0 -14 5 -14 11
0 6 -9 8 -20 4 -15 -5 -20 -2 -20 13 0 30 10 37 38 23z m-193 -22 c4 -6 5 -12
2 -15 -7 -7 -37 7 -37 17 0 13 27 11 35 -2z m419 -14 c17 -13 17 -15 2 -30 -9
-10 -23 -14 -31 -11 -22 8 -30 37 -14 47 18 11 21 11 43 -6z m-319 -5 c-3 -5
-13 -10 -21 -10 -8 0 -14 5 -14 10 0 6 9 10 21 10 11 0 17 -4 14 -10z m93 -36
c34 -28 42 -54 17 -54 -18 0 -18 -5 -4 -32 13 -25 5 -35 -16 -18 -8 7 -15 8
-15 3 0 -11 -49 -37 -67 -36 -37 2 -44 4 -39 12 10 15 -5 41 -23 41 -31 0 -44
16 -32 39 6 11 15 20 19 20 4 -1 18 -1 32 0 19 1 21 4 12 13 -20 20 -14 27 31
31 23 2 45 4 48 5 3 1 20 -10 37 -24z m-295 -29 c-4 -15 -36 -12 -41 3 -3 9 3
13 19 10 13 -1 23 -7 22 -13z m3861 -24 c26 -18 27 -20 10 -28 -11 -5 -26 -9
-34 -8 -8 1 -23 -5 -32 -13 -16 -14 -18 -13 -18 11 0 59 23 71 74 38z m-134
-61 c8 -5 11 -10 5 -10 -34 -1 -142 -23 -149 -31 -12 -11 -26 -12 -26 -1 0 13
47 32 78 32 15 0 34 5 42 10 8 5 20 10 25 10 6 0 17 -5 25 -10z m-3125 -60 c3
-5 2 -17 -3 -26 -8 -14 -10 -12 -14 10 -5 26 5 35 17 16z m-168 -80 c7 -10 9
-21 4 -24 -13 -8 -45 20 -37 32 10 17 19 15 33 -8z m-232 -40 c-3 -5 -10 -10
-16 -10 -5 0 -9 5 -9 10 0 6 7 10 16 10 8 0 12 -4 9 -10z m2168 -14 c7 -17
-11 -36 -34 -36 -16 0 -32 33 -21 44 11 11 50 6 55 -8z m-555 -175 c-3 -11
-12 -15 -29 -13 -19 2 -29 -4 -38 -24 -9 -21 -15 -24 -24 -15 -9 10 -8 15 6
25 9 7 17 18 17 25 0 6 9 11 20 11 11 0 20 4 20 10 0 5 7 7 15 3 9 -3 14 -13
13 -22z m-133 -71 c-15 -29 -35 -40 -35 -20 0 6 4 10 9 10 5 0 11 9 14 20 3
11 10 20 16 20 8 0 6 -10 -4 -30z m215 -60 c0 -5 -9 -10 -21 -10 -11 0 -17 5
-14 10 3 6 13 10 21 10 8 0 14 -4 14 -10z m-623 -276 c18 -5 21 -10 13 -25 -8
-14 -16 -16 -33 -10 -12 4 -28 6 -34 4 -19 -7 -16 8 5 23 20 16 20 16 49 8z
m2933 -255 c0 -5 -4 -9 -10 -9 -5 0 -10 7 -10 16 0 8 5 12 10 9 6 -3 10 -10
10 -16z m-1269 -22 c24 -7 67 -14 94 -16 85 -4 185 -47 154 -66 -6 -4 -8 -13
-5 -21 6 -17 1 -17 -25 -4 -13 7 -19 7 -19 0 0 -16 -25 -12 -48 9 -12 10 -33
17 -46 16 -14 -2 -30 2 -35 9 -6 8 -32 11 -68 10 -32 -1 -60 2 -63 6 -3 5 -25
12 -49 16 -30 5 -42 4 -38 -3 4 -6 0 -13 -8 -17 -19 -7 -21 44 -3 62 16 16
104 15 159 -1z m-410 -7 c10 -6 19 -17 19 -24 0 -8 15 -19 33 -25 17 -7 49
-21 70 -32 21 -11 69 -24 107 -28 38 -4 73 -10 76 -14 12 -12 -29 -36 -51 -31
-11 3 -38 -2 -60 -12 -39 -16 -39 -16 -60 11 -19 23 -23 24 -34 11 -10 -12
-18 -13 -39 -4 -15 6 -73 12 -129 14 -99 4 -103 3 -103 -17 0 -17 -5 -20 -25
-17 -14 3 -25 1 -25 -3 0 -5 -15 -9 -34 -9 -34 0 -34 1 -31 36 2 28 -1 37 -14
41 -12 3 -18 15 -19 33 -1 25 3 28 34 32 19 2 51 -1 71 -8 27 -10 50 -10 97
-2 33 6 55 13 49 15 -7 3 -13 11 -13 18 0 24 47 32 81 15z m814 -9 c6 -4 21
-8 34 -9 30 -1 38 -9 23 -24 -8 -8 -15 -9 -22 -2 -7 7 -29 8 -63 2 -50 -8
-107 4 -107 22 0 25 103 33 135 11z m454 -40 c-31 -31 -46 -40 -34 -20 4 5 -1
19 -11 30 -20 23 -19 24 26 36 50 14 59 -7 19 -46z m242 24 l26 -21 -38 -1
c-40 -2 -65 17 -55 42 6 18 30 11 67 -20z m-447 1 c32 -20 33 -26 5 -19 -19 5
-21 3 -15 -20 3 -14 2 -29 -4 -32 -5 -3 -10 -1 -10 4 0 6 -3 10 -7 9 -5 0 -16
2 -26 7 -14 6 -15 10 -6 21 9 11 8 14 -7 14 -19 1 -54 22 -54 33 0 12 100 -1
124 -17z m546 -27 c0 -5 -4 -8 -9 -5 -5 3 -14 -1 -21 -9 -18 -22 -39 -19 -33
5 4 14 14 20 34 20 16 0 29 -5 29 -11z m-798 -77 c4 -4 4 -12 0 -19 -6 -9 -15
-8 -40 4 -17 8 -29 20 -26 25 6 10 53 2 66 -10z m46 -1 c3 -8 -1 -12 -9 -9 -7
2 -15 10 -17 17 -3 8 1 12 9 9 7 -2 15 -10 17 -17z m-1271 -33 c-3 -7 -5 -2
-5 12 0 14 2 19 5 13 2 -7 2 -19 0 -25z m-446 -56 c-6 -2 -11 -10 -11 -18 0
-8 -4 -14 -10 -14 -16 0 -12 28 8 50 15 19 17 19 21 3 2 -9 -2 -19 -8 -21z
m-1916 0 c-3 -3 -11 0 -18 7 -9 10 -8 11 6 5 10 -3 15 -9 12 -12z m3825 -41
c0 -5 -10 -12 -22 -16 -14 -4 -18 -8 -10 -12 15 -6 16 -33 2 -33 -6 0 -13 6
-15 13 -3 6 -21 13 -40 14 -24 2 -33 -1 -30 -10 3 -8 -6 -13 -25 -14 -34 -2
-34 -3 -19 31 10 20 15 23 30 15 13 -7 33 -5 66 5 58 18 63 18 63 7z m-725
-42 c12 -18 -3 -22 -96 -25 -66 -2 -89 0 -86 9 3 8 26 11 70 9 37 -1 68 2 72
8 8 13 32 13 40 -1z m233 -29 c2 -5 10 -10 17 -10 19 0 26 -27 9 -34 -9 -3
-25 -1 -36 5 -11 6 -37 12 -57 13 -39 1 -57 30 -24 39 26 8 87 -1 91 -13z
m722 -4 c0 -3 -4 -8 -10 -11 -5 -3 -10 -1 -10 4 0 6 5 11 10 11 6 0 10 -2 10
-4z m-522 -24 c6 -18 -15 -14 -22 4 -4 10 -1 14 6 12 6 -2 14 -10 16 -16z
m632 -2 c-8 -5 -19 -10 -25 -10 -5 0 -3 5 5 10 8 5 20 10 25 10 6 0 3 -5 -5
-10z m-15 -179 c-27 -26 -65 -37 -65 -19 0 8 15 19 33 25 48 16 53 15 32 -6z
m-160 -1 c-3 -5 -13 -10 -21 -10 -8 0 -12 5 -9 10 3 6 13 10 21 10 8 0 12 -4
9 -10z m-55 -19 c0 -12 -29 -23 -41 -15 -5 3 -7 10 -4 15 8 12 45 12 45 0z
m126 -29 c-4 -3 -15 -1 -25 5 -20 13 -34 6 -44 -19 -7 -18 -47 -25 -47 -9 0
13 50 48 75 53 21 4 52 -18 41 -30z m284 33 c0 -2 -9 -19 -19 -36 -15 -25 -17
-37 -10 -52 9 -16 17 -18 61 -12 60 9 62 -5 6 -37 l-36 -21 -40 32 c-22 17
-44 31 -49 30 -21 -4 -22 3 -4 22 11 12 24 18 30 14 7 -3 11 2 11 14 0 20 24
51 41 51 5 0 9 -2 9 -5z m-80 -14 c0 -5 -6 -11 -12 -14 -18 -6 -39 3 -32 14 7
12 44 12 44 0z m-80 -30 c0 -10 -7 -24 -16 -32 -13 -10 -17 -10 -25 2 -18 29
-9 41 34 48 4 0 7 -7 7 -18z m-504 -45 c2 -11 -2 -16 -11 -12 -8 3 -17 1 -20
-5 -4 -5 -11 -7 -16 -3 -6 3 -24 -8 -41 -25 -25 -26 -28 -34 -18 -46 20 -24
-33 -19 -55 5 -20 22 -55 26 -72 9 -9 -9 -20 -9 -42 1 -28 11 -42 29 -23 31 4
0 40 2 81 5 54 4 78 10 87 22 11 15 96 42 118 38 5 -1 10 -10 12 -20z m-2886
4 c306 -16 340 -20 340 -39 0 -14 -19 -19 -117 -28 -65 -6 -132 -9 -148 -6
-17 2 -54 0 -83 -5 -29 -5 -55 -6 -57 -1 -3 4 -49 5 -103 2 -73 -4 -94 -3 -86
6 11 12 171 34 186 25 4 -3 34 -2 66 2 50 7 54 9 27 15 -16 4 -62 7 -101 8
-111 2 -224 13 -224 22 0 11 81 11 300 -1z m3170 -39 c0 -11 -12 -29 -26 -40
-30 -24 -33 -24 -53 -12 -12 8 -12 12 -2 25 7 8 10 19 7 25 -4 5 4 12 16 14
48 9 58 7 58 -12z m115 -1 c3 -6 -5 -10 -19 -10 -14 0 -28 5 -31 10 -3 6 5 10
19 10 14 0 28 -4 31 -10z m-390 -9 c3 -5 1 -13 -5 -16 -15 -9 -43 3 -35 15 8
13 32 13 40 1z m-415 -9 c0 -4 10 -12 21 -17 12 -6 21 -14 21 -19 -2 -14 -64
-17 -79 -4 -7 6 -13 7 -13 2 0 -4 -6 1 -14 12 -11 14 -11 21 -3 26 16 10 67
10 67 0z m-130 -13 c25 -7 53 -37 47 -53 -4 -10 -1 -13 9 -9 8 3 14 -1 14 -10
0 -19 -31 -32 -40 -17 -4 7 -18 8 -33 4 -28 -6 -35 -20 -15 -26 7 -3 5 -7 -6
-11 -13 -5 -19 -1 -23 13 -3 11 -10 17 -16 13 -6 -3 -7 -1 -3 5 4 7 18 12 32
12 30 0 34 36 4 45 -29 9 -104 3 -112 -10 -4 -5 -24 -10 -45 -11 -87 -2 -95
-4 -89 -19 5 -13 3 -13 -17 -1 -12 8 -51 18 -87 21 -90 9 -100 13 -76 31 24
17 57 18 54 2 -2 -8 10 -14 32 -16 23 -2 30 0 22 6 -14 9 190 38 205 29 4 -2
17 -1 28 4 18 8 79 7 115 -2z m-512 -10 c22 1 32 -4 32 -14 0 -12 -7 -15 -32
-10 -97 18 -475 4 -560 -20 -26 -7 -56 -11 -67 -8 -12 3 -21 1 -21 -6 0 -6
-11 -11 -24 -11 -19 0 -23 4 -19 19 5 20 70 31 223 37 41 2 111 7 155 12 44 5
125 7 180 5 55 -3 115 -4 133 -4z m718 -8 c-4 -5 0 -12 6 -14 8 -3 6 -6 -4 -6
-10 -1 -18 6 -18 14 0 8 5 15 11 15 5 0 8 -4 5 -9z m334 -41 c0 -6 -8 -14 -17
-17 -10 -4 -22 -11 -26 -17 -5 -7 -6 -4 -3 7 3 10 6 23 6 28 0 5 9 9 20 9 11
0 20 -5 20 -10z m-627 -7 c-7 -2 -19 -2 -25 0 -7 3 -2 5 12 5 14 0 19 -2 13
-5z m216 -12 c9 -15 6 -18 -14 -17 -14 1 -24 6 -23 11 2 6 6 9 11 8 4 -2 7 2
7 7 0 16 8 12 19 -9z m-209 -39 c0 -20 -38 -29 -124 -31 -44 -1 -84 -5 -88 -7
-16 -10 -188 -14 -188 -5 0 5 11 9 25 9 14 0 33 7 43 15 9 9 31 16 47 15 27 0
96 10 101 15 2 1 43 2 93 2 67 0 91 -3 91 -13z m540 8 c0 -5 -9 -10 -19 -10
-11 0 -23 5 -26 10 -4 6 5 10 19 10 14 0 26 -4 26 -10z m-252 -39 c4 -22 3
-22 -16 -4 -20 19 -19 37 1 30 7 -2 13 -14 15 -26z m692 0 c0 -5 6 -9 13 -8
34 1 57 -4 57 -13 0 -13 -51 -13 -85 0 -14 5 -23 14 -20 20 8 12 35 13 35 1z
m-575 -21 c10 -11 23 -17 29 -13 6 4 4 -1 -4 -11 -8 -10 -16 -14 -18 -8 -1 5
-11 8 -21 5 -20 -5 -46 21 -36 37 10 16 30 12 50 -10z m-275 -9 c0 -6 -4 -13
-10 -16 -5 -3 -10 1 -10 9 0 9 5 16 10 16 6 0 10 -4 10 -9z m370 -5 c0 -3 -4
-8 -10 -11 -5 -3 -10 -1 -10 4 0 6 5 11 10 11 6 0 10 -2 10 -4z m-2702 -22 c6
3 13 3 16 -2 2 -4 22 -9 42 -10 21 -2 43 -7 49 -12 7 -6 16 -5 23 2 9 9 12 9
12 -2 0 -13 2 -13 10 0 5 8 10 10 10 4 0 -7 10 -15 23 -19 31 -10 87 -13 82
-5 -2 4 7 5 21 2 l25 -5 -23 -13 c-13 -7 -43 -23 -68 -34 -51 -24 -92 -60
-121 -107 -24 -39 -43 -147 -30 -170 7 -13 -3 -22 -58 -48 -36 -18 -83 -47
-105 -64 -21 -17 -40 -31 -43 -31 -4 0 -26 49 -27 62 -1 3 -4 10 -8 14 -5 4
-8 14 -8 21 0 8 -6 20 -13 28 -8 8 -17 49 -21 97 -8 101 -10 115 -19 124 -4 4
-7 12 -7 18 0 6 5 4 10 -4 8 -13 10 -12 10 3 0 10 -7 20 -15 23 -8 4 -15 17
-15 29 0 13 -4 27 -10 30 -15 9 -13 58 3 52 7 -3 20 0 28 7 10 6 52 10 107 10
64 -2 92 2 92 10 0 6 4 6 9 -3 5 -7 13 -11 19 -7z m1705 -9 c-26 -18 -176 -20
-171 -3 3 8 26 14 64 16 32 1 63 4 69 6 5 1 20 0 33 -2 21 -4 22 -5 5 -17z
m-679 -77 c34 1 44 -2 31 -7 -27 -11 -85 -5 -99 10 -8 9 -8 10 3 4 8 -4 37 -8
65 -7z m1428 -273 c9 -21 8 -28 -7 -45 -22 -24 -42 -25 -67 -3 -35 32 -16 73
34 73 21 0 32 -7 40 -25z m-4339 -782 c-7 -2 -19 -2 -25 0 -7 3 -2 5 12 5 14
0 19 -2 13 -5z m-2124 -100 c-4 -27 -8 -56 -8 -66 -1 -10 -5 -16 -11 -12 -5 3
-6 13 -3 21 6 16 9 40 12 82 0 12 5 22 9 22 5 0 5 -21 1 -47z m159 -157 c-10
-7 -14 -17 -10 -21 4 -5 2 -5 -5 -1 -16 9 -5 36 16 36 14 -1 14 -2 -1 -14z
m-49 -32 c2 -2 -4 -7 -13 -10 -11 -4 -24 0 -34 10 -16 16 -15 17 13 10 17 -4
32 -8 34 -10z m-94 -34 c3 -6 -4 -10 -17 -10 -18 0 -20 2 -8 10 19 12 18 12
25 0z m30 0 c3 -5 1 -10 -4 -10 -6 0 -11 5 -11 10 0 6 2 10 4 10 3 0 8 -4 11
-10z m72 -8 c1 -13 -6 -18 -30 -19 -28 -2 -29 -1 -11 7 12 5 25 13 29 19 9 15
11 14 12 -7z m1 -124 c-2 -7 2 -12 9 -13 23 0 26 -15 2 -16 -13 -1 -37 -3 -54
-4 -30 -3 -30 -3 -5 8 14 6 29 17 33 24 10 16 18 17 15 1z m-78 -58 c0 -5 -7
-10 -16 -10 -8 0 -12 5 -9 10 3 6 10 10 16 10 5 0 9 -4 9 -10z m106 -9 c-4 -5
5 -18 20 -28 23 -17 24 -19 5 -19 -12 0 -21 5 -21 10 0 5 -6 2 -13 -8 -11 -15
-17 -17 -35 -7 -23 12 -30 31 -12 31 6 0 10 -4 10 -10 0 -5 7 -10 15 -10 8 0
15 8 15 18 0 10 3 22 7 25 9 10 15 8 9 -2z m-130 -40 c-4 -5 -1 -12 4 -14 6
-3 5 -4 -2 -3 -15 3 -23 26 -8 26 6 0 9 -4 6 -9z m64 -11 c0 -5 -4 -10 -9 -10
-6 0 -13 5 -16 10 -3 6 1 10 9 10 9 0 16 -4 16 -10z m110 -34 c0 -2 -9 -6 -20
-9 -11 -3 -18 -1 -14 4 5 9 34 13 34 5z m1892 -24 c-7 -2 -12 -9 -12 -16 0 -6
-9 -12 -20 -12 -11 0 -20 3 -20 7 0 4 -3 14 -6 22 -4 12 3 16 28 19 31 3 54
-12 30 -20z m8 -42 c0 -15 -6 -20 -27 -19 -24 2 -25 2 -5 6 12 2 22 11 22 19
0 8 2 14 5 14 3 0 5 -9 5 -20z m-1885 -28 c-7 -8 -95 9 -91 17 3 4 25 3 50 -3
25 -6 43 -12 41 -14z m6155 -58 c0 -2 -7 -4 -15 -4 -8 0 -15 4 -15 10 0 5 7 7
15 4 8 -4 15 -8 15 -10z m-6114 -33 c5 1 18 0 29 -1 15 -1 13 -4 -9 -10 -34
-11 -46 -6 -46 18 0 13 2 14 9 4 4 -7 12 -12 17 -11z m-49 -17 c-3 -3 -12 -4
-19 -1 -8 3 -5 6 6 6 11 1 17 -2 13 -5z m186 -11 c-7 -2 -21 -2 -30 0 -10 3
-4 5 12 5 17 0 24 -2 18 -5z m-129 -31 c2 -4 -4 -9 -15 -9 -11 -1 -17 2 -14 8
7 11 22 12 29 1z m10 -68 c9 -24 7 -34 -6 -34 -7 0 -14 11 -14 25 -2 28 11 34
20 9z m-167 -27 c-16 -5 -31 -6 -35 -2 -11 10 19 23 41 17 20 -5 19 -6 -6 -15z
m107 14 c6 0 1 -7 -9 -15 -10 -7 -26 -12 -34 -11 -9 2 -19 4 -22 4 -3 1 -6 7
-6 14 0 12 27 15 71 8z m-139 -61 c3 -5 2 -10 -4 -10 -5 0 -13 5 -16 10 -3 6
-2 10 4 10 5 0 13 -4 16 -10z m5 -39 c0 -5 -6 -14 -14 -20 -12 -10 -13 -8 -9
8 5 21 23 30 23 12z m40 -35 c0 -8 -7 -16 -15 -20 -15 -5 -21 14 -8 27 11 12
23 8 23 -7z m1870 10 c0 -3 -4 -8 -10 -11 -5 -3 -10 -1 -10 4 0 6 5 11 10 11
6 0 10 -2 10 -4z m-1770 -27 c0 -5 4 -7 10 -4 6 3 7 -1 4 -9 -3 -9 -10 -16
-16 -16 -5 0 -6 5 -3 10 3 6 1 10 -4 10 -6 0 -11 5 -11 10 0 6 5 10 10 10 6 0
10 -5 10 -11z m45 -18 c-3 -6 -11 -11 -17 -11 -6 0 -6 6 2 15 14 17 26 13 15
-4z m-185 0 c0 -6 -4 -13 -10 -16 -5 -3 -10 1 -10 9 0 9 5 16 10 16 6 0 10 -4
10 -9z m73 2 c-7 -2 -21 -2 -30 0 -10 3 -4 5 12 5 17 0 24 -2 18 -5z m-41 -60
c-26 -14 -42 -10 -42 10 0 7 4 6 10 -3 9 -14 14 -7 11 13 -1 5 3 6 9 2 5 -3
10 -1 10 5 0 7 5 6 13 -2 12 -10 10 -15 -11 -25z m88 27 c0 -5 -6 -10 -12 -10
-10 0 -10 -2 0 -9 11 -7 11 -9 -2 -14 -17 -7 -20 1 -10 27 7 18 24 22 24 6z
m84 -3 c7 -7 13 -20 13 -29 0 -13 -4 -15 -18 -8 -12 7 -19 5 -23 -5 -6 -17
-46 -21 -46 -5 0 6 5 10 11 10 6 0 17 6 25 14 8 8 14 19 14 25 0 15 9 14 24
-2z m1686 -17 c0 -11 -2 -20 -4 -20 -2 0 -6 9 -9 20 -3 11 -1 20 4 20 5 0 9
-9 9 -20z m-1920 0 c0 -5 -5 -10 -11 -10 -5 0 -7 5 -4 10 3 6 8 10 11 10 2 0
4 -4 4 -10z m1910 -34 c0 -3 -4 -8 -10 -11 -5 -3 -10 -1 -10 4 0 6 5 11 10 11
6 0 10 -2 10 -4z m-1745 -36 c14 -6 16 -9 5 -10 -26 -4 -55 1 -64 11 -13 11
32 11 59 -1z m1730 0 c3 -5 -1 -10 -9 -10 -9 0 -16 -5 -16 -12 0 -6 -2 -9 -5
-6 -7 7 5 38 15 38 5 0 12 -4 15 -10z m-1815 -34 c0 -3 -4 -8 -10 -11 -5 -3
-10 -1 -10 4 0 6 5 11 10 11 6 0 10 -2 10 -4z m1680 -61 c0 -8 -2 -15 -4 -15
-2 0 -11 -3 -20 -6 -9 -3 -16 -1 -16 6 0 6 5 8 12 4 8 -5 9 -2 5 9 -4 11 -1
17 8 17 8 0 15 -7 15 -15z m-1783 -1 c-3 -3 -12 -4 -19 -1 -8 3 -5 6 6 6 11 1
17 -2 13 -5z m1693 -54 c-12 -8 -10 -10 8 -10 13 0 20 4 17 10 -4 6 5 10 21
10 22 0 24 -2 14 -15 -10 -12 -7 -15 14 -21 14 -3 26 -10 26 -15 0 -14 -58
-11 -62 3 -3 8 -19 12 -41 10 -22 -2 -37 1 -37 7 0 6 5 11 11 11 5 0 8 4 4 9
-3 5 3 11 12 13 24 6 31 -1 13 -12z m180 -20 c0 -13 -30 -13 -50 0 -11 7 -7
10 18 10 17 0 32 -4 32 -10z m-1823 -56 c-3 -3 -12 -4 -19 -1 -8 3 -5 6 6 6
11 1 17 -2 13 -5z m16 -31 c-7 -2 -21 -2 -30 0 -10 3 -4 5 12 5 17 0 24 -2 18
-5z m1578 -38 c2 -16 8 -33 13 -36 16 -12 -5 -29 -35 -29 -17 0 -28 4 -24 9 3
6 -9 5 -30 0 -20 -6 -45 -7 -55 -4 -12 4 -20 2 -20 -4 0 -6 -14 -11 -31 -11
-23 0 -30 4 -27 18 1 9 -1 23 -5 30 -6 9 2 12 28 12 20 0 43 7 51 15 19 18 44
20 44 3 0 -10 2 -10 8 -1 5 9 72 33 79 29 0 -1 3 -14 4 -31z m-1361 5 c-12 -7
-7 -12 20 -24 l35 -15 -52 1 c-35 2 -58 -3 -70 -13 -12 -11 -30 -15 -56 -12
-35 5 -61 21 -38 24 6 1 17 2 24 3 6 0 12 8 12 16 0 8 10 16 23 18 12 2 22 -1
22 -7 0 -6 8 -11 18 -11 14 0 14 2 3 9 -11 7 -6 11 20 14 19 2 39 4 44 5 6 1
3 -3 -5 -8z m-167 -17 c-7 -2 -19 -2 -25 0 -7 3 -2 5 12 5 14 0 19 -2 13 -5z
m1580 -27 c-10 -5 -18 -4 -24 5 -5 9 -3 16 9 20 22 8 36 -13 15 -25z m-1436
-12 c-3 -3 -12 -4 -19 -1 -8 3 -5 6 6 6 11 1 17 -2 13 -5z m240 -30 c-3 -3
-12 -4 -19 -1 -8 3 -5 6 6 6 11 1 17 -2 13 -5z m978 -14 c3 -5 -3 -10 -14 -10
-12 0 -21 5 -21 10 0 6 6 10 14 10 8 0 18 -4 21 -10z m-1030 -349 c23 -10 26
-14 15 -21 -23 -15 -43 -12 -36 5 7 18 -1 19 -18 2 -7 -7 -11 -19 -9 -27 3
-11 1 -11 -6 2 -7 10 -19 14 -31 11 -12 -3 -20 0 -20 7 0 7 -10 10 -27 6 -16
-3 -35 -2 -43 4 -13 8 -12 10 3 10 9 0 17 5 17 11 0 14 113 7 155 -10z m78 2
c4 -3 2 -12 -3 -18 -8 -9 -5 -14 10 -18 11 -3 20 -1 20 4 0 5 9 9 19 9 11 0
23 5 27 11 3 6 15 9 25 6 10 -3 46 -2 79 2 34 4 63 4 66 -1 3 -4 34 -8 68 -8
35 0 78 -3 95 -6 29 -6 30 -8 14 -20 -16 -12 -13 -13 22 -12 22 0 45 4 50 8 6
4 30 6 55 5 25 -1 55 5 68 12 12 8 28 11 34 7 7 -4 21 -9 32 -11 72 -10 103
-17 119 -28 18 -13 18 -13 0 -25 -15 -9 -13 -11 15 -7 17 2 32 0 32 -5 0 -4 5
-8 11 -8 6 0 9 8 7 18 -5 26 60 43 112 30 50 -13 51 -26 3 -30 -39 -3 -56 -23
-26 -31 12 -3 9 -5 -9 -6 -15 0 -30 -5 -33 -11 -3 -5 -13 -10 -21 -10 -8 0
-13 3 -11 8 3 4 -21 5 -53 4 -51 -3 -59 -6 -62 -25 -2 -15 -10 -22 -25 -22
-11 0 -25 -3 -29 -7 -4 -5 4 -8 19 -8 14 0 32 -7 41 -15 18 -18 27 -19 21 -2
-4 8 9 13 40 15 25 1 45 -2 45 -8 0 -5 -10 -10 -22 -10 -30 0 -54 -15 -39 -24
6 -4 11 -1 11 6 0 10 2 10 9 0 4 -8 17 -13 27 -12 11 1 36 2 56 1 32 -1 37 -4
43 -33 6 -26 9 -28 17 -15 10 18 38 23 38 8 0 -6 17 -8 38 -6 31 4 33 3 12 -4
-25 -9 -25 -9 5 -11 l30 -2 -35 -10 c-19 -5 -54 -8 -77 -5 -50 5 -80 -8 -40
-18 15 -4 38 -4 51 -1 16 4 26 1 30 -9 3 -8 1 -15 -5 -15 -14 0 -71 -41 -66
-47 3 -2 36 5 73 16 38 11 86 22 107 26 21 3 47 15 58 26 19 19 19 19 19 -3 0
-54 -11 -68 -49 -68 -46 0 -75 -16 -46 -25 11 -4 31 -12 43 -18 24 -11 24 -11
-10 -24 l-33 -13 33 5 c27 4 32 1 32 -15 0 -15 -7 -20 -29 -20 -17 0 -33 5
-36 10 -4 6 -11 8 -16 5 -5 -4 -9 1 -9 9 0 9 -7 16 -16 16 -9 0 -12 -5 -8 -12
4 -8 3 -10 -2 -5 -5 5 -9 14 -9 20 0 7 -16 17 -35 24 l-35 11 28 7 c31 8 37
25 8 25 -10 0 -49 -11 -87 -25 -38 -14 -78 -25 -89 -25 -17 0 -17 -2 -5 -10 8
-5 11 -10 5 -11 -5 -1 -14 -3 -20 -4 -5 -2 -27 -3 -49 -4 -29 -1 -37 -4 -32
-16 4 -12 -5 -15 -54 -15 -34 0 -60 -4 -60 -10 0 -19 198 12 291 45 l47 17 35
-36 c28 -28 46 -37 88 -42 l52 -7 -24 -19 -24 -20 35 5 c19 3 29 3 21 0 -9 -4
-10 -7 -2 -13 19 -11 1 -40 -25 -40 -13 0 -24 -4 -24 -10 0 -5 -6 -7 -12 -5
-7 2 -29 0 -48 -4 l-35 -9 30 -1 c23 -1 27 -3 15 -11 -24 -16 -60 -12 -87 10
-19 15 -27 17 -38 7 -11 -10 -10 -13 2 -18 28 -10 -66 -30 -160 -34 -51 -2
-94 -5 -97 -6 -3 -1 -9 -1 -13 0 -5 1 -20 -8 -34 -19 -15 -11 -41 -20 -62 -20
-48 0 -72 -15 -39 -23 29 -8 116 6 173 26 24 8 105 17 200 21 88 4 177 11 198
15 20 5 37 5 37 1 0 -4 -13 -10 -30 -14 -38 -7 -39 -26 -1 -26 27 0 29 -2 25
-37 -2 -21 -4 -43 -5 -50 -1 -6 -26 -14 -56 -18 -78 -10 -82 -30 -5 -22 48 5
62 4 62 -7 0 -15 -137 -38 -237 -40 -33 -1 -59 -4 -57 -7 2 -4 -18 -12 -44
-19 -77 -20 -75 -19 -63 -33 13 -16 230 -12 274 5 29 11 63 -5 51 -24 -4 -6
-10 -5 -15 3 -7 11 -11 11 -21 -3 -7 -9 -22 -19 -33 -22 -23 -6 54 1 100 9 17
3 23 2 15 -1 -8 -4 -23 -13 -32 -22 -13 -10 -18 -11 -18 -3 0 9 -4 8 -14 -2
-8 -8 -46 -18 -83 -22 -144 -15 -348 -46 -357 -55 -5 -5 -6 -15 -3 -23 7 -18
91 -13 215 14 52 12 96 19 98 16 11 -11 -11 -38 -39 -46 -75 -22 -132 -49
-130 -59 2 -7 -9 -12 -25 -12 -27 -1 -107 -7 -196 -15 -31 -3 -57 -12 -71 -25
-16 -15 -46 -24 -96 -32 -41 -5 -80 -15 -88 -21 -7 -6 -34 -13 -60 -14 -25 -1
-69 -5 -98 -9 -75 -9 -140 3 -154 28 -9 16 -8 23 2 29 10 6 7 9 -11 10 -22 1
-20 2 10 12 30 9 32 11 12 15 -12 2 -46 -1 -74 -7 -28 -6 -52 -10 -54 -8 -5 4
21 30 55 55 l24 19 -29 0 c-55 0 -104 13 -104 29 0 17 40 34 82 34 16 0 42 9
56 21 20 15 35 19 59 14 19 -3 47 0 69 10 50 21 180 31 198 16 9 -8 16 -8 20
-2 4 5 32 15 64 22 55 12 56 12 30 23 -27 11 -26 12 40 44 37 17 75 32 84 32
30 0 30 20 1 31 l-28 12 45 11 45 10 -35 4 c-40 4 -149 -15 -166 -29 -7 -5
-54 -14 -105 -20 -52 -6 -116 -19 -143 -30 -38 -15 -51 -17 -57 -7 -6 10 -19
9 -61 -4 -102 -31 -278 -43 -278 -18 0 14 59 52 70 45 5 -3 11 -1 11 4 1 6 2
16 3 22 1 12 18 23 51 34 15 5 16 8 6 14 -11 7 -10 11 5 20 17 11 16 11 -6 6
-21 -4 -21 -3 5 9 17 8 38 17 49 20 15 5 16 9 6 21 -9 10 -9 15 -1 15 6 0 11
7 11 15 0 17 46 39 61 30 5 -4 17 -2 26 4 13 7 3 9 -39 6 -31 -1 -61 -6 -67
-10 -6 -3 -11 -2 -11 4 0 5 -10 13 -21 16 -32 11 -4 25 49 25 41 0 133 37 147
60 12 19 45 11 45 -10 0 -16 7 -20 33 -20 46 0 78 11 74 24 -3 6 -10 10 -17 8
-24 -5 -52 9 -46 25 4 9 -1 17 -13 20 -12 3 -17 11 -14 24 5 16 0 18 -43 16
-27 -1 -47 -6 -46 -11 2 -5 -13 -18 -34 -29 -37 -19 -38 -20 -15 -28 12 -5 34
-6 48 -3 19 5 24 3 21 -7 -2 -8 -20 -15 -38 -17 -36 -4 -83 15 -74 30 3 4 0 8
-5 8 -6 0 -11 9 -11 20 0 14 -7 20 -22 20 -22 0 -22 0 2 17 14 10 36 19 49 21
14 2 42 17 63 33 21 17 42 28 47 25 5 -3 11 3 14 14 3 11 1 23 -4 26 -5 3 -9
1 -9 -5 0 -6 -44 -9 -116 -8 -63 2 -117 0 -120 -4 -6 -10 23 -32 34 -26 4 3
14 2 22 -4 12 -7 10 -9 -9 -9 -13 0 -43 -13 -68 -30 -24 -16 -48 -30 -54 -30
-19 0 -8 29 21 59 18 17 26 32 20 36 -6 4 -8 12 -4 18 3 7 0 5 -8 -4 -9 -11
-24 -14 -52 -11 -44 5 -43 -12 2 -29 21 -8 23 -12 12 -19 -22 -14 -40 -12 -40
5 0 8 -7 15 -16 15 -13 0 -13 4 3 32 10 18 29 42 43 55 21 19 22 22 8 23 -19
0 -23 25 -12 68 7 23 33 31 35 10 0 -7 4 -4 9 7 14 33 11 43 -10 38 -11 -3
-20 -10 -20 -17 0 -8 -2 -8 -8 0 -4 6 -20 14 -35 18 -24 6 -30 3 -34 -14 -3
-11 -14 -20 -24 -20 -33 0 -7 43 41 68 68 34 128 29 121 -11 -1 -9 50 2 63 14
6 5 25 9 42 9 18 0 35 4 38 9 4 5 -4 7 -16 4 -21 -4 -21 -3 -5 7 14 9 16 15 7
25 -10 11 -8 13 9 10 18 -3 20 -1 11 15 -14 26 -12 40 5 40 8 0 15 5 15 10 0
6 -5 10 -11 10 -5 0 -7 5 -4 10 3 6 -3 10 -14 10 -10 0 -21 -6 -24 -12 -2 -7
-8 -10 -12 -6 -4 4 6 15 23 25 17 10 33 26 36 35 4 18 27 24 39 11z m64 -9
c-3 -3 -12 -4 -19 -1 -8 3 -5 6 6 6 11 1 17 -2 13 -5z m-617 -14 c0 -5 -4 -10
-10 -10 -5 0 -10 5 -10 10 0 6 5 10 10 10 6 0 10 -4 10 -10z m365 -60 c3 -5 1
-10 -4 -10 -6 0 -11 5 -11 10 0 6 2 10 4 10 3 0 8 -4 11 -10z m1323 -14 c2
-25 -18 -36 -68 -36 -15 0 -31 -5 -37 -11 -16 -16 -46 -7 -49 14 -2 16 4 18
44 17 69 -3 72 -2 72 20 0 30 35 26 38 -4z m-58 4 c0 -5 -4 -10 -10 -10 -5 0
-10 5 -10 10 0 6 5 10 10 10 6 0 10 -4 10 -10z m119 -12 c-13 -23 -4 -37 13
-20 7 7 23 12 38 11 l25 -1 -25 -7 c-25 -7 -25 -7 -2 -13 22 -6 32 -28 12 -28
-5 0 -10 -8 -10 -17 -1 -17 -1 -17 -14 0 -7 9 -26 17 -41 17 -20 0 -26 4 -21
15 3 8 1 15 -3 15 -5 0 -8 10 -7 23 1 15 8 22 23 23 19 2 21 -1 12 -18z
m-1469 -13 c0 -11 11 -15 40 -15 24 0 40 -5 40 -12 0 -9 3 -9 12 0 17 17 33
15 18 -3 -6 -8 -9 -19 -5 -24 8 -15 -58 -1 -67 13 -5 8 -8 7 -8 -1 0 -7 -9
-13 -20 -13 -37 0 -120 -22 -115 -30 7 -11 -16 -19 -33 -12 -11 4 -11 6 0 14
9 7 7 8 -7 3 -23 -8 -24 -8 -47 -6 -25 1 -22 18 3 24 15 4 20 11 15 22 -8 21
17 29 45 15 19 -10 24 -10 34 4 15 20 29 21 21 1 -3 -9 0 -15 8 -15 8 0 16 7
20 15 3 8 0 15 -7 15 -19 0 15 20 36 20 9 0 17 -7 17 -15z m1085 -35 c3 -5 -3
-10 -14 -10 -12 0 -21 5 -21 10 0 6 6 10 14 10 8 0 18 -4 21 -10z m65 0 c0 -5
-4 -10 -9 -10 -6 0 -13 5 -16 10 -3 6 1 10 9 10 9 0 16 -4 16 -10z m245 -7
c-25 -6 -46 -23 -40 -32 2 -4 -35 -8 -83 -8 -61 0 -75 2 -47 6 22 4 54 14 70
23 17 9 50 16 75 16 25 0 36 -3 25 -5z m-182 -10 c-7 -2 -19 -2 -25 0 -7 3 -2
5 12 5 14 0 19 -2 13 -5z m241 -19 c50 -7 57 -21 25 -50 -20 -18 -21 -18 -35
0 -12 17 -14 17 -20 3 -5 -13 -19 -17 -63 -17 -62 0 -98 14 -68 26 10 3 35 4
56 1 29 -4 40 -1 49 14 10 15 8 18 -11 22 -21 4 -21 4 -1 6 12 0 42 -2 68 -5z
m-1579 -44 c3 -5 -1 -10 -10 -10 -9 0 -13 5 -10 10 3 6 8 10 10 10 2 0 7 -4
10 -10z m-68 -45 c8 -9 13 -19 10 -22 -6 -5 -37 21 -37 31 0 10 11 6 27 -9z
m183 1 c0 -7 -7 -19 -15 -26 -9 -7 -13 -21 -10 -30 3 -9 -1 -22 -9 -29 -12
-10 -14 -5 -12 28 2 38 19 71 37 71 5 0 9 -6 9 -14z m-200 -30 c0 -3 -4 -8
-10 -11 -5 -3 -10 -1 -10 4 0 6 5 11 10 11 6 0 10 -2 10 -4z m1670 -5 c0 -11
-106 -44 -122 -38 -19 6 62 46 95 47 15 0 27 -4 27 -9z m-1570 -41 c-20 -13
-33 -13 -25 0 3 6 14 10 23 10 15 0 15 -2 2 -10z m-80 -29 c6 -17 9 -35 5 -40
-11 -18 7 -12 21 6 7 10 16 14 21 10 11 -12 -37 -47 -65 -47 -19 0 -22 4 -17
21 6 18 5 19 -13 8 -12 -7 -18 -17 -16 -21 3 -4 -2 -8 -10 -8 -18 0 -30 17
-16 22 6 2 11 17 13 34 1 19 7 30 13 27 7 -2 15 0 19 6 12 20 32 11 45 -18z
m125 -21 c-3 -5 -13 -10 -21 -10 -8 0 -12 5 -9 10 3 6 13 10 21 10 8 0 12 -4
9 -10z m273 -69 c10 -6 7 -10 -12 -13 -25 -5 -33 1 -19 15 8 9 15 9 31 -2z
m-412 -28 c-7 -7 -26 7 -26 19 0 6 6 6 15 -2 9 -7 13 -15 11 -17z m-3 -25 c2
-7 -3 -22 -12 -32 -12 -15 -9 -14 16 4 27 19 35 21 48 10 38 -32 -1 -87 -64
-88 -37 -1 -39 1 -32 21 6 16 3 26 -13 38 l-21 17 20 21 c23 23 51 27 58 9z
m192 -8 c-3 -5 -13 -10 -21 -10 -8 0 -14 5 -14 10 0 6 9 10 21 10 11 0 17 -4
14 -10z m-45 -30 c0 -5 -4 -10 -10 -10 -5 0 -10 5 -10 10 0 6 5 10 10 10 6 0
10 -4 10 -10z m180 -10 c0 -5 -4 -10 -10 -10 -5 0 -10 5 -10 10 0 6 5 10 10
10 6 0 10 -4 10 -10z m3 -57 c-7 -2 -19 -2 -25 0 -7 3 -2 5 12 5 14 0 19 -2
13 -5z m-379 -48 c-10 -8 -23 -14 -29 -15 -6 0 -6 3 1 8 6 4 14 16 18 26 5 15
9 17 18 8 9 -9 7 -15 -8 -27z m1676 15 c8 -5 11 -10 5 -10 -5 0 -17 5 -25 10
-8 5 -10 10 -5 10 6 0 17 -5 25 -10z m-1590 -14 c0 -3 -4 -8 -10 -11 -5 -3
-10 -1 -10 4 0 6 5 11 10 11 6 0 10 -2 10 -4z m175 -106 c-3 -5 6 -12 20 -16
31 -8 32 -17 1 -34 -16 -8 -39 -10 -65 -6 -34 5 -39 4 -35 -9 4 -8 1 -15 -5
-15 -22 0 -10 28 26 59 34 29 72 43 58 21z m155 -250 c22 -14 3 -26 -58 -39
-71 -15 -107 -14 -121 3 -10 12 0 16 61 26 40 6 78 13 83 15 16 6 19 5 35 -5z
m273 0 c-33 -13 -123 -28 -123 -20 0 9 69 27 110 28 30 1 32 -1 13 -8z m942
-119 c-3 -5 4 -12 15 -16 43 -14 12 -39 -75 -62 l-50 -13 50 5 c28 2 70 6 95
9 l45 6 -37 -13 c-54 -18 -58 -29 -9 -21 34 5 42 4 37 -5 -5 -7 0 -18 10 -26
17 -13 17 -16 4 -25 -19 -13 -87 -13 -95 0 -3 6 -26 10 -50 10 -24 0 -54 4
-67 9 -13 5 -35 12 -50 15 -25 6 -26 9 -16 25 7 12 30 23 57 28 34 6 49 14 56
31 6 14 22 26 38 29 15 3 27 9 27 14 0 5 5 9 11 9 5 0 8 -4 4 -9z m-1168 -318
c-3 -5 11 -8 31 -8 49 0 52 -29 5 -33 -18 -2 -33 1 -33 6 0 5 -9 12 -21 15
-23 6 -17 27 7 27 8 0 13 -3 11 -7z"/>
<path d="M4860 10020 c0 -5 11 -10 24 -10 14 0 28 5 31 10 4 6 -7 10 -24 10
-17 0 -31 -4 -31 -10z"/>
<path d="M5307 10013 c-10 -9 -9 -23 2 -23 5 0 11 7 15 15 5 15 -5 20 -17 8z"/>
<path d="M4505 9969 c-10 -15 3 -25 16 -12 7 7 7 13 1 17 -6 3 -14 1 -17 -5z"/>
<path d="M4717 9946 c-9 -22 48 -39 64 -20 9 11 8 14 -9 14 -12 0 -24 5 -27
10 -9 14 -22 12 -28 -4z"/>
<path d="M4450 9935 c0 -10 10 -15 26 -15 22 0 25 2 14 15 -7 8 -19 15 -26 15
-8 0 -14 -7 -14 -15z"/>
<path d="M4951 9934 c0 -11 3 -14 6 -6 3 7 2 16 -1 19 -3 4 -6 -2 -5 -13z"/>
<path d="M4515 9920 c-3 -5 -1 -10 4 -10 6 0 11 5 11 10 0 6 -2 10 -4 10 -3 0
-8 -4 -11 -10z"/>
<path d="M4473 9857 c2 -7 15 -11 28 -11 35 2 39 3 39 12 0 4 -16 8 -36 9 -23
1 -34 -2 -31 -10z"/>
<path d="M5202 9859 c2 -7 10 -15 17 -17 8 -3 12 1 9 9 -2 7 -10 15 -17 17 -8
3 -12 -1 -9 -9z"/>
<path d="M4516 9804 c-16 -11 -17 -17 -8 -26 7 -7 12 -9 12 -5 0 4 9 3 21 -4
19 -10 20 -9 14 13 -11 34 -18 38 -39 22z"/>
<path d="M5044 9448 c-3 -4 -4 -8 -2 -9 27 -6 38 -5 38 5 0 14 -28 17 -36 4z"/>
<path d="M4385 9300 c3 -5 8 -10 11 -10 2 0 4 5 4 10 0 6 -5 10 -11 10 -5 0
-7 -4 -4 -10z"/>
<path d="M5186 9033 c-11 -11 -6 -23 9 -23 8 0 15 4 15 9 0 13 -16 22 -24 14z"/>
<path d="M7293 7333 c-26 -10 -12 -20 27 -19 44 1 52 10 18 20 -26 6 -28 6
-45 -1z"/>
<path d="M8165 6870 c3 -5 8 -10 11 -10 2 0 4 5 4 10 0 6 -5 10 -11 10 -5 0
-7 -4 -4 -10z"/>
<path d="M7490 6590 c0 -5 5 -10 11 -10 5 0 7 5 4 10 -3 6 -8 10 -11 10 -2 0
-4 -4 -4 -10z"/>
<path d="M4895 6650 c-3 -5 -1 -10 4 -10 6 0 11 5 11 10 0 6 -2 10 -4 10 -3 0
-8 -4 -11 -10z"/>
<path d="M7202 5526 c7 -8 15 -12 17 -11 5 6 -10 25 -20 25 -5 0 -4 -6 3 -14z"/>
<path d="M5340 4890 c0 -5 4 -10 9 -10 6 0 13 5 16 10 3 6 -1 10 -9 10 -9 0
-16 -4 -16 -10z"/>
<path d="M2948 1983 c7 -3 16 -2 19 1 4 3 -2 6 -13 5 -11 0 -14 -3 -6 -6z"/>
<path d="M2891 1966 c10 -9 79 -14 79 -5 0 5 -19 9 -42 9 -23 0 -39 -2 -37 -4z"/>
<path d="M2835 1950 c28 -12 47 -12 40 0 -3 6 -18 10 -33 9 -24 0 -25 -1 -7
-9z"/>
<path d="M2145 1500 c-3 -6 1 -7 9 -4 18 7 21 14 7 14 -6 0 -13 -4 -16 -10z"/>
<path d="M2228 1473 c6 -2 18 -2 25 0 6 3 1 5 -13 5 -14 0 -19 -2 -12 -5z"/>
<path d="M2395 1460 c3 -5 19 -10 36 -10 16 0 29 5 29 10 0 6 -16 10 -36 10
-21 0 -33 -4 -29 -10z"/>
<path d="M2675 1440 c-3 -6 1 -7 9 -4 18 7 21 14 7 14 -6 0 -13 -4 -16 -10z"/>
<path d="M2424 1415 c5 -20 3 -25 -14 -25 -11 0 -20 -4 -20 -10 0 -5 3 -10 6
-10 10 0 49 23 56 33 9 15 -2 37 -19 37 -11 0 -13 -7 -9 -25z"/>
<path d="M2444 1379 c-7 -11 27 -11 45 0 9 6 5 9 -13 9 -15 0 -29 -4 -32 -9z"/>
<path d="M1900 1360 c8 -15 17 -18 43 -13 45 8 46 13 4 13 -20 0 -37 5 -37 10
0 6 -5 10 -10 10 -7 0 -7 -6 0 -20z"/>
<path d="M2308 1343 c7 -3 16 -2 19 1 4 3 -2 6 -13 5 -11 0 -14 -3 -6 -6z"/>
<path d="M2404 1333 c-21 -9 -51 -15 -67 -15 -15 1 -42 -7 -60 -17 -17 -11
-53 -22 -80 -26 -26 -3 -45 -10 -42 -16 8 -12 65 -12 65 1 0 6 25 10 55 10 30
0 55 5 55 10 0 6 11 10 25 10 16 0 25 6 25 15 0 17 26 21 32 5 2 -7 20 -7 56
1 34 8 49 16 43 22 -16 16 -65 16 -107 0z"/>
<path d="M2535 1340 c-3 -6 1 -7 9 -4 18 7 21 14 7 14 -6 0 -13 -4 -16 -10z"/>
<path d="M1878 1293 c7 -3 16 -2 19 1 4 3 -2 6 -13 5 -11 0 -14 -3 -6 -6z"/>
<path d="M2700 1290 c-12 -8 -12 -10 4 -16 10 -4 21 -2 25 3 3 6 13 13 21 16
9 3 5 6 -10 6 -14 0 -32 -3 -40 -9z"/>
<path d="M2628 1283 c7 -3 16 -2 19 1 4 3 -2 6 -13 5 -11 0 -14 -3 -6 -6z"/>
<path d="M1983 1253 c9 -2 23 -2 30 0 6 3 -1 5 -18 5 -16 0 -22 -2 -12 -5z"/>
<path d="M1603 1225 c0 -8 7 -15 15 -15 7 0 12 5 10 12 -6 18 -25 21 -25 3z"/>
<path d="M1700 1236 c0 -9 30 -14 35 -6 4 6 -3 10 -14 10 -12 0 -21 -2 -21 -4z"/>
<path d="M2690 1230 c13 -8 12 -10 -4 -10 -14 0 -17 -3 -10 -10 13 -13 40 -4
48 16 4 10 -2 14 -22 14 -21 0 -24 -2 -12 -10z"/>
<path d="M1755 1200 c-3 -5 3 -10 15 -10 12 0 18 5 15 10 -3 6 -10 10 -15 10
-5 0 -12 -4 -15 -10z"/>
<path d="M2725 1189 c-22 -6 -53 -8 -69 -6 -16 2 -41 -2 -55 -9 -23 -13 -17
-13 54 -9 44 4 92 8 107 10 15 2 28 -1 30 -7 3 -7 12 -9 23 -4 11 4 15 10 9
16 -16 15 -57 19 -99 9z"/>
<path d="M1630 1159 c0 -11 5 -17 10 -14 6 3 10 13 10 21 0 8 -4 14 -10 14 -5
0 -10 -9 -10 -21z"/>
<path d="M2438 1163 c7 -3 16 -2 19 1 4 3 -2 6 -13 5 -11 0 -14 -3 -6 -6z"/>
<path d="M2956 1159 c3 -5 18 -9 34 -9 16 0 31 4 34 9 3 4 -12 8 -34 8 -22 0
-37 -4 -34 -8z"/>
<path d="M2700 1148 c-19 -5 -50 -9 -68 -9 -19 1 -43 -6 -55 -15 -21 -15 -16
-16 76 -10 107 6 119 9 110 31 -6 17 -13 17 -63 3z"/>
<path d="M2228 1123 c6 -2 18 -2 25 0 6 3 1 5 -13 5 -14 0 -19 -2 -12 -5z"/>
<path d="M2485 1070 c-8 -12 40 -24 62 -16 15 6 15 8 3 16 -20 13 -57 13 -65
0z"/>
<path d="M2666 1014 c-52 -19 -60 -29 -16 -20 19 4 58 9 85 11 28 3 64 9 80
14 25 8 19 9 -40 9 -38 1 -88 -6 -109 -14z"/>
<path d="M2558 993 c7 -3 16 -2 19 1 4 3 -2 6 -13 5 -11 0 -14 -3 -6 -6z"/>
<path d="M2680 981 c-8 -6 -40 -11 -70 -11 -38 0 -50 -3 -39 -10 9 -5 41 -5
80 0 35 5 82 9 104 8 l40 -1 -45 -7 c-25 -4 -35 -8 -23 -8 12 -1 29 -9 38 -18
11 -11 38 -18 83 -20 47 -3 60 -1 42 5 -14 5 -44 9 -68 10 -51 1 -48 21 3 21
42 0 54 16 17 23 -67 13 -148 17 -162 8z"/>
<path d="M2928 933 c6 -2 18 -2 25 0 6 3 1 5 -13 5 -14 0 -19 -2 -12 -5z"/>
<path d="M2282 898 c-7 -7 -12 -17 -12 -24 0 -7 -6 -15 -12 -18 -7 -2 22 -3
65 -2 43 2 81 6 84 10 4 3 -1 6 -10 6 -9 0 -17 5 -17 11 0 5 -4 8 -9 5 -5 -3
-11 1 -15 9 -7 18 -57 20 -74 3z"/>
<path d="M2553 873 c9 -2 25 -2 35 0 9 3 1 5 -18 5 -19 0 -27 -2 -17 -5z"/>
<path d="M2098 854 c-3 -3 -25 -5 -49 -6 -67 -1 -96 -17 -32 -17 32 -1 53 -6
56 -13 3 -10 9 -8 24 5 11 9 25 17 31 17 7 0 12 5 12 10 0 11 -33 14 -42 4z"/>
<path d="M2260 830 c-19 -12 62 -12 100 0 19 6 12 8 -30 9 -30 0 -62 -4 -70
-9z"/>
<path d="M1993 775 c-5 -8 -33 -19 -63 -25 -58 -11 -91 -30 -52 -30 12 0 22
-4 22 -10 0 -13 86 -13 151 1 l53 11 -39 19 c-21 11 -45 19 -54 19 -28 0 3 18
39 23 34 4 33 4 -7 5 -28 1 -45 -3 -50 -13z"/>
<path d="M2720 770 c0 -5 9 -10 20 -10 11 0 20 5 20 10 0 6 -9 10 -20 10 -11
0 -20 -4 -20 -10z"/>
<path d="M2245 760 c-9 -15 -1 -23 21 -18 15 3 16 4 1 16 -11 9 -17 10 -22 2z"/>
<path d="M2943 743 c9 -2 23 -2 30 0 6 3 -1 5 -18 5 -16 0 -22 -2 -12 -5z"/>
<path d="M2660 720 c-11 -7 -7 -10 17 -10 17 0 35 5 38 10 8 13 -35 13 -55 0z"/>
<path d="M2958 723 c7 -3 16 -2 19 1 4 3 -2 6 -13 5 -11 0 -14 -3 -6 -6z"/>
<path d="M2378 713 c-21 -2 -38 -9 -38 -15 0 -14 129 -5 156 10 16 9 10 11
-31 10 -27 -1 -67 -3 -87 -5z"/>
<path d="M2065 679 c-4 -6 -17 -14 -29 -19 -19 -8 -17 -9 10 -9 18 -1 42 8 55
19 l24 19 -27 1 c-15 0 -30 -5 -33 -11z"/>
<path d="M1820 670 c-10 -6 11 -7 60 -3 41 3 77 7 79 9 10 9 -125 3 -139 -6z"/>
<path d="M2620 660 c-18 -6 -7 -8 43 -9 38 -1 67 3 67 9 0 12 -74 12 -110 0z"/>
<path d="M2785 650 c-3 -5 1 -10 9 -10 8 0 18 5 21 10 3 6 -1 10 -9 10 -8 0
-18 -4 -21 -10z"/>
<path d="M2868 643 c6 -2 18 -2 25 0 6 3 1 5 -13 5 -14 0 -19 -2 -12 -5z"/>
<path d="M2646 511 c-4 -5 3 -7 14 -4 23 6 26 13 6 13 -8 0 -17 -4 -20 -9z"/>
<path d="M2565 490 c-3 -5 3 -10 15 -10 12 0 18 5 15 10 -3 6 -10 10 -15 10
-5 0 -12 -4 -15 -10z"/>
<path d="M2140 460 c0 -5 7 -10 15 -10 8 0 15 5 15 10 0 6 -7 10 -15 10 -8 0
-15 -4 -15 -10z"/>
<path d="M2438 341 c-71 -10 -68 -19 7 -18 38 1 67 6 67 12 -1 13 -16 14 -74
6z"/>
<path d="M2130 327 c0 -5 -14 -6 -30 -2 -21 5 -39 2 -56 -10 -13 -8 -29 -13
-33 -10 -5 3 -20 1 -33 -5 -18 -7 -11 -9 35 -8 69 1 93 -14 48 -30 -17 -6 -31
-16 -31 -21 0 -16 32 -13 54 4 11 8 27 13 36 10 9 -3 29 4 43 15 14 11 45 31
68 44 l42 24 -72 -1 c-39 -1 -71 -5 -71 -10z"/>
<path d="M1764 315 c-18 -15 -18 -15 5 -13 14 2 26 9 29 16 5 17 -10 15 -34
-3z"/>
<path d="M1575 1400 c-3 -5 1 -10 10 -10 9 0 13 5 10 10 -3 6 -8 10 -10 10 -2
0 -7 -4 -10 -10z"/>
<path d="M2810 300 c0 -6 7 -10 15 -10 8 0 15 2 15 4 0 2 -7 6 -15 10 -8 3
-15 1 -15 -4z"/>
<path d="M2865 270 c-3 -5 -1 -10 4 -10 6 0 11 5 11 10 0 6 -2 10 -4 10 -3 0
-8 -4 -11 -10z"/>
<path d="M1340 9761 c0 -6 5 -13 10 -16 6 -3 10 1 10 9 0 9 -4 16 -10 16 -5 0
-10 -4 -10 -9z"/>
<path d="M1345 9540 c3 -5 10 -10 16 -10 5 0 9 5 9 10 0 6 -7 10 -16 10 -8 0
-12 -4 -9 -10z"/>
<path d="M2778 7673 c7 -3 16 -2 19 1 4 3 -2 6 -13 5 -11 0 -14 -3 -6 -6z"/>
<path d="M3040 7641 c0 -5 5 -13 10 -16 6 -3 10 -2 10 4 0 5 -4 13 -10 16 -5
3 -10 2 -10 -4z"/>
<path d="M2965 7620 c4 -6 11 -8 16 -5 14 9 11 15 -7 15 -8 0 -12 -5 -9 -10z"/>
<path d="M3645 7610 c3 -5 8 -10 11 -10 2 0 4 5 4 10 0 6 -5 10 -11 10 -5 0
-7 -4 -4 -10z"/>
<path d="M3615 7600 c-3 -5 -1 -10 4 -10 6 0 11 5 11 10 0 6 -2 10 -4 10 -3 0
-8 -4 -11 -10z"/>
<path d="M3833 7376 c5 -16 27 -19 27 -3 0 7 -7 14 -15 14 -9 0 -14 -5 -12
-11z"/>
<path d="M4260 7191 c0 -6 5 -13 10 -16 6 -3 10 1 10 9 0 9 -4 16 -10 16 -5 0
-10 -4 -10 -9z"/>
<path d="M4460 7150 c0 -5 5 -10 10 -10 6 0 10 5 10 10 0 6 -4 10 -10 10 -5 0
-10 -4 -10 -10z"/>
<path d="M6250 7060 c0 -5 5 -10 11 -10 5 0 7 5 4 10 -3 6 -8 10 -11 10 -2 0
-4 -4 -4 -10z"/>
<path d="M6326 7045 c4 -8 1 -15 -5 -15 -6 0 -11 -7 -11 -15 0 -8 -4 -15 -8
-15 -5 0 -23 -20 -41 -45 -18 -25 -38 -45 -45 -45 -7 0 -25 11 -39 24 -25 24
-26 24 -6 42 26 24 24 44 -5 44 -14 0 -33 -11 -45 -26 -17 -22 -23 -24 -43
-14 l-23 11 24 -20 c13 -12 18 -21 11 -21 -7 0 -10 -6 -7 -13 3 -8 1 -20 -3
-28 -13 -19 9 -43 26 -28 18 15 37 1 31 -22 -3 -10 -1 -22 5 -25 5 -3 8 -15 5
-25 -7 -26 17 -44 40 -30 17 10 17 10 1 11 -27 0 -36 50 -12 67 33 25 154 -1
154 -32 0 -9 -5 -13 -11 -10 -6 4 -16 -1 -24 -11 -19 -26 0 -47 35 -39 18 4
31 1 40 -10 15 -18 7 -19 -21 -4 -20 10 -20 10 -4 -15 15 -23 15 -25 -4 -35
-11 -6 -29 -11 -41 -11 -12 0 -18 -4 -15 -10 3 -5 -3 -10 -14 -10 -11 0 -22 4
-25 9 -7 11 -125 26 -133 17 -10 -9 29 -35 53 -36 28 0 62 -39 66 -75 3 -27 7
-30 41 -33 20 -2 35 -8 32 -13 -4 -5 -11 -7 -16 -4 -5 3 -6 -1 -3 -9 3 -9 11
-16 16 -16 6 0 8 -7 4 -15 -4 -11 1 -15 17 -15 12 0 28 -9 35 -20 7 -11 18
-20 26 -20 8 0 17 -8 20 -17 6 -15 8 -15 24 1 11 12 13 20 6 23 -22 8 -2 44
28 50 35 7 49 30 37 61 -7 19 -11 21 -28 10 -21 -13 -31 -9 -35 14 -5 29 -36
76 -54 80 -15 4 -18 12 -15 31 8 41 28 53 67 39 48 -17 66 -15 66 8 0 17 -4
19 -27 14 -22 -6 -25 -4 -20 10 5 12 0 19 -16 25 -13 5 -31 20 -40 34 -8 13
-22 30 -29 38 -38 38 -20 85 27 73 14 -4 12 0 -8 13 -15 10 -25 24 -22 32 3 7
-4 28 -16 47 -22 36 -32 44 -23 19z m24 -416 c0 -6 8 -8 19 -4 14 4 22 -3 35
-29 9 -19 16 -37 16 -40 0 -15 -22 -4 -49 25 -16 16 -32 26 -35 20 -4 -5 1
-14 10 -19 9 -5 16 -23 17 -43 2 -28 -2 -34 -18 -34 -16 0 -20 6 -17 33 1 17
-2 32 -7 32 -16 0 -18 34 -3 53 17 19 32 22 32 6z"/>
<path d="M6035 6950 c-3 -5 1 -10 9 -10 9 0 16 5 16 10 0 6 -4 10 -9 10 -6 0
-13 -4 -16 -10z"/>
<path d="M4491 6904 c0 -11 3 -14 6 -6 3 7 2 16 -1 19 -3 4 -6 -2 -5 -13z"/>
<path d="M4590 6879 c0 -5 5 -7 10 -4 6 3 10 8 10 11 0 2 -4 4 -10 4 -5 0 -10
-5 -10 -11z"/>
<path d="M6039 6863 c-13 -15 -12 -15 9 -4 23 12 28 21 13 21 -5 0 -15 -7 -22
-17z"/>
<path d="M5885 6790 c-7 -12 1 -25 16 -25 5 0 8 -4 7 -10 -2 -5 -6 -9 -10 -7
-5 1 -8 -2 -8 -8 0 -5 13 -10 29 -10 16 0 42 -5 57 -10 15 -6 29 -8 32 -5 10
10 -31 44 -67 56 -20 7 -39 16 -42 22 -4 5 -9 5 -14 -3z"/>
<path d="M6785 6790 c-3 -5 -1 -10 4 -10 6 0 11 5 11 10 0 6 -2 10 -4 10 -3 0
-8 -4 -11 -10z"/>
<path d="M4429 6767 c6 -8 7 -18 3 -22 -4 -5 -1 -5 6 -1 7 4 12 2 12 -5 0 -10
3 -10 11 -2 13 13 3 36 -12 28 -5 -4 -9 -1 -9 4 0 6 -5 11 -11 11 -8 0 -9 -4
0 -13z"/>
<path d="M6606 6575 c-3 -10 1 -15 14 -15 10 0 22 -4 25 -10 3 -5 -1 -10 -11
-10 -13 0 -14 -3 -4 -14 18 -22 8 -56 -22 -74 -25 -15 -28 -15 -46 1 -13 12
-26 15 -40 10 -24 -9 -19 -19 25 -50 26 -18 32 -20 37 -8 9 23 27 18 84 -25
39 -30 59 -39 74 -34 19 6 19 7 5 16 -10 5 -17 14 -17 20 0 6 11 3 25 -6 32
-21 45 -20 45 4 0 12 -12 26 -32 36 -18 9 -35 20 -38 23 -3 4 -18 12 -34 19
-19 8 -26 16 -19 20 17 10 43 64 37 74 -7 10 -72 38 -89 38 -7 0 -15 -7 -19
-15z"/>
<path d="M4510 6559 c0 -5 5 -9 10 -9 6 0 10 -7 10 -16 0 -10 6 -14 15 -10 8
3 15 2 15 -3 0 -14 89 -40 97 -28 3 5 1 7 -4 4 -6 -4 -16 0 -23 8 -8 9 -21 13
-34 10 -14 -4 -17 -3 -8 3 10 7 7 13 -15 28 -30 20 -63 27 -63 13z"/>
<path d="M4740 6486 c0 -2 7 -7 16 -10 8 -3 12 -2 9 4 -6 10 -25 14 -25 6z"/>
<path d="M6125 6465 c-11 -7 -38 -15 -59 -17 -53 -5 -69 -30 -37 -57 29 -25
44 -26 61 -6 9 11 16 13 24 5 5 -5 25 -10 43 -10 38 0 53 22 35 51 -7 10 -12
26 -12 34 0 18 -28 19 -55 0z m25 -49 c0 -24 -18 -28 -30 -6 -9 17 -8 20 10
20 11 0 20 -6 20 -14z"/>
<path d="M5730 6443 c0 -5 12 -16 26 -27 25 -18 28 -18 61 -2 19 9 40 13 46
10 9 -5 9 -4 1 5 -15 16 -43 20 -76 10 -16 -4 -30 -3 -33 2 -7 11 -25 12 -25
2z"/>
<path d="M5490 6413 c0 -41 12 -61 31 -56 14 4 18 11 13 22 -3 9 -9 24 -11 34
-3 9 -12 17 -19 17 -8 0 -14 -8 -14 -17z"/>
<path d="M5803 6370 c-23 -9 -32 -40 -12 -40 16 0 54 -33 54 -47 0 -6 -3 -15
-7 -19 -15 -14 -8 -39 13 -52 18 -12 23 -10 44 12 15 16 40 28 67 32 24 4 46
12 50 17 5 9 -53 57 -69 57 -3 0 -18 11 -35 25 -30 26 -66 31 -105 15z"/>
<path d="M6247 6373 c-15 -15 -7 -43 13 -43 15 0 20 7 20 25 0 24 -18 34 -33
18z"/>
<path d="M5530 6191 c0 -11 26 -22 34 -14 3 3 3 10 0 14 -7 12 -34 11 -34 0z"/>
<path d="M5467 6142 c-26 -2 -45 -7 -42 -12 3 -6 0 -8 -7 -5 -7 3 -25 -6 -40
-19 -32 -26 -37 -56 -10 -51 9 2 28 4 41 4 16 1 21 5 17 16 -3 8 -1 15 4 15 6
0 10 -9 10 -20 0 -28 35 -26 65 5 24 23 33 60 18 67 -5 2 -29 2 -56 0z"/>
<path d="M5111 6084 c0 -11 3 -14 6 -6 3 7 2 16 -1 19 -3 4 -6 -2 -5 -13z"/>
<path d="M5131 6074 c0 -11 3 -14 6 -6 3 7 2 16 -1 19 -3 4 -6 -2 -5 -13z"/>
<path d="M5345 5990 c-3 -5 -1 -10 4 -10 6 0 11 5 11 10 0 6 -2 10 -4 10 -3 0
-8 -4 -11 -10z"/>
<path d="M5673 5913 c-7 -2 -13 -16 -13 -29 0 -14 4 -23 9 -20 5 4 11 1 13 -6
3 -7 11 -9 24 -4 10 5 14 10 8 13 -6 2 -9 15 -6 28 4 25 -6 30 -35 18z"/>
<path d="M6320 5480 c0 -5 5 -10 11 -10 5 0 7 5 4 10 -3 6 -8 10 -11 10 -2 0
-4 -4 -4 -10z"/>
<path d="M6224 5429 c-6 -10 -7 -10 29 -13 15 -1 27 2 27 6 0 4 -3 8 -7 9 -5
0 -16 2 -25 4 -10 2 -20 -1 -24 -6z"/>
<path d="M4814 5401 c7 -11 -19 -33 -28 -24 -4 4 -4 0 0 -10 6 -17 22 -21 83
-17 19 1 37 -4 42 -12 6 -9 9 -7 9 9 0 20 -4 22 -32 16 -18 -4 -29 -2 -25 3 3
5 -8 17 -24 27 -17 9 -28 13 -25 8z"/>
<path d="M4930 5367 c0 -3 11 -12 24 -20 22 -15 24 -15 22 1 -2 14 -46 32 -46
19z"/>
<path d="M6180 5336 c0 -18 17 -29 30 -21 8 5 7 11 -1 21 -15 18 -29 18 -29 0z"/>
<path d="M1328 4953 c-20 -5 -23 -18 -8 -28 6 -3 10 -12 9 -18 0 -9 -2 -8 -6
1 -2 6 -9 10 -14 6 -5 -3 -9 2 -9 10 0 9 -5 16 -10 16 -15 0 -9 -172 6 -177 7
-2 18 3 27 11 8 8 17 12 21 9 10 -11 50 -11 63 -1 7 5 14 5 18 -2 10 -16 35
-12 36 8 0 14 2 14 9 -3 8 -19 9 -19 9 3 1 12 -3 22 -7 22 -4 0 -9 12 -10 28
-1 15 -7 29 -12 30 -6 2 -10 12 -10 23 0 19 -19 27 -21 9 -1 -5 -2 -14 -3 -19
-3 -26 -12 -16 -14 17 -3 43 -18 64 -31 43 -5 -8 -7 -20 -4 -28 3 -7 -1 -13
-8 -13 -7 0 -9 3 -6 7 4 3 2 12 -4 20 -9 9 -8 13 0 13 6 0 11 5 11 10 0 10 -3
11 -32 3z"/>
<path d="M1280 4666 l0 -92 39 4 c37 4 40 6 50 47 20 81 12 98 -55 121 l-34
12 0 -92z"/>
<path d="M1445 3440 c-3 -5 -1 -10 4 -10 6 0 11 5 11 10 0 6 -2 10 -4 10 -3 0
-8 -4 -11 -10z"/>
<path d="M3348 3243 c6 -2 18 -2 25 0 6 3 1 5 -13 5 -14 0 -19 -2 -12 -5z"/>
<path d="M1540 3210 c-12 -8 -11 -10 5 -10 15 0 17 -3 7 -9 -11 -7 -11 -9 1
-14 12 -4 15 0 12 15 -6 27 -8 29 -25 18z"/>
<path d="M3410 3206 c0 -2 7 -6 15 -10 8 -3 15 -1 15 4 0 6 -7 10 -15 10 -8 0
-15 -2 -15 -4z"/>
<path d="M3418 3168 c9 -9 15 -9 24 0 9 9 7 12 -12 12 -19 0 -21 -3 -12 -12z"/>
<path d="M3365 3150 c-3 -5 -1 -10 4 -10 6 0 11 5 11 10 0 6 -2 10 -4 10 -3 0
-8 -4 -11 -10z"/>
<path d="M1471 3101 c-8 -6 -9 -11 -3 -15 6 -3 14 -1 17 5 9 14 2 20 -14 10z"/>
<path d="M1535 3080 c-3 -5 -12 -7 -19 -4 -18 7 -27 -8 -16 -25 11 -19 36 -8
43 18 5 22 2 27 -8 11z"/>
<path d="M3228 3013 c7 -3 16 -2 19 1 4 3 -2 6 -13 5 -11 0 -14 -3 -6 -6z"/>
<path d="M3238 2993 c7 -3 16 -2 19 1 4 3 -2 6 -13 5 -11 0 -14 -3 -6 -6z"/>
<path d="M3316 2961 c-3 -4 -19 -11 -36 -15 -17 -3 -29 -10 -26 -15 8 -13 48
-1 69 20 10 11 13 19 8 19 -5 0 -12 -4 -15 -9z"/>
<path d="M3230 2880 c0 -5 5 -10 10 -10 6 0 10 5 10 10 0 6 -4 10 -10 10 -5 0
-10 -4 -10 -10z"/>
<path d="M1748 2853 c7 -3 16 -2 19 1 4 3 -2 6 -13 5 -11 0 -14 -3 -6 -6z"/>
<path d="M2693 2823 c9 -2 23 -2 30 0 6 3 -1 5 -18 5 -16 0 -22 -2 -12 -5z"/>
<path d="M3178 2793 c7 -3 16 -2 19 1 4 3 -2 6 -13 5 -11 0 -14 -3 -6 -6z"/>
<path d="M3305 2780 c-4 -6 5 -10 19 -10 14 0 26 5 26 10 0 6 -9 10 -19 10
-11 0 -23 -4 -26 -10z"/>
<path d="M3228 2773 c7 -3 16 -2 19 1 4 3 -2 6 -13 5 -11 0 -14 -3 -6 -6z"/>
<path d="M1713 2743 c9 -2 23 -2 30 0 6 3 -1 5 -18 5 -16 0 -22 -2 -12 -5z"/>
<path d="M1768 2713 c7 -3 16 -2 19 1 4 3 -2 6 -13 5 -11 0 -14 -3 -6 -6z"/>
<path d="M3175 2679 c-33 -4 -70 -5 -82 -2 -13 3 -23 1 -23 -5 0 -14 31 -20
60 -11 14 4 44 7 67 8 23 1 45 6 48 11 3 6 3 9 -2 9 -4 -1 -35 -5 -68 -10z"/>
<path d="M3323 2672 c-30 -4 -29 -14 2 -28 18 -9 24 -9 22 0 -1 6 4 10 11 9 6
-2 12 1 12 6 0 12 -20 18 -47 13z"/>
<path d="M2890 2649 c0 -5 5 -7 10 -4 6 3 10 8 10 11 0 2 -4 4 -10 4 -5 0 -10
-5 -10 -11z"/>
<path d="M3264 2605 c10 -8 23 -12 27 -9 5 3 18 0 30 -7 19 -10 21 -9 16 6 -4
9 -7 19 -7 21 0 2 -19 4 -42 4 -40 -1 -41 -2 -24 -15z"/>
<path d="M3283 2567 c-11 -25 -7 -47 10 -47 8 0 8 3 0 11 -13 13 -6 42 7 34 5
-3 11 -1 14 4 3 5 0 11 -8 14 -8 3 -18 -4 -23 -16z"/>
<path d="M2893 2553 c11 -10 56 -12 62 -2 4 5 -11 9 -31 9 -21 0 -34 -3 -31
-7z"/>
<path d="M1745 2520 c3 -5 8 -10 11 -10 2 0 4 5 4 10 0 6 -5 10 -11 10 -5 0
-7 -4 -4 -10z"/>
<path d="M3110 2491 c0 -6 4 -13 10 -16 6 -3 7 1 4 9 -7 18 -14 21 -14 7z"/>
<path d="M3190 2479 c0 -6 7 -9 15 -5 8 3 19 -2 24 -12 9 -15 10 -14 11 6 0
17 -6 22 -25 22 -14 0 -25 -5 -25 -11z"/>
<path d="M3163 2455 c-10 -11 -9 -13 6 -12 11 1 17 7 14 14 -6 16 -5 16 -20
-2z"/>
<path d="M3200 2430 c0 -5 5 -10 11 -10 5 0 7 5 4 10 -3 6 -8 10 -11 10 -2 0
-4 -4 -4 -10z"/>
<path d="M3180 2405 c0 -8 4 -15 10 -15 5 0 7 7 4 15 -4 8 -8 15 -10 15 -2 0
-4 -7 -4 -15z"/>
<path d="M3136 2388 c3 -4 12 -8 20 -8 8 0 14 4 14 8 0 4 -9 8 -19 8 -11 0
-17 -4 -15 -8z"/>
<path d="M3085 2350 c-3 -6 1 -7 9 -4 18 7 21 14 7 14 -6 0 -13 -4 -16 -10z"/>
<path d="M3150 2353 c8 -3 22 -12 30 -19 10 -9 20 -10 30 -4 12 8 11 10 -7 10
-12 0 -25 5 -28 10 -3 6 -14 10 -23 9 -14 0 -14 -2 -2 -6z"/>
<path d="M3136 2329 c3 -5 12 -9 21 -9 19 0 9 13 -12 16 -8 1 -13 -2 -9 -7z"/>
<path d="M3016 2295 c7 -16 47 -19 79 -5 11 5 18 9 15 10 -24 7 -40 7 -40 -1
0 -5 -9 -9 -20 -9 -11 0 -20 5 -20 10 0 6 -4 10 -10 10 -5 0 -7 -7 -4 -15z"/>
<path d="M3144 2303 c12 -12 54 -14 61 -3 4 6 -8 10 -31 10 -21 0 -34 -3 -30
-7z"/>
<path d="M1788 2258 c5 -5 16 -8 23 -6 8 3 3 7 -10 11 -17 4 -21 3 -13 -5z"/>
<path d="M2990 2265 c-8 -2 -32 -6 -53 -10 -22 -3 -35 -10 -31 -16 4 -7 10 -7
17 0 6 6 33 11 60 11 29 0 46 4 42 10 -3 6 -9 9 -13 9 -4 -1 -14 -3 -22 -4z"/>
<path d="M3040 2259 c0 -5 5 -7 10 -4 6 3 10 8 10 11 0 2 -4 4 -10 4 -5 0 -10
-5 -10 -11z"/>
<path d="M1663 2253 c4 -3 2 -12 -5 -20 -6 -7 -8 -16 -5 -19 3 -3 10 4 16 15
7 12 17 18 26 15 8 -4 15 -2 15 3 0 5 -12 10 -27 11 -14 1 -23 -1 -20 -5z"/>
<path d="M1745 2250 c3 -5 8 -10 11 -10 2 0 4 5 4 10 0 6 -5 10 -11 10 -5 0
-7 -4 -4 -10z"/>
<path d="M1587 2234 c4 -12 53 -14 53 -3 0 4 -13 9 -29 11 -20 3 -27 0 -24 -8z"/>
<path d="M2810 2232 c0 -5 7 -9 15 -9 8 0 15 4 15 9 0 4 -7 8 -15 8 -8 0 -15
-4 -15 -8z"/>
<path d="M2935 2230 c-3 -5 -1 -10 4 -10 6 0 11 5 11 10 0 6 -2 10 -4 10 -3 0
-8 -4 -11 -10z"/>
<path d="M1506 2215 c-3 -9 0 -15 9 -15 8 0 15 4 15 9 0 5 8 12 18 14 11 3 8
5 -9 6 -16 1 -29 -5 -33 -14z"/>
<path d="M2835 2200 c-3 -5 -1 -10 4 -10 6 0 11 5 11 10 0 6 -2 10 -4 10 -3 0
-8 -4 -11 -10z"/>
<path d="M3038 2193 c7 -3 16 -2 19 1 4 3 -2 6 -13 5 -11 0 -14 -3 -6 -6z"/>
<path d="M2715 2159 c-14 -5 -16 -8 -4 -8 19 -1 19 -32 0 -55 -8 -9 -10 -16
-5 -17 5 0 32 -2 59 -4 28 -1 68 -6 90 -10 l39 -8 -28 26 c-22 21 -32 24 -47
17 -29 -16 -56 -12 -62 10 -4 16 0 20 20 20 13 0 22 4 19 9 -3 5 -16 7 -28 3
-13 -3 -19 -1 -15 5 9 15 -14 22 -38 12z"/>
<path d="M2860 2150 c8 -5 22 -9 30 -9 10 0 8 3 -5 9 -27 12 -43 12 -25 0z"/>
<path d="M2660 2130 c0 -5 12 -10 28 -9 24 0 25 1 7 9 -27 12 -35 12 -35 0z"/>
<path d="M2880 2090 c-10 -7 -1 -8 30 -4 56 8 64 14 19 14 -19 0 -41 -5 -49
-10z"/>
<path d="M1969 2029 c-10 -6 -4 -9 19 -9 17 0 32 2 32 4 0 9 -39 13 -51 5z"/>
<path d="M1933 2003 c9 -2 23 -2 30 0 6 3 -1 5 -18 5 -16 0 -22 -2 -12 -5z"/>
<path d="M1925 1980 c3 -5 16 -10 28 -10 18 0 19 2 7 10 -20 13 -43 13 -35 0z"/>
<path d="M2003 1983 c-20 -7 -15 -22 6 -20 11 0 17 6 14 14 -3 7 -6 13 -7 12
0 0 -7 -3 -13 -6z"/>
<path d="M2518 1983 c6 -2 18 -2 25 0 6 3 1 5 -13 5 -14 0 -19 -2 -12 -5z"/>
<path d="M2658 1931 c12 -7 62 -4 62 5 0 2 -17 4 -37 4 -24 0 -33 -3 -25 -9z"/>
<path d="M2363 1893 c9 -2 23 -2 30 0 6 3 -1 5 -18 5 -16 0 -22 -2 -12 -5z"/>
<path d="M1371 1501 c-7 -5 -10 -14 -7 -20 4 -6 0 -11 -10 -11 -10 0 -15 -2
-12 -5 3 -4 18 -3 32 1 20 5 24 10 16 19 -5 6 -7 15 -3 18 9 10 1 8 -16 -2z"/>
<path d="M1280 1375 c0 -8 4 -15 9 -15 5 0 8 -13 7 -30 -2 -28 -1 -29 14 -12
25 27 29 46 11 59 -22 17 -41 16 -41 -2z"/>
<path d="M2898 143 c7 -3 16 -2 19 1 4 3 -2 6 -13 5 -11 0 -14 -3 -6 -6z"/>
<path d="M2646 54 c-19 -11 -40 -14 -65 -9 -51 9 -102 8 -113 -3 -19 -19 78
-23 158 -6 90 18 126 33 79 33 -16 0 -43 -7 -59 -15z"/>
<path d="M2380 32 c-80 -3 -101 -9 -80 -22 18 -11 160 -13 160 -2 -1 20 -21
27 -80 24z"/>
</g>
</svg>
