<?xml version="1.0" standalone="no"?>
<!DOCTYPE svg PUBLIC "-//W3C//DTD SVG 20010904//EN"
 "http://www.w3.org/TR/2001/REC-SVG-20010904/DTD/svg10.dtd">
<svg version="1.0" xmlns="http://www.w3.org/2000/svg"
 width="1024.000000pt" height="1024.000000pt" viewBox="0 0 1024.000000 1024.000000"
 preserveAspectRatio="xMidYMid meet">

<g transform="translate(0.000000,1024.000000) scale(0.100000,-0.100000)"
fill="#000000" stroke="none">
<path d="M1380 5120 l0 -5120 3786 0 3786 0 -3 1982 c-2 1091 -5 2006 -7 2034
l-4 51 -42 -8 c-86 -16 -271 -30 -312 -23 -33 5 -47 12 -56 31 -10 20 -27 29
-81 43 -100 25 -118 63 -32 67 32 2 52 8 57 18 5 8 18 15 28 15 10 0 22 5 25
10 3 6 20 10 37 10 53 0 26 8 -47 14 -101 9 -119 12 -159 31 -30 14 -35 22
-31 39 9 29 38 90 48 97 4 3 9 14 11 25 3 10 7 26 11 35 5 13 -2 18 -29 23
-23 4 -36 13 -36 22 0 8 -5 25 -12 37 -7 12 -14 33 -16 47 -7 54 -23 98 -37
104 -9 3 -15 18 -15 37 0 17 -9 46 -19 63 -16 25 -27 63 -36 116 0 3 -6 15
-13 27 -20 36 12 160 56 215 8 9 11 22 7 28 -9 14 -55 -35 -97 -103 -17 -26
-32 -47 -34 -45 -1 2 20 69 47 148 107 310 167 497 174 540 6 42 6 44 -8 24
-30 -41 -122 -256 -162 -381 -9 -29 -28 -69 -42 -90 -43 -63 -77 -289 -43
-287 12 1 15 -15 14 -88 -1 -51 -7 -94 -13 -102 -8 -9 -10 -28 -5 -51 6 -31 4
-37 -15 -42 -23 -6 -22 -28 6 -96 13 -29 14 -42 5 -62 -8 -17 -8 -33 -2 -50 5
-14 10 -43 10 -63 3 -183 8 -264 18 -302 6 -25 11 -77 12 -116 0 -96 19 -153
72 -216 24 -29 50 -61 57 -70 11 -15 25 -73 46 -198 14 -82 5 -148 -39 -284
-25 -76 -48 -155 -52 -175 -6 -32 -23 -100 -58 -226 -6 -22 -15 -46 -19 -53
-13 -19 -26 -184 -31 -387 -6 -204 -7 -217 -25 -239 -8 -9 -10 -16 -6 -16 5 0
1 -8 -8 -17 -17 -20 -17 -19 -17 -64 0 -18 -4 -28 -10 -24 -6 4 -8 23 -6 43 3
20 3 29 0 19 -3 -11 -12 -16 -20 -13 -7 3 -16 1 -19 -4 -4 -6 -2 -10 4 -10 6
0 9 -14 7 -31 -3 -24 1 -32 18 -39 20 -8 20 -9 1 -10 -15 0 -16 -3 -7 -9 9 -5
12 -22 8 -52 -2 -24 -5 -58 -5 -76 -1 -19 -10 -40 -22 -52 -14 -13 -20 -27
-16 -40 6 -23 8 -23 -83 -26 -71 -2 -93 2 -84 16 3 5 -4 9 -14 9 -19 0 -32
-18 -32 -43 0 -7 7 -3 15 7 15 19 30 15 30 -7 1 -7 7 -10 15 -8 8 3 27 4 42 3
15 -1 30 3 33 9 4 5 11 7 16 4 12 -8 12 -62 -1 -70 -6 -4 -8 -10 -5 -15 3 -4
-2 -11 -11 -14 -10 -4 -13 -2 -8 7 6 9 4 9 -7 1 -8 -6 -22 -8 -33 -5 -28 11
-76 1 -76 -15 0 -8 -5 -13 -11 -12 -6 2 -14 -3 -16 -9 -3 -8 4 -13 16 -13 12
0 21 -4 21 -10 0 -5 4 -10 10 -10 5 0 7 14 3 33 -6 30 -5 31 11 17 10 -8 34
-20 53 -26 32 -11 36 -11 40 7 6 20 23 27 23 8 0 -21 -21 -48 -34 -43 -8 3
-16 -4 -19 -16 -4 -17 -12 -21 -35 -19 -16 2 -42 -3 -57 -11 -22 -12 -30 -12
-47 -1 -18 11 -22 11 -30 -3 -11 -20 -28 -21 -28 -2 0 7 14 19 30 26 29 12 41
42 21 54 -10 6 -26 -23 -22 -39 2 -5 -1 -7 -4 -3 -4 4 -16 3 -27 -3 -10 -6
-27 -7 -37 -4 -23 7 -20 41 3 39 8 -1 13 2 10 8 -3 5 -11 7 -17 5 -7 -2 -20 0
-29 5 -19 9 -26 -6 -8 -17 6 -3 10 -10 10 -15 0 -6 -18 0 -40 11 -22 12 -40
25 -40 31 0 5 -4 6 -10 3 -15 -9 -36 8 -36 30 0 11 -5 19 -12 17 -7 -1 -15 5
-18 13 -4 8 -13 15 -21 15 -7 0 -13 6 -12 12 3 27 -1 39 -13 32 -8 -5 -9 -2
-5 9 3 10 2 17 -2 17 -5 0 -17 3 -27 7 -12 4 -15 3 -10 -5 11 -17 0 -15 -20 5
-21 21 -183 28 -191 8 -2 -7 -19 -11 -41 -9 -20 2 -49 4 -64 6 -16 1 -28 8
-28 15 0 8 -12 19 -27 26 -38 16 -53 32 -53 56 0 11 -4 23 -10 26 -19 11 -10
23 13 17 20 -5 21 -4 8 12 -8 9 -11 19 -8 23 8 8 -21 63 -33 63 -6 0 -10 7
-10 16 0 8 -5 12 -10 9 -16 -10 -40 56 -29 78 6 9 14 15 18 12 5 -2 11 5 14
16 4 15 2 19 -10 15 -12 -5 -14 1 -10 29 3 20 0 36 -7 39 -7 3 -5 10 7 19 12
10 14 17 7 22 -5 3 -8 10 -5 14 2 5 -4 16 -15 26 -11 10 -20 24 -20 32 0 8 -5
11 -11 7 -7 -4 -9 2 -7 17 2 20 -1 23 -20 21 -19 -3 -23 0 -20 15 2 10 10 17
16 15 7 -1 12 10 12 28 0 16 5 30 10 30 6 0 10 4 10 8 0 5 -14 7 -30 4 -25 -4
-29 -1 -24 12 7 19 -14 49 -31 42 -6 -2 -17 5 -23 15 -8 12 -8 19 -2 19 5 0
10 7 10 15 0 8 -7 15 -15 15 -8 0 -15 9 -15 20 0 18 -10 25 -32 21 -5 0 -8 3
-8 9 0 5 4 10 8 10 4 0 8 9 8 20 0 15 -5 18 -23 14 -19 -5 -23 0 -33 36 -8 31
-8 45 0 56 10 11 7 16 -14 25 -14 7 -23 16 -20 20 3 5 1 9 -5 9 -6 0 -8 12 -4
30 3 17 2 30 -3 29 -23 -4 -33 3 -45 33 -10 24 -10 33 -1 36 18 6 15 18 -15
50 -52 56 -56 63 -44 75 13 13 15 28 4 26 -23 -4 -32 4 -38 33 -10 48 -40 135
-51 150 -16 21 -35 94 -28 111 3 10 -3 20 -16 27 -16 9 -20 18 -16 35 4 14 0
29 -9 39 -20 20 -19 36 2 36 15 0 14 2 -3 15 -14 9 -20 23 -19 40 2 14 -1 25
-7 25 -6 0 -8 -7 -4 -15 3 -8 1 -15 -5 -15 -5 0 -12 8 -15 18 -3 9 -14 33 -25
53 -10 20 -19 45 -19 56 0 10 -5 24 -11 30 -8 8 -8 13 0 17 19 12 12 54 -11
73 -13 10 -24 29 -26 43 -8 71 -11 85 -21 88 -6 2 -11 10 -11 18 0 8 -4 14
-10 14 -5 0 -10 5 -10 11 0 5 6 7 13 4 6 -4 2 2 -10 13 -13 11 -23 28 -23 36
0 18 -43 39 -48 24 -2 -5 -10 -4 -18 3 -11 9 -15 7 -20 -6 -4 -9 -2 -20 3 -24
6 -3 9 -15 7 -25 -11 -75 -4 -114 18 -100 8 5 9 1 5 -11 -4 -9 -2 -24 4 -31 6
-7 8 -18 4 -25 -6 -8 -10 -7 -16 2 -8 12 -11 11 -19 -1 -7 -11 -5 -16 6 -18
11 -3 13 -12 8 -38 -4 -22 -2 -34 5 -34 6 0 11 -19 11 -44 0 -25 5 -48 10 -51
6 -3 10 -17 10 -30 0 -13 5 -27 10 -30 6 -4 8 -10 5 -15 -3 -5 0 -20 7 -32 15
-29 20 -46 22 -80 0 -14 4 -24 9 -21 4 2 7 -7 7 -21 0 -14 5 -28 10 -31 6 -3
10 -17 10 -31 0 -13 -4 -24 -10 -24 -5 0 -10 -6 -10 -14 0 -9 7 -13 20 -11 21
4 27 -9 10 -20 -17 -10 -11 -25 9 -25 11 0 23 -5 27 -12 5 -8 2 -9 -9 -5 -19
7 -22 -5 -7 -33 6 -11 16 -17 25 -14 11 4 13 2 9 -9 -3 -8 -1 -18 5 -22 16 -9
13 -35 -3 -35 -8 0 -17 -4 -20 -9 -3 -5 2 -8 12 -7 13 1 18 -8 20 -38 2 -21
10 -45 18 -54 8 -8 14 -22 12 -31 -2 -9 4 -25 14 -35 22 -24 23 -40 3 -60 -9
-9 -11 -17 -5 -21 5 -3 10 -1 10 5 0 6 5 8 10 5 6 -3 10 2 11 12 0 10 5 5 10
-12 5 -16 5 -31 0 -33 -10 -3 -2 -50 10 -58 17 -10 9 -22 -20 -27 -37 -8 -71
2 -71 19 0 8 -9 14 -20 14 -13 0 -20 -7 -20 -20 0 -26 -27 -16 -36 13 -3 12
-12 29 -19 37 -14 16 -16 50 -4 50 4 0 7 9 6 19 0 11 -5 17 -9 15 -4 -3 -8 2
-8 10 0 9 -3 15 -7 15 -22 -4 -35 2 -30 14 3 7 -1 21 -9 32 -8 10 -14 33 -14
51 0 18 -7 39 -15 48 -9 8 -15 33 -15 58 0 62 -10 90 -27 83 -11 -3 -13 -1
-10 10 8 18 -13 32 -23 15 -12 -19 -21 30 -9 52 7 14 6 18 -6 18 -9 0 -26 11
-39 25 -17 18 -29 23 -42 18 -15 -6 -14 -3 5 18 18 19 21 31 17 59 -4 19 -6
45 -6 57 0 12 -6 26 -14 30 -17 11 -38 51 -32 62 3 5 -1 14 -10 21 -10 9 -11
15 -4 20 8 5 5 18 -9 41 -14 24 -17 39 -11 49 10 16 14 47 4 38 -8 -9 -54 37
-54 54 0 9 7 21 15 28 12 10 13 15 4 21 -7 4 -13 22 -15 41 -1 18 -8 55 -14
81 -9 37 -9 51 0 62 9 11 9 18 -4 30 -19 20 -19 25 -2 48 11 14 12 24 2 49 -8
24 -8 32 1 35 10 4 9 8 -2 20 -8 8 -13 18 -10 23 3 5 0 12 -5 15 -8 5 -6 13 6
26 14 15 15 24 6 42 -15 31 -21 87 -9 94 5 3 4 9 -3 13 -7 4 -12 19 -12 34 0
14 -5 26 -11 26 -5 0 -7 14 -4 35 3 19 2 35 -4 35 -16 0 -10 29 9 39 9 6 14
11 10 12 -5 1 -12 3 -18 4 -5 1 -16 3 -22 4 -9 1 -8 4 2 11 8 5 11 10 6 10 -5
0 1 9 14 20 19 16 21 22 10 35 -7 9 -14 46 -15 83 -2 38 -9 80 -19 97 -10 20
-16 24 -16 13 0 -21 -11 -23 -28 -6 -8 8 -15 8 -26 -2 -13 -10 -17 -9 -22 4
-3 9 -4 25 -1 35 2 10 0 25 -5 32 -8 11 -9 10 -4 -3 3 -10 1 -18 -4 -18 -4 0
-11 14 -15 31 -5 23 -2 34 12 45 10 9 13 13 7 10 -14 -7 -27 21 -14 29 6 3 5
16 0 31 -15 39 -24 177 -11 169 6 -3 11 1 11 9 0 9 4 16 9 16 15 0 22 30 11
48 -8 14 -10 14 -11 2 0 -8 -4 -4 -8 10 -4 14 -4 36 1 50 7 18 5 27 -6 36 -22
16 -20 29 8 42 23 10 24 16 22 71 -2 33 0 58 5 56 4 -3 10 -1 14 5 3 5 -1 10
-10 10 -10 0 -13 5 -9 12 5 8 2 9 -9 5 -10 -3 -17 -2 -17 3 0 5 9 12 20 15 18
6 20 13 17 66 -2 35 1 63 7 68 11 9 166 7 281 -5 l60 -6 34 -56 c72 -120 75
-129 56 -158 -9 -15 -25 -28 -35 -31 -10 -3 -24 -16 -31 -30 -12 -22 -10 -30
9 -67 39 -73 50 -146 45 -286 -5 -129 8 -184 21 -92 11 80 29 231 42 352 4 36
11 74 17 85 15 30 59 75 74 75 23 0 63 31 63 50 0 10 7 24 16 31 16 13 39 58
36 71 -1 5 7 13 17 20 10 6 17 18 14 25 -4 9 3 16 16 20 11 3 21 12 21 19 0 8
10 19 23 25 12 6 42 35 65 66 29 36 60 61 90 75 80 35 89 41 154 103 35 33 74
69 87 80 l24 20 -7 -57 c-5 -42 -4 -61 6 -71 11 -12 15 -10 25 15 7 17 13 38
13 47 0 26 88 201 100 201 7 0 9 -13 4 -37 -6 -36 -5 -37 10 -18 8 11 16 24
16 29 0 5 6 17 14 25 8 9 29 43 47 76 18 33 44 76 59 95 67 90 150 305 185
482 33 165 29 243 -15 334 -28 57 -101 144 -121 144 -5 0 -9 5 -9 11 0 19 84
-35 132 -85 26 -26 54 -67 63 -91 13 -33 25 -45 58 -60 23 -10 62 -30 87 -44
25 -15 81 -37 125 -50 292 -86 493 -170 715 -298 127 -74 170 -98 240 -133 12
-6 24 -8 29 -6 4 3 19 -6 31 -19 13 -14 27 -25 32 -25 5 0 -3 12 -19 26 -22
20 -27 33 -24 62 1 20 8 43 13 50 19 22 -2 27 -34 9 -25 -14 -33 -15 -39 -5
-4 7 -5 15 -1 18 4 3 8 20 9 38 1 42 24 67 93 103 30 15 75 42 100 58 25 17
57 31 72 31 30 0 108 37 108 51 0 16 -75 10 -140 -11 -34 -11 -70 -20 -80 -20
-9 0 -22 -10 -29 -23 -15 -27 -99 -76 -141 -82 -27 -3 -30 -1 -30 25 0 21 10
36 37 58 21 16 75 66 121 111 45 45 91 81 102 81 10 0 22 5 26 11 4 7 37 10
93 7 l86 -3 3 1478 2 1477 -3785 0 -3785 0 0 -5120z m5755 3287 c9 -10 13 -21
11 -26 -3 -4 5 -7 17 -7 16 1 25 -8 35 -38 11 -33 10 -47 -3 -93 -9 -29 -13
-58 -10 -63 3 -5 1 -11 -5 -15 -5 -3 -10 -20 -10 -37 0 -17 -8 -45 -19 -62
-10 -17 -22 -44 -25 -61 -7 -29 -7 -29 13 -11 12 11 21 26 21 35 1 17 23 51
33 51 8 0 -16 -66 -44 -122 -5 -10 -9 -28 -9 -42 0 -59 -79 -106 -132 -79 -26
13 -28 17 -28 81 1 37 -2 83 -5 102 -2 19 2 58 9 85 8 28 14 61 13 74 -2 28
11 35 35 18 19 -15 21 -24 19 -89 -1 -42 -4 -49 -31 -63 -21 -11 -30 -23 -30
-41 0 -24 1 -24 28 -10 15 8 37 26 49 40 13 14 27 26 31 26 20 0 64 140 51
161 -4 8 -20 10 -42 6 -29 -4 -36 -2 -40 15 -3 11 -15 22 -27 25 -13 3 -19 11
-16 19 3 8 1 14 -3 14 -5 0 -12 -6 -14 -12 -3 -8 -6 -6 -6 5 -1 9 6 17 14 17
15 0 19 10 15 43 -2 19 21 59 49 89 15 15 17 15 29 0 7 -10 19 -25 27 -35z
m-1118 -64 c-9 -2 -14 -9 -11 -15 4 -7 2 -8 -5 -4 -15 10 -4 26 17 25 15 -1
15 -2 -1 -6z m53 -28 c0 -18 -4 -23 -15 -19 -16 6 -20 26 -8 37 13 14 23 6 23
-18z m580 -67 c0 27 4 27 35 0 14 -12 25 -32 25 -46 0 -15 7 -26 19 -29 13 -3
22 -17 26 -43 5 -30 12 -40 28 -42 16 -2 22 -10 22 -30 1 -15 -3 -24 -7 -22
-10 6 -10 1 -2 -20 3 -9 13 -16 21 -16 11 0 13 -4 6 -12 -10 -14 -10 -20 2
-61 5 -19 3 -37 -6 -54 -11 -21 -11 -27 -1 -30 6 -3 12 -11 12 -19 0 -8 5 -14
10 -14 6 0 10 -11 10 -25 0 -14 -4 -25 -10 -25 -5 0 -10 -6 -10 -14 0 -7 -11
-16 -25 -18 -14 -3 -25 -1 -25 3 0 5 10 9 21 9 18 0 19 2 9 15 -15 18 -35 20
-24 3 5 -7 3 -8 -5 -4 -7 5 -10 13 -8 20 3 6 -1 19 -7 28 -18 24 -53 12 -65
-22 -9 -26 -8 -46 1 -115 2 -14 -4 -21 -19 -23 -24 -4 -33 21 -13 33 8 5 7 11
-1 21 -6 8 -9 23 -6 34 3 11 1 23 -5 26 -5 3 -7 12 -4 19 2 7 -4 21 -14 30
-11 10 -18 21 -15 25 2 4 -7 12 -20 18 -24 11 -29 25 -26 63 2 15 -52 47 -62
38 -9 -8 -35 23 -39 46 -5 25 23 80 35 68 4 -3 7 3 7 15 0 12 -4 22 -10 22 -5
0 -10 5 -10 11 0 5 5 7 10 4 6 -3 18 8 28 26 9 18 26 42 37 53 11 12 27 34 35
49 l14 28 13 -23 12 -23 1 23z m-970 -62 c0 -3 -4 -8 -10 -11 -5 -3 -10 -1
-10 4 0 6 5 11 10 11 6 0 10 -2 10 -4z m410 -57 l-22 -30 22 -24 c13 -13 25
-23 29 -22 3 0 17 -5 30 -12 24 -13 24 -14 6 -27 -18 -13 -18 -16 -2 -49 18
-38 28 -43 47 -20 7 8 20 15 30 15 20 0 60 -32 60 -48 0 -17 18 -24 37 -13 22
12 45 0 68 -35 11 -17 12 -23 4 -18 -9 5 -8 -1 3 -18 17 -26 17 -27 -4 -43
-25 -17 -54 -20 -62 -6 -3 5 -14 7 -25 4 -25 -6 -53 46 -38 72 9 16 6 17 -24
11 -19 -4 -51 -10 -71 -13 -21 -3 -38 -9 -38 -14 0 -5 6 -6 14 -3 23 9 27 -12
5 -34 -21 -23 -49 -29 -49 -12 0 6 -7 10 -15 10 -8 0 -15 4 -15 9 0 5 -10 11
-22 13 -13 2 -22 9 -21 15 2 6 -4 28 -12 47 -15 36 -11 116 5 116 4 0 10 18
14 41 9 57 42 118 64 119 2 0 -6 -14 -18 -31z m163 -10 c-4 -15 -9 -17 -17 -9
-8 8 -7 13 4 20 8 5 16 10 17 10 0 0 -1 -9 -4 -21z m601 -214 c-4 -8 -8 -15
-10 -15 -2 0 -4 7 -4 15 0 8 4 15 10 15 5 0 7 -7 4 -15z m-18 -52 c-10 -10
-19 5 -10 18 6 11 8 11 12 0 2 -7 1 -15 -2 -18z m1720 -65 c-22 -13 -11 -27
17 -21 18 4 19 3 7 -6 -25 -17 -50 -13 -59 12 -12 31 5 50 32 36 18 -10 19
-12 3 -21z m-2361 12 c3 -5 1 -10 -4 -10 -6 0 -11 5 -11 10 0 6 2 10 4 10 3 0
8 -4 11 -10z m-505 -89 c0 -21 -26 -36 -35 -21 -4 6 0 10 7 11 10 0 10 2 1 6
-20 8 -15 23 7 23 13 0 20 -7 20 -19z m760 -15 c0 -2 -7 -6 -15 -10 -8 -3 -15
-1 -15 4 0 6 7 10 15 10 8 0 15 -2 15 -4z m-170 -21 c8 -2 25 -4 38 -4 39 -2
24 -16 -30 -29 -29 -7 -62 -15 -73 -16 -11 -2 -30 -6 -42 -10 -13 -4 -23 -4
-23 1 0 11 20 40 20 29 0 -5 12 3 27 18 19 19 33 25 48 21 11 -3 27 -8 35 -10z
m130 5 c0 -5 -6 -10 -14 -10 -8 0 -22 -3 -30 -6 -12 -5 -15 -2 -10 10 7 17 54
23 54 6z m428 -16 c25 -7 29 -36 7 -54 -8 -6 -14 -15 -13 -18 1 -4 -2 -14 -5
-22 -3 -8 -7 -26 -9 -40 -2 -15 -9 -24 -18 -23 -8 1 -22 -13 -31 -32 -9 -19
-13 -35 -8 -35 5 0 9 -4 9 -10 0 -5 -9 -10 -21 -10 -18 0 -20 -4 -14 -29 5
-24 2 -30 -13 -35 -14 -5 -31 4 -58 29 l-37 35 -25 -22 c-37 -35 -46 -66 -27
-95 15 -23 15 -26 -4 -42 -12 -10 -21 -27 -21 -38 0 -11 -9 -28 -19 -37 -11
-10 -17 -25 -14 -33 5 -13 2 -13 -15 -4 -14 8 -29 8 -47 1 -15 -6 -31 -8 -36
-4 -5 3 -9 1 -9 -5 0 -15 23 -26 28 -13 8 24 23 11 20 -15 -2 -21 -8 -28 -23
-26 -11 1 -46 -4 -77 -12 -62 -14 -68 -13 -68 22 0 12 -5 23 -10 23 -6 0 -8
11 -4 26 4 15 8 34 8 43 1 9 13 34 26 55 24 40 34 80 17 69 -14 -8 -127 -11
-127 -3 0 4 11 12 25 18 29 13 32 27 9 40 -14 8 -14 12 -3 30 8 12 21 22 30
22 9 0 24 9 34 20 11 12 37 22 67 26 40 6 58 15 94 49 24 24 44 47 44 53 0 7
7 9 17 5 10 -4 14 -2 10 4 -6 9 9 18 50 28 20 5 23 -8 27 -90 2 -42 6 -79 10
-82 3 -4 6 1 6 10 0 10 9 34 20 54 11 21 20 43 20 50 0 7 4 13 8 13 12 0 9 43
-3 52 -5 4 -6 11 -1 15 4 4 18 -4 30 -19 27 -34 55 -36 85 -4 20 21 20 25 7
39 -25 24 0 34 52 21z m-378 -13 c0 -17 -45 -80 -57 -81 -6 0 -15 -9 -18 -21
-5 -16 -13 -20 -31 -16 -15 3 -24 0 -24 -9 0 -19 -40 -44 -72 -44 -15 0 -30
-4 -33 -10 -9 -15 -136 -48 -180 -47 -37 2 -40 4 -43 35 -2 24 1 32 12 32 9 0
25 9 37 21 11 11 27 18 34 15 8 -3 40 10 71 29 56 34 71 39 106 36 9 -1 19 3
23 9 3 5 14 10 24 10 10 0 32 7 47 15 16 8 39 15 51 15 12 0 25 5 28 10 8 13
25 13 25 1z m-2082 -90 c23 -12 47 -21 55 -21 11 0 97 -74 197 -173 31 -30
160 -240 160 -261 0 -4 -10 -4 -22 0 -20 6 -21 5 -10 -9 8 -9 21 -19 31 -22
31 -9 124 -234 151 -365 52 -253 31 -423 -74 -591 -19 -30 -49 -79 -67 -109
-18 -30 -46 -72 -62 -93 -26 -34 -28 -40 -17 -67 11 -26 71 -90 85 -90 3 0 11
-4 18 -10 54 -44 68 -61 82 -100 23 -65 57 -228 59 -280 1 -39 4 -45 24 -48
29 -4 28 -15 -3 -32 -22 -12 -27 -11 -45 5 -11 10 -23 15 -27 12 -3 -4 -1 -7
7 -7 10 0 10 -3 -1 -16 -7 -8 -21 -13 -31 -11 -10 3 -18 0 -18 -8 0 -17 -35
-26 -49 -12 -8 8 -11 7 -11 -2 0 -17 -39 -71 -51 -71 -5 0 -9 6 -9 14 0 9 -8
12 -25 8 -19 -3 -25 0 -26 14 0 15 -2 14 -10 -5 -8 -20 -14 -22 -39 -17 -18 3
-30 1 -30 -5 0 -6 -15 -9 -33 -8 -41 4 -62 -8 -47 -26 8 -9 6 -14 -6 -19 -9
-3 -20 -4 -25 0 -5 3 -9 0 -9 -6 0 -8 -24 -10 -79 -6 -46 2 -81 1 -83 -5 -2
-5 -23 -13 -48 -17 -31 -5 -46 -13 -48 -25 -2 -10 3 -17 12 -17 9 0 16 -8 16
-19 0 -23 -16 -36 -25 -21 -3 5 -13 10 -22 10 -14 0 -14 -3 1 -24 9 -14 12
-27 7 -30 -5 -4 -7 -15 -4 -26 3 -11 0 -20 -6 -20 -6 0 -11 11 -11 25 0 14 -5
25 -11 25 -6 0 -8 9 -4 20 4 14 2 20 -9 20 -20 0 -40 36 -26 45 7 4 -8 25 -34
51 -54 52 -57 60 -16 39 16 -8 42 -15 57 -15 15 0 35 -5 43 -10 11 -7 4 -9
-22 -7 -21 2 -38 2 -38 1 0 -7 48 -54 55 -54 4 0 5 9 2 20 -4 17 -2 20 14 15
10 -4 27 -2 36 4 16 9 15 11 -7 12 l-25 1 24 7 c22 6 23 8 8 23 -14 14 -15 18
-2 28 17 14 20 30 5 30 -5 0 -10 -7 -10 -16 0 -11 -8 -14 -27 -12 -16 2 -27 8
-25 16 3 15 -10 16 -25 1 -12 -12 -53 -3 -53 12 0 19 -31 8 -42 -16 -14 -31
-58 -35 -58 -5 0 10 7 23 16 28 10 6 14 14 9 22 -6 10 -12 7 -24 -9 l-17 -22
-42 31 c-24 17 -45 37 -49 45 -3 8 -11 15 -17 15 -22 0 -73 84 -85 138 -11 54
-8 77 10 66 7 -4 8 7 4 29 -6 28 -3 39 15 57 30 30 73 41 97 25 10 -7 35 -13
54 -12 27 1 35 5 36 20 1 11 11 26 22 34 12 8 21 21 21 30 0 9 6 13 15 9 8 -3
15 -1 15 4 0 5 20 9 45 8 40 0 94 16 135 42 8 6 26 15 40 20 101 42 129 56
127 65 -2 6 -14 12 -28 14 -13 1 -50 23 -82 47 -33 24 -63 44 -69 44 -5 0 -6
5 -3 10 3 6 0 10 -8 10 -17 0 -104 47 -113 61 -3 5 -10 7 -15 4 -5 -4 -9 -1
-9 5 0 6 -4 9 -9 6 -5 -3 -11 1 -14 8 -4 9 -15 13 -30 11 -16 -3 -30 3 -46 21
-22 25 -22 26 -2 31 23 6 27 18 11 28 -20 12 -50 95 -44 119 3 15 -3 41 -20
74 -27 53 -48 123 -47 157 1 36 -19 93 -34 99 -17 6 -21 61 -5 71 6 4 24 8 40
10 16 2 38 13 49 24 12 12 26 21 31 21 6 0 28 11 48 25 33 22 38 30 34 55 -3
22 0 30 11 30 28 0 68 -20 62 -30 -4 -6 9 -10 32 -10 41 0 40 2 78 -96 16 -40
15 -44 -9 -116 -31 -89 -32 -104 -7 -118 30 -16 39 -12 56 21 9 17 19 29 22
26 2 -3 0 -14 -6 -26 -8 -14 -8 -22 0 -27 13 -8 107 -7 120 2 9 5 -29 74 -41
74 -16 0 -33 63 -33 123 0 34 -3 67 -7 72 -4 6 -24 41 -45 79 -41 76 -45 81
-91 114 -28 19 -33 20 -38 6 -3 -8 -1 -24 4 -34 6 -10 10 -28 10 -40 0 -20 -4
-22 -37 -15 -21 4 -42 10 -48 15 -13 10 -107 22 -172 22 -41 0 -52 3 -56 18
-8 32 45 45 175 45 l118 0 0 27 c0 17 -8 31 -19 38 -24 12 -145 13 -169 2 -9
-5 -36 -7 -59 -4 l-42 4 16 32 c22 39 25 93 7 100 -10 4 -11 12 -4 31 13 35
13 58 -1 49 -6 -3 -3 5 6 20 12 19 16 38 12 66 -4 35 -2 40 14 40 21 0 24 12
10 38 -11 22 5 65 21 59 21 -7 128 78 128 102 0 6 9 11 20 11 11 0 20 4 20 9
0 18 70 36 133 35 43 -1 78 -9 105 -23z m4327 -51 c7 -30 7 -30 75 -30 64 0
70 -2 94 -31 32 -37 39 -65 28 -104 -7 -24 -14 -29 -33 -27 -13 1 -44 -4 -69
-12 -25 -8 -61 -17 -80 -21 -19 -3 -63 -16 -96 -27 -69 -23 -90 -20 -104 17
-5 14 -14 25 -20 25 -16 0 -40 -26 -40 -44 0 -8 -4 -18 -10 -21 -14 -9 -12 17
5 57 19 46 105 124 175 157 53 26 55 28 53 64 -3 44 12 41 22 -3z m-1724 -56
c4 -5 10 -26 13 -46 2 -20 9 -45 15 -56 6 -11 10 -31 10 -44 -1 -13 4 -43 11
-68 7 -25 15 -67 17 -93 3 -30 9 -47 16 -44 7 2 12 9 12 15 0 5 4 14 9 19 12
11 0 -146 -19 -235 -30 -144 -121 -354 -187 -434 -21 -25 -47 -67 -58 -92 -12
-25 -25 -48 -30 -51 -6 -4 -21 -28 -35 -55 -16 -32 -41 -60 -72 -81 -27 -18
-87 -63 -136 -101 -89 -70 -122 -88 -160 -88 -12 0 -38 -16 -58 -36 -33 -32
-36 -39 -32 -78 6 -52 -5 -62 -49 -43 -88 38 -173 66 -253 81 -25 5 -94 30
-133 48 -30 14 -41 25 -38 37 2 9 10 41 16 71 7 30 16 68 21 84 12 38 3 46
-12 12 -7 -14 -18 -26 -24 -26 -18 0 -23 42 -31 230 -7 188 -2 208 52 196 57
-13 144 -110 158 -177 3 -14 17 -38 31 -53 17 -19 25 -37 23 -55 -2 -20 1 -26
15 -24 14 1 17 -4 14 -18 -6 -24 8 -34 24 -16 7 7 23 11 36 9 31 -6 93 25 94
46 1 9 0 29 -1 44 -2 35 19 76 30 58 5 -8 20 -11 39 -8 17 2 31 0 31 -5 0 -6
5 -6 13 -1 6 5 19 9 27 8 8 -1 21 -2 28 -3 6 0 12 -7 12 -15 0 -7 9 -16 20
-19 22 -6 45 16 35 33 -5 7 -12 5 -21 -7 -7 -10 -14 -13 -15 -8 0 6 -2 20 -3
33 -2 13 -10 30 -19 39 -14 14 -14 18 0 39 15 24 10 48 -10 41 -14 -4 -39 41
-30 56 3 5 1 7 -4 4 -7 -4 -10 12 -9 46 1 45 -2 53 -21 62 -25 10 -30 30 -12
41 6 3 9 14 6 24 -2 10 -1 23 3 30 11 18 29 3 25 -20 -3 -17 -1 -19 15 -10 11
6 17 17 14 25 -5 11 1 15 19 15 16 0 26 7 30 20 3 13 32 32 81 54 73 34 80 41
77 79 -1 9 3 17 9 17 7 0 10 -7 6 -15 -6 -17 2 -19 23 -6 8 5 11 16 8 24 -4
10 4 19 23 27 17 7 27 17 24 25 -3 7 11 26 31 42 31 24 61 64 67 90 1 5 10 17
20 28 10 11 21 31 24 45 11 48 38 115 56 139 10 13 23 42 29 65 6 22 18 49 27
60 17 18 17 18 21 0 2 -11 7 -24 12 -30z m1552 25 c-4 -13 -9 -17 -15 -11 -11
11 -3 32 12 32 4 0 6 -9 3 -21z m-146 -21 c13 -15 25 -17 60 -12 24 3 43 3 43
-1 0 -14 -24 -51 -55 -84 l-32 -33 -26 26 c-15 15 -30 26 -34 25 -4 -1 -10 5
-14 12 -3 8 -13 28 -22 45 -9 17 -14 34 -10 38 13 13 74 2 90 -16z m-2698 -78
c0 -10 -8 -5 -24 13 -14 15 -25 36 -25 45 0 12 7 9 25 -13 13 -16 24 -37 24
-45z m-1629 -580 c0 -5 -5 -10 -11 -10 -5 0 -7 5 -4 10 3 6 8 10 11 10 2 0 4
-4 4 -10z m1485 -302 c4 -18 12 -39 18 -47 14 -17 18 -34 21 -96 1 -27 6 -65
10 -82 5 -22 4 -33 -4 -33 -42 0 -170 87 -170 116 0 8 12 38 26 67 56 110 87
133 99 75z m-200 -348 c3 -10 1 -36 -4 -59 -5 -24 -5 -43 0 -47 13 -7 11 -54
-2 -54 -5 0 -7 5 -4 10 3 6 2 10 -3 10 -15 0 -39 141 -27 160 8 13 33 1 40
-20z m-1366 -21 c8 -13 8 -19 0 -19 -14 0 -43 29 -45 46 -3 17 29 -2 45 -27z
m2095 -280 c8 7 34 4 82 -10 38 -12 71 -23 73 -25 2 -2 -9 -23 -26 -47 -16
-23 -33 -50 -36 -59 -4 -10 -12 -18 -20 -18 -12 0 -60 55 -63 73 -1 4 -3 10
-4 15 -4 9 -7 24 -9 37 -1 6 -6 3 -11 -5 -7 -11 -10 -6 -9 20 0 19 3 29 6 22
3 -9 9 -10 17 -3z m-654 -66 c0 -7 -4 -13 -10 -13 -5 0 -10 12 -10 28 0 21 2
24 10 12 5 -8 10 -21 10 -27z m0 -27 c0 -3 -4 -8 -10 -11 -5 -3 -10 -1 -10 4
0 6 5 11 10 11 6 0 10 -2 10 -4z m8 -44 c2 -7 -3 -12 -12 -12 -9 0 -16 7 -16
16 0 17 22 14 28 -4z m657 -54 c-6 -16 -34 -32 -41 -25 -2 2 2 18 8 35 10 26
15 30 26 19 7 -8 10 -21 7 -29z m-587 -43 c-1 -20 -4 -31 -8 -25 -7 11 -2 60
6 60 2 0 3 -16 2 -35z m-1839 -231 c-14 -18 -24 -11 -15 11 3 9 11 13 16 10 8
-5 7 -11 -1 -21z m1336 -34 c3 -5 1 -10 -4 -10 -6 0 -11 5 -11 10 0 6 2 10 4
10 3 0 8 -4 11 -10z m10 -140 c8 -13 -26 -71 -37 -64 -4 3 -8 21 -8 40 0 27 4
34 19 34 11 0 23 -4 26 -10z m-151 -57 c10 -32 20 -66 22 -75 4 -13 0 -18 -14
-18 -13 0 -22 9 -26 25 -7 26 -26 35 -26 11 0 -17 -27 -29 -35 -16 -3 5 0 29
6 52 7 24 13 47 13 51 1 8 26 27 37 27 3 0 13 -26 23 -57z m66 27 c0 -5 -5
-10 -11 -10 -5 0 -7 5 -4 10 3 6 8 10 11 10 2 0 4 -4 4 -10z m-221 -36 c-8
-10 -8 -14 0 -14 15 0 14 -37 -1 -43 -19 -7 -78 4 -78 14 0 5 -12 9 -26 9 -19
0 -25 4 -22 18 2 12 19 20 63 28 67 12 82 9 64 -12z m331 7 c0 -10 -9 -29 -19
-42 -18 -22 -20 -22 -26 -6 -8 18 18 67 35 67 6 0 10 -9 10 -19z m-105 -11 c3
-5 -1 -10 -10 -10 -9 0 -13 5 -10 10 3 6 8 10 10 10 2 0 7 -4 10 -10z m-998
-6 c-3 -3 -12 -4 -19 -1 -8 3 -5 6 6 6 11 1 17 -2 13 -5z m401 -46 c-2 -7 -6
-15 -10 -18 -4 -3 -4 -19 1 -35 7 -29 8 -29 15 -7 12 36 36 27 36 -13 0 -19
-4 -35 -10 -35 -5 0 -10 -9 -10 -20 0 -13 -7 -20 -20 -20 -16 0 -19 5 -14 28
4 22 2 29 -10 29 -10 0 -16 -9 -16 -24 0 -14 -6 -23 -15 -23 -20 0 -19 36 1
44 11 4 14 17 12 43 -2 25 2 42 12 50 20 16 31 16 28 1z m126 -15 c0 -13 3
-23 8 -23 4 0 7 -3 7 -7 -1 -5 0 -24 1 -43 l2 -35 10 28 c14 38 44 33 40 -7
-2 -16 0 -26 6 -22 13 8 22 56 10 56 -5 0 -6 4 -3 10 3 5 1 19 -6 31 -11 22
-11 22 42 14 30 -4 70 -9 89 -10 19 -2 43 -6 53 -10 10 -4 20 -5 23 -2 3 3 20
1 37 -5 57 -17 182 -38 200 -32 9 3 17 1 17 -5 0 -5 8 -12 18 -14 9 -3 -12 -2
-48 1 -36 4 -94 6 -129 5 -39 -1 -59 2 -50 7 15 10 10 13 -43 24 -21 5 -28 2
-33 -14 -3 -11 -11 -20 -16 -20 -5 0 -9 -16 -9 -36 0 -21 4 -33 10 -29 6 3 10
15 10 26 0 10 7 19 15 19 11 0 14 -7 9 -25 -8 -33 4 -32 16 1 13 33 36 26 32
-10 -2 -16 3 -29 13 -32 17 -7 20 -39 5 -49 -6 -3 -14 4 -19 17 -8 18 -10 19
-10 5 -1 -28 -46 -19 -46 10 0 11 -3 25 -7 29 -5 4 -8 -5 -8 -19 0 -34 -29
-37 -31 -4 -1 16 -2 18 -6 5 -5 -20 -43 -25 -43 -5 -1 6 -10 1 -21 -13 -13
-15 -17 -26 -9 -28 6 -2 29 -33 51 -68 l41 -64 19 24 c10 13 19 29 19 35 0 6
5 11 10 11 6 0 10 6 10 13 0 6 8 21 16 32 15 19 16 18 9 -12 -3 -18 -20 -60
-36 -93 -16 -33 -29 -66 -29 -73 0 -25 -51 -69 -74 -63 -11 2 -78 12 -148 22
-71 9 -128 21 -128 27 0 11 46 100 72 139 17 25 17 28 -2 72 -10 25 -16 46
-12 46 4 0 8 14 9 30 2 21 -2 30 -13 30 -11 0 -13 -6 -9 -20 5 -14 2 -20 -9
-20 -18 0 -22 30 -6 46 5 5 10 26 12 47 1 20 6 37 11 37 4 0 5 5 2 10 -3 6 2
10 12 11 16 0 16 1 -2 9 -17 8 -15 9 10 7 24 -2 30 -6 29 -24z m586 -8 c0 -31
-3 -35 -25 -35 -29 0 -30 2 -10 40 21 40 35 38 35 -5z m-1087 18 c-7 -2 -21
-2 -30 0 -10 3 -4 5 12 5 17 0 24 -2 18 -5z m557 -8 c0 -2 -9 -3 -19 -2 -11 0
-18 5 -15 9 4 6 34 0 34 -7z m411 -18 c-13 -13 -26 -3 -16 12 3 6 11 8 17 5 6
-4 6 -10 -1 -17z m-1186 -45 c-6 -15 -8 -14 -16 6 -11 29 0 52 13 28 5 -10 7
-25 3 -34z m235 21 c0 -29 -2 -29 -19 5 -10 18 -9 22 4 22 10 0 15 -9 15 -27z
m50 13 c0 -8 3 -23 6 -33 6 -16 5 -16 -9 2 -19 23 -22 45 -7 45 6 0 10 -6 10
-14z m56 -11 c4 -14 3 -29 0 -33 -9 -8 -26 18 -26 41 0 26 19 20 26 -8z m54
-2 c-1 -27 -1 -27 -15 -9 -19 25 -19 36 0 36 10 0 15 -10 15 -27z m-113 -70
c-3 -15 5 -28 23 -42 l28 -20 -5 22 c-4 21 -4 21 15 -3 11 -14 30 -36 42 -50
12 -14 29 -38 38 -53 18 -29 40 -32 52 -7 4 8 20 41 35 73 15 31 31 57 36 57
5 0 9 -2 9 -5 0 -7 -36 -96 -65 -160 -15 -33 -34 -75 -42 -92 -13 -32 -16 -33
-73 -33 -32 0 -62 5 -65 10 -5 7 -11 8 -19 1 -17 -14 -162 -26 -170 -13 -6 10
60 163 76 173 5 3 9 12 7 20 -5 33 15 80 39 93 16 8 21 16 13 20 -12 8 -15 49
-4 60 12 12 35 -27 30 -51z m51 3 c3 -12 -1 -17 -10 -14 -7 3 -15 13 -16 22
-3 12 1 17 10 14 7 -3 15 -13 16 -22z m750 -11 c2 -26 -1 -35 -13 -35 -12 0
-15 9 -13 35 1 19 7 35 13 35 6 0 12 -16 13 -35z m122 15 c0 -13 -7 -20 -20
-20 -15 0 -20 -7 -20 -26 0 -14 4 -23 10 -19 6 3 10 12 10 20 0 8 12 13 34 13
30 0 35 -4 39 -26 4 -26 4 -26 12 -4 10 30 35 28 35 -3 0 -16 4 -23 14 -19 9
3 13 -3 12 -22 -1 -32 -26 -46 -26 -15 0 12 -4 21 -10 21 -5 0 -10 -11 -10
-25 0 -15 6 -25 14 -25 8 0 17 -9 21 -19 3 -11 15 -23 26 -26 10 -4 19 -12 19
-19 0 -7 11 -34 25 -60 14 -26 25 -62 25 -80 0 -52 -24 -59 -169 -48 -67 6
-125 13 -129 16 -9 9 25 101 53 145 15 25 20 42 14 56 -12 31 -10 45 5 45 7 0
16 10 19 23 3 12 9 33 13 47 7 22 6 23 -9 12 -9 -8 -17 -26 -19 -40 -3 -24 -7
-27 -33 -23 -16 1 -34 6 -40 9 -5 4 -16 7 -24 7 -21 0 -23 18 -6 40 14 20 14
20 15 -2 0 -36 16 -27 29 18 15 49 30 68 54 69 10 0 17 -7 17 -20z m-970 -5
c0 -8 -4 -15 -10 -15 -5 0 -10 7 -10 15 0 8 5 15 10 15 6 0 10 -7 10 -15z
m137 -7 c-3 -8 -6 -5 -6 6 -1 11 2 17 5 13 3 -3 4 -12 1 -19z m943 12 c0 -5
-11 -10 -24 -10 -14 0 -28 5 -31 10 -4 6 7 10 24 10 17 0 31 -4 31 -10z m-194
-37 c-10 -10 -19 5 -10 18 6 11 8 11 12 0 2 -7 1 -15 -2 -18z m774 -14 c0 -5
-6 -9 -13 -9 -8 0 -14 6 -14 14 0 8 6 12 14 9 7 -3 13 -9 13 -14z m-1901 -145
c-10 -23 -13 -25 -16 -11 -3 10 1 25 8 33 17 21 21 11 8 -22z m-155 -25 c-2
-4 0 -10 6 -14 15 -9 3 -24 -18 -21 -23 4 -25 42 -1 42 10 0 16 -4 13 -7z m30
-65 c9 -22 8 -24 -9 -18 -8 4 -15 12 -15 20 0 19 16 18 24 -2z m536 -48 c0 -3
-4 -8 -10 -11 -5 -3 -10 -1 -10 4 0 6 5 11 10 11 6 0 10 -2 10 -4z m180 -36
c-27 -39 -34 -39 -12 0 9 16 21 30 25 30 5 0 -1 -13 -13 -30z m-502 -2 c-9
-13 -24 -24 -34 -25 -16 -3 -15 -1 2 6 12 5 24 16 27 25 4 9 9 16 13 16 3 0 0
-10 -8 -22z m632 13 c0 -5 -7 -11 -14 -14 -10 -4 -13 -1 -9 9 6 15 23 19 23 5z
m78 -36 c-6 -14 -17 -25 -25 -25 -11 0 -10 6 4 25 23 32 36 32 21 0z m101 -15
c-13 -16 -24 -28 -27 -26 -6 6 29 56 39 56 5 0 0 -13 -12 -30z m109 8 c-2 -6
-10 -14 -16 -16 -7 -2 -10 2 -6 12 7 18 28 22 22 4z m85 -39 c-9 -18 -18 -28
-20 -22 -4 12 27 67 33 60 2 -2 -3 -19 -13 -38z m91 -4 c-9 -14 -19 -24 -21
-21 -6 6 20 46 30 46 4 0 0 -11 -9 -25z m116 20 c0 -16 -35 -55 -49 -55 -10 0
-12 3 -5 8 6 4 16 17 23 30 10 19 31 31 31 17z m-1083 -39 c-3 -7 0 -19 6 -25
8 -8 3 -11 -21 -11 -29 0 -32 -2 -22 -20 6 -10 10 -23 9 -27 -5 -30 3 -74 14
-79 8 -3 69 22 136 55 143 69 151 73 151 63 0 -8 -41 -28 -200 -99 -41 -18
-87 -40 -102 -48 -27 -15 -27 -15 -33 17 -3 18 -5 64 -3 103 3 64 5 70 28 76
38 11 43 10 37 -5z m101 -11 c0 -17 -6 -25 -19 -25 -10 0 -21 5 -24 10 -3 6
-1 10 4 10 6 0 10 3 10 8 -3 16 2 22 15 22 8 0 14 -10 14 -25z m137 16 c-3 -5
-1 -12 5 -16 18 -11 0 -25 -32 -25 -17 0 -28 -3 -25 -7 7 -7 -160 -93 -180
-93 -9 0 -13 16 -13 45 0 38 3 45 20 45 15 0 20 -7 20 -25 0 -14 4 -25 9 -25
20 0 131 62 126 70 -3 5 -1 11 5 15 6 4 8 11 5 16 -4 5 10 9 30 9 20 0 34 -4
30 -9z m142 -16 c11 -24 10 -25 -27 -25 -40 0 -55 15 -36 37 18 21 50 15 63
-12z m-504 4 c-6 -6 -9 -18 -6 -25 4 -10 -3 -14 -21 -14 -19 0 -26 5 -26 18 0
25 9 32 39 32 18 0 22 -3 14 -11z m647 2 c3 0 6 -10 6 -21 0 -17 -7 -20 -43
-20 -24 0 -43 2 -43 4 0 2 -3 11 -6 19 -3 10 1 17 13 19 16 3 59 3 73 -1z
m128 -33 c0 -26 28 -137 36 -145 7 -7 103 19 195 53 64 24 71 29 56 40 -25 19
-9 34 34 34 29 0 40 -5 43 -18 5 -16 -10 -24 -86 -52 -50 -18 -100 -36 -111
-41 -44 -18 -165 -52 -169 -48 -3 2 -10 36 -16 74 -7 45 -18 76 -31 88 -28 26
-24 37 15 37 28 0 34 -4 34 -22z m98 -13 c1 -15 -3 -25 -12 -25 -16 0 -19 -45
-4 -55 5 -3 31 3 56 15 46 20 46 21 29 40 -14 16 -15 21 -4 25 29 10 63 10 64
-2 0 -6 3 -14 6 -18 4 -3 5 -14 2 -23 -4 -15 -62 -38 -174 -69 -21 -6 -36 61
-18 83 6 8 8 14 5 14 -4 0 -2 9 4 20 15 29 45 26 46 -5z m-856 -35 c0 -16 -4
-30 -10 -30 -5 0 -10 -8 -10 -18 0 -10 -9 -26 -21 -35 -23 -20 -38 -15 -21 6
7 8 9 17 5 20 -10 11 -61 8 -68 -4 -10 -15 24 -49 42 -42 11 4 14 2 11 -8 -3
-8 -16 -13 -32 -12 -14 1 -26 -2 -26 -8 0 -5 -13 -9 -30 -9 -25 0 -30 4 -30
24 0 14 7 31 15 40 8 8 15 19 15 25 0 6 21 11 50 11 38 0 48 3 44 14 -3 7 2
16 10 19 9 4 13 13 10 22 -5 11 1 15 20 15 22 0 26 -4 26 -30z m569 -5 c26
-38 36 -42 48 -21 10 17 69 47 77 39 12 -12 6 -45 -15 -74 -11 -16 -16 -29
-10 -29 5 0 13 5 17 11 10 16 24 -10 24 -45 l0 -29 -52 7 c-29 4 -72 6 -96 6
-50 -1 -60 14 -45 71 7 27 7 39 -1 42 -6 3 -12 16 -14 31 -3 40 37 35 67 -9z
m-697 8 c26 -23 22 -33 -12 -33 -25 0 -30 4 -30 25 0 29 16 32 42 8z m596 -69
c4 -60 3 -66 -14 -62 -15 2 -20 15 -24 53 -6 62 -19 66 -100 29 -33 -15 -63
-24 -67 -21 -6 6 43 30 137 68 28 10 49 14 55 8 5 -5 11 -39 13 -75z m758 64
c0 -13 -6 -27 -12 -33 -10 -8 -6 -18 16 -44 16 -19 33 -32 37 -28 3 4 7 32 7
62 1 44 4 55 17 55 19 0 32 -37 15 -44 -8 -3 -7 -7 3 -14 10 -7 12 -21 7 -50
-3 -22 -2 -42 3 -44 4 -2 11 -20 15 -40 6 -36 5 -38 -18 -38 -14 0 -28 5 -32
11 -3 6 -19 9 -35 5 -49 -10 -59 0 -59 60 0 30 -4 54 -10 54 -5 0 -10 14 -10
30 0 17 4 30 10 30 6 0 6 9 0 25 -9 23 -7 25 18 25 22 0 28 -5 28 -22z m161
-34 c-3 -3 -12 -4 -19 -1 -8 3 -5 6 6 6 11 1 17 -2 13 -5z m-977 -49 c0 -38
-3 -45 -20 -45 -15 0 -20 7 -20 25 0 32 -7 31 -90 -5 -38 -16 -71 -30 -74 -30
-11 0 -6 18 7 23 6 3 48 22 92 41 44 20 86 36 93 36 8 0 12 -16 12 -45z m729
-2 c19 -75 22 -101 13 -107 -14 -8 -27 13 -42 67 -15 55 -25 57 -97 26 -63
-27 -174 -62 -180 -56 -2 3 44 21 104 41 59 21 122 43 138 51 46 21 53 18 64
-22z m257 24 c1 -1 4 -14 8 -30 5 -20 2 -29 -9 -33 -8 -4 -15 -13 -15 -21 0
-10 6 -13 17 -9 13 5 11 0 -7 -19 -29 -31 -35 -24 -44 64 l-7 63 28 -7 c15 -3
28 -7 29 -8z m-1394 -41 c-2 -20 -9 -37 -16 -37 -17 -2 -50 2 -55 7 -7 6 61
74 69 69 3 -2 4 -20 2 -39z m198 4 c-30 -16 -62 -29 -70 -29 -8 -1 12 12 45
29 78 38 97 38 25 0z m-494 -7 c-10 -10 -19 5 -10 18 6 11 8 11 12 0 2 -7 1
-15 -2 -18z m1388 -9 c10 -25 7 -74 -4 -74 -6 0 -16 11 -22 25 -13 30 -29 31
-87 5 -45 -21 -81 -26 -81 -12 0 7 152 68 176 71 7 0 15 -6 18 -15z m-829 -54
c7 -23 25 -27 25 -5 0 8 7 15 15 15 8 0 15 -2 15 -5 0 -14 -33 -85 -40 -85
-10 0 -40 63 -40 84 0 23 17 20 25 -4z m151 -5 c4 -8 15 -15 25 -15 16 0 17
-3 7 -25 -6 -14 -15 -25 -19 -25 -7 0 -39 63 -39 76 0 11 21 2 26 -11z m-278
-25 c16 0 15 -12 -2 -36 -14 -19 -15 -19 -21 1 -4 11 -11 28 -16 37 -14 27
-11 33 9 15 10 -10 24 -17 30 -17z m207 -24 c-36 -36 -39 -33 -14 16 17 34 23
39 30 25 7 -11 2 -23 -16 -41z m170 19 c3 -21 -1 -25 -21 -25 -24 0 -24 0 -9
31 18 34 26 33 30 -6z m-605 -6 c0 -4 -9 -9 -20 -12 -23 -6 -24 -3 -9 25 9 17
13 18 20 7 5 -8 9 -17 9 -20z m150 13 c0 -9 -9 -23 -20 -30 -23 -14 -24 -12
-8 23 13 29 28 33 28 7z m158 -7 c10 -22 9 -25 -8 -25 -10 0 -26 -7 -34 -16
-20 -20 -21 -2 -1 36 19 37 28 38 43 5z m-392 -5 c18 0 18 -14 1 -29 -11 -8
-16 -5 -25 13 -6 13 -8 27 -4 31 4 3 8 1 10 -4 2 -6 10 -11 18 -11z m163 -14
c-14 -30 -33 -29 -37 2 -2 16 1 20 11 16 8 -3 18 0 22 6 13 21 16 3 4 -24z
m691 -8 c0 -4 -11 -8 -25 -8 -28 0 -30 3 -14 32 11 21 12 21 25 3 8 -10 14
-22 14 -27z m82 20 c-7 -7 -12 -20 -12 -30 0 -24 -27 -23 -40 1 -16 31 -12 42
14 35 13 -3 27 -1 31 6 4 6 10 9 13 5 3 -3 0 -11 -6 -17z m106 1 c11 -17 16
-18 28 -8 8 6 17 10 20 7 6 -7 -17 -58 -26 -58 -9 0 -33 36 -43 63 -9 24 5 21
21 -4z m-268 -15 c0 -8 -7 -17 -15 -21 -18 -6 -20 -5 -29 23 -6 19 -3 21 19
16 14 -2 25 -11 25 -18z m230 -17 c0 -5 -6 -7 -14 -4 -7 3 -19 0 -25 -6 -8 -8
-11 -6 -11 9 0 11 6 26 12 32 10 10 15 9 25 -5 7 -9 13 -21 13 -26z m136 -6
c-19 -19 -30 -9 -21 19 5 17 9 19 21 9 13 -11 13 -14 0 -28z m197 8 c4 -15 11
-20 23 -15 13 5 15 2 10 -16 -3 -13 -6 -26 -6 -30 0 -30 -50 42 -50 72 0 19
18 10 23 -11z m-46 -6 c4 -11 -26 -47 -34 -40 -2 3 -1 17 3 31 6 26 24 31 31
9z m-57 0 c-1 -18 -19 -35 -29 -28 -9 5 -9 10 0 21 12 15 29 19 29 7z m198
-25 c2 -9 -6 -18 -20 -21 -27 -8 -28 -7 -17 21 10 25 32 25 37 0z m63 3 c1
-14 2 -14 6 2 2 9 8 17 13 17 5 0 14 -8 19 -17 6 -10 11 -14 11 -9 0 5 7 3 15
-4 19 -16 21 -57 3 -42 -19 14 -77 20 -82 8 -5 -16 -22 4 -29 34 -5 21 -2 25
18 26 17 1 25 -4 26 -15z m-1101 -31 c-8 -5 -22 -9 -30 -9 -10 0 -8 3 5 9 27
12 43 12 25 0z m268 3 c-10 -2 -26 -2 -35 0 -10 3 -2 5 17 5 19 0 27 -2 18 -5z
m-380 -10 c-10 -2 -28 -2 -40 0 -13 2 -5 4 17 4 22 1 32 -1 23 -4z m537 -3 c4
-6 -8 -10 -29 -10 -19 0 -38 5 -41 10 -4 6 8 10 29 10 19 0 38 -4 41 -10z
m130 -10 c8 -13 -45 -13 -65 0 -11 7 -6 10 22 10 20 0 40 -4 43 -10z m-988
-20 c41 -32 123 -108 123 -114 0 -3 -37 -30 -83 -60 -72 -48 -86 -54 -112 -47
l-30 8 35 18 c19 9 56 31 82 48 l48 30 -63 59 c-34 32 -65 58 -69 58 -5 0 -8
5 -8 10 0 17 51 11 77 -10z m401 -55 c22 0 18 -20 -5 -23 -17 -3 -23 -10 -23
-28 0 -29 16 -32 23 -4 3 11 12 20 21 20 18 0 22 -25 6 -35 -6 -4 -7 -23 -4
-46 7 -41 -4 -51 -25 -25 -10 11 -8 17 6 25 17 10 16 10 -3 11 -20 0 -34 -17
-34 -41 0 -5 9 -9 20 -9 11 0 20 -4 20 -9 0 -5 -14 -9 -31 -9 -20 1 -36 9 -47
25 -9 14 -28 38 -42 54 l-25 30 -69 -66 c-41 -39 -77 -65 -90 -65 -16 0 -4 17
59 75 l80 75 -54 48 c-37 33 -50 51 -42 56 12 8 27 -1 88 -58 l32 -29 58 53
58 53 5 -39 c3 -22 10 -39 18 -39z m17 65 c-3 -5 -11 -10 -16 -10 -6 0 -7 5
-4 10 3 6 11 10 16 10 6 0 7 -4 4 -10z m688 -7 c-2 -7 6 -13 16 -13 11 0 22
-4 25 -9 10 -15 -5 -43 -20 -37 -8 3 -11 0 -8 -8 3 -9 -14 -18 -54 -30 -84
-23 -84 -23 -80 32 3 41 6 47 26 48 41 3 44 4 38 20 -5 12 1 15 27 12 19 -2
31 -8 30 -15z m107 -3 c0 -5 -6 -10 -14 -10 -8 0 -18 5 -21 10 -3 6 3 10 14
10 12 0 21 -4 21 -10z m97 -6 c-3 -3 -12 -4 -19 -1 -8 3 -5 6 6 6 11 1 17 -2
13 -5z m-1662 -34 c18 -34 20 -63 4 -58 -13 4 -39 75 -31 83 9 8 11 6 27 -25z
m785 15 c0 -8 -7 -15 -15 -15 -16 0 -20 12 -8 23 11 12 23 8 23 -8z m995 5 c4
-6 -5 -10 -19 -10 -14 0 -26 5 -26 10 0 6 9 10 19 10 11 0 23 -4 26 -10z m-40
-40 c-3 -5 -10 -10 -16 -10 -5 0 -9 5 -9 10 0 6 7 10 16 10 8 0 12 -4 9 -10z
m-627 -152 c-5 -10 -16 -18 -25 -18 -13 0 -15 8 -10 48 4 26 12 65 19 87 l12
40 7 -70 c3 -38 2 -78 -3 -87z m845 140 l38 -9 -6 -57 c-4 -31 -11 -61 -16
-66 -5 -6 -9 -25 -9 -43 0 -48 -33 -59 -152 -54 -32 1 -36 19 -12 56 15 22 14
23 -5 18 -23 -6 -27 7 -11 38 7 13 7 19 0 19 -13 0 -13 77 -1 85 5 3 16 -4 24
-15 14 -21 15 -21 25 9 10 27 15 30 49 30 21 -1 55 -5 76 -11z m-1003 -60 c0
-21 5 -38 10 -38 6 0 10 11 10 24 0 14 5 28 10 31 6 3 10 -4 10 -18 0 -14 3
-39 6 -56 6 -27 4 -31 -15 -31 -13 0 -21 7 -22 18 -1 16 -2 16 -6 0 -3 -11
-14 -18 -29 -18 -18 0 -24 5 -24 23 0 20 13 79 26 117 8 24 24 -9 24 -52z
m700 -23 c6 -38 14 -82 17 -97 8 -40 -25 -38 -40 2 -14 37 -23 38 -31 5 -6
-23 -36 -37 -36 -16 0 7 16 59 56 180 9 26 22 -3 34 -74z m-603 5 c2 -55 0
-70 -12 -70 -7 0 -16 3 -18 8 -6 10 14 132 22 132 3 0 7 -32 8 -70z m191 -14
c9 -72 4 -82 -35 -74 -22 4 -28 40 -15 76 6 15 13 40 17 56 9 44 24 19 33 -58z
m-358 4 c0 -40 -4 -59 -14 -63 -20 -8 -26 1 -21 32 2 14 7 43 10 64 9 56 25
35 25 -33z m288 3 c-3 -57 -6 -68 -22 -71 -17 -4 -18 1 -13 51 8 64 15 87 29
87 5 0 8 -30 6 -67z m326 50 c4 -15 3 -42 -3 -75 0 -5 -8 -8 -16 -8 -8 0 -15
-7 -15 -15 0 -8 4 -15 9 -15 14 0 20 -38 7 -43 -6 -2 -33 -1 -61 3 -47 6 -48
7 -25 18 21 9 18 10 -23 5 l-48 -6 3 49 c3 51 16 62 48 40 13 -10 13 -9 1 7
-17 22 -15 24 40 41 61 19 77 19 83 -1z m236 7 c0 -5 -4 -10 -10 -10 -5 0 -10
5 -10 10 0 6 5 10 10 10 6 0 10 -4 10 -10z m-1757 -27 c3 -16 8 -37 12 -48 4
-13 1 -12 -8 5 -21 36 -30 70 -19 70 5 0 12 -12 15 -27z m849 -49 c2 -32 -1
-48 -10 -51 -21 -8 -24 2 -17 51 9 59 22 59 27 0z m908 36 c0 -5 -5 -10 -11
-10 -5 0 -7 5 -4 10 3 6 8 10 11 10 2 0 4 -4 4 -10z m0 -50 c0 -5 -4 -10 -10
-10 -5 0 -10 5 -10 10 0 6 5 10 10 10 6 0 10 -4 10 -10z m-5 -40 c3 -5 -1 -10
-9 -10 -9 0 -16 5 -16 10 0 6 4 10 9 10 6 0 13 -4 16 -10z m-628 -36 c-3 -3
-12 -4 -19 -1 -8 3 -5 6 6 6 11 1 17 -2 13 -5z m618 -4 c3 -5 1 -10 -4 -10 -6
0 -11 5 -11 10 0 6 2 10 4 10 3 0 8 -4 11 -10z m-1005 -10 c-32 -10 -83 -12
-76 -2 2 4 26 8 53 9 37 1 42 -1 23 -7z m227 -6 c-3 -3 -12 -4 -19 -1 -8 3 -5
6 6 6 11 1 17 -2 13 -5z m-1627 -35 c0 -23 -8 -24 -32 -2 -25 22 -23 31 7 25
16 -3 25 -11 25 -23z m2228 17 c5 -3 30 -7 55 -7 56 -3 88 -19 37 -19 -32 0
-120 10 -245 29 -38 6 -27 7 47 5 53 -1 101 -5 106 -8z m-600 -18 c-1 -46 -10
-78 -23 -78 -28 0 -35 69 -7 71 16 1 16 2 0 6 -27 7 -22 23 6 23 19 0 25 -5
24 -22z m367 12 c3 -5 2 -10 -4 -10 -5 0 -13 5 -16 10 -3 6 -2 10 4 10 5 0 13
-4 16 -10z m-502 -7 c-7 -2 -21 -2 -30 0 -10 3 -4 5 12 5 17 0 24 -2 18 -5z
m-133 -13 c-14 -4 -34 -8 -45 -8 l-20 -1 20 9 c11 5 31 8 45 8 l25 0 -25 -8z
m1149 -6 c2 -2 -25 -4 -62 -4 -36 0 -69 4 -72 10 -5 9 124 3 134 -6z m-1619
-15 c0 -11 -4 -17 -10 -14 -5 3 -10 13 -10 21 0 8 5 14 10 14 6 0 10 -9 10
-21z m797 -8 c-4 -18 -2 -31 5 -33 13 -5 4 -38 -11 -38 -5 0 -7 9 -4 20 3 11
0 20 -6 20 -6 0 -11 14 -11 30 0 21 5 30 16 30 13 0 15 -7 11 -29z m53 4 c0
-14 -4 -25 -10 -25 -5 0 -10 11 -10 25 0 14 5 25 10 25 6 0 10 -11 10 -25z
m57 9 c6 -16 -15 -37 -28 -28 -4 2 -10 -9 -14 -26 -4 -17 -13 -30 -21 -30 -12
0 -13 4 -3 23 6 12 18 30 27 40 8 9 12 17 8 17 -4 0 -4 5 -1 10 9 15 25 12 32
-6z m-1842 -4 c3 -5 -3 -10 -14 -10 -11 0 -23 5 -26 10 -3 6 3 10 14 10 11 0
23 -4 26 -10z m1485 -16 c0 -14 -4 -23 -10 -19 -5 3 -10 15 -10 26 0 10 5 19
10 19 6 0 10 -12 10 -26z m48 9 c-4 -22 -22 -20 -26 1 -2 10 3 16 13 16 10 0
15 -7 13 -17z m62 5 c0 -7 -4 -19 -9 -27 -7 -11 -11 -10 -20 7 -15 28 -14 32
9 32 11 0 20 -6 20 -12z m300 2 c0 -5 -4 -10 -10 -10 -5 0 -10 5 -10 10 0 6 5
10 10 10 6 0 10 -4 10 -10z m41 -13 c-13 -13 -26 -3 -16 12 3 6 11 8 17 5 6
-4 6 -10 -1 -17z m382 16 c-7 -2 -19 -2 -25 0 -7 3 -2 5 12 5 14 0 19 -2 13
-5z m-1223 -18 c0 -8 -4 -15 -9 -15 -5 0 -11 7 -15 15 -3 9 0 15 9 15 8 0 15
-7 15 -15z m60 -15 c0 -25 -16 -34 -24 -14 -11 28 -7 44 9 38 8 -4 15 -14 15
-24z m226 -16 c-3 -8 -10 -12 -16 -9 -14 9 -12 42 3 48 14 5 21 -17 13 -39z
m54 21 c0 -28 -15 -34 -24 -9 -10 25 -7 34 9 34 9 0 15 -9 15 -25z m560 21 c0
-2 -3 -11 -6 -20 -9 -23 -24 -20 -24 4 0 11 7 20 15 20 8 0 15 -2 15 -4z m53
-37 c-8 -16 -20 -29 -28 -29 -7 0 -15 -7 -19 -15 -3 -8 -10 -15 -16 -15 -6 0
-2 12 9 26 12 15 21 32 21 38 0 18 21 35 35 30 10 -4 10 -11 -2 -35z m400 34
c-7 -2 -19 -2 -25 0 -7 3 -2 5 12 5 14 0 19 -2 13 -5z m97 -3 c0 -5 -12 -10
-26 -10 -14 0 -23 4 -19 10 3 6 15 10 26 10 10 0 19 -4 19 -10z m-1330 -31 c0
-27 -2 -30 -15 -19 -8 7 -15 21 -15 31 0 11 7 19 15 19 10 0 15 -10 15 -31z
m67 24 c-2 -5 -7 -17 -11 -28 -6 -16 -9 -17 -16 -5 -16 24 -11 40 11 40 11 0
18 -3 16 -7z m40 -25 c-3 -7 -5 -2 -5 12 0 14 2 19 5 13 2 -7 2 -19 0 -25z
m793 14 c0 -20 -67 -88 -77 -78 -4 3 2 19 13 34 11 15 23 35 27 45 8 22 37 22
37 -1z m46 -8 c-3 -9 -6 -20 -6 -25 0 -6 -4 -7 -10 -4 -16 10 -12 45 6 45 11
0 14 -5 10 -16z m49 -13 c-7 -23 -25 -29 -25 -8 0 14 21 39 28 33 2 -3 1 -14
-3 -25z m228 22 c-7 -2 -19 -2 -25 0 -7 3 -2 5 12 5 14 0 19 -2 13 -5z m-163
-9 c0 -3 -5 -14 -10 -24 -7 -13 -7 -21 0 -25 12 -8 13 -35 1 -35 -5 0 -12 10
-15 23 l-7 22 -9 -22 c-8 -20 -40 -33 -40 -17 0 9 21 44 38 65 15 18 42 26 42
13z m50 2 c0 -2 -3 -11 -6 -20 -9 -23 -24 -20 -24 4 0 11 7 20 15 20 8 0 15
-2 15 -4z m-703 -40 c-4 -9 -11 -16 -17 -16 -11 0 -14 33 -3 44 11 10 26 -11
20 -28z m773 3 c-6 -10 -15 -19 -20 -19 -6 0 -10 -7 -10 -15 0 -18 12 -19 28
-3 9 9 12 7 12 -10 0 -18 -5 -21 -32 -19 -27 2 -32 7 -30 22 2 11 12 28 23 38
10 10 19 22 19 28 0 6 5 7 10 4 7 -4 7 -13 0 -26z m256 12 c-17 -19 -7 -39 14
-26 6 3 10 2 10 -2 0 -11 -81 -46 -88 -38 -4 3 -1 15 6 25 7 11 12 26 12 34 0
16 15 24 44 25 18 1 18 0 2 -18z m-1636 -11 c0 -11 -4 -20 -10 -20 -5 0 -10 9
-10 20 0 11 5 20 10 20 6 0 10 -9 10 -20z m450 -17 c0 -7 -7 -13 -15 -13 -15
0 -21 31 -8 43 8 8 23 -12 23 -30z m224 22 c-4 -8 -8 -15 -10 -15 -2 0 -4 7
-4 15 0 8 4 15 10 15 5 0 7 -7 4 -15z m147 -18 c-8 -8 -11 -7 -11 4 0 20 13
34 18 19 3 -7 -1 -17 -7 -23z m649 29 c0 -2 -3 -11 -6 -20 -9 -23 -24 -20 -24
4 0 11 7 20 15 20 8 0 15 -2 15 -4z m36 -38 c-1 -26 -6 -43 -15 -46 -10 -3
-12 0 -8 12 4 10 7 31 7 47 0 16 4 29 8 29 5 0 8 -19 8 -42z m64 36 c0 -1 -3
-9 -6 -18 -5 -13 -8 -13 -20 -1 -19 19 -18 24 6 22 11 -1 20 -2 20 -3z m-1070
-18 c0 -24 -17 -28 -23 -6 -3 13 0 20 9 20 8 0 14 -6 14 -14z m390 -1 c0 -8
-7 -15 -15 -15 -16 0 -20 12 -8 23 11 12 23 8 23 -8z m50 -5 c0 -11 -7 -20
-15 -20 -18 0 -19 12 -3 28 16 16 18 15 18 -8z m-830 -5 c0 -8 -4 -15 -10 -15
-5 0 -10 7 -10 15 0 8 5 15 10 15 6 0 10 -7 10 -15z m180 1 c0 -8 -4 -18 -10
-21 -5 -3 -10 3 -10 14 0 12 5 21 10 21 6 0 10 -6 10 -14z m105 -14 c-8 -8
-25 10 -19 20 4 6 9 5 15 -3 4 -7 6 -15 4 -17z m-165 8 c0 -5 -5 -10 -11 -10
-5 0 -7 5 -4 10 3 6 8 10 11 10 2 0 4 -4 4 -10z m110 0 c0 -5 -4 -10 -10 -10
-5 0 -10 5 -10 10 0 6 5 10 10 10 6 0 10 -4 10 -10z m762 -5 c0 -5 -5 -11 -11
-13 -6 -2 -11 4 -11 13 0 9 5 15 11 13 6 -2 11 -8 11 -13z m58 1 c0 -8 -7 -16
-15 -20 -15 -5 -21 14 -8 27 11 12 23 8 23 -7z m150 -10 c0 -17 -14 -29 -23
-20 -8 8 3 34 14 34 5 0 9 -6 9 -14z m-1368 -30 c13 -19 44 -60 69 -92 25 -33
49 -72 53 -87 l7 -29 -48 3 c-63 3 -81 13 -102 57 -16 37 -38 74 -72 124 -26
38 -15 58 32 58 33 0 42 -5 61 -34z m778 30 c0 -3 -4 -8 -10 -11 -5 -3 -10 -1
-10 4 0 6 5 11 10 11 6 0 10 -2 10 -4z m701 -29 c-8 -8 -11 -7 -11 4 0 20 13
34 18 19 3 -7 -1 -17 -7 -23z m52 13 c-3 -11 -9 -20 -14 -20 -10 0 -12 24 -2
33 13 13 21 7 16 -13z m753 -17 c-11 -11 -19 6 -11 24 8 17 8 17 12 0 3 -10 2
-21 -1 -24z m-1752 -6 c15 -19 26 -37 26 -41 0 -4 16 -32 35 -62 36 -57 44
-89 23 -96 -7 -2 -33 -6 -57 -7 -38 -2 -47 1 -68 26 l-24 28 6 -27 c5 -25 3
-28 -22 -28 -16 -1 -52 -2 -80 -3 -48 -2 -52 -1 -47 17 12 37 61 111 75 114 8
1 23 -13 33 -33 11 -19 23 -35 28 -35 11 0 10 18 -2 25 -6 4 -19 24 -31 46
-19 38 -19 41 -3 69 11 17 28 31 43 33 14 2 29 5 33 6 4 0 18 -14 32 -32z m36
20 c0 -8 9 -25 21 -38 11 -13 27 -36 35 -51 8 -16 18 -28 23 -28 5 0 21 17 37
38 30 41 64 76 64 67 0 -3 -20 -36 -45 -73 -25 -37 -45 -73 -45 -80 0 -29 -24
-3 -60 67 -21 40 -43 78 -49 84 -15 15 -14 27 4 27 8 0 15 -6 15 -13z m484 2
c3 -3 8 -23 12 -44 7 -44 21 -85 29 -85 3 0 3 23 -1 52 -5 37 -4 49 5 44 6 -4
11 -16 11 -27 0 -10 5 -19 10 -19 6 0 10 -6 10 -13 0 -7 6 -21 13 -31 13 -17
16 -16 56 23 54 53 64 53 17 -1 -20 -24 -45 -60 -57 -81 -17 -32 -23 -36 -35
-27 -8 7 -14 24 -14 38 0 18 -3 23 -10 16 -8 -8 -7 -20 0 -39 18 -46 7 -57
-47 -49 -55 7 -71 18 -84 52 -5 14 -12 22 -16 18 -3 -3 0 -17 7 -31 7 -14 11
-26 9 -28 -2 -1 -39 -1 -81 1 -55 3 -78 7 -78 16 0 7 21 41 47 75 46 60 48 61
60 39 7 -13 12 -31 13 -40 0 -10 5 -18 10 -18 13 0 13 12 -1 47 -6 15 -15 42
-19 58 -4 17 -11 38 -15 49 -8 17 -3 18 68 15 42 -3 78 -7 81 -10z m661 -156
c-6 -51 -8 -53 -52 -73 -25 -11 -47 -20 -49 -20 -10 0 -2 34 25 101 16 41 32
86 35 101 3 15 14 35 24 44 16 17 17 15 20 -42 2 -32 1 -83 -3 -111z m-170 70
l17 -58 19 38 c11 20 21 37 24 37 6 0 -54 -143 -64 -150 -4 -3 -10 -13 -14
-22 -5 -14 -20 -18 -79 -19 -108 -2 -140 -1 -145 4 -13 13 82 147 105 147 7 0
12 13 12 33 0 44 4 47 61 47 l48 0 16 -57z m770 47 c7 -12 -23 -45 -32 -36 -4
4 -7 15 -8 26 -2 21 29 29 40 10z m-2380 -93 c31 -54 31 -67 1 -67 -31 0 -48
22 -53 70 -5 55 18 53 52 -3z m252 29 c-3 -8 -9 -31 -13 -51 -7 -39 -19 -41
-42 -7 -13 20 -13 22 2 22 9 0 21 11 26 25 5 14 15 25 21 25 6 0 9 -6 6 -14z
m-1222 -138 c6 -29 4 -38 -6 -38 -40 1 -65 53 -39 82 20 22 36 6 45 -44z
m3343 21 c-3 -8 -7 -3 -11 10 -4 17 -3 21 5 13 5 -5 8 -16 6 -23z m-3276 -24
c-21 -28 -32 -23 -32 15 0 28 2 29 24 18 24 -10 24 -12 8 -33z m3280 -80 c3
-16 3 -35 -1 -42 -4 -7 -11 6 -17 32 -7 30 -7 43 0 42 6 -1 14 -15 18 -32z
m-1695 -21 c-3 -3 -12 -4 -19 -1 -8 3 -5 6 6 6 11 1 17 -2 13 -5z m-217 -14
c-19 -13 -30 -13 -30 0 0 6 10 10 23 10 18 0 19 -2 7 -10z m-117 -7 c-7 -2
-19 -2 -25 0 -7 3 -2 5 12 5 14 0 19 -2 13 -5z m347 -9 c0 -2 -14 -4 -31 -4
-16 0 -28 4 -25 9 5 8 56 3 56 -5z m110 6 c0 -5 -7 -10 -15 -10 -8 0 -15 5
-15 10 0 6 7 10 15 10 8 0 15 -4 15 -10z m140 -6 c0 -2 -14 -4 -31 -4 -16 0
-28 4 -25 9 5 8 56 3 56 -5z m220 -4 c-10 -6 -11 -10 -2 -10 6 0 12 -4 12 -9
0 -4 -12 -6 -27 -3 -16 3 -22 7 -15 10 6 2 10 8 6 13 -3 5 5 9 18 9 18 0 20
-2 8 -10z m525 -22 c-2 -18 -3 -38 -4 -45 -1 -12 -37 -36 -74 -49 -10 -4 -17
-14 -16 -23 3 -31 -1 -41 -17 -41 -11 0 -14 5 -10 16 3 9 6 35 6 59 0 38 3 43
25 47 17 4 25 1 25 -8 0 -18 9 -18 31 2 10 9 15 22 12 30 -6 17 3 44 15 44 5
0 8 -15 7 -32z m-1462 15 c-7 -2 -21 -2 -30 0 -10 3 -4 5 12 5 17 0 24 -2 18
-5z m117 -3 c0 -5 -7 -10 -15 -10 -8 0 -15 5 -15 10 0 6 7 10 15 10 8 0 15 -4
15 -10z m107 4 c-3 -3 -12 -4 -19 -1 -8 3 -5 6 6 6 11 1 17 -2 13 -5z m829 -3
c-19 -7 -18 -8 5 -16 l24 -8 -23 -4 c-13 -3 -30 -2 -38 1 -21 8 4 35 31 35 20
0 20 -1 1 -8z m139 -13 c-1 -18 -8 -23 -31 -23 -53 0 -32 34 27 44 3 1 5 -9 4
-21z m86 13 c-7 -5 -11 -13 -7 -19 3 -6 -2 -17 -13 -24 -17 -12 -17 -16 -5
-32 7 -11 11 -23 8 -27 -3 -5 1 -9 9 -9 8 0 18 14 23 32 5 17 16 34 23 36 11
4 13 -4 7 -39 -4 -24 -8 -62 -9 -84 l-2 -40 -54 -2 -53 -2 5 41 c3 23 11 45
19 49 10 7 10 9 1 9 -18 0 -16 45 1 59 8 7 13 20 11 29 -4 24 3 32 28 32 16 0
19 -3 8 -9z m62 3 c-7 -3 -9 -12 -6 -20 3 -8 -1 -14 -11 -14 -18 0 -19 2 -10
24 3 9 14 16 23 15 9 0 11 -3 4 -5z m77 -4 c0 -5 -5 -10 -11 -10 -5 0 -7 -4
-4 -10 3 -5 0 -10 -9 -10 -12 0 -14 13 -7 38 3 7 31 0 31 -8z m-1189 -61 c6
-24 15 -47 22 -51 8 -5 6 -9 -6 -14 -26 -10 -35 5 -37 56 -3 78 5 82 21 9z
m55 25 c5 -18 11 -24 23 -20 11 4 10 2 -3 -9 -30 -23 -43 -18 -48 15 -7 47 17
59 28 14z m362 14 c19 -19 14 -30 -10 -26 -13 2 -24 11 -26 21 -4 20 18 23 36
5z m-598 -44 c0 -2 -13 -4 -30 -4 -26 0 -30 4 -30 26 l0 25 30 -21 c17 -12 30
-23 30 -26z m110 21 c0 -21 -5 -25 -30 -25 -36 0 -38 13 -8 34 31 22 38 20 38
-9z m410 -42 c0 -24 -4 -43 -10 -43 -5 0 -10 11 -10 24 0 14 -4 36 -9 50 -7
17 -7 26 2 29 18 6 27 -13 27 -60z m203 47 c-5 -20 -23 -26 -36 -13 -9 8 12
33 28 33 8 0 11 -8 8 -20z m75 -53 c-1 -29 -5 -46 -12 -44 -12 4 -20 81 -11
105 11 29 25 -8 23 -61z m-493 53 c-3 -5 -12 -10 -18 -10 -7 0 -6 4 3 10 19
12 23 12 15 0z m557 -20 c3 -19 0 -31 -10 -35 -22 -8 -29 2 -24 35 6 39 28 39
34 0z m-1979 13 c-7 -2 -21 -2 -30 0 -10 3 -4 5 12 5 17 0 24 -2 18 -5z m1001
-15 c8 -30 8 -113 0 -105 -4 3 -8 25 -10 48 -2 23 -6 51 -10 61 -3 10 -1 18 4
18 5 0 12 -10 16 -22z m1122 14 c-7 -12 -115 -37 -123 -29 -3 4 5 7 18 7 13 1
35 7 49 15 27 16 64 20 56 7z m464 -2 c0 -5 -5 -10 -11 -10 -5 0 -7 5 -4 10 3
6 8 10 11 10 2 0 4 -4 4 -10z m-855 -20 c-27 -12 -35 -12 -35 0 0 6 12 10 28
9 24 0 25 -1 7 -9z m435 0 c-8 -5 -19 -10 -25 -10 -5 0 -3 5 5 10 8 5 20 10
25 10 6 0 3 -5 -5 -10z m-580 -47 c0 -32 -14 -28 -27 7 -8 21 -8 30 1 33 14 5
26 -12 26 -40z m230 43 c0 -11 -19 -15 -25 -6 -3 5 1 10 9 10 9 0 16 -2 16 -4z
m432 -75 c-3 -42 -8 -61 -17 -61 -20 0 -25 119 -5 130 21 12 25 -1 22 -69z
m-2132 34 c0 -19 -4 -35 -10 -35 -5 0 -10 16 -10 35 0 19 5 35 10 35 6 0 10
-16 10 -35z m990 25 c0 -5 -7 -10 -15 -10 -8 0 -15 5 -15 10 0 6 7 10 15 10 8
0 15 -4 15 -10z m100 -3 c0 -7 -14 -26 -30 -42 -23 -22 -33 -26 -42 -17 -9 9
-7 12 8 12 45 0 60 46 17 53 -23 3 -21 4 10 6 25 1 37 -3 37 -12z m1400 -23
c0 -17 -44 -48 -48 -34 -6 17 -30 11 -46 -12 -9 -12 -18 -19 -21 -16 -3 3 15
27 40 53 38 40 47 45 60 35 8 -7 15 -18 15 -26z m-1650 -15 c0 -18 -4 -28 -10
-24 -5 3 -10 15 -10 26 0 10 -6 19 -12 19 -9 0 -8 3 2 9 20 14 30 4 30 -30z
m580 36 c0 -7 -101 -57 -106 -52 -2 2 20 16 48 30 55 29 58 30 58 22z m180
-34 c0 -14 -27 -14 -35 -1 -4 6 -4 18 -1 26 5 14 8 14 21 0 8 -8 15 -19 15
-25z m-606 -32 c-3 -5 -16 -9 -30 -9 -18 0 -24 5 -24 23 0 13 3 27 7 30 9 9
54 -33 47 -44z m126 21 c0 -27 -3 -30 -31 -30 l-30 0 21 30 c12 17 26 30 31
30 5 0 9 -13 9 -30z m590 10 c0 -19 -20 -27 -33 -13 -8 7 11 33 24 33 5 0 9
-9 9 -20z m1469 -7 c-1 -18 -3 -22 -6 -10 -4 14 -8 16 -19 6 -11 -9 -14 -8
-14 4 0 14 13 24 33 26 4 1 6 -11 6 -26z m-3239 -8 c0 -16 -6 -25 -15 -25 -9
0 -15 9 -15 25 0 16 6 25 15 25 9 0 15 -9 15 -25z m2145 5 c4 -6 4 -24 0 -40
-8 -37 -35 -40 -35 -5 0 30 -5 31 -71 5 -28 -12 -54 -18 -57 -15 -8 8 -2 11
73 38 85 30 82 29 90 17z m-905 -75 c0 -8 -4 -15 -10 -15 -5 0 -7 7 -4 15 4 8
8 15 10 15 2 0 4 -7 4 -15z m2055 -24 c-10 -10 -34 10 -29 24 6 14 8 13 19 -2
8 -10 12 -20 10 -22z m-3225 19 c0 -5 -4 -10 -10 -10 -5 0 -10 5 -10 10 0 6 5
10 10 10 6 0 10 -4 10 -10z m1365 0 c-3 -5 -11 -10 -16 -10 -6 0 -7 5 -4 10 3
6 11 10 16 10 6 0 7 -4 4 -10z m-125 -10 c0 -5 -4 -10 -10 -10 -5 0 -10 5 -10
10 0 6 5 10 10 10 6 0 10 -4 10 -10z m-276 -21 c-8 -14 -24 -10 -24 6 0 9 6
12 15 9 8 -4 12 -10 9 -15z m1466 12 c0 -18 -18 -21 -30 -6 -10 13 -9 15 9 15
11 0 21 -4 21 -9z m-1320 -5 c0 -3 -4 -8 -10 -11 -5 -3 -10 -1 -10 4 0 6 5 11
10 11 6 0 10 -2 10 -4z m1160 -10 c0 -8 -14 -22 -32 -30 -38 -20 -38 -20 -38
0 0 9 9 18 20 21 11 3 20 9 20 14 0 5 7 9 15 9 8 0 15 -6 15 -14z m105 5 c3
-5 1 -12 -5 -16 -5 -3 -10 1 -10 9 0 18 6 21 15 7z m-445 -11 c0 -5 -5 -10
-11 -10 -5 0 -7 5 -4 10 3 6 8 10 11 10 2 0 4 -4 4 -10z m-60 -4 c0 -3 -4 -8
-10 -11 -5 -3 -10 -1 -10 4 0 6 5 11 10 11 6 0 10 -2 10 -4z m200 -6 c0 -5 -9
-14 -20 -20 -22 -12 -27 -1 -8 18 14 14 28 16 28 2z m70 -7 c0 -2 -5 -13 -11
-24 -13 -24 -29 -16 -29 16 0 18 4 22 20 18 11 -3 20 -7 20 -10z m44 8 c6 -10
-22 -37 -29 -29 -8 7 5 38 15 38 5 0 11 -4 14 -9z m121 0 c3 -5 1 -12 -5 -16
-5 -3 -10 1 -10 9 0 18 6 21 15 7z m-301 -16 c-4 -8 -10 -15 -15 -15 -5 0 -9
7 -9 15 0 8 7 15 15 15 9 0 12 -6 9 -15z m476 -74 c7 -21 10 -45 7 -52 -3 -9
-6 -6 -6 7 -1 11 -12 31 -26 44 -30 28 -32 40 -7 40 13 0 23 -12 32 -39z
m-1220 9 c0 -12 -10 -25 -23 -31 -13 -6 -28 -19 -35 -29 -9 -16 -7 -24 18 -50
17 -18 30 -40 30 -49 -1 -17 2 -19 -46 47 -9 12 -21 22 -26 22 -5 0 -36 -27
-70 -60 -33 -33 -65 -60 -69 -60 -16 0 -9 15 17 35 15 11 45 37 68 59 l41 38
-50 44 c-28 24 -45 44 -39 44 5 0 27 -16 48 -35 21 -19 43 -35 49 -35 5 0 25
18 44 40 40 46 43 47 43 20z m-274 -36 c30 -20 57 -41 60 -46 7 -11 -117 -138
-135 -138 -24 0 -19 20 11 45 93 75 96 84 36 114 -24 12 -54 30 -68 41 l-25
20 33 0 c22 0 52 -12 88 -36z m833 -8 c12 -14 8 -16 -33 -16 -47 0 -54 8 -40
44 5 14 9 14 33 1 15 -7 33 -21 40 -29z m32 34 c10 -6 19 -15 19 -20 0 -17
-26 -11 -45 10 -20 22 -7 27 26 10z m-2016 -55 c11 -40 10 -43 -6 -35 -9 6
-19 15 -21 21 -2 6 -13 2 -27 -10 -13 -12 -25 -21 -27 -21 -5 0 30 66 44 83
19 21 24 17 37 -38z m2488 -20 c-3 -27 -12 -53 -18 -57 -8 -5 -10 -19 -6 -40
6 -29 4 -34 -26 -49 -39 -20 -132 -44 -140 -36 -3 3 2 16 11 29 19 27 20 39 4
36 -14 -3 -15 16 -3 45 6 13 4 16 -10 11 -14 -6 -16 -1 -13 27 3 30 6 34 29
32 22 -1 28 4 32 27 5 24 12 29 54 37 31 5 56 5 70 -2 19 -9 21 -15 16 -60z
m872 44 c-4 -5 -12 -3 -21 5 -20 21 -17 28 6 16 11 -6 18 -15 15 -21z m-1781
-26 c-2 -48 -4 -53 -19 -53 -18 0 -19 2 -1 45 18 42 22 44 20 8z m141 -5 c-10
-31 -25 -47 -25 -26 0 24 11 48 22 48 5 0 6 -10 3 -22z m-59 -35 c-11 -11 -19
6 -11 24 8 17 8 17 12 0 3 -10 2 -21 -1 -24z m91 15 c-3 -8 -6 -5 -6 6 -1 11
2 17 5 13 3 -3 4 -12 1 -19z m263 -12 c0 -39 -19 -41 -53 -7 l-32 31 43 0 c38
0 42 -2 42 -24z m-483 -6 c-3 -21 -17 -40 -17 -22 0 13 11 42 16 42 2 0 3 -9
1 -20z m80 -2 c-3 -8 -6 -5 -6 6 -1 11 2 17 5 13 3 -3 4 -12 1 -19z m556 -85
c5 -42 3 -53 -8 -53 -8 0 -15 6 -15 13 0 6 -5 19 -10 27 -9 13 -13 11 -30 -10
-30 -38 -25 -5 11 70 31 64 32 65 39 35 4 -16 10 -54 13 -82z m1530 83 c3 -7
2 -19 -3 -25 -9 -15 -22 1 -27 31 -3 20 22 14 30 -6z m-1758 -16 c28 -23 33
-30 19 -30 -43 0 -64 12 -64 36 0 13 2 24 4 24 2 0 20 -13 41 -30z m1437 -40
c-3 -3 -7 1 -9 8 -3 6 -10 9 -15 6 -6 -4 -9 -3 -6 2 3 5 9 18 13 29 7 18 9 17
15 -10 3 -16 4 -32 2 -35z m-1877 41 c3 -5 1 -12 -5 -16 -5 -3 -10 1 -10 9 0
18 6 21 15 7z m1135 -10 c0 -15 -30 -41 -47 -41 -13 0 -12 5 7 25 24 26 40 32
40 16z m-2500 -41 c0 -5 -5 -10 -11 -10 -5 0 -7 5 -4 10 3 6 8 10 11 10 2 0 4
-4 4 -10z m3290 -25 c0 -19 -13 -25 -29 -15 -19 11 -6 41 14 34 8 -3 15 -12
15 -19z m330 9 c0 -9 -5 -14 -12 -12 -18 6 -21 28 -4 28 9 0 16 -7 16 -16z
m-3590 -14 c0 -5 -4 -10 -10 -10 -5 0 -10 5 -10 10 0 6 5 10 10 10 6 0 10 -4
10 -10z m1406 -36 c-3 -8 -10 -12 -16 -9 -14 9 -12 42 3 48 14 5 21 -17 13
-39z m-1362 -47 c21 -65 17 -75 -39 -101 -48 -23 -75 -9 -110 58 -16 30 -26
59 -21 63 12 12 109 41 131 40 15 -2 25 -16 39 -60z m1270 28 c-4 -8 -8 -15
-10 -15 -2 0 -4 7 -4 15 0 8 4 15 10 15 5 0 7 -7 4 -15z m1176 8 c0 -13 -14
-28 -27 -30 -16 -4 -17 9 -1 25 13 13 28 16 28 5z m-872 -34 c31 -10 34 -15
46 -72 6 -26 5 -28 -16 -22 -13 4 -24 8 -24 9 -7 6 -44 79 -44 86 0 12 0 12
38 -1z m739 5 c-3 -3 -12 -4 -19 -1 -8 3 -5 6 6 6 11 1 17 -2 13 -5z m990 0
c-3 -3 -12 -4 -19 -1 -8 3 -5 6 6 6 11 1 17 -2 13 -5z m-2217 -31 c0 -20 -3
-24 -11 -16 -7 7 -9 19 -6 27 10 24 17 19 17 -11z m90 17 c0 -5 -4 -10 -10
-10 -5 0 -10 5 -10 10 0 6 5 10 10 10 6 0 10 -4 10 -10z m847 4 c-3 -3 -12 -4
-19 -1 -8 3 -5 6 6 6 11 1 17 -2 13 -5z m323 -3 c0 -12 -20 -25 -27 -18 -7 7
6 27 18 27 5 0 9 -4 9 -9z m-1310 -21 c0 -11 -4 -20 -9 -20 -11 0 -22 26 -14
34 12 12 23 5 23 -14z m2280 10 c0 -5 -4 -10 -10 -10 -5 0 -10 5 -10 10 0 6 5
10 10 10 6 0 10 -4 10 -10z m-2330 -27 c-1 -27 -1 -27 -15 -9 -19 25 -19 36 0
36 10 0 15 -10 15 -27z m2620 -5 c-1 -26 -3 -30 -10 -16 -6 9 -7 23 -4 32 9
25 14 19 14 -16z m-2723 -10 c-3 -7 -5 -2 -5 12 0 14 2 19 5 13 2 -7 2 -19 0
-25z m53 16 c0 -8 -4 -12 -10 -9 -5 3 -10 10 -10 16 0 5 5 9 10 9 6 0 10 -7
10 -16z m300 -5 c0 -5 -4 -9 -10 -9 -5 0 -10 7 -10 16 0 8 5 12 10 9 6 -3 10
-10 10 -16z m893 14 c-7 -2 -21 -2 -30 0 -10 3 -4 5 12 5 17 0 24 -2 18 -5z
m139 -13 c-27 -25 -20 -49 14 -42 14 2 24 0 24 -7 0 -6 -7 -11 -15 -11 -8 0
-17 0 -20 0 -3 0 -12 -7 -21 -15 -17 -17 -44 -20 -44 -6 0 5 5 11 12 13 7 3 9
14 4 31 -4 17 -11 25 -18 21 -7 -4 -8 -3 -4 4 6 10 54 29 80 31 6 1 0 -8 -12
-19z m-2432 -15 c0 -7 10 -24 21 -39 28 -35 17 -46 -54 -53 -91 -9 -96 -2 -42
61 44 52 75 64 75 31z m2554 8 c-10 -7 -24 -13 -31 -13 -11 0 -11 3 -2 13 7 7
21 13 31 13 18 0 18 -1 2 -13z m-1184 -2 c0 -6 -4 -13 -10 -16 -5 -3 -10 1
-10 9 0 9 5 16 10 16 6 0 10 -4 10 -9z m976 -38 c-11 -11 -19 6 -11 24 8 17 8
17 12 0 3 -10 2 -21 -1 -24z m-1066 6 c0 -5 -4 -9 -10 -9 -5 0 -10 7 -10 16 0
8 5 12 10 9 6 -3 10 -10 10 -16z m40 11 c0 -5 -5 -10 -11 -10 -5 0 -7 5 -4 10
3 6 8 10 11 10 2 0 4 -4 4 -10z m420 -52 c0 -15 -8 -18 -50 -18 -27 0 -50 4
-50 9 0 5 11 23 25 40 l26 30 24 -21 c14 -12 25 -30 25 -40z m390 58 c0 -3 -4
-8 -10 -11 -5 -3 -10 -1 -10 4 0 6 5 11 10 11 6 0 10 -2 10 -4z m-954 -33
c-10 -10 -19 5 -10 18 6 11 8 11 12 0 2 -7 1 -15 -2 -18z m233 10 c8 -13 10
-14 11 -4 0 10 9 7 28 -11 15 -14 32 -24 38 -21 6 2 10 -6 9 -19 -2 -29 -31
-36 -40 -9 -3 10 -13 25 -22 33 -14 11 -15 10 -9 -12 5 -14 16 -31 27 -39 10
-7 19 -19 19 -25 0 -12 -64 -66 -79 -66 -5 0 -23 21 -40 46 -35 51 -34 77 5
119 27 30 39 31 53 8z m811 2 c0 -8 -7 -15 -15 -15 -9 0 -12 6 -9 15 4 8 10
15 15 15 5 0 9 -7 9 -15z m50 5 c0 -5 -4 -10 -10 -10 -5 0 -10 5 -10 10 0 6 5
10 10 10 6 0 10 -4 10 -10z m44 -5 c-4 -8 -10 -15 -15 -15 -5 0 -9 -11 -9 -24
0 -36 -17 -41 -22 -6 -2 16 -1 27 3 24 5 -3 14 4 21 16 15 23 30 27 22 5z
m-1284 -20 c0 -8 -7 -15 -15 -15 -9 0 -12 6 -9 15 4 8 10 15 15 15 5 0 9 -7 9
-15z m1067 -5 c-1 -22 -17 -28 -17 -7 0 12 9 27 16 27 2 0 2 -9 1 -20z m409
-17 c7 -26 26 -53 38 -53 3 0 12 12 20 28 15 27 15 27 16 3 0 -16 -18 -41 -55
-78 -76 -73 -84 -71 -79 24 3 42 9 83 16 90 17 21 37 15 44 -14z m-366 -3 c0
-5 -4 -10 -10 -10 -5 0 -10 5 -10 10 0 6 5 10 10 10 6 0 10 -4 10 -10z m100
-10 c0 -19 -11 -26 -23 -14 -8 8 3 34 14 34 5 0 9 -9 9 -20z m1310 5 c0 -8 -4
-15 -10 -15 -5 0 -7 7 -4 15 4 8 8 15 10 15 2 0 4 -7 4 -15z m-1734 -17 l19
-21 -27 18 c-29 18 -34 25 -20 25 5 0 17 -10 28 -22z m-831 -59 c16 -31 43
-71 58 -89 15 -18 26 -38 24 -44 -2 -6 -29 -12 -59 -14 -52 -3 -58 -1 -75 25
-24 34 -35 73 -21 73 7 0 7 4 1 13 -6 6 -11 31 -12 55 -1 42 0 43 26 40 22 -2
34 -15 58 -59z m1263 35 c15 -3 24 -14 29 -34 3 -20 12 -30 23 -30 11 0 20
-10 24 -26 5 -20 12 -25 26 -21 23 6 24 -1 10 -38 -6 -15 -15 -23 -21 -19 -6
3 -15 1 -19 -6 -5 -7 -33 -15 -64 -18 -44 -3 -61 -1 -75 12 -12 11 -20 13 -23
6 -4 -12 -95 -4 -118 10 -15 9 2 42 41 81 24 24 25 24 32 -1 3 -11 10 -20 17
-20 6 0 9 8 6 18 -2 9 -8 36 -11 60 l-7 43 54 -6 c29 -3 63 -8 76 -11z m-907
-53 c36 -37 36 -47 -1 -66 -49 -26 -62 -21 -55 23 9 50 15 72 21 72 3 0 19
-13 35 -29z m1036 7 c-3 -8 -6 -5 -6 6 -1 11 2 17 5 13 3 -3 4 -12 1 -19z
m-1251 -48 c-2 -34 -6 -64 -10 -67 -4 -4 -17 3 -29 16 -20 21 -21 23 -4 32 9
6 17 17 17 25 0 13 21 54 27 54 2 0 1 -27 -1 -60z m-996 21 c0 -12 -20 -25
-27 -18 -7 7 6 27 18 27 5 0 9 -4 9 -9z m-96 -30 c3 -5 -1 -12 -10 -15 -27
-10 -44 -7 -44 9 0 16 45 21 54 6z m96 -11 c0 -13 -11 -13 -30 0 -12 8 -11 10
8 10 12 0 22 -4 22 -10z m-216 -51 c7 -45 1 -62 -14 -39 -12 19 -13 80 -1 80
5 0 11 -19 15 -41z m226 12 c-6 -12 -15 -21 -21 -21 -5 0 -2 11 7 25 20 30 31
26 14 -4z m-115 -31 c3 -5 -6 -12 -20 -16 -29 -7 -41 -1 -30 15 8 14 42 14 50
1z m128 -155 c29 -51 21 -67 -13 -30 -13 14 -32 25 -42 25 -25 0 -23 16 4 34
12 9 23 16 24 16 1 0 14 -20 27 -45z m37 20 c0 -8 -4 -15 -10 -15 -5 0 -10 7
-10 15 0 8 5 15 10 15 6 0 10 -7 10 -15z m-120 2 c0 -1 -13 -27 -28 -57 -27
-53 -52 -75 -52 -48 0 19 59 108 71 108 5 0 9 -1 9 -3z m-90 -56 c0 -6 -4 -13
-10 -16 -5 -3 -10 1 -10 9 0 9 5 16 10 16 6 0 10 -4 10 -9z m174 -53 c8 -32 7
-38 -4 -38 -5 0 -10 7 -10 16 0 14 -2 14 -22 0 -12 -9 -27 -16 -33 -16 -6 0
-6 3 1 8 6 4 16 17 23 30 6 12 18 22 25 22 8 0 16 -10 20 -22z m-84 -2 c0 -14
-29 -31 -38 -21 -6 6 18 35 29 35 5 0 9 -6 9 -14z m150 -90 c0 -7 -7 -19 -15
-26 -13 -11 -15 -8 -15 14 0 16 5 26 15 26 8 0 15 -6 15 -14z m-115 -55 c-4
-20 -9 -39 -12 -44 -7 -12 -73 -37 -98 -37 -33 0 -39 27 -10 46 29 19 34 39 6
24 -11 -5 -22 -6 -25 -1 -7 10 114 59 132 53 10 -3 12 -15 7 -41z m65 -1 c0
-5 -5 -10 -11 -10 -5 0 -7 5 -4 10 3 6 8 10 11 10 2 0 4 -4 4 -10z m-248 -72
c-8 -8 -17 -8 -34 0 -22 10 -21 11 12 11 26 1 31 -2 22 -11z m5438 -19 c0 -4
-8 -9 -18 -11 -10 -3 -19 0 -19 6 0 7 9 12 19 12 10 0 18 -3 18 -7z m-5340
-69 c0 -5 -7 -10 -16 -10 -8 0 -12 5 -9 10 3 6 10 10 16 10 5 0 9 -4 9 -10z
m50 -90 c0 -5 -5 -10 -11 -10 -5 0 -7 5 -4 10 3 6 8 10 11 10 2 0 4 -4 4 -10z
m38 -15 c-10 -23 -28 -34 -28 -18 0 7 31 43 36 43 2 0 -2 -11 -8 -25z m5122
-46 c0 -5 -7 -9 -15 -9 -8 0 -15 7 -15 15 0 9 6 12 15 9 8 -4 15 -10 15 -15z
m30 -25 c0 -8 -5 -12 -10 -9 -6 4 -8 11 -5 16 9 14 15 11 15 -7z m-5162 -167
c-6 -20 -14 -37 -18 -37 -4 0 -6 -16 -5 -35 1 -19 -1 -33 -3 -30 -3 3 -11 0
-17 -5 -9 -7 -15 -6 -22 2 -19 25 -22 47 -7 59 8 7 13 18 10 25 -3 7 1 18 9
24 7 6 11 19 8 29 -6 22 25 34 44 17 10 -9 10 -20 1 -49z m4156 -33 c27 -10
18 -21 -14 -16 -16 2 -27 8 -24 13 6 11 16 11 38 3z m256 -19 c47 -4 112 -8
145 -10 33 -2 78 -7 100 -11 l40 -8 -30 -6 c-16 -4 -34 -4 -40 -1 -5 3 -50 7
-100 8 -88 1 -150 6 -268 19 -73 9 -56 27 18 20 28 -3 88 -8 135 -11z m670 7
c0 -10 -57 -32 -64 -24 -8 8 26 31 47 32 9 0 17 -4 17 -8z m-80 -23 c0 -5 -10
-11 -22 -14 -44 -10 -176 -13 -189 -4 -11 7 -9 9 6 10 65 3 118 9 122 13 9 8
83 4 83 -5z m-245 -9 c3 -5 -3 -10 -15 -10 -12 0 -18 5 -15 10 3 6 10 10 15
10 5 0 12 -4 15 -10z"/>
<path d="M7078 7928 c-10 -12 -16 -24 -13 -26 8 -9 34 7 45 27 15 29 -9 28
-32 -1z"/>
<path d="M6780 7961 c0 -5 5 -13 10 -16 6 -3 10 -2 10 4 0 5 -4 13 -10 16 -5
3 -10 2 -10 -4z"/>
<path d="M6699 7550 c-1 -5 -2 -15 -3 -20 0 -6 -8 -15 -16 -21 -11 -8 -12 -12
-2 -16 6 -2 12 -11 12 -18 0 -8 4 -16 9 -19 11 -7 9 13 -2 32 -10 15 0 32 18
32 11 0 25 20 25 36 0 9 -40 3 -41 -6z"/>
<path d="M4130 7520 c0 -5 7 -10 16 -10 8 0 12 5 9 10 -3 6 -10 10 -16 10 -5
0 -9 -4 -9 -10z"/>
<path d="M4600 7144 c-14 -7 -33 -14 -43 -14 -28 0 -97 -51 -103 -77 -9 -33
-3 -35 39 -13 20 11 43 20 49 20 7 0 31 14 52 30 46 35 99 48 121 30 8 -7 15
-8 15 -3 0 11 -70 43 -91 42 -8 -1 -25 -7 -39 -15z"/>
<path d="M4646 7012 c-3 -5 -30 -14 -61 -21 -61 -14 -95 -42 -95 -78 0 -25 10
-29 27 -12 6 6 16 8 22 5 18 -11 13 -26 -9 -26 -11 0 -20 -5 -20 -10 0 -6 10
-8 23 -6 12 3 40 8 62 11 127 19 181 47 166 87 -13 36 -100 74 -115 50z m35
-52 c10 -6 19 -17 19 -25 0 -13 -28 -35 -44 -35 -3 0 -6 16 -6 35 0 38 2 40
31 25z"/>
<path d="M4698 6380 c-9 -6 -19 -29 -23 -53 -4 -23 -13 -52 -20 -63 -8 -12
-11 -24 -8 -28 14 -14 33 -4 48 24 9 17 12 30 8 30 -4 0 -2 5 5 12 7 7 12 21
12 32 0 11 7 28 17 38 15 17 15 18 -3 18 -10 0 -26 -5 -36 -10z"/>
<path d="M4440 6315 c-9 -11 -10 -15 -1 -15 7 0 9 -4 6 -10 -8 -12 5 -13 24
-1 12 8 12 12 -1 25 -14 14 -18 14 -28 1z"/>
<path d="M4325 6309 c-22 -5 -56 -10 -76 -12 -53 -4 -144 -67 -97 -67 14 0 68
-59 68 -75 0 -17 79 -95 95 -95 8 0 15 -6 15 -12 0 -7 6 -2 13 12 9 17 22 26
45 28 17 2 32 6 33 10 4 43 10 66 18 76 15 18 3 27 -26 20 -38 -10 -103 29
-103 62 0 2 10 4 23 4 49 -1 87 12 87 30 0 30 -25 34 -95 19z"/>
<path d="M4340 5189 c0 -5 5 -7 10 -4 6 3 10 8 10 11 0 2 -4 4 -10 4 -5 0 -10
-5 -10 -11z"/>
<path d="M6542 6858 c-14 -14 -16 -28 -2 -28 5 0 14 9 20 20 12 22 1 27 -18 8z"/>
<path d="M6400 6650 c0 -5 5 -10 10 -10 6 0 10 5 10 10 0 6 -4 10 -10 10 -5 0
-10 -4 -10 -10z"/>
<path d="M6541 6413 c-9 -16 -12 -16 -21 -3 -5 8 -10 13 -11 10 0 -3 -2 -14
-4 -24 -2 -11 -13 -28 -24 -39 -18 -18 -18 -22 -5 -42 8 -12 17 -46 21 -74 3
-28 10 -54 14 -57 14 -8 48 15 48 34 0 9 6 40 12 67 12 52 5 145 -11 145 -5 0
-14 -8 -19 -17z"/>
<path d="M5887 6306 c-4 -10 -7 -25 -6 -34 0 -11 4 -9 10 7 5 13 8 29 6 35 -2
5 -6 2 -10 -8z"/>
<path d="M4593 5028 c-1 -13 -5 -34 -8 -48 l-6 -25 18 22 c13 17 25 21 43 17
20 -5 22 -3 10 5 -12 9 -11 11 9 11 l24 0 -23 20 c-32 28 -65 26 -67 -2z"/>
<path d="M4422 5014 c-2 -29 13 -25 21 6 3 12 0 20 -7 20 -6 0 -13 -11 -14
-26z"/>
<path d="M4455 4937 c-4 -10 -5 -21 -1 -24 10 -10 18 4 13 24 -4 17 -4 17 -12
0z"/>
<path d="M4497 4920 c-3 -11 -2 -20 3 -20 4 0 10 9 13 20 3 11 2 20 -3 20 -4
0 -10 -9 -13 -20z"/>
<path d="M4547 4913 c-12 -11 -8 -23 8 -23 8 0 15 7 15 15 0 16 -12 20 -23 8z"/>
<path d="M4110 4811 c0 -5 5 -13 10 -16 6 -3 10 -2 10 4 0 5 -4 13 -10 16 -5
3 -10 2 -10 -4z"/>
<path d="M4981 4864 c0 -11 3 -14 6 -6 3 7 2 16 -1 19 -3 4 -6 -2 -5 -13z"/>
<path d="M4968 4833 c7 -3 16 -2 19 1 4 3 -2 6 -13 5 -11 0 -14 -3 -6 -6z"/>
<path d="M3695 4320 c3 -5 8 -10 11 -10 2 0 4 5 4 10 0 6 -5 10 -11 10 -5 0
-7 -4 -4 -10z"/>
<path d="M4410 4351 c0 -11 28 -41 39 -41 12 0 31 23 31 37 0 8 -13 13 -35 13
-19 0 -35 -4 -35 -9z"/>
<path d="M5066 4292 c-8 -13 30 -46 43 -37 13 8 15 35 2 35 -5 0 -16 3 -24 6
-8 3 -18 1 -21 -4z"/>
<path d="M3941 4006 c-21 -23 -22 -26 -7 -54 16 -31 34 -48 42 -39 3 2 6 30 8
61 3 63 -7 71 -43 32z"/>
<path d="M5117 3925 c-17 -36 -23 -64 -10 -52 3 4 12 2 20 -4 10 -9 16 -4 28
24 18 45 18 47 1 47 -8 0 -16 5 -18 11 -2 6 -11 -6 -21 -26z"/>
<path d="M5204 3924 c3 -9 6 -22 6 -30 0 -8 5 -14 10 -14 6 0 10 14 10 30 0
21 -5 30 -16 30 -11 0 -14 -5 -10 -16z"/>
<path d="M5171 3864 c0 -11 3 -14 6 -6 3 7 2 16 -1 19 -3 4 -6 -2 -5 -13z"/>
<path d="M4708 3853 c7 -3 16 -2 19 1 4 3 -2 6 -13 5 -11 0 -14 -3 -6 -6z"/>
<path d="M4906 3081 c-4 -5 -3 -16 0 -25 5 -12 10 -13 25 -5 10 5 19 16 19 24
0 16 -35 21 -44 6z"/>
<path d="M4950 2791 c0 -6 4 -11 9 -11 5 0 12 -14 16 -31 9 -38 31 -32 27 7
-4 34 -1 30 -29 38 -14 5 -23 3 -23 -3z"/>
<path d="M4910 2753 c0 -10 -3 -28 -6 -40 -5 -17 -2 -21 13 -19 24 4 33 76 9
76 -9 0 -16 -8 -16 -17z"/>
<path d="M4951 2694 c0 -11 3 -14 6 -6 3 7 2 16 -1 19 -3 4 -6 -2 -5 -13z"/>
<path d="M4887 2284 c6 -15 23 -19 23 -5 0 5 -7 11 -14 14 -10 4 -13 1 -9 -9z"/>
<path d="M4735 2270 c3 -5 8 -10 11 -10 2 0 4 5 4 10 0 6 -5 10 -11 10 -5 0
-7 -4 -4 -10z"/>
<path d="M2650 1300 c0 -5 5 -10 11 -10 5 0 7 5 4 10 -3 6 -8 10 -11 10 -2 0
-4 -4 -4 -10z"/>
<path d="M8910 7258 c0 -2 9 -22 21 -43 l20 -40 -3 40 c-2 29 -8 41 -20 43
-10 2 -18 2 -18 0z"/>
<path d="M8800 7010 c-41 -28 -84 -60 -95 -73 -11 -12 -35 -33 -53 -46 -24
-16 -30 -26 -21 -31 14 -9 69 8 69 21 0 5 9 9 20 9 10 0 35 14 53 30 19 17 37
30 41 30 12 0 56 -44 56 -56 0 -7 -9 -16 -20 -19 -11 -3 -20 -11 -20 -16 0 -6
6 -7 12 -3 7 5 33 8 58 9 38 0 45 3 45 20 0 12 -9 21 -25 25 -32 8 -36 46 -4
43 18 -2 21 2 17 18 -5 18 -12 20 -52 17 -25 -2 -48 1 -51 7 -6 11 32 31 73
40 15 3 27 10 27 15 0 24 -61 6 -130 -40z"/>
<path d="M8742 6813 c-9 -15 -7 -19 9 -20 21 -2 23 5 10 26 -7 11 -11 10 -19
-6z"/>
<path d="M8896 6761 c-16 -16 -60 -45 -100 -64 -123 -60 -121 -55 -49 -129 75
-75 87 -91 109 -149 9 -24 23 -51 30 -59 7 -8 15 -27 19 -42 4 -14 16 -35 26
-44 20 -18 20 -16 17 239 -2 162 -7 260 -14 267 -7 7 -18 1 -38 -19z"/>
<path d="M7977 6402 c-9 -10 -17 -21 -17 -25 0 -3 -25 -57 -56 -119 -70 -143
-83 -193 -87 -353 -4 -148 13 -395 31 -440 7 -16 15 -36 17 -43 4 -10 9 -9 24
5 16 14 18 26 13 58 -8 48 -7 280 1 314 4 13 7 74 8 135 1 119 22 245 65 384
27 91 28 114 1 84z"/>
<path d="M8178 6013 c-8 -10 -21 -34 -28 -53 -7 -19 -20 -42 -27 -51 -8 -9
-18 -32 -23 -51 -6 -19 -19 -44 -30 -56 -11 -11 -20 -26 -20 -32 0 -6 -8 -20
-18 -31 -41 -43 -53 -203 -26 -336 8 -41 34 -44 34 -5 0 15 9 59 21 97 11 39
23 81 26 95 2 14 8 34 13 45 4 11 16 54 25 95 10 41 22 82 26 90 21 40 58 210
46 210 -2 0 -11 -8 -19 -17z"/>
<path d="M6278 5703 c7 -3 16 -2 19 1 4 3 -2 6 -13 5 -11 0 -14 -3 -6 -6z"/>
<path d="M6222 5618 c-7 -7 -12 -18 -12 -26 0 -11 -9 -12 -40 -7 -27 5 -40 3
-40 -4 0 -7 7 -14 15 -17 8 -4 12 -10 9 -15 -8 -14 51 -10 81 5 39 20 47 37
28 58 -19 21 -25 22 -41 6z"/>
<path d="M5593 5003 c-15 -5 -17 -23 -4 -23 5 0 11 7 15 15 3 8 4 15 3 14 -1
0 -8 -3 -14 -6z"/>
<path d="M6946 4843 c-9 -58 -7 -73 9 -73 8 0 23 -4 33 -9 24 -13 182 -42 193
-35 5 3 9 29 9 58 l0 52 -107 22 c-60 12 -113 22 -119 22 -6 0 -14 -17 -18
-37z m113 1 c32 -7 40 -29 25 -68 -7 -19 -16 -19 -66 -5 -43 11 -49 24 -16 32
21 6 21 7 3 27 -18 20 -18 20 2 20 11 0 35 -3 52 -6z"/>
<path d="M7801 4721 c9 -6 65 -12 125 -15 125 -6 83 7 -56 18 -57 4 -80 3 -69
-3z"/>
<path d="M6926 4501 c-3 -5 0 -14 8 -20 10 -9 15 -8 19 3 9 22 -15 37 -27 17z"/>
<path d="M6882 4473 c-9 -9 -18 -11 -26 -4 -7 6 -17 6 -26 1 -8 -6 -12 -10 -7
-11 4 -1 12 -3 17 -4 6 -1 19 -3 30 -4 13 -1 17 -6 14 -16 -8 -20 13 -19 24 2
9 15 10 14 20 -3 5 -10 8 -36 6 -57 -3 -40 5 -52 62 -92 32 -23 47 -38 88 -89
15 -20 32 -36 37 -36 9 0 30 -15 89 -67 79 -70 82 -16 5 87 -30 40 -55 77 -55
82 0 4 -8 8 -17 9 -12 0 -14 2 -5 6 10 4 8 10 -7 27 -11 12 -22 31 -24 42 -1
11 -13 33 -25 49 -12 15 -22 32 -22 37 0 6 -6 8 -14 5 -8 -3 -17 1 -20 9 -3 9
-2 12 5 8 6 -3 5 3 -3 15 -15 24 -28 26 -49 9 -8 -7 -12 -12 -10 -11 2 1 13
-2 23 -8 14 -8 17 -14 10 -21 -11 -11 5 -61 17 -53 4 2 13 0 21 -6 12 -6 12
-9 2 -9 -10 0 -9 -4 3 -16 9 -9 13 -19 9 -23 -4 -3 -9 0 -11 7 -3 6 -9 10 -14
6 -5 -3 -9 -1 -9 4 0 6 -6 10 -12 9 -36 -1 -50 4 -45 17 3 7 -1 23 -9 35 -8
12 -12 26 -9 31 4 6 2 9 -3 8 -5 -2 -18 7 -28 18 -17 18 -21 19 -32 7z"/>
<path d="M6912 4400 c0 -14 2 -19 5 -12 2 6 2 18 0 25 -3 6 -5 1 -5 -13z"/>
<path d="M5987 4273 c3 -7 9 -10 14 -7 14 8 11 21 -5 21 -8 0 -12 -6 -9 -14z"/>
<path d="M6016 4178 c3 -4 9 -8 15 -8 5 0 9 4 9 8 0 5 -7 9 -15 9 -8 0 -12 -4
-9 -9z"/>
<path d="M6058 4171 c-7 -10 -16 -19 -20 -20 -9 -1 -11 -11 -3 -11 3 0 11 0
18 0 6 0 17 11 24 25 13 29 0 34 -19 6z"/>
<path d="M5830 3740 c0 -5 5 -10 11 -10 5 0 7 5 4 10 -3 6 -8 10 -11 10 -2 0
-4 -4 -4 -10z"/>
<path d="M6951 3044 c0 -11 3 -14 6 -6 3 7 2 16 -1 19 -3 4 -6 -2 -5 -13z"/>
<path d="M6130 2916 c0 -8 7 -16 15 -20 9 -3 15 0 15 8 0 8 -7 16 -15 20 -9 3
-15 0 -15 -8z"/>
<path d="M6243 2874 c-3 -8 1 -23 10 -32 15 -14 17 -14 23 1 8 21 -1 47 -16
47 -6 0 -13 -7 -17 -16z"/>
<path d="M6825 2690 c3 -5 8 -10 11 -10 2 0 4 5 4 10 0 6 -5 10 -11 10 -5 0
-7 -4 -4 -10z"/>
<path d="M7110 2650 c0 -5 7 -10 15 -10 8 0 15 5 15 10 0 6 -7 10 -15 10 -8 0
-15 -4 -15 -10z"/>
<path d="M6755 2640 c3 -5 8 -10 11 -10 2 0 4 5 4 10 0 6 -5 10 -11 10 -5 0
-7 -4 -4 -10z"/>
<path d="M6935 2569 c-4 -6 -1 -9 6 -7 8 1 14 -2 14 -7 0 -6 -6 -8 -14 -7 -13
3 -13 1 -2 -12 17 -20 18 -20 32 5 9 17 8 23 -2 30 -19 12 -27 11 -34 -2z"/>
<path d="M7200 2560 c0 -21 2 -25 12 -22 6 2 8 -4 4 -13 -3 -9 -6 -20 -6 -25
0 -4 -9 -10 -20 -13 -21 -5 -27 -31 -10 -42 6 -3 10 -15 10 -25 0 -16 4 -18
23 -11 25 9 36 41 14 41 -8 0 -18 7 -21 16 -5 13 -2 15 13 11 15 -3 21 2 26
21 4 16 2 28 -4 30 -6 2 -11 12 -11 23 0 10 -7 19 -15 19 -8 0 -15 -4 -15 -10z"/>
<path d="M7320 2541 c0 -5 9 -7 20 -4 11 3 20 7 20 9 0 2 -9 4 -20 4 -11 0
-20 -4 -20 -9z"/>
<path d="M6920 2486 c0 -9 5 -16 10 -16 6 0 10 4 10 9 0 6 -4 13 -10 16 -5 3
-10 -1 -10 -9z"/>
<path d="M6980 2489 c0 -5 5 -7 10 -4 6 3 10 8 10 11 0 2 -4 4 -10 4 -5 0 -10
-5 -10 -11z"/>
<path d="M7811 2454 c0 -11 3 -14 6 -6 3 7 2 16 -1 19 -3 4 -6 -2 -5 -13z"/>
<path d="M7067 2448 c-7 -5 1 -8 21 -8 17 0 32 4 32 8 0 10 -37 10 -53 0z"/>
<path d="M6829 2440 c-2 -20 2 -54 7 -59 2 -2 10 2 18 8 8 7 20 10 25 7 5 -4
12 -2 16 4 6 9 2 12 -27 14 -7 1 -18 10 -25 21 -9 15 -13 16 -14 5z"/>
<path d="M7218 2389 c18 -20 15 -29 -12 -29 -14 0 -28 -5 -31 -10 -4 -6 -11
-8 -16 -5 -5 4 -9 2 -9 -3 0 -12 49 -22 55 -12 7 11 45 0 46 -14 7 -67 6 -96
-1 -96 -5 0 -12 5 -15 10 -4 6 -15 8 -26 5 -25 -8 -24 7 1 23 17 10 20 10 20
-2 0 -8 4 -17 9 -20 5 -3 8 8 6 25 -3 46 -55 67 -55 23 0 -16 -16 -19 -25 -4
-11 17 -22 11 -27 -15 -5 -22 -3 -23 16 -13 19 10 20 10 7 -5 -12 -15 -11 -17
3 -17 9 0 16 -6 16 -14 0 -20 -17 -29 -23 -14 -3 8 -6 6 -6 -4 -1 -10 6 -18
14 -18 8 0 15 -6 15 -14 0 -8 2 -20 5 -28 3 -8 -7 -18 -27 -27 -22 -8 -28 -15
-18 -18 7 -3 16 -1 17 4 4 12 63 -6 63 -19 0 -4 5 -8 10 -8 11 0 -8 40 -25 52
-6 4 -2 8 8 8 9 0 17 -6 17 -12 1 -7 9 -23 20 -36 18 -21 29 -24 121 -26 108
-3 177 8 195 30 14 17 36 18 51 3 16 -16 49 -3 35 14 -7 8 -7 18 -2 27 6 8 10
12 11 8 1 -5 3 -12 4 -18 1 -5 3 -13 4 -17 0 -4 6 -2 12 4 18 18 -25 55 -53
44 -13 -4 -29 -6 -37 -3 -7 2 -16 0 -20 -5 -14 -20 -80 -53 -86 -43 -3 6 -11
8 -16 5 -5 -4 -9 -2 -9 2 0 5 -9 9 -20 10 -27 2 -84 50 -67 56 9 4 9 6 0 6 -7
1 -13 8 -13 16 0 8 6 15 13 15 8 0 7 3 -3 10 -9 5 -19 5 -27 -2 -10 -8 -13 -5
-13 15 0 14 5 29 10 32 15 9 12 28 -3 22 -8 -3 -20 -1 -28 4 -12 9 -12 12 2
21 13 9 14 16 5 40 -11 30 -26 38 -26 13 0 -8 -4 -15 -10 -15 -5 0 -10 -7 -10
-16 0 -25 -19 -6 -28 28 -4 18 -14 34 -22 36 -12 4 -13 2 -2 -9z m67 -99 c3
-5 1 -10 -4 -10 -6 0 -11 5 -11 10 0 6 2 10 4 10 3 0 8 -4 11 -10z m-4 -53
c-10 -9 -11 -8 -5 6 3 10 9 15 12 12 3 -3 0 -11 -7 -18z"/>
<path d="M6860 2369 c0 -5 5 -7 10 -4 6 3 10 8 10 11 0 2 -4 4 -10 4 -5 0 -10
-5 -10 -11z"/>
<path d="M7125 2351 c-3 -5 -1 -12 5 -16 5 -3 10 1 10 9 0 18 -6 21 -15 7z"/>
<path d="M7088 2323 c7 -3 16 -2 19 1 4 3 -2 6 -13 5 -11 0 -14 -3 -6 -6z"/>
<path d="M7100 2290 c0 -5 5 -10 10 -10 6 0 10 5 10 10 0 6 -4 10 -10 10 -5 0
-10 -4 -10 -10z"/>
<path d="M7126 2212 c-2 -4 -1 -14 5 -22 7 -12 9 -10 9 8 0 23 -5 28 -14 14z"/>
<path d="M7680 2156 c0 -2 7 -7 16 -10 8 -3 12 -2 9 4 -6 10 -25 14 -25 6z"/>
<path d="M6886 2116 c3 -9 2 -16 -4 -16 -6 0 -13 6 -15 13 -4 9 -6 9 -6 -1 -1
-19 52 -69 57 -54 2 7 10 12 18 12 16 0 18 28 4 50 -8 12 -10 12 -10 -5 0 -17
-2 -17 -10 -5 -5 8 -10 11 -10 6 0 -5 -7 -3 -15 4 -13 11 -14 10 -9 -4z"/>
<path d="M7665 2070 c-9 -15 4 -30 20 -23 8 3 15 9 15 13 0 12 -29 20 -35 10z"/>
<path d="M6950 2040 c0 -5 5 -10 10 -10 6 0 10 -7 10 -17 0 -9 3 -14 6 -10 8
8 -5 47 -17 47 -5 0 -9 -4 -9 -10z"/>
<path d="M7843 1986 c3 -8 0 -22 -8 -30 -19 -19 -19 -26 0 -26 9 0 18 7 21 15
4 8 11 12 16 9 6 -4 8 4 6 17 -2 14 -11 25 -22 27 -14 3 -17 0 -13 -12z"/>
<path d="M7921 1973 c-12 -27 -12 -27 6 -10 11 9 23 14 26 10 4 -3 7 1 7 10 0
27 -26 20 -39 -10z"/>
<path d="M7714 1929 c-4 -7 1 -16 10 -21 9 -5 14 -13 11 -18 -3 -4 2 -11 11
-14 15 -6 15 -8 1 -24 -14 -15 -14 -20 -1 -42 14 -23 14 -23 9 -2 -4 14 -1 24
8 27 16 7 18 37 3 48 -19 13 17 28 52 22 49 -9 31 10 -22 24 -56 14 -73 14
-82 0z"/>
<path d="M7585 1900 c-3 -5 -1 -10 4 -10 6 0 11 5 11 10 0 6 -2 10 -4 10 -3 0
-8 -4 -11 -10z"/>
<path d="M7657 1865 c8 -25 19 -45 25 -45 5 0 6 5 3 10 -9 15 2 12 19 -6 15
-14 16 -13 17 8 1 13 3 33 4 45 1 14 -2 20 -11 16 -8 -3 -14 0 -14 6 0 6 -7
11 -16 11 -9 0 -12 -5 -8 -12 6 -10 4 -10 -7 0 -24 22 -28 13 -12 -33z"/>
<path d="M7530 1852 c0 -5 7 -13 16 -16 10 -4 14 -1 12 6 -5 15 -28 23 -28 10z"/>
<path d="M7577 1853 c-13 -12 -7 -23 11 -22 10 0 12 3 4 6 -6 2 -10 9 -6 14 6
10 0 12 -9 2z"/>
<path d="M7630 1816 c0 -8 6 -17 13 -19 9 -4 9 -6 -1 -6 -7 -1 -11 -5 -8 -9 9
-14 -94 -36 -107 -23 -8 8 -8 11 1 11 16 0 16 26 0 28 -103 10 -138 10 -138
-2 0 -9 9 -12 25 -8 16 3 27 -1 31 -11 3 -8 13 -13 23 -10 9 2 23 -3 30 -11
10 -12 10 -16 2 -16 -7 0 -9 -5 -5 -11 4 -8 9 -7 15 2 7 11 11 11 17 2 4 -6
21 -14 37 -17 17 -3 24 -3 17 0 -19 9 -4 24 23 24 27 0 61 51 51 76 -7 18 -26
18 -26 0z"/>
<path d="M7777 1819 c7 -7 15 -10 18 -7 3 3 -2 9 -12 12 -14 6 -15 5 -6 -5z"/>
<path d="M7820 1820 c0 -6 7 -10 15 -10 8 0 15 2 15 4 0 2 -7 6 -15 10 -8 3
-15 1 -15 -4z"/>
<path d="M7686 1785 c-11 -8 -15 -15 -9 -15 7 0 13 -7 15 -16 2 -10 7 -5 15
15 12 34 8 38 -21 16z"/>
<path d="M7850 1786 c0 -2 7 -7 16 -10 8 -3 12 -2 9 4 -6 10 -25 14 -25 6z"/>
<path d="M7424 1745 c14 -13 26 -29 26 -35 0 -6 4 -9 9 -6 16 10 0 43 -25 55
-37 17 -40 14 -10 -14z"/>
<path d="M7657 1700 c6 -23 23 -27 23 -6 0 8 6 17 13 19 6 3 0 6 -15 6 -21 1
-25 -3 -21 -19z"/>
<path d="M7857 1714 c-4 -4 -7 -14 -7 -23 0 -11 3 -12 11 -4 6 6 10 16 7 23
-2 6 -7 8 -11 4z"/>
<path d="M7736 1691 c-4 -5 -2 -12 4 -16 6 -4 7 -11 4 -17 -4 -7 -2 -8 4 -4
14 9 16 33 3 41 -5 3 -12 1 -15 -4z"/>
<path d="M7805 1680 c-3 -5 -1 -10 4 -10 6 0 11 5 11 10 0 6 -2 10 -4 10 -3 0
-8 -4 -11 -10z"/>
<path d="M7495 1670 c-3 -5 -1 -10 4 -10 6 0 11 5 11 10 0 6 -2 10 -4 10 -3 0
-8 -4 -11 -10z"/>
<path d="M7660 1600 c-9 -6 -10 -10 -3 -10 6 0 15 5 18 10 8 12 4 12 -15 0z"/>
</g>
</svg>
