<?xml version="1.0" standalone="no"?>
<!DOCTYPE svg PUBLIC "-//W3C//DTD SVG 20010904//EN"
 "http://www.w3.org/TR/2001/REC-SVG-20010904/DTD/svg10.dtd">
<svg version="1.0" xmlns="http://www.w3.org/2000/svg"
 width="1024.000000pt" height="1024.000000pt" viewBox="0 0 1024.000000 1024.000000"
 preserveAspectRatio="xMidYMid meet">

<g transform="translate(0.000000,1024.000000) scale(0.100000,-0.100000)"
fill="#000000" stroke="none">
<path d="M7967 9834 c-3 -3 -48 -15 -99 -26 -51 -10 -113 -23 -138 -29 -25 -5
-58 -12 -75 -15 -58 -10 -234 -63 -272 -82 -21 -11 -65 -22 -98 -25 -33 -3
-82 -11 -110 -17 -27 -7 -57 -13 -65 -15 -8 -2 -64 -15 -125 -30 -120 -29
-276 -63 -315 -70 -14 -2 -52 -11 -85 -19 -32 -9 -74 -16 -92 -16 -17 0 -34
-4 -37 -9 -3 -5 -32 -12 -63 -15 -61 -7 -214 -49 -247 -68 -11 -6 -61 -16
-110 -24 -119 -17 -210 -36 -326 -69 -52 -15 -122 -33 -155 -41 -33 -7 -87
-21 -120 -30 -33 -9 -69 -16 -80 -16 -10 1 -24 -3 -30 -7 -12 -10 -59 -22
-100 -27 -16 -1 -61 -10 -100 -19 -38 -9 -81 -19 -95 -22 -14 -2 -74 -15 -135
-28 -60 -13 -191 -40 -290 -59 -370 -72 -416 -83 -472 -107 -32 -13 -68 -19
-124 -19 -51 0 -116 -9 -179 -25 -96 -23 -206 -46 -320 -66 -66 -11 -365 -59
-435 -69 -88 -13 -197 -31 -330 -55 -71 -13 -175 -31 -230 -40 -55 -9 -139
-24 -187 -32 l-88 -16 0 -2837 0 -2837 33 -6 c17 -3 47 -9 65 -13 29 -6 33 -4
32 12 -4 34 0 43 31 79 41 46 85 77 116 81 14 1 53 11 86 22 173 57 279 67
413 42 70 -13 174 -55 174 -70 0 -4 12 -11 26 -14 24 -6 72 -36 101 -63 8 -7
36 -24 63 -39 28 -15 50 -31 50 -35 0 -5 15 -16 33 -24 17 -8 50 -26 72 -39
22 -13 56 -27 75 -31 50 -10 90 -33 90 -52 0 -10 -12 -28 -28 -40 -64 -55
-181 -143 -234 -176 -66 -43 -73 -39 -84 43 -15 124 -82 259 -180 362 -53 56
-73 67 -135 74 -30 3 -57 8 -61 11 -20 12 -3 -13 39 -58 27 -28 65 -69 85 -91
21 -22 38 -43 38 -47 0 -5 8 -19 19 -32 16 -21 49 -84 98 -185 8 -16 15 -59
16 -95 1 -62 0 -65 -39 -104 -35 -34 -194 -257 -194 -271 0 -2 -47 -61 -105
-129 -69 -82 -105 -133 -105 -149 0 -13 -18 -50 -39 -82 -21 -33 -51 -81 -66
-109 -15 -27 -38 -61 -51 -76 -13 -14 -24 -31 -24 -37 0 -7 -9 -30 -20 -51
-10 -21 -17 -41 -14 -43 2 -3 -16 -11 -41 -18 -25 -7 -45 -17 -45 -23 0 -6 -3
-7 -6 -4 -4 3 -15 2 -26 -4 -18 -10 -19 -8 -17 23 2 18 0 39 -4 45 -7 11 7 85
24 131 5 13 9 34 9 47 0 13 10 36 23 52 24 29 77 115 89 146 4 9 12 17 17 17
5 0 18 17 29 38 23 45 163 243 192 272 15 15 20 33 20 69 0 28 4 52 9 56 5 3
13 20 16 38 4 17 16 48 26 68 19 37 17 51 -6 43 -15 -6 -28 23 -15 31 6 4 10
14 10 23 0 10 14 28 30 42 17 14 30 27 30 30 0 3 -20 4 -45 2 -38 -3 -45 -1
-45 14 0 9 7 26 17 36 9 10 12 18 7 19 -5 0 -19 2 -30 4 -21 4 -21 2 -18 -80
1 -47 6 -90 9 -95 3 -6 -1 -49 -10 -98 -19 -99 -23 -128 -24 -159 -1 -26 -56
-92 -67 -80 -4 4 0 38 10 75 14 53 18 110 18 248 0 214 -1 223 -24 221 -22 -2
-29 -19 -33 -81 -2 -27 -11 -70 -19 -95 -16 -51 -36 -155 -36 -190 0 -35 -74
-243 -104 -289 -14 -23 -26 -44 -26 -46 0 -2 -9 -15 -20 -28 -82 -98 -108
-131 -121 -155 -8 -16 -16 -30 -19 -33 -44 -44 -68 -112 -70 -200 0 -43 -8
-79 -21 -107 -20 -41 -48 -64 -50 -40 -1 7 -5 1 -9 -13 -9 -29 -13 -424 -4
-433 10 -10 80 74 111 133 15 30 31 57 34 60 3 3 15 27 28 53 16 35 26 47 37
43 10 -4 14 -1 11 6 -7 21 43 56 89 63 24 3 44 10 44 15 0 4 11 11 25 14 14 4
25 11 25 16 0 6 7 10 15 10 8 0 15 3 15 8 0 4 17 26 38 48 87 97 117 136 114
149 -2 8 1 15 6 15 9 0 105 143 115 172 4 10 13 18 22 18 9 0 18 12 22 31 6
31 105 139 127 139 11 0 46 40 46 54 0 6 5 4 10 -4 6 -10 8 -4 4 22 -5 28 -2
41 15 59 11 13 21 30 22 38 3 71 71 157 198 253 31 24 67 53 81 66 14 12 29
22 35 22 5 0 61 49 123 109 111 107 113 109 131 90 10 -11 24 -39 31 -62 8
-23 17 -46 20 -52 4 -5 17 -41 29 -80 13 -38 27 -80 33 -92 9 -18 6 -26 -19
-52 -45 -44 -67 -127 -68 -246 0 -55 4 -125 8 -155 l8 -55 77 -2 c58 -1 103
-10 182 -37 58 -19 98 -35 90 -36 -13 0 -13 -1 0 -10 9 -6 17 -5 22 3 5 8 8 7
8 -4 0 -13 10 -17 43 -17 47 0 119 -12 127 -21 3 -4 37 -14 75 -24 39 -10 84
-24 100 -31 41 -18 254 -84 340 -106 39 -10 89 -25 111 -33 60 -22 110 -25
106 -7 -8 37 -199 343 -292 470 -27 36 -80 121 -120 190 -39 69 -79 134 -89
145 -9 11 -37 49 -61 85 -24 36 -60 85 -80 110 -146 181 -315 509 -432 835
-30 86 -32 95 -20 95 8 0 19 -22 79 -160 157 -366 396 -774 453 -775 11 0 19
-4 17 -10 -1 -5 -5 -9 -9 -7 -14 4 -9 -5 67 -113 41 -59 98 -148 126 -198 29
-51 78 -128 109 -172 76 -108 128 -190 240 -381 l94 -161 61 -28 c33 -15 143
-79 245 -142 179 -113 247 -149 257 -139 6 6 -51 70 -198 221 -64 66 -138 145
-164 175 -27 30 -63 71 -82 90 -18 19 -33 40 -33 47 0 7 -7 13 -15 13 -8 0
-19 8 -24 18 -5 10 -20 24 -33 31 -13 7 -40 32 -59 56 -19 24 -37 44 -41 45
-11 0 -10 -54 2 -86 9 -23 8 -25 -4 -15 -16 13 -52 109 -62 163 -3 20 -11 38
-18 40 -7 2 -42 35 -79 74 -48 51 -67 79 -67 98 0 14 -4 26 -9 26 -5 0 -7 9
-4 20 3 11 14 20 24 20 11 0 19 5 19 10 0 6 4 10 10 10 5 0 7 -7 4 -14 -7 -19
65 -40 191 -56 50 -7 106 -19 125 -27 22 -9 116 -96 255 -238 121 -123 256
-253 300 -290 44 -37 118 -104 165 -149 100 -97 155 -141 231 -186 65 -38 95
-78 105 -139 6 -36 4 -46 -11 -57 -14 -11 -21 -10 -40 2 -21 14 -23 13 -30
-13 -13 -55 -65 -86 -65 -40 0 17 -9 27 -32 38 -18 8 -34 20 -34 27 -1 6 -2
18 -3 25 -1 6 -13 26 -27 42 -14 17 -23 26 -21 20 3 -5 8 -31 11 -58 7 -50 6
-51 -46 -47 -34 2 -35 -10 -5 -38 30 -28 145 -84 157 -77 6 3 10 1 10 -5 0
-15 103 -60 163 -70 83 -14 129 -30 162 -56 18 -13 46 -24 63 -24 17 0 34 -5
37 -11 4 -5 17 -9 28 -8 35 2 42 0 65 -21 12 -12 22 -18 22 -14 0 3 7 1 15 -6
23 -19 125 -21 125 -2 0 8 8 21 18 28 19 15 36 18 28 6 -2 -4 4 -8 15 -8 10 0
19 4 19 8 0 4 -4 8 -10 8 -5 0 -10 9 -10 20 0 11 6 19 13 18 7 -2 12 7 12 22
0 19 10 30 37 45 39 21 70 71 51 83 -6 4 -18 22 -27 40 -13 25 -22 32 -36 27
-13 -4 -20 0 -25 15 -3 11 -13 20 -21 20 -8 0 -17 7 -21 15 -3 9 -13 15 -22
14 -30 -3 -41 1 -39 13 2 6 -5 14 -14 16 -16 3 -16 1 -3 -25 8 -15 15 -38 15
-50 0 -12 7 -28 15 -36 13 -13 13 -16 0 -27 -12 -10 -15 -9 -15 9 0 14 -6 21
-19 21 -14 0 -18 -5 -14 -20 3 -11 9 -17 14 -14 5 3 9 0 9 -5 0 -6 0 -13 0
-16 0 -3 -3 -5 -7 -6 -5 0 -11 -9 -15 -20 -10 -25 -20 -24 -52 6 -15 14 -31
25 -36 25 -13 0 -61 61 -55 70 3 4 -6 19 -20 31 -13 13 -25 29 -25 35 0 7 -21
33 -46 58 -35 36 -45 53 -42 71 4 18 1 22 -10 17 -8 -3 -13 -1 -10 4 3 5 -13
25 -34 44 -22 19 -62 56 -88 83 -27 26 -53 47 -57 47 -5 0 -16 8 -25 18 -33
34 -55 52 -62 52 -13 0 -95 65 -96 76 0 5 -17 23 -38 39 -21 15 -50 50 -65 77
-15 26 -33 48 -39 48 -15 0 -98 84 -98 98 0 6 -15 19 -33 31 -18 11 -43 31
-56 45 -14 14 -29 26 -34 26 -6 0 -27 18 -48 41 -21 23 -42 38 -47 35 -6 -3
-13 1 -16 10 -4 9 -13 14 -21 10 -8 -3 -15 0 -15 7 0 7 -13 18 -30 25 -16 7
-32 22 -35 33 -4 12 -13 18 -21 15 -7 -3 -22 6 -33 19 -10 14 -23 25 -29 25
-5 0 -15 7 -22 15 -7 9 -19 14 -26 11 -8 -3 -18 3 -24 12 -10 15 -12 16 -22 1
-9 -14 -15 -11 -46 23 -27 29 -38 36 -48 27 -19 -15 -57 15 -88 71 -14 25 -26
38 -26 30 0 -9 -6 -6 -14 9 -8 14 -20 25 -29 27 -30 4 -75 45 -70 65 7 24 -30
83 -68 110 -17 12 -28 24 -25 26 3 3 1 14 -4 24 -7 13 -5 28 7 53 9 20 15 38
12 40 -2 3 -32 -9 -65 -25 -33 -16 -73 -32 -90 -34 -16 -2 -31 -4 -33 -4 -2
-1 1 -7 6 -13 5 -7 10 -25 11 -40 2 -36 -16 -36 -70 -2 -86 55 -134 133 -110
180 5 11 7 25 5 31 -3 7 2 36 11 65 17 60 88 140 145 164 79 33 151 15 316
-81 169 -97 202 -112 225 -97 11 7 33 12 48 12 16 0 32 3 35 7 4 3 21 8 39 10
18 2 37 8 42 13 6 6 22 10 37 10 15 0 32 7 39 15 15 18 46 20 53 3 4 -8 8 -4
12 9 4 13 12 20 17 17 5 -3 16 3 24 15 9 12 26 21 42 21 42 0 71 11 66 24 -3
7 6 11 23 10 16 -1 33 3 39 8 7 5 16 7 20 6 12 -4 64 43 59 53 -3 4 12 16 34
27 28 15 42 17 50 9 8 -8 11 -8 11 0 0 6 -6 14 -12 17 -10 5 -10 7 -1 12 7 3
15 5 19 4 3 -1 13 7 22 17 9 10 34 31 55 46 21 16 34 33 31 39 -5 7 0 9 14 6
17 -5 22 -2 22 12 0 21 37 70 53 70 12 1 77 82 77 96 0 10 49 54 60 54 5 0 14
16 21 35 8 22 20 35 30 35 14 0 17 8 14 45 -2 33 1 45 11 45 8 0 11 6 8 15 -4
8 -2 21 4 28 6 6 12 26 14 42 3 30 26 41 40 21 4 -6 10 -51 14 -101 7 -87 8
-89 19 -55 7 19 10 38 8 42 -2 5 1 8 8 8 7 0 9 9 6 22 -4 14 0 26 11 34 10 7
17 26 17 46 0 18 5 32 11 31 5 -1 15 11 21 27 9 23 8 28 -3 23 -9 -3 -14 2
-14 15 0 15 5 19 19 15 13 -3 20 2 24 19 13 45 9 56 -18 50 -18 -3 -25 0 -25
12 0 11 9 16 29 16 38 0 47 13 66 98 9 39 21 74 26 77 14 9 11 25 -6 25 -8 0
-15 4 -15 9 0 5 8 8 17 7 11 -1 19 9 23 29 7 34 -13 251 -31 335 -6 30 -13 88
-14 128 -2 41 -5 75 -7 77 -5 6 0 209 6 225 4 8 -2 31 -12 51 -14 28 -18 54
-16 110 4 95 6 104 28 127 12 14 15 28 10 48 -4 16 -10 31 -14 34 -4 3 -11 15
-15 28 -6 21 -5 22 13 11 12 -7 18 -17 16 -21 -3 -4 0 -8 5 -8 14 0 14 -4 -9
59 -20 52 -19 91 2 91 6 0 5 6 -2 15 -15 18 -5 31 25 37 12 2 21 13 23 26 3
23 4 23 19 5 14 -17 14 -17 10 3 -5 24 7 43 45 67 31 19 42 22 33 7 -7 -11 22
-26 32 -16 4 3 1 12 -5 18 -7 7 -12 18 -12 26 0 20 -28 45 -45 38 -20 -7 -28
9 -11 23 17 14 54 2 80 -27 10 -12 24 -47 31 -79 27 -123 26 -119 16 -98 -9
18 -10 18 -10 -6 -2 -45 29 -127 57 -156 37 -37 65 -93 53 -107 -10 -13 -24
-59 -41 -138 -7 -32 -16 -55 -20 -53 -4 3 -18 -21 -30 -53 -12 -31 -27 -67
-32 -79 -6 -11 -8 -26 -4 -31 3 -6 0 -13 -6 -15 -10 -4 -9 -8 2 -16 13 -9 12
-11 -6 -11 -26 0 -74 -99 -74 -152 0 -20 -10 -49 -23 -69 -13 -19 -21 -41 -19
-49 4 -12 2 -13 -9 -3 -7 7 -17 13 -21 13 -9 0 -4 -66 7 -92 4 -10 3 -18 -3
-18 -6 0 -7 -14 -2 -38 25 -112 31 -227 17 -295 -7 -37 -10 -70 -6 -73 5 -2 0
-13 -9 -22 -10 -10 -26 -54 -36 -98 -10 -43 -22 -83 -27 -88 -4 -5 -5 -22 -2
-37 3 -17 1 -29 -5 -29 -6 0 -18 -14 -26 -31 -12 -24 -13 -35 -5 -45 11 -13 6
-18 -14 -15 -4 1 -4 -16 -1 -38 4 -25 2 -41 -6 -46 -9 -6 -10 -1 -5 16 7 21 6
22 -9 10 -9 -8 -15 -19 -13 -25 2 -6 -2 -17 -10 -24 -7 -7 -13 -22 -13 -32 0
-10 -4 -22 -10 -25 -5 -3 -10 -12 -10 -20 0 -10 13 -9 68 5 105 29 112 32 112
44 0 8 2 8 8 0 7 -12 64 -2 212 37 41 11 80 21 85 22 6 2 16 6 23 10 6 5 17 5
22 2 6 -3 10 -1 10 5 0 6 5 8 10 5 6 -3 10 2 10 11 0 16 1 16 18 1 23 -21 39
-21 58 -3 8 8 24 13 35 11 15 -3 19 0 15 10 -3 8 -1 15 4 15 6 0 10 -6 10 -14
0 -8 6 -16 13 -18 24 -9 127 5 174 23 13 5 23 5 24 1 0 -4 4 2 9 13 6 14 9 16
9 4 1 -13 11 -14 69 -7 66 7 91 9 320 23 l113 7 -2 217 c-2 185 -4 218 -18
228 -12 9 -13 14 -4 24 7 7 9 24 6 42 -4 21 -3 28 5 23 7 -4 12 -1 12 7 0 10
-7 13 -20 10 -12 -3 -20 0 -20 7 0 6 9 14 21 17 18 5 20 11 16 57 -3 28 -8 64
-12 80 -6 21 -5 27 4 22 8 -5 11 10 11 53 0 48 -3 61 -15 61 -8 0 -15 8 -15
19 0 21 -23 45 -33 34 -4 -3 -7 -1 -7 6 0 19 28 42 47 39 14 -2 19 5 21 31 2
21 0 31 -7 26 -6 -3 -11 1 -11 9 0 8 4 18 10 21 6 3 10 18 9 33 0 24 -1 25 -9
7 -8 -19 -9 -19 -9 2 -1 12 -6 23 -12 25 -16 5 -19 105 -3 105 16 0 27 -24 14
-32 -16 -10 -12 -35 5 -35 12 0 15 16 15 88 0 48 -5 94 -10 102 -6 10 -10 11
-10 3 0 -7 -4 -13 -10 -13 -5 0 -10 12 -9 28 0 15 3 22 5 15 3 -7 12 -9 20 -6
17 6 19 34 2 30 -9 -1 -13 14 -13 50 0 51 8 67 18 41 3 -7 6 195 6 450 1 368
-2 462 -11 456 -10 -6 -10 -5 -1 8 10 12 13 390 13 1806 0 1826 0 1819 -33
1786z m-60 -976 c-3 -8 -6 -5 -6 6 -1 11 2 17 5 13 3 -3 4 -12 1 -19z m-70
-350 c-3 -8 -6 -5 -6 6 -1 11 2 17 5 13 3 -3 4 -12 1 -19z m-270 -70 c-3 -8
-6 -5 -6 6 -1 11 2 17 5 13 3 -3 4 -12 1 -19z m-310 -110 c-3 -8 -6 -5 -6 6
-1 11 2 17 5 13 3 -3 4 -12 1 -19z m690 -40 c-3 -8 -6 -5 -6 6 -1 11 2 17 5
13 3 -3 4 -12 1 -19z m-459 -43 c-3 -3 -9 2 -12 12 -6 14 -5 15 5 6 7 -7 10
-15 7 -18z m489 -127 c-3 -8 -6 -5 -6 6 -1 11 2 17 5 13 3 -3 4 -12 1 -19z
m-157 -358 c0 -5 -2 -10 -4 -10 -3 0 -8 5 -11 10 -3 6 -1 10 4 10 6 0 11 -4
11 -10z m-96 -166 c3 -8 2 -12 -4 -9 -6 3 -10 10 -10 16 0 14 7 11 14 -7z
m-187 -66 c-3 -7 -5 -2 -5 12 0 14 2 19 5 13 2 -7 2 -19 0 -25z m340 -80 c-3
-7 -5 -2 -5 12 0 14 2 19 5 13 2 -7 2 -19 0 -25z m-667 -54 c0 -8 -4 -12 -10
-9 -5 3 -10 10 -10 16 0 5 5 9 10 9 6 0 10 -7 10 -16z m-573 -16 c-3 -8 -6 -5
-6 6 -1 11 2 17 5 13 3 -3 4 -12 1 -19z m1250 -30 c-3 -8 -6 -5 -6 6 -1 11 2
17 5 13 3 -3 4 -12 1 -19z m-71 0 c4 -6 3 -8 -4 -4 -5 3 -13 0 -15 -6 -3 -8
-6 -6 -6 5 -1 19 14 23 25 5z m-56 -33 c0 -5 -5 -3 -10 5 -5 8 -10 20 -10 25
0 6 5 3 10 -5 5 -8 10 -19 10 -25z m-1875 -31 c26 -23 44 -32 56 -29 12 4 29
-3 46 -20 16 -14 36 -28 46 -31 12 -4 16 -12 12 -24 -4 -13 1 -22 15 -30 15
-8 20 -21 20 -49 0 -30 6 -42 24 -54 12 -9 31 -32 40 -52 10 -20 24 -39 32
-42 8 -3 14 -11 14 -18 0 -7 7 -18 15 -25 8 -7 15 -27 15 -46 0 -18 4 -35 9
-38 5 -3 12 -36 16 -73 4 -38 14 -86 22 -108 44 -121 63 -179 58 -183 -3 -3 1
-15 8 -26 8 -12 16 -38 20 -58 3 -21 15 -47 25 -59 11 -11 30 -49 42 -82 12
-34 34 -96 50 -137 80 -206 114 -344 125 -505 3 -54 8 -101 10 -105 8 -14 19
-488 14 -605 -1 -11 1 -59 5 -107 3 -49 2 -88 -2 -88 -5 0 -8 -41 -7 -90 1
-65 -2 -93 -12 -101 -7 -6 -10 -16 -6 -22 9 -15 10 -67 1 -67 -5 0 -8 -11 -8
-25 0 -32 -37 -106 -61 -123 -11 -7 -19 -20 -19 -28 0 -8 -4 -14 -9 -14 -5 0
-11 -13 -14 -29 -3 -16 -14 -31 -24 -33 -11 -3 -26 -26 -37 -57 -10 -29 -25
-55 -32 -58 -8 -3 -14 -15 -14 -27 0 -30 -44 -112 -59 -109 -6 2 -11 -7 -11
-20 -1 -21 -1 -21 -15 -3 -13 17 -18 18 -40 8 -16 -7 -24 -17 -20 -25 4 -6 -4
0 -17 14 -13 15 -30 28 -38 31 -10 3 -15 18 -15 49 0 34 -4 44 -17 47 -12 2
-18 -3 -18 -17 0 -11 -4 -23 -10 -26 -5 -3 -10 -18 -10 -33 -1 -26 -1 -26 -15
-8 -8 11 -15 14 -15 8 0 -8 -9 -10 -27 -6 -25 6 -26 5 -15 -8 7 -9 12 -20 10
-24 -1 -5 4 -19 11 -32 7 -13 13 -50 14 -83 l2 -60 -24 27 c-23 28 -24 28 -16
4 l7 -25 -28 25 c-16 14 -23 18 -16 10 6 -8 12 -24 12 -37 0 -27 -24 -30 -54
-8 -17 13 -20 12 -31 -9 -7 -12 -10 -37 -7 -54 2 -19 0 -32 -7 -32 -16 0 -25
48 -12 64 13 16 1 29 -16 18 -7 -5 -8 -24 -3 -57 4 -27 6 -52 4 -54 -2 -2 -16
7 -32 21 -24 20 -27 28 -20 53 4 17 3 34 -2 39 -7 7 -10 6 -10 -2 0 -7 -6 -12
-12 -12 -8 0 -13 -13 -14 -30 -1 -36 -41 -80 -50 -57 -3 8 -4 27 -2 42 2 21
-2 29 -20 36 -22 8 -22 8 -8 -12 13 -19 13 -24 0 -36 -7 -8 -18 -11 -24 -8 -5
3 -10 -3 -10 -14 0 -16 -7 -21 -27 -22 l-28 0 23 -16 c25 -18 30 -38 6 -29 -9
4 -23 1 -31 -5 -7 -7 -27 -12 -43 -11 -27 1 -29 -1 -19 -20 13 -24 3 -92 -12
-82 -6 3 -8 13 -5 21 5 11 2 13 -10 9 -11 -4 -14 -1 -13 12 4 22 -10 62 -20
62 -14 0 -32 -27 -29 -41 2 -9 -4 -13 -14 -11 -11 2 -18 -3 -18 -14 0 -11 -6
-15 -20 -11 -11 3 -20 1 -20 -5 0 -5 -4 -6 -10 -3 -5 3 -10 15 -10 26 0 10 -3
19 -7 20 -5 0 -21 2 -38 5 -16 2 -39 4 -50 4 -29 1 -45 19 -45 50 0 39 -9 60
-27 60 -12 0 -14 7 -10 30 8 35 0 60 -18 60 -15 0 -50 63 -38 68 33 11 37 21
25 55 -7 18 -12 42 -13 53 0 18 -1 18 -9 -1 -8 -19 -9 -19 -9 2 -1 18 6 23 37
28 20 3 45 11 55 16 12 7 29 6 52 -2 39 -14 46 -11 49 24 0 14 5 23 10 20 4
-3 19 7 32 22 15 17 29 25 39 21 11 -4 19 2 25 19 5 14 16 25 23 25 8 0 14 6
14 13 0 6 4 19 7 28 6 13 0 18 -26 23 -62 13 -173 27 -203 27 -55 -1 -196 11
-192 16 3 2 -6 16 -20 31 -14 15 -30 39 -35 55 -6 15 -16 27 -24 27 -10 0 -14
10 -12 35 2 36 17 49 19 18 1 -10 5 0 8 22 8 50 33 64 126 66 39 1 85 8 103
16 70 29 223 42 369 31 76 -5 146 -14 156 -19 10 -5 22 -7 27 -4 5 3 25 6 45
7 42 1 52 16 35 48 -12 22 -31 23 -95 7 -26 -6 -126 11 -143 25 -7 6 -15 8
-18 5 -3 -3 -30 3 -60 13 -30 11 -54 16 -54 12 0 -3 -5 -1 -12 6 -16 16 -51
16 -45 0 2 -7 -3 -18 -11 -24 -17 -13 -55 -7 -46 7 3 5 -2 9 -10 9 -9 0 -16
-5 -16 -11 0 -6 -13 -8 -30 -5 -30 4 -42 -8 -17 -17 6 -3 2 -6 -11 -6 -16 -1
-21 3 -16 12 3 6 -5 0 -20 -15 -24 -25 -50 -28 -66 -8 -7 9 -76 40 -89 40 -5
0 -14 6 -18 14 -7 12 -32 17 -115 25 -12 1 -9 34 6 53 7 10 16 15 19 12 3 -3
13 10 21 30 8 20 19 36 23 36 4 0 17 7 27 15 19 15 19 15 -2 35 -25 24 -27 36
-8 47 19 11 36 47 28 60 -4 6 -5 34 -4 62 4 45 7 51 26 51 23 0 88 61 99 93 5
13 1 17 -20 17 -42 0 -99 67 -113 135 -6 30 -15 55 -18 55 -10 0 -29 68 -33
120 -8 102 -3 163 22 294 6 35 6 52 -1 54 -29 10 -40 36 -41 95 0 34 -2 71 -4
82 -2 11 -11 79 -19 150 -7 72 -17 141 -21 155 -4 14 -9 36 -12 50 -3 14 -10
30 -15 36 -4 6 -6 18 -3 26 9 23 -19 51 -43 44 -19 -6 -21 -12 -16 -50 4 -24
2 -46 -3 -49 -11 -7 -74 6 -73 16 1 23 -2 27 -22 27 -12 0 -18 3 -15 6 4 4 -8
15 -26 24 -25 13 -33 25 -35 51 -2 19 -13 44 -24 56 -12 13 -19 26 -15 29 9
10 -16 32 -31 27 -8 -3 -10 0 -6 10 7 18 -13 25 -81 28 -65 3 -75 7 -75 31 0
10 -4 16 -10 13 -5 -3 -10 -2 -10 4 0 6 -11 13 -25 17 -14 3 -25 9 -25 13 0 8
31 36 45 39 6 1 9 14 8 27 -1 14 2 25 8 25 11 0 69 54 69 64 0 4 -4 4 -10 1
-6 -4 -10 8 -10 28 0 26 5 36 20 40 13 3 18 12 15 24 -3 16 1 19 21 15 19 -3
23 -1 18 12 -3 9 -1 16 4 16 6 0 13 8 16 18 4 13 17 17 52 18 25 1 50 7 54 14
6 9 10 8 18 -6 9 -16 14 -17 44 -7 35 13 62 18 143 28 48 5 52 4 90 -33 57
-55 73 -62 104 -49 14 7 32 20 40 30 8 11 21 17 32 14 11 -3 21 -2 24 3 2 4
24 3 47 -2 62 -13 102 -16 132 -11 28 6 37 33 11 33 -21 0 -29 24 -17 47 9 15
22 17 84 15 40 -2 77 -8 83 -13 13 -12 62 -11 70 2 4 5 18 14 32 20 13 5 22
13 19 18 -13 20 26 41 76 41 34 0 58 6 70 17 11 9 31 17 45 18 31 0 45 25 14
25 -15 0 -19 5 -15 24 6 33 -7 39 -50 21 -23 -10 -50 -13 -70 -9 -28 5 -34 10
-32 30 0 13 5 24 9 24 4 0 4 8 -1 18 -16 30 -4 37 72 39 71 1 75 0 111 -33z
m1482 -116 c-3 -8 -6 -5 -6 6 -1 11 2 17 5 13 3 -3 4 -12 1 -19z m-2462 -28
c3 -5 21 -10 38 -11 l32 -1 -32 -9 c-18 -5 -33 -14 -33 -20 0 -6 -8 -9 -17 -8
-22 3 -63 -10 -63 -20 0 -7 -110 -3 -118 4 -2 1 0 14 3 28 6 22 15 27 58 34
81 14 125 15 132 3z m2275 -81 c0 -6 -4 -7 -10 -4 -5 3 -10 11 -10 16 0 6 5 7
10 4 6 -3 10 -11 10 -16z m-2534 -10 c0 -11 -12 -23 -28 -30 -18 -7 -28 -19
-28 -33 0 -19 -6 -21 -48 -20 -31 0 -51 -5 -59 -15 -11 -14 -12 -13 -13 5 0
11 9 30 21 43 12 12 19 25 15 28 -8 8 20 33 37 33 9 0 17 -4 19 -8 2 -5 15
-12 31 -16 22 -5 27 -3 27 12 0 10 6 19 13 19 7 0 13 -8 13 -18z m2481 -1 c-3
-8 -6 -5 -6 6 -1 11 2 17 5 13 3 -3 4 -12 1 -19z m490 -10 c-3 -8 -6 -5 -6 6
-1 11 2 17 5 13 3 -3 4 -12 1 -19z m23 -106 c0 -15 -2 -15 -10 -2 -13 20 -13
33 0 25 6 -3 10 -14 10 -23z m167 -109 c-3 -10 -5 -4 -5 12 0 17 2 24 5 18 2
-7 2 -21 0 -30z m-40 -15 c-3 -7 -5 -2 -5 12 0 14 2 19 5 13 2 -7 2 -19 0 -25z
m-190 -40 c-3 -7 -5 -2 -5 12 0 14 2 19 5 13 2 -7 2 -19 0 -25z m-40 -10 c-3
-8 -6 -5 -6 6 -1 11 2 17 5 13 3 -3 4 -12 1 -19z m-50 -10 c-3 -8 -6 -5 -6 6
-1 11 2 17 5 13 3 -3 4 -12 1 -19z m30 -35 c-3 -10 -5 -4 -5 12 0 17 2 24 5
18 2 -7 2 -21 0 -30z m90 15 c-3 -8 -6 -5 -6 6 -1 11 2 17 5 13 3 -3 4 -12 1
-19z m147 -3 c3 -8 1 -15 -4 -15 -6 0 -10 7 -10 15 0 8 2 15 4 15 2 0 6 -7 10
-15z m-677 -27 c-3 -8 -6 -5 -6 6 -1 11 2 17 5 13 3 -3 4 -12 1 -19z m540 -60
c-3 -8 -6 -5 -6 6 -1 11 2 17 5 13 3 -3 4 -12 1 -19z m-90 -30 c-3 -8 -6 -5
-6 6 -1 11 2 17 5 13 3 -3 4 -12 1 -19z m-80 -90 c-3 -8 -6 -5 -6 6 -1 11 2
17 5 13 3 -3 4 -12 1 -19z m530 -65 c-3 -10 -5 -4 -5 12 0 17 2 24 5 18 2 -7
2 -21 0 -30z m-140 -175 c-3 -8 -6 -5 -6 6 -1 11 2 17 5 13 3 -3 4 -12 1 -19z
m-720 -10 c-3 -8 -6 -5 -6 6 -1 11 2 17 5 13 3 -3 4 -12 1 -19z m420 -20 c-3
-8 -6 -5 -6 6 -1 11 2 17 5 13 3 -3 4 -12 1 -19z m-550 -20 c-3 -8 -6 -5 -6 6
-1 11 2 17 5 13 3 -3 4 -12 1 -19z m670 -10 c-3 -7 -5 -2 -5 12 0 14 2 19 5
13 2 -7 2 -19 0 -25z m290 0 c-3 -8 -6 -5 -6 6 -1 11 2 17 5 13 3 -3 4 -12 1
-19z m-23 5 c-5 -5 -12 -12 -16 -18 -4 -6 -8 -2 -8 8 0 9 7 17 17 17 9 0 12
-3 7 -7z m-155 -56 c0 -21 -1 -21 -9 -2 -12 28 -12 37 0 30 6 -3 10 -16 9 -28z
m-3348 -12 c29 -9 146 -138 185 -203 35 -60 21 -73 -43 -44 -44 21 -60 22
-179 18 -72 -2 -135 -1 -141 2 -5 4 -13 19 -16 33 -7 29 5 45 52 66 23 10 20
11 -36 12 -58 1 -63 3 -63 24 0 18 2 19 10 7 7 -11 10 -4 10 26 0 44 13 62 50
69 13 2 24 6 26 8 4 4 120 -11 145 -18z m3026 -67 c-3 -7 -5 -2 -5 12 0 14 2
19 5 13 2 -7 2 -19 0 -25z m-200 -60 c-3 -8 -6 -5 -6 6 -1 11 2 17 5 13 3 -3
4 -12 1 -19z m200 -50 c-3 -8 -6 -5 -6 6 -1 11 2 17 5 13 3 -3 4 -12 1 -19z
m-50 -80 c-3 -8 -6 -5 -6 6 -1 11 2 17 5 13 3 -3 4 -12 1 -19z m-3027 -27 c0
-18 -17 -20 -36 -6 -18 14 -18 14 9 15 15 0 27 -4 27 -9z m132 -8 c10 -9 18
-21 18 -28 0 -11 -74 -65 -88 -65 -4 0 -7 25 -7 55 0 54 0 55 29 55 16 0 38
-7 48 -17z m3135 -5 c-3 -8 -6 -5 -6 6 -1 11 2 17 5 13 3 -3 4 -12 1 -19z
m276 -28 c3 -11 1 -18 -4 -14 -5 3 -9 12 -9 20 0 20 7 17 13 -6z m-166 -32
c-3 -8 -6 -5 -6 6 -1 11 2 17 5 13 3 -3 4 -12 1 -19z m30 -10 c-3 -7 -5 -2 -5
12 0 14 2 19 5 13 2 -7 2 -19 0 -25z m-120 0 c-3 -8 -6 -5 -6 6 -1 11 2 17 5
13 3 -3 4 -12 1 -19z m-851 -33 c-3 -9 -11 -13 -16 -10 -8 5 -7 11 1 21 14 18
24 11 15 -11z m374 -25 c0 -13 -1 -13 -10 0 -5 8 -10 22 -10 30 0 13 1 13 10
0 5 -8 10 -22 10 -30z m127 18 c-3 -8 -6 -5 -6 6 -1 11 2 17 5 13 3 -3 4 -12
1 -19z m-353 -44 c3 -8 2 -12 -4 -9 -6 3 -10 10 -10 16 0 14 7 11 14 -7z
m1013 -16 c-3 -8 -6 -5 -6 6 -1 11 2 17 5 13 3 -3 4 -12 1 -19z m-766 -34 c-5
-16 -10 -24 -10 -17 -1 6 -4 19 -8 29 -4 12 -3 15 5 10 7 -4 12 -2 12 5 0 7 2
10 5 8 2 -3 0 -18 -4 -35z m466 4 c-3 -8 -6 -5 -6 6 -1 11 2 17 5 13 3 -3 4
-12 1 -19z m-50 -10 c-3 -8 -6 -5 -6 6 -1 11 2 17 5 13 3 -3 4 -12 1 -19z
m-3110 -8 c14 0 14 -3 -2 -20 -10 -11 -21 -18 -24 -15 -3 4 1 10 9 15 10 7 11
10 3 10 -7 0 -13 8 -12 18 0 10 3 12 6 5 2 -7 12 -13 20 -13z m3073 -12 c0
-18 -2 -19 -16 -7 -10 8 -12 15 -5 17 6 2 8 9 5 14 -4 7 -2 8 4 4 7 -4 12 -16
12 -28z m-465 13 c3 -5 1 -12 -5 -16 -5 -3 -10 1 -10 9 0 18 6 21 15 7z m412
-13 c-3 -8 -6 -5 -6 6 -1 11 2 17 5 13 3 -3 4 -12 1 -19z m-3073 -20 c-1 -13
-3 -27 -3 -31 -1 -5 -6 -5 -12 -2 -6 4 -10 1 -8 -6 4 -31 -2 -60 -10 -55 -5 4
-12 -7 -16 -24 -4 -16 -13 -30 -20 -30 -7 0 -16 -6 -18 -12 -3 -8 -6 -6 -6 5
-1 9 -6 17 -12 17 -5 0 -7 5 -4 10 3 6 -1 10 -11 10 -15 0 -15 -2 1 -27 16
-24 16 -26 1 -20 -15 6 -15 4 1 -18 10 -13 23 -23 30 -20 27 9 42 -20 45 -92
2 -39 6 -69 11 -66 4 2 7 -8 7 -24 0 -15 7 -61 15 -100 8 -40 15 -76 14 -80
-4 -22 3 -34 24 -44 35 -16 66 -72 62 -109 -3 -18 -6 -34 -7 -36 -161 -183
-191 -213 -220 -219 -21 -5 -27 -2 -33 14 -4 14 -15 21 -31 21 -15 0 -24 6
-24 15 0 8 -7 15 -15 15 -13 0 -41 69 -38 97 0 6 -5 14 -13 17 -8 3 -11 -2 -9
-15 2 -10 0 -19 -5 -19 -5 0 -7 17 -4 38 10 67 10 127 2 138 -5 7 -18 10 -28
7 -14 -4 -20 0 -20 11 0 9 5 16 10 16 6 0 10 14 10 30 0 17 -4 30 -10 30 -5 0
-10 7 -10 16 0 8 -4 12 -10 9 -5 -3 -10 0 -10 7 0 7 -11 26 -25 42 -14 16 -25
32 -25 36 0 5 -11 11 -25 14 -14 4 -25 12 -25 19 0 8 -14 29 -31 48 -37 42
-36 81 3 124 15 17 28 40 28 53 0 13 6 22 13 21 43 -5 75 2 80 20 5 21 53 32
85 20 13 -5 25 -3 32 6 11 14 27 15 47 2 8 -5 11 -1 8 14 -4 17 -2 20 7 11 17
-17 38 -15 38 3 0 8 7 15 15 15 7 0 19 8 25 18 8 12 13 13 16 5 6 -13 44 25
58 57 3 8 4 5 2 -7 -2 -13 1 -26 6 -30 7 -3 8 -1 4 5 -4 6 2 20 14 32 25 25
27 25 24 -2z m2893 -20 c-3 -8 -6 -5 -6 6 -1 11 2 17 5 13 3 -3 4 -12 1 -19z
m90 0 c-3 -8 -6 -5 -6 6 -1 11 2 17 5 13 3 -3 4 -12 1 -19z m471 -13 c-3 -3
-9 2 -12 12 -6 14 -5 15 5 6 7 -7 10 -15 7 -18z m-391 -17 c-3 -7 -5 -2 -5 12
0 14 2 19 5 13 2 -7 2 -19 0 -25z m363 18 c0 -8 -7 -16 -15 -20 -10 -4 -15 1
-15 14 0 11 7 20 15 20 8 0 15 -6 15 -14z m-110 -24 c0 -15 -2 -15 -10 -2 -13
20 -13 33 0 25 6 -3 10 -14 10 -23z m-38 -25 c-5 -20 -6 -20 -13 -1 -11 29
-10 34 5 28 8 -3 12 -13 8 -27z m245 11 c-3 -8 -6 -5 -6 6 -1 11 2 17 5 13 3
-3 4 -12 1 -19z m-850 -10 c-3 -8 -6 -5 -6 6 -1 11 2 17 5 13 3 -3 4 -12 1
-19z m760 -10 c-3 -7 -5 -2 -5 12 0 14 2 19 5 13 2 -7 2 -19 0 -25z m-209 -9
c-3 -8 -7 -3 -11 10 -4 17 -3 21 5 13 5 -5 8 -16 6 -23z m82 -14 c0 -5 -5 -3
-10 5 -5 8 -10 20 -10 25 0 6 5 3 10 -5 5 -8 10 -19 10 -25z m-346 -14 c-5
-22 -10 -29 -17 -22 -7 7 -6 18 3 36 17 32 22 27 14 -14z m126 30 c0 -5 3 -17
7 -27 4 -11 3 -15 -4 -11 -14 9 -24 47 -12 47 5 0 9 -4 9 -9z m117 -23 c-3 -7
-5 -2 -5 12 0 14 2 19 5 13 2 -7 2 -19 0 -25z m293 -12 c0 -6 -5 -4 -10 4 -9
13 -10 13 -10 0 -1 -12 -3 -11 -11 3 -15 25 1 45 18 22 7 -11 13 -24 13 -29z
m-430 12 c0 -6 -3 -9 -6 -5 -9 8 -31 -15 -37 -39 -4 -16 -5 -15 -6 5 0 13 7
30 17 37 21 17 32 17 32 2z m110 5 c0 -5 -5 -15 -10 -23 -8 -12 -10 -11 -10 8
0 12 5 22 10 22 6 0 10 -3 10 -7z m267 -25 c-3 -8 -6 -5 -6 6 -1 11 2 17 5 13
3 -3 4 -12 1 -19z m-20 -20 c-3 -7 -5 -2 -5 12 0 14 2 19 5 13 2 -7 2 -19 0
-25z m-37 -3 c0 -21 -2 -24 -13 -13 -10 9 -11 16 -3 25 15 17 16 16 16 -12z
m-523 -7 c-3 -8 -6 -5 -6 6 -1 11 2 17 5 13 3 -3 4 -12 1 -19z m450 -10 c-3
-7 -5 -2 -5 12 0 14 2 19 5 13 2 -7 2 -19 0 -25z m33 0 c0 -5 -4 -8 -10 -8 -5
0 -10 10 -10 23 0 18 2 19 10 7 5 -8 10 -18 10 -22z m-153 -15 c-3 -10 -5 -4
-5 12 0 17 2 24 5 18 2 -7 2 -21 0 -30z m260 15 c-3 -8 -6 -5 -6 6 -1 11 2 17
5 13 3 -3 4 -12 1 -19z m-810 -30 c-3 -8 -6 -5 -6 6 -1 11 2 17 5 13 3 -3 4
-12 1 -19z m110 0 c-3 -8 -6 -5 -6 6 -1 11 2 17 5 13 3 -3 4 -12 1 -19z m400
0 c-3 -8 -6 -5 -6 6 -1 11 2 17 5 13 3 -3 4 -12 1 -19z m330 0 c-3 -8 -6 -5
-6 6 -1 11 2 17 5 13 3 -3 4 -12 1 -19z m53 17 c0 -2 -7 -8 -15 -15 -12 -10
-15 -10 -15 2 0 8 7 15 15 15 8 0 15 -1 15 -2z m-87 -30 c-7 -21 -13 -19 -13
6 0 11 4 18 10 14 5 -3 7 -12 3 -20z m-26 -7 c-3 -8 -6 -5 -6 6 -1 11 2 17 5
13 3 -3 4 -12 1 -19z m-64 -8 c3 -11 1 -20 -4 -20 -5 0 -9 9 -9 20 0 11 2 20
4 20 2 0 6 -9 9 -20z m47 4 c0 -8 -5 -12 -10 -9 -6 4 -8 11 -5 16 9 14 15 11
15 -7z m-96 -10 c3 -8 2 -12 -4 -9 -6 3 -10 10 -10 16 0 14 7 11 14 -7z m23
-16 c-3 -7 -5 -2 -5 12 0 14 2 19 5 13 2 -7 2 -19 0 -25z m-107 -16 c0 -21 -2
-24 -10 -12 -13 20 -13 53 0 45 6 -3 10 -18 10 -33z m60 27 c0 -4 -7 -9 -15
-13 -9 -3 -15 0 -15 8 0 7 7 13 15 13 8 0 15 -4 15 -8z m-333 -31 c-3 -7 -5
-2 -5 12 0 14 2 19 5 13 2 -7 2 -19 0 -25z m223 5 c0 -22 -2 -25 -10 -13 -13
20 -13 40 0 40 6 0 10 -12 10 -27z m-26 -9 c3 -8 2 -12 -4 -9 -6 3 -10 0 -10
-7 0 -9 -3 -9 -10 2 -14 21 -12 30 4 30 8 0 17 -7 20 -16z m-110 -20 c3 -8 2
-12 -4 -9 -6 3 -10 10 -10 16 0 14 7 11 14 -7z m26 -4 c0 -11 -2 -20 -4 -20
-2 0 -6 9 -9 20 -3 11 -1 20 4 20 5 0 9 -9 9 -20z m17 -2 c-3 -8 -6 -5 -6 6
-1 11 2 17 5 13 3 -3 4 -12 1 -19z m343 1 c0 -6 -4 -7 -10 -4 -5 3 -10 11 -10
16 0 6 5 7 10 4 6 -3 10 -11 10 -16z m80 -20 c0 -10 -4 -20 -8 -23 -14 -9 -31
9 -27 29 2 11 4 24 4 29 2 16 31 -16 31 -35z m-773 9 c-3 -8 -6 -5 -6 6 -1 11
2 17 5 13 3 -3 4 -12 1 -19z m260 0 c-3 -8 -6 -5 -6 6 -1 11 2 17 5 13 3 -3 4
-12 1 -19z m403 18 c0 -2 -7 -6 -15 -10 -8 -3 -15 -1 -15 4 0 6 7 10 15 10 8
0 15 -2 15 -4z m-493 -43 c-3 -10 -5 -4 -5 12 0 17 2 24 5 18 2 -7 2 -21 0
-30z m381 12 c-3 -3 -9 2 -12 12 -6 14 -5 15 5 6 7 -7 10 -15 7 -18z m49 3
c-3 -8 -6 -5 -6 6 -1 11 2 17 5 13 3 -3 4 -12 1 -19z m-377 2 c0 -5 -2 -10 -4
-10 -3 0 -8 5 -11 10 -3 6 -1 10 4 10 6 0 11 -4 11 -10z m300 -6 c0 -2 -7 -4
-15 -4 -8 0 -15 4 -15 10 0 5 7 7 15 4 8 -4 15 -8 15 -10z m200 -10 c0 -8 -4
-12 -10 -9 -5 3 -10 13 -10 21 0 8 5 12 10 9 6 -3 10 -13 10 -21z m-84 -13
c-13 -14 -17 -32 -14 -60 2 -21 0 -37 -4 -35 -5 3 -8 -2 -8 -11 0 -9 -4 -14
-9 -10 -5 3 -16 -1 -24 -9 -17 -17 -27 -11 -27 16 0 15 5 18 20 13 12 -4 20
-2 20 5 0 6 5 8 12 4 8 -5 9 5 4 36 -6 36 -3 45 15 61 28 24 38 16 15 -10z
m47 22 c7 -13 -13 -73 -23 -73 -12 0 -12 7 -4 49 6 29 18 40 27 24z m-623 -22
c5 -11 10 -30 9 -43 0 -17 -4 -12 -14 17 -7 22 -13 32 -14 22 -1 -10 -5 -15
-11 -12 -5 3 -10 1 -10 -5 0 -6 -4 -8 -10 -5 -5 3 -10 0 -11 -7 0 -7 -4 -4 -9
7 -13 30 -12 34 10 28 11 -3 20 0 20 6 0 18 29 12 40 -8z m397 -13 c-3 -7 -5
-2 -5 12 0 14 2 19 5 13 2 -7 2 -19 0 -25z m50 0 c-3 -8 -6 -5 -6 6 -1 11 2
17 5 13 3 -3 4 -12 1 -19z m76 2 c3 -11 1 -20 -4 -20 -5 0 -9 9 -9 20 0 11 2
20 4 20 2 0 6 -9 9 -20z m-213 -10 c0 -11 -2 -20 -4 -20 -2 0 -6 9 -9 20 -3
11 -1 20 4 20 5 0 9 -9 9 -20z m-460 -17 c0 -22 -2 -25 -10 -13 -13 20 -13 40
0 40 6 0 10 -12 10 -27z m197 5 c-3 -8 -6 -5 -6 6 -1 11 2 17 5 13 3 -3 4 -12
1 -19z m209 -24 c-4 -20 -10 -34 -12 -31 -3 3 -2 21 2 41 3 21 9 35 11 32 3
-3 2 -21 -1 -42z m-389 14 c-3 -8 -6 -5 -6 6 -1 11 2 17 5 13 3 -3 4 -12 1
-19z m498 13 c3 -5 1 -12 -5 -16 -5 -3 -10 1 -10 9 0 18 6 21 15 7z m285 -1
c0 -5 -2 -10 -4 -10 -3 0 -8 5 -11 10 -3 6 -1 10 4 10 6 0 11 -4 11 -10z
m-485 -40 c-4 -17 -9 -29 -12 -26 -3 2 -2 19 2 36 4 17 9 29 12 26 3 -2 2 -19
-2 -36z m52 8 c-3 -7 -5 -2 -5 12 0 14 2 19 5 13 2 -7 2 -19 0 -25z m123 17
c0 -8 -2 -15 -4 -15 -2 0 -6 7 -10 15 -3 8 -1 15 4 15 6 0 10 -7 10 -15z
m-563 -17 c-3 -8 -6 -5 -6 6 -1 11 2 17 5 13 3 -3 4 -12 1 -19z m350 0 c-3 -8
-6 -5 -6 6 -1 11 2 17 5 13 3 -3 4 -12 1 -19z m173 -6 c0 -15 -2 -15 -10 -2
-13 20 -13 33 0 25 6 -3 10 -14 10 -23z m170 7 c0 -5 -4 -9 -10 -9 -5 0 -10 7
-10 16 0 8 5 12 10 9 6 -3 10 -10 10 -16z m-663 -11 c-3 -8 -6 -5 -6 6 -1 11
2 17 5 13 3 -3 4 -12 1 -19z m713 6 c0 -8 -4 -12 -10 -9 -5 3 -10 10 -10 16 0
5 5 9 10 9 6 0 10 -7 10 -16z m120 -15 c0 -11 -4 -17 -10 -14 -5 3 -10 15 -10
26 0 11 5 17 10 14 6 -3 10 -15 10 -26z m40 11 c0 -11 -7 -20 -15 -20 -18 0
-19 12 -3 28 16 16 18 15 18 -8z m-93 -22 c-3 -8 -6 -5 -6 6 -1 11 2 17 5 13
3 -3 4 -12 1 -19z m-260 -10 c-3 -8 -6 -5 -6 6 -1 11 2 17 5 13 3 -3 4 -12 1
-19z m120 -20 c-3 -8 -6 -5 -6 6 -1 11 2 17 5 13 3 -3 4 -12 1 -19z m-57 -21
c0 -4 -4 -6 -9 -2 -5 3 -12 1 -16 -5 -10 -16 -24 -2 -18 19 4 17 8 18 24 8 10
-6 19 -15 19 -20z m20 13 c0 -11 -2 -20 -4 -20 -2 0 -6 9 -9 20 -3 11 -1 20 4
20 5 0 9 -9 9 -20z m290 -13 c0 -18 -2 -19 -10 -7 -13 20 -13 43 0 35 6 -3 10
-16 10 -28z m-39 14 c7 11 9 10 9 -3 0 -10 -7 -18 -15 -18 -8 0 -15 8 -14 18
0 12 2 13 6 3 5 -11 7 -11 14 0z m-344 -23 c-3 -8 -6 -5 -6 6 -1 11 2 17 5 13
3 -3 4 -12 1 -19z m183 -46 c0 -15 -2 -15 -10 -2 -13 20 -13 33 0 25 6 -3 10
-14 10 -23z m17 6 c-3 -8 -6 -5 -6 6 -1 11 2 17 5 13 3 -3 4 -12 1 -19z m-78
0 c-1 -7 -1 -24 0 -38 1 -20 3 -22 11 -10 7 11 10 7 10 -17 0 -17 -4 -34 -8
-37 -11 -6 -36 90 -27 104 9 14 16 13 14 -2z m-62 -30 c-3 -7 -5 -2 -5 12 0
14 2 19 5 13 2 -7 2 -19 0 -25z m304 -25 c-9 -16 -10 -16 -11 -1 0 9 3 25 7
35 7 16 8 17 11 1 2 -10 -1 -25 -7 -35z m-807 22 c3 -8 1 -15 -4 -15 -6 0 -10
7 -10 15 0 8 2 15 4 15 2 0 6 -7 10 -15z m533 -7 c-3 -8 -6 -5 -6 6 -1 11 2
17 5 13 3 -3 4 -12 1 -19z m232 -10 c-7 -13 -14 -18 -16 -11 -3 7 2 19 9 27
18 20 22 12 7 -16z m-48 -11 c-8 -8 -11 -7 -11 4 0 20 13 34 18 19 3 -7 -1
-17 -7 -23z m-764 1 c-3 -8 -6 -5 -6 6 -1 11 2 17 5 13 3 -3 4 -12 1 -19z
m730 0 c-3 -8 -6 -5 -6 6 -1 11 2 17 5 13 3 -3 4 -12 1 -19z m-520 -10 c-3 -8
-6 -5 -6 6 -1 11 2 17 5 13 3 -3 4 -12 1 -19z m53 7 c0 -8 -2 -15 -4 -15 -2 0
-6 7 -10 15 -3 8 -1 15 4 15 6 0 10 -7 10 -15z m414 -20 c-5 -20 -9 -23 -15
-13 -12 18 -11 31 1 23 6 -3 10 2 10 11 0 10 2 15 5 12 4 -3 3 -18 -1 -33z
m33 3 c-3 -7 -5 -2 -5 12 0 14 2 19 5 13 2 -7 2 -19 0 -25z m-567 7 c0 -2 -7
-8 -15 -15 -12 -10 -15 -10 -15 2 0 8 7 15 15 15 8 0 15 -1 15 -2z m447 -17
c-3 -8 -6 -5 -6 6 -1 11 2 17 5 13 3 -3 4 -12 1 -19z m-300 -10 c-3 -8 -6 -5
-6 6 -1 11 2 17 5 13 3 -3 4 -12 1 -19z m280 0 c-3 -8 -6 -5 -6 6 -1 11 2 17
5 13 3 -3 4 -12 1 -19z m-327 -30 c0 -21 -3 -29 -10 -22 -5 5 -7 19 -4 32 9
31 14 27 14 -10z m290 16 c0 -8 -5 -12 -10 -9 -6 4 -8 11 -5 16 9 14 15 11 15
-7z m306 -29 c-3 -11 -6 -27 -6 -35 0 -13 -1 -13 -10 0 -9 13 -10 13 -10 0 -1
-12 -3 -11 -11 3 -6 9 -14 15 -20 12 -5 -4 -9 -2 -9 4 0 5 -3 17 -7 27 -4 11
-3 15 4 11 6 -4 14 -1 16 5 3 7 6 3 6 -9 1 -12 6 -25 13 -29 8 -5 9 2 5 24 -6
30 -5 31 14 19 13 -8 18 -19 15 -32z m-939 13 c-3 -8 -6 -5 -6 6 -1 11 2 17 5
13 3 -3 4 -12 1 -19z m53 7 c0 -8 -2 -15 -4 -15 -2 0 -6 7 -10 15 -3 8 -1 15
4 15 6 0 10 -7 10 -15z m747 -17 c-3 -8 -6 -5 -6 6 -1 11 2 17 5 13 3 -3 4
-12 1 -19z m50 -4 c-3 -4 -14 -3 -24 0 -15 6 -15 8 -3 16 16 10 39 -4 27 -16z
m128 8 c0 -7 -4 -12 -9 -11 -5 0 -13 -5 -17 -13 -6 -9 -9 -9 -9 -1 0 6 5 15
10 18 6 4 7 11 4 17 -4 6 -1 9 7 6 8 -3 14 -10 14 -16z m-528 -24 c-3 -7 -5
-2 -5 12 0 14 2 19 5 13 2 -7 2 -19 0 -25z m-550 -20 c-3 -8 -6 -5 -6 6 -1 11
2 17 5 13 3 -3 4 -12 1 -19z m772 -5 c0 -25 -1 -26 -9 -8 -12 27 -12 35 0 35
6 0 10 -12 9 -27z m165 11 c3 -8 2 -12 -4 -9 -6 3 -10 10 -10 16 0 14 7 11 14
-7z m-254 -15 c0 -5 -4 -9 -10 -9 -5 0 -10 7 -10 16 0 8 5 12 10 9 6 -3 10
-10 10 -16z m37 -1 c-3 -8 -6 -5 -6 6 -1 11 2 17 5 13 3 -3 4 -12 1 -19z m-90
-10 c-3 -8 -6 -5 -6 6 -1 11 2 17 5 13 3 -3 4 -12 1 -19z m-40 -20 c-3 -7 -5
-2 -5 12 0 14 2 19 5 13 2 -7 2 -19 0 -25z m-44 2 c3 -11 1 -18 -4 -14 -5 3
-9 12 -9 20 0 20 7 17 13 -6z m-83 -23 c0 -5 -4 -5 -10 -2 -5 3 -10 14 -10 23
0 15 2 15 10 2 5 -8 10 -19 10 -23z m69 -12 c0 -5 -4 -3 -9 5 -5 8 -9 22 -9
30 0 16 17 -16 18 -35z m558 23 c-3 -8 -6 -5 -6 6 -1 11 2 17 5 13 3 -3 4 -12
1 -19z m-711 -15 c-3 -8 -6 -17 -6 -19 0 -3 -4 -2 -10 1 -17 11 -12 45 6 38 8
-3 13 -12 10 -20z m31 5 c-3 -8 -6 -5 -6 6 -1 11 2 17 5 13 3 -3 4 -12 1 -19z
m640 0 c-3 -8 -6 -5 -6 6 -1 11 2 17 5 13 3 -3 4 -12 1 -19z m-42 3 c3 -5 1
-12 -5 -16 -5 -3 -10 1 -10 9 0 18 6 21 15 7z m-656 -46 c0 -5 -4 -3 -9 5 -5
8 -9 22 -9 30 0 16 17 -16 18 -35z m520 5 c0 -10 -3 -8 -9 5 -12 27 -12 43 0
25 5 -8 9 -22 9 -30z m94 19 c-4 -16 -8 -17 -14 -7 -13 19 -11 28 5 28 9 0 12
-7 9 -21z m-717 -1 c4 -7 3 -8 -5 -4 -9 6 -10 0 -6 -21 5 -21 4 -24 -4 -13
-13 19 -14 50 -2 50 6 0 13 -5 17 -12z m57 -13 c2 -14 0 -22 -4 -19 -5 3 -9
13 -10 22 -1 10 -4 7 -8 -8 l-7 -25 -5 26 c-4 19 -1 25 12 26 10 1 19 -7 22
-22z m-113 -18 c0 -5 -4 -5 -10 -2 -6 3 -10 -4 -10 -16 0 -28 -5 -23 -14 14
-4 19 -3 26 4 22 5 -3 10 0 10 7 0 9 3 9 10 -2 5 -8 10 -19 10 -23z m630 13
c0 -11 -2 -20 -4 -20 -2 0 -6 9 -9 20 -3 11 -1 20 4 20 5 0 9 -9 9 -20z m-722
-25 c-3 -3 -9 2 -12 12 -6 14 -5 15 5 6 7 -7 10 -15 7 -18z m46 9 c9 -24 7
-28 -7 -15 -8 6 -17 8 -20 4 -4 -3 -7 -2 -7 4 0 25 25 30 34 7z m896 0 c0 -8
-4 -12 -10 -9 -5 3 -10 10 -10 16 0 5 5 9 10 9 6 0 10 -7 10 -16z m-313 -16
c-3 -8 -6 -5 -6 6 -1 11 2 17 5 13 3 -3 4 -12 1 -19z m273 -1 c0 -7 -9 -13
-20 -13 -11 0 -20 6 -20 14 0 7 5 10 10 7 6 -3 10 -1 10 5 0 6 5 8 10 5 6 -3
10 -12 10 -18z m-974 1 c4 -6 3 -8 -4 -4 -5 3 -13 0 -15 -6 -3 -8 -6 -6 -6 5
-1 19 14 23 25 5z m574 -21 c0 -18 -2 -19 -10 -7 -13 20 -13 43 0 35 6 -3 10
-16 10 -28z m260 -3 c0 -8 -4 -12 -10 -9 -5 3 -10 -2 -10 -11 0 -10 -2 -15 -5
-12 -9 9 6 58 16 52 5 -3 9 -12 9 -20z m29 -17 c1 -5 -3 -5 -9 -2 -5 3 -10 16
-9 28 0 21 1 21 9 2 5 -11 9 -24 9 -28z m21 22 c0 -6 -4 -7 -10 -4 -5 3 -10
11 -10 16 0 6 5 7 10 4 6 -3 10 -11 10 -16z m40 12 c0 -5 -7 -11 -15 -15 -15
-5 -20 5 -8 17 9 10 23 9 23 -2z m-403 -23 c-3 -8 -6 -5 -6 6 -1 11 2 17 5 13
3 -3 4 -12 1 -19z m444 -38 c5 0 9 8 10 18 0 13 3 12 11 -6 13 -26 10 -31 -27
-38 -25 -4 -27 -2 -21 18 3 13 6 30 7 38 1 8 4 5 6 -7 2 -13 9 -23 14 -23z
m-714 -2 c-3 -8 -6 -5 -6 6 -1 11 2 17 5 13 3 -3 4 -12 1 -19z m330 -10 c-3
-8 -6 -5 -6 6 -1 11 2 17 5 13 3 -3 4 -12 1 -19z m353 -49 c0 -15 -7 -32 -15
-39 -12 -10 -15 -10 -15 3 0 8 5 17 11 19 7 2 9 13 4 27 -6 18 -9 21 -16 10
-5 -8 -9 -9 -10 -4 0 6 -5 -1 -10 -15 -8 -22 -8 -21 -4 8 2 18 10 39 17 46 11
12 15 11 25 -8 7 -11 12 -33 13 -47z m-83 19 c-3 -7 -5 -2 -5 12 0 14 2 19 5
13 2 -7 2 -19 0 -25z m-310 -10 c-3 -8 -6 -5 -6 6 -1 11 2 17 5 13 3 -3 4 -12
1 -19z m480 -10 c-3 -8 -6 -5 -6 6 -1 11 2 17 5 13 3 -3 4 -12 1 -19z m-697
-23 c0 -5 -5 -3 -10 5 -5 8 -10 20 -10 25 0 6 5 3 10 -5 5 -8 10 -19 10 -25z
m177 13 c-3 -8 -6 -5 -6 6 -1 11 2 17 5 13 3 -3 4 -12 1 -19z m257 -17 c-5
-23 -9 -29 -15 -19 -5 7 -9 22 -9 33 0 17 2 17 10 5 8 -13 10 -12 10 4 0 11 2
17 5 14 3 -3 2 -19 -1 -37z m-53 20 c7 11 9 11 8 -1 -2 -25 -17 -66 -19 -50
-1 8 -3 26 -5 40 -2 14 -1 19 2 11 5 -11 7 -11 14 0z m-524 -23 c-3 -8 -6 -5
-6 6 -1 11 2 17 5 13 3 -3 4 -12 1 -19z m97 6 c3 -8 2 -12 -4 -9 -6 3 -10 10
-10 16 0 14 7 11 14 -7z m303 -16 c-3 -8 -6 -5 -6 6 -1 11 2 17 5 13 3 -3 4
-12 1 -19z m-547 -21 c0 -18 -2 -19 -10 -7 -13 20 -13 43 0 35 6 -3 10 -16 10
-28z m491 -13 c-5 -21 -9 -30 -10 -19 -1 24 10 67 15 62 3 -2 0 -22 -5 -43z
m36 4 c-3 -7 -5 -2 -5 12 0 14 2 19 5 13 2 -7 2 -19 0 -25z m-250 -20 c-3 -7
-5 -2 -5 12 0 14 2 19 5 13 2 -7 2 -19 0 -25z m380 -10 c-3 -8 -6 -5 -6 6 -1
11 2 17 5 13 3 -3 4 -12 1 -19z m-440 -10 c-3 -8 -6 -5 -6 6 -1 11 2 17 5 13
3 -3 4 -12 1 -19z m-199 -19 c-3 -8 -7 -3 -11 10 -4 17 -3 21 5 13 5 -5 8 -16
6 -23z m852 -6 c0 -24 -3 -33 -9 -25 -7 12 -4 62 5 62 2 0 4 -17 4 -37z m-311
-23 l-1 -25 -8 25 c-4 14 -8 32 -9 40 -1 13 0 13 9 0 5 -8 9 -26 9 -40z m-592
18 c-3 -8 -6 -5 -6 6 -1 11 2 17 5 13 3 -3 4 -12 1 -19z m773 12 c0 -5 -5 -10
-11 -10 -5 0 -7 5 -4 10 3 6 8 10 11 10 2 0 4 -4 4 -10z m46 -17 c-10 -10 -19
5 -10 18 6 11 8 11 12 0 2 -7 1 -15 -2 -18z m208 -7 c-3 -15 -8 -25 -11 -23
-2 3 -1 17 3 31 3 15 8 25 11 23 2 -3 1 -17 -3 -31z m53 12 c-3 -8 -6 -5 -6 6
-1 11 2 17 5 13 3 -3 4 -12 1 -19z m-1133 -3 c-4 -8 -8 -15 -10 -15 -2 0 -4 7
-4 15 0 8 4 15 10 15 5 0 7 -7 4 -15z m173 -17 c-3 -8 -6 -5 -6 6 -1 11 2 17
5 13 3 -3 4 -12 1 -19z m490 0 c-3 -8 -6 -5 -6 6 -1 11 2 17 5 13 3 -3 4 -12
1 -19z m450 -10 c-3 -7 -5 -2 -5 12 0 14 2 19 5 13 2 -7 2 -19 0 -25z m-297
-13 c0 -6 -7 -12 -15 -12 -8 0 -15 6 -15 12 0 6 7 12 15 12 8 0 15 -6 15 -12z
m-143 -27 c-3 -8 -6 -5 -6 6 -1 11 2 17 5 13 3 -3 4 -12 1 -19z m390 -10 c-3
-8 -6 -5 -6 6 -1 11 2 17 5 13 3 -3 4 -12 1 -19z m-520 -10 c-3 -8 -6 -5 -6 6
-1 11 2 17 5 13 3 -3 4 -12 1 -19z m503 1 c0 -6 -4 -7 -10 -4 -5 3 -10 11 -10
16 0 6 5 7 10 4 6 -3 10 -11 10 -16z m-90 -9 c0 -5 -2 -10 -4 -10 -3 0 -8 5
-11 10 -3 6 -1 10 4 10 6 0 11 -4 11 -10z m-123 -32 c-3 -7 -5 -2 -5 12 0 14
2 19 5 13 2 -7 2 -19 0 -25z m20 10 c-3 -8 -6 -5 -6 6 -1 11 2 17 5 13 3 -3 4
-12 1 -19z m240 -10 c-3 -8 -6 -5 -6 6 -1 11 2 17 5 13 3 -3 4 -12 1 -19z
m-39 -15 c16 -37 15 -43 -8 -43 -11 0 -20 7 -20 15 0 8 5 15 12 15 9 0 9 3 0
12 -13 13 -16 28 -4 28 4 0 13 -12 20 -27z m-350 -8 c-3 -3 -9 2 -12 12 -6 14
-5 15 5 6 7 -7 10 -15 7 -18z m109 -7 c-3 -7 -5 -2 -5 12 0 14 2 19 5 13 2 -7
2 -19 0 -25z m50 -10 c-3 -8 -6 -5 -6 6 -1 11 2 17 5 13 3 -3 4 -12 1 -19z
m53 12 c0 -5 -2 -10 -4 -10 -3 0 -8 5 -11 10 -3 6 -1 10 4 10 6 0 11 -4 11
-10z m167 -12 c-3 -8 -6 -5 -6 6 -1 11 2 17 5 13 3 -3 4 -12 1 -19z m-94 -20
c-6 -7 -9 -21 -8 -30 2 -10 -1 -18 -6 -18 -14 0 -11 58 4 63 17 6 22 0 10 -15z
m-3338 0 c19 -8 25 -17 21 -31 -3 -11 1 -29 8 -41 7 -12 10 -37 7 -60 -5 -35
-7 -37 -20 -23 -7 10 -23 17 -35 17 -26 1 -58 43 -58 77 0 13 10 35 22 49 27
28 22 27 55 12z m3242 -10 c-3 -8 -6 -5 -6 6 -1 11 2 17 5 13 3 -3 4 -12 1
-19z m222 -18 c0 -10 -3 -8 -9 5 -12 27 -12 43 0 25 5 -8 9 -22 9 -30z m-1082
-22 c-3 -8 -6 -5 -6 6 -1 11 2 17 5 13 3 -3 4 -12 1 -19z m710 0 c-3 -8 -6 -5
-6 6 -1 11 2 17 5 13 3 -3 4 -12 1 -19z m355 -33 c-2 -14 -8 -25 -13 -25 -14
0 -11 38 4 43 6 3 13 6 13 6 1 1 -1 -10 -4 -24z m-285 -67 c-3 -8 -6 -5 -6 6
-1 11 2 17 5 13 3 -3 4 -12 1 -19z m260 -10 c-3 -7 -5 -2 -5 12 0 14 2 19 5
13 2 -7 2 -19 0 -25z m-620 -20 c-3 -8 -6 -5 -6 6 -1 11 2 17 5 13 3 -3 4 -12
1 -19z m-10 -50 c-3 -8 -6 -5 -6 6 -1 11 2 17 5 13 3 -3 4 -12 1 -19z m90 0
c-3 -8 -6 -5 -6 6 -1 11 2 17 5 13 3 -3 4 -12 1 -19z m-630 -10 c-3 -8 -6 -5
-6 6 -1 11 2 17 5 13 3 -3 4 -12 1 -19z m423 -3 c5 3 11 1 15 -5 3 -5 -3 -10
-14 -10 -14 0 -21 6 -20 18 0 10 3 12 6 4 2 -6 9 -10 13 -7z m627 -17 c-3 -8
-6 -5 -6 6 -1 11 2 17 5 13 3 -3 4 -12 1 -19z m-677 -3 c0 -8 -2 -15 -4 -15
-2 0 -6 7 -10 15 -3 8 -1 15 4 15 6 0 10 -7 10 -15z m-130 -11 c0 -8 -4 -12
-10 -9 -5 3 -10 10 -10 16 0 5 5 9 10 9 6 0 10 -7 10 -16z m-130 -32 c0 -15
-2 -15 -10 -2 -13 20 -13 33 0 25 6 -3 10 -14 10 -23z m497 -4 c-3 -8 -6 -5
-6 6 -1 11 2 17 5 13 3 -3 4 -12 1 -19z m-260 -13 c-7 -13 -14 -20 -15 -14 -5
14 6 39 17 39 5 0 4 -11 -2 -25z m173 6 c0 -10 -7 -21 -15 -25 -9 -3 -15 0
-15 10 0 9 5 12 12 8 8 -5 9 -2 5 9 -3 10 -2 17 3 17 6 0 10 -9 10 -19z m17
-13 c-3 -8 -6 -5 -6 6 -1 11 2 17 5 13 3 -3 4 -12 1 -19z m-565 -29 l-9 -24
-8 24 c-5 16 -3 26 6 32 18 11 22 -1 11 -32z m75 19 c-3 -8 -6 -5 -6 6 -1 11
2 17 5 13 3 -3 4 -12 1 -19z m263 -14 c6 19 7 19 12 -1 4 -15 1 -20 -11 -18
-9 1 -16 8 -17 16 -1 10 0 10 4 -1 4 -12 6 -11 12 4z m-180 -13 c0 -6 -4 -13
-10 -16 -5 -3 -10 1 -10 9 0 9 5 16 10 16 6 0 10 -4 10 -9z m-39 -14 c-1 -4
-1 -15 -1 -24 0 -15 -2 -16 -10 -3 -13 20 -13 43 1 38 6 -2 10 -7 10 -11z
m-54 -29 c-3 -7 -5 -2 -5 12 0 14 2 19 5 13 2 -7 2 -19 0 -25z m320 -10 c-3
-8 -6 -5 -6 6 -1 11 2 17 5 13 3 -3 4 -12 1 -19z m160 -10 c-3 -7 -5 -2 -5 12
0 14 2 19 5 13 2 -7 2 -19 0 -25z m180 10 c-3 -8 -6 -5 -6 6 -1 11 2 17 5 13
3 -3 4 -12 1 -19z m-520 -10 c-3 -8 -6 -5 -6 6 -1 11 2 17 5 13 3 -3 4 -12 1
-19z m250 0 c-3 -8 -6 -5 -6 6 -1 11 2 17 5 13 3 -3 4 -12 1 -19z m-477 -20
c0 -5 -4 -8 -10 -8 -5 0 -10 10 -10 23 0 18 2 19 10 7 5 -8 10 -18 10 -22z
m170 11 c0 -5 -7 -9 -15 -9 -9 0 -12 6 -9 15 6 15 24 11 24 -6z m40 16 c0 -2
-7 -8 -15 -15 -12 -10 -15 -10 -15 2 0 8 7 15 15 15 8 0 15 -1 15 -2z m-356
-13 c3 -5 -1 -9 -9 -9 -8 0 -15 4 -15 9 0 4 4 8 9 8 6 0 12 -4 15 -8z m-432
-47 c-7 -36 -15 -35 -27 3 -6 20 -4 23 12 20 12 -2 17 -11 15 -23z m775 -7
c-3 -7 -5 -2 -5 12 0 14 2 19 5 13 2 -7 2 -19 0 -25z m-127 -9 c0 -11 -4 -17
-10 -14 -5 3 -10 15 -10 26 0 11 5 17 10 14 6 -3 10 -15 10 -26z m90 11 c0
-11 -7 -20 -15 -20 -17 0 -18 2 -9 24 9 23 24 20 24 -4z m107 -22 c-3 -7 -5
-2 -5 12 0 14 2 19 5 13 2 -7 2 -19 0 -25z m-277 -29 c0 -5 -5 -7 -12 -3 -8 5
-9 2 -5 -9 3 -10 2 -17 -3 -17 -6 0 -10 9 -10 20 0 11 7 20 15 20 8 0 15 -5
15 -11z m-906 -195 c6 -16 0 -34 -12 -34 -4 0 -7 11 -7 25 0 28 10 33 19 9z
m-3026 -351 c-16 -2 -40 -2 -55 0 -16 2 -3 4 27 4 30 0 43 -2 28 -4z m1828
-774 c3 -6 2 -15 -2 -19 -12 -12 -38 5 -30 19 9 14 23 14 32 0z m6 -61 c-9 -9
-15 -9 -24 0 -9 9 -7 12 12 12 19 0 21 -3 12 -12z m1004 -303 c4 -8 12 -15 19
-15 7 0 28 -21 46 -46 19 -25 43 -56 54 -67 37 -40 58 -97 36 -97 -5 0 -14 7
-21 15 -7 8 -20 15 -29 15 -9 0 -26 7 -37 15 -31 21 -94 132 -94 166 0 31 17
40 26 14z m1249 -934 c3 -5 1 -12 -5 -16 -5 -3 -10 1 -10 9 0 18 6 21 15 7z"/>
<path d="M5635 6685 c-16 -13 -36 -15 -100 -11 -128 8 -168 6 -205 -12 -28
-14 -34 -22 -32 -42 1 -14 -4 -30 -14 -37 -15 -11 -15 -17 -6 -38 9 -20 9 -30
0 -45 -7 -11 -16 -20 -20 -20 -5 0 -8 -7 -8 -15 0 -8 6 -15 13 -15 7 0 32 -9
55 -20 44 -22 87 -26 97 -10 4 6 17 4 36 -6 17 -8 40 -12 52 -9 18 5 17 3 -5
-12 -16 -10 -28 -24 -28 -31 0 -7 -4 -11 -9 -7 -5 3 -13 0 -17 -6 -4 -7 4 -22
19 -35 14 -12 23 -25 20 -28 -4 -3 -1 -6 5 -6 16 0 3 -31 -23 -55 -12 -11 -27
-29 -32 -40 -14 -25 -9 -133 6 -148 15 -15 14 -26 -4 -60 -16 -31 -18 -29 55
-48 25 -6 59 -25 77 -42 17 -17 43 -32 57 -34 14 -2 44 -10 67 -18 22 -8 46
-12 53 -8 6 4 20 6 31 5 20 -3 20 -2 1 13 -11 8 -28 15 -38 15 -35 0 -19 29
20 36 20 3 43 13 49 22 11 13 17 13 36 3 25 -13 157 -12 157 2 0 4 20 5 45 1
52 -7 128 4 120 17 -3 5 -2 17 4 26 21 40 -37 74 -133 80 -39 2 -84 8 -101 13
-16 5 -63 14 -104 20 -69 10 -111 29 -140 64 -10 12 -8 17 11 27 13 8 26 14
31 15 4 1 10 3 15 4 4 1 -18 10 -48 19 -45 14 -55 21 -54 39 0 17 -2 19 -13
11 -10 -9 -13 -8 -13 1 0 7 -8 10 -20 7 -10 -3 -27 1 -36 8 -14 10 -15 17 -6
44 9 26 9 33 -3 38 -8 3 -15 10 -15 15 0 6 6 6 14 -1 12 -10 17 -8 26 8 8 16
8 21 -2 21 -22 0 52 41 85 47 18 3 37 9 42 14 6 4 59 3 118 -1 60 -5 114 -7
122 -4 8 3 27 -3 42 -14 15 -10 51 -27 78 -36 28 -10 64 -26 80 -36 17 -11 51
-31 78 -45 31 -17 47 -32 47 -44 0 -11 9 -23 20 -26 13 -4 20 -15 20 -31 0
-23 3 -26 32 -28 35 -3 2 156 -48 229 -13 20 -22 40 -20 44 3 3 -26 40 -64 80
-57 61 -73 72 -97 70 -33 -3 -73 9 -73 21 0 13 -101 48 -159 56 -37 5 -51 3
-51 -6 0 -8 -7 -10 -17 -5 -10 4 -49 9 -88 11 -54 4 -75 1 -90 -11z m329 -704
c8 -12 -45 -34 -57 -22 -5 5 -6 14 -3 20 8 13 53 15 60 2z"/>
<path d="M5126 6532 c-2 -4 4 -14 15 -20 19 -12 19 -11 9 8 -12 22 -16 24 -24
12z"/>
<path d="M5334 5166 c-24 -22 -27 -27 -14 -36 8 -5 41 -10 73 -10 32 0 73 -6
92 -14 37 -16 45 -13 45 19 0 37 -33 57 -103 62 -57 5 -66 3 -93 -21z"/>
<path d="M5177 4929 c-8 -11 -13 -28 -10 -39 3 -10 0 -21 -7 -25 -7 -4 -8 -11
-2 -18 16 -21 21 -61 10 -75 -9 -10 -9 -15 0 -21 12 -7 5 -51 -7 -51 -13 0 -8
-29 4 -34 7 -2 23 1 36 8 13 7 45 18 72 25 26 8 50 18 53 22 3 5 23 9 44 9 29
0 42 5 50 19 13 25 13 88 0 96 -5 3 -10 1 -10 -4 0 -6 -11 -10 -25 -9 -16 2
-24 8 -22 18 1 10 -5 14 -20 13 -21 -2 -43 31 -29 44 3 4 -1 15 -11 25 -24 27
-107 25 -126 -3z"/>
<path d="M5370 4896 c0 -41 15 -54 38 -33 9 8 24 12 32 10 8 -3 -1 9 -20 25
-19 17 -38 31 -42 32 -5 0 -8 -15 -8 -34z"/>
<path d="M5445 4805 c0 -28 55 -88 55 -60 0 19 10 19 38 -1 13 -9 26 -14 29
-11 6 7 -66 81 -81 83 -6 1 -18 5 -26 8 -12 5 -16 0 -15 -19z"/>
<path d="M5616 4781 c-4 -5 -3 -28 0 -51 6 -34 10 -41 25 -37 12 3 20 -2 24
-14 9 -28 20 -23 23 11 2 22 -2 30 -14 30 -10 0 -14 6 -11 14 7 17 -38 62 -47
47z"/>
<path d="M5130 4736 c0 -2 7 -6 15 -10 8 -3 15 -1 15 4 0 6 -7 10 -15 10 -8 0
-15 -2 -15 -4z"/>
<path d="M5740 4728 c0 -4 5 -8 10 -8 6 0 10 -9 10 -19 0 -19 19 -41 21 -24 6
59 5 62 -18 61 -13 -2 -23 -6 -23 -10z"/>
<path d="M5930 4665 c12 -13 27 -22 32 -19 5 3 -2 14 -16 25 -34 27 -44 24
-16 -6z"/>
<path d="M5830 4669 c0 -4 7 -9 15 -13 24 -9 17 -26 -11 -26 -15 0 -33 8 -40
18 -12 15 -18 7 -12 -15 3 -10 69 -33 88 -31 8 0 23 -2 33 -7 20 -8 47 0 47
15 0 6 -8 13 -17 17 -10 3 -29 16 -43 28 -24 21 -60 30 -60 14z"/>
<path d="M5967 4615 c-4 -8 -3 -16 1 -19 4 -3 9 4 9 15 2 23 -3 25 -10 4z"/>
<path d="M6175 3930 c3 -5 11 -10 16 -10 6 0 7 5 4 10 -3 6 -11 10 -16 10 -6
0 -7 -4 -4 -10z"/>
<path d="M5991 3804 c0 -11 3 -14 6 -6 3 7 2 16 -1 19 -3 4 -6 -2 -5 -13z"/>
<path d="M6020 3801 c0 -5 5 -13 10 -16 6 -3 10 -2 10 4 0 5 -4 13 -10 16 -5
3 -10 2 -10 -4z"/>
<path d="M4320 5410 c-13 -8 -12 -10 3 -10 9 0 17 5 17 10 0 12 -1 12 -20 0z"/>
<path d="M7970 4756 c0 -9 7 -16 16 -16 9 0 14 5 12 12 -6 18 -28 21 -28 4z"/>
<path d="M7964 3756 c-10 -8 -23 -14 -27 -14 -8 0 -49 -15 -92 -32 -11 -5 -31
-11 -45 -13 -95 -19 -199 -50 -197 -59 1 -6 -13 -16 -30 -21 -18 -5 -33 -14
-33 -19 0 -14 87 -4 107 13 24 21 77 34 203 54 117 18 144 31 148 68 2 32 -9
40 -34 23z"/>
<path d="M6539 3556 c-9 -18 -8 -59 1 -158 20 -212 22 -275 11 -329 -12 -52
-47 -150 -81 -227 -15 -33 -20 -65 -20 -137 0 -93 0 -95 28 -109 24 -14 25
-15 6 -16 -24 0 -34 -18 -34 -57 0 -22 3 -24 29 -18 17 3 32 2 36 -4 3 -6 1
-11 -5 -11 -18 0 -58 -43 -70 -74 -11 -30 -5 -50 9 -27 5 7 17 11 27 9 16 -3
19 -11 16 -53 -5 -77 -9 -108 -17 -128 -4 -10 -5 -20 -2 -24 12 -11 -24 -64
-41 -61 -11 2 -18 -5 -20 -18 -2 -16 5 -26 27 -37 l31 -15 6 39 c6 38 17 49
29 29 3 -5 15 -10 26 -10 23 0 23 3 -1 -48 -11 -22 -20 -45 -20 -50 0 -10 60
-59 78 -64 19 -5 89 99 103 152 11 41 17 50 31 47 10 -3 22 2 27 10 16 29 29
3 47 -94 10 -54 23 -103 29 -110 12 -14 75 51 75 79 0 10 7 18 16 18 10 0 14
6 11 14 -3 8 7 28 24 45 16 17 29 28 29 24 0 -3 13 7 29 23 16 16 48 45 71 64
70 58 76 64 72 83 -2 12 3 17 17 17 12 0 20 5 18 12 -1 6 6 14 16 16 15 3 17
-1 11 -25 -4 -15 -13 -37 -20 -48 -8 -11 -14 -29 -14 -40 0 -12 -7 -30 -15
-41 -8 -10 -15 -26 -15 -35 0 -9 -9 -27 -20 -40 -12 -12 -29 -37 -40 -54 -10
-16 -37 -44 -58 -60 -39 -29 -79 -87 -134 -193 -15 -30 -33 -61 -40 -69 -17
-20 24 -53 167 -135 140 -79 203 -121 290 -195 39 -32 91 -73 117 -92 43 -31
48 -32 74 -20 15 8 35 30 45 49 23 42 25 24 4 -27 -20 -47 -20 -47 13 -59 45
-17 61 3 88 105 23 89 23 113 -2 138 -7 7 -15 31 -19 54 -8 46 -25 88 -55 134
-11 17 -24 39 -29 50 -8 19 -111 119 -165 160 -14 11 -26 25 -26 31 0 16 63
24 72 10 10 -16 170 -13 238 3 30 8 68 23 83 34 l28 19 52 -32 c29 -18 57 -33
62 -34 6 -1 27 -8 49 -15 28 -10 35 -16 25 -22 -10 -6 -8 -9 9 -9 18 0 22 5
22 34 0 32 -23 56 -35 37 -3 -5 -22 0 -42 10 -21 10 -43 19 -50 19 -7 0 -23 9
-35 21 -13 11 -36 31 -53 45 -29 24 -29 25 -5 18 14 -3 32 -12 40 -19 13 -11
56 -28 70 -28 3 0 11 -8 18 -19 7 -10 17 -16 21 -13 5 2 22 0 40 -5 30 -8 31
-8 31 24 0 32 0 32 -45 29 -38 -3 -50 1 -70 22 -14 13 -29 24 -33 22 -4 -1 -8
8 -10 20 -2 15 -8 20 -19 16 -11 -4 -14 -2 -9 5 5 8 2 10 -9 6 -11 -5 -18 0
-22 14 -3 13 -10 19 -19 15 -8 -3 -14 1 -14 11 0 10 -6 13 -16 9 -9 -3 -20 0
-25 8 -4 8 -14 14 -21 15 -7 0 -17 2 -23 2 -5 1 -10 18 -10 37 0 29 3 34 18
29 9 -3 17 -1 17 5 0 6 6 8 14 5 8 -3 23 4 33 15 19 23 53 28 53 9 0 -9 3 -9
9 1 5 8 16 11 25 8 10 -4 16 -1 16 7 0 7 7 13 15 13 8 0 15 -5 15 -11 0 -6 4
-5 9 2 4 8 11 13 15 13 23 -3 30 0 17 8 -20 13 -4 47 29 61 19 8 31 22 35 41
4 16 11 29 16 29 5 0 9 93 9 221 l0 222 -47 61 c-54 71 -121 109 -193 110 -52
1 -77 17 -108 66 -25 42 -132 255 -132 265 0 21 -63 135 -75 135 -8 0 -40 -7
-71 -15 -32 -8 -59 -13 -62 -10 -2 2 -41 -15 -86 -39 -44 -23 -115 -55 -156
-70 -41 -15 -82 -30 -90 -33 -8 -4 -22 -5 -29 -4 -8 2 -21 -5 -28 -15 -7 -10
-13 -12 -13 -6 0 7 -7 12 -15 12 -9 0 -31 15 -50 34 -40 40 -133 76 -145 56
-6 -9 -11 -7 -19 8 -11 21 -104 92 -121 92 -6 0 -15 -11 -21 -24z m224 -169
c-4 -7 -8 -6 -11 3 -3 8 -10 22 -16 30 -6 8 -1 7 11 -4 13 -10 20 -23 16 -29z
m27 -21 c0 -3 -4 -8 -10 -11 -5 -3 -10 -1 -10 4 0 6 5 11 10 11 6 0 10 -2 10
-4z m29 -62 c6 -14 11 -31 11 -39 0 -7 5 -15 11 -17 5 -2 11 -18 11 -36 1 -17
5 -32 10 -32 4 0 8 -15 8 -32 0 -26 3 -30 10 -18 17 24 -1 -41 -17 -67 -10
-15 -12 -27 -5 -39 13 -23 3 -57 -14 -50 -20 8 -18 -32 3 -52 16 -16 16 -17 0
-20 -16 -3 -21 -17 -20 -50 1 -16 -49 -12 -54 4 -2 7 3 19 12 28 9 9 13 16 9
16 -5 0 -3 5 4 12 15 15 16 48 2 48 -5 0 -10 -5 -10 -11 0 -5 -5 -7 -12 -3 -7
5 -9 2 -5 -8 3 -9 0 -21 -6 -28 -9 -10 -9 -11 1 -6 6 4 12 3 12 -2 0 -6 -7
-12 -15 -16 -8 -3 -15 -11 -15 -17 0 -7 -7 -20 -15 -29 -9 -10 -17 -27 -20
-38 -2 -11 -8 -30 -14 -41 -14 -25 -14 -34 0 -29 6 2 10 7 9 12 -1 5 3 12 9
16 7 3 13 21 14 38 2 36 29 49 52 25 24 -24 14 -63 -16 -63 -20 0 -26 -15 -9
-25 15 -9 2 -25 -21 -25 -10 0 -19 -7 -19 -15 0 -26 -49 -73 -71 -68 -10 3
-19 0 -19 -6 0 -5 7 -8 15 -5 8 4 15 1 15 -4 0 -6 -25 -19 -56 -29 -48 -15
-57 -15 -65 -3 -5 8 -7 24 -5 34 3 11 0 26 -5 33 -12 14 19 95 34 90 5 -1 8
-6 8 -10 -1 -4 -1 -19 -1 -33 0 -19 -4 -25 -15 -20 -8 3 -15 1 -15 -4 0 -6 4
-10 9 -10 5 0 13 -9 16 -20 7 -23 35 -27 35 -6 0 8 6 21 13 28 7 7 21 31 31
53 47 103 71 150 78 153 4 2 8 15 8 28 0 13 4 24 8 24 5 0 14 24 21 53 8 28
17 57 21 62 22 28 35 232 17 253 -6 8 -12 22 -14 33 -4 26 21 14 36 -17z m230
-224 l-1 -25 -8 25 c-4 14 -8 32 -9 40 -1 13 0 13 9 0 5 -8 9 -26 9 -40z
m-469 -220 c0 -5 -2 -10 -4 -10 -3 0 -8 5 -11 10 -3 6 -1 10 4 10 6 0 11 -4
11 -10z m250 -299 c0 -6 -4 -13 -10 -16 -5 -3 -10 1 -10 9 0 9 5 16 10 16 6 0
10 -4 10 -9z m-30 -21 c0 -5 -5 -10 -12 -10 -16 0 -48 -31 -48 -47 0 -18 30
-16 52 4 10 9 21 13 25 9 4 -4 -7 -19 -25 -33 -32 -25 -33 -27 -26 -79 6 -50
5 -54 -14 -54 -12 0 -26 -9 -32 -20 -6 -11 -19 -20 -30 -20 -10 0 -36 -21 -57
-46 -53 -63 -96 -89 -122 -72 -27 17 -26 102 2 94 22 -5 22 17 1 49 -9 14 -12
29 -8 37 5 7 7 24 5 37 -2 18 1 22 13 18 10 -4 16 -1 16 8 0 8 24 26 53 41 28
14 66 37 84 50 17 13 45 24 62 24 16 0 33 5 36 10 3 6 10 10 16 10 5 0 9 -4 9
-10z m-248 -46 c-4 -45 -18 -66 -32 -44 -5 8 -5 21 1 32 6 10 7 23 4 28 -8 14
4 32 18 27 7 -2 11 -20 9 -43z m701 -59 c-3 -9 -8 -14 -10 -11 -3 3 -2 9 2 15
9 16 15 13 8 -4z m-13 -39 c0 -3 -4 -8 -10 -11 -5 -3 -10 -1 -10 4 0 6 5 11
10 11 6 0 10 -2 10 -4z m510 -315 c0 -16 -80 -61 -109 -61 -16 0 -32 -4 -35
-8 -3 -5 -22 -10 -43 -11 -21 -1 -49 -3 -63 -5 -14 -1 -33 2 -42 6 -12 6 -18
5 -18 -2 0 -7 -6 -10 -12 -7 -7 2 -13 10 -13 17 0 10 18 15 65 16 110 5 150
12 199 37 50 26 71 32 71 18z m-390 -67 c0 -9 -7 -14 -17 -12 -25 5 -28 28 -4
28 12 0 21 -6 21 -16z m40 0 c0 -17 -22 -14 -28 4 -2 7 3 12 12 12 9 0 16 -7
16 -16z m-97 -50 c-5 -39 -3 -47 16 -60 23 -16 28 -34 10 -34 -13 0 -53 48
-55 67 -2 13 24 73 32 73 2 0 1 -20 -3 -46z m78 -107 c-1 -12 -15 -9 -19 4 -3
6 1 10 8 8 6 -3 11 -8 11 -12z m46 -49 c-3 -8 -6 -5 -6 6 -1 11 2 17 5 13 3
-3 4 -12 1 -19z m47 -57 c-6 -6 -24 19 -24 34 1 6 7 1 15 -9 8 -11 12 -22 9
-25z m36 -37 c0 -8 -4 -14 -9 -14 -11 0 -22 26 -14 34 9 9 23 -3 23 -20z m20
-46 c0 -19 -2 -20 -10 -8 -13 19 -13 30 0 30 6 0 10 -10 10 -22z m17 -50 c-3
-8 -6 -5 -6 6 -1 11 2 17 5 13 3 -3 4 -12 1 -19z m20 -40 c-3 -8 -6 -5 -6 6
-1 11 2 17 5 13 3 -3 4 -12 1 -19z m9 -45 c-10 -10 -19 5 -10 18 6 11 8 11 12
0 2 -7 1 -15 -2 -18z m4 -107 c0 -3 -4 -8 -10 -11 -5 -3 -10 -1 -10 4 0 6 5
11 10 11 6 0 10 -2 10 -4z"/>
<path d="M6671 2684 c0 -11 3 -14 6 -6 3 7 2 16 -1 19 -3 4 -6 -2 -5 -13z"/>
<path d="M6869 3519 c-17 -17 -19 -23 -8 -30 8 -5 23 -6 34 -2 28 8 66 39 58
47 -14 14 -64 5 -84 -15z"/>
<path d="M7711 3354 c0 -11 3 -14 6 -6 3 7 2 16 -1 19 -3 4 -6 -2 -5 -13z"/>
<path d="M2680 2979 c-138 -45 -154 -65 -55 -68 124 -2 209 -49 220 -119 11
-64 15 -68 30 -38 23 44 19 93 -10 122 l-26 26 26 24 c14 13 33 24 41 24 7 0
14 5 14 10 0 6 5 10 10 10 6 0 10 -8 10 -19 0 -12 7 -18 18 -17 9 0 16 -5 14
-12 -1 -8 2 -11 9 -6 9 5 7 12 -7 23 -11 9 -23 23 -26 32 -4 11 -23 19 -50 23
-24 3 -61 8 -83 11 -29 4 -66 -4 -135 -26z"/>
<path d="M2476 2922 c-3 -4 4 -9 15 -9 23 -2 25 3 4 10 -8 4 -16 3 -19 -1z"/>
<path d="M2258 2849 c-15 -8 -18 -24 -18 -79 0 -65 9 -86 26 -59 4 7 8 25 10
40 2 16 13 47 24 69 l20 40 -22 0 c-13 0 -31 -5 -40 -11z"/>
<path d="M6340 2666 c-51 -62 -60 -65 -178 -71 -48 -2 -132 -11 -186 -19 -55
-9 -103 -16 -108 -16 -4 0 -8 -4 -8 -9 0 -12 96 -62 104 -54 3 4 6 1 6 -5 0
-6 7 -9 15 -6 9 4 15 0 15 -10 0 -10 6 -13 15 -10 10 4 15 0 16 -12 0 -11 3
-14 6 -6 2 6 8 10 12 8 4 -3 8 5 8 16 3 32 23 47 23 18 0 -20 2 -22 10 -10 8
13 11 11 16 -7 4 -13 10 -20 15 -17 5 3 9 -7 9 -21 0 -15 -4 -24 -10 -20 -5 3
-10 -3 -10 -14 0 -14 5 -19 15 -15 8 4 15 14 15 24 0 11 4 21 9 24 5 3 6 -14
4 -38 -4 -34 -1 -48 13 -63 11 -11 24 -28 30 -39 11 -18 13 -18 45 -2 39 19
81 33 91 30 18 -5 48 34 48 61 0 24 -3 28 -20 24 -27 -7 -25 9 4 38 42 42 43
72 4 66 -5 0 -8 6 -8 15 0 8 -5 12 -10 9 -6 -4 -7 -12 -3 -18 4 -8 1 -7 -9 1
-14 11 -18 10 -27 -5 -9 -15 -11 -12 -9 17 2 57 15 73 54 68 22 -3 35 1 39 10
8 21 6 112 -2 112 -5 0 -28 -25 -53 -54z m-44 -92 c-3 -9 -6 -32 -6 -52 0 -28
-3 -33 -10 -22 -7 11 -10 11 -10 2 0 -7 -8 -12 -17 -10 -13 2 -18 -4 -18 -19
-1 -31 -15 -42 -16 -12 0 22 -1 23 -9 4 -8 -19 -9 -18 -9 4 -1 31 -9 24 -13
-11 -7 -51 -18 -41 -18 16 0 32 4 55 9 52 5 -4 12 0 14 6 4 10 8 9 17 -2 10
-13 11 -13 9 0 -3 30 1 50 11 50 6 0 10 -8 11 -17 0 -15 2 -15 8 2 10 24 56
33 47 9z m-148 -52 c-11 -2 -18 -13 -18 -28 0 -14 -4 -22 -10 -19 -11 7 -14
48 -4 57 3 3 15 3 27 0 18 -5 19 -7 5 -10z m-98 -38 c0 -8 -4 -12 -10 -9 -5 3
-10 10 -10 16 0 5 5 9 10 9 6 0 10 -7 10 -16z m102 -26 c-7 -7 -10 -5 -7 8 5
29 6 30 12 16 3 -8 1 -18 -5 -24z"/>
<path d="M6267 2550 c-3 -11 -1 -20 4 -20 5 0 9 9 9 20 0 11 -2 20 -4 20 -2 0
-6 -9 -9 -20z"/>
<path d="M6321 2554 c0 -11 3 -14 6 -6 3 7 2 16 -1 19 -3 4 -6 -2 -5 -13z"/>
<path d="M3592 2378 c-13 -15 -28 -26 -33 -22 -5 3 -9 -6 -9 -20 0 -14 -5 -26
-12 -26 -6 0 -4 -6 7 -13 13 -11 17 -22 12 -44 -3 -17 0 -53 8 -82 7 -28 14
-55 15 -59 0 -4 3 -16 6 -27 2 -11 6 -33 8 -50 6 -51 16 -65 46 -65 31 0 40
-15 37 -60 -3 -38 -99 -157 -140 -173 -9 -3 -17 -11 -17 -17 0 -5 -9 -10 -20
-10 -11 0 -20 -4 -20 -10 0 -5 -13 -10 -30 -10 -17 0 -33 -7 -39 -17 -6 -10
-11 -13 -11 -6 0 9 -8 9 -30 2 -16 -6 -30 -12 -30 -13 0 0 4 -16 9 -34 9 -30
0 -44 -14 -22 -14 23 -25 7 -25 -37 0 -25 -3 -44 -6 -40 -10 9 -47 -30 -39
-42 3 -7 -2 -11 -14 -11 -31 0 -34 -1 -61 -15 -51 -28 -208 -46 -236 -27 -19
12 1 47 46 83 23 19 52 43 65 54 13 11 67 56 120 100 110 90 135 125 135 184
0 42 -13 49 -47 28 -7 -5 -13 -5 -13 0 0 4 -10 -8 -22 -27 -23 -36 -128 -141
-322 -323 -145 -135 -226 -217 -226 -228 0 -5 -9 -9 -21 -9 -14 0 -19 -5 -16
-14 3 -8 -3 -22 -14 -32 -10 -9 -19 -25 -19 -35 0 -9 -3 -19 -7 -21 -8 -3 -72
-96 -102 -146 -60 -102 -177 -265 -220 -305 l-51 -49 0 -123 c0 -143 4 -159
31 -144 11 5 17 14 14 20 -4 5 2 12 12 16 10 3 30 19 44 35 14 15 28 25 31 22
3 -3 15 6 26 20 11 15 25 26 31 26 6 0 11 9 11 20 0 11 3 19 8 19 21 -4 42 2
37 10 -3 5 4 12 14 16 11 3 23 15 26 25 4 11 21 24 38 28 18 5 31 15 29 22 -2
8 4 11 18 7 13 -3 27 2 38 12 27 29 56 40 101 39 24 0 46 4 50 9 12 18 81 54
91 48 6 -3 23 3 39 14 16 12 43 21 59 21 17 0 32 4 34 10 2 5 32 11 68 14 48
3 66 9 70 21 3 9 10 16 15 15 6 0 36 12 67 27 38 19 63 38 75 60 14 27 20 30
37 21 16 -9 24 -6 42 16 13 14 26 26 30 26 10 0 -2 -49 -35 -142 -27 -76 -61
-208 -92 -355 -4 -23 -13 -50 -18 -60 -5 -10 -26 -79 -45 -153 -32 -124 -46
-195 -61 -307 l-5 -43 1735 0 1735 0 0 70 c0 59 -3 71 -20 80 -11 6 -17 16
-14 25 4 9 0 15 -10 15 -10 0 -16 8 -16 21 0 15 -5 19 -15 15 -8 -3 -15 -1
-15 4 0 6 8 10 17 10 14 0 13 3 -5 16 -13 9 -27 27 -32 40 -6 16 -14 22 -25
18 -19 -8 -56 28 -58 56 -1 14 -9 20 -24 20 -13 0 -23 4 -23 8 0 4 -16 14 -35
21 -20 7 -43 24 -52 37 -12 18 -22 24 -37 20 -15 -4 -26 1 -34 14 -7 11 -19
20 -26 20 -8 0 -31 19 -50 42 -20 23 -36 36 -36 30 0 -16 -50 -28 -59 -14 -6
10 -34 19 -66 21 -6 1 -19 21 -29 45 -12 30 -23 43 -32 39 -15 -6 -64 40 -64
60 0 9 -2 9 -8 0 -8 -12 -112 -26 -112 -14 0 13 -78 10 -90 -4 -7 -8 -17 -15
-22 -15 -5 0 -16 -7 -24 -15 -13 -12 -19 -12 -52 6 -75 43 -82 84 -19 120 23
13 55 24 72 24 26 0 30 4 30 27 1 15 -5 30 -12 32 -8 3 -13 -2 -13 -14 0 -15
-7 -20 -27 -21 -16 0 -39 -2 -52 -5 -15 -3 -29 2 -37 13 -12 16 -15 16 -24 3
-7 -11 -10 -7 -10 20 0 24 3 31 11 23 5 -5 20 -8 33 -6 19 4 22 10 20 41 -3
53 -3 54 -14 47 -5 -3 -10 -3 -10 2 0 4 -10 8 -22 9 -13 1 -44 4 -71 7 -33 3
-47 2 -45 -6 3 -19 -12 -57 -23 -57 -6 0 -8 -4 -4 -9 3 -5 1 -12 -5 -16 -14
-9 -12 -26 3 -24 25 3 37 -1 37 -14 0 -7 9 -20 20 -30 11 -9 20 -23 20 -31 0
-20 -22 -25 -38 -9 -10 10 -18 10 -34 2 -20 -11 -37 0 -38 24 0 4 -9 2 -21 -5
-17 -11 -23 -10 -37 7 -9 11 -29 26 -44 34 -16 8 -28 18 -28 23 0 4 -11 8 -25
8 -13 0 -28 6 -32 13 -4 7 -19 20 -33 29 -14 9 -35 25 -47 37 -12 12 -26 21
-31 21 -5 0 -14 12 -21 26 -9 21 -14 24 -26 14 -12 -10 -17 -8 -25 12 -6 13
-32 33 -57 46 -43 21 -46 21 -60 5 -10 -13 -16 -15 -19 -5 -3 6 -10 10 -15 7
-18 -12 -84 33 -170 115 -14 14 -32 24 -38 22 -7 -2 -20 5 -29 16 -18 21 -59
38 -81 33 -8 -1 -10 2 -5 10 4 8 3 10 -5 5 -13 -8 -61 32 -61 52 0 17 -11 15
-25 -5 -11 -15 -15 -15 -29 -4 -9 7 -16 22 -16 32 0 20 -18 35 -40 31 -18 -2
-55 72 -46 93 3 9 -3 19 -14 25 -11 6 -20 7 -20 3 0 -10 -20 19 -20 30 0 4 9
3 21 -3 11 -7 23 -9 27 -6 3 3 1 6 -5 6 -7 0 -9 18 -5 46 3 34 2 45 -7 40 -6
-4 -11 -16 -11 -26 0 -11 -8 -24 -18 -29 -24 -13 -42 15 -35 52 3 15 1 35 -3
44 -5 10 -9 36 -9 58 l0 40 -43 -2 c-24 -1 -50 -7 -58 -14 -8 -6 -14 -7 -14
-2 0 5 -16 17 -35 26 -34 16 -35 16 -39 -6 -3 -12 -7 -47 -10 -77 -9 -114 -62
-200 -124 -200 -32 0 -50 -14 -32 -25 5 -3 10 -17 10 -29 0 -36 -45 -41 -95
-11 -83 48 -110 100 -107 208 1 54 33 130 83 197 37 50 48 114 27 159 -7 14
-12 49 -10 76 12 235 14 215 -20 247 -16 15 -38 28 -48 28 -10 0 -20 8 -22 18
-3 16 -6 15 -26 -10z m-102 -1221 c0 -8 -7 -14 -15 -14 -11 0 -12 4 -4 14 6 7
13 13 15 13 2 0 4 -6 4 -13z m-696 -69 c12 -17 13 -24 4 -29 -9 -6 -5 -11 12
-18 15 -6 19 -10 9 -10 -12 -1 -15 -8 -11 -26 2 -14 0 -25 -6 -25 -6 0 -14 -9
-17 -20 -4 -11 -15 -20 -26 -20 -11 0 -18 -4 -14 -9 3 -6 -7 -9 -22 -8 -22 2
-27 -2 -25 -15 2 -14 -4 -18 -32 -18 -46 0 -56 29 -24 70 70 92 120 150 128
150 5 0 16 -10 24 -22z"/>
<path d="M2751 1064 c0 -11 3 -14 6 -6 3 7 2 16 -1 19 -3 4 -6 -2 -5 -13z"/>
<path d="M6326 2272 c-2 -4 -1 -14 5 -22 7 -12 9 -10 9 8 0 23 -5 28 -14 14z"/>
<path d="M3200 2069 c0 -5 5 -7 10 -4 6 3 10 8 10 11 0 2 -4 4 -10 4 -5 0 -10
-5 -10 -11z"/>
<path d="M5078 2038 c-3 -7 1 -24 8 -37 12 -22 12 -22 12 13 0 35 -11 49 -20
24z"/>
<path d="M7775 1927 c-34 -19 -57 -22 -163 -23 -68 -1 -126 -4 -129 -8 -7 -6
26 -46 38 -46 4 0 5 9 2 20 -5 19 -1 20 88 20 110 1 119 2 182 20 26 8 47 20
47 27 0 18 -19 15 -65 -10z"/>
<path d="M7882 1914 c10 -10 20 -15 24 -12 3 4 -5 12 -18 18 -22 12 -22 12 -6
-6z"/>
<path d="M7660 1649 c0 -10 48 -141 54 -146 3 -4 6 -26 6 -50 0 -36 3 -43 19
-43 19 0 19 1 0 52 -10 29 -19 63 -19 75 0 12 -4 24 -9 28 -5 3 -12 18 -16 34
-5 23 -35 66 -35 50z"/>
<path d="M4326 1517 c-4 -38 -5 -71 -3 -74 7 -7 20 100 15 123 -2 11 -8 -12
-12 -49z"/>
<path d="M4266 1555 c4 -8 8 -15 10 -15 2 0 4 7 4 15 0 8 -4 15 -10 15 -5 0
-7 -7 -4 -15z"/>
<path d="M7977 1453 c-11 -10 -8 -20 8 -27 10 -4 15 1 15 14 0 20 -11 26 -23
13z"/>
<path d="M7743 1346 c0 -57 -8 -80 -24 -71 -17 11 -31 -6 -18 -22 11 -13 15
-13 26 3 11 15 17 16 32 7 27 -17 41 2 41 58 0 38 -5 51 -22 63 -12 9 -25 16
-29 16 -4 0 -6 -24 -6 -54z"/>
<path d="M5030 1307 c0 -7 -12 -24 -26 -36 -25 -21 -25 -23 -8 -42 21 -24 33
-24 32 -1 -1 9 3 34 7 55 4 20 4 37 1 37 -3 0 -6 -6 -6 -13z"/>
<path d="M5118 1254 c-4 -3 -4 -12 -1 -20 3 -8 0 -21 -6 -28 -10 -11 -7 -18
11 -30 12 -9 28 -16 36 -16 9 0 10 -5 3 -18 -7 -13 -6 -23 1 -30 14 -14 32
-16 24 -3 -9 13 22 34 40 27 12 -4 10 0 -5 20 -12 15 -21 35 -21 45 0 26 -21
35 -33 13 -10 -17 -12 -16 -17 10 -5 29 -20 43 -32 30z"/>
<path d="M7620 1253 c0 -8 73 -75 138 -127 27 -21 38 -16 23 11 -6 10 -15 30
-20 44 -7 18 -21 29 -52 38 -23 7 -53 20 -66 28 -13 8 -23 11 -23 6z"/>
<path d="M7879 1246 c-2 -3 -18 -6 -34 -9 -24 -3 -31 -9 -33 -31 -2 -15 3 -35
10 -44 8 -10 19 -28 26 -42 17 -33 79 -106 85 -100 3 3 -14 34 -38 70 -44 66
-58 104 -40 106 6 0 17 3 25 7 21 8 71 18 98 20 12 0 22 7 22 14 0 9 -17 13
-58 13 -32 0 -61 -2 -63 -4z"/>
<path d="M6725 1221 c-3 -5 -1 -12 5 -16 5 -3 10 1 10 9 0 18 -6 21 -15 7z"/>
<path d="M6773 1165 c0 -8 4 -12 9 -9 4 3 8 9 8 15 0 5 -4 9 -8 9 -5 0 -9 -7
-9 -15z"/>
<path d="M5261 1104 c-8 -18 -17 -24 -29 -20 -16 6 -16 5 1 -8 10 -8 15 -20
11 -30 -7 -18 4 -20 40 -6 28 10 34 37 16 71 -14 26 -25 24 -39 -7z"/>
<path d="M5592 958 c-6 -6 -12 -16 -12 -22 0 -5 6 -2 13 9 10 12 16 14 21 7
10 -16 59 -16 54 1 -6 17 -60 21 -76 5z"/>
<path d="M3164 825 c-31 -43 -95 -114 -169 -188 -76 -75 -171 -131 -223 -132
-21 0 -37 -7 -43 -18 -12 -20 -189 -110 -209 -105 -7 2 -18 -6 -24 -17 -7 -11
-18 -21 -25 -23 -8 -2 -25 -12 -39 -23 -14 -10 -31 -19 -38 -19 -8 0 -14 -4
-14 -10 0 -5 -7 -10 -15 -10 -8 0 -15 -4 -15 -10 0 -5 -9 -10 -19 -10 -11 0
-21 -9 -25 -23 -3 -13 -16 -29 -30 -36 -28 -15 -36 -46 -36 -137 l0 -64 215 0
c145 0 215 3 215 11 0 5 5 7 11 4 6 -4 13 2 16 14 3 12 12 21 19 21 8 0 14 6
14 13 0 14 48 62 63 62 5 0 13 7 16 15 3 8 13 15 21 15 8 0 15 7 15 15 0 18
36 80 47 80 4 0 8 5 8 11 0 6 11 20 25 31 14 11 25 26 25 34 0 8 5 14 10 14 6
0 14 8 17 18 4 9 27 49 53 87 106 160 191 368 163 396 -8 8 -16 3 -29 -16z"/>
</g>
</svg>
