<?xml version="1.0" encoding="utf-8"?>
<!-- Generator: Adobe Illustrator 18.1.1, SVG Export Plug-In . SVG Version: 6.00 Build 0)  -->
<svg version="1.1" id="Layer_1" xmlns="http://www.w3.org/2000/svg" xmlns:xlink="http://www.w3.org/1999/xlink" x="0px" y="0px"
	 viewBox="0 0 792 592.9" enable-background="new 0 0 792 592.9" xml:space="preserve">
<rect x="205.3" y="226" fill="#007AA8" width="220.9" height="298.5"/>
<rect x="508" y="384.5" fill="#E68100" width="220.9" height="138"/>
<line fill="none" stroke="#231F20" stroke-width="3.75" stroke-miterlimit="10" x1="110.7" y1="523.3" x2="757.3" y2="523.3"/>
<line fill="none" stroke="#231F20" stroke-width="2.5" stroke-miterlimit="10" x1="123.5" y1="524.8" x2="123.5" y2="150.4"/>
<g>
	
		<linearGradient id="SVGID_1_" gradientUnits="userSpaceOnUse" x1="114.6986" y1="630.1171" x2="114.6986" y2="623.817" gradientTransform="matrix(8.1743 0 0 -8.1743 -204.3199 5162.894)">
		<stop  offset="0" style="stop-color:#007AA8"/>
		<stop  offset="0.1356" style="stop-color:#0078A5"/>
		<stop  offset="0.263" style="stop-color:#03739E"/>
		<stop  offset="0.3872" style="stop-color:#0F6C93"/>
		<stop  offset="0.5094" style="stop-color:#156182"/>
		<stop  offset="0.6302" style="stop-color:#15536D"/>
		<stop  offset="0.7499" style="stop-color:#104155"/>
		<stop  offset="0.8688" style="stop-color:#012938"/>
		<stop  offset="0.9842" style="stop-color:#00040A"/>
		<stop  offset="1" style="stop-color:#000000"/>
	</linearGradient>
	<ellipse fill="url(#SVGID_1_)" stroke="#FFFFFF" stroke-width="0.25" cx="733.3" cy="37.8" rx="32" ry="25.7"/>
	<path fill="#FFFFFF" d="M726.4,20.8h-14.3l-2.2,4.7h14.5c3.5,0,3.1,3.1,3.1,3.1c-0.6,6.3-8,8-8,8l2.2-8.9h-5l-4.6,19.1h5l1.5-6.5
		c13.6-3,14.9-11.6,14.9-11.6C734.7,20.2,726.4,20.8,726.4,20.8z"/>
	<path fill="#FFFFFF" d="M757.2,38.6h-5l-4.5,4.7l-2.3-4.7h-5l2.5,5l0,0h-5.9l0.8-2.8l0,0l5.5-18.1h-7.1l-5.4,17.6l0,0l-1.3,4
		c0,0-1.4,2.7,2.7,2.7h8.9c0,0,1.5-0.2,2.9-1l0.5,0.9l-8.2,8.6h4.8l4.9-5.1l2.5,5.1h5l-4.2-8.7L757.2,38.6z"/>
	<g>
		<path d="M758,57.1h-0.8v-0.5h2.2v0.5h-0.8v3H758V57.1z"/>
		<path d="M759.7,56.6h0.8l0.6,2.5l0,0l0.6-2.5h0.8v3.5h-0.5v-2.9l0,0l-0.7,2.9h-0.5l-0.6-2.9l0,0v2.9h-0.5V56.6z"/>
	</g>
</g>
<g>
	<path d="M279.3,189.7v-0.1c-1.6-1.1-2.8-2.6-2.8-4.8c0-3.3,2.6-5.4,6.1-5.4c3.6,0,6,2.2,6,5.5c0,2-1.4,3.7-2.7,4.7v0.1
		c1.9,1.1,3.5,2.6,3.5,5.3c0,3.1-2.7,5.5-6.9,5.5c-4,0-6.9-2.3-6.9-5.6C275.6,192.4,277.4,190.7,279.3,189.7z M282.6,197.9
		c1.9,0,3.4-1.1,3.4-3c0-2.2-2.1-3-4.9-4.1c-1.3,0.9-2.2,2.2-2.2,3.8C278.9,196.5,280.5,197.9,282.6,197.9z M285.6,185.1
		c0-1.8-1.1-3.1-3-3.1c-1.6,0-2.8,1-2.8,2.8c0,2,1.8,2.9,4.1,3.8C285,187.6,285.6,186.4,285.6,185.1z"/>
	<path d="M293.2,195.3c1.2,1.2,2.8,2.2,4.8,2.2c2.2,0,3.7-1.1,3.7-3.1c0-2.1-1.3-3.4-6-3.4v-2.7c4,0,5.3-1.4,5.3-3.3
		c0-1.7-1.1-2.7-3-2.7c-1.6,0-2.8,0.8-4.1,1.9l-1.9-2.3c1.7-1.5,3.7-2.6,6.1-2.6c3.9,0,6.6,1.9,6.6,5.4c0,2.3-1.3,3.8-3.5,4.7v0.1
		c2.4,0.6,4.2,2.4,4.2,5c0,3.7-3.2,5.9-7.1,5.9c-3.3,0-5.5-1.3-6.9-2.9L293.2,195.3z"/>
	<path d="M311.5,195.5c1.3,0,2.4,1.1,2.4,2.5s-1,2.5-2.4,2.5s-2.4-1.1-2.4-2.5S310.1,195.5,311.5,195.5z"/>
	<path d="M328.7,184c-0.7-0.9-2-1.5-3.2-1.5c-2.6,0-4.6,1.9-4.8,7.5c1.2-1.5,2.9-2.4,4.4-2.4c3.5,0,5.9,2,5.9,6.3
		c0,4.1-2.9,6.7-6.4,6.7c-4,0-7.4-3.1-7.4-9.9c0-7.9,3.8-11.1,8-11.1c2.5,0,4.2,1,5.4,2.3L328.7,184z M327.6,193.8
		c0-2.4-1.2-3.6-3.2-3.6c-1.1,0-2.5,0.6-3.6,2.3c0.4,3.6,1.8,5.1,3.8,5.1C326.3,197.7,327.6,196.3,327.6,193.8z"/>
	<path d="M333.2,185.4c0-4.2,2-6.6,5-6.6c2.9,0,5,2.4,5,6.6c0,4.2-2,6.6-5,6.6C335.2,192.1,333.2,189.6,333.2,185.4z M340.5,185.4
		c0-3.1-1-4.4-2.3-4.4s-2.3,1.3-2.3,4.4c0,3.1,1,4.5,2.3,4.5S340.5,188.5,340.5,185.4z M338.8,200.5l11.4-21.6h2.2l-11.4,21.6H338.8
		z M348.1,193.8c0-4.2,2-6.6,5-6.6c2.9,0,5,2.4,5,6.6c0,4.2-2,6.6-5,6.6C350.2,200.5,348.1,198.1,348.1,193.8z M355.5,193.8
		c0-3.1-1-4.4-2.3-4.4c-1.3,0-2.3,1.3-2.3,4.4c0,3.1,1,4.5,2.3,4.5C354.5,198.3,355.5,197,355.5,193.8z"/>
</g>
<g>
	<path d="M271.5,539.7h3c2.2,0,3.6,0.7,3.6,2.9c0,2.1-1.5,3-3.6,3h-1.8v3.9h-1.2V539.7z M274.4,544.7c1.7,0,2.5-0.6,2.5-2
		c0-1.4-0.8-1.9-2.5-1.9h-1.6v3.9H274.4z"/>
	<path d="M280.1,539.7h1.2v8.8h4.3v1.1h-5.5V539.7z"/>
	<path d="M286.7,548.9c2.9-2.9,4.5-4.6,4.5-6.1c0-1.1-0.6-1.9-1.8-1.9c-0.8,0-1.5,0.5-2,1.2l-0.7-0.7c0.8-0.9,1.6-1.5,2.9-1.5
		c1.8,0,2.9,1.1,2.9,2.8c0,1.8-1.6,3.6-3.9,6c0.5,0,1.1-0.1,1.6-0.1h2.8v1.1h-6.2V548.9z"/>
	<path d="M294.1,548.9c2.9-2.9,4.5-4.6,4.5-6.1c0-1.1-0.6-1.9-1.8-1.9c-0.8,0-1.5,0.5-2,1.2l-0.7-0.7c0.8-0.9,1.6-1.5,2.9-1.5
		c1.8,0,2.9,1.1,2.9,2.8c0,1.8-1.6,3.6-3.9,6c0.5,0,1.1-0.1,1.6-0.1h2.8v1.1h-6.2V548.9z"/>
	<path d="M301.7,544.8c0-3.2,1.2-4.9,3.1-4.9c1.9,0,3.1,1.7,3.1,4.9s-1.2,5-3.1,5C302.8,549.8,301.7,548,301.7,544.8z M306.6,544.8
		c0-2.8-0.8-3.9-1.9-3.9c-1.1,0-1.9,1.1-1.9,3.9s0.8,4,1.9,4C305.8,548.8,306.6,547.6,306.6,544.8z"/>
	<path d="M309.1,544.8c0-3.2,1.2-4.9,3.1-4.9c1.9,0,3.1,1.7,3.1,4.9s-1.2,5-3.1,5C310.3,549.8,309.1,548,309.1,544.8z M314,544.8
		c0-2.8-0.8-3.9-1.9-3.9c-1.1,0-1.9,1.1-1.9,3.9s0.8,4,1.9,4C313.3,548.8,314,547.6,314,544.8z"/>
	<path d="M324.8,546.6h-3.6l-0.9,3H319l3.3-9.8h1.4l3.3,9.8h-1.3L324.8,546.6z M324.5,545.6l-0.5-1.5c-0.4-1.1-0.7-2.2-1-3.3H323
		c-0.3,1.1-0.6,2.2-1,3.3l-0.5,1.5H324.5z"/>
	<path d="M328.1,547.9c0.6,0.5,1.3,0.9,2.1,0.9c1,0,1.4-0.5,1.4-1.1c0-0.8-0.9-1.1-1.7-1.4c-1-0.4-2.2-0.9-2.2-2.1
		c0-1.2,0.9-2.1,2.5-2.1c0.9,0,1.7,0.4,2.3,0.8l-0.6,0.8c-0.5-0.4-1-0.6-1.7-0.6c-0.9,0-1.3,0.5-1.3,1c0,0.7,0.8,0.9,1.6,1.3
		c1,0.4,2.2,0.8,2.2,2.2c0,1.2-0.9,2.2-2.7,2.2c-1,0-2-0.4-2.7-1L328.1,547.9z"/>
	<path d="M335.8,550.2v2.5h-1.2v-10.4h1l0.1,0.8h0c0.7-0.6,1.5-1,2.3-1c1.9,0,2.9,1.5,2.9,3.7c0,2.5-1.5,3.9-3.1,3.9
		c-0.7,0-1.3-0.3-2-0.8L335.8,550.2z M337.6,548.7c1.2,0,2.1-1.1,2.1-2.9c0-1.6-0.5-2.7-1.9-2.7c-0.6,0-1.2,0.3-1.9,1v3.8
		C336.5,548.5,337.1,548.7,337.6,548.7z"/>
	<path d="M342.7,540c0-0.5,0.4-0.8,0.9-0.8s0.9,0.3,0.9,0.8c0,0.5-0.4,0.8-0.9,0.8S342.7,540.5,342.7,540z M342.9,542.3h1.2v7.3
		h-1.2V542.3z"/>
	<path d="M346.6,542.3h1l0.1,1.3h0c0.5-0.9,1.2-1.5,2.1-1.5c0.3,0,0.5,0,0.8,0.2l-0.2,1.1c-0.2-0.1-0.4-0.1-0.7-0.1
		c-0.6,0-1.3,0.5-1.8,1.7v4.7h-1.2V542.3z"/>
	<path d="M351.6,540c0-0.5,0.4-0.8,0.9-0.8s0.9,0.3,0.9,0.8c0,0.5-0.4,0.8-0.9,0.8S351.6,540.5,351.6,540z M351.8,542.3h1.2v7.3
		h-1.2V542.3z"/>
	<path d="M355.5,542.3h1l0.1,1h0c0.7-0.7,1.4-1.2,2.4-1.2c1.5,0,2.2,1,2.2,2.9v4.6h-1.2v-4.5c0-1.4-0.4-2-1.4-2
		c-0.7,0-1.3,0.4-2,1.1v5.3h-1.2V542.3z"/>
	<path d="M294.6,565.6c0.6,0.6,1.3,1.1,2.4,1.1c1.2,0,2-0.7,2-1.8c0-1.1-0.8-1.9-3.1-1.9v-0.9c2,0,2.7-0.8,2.7-1.8
		c0-0.9-0.6-1.5-1.6-1.5c-0.8,0-1.5,0.4-2,1l-0.7-0.8c0.7-0.7,1.6-1.2,2.7-1.2c1.7,0,2.9,0.9,2.9,2.4c0,1.2-0.7,1.9-1.7,2.3v0.1
		c1.2,0.3,2.1,1.1,2.1,2.4c0,1.7-1.4,2.7-3.1,2.7c-1.5,0-2.5-0.6-3.1-1.4L294.6,565.6z"/>
	<path d="M301.7,566.9c2.9-2.9,4.5-4.6,4.5-6.1c0-1.1-0.6-1.9-1.8-1.9c-0.8,0-1.5,0.5-2,1.2l-0.7-0.7c0.8-0.9,1.6-1.5,2.9-1.5
		c1.8,0,2.9,1.1,2.9,2.8c0,1.8-1.6,3.6-3.9,6c0.5,0,1.1-0.1,1.6-0.1h2.8v1.1h-6.2V566.9z"/>
	<path d="M309.5,565.7c0.6,0.6,1.3,1.1,2.4,1.1c1.2,0,2.1-0.9,2.1-2.2c0-1.3-0.8-2.1-2-2.1c-0.7,0-1.1,0.2-1.6,0.6l-0.7-0.4l0.3-4.6
		h4.8v1.1h-3.7l-0.3,2.8c0.5-0.2,0.9-0.4,1.5-0.4c1.6,0,3,0.9,3,3s-1.6,3.2-3.2,3.2c-1.5,0-2.5-0.6-3.1-1.3L309.5,565.7z"/>
	<path d="M320.3,560.3h1l0.1,1h0c0.6-0.7,1.4-1.2,2.3-1.2c1.1,0,1.7,0.5,2,1.4c0.8-0.8,1.5-1.4,2.4-1.4c1.5,0,2.2,1,2.2,2.9v4.6
		h-1.2v-4.5c0-1.4-0.4-2-1.3-2c-0.6,0-1.2,0.4-1.8,1.1v5.3h-1.2v-4.5c0-1.4-0.4-2-1.4-2c-0.5,0-1.2,0.4-1.8,1.1v5.3h-1.2V560.3z"/>
	<path d="M333.2,567.3L333.2,567.3c-0.4-0.3-0.6-0.7-0.6-1.2c0-0.6,0.4-1.1,0.8-1.3v-0.1c-0.5-0.4-0.9-1.1-0.9-2
		c0-1.6,1.3-2.6,2.7-2.6c0.4,0,0.8,0.1,1,0.2h2.5v0.9h-1.5c0.3,0.3,0.6,0.9,0.6,1.5c0,1.6-1.2,2.5-2.7,2.5c-0.4,0-0.8-0.1-1.1-0.3
		c-0.3,0.2-0.5,0.5-0.5,0.9c0,0.5,0.3,0.8,1.3,0.8h1.4c1.7,0,2.6,0.5,2.6,1.7c0,1.4-1.4,2.5-3.7,2.5c-1.8,0-3-0.7-3-2
		C332.1,568.4,332.5,567.8,333.2,567.3z M335.3,570.1c1.4,0,2.3-0.7,2.3-1.5c0-0.7-0.5-0.9-1.5-0.9h-1.3c-0.3,0-0.6,0-0.9-0.1
		c-0.5,0.4-0.8,0.8-0.8,1.2C333.2,569.6,334,570.1,335.3,570.1z M336.7,562.7c0-1.1-0.7-1.7-1.5-1.7s-1.5,0.6-1.5,1.7
		c0,1.1,0.7,1.7,1.5,1.7S336.7,563.8,336.7,562.7z"/>
</g>
<g>
	<path d="M587.6,539.7h5.7v1.1h-4.4v3.1h3.7v1.1h-3.7v3.6h4.6v1.1h-5.8V539.7z"/>
	<path d="M599.3,539.6c1.2,0,2.1,0.6,2.7,1.2l-0.7,0.8c-0.5-0.6-1.1-0.9-2-0.9c-1.9,0-3.1,1.5-3.1,4c0,2.5,1.2,4,3,4
		c0.9,0,1.6-0.4,2.3-1.1l0.7,0.8c-0.8,0.9-1.7,1.4-3,1.4c-2.5,0-4.3-1.9-4.3-5.1C595,541.5,596.8,539.6,599.3,539.6z"/>
	<path d="M611.6,546.6H608l-0.9,3h-1.3l3.3-9.8h1.4l3.3,9.8h-1.3L611.6,546.6z M611.3,545.6l-0.5-1.5c-0.4-1.1-0.7-2.2-1-3.3h-0.1
		c-0.3,1.1-0.6,2.2-1,3.3l-0.5,1.5H611.3z"/>
	<path d="M615,547.9c0.6,0.5,1.3,0.9,2.1,0.9c1,0,1.4-0.5,1.4-1.1c0-0.8-0.9-1.1-1.7-1.4c-1-0.4-2.2-0.9-2.2-2.1
		c0-1.2,0.9-2.1,2.5-2.1c0.9,0,1.7,0.4,2.3,0.8l-0.6,0.8c-0.5-0.4-1-0.6-1.7-0.6c-0.9,0-1.3,0.5-1.3,1c0,0.7,0.8,0.9,1.6,1.3
		c1,0.4,2.2,0.8,2.2,2.2c0,1.2-0.9,2.2-2.7,2.2c-1,0-2-0.4-2.7-1L615,547.9z"/>
	<path d="M622.7,550.2v2.5h-1.2v-10.4h1l0.1,0.8h0c0.7-0.6,1.5-1,2.3-1c1.9,0,2.9,1.5,2.9,3.7c0,2.5-1.5,3.9-3.2,3.9
		c-0.7,0-1.3-0.3-2-0.8L622.7,550.2z M624.5,548.7c1.2,0,2.1-1.1,2.1-2.9c0-1.6-0.5-2.7-1.9-2.7c-0.6,0-1.2,0.3-1.9,1v3.8
		C623.3,548.5,624,548.7,624.5,548.7z"/>
	<path d="M629.6,540c0-0.5,0.4-0.8,0.9-0.8c0.5,0,0.9,0.3,0.9,0.8c0,0.5-0.4,0.8-0.9,0.8C629.9,540.8,629.6,540.5,629.6,540z
		 M629.8,542.3h1.2v7.3h-1.2V542.3z"/>
	<path d="M633.5,542.3h1l0.1,1.3h0c0.5-0.9,1.2-1.5,2.1-1.5c0.3,0,0.5,0,0.8,0.2l-0.2,1.1c-0.2-0.1-0.4-0.1-0.7-0.1
		c-0.6,0-1.3,0.5-1.8,1.7v4.7h-1.2V542.3z"/>
	<path d="M638.4,540c0-0.5,0.4-0.8,0.9-0.8c0.5,0,0.9,0.3,0.9,0.8c0,0.5-0.4,0.8-0.9,0.8C638.8,540.8,638.4,540.5,638.4,540z
		 M638.7,542.3h1.2v7.3h-1.2V542.3z"/>
	<path d="M642.4,542.3h1l0.1,1h0c0.7-0.7,1.4-1.2,2.4-1.2c1.5,0,2.2,1,2.2,2.9v4.6H647v-4.5c0-1.4-0.4-2-1.4-2c-0.8,0-1.3,0.4-2,1.1
		v5.3h-1.2V542.3z"/>
</g>
<g>
	<path d="M47,173.8h3v-10.6h-2.3v-0.6c1-0.2,1.9-0.5,2.5-0.8h0.7v12h2.8v0.8H47V173.8z"/>
	<path d="M55.9,168.2c0-4.2,1.4-6.6,3.8-6.6c2.4,0,3.8,2.3,3.8,6.6c0,4.3-1.4,6.7-3.8,6.7C57.3,174.8,55.9,172.4,55.9,168.2z
		 M62.6,168.2c0-3.9-1.1-5.8-2.9-5.8c-1.8,0-2.9,1.9-2.9,5.8s1.2,5.9,2.9,5.9C61.5,174.1,62.6,172.1,62.6,168.2z"/>
	<path d="M65.5,168.2c0-4.2,1.4-6.6,3.8-6.6c2.4,0,3.8,2.3,3.8,6.6c0,4.3-1.4,6.7-3.8,6.7C66.8,174.8,65.5,172.4,65.5,168.2z
		 M72.2,168.2c0-3.9-1.1-5.8-2.9-5.8c-1.8,0-2.9,1.9-2.9,5.8s1.2,5.9,2.9,5.9C71.1,174.1,72.2,172.1,72.2,168.2z"/>
	<path d="M76.3,173c0.4,0,0.8,0.3,0.8,0.9c0,0.6-0.4,0.9-0.8,0.9c-0.4,0-0.9-0.3-0.9-0.9C75.4,173.4,75.8,173,76.3,173z"/>
	<path d="M79.4,168.2c0-4.2,1.4-6.6,3.8-6.6c2.4,0,3.8,2.3,3.8,6.6c0,4.3-1.4,6.7-3.8,6.7C80.8,174.8,79.4,172.4,79.4,168.2z
		 M86.2,168.2c0-3.9-1.1-5.8-2.9-5.8c-1.8,0-2.9,1.9-2.9,5.8s1.2,5.9,2.9,5.9C85,174.1,86.2,172.1,86.2,168.2z"/>
	<path d="M88.8,165.3c0-2.6,1.1-4.1,2.8-4.1c1.7,0,2.8,1.5,2.8,4.1c0,2.7-1.1,4.2-2.8,4.2C89.9,169.5,88.8,168,88.8,165.3z
		 M93.7,165.3c0-2.2-0.8-3.5-2-3.5s-2,1.2-2,3.5c0,2.2,0.8,3.5,2,3.5S93.7,167.5,93.7,165.3z M92,174.8l7.4-13.7h0.8l-7.4,13.7H92z
		 M97.7,170.7c0-2.6,1.1-4.1,2.8-4.1c1.7,0,2.8,1.5,2.8,4.1c0,2.7-1.1,4.2-2.8,4.2C98.8,174.8,97.7,173.4,97.7,170.7z M102.6,170.7
		c0-2.2-0.8-3.5-2-3.5c-1.2,0-2,1.2-2,3.5c0,2.2,0.8,3.5,2,3.5C101.8,174.2,102.6,172.9,102.6,170.7z"/>
</g>
<g>
	<path d="M57.7,242.7L57.7,242.7c-0.9-0.7-1.8-1.7-1.8-3c0-1.8,1.5-3.1,3.3-3.1c2.2,0,3.5,1.4,3.5,3.3c0,1.4-1.1,2.6-1.8,3.2v0.1
		c1.1,0.7,2.2,1.5,2.2,3.3c0,1.9-1.6,3.3-3.9,3.3c-2.3,0-4.1-1.5-4.1-3.5C55.1,244.6,56.5,243.4,57.7,242.7z M59.2,249.1
		c1.8,0,3-1.2,3-2.6c0-2-1.9-2.6-3.9-3.4c-1.3,0.8-2.3,1.8-2.3,3.2C56,247.9,57.4,249.1,59.2,249.1z M61.8,239.9
		c0-1.4-1-2.6-2.6-2.6c-1.4,0-2.5,1-2.5,2.4c0,1.8,1.7,2.5,3.4,3.2C61.2,242,61.8,241,61.8,239.9z"/>
	<path d="M64.9,243.2c0-4.2,1.4-6.6,3.8-6.6c2.4,0,3.8,2.3,3.8,6.6c0,4.3-1.4,6.7-3.8,6.7C66.3,249.8,64.9,247.4,64.9,243.2z
		 M71.6,243.2c0-3.9-1.1-5.8-2.9-5.8c-1.8,0-2.9,1.9-2.9,5.8s1.2,5.9,2.9,5.9C70.5,249.1,71.6,247.1,71.6,243.2z"/>
	<path d="M75.7,248c0.4,0,0.8,0.3,0.8,0.9c0,0.6-0.4,0.9-0.8,0.9c-0.4,0-0.9-0.3-0.9-0.9C74.8,248.4,75.3,248,75.7,248z"/>
	<path d="M78.8,243.2c0-4.2,1.4-6.6,3.8-6.6c2.4,0,3.8,2.3,3.8,6.6c0,4.3-1.4,6.7-3.8,6.7C80.2,249.8,78.8,247.4,78.8,243.2z
		 M85.6,243.2c0-3.9-1.1-5.8-2.9-5.8c-1.8,0-2.9,1.9-2.9,5.8s1.2,5.9,2.9,5.9C84.4,249.1,85.6,247.1,85.6,243.2z"/>
	<path d="M88.3,240.3c0-2.6,1.1-4.1,2.8-4.1c1.7,0,2.8,1.5,2.8,4.1c0,2.7-1.1,4.2-2.8,4.2C89.3,244.5,88.3,243,88.3,240.3z
		 M93.1,240.3c0-2.2-0.8-3.5-2-3.5s-2,1.2-2,3.5c0,2.2,0.8,3.5,2,3.5S93.1,242.5,93.1,240.3z M91.4,249.8l7.4-13.7h0.8l-7.4,13.7
		H91.4z M97.1,245.7c0-2.6,1.1-4.1,2.8-4.1c1.7,0,2.8,1.5,2.8,4.1c0,2.7-1.1,4.2-2.8,4.2C98.2,249.8,97.1,248.4,97.1,245.7z
		 M102,245.7c0-2.2-0.8-3.5-2-3.5c-1.2,0-2,1.2-2,3.5c0,2.2,0.8,3.5,2,3.5C101.2,249.2,102,247.9,102,245.7z"/>
</g>
<g>
	<path d="M62.2,311.9c-0.6-0.7-1.3-1.1-2.2-1.1c-2,0-3.8,1.6-3.8,6.3c0.9-1.1,2-1.8,3.2-1.8c2.2,0,3.6,1.4,3.6,4c0,2.3-1.6,4-3.5,4
		c-2.6,0-4.2-2.2-4.2-6c0-5.4,2.2-7.2,4.7-7.2c1.2,0,2,0.5,2.7,1.2L62.2,311.9z M62.2,319.3c0-1.8-0.8-3.2-2.8-3.2
		c-0.9,0-2.1,0.5-3.1,1.9c0.2,2.7,1.2,4.5,3.3,4.5C61.1,322.6,62.2,321.2,62.2,319.3z"/>
	<path d="M64.9,316.7c0-4.2,1.4-6.6,3.8-6.6c2.4,0,3.8,2.3,3.8,6.6c0,4.3-1.4,6.7-3.8,6.7C66.3,323.3,64.9,320.9,64.9,316.7z
		 M71.6,316.7c0-3.9-1.1-5.8-2.9-5.8c-1.8,0-2.9,1.9-2.9,5.8s1.2,5.9,2.9,5.9C70.5,322.6,71.6,320.6,71.6,316.7z"/>
	<path d="M75.7,321.5c0.4,0,0.8,0.3,0.8,0.9c0,0.6-0.4,0.9-0.8,0.9c-0.4,0-0.9-0.3-0.9-0.9C74.8,321.9,75.3,321.5,75.7,321.5z"/>
	<path d="M78.8,316.7c0-4.2,1.4-6.6,3.8-6.6c2.4,0,3.8,2.3,3.8,6.6c0,4.3-1.4,6.7-3.8,6.7C80.2,323.3,78.8,320.9,78.8,316.7z
		 M85.6,316.7c0-3.9-1.1-5.8-2.9-5.8c-1.8,0-2.9,1.9-2.9,5.8s1.2,5.9,2.9,5.9C84.4,322.6,85.6,320.6,85.6,316.7z"/>
	<path d="M88.3,313.8c0-2.6,1.1-4.1,2.8-4.1c1.7,0,2.8,1.5,2.8,4.1c0,2.7-1.1,4.2-2.8,4.2C89.3,318,88.3,316.5,88.3,313.8z
		 M93.1,313.8c0-2.2-0.8-3.5-2-3.5s-2,1.2-2,3.5c0,2.2,0.8,3.5,2,3.5S93.1,316,93.1,313.8z M91.4,323.3l7.4-13.7h0.8l-7.4,13.7H91.4
		z M97.1,319.2c0-2.6,1.1-4.1,2.8-4.1c1.7,0,2.8,1.5,2.8,4.1c0,2.7-1.1,4.2-2.8,4.2C98.2,323.3,97.1,321.9,97.1,319.2z M102,319.2
		c0-2.2-0.8-3.5-2-3.5c-1.2,0-2,1.2-2,3.5c0,2.2,0.8,3.5,2,3.5C101.2,322.7,102,321.4,102,319.2z"/>
</g>
<g>
	<path d="M63.3,386.8h-1.9v3.8h-0.9v-3.8h-5.9v-0.5l5.9-8.4h0.8v8.2h1.9V386.8z M60.5,386v-4.7c0-0.6,0-1.6,0.1-2.2h-0.1
		c-0.3,0.5-0.7,1-1,1.6l-3.8,5.3H60.5z"/>
	<path d="M64.9,384.2c0-4.2,1.4-6.6,3.8-6.6c2.4,0,3.8,2.3,3.8,6.6c0,4.3-1.4,6.7-3.8,6.7C66.3,390.8,64.9,388.4,64.9,384.2z
		 M71.6,384.2c0-3.9-1.1-5.8-2.9-5.8c-1.8,0-2.9,1.9-2.9,5.8c0,3.9,1.2,5.9,2.9,5.9C70.5,390.1,71.6,388.1,71.6,384.2z"/>
	<path d="M75.7,389c0.4,0,0.8,0.3,0.8,0.9c0,0.6-0.4,0.9-0.8,0.9c-0.4,0-0.9-0.3-0.9-0.9C74.8,389.4,75.3,389,75.7,389z"/>
	<path d="M78.8,384.2c0-4.2,1.4-6.6,3.8-6.6c2.4,0,3.8,2.3,3.8,6.6c0,4.3-1.4,6.7-3.8,6.7C80.2,390.8,78.8,388.4,78.8,384.2z
		 M85.6,384.2c0-3.9-1.1-5.8-2.9-5.8c-1.8,0-2.9,1.9-2.9,5.8c0,3.9,1.2,5.9,2.9,5.9C84.4,390.1,85.6,388.1,85.6,384.2z"/>
	<path d="M88.3,381.3c0-2.6,1.1-4.1,2.8-4.1c1.7,0,2.8,1.5,2.8,4.1c0,2.7-1.1,4.2-2.8,4.2C89.3,385.5,88.3,384,88.3,381.3z
		 M93.1,381.3c0-2.2-0.8-3.5-2-3.5s-2,1.2-2,3.5s0.8,3.5,2,3.5S93.1,383.5,93.1,381.3z M91.4,390.8l7.4-13.7h0.8l-7.4,13.7H91.4z
		 M97.1,386.7c0-2.6,1.1-4.1,2.8-4.1c1.7,0,2.8,1.5,2.8,4.1c0,2.7-1.1,4.2-2.8,4.2C98.2,390.8,97.1,389.4,97.1,386.7z M102,386.7
		c0-2.2-0.8-3.5-2-3.5c-1.2,0-2,1.2-2,3.5c0,2.2,0.8,3.5,2,3.5C101.2,390.2,102,388.9,102,386.7z"/>
</g>
<g>
	<path d="M55.2,460.5c4.2-4.3,6.3-6.6,6.3-8.9c0-1.6-0.9-2.8-2.8-2.8c-1.2,0-2.2,0.7-3,1.7l-0.6-0.6c1-1.1,2.1-1.9,3.6-1.9
		c2.3,0,3.6,1.4,3.6,3.6c0,2.5-2.3,5-5.9,8.7c0.7,0,1.4-0.1,2.1-0.1H63v0.8h-7.8V460.5z"/>
	<path d="M64.9,454.6c0-4.2,1.4-6.6,3.8-6.6c2.4,0,3.8,2.3,3.8,6.6c0,4.3-1.4,6.7-3.8,6.7C66.3,461.3,64.9,458.9,64.9,454.6z
		 M71.6,454.6c0-3.9-1.1-5.8-2.9-5.8c-1.8,0-2.9,1.9-2.9,5.8c0,3.9,1.2,5.9,2.9,5.9C70.5,460.6,71.6,458.6,71.6,454.6z"/>
	<path d="M75.7,459.5c0.4,0,0.8,0.3,0.8,0.9c0,0.6-0.4,0.9-0.8,0.9c-0.4,0-0.9-0.3-0.9-0.9C74.8,459.9,75.3,459.5,75.7,459.5z"/>
	<path d="M78.8,454.6c0-4.2,1.4-6.6,3.8-6.6c2.4,0,3.8,2.3,3.8,6.6c0,4.3-1.4,6.7-3.8,6.7C80.2,461.3,78.8,458.9,78.8,454.6z
		 M85.6,454.6c0-3.9-1.1-5.8-2.9-5.8c-1.8,0-2.9,1.9-2.9,5.8c0,3.9,1.2,5.9,2.9,5.9C84.4,460.6,85.6,458.6,85.6,454.6z"/>
	<path d="M88.3,451.8c0-2.6,1.1-4.1,2.8-4.1c1.7,0,2.8,1.5,2.8,4.1c0,2.7-1.1,4.2-2.8,4.2C89.3,455.9,88.3,454.5,88.3,451.8z
		 M93.1,451.8c0-2.2-0.8-3.5-2-3.5s-2,1.2-2,3.5c0,2.2,0.8,3.5,2,3.5S93.1,454,93.1,451.8z M91.4,461.3l7.4-13.7h0.8l-7.4,13.7H91.4
		z M97.1,457.2c0-2.6,1.1-4.1,2.8-4.1c1.7,0,2.8,1.5,2.8,4.1c0,2.7-1.1,4.2-2.8,4.2C98.2,461.3,97.1,459.9,97.1,457.2z M102,457.2
		c0-2.2-0.8-3.5-2-3.5c-1.2,0-2,1.2-2,3.5s0.8,3.5,2,3.5C101.2,460.7,102,459.4,102,457.2z"/>
</g>
<g>
	<path d="M64.3,520.6c0-4.2,1.4-6.6,3.8-6.6c2.4,0,3.8,2.3,3.8,6.6c0,4.3-1.4,6.7-3.8,6.7C65.7,527.3,64.3,524.9,64.3,520.6z
		 M71,520.6c0-3.9-1.1-5.8-2.9-5.8c-1.8,0-2.9,1.9-2.9,5.8c0,3.9,1.2,5.9,2.9,5.9C69.9,526.6,71,524.5,71,520.6z"/>
	<path d="M75.1,525.5c0.4,0,0.8,0.3,0.8,0.9c0,0.6-0.4,0.9-0.8,0.9c-0.4,0-0.9-0.3-0.9-0.9C74.3,525.8,74.7,525.5,75.1,525.5z"/>
	<path d="M78.3,520.6c0-4.2,1.4-6.6,3.8-6.6c2.4,0,3.8,2.3,3.8,6.6c0,4.3-1.4,6.7-3.8,6.7C79.6,527.3,78.3,524.9,78.3,520.6z
		 M85,520.6c0-3.9-1.1-5.8-2.9-5.8c-1.8,0-2.9,1.9-2.9,5.8c0,3.9,1.2,5.9,2.9,5.9C83.9,526.6,85,524.5,85,520.6z"/>
	<path d="M87.7,517.8c0-2.6,1.1-4.1,2.8-4.1c1.7,0,2.8,1.5,2.8,4.1c0,2.7-1.1,4.2-2.8,4.2C88.8,521.9,87.7,520.5,87.7,517.8z
		 M92.5,517.8c0-2.2-0.8-3.5-2-3.5s-2,1.2-2,3.5s0.8,3.5,2,3.5S92.5,520,92.5,517.8z M90.8,527.3l7.4-13.7H99l-7.4,13.7H90.8z
		 M96.5,523.2c0-2.6,1.1-4.1,2.8-4.1c1.7,0,2.8,1.5,2.8,4.1c0,2.7-1.1,4.2-2.8,4.2C97.6,527.3,96.5,525.8,96.5,523.2z M101.4,523.2
		c0-2.2-0.8-3.5-2-3.5c-1.2,0-2,1.2-2,3.5c0,2.2,0.8,3.5,2,3.5C100.6,526.7,101.4,525.4,101.4,523.2z"/>
</g>
<g>
	<path d="M590.3,353h-2.6v5.2h-3.4V353h-9v-2.5l8-12.6h4.4v12.2h2.6V353z M584.3,350.1v-4.6c0-1.2,0.1-3,0.2-4.2h-0.1
		c-0.5,1.1-1.1,2.1-1.7,3.2l-3.7,5.6H584.3z"/>
	<path d="M593.5,355.2h4.5v-13.3h-3.7v-2.3c2-0.4,3.4-0.9,4.7-1.7h2.7v17.3h4v3h-12.2V355.2z"/>
	<path d="M611.9,353.6c1.3,0,2.4,1.1,2.4,2.5s-1,2.5-2.4,2.5s-2.4-1.1-2.4-2.5S610.6,353.6,611.9,353.6z"/>
	<path d="M621.3,347.8v-0.1c-1.6-1.1-2.8-2.6-2.8-4.8c0-3.3,2.6-5.4,6.1-5.4c3.6,0,6,2.2,6,5.5c0,2-1.4,3.7-2.7,4.7v0.1
		c1.9,1.1,3.5,2.6,3.5,5.3c0,3.1-2.7,5.5-6.9,5.5c-4,0-6.9-2.3-6.9-5.6C617.6,350.5,619.4,348.8,621.3,347.8z M624.6,356
		c1.9,0,3.4-1.1,3.4-3c0-2.2-2.1-3-4.9-4.1c-1.3,0.9-2.2,2.2-2.2,3.8C620.8,354.6,622.5,356,624.6,356z M627.5,343.2
		c0-1.8-1.1-3.1-3-3.1c-1.6,0-2.8,1-2.8,2.8c0,2,1.8,2.9,4.1,3.8C626.9,345.6,627.5,344.5,627.5,343.2z"/>
	<path d="M633.6,343.5c0-4.2,2-6.6,5-6.6s5,2.4,5,6.6c0,4.2-2,6.6-5,6.6S633.6,347.7,633.6,343.5z M640.9,343.5c0-3.1-1-4.4-2.3-4.4
		s-2.3,1.3-2.3,4.4c0,3.1,1,4.5,2.3,4.5S640.9,346.6,640.9,343.5z M639.3,358.6l11.4-21.6h2.2l-11.4,21.6H639.3z M648.6,351.9
		c0-4.2,2-6.6,5-6.6c2.9,0,5,2.4,5,6.6c0,4.2-2,6.6-5,6.6C650.6,358.6,648.6,356.1,648.6,351.9z M655.9,351.9c0-3.1-1-4.4-2.3-4.4
		s-2.3,1.3-2.3,4.4s1,4.5,2.3,4.5S655.9,355.1,655.9,351.9z"/>
</g>
<g>
	<path d="M78.6,84.6h6.8c4.4,0,7.7,1.5,7.7,6.2c0,4.5-3.3,6.5-7.7,6.5h-3.2v7.4h-3.6V84.6z M85.1,94.5c3,0,4.4-1.2,4.4-3.7
		c0-2.5-1.5-3.3-4.4-3.3h-2.9v7H85.1z"/>
	<path d="M101.7,89.2c4.1,0,6.2,3,6.2,7.2c0,0.7-0.1,1.3-0.2,1.7h-9.6c0.3,2.7,2,4.3,4.5,4.3c1.3,0,2.4-0.4,3.5-1.1l1.2,2.2
		c-1.4,1-3.3,1.6-5.2,1.6c-4.2,0-7.4-2.9-7.4-7.9C94.8,92.2,98.2,89.2,101.7,89.2z M104.9,95.8c0-2.4-1-3.8-3.1-3.8
		c-1.8,0-3.3,1.3-3.6,3.8H104.9z"/>
	<path d="M111.4,89.6h2.9l0.2,2.7h0.1c1.1-2,2.7-3,4.3-3c0.8,0,1.3,0.1,1.7,0.3l-0.6,3.1c-0.5-0.2-0.9-0.2-1.6-0.2
		c-1.2,0-2.6,0.8-3.6,3.1v9.2h-3.5V89.6z"/>
	<path d="M129.1,89.2c1.9,0,3.4,0.8,4.4,1.8l-1.7,2.2c-0.8-0.7-1.6-1.1-2.6-1.1c-2.4,0-4.1,2-4.1,5c0,3,1.7,5,4,5
		c1.2,0,2.3-0.6,3.1-1.3l1.5,2.2c-1.4,1.3-3.2,1.9-4.9,1.9c-4.1,0-7.3-2.9-7.3-7.9C121.5,92.1,125.1,89.2,129.1,89.2z"/>
	<path d="M141.9,89.2c4.1,0,6.2,3,6.2,7.2c0,0.7-0.1,1.3-0.2,1.7h-9.6c0.3,2.7,2,4.3,4.5,4.3c1.3,0,2.4-0.4,3.5-1.1l1.2,2.2
		c-1.4,1-3.3,1.6-5.2,1.6c-4.2,0-7.4-2.9-7.4-7.9C135,92.2,138.4,89.2,141.9,89.2z M145.1,95.8c0-2.4-1-3.8-3.1-3.8
		c-1.8,0-3.3,1.3-3.6,3.8H145.1z"/>
	<path d="M151.6,89.6h2.9l0.2,2h0.1c1.4-1.3,2.9-2.4,4.9-2.4c3.2,0,4.6,2.2,4.6,6v9.5h-3.5v-9c0-2.5-0.7-3.4-2.4-3.4
		c-1.3,0-2.2,0.6-3.4,1.9v10.5h-3.5V89.6z"/>
	<path d="M169.3,92.4h-2.2v-2.6l2.3-0.2l0.4-4.1h3v4.1h3.8v2.8h-3.8v7.2c0,1.8,0.7,2.6,2.1,2.6c0.5,0,1.1-0.2,1.6-0.3l0.6,2.6
		c-0.8,0.3-1.9,0.6-3.1,0.6c-3.5,0-4.8-2.2-4.8-5.5V92.4z"/>
	<path d="M192.4,89.2c3.8,0,7.2,2.9,7.2,7.9c0,5-3.4,7.9-7.2,7.9c-3.7,0-7.2-2.9-7.2-7.9C185.2,92.1,188.6,89.2,192.4,89.2z
		 M192.4,102.2c2.2,0,3.6-2,3.6-5c0-3-1.4-5-3.6-5c-2.2,0-3.5,2-3.5,5C188.8,100.2,190.1,102.2,192.4,102.2z"/>
	<path d="M210.6,85.8c-0.6-0.2-1.1-0.4-1.7-0.4c-1.2,0-1.9,0.8-1.9,2.6v1.6h3v2.8h-3v12.3h-3.5V92.4h-2v-2.6l2-0.2V88
		c0-3.1,1.4-5.4,5-5.4c1.1,0,2.1,0.2,2.8,0.5L210.6,85.8z"/>
	<path d="M219.3,84.6h6.8c4.4,0,7.7,1.5,7.7,6.2c0,4.5-3.3,6.5-7.7,6.5h-3.2v7.4h-3.6V84.6z M225.8,94.5c3,0,4.4-1.2,4.4-3.7
		c0-2.5-1.5-3.3-4.4-3.3h-2.9v7H225.8z"/>
	<path d="M244.2,95c0-1.6-0.7-3-2.7-3c-1.5,0-2.9,0.7-4.2,1.5l-1.3-2.4c1.7-1,3.8-2,6.2-2c3.8,0,5.6,2.3,5.6,6.5v8.9h-2.9l-0.3-1.7
		h-0.1c-1.4,1.1-2.9,2-4.7,2c-2.6,0-4.5-1.8-4.5-4.4C235.4,97.4,238.1,95.7,244.2,95z M240.9,102.3c1.2,0,2.2-0.6,3.3-1.7v-3.4
		c-4.1,0.5-5.4,1.6-5.4,3.1C238.8,101.7,239.7,102.3,240.9,102.3z"/>
	<path d="M252.6,92.4h-2.2v-2.6l2.3-0.2l0.4-4.1h3v4.1h3.8v2.8h-3.8v7.2c0,1.8,0.7,2.6,2.1,2.6c0.5,0,1.1-0.2,1.6-0.3l0.6,2.6
		c-0.8,0.3-1.9,0.6-3.1,0.6c-3.5,0-4.8-2.2-4.8-5.5V92.4z"/>
	<path d="M262.8,85c0-1.2,0.9-2,2.2-2c1.3,0,2.2,0.8,2.2,2c0,1.2-0.9,2-2.2,2C263.7,87,262.8,86.1,262.8,85z M263.2,89.6h3.5v15.1
		h-3.5V89.6z"/>
	<path d="M277.2,89.2c4.1,0,6.2,3,6.2,7.2c0,0.7-0.1,1.3-0.2,1.7h-9.6c0.3,2.7,2,4.3,4.5,4.3c1.3,0,2.4-0.4,3.5-1.1l1.2,2.2
		c-1.4,1-3.3,1.6-5.2,1.6c-4.2,0-7.4-2.9-7.4-7.9C270.2,92.2,273.6,89.2,277.2,89.2z M280.3,95.8c0-2.4-1-3.8-3.1-3.8
		c-1.8,0-3.3,1.3-3.6,3.8H280.3z"/>
	<path d="M286.8,89.6h2.9l0.2,2h0.1c1.4-1.3,2.9-2.4,4.9-2.4c3.2,0,4.6,2.2,4.6,6v9.5h-3.5v-9c0-2.5-0.7-3.4-2.4-3.4
		c-1.3,0-2.2,0.6-3.4,1.9v10.5h-3.5V89.6z"/>
	<path d="M304.5,92.4h-2.2v-2.6l2.3-0.2l0.4-4.1h3v4.1h3.8v2.8h-3.8v7.2c0,1.8,0.7,2.6,2.1,2.6c0.5,0,1.1-0.2,1.6-0.3l0.6,2.6
		c-0.8,0.3-1.9,0.6-3.1,0.6c-3.5,0-4.8-2.2-4.8-5.5V92.4z"/>
	<path d="M315.3,100.7c1.4,1,2.6,1.7,4.2,1.7c1.6,0,2.4-0.8,2.4-1.8c0-1.3-1.6-1.8-3.2-2.4c-2-0.7-4.2-1.9-4.2-4.4
		c0-2.6,2.1-4.5,5.5-4.5c2.1,0,3.8,0.9,5,1.8l-1.6,2.2c-1-0.8-2.1-1.3-3.3-1.3c-1.5,0-2.2,0.7-2.2,1.7c0,1.2,1.5,1.7,3.1,2.2
		c2.1,0.8,4.3,1.8,4.3,4.6c0,2.6-2.1,4.7-5.9,4.7c-2.1,0-4.2-0.9-5.7-2.1L315.3,100.7z"/>
	<path d="M333.2,89.6h3.6l1.8,7.8c0.3,1.4,0.5,2.9,0.8,4.3h0.1c0.3-1.5,0.6-2.9,1-4.3l2-7.8h3.2l2,7.8c0.4,1.4,0.7,2.9,1,4.3h0.1
		c0.3-1.5,0.5-2.9,0.8-4.3l1.8-7.8h3.3l-3.8,15.1h-4.2l-1.8-7c-0.3-1.4-0.6-2.8-0.9-4.4h-0.1c-0.3,1.6-0.6,3-0.9,4.4l-1.7,7h-4.1
		L333.2,89.6z"/>
	<path d="M357.2,85c0-1.2,0.9-2,2.2-2c1.3,0,2.2,0.8,2.2,2c0,1.2-0.9,2-2.2,2C358.2,87,357.2,86.1,357.2,85z M357.6,89.6h3.5v15.1
		h-3.5V89.6z"/>
	<path d="M366.2,92.4h-2.2v-2.6l2.3-0.2l0.4-4.1h3v4.1h3.8v2.8h-3.8v7.2c0,1.8,0.7,2.6,2.1,2.6c0.5,0,1.1-0.2,1.6-0.3l0.6,2.6
		c-0.8,0.3-1.9,0.6-3.1,0.6c-3.5,0-4.8-2.2-4.8-5.5V92.4z"/>
	<path d="M376.8,83h3.5v5.6l-0.1,2.9c1.3-1.2,2.8-2.3,4.8-2.3c3.2,0,4.6,2.2,4.6,6v9.5h-3.5v-9c0-2.5-0.7-3.4-2.4-3.4
		c-1.3,0-2.2,0.6-3.4,1.9v10.5h-3.5V83z"/>
	<path d="M408.8,84.2c2.4,0,4.5,1.2,5.7,2.6l-2,2.2c-1-1-2.2-1.7-3.7-1.7c-3.3,0-5.7,2.8-5.7,7.3c0,4.6,2.2,7.3,5.5,7.3
		c1.8,0,3.1-0.7,4.2-2l2,2.2c-1.6,1.9-3.7,2.9-6.3,2.9c-5.1,0-9.1-3.7-9.1-10.4C399.5,88.1,403.6,84.2,408.8,84.2z"/>
	<path d="M424.1,89.2c3.8,0,7.2,2.9,7.2,7.9c0,5-3.4,7.9-7.2,7.9c-3.8,0-7.2-2.9-7.2-7.9C417,92.1,420.4,89.2,424.1,89.2z
		 M424.1,102.2c2.2,0,3.6-2,3.6-5c0-3-1.4-5-3.6-5c-2.2,0-3.5,2-3.5,5C420.6,100.2,421.9,102.2,424.1,102.2z"/>
	<path d="M434.8,89.6h2.9l0.2,2.1h0.1c1.3-1.4,2.7-2.4,4.6-2.4c2.2,0,3.5,1,4.2,2.7c1.4-1.5,3-2.7,4.9-2.7c3.2,0,4.7,2.2,4.7,6v9.5
		h-3.6v-9c0-2.5-0.7-3.4-2.3-3.4c-1,0-2,0.6-3.2,1.9v10.5h-3.5v-9c0-2.5-0.7-3.4-2.3-3.4c-0.9,0-2,0.6-3.2,1.9v10.5h-3.5V89.6z"/>
	<path d="M464.3,105.9v4.7h-3.5V89.6h2.9l0.2,1.6h0.1c1.3-1.1,2.9-2,4.5-2c3.7,0,5.9,3,5.9,7.7c0,5.2-3.1,8.1-6.5,8.1
		c-1.3,0-2.6-0.6-3.9-1.7L464.3,105.9z M467.3,102.1c2,0,3.5-1.8,3.5-5.2c0-3-1-4.8-3.3-4.8c-1.1,0-2.2,0.6-3.3,1.7v7
		C465.4,101.8,466.4,102.1,467.3,102.1z"/>
	<path d="M478.1,83h3.5v18c0,0.9,0.4,1.2,0.8,1.2c0.2,0,0.3,0,0.6-0.1l0.5,2.6c-0.4,0.2-1,0.3-1.9,0.3c-2.5,0-3.4-1.6-3.4-4.2V83z"
		/>
	<path d="M492.4,89.2c4.1,0,6.2,3,6.2,7.2c0,0.7-0.1,1.3-0.2,1.7h-9.6c0.3,2.7,2,4.3,4.5,4.3c1.3,0,2.4-0.4,3.5-1.1l1.2,2.2
		c-1.4,1-3.3,1.6-5.2,1.6c-4.2,0-7.4-2.9-7.4-7.9C485.4,92.2,488.8,89.2,492.4,89.2z M495.5,95.8c0-2.4-1-3.8-3.1-3.8
		c-1.8,0-3.3,1.3-3.6,3.8H495.5z"/>
	<path d="M502,92.4h-2.2v-2.6l2.3-0.2l0.4-4.1h3v4.1h3.8v2.8h-3.8v7.2c0,1.8,0.7,2.6,2.1,2.6c0.5,0,1.1-0.2,1.6-0.3l0.6,2.6
		c-0.8,0.3-1.9,0.6-3.1,0.6c-3.5,0-4.8-2.2-4.8-5.5V92.4z"/>
	<path d="M518.2,89.2c4.1,0,6.2,3,6.2,7.2c0,0.7-0.1,1.3-0.2,1.7h-9.6c0.3,2.7,2,4.3,4.5,4.3c1.3,0,2.4-0.4,3.5-1.1l1.2,2.2
		c-1.4,1-3.3,1.6-5.2,1.6c-4.2,0-7.4-2.9-7.4-7.9C511.3,92.2,514.7,89.2,518.2,89.2z M521.4,95.8c0-2.4-1-3.8-3.1-3.8
		c-1.8,0-3.3,1.3-3.6,3.8H521.4z"/>
	<path d="M543.8,99.2H537l-1.6,5.4h-3.6l6.5-20.1h4.2l6.5,20.1h-3.7L543.8,99.2z M543,96.5l-0.7-2.5c-0.6-2.1-1.2-4.4-1.8-6.6h-0.1
		c-0.6,2.2-1.1,4.5-1.8,6.6l-0.7,2.5H543z"/>
	<path d="M551.5,100.7c1.4,1,2.6,1.7,4.2,1.7c1.6,0,2.4-0.8,2.4-1.8c0-1.3-1.6-1.8-3.2-2.4c-2-0.7-4.2-1.9-4.2-4.4
		c0-2.6,2.1-4.5,5.5-4.5c2.1,0,3.8,0.9,5,1.8l-1.6,2.2c-1-0.8-2.1-1.3-3.3-1.3c-1.5,0-2.2,0.7-2.2,1.7c0,1.2,1.5,1.7,3.1,2.2
		c2.1,0.8,4.3,1.8,4.3,4.6c0,2.6-2.1,4.7-5.9,4.7c-2.1,0-4.2-0.9-5.7-2.1L551.5,100.7z"/>
	<path d="M568.1,105.9v4.7h-3.5V89.6h2.9l0.2,1.6h0.1c1.3-1.1,2.9-2,4.5-2c3.7,0,5.9,3,5.9,7.7c0,5.2-3.1,8.1-6.5,8.1
		c-1.3,0-2.6-0.6-3.9-1.7L568.1,105.9z M571.1,102.1c2,0,3.5-1.8,3.5-5.2c0-3-1-4.8-3.3-4.8c-1.1,0-2.2,0.6-3.3,1.7v7
		C569.2,101.8,570.2,102.1,571.1,102.1z"/>
	<path d="M581.5,85c0-1.2,0.9-2,2.2-2c1.3,0,2.2,0.8,2.2,2c0,1.2-0.9,2-2.2,2C582.4,87,581.5,86.1,581.5,85z M581.9,89.6h3.5v15.1
		h-3.5V89.6z"/>
	<path d="M589.9,89.6h2.9l0.2,2.7h0.1c1.1-2,2.7-3,4.3-3c0.8,0,1.3,0.1,1.7,0.3l-0.6,3.1c-0.5-0.2-0.9-0.2-1.6-0.2
		c-1.2,0-2.6,0.8-3.6,3.1v9.2h-3.5V89.6z"/>
	<path d="M601,85c0-1.2,0.9-2,2.2-2c1.3,0,2.2,0.8,2.2,2c0,1.2-0.9,2-2.2,2C601.9,87,601,86.1,601,85z M601.4,89.6h3.5v15.1h-3.5
		V89.6z"/>
	<path d="M609.5,89.6h2.9l0.2,2h0.1c1.4-1.3,2.9-2.4,4.9-2.4c3.2,0,4.6,2.2,4.6,6v9.5h-3.5v-9c0-2.5-0.7-3.4-2.4-3.4
		c-1.3,0-2.2,0.6-3.4,1.9v10.5h-3.5V89.6z"/>
	<path d="M644.2,104.7l-4.3-7.9h-3.1v7.9h-3.6V84.6h6.8c4.2,0,7.4,1.5,7.4,6c0,3.1-1.6,4.9-4,5.7l4.8,8.4H644.2z M636.8,94h2.9
		c2.7,0,4.2-1.2,4.2-3.4c0-2.3-1.5-3.1-4.2-3.1h-2.9V94z"/>
	<path d="M657,89.2c4.1,0,6.2,3,6.2,7.2c0,0.7-0.1,1.3-0.2,1.7h-9.6c0.3,2.7,2,4.3,4.5,4.3c1.3,0,2.4-0.4,3.5-1.1l1.2,2.2
		c-1.4,1-3.3,1.6-5.2,1.6c-4.2,0-7.4-2.9-7.4-7.9C650.1,92.2,653.5,89.2,657,89.2z M660.2,95.8c0-2.4-1-3.8-3.1-3.8
		c-1.8,0-3.3,1.3-3.6,3.8H660.2z"/>
	<path d="M666.8,100.7c1.4,1,2.6,1.7,4.2,1.7c1.6,0,2.4-0.8,2.4-1.8c0-1.3-1.6-1.8-3.2-2.4c-2-0.7-4.2-1.9-4.2-4.4
		c0-2.6,2.1-4.5,5.5-4.5c2.1,0,3.8,0.9,5,1.8l-1.6,2.2c-1-0.8-2.1-1.3-3.3-1.3c-1.5,0-2.2,0.7-2.2,1.7c0,1.2,1.5,1.7,3.1,2.2
		c2.1,0.8,4.3,1.8,4.3,4.6c0,2.6-2.1,4.7-5.9,4.7c-2.1,0-4.2-0.9-5.7-2.1L666.8,100.7z"/>
	<path d="M683.4,105.9v4.7h-3.5V89.6h2.9l0.2,1.6h0.1c1.3-1.1,2.9-2,4.5-2c3.7,0,5.9,3,5.9,7.7c0,5.2-3.1,8.1-6.5,8.1
		c-1.3,0-2.6-0.6-3.9-1.7L683.4,105.9z M686.5,102.1c2,0,3.5-1.8,3.5-5.2c0-3-1-4.8-3.3-4.8c-1.1,0-2.2,0.6-3.3,1.7v7
		C684.5,101.8,685.6,102.1,686.5,102.1z"/>
	<path d="M703.4,89.2c3.8,0,7.2,2.9,7.2,7.9c0,5-3.4,7.9-7.2,7.9c-3.7,0-7.2-2.9-7.2-7.9C696.3,92.1,699.7,89.2,703.4,89.2z
		 M703.4,102.2c2.2,0,3.6-2,3.6-5c0-3-1.4-5-3.6-5c-2.2,0-3.5,2-3.5,5C699.9,100.2,701.2,102.2,703.4,102.2z"/>
	<path d="M714.1,89.6h2.9l0.2,2h0.1c1.4-1.3,2.9-2.4,4.9-2.4c3.2,0,4.6,2.2,4.6,6v9.5h-3.5v-9c0-2.5-0.7-3.4-2.4-3.4
		c-1.3,0-2.2,0.6-3.4,1.9v10.5h-3.5V89.6z"/>
	<path d="M731.5,100.7c1.4,1,2.6,1.7,4.2,1.7c1.6,0,2.4-0.8,2.4-1.8c0-1.3-1.6-1.8-3.2-2.4c-2-0.7-4.2-1.9-4.2-4.4
		c0-2.6,2.1-4.5,5.5-4.5c2.1,0,3.8,0.9,5,1.8l-1.6,2.2c-1-0.8-2.1-1.3-3.3-1.3c-1.5,0-2.2,0.7-2.2,1.7c0,1.2,1.5,1.7,3.1,2.2
		c2.1,0.8,4.3,1.8,4.3,4.6c0,2.6-2.1,4.7-5.9,4.7c-2.1,0-4.2-0.9-5.7-2.1L731.5,100.7z"/>
	<path d="M750.5,89.2c4.1,0,6.2,3,6.2,7.2c0,0.7-0.1,1.3-0.2,1.7H747c0.3,2.7,2,4.3,4.5,4.3c1.3,0,2.4-0.4,3.5-1.1l1.2,2.2
		c-1.4,1-3.3,1.6-5.2,1.6c-4.2,0-7.4-2.9-7.4-7.9C743.6,92.2,747,89.2,750.5,89.2z M753.7,95.8c0-2.4-1-3.8-3.1-3.8
		c-1.8,0-3.3,1.3-3.6,3.8H753.7z"/>
</g>
</svg>
