<svg id="Layer_1" data-name="Layer 1" xmlns="http://www.w3.org/2000/svg" viewBox="0 0 179.53 92.58"><defs><style>.cls-1{fill:#007dc3;}.cls-2,.cls-3{fill:#fff;}.cls-3{fill-rule:evenodd;}.cls-4{fill:#b6cbe9;}</style></defs><title>PP_BlueSky_DollarsatWork</title><rect class="cls-1" width="179.53" height="92.58" rx="4.5" ry="4.5"/><path class="cls-2" d="M93.43,78.77c0,2.12,1.38,2.83,3.26,2.83h2.4v1.65h-2.5a5.22,5.22,0,0,1-3.33-.83,4.23,4.23,0,0,1-1.64-3.72c0-3.34,1.59-4.89,5-4.89h2.44v1.62h-2.4a3,3,0,0,0-3.26,3.36" transform="translate(-7.16 -8.55)"/><path class="cls-3" d="M83.84,83.19H81.7l4.62-9.44h1.74l4.51,9.44H90.47l-0.86-1.77H84.7l-0.87,1.77h0Zm1.63-3.41h3.36l-1.65-3.38h0l-1.68,3.38" transform="translate(-7.16 -8.55)"/><path class="cls-3" d="M140.23,73.77c1.75,0,4.9.2,4.9,4.88,0,4.4-2.93,4.75-4.87,4.75-1.75,0-5-.35-5-4.75s3.2-4.88,5-4.88h0Zm0,7.8c1.69,0,2.81-.52,2.81-3.06,0-2.73-1.31-3.17-2.81-3.17s-2.81.44-2.81,3.17c0,2.54,1.31,3.06,2.81,3.06" transform="translate(-7.16 -8.55)"/><polyline class="cls-3" points="147.27 71.19 147.27 71.19 149.09 65.27 151.12 65.27 148.31 74.71 146.34 74.71 144.4 68.81 142.41 74.71 140.54 74.71 137.58 65.27 139.62 65.27 141.48 71.19 143.32 65.27 145.41 65.27 147.27 71.19"/><polyline class="cls-3" points="158.98 66.99 153.68 66.99 153.68 68.98 158.33 68.98 158.33 70.81 153.68 70.81 153.68 73.07 158.99 73.07 158.99 74.7 151.72 74.7 151.72 65.27 158.98 65.27 158.98 66.99"/><path class="cls-3" d="M172.12,79.67H169v3.59h-1.83V73.82h5.4A2.84,2.84,0,0,1,174,79.21l2.64,4h-2.18l-2.31-3.57h0Zm0-1.72c1,0,1.52-.35,1.52-1.27a1.2,1.2,0,0,0-1.36-1.22H169V78h3" transform="translate(-7.16 -8.55)"/><path class="cls-3" d="M127.77,83.24H125.9V73.82h6.16a2.4,2.4,0,0,1,2.58,1.55,5.88,5.88,0,0,1,.1,2.91,2.29,2.29,0,0,1-2.51,1.89h-4.47v3.07h0Zm3.73-4.68A1.28,1.28,0,0,0,133.06,77c0-1.15-.45-1.59-1.68-1.59h-3.62v3.12h3.74" transform="translate(-7.16 -8.55)"/><path class="cls-3" d="M76.15,83.23H74.27V73.81h6.16A2.4,2.4,0,0,1,83,75.36a5.84,5.84,0,0,1,.1,2.91,2.29,2.29,0,0,1-2.5,1.89H76.15v3.07h0Zm3.73-4.69A1.28,1.28,0,0,0,81.43,77c0-1.15-.45-1.59-1.68-1.59H76.13v3.12h3.74" transform="translate(-7.16 -8.55)"/><rect class="cls-2" x="92.75" y="65.28" width="1.94" height="9.45"/><polyline class="cls-3" points="95.57 74.66 95.57 65.22 102.83 65.22 102.83 66.94 97.53 66.94 97.53 68.93 102.18 68.93 102.18 70.76 97.53 70.76 97.54 74.65 95.57 74.66"/><rect class="cls-2" x="103.64" y="65.25" width="1.94" height="9.45"/><path class="cls-2" d="M115.27,78.77c0,2.12,1.38,2.83,3.26,2.83h2.4v1.65h-2.5a5.22,5.22,0,0,1-3.33-.83,4.23,4.23,0,0,1-1.63-3.72c0-3.34,1.59-4.89,5-4.89h2.44v1.62h-2.4a3,3,0,0,0-3.26,3.36" transform="translate(-7.16 -8.55)"/><polyline class="cls-2" points="64.39 71.87 61.19 74.3 60.74 74.3 64.39 71.06 64.39 70.37 59.37 74.3 58.91 74.3 64.4 69.25 64.4 68.75 57.54 74.3 57.08 74.3 64.4 67.28 64.4 67.01 55.68 74.32 64.4 83.04 64.4 73.28 63 74.3 62.57 74.3 64.4 72.74 64.39 71.87"/><polyline class="cls-2" points="55.45 74.09 64.4 65.15 64.4 65.15 46.51 65.15 55.45 74.09"/><path class="cls-2" d="M81,16.68l-0.07,0-0.07,0c-0.09,0-9.47,4.64-10.24,5S67.13,23,66.56,23.18A0.58,0.58,0,0,0,66.17,23a0.67,0.67,0,0,0-.65.56,0.36,0.36,0,0,0,.23.35,10.41,10.41,0,0,0-.58,2.83,9.83,9.83,0,0,1-.22,1.46c-0.29,1-4.73,10.38-4.78,10.47L60,39l0.42,0,0-.07c0.21-.38,5.15-9.41,5.32-10.57a16.46,16.46,0,0,1,.72-3.11l0,1.79a1.54,1.54,0,0,1,.36-0.75c0,0.36-.6,32-0.6,32h2.48L68.17,25.46l0.42,0a1.06,1.06,0,0,0,.52-0.09,0.94,0.94,0,0,0,.19-1.12,4.09,4.09,0,0,0-1-.8,29.79,29.79,0,0,0,3-1.18c1.3-.63,9.67-5.23,9.76-5.27l0.34-.17ZM64.55,21.11a12.65,12.65,0,0,0,1.16,1.49l0.08,0.08,0.1,0L66,22.58l0.18-.08-0.1-.16c-0.86-1.34-1.64-2.45-1.87-2.73C63.56,18.82,60,15,58.9,13.83H58.57l0.21,0.26c0.16,0.19,3.82,4.75,4.94,5.91A10.66,10.66,0,0,1,64.55,21.11Z" transform="translate(-7.16 -8.55)"/><path class="cls-2" d="M20,45.66c3.39,0,4.18,1.79,4.18,3.24a3,3,0,0,1-1.81,2.8c1.91,0.41,2.91,1.51,2.91,3.19,0,2.06-1.66,3.33-4.22,3.33H17.4V45.66H20Zm-1.64,5.82h1.34c2.54,0,3.42-1,3.42-2.5,0-1.92-1.51-2.5-3.46-2.5H18.38v5Zm0,5.93H21c2.6,0,3.28-1.4,3.28-2.54s-0.66-2.58-3.7-2.58H18.38v5.12Z" transform="translate(-7.16 -8.55)"/><path class="cls-2" d="M27.58,57.41h6.21v0.81H26.61V45.66h1V57.41Z" transform="translate(-7.16 -8.55)"/><path class="cls-2" d="M44.79,45.66v6.85c0,4.31-2.71,5.87-5.27,5.87-2.84,0-5.25-1.88-5.25-5.65V45.66h1v7c0,3.3,2,4.79,4.27,4.79s4.29-1.34,4.29-4.92V45.66h1Z" transform="translate(-7.16 -8.55)"/><path class="cls-2" d="M53.3,46.47H47.43v5h5.73v0.81H47.43v5.1h6v0.81h-7V45.66H53.3v0.81Z" transform="translate(-7.16 -8.55)"/><path class="cls-2" d="M64.32,48.88a7,7,0,0,0-3.61-1.31c-1,0-1.64.47-1.64,1.14s0.83,1.22,3,2.5,2.8,2.22,2.8,3.5c0,2.2-1.75,3.67-4.11,3.67a8.66,8.66,0,0,1-4.33-1.14V54.58a8,8,0,0,0,4.08,1.64c1-.06,1.83-0.53,1.83-1.42,0-1.72-5.83-2.64-5.83-6,0-2.11,1.61-3.39,4.11-3.39a7.75,7.75,0,0,1,3.67,1v2.45Z" transform="translate(-7.16 -8.55)"/><path class="cls-2" d="M72,51.77l6.45,6.36H75.12l-6.25-6.36,5.53-6.11h2.95Z" transform="translate(-7.16 -8.55)"/><path class="cls-2" d="M81,63.36H78.28l3.93-7.88-4.84-9.81h2.81l3.36,7,3.22-7h2.78Z" transform="translate(-7.16 -8.55)"/><path class="cls-2" d="M91.08,46.13A0.8,0.8,0,0,0,90.67,46a0.16,0.16,0,0,0-.19.13,0.61,0.61,0,0,0,.35.29,0.51,0.51,0,0,1,.32.4,0.43,0.43,0,0,1-.47.42,1,1,0,0,1-.5-0.13V46.78a0.91,0.91,0,0,0,.47.19,0.19,0.19,0,0,0,.21-0.16c0-.2-0.67-0.3-0.67-0.69a0.4,0.4,0,0,1,.47-0.39,0.9,0.9,0,0,1,.42.12v0.28Z" transform="translate(-7.16 -8.55)"/><path class="cls-2" d="M91.73,45.76v0.19a0.61,0.61,0,0,1,.42-0.22,0.47,0.47,0,0,1,.43.26A0.64,0.64,0,0,1,93,45.73a0.49,0.49,0,0,1,.47.56v0.9H93.24V46.3a0.3,0.3,0,0,0-.3-0.33,0.51,0.51,0,0,0-.32.18v1H92.34V46.3A0.27,0.27,0,0,0,92.08,46a0.42,0.42,0,0,0-.36.18v1H91.44V45.76h0.28Z" transform="translate(-7.16 -8.55)"/><path class="cls-2" d="M17.94,60.87v0.58h0a1,1,0,0,1,.73-0.63,0.89,0.89,0,0,1,.61.29L19,61.55a0.83,0.83,0,0,0-.47-0.25,0.71,0.71,0,0,0-.62.78v1.33h-0.5V60.87h0.5Z" transform="translate(-7.16 -8.55)"/><path class="cls-2" d="M23,63.16a1.66,1.66,0,0,1-1,.3,1.25,1.25,0,0,1-1.23-1.35A1.18,1.18,0,0,1,22,60.82a1.15,1.15,0,0,1,1.1,1.4H21.28a0.8,0.8,0,0,0,.85.76A1.62,1.62,0,0,0,23,62.67v0.49Zm-0.45-1.28A0.58,0.58,0,0,0,22,61.26a0.66,0.66,0,0,0-.68.63h1.28Z" transform="translate(-7.16 -8.55)"/><path class="cls-2" d="M25.44,61.2h0a1,1,0,0,1,.76-0.38,0.88,0.88,0,0,1,.86,1v1.57h-0.5V61.84a0.53,0.53,0,0,0-.5-0.62,0.83,0.83,0,0,0-.63.37v1.82h-0.5V60.87h0.5V61.2Z" transform="translate(-7.16 -8.55)"/><path class="cls-2" d="M31.18,63.16a1.65,1.65,0,0,1-1,.3,1.25,1.25,0,0,1-1.23-1.35,1.18,1.18,0,0,1,1.19-1.29,1.15,1.15,0,0,1,1.1,1.4H29.44a0.8,0.8,0,0,0,.85.76,1.61,1.61,0,0,0,.89-0.31v0.49Zm-0.45-1.28a0.58,0.58,0,0,0-.59-0.63,0.66,0.66,0,0,0-.68.63h1.28Z" transform="translate(-7.16 -8.55)"/><path class="cls-2" d="M35.53,62.41l0.66-1.54h0.54l-1.12,2.59H35.45L34.7,61.68,34,63.46H33.79l-1.13-2.59H33.2l0.67,1.54,0.64-1.54h0.37Z" transform="translate(-7.16 -8.55)"/><path class="cls-2" d="M40.42,63.26a0.81,0.81,0,0,1-.49.2,0.33,0.33,0,0,1-.38-0.26,1.09,1.09,0,0,1-.68.26,0.61,0.61,0,0,1-.62-0.62,1,1,0,0,1,.86-0.8l0.45-.16V61.74a0.39,0.39,0,0,0-.46-0.45,1,1,0,0,0-.8.42V61.16a1,1,0,0,1,.84-0.34,0.81,0.81,0,0,1,.92.84V63c0,0.1,0,.13.1,0.13A0.61,0.61,0,0,0,40.42,63v0.3Zm-0.86-1.11a0.92,0.92,0,0,0-.8.59,0.35,0.35,0,0,0,.36.36,0.65,0.65,0,0,0,.44-0.21V62.15Z" transform="translate(-7.16 -8.55)"/><path class="cls-2" d="M42.66,61.05a1.12,1.12,0,0,1,1.8,1,1.26,1.26,0,0,1-1.36,1.37,2.34,2.34,0,0,1-.94-0.19V59.55h0.5v1.5Zm0,1.85a2.05,2.05,0,0,0,.51.08,0.77,0.77,0,0,0,.77-0.83,0.76,0.76,0,0,0-.71-0.89,0.8,0.8,0,0,0-.58.26v1.37Z" transform="translate(-7.16 -8.55)"/><path class="cls-2" d="M46.84,63.41h-0.5V59.55h0.5v3.85Z" transform="translate(-7.16 -8.55)"/><path class="cls-2" d="M51,63.16a1.65,1.65,0,0,1-1,.3,1.25,1.25,0,0,1-1.23-1.35,1.18,1.18,0,0,1,1.19-1.29,1.15,1.15,0,0,1,1.1,1.4H49.23a0.8,0.8,0,0,0,.85.76A1.61,1.61,0,0,0,51,62.67v0.49Zm-0.45-1.28a0.58,0.58,0,0,0-.59-0.63,0.66,0.66,0,0,0-.68.63h1.28Z" transform="translate(-7.16 -8.55)"/><path class="cls-2" d="M56.72,63.16a1.65,1.65,0,0,1-1,.3,1.25,1.25,0,0,1-1.23-1.35,1.18,1.18,0,0,1,1.19-1.29,1.15,1.15,0,0,1,1.1,1.4H55a0.8,0.8,0,0,0,.85.76,1.61,1.61,0,0,0,.89-0.31v0.49Zm-0.45-1.28a0.58,0.58,0,0,0-.59-0.63,0.66,0.66,0,0,0-.68.63h1.28Z" transform="translate(-7.16 -8.55)"/><path class="cls-2" d="M59.15,61.2h0a1,1,0,0,1,.76-0.38,0.88,0.88,0,0,1,.86,1v1.57h-0.5V61.84a0.53,0.53,0,0,0-.5-0.62,0.83,0.83,0,0,0-.63.37v1.82h-0.5V60.87h0.5V61.2Z" transform="translate(-7.16 -8.55)"/><path class="cls-2" d="M64.89,63.16a1.66,1.66,0,0,1-1,.3,1.25,1.25,0,0,1-1.23-1.35,1.18,1.18,0,0,1,1.19-1.29,1.15,1.15,0,0,1,1.1,1.4H63.15A0.8,0.8,0,0,0,64,63a1.62,1.62,0,0,0,.89-0.31v0.49Zm-0.45-1.28a0.58,0.58,0,0,0-.59-0.63,0.66,0.66,0,0,0-.68.63h1.28Z" transform="translate(-7.16 -8.55)"/><path class="cls-2" d="M67.34,60.87v0.58h0a1,1,0,0,1,.74-0.63,0.89,0.89,0,0,1,.6.29l-0.27.44A0.83,0.83,0,0,0,68,61.3a0.71,0.71,0,0,0-.62.78v1.33h-0.5V60.87h0.5Z" transform="translate(-7.16 -8.55)"/><path class="cls-2" d="M72.37,61.26H71.85a0.71,0.71,0,0,1,.27.55,0.9,0.9,0,0,1-.24.57c-0.34.36-1,.18-1,0.48a0.9,0.9,0,0,0,.77.33,0.74,0.74,0,0,1,.73.71,1,1,0,0,1-1.2.81A1,1,0,0,1,70,63.94a0.69,0.69,0,0,1,.64-0.7,0.41,0.41,0,0,1-.25-0.32,0.44,0.44,0,0,1,.4-0.36h0a1,1,0,0,1-.42-0.32,0.81,0.81,0,0,1-.14-0.47,0.94,0.94,0,0,1,1.11-.88h1v0.39ZM71,63.53a0.49,0.49,0,0,0-.58.38c0,0.25.25,0.39,0.71,0.39s0.7-.13.7-0.37S71.35,63.53,71,63.53Zm0.13-2.23a0.48,0.48,0,0,0-.5.46,0.5,0.5,0,0,0,1,0A0.48,0.48,0,0,0,71.17,61.31Z" transform="translate(-7.16 -8.55)"/><path class="cls-2" d="M74.57,64.71H74l0.86-1.84-1-2h0.57l0.68,1.43,0.66-1.43h0.57Z" transform="translate(-7.16 -8.55)"/><path class="cls-2" d="M66.34,58.3h2.48L68.6,45.8h-2Z" transform="translate(-7.16 -8.55)"/><path class="cls-4" d="M102,37h1.2l-2.58,3.28V44h-1V40.29L97,37h1.2l1.86,2.39Z" transform="translate(-7.16 -8.55)"/><path class="cls-4" d="M100.65,44H99.54V40.31L96.89,37h1.36l1.83,2.36L101.94,37h1.36l-2.64,3.36V44Zm-1-.12h0.88V40.26l2.5-3.18h-1l-1.91,2.43-1.89-2.43h-1l2.51,3.19v3.64Z" transform="translate(-7.16 -8.55)"/><path class="cls-4" d="M107.15,36.93a3.57,3.57,0,1,1-3.73,3.56A3.54,3.54,0,0,1,107.15,36.93Zm0,6.21a2.65,2.65,0,1,0-2.7-2.65A2.61,2.61,0,0,0,107.15,43.14Z" transform="translate(-7.16 -8.55)"/><path class="cls-4" d="M107.13,44.12a3.63,3.63,0,1,1,3.82-3.62A3.62,3.62,0,0,1,107.13,44.12Zm0-7.13a3.51,3.51,0,1,0,3.68,3.5A3.51,3.51,0,0,0,107.15,37Zm0,6.21a2.67,2.67,0,0,1-2.76-2.71,2.77,2.77,0,0,1,5.53,0A2.68,2.68,0,0,1,107.15,43.2Zm0-5.29a2.53,2.53,0,0,0-2.64,2.59A2.64,2.64,0,1,0,107.15,37.91Z" transform="translate(-7.16 -8.55)"/><path class="cls-4" d="M118.43,41.24c0,1.7-1,2.82-3.08,2.82a2.65,2.65,0,0,1-2.89-2.72V37h1v4.1a1.72,1.72,0,0,0,.42,1.43,2,2,0,0,0,1.5.59,2.27,2.27,0,0,0,1.63-.56,2,2,0,0,0,.44-1.52V37h1v4.22Z" transform="translate(-7.16 -8.55)"/><path class="cls-4" d="M115.34,44.12a2.7,2.7,0,0,1-3-2.78V37h1.12v4.16a1.68,1.68,0,0,0,.4,1.38,2,2,0,0,0,1.45.57,2.16,2.16,0,0,0,1.59-.54,2,2,0,0,0,.42-1.47V37h1.12v4.28C118.49,43.07,117.34,44.12,115.34,44.12Zm-2.83-7v4.26A2.59,2.59,0,0,0,115.34,44c1.92,0,3-1,3-2.76V37.08h-0.88v4a2.11,2.11,0,0,1-.46,1.56,2.28,2.28,0,0,1-1.67.58,2.09,2.09,0,0,1-1.54-.61,1.78,1.78,0,0,1-.44-1.47v-4h-0.88Z" transform="translate(-7.16 -8.55)"/><path class="cls-4" d="M122.11,37c1.41,0,2.28.74,2.28,1.94a1.74,1.74,0,0,1-1.16,1.7,5.67,5.67,0,0,1,1.55,1.92c0.29,0.48.47,0.71,0.95,1.37h-1.19l-0.92-1.43c-0.92-1.43-1.33-1.59-1.84-1.59h-0.42v3h-1V37h1.75Zm-0.75,3H122a1.11,1.11,0,0,0,1.36-1.13c0-.65-0.4-1-1.36-1h-0.64v2.18Z" transform="translate(-7.16 -8.55)"/><path class="cls-4" d="M125.85,44H124.5l0,0-0.92-1.43c-0.93-1.45-1.33-1.56-1.79-1.56h-0.36v3H120.3V37h1.81c1.44,0,2.34.77,2.34,2a1.78,1.78,0,0,1-1.1,1.71,6,6,0,0,1,1.45,1.85l0,0c0.28,0.45.45,0.68,0.86,1.25Zm-1.28-.12h1l0,0c-0.42-.57-0.59-0.81-0.86-1.26l0,0a5.51,5.51,0,0,0-1.51-1.87l-0.1-.06,0.11,0A1.68,1.68,0,0,0,124.33,39c0-1.16-.85-1.88-2.22-1.88h-1.69v6.82h0.88v-3h0.48c0.58,0,1,.24,1.89,1.62ZM122,40.12h-0.7v-2.3H122c0.93,0,1.41.37,1.43,1.11a1.1,1.1,0,0,1-.29.82A1.54,1.54,0,0,1,122,40.12ZM121.42,40H122a1.42,1.42,0,0,0,1-.33,1,1,0,0,0,.26-0.74c0-.67-0.44-1-1.3-1h-0.58V40Z" transform="translate(-7.16 -8.55)"/><path class="cls-4" d="M130.15,37h2.7a3.43,3.43,0,0,1,3.7,3.47A3.51,3.51,0,0,1,132.86,44h-2.71V37Zm1,6h1.59a2.55,2.55,0,0,0,2.78-2.58,2.51,2.51,0,0,0-2.83-2.58h-1.54v5.15Z" transform="translate(-7.16 -8.55)"/><path class="cls-4" d="M132.86,44h-2.77V37h2.76a3.49,3.49,0,0,1,3.76,3.53A3.56,3.56,0,0,1,132.86,44Zm-2.65-.12h2.65a3.44,3.44,0,0,0,3.63-3.41,3.37,3.37,0,0,0-3.64-3.41h-2.64v6.82Zm2.53-.77h-1.65V37.86h1.6a2.57,2.57,0,0,1,2.89,2.64A2.6,2.6,0,0,1,132.74,43.13ZM131.21,43h1.53a2.48,2.48,0,0,0,2.72-2.52A2.45,2.45,0,0,0,132.69,38h-1.48v5Z" transform="translate(-7.16 -8.55)"/><path class="cls-4" d="M141.57,36.93a3.57,3.57,0,1,1-3.73,3.56A3.54,3.54,0,0,1,141.57,36.93Zm0,6.21a2.65,2.65,0,1,0-2.7-2.65A2.61,2.61,0,0,0,141.57,43.14Z" transform="translate(-7.16 -8.55)"/><path class="cls-4" d="M141.55,44.12a3.63,3.63,0,1,1,3.82-3.62A3.62,3.62,0,0,1,141.55,44.12Zm0-7.13a3.51,3.51,0,1,0,3.68,3.5A3.51,3.51,0,0,0,141.57,37Zm0,6.21a2.67,2.67,0,0,1-2.76-2.71,2.77,2.77,0,0,1,5.53,0A2.68,2.68,0,0,1,141.57,43.2Zm0-5.29a2.53,2.53,0,0,0-2.64,2.59A2.64,2.64,0,1,0,141.57,37.91Z" transform="translate(-7.16 -8.55)"/><path class="cls-4" d="M148,43.07h3.14V44H147V37h1v6Z" transform="translate(-7.16 -8.55)"/><path class="cls-4" d="M151.17,44h-4.26V37H148v6h3.14v1ZM147,43.91h4V43.13h-3.14v-6H147v6.82Z" transform="translate(-7.16 -8.55)"/><path class="cls-4" d="M153.36,43.07h3.14V44h-4.13V37h1v6Z" transform="translate(-7.16 -8.55)"/><path class="cls-4" d="M156.56,44H152.3V37h1.12v6h3.14v1Zm-4.13-.12h4V43.13H153.3v-6h-0.88v6.82Z" transform="translate(-7.16 -8.55)"/><path class="cls-4" d="M164.18,44h-1l-0.93-2h-3l-0.88,2h-1l3-7h0.7ZM159.66,41h2.16l-1.12-2.52Z" transform="translate(-7.16 -8.55)"/><path class="cls-4" d="M164.27,44h-1.15l-0.93-2h-2.87l-0.87,2h-1.15l0-.08,3-7h0.78l0,0Zm-1.07-.12h0.89L161,37h-0.62l-2.93,6.86h0.89l0.88-2h3Zm-1.28-2.82h-2.34l1.13-2.73ZM159.75,41h2l-1-2.3Z" transform="translate(-7.16 -8.55)"/><path class="cls-4" d="M167.15,37c1.41,0,2.28.74,2.28,1.94a1.74,1.74,0,0,1-1.16,1.7,5.67,5.67,0,0,1,1.55,1.92c0.3,0.48.47,0.71,0.95,1.37h-1.19l-0.92-1.43c-0.92-1.43-1.33-1.59-1.84-1.59H166.4v3h-1V37h1.75Zm-0.75,3H167a1.11,1.11,0,0,0,1.36-1.13c0-.65-0.4-1-1.36-1H166.4v2.18Z" transform="translate(-7.16 -8.55)"/><path class="cls-4" d="M170.89,44h-1.34l0,0-0.92-1.43c-0.93-1.45-1.33-1.56-1.79-1.56h-0.36v3h-1.12V37h1.81c1.44,0,2.34.77,2.34,2a1.78,1.78,0,0,1-1.1,1.71,6,6,0,0,1,1.45,1.85l0,0c0.28,0.45.45,0.68,0.86,1.25Zm-1.28-.12h1l0,0c-0.41-.57-0.59-0.81-0.86-1.26l0,0a5.52,5.52,0,0,0-1.51-1.87l-0.1-.06,0.11,0A1.68,1.68,0,0,0,169.37,39c0-1.16-.85-1.88-2.22-1.88h-1.69v6.82h0.88v-3h0.48c0.58,0,1,.24,1.89,1.62ZM167,40.12h-0.7v-2.3H167c0.93,0,1.41.37,1.42,1.11a1.1,1.1,0,0,1-.29.82A1.54,1.54,0,0,1,167,40.12ZM166.46,40H167a1.43,1.43,0,0,0,1-.33,1,1,0,0,0,.26-0.74c0-.67-0.44-1-1.3-1h-0.58V40Z" transform="translate(-7.16 -8.55)"/><path class="cls-4" d="M175.3,38.55a2.33,2.33,0,0,0-1.63-.72,1,1,0,0,0-1.1.82c0,1.33,3,1.31,3,3.52a1.86,1.86,0,0,1-1.95,1.88,3.06,3.06,0,0,1-1.94-.64V42.15a2.34,2.34,0,0,0,1.83,1,1,1,0,0,0,1.13-.88c0-1.44-3-1.6-3-3.5a1.87,1.87,0,0,1,2.11-1.85,2.78,2.78,0,0,1,1.55.49v1.13Z" transform="translate(-7.16 -8.55)"/><path class="cls-4" d="M173.63,44.12a3.13,3.13,0,0,1-2-.65l0,0V42l0.11,0.14a2.27,2.27,0,0,0,1.79,1,0.94,0.94,0,0,0,1.07-.82c0-.63-0.64-1-1.31-1.43s-1.69-1-1.69-2.08a1.92,1.92,0,0,1,2.17-1.91,2.86,2.86,0,0,1,1.58.5l0,0v1.3l-0.1-.1a2.29,2.29,0,0,0-1.59-.71,0.89,0.89,0,0,0-1,.76,1.73,1.73,0,0,0,1.19,1.22c0.85,0.48,1.81,1,1.81,2.3A1.91,1.91,0,0,1,173.63,44.12Zm-1.88-.73a3,3,0,0,0,1.88.61,1.79,1.79,0,0,0,1.88-1.82c0-1.21-.93-1.73-1.75-2.2a1.83,1.83,0,0,1-1.25-1.33,1,1,0,0,1,1.16-.88,2.35,2.35,0,0,1,1.57.65v-1a2.73,2.73,0,0,0-1.49-.46,1.81,1.81,0,0,0-2,1.79c0,1,.83,1.49,1.63,2s1.37,0.83,1.37,1.53a1.06,1.06,0,0,1-1.19.94,2.36,2.36,0,0,1-1.77-.9v1.06Z" transform="translate(-7.16 -8.55)"/><path class="cls-4" d="M108.92,58h-1L106,53.8h-6L98.08,58h-1l5.65-12.33h0.52ZM103,47.25L100.38,53h5.26Z" transform="translate(-7.16 -8.55)"/><path class="cls-4" d="M109.3,58.27h-1.52L105.84,54h-5.66l-1.94,4.24H96.71l5.87-12.81h0.83Zm-1.21-.49h0.45l-5.43-11.84H102.9L97.47,57.79h0.45l1.94-4.24h6.29ZM106,53.25h-6l3-6.59Zm-5.26-.49h4.5L103,47.83Z" transform="translate(-7.16 -8.55)"/><path class="cls-4" d="M117.51,46.58h-4.59V58h-1V46.58h-4.59V45.79h10.14v0.79Z" transform="translate(-7.16 -8.55)"/><path class="cls-4" d="M113.16,58.27h-1.44V46.82h-4.59V45.55h10.63v1.27h-4.59V58.27Zm-1-.49h0.47V46.34h4.59V46h-9.65v0.3h4.59V57.79Z" transform="translate(-7.16 -8.55)"/><path class="cls-4" d="M134.84,58.14H134.5l-4-10-4.06,10h-0.34l-5-12.35h1.76l3.37,8.43,3.39-8.43h1.67l3.41,8.43,3.34-8.43h1.74Z" transform="translate(-7.16 -8.55)"/><path class="cls-4" d="M135,58.38h-0.67l-3.86-9.61-3.89,9.61h-0.67l-5.15-12.83h2.28l3.21,8,3.23-8h2l3.24,8,3.18-8h2.26Zm-0.34-.49h0L139.45,46h-1.22l-3.5,8.85L131.16,46h-1.34l-3.56,8.84L122.73,46h-1.24l4.77,11.86,4.22-10.42Z" transform="translate(-7.16 -8.55)"/><path class="cls-4" d="M146.55,45.63A6.29,6.29,0,1,1,140,51.91,6.23,6.23,0,0,1,146.55,45.63Zm0,10.95a4.67,4.67,0,1,0-4.76-4.67A4.59,4.59,0,0,0,146.55,56.58Z" transform="translate(-7.16 -8.55)"/><path class="cls-4" d="M146.52,58.43a6.53,6.53,0,1,1,6.87-6.52A6.51,6.51,0,0,1,146.52,58.43Zm0-12.56a6,6,0,1,0,6.34,6A6.05,6.05,0,0,0,146.55,45.87Zm0,10.95a4.91,4.91,0,1,1,5-4.91A4.85,4.85,0,0,1,146.55,56.82Zm0-9.33A4.32,4.32,0,0,0,142,51.91,4.52,4.52,0,1,0,146.55,47.49Z" transform="translate(-7.16 -8.55)"/><path class="cls-4" d="M158.39,45.79c2.48,0,4,1.31,4,3.43a3.06,3.06,0,0,1-2,3,10,10,0,0,1,2.73,3.39c0.52,0.84.83,1.26,1.67,2.42h-2.1L161,55.52c-1.62-2.51-2.35-2.8-3.25-2.8h-0.74V58H155.3V45.79h3.09Zm-1.33,5.35h1.13c1.88,0,2.42-1,2.41-2s-0.7-1.85-2.41-1.85h-1.13v3.84Z" transform="translate(-7.16 -8.55)"/><path class="cls-4" d="M165.24,58.27h-2.71l-1.69-2.62c-1.6-2.5-2.27-2.69-3-2.69H157.3v5.31h-2.24V45.55h3.33c2.63,0,4.26,1.41,4.26,3.67a3.26,3.26,0,0,1-1.81,3,11.33,11.33,0,0,1,2.42,3.15l0,0.06c0.48,0.78.78,1.19,1.5,2.18Zm-2.44-.49h1.49c-0.64-.89-0.94-1.3-1.4-2.05l0-.06a9.6,9.6,0,0,0-2.62-3.25l-0.39-.26,0.43-.17a2.83,2.83,0,0,0,1.89-2.77c0-2-1.45-3.19-3.78-3.19h-2.84V57.79h1.27V52.48h1c1.07,0,1.86.44,3.45,2.91Zm-4.6-6.41h-1.37V47.06h1.37c1.74,0,2.63.7,2.65,2.09a2.09,2.09,0,0,1-.55,1.55A2.84,2.84,0,0,1,158.19,51.38Zm-0.89-.49h0.89a2.39,2.39,0,0,0,1.75-.55,1.6,1.6,0,0,0,.41-1.2c0-.69-0.25-1.61-2.16-1.61H157.3V50.9Z" transform="translate(-7.16 -8.55)"/><path class="cls-4" d="M176.51,58h-2.42l-6.23-6v6H166.1V45.79h1.76v5.6l5.15-5.6h2.19l-5.33,5.8Z" transform="translate(-7.16 -8.55)"/><path class="cls-4" d="M177.1,58.27H174l-5.89-5.72v5.72h-2.24V45.55h2.24v5.22l4.8-5.22h2.85l-5.54,6Zm-2.92-.49h1.73l-6.38-6.19L174.64,46h-1.53l-5.21,5.66Zm-7.84,0h1.27V46h-1.27V57.79Z" transform="translate(-7.16 -8.55)"/><text x="-7.16" y="-8.55"/></svg>