<?xml version="1.0" encoding="utf-8"?>
<!-- Generator: Adobe Illustrator 17.1.0, SVG Export Plug-In . SVG Version: 6.00 Build 0)  -->
<!DOCTYPE svg PUBLIC "-//W3C//DTD SVG 1.1//EN" "http://www.w3.org/Graphics/SVG/1.1/DTD/svg11.dtd">
<svg version="1.1" xmlns="http://www.w3.org/2000/svg" xmlns:xlink="http://www.w3.org/1999/xlink" x="0px" y="0px"
	 viewBox="0 0 120 120" style="enable-background:new 0 0 120 120;" xml:space="preserve">
<g id="circle">
	<circle style="fill:#4287C7;" cx="59.5" cy="60" r="60"/>
</g>
<g id="handshake">
	<path style="fill:#FFFFFF;" d="M108.9,49.3L81.2,21.6c-0.8-0.8-2.1-0.8-2.9,0l-9.9,9.9l-21.8-2.2l-5.9-5.9c-0.8-0.8-2.1-0.8-2.9,0
		l-8.1,8.1c-3.1-0.3-6.3,0.8-8.5,3c-2.2,2.2-3.3,5.4-3,8.5l-8.1,8.1c-0.8,0.8-0.8,2.1,0,2.9c6,6,11.9,11.9,17.9,17.9l-1.2,1.2
		c-1.3,1.4-2,3.1-2,4.9c0,1.8,0.7,3.6,2,4.9c1,1,2.2,1.6,3.4,1.9C30.1,85.4,30,86,30,86.6c0,1.8,0.7,3.6,2,4.9c1.3,1.3,3.1,2,4.9,2
		c1.1,0,2.2-0.3,3.2-0.8c0.3,1.1,0.9,2,1.7,2.8c1.3,1.3,3,2,4.9,2c1.8,0,3.6-0.8,4.9-2.1l3.5,3.5c1.4,1.3,3.1,2,4.9,2
		c2.9,0,5.5-1.8,6.5-4.5l0.4,0.4c1.4,1.3,3.1,2,4.9,2c1.2,0,2.3-0.3,3.4-0.9c1-0.6,1.9-1.4,2.5-2.3c0.3-0.4,0.5-0.9,0.6-1.3
		c1.3,1,2.8,1.5,4.3,1.5c3.8,0,6.9-3.1,6.9-6.9c0-1-0.2-2.1-0.7-3c1.9-0.6,3.4-1.9,4.3-3.7c0.4-0.9,0.6-1.9,0.6-2.9
		c0-1.8-0.7-3.6-2-4.9l-2.6-2.6l19.7-19.7C109.7,51.4,109.7,50.1,108.9,49.3z M24.1,37.4c2.5-2.5,6.6-2.5,9.1,0
		c2.5,2.5,2.5,6.6,0,9.1c-2.5,2.5-6.6,2.5-9.1,0C21.6,43.9,21.6,39.9,24.1,37.4z M29.7,80c-1.1-1.1-1.1-2.9,0-4l3-3
		c1.1-1.1,2.9-1.1,4,0c1.1,1.1,1.1,2.9,0,4l-3,3C32.6,81.1,30.8,81.1,29.7,80z M39,88.6c-1.1,1.1-2.9,1.1-4,0c-1.1-1.1-1.1-2.9,0-4
		l4.3-4.3c1.1-1.1,2.9-1.1,4,0c1.1,1.1,1.1,2.9,0,4L39,88.6z M49.7,91.8l-0.9,0.9c-1.1,1.1-2.9,1.1-4,0c-1.1-1.1-1.1-2.9,0-4
		l0.9-0.9c1.1-1.1,2.9-1.1,4,0C50.8,88.8,50.8,90.7,49.7,91.8z M89.7,79.4c0,1.6-1.3,2.8-2.9,2.8c-0.7,0-1.5-0.3-2-0.8l-4-4
		c-0.8-0.8-2.1-0.8-2.9,0c-0.8,0.8-0.8,2.1,0,2.9l4,4l2.7,2.7c0.6,0.6,0.8,1.3,0.8,2c0,1.6-1.3,2.9-2.9,2.9c-0.7,0-1.5-0.3-2-0.8
		c-2.8-2.8-5.5-5.5-8.3-8.3c-0.8-0.8-2.1-0.8-2.9,0c-0.8,0.8-0.8,2.1,0,2.9l4.4,4.4c0.6,0.6,0.8,1.3,0.8,2c0,0.8-0.3,1.5-0.8,2
		c-1.1,1.1-2.9,1.1-4,0L67,91.2l-2-2l-1.4-1.4c-0.8-0.8-2.1-0.8-2.9,0c-0.8,0.8-0.8,2.1,0,2.9l1.4,1.4c1.1,1.1,1.1,2.9,0,4
		c-1.1,1.2-3,1.2-4.1,0.1l-3.8-3.8c0.5-1.3,0.6-2.6,0.4-3.8c-0.2-1.2-0.8-2.4-1.7-3.3c-0.8-0.9-1.9-1.6-3.1-2
		c-0.6-0.2-1.1-0.3-1.7-0.4c0.1-0.7,0-1.5-0.2-2.2c-0.3-0.9-0.7-1.8-1.3-2.6c-0.6-0.8-1.4-1.4-2.4-1.9c-0.9-0.4-1.8-0.6-2.8-0.6
		c0.1-0.9,0-1.8-0.2-2.6c-0.3-1.2-1-2.3-1.8-3.1c-0.9-0.8-1.9-1.4-3.2-1.6c-1.6-0.4-3.5-0.2-5.4,0.8L20.9,59l6.6-6.6
		c3.1,0.3,6.3-0.8,8.5-3c2.2-2.2,3.3-5.4,3-8.5l7.4-7.4l14.1,1.4c0.1,0,0.1,0,0,0c-5.6,2-8.2,3-19.5,11.9c-2.5,2-3.4,3.9-3.3,5.7
		c0.1,1.1,0.5,2.1,1.3,3c0.6,0.7,1.5,1.3,2.4,1.7c2.6,1.1,6.2,1.2,8.3-0.1c6-3.7,6.9-3.7,11.3-3.3c1.2,0.1,2.6,0.2,4.5,0.3
		l23.4,23.4C89.4,77.9,89.7,78.6,89.7,79.4z M86.3,69L67.8,50.5c-0.4-0.4-0.8-0.6-1.4-0.6c-2-0.1-3.7-0.2-5.1-0.3
		c-5.5-0.5-6.6-0.5-13.8,3.9c-1,0.6-3,0.5-4.5-0.2c-0.4-0.2-1.3-0.7-1.3-1.1c0-0.5,0.5-1.2,1.8-2.3c4.7-3.7,7.8-6,10.3-7.5
		c2.1-0.9,15.4-5.9,16.1-6.7l3.4-3.4l24.8,24.8L86.3,69z"/>
	<g>
	</g>
	<g>
	</g>
	<g>
	</g>
	<g>
	</g>
	<g>
	</g>
	<g>
	</g>
</g>
</svg>
