<?xml version="1.0" encoding="iso-8859-1"?>
<!-- Generator: Adobe Illustrator 19.2.1, SVG Export Plug-In . SVG Version: 6.00 Build 0)  -->
<svg version="1.1" id="Layer_1" xmlns="http://www.w3.org/2000/svg" xmlns:xlink="http://www.w3.org/1999/xlink" x="0px" y="0px"
	 viewBox="0 0 740 180" style="enable-background:new 0 0 740 180;" xml:space="preserve">
<style type="text/css">
	.st0{fill:#485253;}
	.st1{fill:#72A358;}
	.st2{fill:none;}
	.st3{fill:#486E38;}
	.st4{fill:#32ADCF;}
	.st5{fill:#1D768E;}
	.st6{fill:#866393;}
	.st7{fill:#5A4063;}
</style>
<g>
	<path id="XMLID_1508_" class="st0" d="M204.16,133.93c-1.54,0-2.8-1.26-2.8-2.82V53.44c0-1.38,1.25-2.67,2.72-2.82
		c7.06-0.37,12.67-0.55,16.63-0.55c21.5,0,33.83,9.38,33.83,25.73v1.87c0,17.37-12.02,26.94-33.83,26.94c-4.58,0-9-0.2-11.22-0.32
		l-1.32-0.07v26.88c0,1.56-1.25,2.82-2.8,2.82H204.16z M220.72,55.81c-4.26,0-8.19,0.08-11.35,0.23l-1.2,0.06v42.37l1.19,0.06
		c1.98,0.1,7.05,0.34,11.35,0.34c27.03,0,27.03-15.95,27.03-21.2V75.8C247.74,62.54,238.65,55.81,220.72,55.81z"/>
	<path id="XMLID_1487_" class="st0" d="M321.86,133.93c-0.92,0-1.97-0.75-2.38-1.25l-25.79-30.35l-0.6,0.02
		c-0.33,0.01-0.62,0.01-0.9,0.01c-0.52,0-0.98-0.01-1.44-0.02c-0.6-0.01-1.16-0.03-1.87-0.03c-3.49,0-10.32-0.06-13.71-0.09
		l-1.27-0.01v28.91c0,1.56-1.25,2.82-2.8,2.82h-1.22c-1.54,0-2.8-1.26-2.8-2.82V53.32c0-1.38,1.25-2.67,2.72-2.82
		c4.29-0.22,13.76-0.44,19.06-0.44c15.43,0,33.83,4.48,33.83,25.84v0.55c0,13.3-6.87,22.08-19.34,24.73l-2.07,0.44l24.1,27.99
		c0.7,1.06,0.86,2.25,0.4,3.1c-0.41,0.78-1.25,1.21-2.35,1.21H321.86z M288.88,56.14c-5.4,0-10.56,0.11-13.8,0.3l-1.18,0.07v39.59
		l7.18,0.06c3.02,0.03,6.06,0.05,7.79,0.05c18.69,0,27.03-6.1,27.03-19.76v-0.55C315.9,62.61,307.06,56.14,288.88,56.14z"/>
	<path id="XMLID_1484_" class="st0" d="M366.29,134.59c-20.56,0-31.89-12.58-31.89-35.43V85.5c0-22.85,11.32-35.43,31.89-35.43
		s31.89,12.58,31.89,35.43v13.66C398.18,122.01,386.85,134.59,366.29,134.59z M366.29,56.14c-16.64,0-25.08,9.88-25.08,29.35v13.66
		c0,19.48,8.44,29.35,25.08,29.35s25.08-9.88,25.08-29.35V85.5C391.37,66.02,382.93,56.14,366.29,56.14z"/>
	<path id="XMLID_1483_" class="st0" d="M441.88,134.59c-26.58,0-30.55-21.92-30.55-34.99V85.05c0-13.07,3.97-34.99,30.55-34.99
		c10.67,0,17.38,0.71,20.61,1.05l0.52,0.06c1.2,0.12,2.97,0.91,2.97,2.6v1.32c0,0.66-0.2,1.18-0.59,1.54
		c-0.4,0.37-0.98,0.54-1.79,0.54l0,0c-0.28,0-0.53-0.02-0.72-0.04c-4.08-0.41-13.3-0.99-21-0.99c-15.53,0-23.74,10-23.74,28.91V99.6
		c0,18.91,8.21,28.91,23.74,28.91c7.7,0,16.91-0.58,20.98-0.99c0.19-0.01,0.45-0.04,0.74-0.04c0.81,0,1.39,0.18,1.79,0.54
		c0.39,0.36,0.59,0.88,0.59,1.54v1.32c0,1.68-1.77,2.48-2.96,2.6l-0.53,0.06C459.24,133.88,452.51,134.59,441.88,134.59z"/>
	<path id="XMLID_1482_" class="st0" d="M494.58,133.93c-10.54,0-15.45-4.15-15.45-13.06V63.68c0-8.91,4.91-13.07,15.45-13.07h31.4
		c1.76,0,3.04,1.09,3.04,2.6v0.88c0,1.47-1.25,2.49-3.04,2.49h-31.4c-5.98,0-8.65,1.02-8.65,7.1v28.79h37.45
		c1.79,0,3.04,1.02,3.04,2.49v1.1c0,1.51-1.28,2.6-3.04,2.6h-37.45v22.2c0,6.07,2.67,7.1,8.65,7.1h31.4c1.79,0,3.04,1.02,3.04,2.49
		v0.88c0,1.51-1.28,2.6-3.04,2.6H494.58z"/>
	<path id="XMLID_1479_" class="st0" d="M598.77,133.93c-0.92,0-1.97-0.75-2.39-1.25l-25.79-30.35l-0.6,0.02
		c-0.33,0.01-0.62,0.01-0.9,0.01c-0.52,0-0.98-0.01-1.44-0.02c-0.6-0.01-1.16-0.03-1.87-0.03c-3.49,0-10.32-0.06-13.71-0.09
		l-1.27-0.01v28.91c0,1.56-1.25,2.82-2.8,2.82h-1.22c-1.54,0-2.8-1.26-2.8-2.82V53.32c0-1.38,1.25-2.67,2.72-2.82
		c4.29-0.22,13.76-0.44,19.06-0.44c15.43,0,33.83,4.48,33.83,25.84v0.55c0,13.3-6.87,22.08-19.34,24.73l-2.07,0.44l24.1,27.99
		c0.7,1.06,0.86,2.25,0.4,3.1c-0.41,0.78-1.25,1.21-2.35,1.21H598.77z M565.78,56.14c-5.4,0-10.56,0.11-13.8,0.3l-1.18,0.07v39.59
		l7.18,0.06c3.02,0.03,6.06,0.05,7.79,0.05c18.69,0,27.03-6.1,27.03-19.76v-0.55C592.81,62.61,583.97,56.14,565.78,56.14z"/>
	<path id="XMLID_1476_" class="st0" d="M678.94,130.55l-24.95-74.7c-1.2-3.62-4.37-5.79-8.48-5.79c-4.16,0-7.38,2.2-8.6,5.89
		l-24.96,74.6c-0.34,1.07-0.24,2.04,0.27,2.74c0.58,0.8,1.48,0.96,2.13,0.96h1.58c1.21,0,2.29-1,2.64-1.93l8.06-24.12h37.56
		l8.26,24.11c0.37,1.16,1.43,1.94,2.64,1.94h1.46c1.28,0,1.9-0.59,2.16-0.94C679.2,132.63,679.28,131.65,678.94,130.55z M643.4,57.5
		c0.32-1.05,0.73-1.58,2.1-1.58c1.07,0,1.72,0.53,2.11,1.71l12.41,37.42l2.08,6.87h-33.42l2.18-6.91L643.4,57.5z"/>
	<path id="XMLID_5_" class="st1" d="M140.18,107.3c20.06-12.6,28.82-36.59,23.09-58.39c-0.67-0.61-1.37-1.18-2.08-1.73
		c-8.4-6.68-18.62-10.5-29.15-11.13c2.12,2.34,4.08,4.91,5.81,7.71c12.83,20.89,9.31,47.38-6.99,64.38c-0.4,0.41-0.8,0.83-1.21,1.23
		c-0.14,0.14-0.29,0.27-0.43,0.41c-0.41,0.39-0.83,0.79-1.25,1.17c-0.33,0.29-0.66,0.58-1,0.86c-0.26,0.22-0.51,0.44-0.77,0.66
		c-0.63,0.52-1.27,1.02-1.93,1.51C129.74,112.7,135.12,110.49,140.18,107.3z"/>
	<path id="XMLID_1473_" class="st2" d="M140.18,107.3c20.06-12.6,28.82-36.59,23.09-58.39c-0.67-0.61-1.37-1.18-2.08-1.73
		c-8.4-6.68-18.62-10.5-29.15-11.13c2.12,2.34,4.08,4.91,5.81,7.71c12.83,20.89,9.31,47.38-6.99,64.38c-0.4,0.41-0.8,0.83-1.21,1.23
		c-0.14,0.14-0.29,0.27-0.43,0.41c-0.41,0.39-0.83,0.79-1.25,1.17c-0.33,0.29-0.66,0.58-1,0.86c-0.26,0.22-0.51,0.44-0.77,0.66
		c-0.63,0.52-1.27,1.02-1.93,1.51C129.74,112.7,135.12,110.49,140.18,107.3z"/>
	<path id="XMLID_1471_" class="st3" d="M143.55,56.63c-1.29-4.44-3.17-8.77-5.7-12.89c-1.73-2.8-3.68-5.37-5.81-7.71
		c0,0-0.67-0.05-0.69-0.04c-9.65-0.44-19.54,1.8-28.51,7.02C117.6,41.46,132.51,46.33,143.55,56.63z"/>
	<path id="XMLID_4_" class="st4" d="M87.14,95.51c1.06,23.67,17.61,43.13,39.39,48.89c0.86-0.28,1.7-0.61,2.53-0.95
		c9.95-4.01,18.33-11.02,24.06-19.86c-3.08,0.69-6.28,1.12-9.57,1.25c-24.5,0.85-45.8-15.28-52.54-37.85
		c-0.16-0.55-0.33-1.1-0.47-1.66c-0.05-0.19-0.09-0.38-0.14-0.58c-0.14-0.55-0.28-1.11-0.4-1.66c-0.09-0.43-0.17-0.86-0.26-1.29
		c-0.06-0.33-0.14-0.66-0.19-1c-0.14-0.8-0.26-1.61-0.36-2.43C87.59,83.76,86.86,89.53,87.14,95.51z"/>
	<path id="XMLID_1464_" class="st2" d="M87.14,95.51c1.06,23.67,17.61,43.13,39.39,48.89c0.86-0.28,1.7-0.61,2.53-0.95
		c9.95-4.01,18.33-11.02,24.06-19.86c-3.08,0.69-6.28,1.12-9.57,1.25c-24.5,0.85-45.8-15.28-52.54-37.85
		c-0.16-0.55-0.33-1.1-0.47-1.66c-0.05-0.19-0.09-0.38-0.14-0.58c-0.14-0.55-0.28-1.11-0.4-1.66c-0.09-0.43-0.17-0.86-0.26-1.29
		c-0.06-0.33-0.14-0.66-0.19-1c-0.14-0.8-0.26-1.61-0.36-2.43C87.59,83.76,86.86,89.53,87.14,95.51z"/>
	<path id="XMLID_1407_" class="st5" d="M129.55,123.44c4.49,1.07,9.19,1.57,14.02,1.41c3.29-0.13,6.49-0.55,9.57-1.25
		c0,0,0.37-0.56,0.38-0.58c5.15-8.18,8.07-17.88,7.96-28.26C155.54,108.36,143.95,118.92,129.55,123.44z"/>
	<path id="XMLID_8_" class="st6" d="M123.78,55.42c-21.05-10.86-46.17-6.19-62.02,9.83c-0.18,0.89-0.32,1.78-0.43,2.67
		c-1.47,10.63,0.43,21.38,5.25,30.76c0.93-3.02,2.09-6.04,3.68-8.92c11.78-21.34,36.86-31.27,58.98-26.73
		c0.56,0.12,1.12,0.27,1.68,0.42c0.19,0.05,0.38,0.11,0.57,0.16c0.55,0.15,1.1,0.31,1.64,0.48c0.42,0.13,0.83,0.28,1.25,0.42
		c0.32,0.11,0.64,0.21,0.96,0.33c0.76,0.28,1.53,0.58,2.28,0.9C133.74,61.66,129.09,58.16,123.78,55.42z"/>
	<path id="XMLID_1388_" class="st2" d="M123.78,55.42c-21.05-10.86-46.17-6.19-62.02,9.83c-0.18,0.89-0.32,1.78-0.43,2.67
		c-1.47,10.63,0.43,21.38,5.25,30.76c0.93-3.02,2.09-6.04,3.68-8.92c11.78-21.34,36.86-31.27,58.98-26.73
		c0.56,0.12,1.12,0.27,1.68,0.42c0.19,0.05,0.38,0.11,0.57,0.16c0.55,0.15,1.1,0.31,1.64,0.48c0.42,0.13,0.83,0.28,1.25,0.42
		c0.32,0.11,0.64,0.21,0.96,0.33c0.76,0.28,1.53,0.58,2.28,0.9C133.74,61.66,129.09,58.16,123.78,55.42z"/>
	<g id="XMLID_1385_">
		<path id="XMLID_1386_" class="st7" d="M78.44,78.3c-3.17,3.37-5.94,7.19-8.2,11.46c-1.53,2.91-2.75,5.9-3.68,8.92
			c0,0,0.3,0.6,0.31,0.61c4.53,8.54,11.49,15.9,20.54,20.97C78.58,108.36,75.19,93.04,78.44,78.3z"/>
	</g>
</g>
</svg>
