<?xml version="1.0" encoding="utf-8"?>
<!-- Generator: Adobe Illustrator 19.2.1, SVG Export Plug-In . SVG Version: 6.00 Build 0)  -->
<svg version="1.1" id="Layer_1" xmlns="http://www.w3.org/2000/svg" xmlns:xlink="http://www.w3.org/1999/xlink" x="0px" y="0px"
	 viewBox="0 0 276 950" style="enable-background:new 0 0 276 950;" xml:space="preserve">
<style type="text/css">
	.st0{fill:#E6E6E6;}
	.st1{fill:#B0B3B4;}
	.st2{fill:#C0C2C3;}
	.st3{fill:#F2F2F2;}
	.st4{fill:#999999;}
	.st5{fill:#EBECEE;}
	.st6{fill:#666666;}
	.st7{fill:#B3B3B3;}
	.st8{fill:#FFFFFF;}
	.st9{fill:none;}
	.st10{fill:#999998;}
</style>
<g>
	<g>
		<rect y="0" class="st0" width="276" height="190"/>
	</g>
	<g>
		<path class="st1" d="M68.1,74.3v66l139.8-24.7v-66L68.1,74.3z M73.1,135.7c-0.8,0.1-1.5-0.4-1.5-1.2s0.7-1.6,1.5-1.8
			c0.8-0.1,1.5,0.4,1.5,1.2C74.6,134.8,73.9,135.6,73.1,135.7z M73.1,80.8c-0.8,0.1-1.5-0.4-1.5-1.2s0.7-1.6,1.5-1.8
			c0.8-0.1,1.5,0.4,1.5,1.2S73.9,80.7,73.1,80.8z M203.8,112.6c-0.8,0.1-1.5-0.4-1.5-1.2c0-0.8,0.7-1.6,1.5-1.8
			c0.8-0.1,1.5,0.4,1.5,1.2S204.7,112.4,203.8,112.6z M203.8,57.6c-0.8,0.1-1.5-0.4-1.5-1.2s0.7-1.6,1.5-1.8
			c0.8-0.1,1.5,0.4,1.5,1.2C205.3,56.7,204.7,57.5,203.8,57.6z"/>
	</g>
</g>
<g>
	<g>
		<rect y="190" class="st2" width="276" height="190"/>
	</g>
	<path class="st3" d="M211.3,243.1l-6.7-6.7c-0.5-0.5-1.1-0.7-1.8-0.6L65.7,260c-1,0.2-1.7,1-1.7,2v63.5c0,0.5,0.2,1,0.6,1.4
		l6.7,6.7c0.5,0.5,1.1,0.7,1.8,0.6L210.3,310c1-0.2,1.7-1,1.7-2v-63.5C211.9,244,211.7,243.4,211.3,243.1z M208.1,245.8L73.8,269.4
		v61.2c0,0.6-0.4,1-1,1s-1-0.4-1-1V269l-5.3-5.3c-0.4-0.4-0.4-1,0-1.4s1-0.4,1.4,0l5.3,5.3l134.6-23.7c0.5-0.1,1.1,0.3,1.2,0.8
		C209,245.2,208.6,245.7,208.1,245.8z"/>
</g>
<g>
	<g>
		<rect y="380" class="st0" width="276" height="190"/>
	</g>
	<g>
		<path class="st4" d="M197.6,407.1c-0.6,0-1-0.5-1-1v-15.2c0-0.5,0.3-0.9,0.8-1l23.8-4.6c0.6-0.1,1.1,0.3,1.2,0.8
			c0.1,0.6-0.3,1.1-0.8,1.2l-23,4.4V406C198.6,406.6,198.1,407.1,197.6,407.1z"/>
		<path class="st4" d="M203.8,474.9c-0.2,0-0.5-0.1-0.7-0.3l-5.8-5.3c-0.4-0.4-0.4-1-0.1-1.4c0.4-0.4,1-0.4,1.4-0.1l5.8,5.3
			c0.4,0.4,0.4,1,0.1,1.4C204.4,474.8,204.1,474.9,203.8,474.9z"/>
		<path class="st1" d="M202.6,410.3l-5.7-5.7c-0.5-0.5-1.1-0.7-1.8-0.6L76.6,425l2.2,2.2v1.8l2.7,2.7l117.9-20.8
			c0.6-0.1,1.1,0.3,1.2,0.8c0.1,0.6-0.3,1.1-0.8,1.2c0,0-116.6,20.6-117.6,20.7c-0.8,0.1-1.8,0-2-0.4c-0.4-0.6-1.3-1.3-1.3-1.3v56.9
			l0.9,0.9c0.5,0.5,1.1,0.7,1.8,0.6l119.9-21.1c1-0.2,1.7-1,1.7-2v-55.5C203.1,411.2,202.9,410.7,202.6,410.3z"/>
		<g>
			<path class="st1" d="M241.3,459.1c0,0.6-0.5,1-1,1s-1-0.5-1-1v-54l-4.4-4.4v56.9l4,4c0.5,0.5,1.1,0.7,1.8,0.6L276,456v-56.6
				l-34.7,6.1V459.1L241.3,459.1z"/>
			<path class="st1" d="M234.3,397.1c-0.5,0.1-0.9,0.3-1.2,0.7l1.4,1.4c0-0.1,0.1-0.1,0.1-0.2c0.4-0.4,1-0.4,1.4,0l4.6,4.6l35.4-6.2
				v-7.6L234.3,397.1z"/>
		</g>
		<path class="st4" d="M55,562.2c-0.2,0-0.5-0.1-0.6-0.2c-0.2-0.2-0.4-0.5-0.4-0.8V431.7c0-0.5,0.3-0.9,0.8-1l23.8-4.6
			c0.3-0.1,0.6,0,0.8,0.2c0.2,0.2,0.4,0.5,0.4,0.8v129.5c0,0.5-0.3,0.9-0.8,1l-23.8,4.6C55.2,562.2,55.1,562.2,55,562.2z
			 M56.1,432.5v127.4l21.8-4.2V428.4L56.1,432.5z"/>
		<path class="st4" d="M55,432.7c-0.3,0-0.5-0.1-0.7-0.3l-13.5-13.2c-0.4-0.4-0.4-1,0-1.4s1-0.4,1.4,0L55.8,431c0.4,0.4,0.4,1,0,1.4
			C55.6,432.6,55.3,432.7,55,432.7z"/>
		<path class="st4" d="M41.5,434.6c-0.6,0-1-0.5-1-1v-15.2c0-0.5,0.3-0.9,0.8-1l23.8-4.6c0.3-0.1,0.7,0,0.9,0.3l13.5,13.2
			c0.4,0.4,0.4,1,0,1.4s-1,0.4-1.4,0L65,415l-22.5,4.3v14.3C42.5,434.2,42.1,434.6,41.5,434.6z"/>
		<path class="st4" d="M55,562.2c-0.3,0-0.5-0.1-0.7-0.3l-7.4-7.3c-0.4-0.4-0.4-1,0-1.4s1-0.4,1.4,0l7.4,7.3c0.4,0.4,0.4,1,0,1.4
			C55.6,562.1,55.3,562.2,55,562.2z"/>
		<path class="st4" d="M211.1,534.6c-0.2,0-0.5-0.1-0.6-0.2c-0.2-0.2-0.4-0.5-0.4-0.8V404.1c0-0.5,0.3-0.9,0.8-1l23.8-4.6
			c0.3-0.1,0.6,0,0.8,0.2s0.4,0.5,0.4,0.8V529c0,0.5-0.3,0.9-0.8,1l-23.8,4.6C211.2,534.6,211.2,534.6,211.1,534.6z M212.1,405
			v127.4l21.8-4.2V400.8L212.1,405z"/>
		<path class="st4" d="M211.1,405.1c-0.3,0-0.5-0.1-0.7-0.3l-13.5-13.2c-0.4-0.4-0.4-1,0-1.4s1-0.4,1.4,0l13.5,13.2
			c0.4,0.4,0.4,1,0,1.4C211.6,405,211.4,405.1,211.1,405.1z"/>
		<path class="st4" d="M234.9,400.6c-0.3,0-0.5-0.1-0.7-0.3L220.7,387c-0.4-0.4-0.4-1,0-1.4s1-0.4,1.4,0l13.5,13.2
			c0.4,0.4,0.4,1,0,1.4C235.4,400.5,235.2,400.6,234.9,400.6z"/>
		<path class="st4" d="M211.1,534.6c-0.3,0-0.5-0.1-0.7-0.3L203,527c-0.4-0.4-0.4-1,0-1.4s1-0.4,1.4,0l7.4,7.3c0.4,0.4,0.4,1,0,1.4
			C211.6,534.5,211.4,534.6,211.1,534.6z"/>
		<path class="st4" d="M80.1,548.7c-0.5,0-0.9-0.3-1-0.8c-0.1-0.6,0.3-1.1,0.8-1.2l123.7-21.3c0.6-0.1,1.1,0.3,1.2,0.8
			c0.1,0.6-0.3,1.1-0.8,1.2L80.3,548.7C80.2,548.7,80.1,548.7,80.1,548.7z"/>
		<path class="st4" d="M78.9,497.2c-0.5,0-0.9-0.3-1-0.8c-0.1-0.6,0.3-1.1,0.8-1.2l125-22.3c0.6-0.1,1.1,0.3,1.2,0.8
			c0.1,0.6-0.3,1.1-0.8,1.2l-125,22.3C79,497.2,78.9,497.2,78.9,497.2z"/>
		<path class="st4" d="M203.8,527.4c-0.6,0-1-0.5-1-1v-52.5c0-0.6,0.5-1,1-1c0.6,0,1,0.5,1,1v52.5
			C204.8,526.9,204.4,527.4,203.8,527.4z"/>
		<g>
			<path class="st4" d="M276,512c-0.2-0.1-0.4-0.2-0.7-0.1l-40.6,7.2c-0.6,0.1-0.9,0.6-0.8,1.2c0.1,0.5,0.5,0.8,1,0.8
				c0.1,0,0.1,0,0.2,0l40.6-7.2c0.1,0,0.2-0.1,0.3-0.1L276,512L276,512z"/>
			<path class="st4" d="M0,562.6v2.1c0.1,0,0.1,0,0.2,0l47.7-9.8c0.5-0.1,0.8-0.5,0.8-1v-52.3l0,0c0-0.1,0-0.3-0.1-0.4l0,0
				c-0.1-0.1-0.1-0.2-0.2-0.3l-5.1-4.7c-0.4-0.4-1.1-0.4-1.4,0.1c-0.4,0.4-0.4,1.1,0.1,1.4l3.6,3.3l-45.5,8.2v2c0.1,0,0.1,0,0.2,0
				l46.5-8.4V553L0,562.6z"/>
			<path class="st4" d="M233.9,468.7c0.1,0.5,0.5,0.8,1,0.8c0.1,0,0.1,0,0.2,0l40.6-7.2c0.1,0,0.2-0.1,0.3-0.1v-1.7
				c-0.2-0.1-0.4-0.2-0.7-0.1l-40.6,7.2C234.2,467.6,233.8,468.1,233.9,468.7z"/>
		</g>
		<path class="st1" d="M46.2,438.6l-5.7-5.7c-0.5-0.5-1.1-0.7-1.8-0.6L0,439.2v7.6l43.1-7.6c0.6-0.1,1.1,0.3,1.2,0.8
			s-0.3,1.1-0.8,1.2L0,448.9v56.5l45.1-8c1-0.2,1.7-1,1.7-2v-55.3C46.8,439.5,46.6,439,46.2,438.6z"/>
	</g>
</g>
<g>
	<rect y="570" class="st2" width="275.9" height="189.9"/>
	<path class="st3" d="M98.4,601.4l-6,0.9l6.2,5.9c0,0,0,110.7,0,128.2l4.6-0.8V606.1L98.4,601.4z"/>
	<path class="st4" d="M189.3,733.1c-0.2,0-0.5-0.1-0.7-0.2c-0.2-0.2-0.4-0.5-0.4-0.8V594.3c0-0.5,0.3-0.9,0.8-1l27.3-5.2
		c0.3-0.1,0.6,0,0.8,0.2c0.2,0.2,0.4,0.5,0.4,0.8v138.3c0,0.5-0.4,0.9-0.8,1L189.3,733.1C189.4,733.1,189.4,733.1,189.3,733.1z
		 M190.3,595.1v135.9l25.2-4.4V590.3L190.3,595.1z"/>
	<path class="st4" d="M189.3,595.3c-0.3,0-0.5-0.1-0.7-0.3l-15.5-15.2c-0.4-0.4-0.4-1,0-1.4c0.4-0.4,1-0.4,1.4,0l15.5,15.2
		c0.4,0.4,0.4,1,0,1.4C189.8,595.2,189.6,595.3,189.3,595.3z"/>
	<path class="st4" d="M216.6,590.1c-0.3,0-0.5-0.1-0.7-0.3L200.8,575l-25.9,5v7.9c0,0.6-0.5,1-1,1c-0.6,0-1-0.5-1-1v-8.8
		c0-0.5,0.3-0.9,0.8-1l27.3-5.2c0.3-0.1,0.7,0,0.9,0.3l15.5,15.2c0.4,0.4,0.4,1,0,1.4C217.1,590,216.8,590.1,216.6,590.1z"/>
	<path class="st4" d="M189.3,733.1c-0.3,0-0.5-0.1-0.7-0.3l-9.1-9.1c-0.4-0.4-0.4-1,0-1.4c0.4-0.4,1-0.4,1.4,0l9.1,9.1
		c0.4,0.4,0.4,1,0,1.4C189.8,733,189.6,733.1,189.3,733.1z"/>
	<polygon class="st3" points="180.9,592.6 176.1,587.9 168.6,589.1 168.6,720 173.3,724.2 180.9,722.9 	"/>
	<polygon class="st1" points="173.3,717.9 173.3,593.9 103.6,606.1 103.6,730.1 	"/>
	<polygon class="st3" points="173.3,717.9 173.3,593.9 168.5,589 98.7,601.3 98.7,725.3 103.6,730.1 	"/>
	<path class="st4" d="M165.5,603.2v108.1l-54.1,9.5v-108L165.5,603.2 M167.5,600.8l-58.2,10.3v112.3l58.2-10.3V600.8L167.5,600.8z"
		/>
	<path class="st4" d="M71.3,614.4c-0.3,0-0.5-0.1-0.7-0.3L55.1,599c-0.4-0.4-0.4-1,0-1.4c0.4-0.4,1-0.4,1.4,0L72,612.7
		c0.4,0.4,0.4,1,0,1.4C71.8,614.3,71.5,614.4,71.3,614.4z"/>
	<path class="st5" d="M173.3,718.9c-0.6,0-1-0.5-1-1V593.9c0-0.6,0.5-1,1-1s1,0.5,1,1v124.1C174.4,718.5,173.9,718.9,173.3,718.9z"
		/>
	<path class="st4" d="M103.6,607.2c-0.5,0-0.9-0.3-1-0.8c-0.1-0.6,0.3-1.1,0.8-1.2l67.9-11.9l-3.5-3.5c-0.4-0.4-0.4-1,0-1.4
		c0.4-0.4,1-0.4,1.4,0l4.8,4.8c0.3,0.3,0.4,0.7,0.3,1c-0.1,0.4-0.4,0.6-0.8,0.7L103.6,607.2L103.6,607.2L103.6,607.2z"/>
	<path class="st4" d="M103.6,607.2c-0.3,0-0.5-0.1-0.7-0.3L98,602c-0.4-0.4-0.4-1,0-1.4s1-0.4,1.4,0l4.8,4.8c0.4,0.4,0.4,1,0,1.4
		C104.1,607.1,103.8,607.2,103.6,607.2z"/>
	<path class="st4" d="M71.3,753.8c-0.3,0-0.5-0.1-0.7-0.3l-9.3-9.3c-0.4-0.4-0.4-1,0-1.4c0.4-0.4,1-0.4,1.4,0l9.3,9.3
		c0.4,0.4,0.4,1,0,1.4C71.8,753.7,71.5,753.8,71.3,753.8z"/>
	<path class="st4" d="M166,596.2c-0.5,0-0.9-0.3-1-0.8c-0.1-0.6,0.3-1.1,0.8-1.2l14.9-2.6c0.6-0.1,1.1,0.3,1.2,0.8
		c0.1,0.6-0.3,1.1-0.8,1.2l-14.9,2.6C166.1,596.2,166,596.2,166,596.2z"/>
	<path class="st4" d="M97.3,608.2c-0.5,0-0.9-0.3-1-0.8c-0.1-0.6,0.3-1.1,0.8-1.2l5.8-1c0.6-0.1,1.1,0.3,1.2,0.8
		c0.1,0.6-0.3,1.1-0.8,1.2l-5.8,1C97.5,608.2,97.4,608.2,97.3,608.2z"/>
	<path class="st4" d="M71.3,753.8c-0.2,0-0.5-0.1-0.7-0.2c-0.2-0.2-0.4-0.5-0.4-0.8V613.4c0-0.5,0.3-0.9,0.8-1l27.3-5.2
		c0.3-0.1,0.6,0,0.8,0.2c0.2,0.2,0.4,0.5,0.4,0.8V748c0,0.5-0.4,0.9-0.8,1L71.3,753.8C71.4,753.8,71.3,753.8,71.3,753.8z
		 M72.3,614.2v137.4l25.2-4.4V609.4L72.3,614.2z"/>
	<path class="st4" d="M55.8,614.1c-0.6,0-1-0.5-1-1v-14.9c0-0.5,0.4-0.9,0.8-1l27.3-5.1c0.3-0.1,0.7,0,0.9,0.3l15.5,15.2
		c0.4,0.4,0.4,1,0,1.4c-0.4,0.4-1,0.4-1.4,0l-15.1-14.8L56.9,599v14C56.8,613.6,56.4,614.1,55.8,614.1z"/>
	<path class="st4" d="M103.6,731.2c-0.5,0-0.9-0.3-1-0.8c-0.1-0.6,0.3-1.1,0.8-1.2l69.8-12.3c0.6-0.1,1.1,0.3,1.2,0.8
		c0.1,0.6-0.3,1.1-0.8,1.2l-69.8,12.3C103.7,731.2,103.6,731.2,103.6,731.2z"/>
	<path class="st4" d="M92.4,603.3c-0.5,0-0.9-0.3-1-0.8c-0.1-0.6,0.3-1.1,0.8-1.2l83.8-14.4c0.6-0.1,1.1,0.3,1.2,0.8
		c0.1,0.6-0.3,1.1-0.8,1.2l-83.8,14.4C92.5,603.3,92.5,603.3,92.4,603.3z"/>
	<path class="st4" d="M98.6,737.3c-0.5,0-0.9-0.4-1-0.8c-0.1-0.6,0.3-1.1,0.8-1.2l3.7-0.6V606.1c0-0.6,0.5-1,1-1c0.5,0,1,0.5,1,1
		v129.4c0,0.5-0.4,0.9-0.8,1L98.6,737.3C98.7,737.3,98.6,737.3,98.6,737.3z"/>
	<path class="st4" d="M173.3,725.2c-0.2,0-0.5-0.1-0.7-0.2c-0.2-0.2-0.4-0.5-0.4-0.8V593.9c0-0.5,0.4-0.9,0.8-1l7.5-1.3
		c0.3,0,0.6,0,0.8,0.2c0.2,0.2,0.4,0.5,0.4,0.8v130.4c0,0.5-0.4,0.9-0.8,1L173.3,725.2C173.4,725.2,173.4,725.2,173.3,725.2z
		 M174.4,594.8V723l5.5-0.9V593.8L174.4,594.8z"/>
	<path class="st4" d="M180.9,593.6c-0.3,0-0.5-0.1-0.7-0.3l-4.7-4.7c-0.4-0.4-0.4-1,0-1.4c0.4-0.4,1-0.4,1.4,0l4.7,4.7
		c0.4,0.4,0.4,1,0,1.4C181.4,593.5,181.1,593.6,180.9,593.6z"/>
	<path class="st4" d="M173.3,725.2c-0.2,0-0.5-0.1-0.7-0.3l-4.7-4.2c-0.4-0.4-0.5-1-0.1-1.4c0.4-0.4,1-0.5,1.4-0.1l4.7,4.2
		c0.4,0.4,0.5,1,0.1,1.4C173.9,725.1,173.6,725.2,173.3,725.2z"/>
	<path class="st3" d="M105.5,652.7c0.1-0.5,0.5-0.9,1.1-0.9c0.6,0,1.1,0.5,1.1,1.1v6.5c0,0.6-0.5,1.1-1.1,1.1
		c-0.6,0-1.1-0.5-1.1-1.1v-6.5C105.5,652.8,105.5,652.7,105.5,652.7z"/>
	<path class="st4" d="M106.6,651.8c0.6,0,1.1,0.5,1.1,1.1v6.5c0,0.6-0.5,1.1-1.1,1.1l0,0c-0.6,0-1.1-0.5-1.1-1.1v-6.5
		c0-0.1,0-0.1,0-0.2C105.6,652.2,106.1,651.8,106.6,651.8L106.6,651.8 M106.6,649.7L106.6,649.7c-1.5,0-2.8,1.1-3.1,2.6
		c0,0.2,0,0.4,0,0.5v6.5c0,1.7,1.4,3.1,3.1,3.1c1.7,0,3.1-1.4,3.1-3.1v-6.5C109.7,651.1,108.3,649.7,106.6,649.7L106.6,649.7z"/>
	<path class="st4" d="M106.6,657c-0.5,0-0.9-0.3-1-0.8c-0.1-0.6,0.3-1.1,0.8-1.2l10-1.8c0.6-0.1,1.1,0.3,1.2,0.8
		c0.1,0.6-0.3,1.1-0.8,1.2l-10,1.8C106.7,656.9,106.7,657,106.6,657z"/>
	<path class="st4" d="M63.8,618.6l-5.8-5.8c-0.6-0.6-1.5-0.9-2.4-0.8L0,621.8v2c0.1,0,0.1,0,0.2,0l55.7-9.8c0.2,0,0.5,0,0.6,0.2
		l5.8,5.8c0.1,0.1,0.2,0.3,0.2,0.5V676c0,0.4-0.3,0.7-0.6,0.7L0,687.7v2.1c0.1,0,0.1,0,0.2,0l56.5-10l3.3,3.3L0,693.9v2h0.1l60.9-11
		v57.8L0,754.9v2.1c0,0,0,0,0.1,0l62.2-12.6c0.5-0.1,0.8-0.5,0.8-1v-59.8c0-0.1,0-0.3-0.1-0.4l-0.1-0.1c0-0.1-0.1-0.1-0.1-0.2
		l-3.6-3.6l3.2-0.6c1.3-0.2,2.3-1.4,2.3-2.7v-55.5C64.6,619.9,64.3,619.2,63.8,618.6z"/>
	<path class="st4" d="M212.9,584.6c-0.4,0.1-0.7,0.3-0.8,0.7c-0.1,0.4,0,0.8,0.3,1l3.2,3.1v61.5c0,0.3,0.1,0.6,0.4,0.8
		c0.2,0.2,0.4,0.2,0.7,0.2c0.1,0,0.1,0,0.2,0l59.1-10.4v-2c-0.1,0-0.1,0-0.2,0l-58.1,10.2V589c0-0.3-0.1-0.5-0.3-0.7l-2.1-2
		l60.6-10.7v-2c-0.1,0-0.1,0-0.2,0L212.9,584.6z"/>
	<path class="st4" d="M215.6,658.3c0.1,0.5,0.5,0.8,1,0.8c0.1,0,0.1,0,0.2,0l59.1-10.6v-2.1L216.4,657
		C215.8,657.2,215.5,657.7,215.6,658.3z"/>
	<path class="st4" d="M275.9,705.5L216.4,716c-0.6,0.1-0.9,0.6-0.8,1.2c0.1,0.5,0.5,0.8,1,0.8c0.1,0,0.1,0,0.2,0l59.1-10.6V705.5
		L275.9,705.5z"/>
</g>
<g>
	<g>
		<g>
			<path class="st6" d="M103,807.2c-0.1,0-0.2,0-0.4-0.1c-1.2-0.7-1.4-2.3-0.6-3.8s2.4-2.1,3.6-1.4c0.3,0.2,0.5,0.6,0.3,1
				c-0.2,0.3-0.6,0.5-1,0.3s-1.2,0.1-1.6,0.9c-0.5,0.8-0.3,1.6,0,1.8s0.5,0.6,0.3,1C103.5,807.1,103.3,807.2,103,807.2z"/>
		</g>
		<g>
			<path class="st6" d="M113.2,813c-0.1,0-0.2,0-0.3-0.1l-10.2-5.8c-0.3-0.2-0.5-0.6-0.3-1c0.2-0.3,0.6-0.5,1-0.3l10.2,5.8
				c0.3,0.2,0.5,0.6,0.3,1C113.7,812.9,113.4,813,113.2,813z"/>
		</g>
		<g>
			<path class="st6" d="M113.2,807.2c-0.1,0-0.2,0-0.3-0.1l-7.9-4c-0.4-0.2-0.5-0.6-0.3-1s0.6-0.5,1-0.3l7.9,4
				c0.4,0.2,0.5,0.6,0.3,1C113.7,807.1,113.4,807.2,113.2,807.2z"/>
		</g>
	</g>
	<g>
		<g>
			
				<rect x="113.1" y="777.8" transform="matrix(0.4998 -0.8661 0.8661 0.4998 -617.1516 487.4061)" class="st7" width="0.7" height="0.4"/>
		</g>
		<g>
			<path class="st7" d="M130.3,788.2l-0.6-0.3l0.4-0.6l0.6,0.3L130.3,788.2z M129,787.6l-0.6-0.3l0.4-0.6l0.6,0.3L129,787.6z
				 M127.8,786.9l-0.6-0.3l0.4-0.6l0.6,0.3L127.8,786.9z M126.6,786.2l-0.6-0.3l0.4-0.6l0.6,0.3L126.6,786.2z M125.4,785.5l-0.6-0.3
				l0.4-0.6l0.6,0.3L125.4,785.5z M124.2,784.8l-0.6-0.3l0.4-0.6l0.6,0.3L124.2,784.8z M123,784.1l-0.6-0.3l0.4-0.6l0.6,0.3
				L123,784.1z M121.8,783.4l-0.6-0.3l0.4-0.6l0.6,0.3L121.8,783.4z M120.6,782.7l-0.6-0.3l0.4-0.6l0.6,0.3L120.6,782.7z M119.4,782
				l-0.6-0.3l0.4-0.6l0.6,0.3L119.4,782z M118.2,781.3l-0.6-0.3l0.4-0.6l0.6,0.3L118.2,781.3z M116.9,780.6l-0.6-0.3l0.4-0.6
				l0.6,0.3L116.9,780.6z M115.7,779.9l-0.6-0.3l0.4-0.6l0.6,0.3L115.7,779.9z M114.5,779.2l-0.6-0.3l0.4-0.6l0.6,0.3L114.5,779.2z"
				/>
		</g>
		<g>
			<polygon class="st7" points="131.7,788.8 131,788.8 131,788.7 130.9,788.6 131.2,788 131.7,788.3 			"/>
		</g>
		<g>
			<path class="st7" d="M131.7,842.5H131v-0.7h0.7V842.5z M131.7,841.1H131v-0.7h0.7V841.1z M131.7,839.7H131V839h0.7V839.7z
				 M131.7,838.3H131v-0.7h0.7V838.3z M131.7,836.8H131v-0.7h0.7V836.8z M131.7,835.4H131v-0.7h0.7V835.4z M131.7,834H131v-0.7h0.7
				V834z M131.7,832.6H131v-0.7h0.7V832.6z M131.7,831.2H131v-0.7h0.7V831.2z M131.7,829.8H131v-0.7h0.7V829.8z M131.7,828.4H131
				v-0.7h0.7V828.4z M131.7,827H131v-0.7h0.7V827z M131.7,825.5H131v-0.7h0.7V825.5z M131.7,824.1H131v-0.7h0.7V824.1z M131.7,822.7
				H131V822h0.7V822.7z M131.7,821.3H131v-0.7h0.7V821.3z M131.7,819.9H131v-0.7h0.7V819.9z M131.7,818.5H131v-0.7h0.7V818.5z
				 M131.7,817.1H131v-0.7h0.7V817.1z M131.7,815.7H131V815h0.7V815.7z M131.7,814.2H131v-0.7h0.7V814.2z M131.7,812.8H131v-0.7h0.7
				V812.8z M131.7,811.4H131v-0.7h0.7V811.4z M131.7,810H131v-0.7h0.7V810z M131.7,808.6H131v-0.7h0.7V808.6z M131.7,807.2H131v-0.7
				h0.7V807.2z M131.7,805.8H131v-0.7h0.7V805.8z M131.7,804.4H131v-0.7h0.7V804.4z M131.7,802.9H131v-0.7h0.7V802.9z M131.7,801.5
				H131v-0.7h0.7V801.5z M131.7,800.1H131v-0.7h0.7V800.1z M131.7,798.7H131V798h0.7V798.7z M131.7,797.3H131v-0.7h0.7V797.3z
				 M131.7,795.9H131v-0.7h0.7V795.9z M131.7,794.5H131v-0.7h0.7V794.5z M131.7,793.1H131v-0.7h0.7V793.1z M131.7,791.6H131v-0.7
				h0.7V791.6z M131.7,790.2H131v-0.7h0.7V790.2z"/>
		</g>
		<g>
			<rect x="131" y="843.2" class="st7" width="0.7" height="0.4"/>
		</g>
	</g>
	<g>
		<g>
			<path class="st6" d="M137.3,846.8c-0.4,0-0.7-0.3-0.7-0.7v-52.9c0-0.4,0.3-0.7,0.7-0.7s0.7,0.3,0.7,0.7v52.9
				C138,846.5,137.7,846.8,137.3,846.8z"/>
		</g>
		<g>
			<path class="st6" d="M137.3,793.9c-0.2,0-0.5-0.1-0.6-0.4c-0.2-0.3-0.1-0.8,0.3-1l41.1-23.7c0.3-0.2,0.8-0.1,1,0.3
				c0.2,0.3,0.1,0.8-0.3,1l-41.1,23.7C137.5,793.8,137.4,793.9,137.3,793.9z"/>
		</g>
	</g>
	<g>
		<g>
			<path class="st6" d="M113.2,837.5c-0.4,0-0.7-0.3-0.7-0.7V778c0-0.4,0.3-0.7,0.7-0.7s0.7,0.3,0.7,0.7v58.8
				C113.9,837.2,113.6,837.5,113.2,837.5z"/>
		</g>
		<g>
			<path class="st6" d="M113.2,778.7c-0.2,0-0.5-0.1-0.6-0.4c-0.2-0.3-0.1-0.8,0.3-1l18.2-10.5c0.3-0.2,0.8-0.1,1,0.3
				c0.2,0.3,0.1,0.8-0.3,1l-18.2,10.5C113.4,778.7,113.3,778.7,113.2,778.7z"/>
		</g>
	</g>
	<g>
		<path class="st7" d="M131.5,788.8l-0.3-0.6l0.6-0.4l0.3,0.6L131.5,788.8z M132.8,788.1l-0.3-0.6l0.6-0.4l0.3,0.6L132.8,788.1z
			 M134,787.4l-0.3-0.6l0.6-0.4l0.3,0.6L134,787.4z M135.2,786.7l-0.3-0.6l0.6-0.4l0.3,0.6L135.2,786.7z M136.5,786l-0.3-0.6
			l0.6-0.3l0.3,0.6L136.5,786z M137.7,785.3l-0.3-0.6l0.6-0.3l0.3,0.6L137.7,785.3z M138.9,784.6l-0.3-0.6l0.6-0.4l0.3,0.6
			L138.9,784.6z M140.2,783.9l-0.3-0.6l0.6-0.4l0.3,0.6L140.2,783.9z M141.4,783.2l-0.3-0.6l0.6-0.4l0.3,0.6L141.4,783.2z
			 M142.6,782.5l-0.3-0.6l0.6-0.4l0.3,0.6L142.6,782.5z M143.8,781.8l-0.3-0.6l0.6-0.3l0.3,0.6L143.8,781.8z M145.1,781.1l-0.3-0.6
			l0.6-0.3l0.3,0.6L145.1,781.1z M146.3,780.4l-0.3-0.6l0.6-0.3l0.3,0.6L146.3,780.4z M147.5,779.7l-0.3-0.6l0.6-0.4l0.3,0.6
			L147.5,779.7z M148.8,779l-0.3-0.6l0.6-0.4l0.3,0.6L148.8,779z M150,778.3l-0.3-0.6l0.6-0.4l0.3,0.6L150,778.3z M151.2,777.6
			l-0.3-0.6l0.6-0.3l0.3,0.6L151.2,777.6z M152.5,776.9l-0.3-0.6l0.6-0.3l0.3,0.6L152.5,776.9z M153.7,776.2l-0.3-0.6l0.6-0.3
			l0.3,0.6L153.7,776.2z M154.9,775.5l-0.3-0.6l0.6-0.4l0.3,0.6L154.9,775.5z M156.2,774.8l-0.3-0.6l0.6-0.4l0.3,0.6L156.2,774.8z
			 M157.4,774.1l-0.3-0.6l0.6-0.4l0.3,0.6L157.4,774.1z M158.6,773.4l-0.3-0.6l0.6-0.4l0.3,0.6L158.6,773.4z M159.9,772.7l-0.3-0.6
			l0.6-0.3l0.3,0.6L159.9,772.7z M161.1,772l-0.3-0.6l0.6-0.3l0.3,0.6L161.1,772z M162.3,771.3l-0.3-0.6l0.6-0.3l0.3,0.6
			L162.3,771.3z M163.6,770.6l-0.3-0.6l0.6-0.4l0.3,0.6L163.6,770.6z M164.8,769.9l-0.3-0.6l0.2-0.1l0.3,0.6L164.8,769.9z"/>
	</g>
	<g>
		<path class="st6" d="M121.6,824l-0.1-0.7c0.2,0,0.4-0.1,0.6-0.1l0.2,0.7C122.2,823.9,121.9,824,121.6,824z M120.8,823.9
			c-0.3-0.1-0.6-0.2-0.8-0.4l0.4-0.6c0.1,0.1,0.3,0.2,0.5,0.2L120.8,823.9z M123.1,823.5l-0.3-0.6l0.1-0.1c0.1-0.1,0.3-0.2,0.4-0.3
			l0.4,0.6C123.5,823.2,123.4,823.3,123.1,823.5L123.1,823.5z M119.5,822.9c-0.1-0.2-0.2-0.5-0.3-0.8l0.7-0.1c0,0.2,0.1,0.4,0.2,0.6
			L119.5,822.9z M124.3,822.6l-0.5-0.5c0.2-0.1,0.3-0.3,0.5-0.5l0.5,0.5C124.7,822.3,124.5,822.5,124.3,822.6z M125.4,821.6
			l-0.6-0.4c0.1-0.2,0.3-0.4,0.4-0.5l0.6,0.4C125.7,821.2,125.5,821.4,125.4,821.6z M119.9,821.5l-0.7-0.2l0.2-0.7l0.7,0.2
			L119.9,821.5z M126.2,820.3l-0.6-0.3c0.1-0.2,0.2-0.4,0.3-0.6l0.7,0.3C126.4,819.9,126.3,820.1,126.2,820.3z M120.3,820.1
			l-0.7-0.2l0.2-0.7l0.7,0.2L120.3,820.1z M126.8,819l-0.7-0.2c0.1-0.2,0.1-0.4,0.2-0.6l0.7,0.1C126.9,818.5,126.8,818.7,126.8,819z
			 M120.7,818.8l-0.7-0.2l0.2-0.7l0.7,0.2L120.7,818.8z M126.3,817.6L126,817l0.7-0.3l0.3,0.7L126.3,817.6z M121.1,817.4l-0.7-0.2
			l0.2-0.7l0.7,0.2L121.1,817.4z M125.8,816.3l-0.3-0.7l0.7-0.3l0.3,0.7L125.8,816.3z M121.5,816l-0.7-0.2l0.2-0.6
			c0-0.2,0-0.4,0.1-0.6l0.7,0.2c0,0.2-0.1,0.3-0.1,0.5v0.1L121.5,816z M125.2,815l-0.3-0.7l0.7-0.3l0.3,0.7L125.2,815z M122,814.2
			l-0.6-0.3c0.1-0.2,0.3-0.4,0.4-0.7l0.6,0.4C122.2,813.8,122.1,814,122,814.2z M124.7,813.7l-0.2-0.5c0-0.1,0-0.2,0-0.3l0.7-0.2
			c0,0.1,0,0.2,0.1,0.4l0.1,0.3L124.7,813.7z M122.8,813.2l-0.5-0.5c0.2-0.2,0.4-0.3,0.6-0.5l0.4,0.6
			C123.1,812.9,122.9,813,122.8,813.2z M124.2,812.6c-0.1-0.1-0.3-0.1-0.5,0l-0.1-0.7c0.4-0.1,0.7,0,0.9,0.1L124.2,812.6z"/>
	</g>
	<g>
		<path class="st6" d="M137.3,793.9c-0.1,0-0.3,0-0.4-0.1l-24.1-15.2c-0.3-0.2-0.4-0.6-0.2-1c0.2-0.3,0.6-0.4,1-0.2l24.1,15.2
			c0.3,0.2,0.4,0.6,0.2,1C137.8,793.8,137.5,793.9,137.3,793.9z"/>
	</g>
	<g>
		<g>
			<path class="st8" d="M128.6,814l-2.5-1.4c-1.4-0.8-3.3,0.1-4.4,1.9c-1.1,1.9-0.8,4,0.5,4.8l2.5,1.4"/>
			<path class="st6" d="M124.8,821.4c-0.1,0-0.2,0-0.4-0.1l-2.5-1.4c-0.9-0.5-1.4-1.4-1.5-2.5s0.1-2.2,0.7-3.2
				c1.3-2.2,3.7-3.2,5.4-2.2l2.5,1.4c0.3,0.2,0.5,0.6,0.3,1s-0.6,0.5-1,0.3l-2.5-1.4c-1-0.6-2.6,0.2-3.4,1.7
				c-0.4,0.8-0.6,1.6-0.6,2.4c0.1,0.7,0.4,1.2,0.8,1.5l2.5,1.4c0.3,0.2,0.5,0.6,0.3,1C125.2,821.3,125,821.4,124.8,821.4z"/>
		</g>
		<g>
			<ellipse transform="matrix(0.5 -0.866 0.866 0.5 -644.5381 518.4173)" class="st8" cx="126.7" cy="817.4" rx="3.9" ry="2.8"/>
			<path class="st6" d="M125.9,821.7c-0.5,0-1-0.1-1.5-0.4c-0.9-0.5-1.4-1.4-1.5-2.5s0.1-2.2,0.7-3.2c1.3-2.2,3.7-3.2,5.4-2.2
				c0.9,0.5,1.4,1.4,1.5,2.5s-0.1,2.2-0.7,3.2c-0.6,1-1.5,1.8-2.4,2.3C126.9,821.6,126.4,821.7,125.9,821.7z M127.5,814.4
				c-0.9,0-2,0.7-2.7,1.9c-0.4,0.8-0.6,1.6-0.6,2.4c0.1,0.7,0.4,1.2,0.8,1.5c0.5,0.3,1,0.3,1.7,0s1.3-0.9,1.8-1.7
				c0.4-0.8,0.6-1.6,0.6-2.4c-0.1-0.7-0.4-1.2-0.8-1.5C128.1,814.5,127.8,814.4,127.5,814.4z"/>
		</g>
	</g>
	<g>
		<path class="st6" d="M105.3,808.4c-0.3,0-0.5-0.2-0.6-0.4l-0.2-0.3c-0.7-1.4-1.5-3.1-0.1-5.6c0.2-0.3,0.6-0.5,1-0.3
			c0.3,0.2,0.5,0.6,0.3,1c-1,1.8-0.5,2.9,0.2,4.2l0.2,0.3c0.2,0.4,0,0.8-0.3,0.9C105.5,808.4,105.4,808.4,105.3,808.4z"/>
	</g>
	<g>
		<path class="st6" d="M108.7,810.2c-0.2,0-0.4-0.1-0.6-0.3c-1.1-1.5-1.8-4-1.6-6.1c0-0.4,0.4-0.7,0.8-0.6c0.4,0,0.7,0.4,0.6,0.8
			c-0.2,1.8,0.4,3.9,1.3,5.1c0.2,0.3,0.2,0.8-0.1,1C109,810.2,108.8,810.2,108.7,810.2z"/>
	</g>
	<g>
		<path class="st6" d="M111.8,811.7c-0.2,0-0.4-0.1-0.6-0.3c-1.1-1.5-1.8-4-1.6-6.1c0-0.4,0.4-0.7,0.8-0.6c0.4,0,0.7,0.4,0.6,0.8
			c-0.2,1.8,0.4,3.9,1.3,5.1c0.2,0.3,0.2,0.8-0.1,1C112.1,811.6,112,811.7,111.8,811.7z"/>
	</g>
</g>
<g>
	<rect x="93" y="760" class="st9" width="93" height="93"/>
</g>
<g>
	<rect y="760" class="st9" width="93" height="93"/>
</g>
<g>
	<path class="st6" d="M47.5,814.9c-0.5,0-1.1-0.1-1.6-0.4c-1.8-1.1-2.2-3.8-0.8-6.2c0.6-1.1,1.6-2,2.6-2.4c1.1-0.5,2.2-0.5,3.2,0.1
		l0,0c1.8,1.1,2.2,3.8,0.8,6.2C50.7,813.8,49,814.9,47.5,814.9z M49.3,806.9c-0.3,0-0.7,0.1-1,0.2c-0.8,0.3-1.5,1-2,1.8
		c-1,1.7-0.8,3.6,0.3,4.3c1.1,0.6,2.9-0.2,3.8-1.9c1-1.7,0.8-3.6-0.3-4.3l0,0C49.9,807,49.6,806.9,49.3,806.9z"/>
</g>
<g>
	<path class="st6" d="M43.6,813c-0.1,0-0.2,0-0.4-0.1c-0.9-0.5-1.5-1.5-1.6-2.7c-0.1-1.1,0.2-2.4,0.8-3.5c1.4-2.4,4-3.4,5.8-2.4
		c0.3,0.2,0.5,0.6,0.3,1c-0.2,0.3-0.6,0.5-1,0.3c-1.1-0.6-2.9,0.2-3.8,1.9c-0.5,0.9-0.7,1.8-0.6,2.6c0.1,0.8,0.4,1.3,0.9,1.6
		c0.3,0.2,0.5,0.6,0.3,1C44.1,812.9,43.8,813,43.6,813z"/>
</g>
<g>
	<path class="st6" d="M46.3,814.6c-0.1,0-0.2,0-0.4-0.1l-2.7-1.6c-0.3-0.2-0.5-0.6-0.3-1c0.2-0.3,0.6-0.5,1-0.3l2.7,1.6
		c0.3,0.2,0.5,0.6,0.3,1C46.8,814.4,46.5,814.6,46.3,814.6z"/>
</g>
<g>
	<path class="st6" d="M50.5,807.2c-0.1,0-0.2,0-0.4-0.1l-2.7-1.6c-0.3-0.2-0.5-0.6-0.3-1c0.2-0.3,0.6-0.5,1-0.3l2.7,1.6
		c0.3,0.2,0.5,0.6,0.3,1C51,807.1,50.8,807.2,50.5,807.2z"/>
</g>
<g>
	<path class="st6" d="M26.9,803.4c-0.1,0-0.2,0-0.4-0.1l-10.2-5.9c-0.3-0.2-0.5-0.6-0.3-1c0.2-0.3,0.6-0.5,1-0.3l10.2,5.9
		c0.3,0.2,0.5,0.6,0.3,1C27.4,803.3,27.2,803.4,26.9,803.4z"/>
</g>
<g>
	<path class="st6" d="M32.4,796.8c-0.1,0-0.2,0-0.4-0.1l-11.4-6.6c-0.3-0.2-0.5-0.6-0.3-1s0.6-0.5,1-0.3l11.4,6.6
		c0.3,0.2,0.5,0.6,0.3,1C32.9,796.6,32.6,796.8,32.4,796.8z"/>
</g>
<g>
	<g>
		<path class="st6" d="M10.2,790.8c-0.1,0-0.2,0-0.4-0.1c-0.5-0.3-0.7-0.7-0.8-1.3c-0.1-0.5,0.1-1,0.3-1.5c0.3-0.5,0.7-0.9,1.2-1.1
			s1.1-0.2,1.5,0c0.3,0.2,0.5,0.6,0.3,1c-0.2,0.3-0.6,0.5-1,0.3c-0.1,0-0.2,0-0.3,0c-0.2,0.1-0.4,0.3-0.5,0.5s-0.2,0.5-0.2,0.7
			c0,0.1,0.1,0.2,0.1,0.2c0.3,0.2,0.5,0.6,0.3,1C10.7,790.6,10.4,790.8,10.2,790.8z"/>
	</g>
	<g>
		<path class="st6" d="M15.6,793.8c-0.1,0-0.2,0-0.4-0.1l-5.4-3.1c-0.3-0.2-0.5-0.6-0.3-1s0.6-0.5,1-0.3l5.4,3.1
			c0.3,0.2,0.5,0.6,0.3,1C16,793.7,15.8,793.8,15.6,793.8z"/>
	</g>
	<g>
		<path class="st6" d="M17,791.2c-0.1,0-0.2,0-0.4-0.1l-5.3-3c-0.3-0.2-0.5-0.6-0.3-1c0.2-0.3,0.6-0.5,1-0.3l5.3,3
			c0.3,0.2,0.5,0.6,0.3,1C17.5,791,17.3,791.2,17,791.2z"/>
	</g>
</g>
<g>
	<path class="st6" d="M16.7,797.5c-0.1,0-0.2,0-0.4-0.1c-1.8-1.1-2.2-3.8-0.8-6.2c0.6-1.1,1.6-2,2.6-2.4c1.1-0.5,2.2-0.5,3.2,0.1
		c0.3,0.2,0.5,0.6,0.3,1c-0.2,0.3-0.6,0.5-1,0.3c-0.5-0.3-1.2-0.3-1.9,0c-0.8,0.3-1.5,1-2,1.8c-1,1.7-0.8,3.6,0.3,4.3
		c0.3,0.2,0.5,0.6,0.3,1C17.2,797.4,17,797.5,16.7,797.5z"/>
</g>
<g>
	<path class="st7" d="M28.9,797.4l-0.6-0.3l0.2-0.4l0.6,0.3L28.9,797.4z M27.7,796.7l-0.6-0.3l0.2-0.4l0.6,0.3L27.7,796.7z
		 M26.5,796l-0.6-0.3l0.2-0.4l0.6,0.3L26.5,796z M25.2,795.3l-0.6-0.3l0.2-0.4l0.6,0.3L25.2,795.3z M24,794.6l-0.6-0.3l0.2-0.4
		l0.6,0.3L24,794.6z M22.7,793.9l-0.6-0.3l0.2-0.4l0.6,0.3L22.7,793.9z M21.5,793.2l-0.6-0.3l0.2-0.4l0.6,0.3L21.5,793.2z
		 M20.3,792.5l-0.6-0.3l0.2-0.4l0.6,0.3L20.3,792.5z"/>
</g>
<g>
	<path class="st7" d="M26.2,799.3l-0.6-0.3l0.2-0.4l0.6,0.3L26.2,799.3z M24.9,798.6l-0.6-0.3l0.2-0.4l0.6,0.3L24.9,798.6z
		 M23.7,797.9l-0.6-0.3l0.2-0.4l0.6,0.3L23.7,797.9z M22.4,797.3l-0.6-0.3l0.2-0.4l0.6,0.3L22.4,797.3z M21.2,796.6l-0.6-0.3
		l0.2-0.4l0.6,0.3L21.2,796.6z M20,795.9l-0.6-0.3l0.2-0.4l0.6,0.3L20,795.9z M18.7,795.2l-0.6-0.3l0.2-0.4l0.6,0.3L18.7,795.2z"/>
</g>
<g>
	<g>
		<path class="st6" d="M28.6,839.2c-1.3,0-2.4-1.1-2.4-2.4V800c0,0,0-0.1,0-0.2s0-0.1,0-0.2c0-0.1,0-0.2,0.1-0.2
			c0-0.1,0-0.1,0.1-0.2c0-0.1,0.1-0.1,0.1-0.2s0.1-0.1,0.1-0.2c0-0.1,0.1-0.1,0.1-0.2c0.1-0.1,0.1-0.1,0.2-0.2
			c0.1-0.1,0.1-0.1,0.2-0.1s0.1-0.1,0.2-0.1L77,769.5c1.1-0.7,2.6-0.3,3.3,0.9c0.7,1.1,0.3,2.6-0.9,3.3l-48.4,28V837
			C31,838.1,30,839.2,28.6,839.2z M78.3,770.5c-0.2,0-0.3,0-0.5,0.1l-49.6,28.7c-0.1,0-0.1,0.1-0.1,0.1l-0.3,0.3l-0.1,0.3
			c0,0.1,0,0.2,0,0.2v36.7c0,0.5,0.4,1,1,1s1-0.4,1-1v-36.1l49.1-28.4c0.5-0.3,0.6-0.9,0.4-1.3C78.9,770.7,78.6,770.5,78.3,770.5z"
			/>
	</g>
</g>
<g>
	<g>
		<g>
			<path class="st7" d="M62.9,891.4l-0.3-0.6l0.6-0.3l0.3,0.6L62.9,891.4z M64.2,890.8l-0.3-0.6l0.6-0.3l0.3,0.6L64.2,890.8z
				 M65.4,890.1l-0.3-0.6l0.6-0.3l0.3,0.6L65.4,890.1z M66.7,889.4l-0.3-0.6l0.6-0.3l0.3,0.6L66.7,889.4z M67.9,888.8l-0.3-0.6
				l0.6-0.3l0.3,0.6L67.9,888.8z M69.2,888.1l-0.3-0.6l0.4-0.2l0.3,0.6L69.2,888.1z"/>
		</g>
		<g>
			<path class="st7" d="M66.8,900.7l-0.1-0.7c0.2,0,0.4-0.1,0.6-0.1l0.2,0.7C67.3,900.6,67,900.7,66.8,900.7z M66,900.7
				c-0.2,0-0.5-0.1-0.8-0.2l0.2-0.7c0.2,0.1,0.4,0.1,0.6,0.1V900.7z M64.5,900.2c-0.2-0.1-0.4-0.2-0.7-0.4l0.4-0.6
				c0.2,0.1,0.4,0.2,0.6,0.3L64.5,900.2z M68.2,900.1l-0.4-0.6c0.2-0.1,0.3-0.3,0.5-0.4l0.5,0.5C68.7,899.8,68.5,900,68.2,900.1z
				 M63.3,899.4c-0.2-0.2-0.4-0.3-0.5-0.5l0.5-0.5c0.2,0.2,0.3,0.3,0.5,0.5L63.3,899.4z M69.3,899l-0.6-0.3c0.1-0.2,0.2-0.4,0.2-0.6
				l0.7,0.2C69.5,898.5,69.4,898.7,69.3,899z M62.2,898.3c-0.1-0.2-0.3-0.4-0.4-0.6l0.6-0.4c0.1,0.2,0.2,0.4,0.4,0.6L62.2,898.3z
				 M69.7,897.5l-0.7-0.1c0-0.2,0-0.4,0-0.6l0.7-0.1C69.8,897,69.8,897.3,69.7,897.5z M61.5,897c-0.1-0.2-0.2-0.5-0.3-0.7l0.7-0.2
				c0.1,0.2,0.2,0.4,0.3,0.6L61.5,897z M69,896.1c0-0.2-0.1-0.4-0.1-0.7l0.7-0.2c0.1,0.2,0.1,0.5,0.1,0.7L69,896.1z M61,895.6
				c-0.1-0.2-0.1-0.5-0.1-0.7l0.7-0.1c0,0.2,0.1,0.4,0.1,0.7L61,895.6z M68.7,894.8c-0.1-0.2-0.2-0.4-0.3-0.6l0.6-0.3
				c0.1,0.2,0.2,0.5,0.3,0.7L68.7,894.8z M61.5,894.2h-0.7c0-0.3,0-0.5,0.1-0.8l0.7,0.1C61.6,893.7,61.6,893.9,61.5,894.2z
				 M68.1,893.6c-0.1-0.2-0.3-0.4-0.4-0.5l0.6-0.4c0.2,0.2,0.3,0.4,0.4,0.6L68.1,893.6z M61.8,892.9l-0.7-0.2
				c0.1-0.2,0.2-0.5,0.3-0.7l0.6,0.4C62,892.5,61.9,892.7,61.8,892.9z M67.2,892.5c-0.2-0.2-0.3-0.3-0.5-0.4l0.4-0.6
				c0.2,0.2,0.4,0.3,0.6,0.5L67.2,892.5z M62.5,891.8l-0.5-0.5c0.2-0.2,0.4-0.3,0.6-0.5l0.4,0.6C62.8,891.5,62.6,891.7,62.5,891.8z
				 M66.2,891.7c-0.2-0.1-0.4-0.2-0.6-0.3l0.3-0.7c0.2,0.1,0.5,0.2,0.7,0.3L66.2,891.7z M63.2,891.3l-0.3-0.6
				c0.2-0.1,0.5-0.2,0.8-0.2l0.1,0.7C63.5,891.2,63.3,891.2,63.2,891.3z M65,891.2c-0.2-0.1-0.4-0.1-0.6-0.1v-0.7
				c0.3,0,0.5,0.1,0.8,0.1L65,891.2z"/>
		</g>
		<g>
			<path class="st6" d="M11.8,914.4c-0.2,0-0.5-0.1-0.6-0.4c-0.2-0.3-0.1-0.8,0.3-1l57.6-33.2c0.3-0.2,0.8-0.1,1,0.3
				c0.2,0.3,0.1,0.8-0.3,1l-57.6,33.2C12,914.4,11.9,914.4,11.8,914.4z"/>
		</g>
		<g>
			<path class="st7" d="M49.5,892.2h-0.7v-0.7h0.7V892.2z M49.5,890.8h-0.7v-0.7h0.7V890.8z M49.5,889.4h-0.7v-0.7h0.7V889.4z
				 M49.5,888h-0.7v-0.7h0.7V888z M49.5,886.5h-0.7v-0.7h0.7V886.5z M49.5,885.1h-0.7v-0.7h0.7V885.1z M49.5,883.7h-0.7V883h0.7
				V883.7z M49.5,882.3h-0.7v-0.7h0.7V882.3z M49.5,880.9h-0.7v-0.7h0.7V880.9z M49.5,879.4h-0.7v-0.7h0.7V879.4z M49.5,878h-0.7
				v-0.7h0.7V878z M49.5,876.6h-0.7v-0.7h0.7V876.6z M49.5,875.2h-0.7v-0.7h0.7V875.2z M49.5,873.8h-0.7v-0.7h0.7V873.8z
				 M49.5,872.4h-0.7v-0.7h0.7V872.4z M49.5,870.9h-0.7v-0.7h0.7V870.9z M49.5,869.5h-0.7v-0.7h0.7V869.5z M49.5,868.1h-0.7v-0.4
				h0.7V868.1z"/>
		</g>
		<g>
			<path class="st6" d="M49.1,915c-0.4,0-0.7-0.3-0.7-0.7v-22.1c0-0.4,0.3-0.7,0.7-0.7s0.7,0.3,0.7,0.7v22.1
				C49.8,914.7,49.5,915,49.1,915z"/>
		</g>
		<g>
			<path class="st6" d="M11.8,890.1c-0.2,0-0.5-0.1-0.6-0.4c-0.2-0.3-0.1-0.8,0.3-1L48.8,867c0.3-0.2,0.8-0.1,1,0.3
				c0.2,0.3,0.1,0.8-0.3,1L12.1,890C12,890,11.9,890.1,11.8,890.1z"/>
		</g>
		<g>
			<path class="st6" d="M69.4,881.2c-0.1,0-0.3,0-0.4-0.1l-20.3-12.8c-0.3-0.2-0.4-0.6-0.2-1c0.2-0.3,0.6-0.4,1-0.2l20.3,12.8
				c0.3,0.2,0.4,0.6,0.2,1C69.9,881.1,69.7,881.2,69.4,881.2z"/>
		</g>
		<g>
			<path class="st7" d="M66.3,898.6l-0.4-0.6l0.6-0.4l0.4,0.6L66.3,898.6z M67.5,897.9l-0.4-0.6l0.6-0.4l0.4,0.6L67.5,897.9z
				 M68.7,897.2l-0.4-0.6l0.6-0.4l0.4,0.6L68.7,897.2z M70,896.5l-0.4-0.6l0.6-0.4l0.4,0.6L70,896.5z M71.2,895.8l-0.4-0.6l0.6-0.4
				l0.4,0.6L71.2,895.8z M72.4,895.1l-0.4-0.6l0.6-0.4l0.4,0.6L72.4,895.1z M73.7,894.3l-0.4-0.6l0.6-0.4l0.4,0.6L73.7,894.3z
				 M74.9,893.6l-0.4-0.6l0.6-0.4l0.4,0.6L74.9,893.6z M76.1,892.9l-0.4-0.6l0.6-0.4l0.4,0.6L76.1,892.9z M77.3,892.2l-0.4-0.6
				l0.6-0.4l0.4,0.6L77.3,892.2z"/>
		</g>
		<g>
			<path class="st7" d="M63.4,893.8l-0.3-0.6l0.6-0.3l0.3,0.6L63.4,893.8z M64.7,893.1l-0.3-0.6l0.6-0.3l0.3,0.6L64.7,893.1z
				 M65.9,892.4l-0.3-0.6l0.6-0.3l0.3,0.6L65.9,892.4z M67.2,891.7l-0.3-0.6l0.6-0.3l0.3,0.6L67.2,891.7z M68.4,891l-0.3-0.6
				l0.6-0.3l0.3,0.6L68.4,891z M69.6,890.3l-0.3-0.6l0.6-0.3l0.3,0.6L69.6,890.3z M70.9,889.6l-0.3-0.6l0.6-0.3l0.3,0.6L70.9,889.6z
				 M72.1,888.9l-0.3-0.6l0.6-0.3l0.3,0.6L72.1,888.9z M73.4,888.2l-0.3-0.6l0.6-0.3l0.3,0.6L73.4,888.2z M74.6,887.6l-0.3-0.6
				l0.6-0.3l0.3,0.6L74.6,887.6z"/>
		</g>
		<g>
			<path class="st8" d="M83.4,888.3c1-0.6,1.1-2.1,0.4-3.4s-2.1-1.9-3.1-1.4"/>
			<path class="st6" d="M83.4,889c-0.2,0-0.5-0.1-0.6-0.4c-0.2-0.3-0.1-0.8,0.3-1c0.6-0.4,0.7-1.5,0.1-2.4c-0.5-1-1.5-1.5-2.1-1.1
				c-0.3,0.2-0.8,0.1-1-0.3c-0.2-0.3-0.1-0.8,0.3-1c1.3-0.8,3.1,0,4.1,1.6c1,1.7,0.7,3.6-0.6,4.3C83.7,889,83.6,889,83.4,889z"/>
		</g>
		<g>
			<line class="st9" x1="83.4" y1="888.3" x2="80.6" y2="889.9"/>
			<path class="st6" d="M80.6,890.7c-0.2,0-0.5-0.1-0.6-0.4c-0.2-0.3-0.1-0.8,0.3-1l2.8-1.6c0.3-0.2,0.8-0.1,1,0.3
				c0.2,0.3,0.1,0.8-0.3,1l-2.8,1.6C80.8,890.6,80.7,890.7,80.6,890.7z"/>
		</g>
		<g>
			<line class="st9" x1="80.7" y1="883.6" x2="77.8" y2="885.1"/>
			<path class="st6" d="M77.8,885.8c-0.3,0-0.5-0.1-0.6-0.4c-0.2-0.3-0.1-0.8,0.3-1l2.9-1.6c0.3-0.2,0.8-0.1,1,0.3
				c0.2,0.3,0.1,0.8-0.3,1l-2.9,1.6C78,885.8,77.9,885.8,77.8,885.8z"/>
		</g>
		<g>
			<g>
				<path class="st6" d="M79,894.2c-0.2,0-0.5-0.1-0.6-0.4c-0.2-0.3-0.1-0.8,0.3-1c0.7-0.4,1.1-1.1,1.2-2.1s-0.2-2.2-0.8-3.2
					c-1.2-2.1-3.4-3.1-4.8-2.3c-0.3,0.2-0.8,0.1-1-0.3c-0.2-0.3-0.1-0.8,0.3-1c2.1-1.2,5.2,0,6.8,2.8c0.8,1.3,1.1,2.8,0.9,4.1
					c-0.2,1.4-0.8,2.5-1.9,3.1C79.3,894.2,79.2,894.2,79,894.2z"/>
			</g>
			<g>
				<path class="st6" d="M69.4,899.5c-0.3,0-0.5-0.1-0.6-0.4c-0.2-0.3-0.1-0.8,0.3-1l9.6-5.3c0.3-0.2,0.8-0.1,1,0.3
					c0.2,0.3,0.1,0.8-0.3,1l-9.6,5.3C69.6,899.5,69.5,899.5,69.4,899.5z"/>
			</g>
			<g>
				<path class="st6" d="M69.4,887.8c-0.3,0-0.5-0.1-0.6-0.4c-0.2-0.3-0.1-0.8,0.3-1l4.5-2.4c0.3-0.2,0.8-0.1,1,0.3
					c0.2,0.3,0.1,0.8-0.3,1l-4.5,2.4C69.6,887.8,69.5,887.8,69.4,887.8z"/>
			</g>
		</g>
		<g>
			<path class="st6" d="M69.4,929c-0.4,0-0.7-0.3-0.7-0.7v-47.8c0-0.4,0.3-0.7,0.7-0.7s0.7,0.3,0.7,0.7v47.8
				C70.1,928.6,69.8,929,69.4,929z"/>
		</g>
		<g>
			<path class="st8" d="M55.2,897.7l2.1-1.2c1.1-0.7,2.8,0.1,3.7,1.6c0.9,1.6,0.7,3.4-0.4,4l-2.1,1.2"/>
			<path class="st6" d="M58.5,904.1c-0.2,0-0.5-0.1-0.6-0.4c-0.2-0.3-0.1-0.8,0.3-1l2.1-1.2c0.5-0.3,0.6-0.8,0.6-1.1
				c0.1-0.6-0.1-1.3-0.5-1.9c-0.7-1.2-1.9-1.8-2.7-1.4l-2.1,1.2c-0.3,0.2-0.8,0.1-1-0.3c-0.2-0.3-0.1-0.8,0.3-1l2.1-1.2
				c1.5-0.9,3.6,0,4.7,1.9c0.5,0.9,0.7,1.9,0.6,2.8c-0.1,1-0.6,1.8-1.3,2.2l-2.1,1.2C58.7,904.1,58.6,904.1,58.5,904.1z"/>
		</g>
		<g>
			<path class="st8" d="M63.1,893.1c1.1-0.7,2.8,0.1,3.7,1.6c0.9,1.6,0.7,3.4-0.4,4"/>
			<path class="st6" d="M66.3,899.4c-0.2,0-0.5-0.1-0.6-0.4c-0.2-0.3-0.1-0.8,0.3-1c0.8-0.5,0.9-1.9,0.2-3.1s-1.9-1.8-2.7-1.4
				c-0.3,0.2-0.8,0.1-1-0.3c-0.2-0.3-0.1-0.8,0.3-1c1.5-0.9,3.6,0,4.7,1.9c1.1,1.9,0.8,4.1-0.7,5C66.6,899.4,66.4,899.4,66.3,899.4z
				"/>
		</g>
		<g>
			<ellipse transform="matrix(0.866 -0.5 0.5 0.866 -442.6472 149.0318)" class="st8" cx="56.8" cy="900.5" rx="2.4" ry="3.3"/>
			<path class="st6" d="M57.6,904.3c-1.2,0-2.6-0.8-3.4-2.2c-1.1-1.9-0.8-4.1,0.7-5l0,0c1.5-0.9,3.6,0,4.7,1.9
				c0.5,0.9,0.7,1.9,0.6,2.8c-0.1,1-0.6,1.8-1.3,2.2C58.5,904.2,58,904.3,57.6,904.3z M55.6,898.3c-0.8,0.5-0.9,1.9-0.2,3.1
				s1.9,1.8,2.7,1.4c0.5-0.3,0.6-0.8,0.6-1.1c0.1-0.6-0.1-1.3-0.5-1.9C57.6,898.5,56.4,897.9,55.6,898.3L55.6,898.3z"/>
		</g>
		<g>
			<line class="st9" x1="67.2" y1="897.7" x2="61.5" y2="901"/>
			<path class="st6" d="M61.5,901.7c-0.2,0-0.5-0.1-0.6-0.4c-0.2-0.3-0.1-0.8,0.3-1l5.7-3.3c0.3-0.2,0.8-0.1,1,0.3
				c0.2,0.3,0.1,0.8-0.3,1l-5.7,3.3C61.7,901.7,61.6,901.7,61.5,901.7z"/>
		</g>
		<g>
			<line class="st9" x1="64.2" y1="892.9" x2="58.2" y2="896.3"/>
			<path class="st6" d="M58.2,897c-0.2,0-0.5-0.1-0.6-0.4c-0.2-0.3-0.1-0.8,0.3-1l6-3.3c0.3-0.2,0.8-0.1,1,0.3
				c0.2,0.3,0.1,0.8-0.3,1l-6,3.3C58.4,897,58.3,897,58.2,897z"/>
		</g>
	</g>
	<g>
		<rect y="853" class="st9" width="93" height="93"/>
	</g>
</g>
<g>
	<path class="st6" d="M12.3,791.9c-0.3,0-0.5-0.2-0.6-0.4l-0.1-0.2c-0.5-1-1.1-2.3-0.1-4.1c0.2-0.3,0.6-0.5,1-0.3
		c0.3,0.2,0.5,0.6,0.3,1c-0.7,1.1-0.3,1.8,0.1,2.7l0.1,0.2c0.2,0.4,0,0.8-0.3,0.9C12.5,791.9,12.4,791.9,12.3,791.9z"/>
</g>
<g>
	<path class="st6" d="M15,793.3c-0.2,0-0.4-0.1-0.6-0.3c-0.8-1.1-1.3-2.8-1.2-4.4c0-0.4,0.4-0.7,0.8-0.6c0.4,0,0.7,0.4,0.6,0.8
		c-0.1,1.2,0.3,2.6,0.9,3.4c0.2,0.3,0.2,0.8-0.1,1C15.3,793.3,15.1,793.3,15,793.3z"/>
</g>
<g>
	<rect x="93" y="853" class="st9" width="93" height="93"/>
	<path class="st6" d="M173.7,877.8h-7.4v-4.5h7.4V877.8z M167.7,876.4h4.6v-1.6h-4.6V876.4z"/>
	<path class="st6" d="M173.7,918.9h-7.4v-4.5h7.4V918.9z M167.7,917.5h4.6v-1.6h-4.6V917.5z"/>
	<g>
		<polygon class="st6" points="167.7,863.6 93,863.6 93,865 166.3,865 166.3,923.3 93,923.3 93,924.7 167.7,924.7 		"/>
		<path class="st6" d="M173,932.9H93v1.4h80c0.4,0,0.7-0.3,0.7-0.7S173.4,932.9,173,932.9z"/>
	</g>
	<path class="st10" d="M186,858.5h-13.7v75.1c0,0.4,0.3,0.7,0.7,0.7s0.7-0.3,0.7-0.7v-73.7H186V858.5z"/>
</g>
</svg>
