<?xml version="1.0" encoding="utf-8"?>
<!-- Generator: Adobe Illustrator 15.0.0, SVG Export Plug-In . SVG Version: 6.00 Build 0)  -->
<!DOCTYPE svg PUBLIC "-//W3C//DTD SVG 1.1//EN" "http://www.w3.org/Graphics/SVG/1.1/DTD/svg11.dtd">
<svg version="1.1" id="Layer_1" xmlns="http://www.w3.org/2000/svg" xmlns:xlink="http://www.w3.org/1999/xlink" x="0px" y="0px"
	 width="850.391px" height="850.39px" viewBox="0 0 850.391 850.39" enable-background="new 0 0 850.391 850.39"
	 xml:space="preserve">
<g id="Layer_1_1_" display="none" opacity="0.47">
	<path display="inline" fill="none" enable-background="new    " d="z"/>
</g>
<g id="Layer_2">
	<polyline fill="none" stroke="#000000" stroke-width="5" stroke-miterlimit="10" points="122,470 122,663 733.001,663 733.001,205 
		534.001,205 523.001,230 498.001,180 475.001,230 453.001,180 430.001,230 408.001,180 397.001,204 122,204 122,442.667 	"/>
	<line fill="none" stroke="#000000" stroke-width="5" stroke-miterlimit="10" x1="88" y1="471.333" x2="158.667" y2="471.333"/>
	<polyline fill="none" stroke="#000000" stroke-width="5" stroke-miterlimit="10" points="50.667,442.667 120.667,442.667 
		190.667,442.667 	"/>
	<circle fill="#F28936" stroke="#000000" stroke-width="5" stroke-miterlimit="10" cx="733.667" cy="434" r="69"/>
	<line fill="none" stroke="#000000" stroke-width="5" stroke-miterlimit="10" x1="72" y1="378" x2="72" y2="425.195"/>
	<line fill="none" stroke="#000000" stroke-width="5" stroke-miterlimit="10" x1="50.667" y1="401.598" x2="92.667" y2="401.598"/>
	<text transform="matrix(1 0 0 1 707.4646 461.5396)" font-family="'MyriadPro-Regular'" font-size="84.9462">A</text>
</g>
<g>
	<path fill="#F15C2F" d="M24.241,835.244c-2.971-5.03-6.899-10.076-7.472-10.854v14.121l13.115,7.517
		C29.884,846.028,27.503,840.763,24.241,835.244L24.241,835.244z"/>
	<g>
		<defs>
			<rect id="SVGID_1_" x="2" y="824.39" width="130.89" height="24"/>
		</defs>
		<clipPath id="SVGID_2_">
			<use xlink:href="#SVGID_1_"  overflow="visible"/>
		</clipPath>
		<path clip-path="url(#SVGID_2_)" fill="#F15C2F" d="M15.069,824.454c-0.725,0.985-4.529,5.885-7.427,10.79
			C4.381,840.763,2,846.028,2,846.028l13.069-7.49V824.454L15.069,824.454z"/>
		<path clip-path="url(#SVGID_2_)" fill="#F15C2F" d="M15.98,840.144l-13.517,7.459c0,0,7.044,0.818,13.454,0.786
			c6.299-0.03,13.626-0.734,13.626-0.734L15.98,840.144L15.98,840.144z"/>
	</g>
	<path fill="#414042" d="M44.212,845.558c0-0.361-0.008-0.657-0.03-0.945h0.573l0.029,0.563h0.022
		c0.201-0.332,0.536-0.642,1.13-0.642c0.491,0,0.862,0.288,1.019,0.699h0.015c0.111-0.194,0.253-0.346,0.402-0.454
		c0.215-0.159,0.453-0.245,0.795-0.245c0.476,0,1.182,0.303,1.182,1.515v2.058h-0.64v-1.978c0-0.671-0.253-1.075-0.781-1.075
		c-0.372,0-0.662,0.267-0.773,0.577c-0.03,0.087-0.052,0.202-0.052,0.317v2.158h-0.64v-2.093c0-0.556-0.253-0.96-0.751-0.96
		c-0.409,0-0.706,0.317-0.81,0.635c-0.037,0.094-0.052,0.202-0.052,0.311v2.107h-0.639V845.558L44.212,845.558z"/>
	<path fill="#414042" d="M52.822,846.02c0.008-0.404-0.171-1.032-0.907-1.032c-0.661,0-0.952,0.592-1.003,1.032H52.822
		L52.822,846.02z M50.904,846.475c0.015,0.858,0.58,1.213,1.234,1.213c0.468,0,0.75-0.08,0.997-0.181l0.111,0.454
		c-0.23,0.102-0.625,0.217-1.197,0.217c-1.107,0-1.77-0.707-1.77-1.761c0-1.055,0.639-1.884,1.688-1.884
		c1.174,0,1.487,1.003,1.487,1.646c0,0.13-0.015,0.23-0.022,0.296H50.904L50.904,846.475z"/>
	<path fill="#414042" d="M56.286,846.323c-0.713-0.014-1.524,0.108-1.524,0.787c0,0.412,0.282,0.606,0.617,0.606
		c0.468,0,0.766-0.289,0.87-0.585c0.022-0.064,0.037-0.137,0.037-0.202V846.323L56.286,846.323z M56.384,848.106l-0.053-0.44h-0.021
		c-0.201,0.274-0.588,0.521-1.101,0.521c-0.728,0-1.101-0.498-1.101-1.004c0-0.845,0.773-1.307,2.164-1.299v-0.072
		c0-0.289-0.082-0.809-0.818-0.809c-0.334,0-0.684,0.101-0.937,0.26l-0.148-0.419c0.297-0.188,0.729-0.31,1.182-0.31
		c1.101,0,1.368,0.729,1.368,1.429v1.307c0,0.303,0.015,0.599,0.06,0.837H56.384L56.384,848.106z"/>
	<path fill="#414042" d="M58.011,847.457c0.194,0.123,0.536,0.253,0.863,0.253c0.476,0,0.699-0.231,0.699-0.52
		c0-0.304-0.186-0.47-0.669-0.643c-0.647-0.225-0.952-0.57-0.952-0.989c0-0.563,0.469-1.024,1.242-1.024
		c0.365,0,0.685,0.101,0.885,0.216l-0.164,0.462c-0.142-0.087-0.402-0.202-0.736-0.202c-0.386,0-0.602,0.217-0.602,0.477
		c0,0.289,0.216,0.419,0.684,0.592c0.625,0.231,0.944,0.534,0.944,1.054c0,0.614-0.491,1.047-1.346,1.047
		c-0.394,0-0.758-0.094-1.011-0.238L58.011,847.457L58.011,847.457z"/>
	<path fill="#414042" d="M64.183,847.154c0,0.36,0.007,0.678,0.03,0.952h-0.58l-0.037-0.57h-0.015c-0.172,0.282-0.55,0.65-1.19,0.65
		c-0.565,0-1.242-0.304-1.242-1.531v-2.042h0.655v1.935c0,0.664,0.208,1.111,0.803,1.111c0.438,0,0.744-0.296,0.863-0.577
		c0.037-0.094,0.059-0.21,0.059-0.325v-2.144h0.654V847.154L64.183,847.154z"/>
	<path fill="#414042" d="M65.395,845.703c0-0.411-0.008-0.766-0.03-1.09h0.573l0.022,0.686h0.03
		c0.164-0.469,0.558-0.765,0.997-0.765c0.074,0,0.126,0.007,0.186,0.021v0.599c-0.067-0.015-0.134-0.021-0.223-0.021
		c-0.461,0-0.788,0.339-0.877,0.815c-0.015,0.087-0.029,0.188-0.029,0.296v1.862h-0.647V845.703L65.395,845.703z"/>
	<path fill="#414042" d="M70.16,846.02c0.007-0.404-0.171-1.032-0.907-1.032c-0.662,0-0.952,0.592-1.003,1.032H70.16L70.16,846.02z
		 M68.242,846.475c0.015,0.858,0.58,1.213,1.234,1.213c0.468,0,0.751-0.08,0.997-0.181l0.111,0.454
		c-0.23,0.102-0.625,0.217-1.197,0.217c-1.107,0-1.769-0.707-1.769-1.761c0-1.055,0.639-1.884,1.688-1.884
		c1.175,0,1.487,1.003,1.487,1.646c0,0.13-0.015,0.23-0.022,0.296H68.242L68.242,846.475z"/>
	<path fill="#414042" d="M71.729,845.558c0-0.361-0.008-0.657-0.03-0.945h0.572l0.03,0.563h0.022
		c0.201-0.332,0.536-0.642,1.13-0.642c0.491,0,0.862,0.288,1.019,0.699h0.015c0.111-0.194,0.252-0.346,0.401-0.454
		c0.216-0.159,0.454-0.245,0.796-0.245c0.476,0,1.182,0.303,1.182,1.515v2.058h-0.639v-1.978c0-0.671-0.252-1.075-0.781-1.075
		c-0.372,0-0.662,0.267-0.773,0.577c-0.03,0.087-0.052,0.202-0.052,0.317v2.158h-0.639v-2.093c0-0.556-0.253-0.96-0.751-0.96
		c-0.409,0-0.706,0.317-0.81,0.635c-0.037,0.094-0.053,0.202-0.053,0.311v2.107h-0.639V845.558L71.729,845.558z"/>
	<path fill="#414042" d="M80.339,846.02c0.008-0.404-0.171-1.032-0.907-1.032c-0.662,0-0.952,0.592-1.004,1.032H80.339
		L80.339,846.02z M78.42,846.475c0.015,0.858,0.581,1.213,1.235,1.213c0.468,0,0.751-0.08,0.996-0.181l0.112,0.454
		c-0.23,0.102-0.625,0.217-1.197,0.217c-1.108,0-1.77-0.707-1.77-1.761c0-1.055,0.639-1.884,1.688-1.884
		c1.175,0,1.487,1.003,1.487,1.646c0,0.13-0.015,0.23-0.023,0.296H78.42L78.42,846.475z"/>
	<path fill="#414042" d="M81.908,845.558c0-0.361-0.008-0.657-0.03-0.945h0.58l0.037,0.577h0.015
		c0.179-0.332,0.595-0.656,1.189-0.656c0.498,0,1.272,0.288,1.272,1.486v2.086h-0.655v-2.014c0-0.563-0.216-1.032-0.833-1.032
		c-0.431,0-0.766,0.296-0.877,0.649c-0.03,0.08-0.044,0.188-0.044,0.296v2.101h-0.654V845.558L81.908,845.558z"/>
	<path fill="#414042" d="M86.919,843.609v1.004h0.937v0.483h-0.937v1.884c0,0.434,0.126,0.679,0.491,0.679
		c0.171,0,0.297-0.021,0.379-0.043l0.03,0.476c-0.126,0.051-0.328,0.087-0.58,0.087c-0.305,0-0.55-0.094-0.707-0.267
		c-0.186-0.188-0.253-0.498-0.253-0.91v-1.905h-0.558v-0.483h0.558v-0.838L86.919,843.609L86.919,843.609z"/>
	<path fill="#414042" d="M90.421,848.106v-3.493h0.654v3.493H90.421L90.421,848.106z M91.149,843.63
		c0.008,0.217-0.155,0.391-0.416,0.391c-0.23,0-0.394-0.174-0.394-0.391c0-0.224,0.171-0.396,0.409-0.396
		C90.994,843.234,91.149,843.407,91.149,843.63L91.149,843.63z"/>
	<path fill="#414042" d="M92.287,845.558c0-0.361-0.007-0.657-0.03-0.945h0.58l0.037,0.577h0.015
		c0.179-0.332,0.595-0.656,1.19-0.656c0.498,0,1.271,0.288,1.271,1.486v2.086h-0.654v-2.014c0-0.563-0.215-1.032-0.833-1.032
		c-0.431,0-0.766,0.296-0.877,0.649c-0.03,0.08-0.045,0.188-0.045,0.296v2.101h-0.654V845.558L92.287,845.558z"/>
	<path fill="#414042" d="M96.541,845.558c0-0.361-0.008-0.657-0.03-0.945h0.58l0.038,0.577h0.015
		c0.179-0.332,0.595-0.656,1.19-0.656c0.498,0,1.271,0.288,1.271,1.486v2.086h-0.654v-2.014c0-0.563-0.215-1.032-0.833-1.032
		c-0.431,0-0.766,0.296-0.877,0.649c-0.03,0.08-0.044,0.188-0.044,0.296v2.101h-0.654V845.558L96.541,845.558z"/>
	<path fill="#414042" d="M101.195,846.367c0,0.765,0.454,1.343,1.093,1.343c0.625,0,1.093-0.57,1.093-1.357
		c0-0.592-0.305-1.343-1.078-1.343C101.529,845.009,101.195,845.703,101.195,846.367L101.195,846.367z M104.05,846.331
		c0,1.292-0.922,1.855-1.792,1.855c-0.974,0-1.725-0.693-1.725-1.798c0-1.169,0.788-1.854,1.784-1.854
		C103.351,844.534,104.05,845.262,104.05,846.331L104.05,846.331z"/>
	<path fill="#414042" d="M105.201,844.613l0.707,1.963c0.119,0.318,0.215,0.606,0.29,0.896h0.022
		c0.083-0.289,0.186-0.577,0.305-0.896l0.699-1.963h0.684l-1.413,3.493h-0.625l-1.368-3.493H105.201L105.201,844.613z"/>
	<path fill="#414042" d="M110.518,846.323c-0.713-0.014-1.524,0.108-1.524,0.787c0,0.412,0.283,0.606,0.617,0.606
		c0.468,0,0.766-0.289,0.87-0.585c0.022-0.064,0.037-0.137,0.037-0.202V846.323L110.518,846.323z M110.615,848.106l-0.052-0.44
		h-0.022c-0.201,0.274-0.587,0.521-1.101,0.521c-0.729,0-1.101-0.498-1.101-1.004c0-0.845,0.773-1.307,2.164-1.299v-0.072
		c0-0.289-0.082-0.809-0.818-0.809c-0.335,0-0.684,0.101-0.937,0.26l-0.148-0.419c0.297-0.188,0.728-0.31,1.182-0.31
		c1.101,0,1.368,0.729,1.368,1.429v1.307c0,0.303,0.015,0.599,0.06,0.837H110.615L110.615,848.106z"/>
	<path fill="#414042" d="M113.091,843.609v1.004h0.937v0.483h-0.937v1.884c0,0.434,0.126,0.679,0.49,0.679
		c0.171,0,0.297-0.021,0.379-0.043l0.03,0.476c-0.126,0.051-0.328,0.087-0.58,0.087c-0.305,0-0.55-0.094-0.706-0.267
		c-0.186-0.188-0.253-0.498-0.253-0.91v-1.905h-0.558v-0.483h0.558v-0.838L113.091,843.609L113.091,843.609z"/>
	<path fill="#414042" d="M114.89,848.106v-3.493h0.655v3.493H114.89L114.89,848.106z M115.618,843.63
		c0.008,0.217-0.156,0.391-0.417,0.391c-0.23,0-0.394-0.174-0.394-0.391c0-0.224,0.171-0.396,0.409-0.396
		C115.463,843.234,115.618,843.407,115.618,843.63L115.618,843.63z"/>
	<path fill="#414042" d="M117.158,846.367c0,0.765,0.453,1.343,1.093,1.343c0.625,0,1.093-0.57,1.093-1.357
		c0-0.592-0.305-1.343-1.078-1.343C117.492,845.009,117.158,845.703,117.158,846.367L117.158,846.367z M120.013,846.331
		c0,1.292-0.922,1.855-1.792,1.855c-0.974,0-1.725-0.693-1.725-1.798c0-1.169,0.789-1.854,1.785-1.854
		C119.314,844.534,120.013,845.262,120.013,846.331L120.013,846.331z"/>
	<path fill="#414042" d="M120.965,845.558c0-0.361-0.008-0.657-0.03-0.945h0.58l0.038,0.577h0.014
		c0.179-0.332,0.596-0.656,1.19-0.656c0.498,0,1.271,0.288,1.271,1.486v2.086h-0.654v-2.014c0-0.563-0.216-1.032-0.833-1.032
		c-0.431,0-0.766,0.296-0.877,0.649c-0.03,0.08-0.044,0.188-0.044,0.296v2.101h-0.654V845.558L120.965,845.558z"/>
	<path fill="#414042" d="M46.256,837.674c0.33,0.058,0.836,0.058,1.322,0.058c3.111,0.02,4.958-1.691,4.958-5.017
		c0.02-2.897-1.653-4.55-4.647-4.55c-0.758,0-1.303,0.059-1.633,0.137V837.674L46.256,837.674z M43.864,826.571
		c1.05-0.175,2.392-0.271,3.811-0.271c2.45,0,4.142,0.505,5.348,1.517c1.264,1.03,2.042,2.586,2.042,4.822
		c0,2.333-0.797,4.083-2.042,5.211c-1.303,1.186-3.383,1.789-5.931,1.789c-1.4,0-2.45-0.078-3.228-0.176V826.571L43.864,826.571z"/>
	<polygon fill="#414042" points="64.474,833.688 59.535,833.688 59.535,837.538 65.057,837.538 65.057,839.501 57.143,839.501 
		57.143,826.396 64.765,826.396 64.765,828.36 59.535,828.36 59.535,831.744 64.474,831.744 64.474,833.688 	"/>
	<path fill="#414042" d="M69.431,839.501l-3.208-13.105h2.547l1.244,5.95c0.331,1.595,0.642,3.267,0.855,4.569h0.039
		c0.214-1.381,0.583-2.937,0.953-4.589l1.42-5.931h2.508l1.302,6.027c0.331,1.556,0.603,3.015,0.797,4.434h0.039
		c0.233-1.438,0.545-2.936,0.895-4.53l1.361-5.931h2.431l-3.52,13.105h-2.567l-1.361-6.164c-0.33-1.497-0.563-2.741-0.719-4.161
		h-0.039c-0.233,1.4-0.486,2.664-0.875,4.161l-1.517,6.164H69.431L69.431,839.501z"/>
	<polygon fill="#414042" points="91.537,833.688 86.598,833.688 86.598,837.538 92.12,837.538 92.12,839.501 84.206,839.501 
		84.206,826.396 91.828,826.396 91.828,828.36 86.598,828.36 86.598,831.744 91.537,831.744 91.537,833.688 	"/>
	<path fill="#414042" d="M94.083,837.441c0.758,0.466,1.867,0.855,3.033,0.855c1.73,0,2.742-0.914,2.742-2.236
		c0-1.225-0.7-1.925-2.469-2.605c-2.139-0.759-3.461-1.867-3.461-3.714c0-2.042,1.691-3.559,4.239-3.559
		c1.342,0,2.314,0.312,2.897,0.642l-0.466,1.381c-0.428-0.233-1.303-0.622-2.489-0.622c-1.789,0-2.469,1.069-2.469,1.964
		c0,1.225,0.797,1.827,2.606,2.527c2.216,0.855,3.344,1.925,3.344,3.85c0,2.022-1.497,3.772-4.589,3.772
		c-1.264,0-2.645-0.369-3.344-0.836L94.083,837.441L94.083,837.441z"/>
	<path fill="#414042" d="M105.01,834.816c0,2.061,1.187,3.616,2.859,3.616c1.633,0,2.858-1.536,2.858-3.655
		c0-1.595-0.797-3.617-2.819-3.617C105.885,831.16,105.01,833.027,105.01,834.816L105.01,834.816z M112.476,834.718
		c0,3.48-2.411,4.997-4.686,4.997c-2.547,0-4.511-1.866-4.511-4.842c0-3.149,2.061-4.997,4.666-4.997
		C110.648,829.876,112.476,831.84,112.476,834.718L112.476,834.718z"/>
	<path fill="#414042" d="M114.808,839.501v-8.108h-1.322v-1.303h1.322v-0.447c0-1.322,0.292-2.527,1.089-3.286
		c0.642-0.622,1.498-0.874,2.294-0.874c0.603,0,1.128,0.136,1.458,0.271l-0.233,1.322c-0.252-0.116-0.603-0.214-1.088-0.214
		c-1.458,0-1.828,1.283-1.828,2.723v0.505h2.275v1.303H116.5v8.108H114.808L114.808,839.501z"/>
	<path fill="#414042" d="M122.585,827.388v2.702h2.45v1.303h-2.45v5.075c0,1.167,0.33,1.828,1.283,1.828
		c0.447,0,0.778-0.059,0.992-0.117l0.078,1.283c-0.331,0.137-0.855,0.233-1.517,0.233c-0.797,0-1.438-0.253-1.847-0.719
		c-0.486-0.506-0.661-1.342-0.661-2.45v-5.134h-1.458v-1.303h1.458v-2.255L122.585,827.388L122.585,827.388z"/>
	<path fill="#414042" d="M129.137,829.235h0.35c0.408,0,0.739-0.136,0.739-0.467c0-0.291-0.214-0.485-0.68-0.485
		c-0.194,0-0.331,0.02-0.408,0.038V829.235L129.137,829.235z M129.118,831.043h-0.739v-3.188c0.292-0.059,0.7-0.098,1.225-0.098
		c0.603,0,0.875,0.098,1.108,0.233c0.175,0.136,0.312,0.389,0.312,0.7c0,0.35-0.272,0.622-0.662,0.738v0.039
		c0.311,0.117,0.486,0.35,0.583,0.778c0.097,0.485,0.155,0.68,0.233,0.797h-0.797c-0.097-0.117-0.156-0.408-0.253-0.778
		c-0.058-0.35-0.252-0.505-0.661-0.505h-0.35V831.043L129.118,831.043z M127.154,829.371c0,1.42,1.05,2.548,2.489,2.548
		c1.399,0,2.431-1.128,2.431-2.527c0-1.42-1.031-2.567-2.45-2.567C128.204,826.824,127.154,827.971,127.154,829.371L127.154,829.371
		z M132.89,829.371c0,1.809-1.419,3.229-3.267,3.229c-1.828,0-3.286-1.42-3.286-3.229c0-1.769,1.458-3.188,3.286-3.188
		C131.471,826.182,132.89,827.602,132.89,829.371L132.89,829.371z"/>
</g>
</svg>
