<?xml version="1.0" encoding="utf-8"?>
<!-- Generator: Adobe Illustrator 19.1.0, SVG Export Plug-In . SVG Version: 6.00 Build 0)  -->
<svg version="1.1" id="Layer_1" xmlns="http://www.w3.org/2000/svg" xmlns:xlink="http://www.w3.org/1999/xlink" x="0px" y="0px"
	 viewBox="250 100 500 200" style="enable-background:new 250 100 500 200;" xml:space="preserve">
<style type="text/css">
	.st0{fill:#9FBBC2;}
	.st1{fill:#9FBBC2;stroke:#9FBBC2;stroke-width:0.25;stroke-miterlimit:10;}
</style>
<g>
	<path class="st0" d="M323,167.1c0-33,7.7-46.4,35.2-46.4c27.4,0,35.2,13.5,35.2,46.4c0,28.4-5.8,42.3-24.9,45.6
		c4.1,6.7,10.2,10,18.5,13.9l-7,5c-7.5-3.6-17.2-7.6-21.8-18.1C330.7,213.5,323,200.1,323,167.1z M358.2,129.2
		c-24.2,0-25,15.6-25,37.9c0,22.2,0.9,37.9,25,37.9c24,0,25-15.7,25-37.9C383.2,144.8,382.2,129.2,358.2,129.2z"/>
	<path class="st0" d="M432.1,166.1v8.5H400v-8.5C400,166.1,432.1,166.1,432.1,166.1z"/>
	<path class="st0" d="M449.5,212.6h-10.1v-89.7c8-1.3,18.1-2.1,27.8-2.1c19.4,0,35.4,3.9,35.4,27.4c0,22.9-14.2,27.9-34.3,27.9
		c-5,0-14.3-0.4-18.8-0.6V212.6z M449.5,167c7.3,0.8,12.5,0.8,17.7,0.8c16.3,0,25.4-3.9,25.4-19.8c0-13.7-6.6-19.2-24.9-19.2
		c-5.1,0-11.8,0.3-18.2,1.2V167z"/>
	<path class="st0" d="M511.2,167.1c0-33,7.8-46.4,35.2-46.4s35.2,13.5,35.2,46.4s-7.7,46.4-35.2,46.4S511.2,200.1,511.2,167.1z
		 M571.5,167.1c0-22.3-1-37.9-25-37.9c-24.1,0-25,15.6-25,37.9c0,22.2,0.9,37.9,25,37.9C570.5,205,571.5,189.3,571.5,167.1z"/>
	<path class="st0" d="M649.4,211.4c-5.7,1.2-12.8,2.1-20.7,2.1c-29.4,0-36.5-14.1-36.5-46.4c0-32.3,7.1-46.4,36.5-46.4
		c7.9,0,15,0.8,20.7,2l-0.9,8c-4.9-0.7-10.6-1.4-15.9-1.4c-27.9,0-30.2,13.4-30.2,37.9c0,24.6,2.7,37.9,30.2,37.9
		c5.3,0,10.7-0.6,15.9-1.4L649.4,211.4z"/>
</g>
<g>
	<path class="st1" d="M340.8,262.5h-4.2v14.1h-1.7v-14.1h-4.2v-1.4h10.2V262.5z"/>
	<path class="st1" d="M354.4,261.1h1.7v15.5h-1.7v-7.2h-8v7.2h-1.7v-15.5h1.7v6.9h8V261.1z"/>
	<path class="st1" d="M369.8,262.5h-3.9c-2.8,0-3.3,0.5-3.3,3v2.5h6.9v1.4h-6.9v2.8c0,2.4,0.5,2.9,3.3,2.9h3.9v1.4
		c-1.2,0-2.6,0.1-3.8,0.1c-2.6,0-5.1-0.1-5.1-3.4v-8.7c0-3.3,2.5-3.4,5.1-3.4c1,0,2.5,0,3.8,0.1V262.5z"/>
	<path class="st1" d="M381.4,276.6v-12.1c0-3.3,2.4-3.4,5.1-3.4c1,0,2.5,0,3.8,0.1v1.4h-3.9c-2.8,0-3.3,0.5-3.3,3v2.5h6.9v1.4h-6.9
		v7.2L381.4,276.6L381.4,276.6z"/>
	<path class="st1" d="M405.4,271.6c0,4.1-2.2,5.2-5.6,5.2s-5.6-1-5.6-5.2v-10.5h1.7v10.7c0,2.4,1.1,3.5,3.9,3.5
		c2.8,0,3.9-1.1,3.9-3.5v-10.7h1.7V271.6z"/>
	<path class="st1" d="M419.4,262.5h-4.2v14.1h-1.7v-14.1h-4.2v-1.4h10.2V262.5L419.4,262.5z"/>
	<path class="st1" d="M434.3,271.6c0,4.1-2.2,5.2-5.6,5.2s-5.6-1-5.6-5.2v-10.5h1.7v10.7c0,2.4,1.1,3.5,3.9,3.5
		c2.8,0,3.9-1.1,3.9-3.5v-10.7h1.7V271.6z"/>
	<path class="st1" d="M439.1,276.6v-15.3c1.4-0.2,3.1-0.3,4.7-0.3c3.3,0,6,0.6,6,4.6c0,3-1.5,4.2-3.8,4.5l3.8,6.5h-2l-3.6-6.3h-0.2
		c-0.8,0-2.4-0.1-3.2-0.1v6.5L439.1,276.6L439.1,276.6z M440.8,268.7c1.2,0.1,2.1,0.1,3,0.1c2.8,0,4.3-0.7,4.3-3.3
		c0-2.3-1.1-3.2-4.2-3.2c-0.9,0-2,0-3.1,0.2L440.8,268.7L440.8,268.7z"/>
	<path class="st1" d="M463,262.5h-3.9c-2.8,0-3.3,0.5-3.3,3v2.5h6.9v1.4h-6.9v2.8c0,2.4,0.5,2.9,3.3,2.9h3.9v1.4
		c-1.2,0-2.6,0.1-3.8,0.1c-2.6,0-5.1-0.1-5.1-3.4v-8.7c0-3.3,2.5-3.4,5.1-3.4c1,0,2.5,0,3.8,0.1V262.5z"/>
	<path class="st1" d="M474.3,268.8c0-5.6,1.3-7.9,6-7.9s6,2.3,6,7.9c0,5.6-1.3,7.9-6,7.9S474.3,274.4,474.3,268.8z M484.5,268.8
		c0-3.8-0.2-6.5-4.3-6.5s-4.3,2.7-4.3,6.5s0.2,6.5,4.3,6.5C484.4,275.3,484.5,272.7,484.5,268.8z"/>
	<path class="st1" d="M490.7,276.6v-12.1c0-3.3,2.4-3.4,5.1-3.4c1,0,2.5,0,3.8,0.1v1.4h-3.9c-2.8,0-3.3,0.5-3.3,3v2.5h6.9v1.4h-6.9
		v7.2L490.7,276.6L490.7,276.6z"/>
	<path class="st1" d="M510.9,261.3c1.4-0.2,3.1-0.3,4.7-0.3c5.7,0,6.7,2.6,6.7,7.9c0,5.2-1,7.9-6.7,7.9c-1.6,0-3.4-0.1-4.7-0.3
		V261.3z M512.6,262.6v12.5c0.8,0.1,1.7,0.2,2.5,0.2c5.4,0,5.5-2.8,5.5-6.5c0-3.7,0-6.5-5.5-6.5
		C514.4,262.4,513.4,262.5,512.6,262.6z"/>
	<path class="st1" d="M526.9,261.1h1.7v15.5h-1.7V261.1z"/>
	<path class="st1" d="M532.4,276.6l5.4-14.5c0.3-0.8,0.7-1.2,1.4-1.2s1.1,0.4,1.4,1.2l5.3,14.5h-1.8l-1.6-4.5h-6.6l-1.6,4.5H532.4z
		 M541.9,270.8l-2.8-7.9l-2.8,7.9H541.9z"/>
	<path class="st1" d="M555.4,268.5h4.5v5.7c0,2.4-2.1,2.6-5,2.6c-5,0-6.2-2.4-6.2-7.9c0-5.6,1.2-7.9,6.2-7.9c1.6,0,3.2,0.1,4.5,0.3
		l-0.1,1.4c-1.2-0.2-2.6-0.3-3.7-0.3c-4.8,0-5.2,2.3-5.2,6.4c0,4.2,0.4,6.5,5.2,6.5c2.5,0,2.7-0.8,2.7-1.9v-3.5h-2.8V268.5z"/>
	<path class="st1" d="M574.5,274.4v-13.2h1.6v14.4c0,0.8-0.4,1.2-1,1.2c-0.6,0-1-0.3-1.5-1.1l-7.6-12.3v13.2h-1.6v-14.4
		c0-0.9,0.4-1.2,1-1.2c0.6,0,1,0.4,1.5,1.1L574.5,274.4z"/>
	<path class="st1" d="M580.6,268.8c0-5.6,1.3-7.9,6-7.9s6,2.3,6,7.9c0,5.6-1.3,7.9-6,7.9C582,276.8,580.6,274.4,580.6,268.8z
		 M590.9,268.8c0-3.8-0.2-6.5-4.3-6.5c-4.1,0-4.3,2.7-4.3,6.5s0.1,6.5,4.3,6.5C590.7,275.3,590.9,272.7,590.9,268.8z"/>
	<path class="st1" d="M598.1,264.8c0,2.1,0.9,2.4,3.5,3.1c2.5,0.7,4.3,1.7,4.3,4.5c0,3.2-2,4.4-5.5,4.4c-1.7,0-2.8-0.1-4-0.3
		l0.2-1.4c1.2,0.2,2.6,0.3,3.7,0.3c2.2,0,3.8-0.5,3.8-2.8c0-1.9-1.3-2.4-3.5-3.1c-2.8-0.8-4.4-1.5-4.4-4.3c0-3.1,1.9-4.1,5.3-4.1
		c1.4,0,2.8,0.2,3.9,0.3l-0.2,1.4c-1-0.1-2.1-0.3-3.1-0.3C600.1,262.4,598.1,262.7,598.1,264.8z"/>
	<path class="st1" d="M619.4,262.5h-4.2v14.1h-1.7v-14.1h-4.2v-1.4h10.2V262.5z"/>
	<path class="st1" d="M623.1,261.1h1.7v15.5h-1.7V261.1z"/>
	<path class="st1" d="M639,276.4c-1,0.2-2.2,0.3-3.5,0.3c-5,0-6.2-2.4-6.2-7.9c0-5.5,1.2-7.9,6.2-7.9c1.4,0,2.5,0.1,3.5,0.3
		l-0.2,1.4c-0.8-0.1-1.8-0.3-2.7-0.3c-4.8,0-5.2,2.3-5.2,6.5c0,4.2,0.4,6.5,5.2,6.5c0.9,0,1.8-0.1,2.7-0.2L639,276.4z"/>
	<path class="st1" d="M644.1,264.8c0,2.1,0.9,2.4,3.5,3.1c2.5,0.7,4.3,1.7,4.3,4.5c0,3.2-2,4.4-5.5,4.4c-1.7,0-2.8-0.1-4-0.3
		l0.2-1.4c1.2,0.2,2.6,0.3,3.7,0.3c2.2,0,3.8-0.5,3.8-2.8c0-1.9-1.3-2.4-3.5-3.1c-2.8-0.8-4.4-1.5-4.4-4.3c0-3.1,1.9-4.1,5.3-4.1
		c1.4,0,2.8,0.2,3.9,0.3l-0.2,1.4c-1-0.1-2.1-0.3-3.1-0.3C646.1,262.4,644.1,262.7,644.1,264.8z"/>
</g>
<g>
	<path class="st0" d="M664.7,122h-3.1v10.3h-1.2V122h-3.1v-1h7.4V122L664.7,122z"/>
	<path class="st0" d="M671.4,129.2l3.4-7.4c0.3-0.5,0.6-0.8,1-0.8c0.5,0,0.8,0.3,0.8,0.9l0.6,10.5H676l-0.5-9.4l-3.3,7.3
		c-0.2,0.4-0.4,0.6-0.7,0.6c-0.3,0-0.6-0.2-0.7-0.6l-3.2-7.3l-0.6,9.4h-1.2l0.7-10.5c0-0.6,0.3-0.9,0.8-0.9c0.3,0,0.7,0.2,0.9,0.8
		L671.4,129.2z"/>
</g>
</svg>
