<?xml version="1.0" encoding="utf-8"?>
<!-- Generator: Adobe Illustrator 19.2.0, SVG Export Plug-In . SVG Version: 6.00 Build 0)  -->
<!DOCTYPE svg PUBLIC "-//W3C//DTD SVG 1.1//EN" "http://www.w3.org/Graphics/SVG/1.1/DTD/svg11.dtd">
<svg version="1.1" id="Laag_1" xmlns="http://www.w3.org/2000/svg" xmlns:xlink="http://www.w3.org/1999/xlink" x="0px" y="0px"
	 viewBox="0 0 410.4 120.8" style="enable-background:new 0 0 410.4 120.8;" xml:space="preserve">
<style type="text/css">
	.st0{fill:#6E6F71;}
</style>
<g>
	<path class="st0" d="M0,0h2.6l10.7,38.2h0.1L24.2,0h3.2l11,38.2h0.1L48.9,0h2.7L39.9,40.9H37L25.8,2.2h-0.1L14.6,40.9h-2.8L0,0z"/>
	<path class="st0" d="M57.8,5.9V0H60v5.9H57.8z M57.8,40.9V11.5H60v29.4H57.8z"/>
	<path class="st0" d="M80.6,13.3h-6.4v20.6c0,1.2,0.1,2.1,0.4,2.8c0.3,0.7,0.7,1.2,1.2,1.6c0.6,0.4,1.2,0.6,2,0.7
		c0.8,0.1,1.7,0.1,2.7,0.1v1.9c-1.1,0.1-2.2,0.1-3.2,0c-1.1-0.1-2-0.4-2.8-0.9c-0.8-0.5-1.4-1.2-1.9-2.1c-0.5-1-0.7-2.3-0.6-4V13.3
		h-5.4v-1.9H72V2.3h2.2v9.2h6.4V13.3z"/>
	<path class="st0" d="M89.7,0v17.8h0.1c0.4-1.1,0.9-2.1,1.6-2.9c0.7-0.9,1.5-1.6,2.5-2.2c0.9-0.6,2-1.1,3.1-1.4
		c1.1-0.3,2.2-0.5,3.4-0.5c1.7,0,3.2,0.2,4.4,0.6s2.2,1,2.9,1.7c0.8,0.7,1.4,1.5,1.8,2.3c0.4,0.9,0.8,1.7,0.9,2.6
		c0.2,0.9,0.3,1.7,0.3,2.5c0,0.8,0.1,1.5,0.1,2.1v18.2h-2.2V22.3c0-0.7-0.1-1.6-0.2-2.7c-0.1-1.1-0.4-2.2-1-3.2
		c-0.6-1-1.4-1.9-2.5-2.6s-2.7-1.1-4.7-1.1c-1.7,0-3.2,0.3-4.5,0.9s-2.4,1.5-3.3,2.5s-1.6,2.4-2.1,3.9c-0.5,1.5-0.7,3.2-0.7,5v15.9
		h-2.2V0H89.7z"/>
	<path class="st0" d="M118.6,26.2c0-2.1,0.3-4.1,0.9-5.9c0.6-1.9,1.5-3.5,2.6-4.9c1.1-1.4,2.6-2.5,4.2-3.3c1.7-0.8,3.6-1.2,5.8-1.2
		s4.1,0.4,5.8,1.2c1.7,0.8,3.1,1.9,4.2,3.3c1.1,1.4,2,3,2.6,4.9c0.6,1.9,0.9,3.8,0.9,5.9c0,2.1-0.3,4.1-0.9,6
		c-0.6,1.9-1.5,3.5-2.6,4.9c-1.1,1.4-2.6,2.5-4.2,3.3c-1.7,0.8-3.6,1.2-5.8,1.2s-4.1-0.4-5.8-1.2c-1.7-0.8-3.1-1.9-4.2-3.3
		c-1.1-1.4-2-3-2.6-4.9C118.9,30.3,118.6,28.3,118.6,26.2z M120.8,26.2c0,1.8,0.2,3.4,0.7,5.1c0.5,1.6,1.2,3.1,2.2,4.3
		c1,1.3,2.1,2.3,3.5,3c1.4,0.7,3,1.1,4.9,1.1c1.8,0,3.5-0.4,4.9-1.1c1.4-0.7,2.6-1.7,3.5-3c1-1.3,1.7-2.7,2.2-4.3
		c0.5-1.6,0.7-3.3,0.7-5.1c0-1.8-0.2-3.4-0.7-5.1c-0.5-1.6-1.2-3.1-2.2-4.3c-1-1.3-2.1-2.3-3.5-3c-1.4-0.7-3-1.1-4.9-1.1
		c-1.8,0-3.5,0.4-4.9,1.1c-1.4,0.7-2.6,1.7-3.5,3c-1,1.3-1.7,2.7-2.2,4.3C121.1,22.7,120.8,24.4,120.8,26.2z"/>
	<path class="st0" d="M176.9,40.9h-2.2v-6.3h-0.1c-0.4,1.1-0.9,2.1-1.6,2.9c-0.7,0.9-1.5,1.6-2.5,2.2c-0.9,0.6-2,1.1-3.1,1.4
		c-1.1,0.3-2.2,0.5-3.4,0.5c-1.7,0-3.2-0.2-4.4-0.6c-1.2-0.4-2.2-1-2.9-1.7c-0.8-0.7-1.4-1.5-1.8-2.3c-0.4-0.9-0.8-1.7-0.9-2.6
		s-0.3-1.7-0.3-2.5s-0.1-1.5-0.1-2.1V11.5h2.2v18.6c0,0.8,0.1,1.7,0.2,2.8s0.4,2.1,1,3.1c0.6,1,1.4,1.9,2.5,2.6
		c1.1,0.7,2.7,1.1,4.7,1.1c1.6,0,3.1-0.3,4.4-0.9c1.3-0.6,2.4-1.5,3.4-2.5c0.9-1.1,1.6-2.4,2.1-3.9c0.5-1.5,0.7-3.2,0.7-5V11.5h2.2
		V40.9z"/>
	<path class="st0" d="M197,13.3h-6.4v20.6c0,1.2,0.1,2.1,0.4,2.8c0.3,0.7,0.7,1.2,1.2,1.6c0.6,0.4,1.2,0.6,2,0.7
		c0.8,0.1,1.7,0.1,2.7,0.1v1.9c-1.1,0.1-2.2,0.1-3.2,0s-2-0.4-2.8-0.9c-0.8-0.5-1.4-1.2-1.9-2.1c-0.5-1-0.7-2.3-0.6-4V13.3h-5.4
		v-1.9h5.4V2.3h2.2v9.2h6.4V13.3z"/>
	<path class="st0" d="M242.1,35H242c-0.3,0.9-0.8,1.7-1.5,2.5c-0.6,0.8-1.4,1.5-2.4,2.1c-0.9,0.6-2,1.1-3.2,1.4
		c-1.2,0.3-2.5,0.5-3.9,0.5c-3.1,0-5.6-0.7-7.3-2c-1.7-1.4-2.6-3.4-2.6-6.3c0-1.7,0.3-3.1,1-4.2s1.6-1.9,2.6-2.6
		c1-0.6,2.2-1.1,3.5-1.3c1.3-0.3,2.5-0.5,3.7-0.6l3.4-0.3c1.6-0.1,2.8-0.3,3.7-0.5c0.9-0.2,1.6-0.6,2-1c0.5-0.4,0.7-1,0.9-1.7
		s0.2-1.5,0.2-2.6c0-0.8-0.2-1.5-0.5-2.2c-0.3-0.7-0.8-1.3-1.4-1.8c-0.7-0.5-1.5-1-2.5-1.3s-2.3-0.5-3.8-0.5c-2.6,0-4.8,0.6-6.4,1.9
		c-1.6,1.3-2.5,3.3-2.7,5.9h-2.2c0.2-3.2,1.2-5.7,3.1-7.3c1.9-1.6,4.7-2.4,8.2-2.4c3.5,0,6.1,0.7,7.8,2.1s2.4,3.2,2.4,5.5v17.1
		c0,0.4,0,0.8,0,1.3c0,0.4,0.1,0.8,0.2,1.1c0.1,0.3,0.3,0.6,0.6,0.8c0.3,0.2,0.6,0.3,1.1,0.3c0.4,0,0.9-0.1,1.6-0.2v1.8
		c-0.6,0.2-1.2,0.2-1.8,0.2c-0.9,0-1.6-0.1-2.1-0.3c-0.5-0.2-0.9-0.5-1.2-0.9c-0.3-0.4-0.4-0.8-0.5-1.3s-0.1-1.1-0.1-1.7V35z
		 M242.1,24.2c-0.5,0.6-1.3,1.1-2.4,1.3c-1.1,0.2-2.3,0.4-3.6,0.5l-3.7,0.3c-1.1,0.1-2.1,0.3-3.2,0.5c-1.1,0.2-2,0.6-2.9,1.1
		c-0.9,0.5-1.6,1.2-2.1,2c-0.5,0.9-0.8,2-0.8,3.3c0,2.2,0.7,3.8,2.1,4.8c1.4,1.1,3.3,1.6,5.7,1.6c2.5,0,4.4-0.4,5.9-1.3
		c1.5-0.9,2.6-1.9,3.3-3.1s1.2-2.3,1.5-3.4c0.2-1.1,0.3-1.8,0.3-2.2V24.2z"/>
	<path class="st0" d="M254.1,11.5h2.2v6.3h0.1c0.4-1.1,0.9-2.1,1.6-2.9c0.7-0.9,1.5-1.6,2.5-2.2c0.9-0.6,2-1.1,3.1-1.4
		c1.1-0.3,2.2-0.5,3.4-0.5c1.7,0,3.2,0.2,4.4,0.6c1.2,0.4,2.2,1,2.9,1.7s1.4,1.5,1.8,2.3c0.4,0.9,0.8,1.7,0.9,2.6
		c0.2,0.9,0.3,1.7,0.3,2.5c0,0.8,0.1,1.5,0.1,2.1v18.2h-2.2V22.3c0-0.7-0.1-1.6-0.2-2.7s-0.4-2.2-1-3.2c-0.6-1-1.4-1.9-2.5-2.6
		s-2.7-1.1-4.7-1.1c-1.7,0-3.2,0.3-4.5,0.9S260,15,259,16.1s-1.6,2.4-2.1,3.9c-0.5,1.5-0.7,3.2-0.7,5v15.9h-2.2V11.5z"/>
	<path class="st0" d="M305.9,5.9V0h2.2v5.9H305.9z M305.9,40.9V11.5h2.2v29.4H305.9z"/>
	<path class="st0" d="M340.6,34.6h-0.1c-1.2,2.3-2.7,4.1-4.6,5.2c-1.8,1.2-4.1,1.7-6.7,1.7c-2.2,0-4.1-0.4-5.7-1.3
		c-1.6-0.8-2.9-2-4-3.4c-1-1.4-1.8-3-2.3-4.9c-0.5-1.9-0.7-3.8-0.7-5.8c0-2.2,0.3-4.2,0.8-6.1c0.5-1.9,1.3-3.5,2.4-4.9
		s2.5-2.5,4.1-3.3c1.6-0.8,3.6-1.2,5.8-1.2c1.2,0,2.3,0.2,3.5,0.5c1.1,0.3,2.2,0.8,3.2,1.4c1,0.6,1.8,1.4,2.5,2.3
		c0.7,0.9,1.3,1.9,1.7,3.1h0.1V0h2.2v40.9h-2.2V34.6z M329.6,39.7c1.9,0,3.5-0.4,4.8-1.1c1.4-0.8,2.5-1.8,3.4-3
		c0.9-1.3,1.6-2.7,2-4.3c0.4-1.6,0.7-3.3,0.7-5c0-1.7-0.2-3.4-0.7-5c-0.4-1.6-1.1-3.1-2-4.4c-0.9-1.3-2-2.3-3.4-3.1
		c-1.4-0.8-3-1.1-4.9-1.1c-1.9,0-3.6,0.4-5,1.1c-1.4,0.7-2.5,1.7-3.4,3c-0.9,1.3-1.5,2.7-1.9,4.4c-0.4,1.6-0.6,3.3-0.6,5.1
		c0,1.7,0.2,3.4,0.7,5c0.4,1.6,1.1,3.1,2,4.3s2,2.3,3.4,3C326.1,39.3,327.7,39.7,329.6,39.7z"/>
	<path class="st0" d="M353.3,26.5v0.3c0,1.7,0.2,3.4,0.7,4.9c0.5,1.6,1.1,2.9,2,4.1c0.9,1.2,2,2.1,3.4,2.8c1.4,0.7,2.9,1,4.7,1
		c2.9,0,5.3-0.8,7-2.3c1.7-1.5,2.9-3.7,3.6-6.4h2.2c-0.6,3.4-2.1,6.1-4.2,7.9c-2.2,1.8-5,2.7-8.6,2.7c-2.2,0-4.1-0.4-5.7-1.2
		c-1.6-0.8-3-1.9-4.1-3.2c-1.1-1.4-1.9-3-2.4-4.8c-0.5-1.9-0.8-3.8-0.8-6c0-2.1,0.3-4,0.8-5.9c0.6-1.9,1.4-3.5,2.5-5
		s2.5-2.6,4.2-3.4c1.7-0.9,3.6-1.3,5.9-1.3c2.1,0,3.9,0.4,5.5,1.1c1.6,0.8,2.9,1.8,4,3.1c1.1,1.3,1.9,2.8,2.4,4.6
		c0.6,1.7,0.8,3.6,0.8,5.6c0,0.2,0,0.4,0,0.7c0,0.2,0,0.4,0,0.6H353.3z M375,24.6c-0.1-1.6-0.3-3.1-0.8-4.6c-0.5-1.4-1.1-2.7-2-3.8
		c-0.9-1.1-2-2-3.3-2.6c-1.3-0.6-2.7-1-4.4-1c-1.8,0-3.3,0.3-4.7,1c-1.3,0.7-2.5,1.5-3.4,2.6s-1.6,2.4-2.1,3.8
		c-0.5,1.5-0.8,2.9-0.9,4.5H375z"/>
	<path class="st0" d="M404.7,35h-0.1c-0.3,0.9-0.8,1.7-1.5,2.5c-0.6,0.8-1.4,1.5-2.4,2.1c-0.9,0.6-2,1.1-3.2,1.4s-2.5,0.5-3.9,0.5
		c-3.1,0-5.6-0.7-7.3-2s-2.6-3.4-2.6-6.3c0-1.7,0.3-3.1,1-4.2s1.6-1.9,2.6-2.6c1-0.6,2.2-1.1,3.5-1.3c1.3-0.3,2.5-0.5,3.7-0.6
		l3.4-0.3c1.6-0.1,2.8-0.3,3.7-0.5c0.9-0.2,1.6-0.6,2-1c0.5-0.4,0.7-1,0.9-1.7c0.1-0.7,0.2-1.5,0.2-2.6c0-0.8-0.2-1.5-0.5-2.2
		c-0.3-0.7-0.8-1.3-1.4-1.8c-0.7-0.5-1.5-1-2.5-1.3c-1-0.3-2.3-0.5-3.8-0.5c-2.6,0-4.8,0.6-6.4,1.9c-1.6,1.3-2.5,3.3-2.7,5.9h-2.2
		c0.2-3.2,1.2-5.7,3.1-7.3c1.9-1.6,4.7-2.4,8.2-2.4s6.1,0.7,7.8,2.1c1.6,1.4,2.4,3.2,2.4,5.5v17.1c0,0.4,0,0.8,0,1.3
		c0,0.4,0.1,0.8,0.2,1.1c0.1,0.3,0.3,0.6,0.6,0.8s0.6,0.3,1.1,0.3c0.4,0,0.9-0.1,1.6-0.2v1.8c-0.6,0.2-1.2,0.2-1.8,0.2
		c-0.9,0-1.6-0.1-2.1-0.3c-0.5-0.2-0.9-0.5-1.2-0.9c-0.3-0.4-0.4-0.8-0.5-1.3s-0.1-1.1-0.1-1.7V35z M404.7,24.2
		c-0.5,0.6-1.3,1.1-2.4,1.3c-1.1,0.2-2.3,0.4-3.6,0.5l-3.7,0.3c-1.1,0.1-2.1,0.3-3.2,0.5c-1.1,0.2-2,0.6-2.9,1.1
		c-0.9,0.5-1.6,1.2-2.1,2c-0.5,0.9-0.8,2-0.8,3.3c0,2.2,0.7,3.8,2.1,4.8c1.4,1.1,3.3,1.6,5.7,1.6c2.5,0,4.4-0.4,5.9-1.3
		c1.5-0.9,2.6-1.9,3.3-3.1s1.2-2.3,1.5-3.4s0.3-1.8,0.3-2.2V24.2z"/>
	<path class="st0" d="M14.4,82.1H8v20.6c0,1.2,0.1,2.1,0.4,2.8c0.3,0.7,0.7,1.2,1.2,1.6c0.6,0.4,1.2,0.6,2,0.7
		c0.8,0.1,1.7,0.1,2.7,0.1v1.9c-1.1,0.1-2.2,0.1-3.2,0s-2-0.4-2.8-0.9c-0.8-0.5-1.4-1.2-1.9-2.1c-0.5-1-0.7-2.3-0.6-4V82.1H0.3v-1.9
		h5.4V71H8v9.2h6.4V82.1z"/>
	<path class="st0" d="M23.4,68.7v17.8h0.1c0.4-1.1,0.9-2.1,1.6-2.9c0.7-0.9,1.5-1.6,2.5-2.2c0.9-0.6,2-1.1,3.1-1.4
		c1.1-0.3,2.2-0.5,3.4-0.5c1.7,0,3.2,0.2,4.4,0.6c1.2,0.4,2.2,1,2.9,1.7s1.4,1.5,1.8,2.3c0.4,0.9,0.8,1.7,0.9,2.6
		c0.2,0.9,0.3,1.7,0.3,2.5c0,0.8,0.1,1.5,0.1,2.1v18.2h-2.2V91c0-0.7-0.1-1.6-0.2-2.7s-0.4-2.2-1-3.2c-0.6-1-1.4-1.9-2.5-2.6
		s-2.7-1.1-4.7-1.1c-1.7,0-3.2,0.3-4.5,0.9s-2.4,1.5-3.3,2.5s-1.6,2.4-2.1,3.9c-0.5,1.5-0.7,3.2-0.7,5v15.9h-2.2V68.7H23.4z"/>
	<path class="st0" d="M54.5,95.2v0.3c0,1.7,0.2,3.4,0.7,4.9c0.5,1.6,1.1,2.9,2,4.1c0.9,1.2,2,2.1,3.4,2.8c1.4,0.7,2.9,1,4.7,1
		c2.9,0,5.3-0.8,7-2.3c1.7-1.5,2.9-3.7,3.6-6.4h2.2c-0.6,3.4-2.1,6.1-4.2,7.9c-2.2,1.8-5,2.7-8.6,2.7c-2.2,0-4.1-0.4-5.7-1.2
		c-1.6-0.8-3-1.9-4.1-3.2c-1.1-1.4-1.9-3-2.4-4.8c-0.5-1.9-0.8-3.8-0.8-6c0-2.1,0.3-4,0.8-5.9c0.6-1.9,1.4-3.5,2.5-5
		s2.5-2.6,4.2-3.4c1.7-0.9,3.6-1.3,5.9-1.3c2.1,0,3.9,0.4,5.5,1.1c1.6,0.8,2.9,1.8,4,3.1c1.1,1.3,1.9,2.8,2.4,4.6
		c0.6,1.7,0.8,3.6,0.8,5.6c0,0.2,0,0.4,0,0.7c0,0.2,0,0.4,0,0.6H54.5z M76.2,93.3c-0.1-1.6-0.3-3.1-0.8-4.6c-0.5-1.4-1.1-2.7-2-3.8
		c-0.9-1.1-2-2-3.3-2.6c-1.3-0.6-2.7-1-4.4-1c-1.8,0-3.3,0.3-4.7,1c-1.3,0.7-2.5,1.5-3.4,2.6s-1.6,2.4-2.1,3.8
		c-0.5,1.5-0.8,2.9-0.9,4.5H76.2z"/>
	<path class="st0" d="M88.5,86.7h0.2c0.3-1,0.8-1.9,1.5-2.7s1.6-1.6,2.6-2.2c1-0.6,2.1-1.1,3.4-1.4c1.2-0.3,2.5-0.5,3.9-0.4v2.2
		c-1.1-0.2-2.5,0-3.9,0.3c-1.5,0.4-2.9,1.2-4.2,2.5c-0.5,0.6-1,1.1-1.4,1.7c-0.4,0.5-0.7,1.1-1,1.8c-0.3,0.6-0.5,1.4-0.6,2.2
		c-0.2,0.8-0.2,1.8-0.3,2.9v16.1h-2.2V80.2h2.2V86.7z"/>
	<path class="st0" d="M105.9,95.2v0.3c0,1.7,0.2,3.4,0.7,4.9c0.5,1.6,1.1,2.9,2,4.1c0.9,1.2,2,2.1,3.4,2.8c1.4,0.7,2.9,1,4.7,1
		c2.9,0,5.3-0.8,7-2.3s2.9-3.7,3.6-6.4h2.2c-0.7,3.4-2.1,6.1-4.2,7.9c-2.2,1.8-5,2.7-8.6,2.7c-2.2,0-4.1-0.4-5.7-1.2
		c-1.6-0.8-3-1.9-4.1-3.2c-1.1-1.4-1.9-3-2.4-4.8s-0.8-3.8-0.8-6c0-2.1,0.3-4,0.8-5.9s1.4-3.5,2.5-5c1.1-1.4,2.5-2.6,4.2-3.4
		c1.7-0.9,3.6-1.3,5.9-1.3c2.1,0,3.9,0.4,5.5,1.1c1.6,0.8,2.9,1.8,4,3.1c1.1,1.3,1.9,2.8,2.4,4.6s0.8,3.6,0.8,5.6c0,0.2,0,0.4,0,0.7
		c0,0.2,0,0.4,0,0.6H105.9z M127.5,93.3c-0.1-1.6-0.3-3.1-0.8-4.6c-0.5-1.4-1.1-2.7-2-3.8c-0.9-1.1-2-2-3.3-2.6
		c-1.3-0.6-2.7-1-4.4-1c-1.8,0-3.3,0.3-4.7,1c-1.3,0.7-2.5,1.5-3.4,2.6c-0.9,1.1-1.6,2.4-2.1,3.8c-0.5,1.5-0.8,2.9-0.9,4.5H127.5z"
		/>
	<path class="st0" d="M156.9,74.6v-5.9h2.2v5.9H156.9z M156.9,109.6V80.2h2.2v29.4H156.9z"/>
	<path class="st0" d="M169.9,99.8c0.1,1.4,0.4,2.6,0.9,3.6c0.5,1,1.2,1.9,2.1,2.7c0.9,0.7,1.9,1.3,3,1.7c1.1,0.4,2.4,0.6,3.7,0.6
		c1,0,2-0.1,3.1-0.3s2.1-0.5,3-0.9c0.9-0.5,1.7-1.1,2.3-1.9c0.6-0.8,0.9-1.9,0.9-3.1c0-1.6-0.5-2.9-1.5-3.7c-1-0.8-2.2-1.5-3.8-1.9
		c-1.5-0.5-3.1-0.8-4.9-1.1c-1.7-0.3-3.4-0.7-4.9-1.3c-1.5-0.6-2.8-1.4-3.8-2.4c-1-1-1.5-2.6-1.5-4.6c0-1.5,0.3-2.7,1-3.6
		c0.6-1,1.5-1.7,2.5-2.3c1-0.6,2.1-1,3.4-1.2s2.5-0.4,3.8-0.4c1.5,0,3,0.2,4.3,0.5c1.3,0.3,2.5,0.9,3.5,1.7s1.7,1.7,2.3,2.9
		c0.6,1.2,0.8,2.6,0.8,4.3h-2.2c0-1.3-0.2-2.5-0.7-3.4c-0.4-1-1.1-1.7-1.8-2.3c-0.8-0.6-1.7-1-2.8-1.3s-2.2-0.4-3.4-0.4
		c-1,0-2,0.1-3,0.3c-1,0.2-1.9,0.5-2.7,1c-0.8,0.5-1.5,1.1-2,1.8c-0.5,0.7-0.8,1.6-0.8,2.6c0,1.2,0.3,2.1,0.9,2.9
		c0.6,0.7,1.3,1.3,2.3,1.7c0.9,0.4,2,0.8,3.1,1.1c1.2,0.3,2.3,0.5,3.5,0.8c1.5,0.3,2.8,0.6,4.1,0.9c1.3,0.4,2.4,0.9,3.3,1.5
		c0.9,0.6,1.7,1.4,2.2,2.4c0.5,1,0.8,2.3,0.8,3.8c0,1.6-0.4,2.9-1.1,4c-0.7,1-1.6,1.9-2.7,2.5c-1.1,0.6-2.3,1.1-3.7,1.3
		c-1.4,0.2-2.7,0.4-4,0.4c-1.7,0-3.2-0.2-4.7-0.7s-2.7-1.1-3.8-2c-1.1-0.9-1.9-2-2.5-3.3c-0.6-1.3-0.9-2.8-1-4.5H169.9z"/>
	<path class="st0" d="M218,80.2h2.2v6.3h0.1c0.4-1.1,0.9-2.1,1.6-2.9c0.7-0.9,1.5-1.6,2.5-2.2c0.9-0.6,2-1.1,3.1-1.4
		s2.2-0.5,3.4-0.5c1.7,0,3.2,0.2,4.4,0.6c1.2,0.4,2.2,1,2.9,1.7c0.8,0.7,1.4,1.5,1.8,2.3c0.4,0.9,0.8,1.7,0.9,2.6
		c0.2,0.9,0.3,1.7,0.3,2.5c0,0.8,0.1,1.5,0.1,2.1v18.2h-2.2V91c0-0.7-0.1-1.6-0.2-2.7s-0.4-2.2-1-3.2c-0.6-1-1.4-1.9-2.5-2.6
		c-1.1-0.7-2.7-1.1-4.7-1.1c-1.7,0-3.2,0.3-4.5,0.9c-1.3,0.6-2.4,1.5-3.3,2.5c-0.9,1.1-1.6,2.4-2.1,3.9c-0.5,1.5-0.7,3.2-0.7,5v15.9
		H218V80.2z"/>
	<path class="st0" d="M249.1,94.9c0-2.1,0.3-4.1,0.9-5.9c0.6-1.9,1.5-3.5,2.6-4.9c1.1-1.4,2.6-2.5,4.2-3.3c1.7-0.8,3.6-1.2,5.8-1.2
		s4.1,0.4,5.8,1.2c1.7,0.8,3.1,1.9,4.2,3.3c1.1,1.4,2,3,2.6,4.9c0.6,1.9,0.9,3.8,0.9,5.9c0,2.1-0.3,4.1-0.9,6
		c-0.6,1.9-1.5,3.5-2.6,4.9c-1.1,1.4-2.6,2.5-4.2,3.3s-3.6,1.2-5.8,1.2s-4.1-0.4-5.8-1.2s-3.1-1.9-4.2-3.3c-1.1-1.4-2-3-2.6-4.9
		C249.4,99,249.1,97,249.1,94.9z M251.3,94.9c0,1.8,0.2,3.4,0.7,5.1c0.5,1.6,1.2,3.1,2.2,4.3s2.1,2.3,3.5,3c1.4,0.7,3,1.1,4.9,1.1
		s3.5-0.4,4.9-1.1c1.4-0.7,2.6-1.7,3.6-3c1-1.3,1.7-2.7,2.2-4.3c0.5-1.6,0.7-3.3,0.7-5.1c0-1.8-0.2-3.4-0.7-5.1
		c-0.5-1.6-1.2-3.1-2.2-4.3c-1-1.3-2.1-2.3-3.6-3s-3-1.1-4.9-1.1s-3.5,0.4-4.9,1.1s-2.6,1.7-3.5,3s-1.7,2.7-2.2,4.3
		C251.6,91.4,251.3,93.1,251.3,94.9z"/>
	<path class="st0" d="M294.9,82.1h-6.4v20.6c0,1.2,0.1,2.1,0.4,2.8c0.3,0.7,0.7,1.2,1.2,1.6c0.6,0.4,1.2,0.6,2,0.7
		c0.8,0.1,1.7,0.1,2.7,0.1v1.9c-1.1,0.1-2.2,0.1-3.2,0c-1.1-0.1-2-0.4-2.8-0.9c-0.8-0.5-1.4-1.2-1.9-2.1c-0.5-1-0.7-2.3-0.6-4V82.1
		h-5.4v-1.9h5.4V71h2.2v9.2h6.4V82.1z"/>
	<path class="st0" d="M303.9,68.7v17.8h0.1c0.4-1.1,0.9-2.1,1.6-2.9c0.7-0.9,1.5-1.6,2.5-2.2c0.9-0.6,2-1.1,3.1-1.4s2.2-0.5,3.4-0.5
		c1.7,0,3.2,0.2,4.4,0.6c1.2,0.4,2.2,1,2.9,1.7c0.8,0.7,1.4,1.5,1.8,2.3c0.4,0.9,0.8,1.7,0.9,2.6c0.2,0.9,0.3,1.7,0.3,2.5
		c0,0.8,0.1,1.5,0.1,2.1v18.2h-2.2V91c0-0.7-0.1-1.6-0.2-2.7s-0.4-2.2-1-3.2c-0.6-1-1.4-1.9-2.5-2.6c-1.1-0.7-2.7-1.1-4.7-1.1
		c-1.7,0-3.2,0.3-4.5,0.9c-1.3,0.6-2.4,1.5-3.3,2.5c-0.9,1.1-1.6,2.4-2.1,3.9c-0.5,1.5-0.7,3.2-0.7,5v15.9h-2.2V68.7H303.9z"/>
	<path class="st0" d="M334.9,74.6v-5.9h2.2v5.9H334.9z M334.9,109.6V80.2h2.2v29.4H334.9z"/>
	<path class="st0" d="M346.8,80.2h2.2v6.3h0.1c0.4-1.1,0.9-2.1,1.6-2.9c0.7-0.9,1.5-1.6,2.5-2.2c0.9-0.6,2-1.1,3.1-1.4
		c1.1-0.3,2.2-0.5,3.4-0.5c1.7,0,3.2,0.2,4.4,0.6c1.2,0.4,2.2,1,2.9,1.7s1.4,1.5,1.8,2.3c0.4,0.9,0.8,1.7,0.9,2.6
		c0.2,0.9,0.3,1.7,0.3,2.5c0,0.8,0.1,1.5,0.1,2.1v18.2h-2.2V91c0-0.7-0.1-1.6-0.2-2.7s-0.4-2.2-1-3.2c-0.6-1-1.4-1.9-2.5-2.6
		s-2.7-1.1-4.7-1.1c-1.7,0-3.2,0.3-4.5,0.9s-2.4,1.5-3.3,2.5s-1.6,2.4-2.1,3.9c-0.5,1.5-0.7,3.2-0.7,5v15.9h-2.2V80.2z"/>
	<path class="st0" d="M403.6,80.2V108c0,1.6-0.2,3.2-0.6,4.8s-1,2.9-2,4.1c-0.9,1.2-2.2,2.1-3.9,2.8c-1.6,0.7-3.7,1.1-6.2,1.1
		c-1.6,0-3-0.2-4.4-0.5c-1.4-0.3-2.6-0.8-3.6-1.5c-1-0.7-1.9-1.6-2.5-2.8c-0.6-1.2-1-2.6-1.1-4.3h2.2c0.1,1.3,0.4,2.4,1,3.3
		c0.5,0.9,1.2,1.7,2.1,2.3c0.9,0.6,1.8,1,2.9,1.3c1.1,0.3,2.2,0.4,3.4,0.4c2,0,3.7-0.3,5.1-0.9c1.4-0.6,2.4-1.4,3.2-2.4
		c0.8-1,1.4-2.1,1.7-3.3c0.3-1.2,0.5-2.5,0.5-3.8v-6.8h-0.2c-1,2.2-2.4,3.8-4.2,5s-3.9,1.7-6.4,1.7c-2.2,0-4-0.4-5.6-1.1
		c-1.6-0.7-2.9-1.8-3.9-3.1c-1-1.3-1.8-2.9-2.3-4.6c-0.5-1.8-0.8-3.7-0.8-5.7c0-1.9,0.3-3.8,0.8-5.6c0.6-1.8,1.4-3.3,2.4-4.6
		c1.1-1.3,2.4-2.4,4-3.1c1.6-0.8,3.4-1.2,5.5-1.2c2.3,0,4.5,0.6,6.4,1.8c2,1.2,3.4,2.9,4.2,5h0.1v-6.1H403.6z M390.7,81.4
		c-1.8,0-3.3,0.4-4.7,1.1c-1.3,0.7-2.4,1.7-3.3,2.9c-0.9,1.2-1.5,2.5-1.9,4c-0.4,1.5-0.7,3-0.7,4.6c0,1.7,0.2,3.3,0.7,4.9
		c0.4,1.5,1.1,2.9,2,4c0.9,1.1,2,2.1,3.3,2.7c1.3,0.7,2.8,1,4.6,1c1.8,0,3.4-0.3,4.7-1c1.3-0.7,2.5-1.6,3.3-2.8c0.9-1.2,1.6-2.5,2-4
		c0.4-1.5,0.7-3.1,0.7-4.8c0-1.6-0.2-3.2-0.7-4.8c-0.4-1.5-1.1-2.9-2-4c-0.9-1.2-2-2.1-3.3-2.8C394.1,81.7,392.5,81.4,390.7,81.4z"
		/>
</g>
</svg>
