<?xml version="1.0" encoding="utf-8"?>
<!-- Generator: Adobe Illustrator 17.1.0, SVG Export Plug-In . SVG Version: 6.00 Build 0)  -->
<!DOCTYPE svg PUBLIC "-//W3C//DTD SVG 1.1//EN" "http://www.w3.org/Graphics/SVG/1.1/DTD/svg11.dtd">
<svg version="1.1" id="Ebene_1" xmlns="http://www.w3.org/2000/svg" xmlns:xlink="http://www.w3.org/1999/xlink" x="0px" y="0px"
	 viewBox="0 0 170 60" enable-background="new 0 0 170 60" xml:space="preserve">
<path fill="#D51030" d="M56.5,19.5h11.5c3.4,0,6.4,1.9,6.4,5.6c0,2-0.9,4.2-2.9,4.9c1.7,0.6,2.7,2.5,2.9,4.9c0.1,1,0.1,3.3,0.7,4.2
	h-6.1c-0.3-1-0.4-2-0.5-3c-0.2-1.9-0.3-3.8-2.7-3.8h-3.2v6.9h-6.1V19.5 M62.6,28.1h3.2c1.1,0,2.7-0.2,2.7-2c0-1.2-0.7-2-3-2h-2.8
	V28.1z"/>
<path fill="#D51030" d="M84,19.5h5.9L97,39.2h-6.3l-0.8-2.8h-6.3l-0.9,2.8h-6.1L84,19.5z M88.7,32.1L87,26.1h-0.1L85,32.1H88.7z"/>
<polygon fill="#D51030" points="99,19.5 107.7,19.5 110.5,31.1 110.5,31.1 113.3,19.5 121.9,19.5 121.9,39.2 116.2,39.2 116.2,26.5 
	116.2,26.5 112.8,39.2 108.2,39.2 104.8,26.5 104.8,26.5 104.8,39.2 99,39.2 "/>
<path fill="#D51030" d="M125.1,19.5h10.1c5.3,0,7.2,3.9,7.2,6.7c0,4.8-3.2,7-7.7,7h-3.6v6h-6.1V19.5 M131.2,28.5h2.3
	c1.6,0,3.2-0.1,3.2-2.1c0-1.8-1.4-1.9-2.9-1.9h-2.7V28.5z"/>
<polygon fill="#D51030" points="145.3,19.5 158.4,19.5 158.4,24.5 151.4,24.5 151.4,27 158.4,27 158.4,31.7 151.4,31.7 151.4,39.2 
	145.3,39.2 "/>
<path fill="#D51030" d="M17,29.3c0,0.8-0.7,1.5-1.5,1.5c-0.8,0-1.5-0.7-1.5-1.5c0-0.8,0.7-1.5,1.5-1.5C16.4,27.8,17,28.5,17,29.3"/>
<path fill="#D51030" d="M46.6,29.3c0,0.8-0.7,1.5-1.5,1.5c-0.8,0-1.5-0.7-1.5-1.5c0-0.8,0.7-1.5,1.5-1.5
	C45.9,27.8,46.6,28.5,46.6,29.3"/>
<path fill="#D51030" d="M36.3,15.2c0,0.8-0.7,1.5-1.5,1.5c-0.8,0-1.5-0.7-1.5-1.5c0-0.8,0.7-1.5,1.5-1.5
	C35.7,13.7,36.3,14.4,36.3,15.2"/>
<path fill="#D51030" d="M27.3,15.2c0,0.8-0.7,1.5-1.5,1.5c-0.8,0-1.5-0.7-1.5-1.5c0-0.8,0.7-1.5,1.5-1.5
	C26.6,13.7,27.3,14.4,27.3,15.2"/>
<path fill="#D51030" d="M36.3,43.4c0,0.8-0.7,1.5-1.5,1.5c-0.8,0-1.5-0.7-1.5-1.5c0-0.8,0.7-1.5,1.5-1.5
	C35.7,41.9,36.3,42.6,36.3,43.4"/>
<path fill="#D51030" d="M27.3,43.4c0,0.8-0.7,1.5-1.5,1.5c-0.8,0-1.5-0.7-1.5-1.5c0-0.8,0.7-1.5,1.5-1.5
	C26.6,41.9,27.3,42.6,27.3,43.4"/>
<path fill="#D51030" d="M40.2,29.3c0,0.8-0.7,1.5-1.5,1.5c-0.8,0-1.5-0.7-1.5-1.5c0-0.8,0.7-1.5,1.5-1.5
	C39.5,27.8,40.2,28.5,40.2,29.3"/>
<path fill="#D51030" d="M23.4,29.3c0,0.8-0.7,1.5-1.5,1.5c-0.8,0-1.5-0.7-1.5-1.5c0-0.8,0.7-1.5,1.5-1.5
	C22.8,27.8,23.4,28.5,23.4,29.3"/>
<path fill="#D51030" d="M27.3,22.2c0,0.8-0.7,1.5-1.5,1.5c-0.8,0-1.5-0.7-1.5-1.5c0-0.8,0.7-1.5,1.5-1.5
	C26.6,20.8,27.3,21.4,27.3,22.2"/>
<path fill="#D51030" d="M36.3,22.2c0,0.8-0.7,1.5-1.5,1.5c-0.8,0-1.5-0.7-1.5-1.5c0-0.8,0.7-1.5,1.5-1.5
	C35.7,20.8,36.3,21.4,36.3,22.2"/>
<path fill="#D51030" d="M27.3,36.3c0,0.8-0.7,1.5-1.5,1.5c-0.8,0-1.5-0.7-1.5-1.5c0-0.8,0.7-1.5,1.5-1.5
	C26.6,34.8,27.3,35.5,27.3,36.3"/>
<path fill="#D51030" d="M36.3,36.3c0,0.8-0.7,1.5-1.5,1.5c-0.8,0-1.5-0.7-1.5-1.5c0-0.8,0.7-1.5,1.5-1.5
	C35.7,34.8,36.3,35.5,36.3,36.3"/>
<path fill="#1D1D1B" d="M159.6,20.5c0.1-0.2,0.2-0.4,0.4-0.6c0.2-0.2,0.3-0.3,0.6-0.4c0.2-0.1,0.4-0.1,0.7-0.1c0.2,0,0.5,0,0.7,0.1
	c0.2,0.1,0.4,0.2,0.6,0.4c0.2,0.2,0.3,0.3,0.4,0.6c0.1,0.2,0.1,0.4,0.1,0.7c0,0.3,0,0.5-0.1,0.7c-0.1,0.2-0.2,0.4-0.4,0.6
	c-0.2,0.2-0.3,0.3-0.6,0.4c-0.2,0.1-0.4,0.1-0.7,0.1c-0.2,0-0.5,0-0.7-0.1c-0.2-0.1-0.4-0.2-0.6-0.4c-0.2-0.2-0.3-0.3-0.4-0.6
	c-0.1-0.2-0.1-0.5-0.1-0.7C159.5,21,159.5,20.7,159.6,20.5 M159.9,21.8c0.1,0.2,0.2,0.3,0.3,0.5c0.1,0.1,0.3,0.2,0.5,0.3
	c0.2,0.1,0.4,0.1,0.6,0.1c0.2,0,0.4,0,0.6-0.1c0.2-0.1,0.3-0.2,0.5-0.3c0.1-0.1,0.2-0.3,0.3-0.5c0.1-0.2,0.1-0.4,0.1-0.6
	c0-0.2,0-0.4-0.1-0.6c-0.1-0.2-0.2-0.3-0.3-0.5c-0.1-0.1-0.3-0.2-0.5-0.3c-0.2-0.1-0.4-0.1-0.6-0.1c-0.2,0-0.4,0-0.6,0.1
	c-0.2,0.1-0.3,0.2-0.5,0.3c-0.1,0.1-0.2,0.3-0.3,0.5c-0.1,0.2-0.1,0.4-0.1,0.6C159.8,21.4,159.8,21.6,159.9,21.8 M161.3,20.2
	c0.2,0,0.4,0,0.5,0.1c0.1,0.1,0.2,0.2,0.2,0.4c0,0.2-0.1,0.3-0.2,0.4c-0.1,0.1-0.2,0.1-0.4,0.2l0.6,0.9h-0.3l-0.6-0.9h-0.3v0.9h-0.3
	v-2.1H161.3z M161.2,21.1c0.1,0,0.1,0,0.2,0c0.1,0,0.1,0,0.2,0c0.1,0,0.1-0.1,0.1-0.1c0,0,0-0.1,0-0.2c0-0.1,0-0.1,0-0.2
	c0,0-0.1-0.1-0.1-0.1c0,0-0.1,0-0.1,0c-0.1,0-0.1,0-0.2,0h-0.4v0.7H161.2z"/>
<path fill="#1D1D1B" d="M62.6,54.6h-0.7v-1.2h0c-0.3,0.8-1.4,1.4-2.3,1.4c-2,0-2.9-1.6-2.9-3.4c0-1.8,0.9-3.4,2.9-3.4
	c1,0,1.9,0.5,2.2,1.4h0v-3.7h0.8V54.6 M59.6,54.1c1.7,0,2.3-1.4,2.3-2.8c0-1.3-0.6-2.8-2.3-2.8c-1.5,0-2.1,1.4-2.1,2.8
	C57.4,52.7,58.1,54.1,59.6,54.1"/>
<path fill="#1D1D1B" d="M64.3,45.6h0.8v1.3h-0.8V45.6z M64.3,48.1h0.8v6.5h-0.8V48.1z"/>
<path fill="#1D1D1B" d="M70.6,50c0-1-0.8-1.4-1.7-1.4c-0.7,0-1.5,0.3-1.5,1.1c0,0.7,0.8,1,1.3,1.1l1.1,0.2c0.9,0.1,1.8,0.7,1.8,1.8
	c0,1.4-1.4,1.9-2.6,1.9c-1.5,0-2.5-0.7-2.7-2.3h0.8c0.1,1.1,0.9,1.6,1.9,1.6c0.7,0,1.8-0.3,1.8-1.2c0-0.8-0.7-1-1.4-1.2l-1-0.2
	c-1-0.3-1.8-0.6-1.8-1.7c0-1.3,1.3-1.8,2.4-1.8c1.3,0,2.3,0.7,2.4,2.1H70.6"/>
<path fill="#1D1D1B" d="M77.5,50.1c-0.2-1-0.8-1.6-1.8-1.6c-1.5,0-2.3,1.4-2.3,2.8c0,1.4,0.8,2.8,2.3,2.8c1,0,1.8-0.8,1.9-1.8h0.8
	c-0.2,1.6-1.2,2.5-2.7,2.5c-2,0-3.1-1.6-3.1-3.4c0-1.9,1.1-3.4,3.1-3.4c1.4,0,2.4,0.7,2.6,2.2H77.5"/>
<path fill="#1D1D1B" d="M85.3,51.4c0,1.9-1.1,3.4-3.1,3.4c-2,0-3.1-1.6-3.1-3.4c0-1.9,1.1-3.4,3.1-3.4
	C84.3,47.9,85.3,49.5,85.3,51.4 M80,51.4c0,1.4,0.8,2.8,2.3,2.8c1.5,0,2.3-1.4,2.3-2.8c0-1.4-0.8-2.8-2.3-2.8
	C80.8,48.6,80,50,80,51.4"/>
<polygon fill="#1D1D1B" points="85.9,48.1 86.8,48.1 88.8,53.8 88.9,53.8 90.9,48.1 91.7,48.1 89.3,54.6 88.4,54.6 "/>
<path fill="#1D1D1B" d="M93.1,51.6c0,1.2,0.6,2.5,2.1,2.5c1.2,0,1.8-0.7,2-1.7H98c-0.3,1.5-1.2,2.3-2.8,2.3c-2.1,0-2.9-1.6-2.9-3.4
	c0-1.7,0.9-3.4,2.9-3.4c2.1,0,2.9,1.8,2.8,3.6H93.1 M97.2,50.9c0-1.2-0.8-2.3-2.1-2.3c-1.3,0-2,1.1-2.1,2.3H97.2z"/>
<path fill="#1D1D1B" d="M99.2,48.1h0.7v1.5h0c0.4-1,1.3-1.7,2.4-1.6v0.8c-1.4-0.1-2.4,1-2.4,2.3v3.5h-0.8V48.1"/>
<path fill="#1D1D1B" d="M108.2,48.1h1.3v0.7h-1.3v4.4c0,0.5,0.1,0.8,0.6,0.9c0.2,0,0.5,0,0.7,0v0.7c-0.2,0-0.5,0-0.7,0
	c-1.1,0-1.4-0.4-1.4-1.5v-4.4h-1.1v-0.7h1.1v-1.9h0.8V48.1"/>
<path fill="#1D1D1B" d="M110.8,45.6h0.8v3.6h0c0.3-0.8,1.2-1.3,2.1-1.3c1.8,0,2.4,1,2.4,2.5v4.2h-0.8v-4c0-1.1-0.4-2-1.6-2
	c-1.3,0-2,1-2,2.2v3.8h-0.8V45.6"/>
<path fill="#1D1D1B" d="M118.2,51.6c0,1.2,0.6,2.5,2.1,2.5c1.2,0,1.8-0.7,2-1.7h0.8c-0.3,1.5-1.2,2.3-2.8,2.3
	c-2.1,0-2.9-1.6-2.9-3.4c0-1.7,0.9-3.4,2.9-3.4c2.1,0,2.9,1.8,2.8,3.6H118.2 M122.3,50.9c0-1.2-0.8-2.3-2.1-2.3
	c-1.3,0-2,1.1-2.1,2.3H122.3z"/>
<path fill="#1D1D1B" d="M130.5,48.8h-1.3v5.8h-0.8v-5.8h-1.1v-0.7h1.1v-0.6c0-1.1,0.3-1.9,1.6-1.9c0.2,0,0.4,0,0.7,0v0.7
	c-0.2,0-0.4-0.1-0.6-0.1c-0.9,0-0.9,0.6-0.9,1.3v0.6h1.3V48.8"/>
<path fill="#1D1D1B" d="M136.6,54.6h-0.7v-1.2h0c-0.4,0.9-1.3,1.4-2.2,1.4c-1.6,0-2.3-1-2.3-2.5v-4.2h0.8v4.2c0,1.2,0.5,1.8,1.7,1.8
	c1.4,0,1.9-1.3,1.9-2.6v-3.4h0.8V54.6"/>
<path fill="#1D1D1B" d="M139.5,48.1h1.3v0.7h-1.3v4.4c0,0.5,0.1,0.8,0.6,0.9c0.2,0,0.5,0,0.7,0v0.7c-0.2,0-0.5,0-0.7,0
	c-1.1,0-1.4-0.4-1.4-1.5v-4.4h-1.1v-0.7h1.1v-1.9h0.8V48.1"/>
<path fill="#1D1D1B" d="M147.3,54.6h-0.7v-1.2h0c-0.4,0.9-1.3,1.4-2.2,1.4c-1.6,0-2.3-1-2.3-2.5v-4.2h0.8v4.2c0,1.2,0.5,1.8,1.7,1.8
	c1.4,0,1.9-1.3,1.9-2.6v-3.4h0.8V54.6"/>
<path fill="#1D1D1B" d="M149,48.1h0.7v1.5h0c0.4-1,1.3-1.7,2.4-1.6v0.8c-1.4-0.1-2.4,1-2.4,2.3v3.5H149V48.1"/>
<path fill="#1D1D1B" d="M153.3,51.6c0,1.2,0.6,2.5,2.1,2.5c1.2,0,1.8-0.7,2-1.7h0.8c-0.3,1.5-1.2,2.3-2.8,2.3
	c-2.1,0-2.9-1.6-2.9-3.4c0-1.7,0.9-3.4,2.9-3.4c2.1,0,2.9,1.8,2.8,3.6H153.3 M157.5,50.9c0-1.2-0.8-2.3-2.1-2.3
	c-1.3,0-2,1.1-2.1,2.3H157.5z"/>
<path fill="#1D1D1B" d="M20.2,29.3c0,0.8-0.7,1.5-1.5,1.5c-0.8,0-1.5-0.7-1.5-1.5c0-0.8,0.7-1.5,1.5-1.5
	C19.6,27.8,20.2,28.5,20.2,29.3"/>
<path fill="#1D1D1B" d="M43.4,29.3c0,0.8-0.7,1.5-1.5,1.5c-0.8,0-1.5-0.7-1.5-1.5c0-0.8,0.7-1.5,1.5-1.5
	C42.7,27.8,43.4,28.5,43.4,29.3"/>
<path fill="#1D1D1B" d="M27.3,18.6c0,0.8-0.7,1.5-1.5,1.5c-0.8,0-1.5-0.7-1.5-1.5c0-0.8,0.7-1.5,1.5-1.5
	C26.6,17.1,27.3,17.8,27.3,18.6"/>
<path fill="#1D1D1B" d="M36.3,18.6c0,0.8-0.7,1.5-1.5,1.5c-0.8,0-1.5-0.7-1.5-1.5c0-0.8,0.7-1.5,1.5-1.5
	C35.7,17.1,36.3,17.8,36.3,18.6"/>
<path fill="#1D1D1B" d="M36.3,39.9c0,0.8-0.7,1.5-1.5,1.5c-0.8,0-1.5-0.7-1.5-1.5c0-0.8,0.7-1.5,1.5-1.5
	C35.7,38.5,36.3,39.1,36.3,39.9"/>
<path fill="#1D1D1B" d="M27.3,39.9c0,0.8-0.7,1.5-1.5,1.5c-0.8,0-1.5-0.7-1.5-1.5c0-0.8,0.7-1.5,1.5-1.5
	C26.6,38.5,27.3,39.1,27.3,39.9"/>
<path fill="#1D1D1B" d="M31.2,36.2l-0.9,0.1l-0.9-0.1c-0.8,0-1.6,0.6-1.6,1.4c0,0.8,0.5,1.5,1.3,1.5l1.2,0.1l1.2-0.1
	c0.8,0,1.3-0.7,1.3-1.5C32.8,36.7,32,36.1,31.2,36.2"/>
<path fill="#1D1D1B" d="M29.1,19.5c-0.8,0-1.3,0.7-1.3,1.5c0,0.8,0.8,1.4,1.6,1.4l0.9-0.1l0.9,0.1c0.8,0,1.6-0.6,1.6-1.4
	c0.1-0.8-0.5-1.5-1.3-1.5l-1.2-0.1L29.1,19.5"/>
<path fill="#1D1D1B" d="M21.5,15.6c-3.4,2.2-5.9,5.6-6.9,9.6c-0.2,0.8,0.3,1.6,1,1.8c0.8,0.2,1.6-0.3,1.8-1c0.8-3.2,2.8-6,5.6-7.9
	c0.7-0.4,0.9-1.3,0.4-2C23.1,15.4,22.2,15.2,21.5,15.6"/>
<path fill="#1D1D1B" d="M15.7,31.6c-0.8,0.2-1.2,1-1,1.8c1,3.9,3.4,7.3,6.8,9.6c0.7,0.4,1.6,0.3,2-0.4c0.4-0.7,0.3-1.6-0.4-2
	c-2.8-1.8-4.8-4.6-5.6-7.8C17.2,31.8,16.4,31.4,15.7,31.6"/>
<path fill="#1D1D1B" d="M43.3,32.6c-0.8,3.3-2.8,6.1-5.7,7.9c-0.7,0.4-0.9,1.3-0.4,2c0.4,0.7,1.3,0.9,2,0.4c3.4-2.2,5.9-5.7,6.9-9.6
	c0.2-0.8-0.3-1.6-1-1.8C44.2,31.3,43.5,31.8,43.3,32.6"/>
<path fill="#1D1D1B" d="M37.2,16c-0.4,0.7-0.2,1.6,0.4,2c2.8,1.8,4.8,4.6,5.7,7.9c0.2,0.8,1,1.2,1.8,1c0.8-0.2,1.2-1,1-1.8
	c-1-4-3.5-7.4-6.9-9.6C38.5,15.2,37.6,15.4,37.2,16"/>
<path fill="#1D1D1B" d="M31.4,13C31.4,13,31.5,13,31.4,13l-1.1,0l-1.1,0c0,0,0,0,0,0c-0.8,0-1.4,0.7-1.4,1.5c0,0.8,0.7,1.5,1.5,1.5
	c0,0,0.1,0,0.1,0l0.9,0l0.9,0c0,0,0.1,0,0.1,0c0.8,0,1.5-0.7,1.5-1.5C32.8,13.7,32.2,13.1,31.4,13"/>
<path fill="#1D1D1B" d="M32.8,44c0-0.8-0.7-1.5-1.5-1.5c0,0-0.1,0-0.1,0l-0.9,0l-0.9,0c0,0-0.1,0-0.1,0c-0.8,0-1.5,0.7-1.5,1.5
	c0,0.8,0.6,1.4,1.4,1.5c0,0,0,0,0,0l1.1,0l1.1,0c0,0,0,0,0,0C32.2,45.5,32.8,44.8,32.8,44"/>
<path fill="#1D1D1B" d="M23.9,23.9c-0.7-0.5-1.6-0.3-2,0.4c0,0.1-0.4,0.7-0.4,0.7c-0.4,0.7-0.1,1.5,0.6,1.9c0.7,0.4,1.6,0.1,2-0.6
	l0.2-0.4C24.7,25.2,24.6,24.3,23.9,23.9"/>
<path fill="#1D1D1B" d="M38.7,31.8c-0.7-0.5-1.6-0.3-2,0.4c0,0.1-0.4,0.7-0.4,0.7c-0.4,0.7-0.1,1.6,0.6,1.9c0.7,0.4,1.6,0.1,2-0.6
	l0.2-0.4C39.5,33.1,39.3,32.2,38.7,31.8"/>
<path fill="#1D1D1B" d="M24.4,32.8c0,0-0.3-0.5-0.3-0.5c-0.4-0.7-1.2-0.9-1.9-0.6c-0.7,0.4-0.9,1.3-0.6,2c0,0,0.3,0.5,0.3,0.5
	c0.4,0.7,1.2,0.9,1.9,0.6C24.5,34.4,24.7,33.5,24.4,32.8"/>
<path fill="#1D1D1B" d="M36.3,25.7c0,0,0.3,0.5,0.3,0.5c0.4,0.7,1.2,0.9,1.9,0.6c0.7-0.4,0.9-1.3,0.6-1.9c0,0-0.3-0.5-0.3-0.5
	c-0.4-0.7-1.2-0.9-1.9-0.6C36.2,24.2,36,25,36.3,25.7"/>
</svg>
