<?xml version="1.0"?><svg width="5418.8" height="4880.18" xmlns="http://www.w3.org/2000/svg" xmlns:xlink="http://www.w3.org/1999/xlink">
 <metadata id="metadata2950">image/svg+xml</metadata>
 <defs>
  <linearGradient id="linearGradient3834">
   <stop stop-color="#441650" id="stop3836" offset="0"/>
   <stop stop-color="#cd87de" id="stop3838" offset="1"/>
  </linearGradient>
  <linearGradient id="linearGradient3826">
   <stop stop-color="#550044" id="stop3828" offset="0"/>
   <stop stop-color="#cd87de" id="stop3830" offset="1"/>
  </linearGradient>
  <linearGradient id="linearGradient3816">
   <stop stop-color="#483737" id="stop3818" offset="0"/>
   <stop stop-color="#ac9393" offset="0.5066" id="stop3824"/>
   <stop stop-color="#483737" id="stop3820" offset="1"/>
  </linearGradient>
  <linearGradient id="linearGradient3808">
   <stop stop-color="#ff7f2a" id="stop3810" offset="0"/>
   <stop stop-color="#ffccaa" id="stop3812" offset="1"/>
  </linearGradient>
  <linearGradient id="linearGradient3800">
   <stop stop-color="#ff7f2a" id="stop3802" offset="0"/>
   <stop stop-color="#ffccaa" id="stop3804" offset="1"/>
  </linearGradient>
  <linearGradient id="linearGradient3792">
   <stop stop-color="#ff7f2a" id="stop3794" offset="0"/>
   <stop stop-color="#ffccaa" id="stop3796" offset="1"/>
  </linearGradient>
  <linearGradient id="linearGradient3784">
   <stop stop-color="#ff7f2a" id="stop3786" offset="0"/>
   <stop stop-color="#ffccaa" id="stop3788" offset="1"/>
  </linearGradient>
  <linearGradient id="linearGradient3762">
   <stop stop-color="#ffccaa" id="stop3764" offset="0"/>
   <stop stop-color="#ff9955" id="stop3766" offset="1"/>
  </linearGradient>
  <linearGradient id="linearGradient3754">
   <stop stop-color="#d4aa00" id="stop3756" offset="0"/>
   <stop stop-color="#ffeeaa" id="stop3758" offset="1"/>
  </linearGradient>
  <linearGradient id="linearGradient3746">
   <stop stop-color="#d4aa00" id="stop3748" offset="0"/>
   <stop stop-color="#ffe680" id="stop3750" offset="1"/>
  </linearGradient>
  <linearGradient id="linearGradient3736">
   <stop stop-color="#ffff00" id="stop3738" offset="0"/>
   <stop stop-color="#d4aa00" id="stop3740" offset="1"/>
  </linearGradient>
  <linearGradient id="linearGradient2954">
   <stop stop-color="#ffff00" id="stop2956" offset="0"/>
   <stop stop-color="#d4aa00" id="stop2958" offset="1"/>
  </linearGradient>.fil2 {fill:#660066}
    .fil14 {fill:#663300}
    .fil16 {fill:#666666}
    .fil15 {fill:#7F7F7F}
    .fil9 {fill:#990000}
    .fil7 {fill:#990099}
    .fil17 {fill:#993366}
    .fil1 {fill:#996633}
    .fil8 {fill:#CC66CC}
    .fil6 {fill:#CC9933}
    .fil12 {fill:#CCCC33}
    .fil5 {fill:#CCCCCC}
    .fil13 {fill:#FF9966}
    .fil3 {fill:#FFCC99}
    .fil4 {fill:yellow}
    .fil11 {fill:#FFFF99}
    .fil0 {fill:black}
    .fil10 {fill:white}
  <radialGradient gradientUnits="userSpaceOnUse" gradientTransform="matrix(0.40088536,1.6989909,-1.4813758,0.349538,1900.5125,-2977.8023)" r="361.58946" fy="513.22687" fx="1903.1927" cy="513.22687" cx="1903.1927" id="radialGradient3734" xlink:href="#linearGradient2954"/>
  <radialGradient gradientUnits="userSpaceOnUse" gradientTransform="matrix(-1.2088982,0.01972231,-0.02176526,-1.334123,6584.251,607.21624)" r="349.9928" fy="314.20386" fx="2977.6892" cy="314.20386" cx="2977.6892" id="radialGradient3744" xlink:href="#linearGradient3736"/>
  <linearGradient y2="0.500004" x2="0.324435" y1="0.141242" x1="0.949208" id="linearGradient3752" xlink:href="#linearGradient3746"/>
  <linearGradient y2="0.362732" x2="0.795303" y1="0.298083" x1="0.056123" id="linearGradient3760" xlink:href="#linearGradient3754"/>
  <radialGradient gradientUnits="userSpaceOnUse" gradientTransform="matrix(1.1665136,-0.12288638,0.14299591,1.3574058,-583.18533,-32.195821)" r="587.58078" fy="1094.3893" fx="2562.5049" cy="1094.3893" cx="2562.5049" id="radialGradient3770" xlink:href="#linearGradient3762"/>
  <filter height="3.130793" y="-1.065397" width="1.835172" x="-0.417586" id="filter3778">
   <feGaussianBlur id="feGaussianBlur3780" stdDeviation="10.431002"/>
  </filter>
  <linearGradient y2="0.832326" x2="0.24845" y1="0.121575" x1="0.786591" id="linearGradient3790" xlink:href="#linearGradient3784"/>
  <linearGradient y2="0.769197" x2="0.5" y1="0.096848" x1="0.173298" id="linearGradient3798" xlink:href="#linearGradient3792"/>
  <linearGradient y2="0.313274" x2="0.32629" y1="0.942168" x1="0.730429" id="linearGradient3806" xlink:href="#linearGradient3800"/>
  <linearGradient y2="0.218548" x2="0.665566" y1="0.945258" x1="0.220126" id="linearGradient3814" xlink:href="#linearGradient3808"/>
  <linearGradient y2="0.5" x2="1" y1="0.5" x1="0" id="linearGradient3822" xlink:href="#linearGradient3816"/>
  <linearGradient y2="0.036353" x2="0.198989" y1="1" x1="0.893421" id="linearGradient3832" xlink:href="#linearGradient3826"/>
  <linearGradient y2="0.059916" x2="0.900145" y1="1" x1="0.082233" id="linearGradient3840" xlink:href="#linearGradient3834"/></defs>
 <g>
  <title>Layer 1</title>
  <g externalResourcesRequired="false" transform="matrix(0.943423 0 0 0.943423 153.29 138.054)" id="Capa_x0020_1">
   <metadata id="CorelCorpID_0Corel-Layer"/>
   <path fill="#000000" d="m627.760986,4474.180176l221.047974,3.36377l114.122009,260.126953l-171.344971,4.84375l-163.825989,-268.333984l0.000977,-0.000488zm264.48999,-18.362793c0,-21.365234 16.304016,-47.297852 21.762512,-70.727539l9.195374,0.791992l122.222046,260.901367l-38.927246,64.739746c-12.118896,-8.879395 -114.251953,-234.287109 -114.251953,-255.706055l-0.000732,0.000488zm3487.399902,272.027832l-31.364746,-59.456055l102.091309,-343.145996c7.489258,5.015137 48.964844,58.231934 48.964844,65.286621c0,31.484375 -106.713867,327.806152 -119.691895,337.314941l0.000488,0.000488zm250.519043,5.555664l-204.39209,20.663574l122.882813,-345.321777l249.65918,-45.529785l-168.150879,370.187988l0.000977,0zm-3782.129944,-299.611816l-59.158081,-5.175293l-164.848999,-0.869141l45.17218,-86.615234l212.285034,5.922363l-33.449524,86.737305l-0.00061,0zm3639.06012,-145.705078l303.664063,-43.828613l18.459961,68.914551l-269.501953,52.293457l-52.623047,-77.379395l0.000977,0zm-2952.870117,-343.679932l228.50293,87.048828c-23.578369,5.493408 -140.50293,59.234375 -150.241943,41.858398c-14.27417,-25.470459 18.376343,-35.794434 -25.165039,-78.633301c-13.375732,-13.158691 -46.057983,-39.761719 -53.096191,-50.273926l0.000244,0zm-288.350098,-21.762451l38.083862,-48.965088c99.197632,23.11084 147.911011,35.502686 210.813965,99.298828c24.889282,25.241943 67.599731,44.522461 71.845581,85.930664c4.931274,48.092041 11.130981,98.608643 11.130981,146.645264c-3.914307,2.720703 -13.939697,11.208984 -16.459229,11.883301l-54.268311,-6.442383c6.251709,-5.434082 16.322266,-9.51709 16.322266,-16.322266c0,-46.242188 -11.744873,-97.435547 -43.983643,-114.659912l-20.335938,27.358643l15.868286,61.884766l-174.611938,47.179199l0,-54.405273c0,-57.385742 -95.354614,-156.348145 -141.455078,-168.657959c10.148682,-13.852051 93.332397,-27.202637 119.692993,-27.202637c19.173584,0 152.988037,55.156982 174.098022,65.286377c5.459473,-4.745117 21.762573,-14.849609 21.762573,-21.762451c0,-28.916504 -64.631104,-44.247803 -87.049927,-54.404297c-12.46106,-5.645508 -97.737427,-38.084717 -108.810059,-38.084717c-18.780151,0 -11.646606,3.243408 -32.643677,5.440186l-0.000732,-0.000244zm2513.540039,92.48999l-0.398926,73.3396l-309.713135,-46.136963c54.588379,-47.448975 282.772217,-96.135498 299.329102,-158.550049l103.272949,11.655273c-14.203613,21.210205 -92.48999,104.034912 -92.48999,119.692871l0,-0.000732zm244.824951,-92.48999l0,5.441162c0,12.734619 9.027832,21.762451 21.762695,21.762451c21.752686,0 19.734375,-27.934326 81.571045,-27.241211c42.837891,0.47998 58.060059,-5.402588 92.526855,-5.402588l46.251465,0.731689l-73.454102,282.177734c-55.919434,-4.65332 -75.78418,-54.40625 -152.336182,-54.40625l-86.521729,-0.103027l-11.407471,-65.183105c8.723145,-13.027832 27.202637,-25.260498 27.202637,-43.52417c0,-12.735596 -9.027832,-21.762451 -21.762451,-21.762451c-12.533447,0 -54.405273,44.48877 -54.405273,48.965088c0,29.327148 10.72998,66.669678 15.754639,93.055908c9.80835,51.509766 27.483154,32.07666 71.294189,32.07666l40.290283,1.44873l-56.612549,91.040527c-23.685303,-5.51709 -141.453857,-44.676758 -141.453857,-65.286621l0,-174.0979c0,-25.00293 197.020996,-254.588867 223.052979,-271.962891l79.556641,11.56543l34.70459,91.740234c-44.940918,0 -136.01416,12.869629 -136.01416,48.965088l-0.000244,-0.000488zm-1414.149902,-684.25708l10.459961,189.167969c-27.55542,-0.615723 -104.342041,-22.443848 -114.431885,-37.883301c-9.715088,-14.864746 -47.177246,-84.513916 -48.507324,-102.77002l152.479004,-48.514893l0.000244,0.000244zm2203.030029,956.284912l-293.790039,43.524902c51.417969,-97.174316 159.254883,-221.779785 224.166016,-319.888916c60.586426,-91.573242 43.25,-80.582275 166.316895,-105.710938c30.246582,-6.175537 207.978027,-39.106445 207.978027,-64.050781l0,-5.439941c0,-14.549805 -7.853516,-16.092041 -16.321289,-21.762695c-64.989746,15.140625 -128.944824,28.739014 -194.698242,44.6875c-30.783203,7.466064 -63.607422,15.033691 -97.862305,21.829102c-48.46582,9.614502 -41.674316,18.121826 -67.456543,52.236328c-68.391602,90.497803 -135.637695,190.995117 -200.435547,283.77417c-14.437012,20.67041 -93.699707,127.486816 -98.08252,141.302734c-18.756348,59.109863 -39.048828,123.42334 -55.22168,184.163086c-14.832031,55.703613 -37.180664,124.25293 -56.797363,182.59082c-22.233887,66.124023 27.385742,103.652344 57.840332,161.208008c-43.195313,20.726563 -55.646484,15.741211 -102.290039,4.359863c-55.843262,-13.626465 -44.108887,-22.840332 -71.808105,-64.206055c8.328125,-100.085938 28.97168,-237.147949 46.679688,-339.599121c12.321289,-71.276855 83.751465,-206.147949 114.791992,-271.487793c41.990723,-88.388672 81.432617,-176.406982 119.686035,-266.593994c33.049805,-77.916016 83.096191,-194.052002 129.056152,-257.225098c108.391113,-148.986816 217.641113,-299.437012 321.071777,-451.486816c53.511719,-78.666016 106.49707,-148.572998 159.765137,-226.515137c19.155273,-28.027588 84.3125,-65.904297 135.037109,-56.480469c27.388672,5.089355 72.478027,-0.630371 89.54248,8.401367c18.234863,9.652344 25.562988,28.744629 52.934082,43.891113l6.597168,179.487061l0,174.0979c0,41.124023 -67.80127,237.002197 -82.651855,292.74707c-42.560059,159.774902 -52.466797,127.187988 -149.981934,225.416992c-63.868652,64.335938 -128.970215,119.989014 -192.451172,182.947998c-17.776855,17.631348 -137.021973,196.204102 -151.614746,223.783203l0.000488,-0.001465zm-2147.370117,-756.317871l-9.917236,-201.349121l160.652832,43.462402c-3.659912,15.674561 -37.508545,106.031982 -44.756836,113.263916c-7.988525,7.971436 -91.525146,43.363037 -105.979004,44.622803l0.000244,0zm-1552.209961,1213.330078c0,-18.311035 -69.816711,-161.39502 -81.608826,-184.979004c-15.06543,-30.130859 -28.458496,-62.358398 -43.523987,-92.489258c-35.750305,-71.500488 -16.322327,-30.918457 -16.322327,-92.489746c0,-21.90625 -109.388,-319.556152 -124.455017,-365.194092c-31.44458,-95.24292 -9.817078,-117.615967 -114.764954,-130.061035c-65.972717,-7.821777 -142.95105,-27.038574 -212.345032,-27.038574c-12.536194,0 -16.322296,3.785889 -16.322296,16.321289l0,5.441162c0,12.197754 4.30661,11.943359 10.881195,21.762451l255.377991,34.978271c16.3927,31.143799 152.664001,430.631836 152.664001,454.670898c0,18.569336 -188.671997,5.440918 -223.062988,5.440918c-24.672363,-16.521484 -74.37677,-109.748047 -92.631714,-141.312012c-17.102051,-29.571777 -94.493866,-86.395996 -124.98996,-108.953857c-43.943298,-32.501953 -85.71582,-69.837891 -129.600006,-104.343994c-53.538727,-42.098389 -45.886414,-92.613281 -64.013123,-169.930908c-29.904388,-127.548096 -58.575897,-257.893066 -83.428589,-384.459961c-16.786896,-85.493408 -27.121597,-107.325195 -60.2733,-173.671143c-8.735641,-17.483643 -77.362904,-149.084961 -76.167702,-157.775879l5.440128,-54.405273c31.013798,-16.410889 118.707996,-92.48999 146.895008,-92.48999l97.930115,0c17.249573,0 35.083282,36.124268 43.518188,48.97168c18.521912,28.211914 22.415985,24.866211 44.899384,47.5896c33.091919,33.445801 57.702606,55.551514 92.564209,86.974854c62.808289,56.616211 123.117981,120.895996 184.772034,179.744873c43.455444,41.479736 56.025452,38.958984 85.817993,99.161133c15.498169,31.317383 52.87738,87.723633 63.154297,116.38501c31.855164,88.846436 49.841187,196.894043 77.598999,286.918945c49.432495,160.323975 97.457764,433.065186 165.658997,563.376221c62.921021,120.223633 78.508911,97.233887 90.758911,273.758789c3.147095,45.36084 9.846069,119.855957 17.550293,167.561035c7.796875,48.276855 7.244507,34.439453 -41.534546,42.430176c-29.694214,4.863281 -47.392944,7.646484 -79.401489,7.646484l-5.441162,0l-103.293945,-6.450684l-12.625854,-36.561523l45.193359,-0.513184c47.461365,0 47.626221,-14.589844 72.897217,-52.234375c8.93811,-13.312988 52.235474,-73.580566 52.235474,-83.779297l-0.000977,0zm1022.830078,-1713.780273c57.340088,-4.770996 43.817871,-19.972412 116.438965,-7.627197c35.541992,6.042725 87.645508,13.068359 122.946045,13.068359l34.609863,83.067139l-1.059326,4.888916l-272.935059,-93.397217l-0.000488,0zm2056.529785,1632.169922c-10.15332,-11.681152 -27.202637,-71.130371 -27.202637,-92.489746c0,-41.791992 96.475098,-374.631836 114.947266,-434.548096c28.395996,-92.09668 19.083496,-122.138916 79.585449,-192.442871c22.906738,-26.616699 111.128906,-130.009033 122.924316,-154.545166c24.860352,-51.712891 46.74707,-145.240967 66.777344,-205.248779c23.773926,-71.225098 44.539063,-138.97998 68.022949,-209.446045c33.79541,-101.406982 53.461426,-90.20459 120.353027,-157.115967c35.311523,-35.322266 107.729004,-106.604004 145.605957,-131.114014l97.866699,-6.252686l16.321289,0c-7.847168,29.388672 -209.418945,297.760986 -243.772949,349.247803c-84.75293,127.023193 -165.55127,216.970215 -236.911133,361.551025c-66.932617,135.613037 -118.432129,277.761963 -186.681152,411.781006c-65.507813,128.635254 -137.837891,272.339844 -137.837891,460.623047l0.001465,0.000488zm-2981.42981,38.083984c0,-125.798828 -14.224854,-155.99707 -63.11377,-236.117188c-52.303955,-85.716797 -52.96814,-107.116699 -84.478149,-209.312988c-46.699951,-151.462891 -80.032837,-311.503662 -126.463074,-466.556885c-14.704895,-49.106689 -47.370789,-203.047852 -65.260376,-233.970947c-32.780579,-56.664551 -68.421021,-140.429932 -110.895996,-182.893066c-48.789612,-48.775146 -102.403015,-93.560791 -152.455017,-141.335938c-30.092285,-28.723633 -131.411987,-120.690918 -148.130981,-145.658936c179.606995,14.945801 174.187988,40.878174 270.675964,137.365967c67.852295,67.852295 142.030029,132.991943 186.330994,221.710938c25.756836,51.582031 178.207031,576.75415 179.537964,636.546143c51.188721,27.084961 179.539063,119.538818 179.539063,190.419189l0,125.132813l-27.533203,266.548828l-37.753174,38.122559l-0.000244,-0.000488zm1507.030151,-1670.25c42.531006,-3.53833 114.187012,-59.845215 163.216797,-59.845215l32.643799,0c46.786621,0 62.279053,39.904541 70.727539,76.167725c-64.23291,5.344727 -321.716064,141.453857 -364.518066,141.453857c-1.491943,0 -9.941406,-3.748291 -16.321289,-5.439941c50.80127,-44.157227 105.785889,-50.605713 114.250977,-152.336182l0.000244,-0.000244zm-293.790039,-10.880127c0,-70.227295 58.269287,-125.134033 130.573975,-125.134033c52.369385,0 114.250977,53.603271 114.250977,108.810791l0,38.083984c0,45.529785 -58.179688,97.929932 -108.811035,97.929932l-32.642578,0c-49.646484,0 -103.371094,-67.200684 -103.371094,-119.691895l-0.000244,0.001221zm598.461914,1256.769775l11.172363,-799.697754l-5.732178,-0.064209l-21.761475,0c-28.798828,0 -21.762695,153.570068 -21.762695,190.419189c0,70.727295 0,141.454834 0,212.181885c0,143.311035 -5.440918,276.736084 -5.195313,424.544189l-152.580811,212.000977c-34.750732,-0.773926 -122.77002,-29.399414 -162.130127,-39.17041c-92.297119,-22.912109 -66.159668,-17.350586 -96.971924,-109.769043c-17.462646,-52.375 -33.779053,-101.358887 -50.317383,-150.98291c-15.555176,-46.673828 -25.189209,-119.179932 -66.438477,-141.171875l-20.460205,27.331787l75.325195,234.223877c-55.297607,-4.601563 -483.467896,-175.229736 -570.575928,-207.423828c-92.438965,-34.163818 -190.223022,-74.525146 -285.601074,-106.118896c-46.28064,-15.330566 -105.963989,-26.933838 -130.761963,-65.098633c-26.991455,-41.540283 -52.348267,-77.694336 -79.486328,-116.373047c-106.146973,-151.281982 -208.411987,-310.087891 -312.212036,-465.787842c-53.730469,-80.59668 -104.28595,-153.708984 -157.77594,-233.944092c-48.268188,-72.401855 -117.10498,-163.368896 -155.601013,-236.121094c73.613403,17.150391 165.755981,59.169678 241.505981,84.928467c81.714844,27.788574 156.953979,59.892578 239.273071,87.160645c157.204956,52.074463 325.081909,113.500977 478.930908,173.935059c153.910034,60.458496 323.271118,120.912109 480.028931,172.837891c58.341797,19.326904 67.256592,16.857422 90.809082,72.408691c13.011475,30.688721 33.521729,94.763672 58.984619,104.231934c18.755127,6.974609 250.712891,66.176025 260.258057,66.176025c17.262939,0 99.034668,-36.212891 117.941895,-45.274414c61.05127,-29.255615 59.838623,-11.795898 92.368652,-70.8479c70.058594,-127.176025 46.477295,-93.516602 184.677979,-147.196045c159.935791,-62.12207 318.134033,-116.951904 477.197998,-181.108887c154.318848,-62.242676 320.36084,-127.286133 476.313965,-181.994141c73.779053,-25.881104 437.857178,-155.266846 480.432861,-185.12793l4.53418,6.347168c1.825684,1.825439 -5.028809,3.642334 -6.069824,4.811523c-1.037109,1.165283 -3.700195,4.165039 -5.003418,5.877686c-0.202148,0.265137 -6.820313,10.595215 -8.535156,13.227295c-6.53125,10.026367 -11.025391,17.373047 -17.536621,25.987305c-14.321289,18.949707 -24.05957,35.850342 -38.083984,54.406006c-25.350586,33.541992 -50.069336,69.710693 -73.837891,105.701172c-48.333496,73.186279 -99.65918,137.895996 -147.992676,211.083008c-45.196289,68.435303 -98.208984,147.528809 -147.587158,211.490967c-53.316162,69.061035 -96.537354,145.603027 -149.853027,214.664063c-49.378662,63.959961 -102.391113,143.054932 -147.586914,211.490967c-35.099854,53.147217 -37.93457,54.782959 -100.464111,79.07373c-40.953369,15.908691 -84.760498,39.527588 -128.040039,56.939209c-86.393555,34.756592 -164.160889,72.544434 -249.830078,109.24707c-61.666992,26.419678 -199.383789,97.829834 -253.970947,110.546143l0.000977,-0.000977zm-636.546143,-1294.849854c-39.81958,-9.276367 -89.268555,-39.663574 -127.025879,-57.952393c-35.593994,-17.240723 -52.512207,-78.992676 -52.512207,-127.026855c0,-23.340332 109.835205,3.021729 129.28418,23.052002c15.318848,15.776855 82.897461,72.41626 82.897461,91.200439c0,0.297607 -30.202148,41.392822 -32.643799,70.726563l0.000244,0.000244zm-369.957886,16.322266c32.266846,-60.980713 57.088501,-131.518066 90.608521,-192.301025c23.116699,-41.917969 92.298096,-118.130859 125.5979,-157.312012c43.61377,-51.316895 83.720703,-104.496826 125.539063,-157.37085c16.510254,-20.875732 45.809326,-62.05957 70.891357,-70.562744c16.750244,-5.678223 88.466797,-31.797363 104.217041,-31.797363c9.893311,0 104.927979,25.878174 116.187988,30.708252c8.303955,3.5625 63.678711,56.374268 78.272949,68.622314c46.739502,39.226074 101.785889,101.689941 146.941895,146.846924c41.789063,41.790039 117.823975,102.153076 149.477051,144.312988c8.191162,10.911133 67.759521,203.410156 69.497559,224.292969l-64.987549,22.534668c-44.338379,-84.001221 -13.238037,-90.682861 -120.035156,-98.659912c-98.486328,-7.356201 -89.304199,26.272461 -163.173828,43.482422c7.241455,-10.814697 72.055664,-69.15918 88.498535,-85.600098c29.296143,-29.295166 38.8125,-73.248047 58.396484,-110.26001c-12.118896,-25.256348 -13.620605,-76.577393 -38.833496,-86.300049c-32.291992,-12.451416 -78.48584,-13.307129 -102.678223,-0.80957c-20.084229,10.375244 -66.835205,30.186768 -82.790283,42.344971c-23.677734,18.042969 -30.311279,55.22168 -53.165771,71.967285c0,-94.964355 -3.120117,-116.656982 -21.68042,-190.502197c-10.762695,-42.819336 -10.421631,-37.929443 -47.211914,-56.158447c-17.429688,-8.637207 -53.719727,-30.80835 -72.562744,-30.80835c-7.83252,0 -54.109131,27.106201 -65.29126,32.638672c-20.903564,10.340576 -48.960205,17.70166 -48.960205,48.969971l0,97.930176c0,24.336914 6.768555,32.398926 14.149902,51.136719c4.02124,10.208252 4.969727,14.861084 8.181396,24.462158c0.106934,0.320068 3.99707,11.603271 4.213135,12.108398c0.844238,1.974121 3.324463,8.580566 3.872803,7.008301c0.268066,-0.768066 3.147949,2.293213 2.226563,3.2146l-4.53418,6.347168c-22.37915,-32.973389 -40,-50.138184 -87.786133,-55.481934c-38.236084,-4.274658 -77.956787,-16.151611 -119.862061,-16.151611c-7.583008,14.330078 -21.761475,55.54834 -21.761475,76.167725c0,8.665283 25.734619,82.807861 30.426758,100.145996c15.468262,57.152344 31.557373,31.826172 67.503418,63.070557l-54.268311,-6.442627c-31.281738,-3.281006 -122.802002,22.677979 -130.710938,44.526367l-54.40625,-16.321533l-0.000122,0.000732zm848.726929,375.397949c33.124756,-2.756592 353.37207,-135.558838 408.041992,-157.775879c128.39209,-52.175781 274.922119,-115.206055 405.958008,-159.860107c103.102051,-35.134277 784.162109,-318.907959 812.728027,-318.907959c10.148926,0 29.880371,47.98584 32.643555,59.845459c-57.851563,30.611572 -176.187012,68.128906 -244.142578,93.172363c-78.826172,29.050293 -163.453125,60.820801 -243.814209,93.5c-156.375977,63.590088 -327.13208,128.550049 -485.145996,184.042969c-156.520996,54.968262 -330.893066,121.15918 -484.951904,184.237061c-40.509033,16.586426 -79.975098,29.005127 -122.977051,45.681152c-61.15625,23.717041 -53.430664,33.104248 -83.696533,84.960938c-28.986816,49.666992 -19.830811,65.012695 -79.515137,89.142578c-21.742188,8.789551 -99.283447,46.787598 -116.427979,46.787598c-62.115479,0 -179.498047,-54.409912 -244.825195,-59.846191c-6.279541,-26.953125 -31.20166,-78.86377 -43.487305,-103.407959c-28.355225,-56.650146 -21.669678,-42.972656 -82.41748,-64.477783c-70.867188,-25.086914 -145.355957,-50.1604 -215.156982,-78.632324c-138.322876,-56.422607 -292.402954,-105.741943 -432.269897,-155.312012c-144.582031,-51.240723 -284.087036,-106.416016 -431.153076,-156.427002c-69.216187,-23.537842 -150.095947,-51.252197 -215.500977,-78.288086c-49.813293,-20.591553 -162.286011,-64.544189 -212.182983,-76.168701c9.216614,-34.515625 90.211365,11.073975 116.26001,19.754639c43.259888,14.417725 80.243896,26.73999 122.432983,40.783691c74.822144,24.906738 172.880005,54.344482 247.209961,84.664307c150.814087,61.517822 339.069092,117.995117 494.090088,169.657959c84.505127,28.162598 161.468994,55.652588 247.528931,84.344238c78.06543,26.026855 174.164063,54.950928 246.870117,85.005615c143.27002,59.223633 113.64502,0.592773 188.674805,143.198975c34.803955,66.150146 11.758545,51.190674 88.022461,75.194092c34.673584,10.913086 95.712158,22.82666 125.904053,37.312744c21.779785,-10.450439 132.985107,-54.909424 142.407959,-64.332275c9.319824,-9.31958 54.13916,-127.447021 58.89209,-147.848877l0.000244,-0.001221zm-233.943848,-500.531006c28.05249,-53.01709 81.020752,-146.89502 157.775879,-146.89502l5.440186,0c18.75708,0 21.066406,4.024414 38.08374,5.440186l11.282227,43.404541c-29.503418,55.121338 -85.486328,152.273926 -147.296143,168.776855c-7.651123,-32.842285 -38.472168,-56.53833 -65.286377,-70.726563l0.000488,0zm-223.062988,-266.587891c15.547363,-3.622314 63.753906,-32.643799 65.286377,-32.643799c6.946533,0 56.969971,24.057617 63.349854,29.140137c13.252441,10.556396 18.197266,47.240723 22.632813,64.416016c9.889404,38.286133 11.947266,114.365967 11.947266,162.150879l0,21.762451l-38.08374,0c-24.20874,0 -54.610596,13.234131 -70.727539,21.762695c-9.879639,-42.410889 -54.405029,-130.411133 -54.405029,-168.658203l0,-97.929932l0,-0.000244zm217.622803,625.665039c27.810791,0 740.468018,-291.282959 826.965088,-326.434082c137.062012,-55.699707 273.705078,-109.230957 412.724121,-163.973877c59.816406,-23.554443 376.176758,-159.292236 414.240723,-162.459229l9.950195,38.369141l-24.015137,41.708008c-39.696289,5.098877 -299.628906,114.876953 -362.09082,136.788086c-115.592041,40.549316 -245.628174,90.285645 -358.320068,136.770996c-119.0271,49.098877 -241.845947,88.510986 -362.823975,137.707031c-61.581299,25.04248 -121.466064,44.585205 -181.216064,69.049316c-32.256104,13.207031 -163.231934,46.86377 -163.231934,81.593262c0,6.62207 11.253174,16.321533 21.762451,16.321533l5.440186,0c3.721436,0 1340.530029,-497.881104 1425.429932,-538.616211l15.15625,17.487793l28.089355,-7.71582l10.655762,33.929443c-64.273438,34.099365 -161.952148,66.090332 -235.687012,95.50708c-81.347656,32.454834 -153.184082,59.70166 -234.966064,91.467285c-156.109131,60.635742 -314.772949,132.534912 -472.144043,186.163818c-154.541992,52.664551 -320.956055,126.763184 -472.00293,186.306152c-54.123779,21.335449 -66.102051,37.05835 -123.362061,21.509033c-39.460205,-10.715576 -87.304199,-25.301025 -127.156982,-36.061768c-86.785889,-23.433594 -167.305908,34.301758 -249.253906,53.394287l-1506.750183,-517.697266c12.891907,-8.31543 45.125916,-26.360107 64.998169,-26.360107c7.692749,0 1245.899963,406.537842 1305.730042,435.244873c5.459473,-4.746094 21.761475,-14.850586 21.761475,-21.762451c0,-37.397461 -115.755127,-57.619629 -148.938965,-68.683105c-56.996094,-19.001953 -106.189087,-35.505615 -163.218018,-54.404297c-109.045044,-36.135742 -217.384033,-74.273438 -325.079956,-110.165039c-74.514648,-24.833252 -632.421021,-204.218994 -646.735046,-223.754883c13.401794,-7.529785 -1.387085,-5.441162 10.881226,-5.441162c36.282288,0 703.192932,213.14917 790.940002,242.766113c94.177734,31.788574 744.054077,241.443848 792.263062,241.443848l0.005127,0.002197zm-588.30896,-808.099121l6.569824,2.837646l12.650024,86.790771c0.497437,18.611328 -98.51416,121.415039 -121.607056,128.454834l102.387085,-218.083008l0.000122,-0.000244zm1008.359985,-45.582764l9.750732,-0.486816c15.157959,56.770508 76.155029,59.509033 87.048828,190.419922l-119.947998,-136.123779l23.148438,-53.80957l0,0.000244zm-947.788086,92.003174c-5.974121,-25.64209 -27.225586,-140.564941 -27.349121,-163.273926c-0.139648,-25.6875 41.619385,-109.23999 49.111816,-141.396973l114.656006,146.585938l-136.419189,158.085938l0.000488,-0.000977zm810.644043,-163.217041c0,-19.552246 93.602295,-192.015991 103.370117,-233.94397l53.188721,158.145142l-76.254395,162.248779c-9.901123,-6.903076 -80.304688,-79.574951 -80.304688,-86.449219l0.000244,-0.000732zm-440.686035,-136.013916c7.526123,-3.982666 29.076416,-16.322266 38.083984,-16.322266c0.885742,0 52.464844,44.023193 59.846191,48.965088l-29.138184,47.796631l-8.945801,1.168213l-59.846191,-81.607666zm-603.901855,-136.014038c35.779175,-23.959106 12.904297,-24.349487 67.036743,-47.214722c21.434692,-9.054688 55.248535,-24.251221 74.417236,-34.394043c2.257446,101.31897 81.608765,141.442993 81.608765,174.098022c0,0.71521 -39.240356,99.750854 -42.841431,109.494019c-19.447144,52.621094 -26.019897,51.522217 -11.564575,113.568848c-59.120483,88.289551 -111.190063,196.258057 -148.977051,308.029053c-19.638062,58.087158 -73.57959,80.330811 -117.689941,110.813965c-45.332275,31.328125 -72.523193,95.526367 -108.730957,119.773193l-86.855225,-27.834961c55.263916,-104.177002 147.296021,-242.349121 215.216919,-344.334961c29.922729,-44.931396 29.440796,-39.76001 34.854858,-106.599121c3.223145,-39.78418 11.255127,-87.050781 15.804688,-125.649902c8.460938,-71.794678 27.720215,-182.925049 27.720215,-249.748047l-0.000244,-0.001343zm1252.73999,-189.779053l168.551025,37.702148l-2.619873,5.239746l7.914307,179.428955l-19.77002,217.467896c-0.233398,28.248535 230.001953,427.272217 247.116943,500.738037c-52.551758,-27.806885 -281.065918,-125.356934 -308.180908,-148.826904c-19.462646,-16.84668 -28.794922,-150.187988 -45.38916,-183.114014c-19.862793,-39.410156 -69.694092,-87.30127 -92.55542,-130.50708c4.619873,-8.730713 38.08374,-81.08252 38.08374,-87.048828c0,-45.281006 -53.166504,-181.918945 -64.712891,-233.682983l71.562256,-157.396973zm-1415.949951,-22.40332c0,-33.361816 37.364746,-70.726685 70.726563,-70.726685c45.290771,0 81.608765,32.472168 81.608765,76.167725c0,39.708984 -39.983643,76.167725 -81.608765,76.167725c-38.542603,0 -70.726563,-39.245239 -70.726563,-81.608765zm669.112061,-403.610962c10.246826,39.102661 61.614014,58.070801 92.668213,77.074585c42.157959,25.798218 16.219238,75.620239 16.219238,125.236084l-65.287354,0c-14.693604,0 -15.000977,2.597656 -27.202637,5.440063c-14.595215,-27.583252 -21.815674,-103.369995 -48.965088,-103.369995l-5.440186,0c-12.536133,0 -16.322266,3.786255 -16.322266,16.321411c0,40.176392 15.553955,52.57959 16.322266,87.048828l-59.846191,0c-12.734863,0 -21.762695,9.02771 -21.762695,21.762573l0,5.44104c0,29.351196 200.420166,16.321411 239.38501,16.321411l31.625977,28.263794l11.512451,91.477905c-38.442383,-0.914673 -35.270264,-16.249023 -75.552734,-16.599854c-28.946289,-0.252563 -58.272217,0.228516 -87.27832,0.228516c-39.633545,0.000854 -146.89502,-16.934448 -146.89502,16.322266c0,11.506836 1.947998,7.172241 5.440186,21.762451c58.945068,13.732422 144.12793,4.52356 212.396973,5.226196c88.477539,0.909912 75.897949,52.216187 103.156006,109.024902l-20.922852,17.248657c-3.315674,-30.683228 -46.551514,-49.892334 -77.007324,-49.892334c-6.457764,0 -109.563965,33.815796 -124.440918,38.776001c-21.217773,7.074829 -109.50293,24.7677 -109.50293,48.272949l0,5.44104c0,17.015503 9.76416,15.413452 21.762451,21.761597c45.099854,-10.506348 183.173096,-65.286499 217.62207,-65.286499c11.506836,0 7.173096,1.947998 21.762451,5.441162l6.896484,168.588989c-23.389404,5.177979 -26.816895,16.389771 -39.539307,16.389771c-17.272705,0 -66.337891,-92.48999 -87.048828,-92.48999l-5.441162,0c-12.734619,0 -21.762451,9.02771 -21.762451,21.762573c0,14.026367 85.27832,114.136963 100.116943,133.826904c40.403076,53.614014 72.357422,64.197266 79.421875,149.082031c-116.921143,56.101563 -91.292969,0.385498 -180.549072,113.240967c-44.214111,55.904053 -85.36499,107.73999 -131.053955,162.736084c-32.592529,39.230713 -109.103027,124.689941 -129.216064,164.575928c-16.762817,33.241211 -85.968384,174.011963 -92.355957,201.433105l-260.984009,-82.136963c33.348267,-62.804443 80.739258,-97.080078 138.022949,-138.75415c38.85498,-28.267578 133.903076,-87.170166 157.781006,-119.687012c23.252686,-31.66626 242.090942,-284.665039 258.969116,-295.968018c6.931152,13.099121 19.389404,38.083984 38.084717,38.083984c12.734863,0 21.761475,-9.026855 21.761475,-21.761719c0,-53.489502 -272.027954,-307.8479 -272.027954,-408.042847c0,-55.271729 33.789673,-93.69104 22.977905,-164.429077c-9.516357,-62.265503 -19.8396,-118.159912 21.463623,-150.204956c31.406006,-24.366943 71.947754,-63.541748 103.913086,-91.948364c34.661133,-30.801636 41.917236,-85.184692 63.924561,-125.304932l103.197754,-7.737061l0.000488,0zm611.595947,612.528931c-25.745361,63.472412 -59.842529,123.769897 -83.050781,183.537964c-11.365967,29.272949 -27.891846,64.579834 -42.376953,93.635986c-11.596436,23.259521 -50.847412,64.119141 -50.847412,79.726318c0,6.912842 16.302979,17.017334 21.762451,21.762451l59.069336,-55.148193c48.185303,32.489502 203.049072,232.447998 260.480225,290.535889c64.16626,64.899902 330.444824,147.926025 360.520996,188.976074l-369.577148,147.846924c-8.274902,-34.837402 -62.557617,-218.020996 -77.686768,-233.757813c-52.029053,-54.119873 -104.743896,-98.875732 -157.98999,-152.121094c-41.887207,-41.887207 -113.859863,-122.795898 -156.423828,-153.687988c-30.504883,-22.140381 -47.882568,-59.374023 -88.032959,-69.742432c-23.79248,-6.144775 -107.827148,-21.668945 -107.827148,-44.51001l0,-27.202637l5.544189,3.58667l177.023926,-273.655029c-11.538574,-11.748657 -9.532471,-18.280884 -24.791748,-18.280884c-29.283691,0 -130.572998,20.323364 -130.572998,43.524048l0,5.44104c0,17.015381 9.76416,15.413452 21.761475,21.762573l48.566895,-12.623901l-55.458496,93.303345c-10.656738,-7.179688 -69.275879,-50.597778 -69.275879,-64.358032l0,-97.930176c27.515869,-7.347656 37.30957,-34.235107 58.616211,-50.194946c9.871094,-7.393066 57.664063,-23.745239 74.04126,-29.328979c26.778564,-9.129883 139.370117,-43.425537 139.370117,-67.371216l0,-5.440186c0,-15.259155 -6.532227,-13.254272 -16.321533,-21.762451l-195.346924,72.114624c-5.494873,-22.774536 -22.275146,-48.486084 -22.275146,-72.114624c0,-6.560181 49.565674,-47.573242 57.830811,-50.980469c31.170898,-12.85144 58.328125,-5.702393 84.711426,0.928223c42.170654,10.596802 125.633057,39.171021 167.569092,39.171021c7.624268,0 10.881104,-7.417114 10.881104,-16.321411l0,-5.44104c0,-29.549683 -117.974854,-47.408447 -150.164063,-56.576782c-105.132813,-29.947754 -68.997314,-13.577271 -159.947998,7.611694l-4.423096,-43.660889c8.911133,-14.689453 118.639893,-92.353027 140.437012,-92.353027l10.881104,0c28.201416,0 219.799072,87.250244 250.265137,103.370972c11.998291,-6.348999 21.762451,-4.74707 21.762451,-21.762451l0,-5.441162c0,-21.806763 -30.308105,-28.296631 -48.965088,-32.6427l34.606201,-124.553955l-8.417725,-16.511353l-20.99707,-4.876221c-27.385498,23.067627 -39.282715,83.691772 -48.715332,124.179077l-76.167725,-32.643677c7.228271,-31.025391 40.913818,-97.444336 56.31958,-128.659058c23.567871,-47.751465 23.841553,-83.522949 96.015869,-83.522949l76.167725,0c8.26416,99.315186 49.161621,221.361938 97.930176,277.468994c-53.128174,100.404907 -122.535156,258.349976 -166.480225,366.692993l-0.000732,0.000854zm373.221924,-611.518921c0,-30.65918 34.556885,-70.727539 65.286377,-70.727539l10.881104,0c44.4021,0 76.167725,32.954956 76.167725,76.167725c0,31.670166 -32.553955,70.727417 -65.286377,70.727417l-21.762451,0c-37.88916,0 -65.286377,-36.945435 -65.286377,-76.167603zm-2720.280029,-179.539063c171.087036,0 351.804993,-32.729492 522.424927,-32.511597c93.990845,0.119507 156.399048,-23.849243 226.200073,-51.267822c63.390503,-24.900879 147,-46.900391 203.472046,-73.996948c18.426392,79.090088 25.357666,114.469971 65.287354,174.098022c-82.239136,43.515259 -158.776978,91.497192 -241.171997,134.226929c-27.532227,14.278931 -183.192017,167.753052 -183.192017,192.207031c0,24.610718 63.339355,95.660156 80.118652,115.741943c15.043213,18.004395 25.996704,39.717651 43.340698,54.589355c25.013672,21.447266 48.705811,4.933105 72.400879,25.529297l-396.577026,63.425171c-50.585327,4.590088 -377.367004,-96.068848 -468.471985,-96.068848l-55.4664,-86.374268l67.772308,-364.938965l63.861816,-54.658691l0.000671,-0.00061zm1147.959961,255.707031l0,-65.286377c26.704346,7.129761 72.144409,70.726563 92.48999,70.726563l5.440063,0c12.734863,0 21.762573,-9.026733 21.762573,-21.761475c0,-15.08667 -113.263062,-111.697021 -131.851074,-129.296997c-25.225708,-23.88208 -93.482788,-120.958984 -96.090942,-157.639038l63.855957,-25.363525c6.406006,22.921997 67.890869,107.560059 84.49939,130.738037c24.044922,33.553589 110.050049,37.108398 150.314087,56.427368l-6.203613,-0.853027l-26.203979,190.557007c4.310547,7.216553 63.032959,98.388916 70.491455,109.528076c-18.764771,12.565063 -107.390991,97.930054 -119.692993,97.930054c-2.310425,0 -32.476074,-18.795532 -38.083862,-21.762451c17.770142,-76.27478 20.978882,-71.334839 -10.731812,-125.281982c-13.318848,-22.657959 -59.995605,-84.008789 -59.995605,-108.662109l0.000366,-0.000122zm37.973877,-538.950012l-19.573486,218.15802l-52.864014,-62.803528l-96.12854,40.795227l-32.428833,-129.932068l200.994995,-66.217468l-0.000122,-0.000183zm1448.660156,-113.734009l47.629883,5.052612c-0.47998,20.476624 -21.233154,148.877014 -26.251221,164.401001c-9.993408,30.912598 -55.385498,109.469055 -55.385498,135.035095c0,12.535156 3.786133,16.321411 16.321533,16.321411l10.881104,0c19.752686,0 36.906006,-66.916321 54.40625,-87.049011c3.992432,17.137878 16.321289,31.929504 16.321289,43.524109c0,15.830688 -21.762451,59.887695 -21.762451,81.608765c0,19.12146 30.101074,99.16394 38.08374,114.250854l-33.860107,48.091797c-41.469727,-27.711304 -93.588623,-47.104736 -109.767822,-105.764893c-20.242432,-73.395508 -38.702637,-87.211792 -68.554199,-143.628052l107.138184,-87.273438l24.798584,-184.571045l0.000732,0.000793zm90.57666,-171.697021l61.643799,198.320984l-60.93457,17.222595l6.334717,-65.670105c-0.769287,-2.572571 -9.169434,-12.463867 -11.934814,-16.443787l-103.50708,-9.393982c-31.471436,15.237 -32.506836,43.657898 -32.506836,91.001831l-98.016846,-169.10498l238.922119,-45.932739l-0.000488,0.000183zm54.955566,30.058594c72.049072,0 197.467041,-7.741882 267.105957,-15.802795c77.654785,-8.988159 154.050049,-40.541687 223.591064,-59.317078c63.580322,-17.164795 404.772949,-126.180023 434.197754,-126.180023c72.910645,0 142.03125,126.402008 178.634277,175.003021c17.945313,23.827087 147.798828,192.632019 147.798828,205.835999l0,48.965088c0,37.201904 -130.413086,110.537964 -162.12793,131.661987c-59.734375,39.786987 -114.181152,79.784058 -174.098145,119.692017c-82.589844,55.011475 -85.776367,64.306152 -193.551758,100.239014c-61.837891,20.616333 -163.492188,47.779419 -215.578125,72.770996l27.134277,-43.57312c0.067871,-61.351929 16.302979,-134.327026 16.389648,-195.810974c0.13208,-92.689514 32.63501,-102.342041 -16.35791,-168.621033c-49.067139,-66.379517 -46.610352,-47.116272 -138.223877,-68.517395c-30.079834,-7.025696 -148.12207,-37.28479 -171.851074,-34.889526l-174.13501,15.954102l-48.92749,-157.408997l-0.000488,-0.001282zm-1365.579956,-92.489014c12.559326,-18.756073 84.608276,-70.517395 107.911011,-87.948181c52.002197,-38.896393 51.349609,-44.088806 122.635986,-67.783813c51.658203,-17.171478 96.637695,-33.851379 145.703857,-50.156372c40.391602,-13.423004 42.672119,-97.6082 42.672119,-147.748016c32.837402,24.059418 23.316162,79.014008 68.467041,94.749298c42.700928,14.881317 82.683594,27.255615 122.644043,40.572601c68.089355,22.69162 185.779053,54.301117 244.133057,82.300812l-24.23584,162.859009c0.69873,12.628662 28.888428,198.480957 33.197021,209.018982c13.947266,34.113586 69.586182,109.955017 92.238281,147.146973c16.767578,27.530334 76.097412,133.291992 90.604736,148.779053c24.387939,26.035278 74.783447,119.162964 74.783447,164.601929c0,17.624512 -51.056641,150.567993 -59.846191,163.218018l-18.650146,-113.85791l-18.595215,-17.642822c-97.638184,0.927246 -80.760498,28.844116 -55.244629,-80.681519l54.42041,21.723877l23.583252,-25.529297c-36.115479,-66.420898 -203.136963,-47.418945 -203.136963,-12.515991l0,5.44104c0,17.015503 9.765137,15.413452 21.762451,21.761597l54.318359,-11.357422l-18.006104,87.145264l-30.87207,0.380737c-50.770508,0 -117.179932,188.067017 -141.454102,233.94397c-19.000977,-4.427124 -18.319336,-10.881226 -38.08374,-10.881226l-48.965088,0c-34.8125,0 -129.253906,87.04895 -146.89502,87.04895c-8.986084,0 -17.65332,-15.626465 -21.762451,-21.762573c5.428467,-65.229492 28.739014,-125.5 -20.605957,-164.372925c-20.257568,-15.958008 -45.460205,-26.453735 -67.739502,-41.070923c-26.110352,-17.130981 -27.63916,-38.647705 -53.108643,-55.702637c-10.813721,0 -133.2771,12.157471 -138.221924,14.114136c-23.773193,9.40564 -39.60791,76.344116 -52.197998,100.136963l-6.046387,3.429565l-46.936035,-82.759644c21.293945,-10.567993 47.542236,-6.664185 47.542236,-29.481201l0,-5.440063c0,-14.549805 -7.853516,-16.092041 -16.322266,-21.762451c-45.265625,3.766724 -125.132935,41.413086 -125.132935,81.608765l0,5.440063c0,17.016357 9.765015,15.413452 21.762451,21.762573l37.858276,-27.486084l-4.694092,3.296509l56.042725,91.486572l5.658936,0.658325l-112.363892,100.051025l-4.264282,-4.789551c-10.651733,-20.130615 -48.965088,-72.298584 -48.965088,-92.488892l0,-65.287476c0,-66.396729 93.948242,-353.399963 115.374023,-439.562988c27.897705,-112.184998 51.880859,-102.833008 10.437012,-213.981995c-21.918701,-58.782227 -45.082764,-150.876038 -71.405151,-200.622986l0.000977,-0.001648zm380.380005,-404.325974c0.45874,52.317398 -4.81543,147.630997 -44.582275,163.42601c-47.494141,18.864105 -99.694092,36.312195 -148.77417,52.525604c-67.986084,22.460297 -78.143555,43.427582 -127.141846,79.599976c-16.335938,12.059113 -108.847046,76.425018 -108.847046,92.4534c0,56.92572 97.930054,243.255981 97.930054,299.231018c0,9.124084 -107.129883,398.639954 -114.251953,413.481995c-31.290405,-2.603394 -67.731812,-17.106079 -100.255005,-24.876831c-34.033569,-8.131348 -44.065674,-36.743042 -57.520508,-62.172119l15.932007,-6.455078l29.500488,-292.589966c-1.87854,-0.492554 -154.213013,-499.73703 -165.141968,-522.54306l723.152954,-192.079994l-0.000732,-0.000954zm522.751953,246.550003c-20.441895,-30.528015 -212.911865,-82.76059 -264.542969,-99.974487c-20.787109,-6.930298 -130.718018,-41.436218 -138.034912,-46.943817c-3.283203,-2.47139 -62.492188,-107.962997 -43.334229,-113.483994c4.829102,-1.391846 162.969971,-11.727501 173.88501,-11.625305c41.133545,0.38459 123.696045,-6.083038 168.272949,-11.2658c89.436523,-10.3983 242.605957,-26.817997 332.259033,-26.817997c-1.36377,61.209202 -47.124023,215.859997 -61.157959,287.037975c-13.064453,66.262817 -58.534668,221.899994 -58.534668,284.220001c0,7.66864 141.454102,231.085022 141.454102,261.14801l0,32.6427l-95.155029,68.942383c-18.223145,-61.511841 -146.978027,-210.075989 -155.26416,-264.648987c-5.550049,-36.555054 -28.369873,-149.67395 -27.299072,-179.526978c1.835205,-51.215698 22.885498,-124.817993 27.452393,-179.702972l-0.000488,-0.000732zm-2932.459925,2687.639923l0,21.762451c20.278099,23.328857 61.755701,118.144043 79.7745,154.169922c34.098198,68.175293 43.30899,90.869873 60.4487,173.495117c27.085999,130.575928 52.503494,260.989014 83.987595,389.342041c13.882813,56.5979 15.43071,142.664063 57.163803,176.779053c44.343292,36.250488 86.688416,66.800537 130.615997,103.327881c37.504517,31.185303 98.017792,72.545654 128.110016,105.834229c26.066162,28.834961 66.02478,111.077637 91.003662,148.380859c-5.971191,6.869629 -70.726563,122.687012 -70.726563,125.132813c0,17.564941 200.778992,342.753906 217.622009,342.753906l96.396545,0.504395l28.78241,80.414551l125.08606,11.571289l38.084717,0l153.345093,-26.338867l-0.688232,-6.337891l-16.643311,-168.623535c51.991577,-77.643555 63.141846,-54.660156 80.394287,-169.871094c11.875977,-79.305176 17.535889,-148.315918 17.535889,-238.171387c11.90686,-6.300781 76.023071,-29.314941 92.752197,-29.256348l180.33606,25.039551l53.597412,-50.210449l-5.34082,-86.053223l211.829956,-77.141846c63.258423,33.472656 178.817017,65.477295 253.532959,94.662354c85.900879,33.553711 169.218994,59.521484 254.133057,94.064453c40.942627,16.654785 84.964111,33.238281 126.760986,47.335938c73.516113,24.797852 39.816895,41.120117 70.710205,103.387695c9.685059,19.519531 237.042969,79.473145 274.164063,79.473145c21.769043,0 134.034912,-165.918945 154.583008,-193.613281c49.572266,-66.813965 148.785889,-92.347168 226.220947,-127.415039c40.043457,-18.134277 81.179688,-32.368652 121.625977,-52.470703c60.923828,-30.279053 61.037598,-23.890381 137.272949,-10.497314c77.074707,13.54126 238.390137,45.154541 306.954102,46.682373l0,114.250977c0,20.360352 171.931885,81.60791 195.859863,81.60791c25.820557,0 81.344727,-130.572754 97.930176,-130.572754c10.653809,0 89.711914,41.737793 103.371094,48.964844c-9.364258,40.192871 -59.846191,197.562012 -59.846191,223.062988c0,60.248047 55.004395,171.007324 54.479004,244.750977c-0.672363,94.293457 75.915527,136.087891 168.583008,136.087891c67.767578,0 146.117188,-45.021484 204.304199,-62.282715c133.630859,-39.642578 107.539063,42.532227 172.84375,-93.744141c57.208496,-119.379883 106.900391,-252.85791 165.388184,-365.828125l-31.123535,-109.25c76.869141,-145.273682 226.893066,-309.10376 349.595703,-412.082764c107.572266,-90.279785 104.621094,-82.927246 148.878418,-231.960938c13.918945,-46.875488 74.765137,-269.12915 89.106445,-291.732178l0,-97.929932c-18.287598,-28.822998 -5.537598,-181.130127 -5.438965,-228.505127c0.117676,-56.497803 5.264648,-57.602295 -30.468262,-83.78418c-22.589355,-16.551758 -36.559082,-35.176758 -62.022461,-52.22876l-108.712402,-6.834961l-38.183105,1.394775c-54.788574,0 -145.572754,79.428467 -157.775879,125.133057l-87.048828,0l-86.984375,6.182373c-65.445313,43.040039 -132.102051,130.728027 -194.908691,179.812012c-95.173828,74.377686 -86.211426,121.204834 -126.841309,243.11792c-30.788086,92.383057 -58.736816,192.764893 -90.967773,284.429932c-19.569824,55.658203 -148.931152,175.120117 -158.60498,211.353027l-81.568359,5.890137c-63.523438,-120.426025 7.690918,-137.200928 -179.578125,-152.784912l-122.248047,133.104004l-100.990967,-12.055176c8.699951,-33.281738 344.857178,-499.947998 391.971924,-567.098145c43.860352,-62.512207 386.204102,-535.194824 386.204102,-565.893799c0,-0.26709 -61.33252,-119.693115 -70.727539,-119.693115c-35.003418,0 -88.839844,40.052002 -130.57373,43.524902l-24.572266,-71.765625l-35.003418,3.613525l16.529785,-40.395996c-10.203125,-20.528809 -24.818359,-92.753174 -49.443359,-92.753174c-18.991211,0 -312.116943,121.75293 -355.883057,139.208008c-57.409424,22.895996 -317.698975,135.004883 -356.829834,138.260986c-11.693848,-50.192139 -134.75708,-275.038086 -166.822998,-339.148926c-29.486084,-58.953857 -55.476074,-111.609131 -85.422852,-170.297119c-16.773438,-32.87207 7.420898,-166.828979 7.420898,-225.029907l0,-76.167725l-6.532227,-135.95105l2.491699,-4.99292l-190.506104,-54.101563c4.601563,-6.552368 58.532471,-127.008057 58.532471,-131.386963c0,-2.780884 -58.673096,-112.63501 -65.286377,-125.134033l73.743652,-189.280029l0.286133,-5.783203l108.236084,76.97644c-2.727783,71.934326 49.633057,123.527954 116.965088,123.527954c61.856689,0 119.692871,-53.306396 119.692871,-114.250977l0,-16.322266c0,-90.048462 -78.070313,-110.587036 -157.775879,-108.811035c-12.523682,-26.099854 -38.251709,-91.678345 -33.006104,-114.156982c13.845947,-59.338257 35.134277,-56.528564 5.803467,-114.346008c-21.271973,-41.932617 -32.916504,-58.366699 -19.878174,-117.808044c7.495117,-34.17627 70.52417,-42.865601 101.352051,-50.983398c85.831543,-22.60199 188.269043,-20.298279 266.330078,-4.915771c40.421143,7.965515 83.305176,19.013489 125.133789,27.202637c59.008789,11.553101 58.286865,21.36145 87.439453,64.896057c0,78.90033 -10.742432,155.370056 -16.284668,233.981018c-3.814209,54.080444 -3.084473,60.282959 -29.486084,95.646729c-12.877441,17.247681 -46.718262,56.40625 -46.718262,78.414551c0,17.016235 9.76416,15.414307 21.761475,21.762451c59.50708,-28.552979 177.72998,-60.149902 248.221924,-83.652222c42.793457,-14.267334 82.331543,-27.694214 122.448242,-40.768188c38.69873,-12.612427 68.897949,-39.865112 101.570801,-61.646851c55.847168,-37.231689 361.432129,-240.33197 381.927246,-270.940002l6.093262,-103.322998c-51.416016,-75.85437 -111.414063,-150.373962 -167.062988,-225.356995c-29.316406,-39.500671 -53.93457,-74.343994 -82.951172,-112.909973c-19.830078,-26.3573 -81.291504,-75.263519 -120.597168,-75.263519c-18.456543,0 -401.904053,115.210022 -446.746094,129.953033c-39.05249,12.838898 -191.604004,60.401489 -227.694824,60.653992c-31.00708,0.216858 -255.03418,10.500488 -266.775146,16.134399l-25.387451,-39.425598l-262.446045,52.977722c0.757568,-59.851135 46.490723,-218.048035 59.720947,-285.190033c11.654297,-59.1427 59.455078,-228.994003 59.455078,-277.859005c0,-2.88875 -7.836426,-11.9405 -10.881348,-16.3214l-32.642578,0c-16.297363,10.3405 -364.922119,28.681201 -418.965088,32.602299c-131.275879,9.523132 -294.375,14.738701 -403.256836,48.309597c-117.047119,36.089607 -237.625,59.656403 -356.353149,95.212997c-110.873901,33.20369 -247.050903,70.599289 -355.66394,95.903107l0,16.321381c0,17.278503 149.759033,499.687988 163.217041,527.734009c-35.851563,17.202393 -250.265015,67.200684 -250.265015,97.930115l0,5.441101c0,14.69342 2.597656,15.000916 5.440186,27.202576c-61.2854,14.277893 -143.518066,52.558411 -208.786011,74.122314c-35.449463,11.712097 -69.723145,28.462463 -103.529053,37.925842c-30.976196,8.671021 -90.002197,8.79541 -123.313965,12.700073c-71.379028,8.368408 -198.067017,16.074585 -265.997009,16.912231c-87.847046,1.083374 -176.268005,16.116089 -261.353027,16.116089c-84.876282,56.83606 -89.967468,90.623901 -108.23999,207.312012c-11.434479,73.0177 -44.09549,197.359009 -44.09549,266.015991c0,14.525635 54.749298,94.337646 65.286407,114.250977c52.116882,1.161377 195.386963,39.65686 257.953979,52.158447c56.7995,11.348633 207.225037,51.212769 253.459045,51.212769c58.010132,0 224.514038,-38.128174 293.789063,-48.965088c43.889282,-6.866699 272.028931,-25.615112 272.028931,-65.287476c0,-12.197876 -4.306641,-11.942505 -10.881226,-21.761475c-18.091919,0 -196.692017,-28.801636 -206.293945,-33.09082c-12.790771,-5.712036 -103.817993,-120.008057 -103.817993,-135.567017c0,-6.0802 74.973389,-77.705078 85.69751,-88.401245c38.705444,-38.607178 35.852417,-50.10437 90.146729,-78.510864c67.399292,-35.262573 156.012085,-81.350464 215.876099,-121.437012c7.035278,13.295654 65.287354,97.425049 65.287354,97.930054l0,48.964111c0,84.135132 -21.285278,55.540649 21.776855,119.677979c20.366821,30.335205 39.478638,62.110474 59.830933,92.504517c-7.914429,95.112671 -27.694214,32.525146 -98.085327,65.131226c-32.175293,14.904541 -65.131226,51.483643 -65.131226,98.085327l0,21.762451c0,57.709473 56.150879,108.811035 114.251099,108.811035l10.881104,0c75.299194,0 114.251099,-61.940796 114.251099,-141.455078l123.777954,-99.540771c1.356079,85.757324 47.820801,165.802979 -34.961792,204.677979c-30.724609,14.428345 -63.009766,30.865356 -93.5271,42.486816c-42.649658,16.240479 -37.039917,36.071289 -71.456177,59.117676l-51.137573,440.42688l-244.519043,390.799072c-37.616333,-2.106201 -201.619995,-59.343262 -249.171021,-74.216797c-48.138062,-15.058594 -205.634033,-71.499512 -249.492981,-71.499512c-6.170837,0 -45.805542,49.317627 -75.389832,60.624023c-25.659424,9.806396 -65.696106,27.92749 -87.827698,42.74707l-81.138428,-28.489258c-19.378784,11.291748 -54.87561,61.320801 -54.87561,88.335693c0,23.726807 669.377014,971.124023 739.917053,1104.429932c-41.30603,-9.622314 -143.19397,-48.965088 -179.53894,-48.965088c-16.798584,0 -80.846313,96.864014 -92.48999,114.251953l-59.691162,6.674805c-5.956787,-70.96167 -72.055786,-263.437988 -92.71936,-343.915039c-33.487183,-130.421875 -51.383484,-210.483887 -110.591064,-319.213867c-29.148682,-53.529053 -160.28302,-177.700928 -208.974976,-226.27002c-62.604004,-62.444824 -34.602356,-51.648438 -128.598999,-89.022949c-27.83783,-11.069092 -148.623016,-23.876221 -188.30603,-23.876221c-7.376556,-13.94165 -44.486908,-76.167725 -59.845306,-76.167725l-152.335999,0c-15.777695,0 -141.394997,99.63916 -163.216995,114.250977l-10.8812,65.286377l-0.00147,0.004395z" class="fil0" id="_62545984"/>
   <path fill="url(#linearGradient3822)" d="m3003.189941,4183.790039c54.586426,-12.716309 192.303955,-84.126465 253.970947,-110.545898c85.668701,-36.702637 163.436035,-74.490723 249.830078,-109.24707c43.279053,-17.411621 87.086426,-41.030518 128.040039,-56.939209c62.529541,-24.290771 65.364502,-25.926514 100.463867,-79.07373c45.196289,-68.435547 98.20874,-147.530029 147.587158,-211.491211c53.315918,-69.060791 96.537109,-145.602783 149.852783,-214.663818c49.378662,-63.961182 102.391357,-143.054932 147.587158,-211.490967c48.333496,-73.186523 99.65918,-137.895996 147.993164,-211.083008c23.768066,-35.990479 48.486816,-72.158936 73.837891,-105.701172c14.024414,-18.55542 23.762207,-35.456299 38.083496,-54.406006c6.51123,-8.614258 11.005859,-15.960938 17.537109,-25.987305c1.714355,-2.63208 8.33252,-12.962158 8.535156,-13.227295c1.303223,-1.712646 3.966309,-4.712402 5.003418,-5.877686c1.041016,-1.169189 7.89502,-2.986084 6.069336,-4.811523l-4.533691,-6.347412c-42.57666,29.861084 -406.654297,159.24707 -480.43335,185.128174c-155.953857,54.707764 -321.994873,119.750977 -476.313965,181.993896c-159.063965,64.156982 -317.262939,118.987061 -477.197998,181.109131c-138.200928,53.679443 -114.619873,20.019775 -184.677979,147.196045c-32.530029,59.052002 -31.317383,41.592285 -92.368408,70.8479c-18.907471,9.061523 -100.678955,45.274414 -117.942139,45.274414c-9.545166,0 -241.50293,-59.20166 -260.257813,-66.176025c-25.462891,-9.468262 -45.973389,-73.543213 -58.984619,-104.232178c-23.55249,-55.55127 -32.467285,-53.081787 -90.809082,-72.408447c-156.759033,-51.926025 -326.118896,-112.379883 -480.028931,-172.837891c-153.849976,-60.434326 -321.726074,-121.860107 -478.93103,-173.935059c-82.319092,-27.268066 -157.55896,-59.37207 -239.272949,-87.160645c-75.749329,-25.758789 -167.892029,-67.778076 -241.506042,-84.928467c38.496399,72.751709 107.333008,163.718994 155.601013,236.121094c53.490479,80.235107 104.046021,153.346924 157.776001,233.943848c103.799927,155.699951 206.064941,314.506104 312.212036,465.788086c27.137939,38.678467 52.494751,74.832764 79.486206,116.373047c24.797729,38.164795 84.481079,49.767822 130.762085,65.098389c95.377686,31.593994 193.161987,71.955566 285.600952,106.119141c87.107666,32.193359 515.277954,202.822021 570.57605,207.424072l-75.325195,-234.224121l20.460205,-27.331787c41.249268,21.991699 50.883301,94.497803 66.438232,141.172119c16.53833,49.624023 32.85498,98.607422 50.317383,150.98291c30.8125,92.418457 4.674805,86.856934 96.972168,109.769043c39.359863,9.770508 127.379883,38.395996 162.129883,39.169922l152.581055,-212.000977c-0.24585,-147.809082 5.195313,-281.23291 5.195313,-424.543945c0,-70.726563 0,-141.454102 0,-212.182129c0,-36.849121 -7.036377,-190.418945 21.762451,-190.418945l21.761475,0l5.732178,0.063965l-11.172119,799.698242l-0.000977,0.000488z" class="fil1" id="_62547880"/>
   <path fill="url(#linearGradient3840)" d="m4793.129883,4194.669922c14.593262,-27.578613 133.837891,-206.1521 151.615234,-223.782959c63.480957,-62.959717 128.581543,-118.612061 192.450684,-182.947998c97.514648,-98.229004 107.420898,-65.64209 149.981934,-225.416992c14.850586,-55.746094 82.651855,-251.624023 82.651855,-292.74707l0,-174.0979l-6.59668,-179.487061c-27.371582,-15.146484 -34.699707,-34.239014 -52.93457,-43.891357c-17.064453,-9.031494 -62.153809,-3.311768 -89.54248,-8.401123c-50.724121,-9.423828 -115.880859,28.452881 -135.037109,56.480469c-53.267578,77.942139 -106.25293,147.848877 -159.764648,226.514893c-103.431152,152.050049 -212.681152,302.5 -321.072266,451.487061c-45.959473,63.172607 -96.005859,179.309082 -129.055664,257.225098c-38.253906,90.186279 -77.695801,178.204834 -119.686035,266.59375c-31.041016,65.340332 -102.471191,200.210938 -114.791992,271.488281c-17.708496,102.450684 -38.352051,239.511719 -46.679688,339.599121c27.69873,41.365723 15.964355,50.57959 71.807617,64.205566c46.643555,11.381836 59.094727,16.366699 102.290039,-4.359375c-30.45459,-57.556152 -80.074219,-95.083984 -57.840332,-161.208008c19.616699,-58.337891 41.965332,-126.887207 56.797363,-182.591309c16.172852,-60.739746 36.46582,-125.052734 55.22168,-184.162598c4.382813,-13.81543 83.645508,-120.632324 98.08252,-141.303223c64.797852,-92.779053 132.043945,-193.275879 200.436035,-283.773926c25.781738,-34.114746 18.990234,-42.621826 67.456055,-52.236572c34.255371,-6.795166 67.079102,-14.362793 97.862793,-21.828857c65.75293,-15.948486 129.708008,-29.546875 194.697754,-44.6875c8.467773,5.67041 16.321289,7.212646 16.321289,21.762451l0,5.440186c0,24.944092 -177.731934,57.875244 -207.977539,64.050781c-123.067383,25.128174 -105.731445,14.136963 -166.317383,105.710938c-64.911133,98.109375 -172.748047,222.714844 -224.166016,319.88916l293.790039,-43.524902l-0.000488,0.000977z" class="fil2" id="_62547472"/>
   <path fill="url(#linearGradient3832)" d="m54.405201,3003.189941l-5.440132,54.405273c-1.19521,8.691162 67.432003,140.292969 76.167698,157.775879c33.151703,66.345703 43.486404,88.177734 60.2733,173.671143c24.852707,126.566895 53.5242,256.910889 83.428589,384.459961c18.126709,77.317627 10.474518,127.833008 64.013123,169.930908c43.884491,34.505859 85.657104,71.841797 129.600006,104.343994c30.496185,22.557861 107.88797,79.38208 124.98996,108.953857c18.254944,31.564453 67.959351,124.791016 92.631714,141.312012c34.391235,0 223.062988,13.12793 223.062988,-5.440918c0,-24.039063 -136.270996,-423.528076 -152.664001,-454.670898l-255.37796,-34.978271c-6.574646,-9.819092 -10.881226,-9.564697 -10.881226,-21.762451l0,-5.441162c0,-12.535156 3.786133,-16.321533 16.322296,-16.321533c69.394531,0 146.372986,19.217041 212.345032,27.038818c104.947998,12.44458 83.320557,34.818115 114.764954,130.061035c15.067444,45.637695 124.455017,343.287842 124.455017,365.194092c0,61.571289 -19.427917,20.989258 16.322327,92.489746c15.065369,30.130859 28.458496,62.358398 43.523987,92.489258c11.792114,23.583984 81.608887,166.667969 81.608887,184.979004c0,10.19873 -43.297607,70.466309 -52.235596,83.779297c-25.270935,37.644043 -25.435791,52.234375 -72.897217,52.234375l-45.193359,0.512695l12.625854,36.562012l103.294067,6.450195l5.44104,0c32.008545,0 49.707397,-2.782715 79.401489,-7.646484c48.779053,-7.990234 49.331299,5.847168 41.534546,-42.429688c-7.704346,-47.70459 -14.403198,-122.200195 -17.550293,-167.561035c-12.249878,-176.524902 -27.837769,-153.535156 -90.758911,-273.759277c-68.201233,-130.311035 -116.226013,-403.051758 -165.658997,-563.375732c-27.757813,-90.025391 -45.743835,-198.072021 -77.598999,-286.919189c-10.276917,-28.660889 -47.656128,-85.067139 -63.154297,-116.384766c-29.792542,-60.202148 -42.362549,-57.681641 -85.818054,-99.161133c-61.653564,-58.849609 -121.962952,-123.128906 -184.771973,-179.744873c-34.861603,-31.423584 -59.47229,-53.529053 -92.564209,-86.974854c-22.483398,-22.723389 -26.377502,-19.377686 -44.899384,-47.5896c-8.434906,-12.847412 -26.268616,-48.97168 -43.518219,-48.97168l-97.930084,0c-28.186707,0 -115.881004,76.078857 -146.895004,92.48999l0.001041,0z" class="fil2" id="_62546800"/>
   <path fill="url(#radialGradient3770)" d="m2171.08667,829.569946c32.560791,0 81.885498,-20.920044 119.693115,-21.762451l-109.822021,69.078247l-114.080078,-62.135498c35.746338,-0.724854 72.168457,14.81958 104.209961,14.81958l-0.000977,0.000122zm-342.755981,-397.160858c0,-99.879089 61.317139,-239.384995 157.775879,-239.384995c94.134644,0 152.335327,148.867966 152.335327,250.264999l0,54.406189c0,105.961029 -58.582764,245.121979 -153.07019,248.806061c-94.51709,3.684814 -157.041992,-139.846008 -157.041992,-237.925079l0,-76.167664l0.000977,0.000488zm723.594849,310.110931c0,-83.682983 43.360107,-184.978943 125.133057,-184.978943c122.540039,0 201.301025,197.722961 201.301025,331.873962l0,16.322266c0,89.921387 -38.732422,195.859985 -125.134033,195.859985l-5.439941,0c-112.442139,0 -195.860107,-193.119995 -195.860107,-315.552979l0,-43.524902l0,0.00061zm-386.278809,-228.502991c0,-17.858795 161.888916,-103.370026 179.537842,-103.370026c14.685791,0 21.762695,14.484192 21.762695,27.202637c0,17.42395 -152.904053,84.948578 -174.098145,103.370026c-15.245605,-7.31488 -27.202637,-2.380798 -27.202637,-21.762512l0,-5.440125l0.000244,0zm598.460938,-59.846283l0,5.441101c0,12.734802 -9.026611,21.761475 -21.761475,21.761475c-21.414551,0 -206.740967,-56.380188 -206.740967,-76.167725l0,-5.440125c0,-17.016296 9.76416,-15.414368 21.762451,-21.762512c29.063721,13.945435 206.740967,51.70343 206.740967,76.167725l-0.000977,0.000061zm-745.356079,59.846283c26.32251,49.746826 49.48645,141.841003 71.405151,200.622986c41.443848,111.149048 17.460693,101.796997 -10.437012,213.982056c-21.426025,86.163086 -115.373901,373.165894 -115.373901,439.562866l0,65.287476c0,20.19043 38.312988,72.358276 48.965088,92.488892l4.26416,4.789673l112.364136,-100.051147l-5.658936,-0.658203l-56.042725,-91.486572l4.694092,-3.296631l-37.858521,27.486084c-11.997314,-6.349121 -21.762451,-4.746216 -21.762451,-21.762573l0,-5.440063c0,-40.195679 79.867065,-77.841797 125.133179,-81.608765c8.468506,5.670532 16.322266,7.212646 16.322266,21.762573l0,5.439941c0,22.816895 -26.248535,18.91333 -47.54248,29.481323l46.936035,82.759399l6.046387,-3.429443c12.590332,-23.793335 28.424805,-90.731934 52.197998,-100.136841c4.945557,-1.956665 127.407959,-14.114258 138.221924,-14.114258c25.469482,17.055054 26.998291,38.571777 53.108887,55.702759c22.279053,14.617188 47.481689,25.112793 67.739502,41.070679c49.344727,38.873413 26.034424,99.143921 20.605713,164.373047c4.109131,6.136108 12.776367,21.762573 21.762451,21.762573c17.641113,0 112.083008,-87.04895 146.89502,-87.04895l48.965088,0c19.764404,0 19.083008,6.454224 38.083984,10.881226c24.27417,-45.876709 90.683594,-233.944092 141.453857,-233.944092l30.87207,-0.380615l18.006348,-87.145264l-54.318359,11.357422c-11.997559,-6.348022 -21.762695,-4.746094 -21.762695,-21.761475l0,-5.441162c0,-34.903076 167.020996,-53.904785 203.137207,12.515991l-23.583252,25.529297l-54.420654,-21.723999c-25.515869,109.526123 -42.393311,81.609009 55.244629,80.681519l18.595215,17.642944l18.650146,113.858032c8.789551,-12.650024 59.846191,-145.593018 59.846191,-163.21814c0,-45.438232 -50.395508,-138.565918 -74.783447,-164.601929c-14.507324,-15.486572 -73.836914,-121.247925 -90.604492,-148.778931c-22.6521,-37.191284 -78.29126,-113.032959 -92.238525,-147.146973c-4.308594,-10.538086 -32.498047,-196.390015 -33.197021,-209.019043l24.23584,-162.859039c-58.354248,-27.999695 -176.043945,-59.609192 -244.133057,-82.300781c-39.960449,-13.317017 -79.943115,-25.691223 -122.643799,-40.572556c-45.151123,-15.735352 -35.629883,-70.689941 -68.467285,-94.749329c0,50.140015 -2.280518,134.324997 -42.671875,147.747971c-49.066406,16.304993 -94.045654,32.984924 -145.704102,50.156433c-71.286621,23.695007 -70.634033,28.887512 -122.635986,67.783752c-23.302734,17.430847 -95.351929,69.192139 -107.911011,87.948273l-0.000977,0.001587z" class="fil3" id="_62547712"/>
   <path fill="#000000" d="m614.78302,1147.959961l-63.861816,54.658691l-67.772278,364.938965l55.46637,86.374268c91.104919,0 417.887024,100.658936 468.471985,96.068848l396.577026,-63.425171c-23.694946,-20.596191 -47.387207,-4.082031 -72.400757,-25.529297c-17.343994,-14.871704 -28.297607,-36.584961 -43.34082,-54.589355c-16.779175,-20.081421 -80.118652,-91.130859 -80.118652,-115.741943c0,-24.45459 155.660034,-177.927979 183.192017,-192.207031c82.395264,-42.729614 158.932983,-90.711548 241.171997,-134.226929c-39.929688,-59.627563 -46.86084,-95.00769 -65.287354,-174.098083c-56.471802,27.096619 -140.082031,49.096252 -203.472046,73.997009c-69.801147,27.418579 -132.209961,51.387329 -226.199951,51.267822c-170.620056,-0.217773 -351.33905,32.511597 -522.425049,32.511597l-0.000671,0.00061z" class="fil4" id="_62545096"/>
   <path fill="#000000" d="m3394.909912,609.34198l48.92749,157.408997l174.13501,-15.954102c23.72876,-2.395264 141.770996,27.863831 171.851074,34.889526c91.61377,21.401001 89.156738,2.137878 138.223877,68.517395c48.993164,66.279175 16.48999,75.931458 16.358154,168.620972c-0.087158,61.483948 -16.321533,134.459045 -16.389893,195.810974l-27.134277,43.57312c52.086182,-24.991455 153.740967,-52.154419 215.578125,-72.770996c107.774902,-35.932495 110.961914,-45.227051 193.551758,-100.239014c59.916992,-39.907471 114.363281,-79.904602 174.098145,-119.691956c31.715332,-21.12439 162.12793,-94.460205 162.12793,-131.661987l0,-48.965149c0,-13.204163 -129.854004,-182.008972 -147.798828,-205.835999c-36.602539,-48.600708 -105.723145,-175.002991 -178.634277,-175.002991c-29.423828,0 -370.616699,109.015991 -434.197754,126.179993c-69.541016,18.775391 -145.936035,50.329041 -223.591064,59.317139c-69.63916,8.060913 -195.056885,15.802795 -267.105957,15.802795l0.000488,0.001282z" class="fil4" id="_62547568"/>
   <path fill="url(#linearGradient3806)" d="m2801.889893,1507.030029l76.167725,32.643677c9.432373,-40.487671 21.32959,-101.111938 48.715332,-124.178955l20.99707,4.876221l8.417725,16.511353l-34.606201,124.553955c18.656738,4.346191 48.965088,10.835938 48.965088,32.6427l0,5.441162c0,17.015381 -9.76416,15.41333 -21.762451,21.762451c-30.466309,-16.12085 -222.063965,-103.370972 -250.265137,-103.370972l-10.881104,0c-21.797363,0 -131.526123,77.663574 -140.437012,92.353149l4.423096,43.660767c90.950684,-21.188965 54.814941,-37.559448 159.947998,-7.611816c32.188721,9.168457 150.164063,27.027222 150.164063,56.576782l0,5.441162c0,8.904297 -3.256836,16.321411 -10.881104,16.321411c-41.936523,0 -125.39917,-28.574219 -167.569092,-39.171143c-26.383301,-6.630493 -53.540527,-13.779663 -84.711426,-0.928223c-8.265381,3.407349 -57.830811,44.42041 -57.830811,50.980469c0,23.62854 16.780029,49.340088 22.275146,72.114624l195.346924,-72.114624c9.789307,8.508301 16.321533,6.503296 16.321533,21.762573l0,5.440063c0,23.945679 -112.592041,58.241455 -139.370117,67.371338c-16.377197,5.58374 -64.170166,21.936035 -74.04126,29.328857c-21.306396,15.959961 -31.100586,42.84729 -58.616455,50.195068l0,97.930054c0,13.760254 58.619385,57.178345 69.275879,64.358276l55.45874,-93.303589l-48.566895,12.623901c-11.997559,-6.348999 -21.761475,-4.74707 -21.761475,-21.762451l0,-5.441162c0,-23.200562 101.288818,-43.523926 130.572998,-43.523926c15.259033,0 13.253174,6.532104 24.791748,18.280884l-177.023926,273.654907l-5.544189,-3.586426l0,27.202393c0,22.841064 84.034668,38.365479 107.826904,44.51001c40.150391,10.368408 57.52832,47.602295 88.033203,69.742432c42.563721,30.891357 114.536865,111.800049 156.423828,153.687988c53.246582,53.24585 105.960938,98.001465 157.98999,152.121094c15.12915,15.737305 69.411865,198.920898 77.686768,233.758057l369.576904,-147.847168c-30.075928,-41.050537 -296.354004,-124.075928 -360.520996,-188.97583c-57.430664,-58.088379 -212.293945,-258.047119 -260.47998,-290.536133l-59.069336,55.148438c-5.459473,-4.745117 -21.762451,-14.849609 -21.762451,-21.762695c0,-15.606934 39.250977,-56.466797 50.847412,-79.726318c14.485107,-29.055908 31.010986,-64.362793 42.376953,-93.635986c23.208252,-59.768066 57.30542,-120.065918 83.050781,-183.537842c43.945068,-108.344116 113.351807,-266.288086 166.47998,-366.693115c-48.768555,-56.1073 -89.665771,-178.153931 -97.930176,-277.468872l-76.167725,0c-72.174316,0 -72.447998,35.771484 -96.015869,83.522949c-15.405762,31.214233 -49.091309,97.633301 -56.31958,128.658936l0.000977,-0.000854z" class="fil3" id="_62546848"/>
   <path fill="#cccccc" d="m2606.030029,3139.199951c-48.209473,0 -698.08606,-209.655029 -792.262939,-241.444092c-87.746704,-29.616943 -754.658081,-242.765869 -790.940063,-242.765869c-12.268311,0 2.520508,-2.088867 -10.881226,5.441162c14.313599,19.535889 572.219971,198.921875 646.734985,223.754883c107.696045,35.891113 216.035034,74.028809 325.079956,110.165039c57.029907,18.898682 106.222168,35.402344 163.218018,54.404297c33.183594,11.063232 148.938965,31.2854 148.938965,68.682861c0,6.912109 -16.302002,17.016357 -21.761475,21.762695c-59.829834,-28.707275 -1298.039978,-435.245117 -1305.729919,-435.245117c-19.872314,0 -52.106323,18.044922 -64.99823,26.360352l1506.750122,517.697021c81.947998,-19.092529 162.468994,-76.828125 249.253906,-53.394287c39.852539,10.760742 87.696533,25.346191 127.156982,36.061768c57.260254,15.549316 69.238281,-0.173584 123.362061,-21.509033c151.046875,-59.543701 317.460938,-133.64209 472.00293,-186.306152c157.371094,-53.628174 316.034912,-125.527832 472.144043,-186.163818c81.782227,-31.765625 153.61792,-59.012695 234.966064,-91.467285c73.734619,-29.416748 171.412842,-61.407959 235.686768,-95.50708l-10.655762,-33.929443l-28.089355,7.71582l-15.155762,-17.487549c-84.893555,40.734375 -1421.709961,538.615967 -1425.430176,538.615967l-5.439941,0c-10.509277,0 -21.762695,-9.699463 -21.762695,-16.321289c0,-34.729492 130.976074,-68.386475 163.232178,-81.593506c59.749756,-24.464111 119.63501,-44.006836 181.21582,-69.049316c120.978027,-49.196289 243.798096,-88.608398 362.823975,-137.707031c112.692139,-46.484863 242.728027,-96.221191 358.320068,-136.770996c62.462402,-21.910889 322.394287,-131.688965 362.091064,-136.787842l24.015137,-41.708008l-9.950195,-38.369141c-38.063477,3.167236 -354.424072,138.905029 -414.240967,162.458984c-139.019043,54.743408 -275.663086,108.273926 -412.724121,163.973877c-86.496582,35.150879 -799.154053,326.434082 -826.965088,326.434082l-0.005127,-0.001953z" class="fil5" id="_62547256"/>
   <path fill="url(#linearGradient3814)" d="m2247.050049,1334.219971c-22.007324,40.120483 -29.263428,94.50354 -63.924561,125.305054c-31.965088,28.406494 -72.506836,67.581299 -103.912842,91.948242c-41.303345,32.045166 -30.97998,87.939453 -21.463867,150.204956c10.811768,70.738159 -22.977783,109.157104 -22.977783,164.429077c0,100.194946 272.028076,354.553101 272.028076,408.043091c0,12.734619 -9.026855,21.761475 -21.761719,21.761475c-18.695313,0 -31.15332,-24.984863 -38.084717,-38.083984c-16.878418,11.30249 -235.716919,264.301025 -258.968994,295.968018c-23.878174,32.516602 -118.926025,91.419189 -157.781006,119.687012c-57.283325,41.674316 -104.67395,75.949951 -138.022949,138.75415l260.984009,82.136963c6.387573,-27.421387 75.59314,-168.192139 92.355957,-201.433105c20.112427,-39.885254 96.623169,-125.344971 129.215942,-164.575928c45.688965,-54.995117 86.839844,-106.832031 131.054199,-162.736084c89.256104,-112.855957 63.627441,-57.139648 180.548828,-113.240967c-7.064209,-84.88501 -39.018799,-95.468262 -79.421631,-149.082031c-14.838867,-19.689941 -100.116943,-119.800903 -100.116943,-133.826904c0,-12.734863 9.027588,-21.762573 21.762451,-21.762573l5.441162,0c20.710938,0 69.776123,92.48999 87.048828,92.48999c12.722168,0 16.149902,-11.211792 39.539307,-16.389771l-6.896729,-168.588989c-14.589111,-3.493042 -10.255615,-5.441162 -21.762451,-5.441162c-34.448975,0 -172.521973,54.780151 -217.621826,65.286499c-11.998535,-6.348145 -21.762695,-4.746094 -21.762695,-21.761597l0,-5.44104c0,-23.505249 88.285645,-41.19812 109.503174,-48.272949c14.876465,-4.960205 117.98291,-38.776001 124.440918,-38.776001c30.455811,0 73.691406,19.209106 77.007324,49.892334l20.922852,-17.248535c-27.258545,-56.809204 -14.678955,-108.11499 -103.156006,-109.025024c-68.268799,-0.702759 -153.451172,8.506226 -212.396973,-5.226074c-3.492188,-14.59021 -5.440186,-10.255737 -5.440186,-21.762573c0,-33.256714 107.260986,-16.321411 146.89502,-16.322266c29.005859,0 58.332031,-0.480957 87.27832,-0.228516c40.282471,0.350952 37.110352,15.685181 75.552734,16.599854l-11.512695,-91.477905l-31.625732,-28.263794c-38.964844,0 -239.38501,13.029785 -239.38501,-16.321411l0,-5.44104c0,-12.734741 9.027588,-21.762451 21.762451,-21.762451l59.846191,0c-0.768066,-34.46936 -16.322266,-46.872559 -16.322266,-87.04895c0,-12.535156 3.786133,-16.321411 16.322266,-16.321411l5.440186,0c27.149658,0 34.370117,75.786865 48.965088,103.369995c12.20166,-2.842529 12.509277,-5.440063 27.202637,-5.440063l65.287354,0c0,-49.615723 25.938965,-99.437622 -16.219238,-125.235962c-31.054199,-19.003906 -82.421143,-37.972046 -92.668213,-77.074707l-103.197998,7.736938l-0.000244,0.000122z" class="fil3" id="_62546056"/>
   <path fill="#000000" d="m1686.560059,304.606995c10.929443,22.806305 163.264038,522.049988 165.141968,522.54303l-29.500488,292.589966l-15.932007,6.455078c13.454834,25.429199 23.486816,54.040894 57.520508,62.172119c32.523193,7.770874 68.9646,22.273315 100.255005,24.876831c7.12207,-14.841797 114.252075,-404.357971 114.252075,-413.481995c0,-55.974365 -97.930176,-242.304993 -97.930176,-299.230988c0,-16.02829 92.51123,-80.394287 108.846924,-92.4534c48.998779,-36.172485 59.15625,-57.139709 127.14209,-79.600006c49.079834,-16.213379 101.280029,-33.661591 148.773926,-52.525604c39.766846,-15.795074 45.04126,-111.107986 44.582275,-163.42598l-723.152954,192.080002l0.000854,0.000946z" class="fil4" id="_62547544"/>
   <path fill="#000000" d="m2932.459961,359.076996c-4.566895,54.885193 -25.616943,128.487 -27.452148,179.703033c-1.071045,29.853271 21.749023,142.971985 27.298828,179.526978c8.285645,54.573914 137.040039,203.138 155.26416,264.648987l95.155029,-68.942444l0,-32.6427c0,-30.062378 -141.453857,-253.478943 -141.453857,-261.147949c0,-62.319641 45.469971,-217.957031 58.534424,-284.220032c14.03418,-71.178589 59.794189,-225.829002 61.157959,-287.037998c-89.653076,0 -242.821777,16.419697 -332.258789,26.818012c-44.577637,5.18277 -127.140137,11.650398 -168.273193,11.2658c-10.914795,-0.10218 -169.055908,10.233498 -173.88501,11.625298c-19.157959,5.521103 40.05127,111.013 43.334229,113.483994c7.316895,5.507614 117.248047,40.013504 138.034912,46.943802c51.631348,17.213898 244.101074,69.446503 264.542969,99.974518l0.000488,0.000702z" class="fil4" id="_62547736"/>
   <path fill="#660066" d="m1996.689941,2905.26001l54.40625,16.321289c7.908447,-21.848145 99.428955,-47.807373 130.710938,-44.526367l54.268311,6.442627c-35.945801,-31.244141 -52.034912,-5.918213 -67.503418,-63.070557c-4.692139,-17.338135 -30.426758,-91.480713 -30.426758,-100.145996c0,-20.619141 14.178711,-61.837646 21.761475,-76.167725c41.905518,0 81.626221,11.876953 119.862061,16.151855c47.786133,5.34375 65.406738,22.508545 87.786133,55.481934l4.53418,-6.347168c0.921631,-0.921387 -1.958496,-3.98291 -2.226563,-3.2146c-0.54834,1.572021 -3.028564,-5.034424 -3.872803,-7.008301c-0.21582,-0.505127 -4.106201,-11.78833 -4.213135,-12.108398c-3.21167,-9.601318 -4.160156,-14.253906 -8.181396,-24.462402c-7.381592,-18.737793 -14.149658,-26.799561 -14.149658,-51.136719l0,-97.929932c0,-31.268311 28.056396,-38.629395 48.960205,-48.969971c11.181885,-5.532471 57.45874,-32.638916 65.291016,-32.638916c18.843018,0 55.133057,22.171143 72.562744,30.808594c36.790527,18.22876 36.449219,13.339111 47.211914,56.158447c18.560547,73.844727 21.68042,95.537842 21.68042,190.501953c22.854492,-16.745361 29.488037,-53.924072 53.165771,-71.967041c15.955078,-12.158447 62.706055,-31.969971 82.790283,-42.345215c24.192627,-12.497559 70.386475,-11.641602 102.678223,0.809814c25.213135,9.722656 26.714844,61.043457 38.833496,86.300049c-19.583984,37.011963 -29.100342,80.964844 -58.396484,110.26001c-16.442871,16.440918 -81.256836,74.7854 -88.498535,85.600098c73.869629,-17.209961 64.687744,-50.838867 163.173828,-43.482422c106.797119,7.977051 75.696289,14.658691 120.035156,98.659668l64.987549,-22.534424c-1.737793,-20.882324 -61.306641,-213.38208 -69.497559,-224.292969c-31.653809,-42.160156 -107.687988,-102.522949 -149.477051,-144.312988c-45.156738,-45.156738 -100.203125,-107.621094 -146.941895,-146.846924c-14.594238,-12.248047 -69.968994,-65.060059 -78.272949,-68.622559c-11.26001,-4.829834 -106.294922,-30.708252 -116.187988,-30.708252c-15.749756,0 -87.466309,26.119385 -104.217041,31.797607c-25.082031,8.503174 -54.381104,49.686768 -70.891357,70.5625c-41.817871,52.873779 -81.924805,106.054199 -125.539063,157.371094c-33.300049,39.180664 -102.481934,115.394043 -125.5979,157.312012c-33.52002,60.782227 -58.341675,131.320068 -90.608521,192.301025l0.000122,-0.000732z" class="fil2" id="_346249224"/>
   <path fill="#cc9933" d="m2845.409912,3280.659912c-4.75293,20.402344 -49.572266,138.530029 -58.89209,147.848877c-9.422852,9.423096 -120.628906,53.881836 -142.407959,64.332275c-30.19165,-14.486084 -91.230225,-26.399658 -125.904053,-37.312744c-76.26416,-24.003418 -53.21875,-9.043945 -88.022461,-75.194092c-75.030273,-142.605957 -45.405518,-83.975098 -188.675049,-143.198975c-72.705322,-30.054688 -168.803955,-58.97876 -246.869873,-85.005371c-86.060059,-28.691895 -163.024048,-56.181641 -247.529053,-84.344238c-155.021973,-51.663086 -343.276001,-108.140137 -494.089966,-169.657959c-74.329468,-30.319824 -172.388062,-59.757568 -247.210022,-84.664307c-42.188965,-14.043701 -79.172974,-26.365967 -122.432983,-40.783691c-26.048828,-8.680908 -107.044006,-54.270508 -116.26001,-19.754883c49.896179,11.624512 162.369019,55.577393 212.182983,76.168701c65.404968,27.035889 146.284973,54.750244 215.501038,78.288086c147.06604,50.010986 286.571045,105.186035 431.152954,156.427002c139.867065,49.56958 293.947021,98.889404 432.27002,155.312012c69.80127,28.472168 144.290039,53.54541 215.156982,78.632324c60.747559,21.505127 54.062012,7.827881 82.41748,64.477783c12.285645,24.544189 37.207764,76.454834 43.487305,103.407959c65.326904,5.436279 182.709961,59.846436 244.824951,59.846436c17.144531,0 94.685791,-37.998047 116.428223,-46.787842c59.684326,-24.129883 50.52832,-39.475586 79.515137,-89.142334c30.265625,-51.856689 22.540283,-61.243896 83.696533,-84.961182c43.001465,-16.676025 82.467529,-29.094727 122.976807,-45.681152c154.059082,-63.078125 328.430176,-129.268799 484.952148,-184.236816c158.014893,-55.493408 328.770996,-120.453125 485.145996,-184.042969c80.361572,-32.679443 164.988037,-64.449951 243.813721,-93.500244c67.956543,-25.043457 186.291016,-62.560547 244.143066,-93.172363c-2.763184,-11.859619 -22.494629,-59.845215 -32.643555,-59.845215c-28.56543,0 -709.625,283.773926 -812.728027,318.907959c-131.035889,44.654541 -277.565918,107.685059 -405.958008,159.859863c-54.67041,22.217529 -374.916992,155.02002 -408.041992,157.776123l-0.000244,0.000977z" class="fil6" id="_346249296"/>
   <path fill="#990099" d="m1191.47998,4608.149902l37.753174,-38.122559l27.533203,-266.548828l0,-125.132813c0,-70.879883 -128.349976,-163.334229 -179.53894,-190.419189c-1.331177,-59.792236 -153.781067,-584.964111 -179.538025,-636.546143c-44.300903,-88.718262 -118.479004,-153.85791 -186.330994,-221.710938c-96.487183,-96.488281 -91.068298,-122.419922 -270.675995,-137.365967c16.718506,24.967285 118.038971,116.935059 148.131012,145.658936c50.051392,47.775635 103.664978,92.561279 152.454956,141.335938c42.475342,42.462891 78.115723,126.229004 110.896057,182.893066c17.889587,30.92334 50.555481,184.864014 65.260376,233.970947c46.430115,155.052979 79.762878,315.093994 126.463013,466.556885c31.510132,102.196289 32.174316,123.596191 84.478149,209.312988c48.888916,80.119629 63.113892,110.318359 63.113892,236.117188l0.000122,0.000488z" class="fil7" id="_346249344"/>
   <path fill="url(#linearGradient3798)" d="m3025.530029,1909.900024c11.546387,51.76416 64.712891,188.401978 64.712891,233.682983c0,5.966309 -33.464111,78.318115 -38.08374,87.048828c22.861328,43.206055 72.692871,91.097168 92.55542,130.50708c16.594238,32.926025 25.926514,166.26709 45.38916,183.114014c27.114746,23.469482 255.628906,121.02002 308.180908,148.826904c-17.115479,-73.46582 -247.35083,-472.48999 -247.116943,-500.738037l19.77002,-217.467896l-7.914307,-179.428955l2.619873,-5.239624l-168.551025,-37.702148l-71.562256,157.397095l0,-0.000244z" class="fil3" id="_346249416"/>
   <path fill="url(#linearGradient3790)" d="m1844.349976,1942.280029c0,66.822876 -19.259277,177.952881 -27.720215,249.748047c-4.549438,38.599365 -12.581421,85.866211 -15.804688,125.649902c-5.414063,66.839355 -4.932251,61.667969 -34.854858,106.599121c-67.920654,101.98584 -159.953003,240.157959 -215.216919,344.334961l86.855225,27.834961c36.208008,-24.246582 63.39917,-88.44458 108.730957,-119.773193c44.109985,-30.483398 98.051636,-52.727051 117.690063,-110.813965c37.786987,-111.77002 89.856689,-219.739014 148.976929,-308.029053c-14.455322,-62.046631 -7.882568,-60.947998 11.564575,-113.568848c3.601074,-9.74292 42.841553,-108.779053 42.841553,-109.494019c0,-32.655273 -79.35144,-72.778687 -81.608765,-174.098022c-19.168701,10.142944 -52.982544,25.339355 -74.417358,34.394043c-54.132324,22.865112 -31.257568,23.255615 -67.036743,47.214722l0.000244,0.001343z" class="fil3" id="_346249488"/>
   <path fill="#990099" d="m4172.910156,4570.069824c0,-188.283203 72.32959,-331.987793 137.837891,-460.623047c68.249512,-134.019043 119.748047,-276.167969 186.681152,-411.781006c71.359863,-144.580811 152.158203,-234.527832 236.911133,-361.551025c34.353516,-51.487305 235.925781,-319.858887 243.772949,-349.247803l-16.321777,0l-97.866211,6.252686c-37.877441,24.509521 -110.294922,95.79126 -145.605957,131.114014c-66.891602,66.911377 -86.557617,55.709229 -120.353027,157.115967c-23.483887,70.466309 -44.249023,138.220947 -68.022949,209.446045c-20.030273,60.008057 -41.916992,153.535889 -66.777832,205.248779c-11.794922,24.535645 -100.017578,127.928223 -122.923828,154.545166c-60.501465,70.304443 -51.189453,100.346924 -79.585449,192.442871c-18.472656,59.915771 -114.947266,392.756104 -114.947266,434.548096c0,21.359375 17.049316,80.808594 27.202637,92.489746l-0.001465,-0.000488z" class="fil7" id="_346249560"/>
   <path fill="#cc66cc" d="m4004.25,3922.639893c0,-36.095215 91.072998,-48.965088 136.01416,-48.965088l-34.70459,-91.73999l-79.556641,-11.565674c-26.032471,17.373779 -223.053223,246.959961 -223.053223,271.962891l0,174.098145c0,20.609863 117.769043,59.769043 141.454102,65.286133l56.612549,-91.040039l-40.290283,-1.44873c-43.811279,0 -61.48584,19.432617 -71.294189,-32.077148c-5.024658,-26.385742 -15.754639,-63.728516 -15.754639,-93.055664c0,-4.476318 41.871826,-48.965088 54.405273,-48.965088c12.734619,0 21.762451,9.026855 21.762451,21.762695c0,18.263428 -18.479492,30.496094 -27.202637,43.523926l11.407471,65.18335l86.521729,0.103027c76.55249,0 96.416748,49.752441 152.336182,54.40625l73.454102,-282.177979l-46.251465,-0.731689c-34.466797,0 -49.688965,5.882568 -92.526855,5.402588c-61.83667,-0.693115 -59.818359,27.241211 -81.571289,27.241211c-12.734619,0 -21.762451,-9.027588 -21.762451,-21.762451l0,-5.441162l0.000244,0.000488z" class="fil8" id="_346249632"/>
   <polygon fill="#990000" points="4548.66,4408.74 4425.78,4754.07 4630.17,4733.4 4798.32,4363.21 " class="fil9" id="_346249704"/>
   <path fill="#000000" d="m2606.030029,761.679016c0,-50.93811 27.050293,-152.335999 70.726563,-152.335999l21.762451,0c56.040039,0 106.506104,104.421997 123.162109,154.307007c27.848389,83.406433 27.262451,146.768005 7.412109,231.973022c-16.57666,-23.856018 -20.571045,-65.287415 -70.727539,-65.287415c-58.488037,0 -59.35083,35.679871 -76.16748,70.727478c-41.8479,-28.022888 -76.167725,-162.074951 -76.167725,-239.383972l-0.000488,-0.000122zm-43.524902,-16.322266l0,43.524841c0,122.433044 83.417969,315.552979 195.860107,315.552979l5.439941,0c86.401367,0 125.134033,-105.938965 125.134033,-195.859924l0,-16.322327c0,-134.151001 -78.761475,-331.873962 -201.301025,-331.873962c-81.772461,0 -125.133057,101.295959 -125.133057,184.978943l0,-0.000549z" class="fil0" id="_346249776"/>
   <path fill="#000000" d="m2225.189941,865.049011c0,-82.083984 36.907959,-223.062988 108.811035,-223.062988l5.439941,0c72.824219,0 108.811035,145.365967 108.811035,228.503967c0,79.191406 -19.262207,105.778992 -32.643555,163.217041c-19.739258,-28.408447 -25.51001,-73.554626 -83.838379,-62.502747c-65.781738,12.464905 -47.651123,50.86969 -63.056885,78.824158c-24.007324,-45.371765 -43.523926,-99.480042 -43.523926,-168.657043l0,-16.322327l0.000732,-0.000061zm-43.524902,-32.6427l0,76.167725c0,98.078552 62.524902,241.609924 157.041992,237.924988c94.487305,-3.68396 153.070068,-142.845032 153.070068,-248.80603l0,-54.406189c0,-101.396973 -58.200928,-250.265015 -152.334961,-250.265015c-96.459229,0 -157.776123,139.506042 -157.776123,239.38501l-0.000977,-0.000488z" class="fil0" id="_346249848"/>
   <path fill="#cc66cc" d="m1523.359985,4194.669922c0,6.805176 -10.070557,10.888184 -16.322266,16.322266l54.268311,6.442871c2.519531,-0.674805 12.5448,-9.163086 16.459106,-11.883789c0,-48.036133 -6.199707,-98.552734 -11.130859,-146.645264c-4.24585,-41.408203 -46.956299,-60.688477 -71.845581,-85.930664c-62.902832,-63.796387 -111.615967,-76.187988 -210.813965,-99.298828l-38.083862,48.965088c20.99707,-2.196777 13.863525,-5.440186 32.643677,-5.440186c11.072998,0 96.349487,32.439453 108.810059,38.084717c22.418945,10.156494 87.049927,25.488037 87.049927,54.404297c0,6.913086 -16.303101,17.017334 -21.762573,21.762451c-21.109863,-10.129395 -154.92395,-65.286377 -174.098022,-65.286377c-26.360107,0 -109.543945,13.35083 -119.692993,27.202637c46.100464,12.30957 141.455078,111.271973 141.455078,168.658203l0,54.404785l174.611938,-47.178711l-15.868286,-61.884766l20.335938,-27.358887c32.238892,17.224609 43.983643,68.417969 43.983643,114.660156l0.000732,0z" class="fil8" id="_346249920"/>
   <path fill="#ffcc99" d="m1654.48999,1100.410034c2.608276,36.679443 70.865356,133.756958 96.090942,157.639038c18.588501,17.599487 131.851074,114.209961 131.851074,129.296997c0,12.734741 -9.02771,21.761475 -21.762573,21.761475l-5.440063,0c-20.345581,0 -65.785645,-63.59668 -92.48999,-70.726563l0,65.286377c0,24.653076 46.676758,86.004028 59.995728,108.661987c31.710693,53.947388 28.501831,49.007446 10.731812,125.281982c5.607788,2.966797 35.773315,21.762451 38.08374,21.762451c12.302002,0 100.928101,-85.36499 119.692993,-97.930054c-7.458496,-11.13855 -66.180908,-102.311035 -70.491333,-109.527954l26.203979,-190.557007l6.203491,0.852905c-40.264038,-19.31897 -126.269043,-22.873779 -150.313965,-56.427368c-16.608643,-23.177368 -78.093506,-107.815918 -84.49939,-130.737915l-63.856079,25.363403l-0.000366,0.000244z" class="fil3" id="_346249992"/>
   <path fill="#ffffff" d="m2606.030029,761.679016c0,77.308899 34.319824,211.361023 76.167725,239.384033c16.816895,-35.047607 17.679443,-70.727539 76.167725,-70.727539c50.15625,0 54.150635,41.431396 70.727539,65.287415c19.850098,-85.205017 20.436035,-148.567017 -7.412354,-231.973022c-16.655762,-49.88562 -67.121582,-154.307007 -123.161865,-154.307007l-21.762451,0c-43.676514,0 -70.726807,101.39801 -70.726807,152.335999l0.000488,0.000122z" class="fil10" id="_346250064"/>
   <path fill="#ffffff" d="m2225.189941,865.049011l0,16.322327c0,69.176575 19.516602,123.284973 43.523926,168.656982c15.405762,-27.954407 -2.724854,-66.359192 63.057129,-78.824097c58.328125,-11.051819 64.098877,34.094299 83.838135,62.502686c13.381592,-57.437622 32.643799,-84.025208 32.643799,-163.21698c0,-83.138428 -35.987549,-228.504028 -108.811035,-228.504028l-5.440186,0c-71.903564,0 -108.811035,140.979004 -108.811035,223.063049l-0.000732,0.000061z" class="fil10" id="_346250136"/>
   <polygon fill="#990000" points="791.587,4742.52 962.932,4737.67 848.809,4477.55 627.761,4474.18 " class="fil9" id="_346250208"/>
   <path fill="#ffff99" d="m2404.72998,2927.02002c0,52.490967 53.724609,119.691895 103.371094,119.691895l32.642578,0c50.631592,0 108.811035,-52.400146 108.811035,-97.929932l0,-38.08374c0,-55.208252 -61.88208,-108.811035 -114.250977,-108.811035c-72.304443,0 -130.573975,54.90625 -130.573975,125.134033l0.000244,-0.001221z" class="fil11" id="_346250280"/>
   <path fill="#ffcc99" d="m3224.580078,935.552002l-107.137939,87.273499c29.851318,56.415833 48.311523,70.232117 68.553955,143.627991c16.178711,58.65979 68.297607,78.052979 109.768066,105.765015l33.860107,-48.091797c-7.98291,-15.087646 -38.083984,-95.130127 -38.083984,-114.250977c0,-21.721069 21.762695,-65.778076 21.762695,-81.608887c0,-11.594421 -12.329102,-26.386169 -16.321533,-43.523926c-17.500244,20.132507 -34.65332,87.048828 -54.40625,87.048828l-10.881104,0c-12.535156,0 -16.321533,-3.786011 -16.321533,-16.321289c0,-25.565918 45.39209,-104.12207 55.385742,-135.035034c5.017822,-15.524231 25.770996,-143.925049 26.251221,-164.401001l-47.630127,-5.052673l-24.798828,184.570984l-0.000488,-0.000732z" class="fil3" id="_346250352"/>
   <path fill="#cccc33" d="m2388.409912,2513.540039l0,97.930176c0,38.246582 44.525391,126.246826 54.405273,168.657959c16.116943,-8.52832 46.518555,-21.762451 70.727539,-21.762451l38.08374,0l0,-21.762695c0,-47.78418 -2.057861,-123.86377 -11.947266,-162.150879c-4.435791,-17.175293 -9.380615,-53.859619 -22.632813,-64.416016c-6.379883,-5.08252 -56.40332,-29.139893 -63.350098,-29.139893c-1.532471,0 -49.739014,29.02124 -65.286377,32.643555l0,0.000244z" class="fil12" id="_346250424"/>
   <path fill="#d45500" d="m3759.429932,4015.129883c0,-15.657227 78.286377,-98.482422 92.48999,-119.693115l-103.272949,-11.655029c-16.556641,62.415039 -244.73999,111.102051 -299.329102,158.550049l309.713135,46.136963l0.398926,-73.3396l0,0.000732z" class="fil3" id="_346250496"/>
   <path fill="#ff007f" d="m3101.030029,625.216003l98.016846,169.10498c0,-47.343811 1.035156,-75.764771 32.506836,-91.00177l103.50708,9.393982c2.765381,3.979858 11.165527,13.871155 11.934814,16.443787l-6.334717,65.670105l60.93457,-17.222595l-61.644043,-198.321045l-238.921875,45.932739l0.000488,-0.000183z" class="fil13" id="_346250568"/>
   <path fill="#cccc33" d="m2698.52002,2937.899902c-8.46582,101.730957 -63.450195,108.178955 -114.250977,152.335938c6.379883,1.69165 14.829346,5.440186 16.321289,5.440186c42.802002,0 300.285156,-136.109131 364.518066,-141.454102c-8.448486,-36.262939 -23.940674,-76.167725 -70.727539,-76.167725l-32.643555,0c-49.029785,0 -120.685059,56.306885 -163.217041,59.845459l-0.000244,0.000244z" class="fil12" id="_346250640"/>
   <polygon fill="#ff007f" points="1632.15,1060.86 1728.28,1020.07 1781.14,1082.87 1800.72,864.714 1599.72,930.932 " class="fil13" id="_346250712"/>
   <path fill="#cccc33" d="m2611.469971,2780.129883c26.814209,14.188232 57.635254,37.884277 65.286377,70.726563c61.809814,-16.503418 117.792969,-113.656006 147.296143,-168.776855l-11.282227,-43.404541c-17.017334,-1.415771 -19.326904,-5.439941 -38.083984,-5.439941l-5.439941,0c-76.755615,0 -129.724121,93.87793 -157.776123,146.894775l-0.000244,0z" class="fil12" id="_346250784"/>
   <path fill="#660066" d="m2078.290039,2377.52002l136.418945,-158.085938l-114.656006,-146.586182c-7.492188,32.156982 -49.251221,115.710205 -49.111572,141.397217c0.123535,22.708984 21.375,137.631836 27.349121,163.273926l-0.000488,0.000977z" class="fil2" id="_346250856"/>
   <path fill="#cccc33" d="m2187.110107,2703.959961c0,48.033936 16.917969,109.785889 52.512207,127.0271c37.75708,18.288574 87.205811,48.675781 127.025879,57.952148c2.441406,-29.33374 32.643799,-70.428711 32.643799,-70.726563c0,-18.78418 -67.578613,-75.423584 -82.897461,-91.200195c-19.449219,-20.030518 -129.28418,-46.392578 -129.28418,-23.052246l-0.000244,-0.000244z" class="fil12" id="_346250928"/>
   <path fill="#660066" d="m2888.939941,2214.310059c0,6.874512 70.403809,79.546143 80.304688,86.449463l76.254395,-162.249023l-53.188965,-158.14502c-9.767822,41.927734 -103.369873,214.39209 -103.369873,233.944092l-0.000244,0.000488z" class="fil2" id="_346251000"/>
   <path fill="#663300" d="m4379.649902,4727.850098c12.977539,-9.509766 119.691895,-305.831055 119.691895,-337.314941c0,-7.054688 -41.475586,-60.271484 -48.964844,-65.286621l-102.091309,343.145996l31.364746,59.456055l-0.000488,-0.000488z" class="fil14" id="_346251072"/>
   <polygon fill="#663300" points="4809.23,4313.17 4790.77,4244.26 4487.1,4288.09 4539.73,4365.46 " class="fil14" id="_346251144"/>
   <path fill="#7f7f7f" d="m2645.77002,3438.350098c14.453369,-1.259766 97.98999,-36.651611 105.979004,-44.622803c7.248291,-7.230957 41.096924,-97.588867 44.756836,-113.263916l-160.653076,-43.462402l9.91748,201.349121l-0.000244,0z" class="fil15" id="_346251216"/>
   <path fill="#666666" d="m2437.629883,3286.899902c1.330078,18.255859 38.792236,87.904785 48.50708,102.77002c10.090088,15.439453 86.876465,37.267334 114.432129,37.883301l-10.459961,-189.167969l-152.479004,48.514893l-0.000244,-0.000244z" class="fil16" id="_346251288"/>
   <polygon fill="#663300" points="669.204,4341.13 624.032,4427.75 788.881,4428.62 848.039,4433.79 881.489,4347.05 " class="fil14" id="_346251360"/>
   <path fill="#663300" d="m892.250977,4455.819824c0,21.418457 102.134033,246.826172 114.252014,255.706055l38.927185,-64.739746l-122.221985,-260.901367l-9.195435,-0.791992c-5.458435,23.429688 -21.762512,49.361816 -21.762512,70.727539l0.000732,-0.000488z" class="fil14" id="_346251432"/>
   <path fill="#993366" d="m1681.130005,1730.099976c0,42.363525 32.183838,81.608765 70.726563,81.608765c41.625122,0 81.608887,-36.458618 81.608887,-76.167603c0,-43.695557 -36.317993,-76.167725 -81.608887,-76.167725c-33.361816,0 -70.726563,37.364746 -70.726563,70.726563z" class="fil17" id="_346251504"/>
   <path fill="#993366" d="m3335.060059,1327.5c0,39.222168 27.397217,76.167725 65.286377,76.167725l21.762451,0c32.732422,0 65.286377,-39.057373 65.286377,-70.727539c0,-43.212646 -31.765625,-76.167725 -76.167725,-76.167725l-10.881104,0c-30.729492,0 -65.286377,40.068481 -65.286377,70.727539z" class="fil17" id="_346251576"/>
   <path fill="#cccc33" d="m2116.379883,2937.899902l272.935059,93.396973l1.059326,-4.888672l-34.610107,-83.067139c-35.300049,0 -87.403564,-7.025879 -122.946045,-13.068359c-72.620605,-12.345459 -59.098145,2.855957 -116.438965,7.627197l0.000732,0z" class="fil12" id="_346251648"/>
   <path fill="#000000" d="m2546.179932,402.60199l0,5.440125c0,19.787506 185.326904,76.167694 206.740967,76.167694c12.734863,0 21.761475,-9.026733 21.761475,-21.761475l0,-5.441101c0,-24.464203 -177.677002,-62.222321 -206.740967,-76.167725c-11.998291,6.348114 -21.762451,4.746155 -21.762451,21.762512l0.000977,-0.000031z" class="fil0" id="_346251720"/>
   <path fill="#d45500" d="m1534.23999,3944.409912c7.03833,10.512207 39.720459,37.11499 53.096191,50.273926c43.54126,42.838623 10.890869,53.162842 25.165039,78.633301c9.739014,17.375977 126.662964,-36.365234 150.241943,-41.858398l-228.50293,-87.048828l-0.000244,0z" class="fil3" id="_346251792"/>
   <path fill="#000000" d="m2176.219971,516.853027l0,5.440125c0,19.381714 11.956787,14.447632 27.202637,21.762512c21.193848,-18.421692 174.0979,-85.946198 174.0979,-103.369995c0,-12.718414 -7.07666,-27.202606 -21.762451,-27.202606c-17.648682,0 -179.538086,85.511475 -179.538086,103.370026l0,-0.000061z" class="fil0" id="_346251864"/>
   <path fill="#ffffff" d="m1915.329956,2549.189941c23.092651,-7.040283 122.104004,-109.843994 121.607056,-128.455078l-12.650024,-86.790527l-6.569824,-2.837646l-102.386963,218.083008l-0.000244,0.000244z" class="fil10" id="_346251936"/>
   <path fill="#ffffff" d="m3002.929932,2339.330078l119.947998,136.124023c-10.893799,-130.911133 -71.890869,-133.649902 -87.048828,-190.419922l-9.750732,0.486572l-23.148438,53.80957l0,-0.000244z" class="fil10" id="_346252008"/>
   <path fill="#000000" d="m2524.419922,1229.569946c-32.04126,0 -68.463379,-15.544556 -104.209961,-14.81958l114.080078,62.135498l109.821777,-69.078369c-37.807129,0.842407 -87.131592,21.762573 -119.692871,21.762573l0.000977,-0.000122z" class="fil0" id="_346252080"/>
   <path fill="#660066" d="m2448.25,2078.290039l59.846191,81.60791l8.945801,-1.168213l29.138184,-47.796875c-7.381348,-4.941895 -58.960449,-48.965088 -59.846191,-48.965088c-9.007568,0 -30.558105,12.3396 -38.083984,16.322266z" class="fil2" id="_346252152"/>
  </g>
  <path fill="#ff0000" fill-rule="evenodd" stroke="#000000" stroke-width="1px" filter="url(#filter3778)" opacity="0.5" d="m2371.204834,1208.582031a81.499542,31.241486 0 1 1 -162.999268,13.416992a81.499542,31.241486 0 1 1 162.999268,-13.416992z" id="path3772"/>
  <path opacity="0.5" fill="#ff0000" fill-rule="evenodd" stroke="#000000" stroke-width="1px" filter="url(#filter3778)" id="path3782" d="m2845.500977,1178.597778a81.499542,31.241486 0 1 1 -162.999268,13.416992a81.499542,31.241486 0 1 1 162.999268,-13.416992z"/>
 </g>
</svg>