<svg id="Navigation" xmlns="http://www.w3.org/2000/svg" xmlns:xlink="http://www.w3.org/1999/xlink" viewBox="0 0 319.5 566.36"><defs><style>.cls-1,.cls-12,.cls-13,.cls-15,.cls-16,.cls-17,.cls-24,.cls-5,.cls-6{fill:none;}.cls-2{fill:#ededed;}.cls-3{opacity:0.4;}.cls-4{fill:#373f48;}.cls-12,.cls-13,.cls-5,.cls-6{stroke:#ededed;}.cls-12,.cls-13,.cls-15,.cls-16,.cls-17,.cls-24,.cls-5,.cls-6{stroke-miterlimit:10;}.cls-5,.cls-6{stroke-width:2px;}.cls-6{stroke-dasharray:2.9 2.9;}.cls-7{fill:#e8640b;}.cls-8{fill:#cac9c9;}.cls-11,.cls-9{fill:#fff;}.cls-10{clip-path:url(#clip-path);}.cls-11{fill-rule:evenodd;}.cls-12,.cls-13{stroke-width:4px;}.cls-13{stroke-dasharray:3.27 3.27;}.cls-14{opacity:0.33;}.cls-15,.cls-16,.cls-17{stroke:#ed6c1c;stroke-width:3px;}.cls-16{stroke-dasharray:2.78 2.78;}.cls-17{stroke-dasharray:3.09 3.09;}.cls-18{clip-path:url(#clip-path-3);}.cls-19,.cls-20{fill:#000100;}.cls-19{opacity:0.15;}.cls-20{opacity:0.18;}.cls-21{fill:#a3a8b5;}.cls-22{fill:#192645;}.cls-23{fill:#49526b;}.cls-24{stroke:#fff;}</style><clipPath id="clip-path"><rect class="cls-1" x="135.62" y="290.64" width="18.61" height="18.39"/></clipPath><clipPath id="clip-path-3"><rect class="cls-1" x="140.31" y="145.43" width="9.22" height="17.75"/></clipPath></defs><title>recipe-example</title><g id="Links"><circle class="cls-2" cx="144.92" cy="342.97" r="9.43"/><circle class="cls-2" cx="144.92" cy="367.04" r="9.43"/><g class="cls-3"><path class="cls-4" d="M169.74,344.31a1.7,1.7,0,0,0,2.48,0,2.15,2.15,0,0,0,.46-1.45v-3.69h1.12v3.73a3,3,0,0,1-.79,2.21,3,3,0,0,1-4.06,0,3,3,0,0,1-.79-2.21v-3.73h1.12v3.69A2.15,2.15,0,0,0,169.74,344.31Z"/><path class="cls-4" d="M178.12,340.69a2.41,2.41,0,0,1,1.74.71,2.5,2.5,0,0,1,.72,1.88,2.61,2.61,0,0,1-.72,1.91,2.23,2.23,0,0,1-3.4-.1v2.61h-1.07v-6.92h1.07v0.89A1.9,1.9,0,0,1,178.12,340.69Zm-1.67,2.62a1.65,1.65,0,0,0,.44,1.19A1.42,1.42,0,0,0,178,345a1.51,1.51,0,0,0,1.1-.46,1.59,1.59,0,0,0,.47-1.19,1.69,1.69,0,0,0-.46-1.21,1.46,1.46,0,0,0-1.1-.48,1.4,1.4,0,0,0-1.08.48A1.72,1.72,0,0,0,176.45,343.31Z"/><path class="cls-4" d="M182.2,345.19a2.59,2.59,0,0,1-.71-1.91,2.49,2.49,0,0,1,.73-1.89,2.43,2.43,0,0,1,1.75-.71,1.92,1.92,0,0,1,1.63.86v-2.78h1.07v7.07H185.6v-0.76a2,2,0,0,1-1.72.84A2.28,2.28,0,0,1,182.2,345.19Zm0.35-1.86a1.58,1.58,0,0,0,.47,1.19,1.52,1.52,0,0,0,1.1.46,1.41,1.41,0,0,0,1.07-.46,1.65,1.65,0,0,0,.44-1.19,1.74,1.74,0,0,0-.44-1.21,1.4,1.4,0,0,0-1.08-.49,1.45,1.45,0,0,0-1.09.49A1.71,1.71,0,0,0,182.55,343.32Z"/><path class="cls-4" d="M192.31,345.83h-1v-0.68a2.09,2.09,0,0,1-1.69.75,1.94,1.94,0,0,1-1.31-.45,1.5,1.5,0,0,1-.52-1.2,1.26,1.26,0,0,1,.55-1.12,2.65,2.65,0,0,1,1.5-.37h1.38v-0.19a1,1,0,0,0-1.12-1,2.64,2.64,0,0,0-1.47.51l-0.48-.67a3.28,3.28,0,0,1,2.09-.73,2.27,2.27,0,0,1,1.46.45,1.71,1.71,0,0,1,.57,1.42v3.27Zm-1.07-1.89v-0.43H190c-0.77,0-1.15.24-1.15,0.72a0.64,0.64,0,0,0,.29.57,1.4,1.4,0,0,0,.79.19,1.44,1.44,0,0,0,.89-0.29A0.92,0.92,0,0,0,191.25,343.95Z"/><path class="cls-4" d="M195.06,341.62v2.57a0.84,0.84,0,0,0,.19.58,0.68,0.68,0,0,0,.53.21,0.91,0.91,0,0,0,.66-0.33l0.44,0.75a1.82,1.82,0,0,1-1.24.5,1.6,1.6,0,0,1-1.16-.47,1.7,1.7,0,0,1-.48-1.27v-2.54h-0.64v-0.86H194v-1.59h1.07v1.59h1.33v0.86h-1.33Z"/><path class="cls-4" d="M202.44,343.77h-4a1.15,1.15,0,0,0,.5.89,2,2,0,0,0,2.51-.26l0.61,0.67a2.84,2.84,0,0,1-2.13.85,2.54,2.54,0,0,1-1.81-.71,2.5,2.5,0,0,1-.75-1.9,2.46,2.46,0,0,1,.76-1.9,2.56,2.56,0,0,1,1.8-.71,2.6,2.6,0,0,1,1.76.62,2.15,2.15,0,0,1,.72,1.72v0.73Zm-4-.84h2.9a1.22,1.22,0,0,0-.4-1,1.46,1.46,0,0,0-1-.34,1.69,1.69,0,0,0-1.05.36A1.15,1.15,0,0,0,198.47,342.93Z"/><path class="cls-4" d="M210.87,339.76a2.2,2.2,0,0,1,.7,1.79,2.12,2.12,0,0,1-.71,1.77,3.48,3.48,0,0,1-2.18.56h-1.18v2h-1.12v-6.66h2.29A3.43,3.43,0,0,1,210.87,339.76Zm-0.8,2.75a1.47,1.47,0,0,0,.34-1,1.08,1.08,0,0,0-.43-1,2.46,2.46,0,0,0-1.34-.29h-1.14v2.67h1.3A1.74,1.74,0,0,0,210.07,342.5Z"/><path class="cls-4" d="M215.39,341.77a1.41,1.41,0,0,0-1.19.51,2.19,2.19,0,0,0-.4,1.38v2.17h-1.07v-5.07h1.07v1a2.21,2.21,0,0,1,.7-0.78,1.69,1.69,0,0,1,.94-0.31v1.08h-0.06Z"/><path class="cls-4" d="M220.66,345.15a2.78,2.78,0,0,1-3.81,0,2.63,2.63,0,0,1,0-3.71,2.77,2.77,0,0,1,3.81,0A2.63,2.63,0,0,1,220.66,345.15Zm-3.05-.66a1.66,1.66,0,0,0,2.3,0,1.81,1.81,0,0,0,0-2.39,1.66,1.66,0,0,0-2.3,0A1.81,1.81,0,0,0,217.6,344.5Z"/><path class="cls-4" d="M223.87,340.35v0.42h1.33v0.86h-1.33v4.21H222.8v-4.21h-0.64v-0.86h0.64v-0.39a1.7,1.7,0,0,1,.48-1.27,1.6,1.6,0,0,1,1.16-.47,1.82,1.82,0,0,1,1.24.5l-0.44.75a0.91,0.91,0,0,0-.66-0.33,0.68,0.68,0,0,0-.53.21A0.84,0.84,0,0,0,223.87,340.35Z"/><path class="cls-4" d="M226.3,339.76a0.67,0.67,0,1,1,.48.2A0.65,0.65,0,0,1,226.3,339.76Zm1,6.08h-1.07v-5.07h1.07v5.07Z"/><path class="cls-4" d="M229.91,345.83h-1.07v-7.07h1.07v7.07Z"/><path class="cls-4" d="M236.16,343.77h-4a1.15,1.15,0,0,0,.5.89,2,2,0,0,0,2.51-.26l0.61,0.67a2.83,2.83,0,0,1-2.13.85,2.54,2.54,0,0,1-1.81-.71,2.5,2.5,0,0,1-.75-1.9,2.46,2.46,0,0,1,.76-1.9,2.56,2.56,0,0,1,1.8-.71,2.6,2.6,0,0,1,1.76.62,2.15,2.15,0,0,1,.72,1.72v0.73Zm-4-.84h2.91a1.22,1.22,0,0,0-.4-1,1.46,1.46,0,0,0-1-.34,1.69,1.69,0,0,0-1.05.36A1.15,1.15,0,0,0,232.19,342.93Z"/></g><g class="cls-3"><path class="cls-4" d="M169.74,368.39a1.7,1.7,0,0,0,2.48,0,2.15,2.15,0,0,0,.46-1.45v-3.69h1.12V367a3,3,0,0,1-.79,2.21,3,3,0,0,1-4.06,0,3,3,0,0,1-.79-2.21v-3.73h1.12v3.69A2.15,2.15,0,0,0,169.74,368.39Z"/><path class="cls-4" d="M178.12,364.77a2.41,2.41,0,0,1,1.74.71,2.5,2.5,0,0,1,.72,1.88,2.61,2.61,0,0,1-.72,1.91,2.23,2.23,0,0,1-3.4-.1v2.61h-1.07v-6.92h1.07v0.89A1.9,1.9,0,0,1,178.12,364.77Zm-1.67,2.62a1.65,1.65,0,0,0,.44,1.19A1.42,1.42,0,0,0,178,369a1.51,1.51,0,0,0,1.1-.46,1.59,1.59,0,0,0,.47-1.19,1.69,1.69,0,0,0-.46-1.21,1.46,1.46,0,0,0-1.1-.48,1.4,1.4,0,0,0-1.08.48A1.72,1.72,0,0,0,176.45,367.39Z"/><path class="cls-4" d="M182.2,369.27a2.59,2.59,0,0,1-.71-1.91,2.49,2.49,0,0,1,.73-1.89,2.43,2.43,0,0,1,1.75-.71,1.92,1.92,0,0,1,1.63.86v-2.78h1.07v7.07H185.6v-0.76a2,2,0,0,1-1.72.84A2.28,2.28,0,0,1,182.2,369.27Zm0.35-1.86a1.58,1.58,0,0,0,.47,1.19,1.52,1.52,0,0,0,1.1.46,1.41,1.41,0,0,0,1.07-.46,1.65,1.65,0,0,0,.44-1.19,1.74,1.74,0,0,0-.44-1.21,1.4,1.4,0,0,0-1.08-.49,1.45,1.45,0,0,0-1.09.49A1.71,1.71,0,0,0,182.55,367.4Z"/><path class="cls-4" d="M192.31,369.91h-1v-0.68a2.09,2.09,0,0,1-1.69.75,1.94,1.94,0,0,1-1.31-.45,1.5,1.5,0,0,1-.52-1.2,1.26,1.26,0,0,1,.55-1.12,2.65,2.65,0,0,1,1.5-.37h1.38v-0.19a1,1,0,0,0-1.12-1,2.64,2.64,0,0,0-1.47.51l-0.48-.67a3.28,3.28,0,0,1,2.09-.73,2.27,2.27,0,0,1,1.46.45,1.71,1.71,0,0,1,.57,1.42v3.27ZM191.25,368V367.6H190c-0.77,0-1.15.24-1.15,0.72a0.64,0.64,0,0,0,.29.57,1.4,1.4,0,0,0,.79.19,1.44,1.44,0,0,0,.89-0.29A0.92,0.92,0,0,0,191.25,368Z"/><path class="cls-4" d="M195.06,365.7v2.57a0.84,0.84,0,0,0,.19.58,0.68,0.68,0,0,0,.53.21,0.91,0.91,0,0,0,.66-0.33l0.44,0.75a1.82,1.82,0,0,1-1.24.5,1.6,1.6,0,0,1-1.16-.47,1.7,1.7,0,0,1-.48-1.27V365.7h-0.64v-0.86H194v-1.59h1.07v1.59h1.33v0.86h-1.33Z"/><path class="cls-4" d="M202.44,367.85h-4a1.15,1.15,0,0,0,.5.89,2,2,0,0,0,2.51-.26l0.61,0.67A2.84,2.84,0,0,1,200,370a2.54,2.54,0,0,1-1.81-.71,2.5,2.5,0,0,1-.75-1.9,2.46,2.46,0,0,1,.76-1.9,2.56,2.56,0,0,1,1.8-.71,2.6,2.6,0,0,1,1.76.62,2.15,2.15,0,0,1,.72,1.72v0.73Zm-4-.84h2.9a1.22,1.22,0,0,0-.4-1,1.46,1.46,0,0,0-1-.34,1.69,1.69,0,0,0-1.05.36A1.15,1.15,0,0,0,198.47,367Z"/><path class="cls-4" d="M208.39,364.13a1.48,1.48,0,0,0-.81.2,0.67,0.67,0,0,0-.31.6,0.7,0.7,0,0,0,.31.62,4.78,4.78,0,0,0,1.34.46,3.68,3.68,0,0,1,1.54.7A1.65,1.65,0,0,1,211,368a1.75,1.75,0,0,1-.66,1.41,2.62,2.62,0,0,1-1.72.54,4,4,0,0,1-2.77-1.08l0.71-.85a3.17,3.17,0,0,0,2.1.88,1.43,1.43,0,0,0,.86-0.23,0.73,0.73,0,0,0,.32-0.62,0.7,0.7,0,0,0-.3-0.6,3.14,3.14,0,0,0-1-.39,9.19,9.19,0,0,1-1.12-.32,2.49,2.49,0,0,1-.68-0.39,1.61,1.61,0,0,1-.59-1.37,1.67,1.67,0,0,1,.67-1.42,2.7,2.7,0,0,1,1.66-.5,4,4,0,0,1,1.27.21,3.31,3.31,0,0,1,1.09.59l-0.6.85a2.28,2.28,0,0,0-.8-0.44A3.08,3.08,0,0,0,208.39,364.13Z"/><path class="cls-4" d="M213.42,365.7v2.57a0.84,0.84,0,0,0,.19.58,0.68,0.68,0,0,0,.53.21,0.91,0.91,0,0,0,.66-0.33l0.44,0.75a1.82,1.82,0,0,1-1.24.5,1.6,1.6,0,0,1-1.16-.47,1.7,1.7,0,0,1-.48-1.27V365.7h-0.64v-0.86h0.64v-1.59h1.07v1.59h1.33v0.86h-1.33Z"/><path class="cls-4" d="M220.19,369.91h-1v-0.68a2.09,2.09,0,0,1-1.69.75,1.94,1.94,0,0,1-1.31-.45,1.5,1.5,0,0,1-.52-1.2,1.26,1.26,0,0,1,.55-1.12,2.64,2.64,0,0,1,1.5-.37h1.38v-0.19a1,1,0,0,0-1.12-1,2.64,2.64,0,0,0-1.47.51l-0.48-.67a3.28,3.28,0,0,1,2.09-.73,2.28,2.28,0,0,1,1.46.45,1.72,1.72,0,0,1,.57,1.42v3.27ZM219.12,368V367.6h-1.2q-1.15,0-1.15.72a0.64,0.64,0,0,0,.29.57,1.39,1.39,0,0,0,.79.19,1.44,1.44,0,0,0,.89-0.29A0.92,0.92,0,0,0,219.12,368Z"/><path class="cls-4" d="M222.93,365.7v2.57a0.84,0.84,0,0,0,.19.58,0.68,0.68,0,0,0,.53.21,0.91,0.91,0,0,0,.66-0.33l0.44,0.75a1.82,1.82,0,0,1-1.24.5,1.6,1.6,0,0,1-1.16-.47,1.7,1.7,0,0,1-.48-1.27V365.7h-0.64v-0.86h0.64v-1.59h1.07v1.59h1.33v0.86h-1.33Z"/><path class="cls-4" d="M229.14,367.59v-2.74h1.07v5.07h-1.07V369a2,2,0,0,1-3.07.48,2,2,0,0,1-.53-1.51v-3.11h1.07v2.78a1.14,1.14,0,0,0,1.16,1.4,1.39,1.39,0,0,0,1-.37A1.36,1.36,0,0,0,229.14,367.59Z"/><path class="cls-4" d="M235.36,368.4a1.43,1.43,0,0,1-.52,1.16,2,2,0,0,1-1.34.43,3.58,3.58,0,0,1-1.15-.2,3.44,3.44,0,0,1-1.05-.56l0.51-.83a2.88,2.88,0,0,0,1.71.67,0.9,0.9,0,0,0,.57-0.17,0.52,0.52,0,0,0,.21-0.42,1.15,1.15,0,0,0-1-.69l-0.11,0q-1.58-.43-1.58-1.43a1.36,1.36,0,0,1,.55-1.13,2.26,2.26,0,0,1,1.42-.42,3,3,0,0,1,1.66.51l-0.4.79a2.39,2.39,0,0,0-1.34-.41,1.23,1.23,0,0,0-.62.14,0.45,0.45,0,0,0-.24.42,0.38,0.38,0,0,0,.25.36,2.32,2.32,0,0,0,.48.16l0.55,0.15,0.46,0.17a3,3,0,0,1,.48.27A1.19,1.19,0,0,1,235.36,368.4Z"/></g><line class="cls-2" x1="144.92" y1="163.5" x2="144.92" y2="221.65"/><line class="cls-5" x1="144.92" y1="163.5" x2="144.92" y2="165"/><line class="cls-6" x1="144.92" y1="167.9" x2="144.92" y2="218.69"/><line class="cls-5" x1="144.92" y1="220.15" x2="144.92" y2="221.65"/><line class="cls-2" x1="145.65" y1="308.42" x2="145.65" y2="366.57"/><line class="cls-5" x1="145.65" y1="308.42" x2="145.65" y2="309.92"/><line class="cls-6" x1="145.65" y1="312.82" x2="145.65" y2="363.62"/><line class="cls-5" x1="145.65" y1="365.07" x2="145.65" y2="366.57"/><circle class="cls-7" cx="69.51" cy="298.54" r="32.51"/><circle class="cls-8" cx="144.33" cy="299.84" r="22.99"/><g class="cls-3"><path class="cls-4" d="M184,292.22h2.88v12.92H184V292.22Z"/><path class="cls-4" d="M192.45,299.59v5.54h-2.77v-9.94h2.77v1.11a3.88,3.88,0,0,1,2.83-1.28,3.5,3.5,0,0,1,2.63,1.11,4.1,4.1,0,0,1,1.06,3v6H196.2v-5.62q0-2.29-1.68-2.29a2,2,0,0,0-1.45.6A2.35,2.35,0,0,0,192.45,299.59Z"/><path class="cls-4" d="M209,302a2.9,2.9,0,0,1-1.08,2.36,4.18,4.18,0,0,1-2.74.89,7.35,7.35,0,0,1-2.31-.4,6.81,6.81,0,0,1-2.16-1.17l1.22-1.74a5.31,5.31,0,0,0,3.31,1.2,1.5,1.5,0,0,0,.85-0.21,0.65,0.65,0,0,0,.31-0.56,0.81,0.81,0,0,0-.44-0.65,4.9,4.9,0,0,0-1.26-.55c-0.55-.17-1-0.32-1.26-0.44a7,7,0,0,1-1-.54,2.29,2.29,0,0,1-1.13-2.08,2.73,2.73,0,0,1,1.11-2.25,4.51,4.51,0,0,1,2.86-.87,6.25,6.25,0,0,1,3.51,1.18l-1,1.85a4.54,4.54,0,0,0-2.58-.89q-1.28,0-1.28.7a0.68,0.68,0,0,0,.41.61,8.17,8.17,0,0,0,1.35.52q0.94,0.3,1.34.45a6.62,6.62,0,0,1,1,.49A2.26,2.26,0,0,1,209,302Z"/><path class="cls-4" d="M214.33,297.19v4.45a1.28,1.28,0,0,0,.3.9,0.92,0.92,0,0,0,.7.32,1.6,1.6,0,0,0,1.31-.7l1,1.94a4,4,0,0,1-2.73,1.18,3.31,3.31,0,0,1-3.41-3.51v-4.58h-1.17v-2h1.17v-3h2.79v3h2.4v2h-2.4Z"/><path class="cls-4" d="M227.6,305.14H225v-1.2a3.27,3.27,0,0,1-2.65,1.35,4,4,0,0,1-2.65-.91,3,3,0,0,1-1.07-2.44,2.58,2.58,0,0,1,1.11-2.28,5.31,5.31,0,0,1,3-.76h2.07v-0.06a1.45,1.45,0,0,0-1.68-1.59,4.55,4.55,0,0,0-1.52.29,5,5,0,0,0-1.36.71L219,296.45a7.42,7.42,0,0,1,4.47-1.42,4.63,4.63,0,0,1,3,.91,3.43,3.43,0,0,1,1.15,2.86v6.34Zm-2.79-3.79v-0.48h-1.74q-1.66,0-1.66,1a1,1,0,0,0,.4.82,1.93,1.93,0,0,0,1.14.29,2,2,0,0,0,1.3-.45A1.47,1.47,0,0,0,224.81,301.35Z"/><path class="cls-4" d="M237.48,303.45a4.21,4.21,0,0,1-3.26,1.46,4.5,4.5,0,0,1-3.29-1.32,4.73,4.73,0,0,1-1.34-3.53,5,5,0,0,1,1.38-3.62,4.28,4.28,0,0,1,3.15-1.41,3.6,3.6,0,0,1,2.94,1.46v-1.31h2.77v8.67a5.76,5.76,0,0,1-.46,2.37,4.1,4.1,0,0,1-1.24,1.63,5.65,5.65,0,0,1-3.62,1.22,7.57,7.57,0,0,1-2.26-.36,6.45,6.45,0,0,1-2-1l1.07-2.09a4.72,4.72,0,0,0,2.89,1,3.59,3.59,0,0,0,2.41-.76A3,3,0,0,0,237.48,303.45ZM237.1,300a2.58,2.58,0,0,0-.67-1.88,2.21,2.21,0,0,0-1.65-.68,2.36,2.36,0,0,0-1.69.68,2.47,2.47,0,0,0-.71,1.87,2.66,2.66,0,0,0,.69,1.91,2.24,2.24,0,0,0,1.69.73,2.17,2.17,0,0,0,1.66-.72A2.71,2.71,0,0,0,237.1,300Z"/><path class="cls-4" d="M247.68,297.63a2.1,2.1,0,0,0-1.85.88,4,4,0,0,0-.61,2.32v4.31h-2.77v-9.94h2.77v1.31a4.66,4.66,0,0,1,1.34-1,3.64,3.64,0,0,1,1.63-.44l0,2.61h-0.54Z"/><path class="cls-4" d="M258.4,305.14H255.8v-1.2a3.26,3.26,0,0,1-2.65,1.35,3.94,3.94,0,0,1-2.65-.91,3,3,0,0,1-1.07-2.44,2.58,2.58,0,0,1,1.11-2.28,5.3,5.3,0,0,1,3-.76h2.07v-0.06a1.45,1.45,0,0,0-1.68-1.59,4.56,4.56,0,0,0-1.52.29,5,5,0,0,0-1.36.71l-1.24-1.79A7.42,7.42,0,0,1,254.3,295a4.62,4.62,0,0,1,3,.91,3.43,3.43,0,0,1,1.15,2.86v6.34Zm-2.79-3.79v-0.48h-1.74q-1.66,0-1.66,1a1,1,0,0,0,.4.82,1.93,1.93,0,0,0,1.14.29,2,2,0,0,0,1.3-.45A1.47,1.47,0,0,0,255.61,301.35Z"/><path class="cls-4" d="M270.06,299.78v5.36h-2.79V299.7a3.26,3.26,0,0,0-.36-1.74,1.28,1.28,0,0,0-1.16-.55,2,2,0,0,0-1.42.6,2.34,2.34,0,0,0-.62,1.76v5.36h-2.77v-9.94h2.77v1.13a3.43,3.43,0,0,1,2.62-1.29,2.85,2.85,0,0,1,1.71.55,3.61,3.61,0,0,1,1.16,1.35,3.9,3.9,0,0,1,1.54-1.4,4.22,4.22,0,0,1,1.95-.5,3.88,3.88,0,0,1,2.83,1,4,4,0,0,1,1.07,3v6H273.8V299.7q0-2.29-1.68-2.29a2,2,0,0,0-1.44.6A2.37,2.37,0,0,0,270.06,299.78Z"/></g><path class="cls-9" d="M52.89,296.11v9H50.4v-9H47.23V294h8.83v2.16H52.89Z"/><path class="cls-9" d="M64.83,294h2.5v11.18h-2.5v-4.4H60.38v4.4h-2.5V294h2.5v4.67h4.45V294Z"/><path class="cls-9" d="M78.14,294v2.22H72.57v2.3h5v2.13h-5v2.32h5.74v2.21H70.08V294h8.06Z"/><path class="cls-9" d="M88.36,294h2.5v11.18h-2.5l-5.33-7v7h-2.5V294h2.34l5.49,7.2V294Z"/><g id="Vector_Smart_Object" data-name="Vector Smart Object"><g class="cls-10"><g class="cls-10"><path class="cls-11" d="M138.23,290.64h13.46a2.77,2.77,0,0,1,2.54,2.58v13.3a2.7,2.7,0,0,1-2.54,2.51H138.23a2.77,2.77,0,0,1-2.61-2.51v-13.3a2.84,2.84,0,0,1,2.61-2.58m13.6,3.18A0.81,0.81,0,0,0,151,293h-2a0.81,0.81,0,0,0-.82.81v1.95a0.81,0.81,0,0,0,.82.81h2a0.81,0.81,0,0,0,.82-0.81v-1.95Zm0,4.53h-1.45a6.26,6.26,0,0,1,.23,1.61,5.63,5.63,0,0,1-11.26,0,6.13,6.13,0,0,1,.23-1.59H138v7.7a0.55,0.55,0,0,0,.62.61h12.61a0.53,0.53,0,0,0,.58-0.61v-7.7Zm-6.85-2a3.49,3.49,0,1,0,3.64,3.48,3.56,3.56,0,0,0-3.64-3.48"/></g></g></g><circle class="cls-7" cx="69.51" cy="153.01" r="32.51"/><circle class="cls-8" cx="144.33" cy="154.3" r="22.99"/><circle class="cls-2" cx="144.92" cy="197.43" r="9.43"/><circle class="cls-2" cx="144.92" cy="221.51" r="9.43"/><g class="cls-3"><path class="cls-4" d="M192.85,146.68v2.53h-6V152h5.69v2.53h-5.69v5.06H184V146.68h8.87Z"/><path class="cls-4" d="M203.19,159.6h-2.61v-1.2a3.27,3.27,0,0,1-2.65,1.35,4,4,0,0,1-2.65-.91,3,3,0,0,1-1.07-2.44,2.58,2.58,0,0,1,1.11-2.28,5.3,5.3,0,0,1,3-.76h2.07V153.3a1.45,1.45,0,0,0-1.68-1.59,4.55,4.55,0,0,0-1.52.29,5,5,0,0,0-1.36.71l-1.24-1.79a7.42,7.42,0,0,1,4.47-1.42,4.63,4.63,0,0,1,3,.91,3.43,3.43,0,0,1,1.15,2.86v6.34Zm-2.79-3.79v-0.48h-1.74q-1.66,0-1.66,1a1,1,0,0,0,.4.82,1.93,1.93,0,0,0,1.14.29,2,2,0,0,0,1.3-.45A1.47,1.47,0,0,0,200.39,155.81Z"/><path class="cls-4" d="M210.48,157.29a3.18,3.18,0,0,0,2.5-1.39l1.64,1.85a5.72,5.72,0,0,1-4.16,2,5.39,5.39,0,0,1-3.78-1.41,5.2,5.2,0,0,1,0-7.41,5.3,5.3,0,0,1,3.71-1.43,5.77,5.77,0,0,1,2.17.44,5.49,5.49,0,0,1,1.93,1.31l-1.44,1.88a3.27,3.27,0,0,0-1.17-.89,3.31,3.31,0,0,0-1.38-.31,2.7,2.7,0,0,0-1.88.71,2.53,2.53,0,0,0-.79,2,2.51,2.51,0,0,0,.79,2A2.67,2.67,0,0,0,210.48,157.29Z"/><path class="cls-4" d="M225.08,158.16a5.56,5.56,0,0,1-3.95,1.59,5.24,5.24,0,0,1-3.74-1.39,4.9,4.9,0,0,1-1.48-3.74,4.83,4.83,0,0,1,1.51-3.73,5.08,5.08,0,0,1,3.56-1.39,5.15,5.15,0,0,1,3.48,1.24,4.26,4.26,0,0,1,1.43,3.4v1.48h-7.24a2,2,0,0,0,.85,1.33,2.72,2.72,0,0,0,1.63.52,3.19,3.19,0,0,0,2.4-1Zm-2.66-5.9a2.1,2.1,0,0,0-1.4-.48,2.5,2.5,0,0,0-1.51.5,1.91,1.91,0,0,0-.79,1.35h4.36A2,2,0,0,0,222.42,152.26Z"/><path class="cls-4" d="M233.62,149.49a4.23,4.23,0,0,1,3.16,1.41,5,5,0,0,1,1.35,3.63,5.26,5.26,0,0,1-1.39,3.71,4.2,4.2,0,0,1-3.15,1.5,3.6,3.6,0,0,1-2.93-1.46v1.31h-2.77V145.89h2.77v4.88A3.79,3.79,0,0,1,233.62,149.49Zm-3,5.15a2.88,2.88,0,0,0,.67,2,2.1,2.1,0,0,0,1.63.77,2.24,2.24,0,0,0,1.68-.77,2.76,2.76,0,0,0,.72-2,3,3,0,0,0-.7-2,2.15,2.15,0,0,0-1.68-.81,2.08,2.08,0,0,0-1.65.8A3,3,0,0,0,230.63,154.64Z"/><path class="cls-4" d="M250.14,154.63a4.92,4.92,0,0,1-1.5,3.64,5.52,5.52,0,0,1-7.52,0,5.19,5.19,0,0,1,0-7.29,5.5,5.5,0,0,1,7.52,0A5,5,0,0,1,250.14,154.63Zm-7.72,0a2.85,2.85,0,0,0,.69,2,2.44,2.44,0,0,0,3.55,0,2.85,2.85,0,0,0,.69-2,2.88,2.88,0,0,0-.69-2,2.41,2.41,0,0,0-3.55,0A2.88,2.88,0,0,0,242.42,154.63Z"/><path class="cls-4" d="M262.14,154.63a4.92,4.92,0,0,1-1.5,3.64,5.52,5.52,0,0,1-7.52,0,5.19,5.19,0,0,1,0-7.29,5.5,5.5,0,0,1,7.52,0A5,5,0,0,1,262.14,154.63Zm-7.72,0a2.85,2.85,0,0,0,.69,2,2.44,2.44,0,0,0,3.55,0,2.85,2.85,0,0,0,.69-2,2.88,2.88,0,0,0-.69-2,2.41,2.41,0,0,0-3.55,0A2.88,2.88,0,0,0,254.41,154.63Z"/><path class="cls-4" d="M267,159.6h-2.77V145.89H267v7l3.09-3.29h3.49l-3.79,4,3.94,5.93h-3.29l-2.53-3.81-0.91.94v2.86Z"/></g><g class="cls-3"><path class="cls-4" d="M173.56,195.8a1.93,1.93,0,0,1-1.44,2.08l1.74,2.42h-1.43l-1.59-2.24h-1.48v2.24h-1.12v-6.66h2.48a3.59,3.59,0,0,1,2.18.51A2,2,0,0,1,173.56,195.8Zm-1.5.94a1.19,1.19,0,0,0,.34-0.95,1,1,0,0,0-.35-0.9,2.35,2.35,0,0,0-1.26-.24h-1.43V197h1.4A2.06,2.06,0,0,0,172.06,196.74Z"/><path class="cls-4" d="M179.74,198.23h-4a1.15,1.15,0,0,0,.5.89,2,2,0,0,0,2.51-.26l0.61,0.67a2.84,2.84,0,0,1-2.13.85,2.54,2.54,0,0,1-1.81-.71,2.5,2.5,0,0,1-.75-1.9,2.46,2.46,0,0,1,.76-1.9,2.56,2.56,0,0,1,1.8-.71,2.6,2.6,0,0,1,1.76.62,2.15,2.15,0,0,1,.72,1.72v0.73Zm-4-.84h2.9a1.22,1.22,0,0,0-.4-1,1.46,1.46,0,0,0-1-.34,1.69,1.69,0,0,0-1.05.36A1.15,1.15,0,0,0,175.77,197.39Z"/><path class="cls-4" d="M185,200.29h-1v-0.68a2.09,2.09,0,0,1-1.69.75,1.93,1.93,0,0,1-1.31-.45,1.5,1.5,0,0,1-.52-1.2,1.26,1.26,0,0,1,.55-1.12,2.64,2.64,0,0,1,1.5-.37H184V197a1,1,0,0,0-1.12-1,2.64,2.64,0,0,0-1.47.51l-0.48-.67a3.29,3.29,0,0,1,2.1-.73,2.28,2.28,0,0,1,1.46.45A1.72,1.72,0,0,1,185,197v3.27ZM184,198.41V198h-1.2q-1.15,0-1.15.72a0.65,0.65,0,0,0,.29.57,1.4,1.4,0,0,0,.8.19,1.44,1.44,0,0,0,.89-0.29A0.92,0.92,0,0,0,184,198.41Z"/><path class="cls-4" d="M186.89,199.65a2.59,2.59,0,0,1-.71-1.91,2.5,2.5,0,0,1,.73-1.89,2.44,2.44,0,0,1,1.75-.71,1.92,1.92,0,0,1,1.63.86v-2.78h1.07v7.07h-1.07v-0.76a2,2,0,0,1-1.72.84A2.28,2.28,0,0,1,186.89,199.65Zm0.35-1.86a1.59,1.59,0,0,0,.47,1.19,1.51,1.51,0,0,0,1.1.46,1.41,1.41,0,0,0,1.07-.46,1.66,1.66,0,0,0,.44-1.19,1.75,1.75,0,0,0-.44-1.21,1.4,1.4,0,0,0-1.08-.49,1.45,1.45,0,0,0-1.1.49A1.71,1.71,0,0,0,187.25,197.79Z"/><path class="cls-4" d="M200.16,194.22a2.2,2.2,0,0,1,.7,1.79,2.12,2.12,0,0,1-.71,1.77,3.47,3.47,0,0,1-2.18.56h-1.18v2h-1.12v-6.66H198A3.43,3.43,0,0,1,200.16,194.22Zm-0.8,2.75a1.46,1.46,0,0,0,.34-1,1.09,1.09,0,0,0-.43-1,2.47,2.47,0,0,0-1.34-.29h-1.14v2.67h1.3A1.74,1.74,0,0,0,199.36,197Z"/><path class="cls-4" d="M204.69,196.23a1.42,1.42,0,0,0-1.19.51,2.2,2.2,0,0,0-.4,1.38v2.17H202v-5.07h1.07v1a2.21,2.21,0,0,1,.7-0.78,1.69,1.69,0,0,1,.94-0.31v1.08h-0.06Z"/><path class="cls-4" d="M210,199.61a2.78,2.78,0,0,1-3.81,0,2.63,2.63,0,0,1,0-3.71,2.77,2.77,0,0,1,3.81,0A2.63,2.63,0,0,1,210,199.61ZM206.9,199a1.66,1.66,0,0,0,2.29,0,1.81,1.81,0,0,0,0-2.39,1.66,1.66,0,0,0-2.29,0A1.8,1.8,0,0,0,206.9,199Z"/><path class="cls-4" d="M213.16,194.81v0.42h1.33v0.86h-1.33v4.21H212.1v-4.21h-0.64v-0.86h0.64v-0.39a1.7,1.7,0,0,1,.48-1.27,1.6,1.6,0,0,1,1.16-.47,1.82,1.82,0,0,1,1.24.5l-0.44.75a0.9,0.9,0,0,0-.66-0.33,0.68,0.68,0,0,0-.53.21A0.84,0.84,0,0,0,213.16,194.81Z"/><path class="cls-4" d="M215.59,194.22a0.67,0.67,0,1,1,.48.2A0.64,0.64,0,0,1,215.59,194.22Zm1,6.08h-1.07v-5.07h1.07v5.07Z"/><path class="cls-4" d="M219.2,200.29h-1.07v-7.07h1.07v7.07Z"/><path class="cls-4" d="M225.46,198.23h-4a1.15,1.15,0,0,0,.5.89,2,2,0,0,0,2.51-.26l0.61,0.67a2.83,2.83,0,0,1-2.13.85,2.54,2.54,0,0,1-1.81-.71,2.5,2.5,0,0,1-.75-1.9,2.46,2.46,0,0,1,.76-1.9,2.56,2.56,0,0,1,1.79-.71,2.6,2.6,0,0,1,1.76.62,2.15,2.15,0,0,1,.72,1.72v0.73Zm-4-.84h2.91a1.22,1.22,0,0,0-.4-1,1.47,1.47,0,0,0-1-.34,1.69,1.69,0,0,0-1.05.36A1.16,1.16,0,0,0,221.49,197.39Z"/></g><g class="cls-3"><path class="cls-4" d="M173.56,219.88a1.93,1.93,0,0,1-1.44,2.08l1.74,2.42h-1.43l-1.59-2.24h-1.48v2.24h-1.12v-6.66h2.48a3.59,3.59,0,0,1,2.18.51A2,2,0,0,1,173.56,219.88Zm-1.5.94a1.19,1.19,0,0,0,.34-0.95,1,1,0,0,0-.35-0.9,2.35,2.35,0,0,0-1.26-.24h-1.43v2.38h1.4A2.06,2.06,0,0,0,172.06,220.82Z"/><path class="cls-4" d="M179.74,222.31h-4a1.15,1.15,0,0,0,.5.89,2,2,0,0,0,2.51-.26l0.61,0.67a2.84,2.84,0,0,1-2.13.85,2.54,2.54,0,0,1-1.81-.71,2.5,2.5,0,0,1-.75-1.9,2.46,2.46,0,0,1,.76-1.9,2.56,2.56,0,0,1,1.8-.71,2.6,2.6,0,0,1,1.76.62,2.15,2.15,0,0,1,.72,1.72v0.73Zm-4-.84h2.9a1.22,1.22,0,0,0-.4-1,1.46,1.46,0,0,0-1-.34,1.69,1.69,0,0,0-1.05.36A1.15,1.15,0,0,0,175.77,221.47Z"/><path class="cls-4" d="M185,224.38h-1V223.7a2.09,2.09,0,0,1-1.69.75,1.93,1.93,0,0,1-1.31-.45,1.5,1.5,0,0,1-.52-1.2,1.26,1.26,0,0,1,.55-1.12,2.64,2.64,0,0,1,1.5-.37H184v-0.19a1,1,0,0,0-1.12-1,2.64,2.64,0,0,0-1.47.51l-0.48-.67a3.29,3.29,0,0,1,2.1-.73,2.28,2.28,0,0,1,1.46.45,1.72,1.72,0,0,1,.57,1.42v3.27ZM184,222.49v-0.43h-1.2q-1.15,0-1.15.72a0.65,0.65,0,0,0,.29.57,1.4,1.4,0,0,0,.8.19,1.44,1.44,0,0,0,.89-0.29A0.92,0.92,0,0,0,184,222.49Z"/><path class="cls-4" d="M186.89,223.73a2.59,2.59,0,0,1-.71-1.91,2.5,2.5,0,0,1,.73-1.89,2.44,2.44,0,0,1,1.75-.71,1.92,1.92,0,0,1,1.63.86v-2.78h1.07v7.07h-1.07v-0.76a2,2,0,0,1-1.72.84A2.28,2.28,0,0,1,186.89,223.73Zm0.35-1.86a1.59,1.59,0,0,0,.47,1.19,1.51,1.51,0,0,0,1.1.46,1.41,1.41,0,0,0,1.07-.46,1.66,1.66,0,0,0,.44-1.19,1.75,1.75,0,0,0-.44-1.21,1.4,1.4,0,0,0-1.08-.49,1.45,1.45,0,0,0-1.1.49A1.71,1.71,0,0,0,187.25,221.87Z"/><path class="cls-4" d="M197.68,218.59a1.47,1.47,0,0,0-.8.2,0.67,0.67,0,0,0-.31.6,0.7,0.7,0,0,0,.31.62,4.77,4.77,0,0,0,1.34.46,3.66,3.66,0,0,1,1.54.7,1.65,1.65,0,0,1,.52,1.32,1.75,1.75,0,0,1-.66,1.41,2.62,2.62,0,0,1-1.72.54,4,4,0,0,1-2.77-1.08l0.71-.85a3.17,3.17,0,0,0,2.09.88,1.43,1.43,0,0,0,.86-0.23,0.73,0.73,0,0,0,.32-0.62,0.7,0.7,0,0,0-.3-0.6,3.15,3.15,0,0,0-1-.39,9.16,9.16,0,0,1-1.11-.32,2.48,2.48,0,0,1-.68-0.39,1.61,1.61,0,0,1-.59-1.37,1.67,1.67,0,0,1,.67-1.42,2.7,2.7,0,0,1,1.66-.5,4,4,0,0,1,1.27.21,3.32,3.32,0,0,1,1.09.59l-0.6.85a2.27,2.27,0,0,0-.8-0.44A3.09,3.09,0,0,0,197.68,218.59Z"/><path class="cls-4" d="M202.71,220.17v2.57a0.84,0.84,0,0,0,.19.58,0.68,0.68,0,0,0,.53.21,0.91,0.91,0,0,0,.66-0.33l0.44,0.75a1.82,1.82,0,0,1-1.24.5,1.6,1.6,0,0,1-1.16-.47,1.7,1.7,0,0,1-.48-1.27v-2.54H201v-0.86h0.64v-1.59h1.07v1.59H204v0.86h-1.33Z"/><path class="cls-4" d="M209.49,224.38h-1V223.7a2.09,2.09,0,0,1-1.69.75,1.93,1.93,0,0,1-1.31-.45,1.5,1.5,0,0,1-.52-1.2,1.26,1.26,0,0,1,.55-1.12,2.64,2.64,0,0,1,1.5-.37h1.38v-0.19a1,1,0,0,0-1.12-1,2.64,2.64,0,0,0-1.47.51l-0.48-.67a3.29,3.29,0,0,1,2.1-.73,2.28,2.28,0,0,1,1.46.45,1.72,1.72,0,0,1,.57,1.42v3.27Zm-1.07-1.89v-0.43h-1.2q-1.15,0-1.15.72a0.65,0.65,0,0,0,.29.57,1.4,1.4,0,0,0,.8.19,1.44,1.44,0,0,0,.89-0.29A0.92,0.92,0,0,0,208.42,222.49Z"/><path class="cls-4" d="M212.23,220.17v2.57a0.84,0.84,0,0,0,.19.58,0.68,0.68,0,0,0,.53.21,0.91,0.91,0,0,0,.66-0.33l0.44,0.75a1.82,1.82,0,0,1-1.24.5,1.6,1.6,0,0,1-1.16-.47,1.7,1.7,0,0,1-.48-1.27v-2.54h-0.64v-0.86h0.64v-1.59h1.07v1.59h1.33v0.86h-1.33Z"/><path class="cls-4" d="M218.44,222.05v-2.74h1.07v5.07h-1.07v-0.92a2,2,0,0,1-3.07.48,2,2,0,0,1-.53-1.51v-3.11h1.07v2.78a1.14,1.14,0,0,0,1.16,1.4,1.39,1.39,0,0,0,1-.37A1.36,1.36,0,0,0,218.44,222.05Z"/><path class="cls-4" d="M224.66,222.86a1.42,1.42,0,0,1-.52,1.16,2,2,0,0,1-1.34.43,3.58,3.58,0,0,1-1.15-.2,3.43,3.43,0,0,1-1.05-.56l0.51-.83a2.88,2.88,0,0,0,1.71.67,0.9,0.9,0,0,0,.57-0.17,0.52,0.52,0,0,0,.21-0.42,1.15,1.15,0,0,0-1-.69l-0.11,0q-1.58-.43-1.58-1.43a1.36,1.36,0,0,1,.55-1.13,2.26,2.26,0,0,1,1.42-.42,3,3,0,0,1,1.66.51l-0.4.79a2.39,2.39,0,0,0-1.34-.41,1.23,1.23,0,0,0-.62.14,0.45,0.45,0,0,0-.24.42,0.38,0.38,0,0,0,.25.36,2.35,2.35,0,0,0,.48.16l0.55,0.15,0.46,0.17a3,3,0,0,1,.48.27A1.19,1.19,0,0,1,224.66,222.86Z"/></g><path class="cls-9" d="M66.67,149.88a5.24,5.24,0,0,1,1.6,4.07,5.5,5.5,0,0,1-1.56,4.13,6.59,6.59,0,0,1-4.76,1.52H58.12V148.42h4A6.56,6.56,0,0,1,66.67,149.88Zm-1.83,6.65a3.28,3.28,0,0,0,.92-2.51,3.36,3.36,0,0,0-.92-2.54,3.93,3.93,0,0,0-2.82-.89H60.62v6.8H62.2A3.7,3.7,0,0,0,64.84,156.53Z"/><path class="cls-9" d="M79.84,158.05a6.09,6.09,0,0,1-8.35,0,5.85,5.85,0,0,1,0-8.24,6.09,6.09,0,0,1,8.35,0A5.85,5.85,0,0,1,79.84,158.05ZM79,153.94a3.66,3.66,0,0,0-1-2.55,3.17,3.17,0,0,0-4.72,0,3.86,3.86,0,0,0,0,5.1,3.18,3.18,0,0,0,4.72,0A3.63,3.63,0,0,0,79,153.94Z"/><circle class="cls-7" cx="69.51" cy="66.3" r="32.51"/><g class="cls-3"><path class="cls-4" d="M193.19,72.89L192,70.1h-5.42l-1.2,2.79H182.3L187.88,60h2.79l5.58,12.92h-3.07Zm-3.9-9.07-1.63,3.75h3.23Z"/><path class="cls-4" d="M206.65,61.13A4.4,4.4,0,0,1,208,64.68a4.2,4.2,0,0,1-1.4,3.5,6.78,6.78,0,0,1-4.26,1.11h-1.72v3.6h-2.88V60h4.56A6.63,6.63,0,0,1,206.65,61.13Zm-2.12,5.08a2.48,2.48,0,0,0,.52-1.7,1.8,1.8,0,0,0-.67-1.59,3.71,3.71,0,0,0-2.1-.47h-1.64v4.34h1.94A2.57,2.57,0,0,0,204.53,66.21Z"/><path class="cls-4" d="M210.26,60h2.88V72.89h-2.88V60Z"/><path class="cls-4" d="M227.13,70.34a4.25,4.25,0,0,0,3.47-1.68l1.85,1.9a7,7,0,0,1-10.1.59,6.83,6.83,0,0,1,0-9.55,6.63,6.63,0,0,1,4.81-1.92,6.82,6.82,0,0,1,5.32,2.42l-1.79,2a4.2,4.2,0,0,0-3.4-1.7,4,4,0,0,0-2.78,1.06,3.7,3.7,0,0,0-1.15,2.86,3.91,3.91,0,0,0,1.09,2.89A3.6,3.6,0,0,0,227.13,70.34Z"/><path class="cls-4" d="M242.79,72.89h-2.61v-1.2A3.26,3.26,0,0,1,237.53,73a3.94,3.94,0,0,1-2.65-.91,3,3,0,0,1-1.07-2.44,2.58,2.58,0,0,1,1.11-2.28,5.3,5.3,0,0,1,3-.76H240V66.59A1.45,1.45,0,0,0,238.33,65a4.56,4.56,0,0,0-1.52.29,5,5,0,0,0-1.36.71l-1.24-1.79a7.42,7.42,0,0,1,4.47-1.42,4.62,4.62,0,0,1,3,.91,3.43,3.43,0,0,1,1.15,2.86v6.34ZM240,69.11V68.62h-1.74q-1.66,0-1.66,1a1,1,0,0,0,.4.82,1.93,1.93,0,0,0,1.14.29,2,2,0,0,0,1.3-.45A1.47,1.47,0,0,0,240,69.11Z"/><path class="cls-4" d="M248.09,72.89h-2.77V59.18h2.77V72.89Z"/><path class="cls-4" d="M253.49,72.89h-2.77V59.18h2.77V72.89Z"/></g><path class="cls-9" d="M63.36,61.71h2.5V72.89h-2.5V61.71Z"/><path class="cls-9" d="M76.29,61.71V63.9H71.11v2.42H76v2.19H71.11v4.38h-2.5V61.71h7.68Z"/><line class="cls-12" x1="102.02" y1="153.01" x2="103.52" y2="153.01"/><line class="cls-13" x1="106.78" y1="153.01" x2="118.21" y2="153.01"/><line class="cls-12" x1="119.85" y1="153.01" x2="121.35" y2="153.01"/><g class="cls-14"><line class="cls-2" x1="69.51" y1="98.01" x2="69.51" y2="120.5"/><line class="cls-15" x1="69.51" y1="98.01" x2="69.51" y2="99.51"/><line class="cls-16" x1="69.51" y1="102.29" x2="69.51" y2="117.61"/><line class="cls-15" x1="69.51" y1="119" x2="69.51" y2="120.5"/></g><g class="cls-14"><line class="cls-2" x1="69.51" y1="185.76" x2="69.51" y2="266.04"/><line class="cls-15" x1="69.51" y1="185.76" x2="69.51" y2="187.26"/><line class="cls-17" x1="69.51" y1="190.35" x2="69.51" y2="262.99"/><line class="cls-15" x1="69.51" y1="264.54" x2="69.51" y2="266.04"/></g><line class="cls-12" x1="102.02" y1="299.84" x2="103.52" y2="299.84"/><line class="cls-13" x1="106.78" y1="299.84" x2="118.21" y2="299.84"/><line class="cls-12" x1="119.85" y1="299.84" x2="121.35" y2="299.84"/><line class="cls-2" x1="146.91" y1="454.33" x2="146.91" y2="512.48"/><line class="cls-5" x1="146.91" y1="454.33" x2="146.91" y2="455.83"/><line class="cls-6" x1="146.91" y1="458.73" x2="146.91" y2="509.53"/><line class="cls-5" x1="146.91" y1="510.98" x2="146.91" y2="512.48"/><circle class="cls-2" cx="146.91" cy="488.27" r="9.43"/><circle class="cls-2" cx="146.91" cy="512.34" r="9.43"/><g class="cls-3"><path class="cls-4" d="M171.72,489.6a1.7,1.7,0,0,0,2.48,0,2.15,2.15,0,0,0,.46-1.45v-3.69h1.12v3.73a3,3,0,0,1-.79,2.21,3,3,0,0,1-4.06,0,3,3,0,0,1-.79-2.21v-3.73h1.12v3.69A2.15,2.15,0,0,0,171.72,489.6Z"/><path class="cls-4" d="M180.1,486a2.41,2.41,0,0,1,1.74.71,2.5,2.5,0,0,1,.72,1.88,2.61,2.61,0,0,1-.72,1.91,2.23,2.23,0,0,1-3.4-.1V493h-1.07v-6.92h1.07v0.89A1.9,1.9,0,0,1,180.1,486Zm-1.67,2.62a1.66,1.66,0,0,0,.44,1.19,1.42,1.42,0,0,0,1.07.46,1.52,1.52,0,0,0,1.1-.46,1.59,1.59,0,0,0,.47-1.19,1.69,1.69,0,0,0-.46-1.21,1.46,1.46,0,0,0-1.1-.48,1.4,1.4,0,0,0-1.08.48A1.72,1.72,0,0,0,178.44,488.6Z"/><path class="cls-4" d="M184.18,490.48a2.59,2.59,0,0,1-.71-1.91,2.49,2.49,0,0,1,.73-1.89,2.43,2.43,0,0,1,1.75-.71,1.92,1.92,0,0,1,1.63.86v-2.78h1.07v7.07h-1.07v-0.76a2,2,0,0,1-1.72.84A2.28,2.28,0,0,1,184.18,490.48Zm0.35-1.86a1.59,1.59,0,0,0,.47,1.19,1.51,1.51,0,0,0,1.1.46,1.41,1.41,0,0,0,1.07-.46,1.65,1.65,0,0,0,.44-1.19,1.74,1.74,0,0,0-.44-1.21,1.4,1.4,0,0,0-1.08-.49,1.45,1.45,0,0,0-1.1.49A1.71,1.71,0,0,0,184.53,488.62Z"/><path class="cls-4" d="M194.3,491.13h-1v-0.68a2.09,2.09,0,0,1-1.69.75,1.94,1.94,0,0,1-1.31-.45,1.5,1.5,0,0,1-.52-1.2,1.26,1.26,0,0,1,.55-1.12,2.64,2.64,0,0,1,1.5-.37h1.38v-0.19a1,1,0,0,0-1.12-1,2.64,2.64,0,0,0-1.47.51l-0.48-.67a3.29,3.29,0,0,1,2.1-.73,2.28,2.28,0,0,1,1.46.45,1.71,1.71,0,0,1,.57,1.42v3.27Zm-1.07-1.89v-0.43H192q-1.15,0-1.15.72a0.65,0.65,0,0,0,.29.57,1.4,1.4,0,0,0,.79.19,1.44,1.44,0,0,0,.89-0.29A0.92,0.92,0,0,0,193.23,489.24Z"/><path class="cls-4" d="M197,486.92v2.57a0.84,0.84,0,0,0,.19.58,0.68,0.68,0,0,0,.53.21,0.91,0.91,0,0,0,.66-0.33l0.44,0.75a1.82,1.82,0,0,1-1.24.5,1.6,1.6,0,0,1-1.16-.47,1.7,1.7,0,0,1-.48-1.27v-2.54h-0.64v-0.86H196v-1.59H197v1.59h1.33v0.86H197Z"/><path class="cls-4" d="M204.42,489.06h-4a1.15,1.15,0,0,0,.5.89,2,2,0,0,0,2.51-.26l0.61,0.67a2.83,2.83,0,0,1-2.13.85,2.54,2.54,0,0,1-1.81-.71,2.5,2.5,0,0,1-.75-1.9,2.46,2.46,0,0,1,.76-1.9,2.56,2.56,0,0,1,1.79-.71,2.6,2.6,0,0,1,1.76.62,2.15,2.15,0,0,1,.72,1.72v0.73Zm-4-.84h2.91a1.22,1.22,0,0,0-.4-1,1.46,1.46,0,0,0-1-.34,1.69,1.69,0,0,0-1.05.36A1.15,1.15,0,0,0,200.45,488.22Z"/><path class="cls-4" d="M212.85,485a2.2,2.2,0,0,1,.7,1.79,2.12,2.12,0,0,1-.71,1.77,3.48,3.48,0,0,1-2.18.56h-1.18v2h-1.12v-6.66h2.29A3.42,3.42,0,0,1,212.85,485Zm-0.79,2.75a1.47,1.47,0,0,0,.34-1,1.08,1.08,0,0,0-.43-1,2.47,2.47,0,0,0-1.34-.29h-1.14v2.67h1.3A1.74,1.74,0,0,0,212.05,487.8Z"/><path class="cls-4" d="M217.37,487.06a1.42,1.42,0,0,0-1.19.51,2.19,2.19,0,0,0-.4,1.38v2.17h-1.07v-5.07h1.07v1a2.2,2.2,0,0,1,.7-0.78,1.69,1.69,0,0,1,.94-0.31v1.08h-0.06Z"/><path class="cls-4" d="M222.64,490.45a2.78,2.78,0,0,1-3.81,0,2.63,2.63,0,0,1,0-3.71,2.77,2.77,0,0,1,3.81,0A2.63,2.63,0,0,1,222.64,490.45Zm-3.05-.66a1.66,1.66,0,0,0,2.3,0,1.81,1.81,0,0,0,0-2.39,1.66,1.66,0,0,0-2.3,0A1.81,1.81,0,0,0,219.59,489.79Z"/><path class="cls-4" d="M225.85,485.64v0.42h1.33v0.86h-1.33v4.21h-1.07v-4.21h-0.64v-0.86h0.64v-0.39a1.7,1.7,0,0,1,.48-1.27,1.6,1.6,0,0,1,1.16-.47,1.82,1.82,0,0,1,1.24.5l-0.44.75a0.91,0.91,0,0,0-.66-0.33,0.68,0.68,0,0,0-.53.21A0.84,0.84,0,0,0,225.85,485.64Z"/><path class="cls-4" d="M228.28,485a0.67,0.67,0,1,1,.48.2A0.65,0.65,0,0,1,228.28,485Zm1,6.08h-1.07v-5.07h1.07v5.07Z"/><path class="cls-4" d="M231.89,491.13h-1.07v-7.07h1.07v7.07Z"/><path class="cls-4" d="M238.15,489.06h-4a1.15,1.15,0,0,0,.5.89,2,2,0,0,0,2.51-.26l0.61,0.67a2.83,2.83,0,0,1-2.13.85,2.54,2.54,0,0,1-1.81-.71,2.5,2.5,0,0,1-.75-1.9,2.46,2.46,0,0,1,.76-1.9,2.56,2.56,0,0,1,1.8-.71,2.6,2.6,0,0,1,1.76.62,2.15,2.15,0,0,1,.72,1.72v0.73Zm-4-.84h2.9a1.22,1.22,0,0,0-.4-1,1.46,1.46,0,0,0-1-.34,1.69,1.69,0,0,0-1.05.36A1.15,1.15,0,0,0,234.18,488.22Z"/></g><g class="cls-3"><path class="cls-4" d="M171.72,513.68a1.7,1.7,0,0,0,2.48,0,2.15,2.15,0,0,0,.46-1.45v-3.69h1.12v3.73a3,3,0,0,1-.79,2.21,3,3,0,0,1-4.06,0,3,3,0,0,1-.79-2.21v-3.73h1.12v3.69A2.15,2.15,0,0,0,171.72,513.68Z"/><path class="cls-4" d="M180.1,510.06a2.41,2.41,0,0,1,1.74.71,2.5,2.5,0,0,1,.72,1.88,2.61,2.61,0,0,1-.72,1.91,2.23,2.23,0,0,1-3.4-.1v2.61h-1.07v-6.92h1.07V511A1.9,1.9,0,0,1,180.1,510.06Zm-1.67,2.62a1.66,1.66,0,0,0,.44,1.19,1.42,1.42,0,0,0,1.07.46,1.52,1.52,0,0,0,1.1-.46,1.59,1.59,0,0,0,.47-1.19,1.69,1.69,0,0,0-.46-1.21A1.46,1.46,0,0,0,180,511a1.4,1.4,0,0,0-1.08.48A1.72,1.72,0,0,0,178.44,512.68Z"/><path class="cls-4" d="M184.18,514.56a2.59,2.59,0,0,1-.71-1.91,2.49,2.49,0,0,1,.73-1.89,2.43,2.43,0,0,1,1.75-.71,1.92,1.92,0,0,1,1.63.86v-2.78h1.07v7.07h-1.07v-0.76a2,2,0,0,1-1.72.84A2.28,2.28,0,0,1,184.18,514.56Zm0.35-1.86a1.59,1.59,0,0,0,.47,1.19,1.51,1.51,0,0,0,1.1.46,1.41,1.41,0,0,0,1.07-.46,1.65,1.65,0,0,0,.44-1.19,1.74,1.74,0,0,0-.44-1.21,1.4,1.4,0,0,0-1.08-.49,1.45,1.45,0,0,0-1.1.49A1.71,1.71,0,0,0,184.53,512.7Z"/><path class="cls-4" d="M194.3,515.21h-1v-0.68a2.09,2.09,0,0,1-1.69.75,1.94,1.94,0,0,1-1.31-.45,1.5,1.5,0,0,1-.52-1.2,1.26,1.26,0,0,1,.55-1.12,2.64,2.64,0,0,1,1.5-.37h1.38V512a1,1,0,0,0-1.12-1,2.64,2.64,0,0,0-1.47.51l-0.48-.67a3.29,3.29,0,0,1,2.1-.73,2.28,2.28,0,0,1,1.46.45,1.71,1.71,0,0,1,.57,1.42v3.27Zm-1.07-1.89v-0.43H192q-1.15,0-1.15.72a0.65,0.65,0,0,0,.29.57,1.4,1.4,0,0,0,.79.19,1.44,1.44,0,0,0,.89-0.29A0.92,0.92,0,0,0,193.23,513.32Z"/><path class="cls-4" d="M197,511v2.57a0.84,0.84,0,0,0,.19.58,0.68,0.68,0,0,0,.53.21,0.91,0.91,0,0,0,.66-0.33l0.44,0.75a1.82,1.82,0,0,1-1.24.5,1.6,1.6,0,0,1-1.16-.47,1.7,1.7,0,0,1-.48-1.27V511h-0.64v-0.86H196v-1.59H197v1.59h1.33V511H197Z"/><path class="cls-4" d="M204.42,513.14h-4a1.15,1.15,0,0,0,.5.89,2,2,0,0,0,2.51-.26l0.61,0.67a2.83,2.83,0,0,1-2.13.85,2.54,2.54,0,0,1-1.81-.71,2.5,2.5,0,0,1-.75-1.9,2.46,2.46,0,0,1,.76-1.9,2.56,2.56,0,0,1,1.79-.71,2.6,2.6,0,0,1,1.76.62,2.15,2.15,0,0,1,.72,1.72v0.73Zm-4-.84h2.91a1.22,1.22,0,0,0-.4-1,1.46,1.46,0,0,0-1-.34,1.69,1.69,0,0,0-1.05.36A1.15,1.15,0,0,0,200.45,512.3Z"/><path class="cls-4" d="M210.37,509.43a1.48,1.48,0,0,0-.81.2,0.67,0.67,0,0,0-.31.6,0.7,0.7,0,0,0,.31.62,4.77,4.77,0,0,0,1.34.46,3.68,3.68,0,0,1,1.54.7,1.65,1.65,0,0,1,.52,1.32,1.75,1.75,0,0,1-.66,1.41,2.62,2.62,0,0,1-1.72.54,4,4,0,0,1-2.77-1.08l0.71-.85a3.17,3.17,0,0,0,2.09.88,1.43,1.43,0,0,0,.86-0.23,0.73,0.73,0,0,0,.32-0.62,0.7,0.7,0,0,0-.3-0.6,3.14,3.14,0,0,0-1-.39,9.22,9.22,0,0,1-1.11-.32,2.48,2.48,0,0,1-.68-0.39,1.61,1.61,0,0,1-.59-1.37,1.67,1.67,0,0,1,.67-1.42,2.7,2.7,0,0,1,1.66-.5,4,4,0,0,1,1.27.21,3.31,3.31,0,0,1,1.09.59l-0.6.85a2.27,2.27,0,0,0-.8-0.44A3.09,3.09,0,0,0,210.37,509.43Z"/><path class="cls-4" d="M215.4,511v2.57a0.84,0.84,0,0,0,.19.58,0.68,0.68,0,0,0,.53.21,0.91,0.91,0,0,0,.66-0.33l0.44,0.75a1.82,1.82,0,0,1-1.24.5,1.6,1.6,0,0,1-1.16-.47,1.7,1.7,0,0,1-.48-1.27V511H213.7v-0.86h0.64v-1.59h1.07v1.59h1.33V511H215.4Z"/><path class="cls-4" d="M222.17,515.21h-1v-0.68a2.08,2.08,0,0,1-1.69.75,1.94,1.94,0,0,1-1.31-.45,1.5,1.5,0,0,1-.52-1.2,1.26,1.26,0,0,1,.55-1.12,2.64,2.64,0,0,1,1.5-.37h1.38V512a1,1,0,0,0-1.12-1,2.64,2.64,0,0,0-1.47.51l-0.48-.67a3.28,3.28,0,0,1,2.09-.73,2.28,2.28,0,0,1,1.46.45,1.72,1.72,0,0,1,.57,1.42v3.27Zm-1.07-1.89v-0.43h-1.2q-1.15,0-1.15.72a0.64,0.64,0,0,0,.29.57,1.4,1.4,0,0,0,.8.19,1.44,1.44,0,0,0,.89-0.29A0.92,0.92,0,0,0,221.11,513.32Z"/><path class="cls-4" d="M224.92,511v2.57a0.84,0.84,0,0,0,.19.58,0.68,0.68,0,0,0,.53.21,0.91,0.91,0,0,0,.66-0.33l0.44,0.75a1.82,1.82,0,0,1-1.24.5,1.6,1.6,0,0,1-1.16-.47,1.7,1.7,0,0,1-.48-1.27V511h-0.64v-0.86h0.64v-1.59h1.07v1.59h1.33V511h-1.33Z"/><path class="cls-4" d="M231.13,512.88v-2.74h1.07v5.07h-1.07v-0.92a2,2,0,0,1-3.07.48,2,2,0,0,1-.53-1.51v-3.11h1.07v2.78a1.14,1.14,0,0,0,1.16,1.4,1.39,1.39,0,0,0,1-.37A1.36,1.36,0,0,0,231.13,512.88Z"/><path class="cls-4" d="M237.35,513.69a1.43,1.43,0,0,1-.52,1.16,2,2,0,0,1-1.34.43,3.58,3.58,0,0,1-1.15-.2,3.43,3.43,0,0,1-1.05-.56l0.51-.83a2.87,2.87,0,0,0,1.71.67,0.9,0.9,0,0,0,.57-0.17,0.52,0.52,0,0,0,.21-0.42,1.15,1.15,0,0,0-1-.69l-0.11,0q-1.58-.43-1.58-1.43a1.36,1.36,0,0,1,.55-1.13,2.26,2.26,0,0,1,1.42-.42,3,3,0,0,1,1.66.51l-0.4.79a2.39,2.39,0,0,0-1.34-.41,1.23,1.23,0,0,0-.62.14,0.45,0.45,0,0,0-.24.42,0.38,0.38,0,0,0,.25.36,2.35,2.35,0,0,0,.48.16l0.55,0.15,0.46,0.17a3,3,0,0,1,.48.27A1.19,1.19,0,0,1,237.35,513.69Z"/></g><circle class="cls-7" cx="71.49" cy="443.84" r="32.51"/><circle class="cls-8" cx="146.32" cy="445.13" r="22.99"/><g class="cls-3"><path class="cls-4" d="M191.44,440v10.42h-2.88V440H184.9v-2.49h10.2V440h-3.66Z"/><path class="cls-4" d="M201,450.43h-2.86l-3.38-9.94h2.86l1.94,6,1.94-6h2.68l1.94,6,1.94-6h2.88l-3.38,9.94h-2.88L202.82,445Z"/><path class="cls-4" d="M212.7,439.22a1.65,1.65,0,1,1,1.16.47A1.57,1.57,0,0,1,212.7,439.22Zm2.54,11.21h-2.77v-9.94h2.77v9.94Z"/><path class="cls-4" d="M221.17,442.48v4.45a1.28,1.28,0,0,0,.3.9,0.92,0.92,0,0,0,.7.32,1.6,1.6,0,0,0,1.31-.7l1,1.94a4,4,0,0,1-2.73,1.18,3.31,3.31,0,0,1-3.41-3.51v-4.58h-1.17v-2h1.17v-3h2.79v3h2.4v2h-2.4Z"/><path class="cls-4" d="M229.3,442.48v4.45a1.28,1.28,0,0,0,.3.9,0.92,0.92,0,0,0,.7.32,1.6,1.6,0,0,0,1.31-.7l1,1.94a4,4,0,0,1-2.73,1.18,3.31,3.31,0,0,1-3.41-3.51v-4.58h-1.17v-2h1.17v-3h2.79v3h2.4v2h-2.4Z"/><path class="cls-4" d="M242.74,449a5.56,5.56,0,0,1-3.95,1.59,5.24,5.24,0,0,1-3.74-1.39,4.9,4.9,0,0,1-1.48-3.74,4.83,4.83,0,0,1,1.51-3.73,5.08,5.08,0,0,1,3.56-1.39,5.15,5.15,0,0,1,3.48,1.24,4.26,4.26,0,0,1,1.43,3.4v1.48h-7.24a2,2,0,0,0,.85,1.33,2.72,2.72,0,0,0,1.63.52,3.19,3.19,0,0,0,2.4-1Zm-2.66-5.9a2.1,2.1,0,0,0-1.4-.48,2.5,2.5,0,0,0-1.51.5,1.91,1.91,0,0,0-.79,1.35h4.36A2,2,0,0,0,240.08,443.09Z"/><path class="cls-4" d="M250.78,442.93a2.1,2.1,0,0,0-1.85.88,4,4,0,0,0-.61,2.32v4.31h-2.77v-9.94h2.77v1.31a4.67,4.67,0,0,1,1.34-1,3.65,3.65,0,0,1,1.64-.44l0,2.61h-0.54Z"/></g><path class="cls-9" d="M54.88,441.41v9h-2.5v-9H49.21v-2.16H58v2.16H54.88Z"/><path class="cls-9" d="M66.81,439.25h2.5v11.18h-2.5V446H62.36v4.4h-2.5V439.25h2.5v4.67h4.45v-4.67Z"/><path class="cls-9" d="M80.12,439.25v2.22H74.56v2.3h5v2.13h-5v2.32H80.3v2.21H72.06V439.25h8.06Z"/><path class="cls-9" d="M90.35,439.25h2.5v11.18h-2.5l-5.33-7v7h-2.5V439.25h2.34l5.49,7.2v-7.2Z"/><g class="cls-14"><line class="cls-2" x1="71.49" y1="331.05" x2="71.49" y2="411.33"/><line class="cls-15" x1="71.49" y1="331.05" x2="71.49" y2="332.55"/><line class="cls-17" x1="71.49" y1="335.64" x2="71.49" y2="408.29"/><line class="cls-15" x1="71.49" y1="409.83" x2="71.49" y2="411.33"/></g><line class="cls-12" x1="104" y1="445.13" x2="105.5" y2="445.13"/><line class="cls-13" x1="108.77" y1="445.13" x2="120.2" y2="445.13"/><line class="cls-12" x1="121.83" y1="445.13" x2="123.33" y2="445.13"/><g id="Vector_Smart_Object-2" data-name="Vector Smart Object"><g class="cls-18"><g class="cls-18"><path class="cls-9" d="M149.53,148.37h-1.67a1.31,1.31,0,0,0-1.56,1.54v2h3.12L149,155.08H146.3v8.09H143v-8.09h-2.72v-3.16H143V149.6a3.8,3.8,0,0,1,4.06-4.17,22.26,22.26,0,0,1,2.44.13v2.82h0Z"/></g></g></g><path class="cls-9" d="M157.57,438.52a8.74,8.74,0,0,1-2.51.69,4.38,4.38,0,0,0,1.92-2.42,8.77,8.77,0,0,1-2.78,1.06,4.38,4.38,0,0,0-7.46,4,12.43,12.43,0,0,1-9-4.57,4.38,4.38,0,0,0,1.35,5.84,4.36,4.36,0,0,1-2-.55,4.38,4.38,0,0,0,3.51,4.35,4.39,4.39,0,0,1-2,.07,4.38,4.38,0,0,0,4.09,3,8.8,8.8,0,0,1-6.48,1.81,12.45,12.45,0,0,0,19.15-11.05A8.91,8.91,0,0,0,157.57,438.52Z"/><path class="cls-19" d="M142.58,371.39h-0.72v-8.7h0.72v8.7Zm6.52-7.75a2.28,2.28,0,0,1-1.36.52c-1.22,0-1.25-1-2.66-1a3,3,0,0,0-1.78.61v4.38a3.26,3.26,0,0,1,1.78-.61c1.34,0,1.52,1,2.71,1a2.09,2.09,0,0,0,1.3-.49v-4.36Z"/><path class="cls-19" d="M144,516.73h-0.72V508H144v8.7Zm6.52-7.75a2.28,2.28,0,0,1-1.36.52c-1.22,0-1.25-1-2.66-1a3,3,0,0,0-1.78.61v4.38a3.26,3.26,0,0,1,1.78-.61c1.34,0,1.52,1,2.71,1a2.09,2.09,0,0,0,1.3-.49V509Z"/><path class="cls-19" d="M142,226.39H141.3v-8.7H142v8.7Zm6.52-7.75a2.28,2.28,0,0,1-1.36.52c-1.22,0-1.25-1-2.66-1a3,3,0,0,0-1.78.61v4.38a3.26,3.26,0,0,1,1.78-.61c1.34,0,1.52,1,2.71,1a2.09,2.09,0,0,0,1.3-.49v-4.36Z"/><path class="cls-20" d="M150.46,490.63c-1.39-.32-2.67-0.6-2.05-1.78,1.9-3.59.5-5.51-1.5-5.51s-3.41,2-1.5,5.51c0.64,1.19-.69,1.47-2.05,1.78s-1.28.9-1.28,2V493h9.66v-0.39C151.74,491.53,151.7,490.92,150.46,490.63Z"/><path class="cls-20" d="M148.48,344.79c-1.39-.32-2.67-0.6-2.05-1.78,1.9-3.59.5-5.51-1.5-5.51s-3.41,2-1.5,5.51c0.64,1.19-.69,1.47-2.05,1.78s-1.28.9-1.28,2v0.4h9.66v-0.39C149.76,345.69,149.72,345.07,148.48,344.79Z"/><path class="cls-20" d="M148.48,199.79c-1.39-.32-2.67-0.6-2.05-1.78,1.9-3.59.5-5.51-1.5-5.51s-3.41,2-1.5,5.51c0.64,1.19-.69,1.47-2.05,1.78s-1.28.9-1.28,2v0.4h9.66v-0.39C149.76,200.69,149.72,200.07,148.48,199.79Z"/><path class="cls-21" d="M167.5,81.3H122.35A1.38,1.38,0,0,1,121,79.93V49.37A1.38,1.38,0,0,1,122.35,48H167.5a1.38,1.38,0,0,1,1.38,1.38V79.93A1.38,1.38,0,0,1,167.5,81.3Z"/><path class="cls-22" d="M165.84,78.83H124a0.55,0.55,0,0,1-.55-0.55V51a0.55,0.55,0,0,1,.55-0.55h41.84a0.55,0.55,0,0,1,.55.55V78.28A0.55,0.55,0,0,1,165.84,78.83Z"/><rect class="cls-23" x="137.49" y="81.3" width="14.87" height="3.85"/><path class="cls-22" d="M154.56,86a0.83,0.83,0,0,1-.83.83H136.11a0.83,0.83,0,0,1-.83-0.83h0a0.83,0.83,0,0,1,.83-0.83h17.62a0.83,0.83,0,0,1,.83.83h0Z"/><polyline class="cls-24" points="141.62 64.92 143.73 67.36 149.51 61.12"/></g></svg>