<?xml version="1.0" encoding="utf-8"?>
<!-- Generator: Adobe Illustrator 19.2.1, SVG Export Plug-In . SVG Version: 6.00 Build 0)  -->
<svg version="1.1" id="Warstwa_1" xmlns="http://www.w3.org/2000/svg" xmlns:xlink="http://www.w3.org/1999/xlink" x="0px" y="0px"
	 viewBox="0 0 600 600" style="enable-background:new 0 0 600 600;" xml:space="preserve">
<style type="text/css">
	.st0{fill:#C52425;stroke:#F0F0F0;stroke-width:14.0149;stroke-miterlimit:10;}
	.st1{fill:none;stroke:#FFFFFF;stroke-width:6;stroke-miterlimit:10;}
	.st2{fill:#FFFFFF;}
</style>
<path class="st0" d="M476.4,376.8H168.6c-34.7,0-63.1-28.4-63.1-63.1v0c0-34.7,28.4-63.1,63.1-63.1h307.8
	c34.7,0,63.1,28.4,63.1,63.1v0C539.5,348.4,511.1,376.8,476.4,376.8z"/>
<path class="st0" d="M161.4,312"/>
<g>
	<g>
		<polygon class="st1" points="153.5,264.5 123.8,326 184,338.5 191.5,282.5 179.3,269.8 		"/>
		<polygon class="st2" points="175,270 174.6,271.2 171.8,280 191.3,284.4 179.3,269.8 		"/>
	</g>
	<rect x="149.5" y="290.1" transform="matrix(0.978 0.2086 -0.2086 0.978 64.7066 -28.3082)" class="st2" width="34.1" height="5"/>
	<rect x="144.9" y="300.8" transform="matrix(0.978 0.2086 -0.2086 0.978 66.8497 -27.3723)" class="st2" width="36.7" height="5"/>
	
		<rect x="139.2" y="311.7" transform="matrix(0.978 0.2086 -0.2086 0.978 69.2148 -26.342)" class="st2" width="40.6" height="6.5"/>
</g>
<g>
	<path class="st2" d="M224.3,345.1v-42.5h9.3v4.7c2.6-3.5,6-5.3,10.2-5.3c1.9,0,3.8,0.4,5.5,1.1c1.8,0.7,3.3,1.8,4.7,3.2
		s2.5,3.2,3.3,5.3c0.8,2.2,1.3,4.6,1.3,7.2v0.1c0,2.6-0.4,5.1-1.2,7.2c-0.8,2.2-1.9,4-3.3,5.3s-3,2.5-4.7,3.2
		c-1.8,0.7-3.6,1.1-5.6,1.1c-4.1,0-7.5-1.6-10.2-4.9v14H224.3z M241.4,328c2.2,0,4.1-0.8,5.7-2.5c1.5-1.7,2.3-3.8,2.3-6.5v-0.1
		c0-2.6-0.8-4.8-2.3-6.5c-1.5-1.7-3.4-2.5-5.7-2.5c-2.2,0-4.1,0.8-5.6,2.5c-1.5,1.7-2.3,3.8-2.3,6.5v0.1c0,2.7,0.8,4.8,2.3,6.5
		C237.3,327.2,239.2,328,241.4,328z"/>
	<path class="st2" d="M281.5,336.1c-3.3,0-6.3-0.8-9-2.3c-2.7-1.5-4.8-3.6-6.3-6.1c-1.5-2.6-2.3-5.4-2.3-8.5V319
		c0-2.3,0.5-4.5,1.4-6.6c0.9-2.1,2.1-3.9,3.7-5.4c1.6-1.5,3.4-2.7,5.6-3.6c2.2-0.9,4.6-1.3,7.1-1.3c3.3,0,6.3,0.8,9,2.3
		c2.7,1.5,4.8,3.5,6.3,6.1c1.5,2.6,2.3,5.4,2.3,8.5v0.1c0,3.1-0.8,6-2.3,8.6c-1.5,2.6-3.7,4.7-6.4,6.2
		C287.9,335.3,284.8,336.1,281.5,336.1z M281.6,328c2.6,0,4.6-0.9,6.2-2.6c1.5-1.7,2.3-3.8,2.3-6.3V319c0-2.5-0.8-4.6-2.4-6.4
		c-1.6-1.8-3.7-2.7-6.2-2.7c-2.6,0-4.6,0.9-6.2,2.6c-1.5,1.7-2.3,3.8-2.3,6.3v0.1c0,2.5,0.8,4.6,2.4,6.4
		C277.1,327.2,279.1,328,281.6,328z"/>
	<path class="st2" d="M317.4,335.9c-2.4,0-4.8-0.4-7.3-1.2c-2.4-0.8-4.7-2-6.8-3.7l4-6.1c3.6,2.6,7,3.9,10.3,3.9
		c1.3,0,2.3-0.2,3-0.7c0.7-0.4,1-1,1-1.8v-0.1c0-0.2,0-0.4-0.1-0.6c-0.1-0.2-0.2-0.4-0.3-0.6c-0.2-0.2-0.3-0.3-0.5-0.5
		c-0.2-0.1-0.4-0.3-0.7-0.4c-0.3-0.1-0.6-0.3-0.8-0.4s-0.6-0.2-1-0.4s-0.8-0.2-1-0.3c-0.3-0.1-0.7-0.2-1.1-0.3
		c-0.5-0.1-0.9-0.3-1.2-0.3c-1.1-0.3-2-0.6-2.8-0.9c-0.8-0.3-1.7-0.7-2.6-1.3c-0.9-0.5-1.7-1.1-2.3-1.8c-0.6-0.7-1.1-1.5-1.5-2.5
		c-0.4-1-0.6-2.1-0.6-3.3v-0.1c0-3.2,1.1-5.8,3.4-7.6c2.3-1.8,5.1-2.8,8.5-2.8c2.1,0,4.2,0.3,6.3,1c2.2,0.7,4.1,1.6,5.9,2.8
		l-3.5,6.4c-3.5-2-6.4-3-8.9-3c-1.1,0-1.9,0.2-2.5,0.6s-0.9,1-0.9,1.6v0.1c0,0.5,0.3,1,0.8,1.4c0.6,0.4,1.2,0.8,1.9,1.1
		c0.7,0.3,1.7,0.6,2.9,1.1c0.4,0.1,0.8,0.2,1,0.3c1.1,0.4,2,0.7,2.8,1c0.8,0.3,1.7,0.8,2.6,1.3c1,0.6,1.7,1.2,2.3,1.8
		s1.1,1.4,1.5,2.4s0.6,2,0.6,3.2v0.1c0,3.5-1.2,6.1-3.5,7.9C324.2,335,321.1,335.9,317.4,335.9z"/>
	<path class="st2" d="M347,335.8c-3.1,0-5.4-0.7-7.1-2.2c-1.6-1.5-2.5-4-2.5-7.6v-15.5h-3.9v-8h3.9v-8.3h9.3v8.3h7.7v8h-7.7v14
		c0,1.1,0.2,1.9,0.7,2.4c0.5,0.5,1.2,0.8,2.3,0.8c1.7,0,3.2-0.4,4.6-1.2v7.5C352.2,335.2,349.8,335.8,347,335.8z"/>
	<path class="st2" d="M361.3,335.3v-32.7h9.3v6.6c2.1-5,5.5-7.4,10.4-7.2v9.7h-0.5c-3.2,0-5.6,1-7.3,2.9c-1.7,1.9-2.6,4.8-2.6,8.6
		v12.1H361.3z"/>
	<path class="st2" d="M401.4,336.1c-4.9,0-9-1.6-12.2-4.7s-4.8-7.2-4.8-12.2V319c0-3.1,0.7-5.9,2-8.5c1.4-2.6,3.3-4.6,5.8-6.2
		c2.5-1.5,5.3-2.3,8.4-2.3c2.6,0,5,0.5,7.1,1.5s3.7,2.3,5,4c1.3,1.7,2.2,3.6,2.9,5.6c0.6,2.1,1,4.3,1,6.7c0,0.5,0,1.3-0.1,2.4h-22.8
		c0.5,2.1,1.4,3.7,2.8,4.8s3.1,1.6,5.2,1.6c1.5,0,2.9-0.3,4.2-0.8c1.2-0.5,2.5-1.4,3.8-2.6l5.3,4.7C411.5,334,407,336.1,401.4,336.1
		z M393.4,316.4h14c-0.3-2.1-1-3.8-2.2-5.1c-1.2-1.3-2.8-1.9-4.7-1.9c-1.9,0-3.4,0.6-4.7,1.9C394.6,312.5,393.7,314.2,393.4,316.4z"
		/>
	<path class="st2" d="M423.3,345.1v-42.5h9.3v4.7c2.6-3.5,6-5.3,10.2-5.3c1.9,0,3.8,0.4,5.5,1.1c1.8,0.7,3.3,1.8,4.7,3.2
		s2.5,3.2,3.3,5.3c0.8,2.2,1.3,4.6,1.3,7.2v0.1c0,2.6-0.4,5.1-1.2,7.2s-1.9,4-3.3,5.3s-3,2.5-4.7,3.2s-3.6,1.1-5.6,1.1
		c-4.1,0-7.5-1.6-10.2-4.9v14H423.3z M440.4,328c2.2,0,4.1-0.8,5.7-2.5s2.3-3.8,2.3-6.5v-0.1c0-2.6-0.8-4.8-2.3-6.5
		c-1.5-1.7-3.4-2.5-5.7-2.5c-2.2,0-4.1,0.8-5.6,2.5s-2.3,3.8-2.3,6.5v0.1c0,2.7,0.8,4.8,2.3,6.5S438.2,328,440.4,328z"/>
	<path class="st2" d="M464.9,335.3v-44.6h9.3v44.6H464.9z"/>
	<path class="st2" d="M490.7,345.3c-2.9,0-5.7-0.8-8.2-2.3l3.1-6.7c1.4,0.9,2.7,1.3,4,1.3c0.8,0,1.4-0.2,1.9-0.5
		c0.5-0.3,0.9-0.9,1.3-1.7l-12.8-32.8h9.8l7.5,22.3l7.1-22.3h9.7l-12.6,33.5c-1.3,3.4-2.7,5.7-4.3,7.1
		C495.6,344.6,493.4,345.3,490.7,345.3z"/>
</g>
<g>
	<g>
		<g>
			<polyline class="st1" points="132.2,337.3 191.2,351.8 199,293.8 187.7,281 			"/>
		</g>
		
			<rect x="132.7" y="330.2" transform="matrix(0.978 0.2086 -0.2086 0.978 72.9848 -20.883)" class="st2" width="5.7" height="10.8"/>
	</g>
	<rect x="190.8" y="288.5" transform="matrix(0.978 0.2086 -0.2086 0.978 65.1883 -34.0994)" class="st2" width="7" height="7"/>
</g>
</svg>
