<?xml version="1.0" encoding="utf-8"?>
<!-- Generator: Adobe Illustrator 18.0.0, SVG Export Plug-In . SVG Version: 6.00 Build 0)  -->
<!DOCTYPE svg PUBLIC "-//W3C//DTD SVG 1.1//EN" "http://www.w3.org/Graphics/SVG/1.1/DTD/svg11.dtd">
<svg version="1.1" id="Layer_1" xmlns="http://www.w3.org/2000/svg" xmlns:xlink="http://www.w3.org/1999/xlink" x="0px" y="0px"
	 viewBox="181.3 56 597.3 466" enable-background="new 181.3 56 597.3 466" xml:space="preserve">
<rect x="106.7" fill="#E1EAEF" width="746.7" height="560"/>
<g>
	<g transform="translate(80,100)">
	</g>
	<g transform="translate(80,100)">
	</g>
</g>
<g>
	<rect x="181.3" y="99.3" fill="#E1EAEF" width="597.3" height="392"/>
	<g transform="translate(80,100)">
		<path stroke="#FFFFFF" d="M101.3,371.7h597.3"/>
		<path stroke="#FFFFFF" d="M101.3,297.4h597.3"/>
		<path stroke="#FFFFFF" d="M101.3,223.1h597.3"/>
		<path stroke="#FFFFFF" d="M101.3,148.9h597.3"/>
		<path stroke="#FFFFFF" d="M101.3,74.7h597.3"/>
		<path stroke="#FFFFFF" d="M101.3,0.4h597.3"/>
	</g>
	<g>
		<g transform="translate(80,100)">
		</g>
	</g>
	<g transform="translate(80,100)">
	</g>
	<g>
		<g transform="translate(80,100)">
		</g>
	</g>
	<g>
		<g>
			<g>
				<path fill="#4A86E8" d="M235.7,396.5v-55.7H255v55.7H235.7z"/>
				<path fill="#4A86E8" d="M259.8,396.5v-85.4h19.3v85.4H259.8z"/>
				<path fill="#4A86E8" d="M284,396.5V181.1h19.3v215.4L284,396.5L284,396.5z"/>
				<path fill="#4A86E8" d="M308.1,396.5v11.1h19.3v-11.1H308.1z"/>
				<path fill="#4A86E8" d="M332.2,396.5v48.3h19.3v-48.3H332.2z"/>
				<path fill="#4A86E8" d="M356.2,396.5v29.7h19.3v-29.7H356.2z"/>
				<path fill="#4A86E8" d="M380.4,396.5v74.3h19.3v-74.3H380.4z"/>
				<path fill="#4A86E8" d="M404.6,396.5v66.8h19.3v-66.8H404.6z"/>
				<path fill="#4A86E8" d="M428.7,396.5v40.9H448v-40.9H428.7z"/>
				<path fill="#4A86E8" d="M452.7,396.5v-11.1h19.3v11.1H452.7z"/>
				<path fill="#4A86E8" d="M476.9,396.5v-74.3h19.3v74.3H476.9z"/>
				<path fill="#4A86E8" d="M501,396.5v-52h19.3v52H501z"/>
				<path fill="#4A86E8" d="M525.2,396.5v-52h19.2v52H525.2z"/>
				<path fill="#4A86E8" d="M549.3,396.5v40.9h19.3v-40.9H549.3z"/>
				<path fill="#4A86E8" d="M573.4,396.5v22.3h19.3v-22.3H573.4z"/>
				<path fill="#4A86E8" d="M597.5,396.5V118h19.3v278.5H597.5z"/>
				<path fill="#4A86E8" d="M621.6,396.5v33.4h19.3v-33.4H621.6z"/>
				<path fill="#4A86E8" d="M645.7,396.5V456H665v-59.5H645.7z"/>
				<path fill="#4A86E8" d="M669.9,396.5v-37.1h19.3v37.1H669.9z"/>
				<path fill="#4A86E8" d="M694,396.5v44.6h19.3v-44.6H694z"/>
				<path fill="#4A86E8" d="M718.1,396.5v11.1h19.3v-11.1H718.1z"/>
				<path fill="#4A86E8" d="M742.2,396.5v-29.7h19.3v29.7H742.2z"/>
			</g>
		</g>
	</g>
	<g>
		<g>
			<g>
				<path fill="none" stroke="#FFFFFF" stroke-width="2" stroke-miterlimit="2" d="M214.7,466.2l24.1-33.5l24.1-71.4l24.2-200.8
					l24.1,15.6l24.1,66.9l24.1,35.7l24.2,82.5l24.1,58l24.1,29l24.1-6.7l24.2-49.1L504,350l24.1-46.9l24.1,42.4l24.2,20.1
					l24.1-245.4l24.1,49.1l24.1,84.7l24.2-44.6l24.1,55.8l24.1,13.3l24.1-33.5"/>
				<g>
					<path fill="#FFFFFF" d="M217.5,466.2c0,1.6-1.2,2.8-2.8,2.8c-1.6,0-2.8-1.2-2.8-2.8c0-1.6,1.2-2.8,2.8-2.8
						C216.3,463.4,217.5,464.7,217.5,466.2z"/>
					<path fill="#FFFFFF" d="M241.6,432.8c0,1.6-1.2,2.8-2.8,2.8c-1.6,0-2.8-1.2-2.8-2.8s1.2-2.8,2.8-2.8
						C240.3,430,241.6,431.2,241.6,432.8z"/>
					<path fill="#FFFFFF" d="M265.7,361.4c0,1.6-1.2,2.8-2.8,2.8c-1.6,0-2.8-1.2-2.8-2.8s1.2-2.8,2.8-2.8
						C264.5,358.6,265.7,359.8,265.7,361.4z"/>
					<path fill="#FFFFFF" d="M289.9,160.7c0,1.6-1.2,2.8-2.8,2.8c-1.6,0-2.8-1.2-2.8-2.8c0-1.6,1.2-2.8,2.8-2.8
						C288.7,157.9,289.9,159.1,289.9,160.7z"/>
					<path fill="#FFFFFF" d="M314,176.2c0,1.6-1.2,2.8-2.8,2.8s-2.8-1.2-2.8-2.8c0-1.6,1.2-2.8,2.8-2.8S314,174.7,314,176.2z"/>
					<path fill="#FFFFFF" d="M338,243.2c0,1.6-1.2,2.8-2.8,2.8s-2.8-1.2-2.8-2.8c0-1.6,1.2-2.8,2.8-2.8S338,241.7,338,243.2z"/>
					<path fill="#FFFFFF" d="M362.2,278.9c0,1.6-1.2,2.8-2.8,2.8c-1.6,0-2.8-1.2-2.8-2.8c0-1.6,1.2-2.8,2.8-2.8
						C360.9,276.1,362.2,277.3,362.2,278.9z"/>
					<path fill="#FFFFFF" d="M386.4,361.4c0,1.6-1.2,2.8-2.8,2.8s-2.8-1.2-2.8-2.8s1.2-2.8,2.8-2.8
						C385.1,358.6,386.4,359.8,386.4,361.4z"/>
					<path fill="#FFFFFF" d="M410.5,419.4c0,1.6-1.2,2.8-2.8,2.8s-2.8-1.2-2.8-2.8c0-1.6,1.2-2.8,2.8-2.8
						C409.2,416.6,410.5,417.9,410.5,419.4z"/>
					<path fill="#FFFFFF" d="M434.5,448.4c0,1.6-1.2,2.8-2.8,2.8c-1.6,0-2.8-1.2-2.8-2.8c0-1.6,1.2-2.8,2.8-2.8
						C433.3,445.6,434.5,446.9,434.5,448.4z"/>
					<path fill="#FFFFFF" d="M458.6,441.8c0,1.6-1.2,2.8-2.8,2.8c-1.6,0-2.8-1.2-2.8-2.8c0-1.6,1.2-2.8,2.8-2.8
						C457.4,439,458.6,440.2,458.6,441.8z"/>
					<path fill="#FFFFFF" d="M482.8,392.7c0,1.6-1.2,2.8-2.8,2.8s-2.8-1.2-2.8-2.8s1.2-2.8,2.8-2.8S482.8,391.1,482.8,392.7z"/>
					<path fill="#FFFFFF" d="M507,350.2c0,1.6-1.2,2.8-2.8,2.8c-1.6,0-2.8-1.2-2.8-2.8s1.2-2.8,2.8-2.8
						C505.8,347.4,507,348.7,507,350.2z"/>
					<path fill="#FFFFFF" d="M531.1,303.5c0,1.6-1.2,2.8-2.8,2.8s-2.8-1.2-2.8-2.8c0-1.6,1.2-2.8,2.8-2.8S531.1,301.9,531.1,303.5z"
						/>
					<path fill="#FFFFFF" d="M555.1,345.8c0,1.6-1.2,2.8-2.8,2.8s-2.8-1.2-2.8-2.8c0-1.6,1.2-2.8,2.8-2.8S555.1,344.2,555.1,345.8z"
						/>
					<path fill="#FFFFFF" d="M579.3,365.9c0,1.6-1.2,2.8-2.8,2.8s-2.8-1.2-2.8-2.8s1.2-2.8,2.8-2.8S579.3,364.3,579.3,365.9z"/>
					<path fill="#FFFFFF" d="M603.4,120.4c0,1.6-1.2,2.8-2.8,2.8s-2.8-1.2-2.8-2.8s1.2-2.8,2.8-2.8S603.4,118.9,603.4,120.4z"/>
					<path fill="#FFFFFF" d="M627.6,169.5c0,1.6-1.2,2.8-2.8,2.8c-1.6,0-2.8-1.2-2.8-2.8c0-1.6,1.2-2.8,2.8-2.8
						C626.3,166.7,627.6,168,627.6,169.5z"/>
					<path fill="#FFFFFF" d="M651.6,254.4c0,1.6-1.2,2.8-2.8,2.8s-2.8-1.2-2.8-2.8c0-1.6,1.2-2.8,2.8-2.8S651.6,252.8,651.6,254.4z"
						/>
					<path fill="#FFFFFF" d="M675.8,209.7c0,1.6-1.2,2.8-2.8,2.8s-2.8-1.2-2.8-2.8c0-1.6,1.2-2.8,2.8-2.8S675.8,208.2,675.8,209.7z"
						/>
					<path fill="#FFFFFF" d="M699.9,265.5c0,1.6-1.2,2.8-2.8,2.8s-2.8-1.2-2.8-2.8s1.2-2.8,2.8-2.8S699.9,264,699.9,265.5z"/>
					<path fill="#FFFFFF" d="M724,278.9c0,1.6-1.2,2.8-2.8,2.8s-2.8-1.2-2.8-2.8c0-1.6,1.2-2.8,2.8-2.8S724,277.3,724,278.9z"/>
					<path fill="#FFFFFF" d="M748.1,245.4c0,1.6-1.2,2.8-2.8,2.8s-2.8-1.2-2.8-2.8c0-1.6,1.2-2.8,2.8-2.8S748.1,243.8,748.1,245.4z"
						/>
				</g>
			</g>
		</g>
	</g>
	<path fill="none" stroke="#000000" stroke-opacity="0" d="M180.4,361.1h599.2"/>
	<path fill="none" stroke="#000000" stroke-opacity="0" d="M180.9-32.3v392.9"/>
	<g>
		<path fill="none" stroke="#000000" stroke-opacity="0" d="M181.3-31.3"/>
		<path fill="none" stroke="#000000" stroke-opacity="0" d="M779.1-32.3v393.9"/>
	</g>
	<g transform="translate(80,100)">
		<g>
			<text transform="matrix(1 0 0 1 122.833 400.667)" font-family="'Verdana'" font-size="9.3333">1990</text>
		</g>
		<g>
			<text transform="matrix(1 0 0 1 243.4102 400.667)" font-family="'Verdana'" font-size="9.3333">1995</text>
		</g>
		<g>
			<text transform="matrix(1 0 0 1 363.9971 400.667)" font-family="'Verdana'" font-size="9.3333">2000</text>
		</g>
		<g>
			<text transform="matrix(1 0 0 1 484.6484 400.667)" font-family="'Verdana'" font-size="9.3333">2005</text>
		</g>
		<g>
			<text transform="matrix(1 0 0 1 605.2265 400.667)" font-family="'Verdana'" font-size="9.3333">2010</text>
		</g>
	</g>
	<g transform="translate(80,100)">
		<g>
			<text transform="matrix(1 0 0 1 79.9614 374.4306)" font-family="'Verdana'" font-size="9.3333">−20</text>
		</g>
		<g>
			<text transform="matrix(1 0 0 1 93.5332 300.1562)" font-family="'Verdana'" font-size="9.3333">0</text>
		</g>
		<g>
			<text transform="matrix(1 0 0 1 87.5996 225.8818)" font-family="'Verdana'" font-size="9.3333">20</text>
		</g>
		<g>
			<text transform="matrix(1 0 0 1 87.5996 151.6069)" font-family="'Verdana'" font-size="9.3333">40</text>
		</g>
		<g>
			<text transform="matrix(1 0 0 1 87.5996 77.332)" font-family="'Verdana'" font-size="9.3333">60</text>
		</g>
		<g>
			<text transform="matrix(1 0 0 1 87.5996 3.0669)" font-family="'Verdana'" font-size="9.3333">80</text>
		</g>
	</g>
	<g>
		<g transform="translate(80,100)">
		</g>
		<g transform="translate(80,100)">
			<g>
				<text transform="matrix(1 0 0 1 700.5332 371.8643)" font-family="'Verdana'" font-size="9.3333">100</text>
			</g>
			<g>
				<text transform="matrix(1 0 0 1 700.5332 327.2412)" font-family="'Verdana'" font-size="9.3333">120</text>
			</g>
			<g>
				<text transform="matrix(1 0 0 1 700.5332 282.6279)" font-family="'Verdana'" font-size="9.3333">140</text>
			</g>
			<g>
				<text transform="matrix(1 0 0 1 700.5332 238.0059)" font-family="'Verdana'" font-size="9.3333">160</text>
			</g>
			<g>
				<text transform="matrix(1 0 0 1 700.5332 193.3828)" font-family="'Verdana'" font-size="9.3333">180</text>
			</g>
			<g>
				<text transform="matrix(1 0 0 1 700.5332 148.7695)" font-family="'Verdana'" font-size="9.3333">200</text>
			</g>
			<g>
				<text transform="matrix(1 0 0 1 700.5332 104.147)" font-family="'Verdana'" font-size="9.3333">220</text>
			</g>
			<g>
				<text transform="matrix(1 0 0 1 700.5332 59.5244)" font-family="'Verdana'" font-size="9.3333">240</text>
			</g>
			<g>
				<text transform="matrix(1 0 0 1 700.5332 14.9111)" font-family="'Verdana'" font-size="9.3333">260</text>
			</g>
		</g>
	</g>
</g>
<g>
	<g>
		<text transform="matrix(6.123234e-17 -1 1 6.123234e-17 149.6001 411.8463)" font-family="'Verdana'" font-size="11.2">Year Over Year Change in Rate On Line</text>
	</g>
	<g>
		<text transform="matrix(6.123234e-17 -1 1 6.123234e-17 815.9999 364.9516)" font-family="'Verdana'" font-size="11.2">Cumulative ROL Index</text>
	</g>
	<g transform="translate(1,15.5)">
		<g>
			<path fill="none" stroke="#FFFFFF" stroke-width="2" d="M201.8,103h28"/>
		</g>
		<g>
			<g>
				<path fill="#FFFFFF" d="M218.6,103c0,1.6-1.2,2.8-2.8,2.8c-1.6,0-2.8-1.2-2.8-2.8s1.2-2.8,2.8-2.8
					C217.4,100.2,218.6,101.4,218.6,103z"/>
			</g>
		</g>
		<text transform="matrix(1 0 0 1 234.4668 107.335)" fill="#444444" font-family="'Helvetica'" font-size="11.2">YOY Change</text>
		<rect x="197.1" y="94.1" pointer-events="all" fill-opacity="0" width="149" height="17.7"/>
	</g>
	<g transform="translate(1,34.5)">
		<g>
			<g>
				<path fill="#4A86E8" d="M221.4,107.3h-11.2V96.1h11.2V107.3z"/>
			</g>
		</g>
		<text transform="matrix(1 0 0 1 234.4668 106.0684)" fill="#444444" font-family="'Helvetica'" font-size="11.2">Cumulative ROL Index</text>
		<rect x="197.1" y="92.8" pointer-events="all" fill-opacity="0" width="149" height="17.7"/>
	</g>
	<g>
		<g transform="rotate(0,198,70.00000000000007)">
			<rect x="196.9" y="66.4" fill-opacity="0" stroke="#000000" stroke-opacity="0" width="250.1" height="20.5"/>
			<text transform="matrix(1 0 0 1 196.7426 81.8003)" fill="#444444" font-family="'Helvetica'" font-size="14.9333">U.S. Property Catastrophe ROL Index</text>
		</g>
	</g>
</g>
<g>
	<polygon fill="#FFFFFF" stroke="#000000" stroke-miterlimit="10" points="553.7,345.7 559.1,340.1 559.1,336.1 584.8,336.1 
		584.8,355.7 559.3,355.7 559.1,350.4 	"/>
	<text transform="matrix(1 0 0 1 561.5117 349.6084)" font-family="'ArialMT'" font-size="11.726">154</text>
</g>
<g>
	<polygon fill="#4A86E8" stroke="#FFFFFF" stroke-miterlimit="10" points="569.6,437.2 574.9,431.6 574.9,427.6 600.7,427.6 
		600.7,447.2 575.2,447.2 574.9,441.9 	"/>
	<text transform="matrix(1 0 0 1 579.2451 441.3457)" fill="#FFFFFF" font-family="'ArialMT'" font-size="13.7682">-11</text>
</g>
<g>
	<polygon fill="#444444" stroke="#FFFFFF" stroke-miterlimit="10" points="557.2,480.7 562.8,486 584.5,486 584.5,505.3 
		529.5,505.3 529.5,486.3 552.5,486 	"/>
	<text transform="matrix(1 0 0 1 533.0537 499.6787)" fill="#FFFFFF" font-family="'Arial-BoldMT'" font-size="11.726">Jan 2004</text>
</g>
</svg>
