<svg id="Layer_1" data-name="Layer 1" xmlns="http://www.w3.org/2000/svg" xmlns:xlink="http://www.w3.org/1999/xlink" viewBox="0 0 641 695.5"><defs><style>.cls-1,.cls-15,.cls-7{fill:none;}.cls-2{fill:#d0d2d3;}.cls-3{fill:#698eb2;}.cls-4{fill:#fff;}.cls-5{fill:#a384a2;}.cls-6{fill:#b47e3b;}.cls-7{stroke:#698eb2;stroke-width:2px;stroke-dasharray:4.05 4.05;}.cls-15,.cls-7{stroke-miterlimit:10;}.cls-8{fill:#5d5988;}.cls-9{fill:url(#radial-gradient);}.cls-10{fill:url(#radial-gradient-2);}.cls-11{fill:url(#radial-gradient-3);}.cls-12{fill:#955455;}.cls-13{fill:#b6ae55;}.cls-14{fill:#58595b;}.cls-15{stroke:#929497;stroke-width:8px;}.cls-16{fill:#929497;}</style><radialGradient id="radial-gradient" cx="307.3" cy="338.44" r="40.29" gradientTransform="translate(0 -70)" gradientUnits="userSpaceOnUse"><stop offset="0.28" stop-color="#e5e0c2"/><stop offset="0.88" stop-color="#b6ae55"/></radialGradient><radialGradient id="radial-gradient-2" cx="-1315.83" cy="338.44" r="40.29" gradientTransform="matrix(-1, 0, 0, 1, -972.57, -70)" xlink:href="#radial-gradient"/><radialGradient id="radial-gradient-3" cx="324.8" cy="291.7" r="17" gradientTransform="translate(0 -70)" gradientUnits="userSpaceOnUse"><stop offset="0" stop-color="#ceafab"/><stop offset="0.19" stop-color="#cbaaa7"/><stop offset="0.41" stop-color="#c29d9a"/><stop offset="0.64" stop-color="#b48684"/><stop offset="0.88" stop-color="#a16666"/><stop offset="0.99" stop-color="#955455"/></radialGradient></defs><title>ror1-pathway-wnt4a</title><rect class="cls-1" width="641" height="695.5"/><path class="cls-2" d="M43.2,388.1C96.6,322,201.5,276.9,321.9,276.9S547.2,322,600.5,388.1h11.8c-15.5-20.7-36-39.8-61.1-56.6-61.3-41.1-142.7-63.8-229.3-63.8s-168,22.6-229.3,63.8C67.5,348.3,47,367.4,31.5,388.1H43.2Z"/><path class="cls-3" d="M247.2,500.4a29.3,29.3,0,1,1,29.3-29.3h0A29.41,29.41,0,0,1,247.2,500.4Z"/><path class="cls-4" d="M247.2,445.4a25.8,25.8,0,1,1-25.8,25.8h0a25.73,25.73,0,0,1,25.8-25.8m0-7A32.8,32.8,0,1,0,280,471.2h0a32.88,32.88,0,0,0-32.8-32.8h0Z"/><ellipse class="cls-5" cx="450.2" cy="534" rx="36.3" ry="23.8"/><circle class="cls-6" cx="324.6" cy="383.4" r="25.8"/><circle class="cls-7" cx="154.3" cy="406.9" r="25.8" transform="translate(-59.21 27.71) rotate(-8.62)"/><path class="cls-8" d="M209.2,457.9c-22.7,0-41.2-14.6-41.2-32.6s18.5-32.6,41.2-32.6,41.2,14.6,41.2,32.6S231.9,457.9,209.2,457.9Z"/><path class="cls-4" d="M209.2,395.9c21,0,37.9,13.1,37.9,29.4s-17,29.4-37.9,29.4-37.9-13.1-37.9-29.4,16.9-29.4,37.9-29.4m0-6.5c-11.6,0-22.5,3.5-30.8,10-8.8,6.8-13.6,16-13.6,25.9s4.8,19.1,13.6,25.9a50.49,50.49,0,0,0,30.8,10c11.6,0,22.5-3.5,30.8-10,8.8-6.8,13.6-16,13.6-25.9s-4.8-19.1-13.6-25.9c-8.3-6.4-19.3-10-30.8-10h0Z"/><path class="cls-9" d="M301.5,316.9c-0.9,0-1.7-.1-2.5-0.1a21.61,21.61,0,0,1-19-24,20.14,20.14,0,0,1,7.9-14.2l0.1-.1h0.1c2.2-1.5,2-4.8,1.1-6.6l-0.1-.3c-1.1-2.3-1.9-3.9-3-3.9a2.92,2.92,0,0,0-.9.2H285a22.42,22.42,0,0,1-17.3-3.1c-0.2-.1-0.4-0.3-0.6-0.4l-0.1-.1-0.1-.1h0a23.35,23.35,0,0,1-10-15,23.65,23.65,0,0,1,18.7-27.7,22.82,22.82,0,0,1,4.5-.4,23.26,23.26,0,0,1,13.1,4,21.73,21.73,0,0,1,10,14.6v0.2c0.5,4.1,6.2,21,7.6,24.6q0.6,1.65,1.5,3.9c1.6,4.3,4.4,11.6,6.3,13.6l0.1,0.1,0.1,0.1a20.06,20.06,0,0,1,4.4,15.6,22,22,0,0,1-21.7,19.1h0Z"/><path class="cls-4" d="M279.8,224.1a19.83,19.83,0,0,1,11.5,3.6,19,19,0,0,1,8.7,12.6c0.5,4.6,6.5,22.2,7.8,25.4,1.9,4.7,5.4,15.4,8.4,18.4a17.48,17.48,0,0,1,3.8,13.4A18.61,18.61,0,0,1,301.5,314a16.2,16.2,0,0,1-2.2-.1,18.63,18.63,0,0,1-16.4-20.6v-0.1a17.1,17.1,0,0,1,6.7-12.1c3.5-2.4,3.6-7.3,2.1-10.4-1.3-2.7-2.7-5.9-5.9-5.9a5.66,5.66,0,0,0-1.8.3,21,21,0,0,1-4.3.5,19.3,19.3,0,0,1-10.7-3.3,3.51,3.51,0,0,0-.8-0.5,20.64,20.64,0,0,1,11.6-37.7m0-6a26.58,26.58,0,0,0-14.9,48.6l0.2,0.1h0a4.35,4.35,0,0,0,.7.4,25.07,25.07,0,0,0,19.4,3.6l1,2,0.1,0.3a3.22,3.22,0,0,1,0,2.9l-0.2.1-0.2.1a23.33,23.33,0,0,0-9.1,16.3,24.76,24.76,0,0,0,21.7,27.3,28.25,28.25,0,0,0,2.9.2,24.56,24.56,0,0,0,24.4-21.8,23.15,23.15,0,0,0-5-17.9l-0.2-.2-0.2-.2c-1.5-1.6-4.4-9.3-5.6-12.5-0.6-1.5-1.1-2.9-1.5-4-1.5-3.8-7-20.3-7.4-23.8V239a26.74,26.74,0,0,0-26.1-20.9h0Z"/><path class="cls-10" d="M349.1,316.9a21.72,21.72,0,0,1-21.5-19.2,20.06,20.06,0,0,1,4.4-15.6l0.1-.1,0.1-.1c1.9-2,4.6-9.2,6.3-13.6,0.6-1.5,1.1-2.9,1.5-3.9,1.5-3.6,7.2-20.5,7.6-24.6v-0.2a21.9,21.9,0,0,1,10.1-14.5,23.41,23.41,0,0,1,32.6,6.3l0.1,0.1a23.62,23.62,0,0,1,3.6,17.7,23.35,23.35,0,0,1-10,15l-0.1.1-0.1.1h0c-0.2.1-.4,0.3-0.6,0.4a22.07,22.07,0,0,1-17.3,3.1h-0.2a2.92,2.92,0,0,0-.9-0.2c-1.1,0-2,1.6-3,3.9l-0.1.2c-0.9,1.8-1.1,5.2,1.1,6.6h0.1l0.1,0.1a20.14,20.14,0,0,1,7.9,14.2,21.61,21.61,0,0,1-19,24A14.68,14.68,0,0,1,349.1,316.9Z"/><path class="cls-4" d="M370.8,224.1a20.54,20.54,0,0,1,11.5,37.6c-0.2.1-.4,0.3-0.8,0.5a19.55,19.55,0,0,1-10.7,3.3,20.24,20.24,0,0,1-4.3-.5,5.66,5.66,0,0,0-1.8-.3c-3.2,0-4.6,3.2-5.9,5.9-1.5,3.1-1.4,8,2.1,10.4a17.1,17.1,0,0,1,6.7,12.1,18.65,18.65,0,0,1-16.3,20.7h-0.1a16.2,16.2,0,0,1-2.2.1,18.61,18.61,0,0,1-18.5-16.5,17.2,17.2,0,0,1,3.8-13.4c3-3.1,6.5-13.8,8.4-18.4,1.3-3.2,7.3-20.8,7.8-25.4a19,19,0,0,1,8.8-12.6,19.74,19.74,0,0,1,11.5-3.5m0-6.1h0a26.84,26.84,0,0,0-14.8,4.5A25,25,0,0,0,344.6,239v0.6c-0.4,3.5-5.9,20-7.4,23.8-0.5,1.1-1,2.5-1.5,4-1.2,3.3-4.1,11-5.6,12.5l-0.2.2-0.2.2a23.15,23.15,0,0,0-5,17.9A24.56,24.56,0,0,0,349.1,320a28.25,28.25,0,0,0,2.9-.2,24.76,24.76,0,0,0,21.7-27.3,23,23,0,0,0-9.1-16.3l-0.2-.1-0.2-.1c-0.5-.3-0.5-1.9,0-2.9l0.1-.3,1-2a25.07,25.07,0,0,0,19.4-3.6,5.73,5.73,0,0,1,.7-0.4h0l0.2-.1A26.64,26.64,0,0,0,370.8,218h0Z"/><circle class="cls-11" cx="324.8" cy="221.7" r="17"/><path class="cls-12" d="M297.2,177.4h2.4l1.5,4.5,1.5-4.5H305l-2.3,6.1,1.7,4.3,3.8-10.5h2.9l-5.5,13.5h-2.2l-2.3-5.7-2.3,5.7h-2.2l-5.5-13.5h2.8l3.8,10.5,1.7-4.3Z"/><path class="cls-12" d="M315.1,182.3v8.6h-2.6V177.4h2l7,8.9v-8.8h2.6V191H322Z"/><path class="cls-12" d="M337.1,179.7h-4.3v11.2h-2.6V179.7h-4.3v-2.3h11.2v2.3h0Z"/><path class="cls-12" d="M341.3,184.8a5.66,5.66,0,0,1,1.8.3,3.92,3.92,0,0,1,2.3,2.3,4.39,4.39,0,0,1-1,5,5.07,5.07,0,0,1-1.6.9,6.45,6.45,0,0,1-2,.3,5.83,5.83,0,0,1-2.6-.6,4.9,4.9,0,0,1-1.8-1.7l1.5-1.5a3.74,3.74,0,0,0,1.3,1.2,3.17,3.17,0,0,0,1.6.4,2.72,2.72,0,0,0,1.7-.6,2.21,2.21,0,0,0,.2-3.1,2.06,2.06,0,0,0-1.7-.7,2.66,2.66,0,0,0-1.2.3,6.47,6.47,0,0,0-.9.8h-2.2a0.6,0.6,0,0,1,.1-0.4l0.2-1c0.1-.4.2-0.8,0.3-1.3s0.2-1,.3-1.4c0.2-1.2.5-2.5,0.8-3.9H345v2.3h-4.8l-0.5,3a1.61,1.61,0,0,1,.7-0.4A1.34,1.34,0,0,1,341.3,184.8Z"/><path class="cls-12" d="M351.6,177.4h2.3l5.1,13.5h-2.7l-1.3-3.4h-4.7l-1.2,3.4h-2.7Zm3,8.3-1.9-5.3-1.9,5.3h3.8Z"/><path class="cls-13" d="M199.7,253.6V240.1h6a3.29,3.29,0,0,1,1.7.4,4.51,4.51,0,0,1,1.4,1,4.19,4.19,0,0,1,.9,1.4,4.53,4.53,0,0,1,.3,1.6,4.2,4.2,0,0,1-.7,2.4,4,4,0,0,1-1.8,1.6l3.1,5.1h-2.9l-2.8-4.5h-2.6v4.5h-2.6Zm2.6-6.8h3.3a1.85,1.85,0,0,0,.7-0.2,1.21,1.21,0,0,0,.5-0.5,1.61,1.61,0,0,0,.4-0.7,4.1,4.1,0,0,0,0-1.8,1.61,1.61,0,0,0-.4-0.7c-0.2-.2-0.4-0.3-0.6-0.5a1.45,1.45,0,0,0-.7-0.2h-3.2v4.6h0Z"/><path class="cls-13" d="M218.1,253.7a6.6,6.6,0,0,1-2.7-.6,8,8,0,0,1-2.1-1.5,6.92,6.92,0,0,1-1.8-4.7,7.51,7.51,0,0,1,.5-2.6,6.36,6.36,0,0,1,1.4-2.2,8,8,0,0,1,2.1-1.5,5.83,5.83,0,0,1,2.6-.6,6.6,6.6,0,0,1,2.7.6,6.52,6.52,0,0,1,2.1,1.6,6.11,6.11,0,0,1,1.3,2.2,7.42,7.42,0,0,1,.5,2.5,7,7,0,0,1-1.9,4.8,8,8,0,0,1-2.1,1.5A7.51,7.51,0,0,1,218.1,253.7Zm-3.9-6.8a5.08,5.08,0,0,0,.3,1.7,3.92,3.92,0,0,0,.8,1.4,3.78,3.78,0,0,0,1.2,1,3.82,3.82,0,0,0,3.3,0,2.94,2.94,0,0,0,1.2-1,6.38,6.38,0,0,0,.8-1.4,4.53,4.53,0,0,0,.3-1.6,5.08,5.08,0,0,0-.3-1.7,3.92,3.92,0,0,0-.8-1.4,3.78,3.78,0,0,0-1.2-1,3.82,3.82,0,0,0-3.3,0,2.94,2.94,0,0,0-1.2,1,6.38,6.38,0,0,0-.8,1.4A3.81,3.81,0,0,0,214.2,246.9Z"/><path class="cls-13" d="M226.7,253.6V240.1h6a3.29,3.29,0,0,1,1.7.4,4.51,4.51,0,0,1,1.4,1,4.19,4.19,0,0,1,.9,1.4,4.53,4.53,0,0,1,.3,1.6,4.2,4.2,0,0,1-.7,2.4,4,4,0,0,1-1.8,1.6l3.1,5.1h-2.9l-2.8-4.5h-2.6v4.5h-2.6Zm2.6-6.8h3.3a1.85,1.85,0,0,0,.7-0.2,1.21,1.21,0,0,0,.5-0.5,1.61,1.61,0,0,0,.4-0.7,4.1,4.1,0,0,0,0-1.8,1.61,1.61,0,0,0-.4-0.7c-0.2-.2-0.4-0.3-0.6-0.5a1.45,1.45,0,0,0-.7-0.2h-3.2v4.6h0Z"/><path class="cls-13" d="M246.9,251.3v2.3h-7.7v-2.3h2.7v-5.8l-0.5.5a3,3,0,0,1-.8.4,3.18,3.18,0,0,1-.9.3,2.2,2.2,0,0,1-.8.1v-2.4a1.88,1.88,0,0,0,.8-0.2,4.67,4.67,0,0,0,1-.5,5.55,5.55,0,0,0,.8-0.6,1,1,0,0,0,.4-0.5h2.6v8.6h2.4v0.1Z"/><path class="cls-13" d="M405.7,253.6V240.1h6a3.29,3.29,0,0,1,1.7.4,4.51,4.51,0,0,1,1.4,1,4.19,4.19,0,0,1,.9,1.4,4.53,4.53,0,0,1,.3,1.6,4.2,4.2,0,0,1-.7,2.4,4,4,0,0,1-1.8,1.6l3.1,5.1h-2.9l-2.8-4.5h-2.6v4.5h-2.6Zm2.6-6.8h3.3a1.85,1.85,0,0,0,.7-0.2,1.21,1.21,0,0,0,.5-0.5,1.61,1.61,0,0,0,.4-0.7,4.1,4.1,0,0,0,0-1.8,1.61,1.61,0,0,0-.4-0.7c-0.2-.2-0.4-0.3-0.6-0.5a1.45,1.45,0,0,0-.7-0.2h-3.2v4.6h0Z"/><path class="cls-13" d="M424.1,253.7a6.6,6.6,0,0,1-2.7-.6,8,8,0,0,1-2.1-1.5,6.92,6.92,0,0,1-1.8-4.7,7.51,7.51,0,0,1,.5-2.6,6.36,6.36,0,0,1,1.4-2.2,6.23,6.23,0,0,1,2.1-1.5,5.83,5.83,0,0,1,2.6-.6,6.6,6.6,0,0,1,2.7.6,6.52,6.52,0,0,1,2.1,1.6,6.11,6.11,0,0,1,1.3,2.2,7.42,7.42,0,0,1,.5,2.5,7,7,0,0,1-1.9,4.8,8,8,0,0,1-2.1,1.5A7.51,7.51,0,0,1,424.1,253.7Zm-3.9-6.8a5.08,5.08,0,0,0,.3,1.7,3.92,3.92,0,0,0,.8,1.4,3.77,3.77,0,0,0,1.2,1,3.82,3.82,0,0,0,3.3,0,2.94,2.94,0,0,0,1.2-1,6.38,6.38,0,0,0,.8-1.4,4.53,4.53,0,0,0,.3-1.6,5.08,5.08,0,0,0-.3-1.7,3.92,3.92,0,0,0-.8-1.4,3.77,3.77,0,0,0-1.2-1,3.82,3.82,0,0,0-3.3,0,2.94,2.94,0,0,0-1.2,1,6.38,6.38,0,0,0-.8,1.4,3.81,3.81,0,0,0-.3,1.6h0Z"/><path class="cls-13" d="M432.7,253.6V240.1h6a3.29,3.29,0,0,1,1.7.4,4.51,4.51,0,0,1,1.4,1,4.19,4.19,0,0,1,.9,1.4,4.53,4.53,0,0,1,.3,1.6,4.2,4.2,0,0,1-.7,2.4,4,4,0,0,1-1.8,1.6l3.1,5.1h-3l-2.8-4.5h-2.6v4.5h-2.5Zm2.6-6.8h3.3a1.85,1.85,0,0,0,.7-0.2,1.21,1.21,0,0,0,.5-0.5,1.61,1.61,0,0,0,.4-0.7,4.1,4.1,0,0,0,0-1.8,1.61,1.61,0,0,0-.4-0.7c-0.2-.2-0.4-0.3-0.6-0.5a1.45,1.45,0,0,0-.7-0.2h-3.2v4.6h0Z"/><path class="cls-13" d="M444.6,253.6a9.15,9.15,0,0,1,.1-1.6,3.49,3.49,0,0,1,.5-1.3,3.13,3.13,0,0,1,.9-1.1,7.84,7.84,0,0,1,1.5-1l1.4-.7c0.3-.2.7-0.4,1-0.6a2.65,2.65,0,0,0,.6-0.5,1.42,1.42,0,0,0,.2-0.6,1.23,1.23,0,0,0-.5-1,2,2,0,0,0-1.3-.4,2,2,0,0,0-.8.1c-0.2.1-.5,0.2-0.7,0.3a2.65,2.65,0,0,0-.6.5l-0.5.5-1.6-1.9a4.35,4.35,0,0,1,.7-0.6,10.91,10.91,0,0,1,1.1-.6c0.4-.2.9-0.3,1.4-0.5a6.9,6.9,0,0,1,3.3,0,3.29,3.29,0,0,1,1.3.7,3.92,3.92,0,0,1,.8,1,3.08,3.08,0,0,1,.3,1.3,2.66,2.66,0,0,1-.3,1.2l-0.6.9a2.7,2.7,0,0,1-.8.7,4.05,4.05,0,0,1-.9.5l-0.8.4c-0.3.2-.6,0.3-0.9,0.5s-0.5.4-.8,0.6a2.65,2.65,0,0,0-.5.6h5.8v2.3l-9.3.3h0Z"/><path class="cls-4" d="M240.5,477.1a4.76,4.76,0,0,1-3.4,1.4,5.45,5.45,0,0,1-2.2-.5,5.94,5.94,0,0,1-1.8-1.3,8.17,8.17,0,0,1-1.2-2,5.07,5.07,0,0,1-.4-2.4,6.31,6.31,0,0,1,1.7-4.3,5,5,0,0,1,1.9-1.3,6,6,0,0,1,5.2.2,4.14,4.14,0,0,1,1.8,1.9l-1.8,1.3a3,3,0,0,0-1.3-1.4,3.74,3.74,0,0,0-1.8-.5,3.19,3.19,0,0,0-1.4.3,3.13,3.13,0,0,0-1.1.9,5.39,5.39,0,0,0-.7,1.3,4,4,0,0,0-.3,1.5,9.85,9.85,0,0,0,.2,1.7,3.53,3.53,0,0,0,.8,1.3,3.13,3.13,0,0,0,1.1.9,3.19,3.19,0,0,0,1.4.3,4.18,4.18,0,0,0,3.2-1.6V474H238v-1.7h4.4v6.2h-1.9v-1.4h0Z"/><path class="cls-4" d="M253.1,468.4h-3.9v10h-2.3v-10H243v-2.1h10l0.1,2.1h0Z"/><path class="cls-4" d="M254.6,478.5V466.4h5.1a2.6,2.6,0,0,1,1.5.4,2.73,2.73,0,0,1,1.2.9,5.67,5.67,0,0,1,.8,1.3,3.9,3.9,0,0,1,0,3,3.53,3.53,0,0,1-.8,1.3,2.73,2.73,0,0,1-1.2.9,4,4,0,0,1-1.5.3H257v4h-2.4Zm2.4-6.1h2.7a1.61,1.61,0,0,0,1.1-.5,1.79,1.79,0,0,0,.4-1.4,2,2,0,0,0-.1-0.8,2.09,2.09,0,0,0-.4-0.6,1,1,0,0,0-.5-0.4,1.27,1.27,0,0,0-.6-0.1H257v3.8h0Z"/><path class="cls-3" d="M404.6,500.4a29.3,29.3,0,1,1,29.3-29.3h0A29.28,29.28,0,0,1,404.6,500.4Z"/><path class="cls-4" d="M404.6,445.4a25.8,25.8,0,1,1-25.8,25.8h0a25.8,25.8,0,0,1,25.8-25.8m0-7a32.8,32.8,0,1,0,32.8,32.8h0a32.82,32.82,0,0,0-32.8-32.8h0Z"/><path class="cls-4" d="M397.9,477.1a4.76,4.76,0,0,1-3.4,1.4,5.45,5.45,0,0,1-2.2-.5,5.94,5.94,0,0,1-1.8-1.3,8.18,8.18,0,0,1-1.2-2,6.87,6.87,0,0,1-.5-2.4,6.31,6.31,0,0,1,1.7-4.3,5,5,0,0,1,1.9-1.3,6,6,0,0,1,5.2.2,4.14,4.14,0,0,1,1.8,1.9l-1.8,1.3a3,3,0,0,0-1.3-1.4,3.74,3.74,0,0,0-1.8-.5,3.19,3.19,0,0,0-1.4.3,3.13,3.13,0,0,0-1.1.9,5.39,5.39,0,0,0-.7,1.3,4,4,0,0,0-.3,1.5,4.53,4.53,0,0,0,.3,1.6,3.53,3.53,0,0,0,.8,1.3,3.13,3.13,0,0,0,1.1.9,3.19,3.19,0,0,0,1.4.3,4.18,4.18,0,0,0,3.2-1.6V474h-2.4v-1.7h4.4v6.2h-1.9v-1.4h0Z"/><path class="cls-4" d="M410.5,468.4h-3.9v10h-2.3v-10h-3.9v-2.1h10l0.1,2.1h0Z"/><path class="cls-4" d="M412,478.5V466.4h5.1a2.6,2.6,0,0,1,1.5.4,2.73,2.73,0,0,1,1.2.9,5.67,5.67,0,0,1,.8,1.3,3.9,3.9,0,0,1,0,3,3.53,3.53,0,0,1-.8,1.3,2.73,2.73,0,0,1-1.2.9,4,4,0,0,1-1.5.3h-2.9v4H412Zm2.4-6.1h2.7a1.61,1.61,0,0,0,1.1-.5,1.79,1.79,0,0,0,.4-1.4,2,2,0,0,0-.1-0.8,2.09,2.09,0,0,0-.4-0.6,1,1,0,0,0-.5-0.4,1.27,1.27,0,0,0-.6-0.1h-2.6v3.8h0Z"/><path class="cls-4" d="M318.3,388.7a4.86,4.86,0,0,1-3.4,1.5,5.45,5.45,0,0,1-2.2-.5,5.94,5.94,0,0,1-1.8-1.3,8.18,8.18,0,0,1-1.2-2,6.87,6.87,0,0,1-.5-2.4,6.31,6.31,0,0,1,1.7-4.3,5,5,0,0,1,1.9-1.3,6,6,0,0,1,5.2.2,4.14,4.14,0,0,1,1.8,1.9l-1.8,1.3a3,3,0,0,0-1.3-1.4,3.74,3.74,0,0,0-1.8-.5,3.19,3.19,0,0,0-1.4.3,3.13,3.13,0,0,0-1.1.9,5.39,5.39,0,0,0-.7,1.3,4,4,0,0,0-.3,1.5,4.53,4.53,0,0,0,.3,1.6,3.53,3.53,0,0,0,.8,1.3,3.13,3.13,0,0,0,1.1.9,3.19,3.19,0,0,0,1.4.3,4.18,4.18,0,0,0,3.2-1.6v-0.9h-2.4v-1.7h4.4V390h-1.9v-1.3h0Z"/><path class="cls-4" d="M330.6,388v2h-8.4V378h8.2v2h-5.9v2.9h5.1v1.9h-5.1V388h6.1Z"/><path class="cls-4" d="M332.4,390V378h8.1v2h-5.8v3.1h4.8V385h-4.8v5h-2.3Z"/><path class="cls-4" d="M196.8,438.4a3.26,3.26,0,0,1-2.3,1,3.19,3.19,0,0,1-1.4-.3,4.7,4.7,0,0,1-1.2-.9,5.67,5.67,0,0,1-.8-1.3,3.9,3.9,0,0,1,0-3,3.53,3.53,0,0,1,.8-1.3,3.78,3.78,0,0,1,1.2-.9,4,4,0,0,1,3.4.1,2.54,2.54,0,0,1,1.1,1.2l-0.9.7a2.19,2.19,0,0,0-.9-1,2.66,2.66,0,0,0-1.2-.3,3.55,3.55,0,0,0-1,.2,5.55,5.55,0,0,0-.8.6,4.05,4.05,0,0,0-.5.9,3.13,3.13,0,0,0,0,2.2,4.05,4.05,0,0,0,.5.9,1.56,1.56,0,0,0,.8.6,1.8,1.8,0,0,0,1,.2,2,2,0,0,0,1.1-.3,2.84,2.84,0,0,0,1-.9V436h-1.6v-0.9h2.7v4h-1v-0.7h0Z"/><path class="cls-4" d="M204.7,432.6h-2.6v6.7h-1.2v-6.7h-2.6v-1.1h6.4v1.1h0Z"/><path class="cls-4" d="M205.8,439.3v-7.8h3.3a3.55,3.55,0,0,1,1,.2,2.1,2.1,0,0,1,.8.6,2.18,2.18,0,0,1,.5.8,2.92,2.92,0,0,1,.2.9,3.55,3.55,0,0,1-.2,1,2.18,2.18,0,0,1-.5.8c-0.2.2-.5,0.4-0.7,0.6a3.55,3.55,0,0,1-1,.2H207v2.7h-1.2Zm1.2-3.8h2a0.9,0.9,0,0,0,.5-0.1c0.1-.1.3-0.2,0.4-0.3a0.76,0.76,0,0,0,.2-0.5,1.85,1.85,0,0,0,0-1.2c-0.1-.2-0.2-0.3-0.3-0.5a1.38,1.38,0,0,0-.4-0.3,0.75,0.75,0,0,0-.5-0.1h-2l0.1,3h0Z"/><path class="cls-4" d="M214,439.4a2.2,2.2,0,0,1-.8-0.1,1.84,1.84,0,0,1-1-1,0.88,0.88,0,0,1-.1-0.7,1.45,1.45,0,0,1,.2-0.7,2.65,2.65,0,0,1,.5-0.6,2,2,0,0,1,.8-0.4,3.4,3.4,0,0,1,1-.1,2.2,2.2,0,0,1,.8.1,1.85,1.85,0,0,1,.7.2v-0.4a1.28,1.28,0,0,0-.4-1,1.78,1.78,0,0,0-1-.4,2.92,2.92,0,0,0-.9.2,4.05,4.05,0,0,0-.9.5l-0.4-.8a4.89,4.89,0,0,1,2.3-.8,3.29,3.29,0,0,1,1.9.6,2.34,2.34,0,0,1,.7,1.7v2.1a0.35,0.35,0,0,0,.3.4h0.1v1H217a0.68,0.68,0,0,1-.7-0.7v-0.4a3.92,3.92,0,0,1-1,.8A1.79,1.79,0,0,1,214,439.4Zm0.3-.9a1.88,1.88,0,0,0,.8-0.2,1,1,0,0,0,.6-0.5,0.76,0.76,0,0,0,.2-0.4v-0.8c-0.2-.1-0.4-0.1-0.6-0.2s-0.5-.1-0.7-0.1a2.28,2.28,0,0,0-1.1.3,0.75,0.75,0,0,0-.4.7,0.91,0.91,0,0,0,.3.7,1.06,1.06,0,0,0,.9.5h0Z"/><path class="cls-4" d="M220.7,439.4a4.3,4.3,0,0,1-2.6-.8l0.5-.8a8.79,8.79,0,0,0,1,.6,3.55,3.55,0,0,0,1,.2,2.92,2.92,0,0,0,.9-0.2,0.71,0.71,0,0,0,.3-0.6,0.51,0.51,0,0,0-.4-0.5c-0.4-.1-0.7-0.3-1.1-0.4a4.65,4.65,0,0,1-.9-0.3l-0.6-.3a1.51,1.51,0,0,1-.4-0.4,1.27,1.27,0,0,1-.1-0.6,2.35,2.35,0,0,1,.2-0.8,1.21,1.21,0,0,1,.5-0.5,2.51,2.51,0,0,1,.7-0.4,2.77,2.77,0,0,1,.9-0.1,5,5,0,0,1,1.2.2,2.07,2.07,0,0,1,1,.6l-0.5.7a2.72,2.72,0,0,0-1.7-.6,2.35,2.35,0,0,0-.8.2,0.71,0.71,0,0,0-.3.6,0.37,0.37,0,0,0,.1.3,0.22,0.22,0,0,0,.2.2,1.47,1.47,0,0,0,.4.2l0.6,0.2c0.4,0.1.7,0.2,1,.3s0.5,0.2.7,0.3a1,1,0,0,1,.4.5,1.27,1.27,0,0,1,.1.6,1.61,1.61,0,0,1-.6,1.3A3.23,3.23,0,0,1,220.7,439.4Z"/><path class="cls-4" d="M226.7,439.4a5,5,0,0,1-1.2-.2,2,2,0,0,1-.9-0.6,2.07,2.07,0,0,1-.6-1,5.16,5.16,0,0,1-.2-1.1,3.6,3.6,0,0,1,.2-1.1,2.07,2.07,0,0,1,.6-1,2.36,2.36,0,0,1,.9-0.6,2.54,2.54,0,0,1,1.2-.2,5,5,0,0,1,1.2.2,7,7,0,0,1,.9.6,2.36,2.36,0,0,1,.6.9,4.25,4.25,0,0,1,.2,1.1v0.5H225a1.85,1.85,0,0,0,.2.7,1,1,0,0,0,.4.5,1.76,1.76,0,0,0,.5.4,1.27,1.27,0,0,0,.6.1,0.9,0.9,0,0,0,.5-0.1,0.52,0.52,0,0,0,.4-0.2,1.38,1.38,0,0,1,.4-0.3,0.52,0.52,0,0,0,.2-0.4l1,0.3a3.46,3.46,0,0,1-1,1.1A2.6,2.6,0,0,1,226.7,439.4Zm1.7-3.4a1.85,1.85,0,0,0-.2-0.7,1,1,0,0,0-.4-0.5,1.33,1.33,0,0,0-.5-0.3,1.27,1.27,0,0,0-.6-0.1,1.85,1.85,0,0,0-1.2.5,1,1,0,0,0-.4.5,1.45,1.45,0,0,0-.2.7l3.5-.1h0Z"/><path class="cls-14" d="M194.4,622.6H190v11.2h-2.6V622.6h-4.3v-2.3h11.2l0.1,2.3h0Z"/><path class="cls-14" d="M196.8,633.9a2.51,2.51,0,0,1-2.3-1,4.43,4.43,0,0,1-.8-2.9v-6.2h2.6v5.7c0,1.5.5,2.3,1.6,2.3a2.39,2.39,0,0,0,1.4-.5,2.59,2.59,0,0,0,1.1-1.4v-6.2H203v7a1.27,1.27,0,0,0,.1.6,0.76,0.76,0,0,0,.5.2v2.2c-0.2,0-.4.1-0.6,0.1h-0.5a2,2,0,0,1-1.1-.3,1.05,1.05,0,0,1-.5-0.9l-0.1-.8a3.53,3.53,0,0,1-1.7,1.5A3.79,3.79,0,0,1,196.8,633.9Z"/><path class="cls-14" d="M220.9,633.8h-2.6v-5.6a3.92,3.92,0,0,0-.4-1.8,1.07,1.07,0,0,0-1.1-.5,2,2,0,0,0-1.4.6,3.07,3.07,0,0,0-1,1.5v5.8h-2.6v-5.6a3.92,3.92,0,0,0-.4-1.8,1.07,1.07,0,0,0-1.1-.5,2,2,0,0,0-1.4.6,3.07,3.07,0,0,0-1,1.5v5.8h-2.6v-10h2.3v1.8a5.36,5.36,0,0,1,1.5-1.5,4.19,4.19,0,0,1,2.2-.5,3.08,3.08,0,0,1,1.9.6,2.9,2.9,0,0,1,.9,1.5,5.72,5.72,0,0,1,1.5-1.6,3.14,3.14,0,0,1,2.1-.5,4,4,0,0,1,1.5.3,2,2,0,0,1,.9.9,2.84,2.84,0,0,1,.4,1.3,6.6,6.6,0,0,1,.1,1.4v6.2Z"/><path class="cls-14" d="M227.8,633.9a5.38,5.38,0,0,1-2.2-.4,4.57,4.57,0,0,1-1.6-1.1,5.37,5.37,0,0,1-1-1.6,6.47,6.47,0,0,1-.4-2,4.48,4.48,0,0,1,.4-2,4.35,4.35,0,0,1,1-1.6,4.19,4.19,0,0,1,1.6-1.1,5.38,5.38,0,0,1,2.2-.4,5.7,5.7,0,0,1,2.2.4,5,5,0,0,1,2.7,2.8,6.47,6.47,0,0,1,.4,2,4.48,4.48,0,0,1-.4,2,4.35,4.35,0,0,1-1,1.6,4.19,4.19,0,0,1-1.6,1.1A6.34,6.34,0,0,1,227.8,633.9Zm-2.6-5.1a5,5,0,0,0,.2,1.2,1.8,1.8,0,0,0,.6.9,1.55,1.55,0,0,0,.8.6,2.56,2.56,0,0,0,2.1,0,2.41,2.41,0,0,0,.8-0.6,8.79,8.79,0,0,0,.6-1,3.7,3.7,0,0,0,0-2.4,2.07,2.07,0,0,0-.6-1,1.55,1.55,0,0,0-.8-0.6,2.6,2.6,0,0,0-2,0,5.55,5.55,0,0,0-.8.6,8.79,8.79,0,0,0-.6,1A3.08,3.08,0,0,0,225.2,628.8Z"/><path class="cls-14" d="M240.6,626a5.37,5.37,0,0,0-2.1.5,2.74,2.74,0,0,0-1.3,1.3v6h-2.6v-10h2.3v2.1l0.6-.9a2.7,2.7,0,0,1,.8-0.7,2.62,2.62,0,0,1,.9-0.5,2.35,2.35,0,0,1,.8-0.2h0.5l0.1,2.4h0Z"/><path class="cls-14" d="M255.8,632.2a5.29,5.29,0,0,1-3.8,1.6,7,7,0,0,1-2.5-.5,5.85,5.85,0,0,1-2-1.5,6.36,6.36,0,0,1-1.4-2.2,8.57,8.57,0,0,1-.5-2.7,7.08,7.08,0,0,1,1.9-4.8,8,8,0,0,1,2.1-1.5,5.75,5.75,0,0,1,2.6-.5,6.45,6.45,0,0,1,3.3.8,4.73,4.73,0,0,1,2,2.2l-2,1.4a3.39,3.39,0,0,0-1.4-1.5,3.51,3.51,0,0,0-2-.5,3.17,3.17,0,0,0-1.6.4,2.94,2.94,0,0,0-1.2,1,6.38,6.38,0,0,0-.8,1.4,5.08,5.08,0,0,0-.3,1.7,5.66,5.66,0,0,0,.3,1.8,6.38,6.38,0,0,0,.8,1.4,3.25,3.25,0,0,0,1.3,1,2.88,2.88,0,0,0,1.6.3,4.36,4.36,0,0,0,3.5-1.8v-1H253v-1.9h4.9v6.9h-2.2l0.1-1.5h0Z"/><path class="cls-14" d="M265.9,626a5.37,5.37,0,0,0-2.1.5,2.74,2.74,0,0,0-1.3,1.3v6H260v-10h2.3v2.1l0.6-.9a2.7,2.7,0,0,1,.8-0.7,2.62,2.62,0,0,1,.9-0.5,2.35,2.35,0,0,1,.8-0.2h0.5V626h0Z"/><path class="cls-14" d="M271.4,633.9a5.38,5.38,0,0,1-2.2-.4,4.57,4.57,0,0,1-1.6-1.1,5.37,5.37,0,0,1-1-1.6,6.46,6.46,0,0,1-.4-2,4.48,4.48,0,0,1,.4-2,4.35,4.35,0,0,1,1-1.6,4.19,4.19,0,0,1,1.6-1.1,5.38,5.38,0,0,1,2.2-.4,5.7,5.7,0,0,1,2.2.4,5,5,0,0,1,2.7,2.8,6.46,6.46,0,0,1,.4,2,4.48,4.48,0,0,1-.4,2,4.35,4.35,0,0,1-1,1.6,4.19,4.19,0,0,1-1.6,1.1A6.35,6.35,0,0,1,271.4,633.9Zm-2.6-5.1a5,5,0,0,0,.2,1.2,2.62,2.62,0,0,0,.5.9,1.56,1.56,0,0,0,.8.6,2.33,2.33,0,0,0,2,0,2.41,2.41,0,0,0,.8-0.6,3.13,3.13,0,0,0,.5-1,3.7,3.7,0,0,0,0-2.4,3.13,3.13,0,0,0-.5-1,1.56,1.56,0,0,0-.8-0.6,2.6,2.6,0,0,0-2,0,5.55,5.55,0,0,0-.8.6,3.13,3.13,0,0,0-.5,1A5.85,5.85,0,0,0,268.8,628.8Z"/><path class="cls-14" d="M290.3,623.8h2.4l-4.2,10h-2.1l-1.7-4.4-1.7,4.3h-2l-4.1-10h2.4l3,7.6,1.2-3.2-1.8-4.3h2l1,3.1,1.1-3.1h2l-1.7,4.3,1.2,3.2Z"/><path class="cls-14" d="M299.8,633.2c-0.4.2-.8,0.3-1.3,0.5a4.14,4.14,0,0,1-1.6.2,3.4,3.4,0,0,1-1-.1,2,2,0,0,1-.8-0.4,5.55,5.55,0,0,1-.6-0.8,4.25,4.25,0,0,1-.2-1.1v-5.7H293v-2h1.3v-3.2h2.6v3.2H299v2h-2v4.9a1.14,1.14,0,0,0,.3.8,1.45,1.45,0,0,0,.7.2,2.2,2.2,0,0,0,.8-0.1l0.6-.2Z"/><path class="cls-14" d="M310.4,633.8h-2.5v-5.6a3.29,3.29,0,0,0-.4-1.7,1.56,1.56,0,0,0-1.2-.6,1.85,1.85,0,0,0-.7.2,2.53,2.53,0,0,0-1.3,1.1,3,3,0,0,0-.4.8v5.8h-2.5V619.9h2.5v5.8a4.31,4.31,0,0,1,1.5-1.5,5,5,0,0,1,2.1-.5,4.53,4.53,0,0,1,1.6.3,2.19,2.19,0,0,1,1,.9,5,5,0,0,1,.5,1.3,7.08,7.08,0,0,1,.1,1.4l-0.3,6.2h0Z"/><path class="cls-14" d="M410.9,633.8v-8.9l-3.5,6.7H406l-3.5-6.7v8.9h-2.6V620.3h2.8l4,7.7,4-7.7h2.8v13.5h-2.6Z"/><path class="cls-14" d="M420.5,633.9a5.7,5.7,0,0,1-2.2-.4,5,5,0,0,1-2.7-2.8,5.2,5.2,0,0,1,0-4,5.85,5.85,0,0,1,1-1.7,3.86,3.86,0,0,1,1.7-1.1,5.38,5.38,0,0,1,2.2-.4,5.7,5.7,0,0,1,2.2.4,4.57,4.57,0,0,1,1.6,1.1,5.37,5.37,0,0,1,1,1.6,6.46,6.46,0,0,1,.4,1.9v0.9H418a1.93,1.93,0,0,0,.3,1,1.56,1.56,0,0,0,.6.8,2.18,2.18,0,0,0,.8.5,3.55,3.55,0,0,0,1,.2,2.3,2.3,0,0,0,1.4-.4,2.19,2.19,0,0,0,.9-1l2.2,0.6a4.69,4.69,0,0,1-1.8,1.9A4.76,4.76,0,0,1,420.5,633.9Zm2.6-6a2.5,2.5,0,0,0-.8-1.8,2.46,2.46,0,0,0-2.7-.5,2.18,2.18,0,0,0-.8.5,5.55,5.55,0,0,0-.6.8c-0.1.3-.2,0.7-0.3,1h5.2Z"/><path class="cls-14" d="M433.2,633.2c-0.4.2-.8,0.3-1.3,0.5a4.14,4.14,0,0,1-1.6.2,3.4,3.4,0,0,1-1-.1,2,2,0,0,1-.8-0.4,5.55,5.55,0,0,1-.6-0.8,4.25,4.25,0,0,1-.2-1.1v-5.7h-1.3v-2h1.3v-3.2h2.5v3.2h2.1v2h-2.1v4.9a1.14,1.14,0,0,0,.3.8,0.84,0.84,0,0,0,.7.2,2.2,2.2,0,0,0,.8-0.1l0.6-.2Z"/><path class="cls-14" d="M437.2,633.9a6.75,6.75,0,0,1-1.4-.2,4.13,4.13,0,0,1-1.1-.7,3.59,3.59,0,0,1-.7-1,3,3,0,0,1,0-2.6,2.84,2.84,0,0,1,.9-1,8.27,8.27,0,0,1,1.3-.7,5,5,0,0,1,1.7-.2,5.7,5.7,0,0,1,1.3.1c0.4,0.1.8,0.2,1.1,0.3v-0.6a2,2,0,0,0-.6-1.5,2.16,2.16,0,0,0-1.7-.5,4.53,4.53,0,0,0-1.6.3,8,8,0,0,0-1.6.8l-0.8-1.6a7.65,7.65,0,0,1,4.1-1.3,4.81,4.81,0,0,1,3.3,1,3.85,3.85,0,0,1,1.2,3v3.1a1.27,1.27,0,0,0,.1.6,0.76,0.76,0,0,0,.5.2v2.2a4.1,4.1,0,0,1-1.1.1,2,2,0,0,1-1.1-.3,1.35,1.35,0,0,1-.5-0.9l-0.1-.5a4,4,0,0,1-1.6,1.3A1.61,1.61,0,0,1,437.2,633.9Zm0.8-1.8a5,5,0,0,0,1.2-.2,1.8,1.8,0,0,0,.9-0.6,1,1,0,0,0,.4-0.7v-1.1l-1-.3a3.4,3.4,0,0,0-1-.1,2.35,2.35,0,0,0-1.6.5,1.25,1.25,0,0,0-.6,1.1,1.61,1.61,0,0,0,.5,1.1,3.49,3.49,0,0,0,1.2.3h0Z"/><path class="cls-14" d="M449.2,633.9a7.27,7.27,0,0,1-2.5-.4,4.9,4.9,0,0,1-2-1.1l1-1.6a7.68,7.68,0,0,0,1.8,1,4.67,4.67,0,0,0,1.7.3,2.66,2.66,0,0,0,1.2-.3,0.74,0.74,0,0,0,.4-0.8,0.89,0.89,0,0,0-.5-0.8c-0.5-.2-1.1-0.4-1.7-0.6a10.31,10.31,0,0,1-1.6-.5,2.38,2.38,0,0,1-1.1-.6,1.34,1.34,0,0,1-.6-0.7,3,3,0,0,1,.1-2.4,3.92,3.92,0,0,1,.8-1,7.46,7.46,0,0,1,1.2-.7,3.89,3.89,0,0,1,1.5-.2,7.61,7.61,0,0,1,2.1.3,4,4,0,0,1,1.8,1l-1,1.5a5.3,5.3,0,0,0-1.5-.8,3.53,3.53,0,0,0-1.4-.3,2,2,0,0,0-1.1.3,0.74,0.74,0,0,0-.4.8,0.48,0.48,0,0,0,.1.4l0.3,0.3,0.6,0.3a9.44,9.44,0,0,0,.9.3c0.7,0.2,1.3.4,1.8,0.5a6.72,6.72,0,0,1,1.2.6,2.7,2.7,0,0,1,.7.8,2,2,0,0,1,.2,1.1,2.84,2.84,0,0,1-1.1,2.3A3.48,3.48,0,0,1,449.2,633.9Z"/><path class="cls-14" d="M460.8,633.2c-0.4.2-.8,0.3-1.3,0.5a4.14,4.14,0,0,1-1.6.2,3.4,3.4,0,0,1-1-.1,2,2,0,0,1-.8-0.4,5.55,5.55,0,0,1-.6-0.8,4.25,4.25,0,0,1-.2-1.1v-5.7H454v-2h1.3v-3.2h2.6v3.2H460v2h-2v4.9a1.14,1.14,0,0,0,.3.8,0.84,0.84,0,0,0,.7.2,2.2,2.2,0,0,0,.8-0.1l0.6-.2Z"/><path class="cls-14" d="M464.9,633.9a6.75,6.75,0,0,1-1.4-.2,4.13,4.13,0,0,1-1.1-.7,3.59,3.59,0,0,1-.7-1,3,3,0,0,1,0-2.6,2.84,2.84,0,0,1,.9-1,8.27,8.27,0,0,1,1.3-.7,5,5,0,0,1,1.7-.2,5.7,5.7,0,0,1,1.3.1c0.4,0.1.8,0.2,1.1,0.3v-0.6a2,2,0,0,0-.6-1.5,2.16,2.16,0,0,0-1.7-.5,4.53,4.53,0,0,0-1.6.3,8,8,0,0,0-1.6.8l-0.8-1.6a7.65,7.65,0,0,1,4.1-1.3,4.81,4.81,0,0,1,3.3,1,3.85,3.85,0,0,1,1.2,3v3.1a1.27,1.27,0,0,0,.1.6,0.76,0.76,0,0,0,.5.2v2.2a4.1,4.1,0,0,1-1.1.1,2,2,0,0,1-1.1-.3,1.35,1.35,0,0,1-.5-0.9l-0.1-.5a4,4,0,0,1-1.6,1.3A1.61,1.61,0,0,1,464.9,633.9Zm0.7-1.8a5,5,0,0,0,1.2-.2,1.8,1.8,0,0,0,.9-0.6,1,1,0,0,0,.4-0.7v-1.1l-1-.3a3.4,3.4,0,0,0-1-.1,2.35,2.35,0,0,0-1.6.5,1.25,1.25,0,0,0-.6,1.1,1.61,1.61,0,0,0,.5,1.1,4.22,4.22,0,0,0,1.2.3h0Z"/><path class="cls-14" d="M476.8,633.9a7.27,7.27,0,0,1-2.5-.4,4.9,4.9,0,0,1-2-1.1l1-1.6a7.68,7.68,0,0,0,1.8,1,4.67,4.67,0,0,0,1.7.3,2.66,2.66,0,0,0,1.2-.3,0.74,0.74,0,0,0,.4-0.8,0.89,0.89,0,0,0-.5-0.8c-0.5-.2-1.1-0.4-1.7-0.6a10.31,10.31,0,0,1-1.6-.5,2.38,2.38,0,0,1-1.1-.6,1.34,1.34,0,0,1-.6-0.7,3,3,0,0,1,.1-2.4,3.92,3.92,0,0,1,.8-1,7.46,7.46,0,0,1,1.2-.7,3.89,3.89,0,0,1,1.5-.2,7.61,7.61,0,0,1,2.1.3,4,4,0,0,1,1.8,1l-1,1.5a5.3,5.3,0,0,0-1.5-.8,3.53,3.53,0,0,0-1.4-.3,2,2,0,0,0-1.1.3,0.74,0.74,0,0,0-.4.8,0.48,0.48,0,0,0,.1.4l0.3,0.3,0.6,0.3a9.44,9.44,0,0,0,.9.3c0.7,0.2,1.3.4,1.8,0.5a6.72,6.72,0,0,1,1.2.6,2.7,2.7,0,0,1,.7.8,2,2,0,0,1,.2,1.1,2.84,2.84,0,0,1-1.1,2.3A3.38,3.38,0,0,1,476.8,633.9Z"/><path class="cls-14" d="M482.5,622.4v-2.5H485v2.5h-2.5Zm0,11.4v-10H485v10h-2.5Z"/><path class="cls-14" d="M491.1,633.9a7.27,7.27,0,0,1-2.5-.4,4.9,4.9,0,0,1-2-1.1l1-1.6a7.68,7.68,0,0,0,1.8,1,4.67,4.67,0,0,0,1.7.3,2.66,2.66,0,0,0,1.2-.3,0.74,0.74,0,0,0,.4-0.8,0.89,0.89,0,0,0-.5-0.8c-0.5-.2-1.1-0.4-1.7-0.6a10.31,10.31,0,0,1-1.6-.5,2.38,2.38,0,0,1-1.1-.6,1.34,1.34,0,0,1-.6-0.7,3,3,0,0,1,.1-2.4,3.92,3.92,0,0,1,.8-1,7.46,7.46,0,0,1,1.2-.7,3.89,3.89,0,0,1,1.5-.2,7.61,7.61,0,0,1,2.1.3,4,4,0,0,1,1.8,1l-1,1.5a5.3,5.3,0,0,0-1.5-.8,3.53,3.53,0,0,0-1.4-.3,2,2,0,0,0-1.1.3,0.74,0.74,0,0,0-.4.8,0.48,0.48,0,0,0,.1.4l0.3,0.3,0.6,0.3a9.44,9.44,0,0,0,.9.3c0.7,0.2,1.3.4,1.8,0.5a6.72,6.72,0,0,1,1.2.6,2.7,2.7,0,0,1,.7.8,2,2,0,0,1,.2,1.1,2.84,2.84,0,0,1-1.1,2.3A3.38,3.38,0,0,1,491.1,633.9Z"/><path class="cls-3" d="M144.6,412.6a4.86,4.86,0,0,1-3.4,1.5,5.45,5.45,0,0,1-2.2-.5,5.94,5.94,0,0,1-1.8-1.3,8.17,8.17,0,0,1-1.2-2,5.07,5.07,0,0,1-.4-2.4,6.31,6.31,0,0,1,1.7-4.3,5,5,0,0,1,1.9-1.3,6,6,0,0,1,5.2.2,4.14,4.14,0,0,1,1.8,1.9l-1.8,1.3a3,3,0,0,0-1.3-1.4,3.74,3.74,0,0,0-1.8-.5,3.19,3.19,0,0,0-1.4.3,3.13,3.13,0,0,0-1.1.9,5.39,5.39,0,0,0-.7,1.3,4,4,0,0,0-.3,1.5,4.53,4.53,0,0,0,.3,1.6,3.53,3.53,0,0,0,.8,1.3,3.13,3.13,0,0,0,1.1.9,3.19,3.19,0,0,0,1.4.3,4.18,4.18,0,0,0,3.2-1.6v-0.9h-2.4v-1.7h4.4v6.2h-1.9l-0.1-1.3h0Z"/><path class="cls-3" d="M148.6,414V401.9H153a5.75,5.75,0,0,1,2.6.5,5.55,5.55,0,0,1,3,3.2,6.2,6.2,0,0,1,.4,2.3,7.27,7.27,0,0,1-.4,2.5,5.1,5.1,0,0,1-3.1,3.1,6.9,6.9,0,0,1-2.5.4l-4.4.1h0Zm8-6.1a8.75,8.75,0,0,0-.2-1.6,3.29,3.29,0,0,0-.7-1.3,2.84,2.84,0,0,0-1.1-.8,4,4,0,0,0-1.5-.3h-2v8h2a3.65,3.65,0,0,0,1.5-.3,4.44,4.44,0,0,0,1.1-.8,5.39,5.39,0,0,0,.7-1.3c0.1-.5.1-1.1,0.2-1.6h0Z"/><path class="cls-3" d="M160.7,414V401.9h5.1a2.6,2.6,0,0,1,1.5.4,2.73,2.73,0,0,1,1.2.9,5.67,5.67,0,0,1,.8,1.3,3.9,3.9,0,0,1,0,3,3.53,3.53,0,0,1-.8,1.3,2.73,2.73,0,0,1-1.2.9,4,4,0,0,1-1.5.3h-2.9v4h-2.2Zm2.4-6.1h2.7a1.61,1.61,0,0,0,1.1-.5,1.79,1.79,0,0,0,.4-1.4,2,2,0,0,0-.1-0.8,2.09,2.09,0,0,0-.4-0.6,1,1,0,0,0-.5-0.4,1.27,1.27,0,0,0-.6-0.1h-2.6v3.8h0Z"/><path class="cls-7" d="M477.2,409.5c-1.2-14.2,8.3-26.6,22.5-27.8s27.7,9.2,28.9,23.4A25.8,25.8,0,0,1,477.2,409.5Z"/><path class="cls-3" d="M495.2,412.6a4.86,4.86,0,0,1-3.4,1.5,5.45,5.45,0,0,1-2.2-.5,5.94,5.94,0,0,1-1.8-1.3,8.18,8.18,0,0,1-1.2-2,6.87,6.87,0,0,1-.5-2.4,6.31,6.31,0,0,1,1.7-4.3,5,5,0,0,1,1.9-1.3,6,6,0,0,1,5.2.2,4.14,4.14,0,0,1,1.8,1.9l-1.7,1.3a3,3,0,0,0-1.3-1.4,3.74,3.74,0,0,0-1.8-.5,3.19,3.19,0,0,0-1.4.3,3.13,3.13,0,0,0-1.1.9,5.39,5.39,0,0,0-.7,1.3,4,4,0,0,0-.3,1.5,4.53,4.53,0,0,0,.3,1.6,3.53,3.53,0,0,0,.8,1.3,3.13,3.13,0,0,0,1.1.9,3.19,3.19,0,0,0,1.4.3,4.18,4.18,0,0,0,3.2-1.6v-0.9h-2.4v-1.7h4.4v6.2h-1.9v-1.3h-0.1Z"/><path class="cls-3" d="M499.2,414V401.9h4.4a5.75,5.75,0,0,1,2.6.5,5.55,5.55,0,0,1,3,3.2,6.2,6.2,0,0,1,.4,2.3,7.27,7.27,0,0,1-.4,2.5,5.1,5.1,0,0,1-3.1,3.1,6.9,6.9,0,0,1-2.5.4l-4.4.1h0Zm8-6.1a8.75,8.75,0,0,0-.2-1.6,3.29,3.29,0,0,0-.7-1.3,2.84,2.84,0,0,0-1.1-.8,4,4,0,0,0-1.5-.3h-2v8h2a3.65,3.65,0,0,0,1.5-.3,4.44,4.44,0,0,0,1.1-.8,5.39,5.39,0,0,0,.7-1.3c0.1-.5.1-1.1,0.2-1.6h0Z"/><path class="cls-3" d="M511.3,414V401.9h5.1a2.6,2.6,0,0,1,1.5.4,2.73,2.73,0,0,1,1.2.9,5.67,5.67,0,0,1,.8,1.3,3.9,3.9,0,0,1,0,3,3.53,3.53,0,0,1-.8,1.3,2.73,2.73,0,0,1-1.2.9,4,4,0,0,1-1.5.3h-2.9v4h-2.2Zm2.4-6.1h2.7a1.61,1.61,0,0,0,1.1-.5,1.79,1.79,0,0,0,.4-1.4,2,2,0,0,0-.1-0.8,2.09,2.09,0,0,0-.4-0.6,1,1,0,0,0-.5-0.4,1.27,1.27,0,0,0-.6-0.1h-2.6v3.8h0Z"/><path class="cls-4" d="M191,424.7V412.6h5.3a2.6,2.6,0,0,1,1.5.4,2.73,2.73,0,0,1,1.2.9,5.67,5.67,0,0,1,.8,1.3,4,4,0,0,1,.3,1.5,3.7,3.7,0,0,1-.6,2.1,3.64,3.64,0,0,1-1.6,1.4l2.8,4.5h-2.6l-2.5-4h-2.3v4H191Zm2.4-6.1h2.9c0.2,0,.4-0.1.6-0.1a1,1,0,0,0,.5-0.4l0.3-.6a2,2,0,0,0,.1-0.8,2.2,2.2,0,0,0-.1-0.8,2.09,2.09,0,0,0-.4-0.6,1,1,0,0,0-.5-0.4,1.27,1.27,0,0,0-.6-0.1h-2.8v3.8h0Z"/><path class="cls-4" d="M204.4,424.9a5,5,0,0,1-1.2-.2,2.07,2.07,0,0,1-1-.6,2.36,2.36,0,0,1-.6-0.9,2.15,2.15,0,0,1-.2-1.1,2.66,2.66,0,0,1,.3-1.2,2.36,2.36,0,0,1,.8-0.9,3.38,3.38,0,0,1,1.2-.6,7.72,7.72,0,0,1,1.5-.2,4.87,4.87,0,0,1,1.2.1c0.3,0.1.7,0.2,1,.3v-0.5a1.87,1.87,0,0,0-.5-1.4,2.46,2.46,0,0,0-1.5-.5,3.53,3.53,0,0,0-1.4.3,3.92,3.92,0,0,0-1.4.8l-0.7-1.5a7,7,0,0,1,3.7-1.1,4.46,4.46,0,0,1,3,.9,3.86,3.86,0,0,1,1.1,2.7v2.8a0.75,0.75,0,0,0,.1.5,0.76,0.76,0,0,0,.4.2v1.9a3.4,3.4,0,0,1-1,.1,1.69,1.69,0,0,1-1-.3,1.23,1.23,0,0,1-.4-0.8l-0.1-.5a5.26,5.26,0,0,1-1.4,1.2A3.61,3.61,0,0,1,204.4,424.9Zm0.6-1.7a4.25,4.25,0,0,0,1.1-.2,2.18,2.18,0,0,0,.8-0.5,0.82,0.82,0,0,0,.4-0.6v-1l-0.9-.3a2.77,2.77,0,0,0-.9-0.1,2.3,2.3,0,0,0-1.4.4,1.33,1.33,0,0,0-.6,1,1.16,1.16,0,0,0,.4,1,1.43,1.43,0,0,0,1.1.3h0Z"/><path class="cls-4" d="M211.1,420.3a5.66,5.66,0,0,1,.3-1.8,6,6,0,0,1,.9-1.5,4,4,0,0,1,1.5-1,4.48,4.48,0,0,1,2-.4,5.42,5.42,0,0,1,2.5.6,3.81,3.81,0,0,1,1.5,1.6l-2.2.7a2,2,0,0,0-.8-0.8,2,2,0,0,0-1.1-.3,2.92,2.92,0,0,0-.9.2,1.79,1.79,0,0,0-.7.5,2.18,2.18,0,0,0-.5.8,3.13,3.13,0,0,0,0,2.2,4.05,4.05,0,0,0,.5.9,3,3,0,0,0,.7.5,2.92,2.92,0,0,0,.9.2,2,2,0,0,0,1.1-.3,1.39,1.39,0,0,0,.7-0.8l2.2,0.7a3.53,3.53,0,0,1-1.5,1.7,4.42,4.42,0,0,1-2.5.6,4.61,4.61,0,0,1-4.4-2.9A11.28,11.28,0,0,1,211.1,420.3Z"/><path class="cls-4" d="M228.2,422.7v2.1h-6.9v-2.1h2.4v-5.1a1,1,0,0,1-.5.4c-0.2.1-.5,0.3-0.7,0.4s-0.5.2-.8,0.3a1.7,1.7,0,0,1-.7.1v-2.1a2.35,2.35,0,0,0,.8-0.2,4.05,4.05,0,0,0,.9-0.5,4.23,4.23,0,0,0,.7-0.5,1.51,1.51,0,0,0,.4-0.4h2.3v7.6h2.1Z"/><path class="cls-15" d="M358.7,384.5a91.53,91.53,0,0,1,36.5,7.3"/><polygon class="cls-16" points="409.1 399.3 385.1 397.1 394 391.5 393.5 381 409.1 399.3"/><path class="cls-15" d="M292,384.5a91.53,91.53,0,0,0-36.5,7.3"/><polygon class="cls-16" points="241.6 399.3 257.2 381 256.7 391.5 265.6 397.1 241.6 399.3"/><line class="cls-15" x1="449.6" y1="566.4" x2="449.6" y2="585.2"/><polygon class="cls-16" points="449.6 601 440.5 578.7 449.6 584 458.7 578.7 449.6 601"/><line class="cls-15" x1="449.6" y1="463" x2="449.6" y2="487"/><polygon class="cls-16" points="449.6 502.8 440.5 480.5 449.6 485.8 458.7 480.5 449.6 502.8"/><line class="cls-15" x1="325.1" y1="318.9" x2="325.1" y2="335.5"/><polygon class="cls-16" points="325.1 351.3 316 329 325.1 334.3 334.2 329 325.1 351.3"/><line class="cls-15" x1="247.1" y1="505.7" x2="247.1" y2="583.2"/><polygon class="cls-16" points="247.1 599 238 576.7 247.1 582 256.2 576.7 247.1 599"/><path class="cls-8" d="M442.4,457.9c-22.7,0-41.2-14.6-41.2-32.6s18.5-32.6,41.2-32.6,41.2,14.6,41.2,32.6S465.1,457.9,442.4,457.9Z"/><path class="cls-4" d="M442.4,395.9c21,0,38,13.1,38,29.4s-17,29.4-38,29.4-38-13.1-38-29.4,17-29.4,38-29.4m0-6.5c-11.6,0-22.5,3.5-30.8,10-8.8,6.8-13.6,16-13.6,25.9s4.8,19.1,13.6,25.9a50.49,50.49,0,0,0,30.8,10c11.6,0,22.5-3.5,30.8-10,8.8-6.8,13.6-16,13.6-25.9s-4.8-19.1-13.6-25.9c-8.3-6.4-19.3-10-30.8-10h0Z"/><path class="cls-4" d="M430,438.4a3.26,3.26,0,0,1-2.3,1,4,4,0,0,1-1.5-.3,4.7,4.7,0,0,1-1.2-.9,5.67,5.67,0,0,1-.8-1.3,3.9,3.9,0,0,1,0-3,3.53,3.53,0,0,1,.8-1.3,3.78,3.78,0,0,1,1.2-.9,4,4,0,0,1,3.4.1,2.54,2.54,0,0,1,1.1,1.2l-1,.7a2.19,2.19,0,0,0-.9-1,2.66,2.66,0,0,0-1.2-.3,3.55,3.55,0,0,0-1,.2,5.55,5.55,0,0,0-.8.6,4.05,4.05,0,0,0-.5.9,3.12,3.12,0,0,0,0,2.2,4.05,4.05,0,0,0,.5.9,1.56,1.56,0,0,0,.8.6,1.8,1.8,0,0,0,1,.2,5,5,0,0,0,1.2-.2,2.84,2.84,0,0,0,1-.9v-0.8h-1.6v-0.9h2.7v4h-1l0.1-.8h0Z"/><path class="cls-4" d="M438,432.6h-2.6v6.7h-1.2v-6.7h-2.6v-1.1H438v1.1h0Z"/><path class="cls-4" d="M439,439.3v-7.8h3.3a3.55,3.55,0,0,1,1,.2,2.1,2.1,0,0,1,.8.6,2.18,2.18,0,0,1,.5.8,2.92,2.92,0,0,1,.2.9,3,3,0,0,1-.6,1.8c-0.2.2-.5,0.4-0.7,0.6a3.55,3.55,0,0,1-1,.2h-2.1v2.7H439Zm1.2-3.8h2a0.9,0.9,0,0,0,.5-0.1c0.1-.1.3-0.2,0.4-0.3a0.76,0.76,0,0,0,.2-0.5,1.85,1.85,0,0,0,0-1.2c-0.1-.2-0.2-0.3-0.3-0.5a1.38,1.38,0,0,0-.4-0.3,0.75,0.75,0,0,0-.5-0.1h-2l0.1,3h0Z"/><path class="cls-4" d="M447.2,439.4a2.2,2.2,0,0,1-.8-0.1,1.84,1.84,0,0,1-1-1,0.88,0.88,0,0,1-.1-0.7,1.45,1.45,0,0,1,.2-0.7,2.65,2.65,0,0,1,.5-0.6,2,2,0,0,1,.8-0.4,3.4,3.4,0,0,1,1-.1,2.2,2.2,0,0,1,.8.1,1.85,1.85,0,0,1,.7.2v-0.4a1.28,1.28,0,0,0-.4-1,1.78,1.78,0,0,0-1-.4,2.92,2.92,0,0,0-.9.2,4.05,4.05,0,0,0-.9.5l-0.4-.8a4.89,4.89,0,0,1,2.3-.8,3.29,3.29,0,0,1,1.9.6,2.34,2.34,0,0,1,.7,1.7v2.1a0.35,0.35,0,0,0,.3.4H451v1h-0.6a0.68,0.68,0,0,1-.7-0.7v-0.4a3.92,3.92,0,0,1-1,.8A2.64,2.64,0,0,1,447.2,439.4Zm0.3-.9a1.88,1.88,0,0,0,.8-0.2,1,1,0,0,0,.6-0.5,0.76,0.76,0,0,0,.2-0.4v-0.8c-0.2-.1-0.4-0.1-0.6-0.2s-0.5-.1-0.7-0.1a2.28,2.28,0,0,0-1.1.3,0.75,0.75,0,0,0-.4.7,0.91,0.91,0,0,0,.3.7A0.87,0.87,0,0,0,447.5,438.5Z"/><path class="cls-4" d="M454,439.4a4.3,4.3,0,0,1-2.6-.8l0.5-.8a8.79,8.79,0,0,0,1,.6,3.55,3.55,0,0,0,1,.2,2.92,2.92,0,0,0,.9-0.2,0.71,0.71,0,0,0,.3-0.6,0.51,0.51,0,0,0-.4-0.5c-0.4-.1-0.7-0.3-1.1-0.4a4.65,4.65,0,0,1-.9-0.3l-0.6-.3a1.51,1.51,0,0,1-.4-0.4,1.27,1.27,0,0,1-.1-0.6,2.35,2.35,0,0,1,.2-0.8,2.65,2.65,0,0,1,.5-0.6,2.51,2.51,0,0,1,.7-0.4,2.77,2.77,0,0,1,.9-0.1,5,5,0,0,1,1.2.2,2.07,2.07,0,0,1,1,.6l-0.5.7a2.72,2.72,0,0,0-1.7-.6,2.35,2.35,0,0,0-.8.2,0.71,0.71,0,0,0-.3.6,0.37,0.37,0,0,0,.1.3,0.22,0.22,0,0,0,.2.2,1.47,1.47,0,0,0,.4.2l0.6,0.2c0.4,0.1.7,0.2,1,.3s0.5,0.2.7,0.3a1,1,0,0,1,.4.5,1.27,1.27,0,0,1,.1.6,1.61,1.61,0,0,1-.6,1.3A2.68,2.68,0,0,1,454,439.4Z"/><path class="cls-4" d="M459.9,439.4a5,5,0,0,1-1.2-.2,2,2,0,0,1-.9-0.6,2.08,2.08,0,0,1-.6-1,5.16,5.16,0,0,1-.2-1.1,3.59,3.59,0,0,1,.2-1.1,2.07,2.07,0,0,1,.6-1,2.36,2.36,0,0,1,.9-0.6,2.54,2.54,0,0,1,1.2-.2,5,5,0,0,1,1.2.2,7,7,0,0,1,.9.6,2.36,2.36,0,0,1,.6.9,4.25,4.25,0,0,1,.2,1.1v0.5h-4.6a1.85,1.85,0,0,0,.2.7,1,1,0,0,0,.4.5,1.76,1.76,0,0,0,.5.4,1.27,1.27,0,0,0,.6.1,0.9,0.9,0,0,0,.5-0.1,0.52,0.52,0,0,0,.4-0.2,1.38,1.38,0,0,1,.4-0.3,0.52,0.52,0,0,0,.2-0.4l1,0.3a3.46,3.46,0,0,1-1,1.1A2.41,2.41,0,0,1,459.9,439.4Zm1.8-3.4a1.85,1.85,0,0,0-.2-0.7,1,1,0,0,0-.4-0.5,1.33,1.33,0,0,0-.5-0.3,1.27,1.27,0,0,0-.6-0.1,1.85,1.85,0,0,0-1.2.5,1,1,0,0,0-.4.5,1.45,1.45,0,0,0-.2.7l3.5-.1h0Z"/><path class="cls-4" d="M423.4,424.7V412.6h5.3a2.6,2.6,0,0,1,1.5.4,2.73,2.73,0,0,1,1.2.9,5.67,5.67,0,0,1,.8,1.3,4,4,0,0,1,.3,1.5,3.7,3.7,0,0,1-.6,2.1,3.64,3.64,0,0,1-1.6,1.4l2.8,4.5h-2.6l-2.5-4h-2.3v4h-2.3Zm2.4-6.1h2.9c0.2,0,.4-0.1.6-0.1a1,1,0,0,0,.5-0.4l0.3-.6a2,2,0,0,0,.1-0.8,2.2,2.2,0,0,0-.1-0.8,2.09,2.09,0,0,0-.4-0.6,1,1,0,0,0-.5-0.4,1.27,1.27,0,0,0-.6-0.1h-2.8v3.8h0Z"/><path class="cls-4" d="M442.8,424.7h-2.3v-5a3.17,3.17,0,0,0-.4-1.6,1.61,1.61,0,0,0-1.1-.5c-0.2,0-.4.1-0.6,0.1a1.28,1.28,0,0,0-.6.4l-0.6.6a2,2,0,0,0-.4.8v5.2h-2.3V412.3h2.3v5.1a3.25,3.25,0,0,1,1.3-1.3,4.14,4.14,0,0,1,1.9-.5,3.19,3.19,0,0,1,1.4.3,6.47,6.47,0,0,1,.9.8,2.1,2.1,0,0,1,.4,1.1,5.7,5.7,0,0,1,.1,1.3v5.6h0Z"/><path class="cls-4" d="M448.9,424.9a4.48,4.48,0,0,1-2-.4,4,4,0,0,1-1.5-1,3.77,3.77,0,0,1-.9-1.5,5.25,5.25,0,0,1,0-3.5,6,6,0,0,1,.9-1.5,4,4,0,0,1,1.5-1,4.48,4.48,0,0,1,2-.4,4.77,4.77,0,0,1,2,.4,6.53,6.53,0,0,1,1.5,1,3.77,3.77,0,0,1,.9,1.5,5.25,5.25,0,0,1,0,3.5,6,6,0,0,1-.9,1.5,4,4,0,0,1-1.5,1A4.77,4.77,0,0,1,448.9,424.9Zm-2.3-4.6a4.25,4.25,0,0,0,.2,1.1,2.18,2.18,0,0,0,.5.8,3,3,0,0,0,.7.5,1.91,1.91,0,0,0,1.8,0,1.79,1.79,0,0,0,.7-0.5,1.93,1.93,0,0,0,.5-0.9,3.12,3.12,0,0,0,0-2.2,4.05,4.05,0,0,0-.5-0.9,3,3,0,0,0-.7-0.5,2.12,2.12,0,0,0-1.8,0,1.34,1.34,0,0,0-.7.6,1.93,1.93,0,0,0-.5.9,1.47,1.47,0,0,0-.2,1.1h0Z"/><path class="cls-4" d="M458.5,412.7h2.1l4.6,12.1h-2.4l-1.1-3h-4.2l-1.1,3H454Zm2.7,7.4-1.7-4.7-1.7,4.7h3.4Z"/><path class="cls-4" d="M429.1,539.4V527.3h5.3a3.65,3.65,0,0,1,1.5.3,2.73,2.73,0,0,1,1.2.9,5.67,5.67,0,0,1,.8,1.3,4,4,0,0,1,.3,1.5,3.7,3.7,0,0,1-.6,2.1,3.64,3.64,0,0,1-1.6,1.4l2.8,4.5h-2.6l-2.5-4h-2.3v4l-2.3.1h0Zm2.3-6.1h2.9a1.42,1.42,0,0,0,.6-0.2,1,1,0,0,0,.5-0.4l0.3-.6a2,2,0,0,0,.1-0.8,2.2,2.2,0,0,0-.1-0.8,2.09,2.09,0,0,0-.4-0.6,1,1,0,0,0-.5-0.4,1.27,1.27,0,0,0-.6-0.1h-2.8v3.9h0Z"/><path class="cls-4" d="M445.5,539.5a6.44,6.44,0,0,1-2.4-.5,6.22,6.22,0,0,1-1.9-1.4,6.66,6.66,0,0,1-1.6-4.2,5.93,5.93,0,0,1,.5-2.3,8.17,8.17,0,0,1,1.2-2,5,5,0,0,1,1.9-1.3,6,6,0,0,1,2.4-.5,6.87,6.87,0,0,1,2.4.5,4.89,4.89,0,0,1,1.8,1.4,8.17,8.17,0,0,1,1.2,2,5.7,5.7,0,0,1,.4,2.2,5.87,5.87,0,0,1-.4,2.3,6.15,6.15,0,0,1-1.2,1.9,5.22,5.22,0,0,1-1.9,1.4A6,6,0,0,1,445.5,539.5Zm-3.5-6.2a7.72,7.72,0,0,0,.2,1.5,3.29,3.29,0,0,0,.7,1.3,3.13,3.13,0,0,0,1.1.9,3.19,3.19,0,0,0,3,0,3.13,3.13,0,0,0,1.1-.9,5.39,5.39,0,0,0,.7-1.3,3.89,3.89,0,0,0,.2-1.5,4,4,0,0,0-.3-1.5,5.39,5.39,0,0,0-.7-1.3,3.13,3.13,0,0,0-1.1-.9,3.19,3.19,0,0,0-3,0,3.13,3.13,0,0,0-1.1.9,5.39,5.39,0,0,0-.7,1.3c0,0.5-.1,1-0.1,1.5h0Z"/><path class="cls-4" d="M452.5,533.3a6.11,6.11,0,0,1,3.4-5.5,5.59,5.59,0,0,1,2.5-.5,5.92,5.92,0,0,1,2.9.7,4.14,4.14,0,0,1,1.8,1.9l-1.8,1.2a2.36,2.36,0,0,0-.6-0.9,3,3,0,0,0-.7-0.5c-0.3-.1-0.5-0.2-0.8-0.3a2.49,2.49,0,0,0-.8-0.1,2.6,2.6,0,0,0-1.5.4,3.18,3.18,0,0,0-1.7,2.2,7.84,7.84,0,0,0-.2,1.4,4,4,0,0,0,.3,1.5,5.39,5.39,0,0,0,.7,1.3,3.13,3.13,0,0,0,1.1.9,3.19,3.19,0,0,0,1.4.3,2.77,2.77,0,0,0,.9-0.1,2.6,2.6,0,0,0,1.6-.9,2.18,2.18,0,0,0,.5-0.8l1.9,1.1a3.6,3.6,0,0,1-.8,1.2l-1.2.9a7.83,7.83,0,0,1-1.4.5,7.72,7.72,0,0,1-1.5.2,6.87,6.87,0,0,1-2.4-.5,6.23,6.23,0,0,1-1.8-1.4,8.17,8.17,0,0,1-1.2-2A3.68,3.68,0,0,1,452.5,533.3Z"/><path class="cls-4" d="M464.9,539.4V527.3h2.4V533l5.1-5.8H475l-4.6,5.4,4.9,6.7h-2.6l-3.8-5.2-1.5,1.6v3.6l-2.5.1h0Z"/><path class="cls-14" d="M68.85,37.26h2.67L73.2,42.2l1.68-4.94h2.69L75,44l1.89,4.77,4.22-11.59h3.15L78.22,52.13H75.78L73.2,45.87l-2.58,6.26H68.18l-6-14.91h3.11L69.5,48.81,71.35,44Z"/><path class="cls-14" d="M88.72,42.57v9.56h-2.9V37.22h2.25L95.84,47V37.24h2.9V52.13H96.38Z"/><path class="cls-14" d="M113,39.76h-4.77V52.13h-2.88V39.76h-4.77V37.22H113v2.54Z"/><path class="cls-14" d="M117.63,45.43a5.41,5.41,0,0,1,2,.35,4.55,4.55,0,0,1,1.55,1,4.47,4.47,0,0,1,1,1.51,5.38,5.38,0,0,1,0,4A4.64,4.64,0,0,1,121,53.86a5.28,5.28,0,0,1-1.74,1,6.34,6.34,0,0,1-2.18.37,6.1,6.1,0,0,1-2.93-.69,4.78,4.78,0,0,1-2-1.89L113.77,51a4.37,4.37,0,0,0,1.47,1.3,3.76,3.76,0,0,0,1.83.48,2.6,2.6,0,0,0,1.86-.68,2.44,2.44,0,0,0-1.69-4.25,2.73,2.73,0,0,0-1.29.31,2.53,2.53,0,0,0-1,.86h-2.46a4.46,4.46,0,0,1,.08-0.47l0.21-1q0.13-.64.27-1.43t0.31-1.61l0.84-4.33h7.35V42.7h-5.31L115.68,46a1.77,1.77,0,0,1,.75-0.44A3.77,3.77,0,0,1,117.63,45.43Z"/><path class="cls-14" d="M129,37.22h2.56l5.67,14.91h-3l-1.39-3.72h-5.21l-1.37,3.72h-3Zm3.34,9.16-2.06-5.86-2.14,5.86h4.2Z"/><path class="cls-14" d="M149.22,52.34a4.43,4.43,0,0,1-2.25-.57,4.14,4.14,0,0,1-1.55-1.55v1.91H143V36.8h2.81v6.26a4.24,4.24,0,0,1,1.54-1.56,4.37,4.37,0,0,1,2.24-.56,4.15,4.15,0,0,1,2,.46A4.92,4.92,0,0,1,153,42.64a5.6,5.6,0,0,1,1,1.83,7,7,0,0,1,.35,2.21A6.26,6.26,0,0,1,154,48.9a5.59,5.59,0,0,1-1.08,1.8,5.08,5.08,0,0,1-1.64,1.21A4.76,4.76,0,0,1,149.22,52.34Zm-0.78-2.39a2.92,2.92,0,0,0,1.24-.26,3,3,0,0,0,1-.7,3.18,3.18,0,0,0,.62-1,3.56,3.56,0,0,0,.22-1.26,3.91,3.91,0,0,0-.21-1.28,3.34,3.34,0,0,0-.6-1.07,3,3,0,0,0-.91-0.73,2.46,2.46,0,0,0-1.15-.27,2.58,2.58,0,0,0-1.69.62,4.11,4.11,0,0,0-1.14,1.52V48.1a2.38,2.38,0,0,0,.43.76,3.11,3.11,0,0,0,.64.58,3.07,3.07,0,0,0,.78.38A2.65,2.65,0,0,0,148.44,49.95Z"/><path class="cls-14" d="M156.27,39.59V36.8h2.81v2.79h-2.81Zm0,12.54v-11h2.81v11h-2.81Z"/><path class="cls-14" d="M171.85,52.13H169V46a3.22,3.22,0,0,0-.46-1.93,1.52,1.52,0,0,0-1.28-.61,2.41,2.41,0,0,0-.86.17,3.18,3.18,0,0,0-.83.47,3.85,3.85,0,0,0-.7.72,2.86,2.86,0,0,0-.46.92v6.43h-2.81v-11h2.54v2a4.17,4.17,0,0,1,1.76-1.64,5.66,5.66,0,0,1,2.6-.59,3.32,3.32,0,0,1,1.68.38,2.74,2.74,0,0,1,1,1,4.14,4.14,0,0,1,.49,1.39,9.1,9.1,0,0,1,.14,1.57v6.87Z"/><path class="cls-14" d="M178.87,52.34a5,5,0,0,1-2.1-.44,4.94,4.94,0,0,1-1.66-1.22A5.68,5.68,0,0,1,174,48.86a6.33,6.33,0,0,1-.39-2.24A6.57,6.57,0,0,1,174,44.4a5.84,5.84,0,0,1,1-1.81,4.69,4.69,0,0,1,1.55-1.22,4.44,4.44,0,0,1,2-.44,4.17,4.17,0,0,1,2.19.59,4.26,4.26,0,0,1,1.52,1.53V36.8h2.81V48.9a1,1,0,0,0,.15.63,0.65,0.65,0,0,0,.5.21v2.39a6.41,6.41,0,0,1-1.2.15,2,2,0,0,1-1.24-.38,1.39,1.39,0,0,1-.55-1l-0.06-.69A4,4,0,0,1,181,51.8,4.68,4.68,0,0,1,178.87,52.34Zm0.74-2.39a2.65,2.65,0,0,0,.82-0.14,2.9,2.9,0,0,0,.78-0.39,3.4,3.4,0,0,0,.64-0.59,2.45,2.45,0,0,0,.43-0.74V45.47a3.1,3.1,0,0,0-.47-0.85A3.5,3.5,0,0,0,181.1,44a3.63,3.63,0,0,0-.82-0.45,2.33,2.33,0,0,0-.85-0.17,2.53,2.53,0,0,0-1.17.27,2.76,2.76,0,0,0-.91.75,3.59,3.59,0,0,0-.59,1.08,3.84,3.84,0,0,0-.21,1.26,3.47,3.47,0,0,0,.23,1.28,3.34,3.34,0,0,0,.63,1,2.86,2.86,0,0,0,1,.69A2.94,2.94,0,0,0,179.6,49.95Z"/><path class="cls-14" d="M192,52.34a8.51,8.51,0,0,1-2.71-.44A6.6,6.6,0,0,1,187,50.64l1.05-1.76a9,9,0,0,0,2,1.08,5.26,5.26,0,0,0,1.9.37,2.4,2.4,0,0,0,1.32-.31,1,1,0,0,0,.48-0.9,0.9,0.9,0,0,0-.57-0.86,12.29,12.29,0,0,0-1.85-.63q-1.07-.29-1.83-0.57a4.67,4.67,0,0,1-1.22-.62,2.12,2.12,0,0,1-.67-0.8,2.55,2.55,0,0,1-.21-1.08,3.42,3.42,0,0,1,.33-1.51,3.29,3.29,0,0,1,.91-1.14,4.22,4.22,0,0,1,1.38-.72,5.59,5.59,0,0,1,1.71-.25,7.37,7.37,0,0,1,2.32.36,5.67,5.67,0,0,1,2,1.15l-1.13,1.7a6.59,6.59,0,0,0-1.63-.92,4.44,4.44,0,0,0-1.56-.29,2.26,2.26,0,0,0-1.2.29,1,1,0,0,0-.48.94,0.91,0.91,0,0,0,.12.48,1,1,0,0,0,.37.34,3.56,3.56,0,0,0,.66.28q0.41,0.14,1,.28,1.13,0.29,1.94.59a5.31,5.31,0,0,1,1.32.67,2.39,2.39,0,0,1,.76.87,2.68,2.68,0,0,1,.24,1.19,3.06,3.06,0,0,1-1.2,2.55A5.16,5.16,0,0,1,192,52.34Z"/><path class="cls-14" d="M209.93,51.56a12.53,12.53,0,0,1-1.39.5,5.82,5.82,0,0,1-1.72.25,4,4,0,0,1-1.1-.15,2.41,2.41,0,0,1-.9-0.47,2.3,2.3,0,0,1-.62-0.84,3,3,0,0,1-.23-1.25V43.29h-1.45V41.13H204V37.56h2.81v3.57h2.31v2.16h-2.31v5.38a1,1,0,0,0,.3.83,1.16,1.16,0,0,0,.75.24,2.59,2.59,0,0,0,.86-0.15l0.67-.25Z"/><path class="cls-14" d="M216.21,52.34a6,6,0,0,1-2.41-.46A5.42,5.42,0,0,1,212,50.63a5.51,5.51,0,0,1-1.14-1.82,6.12,6.12,0,0,1,0-4.35A5.52,5.52,0,0,1,212,42.65a5.43,5.43,0,0,1,1.82-1.25,6,6,0,0,1,2.41-.46,6,6,0,0,1,2.4.46,5.46,5.46,0,0,1,1.81,1.25,5.53,5.53,0,0,1,1.14,1.82,6.11,6.11,0,0,1,0,4.35,5.61,5.61,0,0,1-1.13,1.82,5.31,5.31,0,0,1-1.81,1.25A6,6,0,0,1,216.21,52.34Zm-2.88-5.69a3.83,3.83,0,0,0,.22,1.33,3.25,3.25,0,0,0,.61,1,2.72,2.72,0,0,0,.91.68,2.79,2.79,0,0,0,2.27,0,2.73,2.73,0,0,0,.91-0.68,3.24,3.24,0,0,0,.61-1.05,3.92,3.92,0,0,0,.22-1.34,3.86,3.86,0,0,0-.22-1.32,3.24,3.24,0,0,0-.61-1,2.73,2.73,0,0,0-.91-0.68,2.69,2.69,0,0,0-1.13-.24,2.58,2.58,0,0,0-1.13.25,2.85,2.85,0,0,0-.91.69,3.23,3.23,0,0,0-.61,1A3.86,3.86,0,0,0,213.33,46.65Z"/><path class="cls-14" d="M229.16,52.13V37.22h6.59a4.24,4.24,0,0,1,1.9.43,4.92,4.92,0,0,1,1.5,1.13,5.36,5.36,0,0,1,1,1.6,4.81,4.81,0,0,1,.36,1.8,5,5,0,0,1-.72,2.64,4.16,4.16,0,0,1-2,1.71l3.4,5.61H238l-3-5h-2.86v5h-2.9Zm2.9-7.54h3.63a1.53,1.53,0,0,0,.75-0.19,1.9,1.9,0,0,0,.6-0.51,2.56,2.56,0,0,0,.4-0.77,3,3,0,0,0,.15-0.95,2.7,2.7,0,0,0-.17-1,2.53,2.53,0,0,0-.45-0.77,2,2,0,0,0-.65-0.5,1.7,1.7,0,0,0-.75-0.18h-3.51v4.83Z"/><path class="cls-14" d="M249.49,52.23a6.77,6.77,0,0,1-3-.64,7.29,7.29,0,0,1-2.29-1.7,7.89,7.89,0,0,1-2-5.22,7.49,7.49,0,0,1,.56-2.86,7.87,7.87,0,0,1,1.53-2.42,7.32,7.32,0,0,1,2.32-1.67,6.89,6.89,0,0,1,2.92-.62,6.55,6.55,0,0,1,3,.66,7.37,7.37,0,0,1,2.28,1.73,8,8,0,0,1,1.47,2.44,7.68,7.68,0,0,1,.53,2.77,7.56,7.56,0,0,1-.55,2.85A7.73,7.73,0,0,1,254.72,50a7.27,7.27,0,0,1-2.31,1.66A6.89,6.89,0,0,1,249.49,52.23Zm-4.33-7.56a6,6,0,0,0,.29,1.87,5,5,0,0,0,.85,1.6,4.22,4.22,0,0,0,1.37,1.11,4.23,4.23,0,0,0,3.7,0,4.22,4.22,0,0,0,1.37-1.14,5.1,5.1,0,0,0,.84-1.61,6,6,0,0,0,.28-1.82,5.83,5.83,0,0,0-.3-1.87,5.17,5.17,0,0,0-.86-1.6,4.11,4.11,0,0,0-1.37-1.1,4.25,4.25,0,0,0-3.69,0,4.14,4.14,0,0,0-1.36,1.13,5.09,5.09,0,0,0-.83,1.6A6,6,0,0,0,245.16,44.67Z"/><path class="cls-14" d="M259,52.13V37.22h6.59a4.24,4.24,0,0,1,1.9.43,4.93,4.93,0,0,1,1.5,1.13,5.37,5.37,0,0,1,1,1.6,4.82,4.82,0,0,1,.36,1.8,5,5,0,0,1-.72,2.64,4.16,4.16,0,0,1-2,1.71l3.4,5.61H267.8l-3-5H261.9v5H259Zm2.9-7.54h3.63a1.53,1.53,0,0,0,.75-0.19,1.9,1.9,0,0,0,.6-0.51,2.58,2.58,0,0,0,.4-0.77,3,3,0,0,0,.15-0.95,2.69,2.69,0,0,0-.17-1,2.52,2.52,0,0,0-.45-0.77,2.05,2.05,0,0,0-.65-0.5,1.69,1.69,0,0,0-.75-0.18H261.9v4.83Z"/><path class="cls-14" d="M281.28,49.59v2.54h-8.53V49.59h3V43.23a2.27,2.27,0,0,1-.6.51,8.18,8.18,0,0,1-.89.49,6.3,6.3,0,0,1-1,.38,3.38,3.38,0,0,1-.91.15V42.13a2.37,2.37,0,0,0,.92-0.24,7.92,7.92,0,0,0,1.07-.58,8.79,8.79,0,0,0,.91-0.66,2.22,2.22,0,0,0,.49-0.51h2.88v9.45h2.67Z"/><path class="cls-14" d="M283.32,54.54l0.57-2.5H283V49.11h2.44V52l-0.86,2.5h-1.26Z"/><path class="cls-14" d="M293.59,38.9V36.8H295v2.1h-1.43Zm0,13.23V41.19H295V52.13h-1.43Z"/><path class="cls-14" d="M307.37,52.13h-1.43V46a5.33,5.33,0,0,0-.58-2.83,2,2,0,0,0-1.77-.88,3.64,3.64,0,0,0-1.26.23,4.26,4.26,0,0,0-1.17.65,5,5,0,0,0-1,1,3.91,3.91,0,0,0-.61,1.25v6.7h-1.43V41.19h1.3v2.48a5.14,5.14,0,0,1,1.92-1.93,5.27,5.27,0,0,1,2.72-.73,3.22,3.22,0,0,1,1.53.34,2.62,2.62,0,0,1,1,.94,4.36,4.36,0,0,1,.55,1.49,10.52,10.52,0,0,1,.17,2v6.4Z"/><path class="cls-14" d="M310.41,38.9V36.8h1.43v2.1h-1.43Zm0,13.23V41.19h1.43V52.13h-1.43Z"/><path class="cls-14" d="M320.24,51.6l-0.37.17-0.56.21a6.35,6.35,0,0,1-.71.19,4.09,4.09,0,0,1-.84.08,3.06,3.06,0,0,1-.88-0.13,2,2,0,0,1-.73-0.39,1.9,1.9,0,0,1-.5-0.66,2.14,2.14,0,0,1-.19-0.92V42.32h-1.51V41.19h1.51v-3.7h1.43v3.7h2.52v1.13h-2.52v7.43a1.14,1.14,0,0,0,.43.89,1.48,1.48,0,0,0,.89.28,2.68,2.68,0,0,0,1.07-.2,4.68,4.68,0,0,0,.59-0.28Z"/><path class="cls-14" d="M322,38.9V36.8h1.43v2.1H322Zm0,13.23V41.19h1.43V52.13H322Z"/><path class="cls-14" d="M329.35,52.34a3.86,3.86,0,0,1-1.44-.26,3.62,3.62,0,0,1-1.16-.72,3.26,3.26,0,0,1-1-2.42,2.69,2.69,0,0,1,.34-1.32,3.19,3.19,0,0,1,.94-1,4.64,4.64,0,0,1,1.45-.68,6.68,6.68,0,0,1,1.85-.24,10.07,10.07,0,0,1,1.7.15,7.38,7.38,0,0,1,1.53.42v-1a3.17,3.17,0,0,0-.82-2.3,3,3,0,0,0-2.27-.85,4.82,4.82,0,0,0-1.72.34,8.31,8.31,0,0,0-1.79,1l-0.5-.95A7.39,7.39,0,0,1,330.55,41a4.42,4.42,0,0,1,3.23,1.15A4.27,4.27,0,0,1,335,45.35v4.94a0.49,0.49,0,0,0,.53.59v1.26a3.41,3.41,0,0,1-.55.06,1.23,1.23,0,0,1-.85-0.27,1,1,0,0,1-.33-0.76l0-.86a5,5,0,0,1-1.9,1.51A5.86,5.86,0,0,1,329.35,52.34Zm0.34-1.09a4.94,4.94,0,0,0,2-.42,3.35,3.35,0,0,0,1.42-1.11,1.3,1.3,0,0,0,.28-0.41,1,1,0,0,0,.09-0.41V47.11a8.8,8.8,0,0,0-1.48-.42,8.31,8.31,0,0,0-1.56-.15,4.35,4.35,0,0,0-2.46.63,1.92,1.92,0,0,0-.95,1.66,2.25,2.25,0,0,0,.2.94,2.38,2.38,0,0,0,.55.77,2.54,2.54,0,0,0,.83.51A2.8,2.8,0,0,0,329.69,51.25Z"/><path class="cls-14" d="M343.21,51.6l-0.37.17-0.56.21a6.35,6.35,0,0,1-.71.19,4.09,4.09,0,0,1-.84.08,3.06,3.06,0,0,1-.88-0.13,2,2,0,0,1-.73-0.39,1.9,1.9,0,0,1-.5-0.66,2.14,2.14,0,0,1-.19-0.92V42.32h-1.51V41.19h1.51v-3.7h1.43v3.7h2.52v1.13h-2.52v7.43a1.14,1.14,0,0,0,.43.89,1.48,1.48,0,0,0,.89.28,2.68,2.68,0,0,0,1.07-.2,4.68,4.68,0,0,0,.59-0.28Z"/><path class="cls-14" d="M345,38.9V36.8h1.43v2.1H345Zm0,13.23V41.19h1.43V52.13H345Z"/><path class="cls-14" d="M358.77,52.13h-1.43V46a5.33,5.33,0,0,0-.58-2.83A2,2,0,0,0,355,42.3a3.64,3.64,0,0,0-1.26.23,4.26,4.26,0,0,0-1.17.65,5,5,0,0,0-1,1,3.91,3.91,0,0,0-.61,1.25v6.7h-1.43V41.19h1.3v2.48a5.14,5.14,0,0,1,1.92-1.93,5.27,5.27,0,0,1,2.72-.73,3.22,3.22,0,0,1,1.53.34,2.62,2.62,0,0,1,1,.94,4.36,4.36,0,0,1,.55,1.49,10.52,10.52,0,0,1,.17,2v6.4Z"/><path class="cls-14" d="M366.21,52.28a4.52,4.52,0,0,1-2.07-.47,5.33,5.33,0,0,1-1.62-1.25,5.72,5.72,0,0,1-1.06-1.78,5.88,5.88,0,0,1-.38-2.08,6.47,6.47,0,0,1,.37-2.17,5.59,5.59,0,0,1,1-1.82,5.08,5.08,0,0,1,1.61-1.24,4.61,4.61,0,0,1,2.07-.46,4.21,4.21,0,0,1,2.44.7,6.75,6.75,0,0,1,1.76,1.77V41.19h1.28v11a4.47,4.47,0,0,1-.43,2,4.31,4.31,0,0,1-1.16,1.46,4.91,4.91,0,0,1-1.7.88,7.14,7.14,0,0,1-2.07.29,6,6,0,0,1-3-.67,5.36,5.36,0,0,1-1.87-1.81l0.88-.69A3.94,3.94,0,0,0,364,55.19a5.46,5.46,0,0,0,2.31.49,5.09,5.09,0,0,0,1.51-.22,3.73,3.73,0,0,0,1.25-.65,3.08,3.08,0,0,0,.85-1.09,3.55,3.55,0,0,0,.31-1.54V50a4.56,4.56,0,0,1-1.72,1.66A4.63,4.63,0,0,1,366.21,52.28Zm0.4-1.2a3.47,3.47,0,0,0,1.24-.23,4.15,4.15,0,0,0,1.1-.62,4.06,4.06,0,0,0,.83-0.87,2.69,2.69,0,0,0,.44-1V45a4.29,4.29,0,0,0-.63-1.09,4.36,4.36,0,0,0-.9-0.86,4.56,4.56,0,0,0-1.08-.57,3.39,3.39,0,0,0-1.17-.21,3.43,3.43,0,0,0-1.65.39,3.94,3.94,0,0,0-1.23,1,4.53,4.53,0,0,0-.77,1.43,5.13,5.13,0,0,0-.26,1.62,4.54,4.54,0,0,0,.31,1.68,4.42,4.42,0,0,0,.87,1.4,4.18,4.18,0,0,0,1.29.94A3.7,3.7,0,0,0,366.61,51.08Z"/><path class="cls-14" d="M382.9,52.34a3.86,3.86,0,0,1-1.44-.26,3.62,3.62,0,0,1-1.16-.72,3.26,3.26,0,0,1-1-2.42,2.69,2.69,0,0,1,.34-1.32,3.19,3.19,0,0,1,.94-1,4.64,4.64,0,0,1,1.45-.68,6.68,6.68,0,0,1,1.85-.24,10.07,10.07,0,0,1,1.7.15,7.38,7.38,0,0,1,1.53.42v-1a3.17,3.17,0,0,0-.82-2.3,3,3,0,0,0-2.27-.85,4.82,4.82,0,0,0-1.72.34,8.31,8.31,0,0,0-1.79,1l-0.5-.95A7.39,7.39,0,0,1,384.1,41a4.42,4.42,0,0,1,3.23,1.15,4.27,4.27,0,0,1,1.18,3.19v4.94a0.49,0.49,0,0,0,.53.59v1.26a3.41,3.41,0,0,1-.55.06,1.23,1.23,0,0,1-.85-0.27,1,1,0,0,1-.33-0.76l0-.86a5,5,0,0,1-1.9,1.51A5.86,5.86,0,0,1,382.9,52.34Zm0.34-1.09a4.94,4.94,0,0,0,2-.42,3.35,3.35,0,0,0,1.42-1.11,1.3,1.3,0,0,0,.28-0.41,1,1,0,0,0,.09-0.41V47.11a8.8,8.8,0,0,0-1.48-.42,8.31,8.31,0,0,0-1.56-.15,4.35,4.35,0,0,0-2.46.63,1.92,1.92,0,0,0-.95,1.66,2.25,2.25,0,0,0,.2.94,2.38,2.38,0,0,0,.55.77,2.54,2.54,0,0,0,.83.51A2.8,2.8,0,0,0,383.24,51.25Z"/><path class="cls-14" d="M402.54,52.34a4.32,4.32,0,0,1-2.45-.7,5.59,5.59,0,0,1-1.71-1.77V56.6H397V41.19h1.28v2.12A5.29,5.29,0,0,1,400,41.64a4.46,4.46,0,0,1,2.33-.64,4.58,4.58,0,0,1,2.08.47A5.37,5.37,0,0,1,406,42.73a5.85,5.85,0,0,1,1.08,1.82,6,6,0,0,1,.39,2.12,6.61,6.61,0,0,1-.36,2.18,5.56,5.56,0,0,1-1,1.81,4.88,4.88,0,0,1-1.58,1.23A4.46,4.46,0,0,1,402.54,52.34Zm-0.4-1.26a3.41,3.41,0,0,0,1.61-.38,4,4,0,0,0,1.24-1,4.48,4.48,0,0,0,.79-1.41,4.92,4.92,0,0,0,.27-1.63,4.52,4.52,0,0,0-.32-1.68,4.65,4.65,0,0,0-.86-1.41,4.09,4.09,0,0,0-1.29-1,3.67,3.67,0,0,0-1.61-.36,3.31,3.31,0,0,0-1.14.22,4.72,4.72,0,0,0-1.11.59,4,4,0,0,0-.88.86,2.32,2.32,0,0,0-.45,1v3.36a5,5,0,0,0,.64,1.09,4.52,4.52,0,0,0,.88.87,4.23,4.23,0,0,0,1.06.58A3.36,3.36,0,0,0,402.14,51.08Z"/><path class="cls-14" d="M415.37,42.45a4.49,4.49,0,0,0-2.52.8,4,4,0,0,0-1.51,2.08v6.8h-1.43V41.19h1.34v2.63a5,5,0,0,1,1.64-2,3.8,3.8,0,0,1,2.21-.71l0.27,0v1.3Z"/><path class="cls-14" d="M421.4,52.34a5.19,5.19,0,0,1-2.18-.45,5.34,5.34,0,0,1-1.71-1.23,5.56,5.56,0,0,1-1.12-1.81,5.94,5.94,0,0,1-.4-2.16,5.84,5.84,0,0,1,.41-2.18,5.75,5.75,0,0,1,1.13-1.81,5.52,5.52,0,0,1,1.71-1.24A5,5,0,0,1,421.4,41a5.11,5.11,0,0,1,2.17.46,5.49,5.49,0,0,1,1.72,1.24,5.75,5.75,0,0,1,1.13,1.81,5.86,5.86,0,0,1,.41,2.18,5.94,5.94,0,0,1-.4,2.16,5.57,5.57,0,0,1-1.12,1.81,5.32,5.32,0,0,1-1.72,1.23A5.26,5.26,0,0,1,421.4,52.34Zm-4-5.63a4.57,4.57,0,0,0,.32,1.71,4.64,4.64,0,0,0,.85,1.39,3.84,3.84,0,0,0,1.26.93,3.63,3.63,0,0,0,1.54.34,3.53,3.53,0,0,0,1.54-.35,4.1,4.1,0,0,0,1.27-.94,4.5,4.5,0,0,0,.86-1.4,4.84,4.84,0,0,0,0-3.43,4.47,4.47,0,0,0-.86-1.41,4.1,4.1,0,0,0-1.27-.94,3.53,3.53,0,0,0-1.54-.35,3.47,3.47,0,0,0-1.53.35,4,4,0,0,0-1.26,1,4.6,4.6,0,0,0-.86,1.42A4.73,4.73,0,0,0,417.43,46.71Z"/><path class="cls-14" d="M429.29,36.8h1.43V49.65a1.31,1.31,0,0,0,.34,1A1.25,1.25,0,0,0,432,51a2.84,2.84,0,0,0,.55-0.06,3.6,3.6,0,0,0,.59-0.17l0.25,1.16a4.7,4.7,0,0,1-1,.27,5.72,5.72,0,0,1-1,.1,2.12,2.12,0,0,1-1.55-.56,2.09,2.09,0,0,1-.57-1.56V36.8Z"/><path class="cls-14" d="M434.94,38.9V36.8h1.43v2.1h-1.43Zm0,13.23V41.19h1.43V52.13h-1.43Z"/><path class="cls-14" d="M440,52.13V42.32h-1.51V41.19H440V40.9a5.15,5.15,0,0,1,.86-3.16,2.79,2.79,0,0,1,2.35-1.14,4.23,4.23,0,0,1,1.26.19,3.67,3.67,0,0,1,1,.5l-0.44,1A2.13,2.13,0,0,0,444.4,38a3.09,3.09,0,0,0-.87-0.13,1.73,1.73,0,0,0-1.53.78,4,4,0,0,0-.52,2.25v0.34h3v1.13h-3v9.81H440Z"/><path class="cls-14" d="M450.63,52.34a5.26,5.26,0,0,1-2.19-.45,5.38,5.38,0,0,1-1.73-1.24,5.76,5.76,0,0,1-1.14-1.82,5.9,5.9,0,0,1-.41-2.21,5.76,5.76,0,0,1,.41-2.17,5.64,5.64,0,0,1,1.13-1.79,5.4,5.4,0,0,1,1.73-1.22,5.54,5.54,0,0,1,4.38,0,5.22,5.22,0,0,1,1.71,1.23,5.71,5.71,0,0,1,1.11,1.79,5.77,5.77,0,0,1,.4,2.14v0.34a0.85,0.85,0,0,1,0,.23h-9.37A4.59,4.59,0,0,0,447,48.8a4.45,4.45,0,0,0,.89,1.29,4,4,0,0,0,1.25.85,3.74,3.74,0,0,0,1.5.3,3.88,3.88,0,0,0,1-.15,4.24,4.24,0,0,0,1-.4,3.59,3.59,0,0,0,.8-0.62,2.66,2.66,0,0,0,.55-0.81l1.24,0.34a3.64,3.64,0,0,1-.71,1.1,5,5,0,0,1-1.07.86,5.25,5.25,0,0,1-1.34.57A5.84,5.84,0,0,1,450.63,52.34Zm4-6.26a4.43,4.43,0,0,0-.41-1.61,4.37,4.37,0,0,0-.88-1.25,3.95,3.95,0,0,0-5.5,0,4,4,0,0,0-.86,1.26,4.75,4.75,0,0,0-.39,1.6h8Z"/><path class="cls-14" d="M463.69,42.45a4.49,4.49,0,0,0-2.52.8,4,4,0,0,0-1.51,2.08v6.8h-1.43V41.19h1.34v2.63a5,5,0,0,1,1.64-2,3.8,3.8,0,0,1,2.21-.71l0.27,0v1.3Z"/><path class="cls-14" d="M468.21,52.34a3.86,3.86,0,0,1-1.44-.26,3.62,3.62,0,0,1-1.16-.72,3.26,3.26,0,0,1-1-2.42,2.69,2.69,0,0,1,.34-1.32,3.19,3.19,0,0,1,.94-1,4.64,4.64,0,0,1,1.45-.68,6.68,6.68,0,0,1,1.85-.24,10.07,10.07,0,0,1,1.7.15,7.38,7.38,0,0,1,1.53.42v-1a3.17,3.17,0,0,0-.82-2.3,3,3,0,0,0-2.27-.85,4.82,4.82,0,0,0-1.72.34,8.31,8.31,0,0,0-1.79,1l-0.5-.95A7.39,7.39,0,0,1,469.4,41a4.42,4.42,0,0,1,3.23,1.15,4.27,4.27,0,0,1,1.18,3.19v4.94a0.49,0.49,0,0,0,.53.59v1.26a3.41,3.41,0,0,1-.55.06,1.23,1.23,0,0,1-.85-0.27,1,1,0,0,1-.33-0.76l0-.86a5,5,0,0,1-1.9,1.51A5.86,5.86,0,0,1,468.21,52.34Zm0.34-1.09a4.94,4.94,0,0,0,2-.42A3.35,3.35,0,0,0,472,49.71a1.3,1.3,0,0,0,.28-0.41,1,1,0,0,0,.09-0.41V47.11a8.8,8.8,0,0,0-1.48-.42,8.31,8.31,0,0,0-1.56-.15,4.35,4.35,0,0,0-2.46.63,1.92,1.92,0,0,0-.95,1.66,2.25,2.25,0,0,0,.2.94,2.38,2.38,0,0,0,.55.77,2.54,2.54,0,0,0,.83.51A2.8,2.8,0,0,0,468.54,51.25Z"/><path class="cls-14" d="M482.07,51.6l-0.37.17-0.56.21a6.35,6.35,0,0,1-.71.19,4.09,4.09,0,0,1-.84.08,3.06,3.06,0,0,1-.88-0.13,2,2,0,0,1-.73-0.39,1.9,1.9,0,0,1-.5-0.66,2.14,2.14,0,0,1-.19-0.92V42.32h-1.51V41.19h1.51v-3.7h1.43v3.7h2.52v1.13h-2.52v7.43a1.14,1.14,0,0,0,.43.89,1.48,1.48,0,0,0,.89.28,2.68,2.68,0,0,0,1.07-.2,4.68,4.68,0,0,0,.59-0.28Z"/><path class="cls-14" d="M488.24,52.34a5.19,5.19,0,0,1-2.18-.45,5.34,5.34,0,0,1-1.71-1.23,5.56,5.56,0,0,1-1.12-1.81,5.94,5.94,0,0,1-.4-2.16,5.84,5.84,0,0,1,.41-2.18,5.75,5.75,0,0,1,1.13-1.81,5.52,5.52,0,0,1,1.71-1.24,5,5,0,0,1,2.16-.46,5.11,5.11,0,0,1,2.17.46,5.49,5.49,0,0,1,1.72,1.24,5.75,5.75,0,0,1,1.13,1.81,5.86,5.86,0,0,1,.41,2.18,5.94,5.94,0,0,1-.4,2.16,5.57,5.57,0,0,1-1.12,1.81,5.32,5.32,0,0,1-1.72,1.23A5.26,5.26,0,0,1,488.24,52.34Zm-4-5.63a4.57,4.57,0,0,0,.32,1.71,4.64,4.64,0,0,0,.85,1.39,3.84,3.84,0,0,0,1.26.93,3.63,3.63,0,0,0,1.54.34,3.53,3.53,0,0,0,1.54-.35,4.1,4.1,0,0,0,1.27-.94,4.5,4.5,0,0,0,.86-1.4,4.84,4.84,0,0,0,0-3.43,4.47,4.47,0,0,0-.86-1.41,4.1,4.1,0,0,0-1.27-.94,3.53,3.53,0,0,0-1.54-.35,3.47,3.47,0,0,0-1.53.35,4,4,0,0,0-1.26,1,4.6,4.6,0,0,0-.86,1.42A4.73,4.73,0,0,0,484.27,46.71Z"/><path class="cls-14" d="M501.53,42.45a4.49,4.49,0,0,0-2.52.8,4,4,0,0,0-1.51,2.08v6.8h-1.43V41.19h1.34v2.63a5,5,0,0,1,1.64-2,3.8,3.8,0,0,1,2.21-.71l0.27,0v1.3Z"/><path class="cls-14" d="M504.07,55.49l0.33,0h0.3a1.42,1.42,0,0,0,.6-0.1,1.12,1.12,0,0,0,.43-0.46,7.69,7.69,0,0,0,.47-1q0.26-.67.75-1.81l-4.77-10.94h1.47l4.05,9.62,3.76-9.62h1.37L507.16,55.3a2.57,2.57,0,0,1-.77,1.06,2.19,2.19,0,0,1-1.46.45h-0.4l-0.46-.05V55.49Z"/><path class="cls-14" d="M525.2,52.34a4.32,4.32,0,0,1-2.45-.7A5.59,5.59,0,0,1,521,49.86V56.6h-1.43V41.19h1.28v2.12a5.29,5.29,0,0,1,1.74-1.67A4.46,4.46,0,0,1,525,41a4.58,4.58,0,0,1,2.08.47,5.37,5.37,0,0,1,1.64,1.26,5.85,5.85,0,0,1,1.08,1.82,6,6,0,0,1,.39,2.12,6.61,6.61,0,0,1-.36,2.18,5.56,5.56,0,0,1-1,1.81,4.88,4.88,0,0,1-1.58,1.23A4.46,4.46,0,0,1,525.2,52.34Zm-0.4-1.26a3.41,3.41,0,0,0,1.61-.38,4,4,0,0,0,1.24-1,4.48,4.48,0,0,0,.79-1.41,4.92,4.92,0,0,0,.27-1.63,4.52,4.52,0,0,0-.32-1.68,4.65,4.65,0,0,0-.86-1.41,4.09,4.09,0,0,0-1.29-1,3.67,3.67,0,0,0-1.61-.36,3.31,3.31,0,0,0-1.14.22,4.72,4.72,0,0,0-1.11.59,4,4,0,0,0-.88.86,2.32,2.32,0,0,0-.45,1v3.36a5,5,0,0,0,.64,1.09,4.52,4.52,0,0,0,.88.87,4.23,4.23,0,0,0,1.06.58A3.36,3.36,0,0,0,524.8,51.08Z"/><path class="cls-14" d="M535.32,52.34a3.86,3.86,0,0,1-1.44-.26,3.62,3.62,0,0,1-1.16-.72,3.26,3.26,0,0,1-1-2.42,2.69,2.69,0,0,1,.34-1.32,3.19,3.19,0,0,1,.94-1,4.64,4.64,0,0,1,1.45-.68,6.68,6.68,0,0,1,1.85-.24,10.07,10.07,0,0,1,1.7.15,7.38,7.38,0,0,1,1.53.42v-1a3.17,3.17,0,0,0-.82-2.3,3,3,0,0,0-2.27-.85,4.82,4.82,0,0,0-1.72.34,8.31,8.31,0,0,0-1.79,1l-0.5-.95A7.39,7.39,0,0,1,536.52,41a4.42,4.42,0,0,1,3.23,1.15,4.27,4.27,0,0,1,1.18,3.19v4.94a0.49,0.49,0,0,0,.53.59v1.26a3.41,3.41,0,0,1-.55.06,1.23,1.23,0,0,1-.85-0.27,1,1,0,0,1-.33-0.76l0-.86a5,5,0,0,1-1.9,1.51A5.86,5.86,0,0,1,535.32,52.34Zm0.34-1.09a4.94,4.94,0,0,0,2-.42,3.35,3.35,0,0,0,1.42-1.11,1.3,1.3,0,0,0,.28-0.41,1,1,0,0,0,.09-0.41V47.11a8.8,8.8,0,0,0-1.48-.42,8.31,8.31,0,0,0-1.56-.15,4.35,4.35,0,0,0-2.46.63,1.92,1.92,0,0,0-.95,1.66,2.25,2.25,0,0,0,.2.94,2.38,2.38,0,0,0,.55.77,2.54,2.54,0,0,0,.83.51A2.8,2.8,0,0,0,535.66,51.25Z"/><path class="cls-14" d="M549.18,51.6l-0.37.17-0.56.21a6.35,6.35,0,0,1-.71.19,4.09,4.09,0,0,1-.84.08,3.06,3.06,0,0,1-.88-0.13,2,2,0,0,1-.73-0.39,1.9,1.9,0,0,1-.5-0.66,2.14,2.14,0,0,1-.19-0.92V42.32h-1.51V41.19h1.51v-3.7h1.43v3.7h2.52v1.13h-2.52v7.43a1.14,1.14,0,0,0,.43.89,1.48,1.48,0,0,0,.89.28,2.68,2.68,0,0,0,1.07-.2,4.68,4.68,0,0,0,.59-0.28Z"/><path class="cls-14" d="M560.17,52.13h-1.43V46a4.93,4.93,0,0,0-.64-2.79,2.14,2.14,0,0,0-1.88-.92,3.21,3.21,0,0,0-1.21.24,4.47,4.47,0,0,0-1.12.66,4.55,4.55,0,0,0-.91,1,4.18,4.18,0,0,0-.58,1.24v6.7H551V36.8h1.43v6.87a5,5,0,0,1,1.81-2,4.67,4.67,0,0,1,2.5-.71,3.36,3.36,0,0,1,1.6.35,3,3,0,0,1,1.07,1A4.22,4.22,0,0,1,560,43.8a9.08,9.08,0,0,1,.19,1.92v6.4Z"/><path class="cls-14" d="M576.69,41.19h1.41l-4.7,10.94h-1.18l-2.35-5.59-2.33,5.59h-1.18l-4.7-10.94H563l4,9.47,2.08-5-1.87-4.45h1.2l1.43,3.57,1.43-3.57h1.22l-1.87,4.45,2.08,5Z"/><path class="cls-14" d="M582.47,52.34a3.86,3.86,0,0,1-1.44-.26,3.62,3.62,0,0,1-1.16-.72,3.26,3.26,0,0,1-1-2.42,2.69,2.69,0,0,1,.34-1.32,3.19,3.19,0,0,1,.94-1,4.64,4.64,0,0,1,1.45-.68,6.68,6.68,0,0,1,1.85-.24,10.07,10.07,0,0,1,1.7.15,7.38,7.38,0,0,1,1.53.42v-1a3.17,3.17,0,0,0-.82-2.3,3,3,0,0,0-2.27-.85,4.82,4.82,0,0,0-1.72.34,8.31,8.31,0,0,0-1.79,1l-0.5-.95A7.39,7.39,0,0,1,583.67,41a4.42,4.42,0,0,1,3.23,1.15,4.27,4.27,0,0,1,1.18,3.19v4.94a0.49,0.49,0,0,0,.53.59v1.26a3.41,3.41,0,0,1-.55.06,1.23,1.23,0,0,1-.85-0.27,1,1,0,0,1-.33-0.76l0-.86a5,5,0,0,1-1.9,1.51A5.86,5.86,0,0,1,582.47,52.34Zm0.34-1.09a4.94,4.94,0,0,0,2-.42,3.35,3.35,0,0,0,1.42-1.11,1.3,1.3,0,0,0,.28-0.41,1,1,0,0,0,.09-0.41V47.11a8.8,8.8,0,0,0-1.48-.42,8.31,8.31,0,0,0-1.56-.15,4.35,4.35,0,0,0-2.46.63,1.92,1.92,0,0,0-.95,1.66,2.25,2.25,0,0,0,.2.94,2.38,2.38,0,0,0,.55.77,2.54,2.54,0,0,0,.83.51A2.8,2.8,0,0,0,582.8,51.25Z"/><path class="cls-14" d="M591.52,55.49l0.33,0h0.3a1.42,1.42,0,0,0,.6-0.1,1.12,1.12,0,0,0,.43-0.46,7.69,7.69,0,0,0,.47-1q0.26-.67.75-1.81l-4.77-10.94h1.47l4.05,9.62,3.76-9.62h1.37L594.61,55.3a2.57,2.57,0,0,1-.77,1.06,2.19,2.19,0,0,1-1.46.45H592l-0.46-.05V55.49Z"/><path class="cls-14" d="M110.61,77.54a3.86,3.86,0,0,1-1.44-.26,3.62,3.62,0,0,1-1.16-.72,3.26,3.26,0,0,1-1-2.42,2.69,2.69,0,0,1,.34-1.32,3.2,3.2,0,0,1,.95-1,4.63,4.63,0,0,1,1.45-.68,6.69,6.69,0,0,1,1.85-.24,10.09,10.09,0,0,1,1.7.15,7.38,7.38,0,0,1,1.53.42v-1a3.18,3.18,0,0,0-.82-2.3,3,3,0,0,0-2.27-.85,4.83,4.83,0,0,0-1.72.34,8.31,8.31,0,0,0-1.78,1l-0.5-.95a7.39,7.39,0,0,1,4.12-1.43A4.42,4.42,0,0,1,115,67.35a4.27,4.27,0,0,1,1.18,3.19v4.94a0.49,0.49,0,0,0,.52.59v1.26a3.41,3.41,0,0,1-.55.06,1.23,1.23,0,0,1-.85-0.27,1,1,0,0,1-.33-0.76l0-.86a5,5,0,0,1-1.9,1.51A5.85,5.85,0,0,1,110.61,77.54Zm0.34-1.09a4.94,4.94,0,0,0,2-.42,3.35,3.35,0,0,0,1.42-1.11,1.31,1.31,0,0,0,.28-0.41,1,1,0,0,0,.09-0.41V72.31a8.81,8.81,0,0,0-1.48-.42,8.32,8.32,0,0,0-1.56-.15,4.35,4.35,0,0,0-2.46.63,1.92,1.92,0,0,0-.94,1.66,2.27,2.27,0,0,0,.2.94,2.39,2.39,0,0,0,.55.77,2.55,2.55,0,0,0,.83.51A2.8,2.8,0,0,0,110.94,76.45Z"/><path class="cls-14" d="M122.94,77.54a7.62,7.62,0,0,1-2.5-.42,6,6,0,0,1-2.1-1.22l0.65-1a7.14,7.14,0,0,0,1.88,1.13,5.51,5.51,0,0,0,2,.38,3.7,3.7,0,0,0,2.11-.54,1.73,1.73,0,0,0,.79-1.52,1.32,1.32,0,0,0-.21-0.77,1.83,1.83,0,0,0-.62-0.54,4.86,4.86,0,0,0-1-.41q-0.62-.18-1.44-0.37t-1.64-.46a5,5,0,0,1-1.14-.52,1.89,1.89,0,0,1-.67-0.72,2.36,2.36,0,0,1-.22-1.08,3.11,3.11,0,0,1,.33-1.45,3,3,0,0,1,.88-1,4,4,0,0,1,1.3-.62,5.83,5.83,0,0,1,1.59-.21,6.14,6.14,0,0,1,2.29.41,4.53,4.53,0,0,1,1.66,1.08l-0.69.84a3.84,3.84,0,0,0-1.48-.95,5.3,5.3,0,0,0-1.82-.31,4.5,4.5,0,0,0-1,.12,2.53,2.53,0,0,0-.85.37,1.81,1.81,0,0,0-.58.64,1.89,1.89,0,0,0-.21.91,1.5,1.5,0,0,0,.15.71,1.25,1.25,0,0,0,.48.47,3.91,3.91,0,0,0,.85.36q0.51,0.16,1.25.33,1,0.25,1.85.5a5.82,5.82,0,0,1,1.33.59,2.32,2.32,0,0,1,.81.82,2.36,2.36,0,0,1,.27,1.18A2.85,2.85,0,0,1,126,76.66,5,5,0,0,1,122.94,77.54Z"/><path class="cls-14" d="M133.16,77.54a7.62,7.62,0,0,1-2.5-.42,6,6,0,0,1-2.1-1.22l0.65-1a7.14,7.14,0,0,0,1.88,1.13,5.51,5.51,0,0,0,2,.38,3.7,3.7,0,0,0,2.11-.54,1.73,1.73,0,0,0,.79-1.52,1.32,1.32,0,0,0-.21-0.77,1.83,1.83,0,0,0-.62-0.54,4.86,4.86,0,0,0-1-.41q-0.62-.18-1.44-0.37t-1.64-.46a5,5,0,0,1-1.14-.52,1.89,1.89,0,0,1-.67-0.72,2.36,2.36,0,0,1-.22-1.08,3.11,3.11,0,0,1,.33-1.45,3,3,0,0,1,.88-1,4,4,0,0,1,1.3-.62,5.83,5.83,0,0,1,1.59-.21,6.14,6.14,0,0,1,2.29.41,4.53,4.53,0,0,1,1.66,1.08l-0.69.84a3.84,3.84,0,0,0-1.48-.95,5.3,5.3,0,0,0-1.82-.31,4.5,4.5,0,0,0-1,.12,2.53,2.53,0,0,0-.85.37,1.81,1.81,0,0,0-.58.64,1.89,1.89,0,0,0-.21.91,1.5,1.5,0,0,0,.15.71,1.25,1.25,0,0,0,.48.47,3.91,3.91,0,0,0,.85.36q0.51,0.16,1.25.33,1,0.25,1.85.5a5.82,5.82,0,0,1,1.33.59,2.32,2.32,0,0,1,.81.82,2.36,2.36,0,0,1,.27,1.18,2.85,2.85,0,0,1-1.16,2.39A5,5,0,0,1,133.16,77.54Z"/><path class="cls-14" d="M144.42,77.54a5.18,5.18,0,0,1-2.18-.45,5.36,5.36,0,0,1-1.71-1.23,5.57,5.57,0,0,1-1.12-1.81,5.93,5.93,0,0,1-.4-2.16,5.85,5.85,0,0,1,.41-2.18,5.73,5.73,0,0,1,1.13-1.81,5.52,5.52,0,0,1,1.71-1.24,5,5,0,0,1,2.16-.46,5.11,5.11,0,0,1,2.17.46,5.48,5.48,0,0,1,1.72,1.24,5.72,5.72,0,0,1,1.13,1.81,5.85,5.85,0,0,1,.41,2.18,5.93,5.93,0,0,1-.4,2.16,5.56,5.56,0,0,1-1.12,1.81,5.33,5.33,0,0,1-1.72,1.23A5.26,5.26,0,0,1,144.42,77.54Zm-4-5.63a4.57,4.57,0,0,0,.31,1.71,4.65,4.65,0,0,0,.85,1.39,3.84,3.84,0,0,0,1.26.93,3.62,3.62,0,0,0,1.54.34,3.53,3.53,0,0,0,1.54-.35,4.09,4.09,0,0,0,1.27-.94,4.5,4.5,0,0,0,.86-1.4,4.84,4.84,0,0,0,0-3.43,4.47,4.47,0,0,0-.86-1.41,4.09,4.09,0,0,0-1.27-.94,3.53,3.53,0,0,0-1.54-.35,3.46,3.46,0,0,0-1.53.35,4.06,4.06,0,0,0-1.26,1,4.6,4.6,0,0,0-.86,1.42A4.73,4.73,0,0,0,140.45,71.91Z"/><path class="cls-14" d="M151.49,71.83a6,6,0,0,1,.4-2.18,5.46,5.46,0,0,1,1.12-1.8,5.25,5.25,0,0,1,1.73-1.21A5.49,5.49,0,0,1,157,66.2a5.1,5.1,0,0,1,2.71.7,4.52,4.52,0,0,1,1.74,1.9l-1.39.44a3.33,3.33,0,0,0-1.29-1.31,3.81,3.81,0,0,0-3.4-.14,4,4,0,0,0-1.26.91,4.21,4.21,0,0,0-.84,1.38,5.06,5.06,0,0,0,0,3.49,4.45,4.45,0,0,0,.86,1.42,4.1,4.1,0,0,0,1.27.94,3.53,3.53,0,0,0,1.54.35,3.78,3.78,0,0,0,1-.15,4,4,0,0,0,1-.41,3.43,3.43,0,0,0,.76-0.6,1.94,1.94,0,0,0,.44-0.71l1.41,0.42a3.58,3.58,0,0,1-.67,1.08,4.62,4.62,0,0,1-1,.86,5.1,5.1,0,0,1-1.32.57,5.64,5.64,0,0,1-1.5.2A5.32,5.32,0,0,1,153,75.85,5.75,5.75,0,0,1,151.9,74,5.91,5.91,0,0,1,151.49,71.83Z"/><path class="cls-14" d="M163.78,64.1V62h1.43v2.1h-1.43Zm0,13.23V66.39h1.43V77.33h-1.43Z"/><path class="cls-14" d="M171.11,77.54a3.86,3.86,0,0,1-1.44-.26,3.62,3.62,0,0,1-1.16-.72,3.26,3.26,0,0,1-1-2.42,2.69,2.69,0,0,1,.34-1.32,3.2,3.2,0,0,1,.95-1,4.63,4.63,0,0,1,1.45-.68,6.69,6.69,0,0,1,1.85-.24,10.09,10.09,0,0,1,1.7.15,7.38,7.38,0,0,1,1.53.42v-1a3.18,3.18,0,0,0-.82-2.3,3,3,0,0,0-2.27-.85,4.83,4.83,0,0,0-1.72.34,8.31,8.31,0,0,0-1.78,1l-0.5-.95a7.39,7.39,0,0,1,4.12-1.43,4.42,4.42,0,0,1,3.23,1.15,4.27,4.27,0,0,1,1.18,3.19v4.94a0.49,0.49,0,0,0,.52.59v1.26a3.41,3.41,0,0,1-.55.06,1.23,1.23,0,0,1-.85-0.27,1,1,0,0,1-.33-0.76l0-.86a5,5,0,0,1-1.9,1.51A5.85,5.85,0,0,1,171.11,77.54Zm0.34-1.09a4.94,4.94,0,0,0,2-.42,3.35,3.35,0,0,0,1.42-1.11,1.31,1.31,0,0,0,.28-0.41,1,1,0,0,0,.09-0.41V72.31a8.81,8.81,0,0,0-1.48-.42,8.32,8.32,0,0,0-1.56-.15,4.35,4.35,0,0,0-2.46.63,1.92,1.92,0,0,0-.94,1.66,2.27,2.27,0,0,0,.2.94,2.39,2.39,0,0,0,.55.77,2.55,2.55,0,0,0,.83.51A2.8,2.8,0,0,0,171.44,76.45Z"/><path class="cls-14" d="M185,76.8L184.6,77l-0.56.21a6.39,6.39,0,0,1-.71.19,4.09,4.09,0,0,1-.84.08,3.06,3.06,0,0,1-.88-0.13,2,2,0,0,1-.73-0.39,1.91,1.91,0,0,1-.5-0.66,2.14,2.14,0,0,1-.19-0.92V67.52h-1.51V66.39h1.51v-3.7h1.43v3.7h2.52v1.13h-2.52V75a1.13,1.13,0,0,0,.43.89,1.48,1.48,0,0,0,.89.28,2.68,2.68,0,0,0,1.07-.2,4.65,4.65,0,0,0,.59-0.28Z"/><path class="cls-14" d="M191.21,77.54a5.26,5.26,0,0,1-2.19-.45,5.37,5.37,0,0,1-1.73-1.24A5.75,5.75,0,0,1,186.13,74a5.91,5.91,0,0,1-.41-2.21,5.77,5.77,0,0,1,.41-2.17,5.63,5.63,0,0,1,1.13-1.79A5.39,5.39,0,0,1,189,66.65a5.33,5.33,0,0,1,6.09,1.23,5.77,5.77,0,0,1,1.51,3.93v0.34a0.84,0.84,0,0,1,0,.23h-9.37a4.59,4.59,0,0,0,.41,1.63,4.46,4.46,0,0,0,.89,1.29,4,4,0,0,0,1.25.85,3.74,3.74,0,0,0,1.5.3,3.88,3.88,0,0,0,1.05-.15,4.24,4.24,0,0,0,1-.4,3.58,3.58,0,0,0,.8-0.62,2.66,2.66,0,0,0,.55-0.81l1.24,0.34a3.64,3.64,0,0,1-.71,1.1,5,5,0,0,1-1.07.86,5.25,5.25,0,0,1-1.34.57A5.84,5.84,0,0,1,191.21,77.54Zm4-6.26a4.42,4.42,0,0,0-.41-1.61,4.37,4.37,0,0,0-.88-1.25,3.9,3.9,0,0,0-1.24-.82,3.86,3.86,0,0,0-1.5-.29,3.93,3.93,0,0,0-1.51.29,3.87,3.87,0,0,0-1.25.82,4,4,0,0,0-.86,1.26,4.76,4.76,0,0,0-.39,1.6h8Z"/><path class="cls-14" d="M203.3,77.54a4.71,4.71,0,0,1-2.1-.47,5.33,5.33,0,0,1-1.66-1.25,5.74,5.74,0,0,1-1.08-1.8,5.92,5.92,0,0,1-.39-2.13,6.37,6.37,0,0,1,.38-2.19,5.87,5.87,0,0,1,1-1.82,4.91,4.91,0,0,1,1.58-1.23,4.47,4.47,0,0,1,2-.45,4.28,4.28,0,0,1,2.46.72,5.49,5.49,0,0,1,1.68,1.75V62h1.43V75.48a0.49,0.49,0,0,0,.5.59v1.26a2.72,2.72,0,0,1-.5.06,1.31,1.31,0,0,1-.88-0.33,1,1,0,0,1-.38-0.79V75.21a4.79,4.79,0,0,1-1.76,1.7A4.63,4.63,0,0,1,203.3,77.54Zm0.31-1.26a3.41,3.41,0,0,0,1.12-.21,4.61,4.61,0,0,0,1.12-.58,3.87,3.87,0,0,0,.89-0.86,2.33,2.33,0,0,0,.45-1.06V70.19a3.77,3.77,0,0,0-.61-1.06,4.92,4.92,0,0,0-.91-0.87,4.3,4.3,0,0,0-1.1-.59,3.43,3.43,0,0,0-1.16-.21,3.36,3.36,0,0,0-1.6.38,4,4,0,0,0-1.23,1,4.44,4.44,0,0,0-.79,1.42,5,5,0,0,0-.27,1.64A4.59,4.59,0,0,0,200.72,75a4.16,4.16,0,0,0,1.29,1A3.67,3.67,0,0,0,203.62,76.28Z"/><path class="cls-14" d="M230.43,66.39h1.41l-4.7,10.94H226l-2.35-5.59-2.33,5.59H220.1l-4.7-10.94h1.39l4,9.47,2.08-5L221,66.41h1.2L223.61,70,225,66.41h1.22l-1.87,4.45,2.08,5Z"/><path class="cls-14" d="M233.73,64.1V62h1.43v2.1h-1.43Zm0,13.23V66.39h1.43V77.33h-1.43Z"/><path class="cls-14" d="M243.56,76.8l-0.37.17-0.56.21a6.39,6.39,0,0,1-.71.19,4.09,4.09,0,0,1-.84.08,3.06,3.06,0,0,1-.88-0.13,2,2,0,0,1-.73-0.39,1.91,1.91,0,0,1-.5-0.66,2.14,2.14,0,0,1-.19-0.92V67.52h-1.51V66.39h1.51v-3.7h1.43v3.7h2.52v1.13H240.2V75a1.13,1.13,0,0,0,.43.89,1.48,1.48,0,0,0,.89.28,2.68,2.68,0,0,0,1.07-.2,4.65,4.65,0,0,0,.59-0.28Z"/><path class="cls-14" d="M254.54,77.33h-1.43V71.22a4.93,4.93,0,0,0-.64-2.79,2.14,2.14,0,0,0-1.88-.92,3.21,3.21,0,0,0-1.21.24,4.45,4.45,0,0,0-1.12.66,4.53,4.53,0,0,0-.91,1,4.17,4.17,0,0,0-.58,1.24v6.7h-1.43V62h1.43v6.87a5,5,0,0,1,1.81-2,4.67,4.67,0,0,1,2.5-.71,3.36,3.36,0,0,1,1.6.35,3,3,0,0,1,1.07,1,4.23,4.23,0,0,1,.61,1.49,9.08,9.08,0,0,1,.19,1.92v6.4Z"/><path class="cls-14" d="M262.18,71.83a6,6,0,0,1,.4-2.18,5.45,5.45,0,0,1,1.12-1.8,5.25,5.25,0,0,1,1.73-1.21,5.49,5.49,0,0,1,2.23-.44,5.1,5.1,0,0,1,2.71.7,4.52,4.52,0,0,1,1.74,1.9l-1.39.44a3.33,3.33,0,0,0-1.29-1.31,3.81,3.81,0,0,0-3.4-.14,4,4,0,0,0-1.26.91,4.22,4.22,0,0,0-.84,1.38,5.06,5.06,0,0,0,0,3.49,4.45,4.45,0,0,0,.86,1.42,4.09,4.09,0,0,0,1.27.94,3.53,3.53,0,0,0,1.54.35,3.79,3.79,0,0,0,1-.15,4,4,0,0,0,1-.41,3.43,3.43,0,0,0,.76-0.6,1.94,1.94,0,0,0,.44-0.71l1.41,0.42a3.58,3.58,0,0,1-.67,1.08,4.61,4.61,0,0,1-1,.86,5.11,5.11,0,0,1-1.32.57,5.63,5.63,0,0,1-1.5.2,5.32,5.32,0,0,1-3.95-1.69A5.76,5.76,0,0,1,262.59,74,5.9,5.9,0,0,1,262.18,71.83Z"/><path class="cls-14" d="M277.22,77.54a3.86,3.86,0,0,1-1.44-.26,3.62,3.62,0,0,1-1.16-.72,3.26,3.26,0,0,1-1-2.42,2.69,2.69,0,0,1,.34-1.32,3.19,3.19,0,0,1,.94-1,4.64,4.64,0,0,1,1.45-.68,6.68,6.68,0,0,1,1.85-.24,10.07,10.07,0,0,1,1.7.15,7.38,7.38,0,0,1,1.53.42v-1a3.17,3.17,0,0,0-.82-2.3,3,3,0,0,0-2.27-.85,4.82,4.82,0,0,0-1.72.34,8.31,8.31,0,0,0-1.79,1l-0.5-.95a7.39,7.39,0,0,1,4.12-1.43,4.42,4.42,0,0,1,3.23,1.15,4.27,4.27,0,0,1,1.18,3.19v4.94a0.49,0.49,0,0,0,.53.59v1.26a3.41,3.41,0,0,1-.55.06,1.23,1.23,0,0,1-.85-0.27,1,1,0,0,1-.33-0.76l0-.86a5,5,0,0,1-1.9,1.51A5.86,5.86,0,0,1,277.22,77.54Zm0.34-1.09a4.94,4.94,0,0,0,2-.42A3.35,3.35,0,0,0,281,74.91a1.3,1.3,0,0,0,.28-0.41,1,1,0,0,0,.09-0.41V72.31a8.8,8.8,0,0,0-1.48-.42,8.31,8.31,0,0,0-1.56-.15,4.35,4.35,0,0,0-2.46.63A1.92,1.92,0,0,0,275,74a2.25,2.25,0,0,0,.2.94,2.38,2.38,0,0,0,.55.77,2.54,2.54,0,0,0,.83.51A2.8,2.8,0,0,0,277.56,76.45Z"/><path class="cls-14" d="M295.11,77.33h-1.43V71.22a5.33,5.33,0,0,0-.58-2.83,2,2,0,0,0-1.77-.88,3.64,3.64,0,0,0-1.26.23,4.26,4.26,0,0,0-1.17.65,5,5,0,0,0-1,1,3.91,3.91,0,0,0-.61,1.25v6.7h-1.43V66.39h1.3v2.48a5.14,5.14,0,0,1,1.92-1.93,5.27,5.27,0,0,1,2.72-.73,3.22,3.22,0,0,1,1.53.34,2.62,2.62,0,0,1,1,.94,4.36,4.36,0,0,1,.55,1.49,10.52,10.52,0,0,1,.17,2v6.4Z"/><path class="cls-14" d="M297.4,71.83a6,6,0,0,1,.4-2.18,5.45,5.45,0,0,1,1.12-1.8,5.25,5.25,0,0,1,1.73-1.21,5.49,5.49,0,0,1,2.23-.44,5.1,5.1,0,0,1,2.71.7,4.52,4.52,0,0,1,1.74,1.9l-1.39.44a3.33,3.33,0,0,0-1.29-1.31,3.81,3.81,0,0,0-3.4-.14,4,4,0,0,0-1.26.91,4.22,4.22,0,0,0-.84,1.38,5.06,5.06,0,0,0,0,3.49A4.45,4.45,0,0,0,300,75a4.09,4.09,0,0,0,1.27.94,3.53,3.53,0,0,0,1.54.35,3.79,3.79,0,0,0,1-.15,4,4,0,0,0,1-.41,3.43,3.43,0,0,0,.76-0.6,1.94,1.94,0,0,0,.44-0.71l1.41,0.42a3.58,3.58,0,0,1-.67,1.08,4.61,4.61,0,0,1-1,.86,5.11,5.11,0,0,1-1.32.57,5.63,5.63,0,0,1-1.5.2A5.32,5.32,0,0,1,299,75.85,5.76,5.76,0,0,1,297.81,74,5.9,5.9,0,0,1,297.4,71.83Z"/><path class="cls-14" d="M314.31,77.54a5.26,5.26,0,0,1-2.19-.45,5.38,5.38,0,0,1-1.73-1.24A5.76,5.76,0,0,1,309.23,74a5.9,5.9,0,0,1-.41-2.21,5.76,5.76,0,0,1,.41-2.17,5.64,5.64,0,0,1,1.13-1.79,5.4,5.4,0,0,1,1.73-1.22,5.54,5.54,0,0,1,4.38,0,5.22,5.22,0,0,1,1.71,1.23,5.71,5.71,0,0,1,1.11,1.79,5.77,5.77,0,0,1,.4,2.14v0.34a0.85,0.85,0,0,1,0,.23h-9.37a4.59,4.59,0,0,0,.41,1.63,4.45,4.45,0,0,0,.89,1.29,4,4,0,0,0,1.25.85,3.74,3.74,0,0,0,1.5.3,3.88,3.88,0,0,0,1-.15,4.24,4.24,0,0,0,1-.4,3.59,3.59,0,0,0,.8-0.62,2.66,2.66,0,0,0,.55-0.81L319,74.81a3.64,3.64,0,0,1-.71,1.1,5,5,0,0,1-1.07.86,5.25,5.25,0,0,1-1.34.57A5.84,5.84,0,0,1,314.31,77.54Zm4-6.26a4.43,4.43,0,0,0-.41-1.61,4.37,4.37,0,0,0-.88-1.25,3.95,3.95,0,0,0-5.5,0,4,4,0,0,0-.86,1.26,4.75,4.75,0,0,0-.39,1.6h8Z"/><path class="cls-14" d="M327.37,67.65a4.49,4.49,0,0,0-2.52.8,4,4,0,0,0-1.51,2.08v6.8h-1.43V66.39h1.34V69a5,5,0,0,1,1.64-2,3.8,3.8,0,0,1,2.21-.71l0.27,0v1.3Z"/><path class="cls-14" d="M338.52,77.48a4.52,4.52,0,0,1-2.07-.47,5.33,5.33,0,0,1-1.62-1.25A5.72,5.72,0,0,1,333.77,74a5.88,5.88,0,0,1-.38-2.08,6.47,6.47,0,0,1,.37-2.17,5.59,5.59,0,0,1,1-1.82,5.08,5.08,0,0,1,1.61-1.24,4.61,4.61,0,0,1,2.07-.46,4.21,4.21,0,0,1,2.44.7,6.75,6.75,0,0,1,1.76,1.77V66.39H344v11a4.47,4.47,0,0,1-.43,2,4.31,4.31,0,0,1-1.16,1.46,4.91,4.91,0,0,1-1.7.88,7.14,7.14,0,0,1-2.07.29,6,6,0,0,1-3-.67,5.36,5.36,0,0,1-1.87-1.81l0.88-.69a3.94,3.94,0,0,0,1.72,1.54,5.46,5.46,0,0,0,2.31.49,5.09,5.09,0,0,0,1.51-.22,3.73,3.73,0,0,0,1.25-.65,3.08,3.08,0,0,0,.85-1.09,3.55,3.55,0,0,0,.31-1.54V75.21a4.56,4.56,0,0,1-1.72,1.66A4.63,4.63,0,0,1,338.52,77.48Zm0.4-1.2a3.47,3.47,0,0,0,1.24-.23,4.15,4.15,0,0,0,1.1-.62,4.06,4.06,0,0,0,.83-0.87,2.69,2.69,0,0,0,.44-1V70.19a4.29,4.29,0,0,0-.63-1.09,4.36,4.36,0,0,0-.9-0.86,4.56,4.56,0,0,0-1.08-.57,3.39,3.39,0,0,0-1.17-.21,3.43,3.43,0,0,0-1.65.39,3.94,3.94,0,0,0-1.23,1,4.53,4.53,0,0,0-.77,1.43,5.13,5.13,0,0,0-.26,1.62,4.54,4.54,0,0,0,.31,1.68A4.42,4.42,0,0,0,336,75a4.18,4.18,0,0,0,1.29.94A3.7,3.7,0,0,0,338.92,76.28Z"/><path class="cls-14" d="M352.57,67.65a4.49,4.49,0,0,0-2.52.8,4,4,0,0,0-1.51,2.08v6.8h-1.43V66.39h1.34V69a5,5,0,0,1,1.64-2,3.8,3.8,0,0,1,2.21-.71l0.27,0v1.3Z"/><path class="cls-14" d="M358.59,77.54a5.19,5.19,0,0,1-2.18-.45,5.34,5.34,0,0,1-1.71-1.23,5.56,5.56,0,0,1-1.12-1.81,5.94,5.94,0,0,1-.4-2.16,5.84,5.84,0,0,1,.41-2.18,5.75,5.75,0,0,1,1.13-1.81,5.52,5.52,0,0,1,1.71-1.24,5,5,0,0,1,2.16-.46,5.11,5.11,0,0,1,2.17.46,5.49,5.49,0,0,1,1.72,1.24,5.75,5.75,0,0,1,1.13,1.81,5.86,5.86,0,0,1,.41,2.18,5.94,5.94,0,0,1-.4,2.16,5.57,5.57,0,0,1-1.12,1.81,5.32,5.32,0,0,1-1.72,1.23A5.26,5.26,0,0,1,358.59,77.54Zm-4-5.63a4.57,4.57,0,0,0,.32,1.71,4.64,4.64,0,0,0,.85,1.39,3.84,3.84,0,0,0,1.26.93,3.63,3.63,0,0,0,1.54.34,3.53,3.53,0,0,0,1.54-.35,4.1,4.1,0,0,0,1.27-.94,4.5,4.5,0,0,0,.86-1.4,4.84,4.84,0,0,0,0-3.43,4.47,4.47,0,0,0-.86-1.41,4.1,4.1,0,0,0-1.27-.94,3.53,3.53,0,0,0-1.54-.35,3.47,3.47,0,0,0-1.53.35,4,4,0,0,0-1.26,1,4.6,4.6,0,0,0-.86,1.42A4.73,4.73,0,0,0,354.63,71.91Z"/><path class="cls-14" d="M379.8,66.39h1.41l-4.7,10.94h-1.18L373,71.74l-2.33,5.59h-1.18l-4.7-10.94h1.39l4,9.47,2.08-5-1.87-4.45h1.2L373,70l1.43-3.57h1.22l-1.87,4.45,2.08,5Z"/><path class="cls-14" d="M388.35,76.8L388,77l-0.56.21a6.35,6.35,0,0,1-.71.19,4.09,4.09,0,0,1-.84.08,3.06,3.06,0,0,1-.88-0.13,2,2,0,0,1-.73-0.39,1.9,1.9,0,0,1-.5-0.66,2.14,2.14,0,0,1-.19-0.92V67.52h-1.51V66.39h1.51v-3.7H385v3.7h2.52v1.13H385V75a1.14,1.14,0,0,0,.43.89,1.48,1.48,0,0,0,.89.28,2.68,2.68,0,0,0,1.07-.2,4.68,4.68,0,0,0,.59-0.28Z"/><path class="cls-14" d="M399.33,77.33h-1.43V71.22a4.93,4.93,0,0,0-.64-2.79,2.14,2.14,0,0,0-1.88-.92,3.21,3.21,0,0,0-1.21.24,4.47,4.47,0,0,0-1.12.66,4.55,4.55,0,0,0-.91,1,4.18,4.18,0,0,0-.58,1.24v6.7h-1.43V62h1.43v6.87a5,5,0,0,1,1.81-2,4.67,4.67,0,0,1,2.5-.71,3.36,3.36,0,0,1,1.6.35,3,3,0,0,1,1.07,1,4.22,4.22,0,0,1,.61,1.49,9.08,9.08,0,0,1,.19,1.92v6.4Z"/><path class="cls-14" d="M410.49,77.54a3.86,3.86,0,0,1-1.44-.26,3.62,3.62,0,0,1-1.16-.72,3.26,3.26,0,0,1-1-2.42,2.69,2.69,0,0,1,.34-1.32,3.19,3.19,0,0,1,.94-1,4.64,4.64,0,0,1,1.45-.68,6.68,6.68,0,0,1,1.85-.24,10.07,10.07,0,0,1,1.7.15,7.38,7.38,0,0,1,1.53.42v-1a3.17,3.17,0,0,0-.82-2.3,3,3,0,0,0-2.27-.85,4.82,4.82,0,0,0-1.72.34,8.31,8.31,0,0,0-1.79,1l-0.5-.95a7.39,7.39,0,0,1,4.12-1.43,4.42,4.42,0,0,1,3.23,1.15,4.27,4.27,0,0,1,1.18,3.19v4.94a0.49,0.49,0,0,0,.53.59v1.26a3.41,3.41,0,0,1-.55.06,1.23,1.23,0,0,1-.85-0.27,1,1,0,0,1-.33-0.76l0-.86A5,5,0,0,1,413,77,5.86,5.86,0,0,1,410.49,77.54Zm0.34-1.09a4.94,4.94,0,0,0,2-.42,3.35,3.35,0,0,0,1.42-1.11,1.3,1.3,0,0,0,.28-0.41,1,1,0,0,0,.09-0.41V72.31a8.8,8.8,0,0,0-1.48-.42,8.31,8.31,0,0,0-1.56-.15,4.35,4.35,0,0,0-2.46.63,1.92,1.92,0,0,0-.95,1.66,2.25,2.25,0,0,0,.2.94,2.38,2.38,0,0,0,.55.77,2.54,2.54,0,0,0,.83.51A2.8,2.8,0,0,0,410.82,76.45Z"/><path class="cls-14" d="M428.38,77.33h-1.43V71.22a5.33,5.33,0,0,0-.58-2.83,2,2,0,0,0-1.77-.88,3.64,3.64,0,0,0-1.26.23,4.26,4.26,0,0,0-1.17.65,5,5,0,0,0-1,1,3.91,3.91,0,0,0-.61,1.25v6.7h-1.43V66.39h1.3v2.48a5.14,5.14,0,0,1,1.92-1.93,5.27,5.27,0,0,1,2.72-.73,3.22,3.22,0,0,1,1.53.34,2.62,2.62,0,0,1,1,.94,4.36,4.36,0,0,1,.55,1.49,10.52,10.52,0,0,1,.17,2v6.4Z"/><path class="cls-14" d="M435.92,77.54a4.71,4.71,0,0,1-2.1-.47,5.35,5.35,0,0,1-1.66-1.25,5.74,5.74,0,0,1-1.08-1.8,5.93,5.93,0,0,1-.39-2.13,6.37,6.37,0,0,1,.38-2.19,5.85,5.85,0,0,1,1-1.82,4.9,4.9,0,0,1,1.57-1.23,4.47,4.47,0,0,1,2-.45,4.28,4.28,0,0,1,2.46.72,5.48,5.48,0,0,1,1.68,1.75V62h1.43V75.48a0.49,0.49,0,0,0,.5.59v1.26a2.71,2.71,0,0,1-.5.06,1.31,1.31,0,0,1-.88-0.33,1,1,0,0,1-.38-0.79V75.21a4.78,4.78,0,0,1-1.76,1.7A4.63,4.63,0,0,1,435.92,77.54Zm0.31-1.26a3.42,3.42,0,0,0,1.12-.21,4.62,4.62,0,0,0,1.12-.58,3.88,3.88,0,0,0,.89-0.86,2.32,2.32,0,0,0,.45-1.06V70.19a3.76,3.76,0,0,0-.61-1.06,4.94,4.94,0,0,0-.91-0.87,4.27,4.27,0,0,0-1.1-.59,3.42,3.42,0,0,0-1.15-.21,3.36,3.36,0,0,0-1.6.38,4.06,4.06,0,0,0-1.23,1,4.45,4.45,0,0,0-.79,1.42,5,5,0,0,0-.27,1.64A4.59,4.59,0,0,0,433.33,75a4.15,4.15,0,0,0,1.29,1A3.67,3.67,0,0,0,436.23,76.28Z"/><path class="cls-14" d="M466.11,77.33h-1.43V71.22a5.13,5.13,0,0,0-.61-2.81,2,2,0,0,0-1.81-.9,3.07,3.07,0,0,0-1.19.23,3.66,3.66,0,0,0-1,.65,4.48,4.48,0,0,0-.83,1,4.8,4.8,0,0,0-.55,1.27v6.68h-1.43V71.22a5.25,5.25,0,0,0-.59-2.83,2,2,0,0,0-1.81-.88,3.22,3.22,0,0,0-2.21.86,4.8,4.8,0,0,0-1.39,2.27v6.7h-1.43V66.39h1.3v2.48a5.17,5.17,0,0,1,1.76-2,4.37,4.37,0,0,1,2.42-.7,3.11,3.11,0,0,1,2.22.78,3.39,3.39,0,0,1,1,2,4.67,4.67,0,0,1,4.22-2.81,3.34,3.34,0,0,1,1.56.34,2.65,2.65,0,0,1,1,1,4.49,4.49,0,0,1,.57,1.49,9.78,9.78,0,0,1,.18,1.94v6.4Z"/><path class="cls-14" d="M473.86,77.54a5.26,5.26,0,0,1-2.19-.45,5.38,5.38,0,0,1-1.73-1.24A5.76,5.76,0,0,1,468.79,74a5.9,5.9,0,0,1-.41-2.21,5.76,5.76,0,0,1,.41-2.17,5.64,5.64,0,0,1,1.13-1.79,5.4,5.4,0,0,1,1.73-1.22,5.54,5.54,0,0,1,4.38,0,5.22,5.22,0,0,1,1.71,1.23,5.71,5.71,0,0,1,1.11,1.79,5.77,5.77,0,0,1,.4,2.14v0.34a0.85,0.85,0,0,1,0,.23h-9.37a4.59,4.59,0,0,0,.41,1.63,4.45,4.45,0,0,0,.89,1.29,4,4,0,0,0,1.25.85,3.74,3.74,0,0,0,1.5.3,3.88,3.88,0,0,0,1-.15,4.24,4.24,0,0,0,1-.4,3.59,3.59,0,0,0,.8-0.62,2.66,2.66,0,0,0,.55-0.81l1.24,0.34a3.64,3.64,0,0,1-.71,1.1,5,5,0,0,1-1.07.86,5.25,5.25,0,0,1-1.34.57A5.84,5.84,0,0,1,473.86,77.54Zm4-6.26a4.43,4.43,0,0,0-.41-1.61,4.37,4.37,0,0,0-.88-1.25,3.95,3.95,0,0,0-5.5,0,4,4,0,0,0-.86,1.26,4.75,4.75,0,0,0-.39,1.6h8Z"/><path class="cls-14" d="M486.63,76.8l-0.37.17-0.56.21a6.35,6.35,0,0,1-.71.19,4.09,4.09,0,0,1-.84.08,3.06,3.06,0,0,1-.88-0.13,2,2,0,0,1-.73-0.39,1.9,1.9,0,0,1-.5-0.66,2.14,2.14,0,0,1-.19-0.92V67.52h-1.51V66.39h1.51v-3.7h1.43v3.7h2.52v1.13h-2.52V75a1.14,1.14,0,0,0,.43.89,1.48,1.48,0,0,0,.89.28,2.68,2.68,0,0,0,1.07-.2,4.68,4.68,0,0,0,.59-0.28Z"/><path class="cls-14" d="M491.17,77.54a3.86,3.86,0,0,1-1.44-.26,3.62,3.62,0,0,1-1.16-.72,3.26,3.26,0,0,1-1-2.42,2.69,2.69,0,0,1,.34-1.32,3.19,3.19,0,0,1,.94-1,4.64,4.64,0,0,1,1.45-.68,6.68,6.68,0,0,1,1.85-.24,10.07,10.07,0,0,1,1.7.15,7.38,7.38,0,0,1,1.53.42v-1a3.17,3.17,0,0,0-.82-2.3,3,3,0,0,0-2.27-.85,4.82,4.82,0,0,0-1.72.34,8.31,8.31,0,0,0-1.79,1l-0.5-.95a7.39,7.39,0,0,1,4.12-1.43,4.42,4.42,0,0,1,3.23,1.15,4.27,4.27,0,0,1,1.18,3.19v4.94a0.49,0.49,0,0,0,.53.59v1.26a3.41,3.41,0,0,1-.55.06,1.23,1.23,0,0,1-.85-0.27,1,1,0,0,1-.33-0.76l0-.86a5,5,0,0,1-1.9,1.51A5.86,5.86,0,0,1,491.17,77.54Zm0.34-1.09a4.94,4.94,0,0,0,2-.42A3.35,3.35,0,0,0,495,74.91a1.3,1.3,0,0,0,.28-0.41,1,1,0,0,0,.09-0.41V72.31a8.8,8.8,0,0,0-1.48-.42,8.31,8.31,0,0,0-1.56-.15,4.35,4.35,0,0,0-2.46.63A1.92,1.92,0,0,0,488.9,74a2.25,2.25,0,0,0,.2.94,2.38,2.38,0,0,0,.55.77,2.54,2.54,0,0,0,.83.51A2.8,2.8,0,0,0,491.5,76.45Z"/><path class="cls-14" d="M503.49,77.54a7.62,7.62,0,0,1-2.5-.42,6,6,0,0,1-2.1-1.22l0.65-1a7.13,7.13,0,0,0,1.88,1.13,5.51,5.51,0,0,0,2,.38,3.7,3.7,0,0,0,2.11-.54,1.73,1.73,0,0,0,.79-1.52,1.32,1.32,0,0,0-.21-0.77,1.83,1.83,0,0,0-.62-0.54,4.87,4.87,0,0,0-1-.41q-0.62-.18-1.44-0.37t-1.64-.46a5,5,0,0,1-1.14-.52,1.88,1.88,0,0,1-.67-0.72,2.35,2.35,0,0,1-.22-1.08,3.12,3.12,0,0,1,.33-1.45,3,3,0,0,1,.88-1,4,4,0,0,1,1.3-.62,5.84,5.84,0,0,1,1.59-.21,6.14,6.14,0,0,1,2.29.41,4.54,4.54,0,0,1,1.66,1.08l-0.69.84a3.84,3.84,0,0,0-1.48-.95,5.3,5.3,0,0,0-1.82-.31,4.5,4.5,0,0,0-1,.12,2.53,2.53,0,0,0-.85.37,1.81,1.81,0,0,0-.58.64,1.89,1.89,0,0,0-.21.91,1.51,1.51,0,0,0,.15.71,1.25,1.25,0,0,0,.48.47,3.9,3.9,0,0,0,.85.36q0.51,0.16,1.25.33,1.05,0.25,1.85.5a5.83,5.83,0,0,1,1.33.59,2.33,2.33,0,0,1,.81.82,2.36,2.36,0,0,1,.27,1.18,2.85,2.85,0,0,1-1.15,2.39A5,5,0,0,1,503.49,77.54Z"/><path class="cls-14" d="M515.34,76.8L515,77l-0.56.21a6.35,6.35,0,0,1-.71.19,4.09,4.09,0,0,1-.84.08,3.06,3.06,0,0,1-.88-0.13,2,2,0,0,1-.73-0.39,1.9,1.9,0,0,1-.5-0.66,2.14,2.14,0,0,1-.19-0.92V67.52H509V66.39h1.51v-3.7H512v3.7h2.52v1.13H512V75a1.14,1.14,0,0,0,.43.89,1.48,1.48,0,0,0,.89.28,2.68,2.68,0,0,0,1.07-.2,4.68,4.68,0,0,0,.59-0.28Z"/><path class="cls-14" d="M519.87,77.54a3.86,3.86,0,0,1-1.44-.26,3.62,3.62,0,0,1-1.16-.72,3.26,3.26,0,0,1-1-2.42,2.69,2.69,0,0,1,.34-1.32,3.19,3.19,0,0,1,.94-1,4.64,4.64,0,0,1,1.45-.68,6.68,6.68,0,0,1,1.85-.24,10.07,10.07,0,0,1,1.7.15,7.38,7.38,0,0,1,1.53.42v-1a3.17,3.17,0,0,0-.82-2.3,3,3,0,0,0-2.27-.85,4.82,4.82,0,0,0-1.72.34,8.31,8.31,0,0,0-1.79,1l-0.5-.95a7.39,7.39,0,0,1,4.12-1.43,4.42,4.42,0,0,1,3.23,1.15,4.27,4.27,0,0,1,1.18,3.19v4.94a0.49,0.49,0,0,0,.53.59v1.26a3.41,3.41,0,0,1-.55.06,1.23,1.23,0,0,1-.85-0.27,1,1,0,0,1-.33-0.76l0-.86a5,5,0,0,1-1.9,1.51A5.86,5.86,0,0,1,519.87,77.54Zm0.34-1.09a4.94,4.94,0,0,0,2-.42,3.35,3.35,0,0,0,1.42-1.11A1.3,1.3,0,0,0,524,74.5a1,1,0,0,0,.09-0.41V72.31a8.8,8.8,0,0,0-1.48-.42,8.31,8.31,0,0,0-1.56-.15,4.35,4.35,0,0,0-2.46.63,1.92,1.92,0,0,0-.95,1.66,2.25,2.25,0,0,0,.2.94,2.38,2.38,0,0,0,.55.77,2.54,2.54,0,0,0,.83.51A2.8,2.8,0,0,0,520.21,76.45Z"/><path class="cls-14" d="M532.2,77.54a7.62,7.62,0,0,1-2.5-.42,6,6,0,0,1-2.1-1.22l0.65-1a7.13,7.13,0,0,0,1.88,1.13,5.51,5.51,0,0,0,2,.38,3.7,3.7,0,0,0,2.11-.54,1.73,1.73,0,0,0,.79-1.52,1.32,1.32,0,0,0-.21-0.77,1.83,1.83,0,0,0-.62-0.54,4.87,4.87,0,0,0-1-.41q-0.62-.18-1.44-0.37t-1.64-.46a5,5,0,0,1-1.14-.52,1.88,1.88,0,0,1-.67-0.72,2.35,2.35,0,0,1-.22-1.08,3.12,3.12,0,0,1,.33-1.45,3,3,0,0,1,.88-1,4,4,0,0,1,1.3-.62,5.84,5.84,0,0,1,1.59-.21,6.14,6.14,0,0,1,2.29.41,4.54,4.54,0,0,1,1.66,1.08l-0.69.84a3.84,3.84,0,0,0-1.48-.95,5.3,5.3,0,0,0-1.82-.31,4.5,4.5,0,0,0-1,.12,2.53,2.53,0,0,0-.85.37,1.81,1.81,0,0,0-.58.64,1.89,1.89,0,0,0-.21.91,1.51,1.51,0,0,0,.15.71,1.25,1.25,0,0,0,.48.47,3.9,3.9,0,0,0,.85.36q0.51,0.16,1.25.33,1.05,0.25,1.85.5a5.83,5.83,0,0,1,1.33.59,2.33,2.33,0,0,1,.81.82,2.36,2.36,0,0,1,.27,1.18,2.85,2.85,0,0,1-1.15,2.39A5,5,0,0,1,532.2,77.54Z"/><path class="cls-14" d="M538.79,64.1V62h1.43v2.1h-1.43Zm0,13.23V66.39h1.43V77.33h-1.43Z"/><path class="cls-14" d="M547,77.54a7.62,7.62,0,0,1-2.5-.42,6,6,0,0,1-2.1-1.22l0.65-1a7.13,7.13,0,0,0,1.88,1.13,5.51,5.51,0,0,0,2,.38,3.7,3.7,0,0,0,2.11-.54,1.73,1.73,0,0,0,.79-1.52,1.32,1.32,0,0,0-.21-0.77,1.83,1.83,0,0,0-.62-0.54,4.87,4.87,0,0,0-1-.41q-0.62-.18-1.44-0.37t-1.64-.46a5,5,0,0,1-1.14-.52,1.88,1.88,0,0,1-.67-0.72,2.35,2.35,0,0,1-.22-1.08,3.12,3.12,0,0,1,.33-1.45,3,3,0,0,1,.88-1,4,4,0,0,1,1.3-.62A5.84,5.84,0,0,1,547,66.2a6.14,6.14,0,0,1,2.29.41A4.54,4.54,0,0,1,551,67.69l-0.69.84a3.84,3.84,0,0,0-1.48-.95,5.3,5.3,0,0,0-1.82-.31,4.5,4.5,0,0,0-1,.12,2.53,2.53,0,0,0-.85.37,1.81,1.81,0,0,0-.58.64,1.89,1.89,0,0,0-.21.91,1.51,1.51,0,0,0,.15.71,1.25,1.25,0,0,0,.48.47,3.9,3.9,0,0,0,.85.36q0.51,0.16,1.25.33,1.05,0.25,1.85.5a5.83,5.83,0,0,1,1.33.59,2.33,2.33,0,0,1,.81.82,2.36,2.36,0,0,1,.27,1.18,2.85,2.85,0,0,1-1.15,2.39A5,5,0,0,1,547,77.54Z"/><path class="cls-14" d="M553.39,77.33V75.27h1.24v2.06h-1.24Z"/></svg>