<?xml version="1.0" encoding="UTF-8" standalone="no"?>
<!-- Created with Inkscape (http://www.inkscape.org/) -->
<svg
   xmlns:svg="http://www.w3.org/2000/svg"
   xmlns="http://www.w3.org/2000/svg"
   xmlns:xlink="http://www.w3.org/1999/xlink"
   version="1.0"
   width="410"
   height="366"
   id="svg3272">
  <defs
     id="defs3274">
    <linearGradient
       id="linearGradient3675">
      <stop
         style="stop-color:#ffffff;stop-opacity:0.50196081"
         offset="0"
         id="stop3677" />
      <stop
         style="stop-color:#ffffff;stop-opacity:0"
         offset="1"
         id="stop3679" />
    </linearGradient>
    <radialGradient
       cx="86.500595"
       cy="98.19175"
       r="36.545456"
       fx="69.003586"
       fy="81.394623"
       id="radialGradient3681"
       xlink:href="#linearGradient3675"
       gradientUnits="userSpaceOnUse" />
  </defs>
  <g
     transform="translate(-1042.4286,-597.79077)"
     id="layer1">
    <rect
       width="410"
       height="366"
       x="1042.4286"
       y="597.79077"
       style="opacity:1;fill:#008000;fill-opacity:1;fill-rule:evenodd;stroke:none;stroke-width:1;stroke-linecap:butt;stroke-linejoin:miter;stroke-miterlimit:4;stroke-dasharray:none;stroke-dashoffset:0;stroke-opacity:1"
       id="rect3656" />
    <path
       d="M 126.54546 103.09091 A 36.545456 36.545456 0 1 1  53.454544,103.09091 A 36.545456 36.545456 0 1 1  126.54546 103.09091 z"
       transform="matrix(1.0945273,0,0,1.0945273,988.92114,528.95495)"
       style="fill:#0000ff;fill-opacity:1;fill-rule:evenodd;stroke:none;stroke-width:2;stroke-linecap:butt;stroke-linejoin:miter;stroke-miterlimit:4;stroke-dasharray:none;stroke-dashoffset:0;stroke-opacity:1"
       id="path3383" />
    <path
       d="M 126.54546 103.09091 A 36.545456 36.545456 0 1 1  53.454544,103.09091 A 36.545456 36.545456 0 1 1  126.54546 103.09091 z"
       transform="matrix(0.4514925,0,0,0.4514925,1046.7943,595.246)"
       style="fill:#ffffff;fill-opacity:1;fill-rule:evenodd;stroke:none;stroke-width:2;stroke-linecap:butt;stroke-linejoin:miter;stroke-miterlimit:4;stroke-dasharray:none;stroke-dashoffset:0;stroke-opacity:1"
       id="path3395" />
    <text
       x="1087.6821"
       y="648.83057"
       style="font-size:19.58893204px;font-style:normal;font-weight:bold;text-align:center;text-anchor:middle;fill:#000000;fill-opacity:1;stroke:none;stroke-width:1px;stroke-linecap:butt;stroke-linejoin:miter;stroke-opacity:1;font-family:Arial"
       id="text3397"
       xml:space="preserve"><tspan
         x="1087.6821"
         y="648.83057"
         id="tspan3399">2</tspan></text>
    <path
       d="M 126.54546 103.09091 A 36.545456 36.545456 0 1 1  53.454544,103.09091 A 36.545456 36.545456 0 1 1  126.54546 103.09091 z"
       transform="matrix(1.0945273,0,0,1.0945273,1068.9211,528.95496)"
       style="fill:#ffffff;fill-opacity:1;fill-rule:evenodd;stroke:none;stroke-width:2;stroke-linecap:butt;stroke-linejoin:miter;stroke-miterlimit:4;stroke-dasharray:none;stroke-dashoffset:0;stroke-opacity:1"
       id="path3409" />
    <path
       d="M 88.5625,27.5 C 86.27887,32.53173 85.000001,38.117545 85,44 C 85,49.882455 86.27887,55.46827 88.5625,60.5 L 161.4375,60.5 C 163.72113,55.46827 165,49.882455 165,44 C 165,38.117545 163.72113,32.53173 161.4375,27.5 L 88.5625,27.5 z "
       transform="translate(1042.4286,597.79077)"
       style="opacity:1;fill:#ff7f2a;fill-opacity:1;fill-rule:evenodd;stroke:none;stroke-width:1;stroke-linecap:butt;stroke-linejoin:miter;stroke-miterlimit:4;stroke-dasharray:none;stroke-dashoffset:0;stroke-opacity:1"
       id="rect3658" />
    <path
       d="M 126.54546 103.09091 A 36.545456 36.545456 0 1 1  53.454544,103.09091 A 36.545456 36.545456 0 1 1  126.54546 103.09091 z"
       transform="matrix(0.4514925,0,0,0.4514925,1126.7943,595.24601)"
       style="fill:#ffffff;fill-opacity:1;fill-rule:evenodd;stroke:none;stroke-width:2;stroke-linecap:butt;stroke-linejoin:miter;stroke-miterlimit:4;stroke-dasharray:none;stroke-dashoffset:0;stroke-opacity:1"
       id="path3411" />
    <text
       x="1167.6821"
       y="648.83057"
       style="font-size:19.58893204px;font-style:normal;font-weight:bold;text-align:center;text-anchor:middle;fill:#000000;fill-opacity:1;stroke:none;stroke-width:1px;stroke-linecap:butt;stroke-linejoin:miter;stroke-opacity:1;font-family:Arial"
       id="text3413"
       xml:space="preserve"><tspan
         x="1167.6821"
         y="648.83057"
         id="tspan3415">13</tspan></text>
    <path
       d="M 126.54546 103.09091 A 36.545456 36.545456 0 1 1  53.454544,103.09091 A 36.545456 36.545456 0 1 1  126.54546 103.09091 z"
       transform="matrix(1.0945273,0,0,1.0945273,1148.9211,528.95498)"
       style="fill:#ffffff;fill-opacity:1;fill-rule:evenodd;stroke:none;stroke-width:2;stroke-linecap:butt;stroke-linejoin:miter;stroke-miterlimit:4;stroke-dasharray:none;stroke-dashoffset:0;stroke-opacity:1"
       id="path3419" />
    <path
       d="M 168.5625,27.5 C 166.27887,32.53173 165,38.117545 165,44 C 165,49.882455 166.27887,55.468269 168.5625,60.5 L 241.4375,60.5 C 243.72113,55.46827 245,49.882455 245,44 C 245,38.117545 243.72113,32.53173 241.4375,27.5 L 168.5625,27.5 z "
       transform="translate(1042.4286,597.79077)"
       style="fill:#ff0080;fill-opacity:1;fill-rule:evenodd;stroke:none;stroke-width:2;stroke-linecap:butt;stroke-linejoin:miter;stroke-miterlimit:4;stroke-dasharray:none;stroke-dashoffset:0;stroke-opacity:1"
       id="path3665" />
    <path
       d="M 126.54546 103.09091 A 36.545456 36.545456 0 1 1  53.454544,103.09091 A 36.545456 36.545456 0 1 1  126.54546 103.09091 z"
       transform="matrix(0.4514925,0,0,0.4514925,1206.7942,595.24603)"
       style="fill:#ffffff;fill-opacity:1;fill-rule:evenodd;stroke:none;stroke-width:2;stroke-linecap:butt;stroke-linejoin:miter;stroke-miterlimit:4;stroke-dasharray:none;stroke-dashoffset:0;stroke-opacity:1"
       id="path3421" />
    <text
       x="1247.6821"
       y="648.83057"
       style="font-size:19.58893204px;font-style:normal;font-weight:bold;text-align:center;text-anchor:middle;fill:#000000;fill-opacity:1;stroke:none;stroke-width:1px;stroke-linecap:butt;stroke-linejoin:miter;stroke-opacity:1;font-family:Arial"
       id="text3423"
       xml:space="preserve"><tspan
         x="1247.6821"
         y="648.83057"
         id="tspan3425">12</tspan></text>
    <path
       d="M 126.54546 103.09091 A 36.545456 36.545456 0 1 1  53.454544,103.09091 A 36.545456 36.545456 0 1 1  126.54546 103.09091 z"
       transform="matrix(1.0945273,0,0,1.0945273,1228.9211,528.95495)"
       style="fill:#ffffff;fill-opacity:1;fill-rule:evenodd;stroke:none;stroke-width:2;stroke-linecap:butt;stroke-linejoin:miter;stroke-miterlimit:4;stroke-dasharray:none;stroke-dashoffset:0;stroke-opacity:1"
       id="path3429" />
    <path
       d="M 248.5625,27.5 C 246.27887,32.53173 245,38.117546 245,44 C 245,49.882455 246.27887,55.46827 248.5625,60.5 L 321.4375,60.5 C 323.72113,55.46827 325,49.882455 325,44 C 325,38.117545 323.72113,32.53173 321.4375,27.5 L 248.5625,27.5 z "
       transform="translate(1042.4286,597.79077)"
       style="fill:#2aff80;fill-opacity:1;fill-rule:evenodd;stroke:none;stroke-width:2;stroke-linecap:butt;stroke-linejoin:miter;stroke-miterlimit:4;stroke-dasharray:none;stroke-dashoffset:0;stroke-opacity:1"
       id="path3660" />
    <path
       d="M 126.54546 103.09091 A 36.545456 36.545456 0 1 1  53.454544,103.09091 A 36.545456 36.545456 0 1 1  126.54546 103.09091 z"
       transform="matrix(0.4514925,0,0,0.4514925,1286.7943,595.246)"
       style="fill:#ffffff;fill-opacity:1;fill-rule:evenodd;stroke:none;stroke-width:2;stroke-linecap:butt;stroke-linejoin:miter;stroke-miterlimit:4;stroke-dasharray:none;stroke-dashoffset:0;stroke-opacity:1"
       id="path3431" />
    <text
       x="1327.6821"
       y="648.83057"
       style="font-size:19.58893204px;font-style:normal;font-weight:bold;text-align:center;text-anchor:middle;fill:#000000;fill-opacity:1;stroke:none;stroke-width:1px;stroke-linecap:butt;stroke-linejoin:miter;stroke-opacity:1;font-family:Arial"
       id="text3433"
       xml:space="preserve"><tspan
         x="1327.6821"
         y="648.83057"
         id="tspan3435">14</tspan></text>
    <path
       d="M 126.54546 103.09091 A 36.545456 36.545456 0 1 1  53.454544,103.09091 A 36.545456 36.545456 0 1 1  126.54546 103.09091 z"
       transform="matrix(1.0945273,0,0,1.0945273,1308.9211,528.95496)"
       style="fill:#ff0000;fill-opacity:1;fill-rule:evenodd;stroke:none;stroke-width:2;stroke-linecap:butt;stroke-linejoin:miter;stroke-miterlimit:4;stroke-dasharray:none;stroke-dashoffset:0;stroke-opacity:1"
       id="path3449" />
    <path
       d="M 126.54546 103.09091 A 36.545456 36.545456 0 1 1  53.454544,103.09091 A 36.545456 36.545456 0 1 1  126.54546 103.09091 z"
       transform="matrix(0.4514925,0,0,0.4514925,1366.7943,595.24601)"
       style="fill:#ffffff;fill-opacity:1;fill-rule:evenodd;stroke:none;stroke-width:2;stroke-linecap:butt;stroke-linejoin:miter;stroke-miterlimit:4;stroke-dasharray:none;stroke-dashoffset:0;stroke-opacity:1"
       id="path3451" />
    <text
       x="1407.6821"
       y="648.83057"
       style="font-size:19.58893204px;font-style:normal;font-weight:bold;text-align:center;text-anchor:middle;fill:#000000;fill-opacity:1;stroke:none;stroke-width:1px;stroke-linecap:butt;stroke-linejoin:miter;stroke-opacity:1;font-family:Arial"
       id="text3453"
       xml:space="preserve"><tspan
         x="1407.6821"
         y="648.83057"
         id="tspan3455">3</tspan></text>
    <path
       d="M 126.54546 103.09091 A 36.545456 36.545456 0 1 1  53.454544,103.09091 A 36.545456 36.545456 0 1 1  126.54546 103.09091 z"
       transform="matrix(1.0945273,0,0,1.0945273,1028.9211,598.23698)"
       style="fill:#2aff80;fill-opacity:1;fill-rule:evenodd;stroke:none;stroke-width:2;stroke-linecap:butt;stroke-linejoin:miter;stroke-miterlimit:4;stroke-dasharray:none;stroke-dashoffset:0;stroke-opacity:1"
       id="path3459" />
    <path
       d="M 126.54546 103.09091 A 36.545456 36.545456 0 1 1  53.454544,103.09091 A 36.545456 36.545456 0 1 1  126.54546 103.09091 z"
       transform="matrix(0.4514925,0,0,0.4514925,1086.7943,664.52803)"
       style="fill:#ffffff;fill-opacity:1;fill-rule:evenodd;stroke:none;stroke-width:2;stroke-linecap:butt;stroke-linejoin:miter;stroke-miterlimit:4;stroke-dasharray:none;stroke-dashoffset:0;stroke-opacity:1"
       id="path3461" />
    <text
       x="1127.6821"
       y="718.11261"
       style="font-size:19.58893204px;font-style:normal;font-weight:bold;text-align:center;text-anchor:middle;fill:#000000;fill-opacity:1;stroke:none;stroke-width:1px;stroke-linecap:butt;stroke-linejoin:miter;stroke-opacity:1;font-family:Arial"
       id="text3463"
       xml:space="preserve"><tspan
         x="1127.6821"
         y="718.11261"
         id="tspan3465">6</tspan></text>
    <path
       d="M 126.54546 103.09091 A 36.545456 36.545456 0 1 1  53.454544,103.09091 A 36.545456 36.545456 0 1 1  126.54546 103.09091 z"
       transform="matrix(1.0945273,0,0,1.0945273,1108.9211,598.237)"
       style="fill:#ffffff;fill-opacity:1;fill-rule:evenodd;stroke:none;stroke-width:2;stroke-linecap:butt;stroke-linejoin:miter;stroke-miterlimit:4;stroke-dasharray:none;stroke-dashoffset:0;stroke-opacity:1"
       id="path3469" />
    <path
       d="M 128.5625,96.78125 C 126.27887,101.81298 125,107.39879 125,113.28125 C 125,119.1637 126.27887,124.74952 128.5625,129.78125 L 201.4375,129.78125 C 203.72113,124.74952 205,119.1637 205,113.28125 C 205,107.3988 203.72113,101.81298 201.4375,96.78125 L 128.5625,96.78125 z "
       transform="translate(1042.4286,597.79077)"
       style="fill:#ff0000;fill-opacity:0.78431373;fill-rule:evenodd;stroke:none;stroke-width:2;stroke-linecap:butt;stroke-linejoin:miter;stroke-miterlimit:4;stroke-dasharray:none;stroke-dashoffset:0;stroke-opacity:1"
       id="path3639" />
    <path
       d="M 126.54546 103.09091 A 36.545456 36.545456 0 1 1  53.454544,103.09091 A 36.545456 36.545456 0 1 1  126.54546 103.09091 z"
       transform="matrix(0.4514925,0,0,0.4514925,1166.7943,664.52805)"
       style="fill:#ffffff;fill-opacity:1;fill-rule:evenodd;stroke:none;stroke-width:2;stroke-linecap:butt;stroke-linejoin:miter;stroke-miterlimit:4;stroke-dasharray:none;stroke-dashoffset:0;stroke-opacity:1"
       id="path3471" />
    <text
       x="1207.6821"
       y="718.11261"
       style="font-size:19.58893204px;font-style:normal;font-weight:bold;text-align:center;text-anchor:middle;fill:#000000;fill-opacity:1;stroke:none;stroke-width:1px;stroke-linecap:butt;stroke-linejoin:miter;stroke-opacity:1;font-family:Arial"
       id="text3473"
       xml:space="preserve"><tspan
         x="1207.6821"
         y="718.11261"
         id="tspan3475">11</tspan></text>
    <path
       d="M 126.54546 103.09091 A 36.545456 36.545456 0 1 1  53.454544,103.09091 A 36.545456 36.545456 0 1 1  126.54546 103.09091 z"
       transform="matrix(1.0945273,0,0,1.0945273,1188.9211,598.23701)"
       style="fill:#ff0080;fill-opacity:1;fill-rule:evenodd;stroke:none;stroke-width:2;stroke-linecap:butt;stroke-linejoin:miter;stroke-miterlimit:4;stroke-dasharray:none;stroke-dashoffset:0;stroke-opacity:1"
       id="path3479" />
    <path
       d="M 126.54546 103.09091 A 36.545456 36.545456 0 1 1  53.454544,103.09091 A 36.545456 36.545456 0 1 1  126.54546 103.09091 z"
       transform="matrix(0.4514925,0,0,0.4514925,1246.7942,664.52806)"
       style="fill:#ffffff;fill-opacity:1;fill-rule:evenodd;stroke:none;stroke-width:2;stroke-linecap:butt;stroke-linejoin:miter;stroke-miterlimit:4;stroke-dasharray:none;stroke-dashoffset:0;stroke-opacity:1"
       id="path3481" />
    <text
       x="1287.6821"
       y="718.11261"
       style="font-size:19.58893204px;font-style:normal;font-weight:bold;text-align:center;text-anchor:middle;fill:#000000;fill-opacity:1;stroke:none;stroke-width:1px;stroke-linecap:butt;stroke-linejoin:miter;stroke-opacity:1;font-family:Arial"
       id="text3483"
       xml:space="preserve"><tspan
         x="1287.6821"
         y="718.11261"
         id="tspan3485">4</tspan></text>
    <path
       d="M 126.54546 103.09091 A 36.545456 36.545456 0 1 1  53.454544,103.09091 A 36.545456 36.545456 0 1 1  126.54546 103.09091 z"
       transform="matrix(1.0945273,0,0,1.0945273,1268.9211,598.23697)"
       style="fill:#ffffff;fill-opacity:1;fill-rule:evenodd;stroke:none;stroke-width:2;stroke-linecap:butt;stroke-linejoin:miter;stroke-miterlimit:4;stroke-dasharray:none;stroke-dashoffset:0;stroke-opacity:1"
       id="path3489" />
    <path
       d="M 288.5625,96.78125 C 286.27887,101.81298 285,107.39879 285,113.28125 C 285,119.1637 286.27887,124.74952 288.5625,129.78125 L 361.4375,129.78125 C 363.72113,124.74952 365,119.1637 365,113.28125 C 365,107.3988 363.72113,101.81298 361.4375,96.78125 L 288.5625,96.78125 z "
       transform="translate(1042.4286,597.79077)"
       style="opacity:1;fill:#ffff00;fill-opacity:1;fill-rule:evenodd;stroke:none;stroke-width:2;stroke-linecap:butt;stroke-linejoin:miter;stroke-miterlimit:4;stroke-dasharray:none;stroke-dashoffset:0;stroke-opacity:1"
       id="rect3634" />
    <path
       d="M 126.54546 103.09091 A 36.545456 36.545456 0 1 1  53.454544,103.09091 A 36.545456 36.545456 0 1 1  126.54546 103.09091 z"
       transform="matrix(0.4514925,0,0,0.4514925,1326.7943,664.52802)"
       style="fill:#ffffff;fill-opacity:1;fill-rule:evenodd;stroke:none;stroke-width:2;stroke-linecap:butt;stroke-linejoin:miter;stroke-miterlimit:4;stroke-dasharray:none;stroke-dashoffset:0;stroke-opacity:1"
       id="path3491" />
    <text
       x="1367.6821"
       y="718.11261"
       style="font-size:19.58893204px;font-style:normal;font-weight:bold;text-align:center;text-anchor:middle;fill:#000000;fill-opacity:1;stroke:none;stroke-width:1px;stroke-linecap:butt;stroke-linejoin:miter;stroke-opacity:1;font-family:Arial"
       id="text3493"
       xml:space="preserve"><tspan
         x="1367.6821"
         y="718.11261"
         id="tspan3495">9</tspan></text>
    <path
       d="M 126.54546 103.09091 A 36.545456 36.545456 0 1 1  53.454544,103.09091 A 36.545456 36.545456 0 1 1  126.54546 103.09091 z"
       transform="matrix(1.0945273,0,0,1.0945273,1068.9211,667.51901)"
       style="fill:#ffffff;fill-opacity:1;fill-rule:evenodd;stroke:none;stroke-width:2;stroke-linecap:butt;stroke-linejoin:miter;stroke-miterlimit:4;stroke-dasharray:none;stroke-dashoffset:0;stroke-opacity:1"
       id="path3499" />
    <path
       d="M 88.5625,166.0625 C 86.27887,171.09423 85.000001,176.68005 85,182.5625 C 85,188.44495 86.27887,194.03077 88.5625,199.0625 L 161.4375,199.0625 C 163.72113,194.03077 165,188.44495 165,182.5625 C 165,176.68005 163.72113,171.09423 161.4375,166.0625 L 88.5625,166.0625 z "
       transform="translate(1042.4286,597.79077)"
       style="opacity:1;fill:#0000ff;fill-opacity:1;fill-rule:evenodd;stroke:none;stroke-width:2;stroke-linecap:butt;stroke-linejoin:miter;stroke-miterlimit:4;stroke-dasharray:none;stroke-dashoffset:0;stroke-opacity:1"
       id="rect3617" />
    <path
       d="M 126.54546 103.09091 A 36.545456 36.545456 0 1 1  53.454544,103.09091 A 36.545456 36.545456 0 1 1  126.54546 103.09091 z"
       transform="matrix(0.4514925,0,0,0.4514925,1126.7943,733.81006)"
       style="fill:#ffffff;fill-opacity:1;fill-rule:evenodd;stroke:none;stroke-width:2;stroke-linecap:butt;stroke-linejoin:miter;stroke-miterlimit:4;stroke-dasharray:none;stroke-dashoffset:0;stroke-opacity:1"
       id="path3501" />
    <text
       x="1167.6821"
       y="787.39465"
       style="font-size:19.58893204px;font-style:normal;font-weight:bold;text-align:center;text-anchor:middle;fill:#000000;fill-opacity:1;stroke:none;stroke-width:1px;stroke-linecap:butt;stroke-linejoin:miter;stroke-opacity:1;font-family:Arial"
       id="text3503"
       xml:space="preserve"><tspan
         x="1167.6821"
         y="787.39465"
         id="tspan3505">10</tspan></text>
    <path
       d="M 126.54546 103.09091 A 36.545456 36.545456 0 1 1  53.454544,103.09091 A 36.545456 36.545456 0 1 1  126.54546 103.09091 z"
       transform="matrix(1.0945273,0,0,1.0945273,1148.9211,667.51902)"
       style="fill:#ffffff;fill-opacity:1;fill-rule:evenodd;stroke:none;stroke-width:2;stroke-linecap:butt;stroke-linejoin:miter;stroke-miterlimit:4;stroke-dasharray:none;stroke-dashoffset:0;stroke-opacity:1"
       id="path3509" />
    <path
       d="M 168.5625,166.0625 C 166.27887,171.09423 165,176.68004 165,182.5625 C 165,188.44495 166.27887,194.03077 168.5625,199.0625 L 241.4375,199.0625 C 243.72113,194.03077 245,188.44495 245,182.5625 C 245,176.68005 243.72113,171.09423 241.4375,166.0625 L 168.5625,166.0625 z "
       transform="translate(1042.4286,597.79077)"
       style="fill:#800000;fill-opacity:1;fill-rule:evenodd;stroke:none;stroke-width:2;stroke-linecap:butt;stroke-linejoin:miter;stroke-miterlimit:4;stroke-dasharray:none;stroke-dashoffset:0;stroke-opacity:1"
       id="path3644" />
    <path
       d="M 126.54546 103.09091 A 36.545456 36.545456 0 1 1  53.454544,103.09091 A 36.545456 36.545456 0 1 1  126.54546 103.09091 z"
       transform="matrix(0.4514925,0,0,0.4514925,1206.7943,733.81007)"
       style="fill:#ffffff;fill-opacity:1;fill-rule:evenodd;stroke:none;stroke-width:2;stroke-linecap:butt;stroke-linejoin:miter;stroke-miterlimit:4;stroke-dasharray:none;stroke-dashoffset:0;stroke-opacity:1"
       id="path3511" />
    <text
       x="1247.6821"
       y="787.39465"
       style="font-size:19.58893204px;font-style:normal;font-weight:bold;text-align:center;text-anchor:middle;fill:#000000;fill-opacity:1;stroke:none;stroke-width:1px;stroke-linecap:butt;stroke-linejoin:miter;stroke-opacity:1;font-family:Arial"
       id="text3513"
       xml:space="preserve"><tspan
         x="1247.6821"
         y="787.39465"
         id="tspan3515">15</tspan></text>
    <path
       d="M 126.54546 103.09091 A 36.545456 36.545456 0 1 1  53.454544,103.09091 A 36.545456 36.545456 0 1 1  126.54546 103.09091 z"
       transform="matrix(1.0945273,0,0,1.0945273,1228.9211,667.51904)"
       style="fill:#000000;fill-opacity:1;fill-rule:evenodd;stroke:none;stroke-width:2;stroke-linecap:butt;stroke-linejoin:miter;stroke-miterlimit:4;stroke-dasharray:none;stroke-dashoffset:0;stroke-opacity:1"
       id="path3519" />
    <path
       d="M 126.54546 103.09091 A 36.545456 36.545456 0 1 1  53.454544,103.09091 A 36.545456 36.545456 0 1 1  126.54546 103.09091 z"
       transform="matrix(0.4514925,0,0,0.4514925,1286.7942,733.81009)"
       style="fill:#ffffff;fill-opacity:1;fill-rule:evenodd;stroke:none;stroke-width:2;stroke-linecap:butt;stroke-linejoin:miter;stroke-miterlimit:4;stroke-dasharray:none;stroke-dashoffset:0;stroke-opacity:1"
       id="path3521" />
    <text
       x="1327.6821"
       y="787.39465"
       style="font-size:19.58893204px;font-style:normal;font-weight:bold;text-align:center;text-anchor:middle;fill:#000000;fill-opacity:1;stroke:none;stroke-width:1px;stroke-linecap:butt;stroke-linejoin:miter;stroke-opacity:1;font-family:Arial"
       id="text3523"
       xml:space="preserve"><tspan
         x="1327.6821"
         y="787.39465"
         id="tspan3525">8</tspan></text>
    <path
       d="M 126.54546 103.09091 A 36.545456 36.545456 0 1 1  53.454544,103.09091 A 36.545456 36.545456 0 1 1  126.54546 103.09091 z"
       transform="matrix(1.0945273,0,0,1.0945273,1108.9211,736.80104)"
       style="fill:#ff7f2a;fill-opacity:1;fill-rule:evenodd;stroke:none;stroke-width:2;stroke-linecap:butt;stroke-linejoin:miter;stroke-miterlimit:4;stroke-dasharray:none;stroke-dashoffset:0;stroke-opacity:1"
       id="path3529" />
    <path
       d="M 126.54546 103.09091 A 36.545456 36.545456 0 1 1  53.454544,103.09091 A 36.545456 36.545456 0 1 1  126.54546 103.09091 z"
       transform="matrix(0.4514925,0,0,0.4514925,1166.7943,803.09209)"
       style="fill:#ffffff;fill-opacity:1;fill-rule:evenodd;stroke:none;stroke-width:2;stroke-linecap:butt;stroke-linejoin:miter;stroke-miterlimit:4;stroke-dasharray:none;stroke-dashoffset:0;stroke-opacity:1"
       id="path3531" />
    <text
       x="1207.6821"
       y="856.67664"
       style="font-size:19.58893204px;font-style:normal;font-weight:bold;text-align:center;text-anchor:middle;fill:#000000;fill-opacity:1;stroke:none;stroke-width:1px;stroke-linecap:butt;stroke-linejoin:miter;stroke-opacity:1;font-family:Arial"
       id="text3533"
       xml:space="preserve"><tspan
         x="1207.6821"
         y="856.67664"
         id="tspan3535">5</tspan></text>
    <path
       d="M 126.54546 103.09091 A 36.545456 36.545456 0 1 1  53.454544,103.09091 A 36.545456 36.545456 0 1 1  126.54546 103.09091 z"
       transform="matrix(1.0945273,0,0,1.0945273,1188.9211,736.80106)"
       style="fill:#800000;fill-opacity:1;fill-rule:evenodd;stroke:none;stroke-width:2;stroke-linecap:butt;stroke-linejoin:miter;stroke-miterlimit:4;stroke-dasharray:none;stroke-dashoffset:0;stroke-opacity:1"
       id="path3539" />
    <path
       d="M 126.54546 103.09091 A 36.545456 36.545456 0 1 1  53.454544,103.09091 A 36.545456 36.545456 0 1 1  126.54546 103.09091 z"
       transform="matrix(0.4514925,0,0,0.4514925,1246.7943,803.09211)"
       style="fill:#ffffff;fill-opacity:1;fill-rule:evenodd;stroke:none;stroke-width:2;stroke-linecap:butt;stroke-linejoin:miter;stroke-miterlimit:4;stroke-dasharray:none;stroke-dashoffset:0;stroke-opacity:1"
       id="path3541" />
    <text
       x="1287.6821"
       y="856.6767"
       style="font-size:19.58893204px;font-style:normal;font-weight:bold;text-align:center;text-anchor:middle;fill:#000000;fill-opacity:1;stroke:none;stroke-width:1px;stroke-linecap:butt;stroke-linejoin:miter;stroke-opacity:1;font-family:Arial"
       id="text3543"
       xml:space="preserve"><tspan
         x="1287.6821"
         y="856.6767"
         id="tspan3545">7</tspan></text>
    <path
       d="M 126.54546 103.09091 A 36.545456 36.545456 0 1 1  53.454544,103.09091 A 36.545456 36.545456 0 1 1  126.54546 103.09091 z"
       transform="matrix(1.0945273,0,0,1.0945273,1148.9211,806.08307)"
       style="fill:#ffff00;fill-opacity:1;fill-rule:evenodd;stroke:none;stroke-width:2;stroke-linecap:butt;stroke-linejoin:miter;stroke-miterlimit:4;stroke-dasharray:none;stroke-dashoffset:0;stroke-opacity:1"
       id="path3549" />
    <path
       d="M 126.54546 103.09091 A 36.545456 36.545456 0 1 1  53.454544,103.09091 A 36.545456 36.545456 0 1 1  126.54546 103.09091 z"
       transform="matrix(0.4514925,0,0,0.4514925,1206.7943,872.37412)"
       style="fill:#ffffff;fill-opacity:1;fill-rule:evenodd;stroke:none;stroke-width:2;stroke-linecap:butt;stroke-linejoin:miter;stroke-miterlimit:4;stroke-dasharray:none;stroke-dashoffset:0;stroke-opacity:1"
       id="path3551" />
    <text
       x="1247.6821"
       y="925.95868"
       style="font-size:19.58893204px;font-style:normal;font-weight:bold;text-align:center;text-anchor:middle;fill:#000000;fill-opacity:1;stroke:none;stroke-width:1px;stroke-linecap:butt;stroke-linejoin:miter;stroke-opacity:1;font-family:Arial"
       id="text3553"
       xml:space="preserve"><tspan
         x="1247.6821"
         y="925.95868"
         id="tspan3555">1</tspan></text>
    <path
       d="M 108.27273,134.74021 A 36.545456,36.545456 0 0 1 71.727272,134.74021"
       transform="matrix(0.3070902,0,0,0.3070902,1099.7906,679.37501)"
       style="fill:none;fill-opacity:1;fill-rule:evenodd;stroke:#000000;stroke-width:3.25637221;stroke-linecap:butt;stroke-linejoin:miter;stroke-miterlimit:4;stroke-dasharray:none;stroke-dashoffset:0;stroke-opacity:1"
       id="path3654" />
    <path
       d="M 126.54546 103.09091 A 36.545456 36.545456 0 1 1  53.454544,103.09091 A 36.545456 36.545456 0 1 1  126.54546 103.09091 z"
       transform="matrix(1.0945273,0,0,1.0945273,988.92114,528.95495)"
       style="fill:url(#radialGradient3681);fill-opacity:1;fill-rule:evenodd;stroke:none;stroke-width:2;stroke-linecap:butt;stroke-linejoin:miter;stroke-miterlimit:4;stroke-dasharray:none;stroke-dashoffset:0;stroke-opacity:1"
       id="path3673" />
    <use
       transform="translate(159.99996,277.12812)"
       id="use3683"
       x="0"
       y="0"
       width="410"
       height="366"
       xlink:href="#path3673" />
    <use
       transform="translate(40,-69.28201)"
       id="use3685"
       x="0"
       y="0"
       width="410"
       height="366"
       xlink:href="#use3683" />
    <use
       transform="translate(-80,-2e-5)"
       id="use3687"
       x="0"
       y="0"
       width="410"
       height="366"
       xlink:href="#use3685" />
    <use
       transform="translate(120,-69.282)"
       id="use3689"
       x="0"
       y="0"
       width="410"
       height="366"
       xlink:href="#use3687" />
    <use
       transform="translate(-80,-2e-5)"
       id="use3691"
       x="0"
       y="0"
       width="410"
       height="366"
       xlink:href="#use3689" />
    <use
       transform="translate(-80,-9.9999999e-6)"
       id="use3693"
       x="0"
       y="0"
       width="410"
       height="366"
       xlink:href="#use3691" />
    <use
       transform="translate(200,-69.28204)"
       id="use3695"
       x="0"
       y="0"
       width="410"
       height="366"
       xlink:href="#use3693" />
    <use
       transform="translate(-80,4e-5)"
       id="use3697"
       x="0"
       y="0"
       width="410"
       height="366"
       xlink:href="#use3695" />
    <use
       transform="translate(-80,-1e-5)"
       id="use3699"
       x="0"
       y="0"
       width="410"
       height="366"
       xlink:href="#use3697" />
    <use
       transform="translate(-80,-2e-5)"
       id="use3701"
       x="0"
       y="0"
       width="410"
       height="366"
       xlink:href="#use3699" />
    <use
       transform="translate(40,-69.28203)"
       id="use3703"
       x="0"
       y="0"
       width="410"
       height="366"
       xlink:href="#use3701" />
    <use
       transform="translate(80,0)"
       id="use3705"
       x="0"
       y="0"
       width="410"
       height="366"
       xlink:href="#use3703" />
    <use
       transform="translate(80,0)"
       id="use3707"
       x="0"
       y="0"
       width="410"
       height="366"
       xlink:href="#use3705" />
    <use
       transform="translate(80,0)"
       id="use3709"
       x="0"
       y="0"
       width="410"
       height="366"
       xlink:href="#use3707" />
  </g>
</svg>
