<?xml version="1.0" encoding="utf-8"?>
<!-- Generator: Adobe Illustrator 19.2.1, SVG Export Plug-In . SVG Version: 6.00 Build 0)  -->
<svg version="1.1" xmlns="http://www.w3.org/2000/svg" xmlns:xlink="http://www.w3.org/1999/xlink" x="0px" y="0px" width="1000px"
	 height="349.9px" viewBox="0 0 1000 349.9" style="enable-background:new 0 0 1000 349.9;" xml:space="preserve">
<style type="text/css">
	.st0{fill:none;stroke:#0C70A3;stroke-width:2;stroke-miterlimit:10;}
	.st1{fill:#0C70A3;}
	.st2{fill:none;stroke:#0C70A3;stroke-miterlimit:10;}
	.st3{opacity:0.2;fill:#FFFFFF;}
</style>
<g id="Layer_1">
</g>
<g id="Layer_3">
	<g>
		<rect y="59.5" class="st0" width="209.8" height="275.1"/>
		<rect x="20.7" y="99.2" class="st1" width="168.5" height="4.1"/>
		<rect x="20.7" y="107.6" class="st1" width="80.3" height="4.1"/>
		<rect x="108.9" y="107.6" class="st1" width="80.3" height="4.1"/>
		<rect x="20.7" y="115.8" class="st1" width="80.3" height="4.1"/>
		<rect x="108.9" y="115.8" class="st1" width="80.3" height="4.1"/>
		<rect x="20.7" y="124.2" class="st1" width="65" height="4.1"/>
		<rect x="108.9" y="124.2" class="st1" width="29" height="4.1"/>
		<rect x="20.7" y="140.8" class="st1" width="80.3" height="4.1"/>
		<rect x="20.7" y="149.2" class="st1" width="80.3" height="4.1"/>
		<rect x="20.7" y="182.6" class="st1" width="80.3" height="4.1"/>
		<rect x="20.7" y="190.8" class="st1" width="65" height="4.1"/>
		<rect x="20.7" y="157.5" class="st1" width="80.3" height="4.1"/>
		<rect x="20.7" y="165.9" class="st1" width="80.3" height="4.1"/>
		<rect x="20.7" y="174.2" class="st1" width="80.3" height="4.1"/>
		<rect x="20.7" y="207.5" class="st1" width="80.3" height="4.1"/>
		<rect x="108.9" y="207.5" class="st1" width="80.3" height="4.1"/>
		<rect x="20.7" y="215.8" class="st1" width="80.3" height="4.1"/>
		<rect x="108.9" y="215.8" class="st1" width="80.3" height="4.1"/>
		<rect x="108.9" y="224.2" class="st1" width="29" height="4.1"/>
		<path class="st1" d="M108.9,240.9v54.2h80.3v-54.2H108.9z M146.9,290.8H113V278h33.9V290.8z M146.9,274.4H113v-12.8h33.9V274.4z
			 M146.9,257.8H113V245h33.9V257.8z M184.6,290.8h-33.9V278h33.9V290.8z M184.6,274.4h-33.9v-12.8h33.9V274.4z M184.6,257.8h-33.9
			V245h33.9V257.8z"/>
		<ellipse class="st0" cx="72" cy="268" rx="27.2" ry="27.1"/>
		<g>
			<line class="st0" x1="50.4" y1="284.4" x2="93.7" y2="251.4"/>
			<line class="st0" x1="70.2" y1="240.9" x2="73.9" y2="295"/>
			<line class="st0" x1="98" y1="276.3" x2="46.2" y2="259.6"/>
		</g>
		<path class="st1" d="M46.2,259.6c0,0,4-7.8,9.7-13.4c2.8-2.8,14.5-5.4,14.5-5.4l1.8,27L46.2,259.6z"/>
		<rect x="20.7" y="231.1" class="st1" width="19.7" height="4.1"/>
		<line class="st2" x1="39.6" y1="233.2" x2="54.9" y2="248.9"/>
		<path class="st1" d="M108.9,140.8V195h80.3v-54.2C189.1,140.8,108.9,140.8,108.9,140.8z M122.3,149.2L122.3,149.2
			c3.6,0,6.5,2.9,6.5,6.4s-2.9,6.4-6.4,6.4h-0.1c-3.5,0-6.4-2.9-6.4-6.4C115.8,152.1,118.7,149.2,122.3,149.2z M113,190.8l21.8-26.3
			l13.9,13.5l15.4-26.6l20.4,39.4H113z"/>
		<g>
			<path class="st1" d="M404.3,288.6v-17.4h5.7c2.2,0,4,0.7,5.4,2.1c1.4,1.4,2.1,3.2,2.1,5.3v2.6c0,2.2-0.7,4-2.1,5.3
				c-1.4,1.4-3.2,2.1-5.4,2.1H404.3z M407.2,273.5v12.8h2.7c1.4,0,2.6-0.5,3.4-1.4c0.8-0.9,1.2-2.2,1.2-3.6v-2.7
				c0-1.5-0.4-2.7-1.2-3.6c-0.8-0.9-2-1.4-3.4-1.4H407.2z"/>
			<path class="st1" d="M425.4,288.8c-1.8,0-3.3-0.6-4.4-1.8c-1.1-1.2-1.6-2.7-1.6-4.6v-0.5c0-1.9,0.5-3.4,1.6-4.7
				c1.1-1.2,2.4-1.9,4.1-1.8c1.7,0,3.1,0.5,4,1.6c0.9,1.1,1.4,2.5,1.4,4.3v1.7h-8.1l0,0.1c0,1,0.3,1.9,0.9,2.5c0.6,0.7,1.3,1,2.3,1
				c0.8,0,1.5-0.1,2-0.3c0.6-0.2,1.1-0.5,1.6-0.8l0.9,1.9c-0.5,0.4-1.1,0.8-1.9,1.1C427.3,288.7,426.4,288.8,425.4,288.8z
				 M425,277.7c-0.7,0-1.3,0.3-1.8,0.9c-0.5,0.6-0.8,1.3-0.9,2.2l0,0.1h5.1v-0.3c0-0.8-0.2-1.5-0.6-2
				C426.5,278,425.9,277.7,425,277.7z"/>
			<path class="st1" d="M436.9,284.2l0.2,1.1h0.1l0.2-1.1l2.6-8.6h3l-4.6,13h-2.5l-4.6-13h3L436.9,284.2z"/>
			<path class="st1" d="M449.9,288.8c-1.8,0-3.3-0.6-4.4-1.8c-1.1-1.2-1.6-2.7-1.6-4.6v-0.5c0-1.9,0.5-3.4,1.6-4.7
				c1.1-1.2,2.4-1.9,4.1-1.8c1.7,0,3.1,0.5,4,1.6c0.9,1.1,1.4,2.5,1.4,4.3v1.7h-8.1l0,0.1c0,1,0.3,1.9,0.9,2.5c0.6,0.7,1.3,1,2.3,1
				c0.8,0,1.5-0.1,2-0.3c0.6-0.2,1.1-0.5,1.6-0.8l0.9,1.9c-0.5,0.4-1.1,0.8-1.9,1.1C451.9,288.7,451,288.8,449.9,288.8z
				 M449.6,277.7c-0.7,0-1.3,0.3-1.8,0.9s-0.8,1.3-0.9,2.2l0,0.1h5.1v-0.3c0-0.8-0.2-1.5-0.6-2C451.1,278,450.4,277.7,449.6,277.7z"
				/>
			<path class="st1" d="M460.2,288.6h-2.9v-18.7h2.9V288.6z"/>
			<path class="st1" d="M462.7,282c0-1.9,0.5-3.5,1.6-4.7c1.1-1.2,2.5-1.9,4.3-1.9c1.9,0,3.3,0.6,4.4,1.9c1.1,1.2,1.6,2.8,1.6,4.7
				v0.3c0,1.9-0.5,3.5-1.6,4.8c-1.1,1.2-2.5,1.8-4.3,1.8c-1.9,0-3.3-0.6-4.4-1.8c-1.1-1.2-1.6-2.8-1.6-4.8V282z M465.6,282.2
				c0,1.3,0.2,2.3,0.7,3.1c0.5,0.8,1.3,1.2,2.3,1.2c1,0,1.8-0.4,2.3-1.2c0.5-0.8,0.8-1.8,0.8-3.1V282c0-1.2-0.3-2.3-0.8-3
				c-0.5-0.8-1.3-1.2-2.3-1.2c-1,0-1.8,0.4-2.3,1.2c-0.5,0.8-0.7,1.8-0.7,3V282.2z"/>
			<path class="st1" d="M488.2,282.5c0,1.9-0.4,3.4-1.3,4.6c-0.9,1.2-2.1,1.7-3.7,1.7c-0.7,0-1.4-0.1-2-0.4
				c-0.6-0.3-1.1-0.7-1.5-1.2v6.3h-2.9v-17.9h2.5l0.3,1.6c0.4-0.6,0.9-1.1,1.5-1.4c0.6-0.3,1.3-0.5,2-0.5c1.6,0,2.8,0.6,3.7,1.9
				c0.9,1.3,1.3,2.9,1.3,5V282.5z M485.3,282.3c0-1.3-0.2-2.4-0.7-3.2c-0.5-0.8-1.2-1.3-2.2-1.3c-0.6,0-1.1,0.1-1.5,0.4
				c-0.4,0.3-0.8,0.6-1,1.1v5.8c0.3,0.5,0.6,0.8,1,1c0.4,0.2,0.9,0.4,1.6,0.4c1,0,1.7-0.4,2.2-1.1c0.5-0.7,0.7-1.7,0.7-2.9V282.3z"
				/>
			<path class="st1" d="M496.1,288.8c-1.8,0-3.3-0.6-4.4-1.8c-1.1-1.2-1.6-2.7-1.6-4.6v-0.5c0-1.9,0.5-3.4,1.6-4.7
				c1.1-1.2,2.4-1.9,4.1-1.8c1.7,0,3.1,0.5,4,1.6c0.9,1.1,1.4,2.5,1.4,4.3v1.7h-8.1l0,0.1c0,1,0.3,1.9,0.9,2.5c0.6,0.7,1.3,1,2.3,1
				c0.8,0,1.5-0.1,2-0.3c0.6-0.2,1.1-0.5,1.6-0.8l0.9,1.9c-0.5,0.4-1.1,0.8-1.9,1.1C498.1,288.7,497.1,288.8,496.1,288.8z
				 M495.7,277.7c-0.7,0-1.3,0.3-1.8,0.9s-0.8,1.3-0.9,2.2l0,0.1h5.1v-0.3c0-0.8-0.2-1.5-0.6-2C497.2,278,496.6,277.7,495.7,277.7z"
				/>
			<path class="st1" d="M509.7,278.2l-1.2,0c-0.6,0-1,0.1-1.4,0.4c-0.4,0.2-0.7,0.6-0.9,1v9h-2.9v-13h2.7l0.2,1.9
				c0.3-0.7,0.7-1.2,1.3-1.6c0.5-0.4,1.1-0.6,1.8-0.6c0.2,0,0.3,0,0.5,0s0.3,0.1,0.4,0.1L509.7,278.2z"/>
			<path class="st1" d="M518.8,285c0-0.4-0.2-0.8-0.6-1.1c-0.4-0.3-1.1-0.6-2.1-0.8c-1.5-0.3-2.7-0.8-3.5-1.4
				c-0.8-0.6-1.2-1.4-1.2-2.5c0-1.1,0.5-2,1.4-2.8c0.9-0.8,2.1-1.1,3.6-1.1c1.6,0,2.8,0.4,3.8,1.2c0.9,0.8,1.4,1.7,1.3,2.9l0,0.1
				h-2.8c0-0.5-0.2-1-0.6-1.4c-0.4-0.4-1-0.6-1.7-0.6c-0.7,0-1.2,0.2-1.6,0.5c-0.4,0.3-0.5,0.7-0.5,1.2c0,0.5,0.2,0.8,0.5,1.1
				c0.3,0.3,1.1,0.5,2.1,0.7c1.6,0.3,2.8,0.8,3.6,1.4c0.8,0.6,1.2,1.4,1.2,2.5c0,1.2-0.5,2.1-1.4,2.8c-1,0.7-2.2,1.1-3.8,1.1
				c-1.7,0-3-0.4-4-1.3c-1-0.9-1.4-1.9-1.4-3l0-0.1h2.7c0,0.8,0.3,1.3,0.8,1.6c0.5,0.3,1.1,0.5,1.9,0.5c0.7,0,1.3-0.1,1.7-0.4
				C518.6,285.9,518.8,285.5,518.8,285z"/>
		</g>
		<g>
			<path class="st1" d="M518.2,183.6c0,1.3,2.4-3.3,1.4,3.7c-0.6,4.3-2,1.8-2.3,2.9c-1.3,3.8-4.3,7-7.2,8.8c-1.5,1,18,9.4,19,11.6
				c1.7,4.1,2.9,18.8,2.9,18.8l-10.1,0v-20.2l-27.8,0.1c-1.9-1.4-4.4-3-2.5-4c5.3-3.1,10.1-6.1,9.5-6.6c-2.7-1.8-5.3-4.8-6.4-8.4
				c-0.3-1-1.8,2-2.4-3c-0.8-7,1.4-2.4,1.4-3.7c0-9.4,0-16.9,12.3-16.9C518.2,166.6,518.2,174.2,518.2,183.6z"/>
			<rect x="495.7" y="232.3" class="st1" width="26.1" height="2.8"/>
			<path class="st1" d="M406.6,183.6c0,1.3-2.4-3.3-1.4,3.7c0.6,4.3,2,1.8,2.3,2.9c1.3,3.8,4.3,7,7.2,8.8c1.5,1-18,9.4-19,11.6
				c-1.7,4.1-2.9,18.8-2.9,18.8l10.1,0v-20.2l27.8,0.1c1.9-1.4,4.4-3,2.5-4c-5.3-3.1-10.1-6.1-9.5-6.6c2.7-1.8,5.3-4.8,6.4-8.4
				c0.3-1,1.8,2,2.4-3c0.8-7-1.4-2.4-1.4-3.7c0-9.4,0-16.9-12.3-16.9C406.6,166.6,406.6,174.2,406.6,183.6z"/>
			
				<rect x="403" y="232.3" transform="matrix(-1 -3.859769e-011 3.859769e-011 -1 832.0395 467.3995)" class="st1" width="26.1" height="2.8"/>
			<rect x="439.6" y="236.9" class="st1" width="44" height="3.2"/>
			<path class="st1" d="M493.2,234c0,0-1.4-17.9-3.5-22.8c-0.9-2-19.8-6.8-19.6-13.9c0,0-1.2,0.2-1.7,0.2c-0.5,0-1.6-0.3-1.6-0.3
				c4.9-1.1,12.8-1.1,14.6-7.1c0,0-4.4,0-4.9-11.5c-0.5-11.3,0-20.4-14.7-20.5v0c0,0,0,0,0,0c0,0,0,0-0.1,0s0,0-0.1,0c0,0,0,0,0,0v0
				c-14.7,0.1-14.2,9.2-14.7,20.5c-0.5,11.5-4.9,11.5-4.9,11.5c1.8,6,9.7,6,14.6,7.1c0,0-1.2,0.3-1.6,0.3c-0.5,0-1.7-0.2-1.7-0.2
				c0.1,7.2-18.8,11.9-19.6,13.9c-2.1,4.9-3.5,22.8-3.5,22.8l12.2,0v-24.4H481V234L493.2,234z"/>
		</g>
		<g>
			<polygon class="st1" points="286.9,180.1 303,180.1 321.9,199.1 303,218.1 286.9,218.1 305.9,199.1 			"/>
		</g>
		<g>
			<polygon class="st1" points="602.3,180.1 618.4,180.1 637.4,199.1 618.4,218.1 602.3,218.1 621.4,199.1 			"/>
		</g>
		<path class="st1" d="M888.8,28.1l10.2,114.1l45.4,12.6l45.5-12.6L1000,28.1H888.8z M978,56.3l-0.6,6.9l-0.3,3h0h-32.6h0h-19.1
			l1.3,13.9h17.9h0h27.8h3.7l-0.3,3.7l-3.2,35.7l-0.2,2.3l-27.7,7.7v0h-0.1l-27.8-7.7l-1.9-21.3h6.3h7.3l1,10.8l15.1,4.1l0,0v0
			l15.1-4.1l1.6-17.6h-16.6h0H914l-3.3-37.3l-0.3-3.6h33.9h0h0h33.9L978,56.3z"/>
		<path class="st1" d="M810.7,151.8v62.4h92.5v-62.4H810.7z M818.7,165.7c0-2.3,1.9-4.2,4.2-4.2h6.5c2.3,0,4.2,1.9,4.2,4.2v6.4
			c0,2.3-1.9,4.2-4.2,4.2h-6.5c-2.3,0-4.2-1.9-4.2-4.2V165.7z M815.5,209.4l25.1-30.4l16.1,15.6l17.7-30.6l23.5,45.4H815.5z"/>
		<g>
			<rect x="766.1" y="153.1" class="st1" width="37.3" height="4.8"/>
			<circle class="st1" cx="757" cy="155.5" r="3.7"/>
		</g>
		<g>
			<rect x="766.1" y="208.1" class="st1" width="37.3" height="4.8"/>
			<circle class="st1" cx="757" cy="210.5" r="3.7"/>
		</g>
		<g>
			<rect x="766.1" y="194.4" class="st1" width="37.3" height="4.8"/>
			<circle class="st1" cx="757" cy="196.8" r="3.7"/>
		</g>
		<g>
			<rect x="766.1" y="180.6" class="st1" width="37.3" height="4.8"/>
			<circle class="st1" cx="757" cy="183" r="3.7"/>
		</g>
		<g>
			<rect x="766.1" y="166.9" class="st1" width="37.3" height="4.8"/>
			<circle class="st1" cx="757" cy="169.3" r="3.7"/>
		</g>
		<rect x="753.3" y="107.6" class="st1" width="31.4" height="4.8"/>
		<g>
			<path class="st1" d="M822,115.5h-32.8v-11H822V115.5z M790.4,114.3h30.3v-8.5h-30.3V114.3z"/>
		</g>
		<rect x="828.1" y="107.6" class="st1" width="36.5" height="4.8"/>
		<rect x="753.3" y="133.1" class="st1" width="65.4" height="4.8"/>
		<rect x="753.3" y="94.9" class="st1" width="65.4" height="4.8"/>
		<g>
			<path class="st1" d="M857,102.8h-32.8v-11H857V102.8z M825.5,101.5h30.3V93h-30.3V101.5z"/>
		</g>
		<g>
			<path class="st1" d="M867.3,128.3h-32.8v-11h32.8V128.3z M835.7,127H866v-8.5h-30.3V127z"/>
		</g>
		<g>
			<path class="st1" d="M785.5,128.3h-32.8v-11h32.8V128.3z M754,127h30.3v-8.5H754V127z"/>
		</g>
		
			<rect x="791.9" y="120.3" transform="matrix(-1 -4.459156e-011 4.459156e-011 -1 1620.21 245.4771)" class="st1" width="36.5" height="4.8"/>
		<path class="st1" d="M753.3,226.6V289h149.8v-62.4H753.3z M828.2,275.3c-9.6,0-17.4-7.8-17.4-17.4c0-9.6,7.8-17.4,17.4-17.4
			c9.6,0,17.4,7.8,17.4,17.4C845.6,267.5,837.9,275.3,828.2,275.3z"/>
		<polygon class="st1" points="823.1,248.2 836.6,257.8 823.1,267.5 		"/>
		<path class="st1" d="M871.7,296.8c-5,0-9,4-9,9c0,5,4,9,9,9s9-4,9-9C880.7,300.8,876.7,296.8,871.7,296.8z M876.2,308.1l-2.2,2.2
			l-2.3-2.3l-2.3,2.3l-2.2-2.2l2.3-2.3l-2.3-2.3l2.2-2.2l2.3,2.3l2.3-2.3l2.2,2.2l-2.3,2.3L876.2,308.1z"/>
		<path class="st1" d="M894.1,296.8c-5,0-9,4-9,9c0,5,4,9,9,9c5,0,9-4,9-9C903.2,300.8,899.1,296.8,894.1,296.8z M893.4,310.3
			L893.4,310.3h-0.2l-5.2-5.2l2.2-2.2l3.1,3.1l4.7-4.7l2.2,2.2L893.4,310.3z"/>
		<polygon class="st1" points="900.3,0 907.2,0 907.2,6.8 913.5,6.8 913.5,0 920.4,0 920.4,20.6 913.5,20.6 913.5,13.7 907.2,13.7 
			907.2,20.6 900.3,20.6 		"/>
		<polygon class="st1" points="929.5,6.8 923.4,6.8 923.4,0 942.4,0 942.4,6.8 936.3,6.8 936.3,20.6 929.5,20.6 		"/>
		<polygon class="st1" points="945.4,0 952.6,0 957,7.3 961.4,0 968.6,0 968.6,20.6 961.8,20.6 961.8,10.4 957,17.7 956.9,17.7 
			952.2,10.4 952.2,20.6 945.4,20.6 		"/>
		<polygon class="st1" points="972.1,0 978.9,0 978.9,13.8 988.6,13.8 988.6,20.6 972.1,20.6 		"/>
		<path class="st1" d="M918.9,150.3v174.9H737.6v-252h152.7L887.7,44H727.1c-8.1,0-14.7,6.9-14.7,15.3v275.2
			c0,8.5,6.6,15.4,14.7,15.4h202.3c8.1,0,14.7-6.9,14.7-15.4V157.3L918.9,150.3z M828.2,342.7c-2.6,0-4.6-2.1-4.6-4.6
			c0-2.6,2.1-4.6,4.6-4.6c2.6,0,4.6,2.1,4.6,4.6C832.9,340.6,830.8,342.7,828.2,342.7z"/>
		<polygon class="st1" points="892.2,94.9 861,94.9 861,99.7 892.6,99.7 		"/>
		<polygon class="st1" points="893.9,114.3 872.2,114.3 872.2,105.7 893.2,105.7 893.1,104.5 871,104.5 871,115.5 894,115.5 		"/>
		<polygon class="st1" points="894.5,120.3 871.8,120.3 871.8,125.1 894.9,125.1 		"/>
		<g>
			<polygon class="st3" points="961,93.6 944.4,93.6 944.4,115.3 959.4,111.2 			"/>
			<polygon class="st3" points="944.4,39.1 944.4,52.6 978.3,52.6 978,56.3 977.3,63.2 977.1,66.2 977,66.2 944.4,66.2 944.4,80.1 
				972.2,80.1 975.8,80.1 975.5,83.7 972.3,119.4 972.1,121.7 944.4,129.4 944.4,143.4 980.2,133.5 988.6,39.1 			"/>
		</g>
	</g>
</g>
</svg>
