<?xml version="1.0" encoding="utf-8"?>
<!-- Generator: Adobe Illustrator 12.0.0, SVG Export Plug-In . SVG Version: 6.00 Build 51448)  -->
<!DOCTYPE svg PUBLIC "-//W3C//DTD SVG 1.1//EN" "http://www.w3.org/Graphics/SVG/1.1/DTD/svg11.dtd" [
	<!ENTITY ns_svg "http://www.w3.org/2000/svg">
	<!ENTITY ns_xlink "http://www.w3.org/1999/xlink">
]>
<svg  version="1.1" id="Layer_1" xmlns="&ns_svg;" xmlns:xlink="&ns_xlink;" width="7937.65" height="6690.734"
	 viewBox="-4142.112 -3183.343 7937.65 6690.734" overflow="visible" enable-background="new -4142.112 -3183.343 7937.65 6690.734"
	 xml:space="preserve">
<g id="Ausland">
	<rect x="-4826.681" y="-3311.543" fill="#FFFFFF" width="8919.568" height="7382.954"/>
	<path id="_x35_7764776" fill="#E0E0E0" d="M-4609.399-1173.965l52.146,67.563l186.756,58.219l48.961,85.682h85.732l73.466,33.675
		l45.921-67.394l168.79,83.882l-15.519-381.99l-68.325-419.208l149.054-226.725l-206.712-211.199l60.371-102.629l108.646,3.027
		l-54.323-102.579l9.063-96.601l93.567-78.438l87.488-6.029l60.371-117.739l108.646-69.42l30.188-147.852l120.697-301.771
		l-108.646-33.215l-1036.336-0.076V-1173.965z"/>
	<path id="_x35_7763280" fill="#E0E0E0" d="M-4609.399-1173.965l52.146,67.563l186.756,58.219l48.961,85.682h85.732l73.466,33.675
		l45.921-67.394l168.79,83.882l211.174,21.743l155.265-145.964l74.537,9.346l133.522,136.644l158.374,12.423l108.702,118.004
		l208.06,96.267l123.239,142.497l101.717,21.202l127.128,173.736l-122.887,105.965l25.425,118.665l72.051,33.914l101.717,127.116
		l63.573-33.908l88.999,88.979l-4.242,148.324l84.757-4.204l29.666,101.723l-59.339,67.791l-12.706,122.918l-63.58,25.438
		l-42.378-118.652l-80.515,25.438l84.757,216.146l84.756-8.471l55.084,67.828l-28.307,155.58l177.487,213.779l80.672-8.08
		l177.449,149.236l40.339,92.749l52.454,48.42l24.191,270.242l64.524-8.081l129.073,104.87l-20.157,189.576l68.57,205.686
		l169.419-44.354l96.776,193.604l-137.116,237.995l108.903,205.687l100.83,60.478l306.522-56.438l141.168,96.789l64.518-4.027
		l169.419,108.897l96.82-80.679l-36.324-112.976v-80.666l108.91-20.15l12.083-88.722l-72.599-133.126l4.041-88.709l-133.101-161.332
		l64.555-16.16l108.872-96.827l274.295,133.126l133.088-56.513l64.519-108.872l149.249,4.027l161.345,229.877l96.826-72.598
		l241.986,193.604l8.042-24.179l56.476,52.41l165.359-8.081l-36.273,189.576v213.768l60.49,44.366l68.583,165.348l-8.093,278.348
		l80.678,100.804l64.518-24.216l80.68-149.212l92.748-84.693l-60.502-189.576l52.473-80.691l72.585-4.04l88.759-20.15l32.247,80.691
		l-64.543,44.329l16.136,76.639l149.249-48.408l60.49,145.234l177.442,116.928l-8.03-84.669l133.089-36.286l121.005,20.15
		l48.445,112.938l36.261,4.028l16.161-80.666l290.393-68.559l133.089,84.669l141.168-16.11l40.34,80.666l68.57-4.028l68.508-157.267
		l56.487-108.909l112.95-84.669l233.905,4.027l16.161-169.425l33.14-132.182l12.649-84.342l322.777-81.245v1257.215h-8464.541
		V-1173.965z"/>
</g>
<g id="Gemeinden">
	<g id="Layer_1_1_">
		<g>
			<path id="_x33_1223848" fill="#BFBFBF" stroke="#FFFFFF" stroke-width="0.5" stroke-miterlimit="3.8637" d="M-227.738-529.901
				l12.712,122.906l-63.611,80.528l46.62,148.33h-80.527l-21.221,114.423l-72.045,21.202l-46.613-55.072l-156.801,50.83
				l-4.242-118.658l-178.002-135.605l-4.229-152.56l-76.286-173.749l105.946-114.423l-14.141-114.643l68.319-186.329l128.06,33.977
				l182.245-161.042l182.225,33.908l93.24-101.717l88.998-21.214l80.516-139.854l105.951,122.906l-33.907,76.286l-67.815-16.947
				l12.699,88.998l118.665,122.9l-38.149,80.527L-37.13-932.47l-97.481-50.861h-97.481l-4.229,72.076h76.286l-8.471,173.724
				l55.078,46.613l-8.471,131.377L-227.738-529.901z"/>
			<path id="_x33_1223936" fill="#BFBFBF" stroke="#FFFFFF" stroke-width="0.5" stroke-miterlimit="3.8637" d="M-2278.926,550.789
				l12.712-122.918l59.338-67.803l-29.672-101.71l-84.756,4.197l4.241-148.317l-88.992-88.967l-63.58,33.895l-101.717-127.123
				l-72.044-33.908l-25.431-118.664l122.894-105.952l118.664,25.424l93.233,233.1l127.129-4.248v-42.366l173.749-101.729
				l118.664-33.895l161.042,165.24l59.339,110.225l178.002,63.574l12.706,122.893l12.712,216.133l-55.091,63.611l4.242,72.045
				l-139.866-16.941l-8.464,88.985l-55.097-42.365l-114.429,72.044l-101.711-33.907l-76.286,33.907l-72.051-29.679l-131.37,122.906
				l-55.084-67.815l-84.756,8.445l-84.75-216.133l80.515-25.438l42.372,118.627L-2278.926,550.789z"/>
			<path id="_x33_1224024" fill="#BFBFBF" stroke="#FFFFFF" stroke-width="0.5" stroke-miterlimit="3.8637" d="M-1316.906,707.591
				l-152.56-114.436l-67.821,4.683l-4.223-34.349l-4.242-72.044l55.084-63.6l-12.706-216.146l131.371-114.423l97.475-29.697
				l93.233-131.345l72.044,122.893h105.958l4.229,105.952l76.286,101.729l-88.992,101.729l-50.849-8.471l-220.381,262.766
				L-1316.906,707.591z"/>
			<path id="_x33_1224112" fill="#BFBFBF" stroke="#FFFFFF" stroke-width="0.5" stroke-miterlimit="3.8637" d="M-732.067,182.059
				l-190.709,84.763l-76.286-101.729l-4.229-105.952h-105.958l-72.044-122.893h84.757l59.338-118.665l203.415-25.456l42.378-93.208
				l178.002,135.599l4.242,118.665l156.801-50.83l55.084,50.83l29.678,186.499l-101.723,114.422l-135.612-4.242L-732.067,182.059z"
				/>
			<path id="_x33_1224200" fill="#BFBFBF" stroke="#FFFFFF" stroke-width="0.5" stroke-miterlimit="3.8637" d="M-216.247,209.585
				l-87.79-137.726l-63.611,67.834l-38.137-182.257l72.069-21.202l21.195-114.423h80.528l-46.62-148.362l63.586-80.527
				l-12.712-122.875l105.965-29.698l8.471-131.345l-55.078-46.62l8.471-173.749h-76.286l4.241-72.044h97.481l97.469,50.855
				l178.021,8.483l38.137-80.527l148.344-93.234l76.273-152.572l80.527-4.242l4.229,165.278l59.332,55.103l-12.712,194.938
				l63.587,38.137l67.814,169.495L543.656-555.42h-80.527l-97.47,101.742l-72.044,4.242l-59.345-50.862L111.364-305.348
				l80.528,118.664l-25.45,72.044l76.286,4.229L285.106-0.223l12.713,127.141l-76.299,25.431l12.712,101.742h-76.286l-33.92-76.311
				l-80.527,33.933L-216.247,209.585z"/>
			<path id="_x33_1224288" fill="#BFBFBF" stroke="#FFFFFF" stroke-width="0.5" stroke-miterlimit="3.8637" d="M-1716.51,1680.366
				l-24.191-270.255l-52.46-48.407l84.719-20.15l56.45,48.407l112.969-274.27l64.518,40.352l161.338,20.15l-4.021,64.518
				l-72.636,52.397l16.148,76.651l133.095,133.088l197.644,96.814l-8.068,141.169l-88.746-32.297l-80.672,145.222l-76.607,12.096
				l-8.068,262.187l-169.419,44.342l-68.564-205.687l20.157-189.576l-129.08-104.882L-1716.51,1680.366z"/>
			<path id="_x33_1224376" fill="#BFBFBF" stroke="#FFFFFF" stroke-width="0.5" stroke-miterlimit="3.8637" d="M-2091.603,1127.799
				l-177.487-213.792l28.3-155.567l131.377-122.906l72.044,29.666l76.286-33.907l101.717,33.907l114.423-72.044l55.097,42.378
				l8.471-88.998l139.86,16.954l4.229,34.349l67.821-4.683l152.56,114.436l40.339,52.409l92.466-35.569l16.11,84.682l-125.008,8.08
				l-56.488,116.966l-217.775-24.217l-68.57,52.423l96.82,153.302l-112.969,274.27l-56.45-48.407l-84.719,20.138l-40.339-92.748
				l-177.449-149.25L-2091.603,1127.799z"/>
			<path id="_x33_1224464" fill="#BFBFBF" stroke="#FFFFFF" stroke-width="0.5" stroke-miterlimit="3.8637" d="M-1305.1,2128.063
				l8.068-262.175l76.607-12.082l80.672-145.222l88.746,32.296l8.074-141.168l84.688,16.11l92.755-108.885l-16.111-60.503
				l72.592-8.03l88.747,60.49l129.079,16.11l104.857,104.896l-84.688,68.52l-44.386,169.438l-112.931,36.299l-44.348,100.816
				l-44.374-48.407l-181.508,169.426l-157.279-52.423l-72.63,4.04L-1305.1,2128.063z"/>
			<path id="_x33_1224552" fill="#BFBFBF" stroke="#FFFFFF" stroke-width="0.5" stroke-miterlimit="3.8637" d="M-853.356,1281.051
				l32.259-60.49l28.237-141.169l68.539-12.083l20.157-80.666l-68.539-12.095l-8.068-88.747l32.259-116.965l116.978,4.04
				l12.089-72.661h193.598l80.666,193.629l60.062-4.972l113.366-95.87l20.163,104.869l-40.327,88.771l48.407,76.589l-76.65,141.144
				l-72.599-8.03l-24.19,125.033l-463.821,4.027L-853.356,1281.051z"/>
			<path id="_x33_1224640" fill="#BFBFBF" stroke="#FFFFFF" stroke-width="0.5" stroke-miterlimit="3.8637" d="M-853.356,1281.051
				l-40.333,40.352l-26.998,78.967l-73.838-87.047l-28.225-250.066l80.666-20.15l32.259-185.536l129.08,28.231l8.068,88.747
				l68.539,12.095l-20.157,80.666l-68.539,12.083l-28.237,141.169L-853.356,1281.051z"/>
			<path id="_x33_1224728" fill="#BFBFBF" stroke="#FFFFFF" stroke-width="0.5" stroke-miterlimit="3.8637" d="M-575.071,1442.383
				l-16.111,72.623l-129.079-16.11l-88.747-60.49l-72.592,8.03l-39.087-46.041l26.998-78.967l40.333-40.352l72.598,44.354
				l463.833-4.028l4.028,153.265l-104.857-8.093l-29.131-34.563L-575.071,1442.383z"/>
			<path id="_x33_1224816" fill="#BFBFBF" stroke="#FFFFFF" stroke-width="0.5" stroke-miterlimit="3.8637" d="M-216.083,530.865
				l76.601,120.993l-32.271,141.168l-32.259,32.271l-81.107,63.637l-60.062,4.984l-80.666-193.629h-193.598l-161.338-16.11
				l-125.058-84.706l-12.089-84.681l-93.857-146.179l88.999-101.729l190.708-84.75l127.135,67.815l135.612,4.242l101.711-114.423
				l63.586-67.834l87.815,137.727l259.72,2.152L124,177.906l33.921,76.286L58.187,397.814L-216.083,530.865z"/>
			<path id="_x33_1224904" fill="#BFBFBF" stroke="#FFFFFF" stroke-width="0.5" stroke-miterlimit="3.8637" d="M-881.6,1446.41
				l16.111,60.503l-92.755,108.885l-84.693-16.11l-197.644-96.814l-133.095-133.113l-16.148-76.626l72.636-52.41l4.021-64.518
				l-161.338-20.163l-64.518-40.327l-96.82-153.302l68.57-52.435l217.776,24.216l56.487-116.978l125.008-8.08l-16.11-84.644
				l-92.466,35.544l-40.339-52.422l33.908-84.757l220.381-262.753l50.849,8.47l93.851,146.191l12.089,84.668l125.058,84.707
				l161.338,16.11l-12.089,72.648l-116.978-4.04l-32.259,116.965l-129.08-28.231l-32.259,185.536l-80.666,20.15l28.225,250.066
				l73.838,87.047L-881.6,1446.41z"/>
		</g>
		<g>
			<path id="_x33_1225168" fill="#BFBFBF" stroke="#FFFFFF" stroke-width="0.5" stroke-miterlimit="3.8637" d="M-11.618-2852.294
				l173.755,55.084l67.803-101.742l-50.836-148.336l114.41-42.372l-4.229,118.665l67.841-4.242l144.089-139.853l105.978,4.242
				l-63.6,139.854l25.463,67.803l131.339-152.56l88.973,110.181l29.691,127.148l84.744,59.338l67.828-16.947l-16.93,127.141
				l16.93,110.188l-161.043,25.425l-84.731-33.896l25.425,84.757l101.723,21.214l-46.62,127.104l-135.593,4.242l-42.379,127.128
				l55.078,59.338l-33.907,63.593l33.907,101.717l118.665,72.044l4.229,144.12l-186.479,165.284l-152.572-4.242l-12.687,72.044
				l-80.528-50.855l-21.208-279.707l46.62-97.475l-29.691-161.042l42.392-67.803l-80.528-80.528l33.908-309.373l-182.251-97.475
				L13.845-2534.426l-110.182-76.279l-33.907-203.427L-11.618-2852.294z"/>
			<path id="_x33_1225256" fill="#BFBFBF" stroke="#FFFFFF" stroke-width="0.5" stroke-miterlimit="3.8637" d="M1107.198-3059.97
				l224.629,411.09l93.228-127.141l317.855,135.612l33.883-72.069h165.259l16.954,186.492l118.652,131.345l165.259-33.895
				L2226-2326.794l-161.042,144.088l-76.286,8.483l-55.053,135.6l-63.611,88.992l-93.215,8.483l-42.365-63.592l-16.941-97.475
				l-50.85,50.861l-67.814,4.223l-59.333-42.372l-169.525,4.21l-63.574,55.084l38.137,118.664l-156.801,42.378l-50.849,131.358
				l-93.215,4.229l-114.448,29.685l-122.88-38.137l-4.255-144.12l-118.664-72.044l-33.883-101.717l33.883-63.593l-55.053-59.338
				l42.378-127.135l135.594-4.235l46.607-127.123l-101.711-21.214l-25.449-84.751l84.743,33.896l161.043-25.431l-16.916-110.181
				l16.916-127.148l-67.815,16.954l-84.757-59.345l-29.703-127.141l-88.961-110.181L1107.198-3059.97z"/>
			<path id="_x33_1225344" fill="#BFBFBF" stroke="#FFFFFF" stroke-width="0.5" stroke-miterlimit="3.8637" d="M1632.704-1585.155
				l-110.181,67.803l-233.087,55.104l-63.574-29.698l-88.998,93.233l-29.666-131.37l38.137-80.528l-101.735-122.906l93.227-4.21
				l50.824-131.376l156.801-42.378l-38.137-118.658l63.599-55.084l169.501-4.216l59.345,42.365l67.803-4.216l50.861-50.861
				l16.929,97.481l-55.078,59.333l-88.998,148.324L1632.704-1585.155z"/>
			<path id="_x33_1225432" fill="#BFBFBF" stroke="#FFFFFF" stroke-width="0.5" stroke-miterlimit="3.8637" d="M2170.922-1945.377
				l4.254,279.707l25.425,131.345l-122.868,97.475h-76.324l-80.478,76.286l-4.241,76.273l-110.206,16.954l-12.699-161.042
				l-55.053-114.422l-105.99-42.379l-42.354-211.897l88.974-148.324l55.065-59.338l42.365,63.592l93.24-8.483l63.586-88.992
				l72.045,25.456l13.945,68.979L2170.922-1945.377z"/>
			<path id="_x33_1225520" fill="#BFBFBF" stroke="#FFFFFF" stroke-width="0.5" stroke-miterlimit="3.8637" d="M2412.493-2301.37
				l166.152-121.987l41.548-89.936l25.865,12.725l-30.107,139.879l97.469,199.16l8.483,224.636l139.872,42.391l38.15-55.097
				l3.523,72.302l72.749,114.139l-114.423-8.483l-33.92,127.135l-55.078,84.769l-105.939,21.215l-21.208,72.044l-84.757-8.483
				l-233.1-135.612l-63.586,118.664l-63.586-42.391l-25.438-131.345l-4.241-279.707l-151.313,1.165l-13.945-68.979l-72.045-25.456
				l55.065-135.6l76.286-8.483l161.043-144.088l12.699,38.545L2412.493-2301.37z"/>
			<path id="_x33_1225608" fill="#BFBFBF" stroke="#FFFFFF" stroke-width="0.5" stroke-miterlimit="3.8637" d="M2755.76-1258.835
				l135.618-16.922l67.815,139.854l-135.618,178.015l-300.89,161.03l63.599,80.515l-16.953,114.448l-97.469,59.338L2259.97-712.076
				l-131.363,127.128l-262.753,199.192l-169.514-29.672l-59.332-122.906l-114.423-4.235l-38.149,80.515l-38.137-161.042
				l-50.823-46.62v-169.495l122.868-84.756l-139.886-46.614l-29.652-250.035l-67.828-72.051l8.482-169.481l233.088-55.097
				l110.181-67.81l105.952,42.378l55.09,114.423l12.7,161.042l110.206-16.947l4.242-76.273l80.515-76.286h76.273l122.894-97.476
				l63.586,42.392l63.586-118.665l233.075,135.612l84.757,8.477l21.207-72.057l105.965-21.202l29.704,88.992L2755.76-1258.835z"/>
			<path id="_x33_1225696" fill="#BFBFBF" stroke="#FFFFFF" stroke-width="0.5" stroke-miterlimit="3.8637" d="M891.064-792.661
				H759.688l-16.916,118.664l-76.286,42.378l-67.828-169.494l-63.586-38.137l12.725-194.938l-59.345-55.097l-4.229-165.284
				l-80.527,4.242l-76.273,152.572l-148.343,93.234l-118.664-122.9l-12.712-88.998l67.84,16.947l33.908-76.286L43.499-1398.663
				l46.595-84.763l97.481,4.235l186.492-80.521l80.502,50.855l12.713-72.045l152.571,4.217l186.48-165.259l122.88,38.137
				l114.436-29.679l101.735,122.899l-38.161,80.527l29.69,131.37l21.209,67.81l-84.757,114.422l-8.471,127.129L1031-983.369
				L895.394-877.398L891.064-792.661z"/>
			<path id="_x33_1225784" fill="#BFBFBF" stroke="#FFFFFF" stroke-width="0.5" stroke-miterlimit="3.8637" d="M1403.859-360.395
				l-84.757,46.62l-169.514,8.477l-30.333-69.351l-58.64-134.076l-42.379,55.084l-156.801-12.706v-84.756l-88.998-50.83
				l-105.952-29.698l76.286-42.378l16.916-118.665h131.376l4.242-84.738l135.618-105.971l33.883-105.958l8.482-127.128
				l84.731-114.423l-21.221-67.809l88.986-93.234l63.611,29.698l-8.483,169.482l67.841,72.044l29.679,250.035l139.847,46.62
				L1395.388-839.3v169.495l50.849,46.62l38.137,161.036L1403.859-360.395z"/>
		</g>
		<g>
			<path id="_x33_1226048" fill="#BFBFBF" stroke="#FFFFFF" stroke-width="0.5" stroke-miterlimit="3.8637" d="M679.185,25.258
				l-4.254,135.605l46.62,186.48l-97.481-33.908l-127.135,80.503L429.132,292.24l-12.7-127.147l-118.664-38.137L285.056-0.185
				l-42.379-110.188l-76.285-4.223l25.449-72.051L111.314-305.31l122.905-194.951l59.345,50.862l72.045-4.242l97.469-101.742h80.527
				l122.894-76.273l105.952,29.685l88.998,50.842v84.75l156.801,12.712l42.379-55.084l58.64,134.076l-71.353,35.443L929.251-165.507
				l-72.044-8.439l-42.379,72.044L679.185,25.258z"/>
			<path id="_x33_1226136" fill="#BFBFBF" stroke="#FFFFFF" stroke-width="0.5" stroke-miterlimit="3.8637" d="M1170.784,71.884
				l67.803,84.757l4.242,110.194l-144.089-4.254L895.319,444.85l-50.849,4.242l-8.483-105.978l-114.41,4.229l-46.62-186.461
				l4.229-135.6l135.606-127.135l42.378-72.044l72.044,8.439l118.665-173.724l71.352-35.443l30.358,69.357l169.488-8.483
				l84.757-46.62l84.756-8.439l131.352,114.423l-8.482,105.958L1391.095-42.475l67.791,72.05l-16.916,67.828L1170.784,71.884z"/>
			<path id="_x33_1226224" fill="#BFBFBF" stroke="#FFFFFF" stroke-width="0.5" stroke-miterlimit="3.8637" d="M1471.673,254.116
				l-139.859,148.33l33.908,93.215h-84.77l-21.183,199.167h-84.757l-4.242-152.547l-97.481-29.691l-38.136-97.469L895.293,444.8
				l203.421-182.27l144.089,4.254l-4.241-110.193l-67.803-84.757l271.223,25.456L1471.673,254.116z"/>
			<path id="_x33_1226312" fill="#BFBFBF" stroke="#FFFFFF" stroke-width="0.5" stroke-miterlimit="3.8637" d="M1441.996,97.315
				l16.94-67.834l-67.79-72.044l220.362-105.958l110.193,42.378l33.908,80.515l84.757,4.242l-21.184,72.044l8.207,128.098
				l-59.081,75.323l-25.425,156.813l-122.893,186.468l-139.885,8.471l-114.423-110.219l-33.908-93.202l139.848-148.331
				L1441.996,97.315z"/>
			<path id="_x33_1226400" fill="#BFBFBF" stroke="#FFFFFF" stroke-width="0.5" stroke-miterlimit="3.8637" d="M1885.287,1039.04
				l-28.219,28.244h-76.6l-72.611-40.34l-84.693-80.653l-84.682-68.583l28.206-104.857l64.556,20.151l145.196-24.229l112.963,8.094
				l153.265-24.204l80.703,96.776l24.166,205.737l-60.49-48.407l-76.575,4.027l-60.49,76.601L1885.287,1039.04z"/>
			<path id="_x33_1226488" fill="#BFBFBF" stroke="#FFFFFF" stroke-width="0.5" stroke-miterlimit="3.8637" d="M2620.167-517.195
				l122.894,16.947l135.618,194.95l-46.62,59.345h-101.748l-97.469,46.613l-25.45-84.769h-110.193l-55.065,110.225l-89.011,12.681
				l-72.045,84.757l-25.437-67.822l-122.881,21.202l-84.757,110.188l-63.599-80.49l-144.102,72.044l-84.744-4.242l-33.907-80.515
				l-110.193-42.372l8.457-105.958L1488.54-368.833l-84.731,8.439l80.515-101.717l38.149-80.509l114.423,4.235l59.345,122.906
				l169.501,29.672l262.766-199.192l131.364-127.135l211.891,169.525l97.481-59.338L2620.167-517.195z"/>
			<path id="_x33_1226576" fill="#BFBFBF" stroke="#FFFFFF" stroke-width="0.5" stroke-miterlimit="3.8637" d="M2123.27,849.464
				l-80.679-96.764l-153.289,24.19l-112.988-8.08l-145.196,24.216l-64.53-20.15l-4.04-116.978l57.394-58.489l122.894-186.467
				l25.425-156.813l59.08-75.317l-8.206-128.104l21.208-72.044l144.089-72.044l63.599,80.502l84.757-110.2l122.881-21.202
				l25.462,67.822l72.045-84.756l88.985-12.681l55.065-110.219h110.193l25.449,84.763l-61.925,32.429v92.768L2470.1-41.877
				l-20.15,145.196l-104.857,48.414l-4.053,108.903l121.005,20.151l56.488,100.842l-36.287,88.733l40.34,177.468l96.84,60.516
				l68.545-36.286l20.139,72.585l-56.488,121.019l-60.465,28.23l-24.178,92.762l-173.428,92.762l-262.199,149.199l-28.219-68.533
				l44.329-104.882L2123.27,849.464z"/>
		</g>
		<g>
			<path id="_x33_1227896" fill="#BFBFBF" stroke="#FFFFFF" stroke-width="0.5" stroke-miterlimit="3.8637" d="M2788.775,752.7
				l-80.691-8.08l-20.151-72.586l-68.558,36.261l-96.827-60.489l-40.339-177.468l36.324-88.734l-56.488-100.842l-121.043-20.151
				l4.041-108.91l104.869-48.407l20.139-145.215l100.829-32.259v-92.768l61.938-32.429l97.481-46.62h101.735l46.62-59.338
				l35.116,114.127l-60.49,84.694l100.816,60.496l-161.332,16.136l-56.475,48.407l20.176,76.626l92.736,173.465l104.845,8.03
				l-16.111,229.903l-84.693,44.366l4.04,100.817L2788.775,752.7z"/>
			<path id="_x33_1227984" fill="#BFBFBF" stroke="#FFFFFF" stroke-width="0.5" stroke-miterlimit="3.8637" d="M2139.38,1611.795
				l16.136-133.088l28.219-161.332l-52.409-88.784l435.614-241.96l24.179-92.762l60.502-28.244l56.463-121.005l80.691,8.08
				l68.558-100.842l-4.04-100.792l84.719-44.392l24.191,84.731l112.924,141.168L2962.203,869.69l36.299,133.088l-173.466,4.041
				l36.286,76.601l-217.781,237.982l-24.191,116.99l-100.816-28.23l-121.006,40.326l-104.895-44.354l-68.545,92.787l-52.41,48.382
				L2139.38,1611.795z"/>
			<path id="_x33_1228072" fill="#BFBFBF" stroke="#FFFFFF" stroke-width="0.5" stroke-miterlimit="3.8637" d="M3462.333,212.216
				l229.878-92.762l-52.435,92.762l60.502,84.656l-68.558,32.297l8.056,80.704l92.762-4.054l-129.035,334.785l64.518,76.613
				l-104.845,96.853l16.11,161.345l32.184,31.894l-44.291,109.274l-92.762-44.379l-32.246,92.762l-68.571-64.519l-145.247,84.682
				l84.707,88.733l-137.154,149.249l-16.11,129.086l-108.91-100.842l-40.326-76.613l-48.407,76.613l-64.568-40.326l72.636-92.762
				l8.081-96.814l-129.124,4.027l0.769-47.777l112.207-121.609l-100.842-72.649l-36.274-76.601l173.466-4.04l-36.313-133.075
				L3075.115,732.6l-112.926-141.169l-24.19-84.719l16.11-229.915l-104.857-8.03l-92.748-173.465l-20.176-76.62l56.462-48.407
				l161.357-16.136l121.005,76.645l266.228,8.068l32.259,68.57l68.533-4.053L3462.333,212.216z"/>
			<path id="_x33_1228160" fill="#BFBFBF" stroke="#FFFFFF" stroke-width="0.5" stroke-miterlimit="3.8637" d="M1304.501,1575.496
				l-32.297,40.327l-52.435-52.397l12.083-141.169l117.003-40.326l48.407-96.853l-24.241-149.174l88.784-108.909l161.357-80.653
				l84.693,80.653l72.611,40.339h76.6l28.219-28.243l64.543,48.444l60.49-76.639l76.613-4.027l60.503,48.407l-44.354,104.882
				l28.244,68.533l52.385,88.784l-44.355,294.421l-44.342,72.598l-84.693-8.08l-24.216,104.895l-96.776,12.096l-72.637,52.409
				l-96.789-44.342l-24.216-60.489l-108.872-80.68l-8.08-72.623l-64.543,16.148l-52.423,120.993l-104.856-28.193l24.19-76.601
				L1304.501,1575.496z"/>
			<path id="_x33_1228248" fill="#BFBFBF" stroke="#FFFFFF" stroke-width="0.5" stroke-miterlimit="3.8637" d="M1607.002,2874.208
				l-88.759,20.151l12.082-64.518l104.896-112.988l80.666-4.027l32.297-100.817l-181.509-36.299l8.043-133.088l88.771-48.407
				l4.027-96.802l48.37-137.154l84.719,24.217l-12.083-92.762l-100.816-40.377l32.271-250.003l96.764,44.316l72.648-52.385
				l96.789-12.083l24.217-104.907l84.681,8.08l60.49,48.42l-48.407,145.209l4.027,302.514l56.438,32.246l56.513-36.273
				l48.407,201.671l-76.639,153.276l-72.585,20.151l20.138,233.905l-96.814,36.299l-80.679,104.869l4.028,278.311l8.029,84.668
				l-177.467-116.927l-60.479-145.234l-149.236,48.407l-16.148-76.639l64.581-44.329L1607.002,2874.208z"/>
			<path id="_x33_1228336" fill="#BFBFBF" stroke="#FFFFFF" stroke-width="0.5" stroke-miterlimit="3.8637" d="M2349.107,2390.237
				l-76.613-12.096l-48.406-201.671l-56.488,36.273l-56.438-32.246l-4.053-302.551l48.407-145.172l-60.465-48.42l44.329-72.598
				l32.322-64.543l52.385-48.42l68.57-92.749l104.869,44.342l121.006-40.327l100.816,28.244l24.191-116.99l217.807-237.983
				l100.842,72.637l-112.207,121.584l-0.73,47.778l129.086-4.016l-8.08,96.827l-72.598,92.749l64.529,40.339l48.408-76.65
				l40.326,76.65l-48.407,60.49v96.789l-88.746,80.653l16.161,72.648l-44.393,56.476l104.882,88.733l8.081,108.91l-48.407,64.53
				l20.163,80.653l56.45-36.261l125.058,205.687l137.104,44.342l-8.03,96.814l125.021,197.668l80.666,16.111l-16.148,169.425
				l-233.918-4.027l-112.938,84.668l-56.487,108.91l-40.326-72.61l-4.04-129.099l36.324-72.586l-60.49-44.38l-133.139-48.419
				l-80.679-129.036l-64.518-28.23l44.354-92.762l-92.762,24.216l-52.41-68.583l-121.018,100.842l-68.559-8.08l-76.625-84.682
				L2349.107,2390.237z"/>
			<path id="_x33_1228424" fill="#BFBFBF" stroke="#FFFFFF" stroke-width="0.5" stroke-miterlimit="3.8637" d="M2272.494,3301.755
				l36.249,4.04l16.148-80.679l278.322-64.556l12.096-4.027l133.051,84.668l141.169-16.11l40.352,80.666l68.57-4.027l28.206-64.53
				l40.327-92.736l-40.327-72.611l-4.04-129.085l36.312-72.599l-60.503-44.379l-133.139-48.408l-80.653-129.048l-64.53-28.231
				l44.342-92.736l-92.749,24.191l-52.422-68.583l-121.005,100.842l-68.571-8.08l-76.601-84.682l-4.027-100.816l-76.576-12.096
				l-76.65,153.276l-72.599,20.151l20.139,233.905l-96.814,36.299l-80.704,104.857l4.053,278.322l133.089-36.287l121.005,20.151
				L2272.494,3301.755z"/>
		</g>
		<g>
			<path id="_x33_1226840" fill="#BFBFBF" stroke="#FFFFFF" stroke-width="0.5" stroke-miterlimit="3.8637" d="M1231.853,1422.22
				l-44.342-12.083l-36.312-205.737l-72.599-64.518l-100.816-8.08l84.706-72.586l-52.46-92.749l157.33-92.762l96.839,32.259
				l84.656-84.693l48.407,48.407l141.169,8.068l84.681,68.583l-161.332,80.653l-88.759,108.91l24.241,149.186l-48.407,96.84
				L1231.853,1422.22z"/>
			<path id="_x33_1226928" fill="#BFBFBF" stroke="#FFFFFF" stroke-width="0.5" stroke-miterlimit="3.8637" d="M-228.178,1430.3
				l-84.719,44.329l-4.028-153.276l24.191-125.008l72.586,8.03l76.638-141.169l-48.407-76.575l40.353-88.785l-20.176-104.844
				l181.508,4.027l80.666,100.792l76.65-4.016l40.327,56.438l-40.327,177.48l-8.08,157.279l48.407,64.581l-92.749,52.396
				l-28.219,72.599l-48.433,96.839l-84.655-44.392l-100.83-4.016l-8.08-92.761L-228.178,1430.3L-228.178,1430.3z"/>
			<path id="_x33_1227016" fill="#BFBFBF" stroke="#FFFFFF" stroke-width="0.5" stroke-miterlimit="3.8637" d="M207.398,1349.634
				l-48.407-64.581l8.081-157.254l40.326-177.493l-40.326-56.437l-76.651,4.027L9.754,797.092l64.556-76.638h76.613l92.749,84.719
				l129.085-40.34l177.493,16.111l48.407,52.435l-88.733,68.521l-12.096,96.813l-92.8,137.191l-8.042,104.857L247.75,1268.98
				L207.398,1349.634z"/>
			<path id="_x33_1227104" fill="#BFBFBF" stroke="#FFFFFF" stroke-width="0.5" stroke-miterlimit="3.8637" d="M9.767,797.055
				l-181.508-4.028l32.271-141.168l-76.613-121.006L58.174,397.739l99.734-143.636h76.286l-12.7-101.742l76.273-25.431
				l118.664,38.136l12.713,127.147l67.803,101.698l127.135-80.515l97.469,33.92l114.436-4.254l8.458,105.989l20.39,130.169
				l-52.409,84.73l-68.559-20.176l-64.518,181.521l-80.691,8.056l-48.407-52.422L372.77,764.82l-129.098,40.34l-92.736-84.731
				H74.323L9.767,797.055z"/>
			<path id="_x33_1227192" fill="#BFBFBF" stroke="#FFFFFF" stroke-width="0.5" stroke-miterlimit="3.8637" d="M-877.579,2640.303
				l48.414,48.42v80.679l-306.528,56.438l-100.823-60.478l-108.91-205.687l137.122-237.983l-96.783-193.604l76.607-60.465
				l72.629-4.027l157.279,52.41l181.508-169.438l44.374,48.42l44.348-100.816l112.931-36.312l44.386-169.413l84.688-68.521
				l-104.857-104.907l16.11-72.623l128.186-10.384l29.131,34.587l104.857,8.094l84.719-44.342h72.585l8.081,92.749l100.829,4.015
				l84.682,44.393l52.409,88.746l-8.08,108.859l-84.656-4.04l-56.487,72.598l-68.546,161.383l-145.246-44.354l-48.407,44.354
				l-64.518-48.42l-129.08,104.883l-20.169,84.693l60.496,64.556l-108.903-8.081l-120.999,157.279l-4.021,121.019l-76.645,8.067
				l-104.863,76.639L-877.579,2640.303z"/>
			<path id="_x33_1227280" fill="#BFBFBF" stroke="#FFFFFF" stroke-width="0.5" stroke-miterlimit="3.8637" d="M-623.479,2862.138
				l-64.524,4.04l-141.163-96.776v-80.691l-48.414-48.407l-12.089-80.666l104.863-76.65l76.645-8.068l4.021-121.005l120.999-157.279
				l108.903,8.08l133.095,161.345l-4.027,88.709l72.598,133.126l-12.083,88.709l-108.91,20.15v80.679l36.312,112.988l-96.808,80.666
				L-623.479,2862.138z"/>
			<path id="_x33_1227368" fill="#BFBFBF" stroke="#FFFFFF" stroke-width="0.5" stroke-miterlimit="3.8637" d="M1167.335,873.705
				l-157.305,92.762l52.46,92.749l-84.731,72.586l-72.573,24.241l-48.457,116.928l-76.575-32.26l60.465-121.043l-60.465-68.532
				l12.082-108.91L679.311,825.298l64.519-181.521l68.57,20.176l52.396-84.719l-20.39-130.181l50.861-4.241l139.86-29.691
				l38.161,97.469l97.47,29.691L1175,694.828L1167.335,873.705z"/>
			<path id="_x33_1227456" fill="#BFBFBF" stroke="#FFFFFF" stroke-width="0.5" stroke-miterlimit="3.8637" d="M1562.597,655.886
				l4.028,116.978l-28.193,104.857l-141.169-8.068l-48.407-48.407l-84.693,84.682l-96.827-32.246l7.69-178.853h84.744
				l21.195-199.167h84.769l114.423,110.206l139.86-8.471L1562.597,655.886z"/>
			<path id="_x33_1227544" fill="#BFBFBF" stroke="#FFFFFF" stroke-width="0.5" stroke-miterlimit="3.8637" d="M-300.814,2091.752
				l-108.873,96.813l-64.562,16.148l-60.496-64.556l20.169-84.693l129.08-104.882l64.518,48.407l48.407-44.342l145.247,44.342
				l68.521-161.37l56.487-72.599l84.681,4.041l8.081-108.872l-52.436-88.734l48.445-96.853l28.206-72.598l92.749-52.385
				l40.339-80.703l149.237-28.207l8.042-104.856l92.8-137.191l12.096-96.814l88.733-68.521l80.666-8.08l112.925,116.939
				l-12.095,108.91l60.49,68.546l-60.49,121.03l76.601,32.259l48.432-116.94l72.573-24.229l100.842,8.068l72.599,64.518
				l36.299,205.736l44.354,12.096l-12.083,141.169l52.41,52.396l32.296-40.326l76.602,44.38l-24.191,76.601l104.869,28.206
				l52.41-120.993l64.543-16.148l8.08,72.623l108.872,80.691l24.216,60.478l-32.246,250.003l100.817,40.353l12.095,92.786
				l-84.719-24.216l-48.369,137.153l-4.04,96.802l-88.759,48.407l-8.03,133.139l-125.033-12.096l-112.95,100.83l-16.148,64.556
				l-72.585,32.271l-44.354-125.059l-88.747,40.339l-92.761-52.409l36.286-189.576l-165.36,8.081l-56.487-52.41l-8.055,24.179
				l-241.974-193.604l-96.826,72.598l-161.345-229.864l-149.237-4.04l-64.53,108.859l-133.075,56.525l-137.179-72.661
				L-300.814,2091.752z"/>
			<path id="_x33_1227632" fill="#BFBFBF" stroke="#FFFFFF" stroke-width="0.5" stroke-miterlimit="3.8637" d="M1143.169,3047.636
				l-68.583-165.347l-60.503-44.367v-213.767l92.762,52.409l88.746-40.339l44.342,125.058l72.599-32.259l16.148-64.568
				l112.938-100.816l125.046,12.083l181.508,36.299l-32.297,100.817l-80.666,4.027l-104.857,112.987l-12.096,64.531l-72.585,4.027
				l-52.473,80.691l60.503,189.575l-92.762,84.694l-80.666,149.211l-64.53,24.229l-80.653-100.816L1143.169,3047.636z"/>
		</g>
		<g>
			<path id="_x33_1223056" fill="#C12737" stroke="#FFFFFF" stroke-width="0.5" d="M-4031.458-1713.536l149.054-226.718
				l217.38,12.448l37.262,77.602l96.273-65.217l192.528,99.37l105.587-21.755l46.576,86.959l-189.431,71.428l-3.096,77.639
				l316.749,9.32l59.005,155.266l3.09,68.319l-74.518,37.287l18.622,102.479l40.377,96.26l-55.896,152.176l18.622,136.669
				l-52.787,83.838l-108.703-118.003l-158.374-12.423l-133.522-136.644l-74.536-9.345l-155.266,145.958l-211.174-21.749
				l-15.519-381.978L-4031.458-1713.536z"/>
			<path id="_x33_1223144" fill="#C12737" stroke="#FFFFFF" stroke-width="0.5" d="M-3233.363-1837.757l220.469,139.778
				l142.855-77.639l170.797-34.16l114.901,31.063l62.095-43.486l99.369,192.54l102.479,77.601l105.581,27.942l55.896-65.216
				l-12.423-118.003l68.319-24.839l6.218-74.53l90.049-46.582l55.896,31.051l68.325-46.576l6.199,65.235l-37.262,83.844
				l27.941,83.85l-102.478,49.685l43.473,136.645l40.383,31.044v52.793h-62.114l21.743,136.669h-86.947l-93.17,46.557l-83.838-6.192
				l-208.072,118.01l-180.111-3.109l-43.473,245.333l-257.756,164.586l-208.059-96.261l52.787-83.844l-18.622-136.669
				l55.896-152.169l-40.377-96.267l-18.622-102.479l74.518-37.28l-3.09-68.325l-59.005-155.266l-316.749-9.32l3.096-77.639
				l189.431-71.428L-3233.363-1837.757z"/>
			<path id="_x33_1223232" fill="#C12737" stroke="#FFFFFF" stroke-width="0.5" d="M-1780.053-1825.328l130.433-40.371
				l58.992,71.428l55.896-55.896l77.639-158.375l161.464-86.959l83.856,9.345l127.324-55.896l118.003,220.457l124.221,149.054
				l12.423,276.353h65.216l52.793-24.846v198.751l31.044,83.838l-86.94,40.396v121.1l55.896,34.153l-68.325,186.329l-117.991-65.242
				l-192.54,121.112h-80.735l-59.005-77.626l-121.112-49.672l-71.415-3.109l-15.525,65.216l-111.798,21.755l-18.634-214.27
				l15.532-136.669l-71.428-102.472l-248.43-27.948l3.109-86.928l-34.153-6.218l-40.383-31.044l-43.467-136.644l102.472-49.685
				l-27.942-83.851l37.262-83.844l-6.199-65.21l21.743-99.4L-1780.053-1825.328z"/>
			<path id="_x33_1223320" fill="#C12737" stroke="#FFFFFF" stroke-width="0.5" d="M-705.567-2505.401l145.952,74.518
				l-12.429,145.964l-40.377,31.02l195.649,183.251l18.634,96.261l-111.805,34.134l111.805,183.245l-111.805,71.428l-93.158,6.187
				l-3.109,133.535l-105.581,24.839l-52.793,24.846h-65.216l-12.423-276.353l-124.221-149.054l-118.003-220.457L-705.567-2505.401z"
				/>
			<path id="_x33_1223408" fill="#C12737" stroke="#FFFFFF" stroke-width="0.5" d="M-507.445-2538.692l63.561,21.214l76.286-199.192
				l144.089-4.241l93.228-93.234l33.92,203.427l110.182,76.273l169.525-118.658l182.238,97.476l-33.907,309.385l80.527,80.528
				l-42.391,67.803l29.69,161.042l-46.619,97.475l21.208,279.707L187.6-1479.159l-97.481-4.241l-46.607,84.769l-80.516,139.854
				l-88.998,21.208l-93.228,101.717l-182.238-33.907l-182.238,161.042l-128.06-33.977l-55.896-34.153v-121.1l86.94-40.39
				l-31.044-83.844v-198.752l105.581-24.833l3.109-133.542l93.152-6.186l111.811-71.428l-111.811-183.22l111.811-34.153
				l-18.641-96.268l-195.643-183.232l40.377-31.038l12.422-145.964L-507.445-2538.692z"/>
			<path id="_x33_1223496" fill="#C12737" stroke="#FFFFFF" stroke-width="0.5" d="M-2545.908-326.493l-127.135-173.729
				l-101.71-21.208l-123.239-142.484l257.756-164.586l43.467-245.333l180.117,3.109l208.072-118.01l83.837,6.186l93.171-46.551
				h86.946l-21.743-136.669h62.114v-52.793l34.153,6.205l-3.108,86.94l248.423,27.942l71.427,102.478l-15.531,136.669l18.64,214.271
				l111.792-21.755l62.214,111.251l76.286,72.076l-80.515,63.561l-52.907,209.349l-78.463,112.749l12.706,97.476h-72.044
				L-1588.129-80.7l-165.284-4.242l-161.036-165.24l-118.665,33.895l-173.755,101.729v42.366l-127.128,4.248l-93.234-233.1
				L-2545.908-326.493z"/>
			<path id="_x33_1223584" fill="#C12737" stroke="#FFFFFF" stroke-width="0.5" d="M-871.921-627.376l76.286,173.749l4.229,152.56
				l-42.378,93.208l-203.415,25.456l-59.338,118.664h-84.757l-93.233,131.345l-97.475,29.698l-131.371,114.423l-12.712-122.894
				l-178.003-63.605l-59.332-110.193l165.278,4.242l16.948-118.652h72.044l-12.706-97.475l78.463-112.749l52.907-209.35
				l80.515-63.561l-76.286-72.076l-62.208-111.251l15.525-65.216l71.415,3.109l121.112,49.666l59.005,77.633h80.735l192.54-121.119
				l117.991,65.235L-766-741.881L-871.921-627.376z"/>
		</g>
	</g>
</g>
<g id="Rivers">
	<path fill="none" stroke="#0978AB" stroke-width="35" d="M-4680.624-273.389c86.913-147.501,340.799,9.242,352-183.972
		c3.204-55.262-38.798-129.362-3.902-176.213c70.58-94.761,110.865,39.177,172.342,58.9
		c75.734,24.297,200.593-97.096,203.559-175.591c0-0.009,0.001-0.019,0.001-0.028c1.268-33.812-20.507-62.83-25.922-95.756
		c-6.035-36.7,0.613-74.604-1.188-111.561c-2.457-50.318,1.623-101.462-0.683-151.972c-2.207-48.339-7.428-100.095-12.101-148.826
		c-7.729-80.613-26.714-159.406-41.754-238.819c-8.121-42.884-10.127-87.255-18.5-129.915
		c-6.497-33.096-26.892-71.452-12.499-104.877c16.486-38.284,53.52-78.089,76.646-113.371c21.492-32.792,95.029-93.152,96-132
		c0.818-32.737-46.371-65.974-67.027-88.195c-20.89-22.463-64.555-42.562-74.633-72.971c-9.25-27.914,14.327-77.86,45.271-87.037
		c30.557-9.063,120.995,34.747,109.615-27.501c-0.004-0.021-0.008-0.041-0.012-0.062c-9.742-52.059-72.398-78.073-62.298-141.191
		c5.683-35.514,32.285-47.899,57.084-67.271c9.928-7.755,23.336-26.975,36-33.937c37.347-20.531,65.716,15.902,94.89-15.828
		c25.507-27.742,23.429-76.829,45.994-105.878c23.517-30.273,66.031-30.93,94.917-51.814c33.927-24.529,32.692-60.739,41.25-97.435
		c12.529-53.725,33.071-106.944,51.946-158.852c18.659-51.317,34.739-103.732,55.994-155.038
		c9.579-23.123,19.338-47.231,28.076-71.128c20.268-55.425-45.888-64.397-89.273-82.075c-22.791-9.287-51.104-7.798-75.793-15.787"
		/>
	<path fill="none" stroke="#0978AB" stroke-width="35" d="M-2457.624-3273.389c22.679,30.845,78.557,118.312,64.499,160
		c-18.498,54.855-98.649,67.596-113.326,135.587c-8.149,37.754,3.637,68.622-11.67,104.413c-15.377,35.956-56.149,50.146-68.644,80
		c-8.806,21.04,5.611,58.953,1.084,81.993c-8.29,42.198-32.478,57.248-47.888,94.007
		c-57.673,137.573,68.411,195.683,103.731,311.587c33.206,108.969,113.842,279.274,265.182,184.796
		c24.784,40.446,8.8,62.129-0.568,95.432c-16.34,58.087-22.488,37.027-14.42,96.213c11.555,84.769,46.867,101.236,58.044,180.205
		c10.063,71.093,64.394,156.174,34.335,234.15c-15.619,40.518-108.766,122.501-121.919,169.802
		c-12.801,46.033-0.732,69.356,13.299,120.357c-29.653,8.992-112.813,28.292-144.401,20.453
		c-21.151-5.249-30.86-47.704-50.375-57.836c-0.021-0.011-0.041-0.021-0.062-0.032c-28.99-15.014-61.745-20.224-88.416-37.384
		c-23.774-15.296-18.919-51.827-57.935-54.254c-79.377-4.94-58.362,83.213-22.303,120.697c0.014,0.014,0.027,0.028,0.041,0.042
		c117.019,121.605,251.973,140.589,393.27,207.801c97.515,46.385,122.91,136.244,154.193,231.972
		c28.637,87.629,83.871,160.501,108.676,249.759c30.695,110.456,23.885,234.042,83.12,335.659
		c24.322,41.724,70.94,73.271,104.781,108.033c30.651,31.486,59.237,66.252,77.059,106.775
		c17.882,40.661,58.842,63.937,98.624,78.576c29.349,10.801,80.346,13.029,95.482,45.203c19.35,41.146-13.08,93.761,17.529,130.798
		c19.412,23.463,58.931,12.157,79.738,31.321c21.992,20.256,17.608,57.772,24.317,85.594
		c13.832,57.354,39.457,109.936,55.442,165.914c9.45,33.093,7.877,69.442,18.916,101.911c9.211,27.095,33.967,28.574,53.098,48.436
		c11.081,11.504,19.775,29.729,36.646,33.828c17.951,4.36,38.683-8.36,53.82-15.913c17.295-8.63,32.1-13.037,40.033,6.092
		c19.441,46.877,15.074,84.261,68.516,108.498c28.835,13.077,60.86,17.387,89.704,30.043c15.673,6.877,54.005,16.472,61.683,31.48
		c7.478,14.617-2.778,46.401-5.843,61.445c-3.749,18.394-5.529,38.845-9.075,56.548c-1.008,5.033-0.856,19.075-2.925,24.046
		c-6.849,16.46-26.224,8.88-36.435,19.406c-20.907,21.551,5.967,102.518,8.296,130.547c2.198,26.455,4.708,54.904,8.195,80.807
		c3.927,29.16,28.527,56.306,43.459,81.193c13.547,22.581,26.942,66.909,52.34,78.826c27.149,12.739,61.746-7.801,90.21,1.826
		c26.777,9.057,46.209,35.128,71.805,47.35c47.914,22.878,102.233,12.528,151.972,27.298c0.013,0.004,0.025,0.008,0.038,0.012
		c12.095,3.596,9.441,9.238,17.282,15.4c8.178,6.427,17.884,9.153,26.243,15.186c10.307,7.439,15.672,16.389,22.952,26.064
		c22.87,30.384,57.647,51.017,80.085,82.047c12.207,16.882,17.892,37.908,25.42,57.189c14.04,35.957,33.582,85.273,78.867,87.549
		c34.626,1.739,91.377-53.237,133.065-62.803c31.736-7.282,68.977-13.681,100.836-5.461c22.022,5.682,40.98,19.072,62.175,25.648
		c38.755,12.026,79.576,9.728,119.401,14.78c42.118,5.344,77.421,25.452,116.218,41.102
		c93.201,37.593,185.358,31.331,278.077,75.006c143.565-90.271,366.316,45.931,440.398,168.583
		c50.79,84.091,10.239,149.808,14.063,230.613c1.699,35.892,19.356,64.699,34.478,96.095c15.062,31.272,33.641,56.065,30.343,92.831
		c-2.949,32.887-14.466,63.459-15.864,96.605c-1.18,27.937-12.427,55.091-12.013,84.047c0.301,20.922,3.007,41.118,4,61.81
		c1.406,29.295-6.63,61.758-2.328,90.108c2.846,18.754,5.951,54.893,18.592,69.085c11.359,12.754,33.266,16.125,45.782,29.204
		c16.256,16.985,14.078,32.397,17.908,53.665c3.654,20.296,15.981,36.685,24.53,55.367c8.229,17.985,10.924,34.325,15.522,53.071
		c10.749,43.816,5.88,91.541,8,137.348c1.165,25.166-1.599,45.963-2.007,70.076c-2.416,143.116,66.244,170.323,191.605,210.492
		c81.187,26.016,139.324,75.782,208.981,121.567c123.914,81.448,278.353,80.737,376.413,208.413"/>
	<path fill="none" stroke="#0978AB" stroke-width="15" d="M-3824.624,3766.611c70.9-35.568,43.787-113.174,48-178.165
		c4.886-75.362,15.568-104.124,78.96-156.056c101.541-83.182,143.434-102.357,177.497-234.421
		c22.894-88.762,69.189-155.208,55.331-247.743c-16.504-110.195-36.413-142.032,44.425-233.809
		c56.272-63.886,109.175-116.182,139.788-191.657c40.23-99.187,59.282-179.942,26.15-285.921
		c-49.146-157.203,120.112-280.761,218.312-391.838c56.946-64.413,110.738-118.333,198.472-137.644
		c-174.047-102.776,16.541-220.713,92.969-292.939c-90.516-31.756,1.775-83.769,24.28-122.611
		c27.046-46.681,44.31-123.993,46.812-181.314c0.001-0.033,0.003-0.067,0.004-0.102c3.998-94.216,20.194-83.185,72.599-149.853
		c38.202-48.6,24.823-186.839,116.597-148.498c56.593,23.643,33.85,113.481,67.017,154.152
		c15.321-46.924,21.588-68.128,14.022-115.61c-4.802-30.132-12.385-70.974,0.092-100.238c18.86-44.168,84.421-32.028,119.782-51.526
		c70.543-38.897-33.833-61.655-59.461-79.598c-0.008-0.006-0.017-0.012-0.025-0.018c-31.932-22.386-5.28-31.511,20.077-35.128
		c36.109-5.15,65.278-11.989,100.754-19.371c23.833-4.959,48.448,7.063,71.353,1.817c15.73-3.603,35.383-17.097,46.205-28.887
		c21.908-23.866,25.869-58.689,44.616-84.805c28.18-39.254,85.16-60.078,91.167-111.423c77.689-5.757,156.243,29.605,230.778,12.187
		c-6.213-76.685-106.493-80.486-63.959-168.971c23.884-49.686,99.644-90.054,136.385-124.012"/>
	<path fill="none" stroke="#0978AB" stroke-width="15" d="M-1299.987,701.681c0.15-37.805,29.212-67.794,47.998-97.487
		c10.033-15.856,24.466-28.984,37.001-42.829c11.026-12.18,18.294-26.423,28.996-38.957c12.728-14.907,24.926-30.015,37.498-45.038
		c26.325-31.458,51.794-62.141,78.031-94.495c11.937-14.72,21.849-9.154,38.957-5.215c21.43,4.935,28.483,5.546,41.066-12.242
		c14.169-20.03,28.978-39.923,46.27-57.395c8.833-8.925,16.776-18.072,25.538-26.995c15.659-15.946,41.356-18.26,59.589-30.061
		c7.87-5.093,15.398-4.905,23.284-8.108c10.062-4.086,17.481-10.554,27.796-14.487c10.537-4.017,21.092-4.487,31.48-9.667
		c11.896-5.932,36.157-10.75,43.503-20.881c9.42-12.992,8.75-32.963,18.37-47.448c7.45-11.216,8.343-16.022,22.47-17.201
		c21.028-1.755,24.601,3.229,25.824-21.619c0.736-14.957,2.049-30.149,7.061-44.381c7.22-20.499,20.81-35.201,40.816-43.659
		c43.806-18.52,94.206-13.358,138.573-32.08c120.15-50.701,87.304-135.869,86.271-232.412
		c-0.473-44.234,24.122-84.842,24.158-128.598c0.047-57.532-32.18-69.985-44.57-115.375c-17.635-64.607-7.211-160.526-3.616-228.412
		c4.131-78.004,0.011-188.539,23.843-261.992c38-117.123,177.115-115.577,80.613-222.078c-55.052-60.757-76.7-68.652-40.456-154.592
		c20.466-48.527,49.337-98.934,71.814-145.194c29.598-60.911,60.059-123.506,111.973-168.813
		c65.507-57.17,123.384-47.358,206.689-47.358c68.956,0,138.438,9.279,207.096-0.915c31.517-4.68,63.969-13.38,90.13-31.909
		c9.121-6.46,20.71-8.225,28.312-16.409c7.741-8.333,5.853-15.367,20.314-18.526c0.563-9.399,1.971-21.657,0.38-31.054
		c-1.909-11.245-8.015-16.39-4.787-27.542c2.823-9.759,12.156-22.095,17.37-31.065c12.338-21.225,27.593-41.166,32.297-65.84
		c5.401-28.335-16.385-44.268-19.604-70.234c-4.292-34.626-18.952-73.535,1.234-103.795c8.896-13.334,38.82-42.588,36.093-59.658
		c-2.183-13.655-42.778-40.63-54.085-51.249c-11.082-10.409-28.699-20.621-33.119-36.169c-4.355-15.325,2.791-36.017,3.859-52.092
		c1.619-24.375,4.214-49.925,8.962-73.896c4.983-25.164,8.672-52.735,9.792-78.412c1.187-27.179,4.834-53.185,4.834-80.479
		c0.003-23.804,0.908-46.42-6.322-69.414c-11.452-36.426-25.919-70.547-29.232-109.112c-4.201-48.893-0.497-91.202,24.227-132.1
		c14.833-24.536,38.236-36.989,64.42-46.287c20.766-7.375,55.123-14.031,67.236-34.664c8.309-14.152,10.767-35.97,16.941-51.594
		c6.846-17.319,14.574-34.271,22.252-51.231c15.827-34.964,31.969-70.082,41.134-107.507c5.292-21.606,3.68-44.699,6.673-66.717
		c3.792-27.891,5.736-56.547,5.661-84.763c-0.161-60.579,7.022-117.029,13.499-176.587"/>
	<path fill="none" stroke="#0978AB" stroke-width="15" d="M814.376-1905.389c81.635-1.974,224.105,49.883,294.221,12.33
		c77.653-41.591,139.863-221.535,176-298.109c16.541-35.052,22.568-86.767,49.622-114.406
		c34.076-34.813,78.851-20.38,104.728-56.328c22.34-31.032-8.767-87.441,24.454-116.298c35.153-30.535,107.723,9.496,149.168-38.805
		c71.902-83.796-76.578-134.213,40.028-224.314c69.796-53.931,179.482,8.809,241.751-35.728
		c47.749-34.152,29.318-102.357,88.085-129.113c29.697-13.521,119.773-2.075,153.238,2.365c61.653,8.18,71.9,47.812,100.669-29.312
		c21.803-58.448-22.978-79.779-20.712-130.488c1.114-24.917,40.203-36.544,42.082-65.782c2.932-45.62-40.123-28.137-27.877-78.646
		c4.155-17.135,46.487-37.116,56.956-53.435c21.221-33.076,30.31-69.807,39.587-107.932"/>
	<path fill="none" stroke="#0978AB" stroke-width="15" d="M2686.376-153.389c74.232,82.414,153.584,24.881,240.357,31.63
		c34.965,2.719,61.162,32.695,95.828,33.125c37.59,0.467,69.543-36.278,118.063-33.168
		c175.035,11.217,364.951,137.834,544.414,104.357c67.939-12.673,71.414-52.798,113.152-95.66
		c47.131-48.397,52.358-31.507,113.965-48.284c90.827-24.734,141.953-101.046,156.441-203.56
		c5.351-37.862,9.585-87.103-17.651-116.598c-45.148-48.893-88.283-5.059-140.569-15.485c-52.846-10.539-74.867-52.26-132.13-64.728
		c-49.274-10.729-96.878,17.789-139.773-19.646c24.356-59.85,105.014-9.643,152.474-27.642
		c57.441-21.784,65.537-84.714,71.402-144.712c11.18-114.393,16.072-176.408,64.027-280.855c3.941-8.583,30.395,2.161,32.471-31.016
		c1.451-23.176-37.695-47.479-48.371-68.384c-21.863-42.811-24.142-65.745-24.1-123.375c0.021-30.511-10.188-83.771-0.129-112
		c28.141-78.979,69.539-42.629,35.633-120.2c-23.248-53.186-75.337-69.354-83.504-127.401
		c-7.228-51.37,23.257-99.188,38.192-146.563c31.249-99.127,43.844-201.756,63.614-301.65
		c7.205-36.406,30.682-82.759,26.166-120.398c-6.268-52.217-46.371-88.004-67.902-136.2c-15.766-35.29-12.196-82.087-27.3-117.366
		c-6.382-14.906-44.927-47.417-45.738-59.844c-2.622-40.173,31.128-44.56,36.94-74.763c0.168-0.877,24.948-24.001,25.967-24.995
		c-20.174-20.16-44.935-39.181-70.34-54.123c34.758-58.799,90.336-16.518,131.006-43.356
		c38.939-25.695,38.477-89.109,81.395-113.141"/>
	<path fill="none" stroke="#0978AB" stroke-width="15" d="M-1961.624,3558.611c6.079-61.816,92.829-93.087,136-123.047
		c58.737-40.764,96.434-60.262,176.984-61.366c92.209-1.265,202.519-5.141,247.229,72.385
		c38.938,67.517,49.894,186.122,180.77,125.239c46.827-21.783,68.291-61.979,123.217-80.771
		c32.161-11.003,139.635-9.942,162.335-27.67c41.689-32.558,14.156-86.079,36.922-120.928
		c42.572-65.165,86.585-10.992,144.956-31.528c60.631-21.332,48.24-85.311,79.216-134.094
		c35.294-55.583,75.421-59.423,137.978-70.661c63.862-11.474,211-25.729,207.438-119.467c-0.365-9.62-3.709-19.993-2.117-29.627
		c2.008-12.151,9.899-17.818,8.739-31.546c-0.747-8.842-6.775-15.688-8.487-24.262c-5.131-25.705-1.074-56.451-2.135-82.755
		c-0.959-23.793-10.951-67.327-1.142-89.498c10.632-24.03,44.282-21.681,62.078-36.359c28.838-23.786,17.272-104.884,4.515-134.05
		c-14.305-32.703-38.37-61.586-51.194-94.492c-6.564-16.844-8.853-38.963-5.192-55.458c6.216-28.021,9.475-39.721-6.196-64.776
		c-13.358-21.357-31.922-38.847-48.868-57.27c-23.458-25.502-40.47-57.394-67.675-79.361c-28.014-22.623-60.862-36.644-82.72-66.639
		c10.851-9.497,8.449-22.493,8.349-35.954c-0.133-17.862,4.366-21.05,11.096-36.046c5.408-12.052,6.769-25.869,12.79-38
		c6.594-13.286,18.62-22.451,24.48-36.141c4.835-11.296,6.165-24.487,11.121-36.076c9.987-23.354,24.677-44.255,39.103-65.011
		c30.249-43.521,60.312-87.596,60.411-142.772"/>
	<path fill="none" stroke="#0978AB" stroke-width="15" d="M1176.389,3412.044c12.708-13.737,45.567-11.822,60.283-20.417
		c12.441-7.268,28.095-17.29,37.615-26.085c9.788-9.043,15.959-27.132,21.762-39.036c6.745-13.836,15.579-28.748,18.809-43.903
		c3.481-16.338,7.633-31.116,20.523-46.797c10.446-12.708,24.874-21.325,37.575-31.487c25.471-20.379,50.809-25.938,43.042-61.843
		c-5.835-26.976-14.355-52.585-25.225-77.86c-9.778-22.74-7.515-48.656-20.147-71.134c-13.617-24.229,7.072-42.023,20.613-60.174
		c17.43-23.362,36.159-56.417,67.348-58.217c36.178-2.087,71.775,0.097,106.697-11.926c24.82-8.545,42.619-24.281,64.429-0.354
		c19.396,21.279,22.047,64.384,31.151,91.715c7.365,22.107-8.961,18.145-25.873,27.047c-8.584,4.52-16.238,10.789-23.711,16.494
		c-11.386,8.692-14.653,8.549-13.781,20.97c0.173,2.472,6.289,24.163,8.077,25.344c8.669,5.686,49.612-11.009,59.883-14.101
		c24.358-7.331,49.33-13.027,73.396-20.214c7.806-2.331,12.166-8.142,21.939-5.808c8.125,25.949,14.988,53.197,23.441,79.077
		c3.082,9.438,8.374,18.057,13.088,26.785c6.391,11.836,9.143,29.094,17.633,39.438c17.291,21.07,50,33.184,72.028,49.498
		c19.472,14.42,36.153,30.891,57.806,41.843c4.689-13.753,1.105-31.245,5.563-44.853c9.209-28.108,60.623-25.699,84.4-32.834
		c22.271-6.684,49.992-9.621,66.864-27.291c20.757-21.738,9.627-56.189,30.251-77.496c75.035-77.517,185.166,12.811,232.885-126.008
		c28.557-83.074-8.227-165.515,41.253-243.642c62.274-98.33,146.093-151.14,176.37-272.256c10.93-43.724,20.596-84.808,16-130.322
		c-4.107-40.682-38.982-83.259-32.57-119.815c18.248-104.033,172.137-105.115,144.94-244.026
		c-8.552-43.681-34.892-67.616-30.775-115.332c2.034-23.586,26.102-44.416,29.011-66.606c4.313-32.886-15.063-45.073-15.432-74.247
		c-1.396-110.274,8.986-193.552,128.41-204.387c39.681-3.6,94.382-2.483,127.205-29.293c12.298-10.044,21.49-24.959,27.121-39.689
		c10.447-27.329-4.635-50.049,13.09-79.247c14.79-24.363,25.941-45.679,28.445-74.794c5.548-64.541-19.992-128.756-30.549-192.156
		c-6.729-40.409-9.035-82.365-23.493-121.064c-17.862-47.814-42.626-44.032-83.38-65.079c-25.923-13.39-47.691-30.802-71.718-46.847
		c-6.307-4.211-18.569-8.439-23.152-14.371c-7.106-9.196-4.4-22.801-10.993-32.387c-38.258-1.996-71.332-8.273-98.146-38.291
		c-18.677-20.908-12.854-10.916-34.024-0.456c-14.502,7.165-31.078,7.232-45.106,1.612c-17.16-6.876-33.85-23.73-50.371-32.221
		c-20.288-10.428-36.371-21.394-52.603-37.887c-28.409-28.869-48.345-62.717-69.722-96.564
		c-18.028-28.547-40.685-55.609-61.314-82.661c-35.309-46.299-80.921-106.275-145.457-105.906
		c-89.362,0.512-228.059,105.463-263.346-45.906c-21.996-94.357,122.916-148.534,164.343-225.965
		c68.021-127.134-73.167-67.7-143.389-74.989c4.324-36.339-17.819-59.968-17.382-93.011c0.356-26.883,23.908-62.435,17.342-89.78
		c-0.005-0.021-0.01-0.041-0.015-0.062c-10.653-44.152-69.48-68.671-78.014-109.337c-8.868-42.266,26.379-92.314,38.441-135.853
		c-43.37-21.366-67.461-64.681-73.397-112.968c-9.669-78.648,16.466-70.521-30.276-131.189
		c-43.902-56.983-87.32-79.032-97.724-149.224c-7.535-50.838,8.402-98.323,22.02-145.153c16.617-57.143,37.496-112.588,55.987-167.8
		c33.309-99.453,31.351-97.526-39.546-161.395c-100.918-90.915-250.008-199.372-382.461-77.239"/>
	<path fill="none" stroke="#0978AB" stroke-width="15" d="M3455.376,2362.611c54.968,20.02,128.602-18.113,184.779-19.972
		c57.922-1.916,74.246,18.874,118.221-27.659c39.726-42.037,20.843-96.466,50.064-136.14c31.222-42.391,87.545-13.79,109.936-68.229
		"/>
	<path fill="none" stroke="#0978AB" stroke-width="15" d="M3191.376,1538.611c147.784-11.407,370.565,66.031,501.221-23.56
		c79.764-54.695,65.711-92.56,127.614,3.56c39.454,61.262,94.509,106.479,170.165,104"/>
	<path fill="none" stroke="#0978AB" stroke-width="15" d="M3406.376,3790.611c7.161-111.579-72.756-142.069-112.883-232.385
		c-35.548-80.008,0.8-205.589,34.221-287.844c35.646-87.727,135.913-149.197,158.435-239.977
		c16.937-68.27,8.745-138.353,19.946-207.006c2.582-15.83,16.266-39.234,8.186-55.134c-19.693-38.743-51.853-4.791-40.256-69.745
		c7.484-41.925,31.084-78.088,17.506-121.953c-14.447-46.674-48.07-84.378-35.095-136.485c19.036-76.442,26.479-48.23-28.225-97.87
		c-34.495-31.301-64.134-21.637-39.744-87.401c21.125-56.961,104.944-59.187,106.437-128.4
		c1.155-53.567-93.826-88.016-91.715-135.985c2.634-59.868,76.855-43.305,93.313-86.491
		c-61.773-30.651-114.121-44.224-138.951-113.708c-7.896-22.092,7.194-50.451-2.42-73.395
		c-15.109-36.063-57.283-65.067-85.01-90.205c-104.937-95.136-132.937-245.965-295.744-228.016"/>
</g>
<g id="LK_Grenzen">
	<g id="Layer_1_copy">
		<polygon fill="none" stroke="#FFFFFF" stroke-width="30" points="598.658,-801.125 535.072,-839.274 547.809,-1034.212 
			488.477,-1089.315 484.222,-1254.593 403.695,-1250.352 327.421,-1097.792 179.104,-1004.559 60.44,-1127.452 47.727,-1216.457 
			115.53,-1199.496 149.425,-1275.782 43.486,-1398.688 -37.029,-1258.835 -126.04,-1237.646 -219.28,-1135.929 -401.505,-1169.836 
			-583.731,-1008.8 -711.791,-1042.771 -780.116,-856.442 -765.975,-741.799 -871.921,-627.376 -795.635,-453.628 
			-791.406,-301.056 -833.784,-207.816 -1037.199,-182.392 -1096.525,-63.728 -1181.294,-63.728 -1274.527,67.643 -1371.99,97.315 
			-1503.373,211.738 -1516.085,88.845 -1694.088,25.258 -1753.414,-84.929 -1914.45,-250.194 -2033.114,-216.299 -2206.875,-114.57 
			-2206.875,-72.21 -2334.01,-67.957 -2427.244,-301.056 -2545.908,-326.493 -2668.814,-220.528 -2643.383,-101.864 
			-2571.339,-67.957 -2469.635,59.166 -2406.055,25.258 -2317.063,114.263 -2321.304,262.581 -2236.548,258.358 -2206.875,360.068 
			-2266.201,427.871 -2278.926,550.789 -2342.487,576.188 -2384.866,457.55 -2465.38,482.975 -2380.624,699.107 -2295.874,690.624 
			-2240.79,758.439 -2269.09,914.02 -2091.603,1127.799 -2010.95,1119.719 -1833.5,1268.968 -1793.162,1361.729 -1740.702,1410.137 
			-1716.51,1680.366 -1651.993,1672.298 -1522.913,1777.155 -1543.083,1966.731 -1474.519,2172.418 -1305.1,2128.063 
			-1228.493,2067.561 -1155.863,2063.545 -998.584,2115.968 -817.076,1946.567 -772.69,1994.975 -728.342,1894.133 
			-615.411,1857.821 -571.025,1688.408 -486.337,1619.876 -591.182,1514.981 -575.071,1442.383 -446.886,1432.012 
			-417.754,1466.574 -312.91,1474.654 -316.925,1321.402 -292.734,1196.37 -220.148,1204.399 -143.51,1063.231 -191.917,986.631 
			-151.565,897.884 -171.753,793.026 -139.482,651.858 -216.083,530.865 58.162,397.739 157.909,254.116 234.195,254.116 
			221.469,152.399 297.768,126.981 285.056,-0.16 242.666,-110.347 166.392,-114.57 191.816,-186.621 111.276,-305.285 
			234.195,-500.235 293.514,-449.374 365.558,-453.628 463.027,-555.332 543.555,-555.332 666.46,-631.618 		"/>
		<polygon fill="none" stroke="#FFFFFF" stroke-width="30" points="2755.76,-1258.835 2802.38,-1470.732 2772.727,-1559.725 
			2827.83,-1644.481 2861.712,-1771.622 2976.148,-1763.146 2903.398,-1877.31 2899.875,-1949.612 2861.712,-1894.516 
			2721.878,-1936.906 2713.395,-2161.517 2615.914,-2360.715 2646.02,-2500.543 2620.167,-2513.268 2578.645,-2423.357 
			2412.493,-2301.37 2238.738,-2288.217 2226.038,-2326.794 2242.992,-2428.511 2077.708,-2394.604 1959.043,-2525.986 
			1942.077,-2712.441 1776.792,-2712.441 1742.91,-2640.396 1425.054,-2776.021 1331.827,-2648.88 1107.198,-3059.97 
			700.369,-3055.728 568.979,-2903.156 543.555,-2970.958 607.141,-3110.812 501.176,-3115.054 357.1,-2975.2 289.285,-2970.958 
			293.514,-3089.623 179.104,-3047.245 229.94,-2898.927 162.137,-2797.21 -11.618,-2852.294 -130.282,-2814.158 -96.362,-2610.743 
			13.82,-2534.457 183.333,-2653.121 365.558,-2555.64 331.651,-2246.267 412.178,-2165.752 369.813,-2097.949 399.466,-1936.906 
			352.859,-1839.432 374.042,-1559.725 187.562,-1479.203 90.093,-1483.438 43.486,-1398.688 149.425,-1275.782 115.53,-1199.496 
			47.727,-1216.457 60.44,-1127.452 179.104,-1004.559 327.421,-1097.792 403.695,-1250.352 484.222,-1254.593 488.477,-1089.315 
			547.809,-1034.212 535.072,-839.274 598.658,-801.125 666.46,-631.618 772.4,-601.946 861.411,-551.09 861.411,-466.334 
			1018.212,-453.628 1060.59,-508.712 1119.23,-374.636 1149.588,-305.285 1319.102,-313.762 1403.859,-360.395 1484.386,-462.099 
			1522.536,-542.607 1636.945,-538.385 1696.291,-415.479 1865.791,-385.806 2128.556,-584.998 2259.92,-712.133 2471.837,-542.607 
			2569.293,-601.946 2586.259,-716.368 2522.686,-796.896 2823.576,-957.938 2959.194,-1135.929 2891.391,-1275.782 		"/>
		<polygon fill="none" stroke="#FFFFFF" stroke-width="30" points="2743.048,-500.235 2620.167,-517.195 2569.293,-601.946 
			2471.837,-542.607 2259.92,-712.133 2128.556,-584.998 1865.791,-385.806 1696.291,-415.479 1636.945,-538.385 1522.536,-542.607 
			1484.386,-462.099 1403.859,-360.395 1319.102,-313.762 1149.588,-305.285 1119.23,-374.636 1060.59,-508.712 1018.212,-453.628 
			861.411,-466.334 861.411,-551.09 772.4,-601.946 666.46,-631.618 543.555,-555.332 463.027,-555.332 365.558,-453.628 
			293.514,-449.374 234.195,-500.235 111.276,-305.285 191.816,-186.621 166.392,-114.57 242.666,-110.347 285.056,-0.16 
			297.768,126.981 416.432,165.118 429.145,292.266 496.935,393.963 624.083,313.461 721.551,347.344 835.987,343.114 
			844.445,449.066 895.306,444.825 1035.154,415.159 1073.315,512.628 1170.784,542.307 1175.026,694.854 1259.77,694.854 
			1280.953,495.687 1365.734,495.687 1480.144,605.867 1619.992,597.396 1562.597,655.886 1566.65,772.863 1538.432,877.721 
			1623.113,946.304 1707.82,1026.957 1780.417,1067.297 1857.043,1067.297 1885.287,1039.04 1949.83,1087.447 2010.32,1010.821 
			2086.946,1006.794 2147.436,1055.201 2103.082,1160.058 2131.326,1228.616 2393.512,1079.392 2566.94,986.631 2591.119,893.869 
			2651.621,865.625 2708.083,744.62 2687.919,672.034 2619.349,708.32 2522.535,647.806 2482.196,470.362 2518.533,381.629 
			2462.044,280.787 2341.027,260.624 2345.092,151.713 2449.95,103.306 2470.1,-41.877 2570.942,-74.143 2570.942,-166.936 
			2632.867,-199.339 2730.335,-245.953 2832.059,-245.953 2878.679,-305.285 		"/>
		<polygon fill="none" stroke="#FFFFFF" stroke-width="30" points="3603.503,740.566 3732.539,405.819 3639.777,409.873 
			3631.721,329.194 3700.279,296.897 3639.777,212.216 3692.211,119.455 3462.333,212.216 3442.171,103.306 3373.613,107.353 
			3341.354,38.789 3075.115,30.721 2954.122,-45.93 2853.28,-106.439 2913.794,-191.126 2878.679,-305.285 2832.059,-245.953 
			2730.335,-245.953 2632.867,-199.339 2570.942,-166.936 2570.942,-74.143 2470.1,-41.877 2449.95,103.306 2345.092,151.713 
			2341.027,260.624 2462.044,280.787 2518.533,381.629 2482.196,470.362 2522.535,647.806 2619.349,708.32 2687.919,672.034 
			2708.083,744.62 2651.621,865.625 2591.119,893.869 2566.94,986.631 2131.326,1228.616 2103.082,1160.058 2147.436,1055.201 
			2086.946,1006.794 2010.32,1010.821 1949.83,1087.447 1885.287,1039.04 1857.043,1067.297 1780.417,1067.297 1707.82,1026.957 
			1623.113,946.304 1461.781,1026.957 1373.022,1135.867 1397.263,1285.078 1348.856,1381.893 1231.853,1422.22 1219.757,1563.389 
			1272.205,1615.823 1304.501,1575.496 1381.102,1619.876 1356.912,1696.489 1461.781,1724.721 1514.191,1603.728 
			1578.758,1587.579 1586.839,1660.202 1695.711,1740.881 1719.927,1801.371 1687.656,2051.412 1788.486,2091.752 
			1800.581,2184.551 1715.875,2160.31 1667.505,2297.45 1663.44,2394.252 1574.693,2442.659 1566.65,2575.748 1748.159,2612.072 
			1715.875,2712.889 1635.208,2716.892 1530.351,2829.879 1518.244,2894.409 1607.002,2874.208 1639.249,2954.899 
			1574.693,2999.254 1590.841,3075.904 1740.078,3027.498 1800.581,3172.719 1978.023,3289.646 1969.994,3204.953 
			2103.082,3168.666 2224.087,3188.83 2272.494,3301.755 2308.768,3305.808 2324.917,3225.142 2603.213,3160.586 2615.347,3156.571 
			2748.435,3241.252 2889.604,3225.142 2929.943,3305.808 2998.501,3301.755 3026.72,3237.212 3067.034,3144.476 3123.521,3035.565 
			3236.458,2950.885 3470.376,2954.899 3486.525,2785.5 3405.872,2769.389 3280.838,2571.732 3288.869,2474.918 3151.778,2430.564 
			3026.72,2224.877 2970.27,2261.151 2950.094,2180.498 2998.501,2115.968 2990.42,2007.058 2885.539,1918.324 2929.943,1861.874 
			2913.794,1789.238 3002.529,1708.585 3002.529,1611.795 3050.923,1551.306 3159.845,1652.135 3175.957,1523.062 3313.11,1373.813 
			3228.378,1285.078 3373.613,1200.397 3442.171,1264.915 3474.443,1172.153 3567.204,1216.533 3611.482,1107.258 
			3579.299,1075.364 3563.189,914.02 3668.021,817.218 		"/>
		<polygon fill="none" stroke="#FFFFFF" stroke-width="30" points="1574.693,2442.659 1663.44,2394.252 1667.505,2297.45 
			1715.875,2160.31 1800.581,2184.551 1788.486,2091.752 1687.656,2051.412 1719.927,1801.371 1695.711,1740.881 1586.839,1660.202 
			1578.758,1587.579 1514.191,1603.728 1461.781,1724.721 1356.912,1696.489 1381.102,1619.876 1304.501,1575.496 
			1272.205,1615.823 1219.757,1563.389 1231.853,1422.22 1348.856,1381.893 1397.263,1285.078 1373.022,1135.867 1461.781,1026.957 
			1623.113,946.304 1538.432,877.721 1566.65,772.863 1562.597,655.886 1619.992,597.396 1480.144,605.867 1365.734,495.687 
			1280.953,495.687 1259.77,694.854 1175.026,694.854 1170.784,542.307 1073.315,512.628 1035.154,415.159 895.306,444.825 
			844.445,449.066 835.987,343.114 721.551,347.344 624.083,313.461 496.935,393.963 429.145,292.266 416.432,165.118 
			297.768,126.981 221.469,152.399 234.195,254.116 157.909,254.116 58.162,397.739 -216.083,530.865 -139.482,651.858 
			-171.753,793.026 -151.565,897.884 -191.917,986.631 -143.51,1063.231 -220.148,1204.399 -292.734,1196.37 -316.925,1321.402 
			-312.91,1474.654 -417.754,1466.574 -446.886,1432.012 -575.071,1442.383 -591.182,1514.981 -486.337,1619.876 -571.025,1688.408 
			-615.411,1857.821 -728.342,1894.133 -772.69,1994.975 -817.076,1946.567 -998.584,2115.968 -1155.863,2063.545 
			-1228.493,2067.561 -1305.1,2128.063 -1208.317,2321.629 -1345.439,2559.637 -1236.536,2765.324 -1135.693,2825.801 
			-829.165,2769.389 -688.002,2866.141 -623.479,2862.138 -454.072,2971.048 -357.251,2890.356 -393.576,2777.419 
			-393.576,2696.753 -284.678,2676.564 -272.571,2587.881 -345.181,2454.729 -341.141,2366.046 -474.249,2204.714 
			-409.687,2188.565 -300.814,2091.752 -163.673,2152.254 -26.507,2224.877 106.582,2168.39 171.099,2059.492 320.348,2063.545 
			481.68,2293.423 578.482,2220.824 820.48,2414.416 828.536,2390.237 885.01,2442.659 1050.358,2434.579 1014.071,2624.155 
			1014.071,2837.922 1074.586,2882.289 1143.169,3047.636 1135.089,3325.983 1215.743,3426.787 1280.273,3402.571 1360.926,3253.36 
			1453.701,3168.666 1393.185,2979.091 1445.67,2898.399 1518.244,2894.409 1530.351,2829.879 1635.208,2716.892 1715.875,2712.889 
			1748.159,2612.072 1566.65,2575.748 		"/>
		<polygon fill="none" stroke="#FFFFFF" stroke-width="30" points="369.813,-2097.949 412.178,-2165.752 331.651,-2246.267 
			365.558,-2555.64 183.333,-2653.121 13.82,-2534.457 -96.362,-2610.743 -130.282,-2814.158 -223.509,-2720.924 
			-367.598,-2716.683 -443.896,-2517.503 -507.445,-2538.692 -559.622,-2430.884 -705.567,-2505.401 -1084.436,-2142.077 
			-1211.759,-2086.181 -1295.616,-2095.501 -1457.08,-2008.555 -1534.719,-1850.167 -1590.615,-1794.284 -1649.62,-1865.699 
			-1780.053,-1825.328 -1860.782,-1968.171 -1882.525,-1868.814 -1950.85,-1822.226 -2006.746,-1853.276 -2096.795,-1806.694 
			-2103.013,-1732.164 -2171.332,-1707.325 -2158.909,-1589.321 -2214.805,-1524.105 -2320.386,-1552.06 -2422.876,-1629.686 
			-2522.246,-1822.226 -2584.341,-1778.74 -2699.242,-1809.803 -2870.039,-1775.65 -3012.894,-1698.005 -3233.363,-1837.757 
			-3338.962,-1816.015 -3531.49,-1915.384 -3627.763,-1850.167 -3665.025,-1927.807 -3882.405,-1940.229 -4031.458,-1713.536 
			-3963.133,-1294.303 -3947.615,-912.338 -3736.453,-890.595 -3581.188,-1036.56 -3506.638,-1027.239 -3373.116,-890.595 
			-3214.742,-878.172 -3106.04,-760.182 -2897.993,-663.902 -2774.753,-521.431 -2673.056,-500.235 -2545.908,-326.493 
			-2427.244,-301.056 -2334.01,-67.957 -2206.875,-72.21 -2206.875,-114.57 -2033.114,-216.299 -1914.45,-250.194 
			-1753.414,-84.929 -1694.088,25.258 -1516.085,88.845 -1503.373,211.738 -1371.99,97.315 -1274.527,67.643 -1181.294,-63.728 
			-1096.525,-63.728 -1037.199,-182.392 -833.784,-207.816 -791.406,-301.056 -795.635,-453.628 -871.921,-627.376 
			-765.975,-741.799 -780.116,-856.442 -711.791,-1042.771 -583.731,-1008.8 -401.505,-1169.836 -219.28,-1135.929 
			-126.04,-1237.646 -37.029,-1258.835 43.486,-1398.688 90.093,-1483.438 187.562,-1479.203 374.042,-1559.725 352.859,-1839.432 
			399.466,-1936.906 		"/>
	</g>
</g>
<g id="Land">
	<path id="_x35_7764776_6_" fill="none" stroke="#292129" stroke-width="30" d="M-4609.399-3204.782"/>
	<path id="_x35_7764776_5_" fill="none" stroke="#292129" stroke-width="30" d="M-4609.399-1173.965l52.146,67.563l186.756,58.219
		l48.961,85.682h85.732l73.466,33.675l45.921-67.394l168.79,83.882l-15.519-381.99l-68.325-419.208l149.054-226.725
		l-206.712-211.199l60.371-102.629l108.646,3.027l-54.323-102.579l9.063-96.601l93.567-78.438l87.488-6.029l60.371-117.739
		l108.646-69.42l30.188-147.852l120.697-301.771l-108.646-33.215"/>
	<path id="_x35_7763368_6_" fill="none" stroke="#292129" stroke-width="30" d="M3855.155,2487.744h-0.025l-322.79,81.258
		l-12.637,84.328l-33.165,132.182l-80.666-16.11l-125.021-197.656l8.03-96.827l-137.104-44.342L3026.72,2224.89l-56.45,36.262
		l-20.151-80.653l48.408-64.53l-8.081-108.91l-104.895-88.733l44.38-56.488l-16.137-72.623l88.734-80.653v-96.802l48.407-60.478
		l108.909,100.816l16.111-129.073l137.153-149.249l-84.731-88.771l145.271-84.644l68.546,64.518l32.247-92.749l92.761,44.367
		l44.317-109.287l-32.184-31.895l-16.111-161.356l104.845-96.814l-64.518-76.651l129.061-334.772l-92.762,4.065l-8.056-80.716
		l68.571-32.297l-60.516-84.668l52.435-92.736l-229.902,92.736l-20.139-108.885l-68.558,4.034l-32.259-68.539l-266.227-8.093
		l-121.006-76.626l-100.829-60.496l60.503-84.688l-35.116-114.133l-26.054-46.513l-109.602-148.437l-122.894-16.948l-50.85-84.75
		l16.941-114.423l-63.611-80.527l300.94-161.018l135.605-178.016l-67.828-139.854l-135.593,16.923l46.62-211.873l-29.691-88.992
		l55.09-84.769l33.883-127.135l114.448,8.483l-72.763-114.139l-3.511-72.302l-38.175,55.097l-139.834-42.391l-8.483-224.636
		l-97.47-199.186l30.107-139.854l-25.865-12.725l-41.522,89.936l-166.178,121.987l-173.729,13.166l-12.7-38.552l16.929-101.742
		l-165.271,33.895l-118.651-131.345l-16.954-186.492h-165.271l-33.883,72.069l-317.855-135.612l-93.215,127.142l-224.642-411.083
		l-406.817,4.235l-131.351,152.566l-25.45-67.81l63.587-139.854l-105.965-4.241l-144.089,139.854l-67.828,4.241l4.229-118.664
		l-114.41,42.378l50.823,148.331l-67.815,101.742l-173.729-55.084l-118.664,38.137l-93.228,93.233l-144.089,4.242l-76.298,199.167
		l-63.561-21.189l-52.177,107.809l-145.945-74.518l-378.869,363.324l-127.324,55.896l-83.857-9.345l-161.464,86.959l-77.639,158.374
		l-55.896,55.896l-58.993-71.428l-130.433,40.371l-80.741-142.843l-21.762,99.369l-68.319,46.576l-55.896-31.045l-90.056,46.576
		l-6.211,74.53l-68.319,24.839l12.423,118.004l-55.896,65.216l-105.581-27.941l-102.478-77.602l-99.369-192.54l-62.095,43.486
		l-114.901-31.057l-170.797,34.153l-142.855,77.614l-220.469-139.753l-105.587,21.756l-192.528-99.369l-96.272,65.216
		l-37.262-77.601l-217.379-12.448l-206.712-211.206l60.37-102.629l108.646,3.027l-54.322-102.579l9.062-96.601l93.567-78.438
		l87.488-6.041l60.37-117.727l108.646-69.414l30.188-147.858l120.697-301.771l-108.646-33.209"/>
	<path id="_x35_7763368_5_" fill="none" stroke="#292129" stroke-width="30" d="M3855.155-3203.574"/>
	<path id="_x35_7763280_9_" fill="none" stroke="#292129" stroke-width="30" d="M-4609.399-1173.965l52.146,67.563l186.756,58.219
		l48.961,85.682h85.732l73.466,33.675l45.921-67.394l168.79,83.882l211.174,21.743l155.265-145.964l74.537,9.346l133.522,136.644
		l158.374,12.423l108.702,118.004l208.06,96.267l123.239,142.497l101.717,21.202l127.128,173.736l-122.887,105.965l25.425,118.665
		l72.051,33.914l101.717,127.116l63.573-33.908l88.999,88.979l-4.242,148.324l84.757-4.204l29.666,101.723l-59.339,67.791
		l-12.706,122.918l-63.58,25.438l-42.378-118.652l-80.515,25.438l84.757,216.146l84.756-8.471l55.084,67.828l-28.307,155.58
		l177.487,213.779l80.672-8.08l177.449,149.236l40.339,92.749l52.454,48.42l24.191,270.242l64.524-8.081l129.073,104.87
		l-20.157,189.576l68.57,205.686l169.419-44.354l96.776,193.604l-137.116,237.995l108.903,205.687l100.83,60.478l306.522-56.438
		l141.168,96.789l64.518-4.027l169.419,108.897l96.82-80.679l-36.324-112.976v-80.666l108.91-20.15l12.083-88.722l-72.599-133.126
		l4.041-88.709l-133.101-161.332l64.555-16.16l108.872-96.827l274.295,133.126l133.088-56.513l64.519-108.872l149.249,4.027
		l161.345,229.877l96.826-72.598l241.986,193.604l8.042-24.179l56.476,52.41l165.359-8.081l-36.273,189.576v213.768l60.49,44.366
		l68.583,165.348l-8.093,278.348l80.678,100.804l64.518-24.216l80.68-149.212l92.748-84.693l-60.502-189.576l52.473-80.691
		l72.585-4.04l88.759-20.15l32.247,80.691l-64.543,44.329l16.136,76.639l149.249-48.408l60.49,145.234l177.442,116.928l-8.03-84.669
		l133.089-36.286l121.005,20.15l48.445,112.938l36.261,4.028l16.161-80.666l290.393-68.559l133.089,84.669l141.168-16.11
		l40.34,80.666l68.57-4.028l68.508-157.267l56.487-108.909l112.95-84.669l233.905,4.027l16.161-169.425l33.14-132.182l12.649-84.342
		l322.777-81.245"/>
	<path id="_x35_7763280_8_" fill="none" stroke="#292129" stroke-width="30" d="M-4609.399,3744.959"/>
	<path id="_x35_7763280_5_" fill="none" stroke="#292129" stroke-width="30" d="M3855.155,3744.959"/>
</g>
</svg>
