<?xml version="1.0" encoding="utf-8"?>
<!-- Generator: Adobe Illustrator 18.1.0, SVG Export Plug-In . SVG Version: 6.00 Build 0)  -->
<!DOCTYPE svg PUBLIC "-//W3C//DTD SVG 1.1//EN" "http://www.w3.org/Graphics/SVG/1.1/DTD/svg11.dtd">
<svg version="1.1" id="Salubris" xmlns="http://www.w3.org/2000/svg" xmlns:xlink="http://www.w3.org/1999/xlink" x="0px" y="0px"
	 viewBox="0 126 323 316" enable-background="new 0 126 323 316" xml:space="preserve">
<g id="beeldmerk_blauw_op_wit" display="none">
	<g id="Laag_18_kopie_4" display="inline">
		<g>
			<path fill="#0086B5" d="M192.1,248.4c5.4,0,9.7,4.4,9.7,9.7c0,5.4-4.4,9.7-9.7,9.7s-9.7-4.4-9.7-9.7
				C182.4,252.7,186.7,248.4,192.1,248.4 M192.1,247.5c-5.8,0-10.6,4.8-10.6,10.6c0,5.8,4.8,10.6,10.6,10.6s10.6-4.8,10.6-10.6
				C202.7,252.2,198,247.5,192.1,247.5L192.1,247.5z"/>
		</g>
		<g>
			<path fill="#0086B5" d="M167.3,218c5.3,0,9.6,4.3,9.6,9.6s-4.3,9.6-9.6,9.6s-9.6-4.3-9.6-9.6S162,218,167.3,218 M167.3,217.1
				c-5.8,0-10.5,4.7-10.5,10.5s4.7,10.5,10.5,10.5s10.5-4.7,10.5-10.5S173.1,217.1,167.3,217.1L167.3,217.1z"/>
		</g>
		<g>
			<path fill="#0086B5" d="M160.4,187.6c5.6,0,10.1,4.5,10.1,10.1s-4.5,10.1-10.1,10.1c-5.5,0-10.1-4.5-10.1-10.1
				C150.3,192.1,154.8,187.6,160.4,187.6 M160.4,186.7c-6,0-10.9,4.9-10.9,10.9s4.9,10.9,10.9,10.9s10.9-4.9,10.9-10.9
				C171.3,191.7,166.4,186.7,160.4,186.7L160.4,186.7z"/>
		</g>
		<g>
			<path fill="#0086B5" d="M189.4,208.9c5.3,0,9.6,4.3,9.6,9.6s-4.3,9.6-9.6,9.6s-9.6-4.3-9.6-9.6S184.1,208.9,189.4,208.9
				 M189.4,208.1c-5.8,0-10.5,4.7-10.5,10.5s4.7,10.5,10.5,10.5s10.5-4.7,10.5-10.5C199.8,212.8,195.2,208.1,189.4,208.1
				L189.4,208.1z"/>
		</g>
		<g>
			<path fill="#0086B5" d="M198.3,229.3c3.3,0,6,2.7,6,6s-2.7,6-6,6s-6-2.7-6-6S195,229.3,198.3,229.3 M198.3,228.5
				c-3.8,0-6.9,3.1-6.9,6.9c0,3.8,3.1,6.9,6.9,6.9s6.9-3.1,6.9-6.9C205.2,231.5,202.1,228.5,198.3,228.5L198.3,228.5z"/>
		</g>
		<g>
			<path fill="#0086B5" d="M191.8,277.5c3.3,0,6,2.7,6,6s-2.7,6-6,6s-6-2.7-6-6S188.5,277.5,191.8,277.5 M191.8,276.7
				c-3.8,0-6.9,3.1-6.9,6.9s3.1,6.9,6.9,6.9s6.9-3.1,6.9-6.9S195.6,276.7,191.8,276.7L191.8,276.7z"/>
		</g>
		<g>
			<path fill="#0086B5" d="M172,239.9c3.3,0,6,2.7,6,6s-2.7,6-6,6s-6-2.7-6-6S168.7,239.9,172,239.9 M172,239.1
				c-3.8,0-6.9,3.1-6.9,6.9c0,3.8,3.1,6.9,6.9,6.9s6.9-3.1,6.9-6.9C178.9,242.2,175.8,239.1,172,239.1L172,239.1z"/>
		</g>
		<g>
			<path fill="#0086B5" d="M180.7,190.7c3.4,0,6.1,2.7,6.1,6.1c0,3.4-2.7,6.1-6.1,6.1s-6.1-2.7-6.1-6.1
				C174.6,193.5,177.3,190.7,180.7,190.7 M180.7,189.9c-3.8,0-6.9,3.1-6.9,6.9c0,3.8,3.1,6.9,6.9,6.9s6.9-3.1,6.9-6.9
				C187.6,193,184.5,189.9,180.7,189.9L180.7,189.9z"/>
		</g>
		<g>
			<path fill="#0086B5" d="M148.6,207.2c3.4,0,6.2,2.7,6.2,6.2s-2.7,6.2-6.2,6.2s-6.2-2.7-6.2-6.2S145.2,207.2,148.6,207.2
				 M148.6,206.3c-3.9,0-7,3.1-7,7s3.1,7,7,7s7-3.1,7-7S152.5,206.3,148.6,206.3L148.6,206.3z"/>
		</g>
		<g>
			<path fill="#0086B5" d="M163.9,175.1c2.6,0,4.7,2.1,4.7,4.7s-2.1,4.7-4.7,4.7s-4.7-2.1-4.7-4.7S161.3,175.1,163.9,175.1
				 M163.9,174.3c-3.1,0-5.5,2.5-5.5,5.5s2.5,5.5,5.5,5.5s5.5-2.5,5.5-5.5S166.9,174.3,163.9,174.3L163.9,174.3z"/>
		</g>
		<g>
			<path fill="#0086B5" d="M184.4,236.9c2.2,0,4,1.8,4,4s-1.8,4-4,4s-4-1.8-4-4S182.2,236.9,184.4,236.9 M184.4,236.1
				c-2.7,0-4.8,2.2-4.8,4.8s2.2,4.8,4.8,4.8s4.8-2.2,4.8-4.8C189.2,238.2,187,236.1,184.4,236.1L184.4,236.1z"/>
		</g>
		<g>
			<path fill="#0086B5" d="M173,205.7c2.1,0,3.8,1.7,3.8,3.8s-1.7,3.8-3.8,3.8s-3.8-1.7-3.8-3.8S170.9,205.7,173,205.7 M173,204.8
				c-2.5,0-4.6,2.1-4.6,4.6s2.1,4.6,4.6,4.6s4.6-2.1,4.6-4.6S175.5,204.8,173,204.8L173,204.8z"/>
		</g>
		<g>
			<path fill="#0086B5" d="M150.1,222.9c2.4,0,4.3,1.9,4.3,4.3s-1.9,4.3-4.3,4.3s-4.3-1.9-4.3-4.3
				C145.8,224.8,147.8,222.9,150.1,222.9 M150.1,222c-2.8,0-5.1,2.3-5.1,5.1s2.3,5.1,5.1,5.1s5.1-2.3,5.1-5.1
				C155.2,224.3,152.9,222,150.1,222L150.1,222z"/>
		</g>
		<g>
			<path fill="#0086B5" d="M187.5,270.5c1.2,0,2.2,1,2.2,2.2s-1,2.2-2.2,2.2s-2.2-1-2.2-2.2S186.3,270.5,187.5,270.5 M187.5,269.7
				c-1.7,0-3.1,1.3-3.1,3.1c0,1.7,1.3,3.1,3.1,3.1c1.7,0,3.1-1.3,3.1-3.1S189.2,269.7,187.5,269.7L187.5,269.7z"/>
		</g>
		<g>
			<path fill="#0086B5" d="M154.1,233.9c1.4,0,2.5,1.1,2.5,2.5s-1.1,2.5-2.5,2.5s-2.5-1.1-2.5-2.5
				C151.6,235.1,152.7,233.9,154.1,233.9 M154.1,233.1c-1.8,0-3.4,1.5-3.4,3.4c0,1.8,1.5,3.4,3.4,3.4c1.8,0,3.4-1.5,3.4-3.4
				S156,233.1,154.1,233.1L154.1,233.1z"/>
		</g>
		<g>
			<path fill="#0086B5" d="M160.6,239.3c1.5,0,2.6,1.2,2.6,2.6c0,1.5-1.2,2.6-2.6,2.6c-1.5,0-2.6-1.2-2.6-2.6
				S159.1,239.3,160.6,239.3 M160.6,238.5c-1.9,0-3.5,1.6-3.5,3.5s1.6,3.5,3.5,3.5s3.5-1.6,3.5-3.5S162.5,238.5,160.6,238.5
				L160.6,238.5z"/>
		</g>
		<g>
			<path fill="#0086B5" d="M175.6,184.1c1.2,0,2.2,1,2.2,2.2s-1,2.2-2.2,2.2s-2.2-1-2.2-2.2C173.3,185.1,174.3,184.1,175.6,184.1
				 M175.6,183.3c-1.7,0-3.1,1.3-3.1,3.1c0,1.7,1.3,3.1,3.1,3.1c1.7,0,3.1-1.3,3.1-3.1C178.6,184.6,177.2,183.3,175.6,183.3
				L175.6,183.3z"/>
		</g>
		<g>
			<path fill="#0086B5" d="M188.6,294.1c1.4,0,2.6,1.2,2.6,2.6s-1.2,2.6-2.6,2.6s-2.6-1.2-2.6-2.6
				C186,295.2,187.1,294.1,188.6,294.1 M188.6,293.3c-1.9,0-3.4,1.5-3.4,3.4s1.5,3.4,3.4,3.4s3.4-1.5,3.4-3.4
				S190.4,293.3,188.6,293.3L188.6,293.3z"/>
		</g>
		<g>
			<path fill="#0086B5" d="M199.6,271.8c1.3,0,2.4,1.1,2.4,2.4s-1.1,2.4-2.4,2.4c-1.3,0-2.4-1.1-2.4-2.4
				C197.2,272.9,198.3,271.8,199.6,271.8 M199.6,271c-1.8,0-3.2,1.5-3.2,3.2s1.5,3.2,3.2,3.2c1.8,0,3.2-1.5,3.2-3.2
				C202.9,272.5,201.5,271,199.6,271L199.6,271z"/>
		</g>
		<g>
			<path fill="#0086B5" d="M203.9,245.7c1.3,0,2.4,1.1,2.4,2.4c0,1.3-1.1,2.4-2.4,2.4c-1.3,0-2.4-1.1-2.4-2.4
				C201.6,246.8,202.6,245.7,203.9,245.7 M203.9,244.9c-1.8,0-3.2,1.5-3.2,3.2s1.5,3.2,3.2,3.2c1.8,0,3.2-1.5,3.2-3.2
				C207.1,246.4,205.7,244.9,203.9,244.9L203.9,244.9z"/>
		</g>
		<g>
			<path fill="#0086B5" d="M152.4,180.2c1.3,0,2.3,1,2.3,2.3s-1,2.3-2.3,2.3s-2.3-1-2.3-2.3S151.2,180.2,152.4,180.2 M152.4,179.4
				c-1.7,0-3.1,1.4-3.1,3.1s1.4,3.1,3.1,3.1s3.1-1.4,3.1-3.1S154.2,179.4,152.4,179.4L152.4,179.4z"/>
		</g>
		<g>
			<path fill="#0086B5" d="M176.6,255.6c1.3,0,2.4,1.1,2.4,2.4s-1.1,2.4-2.4,2.4c-1.3,0-2.4-1.1-2.4-2.4S175.3,255.6,176.6,255.6
				 M176.6,254.8c-1.8,0-3.2,1.5-3.2,3.2c0,1.8,1.5,3.2,3.2,3.2s3.2-1.5,3.2-3.2C179.9,256.2,178.4,254.8,176.6,254.8L176.6,254.8z"
				/>
		</g>
		<g>
			<path fill="#0086B5" d="M144.4,197.9c1.2,0,2.2,1,2.2,2.2s-1,2.2-2.2,2.2s-2.2-1-2.2-2.2S143.2,197.9,144.4,197.9 M144.4,197
				c-1.7,0-3,1.3-3,3s1.3,3,3,3s3-1.3,3-3C147.4,198.4,146.1,197,144.4,197L144.4,197z"/>
		</g>
		<g>
			<path fill="#0086B5" d="M181.4,230.1c1,0,1.7,0.8,1.7,1.7c0,1-0.8,1.7-1.7,1.7c-1,0-1.7-0.8-1.7-1.7
				C179.6,230.9,180.4,230.1,181.4,230.1 M181.4,229.3c-1.4,0-2.6,1.2-2.6,2.6c0,1.4,1.2,2.6,2.6,2.6s2.6-1.2,2.6-2.6
				C183.9,230.5,182.8,229.3,181.4,229.3L181.4,229.3z"/>
		</g>
		<g>
			<path fill="#0086B5" d="M146.8,190c0.8,0,1.5,0.7,1.5,1.5s-0.7,1.5-1.5,1.5s-1.5-0.7-1.5-1.5C145.3,190.6,146,190,146.8,190
				 M146.8,189.2c-1.3,0-2.3,1-2.3,2.3s1,2.3,2.3,2.3s2.3-1,2.3-2.3S148.1,189.2,146.8,189.2L146.8,189.2z"/>
		</g>
		<g>
			<path fill="#0086B5" d="M163.3,212.4c0.7,0,1.3,0.6,1.3,1.3s-0.6,1.3-1.3,1.3s-1.3-0.6-1.3-1.3S162.6,212.4,163.3,212.4
				 M163.3,211.6c-1.2,0-2.2,1-2.2,2.2s1,2.2,2.2,2.2s2.2-1,2.2-2.2S164.6,211.6,163.3,211.6L163.3,211.6z"/>
		</g>
		<g>
			<path fill="#0086B5" d="M185.5,303c0.7,0,1.2,0.6,1.2,1.2s-0.6,1.2-1.2,1.2c-0.7,0-1.2-0.6-1.2-1.2S184.8,303,185.5,303
				 M185.5,302.1c-1.1,0-2.1,1-2.1,2.1s1,2.1,2.1,2.1s2.1-1,2.1-2.1S186.6,302.1,185.5,302.1L185.5,302.1z"/>
		</g>
		<g>
			<path fill="#0086B5" d="M191.8,202.5c0.9,0,1.6,0.7,1.6,1.6s-0.7,1.6-1.6,1.6c-0.9,0-1.6-0.7-1.6-1.6S190.9,202.5,191.8,202.5
				 M191.8,201.6c-1.4,0-2.5,1.1-2.5,2.5s1.1,2.5,2.5,2.5s2.5-1.1,2.5-2.5S193.2,201.6,191.8,201.6L191.8,201.6z"/>
		</g>
		<g>
			<path fill="#0086B5" d="M181.4,307c0.7,0,1.2,0.6,1.2,1.2s-0.6,1.2-1.2,1.2s-1.2-0.6-1.2-1.2C180.3,307.6,180.8,307,181.4,307
				 M181.4,306.2c-1.1,0-2,0.9-2,2s0.9,2,2,2s2-0.9,2-2C183.4,307,182.5,306.2,181.4,306.2L181.4,306.2z"/>
		</g>
		<g>
			<path fill="#0086B5" d="M202.8,266.9c0.7,0,1.2,0.6,1.2,1.2s-0.6,1.2-1.2,1.2c-0.6,0-1.2-0.6-1.2-1.2
				C201.6,267.4,202.1,266.9,202.8,266.9 M202.8,266c-1.1,0-2,0.9-2,2s0.9,2,2,2s2-0.9,2-2S203.9,266,202.8,266L202.8,266z"/>
		</g>
	</g>
	<g id="Laag_15_kopie_4" display="inline">
		<circle fill="#0086B5" cx="170.7" cy="298.4" r="10.6"/>
		<circle fill="#0086B5" cx="133.4" cy="237.5" r="10.5"/>
		<circle fill="#0086B5" cx="151.5" cy="260.5" r="10.4"/>
		<circle fill="#0086B5" cx="133.8" cy="279.2" r="10.4"/>
		<circle fill="#0086B5" cx="147.8" cy="298.9" r="10.6"/>
		<circle fill="#0086B5" cx="170" cy="275.1" r="10.5"/>
		<circle fill="#0086B5" cx="132.4" cy="210.9" r="7.3"/>
		<circle fill="#0086B5" cx="157" cy="316.5" r="6.9"/>
		<circle fill="#0086B5" cx="130.7" cy="259.2" r="7.4"/>
		<circle fill="#0086B5" cx="152.9" cy="282.5" r="4.9"/>
		<circle fill="#0086B5" cx="148.9" cy="245.5" r="3.2"/>
		<circle fill="#0086B5" cx="123.5" cy="224.5" r="4"/>
		<circle fill="#0086B5" cx="122.7" cy="248.5" r="3.2"/>
		<circle fill="#0086B5" cx="169.1" cy="314.7" r="3.6"/>
		<circle fill="#0086B5" cx="136.3" cy="198.7" r="3.2"/>
		<circle fill="#0086B5" cx="137.1" cy="222.6" r="3.1"/>
		<circle fill="#0086B5" cx="167" cy="258.7" r="3.6"/>
		<circle fill="#0086B5" cx="119.6" cy="260.5" r="2.1"/>
		<circle fill="#0086B5" cx="131.7" cy="294" r="2.4"/>
		<circle fill="#0086B5" cx="141.3" cy="189.6" r="2.4"/>
		<circle fill="#0086B5" cx="180.9" cy="288.4" r="2.1"/>
		<circle fill="#0086B5" cx="139.6" cy="250.5" r="2.2"/>
		<circle fill="#0086B5" cx="119.9" cy="232.2" r="2.2"/>
		<circle fill="#0086B5" cx="119.7" cy="242.1" r="2.2"/>
		<circle fill="#0086B5" cx="119.9" cy="268.3" r="2.3"/>
		<circle fill="#0086B5" cx="146.9" cy="273.9" r="2.1"/>
	</g>
	<g id="Laag_17_kopie_4" display="inline">
		<circle fill="#0086B5" cx="240.8" cy="200" r="15.8"/>
		<circle fill="#0086B5" cx="268.6" cy="262" r="15.9"/>
		<circle fill="#0086B5" cx="205.7" cy="308.4" r="16.3"/>
		<circle fill="#0086B5" cx="252.4" cy="231.5" r="15.8"/>
		<circle fill="#0086B5" cx="235" cy="287.7" r="16"/>
		<circle fill="#0086B5" cx="198.7" cy="179.4" r="16.8"/>
		<circle fill="#0086B5" cx="224.5" cy="250" r="15.8"/>
		<circle fill="#0086B5" cx="276.4" cy="211.3" r="10.8"/>
		<circle fill="#0086B5" cx="272.4" cy="293.8" r="11.1"/>
		<circle fill="#0086B5" cx="232.8" cy="321.1" r="12.3"/>
		<circle fill="#0086B5" cx="256.6" cy="311.3" r="10.7"/>
		<circle fill="#0086B5" cx="282.6" cy="235" r="12"/>
		<circle fill="#0086B5" cx="212.7" cy="207.1" r="10.5"/>
		<circle fill="#0086B5" cx="225.5" cy="178.1" r="7.6"/>
		<circle fill="#0086B5" cx="183.2" cy="323.2" r="8.5"/>
		<circle fill="#0086B5" cx="213.8" cy="274.7" r="7.1"/>
		<circle fill="#0086B5" cx="266" cy="191.5" r="7.5"/>
		<circle fill="#0086B5" cx="211.9" cy="227.2" r="7.1"/>
		<circle fill="#0086B5" cx="245.2" cy="174.8" r="6.5"/>
		<circle fill="#0086B5" cx="198.6" cy="330.5" r="4.9"/>
		<circle fill="#0086B5" cx="225.7" cy="223.1" r="4.8"/>
		<circle fill="#0086B5" cx="247.3" cy="255.7" r="4.8"/>
		<circle fill="#0086B5" cx="172.1" cy="170.2" r="5.2"/>
		<circle fill="#0086B5" cx="219.3" cy="190.6" r="4.7"/>
		<circle fill="#0086B5" cx="211.3" cy="334.3" r="5.2"/>
		<circle fill="#0086B5" cx="291.9" cy="255.1" r="4.9"/>
		<circle fill="#0086B5" cx="170.3" cy="328.6" r="3.7"/>
		<circle fill="#0086B5" cx="255.8" cy="183.6" r="3.8"/>
		<circle fill="#0086B5" cx="246.6" cy="267.4" r="4.2"/>
		<circle fill="#0086B5" cx="290" cy="274.9" r="3.4"/>
		<circle fill="#0086B5" cx="224.7" cy="165.4" r="3.5"/>
		<circle fill="#0086B5" cx="236.2" cy="267" r="3.1"/>
		<circle fill="#0086B5" cx="252.1" cy="274.5" r="3.1"/>
		<circle fill="#0086B5" cx="215.3" cy="164.6" r="3.8"/>
		<circle fill="#0086B5" cx="231.9" cy="230.4" r="3.1"/>
		<circle fill="#0086B5" cx="282.1" cy="278.3" r="3.5"/>
		<circle fill="#0086B5" cx="181.8" cy="165.9" r="3.1"/>
		<circle fill="#0086B5" cx="289.2" cy="266.7" r="3.1"/>
		<circle fill="#0086B5" cx="204" cy="285.5" r="3.1"/>
		<circle fill="#0086B5" cx="255.3" cy="292.4" r="3.1"/>
	</g>
	<g id="Laag_14_kopie_4" display="inline">
		<g>
			<path fill="#0086B5" d="M83.8,205.1c8.3,0,15,6.7,15,15s-6.7,15-15,15s-15-6.7-15-15S75.5,205.1,83.8,205.1 M83.8,204.3
				c-8.8,0-15.8,7.1-15.8,15.8S75.1,236,83.8,236s15.8-7.1,15.8-15.8S92.6,204.3,83.8,204.3L83.8,204.3z"/>
		</g>
		<g>
			<path fill="#0086B5" d="M56.5,251.2c8.3,0,15,6.7,15,15c0,8.3-6.7,15-15,15s-15-6.7-15-15C41.5,257.9,48.2,251.2,56.5,251.2
				 M56.5,250.3c-8.7,0-15.8,7.1-15.8,15.8S47.8,282,56.5,282s15.8-7.1,15.8-15.8C72.3,257.4,65.2,250.3,56.5,250.3L56.5,250.3z"/>
		</g>
		<g>
			<path fill="#0086B5" d="M46.3,212.6c8.2,0,14.9,6.7,14.9,14.9s-6.7,14.9-14.9,14.9s-14.9-6.7-14.9-14.9S38.1,212.6,46.3,212.6
				 M46.3,211.8c-8.7,0-15.8,7.1-15.8,15.8s7.1,15.8,15.8,15.8s15.8-7.1,15.8-15.8S55,211.8,46.3,211.8L46.3,211.8z"/>
		</g>
		<g>
			<path fill="#0086B5" d="M97.6,236.6c8.4,0,15.2,6.8,15.2,15.2c0,8.4-6.8,15.2-15.2,15.2s-15.2-6.8-15.2-15.2
				S89.2,236.6,97.6,236.6 M97.6,235.7c-8.8,0-16,7.2-16,16s7.2,16,16,16s16-7.2,16-16C113.6,242.9,106.5,235.7,97.6,235.7
				L97.6,235.7z"/>
		</g>
		<g>
			<path fill="#0086B5" d="M90.2,286.3c8.4,0,15.2,6.8,15.2,15.2s-6.8,15.2-15.2,15.2S75,309.9,75,301.5S81.8,286.3,90.2,286.3
				 M90.2,285.4c-8.8,0-16.1,7.2-16.1,16.1c0,8.8,7.2,16.1,16.1,16.1c8.8,0,16.1-7.2,16.1-16.1S99.1,285.4,90.2,285.4L90.2,285.4z"
				/>
		</g>
		<g>
			<path fill="#0086B5" d="M93.8,173.4c8.2,0,14.9,6.7,14.9,14.9s-6.7,14.9-14.9,14.9s-14.9-6.7-14.9-14.9S85.5,173.4,93.8,173.4
				 M93.8,172.6c-8.7,0-15.8,7.1-15.8,15.8s7.1,15.8,15.8,15.8s15.8-7.1,15.8-15.8S102.5,172.6,93.8,172.6L93.8,172.6z"/>
		</g>
		<g>
			<path fill="#0086B5" d="M126.2,303.9c8.2,0,14.9,6.7,14.9,14.9s-6.7,14.9-14.9,14.9s-14.9-6.7-14.9-14.9S118,303.9,126.2,303.9
				 M126.2,303.1c-8.7,0-15.8,7.1-15.8,15.8s7.1,15.8,15.8,15.8s15.8-7.1,15.8-15.8S135,303.1,126.2,303.1L126.2,303.1z"/>
		</g>
		<g>
			<path fill="#0086B5" d="M127,159.6c8.3,0,15.1,6.8,15.1,15.1s-6.8,15.1-15.1,15.1s-15.1-6.8-15.1-15.1S118.7,159.6,127,159.6
				 M127,158.8c-8.8,0-15.9,7.1-15.9,15.9c0,8.8,7.1,15.9,15.9,15.9s15.9-7.1,15.9-15.9C142.9,165.9,135.8,158.8,127,158.8
				L127,158.8z"/>
		</g>
		<g>
			<path fill="#0086B5" d="M62.6,298.1c5.3,0,9.7,4.4,9.7,9.7s-4.4,9.7-9.7,9.7s-9.7-4.4-9.7-9.7C53,302.5,57.3,298.1,62.6,298.1
				 M62.6,297.3c-5.8,0-10.5,4.7-10.5,10.5s4.7,10.5,10.5,10.5s10.5-4.7,10.5-10.5C73.2,302,68.5,297.3,62.6,297.3L62.6,297.3z"/>
		</g>
		<g>
			<path fill="#0086B5" d="M59,183.9c5.4,0,9.7,4.4,9.7,9.7c0,5.4-4.4,9.8-9.7,9.8s-9.7-4.4-9.7-9.7C49.3,188.4,53.6,183.9,59,183.9
				 M59,183.1c-5.9,0-10.6,4.8-10.6,10.6c0,5.9,4.8,10.6,10.6,10.6c5.9,0,10.6-4.8,10.6-10.6S64.8,183.1,59,183.1L59,183.1z"/>
		</g>
		<g>
			<path fill="#0086B5" d="M109.4,268.1c5.4,0,9.8,4.4,9.8,9.8s-4.4,9.8-9.8,9.8s-9.8-4.4-9.8-9.8S104,268.1,109.4,268.1
				 M109.4,267.2c-5.9,0-10.6,4.8-10.6,10.6s4.8,10.6,10.6,10.6s10.6-4.8,10.6-10.6C120.1,272,115.3,267.2,109.4,267.2L109.4,267.2z
				"/>
		</g>
		<g>
			<path fill="#0086B5" d="M112.1,202.8c5.4,0,9.7,4.4,9.7,9.7s-4.4,9.7-9.7,9.7c-5.4,0-9.7-4.4-9.7-9.7S106.8,202.8,112.1,202.8
				 M112.1,201.9c-5.8,0-10.6,4.7-10.6,10.6c0,5.8,4.7,10.6,10.6,10.6c5.8,0,10.6-4.7,10.6-10.6
				C122.7,206.6,117.9,201.9,112.1,201.9L112.1,201.9z"/>
		</g>
		<g>
			<path fill="#0086B5" d="M100.8,318.2c4.5,0,8.2,3.7,8.2,8.2s-3.7,8.2-8.2,8.2s-8.2-3.7-8.2-8.2
				C92.6,321.9,96.3,318.2,100.8,318.2 M100.8,317.3c-5,0-9.1,4-9.1,9.1c0,5,4,9.1,9.1,9.1c5,0,9.1-4,9.1-9.1
				C109.9,321.4,105.8,317.3,100.8,317.3L100.8,317.3z"/>
		</g>
		<g>
			<path fill="#0086B5" d="M44.4,284.1c3.6,0,6.4,2.9,6.4,6.4c0,3.6-2.9,6.4-6.4,6.4c-3.6,0-6.4-2.9-6.4-6.4
				C37.9,287,40.8,284.1,44.4,284.1 M44.4,283.3c-4,0-7.3,3.2-7.3,7.3s3.2,7.3,7.3,7.3s7.3-3.2,7.3-7.3
				C51.7,286.6,48.4,283.3,44.4,283.3L44.4,283.3z"/>
		</g>
		<g>
			<path fill="#0086B5" d="M87.5,269.3c3.5,0,6.4,2.9,6.4,6.4c0,3.6-2.9,6.4-6.4,6.4s-6.4-2.9-6.4-6.4
				C81.1,272.1,83.9,269.3,87.5,269.3 M87.5,268.4c-4,0-7.3,3.2-7.3,7.3c0,4,3.2,7.3,7.3,7.3s7.3-3.2,7.3-7.3
				C94.7,271.7,91.5,268.4,87.5,268.4L87.5,268.4z"/>
		</g>
		<g>
			<path fill="#0086B5" d="M69.4,235.7c3.6,0,6.5,2.9,6.5,6.5s-2.9,6.5-6.5,6.5s-6.5-2.9-6.5-6.5C62.9,238.6,65.8,235.7,69.4,235.7
				 M69.4,234.9c-4,0-7.3,3.3-7.3,7.3s3.3,7.3,7.3,7.3s7.3-3.3,7.3-7.3C76.7,238.2,73.5,234.9,69.4,234.9L69.4,234.9z"/>
		</g>
		<g>
			<path fill="#0086B5" d="M122.9,192.7c2.7,0,4.9,2.2,4.9,4.9s-2.2,4.9-4.9,4.9s-4.9-2.2-4.9-4.9
				C117.9,194.9,120.1,192.7,122.9,192.7 M122.9,191.8c-3.2,0-5.8,2.6-5.8,5.8s2.6,5.8,5.8,5.8s5.8-2.6,5.8-5.8
				C128.6,194.4,126.1,191.8,122.9,191.8L122.9,191.8z"/>
		</g>
		<g>
			<path fill="#0086B5" d="M74.8,318.7c2.5,0,4.5,2,4.5,4.5s-2,4.5-4.5,4.5s-4.5-2-4.5-4.5S72.3,318.7,74.8,318.7 M74.8,317.9
				c-2.9,0-5.3,2.4-5.3,5.3s2.4,5.3,5.3,5.3s5.3-2.4,5.3-5.3C80.1,320.2,77.7,317.9,74.8,317.9L74.8,317.9z"/>
		</g>
		<g>
			<path fill="#0086B5" d="M45.7,200.6c2.2,0,4,1.8,4,4s-1.8,4-4,4s-4-1.8-4-4S43.5,200.6,45.7,200.6 M45.7,199.7
				c-2.7,0-4.9,2.2-4.9,4.9s2.2,4.9,4.9,4.9s4.9-2.2,4.9-4.9C50.6,201.9,48.4,199.7,45.7,199.7L45.7,199.7z"/>
		</g>
		<g>
			<path fill="#0086B5" d="M35.2,268.6c2.1,0,3.9,1.7,3.9,3.9c0,2.1-1.7,3.9-3.9,3.9s-3.9-1.7-3.9-3.9
				C31.3,270.3,33,268.6,35.2,268.6 M35.2,267.7c-2.6,0-4.7,2.1-4.7,4.7s2.1,4.7,4.7,4.7c2.6,0,4.7-2.1,4.7-4.7
				C39.9,269.9,37.8,267.7,35.2,267.7L35.2,267.7z"/>
		</g>
		<g>
			<path fill="#0086B5" d="M113.4,290.6c2.2,0,4.1,1.8,4.1,4.1s-1.8,4.1-4.1,4.1s-4.1-1.8-4.1-4.1S111.1,290.6,113.4,290.6
				 M113.4,289.7c-2.7,0-4.9,2.2-4.9,4.9c0,2.7,2.2,4.9,4.9,4.9s4.9-2.2,4.9-4.9C118.3,292,116.1,289.7,113.4,289.7L113.4,289.7z"/>
		</g>
		<g>
			<path fill="#0086B5" d="M63.1,283.5c2.9,0,5.3,2.4,5.3,5.3s-2.4,5.3-5.3,5.3c-2.9,0-5.3-2.4-5.3-5.3
				C57.8,285.9,60.2,283.5,63.1,283.5 M63.1,282.7c-3.4,0-6.1,2.7-6.1,6.1s2.7,6.1,6.1,6.1c3.4,0,6.1-2.7,6.1-6.1
				C69.2,285.4,66.4,282.7,63.1,282.7L63.1,282.7z"/>
		</g>
		<g>
			<path fill="#0086B5" d="M75.4,250.7c2.1,0,3.9,1.7,3.9,3.9s-1.7,3.9-3.9,3.9c-2.1,0-3.9-1.7-3.9-3.9S73.3,250.7,75.4,250.7
				 M75.4,249.9c-2.6,0-4.7,2.1-4.7,4.7s2.1,4.7,4.7,4.7s4.7-2.1,4.7-4.7S78,249.9,75.4,249.9L75.4,249.9z"/>
		</g>
		<g>
			<path fill="#0086B5" d="M32.9,242.8c2.5,0,4.5,2,4.5,4.5s-2,4.5-4.5,4.5s-4.5-2-4.5-4.5C28.4,244.8,30.5,242.8,32.9,242.8
				 M32.9,241.9c-3,0-5.3,2.4-5.3,5.3s2.4,5.3,5.3,5.3s5.3-2.4,5.3-5.3S35.8,241.9,32.9,241.9L32.9,241.9z"/>
		</g>
		<g>
			<path fill="#0086B5" d="M72.5,177.8c2.2,0,4,1.8,4,4s-1.8,4-4,4s-4-1.8-4-4S70.3,177.8,72.5,177.8 M72.5,177
				c-2.6,0-4.8,2.1-4.8,4.8c0,2.6,2.1,4.8,4.8,4.8c2.6,0,4.8-2.1,4.8-4.8S75.2,177,72.5,177L72.5,177z"/>
		</g>
		<g>
			<path fill="#0086B5" d="M148,322.4c2.8,0,5.1,2.3,5.1,5.1c0,2.8-2.3,5.1-5.1,5.1s-5.1-2.3-5.1-5.1
				C142.9,324.7,145.2,322.4,148,322.4 M148,321.5c-3.2,0-5.9,2.6-5.9,5.9c0,3.2,2.6,5.9,5.9,5.9c3.2,0,5.9-2.6,5.9-5.9
				C153.9,324.2,151.3,321.5,148,321.5L148,321.5z"/>
		</g>
		<g>
			<path fill="#0086B5" d="M105.9,225.6c2.5,0,4.6,2.1,4.6,4.6s-2.1,4.6-4.6,4.6s-4.6-2.1-4.6-4.6
				C101.3,227.7,103.4,225.6,105.9,225.6 M105.9,224.8c-3,0-5.4,2.4-5.4,5.4s2.4,5.4,5.4,5.4s5.4-2.4,5.4-5.4
				S108.9,224.8,105.9,224.8L105.9,224.8z"/>
		</g>
		<g>
			<path fill="#0086B5" d="M35.5,254.8c2.1,0,3.9,1.7,3.9,3.9s-1.7,3.9-3.9,3.9s-3.9-1.7-3.9-3.9S33.4,254.8,35.5,254.8 M35.5,254
				c-2.6,0-4.7,2.1-4.7,4.7s2.1,4.7,4.7,4.7c2.6,0,4.7-2.1,4.7-4.7S38.1,254,35.5,254L35.5,254z"/>
		</g>
		<g>
			<path fill="#0086B5" d="M124.9,294.6c1.6,0,2.9,1.3,2.9,2.9s-1.3,2.9-2.9,2.9s-2.9-1.3-2.9-2.9S123.3,294.6,124.9,294.6
				 M124.9,293.7c-2,0-3.7,1.6-3.7,3.7s1.6,3.7,3.7,3.7s3.7-1.6,3.7-3.7C128.6,295.3,126.9,293.7,124.9,293.7L124.9,293.7z"/>
		</g>
		<g>
			<path fill="#0086B5" d="M95,163.4c1.8,0,3.3,1.5,3.3,3.3S96.8,170,95,170s-3.3-1.5-3.3-3.3C91.6,164.9,93.1,163.4,95,163.4
				 M95,162.6c-2.3,0-4.1,1.8-4.1,4.1s1.8,4.1,4.1,4.1c2.3,0,4.1-1.8,4.1-4.1C99.1,164.5,97.3,162.6,95,162.6L95,162.6z"/>
		</g>
		<g>
			<path fill="#0086B5" d="M74,283.3c1.5,0,2.6,1.2,2.6,2.6c0,1.5-1.2,2.6-2.6,2.6c-1.5,0-2.6-1.2-2.6-2.6S72.5,283.3,74,283.3
				 M74,282.5c-1.9,0-3.5,1.6-3.5,3.5s1.6,3.5,3.5,3.5s3.5-1.6,3.5-3.5C77.4,284,75.9,282.5,74,282.5L74,282.5z"/>
		</g>
		<g>
			<path fill="#0086B5" d="M107.5,162.3c1.7,0,3.2,1.4,3.2,3.2s-1.4,3.2-3.2,3.2s-3.2-1.4-3.2-3.2S105.7,162.3,107.5,162.3
				 M107.5,161.4c-2.2,0-4,1.8-4,4s1.8,4,4,4s4-1.8,4-4S109.7,161.4,107.5,161.4L107.5,161.4z"/>
		</g>
		<g>
			<path fill="#0086B5" d="M65,205.7c1.8,0,3.3,1.5,3.3,3.3s-1.5,3.3-3.3,3.3c-1.8,0-3.3-1.5-3.3-3.3S63.2,205.7,65,205.7 M65,204.9
				c-2.3,0-4.1,1.8-4.1,4.1s1.8,4.1,4.1,4.1c2.3,0,4.1-1.8,4.1-4.1S67.3,204.9,65,204.9L65,204.9z"/>
		</g>
		<g>
			<path fill="#0086B5" d="M79.2,264.6c1.2,0,2.3,1,2.3,2.3c0,1.2-1,2.3-2.3,2.3c-1.2,0-2.3-1-2.3-2.3
				C76.9,265.6,78,264.6,79.2,264.6 M79.2,263.8c-1.7,0-3.1,1.4-3.1,3.1s1.4,3.1,3.1,3.1s3.1-1.4,3.1-3.1S80.9,263.8,79.2,263.8
				L79.2,263.8z"/>
		</g>
		<g>
			<path fill="#0086B5" d="M148.7,166.9c2,0,3.6,1.6,3.6,3.6s-1.6,3.6-3.6,3.6s-3.6-1.6-3.6-3.6C145,168.5,146.7,166.9,148.7,166.9
				 M148.7,166c-2.5,0-4.5,2-4.5,4.5s2,4.5,4.5,4.5s4.5-2,4.5-4.5C153.2,168.1,151.1,166,148.7,166L148.7,166z"/>
		</g>
		<g>
			<path fill="#0086B5" d="M84.5,325.3c1.8,0,3.3,1.5,3.3,3.3s-1.5,3.3-3.3,3.3s-3.3-1.5-3.3-3.3S82.7,325.3,84.5,325.3 M84.5,324.5
				c-2.3,0-4.1,1.8-4.1,4.1c0,2.3,1.8,4.1,4.1,4.1c2.3,0,4.1-1.8,4.1-4.1S86.8,324.5,84.5,324.5L84.5,324.5z"/>
		</g>
		<g>
			<path fill="#0086B5" d="M47.8,299.9c1.3,0,2.4,1.1,2.4,2.4s-1.1,2.4-2.4,2.4s-2.4-1.1-2.4-2.4C45.4,300.9,46.5,299.9,47.8,299.9
				 M47.8,299c-1.8,0-3.2,1.5-3.2,3.2c0,1.8,1.5,3.2,3.2,3.2c1.8,0,3.2-1.5,3.2-3.2C51.1,300.5,49.6,299,47.8,299L47.8,299z"/>
		</g>
		<g>
			<path fill="#0086B5" d="M56.1,207.2c1.2,0,2.3,1,2.3,2.3s-1,2.3-2.3,2.3s-2.3-1-2.3-2.3S54.8,207.2,56.1,207.2 M56.1,206.3
				c-1.7,0-3.1,1.4-3.1,3.1c0,1.7,1.4,3.1,3.1,3.1c1.7,0,3.1-1.4,3.1-3.1C59.2,207.7,57.8,206.3,56.1,206.3L56.1,206.3z"/>
		</g>
		<g>
			<path fill="#0086B5" d="M73.2,199.6c1.4,0,2.6,1.1,2.6,2.6s-1.1,2.6-2.6,2.6s-2.6-1.1-2.6-2.6C70.6,200.7,71.8,199.6,73.2,199.6
				 M73.2,198.7c-1.9,0-3.4,1.5-3.4,3.4s1.5,3.4,3.4,3.4s3.4-1.5,3.4-3.4S75.1,198.7,73.2,198.7L73.2,198.7z"/>
		</g>
	</g>
	<g id="tekst_wit_op_zwart_kopie_2" display="inline">
		<g id="tekst_uitgebreid_kopie_3">
			<g>
				<path fill="#0086B5" d="M81.2,383.1l-3.2-2.4c-0.4-0.3-0.8-0.7-1.1-1.1c-0.2-0.4-0.4-0.8-0.4-1.3c0-0.7,0.3-1.2,0.8-1.7
					c0.6-0.4,1.2-0.7,1.9-0.7c0.7,0,1.2,0.2,1.6,0.6c0.3,0.3,0.7,0.7,1,1.4l0.3,0.6c0,0.1,0.1,0.1,0.1,0.2c0.1,0.1,0.1,0.1,0.2,0.1
					s0.2,0,0.2-0.1c0.1-0.1,0.1-0.1,0.1-0.1l0.2-0.2c0.1-0.1,0.1-0.1,0.2-0.2c0-0.1,0-0.1,0-0.1c0-0.1,0-0.1,0-0.2v-1.5
					c0-0.2-0.1-0.3-0.2-0.4c-0.2-0.2-0.7-0.5-1.4-0.7c-0.7-0.2-1.4-0.3-2.1-0.3c-1.3,0-2.5,0.4-3.5,1.2c-1.1,0.8-1.6,1.8-1.6,2.9
					c0,0.7,0.2,1.3,0.6,1.9c0.3,0.5,0.8,1,1.5,1.5l3,2.2c0.5,0.4,1,0.8,1.3,1.2c0.6,0.7,0.8,1.4,0.8,2.1c0,0.9-0.3,1.6-1,2.3
					c-0.6,0.6-1.4,1-2.3,1c-0.8,0-1.5-0.2-2-0.7c-0.6-0.5-1-1.2-1.2-2V388c0-0.1-0.1-0.2-0.1-0.2c-0.1-0.1-0.1-0.1-0.1-0.1
					c-0.1,0-0.2,0-0.3,0.1l-0.6,0.2v3.2c0.1,0.1,0.1,0.2,0.1,0.4c0.1,0.1,0.6,0.3,1.5,0.6s1.8,0.3,2.6,0.3c1.7,0,3-0.4,4.1-1.3
					s1.7-2,1.7-3.5c0-0.9-0.2-1.7-0.7-2.5C82.6,384.4,82,383.7,81.2,383.1z"/>
				<path fill="#0086B5" d="M110.1,391.2c-0.1,0-0.2,0-0.3-0.1l-0.4-0.1c-0.2-0.1-0.3-0.1-0.4-0.2s-0.2-0.2-0.4-0.3
					s-0.3-0.4-0.5-0.7c-0.1-0.2-0.3-0.6-0.4-1.1l-5-13.2c-0.1-0.2-0.1-0.3-0.2-0.3c-0.1-0.1-0.1-0.1-0.2-0.1s-0.2,0-0.3,0h-3.3
					c-0.1,0-0.2,0-0.3,0.1c-0.1,0.1-0.1,0.1-0.1,0.1l-0.1,0.1l-0.2,0.3c-0.1,0.1-0.1,0.2-0.1,0.3c0,0.1,0.1,0.1,0.1,0.1
					c0.1,0,0.1,0,0.2,0.1l0.6,0.1c0.2,0.1,0.4,0.1,0.5,0.2s0.2,0.2,0.3,0.3c0.2,0.2,0.2,0.4,0.2,0.7c0,0.2-0.1,0.4-0.1,0.7
					c-0.1,0.2-0.2,0.5-0.3,0.8l-4.3,10.9c-0.1,0.2-0.2,0.4-0.2,0.5c-0.1,0.2-0.2,0.3-0.3,0.4c-0.1,0.1-0.2,0.2-0.3,0.3
					c-0.1,0.1-0.2,0.1-0.4,0.2l-0.6,0.1c-0.2,0.1-0.3,0.1-0.3,0.1c-0.1,0.1-0.1,0.1-0.2,0.2l-0.1,0.3c0,0.1,0,0.1,0,0.1
					c0,0.1,0,0.1,0.1,0.1c0,0.1,0.1,0.1,0.3,0.1h4.2c0.1,0,0.2,0,0.2-0.1c0.1-0.1,0.1-0.1,0.1-0.2l0.2-0.3c0.1-0.1,0.1-0.2,0-0.2
					c0-0.1-0.1-0.1-0.2-0.1l-0.4-0.2c-0.3-0.1-0.6-0.3-0.6-0.6v-0.1c0-0.1,0-0.1,0-0.2s0.1-0.1,0.1-0.3l4.5-12.1l2.8,7.9h-4
					l-0.4,1.3h5l0.9,2.4c0.1,0.1,0.1,0.3,0.2,0.4c0.1,0.2,0.1,0.4,0.1,0.6c0,0.1-0.1,0.3-0.1,0.4c-0.1,0.2-0.3,0.3-0.6,0.4
					c-0.2,0.1-0.3,0.2-0.3,0.2c-0.1,0.1-0.1,0.1-0.1,0.1c-0.1,0.1-0.1,0.1-0.1,0.2l-0.1,0.2c0,0.1,0,0.1,0,0.1c0,0.1,0,0.1,0.1,0.1
					c0.1,0.1,0.1,0.1,0.1,0.1h4.9c0.2,0,0.3,0,0.4-0.1s0.2-0.1,0.2-0.2l0.1-0.2c0.1-0.1,0-0.2,0-0.2
					C110.2,391.2,110.2,391.2,110.1,391.2z"/>
				<path fill="#0086B5" d="M131.8,389c-0.1,0-0.1,0-0.2,0l-0.2-0.1c-0.1,0-0.2-0.1-0.3,0c-0.1,0-0.1,0.1-0.1,0.1
					c-0.1,0.1-0.1,0.1-0.2,0.2l-0.3,0.6c-0.1,0.2-0.2,0.3-0.3,0.4s-0.2,0.2-0.3,0.3c-0.3,0.2-0.8,0.3-1.3,0.4c-0.1,0-0.2,0-0.4,0
					H126c-0.2,0-0.4,0-0.6-0.1s-0.3-0.1-0.4-0.2c-0.2-0.2-0.3-0.5-0.4-1c0-0.1,0-0.2,0-0.4v-11.8c0-0.2,0.1-0.4,0.1-0.6
					c0.1-0.2,0.2-0.3,0.3-0.4c0.1-0.1,0.2-0.2,0.3-0.2c0.1-0.1,0.3-0.1,0.4-0.1l0.2-0.1l0.2-0.1c0.1-0.1,0.1-0.1,0.1-0.2l0.2-0.3
					c0-0.1,0-0.2,0-0.2c-0.1-0.1-0.1-0.1-0.3-0.1h-5c-0.1,0-0.1,0-0.2,0s-0.1,0-0.2,0.1s-0.1,0.1-0.1,0.1l-0.2,0.3
					c-0.1,0.1-0.1,0.1-0.1,0.2s0.1,0.1,0.1,0.1l0.2,0.1l0.5,0.2c0.2,0.1,0.3,0.1,0.4,0.1c0.1,0.1,0.2,0.1,0.3,0.2
					c0.2,0.2,0.3,0.4,0.3,0.6V390c0,0.3-0.1,0.6-0.3,0.8c-0.1,0.1-0.2,0.2-0.4,0.3c-0.1,0-0.2,0.1-0.3,0.1l-0.2,0.1
					c-0.1,0-0.2,0.1-0.2,0.1c-0.1,0-0.1,0.1-0.2,0.1c-0.1,0.1-0.1,0.1-0.1,0.2l-0.1,0.3c0,0.1,0,0.1,0,0.1c0,0.1,0,0.1,0.1,0.1
					s0.1,0.1,0.3,0.1H131c0.2,0,0.3,0,0.4-0.1c0.1-0.1,0.2-0.1,0.3-0.2s0.2-0.2,0.2-0.2c0.1-0.1,0.1-0.2,0.1-0.2v-2v-0.1
					c0-0.1,0-0.1-0.1-0.2C131.9,389,131.8,389,131.8,389z"/>
				<path fill="#0086B5" d="M156.9,375.1h-4.2c-0.1,0-0.1,0-0.2,0c-0.1,0-0.1,0-0.2,0.1c-0.1,0-0.1,0.1-0.1,0.1l-0.2,0.3
					c-0.1,0.1-0.1,0.2,0,0.2c0,0.1,0.1,0.1,0.1,0.2c0,0,0.1,0.1,0.2,0.1l0.4,0.2c0.2,0.1,0.3,0.1,0.4,0.1c0.1,0.1,0.2,0.1,0.2,0.2
					c0.2,0.2,0.3,0.4,0.3,0.7v9.1c0,1.3-0.3,2.4-1,3.2c-0.7,0.9-1.8,1.3-3.3,1.3s-2.6-0.6-3.4-1.7c-0.6-1-1-2.2-1-3.8v-7.8
					c0-0.4,0.2-0.8,0.4-1.1c0.1-0.1,0.2-0.2,0.3-0.2c0.1-0.1,0.2-0.1,0.4-0.1l0.2-0.1c0.1,0,0.1-0.1,0.2-0.1
					c0.1-0.1,0.1-0.1,0.1-0.2l0.2-0.3c0.1-0.1,0-0.2-0.1-0.2c0-0.1-0.1-0.1-0.2-0.1h-5c-0.1,0-0.1,0-0.2,0s-0.1,0-0.2,0.1
					c-0.1,0-0.1,0.1-0.1,0.1l-0.2,0.3c-0.1,0.1-0.1,0.2,0,0.2c0,0.1,0.1,0.1,0.1,0.1c0.1,0,0.2,0.1,0.2,0.1l0.5,0.2
					c0.2,0.1,0.3,0.1,0.4,0.1c0.1,0.1,0.2,0.1,0.2,0.2c0.2,0.2,0.3,0.4,0.3,0.6v8.8c0,1.9,0.5,3.4,1.5,4.5c1.1,1.3,2.7,1.9,4.9,1.9
					s3.8-0.7,4.8-2.1c0.8-1.2,1.2-2.7,1.2-4.8v-8.2c0-0.3,0.1-0.6,0.3-0.8c0.2-0.2,0.5-0.4,0.8-0.4l0.3-0.1c0.1,0,0.2-0.1,0.2-0.1
					c0.1-0.1,0.1-0.1,0.1-0.2l0.2-0.3c0.1-0.1,0-0.2-0.1-0.2C157.1,375.1,157,375.1,156.9,375.1z"/>
				<path fill="#0086B5" d="M176.6,382.7l-0.6-0.1l0.6-0.2c0.9-0.4,1.6-0.8,2.1-1.4c0.6-0.6,0.8-1.3,0.8-2.2c0-1.2-0.4-2.1-1.4-2.8
					c-0.8-0.6-1.8-0.8-3.1-0.8h-6.8c-0.1,0-0.1,0-0.2,0c-0.1,0-0.1,0.1-0.2,0.1c-0.1,0.1-0.1,0.1-0.1,0.2l-0.1,0.2
					c0,0.1-0.1,0.1,0,0.2c0,0.1,0.1,0.1,0.1,0.1l0.2,0.1l0.6,0.2c0.2,0.1,0.3,0.1,0.4,0.1c0.1,0.1,0.2,0.1,0.3,0.2s0.2,0.2,0.2,0.3
					c0.1,0.1,0.1,0.3,0.1,0.4v12.9c0,0.2,0,0.4,0.1,0.7c0.1,0.2,0.1,0.4,0.2,0.6c0.1,0.2,0.7,0.4,1.6,0.6c1,0.2,1.9,0.3,2.8,0.3
					c1.8,0,3.3-0.4,4.5-1.3c1.3-1,2-2.2,2-3.7c0-1.2-0.4-2.2-1.2-3.1C178.7,383.5,177.7,383,176.6,382.7z M177.1,389.9
					c-0.7,0.7-1.5,1.1-2.6,1.1c-0.6,0-1-0.1-1.4-0.2s-0.7-0.4-1-0.7c-0.2-0.2-0.2-0.4-0.3-0.6s-0.1-0.5-0.1-1v-12.2h2.8
					c0.7,0,1.3,0.3,1.7,0.8c0.4,0.6,0.7,1.2,0.7,2c0,0.9-0.3,1.7-0.9,2.2c-0.6,0.6-1.3,0.8-2.2,0.8h-0.7v1.3h0.5
					c1.2,0,2.2,0.3,3,0.8c0.9,0.7,1.3,1.6,1.3,2.9C178,388.3,177.7,389.2,177.1,389.9z"/>
				<path fill="#0086B5" d="M204.2,391c-0.2-0.2-0.3-0.3-0.4-0.5c-0.1-0.1-0.2-0.3-0.4-0.6l-3.6-6c0.3-0.1,0.7-0.3,1-0.6
					c0.6-0.4,1-0.8,1.3-1.4c0.4-0.7,0.7-1.6,0.7-2.5c0-1.2-0.4-2.3-1.1-3.1c-0.8-0.9-1.8-1.3-3.2-1.3h-6.8c-0.1,0-0.1,0-0.2,0
					c-0.1,0-0.1,0-0.2,0.1c-0.1,0.1-0.1,0.1-0.1,0.1l-0.2,0.3c-0.1,0.1-0.1,0.2,0,0.2c0,0.1,0.1,0.1,0.1,0.1l0.2,0.1l0.5,0.2
					c0.2,0.1,0.3,0.1,0.4,0.1c0.1,0.1,0.2,0.1,0.3,0.2s0.2,0.2,0.2,0.3c0.1,0.1,0.1,0.2,0.1,0.3v13c0,0.1-0.1,0.3-0.1,0.4
					c-0.1,0.1-0.2,0.2-0.2,0.3c-0.2,0.2-0.4,0.3-0.6,0.3l-0.2,0.1c-0.1,0-0.1,0-0.2,0.1c-0.1,0-0.1,0.1-0.2,0.1
					c-0.1,0.1-0.1,0.1-0.1,0.2l-0.1,0.3c-0.1,0.1-0.1,0.2,0,0.2c0,0.1,0.1,0.1,0.3,0.1h5.2c0.1,0,0.1,0,0.2-0.1
					c0.1-0.1,0.1-0.1,0.2-0.2l0.1-0.2c0.1-0.1,0.1-0.2,0-0.2c0-0.1-0.1-0.1-0.1-0.1c-0.1,0-0.1-0.1-0.2-0.1l-0.7-0.2
					c-0.2-0.1-0.3-0.1-0.4-0.2c-0.1-0.1-0.2-0.2-0.2-0.3c-0.1-0.1-0.1-0.3-0.1-0.4v-13.5h2.4c0.9,0,1.6,0.3,2.2,0.8
					c0.6,0.6,0.9,1.4,0.9,2.5c0,1.2-0.4,2.2-1.2,2.8c-0.7,0.6-1.6,0.8-2.7,0.8h-0.2v1.3h1.3l3.7,6.7c0.1,0.1,0.1,0.2,0.1,0.3
					c0.1,0.1,0.1,0.2,0.2,0.3c0.1,0.1,0.3,0.1,0.4,0.2c0.1,0,0.2,0,0.3,0h2.4v-0.5c-0.2-0.1-0.3-0.2-0.4-0.3
					C204.4,391.2,204.3,391.1,204.2,391z"/>
				<path fill="#0086B5" d="M220.9,375.1h-5c-0.1,0-0.1,0-0.2,0c-0.1,0-0.1,0-0.2,0.1c-0.1,0.1-0.1,0.1-0.1,0.1l-0.2,0.3
					c-0.1,0.1-0.1,0.1-0.1,0.2s0.1,0.1,0.1,0.1l0.2,0.1l0.5,0.2c0.2,0.1,0.3,0.1,0.4,0.1c0.1,0.1,0.2,0.1,0.2,0.2
					c0.2,0.2,0.3,0.4,0.3,0.6V390c0,0.2,0,0.3-0.1,0.4s-0.1,0.2-0.2,0.3s-0.2,0.2-0.4,0.3c-0.1,0-0.2,0.1-0.3,0.1l-0.2,0.1
					c-0.1,0-0.2,0.1-0.2,0.1s-0.1,0.1-0.2,0.1c-0.1,0.1-0.1,0.1-0.1,0.2l-0.1,0.3c-0.1,0.1-0.1,0.2,0,0.2s0.1,0.1,0.3,0.1h5.2
					c0.1,0,0.1,0,0.2,0s0.1,0,0.1-0.1c0.1-0.1,0.1-0.1,0.2-0.2l0.1-0.2c0.1-0.1,0.1-0.2,0-0.2c0-0.1-0.1-0.1-0.1-0.1l-0.2-0.1
					l-0.5-0.2c-0.3-0.1-0.4-0.1-0.5-0.2s-0.2-0.1-0.2-0.2c-0.1-0.1-0.2-0.2-0.2-0.3s-0.1-0.3-0.1-0.4v-12.4c0-0.4,0.2-0.8,0.4-1
					c0.1-0.1,0.2-0.2,0.3-0.2c0.1-0.1,0.3-0.1,0.4-0.1l0.2-0.1l0.2-0.1c0.1-0.1,0.1-0.1,0.1-0.2l0.2-0.3c0-0.1,0-0.2,0-0.2
					C221.2,375.1,221.1,375.1,220.9,375.1z"/>
				<path fill="#0086B5" d="M241.2,385.1c-0.4-0.8-1.1-1.5-1.8-2l-3.2-2.4c-0.4-0.3-0.8-0.7-1.1-1.1s-0.4-0.8-0.4-1.3
					c0-0.7,0.3-1.2,0.8-1.7c0.6-0.4,1.2-0.7,1.9-0.7s1.2,0.2,1.6,0.6c0.3,0.3,0.7,0.7,1,1.4l0.3,0.6c0,0.1,0.1,0.1,0.1,0.2
					s0.1,0.1,0.2,0.1c0.1,0,0.2,0,0.2-0.1c0.1-0.1,0.1-0.1,0.1-0.1l0.2-0.2c0.1-0.1,0.1-0.1,0.2-0.2c0-0.1,0-0.1,0-0.1
					c0-0.1,0-0.1,0-0.2v-1.5c0-0.2-0.1-0.3-0.2-0.4c-0.2-0.2-0.7-0.5-1.4-0.7s-1.4-0.3-2.1-0.3c-1.3,0-2.5,0.4-3.5,1.2
					c-1.1,0.8-1.6,1.8-1.6,2.9c0,0.7,0.2,1.3,0.6,1.9c0.3,0.5,0.8,1,1.5,1.5l3,2.2c0.5,0.4,1,0.8,1.3,1.2c0.6,0.7,0.8,1.4,0.8,2.1
					c0,0.9-0.3,1.6-1,2.3c-0.6,0.6-1.4,1-2.3,1c-0.8,0-1.5-0.2-2-0.7c-0.6-0.5-1-1.2-1.2-2l-0.1-0.5c0-0.1-0.1-0.2-0.1-0.2
					c-0.1-0.1-0.1-0.1-0.1-0.1c-0.1,0-0.2,0-0.3,0.1l-0.6,0.2v3.2c0.1,0.1,0.1,0.2,0.1,0.4c0.1,0.1,0.6,0.3,1.5,0.6
					c1,0.2,1.8,0.3,2.6,0.3c1.7,0,3-0.4,4.1-1.3s1.7-2,1.7-3.5C241.9,386.8,241.7,385.9,241.2,385.1z"/>
			</g>
		</g>
		<text transform="matrix(1 0 0 1 100.3644 414.043)" fill="#0086B5" font-family="'Lato-Light'" font-size="10.1424">innovation  of  healthcare</text>
	</g>
</g>
<g id="dots_appearing_blue" display="none">
	<g display="inline">
		<circle opacity="0.2" fill="#0086B5" enable-background="new    " cx="296" cy="436.5" r="2.7"/>
		<circle opacity="0.4" fill="#0086B5" enable-background="new    " cx="299.2" cy="436.5" r="2.7"/>
		<circle opacity="0.6" fill="#0086B5" enable-background="new    " cx="309.6" cy="436.5" r="2.7"/>
		<circle opacity="0.8" fill="#0086B5" enable-background="new    " cx="335.1" cy="436.5" r="2.7"/>
		<circle fill="#0086B5" cx="382.7" cy="436.5" r="2.7"/>
	</g>
</g>
<g id="tekst">
	<g id="tekst_uitgebreid">
		<g>
			<path fill="#0086B5" d="M49.1,389.2l-4.7-3.4c-0.7-0.5-1.2-1-1.5-1.6s-0.6-1.2-0.6-2c0-1,0.4-1.8,1.2-2.5s1.7-1,2.7-1
				s1.7,0.3,2.3,0.8c0.4,0.4,1,1.1,1.4,2l0.4,0.8c0,0.1,0.1,0.1,0.1,0.2c0.1,0.1,0.2,0.2,0.2,0.2c0.1,0,0.2,0,0.3-0.1
				s0.1-0.1,0.2-0.2l0.3-0.3c0.1-0.1,0.2-0.2,0.3-0.3c0-0.1,0.1-0.1,0.1-0.2s0-0.2,0-0.3v-2.2c0-0.3-0.1-0.5-0.2-0.7
				c-0.3-0.3-1-0.7-2-1s-2.1-0.4-3.1-0.4c-1.9,0-3.6,0.6-5.1,1.7c-1.6,1.2-2.4,2.6-2.4,4.2c0,1,0.3,2,0.8,2.8
				c0.4,0.7,1.1,1.4,2.1,2.1l4.4,3.2c0.7,0.6,1.4,1.1,1.9,1.8c0.8,1.1,1.2,2,1.2,3c0,1.3-0.4,2.4-1.4,3.3s-2,1.3-3.3,1.3
				c-1.1,0-2.1-0.3-3-1.1s-1.4-1.7-1.7-2.9l-0.2-0.7c0-0.1-0.1-0.2-0.1-0.3c-0.1-0.1-0.1-0.1-0.2-0.2c-0.1,0-0.2,0-0.4,0.1l-0.8,0.3
				v4.6c0.1,0.2,0.1,0.3,0.2,0.6c0.1,0.2,0.8,0.4,2.2,0.8c1.4,0.3,2.6,0.5,3.7,0.5c2.4,0,4.4-0.6,6-1.9s2.4-2.9,2.4-5
				c0-1.3-0.3-2.5-1-3.6C51.1,391,50.2,390,49.1,389.2z"/>
			<path fill="#0086B5" d="M90.6,400.8c-0.1,0-0.3-0.1-0.4-0.1l-0.6-0.2c-0.2-0.1-0.4-0.2-0.6-0.2c-0.1-0.1-0.3-0.2-0.6-0.4
				c-0.2-0.2-0.4-0.6-0.7-1.1c-0.2-0.3-0.4-0.8-0.6-1.5l-7.2-19c-0.1-0.2-0.2-0.4-0.3-0.5c-0.1-0.1-0.2-0.1-0.3-0.1
				c-0.1,0-0.2,0-0.4,0h-4.8c-0.2,0-0.3,0-0.4,0.1s-0.1,0.1-0.1,0.1c-0.1,0.1-0.1,0.1-0.1,0.1l-0.2,0.4c-0.1,0.1-0.1,0.3-0.1,0.4
				c0.1,0.1,0.1,0.1,0.2,0.2c0.1,0,0.2,0.1,0.3,0.1l0.8,0.2c0.3,0.1,0.5,0.2,0.7,0.3c0.2,0.1,0.3,0.2,0.5,0.4
				c0.2,0.3,0.3,0.6,0.3,1.1c0,0.3-0.1,0.7-0.1,1c-0.1,0.3-0.2,0.7-0.4,1.1l-6.2,15.6c-0.1,0.3-0.2,0.6-0.3,0.7
				c-0.1,0.2-0.3,0.4-0.4,0.6c-0.2,0.2-0.3,0.3-0.5,0.4s-0.3,0.2-0.6,0.2l-0.8,0.2c-0.3,0.1-0.4,0.1-0.5,0.2s-0.2,0.2-0.2,0.3
				l-0.2,0.4c0,0.1-0.1,0.2-0.1,0.2c0,0.1,0,0.1,0.1,0.2s0.2,0.1,0.4,0.1h6c0.1,0,0.2,0,0.3-0.1c0.1-0.1,0.1-0.1,0.2-0.2l0.2-0.5
				c0.1-0.1,0.1-0.2,0.1-0.3c0-0.1-0.1-0.1-0.3-0.2l-0.6-0.2c-0.5-0.2-0.8-0.5-0.8-0.9c0-0.1,0-0.1,0-0.2s0-0.2,0-0.2
				c0-0.1,0.1-0.2,0.2-0.4l6.4-17.5l4,11.4h-5.2l-0.7,1.8h6.6l1.3,3.4c0.1,0.2,0.2,0.4,0.2,0.6c0.1,0.3,0.2,0.6,0.2,0.8
				c0,0.2-0.1,0.4-0.1,0.6c-0.1,0.3-0.4,0.5-0.8,0.7c-0.3,0.2-0.5,0.2-0.5,0.3c-0.1,0.1-0.2,0.1-0.2,0.1c-0.1,0.1-0.1,0.1-0.1,0.2
				l-0.2,0.3c0,0.1-0.1,0.1-0.1,0.2s0,0.1,0.1,0.2s0.1,0.1,0.2,0.2H90c0.2,0,0.4-0.1,0.6-0.1c0.1-0.1,0.2-0.2,0.3-0.3l0.2-0.3
				c0.1-0.1,0.1-0.2-0.1-0.3C90.9,400.8,90.8,400.8,90.6,400.8z"/>
			<path fill="#0086B5" d="M121.9,397.6c-0.1,0-0.1,0-0.2-0.1l-0.3-0.1c-0.1-0.1-0.2-0.1-0.4-0.1c-0.1,0-0.2,0.1-0.2,0.1
				c-0.1,0.1-0.1,0.2-0.2,0.3l-0.5,0.8c-0.2,0.2-0.3,0.4-0.4,0.6c-0.2,0.2-0.3,0.3-0.5,0.4c-0.4,0.3-1.1,0.5-2,0.6
				c-0.1,0-0.3,0-0.6,0h-3.1c-0.3,0-0.7,0-0.9-0.1c-0.2-0.1-0.4-0.2-0.7-0.3c-0.3-0.3-0.5-0.7-0.6-1.4c0-0.1,0-0.3,0-0.6v-17
				c0-0.3,0.1-0.6,0.1-0.8c0.1-0.2,0.2-0.4,0.4-0.6c0.2-0.2,0.3-0.3,0.5-0.3c0.2-0.1,0.4-0.1,0.6-0.2l0.3-0.1l0.3-0.1
				c0.1-0.1,0.1-0.2,0.2-0.3l0.2-0.5c0.1-0.1,0-0.2-0.1-0.3c-0.1-0.1-0.2-0.1-0.4-0.1h-7.1c-0.1,0-0.2,0-0.3,0
				c-0.1,0-0.2,0.1-0.3,0.1c-0.1,0.1-0.2,0.1-0.2,0.2l-0.2,0.4c-0.1,0.1-0.1,0.2-0.1,0.3c0,0.1,0.1,0.2,0.2,0.2
				c0.1,0.1,0.2,0.1,0.3,0.1l0.7,0.2c0.2,0.1,0.4,0.1,0.6,0.2c0.1,0.1,0.2,0.1,0.4,0.3c0.3,0.3,0.4,0.6,0.4,0.9v18.6
				c0,0.4-0.2,0.8-0.4,1.1c-0.2,0.2-0.3,0.3-0.6,0.4c-0.1,0.1-0.3,0.1-0.4,0.1l-0.3,0.1c-0.2,0.1-0.3,0.1-0.3,0.1
				c-0.1,0.1-0.2,0.1-0.3,0.2c-0.1,0.1-0.2,0.2-0.2,0.2l-0.2,0.4c0,0.1-0.1,0.1-0.1,0.2s0,0.1,0.1,0.2s0.2,0.1,0.4,0.1h15.1
				c0.3,0,0.5,0,0.7-0.1s0.3-0.1,0.4-0.3c0.1-0.1,0.2-0.3,0.3-0.3c0.1-0.1,0.1-0.2,0.1-0.3v-2.9c0-0.1,0-0.1,0-0.2s0-0.2-0.1-0.2
				C122,397.7,122,397.6,121.9,397.6z"/>
			<path fill="#0086B5" d="M158,377.6h-6c-0.1,0-0.2,0-0.3,0s-0.2,0.1-0.3,0.1c-0.1,0.1-0.2,0.1-0.2,0.2l-0.2,0.4
				c-0.1,0.1-0.1,0.2-0.1,0.3s0.1,0.2,0.2,0.2c0.1,0,0.1,0.1,0.3,0.1l0.7,0.2c0.3,0.1,0.4,0.1,0.6,0.2c0.1,0.1,0.3,0.1,0.3,0.3
				c0.3,0.3,0.4,0.6,0.4,1v13.1c0,1.9-0.5,3.4-1.5,4.6c-1.1,1.3-2.7,2-4.8,2s-3.8-0.8-4.9-2.5c-0.9-1.4-1.3-3.2-1.3-5.4v-11.3
				c0-0.7,0.2-1.2,0.7-1.6c0.2-0.2,0.3-0.3,0.5-0.3c0.2-0.1,0.3-0.1,0.6-0.2l0.3-0.1c0.1,0,0.2-0.1,0.3-0.1c0.1-0.1,0.2-0.2,0.2-0.3
				l0.2-0.5c0.1-0.1,0.1-0.2-0.1-0.3c-0.1-0.1-0.2-0.1-0.3-0.1h-7.2c-0.1,0-0.2,0-0.3,0s-0.2,0.1-0.3,0.1c-0.1,0.1-0.2,0.1-0.2,0.2
				l-0.2,0.4c-0.1,0.1-0.1,0.2-0.1,0.3c0,0.1,0.1,0.2,0.2,0.2c0.1,0.1,0.2,0.1,0.3,0.1l0.7,0.2c0.3,0.1,0.4,0.1,0.6,0.2
				c0.1,0.1,0.2,0.1,0.3,0.3c0.3,0.3,0.4,0.6,0.4,0.9v12.8c0,2.7,0.7,5,2.1,6.5c1.6,1.8,4,2.7,7.1,2.7s5.4-1,6.9-3.1
				c1.2-1.7,1.8-4,1.8-6.8v-11.7c0-0.4,0.2-0.8,0.5-1.2c0.3-0.3,0.7-0.5,1.2-0.7l0.4-0.1c0.1-0.1,0.2-0.1,0.3-0.1
				c0.1-0.1,0.1-0.2,0.2-0.3l0.2-0.5c0.1-0.1,0.1-0.2-0.1-0.3C158.4,377.7,158.3,377.6,158,377.6z"/>
			<path fill="#0086B5" d="M186.3,388.6l-0.8-0.2l0.8-0.3c1.3-0.6,2.3-1.2,3-2c0.8-0.9,1.2-2,1.2-3.2c0-1.7-0.7-3.1-2-4
				c-1.2-0.8-2.6-1.2-4.4-1.2h-9.9c-0.1,0-0.2,0-0.3,0.1c-0.1,0-0.2,0.1-0.3,0.1c-0.1,0.1-0.2,0.1-0.2,0.2l-0.2,0.3
				c-0.1,0.1-0.1,0.2,0,0.3c0,0.1,0.1,0.2,0.2,0.2c0.1,0.1,0.2,0.1,0.3,0.1l0.8,0.2c0.3,0.1,0.4,0.1,0.6,0.2
				c0.2,0.1,0.3,0.2,0.4,0.3c0.1,0.2,0.2,0.3,0.3,0.4s0.1,0.4,0.1,0.6v18.6c0,0.3,0.1,0.7,0.1,1c0.1,0.3,0.2,0.6,0.3,0.8
				c0.2,0.3,1,0.6,2.4,0.8c1.4,0.3,2.7,0.4,4,0.4c2.6,0,4.8-0.6,6.5-1.9c1.9-1.3,2.9-3.1,2.9-5.3c0-1.7-0.6-3.2-1.7-4.4
				C189.4,389.7,188,388.9,186.3,388.6z M187.1,399c-1,1.1-2.2,1.6-3.7,1.6c-0.8,0-1.5-0.1-2-0.3c-0.6-0.2-1-0.6-1.5-1.1
				c-0.2-0.3-0.3-0.6-0.4-0.8c-0.1-0.3-0.1-0.7-0.1-1.3v-17.5h4c1,0,1.8,0.4,2.5,1.2c0.6,0.8,1,1.7,1,2.9c0,1.3-0.4,2.4-1.3,3.2
				c-0.8,0.8-1.9,1.2-3.1,1.2H182v1.8h0.2c1.8,0,3.2,0.4,4.3,1.2c1.3,1,1.9,2.3,1.9,4.1C188.4,396.7,188,397.9,187.1,399z"/>
			<path fill="#0086B5" d="M226.1,400.5c-0.2-0.2-0.4-0.5-0.7-0.7c-0.1-0.2-0.3-0.4-0.5-0.8l-5.2-8.6c0.4-0.2,1-0.4,1.5-0.8
				c0.8-0.6,1.5-1.2,1.9-2c0.6-1.1,1-2.2,1-3.6c0-1.8-0.6-3.3-1.6-4.5c-1.2-1.3-2.7-1.9-4.6-1.9H208c-0.1,0-0.2,0-0.3,0
				s-0.2,0.1-0.3,0.1c-0.1,0.1-0.2,0.1-0.2,0.2l-0.2,0.4c-0.1,0.1-0.1,0.2-0.1,0.3s0.1,0.2,0.2,0.2c0.1,0.1,0.2,0.1,0.3,0.1l0.7,0.2
				c0.3,0.1,0.4,0.1,0.6,0.2c0.1,0.1,0.2,0.1,0.4,0.3c0.1,0.1,0.2,0.3,0.3,0.4s0.1,0.3,0.1,0.4V399c0,0.2-0.1,0.4-0.1,0.6
				c-0.1,0.2-0.2,0.3-0.3,0.4c-0.3,0.3-0.6,0.4-0.8,0.5l-0.3,0.1c-0.1,0-0.2,0.1-0.3,0.1c-0.1,0.1-0.2,0.1-0.3,0.2s-0.2,0.2-0.2,0.3
				l-0.2,0.4c-0.1,0.2-0.1,0.3,0,0.3c0.1,0.1,0.2,0.1,0.4,0.1h7.4c0.1,0,0.2,0,0.3-0.1s0.2-0.1,0.3-0.2l0.2-0.3
				c0.1-0.1,0.1-0.2,0.1-0.3c-0.1-0.1-0.1-0.2-0.2-0.2c-0.1-0.1-0.2-0.1-0.3-0.1l-1.1-0.3c-0.3-0.1-0.5-0.2-0.7-0.3
				c-0.2-0.2-0.3-0.3-0.3-0.5s-0.1-0.4-0.1-0.7v-19.4h3.4c1.3,0,2.4,0.4,3.1,1.2c0.8,0.8,1.2,2,1.2,3.5c0,1.8-0.6,3.1-1.7,4
				c-1,0.8-1.7,1-3.4,1l-0.2,0.3v1.8h1.3l5.3,9.6c0.1,0.1,0.1,0.2,0.2,0.4c0.1,0.2,0.2,0.3,0.3,0.4c0.2,0.1,0.3,0.2,0.6,0.2
				c0.2,0,0.3,0,0.4,0h3.4v-0.7c-0.2-0.1-0.4-0.3-0.7-0.4C226.4,400.8,226.3,400.7,226.1,400.5z"/>
			<path fill="#0086B5" d="M250.2,377.6H243c-0.1,0-0.2,0-0.3,0s-0.2,0.1-0.3,0.1c-0.1,0.1-0.2,0.1-0.2,0.2l-0.2,0.4
				c-0.1,0.1-0.1,0.2-0.1,0.3c0,0.1,0.1,0.2,0.2,0.2c0.1,0.1,0.2,0.1,0.3,0.1l0.7,0.2c0.3,0.1,0.4,0.1,0.6,0.2
				c0.1,0.1,0.2,0.1,0.3,0.3c0.3,0.3,0.4,0.6,0.4,0.9V399c0,0.2-0.1,0.4-0.1,0.6c-0.1,0.2-0.2,0.3-0.3,0.5s-0.3,0.3-0.6,0.4
				c-0.1,0.1-0.3,0.1-0.4,0.1l-0.3,0.1c-0.1,0-0.2,0.1-0.3,0.1c-0.1,0.1-0.2,0.1-0.3,0.2s-0.2,0.2-0.2,0.2l-0.2,0.4
				c-0.1,0.1-0.1,0.2,0,0.3c0.1,0.1,0.2,0.1,0.4,0.1h7.4c0.1,0,0.2,0,0.2,0l0.2-0.1c0.1-0.1,0.1-0.2,0.2-0.3l0.1-0.3
				c0.1-0.1,0.1-0.2,0.1-0.3c0-0.1-0.1-0.1-0.2-0.2c-0.1-0.1-0.2-0.1-0.3-0.1l-0.7-0.2c-0.4-0.1-0.7-0.2-0.7-0.2
				c-0.1-0.1-0.2-0.2-0.3-0.3c-0.2-0.2-0.2-0.3-0.3-0.5s-0.1-0.4-0.1-0.7v-17.9c0-0.6,0.2-1.1,0.6-1.5c0.2-0.2,0.3-0.3,0.5-0.3
				c0.2-0.1,0.4-0.1,0.6-0.2l0.3-0.1l0.3-0.1c0.1-0.1,0.1-0.2,0.2-0.3l0.2-0.5C250.5,377.8,250.4,377.7,250.2,377.6
				C250.6,377.7,250.4,377.6,250.2,377.6z"/>
			<path fill="#0086B5" d="M279.4,392.1c-0.7-1.1-1.6-2.1-2.7-2.9l-4.7-3.4c-0.7-0.5-1.2-1-1.5-1.6s-0.6-1.2-0.6-2
				c0-1,0.4-1.8,1.2-2.5c0.8-0.7,1.7-1,2.7-1s1.7,0.3,2.3,0.8c0.4,0.4,1,1.1,1.4,2l0.4,0.8c0,0.1,0.1,0.1,0.1,0.2
				c0.1,0.1,0.2,0.2,0.2,0.2c0.1,0,0.2,0,0.3-0.1c0.1-0.1,0.1-0.1,0.2-0.2l0.3-0.3c0.1-0.1,0.2-0.2,0.3-0.3c0-0.1,0.1-0.1,0.1-0.2
				s0-0.2,0-0.3v-2.2c0-0.3-0.1-0.5-0.2-0.7c-0.3-0.3-1-0.7-2-1s-2.1-0.4-3.1-0.4c-1.9,0-3.6,0.6-5.1,1.7c-1.6,1.2-2.4,2.6-2.4,4.2
				c0,1,0.3,2,0.8,2.8c0.4,0.7,1.1,1.4,2.1,2.1l4.4,3.2c0.7,0.6,1.4,1.1,1.9,1.8c0.8,1.1,1.2,2,1.2,3c0,1.3-0.4,2.4-1.4,3.3
				s-2,1.3-3.3,1.3c-1.1,0-2.1-0.3-3-1.1s-1.4-1.7-1.7-2.9l-0.2-0.7c0-0.1-0.1-0.2-0.1-0.3c-0.1-0.1-0.1-0.1-0.2-0.2
				c-0.1,0-0.2,0-0.4,0.1l-0.8,0.4v4.6c0.1,0.2,0.1,0.3,0.2,0.6c0.1,0.2,0.8,0.4,2.2,0.8c1.4,0.3,2.6,0.5,3.7,0.5
				c2.4,0,4.4-0.6,6-1.9s2.4-2.9,2.4-5C280.3,394.4,280,393.2,279.4,392.1z"/>
		</g>
	</g>
	<g enable-background="new    ">
		<path fill="#0086B5" d="M75.5,422.5c0,0.1,0,0.3-0.1,0.4s-0.1,0.2-0.2,0.3c-0.1,0.1-0.2,0.2-0.3,0.2c-0.1,0-0.2,0.1-0.4,0.1
			s-0.3,0-0.4-0.1c-0.1,0-0.2-0.1-0.3-0.2c-0.1-0.1-0.2-0.2-0.2-0.3c0-0.1-0.1-0.2-0.1-0.4s0-0.3,0.1-0.4s0.1-0.2,0.2-0.3
			s0.2-0.2,0.3-0.2c0.1,0,0.2-0.1,0.4-0.1s0.3,0,0.4,0.1c0.1,0,0.2,0.1,0.3,0.2s0.2,0.2,0.2,0.3C75.5,422.3,75.5,422.4,75.5,422.5z
			 M75.2,424.9v7.6h-1.3v-7.6H75.2z"/>
		<path fill="#0086B5" d="M77.6,432.5v-7.6h0.8c0.2,0,0.3,0.1,0.4,0.3l0.1,0.8c0.3-0.4,0.7-0.7,1.1-0.9c0.4-0.2,0.9-0.3,1.4-0.3
			c0.4,0,0.8,0.1,1.1,0.2c0.3,0.1,0.6,0.3,0.8,0.6c0.2,0.3,0.4,0.6,0.5,0.9c0.1,0.4,0.2,0.7,0.2,1.2v4.8h-1.3v-4.8
			c0-0.6-0.1-1-0.4-1.3s-0.7-0.5-1.2-0.5c-0.4,0-0.8,0.1-1.1,0.3c-0.3,0.2-0.7,0.4-0.9,0.8v5.6h-1.5V432.5z"/>
		<path fill="#0086B5" d="M85.9,432.5v-7.6h0.8c0.2,0,0.3,0.1,0.4,0.3l0.1,0.8c0.3-0.4,0.7-0.7,1.1-0.9c0.4-0.2,0.9-0.3,1.4-0.3
			c0.4,0,0.8,0.1,1.1,0.2c0.3,0.1,0.6,0.3,0.8,0.6c0.2,0.3,0.4,0.6,0.5,0.9c0.1,0.4,0.2,0.7,0.2,1.2v4.8H91v-4.8
			c0-0.6-0.1-1-0.4-1.3s-0.7-0.5-1.2-0.5c-0.4,0-0.8,0.1-1.1,0.3c-0.3,0.2-0.7,0.4-0.9,0.8v5.6h-1.5V432.5z"/>
		<path fill="#0086B5" d="M97.3,424.8c0.6,0,1.1,0.1,1.5,0.3c0.4,0.2,0.8,0.4,1.1,0.8c0.3,0.3,0.6,0.8,0.7,1.2s0.3,1,0.3,1.6
			s-0.1,1.1-0.3,1.6c-0.2,0.5-0.4,0.9-0.7,1.2c-0.3,0.3-0.7,0.6-1.1,0.8c-0.4,0.2-0.9,0.3-1.5,0.3s-1.1-0.1-1.5-0.3
			c-0.4-0.2-0.8-0.4-1.1-0.8s-0.6-0.8-0.7-1.2c-0.2-0.5-0.3-1-0.3-1.6s0.1-1.1,0.3-1.6s0.4-0.9,0.7-1.2s0.7-0.6,1.1-0.8
			C96.3,424.9,96.8,424.8,97.3,424.8z M97.3,431.6c0.8,0,1.3-0.3,1.7-0.8c0.4-0.5,0.6-1.2,0.6-2.1s-0.2-1.6-0.6-2.1
			s-0.9-0.8-1.7-0.8c-0.4,0-0.7,0.1-1,0.2s-0.5,0.3-0.7,0.6s-0.3,0.5-0.4,0.9s-0.1,0.8-0.1,1.2s0,0.9,0.1,1.2
			c0.1,0.4,0.2,0.7,0.4,0.9c0.2,0.2,0.4,0.4,0.7,0.6C96.6,431.5,97,431.6,97.3,431.6z"/>
		<path fill="#0086B5" d="M101.5,424.9h1.1c0.1,0,0.2,0,0.3,0.1c0.1,0.1,0.1,0.1,0.1,0.2l1.9,4.9c0.1,0.2,0.1,0.4,0.2,0.5
			c0,0.2,0.1,0.4,0.1,0.5c0-0.2,0.1-0.4,0.1-0.5c0-0.2,0.1-0.4,0.2-0.5l2-4.9c0-0.1,0.1-0.1,0.1-0.2s0.2-0.1,0.3-0.1h1l-3.1,7.6
			h-1.2L101.5,424.9z"/>
		<path fill="#0086B5" d="M115.7,432.5h-0.6c-0.1,0-0.2,0-0.3-0.1s-0.1-0.1-0.2-0.3l-0.1-0.7c-0.2,0.2-0.4,0.3-0.6,0.5
			s-0.4,0.3-0.6,0.4s-0.4,0.2-0.7,0.2c-0.2,0-0.5,0.1-0.8,0.1s-0.6,0-0.8-0.1c-0.3-0.1-0.5-0.2-0.7-0.4c-0.2-0.2-0.3-0.4-0.5-0.6
			c-0.1-0.3-0.2-0.6-0.2-0.9s0.1-0.6,0.2-0.9s0.4-0.5,0.8-0.7s0.8-0.4,1.4-0.5s1.3-0.2,2.2-0.2v-0.6c0-0.6-0.1-1-0.4-1.3
			s-0.6-0.5-1.1-0.5c-0.3,0-0.6,0-0.8,0.1c-0.2,0.1-0.4,0.2-0.6,0.3c-0.2,0.1-0.3,0.2-0.4,0.3c-0.1,0.1-0.2,0.1-0.3,0.1
			c-0.1,0-0.2,0-0.2-0.1c-0.1,0-0.1-0.1-0.2-0.2L110,426c0.4-0.4,0.9-0.7,1.4-0.9s1-0.3,1.6-0.3c0.4,0,0.8,0.1,1.1,0.2
			s0.6,0.3,0.8,0.6c0.2,0.2,0.4,0.6,0.5,0.9c0.1,0.4,0.2,0.7,0.2,1.2L115.7,432.5L115.7,432.5z M112.2,431.7c0.2,0,0.5,0,0.6-0.1
			s0.4-0.1,0.6-0.2s0.3-0.2,0.5-0.3c0.2-0.1,0.3-0.3,0.5-0.4v-1.6c-0.6,0-1.1,0-1.6,0.1s-0.8,0.2-1,0.3s-0.5,0.3-0.6,0.4
			s-0.2,0.4-0.2,0.6s0,0.4,0.1,0.5s0.2,0.3,0.3,0.4c0.1,0.1,0.2,0.2,0.4,0.2C111.9,431.7,112,431.7,112.2,431.7z"/>
		<path fill="#0086B5" d="M120,432.6c-0.6,0-1.1-0.2-1.4-0.5s-0.5-0.8-0.5-1.4V426h-0.9c-0.1,0-0.1,0-0.2-0.1
			c-0.1,0-0.1-0.1-0.1-0.2v-0.5l1.2-0.2l0.3-2.3c0-0.1,0-0.1,0.1-0.2c0.1,0,0.1-0.1,0.2-0.1h0.7v2.6h2.2v1h-2.2v4.6
			c0,0.3,0.1,0.6,0.2,0.7c0.2,0.2,0.4,0.2,0.6,0.2c0.1,0,0.3,0,0.4-0.1s0.2-0.1,0.3-0.1c0.1,0,0.1-0.1,0.2-0.1s0.1-0.1,0.1-0.1
			c0.1,0,0.1,0,0.2,0.1l0.4,0.6c-0.2,0.2-0.5,0.4-0.8,0.5C120.7,432.6,120.3,432.6,120,432.6z"/>
		<path fill="#0086B5" d="M125.1,422.5c0,0.1,0,0.3-0.1,0.4s-0.1,0.2-0.2,0.3c-0.1,0.1-0.2,0.2-0.3,0.2c-0.1,0-0.2,0.1-0.4,0.1
			s-0.3,0-0.4-0.1c-0.1,0-0.2-0.1-0.3-0.2c-0.1-0.1-0.2-0.2-0.2-0.3c0-0.1-0.1-0.2-0.1-0.4s0-0.3,0.1-0.4s0.1-0.2,0.2-0.3
			s0.2-0.2,0.3-0.2c0.1,0,0.2-0.1,0.4-0.1s0.3,0,0.4,0.1c0.1,0,0.2,0.1,0.3,0.2s0.2,0.2,0.2,0.3
			C125.1,422.3,125.1,422.4,125.1,422.5z M124.8,424.9v7.6h-1.3v-7.6H124.8z"/>
		<path fill="#0086B5" d="M130.2,424.8c0.6,0,1.1,0.1,1.5,0.3c0.4,0.2,0.8,0.4,1.1,0.8c0.3,0.3,0.6,0.8,0.7,1.2s0.3,1,0.3,1.6
			s-0.1,1.1-0.3,1.6s-0.4,0.9-0.7,1.2c-0.3,0.3-0.7,0.6-1.1,0.8c-0.4,0.2-0.9,0.3-1.5,0.3s-1.1-0.1-1.5-0.3
			c-0.4-0.2-0.8-0.4-1.1-0.8s-0.6-0.8-0.7-1.2c-0.2-0.5-0.3-1-0.3-1.6s0.1-1.1,0.3-1.6s0.4-0.9,0.7-1.2s0.7-0.6,1.1-0.8
			C129.2,424.9,129.7,424.8,130.2,424.8z M130.2,431.6c0.8,0,1.3-0.3,1.7-0.8s0.6-1.2,0.6-2.1s-0.2-1.6-0.6-2.1
			c-0.4-0.5-0.9-0.8-1.7-0.8c-0.4,0-0.7,0.1-1,0.2s-0.5,0.3-0.7,0.6s-0.3,0.5-0.4,0.9c-0.1,0.4-0.1,0.8-0.1,1.2s0,0.9,0.1,1.2
			c0.1,0.4,0.2,0.7,0.4,0.9c0.2,0.2,0.4,0.4,0.7,0.6C129.5,431.5,129.8,431.6,130.2,431.6z"/>
		<path fill="#0086B5" d="M135.5,432.5v-7.6h0.8c0.2,0,0.3,0.1,0.4,0.3l0.1,0.8c0.3-0.4,0.7-0.7,1.1-0.9c0.4-0.2,0.9-0.3,1.4-0.3
			c0.4,0,0.8,0.1,1.1,0.2s0.6,0.3,0.8,0.6c0.2,0.3,0.4,0.6,0.5,0.9c0.1,0.4,0.2,0.7,0.2,1.2v4.8h-1.3v-4.8c0-0.6-0.1-1-0.4-1.3
			c-0.3-0.3-0.7-0.5-1.2-0.5c-0.4,0-0.8,0.1-1.1,0.3c-0.3,0.2-0.7,0.4-0.9,0.8v5.6h-1.5V432.5z"/>
		<path fill="#0086B5" d="M148.2,426.1c-0.1,0.1-0.2,0.2-0.3,0.2s-0.2,0-0.3-0.1s-0.2-0.1-0.3-0.2s-0.3-0.1-0.5-0.2
			s-0.4-0.1-0.7-0.1c-0.2,0-0.4,0-0.6,0.1s-0.3,0.1-0.5,0.2s-0.2,0.2-0.3,0.3s-0.1,0.3-0.1,0.4c0,0.2,0.1,0.4,0.2,0.5
			c0.1,0.1,0.3,0.2,0.4,0.3c0.2,0.1,0.4,0.2,0.6,0.3c0.2,0.1,0.5,0.1,0.7,0.2s0.5,0.2,0.7,0.3c0.2,0.1,0.4,0.2,0.6,0.4
			c0.2,0.2,0.3,0.3,0.4,0.6c0.1,0.2,0.2,0.5,0.2,0.8c0,0.4-0.1,0.7-0.2,1c-0.1,0.3-0.3,0.6-0.6,0.8s-0.5,0.4-0.9,0.5
			s-0.8,0.2-1.2,0.2c-0.5,0-1-0.1-1.4-0.3c-0.4-0.2-0.8-0.4-1.1-0.7l0.3-0.5c0-0.1,0.1-0.1,0.1-0.2c0.1,0,0.1-0.1,0.2-0.1
			c0.1,0,0.2,0,0.3,0.1s0.2,0.1,0.4,0.2c0.1,0.1,0.3,0.2,0.5,0.2c0.2,0.1,0.5,0.1,0.8,0.1s0.5,0,0.7-0.1s0.4-0.2,0.5-0.3
			c0.1-0.1,0.2-0.2,0.3-0.4c0.1-0.2,0.1-0.3,0.1-0.5s-0.1-0.4-0.2-0.5c-0.1-0.1-0.3-0.3-0.4-0.4c-0.2-0.1-0.4-0.2-0.6-0.3
			c-0.2-0.1-0.5-0.1-0.7-0.2s-0.5-0.2-0.7-0.3c-0.2-0.1-0.4-0.2-0.6-0.4c-0.2-0.2-0.3-0.3-0.4-0.6c-0.1-0.2-0.2-0.5-0.2-0.8
			s0.1-0.6,0.2-0.8c0.1-0.3,0.3-0.5,0.5-0.7s0.5-0.4,0.8-0.5s0.7-0.2,1.1-0.2c0.5,0,0.9,0.1,1.3,0.2s0.7,0.4,1,0.6L148.2,426.1z"/>
		<path fill="#0086B5" d="M156.4,432.5V426l-0.8-0.1c-0.1,0-0.2-0.1-0.3-0.1c-0.1-0.1-0.1-0.1-0.1-0.2V425h1.2v-0.7
			c0-0.4,0.1-0.8,0.2-1.2c0.1-0.3,0.3-0.6,0.5-0.9s0.5-0.4,0.8-0.5s0.7-0.2,1.1-0.2c0.3,0,0.7,0.1,0.9,0.2v0.7c0,0.1,0,0.2-0.1,0.2
			s-0.2,0-0.3,0h-0.2c-0.2,0-0.4,0-0.6,0.1c-0.2,0.1-0.3,0.2-0.5,0.3c-0.1,0.1-0.2,0.3-0.3,0.5s-0.1,0.5-0.1,0.8v0.7h2.2v1h-2.2v6.5
			H156.4z"/>
		<path fill="#0086B5" d="M164.2,424.8c0.6,0,1.1,0.1,1.5,0.3c0.4,0.2,0.8,0.4,1.1,0.8c0.3,0.3,0.6,0.8,0.7,1.2
			c0.2,0.5,0.3,1,0.3,1.6s-0.1,1.1-0.3,1.6s-0.4,0.9-0.7,1.2c-0.3,0.3-0.7,0.6-1.1,0.8s-0.9,0.3-1.5,0.3s-1.1-0.1-1.5-0.3
			c-0.4-0.2-0.8-0.4-1.1-0.8s-0.6-0.8-0.7-1.2c-0.2-0.5-0.3-1-0.3-1.6s0.1-1.1,0.3-1.6s0.4-0.9,0.7-1.2s0.7-0.6,1.1-0.8
			C163.2,424.9,163.7,424.8,164.2,424.8z M164.2,431.6c0.8,0,1.3-0.3,1.7-0.8s0.6-1.2,0.6-2.1s-0.2-1.6-0.6-2.1
			c-0.4-0.5-0.9-0.8-1.7-0.8c-0.4,0-0.7,0.1-1,0.2s-0.5,0.3-0.7,0.6s-0.3,0.5-0.4,0.9c-0.1,0.4-0.1,0.8-0.1,1.2s0,0.9,0.1,1.2
			c0.1,0.4,0.2,0.7,0.4,0.9c0.2,0.2,0.4,0.4,0.7,0.6C163.5,431.5,163.9,431.6,164.2,431.6z"/>
		<path fill="#0086B5" d="M169.5,432.5v-7.6h0.8c0.1,0,0.2,0,0.3,0.1s0.1,0.1,0.1,0.3l0.1,1.2c0.3-0.5,0.6-0.9,1-1.2
			s0.8-0.4,1.3-0.4c0.2,0,0.4,0,0.6,0.1s0.3,0.1,0.5,0.2l-0.2,1c0,0.1-0.1,0.2-0.2,0.2c-0.1,0-0.2,0-0.3-0.1c-0.1,0-0.3-0.1-0.6-0.1
			c-0.5,0-0.9,0.1-1.2,0.4s-0.6,0.7-0.8,1.2v4.8h-1.4V432.5z"/>
		<path fill="#0086B5" d="M181.3,432.5v-11h1.3v4.5c0.3-0.3,0.7-0.6,1.1-0.8c0.4-0.2,0.9-0.3,1.4-0.3c0.4,0,0.8,0.1,1.1,0.2
			s0.6,0.3,0.8,0.6c0.2,0.3,0.4,0.6,0.5,0.9c0.1,0.4,0.2,0.7,0.2,1.2v4.8h-1.3v-4.8c0-0.6-0.1-1-0.4-1.3c-0.3-0.3-0.7-0.5-1.2-0.5
			c-0.4,0-0.8,0.1-1.1,0.3c-0.3,0.2-0.7,0.4-0.9,0.8v5.6h-1.5V432.5z"/>
		<path fill="#0086B5" d="M192.7,424.8c0.5,0,0.9,0.1,1.3,0.2c0.4,0.2,0.7,0.4,1,0.7c0.3,0.3,0.5,0.6,0.7,1.1
			c0.2,0.4,0.2,0.9,0.2,1.4c0,0.2,0,0.4-0.1,0.4c0,0.1-0.1,0.1-0.3,0.1h-5.1c0,0.5,0.1,0.9,0.2,1.3c0.1,0.4,0.3,0.7,0.5,0.9
			c0.2,0.2,0.5,0.4,0.8,0.5s0.6,0.2,1,0.2c0.3,0,0.6,0,0.9-0.1c0.2-0.1,0.5-0.2,0.6-0.3s0.3-0.2,0.4-0.3c0.1-0.1,0.2-0.1,0.3-0.1
			s0.2,0,0.3,0.1l0.4,0.5c-0.2,0.2-0.4,0.4-0.6,0.5c-0.2,0.1-0.5,0.3-0.7,0.4c-0.3,0.1-0.5,0.2-0.8,0.2s-0.6,0.1-0.8,0.1
			c-0.5,0-1-0.1-1.5-0.3c-0.4-0.2-0.8-0.4-1.1-0.8c-0.3-0.3-0.6-0.8-0.8-1.3s-0.3-1.1-0.3-1.7c0-0.5,0.1-1,0.2-1.5
			c0.2-0.5,0.4-0.9,0.7-1.2c0.3-0.3,0.7-0.6,1.1-0.8S192.1,424.8,192.7,424.8z M192.7,425.8c-0.6,0-1.2,0.2-1.5,0.6
			c-0.4,0.4-0.6,0.9-0.7,1.5h4.1c0-0.3,0-0.6-0.1-0.9s-0.2-0.5-0.4-0.7s-0.4-0.3-0.6-0.4C193.3,425.8,193,425.8,192.7,425.8z"/>
		<path fill="#0086B5" d="M203.1,432.5h-0.6c-0.1,0-0.2,0-0.3-0.1s-0.1-0.1-0.2-0.3l-0.2-0.7c-0.2,0.2-0.4,0.3-0.6,0.5
			c-0.2,0.1-0.4,0.3-0.6,0.4c-0.2,0.1-0.4,0.2-0.7,0.2c-0.2,0-0.5,0.1-0.8,0.1s-0.6,0-0.8-0.1c-0.3-0.1-0.5-0.2-0.7-0.4
			c-0.2-0.2-0.3-0.4-0.5-0.6c-0.1-0.3-0.2-0.6-0.2-0.9s0.1-0.6,0.2-0.9s0.4-0.5,0.8-0.7s0.8-0.4,1.4-0.5c0.6-0.1,1.3-0.2,2.2-0.2
			v-0.6c0-0.6-0.1-1-0.4-1.3c-0.3-0.3-0.6-0.5-1.1-0.5c-0.3,0-0.6,0-0.8,0.1s-0.4,0.2-0.6,0.3s-0.3,0.2-0.4,0.3
			c-0.1,0.1-0.2,0.1-0.3,0.1s-0.2,0-0.2-0.1c-0.1,0-0.1-0.1-0.2-0.2l-0.2-0.4c0.4-0.4,0.9-0.7,1.4-0.9c0.5-0.2,1-0.3,1.6-0.3
			c0.4,0,0.8,0.1,1.1,0.2s0.6,0.3,0.8,0.6c0.2,0.2,0.4,0.6,0.5,0.9c0.1,0.4,0.2,0.7,0.2,1.2v4.8H203.1z M199.7,431.7
			c0.2,0,0.5,0,0.6-0.1c0.2,0,0.4-0.1,0.6-0.2c0.2-0.1,0.3-0.2,0.5-0.3s0.3-0.3,0.5-0.4v-1.6c-0.6,0-1.1,0-1.6,0.1
			c-0.4,0.1-0.8,0.2-1,0.3c-0.3,0.1-0.5,0.3-0.6,0.4c-0.1,0.2-0.2,0.4-0.2,0.6s0,0.4,0.1,0.5s0.2,0.3,0.3,0.4s0.2,0.2,0.4,0.2
			C199.3,431.7,199.5,431.7,199.7,431.7z"/>
		<path fill="#0086B5" d="M206.6,421.4v11h-1.3v-11H206.6z"/>
		<path fill="#0086B5" d="M211.3,432.6c-0.6,0-1.1-0.2-1.4-0.5c-0.3-0.3-0.5-0.8-0.5-1.4V426h-0.9c-0.1,0-0.1,0-0.2-0.1
			c-0.1,0-0.1-0.1-0.1-0.2v-0.5l1.2-0.2l0.3-2.3c0-0.1,0-0.1,0.1-0.2c0.1,0,0.1-0.1,0.2-0.1h0.7v2.6h2.2v1h-2.2v4.6
			c0,0.3,0.1,0.6,0.2,0.7c0.2,0.2,0.4,0.2,0.6,0.2c0.1,0,0.3,0,0.4-0.1s0.2-0.1,0.3-0.1s0.1-0.1,0.2-0.1c0.1,0,0.1-0.1,0.1-0.1
			c0.1,0,0.1,0,0.2,0.1l0.4,0.6c-0.2,0.2-0.5,0.4-0.8,0.5C212,432.6,211.6,432.6,211.3,432.6z"/>
		<path fill="#0086B5" d="M214.6,432.5v-11h1.3v4.5c0.3-0.3,0.7-0.6,1.1-0.8c0.4-0.2,0.8-0.3,1.4-0.3c0.4,0,0.8,0.1,1.1,0.2
			s0.6,0.3,0.8,0.6c0.2,0.3,0.4,0.6,0.5,0.9c0.1,0.4,0.2,0.7,0.2,1.2v4.8h-1.3v-4.8c0-0.6-0.1-1-0.4-1.3c-0.3-0.3-0.7-0.5-1.2-0.5
			c-0.4,0-0.8,0.1-1.1,0.3c-0.3,0.2-0.7,0.4-0.9,0.8v5.6h-1.5V432.5z"/>
		<path fill="#0086B5" d="M228.1,426.2c0,0.1-0.1,0.1-0.1,0.1s-0.1,0-0.2,0c-0.1,0-0.2,0-0.2-0.1c-0.1-0.1-0.2-0.1-0.3-0.2
			s-0.3-0.1-0.5-0.2s-0.4-0.1-0.7-0.1c-0.4,0-0.7,0.1-1,0.2s-0.5,0.3-0.7,0.6s-0.3,0.6-0.4,0.9c-0.1,0.4-0.1,0.8-0.1,1.2
			c0,0.5,0.1,0.9,0.2,1.2c0.1,0.4,0.3,0.7,0.4,0.9c0.2,0.2,0.4,0.4,0.7,0.6c0.3,0.1,0.6,0.2,0.9,0.2c0.3,0,0.6,0,0.8-0.1
			s0.4-0.2,0.5-0.3c0.1-0.1,0.3-0.2,0.3-0.3c0.1-0.1,0.2-0.1,0.3-0.1s0.2,0,0.3,0.1l0.4,0.5c-0.3,0.4-0.7,0.7-1.2,0.9
			s-1,0.3-1.6,0.3c-0.5,0-0.9-0.1-1.3-0.3c-0.4-0.2-0.8-0.4-1.1-0.8c-0.3-0.3-0.5-0.7-0.7-1.2s-0.3-1-0.3-1.7c0-0.6,0.1-1.1,0.2-1.6
			c0.2-0.5,0.4-0.9,0.7-1.2c0.3-0.3,0.7-0.6,1.1-0.8c0.4-0.2,1-0.3,1.5-0.3s1,0.1,1.4,0.3c0.4,0.2,0.8,0.4,1.1,0.7L228.1,426.2z"/>
		<path fill="#0086B5" d="M235.5,432.5h-0.6c-0.1,0-0.2,0-0.3-0.1s-0.1-0.1-0.2-0.3l-0.1-0.7c-0.2,0.2-0.4,0.3-0.6,0.5
			c-0.2,0.1-0.4,0.3-0.6,0.4c-0.2,0.1-0.4,0.2-0.7,0.2s-0.5,0.1-0.8,0.1s-0.6,0-0.8-0.1c-0.3-0.1-0.5-0.2-0.7-0.4
			c-0.2-0.2-0.3-0.4-0.5-0.6c-0.1-0.3-0.2-0.6-0.2-0.9s0.1-0.6,0.2-0.9s0.4-0.5,0.8-0.7c0.4-0.2,0.8-0.4,1.4-0.5
			c0.6-0.1,1.3-0.2,2.2-0.2v-0.6c0-0.6-0.1-1-0.4-1.3c-0.3-0.3-0.6-0.5-1.1-0.5c-0.3,0-0.6,0-0.8,0.1s-0.4,0.2-0.6,0.3
			c-0.2,0.1-0.3,0.2-0.4,0.3c-0.1,0.1-0.2,0.1-0.3,0.1s-0.2,0-0.2-0.1c-0.1,0-0.1-0.1-0.2-0.2l-0.2-0.4c0.4-0.4,0.9-0.7,1.4-0.9
			c0.5-0.2,1-0.3,1.6-0.3c0.4,0,0.8,0.1,1.1,0.2s0.6,0.3,0.8,0.6s0.4,0.6,0.5,0.9c0.1,0.4,0.2,0.7,0.2,1.2v4.8H235.5z M232,431.7
			c0.2,0,0.5,0,0.6-0.1c0.2,0,0.4-0.1,0.6-0.2c0.2-0.1,0.3-0.2,0.5-0.3c0.2-0.1,0.3-0.3,0.5-0.4v-1.6c-0.6,0-1.1,0-1.6,0.1
			c-0.4,0.1-0.8,0.2-1,0.3c-0.3,0.1-0.5,0.3-0.6,0.4c-0.1,0.2-0.2,0.4-0.2,0.6s0,0.4,0.1,0.5s0.2,0.3,0.3,0.4s0.2,0.2,0.4,0.2
			C231.7,431.7,231.9,431.7,232,431.7z"/>
		<path fill="#0086B5" d="M237.5,432.5v-7.6h0.8c0.1,0,0.2,0,0.3,0.1s0.1,0.1,0.1,0.3l0.1,1.2c0.3-0.5,0.6-0.9,1-1.2
			c0.4-0.3,0.8-0.4,1.3-0.4c0.2,0,0.4,0,0.6,0.1c0.2,0,0.3,0.1,0.5,0.2l-0.2,1c0,0.1-0.1,0.2-0.2,0.2c-0.1,0-0.2,0-0.3-0.1
			c-0.1,0-0.3-0.1-0.6-0.1c-0.5,0-0.9,0.1-1.2,0.4s-0.6,0.7-0.8,1.2v4.8h-1.4V432.5z"/>
		<path fill="#0086B5" d="M246.6,424.8c0.5,0,0.9,0.1,1.3,0.2c0.4,0.2,0.7,0.4,1,0.7c0.3,0.3,0.5,0.6,0.7,1.1
			c0.2,0.4,0.2,0.9,0.2,1.4c0,0.2,0,0.4-0.1,0.4c0,0.1-0.1,0.1-0.3,0.1h-5.1c0,0.5,0.1,0.9,0.2,1.3c0.1,0.4,0.3,0.7,0.5,0.9
			c0.2,0.2,0.5,0.4,0.8,0.5s0.6,0.2,1,0.2c0.3,0,0.6,0,0.9-0.1c0.2-0.1,0.5-0.2,0.6-0.3s0.3-0.2,0.4-0.3c0.1-0.1,0.2-0.1,0.3-0.1
			s0.2,0,0.3,0.1l0.4,0.5c-0.2,0.2-0.4,0.4-0.6,0.5c-0.2,0.1-0.5,0.3-0.7,0.4c-0.3,0.1-0.5,0.2-0.8,0.2s-0.6,0.1-0.8,0.1
			c-0.5,0-1-0.1-1.5-0.3s-0.8-0.4-1.1-0.8c-0.3-0.3-0.6-0.8-0.8-1.3s-0.3-1.1-0.3-1.7c0-0.5,0.1-1,0.2-1.5c0.2-0.5,0.4-0.9,0.7-1.2
			s0.7-0.6,1.1-0.8C245.5,424.9,246,424.8,246.6,424.8z M246.6,425.8c-0.6,0-1.2,0.2-1.5,0.6c-0.4,0.4-0.6,0.9-0.7,1.5h4.1
			c0-0.3,0-0.6-0.1-0.9s-0.2-0.5-0.4-0.7s-0.4-0.3-0.6-0.4S246.9,425.8,246.6,425.8z"/>
	</g>
</g>
<g id="Laag_17">
	<g>
		<path fill="#0086B5" d="M12.3,234.8c0,54.8,44.6,99.4,99.4,99.4c14.3,0,28-3,41-8.8c0.4-0.2,0.7-0.3,1.1-0.5
			c-13.2-9-24.3-20.8-32.5-34.6c-9.9-16.7-15.1-35.9-15.1-55.4c0-19.4,5.2-38.5,14.9-55.1c8.2-14,19.4-26,32.6-35
			c-13.1-6.1-27.5-9.3-42.1-9.3C56.9,135.4,12.3,180,12.3,234.8z"/>
		<path fill="#0086B5" d="M197.3,184.2c-8.3-13.9-19.9-25.7-33.6-34.2c-12.5,9.2-19.8,23.7-19.8,39.3s9,31.7,22.8,41.3
			c16.3,11.3,26.9,30.6,26.9,49.1c0,4.7-0.6,9.3-1.6,13.8c2.1-2.8,4-5.7,5.8-8.8c8.8-15.1,13.5-32.4,13.5-50
			C211,216.9,206.3,199.5,197.3,184.2z"/>
		<path opacity="0.8" fill="#0086B5" enable-background="new    " d="M173.5,310c5.6,0,10.2-4.6,10.2-10.2s-4.6-10.2-10.2-10.2
			c-5.6,0-10.2,4.6-10.2,10.2S167.9,310,173.5,310z"/>
		<path opacity="0.8" fill="#0086B5" enable-background="new    " d="M129.5,228.3c5.6,0,10.1-4.5,10.1-10.1s-4.5-10.1-10.1-10.1
			s-10.1,4.5-10.1,10.1S123.9,228.3,129.5,228.3z"/>
		<path opacity="0.8" fill="#0086B5" enable-background="new    " d="M137,261.4c-5.5,0-10,4.5-10,10s4.5,10,10,10s10-4.5,10-10
			S142.5,261.4,137,261.4z"/>
		<path opacity="0.4" fill="#0086B5" enable-background="new    " d="M148.9,255.6c4.2,0,7.7-3.4,7.7-7.7s-3.4-7.7-7.7-7.7
			s-7.7,3.4-7.7,7.7S144.7,255.6,148.9,255.6z"/>
		<path fill="#0086B5" d="M167.9,283.4c7.3,0,13.3-6,13.3-13.3s-6-13.3-13.3-13.3s-13.3,6-13.3,13.3
			C154.6,277.4,160.6,283.4,167.9,283.4z"/>
		<path opacity="0.2" fill="#0086B5" enable-background="new    " d="M130.6,185c-3.6,0-6.4,2.9-6.4,6.4c0,3.6,2.9,6.4,6.4,6.4
			c3.6,0,6.4-2.9,6.4-6.4S134.1,185,130.6,185z"/>
		<path opacity="0.2" fill="#0086B5" enable-background="new    " d="M149.5,301.1c3.3,0,6-2.7,6-6s-2.7-6-6-6s-6,2.7-6,6
			C143.4,298.4,146.1,301.1,149.5,301.1z"/>
		<path opacity="0.2" fill="#0086B5" enable-background="new    " d="M126.3,252c3.6,0,6.5-3,6.5-6.5c0-3.6-3-6.5-6.5-6.5
			s-6.5,3-6.5,6.5C119.7,249.1,122.7,252,126.3,252z"/>
		<path fill="#0086B5" d="M267.4,222.9c8.9,0,16.2-7.2,16.2-16.2c0-8.9-7.2-16.2-16.2-16.2s-16.2,7.2-16.2,16.2
			C251.3,215.6,258.5,222.9,267.4,222.9z"/>
		<path fill="#0086B5" d="M277,229c-9.1,0-16.4,7.4-16.4,16.4s7.4,16.4,16.4,16.4c9.1,0,16.4-7.4,16.4-16.4S286.1,229,277,229z"/>
		<path fill="#0086B5" d="M227.2,266.9c-9.2,0-16.7,7.5-16.7,16.7s7.5,16.7,16.7,16.7s16.7-7.5,16.7-16.7S236.5,266.9,227.2,266.9z"
			/>
		<path opacity="0.8" fill="#0086B5" enable-background="new    " d="M256.2,177.2c0-6.5-5.3-11.8-11.8-11.8s-11.8,5.3-11.8,11.8
			s5.3,11.8,11.8,11.8C251,188.9,256.2,183.7,256.2,177.2z"/>
		<path opacity="0.4" fill="#0086B5" enable-background="new    " d="M258.2,280.7c5.2,0,9.4-4.2,9.4-9.4c0-5.2-4.2-9.4-9.4-9.4
			c-5.2,0-9.4,4.2-9.4,9.4C248.8,276.5,253,280.7,258.2,280.7z"/>
		<path fill="#0086B5" d="M209.4,173.1c10.3,0,18.7-8.4,18.7-18.7s-8.4-18.7-18.7-18.7s-18.7,8.4-18.7,18.7
			C190.6,164.7,199,173.1,209.4,173.1z"/>
		<path fill="#0086B5" d="M235.8,258c8,0,14.5-6.5,14.5-14.5s-6.5-14.5-14.5-14.5s-14.5,6.5-14.5,14.5S227.8,258,235.8,258z"/>
		<path fill="#0086B5" d="M272.2,176.4c5.8,0,10.4-4.7,10.4-10.4c0-5.8-4.7-10.4-10.4-10.4c-5.8,0-10.4,4.7-10.4,10.4
			C261.7,171.7,266.4,176.4,272.2,176.4z"/>
		<path fill="#0086B5" d="M287.8,273.2c-5.9,0-10.8,4.9-10.8,10.8s4.9,10.8,10.8,10.8s10.8-4.9,10.8-10.8
			C298.6,278,293.7,273.2,287.8,273.2z"/>
		<path opacity="0.8" fill="#0086B5" enable-background="new    " d="M218.9,309.2c-6.7,0-12.1,5.4-12.1,12.1s5.4,12.1,12.1,12.1
			c6.7,0,12.1-5.4,12.1-12.1S225.6,309.2,218.9,309.2z"/>
		<path opacity="0.8" fill="#0086B5" enable-background="new    " d="M258.2,293.2c-6.9,0-12.5,5.6-12.5,12.5s5.6,12.5,12.5,12.5
			s12.5-5.6,12.5-12.5S265.1,293.2,258.2,293.2z"/>
		<path opacity="0.8" fill="#0086B5" enable-background="new    " d="M301.8,230.2c6.5,0,11.8-5.3,11.8-11.8s-5.3-11.8-11.8-11.8
			s-11.8,5.3-11.8,11.8C290.1,224.9,295.3,230.2,301.8,230.2z"/>
		<path opacity="0.6" fill="#0086B5" enable-background="new    " d="M242.8,208.9c0-5.5-4.5-10.1-10.1-10.1
			c-5.5,0-10.1,4.5-10.1,10.1c0,5.5,4.5,10.1,10.1,10.1S242.8,214.5,242.8,208.9z"/>
		<path opacity="0.4" fill="#0086B5" enable-background="new    " d="M188,314.7c-0.1,0-0.2,0-0.3,0c-1.7,0-3.3,0.6-4.6,1.5
			c-1,0.7-1.7,1.6-2.3,2.7c-0.4,0.7-0.7,1.6-0.8,2.5c-0.1,0.3-0.1,0.7-0.1,1.1c0,4.3,3.5,7.7,7.7,7.7c4.3,0,7.7-3.5,7.7-7.7
			C195.4,318.2,192.1,314.9,188,314.7z"/>
		<path opacity="0.2" fill="#0086B5" enable-background="new    " d="M202.6,309.7c3.4,0,6.2-2.7,6.2-6.2s-2.7-6.2-6.2-6.2
			s-6.2,2.7-6.2,6.2C196.5,306.9,199.3,309.7,202.6,309.7z"/>
		<path opacity="0.2" fill="#0086B5" enable-background="new    " d="M292.4,198.6c3.7,0,6.7-3,6.7-6.7s-3-6.7-6.7-6.7
			s-6.7,3-6.7,6.7C285.7,195.6,288.7,198.6,292.4,198.6z"/>
		<path opacity="0.2" fill="#0086B5" enable-background="new    " d="M218.9,192.7c3.7,0,6.7-3,6.7-6.7s-3-6.7-6.7-6.7
			s-6.7,3-6.7,6.7S215.2,192.7,218.9,192.7z"/>
		<path opacity="0.2" fill="#0086B5" enable-background="new    " d="M181,153.4c3,0,5.3-2.4,5.3-5.3c0-3-2.4-5.3-5.3-5.3
			c-2.9,0-5.3,2.4-5.3,5.3S178.1,153.4,181,153.4z"/>
		<path opacity="0.2" fill="#0086B5" enable-background="new    " d="M303.7,262.9c3.7,0,6.7-3,6.7-6.7c0-3.7-3-6.7-6.7-6.7
			s-6.7,3-6.7,6.7C297.1,259.9,300,262.9,303.7,262.9z"/>
		<path opacity="0.2" fill="#0086B5" enable-background="new    " d="M246.4,153.9c3.8,0,6.9-3.1,6.9-6.9c0-3.8-3.1-6.9-6.9-6.9
			c-3.8,0-6.9,3.1-6.9,6.9C239.5,150.8,242.6,153.9,246.4,153.9z"/>
	</g>
</g>
</svg>
