<?xml version="1.0" standalone="no"?>
<!DOCTYPE svg PUBLIC "-//W3C//DTD SVG 20010904//EN"
 "http://www.w3.org/TR/2001/REC-SVG-20010904/DTD/svg10.dtd">
<svg version="1.0" xmlns="http://www.w3.org/2000/svg"
 width="900.000000pt" height="1194.000000pt" viewBox="0 0 900.000000 1194.000000"
 preserveAspectRatio="xMidYMid meet">
<metadata>
Created by potrace 1.12, written by Peter Selinger 2001-2015
</metadata>
<g transform="translate(0.000000,1194.000000) scale(0.100000,-0.100000)"
fill="#000000" stroke="none">
<path d="M4643 11419 l-10 -10 5 -49 5 -50 -11 0 -11 0 -3 28 -3 27 -21 3 -22
3 -16 -17 -17 -16 -13 17 -13 18 -30 -6 -31 -6 -18 20 -19 21 -61 -4 -60 -4
-42 -34 -42 -35 0 -41 0 -42 16 -6 16 -6 43 0 43 0 12 -15 13 -16 17 16 17 15
16 0 16 0 6 -10 6 -10 13 0 13 0 27 25 27 25 20 0 19 0 0 -25 0 -25 13 0 13 0
12 12 11 11 32 -1 33 -1 13 17 13 17 26 -30 27 -29 62 -4 62 -4 26 26 27 27 0
32 0 33 -12 12 -12 12 -18 0 -18 0 0 21 0 21 18 -4 18 -5 -4 28 -4 29 -28 0
-28 0 -12 -14 -12 -15 -61 0 -62 1 -16 14 -15 14 -11 -11z m166 -77 l9 -18 26
-14 26 -13 0 -9 0 -9 -15 -15 -15 -15 -10 6 -10 6 5 10 6 9 -30 30 -29 30 -16
0 -16 0 0 10 0 10 30 0 29 0 10 -18z m-479 -42 l0 -20 -25 0 -25 0 -7 -2 -8
-3 -3 23 -3 22 35 0 36 0 0 -20z m120 -5 l0 -25 -4 0 -4 0 -16 6 -15 6 12 19
12 19 7 0 8 0 0 -25z m330 -15 l0 -10 -20 0 -20 0 0 10 0 10 20 0 20 0 0 -10z"/>
<path d="M3975 11390 l-6 -10 2 -44 3 -43 -22 -23 -22 -24 0 51 0 51 -13 10
-13 11 -10 -7 -10 -7 -1 -56 -1 -56 28 -22 29 -21 65 0 64 0 6 17 7 16 -13 9
-13 8 -17 0 -17 0 -3 72 -3 73 -17 3 -16 3 -7 -11z"/>
<path d="M3260 11372 l0 -10 -36 -37 -35 -37 5 -14 5 -14 17 0 17 0 38 -17 38
-18 1 -6 0 -5 -72 0 -73 1 0 -20 0 -20 30 -3 30 -3 23 -11 23 -12 28 17 27 16
23 -22 22 -22 9 15 10 15 0 18 0 17 10 0 11 0 5 -15 6 -15 39 0 39 0 0 15 0
15 24 0 24 0 12 -15 12 -15 46 0 45 0 19 16 18 17 6 -17 6 -16 13 0 14 0 6 20
6 20 38 -6 37 -6 16 24 16 25 7 46 7 47 -12 15 -13 15 -14 -12 -14 -11 3 -33
2 -33 -7 -7 -7 -7 0 40 0 41 -15 12 -14 12 -12 -7 -11 -8 5 -38 5 -39 -7 0 -7
0 -12 33 -13 32 -14 -19 -15 -20 0 -12 0 -13 -32 30 -32 29 -43 0 -43 0 0 -15
0 -15 -9 0 -9 0 -6 16 -6 17 -19 -17 -18 -17 -13 16 -12 15 -9 -6 -9 -5 0 -30
0 -29 -9 0 -8 0 -7 31 -6 31 -17 -4 -18 -3 -3 -27 -3 -27 -14 -11 -13 -11 -26
24 -26 24 0 12 0 11 20 0 20 0 0 25 0 25 -12 0 -13 0 -22 6 -23 6 0 -10z m377
-88 l6 -16 19 -7 19 -7 -30 -22 -30 -22 -15 6 -16 6 0 33 0 33 13 5 12 5 8 1
8 1 6 -16z m-107 -8 l0 -15 -10 -6 -10 -6 0 5 0 4 -6 16 -6 16 16 0 16 0 0
-14z"/>
<path d="M1964 11039 l-6 -11 -20 5 -20 6 -24 -24 -24 -24 0 -21 0 -20 -23 5
-23 6 -22 -45 -22 -46 -10 0 -10 0 0 29 0 30 -8 4 -7 5 -20 -17 -20 -17 -17
-34 -17 -35 -15 -37 -15 -38 -13 0 -14 0 -9 9 -10 8 -32 6 -32 6 -6 -8 -5 -9
-27 -7 -28 -7 -42 -34 -41 -34 -17 0 -17 0 12 -15 13 -16 -10 -10 -11 -11 -20
11 -21 11 -6 0 -6 0 6 -19 6 -19 -65 -4 -65 -4 -19 -17 -19 -17 -21 0 -22 0 0
-10 0 -10 -24 -6 -25 -6 -25 -36 -25 -37 -16 -36 -17 -36 -52 -16 -51 -16 -70
-6 -70 -6 -57 -26 -58 -27 0 -11 0 -12 22 -10 21 -9 -36 -23 -37 -23 0 -13 0
-14 -24 -18 -23 -19 -7 -22 -7 -22 13 -5 14 -6 30 16 29 15 21 0 20 0 10 9 9
9 40 7 40 6 73 9 74 10 18 -10 19 -10 163 -2 163 -3 85 23 85 22 45 1 45 1
160 -7 160 -7 170 -14 170 -14 37 -6 38 -6 25 6 25 6 0 13 0 12 -40 23 -39 22
-18 0 -19 0 -38 20 -38 19 -19 17 -19 17 -113 -14 -112 -14 -97 2 -97 2 -55
25 -54 25 -26 28 -26 28 0 20 1 20 44 33 44 32 6 0 6 0 33 25 33 25 12 0 12 0
54 26 55 25 17 22 18 22 41 32 41 32 41 62 42 62 10 38 10 37 15 29 15 28 0
38 0 37 -26 10 -25 10 -9 0 -9 0 -7 -11z"/>
<path d="M6856 10924 l-6 -15 -43 6 -43 7 -13 -16 -13 -16 -15 0 -15 0 -42
-32 -41 -32 -38 -40 -37 -41 -15 -32 -15 -31 0 -89 0 -88 14 -26 13 -25 7 -27
6 -27 10 0 10 0 0 -15 0 -14 13 -8 12 -8 17 -25 16 -25 46 -50 46 -50 0 -8 0
-9 30 -38 30 -38 0 -7 0 -8 37 -46 37 -46 6 -5 5 -5 18 -27 17 -27 0 -14 0
-15 15 -12 15 -12 0 -49 0 -49 20 -17 20 -17 0 -19 0 -18 -15 -5 -15 -6 0 -59
0 -59 15 0 15 0 0 40 0 41 15 5 15 6 0 59 0 59 -10 0 -10 0 0 18 1 17 13 -17
13 -18 12 0 11 0 0 22 0 21 17 19 17 18 -12 12 -12 12 0 22 0 22 -33 44 -33
43 -22 47 -22 48 -24 6 -24 6 -27 30 -28 31 -6 51 -6 51 -66 3 -67 3 -5 21 -6
21 22 17 21 17 -37 24 -37 24 0 6 0 6 36 6 36 6 20 18 20 18 14 0 14 0 0 10 1
10 -33 5 -33 6 -29 -10 -30 -9 -14 21 -14 22 -13 0 -13 0 -10 13 -11 13 13 25
12 25 -4 12 -4 13 14 12 15 12 11 40 12 40 40 19 40 19 0 8 0 8 -10 6 -10 6 0
7 0 7 33 18 32 17 34 6 33 7 24 22 24 22 -7 6 -6 7 -13 0 -12 0 -6 -16z m24
-801 l0 -8 6 -22 6 -23 -11 0 -11 0 0 14 0 14 -15 6 -15 5 0 11 0 10 20 0 20
0 0 -7z"/>
<path d="M6950 10895 l0 -15 15 0 15 0 0 15 0 15 -15 0 -15 0 0 -15z"/>
<path d="M6884 10859 l-19 -21 -1 -22 -1 -21 -4 -15 -4 -14 22 -10 22 -10 -5
-21 -5 -21 22 -28 22 -28 31 5 32 5 19 -14 19 -14 22 0 23 0 6 -10 6 -10 20 0
19 0 0 19 0 19 -15 12 -15 12 0 9 0 9 15 0 15 0 0 -20 0 -20 14 0 15 0 6 -10
6 -10 -21 -27 -21 -27 -46 -23 -46 -22 -70 -11 -69 -12 -19 -16 -18 -16 6 -9
5 -9 -12 -24 -13 -24 16 -18 17 -19 0 -16 0 -16 13 -13 12 -13 33 -41 32 -42
0 -21 0 -20 20 -11 20 -11 0 -11 0 -11 40 -53 40 -53 0 -5 0 -5 30 -44 30 -45
0 -10 0 -10 15 -6 15 -5 0 -30 0 -30 15 -15 15 -15 0 -14 0 -15 15 -12 15 -12
0 -30 0 -30 19 -5 19 -5 -5 -34 -6 -34 16 -23 15 -23 2 -65 2 -64 -1 -148 -1
-148 -17 -6 -18 -6 -16 -20 -16 -20 -12 7 -11 7 0 13 0 14 25 16 26 17 -6 18
-5 18 15 13 16 13 -22 24 -22 23 -19 0 -18 0 0 -24 0 -24 -16 -6 -16 -6 -9 6
-9 5 0 16 0 16 17 19 17 19 -13 9 -14 8 6 16 6 16 19 0 20 0 38 16 39 16 -33
27 -32 27 0 23 0 22 15 5 15 6 0 15 0 15 -42 -6 -43 -6 -36 -6 -37 -6 -6 11
-7 11 -15 0 -15 0 -8 -22 -9 -23 9 -17 10 -18 24 -6 25 -6 24 15 24 16 6 -6 6
-6 -12 -14 -11 -14 11 -11 12 -12 0 -13 0 -13 -24 0 -25 0 -5 -8 -5 -8 20 -17
19 -17 0 -14 0 -15 -11 -6 -10 -7 -19 17 -18 17 -12 -21 -11 -21 -14 0 -15 0
0 14 0 14 15 12 15 12 0 9 0 9 -31 0 -31 0 -24 23 -24 22 0 33 0 33 25 23 25
23 0 7 0 6 -17 20 -17 20 -14 0 -13 0 -25 -25 -25 -25 -12 0 -13 0 -22 -16
-22 -15 -153 -4 -152 -4 -32 -16 -33 -16 -5 -10 -6 -9 -34 0 -34 0 -17 -17
-16 -17 -34 1 -34 1 -13 -17 -12 -17 -65 0 -65 1 -12 8 -12 8 -11 -21 -11 -20
-59 0 -59 0 -13 -13 -13 -13 -17 -7 -18 -6 0 -10 0 -9 -25 -6 -25 -6 0 -10 0
-10 -12 0 -13 0 -20 -23 -21 -22 -32 -41 -32 -42 0 -10 0 -10 -16 -6 -16 -6 3
-42 3 -42 -12 -4 -12 -4 0 -16 0 -17 -31 -25 -30 -25 -21 -33 -20 -33 6 -22 5
-23 -20 -18 -21 -17 7 -182 6 -182 0 -25 0 -25 -9 -75 -8 -75 8 -110 7 -110
10 -20 9 -20 16 -45 16 -46 0 -16 0 -17 16 -15 15 -16 4 -20 4 -20 16 -16 15
-16 -5 -8 -5 -9 21 -50 22 -50 29 -10 28 -10 0 -10 0 -11 15 0 15 0 2 18 1 17
-2 19 -1 19 -17 12 -17 13 1 55 1 56 -14 12 -14 11 0 24 0 23 9 5 8 5 11 -24
12 -25 10 0 10 0 0 -33 0 -34 23 -21 23 -22 12 0 12 0 39 -35 39 -36 27 7 26
6 -7 111 -7 112 37 -40 36 -40 21 -41 20 -42 24 -26 25 -27 0 -35 0 -35 10
-20 11 -19 19 0 20 0 0 -19 0 -20 15 -15 15 -15 0 -10 0 -10 31 -23 30 -23 15
-35 16 -35 9 -15 9 -15 10 -22 10 -23 10 0 10 0 0 -14 0 -14 15 -12 15 -12 0
-17 0 -16 10 -15 9 -14 21 19 22 20 19 -3 19 -3 0 10 0 10 -10 6 -10 6 0 23 0
24 -15 12 -15 12 0 12 0 11 -45 52 -45 51 0 21 0 22 -14 32 -15 32 -35 39 -36
38 0 19 0 19 -9 0 -9 0 -5 20 -5 19 -36 22 -36 21 -27 54 -26 54 -9 0 -8 0 0
20 0 20 18 0 18 0 11 -11 11 -11 18 10 18 10 17 -22 18 -21 16 16 16 16 -21
42 -22 41 6 15 5 15 39 0 40 0 12 15 12 15 52 -3 51 -4 18 9 17 9 0 16 0 16
48 -8 47 -8 30 -1 29 -1 27 -40 28 -40 6 -34 6 -33 9 -17 9 -16 15 -65 15 -65
2 -217 2 -218 -15 -17 -15 -18 -6 -45 -6 -44 10 -51 10 -50 10 -33 11 -33 3
-85 4 -85 9 -12 9 -12 7 -70 7 -69 12 -15 12 -14 0 -96 0 -96 20 0 20 0 0 86
0 85 19 19 19 19 -8 80 -7 81 1 22 1 22 -10 6 -10 6 1 82 0 82 10 55 10 55 6
42 5 42 -16 32 -16 32 -5 170 -5 169 8 12 9 11 6 48 5 48 16 18 17 19 6 36 6
36 8 6 9 5 0 51 0 51 16 11 16 12 1 97 2 97 11 4 11 4 7 53 7 52 15 21 14 20
0 22 0 22 15 12 15 12 0 22 1 21 14 19 15 20 0 22 0 22 15 12 15 12 0 18 0 17
30 56 30 57 0 19 0 19 15 12 15 12 0 18 0 18 15 12 15 12 0 18 0 18 15 12 15
12 0 13 0 13 12 4 11 4 5 57 4 57 14 11 14 11 0 57 1 56 14 19 15 20 -1 223 0
224 -15 6 -14 5 0 33 0 33 -15 6 -15 5 0 41 0 41 -15 5 -15 6 0 29 0 30 -15 5
-15 6 0 24 0 25 -15 5 -15 6 0 24 0 25 -15 5 -15 6 0 13 0 13 -15 12 -15 12 0
17 0 17 -30 29 -30 29 0 12 0 12 -15 6 -15 5 -18 38 -17 38 -7 5 -6 5 -35 51
-34 52 -6 28 -5 28 5 13 5 14 37 15 36 16 114 9 115 9 10 10 10 10 218 0 219
0 5 -15 6 -15 43 0 43 0 6 -15 5 -15 40 0 40 0 6 11 7 10 -16 18 -16 18 0 11
0 12 -19 0 -19 0 -6 15 -5 15 -24 0 -25 0 -12 15 -12 15 -32 0 -31 1 -19 14
-20 15 -25 0 -26 1 -19 14 -20 15 -40 0 -41 1 -19 14 -20 15 -41 0 -41 0 -10
10 -10 10 -34 4 -34 4 -4 11 -4 11 -19 0 -19 0 -35 19 -35 18 -42 44 -42 43
-61 7 -60 7 -16 6 -15 7 -20 -22z m56 -144 l0 -15 -9 0 -10 0 -5 9 -5 8 6 7 6
6 9 0 8 0 0 -15z m295 -65 l19 -20 -11 -11 -10 -10 -26 10 -27 11 0 14 0 14
13 5 12 5 6 1 6 1 18 -20z m83 -12 l3 -18 -20 0 -21 0 0 4 0 4 -6 17 -7 17 24
-4 24 -3 3 -17z m-43 -68 l6 -10 -23 -9 -23 -9 -9 8 -8 8 6 11 7 11 19 0 19 0
6 -10z m-460 -1190 l15 0 0 10 0 10 15 0 15 0 0 -16 0 -15 34 -14 34 -14 26
-31 26 -32 0 -8 0 -9 -9 -5 -9 -6 -12 15 -13 16 -18 -17 -19 -17 12 -15 12
-14 -17 -13 -17 -12 0 -12 0 -11 -10 0 -10 0 0 -15 0 -14 30 6 30 6 0 -17 0
-16 19 0 19 0 12 -15 12 -14 19 12 19 11 11 -11 11 -11 -6 -11 -7 -11 -38 0
-39 0 -12 -15 -13 -15 -12 10 -12 10 5 25 4 25 -11 0 -11 0 -20 -20 -20 -20 0
-12 1 -13 14 -19 15 -20 0 -37 0 -37 -12 -6 -13 -5 18 -14 17 -14 0 -47 0 -47
-21 -29 -22 -29 -30 6 -30 6 5 -46 6 -47 -14 0 -14 0 -6 30 -6 30 -14 0 -14 0
-2 -12 -1 -13 -1 -30 -1 -30 -10 -3 -10 -3 -9 38 -9 38 -10 6 -10 7 6 15 5 14
55 7 55 7 6 15 5 14 22 0 21 0 -33 38 -34 39 -18 -21 -18 -21 -9 -22 -10 -23
-19 0 -20 0 -6 10 -6 9 13 20 12 20 -11 23 -12 23 1 28 1 29 -11 10 -10 10
-11 -21 -12 -21 10 -17 9 -17 -9 -18 -10 -18 6 -10 6 -9 -17 -32 -16 -33 18
-13 18 -13 -1 -35 -1 -34 -15 -16 -15 -15 -5 -12 -4 -13 -14 13 -14 13 18 14
18 13 -7 36 -6 36 -10 6 -9 6 -17 -7 -17 -6 23 -18 24 -17 -16 -13 -16 -13 -6
16 -6 16 -14 0 -14 0 0 -24 0 -25 -10 -6 -10 -6 0 -30 0 -29 -13 0 -13 0 -12
12 -12 12 0 17 0 17 -16 6 -16 6 -22 -6 -23 -5 -6 15 -6 16 -11 0 -11 0 6 -19
6 -20 -18 -9 -17 -10 14 -26 13 -26 14 0 13 0 0 10 0 10 21 0 20 0 -3 -22 -3
-23 -39 -10 -38 -9 -13 18 -13 18 -26 -17 -26 -17 6 -10 6 -10 36 7 35 6 8
-13 8 -13 -22 -17 -21 -16 18 -20 18 -21 -4 -18 -3 -18 -28 3 -27 3 0 -14 0
-15 21 -5 21 -6 -4 -13 -5 -13 -14 -3 -14 -2 -24 36 -25 36 -18 -24 -18 -23 0
-26 0 -25 -15 -20 -15 -19 -20 -44 -20 -44 0 -28 0 -28 -45 -48 -45 -48 0 -14
0 -13 18 7 17 7 18 5 17 5 0 11 0 11 21 22 21 23 14 -6 14 -5 -7 32 -6 33 14
-5 14 -5 10 -27 9 -27 -10 -7 -10 -7 -22 -46 -22 -45 -1 -25 -1 -24 -5 15 -4
15 -11 22 -11 23 -13 -18 -13 -17 -1 -21 0 -21 -25 5 -25 4 -6 -16 -6 -16 -9
0 -9 0 0 20 0 21 -15 5 -15 6 0 29 0 29 11 0 10 0 10 30 11 30 9 0 9 0 0 19 0
20 -9 5 -8 6 -27 -32 -26 -32 0 -17 0 -18 -10 -6 -10 -6 0 -44 0 -44 -21 -19
-20 -19 1 -19 0 -19 6 -46 6 -46 -17 -17 -17 -17 -3 3 -2 3 6 58 7 58 -13 11
-13 10 0 13 0 13 16 6 16 6 -7 39 -6 39 10 7 11 6 0 11 0 10 -15 -12 -14 -12
-12 7 -11 7 6 30 6 30 -10 19 -11 19 -13 0 -13 0 -12 -24 -13 -23 -2 -84 -3
-84 -2 -35 -1 -35 -9 14 -9 14 -1 108 -2 109 -5 15 -6 15 -13 0 -13 0 -6 16
-6 16 -29 -5 -29 -6 6 64 5 65 -14 16 -13 16 2 31 3 32 15 8 14 8 -6 10 -6 10
-24 -23 -24 -23 0 -27 0 -28 -21 0 -21 0 7 28 8 27 7 45 7 44 22 14 21 14 0
34 0 34 14 0 15 0 3 -22 3 -21 13 -5 12 -4 0 44 -1 43 -24 18 -25 18 -11 -28
-11 -28 -9 -17 -9 -18 0 -15 0 -15 -9 0 -9 0 -6 26 -7 26 21 40 20 39 -6 24
-6 25 -24 0 -24 0 0 54 0 55 10 6 10 6 0 34 0 34 20 11 20 11 0 15 0 15 15 5
15 6 0 22 0 22 30 17 30 18 0 11 0 10 43 42 42 43 18 6 17 6 0 20 0 20 -30 3
-30 3 41 48 41 47 23 0 23 0 6 15 5 15 19 0 20 0 11 14 11 14 93 4 93 4 24 17
24 17 17 0 17 0 4 12 4 12 37 -1 36 -1 11 14 12 13 19 -12 19 -11 12 12 12 12
37 0 37 0 6 15 5 15 36 0 35 0 0 -9 0 -10 -10 -6 -10 -6 0 -10 0 -9 15 0 15 0
0 10 0 10 22 0 21 0 19 16 18 17 16 -13 16 -14 8 13 8 13 19 -6 20 -6 14 16
13 16 8 -21 7 -21 16 0z m105 10 l0 -10 -15 0 -15 0 0 10 0 10 15 0 15 0 0
-10z m209 -159 l14 -9 -31 -31 -30 -31 -11 0 -11 0 0 34 0 35 18 4 17 5 10 1
10 1 14 -9z m61 -87 l0 -24 -24 -10 -24 -9 -5 -13 -5 -13 -1 33 -1 32 -1 8 -2
7 24 12 23 12 8 -5 8 -5 0 -25z m-94 -30 l-7 -17 -11 11 -11 11 7 17 7 17 11
-11 11 -11 -7 -17z m182 -43 l4 -22 -13 -15 -12 -15 -9 15 -9 15 7 26 6 26 12
-4 11 -4 3 -22z m-192 -53 l7 -11 -20 -17 -21 -16 -4 -20 -3 -19 -18 -3 -17
-3 0 26 0 26 15 5 15 6 0 19 0 19 19 0 20 0 7 -12z m148 -4 l16 -15 0 -13 0
-13 -21 -27 -21 -27 -14 12 -14 11 0 8 0 8 22 5 22 6 -18 20 -18 20 7 10 6 11
9 0 9 0 15 -16z m-276 -42 l3 -22 -14 0 -15 0 -11 13 -11 13 12 12 12 12 11
-3 10 -4 3 -21z m202 13 l12 -15 -16 -6 -16 -6 -15 12 -15 12 6 9 5 9 13 0 14
0 12 -15z m3 -93 l28 -29 -7 -16 -6 -17 -7 0 -6 1 -17 13 -18 13 0 10 0 11
-15 12 -15 12 0 9 0 9 18 0 18 0 27 -28z m-187 -6 l6 -24 -17 -32 -16 -31 -16
3 -16 3 -5 13 -4 13 22 6 22 6 -6 27 -5 28 6 6 6 6 8 0 9 0 6 -24z m60 -1 l6
-14 19 -6 19 -6 0 -15 0 -15 17 -25 17 -26 13 18 13 18 7 -7 6 -7 -13 -24 -13
-25 -15 -6 -14 -5 -24 25 -23 25 -11 0 -10 0 6 24 5 23 -15 6 -16 6 0 26 0 25
10 0 11 0 5 -15z m-47 -114 l10 -19 61 -18 60 -18 0 -13 0 -13 -12 -1 -13 -1
-20 2 -20 2 -9 9 -10 9 -13 0 -13 0 0 -14 0 -15 15 -15 15 -15 35 6 35 6 0
-10 0 -10 -19 -17 -20 -18 -32 -1 -33 -2 -14 28 -13 27 -15 0 -14 0 0 -14 0
-15 20 -6 20 -6 0 -15 0 -14 -20 -17 -20 -17 0 -19 0 -18 30 -26 30 -25 0 -18
0 -19 -10 -6 -10 -6 -24 25 -23 26 -7 0 -6 0 0 -19 0 -20 10 -6 10 -6 0 -15 0
-15 -22 3 -23 3 -3 25 -4 24 -24 29 -24 29 0 8 0 8 6 16 6 15 29 -6 29 -5 0
15 0 15 -17 7 -18 6 18 14 18 13 -6 25 -6 24 18 8 18 7 -23 9 -22 9 -9 22 -9
23 9 10 9 9 12 -12 12 -12 14 0 13 0 -6 20 -6 20 6 10 6 10 14 0 14 0 10 -19z
m-430 -145 l12 -14 -17 -6 -16 -6 -8 5 -9 6 6 14 5 15 8 0 8 0 11 -14z m136
-16 l29 -30 18 20 18 19 40 12 41 12 11 -11 11 -11 -11 -39 -12 -39 0 -25 0
-26 -13 -11 -14 -11 -6 7 -7 6 0 44 0 43 -30 0 -30 0 0 -11 0 -12 14 -11 15
-11 3 -50 3 -50 -15 0 -15 0 -9 53 -9 52 -15 0 -15 0 -19 -17 -18 -16 -7 7 -7
7 13 20 12 21 -16 34 -16 34 6 10 6 10 8 0 7 0 29 -30z m-139 -51 l6 -11 23 4
23 5 11 -36 11 -36 -30 -23 -30 -24 6 -9 6 -10 54 7 54 6 15 -12 15 -12 0 -21
0 -21 12 12 12 12 18 0 17 0 8 14 8 14 28 7 27 7 0 -11 0 -11 24 -21 24 -21
-4 -13 -5 -12 15 -6 16 -6 0 -11 0 -11 -27 3 -28 3 3 -16 2 -16 -16 -14 -16
-13 -13 17 -12 17 -17 0 -16 0 0 -35 0 -35 10 0 10 0 0 -19 0 -20 -11 -7 -12
-7 -9 18 -10 17 -33 -32 -34 -33 6 -29 6 -29 -28 13 -28 13 -5 -14 -4 -13 -19
-19 -18 -18 -22 6 -23 7 12 4 12 4 0 28 0 29 20 11 20 11 0 15 0 15 15 5 14 6
6 18 6 18 18 -5 19 -5 21 21 21 21 0 11 0 12 -30 -6 -30 -6 0 24 0 24 -20 6
-20 6 0 31 0 30 -32 -30 -31 -31 -9 5 -8 5 0 12 0 12 -18 11 -18 12 -13 40
-14 41 6 15 6 16 35 0 34 0 -11 25 -12 25 -17 0 -18 0 0 15 0 15 14 0 15 0 7
-11z m504 -3 l0 -14 -16 -6 -17 -6 -13 11 -14 11 6 9 5 9 25 0 24 0 0 -14z
m-566 -12 l16 -6 0 -13 0 -14 -11 -6 -10 -7 -20 18 -19 18 12 8 13 8 2 0 1 0
16 -6z m-57 -55 l12 -30 -14 -5 -13 -6 -26 17 -26 17 0 9 0 10 23 9 22 9 5 0
6 1 11 -31z m268 -29 l0 -15 -15 0 -15 0 -3 18 -4 19 19 -4 18 -3 0 -15z
m-298 -51 l6 -21 25 5 26 5 24 -9 25 -10 -19 -20 -18 -20 12 -8 13 -8 17 -34
17 -34 15 0 15 0 5 27 5 27 23 -13 23 -12 -25 -12 -26 -12 0 -34 0 -35 10 -6
10 -6 0 -20 0 -19 -12 0 -13 0 -27 14 -27 14 -30 7 -31 7 -5 9 -6 9 9 16 9 17
7 -12 7 -11 20 0 19 0 0 14 0 15 -11 7 -11 6 5 19 5 19 -5 0 -6 0 -12 -17 -13
-17 -16 13 -16 13 0 33 0 33 -7 4 -8 3 -24 27 -23 27 7 10 6 11 11 0 10 0 5
-21z m-19 -66 l4 -13 -17 -6 -16 -7 -11 11 -10 10 7 12 7 11 16 -3 15 -3 5
-12z m585 -9 l-5 -15 -15 12 -14 12 13 8 12 8 8 -5 7 -5 -6 -15z m-667 -46
l24 -23 0 -12 0 -13 20 0 20 0 0 15 0 15 14 0 15 0 7 -12 7 -11 -17 -13 -17
-12 13 -21 13 -21 18 0 18 0 -3 -17 -3 -18 -23 -3 -22 -3 0 19 0 20 -6 16 -6
16 -23 0 -24 0 -6 10 -6 10 -8 0 -9 0 -16 -35 -17 -35 -14 0 -15 0 0 -17 0
-17 -17 18 -18 18 13 5 12 5 0 18 0 19 10 6 10 6 -12 19 -12 19 24 26 23 25 5
0 4 0 24 -22z m611 -207 l1 -104 -14 -14 -14 -14 0 -59 0 -58 -14 -5 -15 -6
-3 -28 -3 -28 -15 0 -15 0 -3 65 -3 65 -10 10 -9 9 0 8 0 8 15 0 16 0 5 18 6
17 8 20 7 20 12 36 11 35 0 31 0 31 -15 12 -15 12 0 15 0 14 33 -3 32 -3 2
-104z m-409 66 l11 -13 -9 -14 -9 -14 -27 12 -27 13 19 14 19 14 6 1 7 0 10
-13z m-138 -34 l0 -12 -29 -15 -29 -15 -4 27 -4 28 33 0 33 -1 0 -12z m70 -8
l0 -25 -9 0 -10 0 -6 10 -7 11 6 14 5 15 11 0 10 0 0 -25z m394 9 l6 -16 0 -4
0 -4 -14 0 -15 0 -6 10 -6 10 6 10 6 10 9 0 8 0 6 -16z m-269 -5 l7 -10 -18
-20 -17 -19 -24 0 -23 0 0 12 0 11 18 18 17 18 17 0 17 1 6 -11z m-97 -51 l-5
-13 -21 -3 -22 -3 0 9 0 10 13 5 12 5 13 1 14 1 -4 -12z m-88 -13 l0 -15 -15
0 -15 0 0 15 0 15 15 0 15 0 0 -15z m-105 -29 l0 -29 -16 -10 -16 -10 -18 7
-18 6 17 18 16 19 0 17 0 17 18 -3 17 -3 0 -29z m528 -23 l7 -7 -22 -23 -21
-23 -8 0 -7 0 11 30 11 30 12 0 11 0 6 -7z m-1097 -224 l14 -26 2 -34 3 -34
-15 0 -15 0 -3 25 -4 25 -14 8 -14 8 0 29 0 29 -10 6 -10 6 0 19 0 18 15 6 15
5 1 23 2 23 9 -55 9 -55 15 -26z m1068 19 l6 -28 -14 0 -15 0 -4 8 -5 7 5 28
6 28 7 -8 7 -8 7 -27z m-814 -127 l0 -20 -8 -5 -8 -5 -14 9 -14 8 13 16 13 16
9 0 9 0 0 -19z"/>
<path d="M6710 9366 l0 -13 -29 -6 -30 -6 -3 -53 -3 -53 -27 -3 -28 -3 0 -14
0 -13 15 -6 15 -5 0 -41 0 -40 15 0 15 0 0 40 0 40 8 0 7 -1 25 -20 25 -21
-17 -12 -16 -11 -3 -20 -4 -20 -28 -3 -27 -3 0 -8 0 -8 19 -17 19 -17 22 13
21 13 6 27 5 28 14 11 14 11 0 24 0 23 -30 21 -30 21 0 34 0 33 15 6 15 5 0
25 0 24 15 6 15 5 0 11 0 10 -15 0 -15 0 0 -14z"/>
<path d="M6796 9329 l-26 -20 0 -40 0 -39 10 0 11 0 5 15 6 15 42 0 43 0 11
25 12 26 0 5 0 5 -19 -6 -20 -6 -11 21 -11 20 -13 0 -13 0 -27 -21z"/>
<path d="M6712 9266 l3 -27 10 1 10 0 0 22 0 21 -13 5 -14 4 4 -26z"/>
<path d="M6034 9203 l-27 -33 -24 0 -23 0 0 -14 0 -14 18 -4 17 -5 13 4 12 5
0 14 0 14 10 0 9 0 8 -14 8 -14 25 -4 25 -3 -3 -19 -3 -18 22 -24 22 -24 12 0
12 0 36 37 37 36 0 27 0 26 -12 12 -12 12 -17 0 -17 0 -5 20 -5 20 -56 -3 -55
-2 -27 -32z"/>
<path d="M6807 9193 l-7 -6 0 -9 0 -8 15 0 15 0 0 15 0 15 -8 0 -9 0 -6 -7z"/>
<path d="M6530 9140 l0 -30 25 0 25 0 0 13 -1 12 -13 18 -13 17 -12 0 -11 0 0
-30z"/>
<path d="M6774 9156 l-5 -14 3 -28 3 -27 12 -4 12 -4 -1 41 0 40 -9 6 -9 5 -6
-15z"/>
<path d="M6791 9053 l-14 -16 10 -16 11 -17 -19 -23 -18 -23 -11 7 -10 6 0 39
0 38 -14 5 -14 6 -5 -5 -5 -5 5 -42 5 -42 20 -42 20 -43 9 0 9 0 0 34 0 35 11
6 10 7 18 -16 18 -16 11 0 12 0 0 15 0 15 -15 0 -15 0 0 6 0 5 10 18 9 18 -8
28 -7 29 -10 2 -9 3 -14 -16z"/>
<path d="M6530 9036 l0 -14 -16 -6 -15 -6 3 -27 3 -28 27 3 27 3 3 -43 3 -43
23 -3 22 -3 0 7 0 7 -16 18 -16 17 21 12 21 11 0 22 0 23 -20 17 -20 17 -10 0
-10 0 0 -16 0 -16 -12 4 -12 4 -4 12 -4 12 16 0 16 0 0 15 0 15 -15 0 -15 0 0
-14z"/>
<path d="M6082 8948 l3 -73 -18 -3 -17 -3 0 23 -1 23 -18 23 -19 22 -11 0 -11
0 0 -15 0 -15 -10 0 -11 0 -5 15 -6 15 -14 0 -14 0 0 -39 0 -39 -6 -16 -6 -15
36 -23 36 -23 0 -11 0 -12 -16 -6 -16 -6 -28 30 -29 31 -3 47 -3 47 -15 0 -15
0 4 -55 3 -55 10 -6 9 -6 -3 -34 -3 -34 -22 -10 -23 -10 0 -12 0 -13 -32 2
-33 3 0 -20 0 -20 93 4 92 3 0 -10 0 -10 -16 -12 -15 -13 3 -34 3 -33 10 -1
10 0 3 23 4 23 14 8 14 8 0 24 0 25 15 0 15 0 0 -48 0 -48 -15 -20 -14 -19 -1
-23 0 -24 13 4 12 5 3 17 4 17 24 24 24 24 0 16 0 15 -10 0 -10 0 0 15 0 15
13 0 13 0 17 -20 17 -20 0 -10 0 -10 -10 0 -10 0 0 -15 0 -15 10 0 10 0 0 -25
0 -25 -20 -20 -20 -20 -10 0 -10 0 0 -22 0 -23 24 -23 24 -23 7 11 6 10 -15 6
-16 6 0 24 0 24 19 19 19 19 21 7 21 6 4 22 4 22 -1 45 -2 45 -23 3 -24 4 -19
19 -19 19 0 24 0 25 9 6 10 6 11 -21 11 -21 32 31 31 30 10 -3 11 -4 0 -21 0
-22 10 -2 10 -3 3 23 3 23 -16 44 -17 44 -14 5 -14 5 0 16 0 15 11 0 11 0 5
-20 5 -21 22 7 21 7 7 11 8 11 0 12 0 12 -17 10 -18 11 18 14 17 13 0 11 0 10
-14 5 -14 6 -4 23 -3 23 -10 -5 -10 -5 -1 -33 0 -32 -10 -10 -9 -9 -35 8 -35
7 -3 42 -3 42 -15 0 -16 0 4 -72z m-44 -100 l12 -12 0 -22 0 -23 -10 -6 -9 -6
-20 20 -19 19 -7 21 -6 21 23 0 24 0 12 -12z m109 -23 l5 -16 -4 -5 -5 -4 -17
6 -16 6 0 14 0 14 15 0 16 0 6 -15z m-19 -63 l3 -22 -20 0 -21 0 0 18 0 19 7
7 7 6 10 -3 11 -4 3 -21z m-80 -59 l-3 -18 -10 2 -10 2 -3 15 -3 16 16 0 16 0
-3 -17z"/>
<path d="M6435 9010 l-6 -10 11 -20 11 -21 10 6 9 6 0 25 0 24 -14 0 -15 0 -6
-10z"/>
<path d="M6292 8931 l-12 -7 5 -49 5 -48 -15 -17 -16 -17 -4 -99 -5 -99 -10
-3 -10 -4 0 -19 0 -19 10 0 10 0 20 20 20 20 7 48 6 47 9 6 9 6 4 52 3 52 12
13 11 14 -11 7 -10 6 0 38 0 39 -13 10 -13 11 -12 -8z"/>
<path d="M6380 8915 l0 -15 15 0 15 0 0 15 0 15 -15 0 -15 0 0 -15z"/>
<path d="M6477 8923 l-7 -6 0 -23 0 -22 -15 -6 -15 -5 0 -73 0 -73 25 -24 25
-23 0 21 0 22 15 5 15 6 0 14 0 13 -16 -6 -17 -6 -12 16 -11 16 4 36 4 36 17
-3 16 -3 3 -20 3 -20 18 -23 17 -24 17 26 17 26 -16 25 -16 25 -9 0 -9 0 0 18
0 19 -23 21 -23 22 -7 -7z"/>
<path d="M5810 8765 l0 -45 15 0 15 0 0 24 0 24 15 12 15 12 0 9 0 9 -30 0
-30 0 0 -45z"/>
<path d="M5720 8750 l0 -30 15 0 15 0 0 30 0 30 -15 0 -15 0 0 -30z"/>
<path d="M5660 8660 l0 -30 15 0 15 0 0 30 0 30 -15 0 -15 0 0 -30z"/>
<path d="M5727 8623 l-7 -6 0 -34 0 -33 20 -20 20 -20 10 0 10 0 0 38 0 39
-23 21 -23 22 -7 -7z"/>
<path d="M5827 8604 l-18 -25 3 -17 3 -17 25 0 25 0 0 39 0 39 -10 3 -10 3
-18 -25z"/>
<path d="M5872 8498 l3 -43 43 -3 42 -3 0 -25 0 -25 15 -5 15 -6 0 -14 0 -14
26 0 26 0 -4 13 -5 12 -21 3 -22 3 0 36 0 35 -22 24 -23 24 -21 0 -22 0 -6 15
-5 15 -11 0 -11 0 3 -42z"/>
<path d="M6230 8495 l0 -15 15 0 15 0 0 15 0 15 -15 0 -15 0 0 -15z"/>
<path d="M5816 8471 l-6 -9 1 -43 2 -44 7 -10 8 -10 4 -24 3 -25 -25 -6 -25
-6 -3 -22 -3 -22 14 0 15 0 4 12 4 12 12 -8 12 -7 0 -23 0 -22 -10 -10 -11
-11 -2 -41 -2 -41 10 2 10 2 0 30 -1 30 18 13 18 13 0 47 1 47 29 25 30 24 0
23 0 23 -10 0 -9 0 -9 -16 -9 -17 -12 7 -11 7 0 20 0 20 -15 5 -15 6 0 23 0
24 -9 6 -10 5 -5 -9z"/>
<path d="M6170 8469 l0 -12 -17 -13 -18 -12 7 -8 7 -7 25 24 24 23 -4 8 -5 8
-10 0 -9 0 0 -11z"/>
<path d="M6262 8449 l3 -24 10 3 10 2 0 17 0 16 -13 5 -14 4 4 -23z"/>
<path d="M5902 8291 l4 -12 7 0 7 1 1 7 1 8 -12 4 -12 4 4 -12z"/>
<path d="M6746 8343 l-6 -6 0 -19 0 -18 15 0 15 0 0 19 0 20 -9 5 -8 5 -7 -6z"/>
<path d="M3492 10295 l-42 -45 -18 0 -17 0 -25 -30 -25 -30 -34 0 -34 0 -34
-26 -33 -25 0 -20 0 -19 -15 0 -16 0 -36 15 -35 15 -37 0 -36 0 -89 -17 -88
-17 -10 -22 -11 -23 -25 10 -25 10 -13 -5 -12 -5 -4 -23 -3 -23 -50 -2 -50 -1
-30 -16 -30 -16 -30 0 -31 0 -19 -13 -20 -13 -55 -13 -55 -14 -26 -13 -27 -13
-37 -51 -37 -50 -22 -42 -23 -43 -160 -1 -160 -2 -29 -16 -29 -17 -34 -24 -34
-25 -91 0 -91 1 -19 14 -20 15 -47 0 -47 0 -12 -15 -12 -15 -28 0 -28 0 -12
-14 -11 -15 -27 -3 -27 -3 0 -20 0 -20 60 -3 59 -3 22 12 23 12 248 1 248 1 3
-18 4 -17 -32 -7 -32 -6 -5 -16 -5 -16 -14 -27 -15 -27 7 -24 6 -25 -11 -6
-11 -7 0 -24 0 -24 -10 -6 -10 -6 0 -29 0 -29 -16 -15 -15 -16 -10 0 -9 0 0
-19 0 -19 -41 -34 -40 -34 10 -27 11 -27 17 9 18 9 95 27 95 28 51 2 51 1 46
27 46 28 58 -3 58 -2 82 83 83 82 6 39 6 40 12 9 12 10 114 6 115 6 275 -10
275 -9 30 -6 30 -6 80 -5 80 -5 65 -5 65 -5 53 -6 54 -7 -4 18 -3 17 -40 21
-40 21 -27 13 -26 13 -16 0 -15 0 -38 26 -38 26 -40 -5 -40 -5 -89 -11 -90
-11 -70 10 -71 10 -48 10 -48 10 -44 14 -43 15 -28 26 -28 26 -4 62 -4 62 24
23 25 23 59 10 59 10 65 10 65 10 30 14 30 14 15 5 15 6 40 25 40 24 20 1 20
1 24 13 23 13 78 88 79 88 31 63 31 64 -3 28 -3 27 -25 2 -25 2 -43 -44z"/>
<path d="M198 10296 l-11 -25 7 -17 6 -17 190 5 190 4 12 12 12 12 -6 6 -7 6
-33 4 -33 4 -83 -1 -82 0 -22 15 -22 16 -53 0 -53 0 -12 -24z"/>
<path d="M7127 9838 l-6 -21 5 -9 5 -8 15 0 14 0 0 30 0 30 -14 0 -14 0 -5
-22z"/>
<path d="M7077 9823 l-7 -6 0 -9 0 -8 15 0 15 0 0 15 0 15 -8 0 -9 0 -6 -7z"/>
<path d="M7110 9765 l-14 -17 17 -9 17 -10 0 -19 0 -19 16 -9 17 -9 -22 -22
-21 -21 -5 0 -6 0 -23 25 -23 25 -12 0 -11 0 0 -30 0 -30 -10 0 -9 0 -11 -19
-10 -20 10 -27 11 -27 18 17 18 17 70 -2 70 -2 12 7 11 7 0 9 0 8 -31 7 -31 7
37 38 37 38 -4 18 -4 19 -32 -3 -32 -2 2 32 3 33 -21 3 -21 3 -13 -16z"/>
<path d="M4332 9724 l-9 -17 -7 12 -7 11 -12 0 -13 0 -17 -29 -17 -29 0 -30 0
-31 -11 -28 -11 -28 -6 -59 -7 -59 -14 -5 -14 -5 6 63 5 62 11 11 11 11 0 42
0 43 -8 5 -8 5 -25 -12 -24 -13 -1 -54 -1 -55 -2 -25 -2 -25 -9 20 -9 20 0 28
-1 27 -14 0 -14 0 -17 -26 -17 -26 6 -42 5 -41 5 -45 4 -45 -5 28 -4 28 -15 6
-14 5 0 13 0 14 -11 28 -10 28 -16 -20 -15 -20 5 -37 5 -38 -10 -6 -10 -6 -10
10 -11 11 -37 -47 -36 -47 -31 -50 -31 -50 -7 -40 -7 -40 -25 -37 -25 -37 -73
-60 -73 -61 -22 -42 -22 -43 -12 -21 -12 -22 -11 -13 -11 -14 -4 -35 -3 -35
-10 0 -10 0 -3 33 -3 33 16 25 16 25 -3 32 -3 31 -55 44 -55 44 -26 47 -26 46
-15 55 -16 55 -9 40 -8 40 -15 0 -15 0 1 -65 1 -65 26 -54 27 -55 0 -10 0 -10
-25 35 -24 34 -13 15 -13 14 -17 33 -18 33 0 15 0 16 -16 24 -16 25 -13 0 -13
0 -5 -14 -6 -14 6 -24 5 -23 26 -53 25 -52 -5 -5 -5 -5 -51 52 -52 53 0 7 0 8
-15 0 -15 0 0 -9 0 -9 -5 -14 -6 -14 26 -30 25 -29 0 -9 0 -8 -30 4 -30 5 -10
-12 -10 -12 6 -17 6 -17 29 -15 29 -15 0 -12 1 -12 29 -39 30 -40 0 -18 0 -18
8 0 8 0 18 -37 18 -38 44 -60 44 -60 13 -18 14 -17 29 15 29 15 20 0 20 0 20
30 20 30 19 0 18 0 -6 -22 -6 -23 0 -7 0 -7 -30 -16 -29 -15 -30 0 -30 0 -28
-11 -28 -11 -53 -14 -53 -14 -158 0 -157 0 -20 -15 -19 -14 -26 -1 -27 0 -16
-25 -16 -24 0 -10 0 -11 25 -6 25 -6 23 14 22 15 55 7 55 7 29 0 30 0 13 10
13 11 27 -7 28 -8 110 -2 110 -2 55 -28 55 -29 95 -14 95 -14 60 -2 60 -2 30
9 30 8 65 10 65 10 150 1 150 0 50 -6 50 -7 150 -17 150 -16 70 -1 70 0 3 20
2 20 -9 14 -9 13 -48 5 -49 5 -55 26 -55 26 -170 2 -170 2 -28 11 -28 11 -33
27 -34 26 -54 17 -53 16 -3 22 -3 22 34 67 35 68 6 15 7 15 13 23 13 22 39 51
39 50 26 32 25 32 22 60 21 60 6 70 7 70 15 85 15 85 8 10 8 10 7 45 7 45 10
13 10 12 -5 29 -6 28 10 10 11 11 -4 23 -3 24 -17 3 -16 3 -10 -17z"/>
<path d="M6985 9447 l-6 -14 10 -26 11 -27 20 0 20 0 0 14 0 14 -15 6 -15 5 0
15 0 15 -10 6 -10 6 -5 -14z"/>
<path d="M7076 9402 l-6 -11 11 -6 10 -7 6 6 7 6 -11 11 -11 11 -6 -10z"/>
<path d="M5955 7570 l-6 -10 6 -21 7 -20 11 4 12 4 3 26 3 27 -15 0 -15 0 -6
-10z"/>
<path d="M4470 7250 l-15 -9 12 -20 13 -20 -6 -16 -6 -15 11 -14 11 -13 -20
-18 -19 -17 -16 6 -15 6 -6 15 -6 16 26 24 26 24 0 11 0 10 -10 0 -11 0 -23
-25 -23 -25 -10 0 -11 0 -16 -25 -16 -24 0 -21 0 -20 -15 0 -14 0 -17 -37 -17
-38 -41 -42 -40 -43 -9 0 -8 0 -15 -15 -15 -15 -92 -2 -92 -2 -36 -1 -37 0
-22 -20 -22 -20 -19 3 -19 3 0 -10 0 -11 35 0 35 0 0 14 0 14 15 6 15 6 20
-20 20 -20 0 -10 0 -10 27 0 27 0 -23 16 -23 16 9 8 8 8 25 3 25 3 13 -8 13
-8 -11 -13 -12 -14 7 -11 6 -10 17 0 17 0 10 22 10 22 34 9 34 8 26 17 26 17
22 24 22 23 16 -6 15 -5 0 -15 0 -14 -30 -11 -30 -10 0 -19 0 -19 -18 -16 -19
-17 -11 0 -11 0 -6 -19 -6 -18 10 -25 9 -24 16 -13 16 -13 0 -9 0 -9 -16 0
-16 0 -29 -21 -29 -20 0 -24 0 -24 -9 -5 -9 -6 4 -18 5 -17 -16 -44 -15 -44
-21 -15 -20 -14 12 -14 12 -14 -7 -7 -6 -7 -12 12 -12 12 -18 0 -18 0 -12 26
-13 27 23 15 22 14 0 23 0 23 15 6 15 5 0 20 0 19 15 6 15 5 0 14 0 14 35 39
35 38 0 23 0 23 -50 0 -50 0 0 -17 0 -18 -10 -15 -9 -15 -13 18 -14 18 -28
-11 -29 -11 -6 7 -6 6 0 46 0 47 -30 3 -29 4 -14 -19 -13 -18 -10 18 -10 17
-23 0 -24 0 -5 -14 -6 -15 -63 -31 -63 -31 -16 -15 -16 -14 -19 0 -19 0 -26
-14 -27 -14 -26 5 -26 5 0 -11 0 -11 -84 0 -84 0 -12 -15 -12 -15 -55 0 -54 0
-5 -15 -6 -15 -47 0 -47 0 -41 -19 -40 -20 -20 5 -21 6 -6 -11 -7 -11 -10 0
-9 0 0 25 0 25 23 2 22 1 20 2 20 2 13 2 13 1 -6 10 -6 10 -53 0 -54 0 -12
-15 -12 -15 -69 0 -69 0 0 -15 0 -15 67 2 68 3 3 -17 3 -18 -44 0 -45 0 -5
-13 -5 -14 -116 1 -115 2 -8 7 -7 8 14 10 15 9 40 -2 40 -1 38 1 37 2 0 10 0
10 -110 0 -109 0 -9 -17 -9 -16 -112 -1 -112 -2 -11 7 -12 8 -17 -9 -16 -9
-39 20 -39 20 -48 6 -48 6 -5 8 -5 9 -30 0 -30 0 -6 16 -6 16 -28 -6 -28 -5
-6 19 -6 20 -17 0 -17 1 -29 29 -29 30 -12 0 -11 0 -78 80 -78 81 -14 -12 -14
-11 0 -22 0 -21 20 -12 19 -13 35 -55 36 -55 11 0 11 0 35 -30 34 -30 14 0 15
0 0 -10 0 -10 -40 0 -40 0 0 -10 0 -10 -11 0 -11 0 12 15 12 14 -7 11 -6 10
-13 0 -13 0 -23 20 -23 20 -12 0 -11 0 -29 30 -29 30 -10 0 -11 0 -27 25 -27
25 -9 0 -10 0 -6 -16 -6 -16 0 -16 0 -17 54 -57 55 -57 25 -7 26 -6 0 -7 0 -7
45 -23 45 -22 5 -10 6 -9 39 0 39 0 7 -11 7 -11 33 5 34 6 0 -7 0 -7 -28 -13
-27 -13 -55 -6 -55 -6 -10 -7 -10 -8 -90 11 -90 11 -70 1 -70 0 0 -20 0 -20
50 -5 50 -5 14 -9 15 -9 60 -6 61 -5 35 1 35 1 75 7 75 6 22 11 21 10 31 -13
31 -14 0 -11 0 -12 -22 -7 -23 -7 -70 -3 -70 -2 -35 -7 -35 -7 -18 -6 -18 -5
7 -21 7 -22 11 -7 10 -7 -6 -6 -7 -7 -10 7 -11 6 0 20 0 19 -38 0 -38 0 -19
-13 -20 -13 -41 -12 -41 -12 -30 0 -29 0 -19 -14 -19 -13 22 -12 21 -11 35 0
36 0 47 11 48 11 17 9 18 9 20 0 20 0 0 -8 0 -8 -47 -24 -48 -23 -38 -43 -39
-44 -12 0 -13 0 -25 -23 -24 -23 4 -12 4 -12 25 0 26 0 19 18 20 17 28 28 28
27 19 0 19 0 14 13 14 12 -25 -32 -24 -31 -22 -11 -23 -11 0 -25 0 -25 15 0
15 0 0 8 0 7 35 24 35 24 0 13 0 14 24 0 24 0 6 15 5 15 12 0 11 0 -4 -25 -5
-25 13 -11 13 -11 13 21 13 21 42 0 42 0 10 -17 10 -18 51 2 51 1 15 13 16 13
22 13 21 12 13 7 13 6 18 -16 18 -16 15 0 16 0 4 13 5 12 24 2 24 2 55 -1 55
0 110 0 110 0 45 1 44 1 9 -15 8 -15 18 0 17 0 22 30 23 30 8 0 9 0 10 -29 10
-28 74 -7 75 -7 17 7 17 7 14 -20 14 -20 62 3 62 2 6 11 7 10 42 7 42 7 0 8 0
8 -10 6 -10 6 0 20 0 19 20 0 20 0 0 -16 0 -15 23 3 22 3 3 24 4 24 13 14 14
13 15 0 16 0 0 -14 0 -15 -10 -6 -10 -6 5 -10 6 -9 19 0 18 0 7 29 6 30 16 3
16 3 -16 14 -17 13 0 -16 0 -16 -19 0 -19 0 -6 25 -6 25 -15 0 -15 0 0 -21 0
-20 -16 -16 -16 -17 -17 11 -16 11 1 31 2 31 -4 0 -4 0 -23 -12 -22 -13 -13
-17 -13 -18 -13 0 -14 0 -5 -20 -5 -20 -11 0 -11 0 0 15 0 16 15 5 15 6 0 33
0 33 30 7 30 7 0 23 0 24 10 6 10 6 -5 10 -6 9 -50 0 -50 0 6 20 6 20 -10 0
-11 0 0 -17 -1 -18 -34 -16 -35 -16 -14 22 -15 22 6 22 5 21 23 0 23 0 -5 21
-6 22 17 9 16 9 0 16 0 15 18 -8 17 -7 28 1 27 1 0 -14 0 -14 11 -7 12 -7 9
17 9 16 17 0 18 0 17 -20 17 -20 24 0 24 0 -5 20 -5 20 14 0 15 0 37 -40 37
-41 24 23 24 23 -11 13 -11 13 10 10 11 11 18 -28 19 -29 14 -11 15 -12 -13
-15 -12 -16 11 -20 11 -21 14 0 15 0 0 15 0 15 10 0 10 0 0 -16 0 -17 -27 -22
-26 -23 1 -91 1 -91 -20 0 -20 0 -20 -10 -19 -11 0 -8 0 -8 37 -6 36 -6 14 17
13 17 11 -18 11 -18 13 11 13 11 -5 18 -5 19 11 7 11 6 6 -15 6 -16 14 0 14 0
0 23 0 22 -40 38 -40 37 0 10 0 10 10 0 10 0 0 -15 0 -15 14 0 14 0 31 -32 31
-32 0 -44 0 -44 18 7 17 6 9 2 9 2 4 -12 5 -13 -16 0 -17 0 -8 -22 -8 -22 -12
21 -11 22 -15 -5 -15 -6 0 -39 0 -39 -8 0 -7 0 -20 -37 -19 -38 -3 -4 -3 -4
-14 12 -15 13 6 30 6 30 -34 -7 -34 -7 -12 -10 -11 -9 -19 10 -18 10 -17 5
-18 5 0 10 0 10 22 7 21 6 -17 10 -17 10 -30 -12 -29 -12 0 -20 0 -19 15 -29
16 -30 9 0 9 0 13 -27 13 -28 20 -3 20 -4 18 -19 18 -19 -7 -23 -7 -22 -13
-20 -14 -19 0 -22 0 -22 -15 -12 -15 -12 0 -18 0 -18 -15 -12 -15 -12 0 -20 0
-20 -34 -52 -35 -51 -26 -23 -26 -23 3 -22 3 -22 18 -3 17 -3 0 15 0 16 10 0
10 0 0 -9 0 -9 -15 -12 -15 -12 0 -24 0 -24 18 0 18 0 23 31 23 31 5 -6 5 -5
-31 -46 -31 -46 5 -10 6 -9 23 0 22 0 12 12 12 12 0 16 0 17 23 21 23 22 12 0
11 0 11 19 10 20 0 16 0 16 24 32 23 32 23 50 22 50 9 15 8 15 21 45 21 45 10
15 10 15 5 18 6 17 8 0 8 0 6 27 7 26 25 19 24 19 0 25 0 24 -5 0 -5 0 -20
-12 -19 -12 -7 7 -7 7 31 62 31 62 -10 18 -10 18 15 6 15 6 23 -4 23 -3 3 -23
4 -23 -10 -12 -10 -12 -7 -37 -7 -38 11 0 11 0 25 22 25 22 -6 18 -6 19 12 14
12 14 -6 9 -5 9 12 26 12 27 26 10 26 11 22 29 21 29 0 21 0 20 10 0 10 0 0
55 0 55 25 6 25 6 0 13 0 14 11 7 12 7 18 -24 18 -24 10 28 11 27 10 0 10 0 0
-24 0 -24 -16 -6 -16 -6 4 -25 5 -25 -15 0 -15 0 -12 17 -12 16 -12 -8 -13 -7
23 -24 22 -24 9 0 8 0 20 20 20 20 0 13 0 13 21 17 20 18 -6 18 -6 19 23 5 23
6 8 -14 8 -15 14 0 15 0 0 15 0 16 20 38 19 39 17 6 17 7 9 -9 9 -9 -20 -39
-21 -39 0 -12 0 -13 -20 0 -20 0 0 -13 0 -13 14 -20 14 -19 47 2 48 2 10 10
11 11 14 0 14 0 -6 -16 -6 -17 15 -17 16 -18 -17 -6 -18 -7 -8 16 -9 15 -14 0
-14 0 -6 -10 -7 -11 11 -13 10 -12 -29 -32 -29 -32 -17 0 -18 0 32 33 32 33 0
15 0 15 -12 12 -11 11 -23 -22 -24 -22 0 -12 0 -13 -15 0 -15 0 0 15 0 15 16
0 15 0 -3 18 -4 17 -22 -2 -22 -3 0 14 0 14 13 5 12 4 -25 26 -24 25 -8 -4 -8
-5 0 -20 0 -20 -15 -5 -15 -6 0 -13 0 -12 -21 -27 -20 -26 -28 0 -27 0 -12
-12 -12 -12 0 -18 0 -19 16 -6 16 -6 8 13 7 12 19 -5 19 -5 -23 -7 -23 -8 4
-11 4 -11 59 -6 59 -6 18 -7 17 -8 15 12 16 13 39 -13 39 -13 16 13 15 12 17
-7 18 -8 24 2 24 3 31 21 31 22 3 8 4 7 28 -20 28 -20 10 0 10 0 5 14 6 14 22
-5 22 -6 9 17 9 16 19 0 19 0 36 35 35 36 0 14 0 15 24 0 24 0 -11 25 -12 25
-17 0 -16 0 -4 12 -4 12 -13 -8 -12 -8 13 -16 13 -15 -12 -4 -13 -5 0 -24 0
-24 -5 0 -6 0 -22 26 -22 25 -50 -12 -50 -12 -10 -4 -10 -4 -23 -13 -23 -13
-30 -29 -29 -28 0 16 0 16 15 12 15 12 0 26 0 26 14 -19 13 -18 17 6 16 6 0
12 0 11 -20 5 -20 5 0 13 0 13 -12 5 -13 4 8 9 8 8 7 -10 7 -11 37 -6 38 -6 6
10 6 10 34 -7 34 -6 0 11 0 11 24 0 24 0 6 32 6 32 -10 10 -10 10 -18 -17 -19
-18 -13 16 -12 15 -9 0 -9 0 0 -22 0 -23 -9 -14 -9 -14 -16 6 -16 7 12 20 12
20 -12 12 -12 12 -30 -34 -29 -35 -1 18 0 17 -15 0 -16 0 -6 -17 -6 -16 -19
-19 -18 -18 -10 0 -10 0 0 19 0 19 15 12 15 12 0 14 0 13 20 6 20 6 0 65 0 64
10 0 9 0 -2 -52 -2 -53 20 0 19 0 6 25 6 25 7 -17 6 -18 14 0 15 0 13 21 14
21 46 -36 47 -35 6 6 6 6 0 9 0 8 -20 0 -20 0 0 20 0 20 19 0 19 0 6 -15 5
-15 25 0 25 0 6 -10 6 -10 12 0 12 1 -17 10 -17 10 5 14 6 15 13 0 13 0 27
-14 28 -15 17 21 16 20 17 -17 17 -16 0 -14 0 -13 -15 -6 -15 -5 0 -16 0 -15
24 0 25 0 7 -12 7 -11 -18 -13 -18 -13 6 -15 6 -15 -39 -28 -40 -28 0 -7 0 -8
10 0 10 0 0 -11 0 -11 -25 6 -25 6 0 -15 0 -15 -14 0 -14 0 -12 -15 -12 -15
-19 0 -19 0 0 -8 0 -8 53 0 52 0 11 14 11 15 10 -6 10 -7 -5 -26 -5 -26 24 3
24 3 10 -5 10 -6 26 -7 27 -6 6 -22 6 -23 16 20 15 20 9 -15 10 -15 0 -6 0 -6
58 1 57 1 10 7 11 7 14 -9 13 -8 22 8 22 8 37 -8 36 -8 62 8 63 7 17 -8 16 -9
29 6 28 6 24 -21 24 -21 28 0 28 0 6 -10 6 -10 28 0 28 0 27 -21 26 -21 30 7
30 7 0 -16 0 -16 30 0 30 0 0 15 0 15 -29 0 -29 0 -5 20 -5 19 15 12 14 13 22
-25 22 -25 54 -13 55 -14 20 -20 21 -19 32 -14 32 -14 6 -10 6 -10 25 0 24 0
0 18 0 19 -42 30 -43 31 -42 41 -42 41 -10 0 -9 0 -4 -11 -3 -10 -17 6 -16 7
-5 12 -5 13 24 -5 24 -4 0 22 0 21 23 -7 22 -7 29 -28 30 -29 11 0 12 0 18
-20 18 -20 14 0 14 0 15 -12 15 -13 14 -12 14 -13 25 0 26 0 21 -21 20 -20 42
3 42 3 3 17 3 18 -23 10 -23 10 -15 8 -15 9 -22 11 -23 12 -14 0 -14 0 -12 15
-13 16 -13 -5 -12 -5 -18 20 -17 19 -18 -5 -17 -6 -6 19 -6 19 -38 19 -37 19
-32 32 -33 32 0 6 0 5 13 0 14 0 17 -19 18 -19 56 -28 57 -28 37 -23 38 -23
24 0 25 0 16 -16 15 -16 83 -6 82 -5 11 -16 12 -15 15 12 16 13 -11 30 -10 29
-74 0 -74 0 0 10 0 10 -27 0 -28 0 -29 15 -28 15 -13 0 -13 0 -12 15 -12 15
-29 0 -28 0 -14 15 -15 14 -41 22 -41 21 0 8 0 8 -27 10 -28 10 18 7 18 8 27
-13 27 -12 17 -9 18 -9 19 0 19 0 28 -15 29 -15 52 0 51 0 4 -11 3 -10 115 -2
115 -2 0 20 0 20 -57 3 -57 3 -6 19 -6 20 -20 -10 -19 -11 -63 7 -62 7 -10 6
-10 6 -15 1 -15 0 -43 9 -43 8 4 11 5 11 13 -4 14 -3 125 -2 125 -1 19 8 18 7
-12 15 -12 15 -124 -3 -125 -2 -8 13 -8 14 -34 -3 -34 -3 -30 8 -30 7 -17 10
-18 9 -63 -2 -64 -1 -36 22 -37 22 -22 -7 -23 -7 -30 1 -29 1 -13 17 -12 17
-45 -5 -45 -5 -17 18 -17 19 -39 0 -40 0 -18 -22 -19 -23 -7 19 -7 19 16 12
17 12 -7 6 -6 7 -38 0 -38 0 -6 -9 -5 -10 20 -6 20 -6 0 -20 0 -19 20 -12 20
-13 0 -17 0 -17 -9 -5 -9 -6 -40 44 -41 44 6 22 6 21 -21 6 -21 5 -5 13 -4 12
-78 2 -78 2 -18 16 -18 16 -56 -6 -56 -6 -13 -17 -13 -18 -16 13 -16 13 0 8 0
8 21 5 21 6 -5 8 -5 8 -108 3 -107 3 -18 9 -17 10 -61 1 -61 2 -6 8 -5 9 -15
0 -14 0 0 -19 0 -19 -20 -5 -20 -5 0 -21 0 -21 -8 0 -7 0 -12 20 -13 19 13 8
12 8 20 23 20 24 -46 -7 -47 -7 -6 11 -7 11 -28 0 -27 0 -12 -12 -12 -12 0 17
0 17 -26 0 -26 0 -39 28 -39 27 0 13 0 13 30 26 30 25 0 11 0 10 18 19 17 19
18 17 18 17 75 73 75 72 14 0 14 0 44 30 45 30 12 0 12 0 41 32 40 32 66 -2
65 -2 7 12 7 11 -10 27 -9 27 -182 2 -182 1 -15 -10z m-70 -164 l0 -34 -15
-12 -16 -13 -12 12 -11 11 12 20 12 20 0 15 0 15 15 0 15 0 0 -34z m-69 -103
l-10 -18 -1 30 0 29 11 -11 11 -11 -11 -19z m-61 -323 l0 -10 -20 0 -20 0 0
10 0 10 20 0 20 0 0 -10z m-80 -40 l0 -30 -10 0 -10 0 0 8 0 7 -6 23 -6 22 16
0 16 0 0 -30z m-170 -20 l0 -8 -20 -5 -20 -5 0 -17 0 -16 -17 3 -16 3 -5 13
-4 13 21 6 20 5 7 20 6 19 14 -12 14 -11 0 -8z m-2162 -22 l-5 -13 -21 -3 -22
-3 0 15 0 16 26 0 26 0 -4 -12z m1285 -44 l-18 -28 -3 16 -3 17 18 18 18 19 3
-7 3 -8 -18 -27z m1193 21 l6 -25 10 0 9 0 23 25 23 25 7 0 6 0 0 -19 0 -20
-22 -7 -23 -7 -12 -16 -12 -16 -6 18 -7 17 -13 0 -13 0 -6 -17 -7 -17 -24 29
-25 28 0 4 0 3 15 0 15 0 0 -15 0 -15 15 0 15 0 0 25 0 25 10 0 10 0 6 -25z
m-138 -8 l3 -17 -14 0 -15 0 -7 -17 -6 -18 23 -18 23 -19 -19 -13 -18 -14 -14
6 -14 5 0 20 0 19 -10 19 -10 19 6 14 5 14 22 11 22 11 10 -3 10 -3 3 -16z
m-707 -30 l-1 -7 -7 -1 -7 0 -4 12 -4 12 12 -4 12 -4 -1 -8z m-1158 -21 l6
-14 -6 -6 -6 -6 -23 0 -23 0 -6 10 -6 10 6 10 6 10 24 0 23 0 5 -14z m1443
-66 l14 0 0 -10 0 -10 -13 0 -13 0 -34 25 -33 24 -8 -5 -9 -5 0 -30 0 -29 15
0 15 0 0 -15 0 -16 -14 -5 -14 -5 -5 -20 -5 -19 -11 0 -12 0 -6 16 -6 17 16
12 17 12 0 12 0 11 -10 0 -10 0 0 24 0 23 25 27 26 28 14 -5 14 -6 13 16 13
16 3 -41 3 -42 15 0z m-1527 41 l15 -24 -24 8 -25 7 -9 8 -8 8 7 12 7 11 11
-4 10 -3 16 -23z m176 14 l-19 -15 -10 3 -10 3 -4 12 -4 12 34 0 33 -1 -20
-14z m443 -4 l4 -12 -31 -12 -31 -11 0 -13 0 -13 15 0 15 0 0 15 0 15 23 0 23
0 -1 -27 0 -28 -17 3 -16 3 -7 -11 -6 -10 -20 0 -19 0 0 10 0 10 -18 0 -18 0
-11 -11 -12 -12 -15 6 -15 6 26 41 27 40 12 0 12 0 6 -12 5 -13 23 28 22 27
10 -3 10 -3 4 -13z m2260 4 l4 -4 -7 -10 -6 -11 -23 0 -23 0 -6 6 -6 6 6 15 6
14 26 -6 26 -7 3 -3z m-715 -38 l15 -23 -44 -42 -44 -41 0 -11 0 -10 -23 0
-24 0 -6 7 -7 6 20 21 20 21 25 28 25 28 0 19 0 20 14 0 14 0 15 -23z m897 8
l12 -15 -26 0 -26 0 0 -20 0 -20 -15 0 -15 0 0 21 0 22 18 13 17 13 11 1 12 0
12 -15z m-3272 -52 l17 -12 -52 -1 -53 0 0 9 0 10 28 -2 27 -2 4 30 5 30 4
-25 4 -24 16 -13z m912 42 l0 -15 -15 0 -15 0 0 8 0 9 7 6 6 7 9 0 8 0 0 -15z
m430 5 l0 -10 -15 0 -15 0 0 10 0 10 15 0 15 0 0 -10z m-1162 -28 l3 -22 -24
0 -24 0 -6 7 -7 6 17 19 17 18 10 -3 11 -4 3 -21z m2846 12 l6 -16 -12 4 -12
4 -4 12 -4 12 10 0 10 0 6 -16z m570 -17 l-1 -17 -1 -30 -2 -30 -10 0 -9 0 -7
35 -6 35 6 16 6 16 13 -5 12 -4 -1 -16z m-1504 -12 l0 -25 -15 0 -15 0 0 18 0
19 7 6 6 7 9 0 8 0 0 -25z m1026 10 l-20 -15 -5 6 -5 5 14 9 15 10 10 0 10 -1
-19 -14z m-1206 -10 l12 -14 -7 -11 -7 -12 -24 6 -24 6 0 -15 0 -15 10 0 10 0
0 -24 0 -25 -11 -6 -10 -7 -13 18 -13 17 -6 -10 -7 -11 15 -12 15 -12 0 -20 0
-19 -15 -5 -15 -6 0 -10 0 -10 -22 -19 -23 -18 -7 -1 -8 0 0 15 0 15 -10 0
-10 0 0 23 0 22 18 -22 17 -22 24 24 23 25 -6 13 -6 12 -12 17 -12 17 17 19
17 19 0 13 0 14 22 23 21 23 18 0 17 0 12 -15z m1778 -18 l4 -18 -13 -15 -12
-14 -13 11 -14 11 0 18 0 17 7 7 7 7 15 -3 16 -3 3 -18z m77 13 l6 -10 -15 -6
-16 -6 0 -19 0 -19 -8 0 -8 0 -12 12 -12 12 0 8 0 8 15 0 16 0 5 15 6 15 8 0
9 0 6 -10z m-3455 -11 l0 -11 30 5 30 6 11 -20 11 -21 -10 -10 -9 -9 -27 7
-28 7 -5 14 -5 14 -13 -17 -12 -17 -17 6 -16 6 0 16 0 16 23 9 22 9 8 0 7 1 0
-11z m1460 -14 l0 -26 -22 -8 -23 -9 -8 8 -9 8 6 20 7 21 17 4 17 5 8 1 7 1 0
-25z m-1623 -1 l6 -16 -34 -29 -34 -29 19 0 19 0 12 17 13 18 21 -19 21 -19
15 19 15 19 29 -32 29 -32 6 15 5 14 16 0 15 0 0 -20 0 -21 -15 -5 -15 -6 0
-19 0 -19 13 0 12 0 20 38 20 37 10 7 10 8 18 0 18 0 6 -16 6 -16 -16 -10 -17
-9 0 -19 0 -19 12 -7 11 -7 29 32 28 31 0 20 0 20 29 0 29 0 6 -25 7 -26 -6
-9 -6 -10 -10 0 -10 0 -24 -26 -25 -27 -23 -12 -23 -12 -26 -6 -26 -7 -11 14
-12 14 16 6 15 5 0 11 0 10 -11 0 -11 0 -30 -25 -30 -25 -14 0 -14 0 0 9 0 10
10 6 10 6 0 10 0 9 -14 0 -14 0 -12 -15 -12 -15 -19 0 -19 0 0 7 0 6 14 16 14
16 -29 33 -29 32 -10 0 -10 0 0 -9 0 -8 20 -25 19 -25 -27 -27 -28 -26 -7 0
-7 0 0 20 0 20 -15 0 -15 0 0 -10 0 -11 -17 -6 -18 -6 -23 -20 -22 -21 -13 13
-12 12 19 14 18 14 -7 10 -6 11 -20 0 -19 0 -12 28 -12 27 -30 26 -30 26 12 7
11 6 23 -23 23 -23 16 -12 16 -12 -5 27 -5 28 -14 17 -14 16 11 7 11 7 25 -6
24 -6 0 -15 0 -15 18 0 18 0 39 40 39 40 8 0 9 0 6 -16z m3184 -14 l30 -30 -6
-10 -6 -10 -7 0 -7 1 -28 23 -28 22 7 17 6 17 5 0 5 0 29 -30z m-2876 4 l25
-16 0 -19 0 -19 -17 0 -18 0 -23 25 -24 24 7 11 6 10 10 0 10 0 24 -16z m2530
2 l35 -15 0 -20 0 -21 16 0 16 0 17 21 16 21 26 -12 26 -12 21 11 21 11 21 0
21 0 21 -11 21 -11 -14 -9 -14 -9 -35 0 -35 -1 -22 -18 -23 -19 0 -11 0 -12
-15 -5 -15 -6 0 -14 0 -14 20 0 21 0 5 15 6 15 29 0 30 0 5 -15 6 -15 24 0 24
0 0 -15 0 -15 15 0 15 0 0 16 0 15 18 -3 17 -3 0 -29 0 -29 13 -4 12 -5 0 -14
0 -14 -15 0 -16 0 -29 15 -28 15 -5 12 -4 13 -22 -12 -21 -13 -19 0 -20 0 -6
11 -7 10 18 14 19 14 -20 1 -21 0 -9 -9 -10 -9 -22 -7 -23 -6 0 20 0 20 -22 7
-23 7 -7 11 -8 11 0 9 0 8 20 -5 20 -5 0 28 0 29 18 4 17 4 -52 -1 -53 -1 6
-17 5 -18 -14 0 -15 0 -13 16 -13 16 -24 9 -24 9 6 16 6 16 0 14 0 14 15 0 16
0 34 -14z m-1395 -20 l0 -14 -30 -25 -30 -26 0 -10 0 -11 10 0 10 0 0 -15 0
-15 -10 0 -11 0 -5 15 -6 15 -14 0 -14 0 0 8 0 8 13 27 12 27 11 0 12 0 12 15
12 15 14 0 14 0 0 -14z m-1031 -13 l10 -18 19 12 19 12 11 -11 10 -10 49 11
50 10 28 -7 29 -8 9 -28 9 -27 -6 -6 -6 -6 -15 13 -16 13 -20 -21 -20 -22 -9
0 -9 0 -23 -22 -24 -23 -17 -27 -17 -28 -15 0 -14 0 -5 8 -5 8 44 45 43 44
-19 18 -20 18 -28 -3 -29 -3 -27 27 -27 27 7 11 6 10 9 0 9 0 10 -17z m291 -3
l0 -10 -26 0 -25 0 6 10 6 10 20 0 19 0 0 -10z m910 -26 l10 -26 -11 -15 -12
-14 -7 8 -7 8 -7 26 -6 26 7 7 6 6 9 0 8 0 10 -26z m-57 -25 l-1 -34 -1 -7 -1
-8 -11 0 -12 0 -13 18 -13 17 -6 -18 -7 -18 17 -19 17 -19 -7 -10 -6 -11 -18
0 -18 0 -23 26 -24 25 14 9 14 9 -18 20 -19 21 19 7 18 7 4 -12 4 -12 14 0 14
0 0 10 0 10 14 0 14 0 6 16 6 16 13 -5 12 -4 -2 -34z m-707 13 l22 -17 -17
-17 -16 -16 -18 13 -19 14 7 20 6 21 7 0 7 0 21 -18z m2382 -4 l12 -12 0 -13
0 -13 -20 0 -20 0 0 25 0 25 8 0 8 0 12 -12z m312 -3 l0 -15 10 0 10 0 0 -20
0 -20 -7 0 -8 0 -23 25 -24 24 7 11 6 10 15 0 14 0 0 -15z m-2770 -15 l0 -10
-15 0 -15 0 0 10 0 10 15 0 15 0 0 -10z m2565 -12 l-7 -23 -8 -9 -8 -8 -11 6
-11 7 0 19 0 18 13 5 12 5 13 1 13 1 -6 -22z m-2620 -28 l0 -35 -20 0 -19 0
-6 25 -7 25 5 13 5 13 21 -3 21 -3 0 -35z m2025 20 l0 -20 -9 0 -10 0 -6 10
-6 10 6 10 6 10 10 0 9 0 0 -20z m730 -16 l10 -26 -6 -34 -6 -34 -9 -6 -9 -5
0 -20 0 -19 -20 0 -20 0 0 24 0 25 10 6 10 6 0 48 0 48 7 6 6 7 9 0 8 0 10
-26z m176 -12 l-6 -6 -11 11 -11 11 7 12 8 13 9 -17 10 -18 -6 -6z m-3986 21
l0 -8 -10 -15 -9 -14 -6 5 -5 6 6 17 6 16 9 0 9 0 0 -7z m110 -43 l0 -10 -17
0 -17 0 -23 -22 -23 -21 0 17 0 18 20 5 20 5 0 31 0 31 20 -22 20 -21 0 -11z
m2218 -15 l-3 -3 -38 -7 -39 -8 4 19 3 18 35 24 35 24 3 -32 3 -32 -3 -3z
m-1542 44 l6 -11 -38 -39 -39 -38 -12 -1 -13 0 0 10 0 9 14 8 13 8 17 33 17
32 14 0 14 0 7 -11z m360 -6 l13 -18 1 -13 0 -13 -10 -12 -10 -12 -21 -27 -20
-28 -19 0 -18 0 -13 16 -13 16 17 9 17 10 0 32 0 33 12 12 12 12 19 0 20 0 13
-17z m2456 -44 l6 -54 -4 -7 -5 -8 -14 0 -14 0 -6 20 -6 20 7 45 6 46 12 -4
11 -4 7 -54z m494 50 l7 -11 -14 -8 -13 -9 -8 5 -8 5 0 15 0 14 14 0 15 0 7
-11z m-153 -21 l16 -13 3 -30 3 -30 -27 -3 -28 -3 2 45 2 46 6 0 6 0 17 -12z
m-217 -13 l6 -15 -6 -36 -7 -35 -17 3 -17 3 -3 24 -4 23 6 24 6 24 16 0 15 0
5 -15z m141 -36 l3 -44 2 -30 3 -30 -13 0 -14 0 -12 37 -13 36 8 13 7 12 -5
14 -5 13 6 16 6 16 13 -5 12 -4 2 -44z m193 1 l0 -20 -14 0 -15 0 -6 10 -6 10
6 10 6 10 15 0 14 0 0 -20z m-876 1 l6 -9 -15 -12 -15 -12 0 21 0 21 9 0 10 0
5 -9z m-3180 -9 l5 -8 -8 -12 -7 -12 -19 20 -18 20 21 0 21 0 5 -8z m151 -22
l0 -15 -22 -3 -23 -3 0 14 0 14 7 7 7 7 16 -3 15 -3 0 -15z m1010 -29 l5 -10
-10 -6 -10 -6 -10 6 -10 6 5 10 6 9 9 0 9 0 6 -9z m595 -273 l0 -12 -21 -43
-21 -43 -9 -6 -9 -5 0 -25 0 -25 -15 -5 -15 -6 0 -24 0 -25 -15 -5 -15 -6 0
-18 0 -18 -15 -12 -15 -12 0 -14 0 -14 -17 -18 -18 -19 -22 -26 -23 -27 -10 0
-10 0 0 28 1 27 14 19 15 20 0 22 0 22 15 29 14 28 48 102 48 102 32 1 32 0 6
10 6 10 10 0 9 0 0 -12z"/>
<path d="M2090 6235 l-23 -25 12 0 12 0 24 16 25 16 -6 9 -5 9 -8 0 -8 0 -23
-25z"/>
<path d="M3420 6715 l-13 -15 7 -7 6 -7 13 16 12 16 15 5 15 5 -21 1 -22 1
-12 -15z"/>
<path d="M3230 6685 l-12 -14 -28 5 -28 6 -6 -11 -7 -11 49 0 50 0 5 14 6 15
33 4 33 4 -41 1 -42 2 -12 -15z"/>
<path d="M3032 6638 l5 -13 16 1 17 1 32 1 31 2 -6 6 -6 7 -47 4 -46 4 4 -13z"/>
<path d="M3077 6410 l-5 -20 8 0 8 0 5 15 6 14 -8 6 -9 5 -5 -20z"/>
<path d="M4798 6406 l-38 -20 0 -17 0 -17 18 -6 17 -6 13 -6 12 -6 0 22 0 21
11 20 10 20 -3 8 -3 7 -37 -20z"/>
<path d="M4850 6365 l0 -35 8 0 9 0 17 19 16 18 -6 17 -6 16 -19 0 -19 0 0
-35z"/>
<path d="M3200 6372 l0 -18 12 -12 11 -11 -16 -7 -17 -6 0 -19 0 -19 48 2 47
2 7 10 8 11 0 38 0 38 -16 6 -17 6 -13 -18 -13 -18 -7 16 -6 17 -14 0 -14 0 0
-18z"/>
<path d="M3360 6329 l0 -21 15 12 15 12 -6 9 -5 9 -10 0 -9 0 0 -21z"/>
<path d="M3500 6010 l0 -30 9 0 10 0 6 10 6 10 -6 20 -6 20 -10 0 -9 0 0 -30z"/>
<path d="M3406 6014 l-16 -15 0 -20 0 -19 8 0 7 1 29 23 29 24 -7 11 -7 11
-14 0 -14 0 -15 -16z"/>
<path d="M5005 5190 l-19 -21 -42 7 -42 6 -26 -17 -26 -17 -22 5 -22 6 -30
-13 -31 -13 -31 -10 -31 -10 -17 9 -16 9 -6 -15 -6 -16 -62 0 -61 -1 -19 -14
-20 -15 -19 0 -20 0 -24 -26 -24 -26 4 -11 4 -12 114 3 114 4 10 9 9 9 56 0
57 0 6 -7 7 -7 50 0 50 -1 0 5 0 6 29 11 29 11 -5 -14 -5 -14 38 0 39 0 25
-13 25 -13 -3 -17 -3 -16 23 -12 23 -12 12 -13 13 -12 25 -48 25 -47 10 -12
10 -12 -2 -61 -3 -62 23 -15 22 -16 -11 -22 -12 -21 7 -145 7 -145 14 -16 15
-17 0 -48 0 -48 -16 -12 -17 -12 1 -318 1 -318 17 -18 16 -18 -6 -122 -6 -122
15 -23 15 -23 3 -47 3 -46 17 -13 17 -12 -5 -15 -6 -15 16 -13 15 -12 0 -18 0
-18 15 -12 15 -12 0 -15 0 -14 45 -43 45 -44 0 -11 0 -12 14 -5 14 -5 6 -30 6
-29 10 0 10 0 20 44 21 43 -44 84 -44 84 -29 -2 -29 -2 -3 -11 -4 -10 -15 0
-16 0 27 25 27 25 9 -5 8 -5 16 6 16 6 0 22 0 21 -35 29 -35 29 0 24 0 24 -17
-3 -18 -4 3 -37 4 -37 -16 0 -16 0 0 29 0 29 -14 29 -15 28 -14 35 -14 35 -2
120 -2 119 -14 16 -15 16 1 199 1 199 14 20 14 20 -7 40 -6 41 -10 13 -10 12
17 18 16 19 0 61 0 62 15 0 15 0 0 -17 1 -18 14 -19 14 -18 -16 -34 -16 -34
17 -19 18 -20 -5 -16 -6 -15 -11 0 -10 0 0 -15 0 -15 20 0 20 0 0 -9 0 -9 -15
-12 -15 -12 0 -17 0 -17 20 -17 20 -17 0 -20 0 -20 -10 0 -10 0 0 -11 0 -12
16 -12 16 -11 -13 -22 -14 -22 13 -20 12 -20 0 -24 0 -24 15 -6 15 -5 0 -21 0
-20 -26 -10 -25 -10 6 -10 6 -10 18 0 18 0 6 -7 7 -6 -15 -17 -16 -17 16 -13
15 -12 0 -8 0 -8 -22 -5 -22 -6 17 -19 17 -19 0 -29 1 -29 19 -23 19 -24 11 7
10 6 0 15 0 14 16 0 15 0 -3 -32 -3 -33 -27 -3 -28 -3 0 -10 0 -10 15 -15 15
-15 0 -50 0 -49 15 0 15 0 0 38 1 37 18 23 19 22 21 0 20 0 6 10 6 10 -15 6
-16 6 0 13 0 14 22 3 22 3 6 25 6 25 38 10 38 9 13 -17 12 -17 9 0 9 0 25 31
25 31 13 14 14 14 9 -5 9 -6 0 -39 0 -38 15 -6 15 -5 0 -15 0 -14 -16 -6 -15
-6 6 -10 6 -10 25 0 24 0 0 15 0 15 9 0 10 0 5 -9 6 -9 -15 -12 -14 -12 17
-24 17 -23 13 -1 12 0 0 15 0 15 14 0 15 0 3 -27 3 -28 23 -3 24 -4 19 -19 19
-19 0 -50 0 -51 15 -5 15 -6 0 -13 0 -13 -17 -7 -18 -6 17 -13 16 -12 4 -24 3
-25 22 2 22 3 8 -42 8 -41 13 -5 12 -4 -2 19 -1 18 1 38 2 37 9 0 8 0 6 -45 5
-46 16 -18 16 -18 0 -11 0 -11 -27 -3 -28 -3 5 -10 5 -10 33 0 34 0 19 -25 19
-25 14 -15 15 -16 20 -46 20 -47 -12 -31 -12 -32 15 -11 15 -12 19 -37 18 -36
-5 -44 -6 -43 -6 -32 -7 -33 16 -6 16 -6 0 -33 0 -34 -9 -6 -9 -5 -21 26 -21
27 0 26 0 26 -9 13 -8 13 -12 -14 -11 -14 3 -58 4 -58 -19 -19 -18 -18 0 -19
0 -20 -33 6 -33 5 -12 -15 -12 -14 45 -42 45 -41 15 0 15 0 0 -30 0 -30 16 0
16 0 5 20 5 20 13 0 13 0 6 -17 7 -17 34 38 33 38 17 -36 17 -35 -6 -9 -6 -10
32 2 32 1 4 -19 4 -19 -25 7 -25 6 -12 -15 -12 -14 7 -22 7 -21 -23 7 -24 8
13 -16 13 -15 -2 -41 -3 -41 13 -13 12 -12 19 25 18 24 6 28 5 28 17 25 16 25
13 0 13 0 5 38 5 37 -16 12 -16 13 11 0 11 0 6 23 5 23 52 78 51 78 2 101 1
102 -19 47 -19 48 -13 0 -14 0 0 20 0 20 -57 54 -58 55 -18 18 -18 18 -14 16
-15 16 0 31 0 31 -19 6 -19 6 5 37 5 38 -16 13 -16 13 0 10 0 10 -30 45 -30
44 0 7 0 7 -49 47 -49 48 5 20 5 20 -13 0 -14 0 -23 35 -22 35 -10 0 -10 0 0
18 -1 17 -44 45 -45 45 0 16 0 16 -36 34 -35 34 -31 29 -30 29 -9 24 -9 23
-13 0 -14 0 -23 25 -23 25 -13 0 -13 0 -36 38 -35 37 -35 45 -35 45 -24 30
-25 30 -35 41 -36 41 0 11 0 10 -15 6 -15 5 0 15 0 15 -16 9 -16 9 -2 59 -3
59 -17 3 -16 3 6 53 6 52 -16 13 -16 13 0 50 0 50 -20 5 -21 6 7 43 6 43 -16
23 -16 22 0 34 0 33 -12 22 -12 22 -1 40 -2 40 -2 28 -1 27 -18 0 -18 0 4 147
5 146 -15 11 -14 11 -12 30 -13 30 -24 28 -24 27 -24 0 -25 0 -6 -22 -5 -23
-13 13 -12 12 12 20 12 20 0 5 0 5 -73 0 -74 0 -18 -20z m30 -106 l16 -6 -17
-19 -17 -19 -8 6 -9 5 0 20 0 19 9 0 9 0 17 -6z m145 -186 l0 -20 -12 4 -13 5
-3 21 -3 22 15 -6 16 -6 0 -20z m27 -72 l-6 -16 -11 0 -10 0 0 18 0 19 7 7 7
6 9 -9 10 -10 -6 -15z m35 -116 l3 -35 -15 0 -15 0 -3 28 -3 29 6 16 6 15 9
-9 8 -9 4 -35z m21 -97 l5 -28 0 -23 1 -23 10 -52 9 -52 1 -20 1 -20 0 -27 0
-26 27 -10 28 -10 -20 -8 -20 -7 -8 -14 -8 -13 -9 0 -10 0 0 19 0 20 -14 13
-13 14 -1 131 -1 131 -2 9 -1 8 1 8 1 7 9 0 9 0 5 -27z m87 -503 l0 -20 -10 0
-10 0 0 20 0 20 10 0 10 0 0 -20z m220 -230 l0 -20 -15 0 -15 0 0 13 0 14 7 6
6 7 9 0 8 0 0 -20z m50 -95 l0 -5 -20 0 -20 0 0 15 0 16 20 -11 20 -11 0 -4z
m70 -60 l0 -15 -15 0 -15 0 0 8 0 9 7 6 6 7 9 0 8 0 0 -15z m142 -137 l5 -13
-4 -12 -5 -13 -14 0 -14 0 0 9 0 9 6 16 6 16 8 0 8 0 4 -12z m-162 -38 l15 -9
-11 -18 -12 -18 -29 3 -29 3 -24 -26 -23 -25 -19 0 -18 0 0 -20 0 -19 -22 8
-22 8 -3 10 -4 11 44 36 44 36 22 0 22 0 15 15 15 15 12 0 12 0 15 -10z m89
-16 l24 -25 -11 -11 -11 -11 -27 26 -26 26 7 11 6 10 7 0 7 0 24 -26z m-305
-101 l7 -16 -11 -11 -10 -10 -11 11 -12 12 6 15 6 16 10 0 9 0 6 -17z m542
-99 l24 -25 0 -25 0 -24 -15 0 -15 0 0 30 0 30 -25 0 -25 0 0 14 0 14 13 5 12
5 4 1 4 1 23 -26z m384 -428 l0 -24 15 -6 15 -5 0 -15 0 -15 -10 -6 -10 -6 -6
18 -6 18 -14 26 -13 26 6 7 6 6 9 0 8 0 0 -24z m-900 -30 l0 -15 -11 -6 -10
-7 -6 6 -5 5 5 16 6 15 11 0 10 0 0 -14z m990 -176 l0 -19 13 -8 12 -8 34 -38
35 -37 -10 -9 -9 -8 -28 -7 -27 -6 -7 30 -6 31 -18 9 -18 10 -6 20 -6 19 11
21 11 20 9 0 10 0 0 -20z m118 -158 l3 -22 -9 0 -10 0 -6 16 -6 16 0 10 0 10
13 -4 12 -5 3 -21z m-98 -24 l-1 -33 -10 18 -11 18 6 15 5 14 6 0 5 0 0 -32z
m130 -34 l0 -25 24 -32 24 -32 1 -63 0 -63 -10 7 -10 6 6 15 5 16 -15 17 -16
18 10 7 11 6 0 15 0 14 -21 21 -20 20 -20 -6 -19 -6 0 10 0 10 10 6 10 6 0 30
0 29 15 0 15 0 0 -26z m-117 -55 l18 -21 -7 -6 -7 -7 -4 13 -5 12 -24 0 -24 0
0 15 0 15 18 0 18 0 17 -21z m-5 -187 l3 -21 -12 -22 -11 -22 -10 17 -9 17 6
30 7 30 11 -4 12 -4 3 -21z m150 -26 l3 -39 -10 -10 -11 -11 0 46 0 46 -12 6
-13 6 20 -3 20 -2 3 -39z m-263 -36 l6 -10 -11 -21 -12 -21 -10 10 -10 10 7
21 6 21 9 0 9 0 6 -10z"/>
<path d="M1901 4846 l-13 -16 -24 0 -23 0 -15 -15 -15 -15 -14 0 -15 0 -12
-15 -12 -15 -27 0 -26 0 -29 -19 -30 -20 -8 5 -8 5 -68 -32 -67 -33 -4 -8 -3
-9 -20 -19 -20 -18 6 -10 6 -10 50 0 49 0 12 14 11 14 23 0 23 0 12 -15 12
-15 52 0 51 -1 19 -14 20 -15 75 0 76 0 25 -27 25 -26 -3 -296 -3 -295 -10 -6
-9 -6 -2 -83 -2 -82 11 -7 10 -7 7 -115 7 -115 10 -3 9 -4 0 -63 0 -64 15 -15
15 -15 0 -20 0 -20 25 -47 25 -47 16 -12 17 -12 -7 -12 -8 -12 31 -31 31 -32
0 -16 0 -17 62 -62 61 -62 25 6 25 6 -7 -16 -6 -17 25 -30 25 -30 0 -9 0 -9
18 0 17 0 13 -20 12 -20 39 -20 40 -20 15 6 16 6 0 -13 1 -14 5 -40 6 -40 8
-10 8 -10 7 -53 7 -53 15 -14 14 -15 10 0 9 0 0 15 0 15 -10 0 -10 0 0 23 1
22 14 25 14 25 1 38 0 38 15 5 15 6 24 -6 24 -6 5 -32 5 -33 -14 -21 -13 -22
-7 -51 -7 -51 -23 0 -23 0 -17 -32 -16 -32 7 -104 7 -105 -12 -66 -12 -66 -14
-58 -14 -59 -23 -19 -22 -18 -14 -1 -14 0 -13 -17 -13 -18 -7 19 -7 19 18 34
18 34 -10 10 -11 11 -12 -21 -11 -22 -19 6 -18 6 -6 -9 -6 -10 15 -12 15 -12
0 -18 0 -18 -14 -12 -15 -11 -3 -27 -3 -27 -15 -3 -15 -2 -13 30 -14 30 -14 0
-14 0 0 -10 0 -10 20 -20 20 -20 0 -31 0 -30 -11 -21 -11 -21 -9 14 -9 14 0
30 -1 30 -14 19 -15 20 0 18 0 18 -15 0 -15 0 0 -34 0 -35 -11 -6 -10 -7 -5 4
-4 4 -1 50 -2 49 -16 22 -16 22 -12 1 -13 0 0 -23 0 -22 -20 -13 -20 -12 6
-25 6 -25 -25 0 -26 0 -6 -10 -6 -9 -1 -66 -1 -65 -12 0 -13 0 -6 15 -5 15
-33 -18 -33 -17 -7 -10 -8 -10 0 -27 0 -27 -10 -6 -10 -6 0 44 0 45 14 5 14 5
-5 26 -5 26 -10 0 -10 0 -20 -25 -19 -25 -15 0 -14 0 0 18 0 18 31 27 31 27
-6 15 -5 15 -13 0 -13 0 -11 -8 -10 -7 -23 -44 -22 -44 5 -13 5 -14 16 0 15 0
0 -18 0 -19 16 -31 15 -32 10 0 9 0 20 -17 20 -17 0 -23 0 -23 29 0 29 0 6 16
6 15 18 -5 18 -6 21 22 20 23 10 19 11 19 11 -21 12 -22 19 0 19 0 3 -32 3
-33 18 -3 18 -4 6 21 5 21 9 0 9 0 0 19 0 20 14 14 14 14 4 22 3 22 10 0 10 0
3 -21 3 -20 -15 -6 -16 -6 0 -17 0 -17 -20 -42 -20 -42 -10 0 -10 0 0 -15 0
-15 15 0 15 0 0 15 0 15 26 0 25 0 10 30 11 30 8 0 9 0 6 21 7 20 21 -3 22 -3
5 -30 5 -30 21 -3 21 -3 29 43 29 43 10 7 10 8 7 0 7 0 6 -20 6 -20 13 0 13 0
10 23 11 23 -10 18 -10 18 12 11 11 12 13 -17 13 -18 12 0 11 0 0 -14 0 -14
16 -13 16 -13 16 10 16 10 10 38 11 37 10 0 10 -1 3 -37 3 -38 24 -18 24 -17
11 20 11 20 31 16 31 16 8 -14 9 -13 0 -7 0 -8 11 0 10 0 28 30 27 30 7 -6 7
-7 0 -17 0 -18 -16 -12 -15 -13 3 -35 3 -35 11 -4 11 -4 22 50 21 50 18 -6 17
-7 15 -19 16 -19 27 35 26 34 21 6 20 5 0 -27 0 -27 11 -11 11 -11 15 5 14 5
18 -16 19 -17 18 24 19 23 32 11 32 11 22 -5 22 -6 16 22 17 22 44 -10 45 -10
21 20 20 19 17 0 17 0 0 -10 0 -11 -15 -5 -15 -6 0 -14 0 -14 15 0 15 0 0 15
0 15 10 0 9 0 9 -17 10 -16 16 6 16 6 -6 16 -6 16 17 19 18 20 22 0 21 0 12
12 12 12 0 17 0 17 15 12 16 13 -3 18 -3 18 20 15 20 16 -14 9 -14 9 -64 -67
-63 -66 -11 15 -10 15 -15 32 -14 33 -10 0 -10 0 0 39 0 39 23 15 22 15 -18 7
-18 8 -14 -19 -14 -19 -5 15 -5 15 -3 44 -3 44 -12 5 -13 4 0 -79 0 -78 -8
-11 -7 -12 -20 -3 -20 -4 -3 -28 -3 -28 -12 4 -12 4 -3 36 -3 37 -21 0 -21 0
-18 -16 -18 -16 -11 7 -12 7 7 45 6 44 -9 12 -9 12 -6 26 -7 26 7 7 7 7 38
-42 38 -42 0 -13 0 -14 14 0 14 0 4 36 4 36 -13 5 -13 5 0 14 0 15 -15 5 -16
6 6 19 6 18 -12 23 -12 22 12 4 11 4 0 24 0 24 -14 0 -15 0 -25 23 -25 22 25
110 24 110 12 55 12 56 35 -18 35 -18 14 0 13 0 -6 19 -6 19 16 6 15 5 30 -6
30 -5 0 -14 0 -14 13 -23 12 -22 7 -5 6 -5 4 -30 3 -30 20 0 20 0 3 53 3 53
22 -3 22 -3 1 35 2 35 5 44 5 44 -8 80 -8 81 9 23 9 23 -20 17 -20 17 0 22 0
22 -26 51 -25 51 -10 0 -9 0 -12 25 -11 24 -28 10 -28 9 -16 26 -17 26 -13 0
-14 0 -19 25 -20 25 -26 0 -26 0 0 -10 0 -10 -17 0 -18 1 19 14 19 14 -6 15
-6 16 -16 -6 -16 -7 -15 22 -15 21 -20 0 -20 0 -5 15 -6 15 -23 0 -23 0 -6 15
-5 15 -16 0 -16 0 -6 -16 -6 -16 29 -24 29 -23 16 -1 17 0 12 -15 13 -15 18 5
19 6 0 -9 0 -10 -16 -6 -15 -6 3 -22 3 -22 30 -16 30 -15 5 -6 5 -6 26 -6 27
-7 23 -24 23 -24 17 11 17 11 16 -17 16 -16 0 -12 0 -13 -20 -21 -20 -21 41
-38 40 -39 23 -31 23 -31 22 -59 22 -60 -6 -39 -7 -38 -18 16 -18 16 5 20 5
19 -20 0 -21 0 -35 34 -36 33 0 17 0 16 -9 0 -9 0 -17 -26 -17 -26 -41 5 -41
6 -12 -17 -12 -17 -19 17 -19 18 -18 -18 -18 -17 6 27 6 28 -12 20 -13 20 -12
0 -13 0 0 -10 0 -10 -10 0 -10 0 -12 26 -12 26 17 9 17 10 -17 25 -16 26 -9
-16 -9 -16 -9 0 -10 0 0 15 0 15 -20 20 -20 20 0 10 0 10 16 0 16 0 -4 13 -5
12 -20 3 -21 3 -5 20 -5 19 -16 0 -16 0 0 -15 0 -15 -19 0 -18 0 5 25 4 25
-13 0 -14 0 -20 -30 -20 -30 -9 0 -10 0 -33 36 -33 37 0 8 0 9 -39 0 -40 0 -6
-10 -6 -10 15 -6 16 -6 0 -19 0 -19 -9 0 -10 0 -6 10 -6 10 -37 16 -37 15 -37
-11 -38 -11 -22 13 -23 13 -35 11 -35 11 2 9 2 9 6 18 7 17 -25 0 -26 0 -6
-20 -6 -20 -10 5 -9 6 0 25 0 24 -9 0 -10 0 -6 -10 -6 -10 -15 0 -14 0 0 39 0
40 -9 5 -9 6 -17 -26 -17 -26 4 -54 3 -54 -12 0 -12 0 -26 10 -26 10 11 21 12
21 -18 13 -18 12 22 7 22 7 0 28 0 29 31 6 30 6 -6 10 -6 10 -25 0 -24 0 0 15
0 15 -15 0 -15 0 0 -15 0 -15 15 0 15 0 0 -14 0 -14 -16 -6 -16 -6 -13 0 -14
0 -3 23 -3 22 -25 0 -25 0 -3 28 -3 27 -14 0 -13 0 -6 -15 -5 -15 -11 0 -10 0
0 15 0 15 13 0 12 1 19 26 19 26 -17 9 -16 9 6 25 6 25 -21 6 -21 5 0 25 0 25
-12 -4 -13 -5 -3 -26 -3 -27 9 0 9 0 11 -24 11 -24 -6 -6 -6 -6 -8 0 -7 0 -11
30 -10 30 -10 0 -11 0 0 39 0 39 21 5 20 6 -3 28 -3 28 -17 3 -16 3 -7 -31 -7
-30 -9 6 -9 5 0 20 0 20 15 5 15 6 0 29 0 29 -24 0 -25 0 -6 10 -6 10 15 6 16
6 0 13 0 13 -16 6 -16 6 3 81 3 81 -17 9 -17 10 5 10 6 9 24 0 24 0 7 22 7 22
-22 14 -21 14 0 13 0 13 15 12 15 12 0 14 0 14 -25 6 -25 6 0 8 0 9 25 19 25
20 0 11 0 11 -25 0 -25 0 0 15 0 15 25 0 25 0 0 15 0 16 -15 5 -15 6 0 19 0
18 22 12 21 11 -24 19 -24 19 18 11 17 10 0 20 0 20 -27 24 -28 23 18 20 18
19 -15 12 -15 13 -11 -7 -10 -6 0 10 0 10 20 11 20 11 0 24 0 25 25 0 24 0 10
17 9 18 21 -19 21 -19 0 -24 0 -23 -12 -20 -12 -19 11 -23 12 -23 3 -123 4
-122 12 -12 12 -12 0 -57 0 -58 15 -15 15 -15 0 -44 0 -45 15 -12 15 -12 0
-25 0 -25 22 -49 23 -49 7 0 8 0 0 -19 0 -18 20 -26 21 -26 19 -6 20 -6 32
-30 32 -29 22 0 22 0 6 -15 5 -15 35 0 34 0 6 -15 5 -15 24 0 25 0 12 -15 13
-16 14 5 13 5 12 -19 13 -20 26 0 27 0 11 31 11 31 -6 9 -5 9 -29 0 -28 0 -6
15 -5 15 -56 0 -55 0 0 15 0 15 -29 0 -29 0 -12 15 -12 15 -15 0 -16 0 -68 67
-69 67 0 18 0 18 -10 0 -10 0 0 24 0 24 -15 6 -15 5 0 31 0 31 -15 5 -15 6 0
48 0 48 -14 11 -14 12 -4 96 -3 96 -12 5 -13 4 0 153 0 153 -15 12 -15 12 0
28 0 28 -15 6 -15 5 0 19 0 18 -42 40 -43 41 -81 2 -81 2 -12 -15z m202 -112
l17 -5 0 -15 0 -14 -23 0 -23 0 -17 -21 -18 -20 -9 -25 -10 -24 -20 0 -21 0
-5 15 -6 15 -29 0 -29 0 -20 -12 -19 -12 -27 9 -27 10 -5 13 -4 12 15 0 15 0
46 35 46 35 18 0 17 0 15 10 15 11 45 -6 45 -6 18 -5z m-343 -84 l0 -10 -7 0
-8 0 -15 10 -15 10 23 0 22 0 0 -10z m331 -1222 l-21 -22 0 12 0 12 17 20 18
20 3 -9 3 -10 -20 -23z m369 -327 l0 -9 7 -18 6 -17 -21 21 -22 22 0 5 0 5 15
0 15 0 0 -9z m98 -54 l3 -17 -15 0 -15 0 -6 10 -6 10 6 11 7 10 11 -4 12 -4 3
-16z m105 -31 l28 -20 21 13 20 13 11 -11 10 -10 -14 -17 -14 -17 21 7 22 7 4
-19 5 -19 -9 -18 -10 -17 11 -11 11 -11 0 -23 0 -23 -20 0 -20 0 0 -14 0 -14
14 -11 13 -11 17 6 16 6 0 -20 0 -20 -16 -6 -17 -6 -45 37 -46 37 -24 23 -25
23 -9 0 -8 0 -10 26 -10 26 -13 -5 -12 -4 -3 -17 -4 -18 19 -13 18 -14 -13 -1
-14 0 -24 19 -24 19 15 6 15 5 0 20 0 19 -17 6 -18 7 -22 12 -23 12 0 8 0 8
23 -7 22 -7 15 1 15 0 23 -11 23 -11 22 22 22 22 -13 20 -12 20 0 5 0 6 13 -7
12 -8 28 -20z m187 19 l0 -15 -14 0 -15 0 -5 9 -5 8 6 7 6 6 14 0 13 0 0 -15z
m108 -3 l4 -12 -13 0 -12 0 -12 -17 -12 -16 -12 8 -13 7 23 24 23 24 10 -3 10
-3 4 -12z m134 -29 l18 -16 0 -11 0 -11 45 -25 45 -25 -3 -10 -4 -10 -22 -3
-22 -3 23 -25 23 -24 10 0 10 0 24 -25 24 -26 -7 -6 -7 -7 -19 12 -20 12 -14
0 -14 0 -11 14 -12 15 -41 20 -41 20 -9 -5 -8 -5 0 -20 0 -19 -20 -1 -20 -2
-10 -1 -11 -1 -12 25 -12 24 -25 6 -25 6 -3 22 -3 22 -15 0 -15 0 -10 -30 -11
-30 -10 0 -10 0 -5 20 -5 20 -14 0 -14 0 0 14 0 15 11 7 11 6 11 -11 11 -11
17 0 17 0 5 20 5 20 18 0 18 0 23 22 23 21 11 -31 10 -30 16 -7 16 -6 10 10
10 10 -16 7 -17 6 0 11 0 10 17 19 16 18 10 0 10 0 19 -17z m-242 -27 l0 -15
-11 -7 -11 -7 -9 14 -9 14 0 8 0 7 20 0 20 0 0 -14z m268 -178 l21 -23 3 -35
3 -35 22 -3 22 -3 12 -15 12 -15 18 17 18 16 11 -7 12 -7 -5 -24 -4 -24 11 0
12 0 22 16 23 16 3 -3 3 -4 16 -25 17 -24 0 -48 0 -47 -9 -5 -8 -5 -7 -64 -6
-64 -16 -54 -16 -54 4 -137 5 -137 -11 -12 -11 -12 16 6 17 6 22 -24 23 -24
-6 -36 -6 -37 -12 -14 -12 -15 -26 3 -26 3 -2 50 -2 50 -1 10 -2 10 -7 -29 -6
-29 -12 -4 -11 -4 -7 20 -6 21 12 35 13 34 -19 21 -18 20 -8 0 -7 0 -7 -57 -6
-58 0 -60 0 -60 0 -54 1 -54 -5 -6 -6 -5 -21 22 -22 22 18 13 18 13 -3 20 -4
19 -28 3 -27 3 -6 25 -7 26 6 50 6 49 -12 -4 -12 -4 4 -72 3 -71 -12 -15 -12
-15 -16 0 -15 0 7 105 7 105 -15 0 -16 0 0 -34 0 -33 -21 -27 -20 -26 -15 0
-14 0 0 18 0 17 -14 40 -14 39 -9 3 -9 3 -14 -25 -13 -25 -23 0 -23 0 6 63 5
62 -16 14 -16 13 -17 -7 -18 -6 16 -12 16 -12 7 -62 7 -63 -15 0 -15 0 -6 -21
-7 -20 19 -14 18 -14 -12 -12 -13 -13 0 -18 0 -18 -15 0 -16 0 -6 16 -6 17 16
12 17 12 0 10 0 11 -19 5 -18 4 5 52 5 51 -24 20 -24 19 -7 1 -6 0 5 -22 6
-23 7 -10 8 -10 2 -40 3 -40 -2 -30 -1 -30 -35 -39 -35 -39 12 -14 11 -14 18
17 19 17 0 -20 0 -20 -24 -11 -24 -11 -13 15 -12 14 6 51 6 52 -10 19 -11 20
-26 -6 -27 -6 16 12 16 13 27 56 26 56 0 10 0 11 14 11 15 12 19 37 19 37 -8
20 -8 20 0 78 -1 78 11 71 11 72 14 13 14 14 0 26 0 26 16 12 16 11 0 42 -1
42 9 0 8 0 6 -16 6 -15 10 6 10 6 -6 23 -5 23 16 17 16 16 34 0 33 0 5 13 4
12 21 -12 21 -13 6 11 7 10 -13 15 -12 15 29 -7 29 -8 19 2 18 1 19 17 19 17
-20 22 -20 21 7 7 6 7 12 0 12 0 21 -22z m-188 -3 l0 -15 -9 0 -10 0 -5 9 -5
8 6 7 6 6 9 0 8 0 0 -15z m-245 -26 l5 -8 -10 -6 -11 -7 -14 12 -15 12 0 8 0
8 20 -5 20 -5 5 -9z m695 -35 l0 -16 -12 4 -12 4 -4 12 -4 12 16 0 16 0 0 -16z
m120 -19 l0 -25 -9 0 -10 0 -6 10 -7 11 6 14 5 15 11 0 10 0 0 -25z m30 -60
l0 -25 -9 0 -10 0 -5 9 -6 9 6 16 6 16 9 0 9 0 0 -25z m-644 -811 l2 -69 7
-31 7 -32 -11 -6 -11 -7 -12 25 -11 26 -19 0 -18 0 0 10 0 9 20 35 19 35 -9 6
-10 6 0 29 0 28 13 5 12 5 9 -2 10 -2 2 -70z m-373 7 l-18 -31 -7 0 -8 0 0 15
0 14 22 21 22 20 3 -4 4 -3 -18 -32z m-303 -1 l0 -30 -15 0 -15 0 0 23 0 24 7
6 6 7 9 0 8 0 0 -30z m1088 -46 l3 -19 10 -27 11 -26 17 -5 18 -4 -6 -39 -6
-39 -10 0 -9 0 -11 37 -10 37 -13 13 -12 12 -20 -12 -20 -12 0 39 0 40 16 16
16 16 12 -4 11 -4 3 -19z m114 -22 l5 -49 -6 -42 -6 -42 -10 -2 -10 -2 -8 55
-8 55 11 38 11 37 8 0 8 0 5 -48z m68 2 l0 -12 -13 -11 -14 -11 -6 7 -7 6 0
27 0 27 7 7 7 7 13 -17 13 -18 0 -12z m-1324 -14 l-2 -50 -12 -12 -12 -12 -4
5 -4 4 -2 40 -3 40 2 18 1 17 19 0 19 0 -2 -50z m434 19 l0 -19 -20 0 -20 0
-12 -27 -11 -28 2 -28 1 -28 -20 11 -20 11 0 9 0 9 10 6 10 6 0 34 0 33 33 20
32 19 8 -4 7 -4 0 -20z m1000 17 l0 -14 -15 -6 -15 -5 0 -16 0 -15 -10 0 -10
0 0 15 0 15 12 20 13 20 12 0 13 0 0 -14z m-1295 -45 l-6 -21 -9 0 -8 0 -6 16
-6 17 11 14 12 14 10 -10 9 -9 -7 -21z m1347 -23 l-11 -11 -7 16 -6 17 7 18 7
17 11 -23 10 -23 -11 -11z m-622 21 l0 -11 -40 -41 -40 -40 -8 7 -7 8 18 12
17 13 0 8 0 9 22 23 21 23 9 0 8 0 0 -11z m-632 -90 l-3 -34 -10 2 -10 2 -3
16 -4 17 7 25 6 26 10 -10 10 -10 -3 -34z m778 -10 l6 -10 -24 -19 -23 -19 -7
7 -6 7 5 26 5 27 19 -5 19 -5 6 -9z m-946 -45 l0 -14 -14 0 -15 0 -5 9 -6 9 6
16 6 17 14 -12 14 -11 0 -14z m252 -20 l-4 -25 -12 4 -11 4 -3 25 -3 26 19 -5
19 -5 -5 -24z"/>
<path d="M3050 2974 l0 -16 12 4 12 4 4 12 4 12 -16 0 -16 0 0 -16z"/>
<path d="M3204 2126 l-7 -17 11 -11 11 -11 7 17 7 17 -11 11 -11 11 -7 -17z"/>
<path d="M3084 2106 l-5 -14 3 -28 3 -27 13 -5 12 -4 0 41 0 40 -10 6 -10 6
-6 -15z"/>
<path d="M2967 2023 l-4 -8 -1 -47 -2 -48 10 0 10 0 1 8 2 7 1 43 2 43 -7 5
-8 4 -4 -7z"/>
<path d="M3122 2018 l-12 -12 0 -18 0 -18 8 0 8 0 17 20 17 20 0 10 0 10 -13
0 -13 0 -12 -12z"/>
<path d="M7134 3795 l-19 -14 -27 -1 -27 0 -15 -15 -15 -15 -24 0 -25 0 -6
-15 -5 -15 -20 0 -20 0 -8 -13 -8 -13 -41 -32 -42 -32 -7 0 -8 0 -38 -32 -39
-33 -35 -28 -35 -29 0 -10 0 -9 -24 -32 -24 -32 -7 -37 -7 -38 -9 0 -9 0 0
-15 0 -15 29 0 30 0 6 23 7 22 18 41 18 40 16 13 16 13 0 -26 0 -26 -12 -20
-12 -19 13 -25 14 -25 -6 -31 -7 -31 19 -42 19 -42 7 -22 6 -22 19 -6 20 -6
10 6 10 6 0 39 0 39 10 6 10 6 0 -31 0 -31 15 -5 15 -6 0 -19 0 -20 16 -6 15
-6 11 11 10 10 -9 56 -10 57 8 5 8 5 27 49 27 49 13 5 14 5 0 10 0 9 -22 7
-23 7 18 5 18 5 14 -12 15 -12 6 17 7 16 26 -6 26 -6 26 -31 26 -31 21 12 21
11 7 22 6 23 16 18 15 17 9 0 8 0 0 -24 0 -25 9 -5 9 -6 12 15 12 15 9 0 9 0
0 -30 0 -30 15 0 15 0 0 22 0 22 36 31 36 32 -11 21 -12 22 -9 0 -10 0 0 15 0
15 26 0 26 0 19 -22 18 -23 1 -18 0 -18 15 -5 15 -6 0 -10 0 -11 -17 -13 -18
-13 -17 -1 -18 0 0 10 0 10 -25 0 -25 0 0 -29 0 -29 -15 -6 -15 -5 0 -18 1
-18 14 -19 15 -20 0 -13 0 -13 -10 0 -10 0 -20 17 -20 17 0 13 0 12 -32 31
-33 30 -25 -6 -25 -6 -4 -4 -4 -4 23 -25 23 -25 15 0 14 0 24 -22 24 -23 0
-17 0 -17 19 -10 18 -10 36 6 37 6 24 -17 25 -16 26 0 25 0 0 13 0 13 -16 22
-15 22 -28 0 -27 0 -12 12 -12 12 0 12 0 13 23 3 22 3 0 20 0 20 20 23 19 22
12 0 12 0 6 -15 5 -15 27 0 26 0 -4 -12 -5 -13 -26 -3 -27 -3 0 15 0 16 -14 0
-15 0 1 -40 0 -40 26 -21 26 -20 15 3 16 3 0 20 0 20 8 23 8 22 17 0 17 0 13
20 13 21 9 -6 10 -6 0 -9 0 -9 -20 -6 -21 -7 7 -21 7 -22 13 -8 14 -8 0 -15 0
-16 13 4 12 5 3 21 3 22 -10 0 -11 0 0 20 0 20 9 0 9 0 6 -16 6 -15 10 6 10 6
0 20 0 20 -15 5 -15 6 0 10 0 9 37 34 37 34 4 -4 4 -4 7 -32 7 -33 12 -4 12
-4 0 25 0 25 6 16 6 16 39 -39 39 -39 -5 -14 -6 -15 13 -11 14 -11 12 8 13 8
-7 26 -6 27 -14 0 -14 0 0 10 0 10 -47 45 -46 44 16 7 17 6 0 9 0 8 -23 25
-23 24 -22 -25 -22 -25 0 -16 -1 -17 -18 -22 -19 -23 -11 0 -11 0 0 19 0 20
15 15 15 15 0 21 0 20 -27 13 -28 12 -8 13 -8 13 -25 -23 -24 -23 0 -12 0 -13
15 0 15 0 0 15 0 15 10 0 10 0 0 -15 0 -15 -10 0 -10 0 0 -11 0 -10 15 -15 15
-15 0 -20 0 -19 -15 0 -15 0 0 30 0 30 -45 0 -45 0 0 -15 0 -15 -15 0 -15 0 0
15 0 15 10 0 10 0 20 20 20 20 0 9 0 9 -41 4 -41 4 -9 -18 -10 -18 -24 0 -25
0 0 9 0 9 15 12 15 12 0 9 0 9 -25 0 -25 0 -20 -20 -20 -20 0 -10 0 -10 -15 0
-15 0 0 15 0 15 15 0 15 0 0 15 0 15 15 0 15 0 0 15 0 15 -10 0 -10 0 -20 -17
-20 -17 0 -13 0 -13 -14 0 -15 0 -3 28 -3 27 -39 3 -39 3 -9 -15 -9 -16 -9 0
-10 0 0 10 0 10 -20 20 -20 20 -9 0 -9 0 -6 -16 -6 -16 -32 2 -33 2 -22 -1
-23 -1 0 -29 0 -29 -16 -6 -15 -6 6 -10 7 -11 31 31 31 30 7 0 7 0 5 -14 6
-14 23 -4 23 -3 3 -20 3 -21 -23 -22 -24 -21 -22 6 -22 5 0 9 0 9 -23 0 -24 0
-7 -7 -7 -7 23 -17 23 -17 -30 -8 -30 -7 -27 -28 -27 -29 -10 0 -11 0 0 25 0
24 -17 9 -16 10 24 30 24 31 18 -5 17 -5 6 15 6 14 -12 21 -11 21 -17 0 -17 0
-13 -20 -13 -21 -9 6 -10 6 0 20 0 19 14 0 14 0 31 35 30 35 17 0 16 0 20 25
19 25 16 0 15 0 25 20 26 20 33 0 34 0 0 10 0 10 99 0 99 0 12 -15 13 -16 19
17 18 17 88 -2 87 -1 11 -15 11 -15 50 0 51 0 12 -15 13 -16 13 5 14 5 10 -19
11 -20 30 0 30 0 5 -15 6 -15 19 0 20 0 5 -15 6 -15 44 0 44 0 0 -7 0 -8 64
-67 65 -68 11 0 12 0 -6 -15 -5 -15 28 -42 28 -43 6 -107 6 -108 -14 -14 -14
-14 -7 -26 -6 -26 -8 0 -8 0 -6 -22 -5 -23 6 -37 6 -38 13 0 14 0 0 23 0 23
20 39 21 40 -5 26 -5 27 19 5 20 5 0 125 0 125 -15 12 -15 12 0 15 0 15 -30
30 -30 30 0 13 0 13 -41 46 -41 46 -17 0 -17 0 -22 20 -22 21 0 9 0 10 -29 0
-29 0 -6 15 -5 15 -25 0 -24 0 -6 15 -5 15 -34 0 -35 0 -12 15 -12 15 -18 0
-18 0 -12 15 -12 15 -42 0 -41 1 -19 14 -20 15 -221 0 -221 0 -20 -15z m32
-197 l24 -23 0 -17 0 -17 -10 -6 -10 -6 -9 24 -10 25 -10 7 -11 6 0 15 0 14 6
0 6 0 24 -22z m144 -53 l0 -15 15 0 15 0 0 -15 0 -15 15 0 15 0 0 -14 0 -14
-6 -16 -6 -16 -39 0 -39 0 0 9 0 9 15 12 16 13 -3 21 -3 20 -24 6 -25 6 -4 12
-4 12 31 0 31 0 0 -15z m-60 -19 l0 -3 -49 -52 -48 -51 -12 0 -11 0 0 17 0 17
22 23 21 23 24 0 23 0 0 15 0 15 15 0 15 0 0 -4z m570 -12 l0 -16 -12 4 -12 4
-4 12 -4 12 16 0 16 0 0 -16z m-2 -55 l-3 -10 -10 0 -9 0 -4 10 -4 11 17 0 17
0 -4 -11z m-198 -39 l20 -20 0 -10 0 -10 -6 0 -7 0 -23 26 -24 25 0 5 0 4 10
0 10 0 20 -20z m-760 -29 l0 -39 -14 -5 -14 -6 -4 -22 -3 -22 -13 -5 -13 -4 7
44 6 43 11 28 12 27 12 0 13 0 0 -39z m564 -26 l-6 -15 -9 6 -9 5 0 10 0 9 15
0 14 0 -5 -15z m-24 -55 l0 -10 -15 0 -15 0 0 10 0 10 15 0 15 0 0 -10z"/>
<path d="M2817 3704 l-6 -7 22 -23 22 -24 8 0 7 0 0 15 0 15 -15 0 -15 0 0 15
0 15 -8 0 -9 0 -6 -6z"/>
<path d="M7464 3646 l-7 -17 11 -11 11 -11 7 17 7 17 -11 11 -11 11 -7 -17z"/>
<path d="M2806 3591 l-6 -9 6 -17 7 -16 31 3 31 3 0 20 0 20 -32 3 -31 3 -6
-10z"/>
<path d="M7926 3575 l-29 -23 6 -16 6 -16 16 0 16 0 6 18 7 17 14 11 14 10
-14 11 -13 11 -29 -23z"/>
<path d="M2954 3525 l-6 -16 26 -24 27 -25 23 0 22 0 11 11 11 11 -5 14 -5 14
-28 0 -28 0 -6 15 -5 15 -16 0 -16 0 -5 -15z"/>
<path d="M7040 3514 l0 -16 12 4 12 4 4 12 4 12 -16 0 -16 0 0 -16z"/>
<path d="M7964 3506 l-6 -26 6 -15 5 -15 28 -12 28 -12 22 -23 22 -23 26 -10
25 -10 0 -15 0 -16 -15 -5 -15 -6 0 -14 0 -14 9 0 10 0 26 24 27 25 -7 20 -6
21 -10 0 -9 0 0 15 0 15 -22 9 -23 9 -22 26 -23 26 -14 0 -15 0 -3 22 -3 23
-17 3 -17 3 -7 -25z"/>
<path d="M3074 3435 l-6 -14 7 -11 6 -10 22 0 22 0 25 -30 25 -30 13 0 13 0 5
15 6 14 -40 41 -40 40 -27 0 -26 0 -5 -15z"/>
<path d="M2270 3395 l0 -15 15 0 15 0 0 15 0 15 -15 0 -15 0 0 -15z"/>
<path d="M7940 3396 l0 -15 19 -6 19 -6 -5 -19 -5 -20 23 -20 24 -19 23 -1 22
0 0 23 0 22 -35 38 -34 37 -25 0 -26 0 0 -14z"/>
<path d="M5742 3382 l-22 -14 0 -54 0 -54 15 0 15 0 0 45 0 45 25 0 25 0 0 13
0 12 -18 11 -17 11 -23 -15z"/>
<path d="M7730 3365 l0 -15 15 0 15 0 0 -25 0 -25 15 0 15 0 0 25 0 25 -15 0
-15 0 0 15 0 15 -15 0 -15 0 0 -15z"/>
<path d="M7850 3335 l0 -15 15 0 15 0 0 15 0 15 -15 0 -15 0 0 -15z"/>
<path d="M8147 3284 l-6 -7 5 -8 5 -9 15 0 14 0 0 15 0 15 -13 0 -14 0 -6 -6z"/>
<path d="M5327 3248 l-4 -13 5 -17 4 -18 14 0 14 0 0 30 0 30 -14 0 -14 0 -5
-12z"/>
<path d="M7614 3245 l-6 -15 -12 0 -12 0 -9 -32 -10 -33 -18 0 -18 0 -9 -15
-10 -15 0 -26 0 -27 -15 -6 -15 -5 0 -30 0 -30 -9 -5 -9 -6 -7 -37 -7 -38 -12
-15 -13 -15 -16 -43 -17 -42 0 -18 0 -18 -30 -32 -29 -33 -2 -138 -2 -138 7
-11 6 -10 -16 -17 -17 -16 12 -12 11 -11 0 -38 0 -37 11 -24 11 -25 -13 -28
-14 -28 -12 -4 -13 -4 6 46 7 45 -17 25 -16 25 0 20 0 20 -10 6 -10 6 -6 -15
-6 -16 -14 0 -14 0 0 15 0 15 -15 0 -15 0 0 -15 0 -15 14 0 14 0 5 -21 5 -20
-16 -6 -16 -7 -4 12 -4 12 -14 0 -14 0 0 -11 0 -10 30 -27 30 -28 6 -34 7 -35
7 -10 7 -10 -8 -31 -9 -32 -17 -6 -17 -7 -8 16 -9 15 -18 0 -19 0 -4 64 -4 64
-31 35 -31 35 -4 14 -5 13 -16 -14 -17 -13 0 -13 0 -13 21 -13 20 -14 0 -102
0 -103 9 0 9 0 9 16 9 16 24 -4 24 -3 3 -42 3 -43 40 0 39 0 0 -8 0 -9 -60
-63 -60 -63 0 -16 -1 -16 -10 18 -10 17 -11 0 -10 0 -54 -54 -54 -54 0 -7 0
-6 -16 -16 -15 -16 5 -14 6 -15 0 -19 0 -19 14 0 14 0 6 16 6 16 -6 24 -6 24
13 0 12 0 44 46 44 46 12 -17 12 -16 23 26 22 25 0 15 0 15 34 35 34 35 9 0 8
0 21 23 21 22 -4 65 -3 65 10 15 10 15 9 -15 10 -14 -5 -26 -6 -25 22 -28 22
-27 9 5 9 6 0 25 0 24 -15 0 -15 0 0 15 0 15 14 0 14 0 6 -16 6 -15 10 6 10 6
0 14 0 14 -16 15 -16 16 10 33 10 32 6 33 6 34 -20 5 -20 5 0 3 0 3 15 36 16
37 -7 48 -6 48 11 7 11 7 -12 18 -11 18 11 49 11 49 11 40 12 40 2 36 3 36 21
37 22 37 0 13 0 13 58 64 57 64 33 42 32 42 0 6 0 6 14 15 15 14 16 0 16 0 4
-12 4 -13 5 -96 4 -97 18 -50 18 -50 -17 -26 -18 -27 6 -9 5 -9 -11 -25 -12
-25 17 -25 16 -25 0 -25 0 -25 15 -14 14 -15 6 -28 7 -29 8 -20 8 -20 17 -57
17 -57 -4 -18 -3 -18 -21 -3 -21 -3 -6 21 -6 22 -10 -7 -11 -6 0 -20 0 -19 10
0 10 0 0 -15 0 -15 -10 0 -10 0 0 -11 0 -12 16 -12 17 -12 3 -31 4 -31 -19
-10 -18 -10 -31 45 -32 45 0 14 0 15 -11 0 -10 0 -11 -31 -11 -31 -8 14 -9 13
0 33 0 32 -15 0 -14 0 -3 -67 -3 -66 -12 -5 -13 -4 0 20 0 19 -19 17 -20 18 6
49 6 49 -15 0 -15 0 -7 -31 -6 -31 -12 4 -13 5 -3 29 -4 29 -14 17 -15 16 -20
5 -20 5 -6 -14 -6 -15 18 -13 17 -12 -6 -55 -7 -54 0 -35 -1 -35 9 -48 8 -48
10 -2 10 -2 3 35 2 35 5 23 6 23 10 -7 11 -6 -7 -48 -7 -48 30 -21 30 -21 6 0
6 0 0 23 0 23 9 9 9 10 4 30 3 30 10 0 10 0 3 -60 3 -60 11 -6 11 -7 14 5 13
5 0 24 0 25 16 24 16 25 9 -6 9 -5 0 -24 0 -24 8 -5 8 -5 17 20 17 19 14 0 15
0 28 -36 27 -36 23 26 23 27 0 28 0 27 12 12 12 12 13 0 12 0 9 -32 8 -32 11
-3 11 -4 7 20 6 21 9 0 9 0 3 -32 3 -31 13 -5 12 -4 -6 55 -6 54 19 14 20 14
8 25 7 25 10 13 10 12 22 0 21 0 23 24 23 24 -11 7 -10 6 -6 -15 -6 -16 -30 0
-30 0 5 28 6 27 6 18 7 17 -26 0 -26 0 -14 -35 -15 -35 -9 0 -10 0 -10 13 -10
12 2 32 1 31 19 21 19 21 22 0 22 0 6 6 6 6 -11 18 -12 18 14 16 13 16 -5 5
-4 5 -24 2 -24 3 -13 -26 -12 -25 -18 -16 -18 -16 -38 -16 -38 -15 -9 25 -10
25 0 34 0 34 -9 5 -8 5 -11 58 -11 58 -13 120 -12 120 3 15 2 15 21 29 20 28
-5 43 -6 42 15 21 15 22 -6 10 -6 10 23 9 23 8 11 -4 10 -4 1 -32 0 -32 3 -82
3 -83 14 0 13 0 0 25 0 25 15 0 15 0 0 -24 0 -24 -15 -6 -15 -5 0 -34 0 -34
38 -41 37 -41 58 -30 57 -31 73 2 73 1 12 -7 12 -7 0 -20 0 -19 26 -53 25 -52
6 -82 6 -83 11 0 12 0 -1 -60 0 -60 -12 0 -13 0 0 -44 0 -43 -6 -47 -7 -46
-23 0 -24 0 0 -30 0 -30 14 0 14 0 6 16 6 16 25 -24 25 -23 0 -12 0 -13 14 0
14 0 6 15 5 14 -14 9 -15 8 -5 106 -5 106 20 25 20 25 0 11 0 12 16 24 16 25
-4 67 -4 67 18 18 18 18 0 39 0 39 15 12 16 13 -2 107 -1 107 -44 41 -43 42
-67 0 -67 0 -16 -14 -16 -14 -73 -6 -72 -7 6 39 6 39 -12 22 -11 22 -15 -12
-14 -11 0 -39 0 -39 20 -12 20 -13 0 -11 0 -12 59 -7 60 -7 30 7 31 7 0 -15 0
-15 -6 -16 -6 -16 -29 0 -29 0 -21 -12 -22 -13 -4 13 -5 12 -14 0 -14 0 0 -8
0 -8 11 -11 11 -11 -6 -11 -7 -10 -17 6 -17 6 -25 23 -25 22 -30 4 -30 3 -13
28 -13 27 -10 0 -9 0 0 15 0 15 15 0 15 0 0 -15 0 -15 15 0 15 0 0 -15 0 -15
15 0 15 0 0 15 0 15 -15 0 -15 0 0 60 0 60 -25 0 -25 0 0 14 0 15 23 3 22 3 3
22 3 22 15 11 14 12 0 34 0 34 20 20 20 20 10 0 10 0 0 24 0 24 15 6 15 5 0
31 0 31 -17 -3 -18 -4 3 -27 3 -27 -26 0 -25 0 0 14 0 14 17 6 16 7 -11 11
-12 12 -12 -12 -12 -12 -28 0 -28 0 0 10 0 10 -30 0 -30 0 0 -15 0 -15 15 0
16 0 5 -14 5 -14 25 -6 24 -6 0 -25 0 -25 14 0 14 0 6 17 7 16 10 -10 11 -11
-21 -21 -21 -21 -10 0 -10 0 0 -15 0 -15 -15 0 -15 0 0 15 0 15 15 0 15 0 0
15 0 15 -14 0 -14 0 -6 15 -5 15 -20 0 -20 0 -6 -10 -7 -11 -33 7 -33 6 -23
-13 -23 -12 -4 12 -4 11 -13 0 -13 0 -4 -12 -4 -12 -17 7 -17 6 0 11 0 10 19
0 19 0 6 16 6 17 19 -17 18 -17 13 16 14 16 19 -5 19 -5 14 6 14 5 0 14 0 14
-7 1 -8 1 -60 3 -59 3 -4 11 -4 11 -24 0 -24 0 0 -14 0 -14 15 -6 15 -5 -12
-26 -11 -25 -25 0 -24 0 -31 -17 -32 -18 -23 -19 -22 -20 -11 11 -11 11 21 43
21 43 0 13 0 13 10 0 10 0 0 15 0 15 -10 0 -10 0 0 15 0 15 -10 0 -11 0 -5
-15z m156 -145 l0 -10 -20 0 -20 0 0 10 0 10 20 0 20 0 0 -10z m-170 -60 l0
-11 -25 -27 -25 -27 0 -10 -1 -10 -18 -22 -19 -23 -12 0 -12 0 6 28 7 27 19
17 20 16 0 20 0 20 13 5 12 5 18 1 17 1 0 -10z m402 -5 l0 -9 -11 -4 -11 -4 0
17 0 17 11 -4 11 -3 0 -10z m-187 -76 l-7 -39 -8 0 -7 0 -7 41 -7 41 12 15 12
14 10 -16 9 -16 -7 -40z m215 16 l0 -15 -15 0 -15 0 0 15 0 15 15 0 15 0 0
-15z m445 -205 l6 -10 -7 -36 -7 -36 -21 -19 -21 -20 -1 -29 -2 -30 -11 -14
-12 -14 -20 5 -20 6 6 41 7 41 8 9 9 9 -11 16 -10 16 22 38 22 37 28 0 29 0 6
-10z m5 -332 l0 -18 -15 0 -15 0 0 23 0 24 7 6 7 7 8 -12 8 -13 0 -17z m-530
-158 l0 -20 -15 0 -15 0 0 20 0 20 15 0 15 0 0 -20z m24 -56 l7 -26 -13 -15
-12 -15 -7 19 -8 18 0 23 -1 22 14 0 14 0 6 -26z m-114 -54 l0 -30 -14 0 -14
0 -11 14 -12 14 23 16 22 16 3 0 3 0 0 -30z m166 -46 l-7 -17 -11 11 -11 11 7
17 7 17 11 -11 11 -11 -7 -17z m-696 11 l0 -15 -10 0 -10 0 0 15 0 15 10 0 10
0 0 -15z m365 -15 l7 -11 -13 -15 -12 -15 -10 10 -10 10 6 15 6 16 10 0 10 0
6 -10z m213 -13 l3 -17 -15 0 -16 0 0 21 0 21 13 -4 12 -5 3 -16z"/>
<path d="M8035 3249 l-7 -10 5 -6 6 -5 10 7 11 6 0 10 0 9 -9 0 -10 0 -6 -11z"/>
<path d="M5960 3186 l0 -14 15 -6 15 -5 0 -42 0 -41 13 4 12 5 3 56 3 57 -31
0 -30 0 0 -14z"/>
<path d="M2960 3125 l0 -15 15 0 15 0 0 15 0 15 -15 0 -15 0 0 -15z"/>
<path d="M5835 3100 l-6 -10 15 -6 15 -6 11 7 10 6 -5 10 -6 9 -14 0 -14 0 -6
-10z"/>
<path d="M5576 3080 l-5 -15 -3 -20 -3 -20 -28 -3 -27 -3 0 -14 0 -13 15 -6
15 -5 0 -24 0 -24 7 -6 6 -7 22 24 22 24 5 46 5 46 -13 17 -13 18 -5 -15z"/>
<path d="M5900 3065 l0 -15 15 0 15 0 0 15 0 15 -15 0 -15 0 0 -15z"/>
<path d="M5897 3014 l-6 -7 5 -8 5 -9 20 0 19 0 0 15 0 15 -18 0 -19 0 -6 -6z"/>
<path d="M3468 2993 l-18 -4 0 -9 0 -8 65 -63 65 -62 6 -20 7 -21 12 -13 13
-13 4 -12 4 -12 12 8 12 7 0 20 0 19 -10 0 -10 0 -6 27 -7 27 -8 11 -8 10 -32
38 -31 37 -13 0 -13 0 -13 18 -14 19 -17 -4z"/>
<path d="M5611 2931 l-15 -9 13 -15 12 -15 -13 -22 -13 -21 15 -9 15 -9 0 -23
0 -23 17 -3 16 -3 4 67 3 68 -13 13 -13 13 -7 0 -7 0 -14 -9z"/>
<path d="M5957 2894 l-6 -7 5 -8 5 -9 15 0 14 0 0 15 0 15 -13 0 -14 0 -6 -6z"/>
<path d="M3450 2855 l0 -4 20 -11 20 -11 0 16 0 15 -20 0 -20 0 0 -5z"/>
<path d="M5690 2796 l0 -45 -54 2 -55 2 -5 18 -5 19 -18 -4 -18 -3 -3 -22 -3
-22 20 -18 21 -17 0 -22 0 -22 15 -12 15 -12 0 -18 0 -18 15 -6 15 -5 0 -56 0
-55 15 0 15 0 0 -40 0 -39 14 -8 13 -8 6 -30 6 -30 10 -47 10 -47 9 -18 9 -18
18 -55 18 -55 9 -60 9 -60 5 -33 6 -32 -12 -15 -13 -15 15 -18 15 -17 -8 -95
-8 -95 -7 -45 -6 -45 -8 -9 -9 -9 6 -50 6 -50 -22 6 -22 5 11 -13 10 -12 -5
-16 -6 -15 -29 -4 -29 -4 -7 45 -7 46 -15 27 -15 26 17 59 18 58 11 24 12 24
-13 5 -13 4 -10 25 -9 24 -9 -5 -8 -6 -1 -57 0 -57 -17 -12 -17 -13 0 -61 0
-61 -16 3 -17 3 -5 35 -5 35 -6 -10 -6 -10 9 -65 9 -65 5 -50 5 -50 -1 -28 0
-29 12 4 13 5 3 64 3 64 9 9 9 9 12 -27 13 -27 -12 -57 -12 -57 6 -22 6 -23
-16 0 -16 0 0 15 0 15 -15 0 -15 0 0 -15 0 -15 15 0 15 0 -2 -32 -3 -33 20 0
20 0 -1 29 0 30 19 19 19 19 -6 23 -6 24 11 7 12 7 9 -16 9 -16 15 6 15 6 14
-19 14 -19 18 11 18 11 9 27 10 26 -19 13 -18 14 7 11 7 12 10 0 10 0 10 -22
9 -23 -4 60 -5 60 7 -11 7 -10 19 -7 19 -7 -6 -82 -5 -82 9 -18 10 -18 9 0 10
0 0 23 0 23 15 20 14 19 1 23 0 22 9 0 9 0 7 -30 7 -30 6 0 5 0 19 17 19 17 8
-13 9 -13 -6 -22 -5 -21 -14 -8 -13 -8 0 -24 0 -25 15 0 15 0 0 29 0 29 15 6
15 5 0 24 0 25 15 12 15 12 0 23 0 23 -15 12 -15 12 0 19 0 19 -12 20 -13 20
20 14 20 15 17 -5 18 -5 16 41 16 41 18 9 18 10 17 -26 16 -25 19 -19 19 -19
-16 -41 -17 -42 11 -16 10 -17 -2 -65 -2 -65 5 -12 4 -13 13 0 12 0 26 20 25
20 31 0 30 0 9 16 9 17 21 -5 21 -6 9 12 8 11 2 49 3 49 22 18 22 18 18 1 17
0 0 15 0 15 15 0 15 0 0 -15 0 -14 -12 -8 -13 -8 -17 -32 -17 -33 10 -5 9 -6
18 6 17 5 16 38 17 37 6 20 7 20 15 -19 14 -19 -7 -40 -6 -40 -19 -19 -18 -18
-35 0 -35 0 -40 -42 -41 -41 3 -21 3 -21 18 -3 17 -3 6 18 7 18 30 32 31 33
18 0 18 0 0 -24 0 -25 10 -6 11 -7 15 13 15 13 -6 48 -7 48 12 0 12 0 19 23
18 22 1 36 0 37 15 6 15 5 0 33 0 33 8 12 7 12 28 10 28 11 25 0 25 0 -3 18
-4 17 -37 -3 -37 -4 0 9 1 8 19 23 20 24 47 -4 48 -3 3 18 3 17 -40 0 -40 0
-9 17 -10 16 -16 -6 -16 -6 5 -13 5 -13 -60 -65 -60 -65 0 -7 0 -8 -14 0 -14
0 -6 16 -6 15 -10 -6 -10 -6 0 -24 0 -23 -6 -16 -6 -16 -19 0 -18 0 -9 -16 -9
-16 -23 4 -23 3 -5 13 -4 12 12 0 11 0 25 28 25 27 24 26 24 26 -6 7 -6 6 -18
0 -18 0 -11 -20 -11 -21 -10 6 -9 6 0 15 0 14 13 0 12 1 18 25 19 25 -5 6 -6
5 -28 -22 -27 -21 -28 -42 -28 -42 0 -11 0 -12 -24 -6 -25 -6 -7 -48 -7 -47
-4 -8 -5 -8 -14 12 -14 11 0 43 0 43 16 12 15 13 14 33 13 32 21 12 22 11 -7
10 -6 10 -18 -6 -18 -6 -7 11 -7 11 16 18 16 18 -7 6 -6 7 -23 0 -23 0 -7 12
-8 13 -6 -25 -6 -25 -19 0 -20 0 -3 35 -3 35 -10 10 -9 9 0 43 0 43 -14 0 -14
0 -11 -31 -11 -32 0 -25 0 -24 21 5 22 6 -11 -11 -12 -12 22 -23 22 -23 -20
-14 -19 -15 18 -6 17 -7 0 -13 0 -13 -15 -6 -14 -5 -14 13 -13 13 -67 -1 -67
-1 0 -17 0 -16 -6 -16 -6 -16 -19 0 -19 0 -2 83 -2 82 2 40 3 40 24 25 25 26
0 12 0 12 -10 0 -9 0 -9 -16 -9 -17 -12 7 -11 7 0 24 0 24 10 27 11 27 -26 27
-25 26 0 15 -1 14 -14 19 -15 19 -24 76 -24 76 -6 56 -6 56 15 19 14 19 1 19
0 18 -30 35 -30 34 0 9 0 10 -31 50 -31 50 -14 0 -15 0 3 19 3 19 -24 26 -24
26 -24 0 -23 0 0 20 0 21 15 5 15 6 0 44 0 44 -15 0 -15 0 0 -44z m-3 -156 l5
-39 31 -3 30 -3 5 -12 4 -13 -31 0 -30 0 -6 -9 -5 -10 35 -28 35 -28 0 -7 0
-7 -20 -6 -20 -6 0 -14 0 -14 19 -18 18 -18 -5 -38 -4 -38 -17 3 -16 4 3 19 4
19 -17 12 -16 12 -2 38 -3 38 -12 4 -12 4 0 73 0 73 -13 5 -14 5 3 39 2 38 1
4 1 5 21 -23 21 -22 5 -39z m153 -382 l0 -19 17 -52 16 -52 8 -11 9 -11 16
-44 17 -44 9 -70 8 -70 10 -95 10 -95 0 -57 -1 -56 10 -7 11 -6 0 -35 0 -35
-16 -24 -16 -25 -24 0 -24 0 0 -9 0 -10 10 -6 10 -6 21 12 21 11 15 -15 15
-15 -7 -11 -7 -12 -20 7 -20 6 -8 -12 -8 -12 -21 21 -21 21 0 15 0 15 10 0 10
0 0 34 0 35 10 6 9 6 -20 35 -20 36 18 14 18 14 -17 11 -18 10 0 19 0 19 10 6
10 6 0 23 0 22 -12 12 -11 11 10 23 10 23 -3 60 -3 60 -19 60 -20 60 -17 70
-16 70 -9 42 -10 42 0 4 0 5 20 -5 20 -5 0 -20z m515 -630 l5 -13 -8 -29 -8
-30 -11 -3 -11 -4 -6 19 -7 19 10 27 11 26 10 0 11 0 4 -12z m-61 -83 l0 -35
-11 -11 -11 -11 -26 18 -25 19 -1 26 0 25 28 10 27 11 10 -9 9 -8 0 -35z
m-421 14 l6 -21 -6 -14 -5 -14 -14 0 -14 0 0 28 0 29 7 6 6 7 8 0 7 0 5 -21z
m563 -125 l-7 -17 -11 11 -11 11 7 17 7 17 11 -11 11 -11 -7 -17z m-134 9 l18
-16 0 -32 0 -33 15 -12 15 -12 0 -10 0 -10 -26 5 -26 5 -5 -14 -5 -14 -7 0 -6
0 0 80 0 80 4 0 4 0 19 -17z m-557 -81 l0 -12 -10 -1 -10 0 -3 17 -4 16 14 -4
13 -5 0 -11z m244 9 l15 -9 -13 -16 -13 -16 -19 0 -19 0 0 25 0 25 18 0 17 0
14 -9z"/>
<path d="M6020 2825 l0 -15 15 0 15 0 0 15 0 15 -15 0 -15 0 0 -15z"/>
<path d="M6020 2750 l0 -30 15 0 15 0 0 30 0 30 -15 0 -15 0 0 -30z"/>
<path d="M6202 2693 l3 -78 10 2 10 3 0 72 0 71 -13 5 -13 4 3 -79z"/>
<path d="M6142 2629 l3 -24 10 3 10 2 0 17 0 16 -13 5 -14 4 4 -23z"/>
<path d="M6296 2575 l-5 -15 -25 0 -24 0 -4 -37 -5 -38 8 -20 8 -20 0 48 1 48
15 6 16 6 14 -19 14 -19 1 22 0 21 6 16 6 16 -10 0 -10 0 -6 -15z"/>
<path d="M7070 2559 l0 -11 34 -34 34 -34 11 0 11 0 0 10 0 11 -32 34 -31 35
-14 0 -13 0 0 -11z"/>
<path d="M6145 2530 l-6 -10 15 -6 16 -6 16 6 15 6 -6 10 -6 10 -19 0 -19 0
-6 -10z"/>
<path d="M7587 2503 l-7 -6 0 -23 0 -22 -16 -6 -15 -6 6 -10 6 -10 39 36 39
37 -5 9 -5 8 -18 0 -18 0 -6 -7z"/>
<path d="M7940 2460 l0 -20 15 0 15 0 0 20 0 20 -15 0 -15 0 0 -20z"/>
<path d="M7282 2426 l3 -27 10 1 10 0 0 22 0 21 -13 5 -14 4 4 -26z"/>
<path d="M6126 2413 l-6 -6 0 -51 0 -50 16 23 17 23 33 -36 34 -37 0 14 0 14
-30 29 -29 29 -1 21 0 22 -14 5 -14 6 -6 -6z"/>
<path d="M6938 2367 l-48 -52 15 -11 15 -11 0 -27 0 -26 15 0 15 0 0 -9 0 -9
-15 -12 -15 -12 0 -9 0 -9 20 0 21 0 4 -12 4 -13 6 -47 6 -48 13 0 14 0 6 23
6 22 0 39 0 38 -35 35 -35 35 0 33 0 33 15 12 15 12 0 20 0 19 15 5 15 6 0 14
0 14 -12 -1 -13 0 -47 -52z"/>
<path d="M7464 2407 l-5 -15 3 -26 3 -27 10 -2 10 -2 3 28 3 27 15 0 16 0 -4
13 -5 12 -21 3 -22 3 -6 -14z"/>
<path d="M6210 2390 l0 -20 15 0 15 0 0 -10 0 -10 15 0 15 0 0 5 0 6 -16 24
-16 25 -14 0 -14 0 0 -20z"/>
<path d="M5940 2364 l0 -14 13 -22 12 -21 33 -33 32 -33 0 -9 0 -9 40 -32 40
-32 11 7 11 6 -23 24 -22 23 6 15 6 15 -12 25 -12 26 -17 0 -16 0 -5 13 -5 12
-1 -12 -1 -13 -15 0 -16 0 -6 18 -7 17 -23 22 -23 22 0 -15z"/>
<path d="M3650 2345 l0 -15 15 0 15 0 0 15 0 15 -15 0 -15 0 0 -15z"/>
<path d="M6835 2351 l-5 -10 8 -5 9 -5 7 6 6 6 0 9 0 8 -9 0 -10 0 -6 -9z"/>
<path d="M7573 2336 l-23 -24 0 -9 0 -10 25 -28 24 -29 6 19 7 20 15 28 15 28
-6 15 -5 14 -18 0 -18 0 -22 -24z"/>
<path d="M7676 2352 l-6 -11 11 -6 10 -7 6 6 7 6 -11 11 -11 11 -6 -10z"/>
<path d="M8180 2320 l0 -40 20 -20 20 -20 10 0 10 0 0 14 0 14 -15 6 -15 5 0
41 0 40 -15 0 -15 0 0 -40z"/>
<path d="M6804 2315 l-6 -14 7 -11 6 -10 10 0 9 0 0 25 0 25 -10 0 -11 0 -5
-15z"/>
<path d="M8586 2247 l-26 -31 0 -12 0 -12 14 -11 13 -11 12 14 11 13 -6 16 -5
15 20 7 21 6 0 14 0 13 -14 5 -14 6 -26 -32z"/>
<path d="M5332 2248 l-12 -12 0 -9 0 -8 42 -37 42 -37 41 -42 41 -43 12 0 12
0 0 25 0 25 -20 20 -20 20 -15 0 -14 0 -40 43 -40 42 -1 13 0 12 -8 0 -8 0
-12 -12z"/>
<path d="M8804 2205 l-6 -15 -35 0 -34 0 -24 -27 -24 -28 -1 -17 0 -18 -17
-20 -17 -20 -23 0 -23 0 0 -10 0 -10 -15 0 -15 0 0 6 0 6 16 27 16 28 -18 21
-18 22 -9 0 -9 0 -49 -50 -49 -51 0 -25 0 -25 18 3 17 3 0 20 0 20 23 25 22
24 0 -57 0 -56 -10 -6 -10 -6 0 -20 0 -19 10 0 10 0 36 35 36 35 8 0 7 0 24
-35 24 -35 11 0 12 0 6 16 6 16 0 26 1 27 15 20 15 20 14 -19 14 -19 16 6 15
6 0 25 0 24 15 6 15 5 0 40 0 39 15 6 15 5 0 21 0 20 -20 0 -21 0 -5 -15z
m-47 -89 l-16 -16 -5 0 -6 0 0 19 0 19 13 5 12 5 9 -9 9 -8 -16 -15z"/>
<path d="M8240 2195 l0 -15 15 0 15 0 0 15 0 15 -15 0 -15 0 0 -15z"/>
<path d="M8307 2173 l-7 -6 0 -19 0 -19 -15 -5 -15 -6 0 -29 0 -29 -16 0 -17
0 6 40 5 39 -13 11 -13 11 -17 -23 -16 -23 -13 18 -13 17 -17 0 -16 0 -10 -26
-10 -25 0 -41 0 -41 -21 19 -20 18 -9 -14 -9 -15 5 -21 5 -20 -15 -13 -16 -13
0 -24 0 -24 15 0 15 0 0 10 0 10 14 0 15 0 3 -27 3 -28 10 2 10 2 3 23 4 23
15 17 15 16 5 44 5 43 10 23 11 22 14 0 13 0 0 -36 0 -36 -22 -18 -22 -17 41
-27 42 -28 17 4 17 3 24 44 23 44 0 19 0 18 15 0 15 0 0 30 0 30 -15 0 -15 0
0 30 0 30 -8 0 -9 0 -6 -7z m23 -83 l0 -30 -15 0 -15 0 0 30 0 30 15 0 15 0 0
-30z"/>
<path d="M5212 2138 l-12 -12 0 -13 0 -12 26 -26 26 -26 16 6 15 5 14 -20 15
-21 16 6 15 6 19 -20 18 -20 0 -17 0 -17 26 -23 25 -24 25 0 24 0 0 8 0 9 -85
89 -85 89 0 12 0 13 -20 0 -21 0 -5 -15 -6 -15 -9 0 -9 0 0 19 0 20 -8 5 -9 5
-11 -11z"/>
<path d="M6770 2120 l0 -20 15 0 15 0 0 20 0 20 -15 0 -15 0 0 -20z"/>
<path d="M6890 2065 l0 -56 26 -24 27 -25 18 0 19 0 0 -40 0 -40 14 0 14 0 16
25 16 24 0 21 0 20 -25 0 -25 0 0 24 0 25 -12 8 -13 8 -20 0 -20 0 -3 43 -3
42 -15 0 -14 0 0 -55z"/>
<path d="M2053 2085 l-6 -16 18 -12 17 -13 4 -70 4 -69 6 -14 5 -14 9 9 9 9 3
75 2 75 -24 28 -24 27 -8 0 -9 0 -6 -15z"/>
<path d="M5066 2093 l-6 -6 0 -14 0 -13 15 0 15 0 0 14 0 15 -9 5 -8 5 -7 -6z"/>
<path d="M2512 2069 l3 -24 10 3 10 2 0 17 0 16 -13 5 -14 4 4 -23z"/>
<path d="M6807 2084 l-7 -7 0 -29 0 -28 13 0 13 0 20 14 19 15 -11 18 -11 18
-15 3 -14 3 -7 -7z"/>
<path d="M6153 2069 l-23 -8 0 -16 0 -15 19 0 19 0 12 15 13 16 -9 8 -9 9 -22
-9z"/>
<path d="M3857 2064 l-7 -7 0 -20 0 -20 -17 -12 -17 -13 13 -16 14 -17 29 28
29 28 -3 25 -3 25 -15 3 -16 3 -7 -7z"/>
<path d="M2360 2030 l0 -30 15 0 15 0 0 30 0 30 -15 0 -15 0 0 -30z"/>
<path d="M5122 2038 l-12 -12 0 -17 0 -17 14 -5 14 -6 4 -23 3 -23 20 0 20 0
2 25 3 25 -28 33 -27 33 -13 -13z"/>
<path d="M6213 2028 l12 -22 20 -18 20 -17 18 -1 17 0 0 14 0 14 -17 6 -18 6
-32 20 -33 20 13 -22z"/>
<path d="M1877 2033 l-7 -6 0 -29 0 -29 15 -5 15 -6 0 -30 0 -30 23 -24 22
-24 13 0 12 0 0 40 0 40 15 0 15 0 0 -10 0 -10 15 0 15 0 0 13 0 14 -24 22
-24 23 -12 -23 -12 -22 -18 24 -18 23 -6 28 -5 28 -14 0 -14 0 -6 -7z"/>
<path d="M3952 2018 l4 -12 12 -4 12 -4 0 16 0 16 -16 0 -16 0 4 -12z"/>
<path d="M6080 2014 l0 -15 17 3 16 3 5 13 4 12 -21 0 -21 0 0 -16z"/>
<path d="M4017 1993 l-7 -6 0 -9 0 -8 15 0 15 0 0 15 0 15 -8 0 -9 0 -6 -7z"/>
<path d="M4910 1986 l0 -15 9 -5 9 -6 11 14 11 13 -7 6 -6 7 -14 0 -13 0 0
-14z"/>
<path d="M3767 1966 l-6 -15 13 -10 12 -11 12 12 12 12 -11 13 -11 13 -8 0 -8
0 -5 -14z"/>
<path d="M6129 1954 l-13 -16 17 -30 17 -30 1 -31 1 -32 10 64 9 64 -5 14 -5
13 -9 0 -10 0 -13 -16z"/>
<path d="M8177 1933 l-7 -6 11 -14 12 -13 13 11 14 11 0 9 0 9 -18 0 -19 0 -6
-7z"/>
<path d="M4203 1885 l0 -50 4 28 4 27 -4 23 -4 22 0 -50z"/>
<path d="M3801 1906 l-11 -13 14 -12 13 -11 12 14 11 13 -14 12 -13 11 -12
-14z"/>
<path d="M3944 1905 l-7 -16 11 -11 11 -11 16 7 16 6 -3 17 -3 18 -18 3 -17 3
-6 -16z"/>
<path d="M4893 1904 l-7 -18 14 -4 13 -5 34 -34 33 -35 15 6 15 5 0 15 0 15
-14 8 -14 8 -4 25 -3 25 -38 3 -37 3 -7 -17z"/>
<path d="M6090 1905 l0 -15 10 0 10 0 0 15 0 15 -10 0 -10 0 0 -15z"/>
<path d="M4094 1888 l-7 -22 -29 -29 -29 -29 4 -12 4 -11 15 -3 15 -3 37 37
36 36 0 13 0 13 -6 16 -6 16 -13 0 -14 0 -7 -22z"/>
<path d="M6800 1895 l0 -15 -23 0 -23 0 -37 -38 -37 -38 0 -22 0 -22 -15 0
-15 0 0 -30 0 -30 -15 0 -15 0 0 -29 0 -29 -17 -6 -16 -7 21 -19 21 -20 11 0
10 0 0 55 0 55 15 0 15 0 0 30 0 30 10 0 10 0 50 53 50 52 0 8 0 7 30 0 30 0
0 15 0 15 -30 0 -30 0 0 -15z"/>
<path d="M6296 1885 l-5 -14 8 -6 9 -5 6 15 5 14 -8 6 -9 5 -6 -15z"/>
<path d="M5176 1873 l-7 -16 11 -11 10 -10 18 17 17 18 -15 9 -15 10 -6 0 -7
0 -6 -17z"/>
<path d="M2030 1825 l0 -55 15 0 15 0 0 55 0 55 -15 0 -15 0 0 -55z"/>
<path d="M3710 1820 l0 -60 15 0 15 0 0 19 0 20 15 15 15 15 0 9 0 9 -18 16
-19 17 -11 0 -12 0 0 -60z"/>
<path d="M5462 1852 l-24 -27 -116 0 -117 0 0 -20 0 -20 87 3 86 4 10 -18 9
-17 22 6 21 5 7 -11 8 -12 0 -30 1 -30 -11 -7 -10 -8 -32 0 -32 0 -10 17 -9
17 -26 -13 -25 -14 -33 -1 -33 -1 0 -20 0 -20 122 0 121 0 7 -7 6 -6 -14 -29
-15 -29 8 -14 8 -15 3 -30 2 -30 -1 -37 -2 -38 -15 0 -15 0 -1 38 -1 37 2 33
2 32 -15 0 -15 0 -1 -52 0 -53 -5 -60 -4 -60 13 -21 13 -21 4 -29 3 -29 16 -3
15 -3 23 47 24 46 -9 77 -8 76 2 37 1 36 22 41 21 41 24 0 24 0 0 45 0 45 -15
0 -15 0 0 -22 0 -23 -9 -13 -8 -14 -23 29 -22 28 6 34 5 33 5 5 5 5 10 -7 11
-6 0 -22 1 -22 9 15 9 16 -3 54 -3 55 -24 0 -24 0 -3 -27 -3 -28 -25 0 -24 0
0 13 1 12 13 18 13 17 12 0 11 0 0 15 0 15 -12 -1 -13 0 -23 -27z m13 -502 l6
-20 -6 -10 -6 -10 -10 5 -9 6 0 25 0 24 9 0 10 0 6 -20z"/>
<path d="M5575 1869 l-7 -10 6 -6 6 -7 11 11 11 11 -10 6 -11 6 -6 -11z"/>
<path d="M3891 1851 l-14 -9 7 -11 7 -11 20 0 20 0 -3 17 -3 16 -10 4 -10 3
-14 -9z"/>
<path d="M3947 1785 l-38 -45 -10 0 -9 0 6 25 6 25 -21 0 -21 0 0 -23 0 -23
-20 -17 -20 -17 0 -34 0 -34 14 -5 13 -5 88 84 87 84 -6 15 -5 15 -13 0 -13
-1 -38 -44z"/>
<path d="M1970 1805 l0 -15 15 0 15 0 0 15 0 15 -15 0 -15 0 0 -15z"/>
<path d="M4910 1805 l0 -15 15 0 15 0 0 15 0 15 -15 0 -15 0 0 -15z"/>
<path d="M5600 1795 l0 -25 15 0 15 0 0 25 0 25 -15 0 -15 0 0 -25z"/>
<path d="M5360 1745 l0 -15 15 0 15 0 0 15 0 15 -15 0 -15 0 0 -15z"/>
<path d="M6360 1750 l0 -10 21 0 20 0 -6 10 -6 10 -15 0 -14 0 0 -10z"/>
<path d="M5240 1715 l0 -15 15 0 15 0 0 15 0 15 -15 0 -15 0 0 -15z"/>
<path d="M5690 1715 l0 -15 15 0 15 0 0 15 0 15 -15 0 -15 0 0 -15z"/>
<path d="M7160 1703 l-1 -8 -20 -24 -19 -24 -18 16 -18 17 -43 -44 -43 -44 23
-12 23 -13 -16 -11 -15 -11 -6 -30 -6 -31 6 -42 6 -41 19 -7 19 -6 14 12 15
12 0 22 0 21 38 17 37 17 24 21 23 20 -6 15 -5 15 -23 0 -23 0 -43 -45 -42
-45 -9 0 -9 0 0 35 0 35 21 0 21 0 28 27 28 27 0 16 0 16 30 29 30 28 -11 14
-11 13 -9 0 -9 0 0 -7z m-60 -86 l0 -13 -12 -12 -12 -12 -13 0 -13 0 0 10 0
11 13 14 12 14 13 1 12 0 0 -13z"/>
<path d="M4850 1685 l0 -17 11 4 11 4 0 9 0 10 -11 3 -11 4 0 -17z"/>
<path d="M4922 1679 l-23 -9 3 -17 3 -18 28 -3 28 -3 6 -15 5 -14 29 0 29 0 0
25 0 25 -25 0 -24 0 -11 20 -11 20 -7 -1 -7 0 -23 -10z"/>
<path d="M1783 1634 l-6 -16 14 -8 13 -9 8 5 8 5 0 20 0 19 -15 0 -16 0 -6
-16z"/>
<path d="M1846 1624 l-6 -16 0 -23 0 -23 14 -11 13 -11 13 15 12 15 -6 35 -7
35 -13 0 -14 0 -6 -16z"/>
<path d="M5061 1606 l-12 -14 47 -24 48 -24 3 -11 4 -10 -22 -6 -22 -6 6 -36
6 -35 16 -16 16 -17 -3 -31 -3 -31 -10 0 -10 0 -3 24 -4 24 -14 14 -14 14 0
18 0 17 -38 37 -38 37 -11 0 -12 0 -9 16 -9 16 -18 -3 -19 -4 -7 -27 -7 -27
14 6 15 5 64 -63 65 -64 0 -21 0 -22 15 -6 15 -5 0 -17 0 -16 21 -29 20 -29
21 0 20 0 -4 29 -4 30 18 4 18 5 0 17 0 17 -21 5 -21 6 6 30 6 30 -17 19 -16
18 -4 30 -3 30 14 0 14 0 26 -34 26 -35 0 -40 0 -41 20 -17 20 -17 0 -22 0
-22 12 -4 12 -4 -3 -43 -3 -43 24 4 23 3 -1 53 -2 53 -16 18 -16 18 0 32 0 32
-9 17 -8 17 -7 28 -6 27 15 0 15 0 0 -30 0 -31 15 -5 15 -6 0 -24 0 -24 15 0
15 0 0 29 0 29 -15 6 -15 5 0 30 0 29 -15 28 -15 29 0 28 0 27 -10 0 -10 0
-11 -27 -10 -26 6 -29 7 -28 -14 0 -14 0 -32 34 -32 34 0 21 0 21 -14 0 -14 0
-5 -12 -4 -13 -20 18 -20 17 -15 0 -16 0 -11 -14z"/>
<path d="M6920 1544 l0 -36 -22 -23 -22 -23 -34 5 -33 6 -15 -22 -15 -21 -12
0 -13 0 -27 -31 -27 -31 6 -39 7 -39 -17 -6 -16 -6 0 -14 0 -14 13 0 12 1 48
48 47 48 0 21 0 20 6 16 6 16 24 0 24 0 0 -31 0 -31 -50 -49 -50 -48 0 -20 0
-20 11 -7 11 -6 27 28 26 29 1 10 2 10 1 12 1 12 43 -2 42 -2 1 75 1 74 12 4
11 4 0 18 0 18 15 12 15 12 0 9 0 9 -20 20 -20 20 -10 0 -10 0 0 -36z"/>
<path d="M2600 1544 l0 -26 13 4 12 5 3 21 3 22 -15 0 -16 0 0 -26z"/>
<path d="M2780 1560 l0 -10 15 0 15 0 0 10 0 10 -15 0 -15 0 0 -10z"/>
<path d="M5366 1513 l-6 -6 0 -39 0 -38 15 0 15 0 0 39 0 40 -9 5 -8 5 -7 -6z"/>
<path d="M6150 1485 l0 -25 -15 0 -15 0 0 -15 0 -15 9 0 10 0 6 -21 7 -22 8
14 9 13 -9 15 -8 16 5 33 5 32 -6 0 -6 0 0 -25z"/>
<path d="M7341 1438 l-11 -28 -25 0 -26 0 -5 -15 -6 -15 -23 0 -24 0 -6 -10
-6 -10 6 -21 7 -21 26 7 27 6 11 14 10 14 39 3 39 3 7 27 7 28 -18 22 -18 23
-11 -27z"/>
<path d="M6156 1336 l7 -46 -12 -13 -11 -14 7 -6 6 -7 19 0 18 0 10 26 10 26
-6 34 -6 34 -8 0 -8 0 -16 6 -16 6 6 -46z"/>
<path d="M6997 1322 l-27 -28 0 -26 0 -26 16 -6 16 -6 9 6 9 5 0 13 0 14 16
12 15 13 -3 25 -3 25 -10 4 -11 3 -27 -28z"/>
<path d="M5509 1227 l-12 -28 11 -11 11 -11 15 6 16 6 0 14 0 13 -14 19 -14
20 -13 -28z"/>
<path d="M7170 1175 l0 -17 11 4 11 4 0 9 0 10 -11 3 -11 4 0 -17z"/>
<path d="M7517 593 l-7 -6 0 -21 0 -22 29 -31 29 -32 -42 -3 -41 -3 -3 -32 -3
-32 26 -7 26 -6 18 16 18 16 13 0 13 0 17 -15 17 -16 12 14 11 14 -15 13 -15
12 0 25 0 24 -15 5 -15 6 0 22 0 22 -30 22 -29 22 -4 0 -4 0 -6 -7z"/>
<path d="M7708 589 l-18 -10 0 -27 0 -27 31 -15 31 -15 -1 -10 -2 -10 -26 2
-26 2 -19 -10 -20 -11 19 -20 18 -20 20 -8 20 -8 27 16 27 16 25 -13 24 -13
11 6 11 7 0 20 0 19 20 0 19 0 9 -16 9 -17 21 5 21 6 5 -14 5 -14 15 0 15 0
18 23 18 23 19 7 19 7 11 -16 12 -16 120 -3 120 -3 22 -13 21 -13 26 26 26 26
32 -29 31 -29 11 0 11 0 16 13 16 12 4 20 3 20 15 0 15 0 1 -20 2 -20 1 -12 1
-13 25 0 25 0 0 29 0 30 20 6 20 6 0 12 0 12 -19 12 -20 12 -3 38 -3 38 -23 3
-23 4 -15 -12 -14 -12 0 -23 0 -23 16 -6 15 -6 -6 -10 -6 -10 -27 7 -27 6 -11
15 -11 15 -21 -5 -20 -6 -5 19 -5 19 -17 0 -17 0 -5 -20 -5 -20 -8 0 -8 0 -5
20 -5 20 -10 0 -11 0 -6 -20 -6 -20 -14 0 -14 0 -11 20 -11 20 -34 0 -35 0 0
-32 -1 -33 -29 34 -29 34 -15 -6 -16 -6 -1 -48 -1 -48 -7 25 -6 25 -19 28 -18
27 -13 0 -13 0 -7 -17 -6 -18 -14 19 -14 19 -16 -6 -15 -6 0 -16 0 -15 -18 0
-17 0 -14 22 -14 22 -14 -20 -14 -19 -10 18 -10 17 -15 0 -15 0 -6 -17 -6 -18
-15 -18 -15 -17 -13 19 -14 19 -20 -5 -20 -5 0 10 0 11 43 3 42 3 0 20 0 20
-50 2 -50 3 -17 -11z m678 -85 l-6 -16 0 -11 0 -12 -10 15 -10 15 0 13 0 12
16 0 16 0 -6 -16z"/>
<path d="M6792 548 l10 -28 39 0 39 0 0 -69 0 -69 31 -7 31 -7 8 12 8 12 -5
19 -5 19 8 0 9 0 18 -31 17 -31 63 7 62 7 10 9 9 9 22 0 22 0 6 -16 6 -17 18
16 17 16 38 3 38 3 17 28 17 28 -15 10 -15 10 -27 -4 -27 -3 -4 18 -5 18 -31
0 -32 0 -5 -15 -6 -15 -22 0 -22 0 -17 30 -18 30 -15 0 -15 0 -6 -17 -7 -18
-13 -14 -14 -13 -7 7 -7 8 13 4 12 5 0 11 0 12 -24 23 -24 23 -105 2 -104 2 9
-27z"/>
<path d="M7325 540 l-28 -29 29 -13 29 -13 8 -10 7 -10 -4 -19 -5 -20 11 -13
10 -13 20 0 19 0 6 16 6 17 -15 11 -15 11 8 22 8 21 10 7 11 6 -22 30 -22 29
-21 0 -21 0 -29 -30z"/>
</g>
</svg>
