<?xml version="1.0" encoding="utf-8"?>
<!-- Generator: Adobe Illustrator 17.1.0, SVG Export Plug-In . SVG Version: 6.00 Build 0)  -->
<!DOCTYPE svg PUBLIC "-//W3C//DTD SVG 1.1//EN" "http://www.w3.org/Graphics/SVG/1.1/DTD/svg11.dtd">
<svg version="1.1" id="Layer_1" xmlns="http://www.w3.org/2000/svg" xmlns:xlink="http://www.w3.org/1999/xlink" x="0px" y="0px"
	 viewBox="0 0 100 100" enable-background="new 0 0 100 100" xml:space="preserve">
<g>
	<rect x="0.5" y="0.5" fill="#F5F6F7" width="99" height="99"/>
	<path fill="#444545" d="M99,1v98H1V1H99 M100,0H0v100h100V0L100,0z"/>
</g>
<g>
	<path fill="#0DA89E" stroke="#444545" stroke-width="0.25" stroke-miterlimit="10" d="M89.9,49.3C89.9,27.3,72,9.4,50,9.4
		c-9.3,0-18.1,3.2-25.3,9.1v-7.8c0-0.7-0.6-1.3-1.3-1.3c-0.7,0-1.3,0.6-1.3,1.3v12h1.1c0.1,0,0.2,0,0.2,0h10.5
		c0.7,0,1.3-0.6,1.3-1.3c0-0.6-0.6-1.3-1.3-1.3h-7.1c6.6-5.2,14.8-8,23.1-8c20.6,0,37.3,16.7,37.3,37.3c0,0.7,0.6,1.3,1.3,1.3
		C89.3,50.6,89.9,50.1,89.9,49.3z"/>
	<path fill="#EA0D8B" stroke="#444545" stroke-width="0.25" stroke-miterlimit="10" d="M50,19.2c-16.2,0-29.2,13.2-29.2,29.2
		S33.9,77.8,50,77.8s29.2-13.2,29.2-29.2S66.2,19.2,50,19.2z M50,75.1c-14.7,0-26.5-11.9-26.5-26.5S35.3,21.9,50,21.9
		s26.5,11.9,26.5,26.5S64.7,75.1,50,75.1z"/>
	<path fill="#EA0D8B" stroke="#444545" stroke-width="0.25" stroke-miterlimit="10" d="M50,28.6c0.7,0,1.3-0.6,1.3-1.3v-2.7
		c0-0.7-0.6-1.3-1.3-1.3s-1.3,0.6-1.3,1.3v2.7C48.7,27.9,49.4,28.6,50,28.6z"/>
	<path fill="#EA0D8B" stroke="#444545" stroke-width="0.25" stroke-miterlimit="10" d="M50,68.5c-0.7,0-1.3,0.6-1.3,1.3v2.7
		c0,0.7,0.6,1.3,1.3,1.3s1.3-0.6,1.3-1.3v-2.7C51.4,69,50.7,68.5,50,68.5z"/>
	<path fill="#EA0D8B" stroke="#444545" stroke-width="0.25" stroke-miterlimit="10" d="M71.3,49.9H74c0.7,0,1.3-0.6,1.3-1.3
		s-0.6-1.3-1.3-1.3h-2.7c-0.7,0-1.3,0.6-1.3,1.3S70.5,49.9,71.3,49.9z"/>
	<path fill="#EA0D8B" stroke="#444545" stroke-width="0.25" stroke-miterlimit="10" d="M28.8,47.2h-2.7c-0.7,0-1.3,0.6-1.3,1.3
		s0.6,1.3,1.3,1.3h2.7c0.7,0,1.3-0.6,1.3-1.3S29.5,47.2,28.8,47.2z"/>
	<path fill="#0DA89E" stroke="#444545" stroke-width="0.25" stroke-miterlimit="10" d="M51.4,42v-6.9c0-0.7-0.6-1.3-1.3-1.3
		s-1.3,0.6-1.3,1.3V42c-2.2,0.6-4,2.7-4,5.1c0,1,0.3,1.9,0.7,2.7l-11.1,11c-0.5,0.5-0.5,1.4,0,1.9c0.2,0.2,0.6,0.4,1,0.4
		c0.3,0,0.6-0.1,1-0.4l11-11c0.7,0.4,1.7,0.7,2.7,0.7c2.9,0,5.4-2.4,5.4-5.4C55.3,44.7,53.6,42.6,51.4,42z M50,49.9
		c-1.5,0-2.7-1.2-2.7-2.7s1.2-2.7,2.7-2.7s2.7,1.2,2.7,2.7S51.5,49.9,50,49.9z"/>
	<path fill="#0DA89E" stroke="#444545" stroke-width="0.25" stroke-miterlimit="10" d="M25.9,78.7c-0.4,0.5-0.3,1.4,0.3,1.8
		c0.2,0.2,0.5,0.2,0.7,0.2c0.4,0,0.9-0.2,1.1-0.5c0.4-0.5,0.3-1.4-0.3-1.8C27.2,77.9,26.4,78,25.9,78.7z"/>
	<path fill="#0DA89E" stroke="#444545" stroke-width="0.25" stroke-miterlimit="10" d="M19.8,70.1c-0.4-0.5-1.3-0.7-1.8-0.3
		c-0.6,0.4-0.7,1.3-0.3,1.8c0.2,0.3,0.6,0.5,1.1,0.5c0.2,0,0.5-0.1,0.7-0.2C20,71.6,20.2,70.7,19.8,70.1z"/>
	<path fill="#0DA89E" stroke="#444545" stroke-width="0.25" stroke-miterlimit="10" d="M20.2,73c-0.5,0.5-0.6,1.3-0.1,1.9
		c0.2,0.3,0.6,0.4,1,0.4s0.6-0.1,0.9-0.3c0.5-0.5,0.6-1.3,0.1-1.9C21.6,72.6,20.9,72.6,20.2,73z"/>
	<path fill="#0DA89E" stroke="#444545" stroke-width="0.25" stroke-miterlimit="10" d="M24.8,75.9c-0.5-0.5-1.4-0.4-1.9,0.1
		c-0.5,0.5-0.4,1.4,0.1,1.9c0.2,0.2,0.5,0.3,0.9,0.3s0.7-0.1,1-0.4C25.5,77.3,25.4,76.4,24.8,75.9L24.8,75.9z"/>
	<path fill="#0DA89E" stroke="#444545" stroke-width="0.25" stroke-miterlimit="10" d="M17.7,66.9L17.7,66.9
		c-0.3-0.6-1.2-0.9-1.8-0.5c-0.6,0.3-0.9,1.2-0.5,1.8c0.2,0.4,0.6,0.6,1.2,0.6c0.2,0,0.4,0,0.6-0.2C17.8,68.4,18.1,67.5,17.7,66.9z"
		/>
	<path fill="#0DA89E" stroke="#444545" stroke-width="0.25" stroke-miterlimit="10" d="M11.8,53.8c0.7-0.1,1.3-0.7,1.2-1.5
		c-0.1-0.7-0.7-1.3-1.5-1.2s-1.3,0.7-1.2,1.5c0.1,0.6,0.6,1.2,1.3,1.2C11.8,53.8,11.8,53.8,11.8,53.8z"/>
	<path fill="#0DA89E" stroke="#444545" stroke-width="0.25" stroke-miterlimit="10" d="M12.5,57.7c0.7-0.1,1.2-0.9,1.1-1.6
		c-0.1-0.7-0.9-1.2-1.6-1.1c-0.7,0.1-1.2,0.9-1.1,1.6c0.1,0.6,0.6,1.1,1.3,1.1C12.4,57.8,12.5,57.8,12.5,57.7z"/>
	<path fill="#0DA89E" stroke="#444545" stroke-width="0.25" stroke-miterlimit="10" d="M15.9,63.5c-0.3-0.6-1.1-1-1.7-0.6
		c-0.6,0.3-1,1.1-0.6,1.7c0.2,0.5,0.7,0.7,1.2,0.7c0.2,0,0.3,0,0.5-0.1C15.9,65,16.3,64.1,15.9,63.5z"/>
	<path fill="#0DA89E" stroke="#444545" stroke-width="0.25" stroke-miterlimit="10" d="M14.6,59.8c-0.2-0.7-1-1.1-1.7-0.9
		s-1.1,1-0.9,1.7c0.2,0.5,0.7,1,1.3,1c0.1,0,0.3,0,0.4,0C14.5,61.3,14.8,60.6,14.6,59.8z"/>
	<path fill="#0DA89E" stroke="#444545" stroke-width="0.25" stroke-miterlimit="10" d="M49.4,85.7c-0.7,0-1.4,0.5-1.4,1.3
		s0.5,1.4,1.3,1.4l0,0c0.7,0,1.3-0.5,1.3-1.3C50.6,86.4,50.1,85.7,49.4,85.7z"/>
	<path fill="#0DA89E" stroke="#444545" stroke-width="0.25" stroke-miterlimit="10" d="M79.4,71.3c-0.4,0.5-0.3,1.4,0.2,1.8
		c0.2,0.2,0.5,0.3,0.9,0.3c0.4,0,0.7-0.2,1.1-0.5c0.4-0.5,0.3-1.4-0.2-1.8C80.7,70.6,80,70.7,79.4,71.3z"/>
	<path fill="#0DA89E" stroke="#444545" stroke-width="0.25" stroke-miterlimit="10" d="M71.1,79.2c-0.6,0.4-0.7,1.3-0.3,1.8
		c0.2,0.3,0.6,0.5,1.1,0.5c0.2,0,0.5-0.1,0.7-0.2c0.6-0.4,0.7-1.3,0.3-1.8C72.6,78.9,71.7,78.8,71.1,79.2z"/>
	<path fill="#0DA89E" stroke="#444545" stroke-width="0.25" stroke-miterlimit="10" d="M74.2,76.8c-0.5,0.4-0.6,1.3-0.1,1.9
		c0.2,0.3,0.6,0.4,1,0.4c0.3,0,0.6-0.1,0.9-0.3c0.5-0.4,0.6-1.3,0.1-1.9C75.6,76.4,74.7,76.4,74.2,76.8z"/>
	<path fill="#0DA89E" stroke="#444545" stroke-width="0.25" stroke-miterlimit="10" d="M83.5,67.7c-0.6-0.4-1.5-0.2-1.8,0.4
		c-0.4,0.6-0.2,1.5,0.4,1.8c0.2,0.1,0.4,0.2,0.7,0.2c0.4,0,0.9-0.2,1.2-0.6C84.4,68.9,84.1,68.1,83.5,67.7z"/>
	<path fill="#0DA89E" stroke="#444545" stroke-width="0.25" stroke-miterlimit="10" d="M77,74.2c-0.5,0.5-0.5,1.4,0,1.9
		c0.2,0.2,0.5,0.3,1,0.3c0.3,0,0.7-0.1,1-0.4c0.5-0.5,0.5-1.4,0-1.9C78.3,73.6,77.5,73.6,77,74.2z"/>
	<path fill="#0DA89E" stroke="#444545" stroke-width="0.25" stroke-miterlimit="10" d="M88.4,52.6c-0.7-0.1-1.4,0.4-1.5,1.2
		c-0.1,0.7,0.4,1.4,1.2,1.5c0.1,0,0.1,0,0.2,0c0.6,0,1.2-0.4,1.3-1.2C89.6,53.4,89.2,52.8,88.4,52.6z"/>
	<path fill="#0DA89E" stroke="#444545" stroke-width="0.25" stroke-miterlimit="10" d="M87.8,56.6c-0.7-0.2-1.4,0.2-1.6,1
		c-0.2,0.7,0.2,1.4,1,1.6c0.1,0,0.2,0,0.3,0c0.6,0,1.2-0.4,1.3-1C89,57.5,88.5,56.7,87.8,56.6z"/>
	<path fill="#0DA89E" stroke="#444545" stroke-width="0.25" stroke-miterlimit="10" d="M31,80.5c-0.6-0.3-1.5-0.2-1.8,0.4
		c-0.4,0.6-0.2,1.5,0.4,1.8c0.2,0.1,0.4,0.2,0.6,0.2c0.4,0,0.9-0.2,1.2-0.6C31.9,81.7,31.7,80.9,31,80.5z"/>
	<path fill="#0DA89E" stroke="#444545" stroke-width="0.25" stroke-miterlimit="10" d="M86.7,60.5c-0.6-0.2-1.5,0.1-1.7,0.7
		c-0.2,0.6,0.1,1.5,0.7,1.7c0.1,0,0.3,0.1,0.4,0.1c0.5,0,1.1-0.3,1.3-0.9C87.8,61.4,87.5,60.7,86.7,60.5z"/>
	<path fill="#0DA89E" stroke="#444545" stroke-width="0.25" stroke-miterlimit="10" d="M85.3,64.1c-0.6-0.3-1.5,0-1.8,0.6
		c-0.3,0.6,0,1.5,0.6,1.8c0.2,0.1,0.4,0.1,0.5,0.1c0.5,0,1-0.3,1.2-0.7C86.3,65.3,86,64.4,85.3,64.1z"/>
	<path fill="#0DA89E" stroke="#444545" stroke-width="0.25" stroke-miterlimit="10" d="M45.5,85.4c-0.7-0.1-1.4,0.4-1.5,1.2
		s0.4,1.4,1.2,1.5l0,0h0.1c0.6,0,1.3-0.5,1.3-1.2C46.8,86.2,46.2,85.5,45.5,85.4z"/>
	<path fill="#0DA89E" stroke="#444545" stroke-width="0.25" stroke-miterlimit="10" d="M38,83.7c-0.6-0.2-1.5,0.1-1.7,0.9
		c-0.2,0.6,0.1,1.5,0.9,1.7c0.1,0,0.3,0.1,0.4,0.1c0.5,0,1.1-0.3,1.3-0.9C39.1,84.8,38.6,84,38,83.7z"/>
	<path fill="#0DA89E" stroke="#444545" stroke-width="0.25" stroke-miterlimit="10" d="M41.6,84.8c-0.7-0.1-1.4,0.3-1.6,1
		c-0.1,0.7,0.3,1.4,1,1.6c0.1,0,0.2,0,0.3,0c0.6,0,1.2-0.4,1.3-1.1C42.8,85.6,42.4,85,41.6,84.8z"/>
	<path fill="#0DA89E" stroke="#444545" stroke-width="0.25" stroke-miterlimit="10" d="M34.5,82.3c-0.6-0.3-1.5,0-1.8,0.6
		c-0.3,0.6,0,1.5,0.6,1.8c0.2,0.1,0.3,0.1,0.5,0.1c0.5,0,1-0.3,1.2-0.7C35.3,83.4,35.1,82.6,34.5,82.3z"/>
	<path fill="#0DA89E" stroke="#444545" stroke-width="0.25" stroke-miterlimit="10" d="M57,85.1c-0.7,0.1-1.2,0.9-1.1,1.6
		c0.1,0.6,0.6,1.1,1.3,1.1c0.1,0,0.1,0,0.2,0c0.7-0.1,1.2-0.9,1.1-1.6C58.5,85.4,57.7,85,57,85.1z"/>
	<path fill="#0DA89E" stroke="#444545" stroke-width="0.25" stroke-miterlimit="10" d="M60.7,84.2c-0.7,0.2-1.1,1-0.9,1.6
		c0.2,0.5,0.7,1,1.3,1c0.1,0,0.2,0,0.4,0c0.7-0.2,1.1-1,0.9-1.7C62.2,84.3,61.4,84,60.7,84.2z"/>
	<path fill="#0DA89E" stroke="#444545" stroke-width="0.25" stroke-miterlimit="10" d="M64.3,82.8c-0.6,0.3-1,1.1-0.7,1.7
		c0.2,0.5,0.7,0.9,1.2,0.9c0.2,0,0.3,0,0.5-0.1c0.6-0.3,1-1.1,0.7-1.7C65.8,82.9,65,82.6,64.3,82.8z"/>
	<path fill="#0DA89E" stroke="#444545" stroke-width="0.25" stroke-miterlimit="10" d="M53.2,85.6c-0.7,0.1-1.3,0.7-1.2,1.4
		c0,0.6,0.6,1.2,1.3,1.2h0.1l0,0c0.7,0,1.3-0.6,1.2-1.4C54.6,86,53.8,85.5,53.2,85.6z"/>
	<path fill="#0DA89E" stroke="#444545" stroke-width="0.25" stroke-miterlimit="10" d="M67.9,81.2c-0.6,0.3-0.9,1.2-0.5,1.8
		c0.2,0.4,0.6,0.7,1.2,0.7c0.2,0,0.4,0,0.6-0.2c0.6-0.3,0.9-1.2,0.5-1.8C69.3,81.1,68.5,80.9,67.9,81.2z"/>
</g>
</svg>
