<?xml version="1.0" encoding="UTF-8" standalone="no"?>
<svg width="770px" height="465px" viewBox="0 0 770 465" version="1.1" xmlns="http://www.w3.org/2000/svg" xmlns:xlink="http://www.w3.org/1999/xlink">
    <!-- Generator: Sketch 3.6.1 (26313) - http://www.bohemiancoding.com/sketch -->
    <title>science-3</title>
    <desc>Created with Sketch.</desc>
    <defs>
        <path id="path-1" d="M0.7525,19.178336 L4.95582488,32.6842656 L30.9433603,32.6842656 L27.736,0.951 L0.7525,8.23294433 L0.7525,19.178336 L0.7525,19.178336 Z"></path>
        <path id="path-3" d="M26.81966,19.5665 L24.9278861,0.8495 L17.7010417,0.8495 L0.4605,5.50214569 L0.4605,19.5665 L26.81966,19.5665 L26.81966,19.5665 Z"></path>
    </defs>
    <g id="Page-1" stroke="none" stroke-width="1" fill="none" fill-rule="evenodd">
        <g id="Group-12-Copy" transform="translate(11.000000, 20.000000)">
            <g id="Group-11" transform="translate(90.000000, 0.000000)" fill="#474B52">
                <path d="M0,93 C0,93 1.64126577,92.0879809 4.85138853,90.5162879 C8.07492032,88.963471 12.8364683,86.7092539 19.1360325,84.1500369 C22.2844737,82.8684414 25.7560726,81.4278884 29.6527379,80.0280682 C31.5890025,79.3087851 33.6030394,78.5596976 35.6935078,77.7817989 C37.7947034,77.0227765 40.0179213,76.3094544 42.2894117,75.5315557 C44.5676065,74.7625984 46.9182102,73.9697975 49.3385409,73.153153 C51.7990986,72.4050589 54.3293833,71.6361016 56.9280541,70.8462811 C59.5307477,70.065402 62.2004863,69.2646532 64.9345884,68.4450282 C67.7102584,67.7078624 70.5502919,66.9548009 73.4506659,66.1848502 C76.3550627,65.4198668 79.3184592,64.6389877 82.3395146,63.8422129 C85.3994562,63.1358451 88.5183975,62.4165621 91.6896341,61.6843637 C94.8635524,60.9561393 98.0911069,60.2149996 101.368275,59.4619381 C104.68567,58.8112055 108.052678,58.1515316 111.466618,57.4819228 C114.880558,56.812314 118.34143,56.1337638 121.845211,55.4472658 C125.385196,54.8710446 128.96809,54.2888624 132.58987,53.6997259 C136.214332,53.1195308 139.879021,52.5323812 143.578573,51.9402642 C145.422315,51.6193686 147.307626,51.4216651 149.188913,51.1822353 C151.072882,50.9487663 152.964897,50.7152974 154.866298,50.4798415 C162.474584,49.5817312 170.170029,48.4501519 178.066609,47.8719437 C182.003501,47.5222371 185.965871,47.1705434 189.947013,46.8168628 C193.929496,46.4741105 197.922706,46.0538664 201.964189,45.8968958 C210.035087,45.4627429 218.169007,45.0256096 226.335109,44.5864893 C234.519983,44.4265382 242.735698,44.2655937 250.951414,44.1046491 L257.114206,44.0043072 C259.222106,43.981457 261.229438,44.0559684 263.290407,44.0768316 C267.386867,44.1443885 271.479304,44.2119455 275.563696,44.2795025 C279.648087,44.3470595 283.724434,44.4136229 287.790053,44.4811799 C291.855672,44.6033785 295.914587,44.8457888 299.953388,45.0216357 C316.136751,45.620707 331.970138,46.8993221 347.261801,48.2852334 C354.879473,49.1485718 362.388532,49.9075942 369.701819,50.8156394 C376.977561,51.8766812 384.096417,52.9158664 391.026206,53.927234 C397.892972,55.1541878 404.570671,56.3473631 411.031144,57.500799 C417.419208,58.8588928 423.590045,60.1702928 429.514157,61.4300316 C435.356473,62.8854869 440.988267,64.2088088 446.282154,65.5977006 C448.904961,66.3408273 451.460723,67.0660712 453.945417,67.770452 C456.418043,68.4947025 458.866532,69.1096696 461.14875,69.8776334 C470.379529,72.7517851 478.302927,75.4709531 484.656127,77.9596327 C486.245098,78.5805607 487.748251,79.1677103 489.162904,79.7200879 C490.569511,80.2853808 491.850074,80.8655759 493.06091,81.3782141 C495.490627,82.3955426 497.496618,83.3343858 499.117771,84.1033431 C502.365439,85.6313228 504,86.5522833 504,86.5522833 C504,86.5522833 502.334598,85.6621208 499.039998,84.1947437 C497.396051,83.4565844 495.363241,82.5554937 492.902683,81.584859 C491.677098,81.0950709 490.379103,80.5416999 488.960427,80.0002506 C487.535047,79.4677427 486.019826,78.9014564 484.418788,78.304372 C478.018656,75.907093 470.046985,73.3031692 460.774638,70.5641314 C458.484375,69.8299461 456.023817,69.2487575 453.541805,68.5602725 C451.049065,67.8926506 448.483917,67.2051591 445.851724,66.4997849 C440.541746,65.1873914 434.917997,63.895861 429.075681,62.5000148 C423.152911,61.2939242 416.984755,60.0381593 410.600714,58.7386811 C404.148287,57.6428673 397.475952,56.5093011 390.618572,55.3449368 C383.700851,54.3951653 376.594063,53.4195632 369.329048,52.4221044 C362.019784,51.62831 354.553633,50.8186198 346.958757,49.9940274 C331.718048,48.6558033 315.928911,47.4248755 299.842093,46.8734914 C295.820723,46.7105599 291.79399,46.479078 287.736417,46.3688011 C283.672138,46.3121725 279.595792,46.2565374 275.510059,46.2009022 C271.425668,46.1442736 267.33323,46.0886384 263.236771,46.0320098 C261.201279,46.0171075 259.10947,45.9465701 257.118228,45.9763746 L250.980913,46.0896319 C242.796039,46.2267328 234.612506,46.3648272 226.459813,46.5019281 C218.324552,46.9172048 210.222813,47.3304945 202.182757,47.7408037 C198.154683,47.8858525 194.177563,48.2931813 190.20983,48.6240118 C186.243438,48.9657706 182.297159,49.3045489 178.375017,49.6423338 C170.505255,50.1957048 162.83931,51.302447 155.257842,52.1767136 C153.363145,52.4052151 151.477835,52.6327232 149.60057,52.8592377 C147.724647,53.0937002 145.847382,53.2844492 144.010344,53.5993839 C140.320178,54.1666638 136.664875,54.7299697 133.048459,55.2863212 C129.432042,55.8426728 125.855853,56.3930634 122.321232,56.9374931 C118.821474,57.5931931 115.364625,58.2399517 111.954707,58.8787625 C108.543449,59.5175733 105.179122,60.1474427 101.86575,60.7673772 C98.589923,61.4906342 95.3637094,62.2019693 92.1911319,62.9023762 C89.0198954,63.60477 85.9009541,64.2962354 82.8396716,64.9747856 C79.8186162,65.7437429 76.8538788,66.4968044 73.9508229,67.2359571 C71.047767,67.9790838 68.2050518,68.7063147 65.4266999,69.4176499 C62.6872343,70.2074703 60.012132,70.9784146 57.4040749,71.7304826 C54.7946768,72.4825507 52.252324,73.214749 49.781039,73.9270777 C47.3472993,74.7089502 44.9846275,75.4679727 42.6943645,76.2031515 C40.4094651,76.9482651 38.1741791,77.6297957 36.0595744,78.3590136 C33.955697,79.1051208 31.928251,79.8253973 29.9812593,80.5168627 C26.056435,81.8610478 22.558018,83.2519266 19.3840997,84.4878217 C13.0429674,86.9685534 8.19560162,89.1055393 4.92916092,90.6057015 C1.67210655,92.1177854 0,93 0,93" id="Fill-84"></path>
                <path d="M0,82 C0,82 1.64126577,81.0879809 4.85138853,79.5162879 C8.07492032,77.963471 12.8364683,75.7092539 19.1360325,73.1500369 C22.2844737,71.8684414 25.7560726,70.4278884 29.6527379,69.0280682 C31.5890025,68.3087851 33.6030394,67.5596976 35.6935078,66.7817989 C37.7947034,66.0227765 40.0179213,65.3094544 42.2894117,64.5315557 C44.5676065,63.7625984 46.9182102,62.9697975 49.3385409,62.153153 C51.7990986,61.4050589 54.3293833,60.6361016 56.9280541,59.8462811 C59.5307477,59.065402 62.2004863,58.2646532 64.9345884,57.4450282 C67.7102584,56.7078624 70.5502919,55.9548009 73.4506659,55.1848502 C76.3550627,54.4198668 79.3184592,53.6389877 82.3395146,52.8422129 C85.3994562,52.1358451 88.5183975,51.4165621 91.6896341,50.6843637 C94.8635524,49.9561393 98.0911069,49.2149996 101.368275,48.4619381 C104.68567,47.8112055 108.052678,47.1515316 111.466618,46.4819228 C114.880558,45.812314 118.34143,45.1337638 121.845211,44.4472658 C125.385196,43.8710446 128.96809,43.2888624 132.58987,42.6997259 C136.214332,42.1195308 139.879021,41.5323812 143.578573,40.9402642 C145.422315,40.6193686 147.307626,40.4216651 149.188913,40.1822353 C151.072882,39.9487663 152.964897,39.7152974 154.866298,39.4798415 C162.474584,38.5817312 170.170029,37.4501519 178.066609,36.8719437 C182.003501,36.5222371 185.965871,36.1705434 189.947013,35.8178563 C193.929496,35.4741105 197.922706,35.0538664 201.964189,34.8978893 C210.035087,34.4627429 218.169007,34.0256096 226.335109,33.5864893 C234.519983,33.4265382 242.735698,33.2655937 250.951414,33.1046491 L257.114206,33.0043072 C259.222106,32.981457 261.229438,33.0559684 263.290407,33.0768316 C267.386867,33.1443885 271.479304,33.2119455 275.563696,33.2795025 C279.648087,33.3470595 283.724434,33.4136229 287.790053,33.4811799 C291.855672,33.6033785 295.914587,33.8457888 299.953388,34.0216357 C316.136751,34.620707 331.970138,35.8993221 347.261801,37.2852334 C354.879473,38.1485718 362.388532,38.9075942 369.701819,39.8156394 C376.977561,40.8766812 384.096417,41.9158664 391.026206,42.927234 C397.892972,44.1541878 404.570671,45.3473631 411.031144,46.500799 C417.419208,47.8588928 423.590045,49.1702928 429.514157,50.4300316 C435.356473,51.8854869 440.988267,53.2088088 446.282154,54.5977006 C448.904961,55.3408273 451.460723,56.0660712 453.945417,56.770452 C456.418043,57.4947025 458.866532,58.1096696 461.14875,58.8776334 C470.379529,61.7517851 478.302927,64.4709531 484.656127,66.9596327 C486.245098,67.5805607 487.748251,68.1677103 489.162904,68.7200879 C490.569511,69.2853808 491.850074,69.8655759 493.06091,70.3782141 C495.490627,71.3955426 497.496618,72.3343858 499.117771,73.1033431 C502.365439,74.6313228 504,75.5522833 504,75.5522833 C504,75.5522833 502.334598,74.6621208 499.039998,73.1947437 C497.396051,72.4565844 495.363241,71.5554937 492.902683,70.584859 C491.677098,70.0950709 490.379103,69.5416999 488.960427,69.0002506 C487.535047,68.4677427 486.019826,67.9014564 484.418788,67.304372 C478.018656,64.907093 470.046985,62.3031692 460.774638,59.5641314 C458.484375,58.8299461 456.023817,58.2487575 453.541805,57.5602725 C451.049065,56.8926506 448.483917,56.2051591 445.851724,55.4997849 C440.541746,54.1873914 434.917997,52.895861 429.075681,51.5000148 C423.152911,50.2939242 416.984755,49.0381593 410.600714,47.7386811 C404.148287,46.6428673 397.475952,45.5093011 390.618572,44.3449368 C383.700851,43.3951653 376.594063,42.4195632 369.329048,41.4221044 C362.019784,40.62831 354.553633,39.8186198 346.958757,38.9940274 C331.718048,37.6558033 315.928911,36.4248755 299.842093,35.8734914 C295.820723,35.7105599 291.79399,35.479078 287.736417,35.3688011 C283.672138,35.313166 279.595792,35.2565374 275.510059,35.2009022 C271.425668,35.1442736 267.33323,35.0886384 263.236771,35.0320098 C261.201279,35.0171075 259.10947,34.9465701 257.118228,34.9763746 L250.980913,35.0896319 C242.796039,35.2267328 234.612506,35.3648272 226.459813,35.5019281 C218.324552,35.9172048 210.222813,36.3304945 202.182757,36.7408037 C198.154683,36.8858525 194.177563,37.2931813 190.20983,37.6240118 C186.243438,37.9657706 182.297159,38.3045489 178.375017,38.6423338 C170.505255,39.1957048 162.83931,40.3034404 155.257842,41.1767136 C153.363145,41.4052151 151.477835,41.6327232 149.60057,41.8592377 C147.724647,42.0937002 145.847382,42.2844492 144.010344,42.5993839 C140.320178,43.1676573 136.664875,43.7299697 133.048459,44.2863212 C129.432042,44.8426728 125.855853,45.3940569 122.321232,45.9374931 C118.821474,46.5931931 115.364625,47.2399517 111.954707,47.8787625 C108.543449,48.5175733 105.179122,49.1474427 101.86575,49.7673772 C98.589923,50.4906342 95.3637094,51.2019693 92.1911319,51.9023762 C89.0198954,52.60477 85.9009541,53.2962354 82.8396716,53.9747856 C79.8186162,54.7437429 76.8538788,55.4968044 73.9508229,56.2359571 C71.047767,56.9790838 68.2050518,57.7063147 65.4266999,58.4176499 C62.6872343,59.2074703 60.012132,59.9784146 57.4040749,60.7304826 C54.7946768,61.4825507 52.252324,62.214749 49.781039,62.9270777 C47.3472993,63.7089502 44.9846275,64.4679727 42.6943645,65.2031515 C40.4094651,65.9482651 38.1741791,66.6297957 36.0595744,67.3590136 C33.955697,68.1051208 31.928251,68.8253973 29.9812593,69.5168627 C26.056435,70.8610478 22.558018,72.2519266 19.3840997,73.4878217 C13.0429674,75.9685534 8.19560162,78.1055393 4.92916092,79.6057015 C1.67210655,81.1177854 0,82 0,82" id="Fill-85"></path>
                <path d="M0,71 C0,71 1.64126577,70.0879809 4.85138853,68.5162879 C8.07492032,66.963471 12.8364683,64.7092539 19.1360325,62.1500369 C22.2844737,60.8684414 25.7560726,59.4278884 29.6527379,58.0280682 C31.5890025,57.3087851 33.6030394,56.5596976 35.6935078,55.7827924 C37.7947034,55.0227765 40.0179213,54.3094544 42.2894117,53.5315557 C44.5676065,52.7625984 46.9182102,51.9697975 49.3385409,51.153153 C51.7990986,50.4050589 54.3293833,49.6361016 56.9280541,48.8462811 C59.5307477,48.065402 62.2004863,47.2646532 64.9345884,46.4450282 C67.7102584,45.7078624 70.5502919,44.9548009 73.4506659,44.1848502 C76.3550627,43.4198668 79.3184592,42.6389877 82.3395146,41.8422129 C85.3994562,41.1358451 88.5183975,40.4165621 91.6896341,39.6843637 C94.8635524,38.9561393 98.0911069,38.2149996 101.368275,37.4619381 C104.68567,36.8112055 108.052678,36.1515316 111.466618,35.4819228 C114.880558,34.812314 118.34143,34.1337638 121.845211,33.4472658 C125.385196,32.8710446 128.96809,32.2888624 132.58987,31.6997259 C136.214332,31.1195308 139.879021,30.5323812 143.578573,29.9402642 C145.422315,29.6193686 147.307626,29.4216651 149.188913,29.1822353 C151.072882,28.9497598 152.964897,28.7152974 154.866298,28.4798415 C162.474584,27.5817312 170.170029,26.4501519 178.066609,25.8719437 C182.003501,25.5222371 185.965871,25.1705434 189.947013,24.8178563 C193.929496,24.4741105 197.922706,24.0538664 201.964189,23.8978893 C210.035087,23.4637364 218.169007,23.0256096 226.335109,22.5864893 C234.519983,22.4265382 242.735698,22.2655937 250.951414,22.1046491 L257.114206,22.0043072 C259.222106,21.981457 261.229438,22.0559684 263.290407,22.0768316 C267.386867,22.1443885 271.479304,22.2119455 275.563696,22.2795025 C279.648087,22.3470595 283.724434,22.4136229 287.790053,22.4811799 C291.855672,22.6033785 295.914587,22.8457888 299.953388,23.0216357 C316.136751,23.620707 331.970138,24.8993221 347.261801,26.2852334 C354.879473,27.1485718 362.388532,27.9075942 369.701819,28.8156394 C376.977561,29.8776747 384.096417,30.9158664 391.026206,31.927234 C397.892972,33.1541878 404.570671,34.3473631 411.031144,35.500799 C417.419208,36.8588928 423.590045,38.1702928 429.514157,39.4300316 C435.356473,40.8854869 440.988267,42.2088088 446.282154,43.5977006 C448.904961,44.3408273 451.460723,45.0660712 453.945417,45.770452 C456.418043,46.4947025 458.866532,47.1096696 461.14875,47.8776334 C470.379529,50.7517851 478.302927,53.4709531 484.656127,55.9596327 C486.245098,56.5805607 487.748251,57.1677103 489.162904,57.7200879 C490.569511,58.2853808 491.850074,58.8655759 493.06091,59.3782141 C495.490627,60.3955426 497.496618,61.3343858 499.117771,62.1033431 C502.365439,63.6323163 504,64.5522833 504,64.5522833 C504,64.5522833 502.334598,63.6621208 499.039998,62.1947437 C497.396051,61.4565844 495.363241,60.5554937 492.902683,59.584859 C491.677098,59.0950709 490.379103,58.5416999 488.960427,58.0002506 C487.535047,57.4677427 486.019826,56.9014564 484.418788,56.304372 C478.018656,53.907093 470.046985,51.3031692 460.774638,48.5641314 C458.484375,47.8299461 456.023817,47.2497509 453.541805,46.5602725 C451.049065,45.8926506 448.483917,45.2051591 445.851724,44.4997849 C440.541746,43.1873914 434.917997,41.895861 429.075681,40.5000148 C423.152911,39.2939242 416.984755,38.0381593 410.600714,36.7386811 C404.148287,35.6428673 397.475952,34.5093011 390.618572,33.3449368 C383.700851,32.3951653 376.594063,31.4195632 369.329048,30.4221044 C362.019784,29.62831 354.553633,28.8186198 346.958757,27.9940274 C331.718048,26.6558033 315.928911,25.4248755 299.842093,24.8734914 C295.820723,24.7105599 291.79399,24.479078 287.736417,24.3688011 C283.672138,24.313166 279.595792,24.2565374 275.510059,24.2009022 C271.425668,24.1442736 267.33323,24.0886384 263.236771,24.0320098 C261.201279,24.0171075 259.10947,23.9465701 257.118228,23.9763746 L250.980913,24.0896319 C242.796039,24.2267328 234.612506,24.3648272 226.459813,24.5019281 C218.324552,24.9172048 210.222813,25.3304945 202.182757,25.7408037 C198.154683,25.8858525 194.177563,26.2931813 190.20983,26.6240118 C186.243438,26.9657706 182.297159,27.3045489 178.375017,27.6423338 C170.505255,28.1957048 162.83931,29.3034404 155.257842,30.1767136 C153.363145,30.4052151 151.477835,30.6327232 149.60057,30.8592377 C147.724647,31.0937002 145.847382,31.2844492 144.010344,31.5993839 C140.320178,32.1676573 136.664875,32.7299697 133.048459,33.2863212 C129.432042,33.8426728 125.855853,34.3940569 122.321232,34.9374931 C118.821474,35.5931931 115.364625,36.2399517 111.954707,36.8787625 C108.543449,37.5175733 105.179122,38.1474427 101.86575,38.7673772 C98.589923,39.4906342 95.3637094,40.2019693 92.1911319,40.9023762 C89.0198954,41.6057635 85.9009541,42.2962354 82.8396716,42.9747856 C79.8186162,43.7437429 76.8538788,44.4968044 73.9508229,45.2359571 C71.047767,45.9790838 68.2050518,46.7063147 65.4266999,47.4176499 C62.6872343,48.2074703 60.012132,48.9784146 57.4040749,49.7304826 C54.7946768,50.4825507 52.252324,51.214749 49.781039,51.9270777 C47.3472993,52.7089502 44.9846275,53.4679727 42.6943645,54.2031515 C40.4094651,54.9482651 38.1741791,55.6297957 36.0595744,56.3590136 C33.955697,57.1061142 31.928251,57.8253973 29.9812593,58.5168627 C26.056435,59.8610478 22.558018,61.2519266 19.3840997,62.4878217 C13.0429674,64.9685534 8.19560162,67.1055393 4.92916092,68.6057015 C1.67210655,70.1177854 0,71 0,71" id="Fill-86"></path>
                <path d="M0,60 C0,60 1.64126577,59.0879809 4.85138853,57.5162879 C8.07492032,55.963471 12.8364683,53.7092539 19.1360325,51.1500369 C22.2844737,49.8684414 25.7560726,48.4278884 29.6527379,47.0280682 C31.5890025,46.3087851 33.6030394,45.5596976 35.6935078,44.7817989 C37.7947034,44.0227765 40.0179213,43.3094544 42.2894117,42.5315557 C44.5676065,41.7625984 46.9182102,40.9697975 49.3385409,40.153153 C51.7990986,39.4050589 54.3293833,38.6361016 56.9280541,37.8462811 C59.5307477,37.065402 62.2004863,36.2646532 64.9345884,35.4450282 C67.7102584,34.7078624 70.5502919,33.9548009 73.4506659,33.1848502 C76.3550627,32.4198668 79.3184592,31.6389877 82.3395146,30.8422129 C85.3994562,30.1358451 88.5183975,29.4165621 91.6896341,28.6843637 C94.8635524,27.9561393 98.0911069,27.2149996 101.368275,26.4619381 C104.68567,25.8112055 108.052678,25.1515316 111.466618,24.4819228 C114.880558,23.812314 118.34143,23.1337638 121.845211,22.4472658 C125.385196,21.8710446 128.96809,21.2888624 132.58987,20.6997259 C136.214332,20.1195308 139.879021,19.5323812 143.578573,18.9402642 C145.422315,18.6193686 147.307626,18.4216651 149.188913,18.1822353 C151.072882,17.9487663 152.964897,17.7152974 154.866298,17.4798415 C162.474584,16.5817312 170.170029,15.4501519 178.066609,14.8719437 C182.003501,14.5222371 185.965871,14.1705434 189.947013,13.8168628 C193.929496,13.4741105 197.922706,13.0538664 201.964189,12.8968958 C210.035087,12.4627429 218.169007,12.0256096 226.335109,11.5864893 C234.519983,11.4265382 242.735698,11.2655937 250.951414,11.1046491 L257.114206,11.0043072 C259.222106,10.981457 261.229438,11.0559684 263.290407,11.0768316 C267.386867,11.1443885 271.479304,11.2119455 275.563696,11.2795025 C279.648087,11.3470595 283.724434,11.4136229 287.790053,11.4811799 C291.855672,11.6033785 295.914587,11.8457888 299.953388,12.0216357 C316.136751,12.620707 331.970138,13.8993221 347.261801,15.2852334 C354.879473,16.1485718 362.388532,16.9075942 369.701819,17.8156394 C376.977561,18.8766812 384.096417,19.9158664 391.026206,20.927234 C397.892972,22.1541878 404.570671,23.3473631 411.031144,24.500799 C417.419208,25.8588928 423.590045,27.1702928 429.514157,28.4300316 C435.356473,29.8854869 440.988267,31.2088088 446.282154,32.5977006 C448.904961,33.3408273 451.460723,34.0660712 453.945417,34.770452 C456.418043,35.4947025 458.866532,36.1096696 461.14875,36.8776334 C470.379529,39.7517851 478.302927,42.4709531 484.656127,44.9596327 C486.245098,45.5805607 487.748251,46.1677103 489.162904,46.7200879 C490.569511,47.2853808 491.850074,47.8655759 493.06091,48.3782141 C495.490627,49.3955426 497.496618,50.3343858 499.117771,51.1033431 C502.365439,52.6313228 504,53.5522833 504,53.5522833 C504,53.5522833 502.334598,52.6621208 499.039998,51.1947437 C497.396051,50.4565844 495.363241,49.5554937 492.902683,48.584859 C491.677098,48.0950709 490.379103,47.5416999 488.960427,47.0002506 C487.535047,46.4677427 486.019826,45.9014564 484.418788,45.304372 C478.018656,42.907093 470.046985,40.3031692 460.774638,37.5641314 C458.484375,36.8299461 456.023817,36.2487575 453.541805,35.5602725 C451.049065,34.8926506 448.483917,34.2051591 445.851724,33.4997849 C440.541746,32.1873914 434.917997,30.895861 429.075681,29.5000148 C423.152911,28.2939242 416.984755,27.0381593 410.600714,25.7386811 C404.148287,24.6428673 397.475952,23.5093011 390.618572,22.3449368 C383.700851,21.3951653 376.594063,20.4195632 369.329048,19.4221044 C362.019784,18.62831 354.553633,17.8186198 346.958757,16.9940274 C331.718048,15.6558033 315.928911,14.4248755 299.842093,13.8734914 C295.820723,13.7105599 291.79399,13.479078 287.736417,13.3688011 C283.672138,13.3121725 279.595792,13.2565374 275.510059,13.2009022 C271.425668,13.1442736 267.33323,13.0886384 263.236771,13.0320098 C261.201279,13.0171075 259.10947,12.9465701 257.118228,12.9763746 L250.980913,13.0896319 C242.796039,13.2267328 234.612506,13.3648272 226.459813,13.5019281 C218.324552,13.9172048 210.222813,14.3304945 202.182757,14.7408037 C198.154683,14.8858525 194.177563,15.2931813 190.20983,15.6240118 C186.243438,15.9657706 182.297159,16.3045489 178.375017,16.6423338 C170.505255,17.1957048 162.83931,18.302447 155.257842,19.1767136 C153.363145,19.4052151 151.477835,19.6327232 149.60057,19.8592377 C147.724647,20.0937002 145.847382,20.2844492 144.010344,20.5993839 C140.320178,21.1666638 136.664875,21.7299697 133.048459,22.2863212 C129.432042,22.8426728 125.855853,23.3930634 122.321232,23.9374931 C118.821474,24.5931931 115.364625,25.2399517 111.954707,25.8787625 C108.543449,26.5175733 105.179122,27.1474427 101.86575,27.7673772 C98.589923,28.4906342 95.3637094,29.2019693 92.1911319,29.9023762 C89.0198954,30.60477 85.9009541,31.2962354 82.8396716,31.9747856 C79.8186162,32.7437429 76.8538788,33.4968044 73.9508229,34.2359571 C71.047767,34.9790838 68.2050518,35.7063147 65.4266999,36.4176499 C62.6872343,37.2074703 60.012132,37.9784146 57.4040749,38.7304826 C54.7946768,39.4825507 52.252324,40.214749 49.781039,40.9270777 C47.3472993,41.7089502 44.9846275,42.4679727 42.6943645,43.2031515 C40.4094651,43.9482651 38.1741791,44.6297957 36.0595744,45.3590136 C33.955697,46.1051208 31.928251,46.8253973 29.9812593,47.5168627 C26.056435,48.8610478 22.558018,50.2519266 19.3840997,51.4878217 C13.0429674,53.9685534 8.19560162,56.1055393 4.92916092,57.6057015 C1.67210655,59.1177854 0,60 0,60" id="Fill-87"></path>
                <path d="M0,49 C0,49 1.64126577,48.0879809 4.85138853,46.5162879 C8.07492032,44.963471 12.8364683,42.7092539 19.1360325,40.1500369 C22.2844737,38.8684414 25.7560726,37.4278884 29.6527379,36.0280682 C31.5890025,35.3087851 33.6030394,34.5596976 35.6935078,33.7817989 C37.7947034,33.0227765 40.0179213,32.3094544 42.2894117,31.5315557 C44.5676065,30.7625984 46.9182102,29.9697975 49.3385409,29.153153 C51.7990986,28.4050589 54.3293833,27.6361016 56.9280541,26.8462811 C59.5307477,26.065402 62.2004863,25.2646532 64.9345884,24.4450282 C67.7102584,23.7078624 70.5502919,22.9548009 73.4506659,22.1848502 C76.3550627,21.4198668 79.3184592,20.6389877 82.3395146,19.8422129 C85.3994562,19.1358451 88.5183975,18.4165621 91.6896341,17.6843637 C94.8635524,16.9561393 98.0911069,16.2149996 101.368275,15.4619381 C104.68567,14.8112055 108.052678,14.1515316 111.466618,13.4819228 C114.880558,12.812314 118.34143,12.1337638 121.845211,11.4472658 C125.385196,10.8710446 128.96809,10.2888624 132.58987,9.69972592 C136.214332,9.11953076 139.879021,8.53238121 143.578573,7.94026423 C145.422315,7.61936862 147.307626,7.42166514 149.188913,7.18223529 C151.072882,6.94876634 152.964897,6.7152974 154.866298,6.47984149 C162.474584,5.58173118 170.170029,4.45015192 178.066609,3.87194373 C182.003501,3.52223706 185.965871,3.17054342 189.947013,2.8178563 C193.929496,2.47411053 197.922706,2.05386644 201.964189,1.89788932 C210.035087,1.46274295 218.169007,1.02560961 226.335109,0.586489302 C234.519983,0.426538239 242.735698,0.265593692 250.951414,0.104649145 L257.114206,0.00430717375 C259.222106,-0.018542978 261.229438,0.0559683865 263.290407,0.0768315685 C267.386867,0.144388539 271.479304,0.211945509 275.563696,0.27950248 C279.648087,0.34705945 283.724434,0.413622936 287.790053,0.481179906 C291.855672,0.603378544 295.914587,0.84578885 299.953388,1.02163567 C316.136751,1.62070704 331.970138,2.89932205 347.261801,4.28523343 C354.879473,5.14857178 362.388532,5.90759421 369.701819,6.81563937 C376.977561,7.8766812 384.096417,8.91586637 391.026206,9.92723395 C397.892972,11.1541878 404.570671,12.3473631 411.031144,13.500799 C417.419208,14.8588928 423.590045,16.1702928 429.514157,17.4300316 C435.356473,18.8854869 440.988267,20.2088088 446.282154,21.5977006 C448.904961,22.3408273 451.460723,23.0660712 453.945417,23.770452 C456.418043,24.4947025 458.866532,25.1096696 461.14875,25.8776334 C470.379529,28.7517851 478.302927,31.4709531 484.656127,33.9596327 C486.245098,34.5805607 487.748251,35.1677103 489.162904,35.7200879 C490.569511,36.2853808 491.850074,36.8655759 493.06091,37.3782141 C495.490627,38.3955426 497.496618,39.3343858 499.117771,40.1033431 C502.365439,41.6313228 504,42.5522833 504,42.5522833 C504,42.5522833 502.334598,41.6621208 499.039998,40.1947437 C497.396051,39.4565844 495.363241,38.5554937 492.902683,37.584859 C491.677098,37.0950709 490.379103,36.5416999 488.960427,36.0002506 C487.535047,35.4677427 486.019826,34.9014564 484.418788,34.304372 C478.018656,31.907093 470.046985,29.3031692 460.774638,26.5641314 C458.484375,25.8299461 456.023817,25.2487575 453.541805,24.5602725 C451.049065,23.8926506 448.483917,23.2051591 445.851724,22.4997849 C440.541746,21.1873914 434.917997,19.895861 429.075681,18.5000148 C423.152911,17.2939242 416.984755,16.0381593 410.600714,14.7386811 C404.148287,13.6428673 397.475952,12.5093011 390.618572,11.3449368 C383.700851,10.3951653 376.594063,9.41956319 369.329048,8.42210439 C362.019784,7.62830999 354.553633,6.81861983 346.958757,5.99402739 C331.718048,4.65580329 315.928911,3.42487555 299.842093,2.87349145 C295.820723,2.71055993 291.79399,2.47907796 287.736417,2.36880114 C283.672138,2.31316599 279.595792,2.25653735 275.510059,2.2009022 C271.425668,2.14427356 267.33323,2.08863841 263.236771,2.03200977 C261.201279,2.0171075 259.10947,1.94657007 257.118228,1.97637462 L250.980913,2.08963189 C242.796039,2.2267328 234.612506,2.3648272 226.459813,2.50192811 C218.324552,2.91720478 210.222813,3.33049448 202.182757,3.74080373 C198.154683,3.88585252 194.177563,4.29318131 190.20983,4.62401177 C186.243438,4.96577056 182.297159,5.3045489 178.375017,5.64233375 C170.505255,6.19570482 162.83931,7.30344044 155.257842,8.17671363 C153.363145,8.40521515 151.477835,8.63272318 149.60057,8.85923773 C147.724647,9.09370016 145.847382,9.28444925 144.010344,9.59938395 C140.320178,10.1676573 136.664875,10.7299697 133.048459,11.2863212 C129.432042,11.8426728 125.855853,12.3940569 122.321232,12.9374931 C118.821474,13.5931931 115.364625,14.2399517 111.954707,14.8787625 C108.543449,15.5175733 105.179122,16.1474427 101.86575,16.7673772 C98.589923,17.4906342 95.3637094,18.2019693 92.1911319,18.9023762 C89.0198954,19.60477 85.9009541,20.2962354 82.8396716,20.9747856 C79.8186162,21.7437429 76.8538788,22.4968044 73.9508229,23.2359571 C71.047767,23.9790838 68.2050518,24.7063147 65.4266999,25.4176499 C62.6872343,26.2074703 60.012132,26.9784146 57.4040749,27.7304826 C54.7946768,28.4825507 52.252324,29.214749 49.781039,29.9270777 C47.3472993,30.7089502 44.9846275,31.4679727 42.6943645,32.2031515 C40.4094651,32.9482651 38.1741791,33.6297957 36.0595744,34.3590136 C33.955697,35.1051208 31.928251,35.8253973 29.9812593,36.5168627 C26.056435,37.8610478 22.558018,39.2519266 19.3840997,40.4878217 C13.0429674,42.9685534 8.19560162,45.1055393 4.92916092,46.6057015 C1.67210655,48.1177854 0,49 0,49" id="Fill-88"></path>
            </g>
            <path d="M456.2666,371.5175 C456.2666,378.7575 413.3046,384.6275 360.3086,384.6275 C307.3116,384.6275 264.3496,378.7575 264.3496,371.5175 C264.3496,364.2775 307.3116,358.4075 360.3086,358.4075 C413.3046,358.4075 456.2666,364.2775 456.2666,371.5175 L456.2666,371.5175 Z" id="Fill-1" fill="#4D4D4C"></path>
            <path d="M426.8012,368.0643 L293.5392,368.0643 C288.8432,368.0643 285.0352,364.2573 285.0352,359.5603 L285.0352,286.0413 C285.0352,281.3443 288.8432,277.5373 293.5392,277.5373 L426.8012,277.5373 C431.4982,277.5373 435.3052,281.3443 435.3052,286.0413 L435.3052,359.5603 C435.3052,364.2573 431.4982,368.0643 426.8012,368.0643" id="Fill-3" fill="#CBCCCB"></path>
            <path d="M292.2188,277.5371 L428.1218,277.5371 C432.0888,277.5371 435.3048,280.7531 435.3048,284.7201 L435.3048,360.8811 C435.3048,364.8481 432.0888,368.0641 428.1218,368.0641 L285.0358,284.7201 C285.0358,280.7531 288.2518,277.5371 292.2188,277.5371" id="Fill-5" fill="#F2F2F1"></path>
            <path d="M427.9669,329.6863 C427.9669,340.7123 419.0289,349.6503 408.0029,349.6503 C396.9769,349.6503 388.0379,340.7123 388.0379,329.6863 C388.0379,318.6603 396.9769,309.7223 408.0029,309.7223 C419.0289,309.7223 427.9669,318.6603 427.9669,329.6863" id="Fill-7" fill="#9E9F9E"></path>
            <path d="M419.9175,329.6863 C419.9175,336.2663 414.5835,341.6013 408.0025,341.6013 C401.4225,341.6013 396.0875,336.2663 396.0875,329.6863 C396.0875,323.1063 401.4225,317.7713 408.0025,317.7713 C414.5835,317.7713 419.9175,323.1063 419.9175,329.6863" id="Fill-9" fill="#3F4249"></path>
            <path d="M412.5135,329.6863 C412.5135,332.1773 410.4935,334.1973 408.0025,334.1973 C405.5115,334.1973 403.4915,332.1773 403.4915,329.6863 C403.4915,327.1953 405.5115,325.1753 408.0025,325.1753 C410.4935,325.1753 412.5135,327.1953 412.5135,329.6863" id="Fill-11" fill="#E9F3F0"></path>
            <path d="M333.6596,329.6863 C333.6596,340.7123 324.7216,349.6503 313.6956,349.6503 C302.6696,349.6503 293.7316,340.7123 293.7316,329.6863 C293.7316,318.6603 302.6696,309.7223 313.6956,309.7223 C324.7216,309.7223 333.6596,318.6603 333.6596,329.6863" id="Fill-13" fill="#9E9F9E"></path>
            <path d="M325.6102,329.6863 C325.6102,336.2663 320.2762,341.6013 313.6952,341.6013 C307.1152,341.6013 301.7802,336.2663 301.7802,329.6863 C301.7802,323.1063 307.1152,317.7713 313.6952,317.7713 C320.2762,317.7713 325.6102,323.1063 325.6102,329.6863" id="Fill-15" fill="#3F4249"></path>
            <path d="M318.2064,329.6863 C318.2064,332.1773 316.1864,334.1973 313.6954,334.1973 C311.2044,334.1973 309.1844,332.1773 309.1844,329.6863 C309.1844,327.1953 311.2044,325.1753 313.6954,325.1753 C316.1864,325.1753 318.2064,327.1953 318.2064,329.6863" id="Fill-17" fill="#E9F3F0"></path>
            <path d="M376.1736,337.012 L344.2456,337.012 C342.6796,337.012 341.4106,335.743 341.4106,334.177 L341.4106,316.35 C341.4106,314.785 342.6796,313.515 344.2456,313.515 L376.1736,313.515 C377.7396,313.515 379.0086,314.785 379.0086,316.35 L379.0086,334.177 C379.0086,335.743 377.7396,337.012 376.1736,337.012" id="Fill-19" fill="#3F4249"></path>
            <path d="M370.3343,325.9732 L350.0843,325.9732 C348.5193,325.9732 347.2503,324.7042 347.2503,323.1382 L347.2503,320.7092 C347.2503,319.1432 348.5193,317.8742 350.0843,317.8742 L370.3343,317.8742 C371.8993,317.8742 373.1693,319.1432 373.1693,320.7092 L373.1693,323.1382 C373.1693,324.7042 371.8993,325.9732 370.3343,325.9732" id="Fill-21" fill="#D8E2DF"></path>
            <path d="M298.776,302.32 L419.629,302.32 L419.629,292.165 L298.776,292.165 L298.776,302.32 Z" id="Fill-23" fill="#B4B5B4"></path>
            <path d="M325.719,284.807 L333.942,284.807 L333.942,282.643 L325.719,282.643 L325.719,284.807 Z" id="Fill-25" fill="#5B5B5D"></path>
            <path d="M335.928,284.807 L344.151,284.807 L344.151,282.643 L335.928,282.643 L335.928,284.807 Z" id="Fill-26" fill="#5B5B5D"></path>
            <path d="M346.138,284.807 L354.361,284.807 L354.361,282.643 L346.138,282.643 L346.138,284.807 Z" id="Fill-27" fill="#5B5B5D"></path>
            <path d="M356.347,284.807 L364.57,284.807 L364.57,282.643 L356.347,282.643 L356.347,284.807 Z" id="Fill-28" fill="#5B5B5D"></path>
            <path d="M366.557,284.807 L374.78,284.807 L374.78,282.643 L366.557,282.643 L366.557,284.807 Z" id="Fill-29" fill="#5B5B5D"></path>
            <path d="M376.766,284.807 L384.989,284.807 L384.989,282.643 L376.766,282.643 L376.766,284.807 Z" id="Fill-30" fill="#5B5B5D"></path>
            <path d="M386.975,284.807 L395.198,284.807 L395.198,282.643 L386.975,282.643 L386.975,284.807 Z" id="Fill-31" fill="#5B5B5D"></path>
            <path d="M303.4279,281.9943 L303.4279,267.2243 C303.4279,265.7403 304.6309,264.5363 306.1159,264.5363 L415.0679,264.5363 C416.5529,264.5363 417.7559,265.7403 417.7559,267.2243 L417.7559,281.9943 L422.0049,281.9943 L422.0049,265.4853 C422.0049,262.5163 419.5979,260.1093 416.6289,260.1093 L304.1519,260.1093 C301.1829,260.1093 298.7769,262.5163 298.7769,265.4853 L298.7769,281.9943 L303.4279,281.9943 Z" id="Fill-32" fill="#3F4249"></path>
            <path d="M297.373,283.076 L305.812,283.076 L305.812,280.912 L297.373,280.912 L297.373,283.076 Z" id="Fill-33" fill="#3F4249"></path>
            <path d="M416.048,283.076 L424.487,283.076 L424.487,280.912 L416.048,280.912 L416.048,283.076 Z" id="Fill-34" fill="#3F4249"></path>
            <path d="M301.593,300.219 L302.824,300.219 L302.824,293.884 L301.593,293.884 L301.593,300.219 Z" id="Fill-35" fill="#E9F3F0"></path>
            <path d="M304.069,300.219 L305.3,300.219 L305.3,297.051 L304.069,297.051 L304.069,300.219 Z" id="Fill-36" fill="#E9F3F0"></path>
            <path d="M306.545,300.219 L307.776,300.219 L307.776,297.051 L306.545,297.051 L306.545,300.219 Z" id="Fill-37" fill="#E9F3F0"></path>
            <path d="M309.021,300.219 L310.252,300.219 L310.252,297.051 L309.021,297.051 L309.021,300.219 Z" id="Fill-38" fill="#E9F3F0"></path>
            <path d="M311.497,300.219 L312.728,300.219 L312.728,297.051 L311.497,297.051 L311.497,300.219 Z" id="Fill-39" fill="#E9F3F0"></path>
            <path d="M314.584,300.219 L315.815,300.219 L315.815,293.884 L314.584,293.884 L314.584,300.219 Z" id="Fill-40" fill="#E9F3F0"></path>
            <path d="M317.06,300.219 L318.291,300.219 L318.291,297.051 L317.06,297.051 L317.06,300.219 Z" id="Fill-41" fill="#E9F3F0"></path>
            <path d="M319.536,300.219 L320.767,300.219 L320.767,297.051 L319.536,297.051 L319.536,300.219 Z" id="Fill-42" fill="#E9F3F0"></path>
            <path d="M322.012,300.219 L323.243,300.219 L323.243,297.051 L322.012,297.051 L322.012,300.219 Z" id="Fill-43" fill="#E9F3F0"></path>
            <path d="M324.488,300.219 L325.719,300.219 L325.719,297.051 L324.488,297.051 L324.488,300.219 Z" id="Fill-44" fill="#E9F3F0"></path>
            <path d="M327.575,300.219 L328.806,300.219 L328.806,293.884 L327.575,293.884 L327.575,300.219 Z" id="Fill-45" fill="#E9F3F0"></path>
            <path d="M330.051,300.219 L331.282,300.219 L331.282,297.051 L330.051,297.051 L330.051,300.219 Z" id="Fill-46" fill="#E9F3F0"></path>
            <path d="M332.527,300.219 L333.758,300.219 L333.758,297.051 L332.527,297.051 L332.527,300.219 Z" id="Fill-47" fill="#E9F3F0"></path>
            <path d="M335.003,300.219 L336.234,300.219 L336.234,297.051 L335.003,297.051 L335.003,300.219 Z" id="Fill-48" fill="#E9F3F0"></path>
            <path d="M337.48,300.219 L338.711,300.219 L338.711,297.051 L337.48,297.051 L337.48,300.219 Z" id="Fill-49" fill="#E9F3F0"></path>
            <path d="M340.566,300.219 L341.797,300.219 L341.797,293.884 L340.566,293.884 L340.566,300.219 Z" id="Fill-50" fill="#E9F3F0"></path>
            <path d="M343.042,300.219 L344.273,300.219 L344.273,297.051 L343.042,297.051 L343.042,300.219 Z" id="Fill-51" fill="#E9F3F0"></path>
            <path d="M345.518,300.219 L346.749,300.219 L346.749,297.051 L345.518,297.051 L345.518,300.219 Z" id="Fill-52" fill="#E9F3F0"></path>
            <path d="M347.994,300.219 L349.225,300.219 L349.225,297.051 L347.994,297.051 L347.994,300.219 Z" id="Fill-53" fill="#E9F3F0"></path>
            <path d="M350.471,300.219 L351.702,300.219 L351.702,297.051 L350.471,297.051 L350.471,300.219 Z" id="Fill-54" fill="#E9F3F0"></path>
            <path d="M353.557,300.219 L354.788,300.219 L354.788,293.884 L353.557,293.884 L353.557,300.219 Z" id="Fill-55" fill="#E9F3F0"></path>
            <path d="M356.033,300.219 L357.264,300.219 L357.264,297.051 L356.033,297.051 L356.033,300.219 Z" id="Fill-56" fill="#E9F3F0"></path>
            <path d="M358.509,300.219 L359.74,300.219 L359.74,297.051 L358.509,297.051 L358.509,300.219 Z" id="Fill-57" fill="#E9F3F0"></path>
            <path d="M360.985,300.219 L362.216,300.219 L362.216,297.051 L360.985,297.051 L360.985,300.219 Z" id="Fill-58" fill="#E9F3F0"></path>
            <path d="M363.462,300.219 L364.693,300.219 L364.693,297.051 L363.462,297.051 L363.462,300.219 Z" id="Fill-59" fill="#E9F3F0"></path>
            <path d="M366.548,300.219 L367.779,300.219 L367.779,293.884 L366.548,293.884 L366.548,300.219 Z" id="Fill-60" fill="#E9F3F0"></path>
            <path d="M369.024,300.219 L370.255,300.219 L370.255,297.051 L369.024,297.051 L369.024,300.219 Z" id="Fill-61" fill="#E9F3F0"></path>
            <path d="M371.5,300.219 L372.731,300.219 L372.731,297.051 L371.5,297.051 L371.5,300.219 Z" id="Fill-62" fill="#E9F3F0"></path>
            <path d="M373.977,300.219 L375.208,300.219 L375.208,297.051 L373.977,297.051 L373.977,300.219 Z" id="Fill-63" fill="#E9F3F0"></path>
            <path d="M376.453,300.219 L377.684,300.219 L377.684,297.051 L376.453,297.051 L376.453,300.219 Z" id="Fill-64" fill="#E9F3F0"></path>
            <path d="M379.539,300.219 L380.77,300.219 L380.77,293.884 L379.539,293.884 L379.539,300.219 Z" id="Fill-65" fill="#E9F3F0"></path>
            <path d="M382.015,300.219 L383.246,300.219 L383.246,297.051 L382.015,297.051 L382.015,300.219 Z" id="Fill-66" fill="#E9F3F0"></path>
            <path d="M384.491,300.219 L385.722,300.219 L385.722,297.051 L384.491,297.051 L384.491,300.219 Z" id="Fill-67" fill="#E9F3F0"></path>
            <path d="M386.968,300.219 L388.199,300.219 L388.199,297.051 L386.968,297.051 L386.968,300.219 Z" id="Fill-68" fill="#E9F3F0"></path>
            <path d="M389.444,300.219 L390.675,300.219 L390.675,297.051 L389.444,297.051 L389.444,300.219 Z" id="Fill-69" fill="#E9F3F0"></path>
            <path d="M392.53,300.219 L393.761,300.219 L393.761,293.884 L392.53,293.884 L392.53,300.219 Z" id="Fill-70" fill="#E9F3F0"></path>
            <path d="M395.006,300.219 L396.237,300.219 L396.237,297.051 L395.006,297.051 L395.006,300.219 Z" id="Fill-71" fill="#E9F3F0"></path>
            <path d="M397.482,300.219 L398.713,300.219 L398.713,297.051 L397.482,297.051 L397.482,300.219 Z" id="Fill-72" fill="#E9F3F0"></path>
            <path d="M399.959,300.219 L401.19,300.219 L401.19,297.051 L399.959,297.051 L399.959,300.219 Z" id="Fill-73" fill="#E9F3F0"></path>
            <path d="M402.435,300.219 L403.666,300.219 L403.666,297.051 L402.435,297.051 L402.435,300.219 Z" id="Fill-74" fill="#E9F3F0"></path>
            <path d="M405.521,300.219 L406.752,300.219 L406.752,293.884 L405.521,293.884 L405.521,300.219 Z" id="Fill-75" fill="#E9F3F0"></path>
            <path d="M407.997,300.219 L409.228,300.219 L409.228,297.051 L407.997,297.051 L407.997,300.219 Z" id="Fill-76" fill="#E9F3F0"></path>
            <path d="M410.474,300.219 L411.705,300.219 L411.705,297.051 L410.474,297.051 L410.474,300.219 Z" id="Fill-77" fill="#E9F3F0"></path>
            <path d="M412.95,300.219 L414.181,300.219 L414.181,297.051 L412.95,297.051 L412.95,300.219 Z" id="Fill-78" fill="#E9F3F0"></path>
            <path d="M415.426,300.219 L416.657,300.219 L416.657,297.051 L415.426,297.051 L415.426,300.219 Z" id="Fill-79" fill="#E9F3F0"></path>
            <path d="M341.411,349.283 L348.247,349.283 L348.247,343.652 L341.411,343.652 L341.411,349.283 Z" id="Fill-80" fill="#3F4249"></path>
            <path d="M351.664,349.283 L358.5,349.283 L358.5,343.652 L351.664,343.652 L351.664,349.283 Z" id="Fill-81" fill="#3F4249"></path>
            <path d="M361.918,349.283 L368.754,349.283 L368.754,343.652 L361.918,343.652 L361.918,349.283 Z" id="Fill-82" fill="#3F4249"></path>
            <path d="M372.172,349.283 L379.008,349.283 L379.008,343.652 L372.172,343.652 L372.172,349.283 Z" id="Fill-83" fill="#3F4249"></path>
            <g id="Group-14" transform="translate(437.000000, 23.000000)">
                <path d="M96.1475,387.4721 C96.1475,387.4721 69.7595,460.1511 83.9715,512.1511 C98.4705,565.2011 96.1835,564.1511 96.1835,564.1511 L117.0105,564.1511 C117.0105,564.1511 101.6835,470.3891 130.1835,418.2571 C158.6835,366.1251 96.1475,387.4721 96.1475,387.4721" id="Fill-172" fill="#FDE6C3"></path>
                <path d="M123.3658,399.8019 C123.3658,399.8019 157.4128,469.2229 204.7268,495.0559 C252.9968,521.4109 250.6538,522.3299 250.6538,522.3299 L265.1008,507.3279 C265.1008,507.3279 186.9318,453.3299 169.1498,396.6389 C151.3678,339.9489 123.3658,399.8019 123.3658,399.8019" id="Fill-180" fill="#FDE6C3"></path>
                <path d="M128.6949,13.3227 C128.6949,13.3227 161.5949,-2.7553 194.3209,20.0167 C237.4969,50.0607 226.0799,89.7757 218.8209,128.8407 C211.4119,168.7167 229.4969,204.8937 246.7449,207.6537 C246.7449,207.6537 191.3209,244.5227 179.6129,206.7177 L128.6949,13.3227 Z" id="Fill-188" fill="#5B5B5D"></path>
                <path d="M176.9756,14.3978 C176.9756,14.3978 144.0566,-8.0182 106.1576,4.5368 C59.1116,20.1228 59.6476,68.8348 57.0366,108.6038 C54.9456,140.4608 61.1576,199.8068 55.7686,211.1188 C55.7686,211.1188 106.7386,217.7028 111.0566,199.0798 L176.9756,14.3978 Z" id="Fill-190" fill="#5B5B5D"></path>
                <path d="M165.0764,12.8644 C165.0764,12.8644 141.5154,-0.6176 110.4144,6.0634 C71.3804,14.4494 53.8254,46.5664 65.2944,116.1304 C70.4874,147.6314 65.4144,204.3334 60.0254,215.6454 C60.0254,215.6454 110.9954,222.2294 115.3134,203.6064 L165.0764,12.8644 Z" id="Fill-192" fill="#515353"></path>
                <path d="M178.5029,253.5092 C168.9649,291.8782 139.2209,295.1682 104.4139,286.5152 C69.6079,277.8632 43.3599,255.1552 52.8979,216.7852 C52.8979,216.7852 56.6789,216.2752 66.2239,177.9772 C66.2239,177.9772 58.8209,130.2372 69.1219,89.5452 C81.3899,41.0782 99.2429,2.7302 168.4459,25.6732 C202.2219,36.8702 209.0649,62.7842 187.2749,124.1572 C178.9269,147.6712 195.4789,165.8312 188.7859,188.1732 C185.7199,225.1442 178.5029,253.5092 178.5029,253.5092" id="Fill-194" fill="#FDE6C3"></path>
                <path d="M108.5613,104.0071 C108.5613,104.0071 97.6503,120.7341 99.7033,124.7511 C101.3673,128.0101 106.5403,128.7001 108.9623,126.5601 C112.3083,123.6021 108.5613,104.0071 108.5613,104.0071" id="Fill-196" fill="#DABFA1"></path>
                <path d="M108.8143,102.7121 C108.8143,102.7121 97.4533,118.9351 99.9563,123.4561 C101.5213,126.2831 106.6453,127.2241 109.2153,125.2651 C112.7973,122.5341 108.8143,102.7121 108.8143,102.7121" id="Fill-198" fill="#ECD0B1"></path>
                <path d="M165.0764,16.0866 C165.0764,16.0866 160.9594,70.6496 123.2704,68.9046 C123.2704,68.9046 139.3084,41.0566 142.5144,36.5666 C142.5144,36.5666 126.7154,72.1276 101.7274,67.2206 C101.7274,67.2206 117.1104,61.8756 122.1364,48.0516 C122.1364,48.0516 97.6404,72.2236 79.0374,71.5606 C79.0374,71.5606 88.4904,68.7776 95.2654,58.4416 C95.2654,58.4416 74.9704,57.8626 64.2314,102.2876 L63.2684,84.6706 C63.2684,84.6706 56.3214,-28.6294 165.0764,16.0866" id="Fill-200" fill="#515353"></path>
                <path d="M165.0764,16.0866 C165.0764,16.0866 157.4074,66.9176 123.2704,68.9046 C123.2704,68.9046 138.7764,37.5576 141.9824,33.0676 C141.9824,33.0676 128.3514,66.5576 101.7274,67.2206 C101.7274,67.2206 116.5784,58.3766 121.6044,44.5526 C121.6044,44.5526 100.7774,67.4606 79.0374,71.5606 C79.0374,71.5606 87.9584,65.2796 94.7324,54.9426 C94.7324,54.9426 77.4374,58.2596 63.6994,98.7896 C63.6994,98.7896 63.5924,81.4026 64.6474,68.8346 C65.7024,56.2656 83.0904,-22.9144 165.0764,16.0866" id="Fill-202" fill="#5B5B5D"></path>
                <path d="M143.3177,21.2779 C143.3177,21.2779 144.6977,69.6149 157.8347,90.1439 C169.9737,109.1139 152.8217,162.3709 165.5967,171.2959 C165.5967,171.2959 196.6277,167.6379 197.6567,120.8709 C197.9107,109.3529 225.0937,10.1229 143.3177,21.2779" id="Fill-204" fill="#5B5B5D"></path>
                <path d="M140.1879,89.3045 C136.3179,87.7315 132.9119,90.2675 132.9119,90.2675 C132.9119,90.2675 136.9179,86.2065 141.2069,87.9545 C144.0939,89.1305 146.0729,91.3865 145.1249,95.3585 C145.1249,95.3585 143.9299,90.8265 140.1879,89.3045" id="Fill-206" fill="#5B5B5D"></path>
                <path d="M84.1396,81.0756 C80.2696,79.5026 76.8636,82.0386 76.8636,82.0386 C76.8636,82.0386 80.8696,77.9776 85.1586,79.7256 C88.0456,80.9016 90.0256,83.1576 89.0766,87.1296 C89.0766,87.1296 87.8816,82.5976 84.1396,81.0756" id="Fill-208" fill="#5B5B5D"></path>
                <path d="M106.0579,140.8792 C114.0779,144.5622 123.6849,144.9392 123.6849,144.9392 C123.6849,144.9392 115.1259,168.4742 99.1329,165.2882 C84.9069,162.4532 89.4589,142.8532 89.4589,142.8532 C89.4589,142.8532 94.5479,138.5712 104.3209,140.5022 L106.0579,140.8792 Z" id="Fill-210" fill="#EA8E8F"></path>
                <path d="M90.0963,156.6716 C90.0963,156.6716 94.7353,155.1306 100.3473,154.5896 C105.9583,154.0486 102.4803,156.9386 102.4803,156.9386 C102.4803,156.9386 110.6363,154.2946 113.6003,155.0746 C116.5643,155.8546 116.5613,158.8236 116.5613,158.8236 C116.5613,158.8236 112.5513,164.8906 103.2633,164.6416 C93.9753,164.3916 90.0963,156.6716 90.0963,156.6716" id="Fill-212" fill="#F0B0B3"></path>
                <path d="M89.4593,142.8536 C89.4593,142.8536 92.3723,143.0496 100.6173,140.7726 C111.4543,148.1766 124.5023,146.8356 124.3083,144.2616 C118.2813,145.4096 110.4363,134.8666 101.0433,138.3406 C101.0433,138.3406 93.8973,132.9916 89.4593,142.8536" id="Fill-214" fill="#E06D73"></path>
                <path d="M89.4593,142.8536 C89.4593,142.8536 83.2763,165.6046 100.1123,168.4836 C115.9243,171.1866 124.3083,144.2616 124.3083,144.2616 C120.7353,144.5596 111.7583,164.8116 101.1043,163.6836 C88.7403,162.3746 93.8583,144.1526 89.4593,142.8536" id="Fill-216" fill="#E06D73"></path>
                <path d="M73.2751,75.9546 C73.2751,75.9546 75.0471,7.5486 132.9121,21.9326 C190.7771,36.3166 178.7311,95.4926 178.7311,95.4926 C178.7311,95.4926 214.7201,38.3406 145.6251,15.9586 C69.1541,-8.8114 73.2751,75.9546 73.2751,75.9546" id="Fill-218" fill="#8772A6"></path>
                <path d="M75.7279,93.6702 C75.7279,93.6702 79.2339,98.2932 83.5539,99.5452 C87.8729,100.7972 91.9219,98.3902 91.9219,98.3902 C91.9219,98.3902 87.8899,103.0892 83.0469,101.3632 C76.8369,99.1492 75.7279,93.6702 75.7279,93.6702" id="Fill-220" fill="#DABFA1"></path>
                <path d="M127.8083,104.6504 C127.8083,104.6504 130.7763,108.5624 134.4323,109.6224 C138.0873,110.6824 141.5153,108.6454 141.5153,108.6454 C141.5153,108.6454 138.1023,112.6234 134.0033,111.1614 C128.7473,109.2884 127.8083,104.6504 127.8083,104.6504" id="Fill-222" fill="#DABFA1"></path>
                <path d="M160.8821,143.5954 C160.8821,143.5954 157.3301,203.7034 179.1931,210.8634 C198.2811,217.1144 244.1521,199.8664 244.1521,199.8664 C244.1521,199.8664 196.3261,163.9394 199.7131,113.4394 C203.1001,62.9404 160.8821,143.5954 160.8821,143.5954" id="Fill-224" fill="#5B5B5D"></path>
                <path d="M178.0887,99.5725 C178.0887,99.5725 185.4557,98.1665 186.9557,105.5595 C188.2567,111.9795 185.4107,112.2715 181.5997,119.2855 C177.7887,126.3005 178.5027,132.1205 169.7307,129.6655 L178.0887,99.5725" id="Fill-226" fill="#F8DFBE"></path>
                <path d="M165.0764,180.3251 C165.0764,180.3251 145.9884,215.0821 185.7194,219.6951 C179.4354,258.2661 180.8144,334.8351 180.8144,334.8351 L145.3464,345.1061 L89.7474,335.3401 C89.7474,335.3401 55.7874,262.9301 50.5784,237.4801 C45.3704,212.0291 65.2014,171.9311 65.2014,171.9311 L66.2244,177.9771 C66.2244,177.9771 66.9094,208.1971 96.7034,208.1971 C126.4964,208.1971 162.0764,175.3251 162.0764,175.3251 L165.0764,180.3251 Z" id="Fill-228" fill="#894389"></path>
                <path d="M81.465,313.3221 C81.465,313.3221 43.546,393.8631 51.948,463.0171 C51.948,463.0171 71.649,477.7901 154.802,463.5751 C237.955,449.3601 250.144,428.5461 250.144,428.5461 C250.144,428.5461 228.514,338.6401 169.859,297.1091 L81.465,313.3221 Z" id="Fill-230" fill="#894389"></path>
                <path d="M221.964,192.4819 C221.964,192.4819 249.295,173.3569 259.291,153.4099 C272.675,126.7009 280.377,68.5469 277.291,30.4579 L257.296,32.8379 C255.253,81.5959 251.512,107.7879 239.957,136.0769 C231.652,156.4109 210.171,164.8079 210.171,164.8079 L221.964,192.4819" id="Fill-232" fill="#FDE6C3"></path>
                <path d="M179.5806,215.8152 C206.1886,220.0672 241.8996,174.0762 241.8996,174.0762 L220.9696,158.7612 L165.0766,180.3252 C165.0766,180.3252 145.8216,213.2482 179.5806,217.8152" id="Fill-234" fill="#FDE6C3"></path>
                <path d="M255.6546,23.1228 C255.6546,23.1228 247.9876,34.1598 267.3216,36.9318 C286.6546,39.7038 298.4926,25.0368 307.9066,25.0368 C317.3216,25.0368 321.2116,21.9068 311.3216,18.8498 C276.6546,8.1348 265.0176,25.2708 262.3216,18.8498 C259.3216,11.7038 247.7446,9.3708 247.7446,13.3708 C247.7446,19.2558 255.2066,17.4778 255.6546,23.1228" id="Fill-236" fill="#FDE6C3"></path>
                <path d="M270.8213,20.1228 C270.8213,20.1228 281.3213,12.6208 295.0713,12.8708 C308.8213,13.1208 302.5223,14.5788 296.0463,15.5998 C289.5713,16.6208 270.8213,20.1228 270.8213,20.1228" id="Fill-238" fill="#FDE6C3"></path>
                <path d="M276.0713,22.4787 C276.0713,22.4787 286.5713,14.9767 300.3213,15.2267 C314.0713,15.4767 307.7723,16.9347 301.2963,17.9557 C294.8213,18.9767 276.0713,22.4787 276.0713,22.4787" id="Fill-240" fill="#FDE6C3"></path>
                <path d="M279.7065,18.4816 C279.7065,18.4816 285.4225,18.5556 290.1545,24.3526 L279.7065,18.4816 Z" id="Fill-242" fill="#ECD0B1"></path>
                <path d="M58.6992,186.9856 C-43.3458,214.7036 5.9882,286.3706 81.6372,246.9356 L75.2662,228.0576 C75.2662,228.0576 63.0432,233.0116 50.5782,236.1776 C18.3212,244.3706 15.8422,223.2516 51.4192,212.2286 L58.6992,186.9856 Z" id="Fill-244" fill="#FDE6C3"></path>
                <path d="M75.2662,228.0578 C75.2662,228.0578 79.4632,220.0758 88.4802,217.7278 C96.1212,215.7378 96.9222,207.9588 99.1412,207.1058 C101.3612,206.2528 104.7552,210.5308 102.2932,214.2728 C99.3402,218.7388 98.0302,220.6648 98.0302,220.6648 C98.0302,220.6648 109.0162,216.8108 118.0412,212.7208 C126.2852,208.9848 126.3962,215.3058 122.0712,217.2438 C116.2142,219.8678 104.4532,225.1448 104.4532,225.1448 C104.4532,225.1448 118.6652,221.0078 126.2992,218.8828 C133.5442,216.8658 135.2852,222.8868 129.0832,225.0228 C114.8882,229.9108 107.7192,232.2208 107.7192,232.2208 C107.7192,232.2208 117.5122,230.8718 126.4112,228.5058 C134.4672,226.3638 135.1702,232.3418 129.6312,233.7108 C123.3172,235.2718 109.5402,239.3138 109.5402,239.3138 C109.5402,239.3138 115.0402,239.4438 120.5902,239.1468 C126.7722,238.8158 127.0242,243.5638 122.1662,244.0528 C115.2832,244.7468 105.3862,245.4148 98.6482,247.5318 C89.6522,250.3578 80.4222,246.7988 80.4222,246.7988 L75.2662,228.0578 Z" id="Fill-246" fill="#FDE6C3"></path>
            </g>
            <path d="M333.8562,215.8259 L322.6332,233.0839 C320.9412,235.6859 317.4642,236.4189 314.8662,234.7299 C312.2682,233.0409 311.5282,229.5639 313.2202,226.9619 C314.9092,224.3649 318.3892,223.6269 320.9872,225.3169 C321.5392,225.6749 321.9892,226.1299 322.3692,226.6239 L327.6752,218.0179 L313.7622,211.9489 L304.9032,226.0199 C303.2122,228.6209 299.7342,229.3549 297.1362,227.6649 C294.5382,225.9759 293.7982,222.4999 295.4902,219.8979 C297.1792,217.2999 300.6602,216.5629 303.2572,218.2519 C303.8092,218.6109 304.2592,219.0649 304.6392,219.5599 L312.9882,206.7209 L333.8562,215.8259 Z" id="Fill-250" fill="#3F4249"></path>
            <path d="M404.0109,116.3716 C410.1829,117.8196 414.0699,113.1446 414.0699,113.1446 L411.9059,104.6936 C407.6879,111.8456 399.9199,107.4856 399.9199,107.4856 L405.0559,127.5526 C403.7609,126.7546 402.2079,126.5226 400.6949,127.0556 C397.6309,128.1316 395.8899,131.9156 396.8109,135.5066 C397.7289,139.0986 400.9599,141.1346 404.0229,140.0586 C407.0859,138.9826 408.8279,135.1986 407.9059,131.6076 L404.0109,116.3716 Z M427.4449,110.1806 L426.9309,104.0556 C423.2109,108.3096 418.3729,104.1326 418.3729,104.1326 L419.5949,118.6746 C418.7949,117.9276 417.7559,117.5316 416.6559,117.6646 C414.4249,117.9316 412.7959,120.2606 413.0159,122.8616 C413.2339,125.4646 415.2189,127.3576 417.4489,127.0876 C419.6799,126.8206 421.3089,124.4936 421.0899,121.8906 L420.1629,110.8366 C424.2329,112.7736 427.4449,110.1806 427.4449,110.1806 L427.4449,110.1806 Z" id="Fill-252" fill="#3F4249"></path>
            <path d="M358.2895,174.4963 C357.8685,172.1033 356.2125,155.0173 356.1935,154.8433 L356.1735,154.6503 L355.9815,154.6133 L341.3965,151.4923 L341.0525,151.4153 L341.0815,151.7693 L342.6895,169.5663 C341.4255,168.8773 339.0625,168.1973 337.3005,169.0493 C335.9995,169.6803 335.2905,170.9743 335.1935,172.9083 C335.1265,174.4213 335.9785,176.0493 337.3175,176.9773 C338.7735,177.9813 340.6485,178.0683 342.5925,177.2363 C344.7665,176.2783 345.8855,174.1353 345.5885,171.5023 C345.3595,170.1613 344.7565,164.7343 344.2675,160.2553 L354.4535,162.3893 L355.4105,172.5743 C354.1465,171.8863 351.7835,171.2163 350.0205,172.0583 C348.7195,172.6893 348.0115,173.9933 347.9145,175.9243 C347.8475,177.4383 348.6995,179.0733 350.0385,179.9833 C351.4945,180.9873 353.3595,181.0753 355.3135,180.2423 C357.4665,179.2823 358.5865,177.1393 358.2895,174.4963 L358.2895,174.4963 Z M343.9235,157.1043 C343.8935,156.7703 343.8665,156.3283 343.8365,155.8973 C343.8165,155.6013 343.7985,155.3243 343.7795,155.0843 L354.0225,157.2383 L354.1565,159.2303 L343.9235,157.1043 Z" id="Fill-256" fill="#3F4249"></path>
            <path d="M240.951,13.2897 L247.495,37.3347 C248.481,40.9607 246.341,44.6927 242.722,45.6777 C239.102,46.6627 235.366,44.5297 234.379,40.9047 C233.394,37.2847 235.533,33.5467 239.152,32.5617 C239.921,32.3527 240.694,32.3127 241.447,32.3677 L237.949,20.6397 L221.255,28.3147 L226.825,47.6567 C227.811,51.2807 225.671,55.0137 222.051,55.9987 C218.432,56.9837 214.696,54.8507 213.709,51.2257 C212.724,47.6057 214.863,43.8677 218.482,42.8827 C219.251,42.6737 220.025,42.6337 220.777,42.6887 L215.909,24.7997 L240.951,13.2897 Z" id="Fill-248" fill="#3F4249"></path>
            <path d="M474.3528,23.6588 C480.5248,25.1068 484.4118,20.4318 484.4118,20.4318 L482.2478,11.9808 C478.0298,19.1328 470.2618,14.7728 470.2618,14.7728 L475.3978,34.8398 C474.1028,34.0418 472.5498,33.8098 471.0368,34.3428 C467.9728,35.4188 466.2318,39.2028 467.1528,42.7938 C468.0708,46.3858 471.3018,48.4218 474.3648,47.3458 C477.4278,46.2698 479.1698,42.4858 478.2478,38.8948 L474.3528,23.6588 Z M497.7868,17.4678 L497.2728,11.3428 C493.5528,15.5968 488.7148,11.4198 488.7148,11.4198 L489.9368,25.9618 C489.1368,25.2148 488.0978,24.8188 486.9978,24.9528 C484.7668,25.2188 483.1378,27.5478 483.3568,30.1488 C483.5758,32.7518 485.5608,34.6448 487.7908,34.3748 C490.0218,34.1078 491.6508,31.7808 491.4318,29.1778 L490.5048,18.1238 C494.5748,20.0608 497.7868,17.4678 497.7868,17.4678 L497.7868,17.4678 Z" id="Fill-254" fill="#3F4249"></path>
            <path d="M410.1908,36.8146 C410.1598,34.3846 411.2708,17.2556 411.2798,17.0796 L411.2908,16.8866 L411.1068,16.8196 L397.2128,11.3956 L396.8858,11.2636 L396.8578,11.6186 L395.5858,29.4416 C394.4488,28.5586 392.2258,27.5076 390.3498,28.0666 C388.9638,28.4796 388.0568,29.6426 387.6508,31.5366 C387.3408,33.0186 387.9208,34.7626 389.0928,35.8936 C390.3678,37.1186 392.2048,37.5056 394.2578,36.9966 C396.5568,36.4006 398.0058,34.4646 398.1358,31.8196 C398.1258,30.4586 398.4018,25.0046 398.6398,20.5056 L408.3498,24.2486 L407.6578,34.4546 C406.5208,33.5726 404.2968,32.5316 402.4208,33.0796 C401.0358,33.4936 400.1278,34.6666 399.7208,36.5576 C399.4118,38.0406 399.9908,39.7916 401.1658,40.9046 C402.4408,42.1296 404.2678,42.5156 406.3298,42.0076 C408.6098,41.4066 410.0588,39.4706 410.1908,36.8146 L410.1908,36.8146 Z M398.8068,17.3396 C398.8308,17.0056 398.8738,16.5656 398.9138,16.1356 C398.9418,15.8396 398.9688,15.5636 398.9878,15.3236 L408.7518,19.0956 L408.5648,21.0826 L398.8068,17.3396 Z" id="Fill-258" fill="#3F4249"></path>
            <path d="M317.715,16.8556 C323.887,18.3036 327.774,13.6286 327.774,13.6286 L325.61,5.1776 C321.392,12.3296 313.624,7.9696 313.624,7.9696 L318.76,28.0366 C317.465,27.2386 315.912,27.0066 314.399,27.5396 C311.335,28.6156 309.594,32.3996 310.515,35.9906 C311.433,39.5826 314.664,41.6186 317.727,40.5426 C320.79,39.4666 322.532,35.6826 321.61,32.0916 L317.715,16.8556 Z" id="Fill-260" fill="#3F4249"></path>
            <path d="M391.1285,194.0796 C397.3005,195.5276 401.1875,190.8526 401.1875,190.8526 L399.0235,182.4016 C394.8055,189.5536 387.0375,185.1936 387.0375,185.1936 L392.1735,205.2606 C390.8785,204.4626 389.3255,204.2306 387.8125,204.7636 C384.7485,205.8396 383.0075,209.6236 383.9285,213.2146 C384.8465,216.8066 388.0775,218.8426 391.1405,217.7666 C394.2035,216.6906 395.9455,212.9066 395.0235,209.3156 L391.1285,194.0796 Z" id="Fill-262" fill="#3F4249"></path>
            <g id="Group-13" transform="translate(0.000000, 6.000000)">
                <path d="M262.7545,101.6405 C262.7545,101.6405 266.4885,108.4565 273.3175,114.1655 C280.1245,119.8545 301.5725,113.4145 301.3365,97.4005 C301.0995,81.3855 294.1545,80.9255 294.1545,80.9255 L262.7545,101.6405 Z" id="Fill-89" fill="#F5DCBB"></path>
                <path d="M150.9261,71.2317 L164.7771,76.8567 L166.7181,72.0767 L152.8671,66.4507 L150.9261,71.2317 Z" id="Fill-90" fill="#F0A45E"></path>
                <path d="M190.1526,237.8092 C190.1526,237.8092 209.8116,233.2062 228.4566,220.9522 C253.4216,204.5432 316.3306,150.4342 294.6896,105.5642 L276.3266,114.0142 C287.5366,142.0892 249.8956,178.6032 223.6046,193.4542 C204.4806,204.2572 193.8116,207.9512 193.8116,207.9512 L190.1526,237.8092" id="Fill-91" fill="#F5DCBB"></path>
                <path d="M165.8896,224.3105 C173.4056,201.6955 220.9726,186.9395 220.9726,186.9395 L233.8456,218.9105 L179.5476,251.5235 C179.5476,251.5235 158.3746,246.9255 165.8896,224.3105" id="Fill-92" fill="#749AC4"></path>
                <path d="M180.8781,218.1298 C189.9871,256.6028 176.1191,276.0268 137.6451,285.1368 L134.6681,289.9088 C96.1951,299.0188 70.4621,288.9708 61.3531,250.4978 L25.0931,126.6768 C14.3531,93.9628 3.8781,40.0558 83.0301,26.1238 C137.7641,16.4898 152.7421,47.7898 163.2181,76.9658 C176.6551,114.3838 182.3191,225.1408 182.3191,225.1408" id="Fill-93" fill="#FDE6C3"></path>
                <path d="M171.0989,374.0849 C171.0989,374.0849 191.2269,399.3119 225.5249,451.9829 C251.7019,492.1809 263.2319,524.1729 263.2319,524.1729 L237.4629,544.7329 C237.4629,544.7329 226.2109,525.5009 191.5999,479.0559 C161.7899,439.0539 130.8839,410.0099 130.8839,410.0099 L169.8519,372.5219" id="Fill-95" fill="#40413F"></path>
                <path d="M187.5475,401.4442 C187.7355,436.9292 149.8345,448.2242 112.1165,448.4662 L107.7925,448.5342 C70.0745,448.7762 32.7775,437.8762 32.5905,402.3912 L32.4305,395.8772 L187.3875,394.9302 L187.5475,401.4442" id="Fill-104" fill="#4A4A4A"></path>
                <path d="M96.2237,419.5529 C96.2237,419.5529 96.2237,451.8259 90.1837,514.3879 C85.5747,562.1369 74.6347,594.3349 74.6347,594.3349 L41.6687,594.3349 C41.6687,594.3349 44.8687,572.2839 46.7807,514.3929 C48.4267,464.5319 42.3827,422.5529 42.3827,422.5529 L96.2237,417.5529" id="Fill-106" fill="#4A4A4A"></path>
                <path d="M168.2177,407.5422 L168.2177,423.5122 L173.4247,427.0342 L173.4247,407.5422 L168.2177,407.5422 Z" id="Fill-115" fill="#363836"></path>
                <path d="M182.6035,217.0492 L192.6805,399.2182 C192.6805,399.2182 180.2015,413.2922 179.5475,413.2002 L27.2285,400.1652 L40.9525,309.0942 L38.3115,200.5972 L160.6095,219.5742 L176.9875,241.5522 L182.6035,217.0492 Z" id="Fill-116" fill="#749AC4"></path>
                <path d="M38.3114,200.5972 L160.6094,219.5742 L176.9884,241.5522 L179.5474,413.2002 L27.2284,400.1652 L44.1084,312.2992 L38.3114,200.5972" id="Fill-117" fill="#7092BB"></path>
                <path d="M38.3115,200.5972 L149.8505,241.5522 L160.6095,219.5742 L38.3115,200.5972 Z" id="Fill-118" fill="#8BAFD1"></path>
                <path d="M64.6744,424.5834 C64.6744,424.5834 73.3614,425.5524 77.6924,420.4644 C82.0234,415.3774 82.0834,408.6954 82.0834,408.6954 C82.0834,408.6954 85.2114,415.5804 79.5244,422.1624 C73.8364,428.7454 64.6744,424.5834 64.6744,424.5834" id="Fill-119" fill="#363836"></path>
                <path d="M132.6734,87.2737 L120.5604,96.0357 L117.5364,91.8557 L129.6484,83.0927 L132.6734,87.2737 Z" id="Fill-120" fill="#F0A45E"></path>
                <path d="M179.5477,251.5232 C179.5477,252.8182 178.4977,253.8682 177.2027,253.8682 C175.9077,253.8682 174.8577,252.8182 174.8577,251.5232 C174.8577,250.2282 175.9077,249.1782 177.2027,249.1782 C178.4977,249.1782 179.5477,250.2282 179.5477,251.5232" id="Fill-121" fill="#546186"></path>
                <path d="M179.5477,260.5092 C179.5477,261.8042 178.4977,262.8542 177.2027,262.8542 C175.9077,262.8542 174.8577,261.8042 174.8577,260.5092 C174.8577,259.2142 175.9077,258.1642 177.2027,258.1642 C178.4977,258.1642 179.5477,259.2142 179.5477,260.5092" id="Fill-122" fill="#546186"></path>
                <path d="M38.3115,200.5972 L150.1425,241.6612 L148.8505,243.5522 L38.1415,203.5452 L38.3115,200.5972 Z" id="Fill-123" fill="#546186"></path>
                <path d="M55.0246,58.0281 C55.0246,58.0281 71.6396,72.1301 77.5236,101.4771 C82.1486,124.5381 78.8786,135.6361 78.8786,135.6361 C78.8786,135.6361 44.6586,89.5351 55.0246,58.0281" id="Fill-124" fill="#EA9955"></path>
                <path d="M72.402,143.9855 L53.42,26.5905 C53.42,26.5905 13.85,48.4895 5.415,59.6925 C-3.02,70.8955 1.29,80.9585 2.72,86.5245 C2.72,86.5245 25.947,181.6865 38.142,185.1285 C56.594,190.2805 80.807,182.4005 80.807,182.4005 L72.402,143.9855 Z" id="Fill-125" fill="#EA9955"></path>
                <path d="M34.0068,70.0442 C34.0068,70.0442 29.9798,23.5642 73.9308,13.4122 C110.0058,5.0802 134.6528,30.4392 153.3598,0.6262 C153.3598,0.6262 164.2888,29.8722 149.7278,40.6422 C149.7278,40.6422 153.3008,40.2812 163.0718,26.3542 C163.0718,26.3542 154.3258,70.1462 102.3108,84.3022 C54.6168,97.2822 34.0068,70.0442 34.0068,70.0442" id="Fill-126" fill="#E08F50"></path>
                <path d="M31.327,66.5829 C31.327,66.5829 27.3,20.1029 71.251,9.9509 C107.326,1.6189 134.653,30.4399 153.36,0.6259 C153.36,0.6259 161.609,26.4109 147.048,37.1809 C147.048,37.1809 153.301,40.2809 163.071,26.3549 C163.071,26.3549 147.633,69.0689 99.631,80.8409 C51.628,92.6129 31.327,66.5829 31.327,66.5829" id="Fill-127" fill="#F0A45E"></path>
                <path d="M34.1338,61.7835 C34.1338,61.7835 37.9188,22.7575 73.0408,17.2345 C102.2968,12.6335 103.1588,28.2485 129.9148,20.6925 C129.9148,20.6925 118.9258,34.7025 98.0798,29.1235 C79.5058,24.1535 60.7288,30.8755 54.2728,35.1865 C39.7248,44.9015 34.1338,61.7835 34.1338,61.7835" id="Fill-128" fill="#EF9D5A"></path>
                <path d="M34.1338,61.7835 C34.1338,61.7835 68.3948,76.2555 95.4138,69.6285 C119.5598,63.7055 136.0358,30.1005 136.0358,30.1005 C136.0358,30.1005 116.9128,62.9615 81.4048,59.3105 C59.6408,57.0725 34.1338,61.7835 34.1338,61.7835" id="Fill-129" fill="#EF9D5A"></path>
                <path d="M34.1338,61.7835 C34.1338,61.7835 50.0388,40.7155 65.1738,36.5785 C80.3078,32.4415 105.0048,42.3105 116.4098,37.7985 C116.4098,37.7985 103.5838,54.1515 82.6808,51.4225 C60.7638,48.5605 51.3268,50.8745 34.1338,61.7835" id="Fill-130" fill="#EF9D5A"></path>
                <path d="M67.4299,117.1568 C67.4299,117.1568 62.6319,114.9928 61.6579,122.5128 C60.8119,129.0428 65.2149,132.0238 67.9149,140.5408 C70.6159,149.0588 71.1619,157.1038 80.6799,155.9938 L73.8689,128.2178" id="Fill-131" fill="#F2D7BA"></path>
                <path d="M165.0714,83.8973 C165.0714,83.8973 168.8614,123.7163 172.3664,124.2373 C175.8714,124.7573 182.6844,125.3973 183.6774,120.4943 C185.0504,113.7193 165.0714,83.8973 165.0714,83.8973" id="Fill-132" fill="#DABFA1"></path>
                <path d="M165.0714,83.8973 C165.0714,83.8973 167.9504,122.0293 171.6644,122.1163 C175.3784,122.2023 181.6864,123.1083 182.9754,118.3743 C184.7724,111.7743 165.0714,83.8973 165.0714,83.8973" id="Fill-133" fill="#ECD0B1"></path>
                <g id="Group-141" transform="translate(147.000000, 134.890000)">
                    <g id="Group-137">
                        <mask id="mask-2" fill="white">
                            <use xlink:href="#path-1"></use>
                        </mask>
                        <g id="Clip-136"></g>
                        <path d="M27.0815,5.9805 C17.6325,8.9215 8.8975,16.1645 0.7525,15.4935 C7.5365,28.4485 21.1755,35.5075 33.6745,31.6175 C46.1745,27.7275 53.3985,14.1755 51.6335,-0.3415 C45.3085,4.8325 36.5305,3.0395 27.0815,5.9805" id="Fill-135" fill="#EA8E8F" mask="url(#mask-2)"></path>
                    </g>
                    <g id="Group-140" transform="translate(3.000000, 2.000000)">
                        <mask id="mask-4" fill="white">
                            <use xlink:href="#path-3"></use>
                        </mask>
                        <g id="Clip-139"></g>
                        <path d="M24.0815,3.9805 C12.4595,7.5535 11.3565,11.0515 0.4605,13.6475 L6.4715,19.5665 C6.4715,19.5665 15.0585,15.4285 26.4045,11.8975 C38.8655,8.0195 44.4625,8.0295 44.4625,8.0295 L44.1765,0.8495 C38.5695,4.4435 33.9985,0.9305 24.0815,3.9805" id="Fill-138" fill="#FFFFFF" mask="url(#mask-4)"></path>
                    </g>
                </g>
                <path d="M67.8588,242.3938 C67.8588,242.3938 81.9848,272.6128 99.9078,285.8988 C123.9088,303.6898 179.8638,321.3038 217.9148,324.8328 L219.0178,304.7268 C171.3428,294.3068 146.1888,286.1038 120.3158,269.8448 C101.7188,258.1578 97.1518,235.5498 97.1518,235.5498 L67.8588,242.3938" id="Fill-142" fill="#FDE6C3"></path>
                <path d="M214.1495,304.4708 C214.1495,304.4708 221.4265,299.1448 230.5585,300.9968 C238.2965,302.5658 242.4345,295.9298 244.8015,296.1388 C247.1705,296.3478 248.3405,301.6818 244.4845,303.9618 C239.8695,306.6758 237.8465,307.8318 237.8465,307.8318 C237.8465,307.8318 249.4085,309.1958 259.3125,309.4868 C268.3605,309.7528 265.6835,315.4798 260.9465,315.3208 C254.5315,315.1048 241.6485,314.6778 241.6485,314.6778 C241.6485,314.6778 256.2325,317.2048 264.0245,318.6498 C271.4185,320.0218 270.3375,326.1948 263.8275,325.3888 C248.9285,323.5438 241.4735,322.4688 241.4735,322.4688 C241.4735,322.4688 250.8635,325.5598 259.8975,327.3438 C268.0745,328.9588 266.0805,334.6378 260.5035,333.4348 C254.1445,332.0628 239.9935,329.6408 239.9935,329.6408 C239.9935,329.6408 244.8765,332.1738 249.9925,334.3458 C255.6915,336.7648 253.8325,341.1398 249.2525,339.4448 C242.7645,337.0438 233.5805,333.2968 226.5975,332.2378 C217.2755,330.8238 210.5475,323.5718 210.5475,323.5718 L214.1495,304.4708 Z" id="Fill-144" fill="#FDE6C3"></path>
                <path d="M50.4023,216.8699 C45.7743,240.2479 79.8583,276.5619 79.8583,276.5619 L106.8363,255.1119 L92.7843,221.2809 C92.7843,221.2809 55.0313,193.4929 50.4023,216.8699" id="Fill-146" fill="#749AC4"></path>
                <path d="M130.0917,113.6833 C130.0917,113.6833 136.9547,113.3113 141.0507,109.9043 C145.1467,106.4973 145.4727,100.9253 145.4727,100.9253 C145.4727,100.9253 147.4077,108.0023 142.4987,111.6083 C136.2047,116.2323 130.0917,113.6833 130.0917,113.6833" id="Fill-148" fill="#DABFA1"></path>
                <path d="M262.2397,101.8609 C265.9967,110.6369 261.9277,120.7959 253.1517,124.5529 C244.3757,128.3089 234.2167,124.2409 230.4597,115.4649 C226.7037,106.6889 230.7727,96.5299 239.5477,92.7729 C248.3237,89.0169 258.4827,93.0849 262.2397,101.8609" id="Fill-150" fill="#9E9F9E"></path>
                <path d="M262.7545,101.6405 C266.5815,110.5805 262.4365,120.9305 253.4965,124.7575 L239.6375,92.3825 C248.5775,88.5555 258.9275,92.7005 262.7545,101.6405" id="Fill-152" fill="#3F4249"></path>
                <path d="M254.5906,124.2891 L250.7386,125.9381 L236.8796,93.5631 L240.7316,91.9141 L254.5906,124.2891 Z" id="Fill-154" fill="#CBCCCB"></path>
                <path d="M323.865,80.8706 L258.159,111.2096 L252.924,98.5636 L320.778,71.9876 L323.865,80.8706 Z" id="Fill-156" fill="#3F4249"></path>
                <path d="M308.1234,88.1391 L292.7784,95.2241 L288.3944,84.6341 L304.3034,78.4261 L308.1234,88.1391 Z" id="Fill-158" fill="#F6DC6C"></path>
                <path d="M268.8746,106.0508 C268.8676,105.4758 271.9336,104.3438 272.9016,104.3288 C273.5446,104.3188 273.3146,103.0998 272.7906,102.2028 C270.2676,97.8898 275.9786,95.3838 279.1546,98.7038 C281.1786,100.8198 281.0446,105.6508 276.3866,107.2748 C274.2616,108.0168 271.5826,109.4828 268.8746,106.0508" id="Fill-160" fill="#ECD0B1"></path>
                <path d="M265.1611,93.5802 L273.1731,90.4982 C273.1731,90.4982 274.8211,93.3702 273.8311,98.9312 C272.5951,105.8752 281.2071,106.4332 282.6721,100.5382 C284.2211,94.3082 280.6901,89.5552 280.6901,89.5552 C280.6901,89.5552 280.9491,92.1332 280.9161,100.0582 C280.9051,102.7042 289.4051,101.2042 289.5671,99.3152 C290.0651,93.5412 287.4161,87.8472 287.4161,87.8472 C287.4161,87.8472 288.0341,88.1662 288.3211,97.3702 C288.4051,100.0372 295.8211,97.9812 295.7591,95.9332 C295.5601,89.4312 294.1041,85.6242 294.1041,85.6242 C294.1041,85.6242 295.0731,88.5332 295.3211,93.6202 C295.4881,97.0372 301.3361,95.3702 301.1961,92.3702 C300.8621,85.1742 301.2451,80.8532 297.5711,77.4952 C290.6111,71.1342 263.2661,84.4572 265.1611,93.5802" id="Fill-162" fill="#FDE6C3"></path>
                <path d="M275.8213,87.6549 C275.8213,87.6549 275.9883,86.3709 277.8213,85.7039 C279.6543,85.0369 279.8283,86.6789 279.8283,86.6789 C279.8283,86.6789 278.4693,84.8119 275.8213,87.6549" id="Fill-164" fill="#ECD0B1"></path>
                <path d="M281.8213,85.1822 C281.8213,85.1822 281.9883,83.8982 283.8213,83.2312 C285.6543,82.5642 285.8283,84.2062 285.8283,84.2062 C285.8283,84.2062 284.4693,82.3392 281.8213,85.1822" id="Fill-166" fill="#ECD0B1"></path>
                <path d="M288.3213,83.0362 C288.3213,83.0362 288.4883,81.7522 290.3213,81.0852 C292.1543,80.4182 292.3283,82.0602 292.3283,82.0602 C292.3283,82.0602 290.9693,80.1932 288.3213,83.0362" id="Fill-168" fill="#ECD0B1"></path>
                <path d="M294.1546,80.9258 C294.1546,80.9258 294.3216,79.6418 296.1546,78.9748 C297.9876,78.3078 298.1616,79.9498 298.1616,79.9498 C298.1616,79.9498 296.8026,78.0828 294.1546,80.9258" id="Fill-170" fill="#ECD0B1"></path>
                <path d="M235.7276,102.7018 C235.7276,103.7408 234.8856,104.5838 233.8456,104.5838 C232.8066,104.5838 231.9646,103.7408 231.9646,102.7018 C231.9646,101.6628 232.8066,100.8198 233.8456,100.8198 C234.8856,100.8198 235.7276,101.6628 235.7276,102.7018" id="Fill-264" fill="#FFFFFF"></path>
                <path d="M321.4778,74.0007 L323.1508,78.8157 L325.5758,77.7387 L323.5268,72.7957 L321.4778,74.0007 Z" id="Fill-266" fill="#3F4249"></path>
            </g>
        </g>
    </g>
</svg>