<svg xmlns="http://www.w3.org/2000/svg" data-name="Layer 1" viewBox="0 0 95.12 32.94">
  <path fill="#912d1e" d="M49.15 18.54h-.09a.84.84 0 0 0-.48.34 1 1 0 0 0-.31.5.26.26 0 0 0 .29.31.92.92 0 0 0 .47-.2.55.55 0 0 0 .3-.36 1 1 0 0 1 0-.15 1 1 0 0 0 0-.15.3.3 0 0 0-.18-.29zm-.99-12.96a3.54 3.54 0 0 0-1.48.79c-.51.43-1.05.86-1.52 1.34-.67.6-1.31 1.24-2 2l-.1.1c-.81.8-3.27 3.24-2.91 4.48a1 1 0 0 0 .88.67 1.83 1.83 0 0 0 .34 0 5.35 5.35 0 0 0 2.19-.73 5.61 5.61 0 0 1 2-.7 6.48 6.48 0 0 1-2.43 2c-1.69 1-3.61 2.2-3 3.72a1.42 1.42 0 0 0 1.46.77c2 0 5.42-1.5 7.07-2.24l.67-.3h.05v-.06a.18.18 0 0 0-.18-.09 14.74 14.74 0 0 0-2.52.64 23.22 23.22 0 0 1-5.12 1.17.65.65 0 0 1-.65-.24c-.08-.21.07-.69 1.25-1.79a18.24 18.24 0 0 1 1.59-1.13c2-1.35 3.54-2.42 3.49-2.93a.46.46 0 0 0-.55-.4 10.82 10.82 0 0 0-3.16 1 9.49 9.49 0 0 1-1.49.55 3.28 3.28 0 0 1-.51 0 .63.63 0 0 1-.61-.25c-.23-.51.74-1.68 1.33-2.38l.18-.22a26.56 26.56 0 0 1 2.66-2.88c.33-.25.69-.6 1.08-1s.76-.63 1.12-.9a2.31 2.31 0 0 1 2-.43c.46.15.47.34.33.79a2.21 2.21 0 0 1-.52.88 2.32 2.32 0 0 1-.7.51 1.69 1.69 0 0 1-.53.17c-.37 0-.19-.23-.11-.48h-.09c-.11.25-.52.62-.11.87a1.42 1.42 0 0 0 1.17-.08 2.63 2.63 0 0 0 1.65-2.27c-.04-1.06-1.46-1.12-2.22-.95zm-12.6 9.52a15.14 15.14 0 0 1-2.23 1.37c-.59.27-2.81 1.59-2.4.61a3 3 0 0 1 .56-.72c.49-.57 1.49-1.54 1.15-2.39-.42-1.06-1.66.28-2.13.63l-.84.64a3.92 3.92 0 0 0 1.13-1.58c.05-.24-.21-.55-.46-.37a20.85 20.85 0 0 0-2.72 2l-.35.34a4.87 4.87 0 0 1-2.22 1.51c-.46 0-.22-1.19-.09-1.77a3 3 0 0 0 .07-2.07.55.55 0 0 0-.46-.2 1.38 1.38 0 0 0-.4.08c.29-.35.79-.82 1.23-1.3 1.51-1 2.93-4.64 2.77-5.39a.29.29 0 0 0-.12-.19.23.23 0 0 0-.13 0c-.49 0-1.67 1.35-3.11 4.4l-.37.63c-.68 1.14-2.88 5.05-2.88 1.56 0 0-.67-.86-2 .23-.86.62-4.16 3.61-4.29 3.67.48-.78 1.54-2.32 2-3.1v-.07l.32-.5c.15-.25.3-.49.42-.73.64-1.21 1.24-2.46 1.81-3.67l.3-.59c2.44-4.66 3.22-6.83 2.67-7.21h-.07c-.13 0-.53.33-2.11 1.81-.41.36-.8.74-.88.74a12.61 12.61 0 0 1-3.37 1.8h-.07a7.4 7.4 0 0 1-2.21.46 1.17 1.17 0 0 1-.89-.26 1.16 1.16 0 0 1-.24-.84.25.25 0 0 0 0-.2c-.09 0-.11 0-.35.42l-.12.18a53.58 53.58 0 0 0-1.92 7.68v.06h.09c.43 0 .75-1.18 1.32-3.7a18.79 18.79 0 0 1 .76-2.82.68.68 0 0 0 .5.15 19.67 19.67 0 0 0 4.73-1.16 17.4 17.4 0 0 0 3.45-2.31l.39-.31c-.04.7-1.24 3.48-3.24 7.19s-3.89 6.8-4.13 7.3c-.14.17-2.39 1.46-3.72 2.21-.85.48-1.74 1-2.51 1.51a30.43 30.43 0 0 0-6.11 5.48c-.92 1.1-2.4 3.4-2.08 5a1.87 1.87 0 0 0 1 1.33 2.64 2.64 0 0 0 1.16.3c2 0 3.8-2 4.9-3.29a48.58 48.58 0 0 0 4.79-6.93l.43-.71c.22-.36.45-.79.69-1.24a20.54 20.54 0 0 1 1.79-3 11 11 0 0 0 1.26-1.1 1.81 1.81 0 0 0-.17.48 1.15 1.15 0 0 0 .15 1.11.66.66 0 0 0 .55.25 4.65 4.65 0 0 0 2.5-1.29 5.77 5.77 0 0 0 1.66-2.41c.4-1.06.07.34 1 0l.35-.14c-.13.18-.32.43-.52.68-.78 1-1.47 1.83-1.32 2.16a.28.28 0 0 0 .27.16c.58 0 1-.75 1.5-1.53s1.37-2.07 2-2.1a.27.27 0 0 1 .22.08 2.17 2.17 0 0 1-.08 1.28c-.21 1-.84 1.84-.07 2.32a1.34 1.34 0 0 0 .7.21c.95 0 1.9-.92 2.68-1.73.51-.45 1.08-.94 1.65-1.39l-.41.46c-.47.55-.8 1.17-1.27 1.72-.33.38 0 .81.4.48 1-.81 3.52-3 3.79-3.09s.2 0 .18.18-1 1.22-1.35 1.66-1.24 1.59-.31 2a1.79 1.79 0 0 0 1.24-.2 8.61 8.61 0 0 0 .93-.42 12.34 12.34 0 0 0 1.07-.7 12.9 12.9 0 0 0 2.1-1.65c.3-.12.23-.25.09-.15zm-8.35-7.17c.24.74-2 3.79-2.35 3.86a16.25 16.25 0 0 1 2.35-3.86zm-13.3 10.41c-6.75 11.91-10 14.07-11.75 14a1.62 1.62 0 0 1-1.17-.54 1.75 1.75 0 0 1-.43-1.33c.14-2.48 4.1-5.94 4.89-6.61a52.51 52.51 0 0 1 5-3.79c.26-.17 2.69-1.54 3.59-2zm4.85-1.62a4.2 4.2 0 0 1-1.87 1.19.27.27 0 0 1-.27-.25.54.54 0 0 0 0-.25c.74-1.37 2.51-3.59 4-4.12.12 1.11-1.06 2.67-1.86 3.43zm76.28-2.91c-.52.09-4.14 3.78-5.77 3.55a1.11 1.11 0 0 1-.49-.17l.23-.21c1.2-.65 2.34-1.44 2.58-2.28.53-1.82-2-.22-2.75.46a2.87 2.87 0 0 0-.94 1.91l-.3.18a9.05 9.05 0 0 1-1.3.55 4.87 4.87 0 0 1-2 .12 9.06 9.06 0 0 0 1.7-1.11 5 5 0 0 0 1.67-2 1 1 0 0 0-.9-1.33 2.91 2.91 0 0 0-2.18.76c-.62.47-1.22 1-1.8 1.51l-1.5 1.12a1.58 1.58 0 0 1-1.31.51c-.37-.21-.12-.42 0-.78a5.75 5.75 0 0 1 1-1.62 1 1 0 0 0 .37-1 .66.66 0 0 0-.73-.35 4.85 4.85 0 0 0-2.32 1.32c.25-.51.3-1.16-.48-1.17a4.24 4.24 0 0 0-2.19.91 1.2 1.2 0 0 0 0-.48.34.34 0 0 0-.4-.24 5.12 5.12 0 0 0-1.8 1c-.21.1-.43.22-.65.34-.59.32-.92.22-1.77.68.82-1 1.47-2.9 1.09-3.85a.92.92 0 0 0-.9-.6 3.11 3.11 0 0 0-1.36.39c-1.23.61-3 2.44-2.85 3.82a1.67 1.67 0 0 0 1.39 1.38 4.5 4.5 0 0 1-3.46 1.7.84.84 0 0 1-.81-.36c-.46-.92 0-2.53.58-3.64.19-.38.37-.82.55-1.24a10.39 10.39 0 0 1 1.32-2.45 6.89 6.89 0 0 1 2-1.44c.36-.2.7-.39 1-.6 1-.68 2.09-1.42 3.1-2.24.13-.1 3.1-2.53 2.71-4a1.52 1.52 0 0 0-1.42-.91 7.51 7.51 0 0 0-1-.08 10.16 10.16 0 0 0-3.39.6 5.46 5.46 0 0 0 .33-2.32V0a.24.24 0 0 0-.11.1 10.56 10.56 0 0 0-1.22 2.73 23 23 0 0 0-7.44 5.28 22.48 22.48 0 0 0-5.56 13.72 4.2 4.2 0 0 0 .54 2.69 1 1 0 0 0 .74.34c.87 0 1.88-1.24 2.48-2l.24-.28a39.47 39.47 0 0 0 2.49-3.31 9.61 9.61 0 0 0 .5-.9 6.11 6.11 0 0 1 .88-1.4 3.39 3.39 0 0 1 .11 1c0 .74 0 1.5 1.29 1.55a4.25 4.25 0 0 0 1.75-.33l1-.66a13.29 13.29 0 0 1 3.09-1.69c.18-.06.62-.25 1.13-.46.84-.36 2.24-1.31 2.37-.92a.45.45 0 0 1 .07.24l-.33.3a8.48 8.48 0 0 0-1.3 1.13.35.35 0 0 0 .47.49 25.36 25.36 0 0 1 3.63-2.69 2 2 0 0 1 .95-.31 3.91 3.91 0 0 1-.62 1c-.46.7-.92 1.19-1.38 1.88-.22.34.29.68.58.39.84-.83 1.54-1.5 2.42-2.29a6.58 6.58 0 0 1 1.37-1 1 1 0 0 1 .57-.25 1 1 0 0 1-.35.63c-.42.6-1.55 1.73-1.19 2.5a1 1 0 0 0 .71.5 1.23 1.23 0 0 0 .66 0 15.89 15.89 0 0 0-3.21 4.69 2.71 2.71 0 0 1-.14.28c-1 2-2.14 4.37-1.3 5.06a.51.51 0 0 0 .32.12c.73 0 1.54-1.51 2.31-3.09l.24-.48c.88-1.63 1.62-3.36 2.24-4.85A22.44 22.44 0 0 1 84.62 15l.45-.34a3 3 0 0 1 1.05-.52 1 1 0 0 1 .55 0 .46.46 0 0 1 .14.69 5.9 5.9 0 0 1-1.71 1.68 9 9 0 0 1-1.93 1.06.36.36 0 0 0 0 .62 4.1 4.1 0 0 0 3 .29 6.69 6.69 0 0 0 1.91-.87 1.41 1.41 0 0 0 1.34.31c1.47-.13 6.37-4.24 5.62-4.11zM69.7 3.11a10.67 10.67 0 0 1 3.46-.69 3.85 3.85 0 0 1 .71.08 1 1 0 0 1 .9.6c.2.64-.59 1.59-1.08 2.09a24.19 24.19 0 0 1-3.54 2.83l-.08.05-.51.4a11.9 11.9 0 0 1-2.78 1.84c.1-.29.3-.7.52-1.17a55.43 55.43 0 0 0 2-5.89zm-7.72 15.36l-.28.41-.14.24c-2.22 3.32-3.79 5-4.68 5a.62.62 0 0 1-.55-.43c-.89-1.91.27-5.47 1-7.6l.15-.48a19.52 19.52 0 0 1 10.9-12c-.63 1.95-1.25 4.08-1.41 4.65a12 12 0 0 1-.41 1.3 4.34 4.34 0 0 1-2.31 2.34l-.55.32-.14.07c-.61.36-.67.4-.54.82a3.9 3.9 0 0 1 .13.5 4.16 4.16 0 0 0 .18.62 2.68 2.68 0 0 1 .2.92 6.57 6.57 0 0 1-1.55 3.32zm1.83-4.34a9.61 9.61 0 0 1-.44-1.18 5.64 5.64 0 0 1 1.84-1.09l.35-.17a8.55 8.55 0 0 1-1.52 3.12c-.02-.16-.11-.4-.23-.67zm6 2a2.22 2.22 0 0 1-1.17.35 1 1 0 0 1-.8-.33 1.15 1.15 0 0 1-.17-.95 4.55 4.55 0 0 1 2.28-2.46 2.75 2.75 0 0 1 1.16-.36.62.62 0 0 1 .45.09.9.9 0 0 1 .11.4 1 1 0 0 0 .09.35.42.42 0 0 0 0 .12 5.12 5.12 0 0 1-1.9 2.8zm5.11-1.32zm1.48 12.23c0-.85 1-3.52 2.29-5.78a14.5 14.5 0 0 1 1-1.61l.46-.53a.94.94 0 0 1 .3-.21 31.44 31.44 0 0 1-4 8.14zm14.36-12.57c0 .68-1.08 1.5-2.17 2.21a4.78 4.78 0 0 1 2.17-2.21z"/>
</svg>
