<?xml version="1.0"?>
<svg xmlns="http://www.w3.org/2000/svg" viewBox="0 0 276.8 282.5">
  <defs>
    <style>.a{fill:#9db729;fill-rule:evenodd;}</style>
  </defs>
  <title>Social-Media-Posting-Icon-Green</title>
  <path class="a" d="M136.2,81.2c-3.6-1.8-7.1-.6-9.5,3,3-2.4,6-2.4,9.5-3h0Zm19.1-6c-1.2,0-3-.6-3,1.2s0.6,3,2.4,2.4a2.8,2.8,0,0,0,3-3c-0.6-1.8-1.8-.6-2.4-0.6h0ZM111.1,94.9a6.5,6.5,0,0,0,3-.6,3.2,3.2,0,0,0,3-3c-0.6-2.4-2.4-1.2-3.6-1.2a7.6,7.6,0,0,0-3.6.6c-1.2,0-3-1.2-3,1.8s1.8,2.4,4.2,2.4h0Zm0.6,9.5c1.2-.6,4.8,1.8,4.8-1.8,0-1.2.6-4.8-1.8-4.2s-7.1-2.4-7.7,3.6c0,3.6,2.4,2.4,4.8,2.4h0Zm47.1-11.9v0.6H160c2.4-.6,5.4,0,4.8-4.2s-3-1.8-4.8-1.8-3,0-4.2,0-2.4-.6-2.4,1.2,0,3.6,2.4,4.2c0.6,0.6,1.8,0,3,0h0Zm6,10.1V98.5a1.6,1.6,0,0,0-1.8-1.8c-2.4,0-5.4-.6-7.7,0s-1.2,3.6-2.4,5.4,1.8,0.6,3,.6a22.6,22.6,0,0,1,8.9,0h0ZM138.5,78.2c1.2,3.6,4.8,4.8,6.6,6.6,4.2,4.2,4.8,9.5,3.6,14.3s-4.2,7.1-8.9,8.3c-9.5,3-15.5-.6-18.5-9.5,0-1.2.6-2.4-1.2-3-2.4,8.3,2.4,14.9,10.7,16.1,5.4,1.2,11.3,1.2,15.5-3.6a20.8,20.8,0,0,0,3.6-20.3c-1.8-6-6-8.9-11.3-8.9h0Zm-5.4,26.2c8.3,0.6,13.1-3.6,13.1-10.1s-4.8-9.5-11.3-9.5c-4.8,0-10.7,6-10.7,11.3s3,8.3,8.9,8.3h0Zm17.9-22c4.2,1.8,8.3,1.2,12.5.6,1.2,0,1.2-.6,1.2-0.6,2.4-7.1-4.2-16.1-11.9-14.9-11.9,1.2-23.8-.6-36.3.6-6,.6-9.5,3.6-10.1,10.1-0.6,8.3-.6,8.3,7.1,8.3,1.8,0,4.8.6,6-1.2,4.2-6.6,11.3-8.3,17.9-10.1,2.4-1.2,4.8-.6,7.1.6s3,2.4,5.4,4.2c-1.2-3.6-2.4-7.1.6-8.9s6,0.6,7.7,1.8,3.6,3.6,1.8,6.6-5.4,3.6-8.9,3h0Zm-1.8,40.5c4.2,0,11.3-1.2,14.9-8.9,2.4-4.8,0-8.9-5.4-8.3-3.6.6-8.3,0.6-10.1,4.8-0.6,1.2-1.8,1.2-2.4,1.8-7.7,4.8-17.9,4.2-23.8-1.2-3-3-6-3-8.9-3-6,.6-7.7,3-5.4,8.3s7.7,7.7,14.3,8.3,15.5-1.8,26.8-1.8h0Zm19.1-27.4v11.3c-0.6,12.5-7.1,20.3-20.3,20.3-7.7,0-16.1,1.2-24.4,1.2-10.7.6-20.3-6.6-19.7-17.9,0-9.5-.6-18.5-1.2-27.4-0.6-6-.6-13.1,6.6-16.7,1.8-.6,3-1.2,4.8-1.2,10.7-1.2,22-.6,33.4-1.2,4.2,0,7.7-.6,11.9,1.2,7.1,3,8.3,8.9,8.9,16.1V95.5h0Z"/>
  <path class="a" d="M196.3,91c1.2,5.4.6,9.5-6.6,8.9,5.4,0.6,6.6,3,6.6,7.1,0,1.8,1.8,3,4.2,3h5.4c1.2,0,2.4,0,2.4,1.2a2.2,2.2,0,0,1-1.2,3c-4.2,2.4-4.8,7.1-6,10.7-1.8,7.1,3.6,14.3,11.3,15.5,3,0.6,5.4,0,8.3,0s3.6-.6,3.6,2.4c0.6,1.2,7.1,4.2,8.3,3.6l0.6-.6c-0.6-3.6,2.4-2.4,4.2-3a29,29,0,0,0-1.8-4.2c-0.6-1.8,1.2-2.4,2.4-2.4s3,0.6,3.6-1.8c-3.6.6-6.6,0-10.1-.6-1.8-.6-3-1.8-3-3,0.6-3.6-1.2-5.4-3.6-6.6-0.6-1.2-1.2-2.4-.6-3s1.8-.6,2.4-0.6c2.4-.6,6.6-0.6,7.7-3s2.4-2.4,4.8-3,2.4-.6,1.8-2.4-0.6-3.6,1.8-4.8,3-1.8,4.2-3,1.2-1.2.6-1.8-1.8-.6-2.4,0c-3.6,1.2-7.7,1.8-11.3.6-5.4-1.8-8.9-.6-13.1,2.4-6,3.6-7.1,2.4-7.1-4.2s-5.4-9.5-10.1-7.7-5.4,1.8-7.1-3h0Zm20.8,11.9c1.8,0,3.6-.6,4.2-1.8,2.4-3.6,6-3.6,9.5-2.4s9.5,1.8,14.9,0c1.2-.6,3-1.8,4.2,0s2.4,3.6,1.2,6.6a3.2,3.2,0,0,1-1.2,1.8c-2.4,2.4-4.2,4.2-5.4,8.3s-6.6,4.8-10.7,7.1c-1.2.6-3.6,0.6-2.4,2.4s-0.6,4.8,3,5.4,4.8,1.2,7.1.6,3.6-1.2,4.8.6,0,3.6-1.2,4.8a7.2,7.2,0,0,1-3,3c-1.2.6-2.4,1.2-1.2,3s0,1.8,0,2.4c-4.2,6-11.9,6.6-16.7,1.8a5.4,5.4,0,0,0-4.8-1.8c-4.2,0-8.9,0-12.5-1.8-8.3-4.8-11.3-13.7-7.7-23.8,0.6-2.4,2.4-5.4-2.4-5.4a2.1,2.1,0,0,1-.6-1.2c-3-4.2-6-8.3-10.7-10.7-3-1.8-1.8-4.8,1.8-5.4,6-1.2,6.6-1.8,4.8-7.7-0.6-1.8-.6-3.6.6-4.8s3.6,1.2,4.2,2.4c1.8,3.6,4.2,3.6,8.3,3.6,6.6-.6,11.3,4.8,11.9,13.1h0Z"/>
  <path class="a" d="M215.6,59.1l5.7-12.5c0.7-1.6.5-3.1-2.5-4.4a162.8,162.8,0,0,1-21.9-10c-3.8-1.7-5-1-6.3,1.7-4,8.7-3.9,18.5-7.9,27.2-0.7,1.6.8,2.3,2.3,3,7.5,1.5,13.3,4.8,20.2,7.9,3,1.4,4,1.2,5-1l5.5-11.9h0Zm39.6-26.4c-0.8-.3-1.8-0.2-2.5-0.5-0.7,1.6-1,4.1-2.7,6-3.7,6.2-7.2,11.8-19,9.6-2.3-1-5-1-6,1.2-2,6.3-3.7,12.1-7.2,17.7s-1.2,6.6,5.6,9.8l9.8,4.5c7.1,2.6,14.6.1,18.8-3.2,5-4.9,7-13.2,17.3-13.7,1-.2,2-0.4,2.5-1.5s-2-1.6-2.5-2.5c-5.3-2.4-11.1-3.8-16.4-6.2s-4.8-3.5-3-5.3a13.4,13.4,0,0,1,3.7-4.2,19.8,19.8,0,0,0,1.7-11.7h0Zm-28.9,49c-4.3-.6-9.1-6.1-14.1-3.2-1.5,1.3-3.5-.3-4.8-1.5-9.1-4.2-17.4-8-26.7-9.6-4-1.2-5.8-3.3-4.8-5.5,6.2-9.6,5.9-20.9,11.1-30.3,1.2-2.7-.5-6.8,2.5-7.4s5.8,3.3,8.6,5.2c10.3,5.4,20.9,8.3,30.5,13.3,5.3,2.4,13.1-.6,16.3-5.6l3.5-7.6c0.7-1.6,2-2.4,4.8-2.4s4.3,2.6,5.3,4.4c3.6,6.2,1.3,11.1-1.7,15.6s-1,4.1,3.8,5.7,7.8,2.9,11.6,4.7,6.6,9.6,1.6,10.5c-9.8,1.4-12.8,7.9-17.8,12.8-5.7,6.5-15.5,7.9-26.6,2.2l-3-1.4h0Z"/>
  <path class="a" d="M290.2,274.6H279.3c-1.5,0-3.1.4-4.6,0.5s-5.3.4-8,.4-3.2-.4-4.9-0.4l-9.1.2-6.7.4c-4.2.4-8.4,0.6-12.6,1.3-6.6,1.1-13.2,2.3-20,2.5-3.7.1-7.4,0.6-11.1,0.8h-1.3c-4.4-.9-8.8,0-13.2.1h-5.2l-15.3.4-12.4.6-12.4.5H131.1c-4,.1-7.9.4-11.9,0.5-6.4.1-12.7,0.2-19.1-.3s-12.4-.1-18.6-0.2l-10.1-.4c-3.7-.1-7.4-0.3-11.1,0a112.7,112.7,0,0,1-15-.3L30,280.5l-9.5-.9L8.1,278.3a6.6,6.6,0,0,1-3.8-1.8c-2.9-2.6-3.7-5.8-3.7-9.5a13.2,13.2,0,0,0-.2-2.8c-1.5-7.7,1.1-12.8,3.2-17.2s5.4-7.7,7.9-11.7l4.4-7c2.1-3.3,4.3-6.7,6.5-10,1-1.4,2.1-2.7,3.2-4.1,2.6-3.2,4.3-6.9,6.2-10.4s2.7-4.2,4-6.3c3.3-5.3,6.4-10.6,9.7-15.9,1.5-2.4,3.2-4.7,4.8-7l3.7-5.3c0.6-.9,1.7-1.6,1.9-2.5s-0.9-1.8-1.1-2.8a26,26,0,0,1-.6-11.3,8.2,8.2,0,0,0,.3-1.5c-0.1-3.3-.3-6.5-0.4-9.8,0-.3-0.1-0.7-0.1-1,0.3-6.4.4-12.7,1-19.1,0.4-3.9.5-7.7,0.6-11.6S56,99.3,56,94.1c0.1-12.3,0-24.5,0-36.8a105.4,105.4,0,0,1,.8-14.2,28.5,28.5,0,0,0,0-4.6A48.4,48.4,0,0,1,57.9,28a51,51,0,0,0,.4-5.6,37.1,37.1,0,0,1,.4-3.9c0.4-2.4.9-4.9,1.6-7.3a5.5,5.5,0,0,1,3.6-3.7A15.4,15.4,0,0,1,70,6.2a21.5,21.5,0,0,0,2.6-.3,6.4,6.4,0,0,1,1.8-.1A38.9,38.9,0,0,0,87,5.8c3.8-.5,7.7-0.4,11.6-0.6L113,4.5l18.1-1.2,12.4-.6c6.6-.4,13.3-0.9,19.9-1.3,3.2-.2,6.3.1,9.5,0.1l11.9-.3,9.6-.3,12.4-.4h2.6l7.8-.2h5.4a68.5,68.5,0,0,0,7.5,0A107.4,107.4,0,0,1,244.1.2h3.1l19.1,0.6h13.9l3.6,0.3,10.3,0.8,9,0.7c1.4,0.1,2.6.2,3.3,1.6a2.1,2.1,0,0,0,.9.9c2.7,1.4,3.3,4,4,6.6,1.6,6.3,2,12.8,3,19.1a61.4,61.4,0,0,1,.5,9.6q0,16.4-.3,32.9c-0.1,9.5-.3,19-0.7,28.5-0.2,5.8-.9,11.5-1.2,17.3a148.4,148.4,0,0,0-.6,15.5c0.2,5.1.2,10.2-.1,15.3a5.3,5.3,0,0,0,.1,1.8,6.1,6.1,0,0,1-.9,5.4c-0.9,1.4-.6,2.4.4,3.7,2.4,3.1,4.5,6.3,6.8,9.5,4.3,6,8.6,12.1,13,18,6.7,9,13.1,18.2,18,28.3,0.9,1.8,2,3.4,2.9,5.2s1.9,3.5,2.7,5.3c1.7,3.7,3.2,7.4,4.8,11.2a1.6,1.6,0,0,0,.3.7c1.6,1,1.5,2.7,2,4.3a23.6,23.6,0,0,0,1.7,4.6,36.5,36.5,0,0,1,3,7.7,10.1,10.1,0,0,1-5.5,12.1,29,29,0,0,1-10.6,2.8c-8.4.4-16.9,0.8-25.2,2-5.5.8-11,1.1-16.5,1.5l-18.8,1.3v-0.3ZM358,245.2a33.1,33.1,0,0,0-1.3-5c-2.1-5-4.1-10.1-6.5-14.9s-6.4-11.6-9.6-17.5-6.5-9.7-9.9-14.6-6-8-8.9-12.1-6.4-9.4-9.6-14.1l-3.1-4.2a1.8,1.8,0,0,0-2.4-.7,29.9,29.9,0,0,1-6,1.4c-3.3.3-6.7,0.3-10.1,0.5l-8,.2-19.1.9-17.3,1.1c-4,.3-7.9.7-11.9,0.9l-17.3.7-8.8.6c-4.9.4-9.8,1.1-14.7,1.3-9.1.5-18.3,0.8-27.4,1.2l-11.4.6-15.5,1.3c-4.3.4-8.6,0.8-12.9,1-8.3.4-16.6,0.8-24.8,1.1-3.4.1-6.7-.2-10.1-0.4l-14.7-1a53.1,53.1,0,0,1-15.7-4,6,6,0,0,0-2.7-.7c-0.6.1-1,1.1-1.5,1.7l-0.9.9c-2.2,2.8-4.7,5.2-6.5,8.3-3.2,5.5-6.6,10.9-9.9,16.4-1.9,3.2-3.8,6.4-5.6,9.6a81,81,0,0,1-5.8,9.5c-1.8,2.4-3.5,4.9-5.3,7.4s-1.6,2.5-2.4,3.7l-5.1,8.1c-0.6.9-1.1,1.9-1.8,2.8-3.2,4.1-6.3,8.2-8.4,13a19,19,0,0,0-1.9,8,3.3,3.3,0,0,0,2.4,3.3l2,0.5c3.2,0.6,6.5,1.2,9.7,1.6L30.5,265l7,0.4L47.5,266l7.5,0.6c11.2,0.5,22.4-.1,33.6.4a244.7,244.7,0,0,0,25.4-.1c7.9-.4,15.9-0.1,23.8,0l10.9,0.3h30.6c4.5-.1,9-0.4,13.4-0.4s7.4,0.3,11.1.3h19.9c5.1,0,10.2-.3,15.2-0.5l10.3-.6h1l14.4-1.5,10.8-1.2,7.2-.9c6-.8,12-1.4,17.9-2.3a109.8,109.8,0,0,1,12.9-1.3l6.5-.5,10-1,11.8-1.1c2.1-.2,4.2-0.6,6.4-0.2s6.4-1.3,8.6-4.1a2.7,2.7,0,0,0,.5-1.2C357.5,249,357.7,247.2,358,245.2ZM311.8,40.6c0.3-4.2-.4-10.8-1.6-17.4l-2.1-11.7a6.4,6.4,0,0,0-2.8-4.2,9.1,9.1,0,0,0-4.8-1.8c-1.7-.1-3.4-0.3-5.1-0.6a93.7,93.7,0,0,0-17-1.2c-3.6,0-7.3.1-10.9,0L247.9,3H230.8c-2,0-4,.3-5.9.3H215l-22,.6h-9.6l-9.8.4c-5.8.1-11.6-.1-17.3,0.1-7.8.3-15.5,1-23.2,1.5L116.5,7.1c-2.2.1-4.5-.1-6.7,0l-20.4,1-3.3.3a80.4,80.4,0,0,1-9.5.4,20.5,20.5,0,0,0-7.9.6,2.5,2.5,0,0,1-2.7-.3c-0.7-.6-1.3-0.3-1.9,0a3.7,3.7,0,0,0-2,2.9,26.6,26.6,0,0,0-1.1,8.2,18.1,18.1,0,0,1-.3,3.6c-0.4,3-1,6-1.2,9C59,39,58.9,45.1,58.7,51.2c-0.1,3.6-.4,7.3-0.2,10.9s0,6,0,9-0.1,4.3-.1,6.5,0.3,4.3.3,6.4c0.1,8.5.3,16.9-.4,25.4-0.4,5.8-.9,11.5-1,17.3s0.1,14.5.1,21.8a55.1,55.1,0,0,1-.5,9.2c-0.5,3.2.3,7,4.5,8.6a65.8,65.8,0,0,0,15.2,4c4,0.5,8.1.7,12.1,0.9,6.6,0.3,13.3.6,19.9,0.5s12.9-.6,19.4-1l13.2-1c1.9-.1,3.8,0,5.7-0.2,3.9-.4,7.9-1,11.8-1.3s9.5-.2,14.2-0.4l16-.8,11.9-.6,27.4-1.8,18.8-1.1,28.1-1.6,8.3-.2c5.9-.3,11.8-0.8,17.8-1a7.7,7.7,0,0,0,7.1-4.3,4.6,4.6,0,0,0,.5-3.9,10.7,10.7,0,0,1-.5-3.3c0-1.5.2-2.9,0.3-4.4,0.4-5.5-.4-11,0.3-16.5s0.6-11.2.9-16.8c0-.9.1-1.9,0.2-2.8,0.4-6.3,1-12.6,1.1-18.8s0-15,.1-22.5S311.5,51.2,311.8,40.6Zm49.7,209.5h-0.7c-0.2.6-.4,1.3-0.7,1.9a5.1,5.1,0,0,1-1,1.8c-3.2,2.8-6.5,5.4-11.1,5.6l-6.5.3-4.6.5c-2.3.1-4.7,0-7,.2-5.3.4-10.7,1-16,1.3a108.1,108.1,0,0,0-12.4,1l-4.9.6-9,1.2c-2.9.4-5.8,0.9-8.7,1.2-5.4.6-10.9,0.8-16.2,1.6a145.2,145.2,0,0,1-16.2,1.4c-7.4.3-14.8,0.8-22.2,1.1s-13.3-.2-19.9-0.1-13.5-.8-20.2.1c-1.7.2-3.4,0.5-5.1,0.5l-19.1.4c-2.3,0-4.6-.2-7-0.2s-5.7.1-8.5-.2a76.3,76.3,0,0,0-13.2-.3,54.1,54.1,0,0,1-10.3-.1,51.3,51.3,0,0,0-7.2,0c-3.9.2-7.7,0.7-11.6,0.7-6.7,0-13.5-.3-20.2-0.5l-15.5-.3a173.7,173.7,0,0,1-22-1.1,31.2,31.2,0,0,0-4.1-.5,124,124,0,0,1-13.4-.6c-6.7-.7-13.4-1.4-20-2.6-3.4-.6-3.5-0.4-3.2,3.1,0,0.4.1,0.9,0.2,1.3a7.6,7.6,0,0,0,2.2,4,4.3,4.3,0,0,0,3.2,1.3l7.2,0.7c4.3,0.5,8.5,1.3,12.8,1.6s9.7,0.4,14.5.6,8.4,0.8,12.6.2a3.2,3.2,0,0,1,1.8.2,5.6,5.6,0,0,0,3.8.1c3.9-.8,7.9-0.5,11.9-0.4l9.8,0.4,18.9,0.3h24.1q14.3,0,28.7-.4c5.3-.1,10.5-0.6,15.8-0.7h2.1l9.3-.3a22.3,22.3,0,0,0,2.5.3c5.3-.7,10.6-0.6,16-0.7l14-.2h1.8l12.5-1.9,7.7-.9a82.7,82.7,0,0,1,13.4-1.2,37.5,37.5,0,0,0,4.9-.3l6.2-.7c3-.4,5.9.8,8.9,0.3s4.5,0.1,6.7,0,5-.5,7.5-0.7,3.1,0.2,4.6.2l7.5-.3c4.5-.2,9-0.4,13.4-0.8l22.3-2.3c6.3-.6,12.6-0.9,18.8-1.3,3.3-.3,6.5-0.4,9.6-2a4.9,4.9,0,0,0,2.9-3.4,10.2,10.2,0,0,0,.2-4.1C363.2,255,362.2,252.6,361.5,250.1Z"/>
  <path class="a" d="M315.7,222.4l-14.2.9c-6.2.3-12.4,1-18.6,0.8-4.5-.2-9,0.4-13.4.3-8.2-.1-16.4.9-24.5,1.3-4.1.2-8.2,0.9-12.3,1.1s-9.8.1-14.7,0.3l-4.9.4h-7.2l-8.3.4-16.8.3-28.2.6c-3.1,0-6.2-.2-9.3-0.3-7.1-.3-14.1-0.3-21.2-0.6-3.9-.1-7.7.1-11.6-0.7a30.4,30.4,0,0,0-4.4,0,73.9,73.9,0,0,0-16.5,1.1,31.9,31.9,0,0,1-4.1.3l-17.3.9c-4.5.2-9,.4-13.4,0.4a37.6,37.6,0,0,1-6.7-.5,8.2,8.2,0,0,1-3.2-1.6c-1.1-.8-1.2-2.3-0.4-3.7s2.4-4.2,3.7-6.2c2.3-3.7,4.8-7.4,7-11.2a43.6,43.6,0,0,0,2.6-5.6c1.3-3.2,2.5-6.4,3.9-9.6,0.4-.9,1-1.8,1.4-2.7s1.5-2,1.1-3.3,0.4-1.6,1.4-2c2.9-1.1,5.9-1,8.9-.8L86.7,183l2.3-.2a87.3,87.3,0,0,1,14.9-1.1l15.5-.2,19.6-.7c3.4-.2,6.9-0.6,10.3-0.9l6.7-.4c5.2-.3,10.3-0.6,15.5-0.8,3.3-.1,6.5.1,9.8,0.1a156.3,156.3,0,0,0,16.2-.7c3.9-.4,7.7-0.3,11.6-0.5l10.6-.5,16.2-.7,16.7-1,13.6-.7,5.1-.6c3.6-.3,7.2-0.3,10.8-0.8a50.4,50.4,0,0,1,13.4-.2c1.6,0.2,3.2-.1,4.9-0.1a4.2,4.2,0,0,1,2.2.4c2.1,1.5,4.2,3,5.5,5.3,2.7,4.8,5.5,9.5,8.3,14.3,0.6,1,1.1,2.1,1.6,3.2,2,4.2,5.4,7.4,7.9,11.1q2.1,3.1,4,6.3c0.7,1.1.8,2.2-.5,3.2s-0.3,1-.6,1.4a7,7,0,0,1-2.2,2,21.6,21.6,0,0,1-4.5,1.2l-6.6,1.1v-0.2ZM138.2,190.2v0.2h5.7c1.9,0,2.8-.8,3.2-2.7s0.6-2.7.8-4-0.2-.7-0.7-0.7l-13.4.8-14.7.5-19.7.3c-2.6.1-5.2,0.3-7.7,0.5s-4,1-5.9.7-3.5.7-4.1,2.8a32.9,32.9,0,0,1-1.5,3.3c-0.3.7-.1,1.2,0.8,1.1h0.5l12.6-1.1a2.9,2.9,0,0,0,3-2.6,15.3,15.3,0,0,1,1.6-4,1.5,1.5,0,0,1,1.3-.3,1.3,1.3,0,0,1,.5,1,4.3,4.3,0,0,1-.4,1.2l-0.9,3a0.9,0.9,0,0,0,.8,1.4l1.5,0.3c5.8-.2,11.7-0.9,17.5-0.7,1.3,0,2.3-.2,2.6-1.9a14.1,14.1,0,0,1,1.2-3.1,5.8,5.8,0,0,1,.8-1.3,1.1,1.1,0,0,1,.8-0.4,0.9,0.9,0,0,1,.5.8,9.8,9.8,0,0,1-.3,2c-0.2.7-.5,1.5-0.7,2.2a1.1,1.1,0,0,0,1.1,1.5,53.9,53.9,0,0,0,5.4,0Zm91.3,19.9h3.9c1.9,0,2.2-.3,2-2.1s-0.1-1.4-.2-2c-0.3-2.2-.6-4.5-1-6.7s-0.6-1.9-2-1.9-3.6,0-5.4,0l-10.6.3-6.4-.2c-1.6,0-2.4.7-2.4,2.3s0.1,6,.2,9c0,1.3.2,1.4,1.6,1.3A138.6,138.6,0,0,1,229.6,210.1Zm-5.5,13.6h4l7.8-.2c1.5-.1,1.8-0.3,1.6-1.7s-0.4-4.5-.8-6.7-0.5-2.2-2.6-2.3c-4-.2-8.1-0.4-12.1-0.4s-7.2.2-10.8,0.4l-2.6.2a1.2,1.2,0,0,0-1.2,1.4c0.1,2.9.3,5.9,0.4,8.8a1.2,1.2,0,0,0,1.5,1.3h1Zm-19.2-20.9h0.1c0-.9,0-1.9,0-2.8s-0.3-2-1.9-1.8-2.9.6-4.3,0.6a70.3,70.3,0,0,0-9.7,1,43,43,0,0,1-7.4.9c-3.1,0-3.1-.1-3.6,2.8s-0.9,4.2-1.3,6.3,0.1,1.9,1.5,2h3.6l9.3-.6,11.6-.5c2.3-.1,2.7-0.6,2.6-2.8S205,204.5,204.9,202.7ZM173.3,218h-0.2c0-.6.1-1.2,0.1-1.8s0-1.6-1.5-1.6h-7.5l-9.5.2-8.8.2c-1.9.1-2,.1-2.5,1.9s-0.9,4-1.3,6.1-0.1,2.4,2.1,2.5l6.2,0.2,11.4-.3,9.5-.2a1.6,1.6,0,0,0,1.2-.6C172.8,222.4,173,220.2,173.3,218Zm105.1-7.6h0l14.4-.8c1.3-.1,1.4-0.2.9-1.4q-1.8-4.4-3.7-8.8a2.2,2.2,0,0,0-1.3-.9,7,7,0,0,0-2.1-.1,76.8,76.8,0,0,1-12.4-.7c-3.2-.3-6.3-0.3-9.5-0.4-1.7,0-2,.4-1.2,1.8a27,27,0,0,1,3.4,9.7c0.2,1.3.8,1.6,2.2,1.6h9.3ZM163,212.2l9.1-.5a1.7,1.7,0,0,0,1.9-1.4q0.9-4.3,1.7-8.6a1,1,0,0,0-1.1-1.3H171l-8.2.5-14.4.8a1.4,1.4,0,0,0-1.6,1.2c-0.6,2.5-1.2,5-1.8,7.5s-0.2,1.6,1.4,1.6H163Zm89.8-2.2v0.2c3.3,0,6.6-.1,9.8,0,1.6,0.1,1.5-.1,1.6-1.5a2.8,2.8,0,0,0-.1-0.8,47.3,47.3,0,0,0-3.6-9.6,2.2,2.2,0,0,0-1.4-.9,8.7,8.7,0,0,0-2.1-.1l-18.8.2c-1.4,0-1.6.2-1.4,1.7s0.7,5.3,1,7.9c0.1,0.5.1,1,.2,1.5a1.4,1.4,0,0,0,1.3,1.3,42.5,42.5,0,0,0,4.4.3ZM199,224.6h3.9c1.4-.1,1.7-0.2,1.8-1.7s0.2-5.2.2-7.8-0.3-1.7-1.9-1.6l-12.9.4-12.6.6H177a1.2,1.2,0,0,0-1.2,1.3c-0.1,2.3-.2,4.7-0.3,7s0.2,2.3,2.2,2.3l14.2-.2Zm-66.5.4v0.3h5.2a1.4,1.4,0,0,0,1-.4c0.8-2.8,1.5-5.6,2.2-8.5a1,1,0,0,0-1.1-1.3h-5.7l-15.9-.2c-0.9,0-2.1-.1-2.5,1a50.7,50.7,0,0,0-2.3,6.8c-0.4,1.9-.2,2,1.8,2.2l7,0.3h10.3Zm135.5-3.7-2.3-6.6c-0.6-1.7-.6-1.7-2.4-1.7l-23,.4a1.7,1.7,0,0,0-.8,0,1.4,1.4,0,0,0-.7.8c0.3,2.2.6,4.4,1.1,6.6s1,2.5,3.3,2.2,4.4-.8,6.6-0.9l17-.6Zm-139-9.3v0.2h11.4a1.6,1.6,0,0,0,1.8-1.5c0.5-2.3,1.2-4.7,1.7-7s0.1-1.6-1.4-1.5l-9.8.7-12.9.5a1.7,1.7,0,0,0-1.8,1.4l-1.3,6.1a0.9,0.9,0,0,0,1,1.1h3.1Zm155.7,9v0.2l8.5-.4a43.8,43.8,0,0,0,4.8-.5c1.1-.2,1.2-0.7.8-1.6l-2.8-5.5a1.9,1.9,0,0,0-2.1-1l-8.5.4h-3.6c-3.2.2-6.5,0.6-9.7,0.6-5-.1-3.5.4-2.6,4a6,6,0,0,0,1.1,1.7,2.7,2.7,0,0,1,.7,1c0,1.4,1,1.5,1.9,1.5h2.8Zm35.8-14.7c-1.5-2.1-3-4-4.3-6a3.4,3.4,0,0,0-3.4-1.9l-9.5.3-8.7-.3c-1.5,0-1.9.6-1.3,1.9s2.1,4.6,3,6.9a2.6,2.6,0,0,0,3,1.8c3.3-.3,6.5-0.6,9.8-0.7S316.9,207.9,320.6,206.4ZM261,187.9h1l16.4-1.9,3.1-.3c1.7-.3,1.9-0.6,1.2-2.3a26,26,0,0,0-1.9-3.6c-1.7-2.7-1.7-2.8-5-2.6l-15.5.9-3.1.2c-1.2.2-1.5,0.6-1.1,1.8s2,4.4,2.8,6.7S259.9,188.3,261,187.9Zm42.9,23.5h0l-3.8.4c-1,.1-1.4.3-0.9,1.4l3.3,6.4a1.4,1.4,0,0,0,1,.5c3.7,0.1,7.4-.3,11.1-0.3s7.1-1.2,10.6-2c1.5-.3,2-1.3,1.4-2.7a41.4,41.4,0,0,0-2.8-4.9,1.3,1.3,0,0,0-1.1-.4l-6.6.8ZM74.1,185.6H71.3a5.2,5.2,0,0,0-5.7,3.4L61.5,199c-0.5,1.4-1.1,2.7-1.7,4.1s0,1.8,1.1,1.7l8.9-1.1a2.3,2.3,0,0,0,1.5-.8c1.4-2.2,2.7-4.4,3.9-6.6,0.3-.6.1-1-0.7-0.9l-3.8.3a33.6,33.6,0,0,1-4.9-.2c-0.7-.1-1.8-0.8-1.8-1.2s1.1-.7,1.8-0.8h1.5l8.2-.4a1.6,1.6,0,0,0,1.6-1l2.4-5.4c0.3-.7.2-1.2-0.7-1.2H74.1Zm172-6.9h0l-11.1.7c-1.9.1-2.2,0.5-1.9,2.5s0.6,3.2,1,4.8,0.5,1.7,2.3,1.8l6.7,0.2,11.1,0.3,1.5-.2a0.8,0.8,0,0,0,.6-1.1l-0.3-.7c-1.1-2.6-2.2-5.2-3.3-7.8a1.6,1.6,0,0,0-1.3-.6Zm67.6,17.1-2.5-4.8-2.4-4.6a1.2,1.2,0,0,0-1.7-.8,29.9,29.9,0,0,1-6.6.7,95.5,95.5,0,0,0-11.7,1.2c-0.9.1-.9,0.6-0.6,1.3l2.7,5.9a2.1,2.1,0,0,0,2.3,1.3l6.4-.3h14.2ZM104.1,224.1h4.1a2.1,2.1,0,0,0,2.4-1.5c0.6-1.8,1.3-3.5,1.9-5.3l0.4-1.2a0.7,0.7,0,0,0-.7-1.1h-2.1l-12.6,1.1-6.9.7a2.2,2.2,0,0,0-2,1.4L86,224.8a0.6,0.6,0,0,0,.7,1,32.4,32.4,0,0,0,4.6-.5A62.5,62.5,0,0,1,104.1,224.1Zm8.1-20.5-16.4,1.1a1.7,1.7,0,0,0-1.7,1c-1,2.5-2,4.9-2.9,7.4-0.3.7,0.2,1.1,1,1.1h1l11.8-1,7.4-.6c1.3-.1,2.2-0.7,2.3-2.2a14.8,14.8,0,0,1,.5-2.8C115.9,203.8,115.9,203.8,112.1,203.6Zm50.8-12.3v0.3H150.3a1.7,1.7,0,0,0-1.8,1.4l-0.7,3.3c-0.6,2.5-.3,2.9,2.3,2.7l15.7-.9,8.8-.6c1.4-.1,1.6-0.3,1.8-1.7l0.5-3.3c0.2-1.4.1-1.6-1.2-1.6Zm4.7-2.5h4.4c1.5,0,2.9,0,4.4-.2a1.8,1.8,0,0,0,1.3-1c0.4-1.6.6-3.2,0.9-4.8a0.9,0.9,0,0,0-1-1.1h-1.6l-19.9.6h-4.4a1.9,1.9,0,0,0-1.4.7,40.2,40.2,0,0,0-.7,4.8,1.1,1.1,0,0,0,1.3,1.2h1.6Zm44.8-8.5h-4.3a0.9,0.9,0,0,0-.9,1c0,1.7-.1,3.4-0.1,5.2s0.3,1.7,1.9,1.8h4.6l14.4-.3,2.3,0.2c1.4,0.1,1.5,0,1.3-1.4s-1-4-1.3-6-0.5-1.5-1.6-1.5l-7.4.3Zm-130,25.4H74.4a2.1,2.1,0,0,0-2.2,1.4c-0.8,1.7-1.7,3.4-2.4,5.1-1.5,4.2-1.7,3.4,2.7,3.4s9.9-.6,14.9-1a1.6,1.6,0,0,0,1.1-.8c1-2.5,1.8-5,2.7-7.5,0.4-1,.2-1.2-0.9-1.2Zm47.5-5.2v-0.3h4.6l8.7-.6c0.9-.1,1.9-0.3,1.8-1.4a14.8,14.8,0,0,1,.8-4.8c0.3-.9-0.1-1.2-1.1-1.1l-8,.4-12.9.4c-0.8,0-1.6.1-1.9,1s-1.4,3.5-2,5.3-0.1,1.4,1.1,1.4Zm60-11.7v0.3l13.1-.8c1.3-.1,1.6-0.4,1.7-1.8a28.7,28.7,0,0,0,0-4.1c-0.1-1.8-.5-2-2.3-1.9l-12.6.9c-2.3.1-4.6,0.2-7,.1a1.3,1.3,0,0,0-1.6,1.4,24.9,24.9,0,0,1-.6,3c-0.6,2.6-.5,2.8,2.3,2.8h7Zm-86.8,4.8H99.5a1.6,1.6,0,0,0-1.7.9c-0.7,2.2-1.5,4.4-2.1,6.6-0.2.7,0,1.2,0.9,1.1l7.7-.4,9.5-.7c3.2-.2,3.2-0.1,4.3-3.3l0.4-1c1.4-4,1.4-4-3-3.9ZM70.7,226.8l10.5-.7a1.9,1.9,0,0,0,1.3-.5c1.4-2.3,2.9-4.6,3.6-7.3,0.2-1,0-1.2-1.1-1.1l-4.9.4-10.6.5a2.9,2.9,0,0,0-2.9,1.7c-0.9,1.9-1.7,3.7-2.5,5.6s-0.2,1.4,1,1.4h5.4Zm219.6-50.9-6.6.3c-1.3.1-1.5,0.5-.9,1.7s1.8,3.3,2.6,5,0.9,2,2.9,1.7l8.2-1.3,2.1-.2,5.2-.2c3-.3,3.1-0.5,1.5-2.9l-0.7-1.1a4.4,4.4,0,0,0-3.6-2.2ZM86.1,203v0.2l5.4-.6a1.9,1.9,0,0,0,1.9-1.8,39.7,39.7,0,0,1,1.3-4.7c0.6-1.9.5-2.2-1.6-2.3H91.1l-8,.8c-1.5.2-3.4-.1-4.5,0.6s-1.7,2.5-2.4,3.9-1,2-1.5,3a0.7,0.7,0,0,0,.6,1.1h2.1Zm197-7.3h2.1c2.8-.1,2.9-0.1,1.8-2.8s-1.4-2.9-2.2-4.4h-4.3c-5.2.3-10.5,0.4-15.6,1.8l-3,.7a1.3,1.3,0,0,0-.8.8,2.5,2.5,0,0,0,2.5,2.8h5.4Zm-94.4-4v-0.5h-7.2c-1.9,0-2,.1-2.3,1.9s-0.3,2-.5,3.1a1.1,1.1,0,0,0,1.3,1.4c2.4-.1,4.8-0.1,7.2-0.4l11-1.2,5.1-.5a1.4,1.4,0,0,0,1.5-1.7c0-.4,0-0.9,0-1.3s-0.2-1.5-1.7-1.5Zm-124,26.4-5.3.3a61.3,61.3,0,0,1-6.5,0c-1.8-.1-1.8-0.3-2.7,1.1s-1.5,2.9-2.3,4.4-0.9,2.7,1.6,3.1h8.3c1.6,0,3.1.2,3.2-2.1a2.2,2.2,0,0,1,.4-0.6ZM55,216.7h0l9.5-.8a2,2,0,0,0,2-1.6c1-2.3,1.3-5,3.1-7a0.9,0.9,0,0,0-.1-0.9,1.2,1.2,0,0,0-.9-0.2l-7.4.9a3,3,0,0,1-1.7-.4c-0.9-.5-1.3-0.3-1.7.6s-1.4,2.4-2.1,3.6-1.7,2.8-2.5,4.2-0.4,1.6,1.1,1.6H55Zm156.9-25.8h0l-3.6.4a1.2,1.2,0,0,0-.8.5,11.2,11.2,0,0,0,.4,3,2.3,2.3,0,0,0,1.6.4l12.7-.3H231c2-.1,2.1-0.3,1.6-2.2s-0.7-1.8-2.4-1.9-5.7-.3-8.5-0.2S215.2,190.7,211.9,190.9Zm33.9,4.1h3.4l8.5-.5a1.3,1.3,0,0,0,1-.6,2.1,2.1,0,0,0-2-2.6H245l-8.2-.2a1.9,1.9,0,0,0-1.5.6,5.9,5.9,0,0,0,.2,2.5c0.2,0.9,1.1.7,1.8,0.7h8.5Z"/>
  <path class="a" d="M203.6,261.1h-7.8c-3.1,0-6.2-.2-9.3-0.1l-14.7.7c-5.2.3-10.3,0.6-15.4-1l-2.9-1.1c-2.2-1.1-2.7-2-2.3-4.5a38.7,38.7,0,0,1,3.7-11.8,20.1,20.1,0,0,0,1.3-3.1,4.4,4.4,0,0,1,3.9-3.3,67.6,67.6,0,0,1,7.7-.8c5.1-.1,10.2,0,15.2-0.1,3.3,0,6.7-.3,10-0.2s8.9-.5,13.4-0.8l8.8-.2a2.2,2.2,0,0,1,2,1,33.5,33.5,0,0,1,3,4.5,102.8,102.8,0,0,1,4.4,10.7,18.2,18.2,0,0,1,.6,6.1,3.7,3.7,0,0,1-3.4,3.7,19,19,0,0,1-3.6.4l-14.7-.3h0Zm-5.5-3.3h21.4c2.2,0,3.1-1.3,2.4-3.4a6.4,6.4,0,0,1-.4-1.5,21.8,21.8,0,0,0-1.7-7,36.2,36.2,0,0,0-3.5-6.3,3.4,3.4,0,0,0-2.6-1.8l-2.8-.2-8.2.5-7.2.2-23.5.7a16.9,16.9,0,0,1-3.1-.2,25.6,25.6,0,0,0-7.5.2,2.3,2.3,0,0,0-2,1.4c-0.7,1.7-1.7,3.2-2.2,4.9a78.6,78.6,0,0,0-2.3,8.2c-0.5,2.4-.1,2.9,2.2,3.5a26.7,26.7,0,0,0,4.3,1c4.6,0.5,9.3.1,13.9-.2l5.4-.3h17.6Z"/>
  <path class="a" d="M302.6,43.1c-0.3,5.6-.6,11.2-0.8,16.8-0.1,2.8,0,5.7,0,8.5s0,6.4,0,9.6c0.2,8.2.6,16.4,0.7,24.6s-0.1,13.8-.2,20.7q-0.1,7.8-.3,15.5c-0.1,2.3-.2,4.7-0.4,7a5.7,5.7,0,0,1-.9,2.3,19.2,19.2,0,0,1-5.4,5.2,3.3,3.3,0,0,1-1.7.6l-19.4.9-11.9.8-2.3.2c-5.4-.1-10.7.9-16,1.4l-3.4.2-6.2.5-10.8.4c-6.8.1-13.6,0-20.5,0.2-3.8.1-7.6,0.6-11.4,0.8l-7,.2c-4.1.2-8.3,0.4-12.4,0.5H154.2l-15.3.4h-5.4l-15,.9-12.7.7-8.3.6a76.4,76.4,0,0,1-16-.7,59.2,59.2,0,0,1-10.1-2,2.8,2.8,0,0,1-2.4-2.4,42.7,42.7,0,0,1-.7-11c0.2-1.7-.1-3.4-0.1-5.1,0.1-4.2.1-8.4,0.3-12.6,0.4-6.8.3-13.6,0.2-20.4s-0.4-11-.4-16.6c0-8.7,0-17.4.1-26.1,0-5.1.3-10.1,0.3-15.2,0-2.4-.2-4.8-0.4-7.2-0.3-4.6-.8-9.1-1-13.7-0.1-2.1-.3-4.4.3-6.4s2.3-3.8,3.5-5.7a46.9,46.9,0,0,1,5.3-1c3.2-.3,6.5-0.3,9.8-0.5l12.1-.7c5.6-.2,11.2-0.2,16.7-0.5a80.2,80.2,0,0,0,8.2-.7,53.3,53.3,0,0,1,9.3-.3,28.6,28.6,0,0,0,6.4-.6,55.3,55.3,0,0,1,8.5-1c4.6-.2,9.3,0,13.9-0.9h0.5c2.9,0.7,5.8-.3,8.8-0.2s8.8-.7,13.1-0.7,7.6-1.4,11.5-.6c1.3,0.2,2.7-.5,4.1-0.5a48.1,48.1,0,0,1,8.5.3,6.6,6.6,0,0,0,2.3,0c2.9-.6,5.8-0.3,8.7-1a20.4,20.4,0,0,1,4.6-.4h8.8c2.5,0,5-.2,7.5-0.1s5.5,0.1,8.2.3,7.1-.3,10.7.3a14.5,14.5,0,0,0,4.4-.4,24.9,24.9,0,0,1,7.4.4,43.8,43.8,0,0,0,7.4.2,87.7,87.7,0,0,1,12.9.7,22.7,22.7,0,0,0,5.1.1,4.2,4.2,0,0,1,4,1.9,13,13,0,0,1,2.4,6.5c1.1,7.1.6,14.1,0.5,21.2,0,1.3,0,2.6,0,3.9h0.1ZM71,139.3h0.2c0,2.6-.1,5.2,0,7.8s0.4,5,.7,7.5a2,2,0,0,0,.7,1.3,27.9,27.9,0,0,0,4,2.3c2.9,1.3,6.1.5,9.1,1a52.1,52.1,0,0,0,6.7.6c2.6,0.1,5.2.4,7.7-.1a38.4,38.4,0,0,1,6.6-.9l4.6-.2,18.1-1.1c4.3-.2,8.6-0.2,12.9-0.3s7.4-.3,11.1-0.3c6.8,0,13.6.3,20.4,0.3,5.1,0,10.2-.4,15.2-0.6l9.8-.4,10.1-.5h10.1c7.9,0.3,15.7-.7,23.5-1.1l4.9-.4c2.4-.3,4.8-0.7,7.2-0.9,5.2-.5,10.5-1,15.7-1.1,3.3-.1,6.7-1,10,0a3.2,3.2,0,0,0,1.3-.1l2.8-.4c2.7-.4,5.5.6,8.1-1h0.3c3.4-.3,4.9-1.7,5.3-5.1,0.1-1,.1-2.1.1-3.1,0.3-6.5.7-12.9,0.9-19.4s0-12.4,0-18.6,0-10.5-.2-15.7-0.2-11.5-.5-17.2,0.9-11.6.4-17.4a3.7,3.7,0,0,1,.1-0.8c0.3-2.3,1-4.6.1-6.9a3.1,3.1,0,0,1,0-1.5c0.9-4.8.3-9.7,1.2-14.6a1.3,1.3,0,0,0,0-.5c-0.7-3.4.1-6.9-1.3-10.2a4.4,4.4,0,0,1-.1-1.3,22.3,22.3,0,0,0-.2-2.3c-0.4-2-1.6-2.8-3.6-2.7a11.2,11.2,0,0,1-2.5-.4,18.1,18.1,0,0,0-2.7-.5,126.8,126.8,0,0,1-14.7-.9,24.6,24.6,0,0,0-3.1-.1h-4.1c-2.9-.1-5.9-0.7-8.8-0.4-7.1.7-14.2,0.2-21.2,0s-11.4.2-17.1,0.4-9.3.7-13.9,0.9l-8.8.2-14.5.9-18.9,1.1h-2.6L148,15.7l-10.6.5-9.3.8-5.9.4-5.9.6-5.7.2-9,.4-4.9.2-7.5.4-10,.5a47.1,47.1,0,0,0-6.1,1,2.5,2.5,0,0,0-1.5,1.2,12.4,12.4,0,0,0-1.2,6.5c0.6,5.8,1.3,11.7,1.5,17.5s0,13.5-.1,20.2c0,2.2-.3,4.3-0.3,6.5,0,4.9.2,9.8,0.2,14.7,0,0.3,0,.5,0,0.8,0,2.4,0,4.8,0,7.2,0.1,4,.4,7.9.4,11.9s-0.2,6.6-.3,9.8-0.1,7.1-.2,10.6S71.2,135.3,71,139.3Z"/>
  <path class="a" d="M192.5,6.3a3.7,3.7,0,0,1-2.3,2.7,3,3,0,0,1-2.7-1.1,2,2,0,0,1-.2-1,2.3,2.3,0,0,1,2-2.1,2.9,2.9,0,0,1,3,.9A2.8,2.8,0,0,1,192.5,6.3Z"/>
</svg>
