<?xml version="1.0" encoding="utf-8"?>
<!-- Generator: Adobe Illustrator 19.0.0, SVG Export Plug-In . SVG Version: 6.00 Build 0)  -->
<svg version="1.1" id="Layer_1" xmlns="http://www.w3.org/2000/svg" xmlns:xlink="http://www.w3.org/1999/xlink" x="0px" y="0px"
	 viewBox="0 0 301.1 80" style="enable-background:new 0 0 301.1 80;" xml:space="preserve">
<style type="text/css">
	.st0{fill:#FBB559;}
	.st1{fill:#FFFFFF;}
	.st2{fill:#231F20;}
</style>
<g>
	<g>
		<circle class="st0" cx="39.6" cy="39.6" r="39.6"/>
		<path class="st1" d="M15.2,51.2c1.7-0.7,4.2-2.4,5.9-3.1c1.5-3.1,4.8-9.2,4.8-9.2l4.5-2.8c0,0,1.5-1.5,2.1-2.2
			c1.3-1.4,2.7-2.8,4.1-4.1c1.3-1.2,4.5-2.2,4.5-2.2s3.3,1.1,3.3,1c0.9-1,3.9-3.2,4.2-3.2c1-0.1,2-0.1,2.7,0.7c1,1.1,1.6,2,1.5,3.8
			c0,0.7-0.1,1.4-0.3,2.1c-0.2,0.7-1.1,0.9-1.7,1.1c-0.8,0.3-1.7,0.4-2.6,0.5c1.1,0.9,2.1,1.7,3.2,2.6c0.7,0.6,1.2,0.5,2.2,0.5
			c2.6,0,5.2,0.1,7.8,0.1c-0.4-8.8-3-16.3-7.9-20.3c7.6,4.1,12.9,12.8,12.9,22.9c0,10.1-5.3,18.8-12.9,22.9c5.3-4.3,7.9-12.7,8-22.4
			c-2.3,0.3-4.5,0.7-6.8,1c-1.1,0.1-2.3,0.4-3.4,0.2c-1.6-0.2-6.1-2.4-6.5-2.3c-1.1,0.4-2.5,1.3-2.5,1.3s-5,0.9-6.9,1.2
			c2,1.1,4,2.2,5.9,3.3c1.2,0.7,2.3,1.3,3.4,2.1c0.8,0.5,0.8,0.9,1,1.9c0.3,1.6,0.4,3.2,0.6,4.8c0,0.4-0.1,2.6,0.3,2.9
			c1.2,0.6,2.3,0.6,3.5,1.2c0.4,0.2,0.8,0.5,1.3,0.7c0.2,0.1,0.1,1.3,0.1,1.3h-8.5c-0.2-1.1-0.3-3-0.5-4.4c-0.1-1.3-0.8-2-1.6-3.1
			c-0.7-1-0.8-1.4-1.9-1.7c-1.6-0.6-3.1-1.1-4.7-1.7c-1.2-0.4-2.5-0.9-3.8-1.3c-0.4-0.2-1.5,1.2-1.8,1.5c-1.3,1.3-5.5,5.2-5.5,5.2
			l-8,1.8V57l1.8,1.2l-0.1,1.1c-0.5,0-3.8,0.2-3.9,0c-0.4-2-1.9-4-2.3-6C10.6,53,14.8,51.4,15.2,51.2"/>
	</g>
	<path class="st2" d="M110,52.6l-2.9-1c-5.3-1.8-7.4-3.2-7.4-6.4c0-3.4,2.8-5.8,7.6-5.8c4,0,7.2,2,8.7,6.4l2.7-1.4
		c-1.9-4.7-5.5-7.6-11.5-7.6c-5.9,0-10.5,3.4-10.5,8.5c0,4.7,2.9,7,8.9,9l2.7,0.9c5.5,1.8,7.4,3.3,7.4,6.6c0,4.1-3.5,6.4-8.2,6.4
		c-4.9,0-8.1-2.7-9.6-7.7L95,62c2,5.8,6.2,9.1,12.3,9.1c6.8,0,11.5-3.6,11.5-9.2C118.8,57.2,116.4,54.7,110,52.6z"/>
	<path class="st2" d="M133.5,47.3c-3.4,0-5.9,1.5-7.6,4.4v-4h-2.8V80h2.7V66.6c1.3,2.8,3.6,4.1,7.2,4.1c5.4,0,9.2-4.2,9.2-11.6
		C142.2,51.8,138.8,47.3,133.5,47.3z M132.7,68.4c-4.3,0-6.9-3.5-6.9-9.8c0-5.4,2.9-8.9,7-8.9c4,0,6.4,3.5,6.4,9.4
		C139.3,65.1,136.9,68.4,132.7,68.4z"/>
	<path class="st2" d="M161.8,65.1v-9.4c0-2.9-0.3-4.6-1.2-6c-1.3-2-3.5-2.6-6.5-2.6c-4.7,0-8.2,2.3-8.8,7.2l2.7,0.4
		c0.3-3.5,2.3-5.3,5.9-5.3c1.6,0,3,0.4,3.8,1.2c0.9,0.8,1.3,2.1,1.3,4.2v1.6c-4.6,0.4-8,0.9-10.4,1.9c-2.9,1.2-4.3,3.2-4.3,6.1
		c0,3.7,2.8,6.2,6.9,6.2c3.4,0,6.1-1.1,7.9-3.8c0.2,2.5,1.4,3.6,4.1,3.6c0.5,0,1.1,0,1.6-0.1v-2.2c-0.3,0-0.7,0.1-1,0.1
		C161.9,68.3,161.8,67.1,161.8,65.1z M159.1,60.3c0,2.5-0.5,4.5-1.7,5.9c-1.3,1.5-3.2,2.3-5.5,2.3c-2.8,0-4.7-1.4-4.7-4.1
		c0-2,1-3.1,2.7-3.9c2.1-1,5.3-1.4,9.2-1.7V60.3z"/>
	<path class="st2" d="M191.4,47.4c-3.3,0-6.2,1.4-7.9,4.5c-0.7-2.9-2.7-4.6-6.1-4.6c-2.9,0-5.9,1.4-7.6,4.4v-4.1h-2.7v22.7h2.7V59
		c0-2.9,0.5-4.7,1.6-6.3c1.4-2.1,3.6-2.8,5.1-2.8c2.1,0,3.4,0.8,4,2.4c0.5,1.3,0.6,3.1,0.6,4.8v13.3h2.7V59.1c0-3.1,0.4-5.1,1.8-6.8
		c1.1-1.5,3-2.4,4.9-2.4c1.9,0,3.1,0.7,3.8,2c0.6,1,0.8,2.3,0.8,5.1v13.4h2.7V56.2c0-1.7-0.1-3.3-0.3-4.3
		C196.8,48.7,194.5,47.4,191.4,47.4z"/>
	<path class="st2" d="M173.3,7.1c0.2,0.6,0.4,1.2,0.6,1.7h0.2c0.4-1.1,0.5-1.3,0.6-1.8c0,0.4,0,0.8,0,1.8h0.2v-2h-0.3
		c-0.3,0.9-0.4,1.1-0.6,1.7c-0.2-0.6-0.4-1.1-0.6-1.7h-0.3v2h0.2C173.3,7.9,173.3,7.6,173.3,7.1z"/>
	<polygon class="st2" points="172.1,8.8 172.3,8.8 172.3,7.1 172.9,7.1 172.9,6.8 171.5,6.8 171.5,7.1 172.1,7.1 	"/>
	<path class="st2" d="M111.3,13.4h1.8v5c0,1.1,0.3,1.9,1,2.5c0.6,0.6,1.5,0.9,2.6,0.9c0.9,0,1.4-0.2,1.7-0.3l0.1-0.1V19l0-0.1
		l-0.2,0c-0.1,0-0.2,0-0.3,0.1c-0.2,0-0.3,0-0.5,0c-0.2,0-0.4,0-0.5-0.1c-0.2-0.1-0.3-0.2-0.4-0.3c-0.1-0.2-0.2-0.4-0.2-0.7v-4.5h2
		l0.1,0l0-0.1v-2.4l0-0.1l-0.1,0h-2v-3l0-0.1l-0.1,0h-2.6l-0.1,0l0,0.1v0.8c0,0.8-0.2,1.4-0.4,1.7c-0.2,0.3-0.8,0.5-1.4,0.5h-0.2
		l-0.1,0l0,0.1v2.4l0,0.1L111.3,13.4z"/>
	<path class="st2" d="M108.2,9.6c1,0,1.8-0.8,1.8-1.8c0-1-0.8-1.8-1.8-1.8c-1,0-1.8,0.8-1.8,1.8C106.4,8.8,107.2,9.6,108.2,9.6z"/>
	<path class="st2" d="M126.9,21.6l0.1,0.1h2.4l0.1,0l0-0.1V15c0-1.6-0.4-2.8-1.3-3.5c-0.9-0.8-2.2-1.2-3.8-1.2
		c-1.2,0-2.3,0.3-3.1,0.9c-0.8,0.5-1.4,1.3-1.6,2.3l0.1,0.1l2.4,0.5l0.1-0.1c0.1-0.4,0.4-0.7,0.8-0.9c0.4-0.2,0.8-0.3,1.3-0.3
		c0.7,0,1.2,0.1,1.5,0.4c0.3,0.2,0.5,0.6,0.5,1.1v0.5h-1.9c-1.5,0-2.8,0.3-3.7,1c-0.9,0.6-1.5,1.5-1.5,2.7c0,1.1,0.4,2,1,2.6
		c0.7,0.6,1.6,0.9,2.6,0.9c1.4,0,2.9-0.5,3.8-1.5L126.9,21.6z M126.4,17c0,0.7-0.3,1.3-0.8,1.7l0,0c-0.5,0.4-1.2,0.6-1.9,0.6
		c-0.4,0-0.7-0.1-0.9-0.3c-0.2-0.2-0.3-0.4-0.3-0.7c0-0.4,0.2-0.8,0.5-1c0.3-0.2,0.9-0.4,1.5-0.4h1.9V17z"/>
	<polygon class="st2" points="98.1,21.5 98.1,21.7 98.2,21.7 101.4,21.7 101.5,21.7 101.5,21.5 101.5,9.9 105.1,9.9 105.2,9.9 
		105.3,9.8 105.3,6.7 105.2,6.6 105.1,6.5 94.4,6.5 94.3,6.6 94.2,6.7 94.2,9.8 94.3,9.9 94.4,9.9 98.1,9.9 	"/>
	<path class="st2" d="M130.9,21.7h2.9l0.1,0l0-0.1v-6.2c0-0.6,0.2-1.1,0.5-1.5c0.3-0.4,0.8-0.6,1.4-0.6c0.7,0,1.1,0.2,1.4,0.6
		c0.3,0.3,0.4,0.8,0.4,1.4v6.3l0,0.1l0.1,0h2.9l0.1,0l0-0.1v-6.8c0-1.2-0.3-2.3-1-3.1c-0.7-0.8-1.7-1.3-3.1-1.3
		c-0.6,0-1.2,0.2-1.8,0.4c-0.3,0.2-0.6,0.4-0.9,0.8l-0.3,0.3v-1.1l0-0.1l-0.1,0h-2.8l-0.1,0l0,0.1v10.7l0,0.1L130.9,21.7z"/>
	<path class="st2" d="M164.6,22.4c1.4,0,2.6-0.4,3.5-1l3.2,2.7l0.9-0.9l-3.2-2.6c1.4-1.5,2.1-3.5,2.1-6c0-4.4-2-8.1-6.5-8.1
		c-4.1,0-6.7,3-6.7,7.8C158,19.1,160.4,22.4,164.6,22.4z M164.6,7.7c3.1,0,5.1,2.5,5.1,6.8c0,4.1-1.9,6.6-5,6.6
		c-3.2,0-5.3-2.7-5.3-6.9C159.4,10.2,161.4,7.7,164.6,7.7z"/>
	<polygon class="st2" points="106.6,10.7 106.5,10.7 106.4,10.8 106.4,21.5 106.5,21.7 106.6,21.7 109.7,21.7 109.9,21.7 
		109.9,21.5 109.9,10.8 109.9,10.7 109.7,10.7 	"/>
	<polygon class="st2" points="145.6,14.8 154.3,14.8 154.3,22.2 155.7,22.2 155.7,6.7 154.3,6.7 154.3,13.5 145.6,13.5 145.6,6.7 
		144.2,6.7 144.2,22.2 145.6,22.2 	"/>
	<g>
		<path class="st2" d="M252.6,46.6c0.1,0.1,0.1,0.2,0.1,0.3v5.3c0,0.1,0,0.2-0.1,0.3c-0.1,0.1-0.2,0.1-0.3,0.1H248v9.7
			c0,0.7,0.1,1.2,0.3,1.6c0.2,0.3,0.5,0.5,1,0.7c0.3,0.1,0.7,0.1,1.1,0.1c0.4,0,0.8,0,1.1-0.1c0.3,0,0.6-0.1,0.8-0.1
			c0.1,0,0.3-0.1,0.3,0c0.1,0.1,0.1,0.2,0.1,0.3v5.2c0,0.1-0.1,0.2-0.2,0.3c-0.6,0.3-1.8,0.6-3.7,0.6c-2.3,0-4.3-0.7-5.6-2
			c-1.4-1.3-2.1-3.2-2.1-5.5V52.5h-3.9c-0.1,0-0.2,0-0.3-0.1c-0.1-0.1-0.1-0.2-0.1-0.3v-5.3c0-0.1,0-0.2,0.1-0.3
			c0.1-0.1,0.2-0.1,0.3-0.1h0.5c1.4,0,2.5-0.5,3.1-1.1c0.5-0.6,0.9-1.9,0.9-3.7v-1.8c0-0.1,0-0.2,0.1-0.3c0.1-0.1,0.2-0.1,0.3-0.1
			h5.7c0.1,0,0.2,0,0.3,0.1c0.1,0.1,0.1,0.2,0.1,0.3v6.6h4.3C252.4,46.5,252.6,46.5,252.6,46.6z"/>
		<path class="st2" d="M299,48.7c-1.4-1.7-3.7-2.8-6.6-2.8c-1.3,0-2.6,0.4-3.8,1c-0.7,0.3-1.4,0.9-1.9,1.6c-0.2,0.2-0.4,0.5-0.6,0.7
			v-2.4c0-0.1,0-0.2-0.1-0.2c-0.1-0.1-0.1-0.1-0.2-0.1h-6.1c-0.1,0-0.2,0-0.2,0.1c-0.1,0.1-0.1,0.1-0.1,0.2v23.3
			c0,0.1,0,0.2,0.1,0.2c0.1,0.1,0.1,0.1,0.2,0.1h6.3c0.1,0,0.2,0,0.2-0.1c0.1-0.1,0.1-0.1,0.1-0.2V56.7c0-1.3,0.4-2.4,1.1-3.2
			c0.7-0.8,1.7-1.3,3-1.3c1.4,0,2.4,0.5,3,1.2c0.6,0.8,0.9,1.8,0.9,3.1v13.6c0,0.1,0,0.2,0.1,0.2c0.1,0.1,0.1,0.1,0.2,0.1h6.3
			c0.1,0,0.2,0,0.2-0.1c0.1-0.1,0.1-0.1,0.1-0.2V55.4C301.1,52.8,300.4,50.4,299,48.7z"/>
		<path class="st2" d="M273.8,48.1c-1.9-1.7-4.7-2.6-8.3-2.6c-2.6,0-4.9,0.7-6.7,1.9c-1.8,1.2-3.1,2.9-3.5,5c0,0.1,0.1,0.2,0.2,0.3
			l5.3,1.1c0.1,0,0.2,0,0.3-0.1c0.3-0.9,0.9-1.5,1.6-1.9c0.8-0.4,1.7-0.7,2.8-0.7c1.5,0,2.6,0.3,3.3,0.8c0.7,0.5,1.1,1.3,1.1,2.4
			v1.1h-4.2c-3.3,0-6.1,0.7-8.1,2.1c-2,1.3-3.3,3.3-3.3,5.8c0,2.4,0.8,4.2,2.2,5.5c1.4,1.3,3.4,2,5.7,2c3.1,0,6.2-1,8.2-3.2l0.6,2.6
			c0,0.1,0.1,0.2,0.2,0.2h5.1c0.1,0,0.1,0,0.2-0.1c0,0,0.1-0.1,0.1-0.2V55.8C276.6,52.4,275.7,49.9,273.8,48.1z M269.9,60.3
			c0,1.4-0.6,2.7-1.7,3.6l0,0c-1.1,0.9-2.6,1.3-4.2,1.3c-0.8,0-1.5-0.2-1.9-0.6c-0.5-0.4-0.8-0.9-0.8-1.5c0-1,0.4-1.7,1.1-2.2
			c0.7-0.5,1.9-0.8,3.3-0.8h4.2V60.3z"/>
		<path class="st2" d="M233.8,46.5h-6.8c-0.1,0-0.2,0-0.2,0.1c-0.1,0.1-0.1,0.2-0.1,0.3v23.2c0,0.1,0,0.2,0.1,0.3
			c0.1,0.1,0.1,0.1,0.2,0.1h6.8c0.1,0,0.2,0,0.2-0.1c0.1-0.1,0.1-0.2,0.1-0.3V46.9c0-0.1,0-0.2-0.1-0.3
			C233.9,46.5,233.8,46.5,233.8,46.5z"/>
		<path class="st2" d="M230.3,36.4c-2.1,0-3.9,1.7-3.9,3.9c0,2.1,1.7,3.8,3.9,3.8c2.2,0,3.9-1.7,3.9-3.8
			C234.2,38.1,232.5,36.4,230.3,36.4z"/>
		<path class="st2" d="M223.7,37.5h-23.2c-0.1,0-0.2,0-0.2,0.1c-0.1,0.1-0.1,0.1-0.1,0.2v6.7c0,0.1,0,0.2,0.1,0.2
			c0.1,0.1,0.1,0.1,0.2,0.1h7.9v25.2c0,0.1,0,0.2,0.1,0.3c0.1,0.1,0.1,0.1,0.2,0.1h6.8c0.1,0,0.2,0,0.2-0.1c0.1-0.1,0.1-0.2,0.1-0.3
			V44.9h7.8c0.1,0,0.2,0,0.2-0.1c0.1-0.1,0.1-0.1,0.1-0.2v-6.7c0-0.1,0-0.2-0.1-0.2C223.9,37.5,223.8,37.5,223.7,37.5z"/>
	</g>
</g>
</svg>
