<svg xmlns="http://www.w3.org/2000/svg" width="261.406" height="160.529" viewBox="0 237.53 261.406 160.529"><g fill="#FFF"><path d="M91.924 296.053c.986.526 5.26 3.685 12.89 3.685 6.313 0 10.457-2.236 10.457-6.512 0-4.538-3.812-6.444-10.72-8.155-5.983-1.643-13.743-4.535-13.743-13.15 0-8.944 7.63-11.245 15.324-11.245 6.97 0 11.64 2.3 14.47 4.21l-2.435 4.733c-2.236-1.646-6.38-3.684-12.035-3.684-5 0-9.603 1.446-9.603 5.984 0 5.327 6.38 6.51 9.733 7.63 9.8 2.827 14.73 6.182 14.73 13.68 0 10.128-9.47 11.77-16.177 11.77-6.51 0-11.575-1.907-15.323-4.274l2.434-4.67zm35.05 0c.987.526 5.26 3.685 12.89 3.685 6.313 0 10.458-2.236 10.458-6.512 0-4.538-3.814-6.444-10.72-8.155-5.984-1.643-13.746-4.535-13.746-13.15 0-8.944 7.63-11.245 15.323-11.245 6.97 0 11.64 2.3 14.467 4.21l-2.434 4.733c-2.236-1.646-6.38-3.684-12.035-3.684-5 0-9.603 1.446-9.603 5.984 0 5.327 6.38 6.51 9.732 7.63 9.798 2.827 14.73 6.182 14.73 13.68 0 10.128-9.472 11.77-16.18 11.77-6.51 0-11.573-1.907-15.322-4.274l2.437-4.67zm46.363-34.593h5.787l15.52 42.748h-5.786l-4.998-13.68h-15.258l-4.998 13.68h-5.787l15.52-42.747zm-2.894 23.808h11.51l-5.723-15.783-5.787 15.783zm28.41 10.785c.985.526 5.262 3.685 12.89 3.685 6.312 0 10.457-2.236 10.457-6.512 0-4.538-3.814-6.444-10.72-8.155-5.984-1.643-13.745-4.535-13.745-13.15 0-8.944 7.63-11.245 15.322-11.245 6.973 0 11.642 2.3 14.47 4.21l-2.435 4.733c-2.236-1.646-6.38-3.684-12.035-3.684-4.998 0-9.602 1.446-9.602 5.984 0 5.327 6.38 6.51 9.732 7.63 9.8 2.827 14.73 6.182 14.73 13.68 0 10.128-9.47 11.77-16.178 11.77-6.514 0-11.576-1.907-15.325-4.274l2.436-4.67zm-109.175 18.33h19.268v2.97h-8.02v21.16h-3.23v-21.16H89.68v-2.97zm27.402 0h3.266l8.762 24.13h-3.267l-2.82-7.72h-8.613l-2.82 7.72h-3.268l8.76-24.13zm-1.635 13.44h6.497l-3.23-8.91-3.267 8.91zm23.765-13.44c6.198 0 8.61 2.857 8.61 6.533 0 2.115-.965 4.01-3.23 5.123 2.822 1.074 3.974 3.19 3.974 5.715 0 3.898-2.45 6.757-8.8 6.757h-9.28v-24.13h8.725zm-5.533 2.97v7.425h5.532c4.044 0 5.42-1.634 5.42-3.676 0-2.19-1.376-3.75-5.42-3.75h-5.534zm0 10.21v7.98h6.09c4.194 0 5.604-1.597 5.604-3.973 0-2.34-1.41-4.01-5.603-4.01h-6.09zm17.933-13.18h3.194v13.252c0 6.237 2.338 8.354 5.865 8.354 3.487 0 5.826-2.118 5.826-8.356V314.38h3.19v13.254c0 8.168-3.82 11.323-9.02 11.323-5.235 0-9.06-3.155-9.06-11.323V314.38h.004zm21.463 0h3.192v21.16h11.174v2.97H173.07v-24.13z"/><path d="M195.574 314.382h3.267l8.765 24.13h-3.27l-2.82-7.72h-8.61l-2.823 7.72h-3.267l8.76-24.13zm-1.635 13.44h6.496l-3.23-8.91-3.268 8.91zm23.69.408h-5.458v10.282h-3.19v-24.13h8.538c6.348 0 8.797 2.933 8.797 6.94 0 3.082-1.56 5.53-5.383 6.46l7.13 10.73h-3.677l-6.757-10.283zm-5.458-10.878v7.907h5.348c4.193 0 5.604-1.67 5.604-3.937 0-2.376-1.41-3.974-5.604-3.974h-5.348z"/></g><path d="M104.685 366.894h-1.67l-2.935-9.735c-.14-.435-.295-.98-.467-1.634-.173-.656-.262-1.052-.27-1.185-.145.877-.377 1.835-.695 2.876l-2.845 9.678h-1.67l-3.87-14.54h1.79l2.297 8.98c.318 1.26.55 2.4.696 3.42.18-1.213.444-2.398.796-3.56l2.605-8.844h1.79l2.736 8.924c.318 1.026.587 2.188.806 3.48.124-.942.363-2.09.714-3.44l2.287-8.963h1.79l-3.886 14.545zm22.25-7.29c0 2.327-.588 4.157-1.765 5.49-1.177 1.332-2.813 2-4.908 2-2.142 0-3.794-.656-4.958-1.966-1.164-1.31-1.746-3.157-1.746-5.544 0-2.367.583-4.202 1.75-5.506 1.167-1.303 2.825-1.954 4.973-1.954 2.09 0 3.72.663 4.896 1.99 1.173 1.326 1.76 3.156 1.76 5.49zm-11.587 0c0 1.97.42 3.464 1.258 4.48s2.057 1.526 3.655 1.526c1.613 0 2.83-.507 3.65-1.52.824-1.016 1.235-2.51 1.235-4.485 0-1.956-.41-3.44-1.23-4.45s-2.03-1.52-3.634-1.52c-1.61 0-2.835.51-3.674 1.528-.837 1.018-1.257 2.498-1.257 4.44zm19.982 1.243v6.047h-1.69v-14.54h3.988c1.783 0 3.103.342 3.953 1.023.855.684 1.28 1.71 1.28 3.084 0 1.925-.976 3.224-2.924 3.9l3.947 6.533h-2l-3.52-6.047-3.032.002zm0-1.452h2.316c1.193 0 2.07-.236 2.627-.71.557-.476.834-1.187.834-2.135 0-.96-.282-1.653-.85-2.078-.566-.425-1.48-.637-2.73-.637h-2.197v5.56zm24.865 7.5h-1.988l-5.3-7.053-1.523 1.354v5.698h-1.69v-14.54h1.69v7.21l6.595-7.21h2l-5.85 6.315 6.064 8.223zm13.668-3.87c0 1.28-.465 2.277-1.393 2.993-.93.717-2.188 1.074-3.78 1.074-1.724 0-3.05-.223-3.978-.667v-1.63c.598.25 1.246.45 1.95.596.7.148 1.397.22 2.087.22 1.126 0 1.975-.213 2.545-.64.57-.43.854-1.02.854-1.786 0-.504-.1-.916-.304-1.237-.2-.32-.54-.618-1.015-.89-.475-.272-1.193-.58-2.162-.926-1.355-.483-2.32-1.057-2.9-1.72s-.87-1.53-.87-2.597c0-1.12.422-2.013 1.264-2.676.843-.663 1.956-.994 3.342-.994 1.445 0 2.775.266 3.988.795l-.526 1.474c-1.2-.503-2.366-.755-3.5-.755-.897 0-1.596.19-2.1.575-.504.386-.757.92-.757 1.603 0 .504.094.917.28 1.238.184.32.497.616.937.886.44.27 1.116.563 2.024.89 1.524.544 2.574 1.127 3.147 1.75.578.625.865 1.434.865 2.43zm17.477 3.87h-1.69v-6.844h-7.658v6.845h-1.69v-14.54h1.69v6.187h7.657v-6.186h1.69v14.54zm20.07-7.29c0 2.326-.588 4.156-1.766 5.49-1.177 1.33-2.812 2-4.908 2-2.142 0-3.793-.657-4.957-1.967-1.165-1.31-1.747-3.157-1.747-5.544 0-2.367.583-4.202 1.75-5.506 1.167-1.303 2.825-1.954 4.974-1.954 2.088 0 3.72.663 4.893 1.99 1.174 1.326 1.76 3.156 1.76 5.49zm-11.586 0c0 1.97.42 3.463 1.26 4.48.837 1.017 2.057 1.525 3.652 1.525 1.61 0 2.828-.507 3.65-1.52.822-1.015 1.233-2.51 1.233-4.485 0-1.956-.41-3.44-1.23-4.45-.82-1.013-2.03-1.52-3.636-1.52-1.61 0-2.837.51-3.675 1.528-.837 1.018-1.257 2.498-1.257 4.44zm27.512-3.015c0 1.472-.502 2.604-1.507 3.396s-2.44 1.188-4.314 1.188h-1.71v5.72h-1.69V352.35h3.77c3.633 0 5.45 1.414 5.45 4.238zm-7.53 3.133h1.523c1.496 0 2.58-.24 3.25-.726s1.004-1.26 1.004-2.327c0-.962-.313-1.678-.944-2.148-.63-.47-1.61-.705-2.942-.705h-1.89v5.906z" fill="#9B3E3E"/><circle fill="#666" cx="37.288" cy="285.166" r="6.041"/><circle fill="#666" cx="50.376" cy="298.383" r="3.662"/><circle fill="#666" cx="44.76" cy="267.691" r="4.882"/><path fill="#FFF" d="M88.217 387.225l-76.035 1.948 18.522-27.946 46.466 1.953"/><path fill="#4A4A4A" d="M101.243 392.386l-19.6-31.907c-1.92-3.12-5.05-8.23-6.966-11.35l-9.77-15.91v-15.014h6.65c3.66 0 3.386-1.525 3.386-4.73 0 0 .274-3.12-3.386-3.12H31.632c-3.656 0-3.65 3.11-3.65 3.11 0 3.206-.006 4.74 3.65 4.74h6.656v15.013l-9.772 15.91c-1.92 3.12-5.053 8.23-6.97 11.348L1.95 392.385c-1.924 3.12-.488 5.673 3.168 5.673H98.07c3.654 0 5.086-2.555 3.173-5.674zm-27.12-7.636H25.08c-3.655 0-5.086-2.55-3.166-5.666l5.292-8.635c.957-1.56 28.216 5.49 29.483 3.434l-5.52-9.096h17.34c1.266 2.052 2.524 4.103 3.484 5.66l5.303 8.634c1.914 3.115.484 5.666-3.175 5.666z"/></svg>