<?xml version="1.0" encoding="UTF-8" standalone="no"?>
<svg
   xmlns:dc="http://purl.org/dc/elements/1.1/"
   xmlns:cc="http://creativecommons.org/ns#"
   xmlns:rdf="http://www.w3.org/1999/02/22-rdf-syntax-ns#"
   xmlns:svg="http://www.w3.org/2000/svg"
   xmlns="http://www.w3.org/2000/svg"
   version="1.1"
   id="svg2"
   viewBox="0 0 7256.6929 4081.8897"
   height="1152mm"
   width="2048mm">
  <defs
     id="defs4">
    <marker
       style="overflow:visible;"
       id="marker4624"
       refX="0.0"
       refY="0.0"
       orient="auto">
      <path
         transform="scale(0.8) rotate(180) translate(12.5,0)"
         style="fill-rule:evenodd;stroke:#000000;stroke-width:1pt;stroke-opacity:1;fill:#000000;fill-opacity:1"
         d="M 0.0,0.0 L 5.0,-5.0 L -12.5,0.0 L 5.0,5.0 L 0.0,0.0 z "
         id="path4626" />
    </marker>
    <marker
       style="overflow:visible"
       id="marker4456"
       refX="0.0"
       refY="0.0"
       orient="auto">
      <path
         transform="scale(0.8) translate(12.5,0)"
         style="fill-rule:evenodd;stroke:#000000;stroke-width:1pt;stroke-opacity:1;fill:#000000;fill-opacity:1"
         d="M 0.0,0.0 L 5.0,-5.0 L -12.5,0.0 L 5.0,5.0 L 0.0,0.0 z "
         id="path4458" />
    </marker>
    <marker
       style="overflow:visible;"
       id="marker4440"
       refX="0.0"
       refY="0.0"
       orient="auto">
      <path
         transform="scale(0.8) rotate(180) translate(12.5,0)"
         style="fill-rule:evenodd;stroke:#000000;stroke-width:1.0pt;"
         d="M 0.0,0.0 L 5.0,-5.0 L -12.5,0.0 L 5.0,5.0 L 0.0,0.0 z "
         id="path4442" />
    </marker>
    <marker
       style="overflow:visible"
       id="marker4436"
       refX="0.0"
       refY="0.0"
       orient="auto">
      <path
         transform="scale(0.8) translate(12.5,0)"
         style="fill-rule:evenodd;stroke:#000000;stroke-width:1.0pt"
         d="M 0.0,0.0 L 5.0,-5.0 L -12.5,0.0 L 5.0,5.0 L 0.0,0.0 z "
         id="path4438" />
    </marker>
    <marker
       style="overflow:visible;"
       id="Arrow1Lend"
       refX="0.0"
       refY="0.0"
       orient="auto">
      <path
         transform="scale(0.8) rotate(180) translate(12.5,0)"
         style="fill-rule:evenodd;stroke:#000000;stroke-width:1pt;stroke-opacity:1;fill:#000000;fill-opacity:1"
         d="M 0.0,0.0 L 5.0,-5.0 L -12.5,0.0 L 5.0,5.0 L 0.0,0.0 z "
         id="path4179" />
    </marker>
    <marker
       style="overflow:visible"
       id="Arrow1Lstart"
       refX="0.0"
       refY="0.0"
       orient="auto">
      <path
         transform="scale(0.8) translate(12.5,0)"
         style="fill-rule:evenodd;stroke:#000000;stroke-width:1pt;stroke-opacity:1;fill:#000000;fill-opacity:1"
         d="M 0.0,0.0 L 5.0,-5.0 L -12.5,0.0 L 5.0,5.0 L 0.0,0.0 z "
         id="path4176" />
    </marker>
  </defs>
  <metadata
     id="metadata7">
    <rdf:RDF>
      <cc:Work
         rdf:about="">
        <dc:format>image/svg+xml</dc:format>
        <dc:type
           rdf:resource="http://purl.org/dc/dcmitype/StillImage" />
        <dc:title></dc:title>
      </cc:Work>
    </rdf:RDF>
  </metadata>
  <g
     style="display:inline"
     id="layer5">
    <rect
       y="-58.927521"
       x="-90.509666"
       height="4186.0723"
       width="7568.8711"
       id="rect4181"
       style="opacity:1;fill:#ffffff;fill-opacity:1;fill-rule:nonzero;stroke:#ffffff;stroke-width:3.75500011;stroke-miterlimit:4;stroke-dasharray:none;stroke-opacity:1" />
  </g>
  <g
     style="display:inline"
     id="layer9">
    <path
       id="path5425"
       style="fill:none;fill-opacity:0.75;fill-rule:evenodd;stroke:#000000;stroke-width:2pt;stroke-linecap:butt;stroke-linejoin:miter;stroke-opacity:1"
       d="M 0,0 0,4081.8898 M 940,0 940,4081.8898 M 1880,0 l 0,4081.8898 M 2820,0 l 0,4081.8898 M 3760,0 l 0,4081.8898 M 4700,0 l 0,4081.8898 M 5640,0 l 0,4081.8898 M 6580,0 l 0,4081.8898 M 0,90 7256.6929,90 M 0,1030 l 7256.6929,0 M 0,1970 l 7256.6929,0 M 0,2910 l 7256.6929,0 M 0,3850 l 7256.6929,0" />
  </g>
  <g
     style="display:inline;opacity:1"
     id="layer2">
    <path
       id="path4716"
       d="m 4939.2281,2996.6496 c -107.7371,-16.7274 -222.9737,-45.0483 -318.7993,-80.9645 -46.2163,-17.3311 -111.3023,-39.7197 -161.1189,-50.9585 -81.2333,-18.3262 -153.0622,-23.2926 -236.0685,-24.6995 -81.6837,-1.3845 -162.6071,-5.8723 -222.1179,-7.7511 -76.128,-2.5538 -106.0789,-11.8228 -215.7606,-6.754 -109.6818,5.0687 -193.8048,30.4094 -237.9282,40.0661 -23.4093,5.1235 -81.3739,10.4795 -104.8607,7.7313 -17.008,-1.9899 -68.4175,-25.3538 -88.9959,-48.042 -20.5784,-22.6883 -62.8547,-66.092 -119.432,-80.4791 -56.6437,-14.4042 -134.3056,40.2164 -152.872,95.916 -8.8591,26.5768 -11.0577,57.9675 3.3377,78.2813 7.5414,10.6418 25.887,22.1501 38.6034,20.6921 35.6867,-4.0917 90.1679,-23.1411 119.0653,-1.468 16.1376,12.1032 35.5623,50.4275 47.0578,65.7549 20.0554,26.7404 41.1831,42.7331 67.8838,60.6898 14.4613,9.7254 41.7001,18.3556 56.6698,27.3375 27.5047,16.5028 30.3035,46.1201 55.6173,65.1054 20.9842,15.7381 82.0007,42.9779 82.0007,42.9779 46.9485,15.9483 97.1365,31.6429 145.8414,38.0585 84.3703,11.1136 149.4349,17.0811 244.861,22.2115 64.0367,-4.5512 119.9065,-1.1764 173.8015,-4.4496 69.3579,-4.2122 139.7727,-10.0856 186.9058,-17.5664 59.8055,-9.492 81.1335,-20.01 103.3817,-23.2615 41.6759,-6.0906 77.6749,-17.0147 112.8978,-27.2731 41.3611,-12.046 76.8793,-25.4844 120.9459,-30.3806 28.1846,-3.1317 91.3067,-6.3421 118.1903,-6.4179 116.2395,-0.3281 306.0141,-3.512 421.9545,-14.287 83.5839,-7.768 254.4699,-35.5687 354.018,-53.8192 165.8787,-30.4107 429.1839,-82.8529 519.3907,-96.5828 117.2122,-17.8402 185.2658,-32.0459 245.5083,-42.9237 60.9503,-11.0057 235.5977,-35.3023 234.1572,-43.7411 -1.4353,-8.4067 -197.9149,10.6225 -234.1737,14.897 -56.9287,6.7115 -166.5261,13.1588 -261.0746,24.0395 -63.8989,7.3534 -420.5671,57.2346 -500.7824,58.9215 -98.9933,2.0817 -215.02,12.3655 -333.0253,9.592 -74.4306,-1.7494 -188.1131,1.4972 -265.0799,-10.4527 z"
       style="opacity:1;fill:#253025;fill-opacity:1;fill-rule:evenodd;stroke:#253025;stroke-width:3.27138543;stroke-linecap:butt;stroke-linejoin:miter;stroke-miterlimit:4;stroke-dasharray:none;stroke-opacity:1" />
  </g>
  <g
     style="display:inline"
     id="layer4">
    <path
       id="path4723"
       d="m 3932.5579,3014.2405 c -21.1766,35.7427 -37.9387,69.9126 -51.8154,105.4161 -13.8765,35.5036 -25.2434,89.8961 -29.8661,107.9769 -8.168,31.9492 -3.8758,65.9498 4.9948,93.713 8.3628,26.174 25.6357,61.4818 25.6357,61.4818 10.0726,23.3732 28.5819,46.8818 46.7744,72.4271 18.4701,25.9348 33.9017,38.7963 61.3335,72.0296 27.8819,33.7787 38.5377,60.0056 53.2131,89.3566 3.9583,7.9166 6.8901,23.272 5.6452,34.8104 -1.2447,11.5384 -3.4799,21.0648 -3.4799,30.2977 0,26.9675 -8.0986,57.6345 -26.4212,81.0107 -4.0803,5.2058 -17.3469,13.9121 -27.009,18.6372 -9.662,4.7251 -21.0729,10.4607 -32.5719,13.2473 -11.7784,2.8543 -32.5742,3.5577 -47.1525,5.543 -6.3909,0.8703 -16.7215,1.2437 -27.7436,1.9722 -11.0219,0.7288 -22.7943,0.9424 -31.5237,3.214 -19.5227,5.0807 -31.4102,16.9586 -36.7759,30.3956 -1.0421,2.6099 10.0438,-4.8959 23.3511,-7.2129 13.3072,-2.3166 26.6698,1.2774 29.4589,3.7057 3.5799,3.1164 3.7008,5.1495 9.9623,5.2129 50.7197,0.5121 99.4479,2.3897 154.2146,-1.037 5.8819,-0.2867 11.9672,-0.9808 14.8577,-15.4855 2.8898,-14.5016 2.8797,-16.1277 7.594,-25.3941 11.1328,-21.8817 35.0216,-66.8022 44.3589,-84.9835 8.5169,-17.034 19.5141,-30.3737 25.5765,-42.0475 7.4104,-14.2688 4.4451,-21.7705 4.4451,-28.4028 0,-25.0134 -22.6476,-56.7116 -30.6305,-80.6604 -4.8921,-14.6766 -18.2558,-39.575 -25.5628,-62.3571 -7.307,-22.782 -7.534,-59.2023 -7.1097,-73.4384 0.6704,-22.4931 -7.543,-71.6375 -14.2943,-91.8917 -6.4744,-19.4234 -29.0903,-40.6094 -21.424,-43.4208 7.6662,-2.8114 23.1653,-21.7391 52.1992,-48.7338 29.0342,-26.9951 41.4351,-44.38 60.0955,-63.0403 23.2816,-23.2818 47.152,-34.8997 77.1569,-65.9257 30.0049,-31.026 45.824,-49.0399 57.6175,-64.7647 9.5616,-12.7485 99.2562,-80.0701 89.8497,-94.9547 -17.1242,-27.0966 -111.5266,-7.6184 -160.4705,-11.7839 -48.9441,-4.1652 -66.9821,-14.6454 -96.472,-25.4795 -29.49,-10.8339 -95.7077,-35.5402 -119.0619,-6.022 -23.3542,29.5185 -41.2862,76.7758 -58.9497,106.5885 z"
       style="fill:#253025;fill-opacity:1;fill-rule:evenodd;stroke:#253025;stroke-width:3.27138543;stroke-linecap:butt;stroke-linejoin:miter;stroke-miterlimit:4;stroke-dasharray:none;stroke-opacity:1" />
  </g>
  <g
     style="display:inline"
     id="layer6">
    <path
       id="path4730"
       d="m 3558.7684,3328.3664 c -4.1877,10.8464 -12.7879,21.1302 -12.7879,21.1302 -10.3828,11.9261 -15.4162,17.5653 -23.7947,29.1174 -2.1052,2.8744 -4.6603,8.7805 -5.1096,11.4215 -0.2807,1.6491 5.3408,-0.6053 10.4928,-5.5864 3.0876,-2.9852 4.3602,-4.0223 7.9515,-5.3028 3.2119,-1.1454 0.4074,6.6713 -3.9117,16.3101 -1.9871,4.4344 -10.1237,24.6185 -5.6566,23.2606 6.6845,-2.0321 21.502,-26.9897 24.7541,-28.5969 2.4726,-1.2219 -1.5991,8.3902 -2.7934,13.3967 -0.9293,3.8954 -7.5925,25.9053 -1.6315,27.3124 5.4059,1.2762 16.3253,-36.2142 22.8271,-45.0909 5.1064,-4.9406 4.3033,4.9172 4.3033,4.9172 1.3393,6.7557 -0.5759,16.4683 5.4569,15.4603 5.4884,-0.9171 4.9454,-12.0428 5.7974,-16.9959 0.4503,-2.5951 0.8929,-10.0013 0.9598,-9.781 0.8708,2.864 7.0414,14.1238 11.7107,10.8123 2.7469,-4.0389 -1.8638,-13.7529 -2.6276,-17.9282 -1.5504,-10.0398 0.7757,-25.7754 5.532,-35.9108 4.8268,-10.2861 7.9021,-20.7595 12.2756,-33.1876 2.8413,-8.0732 9.0893,-23.5606 11.9558,-36.3316 4.6531,-20.7304 10.9413,-39.8103 4.3802,-49.6796 -10.2621,-16.8088 -29.4598,-25.5605 -44.8796,-40.9805 -12.1631,-12.1631 -23.6069,-25.2195 -63.9317,-53.0601 -40.3246,-27.8406 -56.8723,-51.5178 -64.2533,-41.3596 -7.3807,10.1585 -20.6493,19.7784 -20.1742,28.0767 1.8507,32.3147 40.498,66.2971 67.1387,80.2821 18.9729,9.9601 23.9514,17.1898 40.4502,28.4657 17.8866,12.664 32.2641,14.664 35.2712,18.9042 1.5921,2.2452 -3.8966,15.2518 -6.1678,28.5994 -3.4697,20.3921 -6.5779,37.9676 -13.5381,62.3251 z"
       style="fill:#253025;fill-opacity:1;fill-rule:evenodd;stroke:#253025;stroke-width:3.27138543;stroke-linecap:butt;stroke-linejoin:miter;stroke-miterlimit:4;stroke-dasharray:none;stroke-opacity:1" />
  </g>
  <g
     id="g4176"
     style="display:inline">
    <path
       style="fill:#253025;fill-opacity:1;fill-rule:evenodd;stroke:#253025;stroke-width:3.27122307;stroke-linecap:butt;stroke-linejoin:miter;stroke-miterlimit:4;stroke-dasharray:none;stroke-opacity:1"
       d="m 3616.1093,3315.0107 c 0.2637,11.6235 -4.2462,26.8962 -4.2462,26.8962 -6.6606,14.365 -6.5196,17.4303 -10.417,33.5032 -0.8505,3.4598 -0.961,9.8941 -0.3696,12.5069 0.3696,1.6313 4.7069,-2.5958 7.5707,-9.165 1.7163,-3.9366 2.4974,-5.3806 5.3293,-7.9336 2.5328,-2.2833 3.0711,6.7746 2.7533,17.3321 -0.1464,4.8571 -0.1245,25.8563 3.4875,22.8979 5.4047,-4.4271 7.8904,-33.6238 10.2842,-36.3494 1.8201,-2.0724 3.5693,9.6036 4.3739,14.6873 0.626,3.9554 2.7062,26.0809 8.7533,25.1092 5.4843,-0.8812 1.2861,-39.703 3.9126,-50.3882 2.8372,-6.5142 5.8529,2.9053 5.8529,2.9053 3.8137,5.7349 5.746,15.4442 10.9389,12.2123 4.7243,-2.9402 -0.019,-13.0187 -1.12,-17.9224 -0.5731,-2.5709 -2.9874,-9.5865 -2.8415,-9.4083 1.8969,2.3157 11.8941,10.3727 14.9482,5.531 0.9997,-4.781 -6.966,-12.0036 -9.2641,-15.5723 -5.2608,-8.6904 -9.1095,-24.1244 -8.5765,-35.3077 0.5409,-11.3494 -0.609,-22.2042 -1.3038,-35.361 -0.4513,-8.5469 -0.5795,-25.2465 -2.7983,-38.1458 -3.6016,-20.9387 -1.2318,-34.967 -8.9734,-43.94 -12.2799,-15.3964 -32.4197,-21.6836 -49.6437,-35.0582 -13.5861,-10.5499 -26.5702,-22.0759 -70.0545,-44.6655 -43.4842,-22.5896 -62.8579,-44.0162 -68.9132,-33.0162 -6.055,11.0002 -18.0192,22.2011 -16.512,30.3752 5.8696,31.831 48.4562,60.7238 76.6342,71.2742 20.0678,7.514 25.9097,14.066 43.6868,23.1943 19.3274,10.3324 33.8422,10.5221 37.3549,14.3539 1.8601,2.0289 4.9188,23.4699 7.9079,36.6752 4.5665,20.1749 8.3936,37.6079 11.2453,62.7794 z"
       id="path4178" />
  </g>
  <g
     style="display:inline"
     id="layer7">
    <path
       id="path4737"
       d="m 4011.1032,3047.8271 c 8.3679,50.2077 34.5311,90.1897 53.2294,155.9851 19.2948,67.8946 31.0612,164.851 79.7036,193.488 54.3275,31.9835 180.5172,20.8019 221.3158,7.2023 37.8322,-12.6109 117.2825,-35.3129 152.5139,-34.443 38.9859,0.9626 43.6518,1.9032 50.3469,8.5981 16.5493,16.5491 38.8733,39.7874 45.2608,69.3347 3.1938,14.7737 5.6981,27.0962 6.061,40.3968 0.3631,13.3007 -2.3405,24.1097 2.4663,30.5358 7.8623,10.5107 20.7201,16.1997 33.4761,21.6852 10.1462,4.363 31.8099,14.2603 40.5643,20.7989 11.9333,8.9124 29.606,34.0112 42.3847,46.7898 4.8998,4.8997 17.5965,22.7353 34.2907,32.9094 16.6942,10.1739 37.386,12.6862 46.2469,12.8471 5.6212,0.1018 -11.719,-9.6216 -20.9803,-19.8227 -9.2617,-10.2013 -14.1455,-14.6349 -14.1455,-21.9964 0,-7.877 -10.2401,-13.9457 2.0976,-10.1397 12.9095,3.9824 50.0103,2.0785 42.1761,-0.7164 -12.1537,-4.3359 -20.2838,-7.6593 -32.5146,-15.6445 -10.9094,-7.1225 -0.5372,-1.343 -11.4726,-13.5549 -11.2707,-12.5863 -38.8923,-37.1708 -49.9578,-49.0832 -9.1965,-9.9003 -33.9612,-39.9129 -46.064,-45.5324 -9.7223,-4.5142 -13.9222,-1.5108 -16.6299,-5.6648 0,0 -6.4606,-19.7123 -10.3984,-45.9016 -2.1562,-14.3412 -5.8745,-32.2497 -10.5751,-53.8247 -4.269,-19.5936 -11.27,-39.8637 -22.0908,-50.0679 -22.9678,-21.6592 -125.5356,-13.9765 -178.4764,-26.741 -57.0737,-13.7612 -79.5535,-29.4625 -98.5105,-35.0357 -21.6486,-6.3649 -49.242,-8.948 -52.2353,-11.9412 -3.1543,-3.1543 16.7542,-73.2917 20.065,-81.5693 7.9995,-19.9984 42.5411,-196.3759 33.9691,-213.5198 -11.8311,-23.6622 -51.745,-42.3207 -77.6436,-50.9535 -23.0595,-7.6866 -46.0313,-14.5582 -70.3644,-14.5582 -34.3471,0 -141.2305,-52.095 -196.7849,2.6819 -41.898,41.3114 -5.3133,109.5234 2.6759,157.4578 z"
       style="fill:#253025;fill-opacity:1;fill-rule:evenodd;stroke:#253025;stroke-width:3.27138543;stroke-linecap:butt;stroke-linejoin:miter;stroke-miterlimit:4;stroke-dasharray:none;stroke-opacity:1" />
  </g>
  <g
     style="display:inline;opacity:1"
     id="layer3">
    <path
       id="path4719"
       d="m 2977.5519,2963.2912 c -5.7588,-5.7587 -8.7944,-21.6074 -12.0488,-31.9848 -3.2546,-10.3772 -4.8091,-52.3108 -1.1133,-59.7028 2.787,-5.5739 6.8412,-19.1295 9.5514,-24.5501 6.8707,-13.7414 10.9478,-26.2676 15.7335,-40.6248 2.7732,-8.3199 8.2259,-21.6154 10.3752,-30.2126 2.5004,-10.0022 10.4031,-28.1924 13.4032,-37.9165 4.3062,-13.9574 14.1103,-35.2251 25.7152,-52.6323 18.1882,-24.3072 36.7373,-32.2216 62.8294,-37.3816 21.2176,-4.1961 51.4789,4.9111 68.8166,13.7493 16.2987,8.3189 36.6417,29.473 36.6417,29.473 5.1872,5.4063 5.854,7.4276 17.9332,5.2263 12.0792,-2.2013 19.5372,-12.8445 34.4635,-7.7475 16.9923,5.8028 21.0829,18.3932 22.0621,28.5408 1.2701,13.1618 0.6242,19.3916 -5.3326,25.0529 -5.9569,5.6614 -9.6682,8.4943 -11.3877,10.2136 -4.7851,4.7851 -9.2055,8.2033 -15.6362,19.409 -6.4307,11.2057 -9.8835,20.5122 -13.0178,28.3478 -9.563,23.9074 -8.8167,45.1218 -8.8167,70.5331 0,7.8721 -0.9218,28.1065 -6.245,33.4297 -13.4839,13.4839 -24.2076,18.6003 -41.1444,24.2457 -4.3634,1.4546 -18.791,9.9375 -35.8892,16.4708 -17.0983,6.5333 -20.9975,12.1511 -32.9327,18.0372 -11.9349,5.8861 -21.3927,10.3806 -37.6369,17.6319 -16.2243,7.2542 -36.961,19.8961 -50.0364,18.0259 -7.1311,-1.02 -24.6283,-8.2824 -28.654,-12.1229 -3.3463,-3.3462 12.8482,-14.8733 15.4289,-16.1638 8.8835,-4.4417 54.0828,-30.3292 49.5936,-39.3075 -4.9059,-9.8118 -14.5435,-13.0428 -23.8784,-6.093 -9.5317,7.0964 -19.7765,13.278 -28.5912,22.2239 -4.7669,4.8488 -26.8194,19.1963 -30.1862,15.8293 z"
       style="fill:#253025;fill-opacity:1;fill-rule:evenodd;stroke:#253025;stroke-width:3.27138543;stroke-linecap:butt;stroke-linejoin:miter;stroke-miterlimit:4;stroke-dasharray:none;stroke-opacity:1" />
  </g>
  <g
     style="display:inline"
     id="layer8">
    <path
       d="m 1773.8089,2105.0823 c 9.9883,-31.0237 16.866,-186.0887 10.7303,-240.9852 -2.9079,-25.7659 -4.8133,-83.8296 -4.1735,-129.0436 1.0004,-76.4652 0.3257,-84.3666 -11.1372,-115.6866 -12.7076,-34.756 -27.4357,-61.4831 -33.7167,-61.4831 -5.1329,0 -24.8917,71.3057 -24.8917,89.9626 0,8.4386 2.1811,23.406 4.8272,32.9753 9.0727,32.6495 16.7496,146.753 11.0932,163.7003 -4.2457,12.4661 -3.2708,22.1758 4.6235,48.0557 7.008,23.1369 11.1815,57.7788 14.4092,119.7999 5.147,97.6798 7.9677,117.0999 16.2401,114.2312 3.1556,-1.0854 8.5354,-10.7984 11.9956,-21.5265 m -244.7001,1736.0688 c -23.2634,-0.1696 -28.6,-23.3641 -28.5418,-28.4239 0.1167,-5.3564 2.9522,-33.379 8.7237,-54.5234 5.7728,-21.1729 12.3448,-38.422 12.4028,-59.7078 0.1168,-21.2578 -5.8308,-22.1906 -3.0823,-47.617 5.2191,-50.402 16.3919,-136.8187 -0.7496,-208.9021 -5.86,-24.5638 -23.6478,-129.9052 -29.8566,-150.5275 -12.6343,-41.5246 -15.426,-96.0965 -19.1923,-133.8345 -3.5035,-34.4441 -6.7312,-149.0857 3.5627,-189.509 5.7135,-22.3736 5.6124,-28.847 -0.5116,-43.6595 -3.8828,-9.6676 -10.3384,-30.1338 -14.307,-45.7807 -8.7679,-34.4304 -19.5854,-176.7453 -19.5854,-258.2852 0,-70.3591 -8.2003,-123.3052 -31.9578,-206.7096 -23.5831,-83.0231 -25.4734,-84.0421 -32.7139,-17.9083 -2.4566,23.6468 -6.8185,52.6781 -9.581,64.4658 -2.7777,11.9145 -5.0749,26.9248 -5.0749,33.5113 0,6.4881 -0.7095,74.1901 -1.7297,150.5421 -1.512,123.4884 -2.8938,143.3609 -12.8098,182.6818 l -2.4426,44.2394 4.0129,43.1235 c 21.3009,73.0016 28.5125,133.3258 22.449,186.837 -2.9951,25.456 -8.3166,60.1127 -12.0679,77.1301 -3.6488,16.9461 -8.0107,46.9249 -9.7123,66.6979 -1.7587,19.8306 -5.1028,46.2466 -7.5164,59.1084 -2.3997,12.792 -8.099,42.8408 -12.7076,66.6844 -7.3569,38.9965 -8.3059,119.5451 -4.9434,168.9729 3.8826,57.073 12.2426,91.2468 15.1948,136.6588 2.966,45.0876 0.072,50.8285 3.0518,75.1255 13.7646,92.7549 -7.4734,84.5916 -75.6638,87.8853 -66.2712,3.1661 -177.5708,6.5717 -220.3751,6.5717 -23.86,0 -46.00305,0 -85.63781,-1.6676 -22.92948,-0.95 -39.6208,-19.3072 -21.35914,-38.4165 18.98853,-19.9854 35.63694,-22.9521 53.09833,-31.9842 11.66072,-6.063 63.66692,-31.8799 69.97712,-35.5118 19.3957,-11.2936 75.1716,-29.1808 84.549,-48.7139 12.0969,-25.0173 10.8465,-97.7364 -3.1254,-174.9646 -13.2601,-73.9639 -22.2099,-147.8701 -30.8755,-191.5308 -11.4433,-57.0448 -24.7237,-147.3048 -25.4797,-151.0927 -4.4934,-22.4166 -9.6833,-128.0679 -1.6435,-184.4772 7.1104,-49.822 7.2266,-59.7304 1.0933,-77.624 -9.959,-29.5404 -27.7415,-122.8101 -27.7415,-145.9618 0,-10.8831 -3.2568,-29.5547 -7.1534,-41.7235 -23.0597,-71.7307 -26.6504,-100.3663 -32.9466,-268.5613 -2.6462,-70.4857 -6.8475,-144.478 -9.3925,-164.2792 -2.5438,-19.7311 -6.1497,-67.193 -8.06886,-105.355 -3.62091,-74.2884 1.40976,-109.3125 24.06236,-166.6266 7.357,-18.5157 11.2978,-44.1265 13.9579,-90.0473 7.0662,-122.0898 12.6785,-158.3013 34.197,-220.8448 23.1178,-67.2779 26.3026,-107.9693 12.4028,-161.7352 -12.4028,-48.0985 -22.0709,-108.1964 -26.8109,-166.1877 -2.3704,-29.2574 -6.7614,-55.7447 -9.7857,-58.8259 -3.9105,-4.057 -11.8492,1.2856 -28.9045,19.8013 -18.68278,20.2116 -33.01873,29.5829 -69.29549,44.6635 -25.15334,10.6005 -48.40145,19.2652 -51.6735,19.2652 -3.34402,0 -28.46841,9.54 -55.88989,21.1728 -47.76187,20.3529 -51.5572,21.0732 -89.59269,18.4025 -45.95886,-3.2373 -87.17892,-11.9009 -98.46168,-20.6222 -5.04461,-3.8727 -12.43074,-29.8646 -20.35525,-71.5181 -20.74739,-108.6624 -15.87721,-243.6141 15.20832,-422.09863 9.34949,-53.3701 16.91005,-103.13532 16.91005,-110.44328 0,-7.22189 -4.71486,-26.03345 -10.43945,-41.5823 -12.78474,-34.72531 -18.19375,-104.49229 -18.19375,-148.26593 0,-18.0769 -4.01167,-58.64168 -5.35053,-83.10055 -2.28414,-41.72766 -13.70478,-73.6148 7.66393,-77.50761 32.40959,-5.90416 19.75931,114.59341 43.65524,112.32907 14.83203,-1.40546 5.54899,-89.86834 8.72104,-130.60792 2.39381,-30.74448 0.33965,-57.96673 19.28746,-56.81923 21.13343,1.27986 20.41581,32.50723 20.77634,60.17709 0.50284,38.59175 -2.75093,96.42091 7.4367,96.56479 11.19205,0.15807 11.04261,-60.23855 17.54856,-104.30623 6.50594,-44.06768 4.55592,-82.7169 27.81271,-82.79551 27.39597,-0.0926 15.07056,42.76566 13.88578,65.73472 -2.2308,43.24816 -15.73782,124.45415 -2.78252,125.4485 7.71948,0.59249 11.6409,-21.53116 16.74907,-68.21545 5.10816,-46.68429 4.86708,-92.16684 26.86952,-91.07927 23.72918,1.17292 17.8583,37.79208 13.28978,102.31811 -4.07232,57.51772 -19.97643,146.22406 14.38394,148.22406 2.0471,0.11915 12.79963,-18.1471 25.20507,-27.63571 30.00386,-22.94922 75.68051,-46.10404 82.6966,-17.07048 2.66721,11.03728 -0.20055,12.32181 -24.06627,35.81903 -19.35979,19.06087 -32.87405,38.52294 -43.00785,61.75108 -8.18599,18.76346 -25.10597,45.29052 -37.55626,59.0949 -27.47518,30.46337 -38.58782,62.40121 -49.33196,140.66192 -13.71137,100.3368 -3.34414,218.51193 19.04669,218.31403 3.57672,0 16.09467,-8.0428 27.8427,-17.7104 11.83509,-9.7525 28.54165,-20.0138 37.22111,-23.0238 11.82128,-4.0141 20.64623,-13.979 35.59279,-39.9291 26.84006,-46.69883 81.90179,-88.54913 136.64249,-103.89873 20.5881,-5.7814 43.5465,-10.587 50.9908,-10.587 13.4636,0 32.4813,-9.1159 70.0944,-33.8086 10.9489,-7.0522 35.9278,-20.9601 55.7446,-30.7838 19.7157,-9.9075 39.0683,-23.0521 43.0812,-29.41246 3.9397,-6.2902 8.6366,-28.74865 10.4686,-49.93607 2.7183,-31.88631 1.4829,-43.75898 -7.0953,-68.78967 -5.6275,-16.72116 -13.4206,-34.0631 -17.2881,-38.62893 -8.0549,-9.30011 -32.8152,-71.95577 -32.9315,-83.07983 -0.1168,-6.27545 -10.672,-38.65597 -30.533,-93.66559 -4.1735,-11.42037 -3.0684,-21.25756 5.2191,-47.65992 5.7727,-18.27595 10.5417,-41.72372 10.5417,-52.26765 0.1168,-24.42355 14.4814,-49.00322 33.6293,-57.21452 8.8843,-3.77438 21.1115,-16.70651 30.126,-31.70331 15.776,-26.37411 30.2713,-35.51825 56.0063,-35.51825 8.4911,0 27.2041,-7.80198 43.0231,-17.83712 58.5651,-37.37033 113.3932,-32.38163 152.8244,14.34546 8.1131,9.62593 20.3704,18.86954 27.2039,20.62215 20.6461,5.28611 37.4539,22.7841 46.8754,48.38029 4.9574,13.42732 17.4033,40.21187 27.7415,59.81517 27.2762,51.64569 31.3473,71.19371 20.7333,100.25325 -4.7106,12.90371 -11.8933,28.98833 -15.9795,35.53293 -4.042,6.4734 -7.1092,19.17927 -6.7462,28.26802 0.8258,24.7481 -8.0399,47.87144 -22.0268,57.4543 -22.5944,15.27939 -51.4409,97.22853 -51.4409,146.17411 0,27.40642 22.3036,56.42298 74.5005,96.64844 23.0446,17.8372 50.9465,41.6671 62.0106,52.7482 20.2251,20.4242 28.5126,23.4489 93.5183,33.371 15.0199,2.3745 26.4769,10.0635 50.5102,34.0914 27.3925,27.22203 33.9796,37.72293 54.0871,87.10723 l 22.8713,56.2117 -1.3237,67.7437 c -0.7446,40.8339 0.6979,71.8722 3.8536,77.9351 13.2158,25.6391 18.77,84.3519 17.9557,190.0744 -0.756,100.5777 0.1168,111.4473 12.1549,161.6797 17.2881,71.8856 18.0733,179.163 1.803,246.5958 -5.7868,24.0279 -14.8012,63.2504 -19.9481,87.2352 -5.1902,23.9714 -12.0387,50.6281 -15.1502,59.0667 -8.2434,22.2471 -40.1292,188.3785 -44.7817,233.7338 -9.552,92.0555 -18.741,138.1177 -30.853,155.1917 -6.6009,9.2436 -16.7635,26.5583 -22.6084,38.5576 -5.8159,12.0004 -20.4868,34.2891 -32.5976,49.7099 -24.238,30.8969 -25.3279,33.2851 -32.4233,77.6094 -9.6834,59.1086 -24.8486,120.9591 -35.6659,145.0298 -8.782,19.886 -11.006,35.5047 -12.1982,83.4472 -0.7095,32.5784 -6.0484,48.2673 -9.175,71.8993 9.105,62.9803 -4.8957,95.9968 8.4655,155.4178 16.6764,70.3309 3.9774,186.6823 -3.2204,246.3426 -10.9476,91.7435 -17.0477,160.8304 -32.6492,278.8496 -5.219,39.5187 1.3528,70.6135 0.8259,93.8217 -0.57,21.1592 -0.8026,29.0177 -2.8928,41.2295 -3.1557,19.0097 -13.8569,41.3845 -1.1782,59.122 13.4635,18.8266 34.8421,43.4198 46.8366,62.1049 7.9386,12.3249 7.4152,34.0631 -10.5406,34.0631"
       style="display:inline;fill:#000000;fill-opacity:1;fill-rule:nonzero;stroke:none"
       id="path3054" />
    <rect
       y="3838.302"
       x="-318.72498"
       height="22.627417"
       width="7738.5767"
       id="rect4174"
       style="opacity:1;fill:#000000;fill-opacity:1;fill-rule:nonzero;stroke:none;stroke-width:5;stroke-miterlimit:4;stroke-dasharray:none;stroke-opacity:1" />
  </g>
  <g
     style="display:inline"
     id="layer10">
    <rect
       y="350.09311"
       x="3383.1711"
       height="453.09406"
       width="2672.5928"
       id="rect4198"
       style="opacity:1;fill:#ffffff;fill-opacity:1;fill-rule:nonzero;stroke:#000000;stroke-width:5.45433807;stroke-miterlimit:4;stroke-dasharray:none;stroke-opacity:1" />
    <g
       id="flowRoot4202"
       style="font-style:normal;font-variant:normal;font-weight:normal;font-stretch:normal;font-size:160px;line-height:125%;font-family:Arial;-inkscape-font-specification:Arial;letter-spacing:0px;word-spacing:0px;fill:#000000;fill-opacity:1;stroke:none;stroke-width:1px;stroke-linecap:butt;stroke-linejoin:miter;stroke-opacity:1"
       transform="translate(424,462)">
      <path
         id="path4221"
         style="font-size:250px"
         d="m 4229.8545,1250.7916 0,21.1181 -118.2861,0 q -0.2442,-7.9345 2.5634,-15.2588 4.5166,-12.0849 14.4043,-23.8037 10.0098,-11.7187 28.8086,-27.0996 29.1748,-23.9258 39.4287,-37.8418 10.2539,-14.0381 10.2539,-26.4892 0,-13.0616 -9.3994,-21.9727 -9.2773,-9.0332 -24.292,-9.0332 -15.8691,0 -25.3906,9.5215 -9.5215,9.5215 -9.6435,26.3672 l -22.5831,-2.3194 q 2.3194,-25.2685 17.4561,-38.4521 15.1367,-13.3057 40.6494,-13.3057 25.7569,0 40.7715,14.2823 15.0147,14.2822 15.0147,35.4004 0,10.7421 -4.3946,21.1181 -4.3945,10.376 -14.6484,21.8506 -10.1319,11.4746 -33.8135,31.4941 -19.7754,16.6016 -25.3906,22.583 -5.6153,5.8594 -9.2774,11.8409 l 87.7686,0 z" />
      <path
         id="path4223"
         style="font-size:250px"
         d="m 4328.9756,1271.9097 0,-129.6386 19.6533,0 0,18.1884 q 6.1035,-9.5214 16.2354,-15.2588 10.1318,-5.8593 23.0712,-5.8593 14.4043,0 23.5596,5.9814 9.2774,5.9815 13.0615,16.7237 15.3809,-22.7051 40.0391,-22.7051 19.2871,0 29.6631,10.7422 10.376,10.6201 10.376,32.8369 l 0,88.9892 -21.8506,0 0,-81.665 q 0,-13.1836 -2.1973,-18.9209 -2.0752,-5.8594 -7.6904,-9.3994 -5.6153,-3.5401 -13.1836,-3.5401 -13.6719,0 -22.7051,9.1553 -9.0332,9.0332 -9.0332,29.0528 l 0,75.3173 -21.9726,0 0,-84.2285 q 0,-14.6484 -5.3711,-21.9726 -5.3711,-7.3243 -17.5782,-7.3243 -9.2773,0 -17.2119,4.8829 -7.8125,4.8828 -11.3525,14.2822 -3.5401,9.3994 -3.5401,27.0996 l 0,67.2607 -21.9726,0 z" />
    </g>
    <path
       id="path4454"
       d="m 2839.7575,1837.8898 c 3695.3824,0 3719.0708,0 3719.0708,0"
       style="fill:none;fill-rule:evenodd;stroke:#000000;stroke-width:11.92183304;stroke-linecap:butt;stroke-linejoin:miter;stroke-miterlimit:4;stroke-dasharray:none;stroke-dashoffset:0;stroke-opacity:1;marker-start:url(#Arrow1Lstart);marker-end:url(#Arrow1Lend)" />
    <rect
       y="1821.8898"
       x="2940"
       height="32"
       width="3488"
       id="rect6776"
       style="opacity:1;fill:#000000;fill-opacity:1;fill-rule:nonzero;stroke:#000000;stroke-width:12;stroke-miterlimit:4;stroke-dasharray:none;stroke-dashoffset:0;stroke-opacity:1" />
    <g
       id="text4206"
       style="font-style:normal;font-variant:normal;font-weight:normal;font-stretch:normal;font-size:250px;line-height:125%;font-family:Arial;-inkscape-font-specification:Arial;letter-spacing:0px;word-spacing:0px;fill:#000000;fill-opacity:1;stroke:none;stroke-width:1px;stroke-linecap:butt;stroke-linejoin:miter;stroke-opacity:1">
      <path
         id="path4247"
         style="font-style:italic;font-variant:normal;font-weight:normal;font-stretch:normal;font-family:Arial;-inkscape-font-specification:'Arial Italic'"
         d="m 3616.5334,588.66107 23.4375,-2.19726 -0.2441,6.22558 q 0,10.37598 4.7607,19.04297 4.7608,8.54492 15.7471,13.30566 10.9863,4.63868 26.1231,4.63868 21.4843,0 32.7148,-9.39942 11.3525,-9.39941 11.3525,-21.48437 0,-8.42285 -5.9814,-15.38086 -6.1035,-6.83594 -33.3252,-18.55469 -21.1182,-9.15527 -28.8086,-14.03809 -12.0849,-7.93457 -17.8223,-17.21191 -5.7373,-9.39941 -5.7373,-21.3623 0,-13.79395 7.5684,-24.90235 7.5684,-11.1084 22.0947,-16.96777 14.6485,-5.85938 32.959,-5.85938 21.8506,0 36.8652,7.32422 15.0147,7.32422 21.7286,19.53125 6.8359,12.20703 6.8359,23.31543 0,1.09864 -0.1221,3.66211 l -23.0713,1.83106 q 0,-7.56836 -1.3427,-11.84082 -2.4414,-7.44629 -7.5684,-12.57325 -5.1269,-5.12695 -14.1601,-8.17871 -8.9112,-3.17383 -20.0196,-3.17383 -19.5312,0 -30.3955,8.78907 -8.3008,6.71386 -8.3008,17.82226 0,6.5918 3.418,11.84082 3.418,5.12696 12.3291,10.13184 6.3477,3.54004 30.1514,14.03809 19.2871,8.54492 26.6113,13.42773 9.7656,6.46973 15.0146,15.74707 5.2491,9.15527 5.2491,20.87402 0,14.52637 -8.9112,26.85547 -8.789,12.20703 -24.414,18.9209 -15.625,6.71387 -35.7666,6.71387 -30.3955,0 -49.6826,-13.1836 -19.1651,-13.30566 -19.2872,-47.72949 z" />
      <path
         id="path4249"
         style="font-style:italic;font-variant:normal;font-weight:normal;font-stretch:normal;font-family:Arial;-inkscape-font-specification:'Arial Italic'"
         d="m 3825.884,628.57806 -3.6621,18.06641 q -7.9345,2.0752 -15.3808,2.0752 -13.1836,0 -20.9961,-6.46973 -5.8594,-4.88281 -5.8594,-13.30567 0,-4.27246 3.1738,-19.65332 l 15.7471,-75.31738 -17.4561,0 3.5401,-17.08984 17.456,0 6.7139,-31.86035 25.2686,-15.25879 -9.8877,47.11914 21.7285,0 -3.6621,17.08984 -21.6065,0 -15.0146,71.65528 q -2.8076,13.67187 -2.8076,16.35742 0,3.90625 2.1972,5.98144 2.3194,2.0752 7.4463,2.0752 7.3242,0 13.0615,-1.46485 z" />
      <path
         id="path4251"
         style="font-style:italic;font-variant:normal;font-weight:normal;font-stretch:normal;font-family:Arial;-inkscape-font-specification:'Arial Italic'"
         d="m 3938.7991,602.45502 21.4843,2.19726 q -4.6386,15.99121 -21.3623,30.39551 -16.6015,14.4043 -39.6728,14.4043 -14.4043,0 -26.4893,-6.5918 -11.9629,-6.71387 -18.3105,-19.40918 -6.2256,-12.69531 -6.2256,-28.93066 0,-21.24024 9.7656,-41.1377 9.8877,-20.01953 25.5127,-29.66308 15.625,-9.76563 33.8135,-9.76563 23.1934,0 36.9873,14.4043 13.916,14.40429 13.916,39.30664 0,9.52148 -1.709,19.53125 l -95.459,0 q -0.4882,3.78418 -0.4882,6.83594 0,18.18847 8.3007,27.83203 8.4229,9.52148 20.5079,9.52148 11.3525,0 22.3388,-7.44629 10.9864,-7.44629 17.0899,-21.48437 z m -64.209,-32.1045 72.7539,0 q 0.1221,-3.41796 0.1221,-4.88281 0,-16.60156 -8.3008,-25.39062 -8.3008,-8.91114 -21.3623,-8.91114 -14.1602,0 -25.8789,9.76563 -11.5967,9.76562 -17.334,29.41894 z" />
      <path
         id="path4253"
         style="font-style:italic;font-variant:normal;font-weight:normal;font-stretch:normal;font-family:Arial;-inkscape-font-specification:'Arial Italic'"
         d="m 3981.5237,658.24115 22.3388,2.0752 q -0.2441,7.56835 1.8311,11.35253 2.0752,3.78418 6.5918,5.85938 5.9814,2.68555 15.5029,2.68555 20.0196,0 28.8086,-10.37598 5.7373,-6.95801 10.6201,-30.27344 l 2.1973,-10.49804 q -17.2119,17.45605 -36.6211,17.45605 -19.6533,0 -32.959,-14.4043 -13.1836,-14.52636 -13.1836,-41.01562 0,-21.85059 10.376,-40.16113 10.4981,-18.31055 24.9024,-27.5879 14.4043,-9.39941 29.663,-9.39941 25.5127,0 39.3067,24.16992 l 4.3945,-21.24023 20.2637,0 -26.1231,125.12207 q -4.2724,20.62988 -11.2304,32.10449 -6.958,11.59668 -19.4092,17.94434 -12.3291,6.34765 -28.5645,6.34765 -15.625,0 -26.9775,-4.02832 -11.2305,-4.02832 -16.8457,-11.84082 -5.4932,-7.69043 -5.4932,-17.70019 0,-3.05176 0.6104,-6.5918 z m 27.5879,-69.0918 q 0,13.30567 2.5634,20.01953 3.6622,9.39942 10.376,14.4043 6.836,4.88281 15.1367,4.88281 10.8643,0 21.6065,-7.56836 10.7422,-7.69043 17.334,-23.68164 6.7138,-15.99121 6.7138,-30.51757 0,-15.99122 -8.9111,-25.39063 -8.7891,-9.52148 -21.8506,-9.52148 -8.0566,0 -15.625,4.39453 -7.5683,4.27246 -14.1601,13.18359 -6.4698,8.78906 -9.8877,21.11817 -3.2959,12.3291 -3.2959,18.67675 z" />
      <path
         id="path4255"
         style="font-style:italic;font-variant:normal;font-weight:normal;font-stretch:normal;font-family:Arial;-inkscape-font-specification:'Arial Italic'"
         d="m 4125.8108,597.32806 q 0,-37.96386 22.3389,-62.86621 18.4326,-20.50781 48.3398,-20.50781 23.4375,0 37.7197,14.64844 14.4043,14.64844 14.4043,39.55078 0,22.33887 -9.0332,41.62598 -9.0332,19.16503 -25.7568,29.41894 -16.6016,10.25391 -35.0342,10.25391 -15.1367,0 -27.5879,-6.46973 -12.3291,-6.46973 -18.9209,-18.31055 -6.4697,-11.84082 -6.4697,-27.34375 z m 22.0947,-2.19726 q 0,18.31055 8.7891,27.83203 8.789,9.39941 22.3388,9.39941 7.0801,0 14.0381,-2.80761 6.958,-2.92969 12.9395,-8.78907 5.9814,-5.85937 10.1318,-13.30566 4.2725,-7.56836 6.836,-16.23535 3.7841,-12.08496 3.7841,-23.19336 0,-17.57813 -8.9111,-27.22168 -8.7891,-9.76563 -22.2168,-9.76563 -10.376,0 -18.9209,5.00489 -8.5449,4.88281 -15.5029,14.40429 -6.836,9.52149 -10.1319,22.2168 -3.1738,12.57324 -3.1738,22.46094 z" />
      <path
         id="path4257"
         style="font-style:italic;font-variant:normal;font-weight:normal;font-stretch:normal;font-family:Arial;-inkscape-font-specification:'Arial Italic'"
         d="m 4350.5422,599.28119 22.0948,2.31933 q -8.3008,24.292 -23.6817,36.13282 -15.2588,11.71875 -34.79,11.71875 -21.1182,0 -34.3018,-13.67188 -13.0615,-13.67187 -13.0615,-38.20801 0,-21.24023 8.4229,-41.74804 8.4228,-20.50781 24.0478,-31.12793 15.7471,-10.74219 35.8887,-10.74219 20.874,0 33.081,11.84082 12.2071,11.71875 12.2071,31.12793 l -21.7286,1.46484 q -0.122,-12.3291 -7.2021,-19.28711 -6.958,-6.958 -18.4326,-6.958 -13.3057,0 -23.0713,8.42285 -9.7656,8.42285 -15.3809,25.63476 -5.4931,17.08985 -5.4931,32.95899 0,16.60156 7.3242,24.90234 7.3242,8.30078 18.0664,8.30078 10.7422,0 20.5078,-8.17871 9.8877,-8.17871 15.5029,-24.90234 z" />
      <path
         id="path4259"
         style="font-style:italic;font-variant:normal;font-weight:normal;font-stretch:normal;font-family:Arial;-inkscape-font-specification:'Arial Italic'"
         d="m 4481.2795,602.45502 21.4844,2.19726 q -4.6387,15.99121 -21.3623,30.39551 -16.6016,14.4043 -39.6728,14.4043 -14.4043,0 -26.4893,-6.5918 -11.9629,-6.71387 -18.3105,-19.40918 -6.2256,-12.69531 -6.2256,-28.93066 0,-21.24024 9.7656,-41.1377 9.8877,-20.01953 25.5127,-29.66308 15.625,-9.76563 33.8135,-9.76563 23.1933,0 36.9873,14.4043 13.916,14.40429 13.916,39.30664 0,9.52148 -1.709,19.53125 l -95.459,0 q -0.4883,3.78418 -0.4883,6.83594 0,18.18847 8.3008,27.83203 8.4229,9.52148 20.5078,9.52148 11.3526,0 22.3389,-7.44629 10.9863,-7.44629 17.0898,-21.48437 z m -64.2089,-32.1045 72.7539,0 q 0.122,-3.41796 0.122,-4.88281 0,-16.60156 -8.3007,-25.39062 -8.3008,-8.91114 -21.3624,-8.91114 -14.1601,0 -25.8789,9.76563 -11.5966,9.76562 -17.3339,29.41894 z" />
      <path
         id="path4261"
         style="font-style:italic;font-variant:normal;font-weight:normal;font-stretch:normal;font-family:Arial;-inkscape-font-specification:'Arial Italic'"
         d="m 4525.2249,646.5224 27.0996,-129.63867 19.5312,0 -5.4932,26.48926 q 10.0098,-15.01465 19.5313,-22.2168 9.6436,-7.20215 19.6533,-7.20215 6.5918,0 16.2354,4.76074 l -9.0332,20.50782 q -5.7373,-4.1504 -12.5733,-4.1504 -11.5967,0 -23.8037,12.93946 -12.207,12.93945 -19.165,46.50879 l -10.9864,52.00195 -20.996,0 z" />
      <path
         id="path4263"
         style="font-style:italic;font-variant:normal;font-weight:normal;font-stretch:normal;font-family:Arial;-inkscape-font-specification:'Arial Italic'"
         d="m 4696.1233,630.40912 q -11.4746,9.88769 -22.0947,14.52637 -10.6202,4.5166 -22.7051,4.5166 -17.9443,0 -28.9307,-10.49805 -10.9863,-10.62012 -10.9863,-27.09961 0,-10.86426 4.8828,-19.16504 5.0049,-8.42285 13.1836,-13.42773 8.1787,-5.12696 20.0195,-7.32422 7.4463,-1.46484 28.1983,-2.31934 20.874,-0.85449 29.9072,-4.39453 2.5635,-9.0332 2.5635,-15.01465 0,-7.69043 -5.6153,-12.08496 -7.6904,-6.10351 -22.4609,-6.10351 -13.916,0 -22.8271,6.22558 -8.7891,6.10352 -12.8174,17.45606 l -22.3389,-1.95313 q 6.8359,-19.28711 21.6065,-29.54101 14.8925,-10.25391 37.4755,-10.25391 24.0479,0 38.086,11.47461 10.7422,8.54492 10.7422,22.2168 0,10.37597 -3.0518,24.04785 l -7.2021,32.22656 q -3.418,15.38086 -3.418,25.02441 0,6.10352 2.6855,17.57813 l -22.3388,0 q -1.8311,-6.34766 -2.5635,-16.11328 z m 8.1787,-49.56055 q -4.6387,1.83106 -10.0098,2.80762 -5.249,0.97656 -17.7002,2.07519 -19.2871,1.70899 -27.2216,4.39454 -7.9346,2.56347 -11.9629,8.30078 -4.0283,5.7373 -4.0283,12.69531 0,9.27734 6.3476,15.25879 6.4697,5.98144 18.3106,5.98144 10.9863,0 21.1181,-5.7373 10.1319,-5.85938 15.9912,-16.23535 5.8594,-10.37598 9.1553,-29.54102 z" />
      <path
         id="path4265"
         style="font-style:italic;font-variant:normal;font-weight:normal;font-stretch:normal;font-family:Arial;-inkscape-font-specification:'Arial Italic'"
         d="m 4749.9563,602.21088 22.0947,-1.34278 q 0,9.52149 2.9297,16.23535 2.9297,6.71387 10.7422,10.98633 7.9346,4.27246 18.4326,4.27246 14.6485,0 21.9727,-5.85937 7.3242,-5.85938 7.3242,-13.79395 0,-5.7373 -4.3945,-10.86425 -4.5166,-5.12696 -22.0948,-12.57325 -17.456,-7.56836 -22.3388,-10.62011 -8.1787,-5.00489 -12.3291,-11.71875 -4.1504,-6.83594 -4.1504,-15.625 0,-15.38086 12.207,-26.36719 12.207,-10.98633 34.1797,-10.98633 24.4141,0 37.1094,11.35254 12.8174,11.23047 13.3056,29.66309 l -21.6064,1.46484 q -0.4883,-11.71875 -8.3008,-18.55469 -7.8125,-6.83594 -22.0947,-6.83594 -11.4746,0 -17.8223,5.24903 -6.3476,5.24902 -6.3476,11.35254 0,6.10351 5.4931,10.74218 3.6621,3.17383 18.9209,9.76563 25.3906,10.98633 31.9824,17.33398 10.4981,10.13184 10.4981,24.65821 0,9.64355 -5.9815,18.9209 -5.8593,9.27734 -18.0664,14.89257 -12.0849,5.49317 -28.5644,5.49317 -22.461,0 -38.208,-11.1084 -15.7471,-11.1084 -14.8926,-36.13281 z" />
      <path
         id="path4267"
         style="font-style:italic;font-variant:normal;font-weight:normal;font-stretch:normal;font-family:Arial;-inkscape-font-specification:'Arial Italic'"
         d="m 4974.9319,646.5224 -21.2402,-129.63867 21.4843,0 11.1084,71.41113 q 1.8311,11.71875 4.5166,38.20801 6.3477,-13.79395 16.2354,-31.61621 l 43.3349,-78.00293 23.3155,0 -74.2188,129.63867 -24.5361,0 z" />
      <path
         id="path4269"
         style="font-style:italic;font-variant:normal;font-weight:normal;font-stretch:normal;font-family:Arial;-inkscape-font-specification:'Arial Italic'"
         d="m 5154.6194,630.40912 q -11.4746,9.88769 -22.0947,14.52637 -10.6202,4.5166 -22.7051,4.5166 -17.9444,0 -28.9307,-10.49805 -10.9863,-10.62012 -10.9863,-27.09961 0,-10.86426 4.8828,-19.16504 5.0049,-8.42285 13.1836,-13.42773 8.1787,-5.12696 20.0195,-7.32422 7.4463,-1.46484 28.1983,-2.31934 20.874,-0.85449 29.9072,-4.39453 2.5635,-9.0332 2.5635,-15.01465 0,-7.69043 -5.6153,-12.08496 -7.6904,-6.10351 -22.4609,-6.10351 -13.916,0 -22.8271,6.22558 -8.7891,6.10352 -12.8174,17.45606 l -22.3389,-1.95313 q 6.8359,-19.28711 21.6064,-29.54101 14.8926,-10.25391 37.4756,-10.25391 24.0479,0 38.086,11.47461 10.7422,8.54492 10.7422,22.2168 0,10.37597 -3.0518,24.04785 l -7.2021,32.22656 q -3.418,15.38086 -3.418,25.02441 0,6.10352 2.6855,17.57813 l -22.3388,0 q -1.8311,-6.34766 -2.5635,-16.11328 z m 8.1787,-49.56055 q -4.6387,1.83106 -10.0098,2.80762 -5.249,0.97656 -17.7002,2.07519 -19.2871,1.70899 -27.2216,4.39454 -7.9346,2.56347 -11.9629,8.30078 -4.0284,5.7373 -4.0284,12.69531 0,9.27734 6.3477,15.25879 6.4697,5.98144 18.3105,5.98144 10.9864,0 21.1182,-5.7373 10.1318,-5.85938 15.9912,-16.23535 5.8594,-10.37598 9.1553,-29.54102 z" />
      <path
         id="path4271"
         style="font-style:italic;font-variant:normal;font-weight:normal;font-stretch:normal;font-family:Arial;-inkscape-font-specification:'Arial Italic'"
         d="m 5204.6682,646.5224 37.3535,-178.95508 22.0948,0 -37.3536,178.95508 -22.0947,0 z" />
      <path
         id="path4273"
         style="font-style:italic;font-variant:normal;font-weight:normal;font-stretch:normal;font-family:Arial;-inkscape-font-specification:'Arial Italic'"
         d="m 5293.4133,492.59174 5.2491,-25.02442 21.9726,0 -5.249,25.02442 -21.9727,0 z m -32.2265,153.93066 27.0996,-129.63867 22.0947,0 -27.0996,129.63867 -22.0947,0 z" />
      <path
         id="path4275"
         style="font-style:italic;font-variant:normal;font-weight:normal;font-stretch:normal;font-family:Arial;-inkscape-font-specification:'Arial Italic'"
         d="m 5405.1077,627.72357 q -18.9209,21.72852 -39.5508,21.72852 -18.4326,0 -30.7617,-13.54981 -12.2071,-13.67187 -12.2071,-39.55078 0,-23.68164 9.6436,-43.21289 9.7656,-19.65332 24.292,-29.41894 14.6484,-9.76563 29.2969,-9.76563 24.1699,0 36.499,23.31543 l 14.6484,-69.70215 21.9727,0 -37.3535,178.95508 -20.3858,0 3.9063,-18.79883 z m -60.5469,-35.52246 q 0,13.54981 2.6855,21.36231 2.6856,7.8125 9.1553,13.06152 6.4697,5.12695 15.5029,5.12695 15.0147,0 27.2217,-15.625 16.3574,-20.75195 16.3574,-51.26953 0,-15.38086 -8.0566,-24.04785 -8.0566,-8.66699 -20.2637,-8.66699 -7.9345,0 -14.5263,3.54004 -6.4698,3.54004 -12.9395,12.08496 -6.3476,8.42285 -10.7422,21.48437 -4.3945,13.06153 -4.3945,22.94922 z" />
      <path
         id="path4277"
         style="font-style:italic;font-variant:normal;font-weight:normal;font-stretch:normal;font-family:Arial;-inkscape-font-specification:'Arial Italic'"
         d="m 5545.3665,623.0849 q -23.3155,26.36719 -47.7295,26.36719 -15.0147,0 -24.292,-8.54492 -9.1553,-8.667 -9.1553,-21.11817 0,-8.17871 4.1504,-28.07617 l 15.625,-74.8291 22.0947,0 -17.334,82.88574 q -2.1972,10.37598 -2.1972,16.11328 0,7.32422 4.3945,11.47461 4.5166,4.02832 13.1836,4.02832 9.2773,0 18.0664,-4.5166 8.9111,-4.5166 15.2588,-12.20703 6.4697,-7.69043 10.498,-18.18848 2.6856,-6.71387 6.2256,-23.55957 l 11.7188,-56.03027 22.0947,0 -27.0996,129.63867 -20.3858,0 4.8829,-23.4375 z" />
      <path
         id="path4279"
         style="font-style:italic;font-variant:normal;font-weight:normal;font-stretch:normal;font-family:Arial;-inkscape-font-specification:'Arial Italic'"
         d="m 5595.9036,646.5224 27.0996,-129.63867 22.0947,0 -4.5166,21.3623 q 12.3291,-13.79394 21.9727,-19.04297 9.7656,-5.24902 21.1181,-5.24902 12.085,0 20.1416,6.46973 8.1787,6.34765 10.7422,17.82226 9.8877,-12.20703 20.752,-18.18847 10.9863,-6.10352 23.0713,-6.10352 16.2353,0 24.2919,7.69043 8.1788,7.69043 8.1788,21.60645 0,5.98144 -2.8077,19.77539 l -17.456,83.49609 -22.0947,0 17.8222,-85.69336 q 2.3194,-10.49805 2.3194,-15.01465 0,-6.34765 -4.0284,-10.00976 -4.0283,-3.66211 -11.3525,-3.66211 -9.8877,0 -20.1416,5.98144 -10.2539,5.98145 -15.9912,15.74707 -5.6152,9.64356 -9.8877,29.78516 l -13.1836,62.86621 -22.0947,0 18.3105,-87.52441 q 1.9531,-8.91114 1.9531,-12.69532 0,-6.34765 -4.0283,-10.2539 -3.9062,-3.90625 -10.2539,-3.90625 -9.3994,0 -19.7754,5.98144 -10.2539,5.98145 -16.7236,16.72364 -6.4697,10.62011 -10.6201,30.3955 l -12.8174,61.2793 -22.0947,0 z" />
    </g>
  </g>
</svg>
