<?xml version="1.0" encoding="UTF-8" standalone="no"?>
<svg
   xmlns:dc="http://purl.org/dc/elements/1.1/"
   xmlns:cc="http://creativecommons.org/ns#"
   xmlns:rdf="http://www.w3.org/1999/02/22-rdf-syntax-ns#"
   xmlns:svg="http://www.w3.org/2000/svg"
   xmlns="http://www.w3.org/2000/svg"
   xmlns:sodipodi="http://sodipodi.sourceforge.net/DTD/sodipodi-0.dtd"
   xmlns:inkscape="http://www.inkscape.org/namespaces/inkscape"
   width="6760.5464"
   stroke-miterlimit="10"
   font-weight="normal"
   height="3707.9839"
   font-style="normal"
   font-size="12"
   id="svg2"
   version="1.1"
   inkscape:version="0.91 r13725"
   sodipodi:docname="(+) Stephacidin A.svg"
   style="font-style:normal;font-weight:normal;font-size:12px;font-family:Dialog;color-interpolation:auto;fill:#000000;fill-opacity:1;stroke:#000000;stroke-width:1;stroke-linecap:square;stroke-linejoin:miter;stroke-miterlimit:10;stroke-dasharray:none;stroke-dashoffset:0;stroke-opacity:1;color-rendering:auto;image-rendering:auto;shape-rendering:auto;text-rendering:auto">
  <metadata
     id="metadata253">
    <rdf:RDF>
      <cc:Work
         rdf:about="">
        <dc:format>image/svg+xml</dc:format>
        <dc:type
           rdf:resource="http://purl.org/dc/dcmitype/StillImage" />
        <dc:title></dc:title>
      </cc:Work>
    </rdf:RDF>
  </metadata>
  <sodipodi:namedview
     pagecolor="#ffffff"
     bordercolor="#666666"
     borderopacity="1"
     objecttolerance="10"
     gridtolerance="10"
     guidetolerance="10"
     inkscape:pageopacity="0"
     inkscape:pageshadow="2"
     inkscape:window-width="1920"
     inkscape:window-height="1016"
     id="namedview251"
     showgrid="false"
     inkscape:showpageshadow="false"
     showborder="false"
     fit-margin-top="0"
     fit-margin-left="0"
     fit-margin-right="0"
     fit-margin-bottom="0"
     inkscape:zoom="0.14285714"
     inkscape:cx="4021.1922"
     inkscape:cy="1515.3785"
     inkscape:window-x="-8"
     inkscape:window-y="-8"
     inkscape:window-maximized="1"
     inkscape:current-layer="svg2" />
  <!--Generated by Marvin with Batik SVG Generator
MolSource:
<?xml version="1.0" encoding="windows-1252"?><cml xmlns="http://www.chemaxon.com" xmlns:xsi="http://www.w3.org/2001/XMLSchema-instance" xsi:schemaLocation="http://www.chemaxon.com/marvin/schema/mrvSchema_14_12_01.xsd" version="ChemAxon file format v14.12.01, generated by v15.8.31.0">
<MDocument atomSetRGB="0:N" bondSetRGB="0:N,2:N" bondSetLineThickness="2:0.17857142857142858"><propertyList><property dictRef="scale" title="scale"><scalar dataType="xsd:double">18.0</scalar></property></propertyList><MChemicalStruct><molecule molID="m1"><atomArray atomID="a1 a2 a3 a4 a5 a6 a7 a8 a9 a10 a11 a12 a13 a14 a15 a16 a17 a18 a19 a20 a21 a22 a23 a24 a25 a26 a27 a28 a29 a30 a31 a32 a33 a34" elementType="H H O N C C C C C O C C C C C C C C C C C C N C O C C N C C C C C C" x2="-116.31358646370695 -115.7714881958406 -116.92297051647392 -115.79509097772969 -116.84442830793871 -115.51652321320132 -104.64602084223728 -104.91237531233878 -106.16765357587354 -106.48463212121393 -108.77789758848648 -107.31428630950982 -114.15592923994119 -114.56795255249212 -113.03604983001533 -112.40668374123017 -113.30922037492181 -109.72883322450765 -110.55848741280353 -109.09487613382687 -107.94824340019059 -108.26522194553101 -111.8938016811649 -110.87546595814392 -115.1142936423051 -119.75312487077885 -119.43614632543846 -117.27556245356708 -118.41781060241748 -117.90492854235221 -117.00239190866058 -115.47048918618376 -114.84112309739862 -115.61865973109023" y2="64.0053691007563 61.83363579617789 62.114766957209454 61.01870181385952 61.030027369589924 65.02694142144433 65.09455617041877 66.51824823830955 65.62258018480452 64.11555510147184 66.17160313024335 66.65060419919028 65.48370134645631 64.0775593492498 63.919844261613356 62.51432004400368 61.266510914030455 61.650527880245306 64.18557697796375 64.66457804691066 63.636554032524906 62.12952894919223 64.95273785073462 62.67855189463107 58.77089265408398 60.0683992429797 61.57542432631239 60.16746529514694 59.301238370208836 61.73965617693976 62.987465306912995 62.82975021927656 61.424226001666874 60.134750207510514"></atomArray><bondArray><bond id="b1" atomRefs2="a32 a1" order="1"><bondStereo>H</bondStereo></bond><bond id="b2" atomRefs2="a4 a2" order="1"></bond><bond id="b3" atomRefs2="a5 a3" order="2"></bond><bond id="b4" atomRefs2="a5 a4" order="1"></bond><bond id="b5" atomRefs2="a33 a4" order="1"></bond><bond id="b6" atomRefs2="a30 a5" order="1"></bond><bond id="b7" atomRefs2="a14 a6" order="1"></bond><bond id="b8" atomRefs2="a9 a7" order="1"></bond><bond id="b9" atomRefs2="a9 a8" order="1"></bond><bond id="b10" atomRefs2="a21 a10" order="1"></bond><bond id="b11" atomRefs2="a11 a20" order="1"></bond><bond id="b12" atomRefs2="a12 a9" order="1"></bond><bond id="b13" atomRefs2="a10 a9" order="1"></bond><bond id="b14" atomRefs2="a12 a11" order="2"></bond><bond id="b15" atomRefs2="a14 a13" order="1"></bond><bond id="b16" atomRefs2="a15 a16" order="2"></bond><bond id="b17" atomRefs2="a23 a15" order="1"></bond><bond id="b18" atomRefs2="a24 a16" order="1"></bond><bond id="b19" atomRefs2="a17 a33" order="1"></bond><bond id="b20" atomRefs2="a14 a32" order="1" mrvSetSeq="2"></bond><bond id="b21" atomRefs2="a15 a14" order="1"></bond><bond id="b22" atomRefs2="a17 a16" order="1"></bond><bond id="b23" atomRefs2="a19 a23" order="1"></bond><bond id="b24" atomRefs2="a24 a18" order="1"></bond><bond id="b25" atomRefs2="a19 a24" order="2"></bond><bond id="b26" atomRefs2="a22 a18" order="2"></bond><bond id="b27" atomRefs2="a20 a19" order="1"></bond><bond id="b28" atomRefs2="a21 a20" order="2"></bond><bond id="b29" atomRefs2="a22 a21" order="1"></bond><bond id="b30" atomRefs2="a34 a25" order="2"></bond><bond id="b31" atomRefs2="a34 a28" order="1" mrvSetSeq="2"></bond><bond id="b32" atomRefs2="a30 a27" order="1"></bond><bond id="b33" atomRefs2="a30 a28" order="1"><bondStereo>W</bondStereo></bond><bond id="b34" atomRefs2="a27 a26" order="1"></bond><bond id="b35" atomRefs2="a29 a26" order="1" mrvSetSeq="2"></bond><bond id="b36" atomRefs2="a29 a28" order="1" mrvSetSeq="2"></bond><bond id="b37" atomRefs2="a31 a30" order="1"></bond><bond id="b38" atomRefs2="a32 a31" order="1"></bond><bond id="b39" atomRefs2="a33 a32" order="1"></bond><bond id="b40" atomRefs2="a34 a33" order="1"></bond></bondArray></molecule></MChemicalStruct><MTextBox id="o2" color="#ffffff" toption="NOROT" fontScale="10.0" halign="LEFT" valign="TOP" autoSize="false"><Field name="text">.</Field><MPoint x="-120.65416412353525" y="58.57083587646483"></MPoint><MPoint x="-120.35374237060556" y="58.57083587646482"></MPoint><MPoint x="-120.35374237060556" y="57.99874999999998"></MPoint><MPoint x="-120.65416412353527" y="57.99874999999998"></MPoint></MTextBox><MTextBox id="o3" color="#ffffff" toption="NOROT" fontScale="10.0" halign="LEFT" valign="TOP" autoSize="false"><Field name="text">.</Field><MPoint x="-104.11457824707031" y="67.69791793823245"></MPoint><MPoint x="-103.84541412353516" y="67.69791793823245"></MPoint><MPoint x="-103.84541412353516" y="66.92791793823245"></MPoint><MPoint x="-104.11457824707033" y="66.92791793823245"></MPoint></MTextBox></MDocument>
</cml>
-->
  <defs
     id="genericDefs" />
  <g
     id="g5"
     transform="matrix(4,0,0,4,-667.45425,-696.01456)"
     style="stroke-width:0.25">
    <defs
       id="1558924740208-defs1">
      <clipPath
         clipPathUnits="userSpaceOnUse"
         id="1558924740917-clipPath1">
        <path
           d="m -561.96741,-435.75647 2016.00001,0 0,1220 -2016.00001,0 0,-1220 z"
           id="path9"
           inkscape:connector-curvature="0" />
      </clipPath>
      <clipPath
         clipPathUnits="userSpaceOnUse"
         id="1558924740195-clipPath1">
        <path
           d="m -616.66455,-654.8819 2015.99995,0 0,1220 -2015.99995,0 0,-1220 z"
           id="path12"
           inkscape:connector-curvature="0" />
      </clipPath>
      <clipPath
         clipPathUnits="userSpaceOnUse"
         id="1558924740798-clipPath1">
        <path
           d="m -497.98126,-626.51611 2016.00006,0 0,1220 -2016.00006,0 0,-1220 z"
           id="path15"
           inkscape:connector-curvature="0" />
      </clipPath>
      <clipPath
         clipPathUnits="userSpaceOnUse"
         id="1558924740557-clipPath1">
        <path
           d="m -614.28302,-737.10785 2015.99992,0 0,1220.00003 -2015.99992,0 0,-1220.00003 z"
           id="path18"
           inkscape:connector-curvature="0" />
      </clipPath>
      <clipPath
         clipPathUnits="userSpaceOnUse"
         id="1558924740448-clipPath1">
        <path
           d="m -1551.1979,-424.63882 2016.00005,0 0,1220.00003 -2016.00005,0 0,-1220.00003 z"
           id="path21"
           inkscape:connector-curvature="0" />
      </clipPath>
      <clipPath
         clipPathUnits="userSpaceOnUse"
         id="1558924740830-clipPath1">
        <path
           d="m -1007.7947,-240.27814 2016,0 0,1220 -2016,0 0,-1220 z"
           id="path24"
           inkscape:connector-curvature="0" />
      </clipPath>
      <clipPath
         clipPathUnits="userSpaceOnUse"
         id="1558924740294-clipPath1">
        <path
           d="m -1007.9188,-340.16803 2016,0 0,1220 -2016,0 0,-1220 z"
           id="path27"
           inkscape:connector-curvature="0" />
      </clipPath>
      <clipPath
         clipPathUnits="userSpaceOnUse"
         id="1558924740531-clipPath1">
        <path
           d="m -680.47473,-963.90924 2016.00003,0 0,1220 -2016.00003,0 0,-1220 z"
           id="path30"
           inkscape:connector-curvature="0" />
      </clipPath>
      <clipPath
         clipPathUnits="userSpaceOnUse"
         id="1558924740386-clipPath1">
        <path
           d="m -464.90512,-822.99664 2015.99992,0 0,1220 -2015.99992,0 0,-1220 z"
           id="path33"
           inkscape:connector-curvature="0" />
      </clipPath>
      <clipPath
         clipPathUnits="userSpaceOnUse"
         id="1558924740288-clipPath1">
        <path
           d="m 1049.4968,253.04181 c 12.3537,0 22.3682,10.01456 22.3682,22.36816 l 0,44.73633 c 0,12.35358 -10.0145,22.36817 -22.3682,22.36817 l -11.4043,0 c -12.3535,0 -22.3681,-10.01459 -22.3681,-22.36817 l 0,-44.73633 c 0,-12.3536 10.0146,-22.36816 22.3681,-22.36816 z m 0.249,99.88989 c 12.3537,0 22.3682,10.01456 22.3682,22.36817 l 0,44.73632 c 0,12.35358 -10.0145,22.36817 -22.3682,22.36817 l -11.6542,0 c -12.3536,0 -22.3682,-10.01459 -22.3682,-22.36817 l 0,-44.73632 c 0,-12.35361 10.0146,-22.36817 22.3682,-22.36817 z m 551.037,83.51767 c 12.7851,0 23.1495,10.36435 23.1495,23.14942 l 0,46.29882 c 0,12.78507 -10.3644,23.14939 -23.1495,23.14939 l -22.1699,0 c -12.785,0 -23.1494,-10.36432 -23.1494,-23.14939 l 0,-46.29882 c 0,-12.78507 10.3644,-23.14942 23.1494,-23.14942 z m -997.11324,12.07077 c 12.35363,0 22.36816,10.01456 22.36816,22.36817 l 0,44.73632 c 0,12.35358 -10.01453,22.36817 -22.36816,22.36817 l -11.4043,0 c -12.35358,0 -22.36817,-10.01459 -22.36817,-22.36817 l 0,-44.73632 c 0,-12.35361 10.01459,-22.36817 22.36817,-22.36817 z m -56.10334,189.80652 c 12.78504,0 23.14942,10.36432 23.14942,23.14941 l 0,46.29883 c 0,12.78504 -10.36438,23.14942 -23.14942,23.14942 l -22.16992,0 c -12.78509,0 -23.14941,-10.36438 -23.14941,-23.14942 l 0,-46.29883 c 0,-12.78509 10.36432,-23.14941 23.14941,-23.14941 z m 110.80048,29.31891 c 12.35358,0 22.36816,10.01459 22.36816,22.36816 l 0,44.73633 c 0,8.35205 -4.57751,15.63489 -11.36059,19.47675 l 0,0 c 5.52209,4.07306 9.10406,10.62463 9.10406,18.01288 l 0,44.73632 c 0,12.35358 -10.01452,22.36817 -22.36816,22.36817 l -11.6543,0 c -12.35358,0 -22.36816,-10.01459 -22.36816,-22.36817 l 0,-44.73632 c 0,-8.41034 4.6416,-15.73652 11.50287,-19.55665 l 0,0 c -5.46088,-4.07855 -8.99634,-10.59289 -8.99634,-17.93298 l 0,-44.73633 c 0,-12.35357 10.01452,-22.36816 22.36816,-22.36816 z M 506.73227,835.76031 c 12.35361,0 22.36819,10.01459 22.36819,22.36817 l 0,44.73633 c 0,12.35357 -10.01458,22.36816 -22.36819,22.36816 l -11.6543,0 c -12.35357,0 -22.36816,-10.01459 -22.36816,-22.36816 l 0,-44.73633 c 0,-12.35358 10.01459,-22.36817 22.36816,-22.36817 z m 223.32742,139.95948 c 12.78504,0 23.14942,10.36432 23.14942,23.14941 l 0,46.2988 c 0,12.7851 -10.36438,23.1494 -23.14942,23.1494 l -22.16992,0 c -12.78509,0 -23.14941,-10.3643 -23.14941,-23.1494 l 0,-46.2988 c 0,-12.78509 10.36432,-23.14941 23.14941,-23.14941 z M 0,0 l 0,1220 2016,0 0,-1220 z"
           id="path36"
           inkscape:connector-curvature="0" />
      </clipPath>
      <clipPath
         clipPathUnits="userSpaceOnUse"
         id="1558924740971-clipPath1">
        <path
           d="m 0,0 2016,0 0,1220 L 0,1220 0,0 Z"
           id="path39"
           inkscape:connector-curvature="0" />
      </clipPath>
      <clipPath
         clipPathUnits="userSpaceOnUse"
         id="1558924740224-clipPath1">
        <path
           d="m 160.00658,1041.4875 5.76634,0 0,10.8119 -5.76634,0 0,-10.8119 z"
           id="path42"
           inkscape:connector-curvature="0" />
      </clipPath>
      <clipPath
         clipPathUnits="userSpaceOnUse"
         id="1558924740196-clipPath1">
        <path
           d="m 1828.8636,120.55946 5.0456,0 0,14.41588 -5.0456,0 0,-14.41588 z"
           id="path45"
           inkscape:connector-curvature="0" />
      </clipPath>
    </defs>
    <g
       font-size="99"
       transform="translate(561.96742,435.75646)"
       id="g47"
       style="font-size:99px;font-family:Arial;stroke-width:0.0625;shape-rendering:geometricPrecision;text-rendering:optimizeLegibility">
      <g
         clip-path="url(#1558924740917-clipPath1)"
         style="stroke:none"
         id="text49">
        <path
           d="m 7.9277344,95 0,-70.866211 9.3779296,0 0,29.100586 36.834961,0 0,-29.100586 9.37793,0 0,70.866211 -9.37793,0 0,-33.402832 -36.834961,0 0,33.402832 -9.3779296,0 z"
           style="stroke:none"
           id="path3582" />
      </g>
    </g>
    <g
       font-size="99"
       transform="translate(616.66453,654.8819)"
       id="g51"
       style="font-size:99px;font-family:Arial;stroke-width:0.0625;shape-rendering:geometricPrecision;text-rendering:optimizeLegibility">
      <g
         clip-path="url(#1558924740195-clipPath1)"
         style="stroke:none"
         id="text53">
        <path
           d="m 7.9277344,95 0,-70.866211 9.3779296,0 0,29.100586 36.834961,0 0,-29.100586 9.37793,0 0,70.866211 -9.37793,0 0,-33.402832 -36.834961,0 0,33.402832 -9.3779296,0 z"
           style="stroke:none"
           id="path3585" />
      </g>
    </g>
    <g
       font-size="99"
       transform="translate(497.98126,626.51609)"
       id="g55"
       style="font-size:99px;font-family:Arial;stroke-width:0.0625;shape-rendering:geometricPrecision;text-rendering:optimizeLegibility">
      <g
         clip-path="url(#1558924740798-clipPath1)"
         style="stroke:none"
         id="text57">
        <path
           d="m 4.7856445,60.485352 q 0,-17.644043 9.4746095,-27.602051 9.474609,-10.006348 24.459961,-10.006348 9.812988,0 17.692383,4.688965 7.879394,4.688965 11.988281,13.100098 4.157226,8.362793 4.157226,18.997558 0,10.779785 -4.350585,19.287598 -4.350586,8.507812 -12.326661,12.906738 -7.976074,4.350586 -17.208984,4.350586 -10.006348,0 -17.885742,-4.833984 Q 12.906738,86.540527 8.8461914,78.177734 4.7856445,69.814941 4.7856445,60.485352 Z m 9.6679685,0.145019 q 0,12.810059 6.864258,20.206055 6.912598,7.347656 17.305664,7.347656 10.586426,0 17.402344,-7.444336 6.864258,-7.444336 6.864258,-21.124512 0,-8.652832 -2.948731,-15.082031 -2.90039,-6.477539 -8.556152,-10.006348 -5.607422,-3.577148 -12.616699,-3.577148 -9.958008,0 -17.160645,6.864258 -7.154297,6.815918 -7.154297,22.816406 z"
           style="stroke:none"
           id="path3588" />
      </g>
    </g>
    <g
       font-size="99"
       transform="translate(614.28303,737.10783)"
       id="g59"
       style="font-size:99px;font-family:Arial;stroke-width:0.0625;shape-rendering:geometricPrecision;text-rendering:optimizeLegibility">
      <g
         clip-path="url(#1558924740557-clipPath1)"
         style="stroke:none"
         id="text61">
        <path
           d="m 7.5410156,95 0,-70.866211 9.6196294,0 37.221679,55.63916 0,-55.63916 8.991211,0 0,70.866211 -9.619629,0 -37.221679,-55.6875 0,55.6875 -8.9912114,0 z"
           style="stroke:none"
           id="path3591" />
      </g>
    </g>
    <g
       font-size="99"
       transform="translate(1551.1979,424.63881)"
       id="g63"
       style="font-size:99px;font-family:Arial;stroke-width:0.0625;shape-rendering:geometricPrecision;text-rendering:optimizeLegibility">
      <g
         clip-path="url(#1558924740448-clipPath1)"
         style="stroke:none"
         id="text65">
        <path
           d="m 4.7856445,60.485352 q 0,-17.644043 9.4746095,-27.602051 9.474609,-10.006348 24.459961,-10.006348 9.812988,0 17.692383,4.688965 7.879394,4.688965 11.988281,13.100098 4.157226,8.362793 4.157226,18.997558 0,10.779785 -4.350585,19.287598 -4.350586,8.507812 -12.326661,12.906738 -7.976074,4.350586 -17.208984,4.350586 -10.006348,0 -17.885742,-4.833984 Q 12.906738,86.540527 8.8461914,78.177734 4.7856445,69.814941 4.7856445,60.485352 Z m 9.6679685,0.145019 q 0,12.810059 6.864258,20.206055 6.912598,7.347656 17.305664,7.347656 10.586426,0 17.402344,-7.444336 6.864258,-7.444336 6.864258,-21.124512 0,-8.652832 -2.948731,-15.082031 -2.90039,-6.477539 -8.556152,-10.006348 -5.607422,-3.577148 -12.616699,-3.577148 -9.958008,0 -17.160645,6.864258 -7.154297,6.815918 -7.154297,22.816406 z"
           style="stroke:none"
           id="path3594" />
      </g>
    </g>
    <g
       font-size="99"
       transform="translate(1007.7947,240.27813)"
       id="g67"
       style="font-size:99px;font-family:Arial;stroke-width:0.0625;shape-rendering:geometricPrecision;text-rendering:optimizeLegibility">
      <g
         clip-path="url(#1558924740830-clipPath1)"
         style="stroke:none"
         id="text69">
        <path
           d="m 7.9277344,95 0,-70.866211 9.3779296,0 0,29.100586 36.834961,0 0,-29.100586 9.37793,0 0,70.866211 -9.37793,0 0,-33.402832 -36.834961,0 0,33.402832 -9.3779296,0 z"
           style="stroke:none"
           id="path3597" />
      </g>
    </g>
    <g
       font-size="99"
       transform="translate(1007.9187,340.16802)"
       id="g71"
       style="font-size:99px;font-family:Arial;stroke-width:0.0625;shape-rendering:geometricPrecision;text-rendering:optimizeLegibility">
      <g
         clip-path="url(#1558924740294-clipPath1)"
         style="stroke:none"
         id="text73">
        <path
           d="m 7.5410156,95 0,-70.866211 9.6196294,0 37.221679,55.63916 0,-55.63916 8.991211,0 0,70.866211 -9.619629,0 -37.221679,-55.6875 0,55.6875 -8.9912114,0 z"
           style="stroke:none"
           id="path3600" />
      </g>
    </g>
    <g
       font-size="99"
       transform="translate(680.47472,963.90924)"
       id="g75"
       style="font-size:99px;font-family:Arial;stroke-width:0.0625;shape-rendering:geometricPrecision;text-rendering:optimizeLegibility">
      <g
         clip-path="url(#1558924740531-clipPath1)"
         style="stroke:none"
         id="text77">
        <path
           d="m 4.7856445,60.485352 q 0,-17.644043 9.4746095,-27.602051 9.474609,-10.006348 24.459961,-10.006348 9.812988,0 17.692383,4.688965 7.879394,4.688965 11.988281,13.100098 4.157226,8.362793 4.157226,18.997558 0,10.779785 -4.350585,19.287598 -4.350586,8.507812 -12.326661,12.906738 -7.976074,4.350586 -17.208984,4.350586 -10.006348,0 -17.885742,-4.833984 Q 12.906738,86.540527 8.8461914,78.177734 4.7856445,69.814941 4.7856445,60.485352 Z m 9.6679685,0.145019 q 0,12.810059 6.864258,20.206055 6.912598,7.347656 17.305664,7.347656 10.586426,0 17.402344,-7.444336 6.864258,-7.444336 6.864258,-21.124512 0,-8.652832 -2.948731,-15.082031 -2.90039,-6.477539 -8.556152,-10.006348 -5.607422,-3.577148 -12.616699,-3.577148 -9.958008,0 -17.160645,6.864258 -7.154297,6.815918 -7.154297,22.816406 z"
           style="stroke:none"
           id="path3603" />
      </g>
    </g>
    <g
       font-size="99"
       transform="translate(464.90513,822.99663)"
       id="g79"
       style="font-size:99px;font-family:Arial;stroke-width:0.0625;shape-rendering:geometricPrecision;text-rendering:optimizeLegibility">
      <g
         clip-path="url(#1558924740386-clipPath1)"
         style="stroke:none"
         id="text81">
        <path
           d="m 7.5410156,95 0,-70.866211 9.6196294,0 37.221679,55.63916 0,-55.63916 8.991211,0 0,70.866211 -9.619629,0 -37.221679,-55.6875 0,55.6875 -8.9912114,0 z"
           style="stroke:none"
           id="path3606" />
      </g>
    </g>
    <g
       font-size="99"
       id="g83"
       style="font-size:99px;font-family:Arial;stroke-width:0.0625;shape-rendering:geometricPrecision;text-rendering:optimizeLegibility">
      <path
         d="m 679.27173,612.67401 1.03015,1.16113 2.73309,-1.96008 2.7331,-1.96002 -0.76935,-1.34815 0,0 -5.72699,4.10712 z m -14.58679,-16.44104 4.48822,5.05872 0,0 8.28357,-5.94055 0,0 -3.35193,-5.8736 0,0 -9.41986,6.75543 z m -14.58673,-16.44104 4.48822,5.05872 0,0 11.97638,-8.58887 -3.35193,-5.87366 0,0 -13.11267,9.40381 z m -14.5868,-16.44104 4.48822,5.05878 0,0 15.66925,-11.23725 0,0 -3.35192,-5.87365 0,0 -16.80555,12.05212 z m -14.58679,-16.44104 4.48822,5.05878 0,0 19.36212,-13.88562 0,0 -3.35193,-5.8736 -10.2492,7.35022 -10.24921,7.35022 z"
         clip-path="url(#1558924740288-clipPath1)"
         id="path85"
         inkscape:connector-curvature="0"
         style="stroke:none" />
    </g>
    <g
       font-size="99"
       id="g87"
       style="font-size:99px;font-family:Arial;stroke-width:0.0625;shape-rendering:geometricPrecision;text-rendering:optimizeLegibility">
      <path
         d="m 655.33289,736.42407 0.30401,-10.49737 c 0.0538,-1.85706 -1.40741,-3.40546 -3.26446,-3.45923 -1.85706,-0.0538 -3.40546,1.40741 -3.45923,3.26446 l -0.30402,10.49744 c -0.0538,1.85706 1.40741,3.4054 3.26447,3.45923 1.85705,0.0538 3.40545,-1.40747 3.45923,-3.26453 z"
         clip-path="url(#1558924740288-clipPath1)"
         id="path89"
         inkscape:connector-curvature="0"
         style="stroke:none" />
    </g>
    <g
       font-size="99"
       id="g91"
       style="font-size:99px;font-family:Arial;stroke-width:0.0625;shape-rendering:geometricPrecision;text-rendering:optimizeLegibility">
      <path
         d="m 526.28577,783.82751 c 0.13415,1.85297 1.74438,3.24573 3.59735,3.11158 1.85303,-0.13416 3.24579,-1.74439 3.11163,-3.59735 l -2.75549,-38.05616 c -0.13422,-1.85296 -1.74439,-3.24579 -3.59741,-3.11157 -1.85297,0.13416 -3.24573,1.74432 -3.11158,3.59735 z m 28.82721,10.03223 c 0.13415,1.85297 1.74438,3.24579 3.59735,3.11157 1.85302,-0.13415 3.24579,-1.74432 3.11163,-3.59735 l -3.62848,-50.11242 c -0.13415,-1.85303 -1.74438,-3.24579 -3.59735,-3.11164 -1.85303,0.13422 -3.24579,1.74439 -3.11163,3.59741 z"
         clip-path="url(#1558924740288-clipPath1)"
         id="path93"
         inkscape:connector-curvature="0"
         style="stroke:none" />
    </g>
    <g
       font-size="99"
       id="g95"
       style="font-size:99px;font-family:Arial;stroke-width:0.0625;shape-rendering:geometricPrecision;text-rendering:optimizeLegibility">
      <path
         d="m 544.36975,796.82819 64.19312,0.69281 c 1.85772,0.0201 3.37927,-1.46906 3.39935,-3.32679 0.02,-1.85772 -1.46906,-3.37927 -3.32678,-3.39935 l -64.19306,-0.69281 c -1.85772,-0.0201 -3.37933,1.46899 -3.39935,3.32672 -0.0201,1.85779 1.46899,3.37934 3.32672,3.39942 z"
         clip-path="url(#1558924740288-clipPath1)"
         id="path97"
         inkscape:connector-curvature="0"
         style="stroke:none" />
    </g>
    <g
       font-size="99"
       id="g99"
       style="font-size:99px;font-family:Arial;stroke-width:0.0625;shape-rendering:geometricPrecision;text-rendering:optimizeLegibility">
      <path
         d="m 745.22156,750.5957 -54.36237,23.10901 c -1.70978,0.72681 -2.50628,2.70117 -1.77948,4.41095 0.72681,1.70978 2.70117,2.50629 4.41095,1.77948 l 54.36243,-23.10901 c 1.70978,-0.72686 2.50622,-2.70123 1.77942,-4.41101 -0.72681,-1.70978 -2.70117,-2.50622 -4.41095,-1.77942 z"
         clip-path="url(#1558924740288-clipPath1)"
         id="path101"
         inkscape:connector-curvature="0"
         style="stroke:none" />
    </g>
    <g
       font-size="99"
       id="g103"
       style="font-size:99px;font-family:Arial;stroke-width:0.0625;shape-rendering:geometricPrecision;text-rendering:optimizeLegibility">
      <path
         d="m 435.53241,724.65955 107.0033,71.60076 c 1.544,1.03321 3.63238,0.61921 4.66558,-0.9248 1.03321,-1.54407 0.61927,-3.63245 -0.9248,-4.66565 l -107.0033,-71.60071 c -1.54406,-1.0332 -3.63241,-0.61926 -4.66559,0.92481 -1.0332,1.54406 -0.61926,3.63238 0.92481,4.66559 z"
         clip-path="url(#1558924740288-clipPath1)"
         id="path105"
         inkscape:connector-curvature="0"
         style="stroke:none" />
    </g>
    <g
       font-size="99"
       id="g107"
       style="font-size:99px;font-family:Arial;stroke-width:0.0625;shape-rendering:geometricPrecision;text-rendering:optimizeLegibility">
      <path
         d="M 776.47913,483.59537 680.76941,387.8038 c -1.31311,-1.31427 -3.44214,-1.31518 -4.75635,-0.002 -1.31427,1.31314 -1.31518,3.44211 -0.002,4.75638 l 95.70971,95.79156 c 1.31317,1.31427 3.44214,1.31519 4.75641,0.002 1.31421,-1.31315 1.31513,-3.44211 0.002,-4.75638 z"
         clip-path="url(#1558924740288-clipPath1)"
         id="path109"
         inkscape:connector-curvature="0"
         style="stroke:none" />
    </g>
    <g
       font-size="99"
       id="g111"
       style="font-size:99px;font-family:Arial;stroke-width:0.0625;shape-rendering:geometricPrecision;text-rendering:optimizeLegibility">
      <path
         d="m 1620.578,333.25906 153.531,53.27704 c 1.7553,0.60907 3.671,-0.31964 4.28,-2.0748 0.6092,-1.75518 -0.3195,-3.67093 -2.0748,-4.28 l -153.531,-53.277 c -1.7551,-0.60907 -3.6709,0.31961 -4.2799,2.0748 -0.6091,1.75515 0.3196,3.67089 2.0747,4.27996 z"
         clip-path="url(#1558924740288-clipPath1)"
         id="path113"
         inkscape:connector-curvature="0"
         style="stroke:none" />
    </g>
    <g
       font-size="99"
       id="g115"
       style="font-size:99px;font-family:Arial;stroke-width:0.0625;shape-rendering:geometricPrecision;text-rendering:optimizeLegibility">
      <path
         d="m 1623.6342,332.81946 126.6561,-90.37189 c 1.5123,-1.07909 1.8634,-3.17892 0.7843,-4.69127 -1.0791,-1.51233 -3.179,-1.8634 -4.6913,-0.78432 l -126.6561,90.37192 c -1.5124,1.07907 -1.8634,3.1789 -0.7843,4.69126 1.0791,1.51233 3.1788,1.8634 4.6913,0.7843 z"
         clip-path="url(#1558924740288-clipPath1)"
         id="path117"
         inkscape:connector-curvature="0"
         style="stroke:none" />
    </g>
    <g
       font-size="99"
       id="g119"
       style="font-size:99px;font-family:Arial;stroke-width:0.0625;shape-rendering:geometricPrecision;text-rendering:optimizeLegibility">
      <path
         d="m 1443.0673,533.66589 99.6104,-32.59985 c 1.7658,-0.57785 2.7282,-2.47684 2.1504,-4.24252 -0.5779,-1.76572 -2.4769,-2.72821 -4.2425,-2.15033 l -99.6106,32.59988 c -1.7656,0.57782 -2.7282,2.47681 -2.1503,4.24249 0.5779,1.76575 2.4768,2.72821 4.2426,2.15033 z"
         clip-path="url(#1558924740288-clipPath1)"
         id="path121"
         inkscape:connector-curvature="0"
         style="stroke:none" />
    </g>
    <g
       font-size="99"
       id="g123"
       style="font-size:99px;font-family:Arial;stroke-width:0.0625;shape-rendering:geometricPrecision;text-rendering:optimizeLegibility">
      <path
         d="m 1355.0187,273.99362 -31.9828,152.05713 c -0.3823,1.81805 0.781,3.60111 2.599,3.98352 1.8181,0.38239 3.6011,-0.78094 3.9835,-2.599 l 31.9828,-152.05713 c 0.3824,-1.81805 -0.7809,-3.6011 -2.599,-3.98352 -1.818,-0.38238 -3.6011,0.78095 -3.9835,2.599 z"
         clip-path="url(#1558924740288-clipPath1)"
         id="path125"
         inkscape:connector-curvature="0"
         style="stroke:none" />
    </g>
    <g
       font-size="99"
       id="g127"
       style="font-size:99px;font-family:Arial;stroke-width:0.0625;shape-rendering:geometricPrecision;text-rendering:optimizeLegibility">
      <path
         d="m 1503.7416,228.85939 115.6939,103.72646 c 1.3832,1.2402 3.5091,1.12426 4.7493,-0.25904 1.2402,-1.3833 1.1243,-3.50909 -0.259,-4.7493 l -115.694,-103.72647 c -1.3833,-1.2402 -3.5091,-1.12426 -4.7493,0.25904 -1.2402,1.38328 -1.1242,3.50911 0.2591,4.74931 z"
         clip-path="url(#1558924740288-clipPath1)"
         id="path129"
         inkscape:connector-curvature="0"
         style="stroke:none" />
    </g>
    <g
       font-size="99"
       id="g131"
       style="font-size:99px;font-family:Arial;stroke-width:0.0625;shape-rendering:geometricPrecision;text-rendering:optimizeLegibility">
      <path
         d="m 1605.4338,423.66434 19.5381,-92.89041 c 0.3823,-1.81806 -0.781,-3.60111 -2.599,-3.98349 -1.8181,-0.38242 -3.6012,0.78091 -3.9835,2.59896 l -19.538,92.89042 c -0.3824,1.81805 0.7809,3.6011 2.5989,3.98349 1.8181,0.38241 3.6012,-0.78092 3.9835,-2.59897 z"
         clip-path="url(#1558924740288-clipPath1)"
         id="path133"
         inkscape:connector-curvature="0"
         style="stroke:none" />
    </g>
    <g
       font-size="99"
       id="g135"
       style="font-size:99px;font-family:Arial;stroke-width:0.0625;shape-rendering:geometricPrecision;text-rendering:optimizeLegibility">
      <path
         d="m 1497.175,262.26807 c 1.7657,-0.57785 2.7282,-2.47684 2.1503,-4.24253 -0.5779,-1.76568 -2.4768,-2.72819 -4.2425,-2.15033 l -110.5259,36.17218 c -1.7656,0.57788 -2.7282,2.47684 -2.1503,4.24256 0.5779,1.76568 2.4768,2.72818 4.2426,2.15033 z m 9.8578,-32.71642 c 1.7657,-0.57786 2.7282,-2.47685 2.1503,-4.24255 -0.5779,-1.76569 -2.4768,-2.72818 -4.2425,-2.15032 l -147.6768,48.33066 c -1.7656,0.57788 -2.7282,2.47687 -2.1503,4.24255 0.5779,1.76569 2.4768,2.72818 4.2426,2.15033 z"
         clip-path="url(#1558924740288-clipPath1)"
         id="path137"
         inkscape:connector-curvature="0"
         style="stroke:none" />
    </g>
    <g
       font-size="99"
       id="g139"
       style="font-size:99px;font-family:Arial;stroke-width:0.0625;shape-rendering:geometricPrecision;text-rendering:optimizeLegibility">
      <path
         d="m 777.32745,486.91827 41.5727,-141.87814 c 0.52246,-1.7829 -0.4989,-3.65088 -2.2818,-4.17331 -1.7829,-0.5224 -3.65088,0.49896 -4.17328,2.28183 l -41.57269,141.87817 c -0.5224,1.78287 0.4989,3.65085 2.28179,4.17328 1.7829,0.5224 3.65088,-0.49896 4.17328,-2.28183 z"
         clip-path="url(#1558924740288-clipPath1)"
         id="path141"
         inkscape:connector-curvature="0"
         style="stroke:none" />
    </g>
    <g
       font-size="99"
       id="g143"
       style="font-size:99px;font-family:Arial;stroke-width:0.0625;shape-rendering:geometricPrecision;text-rendering:optimizeLegibility">
      <path
         d="m 931.73676,500.51132 c -0.75928,-1.69562 -2.74848,-2.45434 -4.4441,-1.69507 -1.69561,0.75925 -2.45434,2.74845 -1.69506,4.44406 l 63.50231,141.8158 c 0.75928,1.69562 2.74848,2.45435 4.4441,1.69507 1.69561,-0.75922 2.45434,-2.74841 1.69506,-4.44403 z m -17.59241,29.29245 c -0.75928,-1.69562 -2.74848,-2.45434 -4.44409,-1.69507 -1.69562,0.75922 -2.45435,2.74842 -1.69507,4.44403 l 47.5271,106.13941 c 0.75927,1.69562 2.74847,2.45434 4.44409,1.69507 1.69562,-0.75922 2.45435,-2.74842 1.69507,-4.44403 z"
         clip-path="url(#1558924740288-clipPath1)"
         id="path145"
         inkscape:connector-curvature="0"
         style="stroke:none" />
    </g>
    <g
       font-size="99"
       id="g147"
       style="font-size:99px;font-family:Arial;stroke-width:0.0625;shape-rendering:geometricPrecision;text-rendering:optimizeLegibility">
      <path
         d="m 1002.5416,430.54944 -76.13022,68.84176 c -1.37799,1.2461 -1.48487,3.37238 -0.23877,4.7504 1.24603,1.37799 3.37231,1.4849 4.75036,0.2388 l 76.13023,-68.84176 c 1.378,-1.24607 1.4848,-3.37238 0.2388,-4.75037 -1.2461,-1.37802 -3.3724,-1.48489 -4.7504,-0.23883 z"
         clip-path="url(#1558924740288-clipPath1)"
         id="path149"
         inkscape:connector-curvature="0"
         style="stroke:none" />
    </g>
    <g
       font-size="99"
       id="g151"
       style="font-size:99px;font-family:Arial;stroke-width:0.0625;shape-rendering:geometricPrecision;text-rendering:optimizeLegibility">
      <path
         d="m 1146.309,623.78674 -154.49815,16.5708 c -1.84729,0.19812 -3.18353,1.85553 -2.98541,3.70276 0.19812,1.84723 1.85547,3.18354 3.70276,2.98542 l 154.4982,-16.57081 c 1.8471,-0.19812 3.1834,-1.85553 2.9853,-3.70275 -0.1981,-1.84723 -1.8554,-3.18354 -3.7027,-2.98542 z"
         clip-path="url(#1558924740288-clipPath1)"
         id="path153"
         inkscape:connector-curvature="0"
         style="stroke:none" />
    </g>
    <g
       font-size="99"
       id="g155"
       style="font-size:99px;font-family:Arial;stroke-width:0.0625;shape-rendering:geometricPrecision;text-rendering:optimizeLegibility">
      <path
         d="M 901.44904,766.25861 746.88177,750.34534 c -1.84808,-0.19031 -3.49975,1.15301 -3.69006,3.0011 -0.19025,1.84808 1.15308,3.49975 3.00116,3.69006 l 154.56726,15.91327 c 1.84809,0.19024 3.49976,-1.15308 3.69,-3.00116 0.19031,-1.84809 -1.15301,-3.49976 -3.00109,-3.69 z"
         clip-path="url(#1558924740288-clipPath1)"
         id="path157"
         inkscape:connector-curvature="0"
         style="stroke:none" />
    </g>
    <g
       font-size="99"
       id="g159"
       style="font-size:99px;font-family:Arial;stroke-width:0.0625;shape-rendering:geometricPrecision;text-rendering:optimizeLegibility">
      <path
         d="m 766.80035,480.69281 -91.06488,125.90253 c -2.9165,4.03222 -2.01245,9.66278 2.01978,12.57928 4.03223,2.91651 9.66278,2.01239 12.57928,-2.01983 l 91.06495,-125.9025 c 2.9165,-4.03223 2.01239,-9.66278 -2.01984,-12.57929 -4.03223,-2.9165 -9.66278,-2.01242 -12.57929,2.01981 z"
         clip-path="url(#1558924740288-clipPath1)"
         id="path161"
         inkscape:connector-curvature="0"
         style="stroke:none" />
    </g>
    <g
       font-size="99"
       id="g163"
       style="font-size:99px;font-family:Arial;stroke-width:0.0625;shape-rendering:geometricPrecision;text-rendering:optimizeLegibility">
      <path
         d="m 929.0116,498.54025 -154.56726,-15.9133 c -1.84809,-0.19024 -3.49976,1.15308 -3.69001,3.00116 -0.19024,1.84809 1.15308,3.49976 3.00116,3.69001 l 154.56726,15.91326 c 1.84809,0.19028 3.49976,-1.15304 3.69001,-3.00112 0.19024,-1.84809 -1.15308,-3.49976 -3.00116,-3.69001 z"
         clip-path="url(#1558924740288-clipPath1)"
         id="path165"
         inkscape:connector-curvature="0"
         style="stroke:none" />
    </g>
    <g
       font-size="99"
       id="g167"
       style="font-size:99px;font-family:Arial;stroke-width:0.0625;shape-rendering:geometricPrecision;text-rendering:optimizeLegibility">
      <path
         d="m 903.82971,771.57526 91.06494,-125.90253 c 1.08881,-1.50537 0.75129,-3.60742 -0.75409,-4.69623 -1.50531,-1.0888 -3.60736,-0.75128 -4.69616,0.75403 l -91.06494,125.90253 c -1.08881,1.50537 -0.75129,3.60742 0.75402,4.69622 1.50537,1.08881 3.60743,0.75135 4.69623,-0.75402 z"
         clip-path="url(#1558924740288-clipPath1)"
         id="path169"
         inkscape:connector-curvature="0"
         style="stroke:none" />
    </g>
    <g
       font-size="99"
       id="g171"
       style="font-size:99px;font-family:Arial;stroke-width:0.0625;shape-rendering:geometricPrecision;text-rendering:optimizeLegibility">
      <path
         d="m 1180.3259,472.15744 -93.196,-53.54269 c -1.611,-0.92551 -3.6662,-0.37009 -4.5917,1.24081 -0.9255,1.6109 -0.3701,3.66617 1.2409,4.59168 l 93.1959,53.54269 c 1.6109,0.92551 3.6662,0.37012 4.5917,-1.24082 0.9255,-1.6109 0.3701,-3.66616 -1.2408,-4.59167 z"
         clip-path="url(#1558924740288-clipPath1)"
         id="path173"
         inkscape:connector-curvature="0"
         style="stroke:none" />
    </g>
    <g
       font-size="99"
       id="g175"
       style="font-size:99px;font-family:Arial;stroke-width:0.0625;shape-rendering:geometricPrecision;text-rendering:optimizeLegibility">
      <path
         d="m 1144.4225,629.63501 115.694,103.72644 c 1.3833,1.24023 3.5091,1.12427 4.7493,-0.25903 1.2402,-1.3833 1.1242,-3.5091 -0.2591,-4.74933 L 1148.9128,624.62665 c -1.3833,-1.24018 -3.5091,-1.12427 -4.7493,0.25903 -1.2402,1.3833 -1.1243,3.5091 0.259,4.74933 z"
         clip-path="url(#1558924740288-clipPath1)"
         id="path177"
         inkscape:connector-curvature="0"
         style="stroke:none" />
    </g>
    <g
       font-size="99"
       id="g179"
       style="font-size:99px;font-family:Arial;stroke-width:0.0625;shape-rendering:geometricPrecision;text-rendering:optimizeLegibility">
      <path
         d="m 1205.3461,500.66125 c 0.3824,-1.81808 -0.7809,-3.6011 -2.599,-3.98352 -1.8181,-0.38238 -3.6011,0.78092 -3.9836,2.599 l -23.9368,113.80432 c -0.3825,1.81806 0.7808,3.60108 2.599,3.98353 1.818,0.38238 3.601,-0.78095 3.9835,-2.599 z m -23.4044,-24.89529 c 0.3824,-1.81808 -0.7809,-3.60113 -2.599,-3.98352 -1.818,-0.38242 -3.6011,0.78091 -3.9834,2.599 l -31.9828,152.0571 c -0.3825,1.81811 0.7808,3.60113 2.5988,3.98352 1.8182,0.38238 3.6012,-0.78089 3.9836,-2.599 z"
         clip-path="url(#1558924740288-clipPath1)"
         id="path181"
         inkscape:connector-curvature="0"
         style="stroke:none" />
    </g>
    <g
       font-size="99"
       id="g183"
       style="font-size:99px;font-family:Arial;stroke-width:0.0625;shape-rendering:geometricPrecision;text-rendering:optimizeLegibility">
      <path
         d="m 1411.0845,685.72302 c 1.7656,-0.57782 2.7281,-2.4768 2.1502,-4.24249 -0.5778,-1.76569 -2.4768,-2.72821 -4.2425,-2.15033 l -147.6766,48.33063 c -1.7658,0.57788 -2.7283,2.47687 -2.1504,4.24255 0.5778,1.76569 2.4769,2.72821 4.2425,2.15033 z m -27.2931,-20.55792 c 1.7657,-0.57788 2.7281,-2.47687 2.1503,-4.24255 -0.5778,-1.76569 -2.4769,-2.72815 -4.2425,-2.15033 l -110.5259,36.17218 c -1.7657,0.57788 -2.7282,2.47686 -2.1504,4.24255 0.5779,1.76569 2.4769,2.72821 4.2426,2.15033 z"
         clip-path="url(#1558924740288-clipPath1)"
         id="path185"
         inkscape:connector-curvature="0"
         style="stroke:none" />
    </g>
    <g
       font-size="99"
       id="g187"
       style="font-size:99px;font-family:Arial;stroke-width:0.0625;shape-rendering:geometricPrecision;text-rendering:optimizeLegibility">
      <path
         d="m 1325.281,423.54657 -147.6766,48.33069 c -1.7658,0.57785 -2.7283,2.47684 -2.1504,4.24252 0.5779,1.76572 2.4769,2.72821 4.2425,2.15033 l 147.6768,-48.33066 c 1.7656,-0.57788 2.7281,-2.47686 2.1503,-4.24255 -0.5778,-1.76569 -2.4768,-2.72818 -4.2426,-2.15033 z"
         clip-path="url(#1558924740288-clipPath1)"
         id="path189"
         inkscape:connector-curvature="0"
         style="stroke:none" />
    </g>
    <g
       font-size="99"
       id="g191"
       style="font-size:99px;font-family:Arial;stroke-width:0.0625;shape-rendering:geometricPrecision;text-rendering:optimizeLegibility">
      <path
         d="m 1406.5138,540.7948 c 1.3833,1.24017 3.5091,1.12427 4.7494,-0.25903 1.2401,-1.3833 1.1243,-3.50916 -0.259,-4.74933 l -86.589,-77.63214 c -1.3833,-1.24021 -3.5092,-1.12424 -4.7494,0.25903 -1.2401,1.3833 -1.1242,3.50912 0.259,4.74933 z m 33.2622,-7.82117 c 1.3833,1.24024 3.509,1.12427 4.7493,-0.25903 1.2402,-1.38324 1.1242,-3.50909 -0.2591,-4.74927 L 1328.5723,424.23886 c -1.3833,-1.2402 -3.5091,-1.12427 -4.7493,0.259 -1.2402,1.3833 -1.1243,3.50913 0.259,4.74933 z"
         clip-path="url(#1558924740288-clipPath1)"
         id="path193"
         inkscape:connector-curvature="0"
         style="stroke:none" />
    </g>
    <g
       font-size="99"
       id="g195"
       style="font-size:99px;font-family:Arial;stroke-width:0.0625;shape-rendering:geometricPrecision;text-rendering:optimizeLegibility">
      <path
         d="m 1413.3296,683.21887 31.9828,-152.05713 c 0.3824,-1.81805 -0.7809,-3.60113 -2.599,-3.98352 -1.8181,-0.38238 -3.6011,0.78095 -3.9835,2.599 l -31.9828,152.05713 c -0.3824,1.81805 0.781,3.60114 2.599,3.98352 1.8181,0.38239 3.601,-0.78094 3.9835,-2.599 z"
         clip-path="url(#1558924740288-clipPath1)"
         id="path197"
         inkscape:connector-curvature="0"
         style="stroke:none" />
    </g>
    <g
       font-size="99"
       id="g199"
       style="font-size:99px;font-family:Arial;stroke-width:0.0625;shape-rendering:geometricPrecision;text-rendering:optimizeLegibility">
      <path
         d="m 680.50055,867.27191 c -0.64441,-1.74255 -2.57849,-2.63232 -4.32105,-1.98797 -1.74249,0.6444 -2.63226,2.57855 -1.98791,4.32104 l 33.61359,90.89453 c 0.6444,1.74256 2.57849,2.63233 4.32104,1.98792 1.74249,-0.64435 2.63232,-2.57849 1.98792,-4.32099 z m -24.3125,15.06189 c -0.64441,-1.74249 -2.57849,-2.63232 -4.32105,-1.98791 -1.74249,0.64441 -2.63226,2.57849 -1.98791,4.32104 l 31.63861,85.55396 c 0.64441,1.74249 2.57849,2.63232 4.32098,1.98791 1.74256,-0.64441 2.63233,-2.57849 1.98792,-4.32104 z"
         clip-path="url(#1558924740288-clipPath1)"
         id="path201"
         inkscape:connector-curvature="0"
         style="stroke:none" />
    </g>
    <g
       font-size="99"
       id="g203"
       style="font-size:99px;font-family:Arial;stroke-width:0.0625;shape-rendering:geometricPrecision;text-rendering:optimizeLegibility">
      <path
         d="m 668.26257,874.79047 -102.77813,-2.0293 c -4.97547,-0.0983 -9.08667,3.85376 -9.18494,8.82922 -0.0983,4.97547 3.85376,9.08667 8.82922,9.18488 l 102.7782,2.02936 c 4.97547,0.0982 9.08667,-3.85376 9.18488,-8.82923 0.0983,-4.97546 -3.85376,-9.08667 -8.82923,-9.18493 z"
         clip-path="url(#1558924740288-clipPath1)"
         id="path205"
         inkscape:connector-curvature="0"
         style="stroke:none" />
    </g>
    <g
       font-size="99"
       id="g207"
       style="font-size:99px;font-family:Arial;stroke-width:0.0625;shape-rendering:geometricPrecision;text-rendering:optimizeLegibility">
      <path
         d="m 437.04413,718.52026 -154.49814,16.5708 c -1.84726,0.19812 -3.18356,1.85553 -2.98541,3.70276 0.19812,1.84723 1.8555,3.18354 3.70276,2.98542 l 154.49813,-16.5708 c 1.84726,-0.19813 3.18354,-1.85553 2.98542,-3.70276 -0.19815,-1.84723 -1.8555,-3.18354 -3.70276,-2.98542 z"
         clip-path="url(#1558924740288-clipPath1)"
         id="path209"
         inkscape:connector-curvature="0"
         style="stroke:none" />
    </g>
    <g
       font-size="99"
       id="g211"
       style="font-size:99px;font-family:Arial;stroke-width:0.0625;shape-rendering:geometricPrecision;text-rendering:optimizeLegibility">
      <path
         d="m 437.4028,721.86432 -3.12237,1.24994 33.27887,108.01965 11.70901,-4.68725 11.70902,-4.68726 -50.45215,-101.14496 z"
         clip-path="url(#1558924740288-clipPath1)"
         id="path213"
         inkscape:connector-curvature="0"
         style="stroke:none" />
    </g>
    <g
       font-size="99"
       id="g215"
       style="font-size:99px;font-family:Arial;stroke-width:0.0625;shape-rendering:geometricPrecision;text-rendering:optimizeLegibility">
      <path
         d="m 279.6134,737.74286 -31.98278,152.05719 c -0.38241,1.81805 0.78092,3.60107 2.59898,3.98346 1.81807,0.38244 3.60112,-0.78089 3.98352,-2.59894 l 31.98277,-152.05713 c 0.38242,-1.81811 -0.78091,-3.60113 -2.599,-3.98352 -1.81805,-0.38245 -3.6011,0.78088 -3.98349,2.59894 z"
         clip-path="url(#1558924740288-clipPath1)"
         id="path217"
         inkscape:connector-curvature="0"
         style="stroke:none" />
    </g>
    <g
       font-size="99"
       id="g219"
       style="font-size:99px;font-family:Arial;stroke-width:0.0625;shape-rendering:geometricPrecision;text-rendering:optimizeLegibility">
      <path
         d="M 390.14139,960.08649 255.40968,882.68085 c -4.315,-2.47907 -9.82022,-0.99134 -12.29925,3.32361 -2.47904,4.315 -0.99137,9.82025 3.32364,12.29925 l 134.7317,77.4057 c 4.315,2.47901 9.82019,0.99133 12.29926,-3.32367 2.47903,-4.315 0.99133,-9.82019 -3.32364,-12.29925 z"
         clip-path="url(#1558924740288-clipPath1)"
         id="path221"
         inkscape:connector-curvature="0"
         style="stroke:none" />
    </g>
    <g
       font-size="99"
       id="g223"
       style="font-size:99px;font-family:Arial;stroke-width:0.0625;shape-rendering:geometricPrecision;text-rendering:optimizeLegibility">
      <path
         d="M 391.09717,975.07611 445.88,933.53143 c 3.96518,-3.00702 4.74161,-8.65661 1.73459,-12.62176 -3.00702,-3.96521 -8.65658,-4.74164 -12.62176,-1.73462 l -54.78284,41.54474 c -3.96521,3.00702 -4.74161,8.65655 -1.73459,12.62176 3.00699,3.96521 8.65659,4.74158 12.62177,1.73456 z"
         clip-path="url(#1558924740288-clipPath1)"
         id="path225"
         inkscape:connector-curvature="0"
         style="stroke:none" />
    </g>
    <g
       font-size="99"
       id="g227"
       style="font-size:99px;font-family:Arial;stroke-width:0.0625;shape-rendering:geometricPrecision;text-rendering:optimizeLegibility">
      <path
         d="m 525.74261,593.99072 -91.06494,125.90253 c -1.08883,1.50537 -0.75131,3.60742 0.75403,4.69623 1.50537,1.0888 3.60742,0.75128 4.69623,-0.75403 l 91.06494,-125.90259 c 1.08881,-1.50531 0.75128,-3.60736 -0.75409,-4.69617 -1.50531,-1.08886 -3.60736,-0.75134 -4.69617,0.75403 z"
         clip-path="url(#1558924740288-clipPath1)"
         id="path229"
         inkscape:connector-curvature="0"
         style="stroke:none" />
    </g>
    <g
       font-size="99"
       id="g231"
       style="font-size:99px;font-family:Arial;stroke-width:0.0625;shape-rendering:geometricPrecision;text-rendering:optimizeLegibility">
      <path
         d="M 683.37946,608.52948 528.81219,592.61621 c -1.84808,-0.19025 -3.49975,1.15308 -3.69006,3.00116 -0.19025,1.84808 1.15308,3.49976 3.00116,3.69 l 154.56726,15.91327 c 1.84809,0.19031 3.49976,-1.15301 3.69,-3.0011 0.19031,-1.84808 -1.15307,-3.49975 -3.00109,-3.69006 z"
         clip-path="url(#1558924740288-clipPath1)"
         id="path233"
         inkscape:connector-curvature="0"
         style="stroke:none" />
    </g>
    <g
       font-size="99"
       id="g235"
       style="font-size:99px;font-family:Arial;stroke-width:0.0625;shape-rendering:geometricPrecision;text-rendering:optimizeLegibility">
      <path
         d="m 749.60687,752.31641 -63.50232,-141.8158 c -0.75927,-1.69562 -2.74847,-2.45435 -4.44403,-1.69513 -1.69562,0.75928 -2.45434,2.74848 -1.69513,4.44409 l 63.50232,141.8158 c 0.75928,1.69562 2.74848,2.45434 4.44409,1.69507 1.69562,-0.75922 2.45435,-2.74842 1.69507,-4.44403 z"
         clip-path="url(#1558924740288-clipPath1)"
         id="path237"
         inkscape:connector-curvature="0"
         style="stroke:none" />
    </g>
    <g
       font-size="99"
       id="g239"
       style="font-size:99px;font-family:Arial;stroke-width:0.0625;shape-rendering:geometricPrecision;text-rendering:optimizeLegibility">
      <path
         d="m 670.9649,885.53424 78.45258,-130.10663 c 0.95935,-1.591 0.44751,-3.65753 -1.14343,-4.61688 -1.59101,-0.95935 -3.65753,-0.44751 -4.61688,1.14343 l -78.45258,130.10669 c -0.95935,1.59101 -0.44751,3.65753 1.14343,4.61688 1.59101,0.95935 3.65753,0.44751 4.61688,-1.14349 z"
         clip-path="url(#1558924740288-clipPath1)"
         id="path241"
         inkscape:connector-curvature="0"
         style="stroke:none" />
    </g>
    <g
       font-size="10"
       transform="matrix(5.5494381,0,0,5.5494381,-727.94658,-4738.6708)"
       id="g243"
       style="font-size:10px;font-family:sans-serif;fill:#ffffff;stroke:#ffffff;stroke-width:0.0625;shape-rendering:geometricPrecision;text-rendering:optimizeLegibility">
      <g
         clip-path="url(#1558924740224-clipPath1)"
         style="stroke:none"
         id="text245">
        <path
           d="m 162.41037,1052.5947 -1.16699,0 0,-1.3916 1.16699,0 0,1.3916 z"
           style="stroke:none"
           id="path3609" />
      </g>
    </g>
    <g
       font-size="10"
       transform="matrix(5.5494381,0,0,5.5494381,-8320.1654,-549.03727)"
       id="g247"
       style="font-size:10px;font-family:sans-serif;fill:#ffffff;stroke:#ffffff;stroke-width:0.0625;shape-rendering:geometricPrecision;text-rendering:optimizeLegibility">
      <g
         clip-path="url(#1558924740196-clipPath1)"
         style="stroke:none"
         id="text249">
        <path
           d="m 1831.236,131.68243 -1.167,0 0,-1.3916 1.167,0 0,1.3916 z"
           style="stroke:none"
           id="path3612" />
      </g>
    </g>
  </g>
</svg>
