<?xml version="1.0"?><svg width="3697.3796" height="2322.2773" xmlns="http://www.w3.org/2000/svg" xmlns:xlink="http://www.w3.org/1999/xlink">

 <metadata id="metadata7">image/svg+xml</metadata>
 <g>
  <title>Layer 1</title>
  <g id="layer1">
   <g transform="matrix(4.02006 0 0 4.02006 -1674.44 -302.064)" id="g2387">
    <path fill="#ffffff" stroke="#000000" stroke-width="2" d="m429.330078,190.545654c-0.913971,1.761292 -1.99118,3.40799 -1.991302,5.340988l0.009033,0.807892c0,4.171997 3.265869,6.694107 7.020569,6.694107l121.319733,0c3.754944,0 6.988831,-3.126526 6.988831,-7.298523l-0.039856,-0.811478c0,-1.932999 -0.950317,-3.611511 -1.990967,-5.340988l-60.083435,-107.780205c-2.654602,-2.94957 -6.958313,-2.94957 -9.613281,0.000397l-61.619324,108.38781z" id="path1616"/>
    <path fill="#ffcc00" stroke="#000000" stroke-width="4.8516" stroke-linecap="round" stroke-linejoin="round" d="m495.560089,85.755142l-63.423309,111.836502l61.187012,0l2.852112,0l60.507202,0l-60.310516,-111.836502l-0.8125,0z" id="path1617"/>
    <g id="g2391"/>
    <path fill="#000000" fill-rule="evenodd" stroke="#000000" stroke-width="0" stroke-linecap="square" marker-start="none" marker-mid="none" stroke-miterlimit="4" stroke-dashoffset="0" d="m490.340637,112.641571l-14.629456,51.119003l17.824402,-10.425568l-1.177094,21.019302l-5.044647,-0.336304l4.37204,15.974701l10.257446,-14.461304l-5.212799,-0.672607l10.257416,-35.144333l-22.869019,13.956833l16.983612,-40.693405l-10.761902,-0.336319z" id="path3186"/>
   </g>
   <g transform="matrix(10.6352 0 0 10.6352 28.9269 1377.51)" id="g1123">
    <path fill="#000000" d="m277.60965,41.97937l-38.509399,0l75.924408,40.142899l0,-20.360901l-37.415009,-19.781998z" id="path1124"/>
    <path fill="#ffcc00" d="m315.024658,41.97937l-37.415009,0l37.415009,19.781998l0,-19.781998z" id="path1125"/>
    <path fill="#ffcc00" d="m199.847336,41.97937l85.781326,45.354599l29.395996,0l0,-5.2117l-75.385956,-40.32238l-39.791367,0.179482z" id="path1126"/>
    <path fill="#000000" d="m173.292038,41.97937l0,7.405796l71.774307,37.948803l40.562317,0l-85.781326,-45.354599l-26.555298,0z" id="path1127"/>
    <path fill="#ffcc00" d="m173.292038,70.139069l32.5215,17.194901l39.252808,0l-71.774307,-37.948803l0,20.753902z" id="path1128"/>
    <path fill="#000000" d="m173.292038,87.333969l32.5215,0l-32.5215,-17.194901l0,17.194901z" id="path1129"/>
    <path fill="none" stroke="#000000" stroke-width="3" d="m315.024658,87.334068l0,-45.354698l-141.732513,0l0,45.354698l141.732513,0z" id="path1130"/>
   </g>
   <g transform="matrix(0.823131 0 0 0.823131 -454.31 258.8)" id="g2505">
    <g id="g2507">
     <g id="g2119">
      <path fill="none" fill-rule="evenodd" stroke="#000000" stroke-width="12.5" stroke-linecap="round" stroke-miterlimit="4" d="m2404.069336,409.420074c-8.766357,0.43103 -16.706787,5.281189 -21.098145,12.880676c-109.061279,188.916412 -218.122559,377.832794 -327.184082,566.749237c-4.618164,7.994324 -4.614258,17.839905 0,25.836975c4.614502,7.99707 13.125977,12.928467 22.358398,12.93103c217.215332,0.041992 434.430664,0.083984 651.645752,0.126099c9.210693,-0.005127 17.713379,-4.912292 22.333252,-12.880676c4.619629,-7.968384 4.647705,-17.790649 0.075439,-25.78656c-108.153809,-188.958435 -216.307617,-377.91687 -324.46167,-566.875275c-4.825195,-8.436005 -13.96167,-13.451904 -23.668945,-12.981506z" id="path1825"/>
      <path fill="#ffcc00" fill-rule="evenodd" stroke="#000000" stroke-width="29.443962" stroke-linecap="round" stroke-linejoin="round" stroke-miterlimit="4" d="m2405.32959,436.290497c-108.756348,188.388397 -217.52002,376.772797 -326.276611,565.161224c216.610352,0.04187 433.220703,0.084106 649.830811,0.126038c-107.854004,-188.434814 -215.699219,-376.851013 -323.554199,-565.287262z" id="path1937"/>
     </g>
    </g>
    <path fill="#000000" d="m2416.413086,554.501587l-7.921875,7.893738c-2.909668,-2.078247 -6.231201,-4.561096 -7.893799,-5.807556c9.144287,7.896851 5.004395,20.768188 5.835693,31.575073c-16.210205,11.222168 -2.502441,28.75238 -3.749512,44.007751c0.752441,-1.354309 1.566895,-2.688171 2.086182,-4.116028c6.234863,3.740845 3.32959,12.489807 9.97998,14.152405c-2.493896,-15.378479 -11.641846,-30.348999 -8.31665,-45.727478l9.97998,7.893738c0,-4.572083 1.238037,-9.572266 -3.749512,-12.066162c-4.572021,-12.469482 -0.406494,-26.583496 3.749512,-37.805481zm-13.729492,77.697205c-1.351563,2.433044 -2.64209,4.895447 -2.452637,7.893738c1.436035,-2.527832 2.227051,-5.171387 2.452637,-7.893738zm-2.452637,7.921997c-1.240723,2.177551 -2.947998,4.264893 -5.441162,6.230408c-6.650391,10.391235 3.325928,21.211853 1.66333,29.939941c-38.239258,42.39563 -48.624023,113.888672 -109.723389,129.68335l2.057861,59.851685l66.110352,-26.190369l3.721436,4.144165c-19.950684,11.22406 -42.375488,17.45459 -63.572998,25.767517c15.378418,3.740845 10.368408,25.359863 27.825439,27.85376c23.275879,-6.234741 39.48584,15.811401 59.851807,22.046143c5.40332,29.505981 34.520752,8.710083 49.899902,26.162231l71.889648,-24.104187l-2.086182,-59.851685c-22.860352,-19.537048 -31.170166,-57.363525 -24.104248,-87.705383l-7.893799,9.97998c-1.309082,-0.654541 -1.7229,-1.666992 -1.916992,-2.762817c0.195313,3.212036 0.173584,6.464722 -2.227295,8.598511l-3.157471,-1.832458c9.151611,7.714783 8.652344,21.393677 13.137695,31.744263c5.818848,8.728088 -0.419922,16.626038 -9.980225,16.210388l-47.813721,-29.911743c-4.987061,-41.564392 -7.054443,-86.455627 -5.807373,-128.02002c18.703613,24.107666 39.484619,49.856506 43.641357,78.120117c0.831055,-2.493896 -1.238525,-6.654541 2.085938,-8.31665c3.740967,2.078247 3.736572,5.822754 6.230713,8.31665l0,-9.97998l3.721191,1.66333c-19.534912,-22.860718 -33.641113,-49.853027 -51.929688,-71.466797l-3.749512,-2.086182c7.065918,-4.987793 8.724854,-12.062683 7.893799,-19.959961c-3.325195,-7.897339 -14.141357,-6.218933 -19.959961,-12.038025c-0.205078,-0.717957 -0.322998,-1.426147 -0.366455,-2.086182zm62.89624,147.810791c-1.873291,-1.579346 -3.997559,-3.014404 -6.822266,-4.003235l6.822266,4.003235zm-62.529785,-137.830811c2.493896,2.909485 2.086182,7.88147 2.086182,12.037964c0,5.819092 -7.489746,-7.881531 -2.086182,-12.037964zm4.172363,31.997925l3.721436,101.829651c-16.210449,14.54718 -27.015137,-9.564331 -41.978027,-9.97998l0,61.937866c-5.403564,-19.950623 3.744385,-46.538696 -7.893799,-63.995911l-19.931641,9.951782l0,-5.807556l56.102051,-83.955872l-4.172363,87.705383l5.835693,6.230469l4.144287,-6.230469l4.172363,-97.685364zm1.66333,109.723389c4.572266,22.860657 8.71582,47.808655 4.144287,71.917847c-27.848389,9.559937 -54.861084,21.203369 -83.955811,27.85376c-2.909668,-6.650391 -13.305908,-2.921936 -11.643311,-12.066223l81.474854,-29.911743c9.560059,-17.043152 -1.239014,-34.916992 2.086182,-53.621216l7.893799,-4.172424zm71.889648,45.727478c4.572266,18.70575 8.744629,44.052734 4.172363,66.082092l-77.725342,27.85376c-4.987793,0 -9.156738,-2.066711 -12.066162,-5.807556l73.581055,-26.19043c16.625977,-15.378967 2.481689,-38.256592 4.144287,-57.79364l7.893799,-4.144226zm-107.637207,6.230408c2.909668,0.831299 5.81543,1.255676 7.893799,3.749573c-0.415039,4.15802 -8.309326,0.822571 -7.893799,-3.749573zm44.064209,25.767517c15.794189,6.650391 30.320801,17.461792 45.699219,26.19043c-17.456787,-3.740845 -30.736328,-17.046143 -45.699219,-26.19043z" id="path1373"/>
   </g>
   <g transform="matrix(0.823019 0 0 0.823019 740.573 853.906)" id="g2604">
    <g id="g2606">
     <g id="g2608">
      <path fill="none" fill-rule="evenodd" stroke="#000000" stroke-width="12.5" stroke-linecap="round" stroke-miterlimit="4" d="m2404.345703,409.466156c-8.766357,0.43103 -16.706787,5.281189 -21.098145,12.880676c-109.061279,188.916412 -218.122559,377.832794 -327.183838,566.749237c-4.618408,7.994324 -4.614258,17.839905 0,25.836975c4.614014,7.99707 13.125977,12.928528 22.358398,12.931091c217.215088,0.04187 434.43042,0.083984 651.645508,0.125977c9.210693,-0.005127 17.713623,-4.912231 22.333252,-12.880615c4.619873,-7.968384 4.647705,-17.790649 0.075684,-25.78656c-108.153809,-188.958435 -216.307861,-377.91687 -324.46167,-566.875275c-4.825439,-8.436005 -13.961914,-13.451904 -23.669189,-12.981506z" id="path2610"/>
      <path fill="#ffcc00" fill-rule="evenodd" stroke="#000000" stroke-width="29.443962" stroke-linecap="round" stroke-linejoin="round" stroke-miterlimit="4" d="m2405.605957,436.336578c-108.756592,188.388397 -217.52002,376.772797 -326.276367,565.161224c216.610107,0.04187 433.220459,0.084106 649.830566,0.126038c-107.854248,-188.434814 -215.698975,-376.851013 -323.554199,-565.287262z" id="path2612"/>
     </g>
    </g>
    <g id="g1196" transform="matrix(0.925703 0 0 0.925703 31.3296 35.7351)"/>
    <g id="g4359" transform="matrix(0.925703 0 0 0.925703 -555.541 27.814)">
     <path fill="#030303" fill-rule="nonzero" stroke="#000000" stroke-width="0" stroke-linecap="round" stroke-linejoin="round" stroke-miterlimit="4" d="m3249.650391,954.396057a46.868473,46.868473 0 1 1 -93.737061,0a46.868473,46.868473 0 1 1 93.737061,0z" id="path3656"/>
     <path fill="#000000" fill-rule="evenodd" stroke-width="95.75" stroke-linecap="round" stroke-miterlimit="4" d="m3197.604736,581.12323c-26.416016,0.396729 -47.518799,22.114746 -47.15625,48.53125l7.5,200.875c0.644287,17.255127 3.826904,30.82489 18.73999,39.52887c14.912842,8.703979 28.357178,8.703979 43.27002,0c14.913086,-8.703979 18.095947,-22.273743 18.73999,-39.52887l7.5,-200.875c0.17749,-12.93573 -4.887207,-25.392822 -14.041016,-34.534729c-9.153564,-9.141968 -21.617188,-14.190674 -34.552734,-13.996521l0,0z" id="path4355"/>
    </g>
   </g>
   <g transform="matrix(4.14302 0 0 4.14302 1408.73 -318.531)" id="g2645">
    <g id="g8">
     <path fill="#ffffff" stroke="#000000" stroke-width="2" d="m416.958862,188.485168c-0.850555,1.729462 -1.959381,3.598846 -1.991211,5.339996l0.008728,0.839691c0,4.171997 3.266174,6.662308 7.020569,6.662308l121.320007,0c3.756042,0 6.956055,-3.285568 6.956055,-7.457565l-0.008057,-0.651428c0,-1.934006 -1.108337,-3.931641 -1.991028,-5.34201l-60.083649,-107.779999c-2.654327,-2.949799 -6.956512,-2.949799 -9.612823,0l-61.618591,108.389008z" id="path2648"/>
     <path fill="#ffcc00" stroke="#000000" stroke-width="4.8516" stroke-linecap="round" stroke-linejoin="round" d="m483.188843,83.693764l-63.42337,111.836403l61.186981,0l2.851105,0l60.507416,0l-60.31012,-111.836403l-0.812012,0z" id="path10"/>
    </g>
    <g id="g11">
     <path fill="#000000" d="m479.139954,150.325165l-15.9375,0l0,9.3125l14.625,0l0,7.5625l-14.625,0l0,11.25l16.6875,0l0,7.812988l-22.9375,0l0,-43.625488l22.1875,0l0,7.6875z" id="path12"/>
     <path fill="#000000" d="m489.169769,186.263153l-7.452606,0l9.898895,-22.227081l-9.398895,-21.398407l7.651794,0l5.489319,14.185486l5.589783,-14.185486l7.455902,0l-9.398285,21.042892l9.961304,22.582596l-7.795227,0l-5.808594,-14.85199l-6.19339,14.85199z" id="path13"/>
    </g>
   </g>
   <g transform="matrix(0.823131 0 0 0.823131 -491.784 853.829)" id="g2718">
    <g id="g2720">
     <g id="g2722">
      <path fill="none" fill-rule="evenodd" stroke="#000000" stroke-width="12.5" stroke-linecap="round" stroke-miterlimit="4" d="m2404.069336,409.420074c-8.766357,0.43103 -16.706787,5.281189 -21.098145,12.880676c-109.061279,188.916412 -218.122559,377.832794 -327.184082,566.749237c-4.618164,7.994324 -4.614258,17.839905 0,25.836975c4.614502,7.99707 13.125977,12.928467 22.358398,12.93103c217.215332,0.041992 434.430664,0.083984 651.645752,0.126099c9.210693,-0.005127 17.713379,-4.912292 22.333252,-12.880676c4.619629,-7.968384 4.647705,-17.790649 0.075439,-25.78656c-108.153809,-188.958435 -216.307617,-377.91687 -324.46167,-566.875275c-4.825195,-8.436005 -13.96167,-13.451904 -23.668945,-12.981506z" id="path2724"/>
      <path fill="#ffcc00" fill-rule="evenodd" stroke="#000000" stroke-width="29.443962" stroke-linecap="round" stroke-linejoin="round" stroke-miterlimit="4" d="m2405.32959,436.290497c-108.756348,188.388397 -217.52002,376.772797 -326.276611,565.161224c216.610352,0.04187 433.220703,0.084106 649.830811,0.126038c-107.854004,-188.434814 -215.699219,-376.851013 -323.554199,-565.287262z" id="path2726"/>
     </g>
    </g>
    <g id="g2728" transform="matrix(0.925703 0 0 0.925703 31.3296 35.7351)"/>
    <g id="g3526" transform="matrix(0.910717 0 0 0.910717 -706.612 187.073)">
     <g id="g3510">
      <g id="g3501">
       <path fill="none" fill-opacity="0.75" fill-rule="evenodd" stroke="#000000" stroke-width="33.754879" stroke-linecap="round" stroke-miterlimit="4" d="m3416.034912,532.10675l0,138.267578" id="path3440"/>
       <g id="g3498">
        <path fill="none" fill-opacity="0.75" fill-rule="evenodd" stroke="#000000" stroke-width="33.75" stroke-linecap="round" stroke-miterlimit="4" d="m3418.882324,568.524841l31.86792,-18.398865" id="path3494"/>
        <path fill="none" fill-opacity="0.75" fill-rule="evenodd" stroke="#000000" stroke-width="33.75" stroke-linecap="round" stroke-miterlimit="4" d="m3413.250244,568.524841l-31.86792,-18.398865" id="path3497"/>
       </g>
      </g>
      <use height="744.09448" id="use3506" transform="matrix(0.5 -0.866025 0.866025 0.5 333.285 1170.14)" width="1052.3622" x="0" xlink:href="#g3501" y="0"/>
     </g>
     <use height="744.09448" id="use3524" transform="matrix(-0.5 -0.866025 0.866025 -0.5 1512.36 1473.07)" width="1052.3622" x="0" xlink:href="#g3510" y="0"/>
     <use height="744.09448" id="use3525" transform="matrix(-0.5 0.866025 -0.866025 -0.5 2027.64 -570.614)" width="1052.3622" x="0" xlink:href="#g3510" y="0"/>
    </g>
   </g>
   <g transform="matrix(0.823019 0 0 0.823019 -1053.24 -330.485)" id="g2757">
    <g id="g2759">
     <g id="g2761">
      <path fill="none" fill-rule="evenodd" stroke="#000000" stroke-width="12.5" stroke-linecap="round" stroke-miterlimit="4" d="m2404.345703,409.466156c-8.766357,0.43103 -16.706787,5.281189 -21.098145,12.880676c-109.061279,188.916412 -218.122559,377.832794 -327.183838,566.749237c-4.618408,7.994324 -4.614258,17.839905 0,25.836975c4.614014,7.99707 13.125977,12.928528 22.358398,12.931091c217.215088,0.04187 434.43042,0.083984 651.645508,0.125977c9.210693,-0.005127 17.713623,-4.912231 22.333252,-12.880615c4.619873,-7.968384 4.647705,-17.790649 0.075684,-25.78656c-108.153809,-188.958435 -216.307861,-377.91687 -324.46167,-566.875275c-4.825439,-8.436005 -13.961914,-13.451904 -23.669189,-12.981506z" id="path2763"/>
      <path fill="#ffcc00" fill-rule="evenodd" stroke="#000000" stroke-width="29.443962" stroke-linecap="round" stroke-linejoin="round" stroke-miterlimit="4" d="m2405.605957,436.336578c-108.756592,188.388397 -217.52002,376.772797 -326.276367,565.161224c216.610107,0.04187 433.220459,0.084106 649.830566,0.126038c-107.854248,-188.434814 -215.698975,-376.851013 -323.554199,-565.287262z" id="path2765"/>
     </g>
    </g>
    <g id="g2229" transform="matrix(0.910717 0 0 0.910717 -81.296 42.7752)"/>
    <g id="g2768" transform="matrix(5.18023 0 0 5.18023 -42.7921 1.3769)">
     <path fill="#000000" d="m472.247772,133.278687c0,0 10.734314,-1.110397 10.734314,5.182098c0,6.292496 -5.552216,44.788788 -5.552216,44.788788l11.104492,1.110016l4.441925,-45.528717c0,0 -1.8508,-13.325485 -21.468903,-13.325485l1.480682,0c-19.618073,0 -21.468903,13.325485 -21.468903,13.325485l4.441925,45.528717l11.104492,-1.110016c0,0 -5.552307,-38.496292 -5.552307,-44.788788c0,-6.292496 10.734497,-5.182098 10.734497,-5.182098z" id="path2770"/>
     <path fill="#ffcc00" d="m457.441681,182.693588l-0.925415,-6.847l8.143311,-1.119019l0.925385,7.041l-8.14328,0.925018z" id="path2772"/>
     <path fill="#ffcc00" d="m487.423981,183.063583l0.925293,-6.847l-8.14328,-1.119003l-0.925415,7.041l8.143402,0.925003z" id="path2774"/>
    </g>
   </g>
   <g transform="matrix(4.02007 0 0 4.02007 -1110.87 1488.69)" id="g2806">
    <g id="g1699">
     <path fill="#ffffff" stroke="#000000" stroke-width="2" d="m429.329742,190.545593c-0.948517,1.691559 -1.991089,3.408005 -1.991302,5.341003l-0.09314,0.598694c0,4.171005 3.368042,6.903305 7.122742,6.903305l121.319702,0c3.755005,0 6.960449,-3.057159 6.960449,-7.228149l-0.011475,-0.881851c-0.216553,-1.824722 -0.880554,-3.378723 -1.990967,-5.341003l-60.083313,-107.780098c-2.654694,-2.949638 -6.958282,-2.949638 -9.613281,0.000298l-61.619415,108.387802z" id="path1700"/>
     <path fill="#ffcc00" stroke="#000000" stroke-width="4.8516" stroke-linecap="round" stroke-linejoin="round" d="m495.559845,85.755188l-63.423401,111.836411l61.187012,0l2.852203,0l60.50708,0l-60.310394,-111.836411l-0.8125,0z" id="path1701"/>
    </g>
    <g id="g1702">
     <path fill="#000000" d="m495.39856,120.220291c0.230896,3.117798 2.655792,5.658203 2.424896,8.660599c1.962982,2.078506 2.309509,6.582001 5.080811,6.582001c1.732086,-1.963104 -1.385712,-5.31189 1.616669,-5.542694c1.616608,3.925995 1.616608,8.429504 4.157013,11.893707c2.194,-0.346313 2.655914,-3.810608 5.311798,-3.810608l0.231018,0.230988c-1.847595,4.388 -0.923828,10.046204 -1.963013,14.665115c1.847595,1.732101 3.233215,-1.847504 4.965027,-1.0392c-6.004333,6.928497 -1.154419,14.2034 -3.002014,22.401398c-0.923828,5.080994 -5.427307,7.621994 -8.89151,11.085999c-0.346405,1.386002 0.577393,1.731995 1.38559,2.194l12.240906,0c0.22998,0.692993 -0.231995,1.72699 -0.809021,1.72699c-15.530579,0.500015 -28.406494,-0.19899 -43.302582,-0.121002c-0.230988,-0.346985 -0.692902,-1.375 -0.577393,-1.83699l12.471191,-0.231003c0.577301,-0.345993 0.69281,-0.923996 0.346405,-1.385986c-5.080902,-3.117004 -9.353394,-7.621002 -9.69989,-13.856003l-0.808197,-1.155014c0.346375,-7.736786 0.808197,-14.780792 -2.540497,-21.593796c2.771393,-2.078506 5.311768,6.0047 6.120178,0c0,-2.886795 -1.616608,-7.505905 1.385712,-9.122391c0.808289,1.616486 1.039185,4.041595 3.348694,4.618988c2.771393,-1.154892 1.38559,-4.850006 1.616608,-7.159607c-0.115417,-1.962891 -2.771301,-3.348587 -1.385712,-5.311584c2.540497,-0.577408 3.926208,5.080902 6.351105,1.38559c-0.69281,-5.542793 -1.154694,-11.893799 1.385681,-17.090096c0.230927,-0.923798 -0.461884,-2.309494 0.577423,-2.7714c5.196289,-0.461899 0.461914,4.041504 1.963104,6.582001z" id="path1703"/>
     <path fill="#ffcc00" d="m502.326965,140.197296c-0.346497,0.923706 -0.346497,2.309601 -1.154724,2.771393c-1.039276,0.461807 -0.923889,-0.577301 -1.385803,-1.154785c0.115601,-1.270203 -1.732086,-3.117813 -0.230896,-4.618805c2.309509,-0.577499 1.963013,1.847397 2.771423,3.002197z" id="path1704"/>
     <path fill="#ffcc00" d="m497.361542,144.931702c0.69281,1.616699 2.078613,3.348785 1.385712,5.196381c-1.963104,-0.115479 -4.619019,0.692902 -5.080902,-1.847595c-0.346405,-3.579697 0.461884,-6.928497 2.540405,-9.237991c1.963104,1.039307 0.115601,4.041702 1.154785,5.889206z" id="path1705"/>
     <path fill="#ffcc00" d="m490.894958,146.548401c0.461884,1.847595 0.692902,4.503494 -1.38562,5.311798c-1.385681,0.692902 -1.50119,-1.039215 -2.194092,-1.732117c-0.346405,-2.078583 0.461914,-3.810593 1.154785,-5.542694c1.385712,-0.461899 1.963013,1.270111 2.424927,1.963013z" id="path1706"/>
     <path fill="#ffcc00" d="m503.943542,145.509094c1.154724,1.732208 0.231018,4.041595 0.346497,6.004608c-0.346497,0.577499 -0.923889,0.230988 -1.385773,0.346497c-1.154724,-1.270203 -2.078522,-2.540497 -1.732025,-4.50351c0.808228,-0.692795 0.461914,-2.193893 1.963013,-2.193893c0.115479,0.346298 0.577393,0.346298 0.808289,0.346298z" id="path1707"/>
     <path fill="#ffcc00" d="m509.486359,151.282791c-1.039307,1.84761 1.154694,3.46431 -0.808411,4.388107c-2.309387,-0.115509 -1.963104,-3.002396 -1.963104,-4.965515c-0.577301,-3.579697 3.464294,-1.732086 2.771515,0.577408z" id="path1708"/>
     <path fill="#ffcc00" d="m482.927246,156.248199c-0.923798,0.230896 -1.38559,1.732086 -2.540405,1.154785c-1.270203,-1.385788 0,-3.117889 0,-4.734482l1.154816,-1.1548c1.38559,1.039398 2.771301,3.117798 1.38559,4.734497z" id="path1709"/>
     <path fill="#ffcc00" d="m509.486359,158.788696c3.810577,6.582001 3.810577,15.819901 -1.039307,21.824905c-4.388,5.310989 -12.355713,6.811996 -19.168701,4.733994c-6.120209,-3.001999 -10.739014,-9.584 -10.277191,-16.050797c-1.154816,-3.926102 0.692902,-7.621307 2.771393,-10.277298c2.194,-3.348602 5.889191,-5.311707 9.468903,-6.350998c6.928406,-0.923813 13.510498,0.808395 18.244904,6.120193z" id="path1710"/>
    </g>
   </g>
   <g transform="matrix(4.02007 0 0 4.02007 -1102.71 882.326)" id="g1761">
    <path fill="#ffffff" stroke="#000000" stroke-width="2" d="m429.329315,190.546539c-0.868286,1.818542 -1.991211,3.406998 -1.991211,5.339996l-0.036591,0.714676c0,4.171997 3.311493,6.787323 7.065887,6.787323l121.320038,0c3.755005,0 6.951111,-3.113007 6.951111,-7.285004l-0.003113,-0.824997c0,-1.932999 -0.969299,-3.636307 -1.991028,-5.341003l-60.082703,-107.779999c-2.654297,-2.949738 -6.958008,-2.949738 -9.613281,0l-61.61911,108.389008z" id="path1762"/>
    <path fill="#ffcc00" stroke="#000000" stroke-width="4.8516" stroke-linecap="round" stroke-linejoin="round" d="m495.559326,85.755127l-63.423401,111.836411l61.186981,0l2.852112,0l60.507416,0l-60.310608,-111.836411l-0.8125,0z" id="path1763"/>
    <g id="g1764">
     <path fill="#000000" d="m501.760925,134.937332c-6.561005,1.052704 -13.202606,4.373489 -19.844727,3.158707c-1.214783,-1.214905 -0.810089,-3.645111 -0.323669,-5.1026l1.539001,-1.134308c5.750488,-1.295898 11.663574,-2.024902 17.090393,-3.8881c0.891083,2.106407 1.134186,4.617104 1.539001,6.966301z" id="path1765"/>
     <path fill="#ffcc00" d="m500.627106,132.993439l0,0.809601l-17.900787,0c4.778809,-2.672913 11.177704,-2.835007 16.685486,-4.292999l1.215302,3.483398z" id="path1766"/>
     <path fill="#000000" d="m502.976318,144.657028c-0.729492,0.324203 -1.134308,1.053192 -1.944397,0.810013c-3.077606,-1.943817 0.64801,-3.969208 0.324188,-6.236816c0.485901,1.458008 2.268097,3.077698 1.620209,5.426804z" id="path1767"/>
     <path fill="#000000" d="m488.963104,144.657028c1.863312,1.214798 2.430206,3.320801 1.539001,5.103012c-1.133789,2.105988 -3.563873,2.186996 -5.426697,1.539093c-4.698303,-1.053192 -9.558105,-2.673401 -14.013184,-3.15921c-0.3237,-2.024902 0.405304,-5.345688 1.134277,-7.775894c5.184113,2.430206 11.09671,2.916 16.766602,4.292999z" id="path1768"/>
     <path fill="#ffcc00" d="m488.963104,146.19603l-17.09079,0l1.134216,-4.211899c5.507782,0.810104 10.610901,2.753906 15.956573,4.211899z" id="path1769"/>
     <path fill="#000000" d="m503.300018,159.075043c-0.566895,0.647888 -1.539093,0.242599 -2.268097,0.404678c-2.105896,-2.26799 1.295898,-4.130783 0.729004,-6.641586c1.701172,1.619705 1.701172,4.373596 1.539093,6.236908z" id="path1770"/>
     <path fill="#000000" d="m471.872314,159.479721c-0.97171,-0.243088 -2.268097,0.485916 -2.753998,-0.809982l1.134308,-5.022003c1.133789,1.701202 2.834991,3.645004 1.61969,5.831985z" id="path1771"/>
     <path fill="#000000" d="m530.191406,166.85083c1.700989,0.64801 3.888,0.242706 5.832031,0.4048l0,15.146896c-8.424011,1.619995 -16.765991,4.536011 -25.27182,1.134003c-5.264618,-1.053009 -11.582489,0.729004 -16.361298,-1.539001c-0.701599,-1.617996 0.416504,-1.689987 1.323303,-2.029999c0.525787,-0.078003 0.982391,-0.22699 1.430603,-0.319c10.486786,-0.008987 12.825195,0.412003 12.987305,0.169006c-0.241699,-0.089996 0.246582,-1.220001 -0.195801,-1.272003c-3.811523,-0.446991 -15.364197,0.983994 -19.436005,-0.619003c-0.608917,-0.238998 -0.679718,-0.440994 -0.981903,-0.792999c-0.194397,-0.225998 -0.109406,-0.688004 -0.149506,-0.968002l0.338409,-0.354004l0.842804,-0.080994l19.298279,-0.667999c-0.195282,-0.089996 0.118713,-1.063995 -0.10788,-1.115997c-1.625519,-0.372009 -21.850616,0.949005 -22.928223,-0.151993c-0.391083,-0.399002 -0.487274,-0.917007 -0.467773,-1.837006c0.302277,-0.340012 0.510773,-0.550003 0.862793,-0.712006c2.462891,-1.130997 19.405792,0.131012 22.081573,-0.492996c0.601013,0.098007 -0.429688,-0.149994 0.026825,-0.419006c-0.640106,-0.182999 -13.509308,-0.673996 -14.212921,-0.744995c-1.788971,-0.181503 -3.611786,-0.26651 -4.600098,-1.603897c-0.566895,-1.701096 1.377014,-1.943802 2.349213,-2.349106c2.024902,-0.485794 3.401794,0.891006 5.426697,0.405304c-0.080994,0.809998 0.081116,1.458008 0.810089,1.943802c2.672821,1.700897 5.426727,-1.214798 8.099609,-1.943802c0.809998,-0.0811 1.782196,0.3237 2.349091,-0.405304c-1.376892,-0.971695 -3.401886,-2.267593 -3.078094,-4.211899c8.262238,1.053207 17.090729,0.486313 23.732697,5.4272z" id="path1772"/>
     <path fill="#000000" d="m472.601318,169.199524c-0.64801,0.810013 -1.862793,1.62001 -2.672913,0.729004c-1.295898,-1.538589 0.081116,-4.049805 0.729004,-5.831589c1.701202,1.295898 1.377014,3.320786 1.943909,5.102585z" id="path1773"/>
     <path fill="#000000" d="m467.1745,173.087524c1.539124,3.078003 5.264618,2.187012 7.775909,1.944c0.809998,-3.644989 4.697693,-1.29599 6.96579,-1.944l0,5.427002l-27.21579,0l0,-5.427002l12.474091,0z" id="path1774"/>
    </g>
   </g>
   <g transform="matrix(4.02006 0 0 4.02006 1431.26 287.298)" id="g2913">
    <g id="g1830">
     <path fill="#ffffff" stroke="#000000" stroke-width="2" d="m429.330078,190.545654c-1.219208,1.962265 -1.99118,3.40799 -1.991302,5.340988l0.069275,0.544556c0,4.172012 3.205627,6.957443 6.960327,6.957443l121.319733,0c3.754944,0 7.014526,-3.110291 7.014526,-7.282288l-0.065552,-0.827713c0,-1.932999 -1.042969,-3.649429 -1.990967,-5.340988l-60.083435,-107.780205c-2.654602,-2.94957 -6.958313,-2.94957 -9.613281,0.000397l-61.619324,108.38781z" id="path1831"/>
     <path fill="#ffcc00" stroke="#000000" stroke-width="4.8516" stroke-linecap="round" stroke-linejoin="round" d="m495.560089,85.755142l-63.423309,111.836502l61.187012,0l2.852112,0l60.507202,0l-60.310516,-111.836502l-0.8125,0z" id="path1832"/>
    </g>
    <g id="g1833">
     <path fill="#000000" d="m500.731689,117.641342c0.115814,1.041809 -1.273407,1.852203 -0.463013,2.778305c2.546814,-2.546799 4.167511,-6.135498 5.788116,-9.3769c1.157684,1.389198 1.273376,2.778397 2.778412,3.820198c-1.852234,4.7463 -7.756226,8.334999 -8.103516,13.660095c3.009888,3.357208 8.913788,-6.482697 7.293091,1.620697c-2.083679,1.620712 -3.12558,5.788208 -6.367004,3.704498c-1.620697,-1.041885 -0.231506,-2.662598 -2.315186,-3.704498c-3.936005,4.630615 -5.904022,10.071411 -9.724213,14.817719c-2.894104,5.556686 -5.55658,10.418793 -9.145294,15.743896c-1.041901,1.273392 0,2.77829 0,4.167496c1.157715,1.620697 5.325104,-3.125595 3.936005,0.926102c-2.199493,2.546799 -6.019714,2.430984 -8.682312,2.77829c-1.273407,-3.357086 4.514801,-4.398987 2.77832,-8.103394c2.083801,-4.051804 4.862091,-7.872009 6.135498,-12.270996c7.987701,-12.734009 11.807892,-27.204399 18.637878,-40.517204c2.083832,3.241402 -1.273376,6.830101 -2.546783,9.955696z" id="path1834"/>
     <path fill="#000000" d="m473.295776,151.907257c1.157593,1.389191 -1.157593,2.662598 0.231506,3.82019c0,4.6306 -3.241394,7.872009 -2.431,12.849792c-0.694611,1.042404 -2.199493,0.347305 -3.12561,0.231506c-3.357178,-5.788101 -3.588684,-12.849701 -5.788177,-19.216705l0.810303,-1.852203c3.241394,3.588608 1.620697,8.798019 3.588684,13.312805c0.810303,1.041901 2.199493,1.389099 3.357117,0.810303c1.736481,-1.620697 1.157684,-4.051697 1.967987,-6.135498c-1.273407,-1.852112 -4.283203,-1.620605 -3.935913,-4.167404c2.546814,-1.852188 -0.69458,-8.219193 4.746307,-6.598587c1.967896,-3.820099 0.578796,-8.913712 2.199493,-12.849701c-1.041901,-4.746307 3.820221,-8.450714 5.55661,-12.734009c-2.77829,10.997604 -4.283203,21.531998 -7.177307,32.52951z" id="path1835"/>
     <path fill="#000000" d="m492.165192,124.124046c-1.620697,2.546799 -2.77829,6.019691 -5.788116,7.756203c-0.926086,-0.463104 -2.083801,-1.389206 -1.967987,-2.546799c2.199493,-2.315308 3.009796,-8.334999 7.756104,-5.209404z" id="path1836"/>
     <path fill="#000000" d="m518.791077,129.33345c-0.578979,-1.1577 -2.083984,-1.389206 -3.010071,-0.81041c-8.566528,8.450806 -15.975403,18.522202 -25.004913,26.9729l-0.578888,-0.578796c5.440887,-8.566498 14.701996,-14.817688 19.795593,-23.615692c1.504883,-1.968002 4.514771,-3.704506 5.556702,-6.135506c1.041809,1.389198 2.199585,2.778297 3.241577,4.167503z" id="path1837"/>
     <path fill="#000000" d="m524.926086,140.446747c-1.156982,-0.694611 -2.083008,1.157593 -2.778015,1.967896c-1.388977,0.463104 -3.242004,1.273407 -3.820007,2.546814c-4.978088,2.662598 -9.377167,6.714294 -13.891876,10.18718c-3.12561,1.041916 -5.093597,4.6306 -8.103485,5.556717c-5.788208,4.862091 -11.692108,9.377304 -17.827606,13.428284c-1.041809,-1.388992 1.041901,-2.431 1.967987,-2.777985c14.007385,-10.881805 27.088684,-25.35231 40.286011,-37.044403l-0.231995,-2.199493l4.398987,8.334991z" id="path1838"/>
     <path fill="#000000" d="m470.170197,137.436844l-0.810394,0l2.199493,-3.588608c-0.347321,1.157608 -0.115723,2.662506 -1.389099,3.588608z" id="path1839"/>
     <path fill="#000000" d="m465.771088,144.961456c0,0.34729 -0.810303,0.34729 -1.157593,0.463089l0.578888,-1.389206l0.578705,0.926117z" id="path1840"/>
     <path fill="#000000" d="m480.473083,150.981247c-0.462982,0.578796 -1.273407,0.231491 -1.967987,0.347198c-0.810303,-1.736404 0.231598,-3.704391 1.967987,-4.167389c1.041901,1.041794 0.115814,2.662491 0,3.82019z" id="path1841"/>
     <path fill="#000000" d="m531.641113,152.370346c-6.367004,0.694611 -11.808044,4.97789 -17.828125,6.945801c-7.640411,3.704498 -15.512299,6.830093 -23.036896,10.650497c0.462982,-3.125793 4.283203,-3.010101 6.367004,-4.514999c7.061493,-3.125595 13.428497,-7.987701 20.605988,-10.766006c3.356995,-3.241394 7.755981,-3.82019 11.112976,-6.945801l2.779053,4.630508z" id="path1842"/>
     <path fill="#000000" d="m492.743988,149.592041c0,1.157608 -1.157593,1.389206 -1.967896,1.736404c-0.810394,-0.462997 -1.505005,-1.041794 -0.810394,-1.967911c0.69458,-1.157684 2.662598,-1.620697 2.77829,0.231506z" id="path1843"/>
     <path fill="#ffffff" d="m529.441101,150.518143c-0.116028,0.694595 -0.926025,0.810303 -1.389038,0.810303c0,-0.694504 0.694031,-1.041794 1.389038,-0.810303z" id="path1844"/>
     <path fill="#000000" d="m478.505096,154.917145c0,0.231491 0.115784,0.694611 -0.231506,0.810303l-0.810303,0l0,-1.041809c0.347198,0 0.926086,-0.231598 1.041809,0.231506z" id="path1845"/>
     <path fill="#000000" d="m464.960785,167.419647l-0.34729,0.231506c-1.389221,-2.199509 -4.977814,-1.273407 -6.019714,-3.820206c0,-1.852203 1.620697,-3.588699 0.231506,-5.325104l-1.620697,-1.389206l1.389191,-2.199493c3.12561,4.283295 3.82019,7.871902 6.367004,12.502502z" id="path1846"/>
     <path fill="#000000" d="m515.5495,163.252136c0,1.504913 -0.578796,2.315308 -1.968018,2.77832c-1.389221,-0.347321 -3.936005,0.926086 -4.167511,-1.157608c0.463013,-1.736496 2.431,-2.199509 3.820221,-2.778305c1.041809,-0.115799 1.968018,0.231506 2.315308,1.157593z" id="path1847"/>
     <path fill="#000000" d="m540.207092,167.998444c-3.01001,-1.389191 -5.788025,1.157593 -8.914001,1.041901c-14.933289,1.736298 -29.751007,3.3573 -44.684509,5.093292c-0.463104,-0.693985 -0.231506,-1.735992 -0.231506,-2.546997c0.347198,-0.925995 1.620605,-0.578003 2.199493,-0.230988c1.852203,2.777985 5.20932,0.462997 7.756134,0.809998c13.660095,-2.315002 26.972351,-6.019409 40.054382,-8.682007l0.809998,-1.041901c0.578979,1.968002 1.968018,3.704498 3.01001,5.556702z" id="path1848"/>
     <path fill="#000000" d="m459.635681,169.38765c-0.34729,0.231995 -0.34729,0.695007 -0.578796,1.042007c-0.34729,0 -0.810394,0.230988 -1.041901,-0.23201c-0.463104,-1.041611 1.157593,-2.083511 1.620697,-0.809998z" id="path1849"/>
     <path fill="#000000" d="m464.381989,172.976654c-0.231598,2.082993 -5.672394,2.54599 -1.968018,4.745987c4.399017,-2.430984 6.251312,3.126007 10.534515,1.621002c1.389191,-1.50499 2.315186,-3.356995 4.746307,-3.009995c1.852203,1.041992 0,2.893997 0.578796,4.166992c-3.357117,0.92601 -7.524597,-1.041992 -10.534515,1.621002c0.347321,1.041992 0.926208,2.084 1.968018,2.546997c1.504883,0.231003 3.4729,0.115997 4.16748,1.619995c-0.578796,1.968018 -2.315277,1.853012 -3.704376,3.126007c-3.588715,0.57901 -7.987701,0.347 -10.534515,-1.967987c-3.12561,-2.778015 -4.398987,-6.598007 -3.357208,-10.534012c0.347321,-3.357986 3.4729,-5.093994 6.135498,-6.136002c1.504913,-0.115997 1.157715,1.505005 1.968018,2.200012z" id="path1850"/>
     <path fill="#000000" d="m473.295776,174.365646c-1.852203,1.736008 -4.514801,0.231003 -6.367004,-0.23201c0,-1.85199 1.968018,-1.156982 3.009827,-1.735992c1.273376,0.231003 3.357178,0.463013 3.357178,1.968002z" id="path1851"/>
     <path fill="#000000" d="m546.111084,178.532654c-14.239014,-0.57901 -28.593994,0.115997 -43.064087,-0.57901c-0.347321,-0.347 -0.810303,-0.578003 -0.578827,-1.041l0.810303,-0.578995c13.312836,1.272995 27.667633,-1.158005 40.864594,-1.158005c0.579041,1.158005 0.926025,2.431 1.968018,3.35701z" id="path1852"/>
     <path fill="#000000" d="m547.963074,182.468643l1.15802,1.852005l-5.557007,0.578995c1.968018,2.315994 7.408997,-1.272995 7.525024,3.126007c-19.796021,-2.547012 -39.359833,-6.251007 -59.155426,-7.525009c-2.662598,0 -6.482697,-0.462997 -9.492615,-1.156998c-0.34729,-1.158005 0.926117,-0.578995 1.38913,-1.042007c20.953186,2.778015 42.600891,3.241013 64.132874,4.167007z" id="path1853"/>
     <path fill="#000000" d="m490.197205,182.700653c0.115784,0.230988 -0.115723,0.462982 -0.231506,0.578995l-0.578796,0c-0.347321,-0.578995 0.578796,-1.274002 0.810303,-0.578995z" id="path1854"/>
     <path fill="#000000" d="m512.423767,186.057648l0.578918,1.042007c-2.431091,-0.347015 -6.135498,0.925995 -8.103485,-1.042007c0.926086,-2.894012 5.788177,-1.737 7.524567,0z" id="path1855"/>
     <path fill="#000000" d="m497.143097,187.67865c0.578796,-0.811005 1.041779,-1.968002 2.199493,-1.968002c1.504913,1.041992 -0.694611,3.009995 1.736389,3.125c8.682312,2.546997 20.0271,2.66301 29.404114,5.210007c-2.546997,0.346985 -4.747009,1.85199 -7.755981,0.925995c-12.734314,-2.662994 -24.889526,-6.367004 -37.739227,-8.335007c-0.463104,0.231003 -1.041901,0.463013 -1.157684,1.042007c1.04187,2.778 4.862091,3.472992 8.103485,3.356995c1.389191,-0.578995 0.810303,1.156998 1.389191,1.619995c2.199493,1.390015 4.746307,1.968018 7.177307,2.779007c-8.219208,1.272995 -13.775909,-3.819992 -20.0271,-7.408997c-1.504883,-0.463013 -3.704407,-0.23201 -4.167511,-1.968002l2.778412,-1.389008l18.059113,3.01001z" id="path1856"/>
     <path fill="#000000" d="m478.852386,190.80365l0,0.231995c-0.810303,0.57901 -1.736389,0.115997 -2.199493,-0.578995c-0.463013,-2.084 2.083801,-0.695007 2.199493,0.347z" id="path1857"/>
     <path fill="#000000" d="m513.581482,195.434647c-2.778381,-0.115997 -5.672394,0.57901 -8.103485,-0.462997c0,-0.695007 0,-1.621002 0.810394,-1.737c2.77829,-0.115005 5.440887,2.084 7.293091,2.199997z" id="path1858"/>
    </g>
   </g>
   <g transform="matrix(4.02006 0 0 4.02006 -452.892 -302.064)" id="g1893">
    <path fill="#ffffff" stroke="#000000" stroke-width="2" d="m429.330078,190.545654c-0.894348,1.718628 -2.01825,3.40799 -2.018372,5.340988l-0.011932,0.761124c0,4.171997 3.313904,6.740875 7.068604,6.740875l121.319733,0c3.754944,0 7.014526,-3.326843 7.014526,-7.498856l-0.011414,-0.692352c0.027039,-1.337448 -0.988831,-3.162155 -2.045105,-5.259781l-60.083435,-107.780205c-2.654602,-2.94957 -6.958313,-2.94957 -9.613281,0.000397l-61.619324,108.38781z" id="path1894"/>
    <path fill="#ffcc00" stroke="#000000" stroke-width="4.8516" stroke-linecap="round" stroke-linejoin="round" d="m495.560089,85.755142l-63.423309,111.836502l61.187012,0l2.852112,0l60.507202,0l-60.310516,-111.836502l-0.8125,0z" id="path1895"/>
    <g id="g1896">
     <path fill="#000000" d="m494.356781,122.510246c3.158905,6.317894 6.641907,12.554802 8.504791,19.439705c0.972015,-1.944016 1.377014,-4.211899 1.215027,-6.641907c2.59198,5.669891 4.049988,11.744812 5.427002,17.900696c2.105896,-1.619904 2.18689,-4.292892 2.672913,-6.641891c1.862976,5.994003 3.078003,13.283905 1.94397,20.249802c1.94397,0.809906 2.268005,-2.348999 3.15863,-3.483002c0.161987,5.264893 -0.890625,10.934998 -5.426636,14.742004c-3.725891,3.401993 -8.423798,4.616989 -13.283783,5.102982c0.161987,-0.972 1.700989,-1.781982 2.753998,-1.943985c4.049896,-3.240005 4.940887,-7.776001 5.42688,-12.474106c-0.729004,-0.8909 -1.700989,0.081009 -2.348999,0.810104c0,-2.592102 1.782013,-6.237 0,-8.990906c-0.64798,1.943909 -1.619904,3.8069 -3.077881,5.426895c-0.404999,-3.482986 -0.972015,-7.532883 -3.483002,-10.448898l-3.887909,10.124908c-1.863007,-0.729004 -1.377014,-3.563995 -3.158997,-4.292999c-1.214996,2.996994 -0.809998,7.208893 -0.324005,10.449005c-3.806885,-2.187012 -3.158997,-6.966019 -4.697906,-10.449005c-0.404999,2.996994 -2.429993,5.832001 -1.538971,8.910004c-0.891022,0 -2.025024,-1.701111 -2.753998,0c0.404968,5.18399 6.803864,7.776001 7.37088,12.878983c-5.345917,-0.32399 -10.043793,-3.56398 -12.797791,-8.180984c-2.59201,-5.670105 -1.620026,-13.688995 -0.809998,-19.84491l1.944,3.483002c1.781891,-2.834991 1.944,-7.046906 2.348999,-10.853897l0,-4.697891c2.024902,0.972 2.8349,3.15889 4.292908,4.697891c2.834991,-4.211899 4.373993,-9.314896 3.077881,-14.8228c2.673004,-0.567001 3.078003,8.261902 5.507996,2.753998l1.539001,-13.202797l0.404999,0z" id="path1897"/>
     <path fill="#ffcc00" d="m495.085785,143.488953c-0.486115,-1.863007 -0.891083,-4.536011 0.404999,-6.236908c0.485901,1.8629 0.8909,4.697906 -0.404999,6.236908z" id="path1898"/>
     <path fill="#ffcc00" d="m509.503601,173.05365c-0.243011,0.161987 -0.404999,0.485992 -0.809998,0.404999l1.538879,-3.563995c0.809998,0.647995 -0.080994,2.26799 -0.728882,3.158997z" id="path1899"/>
     <path fill="#000000" d="m510.637482,185.340637l0,1.726013l-28.754608,0l0,-1.619995l28.754608,-0.106018z" id="path1900"/>
    </g>
   </g>
   <g transform="matrix(4.02006 0 0 4.02006 764.284 -302.064)" id="g3002">
    <g id="g1933">
     <path fill="#ffffff" stroke="#000000" stroke-width="2" d="m429.330078,190.545654c-0.679626,1.195435 -1.99118,3.40799 -1.991302,5.340988l-0.011932,0.544556c0,4.172012 3.286835,6.957443 7.041534,6.957443l121.319733,0c3.754944,0 7.014526,-3.110291 7.014526,-7.282288l0.015625,-0.611145c0,-1.932999 -1.106079,-3.82457 -2.072144,-5.557556l-60.083435,-107.780205c-2.654602,-2.94957 -6.958313,-2.94957 -9.613281,0.000397l-61.619324,108.38781z" id="path1934"/>
     <path fill="#ffcc00" stroke="#000000" stroke-width="4.8516" stroke-linecap="round" stroke-linejoin="round" d="m495.560089,85.755241l-63.423309,111.836403l61.187012,0l2.852112,0l60.507202,0l-60.310516,-111.836403l-0.8125,0z" id="path1935"/>
    </g>
    <g id="g1936">
     <path fill="#000000" d="m520.478088,174.940643l-38.225006,-38.932999l-11.065094,10.863998l38.225281,38.933014l11.064819,-10.864014z" id="path3008"/>
     <path fill="#000000" d="m509.097595,136.222946l-38.369995,38.79071l11.024597,10.904984l38.369873,-38.790588l-11.024475,-10.905106z" id="path1938"/>
    </g>
   </g>
   <g transform="matrix(0.823019 0 0 0.823019 -1073.71 258.877)" id="g3029">
    <g id="g3031">
     <g id="g3033">
      <path fill="none" fill-rule="evenodd" stroke="#000000" stroke-width="12.5" stroke-linecap="round" stroke-miterlimit="4" d="m2404.345703,409.466156c-8.766357,0.43103 -16.706787,5.281189 -21.098145,12.880676c-109.061279,188.916412 -218.122559,377.832794 -327.183838,566.749237c-4.618408,7.994324 -4.614258,17.839905 0,25.836975c4.614014,7.99707 13.125977,12.928528 22.358398,12.931091c217.215088,0.04187 434.43042,0.083984 651.645508,0.125977c9.210693,-0.005127 17.713623,-4.912231 22.333252,-12.880615c4.619873,-7.968384 4.647705,-17.790649 0.075684,-25.78656c-108.153809,-188.958435 -216.307861,-377.91687 -324.46167,-566.875275c-4.825439,-8.436005 -13.961914,-13.451904 -23.669189,-12.981506z" id="path3035"/>
      <path fill="#ffcc00" fill-rule="evenodd" stroke="#000000" stroke-width="29.443962" stroke-linecap="round" stroke-linejoin="round" stroke-miterlimit="4" d="m2405.605957,436.336578c-108.756592,188.388397 -217.52002,376.772797 -326.276367,565.161224c216.610107,0.04187 433.220459,0.084106 649.830566,0.126038c-107.854248,-188.434814 -215.698975,-376.851013 -323.554199,-565.287262z" id="path3037"/>
     </g>
    </g>
    <g id="g3039" transform="matrix(0.925703 0 0 0.925703 31.3296 35.7351)"/>
    <g id="g1192" transform="matrix(5.15526 0 0 5.15526 -38.6062 9.50996)">
     <path fill="#000000" d="m465.420776,156.259842c0,-2.930603 1.558197,-5.497406 3.891296,-6.917007l-9.575897,-17.629608c-8.574707,4.822708 -14.36731,14.008301 -14.36731,24.546616l20.05191,0z" id="path1193"/>
     <path fill="#000000" d="m477.960663,163.492538c-2.538513,1.465805 -5.540802,1.399887 -7.937286,0.089005l-10.480316,17.110199c8.465424,5.014984 19.318207,5.438995 28.445709,0.167984l-10.028107,-17.367188z" id="path1194"/>
     <path fill="#000000" d="m477.869476,148.384232c2.538879,1.465607 3.983398,4.099106 4.046387,6.830093l20.060822,0.520111c0.109985,-9.839905 -4.951019,-19.451309 -14.080017,-24.720993l-10.027191,17.370789z" id="path1195"/>
     <path fill="#000000" d="m473.760681,161.888535c3.10849,0 5.628601,-2.520096 5.628601,-5.628693c0,-3.108505 -2.520111,-5.628616 -5.628601,-5.628616c-3.108521,0 -5.628601,2.520111 -5.628601,5.628616c0,3.108597 2.520081,5.628693 5.628601,5.628693z" id="path1196"/>
    </g>
   </g>
   <g transform="matrix(0.823019 0 0 0.823019 138.961 258.877)" id="g3109">
    <g id="g3111">
     <g id="g3113">
      <path fill="none" fill-rule="evenodd" stroke="#000000" stroke-width="12.5" stroke-linecap="round" stroke-miterlimit="4" d="m2404.345703,409.466156c-8.766357,0.43103 -16.706787,5.281189 -21.098145,12.880676c-109.061279,188.916412 -218.122559,377.832794 -327.183838,566.749237c-4.618408,7.994324 -4.614258,17.839905 0,25.836975c4.614014,7.99707 13.125977,12.928528 22.358398,12.931091c217.215088,0.04187 434.43042,0.083984 651.645508,0.125977c9.210693,-0.005127 17.713623,-4.912231 22.333252,-12.880615c4.619873,-7.968384 4.647705,-17.790649 0.075684,-25.78656c-108.153809,-188.958435 -216.307861,-377.91687 -324.46167,-566.875275c-4.825439,-8.436005 -13.961914,-13.451904 -23.669189,-12.981506z" id="path3115"/>
      <path fill="#ffcc00" fill-rule="evenodd" stroke="#000000" stroke-width="29.443962" stroke-linecap="round" stroke-linejoin="round" stroke-miterlimit="4" d="m2405.605957,436.336578c-108.756592,188.388397 -217.52002,376.772797 -326.276367,565.161224c216.610107,0.04187 433.220459,0.084106 649.830566,0.126038c-107.854248,-188.434814 -215.698975,-376.851013 -323.554199,-565.287262z" id="path3117"/>
     </g>
    </g>
    <g id="g3119" transform="matrix(0.925703 0 0 0.925703 31.3296 35.7351)"/>
    <g id="g3021" transform="matrix(0.37655 0 0 0.37655 221.781 278.848)">
     <path fill="#000000" d="m5788.157227,1423.583374c20.318848,0 36.79248,-16.472412 36.79248,-36.792603c0,-20.320068 -16.473633,-36.79248 -36.79248,-36.79248c-20.319824,0 -36.79248,16.472412 -36.79248,36.79248c0,20.32019 16.472656,36.792603 36.79248,36.792603z" id="path3110"/>
     <path fill="#110c0a" fill-rule="nonzero" stroke-width="0.125" stroke-linecap="round" stroke-linejoin="round" stroke-miterlimit="4" d="m5790.043945,1470.506104c-12.812012,0.017578 -21.187988,10.399048 -24.53125,22.28125l-81.75,290.562622l106.28125,0l0.03125,0l106.28125,0l-81.75,-290.562622c-3.343262,-11.882202 -11.719238,-22.263916 -24.53125,-22.28125c-0.010742,0 -0.020508,0 -0.03125,0z" id="rect1710"/>
     <path fill="none" fill-opacity="0.75" fill-rule="evenodd" stroke="#000000" stroke-width="37.5" stroke-linecap="round" stroke-miterlimit="4" d="m5879.165039,1316.210449c0,0 24.285645,24.228271 24.285645,70.29126m-24.285645,70c0,0 24.285645,-24.228271 24.285645,-70.29126" id="path1752"/>
     <path fill="none" fill-opacity="0.75" fill-rule="evenodd" stroke="#000000" stroke-width="37.5" stroke-linecap="round" stroke-miterlimit="4" d="m5962.022461,1246.064819c0,0 48.570801,48.456543 48.570801,140.58252m-48.570801,140c0,0 48.570801,-48.456421 48.570801,-140.58252" id="path2381"/>
     <path fill="none" fill-opacity="0.75" fill-rule="evenodd" stroke="#000000" stroke-width="37.5" stroke-linecap="round" stroke-miterlimit="4" d="m6052.379395,1175.919189c0,0 72.856934,72.684814 72.856934,210.873779m-72.856934,210c0,0 72.856934,-72.684814 72.856934,-210.873779" id="path2382"/>
     <path fill="none" fill-opacity="0.75" fill-rule="evenodd" stroke="#000000" stroke-width="37.5" stroke-linecap="round" stroke-miterlimit="4" d="m5698.450684,1316.210449c0,0 -24.285645,24.228271 -24.285645,70.29126m24.285645,70c0,0 -24.285645,-24.228271 -24.285645,-70.29126" id="path3004"/>
     <path fill="none" fill-opacity="0.75" fill-rule="evenodd" stroke="#000000" stroke-width="37.5" stroke-linecap="round" stroke-miterlimit="4" d="m5618.093262,1246.064819c0,0 -48.570801,48.456543 -48.570801,140.58252m48.570801,140c0,0 -48.570801,-48.456421 -48.570801,-140.58252" id="path3128"/>
     <path fill="none" fill-opacity="0.75" fill-rule="evenodd" stroke="#000000" stroke-width="37.5" stroke-linecap="round" stroke-miterlimit="4" d="m5527.736328,1175.919189c0,0 -72.856934,72.684814 -72.856934,210.873779m72.856934,210c0,0 -72.856934,-72.684814 -72.856934,-210.873779" id="path3009"/>
    </g>
   </g>
   <g transform="matrix(0.823019 0 0 0.823019 119.13 853.906)" id="g3195">
    <g id="g3197">
     <g id="g3199">
      <path fill="none" fill-rule="evenodd" stroke="#000000" stroke-width="12.5" stroke-linecap="round" stroke-miterlimit="4" d="m2404.345703,409.466156c-8.766357,0.43103 -16.706787,5.281189 -21.098145,12.880676c-109.061279,188.916412 -218.122559,377.832794 -327.183838,566.749237c-4.618408,7.994324 -4.614258,17.839905 0,25.836975c4.614014,7.99707 13.125977,12.928528 22.358398,12.931091c217.215088,0.04187 434.43042,0.083984 651.645508,0.125977c9.210693,-0.005127 17.713623,-4.912231 22.333252,-12.880615c4.619873,-7.968384 4.647705,-17.790649 0.075684,-25.78656c-108.153809,-188.958435 -216.307861,-377.91687 -324.46167,-566.875275c-4.825439,-8.436005 -13.961914,-13.451904 -23.669189,-12.981506z" id="path3201"/>
      <path fill="#ffcc00" fill-rule="evenodd" stroke="#000000" stroke-width="29.443962" stroke-linecap="round" stroke-linejoin="round" stroke-miterlimit="4" d="m2405.605957,436.336578c-108.756592,188.388397 -217.52002,376.772797 -326.276367,565.161224c216.610107,0.04187 433.220459,0.084106 649.830566,0.126038c-107.854248,-188.434814 -215.698975,-376.851013 -323.554199,-565.287262z" id="path3203"/>
     </g>
    </g>
    <g id="g3205" transform="matrix(0.925703 0 0 0.925703 31.3296 35.7351)"/>
    <g id="g1497" transform="matrix(5.09548 0 0 5.09548 -23.0394 -9.92315)">
     <path fill="#000000" d="m478.000916,136.589478c-1.400513,2.291595 1.654999,4.328613 -0.2547,6.492905l1.273071,1.782211c3.310211,-1.145615 1.145813,-8.147812 4.83783,-6.365509c-0.509308,2.036987 -2.036926,4.710602 -1.27301,7.256805c2.546082,-0.2547 2.928101,-3.055511 4.328491,-4.583206c1.273102,-2.291611 1.78241,-6.111008 4.837799,-6.747513c-0.381897,4.583221 -5.092377,8.147919 -6.110901,12.858414c0.636505,1.527695 2.037018,0.636505 2.800812,0c1.65509,-0.763901 2.036987,-5.092392 4.583313,-3.055405c-0.509308,3.182709 -6.365601,3.564606 -3.946716,7.384003c-0.763916,1.018494 -0.254608,4.328598 2.164307,4.201309c-2.164307,1.782181 1.400391,3.819199 -0.636597,5.219696c-0.381897,1.527695 0.509186,2.4189 1.145782,3.437393l-1.527679,2.037003c0.381897,0.254395 0.381897,0.636398 0.381897,1.018402c-1.145813,0.126999 -3.310089,0.382004 -2.418915,2.419006c0.509308,2.672989 4.583221,2.927994 4.837921,5.728989c-2.546326,0.764008 -4.710632,-6.619995 -7.638824,-3.056c1.400421,4.710999 5.474518,7.766998 6.74762,12.222c-2.546295,0.255005 -2.673615,-2.672989 -3.946716,-3.945999c-1.782379,-2.673996 -1.909698,-6.365997 -5.219788,-7.256989c-1.654999,2.54599 1.273193,5.09198 0.254578,7.89299c-3.691895,-1.018005 -0.254578,-7.128998 -4.201202,-8.275009c-3.18277,2.80101 -0.381866,7.384003 -1.273071,10.694016l-0.254608,4.582993c-1.52771,0 -1.018494,-2.037003 -1.52771,-3.055008c0.127319,-3.692001 0.891113,-8.656998 -0.636597,-11.584991c-3.055511,1.145004 -1.527679,5.983002 -4.328583,7.001999c-1.018494,-2.546005 3.18277,-6.748001 -0.891113,-7.893997l-5.856293,11.330994l-1.78241,0c0.127289,-5.091995 6.747498,-8.147995 5.219818,-13.494995c-2.673615,0.25499 -3.437408,2.80101 -4.96521,4.582993c-0.891205,0.255005 -0.891205,-0.253998 -1.145813,-0.890991c0.382019,-2.419006 4.201294,-3.692001 2.418915,-6.110992c-3.182709,2.036987 -7.002106,2.927994 -9.421021,6.110992c-0.763794,-0.126999 -1.782288,0.381989 -2.164276,-0.636002l0.2547,-1.783005c3.1828,-2.927994 9.16629,-2.673004 10.439484,-7.129196c-2.164307,-1.145798 -7.256683,2.801193 -6.747498,-1.145798c1.52771,-1.909698 5.856293,0.254608 5.856293,-3.055511l-1.018494,-0.89119c-4.583191,0.127304 -8.911804,0.89119 -13.113007,-0.63649l0.381927,-1.527618c3.691986,0 8.020569,-0.509293 12.221771,0.636414c0.763916,-0.254501 1.400513,-1.145706 1.145813,-2.1642c-1.400391,-2.546204 -5.856201,0 -5.728912,-3.437408c1.655029,-1.909698 8.147919,4.073898 5.474304,-1.527802c-3.055481,-2.928085 -8.275208,-3.1828 -9.802887,-7.001999c2.546204,-2.164307 3.1828,2.1642 5.856293,1.52771c1.527802,2.418793 4.583191,2.800781 6.365509,4.583191c0.891205,0 1.018494,-1.018494 0.891205,-1.78241c-0.509216,-2.418884 -4.71051,-2.036987 -3.31012,-4.965088c2.164307,-1.273102 4.074005,6.365509 6.111023,1.909607c-1.273132,-3.819214 -4.710602,-7.12941 -5.474426,-11.330704c0.254608,-0.509201 1.145813,-0.891113 1.52771,-0.254593l6.365601,11.2034c3.946594,-1.655014 -2.673492,-7.766022 2.164185,-7.638702c1.400513,0.636581 0,1.527802 0,2.164291c0.763916,1.655106 0.763916,3.692093 2.673523,4.965195l1.273193,-1.273102l-0.254608,-12.221893c4.71051,-3.055405 0.891113,3.819305 2.037018,5.474396z" id="path1498"/>
     <path fill="#000000" d="m501.934998,144.610077c1.401001,3.564606 -4.0737,2.800812 -5.856079,4.837799c-1.27301,1.018509 -2.673431,1.654999 -4.328522,1.782303c2.546326,-3.055496 5.729004,-6.238205 10.184601,-6.620102z" id="path1499"/>
     <path fill="#000000" d="m498.497803,154.285675l0,1.018509c-1.527679,0 -3.055298,1.145798 -4.583099,0.2547c0.763885,-0.891205 3.564697,-2.164398 4.583099,-1.273209z" id="path1500"/>
     <path fill="#000000" d="m498.243225,164.979782l0,1.018509c-1.273102,0.763687 -2.673401,-0.127319 -3.691925,-1.018509c0.636597,-0.89119 2.80072,-0.89119 3.691925,0z" id="path1501"/>
     <path fill="#000000" d="m501.934998,172.999985c0.764008,0.382004 0.51001,1.145996 0.51001,1.78299c-1.401001,1.146011 -2.419006,-0.636993 -3.565186,-0.890991c-2.164307,-1.274002 -4.71051,-2.419006 -5.856201,-4.584c3.310089,0 5.601593,3.056 8.911377,3.692001z" id="path1502"/>
     <path fill="#000000" d="m478.931519,161.072586l40.374512,-1.424896l0.474976,1.899902l-40.849487,-0.475006z" id="path1503"/>
    </g>
   </g>
   <g transform="matrix(0.823019 0 0 0.823019 -1685.18 1460.27)" id="g3277">
    <g id="g3279">
     <g id="g3281">
      <path fill="none" fill-rule="evenodd" stroke="#000000" stroke-width="12.5" stroke-linecap="round" stroke-miterlimit="4" d="m2404.345703,409.466156c-8.766357,0.43103 -16.706787,5.281189 -21.098145,12.880676c-109.061279,188.916412 -218.122559,377.832794 -327.183838,566.749237c-4.618408,7.994324 -4.614258,17.839905 0,25.836975c4.614014,7.99707 13.125977,12.928528 22.358398,12.931091c217.215088,0.04187 434.43042,0.083984 651.645508,0.125977c9.210693,-0.005127 17.713623,-4.912231 22.333252,-12.880615c4.619873,-7.968384 4.647705,-17.790649 0.075684,-25.78656c-108.153809,-188.958435 -216.307861,-377.91687 -324.46167,-566.875275c-4.825439,-8.436005 -13.961914,-13.451904 -23.669189,-12.981506z" id="path3283"/>
      <path fill="#ffcc00" fill-rule="evenodd" stroke="#000000" stroke-width="29.443962" stroke-linecap="round" stroke-linejoin="round" stroke-miterlimit="4" d="m2405.605957,436.336578c-108.756592,188.388397 -217.52002,376.772797 -326.276367,565.161224c216.610107,0.04187 433.220459,0.084106 649.830566,0.126038c-107.854248,-188.434814 -215.698975,-376.851013 -323.554199,-565.287262z" id="path3285"/>
     </g>
    </g>
    <g id="g3287" transform="matrix(0.925703 0 0 0.925703 31.3296 35.7351)"/>
    <g id="g38">
     <path fill="#01050e" fill-rule="nonzero" stroke-width="2.5" stroke-linecap="round" stroke-linejoin="round" stroke-miterlimit="4" d="m2388.388184,633.568054c-0.181396,0 -0.327637,0.010742 -0.651855,0.04248c-46.96875,7.345398 -82.799805,47.990173 -82.799805,97.01062c0,6.749573 0.753662,13.306946 2.068604,19.66571l-0.04248,-0.028381c0.194824,1.033813 0.325684,2.083618 0.325684,3.173706c0,3.082947 -0.882813,5.943909 -2.309326,8.444336l0.01416,0.01416l6.418213,3.669617c0.009033,0.023621 0.019287,0.047241 0.02832,0.070801c-0.009766,0.001404 -0.018799,-0.001526 -0.02832,0l-6.418213,-3.740417c-1.452148,2.485718 -3.479248,4.692627 -6.14917,6.23407c-0.944092,0.545105 -1.925781,0.955322 -2.918701,1.303528l0.04248,0.01416c-6.164063,2.040649 -12.219238,4.672852 -18.064453,8.047607c-42.452881,24.510193 -59.727295,75.855591 -42.604248,120.204224c0.134521,0.29657 0.192627,0.438049 0.283447,0.595032c1.200195,2.079102 3.855713,2.794128 5.922363,1.601013c1.843018,-1.064026 2.522461,-3.241455 1.813477,-5.185608c-0.097412,-0.284485 -0.200195,-0.565491 -0.297607,-0.850098c-10.796387,-31.770935 2.230225,-67.002869 32.388916,-84.414978c31.329102,-18.087891 70.613525,-9.795166 92.306641,17.880493l0.02832,-0.01416c1.757324,2.608826 5.263428,3.443359 8.061768,1.827637c2.300049,-1.327881 3.401611,-3.900269 2.961182,-6.347412l0.014404,-0.01416c-0.976318,-5.735291 0.074707,-11.624878 2.947021,-16.605286l-0.01416,-0.01416c2.878418,-4.956116 7.440186,-8.794189 12.878906,-10.810425l0,-0.02832c2.3396,-0.842224 4.023926,-3.082336 4.023926,-5.738159c0,-3.231384 -2.486816,-5.846619 -5.625,-6.064148l0,-0.02832c-34.814209,-4.948914 -61.632324,-34.821777 -61.632324,-70.997559c0,-34.824097 24.001709,-63.72522 56.914307,-70.260742c0.295166,-0.057861 0.583252,-0.112183 0.878418,-0.170044c2.03833,-0.358154 3.584717,-2.037415 3.584717,-4.165527c0,-2.38623 -1.948975,-4.321289 -4.349609,-4.321289zm29.243408,0c-2.400879,0 -4.349854,1.935059 -4.349854,4.321289c0,2.128113 1.546631,3.807373 3.584717,4.165527c0.295166,0.057861 0.583252,0.112183 0.878418,0.170044c32.912598,6.535522 56.914307,35.436646 56.914307,70.260742c0,36.175781 -26.818115,66.048645 -61.632324,70.997559l0,0.02832c-3.137939,0.217529 -5.625,2.832764 -5.625,6.064148c0,2.655823 1.68457,4.895935 4.023926,5.738159l0,0.02832c5.455078,2.022278 10.030273,5.875305 12.907471,10.852966l0.01416,-0.01416c2.848145,4.968689 3.891113,10.834351 2.918457,16.548584l0.028564,0.01416c-0.44043,2.447144 0.646729,5.033691 2.947021,6.361572c2.79834,1.615662 6.318604,0.766968 8.075928,-1.841858l0.01416,0.01416c21.693115,-27.675659 60.977539,-35.968323 92.306641,-17.880432c30.158691,17.412109 43.185303,52.658142 32.388916,84.429138c-0.097656,0.284546 -0.200195,0.551392 -0.297607,0.835938c-0.708984,1.944153 -0.015381,4.121521 1.827637,5.185608c2.06665,1.193115 4.708008,0.478088 5.908203,-1.601013c0.09082,-0.157043 0.163086,-0.284302 0.297607,-0.580933c17.123047,-44.348633 -0.165527,-95.70813 -42.618408,-120.218323c-5.845215,-3.374817 -11.900391,-5.992798 -18.064697,-8.033447l0.04248,-0.028381c-0.992676,-0.348083 -1.960205,-0.758423 -2.904297,-1.303528c-2.669922,-1.541443 -4.711182,-3.734131 -6.16333,-6.219849l-0.01416,0.01416c-1.426758,-2.500427 -2.309326,-5.361389 -2.309326,-8.444336c0,-1.090088 0.130859,-2.139893 0.325684,-3.173706l-0.04248,0.028381c1.314941,-6.358765 2.068604,-12.916138 2.068604,-19.66571c0,-49.020447 -35.831299,-89.665222 -82.799805,-97.01062c-0.323975,-0.031738 -0.470459,-0.04248 -0.651611,-0.04248zm-14.763428,90.989075l0,0.01416c-15.091797,0.080505 -33.36499,6.68219 -41.768311,10.045349c-3.695557,1.479004 -6.602539,4.990479 -6.602539,9.308594c0,5.465088 4.401855,9.903687 9.832764,9.903687c1.622559,0 3.099609,-0.400574 4.378174,-1.034302c7.568848,-3.276611 21.940918,-8.448242 34.301514,-8.486816c12.360596,0.038574 26.732422,5.210205 34.301514,8.486816c1.278564,0.633728 2.755615,1.034302 4.378174,1.034302c5.430908,0 9.832764,-4.438599 9.832764,-9.903687c0,-4.318115 -2.906982,-7.82959 -6.602539,-9.308594c-8.403564,-3.363159 -26.676514,-9.964844 -41.768311,-10.045349l0,-0.01416c-0.046143,0 -0.095215,0.014038 -0.141602,0.01416c-0.046387,-0.000122 -0.095459,-0.01416 -0.141602,-0.01416zm97.520752,37.687805l-5.738281,3.343689c-0.016846,-0.002686 -0.039551,-0.01178 -0.056641,-0.01416c0.002197,-0.005737 0.011963,-0.008484 0.01416,-0.01416l5.780762,-3.315369zm-14.182617,50.155884c-3.165039,0.212891 -6.16626,1.948486 -7.863525,4.888123c-0.811279,1.40509 -1.19873,2.883118 -1.289307,4.30719c-0.946777,8.193298 -3.657471,23.223389 -9.804443,33.947327c-6.213623,10.685303 -17.875,20.543762 -24.49707,25.460449c-1.187988,0.790344 -2.277344,1.867798 -3.088623,3.272949c-2.715576,4.703369 -1.063232,10.741516 3.669434,13.47406c3.739746,2.159058 8.234375,1.384216 11.363037,-1.076782c7.114502,-5.596069 21.968018,-18.112549 29.583496,-31.142029l0.01416,0c0.023193,-0.040039 0.033691,-0.08728 0.056885,-0.127502c0.023193,-0.040039 0.061768,-0.073242 0.084961,-0.113342l-0.01416,0c7.476074,-13.110046 10.895508,-32.24231 12.18457,-41.201538c0.567139,-3.940002 -1.020752,-8.212219 -4.760498,-10.371216c-1.774902,-1.024719 -3.739746,-1.445374 -5.638916,-1.317688zm-166.364746,0.04248c-1.89917,-0.127686 -3.850098,0.292969 -5.624756,1.317688c-3.739746,2.159058 -5.327637,6.431274 -4.760742,10.371277c1.289307,8.959229 4.70874,28.077271 12.184814,41.187317l-0.01416,0.014221c0.023193,0.0401 0.061768,0.073242 0.084961,0.113342c0.023193,0.040161 0.033691,0.087402 0.056885,0.127502l0.01416,0c7.615479,13.02948 22.468994,25.545898 29.583496,31.141968c3.128662,2.460938 7.623291,3.22168 11.363037,1.062683c4.732666,-2.732605 6.37085,-8.756592 3.655273,-13.459961c-0.811279,-1.40509 -1.900635,-2.482544 -3.088623,-3.272888c-6.62207,-4.916687 -18.283447,-14.789368 -24.49707,-25.47467c-6.146973,-10.723938 -8.857666,-25.754089 -9.804443,-33.947388c-0.090576,-1.424011 -0.478271,-2.902039 -1.289307,-4.307129c-1.697266,-2.939636 -4.698486,-4.661011 -7.863525,-4.873962zm102.366455,23.47699c-1.220459,0.119324 -2.380127,0.600159 -3.32959,1.402649l-0.02832,-0.01416c-4.479004,3.713074 -10.105225,5.749573 -15.854492,5.752319l0,0.042542c-5.729492,-0.016113 -11.333496,-2.051514 -15.797607,-5.75238l-0.01416,0.01416c-1.89917,-1.604858 -4.685059,-1.951294 -6.985107,-0.623413c-2.79834,1.615723 -3.817627,5.079651 -2.437012,7.906006l-0.02832,0.014099c13.121338,32.624634 0.654541,70.790161 -30.674561,88.878052c-30.158447,17.412048 -67.186768,11.081238 -89.302979,-14.154175c-0.197754,-0.226685 -0.383057,-0.453369 -0.580811,-0.680115c-1.329346,-1.585999 -3.555176,-2.084106 -5.398193,-1.020081c-2.06665,1.193115 -2.772949,3.843262 -1.572754,5.922363c0.09082,0.157043 0.178955,0.28772 0.368408,0.552551c29.845459,37.003296 82.951172,47.703796 125.404053,23.193604c5.845215,-3.374817 11.146729,-7.300049 15.996094,-11.618042l0,0.04248c0.797852,-0.685669 1.648682,-1.325134 2.592773,-1.870239c2.669922,-1.541443 5.579834,-2.209717 8.458496,-2.224365l0,-0.028381l-0.01416,-7.381714c0.011475,-0.014099 0.01709,-0.028015 0.02832,-0.042542c0.003418,0.004456 0.010742,0.009888 0.01416,0.014221l-0.02832,7.410034c2.878662,0.014709 5.802734,0.682983 8.472656,2.224426c0.944092,0.545044 1.780762,1.18457 2.578613,1.870239l0,-0.056702c4.849365,4.318054 10.150879,8.243286 15.996094,11.618042c42.452881,24.510254 95.572754,13.809753 125.418213,-23.193542c0.189453,-0.264893 0.263428,-0.395569 0.354248,-0.552612c1.200195,-2.079041 0.508057,-4.729187 -1.558594,-5.922363c-1.843018,-1.064026 -4.083008,-0.565857 -5.412354,1.020142c-0.197754,0.226685 -0.383057,0.45343 -0.580811,0.680054c-22.116211,25.235474 -59.144531,31.566284 -89.302979,14.154175c-31.329346,-18.08783 -43.795898,-56.239258 -30.674561,-88.863831l-0.01416,-0.01416c1.380615,-2.826355 0.347168,-6.290222 -2.451172,-7.905945c-1.149902,-0.66394 -2.420898,-0.91272 -3.641113,-0.793396z" id="path106"/>
     <path opacity="0.5" fill="#0751eb" fill-rule="nonzero" stroke-width="2.5" stroke-linecap="round" stroke-linejoin="round" stroke-miterlimit="4" d="m2674.266357,864.953064l-3.928711,0l3.928711,0z" id="path99"/>
    </g>
   </g>
   <g transform="matrix(4.02006 0 0 4.02006 764.176 287.298)" id="g3320">
    <g id="g1609">
     <path fill="#ffffff" stroke="#000000" stroke-width="2" d="m429.330078,190.545654c-0.980743,1.725113 -1.99118,3.40799 -1.991302,5.340988l0.040283,0.523254c0,4.171997 3.234619,6.978745 6.989319,6.978745l121.319733,0c3.754944,0 6.951111,-3.189575 6.951111,-7.361572l-0.002136,-0.748428c0,-1.932999 -1.024902,-3.608002 -1.990967,-5.340988l-60.083435,-107.780205c-2.654602,-2.94957 -6.958313,-2.94957 -9.613281,0.000397l-61.619324,108.38781z" id="path1610"/>
     <path fill="#ffcc00" stroke="#000000" stroke-width="4.8516" stroke-linecap="round" stroke-linejoin="round" d="m495.560089,85.755241l-63.423309,111.836403l61.187012,0l2.852112,0l60.507202,0l-60.310516,-111.836403l-0.8125,0z" id="path1611"/>
    </g>
    <g id="g1612">
     <path fill="#000000" d="m513.328979,142.043747c0.765686,2.625504 1.64093,5.907394 0.546997,8.642288c3.610107,1.750412 6.673096,4.70401 9.408081,7.329605c1.421997,2.516098 2.188049,5.141617 3.719055,7.6577c0.765991,3.610001 0.875,8.751312 -0.546997,12.033295l-0.984009,0c1.093994,-6.344986 -0.328003,-13.017883 -5.579041,-17.065491c-4.15741,-1.750397 -8.752075,-2.078598 -12.799683,-1.531601c-0.984589,0.875198 -1.969116,1.422195 -3.172485,1.531601c-1.093994,1.531509 -1.969208,2.844299 -3.391296,3.719391c-1.422119,-1.531494 -1.312805,-4.594589 -3.938232,-5.250992c-0.765778,-0.218796 -1.531586,-1.2034 -0.875183,-1.859695l0,-0.546997c3.610107,-1.203308 8.642303,-1.422104 10.064392,-5.798004l2.844299,-5.798004c-0.875092,-5.688599 -1.750305,-12.799393 -7.876404,-14.877899c-1.203369,-0.984497 -3.172577,-0.328094 -4.157104,-1.6409c0.984528,-2.187897 3.281921,-0.218704 4.70401,0c5.798004,3.06311 9.517517,7.6577 12.0336,13.455704z" id="path1613"/>
     <path fill="#000000" d="m491.559082,128.588043c-4.70401,0.984604 -7.876495,3.719406 -10.502014,7.876495c-2.187866,6.891998 -0.875092,12.580597 3.938324,17.612808c2.516083,1.2034 5.250885,1.969101 8.095306,2.406693c1.203369,3.610016 -4.70401,3.281906 -2.844421,7.548309l-0.765686,0.546997c-3.938293,-3.172394 -7.438904,-7.767105 -13.127502,-6.34491c-1.6409,0.875107 -3.719513,0.546906 -5.251007,1.312714c-4.266479,2.078598 -6.235596,6.235596 -6.563812,10.830505l0.765808,6.563995c-0.765808,0.436996 -1.531494,-0.438004 -2.078583,-1.093994c-1.422119,-8.642807 1.2034,-18.92601 9.736298,-24.177109c4.594604,-1.640793 0.875183,-7.438904 3.06311,-10.501999c1.750397,-6.016693 7.438873,-11.595901 13.455688,-13.346306c0.656403,0.218803 2.297302,-0.656296 2.078491,0.7658z" id="path3327"/>
     <path fill="#000000" d="m504.467896,148.060547c0.218781,0.984589 -1.312805,2.297302 -2.406708,2.625488c-4.594696,-1.31279 -9.408112,-2.297287 -14.221497,0c-1.312805,0.328308 -2.297394,-0.656281 -2.844299,-1.6409c1.093903,-3.610092 5.469788,-2.625595 8.095306,-3.938293c4.266479,-0.109299 7.985901,0.984604 11.377197,2.953705z" id="path1615"/>
     <path fill="#000000" d="m481.057068,161.735046c-0.765778,1.969193 1.422211,3.719498 0.765808,5.688599c1.203308,0.656403 0.875214,2.515991 1.859711,3.501007c1.2034,2.296997 6.235596,3.390991 3.938293,6.781982c-3.06308,0.219009 -6.016785,-3.390991 -7.657684,-6.015991c-1.422211,-3.063599 -2.516113,-6.345505 -2.078522,-10.283691c0.984528,-0.984604 2.297302,-0.218796 3.172394,0.328094z" id="path3330"/>
     <path fill="#000000" d="m512.34436,161.406952c-0.21875,7.220093 -2.187866,13.893692 -9.18927,16.846695c-0.875092,0 -1.531616,-0.983994 -1.859711,-1.641006c-0.656403,-2.296997 2.187897,-1.858994 2.844299,-3.609985c2.406708,-2.625 5.251007,-6.126007 4.266418,-9.736115c0,-0.984497 0.765778,-2.078384 1.750397,-2.078384c0.546997,0.437592 1.422089,0.218796 2.187866,0.218796z" id="path3332"/>
     <path fill="#000000" d="m499.216797,166.657944c0.109497,0.656296 -0.218719,1.859695 -1.093903,2.406601c-2.187897,4.923096 0.218781,9.8461 3.391296,13.674103c4.594604,3.938995 12.142975,5.688995 17.612885,2.626007c1.640991,-0.766006 1.75,-2.735016 3.718994,-2.188019l-0.546997,1.641006c-6.235168,6.126007 -16.627869,6.236008 -24.176178,2.843994c-1.312714,-1.640991 -3.719513,-1.421982 -5.469818,-0.983994c-5.798004,3.719009 -13.783875,2.843994 -19.691284,0.766006c-1.859711,-1.751007 -4.594696,-2.735001 -5.251007,-5.251007l0.4375,-0.546997c2.078613,1.969009 4.813507,3.5 7.438995,4.70401c5.251007,0.655991 11.267792,-1.20401 14.440308,-6.564011c1.093994,-3.937988 2.297394,-8.53299 0,-12.362c1.85968,-3.391296 5.251007,1.312805 8.095306,-0.984497l1.093903,0.218796z" id="path1618"/>
    </g>
   </g>
   <g transform="matrix(4.02006 0 0 4.02006 1362.69 882.327)" id="g3360">
    <g id="g1675">
     <path fill="#ffffff" stroke="#000000" stroke-width="2" d="m429.330078,190.545654c-0.980743,1.725113 -1.99118,3.40799 -1.991302,5.340988l0.002014,0.484985c0,4.172012 3.272888,7.017014 7.027588,7.017014l121.319733,0c3.754944,0 6.951111,-3.400131 6.951111,-7.572128l-0.002136,-0.537872c0,-1.932999 -1.024902,-3.608002 -1.990967,-5.340988l-60.083435,-107.780205c-2.654602,-2.94957 -6.958313,-2.94957 -9.613281,0.000397l-61.619324,108.38781z" id="path1676"/>
     <path fill="#ffcc00" stroke="#000000" stroke-width="4.8516" stroke-linecap="round" stroke-linejoin="round" d="m495.560089,85.755142l-63.423309,111.836502l61.187012,0l2.852112,0l60.507202,0l-60.310516,-111.836502l-0.8125,0z" id="path1677"/>
    </g>
    <g id="g1678">
     <path fill="#000000" d="m514.846008,150.730743c3.084045,0 5.584045,-2.500198 5.584045,-5.58429c0,-3.084106 -2.5,-5.584305 -5.584045,-5.584305c-3.084106,0 -5.58432,2.500198 -5.58432,5.584305c0,3.084091 2.500214,5.58429 5.58432,5.58429z" id="path1679"/>
     <path fill="#000000" d="m482.817993,186.607635l0,-2.412994l7.897278,0l0,-3.949005l9.652313,0l0,3.949005l8.994202,0l0,2.412994l-26.543793,0z" id="path1680"/>
     <path fill="#000000" d="m486.327881,144.268951l-1.462494,-3.802399l12.86969,-4.679916l9.067291,6.434906c0,0 0.585022,7.312302 2.925018,8.774796l-3.80249,9.944809l5.849884,5.557388l-1.462402,2.924911l-11.114777,-7.019806l5.264893,-6.727402l-0.584991,-1.169998l-11.699799,3.802414l2.047485,10.237289l-7.604797,12.284698l-4.679901,0l7.604797,-12.869705l-2.047516,-8.4823l-1.754883,-2.33989l-5.849915,7.897293l-14.039673,-7.897293l3.509888,-2.925003l8.482391,4.679901l5.264801,-8.189804l18.719696,-4.972397l0.877411,-2.047501l-4.67981,-3.217392l-11.699799,3.802399z" id="path1681"/>
    </g>
   </g>
   <g transform="matrix(0.823019 0 0 0.823019 -1677.36 853.491)" id="g3386">
    <g id="g3388">
     <g id="g3390">
      <path fill="none" fill-rule="evenodd" stroke="#000000" stroke-width="12.5" stroke-linecap="round" stroke-miterlimit="4" d="m2404.345703,409.466156c-8.766357,0.43103 -16.706787,5.281189 -21.098145,12.880676c-109.061279,188.916412 -218.122559,377.832794 -327.183838,566.749237c-4.618408,7.994324 -4.614258,17.839905 0,25.836975c4.614014,7.99707 13.125977,12.928528 22.358398,12.931091c217.215088,0.04187 434.43042,0.083984 651.645508,0.125977c9.210693,-0.005127 17.713623,-4.912231 22.333252,-12.880615c4.619873,-7.968384 4.647705,-17.790649 0.075684,-25.78656c-108.153809,-188.958435 -216.307861,-377.91687 -324.46167,-566.875275c-4.825439,-8.436005 -13.961914,-13.451904 -23.669189,-12.981506z" id="path3392"/>
      <path fill="#ffcc00" fill-rule="evenodd" stroke="#000000" stroke-width="29.443962" stroke-linecap="round" stroke-linejoin="round" stroke-miterlimit="4" d="m2405.605957,436.336578c-108.756592,188.388397 -217.52002,376.772797 -326.276367,565.161224c216.610107,0.04187 433.220459,0.084106 649.830566,0.126038c-107.854248,-188.434814 -215.698975,-376.851013 -323.554199,-565.287262z" id="path3394"/>
     </g>
    </g>
    <g id="g3396" transform="matrix(0.925703 0 0 0.925703 31.3296 35.7351)"/>
    <g id="g3398" transform="matrix(5.12537 0 0 5.12537 -38.4974 6.0434)">
     <path fill="#000000" d="m495.258209,147.466705c3.084106,0 5.584106,-2.500198 5.584106,-5.58429c0,-3.084106 -2.5,-5.584305 -5.584106,-5.584305c-3.084076,0 -5.58429,2.500198 -5.58429,5.584305c0,3.084091 2.500214,5.58429 5.58429,5.58429z" id="path3400"/>
     <path fill="#000000" d="m463.230225,183.343597l0,-2.412979l7.897278,0l0,-3.94902l9.652313,0l0,3.94902l8.994202,0l0,2.412979l-26.543793,0z" id="path3402"/>
     <path fill="#000000" d="m466.740112,141.004898l-1.462494,-3.802383l12.86969,-4.679916l9.067291,6.434906c0,0 0.585022,7.312302 2.925018,8.774796l-3.80249,9.944809l5.849884,5.557388l-1.462402,2.924911l-11.114807,-7.019791l5.264923,-6.727417l-0.584991,-1.169983l-11.699829,3.802399l2.047516,10.237289l-7.604797,12.284698l-4.679901,0l7.604797,-12.869705l-2.047485,-8.4823l-1.754913,-2.33989l-5.849915,7.897293l-14.039703,-7.897293l3.509918,-2.925003l8.482391,4.679901l5.264801,-8.189804l18.719696,-4.972397l0.877411,-2.047501l-4.67981,-3.217392l-11.699799,3.802383z" id="path3404"/>
    </g>
   </g>
   <g transform="matrix(0.823131 0 0 0.823131 162.921 -330.562)" id="g3419">
    <g id="g3421">
     <g id="g3423">
      <path fill="none" fill-rule="evenodd" stroke="#000000" stroke-width="12.5" stroke-linecap="round" stroke-miterlimit="4" d="m2404.069336,409.420074c-8.766357,0.43103 -16.706787,5.281189 -21.098145,12.880676c-109.061279,188.916412 -218.122559,377.832794 -327.184082,566.749237c-4.618164,7.994324 -4.614258,17.839905 0,25.836975c4.614502,7.99707 13.125977,12.928467 22.358398,12.93103c217.215332,0.041992 434.430664,0.083984 651.645752,0.126099c9.210693,-0.005127 17.713379,-4.912292 22.333252,-12.880676c4.619629,-7.968384 4.647705,-17.790649 0.075439,-25.78656c-108.153809,-188.958435 -216.307617,-377.91687 -324.46167,-566.875275c-4.825195,-8.436005 -13.96167,-13.451904 -23.668945,-12.981506z" id="path3425"/>
      <path fill="#ffcc00" fill-rule="evenodd" stroke="#000000" stroke-width="29.443962" stroke-linecap="round" stroke-linejoin="round" stroke-miterlimit="4" d="m2405.32959,436.290497c-108.756348,188.388397 -217.52002,376.772797 -326.276611,565.161224c216.610352,0.04187 433.220703,0.084106 649.830811,0.126038c-107.854004,-188.434814 -215.699219,-376.851013 -323.554199,-565.287262z" id="path3427"/>
     </g>
    </g>
    <g id="g3429" transform="matrix(0.925703 0 0 0.925703 31.3296 35.7351)"/>
   </g>
   <g transform="matrix(0.823019 0 0 0.823019 -502.625 1460.27)" id="g3447">
    <g id="g3449">
     <g id="g3451">
      <path fill="none" fill-rule="evenodd" stroke="#000000" stroke-width="12.5" stroke-linecap="round" stroke-miterlimit="4" d="m2404.345703,409.466156c-8.766357,0.43103 -16.706787,5.281189 -21.098145,12.880676c-109.061279,188.916412 -218.122559,377.832794 -327.183838,566.749237c-4.618408,7.994324 -4.614258,17.839905 0,25.836975c4.614014,7.99707 13.125977,12.928528 22.358398,12.931091c217.215088,0.04187 434.43042,0.083984 651.645508,0.125977c9.210693,-0.005127 17.713623,-4.912231 22.333252,-12.880615c4.619873,-7.968384 4.647705,-17.790649 0.075684,-25.78656c-108.153809,-188.958435 -216.307861,-377.91687 -324.46167,-566.875275c-4.825439,-8.436005 -13.961914,-13.451904 -23.669189,-12.981506z" id="path3453"/>
      <path fill="#ffcc00" fill-rule="evenodd" stroke="#000000" stroke-width="29.443962" stroke-linecap="round" stroke-linejoin="round" stroke-miterlimit="4" d="m2405.605957,436.336578c-108.756592,188.388397 -217.52002,376.772797 -326.276367,565.161224c216.610107,0.04187 433.220459,0.084106 649.830566,0.126038c-107.854248,-188.434814 -215.698975,-376.851013 -323.554199,-565.287262z" id="path3455"/>
     </g>
    </g>
    <g id="g3457" transform="matrix(0.925703 0 0 0.925703 31.3296 35.7351)"/>
    <g id="g3549" transform="matrix(0.478269 0 0 0.478269 167.369 150.835)">
     <path fill="none" fill-opacity="0.75" fill-rule="evenodd" stroke="#000000" stroke-width="25" stroke-linecap="round" stroke-linejoin="round" stroke-miterlimit="4" d="m4576.717773,1609.428101l155.421875,0m140.492676,-16.673462c0,36.478027 -29.605469,66.083496 -66.083496,66.083496c-36.478027,0 -66.083496,-29.605469 -66.083496,-66.083496c0,-36.478027 29.605469,-66.083374 66.083496,-66.083374c36.478027,0 66.083496,29.605347 66.083496,66.083374zm-309.52832,16.673462c0,27.38269 -22.223633,49.606323 -49.605957,49.606323c-27.382813,0 -49.606445,-22.223633 -49.606445,-49.606323c0,-27.38269 22.223633,-49.606323 49.606445,-49.606323c27.382324,0 49.605957,22.223633 49.605957,49.606323zm-103.798828,1.043213l-70.866211,0m577.559082,-231.358276l-364.960938,0m269.291504,230.315063l95.669434,0m0,0l0,-230.315063m-145.275879,-290.551147l0,283.464478m0.180176,-282.051636l-237.581543,-1.412842l-120.472656,428.740112l-53.149414,0m109.891113,-463.038452l-141.780762,583.510864l-113.38623,-31.889771m419.215332,-224.641113l-15.27832,65.192383l-180.708496,0" id="path3496"/>
     <path opacity="0.966667" fill="#000000" fill-rule="nonzero" stroke-width="43.75" stroke-linecap="round" stroke-linejoin="round" stroke-miterlimit="4" d="m4719.742676,1113.365601c-18.581055,0 -33.65625,15.075073 -33.65625,33.65625c0,14.040039 8.619141,26.078003 20.84375,31.124878c-1.745605,9.509644 -5.398438,24.774658 -13.625,39.65625c-12.805664,23.165527 -31.126465,42.562378 -75.53125,36.4375c-10.260254,-1.415161 -19.741211,5.739624 -21.15625,16c-1.415039,10.260498 5.770996,19.741089 16.03125,21.156372c23.894531,3.295776 44.26416,-0.167603 61.25,-7.500122c16.412598,6.170166 25.249023,12.890869 29.3125,17.875c4.183105,5.130859 4.499512,8.247803 4.09375,12c-0.405762,3.752319 -2.527832,8.244385 -5.15625,11.562622c-1.660645,2.096802 -3.941406,3.371216 -4.4375,3.812378c-7.589844,1.28418 -30.825195,3.986572 -52,6.062622c-22.465332,2.202393 -42.75,3.968628 -42.75,3.968628c-6.830566,0.376953 -12.915527,4.457031 -15.875,10.625c-1.799316,3.750244 -2.114746,7.872803 -1.3125,11.8125c0.038086,1.44812 0.244141,2.914673 0.625,4.34375c2.428711,9.714844 2.084473,27.093994 0.4375,41.09375c-1.646973,13.999878 -4.0625,24.53125 -4.0625,24.53125c-1.69043,6.593384 0.30957,13.599243 5.25,18.28125c4.94043,4.682251 12.038086,6.291382 18.53125,4.250122c6.493164,-2.041382 11.377441,-7.427124 12.75,-14.09375c0,0 2.884766,-12.475464 4.78125,-28.59375c1.29541,-11.01001 2.238281,-23.77478 1.3125,-36.687622c8.101074,-0.730835 11.35498,-0.982056 23.96875,-2.21875c15.662109,-1.5354 31.436523,-3.111206 43.78125,-4.71875l0,7.78125l70.875,0l0,-7.03125l4,1.03125c18.458496,-71.988159 13.646973,-125.459839 3.46875,-161.156128c-6.581543,-23.082397 -15.604004,-38.51062 -21.40625,-47.125c2.055176,-4.352661 3.3125,-9.151367 3.3125,-14.28125c0,-18.581177 -15.075195,-33.65625 -33.65625,-33.65625z" id="path3537"/>
    </g>
   </g>
   <g transform="matrix(4.02006 0 0 4.02006 -1679.96 287.298)" id="g3492">
    <g id="g3494">
     <path fill="#ffffff" stroke="#000000" stroke-width="2" d="m429.330078,190.545654c-0.980743,1.725113 -1.99118,3.40799 -1.991302,5.340988l0.002014,0.599838c0,4.171997 3.272888,6.902161 7.027588,6.902161l121.319733,0c3.754944,0 6.93335,-3.245636 6.93335,-7.417648l0.015625,-0.692352c0,-1.932999 -1.024902,-3.608002 -1.990967,-5.340988l-60.083435,-107.780205c-2.654602,-2.94957 -6.958313,-2.94957 -9.613281,0.000397l-61.619324,108.38781z" id="path3498"/>
     <path fill="#ffcc00" stroke="#000000" stroke-width="4.8516" stroke-linecap="round" stroke-linejoin="round" d="m495.560089,85.755142l-63.423309,111.836502l61.187012,0l2.852112,0l60.507202,0l-60.310516,-111.836502l-0.8125,0z" id="path3500"/>
    </g>
    <g id="g3502">
     <path fill="#000000" d="m483.945496,129.268448c-2.723206,12.987396 -6.598511,26.603287 -9.321716,39.276505c-0.209381,0.419098 0.314209,1.152695 0.523804,1.780701c2.408905,0 2.408905,-2.723206 3.037292,-4.294403c2.094818,-8.169495 3.770599,-16.443695 6.284302,-24.4039c0.62851,-3.351593 1.780518,-6.807907 2.513702,-9.845306l1.990112,-1.256805l21.366486,-0.123901c2.304199,1.571106 1.561523,5.674911 1.666138,7.979218c-0.628418,6.284302 0.114197,11.623383 0.123962,18.119598l0.932983,1.823486c4.718506,-0.32399 11.49054,-0.758896 11.797546,2.156509l0.037964,17.072495c-0.837952,1.151993 1.98999,5.026993 -1.466003,4.817993c-3.246948,0 -8.484192,-2.722992 -10.055298,1.990021c-1.885284,1.465988 -5.027374,1.465988 -7.017395,1.046982c-1.98999,-0.942001 -2.827881,-2.931992 -4.817871,-3.769989c-4.399017,-0.104996 -10.159607,0.103989 -14.034912,-0.315002c-1.1521,1.67601 -1.675812,3.457001 -3.770599,4.084991c-1.780518,0.210007 -3.14212,-0.418991 -4.608398,-0.837997c-0.523712,-1.151993 -0.942719,-2.931992 -2.513702,-3.246994c-2.723206,-0.104004 -6.807922,-1.466003 -6.284302,3.03801c-3.561096,-1.67601 -7.855316,-1.67601 -11.521088,-3.03801c-0.942719,-0.418991 -0.314331,-1.466003 -0.523712,-2.19899l1.256805,-0.838013c3.246887,0.209991 6.28418,2.722992 9.321686,1.781006c2.513702,-5.34201 2.932617,-11.940613 4.817902,-17.282196l8.373505,-36.352814l1.890808,2.836807z" id="path3504"/>
     <path fill="#ffcc00" d="m489.706085,133.562546l19.166992,-0.090408l0.733215,1.137802c0.321503,7.231796 0.104797,14.872803 0.209381,21.890213c-0.837891,1.675797 -3.037292,0.837891 -4.294098,0.7332c-1.4664,-1.571106 1.361511,-2.513718 0.837799,-4.294205c0.419006,-4.922699 0.62851,-10.264404 -3.037384,-13.825409c1.4664,-1.1521 -0.104797,-2.094788 0,-3.561096c-1.047302,-0.837906 -2.827911,-1.466293 -4.084808,-0.419006c-1.047302,0.837906 -1.047302,2.199615 -0.942596,3.456421c1.885315,0.942596 0.523682,3.037292 0.209503,4.294189c-2.199493,1.675903 -2.199493,4.60849 -5.236908,4.817993c-1.047394,-0.523697 -2.932709,-0.523697 -3.246796,0.942612c-0.419098,1.25679 0.733093,1.885193 1.256805,2.827896c3.14209,1.571106 6.703186,-3.351593 8.274292,1.256897c-1.571106,5.446304 -8.379089,-0.314301 -11.311707,3.980011c0.209503,2.199493 0.837921,5.132187 -0.523682,7.017395c-2.094818,-0.209412 -5.655792,0.7332 -6.074799,-1.780502l8.064789,-28.384003z" id="path3506"/>
     <path fill="#ffcc00" d="m495.780975,162.993942c-0.419098,1.047394 -1.675873,1.047394 -2.828003,1.047394c-1.256775,-0.7332 -0.628387,-2.513687 -0.418884,-3.561188c1.047302,-1.466293 5.131989,0.104797 3.246887,2.513794z" id="path3508"/>
     <path fill="#ffcc00" d="m497.037781,166.973938c1.571014,-2.094696 0.942596,-4.341782 1.466309,-6.541199c7.645905,0.942505 14.839417,-0.219086 22.695007,0.409302l0.732971,0.942596l-0.281006,16.501007c-1.465942,1.362 -3.246948,0.733002 -5.027405,0.524002c-0.63324,-4.117004 -2.902466,-7.410995 -8.919067,-7.410995c-6.016693,0 -6.896301,7.410995 -6.896301,7.410995l-13.615906,-0.210007c0,-2.408997 -2.199493,-2.931992 -3.770508,-4.293991c-2.304199,0.104996 -5.027496,0.418991 -5.970093,2.723007c-0.523682,0.628998 -0.628387,1.570984 -1.571106,1.780991l-3.246796,-0.210007c0.523621,-1.570984 -0.314178,-4.502991 1.780518,-5.550995c1.675781,-0.733002 4.922699,1.675995 5.236877,-1.466003l-0.523682,-0.523987c-0.502106,-4.072708 0.774689,-4.669708 2.934906,-4.527512l14.975281,0.442795z" id="path14"/>
     <path fill="#ffcc00" d="m508.809296,183.614655c2.720581,0 4.926178,-2.205002 4.926178,-4.92601c0,-2.720993 -2.205597,-4.925995 -4.926178,-4.925995c-2.720612,0 -4.926117,2.205002 -4.926117,4.925995c0,2.721008 2.205505,4.92601 4.926117,4.92601z" id="path15"/>
     <path fill="#ffcc00" d="m482.054688,183.082657c1.731201,0 3.134796,-1.403 3.134796,-3.134003c0,-1.73201 -1.403595,-3.13501 -3.134796,-3.13501c-1.731293,0 -3.134888,1.403 -3.134888,3.13501c0,1.731003 1.403595,3.134003 3.134888,3.134003z" id="path16"/>
    </g>
   </g>
  </g>
 </g>
</svg>