<svg xmlns="http://www.w3.org/2000/svg" xmlns:xlink="http://www.w3.org/1999/xlink" viewBox="0 0 533 488.5"><defs><path id="a" d="M599-4308h528v486H599z"/></defs><clipPath id="b"><use xlink:href="#a" overflow="visible"/></clipPath><g clip-path="url(#b)"><defs><path id="c" d="M-193-4699h1440V5387H-193z"/></defs></g><g clip-path="url(#b)"><defs><path id="d" d="M-193-4699h1440V5387H-193z"/></defs></g><g clip-path="url(#b)"><defs><path id="e" d="M-193-4699h1440V5387H-193z"/></defs></g><g clip-path="url(#b)"><defs><path id="f" d="M-193-4699h1440V5387H-193z"/></defs></g><g clip-path="url(#b)"><defs><path id="g" d="M-193-4699h1440V5387H-193z"/></defs></g><g clip-path="url(#b)"><defs><path id="h" d="M-193-4699h1440V5387H-193z"/></defs></g><g clip-path="url(#b)"><defs><path id="i" d="M-193-4699h1440V5387H-193z"/></defs></g><g clip-path="url(#b)"><defs><path id="j" d="M-193-4699h1440V5387H-193z"/></defs></g><g clip-path="url(#b)"><defs><path id="k" d="M-193-4699h1440V5387H-193z"/></defs></g><g clip-path="url(#b)"><defs><path id="l" d="M-193-4699h1440V5387H-193z"/></defs></g><g clip-path="url(#b)"><defs><path id="m" d="M-193-4699h1440V5387H-193z"/></defs></g><g clip-path="url(#b)"><defs><path id="n" d="M-193-4699h1440V5387H-193z"/></defs></g><g clip-path="url(#b)"><defs><path id="o" d="M-193-4699h1440V5387H-193z"/></defs></g><g clip-path="url(#b)"><defs><path id="p" d="M-193-4699h1440V5387H-193z"/></defs></g><g clip-path="url(#b)"><defs><path id="q" d="M-193-4699h1440V5387H-193z"/></defs></g><g clip-path="url(#b)"><defs><path id="r" d="M-193-4699h1440V5387H-193z"/></defs></g><g clip-path="url(#b)"><defs><path id="s" d="M-193-4699h1440V5387H-193z"/></defs></g><g clip-path="url(#b)"><defs><path id="t" d="M-193-4699h1440V5387H-193z"/></defs></g><g clip-path="url(#b)"><defs><path id="u" d="M-193-4699h1440V5387H-193z"/></defs></g><g clip-path="url(#b)"><defs><path id="v" d="M-193-4699h1440V5387H-193z"/></defs></g><g clip-path="url(#b)"><defs><path id="w" d="M-193-4699h1440V5387H-193z"/></defs></g><g clip-path="url(#b)"><defs><path id="x" d="M-193-4699h1440V5387H-193z"/></defs></g><g clip-path="url(#b)"><defs><path id="y" d="M-193-4699h1440V5387H-193z"/></defs></g><g clip-path="url(#b)"><defs><path id="z" d="M-193-4699h1440V5387H-193z"/></defs></g><g clip-path="url(#b)"><defs><path id="A" d="M-193-4699h1440V5387H-193z"/></defs></g><g clip-path="url(#b)"><defs><path id="B" d="M-193-4699h1440V5387H-193z"/></defs></g><g clip-path="url(#b)"><defs><path id="C" d="M-193-4699h1440V5387H-193z"/></defs></g><g clip-path="url(#b)"><defs><path id="D" d="M-193-4699h1440V5387H-193z"/></defs></g><g clip-path="url(#b)"><defs><path id="E" d="M-193-4699h1440V5387H-193z"/></defs></g><g clip-path="url(#b)"><defs><path id="F" d="M-193-4699h1440V5387H-193z"/></defs></g><g clip-path="url(#b)"><defs><path id="G" d="M-193-4699h1440V5387H-193z"/></defs></g><g clip-path="url(#b)"><defs><path id="H" d="M-193-4699h1440V5387H-193z"/></defs></g><g clip-path="url(#b)"><defs><path id="I" d="M-193-4699h1440V5387H-193z"/></defs></g><g clip-path="url(#b)"><defs><path id="J" d="M-193-4699h1440V5387H-193z"/></defs></g><g clip-path="url(#b)"><defs><path id="K" d="M-193-4699h1440V5387H-193z"/></defs></g><g clip-path="url(#b)"><defs><path id="L" d="M-193-4699h1440V5387H-193z"/></defs></g><g clip-path="url(#b)"><defs><path id="M" d="M-193-4699h1440V5387H-193z"/></defs></g><g clip-path="url(#b)"><defs><path id="N" d="M-193-4699h1440V5387H-193z"/></defs></g><g clip-path="url(#b)"><defs><path id="O" d="M-193-4699h1440V5387H-193z"/></defs></g><g clip-path="url(#b)"><defs><path id="P" d="M-193-4699h1440V5387H-193z"/></defs></g><g clip-path="url(#b)"><defs><path id="Q" d="M-193-4699h1440V5387H-193z"/></defs></g><g clip-path="url(#b)"><defs><path id="R" d="M-193-4699h1440V5387H-193z"/></defs></g><g clip-path="url(#b)"><defs><path id="S" d="M-193-4699h1440V5387H-193z"/></defs></g><g clip-path="url(#b)"><defs><path id="T" d="M-193-4699h1440V5387H-193z"/></defs></g><g clip-path="url(#b)"><defs><path id="U" d="M-193-4699h1440V5387H-193z"/></defs></g><g clip-path="url(#b)"><defs><path id="V" d="M-193-4699h1440V5387H-193z"/></defs></g><g clip-path="url(#b)"><defs><path id="W" d="M-193-4699h1440V5387H-193z"/></defs></g><g clip-path="url(#b)"><defs><path id="X" d="M-193-4699h1440V5387H-193z"/></defs></g><g clip-path="url(#b)"><defs><path id="Y" d="M-193-4699h1440V5387H-193z"/></defs></g><g clip-path="url(#b)"><defs><path id="Z" d="M-193-4699h1440V5387H-193z"/></defs></g><g clip-path="url(#b)"><defs><path id="aa" d="M-193-4699h1440V5387H-193z"/></defs></g><g clip-path="url(#b)"><defs><path id="ab" d="M-193-4699h1440V5387H-193z"/></defs></g><g clip-path="url(#b)"><defs><path id="ac" d="M-193-4699h1440V5387H-193z"/></defs></g><g clip-path="url(#b)"><defs><path id="ad" d="M-193-4699h1440V5387H-193z"/></defs></g><g clip-path="url(#b)"><defs><path id="ae" d="M-193-4699h1440V5387H-193z"/></defs></g><g clip-path="url(#b)"><defs><path id="af" d="M-193-4699h1440V5387H-193z"/></defs></g><g clip-path="url(#b)"><defs><path id="ag" d="M-193-4699h1440V5387H-193z"/></defs></g><g clip-path="url(#b)"><defs><path id="ah" d="M-193-4699h1440V5387H-193z"/></defs></g><g clip-path="url(#b)"><defs><path id="ai" d="M-193-4699h1440V5387H-193z"/></defs></g><g clip-path="url(#b)"><defs><path id="aj" d="M-193-4699h1440V5387H-193z"/></defs></g><g clip-path="url(#b)"><defs><path id="ak" d="M-193-4699h1440V5387H-193z"/></defs></g><g clip-path="url(#b)"><defs><path id="al" d="M-193-4699h1440V5387H-193z"/></defs></g><g clip-path="url(#b)"><defs><path id="am" d="M-193-4699h1440V5387H-193z"/></defs></g><g clip-path="url(#b)"><defs><path id="an" d="M-193-4699h1440V5387H-193z"/></defs></g><g clip-path="url(#b)"><defs><path id="ao" d="M-193-4699h1440V5387H-193z"/></defs></g><g clip-path="url(#b)"><defs><path id="ap" d="M-193-4699h1440V5387H-193z"/></defs></g><g clip-path="url(#b)"><defs><path id="aq" d="M-193-4699h1440V5387H-193z"/></defs></g><g clip-path="url(#b)"><defs><path id="ar" d="M-193-4699h1440V5387H-193z"/></defs></g><g clip-path="url(#b)"><defs><path id="as" d="M-193-4699h1440V5387H-193z"/></defs></g><g><path fill="#9ad30a" d="M464.07 405.92l-50.55-28.95 50.55-28.5 50.55 28.5z"/><path fill="#719b07" d="M464 405.87l-50.73-28.91-.27.01v7.82l51 28.91z"/><path fill="#3a5004" d="M464 405.87l50.73-28.91.27.01v7.82l-51 28.91z"/></g><g><path d="M442 368v1.96c0 6.47 8.8 11.71 20 11.71s20-5.24 20-11.71v-2.85l-40.27-.35" fill="#575757"/><ellipse cx="461.68" cy="367.11" rx="20.28" ry="11.71" fill="#999"/><path d="M442 360v2.41c0 6.47 8.8 11.71 20 11.71s20-5.24 20-11.71v-2.85l-40.27-.57" fill="#575757"/><ellipse cx="461.68" cy="359.56" rx="20.28" ry="11.71" fill="#999"/><path d="M442 353v1.87c0 6.47 8.8 11.71 20 11.71s20-5.24 20-11.71v-2.85l-40.27-.3" fill="#575757"/><ellipse cx="461.68" cy="352.02" rx="20.28" ry="11.71" fill="#999"/><path d="M442 345v2.32c0 6.47 8.8 11.71 20 11.71s20-5.24 20-11.71v-2.85l-40.27-.53" fill="#575757"/><ellipse cx="461.68" cy="344.47" rx="20.28" ry="11.71" fill="#999"/><path d="M442 337v2.77c0 6.47 8.8 11.71 20 11.71s20-5.24 20-11.71v-2.85l-40.27-.75" fill="#575757"/><ellipse cx="461.68" cy="336.92" rx="20.28" ry="11.71" fill="#999"/></g><path fill="#e6e6e6" d="M461.7 328h-.79l.02-89.22-.13-29.1 29.89-15.07 36.64-18.19-.08-39.06-44.01-26.43-45.43 25.32-.38-.69 45.8-25.54L528 136.91v.22l.1 39.78-.21.11-36.85 18.3-29.45 14.84.13 28.62z"/><ellipse cx="461.42" cy="329.8" rx="3.7" ry="2.13" fill="#e6e6e6"/><g><defs><path id="at" d="M309.44 392.96l-.09-33.52 46.82-27.03.09 33.52z"/></defs><clipPath id="au"><use xlink:href="#at" overflow="visible"/></clipPath><g clip-path="url(#au)"><path d="M336.76 362.82l3.4-5.9 3.43 1.95-2.09 1.21c-.05 4.77-3.4 10.54-7.54 12.93-1.8 1.04-3.55 1.31-4.92.76l-.1-.04 1.85-3.2.08.03c.89.29 1.95.1 3.07-.55 2.69-1.56 4.88-5.31 4.93-8.42l-2.11 1.23m-8.96 9.14l-3.43-1.95 2.09-1.21c.05-4.78 3.41-10.55 7.54-12.94 1.8-1.04 3.55-1.3 4.92-.76l.09.04-1.85 3.2-.08-.02c-.88-.29-1.94-.1-3.07.54-2.69 1.55-4.88 5.3-4.93 8.42l2.13-1.23-3.41 5.91m9.57-28.7c-3.9 2.25-7.83 6.59-10.32 12.62-1.02-.07-2.11.25-3.17.87-3.24 1.87-6.26 6.43-6.49 10.72-4.51 3.24-7.99 9.67-7.97 15.01.02 5.79 4.12 8.12 9.15 5.22l28.58-16.5c5.03-2.9 9.1-9.96 9.09-15.75-.01-4.67-2.69-7.09-6.38-6.32-.59-7.86-6.51-9.32-12.49-5.87" fill="#719b07"/></g></g><g><path fill="#719b07" d="M441.04 133.84l-.28 28.79-24.5-14.92.09-28.69z"/><path fill="#3a5004" d="M440.99 133.8l-.25 28.8.04.06 3.33-1.86.22-28.87z"/><path fill="#9ad30a" d="M441.12 134.03l-24.69-14.85-.03-.06 3.33-1.86 24.72 14.9z"/><ellipse transform="rotate(-119.24 428.618 140.894)" cx="428.63" cy="140.9" rx="5.61" ry="3.24" fill="#3a5004"/></g><path fill="#9ad30a" d="M428.905 141.5l.258.462-56.723 31.662-.26-.463zM123.81 192.9l-.59-.46L179 161.1V90h1v71.41zM225.94 389.91L14.26 268.7l211.68-119.33L437.62 268.7z"/><path fill="#8cc109" d="M226.04 397.47L182 372.25l44.04-24.82 44.03 24.82z"/><path fill="#719b07" d="M226 389.71L14.35 268.66l-.35.05v9.51l212 121.09z"/><path fill="#3a5004" d="M225 389.71l211.65-121.05.35.05v9.51L225 399.31z"/><ellipse cx="226.13" cy="369.39" rx="8.31" ry="4.76" fill="#3a5004"/><ellipse cx="330.69" cy="304.7" rx="8.31" ry="4.76" fill="#3a5004"/><ellipse transform="rotate(-121.193 179.937 93.744)" cx="179.93" cy="93.74" rx="6.27" ry="3.59" fill="#9ad30a"/><g opacity=".16"><defs><path id="av" d="M36.35 238.44l50.11-29.12 64.7 37.35-50.11 29.12z"/></defs><clipPath id="aw"><use xlink:href="#av" overflow="visible"/></clipPath><g clip-path="url(#aw)" fill="#3a5004"><path d="M134.53 237.88l-32.84-18.96-40.23 5.24-6.35 16.24-2.75 7.18 32.84 18.96 12.39-1.61 28.02-3.73 8.92-23.32m.71-.28l-.13.1-9.23 23.47.15-.02 9.21-23.55"/><path d="M85.19 266.55l-32.84-18.96 32.84 18.96m50.14-29.02l-33.05-19.08-40.85 5.44-.26.11-9.03 23.55.1-.03.11.06 2.75-7.18 6.2-16.22.15-.02 40.23-5.24 32.84 18.96-8.92 23.32-.03.09-27.99 3.65-12.39 1.61.1.06 40.46-5.21.03.02.1-.25 9.23-23.47.13-.1.09-.07"/></g></g><g><defs><path id="ax" d="M36.25 210.47l49.78-28.93 64.7 37.35-49.78 28.93z"/></defs><clipPath id="ay"><use xlink:href="#ax" overflow="visible"/></clipPath><g clip-path="url(#ay)" fill="#3a5004"><path d="M61.18 196.18l-.15.02-8.31 21.9 8.16-21.13.27-.7.03-.09m64.44 36.97l-.15.02-.07.19-28.55 3.73-6.77.92 35.43-4.58.11-.28m8.73-23.19L101.51 191l-40.37 5.26-.27.7-8.7 22.71 32.84 18.96 11.82-1.54 28.63-3.91 8.89-23.22"/><path d="M85.02 238.63l-32.84-18.96 32.84 18.96m11.82-1.55l-11.82 1.54.1.06 4.95-.68 6.77-.92m-35.96-40.12l-8.16 21.13-.55 1.44-.08.08.1.06 8.69-22.71m.26-.7l-.27.7.27-.7m64.33 36.91l-28.63 3.91 28.55-3.73.08-.18m-64.2-37.24l-.23.17.17-.02.06-.15m73.66 13.84l-.48.25-33.05-19.08-40.19 5.14-.04.1-.03.09 40.37-5.26 32.84 18.96-8.88 23.21.15-.02.68-.09.03.02 8.6-23.32"/></g></g><g><defs><path id="az" d="M36.42 196.14l49.66-28.86 64.49 37.23-49.67 28.86z"/></defs><clipPath id="aA"><use xlink:href="#az" overflow="visible"/></clipPath><g clip-path="url(#aA)"><path fill="#719b07" d="M134.8 195.4l-32.95-19.02-40.6 5.33-9.06 23.54 32.94 19.02 40.6-5.33 9.07-23.54"/></g></g><g><defs><path id="aB" d="M36.42 182.55l49.66-28.86 64.49 37.23-49.67 28.86z"/></defs><clipPath id="aC"><use xlink:href="#aB" overflow="visible"/></clipPath><g clip-path="url(#aC)"><path fill="#e6e6e6" d="M134.8 181.81l-32.95-19.02-40.6 5.33-9.06 23.54 32.94 19.02 40.6-5.33 9.07-23.54"/></g></g><g><defs><path id="aD" d="M138.78 45.34l.2-69.33 96.85 55.91-.19 69.34z"/></defs><clipPath id="aE"><use xlink:href="#aD" overflow="visible"/></clipPath><g clip-path="url(#aE)"><path d="M195.47 48.35l7.09-4.04 7.04 12.2-4.32-2.49c-.16 9.73-7.15 13.63-15.71 8.69-3.72-2.15-7.32-5.76-10.14-10.17l-.2-.31 3.85-2.19.17.24c1.82 2.71 4.02 4.85 6.34 6.2 5.57 3.21 10.13.7 10.27-5.59l-4.39-2.54m-18.6-2.52l-7.04-12.2 4.32 2.5c.16-9.72 7.15-13.63 15.71-8.69 3.72 2.15 7.31 5.75 10.13 10.16l.2.31-3.85 2.19-.17-.24c-1.82-2.71-4.01-4.85-6.33-6.19-5.57-3.22-10.13-.71-10.27 5.59l4.4 2.54-7.1 4.03m20.08-36.35c-8.07-4.66-16.22-5.07-21.43 1.41-2.1-2.59-4.35-4.52-6.56-5.79-6.69-3.86-12.97-1.67-13.51 6.62-9.33-4.07-16.58.89-16.61 11.96-.03 11.97 8.39 26.55 18.81 32.56l59.12 34.13c10.42 6.02 18.89 1.19 18.93-10.78.03-9.68-5.47-21.06-13.08-28.25-1.12-17.61-13.3-34.73-25.67-41.86" fill="#9ad30a"/></g><path fill="#719b07" d="M158.97 28.15l28.34-13.53 21.48 20.19 9.96 31.7-13.33 14.66-28.23-15.76-16.37-10.58z"/></g><path fill="#9ad30a" d="M230.25 91.65l-7.92 3.99-9.24-6.28 6.02-3.04zM193.2 13.27l-6.46 3.85-13.49-6.51 7-3.53zM158.09 17.46l-6.46 3.85-13.49-6.52 6.99-3.52zM173.25 10.5l-6.78 4.04-14.15-6.84 7.34-3.7z"/><path fill="#719b07" d="M311.59 388l4.28 2.16 5-3.4-3.25-1.64zM345.51 352.41l3.5 2.09 7.3-3.53-3.79-1.91zM337.72 345.22l3.68 2.18 7.66-3.7-3.97-2z"/><g><defs><path id="aF" d="M131.61 48.89l.19-69.34 96.85 55.92-.19 69.34z"/></defs><clipPath id="aG"><use xlink:href="#aF" overflow="visible"/></clipPath><g clip-path="url(#aG)"><path d="M188.29 51.9l7.09-4.04 7.04 12.2-4.32-2.5c-.16 9.72-7.15 13.62-15.71 8.68-3.72-2.15-7.32-5.75-10.14-10.16l-.19-.3 3.85-2.19.16.25c1.82 2.71 4.02 4.85 6.34 6.2 5.57 3.22 10.13.71 10.27-5.59l-4.39-2.55m-18.6-2.52l-7.04-12.2 4.32 2.49c.16-9.73 7.15-13.63 15.71-8.69 3.72 2.15 7.32 5.75 10.14 10.16l.19.3-3.85 2.19-.17-.25c-1.81-2.7-4.01-4.85-6.33-6.19-5.57-3.21-10.13-.7-10.27 5.6l4.4 2.54-7.1 4.05m20.08-36.36c-8.07-4.66-16.22-5.07-21.43 1.41-2.1-2.59-4.35-4.52-6.56-5.79-6.69-3.86-12.97-1.67-13.5 6.63-9.33-4.07-16.58.89-16.61 11.95-.03 11.97 8.39 26.56 18.8 32.57l59.13 34.14c10.41 6.01 18.89 1.18 18.92-10.79.03-9.68-5.47-21.06-13.08-28.24-1.13-17.62-13.31-34.74-25.67-41.88" fill="#e6e6e6"/></g></g><g fill="#719b07"><path d="M84.94 145.83c.47.15 1.28.17 1.93.17h5.86c.57-2 1.27-3.68 1.85-5.39.19-.55.61-1.54.56-1.93-.05-.45-.83-1.36-1.12-1.81-.88-1.34-1.54-2.19-2.33-3.36-.39-.59-.8-1.51-1.28-1.51h-7.95c-1.2 2-2.16 4.5-3.21 6.87 1.34 1.68 2.74 3.52 4.18 5.29.39.5 1.11 1.55 1.51 1.67z"/><path d="M108.07 132.73c-1.32 1.92-2.54 3.74-3.78 5.7-.4.64-.72 1.38-1.21 1.93-.71.81-1.77 1.53-2.73 2.17-1 .67-2.14 1.12-3.21 1.69-2.14 1.13-4.46 2.2-6.43 3.37-.82.48-1.58 1.09-2.41 1.61-4.06 2.51-7.67 5.59-11.25 8.68-1.43 1.24-2.87 2.44-4.1 3.86 1.02.92 1.88 1.99 3.05 3.05l1.04.96c.12.01 1.82-1.54 2.01-1.69 1.59-1.2 2.66-1.99 4.1-3.29.65-.59 1.26-1.35 1.93-1.77 1.11-.7 2.51-1.18 3.78-1.77.39-.18.84-.58 1.29-.4-.01.92-.37 2.24-.64 3.1-1.86 5.91-3.48 13.06-4.75 20.06h8.06l-.01-.38c-.03-1.06.53-2.24.88-3.24.7-1.99 1.36-4.14 2.09-6.2.36-1.02.61-2.13 1.04-3.02.05-.11-.07-.28.24-.27.58.48.74 1.26 1.04 1.92.76 1.63 1.46 3.24 2.25 4.97.15.33.41.66.48.96.18.72.1 1.57.16 2.33.06.73.23 1.79.08 2.54l-.01.38h6.98c-.11-4-.05-5.86-.22-8.09-.28-3.54-1.54-7.02-2.73-9.91-.42-1.02-.66-2.3-1.05-3.47-.51-1.55-1.1-3.24-1.37-5.35-.09-.7-.33-1.51-.24-1.95.16-.78 1.4-1.32 2.01-1.94.85-.87 1.62-2.14 2.57-3.22l1.37-1.53c.47-.53 1.03-.96 1.37-1.45.39-.58.62-1.27.96-1.85 1.04-1.76 2.23-3.34 3.29-5.14-1.87-1.19-3.99-2.18-5.93-3.35z"/></g><path opacity=".16" fill="#3a5004" d="M116.58 316l-.2-.11-94.35-56.62.41-.68 94.15 56.5 28.99-16.23 23.76 13.45 34.68-22.18 22.16 14.19-.44.66-21.72-13.91-34.65 22.17-23.79-13.47z"/><path fill="#e6e6e6" d="M226.33 369h-.58l-.36-84.19-22.04-12.3-34.72 22.21-23.82-13.45-29.01 16.24-.21-.11L1.32 228.92l62.04-34.4 16.62 10.75-.43.67-16.22-10.5L2.9 228.95l112.9 67.66 28.99-16.24 23.76 13.46 34.38-22.17L226 284.69z"/><g opacity=".16"><defs><path id="aH" d="M196.91 257.91l34.44-20.01 32.59 18.81-34.44 20.01z"/></defs><clipPath id="aI"><use xlink:href="#aH" overflow="visible"/></clipPath><g clip-path="url(#aI)"><path d="M263.94 256.71l-8.64-3.52-.01 1.88-21.68-.25-.24-4.52-22.43-.03.06 3.17h16.71l.25 4.67 27.27.19v1.83l8.71-3.42m-16.18 9.2l-9.1-5.25-18.43 10.71 9.1 5.25 18.43-10.71m-17.28-3.46l-9.1-5.25-12.81 7.45 9.1 5.25 12.81-7.45m-15.87-4.39l-9.01-5.2-8.69 5.05 9.01 5.2 8.69-5.05" fill="#3a5004"/></g></g><g><defs><path id="aJ" d="M196.73 258.17l.11-39.2 32.08 18.51-.11 39.21z"/></defs><clipPath id="aK"><use xlink:href="#aJ" overflow="visible"/></clipPath><g clip-path="url(#aK)"><path d="M228.92 237.48l-7.26-2.75 1.59 2.78-10.95 5.75-3.95-6.6-11.13 6.3 2.72 4.66 8.28-4.71 4.07 6.81 13.67-7.42 1.55 2.7 1.41-7.52m-.23 18.13l-8.95-5.17-.06 20.98 8.95 5.17.06-20.98m-11.49-.23l-8.96-5.17-.04 14.58 8.96 5.17.04-14.58m-11.57-1.98l-8.87-5.12-.03 9.89 8.87 5.12.03-9.89" fill="#e6e6e6"/></g></g><path opacity=".16" fill="#3a5004" d="M263 206.4v162.64l124.61-71.48-1.37-25.73z"/><path fill="#e6e6e6" d="M381 157.48L262.71 89.55l.29.02v116.88l118 67.96z"/><path fill="#575757" d="M381 157.48L262.71 89.55l.29.02v14.31l118 67.95z"/><path fill="#111" d="M267.29 86.83l-4.55 2.71 118.9 68 4.4-2.78z"/><path fill="#999" d="M381 171.67l4.7-2.57.3.03v102.7l-5 2.6z"/><path fill="#111" d="M381 157.42l4.7-2.58.3.03v14.25l-5 2.6z"/><ellipse cx="267.91" cy="99.64" rx="2.18" ry="3.77" fill="#719b07"/><ellipse cx="275.03" cy="103.41" rx="2.18" ry="3.77" fill="#8cc109"/><ellipse cx="282.14" cy="107.18" rx="2.18" ry="3.77" fill="#f2f2f2"/><g><defs><path id="aL" d="M298.62 200.27l.12-43.22 37.61 21.71-.12 43.22z"/></defs><clipPath id="aM"><use xlink:href="#aL" overflow="visible"/></clipPath><g clip-path="url(#aM)"><path d="M315.97 167c-9.66-4.63-17.26.29-17.29 11.62-.03 11.96 8.37 26.52 18.77 32.52 9.86 5.7 17.98 1.65 18.83-8.97l-20.37-11.76.06-23.41m7.55 5.38l-4.36 2.48-.01 3 6.24-3.56c-.61-.66-1.23-1.31-1.87-1.92m3.64 4.02l-8.02 4.58-.01 3 9.6-5.47c-.5-.72-1.02-1.42-1.57-2.11m3.06 4.38l-11.09 6.32v1.47l1.32.76 11.07-6.3c-.41-.76-.85-1.51-1.3-2.25m2.52 4.67l-9.58 5.46 2.61 1.51 8-4.55c-.32-.82-.66-1.63-1.03-2.42m1.96 4.99l-6.21 3.53 2.61 1.51 4.33-2.46c-.21-.86-.46-1.72-.73-2.58m1.29 5.37l-2.18 1.24 2.48 1.43c-.06-.87-.16-1.76-.3-2.67m-16.81-26.96l-.01 2.9 2.21-1.26c-.72-.59-1.45-1.14-2.2-1.64" fill="#999"/></g></g><ellipse transform="rotate(-121.193 305.093 198.038)" cx="305.08" cy="198.03" rx="6.27" ry="3.59" fill="#ea0000"/><path fill="#ea0000" d="M331 303h-1v-21.68l-26 16.64V199h1v97.5l26-16.64z"/><path fill="#3a5004" d="M225 486.88V402h1v82.79l104-69.69V395h1v20.52l-.08.12z"/><path d="M321.83 375.61l10.98 4.1s9.95-2.91 10.59-3.55c.64-.64 10.83-7.03 10.45-8.55-.38-1.52-4.29-10.96-4.29-10.96l-9.24-6.1-6.86 6.56-8.58 7.74-3.05 10.76z" fill="#719b07"/><g><defs><path id="aN" d="M313.3 395.25l-.09-33.85 47.27-27.3.1 33.85z"/></defs><clipPath id="aO"><use xlink:href="#aN" overflow="visible"/></clipPath><g clip-path="url(#aO)"><path d="M340.89 364.81l3.44-5.96 3.46 1.98-2.11 1.22c-.05 4.82-3.44 10.65-7.62 13.06-1.81 1.05-3.58 1.32-4.96.76l-.1-.04 1.86-3.23.08.03c.89.29 1.96.1 3.1-.56 2.72-1.57 4.93-5.35 4.98-8.5l-2.13 1.24m-9.06 9.24l-3.46-1.97 2.11-1.22c.04-4.82 3.44-10.65 7.62-13.06 1.81-1.05 3.57-1.32 4.95-.76l.1.03-1.86 3.24-.08-.03c-.89-.29-1.96-.1-3.09.55-2.72 1.57-4.93 5.35-4.98 8.5l2.15-1.24-3.46 5.96m9.68-28.99c-3.94 2.28-7.91 6.66-10.43 12.75-1.03-.08-2.13.25-3.21.87-3.27 1.89-6.31 6.49-6.55 10.82-4.55 3.27-8.07 9.76-8.05 15.17.02 5.84 4.15 8.2 9.24 5.26l28.86-16.66c5.09-2.94 9.19-10.05 9.18-15.89-.01-4.72-2.72-7.17-6.44-6.39-.59-7.94-6.57-9.42-12.6-5.93" fill="#CCC"/></g></g></svg>