<?xml version="1.0" encoding="utf-8"?>
<!-- Generator: Adobe Illustrator 18.1.1, SVG Export Plug-In . SVG Version: 6.00 Build 0)  -->
<!DOCTYPE svg PUBLIC "-//W3C//DTD SVG 1.1//EN" "http://www.w3.org/Graphics/SVG/1.1/DTD/svg11.dtd">
<svg version="1.1" id="Layer_1" xmlns="http://www.w3.org/2000/svg" xmlns:xlink="http://www.w3.org/1999/xlink" x="0px" y="0px"
	 viewBox="0 0 381.6 566.6" enable-background="new 0 0 381.6 566.6" xml:space="preserve">
<g>
	<path fill="#FFFFFF" d="M363.6,566.6H18c-9.9,0-18-8.1-18-18V18C0,8.1,8.1,0,18,0h345.6c9.9,0,18,8.1,18,18v530.6
		C381.6,558.6,373.5,566.6,363.6,566.6z M368.6,46.2H13v474.2h355.7V46.2z"/>
	<path fill="#939598" d="M190.8,554.6c-6.1,0-11.1-5-11.1-11.1s5-11.1,11.1-11.1s11.1,5,11.1,11.1S196.9,554.6,190.8,554.6z
		 M190.8,534.5c-5,0-9.1,4.1-9.1,9.1s4.1,9.1,9.1,9.1c5,0,9.1-4.1,9.1-9.1S195.8,534.5,190.8,534.5z"/>
	<circle fill="#939598" cx="190.8" cy="23.1" r="3.7"/>
</g>
</svg>
