<?xml version="1.0" encoding="UTF-8" standalone="no"?>
<svg
   xmlns:dc="http://purl.org/dc/elements/1.1/"
   xmlns:cc="http://creativecommons.org/ns#"
   xmlns:rdf="http://www.w3.org/1999/02/22-rdf-syntax-ns#"
   xmlns:svg="http://www.w3.org/2000/svg"
   xmlns="http://www.w3.org/2000/svg"
   xmlns:sodipodi="http://sodipodi.sourceforge.net/DTD/sodipodi-0.dtd"
   xmlns:inkscape="http://www.inkscape.org/namespaces/inkscape"
   color-rendering="auto"
   color-interpolation="auto"
   text-rendering="auto"
   width="5421.5249"
   stroke-miterlimit="10"
   shape-rendering="auto"
   font-weight="normal"
   height="4486.7964"
   font-style="normal"
   font-size="12"
   image-rendering="auto"
   id="svg2"
   version="1.1"
   inkscape:version="0.48.5 r10040"
   sodipodi:docname="Tebipenem pivoxil ChemSpider 8067741.svg"
   style="font-size:12px;font-style:normal;font-weight:normal;fill:#000000;fill-opacity:1;stroke:#000000;stroke-width:1;stroke-linecap:square;stroke-linejoin:miter;stroke-miterlimit:10;stroke-opacity:1;stroke-dasharray:none;stroke-dashoffset:0;font-family:Dialog">
  <metadata
     id="metadata255">
    <rdf:RDF>
      <cc:Work
         rdf:about="">
        <dc:format>image/svg+xml</dc:format>
        <dc:type
           rdf:resource="http://purl.org/dc/dcmitype/StillImage" />
      </cc:Work>
    </rdf:RDF>
  </metadata>
  <sodipodi:namedview
     pagecolor="#ffffff"
     bordercolor="#666666"
     borderopacity="1"
     objecttolerance="10"
     gridtolerance="10"
     guidetolerance="10"
     inkscape:pageopacity="0"
     inkscape:pageshadow="2"
     inkscape:window-width="640"
     inkscape:window-height="480"
     id="namedview253"
     showgrid="false"
     fit-margin-top="0"
     fit-margin-left="0"
     fit-margin-right="0"
     fit-margin-bottom="0"
     inkscape:zoom="0.047389558"
     inkscape:cx="1313.5968"
     inkscape:cy="1888.0267"
     inkscape:window-x="0"
     inkscape:window-y="0"
     inkscape:window-maximized="0"
     inkscape:current-layer="g5" />
  <!--Generated by Marvin with Batik SVG Generator
MolSource:
<?xml version="1.0" encoding="windows-1252"?><cml xmlns="http://www.chemaxon.com" xmlns:xsi="http://www.w3.org/2001/XMLSchema-instance" xsi:schemaLocation="http://www.chemaxon.com/marvin/schema/mrvSchema_14_12_01.xsd" version="ChemAxon file format v14.12.01, generated by v15.3.30.0">
<MDocument><MChemicalStruct><molecule molID="m1" absStereo="true"><propertyList><property dictRef="StdInChI" title="StdInChI"><scalar>InChI=1S/C22H31N3O6S2/c1-11-15-14(12(2)26)18(27)25(15)16(19(28)30-10-31-20(29)22(3,4)5)17(11)33-13-8-24(9-13)21-23-6-7-32-21/h11-15,26H,6-10H2,1-5H3/t11-,12-,14-,15-/m1/s1</scalar></property><property dictRef="StdInChIKey" title="StdInChIKey"><scalar>SNUDIPVBUUXCDG-QHSBEEBCSA-N</scalar></property><property dictRef="AuxInfo" title="AuxInfo"><scalar><![CDATA[1/0/N:20,22,31,32,33,29,28,23,24,25,15,18,21,13,12,16,17,14,19,27,26,30,11,10,9,4,3,6,8,5,7,2,1/E:(3,4,5)(8,9)/it:im/rA:35cSSOOOOOONNNCCCCCCCCCCCCCCCCCCCCCCHH/rB:;;;;;;;;;;s9;s12;d3s9s13;s12;s9;s1s15d16;p4s13;s5d6s16;P15;s1;s18;s10s21;s10s21;s5s7;s2s10d11;s7d8;s2;s11s28;s27;s30;s30;s30;N12;P13;/rC:7.0074,-6.0404,0;8.7503,-.8834,0;1.1341,-7.3775,0;1.1341,-3.3664,0;6.6015,-8.3922,0;4.4766,-9.4546,0;8.607,-9.562,0;8.6309,-7.27,0;3.6052,-6.709,0;8.607,-3.259,0;10.6006,-1.9578,0;3.6052,-5.3719,0;2.2682,-5.3719,0;2.2682,-6.709,0;4.8706,-4.9661,0;4.8706,-7.1029,0;5.6704,-6.0404,0;1.1341,-4.7034,0;5.2764,-8.3802,0;5.2764,-3.7007,0;7.664,-4.8825,0;0,-5.3719,0;8.9532,-4.5363,0;7.3297,-3.6052,0;7.2461,-9.5382,0;9.2875,-2.0891,0;9.2755,-8.428,0;9.7292,0,0;10.8752,-.6566,0;10.6006,-8.4399,0;11.9376,-8.4399,0;10.6006,-7.1148,0;10.6006,-9.7769,0;3.6052,-4.0349,0;2.2682,-4.0349,0;]]></scalar></property><property dictRef="Formula" title="Formula"><scalar><![CDATA[C22 H31 N3 O6 S2]]></scalar></property><property dictRef="Mw" title="Mw"><scalar>497.6281</scalar></property><property dictRef="SMILES" title="SMILES"><scalar><![CDATA[S(C1CN(C2=NCCS2)C1)C1=C(C(=O)OCOC(C(C)(C)C)=O)N2C([C@]([H])([C@@H](C)O)[C@@]2([H])[C@H]1C)=O]]></scalar></property><property dictRef="CSID" title="CSID"><scalar>8067741</scalar></property></propertyList><atomArray atomID="a1 a2 a3 a4 a5 a6 a7 a8 a9 a10 a11 a12 a13 a14 a15 a16 a17 a18 a19 a20 a21 a22 a23 a24 a25 a26 a27 a28 a29 a30 a31 a32 a33 a34" elementType="S S O O O O O N N N C C C C C C C C C C C C C C C C C C C C C C H O" x2="8.117690893684617 10.136745530012345 1.3137930248776615 7.64747787120173 5.185897059489762 9.970740291968989 9.998427139067639 4.176427663600163 9.970740291968989 12.280217211461192 4.176427663600163 2.627586049755323 2.627586049755323 5.64232458069759 5.64232458069759 6.568849279839777 1.3137930248776615 6.112421758631948 6.112421758631948 8.878326199331978 0.0 10.371794118979524 8.491057873596503 8.394211831025503 10.759062444715 10.74516109889141 11.270747815571594 12.598326341724313 12.280217211461192 13.829058825306031 12.280217211461192 12.280217211461192 3.4020068566777426 1.5386416067280397" y2="-6.997474109400429 -1.0233707417131876 -3.8997908817107483 -9.721906201726753 -10.952638685308472 -11.07705573042959 -8.42189867812415 -7.772010760871378 -3.775373836589629 -2.2680045711184955 -6.223053302478009 -6.223053302478009 -7.772010760871378 -5.752956124543651 -8.228322437530677 -6.997474109400429 -5.4486324955555885 -9.708004855903164 -4.287059207446223 -5.65611008197265 -6.223053302478009 -5.255056254962115 -4.176427663600163 -11.049484727879472 -2.420108463338262 -9.76337855010046 0.0 -0.7606353056473613 -9.777164051375518 -9.777164051375518 -8.242107938805736 -11.326005665220357 -4.88171711844989 -8.860955203898662"></atomArray><bondArray><bond id="b1" atomRefs2="a1 a16" order="1"></bond><bond id="b2" atomRefs2="a1 a20" order="1"></bond><bond id="b3" atomRefs2="a2 a25" order="1"></bond><bond id="b4" atomRefs2="a2 a27" order="1"></bond><bond id="b5" atomRefs2="a17 a3" order="1"><bondStereo>W</bondStereo></bond><bond id="b6" atomRefs2="a4 a18" order="1"></bond><bond id="b7" atomRefs2="a4 a24" order="1"></bond><bond id="b8" atomRefs2="a5 a18" order="2"></bond><bond id="b9" atomRefs2="a6 a24" order="1"></bond><bond id="b10" atomRefs2="a6 a26" order="1"></bond><bond id="b11" atomRefs2="a7 a26" order="2"></bond><bond id="b12" atomRefs2="a11 a8" order="1"><bondStereo>W</bondStereo></bond><bond id="b13" atomRefs2="a8 a13" order="1"></bond><bond id="b14" atomRefs2="a8 a15" order="1"></bond><bond id="b15" atomRefs2="a9 a22" order="1"></bond><bond id="b16" atomRefs2="a9 a23" order="1"></bond><bond id="b17" atomRefs2="a9 a25" order="1"></bond><bond id="b18" atomRefs2="a10 a25" order="2"></bond><bond id="b19" atomRefs2="a10 a28" order="1"></bond><bond id="b20" atomRefs2="a11 a12" order="1"></bond><bond id="b21" atomRefs2="a11 a14" order="1"></bond><bond id="b22" atomRefs2="a12 a13" order="1"></bond><bond id="b23" atomRefs2="a12 a17" order="1"></bond><bond id="b24" atomRefs2="a12 a33" order="1"><bondStereo>W</bondStereo></bond><bond id="b25" atomRefs2="a14 a16" order="1"></bond><bond id="b26" atomRefs2="a14 a19" order="1"><bondStereo>W</bondStereo></bond><bond id="b27" atomRefs2="a15 a16" order="2"></bond><bond id="b28" atomRefs2="a15 a18" order="1"></bond><bond id="b29" atomRefs2="a17 a21" order="1"></bond><bond id="b30" atomRefs2="a20 a22" order="1"></bond><bond id="b31" atomRefs2="a20 a23" order="1"></bond><bond id="b32" atomRefs2="a26 a29" order="1"></bond><bond id="b33" atomRefs2="a27 a28" order="1"></bond><bond id="b34" atomRefs2="a29 a30" order="1"></bond><bond id="b35" atomRefs2="a29 a31" order="1"></bond><bond id="b36" atomRefs2="a29 a32" order="1"></bond><bond id="b37" atomRefs2="a13 a34" order="2"></bond></bondArray></molecule></MChemicalStruct></MDocument>
</cml>
-->
  <defs
     id="genericDefs" />
  <g
     id="g5"
     transform="translate(-119.28727,-292.28714)">
    <defs
       id="1478493529582-defs1">
      <clipPath
         clipPathUnits="userSpaceOnUse"
         id="147849352938-clipPath1">
        <path
           d="m 0,0 5660,0 0,4980 L 0,4980 0,0 z"
           id="path9"
           inkscape:connector-curvature="0" />
      </clipPath>
      <clipPath
         clipPathUnits="userSpaceOnUse"
         id="1478493529863-clipPath1">
        <path
           d="m -3171.1987,-2812.9277 5660,0 0,4980 -5660,0 0,-4980 z"
           id="path12"
           inkscape:connector-curvature="0" />
      </clipPath>
      <clipPath
         clipPathUnits="userSpaceOnUse"
         id="1478493529796-clipPath1">
        <path
           d="m -3959.3262,-480.96747 5660,0 0,4980.00017 -5660,0 0,-4980.00017 z"
           id="path15"
           inkscape:connector-curvature="0" />
      </clipPath>
      <clipPath
         clipPathUnits="userSpaceOnUse"
         id="1478493529649-clipPath1">
        <path
           d="m -493.83231,-1603.7632 5659.99981,0 0,4980 -5659.99981,0 0,-4980 z"
           id="path18"
           inkscape:connector-curvature="0" />
      </clipPath>
      <clipPath
         clipPathUnits="userSpaceOnUse"
         id="1478493529100-clipPath1">
        <path
           d="m -793.83234,-1603.7632 5659.99984,0 0,4980 -5659.99984,0 0,-4980 z"
           id="path21"
           inkscape:connector-curvature="0" />
      </clipPath>
      <clipPath
         clipPathUnits="userSpaceOnUse"
         id="1478493529340-clipPath1">
        <path
           d="m -2966.1533,-3876.3958 5660,0 0,4980 -5660,0 0,-4980 z"
           id="path24"
           inkscape:connector-curvature="0" />
      </clipPath>
      <clipPath
         clipPathUnits="userSpaceOnUse"
         id="1478493529571-clipPath1">
        <path
           d="m -2005.2881,-4356.8057 5660,0 0,4979.99985 -5660,0 0,-4979.99985 z"
           id="path27"
           inkscape:connector-curvature="0" />
      </clipPath>
      <clipPath
         clipPathUnits="userSpaceOnUse"
         id="1478493529247-clipPath1">
        <path
           d="m -3873.0269,-4405.3716 5660,0 0,4980.0002 -5660,0 0,-4980.0002 z"
           id="path30"
           inkscape:connector-curvature="0" />
      </clipPath>
      <clipPath
         clipPathUnits="userSpaceOnUse"
         id="147849352912-clipPath1">
        <path
           d="m -3883.8342,-3368.9446 5659.9998,0 0,4980 -5659.9998,0 0,-4980 z"
           id="path33"
           inkscape:connector-curvature="0" />
      </clipPath>
      <clipPath
         clipPathUnits="userSpaceOnUse"
         id="1478493529127-clipPath1">
        <path
           d="m -1621.7469,-3115.2642 5660.0001,0 0,4980 -5660.0001,0 0,-4980 z"
           id="path36"
           inkscape:connector-curvature="0" />
      </clipPath>
      <clipPath
         clipPathUnits="userSpaceOnUse"
         id="14784935292-clipPath1">
        <path
           d="m -3883.5269,-1555.1976 5660,0 0,4979.9998 -5660,0 0,-4979.9998 z"
           id="path39"
           inkscape:connector-curvature="0" />
      </clipPath>
      <clipPath
         clipPathUnits="userSpaceOnUse"
         id="147849352922-clipPath1">
        <path
           d="m -4785.019,-966.80383 5659.99971,0 0,4979.99983 -5659.99971,0 0,-4979.99983 z"
           id="path42"
           inkscape:connector-curvature="0" />
      </clipPath>
      <clipPath
         clipPathUnits="userSpaceOnUse"
         id="1478493529916-clipPath1">
        <path
           d="m -1319.4558,-1987.053 5660.0002,0 0,4980 -5660.0002,0 0,-4980 z"
           id="path45"
           inkscape:connector-curvature="0" />
      </clipPath>
      <clipPath
         clipPathUnits="userSpaceOnUse"
         id="1478493529354-clipPath1">
        <path
           d="m -581.60077,-3540.3281 5660.00017,0 0,4980.0001 -5660.00017,0 0,-4980.0001 z"
           id="path48"
           inkscape:connector-curvature="0" />
      </clipPath>
      <clipPath
         clipPathUnits="userSpaceOnUse"
         id="1478493529722-clipPath1">
        <path
           d="m 4105.0762,480.96747 c 61.4419,0 111.25,49.80835 111.25,111.25 l 0,222.5 c 0,61.44171 -49.8081,111.25 -111.25,111.25 l -34.5,0 c -61.4417,0 -111.25,-49.80829 -111.25,-111.25 l 0,-222.5 c 0,-61.44165 49.8083,-111.25 111.25,-111.25 z m 847.6928,485.83636 c 61.4419,0 111.25,49.80837 111.25,111.24997 l 0,222.5 c 0,61.4417 -49.8081,111.25 -111.25,111.25 l -56.5,0 c -61.4414,0 -111.25,-49.8083 -111.25,-111.25 l 0,-222.5 c 0,-61.4416 49.8086,-111.24997 111.25,-111.24997 z m -901.4921,588.39377 c 61.4418,0 111.25,49.8084 111.25,111.25 l 0,222.5 c 0,61.4417 -49.8082,111.25 -111.25,111.25 l -56.5,0 c -61.4417,0 -111.25,-49.8083 -111.25,-111.25 l 0,-222.5 c 0,-61.4416 49.8083,-111.25 111.25,-111.25 z m -3089.69456,48.5656 c 61.44166,0 111.24996,49.8083 111.24996,111.25 l 0,222.5 c 0,61.4416 -49.8083,111.25 -111.24996,111.25 l -56.5,0 c -61.44172,0 -111.25,-49.8084 -111.25,-111.25 0,61.4416 -49.80835,111.25 -111.25,111.25 l -77.5,0 c -61.44172,0 -111.25003,-49.8084 -111.25003,-111.25 l 0,-222.5 c 0,-61.4417 49.80831,-111.25 111.25003,-111.25 l 77.5,0 c 61.44165,0 111.25,49.8083 111.25,111.25 0,-61.4417 49.80828,-111.25 111.25,-111.25 z m 525.62346,383.2898 c 61.4417,0 111.25,49.8083 111.25,111.25 l 0,222.5 c 0,61.4416 -49.8083,111.25 -111.25,111.25 l -56.5,0 c -61.4416,0 -111.25,-49.8084 -111.25,-111.25 l 0,-222.5 c 0,-61.4417 49.8084,-111.25 111.25,-111.25 z m 1829.7429,825.8747 c 61.4417,0 111.25,49.8084 111.25,111.25 l 0,222.5 c 0,61.4417 -49.8083,111.25 -111.25,111.25 l -34.5,0 c -61.4416,0 -111.25,-49.8083 -111.25,-111.25 l 0,-222.5 c 0,-61.4416 49.8084,-111.25 111.25,-111.25 z m -1527.4518,302.3365 c 61.4417,0 111.25,49.8083 111.25,111.25 l 0,222.5 c 0,61.4416 -49.8083,111.25 -111.25,111.25 l -56.5,0 c -61.4416,0 -111.25,-49.8084 -111.25,-111.25 l 0,-222.5 c 0,-61.4417 49.8084,-111.25 111.25,-111.25 z m 2283.0873,253.6804 c 61.4417,0 111.2503,49.8083 111.2503,111.25 l 0,222.5 c 0,61.4416 -49.8086,111.25 -111.2503,111.25 l -77.5,0 c -61.4416,0 -111.25,-49.8084 -111.25,-111.25 l 0,-222.5 c 0,-61.4417 49.8084,-111.25 111.25,-111.25 z M 770.35077,3540.3281 c 61.44171,0 111.25,49.8084 111.25,111.25 l 0,222.5 c 0,61.4417 -49.80829,111.25 -111.25,111.25 l -77.5,0 c -61.44165,0 -111.25,-49.8083 -111.25,-111.25 l 0,-222.5 c 0,-61.4416 49.80835,-111.25 111.25,-111.25 z m 2384.55253,336.0677 c 61.4419,0 111.25,49.8083 111.25,111.25 l 0,222.5002 c 0,61.4414 -49.8081,111.25 -111.25,111.25 l -77.5,0 c -61.4416,0 -111.25,-49.8086 -111.25,-111.25 l 0,-222.5002 c 0,-61.4417 49.8084,-111.25 111.25,-111.25 z m -960.8652,480.4099 c 61.4416,0 111.25,49.8086 111.25,111.25 l 0,222.5 c 0,61.4419 -49.8084,111.25 -111.25,111.25 l -77.5,0 c -61.4417,0 -111.25,-49.8081 -111.25,-111.25 l 0,-222.5 c 0,-61.4414 49.8083,-111.25 111.25,-111.25 z m 1867.7388,48.5659 c 61.4418,0 111.25,49.8081 111.25,111.25 l 0,222.5 c 0,61.4414 -49.8082,111.25 -111.25,111.25 l -77.5,0 c -61.4417,0 -111.25,-49.8086 -111.25,-111.25 l 0,-222.5 c 0,-61.4419 49.8083,-111.25 111.25,-111.25 z M 0,0 l 0,4980 5660,0 0,-4980 z"
           id="path51"
           inkscape:connector-curvature="0" />
      </clipPath>
    </defs>
    <g
       text-rendering="optimizeLegibility"
       font-size="386"
       shape-rendering="geometricPrecision"
       transform="translate(3171.1987,2812.9278)"
       id="g53"
       style="font-size:386px;font-family:Arial">
      <text
         xml:space="preserve"
         x="0"
         y="369"
         clip-path="url(#1478493529863-clipPath1)"
         id="text55"
         style="stroke:none">S</text>
    </g>
    <g
       text-rendering="optimizeLegibility"
       font-size="386"
       shape-rendering="geometricPrecision"
       transform="translate(3959.3262,480.96748)"
       id="g57"
       style="font-size:386px;font-family:Arial">
      <text
         xml:space="preserve"
         x="0"
         y="369"
         clip-path="url(#1478493529796-clipPath1)"
         id="text59"
         style="stroke:none">S</text>
    </g>
    <g
       text-rendering="optimizeLegibility"
       font-size="386"
       shape-rendering="geometricPrecision"
       transform="translate(493.83231,1603.7632)"
       id="g61"
       style="font-size:386px;font-family:Arial">
      <text
         xml:space="preserve"
         x="0"
         y="369"
         clip-path="url(#1478493529649-clipPath1)"
         id="text63"
         style="stroke:none">OH</text>
    </g>
    <g
       text-rendering="optimizeLegibility"
       font-size="386"
       shape-rendering="geometricPrecision"
       transform="translate(793.83231,1603.7632)"
       id="g65"
       style="font-size:386px;font-family:Arial" />
    <g
       text-rendering="optimizeLegibility"
       font-size="386"
       shape-rendering="geometricPrecision"
       transform="translate(2966.1534,3876.3958)"
       id="g69"
       style="font-size:386px;font-family:Arial">
      <text
         xml:space="preserve"
         x="0"
         y="369"
         clip-path="url(#1478493529340-clipPath1)"
         id="text71"
         style="stroke:none">O</text>
    </g>
    <g
       text-rendering="optimizeLegibility"
       font-size="386"
       shape-rendering="geometricPrecision"
       transform="translate(2005.2881,4356.8059)"
       id="g73"
       style="font-size:386px;font-family:Arial">
      <text
         xml:space="preserve"
         x="0"
         y="369"
         clip-path="url(#1478493529571-clipPath1)"
         id="text75"
         style="stroke:none">O</text>
    </g>
    <g
       text-rendering="optimizeLegibility"
       font-size="386"
       shape-rendering="geometricPrecision"
       transform="translate(3873.0269,4405.3714)"
       id="g77"
       style="font-size:386px;font-family:Arial">
      <text
         xml:space="preserve"
         x="0"
         y="369"
         clip-path="url(#1478493529247-clipPath1)"
         id="text79"
         style="stroke:none">O</text>
    </g>
    <g
       text-rendering="optimizeLegibility"
       font-size="386"
       shape-rendering="geometricPrecision"
       transform="translate(3883.8343,3368.9446)"
       id="g81"
       style="font-size:386px;font-family:Arial">
      <text
         xml:space="preserve"
         x="0"
         y="369"
         clip-path="url(#147849352912-clipPath1)"
         id="text83"
         style="stroke:none">O</text>
    </g>
    <g
       text-rendering="optimizeLegibility"
       font-size="386"
       shape-rendering="geometricPrecision"
       transform="translate(1621.7469,3115.2642)"
       id="g85"
       style="font-size:386px;font-family:Arial">
      <text
         xml:space="preserve"
         x="0"
         y="369"
         clip-path="url(#1478493529127-clipPath1)"
         id="text87"
         style="stroke:none">N</text>
    </g>
    <g
       text-rendering="optimizeLegibility"
       font-size="386"
       shape-rendering="geometricPrecision"
       transform="translate(3883.5269,1555.1976)"
       id="g89"
       style="font-size:386px;font-family:Arial">
      <text
         xml:space="preserve"
         x="0"
         y="369"
         clip-path="url(#14784935292-clipPath1)"
         id="text91"
         style="stroke:none">N</text>
    </g>
    <g
       text-rendering="optimizeLegibility"
       font-size="386"
       shape-rendering="geometricPrecision"
       transform="translate(4785.0193,966.80385)"
       id="g93"
       style="font-size:386px;font-family:Arial">
      <text
         xml:space="preserve"
         x="0"
         y="369"
         clip-path="url(#147849352922-clipPath1)"
         id="text95"
         style="stroke:none">N</text>
    </g>
    <g
       text-rendering="optimizeLegibility"
       font-size="386"
       shape-rendering="geometricPrecision"
       transform="translate(1319.4558,1987.053)"
       id="g97"
       style="font-size:386px;font-family:Arial">
      <text
         xml:space="preserve"
         x="0"
         y="369"
         clip-path="url(#1478493529916-clipPath1)"
         id="text99"
         style="stroke:none">H</text>
    </g>
    <g
       text-rendering="optimizeLegibility"
       font-size="386"
       shape-rendering="geometricPrecision"
       transform="translate(581.60079,3540.328)"
       id="g101"
       style="font-size:386px;font-family:Arial">
      <text
         xml:space="preserve"
         x="0"
         y="369"
         clip-path="url(#1478493529354-clipPath1)"
         id="text103"
         style="stroke:none">O</text>
    </g>
    <g
       text-rendering="optimizeLegibility"
       font-size="386"
       shape-rendering="geometricPrecision"
       id="g105"
       style="font-size:386px;font-family:Arial">
      <path
         d="m 3155.585,3023.7175 -460.4685,0 c -6.4688,0 -11.7105,5.2415 -11.7105,11.7102 0,6.4688 5.2417,11.7105 11.7105,11.7105 l 460.4685,0 c 6.4685,0 11.7102,-5.2417 11.7102,-11.7105 0,-6.4687 -5.2417,-11.7102 -11.7102,-11.7102 z"
         clip-path="url(#1478493529722-clipPath1)"
         id="path107"
         inkscape:connector-curvature="0"
         style="stroke:none" />
    </g>
    <g
       text-rendering="optimizeLegibility"
       font-size="386"
       shape-rendering="geometricPrecision"
       id="g109"
       style="font-size:386px;font-family:Arial">
      <path
         d="m 3422.4709,2842.6616 184.3243,-325.052 c 3.1909,-5.6269 1.217,-12.772 -4.4102,-15.9629 -5.6269,-3.1909 -12.772,-1.2168 -15.9629,4.4102 l -184.3242,325.052 c -3.1909,5.6269 -1.2168,12.772 4.4102,15.9629 5.6269,3.1907 12.7719,1.2168 15.9628,-4.4102 z"
         clip-path="url(#1478493529722-clipPath1)"
         id="path111"
         inkscape:connector-curvature="0"
         style="stroke:none" />
    </g>
    <g
       text-rendering="optimizeLegibility"
       font-size="386"
       shape-rendering="geometricPrecision"
       id="g113"
       style="font-size:386px;font-family:Arial">
      <path
         d="m 4171.5493,920.15021 148.4986,333.29249 c 2.6323,5.9087 9.5537,8.5634 15.4624,5.9308 5.9086,-2.6327 8.5634,-9.5538 5.9306,-15.4626 L 4192.9424,910.61841 c -2.6328,-5.90882 -9.5537,-8.56342 -15.4624,-5.93079 -5.9087,2.63269 -8.5635,9.55377 -5.9307,15.46259 z"
         clip-path="url(#1478493529722-clipPath1)"
         id="path115"
         inkscape:connector-curvature="0"
         style="stroke:none" />
    </g>
    <g
       text-rendering="optimizeLegibility"
       font-size="386"
       shape-rendering="geometricPrecision"
       id="g117"
       style="font-size:386px;font-family:Arial">
      <path
         d="m 4240.1099,581.81403 298.2138,-269.12037 c 4.8023,-4.33383 5.1822,-11.73687 0.8482,-16.53921 -4.334,-4.80234 -11.7368,-5.18195 -16.5391,-0.84811 L 4224.4189,564.4267 c -4.8022,4.3338 -5.1821,11.73687 -0.8481,16.53918 4.334,4.80231 11.7368,5.18195 16.5391,0.84815 z"
         clip-path="url(#1478493529722-clipPath1)"
         id="path119"
         inkscape:connector-curvature="0"
         style="stroke:none" />
    </g>
    <g
       text-rendering="optimizeLegibility"
       font-size="386"
       shape-rendering="geometricPrecision"
       id="g121"
       style="font-size:386px;font-family:Arial">
      <path
         d="m 643.83234,2430.8455 11.71032,0 85.87586,-366.4685 -97.58618,0 -97.58625,0 85.87586,366.4685 z"
         clip-path="url(#1478493529722-clipPath1)"
         id="path123"
         inkscape:connector-curvature="0"
         style="stroke:none" />
    </g>
    <g
       text-rendering="optimizeLegibility"
       font-size="386"
       shape-rendering="geometricPrecision"
       id="g125"
       style="font-size:386px;font-family:Arial">
      <path
         d="m 2950.5403,4085.6853 -433.482,-3.9258 c -6.4685,-0.059 -11.7573,5.1355 -11.8159,11.604 -0.059,6.4685 5.1353,11.7571 11.6038,11.8157 l 433.4819,3.9258 c 6.4685,0.059 11.7573,-5.1353 11.8159,-11.604 0.059,-6.4683 -5.1352,-11.7573 -11.6037,-11.8157 z"
         clip-path="url(#1478493529722-clipPath1)"
         id="path127"
         inkscape:connector-curvature="0"
         style="stroke:none" />
    </g>
    <g
       text-rendering="optimizeLegibility"
       font-size="386"
       shape-rendering="geometricPrecision"
       id="g129"
       style="font-size:386px;font-family:Arial">
      <path
         d="m 3223.8025,4314.166 173.6282,308.6841 c 3.1711,5.6382 10.3093,7.6367 15.9475,4.4658 5.6379,-3.1714 7.6367,-10.3096 4.4656,-15.9477 l -173.6282,-308.6841 c -3.1714,-5.6382 -10.3096,-7.6372 -15.9475,-4.4658 -5.6382,3.1713 -7.637,10.3095 -4.4656,15.9477 z"
         clip-path="url(#1478493529722-clipPath1)"
         id="path131"
         inkscape:connector-curvature="0"
         style="stroke:none" />
    </g>
    <g
       text-rendering="optimizeLegibility"
       font-size="386"
       shape-rendering="geometricPrecision"
       id="g133"
       style="font-size:386px;font-family:Arial">
      <path
         d="m 2244.0066,4349.9126 c -3.8626,5.189 -2.7881,12.5234 2.4009,16.3862 5.1889,3.8628 12.5234,2.7881 16.386,-2.4009 l 243.3774,-326.9377 c 3.8628,-5.189 2.7881,-12.5234 -2.4006,-16.386 -5.189,-3.8625 -12.5235,-2.7881 -16.386,2.4009 z m 86.7949,64.6118 c -3.8625,5.189 -2.7878,12.5235 2.4009,16.3858 5.189,3.8627 12.5234,2.788 16.386,-2.4009 l 243.7519,-327.4405 c 3.8628,-5.1889 2.7881,-12.5234 -2.4008,-16.3859 -5.1888,-3.8628 -12.5232,-2.7881 -16.386,2.4006 z"
         clip-path="url(#1478493529722-clipPath1)"
         id="path135"
         inkscape:connector-curvature="0"
         style="stroke:none" />
    </g>
    <g
       text-rendering="optimizeLegibility"
       font-size="386"
       shape-rendering="geometricPrecision"
       id="g137"
       style="font-size:386px;font-family:Arial">
      <path
         d="m 3857.4155,4613.2632 -449.5735,-7.8623 c -6.4677,-0.1133 -11.8003,5.0356 -11.9133,11.5034 -0.1133,6.4678 5.0359,11.8003 11.5037,11.9136 l 449.5735,7.8623 c 6.4677,0.1128 11.8003,-5.0362 11.9133,-11.5039 0.1133,-6.4678 -5.0359,-11.8003 -11.5037,-11.9131 z"
         clip-path="url(#1478493529722-clipPath1)"
         id="path139"
         inkscape:connector-curvature="0"
         style="stroke:none" />
    </g>
    <g
       text-rendering="optimizeLegibility"
       font-size="386"
       shape-rendering="geometricPrecision"
       id="g141"
       style="font-size:386px;font-family:Arial">
      <path
         d="m 4154.9136,4427.2065 180.4922,-306.1753 c 3.2851,-5.5727 1.4316,-12.75 -4.1407,-16.0346 -5.5727,-3.2852 -12.75,-1.4317 -16.0351,4.1406 l -180.4922,306.1758 c -3.2852,5.5723 -1.4316,12.7495 4.1411,16.0347 5.5723,3.2851 12.7495,1.4316 16.0347,-4.1412 z"
         clip-path="url(#1478493529722-clipPath1)"
         id="path143"
         inkscape:connector-curvature="0"
         style="stroke:none" />
    </g>
    <g
       text-rendering="optimizeLegibility"
       font-size="386"
       shape-rendering="geometricPrecision"
       id="g145"
       style="font-size:386px;font-family:Arial">
      <path
         d="m 4207.6128,3768.3193 c -3.146,-5.6521 -10.2754,-7.6826 -15.9273,-4.5363 -5.6523,3.1462 -7.6826,10.2756 -4.5366,15.9274 l 190.1675,341.6285 c 3.146,5.6518 10.2754,7.6826 15.9273,4.5361 5.6523,-3.146 7.6826,-10.2754 4.5366,-15.9272 z m -94.543,52.6275 c -3.146,-5.6521 -10.2754,-7.6826 -15.9272,-4.5364 -5.6524,3.1462 -7.6826,10.2754 -4.5366,15.9275 l 190.6333,342.4653 c 3.146,5.6519 10.2753,7.6826 15.9272,4.5362 5.6523,-3.146 7.6826,-10.2754 4.5366,-15.9273 z"
         clip-path="url(#1478493529722-clipPath1)"
         id="path147"
         inkscape:connector-curvature="0"
         style="stroke:none" />
    </g>
    <g
       text-rendering="optimizeLegibility"
       font-size="386"
       shape-rendering="geometricPrecision"
       id="g149"
       style="font-size:386px;font-family:Arial">
      <path
         d="m 1761.2469,2733.1367 -11.7103,0 -85.8758,366.5137 97.5861,0 97.5862,0 -85.8758,-366.5137 z"
         clip-path="url(#1478493529722-clipPath1)"
         id="path151"
         inkscape:connector-curvature="0"
         style="stroke:none" />
    </g>
    <g
       text-rendering="optimizeLegibility"
       font-size="386"
       shape-rendering="geometricPrecision"
       id="g153"
       style="font-size:386px;font-family:Arial">
      <path
         d="m 1606.1332,3326.054 -449.4685,0 c -6.4688,0 -11.7105,5.2414 -11.7105,11.7102 0,6.4687 5.2417,11.7104 11.7105,11.7104 l 449.4685,0 c 6.4687,0 11.7103,-5.2417 11.7103,-11.7104 0,-6.4688 -5.2416,-11.7102 -11.7103,-11.7102 z"
         clip-path="url(#1478493529722-clipPath1)"
         id="path155"
         inkscape:connector-curvature="0"
         style="stroke:none" />
    </g>
    <g
       text-rendering="optimizeLegibility"
       font-size="386"
       shape-rendering="geometricPrecision"
       id="g157"
       style="font-size:386px;font-family:Arial">
      <path
         d="m 1915.6552,3398.0938 414.3165,128.9704 c 6.1765,1.9226 12.739,-1.5242 14.6616,-7.7007 1.9226,-6.1762 -1.5242,-12.739 -7.7004,-14.6616 l -414.3167,-128.9705 c -6.1764,-1.9226 -12.7391,1.5242 -14.6617,7.7007 -1.9226,6.1763 1.5243,12.739 7.7007,14.6617 z"
         clip-path="url(#1478493529722-clipPath1)"
         id="path159"
         inkscape:connector-curvature="0"
         style="stroke:none" />
    </g>
    <g
       text-rendering="optimizeLegibility"
       font-size="386"
       shape-rendering="geometricPrecision"
       id="g161"
       style="font-size:386px;font-family:Arial">
      <path
         d="m 4074.6531,2012.936 93.6203,345.4114 c 1.6924,6.2434 8.1226,9.9314 14.3662,8.2393 6.2437,-1.6924 9.9312,-8.1226 8.2393,-14.366 l -93.6206,-345.4115 c -1.6924,-6.2435 -8.1226,-9.9314 -14.366,-8.2391 -6.2436,1.6922 -9.9314,8.1225 -8.2392,14.3659 z"
         clip-path="url(#1478493529722-clipPath1)"
         id="path163"
         inkscape:connector-curvature="0"
         style="stroke:none" />
    </g>
    <g
       text-rendering="optimizeLegibility"
       font-size="386"
       shape-rendering="geometricPrecision"
       id="g165"
       style="font-size:386px;font-family:Arial">
      <path
         d="m 3862.3298,1809.1201 -419.9528,113.8242 c -6.2435,1.6923 -9.9312,8.1226 -8.2391,14.3661 1.6922,6.2434 8.1226,9.9313 14.366,8.239 l 419.9529,-113.8242 c 6.2434,-1.6921 9.9314,-8.1224 8.2392,-14.3659 -1.6923,-6.2435 -8.1225,-9.9313 -14.3662,-8.2392 z"
         clip-path="url(#1478493529722-clipPath1)"
         id="path167"
         inkscape:connector-curvature="0"
         style="stroke:none" />
    </g>
    <g
       text-rendering="optimizeLegibility"
       font-size="386"
       shape-rendering="geometricPrecision"
       id="g169"
       style="font-size:386px;font-family:Arial">
      <path
         d="m 4150.8594,1581.2213 190.0073,-326.6565 c 3.2524,-5.5917 1.3574,-12.7579 -4.2344,-16.0105 -5.5918,-3.2524 -12.7578,-1.357 -16.0102,4.2345 l -190.0078,326.6566 c -3.2525,5.5916 -1.357,12.758 4.2348,16.0104 5.5913,3.2525 12.7578,1.3571 16.0103,-4.2345 z"
         clip-path="url(#1478493529722-clipPath1)"
         id="path171"
         inkscape:connector-curvature="0"
         style="stroke:none" />
    </g>
    <g
       text-rendering="optimizeLegibility"
       font-size="386"
       shape-rendering="geometricPrecision"
       id="g173"
       style="font-size:386px;font-family:Arial">
      <path
         d="m 4761.0474,1217.4186 c 6.4365,-0.6437 11.1308,-6.3808 10.4873,-12.8174 -0.6441,-6.4366 -6.3809,-11.1307 -12.8174,-10.4872 l -429.1382,42.9105 c -6.4365,0.6437 -11.1304,6.3808 -10.4868,12.8174 0.6435,6.4367 6.3804,11.1308 12.8174,10.4872 z m -10.7657,-107.6668 c 6.4366,-0.6435 11.1304,-6.3807 10.4869,-12.8174 -0.6436,-6.4365 -6.3809,-11.1306 -12.8174,-10.487 l -339.6983,33.9673 c -6.437,0.6435 -11.1308,6.3807 -10.4873,12.8174 0.6436,6.4366 6.3809,11.1307 12.8174,10.487 z"
         clip-path="url(#1478493529722-clipPath1)"
         id="path175"
         inkscape:connector-curvature="0"
         style="stroke:none" />
    </g>
    <g
       text-rendering="optimizeLegibility"
       font-size="386"
       shape-rendering="geometricPrecision"
       id="g177"
       style="font-size:386px;font-family:Arial">
      <path
         d="m 4985.4136,957.46625 74.7358,-354.13813 c 1.336,-6.32934 -2.7104,-12.54034 -9.04,-13.87603 -6.3291,-1.33576 -12.5401,2.71063 -13.876,9.03991 l -74.7358,354.13813 c -1.3355,6.32934 2.7109,12.54034 9.04,13.87603 6.3291,1.3357 12.5405,-2.71063 13.876,-9.03991 z"
         clip-path="url(#1478493529722-clipPath1)"
         id="path179"
         inkscape:connector-curvature="0"
         style="stroke:none" />
    </g>
    <g
       text-rendering="optimizeLegibility"
       font-size="386"
       shape-rendering="geometricPrecision"
       id="g181"
       style="font-size:386px;font-family:Arial">
      <path
         d="m 1761.2469,2721.4263 -604.5823,0 c -6.4688,0 -11.7104,5.2417 -11.7104,11.7104 0,6.4688 5.2416,11.7102 11.7104,11.7102 l 604.5823,0 c 6.4688,0 11.7104,-5.2414 11.7104,-11.7102 0,-6.4687 -5.2416,-11.7104 -11.7104,-11.7104 z"
         clip-path="url(#1478493529722-clipPath1)"
         id="path183"
         inkscape:connector-curvature="0"
         style="stroke:none" />
    </g>
    <g
       text-rendering="optimizeLegibility"
       font-size="386"
       shape-rendering="geometricPrecision"
       id="g185"
       style="font-size:386px;font-family:Arial">
      <path
         d="m 1764.8229,2744.2876 572.2052,-183.5 c 6.1599,-1.9753 9.5505,-8.5671 7.5752,-14.7268 -1.9756,-6.1599 -8.5674,-9.5505 -14.7271,-7.5752 l -572.2053,183.5 c -6.1597,1.9753 -9.5503,8.5674 -7.575,14.727 1.9754,6.1597 8.5673,9.5503 14.727,7.575 z"
         clip-path="url(#1478493529722-clipPath1)"
         id="path187"
         inkscape:connector-curvature="0"
         style="stroke:none" />
    </g>
    <g
       text-rendering="optimizeLegibility"
       font-size="386"
       shape-rendering="geometricPrecision"
       id="g189"
       style="font-size:386px;font-family:Arial">
      <path
         d="m 1144.9542,2733.1367 0,604.6275 c 0,6.4687 5.2417,11.7104 11.7105,11.7104 6.4686,0 11.7103,-5.2417 11.7103,-11.7104 l 0,-604.6275 c 0,-6.4687 -5.2417,-11.7104 -11.7103,-11.7104 -6.4688,0 -11.7105,5.2417 -11.7105,11.7104 z"
         clip-path="url(#1478493529722-clipPath1)"
         id="path191"
         inkscape:connector-curvature="0"
         style="stroke:none" />
    </g>
    <g
       text-rendering="optimizeLegibility"
       font-size="386"
       shape-rendering="geometricPrecision"
       id="g193"
       style="font-size:386px;font-family:Arial">
      <path
         d="M 1162.6111,2723.0486 649.77881,2420.7573 c -5.57263,-3.2849 -12.74982,-1.4309 -16.03467,4.1416 -3.28479,5.5728 -1.43103,12.75 4.14166,16.0347 l 512.8323,302.2913 c 5.5727,3.2849 12.7499,1.4309 16.0347,-4.1416 3.2848,-5.5728 1.431,-12.75 -4.1417,-16.0347 z"
         clip-path="url(#1478493529722-clipPath1)"
         id="path195"
         inkscape:connector-curvature="0"
         style="stroke:none" />
    </g>
    <g
       text-rendering="optimizeLegibility"
       font-size="386"
       shape-rendering="geometricPrecision"
       id="g197"
       style="font-size:386px;font-family:Arial">
      <path
         d="m 1156.6647,2733.1367 10.1413,5.8552 259.0596,-276.9526 -84.5122,-48.793 -84.5121,-48.7932 -110.3181,362.8284 z"
         clip-path="url(#1478493529722-clipPath1)"
         id="path199"
         inkscape:connector-curvature="0"
         style="stroke:none" />
    </g>
    <g
       text-rendering="optimizeLegibility"
       font-size="386"
       shape-rendering="geometricPrecision"
       id="g201"
       style="font-size:386px;font-family:Arial">
      <path
         d="m 2324.0591,2556.6296 361.664,485.7913 c 3.8631,5.1887 11.1976,6.2629 16.3863,2.3999 5.1887,-3.8628 6.2629,-11.1973 2.4001,-16.386 l -361.6643,-485.7912 c -3.8628,-5.1885 -11.1973,-6.263 -16.386,-2.3999 -5.1887,3.8627 -6.2629,11.1972 -2.4001,16.3859 z"
         clip-path="url(#1478493529722-clipPath1)"
         id="path203"
         inkscape:connector-curvature="0"
         style="stroke:none" />
    </g>
    <g
       text-rendering="optimizeLegibility"
       font-size="386"
       shape-rendering="geometricPrecision"
       id="g205"
       style="font-size:386px;font-family:Arial">
      <path
         d="m 2333.4521,2549.6367 11.1512,3.5759 265.2737,-545.9813 -92.9249,-29.7999 -92.9248,-29.8001 -101.726,598.4292 z"
         clip-path="url(#1478493529722-clipPath1)"
         id="path207"
         inkscape:connector-curvature="0"
         style="stroke:none" />
    </g>
    <g
       text-rendering="optimizeLegibility"
       font-size="386"
       shape-rendering="geometricPrecision"
       id="g209"
       style="font-size:386px;font-family:Arial">
      <path
         d="m 2290.5273,3373.5181 c -3.8903,5.1679 -2.8549,12.508 2.3133,16.3984 5.1679,3.8904 12.508,2.855 16.3984,-2.3132 l 253.0266,-336.135 c 3.8904,-5.1683 2.855,-12.5083 -2.3132,-16.3985 -5.168,-3.8904 -12.5081,-2.855 -16.3984,2.3133 z m 33.5691,135.3222 c -3.8903,5.1682 -2.8549,12.5083 2.313,16.3987 5.1682,3.8904 12.5083,2.855 16.3987,-2.3132 l 361.6641,-480.4553 c 3.8903,-5.1683 2.8549,-12.5083 -2.3133,-16.3985 -5.1679,-3.8904 -12.508,-2.855 -16.3984,2.313 z"
         clip-path="url(#1478493529722-clipPath1)"
         id="path211"
         inkscape:connector-curvature="0"
         style="stroke:none" />
    </g>
    <g
       text-rendering="optimizeLegibility"
       font-size="386"
       shape-rendering="geometricPrecision"
       id="g213"
       style="font-size:386px;font-family:Arial">
      <path
         d="m 2322.2915,3519.429 183.5,577.5861 c 1.9587,6.1651 8.5413,9.5738 14.7065,7.6148 6.1651,-1.9585 9.5735,-8.541 7.6148,-14.7063 l -183.5,-577.5862 c -1.9585,-6.165 -8.5413,-9.5735 -14.7063,-7.615 -6.165,1.9588 -9.5735,8.5413 -7.615,14.7066 z"
         clip-path="url(#1478493529722-clipPath1)"
         id="path215"
         inkscape:connector-curvature="0"
         style="stroke:none" />
    </g>
    <g
       text-rendering="optimizeLegibility"
       font-size="386"
       shape-rendering="geometricPrecision"
       id="g217"
       style="font-size:386px;font-family:Arial">
      <path
         d="m 637.8858,2420.7573 -512.83231,302.2913 c -5.57267,3.2847 -7.42646,10.4619 -4.14164,16.0347 3.28482,5.5725 10.46201,7.4265 16.03467,4.1416 l 512.83229,-302.2913 c 5.57269,-3.2847 7.42651,-10.4619 4.14166,-16.0347 -3.28479,-5.5725 -10.46203,-7.4265 -16.03467,-4.1416 z"
         clip-path="url(#1478493529722-clipPath1)"
         id="path219"
         inkscape:connector-curvature="0"
         style="stroke:none" />
    </g>
    <g
       text-rendering="optimizeLegibility"
       font-size="386"
       shape-rendering="geometricPrecision"
       id="g221"
       style="font-size:386px;font-family:Arial">
      <path
         d="m 3599.6458,2523.1431 582.9675,-156.5493 c 6.2475,-1.6778 9.9502,-8.0994 8.2724,-14.347 -1.6777,-6.2473 -8.0991,-9.9502 -14.3466,-8.2724 l -582.9676,156.5493 c -6.2473,1.6777 -9.9502,8.0993 -8.2724,14.3467 1.6777,6.2473 8.0993,9.9502 14.3467,8.2727 z"
         clip-path="url(#1478493529722-clipPath1)"
         id="path223"
         inkscape:connector-curvature="0"
         style="stroke:none" />
    </g>
    <g
       text-rendering="optimizeLegibility"
       font-size="386"
       shape-rendering="geometricPrecision"
       id="g225"
       style="font-size:386px;font-family:Arial">
      <path
         d="M 3607.9375,2508.8684 3456.7693,1931.282 c -1.638,-6.2581 -8.0359,-10.0016 -14.2937,-8.3638 -6.2581,1.6378 -10.0017,8.0358 -8.3638,14.2937 l 151.1682,577.5864 c 1.6377,6.2579 8.0357,10.0017 14.2937,8.3638 6.2581,-1.6379 10.0017,-8.0359 8.3638,-14.2937 z"
         clip-path="url(#1478493529722-clipPath1)"
         id="path227"
         inkscape:connector-curvature="0"
         style="stroke:none" />
    </g>
    <g
       text-rendering="optimizeLegibility"
       font-size="386"
       shape-rendering="geometricPrecision"
       id="g229"
       style="font-size:386px;font-family:Arial">
      <path
         d="m 4325.2129,4126.7944 599.2012,5.3809 c 6.4687,0.058 11.7568,-5.1362 11.8149,-11.6045 0.058,-6.4687 -5.1362,-11.7573 -11.6045,-11.8154 l -599.2012,-5.3809 c -6.4687,-0.058 -11.7568,5.1362 -11.8149,11.6045 -0.058,6.4688 5.1362,11.7573 11.6045,11.8154 z"
         clip-path="url(#1478493529722-clipPath1)"
         id="path231"
         inkscape:connector-curvature="0"
         style="stroke:none" />
    </g>
    <g
       text-rendering="optimizeLegibility"
       font-size="386"
       shape-rendering="geometricPrecision"
       id="g233"
       style="font-size:386px;font-family:Arial">
      <path
         d="m 4524.6567,314.16077 518.2134,296.91003 c 5.6128,3.21582 12.7661,1.27362 15.982,-4.33917 3.2158,-5.61273 1.2739,-12.76648 -4.3389,-15.98236 L 4536.2998,293.83923 c -5.6128,-3.21582 -12.7666,-1.27359 -15.9824,4.33918 -3.2158,5.61273 -1.2735,12.76654 4.3393,15.98236 z"
         clip-path="url(#1478493529722-clipPath1)"
         id="path235"
         inkscape:connector-curvature="0"
         style="stroke:none" />
    </g>
    <g
       text-rendering="optimizeLegibility"
       font-size="386"
       shape-rendering="geometricPrecision"
       id="g237"
       style="font-size:386px;font-family:Arial">
      <path
         d="m 4924.519,4132.1758 604.5826,0 c 6.4687,0 11.7104,-5.2417 11.7104,-11.7105 0,-6.4687 -5.2417,-11.7104 -11.7104,-11.7104 l -604.5826,0 c -6.4682,0 -11.7099,5.2417 -11.7099,11.7104 0,6.4688 5.2417,11.7105 11.7099,11.7105 z"
         clip-path="url(#1478493529722-clipPath1)"
         id="path239"
         inkscape:connector-curvature="0"
         style="stroke:none" />
    </g>
    <g
       text-rendering="optimizeLegibility"
       font-size="386"
       shape-rendering="geometricPrecision"
       id="g241"
       style="font-size:386px;font-family:Arial">
      <path
         d="m 4936.2295,4120.4653 0,-599.2011 c 0,-6.4688 -5.2417,-11.7102 -11.7105,-11.7102 -6.4682,0 -11.7099,5.2414 -11.7099,11.7102 l 0,599.2011 c 0,6.4688 5.2417,11.7105 11.7099,11.7105 6.4688,0 11.7105,-5.2417 11.7105,-11.7105 z"
         clip-path="url(#1478493529722-clipPath1)"
         id="path243"
         inkscape:connector-curvature="0"
         style="stroke:none" />
    </g>
    <g
       text-rendering="optimizeLegibility"
       font-size="386"
       shape-rendering="geometricPrecision"
       id="g245"
       style="font-size:386px;font-family:Arial">
      <path
         d="m 4912.8091,4120.4653 0,604.5826 c 0,6.4687 5.2417,11.7104 11.7099,11.7104 6.4688,0 11.7105,-5.2417 11.7105,-11.7104 l 0,-604.5826 c 0,-6.4687 -5.2417,-11.7104 -11.7105,-11.7104 -6.4682,0 -11.7099,5.2417 -11.7099,11.7104 z"
         clip-path="url(#1478493529722-clipPath1)"
         id="path247"
         inkscape:connector-curvature="0"
         style="stroke:none" />
    </g>
    <g
       text-rendering="optimizeLegibility"
       font-size="386"
       shape-rendering="geometricPrecision"
       id="g249"
       style="font-size:386px;font-family:Arial">
      <path
         d="m 1241.4565,3346.0447 c 4.5741,-4.5742 4.5741,-11.9868 0,-16.5611 -4.5741,-4.5739 -11.9868,-4.5739 -16.5609,0 l -299.83426,299.8345 c -4.5741,4.574 -4.5741,11.9868 0,16.5608 4.5741,4.5742 11.98688,4.5742 16.56091,0 z m -76.5114,-76.5115 c 4.5741,-4.5742 4.5741,-11.9868 0,-16.561 -4.5741,-4.574 -11.9868,-4.574 -16.5609,0 l -299.83433,299.8344 c -4.5741,4.574 -4.5741,11.9869 0,16.5608 4.57403,4.5743 11.98681,4.5743 16.56091,0 z"
         clip-path="url(#1478493529722-clipPath1)"
         id="path251"
         inkscape:connector-curvature="0"
         style="stroke:none" />
    </g>
  </g>
</svg>
