<?xml version="1.0"?><svg width="5000" height="5000" xmlns="http://www.w3.org/2000/svg">
 <title>tele</title>

 <metadata id="metadata4">image/svg+xml</metadata>
 <g>
  <path id="path9087" d="m3935.219482,4460.401855c78.312988,93.975586 179.959717,91.430176 148.794922,305.421387c-331.390625,130.007813 -1018.070557,-39.156738 -1018.070557,-39.156738l7.831299,-78.312988l861.444336,-187.95166z" stroke-dashoffset="0" stroke-miterlimit="4" marker-end="none" marker-mid="none" marker-start="none" stroke-width="3" fill-rule="nonzero" fill="#000000"/>
  <path d="m902.437988,4295.944336c-78.313049,93.976074 -179.959839,91.429688 -148.794983,305.420898c331.390198,130.008789 1018.070618,-39.15625 1018.070618,-39.15625l-7.831299,-78.312988l-861.444336,-187.95166z" id="path9085" stroke-dashoffset="0" stroke-miterlimit="4" marker-end="none" marker-mid="none" marker-start="none" stroke-width="3" fill-rule="nonzero" fill="#000000"/>
  <path id="path9062" d="m3267.493896,1711.611572c0,268.15686 -357.632324,485.54126 -798.793945,485.54126c-441.161499,0 -798.793457,-217.384399 -798.793457,-485.54126c0,-268.15686 357.631958,-485.54126 798.793457,-485.54126c441.161621,0 798.793945,217.384399 798.793945,485.54126z" stroke-dashoffset="0" stroke-miterlimit="4" marker-end="none" marker-mid="none" marker-start="none" stroke-width="3" fill-rule="nonzero" fill="#481b77"/>
  <path d="m848.737,1921.939941c469.882996,-279.689941 3009.462952,-950.94696 3456.963196,234.939941c469.879883,1420.820068 -39.760254,2042.149902 -179,2215.140137c-402.750244,436.319824 -2394.140137,402.75 -3468.152222,-111.879883c-492.252975,-883.820068 -61.417969,-2188.440186 190.189026,-2338.200195l0,0z" id="path9046" stroke-dashoffset="0" stroke-miterlimit="4" marker-end="none" marker-mid="none" marker-start="none" stroke-width="3" fill-rule="nonzero" fill="#3f007f"/>
  <path d="m4111.063477,3418.974121c-18.76001,203.060791 -298.002441,167.422119 -326.703125,-24.877197c0,-85.771729 64.366455,-156.512451 143.657227,-155.384521c143.564453,2.073486 183.045898,94.489014 183.045898,180.261719z" id="path9057" stroke-dashoffset="0" stroke-miterlimit="4" marker-end="none" marker-mid="none" marker-start="none" stroke-width="3" fill-rule="nonzero" fill="#000000"/>
  <path id="path9060" d="m4095.400635,2776.806641c-18.759766,203.060547 -298.001953,167.422119 -326.702637,-24.877441c0,-85.77124 64.366455,-156.512207 143.656738,-155.384033c143.564453,2.073486 183.045898,94.489014 183.045898,180.261475z" stroke-dashoffset="0" stroke-miterlimit="4" marker-end="none" marker-mid="none" marker-start="none" stroke-width="3" fill-rule="nonzero" fill="#000000"/>
  <path d="m2625.326416,1288.720825l939.757324,-971.082642l46.987793,156.626221l-901.228027,845.074707l-85.51709,-30.618286z" id="path9064" stroke-dashoffset="0" stroke-miterlimit="4" marker-end="none" marker-mid="none" marker-start="none" stroke-width="3" fill-rule="nonzero" fill="#3f3f3f"/>
  <path id="path9066" d="m3831.348389,380.288879c0,95.152527 -94.667236,172.288879 -211.445313,172.288879c-116.778076,0 -211.445313,-77.136353 -211.445313,-172.288879c0,-95.152557 94.667236,-172.288864 211.445313,-172.288864c116.778076,0 211.445313,77.136307 211.445313,172.288864z" stroke-dashoffset="0" stroke-miterlimit="4" marker-end="none" marker-mid="none" marker-start="none" stroke-width="3" fill-rule="nonzero" fill="#000000"/>
  <path id="path9068" d="m2406.050049,1445.347046l-861.444458,-830.119019l-31.325317,109.638367l734.153076,650.591614l158.616699,69.889038z" stroke-dashoffset="0" stroke-miterlimit="4" marker-end="none" marker-mid="none" marker-start="none" stroke-width="3" fill-rule="nonzero" fill="#3f3f3f"/>
  <path d="m1395.810181,692.381287c0,82.817993 82.395996,149.955139 184.035767,149.955139c101.640625,0 184.035889,-67.137146 184.035889,-149.955139c0,-82.817932 -82.395264,-149.955139 -184.035889,-149.955139c-101.639771,0 -184.035767,67.137207 -184.035767,149.955139z" id="path9070" stroke-dashoffset="0" stroke-miterlimit="4" marker-end="none" marker-mid="none" marker-start="none" stroke-width="3" fill-rule="nonzero" fill="#000000"/>
  <path d="m4014.889893,4207.901367c-50.429932,3.359863 -190.51001,48.049805 -624.049805,216.819824c-58.410156,22.740234 -136.97998,30.880371 -239.840088,35.25c-102.850098,4.360352 -228.310059,2.689941 -368.070068,-2.939941c-279.51001,-11.259766 -617.149902,-38.830078 -943.669922,-70.969727c-535.77002,-52.75 -958.463013,-106.850098 -1122.81604,-128.240234c522.33606,236.740234 1255.536011,366.850098 1910.346069,384.220215c337.899902,8.969727 654.669922,-11.630371 908.929932,-60.689941c252.77002,-48.780273 442.350098,-128.860352 527.140137,-219.280273c107.999756,-108.890137 97.780029,-148.399902 -47.960205,-154.169922l-0.01001,0z" id="path9082" stroke-dashoffset="0" stroke-miterlimit="4" marker-end="none" marker-mid="none" marker-start="none" stroke-width="3" fill-rule="nonzero" fill="#3f007f"/>
  <path id="path9074" d="m3983.006348,2751.151855c-15.713379,68.595215 -50.223877,119.232666 -77.063477,113.077637c-26.840088,-6.155273 -35.837402,-66.770508 -20.090576,-135.35791c15.713379,-68.595215 50.223877,-119.232666 77.063965,-113.077637c26.840088,6.155273 35.83667,66.770264 20.090088,135.35791z" stroke-dashoffset="0" stroke-miterlimit="4" marker-end="none" marker-mid="none" marker-start="none" stroke-width="3" fill-rule="nonzero" fill="#ffffff"/>
  <path d="m4010.69458,3399.048096c-15.714111,68.594727 -50.223877,119.232666 -77.063965,113.077637c-26.839844,-6.155273 -35.836914,-66.770508 -20.090332,-135.35791c15.713135,-68.595459 50.223877,-119.23291 77.063721,-113.077881c26.840088,6.155273 35.83667,66.770508 20.090576,135.358154z" id="path9076" stroke-dashoffset="0" stroke-miterlimit="4" marker-end="none" marker-mid="none" marker-start="none" stroke-width="3" fill-rule="nonzero" fill="#ffffff"/>
  <title>Layer 1</title>
  <path d="m2418.355713,1937.032837c-279.671387,1.779175 -583.323975,54.683472 -836.481689,122.364136c-253.157715,67.68042 -465.763184,158.249023 -524.697876,196.271973c18.674927,-12.04834 -10.976929,11.312744 -36.21991,57.755859c-25.242859,46.443848 -54.342224,114.318604 -80.760254,195.782715c-41.570557,128.189941 -76.407593,290.113281 -93.486267,462.536865c23.032349,-0.392822 46.783875,-1.092773 80.270874,-5.873535c173.123047,-24.713623 492.58313,-125.894531 1007.79187,-447.853027c550.119385,-343.773193 1041.80957,-222.711426 1346.496094,-5.384033c25.553955,18.227539 48.511963,37.612549 71.950195,56.776855c-16.670166,-70.820068 -36.493652,-144.505371 -60.203125,-222.213379c-54.864746,-157.587891 -152.890869,-245.60791 -303.952881,-313.251953c-151.061768,-67.644531 -353.170654,-98.296631 -570.707031,-96.912476z" id="path9055" stroke-dashoffset="0" stroke-miterlimit="4" marker-end="none" marker-mid="none" marker-start="none" stroke-width="3" fill-rule="nonzero" fill="#888a85"/>
  <path id="path9048" d="m978.156006,2182.149902c337.91394,-218.019897 2164.293945,-741.259888 2486.114014,183.130127c337.919922,1107.52002 -28.590088,1591.840088 -128.72998,1726.679932c-289.640137,340.109863 -1721.77002,313.950195 -2494.161011,-87.199951c-354.011017,-688.929932 -44.170044,-1705.870117 136.776978,-1822.610107l0,0z" stroke-dashoffset="0" stroke-miterlimit="4" marker-end="none" marker-mid="none" marker-start="none" stroke-width="3" fill-rule="nonzero" fill="#00ff00"/>
 </g>
</svg>