<svg xmlns="http://www.w3.org/2000/svg" width="343.38" height="260.41" version="1"><g fill="#655244"><path d="M141.92 53.23q0 2.38-1.2 4.5t-3.32 3.3q-1.3.7-2.64.93-1.35.23-3.05.23h-3.92l3.36-14.55h3.38q1.58 0 2.88.23 1.3.2 2.4.94 1.03.7 1.57 1.8.55 1.13.55 2.6zm-2.04.17q0-1.12-.4-1.92-.4-.8-1.2-1.35-.78-.52-1.68-.7-.9-.18-2.28-.18h-1.6l-2.65 11.35h2.03q1.4 0 2.5-.22 1.1-.24 2.07-.8 1.57-.9 2.4-2.58.8-1.7.8-3.6z"/><path d="M150.94 56.44q-1.5.06-2.68.24-1.16.16-1.92.5-.8.3-1.2.86-.4.55-.4 1.37 0 .7.47 1.1.5.36 1.5.36.88 0 1.8-.4.93-.4 1.73-.95l.7-3.06zm-1.06 4.6q-.27.15-.73.44-.45.3-.92.5-.5.2-1.1.36-.62.16-1.42.16-1.3 0-2.1-.75-.8-.77-.8-2 0-1.3.55-2.17.58-.9 1.7-1.47 1.1-.55 2.66-.8 1.57-.24 3.56-.3.06-.28.1-.47.04-.2.04-.42 0-.46-.2-.75-.17-.3-.5-.47-.36-.18-.8-.24-.46-.06-1-.06-.84 0-1.9.27-1.07.26-1.73.53h-.1l.36-1.84q.56-.15 1.63-.33 1.07-.18 2.06-.18 2.03 0 3.05.64 1 .63 1 2 0 .27-.03.58-.04.3-.1.55l-1.7 7.4h-1.84l.28-1.17z"/><path d="M166.8 51.3l-6.93 10.9h-1.83l-1.86-10.9h1.87l1.38 8.67 5.35-8.68h2.02z"/><path d="M172.17 47.56l-.44 1.9h-2.07l.44-1.9h2.07zm-.98 3.73l-2.53 10.9h-1.83l2.52-10.9h1.83z"/><path d="M184.7 47l-3.53 15.2h-1.83l.26-1.15q-1.24.85-2 1.15-.75.3-1.64.3-1.54 0-2.45-.98-.9-.98-.9-2.84 0-1.57.5-2.97.5-1.4 1.33-2.45.83-1.05 1.96-1.65 1.12-.62 2.4-.62.86 0 1.6.2.73.18 1.36.55l1.1-4.73h1.84zm-3.3 6.25q-.65-.34-1.28-.5-.63-.16-1.34-.16-1 0-1.8.47-.8.5-1.37 1.34-.5.78-.8 1.87-.27 1.08-.27 2.1 0 1.2.5 1.82.53.62 1.68.62.83 0 1.68-.4.86-.42 1.58-.9l1.45-6.27z"/></g><g fill="#777"><path d="M10.52 92.2H8.95l-.4-3.28h-5L1.62 92.2H0l6.92-11.64h2.05l1.55 11.63zm-2.14-4.54l-.72-5.75-3.38 5.76h4.1z"/><path d="M24.92 83.47l-4.05 8.73H19.5l-.88-6.75-3.6 6.75h-1.36l-.55-8.73h1.5l.24 6.75 3.56-6.75h1.23l.85 6.75 2.9-6.75h1.54z"/><path d="M32.2 86.88q.03-.22.05-.38.02-.16.02-.34 0-.84-.47-1.3-.45-.48-1.46-.48-1.1 0-1.97.7-.85.68-1.16 1.8h5zm-2.94 5.52q-1.82 0-2.85-.85-1.02-.85-1.02-2.5 0-2.4 1.52-4.1 1.5-1.72 3.75-1.72 1.48 0 2.27.74.8.73.8 2.07 0 .23-.08.74-.06.5-.2 1.18H27q-.05.23-.07.45-.02.23-.02.4 0 1.1.7 1.75.66.62 1.9.62.85 0 1.76-.33.9-.34 1.53-.76h.07l-.32 1.58q-.4.14-.7.26t-.8.24-.86.18-.94.06z"/><path d="M37.4 92.4q-1 0-1.76-.24t-1.28-.52l.33-1.57h.07q.16.14.42.34.25.2.66.38.37.18.84.3.47.14 1 .14 1.1 0 1.74-.4t.62-1.2q0-.42-.32-.64-.32-.22-.92-.36-.3-.07-.73-.16-.44-.1-.87-.2-.92-.26-1.35-.74-.44-.5-.44-1.2 0-.6.26-1.14.27-.53.8-.98.5-.42 1.27-.68.77-.26 1.7-.26.8 0 1.57.2.78.2 1.27.48l-.3 1.5h-.08q-.12-.1-.38-.28-.25-.17-.64-.35-.34-.14-.8-.25-.44-.1-.92-.1-.98 0-1.6.4-.6.42-.6 1.13 0 .4.3.65.3.26.9.4.4.1.8.2.43.07.82.16.9.22 1.36.7.46.47.46 1.2 0 .6-.3 1.17-.27.57-.8 1-.57.44-1.36.7-.78.24-1.77.24z"/><path d="M51.6 86.56q0 1.17-.37 2.25t-1.02 1.88q-.67.83-1.56 1.3-.9.46-2.08.46-1.55 0-2.43-.88-.87-.9-.87-2.46 0-1.17.36-2.23t1.03-1.9q.65-.8 1.58-1.27.95-.47 2.07-.47 1.5 0 2.4.86.9.85.9 2.46zm-2.4 3.3q.42-.63.64-1.45.22-.8.22-1.73 0-1.1-.52-1.65-.52-.57-1.48-.57-.76 0-1.36.37-.6.36-1.04 1-.42.6-.64 1.44-.23.83-.23 1.72 0 1.08.5 1.65.54.58 1.5.58.75 0 1.36-.35.6-.36 1.04-1z"/><path d="M66.9 85.4q0 .26-.03.54-.03.3-.1.6l-1.3 5.65h-1.48l1.14-4.97q.1-.42.15-.77.05-.35.05-.66 0-.6-.3-.9t-1.13-.33q-.62 0-1.3.34-.7.36-1.37.82-.02.2-.05.44-.04.25-.08.45l-1.3 5.6h-1.46l1.15-4.97q.1-.5.17-.8.06-.3.06-.63 0-.7-.4-.96-.38-.27-1.04-.27-.48 0-1.06.24-.58.25-1.54.88l-1.5 6.5h-1.47l2-8.7h1.48l-.22.96q.82-.57 1.52-.9.7-.3 1.48-.3.88 0 1.43.36.56.38.74 1.04 1.03-.75 1.85-1.08.8-.33 1.6-.33 1.16 0 1.74.57.57.57.57 1.6z"/><path d="M75.35 86.88q.04-.22.06-.38.02-.16.02-.34 0-.84-.46-1.3-.45-.48-1.46-.48-1.1 0-1.97.7-.86.68-1.16 1.8h4.98zM72.4 92.4q-1.8 0-2.83-.85t-1.03-2.5q0-2.4 1.52-4.1 1.5-1.72 3.75-1.72 1.5 0 2.28.74.8.73.8 2.07 0 .23-.08.74-.07.5-.2 1.18h-6.44q-.05.23-.07.45-.03.23-.03.4 0 1.1.67 1.75.67.62 1.9.62.87 0 1.77-.33.93-.34 1.55-.76h.08l-.32 1.58q-.38.14-.7.26t-.8.24-.85.18-.94.06z"/><path d="M86.17 92.4q-.97 0-1.75-.24-.76-.24-1.28-.52l.33-1.57h.08q.16.14.42.34t.67.38q.37.18.84.3.47.14 1 .14 1.1 0 1.74-.4t.62-1.2q0-.42-.32-.64-.32-.22-.92-.36-.3-.07-.73-.16-.42-.1-.86-.2-.9-.26-1.34-.74-.44-.5-.44-1.2 0-.6.26-1.14.27-.53.8-.98.5-.42 1.27-.68.77-.26 1.72-.26.78 0 1.55.2.78.2 1.27.48l-.32 1.5h-.08q-.12-.1-.38-.28-.25-.17-.64-.35-.34-.14-.8-.25-.43-.1-.92-.1-.98 0-1.58.4-.6.42-.6 1.13 0 .4.28.65.3.26.9.4.4.1.8.2.43.07.82.16.9.22 1.36.7.46.47.46 1.2 0 .6-.3 1.17-.27.57-.8 1-.57.44-1.35.7-.8.24-1.78.24z"/><path d="M98.85 86.88q.04-.22.06-.38.02-.16.02-.34 0-.84-.46-1.3-.45-.48-1.46-.48-1.1 0-1.97.7-.86.68-1.16 1.8h4.98zM95.9 92.4q-1.8 0-2.83-.85t-1.03-2.5q0-2.4 1.52-4.1 1.5-1.72 3.75-1.72 1.5 0 2.28.74.8.73.8 2.07 0 .23-.08.74-.07.5-.2 1.18h-6.44q-.05.23-.07.45-.03.23-.03.4 0 1.1.67 1.75.67.62 1.9.62.87 0 1.77-.33.93-.34 1.55-.76h.08l-.32 1.58q-.38.14-.7.26t-.8.24-.85.18-.94.06z"/><path d="M108.37 85.02h-.08q-.32-.08-.6-.1-.26-.05-.64-.05-.74 0-1.46.33-.7.33-1.38.8l-1.4 6.2h-1.5l2-8.73h1.48l-.3 1.3q1.04-.74 1.76-1.02.73-.28 1.4-.28.38 0 .55.02.18 0 .5.06l-.33 1.46z"/><path d="M117.62 83.47l-5.55 8.73h-1.46l-1.48-8.73h1.5l1.1 6.94 4.28-6.93h1.62z"/><path d="M121.9 80.48l-.34 1.53h-1.66l.35-1.52h1.66zm-.77 3l-2.02 8.7h-1.46l2.02-8.7h1.47z"/><path d="M125.82 92.4q-.83 0-1.47-.2-.63-.2-1.1-.62-.47-.4-.72-1.03-.25-.6-.25-1.43 0-1.23.38-2.3.4-1.05 1.1-1.86.67-.78 1.67-1.23 1-.46 2.15-.46.77 0 1.44.2.68.22 1.2.5l-.32 1.6h-.1q-.14-.15-.38-.34-.23-.18-.55-.35-.32-.17-.7-.28-.4-.12-.9-.12-1.52 0-2.48 1.3-.97 1.27-.97 3.1 0 1.1.57 1.7.57.6 1.6.6.5 0 1-.15t.83-.3q.4-.18.72-.4.32-.2.47-.3h.1l-.32 1.6q-.68.3-1.44.54-.76.22-1.54.22z"/><path d="M137.45 86.88q.03-.22.05-.38.02-.16.02-.34 0-.84-.47-1.3-.45-.48-1.46-.48-1.12 0-1.98.7-.85.68-1.16 1.8h5zm-2.94 5.52q-1.8 0-2.83-.85t-1.03-2.5q0-2.4 1.5-4.1 1.53-1.72 3.76-1.72 1.5 0 2.28.74.8.73.8 2.07 0 .23-.08.74-.07.5-.22 1.18h-6.43q-.04.23-.07.45 0 .23 0 .4 0 1.1.66 1.75.67.62 1.9.62.87 0 1.77-.33.93-.34 1.54-.76h.1l-.33 1.58q-.38.14-.7.26t-.8.24q-.48.1-.85.18t-.94.06z"/><path d="M145.18 80.56L143.03 89h-1.33l1.73-8.44h1.75zM142.4 92.2h-1.58l.38-1.65h1.6l-.4 1.65z"/><path d="M161.27 92.2h-1.57l-.4-3.28h-5l-1.9 3.27h-1.65l6.93-11.64h2.04l1.55 11.63zm-2.13-4.54l-.73-5.75-3.36 5.76h4.1z"/><path d="M167.1 80.04l-2.82 12.15h-1.47l2.82-12.16h1.47z"/><path d="M180.08 83.47l-4.05 8.73h-1.38l-.87-6.75-3.6 6.75h-1.37l-.53-8.73h1.5l.22 6.75 3.56-6.75h1.22l.85 6.75 2.9-6.75h1.55z"/><path d="M186.68 87.6q-1.2.04-2.14.18-.93.13-1.54.4-.63.25-.96.7-.33.43-.33 1.1 0 .55.4.85t1.18.3q.7 0 1.45-.32.74-.3 1.38-.75l.58-2.46zm-.85 3.67q-.2.12-.58.36-.36.22-.73.4-.4.17-.9.28-.5.14-1.13.14-1.05 0-1.7-.6-.64-.6-.64-1.6 0-1.03.45-1.74.47-.72 1.37-1.17.88-.45 2.12-.64 1.24-.22 2.84-.26.04-.22.08-.38.03-.16.03-.33 0-.38-.15-.6-.15-.25-.42-.4t-.64-.18q-.36-.05-.8-.05-.67 0-1.52.22-.85.2-1.38.42h-.08l.3-1.47q.43-.12 1.3-.26.85-.14 1.64-.14 1.63 0 2.44.5t.8 1.6q0 .23-.03.47-.02.23-.07.44l-1.36 5.93h-1.46l.23-.93z"/><path d="M191.5 95.4h-1.63l2.54-3.7-1.57-8.23h1.5l1.25 6.5 4.17-6.5h1.6L191.5 95.4z"/><path d="M202.1 92.4q-.97 0-1.74-.24t-1.28-.52l.33-1.57h.1q.15.14.4.34.27.2.68.38.37.18.83.3.5.14 1.03.14 1.1 0 1.73-.4t.62-1.2q0-.42-.32-.64-.32-.22-.92-.36-.3-.07-.73-.16-.42-.1-.85-.2-.92-.26-1.36-.74-.45-.5-.45-1.2 0-.6.26-1.14.28-.53.8-.98.5-.42 1.28-.68.77-.26 1.7-.26.8 0 1.57.2.78.2 1.27.48l-.3 1.5h-.1q-.1-.1-.37-.28-.25-.17-.64-.35-.33-.14-.78-.25-.45-.1-.93-.1-1 0-1.6.4-.6.42-.6 1.13 0 .4.3.65.3.26.9.4.38.1.8.2.42.07.8.16.9.22 1.37.7.46.47.46 1.2 0 .6-.3 1.17-.27.57-.8 1-.57.44-1.36.7-.78.24-1.77.24z"/><path d="M221.93 86.56q0 1.17-.36 2.25t-1 1.88q-.7.83-1.6 1.3-.88.46-2.06.46-1.55 0-2.42-.88-.87-.9-.87-2.46 0-1.17.36-2.23t1.03-1.9q.64-.8 1.58-1.27.94-.47 2.06-.47 1.5 0 2.4.86.9.85.9 2.46zm-2.4 3.3q.43-.63.65-1.45.23-.8.23-1.73 0-1.1-.52-1.65-.52-.57-1.47-.57-.75 0-1.35.37-.6.36-1.04 1-.4.6-.64 1.44-.23.83-.23 1.72 0 1.08.53 1.65.52.58 1.48.58.75 0 1.36-.35.6-.36 1.04-1z"/><path d="M231.8 85.46q0 .2-.03.5-.03.33-.1.57l-1.3 5.67h-1.47l1.14-4.97q.1-.42.14-.72.06-.3.06-.6 0-.67-.33-1-.3-.33-1.15-.33-.6 0-1.32.33-.7.33-1.4.78l-1.5 6.52h-1.46l2-8.73h1.48l-.22.97q.83-.6 1.56-.9.72-.3 1.5-.3 1.14 0 1.77.56.64.57.64 1.66z"/><path d="M245.37 83.47l-.27 1.2h-3.03l-.93 4q-.08.3-.14.7-.07.4-.07.64 0 .58.3.86.28.27 1.06.27.3 0 .75-.1.45-.12.6-.18h.08l-.27 1.27q-.44.1-.94.18-.5.07-.88.07-1.07 0-1.67-.47-.58-.48-.58-1.5 0-.25.02-.5.04-.24.1-.56l1.08-4.68h-1l.28-1.2h1l.58-2.5h1.46l-.58 2.5h3.03z"/><path d="M249.4 80.48l-.34 1.53h-1.66l.35-1.52h1.66zm-.77 3l-2.02 8.7h-1.46l2.02-8.7h1.47z"/><path d="M263.73 85.4q0 .26-.04.54-.04.3-.1.6l-1.32 5.65h-1.47l1.16-4.97q.1-.42.14-.77.07-.35.07-.66 0-.6-.3-.9-.3-.33-1.13-.33-.62 0-1.3.34-.7.36-1.37.82-.02.2-.06.44-.02.25-.07.45l-1.3 5.6h-1.45l1.14-4.97q.1-.5.17-.8.05-.3.05-.63 0-.7-.4-.96-.38-.27-1.05-.27-.46 0-1.04.24-.58.25-1.54.88l-1.5 6.5h-1.48l2.02-8.7h1.47l-.23.96q.82-.57 1.52-.9.7-.3 1.47-.3.87 0 1.42.36.56.38.74 1.04 1.03-.75 1.85-1.08.83-.33 1.63-.33 1.14 0 1.72.57.58.57.58 1.6z"/><path d="M272.16 86.88q.04-.22.05-.38t.03-.34q0-.84-.46-1.3-.45-.48-1.46-.48-1.1 0-1.96.7-.86.68-1.16 1.8h4.98zm-2.94 5.52q-1.8 0-2.84-.85-1.03-.85-1.03-2.5 0-2.4 1.5-4.1 1.53-1.72 3.76-1.72 1.5 0 2.3.74.78.73.78 2.07 0 .23-.07.74-.06.5-.2 1.18h-6.44q-.04.23-.07.45-.02.23-.02.4 0 1.1.67 1.75.67.62 1.9.62.87 0 1.77-.33.92-.34 1.53-.76h.1l-.33 1.58q-.4.14-.7.26t-.8.24q-.5.1-.86.18t-.94.06z"/><path d="M279.9 80.56L277.75 89h-1.33l1.73-8.44h1.75zm-2.77 11.63h-1.6l.4-1.65h1.6l-.4 1.65z"/><path d="M297.37 81.88h-4.15l-2.38 10.3h-1.56l2.38-10.3h-4.15l.3-1.32h9.87l-.3 1.32z"/><path d="M305.2 85.46q0 .2-.05.5-.03.33-.1.57l-1.3 5.67h-1.47l1.14-4.97q.1-.42.14-.72.06-.3.06-.6 0-.67-.33-1-.33-.33-1.17-.33-.6 0-1.32.33-.7.33-1.38.78l-1.5 6.52h-1.47l2.8-12.16h1.47l-1 4.4q.82-.6 1.55-.9.73-.3 1.5-.3 1.15 0 1.78.56.64.58.64 1.66z"/><path d="M312.96 87.6q-1.2.04-2.14.18-.93.13-1.54.4-.63.25-.96.7-.33.43-.33 1.1 0 .55.37.85t1.2.3q.7 0 1.44-.32.75-.3 1.4-.75l.56-2.46zm-.85 3.67q-.2.12-.57.36-.36.22-.73.4-.4.17-.9.28-.5.14-1.13.14-1.04 0-1.68-.6-.66-.6-.66-1.6 0-1.03.45-1.74.45-.72 1.35-1.17.88-.45 2.12-.64 1.25-.22 2.85-.26.04-.22.08-.38.03-.16.03-.33 0-.38-.15-.6-.15-.25-.42-.4t-.64-.18q-.36-.05-.8-.05-.67 0-1.52.22-.85.2-1.38.42h-.08l.3-1.47q.43-.12 1.3-.26.85-.14 1.64-.14 1.63 0 2.44.5t.8 1.6q0 .23-.03.47-.04.23-.1.44l-1.35 5.93h-1.46l.2-.93z"/><path d="M324.94 85.46q0 .2-.04.5-.03.33-.1.57l-1.3 5.67h-1.47l1.14-4.97q.1-.42.14-.72.07-.3.07-.6 0-.67-.33-1-.32-.33-1.16-.33-.6 0-1.32.33-.7.33-1.4.78l-1.5 6.52h-1.46l2-8.73h1.48l-.22.97q.83-.6 1.56-.9.73-.3 1.5-.3 1.15 0 1.78.56.64.57.64 1.66z"/><path d="M334.34 92.2h-1.78l-2.8-3.84-1.26 1.02-.64 2.8h-1.48l2.8-12.14h1.5l-1.82 7.8 5.12-4.37h1.93l-4.97 4.12 3.4 4.6z"/><path d="M338.45 92.4q-.98 0-1.75-.24t-1.28-.52l.33-1.57h.08q.16.14.42.34t.67.38q.37.18.83.3.48.14 1.02.14 1.1 0 1.73-.4t.62-1.2q0-.42-.32-.64-.32-.22-.92-.36-.3-.07-.73-.16-.42-.1-.86-.2-.92-.26-1.36-.74-.44-.5-.44-1.2 0-.6.26-1.14.27-.53.8-.98.5-.42 1.26-.68.78-.26 1.72-.26.78 0 1.56.2t1.27.48l-.3 1.5h-.1q-.12-.1-.37-.28-.25-.17-.64-.35-.34-.14-.8-.25-.44-.1-.92-.1-.98 0-1.6.4-.6.42-.6 1.13 0 .4.3.65.3.26.9.4.4.1.8.2.42.07.8.16.92.22 1.37.7.48.47.48 1.2 0 .6-.3 1.17-.28.57-.8 1-.57.44-1.36.7-.8.24-1.77.24z"/><path d="M3.83 117.4q-.98 0-1.75-.23-.77-.24-1.28-.53l.33-1.57h.07q.17.14.43.34t.67.4q.36.16.83.3.48.12 1.02.12 1.1 0 1.73-.4t.62-1.2q0-.4-.32-.63-.32-.24-.92-.38-.3-.07-.74-.16-.42-.08-.86-.2-.9-.26-1.35-.74-.42-.5-.42-1.2 0-.6.26-1.14.27-.53.8-.98.5-.42 1.26-.68.78-.26 1.72-.26.78 0 1.56.2t1.27.48l-.3 1.5h-.1q-.12-.1-.37-.27-.25-.18-.64-.36-.34-.15-.8-.26-.44-.1-.92-.1-.98 0-1.6.4-.6.4-.6 1.13 0 .4.3.65.3.26.9.4.4.1.8.2.42.07.8.16.92.23 1.37.7.45.48.45 1.2 0 .6-.28 1.18-.3.57-.82 1-.56.44-1.35.7-.8.24-1.77.24z"/><path d="M18.02 111.55q0 1.17-.36 2.25t-1 1.88q-.7.82-1.58 1.3-.9.46-2.08.46-1.55 0-2.43-.88-.87-.9-.87-2.45 0-1.17.35-2.23.36-1.06 1.04-1.9.63-.8 1.57-1.26.95-.47 2.06-.47 1.5 0 2.4.86.9.85.9 2.46zm-2.4 3.3q.43-.63.65-1.45.23-.8.23-1.73 0-1.1-.52-1.65-.53-.57-1.48-.57-.76 0-1.36.37-.6.36-1.04 1-.42.6-.65 1.44-.22.83-.22 1.72 0 1.07.52 1.65.52.58 1.48.58.75 0 1.36-.35.6-.36 1.03-1z"/><path d="M38.98 110.4q0 .26-.04.55-.03.3-.1.58l-1.32 5.67h-1.46l1.14-4.97q.1-.42.15-.77.06-.35.06-.65 0-.6-.28-.9-.3-.33-1.14-.33-.6 0-1.3.35-.7.34-1.37.8 0 .2-.04.45-.03.25-.08.44l-1.3 5.6h-1.46l1.15-4.97q.1-.5.16-.8.07-.3.07-.62 0-.7-.4-.96-.38-.27-1.05-.27-.47 0-1.05.24-.57.25-1.53.88l-1.5 6.52h-1.48l2-8.73h1.47l-.22.97q.82-.57 1.5-.9.72-.3 1.5-.3.87 0 1.42.36.55.38.73 1.04 1.03-.75 1.85-1.08.83-.33 1.62-.33 1.15 0 1.73.57.58.57.58 1.6z"/><path d="M49.6 108.47l-2 8.73H46.1l.22-.97q-.83.57-1.56.9-.72.3-1.52.3-1.13 0-1.76-.55-.63-.57-.63-1.66 0-.27.03-.52.04-.25.1-.57l1.3-5.66h1.47l-1.14 4.97q-.07.3-.14.7-.07.38-.07.6 0 .68.34 1.02.34.34 1.16.34.58 0 1.32-.34.75-.34 1.38-.77l1.5-6.53h1.47z"/><path d="M54.26 117.4q-.83 0-1.47-.2t-1.12-.62q-.46-.4-.7-1.02-.26-.62-.26-1.44 0-1.22.38-2.3t1.1-1.85q.67-.78 1.67-1.24 1-.46 2.15-.46.77 0 1.44.2.68.22 1.2.5l-.32 1.6h-.1q-.15-.14-.38-.33-.23-.2-.55-.35-.32-.18-.7-.3-.4-.1-.9-.1-1.5 0-2.47 1.27-.96 1.28-.96 3.12 0 1.1.57 1.68.57.6 1.6.6.5 0 1-.14t.83-.3q.4-.2.7-.4.34-.2.5-.3h.08l-.32 1.6q-.67.3-1.43.54-.76.22-1.54.22z"/><path d="M67.56 110.46q0 .2-.04.5-.03.33-.1.57l-1.3 5.66h-1.47l1.15-4.97q.1-.42.14-.72.05-.3.05-.6 0-.67-.34-1-.32-.33-1.16-.33-.6 0-1.3.33-.72.33-1.4.78l-1.5 6.5H58.8l2.8-12.14h1.47l-1.02 4.4q.83-.6 1.56-.9.73-.3 1.5-.3 1.15 0 1.78.56.64.57.64 1.66z"/><path d="M81.67 106.4h-.08q-.23-.07-.6-.14-.38-.07-.68-.07-.96 0-1.44.48t-.72 1.5l-.07.3h2.63l-.28 1.16h-2.6l-1.7 7.56h-1.5l1.72-7.56h-1l.3-1.17h.98l.06-.3q.33-1.52 1.26-2.36.94-.84 2.4-.84.5 0 .9.05.4.06.72.12l-.3 1.3z"/><path d="M88.77 111.55q0 1.17-.36 2.25t-1 1.88q-.68.82-1.57 1.3-.9.45-2.08.45-1.56 0-2.43-.88-.87-.9-.87-2.45 0-1.17.35-2.24.36-1.06 1.04-1.9.64-.78 1.58-1.26.95-.48 2.06-.48 1.5 0 2.4.86.9.86.9 2.47zm-2.4 3.3q.43-.63.65-1.45.23-.82.23-1.73 0-1.1-.52-1.66-.53-.55-1.48-.55-.76 0-1.36.37-.6.36-1.05 1-.42.6-.65 1.43-.22.83-.22 1.72 0 1.08.52 1.66.52.58 1.48.58.75 0 1.36-.35.6-.36 1.04-1z"/><path d="M96.96 110.02h-.08q-.3-.08-.58-.1-.27-.05-.65-.05-.74 0-1.46.34-.73.34-1.4.8l-1.4 6.2h-1.5l2-8.73h1.5l-.3 1.3q1.03-.73 1.75-1.02.73-.28 1.4-.28.38 0 .55.03.17 0 .5.07l-.34 1.45z"/><path d="M111.12 110.46q0 .2-.04.5-.03.33-.1.57l-1.3 5.66h-1.47l1.15-4.97q.1-.42.14-.72.05-.3.05-.6 0-.67-.33-1-.32-.33-1.16-.33-.6 0-1.32.33-.7.33-1.4.78l-1.5 6.5h-1.46l2.8-12.14h1.47l-1 4.4q.82-.6 1.55-.9.73-.3 1.5-.3 1.15 0 1.78.56.64.57.64 1.66z"/><path d="M119.57 111.88q.04-.23.05-.38t.02-.35q0-.83-.46-1.3-.45-.47-1.46-.47-1.1 0-1.97.7-.86.67-1.16 1.8h4.97zm-2.94 5.52q-1.8 0-2.84-.86-1.04-.85-1.04-2.5 0-2.4 1.5-4.1 1.53-1.72 3.76-1.72 1.5 0 2.28.75.8.73.8 2.07 0 .23-.08.74-.07.5-.22 1.18h-6.43q-.04.22-.07.44 0 .22 0 .4 0 1.1.66 1.74.67.63 1.9.63.87 0 1.77-.34.92-.33 1.53-.75h.1l-.33 1.58q-.4.14-.7.26-.32.12-.8.23-.5.12-.86.18t-.94.07z"/><path d="M126.34 105.04l-2.8 12.16h-1.48l2.8-12.16h1.48z"/><path d="M135.3 111.23q0 1.3-.4 2.44t-1.06 1.94q-.67.83-1.56 1.3-.9.47-1.9.47-.7 0-1.3-.16-.58-.15-1.07-.45l-.83 3.67h-1.47l2.76-11.95h1.47l-.2.92q.7-.52 1.42-.84.7-.33 1.55-.33 1.27 0 1.94.8.67.78.67 2.2zm-1.53.28q0-.92-.4-1.42-.4-.5-1.3-.5-.65 0-1.35.3-.7.33-1.3.74l-1.13 4.95q.5.27.96.4t1.1.13q.82 0 1.46-.4.65-.38 1.07-1 .43-.66.65-1.46.22-.8.22-1.73z"/><path d="M140.7 105.48l-.35 1.52h-1.66l.34-1.52h1.66zm-.78 2.98l-2.02 8.73h-1.47l2.02-8.74h1.47z"/><path d="M149.56 110.46q0 .2-.04.5-.03.33-.1.57l-1.3 5.66h-1.47l1.14-4.97q.1-.42.13-.72.06-.3.06-.6 0-.67-.34-1-.32-.33-1.16-.33-.6 0-1.32.33-.7.33-1.4.78l-1.5 6.5h-1.46l2-8.7h1.48l-.22.96q.83-.6 1.56-.9.73-.3 1.5-.3 1.15 0 1.78.56.64.57.64 1.66z"/><path d="M160.02 108.47l-1.77 7.76q-.52 2.22-1.7 3.24-1.17 1.03-3.26 1.03-.7 0-1.37-.1-.68-.1-1.25-.27l.33-1.46h.1q.43.2 1.17.37.74.18 1.4.18.74 0 1.26-.2.52-.18.86-.5.3-.34.52-.78.2-.43.32-.97l.18-.76q-.78.54-1.4.8-.6.26-1.53.26-1.28 0-2-.77-.72-.8-.72-2.2 0-1.14.37-2.2.38-1.07 1.04-1.9.64-.8 1.55-1.3.9-.47 1.95-.47.75 0 1.33.17.6.17 1.04.45l.17-.38h1.38zm-1.83 1.57q-.5-.26-1.04-.4-.52-.15-1.06-.15-.77 0-1.4.34-.63.35-1.08.97-.43.58-.67 1.4-.23.82-.23 1.63 0 .92.42 1.43.42.5 1.35.5.64 0 1.3-.27.67-.3 1.3-.7l1.1-4.76z"/><path d="M172.9 112.6q-1.2.04-2.14.18-.93.13-1.54.4-.63.25-.96.7-.33.43-.33 1.1 0 .55.38.84.4.3 1.2.3.7 0 1.45-.3.74-.33 1.38-.78l.57-2.45zm-.85 3.66q-.2.13-.58.36-.36.23-.73.4-.4.17-.9.3-.5.1-1.13.1-1.03 0-1.67-.6-.65-.6-.65-1.57 0-1.04.45-1.75.46-.72 1.36-1.18.87-.44 2.1-.64 1.26-.2 2.86-.25.04-.2.08-.37.03-.17.03-.34 0-.37-.15-.6-.15-.24-.42-.38-.28-.14-.64-.2-.36-.04-.8-.04-.66 0-1.52.22-.85.2-1.38.42h-.08l.3-1.47q.44-.12 1.3-.27.86-.15 1.65-.15 1.62 0 2.43.5.82.52.82 1.62 0 .2-.04.45-.04.24-.08.45l-1.37 5.92h-1.47l.22-.94z"/><path d="M184.88 110.46q0 .2-.04.5-.03.33-.1.57l-1.3 5.66h-1.47l1.14-4.97q.1-.42.15-.72.06-.3.06-.6 0-.67-.32-1-.32-.33-1.16-.33-.6 0-1.32.33-.7.33-1.4.78l-1.5 6.5h-1.46l2-8.7h1.48l-.22.96q.83-.6 1.56-.9.73-.3 1.5-.3 1.15 0 1.78.56.64.57.64 1.66z"/><path d="M196.15 105.04l-2.8 12.16h-1.48l.2-.92q-.98.68-1.6.92-.6.24-1.3.24-1.24 0-1.97-.78-.7-.78-.7-2.28 0-1.25.38-2.37.4-1.12 1.06-1.96.66-.84 1.57-1.32.92-.5 1.93-.5.7 0 1.28.16.6.14 1.1.44l.88-3.78h1.47zm-2.63 5q-.52-.27-1.03-.4-.5-.13-1.08-.13-.8 0-1.45.4-.63.4-1.1 1.07-.4.62-.63 1.48-.2.87-.2 1.68 0 .96.4 1.46t1.33.5q.65 0 1.33-.33.7-.33 1.27-.72l1.15-5z"/><path d="M208.95 106.4h-.08q-.22-.07-.6-.14-.37-.07-.67-.07-.96 0-1.45.48-.47.48-.72 1.5l-.07.3H208l-.27 1.16h-2.6l-1.7 7.56h-1.5l1.72-7.56h-1l.28-1.17h1l.06-.3q.3-1.52 1.24-2.36.94-.84 2.4-.84.5 0 .9.05t.7.12l-.3 1.3z"/><path d="M216.05 111.55q0 1.17-.36 2.25-.37 1.08-1.02 1.88-.68.82-1.58 1.3-.9.45-2.07.45-1.56 0-2.43-.88-.87-.9-.87-2.45 0-1.17.35-2.24.36-1.06 1.03-1.9.66-.78 1.6-1.26.94-.48 2.06-.48 1.5 0 2.4.86.9.86.9 2.47zm-2.4 3.3q.43-.63.65-1.45.23-.82.23-1.73 0-1.1-.53-1.66-.52-.55-1.47-.55-.76 0-1.36.37-.6.36-1.04 1-.42.6-.65 1.43-.23.83-.23 1.72 0 1.08.53 1.66.52.58 1.48.58.75 0 1.36-.35.6-.36 1.04-1z"/><path d="M224.24 110.02h-.08q-.3-.08-.58-.1-.27-.05-.65-.05-.74 0-1.46.34-.7.33-1.37.8l-1.4 6.2h-1.5l2-8.73h1.48l-.3 1.3q1.04-.74 1.76-1.02.73-.28 1.4-.28.38 0 .55.02.16 0 .5.06l-.35 1.45z"/><path d="M231.24 120.4h-1.62l2.54-3.72-1.58-8.22h1.5l1.25 6.5 4.17-6.5h1.6l-7.86 11.95z"/><path d="M247.7 111.55q0 1.17-.35 2.25-.36 1.08-1 1.88-.7.82-1.6 1.3-.88.45-2.06.45-1.57 0-2.44-.88-.87-.9-.87-2.45 0-1.17.34-2.24.36-1.06 1.03-1.9.65-.78 1.6-1.26.93-.48 2.05-.48 1.5 0 2.4.86.9.86.9 2.47zm-2.38 3.3q.42-.63.64-1.45.23-.82.23-1.73 0-1.1-.54-1.66-.52-.55-1.47-.55-.77 0-1.37.37-.6.36-1.04 1-.43.6-.66 1.43-.23.83-.23 1.72 0 1.08.54 1.66.52.58 1.48.58.75 0 1.36-.35.6-.36 1.04-1z"/><path d="M258.1 108.47l-2.02 8.73h-1.46l.22-.97q-.83.57-1.56.9-.72.3-1.52.3-1.13 0-1.76-.55-.63-.57-.63-1.66 0-.27.03-.52.04-.25.1-.57l1.3-5.66h1.47l-1.15 4.97q-.07.3-.13.7-.07.38-.07.6 0 .68.33 1.02.35.34 1.17.34.58 0 1.32-.34.75-.34 1.38-.77l1.5-6.53h1.47z"/><path d="M266.02 110.02h-.08q-.3-.08-.58-.1-.27-.05-.65-.05-.73 0-1.45.34t-1.4.8l-1.4 6.2h-1.48l2-8.73h1.48l-.3 1.3q1.04-.73 1.76-1.02.74-.28 1.4-.28.38 0 .56.03.17 0 .5.07l-.34 1.45z"/><path d="M274.17 117.4q-.98 0-1.75-.23-.77-.24-1.28-.53l.33-1.57h.08q.16.14.42.34t.67.4q.37.16.83.3.48.12 1.02.12 1.1 0 1.72-.4t.62-1.2q0-.4-.32-.63-.32-.24-.92-.38-.3-.07-.73-.16-.43-.08-.86-.2-.9-.26-1.35-.74-.43-.5-.43-1.2 0-.6.26-1.14.27-.53.8-.97.5-.4 1.26-.67.78-.27 1.72-.27.8 0 1.56.2.78.2 1.27.48l-.32 1.5h-.08q-.12-.1-.38-.27-.25-.17-.64-.35-.34-.15-.8-.26-.44-.1-.92-.1-.98 0-1.6.4-.6.4-.6 1.12 0 .4.3.66.3.25.9.4.4.1.8.18.43.08.82.17.9.22 1.36.7.46.47.46 1.2 0 .6-.3 1.17-.27.57-.8 1-.57.44-1.36.7-.8.24-1.77.24z"/><path d="M289.04 108.47l-2.02 8.73h-1.46l.22-.97q-.83.57-1.56.9-.72.3-1.52.3-1.13 0-1.76-.55-.63-.57-.63-1.66 0-.27.04-.52t.1-.57l1.3-5.66h1.47l-1.14 4.97q-.07.3-.13.7-.06.38-.06.6 0 .68.33 1.02.35.34 1.17.34.58 0 1.32-.34.74-.34 1.37-.77l1.5-6.53h1.47z"/><path d="M298.78 111.23q0 1.3-.4 2.44t-1.07 1.94q-.66.83-1.55 1.3-.9.47-1.9.47-.7 0-1.3-.16-.58-.15-1.07-.45l-.84 3.67h-1.47l2.76-11.95h1.47l-.2.92q.7-.52 1.42-.84.7-.33 1.55-.33 1.27 0 1.94.8.68.78.68 2.2zm-1.54.28q0-.92-.4-1.42-.4-.5-1.3-.5-.65 0-1.35.3-.7.33-1.3.74l-1.14 4.95q.5.27.97.4t1.1.13q.82 0 1.46-.4.64-.38 1.06-1 .44-.66.66-1.46.22-.8.22-1.73z"/><path d="M308.75 111.23q0 1.3-.4 2.44t-1.07 1.94q-.67.83-1.56 1.3-.9.47-1.9.47-.7 0-1.3-.16-.58-.15-1.07-.45l-.84 3.67h-1.46l2.76-11.95h1.47l-.2.92q.7-.52 1.42-.84.7-.33 1.54-.33 1.27 0 1.94.8.67.78.67 2.2zm-1.54.28q0-.92-.4-1.42-.4-.5-1.3-.5-.64 0-1.34.3-.7.33-1.3.74l-1.13 4.95q.5.27.97.4t1.1.13q.82 0 1.46-.4.65-.38 1.07-1 .44-.66.66-1.46.2-.8.2-1.73z"/><path d="M318.43 111.55q0 1.17-.36 2.25t-1 1.88q-.7.82-1.6 1.3-.88.45-2.06.45-1.55 0-2.42-.88-.87-.9-.87-2.45 0-1.17.36-2.24.36-1.06 1.03-1.9.64-.78 1.58-1.26.94-.48 2.06-.48 1.5 0 2.4.86.9.86.9 2.47zm-2.4 3.3q.43-.63.65-1.45.23-.82.23-1.73 0-1.1-.52-1.66-.52-.55-1.47-.55-.75 0-1.35.37-.6.36-1.04 1-.4.6-.64 1.43-.23.83-.23 1.72 0 1.08.53 1.66.52.58 1.48.58.75 0 1.36-.35.6-.36 1.04-1z"/><path d="M326.62 110.02h-.08q-.3-.08-.58-.1-.27-.05-.65-.05-.73 0-1.45.34t-1.4.8l-1.4 6.2h-1.48l2-8.73h1.48l-.3 1.3q1.04-.73 1.76-1.02.74-.28 1.4-.28.38 0 .56.03.17 0 .5.07l-.34 1.45z"/><path d="M332.96 108.47l-.27 1.2h-3.04l-.93 4q-.08.32-.14.7-.08.4-.08.64 0 .58.3.86.28.27 1.06.27.32 0 .76-.1.45-.1.6-.18h.08l-.27 1.27q-.44.1-.94.18-.48.07-.87.07-1.07 0-1.67-.47-.58-.48-.58-1.5 0-.25.03-.5.05-.24.1-.56l1.1-4.68h-1l.27-1.2h1l.58-2.5h1.46l-.57 2.5h3.03z"/><path d="M335.13 117.2h-1.88l.5-2.23h1.9l-.52 2.23z"/><path d="M11.9 131.88H7.75l-2.38 10.3H3.8l2.4-10.3H2.03l.3-1.32h9.85l-.3 1.32z"/><path d="M19.72 135.46q0 .2-.04.5-.03.33-.1.57l-1.3 5.66H16.8l1.15-4.97q.1-.42.14-.72.05-.3.05-.6 0-.67-.33-1-.32-.33-1.16-.33-.6 0-1.32.33-.7.33-1.4.78l-1.5 6.5H11l2.8-12.14h1.47l-1.02 4.4q.84-.6 1.57-.9.73-.3 1.5-.3 1.15 0 1.78.56.64.57.64 1.66z"/><path d="M25.38 130.48l-.35 1.52h-1.65l.35-1.52h1.65zm-.78 2.98l-2 8.73H21.1l2-8.74h1.48z"/><path d="M28.23 142.4q-.97 0-1.75-.23-.76-.24-1.28-.53l.33-1.57h.08q.17.14.43.34.27.2.67.4.37.16.84.3.48.12 1 .12 1.12 0 1.74-.4t.63-1.2q0-.4-.3-.63-.33-.24-.94-.38-.3-.07-.73-.16-.42-.08-.86-.2-.9-.26-1.35-.74-.44-.5-.44-1.2 0-.6.27-1.13.26-.55.8-1 .5-.4 1.26-.67.78-.27 1.73-.27.78 0 1.55.2.78.2 1.28.48l-.32 1.5h-.07q-.13-.1-.4-.27-.24-.17-.63-.35-.33-.15-.8-.26-.43-.1-.92-.1-.97 0-1.58.4-.6.4-.6 1.12 0 .4.3.66.28.26.9.4.37.1.8.18.4.08.8.18.9.22 1.36.7.46.48.46 1.2 0 .6-.3 1.17-.27.58-.8 1-.56.44-1.35.7-.78.24-1.77.24z"/><path d="M52.36 133.47l-4.06 8.73h-1.37l-.88-6.75-3.6 6.75H41.1l-.55-8.73h1.5l.22 6.75 3.57-6.75h1.22l.85 6.75 2.92-6.75h1.54z"/><path d="M58.96 137.6q-1.2.04-2.14.18-.93.13-1.54.4-.63.25-.96.7-.33.43-.33 1.1 0 .55.38.84.38.3 1.18.3.7 0 1.45-.3.75-.33 1.4-.78l.56-2.45zm-.85 3.66q-.2.13-.57.36-.36.23-.73.4-.4.17-.9.3-.5.1-1.13.1-1.04 0-1.68-.6-.66-.6-.66-1.57 0-1.04.45-1.75.45-.72 1.35-1.17.88-.44 2.13-.64t2.84-.26q.05-.22.08-.38t.03-.33q0-.38-.15-.6-.15-.24-.42-.4-.28-.13-.64-.17-.36-.06-.8-.06-.66 0-1.5.22-.87.2-1.4.42h-.08l.3-1.47q.44-.1 1.3-.26.86-.14 1.65-.14 1.6 0 2.42.5.82.52.82 1.62 0 .2-.04.45-.03.23-.08.45l-1.37 5.92H57.9l.2-.93z"/><path d="M64.92 142.4q-.97 0-1.75-.23-.76-.24-1.28-.53l.32-1.57h.08q.16.14.42.34t.67.4q.36.16.83.3.47.12 1 .12 1.1 0 1.74-.4t.62-1.2q0-.4-.33-.63-.32-.24-.92-.38-.3-.07-.73-.16-.42-.08-.86-.2-.92-.26-1.35-.74-.43-.5-.43-1.2 0-.6.26-1.13.27-.55.8-1 .5-.4 1.27-.67t1.72-.27q.78 0 1.55.2.78.2 1.27.48l-.3 1.5h-.1q-.1-.1-.37-.27-.25-.17-.64-.35-.34-.15-.8-.26-.43-.1-.92-.1-.97 0-1.58.4-.6.4-.6 1.12 0 .4.3.66t.9.4q.38.1.8.18.42.08.8.18.9.22 1.37.7.45.48.45 1.2 0 .6-.3 1.17-.27.58-.8 1-.57.44-1.35.7-.8.24-1.78.24z"/><path d="M83.23 136.88q.04-.23.05-.38t.02-.35q0-.83-.46-1.3-.46-.47-1.46-.47-1.1 0-1.97.7-.85.67-1.16 1.8h5zm-2.94 5.52q-1.82 0-2.85-.86-1.04-.85-1.04-2.5 0-2.4 1.53-4.1 1.52-1.72 3.75-1.72 1.48 0 2.27.75.8.73.8 2.07 0 .23-.08.74-.06.5-.2 1.18h-6.44q-.05.22-.07.44 0 .22 0 .4 0 1.1.66 1.74.67.63 1.9.63.86 0 1.77-.34.9-.33 1.52-.75h.1l-.33 1.58q-.4.14-.72.26-.3.12-.8.23t-.85.18-.94.07z"/><path d="M89.2 137.78l-2.43-4.3h1.64l1.8 3.32 3.26-3.33h1.8l-4.45 4.4 2.46 4.32H91.6l-1.8-3.35-3.28 3.34h-1.8l4.48-4.42z"/><path d="M101.55 137.6q-1.2.04-2.14.18-.92.13-1.53.4-.63.25-.96.7-.32.43-.32 1.1 0 .55.38.84.4.3 1.2.3.7 0 1.44-.3.74-.33 1.38-.78l.57-2.45zm-.85 3.66q-.2.13-.58.36-.36.23-.73.4-.4.17-.9.3-.5.1-1.14.1-1.04 0-1.68-.6-.65-.6-.65-1.57 0-1.04.45-1.75.46-.72 1.36-1.18.88-.44 2.12-.64 1.25-.2 2.85-.25.05-.2.1-.37.02-.17.02-.34 0-.37-.15-.6-.15-.24-.42-.38-.28-.14-.64-.2-.35-.04-.8-.04-.65 0-1.5.22-.86.2-1.4.42h-.07l.3-1.47q.44-.12 1.3-.27.86-.15 1.64-.15 1.63 0 2.44.5.82.52.82 1.62 0 .2-.03.45-.05.24-.1.45l-1.36 5.92h-1.46l.22-.94z"/><path d="M108.57 142.4q-.83 0-1.47-.2-.63-.2-1.1-.62-.47-.4-.72-1.03-.25-.6-.25-1.43 0-1.23.38-2.3.4-1.06 1.1-1.86.68-.78 1.68-1.23 1-.47 2.16-.47.76 0 1.43.22.68.2 1.2.5l-.32 1.58h-.1q-.14-.14-.38-.33-.23-.18-.55-.35-.32-.17-.7-.28-.4-.12-.9-.12-1.52 0-2.48 1.28-.95 1.3-.95 3.12 0 1.1.55 1.7.57.6 1.62.6.5 0 .98-.15.5-.14.84-.3.37-.18.7-.4.32-.2.47-.3h.1l-.32 1.6q-.68.3-1.44.54-.75.22-1.53.22z"/><path d="M119.68 133.47l-.27 1.2h-3.02l-.93 4q-.08.32-.14.7-.06.4-.06.64 0 .58.3.86.28.27 1.06.27.32 0 .76-.1.45-.1.6-.18h.08l-.27 1.27q-.44.1-.94.18-.5.07-.88.07-1.07 0-1.67-.47-.58-.48-.58-1.5 0-.25.03-.5.04-.24.1-.56l1.08-4.68h-.98l.27-1.2h.98l.6-2.5h1.45l-.58 2.5h3.03z"/><path d="M123.74 130.04l-2.8 12.16h-1.48l2.8-12.16h1.48z"/><path d="M125.43 145.4h-1.62l2.55-3.72-1.58-8.22h1.5l1.25 6.5 4.17-6.5h1.6l-7.87 11.95z"/><path d="M151.83 133.47l-4.05 8.73h-1.38l-.87-6.75-3.6 6.75h-1.37l-.54-8.73h1.5l.22 6.75 3.57-6.75h1.23l.85 6.75 2.9-6.75h1.55z"/><path d="M160.78 135.46q0 .2-.04.5-.03.33-.1.57l-1.3 5.66h-1.47l1.14-4.97q.1-.42.15-.72.06-.3.06-.6 0-.67-.32-1-.32-.33-1.16-.33-.6 0-1.32.33-.7.33-1.4.78l-1.5 6.5h-1.46l2.8-12.14h1.47l-1 4.4q.83-.6 1.56-.9.73-.3 1.5-.3 1.15 0 1.78.56.64.57.64 1.66z"/><path d="M168.55 137.6q-1.2.04-2.14.18-.92.13-1.53.4-.63.25-.96.7-.32.43-.32 1.1 0 .55.38.84.4.3 1.2.3.7 0 1.44-.3.74-.33 1.38-.78l.57-2.45zm-.85 3.66q-.2.13-.58.36-.36.23-.73.4-.4.17-.9.3-.5.1-1.14.1-1.04 0-1.68-.6-.65-.6-.65-1.57 0-1.04.45-1.75.46-.72 1.36-1.18.88-.44 2.12-.64 1.25-.2 2.85-.25.05-.2.1-.37.02-.17.02-.34 0-.37-.15-.6-.15-.24-.42-.38-.28-.14-.64-.2-.35-.04-.8-.04-.65 0-1.5.22-.86.2-1.4.42h-.07l.3-1.47q.44-.12 1.3-.27.86-.15 1.65-.15 1.62 0 2.43.5.83.52.83 1.62 0 .2-.04.45-.05.24-.1.45l-1.36 5.92h-1.46l.22-.94z"/><path d="M178.34 133.47l-.27 1.2h-3.03l-.93 4q-.07.32-.13.7-.07.4-.07.64 0 .58.3.86.28.27 1.06.27.32 0 .76-.1.45-.1.6-.18h.08l-.27 1.27q-.44.1-.94.18-.5.07-.9.07-1.06 0-1.66-.47-.58-.48-.58-1.5 0-.25.03-.5.03-.24.1-.56l1.07-4.68h-1l.28-1.2h1l.58-2.5h1.46l-.6 2.5h3.04z"/><path d="M187.95 142.2h-4.6l.25-1.13h1.52l2.17-9.37h-1.53l.26-1.13h4.6l-.25 1.13h-1.52l-2.18 9.37h1.53l-.25 1.13z"/><path d="M204.84 135.46q0 .2-.04.5-.03.33-.1.57l-1.3 5.66h-1.47l1.14-4.97q.1-.42.14-.72.07-.3.07-.6 0-.67-.33-1-.32-.33-1.16-.33-.6 0-1.32.33-.7.33-1.4.78l-1.5 6.5h-1.46l2-8.7h1.48l-.22.96q.83-.6 1.56-.9.73-.3 1.5-.3 1.15 0 1.78.56.64.57.64 1.66z"/><path d="M213.3 136.88q.03-.23.04-.38t.02-.35q0-.83-.46-1.3-.45-.47-1.46-.47-1.1 0-1.97.7-.86.67-1.16 1.8h5zm-2.95 5.52q-1.8 0-2.84-.86-1.02-.85-1.02-2.5 0-2.4 1.5-4.1 1.53-1.72 3.76-1.72 1.5 0 2.28.75.8.73.8 2.07 0 .23-.08.74-.07.5-.22 1.18h-6.43q-.05.22-.08.44 0 .22 0 .4 0 1.1.66 1.74.67.63 1.9.63.87 0 1.77-.34.92-.33 1.53-.75h.1l-.33 1.58q-.4.14-.7.26-.32.12-.8.23-.5.12-.86.18t-.95.07z"/><path d="M222.82 136.88q.04-.23.05-.38t.02-.35q0-.83-.47-1.3-.45-.47-1.46-.47-1.1 0-1.97.7-.86.67-1.16 1.8h4.98zm-2.94 5.52q-1.8 0-2.84-.86-1.03-.85-1.03-2.5 0-2.4 1.52-4.1 1.52-1.72 3.75-1.72 1.5 0 2.28.75.8.73.8 2.07 0 .23-.08.74-.07.5-.22 1.18h-6.43q-.04.22-.07.44 0 .22 0 .4 0 1.1.66 1.74.68.63 1.92.63.86 0 1.76-.34.92-.33 1.53-.75h.1l-.32 1.58q-.4.14-.7.26-.32.12-.8.23-.5.12-.86.18t-.94.07z"/><path d="M235.18 130.04l-2.8 12.16h-1.48l.2-.92q-.98.68-1.6.92-.6.24-1.3.24-1.24 0-1.97-.78-.7-.78-.7-2.28 0-1.25.38-2.37.4-1.12 1.07-1.96.66-.84 1.57-1.32.9-.5 1.92-.5.7 0 1.28.16.6.14 1.1.44l.87-3.78h1.48zm-2.63 5q-.52-.27-1.03-.4-.5-.13-1.07-.13-.8 0-1.45.4-.63.4-1.1 1.07-.4.62-.63 1.48-.2.87-.2 1.68 0 .96.4 1.46t1.33.5q.65 0 1.33-.33.7-.33 1.27-.72l1.15-5z"/><path d="M242.32 136.88q.04-.23.05-.38t.02-.35q0-.83-.47-1.3-.45-.47-1.46-.47-1.1 0-1.97.7-.86.67-1.16 1.8h4.98zm-2.94 5.52q-1.8 0-2.84-.86-1.03-.85-1.03-2.5 0-2.4 1.52-4.1 1.52-1.72 3.75-1.72 1.5 0 2.28.75.8.73.8 2.07 0 .23-.08.74-.07.5-.22 1.18h-6.43q-.04.22-.07.44 0 .22 0 .4 0 1.1.66 1.74.68.63 1.92.63.86 0 1.76-.34.92-.33 1.53-.75h.1l-.32 1.58q-.4.14-.7.26-.32.12-.8.23-.5.12-.86.18t-.94.07z"/><path d="M254.68 130.04l-2.8 12.16h-1.48l.2-.92q-.98.68-1.6.92-.6.24-1.3.24-1.24 0-1.97-.78-.7-.78-.7-2.28 0-1.25.38-2.37.4-1.12 1.07-1.96.66-.84 1.57-1.32.9-.5 1.92-.5.7 0 1.28.16.6.14 1.1.44l.87-3.78h1.48zm-2.63 5q-.52-.27-1.03-.4-.5-.13-1.07-.13-.8 0-1.45.4-.63.4-1.1 1.07-.4.62-.63 1.48-.2.87-.2 1.68 0 .96.4 1.46t1.33.5q.65 0 1.33-.33.7-.33 1.27-.72l1.15-5z"/><path d="M257.16 142.2h-1.88l.5-2.23h1.9l-.52 2.23z"/><path d="M11.6 167.2H10l2.3-9.88L7.6 164h-.93l-1.64-7-2.36 10.2H1.2l2.7-11.63h2.12l1.57 6.47 4.53-6.47h2.14L11.6 167.2z"/><path d="M23.18 161.55q0 1.17-.36 2.25t-1 1.88q-.7.82-1.6 1.3-.88.45-2.06.45-1.56 0-2.43-.88-.87-.9-.87-2.45 0-1.17.35-2.24.37-1.06 1.04-1.9.65-.78 1.6-1.26.93-.48 2.05-.48 1.5 0 2.4.86.88.86.88 2.47zm-2.4 3.3q.43-.63.65-1.45.23-.82.23-1.73 0-1.1-.53-1.66-.52-.55-1.47-.55-.76 0-1.36.37-.6.36-1.04 1-.42.6-.65 1.43-.22.83-.22 1.72 0 1.08.53 1.66.53.58 1.5.58.74 0 1.35-.35.6-.36 1.04-1z"/><path d="M31.37 160.02h-.08q-.32-.08-.6-.1-.26-.05-.65-.05-.73 0-1.46.34-.73.33-1.4.8l-1.4 6.2h-1.48l2-8.73h1.48l-.3 1.3q1.04-.74 1.76-1.02t1.4-.28q.37 0 .54.02.17 0 .5.06l-.33 1.45z"/><path d="M38.23 161.88q.04-.23.05-.38t.02-.35q0-.83-.46-1.3-.46-.47-1.46-.47-1.1 0-1.97.7-.85.67-1.16 1.8h5zm-2.94 5.52q-1.82 0-2.85-.86-1.04-.85-1.04-2.5 0-2.4 1.53-4.1 1.52-1.72 3.75-1.72 1.48 0 2.27.75.8.73.8 2.07 0 .23-.08.74-.06.5-.2 1.18h-6.44q-.05.22-.07.44 0 .22 0 .4 0 1.1.66 1.74.67.63 1.9.63.86 0 1.77-.34.9-.33 1.52-.75h.1l-.33 1.58q-.4.14-.72.26-.3.12-.8.23t-.85.18-.94.07z"/><path d="M49.27 161.55q0 1.17-.36 2.25t-1 1.88q-.68.82-1.57 1.3-.9.45-2.08.45-1.56 0-2.43-.88-.87-.9-.87-2.45 0-1.17.35-2.24.36-1.06 1.04-1.9.64-.78 1.58-1.26.95-.48 2.06-.48 1.5 0 2.4.86.9.86.9 2.47zm-2.4 3.3q.43-.63.65-1.45.23-.82.23-1.73 0-1.1-.52-1.66-.53-.55-1.48-.55-.76 0-1.36.37-.6.36-1.05 1-.42.6-.65 1.43-.22.83-.22 1.72 0 1.08.52 1.66.52.58 1.48.58.75 0 1.36-.35.6-.36 1.04-1z"/><path d="M59.87 158.47l-5.55 8.73h-1.46l-1.5-8.73h1.5l1.1 6.95 4.3-6.95h1.6z"/><path d="M66.94 161.88q.04-.22.06-.38.02-.16.02-.34 0-.84-.47-1.3-.45-.48-1.46-.48-1.12 0-1.98.7-.85.68-1.16 1.8h5zM64 167.4q-1.8 0-2.84-.86-1.03-.85-1.03-2.5 0-2.4 1.52-4.1 1.5-1.72 3.75-1.72 1.48 0 2.27.75.8.73.8 2.07 0 .23-.08.74-.07.5-.22 1.18h-6.43q-.05.22-.07.44-.02.22-.02.4 0 1.1.68 1.74.67.63 1.9.63.86 0 1.77-.34.92-.33 1.54-.75h.08l-.32 1.58q-.4.14-.7.26-.3.12-.8.23t-.86.18-.93.07z"/><path d="M76.46 160.02h-.08q-.3-.08-.58-.1-.27-.05-.65-.05-.74 0-1.46.34-.73.34-1.4.8l-1.4 6.2h-1.5l2-8.73h1.5l-.3 1.3q1.03-.73 1.75-1.02.73-.28 1.4-.28.38 0 .55.03.17 0 .5.07l-.34 1.45z"/><path d="M79.9 164.97l-3.4 5.12h-1.14l2.53-5.13h2z"/><path d="M91.92 167.2h-4.6l.25-1.13h1.52l2.17-9.37h-1.53l.26-1.14h4.6l-.25 1.13h-1.52l-2.17 9.36h1.52l-.26 1.13z"/><path d="M112.95 158.47l-4.05 8.73h-1.38l-.87-6.75-3.6 6.75h-1.37l-.54-8.73h1.5l.22 6.75 3.57-6.75h1.22l.85 6.75 2.9-6.75h1.55z"/><path d="M119.55 162.6q-1.2.04-2.14.18-.92.13-1.53.4-.63.25-.96.7-.32.43-.32 1.1 0 .55.38.84.4.3 1.2.3.7 0 1.44-.3.74-.33 1.38-.78l.57-2.45zm-.85 3.66q-.2.13-.58.36-.36.23-.73.4-.4.17-.9.3-.5.1-1.14.1-1.04 0-1.68-.6-.65-.6-.65-1.57 0-1.04.45-1.75.46-.72 1.36-1.18.88-.44 2.12-.64 1.25-.2 2.85-.25.05-.2.1-.37.02-.17.02-.34 0-.37-.15-.6-.15-.24-.42-.38-.28-.14-.64-.2-.35-.04-.8-.04-.65 0-1.5.22-.86.2-1.4.42h-.07l.3-1.47q.44-.12 1.3-.27t1.65-.15q1.62 0 2.43.5.83.52.83 1.62 0 .2-.04.45-.05.24-.1.45l-1.36 5.92h-1.46l.22-.94z"/><path d="M125.52 167.4q-.98 0-1.75-.23-.77-.24-1.28-.53l.32-1.57h.08q.16.14.42.34t.67.4q.36.16.82.3.48.12 1.02.12 1.1 0 1.73-.4t.62-1.2q0-.4-.33-.63-.32-.24-.92-.38-.3-.07-.73-.16-.43-.08-.86-.2-.92-.26-1.36-.74-.44-.5-.44-1.2 0-.6.26-1.13.27-.55.8-1 .5-.4 1.27-.67.76-.27 1.7-.27.8 0 1.56.2.78.2 1.27.48l-.3 1.5h-.1q-.1-.1-.37-.27-.25-.17-.64-.35-.34-.15-.8-.26-.43-.1-.92-.1-.98 0-1.6.4-.6.4-.6 1.12 0 .4.3.66t.9.4q.4.1.8.18.43.08.82.18.9.22 1.36.7.46.48.46 1.2 0 .6-.3 1.17-.27.58-.8 1-.57.44-1.35.7-.8.24-1.8.24z"/><path d="M145.62 161.23q0 1.3-.4 2.44t-1.07 1.94q-.67.83-1.56 1.3-.9.47-1.9.47-.7 0-1.3-.16-.6-.15-1.08-.45l-.84 3.67H136l2.77-11.95h1.47l-.2.92q.7-.52 1.42-.84.7-.33 1.55-.33 1.28 0 1.95.8.67.78.67 2.2zm-1.54.28q0-.92-.4-1.42-.4-.5-1.3-.5-.65 0-1.35.3-.7.33-1.3.74l-1.13 4.95q.5.27.97.4t1.1.13q.82 0 1.46-.4.65-.38 1.07-1 .44-.66.66-1.46.22-.8.22-1.73z"/><path d="M151.02 155.04l-2.8 12.16h-1.48l2.8-12.16h1.48z"/><path d="M158.2 161.88q.04-.23.05-.38t.02-.35q0-.83-.46-1.3-.44-.47-1.45-.47-1.1 0-1.97.7-.86.67-1.16 1.8h4.98zm-2.94 5.52q-1.8 0-2.84-.86-1.03-.85-1.03-2.5 0-2.4 1.5-4.1 1.52-1.72 3.75-1.72 1.5 0 2.28.75.8.73.8 2.07 0 .23-.08.74-.07.5-.22 1.18H153q-.04.22-.07.44 0 .22 0 .4 0 1.1.66 1.74.66.63 1.9.63.86 0 1.76-.34.92-.33 1.53-.75h.08l-.32 1.58q-.4.14-.7.26-.32.12-.8.23-.5.12-.86.18t-.94.07z"/><path d="M167.05 162.6q-1.2.04-2.14.18-.92.13-1.53.4-.63.25-.96.7-.32.43-.32 1.1 0 .55.38.84.4.3 1.2.3.7 0 1.44-.3.74-.33 1.38-.78l.57-2.45zm-.85 3.66q-.2.13-.58.36-.36.23-.73.4-.4.17-.9.3-.5.1-1.14.1-1.04 0-1.68-.6-.65-.6-.65-1.57 0-1.04.45-1.75.46-.72 1.36-1.18.88-.44 2.12-.64 1.25-.2 2.85-.25.05-.2.1-.37.02-.17.02-.34 0-.37-.15-.6-.15-.24-.42-.38-.28-.14-.64-.2-.35-.04-.8-.04-.65 0-1.5.22-.86.2-1.4.42h-.07l.3-1.47q.44-.12 1.3-.27.86-.15 1.65-.15 1.62 0 2.43.5.83.52.83 1.62 0 .2-.04.45-.05.24-.1.45l-1.36 5.92h-1.46l.22-.94z"/><path d="M173.02 167.4q-.98 0-1.75-.23-.77-.24-1.28-.53l.32-1.57h.08q.16.14.42.34t.67.4q.36.16.82.3.48.12 1.02.12 1.1 0 1.73-.4t.62-1.2q0-.4-.33-.63-.32-.24-.92-.38-.3-.07-.73-.16-.43-.08-.86-.2-.92-.26-1.36-.74-.44-.5-.44-1.2 0-.6.26-1.13.27-.55.8-1 .5-.4 1.27-.67.76-.27 1.7-.27.8 0 1.56.2.78.2 1.27.48l-.3 1.5h-.1q-.1-.1-.37-.27-.25-.17-.64-.35-.34-.15-.8-.26-.43-.1-.92-.1-.98 0-1.6.4-.6.4-.6 1.12 0 .4.3.66t.9.4q.4.1.8.18.43.08.82.18.9.22 1.36.7.46.48.46 1.2 0 .6-.3 1.17-.27.58-.8 1-.57.44-1.35.7-.8.24-1.8.24z"/><path d="M185.02 162.6q-1.2.04-2.14.18-.93.13-1.54.4-.63.25-.96.7-.33.43-.33 1.1 0 .55.38.84.4.3 1.2.3.7 0 1.44-.3.74-.33 1.38-.78l.57-2.45zm-.85 3.66q-.2.13-.58.36-.37.23-.74.4-.4.17-.9.3-.5.1-1.13.1-1.04 0-1.68-.6-.65-.6-.65-1.57 0-1.04.45-1.75.46-.72 1.36-1.17.9-.44 2.13-.64 1.25-.2 2.85-.26.04-.22.07-.38.04-.16.04-.33 0-.38-.16-.6-.15-.24-.42-.4-.28-.13-.65-.17-.35-.06-.8-.06-.66 0-1.5.22-.86.2-1.4.42h-.07l.3-1.47q.44-.1 1.3-.26.85-.14 1.64-.14 1.63 0 2.44.5.8.52.8 1.62 0 .2-.03.45-.03.23-.07.45l-1.37 5.92h-1.45l.22-.93z"/><path d="M197 160.46q0 .2-.04.5-.03.33-.1.57l-1.3 5.66h-1.47l1.13-4.97q.1-.42.14-.72.06-.3.06-.6 0-.67-.33-1-.32-.33-1.16-.33-.6 0-1.32.33-.7.33-1.4.78l-1.5 6.5h-1.46l2-8.7h1.48l-.22.96q.83-.6 1.56-.9.73-.3 1.5-.3 1.15 0 1.78.56.64.57.64 1.65z"/><path d="M204.93 158.47l-.27 1.2h-3.03l-.93 4q-.08.32-.14.7-.07.4-.07.64 0 .58.28.86.3.27 1.07.27.32 0 .76-.1.46-.1.6-.18h.1l-.28 1.27q-.44.1-.94.18-.5.07-.88.07-1.07 0-1.67-.47-.58-.48-.58-1.5 0-.25.03-.5.04-.24.1-.56l1.08-4.68h-1l.28-1.2h1l.58-2.5h1.46l-.58 2.5h3.03z"/><path d="M209 155.04l-2.82 12.16h-1.47l2.82-12.16H209z"/><path d="M210.68 170.4h-1.62l2.54-3.72-1.58-8.22h1.5l1.25 6.5 4.17-6.5h1.6l-7.86 11.95z"/><path d="M226.92 167.4q-.98 0-1.75-.23-.77-.24-1.28-.53l.32-1.57h.08q.16.14.42.34t.67.4q.36.16.82.3.48.12 1.02.12 1.1 0 1.73-.4t.62-1.2q0-.4-.33-.63-.32-.24-.92-.38-.3-.07-.73-.16-.43-.08-.86-.2-.92-.26-1.36-.74-.43-.5-.43-1.2 0-.6.26-1.14.27-.53.8-.97.5-.4 1.26-.67.77-.27 1.7-.27.8 0 1.57.2.78.2 1.27.48l-.3 1.5h-.1q-.1-.1-.37-.27-.25-.17-.64-.35-.34-.15-.8-.26-.44-.1-.92-.1-.97 0-1.58.4-.6.4-.6 1.12 0 .4.3.66.3.25.9.4.38.1.8.18.42.08.8.17.9.22 1.37.7.45.47.45 1.2 0 .6-.3 1.17-.27.57-.8 1-.57.44-1.36.7-.8.24-1.78.24z"/><path d="M241.8 158.47l-2.03 8.73h-1.46l.23-.97q-.83.57-1.56.9-.72.3-1.52.3-1.13 0-1.76-.55-.64-.57-.64-1.66 0-.27.03-.52t.1-.57l1.3-5.66h1.46l-1.15 4.97q-.06.3-.12.7-.06.38-.06.6 0 .68.33 1.02.35.34 1.17.34.58 0 1.32-.34.75-.34 1.38-.77l1.5-6.53h1.47z"/><path d="M249.7 160.02h-.07q-.3-.08-.58-.1-.27-.05-.65-.05-.74 0-1.46.34t-1.4.8l-1.4 6.2h-1.48l2-8.73h1.48l-.3 1.3q1.04-.73 1.76-1.02.73-.28 1.4-.28.37 0 .55.03.17 0 .5.07l-.34 1.45z"/><path d="M258.38 161.23q0 1.3-.4 2.44t-1.07 1.94q-.66.83-1.55 1.3-.9.47-1.9.47-.7 0-1.3-.16-.58-.15-1.07-.45l-.84 3.67h-1.47l2.76-11.95H253l-.2.92q.7-.52 1.42-.84.7-.33 1.55-.33 1.27 0 1.94.8.68.78.68 2.2zm-1.54.28q0-.92-.4-1.42-.4-.5-1.3-.5-.65 0-1.35.3-.7.33-1.3.74l-1.14 4.95q.5.27.97.4t1.1.13q.82 0 1.46-.4.64-.38 1.06-1 .44-.66.66-1.46.22-.8.22-1.73z"/><path d="M266.52 160.02h-.08q-.3-.08-.58-.1-.27-.05-.65-.05-.73 0-1.45.34t-1.4.8l-1.4 6.2h-1.48l2-8.73h1.48l-.3 1.3q1.04-.73 1.76-1.02.74-.28 1.4-.28.38 0 .56.03.17 0 .5.07l-.34 1.45z"/><path d="M270.6 155.48l-.35 1.52h-1.66l.34-1.52h1.66zm-.78 2.98l-2.02 8.73h-1.47l2.02-8.74h1.47z"/><path d="M273.45 167.4q-.98 0-1.75-.23-.77-.24-1.28-.53l.33-1.57h.08q.16.14.42.34t.67.4q.37.16.83.3.48.12 1.02.12 1.1 0 1.73-.4t.62-1.2q0-.4-.32-.63-.32-.24-.92-.38-.3-.07-.73-.16-.43-.08-.86-.2-.92-.26-1.36-.74-.44-.5-.44-1.2 0-.6.26-1.14.27-.53.8-.98.5-.42 1.26-.68.78-.26 1.72-.26.78 0 1.56.2t1.27.48l-.3 1.5h-.1q-.1-.1-.37-.27-.25-.18-.64-.36-.34-.13-.8-.24-.44-.1-.92-.1-.98 0-1.6.4-.6.4-.6 1.12 0 .4.3.65.3.26.9.4.4.1.8.2.42.07.82.16.9.22 1.35.7.48.47.48 1.2 0 .6-.3 1.17-.27.57-.8 1-.57.44-1.36.7-.8.24-1.77.24z"/><path d="M286.13 161.88q.04-.23.05-.38t.02-.35q0-.83-.46-1.3-.45-.47-1.46-.47-1.1 0-1.97.7-.85.67-1.15 1.8h4.98zm-2.94 5.52q-1.82 0-2.85-.86-1.03-.85-1.03-2.5 0-2.4 1.5-4.1 1.53-1.72 3.76-1.72 1.5 0 2.28.75.8.73.8 2.07 0 .23-.08.74-.07.5-.22 1.18h-6.43q-.04.22-.07.44 0 .22 0 .4 0 1.1.66 1.74.67.63 1.9.63.87 0 1.77-.34.9-.33 1.52-.75h.1l-.33 1.58q-.4.14-.7.26-.33.12-.8.23-.5.12-.87.18t-.94.07z"/><path d="M298.5 155.04l-2.82 12.16h-1.47l.22-.92q-1 .68-1.6.92-.6.24-1.3.24-1.25 0-1.98-.78-.7-.78-.7-2.28 0-1.25.38-2.37.4-1.12 1.06-1.96.66-.84 1.57-1.32.9-.5 1.92-.5.7 0 1.28.16.6.14 1.1.44l.87-3.78h1.47zm-2.63 5q-.53-.27-1.04-.4-.5-.13-1.07-.13-.8 0-1.45.4-.62.4-1.08 1.07-.4.62-.64 1.48-.2.87-.2 1.68 0 .96.4 1.46t1.33.5q.66 0 1.34-.33.7-.33 1.27-.72l1.16-5z"/><path d="M317.08 158.47l-4.05 8.73h-1.38l-.87-6.75-3.6 6.75h-1.37l-.53-8.73h1.5l.22 6.75 3.56-6.75h1.22l.85 6.75 2.9-6.75h1.55z"/><path d="M321.57 155.48l-.35 1.52h-1.66l.35-1.52h1.67zm-.78 2.98l-2.03 8.73h-1.47l2.02-8.74h1.47z"/><path d="M328.24 158.47l-.27 1.2h-3.03l-.93 4q-.07.32-.13.7-.07.4-.07.64 0 .58.3.86.28.27 1.06.27.32 0 .76-.1.45-.1.6-.18h.08l-.27 1.27q-.44.1-.94.18-.5.07-.9.07-1.06 0-1.66-.47-.58-.48-.58-1.5 0-.25.03-.5.03-.24.1-.56l1.07-4.68h-1l.28-1.2h1l.58-2.5h1.46l-.6 2.5h3.04z"/><path d="M336.75 160.46q0 .2-.04.5-.02.33-.08.57l-1.32 5.66h-1.46l1.14-4.97q.1-.42.14-.72.06-.3.06-.6 0-.67-.33-1-.32-.33-1.16-.33-.6 0-1.33.33-.7.33-1.4.78l-1.5 6.5h-1.46l2.8-12.14h1.48l-1 4.4q.82-.6 1.55-.9.73-.3 1.5-.3 1.15 0 1.78.56.65.57.65 1.66z"/><path d="M7.65 183.47l-.27 1.2H4.35l-.94 4q-.06.32-.13.7-.06.4-.06.64 0 .58.3.86.3.27 1.07.27.32 0 .76-.1t.6-.18H6l-.27 1.27q-.43.1-.93.18-.5.07-.88.07-1.08 0-1.67-.47-.6-.48-.6-1.5 0-.25.05-.5.03-.24.1-.56l1.08-4.68h-1l.28-1.2h1l.57-2.5H5.2l-.58 2.5h3.03z"/><path d="M16.16 185.46q0 .2-.04.5-.03.33-.1.57l-1.3 5.66h-1.48l1.15-4.97q.08-.42.13-.72.06-.3.06-.6 0-.67-.34-1-.32-.33-1.17-.33-.6 0-1.32.33-.7.33-1.4.78l-1.5 6.5H7.4l2.82-12.14h1.47l-1.03 4.4q.84-.6 1.56-.9.74-.3 1.5-.3 1.15 0 1.8.56.63.57.63 1.66z"/><path d="M24.6 186.88q.04-.23.06-.38t0-.35q0-.83-.45-1.3-.44-.47-1.45-.47-1.1 0-1.97.7-.86.67-1.16 1.8h4.98zm-2.94 5.52q-1.8 0-2.84-.86-1.03-.85-1.03-2.5 0-2.4 1.5-4.1 1.52-1.72 3.76-1.72 1.48 0 2.27.75.8.73.8 2.07 0 .23-.08.74-.07.5-.2 1.18H19.4q-.04.22-.06.44-.02.22-.02.4 0 1.1.67 1.74.66.63 1.9.63.86 0 1.76-.34.92-.33 1.54-.75h.08l-.32 1.58q-.4.14-.7.26-.3.12-.8.23t-.86.18-.94.07z"/><path d="M39.1 187.6q-1.22.04-2.15.18-.93.13-1.54.4-.63.25-.95.7-.33.43-.33 1.1 0 .55.38.84.38.3 1.2.3.7 0 1.43-.3.75-.33 1.4-.78l.56-2.45zm-.87 3.66q-.2.13-.57.36-.36.23-.74.4-.4.17-.9.3-.48.1-1.12.1-1.04 0-1.7-.6-.64-.6-.64-1.57 0-1.04.46-1.75.46-.72 1.35-1.17.9-.44 2.13-.64 1.25-.2 2.84-.26.05-.22.08-.38t.03-.33q0-.38-.15-.6-.14-.24-.42-.4-.27-.13-.64-.17-.36-.06-.8-.06-.66 0-1.5.22-.86.2-1.4.42h-.07l.3-1.47q.43-.1 1.3-.26.85-.14 1.64-.14 1.64 0 2.45.5.8.52.8 1.62 0 .2-.03.45-.03.23-.08.45l-1.36 5.92h-1.46l.2-.93z"/><path d="M49.42 181.4h-.08q-.22-.07-.6-.14-.37-.07-.67-.07-.96 0-1.44.48t-.72 1.5l-.06.3h2.64l-.28 1.16h-2.6l-1.7 7.56h-1.5l1.72-7.56h-1l.3-1.17h.98l.06-.3q.32-1.52 1.25-2.36.95-.84 2.42-.84.5 0 .9.05.4.06.7.12l-.3 1.3z"/><path d="M55.05 181.4h-.08q-.23-.07-.6-.14-.38-.07-.67-.07-.97 0-1.45.48t-.72 1.5l-.07.3h2.65l-.27 1.16h-2.6l-1.7 7.56h-1.5l1.7-7.56h-.98l.28-1.17h1l.06-.3q.3-1.52 1.24-2.36.93-.84 2.4-.84.5 0 .9.05.4.06.7.12l-.3 1.3z"/><path d="M62.15 186.55q0 1.17-.36 2.25t-1.03 1.88q-.68.82-1.57 1.3-.9.45-2.08.45-1.55 0-2.43-.88-.87-.9-.87-2.45 0-1.17.35-2.24.36-1.06 1.03-1.9.66-.78 1.6-1.26.94-.48 2.06-.48 1.5 0 2.4.86.9.86.9 2.47zm-2.4 3.3q.43-.63.65-1.45.22-.82.22-1.73 0-1.1-.52-1.66-.52-.55-1.48-.55-.75 0-1.35.37-.6.36-1.04 1-.43.6-.65 1.43-.23.83-.23 1.72 0 1.08.52 1.66.53.58 1.5.58.74 0 1.35-.35.6-.36 1.04-1z"/><path d="M70.34 185.02h-.08q-.3-.08-.6-.1-.25-.05-.64-.05-.73 0-1.46.34-.72.34-1.38.8l-1.4 6.2h-1.5l2-8.73h1.5l-.3 1.3q1.03-.73 1.75-1.02.72-.28 1.4-.28.37 0 .54.03.17 0 .5.07l-.33 1.45z"/><path d="M80.02 180.04l-2.8 12.16h-1.48l.2-.92q-.98.68-1.6.92-.6.24-1.3.24-1.24 0-1.96-.78t-.72-2.28q0-1.25.4-2.37.38-1.12 1.05-1.96.68-.84 1.58-1.32.9-.5 1.92-.5.7 0 1.3.16.57.14 1.08.44l.87-3.78h1.47zm-2.62 5q-.53-.27-1.03-.4t-1.07-.13q-.82 0-1.46.4-.63.4-1.08 1.07-.42.62-.64 1.48-.22.87-.22 1.68 0 .96.4 1.46.42.5 1.34.5.66 0 1.34-.33t1.26-.72l1.16-5z"/><path d="M86.5 187.6q-1.2.04-2.15.18-.93.13-1.54.4-.62.25-.95.7-.33.43-.33 1.1 0 .55.4.84.37.3 1.17.3.7 0 1.44-.3.74-.33 1.38-.78l.57-2.45zm-.86 3.66q-.2.13-.58.36-.36.23-.73.4-.4.17-.9.3-.48.1-1.13.1-1.03 0-1.68-.6-.65-.6-.65-1.57 0-1.04.45-1.75.46-.72 1.36-1.18.88-.44 2.13-.64 1.26-.2 2.85-.25.05-.2.08-.37.03-.17.03-.34 0-.37-.15-.6-.14-.24-.4-.38-.28-.14-.65-.2-.36-.04-.8-.04-.66 0-1.5.22-.87.2-1.4.42h-.08l.3-1.47q.44-.12 1.3-.27.86-.15 1.65-.15 1.62 0 2.43.5.82.52.82 1.62 0 .2-.04.45-.03.24-.08.45l-1.37 5.92h-1.46l.22-.94z"/><path d="M98.6 186.23q0 1.27-.4 2.43-.4 1.16-1.07 1.98-.7.86-1.55 1.33-.86.47-1.9.47-.7 0-1.3-.2-.6-.17-1.08-.47l-.2.43h-1.37l2.8-12.16H94l-1 4.35q.73-.52 1.42-.84.7-.33 1.55-.33 1.27 0 1.94.8.7.78.7 2.2zm-2.42 3.5q.44-.67.66-1.48.2-.82.2-1.74t-.4-1.42q-.4-.5-1.3-.5-.64 0-1.33.3-.7.33-1.3.74l-1.14 5q.5.26.97.4.48.16 1.13.16.82 0 1.46-.4t1.06-1.04z"/><path d="M104 180.04l-2.82 12.16H99.7l2.82-12.16H104z"/><path d="M111.16 186.88q.04-.23.05-.38t.03-.35q0-.83-.46-1.3-.45-.47-1.46-.47-1.1 0-1.96.7-.86.67-1.16 1.8h4.98zm-2.94 5.52q-1.8 0-2.84-.86-1.03-.85-1.03-2.5 0-2.4 1.5-4.1 1.53-1.72 3.76-1.72 1.5 0 2.3.75.78.73.78 2.07 0 .23-.07.74-.06.5-.2 1.18h-6.44q-.04.22-.07.44-.02.22-.02.4 0 1.1.67 1.74.67.63 1.9.63.87 0 1.77-.34.92-.33 1.53-.75h.1l-.33 1.58q-.4.14-.7.26-.32.12-.8.23-.5.12-.86.18t-.94.07z"/><path d="M128.12 186.23q0 1.3-.4 2.44t-1.07 1.94q-.67.83-1.56 1.3-.9.47-1.9.47-.7 0-1.3-.16-.6-.15-1.08-.45l-.84 3.67h-1.47l2.77-11.95h1.47l-.2.92q.7-.52 1.42-.84.7-.33 1.55-.33 1.28 0 1.95.8.67.78.67 2.2zm-1.54.28q0-.92-.4-1.42-.4-.5-1.3-.5-.65 0-1.35.3-.7.33-1.3.74l-1.13 4.95q.5.27.97.4.46.13 1.1.13.82 0 1.46-.4.65-.38 1.07-1 .44-.66.66-1.46.22-.8.22-1.73z"/><path d="M136.27 185.02h-.08q-.32-.08-.6-.1-.26-.05-.64-.05-.74 0-1.46.34t-1.4.8l-1.4 6.2h-1.48l2-8.73h1.48l-.3 1.3q1.04-.73 1.76-1.02.73-.28 1.4-.28.37 0 .55.03.18 0 .5.07l-.33 1.45z"/><path d="M140.35 180.48L140 182h-1.66l.36-1.5h1.65zm-.78 2.98l-2.02 8.73h-1.47l2.02-8.74h1.47z"/><path d="M144.26 192.4q-.83 0-1.47-.2t-1.12-.62q-.46-.4-.7-1.03-.26-.6-.26-1.43 0-1.23.38-2.3t1.1-1.86q.67-.78 1.67-1.23 1-.47 2.16-.47.76 0 1.43.22.68.2 1.2.5l-.32 1.58h-.1q-.14-.14-.38-.33-.23-.18-.55-.35-.3-.17-.7-.28-.4-.12-.9-.12-1.5 0-2.47 1.28-.95 1.3-.95 3.12 0 1.1.56 1.7.57.6 1.62.6.5 0 .98-.15.5-.14.84-.3.38-.18.7-.4.33-.2.48-.3h.1l-.32 1.6q-.68.3-1.44.54-.76.22-1.54.22z"/><path d="M155.88 186.88q.04-.23.05-.38t.02-.35q0-.83-.46-1.3-.46-.47-1.47-.47-1.1 0-1.97.7-.86.67-1.16 1.8h4.98zm-2.94 5.52q-1.8 0-2.84-.86-1.03-.85-1.03-2.5 0-2.4 1.5-4.1 1.53-1.72 3.76-1.72 1.5 0 2.28.75.8.73.8 2.07 0 .23-.07.74-.07.5-.22 1.18h-6.42q-.04.22-.07.44 0 .22 0 .4 0 1.1.67 1.74.67.63 1.9.63.87 0 1.77-.34.92-.33 1.53-.75h.1l-.33 1.58q-.4.14-.7.26-.32.12-.8.23-.5.12-.86.18t-.94.07z"/><path d="M160.76 192.2h-1.88l.5-2.23h1.9l-.52 2.23z"/><path d="M180.6 181.88h-4.16l-2.38 10.3h-1.56l2.38-10.3h-4.15l.3-1.32h9.86l-.3 1.32z"/><path d="M188.4 185.46q0 .2-.03.5-.03.33-.1.57l-1.3 5.66h-1.47l1.14-4.97q.1-.42.14-.72.06-.3.06-.6 0-.67-.33-1-.3-.33-1.15-.33-.6 0-1.32.33-.7.33-1.4.78l-1.5 6.5h-1.46l2.8-12.14h1.47l-1 4.4q.82-.6 1.55-.9.72-.3 1.5-.3 1.14 0 1.77.56.64.57.64 1.66z"/><path d="M196.85 186.88q.04-.23.05-.38t.02-.35q0-.83-.46-1.3-.45-.47-1.46-.47-1.1 0-1.97.7-.86.67-1.16 1.8h4.98zm-2.94 5.52q-1.8 0-2.83-.86-1.03-.85-1.03-2.5 0-2.4 1.5-4.1 1.53-1.72 3.76-1.72 1.5 0 2.28.75.8.73.8 2.07 0 .23-.08.74-.07.5-.22 1.18h-6.43q-.04.22-.07.44 0 .22 0 .4 0 1.1.66 1.74.67.63 1.9.63.87 0 1.77-.34.93-.33 1.54-.75h.1l-.33 1.58q-.38.14-.7.26-.3.12-.8.23-.48.12-.85.18t-.94.07z"/><path d="M206.37 185.02h-.08q-.32-.08-.6-.1-.26-.05-.64-.05-.74 0-1.46.34t-1.4.8l-1.4 6.2h-1.48l2-8.73h1.48l-.3 1.3q1.04-.73 1.76-1.02.73-.28 1.4-.28.37 0 .55.03.18 0 .5.07l-.33 1.45z"/><path d="M213.23 186.88q.04-.23.05-.38t.02-.35q0-.83-.46-1.3-.45-.47-1.46-.47-1.1 0-1.97.7-.85.67-1.15 1.8h4.98zm-2.94 5.52q-1.82 0-2.85-.86-1.03-.85-1.03-2.5 0-2.4 1.5-4.1 1.53-1.72 3.76-1.72 1.5 0 2.28.75.8.73.8 2.07 0 .23-.08.74-.07.5-.22 1.18h-6.43q-.04.22-.07.44 0 .22 0 .4 0 1.1.66 1.74.67.63 1.9.63.87 0 1.77-.34.9-.33 1.52-.75h.1l-.33 1.58q-.4.14-.7.26-.33.12-.8.23-.5.12-.87.18t-.94.07z"/><path d="M227.7 187.6q-1.2.04-2.13.18-.93.13-1.54.4-.63.25-.96.7-.33.43-.33 1.1 0 .55.38.84.4.3 1.2.3.7 0 1.44-.3.74-.33 1.38-.78l.57-2.45zm-.84 3.66q-.2.13-.58.36-.36.23-.73.4-.4.17-.9.3-.5.1-1.13.1-1.04 0-1.68-.6-.65-.6-.65-1.57 0-1.04.44-1.75.46-.72 1.36-1.18.88-.44 2.12-.64 1.25-.2 2.85-.25.04-.2.08-.37.03-.17.03-.34 0-.37-.15-.6-.15-.24-.42-.38t-.63-.2q-.36-.04-.8-.04-.66 0-1.52.22-.85.2-1.38.42h-.08l.28-1.47q.45-.12 1.3-.27.87-.15 1.66-.15 1.62 0 2.43.5.82.52.82 1.62 0 .2-.05.45-.04.24-.08.45l-1.37 5.92h-1.46l.22-.94z"/><path d="M238 185.02h-.1q-.3-.08-.57-.1-.27-.05-.65-.05-.74 0-1.46.34-.7.33-1.37.8l-1.4 6.2h-1.5l2-8.73h1.48l-.3 1.3q1.04-.74 1.76-1.02t1.38-.28q.4 0 .56.02.17 0 .5.06L238 185z"/><path d="M244.85 186.88q.04-.23.05-.38t.02-.35q0-.83-.46-1.3-.45-.47-1.46-.47-1.1 0-1.97.7-.86.67-1.16 1.8h4.98zm-2.94 5.52q-1.8 0-2.83-.86-1.03-.85-1.03-2.5 0-2.4 1.5-4.1 1.53-1.72 3.76-1.72 1.5 0 2.28.75.8.73.8 2.07 0 .23-.08.74-.07.5-.22 1.18h-6.43q-.04.22-.07.44 0 .22 0 .4 0 1.1.66 1.74.67.63 1.9.63.87 0 1.77-.34.93-.33 1.54-.75h.1l-.33 1.58q-.38.14-.7.26-.3.12-.8.23-.48.12-.85.18t-.94.07z"/><path d="M261.7 185.46q0 .2-.05.5-.03.33-.1.57l-1.3 5.66h-1.47l1.14-4.97q.1-.42.14-.72.06-.3.06-.6 0-.67-.33-1-.33-.33-1.17-.33-.6 0-1.32.33-.7.33-1.38.78l-1.5 6.5h-1.47l2-8.7h1.48l-.22.96q.84-.6 1.57-.9.73-.3 1.5-.3 1.15 0 1.78.56.64.57.64 1.66z"/><path d="M271.65 186.55q0 1.17-.36 2.25-.37 1.08-1.02 1.88-.68.82-1.58 1.3-.9.45-2.07.45-1.56 0-2.43-.88-.87-.9-.87-2.45 0-1.17.35-2.24.36-1.06 1.03-1.9.66-.78 1.6-1.26.94-.48 2.06-.48 1.5 0 2.4.86.9.86.9 2.47zm-2.4 3.3q.43-.63.65-1.45.23-.82.23-1.73 0-1.1-.53-1.66-.52-.55-1.47-.55-.76 0-1.36.37-.6.36-1.04 1-.42.6-.65 1.43-.23.83-.23 1.72 0 1.08.53 1.66.52.58 1.48.58.75 0 1.36-.35.6-.36 1.04-1z"/><path d="M4.88 217.4q-.83 0-1.47-.2-.62-.2-1.1-.62-.46-.4-.7-1.03-.26-.6-.26-1.43 0-1.23.4-2.3t1.07-1.86q.7-.78 1.7-1.23 1-.46 2.15-.46.76 0 1.44.2.67.22 1.18.5l-.32 1.6h-.1q-.14-.15-.38-.34-.23-.18-.55-.35t-.7-.28q-.4-.1-.9-.1-1.52 0-2.48 1.27-.95 1.28-.95 3.1 0 1.12.56 1.7.57.6 1.62.6.5 0 .98-.14.5-.14.84-.3.38-.18.7-.4.34-.2.5-.3h.07l-.3 1.6q-.7.32-1.45.54-.76.22-1.54.22z"/><path d="M18.02 211.55q0 1.17-.36 2.25t-1 1.88q-.7.82-1.58 1.3-.9.46-2.08.46-1.55 0-2.43-.88-.87-.9-.87-2.45 0-1.17.35-2.23.36-1.06 1.04-1.9.63-.8 1.57-1.26.95-.47 2.06-.47 1.5 0 2.4.86.9.85.9 2.46zm-2.4 3.3q.43-.63.65-1.45.23-.8.23-1.73 0-1.1-.52-1.65-.53-.57-1.48-.57-.76 0-1.36.37-.6.36-1.04 1-.42.6-.65 1.44-.22.83-.22 1.72 0 1.07.52 1.65.52.58 1.48.58.75 0 1.36-.35.6-.36 1.03-1z"/><path d="M33.35 210.4q0 .26-.04.55-.02.3-.1.58l-1.3 5.67h-1.47l1.15-4.97q.1-.42.15-.77.06-.35.06-.65 0-.6-.3-.9-.3-.33-1.14-.33-.62 0-1.3.35-.7.34-1.37.8-.03.2-.07.45-.03.25-.07.44l-1.3 5.6H24.8l1.15-4.97q.1-.5.16-.8.07-.3.07-.62 0-.7-.4-.96-.38-.27-1.04-.27-.47 0-1.05.24-.58.25-1.54.88l-1.5 6.52h-1.48l2.02-8.73h1.47l-.23.97q.82-.57 1.52-.9.7-.3 1.47-.3.9 0 1.44.36.56.38.74 1.04 1.03-.75 1.85-1.08.82-.33 1.62-.33 1.15 0 1.72.57.58.57.58 1.6z"/><path d="M43.6 211.23q0 1.3-.4 2.44t-1.07 1.94q-.68.83-1.57 1.3-.9.47-1.9.47-.7 0-1.3-.16-.58-.15-1.06-.45l-.85 3.67h-1.47l2.76-11.95h1.47l-.2.9q.73-.5 1.43-.83.7-.32 1.55-.32 1.28 0 1.94.8.67.77.67 2.2zm-1.55.28q0-.92-.4-1.42-.4-.5-1.3-.5-.65 0-1.34.3-.7.33-1.3.74l-1.13 4.95q.5.27.97.4t1.12.13q.8 0 1.44-.4.65-.38 1.07-1 .45-.66.67-1.46.2-.8.2-1.73z"/><path d="M49 205.04l-2.82 12.16H44.7l2.82-12.16H49z"/><path d="M55.5 212.6q-1.2.04-2.15.18-.93.13-1.54.4-.62.25-.95.7-.33.43-.33 1.1 0 .55.4.84.37.3 1.17.3.7 0 1.44-.3.74-.33 1.38-.78l.57-2.45zm-.86 3.66q-.2.13-.58.36-.36.23-.73.4-.4.17-.9.3-.48.1-1.13.1-1.03 0-1.68-.6-.65-.6-.65-1.57 0-1.04.45-1.75.46-.72 1.36-1.18.88-.44 2.13-.64 1.26-.2 2.85-.25.05-.2.08-.37.03-.17.03-.34 0-.37-.15-.6-.14-.24-.4-.38-.28-.14-.65-.2-.36-.04-.8-.04-.66 0-1.5.22-.87.2-1.4.42h-.08l.3-1.47q.44-.12 1.3-.27.86-.15 1.65-.15 1.62 0 2.43.5.82.52.82 1.62 0 .2-.04.45-.03.24-.08.45l-1.37 5.92h-1.46l.22-.94z"/><path d="M63 205.48l-.34 1.52H61l.35-1.52H63zm-.77 2.98l-2.02 8.73h-1.46l2.02-8.74h1.47z"/><path d="M71.88 210.46q0 .2-.04.5-.04.33-.1.57l-1.3 5.66h-1.48l1.15-4.97q.1-.42.15-.72.05-.3.05-.6 0-.67-.32-1-.32-.33-1.17-.33-.58 0-1.3.33-.7.33-1.4.78l-1.5 6.5h-1.47l2.02-8.7h1.47l-.23.96q.83-.6 1.55-.9.74-.3 1.5-.3 1.15 0 1.78.56.64.57.64 1.66z"/><path d="M79.8 208.47l-.26 1.2H76.5l-.93 4q-.08.32-.14.7-.06.4-.06.64 0 .58.3.86.28.27 1.06.27.32 0 .75-.1.45-.1.6-.18h.08l-.27 1.27q-.45.1-.95.18-.5.07-.87.07-1.08 0-1.67-.47-.58-.48-.58-1.5 0-.25.03-.5.04-.24.1-.56l1.1-4.68h-1l.26-1.2h1l.6-2.5h1.46l-.6 2.5h3.04z"/><path d="M82.3 217.4q-.98 0-1.75-.23-.77-.24-1.28-.53l.32-1.57h.07q.17.14.42.34.26.2.67.4.36.16.83.3.48.12 1.02.12 1.1 0 1.72-.4t.63-1.2q0-.4-.32-.63-.32-.24-.92-.38-.3-.07-.74-.16-.43-.08-.87-.2-.9-.26-1.35-.74-.44-.5-.44-1.2 0-.6.27-1.13.27-.55.8-1 .5-.4 1.27-.67.78-.27 1.72-.27.77 0 1.55.2t1.27.48l-.3 1.5h-.1q-.12-.1-.37-.27t-.65-.35q-.33-.15-.78-.26-.45-.1-.93-.1-1 0-1.6.4-.6.4-.6 1.12 0 .4.3.66.28.26.9.4.38.1.8.18.4.08.8.18.9.22 1.36.7.46.48.46 1.2 0 .6-.3 1.17-.27.58-.8 1-.56.44-1.35.7-.8.24-1.77.24z"/><path d="M93.18 205.56L91.03 214H89.7l1.73-8.44h1.75zM90.4 217.2h-1.58l.38-1.66h1.6l-.4 1.65z"/></g></svg>