<?xml version="1.0" encoding="utf-8"?>
<!-- Generator: Adobe Illustrator 16.0.4, SVG Export Plug-In . SVG Version: 6.00 Build 0)  -->
<!DOCTYPE svg PUBLIC "-//W3C//DTD SVG 1.1//EN" "http://www.w3.org/Graphics/SVG/1.1/DTD/svg11.dtd">
<svg version="1.1" id="Layer_1" xmlns="http://www.w3.org/2000/svg" xmlns:xlink="http://www.w3.org/1999/xlink" x="0px" y="0px"
	 width="2800px" height="1200px" viewBox="0 0 2800 1200" style="enable-background:new 0 0 2800 1200;" xml:space="preserve">
<rect y="-1.4" style="fill:#2291DB;" width="2800" height="1200.9"/>
<g>
	<path style="fill:#1C1C1C;" d="M342.7,338.2c0,0-29.9-7.3-29.9-38.5c0-41.7,61.6-64.6,112.2-64.6c38.5,0,40.6,4.8,72.1,4.8
		c54.4,0,74.5-10,74.5-10s-49.8,33.6-107.9,113.3C405.6,423,356.1,499.4,320.3,542.8c-35.8,43.3-55.2,51.4-55.2,51.4l4.8,3
		c0,0,46.2,13.1,159-142.9C502.3,353,536.7,304.6,569.3,267.7s59.7-59.2,73.2-68.6l-3.5-7.3c0,0-29.3,7-61.6,7s-66.2-8.3-112.2-8.3
		c-46,0-147.8,5.5-166.8,99.3C294,311.1,304.5,341.5,342.7,338.2z"/>
	<path style="fill:#1C1C1C;" d="M797.2,398.2c0,0-56.8,44.7-86.4,44.7c-22.9,0-31.2-17.5-31.2-17.5s19.3,2,31.5-1.1
		C735.6,418.2,787,398,787,360c0-30.4-23.7-29.1-38.2-29.1s-91.8,18.3-110.9,90.4c0,0-7.5,9.7-22.1,9.7c-7.3,0-12.9-2.6-12.9-9.7
		c0-22.6,48.4-44.7,48.4-77.8c0-10.8-10.8-16.1-26.1-16.1c-21.8,0-49.5,14.5-49.5,14.5s38.8-51.9,84-100.4
		c45.2-48.4,85.3-78.6,91.2-82.1l-4.8-4.3c0,0-65.1,19.6-156.9,124.1c-91.8,104.4-128.2,186.1-128.2,186.1l48.4,2
		c0,0,28.7-62.4,42.7-81.8c14-19.4,40.5-28.3,47.1-28.3c2.7,0,3.6,2.3,3.2,5.4c-1.1,10-50.9,45.7-50.9,80.7
		c0,22.1,24.2,23.9,29.6,23.9c18.8,0,56-22.1,56-22.1s2.4,27.7,47.4,27.7c44.9,0,90.1-35.5,115.7-72.4L797.2,398.2z M716.1,367.3
		c23-19.4,32.9-16.5,34.5-15.3c1.6,1.2,3,20.2-20.2,35.5c-23.2,15.3-43,16.1-43,16.1S693,386.7,716.1,367.3z"/>
	<path style="fill:#1C1C1C;" d="M584.9,696.7c0,0-4,12.9-4,23c0,10.1,8.5,26.2,30.7,26.2c22.2,0,48.4-29.5,48.4-76.3
		c0-46.8-12.5-100.1-56.9-100.1s-109.4,94.9-109.4,244.2s56.1,169.1,94,169.1c37.9,0,85.6-23.8,97.7-106.6l38.8,84.8
		c0,0-27,76.3-143.7,76.3S413.3,918.7,413.3,812.9s69.8-285.8,192.5-285.8c53.3,0,67.4,25.8,73.1,24.6c5.7-1.2,22.2-27.4,22.2-27.4
		h25.4l-10.9,276.5l-29.1,1.6l-11.3-10.1c0,0-16.1,15.3-52.5,15.3c-36.3,0-68.4-24.3-70.2-53.3C550.6,722.9,566.3,696.7,584.9,696.7
		z"/>
	<path style="fill:#1C1C1C;" d="M740.7,741.1l74.7-6.1c0,0-7.3,207.5-7.3,222.4c0,12.5,9.7,17.4,22.2,17.4
		c12.5,0,22.6-8.5,22.6-24.6c0-23.4,4.8-169.1,4.8-178.8c0-14.1-18.2-12.5-18.2-12.5l0.8-23.8l66.6-7.3c0,0-4.8,216.8-5.2,230.1
		c-0.4,13.3,22.2,17,22.2,17l2.8,26.6l-72.7,8.5l-2.8-6.1c0,0-12.5,10.1-41.6,10.1s-52.5-6.9-52.5-52.5c0-45.6,7-180.8,6.9-184.1
		c-0.4-11.3-23.4-9.7-23.4-9.7V741.1z"/>
	<path style="fill:#1C1C1C;" d="M930.8,1001.4v-27c0,0,20.2-9.3,21-23c0.8-13.7,7.3-180.4,7.3-188.9s-21-12.5-21-12.5l-2-24.6
		l71.8-10.9v10.5c0,0,24.2-15.3,44.8-15.3s31.1,9.3,31.1,9.3s22.6-25,61.4-25c35.5,0,37.9,28.7,37.9,28.7
		c0,20.6-3.6,190.9-3.6,203.4c0,12.5,20.6,13.7,20.6,13.7v28.7l-69.8,9.3c0,0,3.2-218.4,3.2-226.4c0-8.1-8.1-12.5-15.7-12.5
		c-7.7,0-19,7.7-19,15.7c0,8.1-5.7,179.2-5.7,186.5s18.2,13.7,18.2,13.7l2.8,25.8l-72.7,8.1c0,0,5.7-213.9,5.7-224.8
		s-10.1-13.3-16.1-13.3s-22.2,8.5-22.2,15.3c0,6.9-6.9,169.9-6.9,181.2c0,11.3,21,18.2,21,18.2l0.4,25.8L930.8,1001.4z"/>
	<path style="fill:#1C1C1C;" d="M1578.1,821c0,0-8.1,53.3-48.4,53.3c-58.1,0-43.6-93.6-43.6-93.6l123.8-23.7c0,0,7-125.4-92.6-125.4
		c-74.8,0-94.7,132.9-94.7,164.7c0,40.9,11.3,119.5,99.6,119.5c23.7,0,53.8-17.8,53.8-17.8l8.1,3.8l25.9-4.8l2.6-83.4L1578.1,821z
		 M1520.8,672.8c26.1,0,30.7,54.4,30.7,54.4l-62.2,11.8C1489.3,739,1494.7,672.8,1520.8,672.8z"/>
	<path style="fill:#1C1C1C;" d="M1621.2,617l72.1-16.1v8.1c0,0,16.7-14,40.9-14c16.7,0,23.1,5.9,23.1,5.9v80.2l-30.1,7.5
		c0,0-3.2-30.1-3.2-36.1s-4.8-10.8-15.1-10.8c-8.1,0-15.1,5.9-15.1,10.8c0,15.1-0.5,167.9-0.5,178.1c0,13.5,24.2,13.5,24.2,13.5
		l1.1,27.4l-92.6,17.8l-0.5-25.3c0,0,19.9-8.1,19.9-21c0-12.9,0.5-183,0.5-191.6s-22.1-5.9-22.1-5.9L1621.2,617z"/>
	<path style="fill:#1C1C1C;" d="M1762.7,361.9l72.1-14c0,0,1.1,425.7,1.1,440.2c0,24.8,29.6,22.6,29.6,22.6v28.5l-97.4,24.2
		l-1.6-31.2c0,0,16.7-4.8,17.8-26.4s1.1-389.6,1.1-403.6c0-14-22.6-12.9-22.6-12.9V361.9z"/>
	<path style="fill:#1C1C1C;" d="M2061.4,760.7c0-9.1-4.3-142.1-4.3-172.8c0-30.7-47.4-44.7-81.3-44.7s-51.1,14.5-51.1,14.5l-4.8-7.5
		l-29.1,7v85l29.1-4.3c0,0,0.5-10.2,0.5-23.7s31.2-32.3,50.1-32.3c18.8,0,34.4,11.3,34.4,18.8s2.2,65.7,2.2,65.7s-25.8-9.1-44.7-9.1
		c-71.6,0-96.9,49.5-96.9,93.6c0,31.2,14.5,75.9,70,75.9c55.4,0,72.7-20.5,72.7-20.5l2.7,10.2l78-13.5v-26.4
		C2088.9,776.9,2061.4,773.6,2061.4,760.7z M1963.2,783.3c-27.2,0-43.9-14-43.9-35.5s15.1-50.6,46.8-50.6s40.9,20.5,40.9,20.5v33.9
		C2007,751.6,1993.6,783.3,1963.2,783.3z"/>
	<path style="fill:#1C1C1C;" d="M2088.9,530.9l70.5-3.8v3.8c0,0,15.1-8.6,39.3-8.6c24.2,0,59.7,11.3,59.7,38.2
		c0,26.9,3.8,175.4,3.8,188.4s26.9,19.4,26.9,19.4v28h-75.3c0,0-5.9-204.5-5.9-214.7s-11.3-18.8-25.3-18.8c-14,0-21.5,7-21.5,11.8
		s1.6,167.4,1.6,181.4s22.1,12.9,22.1,12.9l1.1,27.4l-88.8,6.5l-1.1-26.4c0,0,17.8-4.3,17.8-18.3c0-14-4.8-174.4-4.8-184.1
		s-22.6-19.4-22.6-19.4L2088.9,530.9z"/>
	<path style="fill:#1C1C1C;" d="M2493.6,763.9c0-15.6-12.9-447.8-12.9-447.8l-72.1-4.3l-1.1,29.1c0,0,20.5,5.4,20.5,16.7
		c0,11.3,5.4,177.6,5.4,177.6s-23.7-9.7-43.6-9.7c-10.2,0-111.9,5.9-111.9,137c0,131.1,92.6,140.2,115.7,140.2s44.7-10.2,44.7-10.2
		l-1.1,10.2l81.8,15.1v-29.6C2518.9,788.2,2493.6,779.6,2493.6,763.9z M2398.3,760.2c-27.4,0-58.7-25.3-58.7-97.7
		s33.4-97.7,56.5-97.7s38.2,30.7,38.2,30.7l2.7,137.2C2437.1,732.7,2425.8,760.2,2398.3,760.2z"/>
	<path style="fill:#1C1C1C;" d="M1321.9,665c-17.8,0-38.8,11.5-38.8,11.5l5.2-227.7l-81.5,14.5l2.4,25c0,0,25,1.2,25.8,19
		c0.8,17.8-9.3,384.3-9.7,402.8c-0.4,18.6-18.6,29.5-18.6,29.5v25l72.7-10.9v-16.5c0,0,11.3,12.5,50.1,12.5
		c53.7,0,84.4-52.6,84.4-139C1414,716.4,1374.8,665,1321.9,665z M1313.4,907.8c-26.6,0-31.5-25-31.5-25V727.4
		c0,0,11.7-20.6,27.9-20.6c16.1,0,47.2,21.4,47.2,97.7C1357,880.7,1340.1,907.8,1313.4,907.8z"/>
</g>
<g>
	<path style="fill:#FF98C7;" d="M574.9,708.6c0,0-7.5,44.7,37.7,44.7s56-57,56-90.4c0-66.7-28-100.1-65.1-100.1
		c-76.4,0-118.9,152.3-118.9,263.2c0,110.9,42.5,164.7,107.6,164.7s90.4-65.1,95.8-92.6l29.6,63.5c0,0-29.6,66.7-125.9,66.7
		c-102.3,0-170.6-80.7-170.6-202.4c0-153.4,88.3-292.8,186.8-292.8s110.3,98,106.6,139.9c-3.8,42-8.1,125.9-93.1,125.9
		c-28,0-61.4-19.4-61.4-47.9C559.8,722.5,574.9,708.6,574.9,708.6z"/>
	<path style="fill:#FF98C7;" d="M746.1,746.2l60.8-3.2c0,0-4.8,190-4.8,214.2s17.8,25.3,27.4,25.3c16.7,0,29.1-17.2,29.1-17.2
		s7-193.7,7-202.4c0-11.3-21-10.8-21-10.8v-12.4l56.5-5.4c0,0-6.5,209.4-6.5,224.4c0,21.5,25.3,23.7,25.3,23.7v15.1l-63.5,3.8
		l-0.5-8.6c0,0-12.9,15.6-46.8,15.6c-37.7,0-45.7-24.8-45.7-39.8c0-15.1,6.5-182.4,6.5-193.2s-23.7-14-23.7-14V746.2z"/>
	<path style="fill:#FF98C7;" d="M942.5,730.1l59.2-8.6v12.9c0,0,30.1-19.9,52.7-19.9c24.2,0,30.1,12.4,30.1,12.4
		s27.4-27.4,57.6-27.4s32.8,12.9,32.8,20.5c0,7.5-3.2,192.1-3.2,207.2c0,15.1,22.6,16.1,22.6,16.1V962l-58.1,8.1
		c0,0,4.8-212,4.8-223.9c0-11.8-14-11.8-20.5-11.8c-17.2,0-30.1,14.5-30.1,14.5s-6.5,180.3-6.5,194.3s22.6,14.5,22.6,14.5v17.8
		l-60.3,3.8c0,0,7-212.6,7-219.6c0-7-8.6-16.7-22.1-16.7s-29.6,16.1-29.6,16.1s-7,163.1-7,188.9c0,18.3,22.6,20.5,22.6,20.5v18.8
		l-82.3,7.5V975c0,0,23.1-7,23.1-18.3s7.5-185.7,7.5-195.9c0-14-22.6-14.5-22.6-14.5L942.5,730.1z"/>
	<path style="fill:#FF98C7;" d="M1627.9,619.9l58.9-11.3v15.7c0,0,22.6-23.4,44.8-23.4c11.3,0,18.2,4.4,18.2,4.4v69.4l-18.6,6.1
		c0,0-1.2-21.4-1.2-29.9s-7.7-16.5-21.8-16.5c-14.1,0-19.4,11.3-19.4,17c0,5.7-2.8,174.8-2.8,186.1c0,11.3,27.9,11.7,27.9,11.7
		l-0.4,17.8l-82.3,16.5l0.4-17.8c0,0,20.2-10.5,20.2-21c0-10.5,2-184.5,2-194.6c0-10.1-25.8-11-25.8-11V619.9z"/>
	<path style="fill:#FF98C7;" d="M1769.6,367.6l58.5-11.7c0,0,4.8,419.8,4.8,439.2c0,24.6,26.6,21.4,26.6,21.4V835l-88,20.6v-20.2
		c0,0,20.2-12.5,20.2-31.5s2-399.2,2-409.7s-24.2-12.1-24.2-12.1V367.6z"/>
	<path style="fill:#FF98C7;" d="M2095.3,536.7l56.1-3.6V546c0,0,20.6-17.4,48-17.4c27.4,0,52.5,12.9,52.5,35.1
		c0,22.2,3.6,175.6,3.6,190.5s26.6,17.4,26.6,17.4v17.8h-63.4c0,0-4.4-203.4-4.4-215.5s-17-18.6-31.1-18.6
		c-14.1,0-29.5,9.3-29.5,17.8s2.4,173.6,2.4,187.3s23.8,14.1,23.8,14.1l-0.4,17l-78.3,4v-14.5c0,0,20.2-4.4,20.2-17.4
		c0-12.9-3.6-188.5-3.6-196.2c0-7.7-22.6-16.1-22.6-16.1V536.7z"/>
	<path style="fill:#FF98C7;" d="M1321.9,670.9c-25.8,0-46.3,18.8-46.3,18.8l5.4-233.6l-66.2,11.3l2.2,14c0,0,25.3,1.1,25.3,18.3
		s-10.8,395-10.8,414.9s-19.4,29.1-19.4,29.1v14l59.2-9.7l1.6-24.2c0,0,17.2,17.8,58.1,17.8c69.4,0,78-94.7,78-127
		C1409.1,782.3,1396.7,670.9,1321.9,670.9z M1315.1,914.1c-33.1,0-42.4-24.2-42.4-43.2c0-19,2.4-149.3,2.4-149.3
		s16.1-24.2,35.5-24.2c38.4,0,55.3,61.8,55.3,114.2C1365.9,864.1,1354.6,914.1,1315.1,914.1z"/>
	<path style="fill:#FF98C7;" d="M1586.2,824.3c0,0-10.2,57.6-57.6,57.6c-43.2,0-50-27.4-50-108.3l123.8-23.5
		c0,0,2.7-110.9-81.3-110.9s-89.3,145.3-89.3,163.6c0,18.3,3,105.1,87.5,105.1c38.2,0,56.7-21.2,56.7-21.2l7.5,5.9l18.8-3.2
		l3.2-68.4L1586.2,824.3z M1518.6,665.5c43.5,0,39.4,66.2,39.4,66.2c-7.7,6.5-76.7,14.5-76.7,14.5S1486.2,665.5,1518.6,665.5z"/>
	<path style="fill:#FF98C7;" d="M2054.1,763.2c0-18.2-3.6-161.5-3.6-176.4c0-14.9-25.8-37.5-73.1-37.5c-34.7,0-55.7,14.5-55.7,14.5
		l-3.2-6.9l-21.4,5.2V634l15.7-3.6c0,0,0-6.9,0-13.3c0-21,37.1-43.6,57.3-43.6c20.2,0,43.6,8.9,43.6,27.4s0.8,77.9,0.8,77.9
		s-27-14.9-56.1-14.9s-88.4,23.4-88.4,87.2c0,20.2,11.7,68.6,67.8,68.6s77.1-27.9,77.1-27.9l1.2,15.7l67.4-9.3v-17.8
		C2083.6,780.5,2054.1,781.3,2054.1,763.2z M2015.8,751.9c0,0-12.9,39.2-54.1,39.2c-14.5,0-49.2-0.8-49.2-38.3
		c0-46,19.4-64.2,56.1-64.2s47.2,27,47.2,27V751.9z"/>
	<path style="fill:#FF98C7;" d="M2487.6,770.4c0-17.4-16.1-447.2-16.1-447.2L2413,318v14.9c0,0,23.4,7.3,23.4,21.8s4,197,4,197
		s-12.5-19.4-49.6-19.4c-49.2,0-104.9,44.4-104.9,126.7c0,125.9,75.9,134.4,109.8,134.4c33.9,0,46-10.9,46-10.9l2.4,16.1l67,16.1
		V793C2511.1,793,2487.6,787.8,2487.6,770.4z M2398.4,766.8c-38.8,0-66.6-40-66.6-97.7c0-57.7,17.8-110.6,61.8-110.6
		s48.4,38.8,48.4,38.8l2.8,138.9C2444.9,736.1,2437.2,766.8,2398.4,766.8z"/>
	<path style="fill:#FF98C7;" d="M720.8,175.2c0,0-67.7,27.5-164.7,152.8c-51.7,66.7-84.5,132.4-84.5,132.4l32.8,2.2
		c0,0,31.8-59.7,43.6-80.7c11.8-21,42.5-29.6,48.2-29.6c5.7,0,10.5,3.2,10.5,8.1c0,18.3-51.7,48.4-51.7,79.7
		c0,19.9,14,22.6,25.8,22.6c11.8,0,55.4-15.1,67.3-36.6c0,0-17.2,9.7-35,9.7c-11.8,0-14.5-5.4-14.5-12.9c0-17.2,48.4-59.2,48.4-76.4
		c0-9.7-9.7-15.1-23.7-15.1c-27.2,0-59.7,21.5-59.7,21.5S626.6,257,720.8,175.2z"/>
	<path style="fill:#FF98C7;" d="M782.1,358.2c0-17.8-8.9-22.6-29.6-22.6c-51.4,0-111.4,57.2-111.4,93.7c0,29,17.7,38.7,44.1,38.7
		c45.2,0,79.1-36.1,79.1-36.1s-32.8,15.6-54.9,15.6c-22.1,0-32.3-8.6-32.8-26.9c0,0,12.4,0,26.1,0S782.1,396.9,782.1,358.2z
		 M747.2,348.8c7.5,0,9.7,2.4,9.7,7.8c0,21.5-45.2,51.7-79.1,51.7C677.7,408.2,712.7,348.8,747.2,348.8z"/>
	<path style="fill:#FF98C7;" d="M321.6,331c0,0-12.4-9.2-12.4-30.7c0-44.1,54.4-69.4,122.2-69.4c42,0,50.1,4.8,74.3,4.8
		c55.4,0,91.5-19.4,91.5-19.4s-72.1,56.5-113,109.8c-40.9,53.3-61.2,87.5-103.9,147.5c-54.4,76.4-86.1,104.9-86.1,104.9
		s19.8,3,103.3-93.1c81.8-94.2,126.5-190.5,236.3-285.8v-3.2c0,0-16.1,8.6-51.7,8.6c-35.5,0-81.3-8.6-121.1-8.6
		c-120.6,0-157.7,63-157.7,104.9C303.3,325.6,321.6,331,321.6,331z"/>
	<path style="fill:#FF98C7;" d="M681.2,788.4l10,8.9l16.1-2.7l2-45.3C703.4,764.6,694.7,778.5,681.2,788.4z"/>
	<path style="fill:#FF98C7;" d="M714.7,604.5l6-75.1h-15.1c0,0-6.9,18.2-22,23.5C699.3,566.9,709,585.5,714.7,604.5z"/>
</g>
<g>
	<path style="fill:#F27AA9;" d="M633.5,198.4l-1-0.6c0,0-55.4,33.4-98,85.6C492,335.6,484,348.5,405.4,453.4
		c-61.6,82.3-98.1,114-111,123.8c3.3-0.2,26.4-5.1,102.9-93.1C479.1,390,523.8,293.7,633.5,198.4z"/>
	<path style="fill:#F27AA9;" d="M606.7,209.6c0,0-29.1,5.9-64.6,5.9c-35.5,0-81.3-3.2-130.8,0c-49.5,3.2-103.3,32.8-103.3,75.9
		c0,4.8,0.5,8.8,1.3,12.1c-0.1-1.5-0.2-3-0.2-4.6c0-44.1,54.4-69.4,122.2-69.4c42,0,50.1,4.8,74.3,4.8c55.4,0,91.5-19.4,91.5-19.4
		s-0.7,0.6-2,1.6L606.7,209.6z"/>
	<path style="fill:#F27AA9;" d="M712.5,182.5c-17.2,12.1-64.2,46.8-96.2,85.3c-39.8,47.9-79.7,107.1-79.7,107.1l27.4-21.5l1.7-2
		c-1.5,0.9-2.3,1.4-2.3,1.4S622.9,262.6,712.5,182.5z"/>
	<path style="fill:#F27AA9;" d="M548,381.9c11.8-21,42.5-29.6,48.2-29.6c4.7,0,8.8,2.2,10.1,5.7l12.8-11.6c0,0,3.2-5.9-15.6-4.8
		c-18.8,1.1-66.7,33.4-75.3,44.1c-8.6,10.8-33.4,58.7-33.4,58.7l-21.8,13.5c-0.9,1.7-1.3,2.6-1.3,2.6l32.8,2.2
		C504.4,462.6,536.2,402.9,548,381.9z"/>
	<path style="fill:#F27AA9;" d="M598.6,389.9c-24.8,25.8-28.5,41.4-17.8,49.5l19.1-9.6c-1-2-1.3-4.4-1.3-7.1
		c0-17.2,48.4-59.2,48.4-76.4c0-1.3-0.2-2.5-0.5-3.7l-18.6,7.4C627.9,350.1,623.3,364.1,598.6,389.9z"/>
	<path style="fill:#F27AA9;" d="M671.8,387.2c-16.1,19.9-13.5,26.9-13.5,26.9l19.7-5.9c-0.1,0-0.2,0-0.3,0c0,0,35-59.5,69.5-59.5
		c0.3,0,0.5,0,0.8,0l11-7.4C759,341.4,710,340.1,671.8,387.2z"/>
	<path style="fill:#F27AA9;" d="M779.6,345.5l-10.4,5.7c0,0,4.8,25.8-26.9,42.8c-31.8,17-52.2,22.9-86.6,24c0,0-3.8,29.1,12.9,35
		l16.8-11.7c-5.7-4.4-8.5-11.3-8.8-20.6c0,0,12.4,0,26.1,0s79.4-23.7,79.4-62.4C782.1,352.9,781.3,348.7,779.6,345.5z"/>
	<path style="fill:#F27AA9;" d="M760.5,433.7c-8,4.6-26.9,15.1-41.4,19.3c-18.8,5.4-43.1,0.5-49.5,2.7c-3.5,1.2-4.3,5.9-4.3,9.9
		c5.8,1.7,12.5,2.5,19.9,2.5c43.1,0,75.9-32.8,78.9-35.8l0-0.2C763.7,432.2,762.4,432.8,760.5,433.7z"/>
	<path style="fill:#F27AA9;" d="M575.2,439.5l-15.8,15.6c5.1,6.4,13.7,7.5,21.5,7.5c10.5,0,45.6-11.7,61.9-29.3
		c2.2-3.3,3.8-5.7,3.8-5.7c-11.8,9.8-36.1,17.2-52.2,17.2C578.1,444.8,575.2,439.5,575.2,439.5z"/>
	<path style="fill:#F27AA9;" d="M447.4,805.4c0,115.7,47.9,164.2,47.9,164.2l20-18c-19.6-27.3-30.7-69-30.7-125.7
		c0-110.9,42.5-263.2,118.9-263.2c12.5,0,23.9,3.8,33.6,11.3l9.5-13.4c0,0-5.9-13.5-38.2-13.5C500.1,547.1,447.4,708.6,447.4,805.4z
		"/>
	<path style="fill:#F27AA9;" d="M591.6,1028.2c96.3,0,125.9-66.7,125.9-66.7l-29-62.3l-3.3,57.4c0,0-28.5,49-102.8,49
		c-47.9,0-84.5-36.1-84.5-36.1l-15.5,18.2C511,1013.7,548.3,1028.2,591.6,1028.2z"/>
	<path style="fill:#F27AA9;" d="M746.1,755.9v5.4c0,0,20.2,2.8,23.3,11.7l17.1-17.1H746.1z"/>
	<path style="fill:#F27AA9;" d="M796.9,987.9l11-12.3c-3.5-3.7-5.9-9.5-5.9-18.4c0-22.9,4.3-193.6,4.8-212.5l-17.2,11.2
		c0,0-8.6,181.9-8.6,200.2C781,983.6,796.9,987.9,796.9,987.9z"/>
	<path style="fill:#F27AA9;" d="M862.3,971.7c0,0-23.7,23.1-40.4,23.1c-16.7,0-28.5-3.2-28.5-3.2l-4.8,13.6
		c5.6,1.9,12.3,3.1,20.4,3.1c33.9,0,46.8-15.6,46.8-15.6l0,0.1c6.7-7.4,11.3-14.1,11.3-14.1L862.3,971.7z"/>
	<path style="fill:#F27AA9;" d="M881.7,751.6c0,0-5.4,163.1-7,196.4c-1.6,33.4,5.9,33.9,5.9,33.9l15-16.3c-0.6-2-1-4.3-1-6.8
		c0-14.3,5.9-204.8,6.4-223L881.7,751.6z"/>
	<path style="fill:#F27AA9;" d="M844.5,752.1c0,0,16.5-0.4,20.2,7.4l13.1-8.5l-3.5-6.5h-29.9V752.1z"/>
	<path style="fill:#F27AA9;" d="M895.1,987.9c-19.9-3.2-19.9-3.2-19.9-3.2l-14.3,16.4l59-3.5v-15.1c0,0-2.6-0.2-6.1-1.2
		C911.3,985.4,906,989.7,895.1,987.9z"/>
	<path style="fill:#F27AA9;" d="M942.7,735.5l0.4,10.8c0,0,17.4,0.4,21.7,10l19.8-20.7H942.7z"/>
	<path style="fill:#F27AA9;" d="M1053.1,757.8l16.9-16.9c0,0-7-12.4-22.6-12.4c-25.3,0-49.5,18.6-49.5,18.6l8.6-14.8l-0.1-0.8
		c-3,1.7-4.7,2.9-4.7,2.9v-12.9l-2.7,0.4l-14.5,19l-10.2,230.9l22.6-14.8c-1.4-2.4-2.2-5.3-2.2-8.9c0-25.8,7-188.9,7-188.9
		s16.1-16.1,29.6-16.1C1043.6,743,1051.8,751,1053.1,757.8z"/>
	<path style="fill:#F27AA9;" d="M1017.3,968.5c0,0-1.7-0.2-4.3-0.8c-4.4,4.1-10,9-12.4,10c-3.7,1.4-51.7,7.9-65.7,9.7v7.5l82.3-7.5
		V968.5z"/>
	<path style="fill:#F27AA9;" d="M1140.2,741.8l13.8-16.5c0,0-3.8-9.7-27.4-9.7s-47.9,26.4-51.7,31.5l-4.8,210.2l14.6-10.4
		c-0.4-1.1-0.6-2.3-0.6-3.6c0-14,6.5-194.3,6.5-194.3s12.9-14.5,30.1-14.5C1126.1,734.4,1137.1,734.4,1140.2,741.8z"/>
	<path style="fill:#F27AA9;" d="M1154,951.8l19.1-19.1c-0.8-1.6-1.3-3.5-1.3-5.7c0-15.1,3.2-199.7,3.2-207.2c0-3.3-0.5-7.6-3.6-11.4
		l-15.2,15.2L1154,951.8z"/>
	<path style="fill:#F27AA9;" d="M1106.6,957.7c0,0-1.2,0-3-0.2c-1.1,1.4-2.3,2.9-3.4,4.6c-4.7,6.8-39.4,10.6-53.6,11.9
		c-0.1,3.4-0.2,5.3-0.2,5.3l60.3-3.8V957.7z"/>
	<path style="fill:#F27AA9;" d="M1185.8,951.8c-6.9,6.5-37.7,9.2-49.3,10c-0.1,5.3-0.2,8.3-0.2,8.3l58.1-8.1v-18
		C1191.6,946.4,1188.6,949.1,1185.8,951.8z"/>
	<path style="fill:#F27AA9;" d="M1272.7,871c0-19,2.4-149.3,2.4-149.3s16.1-24.2,35.5-24.2c9.8,0,18.3,4.1,25.4,11l8-15.4
		c0,0-5.4-7-31.2-7c-25.8,0-50.1,29.6-50.1,29.6c5.4-12.4,18.3-29.6,18.3-29.6l0-0.5c-3.4,2.5-5.4,4.3-5.4,4.3l5.4-233.6l-0.7,0.1
		l-21.4,18.2l-10.2,421.9l24.4-18.7C1272.8,875.4,1272.7,873.1,1272.7,871z"/>
	<path style="fill:#F27AA9;" d="M1217,481.4c0,0,17,0.7,23.1,10.5l20.1-18.6h-44.5L1217,481.4z"/>
	<path style="fill:#F27AA9;" d="M1409.1,814.6c0-26.4-8.3-105.5-52-133.6l-10.4,10.4c0,0,37.7,26.4,37.7,145
		c0,17.5-7,90.4-59.2,90.4c-45.7,0-71.6-30.4-71.6-30.4l-7,2.2v53.6l24.8-4.1l1.6-24.2c0,0,17.2,17.8,58.1,17.8
		C1400.5,941.6,1409.1,846.9,1409.1,814.6z"/>
	<path style="fill:#F27AA9;" d="M1481.4,746.2c0.1-1.6,5.2-80.7,37.3-80.7c7.9,0,14.3,2.2,19.3,5.8l7.3-13.3c0,0-5.4-7-25.8-7
		c-20.5,0-68.4,40.4-68.4,113.6L1481.4,746.2z"/>
	<path style="fill:#F27AA9;" d="M1476.4,877l13.7-13.5c-9.4-16.4-11.5-44.8-11.5-90l123.8-23.5c0,0,1.9-80-49-104.1l-8.1,13.7
		c0,0,30.7,8.6,34.4,81.8c0,0-126.5,24.2-128.6,25.3C1451.1,766.7,1438.7,844.7,1476.4,877z"/>
	<path style="fill:#F27AA9;" d="M1528.6,889.4c-33.6,0-50.6-9.1-50.6-9.1l-7.8,14c12.1,8.3,28.1,13.7,49.1,13.7
		c38.2,0,56.7-21.2,56.7-21.2l2.1,1.6c3.8-11.9,4.4-26.4,4.4-26.4S1568.9,889.4,1528.6,889.4z"/>
	<path style="fill:#F27AA9;" d="M1583.5,892.6l18.8-3.2l3.2-68.4l-7,1.2c-4.2,3.4-8.3,7.9-8.6,12.3c-0.5,9.2,0.5,27.4,0,39.8
		c-0.4,9.7-6.4,14.6-9,16.3L1583.5,892.6z"/>
	<path style="fill:#F27AA9;" d="M1653,647.5l15.5-23.4l-40.6,2.8v12.2C1627.9,639.1,1649,639.9,1653,647.5z"/>
	<path style="fill:#F27AA9;" d="M1733.1,624.1c0,0-3.8-4.8-22.1-4.8c-18.3,0-32.3,22.1-32.3,22.1s4.6-9.1,9.1-18c-0.7,0.7-1,1-1,1
		V613l-18.3,17v232l19-20.4c-0.9-1.2-1.5-2.5-1.5-4.1c0-11.3,2.8-180.4,2.8-186.1c0-5.7,5.2-17,19.4-17c7.1,0,12.6,2.1,16.3,5.2
		L1733.1,624.1z"/>
	<path style="fill:#F27AA9;" d="M1739,664.4c0,2.2-4.4,7.8-8,12.2c0.1,2.6,0.2,4.2,0.2,4.2l18.6-6.1v-69.4c0,0-0.1-0.1-0.3-0.2
		l-10.5,14.1C1739,619.2,1739,660.7,1739,664.4z"/>
	<path style="fill:#F27AA9;" d="M1700.8,858.6c-5.1,0.8-55.1,10.2-69.4,12.9l-0.3,12l82.3-16.5l0.4-17.8c0,0-2,0-5-0.3
		C1707.5,852.4,1704.8,858,1700.8,858.6z"/>
	<path style="fill:#F27AA9;" d="M1792.5,390.4l16.5-19.3l-39.4,6.2v4.8C1769.6,382.1,1787.5,383.3,1792.5,390.4z"/>
	<path style="fill:#F27AA9;" d="M1832.9,795.1c0-18.5-4.4-400.3-4.8-436.4l-14.3,12.5l-4.8,459.6l27.2-23.3
		C1834.2,804.4,1832.9,800.4,1832.9,795.1z"/>
	<path style="fill:#F27AA9;" d="M1859.6,816.5c0,0-2.2,0.3-5.2,0.1c-2.8,4.8-6.6,9.2-11.5,9.9c-9.1,1.3-54.1,9.9-71.3,13.2v16
		l88-20.6V816.5z"/>
	<path style="fill:#F27AA9;" d="M1897.1,634l15.7-3.6c0,0,0-6.9,0-13.3c0-21,37.1-43.6,57.3-43.6c13.3,0,28,3.9,36.5,11.8l9-15
		c0,0-14.5-10.2-45.2-10.2c-30.7,0-59.2,21-59.2,21s5.5-12.3,9.5-19.4l-2.2-4.7l-4.9,1.2l-6.7,8.9c0,0-0.5,54.9-2.2,57.1
		c-0.7,1-4.2,2.4-7.7,3.7V634z"/>
	<path style="fill:#F27AA9;" d="M2031.8,599.8c0,18.8,0,187.8,0,187.8l23.4-19.1c-0.6-1.6-1-3.3-1-5.4c0-18.2-3.6-161.5-3.6-176.4
		c0-8.2-7.7-18.6-22.5-26.4l-12.4,13.6C2015.6,574,2031.8,581,2031.8,599.8z"/>
	<path style="fill:#F27AA9;" d="M2031.8,706.4c0,0-15.1-31.8-70-31.8s-73.2,46.8-73.2,74.8c0,28,20.5,44.1,20.5,44.1l16-11.6
		c-7.3-5.6-12.6-14.6-12.6-29.3c0-46,19.4-64.2,56.1-64.2s47.2,27,47.2,27v1.9L2031.8,706.4z"/>
	<g>
		<path style="fill:#F27AA9;" d="M2029.9,759.7c0.8-1.3,1.5-2.6,1.9-3.8L2029.9,759.7z"/>
		<path style="fill:#F27AA9;" d="M1937.9,819.7c44.2,0,66.6-17.3,74.1-24.6l17.9-35.4c-10,16.9-44.1,44.6-74.5,44.6
			c-32.8,0-46.3-8.6-46.3-8.6l-10,13.3C1908.7,815.5,1921.4,819.7,1937.9,819.7z"/>
	</g>
	<path style="fill:#F27AA9;" d="M2083.6,780.5c0,0-1.8,0-4.5-0.2c-0.9,2.6-1.8,5.1-2.6,7.3c-2.3,6.1-48.7,13-60.7,14.7l0.4,5.2
		l67.4-9.3V780.5z"/>
	<path style="fill:#F27AA9;" d="M2116.9,564.5l16-19.6h-37.7v6.3C2095.3,551.3,2112.6,557.8,2116.9,564.5z"/>
	<path style="fill:#F27AA9;" d="M2185.7,541.7c-29.6,0-45.7,15.1-45.7,15.1s5.2-4.9,11.4-12.2v-11.5l-1.9,0.1l-16.6,16.6l3.8,229.3
		l20.2-15c-0.4-1.1-0.7-2.4-0.7-3.8c0-13.7-2.4-178.8-2.4-187.3s15.3-17.8,29.5-17.8c10.1,0,21.7,3.3,27.5,9.7l11.5-12
		C2222.3,553,2222.3,541.7,2185.7,541.7z"/>
	<path style="fill:#F27AA9;" d="M2231.5,596.1c0,41.4,3.2,175.5,3.2,175.5l22.8-10.9c-1.2-1.8-1.9-3.9-1.9-6.3
		c0-14.9-3.6-168.3-3.6-190.5c0-10.9-6-19.6-15.4-25.6l-12,14.8C2224.5,553,2231.5,554.6,2231.5,596.1z"/>
	<path style="fill:#F27AA9;" d="M2265.9,779.1c-9.7,1.1-32.8,0-32.8,0l-13,10.4h62.2v-17.8c0,0-1.2-0.1-3-0.4
		C2276.9,774,2272.4,778.3,2265.9,779.1z"/>
	<path style="fill:#F27AA9;" d="M2166.3,779.1c-5.4,1-56.5,4.9-65,5.6v10.9l78.3-4l0.4-17c0,0-3.1-0.1-7.1-0.8
		C2171.1,776.3,2168.8,778.6,2166.3,779.1z"/>
	<path style="fill:#F27AA9;" d="M2305.2,660.1c0,65.7,37.7,99,37.7,99l12.7-13.1c-14.8-17.3-23.7-44.3-23.7-77
		c0-57.7,17.8-110.6,61.8-110.6c39.2,0,47,30.7,48.2,37.4l14.1-10.7c0,0-14-40.4-61.4-40.4S2305.2,594.5,2305.2,660.1z"/>
	<path style="fill:#F27AA9;" d="M2395.1,779.1c-30.1,0-54.9-16.1-54.9-16.1l-7,14.2c22,14.5,46.7,16.3,62.5,16.3
		c33.9,0,46-10.9,46-10.9l0.1,0.7l16.3-35.9C2458,747.3,2425.2,779.1,2395.1,779.1z"/>
	<path style="fill:#F27AA9;" d="M2413,328.3v4.6c0,0,14.6,4.5,20.7,13.6l17.3-14.1L2413,328.3z"/>
	<path style="fill:#F27AA9;" d="M2487.6,770.4c0-16.7-15-416.8-16.1-445.6l-15.7,9.6l5.4,453.2l26.5-15.3
		C2487.7,771.7,2487.6,771.1,2487.6,770.4z"/>
	<path style="fill:#F27AA9;" d="M2444.6,798.8l66.5,16V793c0,0-0.4-0.1-1.1-0.3c-2.9,4.1-6.8,8.1-10.5,7.8
		c-7.5-0.5-41.4-12.9-41.4-12.9L2444.6,798.8z"/>
	<path style="fill:#F27AA9;" d="M658.5,545.1l-8.4,14.7c0,0,39.3,29.1,39.3,127.6c0,71-56.5,86.7-72.1,86.7
		c-17.7,0-48.2,0.9-49.6-53.8c-3.7,7.1-7.4,17.6-7.4,31.8c0,28.5,33.4,47.9,61.4,47.9c85,0,89.3-84,93.1-125.9
		C717.6,640.6,710.8,571.9,658.5,545.1z"/>
	<path style="fill:#F27AA9;" d="M695.3,774.6l10.2,20.3l1.8-0.3l2-45.3C705.8,758.4,701.3,767,695.3,774.6z"/>
	<path style="fill:#F27AA9;" d="M714.7,605.3l6-75.3l-12.1,10.2l-4.4,39.9C708.6,588.1,712.1,596.6,714.7,605.3z"/>
</g>
<g>
	<path style="fill:#FF98C7;" d="M1245.3,201.8c-1.1,0-1.6-0.5-3.2-5.3l-0.6-1.6l1.3-0.2c-3.2-13.7,3.2-28.5,19-43.8
		c17.4-17,23.9-29.4,23.9-33.2c0-6.2-0.6-11.7-8-11.7c-8.3,0-11.7,12-11.8,12.1l-0.3,1.1h-17.9v-1.5c0-7,3.8-14.6,10.5-21
		c6.2-5.8,13.6-9.4,19.4-9.4c13.1,0,26.7,10.4,26.7,27.9c0,18.6-11.7,32.6-24.4,44.8c-6.4,6.2-8.9,9.6-9.9,11.3
		c7.4-1.9,15.6-2.8,24.2-2.8c8.4,0,14,0.9,14.2,1l1.2,0.2l0,1.2c0.4,11.3-4,23.2-4.2,23.7l-0.5,1.2l-1.3-0.3
		c-0.1,0-10.4-2.6-22.2-2.6c-1.5,0-3.1,0-4.5,0.1c-10.8,0.6-24.7,3-30.6,4c0.7,3.3,0.6,3.7,0.1,4.2l-0.4,0.6
		C1246.1,201.7,1245.3,201.8,1245.3,201.8z"/>
	<path style="fill:#222222;" d="M1277.7,88.6c11.1,0,25.2,8.7,25.2,26.4c0,17.7-10.7,31-23.9,43.8s-10.7,14.4-10.7,14.4
		c9.4-2.7,18.8-3.4,26.1-3.4c8.3,0,14,0.9,14,0.9c0.4,11.1-4.1,23.1-4.1,23.1s-10.4-2.6-22.6-2.6c-1.5,0-3.1,0-4.6,0.1
		c-12,0.7-28,3.5-32.3,4.3c-0.1-0.4-0.2-0.9-0.3-1.4c-2.9-12.4,2.1-26.4,18.6-42.5s24.4-29.3,24.4-34.3s0-13.2-9.5-13.2
		s-13.2,13.2-13.2,13.2h-15.3C1249.2,103.1,1266.6,88.6,1277.7,88.6 M1244.6,195.7c0.8,3.4,0.9,4.5,0.7,4.5c-0.3,0-1.8-4.3-1.8-4.3
		S1243.9,195.9,1244.6,195.7 M1277.7,85.6c-13.2,0-31.5,16.1-31.5,31.9v3h3h15.3h2.3l0.6-2.2c0-0.1,3.2-11,10.3-11
		c5.6,0,6.5,3.1,6.5,10.2c0,3-5.7,14.8-23.4,32.1c-15.6,15.2-22.2,29.9-19.7,43.7l-1.5,0.3l1.1,3.3c1.4,4.1,2.2,6.3,4.7,6.3h1.4
		l0.9-1.1c0.8-1,0.9-1.9,0.5-4c6.5-1.1,19-3.2,28.9-3.7c1.4-0.1,2.9-0.1,4.5-0.1c11.6,0,21.8,2.5,21.9,2.5l2.6,0.6l0.9-2.5
		c0.2-0.5,4.8-12.7,4.3-24.3l-0.1-2.4l-2.4-0.4c-0.2,0-6-1-14.5-1c-7.3,0-14.2,0.7-20.7,2c1.5-1.8,3.8-4.4,7.4-7.9
		c12.9-12.5,24.9-26.7,24.9-45.9C1305.9,96.6,1291.5,85.6,1277.7,85.6L1277.7,85.6z"/>
</g>
<g>
	<path style="fill:#FF98C7;" d="M1341.7,192c-5.9,0-10.1-1.2-10.3-1.2l-3-0.8l2.5-1.8c2.8-2,12.8-12.9,22.1-25.5
		c11.5-15.5,17.8-28,17.8-35.2c0-15.3-8.8-20.8-17.1-20.8c-6.7,0-10.5,7.4-10.5,12.5c0,5,2.9,10.5,9.2,10.5c6.6,0,12.4-3.1,12.5-3.1
		l2.2-1.2v2.5c0,8.1,0,18.1-16.8,18.1c-16,0-25.9-15.8-25.9-27.2c0-10.3,7.9-31.6,32.5-31.6c13.9,0,22.5,6.8,27.2,12.5
		c6,7.2,9.4,16.8,9.4,26.6c0,19.5-24.6,56.6-36.3,62.4C1352.7,190.9,1347.5,192,1341.7,192z"/>
	<path style="fill:#222222;" d="M1356.9,88.6c22.7,0,35.1,19.4,35.1,37.6c0,18.2-23.9,55.3-35.5,61.1c-5.1,2.5-10.4,3.2-14.9,3.2
		c-5.7,0-9.9-1.2-9.9-1.2c5.8-4.1,40.4-44.2,40.4-61.9c0-17.7-11.1-22.3-18.6-22.3c-7.4,0-12,7.8-12,14c0,6.2,3.7,12,10.7,12
		c7,0,13.2-3.3,13.2-3.3c0,8.7-0.2,16.6-15.3,16.6s-24.4-15-24.4-25.7S1334.2,88.6,1356.9,88.6 M1356.9,85.6
		c-13.8,0-21.9,6.6-26.3,12.2c-5.6,7.1-7.6,15.5-7.6,21c0,12,10.4,28.7,27.4,28.7c6.1,0,10.2-1.3,12.9-3.3
		c-2.9,5.2-6.7,11.1-11.5,17.5c-9.7,13.2-19.5,23.6-21.7,25.2l-5.1,3.6l6,1.7c0.2,0.1,4.6,1.3,10.7,1.3c6,0,11.5-1.2,16.2-3.6
		c4.8-2.4,13.5-10.8,23.3-27c4.2-6.9,13.8-24.2,13.8-36.7c0-10.1-3.5-20.1-9.7-27.5C1380.3,92.7,1371.4,85.6,1356.9,85.6
		L1356.9,85.6z M1352.4,128.1c-5.3,0-7.7-4.5-7.7-9c0-4.6,3.4-11,9-11c3.7,0,15.6,1.4,15.6,19.3c0,1.3-0.2,2.8-0.7,4.5
		c0.1-1.4,0.1-2.8,0.1-4.1v-5l-4.4,2.4C1364.1,125.2,1358.5,128.1,1352.4,128.1L1352.4,128.1z"/>
</g>
<g>
	<path style="fill:#FF98C7;" d="M1416,201.8c-6.3,0-14.9-2.2-15.2-2.3l-1.7-0.4l8.4-18.7l1.4,0.7c0.1,0,5.6,2.7,14.6,2.7
		c22.6,0,28.6-17.9,28.6-27.4c0-8.2-4.2-12.5-12.1-12.5c-7.5,0-11.4,8.9-11.4,9l-0.3,0.6l-0.6,0.2c-2.2,0.8-4.3,1.2-6.3,1.2
		c-7.2,0-10.9-4.8-11.1-5l-0.5-0.6l0.3-0.8c0-0.1,2.9-8.4,5.7-27c2.9-18.8,4.1-27.6,4.1-27.6l0.3-1.9l1.8,0.7
		c0.1,0,8.1,3.2,16.8,3.2c8.8,0,19.3-3.2,19.4-3.2l1.8-0.6l1,21.2l-24.6,1.3l-1.9,12.2c1.3-0.4,3.1-0.7,5.5-0.7l0.5,0
		c19.3,0,29.9,10.6,29.9,30c0,14-5.8,25.8-16.8,34.2C1443.7,197.6,1430.3,201.8,1416,201.8z"/>
	<path style="fill:#222222;" d="M1458.5,94l0.8,17.7L1435,113l-2.5,16.1c0,0,2.1-1.7,7.4-1.7c0.1,0,0.3,0,0.5,0
		c6.2,0,28.4,0.4,28.4,28.5c0,28.9-25.6,44.4-52.8,44.4c-6.2,0-14.9-2.3-14.9-2.3l7-15.7c0,0,5.8,2.9,15.3,2.9
		c24.4,0,30.1-19.8,30.1-28.9c0-9.1-5-14-13.6-14c-8.7,0-12.8,9.9-12.8,9.9c-2.2,0.8-4.1,1.1-5.8,1.1c-6.5,0-9.9-4.4-9.9-4.4
		s2.9-8.3,5.8-27.2c2.9-19,4.1-27.7,4.1-27.7s8.3,3.3,17.3,3.3S1458.5,94,1458.5,94 M1418.9,89.8l-0.5,3.8c0,0.1-1.3,8.9-4.1,27.6
		c-2.8,18.4-5.6,26.6-5.6,26.7l-0.5,1.5l1,1.3c0.2,0.2,4.3,5.6,12.2,5.6c2.2,0,4.5-0.4,6.8-1.3l1.2-0.4l0.5-1.2
		c0-0.1,3.5-8.1,10-8.1c7,0,10.6,3.7,10.6,11c0,9-5.7,25.9-27.1,25.9c-8.7,0-13.9-2.5-13.9-2.6l-2.8-1.4l-1.3,2.9l-7,15.7l-1.4,3.2
		l3.4,0.9c0.4,0.1,9.1,2.3,15.6,2.3c14.7,0,28.3-4.2,38.5-12c11.4-8.7,17.4-20.9,17.4-35.4c0-20.3-11.2-31.5-31.4-31.5l-0.3,0h-0.2
		c-1.4,0-2.7,0.1-3.7,0.3l1.4-8.8l21.9-1.1l3-0.2l-0.1-3l-0.8-17.7l-0.2-3.9l-3.7,1.1c-0.1,0-10.4,3.2-18.9,3.2
		c-8.4,0-16.1-3.1-16.2-3.1L1418.9,89.8L1418.9,89.8z"/>
</g>
<g>
	<path style="fill:#FF98C7;" d="M1524.3,201.8c-9.8,0-32.5-4.7-32.5-48.7c0-49.8,20.3-57.2,32.5-57.2c3.3,0,32.5,1.4,32.5,48.6
		C1556.8,188,1531.5,201.8,1524.3,201.8z M1523.3,114.1c-8.4,0-12.9,17-12.9,33.1c0,16.3,3.4,35.3,12.9,35.3c9.4,0,15-14.2,15-38
		C1538.3,114.1,1527,114.1,1523.3,114.1z"/>
	<path style="fill:#222222;" d="M1524.3,97.3c5.1,0,31,2.9,31,47.1s-26,55.8-31,55.8s-31-0.6-31-47.2
		C1493.4,106.4,1511.5,97.3,1524.3,97.3 M1523.3,184c10.7,0,16.5-15.1,16.5-39.5c0-24.4-7-31.9-16.5-31.9
		c-9.5,0-14.4,17.1-14.4,34.6S1512.5,184,1523.3,184 M1524.3,94.3c-6.3,0-15.4,2-22.7,11.6c-7.5,9.9-11.3,25.8-11.3,47.2
		c0,20.6,4.9,35.2,14.7,43.4c3.7,3.1,10.1,6.8,19.3,6.8c3.5,0,12-3.4,19.6-12.4c6.5-7.7,14.3-22.1,14.3-46.4
		C1558.3,95.7,1527.8,94.3,1524.3,94.3L1524.3,94.3z M1523.3,181c-4.3,0-6.9-5.3-8.4-9.8c-2-6.1-3.1-14.6-3.1-24
		c0-17.7,5-31.6,11.4-31.6c3.3,0,13.5,0,13.5,28.9c0,11.8-1.4,21.4-4,27.8C1530.4,178,1527.2,181,1523.3,181L1523.3,181z"/>
</g>
</svg>
