<?xml version="1.0" encoding="utf-8"?>
<!-- Generator: Adobe Illustrator 16.0.3, SVG Export Plug-In . SVG Version: 6.00 Build 0)  -->
<!DOCTYPE svg PUBLIC "-//W3C//DTD SVG 1.1//EN" "http://www.w3.org/Graphics/SVG/1.1/DTD/svg11.dtd">
<svg version="1.1" id="Layer_1" xmlns="http://www.w3.org/2000/svg" xmlns:xlink="http://www.w3.org/1999/xlink" x="0px" y="0px"
	 width="2800px" height="1200px" viewBox="0 0 2800 1200" enable-background="new 0 0 2800 1200" xml:space="preserve">
<rect y="-1.4" fill="#DD7DBD" width="2800" height="1200.9"/>
<path fill="#222222" d="M1274.574,122.161l-11.38-2.595l-2.196-15.773l8.585-13.577c0,0,14.774-11.181,33.343-11.181
	s47.519,8.985,47.519,34.94c0,20.565-43.725,43.326-43.725,43.326s14.774,0,25.756,0c16.771,0,20.564-11.181,20.564-11.181
	l2.796,5.59l-0.999,29.15l-14.974,12.179l-70.879-1.997l-5.391-21.763l9.783-11.78c0,0,38.734-17.37,38.734-35.938
	c0-5.191-5.591-7.787-12.978-7.787S1274.574,122.161,1274.574,122.161z"/>
<path fill="#222222" d="M1407.348,82.429c-23.76,0-47.918,31.945-47.918,61.295c0,31.746,20.165,51.312,46.521,51.312
	c26.354,0,47.119-25.756,47.119-60.497S1432.105,82.429,1407.348,82.429z M1406.249,166.086c-2.495,0-11.28-0.799-11.28-25.357
	s4.792-35.739,9.783-35.739c3.194,0,11.181,4.192,12.379,27.153C1418.695,162.132,1408.745,166.086,1406.249,166.086z"/>
<path fill="#222222" d="M1456.464,97.803l9.982-15.374h74.473v23.959c0,0-4.792,11.78-11.58,11.78s-21.763-2.396-28.95-2.396
	c-7.188,0-10.782,2.396-10.782,2.396v4.393c0,0,14.878-3.993,25.157-3.993s35.938,0.599,35.938,29.35
	c0,28.75-35.938,47.119-58.899,47.119c-22.96,0-41.329-17.77-41.329-17.77l7.986-16.771l10.183-6.389
	c0,0,9.584,10.981,34.142,10.981c11.381,0,14.975-5.99,14.975-9.983s-6.589-8.785-20.964-8.785c-25.557,0-40.73,14.176-40.73,14.176
	L1456.464,97.803z"/>
<path fill="#222222" d="M1603.213,78.037c-24.358,0-50.913,27.153-50.913,61.894s21.763,55.106,47.519,55.106
	s47.119-39.732,47.119-65.089C1646.938,104.591,1635.957,78.037,1603.213,78.037z M1599.619,159.897
	c-7.388,0-11.182-13.977-11.182-29.35s6.589-29.749,8.985-29.749c5.391,0,11.181,14.375,11.181,26.754
	C1608.604,139.931,1607.006,159.897,1599.619,159.897z"/>
<polygon fill="#222222" points="1132.568,363.586 1132.568,300.437 1115.608,300.437 1115.608,283.838 1124.088,269.043 
	1184.892,269.043 1184.892,289.973 1172.263,300.437 1167.571,300.437 1166.488,354.926 1154.581,363.586 "/>
<polygon fill="#222222" points="1189.944,363.586 1191.749,286.003 1207.987,269.043 1229.638,269.043 1229.638,301.88 
	1242.628,302.242 1242.628,278.786 1252.732,269.043 1279.796,269.043 1276.729,356.189 1265.994,365.12 1241.456,365.12 
	1241.546,330.749 1228.796,330.509 1227.112,356.73 1214.362,365.12 "/>
<polygon fill="#222222" points="1285.33,365.12 1287.495,283.117 1298.08,267.479 1362.312,267.479 1362.312,289.612 
	1351.968,295.145 1325.023,295.626 1325.264,298.513 1356.298,298.272 1356.298,319.923 1348.118,327.862 1323.82,328.584 
	1323.82,332.433 1362.312,332.674 1362.312,354.806 1347.156,363.586 "/>
<path fill="#222222" d="M1678.54,557.365c-28.869,0-49.798,35.725-49.798,60.624s16.96,28.508,26.703,28.508
	c9.742,0,48.715-21.651,48.715-58.459C1704.16,571.438,1698.026,557.365,1678.54,557.365z"/>
<path fill="#222222" d="M2173.03,611.489l-18.283,19.246c0,0-6.735,39.46-18.283,54.372c0,0,18.764-99.118-39.453-99.118
	c-58.219,0-110.662,94.784-110.662,94.784l-8.66-2.887c0,0,15.876-81.794-38.492-81.794c-16.838,0-51.962,21.651-51.962,21.651
	s-68.32,39.934-96.228,188.605c0,0-13.471,17.322-17.32,15.879c-3.851-1.443,20.688-80.35,58.218-141.937l-31.756-28.868
	l-37.048,15.878l-15.396,17.806l7.217-22.136l-38.492-22.613l-38.49,29.35c0,0-34.162,113.067-61.104,150.597
	c0,0,29.831-99.597,45.708-140.493l-42.34-19.245l-33.68,26.942l-27.906,121.729c0,0-31.754,49.558-38.49,46.189
	s22.131-109.219,60.622-163.105l-38.491-23.577l-34.16,22.614l-33.681,70.727l24.058-64.473l-38.01-15.397l-33.199,19.246
	l-44.746,81.312l30.312-76.982l-38.972-16.358l-20.688,2.887l-25.984,80.839l-18.764-7.698
	c19.727-69.284-10.104-90.934-28.388-90.934c-38.49,0-87.567,44.264-122.69,101.519c-35.123,57.256-34.16,126.059-34.16,126.059
	S1100.572,943,1083.25,943c-31.274,0,0-98.634,0-98.634s188.125-230.946,188.125-314.664c0-42.339-6.735-70.246-29.83-70.246
	c-18.764,0-73.133,49.557-91.898,67.36c-18.764,17.802-58.217,100.076-58.217,100.076s7.698-53.406,7.698-90.935
	c0-126.54-92.378-153.483-157.813-153.483c-168.398,0-300.229,122.689-300.229,243.936c0,76.982,59.705,146.875,127.501,174.174
	c76.929,30.974,163.106,20.688,163.106,20.688s-91.416,244.898-184.757,244.898c-22.132,0-70.727-19.727-70.727-68.322
	c0-67.359,46.669-83.237,46.669-83.237l24.057-42.821l-10.104-8.66c0,0-133.275,13.951-133.275,148.189
	c0,87.085,94.303,103.444,134.237,103.444c160.219,0,280.503-289.645,280.503-289.645s-50.038,178.982,38.973,178.982
	c40.416,0,75.539-63.51,75.539-63.51s3.368,28.868,43.784,28.868c14.915,0,45.708-40.896,45.708-40.896s1.925,25.02,26.463,25.02
	c7.217,0,44.745-41.379,44.745-41.379l-4.811,23.575l19.727,9.142l23.094-9.142l52.925-103.926l-15.396,80.831l18.765,17.803
	l30.312-8.179l32.717-59.182c0,0-7.217,64.473,26.944,64.473c24.057,0,62.548-43.783,62.548-43.783s0.963,25.499,20.208,25.499
	s55.33-41.859,55.33-41.859l-2.405,12.51l25.981,13.473l26.944-6.736l35.122-91.898l21.17-26.461c0,0-45.707,113.066,18.283,113.066
	c24.058,0,53.407-34.643,53.407-34.643s5.772,34.643,36.085,34.643s47.633-22.133,47.633-22.133l-70.728,194.86l22.133,21.651
	l46.671-41.859l82.755-228.059c0,0,11.55,49.556,44.267,49.556c70.245,0,112.585-122.688,112.585-122.688
	s47.632-8.179,61.586-75.057L2173.03,611.489z M1157.106,626.648c36.085-78.666,61.345-103.204,61.345-103.204
	s-7.217,41.859-38.972,106.091c-31.755,64.231-68.562,119.082-68.562,119.082S1121.021,705.314,1157.106,626.648z M957.193,755.112
	h-2.887C807.078,784.702,739.96,698.819,739.96,610.05c0-93.822,77.944-196.304,178.262-196.304
	c79.387,0,96.708,58.458,96.708,105.369C1014.93,630.979,957.193,755.112,957.193,755.112z M1251.65,782.538
	c-15.155,46.91-48.354,119.803-59.18,119.803s-10.104-19.486,12.99-82.997c23.095-63.51,59.902-107.534,59.902-107.534
	S1266.806,735.626,1251.65,782.538z M1306.5,839.553c-5.774,13.953-21.651,38.491-24.058,38.491
	c-2.405,0,4.812-19.727,13.953-38.972c9.142-19.246,20.689-38.01,20.689-38.01S1312.273,825.599,1306.5,839.553z M1919.47,717.826
	c-18.283,57.738-59.661,109.7-63.99,109.7c-4.33,0-12.51-28.388,18.282-104.407c30.793-76.02,60.142-99.114,60.142-99.114
	S1937.754,660.09,1919.47,717.826z M2059.482,688.478c1.388,23.613,7.216,33.68,7.216,33.68
	c-16.358,67.359-44.265,84.199-47.633,84.199s-18.283-3.85,0-68.804c18.283-64.953,61.105-103.443,61.105-103.443
	S2058.037,663.939,2059.482,688.478z"/>
<polygon fill="#FF3A55" points="1148.927,286.724 1128.479,286.724 1128.479,271.328 1182.366,271.328 1182.366,286.724 
	1163.842,286.724 1161.196,349.513 1146.521,349.513 "/>
<polygon fill="#FF3A55" points="1209.31,272.29 1206.904,350.716 1222.301,350.716 1223.744,320.164 1256.942,319.923 
	1255.98,351.918 1271.136,351.918 1274.264,272.29 1258.626,272.29 1257.183,306.932 1223.984,306.932 1224.946,272.29 "/>
<polygon fill="#FF3A55" points="1303.372,271.328 1301.688,351.918 1357.26,350.956 1357.26,335.8 1319.25,335.8 1319.25,315.352 
	1352.208,315.111 1352.208,301.64 1318.527,302.602 1318.527,285.04 1357.26,284.8 1357.26,271.328 "/>
<path fill="#FF3A55" d="M1088.544,541.968c0-103.926-60.624-152.281-159.497-152.281c-116.917,0-251.875,90.935-251.875,221.564
	c0,107.534,98.152,170.322,217.233,170.322c49.798,0,98.875-14.434,98.875-14.434s-34.519,77.278-79.388,155.889
	c-42.825,75.029-94.564,151.558-155.889,151.558c-49.798,0-90.213-33.197-90.213-67.839c0-121.969,67.119-137.125,67.119-137.125
	s-101.761,18.764-101.761,134.237c0,62.067,66.396,90.936,125.577,90.936c148.672,0,282.188-341.368,282.188-341.368l40.416-11.187
	l3.608-10.465l-48.354,10.465C1036.581,742.241,1088.544,645.894,1088.544,541.968z M902.344,770.027
	c-132.795,0-173.209-94.544-173.209-171.045c0-75.058,73.614-195.582,199.191-195.582c139.29,0,124.134,156.61,112.586,207.13
	s-42.581,140.733-42.581,140.733S972.35,770.027,902.344,770.027z"/>
<path fill="#FF3A55" d="M1080.245,950.454c-18.043,0-31.395-37.529-6.135-111.865c0,0,189.087-230.224,189.087-316.829
	c0-27.425-5.731-54.85-17.321-54.85c-63.51,0-142.176,193.417-181.87,304.56c-39.694,111.144-42.581,204.244,6.495,204.244
	c41.137,0,84.921-94.544,84.921-94.544l6.015-30.673C1161.437,850.498,1113.804,950.454,1080.245,950.454z M1239.021,494.335
	c14.434,0,11.186,48.354-25.26,113.308c-88.62,157.937-121.247,180.428-121.247,180.428
	C1127.155,635.429,1217.729,494.335,1239.021,494.335z"/>
<path fill="#FF3A55" d="M1273.301,895.965c-11.907,0,6.135-56.653,45.107-118.72l-20.568-9.021c0,0,28.868-86.245-19.486-86.245
	c-58.098,0-128.104,136.043-128.104,203.521c0,36.086,0.722,63.51,30.673,63.51c29.95,0,59.54-60.623,59.54-60.623
	s-7.217,46.551,11.187,46.551s75.78-90.574,75.78-90.574l11.186-11.908l8.3-38.611
	C1346.915,793.844,1288.096,895.965,1273.301,895.965z M1192.47,922.308c-9.383,0-16.6-6.135-16.6-32.116
	c0-52.685,63.15-195.583,102.843-195.583c9.623,0,15.517,13.353,15.517,26.704C1294.23,800.34,1216.647,922.308,1192.47,922.308z"/>
<path fill="#FF3A55" d="M1304.094,923.751l69.284-225.653l30.792,12.509l-48.113,129.427c0,0,79.868-121.248,108.737-151.078
	l25.5,10.104c0,0-47.632,120.284-52.443,138.568l106.331-162.144l27.425,17.321c0,0-34.643,50.52-50.521,103.926
	c-15.877,53.407-11.546,74.576-5.292,74.576c14.435,0,84.2-111.624,84.2-111.624l3.848,3.85c0,0-76.021,140.974-111.624,140.974
	c-49.076,0,16.841-147.229,16.841-147.229s-52.926,65.434-99.596,153.963l-14.914-8.177c0,0,33.356-118.219,47.632-154.927
	c6.735-17.321-10.585-3.368-21.17,14.435c-10.585,17.802-75.058,109.7-98.152,166.955L1304.094,923.751z"/>
<path fill="#FF3A55" d="M1624.531,669.229c0,0-88.049,220.844-51.482,220.844c25.981,0,104.408-121.248,104.408-121.248l2.887-21.17
	c0,0-66.878,101.52-78.427,101.52c-11.546,0,51.964-165.03,51.964-165.03L1624.531,669.229z"/>
<path fill="#FF3A55" d="M1632.229,867.94c0,0,49.075-151.559,88.53-220.843l27.424,15.878l-43.784,92.378
	c0,0,87.569-94.304,92.86-98.152l28.388,22.133c0,0-26.944,34.642-44.265,82.275c-17.321,47.633-20.209,74.575-12.029,74.575
	c19.728,0,58.219-66.397,58.219-66.397l2.404,9.863c0,0-49.557,82.997-82.274,82.997c-60.142,0,41.859-178.503,41.859-178.503
	c3.368-3.368-4.331-3.851-7.217,0c-2.887,3.85-84.199,99.115-88.529,106.332l-32.237,89.011L1632.229,867.94z"/>
<path fill="#FF3A55" d="M1680.344,561.936c-19.727,0-34.161,35.122-34.161,48.113c0,12.99,8.659,19.245,17.08,19.245
	c20.929,0,35.846-23.575,35.846-48.114C1699.108,569.152,1690.407,561.936,1680.344,561.936z"/>
<path fill="#FF3A55" d="M1966.621,682.218c0,0,20.21-79.866-23.575-79.866c-54.37,0-126.061,119.803-126.061,218.918
	c0,22.13,4.812,39.451,25.983,39.451c43.302,0,95.745-97.429,95.745-97.429l-99.114,278.336l33.681-22.133l112.105-328.137
	L1966.621,682.218z M1856.439,839.068c-11.066,0-13.952-21.651-13.952-40.897c0-43.782,58.698-187.162,100.559-187.162
	c11.067,0,16.357,13.953,16.357,45.708C1959.403,725.039,1881.459,839.068,1856.439,839.068z"/>
<path fill="#FF3A55" d="M2169.18,639.396c0,0-12.992,56.293-50.039,68.32c0,0,37.049-115.953-21.17-115.953
	c-53.406,0-112.585,114.03-112.585,175.135c0,36.565,4.328,65.916,33.197,65.916c55.33,0,91.897-105.37,91.897-105.37
	s48.113-10.585,61.584-72.652L2169.18,639.396z M2027.244,819.342c-22.471,0-23.095-23.096-23.095-48.114
	c0-58.699,63.989-162.624,97.67-162.624c9.143,0,12.99,3.849,12.99,3.849c-5.772,0-29.349,14.434-36.083,54.369
	c-6.735,39.935,16.356,59.18,16.356,59.18S2059.479,819.342,2027.244,819.342z M2118.178,652.867
	c0,15.396-11.547,59.422-15.396,59.422c-3.85,0-13.018-18.4-10.104-44.024c2.405-21.167,10.586-41.859,20.207-41.859
	C2118.412,626.405,2118.178,637.472,2118.178,652.867z"/>
<path fill="#FF3A55" d="M1273.576,104.458l-1.198-11.38c0,0,11.081-9.584,33.643-9.584s39.333,13.976,39.333,29.849
	c0,18.868-34.441,35.439-52.51,48.217c0,0,16.172,0.599,30.647,0.599c22.96,0,26.954-6.189,26.954-6.189v22.662l-70.679-0.699
	c0,0-1.498-13.976-3.294-17.071c0,0,43.825-19.667,43.825-44.524c0-11.68-10.283-19.167-24.159-19.167
	C1282.261,97.17,1273.576,104.458,1273.576,104.458z"/>
<path fill="#FF3A55" d="M1408.679,86.022c-20.632,0-37.004,19.035-37.004,48.451s15.041,45.788,39.666,45.788
	c24.624,0,36.737-20.099,36.737-44.856S1436.897,86.022,1408.679,86.022z M1410.675,172.808c-11.048,0-20.365-8.519-20.365-38.734
	c0-30.215,12.646-40.73,20.365-40.73c9.317,0,19.966,13.044,19.966,37.719S1421.723,172.808,1410.675,172.808z"/>
<path fill="#FF3A55" d="M1536.46,86.955h-64.955v51.378c0,0,12.512-5.191,28.352-5.191s27.42,6.256,27.42,17.304
	s-15.574,18.235-26.755,18.235c-15.573,0-29.017-7.587-29.017-7.587l-4.393,7.587c0,0,9.85,10.516,35.672,10.516
	s42.328-11.447,42.328-32.478c0-21.031-17.57-23.693-34.341-23.693c-16.771,0-26.223,5.458-26.223,5.458l0.133-21.83
	c0,0,8.652-4.126,20.499-4.126c11.846,0,15.706,4.393,31.279,3.062V86.955z"/>
<path fill="#FF3A55" d="M1605.542,82.429c-17.703,0-39.399,13.177-39.399,51.512s25.157,44.591,36.471,44.591
	c11.314,0,38.734-8.652,38.734-48.052C1641.348,91.081,1617.255,82.429,1605.542,82.429z M1602.613,167.217
	c-6.123,0-18.9-5.856-18.9-35.406c0-29.549,11.181-39.133,18.9-39.133c2.847,0,20.766,1.198,20.766,34.208
	C1623.379,159.897,1608.737,167.217,1602.613,167.217z"/>
</svg>
