<?xml version="1.0" encoding="UTF-8"?>
<svg width="432pt" xmlns:xlink="http://www.w3.org/1999/xlink" xmlns="http://www.w3.org/2000/svg" height="432pt" viewBox="0 0 432 432" >
 <g transform="translate(131.389, 137.777)" style="fill:none; stroke:#000000; stroke-width:0.5; stroke-linecap:round; stroke-linejoin:round; stroke-dasharray:none;" >
  <path d="M87.372 67.591 C87.372 67.591 87.372 54.07 87.372 54.07 C87.372 54.07 78.282 44.51 78.282 44.51 C78.282 44.51 65.612 42.224 65.612 42.224 C65.612 42.224 53.554 46.908 53.554 46.908 C53.554 46.908 44.759 56.77 44.759 56.77 C44.759 56.77 40.555 69.548 40.555 69.548 C40.555 69.548 41.259 83.048 41.259 83.048 C41.259 83.048 46.457 95.416 46.457 95.416 C46.457 95.416 55.274 105.257 55.274 105.257 C55.274 105.257 66.592 111.66 66.592 111.66 C66.592 111.66 79.224 114.174 79.224 114.174 C79.224 114.174 92.007 112.744 92.007 112.744 C92.007 112.744 103.913 107.638 103.913 107.638 C103.913 107.638 114.087 99.373 114.087 99.373 C114.087 99.373 121.884 88.63 121.884 88.63 C121.884 88.63 126.886 76.171 126.886 76.171 C126.886 76.171 128.861 62.809 128.861 62.809 C128.861 62.809 127.79 49.335 127.79 49.335 C127.79 49.335 123.81 36.479 123.81 36.479 C123.81 36.479 117.192 24.884 117.192 24.884 C117.192 24.884 108.337 15.086 108.337 15.086 C108.337 15.086 97.692 7.5 97.692 7.5 C97.692 7.5 85.782 2.42 85.782 2.42 C85.782 2.42 73.132 0 73.132 0 C73.132 0 60.285 0.29 60.285 0.29 C60.285 0.29 47.735 3.228 47.735 3.228 C47.735 3.228 35.96 8.65 35.96 8.65 C35.96 8.65 25.371 16.313 25.371 16.313 C25.371 16.313 16.316 25.912 16.316 25.912 C16.316 25.912 9.085 37.092 9.085 37.092 C9.085 37.092 3.875 49.452 3.875 49.452 C3.875 49.452 0.829 62.589 0.829 62.589 C0.829 62.589 0 76.084 0 76.084 C0 76.084 1.382 89.529 1.382 89.529 C1.382 89.529 4.907 102.532 4.907 102.532 C4.907 102.532 10.441 114.736 10.441 114.736 C10.441 114.736 17.811 125.817 17.811 125.817 C17.811 125.817 26.788 135.494 26.788 135.494 C26.788 135.494 37.126 143.533 37.126 143.533 C37.126 143.533 48.539 149.749 48.539 149.749 C48.539 149.749 60.734 154.017 60.734 154.017 C60.734 154.017 73.414 156.255 73.414 156.255 C73.414 156.255 86.265 156.432 86.265 156.432 C86.265 156.432 98.997 154.571 98.997 154.571 C98.997 154.571 111.322 150.73 111.322 150.73 C111.322 150.73 122.977 145.019 122.977 145.019 C122.977 145.019 133.713 137.584 133.713 137.584 C133.713 137.584 143.315 128.599 143.315 128.599 C143.315 128.599 151.601 118.256 151.601 118.256 " />
 </g>
 <g transform="translate(91.0312, 95.2002)" style="fill:none; stroke:#000000; stroke-width:0.5; stroke-linecap:round; stroke-linejoin:round; stroke-dasharray:none;" >
  <path d="M191.959 160.833 C191.959 160.833 198.768 149.368 198.768 149.368 C198.768 149.368 203.987 137.009 203.987 137.009 C203.987 137.009 207.525 124.01 207.525 124.01 C207.525 124.01 209.334 110.622 209.334 110.622 C209.334 110.622 209.391 97.1008 209.391 97.1008 C209.391 97.1008 207.714 83.6948 207.714 83.6948 C207.714 83.6948 204.354 70.6448 204.354 70.6448 C204.354 70.6448 199.376 58.1768 199.376 58.1768 C199.376 58.1768 192.888 46.5048 192.888 46.5048 C192.888 46.5048 185.008 35.8208 185.008 35.8208 C185.008 35.8208 175.88 26.2958 175.88 26.2958 C175.88 26.2958 165.672 18.0788 165.672 18.0788 C165.672 18.0788 154.557 11.2918 154.557 11.2918 C154.557 11.2918 142.711 6.0348 142.711 6.0348 C142.711 6.0348 130.339 2.376 130.339 2.376 C130.339 2.376 117.629 0.3584 117.629 0.3584 C117.629 0.3584 104.778 0 104.778 0 C104.778 0 91.9818 1.2959 91.9818 1.2959 C91.9818 1.2959 79.4318 4.2158 79.4318 4.2158 C79.4318 4.2158 67.3058 8.7038 67.3058 8.7038 C67.3058 8.7038 55.7798 14.6878 55.7798 14.6878 C55.7798 14.6878 45.0058 22.0618 45.0058 22.0618 C45.0058 22.0618 35.1348 30.7278 35.1348 30.7278 C35.1348 30.7278 26.2958 40.5428 26.2958 40.5428 C26.2958 40.5428 18.6018 51.3728 18.6018 51.3728 C18.6018 51.3728 12.1478 63.0678 12.1478 63.0678 C12.1478 63.0678 7.0108 75.4658 7.0108 75.4658 C7.0108 75.4658 3.253 88.3958 3.253 88.3958 C3.253 88.3958 0.9073 101.689 0.9073 101.689 C0.9073 101.689 0 115.18 0 115.18 C0 115.18 0.5313 128.689 0.5313 128.689 C0.5313 128.689 2.4883 142.055 2.4883 142.055 C2.4883 142.055 5.836 155.11 5.836 155.11 C5.836 155.11 10.5238 167.697 10.5238 167.697 C10.5238 167.697 16.4898 179.677 16.4898 179.677 C16.4898 179.677 23.6558 190.901 23.6558 190.901 C23.6558 190.901 31.9338 201.247 31.9338 201.247 C31.9338 201.247 41.2168 210.6 41.2168 210.6 C41.2168 210.6 51.3948 218.86 51.3948 218.86 C51.3948 218.86 62.3458 225.941 62.3458 225.941 C62.3458 225.941 73.9458 231.764 73.9458 231.764 C73.9458 231.764 86.0628 236.278 86.0628 236.278 C86.0628 236.278 98.5608 239.436 98.5608 239.436 C98.5608 239.436 111.305 241.216 111.305 241.216 C111.305 241.216 124.153 241.605 124.153 241.605 C124.153 241.605 136.974 240.603 136.974 240.603 C136.974 240.603 149.627 238.231 149.627 238.231 C149.627 238.231 161.988 234.516 161.988 234.516 C161.988 234.516 173.928 229.513 173.928 229.513 C173.928 229.513 185.332 223.266 185.332 223.266 " />
 </g>
 <g transform="translate(50.6602, 52.6992)" style="fill:none; stroke:#000000; stroke-width:0.5; stroke-linecap:round; stroke-linejoin:round; stroke-dasharray:none;" >
  <path d="M225.703 265.767 C225.703 265.767 236.456 258.359 236.456 258.359 C236.456 258.359 246.452 249.857 246.452 249.857 C246.452 249.857 255.598 240.357 255.598 240.357 C255.598 240.357 263.81 229.954 263.81 229.954 C263.81 229.954 271.016 218.757 271.016 218.757 C271.016 218.757 277.146 206.872 277.146 206.872 C277.146 206.872 282.152 194.418 282.152 194.418 C282.152 194.418 285.989 181.51 285.989 181.51 C285.989 181.51 288.624 168.278 288.624 168.278 C288.624 168.278 290.045 154.838 290.045 154.838 C290.045 154.838 290.244 141.317 290.244 141.317 C290.244 141.317 289.22 127.838 289.22 127.838 C289.22 127.838 286.986 114.524 286.986 114.524 C286.986 114.524 283.578 101.487 283.578 101.487 C283.578 101.487 279.021 88.8408 279.021 88.8408 C279.021 88.8408 273.361 76.7018 273.361 76.7018 C273.361 76.7018 266.657 65.1628 266.657 65.1628 C266.657 65.1628 258.963 54.3288 258.963 54.3288 C258.963 54.3288 250.358 44.2852 250.358 44.2852 C250.358 44.2852 240.914 35.1133 240.914 35.1133 C240.914 35.1133 230.71 26.8877 230.71 26.8877 C230.71 26.8877 219.841 19.669 219.841 19.669 C219.841 19.669 208.393 13.5176 208.393 13.5176 C208.393 13.5176 196.466 8.4766 196.466 8.4766 C196.466 8.4766 184.158 4.584 184.158 4.584 C184.158 4.584 171.566 1.8623 171.566 1.8623 C171.566 1.8623 158.795 0.333 158.795 0.333 C158.795 0.333 145.944 0 145.944 0 C145.944 0 133.112 0.8692 133.112 0.8692 C133.112 0.8692 120.407 2.916 120.407 2.916 C120.407 2.916 107.923 6.1309 107.923 6.1309 C107.923 6.1309 95.7528 10.4805 95.7528 10.4805 C95.7528 10.4805 83.9858 15.9287 83.9858 15.9287 C83.9858 15.9287 72.7148 22.4258 72.7148 22.4258 C72.7148 22.4258 62.0188 29.9248 62.0188 29.9248 C62.0188 29.9248 51.9748 38.3662 51.9748 38.3662 C51.9748 38.3662 42.6601 47.6808 42.6601 47.6808 C42.6601 47.6808 34.1328 57.8018 34.1328 57.8018 C34.1328 57.8018 26.456 68.6458 26.456 68.6458 C26.456 68.6458 19.6777 80.1368 19.6777 80.1368 C19.6777 80.1368 13.8505 92.1898 13.8505 92.1898 C13.8505 92.1898 9.0078 104.717 9.0078 104.717 C9.0078 104.717 5.1845 117.625 5.1845 117.625 C5.1845 117.625 2.3984 130.823 2.3984 130.823 C2.3984 130.823 0.666 144.224 0.666 144.224 C0.666 144.224 0 157.728 0 157.728 C0 157.728 0.3974 171.241 0.3974 171.241 C0.3974 171.241 1.8535 184.676 1.8535 184.676 C1.8535 184.676 4.3554 197.943 4.3554 197.943 C4.3554 197.943 7.8798 210.947 7.8798 210.947 " />
 </g>
 <g transform="translate(58.54, 43.8867)" style="fill:none; stroke:#000000; stroke-width:0.5; stroke-linecap:round; stroke-linejoin:round; stroke-dasharray:none;" >
  <path d="M0 219.759 C0 219.759 4.5235 232.412 4.5235 232.412 C4.5235 232.412 10.0098 244.641 10.0098 244.641 C10.0098 244.641 16.4209 256.362 16.4209 256.362 C16.4209 256.362 23.7129 267.499 23.7129 267.499 C23.7129 267.499 31.834 277.979 31.834 277.979 C31.834 277.979 40.7295 287.738 40.7295 287.738 C40.7295 287.738 50.341 296.719 50.341 296.719 C50.341 296.719 60.602 304.867 60.602 304.867 C60.602 304.867 71.444 312.129 71.444 312.129 C71.444 312.129 82.802 318.462 82.802 318.462 C82.802 318.462 94.6 323.832 94.6 323.832 C94.6 323.832 106.761 328.203 106.761 328.203 C106.761 328.203 119.215 331.56 119.215 331.56 C119.215 331.56 131.877 333.88 131.877 333.88 C131.877 333.88 144.677 335.154 144.677 335.154 C144.677 335.154 157.529 335.37 157.529 335.37 C157.529 335.37 170.359 334.541 170.359 334.541 C170.359 334.541 183.091 332.671 183.091 332.671 C183.091 332.671 195.645 329.771 195.645 329.771 C195.645 329.771 207.952 325.866 207.952 325.866 C207.952 325.866 219.936 320.976 219.936 320.976 C219.936 320.976 231.53 315.139 231.53 315.139 C231.53 315.139 242.668 308.387 242.668 308.387 C242.668 308.387 253.286 300.767 253.286 300.767 C253.286 300.767 263.321 292.321 263.321 292.321 C263.321 292.321 272.727 283.098 272.727 283.098 C272.727 283.098 281.439 273.158 281.439 273.158 C281.439 273.158 289.419 262.556 289.419 262.556 C289.419 262.556 296.62 251.359 296.62 251.359 C296.62 251.359 303.005 239.622 303.005 239.622 C303.005 239.622 308.543 227.418 308.543 227.418 C308.543 227.418 313.205 214.816 313.205 214.816 C313.205 214.816 316.959 201.886 316.959 201.886 C316.959 201.886 319.801 188.698 319.801 188.698 C319.801 188.698 321.706 175.327 321.706 175.327 C321.706 175.327 322.674 161.841 322.674 161.841 C322.674 161.841 322.7 148.318 322.7 148.318 C322.7 148.318 321.784 134.832 321.784 134.832 C321.784 134.832 319.936 121.453 319.936 121.453 C319.936 121.453 317.17 108.246 317.17 108.246 C317.17 108.246 313.498 95.2863 313.498 95.2863 C313.498 95.2863 308.945 82.6413 308.945 82.6413 C308.945 82.6413 303.536 70.3773 303.536 70.3773 C303.536 70.3773 297.299 58.5533 297.299 58.5533 C297.299 58.5533 290.274 47.2266 290.274 47.2266 C290.274 47.2266 282.498 36.461 282.498 36.461 C282.498 36.461 274.009 26.3086 274.009 26.3086 C274.009 26.3086 264.851 16.8184 264.851 16.8184 C264.851 16.8184 255.079 8.0352 255.079 8.0352 C255.079 8.0352 244.737 0 244.737 0 " />
 </g>
 <g transform="translate(10.2861, 10.2861)" style="fill:none; stroke:#000000; stroke-width:0.5; stroke-linecap:round; stroke-linejoin:round; stroke-dasharray:none;" >
  <path d="M292.991 33.6006 C292.991 33.6006 282.139 26.3604 282.139 26.3604 C282.139 26.3604 270.825 19.9414 270.825 19.9414 C270.825 19.9414 259.11 14.3721 259.11 14.3721 C259.11 14.3721 247.052 9.6856 247.052 9.6856 C247.052 9.6856 234.714 5.8965 234.714 5.8965 C234.714 5.8965 222.152 3.0284 222.152 3.0284 C222.152 3.0284 209.429 1.0801 209.429 1.0801 C209.429 1.0801 196.611 0.0733 196.611 0.0733 C196.611 0.0733 183.76 0 183.76 0 C183.76 0 170.93 0.8643 170.93 0.8643 C170.93 0.8643 158.19 2.6563 158.19 2.6563 C158.19 2.6563 145.597 5.3653 145.597 5.3653 C145.597 5.3653 133.207 8.9815 133.207 8.9815 C133.207 8.9815 121.085 13.4785 121.085 13.4785 C121.085 13.4785 109.287 18.8389 109.287 18.8389 C109.287 18.8389 97.8569 25.0303 97.8569 25.0303 C97.8569 25.0303 86.8575 32.0284 86.8575 32.0284 C86.8575 32.0284 76.3389 39.7959 76.3389 39.7959 C76.3389 39.7959 66.3379 48.293 66.3379 48.293 C66.3379 48.293 56.9073 57.4815 56.9073 57.4815 C56.9073 57.4815 48.0899 67.3184 48.0899 67.3184 C48.0899 67.3184 39.9209 77.7598 39.9209 77.7598 C39.9209 77.7598 32.4346 88.7539 32.4346 88.7539 C32.4346 88.7539 25.6651 100.245 25.6651 100.245 C25.6651 100.245 19.6426 112.194 19.6426 112.194 C19.6426 112.194 14.3897 124.532 14.3897 124.532 C14.3897 124.532 9.9268 137.216 9.9268 137.216 C9.9268 137.216 6.2764 150.181 6.2764 150.181 C6.2764 150.181 3.4473 163.369 3.4473 163.369 C3.4473 163.369 1.4561 176.732 1.4561 176.732 C1.4561 176.732 0.3067 190.196 0.3067 190.196 C0.3067 190.196 0 203.714 0 203.714 C0 203.714 0.5401 217.227 0.5401 217.227 C0.5401 217.227 1.918 230.671 1.918 230.671 C1.918 230.671 4.1299 243.989 4.1299 243.989 C4.1299 243.989 7.1621 257.131 7.1621 257.131 C7.1621 257.131 10.9981 270.034 10.9981 270.034 C10.9981 270.034 15.6299 282.649 15.6299 282.649 C15.6299 282.649 21.0254 294.922 21.0254 294.922 C21.0254 294.922 27.1641 306.802 27.1641 306.802 C27.1641 306.802 34.0196 318.241 34.0196 318.241 C34.0196 318.241 41.5586 329.189 41.5586 329.189 C41.5586 329.189 49.7578 339.609 49.7578 339.609 C49.7578 339.609 58.5703 349.449 58.5703 349.449 C58.5703 349.449 67.9619 358.681 67.9619 358.681 C67.9619 358.681 77.8985 367.261 77.8985 367.261 C77.8985 367.261 88.335 375.153 88.335 375.153 C88.335 375.153 99.2259 382.337 99.2259 382.337 C99.2259 382.337 110.531 388.774 110.531 388.774 C110.531 388.774 122.199 394.446 122.199 394.446 " />
 </g>
 <g transform="translate(132.485, 200.392)" style="fill:none; stroke:#000000; stroke-width:0.5; stroke-linecap:round; stroke-linejoin:round; stroke-dasharray:none;" >
  <path d="M0 204.34 C0 204.34 11.985 209.226 11.985 209.226 C11.985 209.226 24.241 213.304 24.241 213.304 C24.241 213.304 36.716 216.561 36.716 216.561 C36.716 216.561 49.361 218.989 49.361 218.989 C49.361 218.989 62.126 220.579 62.126 220.579 C62.126 220.579 74.961 221.322 74.961 221.322 C74.961 221.322 87.818 221.222 87.818 221.222 C87.818 221.222 100.639 220.277 100.639 220.277 C100.639 220.277 113.383 218.493 113.383 218.493 C113.383 218.493 125.994 215.883 125.994 215.883 C125.994 215.883 138.426 212.453 138.426 212.453 C138.426 212.453 150.635 208.219 150.635 208.219 C150.635 208.219 162.571 203.2 162.571 203.2 C162.571 203.2 174.192 197.42 174.192 197.42 C174.192 197.42 185.45 190.892 185.45 190.892 C185.45 190.892 196.31 183.656 196.31 183.656 C196.31 183.656 206.721 175.729 206.721 175.729 C206.721 175.729 216.658 167.145 216.658 167.145 C216.658 167.145 226.075 157.943 226.075 157.943 C226.075 157.943 234.94 148.15 234.94 148.15 C234.94 148.15 243.221 137.812 243.221 137.812 C243.221 137.812 250.893 126.961 250.893 126.961 C250.893 126.961 257.926 115.642 257.926 115.642 C257.926 115.642 264.289 103.896 264.289 103.896 C264.289 103.896 269.97 91.765 269.97 91.765 C269.97 91.765 274.948 79.297 274.948 79.297 C274.948 79.297 279.198 66.537 279.198 66.537 C279.198 66.537 282.714 53.529 282.714 53.529 C282.714 53.529 285.484 40.327 285.484 40.327 C285.484 40.327 287.496 26.969 287.496 26.969 C287.496 26.969 288.745 13.513 288.745 13.513 C288.745 13.513 289.229 0 289.229 0 " />
 </g>
</svg>
