<?xml version="1.0" encoding="utf-8"?>
<!-- Generator: Adobe Illustrator 16.0.4, SVG Export Plug-In . SVG Version: 6.00 Build 0)  -->
<!DOCTYPE svg PUBLIC "-//W3C//DTD SVG 1.1//EN" "http://www.w3.org/Graphics/SVG/1.1/DTD/svg11.dtd">
<svg version="1.1" id="Layer_1" xmlns="http://www.w3.org/2000/svg" xmlns:xlink="http://www.w3.org/1999/xlink" x="0px" y="0px"
	 width="2800px" height="1200px" viewBox="0 0 2800 1200" enable-background="new 0 0 2800 1200" xml:space="preserve">
<rect y="-1.4" fill="#52B5AC" width="2800" height="1200.9"/>
<path d="M1225.895,110.22V90.087c0,0,17.672-1.119,26.62-12.304c8.948-11.185,10.29-12.751,10.29-12.751l11.856-1.119
	c0,0-1.342,109.167-1.342,120.799c0,10.291,10.737,8.501,10.737,8.501v14.317h-53.729l0.042-12.303c0,0,7.83-0.671,7.83-9.172
	c0-8.5-0.448-67.782-0.448-72.256C1237.751,109.325,1225.895,110.22,1225.895,110.22z"/>
<path d="M1290.32,207.531c0,0,0-23.042,0-44.293c0-21.252,17.225-31.542,34.449-40.714c17.226-9.172,22.595-20.581,22.595-29.082
	s-5.816-18.12-14.766-18.12c-8.948,0-11.632,5.593-11.632,5.593s6.711,2.908,6.711,16.106c0,13.199-10.291,21.476-18.791,21.476
	s-19.462-6.711-19.462-21.923c0-15.212,14.317-34.45,45.188-34.45s50.557,14.541,50.557,38.029
	c0,30.871-21.936,39.119-37.582,46.754c-27.963,13.646-28.858,22.818-28.858,22.818s3.804-1.566,10.291-1.566
	c6.488,0,21.252,3.579,31.989,3.579c10.738,0,13.87-11.409,13.87-11.409l10.29,0.224l-1.118,37.806c0,0-1.565,11.632-16.778,11.632
	c-15.211,0-32.213-8.948-46.082-8.948c-13.87,0-18.567,6.487-18.567,6.487L1290.32,207.531L1290.32,207.531z"/>
<path d="M1395.684,96.574l6.04-27.739c0,0,5.816-6.711,15.437-6.711s25.727,6.264,44.965,6.264c13.064,0,15.883-6.264,15.883-6.264
	h7.605v24.831l-32.213,26.173c0,0,40.267,1.118,40.267,46.53c0,45.412-44.965,51.899-52.794,51.899
	c-7.83,0-45.188-2.461-45.188-40.938c0-15.659,13.422-23.937,21.027-23.937c7.606,0,21.699,5.593,21.699,20.581
	c0,17.896-16.106,18.568-16.106,18.568s3.355,4.921,14.541,4.921s19.238-15.212,19.238-24.831c0-17.001-11.855-28.857-20.134-28.857
	c-17.001,0-20.804,3.803-20.804,3.803l-2.462-14.541l31.989-28.634c0,0-3.579,0-7.604,0c-4.027,0-8.055-3.58-16.33-3.58
	c-8.277,0-11.633,6.488-11.633,6.488L1395.684,96.574z"/>
<path d="M1499.706,69.73l9.619-7.606c0,0,4.921,0,10.29,0s18.791,6.04,37.582,6.04c15.665,0,18.204-5.509,18.204-5.509l7.718,0.503
	l-0.503,24.831l-34.061,25.837c0,0,41.749-1.035,41.749,45.16c0,46.195-46.194,53.689-55.701,53.689
	c-9.508,0-39.818-6.488-39.818-40.714c0-16.666,14.205-23.377,22.258-23.377c8.054,0,19.016,7.382,19.016,21.699
	c0,15.436-15.323,20.581-15.323,20.581s5.257,4.921,15.212,4.921c9.954,0,17.561-5.034,17.561-27.739s-15.883-30.983-24.606-30.983
	c-8.725,0-14.876,5.145-14.876,5.145l-1.344-19.238l25.502-23.377c0,0-4.25-0.224-7.046-0.224c-2.797,0-9.508-5.034-19.686-5.034
	c-8.837,0-9.955,5.146-9.955,5.146l-9.731-5.593L1499.706,69.73z"/>
<path fill="#786EB1" d="M1232.381,91.876c0,0,19.238,4.697,34.003-24.831h5.146c0,0-2.237,107.154-2.237,117.892
	s10.961,11.633,10.961,11.633v4.474h-44.293v-4.698c0,0,9.619-1.79,9.619-11.185s0.671-69.125,0.671-76.059
	c0-11.409-13.87-9.619-13.87-9.619L1232.381,91.876L1232.381,91.876z"/>
<path fill="#786EB1" d="M1314.927,82.705c0,0,8.948,2.237,8.948,13.422s-10.067,14.988-15.883,14.988
	c-5.816,0-11.856-5.145-11.856-14.205c0-9.061,8.5-31.878,42.28-31.878c41.609,0,43.622,31.99,43.622,39.148
	c0,20.357-20.804,32.437-40.938,41.385c-20.134,8.948-30.424,16.106-29.528,30.2c0,0,5.145-4.474,16.105-4.474
	s25.279,4.474,36.464,4.474c12.527,0,14.988-12.975,14.988-12.975l3.803,0.224l-1.789,35.569c0,0-8.054,2.46-20.581,2.46
	c-12.526,0-22.146-6.487-38.699-6.487c-16.555,0-19.462,4.922-19.462,4.922l-5.369-0.895c0,0,0.895-21.028,0.895-32.437
	s7.606-25.726,31.766-36.687c24.16-10.962,29.082-23.713,29.082-35.122s-8.725-23.265-24.384-23.265
	S1314.927,82.705,1314.927,82.705z"/>
<path fill="#786EB1" d="M1404.632,90.982l6.265-24.384c0,0,3.804-0.895,12.079-0.895c8.277,0,20.805,6.152,36.353,6.152
	c18.344,0,19.798-6.823,19.798-6.823h4.25l-0.782,20.804l-37.022,29.864c0,0,44.069-1.901,44.069,43.51
	c0,42.057-42.504,44.517-51.005,44.517c-8.5,0-34.003-6.041-34.003-35.792c0-10.067,7.606-15.212,14.988-15.212
	s13.422,5.593,13.422,16.778s-13.646,14.541-18.119,10.961c0,0,4.475,13.609,20.379,13.609c17.896,0,30.625-15.399,30.625-35.309
	c0-21.476-18.12-32.884-26.173-32.884c-13.646,0-20.805,5.816-20.805,5.816v-7.158l42.504-36.016c0,0-7.605,0.447-14.317,0.447
	c-6.711,0-17.226-3.355-26.173-3.355c-8.948,0-10.515,7.83-10.515,7.83L1404.632,90.982z"/>
<path fill="#786EB1" d="M1501.496,88.297l8.5-23.265c0,0,6.488-0.224,13.199,1.342s17.447,4.474,36.688,4.474
	c15.211,0,16.33-5.816,16.33-5.816h4.026c0,0-1.343,14.317,0,23.265c0,0-29.753,18.567-37.358,27.515
	c0,0,44.069-3.579,44.069,42.951c0,40.714-39.147,44.964-48.991,44.964c-12.527,0-34.45-2.013-34.45-35.569
	c0-13.422,11.633-14.988,13.87-14.988c5.593,0,12.975,3.803,12.975,14.541c0,10.738-10.515,17.896-17.002,15.883
	c0,0,1.344,14.764,23.938,14.764c22.595,0,27.068-26.173,27.068-36.24c0-10.066-9.396-36.463-30.647-36.463
	c-7.604,0-13.422,4.027-13.422,4.027v-9.396c0,0,39.371-29.082,38.253-31.095c-1.118-2.014-7.605,2.46-15.659,2.46
	s-21.028-6.935-28.856-6.935c-7.83,0-8.277,5.592-8.277,5.592L1501.496,88.297z"/>
<path d="M1487.077,469.459c-3.015,0-33.155,34.017-59.853,34.017c-11.556,0-5.884-21.96-5.884-21.96s9.759,1.724,17.079,1.724
	c34.017,0,74.062-65.45,74.062-97.744c0-7.751-6.891-25.405-34.447-25.405c-70.617,0-120.808,133.468-132.191,129.178
	c-11.385-4.291,55.546-85.257,55.546-90.854s-11.626-18.946-32.294-18.946s-65.019,45.212-65.019,45.212
	c-1.904-5.89,28.849-68.679,28.849-68.679c23.252-3.66,41.768-19.592,40.906-25.189s-30.141-15.07-132.191-15.07
	c-102.05,0-124.871,29.711-124.871,48.657c0,18.945,0,31.863,0,31.863s10.766-1.722,34.018-5.167
	c23.252-3.444,34.017-20.095,34.017-20.095h12.918c-2.584,7.032-58.271,129.896-58.271,147.979
	c0,18.086,24.686,31.864,33.298,32.726c8.611,0.86,15.07-0.431,18.947-6.459c7.175-11.158,2.582-18.946,15.068-54.099
	c12.487-35.153,52.963-124.166,53.395-125.889c0.431-1.723,15.932-1.723,14.64,1.292s-59.421,128.316-59.421,140.373
	c0,12.058,18.946,28.851,22.248,29.28c3.302,0.431,17.797,4.306,20.38-1.722c20.067-46.824,37.892-65.021,37.892-65.021
	s-3.014,18.946-3.014,30.572s12.487,28.85,31.003,28.85c25.405,0,40.788-15.796,40.788-15.796s13.896,28.283,45.33,28.283
	c34.017,0,78.798-43.489,83.965-54.686C1499.134,475.487,1490.092,469.459,1487.077,469.459z M1442.512,441.471
	c7.034-19.253,31.838-45.212,35.523-45.212c7.199,0-17.654,38.968-23.897,47.365S1438.421,452.666,1442.512,441.471z"/>
<path fill="#786EB1" d="M1179.636,363.534c0,0-28.935,1.55-40.476,7.319c-3.445,1.723-6.028-3.659-6.028-3.659
	s-6.027-38.107,62.005-41.553c68.034-3.443,122.976-3.684,168.792,6.891c5.599,1.292-21.099,6.027-56.838,5.167
	c-35.739-0.861-41.768,2.955-45.212,9.659s-60.285,117.979-68.033,162.146c-4.306,24.544-2.152,31.003-9.042,29.711
	s-32.127-12.128-32.725-21.099c-0.431-6.459,68.033-146.401,71.478-160.18c3.445-13.779-0.86-11.195-8.181-9.903
	c-7.319,1.292-37.892,6.458-40.476,9.473L1179.636,363.534z"/>
<path d="M2151.05,710.59c0.574-9.186,32.726-62.58,32.726-69.47c0-3.444-11.483-20.094-35.596-20.094
	c-32.727,0-86.692,64.875-86.692,64.875c16.649-49.374-4.594-41.336-24.688-41.622c-14.354-0.205-39.119,0.623-47.729,25.311
	c-8.612,24.688-47.573,127.117-58.481,124.82c-10.908-2.296,31.576-93.007,36.743-109.082s-7.463-19.95-7.463-19.95
	s14.353-13.349,20.091-37.46c5.739-24.111,0-33.875,0-38.468s24.689-13.779,19.522-19.436c-5.167-5.655-31.576,3.359-31.576,3.359
	c-3.672-4.455-24.113-18.372-26.984-16.076c-2.87,2.296,2.871,20.094,2.298,24.688c-0.574,4.594-15.627,7.021-22.104,30.543
	c-10.048,36.485,6.028,49.834,6.028,49.834s-20.84-1.508-30.601,17.438c-9.76,18.946-65.854,132.406-76.761,132.406
	c-10.907,0-0.574-59.206-0.574-59.206s6.314,2.942,13.778,2.942c29.854,0,68.319-91.285,76.933-147.55
	c8.611-56.265,11.482-105.064-26.982-105.064c-60.283,0-97.027,116.547-114.824,171.663s-37.493,137.216-50.523,137.216
	c-13.029,0,30.111-99.812,35.596-122.288c5.035-20.637-32.725-18.946-32.725-18.946s-9.186-35.596-39.04-35.596
	c-99.323,0-133.203,192.331-144.679,192.331c-11.477,0,82.099-295.673,82.099-307.729c0-5.74-6.89-10.326-34.446-13.778
	c-25.065-3.142-43.06,11.482-46.504,25.262s-28.42,127.455-28.42,127.455s-11.194-5.74-23.251-5.74
	c-81.392,0-134.345,206.109-146.975,206.109c-12.631,0,52.178-136.067,52.178-148.698s-14.286-24.687-42.418-24.687
	s-64.302,52.818-64.302,52.818s4.019-20.095,5.742-28.133c1.722-8.037-4.594-20.668-27.559-20.668s-40.763,9.186-48.227,26.983
	c-7.463,17.798-20.094,48.226-20.094,48.226c8.037-34.447,1.147-72.913-25.836-72.913c-52.244,0-95.878,52.819-95.878,52.819
	c20.668-67.746,26.984-167.644,26.984-205.666c0-38.023-33.299-57.855-58.56-57.855c-25.262,0-43.061,12.631-43.061,12.631
	l-6.889,41.911c15.501,52.819,17.797,118.844,6.912,191.183C987.353,799.578,940.801,965.5,906.354,965.5
	c-34.446,0,91.285-312.321,91.859-319.786c0.575-7.463-9.76-22.391-42.484-22.391c-32.726,0-53.394,16.648-57.986,29.28
	c-4.594,12.631-14.354,31.576-42.485,127.454C814.208,919.961,762.823,981,747.896,981c-14.928,0,155.013-354.232,155.013-397.292
	c0-10.334,0.573-71.19-62.579-71.19c-130.899,0-221.037,198.071-221.037,248.881c0,22.104,16.649,53.681,52.245,53.681
	c57.986,0,84.396-107.361,84.396-107.361l-8.611-0.143c0,0-12.058,9.473-23.252,10.334c-11.195,0.86-20.238-17.654-16.363-33.586
	c26.954-110.812,101.62-129.608,119.705-129.608c18.084,0-85.688,215.295-124.01,287.635
	c-38.323,72.34-46.073,117.12-46.073,163.625c0,22.391,7.75,69.324,51.671,69.324c67.604,0,117.982-104.634,117.982-104.634
	s4.735,45.212,50.379,45.212c83.535,0,136.498-112.384,136.498-112.384c1.292,13.348,12.057,62.005,48.656,62.005
	c49.519,0,105.926-65.02,105.926-65.02c-4.736,14.21,3.014,31.434,21.099,38.753s36.17,1.723,45.212-24.222
	c9.042-25.941,31.864-79.552,31.864-79.552s-2.584,20.238-2.584,46.504c0,26.268,18.516,45.212,44.782,45.212
	c26.266,0,62.005-45.212,62.005-45.212s15.071,25.405,46.504,25.405s58.56-38.753,58.56-38.753s15.071,16.504,36.602,16.504
	c21.529,0,48.227-26.408,48.227-26.408s13.778,26.408,46.935,26.408c33.155,0,55.978-31.146,55.978-31.146
	s8.611,20.238,34.447,20.238c25.835,0,50.811-42.484,50.811-42.484s6.027,32.15,37.461,32.15c42.197,0,81.381-51.241,81.381-51.241
	s10.766,34.447,37.031,34.447c26.267,0,57.27-32.294,57.27-32.294c-8.612,21.96,10.334,33.586,25.404,36.601
	s32.295-2.584,34.878-15.502c16.762-83.804,56.407-117.12,56.407-117.12s-10.766,51.24-10.766,77.507s24.544,45.212,47.51,45.212
	c16.074,0,82.674-13.778,82.674-75.784C2198.127,703.125,2151.05,710.59,2151.05,710.59z M1845.1,632.223
	c12.717-46.072,29.041-90.424,38.553-90.424c6.027,0-8.611,46.073-16.793,79.229c-8.182,33.154-22.821,84.396-28.42,83.104
	C1832.842,702.84,1832.943,676.257,1845.1,632.223z M1100.837,915.013c-13.348,0-15.069-27.45-6.458-48.979
	c0,0,8.182,8.182,22.391,8.182c14.211,0,34.447-17.653,34.447-17.653S1125.381,915.013,1100.837,915.013z M1143.812,790.681
	c-10.307,24.122-19.293,43.06-23.66,43.06c-4.368,0-7.009-6.604,3.507-34.447c11.483-30.408,31.612-69.064,37.461-67.603
	C1168.01,733.411,1155.735,762.771,1143.812,790.681z M1477.604,780.991c-11.194,39.398-22.391,67.817-28.85,67.817
	s-13.779-0.86,2.584-60.713c16.362-59.853,31.188-76.604,38.753-74.923C1497.843,714.896,1488.8,741.593,1477.604,780.991z
	 M1668.355,746.329c-10.334,36.17-31.003,81.382-35.309,79.659c-4.306-1.724-7.32-9.903,9.903-69.325
	c17.224-59.421,34.125-78.428,40.045-76.86C1690.316,681.74,1678.689,710.159,1668.355,746.329z M2143.298,767.428
	c-3.659,28.204-9.688,33.586-11.841,33.371s-14.21-1.938-6.028-32.725c8.181-30.787,21.314-46.289,21.314-46.289
	S2146.958,739.225,2143.298,767.428z"/>
<path fill="#786EB1" d="M1293.599,348.606c0,0,27.271-5.167,30.716,5.167s-8.611,26.409-19.52,51.097
	c-10.908,24.687-16.363,42.485-16.363,42.485s50.236-49.949,72.34-59.996c22.104-10.048,34.159,6.027,34.159,8.611
	s-20.616,25.835-30.259,39.04c-9.642,13.205-42.08,63.44-17.967,63.44c16.361,0,50.521-54.829,50.521-54.829l-1.436,20.956
	c0,0-32.438,52.818-66.023,52.818c-14.928,0-19.233-16.649-19.233-26.122c0-36.457,34.446-66.886,32.294-70.042
	c-2.153-3.158-31.905,9.825-64.158,59.995c-5.167,8.038-21.816,42.485-22.965,44.782c-1.148,2.296-16.42,0.43-23.826-18.085
	C1230.732,505.054,1299.34,355.21,1293.599,348.606z"/>
<path fill="#786EB1" d="M1444.88,470.894c21.815,0,54.754-37.83,59.995-82.387c1.146-9.76-3.73-17.51-16.649-17.51
	c-42.198,0-104.083,70.042-104.083,109.811c0,35.441,19.688,42.905,30.883,42.905c38.467,0,73.004-35.604,74.924-43.92
	c0.859-3.73-2.012-4.018-4.021-2.009s-37.892,31.29-57.411,31.29c-14.641,0-15.216-13.492-15.216-21.242
	c0-12.631,9.474-24.113,9.474-24.113S1431.388,470.894,1444.88,470.894z M1487.651,383.627c4.532,0,7.176,3.732,7.176,10.047
	c0,25.548-36.456,67.172-48.226,67.172c-6.604,0-11.771-4.306-11.771-11.77C1434.831,423.242,1477.604,383.627,1487.651,383.627z"/>
<path fill="#786EB1" d="M740.433,721.498c0,0-6.89,4.593-20.094,4.593c-13.205,0-22.965-13.778-22.965-32.726
	c0-70.616,88.415-156.735,138.938-156.735c39.613,0,18.371,56.264,4.593,87.84c-13.779,31.577-113.103,246.874-143.53,316.916
	c-30.429,70.043-0.574,110.806,21.817,110.806c63.152,0,131.474-140.659,131.474-140.659s-14.927,84.97,47.652,84.97
	c86.691,0,145.252-176.829,157.883-224.48s40.357-173.521,32.725-241.132c-4.019-35.596-48.226-49.375-78.08-32.725
	c0,0,34.643,68.08,22.965,179.699c-14.353,137.216-82.674,304.285-126.307,304.285c-28.132,0-8.038-68.895-2.296-90.138
	c5.741-21.242,50.021-172.398,80.951-239.408c3.444-7.465-1.723-12.632-24.688-17.225s-28.706-4.593-32.725,8.037
	c-4.02,12.631-19.521,93.581-69.47,198.072c-49.947,104.49-83.246,165.347-111.379,165.347c-28.132,0-1.723-62.579,9.761-88.988
	C769.141,891.438,894.3,630.212,894.3,584.857c0-39.614-22.392-60.857-54.542-60.857c-74.636,0-190.034,134.918-190.034,231.372
	c0,17.798,12.63,24.688,25.262,24.688C687.616,780.061,725.506,768.576,740.433,721.498z"/>
<path fill="#786EB1" d="M1101.556,926.458c-25.835,0-27.558-51.671-2.87-86.118c0,0,8.037,14.354,24.112,14.354
	c29.854,0,66.599-67.747,66.599-121.141c0-22.391-8.97-33.3-20.095-33.3c-59.134,0-128.028,112.527-128.028,195.201
	c0,40.189,16.649,51.672,36.17,51.672c78.08,0,152.142-155.013,152.142-155.013l8.038-45.931
	C1237.623,746.185,1146.912,926.458,1101.556,926.458z M1164.709,721.497c5.709,0,9.76,7.464,9.76,19.521
	c0,43.634-37.892,99.896-50.521,99.896c-7.463,0-14.354-3.444-14.354-17.224C1109.594,805.319,1144.615,721.497,1164.709,721.497z"
	/>
<path fill="#786EB1" d="M1191.693,904.642c0,0,47.762-183.107,53.503-196.888c5.741-13.778,18.245-7.833,24.578-7.5
	c10.909,0.574,16.074,4.021,12.057,14.928c-4.019,10.908-20.668,66.024-22.391,77.508c0,0,56.839-89.562,81.525-95.877
	c24.688-6.317,40.763,4.017,40.189,10.331c-0.575,6.316-79.804,169.366-47.079,169.366c26.982,0,72.913-119.992,87.266-140.086
	l-4.02,46.504c0,0-49.374,118.271-105.637,118.271c-15.502,0-23.539-18.946-23.539-32.726c0-13.778,22.531-88.655,32.725-111.953
	c4.02-9.188,4.73-28.942-12.63-7.465c-55.69,68.896-75.784,148.124-77.506,155.588
	C1229.014,912.105,1212.873,923.673,1191.693,904.642z"/>
<path fill="#786EB1" d="M1610.229,523.713c2.298-6.604-18.371-10.622-25.262-10.622c-6.889,0-20.668-0.732-24.111,13.699
	c-3.445,14.432-38.468,163.13-38.468,163.13s-8.038-27.558-31.003-27.558c-22.964,0-72.563,40.398-95.878,140.086
	c-16.647,71.19,22.391,82.673,31.002,82.673c42.485,0,64.876-61.432,64.876-61.432s-4.593,43.634,25.262,43.634
	c44.781,0,78.855-96.058,78.855-96.058l11.281-54.937c0,0-47.652,124.01-71.191,124.01c-12.63,0-12.057-13.779-0.573-59.135
	C1546.501,735.851,1607.932,530.316,1610.229,523.713z M1509.468,726.521c-9.163,67.962-40.905,132.764-61.715,132.764
	c-8.903,0-19.235-3.586-16.649-28.132c9.024-85.691,55.688-144.679,69.811-144.679
	C1507.428,686.476,1514.636,688.199,1509.468,726.521z"/>
<path fill="#786EB1" d="M1720.027,824.266c-19.809,0-4.736-49.947,2.152-71.263c6.89-21.312,18.945-52.747,21.529-60.498
	c2.583-7.75-3.445-13.778-12.057-13.778c-8.612,0-17.654,2.152-17.654,2.152s0.861-36.6-32.725-36.6
	c-33.588,0-96.885,71.047-96.885,160.18c0,47.796,24.544,57.269,38.323,57.269c33.155,0,54.254-45.643,54.254-45.643
	s8.183,36.6,28.851,36.6c34.446,0,84.396-130.898,84.396-130.898l6.026-52.103C1796.241,669.684,1739.834,824.266,1720.027,824.266z
	 M1635.632,841.059c-8.612,0-13.349-8.61-13.349-28.419c0-30.141,35.738-150.706,68.033-150.706c7.382,0,10.765,10.766,10.765,28.42
	C1701.081,747.621,1657.592,841.059,1635.632,841.059z"/>
<path fill="#786EB1" d="M1823.369,819.96c-21.96,0-16.906-54.584-5.167-92.146c2.151-6.891,10.334,7.319,22.391,7.319
	c27.988,0,59.002-102.594,65.449-168.36c4.308-43.92-7.319-52.103-19.376-52.103c-41.337,0-69.314,92.051-98.602,176.71
	c-29.284,84.658-17.658,153.553,14.205,153.553c60.282,0,115.397-142.524,115.397-142.524l1.292-22.606
	C1918.96,679.803,1856.955,819.96,1823.369,819.96z M1886.234,530.172c6.891,0,7.32,5.167,7.32,14.209
	c0,69.325-36.601,175.251-53.824,175.251c-10.334,0-12.057-13.349-12.057-22.821
	C1827.675,634.806,1872.025,530.172,1886.234,530.172z"/>
<path d="M773.158,1094.104c0,0,450.547-201.517,1042.029-201.517c152.717,0,363.992-18.946,363.992,59.134
	c0,78.081-163.051,69.47-196.924,69.47c-114.249,0-243.427-48.801-243.427-48.801s-39.614,27.559-114.25,27.559
	c-74.637,0-107.935-13.35-107.935-13.35s-67.307,34.018-125.227,34.018s-141.741-6.314-141.741-6.314s-48.224,33.872-110.229,33.872
	s-75.211-2.87-75.211-2.87S989.027,1092.955,773.158,1094.104z"/>
<path fill="#786EB1" d="M1961.158,675.281c0,0-35.01-13-42.198,2.152c-29.161,61.477-43.92,150.276,0,150.276
	c45.212,0,109.801-142.095,109.801-142.095l-11.194-20.238c0,0-59.422,140.373-84.396,140.373c-21.96,0-6.89-48.227,6.459-80.521
	C1952.977,692.936,1961.158,675.281,1961.158,675.281z"/>
<path fill="#786EB1" d="M1943.073,655.044c8.282,0,24.257-5.741,29.711-36.17c4.187-23.357-1.579-30.428-1.579-30.428l13.636-14.21
	c0,0-5.022-1.866-17.94,6.314l-11.482-10.334c-2.08-2.081,3.301,12.488,1.723,16.938s-22.246,26.266-22.246,43.346
	C1934.893,641.982,1938.525,655.044,1943.073,655.044z"/>
<path fill="#786EB1" d="M2060.336,655.044c0,0-22.388-3.588-31.575-2.438c-9.188,1.146-9.762-3.445-48.803,168.791
	c0,0,14.346,10.334,33.3,10.334c4.021,0,14.432-100.955,105.639-169.365c4.594-3.445-36.743,67.746-36.743,119.99
	c0,31.577,22.39,39.04,40.763,39.04c18.372,0,68.32-31.721,68.32-68.393c0-31.504-31.002-35.522-31.002-35.522
	s6.313,88.988-26.984,88.988c-24.687,0-20.668-34.447,4.594-88.415s38.466-74.061,37.317-77.505
	c-1.147-3.445-17.798-18.947-35.596-9.761c-17.798,9.185-57.986,36.169-99.323,99.035L2060.336,655.044z"/>
<path fill="#786EB1" d="M852.387,1069.703c0,0,452.12-166.208,980.024-166.208c269.55,0,334.139,4.306,334.139,48.226
	c0,42.198-94.729,34.878-126.594,34.878c-138.649,0-293.663-46.072-301.413-46.072c-7.751,0-26.697,27.558-103.342,27.558
	c-76.646,0-114.537-16.362-119.705-16.362c-5.167,0-55.115,43.061-145.539,43.061s-113.069-12.058-121.123-12.058
	s-38.223,33.357-100.201,39.614c-59.709,6.028-86.118-1.723-86.118-1.723s-65.45,31.864-137.789,40.476
	S852.387,1069.703,852.387,1069.703z"/>
</svg>
