<?xml version="1.0"?><svg width="595.276" height="841.89" xmlns="http://www.w3.org/2000/svg" xmlns:xlink="http://www.w3.org/1999/xlink">
 <title>this many</title>
 <metadata id="metadata2999">image/svg+xml</metadata>
 <defs>
  <linearGradient id="linearGradient3774">
   <stop stop-color="#ffccaa" id="stop3776" offset="0"/>
   <stop stop-color="#ffccaa" stop-opacity="0" id="stop3778" offset="1"/>
  </linearGradient>
  <linearGradient gradientUnits="userSpaceOnUse" y2="716.71271" x2="316.34882" y1="531.04877" x1="317.48871" id="linearGradient3780" xlink:href="#linearGradient3774"/>
  <linearGradient y2="1.096042" x2="0.612964" y1="0.757116" x1="0.615928" id="linearGradient3786" xlink:href="#linearGradient3774"/>
 </defs>
 <g>
  <title>Layer 1</title>
  <text transform="matrix(40.6793 0 0 3.82134 -3118.56 -155.138)" xml:space="preserve" text-anchor="middle" font-family="Arial" font-size="24" id="svg_1" y="66.109985" x="83.723999" stroke-width="0" stroke="#000000" fill="#000000"/>
  <g id="svg_4">
   <g id="svg_6">
    <path id="svg_7" fill="url(#linearGradient3786)" d="m241.907364,701.945862l193.499008,0l0,-35.85199l0.027954,-2.69696l0.085999,-2.695068l0.143036,-2.693909l0.199982,-2.689087l0.258972,-2.684937l0.314056,-2.679016l0.371979,-2.671021l0.427979,-2.663025l0.485016,-2.652954l0.542023,-2.641968l0.596985,-2.630066l0.651978,-2.616943l0.708008,-2.602051l0.764038,-2.586975l0.81897,-2.570007l0.872986,-2.552002l0.927002,-2.532043l0.980988,-2.513l1.033051,-2.490906l1.086975,-2.468079l1.138977,-2.445007l1.192047,-2.419922l1.240997,-2.394043l1.291992,-2.367004l1.34198,-2.33905l1.392029,-2.309937l1.441956,-2.280029l1.489014,-2.248962l1.535034,-2.217041l1.666962,-2.402954l1.617035,-2.436035l1.565979,-2.468994l1.515991,-2.500977l1.463013,-2.532043l1.411987,-2.560913l1.357971,-2.589111l1.305023,-2.616943l1.251007,-2.643982l1.196014,-2.66803l1.141998,-2.691956l1.083984,-2.716064l1.031006,-2.737l0.971954,-2.756958l0.917053,-2.776978l0.858002,-2.795044l0.802002,-2.812988l0.742004,-2.828003l0.685974,-2.842957l0.625,-2.856018l0.569031,-2.869019l0.507965,-2.879028l0.449005,-2.890015l0.390015,-2.89801l0.329956,-2.904968l0.269043,-2.911987l0.209961,-2.916931l0.150024,-2.920044l0.091003,-2.923035l0.029999,-2.923981l0,-166.838989l-0.028992,-1.427002l-0.086029,-1.424042l-0.143982,-1.419983l-0.200012,-1.412964l-0.257019,-1.403015l-0.312958,-1.392029l-0.371002,-1.378998l-0.424011,-1.361969l-0.478027,-1.345032l-0.533997,-1.322998l-0.585999,-1.302002l-0.636963,-1.27597l-0.689026,-1.250031l-0.737,-1.221985l-0.787994,-1.190002l-0.834015,-1.15799l-0.878967,-1.123016l-0.924988,-1.086975l-0.968018,-1.049011l-1.008026,-1.008972l-1.049957,-0.968018l-1.087006,-0.924011l-1.124023,-0.879974l-1.156982,-0.835052l-1.19101,-0.78598l-1.220032,-0.738983l-1.25,-0.687988l-1.276978,-0.638l-1.302002,-0.585022l-1.323975,-0.53302l-1.344025,-0.478973l-1.361969,-0.424988l-1.379028,-0.368988l-1.390991,-0.314026l-1.403992,-0.256989l-1.414001,-0.200012l-1.419006,-0.143982l-1.424988,-0.086029l-1.427002,-0.028992l-1.426025,0.028992l-1.424988,0.086029l-1.419006,0.143982l-1.411987,0.200012l-1.405029,0.256989l-1.391968,0.314026l-1.379028,0.368988l-1.362,0.424988l-1.342957,0.478973l-1.325012,0.53302l-1.302002,0.585022l-1.276001,0.638l-1.249023,0.687988l-1.221985,0.738983l-1.190033,0.78598l-1.15799,0.835052l-1.122955,0.879974l-1.088013,0.924011l-1.048004,0.968018l-1.01001,1.008972l-0.968018,1.049011l-0.924011,1.086975l-0.879944,1.123016l-0.835022,1.15799l-0.785034,1.190002l-0.73996,1.221985l-0.687988,1.250031l-0.637024,1.27597l-0.585999,1.302002l-0.532013,1.322998l-0.479004,1.345032l-0.425964,1.361969l-0.368042,1.378998l-0.315002,1.392029l-0.256958,1.403015l-0.199036,1.412964l-0.143982,1.419983l-0.086975,1.424042l-0.029053,1.427002l0,-30.299988l-0.027954,-1.431l-0.087036,-1.430054l-0.143982,-1.424988l-0.200989,-1.417969l-0.257996,-1.408997l-0.315002,-1.397034l-0.371033,-1.382965l-0.425995,-1.367981l-0.480988,-1.34903l-0.53302,-1.328979l-0.588989,-1.30603l-0.639984,-1.281006l-0.690033,-1.253998l-0.740967,-1.225983l-0.789978,-1.195007l-0.838013,-1.161987l-0.882996,-1.127014l-0.928009,-1.091003l-0.970001,-1.052979l-1.014008,-1.013031l-1.053009,-0.971008l-1.089966,-0.928009l-1.127014,-0.882996l-1.162994,-0.837006l-1.194,-0.789948l-1.226013,-0.741028l-1.255005,-0.690979l-1.281982,-0.640015l-1.306,-0.588013l-1.328033,-0.533997l-1.348999,-0.480988l-1.367981,-0.425995l-1.382996,-0.371033l-1.397034,-0.314972l-1.408997,-0.257996l-1.417969,-0.201019l-1.424011,-0.143982l-1.430969,-0.087036l-1.432037,-0.027954l-1.431,0.027954l-1.429962,0.087036l-1.425018,0.143982l-1.41803,0.201019l-1.408997,0.257996l-1.396973,0.314972l-1.384003,0.371033l-1.367035,0.425995l-1.348969,0.480988l-1.328003,0.533997l-1.307037,0.588013l-1.281006,0.640015l-1.254944,0.690979l-1.225006,0.741028l-1.194,0.789948l-1.162994,0.837006l-1.128021,0.882996l-1.091003,0.928009l-1.052002,0.971008l-1.013,1.013031l-0.970978,1.052979l-0.928009,1.091003l-0.883026,1.127014l-0.837006,1.161987l-0.789978,1.195007l-0.741028,1.225983l-0.689972,1.253998l-0.640015,1.281006l-0.588959,1.30603l-0.535034,1.328979l-0.479004,1.34903l-0.427979,1.367981l-0.369995,1.382965l-0.315033,1.397034l-0.256989,1.408997l-0.200989,1.417969l-0.144012,1.424988l-0.086975,1.430054l-0.029999,1.431l0,-13.561005l-0.027039,-1.432007l-0.086975,-1.429016l-0.143982,-1.424988l-0.20105,-1.419006l-0.257965,-1.40799l-0.31601,-1.397003l-0.370972,-1.384033l-0.425049,-1.367004l-0.480957,-1.348969l-0.535034,-1.32901l-0.586975,-1.30603l-0.640015,-1.280945l-0.691986,-1.255005l-0.740997,-1.226044l-0.790039,-1.194l-0.836975,-1.161987l-0.882996,-1.127991l-0.927002,-1.090973l-0.971985,-1.053009l-1.013,-1.011993l-1.052002,-0.971039l-1.091003,-0.927979l-1.127991,-0.883972l-1.161011,-0.837036l-1.196014,-0.790009l-1.225983,-0.73996l-1.253998,-0.69104l-1.281006,-0.639954l-1.305023,-0.588013l-1.329987,-0.535034l-1.34903,-0.480957l-1.367981,-0.426025l-1.381989,-0.369995l-1.39798,-0.315002l-1.40802,-0.257996l-1.419006,-0.202026l-1.425018,-0.143951l-1.429962,-0.085999l-1.431,-0.029022l-1.432007,0.029022l-1.428986,0.085999l-1.425018,0.143951l-1.418976,0.202026l-1.40802,0.257996l-1.39801,0.315002l-1.381989,0.369995l-1.367981,0.426025l-1.34903,0.480957l-1.32901,0.535034l-1.306,0.588013l-1.281006,0.639954l-1.253967,0.69104l-1.226013,0.73996l-1.195007,0.790009l-1.161987,0.837036l-1.127014,0.883972l-1.091003,0.927979l-1.053009,0.971039l-1.01297,1.011993l-0.971008,1.053009l-0.928009,1.090973l-0.882996,1.127991l-0.837006,1.161987l-0.789978,1.194l-0.740997,1.226044l-0.69101,1.255005l-0.640015,1.280945l-0.588013,1.30603l-0.533966,1.32901l-0.480988,1.348969l-0.425995,1.367004l-0.371002,1.384033l-0.315002,1.397003l-0.257996,1.40799l-0.200989,1.419006l-0.144043,1.424988l-0.086975,1.429016l-0.028015,1.432007l0,-110.193985l-0.028992,-1.42601l-0.085999,-1.425003l-0.144043,-1.419998l-0.199982,-1.412994l-0.256989,-1.403l-0.314026,-1.391998l-0.368988,-1.378998l-0.424957,-1.362l-0.479004,-1.344009l-0.53302,-1.32399l-0.585022,-1.302002l-0.638,-1.276001l-0.688965,-1.25l-0.738037,-1.221008l-0.786987,-1.190994l-0.833984,-1.158005l-0.880005,-1.123001l-0.923981,-1.08699l-0.968048,-1.049011l-1.008972,-1.009003l-1.049011,-0.968002l-1.086975,-0.923996l-1.123047,-0.87999l-1.157959,-0.835007l-1.191025,-0.785995l-1.220978,-0.738998l-1.25,-0.688004l-1.277008,-0.638l-1.300995,-0.585007l-1.324005,-0.53299l-1.343994,-0.479004l-1.362,-0.425003l-1.378998,-0.369003l-1.391998,-0.314011l-1.404007,-0.256989l-1.411987,-0.200012l-1.420013,-0.143997l-1.425003,-0.085999l-1.425995,-0.028992l-1.426987,0.028992l-1.425003,0.085999l-1.419006,0.143997l-1.412994,0.200012l-1.404007,0.256989l-1.391998,0.314011l-1.378998,0.369003l-1.362,0.425003l-1.344009,0.479004l-1.32399,0.53299l-1.30101,0.585007l-1.276993,0.638l-1.25,0.688004l-1.220993,0.738998l-1.190994,0.785995l-1.158005,0.835007l-1.123001,0.87999l-1.087006,0.923996l-1.048996,0.968002l-1.009003,1.009003l-0.966995,1.049011l-0.925003,1.08699l-0.87999,1.123001l-0.834015,1.158005l-0.786987,1.190994l-0.738007,1.221008l-0.688995,1.25l-0.637009,1.276001l-0.585999,1.302002l-0.53299,1.32399l-0.479004,1.344009l-0.425003,1.362l-0.369003,1.378998l-0.313004,1.391998l-0.257996,1.403l-0.199997,1.412994l-0.143997,1.419998l-0.085999,1.425003l-0.029007,1.42601l0,211.345963l-0.832001,-1.804016l-0.884995,-1.777954l-0.938004,-1.752045l-0.988998,-1.721954l-1.039993,-1.692993l-1.090012,-1.661011l-1.138992,-1.627991l-1.186005,-1.594055l-1.233002,-1.556946l-1.278992,-1.521027l-1.322998,-1.482025l-1.367004,-1.441956l-1.408005,-1.400055l-1.449997,-1.358948l-1.488998,-1.314026l-1.528,-1.269989l-1.565002,-1.225037l-1.600006,-1.176971l-1.634995,-1.128998l-1.666992,-1.079987l-1.698013,-1.031006l-1.728989,-0.979004l-1.756012,-0.928009l-1.783997,-0.875l-1.807999,-0.822021l-1.832993,-0.768005l-1.854004,-0.713959l-1.874008,-0.65802l-1.89299,-0.601959l-1.911011,-0.545044l-1.924988,-0.488953l-1.939011,-0.432007l-1.951996,-0.374023l-1.960999,-0.315002l-1.970001,-0.257996l-1.975998,-0.199005l-1.98201,-0.140015l-1.985001,-0.080963l-1.987,-0.02301l-1.985992,0.036011l-1.984009,0.095978l-1.980988,0.154022l-1.975006,0.212982l-1.408997,0.200989l-1.399002,0.258026l-1.388,0.313995l-1.374008,0.367981l-1.357986,0.424011l-1.340012,0.47699l-1.320992,0.530975l-1.297005,0.583038l-1.274002,0.63501l-1.246994,0.684967l-1.219002,0.733978l-1.187996,0.782013l-1.155998,0.830017l-1.122002,0.875l-1.085999,0.919006l-1.049011,0.962006l-1.008987,1.002991l-0.968002,1.041992l-0.92601,1.081024l-0.880989,1.115997l-0.837006,1.15097l-0.788994,1.184021l-0.742004,1.213989l-0.693008,1.243011l-0.641991,1.269989l-0.590996,1.293976l-0.539001,1.317047l-0.484993,1.336975l-0.431999,1.355988l-0.376999,1.37204l-0.322006,1.385986l-0.265991,1.397003l-0.211014,1.40799l-0.153,1.413971l-0.096992,1.419037l-0.040001,1.422974l0.016006,1.421997l0.07399,1.421021l0.129997,1.416992l0.188004,1.411011l0.243004,1.401001l0.299004,1.390991l0.354996,1.378021l0.409004,1.362976l0.463989,1.345001l0.517014,1.325989l0.568985,1.30304l0.622002,1.279999l0.671997,1.253998l0.721001,1.22699l0.770004,1.195984l0.818001,1.164978l0.862999,1.131042l0.907997,1.095001l0.951004,1.058014l0.991997,1.019958l1.032997,0.979034l1.071007,0.936981l1.106995,0.893005l1.143005,0.848022l1.174988,0.801971l1.206009,0.753998l1.236,0.706024l1.263,0.654999l1.288002,0.604004l1.310997,0.552979l1.333,0.498993l1.506989,0.563019l1.485001,0.617981l1.461014,0.674011l1.434998,0.727997l1.406998,0.779999l1.376999,0.833008l1.343994,0.883972l1.311005,0.933044l1.274994,0.980957l1.237,1.028015l1.199005,1.074005l1.156998,1.118011l1.115005,1.159973l1.069992,1.200989l1.025009,1.23999l0.977997,1.278046l0.930008,1.312958l0.87999,1.347046l0.82901,1.377991l0.776993,1.408997l0.723999,1.437012l0.669998,1.462952l0.615005,1.487061l0.559006,1.508972l0.501999,1.528015l0.444,1.546021l0.386993,1.561951l0.328003,1.575012l0.268997,1.587036l0.210007,1.594971l0.149994,1.60199l0.089996,1.606018l0.029999,1.609009l0,14.069977l0.029007,3.141998l0.087997,3.141022l0.147003,3.139008l0.205002,3.135956l0.263,3.131012l0.321991,3.125977l0.380005,3.119049l0.438995,3.112l0.496002,3.102997l0.554001,3.093018l0.612,3.082031l0.669006,3.069885l0.725998,3.057068l0.783997,3.043945l0.839005,3.028015l0.897003,3.012085l0.951996,2.993896l1.007996,2.97699l1.063004,2.957031l1.117996,2.935974l1.173004,2.915039l1.227005,2.893005l1.280991,2.869934l1.334,2.845093l1.387009,2.820007l1.440002,2.792969l1.490997,2.765991l1.541992,2.738037l1.594009,2.707947l1.64299,2.677979l1.694,2.647034l1.742004,2.61499l1.791,2.583069l1.839005,2.547974l1.886002,2.513l1.931992,2.478027l1.979004,2.440979l2.024002,2.403931l2.067993,2.366028l2.112,2.327026l2.154999,2.286926l2.197006,2.247009l2.238998,2.205078l2.278992,2.161987l2.320007,2.119934l2.358994,2.077087l2.397003,2.031982l2.434006,1.986938l2.470993,1.940979l1.480011,1.17804l1.442993,1.22406l1.402008,1.268982l1.362991,1.312988l1.320007,1.35498l1.276993,1.39502l1.231995,1.435974l1.186005,1.472961l1.139999,1.511047l1.091003,1.544983l1.041,1.578979l0.992004,1.611084l0.939987,1.64093l0.888,1.671021l0.835007,1.697021l0.781006,1.723022l0.72699,1.746948l0.671005,1.769043l0.615005,1.789001l0.557999,1.807007l0.500992,1.824951l0.443008,1.838989l0.384995,1.85199l0.326004,1.862976l0.26799,1.873047l0.208008,1.880066l0.149002,1.885925l0.088989,1.890015l0.030014,1.890991l0,35.85199l0.000015,0z"/>
    <path id="svg_8" fill="none" stroke="#000000" stroke-width="9" stroke-linecap="round" stroke-linejoin="round" stroke-miterlimit="4" d="m458.768372,592.742859l1.666962,-2.402954l1.617035,-2.436035l1.56601,-2.468994l1.515961,-2.500977l1.463043,-2.532043l1.411987,-2.560913l1.358002,-2.58905l1.304962,-2.617004l1.251038,-2.643982l1.196014,-2.66803l1.141968,-2.691956l1.083984,-2.716064l1.031006,-2.737l0.971985,-2.756958l0.917053,-2.776978l0.857971,-2.795044l0.802002,-2.812988l0.742004,-2.828003l0.685974,-2.842957l0.625,-2.856018l0.569031,-2.869019l0.507996,-2.879028l0.448975,-2.890015l0.390045,-2.897949l0.329956,-2.905029l0.269012,-2.911987l0.209991,-2.916931l0.149994,-2.920044l0.091034,-2.923035l0.029999,-2.923981m-283.980011,-320.893997l0,254.653m70.866974,-254.653l0,220.863998m213.113037,-66.80899l0,166.838989m-70.867004,-197.138977l0,97.108978m-71.123993,-110.669983l0,110.669983m-190.078003,74.714996l0,-14.069977m89.001999,195.006958l0,35.85199m193.498947,-35.85199l0,35.85199m-163.544983,-512.36795l-0.028992,-1.425995l-0.085999,-1.425003l-0.143982,-1.419998l-0.200012,-1.41301l-0.257019,-1.403l-0.313965,-1.391998l-0.369019,-1.378998l-0.424988,-1.362l-0.479004,-1.343994l-0.53302,-1.324005l-0.584961,-1.302002l-0.638,-1.276001l-0.689026,-1.25l-0.737976,-1.220993l-0.786987,-1.19101l-0.834045,-1.15799l-0.880005,-1.123001l-0.92395,-1.087006l-0.968048,-1.048996l-1.008972,-1.009003l-1.048981,-0.968002l-1.087006,-0.923996l-1.123047,-0.880005l-1.15799,-0.835007l-1.190994,-0.785995l-1.220978,-0.738998l-1.25,-0.688004l-1.277008,-0.638l-1.300995,-0.584991l-1.324005,-0.533005l-1.343994,-0.479004l-1.362,-0.425003l-1.378998,-0.368988l-1.391998,-0.314011l-1.404007,-0.256989l-1.412003,-0.200012l-1.419998,-0.143997l-1.425003,-0.085999l-1.425995,-0.028992l-1.427002,0.028992l-1.425003,0.085999l-1.418991,0.143997l-1.41301,0.200012l-1.403992,0.256989l-1.391998,0.314011l-1.378998,0.368988l-1.362,0.425003l-1.344009,0.479004l-1.32399,0.533005l-1.30101,0.584991l-1.276993,0.638l-1.25,0.688004l-1.221008,0.738998l-1.190994,0.785995l-1.158005,0.835007l-1.123001,0.880005l-1.08699,0.923996l-1.048996,0.968002l-1.009003,1.009003l-0.966995,1.048996l-0.925003,1.087006l-0.880005,1.123001l-0.834,1.15799l-0.787003,1.19101l-0.738007,1.220993l-0.688995,1.25l-0.636993,1.276001l-0.585999,1.302002l-0.533005,1.324005l-0.479004,1.343994l-0.425003,1.362l-0.368988,1.378998l-0.313004,1.391998l-0.257996,1.403l-0.200012,1.41301l-0.143997,1.419998l-0.085999,1.425003l-0.029007,1.425995m17.532013,428.983978l-2.471008,-1.94104l-2.43399,-1.986938l-2.397003,-2.031982l-2.359009,-2.077026l-2.319992,-2.119995l-2.279007,-2.161987l-2.238998,-2.205017l-2.196991,-2.247009l-2.155014,-2.286987l-2.112,-2.327026l-2.067993,-2.366028l-2.024002,-2.403931l-1.979004,-2.440979l-1.931992,-2.478027l-1.886002,-2.513l-1.839005,-2.547974l-1.791,-2.583069l-1.741989,-2.61499l-1.694,-2.647034l-1.643005,-2.677979l-1.593994,-2.707947l-1.541992,-2.737976l-1.491013,-2.765991l-1.440002,-2.79303l-1.386993,-2.820007l-1.334,-2.845032l-1.281006,-2.869995l-1.227005,-2.893005l-1.172989,-2.914978l-1.118011,-2.936035l-1.062988,-2.95697l-1.008011,-2.97699l-0.951996,-2.993958l-0.897003,-3.012085l-0.839005,-3.027954l-0.783981,-3.044006l-0.725998,-3.057007l-0.669006,-3.069946l-0.612015,-3.082031l-0.553986,-3.093018l-0.496002,-3.102966l-0.439011,-3.112l-0.37999,-3.119049l-0.322021,-3.125946l-0.262985,-3.131042l-0.205002,-3.135986l-0.147003,-3.139008l-0.087997,-3.141022l-0.029007,-3.141968m-21.296982,-123.554993l-1.408997,0.200989l-1.399002,0.258026l-1.388,0.313995l-1.374008,0.36795l-1.357986,0.424042l-1.340012,0.47699l-1.320992,0.531006l-1.297005,0.583008l-1.274002,0.63501l-1.247009,0.684998l-1.219009,0.733948l-1.187988,0.782043l-1.155998,0.829956l-1.122017,0.875l-1.085983,0.919006l-1.049011,0.962036l-1.008995,1.002991l-0.968002,1.041992l-0.92601,1.080994l-0.880989,1.115997l-0.837006,1.151031l-0.788994,1.18396l-0.741997,1.21405l-0.693001,1.242981l-0.642006,1.27002l-0.590996,1.293945l-0.539009,1.317047l-0.484993,1.337006l-0.431999,1.355957l-0.376999,1.37204l-0.322006,1.385956l-0.265991,1.397034l-0.211014,1.407959l-0.153,1.414001l-0.096992,1.419006l-0.040001,1.423035l0.016006,1.421997l0.07399,1.420959l0.129997,1.417053l0.188004,1.41095l0.243004,1.401001l0.299004,1.391052l0.354996,1.377991l0.409004,1.362976l0.463989,1.345032l0.517014,1.325989l0.569,1.302979l0.621994,1.279999l0.671997,1.253998l0.721001,1.22699l0.770004,1.196045l0.818001,1.164978l0.862999,1.130981l0.907997,1.095032l0.951004,1.057983l0.991989,1.02002l1.033005,0.979004l1.070999,0.936981l1.10701,0.893005l1.142998,0.847992l1.174995,0.802002l1.205994,0.753967l1.236008,0.706055l1.263,0.654968l1.288002,0.604034l1.311012,0.552979l1.332977,0.499023m218.855026,-130.669037l-0.027008,-1.432007l-0.086975,-1.428955l-0.144043,-1.425049l-0.201019,-1.419006l-0.257965,-1.407959l-0.315979,-1.397034l-0.371033,-1.383972l-0.425018,-1.367004l-0.480957,-1.348999l-0.535004,-1.329041l-0.587036,-1.306l-0.639954,-1.280975l-0.692017,-1.254974l-0.741028,-1.226044l-0.789948,-1.194l-0.837006,-1.161957l-0.882996,-1.128052l-0.927002,-1.090942l-0.972046,-1.053009l-1.01297,-1.011993l-1.052032,-0.971008l-1.090973,-0.92804l-1.128021,-0.883972l-1.161011,-0.837036l-1.195984,-0.789978l-1.225983,-0.73999l-1.253998,-0.690979l-1.281006,-0.640015l-1.304993,-0.588013l-1.330017,-0.535034l-1.348999,-0.480957l-1.367981,-0.426025l-1.381989,-0.369965l-1.398041,-0.315033l-1.407959,-0.257996l-1.419006,-0.202026l-1.425018,-0.143951l-1.430023,-0.085999l-1.430969,-0.028992l-1.432007,0.028992l-1.429016,0.085999l-1.424957,0.143951l-1.419006,0.202026l-1.408051,0.257996l-1.39801,0.315033l-1.381958,0.369965l-1.368011,0.426025l-1.348969,0.480957l-1.329041,0.535034l-1.306,0.588013l-1.280975,0.640015l-1.254028,0.690979l-1.226013,0.73999l-1.194977,0.789978l-1.162018,0.837036l-1.126953,0.883972l-1.091003,0.92804l-1.05304,0.971008l-1.013,1.011993l-0.970947,1.053009l-0.92804,1.090942l-0.882965,1.128052l-0.837006,1.161957l-0.790039,1.194l-0.740967,1.226044l-0.69101,1.254974l-0.639984,1.280975l-0.588013,1.306l-0.533966,1.329041l-0.481018,1.348999l-0.425995,1.367004l-0.371002,1.383972l-0.315033,1.397034l-0.257996,1.407959l-0.200989,1.419006l-0.143982,1.425049l-0.087036,1.428955l-0.027985,1.432007m71.122009,13.561035l0.029999,-1.43103l0.087006,-1.430023l0.144012,-1.424957l0.200958,-1.41803l0.256989,-1.408997l0.315002,-1.396973l0.369995,-1.383026l0.42804,-1.367981l0.479004,-1.34903l0.534973,-1.328979l0.588989,-1.30603l0.640045,-1.280975l0.689972,-1.253998l0.741028,-1.225983l0.789978,-1.195038l0.836975,-1.161987l0.882996,-1.127014l0.92804,-1.091003l0.971008,-1.052979l1.013,-1.013031l1.052002,-0.970978l1.091003,-0.928009l1.127991,-0.882965l1.162964,-0.837036l1.194031,-0.789978l1.224976,-0.741028l1.255035,-0.690979l1.280975,-0.640015l1.307007,-0.588013l1.328003,-0.533997l1.348999,-0.480957l1.367004,-0.426025l1.384003,-0.370972l1.397003,-0.315002l1.408997,-0.258026l1.417969,-0.201019l1.425018,-0.143982l1.430023,-0.086975l1.430969,-0.028015l1.432007,0.028015l1.431,0.086975l1.423981,0.143982l1.41803,0.201019l1.408997,0.258026l1.397003,0.315002l1.382965,0.370972l1.368042,0.426025l1.348999,0.480957l1.328003,0.533997l1.306,0.588013l1.281952,0.640015l1.255005,0.690979l1.226013,0.741028l1.194031,0.789978l1.162964,0.837036l1.127014,0.882965l1.090027,0.928009l1.052948,0.970978l1.014008,1.013031l0.970032,1.052979l0.927979,1.091003l0.882996,1.127014l0.838043,1.161987l0.789948,1.195038l0.741028,1.225983l0.690002,1.253998l0.640015,1.280975l0.588989,1.30603l0.53302,1.328979l0.480957,1.34903l0.425995,1.367981l0.371002,1.383026l0.315033,1.396973l0.257996,1.408997l0.200989,1.41803l0.144012,1.424957l0.087006,1.430023l0.027985,1.43103m-261.201996,157.753967l-0.029999,-1.609009l-0.089996,-1.606018l-0.149994,-1.60199l-0.210007,-1.594971l-0.268997,-1.587036l-0.328003,-1.574951l-0.386993,-1.562012l-0.444,-1.546021l-0.501999,-1.528015l-0.559006,-1.508972l-0.615005,-1.487l-0.669998,-1.463013l-0.723999,-1.437012l-0.776993,-1.408997l-0.82901,-1.377991l-0.880005,-1.347015l-0.929993,-1.312958l-0.977997,-1.278015l-1.025009,-1.240021l-1.069992,-1.201019l-1.115005,-1.159943l-1.156998,-1.118011l-1.199005,-1.074005l-1.237,-1.027985l-1.274994,-0.981018l-1.311005,-0.932983l-1.343994,-0.884033l-1.376999,-0.833008l-1.406998,-0.779968l-1.434998,-0.727997l-1.461014,-0.674042l-1.485001,-0.617981l-1.506989,-0.563019m7.479996,-68.838959l1.975006,-0.212982l1.980988,-0.154053l1.984009,-0.095978l1.985992,-0.036011l1.987,0.02301l1.985001,0.080994l1.98201,0.140015l1.975998,0.198975l1.970001,0.257996l1.960999,0.315002l1.951996,0.374023l1.939011,0.432007l1.924988,0.488983l1.911011,0.545013l1.89299,0.60199l1.874008,0.65802l1.854004,0.713989l1.832993,0.768005l1.807999,0.821991l1.783997,0.875031l1.756012,0.927979l1.728989,0.979004l1.697998,1.031006l1.667007,1.079956l1.634995,1.129028l1.600006,1.176971l1.565002,1.225006l1.528,1.27002l1.488998,1.314026l1.449997,1.358948l1.408005,1.400055l1.367004,1.441986l1.322998,1.481995l1.278992,1.520996l1.233002,1.557007l1.186005,1.593994l1.138992,1.627991l1.090012,1.661011l1.039993,1.692993l0.988998,1.721985l0.938004,1.752014l0.884995,1.778015l0.832001,1.803955m40.912994,265.169983l-0.029999,-1.890991l-0.088989,-1.890015l-0.149002,-1.885925l-0.208008,-1.880066l-0.26799,-1.872986l-0.326004,-1.862976l-0.384995,-1.852051l-0.443008,-1.838989l-0.500992,-1.824951l-0.557999,-1.807007l-0.615005,-1.78894l-0.671005,-1.769104l-0.72699,-1.746948l-0.781006,-1.722961l-0.835007,-1.697083l-0.888,-1.671021l-0.939987,-1.64093l-0.992004,-1.610962l-1.041,-1.579102l-1.091003,-1.544983l-1.139999,-1.510986l-1.186005,-1.473022l-1.231995,-1.435974l-1.276993,-1.39502l-1.320007,-1.35498l-1.363007,-1.312988l-1.401993,-1.268982l-1.442993,-1.22406l-1.480011,-1.177979m216.880005,47.531982l0.028015,-2.69696l0.085968,-2.695007l0.143036,-2.69397l0.199951,-2.689026l0.259033,-2.684937l0.313995,-2.679077l0.371979,-2.671021l0.42804,-2.662964l0.484955,-2.652954l0.542023,-2.642029l0.596985,-2.630066l0.652008,-2.616943l0.707977,-2.602051l0.764038,-2.586975l0.81897,-2.570007l0.873047,-2.552002l0.927002,-2.531982l0.980957,-2.513l1.03302,-2.490967l1.086975,-2.468079l1.139038,-2.444946l1.191986,-2.419983l1.240997,-2.394043l1.291992,-2.367004l1.34198,-2.338989l1.392029,-2.309998l1.442017,-2.280029l1.488953,-2.248901l1.535034,-2.217102m-257.773987,-148.511902l-0.028992,2.417999l-0.087006,2.416992l-0.144989,2.413971l-0.203003,2.411041l-0.26001,2.403992l-0.319,2.39798l-0.375992,2.389008l-0.432999,2.378998l-0.490005,2.369019l-0.546997,2.355957l-0.602997,2.34201l-0.658997,2.326996l-0.715012,2.311035l-0.769989,2.291992l-0.825012,2.273987l-0.87999,2.252991m0,0l-0.893005,2.286011l-0.839005,2.304993l-0.785995,2.325012l-0.731003,2.34201l-0.677002,2.358978l-0.621002,2.373993l-0.565994,2.388031l-0.509995,2.399963l-0.455002,2.411011l-0.397995,2.421997l-0.341003,2.430023l-0.285004,2.436981l-0.227997,2.442993m227.783966,-169.273987l0.029022,-1.427002l0.087006,-1.424011l0.143982,-1.419983l0.199036,-1.412994l0.256958,-1.403015l0.315033,-1.391998l0.36795,-1.379028l0.426025,-1.362l0.478973,-1.345001l0.532043,-1.322998l0.585968,-1.301971l0.637024,-1.276001l0.687988,-1.25l0.73999,-1.221985l0.785034,-1.190033l0.834961,-1.157959l0.880005,-1.123016l0.924011,-1.087006l0.967987,-1.048981l1.01004,-1.009003l1.048004,-0.968048l1.087982,-0.92395l1.122986,-0.880005l1.15802,-0.835022l1.190002,-0.786011l1.221985,-0.739014l1.249023,-0.687988l1.276001,-0.638l1.301971,-0.584961l1.324982,-0.533051l1.343018,-0.478943l1.362,-0.425018l1.379028,-0.369019l1.391968,-0.313965l1.405029,-0.257019l1.411987,-0.200012l1.419006,-0.144012l1.424988,-0.085968l1.426025,-0.028992l1.426971,0.028992l1.425018,0.085968l1.419006,0.144012l1.414001,0.200012l1.403961,0.257019l1.391022,0.313965l1.378967,0.369019l1.362,0.425018l1.343994,0.478943l1.324036,0.533051l1.302002,0.584961l1.276978,0.638l1.25,0.687988l1.220001,0.739014l1.19101,0.786011l1.156982,0.835022l1.124023,0.880005l1.086975,0.92395l1.050049,0.968048l1.007996,1.009003l0.967957,1.048981l0.925049,1.087006l0.878967,1.123016l0.834045,1.157959l0.787964,1.190033l0.737,1.221985l0.689026,1.25l0.636963,1.276001l0.586029,1.301971l0.533966,1.322998l0.478027,1.345001l0.424011,1.362l0.371002,1.379028l0.312958,1.391998l0.257019,1.403015l0.199982,1.412994l0.144012,1.419983l0.086029,1.424011l0.028992,1.427002"/>
   </g>
   <text id="svg_9" transform="matrix(2.88138 0 0 2.73261 -551.323 -76.8046)" xml:space="preserve" text-anchor="middle" font-family="Comic Sans MS" font-size="28" y="64.708387" x="293.002557" stroke-linecap="null" stroke-linejoin="null" stroke-dasharray="null" stroke-width="0" stroke="#000000" fill="#0000ff">I am this many</text>
  </g>
 </g>
</svg>