<?xml version="1.0" encoding="UTF-8"?>
<!DOCTYPE svg PUBLIC "-//W3C//DTD SVG 1.1//EN" "http://www.w3.org/Graphics/SVG/1.1/DTD/svg11.dtd">
<!-- Creator: CorelDRAW X7 -->
<svg xmlns="http://www.w3.org/2000/svg" xml:space="preserve" width="6351px" height="6368px" version="1.1" shape-rendering="geometricPrecision" text-rendering="geometricPrecision" image-rendering="optimizeQuality" fill-rule="evenodd" clip-rule="evenodd"
viewBox="0 0 6592 6609"
 xmlns:xlink="http://www.w3.org/1999/xlink">
 <g id="Capa_x0020_1">
  <metadata id="CorelCorpID_0Corel-Layer"/>
  <rect fill="none" stroke="#9CC029" stroke-width="122.575" x="61" y="61" width="6469" height="6486"/>
  <g id="_661141216">
   <path fill="black" d="M5151 5966c-55,-52 -112,-102 -170,-150 -83,-146 -134,-307 -151,-474 -11,-120 -44,-238 -96,-347 -6,-10 -11,-21 -15,-31 0,-2 0,-5 0,-7 1,-2 2,-4 4,-5 14,-8 30,-12 46,-14 3,-1 6,-2 9,-3 2,0 3,-1 4,-2 3,-2 5,-6 4,-10 -4,-44 -15,-87 -31,-129 -18,-145 -66,-285 -140,-411 -4,-8 -5,-17 -5,-26 7,-129 -19,-258 -76,-375 -33,-55 -83,-98 -142,-124l-19 -10c-2,-1 -2,-3 -2,-4 0,-2 0,-4 2,-5 3,-4 7,-7 12,-9 157,-60 256,-216 245,-384 -12,-169 -127,-313 -290,-362 -61,-2 -120,23 -161,68 -48,53 -98,103 -150,151 -89,64 -153,158 -179,265 -2,8 -8,15 -15,17 -11,3 -22,3 -32,1 -71,0 -141,2 -212,5 -35,-6 -70,-13 -105,-22 -4,-1 -8,-3 -11,-7 -1,-1 -2,-3 -2,-4 0,-3 1,-5 2,-7 39,-71 76,-144 111,-217 41,-58 78,-119 109,-182 3,-6 10,-9 17,-9 9,2 18,5 26,9l8 3c4,1 9,0 12,-3 3,-4 5,-9 6,-13 10,-32 2,-67 -21,-91 -4,-6 -5,-13 -2,-20 58,-120 99,-248 123,-380 1,-8 2,-17 3,-25 0,-9 2,-17 7,-24 86,-124 145,-265 170,-413 43,-129 83,-258 121,-387 7,-13 15,-25 24,-36 17,-44 28,-91 31,-138 21,-193 68,-381 139,-561 24,-45 68,-77 118,-87 80,-34 155,-77 225,-128 74,-38 149,-72 226,-104 41,-16 64,-62 51,-105 -6,-12 -16,-22 -28,-29 -14,-8 -28,-18 -41,-28 -4,-3 -9,-6 -14,-6 -2,0 -3,0 -4,1 -4,1 -8,3 -11,5 -12,10 -29,12 -42,5 -3,-2 -5,-4 -7,-6 -3,-3 -7,-6 -11,-8 -4,-2 -9,-1 -13,1 -3,1 -7,4 -10,7 -2,2 -5,4 -8,6 -5,2 -10,3 -16,3 -17,-2 -34,-4 -52,-7 -7,-2 -13,-7 -17,-14l-4 -4c-3,-3 -7,-5 -11,-5 -2,0 -3,0 -4,1 -5,1 -9,4 -12,9 -3,3 -5,6 -7,9l-4 4c-3,2 -7,2 -11,0l-6 -4c-4,-3 -8,-6 -12,-9l-7 -4c-4,-1 -9,0 -12,2 -5,4 -9,8 -12,13 -30,39 -77,61 -126,60 -56,5 -112,0 -166,-14 -5,-2 -8,-5 -11,-9 -3,-6 -7,-12 -11,-18 -6,-8 -16,-12 -26,-8 -1,0 -2,1 -4,1 -4,2 -9,5 -13,7 -19,11 -43,10 -61,-2 -17,-11 -40,-7 -52,9 -39,27 -70,64 -89,107 -12,58 -8,118 12,174 7,99 -14,199 -62,286 -50,111 -103,219 -161,325 -49,57 -90,120 -123,187 -39,104 -61,213 -65,324 -1,9 -4,17 -8,25 -15,35 -16,75 -3,111 3,9 3,18 1,27 -4,10 -9,19 -17,27 -51,70 -96,144 -135,222 -116,120 -230,243 -340,368 -7,7 -16,11 -26,11 -54,-2 -107,-5 -160,-11 -9,-1 -18,-1 -27,0 -14,7 -24,19 -28,34 -18,73 -29,147 -31,223 -13,32 -36,60 -66,79 -10,9 -23,15 -37,16l-12 -1c-244,-10 -477,-102 -662,-262 -18,-12 -42,-13 -62,-2 -19,8 -38,17 -55,27 -5,2 -10,2 -15,0 -11,-5 -22,-11 -31,-18 -147,-99 -301,-187 -460,-263 -51,-4 -103,3 -150,22 -74,21 -131,78 -153,152 -26,81 -57,160 -92,237 -55,174 -87,354 -97,536 -6,41 -19,81 -39,117 -3,5 -8,8 -13,10 -10,3 -21,7 -31,10 -10,6 -19,12 -28,19 -10,8 -23,11 -35,9 -131,-5 -261,-29 -386,-69 -29,-4 -58,6 -79,26 -19,18 -30,43 -30,70 0,2 0,5 0,8 4,72 44,137 107,172 9,1 18,3 27,6 10,4 19,11 27,19 12,8 24,17 35,27 3,3 6,7 7,12l3 11c1,4 3,7 6,9 3,1 7,2 10,1 4,-2 9,-4 13,-7 1,0 2,-1 3,-2 3,-2 6,-3 9,-4 9,-2 18,0 26,6 10,5 18,13 24,22 3,5 7,9 11,12 4,2 9,1 13,-1l6 -4c4,-2 8,-4 12,-5 2,-1 5,-1 8,-1 83,11 163,39 234,83 9,7 15,16 17,27l2 8c1,4 4,8 7,10 4,3 9,3 13,2l11 -5c8,-5 18,-7 27,-4 16,1 30,10 39,23 2,3 5,7 8,10 3,6 10,8 16,5 9,-4 18,-9 26,-14 43,-11 83,-31 117,-59 26,-40 34,-89 22,-135 -26,-121 0,-248 71,-349 45,-77 93,-152 145,-224 39,-75 61,-158 62,-242 0,-4 2,-7 4,-10 4,-4 10,-5 14,-2 17,10 30,24 38,42 14,21 23,46 25,72 1,11 8,21 18,26 111,72 213,157 306,252 46,39 95,75 148,105 6,5 11,11 14,18 4,7 9,13 15,18l12 6c47,30 84,74 105,126 10,25 20,50 30,75 10,17 28,29 47,33 8,3 15,8 21,13 7,10 11,20 14,31 51,124 171,207 306,209 22,2 43,11 61,24 8,5 15,12 20,21 1,2 1,4 1,7 -1,2 -2,4 -3,6 -10,8 -21,16 -32,23 -154,106 -316,200 -485,281 -55,25 -114,39 -174,43 -26,-4 -50,-14 -72,-27 -7,-4 -15,-5 -23,-4 -7,3 -14,9 -16,17 -3,9 -3,17 2,25 26,37 65,63 109,73 47,33 105,47 162,40 50,-9 100,-13 150,-11 26,-2 50,-18 62,-41 3,-6 6,-11 10,-15 3,-3 7,-5 11,-6 237,-20 466,-98 666,-229 73,-30 155,-25 224,12 109,32 224,42 337,28 113,2 225,10 337,23 73,6 146,-7 212,-37 10,-4 20,-5 31,-4 2,0 4,1 5,3 2,1 3,3 4,6 2,10 3,20 2,31 9,58 31,112 64,160 14,62 36,121 66,176 4,7 6,16 6,25 -2,65 12,129 42,187 15,100 55,194 117,274 96,165 190,331 280,499 14,36 22,74 22,113 7,41 43,71 85,70 101,17 196,60 275,126 52,42 120,62 187,52 15,3 31,2 46,-3 14,-3 23,-14 24,-28 0,-14 -9,-26 -23,-29 -97,-22 -187,-70 -260,-139l0 0z"/>
   <path fill="black" d="M6065 2064c2,-4 3,-7 4,-11 2,-3 1,-7 -2,-10 -25,-22 -49,-46 -71,-71 -2,-1 -4,-2 -6,-3 -41,-7 -82,-17 -122,-27 -4,-1 -8,0 -11,3 -17,22 -32,45 -45,70 -16,27 -26,57 -26,89 -3,15 -5,31 -5,47 0,3 1,5 3,7 4,4 8,8 13,10l64 39c8,2 16,4 24,3 23,2 45,2 68,0 4,0 9,-2 12,-6 40,-42 73,-89 100,-140l0 0zm51 156c6,-5 12,-10 17,-17 1,-1 1,-2 1,-3 0,-1 -1,-2 -1,-2 -2,-1 -4,-2 -7,-2 -14,2 -29,5 -43,8 -12,2 -25,4 -37,5l-8 -1c-2,-1 -4,-3 -4,-6 -2,-5 -2,-11 -2,-17 0,-16 0,-33 -1,-50 0,-3 2,-6 5,-7 4,-2 9,-3 13,-4 27,-7 53,-17 77,-29 4,-2 9,-2 13,-1 17,8 33,16 50,23 2,1 4,1 7,1 2,-1 4,-2 4,-4 2,-6 3,-12 2,-18 -1,-17 -3,-34 -5,-52 1,-5 3,-9 6,-13 28,-26 50,-58 65,-94 0,-1 0,-3 0,-4l0 0 0 0c0,-1 0,-2 0,-3 0,-2 -2,-3 -4,-3 -4,1 -8,2 -12,4 -13,5 -25,10 -38,14 -5,2 -10,3 -15,4 -4,0 -7,-2 -8,-6 -2,-6 -2,-11 -2,-17 -2,-24 -4,-47 -8,-71l-2 -5c-1,-1 -1,-1 -2,-1 -1,0 -2,0 -2,1 -4,4 -7,10 -9,15 -13,34 -29,67 -47,98 -2,4 -6,6 -11,7 -37,1 -73,0 -110,-4 -3,-1 -5,-2 -7,-4 -28,-28 -54,-58 -78,-89 -3,-5 -4,-12 0,-17l69 -96c1,-1 1,-2 1,-3 0,-1 -1,-2 -1,-2 -2,-2 -4,-2 -6,-2 -37,11 -74,21 -111,31 -9,3 -19,-1 -24,-9 -18,-26 -36,-52 -53,-79 0,-1 -1,-2 -1,-3 0,-1 1,-2 1,-3 9,-31 21,-61 35,-89 3,-6 9,-10 16,-11 38,-1 76,-2 114,-3 7,2 14,6 20,11 25,20 48,42 70,65 2,3 3,7 2,11 -12,19 -25,37 -39,54l-14 17c0,1 0,3 0,4 1,1 2,2 3,2 2,0 5,0 7,-1 25,-6 49,-10 74,-13 7,0 13,-1 20,0 4,0 8,3 11,7 21,31 43,63 63,95 1,0 1,1 2,1 0,0 1,-1 1,-1 2,-3 3,-6 3,-10 0,-29 -1,-58 -3,-87 0,-3 1,-6 4,-7 5,-1 10,-1 15,0 15,1 29,2 43,4 2,0 4,-1 6,-2l0 -2c0,-3 -1,-5 -2,-7 -24,-31 -54,-58 -87,-78 -4,-3 -7,-7 -9,-11l-1 -7c-6,-27 -17,-52 -31,-76 -1,-2 -3,-3 -5,-4 -1,0 -2,0 -3,1 -1,0 -1,1 -2,2 -4,14 -9,27 -16,40l-5 8c-2,1 -5,2 -7,2 -6,-1 -12,-2 -18,-5 -28,-10 -58,-16 -88,-17l-12 -2 -5 -3c-23,-11 -46,-22 -70,-31l-7 -4c-1,-2 -1,-4 0,-6 4,-5 8,-10 13,-13 15,-12 30,-25 45,-37l5 -7c1,-1 1,-2 1,-3 -1,-1 -1,-1 -2,-2 -2,-1 -4,-1 -7,-1 -46,5 -91,18 -132,39 -4,1 -7,2 -11,2 -3,1 -7,0 -10,0 -26,-8 -53,-12 -80,-13 -2,0 -5,1 -8,2 -2,2 -3,4 -3,6 0,5 1,10 3,15 4,12 8,24 14,36 1,3 0,7 -3,10 -22,19 -42,41 -60,65 -1,1 -1,2 0,3 0,1 1,2 2,2 5,0 10,-1 14,-4 21,-8 43,-15 65,-20 5,-2 10,0 14,4 14,24 29,47 45,69 3,8 3,17 0,25 -5,31 -8,63 -9,94 0,4 -2,8 -5,10 -5,3 -11,5 -16,6 -27,9 -53,22 -78,37 -1,1 -2,2 -2,3 -1,1 -1,2 -1,2 1,2 2,4 4,5 29,13 59,25 88,36 6,2 10,7 10,13 3,38 10,76 21,112l2 8 -1 3c-2,2 -3,4 -6,6 -23,19 -48,38 -73,56 -5,3 -11,3 -16,0 -26,-18 -50,-37 -73,-57 -5,-4 -9,-9 -13,-14 -11,-25 -20,-51 -27,-77 0,-5 1,-9 4,-13 20,-26 42,-49 67,-70 1,-1 1,-2 1,-3 1,-1 0,-2 0,-2 -2,-2 -4,-3 -6,-3 -25,0 -50,2 -74,7 -4,0 -7,-1 -10,-3 -2,-2 -3,-5 -3,-8 -10,-49 -11,-99 -4,-148 8,-15 20,-28 34,-39 9,-8 19,-16 29,-23l6 -5c0,0 0,-1 0,-1 0,-1 0,-1 0,-2 -2,-1 -4,-2 -6,-2 -13,1 -26,1 -39,0 -3,0 -6,-2 -7,-4 -1,-5 -1,-9 0,-14 5,-19 10,-38 16,-57 0,-1 0,-1 -1,-2 -2,0 -3,0 -5,1 -62,50 -107,119 -127,196 -3,10 -5,20 -6,30 0,2 0,4 2,6 0,1 1,1 2,1 1,0 2,0 3,-1 8,-7 15,-15 22,-23 7,-7 14,-14 21,-20 4,-3 10,-3 14,1 4,4 8,8 11,13 5,6 9,12 14,18 3,3 5,8 4,13 -2,6 -5,12 -9,17 -10,19 -20,39 -27,60 -3,6 -8,10 -14,12 -16,4 -31,10 -45,16 -3,2 -5,4 -7,6 -1,3 -1,5 0,8 3,5 7,10 12,13 8,6 15,12 22,18 5,3 7,9 6,14 -8,32 -10,65 -7,97 1,6 5,12 10,16 1,0 2,1 3,1 1,0 2,-1 3,-2 2,-3 4,-6 6,-9 12,-21 25,-40 39,-59 2,-3 7,-4 11,-3 10,6 20,12 30,18 8,6 17,11 26,16 3,2 6,6 8,10 12,25 24,51 34,77 2,6 1,12 -4,15 -20,11 -41,19 -63,25l-11 4 -2 2c-2,1 -1,4 0,5 2,2 4,4 7,5 35,14 72,22 110,23 5,1 9,4 12,9 19,29 41,57 66,81 3,2 5,3 8,4 3,2 7,0 8,-2l1 -3c1,-9 0,-19 -1,-28 -1,-14 -1,-29 0,-43 0,-4 2,-7 6,-8 3,-1 5,-2 8,-2 21,-2 42,-4 62,-5 3,0 6,1 8,3 13,13 26,25 40,38 3,2 5,6 6,11 0,2 -1,5 -3,7 -11,10 -23,20 -35,28l-6 4c-1,2 -1,4 0,5 1,2 3,3 6,4 82,1 162,-25 227,-74 7,-5 13,-10 20,-15l0 0z"/>
  </g>
 </g>
</svg>
