<?xml version="1.0"?><svg width="4737" height="4486" xmlns="http://www.w3.org/2000/svg" xmlns:xlink="http://www.w3.org/1999/xlink">
 <title>tomato</title>
 <defs>
  <linearGradient xlink:href="#linearGradient4326" id="linearGradient20604" gradientUnits="userSpaceOnUse" x1="878.30585" y1="638.42285" x2="878.04169" y2="587.67126"/>
  <linearGradient xlink:href="#linearGradient4326" id="linearGradient20602" gradientUnits="userSpaceOnUse" x1="872.67297" y1="640.58234" x2="874.33466" y2="587.68933"/>
  <linearGradient xlink:href="#linearGradient4326" id="linearGradient20600" gradientUnits="userSpaceOnUse" x1="870.71393" y1="641.3125" x2="867.66956" y2="585.2215"/>
  <linearGradient xlink:href="#linearGradient4326" id="linearGradient20598" gradientUnits="userSpaceOnUse" x1="866.38599" y1="629.35236" x2="866.38599" y2="599.3725"/>
  <linearGradient xlink:href="#linearGradient4326" id="linearGradient20596" gradientUnits="userSpaceOnUse" x1="866.6889" y1="639.06525" x2="864.21893" y2="578.79523"/>
  <linearGradient xlink:href="#linearGradient4326" id="linearGradient20594" gradientUnits="userSpaceOnUse" x1="857.40021" y1="635.72388" x2="861.86334" y2="572.93176"/>
  <linearGradient xlink:href="#linearGradient4326" id="linearGradient20592" gradientUnits="userSpaceOnUse" x1="857.40021" y1="641.3125" x2="854.93127" y2="579.96216"/>
  <linearGradient id="linearGradient4326">
   <stop offset="0" id="stop4328" stop-color="#bf7a1b"/>
   <stop offset="1" id="stop4330" stop-opacity="0" stop-color="#bf7a1b"/>
  </linearGradient>
  <linearGradient xlink:href="#linearGradient4326" id="linearGradient20590" gradientUnits="userSpaceOnUse" x1="853.86548" y1="642.90381" x2="846.625" y2="590.26312"/>
  <linearGradient id="linearGradient4248">
   <stop offset="0" id="stop4250" stop-color="#e8a000"/>
   <stop offset="1" id="stop4252" stop-opacity="0.465649" stop-color="#eeeeec"/>
  </linearGradient>
  <linearGradient xlink:href="#linearGradient4248" id="linearGradient20588" gradientUnits="userSpaceOnUse" gradientTransform="matrix(0.9624041,0,0,0.9459152,38.277879,36.71999)" x1="856.5553" y1="654.86542" x2="860.37195" y2="571.14648"/>
 </defs>
 <metadata id="metadata2968">image/svg+xml</metadata>
 <g>
  <title>Layer 1</title>
  <g id="layer1">
   <g id="g4703" transform="matrix(44.23459810483662,-1.7170713116505367,1.014004142594079,46.20495006184261,-4393.6149611231585,15985.426350356749) ">
    <path id="path4705" d="m160.440308,-336.818665c1.234543,3.520538 -0.458771,12.322998 0.842606,14.475922c1.380737,2.284241 18.946426,-1.205933 28.999924,5.864624c10.053482,7.070526 21.749069,26.015259 13.926315,42.497498c-7.822754,16.482239 -32.405685,29.074707 -46.113373,29.082306c-24.728043,-0.193298 -39.526031,-6.898407 -48.272598,-31.387451c-2.231873,-9.404327 -2.747772,-12.116638 -0.153473,-22.368286c6.403061,-20.222504 22.770859,-22.875427 41.51503,-25.282135c7.662231,-1.213928 -2.570801,-11.764587 0.908112,-13.186829c2.926834,-0.269775 8.387207,-0.965302 8.347458,0.304352z" stroke-width="1px" fill-rule="evenodd" fill="#9c151c"/>
    <path id="path4707" d="m158.725418,-335.674835c1.175491,3.352173 -0.436829,12.050171 3.01828,14.416687c3.092804,2.118347 18.040207,-1.148254 27.612823,5.584106c9.572617,6.73233 20.708801,24.770935 13.260208,40.464783c-7.448578,15.693878 -30.855682,27.684021 -43.9077,27.691254c-23.545273,-0.184052 -37.635452,-6.568451 -45.963669,-29.886139c-2.125122,-8.954498 -2.616348,-11.537079 -0.146133,-21.29837c6.096802,-19.255249 21.681671,-21.781281 39.529312,-24.072876c7.295731,-1.155853 -2.44783,-11.201843 0.86467,-12.556091c2.78685,-0.256866 5.77005,-1.552277 5.732208,-0.343353z" stroke-width="1px" fill-rule="evenodd" fill="#e10119"/>
    <path id="path4709" d="m143.760101,-319.069336c-17.373474,2.18042 -29.72908,19.250702 -27.609192,38.077179c2.119904,18.826508 17.918655,32.334045 35.29213,30.153625c0.387405,1.97934 -20.650345,-15.411072 -24.125381,-31.34613c-1.91893,-17.041473 4.045258,-32.648621 18.83696,-37.067963c-0.78772,0.035034 -1.599121,0.083466 -2.394516,0.183289z" stroke-dashoffset="758.400121" stroke-miterlimit="4" stroke-linecap="round" stroke-width="0" fill-rule="nonzero" fill="#9c151c" opacity="0.347328"/>
    <path id="path4711" d="m173.000885,-315.301117c-2.231201,0 -4.390869,0.271515 -6.46875,0.75c7.64296,6.123047 12.8125,17.836792 12.8125,31.25c0,7.636353 -1.677612,14.688171 -4.53125,20.5c14.364944,-0.885559 25.75,-12.291748 25.75,-26.21875c0,-14.503967 -12.359543,-26.281219 -27.5625,-26.28125z" stroke-dashoffset="758.400121" stroke-miterlimit="4" stroke-linecap="round" stroke-width="0" fill-rule="nonzero" fill="#fcaf3e" opacity="0.347328"/>
    <path id="path4713" d="m153.601364,-335.192902c-0.175369,1.315308 1.341187,6.971405 1.578384,9.207214c0.237183,2.235809 0.838089,3.100739 -1.524673,3.498383c-2.362747,0.397644 -4.224457,0.793915 -6.358749,0.793365c-2.134308,-0.000549 -4.163132,-0.324371 -5.300781,1.287231c-1.13765,1.611603 -2.396378,2.894775 -3.315857,4.439911c-0.919464,1.545135 1.396973,0.54306 3.108353,0.411865c1.711395,-0.131226 6.249237,-2.904938 7.341248,-1.223572c1.09201,1.681366 -2.104507,10.917114 -0.789185,11.311707c1.315308,0.394592 5.962784,-8.856415 8.681076,-8.944122c2.718338,-0.087677 6.181976,8.286469 7.62883,8.417999c1.446854,0.131531 0.000015,-7.365753 1.052261,-7.628815c1.052246,-0.263062 4.472061,6.138123 5.261246,6.050446c0.7892,-0.087677 -0.740402,-6.004028 -0.526123,-6.576569c0.214279,-0.57254 3.367416,1.082672 1.889389,-0.467682c-1.478027,-1.550354 -1.227325,-3.841827 -4.002106,-4.48941c-2.77478,-0.647552 -6.972229,-0.809021 -8.768448,-3.358795c-1.796234,-2.549805 -0.72438,-10.290222 -1.469711,-12.613922c-0.745361,-0.436523 -3.90538,-0.486938 -4.485153,-0.115234z" stroke-width="1px" fill-rule="evenodd" fill="#639f1b"/>
    <path id="path4715" d="m153.063217,-320.352081c2.186172,1.289276 -2.479797,-4.484741 -8.863968,0c-6.457321,4.536133 -3.326859,6.296417 -2.849121,4.115448c0.411819,-1.880066 9.65538,-5.328949 11.713089,-4.115448z" stroke-width="1px" fill-rule="evenodd" fill="#8ae234" opacity="0.507634"/>
    <path id="path4718" d="m158.145813,-319.261047c-2.152679,1.344513 2.339325,-2.923401 8.835571,1.39743c8.976318,9.010681 -5.907806,-1.985016 -8.835571,-1.39743z" stroke-width="1px" fill-rule="evenodd" fill="#8ae234" opacity="0.507634"/>
    <path id="path4720" d="m154.646057,-320.66864l-3.482269,4.115417l-1.266251,8.230835l4.74852,-12.346252z" stroke-width="1px" fill-rule="evenodd" fill="#77c127"/>
    <path d="m155.681259,-319.93103l4.596008,2.817749l3.780426,7.420135l-8.376434,-10.237885z" id="path4722" stroke-width="1px" fill-rule="evenodd" fill="#77c127"/>
   </g>
  </g>
 </g>
</svg>