<?xml version="1.0" encoding="UTF-8" standalone="no"?>
<!DOCTYPE svg PUBLIC "-//W3C//DTD SVG 1.1//EN"
 "http://www.w3.org/Graphics/SVG/1.1/DTD/svg11.dtd">
<!-- Generated by graphviz version 2.38.0 (20140413.2041)
 -->
<!-- Title: %3 Pages: 1 -->
<svg width="4065pt" height="4144pt"
 viewBox="0.00 0.00 4065.00 4144.00" xmlns="http://www.w3.org/2000/svg" xmlns:xlink="http://www.w3.org/1999/xlink">
<g id="graph0" class="graph" transform="scale(1 1) rotate(0) translate(4 4140)">
<title>%3</title>
<polygon fill="white" stroke="none" points="-4,4 -4,-4140 4061,-4140 4061,4 -4,4"/>
<!-- IGHV1&#45;18*04 -->
<g id="node1" class="node"><title>IGHV1&#45;18*04</title>
<ellipse fill="#b0b4c1" stroke="#b0b4c1" cx="1249.42" cy="-1319.29" rx="36" ry="36"/>
</g>
<!-- IGHV1&#45;2*04 -->
<g id="node2" class="node"><title>IGHV1&#45;2*04</title>
<ellipse fill="#b0b4c1" stroke="#b0b4c1" cx="1148.06" cy="-1151.67" rx="36" ry="36"/>
</g>
<!-- IGHV1&#45;24*01 -->
<g id="node3" class="node"><title>IGHV1&#45;24*01</title>
<ellipse fill="#b0b4c1" stroke="#b0b4c1" cx="1372.09" cy="-1362" rx="36" ry="36"/>
</g>
<!-- IGHV1&#45;3*01 -->
<g id="node4" class="node"><title>IGHV1&#45;3*01</title>
<ellipse fill="#b0b4c1" stroke="#b0b4c1" cx="1181.04" cy="-1434.35" rx="36" ry="36"/>
</g>
<!-- IGHV1&#45;46*02 -->
<g id="node5" class="node"><title>IGHV1&#45;46*02</title>
<ellipse fill="#b0b4c1" stroke="#b0b4c1" cx="1183.5" cy="-1685.36" rx="36" ry="36"/>
</g>
<!-- IGHV1&#45;69*05 -->
<g id="node6" class="node"><title>IGHV1&#45;69*05</title>
<ellipse fill="#b0b4c1" stroke="#b0b4c1" cx="2056.81" cy="-139.547" rx="36" ry="36"/>
</g>
<!-- IGHV1&#45;69*14 -->
<g id="node7" class="node"><title>IGHV1&#45;69*14</title>
<ellipse fill="#b0b4c1" stroke="#b0b4c1" cx="1419.37" cy="-1213.24" rx="36" ry="36"/>
</g>
<!-- IGHV1&#45;69D*01 -->
<g id="node8" class="node"><title>IGHV1&#45;69D*01</title>
<ellipse fill="#b0b4c1" stroke="#b0b4c1" cx="1169.56" cy="-1340.82" rx="36" ry="36"/>
</g>
<!-- IGHV1&#45;8*02 -->
<g id="node9" class="node"><title>IGHV1&#45;8*02</title>
<ellipse fill="#b0b4c1" stroke="#b0b4c1" cx="1295.85" cy="-1910.36" rx="36" ry="36"/>
</g>
<!-- IGHV2&#45;70*12 -->
<g id="node10" class="node"><title>IGHV2&#45;70*12</title>
<ellipse fill="#e0b8aa" stroke="#e0b8aa" cx="1518.11" cy="-2816.08" rx="36" ry="36"/>
</g>
<!-- IGHV2&#45;70D*14 -->
<g id="node11" class="node"><title>IGHV2&#45;70D*14</title>
<ellipse fill="#e0b8aa" stroke="#e0b8aa" cx="1893.88" cy="-3347.27" rx="36" ry="36"/>
</g>
<!-- IGHV3&#45;11*01 -->
<g id="node12" class="node"><title>IGHV3&#45;11*01</title>
<ellipse fill="#fed58c" stroke="#fed58c" cx="3982.93" cy="-3084.19" rx="36" ry="36"/>
</g>
<!-- IGHV3&#45;11*04 -->
<g id="node13" class="node"><title>IGHV3&#45;11*04</title>
<ellipse fill="#fed58c" stroke="#fed58c" cx="3621.88" cy="-2918.07" rx="36" ry="36"/>
</g>
<!-- IGHV3&#45;15*07 -->
<g id="node14" class="node"><title>IGHV3&#45;15*07</title>
<ellipse fill="#fed58c" stroke="#fed58c" cx="3284.39" cy="-2537.01" rx="36" ry="36"/>
</g>
<!-- IGHV3&#45;20*01 -->
<g id="node15" class="node"><title>IGHV3&#45;20*01</title>
<ellipse fill="#fed58c" stroke="#fed58c" cx="3539.52" cy="-3239.98" rx="36" ry="36"/>
</g>
<!-- IGHV3&#45;23*03 -->
<g id="node16" class="node"><title>IGHV3&#45;23*03</title>
<ellipse fill="#fed58c" stroke="#fed58c" cx="3278.24" cy="-3194.27" rx="36" ry="36"/>
</g>
<!-- IGHV3&#45;23D*01 -->
<g id="node17" class="node"><title>IGHV3&#45;23D*01</title>
<ellipse fill="#fed58c" stroke="#fed58c" cx="3314.56" cy="-2986.13" rx="36" ry="36"/>
</g>
<!-- IGHV3&#45;49*05 -->
<g id="node18" class="node"><title>IGHV3&#45;49*05</title>
<ellipse fill="#fed58c" stroke="#fed58c" cx="2931.81" cy="-2197.27" rx="36" ry="36"/>
</g>
<!-- IGHV3&#45;53*02 -->
<g id="node19" class="node"><title>IGHV3&#45;53*02</title>
<ellipse fill="#fed58c" stroke="#fed58c" cx="3494.1" cy="-3509.48" rx="36" ry="36"/>
</g>
<!-- IGHV3&#45;64*04 -->
<g id="node20" class="node"><title>IGHV3&#45;64*04</title>
<ellipse fill="#fed58c" stroke="#fed58c" cx="1978.26" cy="-35.9774" rx="36" ry="36"/>
</g>
<!-- IGHV3&#45;66*03 -->
<g id="node21" class="node"><title>IGHV3&#45;66*03</title>
<ellipse fill="#fed58c" stroke="#fed58c" cx="3691.95" cy="-3319.53" rx="36" ry="36"/>
</g>
<!-- IGHV3&#45;69&#45;1*02 -->
<g id="node22" class="node"><title>IGHV3&#45;69&#45;1*02</title>
<ellipse fill="#fed58c" stroke="#fed58c" cx="3142.61" cy="-2905.8" rx="36" ry="36"/>
</g>
<!-- IGHV3&#45;7*01 -->
<g id="node23" class="node"><title>IGHV3&#45;7*01</title>
<ellipse fill="#fed58c" stroke="#fed58c" cx="3886" cy="-3189.83" rx="36" ry="36"/>
</g>
<!-- IGHV3&#45;7*02 -->
<g id="node24" class="node"><title>IGHV3&#45;7*02</title>
<ellipse fill="#fed58c" stroke="#fed58c" cx="4018.02" cy="-2650.03" rx="36" ry="36"/>
</g>
<!-- IGHV3&#45;7*03 -->
<g id="node25" class="node"><title>IGHV3&#45;7*03</title>
<ellipse fill="#fed58c" stroke="#fed58c" cx="3528.59" cy="-2958.5" rx="36" ry="36"/>
</g>
<!-- IGHV3&#45;72*01 -->
<g id="node26" class="node"><title>IGHV3&#45;72*01</title>
<ellipse fill="#fed58c" stroke="#fed58c" cx="3147.95" cy="-2483.17" rx="36" ry="36"/>
</g>
<!-- IGHV3&#45;74*03 -->
<g id="node27" class="node"><title>IGHV3&#45;74*03</title>
<ellipse fill="#fed58c" stroke="#fed58c" cx="3635.26" cy="-2705.7" rx="36" ry="36"/>
</g>
<!-- IGHV3&#45;9*02 -->
<g id="node28" class="node"><title>IGHV3&#45;9*02</title>
<ellipse fill="#fed58c" stroke="#fed58c" cx="3460.35" cy="-2813.28" rx="36" ry="36"/>
</g>
<!-- IGHV3&#45;NL1*01 -->
<g id="node29" class="node"><title>IGHV3&#45;NL1*01</title>
<ellipse fill="#fed58c" stroke="#fed58c" cx="3297.15" cy="-2400.03" rx="36" ry="36"/>
</g>
<!-- IGHV4&#45;30&#45;4*06 -->
<g id="node30" class="node"><title>IGHV4&#45;30&#45;4*06</title>
<ellipse fill="#ebf09b" stroke="#ebf09b" cx="224.799" cy="-3853.73" rx="36" ry="36"/>
</g>
<!-- IGHV4&#45;34*13 -->
<g id="node31" class="node"><title>IGHV4&#45;34*13</title>
<ellipse fill="#ebf09b" stroke="#ebf09b" cx="325.096" cy="-3709.11" rx="36" ry="36"/>
</g>
<!-- IGHV4&#45;4*07 -->
<g id="node32" class="node"><title>IGHV4&#45;4*07</title>
<ellipse fill="#ebf09b" stroke="#ebf09b" cx="36.3254" cy="-3838.4" rx="36" ry="36"/>
</g>
<!-- IGHV4&#45;59*09 -->
<g id="node33" class="node"><title>IGHV4&#45;59*09</title>
<ellipse fill="#ebf09b" stroke="#ebf09b" cx="527.204" cy="-3671.08" rx="36" ry="36"/>
</g>
<!-- IGHV4&#45;59*10 -->
<g id="node34" class="node"><title>IGHV4&#45;59*10</title>
<ellipse fill="#ebf09b" stroke="#ebf09b" cx="265.366" cy="-3927.2" rx="36" ry="36"/>
</g>
<!-- IGHV4&#45;61*02 -->
<g id="node35" class="node"><title>IGHV4&#45;61*02</title>
<ellipse fill="#ebf09b" stroke="#ebf09b" cx="231.121" cy="-4030.88" rx="36" ry="36"/>
</g>
<!-- IGHV4&#45;61*08 -->
<g id="node36" class="node"><title>IGHV4&#45;61*08</title>
<ellipse fill="#ebf09b" stroke="#ebf09b" cx="384.715" cy="-3652.77" rx="36" ry="36"/>
</g>
<!-- IGHV5&#45;51*02 -->
<g id="node37" class="node"><title>IGHV5&#45;51*02</title>
<ellipse fill="#4c7bae" stroke="#4c7bae" cx="2145.94" cy="-2470.79" rx="36" ry="36"/>
</g>
<!-- IGHV5&#45;51*03 -->
<g id="node38" class="node"><title>IGHV5&#45;51*03</title>
<ellipse fill="#4c7bae" stroke="#4c7bae" cx="2555.69" cy="-1907.44" rx="36" ry="36"/>
</g>
<!-- n0 -->
<g id="node39" class="node"><title>n0</title>
<ellipse fill="black" stroke="black" cx="2191.99" cy="-2096.7" rx="1.8" ry="1.8"/>
</g>
<!-- n0&#45;&#45;IGHV5&#45;51*03 -->
<g id="edge74" class="edge"><title>n0&#45;&#45;IGHV5&#45;51*03</title>
<path fill="none" stroke="black" stroke-width="3.7" d="M2193.61,-2095.85C2214.85,-2084.8 2439.01,-1968.16 2523.61,-1924.13"/>
</g>
<!-- n1 -->
<g id="node40" class="node"><title>n1</title>
<ellipse fill="black" stroke="black" cx="1913.23" cy="-2313.51" rx="1.8" ry="1.8"/>
</g>
<!-- n0&#45;&#45;n1 -->
<g id="edge1" class="edge"><title>n0&#45;&#45;n1</title>
<path fill="none" stroke="black" stroke-width="3.7" d="M2190.49,-2097.86C2169.58,-2114.13 1936.65,-2295.29 1914.86,-2312.24"/>
</g>
<!-- n1&#45;&#45;IGHV5&#45;51*02 -->
<g id="edge73" class="edge"><title>n1&#45;&#45;IGHV5&#45;51*02</title>
<path fill="none" stroke="black" stroke-width="3.7" d="M1914.97,-2314.68C1931.23,-2325.68 2057.36,-2410.92 2116.07,-2450.6"/>
</g>
<!-- n2 -->
<g id="node41" class="node"><title>n2</title>
<ellipse fill="black" stroke="black" cx="1582.14" cy="-2474.12" rx="1.8" ry="1.8"/>
</g>
<!-- n1&#45;&#45;n2 -->
<g id="edge2" class="edge"><title>n1&#45;&#45;n2</title>
<path fill="none" stroke="black" stroke-width="3.7" d="M1911.45,-2314.37C1886.51,-2326.47 1607.69,-2461.72 1583.77,-2473.33"/>
</g>
<!-- n3 -->
<g id="node42" class="node"><title>n3</title>
<ellipse fill="black" stroke="black" cx="1588.47" cy="-2982.71" rx="1.8" ry="1.8"/>
</g>
<!-- n2&#45;&#45;n3 -->
<g id="edge3" class="edge"><title>n2&#45;&#45;n3</title>
<path fill="none" stroke="black" stroke-width="3.7" d="M1582.16,-2475.96C1582.56,-2507.95 1588.02,-2946.39 1588.45,-2980.6"/>
</g>
<!-- n29 -->
<g id="node68" class="node"><title>n29</title>
<ellipse fill="black" stroke="black" cx="1370.14" cy="-2046.46" rx="1.8" ry="1.8"/>
</g>
<!-- n2&#45;&#45;n29 -->
<g id="edge56" class="edge"><title>n2&#45;&#45;n29</title>
<path fill="none" stroke="black" stroke-width="3.7" d="M1581.19,-2472.21C1566.5,-2442.56 1385.16,-2076.76 1371.01,-2048.23"/>
</g>
<!-- n4 -->
<g id="node43" class="node"><title>n4</title>
<ellipse fill="black" stroke="black" cx="978.718" cy="-3382.4" rx="1.8" ry="1.8"/>
</g>
<!-- n3&#45;&#45;n4 -->
<g id="edge4" class="edge"><title>n3&#45;&#45;n4</title>
<path fill="none" stroke="black" stroke-width="3.7" d="M1586.72,-2983.86C1552.08,-3006.57 1013.96,-3359.3 980.36,-3381.32"/>
</g>
<!-- n12 -->
<g id="node51" class="node"><title>n12</title>
<ellipse fill="black" stroke="black" cx="2265.77" cy="-2896.23" rx="1.8" ry="1.8"/>
</g>
<!-- n3&#45;&#45;n12 -->
<g id="edge21" class="edge"><title>n3&#45;&#45;n12</title>
<path fill="none" stroke="black" stroke-width="3.7" d="M1590.42,-2982.46C1628.9,-2977.55 2226.62,-2901.23 2263.94,-2896.47"/>
</g>
<!-- n4&#45;&#45;IGHV4&#45;34*13 -->
<g id="edge5" class="edge"><title>n4&#45;&#45;IGHV4&#45;34*13</title>
<path fill="none" stroke="black" stroke-width="3.7" d="M976.842,-3383.34C943.821,-3399.84 484.162,-3629.6 357.314,-3693.01"/>
</g>
<!-- n5 -->
<g id="node44" class="node"><title>n5</title>
<ellipse fill="black" stroke="black" cx="778.823" cy="-3684.41" rx="1.8" ry="1.8"/>
</g>
<!-- n4&#45;&#45;n5 -->
<g id="edge6" class="edge"><title>n4&#45;&#45;n5</title>
<path fill="none" stroke="black" stroke-width="3.7" d="M977.642,-3384.03C962.646,-3406.68 795.62,-3659.04 779.994,-3682.64"/>
</g>
<!-- n6 -->
<g id="node45" class="node"><title>n6</title>
<ellipse fill="black" stroke="black" cx="563.767" cy="-3950.71" rx="1.8" ry="1.8"/>
</g>
<!-- n5&#45;&#45;n6 -->
<g id="edge7" class="edge"><title>n5&#45;&#45;n6</title>
<path fill="none" stroke="black" stroke-width="3.7" d="M777.666,-3685.85C761.532,-3705.82 581.838,-3928.34 565.027,-3949.15"/>
</g>
<!-- n10 -->
<g id="node49" class="node"><title>n10</title>
<ellipse fill="black" stroke="black" cx="812.37" cy="-3571.2" rx="1.8" ry="1.8"/>
</g>
<!-- n5&#45;&#45;n10 -->
<g id="edge16" class="edge"><title>n5&#45;&#45;n10</title>
<path fill="none" stroke="black" stroke-width="3.7" d="M779.405,-3682.45C783.477,-3668.71 807.647,-3587.14 811.771,-3573.22"/>
</g>
<!-- n7 -->
<g id="node46" class="node"><title>n7</title>
<ellipse fill="black" stroke="black" cx="329.449" cy="-4134.7" rx="1.8" ry="1.8"/>
</g>
<!-- n6&#45;&#45;n7 -->
<g id="edge8" class="edge"><title>n6&#45;&#45;n7</title>
<path fill="none" stroke="black" stroke-width="3.7" d="M562.271,-3951.89C543.406,-3966.7 352.154,-4116.87 331.292,-4133.25"/>
</g>
<!-- n9 -->
<g id="node48" class="node"><title>n9</title>
<ellipse fill="black" stroke="black" cx="459.487" cy="-3859.03" rx="1.8" ry="1.8"/>
</g>
<!-- n6&#45;&#45;n9 -->
<g id="edge13" class="edge"><title>n6&#45;&#45;n9</title>
<path fill="none" stroke="black" stroke-width="3.7" d="M562.293,-3949.42C550.609,-3939.14 473.098,-3871 461.058,-3860.41"/>
</g>
<!-- n7&#45;&#45;IGHV4&#45;61*02 -->
<g id="edge9" class="edge"><title>n7&#45;&#45;IGHV4&#45;61*02</title>
<path fill="none" stroke="black" stroke-width="3.7" d="M328.059,-4133.23C320.356,-4125.1 282.312,-4084.93 256.239,-4057.4"/>
</g>
<!-- n8 -->
<g id="node47" class="node"><title>n8</title>
<ellipse fill="black" stroke="black" cx="100.825" cy="-4098.12" rx="1.8" ry="1.8"/>
</g>
<!-- n7&#45;&#45;n8 -->
<g id="edge10" class="edge"><title>n7&#45;&#45;n8</title>
<path fill="none" stroke="black" stroke-width="3.7" d="M327.472,-4134.38C306.523,-4131.03 125.652,-4102.09 103.125,-4098.48"/>
</g>
<!-- n8&#45;&#45;IGHV4&#45;4*07 -->
<g id="edge12" class="edge"><title>n8&#45;&#45;IGHV4&#45;4*07</title>
<path fill="none" stroke="black" stroke-width="3.7" d="M100.343,-4096.17C95.8756,-4078.19 61.5011,-3939.77 45.0479,-3873.52"/>
</g>
<!-- n8&#45;&#45;IGHV4&#45;59*10 -->
<g id="edge11" class="edge"><title>n8&#45;&#45;IGHV4&#45;59*10</title>
<path fill="none" stroke="black" stroke-width="3.7" d="M102.247,-4096.64C114.12,-4084.3 197.372,-3997.83 240.135,-3953.41"/>
</g>
<!-- n9&#45;&#45;IGHV4&#45;59*09 -->
<g id="edge14" class="edge"><title>n9&#45;&#45;IGHV4&#45;59*09</title>
<path fill="none" stroke="black" stroke-width="3.7" d="M460.248,-3856.92C465.537,-3842.24 497.148,-3754.5 514.981,-3705.01"/>
</g>
<!-- n9&#45;&#45;IGHV4&#45;61*08 -->
<g id="edge15" class="edge"><title>n9&#45;&#45;IGHV4&#45;61*08</title>
<path fill="none" stroke="black" stroke-width="3.7" d="M458.841,-3857.25C453.531,-3842.6 416.807,-3741.29 397.12,-3686.99"/>
</g>
<!-- n10&#45;&#45;IGHV4&#45;30&#45;4*06 -->
<g id="edge17" class="edge"><title>n10&#45;&#45;IGHV4&#45;30&#45;4*06</title>
<path fill="none" stroke="black" stroke-width="3.7" d="M810.684,-3572.01C781.302,-3586.14 376.184,-3780.93 257.345,-3838.08"/>
</g>
<!-- n11 -->
<g id="node50" class="node"><title>n11</title>
<ellipse fill="black" stroke="black" cx="1326.16" cy="-3309.72" rx="1.8" ry="1.8"/>
</g>
<!-- n10&#45;&#45;n11 -->
<g id="edge18" class="edge"><title>n10&#45;&#45;n11</title>
<path fill="none" stroke="black" stroke-width="3.7" d="M814.23,-3570.26C846.678,-3553.74 1293.08,-3326.56 1324.43,-3310.6"/>
</g>
<!-- n11&#45;&#45;IGHV2&#45;70*12 -->
<g id="edge19" class="edge"><title>n11&#45;&#45;IGHV2&#45;70*12</title>
<path fill="none" stroke="black" stroke-width="3.7" d="M1326.86,-3307.93C1337.35,-3280.95 1463.66,-2956.13 1505.06,-2849.64"/>
</g>
<!-- n11&#45;&#45;IGHV2&#45;70D*14 -->
<g id="edge20" class="edge"><title>n11&#45;&#45;IGHV2&#45;70D*14</title>
<path fill="none" stroke="black" stroke-width="3.7" d="M1328.22,-3309.86C1359.46,-3311.92 1738.08,-3336.97 1857.82,-3344.89"/>
</g>
<!-- n13 -->
<g id="node52" class="node"><title>n13</title>
<ellipse fill="black" stroke="black" cx="2732.18" cy="-2676.1" rx="1.8" ry="1.8"/>
</g>
<!-- n12&#45;&#45;n13 -->
<g id="edge22" class="edge"><title>n12&#45;&#45;n13</title>
<path fill="none" stroke="black" stroke-width="3.7" d="M2267.45,-2895.44C2296.79,-2881.59 2698.88,-2691.82 2730.24,-2677.01"/>
</g>
<!-- n15 -->
<g id="node54" class="node"><title>n15</title>
<ellipse fill="black" stroke="black" cx="2758.08" cy="-2964.72" rx="1.8" ry="1.8"/>
</g>
<!-- n12&#45;&#45;n15 -->
<g id="edge27" class="edge"><title>n12&#45;&#45;n15</title>
<path fill="none" stroke="black" stroke-width="3.7" d="M2267.96,-2896.54C2302.09,-2901.29 2723.21,-2959.87 2756.05,-2964.44"/>
</g>
<!-- n13&#45;&#45;IGHV3&#45;15*07 -->
<g id="edge23" class="edge"><title>n13&#45;&#45;IGHV3&#45;15*07</title>
<path fill="none" stroke="black" stroke-width="3.7" d="M2734.18,-2675.59C2764.57,-2667.94 3132.84,-2575.18 3249.32,-2545.84"/>
</g>
<!-- n14 -->
<g id="node53" class="node"><title>n14</title>
<ellipse fill="black" stroke="black" cx="2869.9" cy="-2451.51" rx="1.8" ry="1.8"/>
</g>
<!-- n13&#45;&#45;n14 -->
<g id="edge24" class="edge"><title>n13&#45;&#45;n14</title>
<path fill="none" stroke="black" stroke-width="3.7" d="M2733.21,-2674.42C2745.12,-2654.99 2856.66,-2473.1 2868.82,-2453.27"/>
</g>
<!-- n14&#45;&#45;IGHV3&#45;49*05 -->
<g id="edge26" class="edge"><title>n14&#45;&#45;IGHV3&#45;49*05</title>
<path fill="none" stroke="black" stroke-width="3.7" d="M2870.36,-2449.61C2874.63,-2432.07 2907.39,-2297.56 2923.25,-2232.41"/>
</g>
<!-- n14&#45;&#45;IGHV3&#45;72*01 -->
<g id="edge25" class="edge"><title>n14&#45;&#45;IGHV3&#45;72*01</title>
<path fill="none" stroke="black" stroke-width="3.7" d="M2871.98,-2451.75C2891.38,-2453.96 3041.72,-2471.08 3111.98,-2479.08"/>
</g>
<!-- n16 -->
<g id="node55" class="node"><title>n16</title>
<ellipse fill="black" stroke="black" cx="3202.06" cy="-2999" rx="1.8" ry="1.8"/>
</g>
<!-- n15&#45;&#45;n16 -->
<g id="edge28" class="edge"><title>n15&#45;&#45;n16</title>
<path fill="none" stroke="black" stroke-width="3.7" d="M2760.06,-2964.87C2790.84,-2967.25 3170.61,-2996.57 3200.23,-2998.86"/>
</g>
<!-- n22 -->
<g id="node61" class="node"><title>n22</title>
<ellipse fill="black" stroke="black" cx="3038.41" cy="-2925.88" rx="1.8" ry="1.8"/>
</g>
<!-- n15&#45;&#45;n22 -->
<g id="edge41" class="edge"><title>n15&#45;&#45;n22</title>
<path fill="none" stroke="black" stroke-width="3.7" d="M2759.87,-2964.47C2782.54,-2961.33 3013.14,-2929.38 3036.5,-2926.14"/>
</g>
<!-- n16&#45;&#45;IGHV3&#45;74*03 -->
<g id="edge29" class="edge"><title>n16&#45;&#45;IGHV3&#45;74*03</title>
<path fill="none" stroke="black" stroke-width="3.7" d="M3203.63,-2997.94C3227.25,-2981.95 3511.03,-2789.81 3605.15,-2726.09"/>
</g>
<!-- n17 -->
<g id="node56" class="node"><title>n17</title>
<ellipse fill="black" stroke="black" cx="3545.71" cy="-3048.5" rx="1.8" ry="1.8"/>
</g>
<!-- n16&#45;&#45;n17 -->
<g id="edge30" class="edge"><title>n16&#45;&#45;n17</title>
<path fill="none" stroke="black" stroke-width="3.7" d="M3203.91,-2999.27C3229.69,-3002.98 3516.83,-3044.34 3543.69,-3048.21"/>
</g>
<!-- n18 -->
<g id="node57" class="node"><title>n18</title>
<ellipse fill="black" stroke="black" cx="3478.63" cy="-3109.44" rx="1.8" ry="1.8"/>
</g>
<!-- n17&#45;&#45;n18 -->
<g id="edge31" class="edge"><title>n17&#45;&#45;n18</title>
<path fill="none" stroke="black" stroke-width="3.7" d="M3544.05,-3050.01C3534.69,-3058.51 3488.57,-3100.41 3480,-3108.19"/>
</g>
<!-- n20 -->
<g id="node59" class="node"><title>n20</title>
<ellipse fill="black" stroke="black" cx="3824.06" cy="-2978.49" rx="1.8" ry="1.8"/>
</g>
<!-- n17&#45;&#45;n20 -->
<g id="edge36" class="edge"><title>n17&#45;&#45;n20</title>
<path fill="none" stroke="black" stroke-width="3.7" d="M3547.48,-3048.06C3569.99,-3042.4 3798.97,-2984.8 3822.17,-2978.96"/>
</g>
<!-- n18&#45;&#45;IGHV3&#45;69&#45;1*02 -->
<g id="edge32" class="edge"><title>n18&#45;&#45;IGHV3&#45;69&#45;1*02</title>
<path fill="none" stroke="black" stroke-width="3.7" d="M3476.83,-3108.34C3455.54,-3095.44 3252.1,-2972.15 3173.45,-2924.49"/>
</g>
<!-- n19 -->
<g id="node58" class="node"><title>n19</title>
<ellipse fill="black" stroke="black" cx="3757.74" cy="-3125.98" rx="1.8" ry="1.8"/>
</g>
<!-- n18&#45;&#45;n19 -->
<g id="edge33" class="edge"><title>n18&#45;&#45;n19</title>
<path fill="none" stroke="black" stroke-width="3.7" d="M3480.72,-3109.56C3504.96,-3111 3732.79,-3124.5 3755.86,-3125.87"/>
</g>
<!-- n19&#45;&#45;IGHV3&#45;11*01 -->
<g id="edge34" class="edge"><title>n19&#45;&#45;IGHV3&#45;11*01</title>
<path fill="none" stroke="black" stroke-width="3.7" d="M3759.69,-3125.62C3775.85,-3122.62 3888.67,-3101.68 3947.46,-3090.77"/>
</g>
<!-- n19&#45;&#45;IGHV3&#45;11*04 -->
<g id="edge35" class="edge"><title>n19&#45;&#45;IGHV3&#45;11*04</title>
<path fill="none" stroke="black" stroke-width="3.7" d="M3756.57,-3124.18C3746.66,-3109.02 3676.57,-3001.75 3641.61,-2948.25"/>
</g>
<!-- n20&#45;&#45;IGHV3&#45;7*03 -->
<g id="edge37" class="edge"><title>n20&#45;&#45;IGHV3&#45;7*03</title>
<path fill="none" stroke="black" stroke-width="3.7" d="M3822.18,-2978.36C3802.76,-2977.05 3638.56,-2965.94 3564.53,-2960.93"/>
</g>
<!-- n21 -->
<g id="node60" class="node"><title>n21</title>
<ellipse fill="black" stroke="black" cx="4055.3" cy="-2937.54" rx="1.8" ry="1.8"/>
</g>
<!-- n20&#45;&#45;n21 -->
<g id="edge38" class="edge"><title>n20&#45;&#45;n21</title>
<path fill="none" stroke="black" stroke-width="3.7" d="M3826.06,-2978.13C3847.43,-2974.35 4033.25,-2941.44 4053.51,-2937.86"/>
</g>
<!-- n21&#45;&#45;IGHV3&#45;7*01 -->
<g id="edge40" class="edge"><title>n21&#45;&#45;IGHV3&#45;7*01</title>
<path fill="none" stroke="black" stroke-width="3.7" d="M4054.22,-2939.15C4043.07,-2955.77 3948.54,-3096.64 3906.27,-3159.62"/>
</g>
<!-- n21&#45;&#45;IGHV3&#45;7*02 -->
<g id="edge39" class="edge"><title>n21&#45;&#45;IGHV3&#45;7*02</title>
<path fill="none" stroke="black" stroke-width="3.7" d="M4055.06,-2935.7C4052.62,-2916.88 4032.06,-2758.25 4022.67,-2685.83"/>
</g>
<!-- n23 -->
<g id="node62" class="node"><title>n23</title>
<ellipse fill="black" stroke="black" cx="3053" cy="-2512.49" rx="1.8" ry="1.8"/>
</g>
<!-- n22&#45;&#45;n23 -->
<g id="edge42" class="edge"><title>n22&#45;&#45;n23</title>
<path fill="none" stroke="black" stroke-width="3.7" d="M3038.47,-2924.04C3039.48,-2895.49 3051.86,-2544.64 3052.92,-2514.55"/>
</g>
<!-- n28 -->
<g id="node67" class="node"><title>n28</title>
<ellipse fill="black" stroke="black" cx="3304.95" cy="-3250.77" rx="1.8" ry="1.8"/>
</g>
<!-- n22&#45;&#45;n28 -->
<g id="edge53" class="edge"><title>n22&#45;&#45;n28</title>
<path fill="none" stroke="black" stroke-width="3.7" d="M3039.6,-2927.33C3058,-2949.76 3284.22,-3225.5 3303.63,-3249.16"/>
</g>
<!-- n24 -->
<g id="node63" class="node"><title>n24</title>
<ellipse fill="black" stroke="black" cx="3180.42" cy="-2813.13" rx="1.8" ry="1.8"/>
</g>
<!-- n23&#45;&#45;n24 -->
<g id="edge43" class="edge"><title>n23&#45;&#45;n24</title>
<path fill="none" stroke="black" stroke-width="3.7" d="M3053.81,-2514.41C3064.15,-2538.81 3169.8,-2788.07 3179.68,-2811.38"/>
</g>
<!-- n25 -->
<g id="node64" class="node"><title>n25</title>
<ellipse fill="black" stroke="black" cx="3013.04" cy="-2022.26" rx="1.8" ry="1.8"/>
</g>
<!-- n23&#45;&#45;n25 -->
<g id="edge46" class="edge"><title>n23&#45;&#45;n25</title>
<path fill="none" stroke="black" stroke-width="3.7" d="M3052.82,-2510.3C3050.05,-2476.32 3015.87,-2056.99 3013.2,-2024.28"/>
</g>
<!-- n24&#45;&#45;IGHV3&#45;23*03 -->
<g id="edge44" class="edge"><title>n24&#45;&#45;IGHV3&#45;23*03</title>
<path fill="none" stroke="black" stroke-width="3.7" d="M3180.94,-2815.18C3187.14,-2839.32 3246.37,-3070.08 3269.27,-3159.3"/>
</g>
<!-- n24&#45;&#45;IGHV3&#45;23D*01 -->
<g id="edge45" class="edge"><title>n24&#45;&#45;IGHV3&#45;23D*01</title>
<path fill="none" stroke="black" stroke-width="3.7" d="M3181.58,-2814.63C3191.1,-2826.91 3256.99,-2911.88 3292.3,-2957.43"/>
</g>
<!-- n26 -->
<g id="node65" class="node"><title>n26</title>
<ellipse fill="black" stroke="black" cx="3341.34" cy="-2575.61" rx="1.8" ry="1.8"/>
</g>
<!-- n25&#45;&#45;n26 -->
<g id="edge47" class="edge"><title>n25&#45;&#45;n26</title>
<path fill="none" stroke="black" stroke-width="3.7" d="M3013.98,-2023.85C3032.56,-2055.16 3320.03,-2539.7 3340.22,-2573.73"/>
</g>
<!-- n27 -->
<g id="node66" class="node"><title>n27</title>
<ellipse fill="black" stroke="black" cx="2690.9" cy="-1324.59" rx="1.8" ry="1.8"/>
</g>
<!-- n25&#45;&#45;n27 -->
<g id="edge50" class="edge"><title>n25&#45;&#45;n27</title>
<path fill="none" stroke="black" stroke-width="3.7" d="M3012.11,-2020.26C2993.81,-1980.61 2709.52,-1364.91 2691.77,-1326.47"/>
</g>
<!-- n26&#45;&#45;IGHV3&#45;20*01 -->
<g id="edge48" class="edge"><title>n26&#45;&#45;IGHV3&#45;20*01</title>
<path fill="none" stroke="black" stroke-width="3.7" d="M3341.91,-2577.52C3351.87,-2610.93 3490.03,-3074.07 3529.23,-3205.46"/>
</g>
<!-- n26&#45;&#45;IGHV3&#45;9*02 -->
<g id="edge49" class="edge"><title>n26&#45;&#45;IGHV3&#45;9*02</title>
<path fill="none" stroke="black" stroke-width="3.7" d="M3342.23,-2577.39C3350.46,-2593.82 3413.74,-2720.18 3444.14,-2780.9"/>
</g>
<!-- n27&#45;&#45;IGHV3&#45;64*04 -->
<g id="edge52" class="edge"><title>n27&#45;&#45;IGHV3&#45;64*04</title>
<path fill="none" stroke="black" stroke-width="3.7" d="M2689.93,-1322.83C2663.42,-1274.89 2102.89,-261.326 1995.84,-67.7633"/>
</g>
<!-- n27&#45;&#45;IGHV3&#45;NL1*01 -->
<g id="edge51" class="edge"><title>n27&#45;&#45;IGHV3&#45;NL1*01</title>
<path fill="none" stroke="black" stroke-width="3.7" d="M2691.89,-1326.33C2716.14,-1369.36 3181.83,-2195.47 3279.34,-2368.44"/>
</g>
<!-- n28&#45;&#45;IGHV3&#45;53*02 -->
<g id="edge54" class="edge"><title>n28&#45;&#45;IGHV3&#45;53*02</title>
<path fill="none" stroke="black" stroke-width="3.7" d="M3306.16,-3252.43C3318.72,-3269.6 3425.84,-3416.11 3472.51,-3479.95"/>
</g>
<!-- n28&#45;&#45;IGHV3&#45;66*03 -->
<g id="edge55" class="edge"><title>n28&#45;&#45;IGHV3&#45;66*03</title>
<path fill="none" stroke="black" stroke-width="3.7" d="M3307.04,-3251.14C3331.55,-3255.5 3565.85,-3297.13 3656.44,-3313.23"/>
</g>
<!-- n30 -->
<g id="node69" class="node"><title>n30</title>
<ellipse fill="black" stroke="black" cx="1148.4" cy="-1818.4" rx="1.8" ry="1.8"/>
</g>
<!-- n29&#45;&#45;n30 -->
<g id="edge57" class="edge"><title>n29&#45;&#45;n30</title>
<path fill="none" stroke="black" stroke-width="3.7" d="M1368.72,-2045.01C1350.72,-2026.49 1166.88,-1837.41 1149.69,-1819.72"/>
</g>
<!-- n32 -->
<g id="node71" class="node"><title>n32</title>
<ellipse fill="black" stroke="black" cx="1321.28" cy="-1661.65" rx="1.8" ry="1.8"/>
</g>
<!-- n29&#45;&#45;n32 -->
<g id="edge62" class="edge"><title>n29&#45;&#45;n32</title>
<path fill="none" stroke="black" stroke-width="3.7" d="M1369.87,-2044.39C1366.19,-2015.41 1325.05,-1691.34 1321.52,-1663.55"/>
</g>
<!-- n30&#45;&#45;IGHV1&#45;8*02 -->
<g id="edge58" class="edge"><title>n30&#45;&#45;IGHV1&#45;8*02</title>
<path fill="none" stroke="black" stroke-width="3.7" d="M1150.05,-1819.43C1161.19,-1826.38 1225.93,-1866.75 1265.3,-1891.31"/>
</g>
<!-- n31 -->
<g id="node70" class="node"><title>n31</title>
<ellipse fill="black" stroke="black" cx="1049" cy="-1523.93" rx="1.8" ry="1.8"/>
</g>
<!-- n30&#45;&#45;n31 -->
<g id="edge59" class="edge"><title>n30&#45;&#45;n31</title>
<path fill="none" stroke="black" stroke-width="3.7" d="M1147.76,-1816.52C1139.7,-1792.61 1057.29,-1548.47 1049.58,-1525.64"/>
</g>
<!-- n31&#45;&#45;IGHV1&#45;2*04 -->
<g id="edge60" class="edge"><title>n31&#45;&#45;IGHV1&#45;2*04</title>
<path fill="none" stroke="black" stroke-width="3.7" d="M1049.53,-1521.93C1055.79,-1498.4 1115.49,-1274.06 1138.8,-1186.46"/>
</g>
<!-- n31&#45;&#45;IGHV1&#45;46*02 -->
<g id="edge61" class="edge"><title>n31&#45;&#45;IGHV1&#45;46*02</title>
<path fill="none" stroke="black" stroke-width="3.7" d="M1050.16,-1525.32C1059.64,-1536.7 1124.71,-1614.8 1160.33,-1657.55"/>
</g>
<!-- n32&#45;&#45;IGHV1&#45;18*04 -->
<g id="edge72" class="edge"><title>n32&#45;&#45;IGHV1&#45;18*04</title>
<path fill="none" stroke="black" stroke-width="3.7" d="M1320.89,-1659.81C1316.41,-1638.46 1274.19,-1437.34 1256.83,-1354.59"/>
</g>
<!-- n33 -->
<g id="node72" class="node"><title>n33</title>
<ellipse fill="black" stroke="black" cx="1300.95" cy="-1394.87" rx="1.8" ry="1.8"/>
</g>
<!-- n32&#45;&#45;n33 -->
<g id="edge63" class="edge"><title>n32&#45;&#45;n33</title>
<path fill="none" stroke="black" stroke-width="3.7" d="M1321.13,-1659.65C1319.36,-1636.48 1302.77,-1418.72 1301.09,-1396.67"/>
</g>
<!-- n33&#45;&#45;IGHV1&#45;24*01 -->
<g id="edge64" class="edge"><title>n33&#45;&#45;IGHV1&#45;24*01</title>
<path fill="none" stroke="black" stroke-width="3.7" d="M1302.71,-1394.06C1307.93,-1391.64 1323.94,-1384.25 1339.26,-1377.17"/>
</g>
<!-- n34 -->
<g id="node73" class="node"><title>n34</title>
<ellipse fill="black" stroke="black" cx="1289.02" cy="-1134.87" rx="1.8" ry="1.8"/>
</g>
<!-- n33&#45;&#45;n34 -->
<g id="edge65" class="edge"><title>n33&#45;&#45;n34</title>
<path fill="none" stroke="black" stroke-width="3.7" d="M1300.87,-1392.92C1299.83,-1370.43 1290.17,-1159.86 1289.12,-1136.9"/>
</g>
<!-- n34&#45;&#45;IGHV1&#45;3*01 -->
<g id="edge66" class="edge"><title>n34&#45;&#45;IGHV1&#45;3*01</title>
<path fill="none" stroke="black" stroke-width="3.7" d="M1288.33,-1136.78C1281.16,-1156.68 1219.86,-1326.7 1193.27,-1400.45"/>
</g>
<!-- n35 -->
<g id="node74" class="node"><title>n35</title>
<ellipse fill="black" stroke="black" cx="1422.57" cy="-916.804" rx="1.8" ry="1.8"/>
</g>
<!-- n34&#45;&#45;n35 -->
<g id="edge67" class="edge"><title>n34&#45;&#45;n35</title>
<path fill="none" stroke="black" stroke-width="3.7" d="M1290.18,-1132.98C1302.52,-1112.84 1409.84,-937.598 1421.54,-918.492"/>
</g>
<!-- n35&#45;&#45;IGHV1&#45;69*14 -->
<g id="edge71" class="edge"><title>n35&#45;&#45;IGHV1&#45;69*14</title>
<path fill="none" stroke="black" stroke-width="3.7" d="M1422.55,-918.696C1422.34,-938.174 1420.56,-1102.9 1419.76,-1177.17"/>
</g>
<!-- n36 -->
<g id="node75" class="node"><title>n36</title>
<ellipse fill="black" stroke="black" cx="1586.08" cy="-727.143" rx="1.8" ry="1.8"/>
</g>
<!-- n35&#45;&#45;n36 -->
<g id="edge68" class="edge"><title>n35&#45;&#45;n36</title>
<path fill="none" stroke="black" stroke-width="3.7" d="M1423.99,-915.164C1439.1,-897.64 1570.49,-745.228 1584.81,-728.611"/>
</g>
<!-- n36&#45;&#45;IGHV1&#45;69*05 -->
<g id="edge69" class="edge"><title>n36&#45;&#45;IGHV1&#45;69*05</title>
<path fill="none" stroke="black" stroke-width="3.7" d="M1587.43,-725.457C1611.27,-695.704 1943.76,-280.669 2034.22,-167.739"/>
</g>
<!-- n36&#45;&#45;IGHV1&#45;69D*01 -->
<g id="edge70" class="edge"><title>n36&#45;&#45;IGHV1&#45;69D*01</title>
<path fill="none" stroke="black" stroke-width="3.7" d="M1584.88,-728.903C1563.82,-759.942 1270.26,-1192.46 1189.82,-1310.98"/>
</g>
</g>
</svg>
