<svg width="303" height="267" xmlns="http://www.w3.org/2000/svg"><g fill="none" fill-rule="evenodd"><path d="M0 211.8h46.5V267H0l15.787-26.7L0 211.8z" fill="#DADADA"/><path d="M17.2 237.45v-3h-1.5v-1.5h-1.5v-3h-1.5v-3h-1.5v-3H9.7v-3H8.2v-3H6.7v-3H5.2v-3.3H1v4.5h1.5v3H4v3h1.5v3H7v3h1.5v3H10v3h1.5v3H13v1.05-.45h1.5v3.9h4.2v-4.2h-1.5zm-4.2 1.2v-.45.45zm2.7 5.7v1.5h-1.5v3h-1.5v3h-1.5v3H9.7v3H8.2v3H6.7v3H5.2v3H1v-4.2h1.5v-3H4v-3h1.5v-3H7v-3h1.5v-3H10v-3h1.5v-3H13v-3l2.7 5.7z" fill="#DADADA"/><path fill="#909090" d="M24.6 256.35h21.9v3.3H24.6z"/><path fill="#909090" d="M28.5 259.35h18v3.3h-18z"/><path fill="#909090" d="M33 260.85h4.5v3.3H33zm4.5 1.5h9v3.3h-9z"/><path fill="#909090" d="M42 263.55h4.5v3.3H42z"/><path d="M303 211.65h-45.9v55.2H303l-15.583-26.7L303 211.65z" fill="#DADADA"/><path d="M286.8 237.45v-3h1.5v-1.5h1.5v-3h1.5v-3h1.5v-3h1.5v-3h1.5v-3h1.5v-3h1.5v-3.3h4.2v4.5h-1.5v3H300v3h-1.5v3H297v3h-1.5v3H294v3h-1.5v3H291v4.5h1.5v3h1.5v3h1.5v3h1.5v3h1.5v3h1.5v3h1.5v3h1.5v4.2h-4.2v-3h-1.5v-3h-1.5v-3h-1.5v-3h-1.5v-3h-1.5v-3h-1.5v-3h-1.5v-1.5h-1.5v-2.7h-1.5v-4.2h1.5z" fill="#DADADA"/><path fill="#909090" d="M257.1 256.35H279v3.3h-21.9z"/><path fill="#909090" d="M257.1 259.35h18v3.3h-18z"/><path fill="#909090" d="M266.1 260.85h4.5v3.3h-4.5zm-9 1.5h9v3.3h-9z"/><path fill="#909090" d="M257.1 263.55h4.5v3.3h-4.5z"/><path fill="#FFF" d="M24.6 201.15h254.7v55.2H24.6z"/><path d="M274 214.6v.933h-.93v.934h-.927v.933h-.93v1.867h.93v1.866h.928V223h-1.855v-.933h-.928v-.934h-1.857v-.933h-1.86v.933h-1.856v.934h-.928V223h-1.857v-1.867h.926v-1.866h.93V217.4h-.93v-.933h-.928v-.934H261v-1.866h3.714v-.934h.93v-1.866h.927V209h1.86v1.867h.928v1.866h.93v.934H274v.933M42 214.6v.933h-.93v.934h-.927v.933h-.93v1.867h.93v1.866h.928V223h-1.855v-.933h-.928v-.934H36.43v-.933h-1.86v.933h-1.856v.934h-.928V223H29.93v-1.867h.927v-1.866h.93V217.4h-.93v-.933h-.928v-.934H29v-1.866h3.714v-.934h.93v-1.866h.927V209h1.86v1.867h.928v1.866h.93v.934H42v.933" fill="#BDAF00"/><path d="M57 211.75V211h4.5v1.5H63v1.5h1.5v7.5h-3v-3H57v3h-3V214h1.5v-1.5H57v-.75zm3 1.5v-.75h-1.5v1.5H57v3h4.5v-3H60v-.75zm7.846 3.75v-3h1.5v6h1.5v-6h3v6h1.5v-6h3v7.5h-9V220h-1.5v-3zm15.346-2.25V214h7.5v1.5h1.5v6h-9V220h-1.5v-1.5h1.5V217h6v-1.5h-6v-.75zm6 4.5v-.75h-4.5v1.5h4.5v-.75zm7.846-1.5V214h3v1.5h1.5V214h4.5v1.5h-4.5v1.5h-1.5v4.5h-3v-3.75zm19.847-5.25V211h3v10.5h-9V220h-1.5v-4.5h1.5V214h6v-1.5zm0 5.25v-2.25h-4.5v4.5h4.5v-2.25zm20.192-2.25V211h3v9h4.5v-9h3v9h-1.5v1.5h-7.5V220h-1.5v-4.5zm13.846 2.25V214h9v1.5h1.5v6h-3v-6h-4.5v6h-3v-3.75zm16.846-6V211h4.5v9h3v1.5h-9V220h3v-7.5h-1.5v-.75zm12.344 3V214h7.5v1.5h1.5v4.5h-1.5v1.5h-7.5V220h-1.5v-4.5h1.5v-.75zm6 3v-2.25h-4.5v4.5h4.5v-2.25zm7.847-3V214h9v1.5h-7.5v4.5h7.5v1.5h-9V220h-1.5v-4.5h1.5v-.75zm12.347 1.5V211h3v4.5h3V214h4.5v1.5h-1.5v1.5h-1.5v1.5h1.5v1.5h1.5v1.5h-4.5V220h-1.5v-1.5h-1.5v3h-3v-5.25zm15.346-1.5V214h7.5v1.5h1.5v3h-7.5v1.5h6v1.5h-7.5V220h-1.5v-4.5h1.5v-.75zm6 1.5v-.75h-4.5v1.5h4.5v-.75zm13.846-3.75V211h3v10.5h-9V220H234v-4.5h1.5V214h6v-1.5zm0 5.25v-2.25H237v4.5h4.5v-2.25z" fill="#000"/><path d="M98.125 230.063V229h12.75v2.125h-4.25v12.75h-4.25v-12.75h-4.25v-1.063zm16.547 6.375V229h12.75v2.125h2.125v6.375h-4.25v2.125h2.124v2.125h2.126v2.125h-6.376v-2.125h-2.126v-2.125h-2.125v4.25h-4.25v-7.438zm10.625-3.188v-2.125h-6.376v6.375h4.25v-2.125h2.126v-2.125zm10.17-3.188V229h10.628v2.125h2.125v10.625h-2.125v2.125H135.47v-2.125h-2.125v-10.625h2.125v-1.063zm8.5 6.375v-5.312h-6.372v10.625h6.376v-5.313zm8.048 0V229h12.75v2.125h2.125v6.375h-2.125v2.125h-8.5v4.25h-4.25v-7.438zm10.625-2.125v-3.187h-6.375v6.375h6.375v-3.188zm8.047 2.125V229h4.25v6.375h6.375V229h4.25v14.875h-4.25V237.5h-6.375v6.375h-4.25v-7.438zm20.796-4.25V229h4.25v6.375h4.25V229h4.25v6.375h-2.124v2.125h-2.126v6.375h-4.25V237.5h-2.124v-2.125h-2.125v-3.188z" fill="#BDAF00"/><path d="M226.97 79v3.333h-1.678v3.334h-3.355V89h-3.354v3.333h-3.354v3.334h-3.356V99h-24.82v2.333h-4.36v6.334h-5.703v2h-3.353V113h-2.013v6.333H160.22v39h21.468V178H121.31v-19.667h21.467v-39h-11.404V113h-2.014v-3.333h-3.355v-2h-5.702v-6.334h-4.36V99h-24.82v-3.333H87.77v-3.334h-3.353V89h-3.355v-3.333H77.71v-3.334h-1.68V79H71V52.667h5.03v-7.334h1.678V42h3.355v-3.333h3.354v-3.334h3.354V32h3.356v-3.333h11.404V6h33.876V0h30.188v6h33.877v22.667h11.406V32h3.354v3.333h3.353v3.334h3.355V42h3.354v3.333h1.677v7.334H232V79h-5.03zM109 81.38h-3.37v-3.31h-3.372V40h-9.775v3.31h-3.37v3.31h-3.37v3.31H82.37v3.31h-1.685v3.312H79v14.896h1.685v3.31h1.686v3.31h3.373v3.31h3.37v3.312h3.37V88H109v-6.62zm115-23.835v-.993h-1.685v-3.31h-1.686v-3.31h-3.373v-3.31h-3.37V43.31h-3.37V40h-9.776v38.07h-3.37v3.31H194V88h16.517v-3.31h3.37v-3.31h3.37v-3.31h3.372v-3.31h1.684v-3.312H224V57.546z" fill="#000"/><path d="M226.987 79v3.333h-1.67v3.334h-3.343V89h-3.342v3.333h-3.342v3.334h-3.342V99h-24.73v2.333h-4.345v6.334h-5.68v2h-3.343V113h-2.005v6.333h-11.363v39h21.388V178h-60.155v-19.667h21.39v-39H131.74V113h-2.004v-3.333h-3.342v-2h-5.682v-6.334h-4.344V98h-3.342v-3.333h-3.342V81.333h-3.342V78H103V6h33.754V0h30.078v6h33.753v22.667h11.363V32h3.342v3.333h3.342v3.334h3.342V42h3.342v3.333h1.67v7.334H232V79h-5.013zM224 57.545v-.993h-1.685v-3.31h-1.686v-3.31h-3.373v-3.31h-3.37V43.31h-3.37V40h-9.776v38.07h-3.37v3.31H194V88h16.517v-3.31h3.37v-3.31h3.37v-3.31h3.372v-3.31h1.684v-3.312H224V57.546z" fill="#ECFB02"/><path d="M196.658 78v3.333h-3.342v13.334h-3.342V98h-3.342v3.333h-4.344v6.334h-5.682v2h-3.342V113h-2.005v6.333h-11.365v39h21.39V178H121.13v-19.667h21.388v-39h-11.363V113h-2.005v-3.333h-3.342v-2h-5.68v-6.334h-4.346V99h-24.73v-3.333H87.71v-3.334h-3.342V89h-3.342v-3.333h-3.342v-3.334h-1.67V79H71V52.667h5.013v-7.334h1.67V42h3.343v-3.333h3.342v-3.334h3.342V32h3.342v-3.333h11.363V6h33.753V0h30.078v6H200v72h-3.342zM109 81.38h-3.37v-3.31h-3.372V40h-9.775v3.31h-3.37v3.31h-3.37v3.31H82.37v3.31h-1.685v3.312H79v14.896h1.685v3.31h1.686v3.31h3.373v3.31h3.37v3.312h3.37V88H109v-6.62z" fill="#ECFB02"/><path fill="#6E4627" d="M121 161h60v22h-60z"/><path fill="#9A7E67" d="M121 161h20v22h-20z"/><path fill="#2E1305" d="M170 161h12v22h-12z"/><path fill="#ECFB02" d="M98 3h107v10H98z"/><path opacity=".3" fill="#ECFB02" d="M98 3h107v3H98z"/><path fill="#BDAF00" d="M103 13h98v2h-98zM135 55v1h-1v1h-1v1h-1v2h1v3h1v2h-2v-1h-2v-1h-2v-1h-2v1h-2v1h-2v1h-2v-2h1v-3h1v-2h-1v-1h-1v-1h-1v-2h5v-1h1v-3h1v-2h2v2h1v3h1v1h5v1M159 55v1h-1v1h-1v1h-1v2h1v3h1v2h-2v-1h-2v-1h-2v-1h-2v1h-2v1h-2v1h-2v-2h1v-3h1v-2h-1v-1h-1v-1h-1v-2h5v-1h1v-3h1v-2h2v2h1v3h1v1h5v1M183 55v1h-1v1h-1v1h-1v2h1v3h1v2h-2v-1h-2v-1h-2v-1h-2v1h-2v1h-2v1h-2v-2h1v-3h1v-2h-1v-1h-1v-1h-1v-2h5v-1h1v-3h1v-2h2v2h1v3h1v1h5v1"/></g></svg>