<?xml version="1.0"?><svg width="5000" height="6000" xmlns="http://www.w3.org/2000/svg" xmlns:xlink="http://www.w3.org/1999/xlink">
 <metadata id="metadata77">image/svg+xml</metadata>
 <defs>
  <linearGradient id="linearGradient8301">
   <stop stop-color="#ffffff" id="stop8303" offset="0"/>
   <stop stop-color="#ffffff" stop-opacity="0" id="stop8305" offset="1"/>
  </linearGradient>
  <linearGradient id="linearGradient8200">
   <stop stop-color="#00c0c0" stop-opacity="0.752941" id="stop8202" offset="0"/>
   <stop stop-color="#80f5f5" stop-opacity="0.301961" id="stop8204" offset="1"/>
  </linearGradient>
  <clipPath id="clipoutline1" clipPathUnits="userSpaceOnUse">
   <path d="m22.42,17.200001l12.960001,12.949999l-2.5,8.780001l-8.780001,2.5l-12.96,-12.960001l-5.86,5.860003l14.89,21.459999l17.559999,-3.34l61.630001,65.619999c9.440002,9.510002 22.169998,-4.75 13.339996,-12.870003l-65.849998,-62.279999l4.010002,-17.759998l-22.140001,-14.27l-6.299999,6.31zm81.060003,91.969997c1.68,-1.68 4.399994,-1.68 6.079994,0c1.68,1.68 1.68,4.400002 0,6.080002c-1.68,1.669998 -4.399994,1.669998 -6.079994,0c-1.68,-1.68 -1.68,-4.400002 0,-6.080002z" id="outline1"/>
  </clipPath>
  <clipPath id="clipoutline2" clipPathUnits="userSpaceOnUse">
   <path d="m55.799999,12l0.760002,0.16c8.84,-2.94 28.679996,8.639999 24.259998,18.960001c-1.120003,1.620001 -0.93,4.499998 0.419998,6.309999l-24.809998,24.82c-1.389999,-1.389999 -4.48,-1.360001 -5.900002,0l-41.029999,39.379997c-3.74,3.590004 -0.8,6.639999 0.78,8.25l7.36,7.360001c1.610001,1.599998 5.860001,3.760002 8.880001,0.560005l38.719997,-40.810005c1.349998,-1.419998 1.360001,-4.470001 0,-5.869995c0,0 0.010002,-0.020004 0,-0.020004l24.910004,-24.899998c2.629997,2.369999 5.113815,2.574848 7.470001,1.93c4.550568,-1.24543 7.08725,3.206638 9.809998,6.459999l-1.230003,1.209999c-1.82,1.84 -1.649994,4.940002 0.389999,6.98c2.040001,2.040001 5.150002,2.209999 6.970001,0.389999l8.139999,-8.129997c1.82,-1.84 1.650002,-4.940002 -0.399994,-6.970001c-1.840004,-1.849998 -4.510002,-2.09 -6.370003,-0.77c-5.580002,-6.259998 -2.650002,-7.200001 -10.010002,-15.349998l-13.790001,-14.09c-9.93,-9.740001 -22.829994,-9.73 -35.329998,-5.860001z" id="outline2"/>
  </clipPath>
  <!-- -->
  <radialGradient gradientUnits="userSpaceOnUse" gradientTransform="matrix(-2.1099429,-1.1093788e-2,4.8894948e-3,-0.9306623,2716.7054,136.98616)" r="55.412729" fy="63.768734" fx="1227.3593" cy="63.768734" cx="1227.3593" id="radialGradient8214" xlink:href="#linearGradient8200"/>
  <linearGradient y2="0.464405" x2="0.514338" y1="0.464405" x1="0.431784" gradientTransform="matrix(1.6236334,0.688347,0.7209588,1.7960211,-80.148323,-87.430189)" id="linearGradient8323" xlink:href="#linearGradient8301"/>
  <linearGradient y2="0.059694" x2="0.318461" y1="0.059694" x1="0.14796" gradientTransform="matrix(0.165397,-0.986227,-0.986227,-0.165397,125.38608,143.75295)" id="linearGradient8325" xlink:href="#linearGradient8301"/>
 </defs>/* Specular Highlighting */
		.low-specularity	{opacity:0.25;}
		.specularity		{opacity:0.5;}
		.high-specularity	{opacity:0.75;}
		.full-specularity	{opacity:1;}

	/* Shading */
		.low-shade	{opacity:0.25;}
		.shade		{opacity:0.5;}
		.high-shade	{opacity:0.75;}
		.full-shade	{opacity:1;}

	/* Tango palette fill/stroke */
		.black		{fill:#000;}
		.aluminium1	{fill:#eeeeec;}
		.aluminium2	{fill:#d3d7cf;}
		.aluminium6	{fill:#2e3436;}
		.chocolate3	{fill:#8f5902;}
		.chocolate2	{fill:#c17d11;}
		.aluminium4	{fill:#888a85;}

	/* Shadows: Back-Shadows &amp; Base Shadows */
		.base-shadow	{opacity:0.4;}
		.outline-big	{stroke:black;stroke-width:8;opacity:0.25;stroke-linejoin:round;}
		.outline-small	{stroke:black;stroke-width:4;opacity:0.5;stroke-linejoin:round;}
		.stroke-highlight	{fill:none;stroke:white;stroke-opacity:0.2;stroke-width:4;stroke-linejoin:round;}
 <g>
  <title>Layer 1</title>
  <g id="layer2"/>
  <g id="layer3"/>
  <g id="svg_1">
   <path opacity="0.25" fill="none" fill-rule="nonzero" stroke="#000000" stroke-width="8" stroke-linecap="round" stroke-linejoin="round" marker-start="none" marker-mid="none" marker-end="none" stroke-miterlimit="4" stroke-dashoffset="0" id="path8208" d="m3419.585449,1297.18042l1296.321777,1546.46167c-350.996094,-27.535889 -502.284668,105.188965 -728.908691,304.007813l-2267.473267,1989.263184c-377.911743,331.542969 -890.948792,110.699707 -1052.988647,-82.60791c-162.040375,-193.307617 -297.164398,-745.695313 80.747375,-1077.23877l2267.473572,-1989.262817c226.625488,-198.818726 377.912354,-331.543579 404.827881,-690.623169z"/>
   <path fill="#ffffff" fill-rule="nonzero" stroke-width="5.871697" stroke-linecap="round" stroke-linejoin="round" marker-start="none" marker-mid="none" marker-end="none" stroke-miterlimit="4" stroke-dashoffset="0" d="m3419.585449,1297.18042l1296.321777,1546.46167c-350.996094,-27.535889 -502.284668,105.188965 -728.908691,304.007813l-2267.473267,1989.263184c-377.911743,331.542969 -890.948792,110.699707 -1052.988647,-82.60791c-162.040375,-193.307617 -297.164398,-745.695313 80.747375,-1077.23877l2267.473572,-1989.262817c226.625488,-198.818726 377.912354,-331.543579 404.827881,-690.623169z" id="path8210"/>
   <g fill="#00ff00" id="g3285">
    <path fill="#00ff00" fill-rule="nonzero" stroke-width="3" stroke-linecap="round" stroke-linejoin="round" marker-start="none" marker-mid="none" marker-end="none" stroke-miterlimit="4" stroke-dashoffset="0" d="m2006.614624,2850.76709l2709.292603,-7.125c-350.996094,-27.535889 -502.283691,105.188721 -728.908691,304.007813l-2267.473267,1989.263184c-377.912354,331.542969 -890.948792,110.699707 -1052.989136,-82.60791c-162.039886,-193.307617 -297.16449,-745.695313 80.747864,-1077.23877c742.183899,-665.962158 446.787659,-428.870117 1259.330627,-1126.299316z" id="path3287"/>
    <path fill="#00ff00" fill-rule="evenodd" stroke-width="2.970638" stroke-linecap="round" stroke-miterlimit="4" d="m3772.770508,3300.751465l-393.739014,-494.295898" id="path3289"/>
    <path fill="#00ff00" fill-rule="evenodd" stroke-width="2.970638" stroke-linecap="round" stroke-miterlimit="4" id="path3291" d="m3192.794922,3791.770508l-393.73877,-494.296875"/>
    <path fill="#00ff00" fill-rule="evenodd" stroke-width="2.970638" stroke-linecap="round" stroke-miterlimit="4" d="m2631.439697,4284.249023l-393.73877,-494.295898" id="path3293"/>
    <path fill="#00ff00" fill-rule="evenodd" stroke-width="2.970638" stroke-linecap="round" stroke-miterlimit="4" id="path3295" d="m2070.084473,4776.728516l-393.738159,-494.297363"/>
   </g>
   <path opacity="0.5" fill="#000000" fill-rule="nonzero" stroke-width="4" stroke-linecap="round" stroke-linejoin="round" stroke-miterlimit="4" stroke-dashoffset="0" id="rect3162" d="m3417.070313,1219.196777c-38.848633,1.125732 -70.611328,32.047485 -73.635254,71.686646c-12.682861,169.193481 -51.963379,275.065063 -114.01709,366.937744c-62.053711,91.872681 -150.35083,171.541504 -263.663574,270.950928l-2268.457642,1988.997192c-208.189819,182.645752 -275.801971,431.074463 -268.414368,652.468994c7.387573,221.394531 83.012482,418.28125 180.526428,534.611328c97.513977,116.330566 275.380371,222.435059 488.134155,263.660645c212.753784,41.225586 462.846069,10.111816 671.035889,-172.53418l2268.457764,-1988.996826c113.312012,-99.409424 202.265137,-177.262451 300.481445,-225.994873c98.216797,-48.732422 207.544922,-72.510742 372.929688,-59.536133c30.795898,2.396729 59.823242,-14.265381 73.635742,-42.525879c13.811523,-28.260742 9.662598,-62.501221 -10.688965,-86.266846l-1295.752441,-1545.513062c-14.932129,-18.327148 -37.259766,-28.628784 -60.571777,-27.945679zm46.31958,250.29541l1092.6604,1302.507813c-106.453125,8.663574 -202.532227,28.90625 -283.854492,69.256348c-121.83252,60.450684 -221.611328,148.456055 -334.924072,247.865234l-138.95752,121.502686l-359.865479,-453.20459c-16.17334,-20.968506 -41.733887,-31.978516 -67.697754,-29.160645c-28.186035,2.681152 -52.218262,20.586182 -62.946533,47.385986c-10.728271,26.799805 -6.375,58.054688 11.876953,80.19165l363.428223,455.634766l-456.067139,400.958496l-369.366455,-464.139893c-15.936279,-20.583496 -40.949707,-31.550781 -66.509766,-29.160645c-28.186279,2.681152 -52.21875,20.585938 -62.946777,47.385986c-10.728271,26.800049 -6.374756,58.054932 11.876709,80.191895l371.742188,466.570068l-445.37793,391.238281l-369.366699,-464.140137c-16.173096,-20.96875 -41.733887,-31.978516 -67.69751,-29.1604c-28.186035,2.680908 -52.218018,20.585205 -62.946533,47.385986c-10.728516,26.800537 -6.375,58.054932 11.876709,80.191406l371.742188,466.570313l-446.565674,392.453613l-368.178955,-464.140137c-14.198242,-18.900391 -36.084839,-30.096191 -59.383789,-30.375977c-29.933105,-0.333496 -57.511719,17.157715 -70.072632,44.956543c-12.561035,27.79834 -7.765137,60.726074 11.876587,83.836426l371.742065,466.569824l-319.484375,279.456055c-169.722534,148.898926 -365.202759,173.149902 -543.954712,138.513184c-178.751953,-34.636719 -336.907471,-135.652832 -401.433838,-212.629883c-64.526489,-76.977539 -137.50177,-252.612793 -143.708679,-438.624512c-6.206787,-186.011719 46.434204,-380.852051 216.156738,-529.751221l2267.269958,-1988.997192c113.3125,-99.409424 212.817627,-186.147217 289.792236,-300.11145c51.364746,-76.047607 84.664307,-170.758301 109.266357,-277.025879z"/>
   <path fill="url(#radialGradient8214)" fill-rule="nonzero" stroke-width="5.871697" stroke-linecap="round" stroke-linejoin="round" marker-start="none" marker-mid="none" marker-end="none" stroke-miterlimit="4" stroke-dashoffset="0" id="path8156" d="m3419.586426,1308.844727l1296.320801,1546.46167c-350.99707,-27.535889 -502.285645,105.188965 -728.908691,304.007568l-2267.473267,1989.263184c-377.912354,331.543457 -890.949951,110.700195 -1052.990295,-82.606934c-162.040436,-193.308105 -297.161591,-745.696289 80.750793,-1077.239258l2267.472778,-1989.263184c226.623779,-198.818848 377.912598,-331.543335 404.827881,-690.623047z"/>
   <path fill="url(#linearGradient8325)" fill-rule="evenodd" stroke-width="1px" id="path8291" d="m4572.445801,2797.2146c-85.132324,-9.796631 -267.503906,-19.678467 -414.244629,115.088867l-2540.27771,2199.575928c-175.804199,138.087402 -333.926147,103.94043 -496.75,42.597656c153.38623,-14.606934 325.792114,-146.29541 501.900146,-299.503418l2614.091919,-2223.698242c110.641602,-97.30542 237.851074,63.111328 335.280273,165.939209z"/>
   <path fill="url(#linearGradient8323)" fill-rule="evenodd" stroke-width="1px" d="m3466.797607,1492.085571c-56.416016,159.295044 -88.158203,260.375366 -213.022949,399.21106l-2500.494324,2192.279297c-154.442261,163.332275 -260.465393,504.780518 -58.929016,846.116455c-43.304321,-245.827637 206.158325,-371.674316 385.897217,-520.763184l2540.964844,-2219.220947c183.132813,-168.046509 98.483154,-426.68457 -154.415771,-697.622681z" id="path8321"/>
  </g>
 </g></svg>