<?xml version="1.0" encoding="utf-8"?>
<!-- Generator: Adobe Illustrator 17.1.0, SVG Export Plug-In . SVG Version: 6.00 Build 0)  -->
<!DOCTYPE svg PUBLIC "-//W3C//DTD SVG 1.1//EN" "http://www.w3.org/Graphics/SVG/1.1/DTD/svg11.dtd">
<svg version="1.1" id="Layer_1" xmlns="http://www.w3.org/2000/svg" xmlns:xlink="http://www.w3.org/1999/xlink" x="0px" y="0px"
	 viewBox="0 0 18 15" enable-background="new 0 0 18 15" xml:space="preserve">
<path fill="#FFFFFF" d="M17.6,2c-0.6,0.3-1.3,0.5-2,0.5c0.7-0.4,1.3-1.1,1.5-1.9C16.5,1,15.8,1.3,15,1.5c-0.6-0.7-1.5-1.1-2.5-1.1
	C10.5,0.4,9,1.9,9,3.8C9,4.1,9,4.4,9,4.6C6.2,4.5,3.6,3.1,1.9,1C1.6,1.5,1.4,2.1,1.4,2.7C1.4,3.9,2,5,2.9,5.6
	c-0.6,0-1.1-0.2-1.6-0.4c0,0,0,0,0,0c0,1.7,1.2,3.1,2.8,3.4C3.9,8.7,3.6,8.8,3.2,8.8c-0.2,0-0.4,0-0.7-0.1c0.4,1.4,1.7,2.4,3.2,2.4
	c-1.2,0.9-2.7,1.5-4.3,1.5c-0.3,0-0.6,0-0.8,0c1.5,1,3.4,1.6,5.3,1.6c6.4,0,9.9-5.3,9.9-9.9c0-0.2,0-0.3,0-0.4
	C16.6,3.3,17.2,2.7,17.6,2z"/>
</svg>
