<?xml version="1.0" encoding="UTF-8" standalone="no"?>
<!DOCTYPE svg PUBLIC "-//W3C//DTD SVG 1.1//EN"
 "http://www.w3.org/Graphics/SVG/1.1/DTD/svg11.dtd">
<!-- Generated by graphviz version 2.38.0 (20140413.2041)
 -->
<!-- Title: %121 Pages: 1 -->
<svg width="1167pt" height="1179pt"
 viewBox="0.00 0.00 1166.91 1179.09" xmlns="http://www.w3.org/2000/svg" xmlns:xlink="http://www.w3.org/1999/xlink">
<g id="graph0" class="graph" transform="scale(1 1) rotate(0) translate(571.014 587.437)">
<title>%121</title>
<polygon fill="white" stroke="none" points="-571.014,591.657 -571.014,-587.437 595.898,-587.437 595.898,591.657 -571.014,591.657"/>
<!-- 01 -->
<g id="node1" class="node"><title>01</title>
<ellipse fill="none" stroke="black" cx="98.6355" cy="188.139" rx="60.9711" ry="18"/>
<text text-anchor="middle" x="98.6355" y="190.939" font-family="Times New Roman,serif" font-size="11.00">Once Upon a Time</text>
</g>
<!-- 02 -->
<g id="node2" class="node"><title>02</title>
<ellipse fill="none" stroke="black" cx="229.075" cy="96.086" rx="39.8775" ry="18"/>
<text text-anchor="middle" x="229.075" y="98.886" font-family="Times New Roman,serif" font-size="11.00">Start Menu</text>
</g>
<!-- 01&#45;&gt;02 -->
<g id="edge1" class="edge"><title>01&#45;&gt;02</title>
<path fill="none" stroke="black" d="M137.06,174.032C148.137,169.153 159.929,163.131 169.957,156.16 184.894,145.776 199.267,131.309 210.099,119.174"/>
<polygon fill="black" stroke="black" points="208.055,117.259 215.426,113.075 212.273,120.942 208.055,117.259"/>
</g>
<!-- 12 -->
<g id="node12" class="node"><title>12</title>
<ellipse fill="none" stroke="black" cx="145.915" cy="275.928" rx="27" ry="18"/>
<text text-anchor="middle" x="145.915" y="278.728" font-family="Times New Roman,serif" font-size="11.00">Home</text>
</g>
<!-- 01&#45;&gt;12 -->
<g id="edge2" class="edge"><title>01&#45;&gt;12</title>
<path fill="none" stroke="black" d="M108.432,206.329C115.526,219.502 125.188,237.443 132.926,251.81"/>
<polygon fill="black" stroke="black" points="135.445,250.582 136.773,258.953 130.514,253.237 135.445,250.582"/>
</g>
<!-- 54 -->
<g id="node54" class="node"><title>54</title>
<ellipse fill="none" stroke="black" cx="225.92" cy="239.852" rx="27" ry="18"/>
<text text-anchor="middle" x="225.92" y="242.652" font-family="Times New Roman,serif" font-size="11.00">Hotel</text>
</g>
<!-- 01&#45;&gt;54 -->
<g id="edge3" class="edge"><title>01&#45;&gt;54</title>
<path fill="none" stroke="black" d="M134.43,202.681C153.603,210.471 176.977,219.967 195.299,227.411"/>
<polygon fill="black" stroke="black" points="196.458,224.86 202.816,230.465 194.35,230.048 196.458,224.86"/>
</g>
<!-- 56 -->
<g id="node56" class="node"><title>56</title>
<ellipse fill="none" stroke="black" cx="140.758" cy="142.09" rx="39.1741" ry="18"/>
<text text-anchor="middle" x="140.758" y="144.89" font-family="Times New Roman,serif" font-size="11.00">Confession</text>
</g>
<!-- 01&#45;&gt;56 -->
<g id="edge4" class="edge"><title>01&#45;&gt;56</title>
<path fill="none" stroke="black" d="M114.56,170.73C116.22,168.915 117.925,167.051 119.631,165.186"/>
<polygon fill="black" stroke="black" points="117.902,162.927 125.368,158.914 122.035,166.707 117.902,162.927"/>
</g>
<!-- 71 -->
<g id="node71" class="node"><title>71</title>
<ellipse fill="none" stroke="black" cx="252.976" cy="159.426" rx="36.1607" ry="18"/>
<text text-anchor="middle" x="252.976" y="162.226" font-family="Times New Roman,serif" font-size="11.00">Undertale</text>
</g>
<!-- 01&#45;&gt;71 -->
<g id="edge5" class="edge"><title>01&#45;&gt;71</title>
<path fill="none" stroke="black" d="M150.458,178.498C170.14,174.837 192.296,170.715 210.962,167.242"/>
<polygon fill="black" stroke="black" points="210.623,164.458 219,165.747 211.647,169.963 210.623,164.458"/>
</g>
<!-- 87 -->
<g id="node87" class="node"><title>87</title>
<ellipse fill="none" stroke="black" cx="48.4714" cy="328.757" rx="61.1733" ry="18"/>
<text text-anchor="middle" x="48.4714" y="331.557" font-family="Times New Roman,serif" font-size="11.00">Hopes and Dreams</text>
</g>
<!-- 01&#45;&gt;87 -->
<g id="edge6" class="edge"><title>01&#45;&gt;87</title>
<path fill="none" stroke="black" d="M92.1801,206.234C83.4133,230.809 67.6914,274.88 57.6857,302.928"/>
<polygon fill="black" stroke="black" points="60.2273,304.137 54.902,310.731 54.9528,302.255 60.2273,304.137"/>
</g>
<!-- 95 -->
<g id="node95" class="node"><title>95</title>
<ellipse fill="none" stroke="black" cx="8.21277" cy="67.6232" rx="56.5515" ry="18"/>
<text text-anchor="middle" x="8.21277" y="70.4232" font-family="Times New Roman,serif" font-size="11.00">Bring It In, Guys!</text>
</g>
<!-- 01&#45;&gt;95 -->
<g id="edge7" class="edge"><title>01&#45;&gt;95</title>
<path fill="none" stroke="black" d="M85.2933,170.356C69.7334,149.618 43.9267,115.223 26.5057,92.004"/>
<polygon fill="black" stroke="black" points="24.1713,93.5582 21.6097,85.4787 28.6506,90.1973 24.1713,93.5582"/>
</g>
<!-- 101 -->
<g id="node101" class="node"><title>101</title>
<ellipse fill="none" stroke="black" cx="34.8683" cy="239.242" rx="40.0804" ry="18"/>
<text text-anchor="middle" x="34.8683" y="242.042" font-family="Times New Roman,serif" font-size="11.00">Good Night</text>
</g>
<!-- 01&#45;&gt;101 -->
<g id="edge8" class="edge"><title>01&#45;&gt;101</title>
<path fill="none" stroke="black" d="M77.4019,205.155C72.0897,209.413 66.3318,214.027 60.8191,218.445"/>
<polygon fill="black" stroke="black" points="62.4956,220.69 54.5019,223.508 58.9936,216.32 62.4956,220.69"/>
</g>
<!-- 93 -->
<g id="node93" class="node"><title>93</title>
<ellipse fill="none" stroke="black" cx="354.339" cy="55.4416" rx="40.7822" ry="18"/>
<text text-anchor="middle" x="354.339" y="58.2416" font-family="Times New Roman,serif" font-size="11.00">Menu (Full)</text>
</g>
<!-- 02&#45;&gt;93 -->
<g id="edge9" class="edge"><title>02&#45;&gt;93</title>
<path fill="none" stroke="black" d="M261.659,85.5133C277.358,80.4195 296.358,74.2548 313.057,68.8364"/>
<polygon fill="black" stroke="black" points="312.572,66.0501 321.046,66.2444 314.3,71.3768 312.572,66.0501"/>
</g>
<!-- 03 -->
<g id="node3" class="node"><title>03</title>
<ellipse fill="none" stroke="black" cx="-52.6348" cy="427.358" rx="55.8489" ry="18"/>
<text text-anchor="middle" x="-52.6348" y="430.158" font-family="Times New Roman,serif" font-size="11.00">Your Best Friend</text>
</g>
<!-- 79 -->
<g id="node79" class="node"><title>79</title>
<ellipse fill="none" stroke="black" cx="-147.941" cy="500.756" rx="67.2" ry="18"/>
<text text-anchor="middle" x="-147.941" y="503.556" font-family="Times New Roman,serif" font-size="11.00">Your Best Nightmare</text>
</g>
<!-- 03&#45;&gt;79 -->
<g id="edge10" class="edge"><title>03&#45;&gt;79</title>
<path fill="none" stroke="black" d="M-74.2612,444.013C-87.5966,454.283 -104.855,467.574 -119.315,478.711"/>
<polygon fill="black" stroke="black" points="-117.692,480.994 -125.739,483.657 -121.109,476.558 -117.692,480.994"/>
</g>
<!-- 80 -->
<g id="node80" class="node"><title>80</title>
<ellipse fill="none" stroke="black" cx="-51.4939" cy="554.95" rx="27" ry="18"/>
<text text-anchor="middle" x="-51.4939" y="557.75" font-family="Times New Roman,serif" font-size="11.00">Finale</text>
</g>
<!-- 03&#45;&gt;80 -->
<g id="edge11" class="edge"><title>03&#45;&gt;80</title>
<path fill="none" stroke="black" d="M-52.4737,445.369C-52.2803,466.998 -51.9542,503.469 -51.7318,528.346"/>
<polygon fill="black" stroke="black" points="-48.9296,528.594 -51.6578,536.619 -54.5293,528.644 -48.9296,528.594"/>
</g>
<!-- 03&#45;&gt;87 -->
<g id="edge12" class="edge"><title>03&#45;&gt;87</title>
<path fill="none" stroke="black" d="M-35.0234,410.183C-18.4525,394.023 6.48272,369.705 24.7899,351.852"/>
<polygon fill="black" stroke="black" points="23.0403,349.647 30.7226,346.066 26.9502,353.656 23.0403,349.647"/>
</g>
<!-- 04 -->
<g id="node4" class="node"><title>04</title>
<ellipse fill="none" stroke="black" cx="-355.02" cy="-416.998" rx="43.7956" ry="18"/>
<text text-anchor="middle" x="-355.02" y="-414.198" font-family="Times New Roman,serif" font-size="11.00">Fallen Down</text>
</g>
<!-- 85 -->
<g id="node85" class="node"><title>85</title>
<ellipse fill="none" stroke="black" cx="-318.98" cy="-463.002" rx="70.2133" ry="18"/>
<text text-anchor="middle" x="-318.98" y="-460.202" font-family="Times New Roman,serif" font-size="11.00">Fallen Down (Reprise)</text>
</g>
<!-- 04&#45;&gt;85 -->
<g id="edge13" class="edge"><title>04&#45;&gt;85</title>
<path fill="none" stroke="black" d="M-341.395,-434.39C-340.261,-435.837 -339.103,-437.316 -337.939,-438.801"/>
<polygon fill="black" stroke="black" points="-340.002,-440.709 -332.864,-445.279 -335.593,-437.255 -340.002,-440.709"/>
</g>
<!-- 05 -->
<g id="node5" class="node"><title>05</title>
<ellipse fill="none" stroke="black" cx="-13.4596" cy="-219.889" rx="27" ry="18"/>
<text text-anchor="middle" x="-13.4596" y="-217.089" font-family="Times New Roman,serif" font-size="11.00">Ruins</text>
</g>
<!-- 31 -->
<g id="node31" class="node"><title>31</title>
<ellipse fill="none" stroke="black" cx="-129.414" cy="-281.227" rx="34.7556" ry="18"/>
<text text-anchor="middle" x="-129.414" y="-278.427" font-family="Times New Roman,serif" font-size="11.00">Waterfall</text>
</g>
<!-- 05&#45;&gt;31 -->
<g id="edge14" class="edge"><title>05&#45;&gt;31</title>
<path fill="none" stroke="black" d="M-34.7274,-231.139C-52.3128,-240.442 -77.5527,-253.793 -97.5517,-264.372"/>
<polygon fill="black" stroke="black" points="-98.8965,-261.916 -104.659,-268.132 -96.278,-266.866 -98.8965,-261.916"/>
</g>
<!-- 45 -->
<g id="node45" class="node"><title>45</title>
<ellipse fill="none" stroke="black" cx="7.11565" cy="-82.7032" rx="43.7956" ry="18"/>
<text text-anchor="middle" x="7.11565" y="-79.9032" font-family="Times New Roman,serif" font-size="11.00">NGAHHH!!</text>
</g>
<!-- 05&#45;&gt;45 -->
<g id="edge15" class="edge"><title>05&#45;&gt;45</title>
<path fill="none" stroke="black" d="M-10.7697,-201.954C-7.21594,-178.259 -0.929093,-136.341 3.1648,-109.045"/>
<polygon fill="black" stroke="black" points="5.94183,-109.407 4.35947,-101.08 0.403773,-108.576 5.94183,-109.407"/>
</g>
<!-- 81 -->
<g id="node81" class="node"><title>81</title>
<ellipse fill="none" stroke="black" cx="51.1741" cy="-338.466" rx="37.7689" ry="18"/>
<text text-anchor="middle" x="51.1741" y="-335.666" font-family="Times New Roman,serif" font-size="11.00">An Ending</text>
</g>
<!-- 05&#45;&gt;81 -->
<g id="edge16" class="edge"><title>05&#45;&gt;81</title>
<path fill="none" stroke="black" d="M-4.19917,-236.878C6.76182,-256.987 25.1065,-290.642 37.6549,-313.664"/>
<polygon fill="black" stroke="black" points="35.2214,-315.05 41.5087,-320.734 40.1384,-312.37 35.2214,-315.05"/>
</g>
<!-- 06 -->
<g id="node6" class="node"><title>06</title>
<ellipse fill="none" stroke="black" cx="393.618" cy="-378.992" rx="66.9979" ry="18"/>
<text text-anchor="middle" x="393.618" y="-376.192" font-family="Times New Roman,serif" font-size="11.00">Uwa!! So Temperate</text>
</g>
<!-- 18 -->
<g id="node18" class="node"><title>18</title>
<ellipse fill="none" stroke="black" cx="373.513" cy="-434.02" rx="58.16" ry="18"/>
<text text-anchor="middle" x="373.513" y="-431.22" font-family="Times New Roman,serif" font-size="11.00">Uwa!! So Holiday</text>
</g>
<!-- 06&#45;&gt;18 -->
<g id="edge17" class="edge"><title>06&#45;&gt;18</title>
<path fill="none" stroke="black" d="M387.035,-397.01C385.729,-400.584 384.335,-404.401 382.956,-408.175"/>
<polygon fill="black" stroke="black" points="380.295,-407.298 380.18,-415.773 385.555,-409.22 380.295,-407.298"/>
</g>
<!-- 52 -->
<g id="node52" class="node"><title>52</title>
<ellipse fill="none" stroke="black" cx="429.869" cy="-332.988" rx="64.1867" ry="18"/>
<text text-anchor="middle" x="429.869" y="-330.188" font-family="Times New Roman,serif" font-size="11.00">Uwa!! So HEATS!!</text>
</g>
<!-- 06&#45;&gt;52 -->
<g id="edge18" class="edge"><title>06&#45;&gt;52</title>
<path fill="none" stroke="black" d="M407.53,-361.337C408.548,-360.045 409.585,-358.729 410.627,-357.406"/>
<polygon fill="black" stroke="black" points="413.062,-358.84 415.815,-350.824 408.664,-355.374 413.062,-358.84"/>
</g>
<!-- 07 -->
<g id="node7" class="node"><title>07</title>
<ellipse fill="none" stroke="black" cx="545" cy="318" rx="41.4846" ry="18"/>
<text text-anchor="middle" x="545" y="320.8" font-family="Times New Roman,serif" font-size="11.00">Anticipation</text>
</g>
<!-- 08 -->
<g id="node8" class="node"><title>08</title>
<ellipse fill="none" stroke="black" cx="-353" cy="-186" rx="67.2" ry="18"/>
<text text-anchor="middle" x="-353" y="-183.2" font-family="Times New Roman,serif" font-size="11.00">Unnecessary Tension</text>
</g>
<!-- 09 -->
<g id="node9" class="node"><title>09</title>
<ellipse fill="none" stroke="black" cx="26.1568" cy="12.2387" rx="64.1867" ry="18"/>
<text text-anchor="middle" x="26.1568" y="15.0387" font-family="Times New Roman,serif" font-size="11.00">Enemy Approaching</text>
</g>
<!-- 09&#45;&gt;95 -->
<g id="edge19" class="edge"><title>09&#45;&gt;95</title>
<path fill="none" stroke="black" d="M20.2812,30.3737C19.0918,34.045 17.8195,37.9719 16.5636,41.8483"/>
<polygon fill="black" stroke="black" points="19.1697,42.8891 14.0402,49.6367 13.8423,41.1631 19.1697,42.8891"/>
</g>
<!-- 10 -->
<g id="node10" class="node"><title>10</title>
<ellipse fill="none" stroke="black" cx="-219.382" cy="-210.992" rx="40.0804" ry="18"/>
<text text-anchor="middle" x="-219.382" y="-208.192" font-family="Times New Roman,serif" font-size="11.00">Ghost Fight</text>
</g>
<!-- 36 -->
<g id="node36" class="node"><title>36</title>
<ellipse fill="none" stroke="black" cx="-239.487" cy="-266.02" rx="33.8507" ry="18"/>
<text text-anchor="middle" x="-239.487" y="-263.22" font-family="Times New Roman,serif" font-size="11.00">Dummy!</text>
</g>
<!-- 10&#45;&gt;36 -->
<g id="edge20" class="edge"><title>10&#45;&gt;36</title>
<path fill="none" stroke="black" d="M-225.965,-229.01C-227.298,-232.658 -228.723,-236.56 -230.131,-240.411"/>
<polygon fill="black" stroke="black" points="-232.842,-239.674 -232.958,-248.149 -227.582,-241.596 -232.842,-239.674"/>
</g>
<!-- 37 -->
<g id="node37" class="node"><title>37</title>
<ellipse fill="none" stroke="black" cx="-183.131" cy="-164.988" rx="50.5248" ry="18"/>
<text text-anchor="middle" x="-183.131" y="-162.188" font-family="Times New Roman,serif" font-size="11.00">Pathetic House</text>
</g>
<!-- 10&#45;&gt;37 -->
<g id="edge21" class="edge"><title>10&#45;&gt;37</title>
<path fill="none" stroke="black" d="M-205.884,-193.862C-204.615,-192.252 -203.315,-190.602 -202.009,-188.945"/>
<polygon fill="black" stroke="black" points="-199.756,-190.61 -197.004,-182.593 -204.155,-187.144 -199.756,-190.61"/>
</g>
<!-- 11 -->
<g id="node11" class="node"><title>11</title>
<ellipse fill="none" stroke="black" cx="-382.733" cy="209.53" rx="47.5114" ry="18"/>
<text text-anchor="middle" x="-382.733" y="212.33" font-family="Times New Roman,serif" font-size="11.00">Determination</text>
</g>
<!-- 77 -->
<g id="node77" class="node"><title>77</title>
<ellipse fill="none" stroke="black" cx="-255.701" cy="215.905" rx="36.8641" ry="18"/>
<text text-anchor="middle" x="-255.701" y="218.705" font-family="Times New Roman,serif" font-size="11.00">ASGORE</text>
</g>
<!-- 11&#45;&gt;77 -->
<g id="edge22" class="edge"><title>11&#45;&gt;77</title>
<path fill="none" stroke="black" d="M-335.431,211.904C-323.965,212.479 -311.743,213.092 -300.401,213.662"/>
<polygon fill="black" stroke="black" points="-300.171,210.869 -292.321,214.067 -300.452,216.462 -300.171,210.869"/>
</g>
<!-- 13 -->
<g id="node13" class="node"><title>13</title>
<ellipse fill="none" stroke="black" cx="235.921" cy="380.688" rx="61.1733" ry="18"/>
<text text-anchor="middle" x="235.921" y="383.488" font-family="Times New Roman,serif" font-size="11.00">Home (Music Box)</text>
</g>
<!-- 12&#45;&gt;13 -->
<g id="edge23" class="edge"><title>12&#45;&gt;13</title>
<path fill="none" stroke="black" d="M159.585,291.839C174.495,309.193 198.515,337.15 215.627,357.067"/>
<polygon fill="black" stroke="black" points="217.83,355.335 220.92,363.228 213.582,358.984 217.83,355.335"/>
</g>
<!-- 14 -->
<g id="node14" class="node"><title>14</title>
<ellipse fill="none" stroke="black" cx="-332.483" cy="309.744" rx="37.7689" ry="18"/>
<text text-anchor="middle" x="-332.483" y="312.544" font-family="Times New Roman,serif" font-size="11.00">Heartache</text>
</g>
<!-- 14&#45;&gt;77 -->
<g id="edge24" class="edge"><title>14&#45;&gt;77</title>
<path fill="none" stroke="black" d="M-318.4,292.533C-306.093,277.492 -288.125,255.532 -274.575,238.972"/>
<polygon fill="black" stroke="black" points="-276.669,237.11 -269.436,232.691 -272.335,240.656 -276.669,237.11"/>
</g>
<!-- 15 -->
<g id="node15" class="node"><title>15</title>
<ellipse fill="none" stroke="black" cx="279" cy="-333" rx="27" ry="18"/>
<text text-anchor="middle" x="279" y="-330.2" font-family="Times New Roman,serif" font-size="11.00">sans.</text>
</g>
<!-- 16 -->
<g id="node16" class="node"><title>16</title>
<ellipse fill="none" stroke="black" cx="-101.214" cy="0.838067" rx="52.8356" ry="18"/>
<text text-anchor="middle" x="-101.214" y="3.63807" font-family="Times New Roman,serif" font-size="11.00">Nyeh Heh Heh!</text>
</g>
<!-- 24 -->
<g id="node24" class="node"><title>24</title>
<ellipse fill="none" stroke="black" cx="-177.677" cy="-76.8246" rx="41.4846" ry="18"/>
<text text-anchor="middle" x="-177.677" y="-74.0246" font-family="Times New Roman,serif" font-size="11.00">Bonetrousle</text>
</g>
<!-- 16&#45;&gt;24 -->
<g id="edge25" class="edge"><title>16&#45;&gt;24</title>
<path fill="none" stroke="black" d="M-118.183,-16.3978C-129.224,-27.6116 -143.733,-42.3485 -155.659,-54.4614"/>
<polygon fill="black" stroke="black" points="-157.662,-52.5048 -161.28,-60.17 -153.672,-56.4337 -157.662,-52.5048"/>
</g>
<!-- 16&#45;&gt;95 -->
<g id="edge26" class="edge"><title>16&#45;&gt;95</title>
<path fill="none" stroke="black" d="M-75.2811,16.6652C-60.3736,25.7636 -41.4811,37.294 -25.4392,47.0847"/>
<polygon fill="black" stroke="black" points="-23.6637,44.888 -18.2938,51.4457 -26.5811,49.668 -23.6637,44.888"/>
</g>
<!-- 17 -->
<g id="node17" class="node"><title>17</title>
<ellipse fill="none" stroke="black" cx="-148.904" cy="53.5898" rx="28.0277" ry="18"/>
<text text-anchor="middle" x="-148.904" y="56.3898" font-family="Times New Roman,serif" font-size="11.00">Snowy</text>
</g>
<!-- 22 -->
<g id="node22" class="node"><title>22</title>
<ellipse fill="none" stroke="black" cx="-254.299" cy="104.421" rx="49.8222" ry="18"/>
<text text-anchor="middle" x="-254.299" y="107.221" font-family="Times New Roman,serif" font-size="11.00">Snowdin Town</text>
</g>
<!-- 17&#45;&gt;22 -->
<g id="edge27" class="edge"><title>17&#45;&gt;22</title>
<path fill="none" stroke="black" d="M-171.514,64.4943C-184.717,70.8619 -201.709,79.057 -216.86,86.364"/>
<polygon fill="black" stroke="black" points="-215.703,88.9146 -224.125,89.8679 -218.135,83.8706 -215.703,88.9146"/>
</g>
<!-- 23 -->
<g id="node23" class="node"><title>23</title>
<ellipse fill="none" stroke="black" cx="-276.259" cy="3.48997" rx="27" ry="18"/>
<text text-anchor="middle" x="-276.259" y="6.28997" font-family="Times New Roman,serif" font-size="11.00">Shop</text>
</g>
<!-- 17&#45;&gt;23 -->
<g id="edge28" class="edge"><title>17&#45;&gt;23</title>
<path fill="none" stroke="black" d="M-173.158,44.0485C-193.688,35.9724 -223.23,24.3508 -245.434,15.6162"/>
<polygon fill="black" stroke="black" points="-246.535,18.192 -252.954,12.6576 -244.485,12.9807 -246.535,18.192"/>
</g>
<!-- 17&#45;&gt;95 -->
<g id="edge29" class="edge"><title>17&#45;&gt;95</title>
<path fill="none" stroke="black" d="M-120.815,56.0987C-102.339,57.7489 -77.4042,59.976 -54.3798,62.0325"/>
<polygon fill="black" stroke="black" points="-54.0483,59.2509 -46.3292,62.7516 -54.5466,64.8287 -54.0483,59.2509"/>
</g>
<!-- 19 -->
<g id="node19" class="node"><title>19</title>
<ellipse fill="none" stroke="black" cx="-471" cy="-417" rx="33.1473" ry="18"/>
<text text-anchor="middle" x="-471" y="-414.2" font-family="Times New Roman,serif" font-size="11.00">Dogbass</text>
</g>
<!-- 20 -->
<g id="node20" class="node"><title>20</title>
<ellipse fill="none" stroke="black" cx="497" cy="-144" rx="55.8489" ry="18"/>
<text text-anchor="middle" x="497" y="-141.2" font-family="Times New Roman,serif" font-size="11.00">Mysterious Place</text>
</g>
<!-- 21 -->
<g id="node21" class="node"><title>21</title>
<ellipse fill="none" stroke="black" cx="428.618" cy="-21.9922" rx="33.8507" ry="18"/>
<text text-anchor="middle" x="428.618" y="-19.1922" font-family="Times New Roman,serif" font-size="11.00">Dogsong</text>
</g>
<!-- 43 -->
<g id="node43" class="node"><title>43</title>
<ellipse fill="none" stroke="black" cx="408.513" cy="-77.0202" rx="51.931" ry="18"/>
<text text-anchor="middle" x="408.513" y="-74.2202" font-family="Times New Roman,serif" font-size="11.00">Temmie Village</text>
</g>
<!-- 21&#45;&gt;43 -->
<g id="edge30" class="edge"><title>21&#45;&gt;43</title>
<path fill="none" stroke="black" d="M422.146,-39.7063C420.81,-43.3627 419.377,-47.2846 417.96,-51.1626"/>
<polygon fill="black" stroke="black" points="415.226,-50.4864 415.111,-58.9615 420.486,-52.4082 415.226,-50.4864"/>
</g>
<!-- 44 -->
<g id="node44" class="node"><title>44</title>
<ellipse fill="none" stroke="black" cx="464.869" cy="24.0124" rx="37.0671" ry="18"/>
<text text-anchor="middle" x="464.869" y="26.8124" font-family="Times New Roman,serif" font-size="11.00">Tem Shop</text>
</g>
<!-- 21&#45;&gt;44 -->
<g id="edge31" class="edge"><title>21&#45;&gt;44</title>
<path fill="none" stroke="black" d="M441.705,-5.38347C443.188,-3.50143 444.72,-1.55737 446.257,0.392619"/>
<polygon fill="black" stroke="black" points="448.683,-1.05289 451.435,6.96371 444.284,2.41316 448.683,-1.05289"/>
</g>
<!-- 25 -->
<g id="node25" class="node"><title>25</title>
<ellipse fill="none" stroke="black" cx="-404.671" cy="-13.3933" rx="44.498" ry="18"/>
<text text-anchor="middle" x="-404.671" y="-10.5933" font-family="Times New Roman,serif" font-size="11.00">Dating Start!</text>
</g>
<!-- 23&#45;&gt;25 -->
<g id="edge32" class="edge"><title>23&#45;&gt;25</title>
<path fill="none" stroke="black" d="M-302.866,-0.0082598C-317.709,-1.95983 -336.692,-4.45566 -354.236,-6.76223"/>
<polygon fill="black" stroke="black" points="-354.608,-3.98701 -362.175,-7.80605 -353.878,-9.53923 -354.608,-3.98701"/>
</g>
<!-- 27 -->
<g id="node27" class="node"><title>27</title>
<ellipse fill="none" stroke="black" cx="-522.515" cy="-24.3936" rx="44.498" ry="18"/>
<text text-anchor="middle" x="-522.515" y="-21.5936" font-family="Times New Roman,serif" font-size="11.00">Dating Fight!</text>
</g>
<!-- 25&#45;&gt;27 -->
<g id="edge33" class="edge"><title>25&#45;&gt;27</title>
<path fill="none" stroke="black" d="M-448.217,-17.4582C-455.632,-18.1503 -463.396,-18.8751 -470.994,-19.5843"/>
<polygon fill="black" stroke="black" points="-471.443,-16.814 -479.148,-20.3455 -470.922,-22.3897 -471.443,-16.814"/>
</g>
<!-- 26 -->
<g id="node26" class="node"><title>26</title>
<ellipse fill="none" stroke="black" cx="-372" cy="66" rx="48.2143" ry="18"/>
<text text-anchor="middle" x="-372" y="68.8" font-family="Times New Roman,serif" font-size="11.00">Dating Tense!</text>
</g>
<!-- 28 -->
<g id="node28" class="node"><title>28</title>
<ellipse fill="none" stroke="black" cx="-295" cy="465" rx="41.4846" ry="18"/>
<text text-anchor="middle" x="-295" y="467.8" font-family="Times New Roman,serif" font-size="11.00">Premonition</text>
</g>
<!-- 29 -->
<g id="node29" class="node"><title>29</title>
<ellipse fill="none" stroke="black" cx="369" cy="-501" rx="53.5381" ry="18"/>
<text text-anchor="middle" x="369" y="-498.2" font-family="Times New Roman,serif" font-size="11.00">Danger Mystery</text>
</g>
<!-- 30 -->
<g id="node30" class="node"><title>30</title>
<ellipse fill="none" stroke="black" cx="-473" cy="381" rx="30.8374" ry="18"/>
<text text-anchor="middle" x="-473" y="383.8" font-family="Times New Roman,serif" font-size="11.00">Undyne</text>
</g>
<!-- 33 -->
<g id="node33" class="node"><title>33</title>
<ellipse fill="none" stroke="black" cx="-229.997" cy="-356.055" rx="42.8909" ry="18"/>
<text text-anchor="middle" x="-229.997" y="-353.255" font-family="Times New Roman,serif" font-size="11.00">Quiet Water</text>
</g>
<!-- 31&#45;&gt;33 -->
<g id="edge34" class="edge"><title>31&#45;&gt;33</title>
<path fill="none" stroke="black" d="M-149.768,-296.37C-164.736,-307.505 -185.267,-322.779 -201.812,-335.087"/>
<polygon fill="black" stroke="black" points="-203.884,-333.138 -208.631,-340.16 -200.541,-337.632 -203.884,-333.138"/>
</g>
<!-- 32 -->
<g id="node32" class="node"><title>32</title>
<ellipse fill="none" stroke="black" cx="-477" cy="-333" rx="27" ry="18"/>
<text text-anchor="middle" x="-477" y="-330.2" font-family="Times New Roman,serif" font-size="11.00">Run!</text>
</g>
<!-- 34 -->
<g id="node34" class="node"><title>34</title>
<ellipse fill="none" stroke="black" cx="402.184" cy="152.258" rx="32.4445" ry="18"/>
<text text-anchor="middle" x="402.184" y="155.058" font-family="Times New Roman,serif" font-size="11.00">Memory</text>
</g>
<!-- 34&#45;&gt;71 -->
<g id="edge35" class="edge"><title>34&#45;&gt;71</title>
<path fill="none" stroke="black" d="M369.808,153.813C348.494,154.837 320.323,156.191 296.984,157.312"/>
<polygon fill="black" stroke="black" points="297.075,160.111 288.95,157.698 296.806,154.517 297.075,160.111"/>
</g>
<!-- 90 -->
<g id="node90" class="node"><title>90</title>
<ellipse fill="none" stroke="black" cx="527.708" cy="158.126" rx="39.1741" ry="18"/>
<text text-anchor="middle" x="527.708" y="160.926" font-family="Times New Roman,serif" font-size="11.00">His Theme</text>
</g>
<!-- 34&#45;&gt;90 -->
<g id="edge36" class="edge"><title>34&#45;&gt;90</title>
<path fill="none" stroke="black" d="M434.836,153.784C448.688,154.432 465.104,155.199 480.253,155.908"/>
<polygon fill="black" stroke="black" points="480.654,153.123 488.514,156.294 480.392,158.717 480.654,153.123"/>
</g>
<!-- 35 -->
<g id="node35" class="node"><title>35</title>
<ellipse fill="none" stroke="black" cx="-291" cy="376" rx="108.375" ry="22.7556"/>
<text text-anchor="middle" x="-291" y="372.8" font-family="Times New Roman,serif" font-size="11.00">Bird That Carries You Over</text>
<text text-anchor="middle" x="-291" y="384.8" font-family="Times New Roman,serif" font-size="11.00">a Disproportionately Small Gap</text>
</g>
<!-- 38 -->
<g id="node38" class="node"><title>38</title>
<ellipse fill="none" stroke="black" cx="120.98" cy="-227.998" rx="37.0671" ry="18"/>
<text text-anchor="middle" x="120.98" y="-225.198" font-family="Times New Roman,serif" font-size="11.00">Spooktune</text>
</g>
<!-- 39 -->
<g id="node39" class="node"><title>39</title>
<ellipse fill="none" stroke="black" cx="157.02" cy="-274.002" rx="40.7822" ry="18"/>
<text text-anchor="middle" x="157.02" y="-271.202" font-family="Times New Roman,serif" font-size="11.00">Spookwave</text>
</g>
<!-- 38&#45;&gt;39 -->
<g id="edge37" class="edge"><title>38&#45;&gt;39</title>
<path fill="none" stroke="black" d="M134.195,-244.867C135.627,-246.694 137.102,-248.577 138.58,-250.464"/>
<polygon fill="black" stroke="black" points="136.427,-252.256 143.565,-256.827 140.835,-248.803 136.427,-252.256"/>
</g>
<!-- 40 -->
<g id="node40" class="node"><title>40</title>
<ellipse fill="none" stroke="black" cx="-447" cy="-501" rx="36.1607" ry="18"/>
<text text-anchor="middle" x="-447" y="-498.2" font-family="Times New Roman,serif" font-size="11.00">Ghouliday</text>
</g>
<!-- 41 -->
<g id="node41" class="node"><title>41</title>
<ellipse fill="none" stroke="black" cx="-477" cy="66" rx="27" ry="18"/>
<text text-anchor="middle" x="-477" y="68.8" font-family="Times New Roman,serif" font-size="11.00">Chill</text>
</g>
<!-- 42 -->
<g id="node42" class="node"><title>42</title>
<ellipse fill="none" stroke="black" cx="548" cy="486" rx="43.7956" ry="18"/>
<text text-anchor="middle" x="548" y="488.8" font-family="Times New Roman,serif" font-size="11.00">Thundersnail</text>
</g>
<!-- 46 -->
<g id="node46" class="node"><title>46</title>
<ellipse fill="none" stroke="black" cx="104.847" cy="-154.693" rx="52.1334" ry="18"/>
<text text-anchor="middle" x="104.847" y="-151.893" font-family="Times New Roman,serif" font-size="11.00">Spear of Justice</text>
</g>
<!-- 45&#45;&gt;46 -->
<g id="edge38" class="edge"><title>45&#45;&gt;46</title>
<path fill="none" stroke="black" d="M28.8055,-98.68C42.6553,-108.882 60.7755,-122.229 75.8534,-133.335"/>
<polygon fill="black" stroke="black" points="74.4388,-135.771 82.5407,-138.261 77.7601,-131.262 74.4388,-135.771"/>
</g>
<!-- 45&#45;&gt;95 -->
<g id="edge39" class="edge"><title>45&#45;&gt;95</title>
<path fill="none" stroke="black" d="M-8.88603,-65.6396C-24.0628,-47.4494 -44.0242,-17.2415 -40.1847,12.3787 -38.5175,25.2412 -30.5342,36.6041 -21.5174,45.6283"/>
<polygon fill="black" stroke="black" points="-19.4585,43.719 -15.4988,51.2131 -23.2676,47.824 -19.4585,43.719"/>
</g>
<!-- 47 -->
<g id="node47" class="node"><title>47</title>
<ellipse fill="none" stroke="black" cx="-477" cy="-249" rx="27" ry="18"/>
<text text-anchor="middle" x="-477" y="-246.2" font-family="Times New Roman,serif" font-size="11.00">Ooo</text>
</g>
<!-- 48 -->
<g id="node48" class="node"><title>48</title>
<ellipse fill="none" stroke="black" cx="553" cy="-333" rx="28.0277" ry="18"/>
<text text-anchor="middle" x="553" y="-330.2" font-family="Times New Roman,serif" font-size="11.00">Alphys</text>
</g>
<!-- 49 -->
<g id="node49" class="node"><title>49</title>
<ellipse fill="none" stroke="black" cx="279.06" cy="-248.623" rx="48.2143" ry="18"/>
<text text-anchor="middle" x="279.06" y="-245.823" font-family="Times New Roman,serif" font-size="11.00">It&#39;s Showtime!</text>
</g>
<!-- 57 -->
<g id="node57" class="node"><title>57</title>
<ellipse fill="none" stroke="black" cx="378.669" cy="-267.474" rx="41.4846" ry="18"/>
<text text-anchor="middle" x="378.669" y="-264.674" font-family="Times New Roman,serif" font-size="11.00">Live Report</text>
</g>
<!-- 49&#45;&gt;57 -->
<g id="edge40" class="edge"><title>49&#45;&gt;57</title>
<path fill="none" stroke="black" d="M322.171,-256.782C325.602,-257.431 329.076,-258.089 332.526,-258.742"/>
<polygon fill="black" stroke="black" points="332.122,-261.515 340.503,-260.251 333.163,-256.012 332.122,-261.515"/>
</g>
<!-- 50 -->
<g id="node50" class="node"><title>50</title>
<ellipse fill="none" stroke="black" cx="245.805" cy="-99.4382" rx="48.2143" ry="18"/>
<text text-anchor="middle" x="245.805" y="-96.6382" font-family="Times New Roman,serif" font-size="11.00">Metal Crusher</text>
</g>
<!-- 66 -->
<g id="node66" class="node"><title>66</title>
<ellipse fill="none" stroke="black" cx="348.494" cy="-166.296" rx="46.1069" ry="18"/>
<text text-anchor="middle" x="348.494" y="-163.496" font-family="Times New Roman,serif" font-size="11.00">Last Episode!</text>
</g>
<!-- 50&#45;&gt;66 -->
<g id="edge41" class="edge"><title>50&#45;&gt;66</title>
<path fill="none" stroke="black" d="M269.881,-115.113C284.172,-124.418 302.434,-136.308 317.759,-146.285"/>
<polygon fill="black" stroke="black" points="316.337,-148.7 324.569,-150.719 319.392,-144.007 316.337,-148.7"/>
</g>
<!-- 68 -->
<g id="node68" class="node"><title>68</title>
<ellipse fill="none" stroke="black" cx="159.531" cy="-19.2441" rx="58.8623" ry="18"/>
<text text-anchor="middle" x="159.531" y="-16.4441" font-family="Times New Roman,serif" font-size="11.00">Death by Glamour</text>
</g>
<!-- 50&#45;&gt;68 -->
<g id="edge42" class="edge"><title>50&#45;&gt;68</title>
<path fill="none" stroke="black" d="M227.508,-82.4311C214.898,-70.7091 197.991,-54.9933 184.193,-42.1678"/>
<polygon fill="black" stroke="black" points="185.864,-39.8989 178.098,-36.5031 182.052,-44.0006 185.864,-39.8989"/>
</g>
<!-- 51 -->
<g id="node51" class="node"><title>51</title>
<ellipse fill="none" stroke="black" cx="-23.4665" cy="113.663" rx="55.1467" ry="18"/>
<text text-anchor="middle" x="-23.4665" y="116.463" font-family="Times New Roman,serif" font-size="11.00">Another Medium</text>
</g>
<!-- 51&#45;&gt;95 -->
<g id="edge43" class="edge"><title>51&#45;&gt;95</title>
<path fill="none" stroke="black" d="M-11.309,95.9944C-10.4933,94.8089 -9.6638,93.6034 -8.8298,92.3913"/>
<polygon fill="black" stroke="black" points="-10.9108,90.4761 -4.06925,85.4728 -6.29744,93.6505 -10.9108,90.4761"/>
</g>
<!-- 53 -->
<g id="node53" class="node"><title>53</title>
<ellipse fill="none" stroke="black" cx="-151" cy="-438" rx="58.8623" ry="18"/>
<text text-anchor="middle" x="-151" y="-435.2" font-family="Times New Roman,serif" font-size="11.00">Stronger Monsters</text>
</g>
<!-- 55 -->
<g id="node55" class="node"><title>55</title>
<ellipse fill="none" stroke="black" cx="335.845" cy="321.531" rx="118.174" ry="31.2258"/>
<text text-anchor="middle" x="335.845" y="312.331" font-family="Times New Roman,serif" font-size="11.00">Can You Really Call This a Hotel,</text>
<text text-anchor="middle" x="335.845" y="324.331" font-family="Times New Roman,serif" font-size="11.00">I Didn&#39;t Receive a Mint On</text>
<text text-anchor="middle" x="335.845" y="336.331" font-family="Times New Roman,serif" font-size="11.00">My Pillow Or Anything</text>
</g>
<!-- 54&#45;&gt;55 -->
<g id="edge44" class="edge"><title>54&#45;&gt;55</title>
<path fill="none" stroke="black" d="M244.072,253.339C256.451,262.537 273.44,275.161 289.438,287.049"/>
<polygon fill="black" stroke="black" points="291.466,285.067 296.218,292.086 288.126,289.562 291.466,285.067"/>
</g>
<!-- 64 -->
<g id="node64" class="node"><title>64</title>
<ellipse fill="none" stroke="black" cx="371.21" cy="248.288" rx="55.8489" ry="18"/>
<text text-anchor="middle" x="371.21" y="251.088" font-family="Times New Roman,serif" font-size="11.00">CORE Approach</text>
</g>
<!-- 54&#45;&gt;64 -->
<g id="edge45" class="edge"><title>54&#45;&gt;64</title>
<path fill="none" stroke="black" d="M252.908,241.419C268.418,242.319 288.597,243.491 307.886,244.611"/>
<polygon fill="black" stroke="black" points="308.257,241.828 316.082,245.087 307.933,247.418 308.257,241.828"/>
</g>
<!-- 58 -->
<g id="node58" class="node"><title>58</title>
<ellipse fill="none" stroke="black" cx="479.271" cy="-254.903" rx="46.1069" ry="18"/>
<text text-anchor="middle" x="479.271" y="-252.103" font-family="Times New Roman,serif" font-size="11.00">Death Report</text>
</g>
<!-- 57&#45;&gt;58 -->
<g id="edge46" class="edge"><title>57&#45;&gt;58</title>
<path fill="none" stroke="black" d="M418.719,-262.47C421.404,-262.134 424.129,-261.793 426.863,-261.452"/>
<polygon fill="black" stroke="black" points="427.466,-264.198 435.057,-260.428 426.772,-258.641 427.466,-264.198"/>
</g>
<!-- 59 -->
<g id="node59" class="node"><title>59</title>
<ellipse fill="none" stroke="black" cx="235" cy="-459" rx="46.1069" ry="18"/>
<text text-anchor="middle" x="235" y="-456.2" font-family="Times New Roman,serif" font-size="11.00">Spider Dance</text>
</g>
<!-- 60 -->
<g id="node60" class="node"><title>60</title>
<ellipse fill="none" stroke="black" cx="-71" cy="-354" rx="55.1467" ry="18"/>
<text text-anchor="middle" x="-71" y="-351.2" font-family="Times New Roman,serif" font-size="11.00">Wrong Enemy !?</text>
</g>
<!-- 61 -->
<g id="node61" class="node"><title>61</title>
<ellipse fill="none" stroke="black" cx="-122.382" cy="272.008" rx="63.2813" ry="18"/>
<text text-anchor="middle" x="-122.382" y="274.808" font-family="Times New Roman,serif" font-size="11.00">Oh! One True Love</text>
</g>
<!-- 62 -->
<g id="node62" class="node"><title>62</title>
<ellipse fill="none" stroke="black" cx="-142.487" cy="216.98" rx="46.1069" ry="18"/>
<text text-anchor="middle" x="-142.487" y="219.78" font-family="Times New Roman,serif" font-size="11.00">Oh! Dungeon</text>
</g>
<!-- 61&#45;&gt;62 -->
<g id="edge47" class="edge"><title>61&#45;&gt;62</title>
<path fill="none" stroke="black" d="M-128.965,253.99C-130.298,250.342 -131.723,246.44 -133.131,242.589"/>
<polygon fill="black" stroke="black" points="-135.842,243.326 -135.958,234.851 -130.582,241.404 -135.842,243.326"/>
</g>
<!-- 69 -->
<g id="node69" class="node"><title>69</title>
<ellipse fill="none" stroke="black" cx="-86.1307" cy="318.012" rx="43.0936" ry="18"/>
<text text-anchor="middle" x="-86.1307" y="320.812" font-family="Times New Roman,serif" font-size="11.00">For the Fans</text>
</g>
<!-- 61&#45;&gt;69 -->
<g id="edge48" class="edge"><title>61&#45;&gt;69</title>
<path fill="none" stroke="black" d="M-108.47,289.663C-107.302,291.145 -106.109,292.659 -104.913,294.177"/>
<polygon fill="black" stroke="black" points="-102.459,292.767 -99.7069,300.784 -106.858,296.233 -102.459,292.767"/>
</g>
<!-- 63 -->
<g id="node63" class="node"><title>63</title>
<ellipse fill="none" stroke="black" cx="526" cy="229" rx="64.1938" ry="22.7556"/>
<text text-anchor="middle" x="526" y="225.8" font-family="Times New Roman,serif" font-size="11.00">It&#39;s Raining</text>
<text text-anchor="middle" x="526" y="237.8" font-family="Times New Roman,serif" font-size="11.00">Somewhere Else</text>
</g>
<!-- 65 -->
<g id="node65" class="node"><title>65</title>
<ellipse fill="none" stroke="black" cx="-476" cy="-102" rx="28.0277" ry="18"/>
<text text-anchor="middle" x="-476" y="-99.2" font-family="Times New Roman,serif" font-size="11.00">CORE</text>
</g>
<!-- 67 -->
<g id="node67" class="node"><title>67</title>
<ellipse fill="none" stroke="black" cx="538" cy="402" rx="34.054" ry="18"/>
<text text-anchor="middle" x="538" y="404.8" font-family="Times New Roman,serif" font-size="11.00">Oh My...</text>
</g>
<!-- 68&#45;&gt;95 -->
<g id="edge49" class="edge"><title>68&#45;&gt;95</title>
<path fill="none" stroke="black" d="M131.777,-3.31128C106.714,11.0766 69.7365,32.3042 42.7659,47.7872"/>
<polygon fill="black" stroke="black" points="44.123,50.2367 35.7909,51.7914 41.3349,45.3801 44.123,50.2367"/>
</g>
<!-- 70 -->
<g id="node70" class="node"><title>70</title>
<ellipse fill="none" stroke="black" cx="237" cy="-165" rx="47.5114" ry="18"/>
<text text-anchor="middle" x="237" y="-162.2" font-family="Times New Roman,serif" font-size="11.00">Long Elevator</text>
</g>
<!-- 72 -->
<g id="node72" class="node"><title>72</title>
<ellipse fill="none" stroke="black" cx="-319" cy="-86" rx="79.8063" ry="22.7556"/>
<text text-anchor="middle" x="-319" y="-89.2" font-family="Times New Roman,serif" font-size="11.00">Song That Might Play</text>
<text text-anchor="middle" x="-319" y="-77.2" font-family="Times New Roman,serif" font-size="11.00">When You Fight Sans</text>
</g>
<!-- 73 -->
<g id="node73" class="node"><title>73</title>
<ellipse fill="none" stroke="black" cx="104" cy="-522" rx="40.7822" ry="18"/>
<text text-anchor="middle" x="104" y="-519.2" font-family="Times New Roman,serif" font-size="11.00">The Choice</text>
</g>
<!-- 74 -->
<g id="node74" class="node"><title>74</title>
<ellipse fill="none" stroke="black" cx="-167" cy="-522" rx="42.8909" ry="18"/>
<text text-anchor="middle" x="-167" y="-519.2" font-family="Times New Roman,serif" font-size="11.00">Small Shock</text>
</g>
<!-- 75 -->
<g id="node75" class="node"><title>75</title>
<ellipse fill="none" stroke="black" cx="365" cy="507" rx="28.7291" ry="18"/>
<text text-anchor="middle" x="365" y="509.8" font-family="Times New Roman,serif" font-size="11.00">Barrier</text>
</g>
<!-- 76 -->
<g id="node76" class="node"><title>76</title>
<ellipse fill="none" stroke="black" cx="-141.21" cy="157.446" rx="52.1334" ry="18"/>
<text text-anchor="middle" x="-141.21" y="160.246" font-family="Times New Roman,serif" font-size="11.00">Bergentrückung</text>
</g>
<!-- 76&#45;&gt;77 -->
<g id="edge50" class="edge"><title>76&#45;&gt;77</title>
<path fill="none" stroke="black" d="M-170.695,172.501C-186.667,180.656 -206.445,190.755 -222.902,199.158"/>
<polygon fill="black" stroke="black" points="-221.807,201.742 -230.205,202.887 -224.353,196.755 -221.807,201.742"/>
</g>
<!-- 76&#45;&gt;95 -->
<g id="edge51" class="edge"><title>76&#45;&gt;95</title>
<path fill="none" stroke="black" d="M-121.539,140.658C-106.507,128.336 -84.9321,111.713 -64.3299,99.6368 -55.2445,94.3114 -45.1112,89.3101 -35.3674,84.9146"/>
<polygon fill="black" stroke="black" points="-36.4661,82.3389 -28.0161,81.6761 -34.2084,87.4637 -36.4661,82.3389"/>
</g>
<!-- 78 -->
<g id="node78" class="node"><title>78</title>
<ellipse fill="none" stroke="black" cx="539" cy="-60" rx="34.7556" ry="18"/>
<text text-anchor="middle" x="539" y="-57.2" font-family="Times New Roman,serif" font-size="11.00">You Idiot</text>
</g>
<!-- 86 -->
<g id="node86" class="node"><title>86</title>
<ellipse fill="none" stroke="black" cx="106.781" cy="-437.314" rx="48.2143" ry="18"/>
<text text-anchor="middle" x="106.781" y="-434.514" font-family="Times New Roman,serif" font-size="11.00">Don&#39;t Give Up</text>
</g>
<!-- 81&#45;&gt;86 -->
<g id="edge52" class="edge"><title>81&#45;&gt;86</title>
<path fill="none" stroke="black" d="M61.1155,-356.138C69.9171,-371.784 82.8603,-394.793 92.7215,-412.322"/>
<polygon fill="black" stroke="black" points="90.3753,-413.862 96.738,-419.462 95.256,-411.117 90.3753,-413.862"/>
</g>
<!-- 94 -->
<g id="node94" class="node"><title>94</title>
<ellipse fill="none" stroke="black" cx="175.617" cy="-389.173" rx="30.1339" ry="18"/>
<text text-anchor="middle" x="175.617" y="-386.373" font-family="Times New Roman,serif" font-size="11.00">Respite</text>
</g>
<!-- 81&#45;&gt;94 -->
<g id="edge53" class="edge"><title>81&#45;&gt;94</title>
<path fill="none" stroke="black" d="M80.0367,-350.227C98.9257,-357.924 123.638,-367.993 143.203,-375.965"/>
<polygon fill="black" stroke="black" points="142.231,-378.593 150.696,-379.019 144.344,-373.407 142.231,-378.593"/>
</g>
<!-- 98 -->
<g id="node98" class="node"><title>98</title>
<ellipse fill="none" stroke="black" cx="-14.0543" cy="-449.042" rx="56.6372" ry="22.7556"/>
<text text-anchor="middle" x="-14.0543" y="-452.242" font-family="Times New Roman,serif" font-size="11.00">Battle Against</text>
<text text-anchor="middle" x="-14.0543" y="-440.242" font-family="Times New Roman,serif" font-size="11.00">a True Hero</text>
</g>
<!-- 81&#45;&gt;98 -->
<g id="edge54" class="edge"><title>81&#45;&gt;98</title>
<path fill="none" stroke="black" d="M40.694,-356.232C30.6228,-373.305 15.22,-399.416 3.3144,-419.599"/>
<polygon fill="black" stroke="black" points="0.755761,-418.425 -0.897271,-426.739 5.5791,-421.271 0.755761,-418.425"/>
</g>
<!-- 82 -->
<g id="node82" class="node"><title>82</title>
<ellipse fill="none" stroke="black" cx="398" cy="423" rx="61.8756" ry="18"/>
<text text-anchor="middle" x="398" y="425.8" font-family="Times New Roman,serif" font-size="11.00">She&#39;s Playing Piano</text>
</g>
<!-- 83 -->
<g id="node83" class="node"><title>83</title>
<ellipse fill="none" stroke="black" cx="257" cy="465" rx="46.8089" ry="18"/>
<text text-anchor="middle" x="257" y="467.8" font-family="Times New Roman,serif" font-size="11.00">Here We Are</text>
</g>
<!-- 84 -->
<g id="node84" class="node"><title>84</title>
<ellipse fill="none" stroke="black" cx="287" cy="-18" rx="35.4579" ry="18"/>
<text text-anchor="middle" x="287" y="-15.2" font-family="Times New Roman,serif" font-size="11.00">Amalgam</text>
</g>
<!-- 89 -->
<g id="node89" class="node"><title>89</title>
<ellipse fill="none" stroke="black" cx="70.2261" cy="457.385" rx="55.1467" ry="18"/>
<text text-anchor="middle" x="70.2261" y="460.185" font-family="Times New Roman,serif" font-size="11.00">SAVE the World</text>
</g>
<!-- 87&#45;&gt;89 -->
<g id="edge55" class="edge"><title>87&#45;&gt;89</title>
<path fill="none" stroke="black" d="M51.5422,346.913C55.2672,368.938 61.574,406.228 65.8176,431.319"/>
<polygon fill="black" stroke="black" points="68.5976,430.966 67.1709,439.321 63.076,431.9 68.5976,430.966"/>
</g>
<!-- 92 -->
<g id="node92" class="node"><title>92</title>
<ellipse fill="none" stroke="black" cx="130.741" cy="411.351" rx="33.8507" ry="18"/>
<text text-anchor="middle" x="130.741" y="414.151" font-family="Times New Roman,serif" font-size="11.00">Reunited</text>
</g>
<!-- 87&#45;&gt;92 -->
<g id="edge56" class="edge"><title>87&#45;&gt;92</title>
<path fill="none" stroke="black" d="M65.9186,346.273C78.4349,358.839 95.3895,375.86 108.82,389.343"/>
<polygon fill="black" stroke="black" points="111.052,387.617 114.714,395.261 107.084,391.569 111.052,387.617"/>
</g>
<!-- 88 -->
<g id="node88" class="node"><title>88</title>
<ellipse fill="none" stroke="black" cx="-429" cy="465" rx="54.2411" ry="18"/>
<text text-anchor="middle" x="-429" y="467.8" font-family="Times New Roman,serif" font-size="11.00">Burn in Despair!</text>
</g>
<!-- 96 -->
<g id="node96" class="node"><title>96</title>
<ellipse fill="none" stroke="black" cx="130.293" cy="569.657" rx="46.8089" ry="18"/>
<text text-anchor="middle" x="130.293" y="572.457" font-family="Times New Roman,serif" font-size="11.00">Last Goodbye</text>
</g>
<!-- 89&#45;&gt;96 -->
<g id="edge57" class="edge"><title>89&#45;&gt;96</title>
<path fill="none" stroke="black" d="M79.7438,475.175C89.8049,493.98 105.75,523.783 117.038,544.882"/>
<polygon fill="black" stroke="black" points="119.514,543.575 120.819,551.95 114.577,546.217 119.514,543.575"/>
</g>
<!-- 91 -->
<g id="node91" class="node"><title>91</title>
<ellipse fill="none" stroke="black" cx="-441" cy="297" rx="42.1875" ry="18"/>
<text text-anchor="middle" x="-441" y="299.8" font-family="Times New Roman,serif" font-size="11.00">Final Power</text>
</g>
<!-- 97 -->
<g id="node97" class="node"><title>97</title>
<ellipse fill="none" stroke="black" cx="-361" cy="-338" rx="58.8803" ry="22.7556"/>
<text text-anchor="middle" x="-361" y="-341.2" font-family="Times New Roman,serif" font-size="11.00">But the Earth</text>
<text text-anchor="middle" x="-361" y="-329.2" font-family="Times New Roman,serif" font-size="11.00">Refused to Die</text>
</g>
<!-- 99 -->
<g id="node99" class="node"><title>99</title>
<ellipse fill="none" stroke="black" cx="-29.6829" cy="-565.437" rx="55.1467" ry="18"/>
<text text-anchor="middle" x="-29.6829" y="-562.637" font-family="Times New Roman,serif" font-size="11.00">Power of &quot;NEO&quot;</text>
</g>
<!-- 98&#45;&gt;99 -->
<g id="edge58" class="edge"><title>98&#45;&gt;99</title>
<path fill="none" stroke="black" d="M-17.1047,-471.761C-19.7009,-491.095 -23.4314,-518.878 -26.1554,-539.166"/>
<polygon fill="black" stroke="black" points="-28.9654,-539.053 -27.255,-547.355 -23.4152,-539.799 -28.9654,-539.053"/>
</g>
<!-- 100 -->
<g id="node100" class="node"><title>100</title>
<ellipse fill="none" stroke="black" cx="523" cy="-459" rx="60.9711" ry="18"/>
<text text-anchor="middle" x="523" y="-456.2" font-family="Times New Roman,serif" font-size="11.00">MEGALOVANIA</text>
</g>
</g>
</svg>
