<?xml version="1.0" encoding="utf-8"?>
<!-- Generator: Adobe Illustrator 17.1.0, SVG Export Plug-In . SVG Version: 6.00 Build 0)  -->
<!DOCTYPE svg PUBLIC "-//W3C//DTD SVG 1.1//EN" "http://www.w3.org/Graphics/SVG/1.1/DTD/svg11.dtd">
<svg version="1.1" id="Layer_1" xmlns="http://www.w3.org/2000/svg" xmlns:xlink="http://www.w3.org/1999/xlink" x="0px" y="0px"
	 viewBox="-1.2 2.5 170.5 58.8" enable-background="new -1.2 2.5 170.5 58.8" xml:space="preserve">
<g>
	<g>
		<path d="M162.9,61.1H5.1c-3.5,0-6.3-3.3-6.3-7.3V10c0-4,2.8-7.3,6.3-7.3h157.8c3.5,0,6.3,3.3,6.3,7.3v43.9
			C169.2,57.8,166.4,61.1,162.9,61.1z"/>
	</g>
	<g>
		<path fill="#A6A6A6" d="M162.9,3.8c2.9,0,5.3,2.8,5.3,6.1v43.9c0,3.4-2.4,6.1-5.3,6.1H5.1c-2.9,0-5.3-2.8-5.3-6.1V10
			c0-3.4,2.4-6.1,5.3-6.1H162.9 M162.9,2.7H5.1c-3.5,0-6.3,3.3-6.3,7.3v43.9c0,4,2.8,7.3,6.3,7.3h157.8c3.5,0,6.3-3.3,6.3-7.3V10
			C169.2,5.9,166.4,2.7,162.9,2.7L162.9,2.7z"/>
	</g>
	<path fill="#FFFFFF" stroke="#FFFFFF" stroke-width="0.2898" stroke-miterlimit="10" d="M48.1,18.2c0,1.2-0.4,2.2-1.1,2.9
		c-0.8,0.9-1.9,1.3-3.2,1.3c-1.3,0-2.3-0.4-3.2-1.3c-0.9-0.9-1.3-1.9-1.3-3.2c0-1.3,0.4-2.4,1.3-3.2c0.9-0.9,1.9-1.3,3.2-1.3
		c0.6,0,1.2,0.1,1.8,0.4c0.6,0.2,1,0.6,1.4,1l-0.8,0.8c-0.6-0.7-1.4-1-2.4-1c-0.9,0-1.7,0.3-2.4,1c-0.7,0.6-1,1.5-1,2.5
		c0,1,0.3,1.9,1,2.5c0.7,0.6,1.5,1,2.4,1c1,0,1.8-0.3,2.4-1c0.4-0.4,0.7-1,0.7-1.8h-3.2v-1h4.2C48.1,17.8,48.1,18,48.1,18.2z"/>
	<path fill="#FFFFFF" stroke="#FFFFFF" stroke-width="0.2898" stroke-miterlimit="10" d="M54.8,14.6h-4v2.8h3.6v1h-3.6v2.8h4v1.1
		h-5.1v-8.7h5.1V14.6z"/>
	<path fill="#FFFFFF" stroke="#FFFFFF" stroke-width="0.2898" stroke-miterlimit="10" d="M59.5,22.2h-1.1v-7.6H56v-1.1h6v1.1h-2.4
		V22.2z"/>
	<path fill="#FFFFFF" stroke="#FFFFFF" stroke-width="0.2898" stroke-miterlimit="10" d="M66.3,22.2v-8.7h1.1v8.7H66.3z"/>
	<path fill="#FFFFFF" stroke="#FFFFFF" stroke-width="0.2898" stroke-miterlimit="10" d="M72.4,22.2h-1.1v-7.6h-2.4v-1.1h6v1.1h-2.4
		V22.2z"/>
	<path fill="#FFFFFF" stroke="#FFFFFF" stroke-width="0.2898" stroke-miterlimit="10" d="M86.1,21.1c-0.9,0.9-1.9,1.3-3.2,1.3
		c-1.3,0-2.3-0.4-3.2-1.3c-0.9-0.9-1.3-2-1.3-3.2c0-1.3,0.4-2.3,1.3-3.2c0.9-0.9,1.9-1.3,3.2-1.3c1.3,0,2.3,0.4,3.2,1.3
		c0.9,0.9,1.3,2,1.3,3.2C87.4,19.2,86.9,20.2,86.1,21.1z M80.5,20.4c0.6,0.7,1.4,1,2.4,1c0.9,0,1.7-0.3,2.4-1c0.6-0.7,1-1.5,1-2.5
		c0-1-0.3-1.8-1-2.5c-0.6-0.7-1.4-1-2.4-1c-0.9,0-1.7,0.3-2.4,1c-0.6,0.7-1,1.5-1,2.5C79.6,18.9,79.9,19.7,80.5,20.4z"/>
	<path fill="#FFFFFF" stroke="#FFFFFF" stroke-width="0.2898" stroke-miterlimit="10" d="M88.9,22.2v-8.7h1.4l4.2,6.8h0l0-1.7v-5.1
		h1.1v8.7h-1.2l-4.4-7.1h0l0,1.7v5.4H88.9z"/>
	<path fill="#FFFFFF" d="M78.2,34.9c-3.4,0-6.2,2.6-6.2,6.2c0,3.5,2.8,6.2,6.2,6.2c3.4,0,6.2-2.6,6.2-6.2
		C84.4,37.5,81.6,34.9,78.2,34.9z M78.2,44.8c-1.9,0-3.5-1.5-3.5-3.7c0-2.2,1.6-3.7,3.5-3.7c1.9,0,3.5,1.5,3.5,3.7
		C81.6,43.3,80,44.8,78.2,44.8z M64.7,34.9c-3.4,0-6.2,2.6-6.2,6.2c0,3.5,2.8,6.2,6.2,6.2c3.4,0,6.2-2.6,6.2-6.2
		C70.9,37.5,68.1,34.9,64.7,34.9z M64.7,44.8c-1.9,0-3.5-1.5-3.5-3.7c0-2.2,1.6-3.7,3.5-3.7c1.9,0,3.5,1.5,3.5,3.7
		C68.1,43.3,66.5,44.8,64.7,44.8z M48.6,36.8v2.6h6.3c-0.2,1.5-0.7,2.5-1.4,3.3c-0.9,0.9-2.3,1.9-4.8,1.9c-3.9,0-6.9-3.1-6.9-7
		s3-7,6.9-7c2.1,0,3.6,0.8,4.7,1.9l1.8-1.8c-1.6-1.5-3.6-2.6-6.6-2.6c-5.3,0-9.7,4.3-9.7,9.6c0,5.3,4.4,9.6,9.7,9.6
		c2.8,0,5-0.9,6.7-2.7c1.7-1.7,2.3-4.2,2.3-6.1c0-0.6,0-1.2-0.1-1.6H48.6z M114.3,38.8c-0.5-1.4-2.1-3.9-5.3-3.9
		c-3.2,0-5.8,2.5-5.8,6.2c0,3.5,2.6,6.2,6.1,6.2c2.8,0,4.5-1.7,5.1-2.7l-2.1-1.4c-0.7,1-1.7,1.7-3,1.7c-1.4,0-2.4-0.6-3-1.9l8.2-3.4
		L114.3,38.8z M105.9,40.9c-0.1-2.4,1.8-3.6,3.2-3.6c1.1,0,2,0.5,2.3,1.3L105.9,40.9z M99.2,46.9h2.7V28.7h-2.7V46.9z M94.7,36.3
		L94.7,36.3c-0.7-0.7-1.9-1.4-3.3-1.4c-3.1,0-5.9,2.7-5.9,6.2c0,3.5,2.8,6.1,5.9,6.1c1.5,0,2.6-0.7,3.2-1.4h0.1v0.9
		c0,2.4-1.3,3.6-3.3,3.6c-1.7,0-2.7-1.2-3.1-2.2l-2.4,1c0.7,1.6,2.5,3.6,5.5,3.6c3.2,0,5.9-1.9,5.9-6.4V35.3h-2.6V36.3z M91.6,44.8
		c-1.9,0-3.4-1.6-3.4-3.7c0-2.2,1.6-3.8,3.4-3.8c1.8,0,3.3,1.6,3.3,3.8C94.9,43.2,93.5,44.8,91.6,44.8z M127,28.7h-6.5v18.1h2.7V40
		h3.8c3,0,5.9-2.2,5.9-5.6S130,28.7,127,28.7z M127,37.5h-3.8v-6.2h3.8c2,0,3.2,1.7,3.2,3.1C130.2,35.8,129.1,37.5,127,37.5z
		 M143.7,34.9c-2,0-4,0.9-4.8,2.8l2.4,1c0.5-1,1.5-1.3,2.5-1.3c1.4,0,2.8,0.8,2.8,2.3v0.2c-0.5-0.3-1.5-0.7-2.8-0.7
		c-2.6,0-5.2,1.4-5.2,4.1c0,2.4,2.1,4,4.5,4c1.8,0,2.8-0.8,3.4-1.8h0.1v1.4h2.6v-6.9C149.2,36.7,146.8,34.9,143.7,34.9z M143.4,44.8
		c-0.9,0-2.1-0.4-2.1-1.5c0-1.4,1.5-1.9,2.9-1.9c1.2,0,1.7,0.3,2.5,0.6C146.4,43.6,145,44.8,143.4,44.8z M158.8,35.3l-3.1,7.9h-0.1
		l-3.2-7.9h-2.9l4.8,11l-2.8,6.1h2.8l7.4-17.1H158.8z M134.4,46.9h2.7V28.7h-2.7V46.9z"/>
	
		<linearGradient id="SVGID_1_" gradientUnits="userSpaceOnUse" x1="19.6852" y1="32.3722" x2="1.632" y2="14.3191" gradientTransform="matrix(1 0 0 -1 0 60.44)">
		<stop  offset="0" style="stop-color:#00A0FF"/>
		<stop  offset="6.574450e-03" style="stop-color:#00A1FF"/>
		<stop  offset="0.2601" style="stop-color:#00BEFF"/>
		<stop  offset="0.5122" style="stop-color:#00D2FF"/>
		<stop  offset="0.7604" style="stop-color:#00DFFF"/>
		<stop  offset="1" style="stop-color:#00E3FF"/>
	</linearGradient>
	<path fill="url(#SVGID_1_)" d="M7.5,26.8C7.1,27.1,7,27.7,7,28.3v23.8c0,0.7,0.2,1.2,0.5,1.5l0.1,0.1l13.3-13.3v-0.2v-0.2L7.5,26.8
		L7.5,26.8z"/>
	
		<linearGradient id="SVGID_2_" gradientUnits="userSpaceOnUse" x1="32.631" y1="20.2255" x2="6.602" y2="20.2255" gradientTransform="matrix(1 0 0 -1 0 60.44)">
		<stop  offset="0" style="stop-color:#FFE000"/>
		<stop  offset="0.4087" style="stop-color:#FFBD00"/>
		<stop  offset="0.7754" style="stop-color:#FFA500"/>
		<stop  offset="1" style="stop-color:#FF9C00"/>
	</linearGradient>
	<path fill="url(#SVGID_2_)" d="M25.3,44.8l-4.4-4.4v-0.2v-0.2l4.4-4.4l0.1,0.1l5.3,3c1.5,0.9,1.5,2.3,0,3.1l-5.3,3L25.3,44.8z"/>
	
		<linearGradient id="SVGID_3_" gradientUnits="userSpaceOnUse" x1="22.9416" y1="17.7571" x2="-1.5399" y2="-6.7244" gradientTransform="matrix(1 0 0 -1 0 60.44)">
		<stop  offset="0" style="stop-color:#FF3A44"/>
		<stop  offset="1" style="stop-color:#C31162"/>
	</linearGradient>
	<path fill="url(#SVGID_3_)" d="M25.4,44.8l-4.5-4.5L7.5,53.6c0.5,0.5,1.3,0.6,2.2,0.1L25.4,44.8"/>
	
		<linearGradient id="SVGID_4_" gradientUnits="userSpaceOnUse" x1="4.0846" y1="41.5519" x2="15.0167" y2="30.6199" gradientTransform="matrix(1 0 0 -1 0 60.44)">
		<stop  offset="0" style="stop-color:#32A071"/>
		<stop  offset="6.850000e-02" style="stop-color:#2DA771"/>
		<stop  offset="0.4762" style="stop-color:#15CF74"/>
		<stop  offset="0.8009" style="stop-color:#06E775"/>
		<stop  offset="1" style="stop-color:#00F076"/>
	</linearGradient>
	<path fill="url(#SVGID_4_)" d="M25.4,35.7L9.7,26.7c-0.9-0.5-1.7-0.5-2.2,0.1l13.4,13.4L25.4,35.7z"/>
</g>
</svg>
