<?xml version="1.0" encoding="utf-8"?>
<!-- Generator: Adobe Illustrator 16.0.0, SVG Export Plug-In . SVG Version: 6.00 Build 0)  -->
<!DOCTYPE svg PUBLIC "-//W3C//DTD SVG 1.1//EN" "http://www.w3.org/Graphics/SVG/1.1/DTD/svg11.dtd">
<svg version="1.1" id="Layer_1" xmlns="http://www.w3.org/2000/svg" xmlns:xlink="http://www.w3.org/1999/xlink" x="0px" y="0px"
	 width="1363px" height="343px" viewBox="0 0 1363 343" enable-background="new 0 0 1363 343" xml:space="preserve">
<g>
	<g>
		<path fill="#3A3B3B" d="M80.503,58.364c0-3.125,0.393-5.202,1.179-6.233c0.786-1.029,1.904-1.545,3.354-1.545
			c1.45,0,2.488,0.356,3.113,1.069c0.449,0.518,0.742,1.03,0.879,1.538c0.322,1.191,0.483,2.974,0.483,5.347v2.227H87.3v-2.49
			c0-2.168-0.117-3.618-0.352-4.351c-0.235-0.733-0.566-1.196-0.996-1.392c-0.234-0.107-0.503-0.161-0.806-0.161
			c-0.928,0-1.57,0.474-1.926,1.421c-0.356,0.947-0.535,2.437-0.535,4.468v10.342c0,2.49,0.156,4.211,0.469,5.164
			c0.312,0.951,0.938,1.428,1.875,1.428s1.55-0.474,1.838-1.421c0.288-0.947,0.432-2.666,0.432-5.156v-2.065h2.197v2.051
			c0,2.256-0.127,3.88-0.381,4.871c-0.254,0.991-0.542,1.701-0.864,2.131c-0.684,0.918-1.743,1.377-3.179,1.377
			c-1.436,0-2.515-0.454-3.237-1.362c-0.889-1.113-1.333-3.442-1.333-6.987L80.503,58.364L80.503,58.364z"/>
		<path fill="#3A3B3B" d="M98.564,56.46c-1.875,0-2.817,0.928-2.827,2.783v17.446h-2.183V50.571h2.183v6.299
			c0.195-0.654,0.632-1.224,1.311-1.706c0.679-0.484,1.472-0.726,2.38-0.726c0.908,0,1.653,0.376,2.234,1.128
			s0.872,1.88,0.872,3.384v17.739h-2.197V59.097c0-0.996-0.173-1.685-0.52-2.065C99.47,56.652,99.053,56.46,98.564,56.46z"/>
		<path fill="#3A3B3B" d="M107.104,61.294c0-1.592,0.044-2.619,0.132-3.083c0.088-0.464,0.183-0.869,0.286-1.217
			c0.103-0.346,0.225-0.632,0.366-0.856c0.141-0.224,0.317-0.454,0.527-0.688c0.21-0.234,0.452-0.418,0.725-0.549
			c0.273-0.133,0.593-0.239,0.959-0.322c0.366-0.083,0.774-0.125,1.223-0.125c0.449,0,0.854,0.039,1.216,0.117
			c0.362,0.078,0.679,0.166,0.952,0.264c0.273,0.098,0.51,0.271,0.71,0.52c0.2,0.25,0.369,0.467,0.505,0.652
			c0.469,0.635,0.703,2.437,0.703,5.405V76.69h-2.183v-1.641c-0.127,0.391-0.442,0.789-0.945,1.193
			c-0.503,0.406-1.15,0.608-1.941,0.608c-1.152,0-2.024-0.485-2.615-1.458c-0.591-0.971-0.886-2.38-0.886-4.226v-2.812
			c0-1.006,0.242-1.787,0.725-2.344c0.483-0.557,0.901-0.947,1.252-1.172c0.928-0.586,1.86-1.077,2.798-1.472
			c0.938-0.396,1.475-0.623,1.611-0.682v-2.461c0-1.416-0.054-2.251-0.161-2.505c-0.107-0.254-0.195-0.459-0.264-0.615
			c-0.215-0.488-0.732-0.732-1.553-0.732c-0.821,0-1.35,0.345-1.589,1.032c-0.239,0.689-0.359,2-0.359,3.934v0.542h-2.197v-0.585
			H107.104z M113.228,64.429c-1.611,0.732-2.542,1.191-2.791,1.377s-0.471,0.376-0.667,0.571c-0.508,0.508-0.762,1.46-0.762,2.856
			v1.743c0,1.514,0.117,2.568,0.352,3.164c0.235,0.596,0.654,0.894,1.26,0.894s1.143-0.151,1.611-0.454
			c0.468-0.303,0.801-0.63,0.996-0.981L113.228,64.429L113.228,64.429z"/>
		<path fill="#3A3B3B" d="M122.061,56.87c0.195-0.654,0.627-1.224,1.296-1.706c0.669-0.484,1.458-0.726,2.366-0.726
			c0.908,0,1.655,0.376,2.241,1.128s0.879,1.88,0.879,3.384v17.739h-2.183V58.774c0-0.85-0.193-1.462-0.579-1.839
			c-0.386-0.375-0.901-0.563-1.545-0.563c-1.65,0-2.476,0.815-2.476,2.446v17.871h-2.183V54.717h2.183L122.061,56.87L122.061,56.87z
			"/>
		<path fill="#3A3B3B" d="M135.566,56.87c0.195-0.654,0.627-1.224,1.296-1.706c0.669-0.484,1.458-0.726,2.366-0.726
			s1.655,0.376,2.241,1.128c0.586,0.752,0.879,1.88,0.879,3.384v17.739h-2.183V58.774c0-0.85-0.193-1.462-0.579-1.839
			c-0.386-0.375-0.901-0.563-1.545-0.563c-1.65,0-2.476,0.815-2.476,2.446v17.871h-2.183V54.717h2.183L135.566,56.87L135.566,56.87z
			"/>
		<path fill="#3A3B3B" d="M146.421,61.836c0-2.559,0.234-4.316,0.703-5.273c0.488-0.957,1.143-1.577,1.963-1.86
			c0.488-0.166,1.052-0.249,1.692-0.249c0.64,0,1.194,0.078,1.663,0.234c0.713,0.234,1.313,0.874,1.802,1.919
			c0.352,0.732,0.527,2.534,0.527,5.405v3.662h-6.167v4.424c0,2.266,0.168,3.654,0.505,4.168c0.337,0.512,0.835,0.769,1.494,0.769
			s1.123-0.205,1.392-0.615s0.435-0.939,0.498-1.589s0.095-1.531,0.095-2.645v-1.641h2.124v0.718c0,2.168-0.073,3.652-0.22,4.453
			c-0.371,2.158-1.577,3.237-3.618,3.237c-1.777,0-2.959-0.547-3.545-1.641c-0.4-0.723-0.652-1.548-0.754-2.476
			c-0.102-0.928-0.154-2.139-0.154-3.633V61.836z M152.588,63.843v-2.944c0-1.65-0.063-2.729-0.19-3.237
			c-0.215-0.859-0.752-1.289-1.611-1.289c-1.152,0-1.836,0.757-2.051,2.271c-0.088,0.615-0.132,1.367-0.132,2.256
			c0,0.088,0,0.176,0,0.264v2.681h3.984V63.843z"/>
		<path fill="#3A3B3B" d="M158.857,50.571h2.197v26.118h-2.197V50.571z"/>
	</g>
	<g>
		<path fill="#3A3B3B" d="M98.293,117.364c0-3.125,0.393-5.202,1.179-6.233c0.786-1.029,1.904-1.545,3.354-1.545
			c1.45,0,2.488,0.356,3.113,1.069c0.449,0.518,0.742,1.03,0.879,1.538c0.322,1.191,0.483,2.974,0.483,5.347v2.227h-2.212v-2.49
			c0-2.168-0.117-3.618-0.352-4.351c-0.235-0.733-0.566-1.196-0.996-1.392c-0.234-0.107-0.503-0.161-0.806-0.161
			c-0.928,0-1.57,0.474-1.926,1.421c-0.356,0.947-0.535,2.437-0.535,4.468v10.342c0,2.49,0.156,4.211,0.469,5.164
			c0.312,0.951,0.938,1.428,1.875,1.428s1.55-0.474,1.838-1.421c0.288-0.947,0.432-2.666,0.432-5.156v-2.065h2.197v2.051
			c0,2.256-0.127,3.88-0.381,4.871c-0.254,0.991-0.542,1.701-0.864,2.131c-0.684,0.918-1.743,1.377-3.179,1.377
			s-2.515-0.454-3.237-1.362c-0.889-1.113-1.333-3.442-1.333-6.987v-10.271H98.293z"/>
		<path fill="#3A3B3B" d="M110.964,117.115c0-3.115,0.391-5.148,1.172-6.102c0.781-0.951,1.982-1.428,3.604-1.428
			c1.622,0,2.739,0.527,3.354,1.582c0.41,0.713,0.669,1.543,0.776,2.49c0.107,0.947,0.161,2.1,0.161,3.457v10.972
			c0,2.236-0.134,3.812-0.403,4.724c-0.269,0.914-0.569,1.565-0.901,1.956c-0.703,0.811-1.772,1.216-3.208,1.216
			c-2.139,0-3.477-0.923-4.014-2.769c-0.361-1.211-0.542-2.92-0.542-5.127L110.964,117.115L110.964,117.115z M117.849,116.939
			c0-2.051-0.149-3.491-0.447-4.321c-0.298-0.83-0.906-1.245-1.824-1.245s-1.553,0.428-1.904,1.281
			c-0.352,0.855-0.527,2.278-0.527,4.271v11.162c0,2.373,0.122,3.892,0.366,4.556c0.244,0.664,0.515,1.089,0.813,1.274
			c0.298,0.185,0.691,0.278,1.179,0.278c0.488,0,0.879-0.093,1.172-0.278c0.293-0.185,0.562-0.608,0.806-1.267
			c0.244-0.66,0.366-2.181,0.366-4.563V116.939z"/>
		<path fill="#3A3B3B" d="M124.338,109.908h4.38c1.768,0,2.949,0.371,3.545,1.113c0.449,0.557,0.735,1.238,0.857,2.043
			c0.122,0.807,0.183,1.976,0.183,3.509c0,1.533-0.178,2.786-0.535,3.757c-0.356,0.973-0.969,1.575-1.838,1.81
			c0.342,0.059,0.63,0.164,0.864,0.315s0.444,0.407,0.63,0.769c0.576,1.123,0.864,3.887,0.864,8.291
			c0,1.826,0.017,2.878,0.051,3.157c0.034,0.277,0.125,0.617,0.271,1.018h-2.168c-0.156-0.293-0.249-0.847-0.278-1.662
			c-0.029-0.815-0.044-2.117-0.044-3.904v-2.842c0-1.797-0.11-2.939-0.33-3.428c-0.22-0.489-0.872-0.732-1.956-0.732l-2.314-0.146
			v12.715h-2.183L124.338,109.908L124.338,109.908z M131.121,116.134c0-1.299-0.061-2.251-0.183-2.856s-0.327-1.016-0.615-1.23
			c-0.288-0.214-0.745-0.322-1.37-0.322h-2.446v9.785h2.285c0.742,0,1.248-0.127,1.516-0.381s0.471-0.676,0.608-1.268
			c0.137-0.59,0.205-1.77,0.205-3.537V116.134L131.121,116.134z"/>
		<path fill="#3A3B3B" d="M137.566,109.908h6.812v1.699h-4.629v10.078h4.351v1.772h-4.351v10.503h4.585v1.729h-6.768V109.908z"/>
	</g>
	<g>
		<path fill="#3A3B3B" d="M269.618,58.364c0-3.125,0.393-5.202,1.179-6.233c0.786-1.029,1.904-1.545,3.354-1.545
			c1.45,0,2.488,0.356,3.113,1.069c0.449,0.518,0.742,1.03,0.879,1.538c0.322,1.191,0.483,2.974,0.483,5.347v2.227h-2.212v-2.49
			c0-2.168-0.117-3.618-0.352-4.351c-0.235-0.733-0.566-1.196-0.996-1.392c-0.234-0.107-0.503-0.161-0.806-0.161
			c-0.928,0-1.57,0.474-1.926,1.421c-0.356,0.947-0.535,2.437-0.535,4.468v10.342c0,2.49,0.156,4.211,0.469,5.164
			c0.312,0.951,0.938,1.428,1.875,1.428s1.55-0.474,1.838-1.421c0.288-0.947,0.432-2.666,0.432-5.156v-2.065h2.197v2.051
			c0,2.256-0.127,3.88-0.381,4.871c-0.254,0.991-0.542,1.701-0.864,2.131c-0.684,0.918-1.743,1.377-3.179,1.377
			s-2.515-0.454-3.237-1.362c-0.889-1.113-1.333-3.442-1.333-6.987V58.364H269.618z"/>
		<path fill="#3A3B3B" d="M282.699,61.294c0-1.592,0.044-2.619,0.132-3.083s0.183-0.869,0.286-1.217
			c0.103-0.346,0.225-0.632,0.366-0.856c0.141-0.224,0.317-0.454,0.527-0.688c0.21-0.234,0.452-0.418,0.725-0.549
			c0.273-0.133,0.593-0.239,0.959-0.322c0.366-0.083,0.774-0.125,1.223-0.125s0.854,0.039,1.216,0.117
			c0.362,0.078,0.679,0.166,0.952,0.264s0.51,0.271,0.71,0.52c0.2,0.25,0.369,0.467,0.505,0.652
			c0.469,0.635,0.703,2.437,0.703,5.405V76.69h-2.183v-1.641c-0.127,0.391-0.442,0.789-0.945,1.193
			c-0.503,0.406-1.15,0.608-1.941,0.608c-1.152,0-2.024-0.485-2.615-1.458c-0.591-0.971-0.886-2.38-0.886-4.226v-2.812
			c0-1.006,0.242-1.787,0.725-2.344c0.483-0.557,0.901-0.947,1.252-1.172c0.928-0.586,1.86-1.077,2.798-1.472
			c0.938-0.396,1.475-0.623,1.611-0.682v-2.461c0-1.416-0.054-2.251-0.161-2.505c-0.107-0.254-0.195-0.459-0.264-0.615
			c-0.215-0.488-0.732-0.732-1.553-0.732c-0.821,0-1.35,0.345-1.589,1.032c-0.239,0.689-0.359,2-0.359,3.934v0.542h-2.197v-0.585
			H282.699z M288.822,64.429c-1.611,0.732-2.542,1.191-2.791,1.377c-0.249,0.186-0.471,0.376-0.667,0.571
			c-0.508,0.508-0.762,1.46-0.762,2.856v1.743c0,1.514,0.117,2.568,0.352,3.164c0.235,0.596,0.654,0.894,1.26,0.894
			s1.143-0.151,1.611-0.454c0.468-0.303,0.801-0.63,0.996-0.981L288.822,64.429L288.822,64.429z"/>
		<path fill="#3A3B3B" d="M295.473,50.571h2.197v26.118h-2.197V50.571z"/>
		<path fill="#3A3B3B" d="M302.357,50.571h2.197v26.118h-2.197V50.571z"/>
		<path fill="#3A3B3B" d="M309.271,50.586h2.183v2.109h-2.183V50.586z M309.271,54.717h2.196V76.69h-2.196V54.717z"/>
		<path fill="#3A3B3B" d="M318.368,56.87c0.195-0.654,0.627-1.224,1.296-1.706c0.669-0.484,1.458-0.726,2.366-0.726
			c0.907,0,1.654,0.376,2.241,1.128c0.586,0.752,0.879,1.88,0.879,3.384v17.739h-2.184V58.774c0-0.85-0.192-1.462-0.579-1.839
			c-0.386-0.375-0.9-0.563-1.545-0.563c-1.649,0-2.476,0.815-2.476,2.446v17.871h-2.184V54.717h2.184L318.368,56.87L318.368,56.87z"
			/>
		<path fill="#3A3B3B" d="M330.138,56.525c0.63-1.381,1.6-2.072,2.908-2.072c1.31,0,2.158,0.518,2.549,1.553v-1.289h2.184v20.552
			c0,2.178-0.812,3.647-2.433,4.409c-0.635,0.303-1.299,0.454-1.992,0.454c-0.692,0-1.418-0.117-2.175-0.352
			c-0.757-0.235-1.389-0.547-1.896-0.938l0.835-1.685c0.957,0.713,2.031,1.069,3.223,1.069c0.752,0,1.316-0.247,1.692-0.739
			c0.376-0.494,0.563-1.15,0.563-1.971v-2.417c-0.293,0.654-0.662,1.106-1.105,1.354c-0.444,0.25-0.969,0.374-1.575,0.374
			c-1.68,0-2.77-0.947-3.267-2.842c-0.304-1.191-0.454-2.71-0.454-4.556v-5.581C329.193,59.683,329.508,57.908,330.138,56.525z
			 M335.595,61.309c0-2.197-0.173-3.569-0.52-4.116c-0.347-0.547-0.874-0.82-1.582-0.82s-1.216,0.264-1.523,0.791
			c-0.307,0.527-0.482,1.182-0.526,1.963c-0.044,0.781-0.066,1.499-0.066,2.153v6.46c0,1.885,0.164,3.226,0.491,4.021
			c0.327,0.797,0.939,1.194,1.838,1.194c0.469-0.01,0.83-0.142,1.084-0.396c0.537-0.547,0.806-2.168,0.806-4.863L335.595,61.309
			L335.595,61.309z"/>
	</g>
	<g>
		<path fill="#3A3B3B" d="M279.638,109.908h2.183v24.053h4.57v1.729h-6.753V109.908L279.638,109.908z"/>
		<path fill="#3A3B3B" d="M288.529,120.777c0-2.539,0.239-4.287,0.718-5.244s1.128-1.572,1.948-1.846
			c0.488-0.156,1.035-0.234,1.641-0.234c2.471,0,3.857,1.343,4.16,4.028c0.107,0.918,0.161,2.017,0.161,3.296v7.368
			c0,1.729-0.037,2.847-0.11,3.354c-0.073,0.507-0.144,0.947-0.212,1.318c-0.391,2.09-1.748,3.135-4.072,3.135
			c-0.947,0-1.704-0.195-2.271-0.586c-1.074-0.742-1.694-2.104-1.86-4.087c-0.068-0.879-0.103-1.924-0.103-3.135V120.777
			L288.529,120.777z M294.975,120.265c0-2.52-0.332-4.038-0.996-4.556c-0.293-0.225-0.645-0.337-1.055-0.337
			c-1.113,0-1.777,0.62-1.992,1.86c-0.146,0.771-0.22,1.782-0.22,3.032v8.643c0,2.158,0.183,3.552,0.549,4.183
			c0.366,0.629,0.95,0.944,1.75,0.944c0.8,0,1.328-0.446,1.582-1.341c0.254-0.893,0.381-2.155,0.381-3.786L294.975,120.265
			L294.975,120.265z"/>
		<path fill="#3A3B3B" d="M300.907,120.631c0-2.441,0.244-4.141,0.732-5.098c0.488-0.957,1.143-1.572,1.963-1.846
			c0.479-0.156,1.128-0.234,1.948-0.234c0.82,0,1.572,0.225,2.256,0.674c0.439,0.293,0.796,0.854,1.069,1.685s0.41,2.476,0.41,4.937
			v0.688h-2.212v-1.348c0-1.699-0.06-2.803-0.176-3.311c-0.216-0.879-0.758-1.318-1.626-1.318c-1.064,0-1.724,0.615-1.978,1.846
			c-0.137,0.664-0.205,1.631-0.205,2.9v8.818c0,1.982,0.076,3.162,0.227,3.538s0.305,0.661,0.461,0.856
			c0.273,0.352,0.764,0.527,1.472,0.527s1.184-0.31,1.428-0.931c0.244-0.619,0.371-1.296,0.381-2.028
			c0.011-0.732,0.016-1.357,0.016-1.875v-1.655h2.212v0.659c0,2.197-0.073,3.701-0.22,4.512c-0.382,2.217-1.616,3.325-3.707,3.325
			c-1.777,0-2.959-0.547-3.545-1.641c-0.4-0.732-0.652-1.567-0.754-2.505s-0.154-2.139-0.154-3.604v-7.571H300.907z"/>
		<path fill="#3A3B3B" d="M312.992,120.294c0-1.592,0.044-2.619,0.132-3.083s0.183-0.869,0.286-1.217
			c0.103-0.346,0.225-0.632,0.366-0.856c0.141-0.224,0.316-0.454,0.526-0.688c0.21-0.234,0.452-0.418,0.726-0.549
			c0.272-0.133,0.593-0.239,0.959-0.322s0.773-0.125,1.223-0.125s0.854,0.039,1.216,0.117c0.362,0.078,0.68,0.166,0.952,0.264
			c0.273,0.098,0.51,0.271,0.71,0.52c0.2,0.25,0.369,0.467,0.505,0.652c0.47,0.635,0.703,2.437,0.703,5.405v15.278h-2.183v-1.641
			c-0.127,0.391-0.442,0.789-0.945,1.193c-0.503,0.406-1.15,0.608-1.941,0.608c-1.151,0-2.023-0.485-2.614-1.458
			c-0.591-0.971-0.887-2.38-0.887-4.226v-2.812c0-1.006,0.242-1.787,0.726-2.344c0.482-0.557,0.9-0.947,1.252-1.172
			c0.928-0.586,1.86-1.077,2.798-1.472c0.938-0.396,1.475-0.623,1.611-0.682v-2.461c0-1.416-0.055-2.251-0.161-2.505
			c-0.107-0.254-0.195-0.459-0.264-0.615c-0.216-0.488-0.732-0.732-1.554-0.732s-1.35,0.345-1.589,1.032
			c-0.239,0.689-0.359,2-0.359,3.934v0.542h-2.196v-0.585H312.992z M319.115,123.429c-1.611,0.732-2.542,1.191-2.791,1.377
			s-0.472,0.376-0.667,0.571c-0.508,0.508-0.763,1.46-0.763,2.856v1.743c0,1.514,0.117,2.568,0.353,3.164
			c0.235,0.596,0.654,0.894,1.26,0.894c0.606,0,1.144-0.151,1.611-0.454c0.468-0.303,0.801-0.63,0.996-0.981L319.115,123.429
			L319.115,123.429z"/>
		<path fill="#3A3B3B" d="M325.766,109.571h2.197v26.118h-2.197V109.571z"/>
	</g>
	<g>
		<path fill="#3A3B3B" d="M443.44,50.908h2.445v25.781h-1.978V65.645l0.337-10.386l-3.677,20.874h-2.08l-3.81-20.874l0.337,10.386
			V76.69h-1.991V50.908h2.445l4.059,21.65L443.44,50.908z"/>
		<path fill="#3A3B3B" d="M450.105,61.836c0-2.559,0.233-4.316,0.702-5.273c0.488-0.957,1.144-1.577,1.964-1.86
			c0.487-0.166,1.052-0.249,1.691-0.249s1.194,0.078,1.663,0.234c0.713,0.234,1.313,0.874,1.802,1.919
			c0.353,0.732,0.527,2.534,0.527,5.405v3.662h-6.167v4.424c0,2.266,0.168,3.654,0.505,4.168c0.337,0.512,0.835,0.769,1.494,0.769
			s1.123-0.205,1.392-0.615c0.27-0.41,0.436-0.939,0.498-1.589c0.063-0.65,0.096-1.531,0.096-2.645v-1.641h2.124v0.718
			c0,2.168-0.073,3.652-0.221,4.453c-0.371,2.158-1.577,3.237-3.618,3.237c-1.776,0-2.959-0.547-3.545-1.641
			c-0.399-0.723-0.651-1.548-0.754-2.476c-0.102-0.928-0.153-2.139-0.153-3.633V61.836L450.105,61.836z M456.272,63.843v-2.944
			c0-1.65-0.063-2.729-0.19-3.237c-0.215-0.859-0.752-1.289-1.611-1.289c-1.151,0-1.836,0.757-2.051,2.271
			c-0.088,0.615-0.132,1.367-0.132,2.256c0,0.088,0,0.176,0,0.264v2.681h3.984V63.843z"/>
		<path fill="#3A3B3B" d="M461.956,59.404c0-1.621,0.388-2.852,1.165-3.691s1.848-1.26,3.215-1.26s2.368,0.542,3.003,1.626
			s0.952,2.891,0.952,5.42v1.172h-2.271v-1.567c0-1.553-0.134-2.715-0.402-3.486c-0.27-0.771-0.737-1.157-1.406-1.157
			s-1.177,0.223-1.523,0.667c-0.346,0.444-0.52,1.213-0.52,2.307c0,0.029,0,0.059,0,0.088c0,1.709,0.796,3.335,2.388,4.878
			l1.128,1.099c1.943,1.943,2.915,4.087,2.915,6.431c0,1.562-0.337,2.796-1.011,3.698c-0.674,0.904-1.732,1.355-3.179,1.355
			s-2.527-0.498-3.245-1.494c-0.718-0.996-1.077-2.583-1.077-4.761v-1.89h2.241v1.509c0,3.096,0.674,4.644,2.021,4.644
			c0.724,0,1.235-0.234,1.538-0.703c0.304-0.469,0.454-1.299,0.454-2.49c0-1.768-0.762-3.428-2.285-4.98l-1.156-1.172
			C462.938,63.652,461.956,61.572,461.956,59.404z"/>
		<path fill="#3A3B3B" d="M473.924,59.404c0-1.621,0.389-2.852,1.165-3.691c0.777-0.839,1.849-1.26,3.215-1.26
			c1.367,0,2.368,0.542,3.003,1.626c0.636,1.084,0.952,2.891,0.952,5.42v1.172h-2.271v-1.567c0-1.553-0.135-2.715-0.403-3.486
			s-0.737-1.157-1.406-1.157s-1.177,0.223-1.522,0.667c-0.347,0.444-0.521,1.213-0.521,2.307c0,0.029,0,0.059,0,0.088
			c0,1.709,0.796,3.335,2.389,4.878l1.128,1.099c1.942,1.943,2.915,4.087,2.915,6.431c0,1.562-0.337,2.796-1.012,3.698
			c-0.674,0.904-1.732,1.355-3.179,1.355s-2.527-0.498-3.245-1.494c-0.718-0.996-1.077-2.583-1.077-4.761v-1.89h2.241v1.509
			c0,3.096,0.674,4.644,2.021,4.644c0.723,0,1.234-0.234,1.538-0.703c0.303-0.469,0.453-1.299,0.453-2.49
			c0-1.768-0.762-3.428-2.284-4.98l-1.157-1.172C474.905,63.652,473.924,61.572,473.924,59.404z"/>
		<path fill="#3A3B3B" d="M486.507,61.294c0-1.592,0.044-2.619,0.132-3.083s0.184-0.869,0.286-1.217
			c0.104-0.346,0.226-0.632,0.366-0.856c0.141-0.224,0.317-0.454,0.527-0.688c0.21-0.234,0.451-0.418,0.725-0.549
			c0.273-0.133,0.593-0.239,0.959-0.322s0.774-0.125,1.223-0.125c0.449,0,0.854,0.039,1.217,0.117
			c0.361,0.078,0.679,0.166,0.951,0.264c0.273,0.098,0.511,0.271,0.71,0.52c0.2,0.25,0.369,0.467,0.506,0.652
			c0.469,0.635,0.702,2.437,0.702,5.405V76.69h-2.183v-1.641c-0.127,0.391-0.442,0.789-0.945,1.193
			c-0.503,0.406-1.149,0.608-1.94,0.608c-1.152,0-2.024-0.485-2.615-1.458c-0.591-0.971-0.886-2.38-0.886-4.226v-2.812
			c0-1.006,0.242-1.787,0.725-2.344c0.483-0.557,0.901-0.947,1.252-1.172c0.929-0.586,1.86-1.077,2.798-1.472
			c0.938-0.396,1.476-0.623,1.611-0.682v-2.461c0-1.416-0.054-2.251-0.161-2.505c-0.106-0.254-0.194-0.459-0.264-0.615
			c-0.215-0.488-0.732-0.732-1.553-0.732c-0.821,0-1.351,0.345-1.59,1.032c-0.238,0.689-0.358,2-0.358,3.934v0.542h-2.197v-0.585
			H486.507z M492.63,64.429c-1.611,0.732-2.542,1.191-2.791,1.377s-0.471,0.376-0.667,0.571c-0.508,0.508-0.762,1.46-0.762,2.856
			v1.743c0,1.514,0.117,2.568,0.352,3.164c0.235,0.596,0.654,0.894,1.261,0.894c0.605,0,1.143-0.151,1.61-0.454
			c0.468-0.303,0.801-0.63,0.996-0.981L492.63,64.429L492.63,64.429z"/>
		<path fill="#3A3B3B" d="M499.727,56.525c0.631-1.381,1.6-2.072,2.908-2.072c1.31,0,2.158,0.518,2.549,1.553v-1.289h2.184v20.552
			c0,2.178-0.812,3.647-2.433,4.409c-0.635,0.303-1.299,0.454-1.991,0.454c-0.693,0-1.418-0.117-2.176-0.352
			c-0.757-0.235-1.389-0.547-1.896-0.938l0.835-1.685c0.957,0.713,2.031,1.069,3.223,1.069c0.752,0,1.316-0.247,1.692-0.739
			c0.376-0.494,0.563-1.15,0.563-1.971v-2.417c-0.293,0.654-0.661,1.106-1.105,1.354c-0.444,0.25-0.969,0.374-1.575,0.374
			c-1.68,0-2.769-0.947-3.267-2.842c-0.304-1.191-0.454-2.71-0.454-4.556v-5.581C498.782,59.683,499.097,57.908,499.727,56.525z
			 M505.184,61.309c0-2.197-0.173-3.569-0.52-4.116c-0.347-0.547-0.874-0.82-1.582-0.82s-1.216,0.264-1.523,0.791
			c-0.307,0.527-0.482,1.182-0.526,1.963c-0.044,0.781-0.066,1.499-0.066,2.153v6.46c0,1.885,0.164,3.226,0.491,4.021
			c0.327,0.797,0.939,1.194,1.838,1.194c0.469-0.01,0.83-0.142,1.084-0.396c0.537-0.547,0.806-2.168,0.806-4.863L505.184,61.309
			L505.184,61.309z"/>
		<path fill="#3A3B3B" d="M511.907,50.586h2.183v2.109h-2.183V50.586z M511.907,54.717h2.196V76.69h-2.196V54.717z"/>
		<path fill="#3A3B3B" d="M521.004,56.87c0.195-0.654,0.627-1.224,1.296-1.706c0.669-0.484,1.458-0.726,2.366-0.726
			s1.655,0.376,2.241,1.128s0.879,1.88,0.879,3.384v17.739h-2.183V58.774c0-0.85-0.193-1.462-0.579-1.839
			c-0.386-0.375-0.901-0.563-1.545-0.563c-1.65,0-2.477,0.815-2.477,2.446v17.871h-2.183V54.717h2.183L521.004,56.87L521.004,56.87z
			"/>
		<path fill="#3A3B3B" d="M532.774,56.525c0.63-1.381,1.599-2.072,2.907-2.072c1.31,0,2.158,0.518,2.55,1.553v-1.289h2.183v20.552
			c0,2.178-0.811,3.647-2.432,4.409c-0.636,0.303-1.3,0.454-1.992,0.454c-0.693,0-1.418-0.117-2.175-0.352
			c-0.758-0.235-1.39-0.547-1.897-0.938l0.835-1.685c0.957,0.713,2.031,1.069,3.224,1.069c0.752,0,1.315-0.247,1.691-0.739
			c0.376-0.494,0.564-1.15,0.564-1.971v-2.417c-0.293,0.654-0.662,1.106-1.106,1.354c-0.444,0.25-0.969,0.374-1.575,0.374
			c-1.68,0-2.769-0.947-3.267-2.842c-0.303-1.191-0.454-2.71-0.454-4.556v-5.581C531.829,59.683,532.144,57.908,532.774,56.525z
			 M538.23,61.309c0-2.197-0.174-3.569-0.521-4.116c-0.347-0.547-0.874-0.82-1.582-0.82s-1.216,0.264-1.522,0.791
			c-0.308,0.527-0.483,1.182-0.527,1.963c-0.044,0.781-0.066,1.499-0.066,2.153v6.46c0,1.885,0.164,3.226,0.491,4.021
			c0.327,0.797,0.94,1.194,1.838,1.194c0.47-0.01,0.83-0.142,1.084-0.396c0.537-0.547,0.807-2.168,0.807-4.863L538.23,61.309
			L538.23,61.309z"/>
	</g>
	<g>
		<path fill="#3A3B3B" d="M471.163,109.908h4.481c1.056,0,1.888,0.197,2.498,0.594c0.61,0.395,1.019,0.837,1.224,1.325
			c0.352,0.879,0.563,1.733,0.637,2.563s0.11,1.831,0.11,3.003v0.264c0,2.236-0.14,3.813-0.417,4.731
			c-0.278,0.918-0.594,1.577-0.945,1.978c-0.713,0.82-1.792,1.23-3.237,1.23h-2.168v10.093h-2.183V109.908L471.163,109.908z
			 M477.93,117.687v-0.688c0-1.895-0.144-3.247-0.432-4.058s-0.867-1.216-1.736-1.216h-2.417v12.026h2.314
			c0.897,0,1.501-0.427,1.809-1.282C477.776,121.615,477.93,120.021,477.93,117.687z"/>
		<path fill="#3A3B3B" d="M482.896,116.603c0-2.451,0.337-4.229,1.011-5.332s1.707-1.655,3.098-1.655s2.378,0.545,2.959,1.633
			c0.581,1.09,0.872,2.889,0.872,5.398c0,2.509-0.566,5.02-1.699,7.529c-0.487,1.084-0.996,2.129-1.522,3.135
			c-1.328,2.607-2.153,4.81-2.477,6.606h5.348v1.772h-7.544v-1.348c0-0.01,0-0.02,0-0.029c0-1.172,0.688-3.188,2.064-6.05
			c0.566-1.191,1.144-2.422,1.729-3.691c1.387-3.057,2.08-5.603,2.08-7.64c0-2.035-0.146-3.459-0.439-4.27s-0.764-1.216-1.414-1.216
			s-1.121,0.413-1.414,1.237c-0.293,0.826-0.438,2.151-0.438,3.978v3.428h-2.213V116.603L482.896,116.603z"/>
		<path fill="#3A3B3B" d="M494.439,109.908h4.481c1.055,0,1.887,0.197,2.498,0.594c0.61,0.395,1.018,0.837,1.223,1.325
			c0.353,0.879,0.564,1.733,0.638,2.563c0.072,0.83,0.109,1.831,0.109,3.003v0.264c0,2.236-0.139,3.813-0.417,4.731
			c-0.277,0.918-0.593,1.577-0.944,1.978c-0.714,0.82-1.792,1.23-3.237,1.23h-2.168v10.093h-2.184L494.439,109.908L494.439,109.908z
			 M501.207,117.687v-0.688c0-1.895-0.145-3.247-0.432-4.058c-0.288-0.811-0.867-1.216-1.736-1.216h-2.417v12.026h2.313
			c0.898,0,1.502-0.427,1.81-1.282C501.053,121.615,501.207,120.021,501.207,117.687z"/>
	</g>
	<g>
		<path fill="#3A3B3B" d="M609.396,50.908h2.183v25.781h-2.183V50.908z"/>
		<path fill="#3A3B3B" d="M618.698,56.87c0.194-0.654,0.627-1.224,1.296-1.706c0.669-0.484,1.458-0.726,2.366-0.726
			c0.907,0,1.654,0.376,2.241,1.128c0.586,0.752,0.879,1.88,0.879,3.384v17.739h-2.184V58.774c0-0.85-0.192-1.462-0.579-1.839
			c-0.386-0.375-0.9-0.563-1.545-0.563c-1.649,0-2.476,0.815-2.476,2.446v17.871h-2.184V54.717h2.184L618.698,56.87L618.698,56.87z"
			/>
		<path fill="#3A3B3B" d="M630.959,54.541c0-1.348,0.239-2.36,0.718-3.039c0.479-0.679,1.284-1.019,2.417-1.019
			c0.791,0,1.45,0.088,1.979,0.264v1.772c-0.439-0.068-0.934-0.103-1.479-0.103s-0.923,0.145-1.128,0.433s-0.308,0.744-0.308,1.369
			v1.348h2.915v1.655h-2.915v19.468h-2.197V57.222h-2.051v-1.655h2.051L630.959,54.541L630.959,54.541z"/>
		<path fill="#3A3B3B" d="M638.488,61.777c0-2.539,0.238-4.287,0.718-5.244c0.479-0.957,1.128-1.572,1.948-1.846
			c0.487-0.156,1.035-0.234,1.641-0.234c2.471,0,3.857,1.343,4.16,4.028c0.106,0.918,0.161,2.017,0.161,3.296v7.368
			c0,1.729-0.037,2.847-0.11,3.354s-0.144,0.947-0.212,1.318c-0.391,2.09-1.748,3.135-4.072,3.135c-0.946,0-1.704-0.195-2.271-0.586
			c-1.074-0.742-1.694-2.104-1.86-4.087c-0.067-0.879-0.103-1.924-0.103-3.135V61.777z M644.934,61.265
			c0-2.52-0.332-4.038-0.995-4.556c-0.294-0.225-0.646-0.337-1.056-0.337c-1.112,0-1.776,0.62-1.992,1.86
			c-0.146,0.771-0.22,1.782-0.22,3.032v8.643c0,2.158,0.184,3.552,0.549,4.183c0.366,0.629,0.95,0.944,1.75,0.944
			c0.801,0,1.328-0.446,1.582-1.341c0.254-0.893,0.381-2.155,0.381-3.786L644.934,61.265L644.934,61.265z"/>
		<path fill="#3A3B3B" d="M657.268,54.453c0.039,0,0.06,0.156,0.06,0.469s-0.005,0.625-0.015,0.938v0.454
			c-0.771,0-1.453,0.153-2.044,0.462c-0.591,0.307-1.169,0.861-1.735,1.662V76.69h-2.184V54.717h2.184v2.446
			c0.254-0.859,0.701-1.525,1.34-1.999S656.311,54.453,657.268,54.453z"/>
		<path fill="#3A3B3B" d="M673.586,58.73c0-1.514-0.669-2.271-2.007-2.271c-1.123,0-1.841,0.327-2.153,0.981
			c-0.137,0.293-0.225,0.659-0.264,1.099v18.149h-2.184V58.73c0-0.84-0.173-1.428-0.52-1.766c-0.347-0.336-0.874-0.505-1.582-0.505
			s-1.271,0.212-1.692,0.638c-0.42,0.424-0.63,1.052-0.63,1.882v17.71h-2.183V54.717h2.183V56.9c0.195-0.664,0.604-1.24,1.224-1.729
			c0.62-0.489,1.331-0.732,2.131-0.732c1.465,0,2.446,0.742,2.943,2.227c0.361-0.664,0.874-1.201,1.538-1.611
			c0.664-0.41,1.437-0.615,2.314-0.615s1.611,0.366,2.197,1.099s0.879,1.841,0.879,3.325v17.827h-2.197V58.73H673.586z"/>
		<path fill="#3A3B3B" d="M680.354,61.294c0-1.592,0.045-2.619,0.133-3.083s0.183-0.869,0.286-1.217
			c0.103-0.346,0.225-0.632,0.365-0.856c0.143-0.225,0.317-0.454,0.527-0.688c0.21-0.234,0.452-0.418,0.726-0.549
			c0.273-0.133,0.594-0.239,0.961-0.322c0.364-0.083,0.772-0.125,1.223-0.125s0.854,0.039,1.216,0.117
			c0.362,0.078,0.679,0.166,0.952,0.264s0.51,0.271,0.711,0.52c0.199,0.25,0.368,0.467,0.505,0.652
			c0.469,0.635,0.703,2.437,0.703,5.405V76.69h-2.183v-1.641c-0.127,0.391-0.442,0.789-0.945,1.193
			c-0.503,0.406-1.149,0.608-1.94,0.608c-1.151,0-2.023-0.485-2.614-1.458c-0.592-0.971-0.887-2.38-0.887-4.226v-2.812
			c0-1.006,0.242-1.787,0.726-2.344c0.483-0.557,0.9-0.947,1.252-1.172c0.928-0.586,1.859-1.077,2.798-1.472
			c0.938-0.396,1.475-0.623,1.611-0.682v-2.461c0-1.416-0.055-2.251-0.161-2.505c-0.107-0.254-0.195-0.459-0.265-0.615
			c-0.215-0.488-0.731-0.732-1.553-0.732c-0.82,0-1.351,0.345-1.589,1.032c-0.24,0.689-0.359,2-0.359,3.934v0.542h-2.196v-0.585
			H680.354z M686.477,64.429c-1.61,0.732-2.541,1.191-2.791,1.377c-0.248,0.186-0.471,0.376-0.666,0.571
			c-0.508,0.508-0.762,1.46-0.762,2.856v1.743c0,1.514,0.117,2.568,0.353,3.164c0.234,0.596,0.653,0.894,1.26,0.894
			c0.605,0,1.143-0.151,1.61-0.454c0.469-0.303,0.802-0.63,0.996-0.981V64.429L686.477,64.429z"/>
		<path fill="#3A3B3B" d="M693.64,50.908h2.197v3.721h2.593v1.699h-2.593v17.3c0,0.439,0.054,0.742,0.161,0.908
			s0.308,0.278,0.601,0.337c0.294,0.059,0.898,0.088,1.816,0.088v1.86h-1.523c-1.387,0-2.279-0.244-2.681-0.732
			c-0.234-0.283-0.389-0.617-0.461-1.003c-0.074-0.386-0.11-0.911-0.11-1.575V56.328h-2.196v-1.699h2.196V50.908z"/>
		<path fill="#3A3B3B" d="M701.682,50.586h2.184v2.109h-2.184V50.586z M701.682,54.717h2.197V76.69h-2.197V54.717z"/>
		<path fill="#3A3B3B" d="M708.127,61.777c0-2.539,0.239-4.287,0.718-5.244c0.479-0.957,1.128-1.572,1.948-1.846
			c0.488-0.156,1.035-0.234,1.641-0.234c2.472,0,3.857,1.343,4.16,4.028c0.107,0.918,0.161,2.017,0.161,3.296v7.368
			c0,1.729-0.036,2.847-0.11,3.354c-0.071,0.508-0.144,0.947-0.212,1.318c-0.391,2.09-1.747,3.135-4.071,3.135
			c-0.947,0-1.704-0.195-2.271-0.586c-1.074-0.742-1.693-2.104-1.859-4.087c-0.068-0.879-0.104-1.924-0.104-3.135V61.777z
			 M714.572,61.265c0-2.52-0.332-4.038-0.996-4.556c-0.293-0.225-0.646-0.337-1.055-0.337c-1.113,0-1.777,0.62-1.992,1.86
			c-0.146,0.771-0.221,1.782-0.221,3.032v8.643c0,2.158,0.184,3.552,0.551,4.183c0.364,0.629,0.948,0.944,1.75,0.944
			c0.801,0,1.328-0.446,1.582-1.341c0.254-0.893,0.381-2.155,0.381-3.786V61.265z"/>
		<path fill="#3A3B3B" d="M723.156,56.87c0.194-0.654,0.627-1.224,1.297-1.706c0.668-0.484,1.457-0.726,2.365-0.726
			c0.907,0,1.654,0.376,2.24,1.128s0.88,1.88,0.88,3.384v17.739h-2.184V58.774c0-0.85-0.192-1.462-0.578-1.839
			c-0.387-0.375-0.9-0.563-1.546-0.563c-1.649,0-2.476,0.815-2.476,2.446v17.871h-2.184V54.717h2.184L723.156,56.87L723.156,56.87z"
			/>
	</g>
	<text transform="matrix(1 0 0 1 664.3647 135.6895)" fill="#3A3B3B" font-family="'Antonio-Light'" font-size="30">-</text>
	<g>
		<path fill="#3A3B3B" d="M792.403,50.908h2.227l4.585,25.781h-2.108l-0.851-5.229H791.1l-0.775,5.229h-2.065L792.403,50.908z
			 M795.963,69.658l-2.373-14.59h-0.029l-2.183,14.59H795.963z"/>
		<path fill="#3A3B3B" d="M804.562,56.401c0.518-1.23,1.488-1.846,2.914-1.846c0.996,0,1.745,0.329,2.248,0.989
			c0.503,0.658,0.833,1.508,0.989,2.549c0.156,1.039,0.234,2.292,0.234,3.757v7.881c0,0.029,0,0.063,0,0.103
			c0,2.764-0.361,4.642-1.084,5.633c-0.724,0.991-1.709,1.486-2.959,1.486c-0.498,0-0.965-0.179-1.399-0.535
			c-0.435-0.355-0.749-0.793-0.943-1.311v5.464h-2.184V54.717h2.184V56.401L804.562,56.401z M808.766,61.147
			c0-1.719-0.07-2.79-0.213-3.216c-0.142-0.424-0.31-0.788-0.505-1.091c-0.195-0.303-0.518-0.454-0.967-0.454
			s-0.781,0.029-0.996,0.088c-0.527,0.146-0.913,0.569-1.157,1.268c-0.244,0.699-0.365,1.843-0.365,3.435v8.73
			c0,1.865,0.147,3.182,0.445,3.948s0.862,1.149,1.692,1.149s1.382-0.381,1.655-1.143c0.272-0.762,0.409-2.104,0.409-4.028
			L808.766,61.147L808.766,61.147z"/>
		<path fill="#3A3B3B" d="M817.35,56.401c0.519-1.23,1.489-1.846,2.915-1.846c0.996,0,1.745,0.329,2.249,0.989
			c0.502,0.658,0.832,1.508,0.988,2.549c0.156,1.039,0.234,2.292,0.234,3.757v7.881c0,0.029,0,0.063,0,0.103
			c0,2.764-0.361,4.642-1.084,5.633c-0.724,0.991-1.709,1.486-2.959,1.486c-0.498,0-0.966-0.179-1.398-0.535
			c-0.436-0.355-0.75-0.793-0.945-1.311v5.464h-2.183V54.717h2.183V56.401z M821.554,61.147c0-1.719-0.07-2.79-0.212-3.216
			c-0.143-0.424-0.311-0.788-0.506-1.091c-0.195-0.303-0.518-0.454-0.967-0.454s-0.781,0.029-0.996,0.088
			c-0.527,0.146-0.913,0.569-1.157,1.268c-0.243,0.699-0.366,1.843-0.366,3.435v8.73c0,1.865,0.148,3.182,0.447,3.948
			c0.297,0.767,0.861,1.149,1.691,1.149s1.382-0.381,1.655-1.143c0.272-0.762,0.409-2.104,0.409-4.028L821.554,61.147
			L821.554,61.147z"/>
		<path fill="#3A3B3B" d="M827.955,50.571h2.197v26.118h-2.197V50.571z"/>
		<path fill="#3A3B3B" d="M834.869,50.586h2.183v2.109h-2.183V50.586z M834.869,54.717h2.197V76.69h-2.197V54.717z"/>
		<path fill="#3A3B3B" d="M841.314,61.631c0-2.441,0.243-4.141,0.731-5.098s1.144-1.572,1.963-1.846
			c0.479-0.156,1.128-0.234,1.948-0.234s1.572,0.225,2.256,0.674c0.439,0.293,0.796,0.854,1.069,1.685
			c0.272,0.831,0.41,2.476,0.41,4.937v0.688h-2.212v-1.348c0-1.699-0.06-2.803-0.177-3.311c-0.215-0.879-0.757-1.318-1.626-1.318
			c-1.063,0-1.724,0.615-1.978,1.846c-0.138,0.664-0.205,1.631-0.205,2.9v8.818c0,1.982,0.075,3.162,0.228,3.538
			c0.15,0.376,0.306,0.661,0.461,0.856c0.273,0.352,0.765,0.527,1.474,0.527c0.707,0,1.184-0.31,1.428-0.931
			c0.244-0.619,0.371-1.296,0.381-2.028s0.015-1.357,0.015-1.875v-1.655h2.213v0.659c0,2.197-0.073,3.701-0.221,4.512
			c-0.381,2.217-1.615,3.325-3.706,3.325c-1.776,0-2.959-0.547-3.545-1.641c-0.399-0.732-0.651-1.567-0.754-2.505
			c-0.104-0.938-0.153-2.139-0.153-3.604V61.631L841.314,61.631z"/>
		<path fill="#3A3B3B" d="M853.399,61.294c0-1.592,0.044-2.619,0.132-3.083s0.184-0.869,0.285-1.217
			c0.104-0.346,0.225-0.632,0.366-0.856c0.142-0.225,0.316-0.454,0.527-0.688c0.209-0.234,0.451-0.418,0.725-0.549
			c0.273-0.133,0.595-0.239,0.959-0.322c0.367-0.083,0.774-0.125,1.225-0.125s0.854,0.039,1.216,0.117
			c0.362,0.078,0.679,0.166,0.952,0.264c0.272,0.098,0.51,0.271,0.71,0.52c0.2,0.25,0.369,0.467,0.506,0.652
			c0.469,0.635,0.703,2.437,0.703,5.405V76.69h-2.184v-1.641c-0.127,0.391-0.441,0.789-0.943,1.193
			c-0.504,0.406-1.15,0.608-1.941,0.608c-1.151,0-2.023-0.485-2.614-1.458c-0.592-0.971-0.887-2.38-0.887-4.226v-2.812
			c0-1.006,0.241-1.787,0.727-2.344c0.481-0.557,0.899-0.947,1.252-1.172c0.928-0.586,1.859-1.077,2.798-1.472
			c0.938-0.396,1.475-0.623,1.611-0.682v-2.461c0-1.416-0.055-2.251-0.161-2.505c-0.107-0.254-0.195-0.459-0.265-0.615
			c-0.215-0.488-0.731-0.732-1.553-0.732c-0.82,0-1.351,0.345-1.59,1.032c-0.239,0.689-0.358,2-0.358,3.934v0.542H853.4
			L853.399,61.294L853.399,61.294z M859.521,64.429c-1.61,0.732-2.541,1.191-2.789,1.377c-0.25,0.186-0.473,0.376-0.667,0.571
			c-0.509,0.508-0.763,1.46-0.763,2.856v1.743c0,1.514,0.117,2.568,0.353,3.164c0.234,0.596,0.653,0.894,1.26,0.894
			s1.143-0.151,1.611-0.454c0.468-0.303,0.801-0.63,0.995-0.981V64.429z"/>
		<path fill="#3A3B3B" d="M866.686,50.908h2.197v3.721h2.593v1.699h-2.593v17.3c0,0.439,0.055,0.742,0.161,0.908
			c0.107,0.166,0.308,0.278,0.601,0.337c0.294,0.059,0.898,0.088,1.816,0.088v1.86h-1.523c-1.387,0-2.279-0.244-2.681-0.732
			c-0.233-0.283-0.388-0.617-0.462-1.003c-0.072-0.386-0.109-0.911-0.109-1.575V56.328h-2.196v-1.699h2.196V50.908z"/>
		<path fill="#3A3B3B" d="M874.729,50.586h2.183v2.109h-2.183V50.586z M874.729,54.717h2.196V76.69h-2.196V54.717z"/>
		<path fill="#3A3B3B" d="M881.173,61.777c0-2.539,0.239-4.287,0.718-5.244c0.479-0.957,1.128-1.572,1.948-1.846
			c0.488-0.156,1.035-0.234,1.642-0.234c2.471,0,3.856,1.343,4.159,4.028c0.107,0.918,0.161,2.017,0.161,3.296v7.368
			c0,1.729-0.037,2.847-0.108,3.354c-0.074,0.508-0.146,0.947-0.214,1.318c-0.391,2.09-1.748,3.135-4.071,3.135
			c-0.947,0-1.704-0.195-2.271-0.586c-1.074-0.742-1.693-2.104-1.859-4.087c-0.068-0.879-0.104-1.924-0.104-3.135V61.777
			L881.173,61.777z M887.618,61.265c0-2.52-0.332-4.038-0.996-4.556c-0.293-0.225-0.646-0.337-1.055-0.337
			c-1.113,0-1.777,0.62-1.992,1.86c-0.146,0.771-0.22,1.782-0.22,3.032v8.643c0,2.158,0.184,3.552,0.549,4.183
			c0.367,0.629,0.95,0.944,1.751,0.944s1.328-0.446,1.582-1.341c0.254-0.893,0.381-2.155,0.381-3.786V61.265z"/>
		<path fill="#3A3B3B" d="M896.202,56.87c0.195-0.654,0.627-1.224,1.296-1.706c0.669-0.484,1.458-0.726,2.366-0.726
			s1.655,0.376,2.241,1.128s0.879,1.88,0.879,3.384v17.739h-2.184V58.774c0-0.85-0.192-1.462-0.578-1.839
			c-0.387-0.375-0.9-0.563-1.546-0.563c-1.649,0-2.476,0.815-2.476,2.446v17.871h-2.183V54.717h2.183L896.202,56.87L896.202,56.87z"
			/>
		<path fill="#3A3B3B" d="M906.939,59.404c0-1.621,0.389-2.852,1.164-3.691c0.776-0.84,1.849-1.26,3.216-1.26
			c1.366,0,2.368,0.542,3.003,1.626s0.952,2.891,0.952,5.42v1.172h-2.271v-1.567c0-1.553-0.135-2.715-0.401-3.486
			c-0.271-0.771-0.738-1.157-1.406-1.157c-0.67,0-1.178,0.223-1.523,0.667c-0.348,0.444-0.521,1.213-0.521,2.307
			c0,0.029,0,0.059,0,0.088c0,1.709,0.796,3.335,2.388,4.878l1.128,1.099c1.943,1.943,2.915,4.087,2.915,6.431
			c0,1.562-0.337,2.796-1.011,3.698c-0.674,0.904-1.733,1.355-3.18,1.355c-1.445,0-2.526-0.498-3.243-1.494
			c-0.72-0.996-1.077-2.583-1.077-4.761v-1.89h2.241v1.509c0,3.096,0.674,4.644,2.021,4.644c0.723,0,1.235-0.234,1.538-0.703
			c0.303-0.469,0.454-1.299,0.454-2.49c0-1.768-0.763-3.428-2.285-4.98l-1.157-1.172C907.921,63.652,906.939,61.572,906.939,59.404z
			"/>
	</g>
	<text transform="matrix(1 0 0 1 847.1953 135.6895)" fill="#3A3B3B" font-family="'Antonio-Light'" font-size="30">-</text>
	<g>
		<path fill="#3A3B3B" d="M982.332,58.364c0-3.125,0.393-5.202,1.179-6.233c0.786-1.029,1.904-1.545,3.354-1.545
			s2.486,0.356,3.112,1.069c0.448,0.518,0.741,1.03,0.88,1.538c0.321,1.191,0.481,2.974,0.481,5.347v2.227h-2.211v-2.49
			c0-2.168-0.117-3.618-0.352-4.351c-0.235-0.733-0.567-1.196-0.996-1.392c-0.234-0.107-0.504-0.161-0.808-0.161
			c-0.928,0-1.568,0.474-1.926,1.421c-0.357,0.947-0.535,2.437-0.535,4.468v10.342c0,2.49,0.156,4.211,0.47,5.164
			c0.312,0.951,0.938,1.428,1.875,1.428c0.937,0,1.551-0.474,1.839-1.421c0.288-0.947,0.433-2.666,0.433-5.156v-2.065h2.197v2.051
			c0,2.256-0.128,3.88-0.381,4.871c-0.255,0.991-0.543,1.701-0.865,2.131c-0.685,0.918-1.742,1.377-3.178,1.377
			c-1.437,0-2.517-0.454-3.238-1.362c-0.889-1.113-1.332-3.442-1.332-6.987L982.332,58.364L982.332,58.364z"/>
		<path fill="#3A3B3B" d="M994.914,61.777c0-2.539,0.239-4.287,0.719-5.244c0.479-0.957,1.127-1.572,1.947-1.846
			c0.488-0.156,1.035-0.234,1.641-0.234c2.472,0,3.857,1.343,4.16,4.028c0.107,0.918,0.162,2.017,0.162,3.296v7.368
			c0,1.729-0.037,2.847-0.11,3.354c-0.072,0.507-0.145,0.947-0.212,1.318c-0.392,2.09-1.749,3.135-4.071,3.135
			c-0.948,0-1.705-0.195-2.271-0.586c-1.074-0.742-1.694-2.104-1.859-4.087c-0.068-0.879-0.104-1.924-0.104-3.135L994.914,61.777
			L994.914,61.777z M1001.359,61.265c0-2.52-0.332-4.038-0.996-4.556c-0.293-0.225-0.646-0.337-1.056-0.337
			c-1.112,0-1.776,0.62-1.991,1.86c-0.146,0.771-0.22,1.782-0.22,3.032v8.643c0,2.158,0.184,3.552,0.55,4.183
			c0.365,0.629,0.948,0.944,1.75,0.944c0.801,0,1.327-0.446,1.582-1.341c0.254-0.893,0.381-2.155,0.381-3.786V61.265z"/>
		<path fill="#3A3B3B" d="M1020.975,58.73c0-1.514-0.67-2.271-2.008-2.271c-1.123,0-1.841,0.327-2.151,0.981
			c-0.139,0.293-0.227,0.659-0.265,1.099v18.149h-2.184V58.73c0-0.84-0.173-1.428-0.521-1.766c-0.347-0.336-0.874-0.505-1.582-0.505
			s-1.271,0.212-1.69,0.638c-0.421,0.424-0.631,1.052-0.631,1.882v17.71h-2.183V54.717h2.183V56.9
			c0.194-0.664,0.604-1.24,1.224-1.729c0.62-0.489,1.33-0.732,2.132-0.732c1.465,0,2.445,0.742,2.943,2.227
			c0.361-0.664,0.874-1.201,1.539-1.611c0.663-0.41,1.436-0.615,2.313-0.615s1.611,0.366,2.197,1.099s0.879,1.841,0.879,3.325
			v17.827h-2.196V58.73L1020.975,58.73z"/>
		<path fill="#3A3B3B" d="M1040.926,58.73c0-1.514-0.67-2.271-2.008-2.271c-1.123,0-1.841,0.327-2.152,0.981
			c-0.138,0.293-0.226,0.659-0.264,1.099v18.149h-2.184V58.73c0-0.84-0.174-1.428-0.521-1.766c-0.347-0.336-0.874-0.505-1.582-0.505
			s-1.271,0.212-1.69,0.638c-0.422,0.424-0.632,1.052-0.632,1.882v17.71h-2.182V54.717h2.182V56.9
			c0.195-0.664,0.604-1.24,1.225-1.729c0.62-0.489,1.33-0.732,2.132-0.732c1.465,0,2.445,0.742,2.943,2.227
			c0.36-0.664,0.873-1.201,1.538-1.611c0.663-0.41,1.437-0.615,2.314-0.615s1.61,0.366,2.197,1.099
			c0.586,0.733,0.879,1.841,0.879,3.325v17.827h-2.197L1040.926,58.73L1040.926,58.73z"/>
		<path fill="#3A3B3B" d="M1047.195,61.836c0-2.559,0.233-4.316,0.703-5.273c0.486-0.957,1.143-1.577,1.963-1.86
			c0.486-0.166,1.052-0.249,1.69-0.249c0.64,0,1.193,0.078,1.662,0.234c0.713,0.234,1.313,0.874,1.803,1.919
			c0.353,0.732,0.527,2.534,0.527,5.405v3.662h-6.168v4.424c0,2.266,0.169,3.654,0.506,4.168c0.337,0.512,0.835,0.769,1.494,0.769
			s1.123-0.205,1.392-0.615c0.27-0.41,0.436-0.939,0.498-1.589c0.063-0.65,0.096-1.531,0.096-2.645v-1.641h2.125v0.718
			c0,2.168-0.074,3.652-0.222,4.453c-0.37,2.158-1.577,3.237-3.616,3.237c-1.778,0-2.959-0.547-3.545-1.641
			c-0.401-0.723-0.652-1.548-0.756-2.476c-0.103-0.928-0.152-2.139-0.152-3.633V61.836L1047.195,61.836z M1053.361,63.843v-2.944
			c0-1.65-0.063-2.729-0.189-3.237c-0.216-0.859-0.753-1.289-1.611-1.289c-1.152,0-1.837,0.757-2.051,2.271
			c-0.088,0.615-0.133,1.367-0.133,2.256c0,0.088,0,0.176,0,0.264v2.681h3.984V63.843z"/>
		<path fill="#3A3B3B" d="M1065.564,54.453c0.037,0,0.059,0.156,0.059,0.469s-0.006,0.625-0.016,0.938v0.454
			c-0.771,0-1.452,0.153-2.043,0.462c-0.592,0.307-1.171,0.861-1.736,1.662V76.69h-2.182V54.717h2.182v2.446
			c0.254-0.859,0.701-1.525,1.341-1.999S1064.605,54.453,1065.564,54.453z"/>
		<path fill="#3A3B3B" d="M1068.201,61.631c0-2.441,0.243-4.141,0.732-5.098c0.486-0.957,1.143-1.572,1.963-1.846
			c0.478-0.156,1.127-0.234,1.946-0.234c0.82,0,1.572,0.225,2.257,0.674c0.438,0.293,0.796,0.854,1.069,1.685
			c0.272,0.83,0.41,2.476,0.41,4.937v0.688h-2.213v-1.348c0-1.699-0.06-2.803-0.176-3.311c-0.216-0.879-0.757-1.318-1.625-1.318
			c-1.065,0-1.726,0.615-1.979,1.846c-0.137,0.664-0.205,1.631-0.205,2.9v8.818c0,1.982,0.076,3.162,0.229,3.538
			c0.151,0.376,0.305,0.661,0.462,0.856c0.271,0.352,0.764,0.527,1.472,0.527s1.185-0.31,1.43-0.931
			c0.242-0.619,0.369-1.296,0.381-2.028c0.009-0.732,0.014-1.357,0.014-1.875v-1.655h2.213v0.659c0,2.197-0.074,3.701-0.221,4.512
			c-0.381,2.217-1.616,3.325-3.705,3.325c-1.778,0-2.959-0.547-3.545-1.641c-0.401-0.732-0.652-1.567-0.755-2.505
			c-0.104-0.938-0.153-2.139-0.153-3.604V61.631L1068.201,61.631z"/>
		<path fill="#3A3B3B" d="M1079.787,61.836c0-2.559,0.234-4.316,0.703-5.273c0.488-0.957,1.143-1.577,1.963-1.86
			c0.488-0.166,1.053-0.249,1.691-0.249c0.64,0,1.194,0.078,1.663,0.234c0.712,0.234,1.312,0.874,1.802,1.919
			c0.352,0.732,0.526,2.534,0.526,5.405v3.662h-6.166v4.424c0,2.266,0.168,3.654,0.505,4.168c0.338,0.512,0.835,0.769,1.494,0.769
			s1.123-0.205,1.393-0.615c0.269-0.41,0.435-0.939,0.498-1.589c0.062-0.65,0.096-1.531,0.096-2.645v-1.641h2.123v0.718
			c0,2.168-0.072,3.652-0.219,4.453c-0.372,2.158-1.578,3.237-3.619,3.237c-1.777,0-2.959-0.547-3.545-1.641
			c-0.4-0.723-0.651-1.548-0.754-2.476c-0.104-0.928-0.154-2.139-0.154-3.633V61.836L1079.787,61.836z M1085.955,63.843v-2.944
			c0-1.65-0.064-2.729-0.191-3.237c-0.215-0.859-0.752-1.289-1.61-1.289c-1.152,0-1.837,0.757-2.052,2.271
			c-0.088,0.615-0.131,1.367-0.131,2.256c0,0.088,0,0.176,0,0.264v2.681h3.984V63.843z"/>
	</g>
	<text transform="matrix(1 0 0 1 1030.0273 135.6895)" fill="#3A3B3B" font-family="'Antonio-Light'" font-size="30">-</text>
	<g>
		<path fill="#3A3B3B" d="M1172.89,50.908h3.766c1.543,0,2.663,0.264,3.36,0.791c0.698,0.527,1.137,1.455,1.312,2.783
			c0.078,0.586,0.122,1.318,0.132,2.197v0.337c0,1.67-0.107,2.944-0.322,3.823s-0.659,1.538-1.333,1.978
			c0.762,0.371,1.286,1.102,1.575,2.19c0.287,1.089,0.432,2.453,0.432,4.094v0.454c-0.038,2.51-0.36,4.326-0.967,5.449
			s-1.782,1.685-3.53,1.685h-4.424L1172.89,50.908L1172.89,50.908z M1176.713,52.827h-1.641v9.155h1.963
			c0.674,0,1.125-0.073,1.354-0.22c0.229-0.146,0.389-0.317,0.477-0.513c0.272-0.615,0.41-1.824,0.41-3.625
			c0-1.803-0.091-2.947-0.271-3.436c-0.182-0.488-0.423-0.837-0.726-1.047S1177.455,52.827,1176.713,52.827z M1177.431,63.74h-2.357
			v11.074h2.313c0.713,0,1.235-0.234,1.567-0.703c0.332-0.469,0.526-1.201,0.586-2.197s0.088-1.846,0.088-2.549v-1.216
			c0-1.445-0.149-2.542-0.446-3.288C1178.883,64.113,1178.3,63.74,1177.431,63.74z"/>
		<path fill="#3A3B3B" d="M1187.904,72.412c0,1.689,0.742,2.534,2.227,2.534c0.724,0,1.301-0.241,1.736-0.726
			c0.434-0.482,0.65-1.14,0.65-1.97l-0.015-17.534h2.197v21.973h-2.183v-2.197c-0.187,0.664-0.584,1.245-1.194,1.743
			s-1.315,0.747-2.116,0.747s-1.582-0.33-2.344-0.988c-0.762-0.66-1.143-1.819-1.143-3.479V54.717h2.183L1187.904,72.412
			L1187.904,72.412z"/>
		<path fill="#3A3B3B" d="M1198.803,59.404c0-1.621,0.39-2.852,1.164-3.691c0.777-0.84,1.85-1.26,3.216-1.26
			c1.367,0,2.368,0.542,3.003,1.626c0.636,1.084,0.952,2.891,0.952,5.42v1.172h-2.271v-1.567c0-1.553-0.135-2.715-0.402-3.486
			c-0.27-0.771-0.738-1.157-1.406-1.157c-0.67,0-1.178,0.223-1.522,0.667c-0.349,0.444-0.521,1.213-0.521,2.307
			c0,0.029,0,0.059,0,0.088c0,1.709,0.796,3.335,2.389,4.878l1.128,1.099c1.942,1.943,2.915,4.087,2.915,6.431
			c0,1.562-0.337,2.796-1.011,3.698c-0.675,0.904-1.733,1.355-3.18,1.355c-1.445,0-2.526-0.498-3.244-1.494
			c-0.719-0.996-1.076-2.583-1.076-4.761v-1.89h2.24v1.509c0,3.096,0.674,4.644,2.021,4.644c0.723,0,1.234-0.234,1.538-0.703
			c0.303-0.469,0.454-1.299,0.454-2.49c0-1.768-0.763-3.428-2.285-4.98l-1.157-1.172
			C1199.784,63.652,1198.803,61.572,1198.803,59.404z"/>
		<path fill="#3A3B3B" d="M1211.386,50.586h2.184v2.109h-2.184V50.586z M1211.386,54.717h2.197V76.69h-2.197V54.717z"/>
		<path fill="#3A3B3B" d="M1220.482,56.87c0.194-0.654,0.627-1.224,1.297-1.706c0.668-0.484,1.457-0.726,2.365-0.726
			c0.907,0,1.654,0.376,2.24,1.128s0.879,1.88,0.879,3.384v17.739h-2.183V58.774c0-0.85-0.193-1.462-0.578-1.839
			c-0.387-0.375-0.901-0.563-1.546-0.563c-1.65,0-2.476,0.815-2.476,2.446v17.871h-2.184V54.717h2.184L1220.482,56.87
			L1220.482,56.87z"/>
		<path fill="#3A3B3B" d="M1231.337,61.836c0-2.559,0.234-4.316,0.703-5.273c0.488-0.957,1.143-1.577,1.963-1.86
			c0.488-0.166,1.052-0.249,1.692-0.249c0.639,0,1.192,0.078,1.662,0.234c0.713,0.234,1.312,0.874,1.802,1.919
			c0.352,0.732,0.526,2.534,0.526,5.405v3.662h-6.166v4.424c0,2.266,0.168,3.654,0.506,4.168c0.336,0.512,0.834,0.769,1.494,0.769
			c0.657,0,1.121-0.205,1.391-0.615c0.269-0.41,0.435-0.939,0.498-1.589c0.062-0.65,0.096-1.531,0.096-2.645v-1.641h2.124v0.718
			c0,2.168-0.073,3.652-0.22,4.453c-0.371,2.158-1.577,3.237-3.618,3.237c-1.777,0-2.959-0.547-3.545-1.641
			c-0.4-0.723-0.651-1.548-0.755-2.476c-0.103-0.928-0.153-2.139-0.153-3.633V61.836z M1237.504,63.843v-2.944
			c0-1.65-0.062-2.729-0.189-3.237c-0.215-0.859-0.752-1.289-1.611-1.289c-1.152,0-1.836,0.757-2.051,2.271
			c-0.088,0.615-0.132,1.367-0.132,2.256c0,0.088,0,0.176,0,0.264v2.681h3.983V63.843z"/>
		<path fill="#3A3B3B" d="M1243.188,59.404c0-1.621,0.39-2.852,1.164-3.691c0.777-0.84,1.85-1.26,3.217-1.26
			c1.366,0,2.367,0.542,3.003,1.626c0.635,1.084,0.952,2.891,0.952,5.42v1.172h-2.271v-1.567c0-1.553-0.135-2.715-0.402-3.486
			c-0.27-0.771-0.737-1.157-1.405-1.157c-0.671,0-1.179,0.223-1.523,0.667c-0.348,0.444-0.521,1.213-0.521,2.307
			c0,0.029,0,0.059,0,0.088c0,1.709,0.796,3.335,2.388,4.878l1.128,1.099c1.943,1.943,2.915,4.087,2.915,6.431
			c0,1.562-0.337,2.796-1.011,3.698c-0.674,0.904-1.733,1.355-3.18,1.355c-1.445,0-2.526-0.498-3.243-1.494
			c-0.72-0.996-1.077-2.583-1.077-4.761v-1.89h2.24v1.509c0,3.096,0.675,4.644,2.021,4.644c0.723,0,1.235-0.234,1.538-0.703
			c0.303-0.469,0.454-1.299,0.454-2.49c0-1.768-0.762-3.428-2.285-4.98l-1.157-1.172
			C1244.169,63.652,1243.188,61.572,1243.188,59.404z"/>
		<path fill="#3A3B3B" d="M1255.155,59.404c0-1.621,0.388-2.852,1.165-3.691c0.774-0.84,1.848-1.26,3.215-1.26
			s2.368,0.542,3.003,1.626s0.952,2.891,0.952,5.42v1.172h-2.271v-1.567c0-1.553-0.135-2.715-0.402-3.486
			c-0.269-0.771-0.737-1.157-1.406-1.157s-1.177,0.223-1.523,0.667c-0.346,0.444-0.52,1.213-0.52,2.307c0,0.029,0,0.059,0,0.088
			c0,1.709,0.796,3.335,2.388,4.878l1.128,1.099c1.943,1.943,2.915,4.087,2.915,6.431c0,1.562-0.337,2.796-1.011,3.698
			c-0.674,0.904-1.732,1.355-3.179,1.355s-2.526-0.498-3.245-1.494c-0.717-0.996-1.076-2.583-1.076-4.761v-1.89h2.241v1.509
			c0,3.096,0.674,4.644,2.021,4.644c0.724,0,1.235-0.234,1.538-0.703c0.304-0.469,0.454-1.299,0.454-2.49
			c0-1.768-0.762-3.428-2.285-4.98l-1.156-1.172C1256.137,63.652,1255.155,61.572,1255.155,59.404z"/>
	</g>
	<g>
		<path fill="#3A3B3B" d="M1202.121,109.908h4.482c1.055,0,1.887,0.197,2.496,0.594c0.61,0.395,1.02,0.837,1.225,1.325
			c0.352,0.879,0.562,1.733,0.637,2.563s0.109,1.831,0.109,3.003v0.264c0,2.236-0.14,3.813-0.417,4.731
			c-0.278,0.918-0.594,1.577-0.944,1.978c-0.714,0.82-1.793,1.23-3.238,1.23h-2.168v10.093h-2.182V109.908z M1208.889,117.687
			v-0.688c0-1.895-0.145-3.247-0.433-4.058s-0.867-1.216-1.735-1.216h-2.418v12.026h2.314c0.897,0,1.502-0.427,1.81-1.282
			C1208.734,121.615,1208.889,120.021,1208.889,117.687z"/>
		<path fill="#3A3B3B" d="M1214.469,109.908h3.767c1.542,0,2.663,0.264,3.36,0.791c0.698,0.527,1.135,1.455,1.312,2.783
			c0.078,0.586,0.122,1.318,0.133,2.197v0.337c0,1.67-0.108,2.944-0.322,3.823c-0.216,0.879-0.66,1.538-1.334,1.978
			c0.763,0.371,1.287,1.102,1.575,2.19c0.288,1.088,0.433,2.453,0.433,4.094v0.454c-0.04,2.51-0.361,4.326-0.967,5.449
			s-1.783,1.685-3.531,1.685h-4.424L1214.469,109.908L1214.469,109.908z M1218.293,111.827h-1.641v9.155h1.963
			c0.674,0,1.125-0.073,1.354-0.22c0.229-0.147,0.389-0.317,0.477-0.513c0.272-0.615,0.41-1.824,0.41-3.625
			c0-1.803-0.091-2.947-0.271-3.436s-0.423-0.837-0.726-1.047C1219.555,111.931,1219.034,111.827,1218.293,111.827z M1219.01,122.74
			h-2.356v11.074h2.313c0.712,0,1.234-0.234,1.566-0.703c0.332-0.469,0.526-1.201,0.586-2.197c0.059-0.996,0.088-1.846,0.088-2.549
			v-1.216c0-1.445-0.148-2.542-0.446-3.288C1220.463,123.113,1219.879,122.74,1219.01,122.74z"/>
		<path fill="#3A3B3B" d="M1231.812,123.194l3.209,12.495h-1.949l-2.578-9.961l-2.504,9.961h-1.816l3.412-13.462l-3.193-12.319
			h2.009l2.475,9.653l2.373-9.653h1.816L1231.812,123.194z"/>
	</g>
	<g>
		<path fill="#383938" d="M1353.854,8.479v308.417H8.783V8.479H1353.854 M1354.785,7.946H7.853V317.43h1346.933L1354.785,7.946
			L1354.785,7.946z"/>
	</g>
	<line fill="none" stroke="#3A3B3B" stroke-miterlimit="10" x1="40.02" y1="92.646" x2="1312.922" y2="92.646"/>
	<g>
		<path fill="#3A3B3B" d="M94.155,198.115c0-3.115,0.391-5.148,1.172-6.102c0.781-0.951,1.982-1.429,3.604-1.429
			s2.739,0.526,3.354,1.582c0.41,0.713,0.669,1.543,0.776,2.49c0.107,0.946,0.161,2.1,0.161,3.457v10.972
			c0,2.236-0.134,3.812-0.403,4.725c-0.269,0.914-0.569,1.564-0.901,1.955c-0.703,0.812-1.772,1.217-3.208,1.217
			c-2.139,0-3.477-0.924-4.014-2.77c-0.361-1.211-0.542-2.92-0.542-5.127L94.155,198.115L94.155,198.115z M101.04,197.939
			c0-2.051-0.149-3.491-0.447-4.321c-0.298-0.83-0.906-1.245-1.824-1.245s-1.553,0.428-1.904,1.281
			c-0.352,0.854-0.527,2.277-0.527,4.271v11.162c0,2.373,0.122,3.892,0.366,4.556s0.515,1.09,0.813,1.274
			c0.298,0.185,0.691,0.278,1.179,0.278c0.488,0,0.879-0.094,1.172-0.278s0.562-0.608,0.806-1.267
			c0.244-0.66,0.366-2.182,0.366-4.563V197.939z"/>
		<path fill="#3A3B3B" d="M115.161,190.908h1.904v25.781h-1.699l-5.933-19.424l0.146,6.973v12.451h-2.051v-25.781h1.523
			l6.328,19.938l-0.22-8.878v-11.06H115.161z"/>
		<path fill="#3A3B3B" d="M121.753,190.908h6.812v1.699h-4.629v10.078h4.351v1.771h-4.351v10.503h4.585v1.729h-6.768V190.908
			L121.753,190.908z"/>
		<path fill="#3A3B3B" d="M145.352,198.73c0-1.515-0.669-2.271-2.007-2.271c-1.123,0-1.841,0.327-2.153,0.98
			c-0.137,0.293-0.225,0.66-0.264,1.1v18.148h-2.183V198.73c0-0.84-0.173-1.429-0.52-1.767c-0.347-0.336-0.874-0.505-1.582-0.505
			s-1.272,0.212-1.692,0.639c-0.42,0.424-0.63,1.051-0.63,1.881v17.711h-2.183v-21.974h2.183v2.183
			c0.195-0.664,0.603-1.239,1.223-1.729c0.62-0.488,1.331-0.732,2.131-0.732c1.465,0,2.446,0.742,2.944,2.228
			c0.361-0.664,0.874-1.201,1.538-1.61c0.664-0.41,1.436-0.615,2.314-0.615c0.878,0,1.611,0.365,2.197,1.099
			s0.879,1.841,0.879,3.325v17.826h-2.197V198.73H145.352z"/>
	</g>
	<g>
		<path fill="#3A3B3B" d="M107.983,257.115c0-3.115,0.391-5.148,1.172-6.102c0.781-0.951,1.982-1.429,3.604-1.429
			c1.622,0,2.739,0.526,3.354,1.582c0.41,0.713,0.669,1.543,0.776,2.49c0.107,0.946,0.161,2.1,0.161,3.456v10.973
			c0,2.236-0.134,3.812-0.403,4.725c-0.269,0.914-0.569,1.564-0.901,1.955c-0.703,0.812-1.772,1.217-3.208,1.217
			c-2.139,0-3.477-0.924-4.014-2.77c-0.361-1.211-0.542-2.92-0.542-5.127L107.983,257.115L107.983,257.115z M114.868,256.939
			c0-2.051-0.149-3.491-0.447-4.321s-0.906-1.245-1.824-1.245s-1.553,0.428-1.904,1.281c-0.352,0.854-0.527,2.277-0.527,4.271
			v11.162c0,2.373,0.122,3.892,0.366,4.556c0.244,0.664,0.515,1.09,0.813,1.274c0.298,0.185,0.691,0.278,1.179,0.278
			c0.488,0,0.879-0.094,1.172-0.278s0.562-0.608,0.806-1.267c0.244-0.66,0.366-2.182,0.366-4.563V256.939z"/>
		<path fill="#3A3B3B" d="M119.6,249.908h7.28v1.699h-2.417v24.082h-2.168v-24.082H119.6V249.908z"/>
		<path fill="#3A3B3B" d="M128.052,249.908h7.28v1.699h-2.417v24.082h-2.168v-24.082h-2.695V249.908L128.052,249.908z"/>
	</g>
	<g>
		<path fill="#3A3B3B" d="M273.361,198.452c0-2.666,0.264-4.521,0.791-5.565c0.762-1.533,2.017-2.301,3.765-2.301
			c1.123,0,1.982,0.221,2.578,0.659c0.596,0.438,0.981,0.918,1.157,1.437c0.332,0.967,0.53,1.887,0.593,2.76
			c0.063,0.875,0.095,1.869,0.095,2.981v2.153h-2.227v-3.984c0-1.465-0.146-2.533-0.439-3.208c-0.293-0.674-0.876-1.011-1.75-1.011
			s-1.489,0.438-1.846,1.311c-0.356,0.875-0.535,2.387-0.535,4.534v10.519c0,2.432,0.156,4.115,0.469,5.054s0.928,1.405,1.846,1.405
			s1.533-0.473,1.846-1.42s0.469-2.617,0.469-5.01v-3.252h-2.212v-1.861h4.38v13.037h-1.436l-0.234-1.494
			c-0.361,0.605-0.786,1.056-1.274,1.349s-1.118,0.438-1.89,0.438c-1.445,0-2.498-0.631-3.157-1.896
			c-0.659-1.264-0.989-3.328-0.989-6.188V198.452L273.361,198.452z"/>
		<path fill="#3A3B3B" d="M286.764,190.57h2.197v26.119h-2.197V190.57z"/>
		<path fill="#3A3B3B" d="M293.18,201.777c0-2.539,0.239-4.287,0.718-5.244s1.128-1.572,1.948-1.846
			c0.488-0.156,1.035-0.234,1.641-0.234c2.471,0,3.857,1.343,4.16,4.027c0.107,0.918,0.161,2.018,0.161,3.297v7.367
			c0,1.729-0.037,2.848-0.11,3.354c-0.073,0.507-0.144,0.946-0.212,1.317c-0.391,2.091-1.748,3.136-4.072,3.136
			c-0.947,0-1.704-0.195-2.271-0.586c-1.074-0.742-1.694-2.104-1.86-4.087c-0.068-0.879-0.103-1.924-0.103-3.135V201.777
			L293.18,201.777z M299.625,201.266c0-2.521-0.332-4.039-0.996-4.557c-0.293-0.225-0.645-0.337-1.055-0.337
			c-1.113,0-1.777,0.62-1.992,1.86c-0.146,0.771-0.22,1.781-0.22,3.031v8.644c0,2.157,0.183,3.552,0.549,4.183
			c0.366,0.629,0.95,0.944,1.75,0.944c0.8,0,1.328-0.446,1.582-1.341c0.254-0.894,0.381-2.155,0.381-3.786L299.625,201.266
			L299.625,201.266z"/>
		<path fill="#3A3B3B" d="M306.027,190.57h2.183v6.021c0.107-0.586,0.42-1.092,0.938-1.516c0.518-0.426,1.078-0.639,1.685-0.639
			c1.748,0,2.861,0.947,3.34,2.842c0.293,1.212,0.439,2.74,0.439,4.586v7.646c0,2.511-0.19,4.251-0.571,5.224
			c-0.381,0.972-0.903,1.594-1.567,1.867c-0.371,0.155-0.811,0.238-1.317,0.248c-1.437,0-2.417-0.609-2.944-1.83v1.67h-2.183V190.57
			H306.027z M312.428,201.146c0-1.719-0.072-2.789-0.22-3.215c-0.146-0.425-0.288-0.74-0.425-0.945
			c-0.265-0.399-0.615-0.6-1.055-0.6c-0.44,0-0.768,0.028-0.981,0.088c-0.527,0.146-0.916,0.563-1.165,1.252
			s-0.374,1.838-0.374,3.449v8.774c0,1.846,0.149,3.149,0.447,3.911s0.861,1.143,1.691,1.143s1.385-0.383,1.663-1.148
			c0.279-0.767,0.417-2.099,0.417-3.992L312.428,201.146L312.428,201.146z"/>
		<path fill="#3A3B3B" d="M318.888,201.294c0-1.592,0.044-2.619,0.132-3.083c0.089-0.464,0.184-0.869,0.286-1.217
			c0.104-0.346,0.226-0.633,0.366-0.855c0.141-0.225,0.317-0.455,0.527-0.688c0.21-0.234,0.452-0.418,0.725-0.55
			c0.273-0.133,0.593-0.238,0.959-0.321s0.774-0.125,1.224-0.125c0.448,0,0.854,0.039,1.216,0.116
			c0.361,0.078,0.679,0.166,0.952,0.265c0.272,0.099,0.51,0.271,0.71,0.521c0.199,0.25,0.368,0.467,0.505,0.651
			c0.469,0.636,0.703,2.437,0.703,5.405v15.277h-2.184v-1.641c-0.127,0.391-0.441,0.789-0.944,1.193
			c-0.504,0.406-1.15,0.607-1.941,0.607c-1.152,0-2.024-0.484-2.615-1.457c-0.591-0.972-0.886-2.381-0.886-4.227v-2.812
			c0-1.006,0.242-1.787,0.725-2.344c0.483-0.557,0.901-0.947,1.252-1.172c0.929-0.586,1.86-1.076,2.799-1.472
			c0.938-0.396,1.475-0.623,1.61-0.683v-2.461c0-1.416-0.054-2.25-0.161-2.505c-0.106-0.254-0.194-0.459-0.264-0.614
			c-0.215-0.488-0.732-0.732-1.553-0.732c-0.821,0-1.351,0.345-1.589,1.031c-0.239,0.689-0.359,2-0.359,3.935v0.542h-2.197v-0.585
			H318.888z M325.011,204.43c-1.61,0.731-2.542,1.19-2.791,1.377c-0.249,0.186-0.471,0.375-0.667,0.57
			c-0.508,0.508-0.762,1.46-0.762,2.855v1.744c0,1.514,0.117,2.567,0.352,3.164c0.235,0.596,0.654,0.894,1.261,0.894
			c0.605,0,1.143-0.151,1.61-0.454c0.469-0.303,0.802-0.63,0.996-0.98L325.011,204.43L325.011,204.43z"/>
		<path fill="#3A3B3B" d="M331.662,190.57h2.197v26.119h-2.197V190.57z"/>
	</g>
	<g>
		<path fill="#3A3B3B" d="M273.361,257.452c0-2.666,0.264-4.521,0.791-5.566c0.762-1.532,2.017-2.3,3.765-2.3
			c1.123,0,1.982,0.221,2.578,0.659c0.596,0.438,0.981,0.918,1.157,1.437c0.332,0.967,0.53,1.887,0.593,2.76
			c0.063,0.875,0.095,1.869,0.095,2.981v2.153h-2.227v-3.984c0-1.465-0.146-2.533-0.439-3.208c-0.293-0.674-0.876-1.011-1.75-1.011
			s-1.489,0.438-1.846,1.311c-0.356,0.875-0.535,2.387-0.535,4.534v10.519c0,2.432,0.156,4.115,0.469,5.054s0.928,1.405,1.846,1.405
			s1.533-0.473,1.846-1.42s0.469-2.617,0.469-5.01v-3.252h-2.212v-1.861h4.38v13.037h-1.436l-0.234-1.494
			c-0.361,0.605-0.786,1.056-1.274,1.349s-1.118,0.438-1.89,0.438c-1.445,0-2.498-0.631-3.157-1.896
			c-0.659-1.265-0.989-3.328-0.989-6.188V257.452L273.361,257.452z"/>
		<path fill="#3A3B3B" d="M286.764,249.57h2.197v26.119h-2.197V249.57z"/>
		<path fill="#3A3B3B" d="M293.18,260.777c0-2.539,0.239-4.287,0.718-5.244s1.128-1.572,1.948-1.846
			c0.488-0.156,1.035-0.234,1.641-0.234c2.471,0,3.857,1.343,4.16,4.027c0.107,0.918,0.161,2.018,0.161,3.297v7.367
			c0,1.729-0.037,2.848-0.11,3.354c-0.073,0.507-0.144,0.946-0.212,1.317c-0.391,2.091-1.748,3.136-4.072,3.136
			c-0.947,0-1.704-0.195-2.271-0.586c-1.074-0.742-1.694-2.104-1.86-4.087c-0.068-0.879-0.103-1.924-0.103-3.135V260.777
			L293.18,260.777z M299.625,260.266c0-2.521-0.332-4.039-0.996-4.557c-0.293-0.225-0.645-0.337-1.055-0.337
			c-1.113,0-1.777,0.62-1.992,1.86c-0.146,0.771-0.22,1.781-0.22,3.031v8.644c0,2.157,0.183,3.552,0.549,4.183
			c0.366,0.629,0.95,0.944,1.75,0.944c0.8,0,1.328-0.446,1.582-1.341c0.254-0.894,0.381-2.155,0.381-3.786L299.625,260.266
			L299.625,260.266z"/>
		<path fill="#3A3B3B" d="M306.027,249.57h2.183v6.021c0.107-0.586,0.42-1.092,0.938-1.516c0.518-0.426,1.078-0.639,1.685-0.639
			c1.748,0,2.861,0.947,3.34,2.843c0.293,1.211,0.439,2.739,0.439,4.585v7.646c0,2.51-0.19,4.25-0.571,5.223
			c-0.381,0.972-0.903,1.594-1.567,1.867c-0.371,0.155-0.811,0.238-1.317,0.248c-1.437,0-2.417-0.609-2.944-1.83v1.67h-2.183V249.57
			H306.027z M312.428,260.146c0-1.719-0.072-2.789-0.22-3.215c-0.146-0.425-0.288-0.74-0.425-0.945
			c-0.265-0.399-0.615-0.601-1.055-0.601c-0.44,0-0.768,0.029-0.981,0.089c-0.527,0.146-0.916,0.563-1.165,1.252
			s-0.374,1.838-0.374,3.449v8.774c0,1.846,0.149,3.149,0.447,3.911s0.861,1.143,1.691,1.143s1.385-0.383,1.663-1.148
			c0.279-0.767,0.417-2.099,0.417-3.992L312.428,260.146L312.428,260.146z"/>
		<path fill="#3A3B3B" d="M318.888,260.294c0-1.592,0.044-2.619,0.132-3.083c0.089-0.464,0.184-0.869,0.286-1.217
			c0.104-0.346,0.226-0.633,0.366-0.855c0.141-0.225,0.317-0.455,0.527-0.688c0.21-0.234,0.452-0.418,0.725-0.55
			c0.273-0.133,0.593-0.238,0.959-0.321s0.774-0.125,1.224-0.125c0.448,0,0.854,0.039,1.216,0.116
			c0.361,0.078,0.679,0.166,0.952,0.265c0.272,0.099,0.51,0.271,0.71,0.521c0.199,0.25,0.368,0.467,0.505,0.651
			c0.469,0.636,0.703,2.437,0.703,5.405v15.277h-2.184v-1.641c-0.127,0.391-0.441,0.789-0.944,1.193
			c-0.504,0.406-1.15,0.607-1.941,0.607c-1.152,0-2.024-0.484-2.615-1.457c-0.591-0.972-0.886-2.381-0.886-4.227v-2.812
			c0-1.006,0.242-1.787,0.725-2.344c0.483-0.557,0.901-0.947,1.252-1.172c0.929-0.586,1.86-1.077,2.799-1.472
			c0.938-0.396,1.475-0.623,1.61-0.683v-2.461c0-1.416-0.054-2.25-0.161-2.505c-0.106-0.254-0.194-0.459-0.264-0.614
			c-0.215-0.488-0.732-0.732-1.553-0.732c-0.821,0-1.351,0.345-1.589,1.031c-0.239,0.689-0.359,2-0.359,3.935v0.542h-2.197v-0.585
			H318.888z M325.011,263.43c-1.61,0.731-2.542,1.19-2.791,1.377c-0.249,0.186-0.471,0.375-0.667,0.57
			c-0.508,0.508-0.762,1.46-0.762,2.855v1.744c0,1.514,0.117,2.567,0.352,3.164c0.235,0.596,0.654,0.894,1.261,0.894
			c0.605,0,1.143-0.151,1.61-0.454c0.469-0.303,0.802-0.63,0.996-0.98L325.011,263.43L325.011,263.43z"/>
		<path fill="#3A3B3B" d="M331.662,249.57h2.197v26.119h-2.197V249.57z"/>
	</g>
	<g>
		<path fill="#3A3B3B" d="M435.34,190.908h4.482c1.055,0,1.887,0.197,2.498,0.594c0.609,0.395,1.018,0.837,1.223,1.325
			c0.352,0.879,0.564,1.733,0.637,2.563c0.073,0.83,0.11,1.83,0.11,3.002v0.265c0,2.235-0.139,3.813-0.417,4.731
			s-0.593,1.576-0.945,1.978c-0.713,0.819-1.792,1.229-3.236,1.229h-2.168v10.094h-2.184V190.908L435.34,190.908z M442.107,198.688
			v-0.688c0-1.896-0.145-3.247-0.433-4.058c-0.288-0.812-0.867-1.217-1.735-1.217h-2.417v12.026h2.313
			c0.898,0,1.501-0.427,1.809-1.282C441.954,202.615,442.107,201.021,442.107,198.688z"/>
		<path fill="#3A3B3B" d="M447.073,197.604c0-2.451,0.337-4.229,1.011-5.332c0.674-1.104,1.707-1.655,3.098-1.655
			c1.392,0,2.378,0.545,2.959,1.633c0.581,1.09,0.872,2.89,0.872,5.397c0,2.51-0.565,5.021-1.698,7.529
			c-0.488,1.084-0.996,2.129-1.523,3.135c-1.328,2.607-2.153,4.811-2.476,6.606h5.347v1.772h-7.544v-1.349c0-0.01,0-0.021,0-0.028
			c0-1.172,0.688-3.188,2.064-6.051c0.566-1.191,1.144-2.422,1.729-3.691c1.387-3.057,2.08-5.603,2.08-7.639
			c0-2.035-0.146-3.459-0.439-4.271s-0.764-1.216-1.414-1.216c-0.649,0-1.121,0.412-1.414,1.236
			c-0.293,0.826-0.438,2.151-0.438,3.979v3.428h-2.212L447.073,197.604L447.073,197.604z"/>
		<path fill="#3A3B3B" d="M458.616,190.908h4.481c1.056,0,1.888,0.197,2.498,0.594c0.61,0.395,1.019,0.837,1.224,1.325
			c0.352,0.879,0.563,1.733,0.637,2.563s0.11,1.83,0.11,3.002v0.265c0,2.235-0.14,3.813-0.417,4.731
			c-0.278,0.918-0.594,1.576-0.945,1.978c-0.713,0.819-1.792,1.229-3.237,1.229h-2.168v10.094h-2.183V190.908L458.616,190.908z
			 M465.384,198.688v-0.688c0-1.896-0.144-3.247-0.432-4.058c-0.288-0.812-0.867-1.217-1.736-1.217h-2.417v12.026h2.314
			c0.897,0,1.501-0.427,1.809-1.282C465.23,202.615,465.384,201.021,465.384,198.688z"/>
		<path fill="#3A3B3B" d="M476.502,190.791h1.979l-6.606,25.898h-1.963L476.502,190.791z"/>
		<path fill="#3A3B3B" d="M481.468,198.452c0-2.666,0.265-4.521,0.791-5.565c0.762-1.533,2.018-2.301,3.766-2.301
			c1.122,0,1.981,0.221,2.577,0.659c0.597,0.438,0.981,0.918,1.157,1.437c0.332,0.967,0.53,1.887,0.593,2.76
			c0.063,0.875,0.096,1.869,0.096,2.981v2.153h-2.228v-3.984c0-1.465-0.146-2.533-0.438-3.208c-0.293-0.674-0.876-1.011-1.75-1.011
			s-1.489,0.438-1.847,1.311c-0.355,0.875-0.534,2.387-0.534,4.534v10.519c0,2.432,0.155,4.115,0.469,5.054
			c0.312,0.938,0.928,1.405,1.846,1.405s1.533-0.473,1.846-1.42c0.313-0.947,0.47-2.617,0.47-5.01v-3.252h-2.212v-1.861h4.38v13.037
			h-1.437l-0.233-1.494c-0.361,0.605-0.786,1.056-1.274,1.349s-1.118,0.438-1.89,0.438c-1.445,0-2.498-0.631-3.157-1.896
			c-0.659-1.264-0.989-3.328-0.989-6.188V198.452L481.468,198.452z"/>
		<path fill="#3A3B3B" d="M500.804,194.453c0.039,0,0.06,0.156,0.06,0.469s-0.005,0.625-0.016,0.938v0.455
			c-0.771,0-1.453,0.152-2.043,0.461c-0.591,0.308-1.169,0.861-1.735,1.662v18.252h-2.184v-21.973h2.184v2.446
			c0.254-0.858,0.7-1.524,1.34-1.999C499.048,194.689,499.847,194.453,500.804,194.453z"/>
		<path fill="#3A3B3B" d="M503.44,201.777c0-2.539,0.238-4.287,0.718-5.244c0.479-0.957,1.128-1.572,1.948-1.846
			c0.487-0.156,1.034-0.234,1.641-0.234c2.471,0,3.856,1.343,4.16,4.027c0.106,0.918,0.161,2.018,0.161,3.297v7.367
			c0,1.729-0.037,2.848-0.11,3.354s-0.144,0.946-0.212,1.317c-0.391,2.091-1.748,3.136-4.072,3.136
			c-0.947,0-1.704-0.195-2.271-0.586c-1.074-0.742-1.694-2.104-1.86-4.087c-0.068-0.879-0.103-1.924-0.103-3.135V201.777
			L503.44,201.777z M509.886,201.266c0-2.521-0.332-4.039-0.996-4.557c-0.293-0.225-0.645-0.337-1.055-0.337
			c-1.113,0-1.777,0.62-1.992,1.86c-0.146,0.771-0.22,1.781-0.22,3.031v8.644c0,2.157,0.183,3.552,0.549,4.183
			c0.366,0.629,0.95,0.944,1.75,0.944s1.328-0.446,1.582-1.341c0.254-0.894,0.381-2.155,0.381-3.786L509.886,201.266
			L509.886,201.266z"/>
		<path fill="#3A3B3B" d="M518.338,212.412c0,1.689,0.742,2.533,2.228,2.533c0.723,0,1.301-0.24,1.735-0.725
			c0.436-0.482,0.652-1.141,0.652-1.971l-0.016-17.534h2.197v21.974h-2.183v-2.197c-0.187,0.664-0.583,1.244-1.194,1.742
			c-0.61,0.498-1.315,0.748-2.117,0.748c-0.801,0-1.582-0.33-2.344-0.988c-0.762-0.66-1.143-1.819-1.143-3.479v-17.799h2.183
			L518.338,212.412L518.338,212.412z"/>
		<path fill="#3A3B3B" d="M532.005,196.4c0.519-1.229,1.489-1.846,2.915-1.846c0.996,0,1.746,0.329,2.249,0.989
			c0.503,0.658,0.833,1.508,0.989,2.549c0.156,1.039,0.233,2.292,0.233,3.757v7.881c0,0.029,0,0.063,0,0.104
			c0,2.764-0.36,4.643-1.084,5.633c-0.723,0.991-1.709,1.486-2.959,1.486c-0.497,0-0.964-0.18-1.398-0.535
			c-0.436-0.355-0.75-0.793-0.945-1.311v5.463h-2.183v-25.854h2.183V196.4L532.005,196.4z M536.209,201.146
			c0-1.719-0.071-2.789-0.212-3.215c-0.142-0.425-0.31-0.789-0.505-1.092s-0.519-0.453-0.967-0.453
			c-0.449,0-0.781,0.028-0.996,0.088c-0.527,0.146-0.913,0.568-1.157,1.268s-0.366,1.843-0.366,3.435v8.73
			c0,1.864,0.149,3.182,0.447,3.948c0.298,0.766,0.862,1.148,1.692,1.148c0.829,0,1.382-0.381,1.654-1.143
			c0.273-0.762,0.41-2.104,0.41-4.028L536.209,201.146L536.209,201.146z"/>
	</g>
	<g>
		<path fill="#3A3B3B" d="M435.34,249.908h4.482c1.055,0,1.887,0.197,2.498,0.594c0.609,0.395,1.018,0.837,1.223,1.325
			c0.352,0.879,0.564,1.733,0.637,2.563c0.073,0.829,0.11,1.83,0.11,3.002v0.265c0,2.235-0.139,3.812-0.417,4.731
			c-0.278,0.918-0.593,1.576-0.945,1.978c-0.713,0.819-1.792,1.229-3.236,1.229h-2.168v10.094h-2.184V249.908L435.34,249.908z
			 M442.107,257.688v-0.688c0-1.896-0.145-3.247-0.433-4.058c-0.288-0.812-0.867-1.217-1.735-1.217h-2.417v12.026h2.313
			c0.898,0,1.501-0.427,1.809-1.282C441.954,261.615,442.107,260.021,442.107,257.688z"/>
		<path fill="#3A3B3B" d="M447.073,256.604c0-2.451,0.337-4.229,1.011-5.332c0.674-1.104,1.707-1.655,3.098-1.655
			c1.392,0,2.378,0.545,2.959,1.633c0.581,1.09,0.872,2.89,0.872,5.397c0,2.51-0.565,5.021-1.698,7.529
			c-0.488,1.084-0.996,2.129-1.523,3.135c-1.328,2.607-2.153,4.811-2.476,6.606h5.347v1.772h-7.544v-1.349c0-0.01,0-0.021,0-0.028
			c0-1.172,0.688-3.188,2.064-6.051c0.566-1.191,1.144-2.422,1.729-3.691c1.387-3.057,2.08-5.603,2.08-7.639
			c0-2.035-0.146-3.459-0.439-4.271s-0.764-1.216-1.414-1.216c-0.649,0-1.121,0.412-1.414,1.236
			c-0.293,0.826-0.438,2.151-0.438,3.979v3.428h-2.212L447.073,256.604L447.073,256.604z"/>
		<path fill="#3A3B3B" d="M458.616,249.908h4.481c1.056,0,1.888,0.197,2.498,0.594c0.61,0.395,1.019,0.837,1.224,1.325
			c0.352,0.879,0.563,1.733,0.637,2.563c0.073,0.829,0.11,1.83,0.11,3.002v0.265c0,2.235-0.14,3.812-0.417,4.731
			c-0.278,0.918-0.594,1.576-0.945,1.978c-0.713,0.819-1.792,1.229-3.237,1.229h-2.168v10.094h-2.183V249.908L458.616,249.908z
			 M465.384,257.688v-0.688c0-1.896-0.144-3.247-0.432-4.058c-0.288-0.812-0.867-1.217-1.736-1.217h-2.417v12.026h2.314
			c0.897,0,1.501-0.427,1.809-1.282C465.23,261.615,465.384,260.021,465.384,257.688z"/>
		<path fill="#3A3B3B" d="M476.502,249.791h1.979l-6.606,25.898h-1.963L476.502,249.791z"/>
		<path fill="#3A3B3B" d="M481.468,257.452c0-2.666,0.265-4.521,0.791-5.566c0.762-1.532,2.018-2.3,3.766-2.3
			c1.122,0,1.981,0.221,2.577,0.659c0.597,0.438,0.981,0.918,1.157,1.437c0.332,0.967,0.53,1.887,0.593,2.76
			c0.063,0.875,0.096,1.869,0.096,2.981v2.153h-2.228v-3.984c0-1.465-0.146-2.533-0.438-3.208c-0.293-0.674-0.876-1.011-1.75-1.011
			s-1.489,0.438-1.847,1.311c-0.355,0.875-0.534,2.387-0.534,4.534v10.519c0,2.432,0.155,4.115,0.469,5.054
			c0.312,0.938,0.928,1.405,1.846,1.405s1.533-0.473,1.846-1.42c0.313-0.947,0.47-2.617,0.47-5.01v-3.252h-2.212v-1.861h4.38v13.037
			h-1.437l-0.233-1.494c-0.361,0.605-0.786,1.056-1.274,1.349s-1.118,0.438-1.89,0.438c-1.445,0-2.498-0.631-3.157-1.896
			s-0.989-3.328-0.989-6.188V257.452L481.468,257.452z"/>
		<path fill="#3A3B3B" d="M500.804,253.453c0.039,0,0.06,0.156,0.06,0.469s-0.005,0.625-0.016,0.938v0.455
			c-0.771,0-1.453,0.152-2.043,0.461c-0.591,0.308-1.169,0.861-1.735,1.662v18.252h-2.184v-21.973h2.184v2.446
			c0.254-0.858,0.7-1.524,1.34-1.999C499.048,253.689,499.847,253.453,500.804,253.453z"/>
		<path fill="#3A3B3B" d="M503.44,260.777c0-2.539,0.238-4.287,0.718-5.244c0.479-0.957,1.128-1.572,1.948-1.846
			c0.487-0.156,1.034-0.234,1.641-0.234c2.471,0,3.856,1.343,4.16,4.027c0.106,0.918,0.161,2.018,0.161,3.297v7.367
			c0,1.729-0.037,2.848-0.11,3.354s-0.144,0.946-0.212,1.317c-0.391,2.091-1.748,3.136-4.072,3.136
			c-0.947,0-1.704-0.195-2.271-0.586c-1.074-0.742-1.694-2.104-1.86-4.087c-0.068-0.879-0.103-1.924-0.103-3.135V260.777
			L503.44,260.777z M509.886,260.266c0-2.521-0.332-4.039-0.996-4.557c-0.293-0.225-0.645-0.337-1.055-0.337
			c-1.113,0-1.777,0.62-1.992,1.86c-0.146,0.771-0.22,1.781-0.22,3.031v8.644c0,2.157,0.183,3.552,0.549,4.183
			c0.366,0.629,0.95,0.944,1.75,0.944s1.328-0.446,1.582-1.341c0.254-0.894,0.381-2.155,0.381-3.786L509.886,260.266
			L509.886,260.266z"/>
		<path fill="#3A3B3B" d="M518.338,271.412c0,1.689,0.742,2.533,2.228,2.533c0.723,0,1.301-0.24,1.735-0.726
			c0.436-0.481,0.652-1.14,0.652-1.97l-0.016-17.534h2.197v21.974h-2.183v-2.197c-0.187,0.664-0.583,1.244-1.194,1.742
			c-0.61,0.498-1.315,0.748-2.117,0.748c-0.801,0-1.582-0.33-2.344-0.988c-0.762-0.66-1.143-1.819-1.143-3.479v-17.799h2.183
			L518.338,271.412L518.338,271.412z"/>
		<path fill="#3A3B3B" d="M532.005,255.4c0.519-1.229,1.489-1.846,2.915-1.846c0.996,0,1.746,0.329,2.249,0.989
			c0.503,0.658,0.833,1.508,0.989,2.549c0.156,1.039,0.233,2.292,0.233,3.757v7.881c0,0.029,0,0.063,0,0.104
			c0,2.764-0.36,4.643-1.084,5.633c-0.723,0.991-1.709,1.486-2.959,1.486c-0.497,0-0.964-0.18-1.398-0.535
			c-0.436-0.355-0.75-0.793-0.945-1.311v5.463h-2.183v-25.854h2.183V255.4L532.005,255.4z M536.209,260.146
			c0-1.719-0.071-2.789-0.212-3.215c-0.142-0.425-0.31-0.789-0.505-1.092s-0.519-0.454-0.967-0.454
			c-0.449,0-0.781,0.029-0.996,0.089c-0.527,0.146-0.913,0.568-1.157,1.268s-0.366,1.843-0.366,3.435v8.73
			c0,1.864,0.149,3.182,0.447,3.948c0.298,0.766,0.862,1.148,1.692,1.148c0.829,0,1.382-0.381,1.654-1.143
			c0.273-0.762,0.41-2.104,0.41-4.028L536.209,260.146L536.209,260.146z"/>
	</g>
	<g>
		<path fill="#3A3B3B" d="M625.759,194.863c0.146-1.396,0.56-2.459,1.238-3.187s1.741-1.092,3.186-1.092
			c1.445,0,2.451,0.36,3.019,1.084c0.312,0.392,0.557,0.781,0.731,1.172c0.371,0.791,0.562,2.677,0.571,5.654v1.45h-2.241v-1.611
			c0-2.266-0.073-3.639-0.22-4.116c-0.147-0.478-0.298-0.84-0.454-1.084c-0.283-0.448-0.791-0.674-1.522-0.674
			c-1.484,0-2.228,1.382-2.228,4.146c0,0.968,0.093,1.625,0.278,1.971c0.186,0.348,0.325,0.617,0.417,0.812s0.715,0.869,1.868,2.021
			l1.405,1.421c2.08,2.14,3.12,4.592,3.12,7.36s-0.397,4.593-1.193,5.472c-0.797,0.879-1.976,1.317-3.538,1.317
			c-2.402,0-3.784-1.449-4.146-4.351c-0.127-0.978-0.189-2.178-0.189-3.604v-2.68h2.227v2.637c0,2.324,0.154,3.926,0.461,4.805
			s0.935,1.318,1.882,1.318s1.55-0.285,1.81-0.857c0.259-0.57,0.399-1.262,0.425-2.072c0.024-0.81,0.037-1.68,0.037-2.607
			c0-1.914-0.757-3.607-2.271-5.082l-1.494-1.422c-1.309-1.278-2.183-2.354-2.622-3.229c-0.438-0.873-0.658-1.762-0.658-2.666
			C625.656,196.268,625.69,195.498,625.759,194.863z"/>
		<path fill="#3A3B3B" d="M648.729,190.908h2.445v25.781h-1.978v-11.045l0.337-10.387l-3.678,20.874h-2.079l-3.81-20.874
			l0.337,10.387v11.045h-1.992v-25.781h2.446l4.058,21.65L648.729,190.908z"/>
		<path fill="#3A3B3B" d="M655.861,190.908h2.183v24.053h4.57v1.729h-6.753V190.908z"/>
		<path fill="#3A3B3B" d="M670.759,190.791h1.979l-6.606,25.898h-1.963L670.759,190.791z"/>
		<path fill="#3A3B3B" d="M675.197,194.863c0.146-1.396,0.559-2.459,1.237-3.187c0.68-0.728,1.741-1.092,3.187-1.092
			s2.451,0.36,3.018,1.084c0.312,0.392,0.558,0.781,0.732,1.172c0.371,0.791,0.562,2.677,0.571,5.654v1.45h-2.241v-1.611
			c0-2.266-0.073-3.639-0.221-4.116c-0.146-0.478-0.298-0.84-0.453-1.084c-0.283-0.448-0.791-0.674-1.523-0.674
			c-1.484,0-2.227,1.382-2.227,4.146c0,0.968,0.093,1.625,0.277,1.971c0.187,0.348,0.325,0.617,0.417,0.812
			c0.093,0.195,0.716,0.869,1.868,2.021l1.406,1.421c2.08,2.14,3.12,4.592,3.12,7.36s-0.398,4.593-1.193,5.472
			c-0.797,0.879-1.976,1.317-3.538,1.317c-2.401,0-3.784-1.449-4.146-4.351c-0.127-0.978-0.19-2.178-0.19-3.604v-2.68h2.228v2.637
			c0,2.324,0.153,3.926,0.461,4.805c0.307,0.879,0.935,1.318,1.882,1.318s1.55-0.285,1.81-0.857c0.258-0.57,0.399-1.262,0.424-2.072
			c0.025-0.81,0.037-1.68,0.037-2.607c0-1.914-0.757-3.607-2.271-5.082l-1.494-1.422c-1.309-1.278-2.183-2.354-2.622-3.229
			c-0.439-0.873-0.659-1.762-0.659-2.666C675.095,196.268,675.129,195.498,675.197,194.863z"/>
		<path fill="#3A3B3B" d="M698.166,190.908h2.446v25.781h-1.979v-11.045l0.337-10.387l-3.677,20.874h-2.08l-3.809-20.874
			l0.337,10.387v11.045h-1.992v-25.781h2.446l4.058,21.65L698.166,190.908z"/>
		<path fill="#3A3B3B" d="M704.392,194.863c0.146-1.396,0.56-2.459,1.237-3.187s1.741-1.092,3.188-1.092
			c1.445,0,2.45,0.36,3.018,1.084c0.312,0.392,0.557,0.781,0.732,1.172c0.371,0.791,0.562,2.677,0.57,5.654v1.45h-2.24v-1.611
			c0-2.266-0.073-3.639-0.221-4.116c-0.146-0.478-0.298-0.84-0.454-1.084c-0.282-0.448-0.791-0.674-1.522-0.674
			c-1.484,0-2.228,1.382-2.228,4.146c0,0.968,0.094,1.625,0.278,1.971c0.186,0.348,0.324,0.617,0.418,0.812
			c0.092,0.195,0.715,0.869,1.867,2.021l1.406,1.421c2.08,2.14,3.12,4.592,3.12,7.36s-0.398,4.593-1.194,5.472
			s-1.975,1.317-3.537,1.317c-2.402,0-3.784-1.449-4.146-4.351c-0.128-0.978-0.19-2.178-0.19-3.604v-2.68h2.227v2.637
			c0,2.324,0.154,3.926,0.461,4.805c0.31,0.879,0.937,1.318,1.884,1.318c0.946,0,1.55-0.285,1.809-0.857
			c0.259-0.57,0.4-1.262,0.426-2.072c0.023-0.811,0.036-1.68,0.036-2.607c0-1.914-0.757-3.607-2.271-5.082l-1.494-1.422
			c-1.31-1.278-2.183-2.354-2.622-3.229c-0.439-0.873-0.659-1.762-0.659-2.666C704.289,196.268,704.323,195.498,704.392,194.863z"/>
	</g>
	<g>
		<path fill="#3A3B3B" d="M627.758,249.908h2.228l4.585,25.781h-2.109l-0.85-5.229h-5.156l-0.776,5.229h-2.064L627.758,249.908z
			 M631.318,268.658l-2.373-14.59h-0.029l-2.183,14.59H631.318z"/>
		<path fill="#3A3B3B" d="M637.734,249.57h2.196v26.119h-2.196V249.57z"/>
		<path fill="#3A3B3B" d="M644.619,249.57h2.197v26.119h-2.197V249.57z"/>
		<path fill="#3A3B3B" d="M666.855,249.908h2.445v25.781h-1.978v-11.045l0.337-10.387l-3.678,20.874h-2.079l-3.81-20.874
			l0.337,10.387v11.045h-1.992v-25.781h2.446l4.058,21.65L666.855,249.908z"/>
		<path fill="#3A3B3B" d="M673.52,260.836c0-2.559,0.234-4.316,0.703-5.273c0.488-0.957,1.144-1.576,1.963-1.859
			c0.488-0.166,1.053-0.249,1.692-0.249s1.194,0.078,1.663,0.233c0.713,0.234,1.313,0.875,1.801,1.92
			c0.353,0.731,0.527,2.533,0.527,5.404v3.662h-6.167v4.424c0,2.267,0.168,3.654,0.505,4.168c0.337,0.512,0.835,0.77,1.494,0.77
			s1.123-0.205,1.392-0.615c0.27-0.41,0.436-0.939,0.498-1.589c0.063-0.649,0.096-1.531,0.096-2.646v-1.641h2.124v0.719
			c0,2.168-0.072,3.651-0.22,4.452c-0.372,2.158-1.578,3.237-3.619,3.237c-1.776,0-2.959-0.547-3.545-1.641
			c-0.399-0.724-0.651-1.549-0.754-2.477c-0.102-0.928-0.153-2.139-0.153-3.633V260.836L673.52,260.836z M679.688,262.843v-2.944
			c0-1.649-0.063-2.729-0.19-3.236c-0.215-0.859-0.752-1.289-1.611-1.289c-1.151,0-1.836,0.757-2.051,2.271
			c-0.088,0.614-0.132,1.366-0.132,2.256c0,0.088,0,0.176,0,0.264v2.682h3.984V262.843z"/>
		<path fill="#3A3B3B" d="M691.904,249.57h2.196v26.119h-2.196v-1.67c-0.51,1.221-1.48,1.83-2.916,1.83
			c-1.631-0.01-2.666-0.98-3.105-2.914c-0.244-1.064-0.365-2.496-0.365-4.293v-7.72c0-2.948,0.354-4.932,1.062-5.946
			c0.708-1.016,1.706-1.523,2.995-1.523c0.498,0,0.96,0.179,1.385,0.535c0.425,0.355,0.74,0.787,0.945,1.296L691.904,249.57
			L691.904,249.57z M691.918,260.499c0-1.886-0.144-3.205-0.432-3.962c-0.288-0.758-0.849-1.137-1.679-1.137
			c-0.829,0-1.387,0.389-1.67,1.166c-0.282,0.774-0.424,2.121-0.424,4.035v8.7c0,2.013,0.158,3.302,0.477,3.867
			c0.317,0.565,0.788,0.851,1.413,0.851s1.071-0.115,1.341-0.345c0.269-0.229,0.498-0.614,0.688-1.157
			c0.19-0.541,0.285-1.604,0.285-3.187L691.918,260.499L691.918,260.499z"/>
		<path fill="#3A3B3B" d="M698.76,249.586h2.183v2.109h-2.183V249.586z M698.76,253.717h2.197v21.973h-2.197V253.717z"/>
		<path fill="#3A3B3B" d="M705.703,260.294c0-1.592,0.043-2.619,0.131-3.083s0.184-0.869,0.286-1.217
			c0.103-0.346,0.225-0.633,0.366-0.855c0.141-0.225,0.316-0.455,0.526-0.688c0.21-0.234,0.451-0.418,0.726-0.55
			c0.272-0.133,0.594-0.238,0.96-0.321s0.772-0.125,1.224-0.125c0.448,0,0.854,0.039,1.215,0.116
			c0.361,0.078,0.68,0.166,0.953,0.265c0.272,0.099,0.51,0.271,0.71,0.521s0.368,0.467,0.505,0.651
			c0.47,0.636,0.703,2.437,0.703,5.405v15.277h-2.182v-1.641c-0.128,0.391-0.442,0.789-0.945,1.193
			c-0.503,0.406-1.149,0.607-1.94,0.607c-1.152,0-2.023-0.484-2.614-1.457c-0.591-0.972-0.886-2.381-0.886-4.227v-2.812
			c0-1.006,0.24-1.787,0.725-2.344s0.9-0.947,1.252-1.172c0.928-0.586,1.861-1.077,2.799-1.472c0.938-0.396,1.475-0.623,1.611-0.683
			v-2.461c0-1.416-0.055-2.25-0.162-2.505c-0.106-0.254-0.195-0.459-0.264-0.614c-0.215-0.488-0.732-0.732-1.554-0.732
			c-0.82,0-1.35,0.345-1.589,1.031c-0.238,0.689-0.357,2-0.357,3.935v0.542h-2.197L705.703,260.294L705.703,260.294z
			 M711.826,263.43c-1.611,0.731-2.542,1.19-2.791,1.377c-0.249,0.186-0.473,0.375-0.666,0.57c-0.509,0.508-0.762,1.46-0.762,2.855
			v1.744c0,1.514,0.116,2.567,0.352,3.164c0.235,0.596,0.653,0.894,1.26,0.894c0.604,0,1.144-0.151,1.611-0.454s0.8-0.63,0.996-0.98
			V263.43L711.826,263.43z"/>
	</g>
	<g>
		<path fill="#3A3B3B" d="M808.59,194.863c0.146-1.396,0.56-2.459,1.238-3.187c0.678-0.728,1.74-1.092,3.186-1.092
			c1.446,0,2.451,0.36,3.019,1.084c0.312,0.392,0.557,0.781,0.731,1.172c0.371,0.791,0.562,2.677,0.571,5.654v1.45h-2.241v-1.611
			c0-2.266-0.073-3.639-0.22-4.116c-0.147-0.478-0.298-0.84-0.454-1.084c-0.283-0.448-0.791-0.674-1.523-0.674
			c-1.483,0-2.227,1.382-2.227,4.146c0,0.968,0.093,1.625,0.278,1.971c0.186,0.348,0.323,0.617,0.417,0.812
			c0.093,0.195,0.716,0.869,1.868,2.021l1.405,1.421c2.08,2.14,3.12,4.592,3.12,7.36s-0.397,4.593-1.192,5.472
			c-0.798,0.879-1.977,1.317-3.538,1.317c-2.402,0-3.784-1.449-4.146-4.351c-0.127-0.978-0.189-2.178-0.189-3.604v-2.68h2.227v2.637
			c0,2.324,0.153,3.926,0.462,4.805c0.307,0.879,0.936,1.318,1.882,1.318c0.947,0,1.55-0.285,1.811-0.857
			c0.258-0.57,0.398-1.262,0.424-2.072c0.024-0.81,0.037-1.68,0.037-2.607c0-1.914-0.757-3.607-2.271-5.082l-1.494-1.422
			c-1.309-1.278-2.183-2.354-2.622-3.229c-0.438-0.873-0.658-1.762-0.658-2.666C808.487,196.268,808.521,195.498,808.59,194.863z"/>
		<path fill="#3A3B3B" d="M831.559,190.908h2.446v25.781h-1.978v-11.045l0.337-10.387l-3.678,20.874h-2.079l-3.81-20.874
			l0.337,10.387v11.045h-1.992v-25.781h2.446l4.058,21.65L831.559,190.908z"/>
		<path fill="#3A3B3B" d="M838.692,190.908h2.183v24.053h4.57v1.729h-6.753V190.908z"/>
		<path fill="#3A3B3B" d="M853.59,190.791h1.979l-6.606,25.898h-1.963L853.59,190.791z"/>
		<path fill="#3A3B3B" d="M858.028,194.863c0.146-1.396,0.559-2.459,1.236-3.187c0.679-0.728,1.741-1.092,3.188-1.092
			s2.451,0.36,3.018,1.084c0.312,0.392,0.558,0.781,0.732,1.172c0.371,0.791,0.562,2.677,0.571,5.654v1.45h-2.241v-1.611
			c0-2.266-0.073-3.639-0.22-4.116c-0.147-0.478-0.299-0.84-0.454-1.084c-0.283-0.448-0.791-0.674-1.523-0.674
			c-1.484,0-2.227,1.382-2.227,4.146c0,0.968,0.093,1.625,0.277,1.971c0.187,0.348,0.324,0.617,0.418,0.812
			c0.093,0.195,0.716,0.869,1.867,2.021l1.406,1.421c2.08,2.14,3.12,4.592,3.12,7.36s-0.398,4.593-1.194,5.472
			s-1.975,1.317-3.537,1.317c-2.401,0-3.784-1.449-4.146-4.351c-0.127-0.978-0.19-2.178-0.19-3.604v-2.68h2.228v2.637
			c0,2.324,0.153,3.926,0.461,4.805c0.309,0.879,0.936,1.318,1.883,1.318s1.55-0.285,1.809-0.857c0.26-0.57,0.4-1.262,0.427-2.072
			c0.022-0.811,0.036-1.68,0.036-2.607c0-1.914-0.758-3.607-2.271-5.082l-1.494-1.422c-1.309-1.278-2.183-2.354-2.622-3.229
			c-0.438-0.873-0.659-1.762-0.659-2.666C857.926,196.268,857.96,195.498,858.028,194.863z"/>
		<path fill="#3A3B3B" d="M880.997,190.908h2.446v25.781h-1.979v-11.045l0.337-10.387l-3.677,20.874h-2.08l-3.809-20.874
			l0.337,10.387v11.045h-1.992v-25.781h2.446l4.058,21.65L880.997,190.908z"/>
		<path fill="#3A3B3B" d="M887.223,194.863c0.146-1.396,0.56-2.459,1.238-3.187c0.678-0.728,1.74-1.092,3.186-1.092
			c1.446,0,2.451,0.36,3.019,1.084c0.312,0.392,0.557,0.781,0.731,1.172c0.371,0.791,0.562,2.677,0.571,5.654v1.45h-2.241v-1.611
			c0-2.266-0.072-3.639-0.22-4.116c-0.146-0.478-0.298-0.84-0.454-1.084c-0.283-0.448-0.791-0.674-1.522-0.674
			c-1.484,0-2.228,1.382-2.228,4.146c0,0.968,0.094,1.625,0.278,1.971c0.186,0.348,0.324,0.617,0.417,0.812s0.716,0.869,1.868,2.021
			l1.405,1.421c2.08,2.14,3.12,4.592,3.12,7.36s-0.397,4.593-1.192,5.472c-0.797,0.879-1.977,1.317-3.538,1.317
			c-2.402,0-3.784-1.449-4.146-4.351c-0.127-0.978-0.189-2.178-0.189-3.604v-2.68h2.227v2.637c0,2.324,0.153,3.926,0.462,4.805
			c0.308,0.879,0.936,1.318,1.882,1.318c0.947,0,1.551-0.285,1.811-0.857c0.258-0.57,0.398-1.262,0.424-2.072
			c0.025-0.81,0.037-1.68,0.037-2.607c0-1.914-0.757-3.607-2.271-5.082l-1.493-1.422c-1.31-1.278-2.184-2.354-2.622-3.229
			c-0.439-0.873-0.659-1.762-0.659-2.666C887.12,196.268,887.154,195.498,887.223,194.863z"/>
	</g>
	<g>
		<path fill="#3A3B3B" d="M832.789,249.908h2.227l4.585,25.781h-2.108l-0.851-5.229h-5.155l-0.776,5.229h-2.065L832.789,249.908z
			 M836.349,268.658l-2.373-14.59h-0.028l-2.184,14.59H836.349z"/>
		<path fill="#3A3B3B" d="M842.765,249.908h4.482c1.055,0,1.887,0.197,2.497,0.594c0.609,0.395,1.019,0.837,1.224,1.325
			c0.353,0.879,0.563,1.733,0.639,2.563c0.071,0.829,0.108,1.83,0.108,3.002v0.265c0,2.235-0.139,3.812-0.418,4.731
			c-0.277,0.918-0.593,1.576-0.943,1.978c-0.714,0.819-1.793,1.229-3.237,1.229h-2.168v10.094h-2.184V249.908z M849.532,257.688
			v-0.688c0-1.896-0.146-3.247-0.434-4.058c-0.288-0.812-0.865-1.217-1.734-1.217h-2.417v12.026h2.313
			c0.898,0,1.502-0.427,1.81-1.282C849.379,261.615,849.532,260.021,849.532,257.688z"/>
		<path fill="#3A3B3B" d="M855.113,249.908h4.481c1.056,0,1.888,0.197,2.498,0.594c0.609,0.395,1.019,0.837,1.224,1.325
			c0.352,0.879,0.563,1.733,0.637,2.563c0.074,0.829,0.109,1.83,0.109,3.002v0.265c0,2.235-0.14,3.812-0.416,4.731
			c-0.279,0.918-0.595,1.576-0.945,1.978c-0.713,0.819-1.792,1.229-3.237,1.229h-2.168v10.094h-2.183V249.908z M861.881,257.688
			v-0.688c0-1.896-0.145-3.247-0.432-4.058c-0.289-0.812-0.867-1.217-1.736-1.217h-2.417v12.026h2.314
			c0.897,0,1.501-0.427,1.81-1.282C861.727,261.615,861.881,260.021,861.881,257.688z"/>
		<path fill="#3A3B3B" d="M866.554,253.863c0.146-1.396,0.56-2.459,1.237-3.187s1.741-1.092,3.188-1.092
			c1.445,0,2.45,0.36,3.018,1.084c0.312,0.392,0.557,0.781,0.732,1.172c0.37,0.791,0.562,2.677,0.57,5.654v1.45h-2.241v-1.611
			c0-2.266-0.072-3.639-0.22-4.116c-0.146-0.478-0.298-0.84-0.454-1.084c-0.283-0.448-0.791-0.674-1.522-0.674
			c-1.484,0-2.228,1.382-2.228,4.146c0,0.968,0.093,1.625,0.278,1.971c0.186,0.348,0.324,0.617,0.418,0.812
			c0.092,0.195,0.715,0.869,1.867,2.021l1.406,1.421c2.08,2.139,3.119,4.592,3.119,7.36s-0.397,4.593-1.193,5.472
			s-1.976,1.317-3.537,1.317c-2.402,0-3.784-1.449-4.146-4.351c-0.127-0.978-0.189-2.178-0.189-3.604v-2.681h2.227v2.638
			c0,2.324,0.154,3.926,0.461,4.805c0.31,0.879,0.937,1.318,1.884,1.318c0.946,0,1.55-0.285,1.809-0.857
			c0.259-0.57,0.4-1.262,0.426-2.072c0.023-0.811,0.036-1.68,0.036-2.607c0-1.914-0.757-3.607-2.271-5.082l-1.494-1.422
			c-1.31-1.278-2.184-2.354-2.622-3.229c-0.439-0.873-0.659-1.763-0.659-2.666C866.451,255.268,866.485,254.498,866.554,253.863z"/>
	</g>
	<g>
		<path fill="#3A3B3B" d="M970.737,198.115c0-3.115,0.391-5.148,1.172-6.102c0.781-0.951,1.981-1.429,3.604-1.429
			s2.739,0.526,3.354,1.582c0.41,0.713,0.669,1.543,0.775,2.49c0.107,0.946,0.161,2.1,0.161,3.457v10.972
			c0,2.236-0.135,3.812-0.401,4.725c-0.271,0.914-0.569,1.564-0.901,1.955c-0.703,0.812-1.771,1.217-3.208,1.217
			c-2.139,0-3.477-0.924-4.014-2.77c-0.361-1.211-0.542-2.92-0.542-5.127V198.115L970.737,198.115z M977.622,197.939
			c0-2.051-0.149-3.491-0.446-4.321c-0.299-0.83-0.906-1.245-1.824-1.245s-1.553,0.428-1.903,1.281
			c-0.353,0.854-0.527,2.277-0.527,4.271v11.162c0,2.373,0.122,3.892,0.366,4.556s0.515,1.09,0.812,1.274
			c0.298,0.187,0.69,0.278,1.18,0.278s0.879-0.094,1.172-0.278s0.562-0.608,0.806-1.267c0.244-0.66,0.366-2.182,0.366-4.563
			L977.622,197.939L977.622,197.939z"/>
		<path fill="#3A3B3B" d="M983.057,202.656h6.271v1.465h-6.271V202.656z"/>
		<path fill="#3A3B3B" d="M993.926,198.363c0-3.125,0.394-5.201,1.181-6.232c0.784-1.029,1.903-1.545,3.354-1.545
			c1.451,0,2.488,0.355,3.113,1.068c0.448,0.519,0.742,1.031,0.879,1.539c0.322,1.19,0.482,2.974,0.482,5.347v2.228h-2.212v-2.49
			c0-2.168-0.116-3.618-0.352-4.352c-0.235-0.732-0.566-1.195-0.996-1.392c-0.234-0.107-0.503-0.161-0.806-0.161
			c-0.929,0-1.57,0.475-1.928,1.421c-0.356,0.947-0.533,2.437-0.533,4.468v10.342c0,2.49,0.155,4.211,0.469,5.164
			c0.312,0.951,0.938,1.428,1.875,1.428c0.937,0,1.55-0.473,1.839-1.42c0.287-0.947,0.432-2.666,0.432-5.156v-2.064h2.197v2.051
			c0,2.256-0.127,3.879-0.381,4.871c-0.254,0.99-0.542,1.7-0.864,2.131c-0.684,0.918-1.743,1.377-3.179,1.377
			c-1.437,0-2.515-0.455-3.237-1.362c-0.889-1.113-1.333-3.442-1.333-6.987V198.363z"/>
		<path fill="#3A3B3B" d="M1006.509,201.777c0-2.539,0.239-4.287,0.718-5.244c0.479-0.957,1.129-1.572,1.948-1.846
			c0.488-0.156,1.035-0.234,1.642-0.234c2.471,0,3.856,1.343,4.159,4.027c0.107,0.918,0.161,2.018,0.161,3.297v7.367
			c0,1.729-0.037,2.848-0.108,3.354c-0.074,0.508-0.146,0.946-0.214,1.317c-0.391,2.091-1.747,3.136-4.071,3.136
			c-0.947,0-1.704-0.195-2.271-0.586c-1.073-0.742-1.693-2.104-1.859-4.087c-0.068-0.879-0.104-1.924-0.104-3.135V201.777
			L1006.509,201.777z M1012.954,201.266c0-2.521-0.332-4.039-0.996-4.557c-0.293-0.225-0.646-0.337-1.055-0.337
			c-1.113,0-1.777,0.62-1.992,1.86c-0.146,0.771-0.22,1.781-0.22,3.031v8.644c0,2.157,0.184,3.552,0.549,4.183
			c0.367,0.629,0.95,0.944,1.751,0.944s1.328-0.446,1.582-1.341c0.254-0.894,0.381-2.155,0.381-3.786V201.266z"/>
		<path fill="#3A3B3B" d="M1032.568,198.73c0-1.515-0.669-2.271-2.008-2.271c-1.123,0-1.841,0.327-2.152,0.98
			c-0.137,0.293-0.225,0.66-0.264,1.1v18.148h-2.184V198.73c0-0.84-0.174-1.429-0.521-1.767c-0.348-0.336-0.874-0.505-1.582-0.505
			s-1.271,0.212-1.691,0.639c-0.42,0.424-0.63,1.051-0.63,1.881v17.711h-2.183v-21.974h2.183v2.183
			c0.195-0.664,0.604-1.239,1.224-1.729c0.619-0.488,1.33-0.732,2.132-0.732c1.465,0,2.445,0.742,2.943,2.228
			c0.361-0.664,0.874-1.201,1.538-1.61c0.664-0.41,1.437-0.615,2.313-0.615c0.879,0,1.611,0.365,2.197,1.099
			s0.879,1.841,0.879,3.325v17.826h-2.196L1032.568,198.73L1032.568,198.73z"/>
		<path fill="#3A3B3B" d="M1052.52,198.73c0-1.515-0.668-2.271-2.007-2.271c-1.123,0-1.841,0.327-2.152,0.98
			c-0.138,0.293-0.226,0.66-0.265,1.1v18.148h-2.183V198.73c0-0.84-0.174-1.429-0.521-1.767c-0.348-0.336-0.875-0.505-1.582-0.505
			c-0.709,0-1.271,0.212-1.691,0.639c-0.42,0.424-0.63,1.051-0.63,1.881v17.711h-2.184v-21.974h2.184v2.183
			c0.194-0.664,0.603-1.239,1.224-1.729c0.619-0.488,1.33-0.732,2.131-0.732c1.465,0,2.446,0.742,2.944,2.228
			c0.36-0.664,0.874-1.201,1.538-1.61c0.664-0.41,1.436-0.615,2.313-0.615s1.611,0.365,2.197,1.099s0.879,1.841,0.879,3.325v17.826
			h-2.197L1052.52,198.73L1052.52,198.73z"/>
		<path fill="#3A3B3B" d="M1058.789,201.836c0-2.559,0.234-4.316,0.703-5.273c0.488-0.957,1.143-1.576,1.963-1.859
			c0.488-0.166,1.052-0.249,1.691-0.249c0.639,0,1.193,0.078,1.662,0.233c0.713,0.234,1.313,0.875,1.803,1.92
			c0.352,0.731,0.526,2.533,0.526,5.404v3.662h-6.167v4.424c0,2.267,0.169,3.654,0.505,4.168c0.339,0.512,0.837,0.77,1.494,0.77
			c0.66,0,1.123-0.205,1.394-0.615c0.268-0.41,0.434-0.939,0.498-1.589c0.062-0.649,0.095-1.531,0.095-2.646v-1.641h2.124v0.719
			c0,2.168-0.073,3.651-0.22,4.452c-0.371,2.158-1.577,3.237-3.618,3.237c-1.777,0-2.959-0.547-3.545-1.641
			c-0.4-0.724-0.652-1.549-0.754-2.477c-0.104-0.928-0.154-2.139-0.154-3.633V201.836L1058.789,201.836z M1064.956,203.843v-2.944
			c0-1.649-0.063-2.729-0.19-3.236c-0.215-0.859-0.752-1.289-1.61-1.289c-1.152,0-1.836,0.757-2.051,2.271
			c-0.089,0.614-0.132,1.367-0.132,2.256c0,0.088,0,0.176,0,0.264v2.682h3.983V203.843z"/>
		<path fill="#3A3B3B" d="M1077.158,194.453c0.039,0,0.059,0.156,0.059,0.469s-0.005,0.625-0.015,0.938v0.455
			c-0.771,0-1.453,0.152-2.044,0.461c-0.591,0.308-1.169,0.861-1.735,1.662v18.252h-2.183v-21.973h2.183v2.446
			c0.254-0.858,0.7-1.524,1.341-1.999C1075.402,194.689,1076.201,194.453,1077.158,194.453z"/>
		<path fill="#3A3B3B" d="M1079.795,201.631c0-2.441,0.244-4.141,0.732-5.098s1.143-1.572,1.963-1.846
			c0.479-0.156,1.128-0.234,1.948-0.234c0.819,0,1.571,0.225,2.256,0.674c0.438,0.293,0.796,0.854,1.068,1.686
			c0.273,0.83,0.41,2.476,0.41,4.937v0.688h-2.212v-1.349c0-1.698-0.059-2.803-0.176-3.312c-0.215-0.879-0.757-1.317-1.626-1.317
			c-1.064,0-1.724,0.615-1.979,1.847c-0.137,0.664-0.204,1.631-0.204,2.899v8.817c0,1.982,0.074,3.162,0.228,3.539
			c0.15,0.375,0.305,0.66,0.461,0.855c0.273,0.352,0.765,0.527,1.474,0.527c0.707,0,1.184-0.311,1.428-0.932
			c0.244-0.619,0.371-1.296,0.381-2.027c0.01-0.732,0.015-1.357,0.015-1.875v-1.655h2.212v0.659c0,2.197-0.072,3.701-0.22,4.512
			c-0.381,2.217-1.616,3.325-3.706,3.325c-1.777,0-2.959-0.548-3.545-1.642c-0.4-0.731-0.652-1.566-0.754-2.504
			c-0.104-0.938-0.154-2.14-0.154-3.604V201.631z"/>
		<path fill="#3A3B3B" d="M1091.382,201.836c0-2.559,0.234-4.316,0.703-5.273c0.488-0.957,1.143-1.576,1.963-1.859
			c0.488-0.166,1.052-0.249,1.692-0.249c0.639,0,1.192,0.078,1.662,0.233c0.713,0.234,1.312,0.875,1.802,1.92
			c0.352,0.731,0.526,2.533,0.526,5.404v3.662h-6.166v4.424c0,2.267,0.168,3.654,0.506,4.168c0.336,0.512,0.834,0.77,1.494,0.77
			c0.657,0,1.121-0.205,1.391-0.615c0.269-0.41,0.435-0.939,0.498-1.589c0.062-0.649,0.096-1.531,0.096-2.646v-1.641h2.124v0.719
			c0,2.168-0.073,3.651-0.22,4.452c-0.371,2.158-1.577,3.237-3.618,3.237c-1.777,0-2.959-0.547-3.545-1.641
			c-0.4-0.724-0.651-1.549-0.755-2.477c-0.103-0.928-0.153-2.139-0.153-3.633V201.836z M1097.549,203.843v-2.944
			c0-1.649-0.062-2.729-0.189-3.236c-0.215-0.859-0.752-1.289-1.611-1.289c-1.152,0-1.836,0.757-2.051,2.271
			c-0.088,0.614-0.132,1.367-0.132,2.256c0,0.088,0,0.176,0,0.264v2.682h3.983V203.843z"/>
	</g>
	<g>
		<path fill="#3A3B3B" d="M1015.62,249.908h2.227l4.585,25.781h-2.108l-0.851-5.229h-5.155l-0.776,5.229h-2.065L1015.62,249.908z
			 M1019.18,268.658l-2.373-14.59h-0.028l-2.184,14.59H1019.18z"/>
		<path fill="#3A3B3B" d="M1025.596,249.908h4.482c1.055,0,1.887,0.197,2.498,0.594c0.609,0.395,1.018,0.837,1.223,1.325
			c0.353,0.879,0.564,1.733,0.637,2.563c0.074,0.829,0.11,1.83,0.11,3.002v0.265c0,2.235-0.14,3.812-0.417,4.731
			c-0.279,0.918-0.594,1.576-0.945,1.978c-0.713,0.819-1.791,1.229-3.236,1.229h-2.168v10.094h-2.184V249.908L1025.596,249.908z
			 M1032.363,257.688v-0.688c0-1.896-0.146-3.247-0.433-4.058c-0.288-0.812-0.866-1.217-1.735-1.217h-2.417v12.026h2.313
			c0.898,0,1.501-0.427,1.811-1.282C1032.209,261.615,1032.363,260.021,1032.363,257.688z"/>
		<path fill="#3A3B3B" d="M1037.944,249.908h4.481c1.056,0,1.887,0.197,2.497,0.594c0.61,0.395,1.02,0.837,1.224,1.325
			c0.353,0.879,0.563,1.733,0.639,2.563c0.072,0.829,0.108,1.83,0.108,3.002v0.265c0,2.235-0.139,3.812-0.418,4.731
			c-0.276,0.918-0.593,1.576-0.943,1.978c-0.713,0.819-1.792,1.229-3.237,1.229h-2.168v10.094h-2.183V249.908z M1044.712,257.688
			v-0.688c0-1.896-0.145-3.247-0.433-4.058c-0.288-0.812-0.866-1.217-1.735-1.217h-2.417v12.026h2.314
			c0.897,0,1.502-0.427,1.809-1.282C1044.559,261.615,1044.712,260.021,1044.712,257.688z"/>
		<path fill="#3A3B3B" d="M1049.385,253.863c0.146-1.396,0.56-2.459,1.238-3.187c0.678-0.728,1.74-1.092,3.186-1.092
			c1.446,0,2.451,0.36,3.019,1.084c0.312,0.392,0.557,0.781,0.731,1.172c0.371,0.791,0.562,2.677,0.571,5.654v1.45h-2.241v-1.611
			c0-2.266-0.072-3.639-0.22-4.116c-0.146-0.478-0.298-0.84-0.454-1.084c-0.282-0.448-0.791-0.674-1.522-0.674
			c-1.484,0-2.228,1.382-2.228,4.146c0,0.968,0.094,1.625,0.278,1.971c0.187,0.348,0.324,0.617,0.417,0.812s0.716,0.869,1.868,2.021
			l1.406,1.421c2.079,2.139,3.12,4.592,3.12,7.36s-0.398,4.593-1.193,5.472c-0.797,0.879-1.977,1.317-3.538,1.317
			c-2.402,0-3.784-1.449-4.146-4.351c-0.127-0.978-0.19-2.178-0.19-3.604v-2.681h2.228v2.638c0,2.324,0.152,3.926,0.462,4.805
			c0.307,0.879,0.935,1.318,1.882,1.318c0.946,0,1.55-0.285,1.81-0.857c0.259-0.57,0.399-1.262,0.424-2.072
			c0.025-0.811,0.037-1.68,0.037-2.607c0-1.914-0.757-3.607-2.271-5.082l-1.494-1.422c-1.309-1.278-2.184-2.354-2.622-3.229
			c-0.438-0.873-0.659-1.763-0.659-2.666C1049.282,255.268,1049.316,254.498,1049.385,253.863z"/>
	</g>
	<g>
		<path fill="#3A3B3B" d="M1160.914,198.115c0-3.115,0.391-5.148,1.172-6.102c0.781-0.951,1.982-1.429,3.604-1.429
			c1.622,0,2.74,0.526,3.355,1.582c0.41,0.713,0.668,1.543,0.775,2.49c0.106,0.946,0.162,2.1,0.162,3.457v10.972
			c0,2.236-0.136,3.812-0.403,4.725c-0.27,0.914-0.569,1.564-0.901,1.955c-0.703,0.812-1.771,1.217-3.207,1.217
			c-2.139,0-3.478-0.924-4.014-2.77c-0.362-1.211-0.543-2.92-0.543-5.127V198.115z M1167.799,197.939
			c0-2.051-0.147-3.491-0.446-4.321c-0.298-0.83-0.905-1.245-1.822-1.245c-0.919,0-1.554,0.428-1.904,1.281
			c-0.353,0.854-0.527,2.277-0.527,4.271v11.162c0,2.373,0.121,3.892,0.365,4.556s0.516,1.09,0.813,1.274
			c0.297,0.185,0.689,0.278,1.179,0.278s0.879-0.094,1.172-0.278s0.562-0.608,0.807-1.267c0.243-0.66,0.365-2.182,0.365-4.563
			L1167.799,197.939L1167.799,197.939z"/>
		<path fill="#3A3B3B" d="M1173.234,202.656h6.27v1.465h-6.27V202.656z"/>
		<path fill="#3A3B3B" d="M1184.484,190.908h3.764c1.543,0,2.664,0.264,3.362,0.791s1.136,1.455,1.312,2.783
			c0.077,0.586,0.121,1.317,0.131,2.197v0.336c0,1.67-0.106,2.944-0.321,3.823c-0.216,0.879-0.658,1.538-1.332,1.978
			c0.762,0.371,1.286,1.103,1.573,2.19c0.288,1.089,0.433,2.453,0.433,4.095v0.453c-0.039,2.51-0.361,4.326-0.968,5.449
			c-0.605,1.123-1.781,1.686-3.528,1.686h-4.424L1184.484,190.908L1184.484,190.908z M1188.307,192.827h-1.641v9.155h1.963
			c0.674,0,1.126-0.073,1.355-0.221c0.229-0.146,0.389-0.316,0.477-0.513c0.272-0.615,0.41-1.824,0.41-3.625
			c0-1.804-0.091-2.947-0.271-3.437c-0.18-0.488-0.423-0.836-0.725-1.047C1189.571,192.934,1189.049,192.827,1188.307,192.827z
			 M1189.025,203.74h-2.359v11.074h2.314c0.713,0,1.234-0.234,1.567-0.703c0.331-0.469,0.527-1.201,0.586-2.197
			c0.06-0.996,0.088-1.846,0.088-2.549v-1.217c0-1.444-0.148-2.541-0.446-3.287C1190.479,204.113,1189.895,203.74,1189.025,203.74z"
			/>
		<path fill="#3A3B3B" d="M1199.498,212.412c0,1.689,0.742,2.533,2.227,2.533c0.724,0,1.303-0.24,1.736-0.725
			c0.436-0.482,0.652-1.141,0.652-1.971l-0.017-17.534h2.197v21.974h-2.182v-2.197c-0.188,0.664-0.584,1.244-1.194,1.742
			c-0.609,0.498-1.316,0.748-2.116,0.748c-0.802,0-1.582-0.33-2.344-0.988c-0.762-0.66-1.143-1.819-1.143-3.479v-17.799h2.182
			L1199.498,212.412L1199.498,212.412z"/>
		<path fill="#3A3B3B" d="M1210.396,199.404c0-1.621,0.389-2.853,1.164-3.691c0.776-0.839,1.849-1.26,3.217-1.26
			c1.365,0,2.366,0.542,3.002,1.626c0.635,1.084,0.953,2.892,0.953,5.42v1.172h-2.271v-1.567c0-1.553-0.134-2.715-0.402-3.485
			c-0.268-0.771-0.736-1.157-1.405-1.157s-1.178,0.223-1.523,0.667s-0.52,1.213-0.52,2.308c0,0.028,0,0.059,0,0.088
			c0,1.709,0.795,3.334,2.387,4.877l1.129,1.1c1.942,1.943,2.914,4.087,2.914,6.432c0,1.562-0.336,2.795-1.01,3.697
			c-0.675,0.904-1.734,1.355-3.181,1.355c-1.445,0-2.525-0.498-3.244-1.494c-0.718-0.996-1.076-2.583-1.076-4.762v-1.89h2.24v1.509
			c0,3.096,0.674,4.645,2.021,4.645c0.723,0,1.234-0.234,1.539-0.703c0.302-0.469,0.453-1.299,0.453-2.49
			c0-1.768-0.763-3.428-2.285-4.98l-1.156-1.172C1211.379,203.652,1210.396,201.572,1210.396,199.404z"/>
		<path fill="#3A3B3B" d="M1222.98,190.586h2.182v2.109h-2.182V190.586z M1222.98,194.717h2.196v21.973h-2.196V194.717z"/>
		<path fill="#3A3B3B" d="M1232.076,196.87c0.195-0.654,0.628-1.224,1.297-1.706c0.669-0.484,1.457-0.727,2.365-0.727
			s1.656,0.377,2.242,1.129s0.879,1.879,0.879,3.384v17.739h-2.185v-17.916c0-0.85-0.191-1.461-0.578-1.838
			c-0.386-0.375-0.899-0.563-1.545-0.563c-1.65,0-2.477,0.815-2.477,2.446v17.871h-2.183v-21.974h2.183L1232.076,196.87
			L1232.076,196.87z"/>
		<path fill="#3A3B3B" d="M1242.932,201.836c0-2.559,0.234-4.316,0.703-5.273c0.487-0.957,1.144-1.576,1.963-1.859
			c0.487-0.166,1.053-0.249,1.691-0.249s1.193,0.078,1.662,0.233c0.713,0.234,1.312,0.875,1.803,1.92
			c0.353,0.731,0.527,2.533,0.527,5.404v3.662h-6.168v4.424c0,2.267,0.169,3.654,0.506,4.168c0.337,0.512,0.835,0.77,1.494,0.77
			s1.123-0.205,1.392-0.615s0.436-0.939,0.498-1.589c0.063-0.649,0.095-1.531,0.095-2.646v-1.641h2.125v0.719
			c0,2.168-0.073,3.651-0.221,4.452c-0.371,2.158-1.577,3.237-3.617,3.237c-1.777,0-2.959-0.547-3.545-1.641
			c-0.4-0.724-0.651-1.549-0.755-2.477c-0.103-0.928-0.153-2.139-0.153-3.633V201.836L1242.932,201.836z M1249.098,203.843v-2.944
			c0-1.649-0.062-2.729-0.188-3.236c-0.216-0.859-0.753-1.289-1.611-1.289c-1.152,0-1.837,0.757-2.051,2.271
			c-0.088,0.614-0.133,1.367-0.133,2.256c0,0.088,0,0.176,0,0.264v2.682h3.983V203.843z"/>
		<path fill="#3A3B3B" d="M1254.781,199.404c0-1.621,0.389-2.853,1.165-3.691c0.775-0.839,1.848-1.26,3.216-1.26
			c1.366,0,2.367,0.542,3.002,1.626s0.953,2.892,0.953,5.42v1.172h-2.271v-1.567c0-1.553-0.134-2.715-0.401-3.485
			c-0.269-0.771-0.737-1.157-1.406-1.157s-1.177,0.223-1.523,0.667c-0.346,0.444-0.52,1.213-0.52,2.308c0,0.028,0,0.059,0,0.088
			c0,1.709,0.795,3.334,2.387,4.877l1.129,1.1c1.942,1.943,2.914,4.087,2.914,6.432c0,1.562-0.336,2.795-1.01,3.697
			c-0.674,0.904-1.734,1.355-3.181,1.355c-1.445,0-2.525-0.498-3.243-1.494c-0.719-0.996-1.076-2.583-1.076-4.762v-1.89h2.239v1.509
			c0,3.096,0.675,4.645,2.021,4.645c0.723,0,1.235-0.234,1.539-0.703c0.302-0.469,0.453-1.299,0.453-2.49
			c0-1.768-0.762-3.428-2.285-4.98l-1.156-1.172C1255.764,203.652,1254.781,201.572,1254.781,199.404z"/>
		<path fill="#3A3B3B" d="M1266.75,199.404c0-1.621,0.388-2.853,1.164-3.691c0.775-0.839,1.848-1.26,3.215-1.26
			s2.368,0.542,3.004,1.626c0.634,1.084,0.951,2.892,0.951,5.42v1.172h-2.27v-1.567c0-1.553-0.136-2.715-0.403-3.485
			c-0.269-0.771-0.737-1.157-1.406-1.157s-1.177,0.223-1.522,0.667c-0.347,0.444-0.521,1.213-0.521,2.308c0,0.028,0,0.059,0,0.088
			c0,1.709,0.796,3.334,2.389,4.877l1.127,1.1c1.943,1.943,2.916,4.087,2.916,6.432c0,1.562-0.338,2.795-1.012,3.697
			c-0.674,0.904-1.732,1.355-3.178,1.355c-1.446,0-2.527-0.498-3.245-1.494s-1.077-2.583-1.077-4.762v-1.89h2.242v1.509
			c0,3.096,0.674,4.645,2.021,4.645c0.722,0,1.233-0.234,1.536-0.703c0.304-0.469,0.455-1.299,0.455-2.49
			c0-1.768-0.762-3.428-2.285-4.98l-1.157-1.172C1267.73,203.652,1266.75,201.572,1266.75,199.404z"/>
	</g>
	<g>
		<path fill="#3A3B3B" d="M1198.451,249.908h2.227l4.585,25.781h-2.108l-0.851-5.229h-5.155l-0.776,5.229h-2.065L1198.451,249.908z
			 M1202.011,268.658l-2.373-14.59h-0.028l-2.184,14.59H1202.011z"/>
		<path fill="#3A3B3B" d="M1208.427,249.908h4.482c1.055,0,1.887,0.197,2.497,0.594c0.609,0.395,1.019,0.837,1.224,1.325
			c0.353,0.879,0.563,1.733,0.638,2.563c0.072,0.829,0.109,1.83,0.109,3.002v0.265c0,2.235-0.139,3.812-0.418,4.731
			c-0.277,0.918-0.593,1.576-0.944,1.978c-0.713,0.819-1.792,1.229-3.236,1.229h-2.168v10.094h-2.184V249.908z M1215.194,257.688
			v-0.688c0-1.896-0.146-3.247-0.434-4.058c-0.288-0.812-0.866-1.217-1.734-1.217h-2.417v12.026h2.313
			c0.898,0,1.502-0.427,1.81-1.282C1215.041,261.615,1215.194,260.021,1215.194,257.688z"/>
		<path fill="#3A3B3B" d="M1220.775,249.908h4.481c1.056,0,1.888,0.197,2.498,0.594c0.609,0.395,1.019,0.837,1.224,1.325
			c0.352,0.879,0.563,1.733,0.637,2.563c0.074,0.829,0.109,1.83,0.109,3.002v0.265c0,2.235-0.14,3.812-0.416,4.731
			c-0.279,0.918-0.595,1.576-0.945,1.978c-0.713,0.819-1.792,1.229-3.237,1.229h-2.168v10.094h-2.183V249.908L1220.775,249.908z
			 M1227.543,257.688v-0.688c0-1.896-0.145-3.247-0.432-4.058c-0.289-0.812-0.867-1.217-1.736-1.217h-2.417v12.026h2.313
			c0.898,0,1.502-0.427,1.811-1.282C1227.389,261.615,1227.543,260.021,1227.543,257.688z"/>
		<path fill="#3A3B3B" d="M1232.216,253.863c0.146-1.396,0.56-2.459,1.237-3.187s1.741-1.092,3.187-1.092
			c1.446,0,2.451,0.36,3.019,1.084c0.312,0.392,0.557,0.781,0.731,1.172c0.371,0.791,0.562,2.677,0.571,5.654v1.45h-2.241v-1.611
			c0-2.266-0.072-3.639-0.22-4.116c-0.146-0.478-0.298-0.84-0.454-1.084c-0.282-0.448-0.791-0.674-1.522-0.674
			c-1.484,0-2.228,1.382-2.228,4.146c0,0.968,0.093,1.625,0.278,1.971c0.186,0.348,0.324,0.617,0.418,0.812
			c0.092,0.195,0.715,0.869,1.867,2.021l1.405,1.421c2.08,2.139,3.12,4.592,3.12,7.36s-0.397,4.593-1.193,5.472
			c-0.797,0.879-1.976,1.317-3.537,1.317c-2.402,0-3.784-1.449-4.146-4.351c-0.127-0.978-0.189-2.178-0.189-3.604v-2.681h2.227
			v2.638c0,2.324,0.154,3.926,0.461,4.805c0.31,0.879,0.937,1.318,1.884,1.318c0.946,0,1.55-0.285,1.809-0.857
			c0.259-0.57,0.4-1.262,0.426-2.072c0.023-0.811,0.036-1.68,0.036-2.607c0-1.914-0.757-3.607-2.271-5.082l-1.494-1.422
			c-1.31-1.278-2.184-2.354-2.622-3.229c-0.439-0.873-0.659-1.763-0.659-2.666C1232.113,255.268,1232.146,254.498,1232.216,253.863z
			"/>
	</g>
	<line fill="none" stroke="#3A3B3B" stroke-miterlimit="10" x1="40.02" y1="232.646" x2="1312.922" y2="232.646"/>
</g>
</svg>
