<?xml version="1.0" encoding="utf-8"?>
<!-- Generator: Adobe Illustrator 19.1.0, SVG Export Plug-In . SVG Version: 6.00 Build 0)  -->
<svg version="1.1" id="Layer_1" xmlns="http://www.w3.org/2000/svg" xmlns:xlink="http://www.w3.org/1999/xlink" x="0px" y="0px"
	 viewBox="128 129 1024 768" style="enable-background:new 128 129 1024 768;" xml:space="preserve">
<metadata><?xpacket begin="﻿" id="W5M0MpCehiHzreSzNTczkc9d"?>
<x:xmpmeta xmlns:x="adobe:ns:meta/" x:xmptk="Adobe XMP Core 5.6-c067 79.157747, 2015/03/30-23:40:42        ">
   <rdf:RDF xmlns:rdf="http://www.w3.org/1999/02/22-rdf-syntax-ns#">
      <rdf:Description rdf:about=""/>
   </rdf:RDF>
</x:xmpmeta>
                                                                                                    
                                                                                                    
                                                                                                    
                                                                                                    
                                                                                                    
                                                                                                    
                                                                                                    
                                                                                                    
                                                                                                    
                                                                                                    
                                                                                                    
                                                                                                    
                                                                                                    
                                                                                                    
                                                                                                    
                                                                                                    
                                                                                                    
                                                                                                    
                                                                                                    
                                                                                                    
                           
<?xpacket end="w"?></metadata>
<style type="text/css">
	.st0{fill:#F3869D;}
	.st1{fill:#89D0C8;}
	.st2{fill:none;stroke:#89D0C8;stroke-width:21.8582;stroke-miterlimit:10;}
</style>
<g>
	<path class="st0" d="M584.9,236.9c0,14.6-10.3,22.1-24.7,22.1c-12.7,0-25.3-6-25.3-22.1v-34.1h12.7v34.5c0,7.7,6.7,10.6,12.7,10.6
		c8.7,0,12.1-4.9,12.1-10.6l0-34.5h12.6V236.9z"/>
	<path class="st0" d="M603.8,235.1c-7.7-1.4-12.7-7.2-12.7-16.4c0-8.1,4-16,12.7-16h28.7v10.7h-26c-3.3,0-4.9,3-4.9,6
		c0,4.2,2.8,6,4.9,6l17,2.2c8.3,1.6,12.8,4.9,12.8,14.2c0,8.1-4,16-12.7,16h-28.8v-11.9H622c2.1,0,3.4-2.1,3.4-4.2
		c0-2.9-1.8-4.1-3.4-4.1L603.8,235.1z"/>
	<path class="st0" d="M683.2,257.8h-41.1v-55.1H683v10.7h-28.2l0,11.3H681v10.5h-26.2v11.9h28.4V257.8z"/>
	<path class="st0" d="M721.8,237.2l18.5,20.6h-15.8l-18.5-20.6v20.6h-12.7v-55.1h27.5c10.3,0,18.3,6.1,18.3,17.3
		C739.1,229.7,733,236.8,721.8,237.2z M719.1,213.1h-13.1l0,13.7h13.1c3.9,0,7.2-2.5,7.2-6.9C726.3,215.8,723.2,213.1,719.1,213.1z"
		/>
	<path class="st0" d="M441.8,515.3c-2.4-6-9.2-7.6-12.1-7.6c-9.4,0-14.2,10-14.2,17.2c0,7.8,4.8,17.5,14.1,17.5
		c7.6,0,10.1-5.6,12.3-8.5l10.5,6.2c-3.9,8.8-12.7,13.6-22.6,13.6c-15.7,0-28-10.8-28-28.3c0-18.4,12.7-29.3,28-29.3
		c9.8,0,18,4.1,21.7,12.8L441.8,515.3z"/>
	<path class="st0" d="M525.9,531.6c0,12.3-7.9,20.4-19.5,21.9c-2.7,0.3-24.7,0.3-27.5,0c-10.6-1.4-20-8.4-20-21.9l0-34.1h12.7
		l0,34.5c0,5.9,4.3,9.4,8.9,10.3c1.6,0.3,22.2,0.3,23.8,0.1c6.3-0.8,8.9-5.9,8.9-10.4v-34.5h12.6V531.6z"/>
	<path class="st0" d="M544.2,529.7c-7.7-1.4-12.7-7.2-12.7-16.4c0-8.1,4-16,12.7-16h28.7v10.7h-26c-3.3,0-4.9,3-4.9,6
		c0,4.2,2.8,6,4.9,6l17,2.2c8.3,1.6,12.8,4.9,12.8,14.2c0,8.1-4,16-12.7,16h-28.8v-11.9h27.2c2.1,0,3.4-2.1,3.4-4.2
		c0-2.9-1.8-4.1-3.4-4.1L544.2,529.7z"/>
	<path class="st0" d="M595.9,552.5v-44.4h-17.7v-10.7h48v10.7h-17.6v44.4H595.9z"/>
	<path class="st0" d="M656.3,553.7c-15,0-28.1-11.1-28.1-28.7c0-17.6,13.1-28.8,28.1-28.8c14.9,0,28.1,11.1,28.1,28.8
		C684.4,542.6,671.2,553.7,656.3,553.7z M656.3,507.8c-6.9,0-15.3,4.9-15.3,17.2c0,12.1,8.1,17.1,15.3,17.1
		c6.8,0,15.2-4.7,15.2-17.1C671.5,512.6,663.3,507.8,656.3,507.8z"/>
	<path class="st0" d="M737.9,514.5l-13.4,38h-12.3l0-38l-14.2,38h-15.4l22.9-55.1h16.2l0,39.6l10.6-39.6h17.7v55.1h-12.2V514.5z"/>
	<path class="st0" d="M815.5,552.5h-56v-55.1h55.8v10.7h-43.1v11.3h41.1l0,10.5h-41.1v11.9h43.4V552.5z"/>
	<path class="st0" d="M852.1,531.9l18.5,20.6h-15.8l-18.5-20.6v20.6h-12.7v-55.1h27.5c10.3,0,18.3,6.1,18.3,17.3
		C869.5,524.3,863.4,531.5,852.1,531.9z M849.4,507.8h-13.1l0,13.7h13.1c3.9,0,7.2-2.5,7.2-6.9C856.7,510.5,853.6,507.8,849.4,507.8
		z"/>
	<path class="st0" d="M409,826.5h-14.9v20.6h-12.7l0-55.1H409c10.3,0,18.3,6.1,18.3,17.3C427.3,819.2,420.8,826.5,409,826.5z
		 M407.2,802.4h-13.1v13.7h13.1c3.9,0,7.2-2.5,7.2-6.9C414.5,805.1,411.4,802.4,407.2,802.4z"/>
	<path class="st0" d="M442.1,837.7c-1,3.2-2,6.3-3,9.5h-12.8c6.5-18.4,13-36.7,19.7-55.1h14.7c6.6,18.4,13.1,36.7,19.7,55.1h-13.4
		c-1-3.2-2-6.3-3-9.5H442.1z M460.7,828c-2.5-8-5-16-7.6-24h-0.1c-2.5,8-5.2,15.9-7.7,24H460.7z"/>
	<path class="st0" d="M514.7,826.5l18.5,20.6h-15.8l-18.5-20.6v20.6h-12.7v-55.1h27.5c10.3,0,18.3,6.1,18.3,17.3
		C532.1,819,525.9,826.1,514.7,826.5z M512,802.4h-13.1v13.7H512c3.9,0,7.2-2.5,7.2-6.9C519.2,805.1,516.1,802.4,512,802.4z"/>
	<path class="st0" d="M551.6,847.1l0-44.4H534v-10.7h48v10.7h-17.6l0,44.4H551.6z"/>
	<path class="st0" d="M588.5,847.1l0-55.1h12.9v55.1H588.5z"/>
	<path class="st0" d="M649.4,809.9c-2.4-6-9.2-7.6-12.1-7.6c-9.4,0-14.2,10-14.2,17.2c0,7.8,4.8,17.5,14.1,17.5
		c7.6,0,10.1-5.6,12.3-8.5l10.5,6.2c-3.9,8.8-12.7,13.6-22.6,13.6c-15.7,0-28-10.8-28-28.3c0-18.4,12.7-29.3,28-29.3
		c9.8,0,18,4.1,21.7,12.8L649.4,809.9z"/>
	<path class="st0" d="M667.5,847.1v-55.1h12.9v55.1H667.5z"/>
	<path class="st0" d="M718.7,826.5h-14.9v20.6h-12.7l0-55.1h27.5c10.3,0,18.3,6.1,18.3,17.3C737,819.2,730.6,826.5,718.7,826.5z
		 M717,802.4h-13.1v13.7H717c3.9,0,7.2-2.5,7.2-6.9C724.2,805.1,721.1,802.4,717,802.4z"/>
	<path class="st0" d="M750.2,837.7c-1,3.2-2,6.3-3,9.5h-12.8c6.5-18.4,13.1-36.7,19.7-55.1h14.7c6.6,18.4,13.1,36.7,19.7,55.1H775
		c-1-3.2-2-6.3-3-9.5H750.2z M768.8,828c-2.5-8-5-16-7.6-24h-0.1c-2.5,8-5.2,15.9-7.7,24H768.8z"/>
	<path class="st0" d="M831.8,847.1c-8.5-11.6-16.9-23.2-25.5-34.9c0.1,11.6,0.1,23.2,0.2,34.9h-12.3v-55.1h12.3
		c8.2,11.4,15,20.8,23.2,32.1h-0.2l0-32.2h12.3v52.1l2.5,3H831.8z"/>
	<path class="st0" d="M866.5,847.1l0-44.4h-17.7v-10.7h48v10.7h-17.6l0,44.4H866.5z"/>
</g>
<polygon class="st1" points="692.9,366.9 652.8,436.4 612.7,366.9 "/>
<rect x="642.9" y="317" class="st1" width="19.8" height="53"/>
<polygon class="st1" points="692.9,670.3 652.8,739.7 612.7,670.3 "/>
<rect x="642.9" y="620.4" class="st1" width="19.8" height="53"/>
<line class="st2" x1="481.9" y1="181.8" x2="789.7" y2="278"/>
<line class="st2" x1="390.9" y1="469.1" x2="884.1" y2="591.6"/>
</svg>
