<?xml version="1.0" encoding="UTF-8" standalone="no"?>
<!-- Generator: Adobe Illustrator 14.0.0, SVG Export Plug-In . SVG Version: 6.00 Build 43363)  -->
<svg
   xmlns:dc="http://purl.org/dc/elements/1.1/"
   xmlns:cc="http://creativecommons.org/ns#"
   xmlns:rdf="http://www.w3.org/1999/02/22-rdf-syntax-ns#"
   xmlns:svg="http://www.w3.org/2000/svg"
   xmlns="http://www.w3.org/2000/svg"
   xmlns:sodipodi="http://sodipodi.sourceforge.net/DTD/sodipodi-0.dtd"
   xmlns:inkscape="http://www.inkscape.org/namespaces/inkscape"
   version="1.1"
   id="svg2214"
   sodipodi:version="0.32"
   inkscape:version="0.46"
   sodipodi:docname="VHS_diagram-t-en2.svg"
   sodipodi:docbase="C:\Users\Chris\Desktop"
   inkscape:output_extension="org.inkscape.output.svg.inkscape"
   x="0px"
   y="0px"
   width="7969.484px"
   height="6253.114px"
   viewBox="0 0 7969.484 6253.114"
   enable-background="new 0 0 7969.484 6253.114"
   xml:space="preserve"><metadata
   id="metadata118"><rdf:RDF><cc:Work
       rdf:about=""><dc:format>image/svg+xml</dc:format><dc:type
         rdf:resource="http://purl.org/dc/dcmitype/StillImage" /></cc:Work></rdf:RDF></metadata><defs
   id="defs116"><inkscape:perspective
     sodipodi:type="inkscape:persp3d"
     inkscape:vp_x="0 : 3126.5569 : 1"
     inkscape:vp_y="0 : 1000 : 0"
     inkscape:vp_z="7969.4839 : 3126.5569 : 1"
     inkscape:persp3d-origin="3984.7419 : 2084.3713 : 1"
     id="perspective120" /></defs><sodipodi:namedview
   inkscape:window-height="1018"
   inkscape:window-width="1920"
   inkscape:pageshadow="2"
   inkscape:pageopacity="0.0"
   guidetolerance="10.0"
   gridtolerance="10.0"
   objecttolerance="10.0"
   borderopacity="1.0"
   bordercolor="#666666"
   pagecolor="#ffffff"
   id="namedview114"
   showgrid="false"
   inkscape:zoom="0.19484405"
   inkscape:cx="5402.6781"
   inkscape:cy="3773.9144"
   inkscape:window-x="-8"
   inkscape:window-y="-8"
   inkscape:current-layer="g8" />
<g
   id="g3">
	
		<sodipodi:namedview
   id="base"
   inkscape:current-layer="svg2214"
   inkscape:window-y="-8"
   inkscape:window-x="-8"
   inkscape:window-width="1280"
   inkscape:pageshadow="2"
   inkscape:pageopacity="0.0"
   inkscape:window-height="974"
   bordercolor="#666666"
   inkscape:cy="5261.266"
   borderopacity="1.0"
   objecttolerance="10.0"
   inkscape:cx="18108.688"
   gridtolerance="10.0"
   guidetolerance="10.0"
   inkscape:zoom="0.021130252"
   pagecolor="#ffffff">
		</sodipodi:namedview>
	<path
   d="M6439.984,3070.872c-21.176-4.111-39.987-14.866-53.551-30.618c-22.494-26.12-27.252-65.2-11.717-96.254   c21.873-43.723,73.719-61.288,117.938-39.957c21.835,10.533,38.333,29.779,45.826,53.457c3.635,11.485,4.555,30.664,2.066,43.081   c-3.416,17.063-11.188,31.438-24.063,44.51c-11.903,12.088-24.603,19.472-42,24.42   C6470.322,3070.694,6444.352,3071.72,6439.984,3070.872z M6469.359,3041.899c19.631-4.754,37.139-22.142,43.195-42.899   c2.117-7.252,2.369-21.692,0.518-29.5c-10.043-42.304-60.715-60.824-95.383-34.862c-20.941,15.686-29.606,43.229-21.313,67.743   c3.119,9.217,6.399,14.701,13.179,22.021C6425.057,3041.146,6446.529,3047.429,6469.359,3041.899z M3054.984,4779.473   c69.2-3.346,128.396-18.266,189-47.631c21.188-10.268,28.509-14.328,48.895-27.129c56.904-35.73,108.087-86.084,145.572-143.213   c31.426-47.896,54.375-101.582,66.896-156.5c21.963-96.311,14.465-196.035-21.581-287c-6.602-16.662-19.922-44.721-27.919-58.814   c-64.146-113.043-167.996-194.434-292.863-229.533c-66.595-18.719-144.461-22.365-214-10.02   c-45.254,8.029-84.588,20.859-126.5,41.26c-50.525,24.59-91.389,53.682-130.908,93.203c-39.165,39.164-68.885,80.887-93.127,130.74   c-22.666,46.609-37.303,94.537-44.022,144.168c-5.661,41.803-5.964,88.121-0.834,128c9.104,70.77,32.114,135.313,69.702,195.5   c48.025,76.896,118.622,140.355,199.189,179.053c62.519,30.027,126.795,45.855,196,48.266c4.398,0.152,9.801,0.361,12,0.461   C3032.682,4780.383,3043.71,4780.018,3054.984,4779.473z M6438.984,4483.036c73.625-9.396,137.895-39.865,189.903-90.035   c53.358-51.471,86.798-116.461,98.255-190.969c2.602-16.902,3.635-58.736,1.911-77.209   c-5.979-64.057-30.533-125.162-70.657-175.822c-10.715-13.529-38.604-41.563-51.418-51.688   c-43.335-34.24-91.543-56.58-143.996-66.732c-22.766-4.404-34.547-5.453-62-5.518c-34.507-0.082-53.588,2.264-85.955,10.566   c-36.425,9.344-75.846,27.938-107.545,50.729c-28.471,20.469-55.846,47.898-76.408,76.564   c-36.861,51.387-57.823,111.572-60.939,174.984c-4.088,83.162,21.348,160.875,74.164,226.594   c9.158,11.393,38.857,40.465,50.832,49.754c54.229,42.066,113.379,64.85,183.354,70.609   C6388.867,4485.723,6426.977,4484.569,6438.984,4483.036z M6653.255,3719.651c54.323-38.242,98.647-69.867,98.5-70.277   c-0.224-0.617-39.216-28.201-193.205-136.682l-7.937-5.592l3.104,4.451c1.708,2.447,13.007,18.395,25.106,35.449l22.002,31   l-260.422,0.252l-260.424,0.252v70.996v70.996l260.521,0.252l260.521,0.252l-23.824,33.521   c-27.07,38.094-26.041,36.58-24.123,35.469C6553.854,3789.547,6598.932,3757.893,6653.255,3719.651z M3321.984,3716.983   c31.073-21.889,82.148-57.879,113.5-79.977c31.351-22.1,69.975-49.314,85.83-60.479c23.492-16.541,28.586-20.527,27.5-21.549   c-0.73-0.688-51.057-36.264-111.83-79.057c-60.774-42.795-126.25-88.926-145.5-102.516c-19.25-13.588-35.144-24.572-35.315-24.41   c-0.173,0.164,9.694,14.406,21.93,31.648c12.236,17.242,28.472,40.125,36.081,50.852l13.835,19.5l-381.515,0.25l-381.516,0.252   V3556v104.496l381.506,0.252l381.506,0.252l-36.006,50.742c-19.803,27.904-36.006,51.01-36.006,51.336   c0,0.32,2.138-0.959,4.75-2.855C3263.345,3758.331,3290.91,3738.872,3321.984,3716.983z M6062.574,2967.498   c12.105-3.063,19.816-7.397,28.493-16.013c12.911-12.819,18.567-27.396,17.649-45.479c-0.646-12.77-3.338-21.254-9.811-30.929   c-11.646-17.417-29.52-26.941-50.424-26.878c-21.116,0.063-38.791,9.485-50.424,26.878c-6.348,9.488-9.143,18.172-9.809,30.464   c-0.979,18.076,5.064,33.554,18.142,46.458C6021.264,2966.676,6042.584,2972.558,6062.574,2967.498z M5742.547,2679.483   c12.052-3.082,19.789-7.427,28.475-15.983c15.727-15.495,21.526-36.749,15.967-58.489c-5.293-20.69-22.006-37.438-43.004-43.09   c-8.318-2.238-22.414-2.266-30.875-0.061c-14.264,3.719-26.609,12.604-35.049,25.218c-6.346,9.487-9.141,18.172-9.807,30.464   c-0.979,18.076,5.064,33.553,18.141,46.458C5701.266,2678.679,5722.645,2684.574,5742.547,2679.483z M6041.484,2533.077   c11.844-3.537,18.104-6.465,28.201-13.185c15.279-10.167,26.662-23.446,34.778-40.587c5.833-12.312,8.492-23.417,9.175-38.308   c1.438-31.326-12.236-61.213-37.121-81.138c-14.957-11.977-34.234-19.731-52.799-21.243c-30.508-2.483-58.342,7.52-79.335,28.513   c-30.827,30.825-38.026,76.05-18.37,115.368c12.532,25.063,37.846,45.214,64.471,51.316c3.851,0.884,7.898,1.821,9,2.085   c1.101,0.264,8.976,0.342,17.5,0.171C6030.346,2535.81,6033.727,2535.396,6041.484,2533.077z M5687.251,2200.031   c29.56-6.265,50.397-33.409,48.39-63.031c-2.778-40.957-43.73-67.499-81.951-53.113c-26.033,9.8-41.926,36.192-38.569,64.061   c1.699,14.112,7.16,25.083,17.751,35.657C5647.62,2198.33,5667.268,2204.267,5687.251,2200.031z M5531.204,1971.629   c4.554-2.679,42.03-24.344,83.28-48.145c41.25-23.802,87.601-50.567,103-59.483c15.398-8.915,63.324-36.579,106.5-61.476   c43.176-24.897,78.854-45.589,79.289-45.984c0.434-0.396-23.353-42.528-52.854-93.63c-29.504-51.104-56.153-97.274-59.222-102.607   c-3.07-5.333-5.834-9.543-6.146-9.354c-1.07,0.644-249.527,144.141-315.311,182.105c-36.158,20.869-65.744,38.255-65.75,38.635   c-0.004,0.381,4.885,9.153,10.861,19.5c5.979,10.347,31.895,55.262,57.586,99.812c48.855,84.713,49.316,85.5,50.035,85.5   C5522.723,1976.5,5526.65,1974.308,5531.204,1971.629z M5433.129,1705.866c24.396-14.102,81.932-47.327,127.855-73.842   c209.006-120.662,209.172-120.762,208.735-122.423c-0.336-1.28-116.183-202.758-117.255-203.928   c-0.164-0.179-29.701,16.657-65.643,37.412c-76.176,43.994-175.123,101.126-257.842,148.875   c-32.174,18.574-58.582,33.839-58.685,33.922c-0.103,0.084,11.246,19.944,25.218,44.134   c13.971,24.189,40.604,70.402,59.186,102.695c18.58,32.292,33.848,58.729,33.926,58.75   C5388.707,1731.483,5408.732,1719.965,5433.129,1705.866z M4461.982,1414.25l0.002-74.75h-25.5h-25.5v74.75l-0.002,74.75h25.5h25.5   V1414.25z M4394.984,1414v-74.5h-26h-26v74.5v74.5h26h26V1414z M3770.484,2074.56c100.279-8.111,195.271-34.36,282.521-78.069   c23.67-11.857,61.231-33.354,64.233-36.765c1.402-1.593,31.154-51.604,188.566-316.954c31.725-53.479,57.979-97.239,58.346-97.25   c1.334-0.039,22.834,13.082,22.834,13.937c0,0.483-19.188,33.203-42.643,72.711c-61.313,103.286-68.848,115.979-122.741,206.74   c-26.751,45.049-48.507,82.037-48.351,82.194c0.16,0.159,7.479-5.469,16.26-12.505c122.938-98.479,214.047-236.645,255.949-388.127   c2.486-8.991,4.521-16.715,4.521-17.159c0-0.445-21.346-0.813-47.436-0.813h-47.436L4331,1536.75   c-13.264,18.838-39.953,56.84-59.314,84.45c-19.36,27.608-35.428,50.208-35.703,50.218c-0.272,0.009-23-31.992-50.5-71.113   s-56.992-81.068-65.537-93.22c-18.155-25.813-17.74-25.182-15.867-24.031c0.773,0.476,13.104,9.169,27.404,19.322   c14.301,10.152,28.477,20.212,31.5,22.354l5.5,3.896l0.252-246.063l0.252-246.063h66.996h66.996l0.252,246.014l0.252,246.016   l18-12.766l18-12.764l-5.25-0.302l-5.25-0.305v-88.445V1325.5h72.146h72.146l-0.599-28.25   c-2.764-130.729-39.276-257.244-107.004-370.75c-81.33-136.308-207.041-246.385-352.466-308.631   c-75.751-32.424-149.366-50.902-235.229-59.044c-14.513-1.377-28.412-1.757-64.5-1.768c-48.118-0.012-60.821,0.701-99,5.561   c-134.479,17.108-264.918,72.077-372,156.758c-64.054,50.654-117.648,108.896-163,177.124c-18.944,28.503-29.23,46.209-45.02,77.5   c-21.479,42.574-36.471,80.029-50.928,127.25l-0.688,2.25h61.549h61.549l0.27,21.248l0.271,21.248l52.448-74.498   c28.847-40.974,54.046-76.842,56-79.707c1.954-2.864,3.861-5.114,4.24-5c0.789,0.239,5.937,7.49,79.129,111.471   c29.525,41.944,53.683,76.521,53.683,76.836c0,0.315-2.138-0.972-4.75-2.856c-18.603-13.438-60.195-42.739-60.67-42.739   c-0.318,0-0.58,110.7-0.58,246v246h-66.998h-66.998l-0.252-246.063l-0.252-246.063l-22.5,15.925l-22.5,15.926l-0.259,59.639   l-0.258,59.638h-73.478h-73.478l-0.267-28.75l-0.267-28.75l-1.229,11.5c-3.185,29.779-3.755,42.295-3.741,82   c0.015,42.186,0.705,55.592,4.584,89c13.397,115.368,53.573,226.696,117.246,324.901c4.423,6.818,8.188,11.954,8.371,11.409   c0.183-0.546-2.815-20.074-6.662-43.4c-8.721-52.906-18.863-114.386-42.534-257.817c-10.204-61.823-18.423-112.537-18.265-112.693   c0.933-0.934,26.048-4.469,26.688-3.76c0.428,0.476,2.398,10.985,4.382,23.36c1.98,12.375,13.307,81.225,25.165,153   c11.857,71.775,27.396,166.05,34.525,209.5c7.131,43.45,13.198,80.003,13.48,81.229c1.816,7.852,60.384,69.808,92.25,97.593   c129.819,113.189,292.039,178.552,464.238,187.049C3690.849,2076.553,3757.357,2075.622,3770.484,2074.56z M3513.51,1838.002   c-51.686-36.487-94.104-66.74-94.27-67.229c-0.164-0.487,29.053-21.563,64.923-46.829c35.87-25.27,78.065-55.013,93.771-66.097   c15.701-11.084,28.709-20.001,28.9-19.813c0.297,0.286-18.421,27.006-39.908,56.969l-5.736,8l246.396,0.252l246.396,0.252v66.996   v66.996l-246.407,0.252l-246.407,0.25l23.398,33c22.034,31.077,23.799,33.62,23.168,33.421   C3607.595,1904.378,3565.197,1874.489,3513.51,1838.002z M3862.92,902.75c3.787-5.362,14.08-19.875,22.873-32.25l15.988-22.5   l-245.898-0.252l-245.896-0.252V780v-67.496l245.954-0.252L3901.892,712l-22.023-31c-12.112-17.05-22.467-31.805-23.009-32.788   c-0.634-1.146,0.735-0.568,3.819,1.614c2.643,1.872,30.903,21.757,62.805,44.188c31.898,22.434,63.176,44.46,69.5,48.95   c6.324,4.491,20.646,14.605,31.824,22.478c11.18,7.87,19.955,14.654,19.5,15.077c-0.686,0.641-63.148,44.699-167.487,118.142   c-10.815,7.61-19.917,13.841-20.228,13.841C3856.286,912.5,3859.132,908.112,3862.92,902.75z M3024.984,1192v-74.5h-26h-26v74.5   v74.5h26h26V1192z M3091.984,1192v-74.5h-25.5h-25.5v74.5v74.5h25.5h25.5V1192z M4999.484,1156.033   c50.695-11.425,88.619-45.084,106.119-94.191c2.766-7.761,2.797-8.135,3.158-36.135c0.199-15.563-0.109-32.979-0.688-38.706   c-2.607-25.921-19.357-55.029-44.27-76.93c-17.982-15.813-40.32-26.741-65.949-32.268c-11.854-2.555-41.888-2.55-53.875,0.012   c-10.733,2.294-23.984,6.691-33.773,11.217c-26.146,12.079-52.445,37.836-65.674,64.311   c-26.635,53.311-17.227,117.73,23.439,160.496c21.99,23.127,47.314,36.918,78.508,42.755   C4958.833,1158.904,4988.12,1158.595,4999.484,1156.033z M4588.484,1144.001c22.674-4.744,40.994-22.258,46.641-44.585   c8.073-31.924-10.542-63.976-42.691-73.509c-7.951-2.357-23.791-2.344-31.949,0.025c-15.168,4.41-29.609,15.649-36.84,28.667   c-4.779,8.61-7.66,20.017-7.66,30.351C4515.984,1123.055,4551.264,1151.788,4588.484,1144.001z M2828.984,1172.445   c-37.691-3.58-68.203-30.519-77.688-68.583c-2.544-10.213-2.271-30.373,0.553-40.862c10.851-40.298,44.84-66.5,86.266-66.5   c24.271,0,44.269,8.403,61.866,26c18.739,18.737,27.08,40.557,25.729,67.304   C2923.196,1139.476,2879.042,1177.201,2828.984,1172.445z M7768.516,6182.278c19.238-3.654,37.402-10.098,52.17-18.504   c42.758-24.342,71.213-66.381,78.508-115.984c1.914-13.02,1.914-3128.56,0-3141.579c-3.848-26.163-13.676-50.682-28.547-71.211   c-6.795-9.381-22.428-25.397-31.662-32.438c-21.93-16.722-45.635-26.664-74-31.039c-4.307-0.666-298.847-1.008-873-1.017   c-476.574-0.007-867.397-0.003-868.5,0.009c-1.1,0.014,6.775,4.553,17.5,10.09c23.729,12.248,36.207,19.207,50,27.879   c16.451,10.342,24.129,14.561,60.972,33.502c63.267,32.531,83.116,44.854,106.888,66.342   c19.434,17.568,109.59,120.475,208.229,237.673c71.654,85.137,94.695,112.65,152.014,181.5   c35.481,42.625,84.976,102.25,109.98,132.5c144.299,174.551,133.809,162.17,146.586,173c14.6,12.373,51.258,48.824,65.593,65.221   c28.828,32.973,56.847,71.465,77.726,106.779c4.551,7.699,9.25,15.574,10.439,17.5c3.967,6.412,23.32,45.307,29.607,59.5   c32.506,73.383,51.549,148.539,59.168,233.5c1.737,19.383,1.746,94.471,0.014,114c-10.045,113.15-41.729,213.018-97.721,308   c-46.889,79.539-111.244,151.529-185.498,207.502c-100.328,75.629-218.561,123.783-340.998,138.885   c-36.188,4.463-47.541,5.105-90.498,5.109c-43.049,0.004-57.219-0.779-91.129-5.033   c-197.334-24.758-376.047-131.418-492.545-293.963c-79.289-110.629-124.275-237.719-132.924-375.5   c-1.492-23.793-0.605-84.834,1.537-106c4.555-44.928,9.556-74.186,19.23-112.5c60.999-241.518,244.762-434.986,483.33-508.859   c91.253-28.256,188.667-37.818,286-28.072c97.624,9.773,196.885,41.623,281.367,90.277c8.727,5.027,15.432,8.58,14.9,7.896   c-0.533-0.684-15.072-18.344-32.313-39.242c-17.237-20.9-37.442-45.396-44.899-54.438   c-71.265-86.408-241.227-289.506-300.479-359.063c-80.051-93.968-141.845-163.8-156.237-176.563   c-21.279-18.87-44.351-33.136-94.764-58.601c-22.91-11.571-23.834-11.941-21.712-8.711c3.765,5.729,6.771,12.057,9.448,19.874   c18.217,53.176-18.622,110.251-74.811,115.908c-32.67,3.289-64.676-11.866-82.832-39.224   c-28.346-42.704-13.729-101.36,31.4-126.043c12.997-7.105,22.607-9.741,38.432-10.539l12-0.604l-17-8.884   c-45.01-23.514-56.695-29.774-65.283-34.983l-9.283-5.631l-2160.634-0.004c-1188.347-0.002-2160.846,0.213-2161.105,0.475   c-0.571,0.571,0.182,5.513,7.851,51.527c14.016,84.088,32.72,182.382,60.801,319.5c6.082,29.699,16.058,78.521,22.164,108.5   c26.85,131.748,38.352,183.594,65.887,297c50.373,207.451,126.188,476.725,167.141,593.656   c18.222,52.023,25.313,70.742,26.056,68.746c0.391-1.047,1.654-10.004,2.813-19.902c4.988-42.662,14.649-92.742,26.554-137.609   c37.286-140.555,103.432-271.727,194.618-385.941c127.179-159.299,299.231-279.135,491.426-342.279   c108.304-35.582,214.771-52.621,329.047-52.656c200.797-0.064,391.671,54.934,561.423,161.768   c65.224,41.049,123.797,87.984,180.583,144.703c42.178,42.127,69.025,73.033,102.536,118.037   c58.14,78.078,105.427,164.771,140.007,256.682c70.102,186.324,85.391,391.734,43.789,588.303   c-30.057,142.016-90.816,278.689-176.266,396.5c-50.941,70.229-112.068,135.688-178.545,191.199   c-163.396,136.438-363.738,219.709-575.574,239.229c-36.688,3.381-53.028,4.043-98.5,3.992   c-67.43-0.076-112.109-3.748-176.32-14.496c-263.732-44.143-504.543-192.084-665.859-409.066   c-114.412-153.896-183.094-331.756-202.289-523.855c-3.1-31.02-3.692-44.432-4.216-95l-0.528-51.5l-15.004-40   c-19.578-52.195-27.452-74.32-46.627-131c-7.82-23.125-33.129-107.246-52.495-174.5c-58.521-203.211-113.157-419.279-148.059-585.5   c-22.313-106.285-69.739-341.589-81.108-402.443c-9.247-49.486-24.033-135.006-29.189-168.821l-0.803-5.265l-201.5,0.021   c-216.4,0.021-207.624-0.173-227.295,5.007c-24.921,6.561-47.705,19.474-67.025,37.985c-23.998,22.996-37.933,47.638-45.943,81.243   l-2.209,9.271l-0.271,1569c-0.27,1550.537-0.25,1569.135,1.674,1580.5c11.893,70.27,70.833,124.365,141.572,129.93   c5.5,0.436,1480.601,0.736,3278,0.676C7574.496,6184,7759.996,6183.897,7768.516,6182.278z M1204.579,6252.374   c-51.778-4.982-101.029-28.295-138.104-65.367c-34.727-34.725-56.301-77.912-64.196-128.506c-1.723-11.027-1.795-76.193-1.795-1581   c0-1284.396,0.235-1571.133,1.304-1578.5c7.701-53.196,29.009-96.225,65.795-132.867c29.57-29.455,68.104-50.656,108.369-59.626   c24.91-5.549,20.009-5.346,138.782-5.739c60.638-0.198,110.25-0.559,110.25-0.795s-1.799-2.804-3.999-5.7   c-5.77-7.604-10.485-17.045-13.646-27.31c-2.541-8.257-2.757-10.263-2.744-25.463c0.014-15.308,0.214-17.113,2.788-25   c13.015-39.857,48.376-64.74,89.101-62.688c23.709,1.192,43.433,10.357,60.141,27.946c29.545,31.104,31.998,79.487,5.777,113.992   l-3.609,4.75h22.596c19.217,0,22.596-0.22,22.596-1.471c0-0.809-1.346-12.421-2.99-25.805   c-5.34-43.408-9.123-84.812-11.095-121.314c-1.597-29.605-0.706-90.793,1.507-103.396c9.043-51.531,31.821-95.435,81.988-158.015   c5.512-6.875,21.296-26,35.078-42.5c43.631-52.235,53.029-64.851,79.729-107c10.104-15.949,19.25-30.33,20.326-31.955l1.957-2.955   l-4.5,2.761c-6.722,4.124-14.507,7.481-24,10.354c-7.287,2.207-10.492,2.586-22.5,2.663c-14.897,0.097-20.212-0.847-33.763-5.987   c-8.549-3.242-20.337-10.907-28.021-18.222c-34.817-33.128-36.277-89.235-3.229-124.035c11.73-12.351,23.771-19.771,40.218-24.791   c7.927-2.419,10.329-2.685,24.297-2.685c14.024,0,16.354,0.26,24.5,2.732c25.229,7.666,44.886,24.837,56.003,48.926   c5.88,12.738,6.957,18.358,6.979,36.393c0.013,8.91,0.306,15.885,0.652,15.5c1.947-2.151,115.638-174.953,135.993-206.7   c20.781-32.413,23.231-36.541,22.264-37.499c-0.489-0.481-19.115-11.416-41.391-24.294   c-42.432-24.528-282.668-163.243-339.5-196.026c-18.149-10.472-33.207-19.201-33.462-19.403c-0.255-0.201,0.016-1.134,0.601-2.071   c0.584-0.938,20.771-35.904,44.86-77.704s44.157-76.402,44.599-76.896c0.46-0.519,1.93-0.159,3.458,0.843   c1.462,0.958,3.022,1.362,3.469,0.898c0.446-0.465,18.698-31.895,40.563-69.845c21.863-37.949,39.879-69.166,40.035-69.368   c0.155-0.203,4.919,2.324,10.582,5.619c5.664,3.294,54.172,31.316,107.797,62.273c53.625,30.956,122.023,70.455,152,87.775   c43.232,24.98,122.583,70.791,126.193,72.853c1.42,0.812,19.457-56.771,29.727-94.891c12.541-46.559,22.592-88.524,36.581-152.764   c4.731-21.725,12.61-57.725,17.509-80c13.133-59.727,14.208-68.919,18.018-154c3.383-75.598,11.199-110.345,30.716-136.525   c26.403-35.428,74.226-58.181,131.529-62.582c33.128-2.545,62.265,2.591,126.206,22.245   c64.995,19.979,146.816,50.18,316.021,116.638c33.551,13.178,69.775,27.245,80.5,31.263c10.728,4.02,19.887,7.637,20.357,8.041   c1.188,1.022-8.378,26.129-9.758,25.603c-0.604-0.232-10.102-3.819-21.102-7.974c-11-4.151-43.625-16.849-72.5-28.214   c-142.242-55.984-218.678-84.698-282.227-106.02l-27.727-9.305l9.502,10.619c20.536,22.951,32.768,46.693,40.073,77.789   c2.646,11.271,2.802,13.209,2.813,35.422c0.013,25.922-1.03,33.304-7.498,53c-24.159,73.603-96.782,122.23-173.284,116.033   c-56.379-4.566-103.983-34.063-133.403-82.658c-3.806-6.282-5.251-8.012-5.254-6.271c-0.011,5.563-3.189,36.423-5.038,48.896   c-1.103,7.427-4.479,24.75-7.508,38.5c-3.027,13.75-9.065,41.427-13.42,61.5c-28.979,133.625-45.597,198.951-67.95,267.116   c-3.896,11.874-7.08,22.021-7.08,22.554c0,0.528,1.807,1.979,4.015,3.22c2.208,1.239,3.846,2.562,3.639,2.935   s-7.492,13.054-16.188,28.179c-8.698,15.125-18.15,32.676-21.007,39c-22.202,49.176-52.478,104.688-96.804,177.5   c-38.46,63.178-76.055,121.423-164.123,254.279c-36.01,54.323-73.226,111.412-86.356,132.473   c-27.819,44.613-42.112,63.865-86.453,116.444c-10.296,12.208-18.721,22.417-18.721,22.687s3.037-1.293,6.75-3.473   c7.454-4.371,18.478-8.193,28.813-9.994c8.596-1.498,28.902-0.616,36.938,1.601c30.154,8.32,53.972,31.926,62.74,62.188   c1.928,6.649,2.26,10.148,2.26,23.798c0,15.418-0.118,16.368-3.318,26.142c-10.302,31.462-36.367,54.547-68.182,60.38   c-3.572,0.655-11.265,1.179-17.089,1.161c-40.245-0.118-75.563-28.241-84.999-67.684c-3.664-15.319-2.483-37.74,2.625-49.914   c1.728-4.11-1.505-0.246-9.716,11.623c-25.575,36.973-39.407,67.301-45.797,100.403c-7.194,37.286-3.824,122.462,8.98,226.925   c1.646,13.439,2.995,24.893,2.995,25.448c0,0.687,659.205,1.009,2029.25,0.995l2029.25-0.018l-5.238-2.891   c-22.084-12.176-38.133-34.162-43.334-59.363c-10.014-48.523,22.561-96.248,71.512-104.772c11.121-1.937,30.295-0.739,40.563,2.53   c29.891,9.521,51.576,31.819,60.021,61.706c2.604,9.21,3.597,25.999,2.104,35.531c-4.289,27.385-20.841,51.389-44.389,64.37   l-5.236,2.889l66.285,0.02l66.285,0.019l-1.203-2.25c-0.661-1.237-5.096-8.55-9.854-16.25   c-21.15-34.233-76.994-128.336-125.213-211c-188.233-322.699-396.762-697.193-527.311-947   c-49.299-94.335-101.33-200.059-109.748-223c-14.596-39.78-19.691-77.438-19.758-146l-0.035-35l-4.637,5.5   c-56.099,66.547-152.746,80.38-224.422,32.122c-37.373-25.163-62.375-62.518-72.031-107.622c-2.068-9.662-2.354-13.675-2.354-33   c0-19.33,0.285-23.331,2.354-32.971c4.868-22.688,13.073-42.206,25.865-61.529c5.73-8.654,10.975-14.852,21.193-25.042   c18.424-18.371,33.229-28.295,55.58-37.251c22.181-8.887,39.479-12.143,64.729-12.181c12.003-0.02,16.851-0.32,15-0.937   c-4.149-1.382-37.479-1.206-48.229,0.255c-67.797,9.21-172.205,37.069-270.5,72.181c-46.604,16.646-94.975,36.613-109.945,45.39   c-15.322,8.979-34.005,31.243-48.461,57.75l-4.182,7.666l8.295-8.252c12.265-12.201,27.809-20.679,44-23.999   c9.617-1.972,27.078-2.015,36.162-0.09c49.484,10.482,80.424,60.306,67.615,108.884c-11.125,42.184-51.156,69.968-94.41,65.523   c-45.109-4.638-79.551-42.687-79.563-87.897c-0.002-6.903,1.068-16.077,2.496-21.347c0.318-1.187-3.215,5.186-7.855,14.154   c-4.643,8.972-8.699,16.571-9.021,16.895c-0.32,0.318-1.279,0.005-2.132-0.702c-2.453-2.036-2.826-0.511-1.146,4.687   c5.014,15.5,14.362,56.227,19.062,83.013c12.532,71.478,14.829,150.474,6.521,224.303   c-25.703,228.404-150.688,434.491-341.967,563.87l-16.394,11.088l-59.823,100.771c-32.899,55.425-64.91,109.319-71.131,119.771   s-40.934,68.95-77.139,130s-65.952,111.164-66.104,111.364c-0.482,0.645-23.379-13.127-23.379-14.063   c0-0.496,23.7-40.814,52.666-89.602s83.91-141.352,122.099-205.7c38.189-64.35,70.306-118.428,71.368-120.173   c1.871-3.066,1.39-2.894-14.349,5.186c-70.821,36.354-148.859,62.124-228.284,75.392c-99.896,16.684-203.567,13.979-301.604-7.861   c-89.377-19.914-174.429-55.115-251.396-104.048c-52.736-33.527-106.846-78.029-148.021-121.739   c-6.863-7.286-12.479-12.727-12.479-12.092c0,0.636,4.274,27.071,9.498,58.746c18.216,110.462,42.573,258.01,52.017,315.092   c34.109,206.214,33.207,200.458,31.553,201.232c-1.588,0.741-25.314,4.903-25.61,4.49c-0.156-0.219-5.103-30.076-30.924-186.725   c-6.847-41.524-21.472-130.176-32.5-197c-11.031-66.825-24.396-147.819-29.696-179.988l-9.643-58.488l-10.17-13.512   c-86.152-114.466-139.222-247.604-154.469-387.536c-3.586-32.909-4.478-50.533-4.447-87.976   c0.043-59.089,4.437-103.294,15.832-159.356c30.299-149.042,105.209-287.758,214.514-397.219   c187.859-188.129,455.923-268.158,718.048-214.369c169.16,34.712,324.519,126.846,438.443,260.015   c63.834,74.614,112.554,159.756,146.164,255.432c0.301,0.854,5.801-9.083,12.795-23.121c6.746-13.542,15.726-30.418,19.951-37.501   c18.521-31.041,38.235-51.611,59.912-62.511c31.584-15.879,102.187-43.076,160.235-61.727   c107.71-34.602,195.12-54.908,248.533-57.745c55.229-2.932,116.276,31.922,151.466,86.475   c10.835,16.797,17.861,35.421,21.561,57.13c1.078,6.325,2.845,15.808,3.926,21.071c4.188,20.387,4.404,45.133,0.584,66.429   c-3.438,19.163-5.226,124.139-2.679,157.436c2.313,30.276,6.963,55.563,14.224,77.354c2.158,6.485,8.736,22.235,14.619,35   c11.201,24.313,61.117,124.688,80.515,161.901l11.308,21.692l52.476-30.268c28.858-16.646,97.923-56.523,153.474-88.616   c185.373-107.092,200.844-115.993,201.115-115.721c0.147,0.146,10.129,17.357,22.179,38.244   c12.05,20.886,44.7,77.456,72.558,125.711c27.857,48.256,50.649,88.203,50.649,88.771c0,0.569-1.125,1.548-2.5,2.174   c-1.375,0.627-2.5,1.459-2.5,1.853c0,0.391,14.908,26.529,33.129,58.089c18.222,31.559,48.433,83.929,67.138,116.379   s35.084,60.859,36.397,63.132l2.39,4.133l-36.775,21.262c-20.229,11.691-64.451,37.235-98.275,56.764   c-33.824,19.527-96.148,55.522-138.5,79.99c-42.351,24.468-90.726,52.378-107.5,62.021c-16.773,9.646-30.871,17.854-31.324,18.243   c-0.455,0.388,4.313,9.874,10.599,21.08s20.124,35.856,30.758,54.78l19.334,34.404l1.183-3.416   c4.158-12.013,12.713-25.045,22.574-34.396c9.127-8.653,15.902-13.136,26.879-17.774c23.584-9.974,53.362-8.75,75.334,3.093   c42.976,23.163,59.535,75.784,37.342,118.647c-8.828,17.055-22.849,30.717-40.021,38.999c-10.487,5.062-17.517,7.046-29.903,8.452   c-8.127,0.923-22.744,0.117-28.125-1.551c-1.03-0.319-1.648-0.195-1.373,0.274c0.274,0.472,11.42,19.982,24.766,43.357   c41.725,73.085,122.538,212.651,124.202,214.5c0.563,0.626,0.705,0.438,0.377-0.5c-0.287-0.825-1.24-6.45-2.117-12.5   c-2.135-14.733-2.125-44.382,0.021-59c7.941-54.116,34.414-101.604,76.002-136.341c64.912-54.219,157.121-65.17,233-27.677   c65.342,32.288,109.81,94.255,118.985,165.817c1.737,13.547,1.972,39.035,0.478,52.197   c-9.476,83.446-67.019,154.228-146.733,180.485c-67.64,22.28-139.953,10.632-196.61-31.674c-5.437-4.06-10.002-7.252-10.146-7.097   c-0.275,0.296,30.529,51.586,46.118,76.783l8.97,14.5l917.474,0.569c700.095,0.438,919.013,0.854,923.972,1.755   c36.814,6.703,61.498,15.355,86,30.146c60.516,36.525,98.611,94.295,109.166,165.527c1.107,7.473,1.334,275.697,1.334,1579.5   c0,1519.906-0.059,1570.869-1.838,1582c-10.484,65.561-45.52,120.604-99.6,156.486c-26.756,17.754-56.941,29.34-91.564,35.145   c-10.674,1.789-107.869,1.852-3287,1.975C2676.302,6253.174,1209.508,6252.848,1204.579,6252.374z M1507.471,2700.503   c26.298-6.727,45.479-31.398,45.479-58.503c0-16.01-6.211-30.802-17.819-42.44c-12.515-12.549-25.626-18.015-43.283-18.045   c-22.898-0.039-44.174,13.146-53.776,33.332c-4.966,10.438-6.427,16.961-6.3,28.148c0.104,9.191,2.412,19.02,6.232,26.531   c3.221,6.333,10.841,15.622,16.215,19.768C1469.783,2701.299,1488.752,2705.291,1507.471,2700.503z M1771.484,2423.995   c14.774-3.102,29.791-13.557,38.472-26.787c14.66-22.342,12.054-53.295-6.159-73.172c-23.753-25.922-63.234-26.956-87.633-2.297   c-18.333,18.529-23.104,45.229-12.232,68.46C1715.914,2415.806,1743.873,2429.793,1771.484,2423.995z M1772.797,2092.981   c31.081-7.326,51.753-38.938,45.768-69.981c-5.563-28.858-30.269-49.5-59.238-49.5c-10.983,0-17.213,1.403-27.035,6.092   c-14.698,7.018-25.845,19.707-30.961,35.251c-2.247,6.825-2.688,9.953-2.707,19.157c-0.021,9.429,0.365,12.127,2.711,18.89   c1.503,4.34,3.948,9.965,5.434,12.5c4.055,6.918,14.876,17.317,22.335,21.459   C1741.773,2093.886,1758.817,2096.278,1772.797,2092.981z M2042.633,1720.94c27.352-47.321,30.948-54.031,29.5-55.017   c-0.906-0.617-14.923-8.774-31.146-18.13c-16.227-9.354-60.102-34.688-97.5-56.293c-73.25-42.316-140.106-80.927-207.214-119.668   c-23.22-13.404-42.839-24.609-43.6-24.901c-0.954-0.364-4.183,4.362-10.426,15.271c-4.975,8.688-19.024,33.076-31.223,54.193   c-18.115,31.359-21.938,38.619-20.858,39.631c0.725,0.681,20.669,12.389,44.318,26.019c23.648,13.63,61.676,35.567,84.5,48.751   c22.823,13.184,70.75,40.863,106.5,61.512c35.75,20.649,82.773,47.809,104.5,60.352c21.726,12.544,39.948,22.666,40.5,22.49   C2011.035,1774.978,2025.502,1750.582,2042.633,1720.94z M2104.17,1628.75c37.582-65.293,38.385-66.783,45.25-84.01   c3.783-9.493,6.695-17.434,6.472-17.645c-1.468-1.38-374.312-216.412-375.849-216.767c-0.955-0.22-4.856,5.566-11.574,17.169   c-39.277,67.839-51.53,89.184-51.742,90.143c-0.304,1.373-7.901-3.093,142.758,83.888c69.853,40.322,151.75,87.633,182,105.129   s55.469,31.816,56.037,31.826C2098.092,1638.493,2101.084,1634.112,2104.17,1628.75z M2462.484,1136.007   c47.03-6.852,87.323-36.188,108.021-78.646c9.444-19.374,13.86-38.96,13.836-61.359c-0.021-17.32-1.778-28.655-6.904-44.495   c-15.952-49.29-59.18-86.646-110.38-95.395c-12.406-2.12-35.736-2.12-48.146,0c-72.294,12.35-124.157,79.907-116.985,152.39   c3.309,33.437,17.02,62.938,40.018,86.114c12.67,12.765,23.73,20.733,39.512,28.467   C2406.769,1135.487,2435.066,1140.001,2462.484,1136.007z M2850.355,1144.01c21.569-4.568,40.52-22.741,46.043-44.152   c1.988-7.712,2.041-23.058,0.101-30.355c-6.305-23.722-26.381-41.567-50.655-45.024c-11.142-1.587-25.209,0.637-34.803,5.496   c-25.172,12.756-38.485,40.315-32.621,67.528C2785.406,1129.913,2817.857,1150.896,2850.355,1144.01z"
   id="path6" />
	<g
   id="g8">
		<text
   transform="matrix(1 0 0 1 1642.261 141.5962)"
   font-family="'MyriadPro-Regular'"
   font-size="160"
   id="text10">Supply</text>

		<text
   transform="matrix(1 0 0 1 1514.5823 333.5962)"
   font-family="'MyriadPro-Regular'"
   font-size="160"
   id="text12">Adjustable</text>

		<text
   transform="matrix(1 0 0 1 1465.7834 525.5962)"
   font-family="'MyriadPro-Regular'"
   font-size="160"
   id="text14">Guide Roller</text>

		<text
   transform="matrix(1 0 0 1 2880.8665 156.3657)"
   font-family="'MyriadPro-Regular'"
   font-size="160"
   id="text16">Supply</text>

		<text
   transform="matrix(1 0 0 1 2821.5862 348.3657)"
   font-family="'MyriadPro-Regular'"
   font-size="160"
   id="text18">Slant Pin</text>

		<text
   transform="matrix(1 0 0 1 712.0085 1260.3921)"
   font-family="'MyriadPro-Regular'"
   font-size="160"
   id="text20">Full-Track</text>

		<text
   transform="matrix(1 0 0 1 666.4895 1452.3921)"
   font-family="'MyriadPro-Regular'"
   font-size="160"
   id="text22">Erase Head</text>

		<text
   transform="matrix(1 0 0 1 2075.968 2190.4487)"
   font-family="'MyriadPro-Regular'"
   font-size="160"
   id="text24">More than</text>

		<text
   transform="matrix(1 0 0 1 2079.8088 2382.4487)"
   font-family="'MyriadPro-Regular'"
   font-size="160"
   id="text26">180° Head</text>

		<text
   transform="matrix(1 0 0 1 2243.3245 2574.4487)"
   font-family="'MyriadPro-Regular'"
   font-size="160"
   id="text28">Wrap</text>

		<text
   transform="matrix(1 0 0 1 3336.3342 2427.3516)"
   font-family="'MyriadPro-Regular'"
   font-size="160"
   id="text30">Video</text>

		<text
   transform="matrix(1 0 0 1 3304.2551 2619.3516)"
   font-family="'MyriadPro-Regular'"
   font-size="160"
   id="text32"> Heads</text>

		<text
   transform="matrix(1 0 0 1 3432.761 1188.4712)"
   font-family="'MyriadPro-Regular'"
   font-size="160"
   id="text34">Rotating</text>

		<text
   font-size="160"
   id="text36"
   x="3300.1213"
   y="1380.4712"
   style="font-size:160px;font-family:MyriadPro-Regular">Video-Head</text>

		<text
   font-size="160"
   id="text38"
   x="3516.8391"
   y="1572.4712"
   style="font-size:160px;font-family:MyriadPro-Regular">Drum</text>

		<g
   id="g40">
			<g
   id="g42">
				<text
   transform="matrix(1 0 0 1 5970.998 5175.4204)"
   font-family="'MyriadPro-Regular'"
   font-size="160"
   id="text44">Take-Up Reel</text>

				<text
   transform="matrix(1 0 0 1 2737.5842 5628.6587)"
   font-family="'MyriadPro-Regular'"
   font-size="160"
   id="text46">Supply Reel</text>

			</g>
			<text
   font-size="160"
   id="text48"
   x="5686.6602"
   y="6000.4946"
   style="font-size:160px;font-family:MyriadPro-Regular">VHS - Video Cassette Case</text>

			<text
   font-size="160"
   id="text50"
   x="6820.9453"
   y="3045.4058"
   style="font-size:160px;font-family:MyriadPro-Regular">Tension Pin &amp;</text>

			<text
   font-size="160"
   id="text52"
   x="6910.623"
   y="3237.4058"
   style="font-size:160px;font-family:MyriadPro-Regular">Guide Post</text>

		</g>
		<g
   id="g54">
			<path
   d="M5860.182,586.816c-4.252-0.867-5.724-9.79-2.195-13.316c2.441-2.443,8.592-2.675,11.775-0.443     c1.774,1.243,2.225,2.529,2.225,6.378c0,2.651-0.563,5.285-1.25,5.854C5869.171,586.58,5863.236,587.44,5860.182,586.816z"
   id="path56" />
			<text
   transform="matrix(1 0 0 1 34.6667 1900.3696)"
   font-family="'MyriadPro-Regular'"
   font-size="160"
   id="text58">Supply-Guide Pin</text>

			<text
   transform="matrix(1 0 0 1 227.0627 2092.3696)"
   font-family="'MyriadPro-Regular'"
   font-size="160"
   id="text60">Tension Pin</text>

			<text
   transform="matrix(1 0 0 1 251.3816 2284.3696)"
   font-family="'MyriadPro-Regular'"
   font-size="160"
   id="text62">Guide Post</text>

			<text
   transform="matrix(1 0 0 1 4666.1426 2176.6318)"
   font-family="'MyriadPro-Regular'"
   font-size="160"
   id="text64">Take-Up</text>

			<text
   transform="matrix(1 0 0 1 4621.582 2368.6318)"
   font-family="'MyriadPro-Regular'"
   font-size="160"
   id="text66">Guide Pin</text>

			<text
   transform="matrix(1 0 0 1 4525.8906 2609.4995)"
   font-family="'MyriadPro-Regular'"
   font-size="160"
   id="text68">Capstan</text>

			<text
   transform="matrix(1 0 0 1 6979.625 2013.2803)"
   font-family="'MyriadPro-Regular'"
   font-size="160"
   id="text70">Pinch</text>

			<text
   transform="matrix(1 0 0 1 6974.5859 2205.2803)"
   font-family="'MyriadPro-Regular'"
   font-size="160"
   id="text72">Roller</text>

			<text
   transform="matrix(1 0 0 1 6811.6953 1206.4556)"
   font-family="'MyriadPro-Regular'"
   font-size="160"
   id="text74">Audio and</text>

			<text
   transform="matrix(1 0 0 1 6704.9785 1398.4551)"
   font-family="'MyriadPro-Regular'"
   font-size="160"
   id="text76">Control-Track</text>

			<text
   transform="matrix(1 0 0 1 6981.6133 1590.4551)"
   font-family="'MyriadPro-Regular'"
   font-size="160"
   id="text78">Head</text>

			<text
   transform="matrix(1 0 0 1 4363.2188 328.4478)"
   font-family="'MyriadPro-Regular'"
   font-size="160"
   id="text80">Take-Up</text>

			<text
   transform="matrix(1 0 0 1 4350.5771 520.4478)"
   font-family="'MyriadPro-Regular'"
   font-size="160"
   id="text82">Slant Pin</text>

			<text
   transform="matrix(1 0 0 1 5759.0391 286.6353)"
   font-family="'MyriadPro-Regular'"
   font-size="160"
   id="text84">Take-Up</text>

			<text
   transform="matrix(1 0 0 1 5677.998 478.6353)"
   font-family="'MyriadPro-Regular'"
   font-size="160"
   id="text86">Adjustable</text>

			<text
   transform="matrix(1 0 0 1 5629.1992 670.6353)"
   font-family="'MyriadPro-Regular'"
   font-size="160"
   id="text88">Guide Roller</text>

		</g>
		<g
   id="g90">
			<path
   d="M5342.734,2604.137l-200.75-5.093v-13.771V2571.5l6.25,0.009c3.438,0.004,67.449,1.562,142.25,3.456     c74.801,1.896,167.726,4.205,206.5,5.132c38.773,0.929,70.891,2.033,71.367,2.461c0.476,0.428,0.537,6.662,0.138,13.858     l-0.728,13.084l-12.141-0.136C5548.947,2609.29,5453.146,2606.938,5342.734,2604.137z"
   id="path92" />
			<path
   d="M1360.835,2522.741c-10.069-15.838-163.376-255.562-168.348-263.241c-2.313-3.575-6.688-10.358-9.721-15.074     l-5.512-8.573l3.114-2.049c1.713-1.127,22.014-12.17,45.113-24.54c23.101-12.37,72.148-38.688,109-58.489     c36.851-19.801,100.578-54.043,141.619-76.094c41.041-22.052,75.159-40.227,75.818-40.388     c1.049-0.256,14.73,23.021,13.886,23.622c-0.179,0.127-10.448,5.664-22.823,12.305c-12.375,6.644-37.125,19.935-55,29.536     s-59.949,32.203-93.5,50.223c-33.552,18.021-72.477,38.94-86.5,46.492c-14.024,7.552-39.136,21.051-55.801,29.998     c-16.662,8.946-30.136,16.429-29.938,16.628c0.199,0.199,76.158,14.139,168.799,30.977     c92.641,16.841,168.567,30.74,168.727,30.895c0.157,0.15-0.769,6.071-2.059,13.155c-2.014,11.059-2.619,12.913-4.287,13.122     c-1.066,0.133-73.043-12.73-159.941-28.586c-86.899-15.856-158.135-28.731-158.297-28.613     c-0.221,0.159,116.082,182.523,148.416,232.72l4.356,6.765l-11.53,7.485c-6.342,4.117-11.625,7.482-11.738,7.479     C1364.577,2528.489,1362.842,2525.899,1360.835,2522.741z"
   id="path94" />
			<path
   d="M6299.88,2310.75c-2.461-8.722-3.25-12.948-2.497-13.377c1.656-0.942,593.252-169.873,594.896-169.873     c0.963,0,2.59,4.091,5.045,12.687c1.992,6.979,3.416,12.894,3.162,13.146c-0.6,0.6-594.371,170.169-595.869,170.169     C6303.99,2323.5,6301.857,2317.763,6299.88,2310.75z"
   id="path96" />
			<path
   d="M5326.884,2296.737c-4.369-11.479-7.823-22.709-7.176-23.333c0.897-0.865,177.099-63.13,179.117-63.295     c1.509-0.123,10.554,24.464,9.372,25.478c-0.393,0.336-35.588,12.894-78.213,27.902s-83.025,29.248-89.779,31.639l-12.277,4.348     L5326.884,2296.737z"
   id="path98" />
			<path
   d="M2538.974,2029.99l-9.472-9.511l181.237-181.236l181.236-181.236l9.75,9.749l9.749,9.749l-180.995,180.998     c-99.548,99.548-181.229,180.997-181.518,180.997C2548.676,2039.5,2544.183,2035.221,2538.974,2029.99z"
   id="path100" />
			<path
   d="M5055.014,1556.827c-46.766-93.85-85.027-170.787-85.027-170.975c0-0.187,5.396-3.043,11.997-6.353l11.996-6.014     l85.237,170.256c46.881,93.641,85.36,170.487,85.51,170.771c0.147,0.284-5.346,3.313-12.209,6.731l-12.477,6.215     L5055.014,1556.827z"
   id="path102" />
			<path
   d="M6446.984,1487.485c-131.635-2-152.65-2.308-402.688-5.863c-102.953-1.465-187.413-2.888-187.688-3.163     c-0.274-0.275-0.234-6.454,0.088-13.729l0.588-13.229h9.225c8.9,0,390.3,5.412,598.477,8.492     c55.824,0.826,109.713,1.504,119.75,1.505l18.25,0.003v14v14l-21.25-0.146C6570.047,1489.274,6509.41,1488.434,6446.984,1487.485     z"
   id="path104" />
			<path
   d="M2943.135,835.511c-6.242-1.582-11.511-3.037-11.707-3.231c-0.195-0.196,13.373-55.464,30.153-122.817     c16.779-67.353,40.613-163.148,52.963-212.884c12.351-49.732,22.578-90.548,22.729-90.7c0.42-0.42,25.627,6.208,26.348,6.928     c0.449,0.45-95.71,387.901-104.723,421.946C2957.705,839.265,2957.908,839.255,2943.135,835.511z"
   id="path106" />
			<path
   d="M4498.602,835.392c-0.234-0.766-3.201-32.667-6.588-70.892s-7.998-90.093-10.248-115.262s-3.83-46.022-3.512-46.341     c0.318-0.319,6.449-1.119,13.625-1.778l13.047-1.2l0.547,4.041c0.625,4.604,20.512,226.364,20.512,228.727     c0,1.727-2.916,2.284-17.727,3.401C4500.801,836.65,4498.948,836.517,4498.602,835.392z"
   id="path108" />
			<path
   d="M5164.408,805.795c-3.16-5.387-6.34-10.717-7.066-11.843c-1.256-1.944-0.371-2.61,17.41-13.132     c10.305-6.098,90.283-53.283,177.732-104.86c87.45-51.577,172.275-101.612,188.5-111.19     c16.227-9.575,29.915-17.491,30.422-17.592c1.266-0.245,14.702,22.604,13.802,23.476c-0.397,0.383-30.647,18.34-67.224,39.902     c-36.574,21.563-82.699,48.765-102.5,60.442c-173.326,102.245-235.31,138.789-240.664,141.892l-4.666,2.701L5164.408,805.795z"
   id="path110" />
			<path
   d="M2282.963,740.124c-6.863-5.639-39.928-32.888-73.479-60.554c-33.552-27.667-68.729-56.623-78.179-64.351l-17.177-14.046     l8.344-10.088c4.59-5.548,8.997-10.035,9.799-9.971c0.799,0.063,40.984,32.688,89.305,72.5     c48.318,39.811,88.697,73.075,89.729,73.923c1.79,1.468,1.473,2.025-6.831,12c-4.791,5.753-8.782,10.545-8.871,10.646     C2295.511,750.292,2289.826,745.764,2282.963,740.124z"
   id="path112" />
		</g>
	</g>
</g>
</svg>