<?xml version="1.0" encoding="utf-8"?>
<!-- Generator: Adobe Illustrator 15.0.0, SVG Export Plug-In . SVG Version: 6.00 Build 0)  -->
<!DOCTYPE svg PUBLIC "-//W3C//DTD SVG 1.1//EN" "http://www.w3.org/Graphics/SVG/1.1/DTD/svg11.dtd">
<svg version="1.1" id="Layer_1" xmlns="http://www.w3.org/2000/svg" xmlns:xlink="http://www.w3.org/1999/xlink" x="0px" y="0px"
	 width="841.891px" height="595.279px" viewBox="0 0 841.891 595.279" enable-background="new 0 0 841.891 595.279"
	 xml:space="preserve">
<g>
	<g>
		<line fill="none" stroke="#58595B" stroke-width="3" stroke-miterlimit="10" x1="89.082" y1="497.204" x2="89.082" y2="113.131"/>
		<g>
			<polygon fill="#58595B" points="98.624,130.864 95.803,131.89 89.082,113.424 82.361,131.89 79.543,130.864 89.082,104.654 			
				"/>
		</g>
	</g>
</g>
<line fill="none" stroke="#58595B" stroke-width="3" stroke-miterlimit="10" x1="89.082" y1="497.204" x2="781.557" y2="497.204"/>
<text transform="matrix(0 -1 1 0 57.8877 376.0127)" fill="#231F20" font-family="'Raleway-ExtraLight'" font-size="18.0254">cost of medicine</text>
<text transform="matrix(1 0 0 1 624.3076 145.1846)" fill="#231F20" font-family="'Raleway-ExtraLight'" font-size="16.5233">actual situation</text>
<text transform="matrix(1 0 0 1 615.7959 173.7246)" fill="#231F20" font-family="'Raleway-ExtraLight'" font-size="16.5233">for 50% of generic</text>
<text transform="matrix(1 0 0 1 603.3027 202.2656)" fill="#231F20" font-family="'Raleway-ExtraLight'" font-size="16.5233">(patentfree) medicine</text>
<text transform="matrix(1 0 0 1 615.5332 386.1436)" fill="#231F20" font-family="'Raleway-ExtraLight'" font-size="16.5233">Desirable situation</text>
<text transform="matrix(1 0 0 1 627.0664 414.6836)" fill="#231F20" font-family="'Raleway-ExtraLight'" font-size="16.5233">Crowd for Cure</text>
<text transform="matrix(1 0 0 1 650.3809 443.2236)" fill="#231F20" font-family="'Raleway-ExtraLight'" font-size="16.5233">(cost price)</text>
<g>
	<g>
		<path fill="#929497" d="M96.593,302.426c44.027,0,88.055,0,132.081,0c46.279,0,92.559,0,138.838,0c0.078,0,0.158,0,0.237,0
			c5.805,0,5.805-9,0-9c-44.026,0-88.054,0-132.081,0c-46.278,0-92.558,0-138.837,0c-0.079,0-0.159,0-0.238,0
			C90.789,293.425,90.789,302.426,96.593,302.426L96.593,302.426z"/>
	</g>
</g>
<g>
	<g>
		<line fill="none" stroke="#929497" stroke-width="4" stroke-miterlimit="10" x1="377.489" y1="535.26" x2="377.489" y2="529.26"/>
		
			<line fill="none" stroke="#929497" stroke-width="4" stroke-miterlimit="10" stroke-dasharray="12.0698,12.0698" x1="377.489" y1="517.19" x2="377.489" y2="305.969"/>
		
			<line fill="none" stroke="#929497" stroke-width="4" stroke-miterlimit="10" x1="377.489" y1="299.935" x2="377.489" y2="293.934"/>
	</g>
</g>
<g>
	<g>
		<path fill="#404041" d="M382.98,297.115c35.127-35.128,70.253-70.256,105.38-105.384c4.351-4.349,8.697-8.697,13.047-13.047
			c2.798-2.797,0.729-7.644-3.183-7.682c-12.89-0.125-25.777-0.25-38.668-0.375c0.397,2.945,0.799,5.893,1.196,8.839
			c15.829-2.817,31.659-5.634,47.489-8.451c-1.459-2.507-2.919-5.014-4.378-7.521c-18.646,18.646-37.293,37.294-55.938,55.939
			c-1.728,1.728-1.744,4.64,0,6.364c0.044,0.043,0.088,0.087,0.133,0.131c1.743,1.724,4.623,1.741,6.363,0
			c18.646-18.647,37.293-37.294,55.938-55.94c-2.507-1.459-5.015-2.919-7.521-4.378c-2.816,15.83-5.636,31.66-8.452,47.489
			c-1.01,5.674,7.662,8.101,8.679,2.394c2.816-15.83,5.635-31.66,8.451-47.489c0.756-4.237-4.12-7.778-7.521-4.378
			c-18.646,18.646-37.293,37.294-55.938,55.939c2.121,0,4.242,0,6.363,0c-0.044-0.043-0.088-0.087-0.134-0.131
			c0,2.122,0,4.243,0,6.364c18.646-18.647,37.293-37.294,55.939-55.94c3.399-3.399-0.142-8.274-4.379-7.521
			c-15.83,2.816-31.659,5.634-47.489,8.451c-5.126,0.912-3.737,8.792,1.195,8.839c12.891,0.125,25.778,0.25,38.668,0.375
			c-1.061-2.562-2.12-5.121-3.182-7.683c-35.127,35.128-70.255,70.257-105.382,105.385c-4.349,4.349-8.698,8.697-13.047,13.047
			C372.509,294.858,378.873,301.222,382.98,297.115L382.98,297.115z"/>
	</g>
</g>
<g>
	<g>
		<path fill="#47BBA4" d="M377.526,304.165c44.766,20.982,89.528,41.967,134.293,62.949c14.473,6.785,28.945,13.568,43.419,20.354
			c0.357-2.742,0.717-5.482,1.074-8.226c-13.48,3.844-26.964,7.688-40.444,11.53c-4.735,1.351-3.988,9.354,1.196,8.839
			c17.896-1.772,35.789-3.549,53.686-5.32c3.973-0.395,6.744-6.289,2.271-8.387c-27.979-13.115-55.96-26.229-83.938-39.346
			c0.538,2.054,1.076,4.104,1.614,6.157c0.023-0.058,0.049-0.113,0.072-0.17c-2.053,0.538-4.104,1.075-6.156,1.613
			c27.981,13.116,55.965,26.23,83.945,39.349c3.723,1.744,8.92-2.078,6.157-6.157c-10.086-14.889-20.17-29.776-30.256-44.666
			c-3.233-4.774-11.035-0.276-7.771,4.543c10.086,14.89,20.17,29.777,30.256,44.666c2.053-2.053,4.104-4.104,6.156-6.156
			c-27.981-13.116-55.965-26.23-83.945-39.349c-2-0.938-5.126-0.777-6.157,1.614c-0.023,0.057-0.049,0.112-0.072,0.17
			c-0.896,2.082-0.796,5.027,1.613,6.156c27.979,13.115,55.96,26.229,83.938,39.346c0.759-2.795,1.516-5.591,2.271-8.386
			c-17.896,1.771-35.79,3.548-53.687,5.32c0.398,2.945,0.799,5.894,1.196,8.839c13.48-3.843,26.964-7.688,40.444-11.529
			c3.486-0.994,4.749-6.502,1.075-8.226c-44.766-20.982-89.528-41.968-134.293-62.95c-14.474-6.783-28.946-13.568-43.419-20.354
			C376.847,293.946,372.275,301.703,377.526,304.165L377.526,304.165z"/>
	</g>
</g>
<circle fill="#231F20" stroke="#FFFFFF" stroke-width="3" stroke-miterlimit="10" cx="377.489" cy="297.424" r="13.519"/>
<g>
	<g>
		<path fill="#6D6E70" d="M135.66,528.66c-5.841-2.962-11.683-5.924-17.523-8.887c-0.506,1.863-1.01,3.729-1.515,5.591
			c46.668,0,93.335,0,140.003,0c32.444,0,64.888,0,97.331,0c1.635,0,3-1.363,3-3c0-0.042,0-0.084,0-0.126c0-1.637-1.365-3-3-3
			c-46.668,0-93.335,0-140.003,0c-32.444,0-64.887,0-97.331,0c0.505,1.862,1.009,3.728,1.515,5.591
			c5.841-2.963,11.683-5.925,17.523-8.887c3.452-1.751,0.414-6.928-3.028-5.183c-5.841,2.963-11.683,5.925-17.523,8.887
			c-2.729,1.385-1.362,5.592,1.514,5.592c46.668,0,93.335,0,140.003,0c32.444,0,64.888,0,97.331,0c-1-1-2-2-3-3
			c0,0.042,0,0.084,0,0.126c1-1,2-2,3-3c-46.668,0-93.335,0-140.003,0c-32.444,0-64.887,0-97.331,0
			c-2.876,0-4.242,4.207-1.514,5.591c5.841,2.962,11.683,5.925,17.523,8.888C136.074,535.588,139.111,530.411,135.66,528.66
			L135.66,528.66z"/>
	</g>
</g>
<g>
	<g>
		<path fill="#6D6E70" d="M356.956,531.753c0-6.301,0-12.601,0-18.899c0-3.868-6-3.868-6,0c0,6.301,0,12.601,0,18.899
			C350.956,535.621,356.956,535.621,356.956,531.753L356.956,531.753z"/>
	</g>
</g>
<g>
	<g>
		<path fill="#6D6E70" d="M623.621,533.843c5.842-2.963,11.683-5.925,17.522-8.888c2.729-1.384,1.361-5.591-1.515-5.591
			c-46.853,0-93.703,0-140.556,0c-32.259,0-64.52,0-96.777,0c1,1,2,2,3,3c0-0.042,0-0.084,0-0.126c-1,1-2,2-3,3
			c46.853,0,93.702,0,140.555,0c32.261,0,64.52,0,96.778,0c2.876,0,4.241-4.207,1.515-5.591c-5.842-2.962-11.683-5.925-17.522-8.888
			c-3.441-1.745-6.479,3.432-3.028,5.183c5.842,2.962,11.684,5.924,17.522,8.887c0.505-1.863,1.011-3.729,1.516-5.591
			c-46.853,0-93.703,0-140.556,0c-32.259,0-64.52,0-96.777,0c-1.636,0-3,1.363-3,3c0,0.042,0,0.084,0,0.126c0,1.637,1.364,3,3,3
			c46.853,0,93.703,0,140.555,0c32.261,0,64.52,0,96.778,0c-0.505-1.862-1.011-3.728-1.516-5.591
			c-5.842,2.963-11.683,5.925-17.522,8.887C617.141,530.411,620.179,535.588,623.621,533.843L623.621,533.843z"/>
	</g>
</g>
<g>
	<g>
		<path fill="#6D6E70" d="M405.298,531.753c0-6.301,0-12.601,0-18.899c0-3.868-6-3.868-6,0c0,6.301,0,12.601,0,18.899
			C399.298,535.621,405.298,535.621,405.298,531.753L405.298,531.753z"/>
	</g>
</g>
<text transform="matrix(1 0 0 1 173.5659 544.9658)" fill="#231F20" font-family="'Raleway'" font-size="16.5233">patent period</text>
<text transform="matrix(1 0 0 1 435.166 544.9658)" fill="#231F20" font-family="'Raleway'" font-size="16.5233">patentfree period</text>
<text transform="matrix(1 0 0 1 305.7383 65.5459)" fill="#231F20" font-family="'Raleway-Medium'" font-size="21">medicine pricing trends</text>
<path fill="#E6E7E8" stroke="#FFFFFF" stroke-width="3" stroke-miterlimit="10" d="M363.242,380.512
	c0,9.955-8.07,18.024-18.025,18.024H114.618c-9.956,0-18.025-8.069-18.025-18.024v-56.548c0-9.954,8.07-18.025,18.025-18.025
	h230.599c9.955,0,18.025,8.071,18.025,18.025V380.512L363.242,380.512z"/>
<path opacity="0.4" fill="#47BBA4" stroke="#FFFFFF" stroke-width="3" stroke-miterlimit="10" enable-background="new    " d="
	M363.242,474.261c0,9.954-8.07,18.024-18.025,18.024H114.618c-9.956,0-18.025-8.07-18.025-18.024v-56.548
	c0-9.956,8.07-18.025,18.025-18.025h230.599c9.955,0,18.025,8.069,18.025,18.025V474.261L363.242,474.261z"/>
<text transform="matrix(1 0 0 1 157.1602 344.3994)" fill="#231F20" font-family="'Raleway-ExtraLight'" font-size="16.5233">Profit and marketing</text>
<text transform="matrix(1 0 0 1 197.2783 372.9385)" fill="#231F20" font-family="'Raleway-ExtraLight'" font-size="16.5233">Pharmacy</text>
<text transform="matrix(1 0 0 1 136.645 443.2236)" enable-background="new    "><tspan x="0" y="0" fill="#231F20" font-family="'Raleway-ExtraLight'" font-size="16.5233">Research and Development</tspan><tspan x="85.201" y="28" fill="#231F20" font-family="'Raleway-ExtraLight'" font-size="16.5233">costs</tspan></text>
</svg>
