<?xml version="1.0" encoding="utf-8"?>
<!-- Generator: Adobe Illustrator 16.0.4, SVG Export Plug-In . SVG Version: 6.00 Build 0)  -->
<!DOCTYPE svg PUBLIC "-//W3C//DTD SVG 1.1//EN" "http://www.w3.org/Graphics/SVG/1.1/DTD/svg11.dtd">
<svg version="1.1" id="Layer_1" xmlns="http://www.w3.org/2000/svg" xmlns:xlink="http://www.w3.org/1999/xlink" x="0px" y="0px"
	 width="450px" height="441.329px" viewBox="0 0 450 441.329" enable-background="new 0 0 450 441.329" xml:space="preserve">
<g>
	<rect x="962.423" y="-229.479" fill="#FFFFFF" width="450" height="441.329"/>
	<g>
		<defs>
			<rect id="SVGID_1_" x="962.423" y="-222.023" width="434.497" height="433.249"/>
		</defs>
		<clipPath id="SVGID_2_">
			<use xlink:href="#SVGID_1_"  overflow="visible"/>
		</clipPath>
	</g>
	
		<line fill="none" stroke="#000000" stroke-width="1.06" stroke-linejoin="round" stroke-miterlimit="10" x1="1007.804" y1="167.093" x2="1007.804" y2="-209.537"/>
	<text transform="matrix(1 0 0 1 996.8457 170.2061)" font-family="'Helvetica'" font-size="8.6705">0</text>
	<text transform="matrix(1 0 0 1 987.2041 94.877)" font-family="'Helvetica'" font-size="8.6705">500</text>
	<text transform="matrix(1 0 0 1 982.3838 19.5469)" font-family="'Helvetica'" font-size="8.6705">1000</text>
	<text transform="matrix(1 0 0 1 982.3838 -55.7739)" font-family="'Helvetica'" font-size="8.6705">1500</text>
	<text transform="matrix(1 0 0 1 982.3838 -131.1035)" font-family="'Helvetica'" font-size="8.6705">2000</text>
	<text transform="matrix(1 0 0 1 1386.1689 -206.4243)" font-family="'Helvetica'" font-size="8.6705">100%</text>
	<text transform="matrix(1 0 0 1 1386.1699 -168.7983)" font-family="'Helvetica'" font-size="8.6705">90%</text>
	<text transform="matrix(1 0 0 1 1386.1699 -131.1714)" font-family="'Helvetica'" font-size="8.6705">80%</text>
	<text transform="matrix(1 0 0 1 1386.1699 -93.5449)" font-family="'Helvetica'" font-size="8.6705">70%</text>
	<text transform="matrix(1 0 0 1 982.3838 -206.4243)" font-family="'Helvetica'" font-size="8.6705">2500</text>
	
		<line fill="none" stroke="#000000" stroke-width="1.06" stroke-linejoin="round" stroke-miterlimit="10" x1="1004.119" y1="167.093" x2="1007.804" y2="167.093"/>
	
		<line fill="none" stroke="#000000" stroke-width="1.06" stroke-linejoin="round" stroke-miterlimit="10" x1="1004.119" y1="91.764" x2="1007.804" y2="91.764"/>
	
		<line fill="none" stroke="#000000" stroke-width="1.06" stroke-linejoin="round" stroke-miterlimit="10" x1="1004.119" y1="16.434" x2="1007.804" y2="16.434"/>
	
		<line fill="none" stroke="#000000" stroke-width="1.06" stroke-linejoin="round" stroke-miterlimit="10" x1="1004.119" y1="-58.887" x2="1007.804" y2="-58.887"/>
	
		<line fill="none" stroke="#000000" stroke-width="1.06" stroke-linejoin="round" stroke-miterlimit="10" x1="1004.119" y1="-134.217" x2="1007.804" y2="-134.217"/>
	
		<line fill="none" stroke="#000000" stroke-width="1.06" stroke-linejoin="round" stroke-miterlimit="10" x1="1004.119" y1="-209.537" x2="1007.804" y2="-209.537"/>
	
		<line fill="none" stroke="#000000" stroke-width="1.06" stroke-linejoin="round" stroke-miterlimit="10" x1="1007.804" y1="167.093" x2="1384.435" y2="167.093"/>
	
		<line fill="none" stroke="#000000" stroke-width="1.06" stroke-linejoin="round" stroke-miterlimit="10" x1="1007.804" y1="170.777" x2="1007.804" y2="167.093"/>
	
		<line fill="none" stroke="#000000" stroke-width="1.06" stroke-linejoin="round" stroke-miterlimit="10" x1="1083.135" y1="170.777" x2="1083.135" y2="167.093"/>
	
		<line fill="none" stroke="#000000" stroke-width="1.06" stroke-linejoin="round" stroke-miterlimit="10" x1="1158.454" y1="170.777" x2="1158.454" y2="167.093"/>
	
		<line fill="none" stroke="#000000" stroke-width="1.06" stroke-linejoin="round" stroke-miterlimit="10" x1="1233.784" y1="170.777" x2="1233.784" y2="167.093"/>
	
		<line fill="none" stroke="#000000" stroke-width="1.06" stroke-linejoin="round" stroke-miterlimit="10" x1="1309.104" y1="170.777" x2="1309.104" y2="167.093"/>
	
		<line fill="none" stroke="#000000" stroke-width="1.06" stroke-linejoin="round" stroke-miterlimit="10" x1="1384.435" y1="170.777" x2="1384.435" y2="167.093"/>
	<text transform="matrix(0.7071 -0.7071 0.7071 0.7071 1008.8008 181.042)" font-family="'Helvetica'" font-size="8.6692">0</text>
	<text transform="matrix(0.7071 -0.7071 0.7071 0.7071 1077.3066 187.8564)" font-family="'Helvetica'" font-size="8.6692">500</text>
	<text transform="matrix(0.7071 -0.7071 0.7071 0.7071 1149.2207 191.2754)" font-family="'Helvetica'" font-size="8.6692">1000</text>
	<text transform="matrix(0.7071 -0.7071 0.7071 0.7071 1224.5498 191.2744)" font-family="'Helvetica'" font-size="8.6692">1500</text>
	<text transform="matrix(0.7071 -0.7071 0.7071 0.7071 1299.8789 191.2734)" font-family="'Helvetica'" font-size="8.6692">2000</text>
	<text transform="matrix(0.7071 -0.7071 0.7071 0.7071 1375.2002 191.2744)" font-family="'Helvetica'" font-size="8.6692">2500</text>
	<text transform="matrix(1 0 0 1 1117.2793 206.8564)"><tspan x="0" y="0" font-family="'Helvetica'" font-size="10.4046">Male Median </tspan><tspan x="62.458" y="0" font-family="'Helvetica'" font-size="10.4046">W</tspan><tspan x="71.977" y="0" font-family="'Helvetica'" font-size="10.4046">eekly </tspan><tspan x="99.156" y="0" font-family="'Helvetica'" font-size="10.4046">W</tspan><tspan x="108.571" y="0" font-family="'Helvetica'" font-size="10.4046">age (USD)</tspan></text>
	<text transform="matrix(1 0 0 1 1233.7852 -216.2646)" font-family="'Helvetica'" font-size="10.4046">Female’s wage as a percent of Male’s</text>
	<text transform="matrix(-6.123234e-17 -1 1 -6.123234e-17 979.2627 63.5322)"><tspan x="0" y="0" font-family="'Helvetica'" font-size="10.4046">F</tspan><tspan x="6.054" y="0" font-family="'Helvetica'" font-size="10.4046">emale Median </tspan><tspan x="74.298" y="0" font-family="'Helvetica'" font-size="10.4046">W</tspan><tspan x="83.817" y="0" font-family="'Helvetica'" font-size="10.4046">eekly </tspan><tspan x="110.997" y="0" font-family="'Helvetica'" font-size="10.4046">W</tspan><tspan x="120.412" y="0" font-family="'Helvetica'" font-size="10.4046">age (USD)</tspan></text>
	<text transform="matrix(1 0 0 1 1021.2529 -189.2563)" font-family="'Helvetica-Bold'" font-size="8.6705">Sector</text>
	<text transform="matrix(1 0 0 1 1026.7158 -176.2505)" fill="#66C2A5" font-family="'AdobePiStd'" font-size="5.1069">●</text>
	<text transform="matrix(1 0 0 1 1026.7158 -161.2681)" fill="#FC8D62" font-family="'AdobePiStd'" font-size="5.1069">●</text>
	<text transform="matrix(1 0 0 1 1026.7158 -146.2852)" fill="#8DA0CB" font-family="'AdobePiStd'" font-size="5.1069">●</text>
	<text transform="matrix(1 0 0 1 1026.7158 -131.3027)" fill="#E78AC3" font-family="'AdobePiStd'" font-size="5.1069">●</text>
	<text transform="matrix(1 0 0 1 1026.7158 -116.3203)" fill="#A6D854" font-family="'AdobePiStd'" font-size="5.1069">●</text>
	<text transform="matrix(1 0 0 1 1038.1084 -174.9067)"><tspan x="0" y="0" font-family="'Helvetica'" font-size="8.6705">Ente</tspan><tspan x="17.836" y="0" font-family="'Helvetica'" font-size="8.6705">r</tspan><tspan x="21.062" y="0" font-family="'Helvetica'" font-size="8.6705">tainment, Education and L</tspan><tspan x="121.806" y="0" font-family="'Helvetica'" font-size="8.6705">a</tspan><tspan x="126.454" y="0" font-family="'Helvetica'" font-size="8.6705">w</tspan></text>
	<text transform="matrix(1 0 0 1 1038.1084 -159.9238)" font-family="'Helvetica'" font-size="8.6705">Management, Business and Financial</text>
	<text transform="matrix(1 0 0 1 1038.1084 -144.9414)"><tspan x="0" y="0" font-family="'Helvetica'" font-size="8.6705">Production and </tspan><tspan x="60.736" y="0" font-family="'Helvetica'" font-size="8.6705" letter-spacing="-1">T</tspan><tspan x="65" y="0" font-family="'Helvetica'" font-size="8.6705">r</tspan><tspan x="67.801" y="0" font-family="'Helvetica'" font-size="8.6705">anspo</tspan><tspan x="91.425" y="0" font-family="'Helvetica'" font-size="8.6705">r</tspan><tspan x="94.65" y="0" font-family="'Helvetica'" font-size="8.6705">tation</tspan></text>
	<text transform="matrix(1 0 0 1 1038.1084 -129.959)"><tspan x="0" y="0" font-family="'Helvetica'" font-size="8.6705">Scienc</tspan><tspan x="26.024" y="0" font-family="'Helvetica'" font-size="8.6705">e</tspan><tspan x="30.716" y="0" font-family="'Helvetica'" font-size="8.6705">, Computers and Healthcare</tspan></text>
	<text transform="matrix(1 0 0 1 1038.1084 -114.9761)"><tspan x="0" y="0" font-family="'Helvetica'" font-size="8.6705">Se</tspan><tspan x="10.605" y="0" font-family="'Helvetica'" font-size="8.6705">r</tspan><tspan x="13.744" y="0" font-family="'Helvetica'" font-size="8.6705">vic</tspan><tspan x="24.341" y="0" font-family="'Helvetica'" font-size="8.6705">e</tspan><tspan x="29.033" y="0" font-family="'Helvetica'" font-size="8.6705">, Sales and Office</tspan></text>
	<g>
		<defs>
			<rect id="SVGID_3_" x="1007.804" y="-209.537" width="376.631" height="376.63"/>
		</defs>
		<clipPath id="SVGID_4_">
			<use xlink:href="#SVGID_3_"  overflow="visible"/>
		</clipPath>
		
			<line clip-path="url(#SVGID_4_)" fill="none" stroke="#737373" stroke-width="1.06" stroke-linejoin="round" stroke-miterlimit="10" x1="1007.804" y1="167.093" x2="1384.435" y2="-209.537"/>
		
			<line clip-path="url(#SVGID_4_)" fill="none" stroke="#8C8C8C" stroke-width="1.06" stroke-linejoin="round" stroke-miterlimit="10" x1="1007.804" y1="167.093" x2="1384.435" y2="-171.873"/>
		
			<line clip-path="url(#SVGID_4_)" fill="none" stroke="#A6A6A6" stroke-width="1.06" stroke-linejoin="round" stroke-miterlimit="10" x1="1007.804" y1="167.093" x2="1384.435" y2="-134.217"/>
		
			<line clip-path="url(#SVGID_4_)" fill="none" stroke="#BFBFBF" stroke-width="1.06" stroke-linejoin="round" stroke-miterlimit="10" x1="1007.804" y1="167.093" x2="1384.435" y2="-96.552"/>
		
			<polyline clip-path="url(#SVGID_4_)" fill="none" stroke="#66C2A5" stroke-width="2.13" stroke-linejoin="round" stroke-miterlimit="1" points="
			1139.475,47.127 1141.399,44.665 1143.325,42.063 1145.258,39.445 1147.183,36.774 1149.108,34.26 1151.032,31.364 
			1152.958,29.032 1154.883,27.506 1156.807,26.457 1158.732,26.006 1160.666,26.396 1162.59,27.792 1164.516,29.994 
			1166.44,33.151 1168.364,37.19 1170.29,42.099 1172.215,47.882 1174.147,54.541 1176.073,61.009 1177.998,65.925 1179.923,69.385 
			1181.848,71.491 1183.772,72.341 1185.697,72.029 1187.631,70.659 1189.556,68.336 1191.48,65.153 1193.406,61.208 
			1195.33,56.604 1197.255,51.437 1199.18,45.818 1201.105,39.826 1203.038,33.575 1204.964,27.168 1206.889,20.691 
			1208.812,14.248 1210.737,7.945 1212.663,1.876 1214.588,-3.838 1216.521,-9.179 1218.446,-14.156 1220.371,-18.785 
			1222.296,-23.078 1224.221,-27.049 1226.146,-30.717 1228.07,-34.098 1230.004,-37.202 1231.929,-40.045 1233.854,-42.646 
			1235.778,-45.014 1237.703,-47.164 1239.628,-49.115 1241.553,-50.875 1243.486,-52.462 1245.411,-53.893 1247.336,-55.176 
			1249.262,-56.329 1251.186,-57.369 1253.11,-58.314 1255.036,-59.174 1256.961,-59.953 1258.894,-60.69 1260.819,-61.375 
			1262.744,-62.043 1264.668,-62.693 1266.593,-63.344 1268.519,-64.012 1270.443,-64.714 1272.377,-65.459 1274.302,-66.266 
			1276.227,-67.15 1278.151,-68.13 1280.076,-69.205 1282.001,-70.41 1283.926,-71.736 1285.859,-73.219 1287.784,-74.867 
			1289.709,-76.688 1291.634,-78.707 		"/>
		
			<polyline clip-path="url(#SVGID_4_)" fill="none" stroke="#FC8D62" stroke-width="2.13" stroke-linejoin="round" stroke-miterlimit="1" points="
			1118.388,74.093 1121.032,71.18 1123.678,68.379 1126.321,65.69 1128.975,63.116 1131.62,60.636 1134.264,58.27 1136.908,55.997 
			1139.562,53.83 1142.206,51.748 1144.851,49.763 1147.504,47.873 1150.148,46.078 1152.793,44.379 1155.437,42.801 
			1158.091,41.327 1160.735,39.966 1163.379,38.726 1166.032,37.599 1168.677,36.593 1171.321,35.726 1173.967,35.006 
			1176.619,34.399 1179.264,33.845 1181.908,33.28 1184.554,32.639 1187.206,31.876 1189.851,30.966 1192.495,30.063 
			1195.148,29.102 1197.793,27.904 1200.438,26.457 1203.081,24.845 1205.735,23.076 1208.38,21.176 1211.023,19.174 
			1213.668,17.414 1216.321,15.888 1218.966,14.371 1221.61,12.653 1224.264,10.512 1226.908,7.703 1229.553,4.035 1232.197,0.272 
			1234.851,-2.754 1237.495,-5.398 1240.14,-7.844 1242.784,-10.168 1245.438,-12.422 1248.082,-14.606 1250.727,-16.73 
			1253.38,-18.795 1256.024,-20.798 1258.669,-22.74 1261.312,-24.613 1263.967,-26.434 1266.61,-28.185 1269.255,-29.884 
			1271.899,-31.522 1274.553,-33.101 1277.197,-34.618 1279.842,-36.084 1282.495,-37.488 1285.14,-38.841 1287.784,-40.133 
			1290.429,-41.373 1293.082,-42.552 1295.727,-43.679 1298.371,-44.763 1301.015,-45.777 1303.669,-46.748 1306.313,-47.668 
			1308.957,-48.535 1311.611,-49.35 1314.256,-50.112 1316.899,-50.832 1319.544,-51.491 1322.198,-52.107 1324.842,-52.679 
			1327.486,-53.199 		"/>
		
			<polyline clip-path="url(#SVGID_4_)" fill="none" stroke="#8DA0CB" stroke-width="2.13" stroke-linejoin="round" stroke-miterlimit="1" points="
			1067.467,107.89 1068.48,107.908 1069.495,107.873 1070.51,107.787 1071.532,107.647 1072.547,107.448 1073.562,107.205 
			1074.575,106.92 1075.599,106.581 1076.614,106.165 1077.628,105.68 1078.643,105.125 1079.666,104.518 1080.681,103.867 
			1081.695,103.174 1082.709,102.454 1083.724,101.718 1084.747,100.876 1085.761,99.974 1086.775,99.307 1087.79,98.83 
			1088.812,98.466 1089.827,98.153 1090.842,97.824 1091.855,97.407 1092.871,96.835 1093.894,96.168 1094.908,95.561 
			1095.924,94.876 1096.938,93.948 1097.961,92.864 1098.976,91.771 1099.989,90.714 1101.004,89.708 1102.026,88.798 
			1103.041,88.018 1104.056,87.401 1105.069,86.986 1106.084,86.7 1107.108,86.465 1108.122,86.293 1109.137,86.162 
			1110.151,86.066 1111.175,85.997 1112.189,85.954 1113.203,85.928 1114.218,85.919 1115.232,85.902 1116.255,85.885 
			1117.27,85.85 1118.284,85.807 1119.298,85.729 1120.321,85.624 1121.336,85.478 1122.351,85.277 1123.365,85.035 
			1124.388,84.723 1125.403,84.351 1126.418,83.898 1127.432,83.37 1128.446,82.798 1129.47,82.217 1130.483,81.61 1131.498,80.986 
			1132.513,80.336 1133.535,79.659 1134.55,78.957 1135.563,78.237 1136.578,77.483 1137.593,76.711 1138.616,75.905 
			1139.631,75.072 1140.646,74.214 1141.66,73.321 1142.684,72.402 1143.697,71.448 1144.712,70.46 1145.727,69.445 
			1146.741,68.388 1147.764,67.304 		"/>
		
			<polyline clip-path="url(#SVGID_4_)" fill="none" stroke="#E78AC3" stroke-width="2.13" stroke-linejoin="round" stroke-miterlimit="1" points="
			1110.55,77.015 1113.064,72.749 1115.57,68.604 1118.075,64.606 1120.591,60.767 1123.097,57.09 1125.61,53.596 1128.116,50.258 
			1130.631,47.075 1133.138,44.032 1135.642,41.11 1138.156,38.301 1140.663,35.587 1143.178,32.994 1145.683,30.61 
			1148.197,28.391 1150.703,26.266 1153.218,24.168 1155.723,22.277 1158.229,20.786 1160.744,19.555 1163.249,18.463 
			1165.764,17.371 1168.27,16.147 1170.784,14.656 1173.29,13.087 1175.796,11.588 1178.311,10.121 1180.815,8.613 1183.331,7.009 
			1185.836,5.119 1188.351,2.934 1190.856,0.637 1193.371,-1.566 1195.877,-3.491 1198.382,-4.938 1200.896,-5.85 1203.402,-6.5 
			1205.917,-7.211 1208.423,-8.303 1210.938,-9.612 1213.442,-10.904 1215.949,-12.197 1218.463,-13.488 1220.97,-14.779 
			1223.483,-16.09 1225.989,-17.424 1228.504,-18.785 1231.009,-20.182 1233.524,-21.525 1236.029,-22.73 1238.536,-23.866 
			1241.05,-25.012 1243.556,-26.242 1246.07,-27.63 1248.576,-29.243 1251.09,-31.125 1253.597,-33.117 1256.102,-35.19 
			1258.617,-37.342 1261.122,-39.586 1263.637,-41.91 1266.143,-44.329 1268.657,-46.844 1271.163,-49.453 1273.678,-52.158 
			1276.183,-54.968 1278.688,-57.873 1281.203,-60.891 1283.709,-64.002 1286.224,-67.236 1288.729,-70.584 1291.244,-74.035 
			1293.749,-77.615 1296.264,-81.301 1298.77,-85.115 1301.275,-89.061 1303.79,-93.127 1306.295,-97.314 1308.811,-101.642 		"/>
		
			<polyline clip-path="url(#SVGID_4_)" fill="none" stroke="#A6D854" stroke-width="2.13" stroke-linejoin="round" stroke-miterlimit="1" points="
			1067.311,113.188 1068.983,111.654 1070.648,110.145 1072.313,108.654 1073.978,107.18 1075.651,105.731 1077.315,104.31 
			1078.98,102.904 1080.646,101.526 1082.31,100.165 1083.983,98.83 1085.648,97.512 1087.313,96.22 1088.978,94.945 
			1090.651,93.697 1092.316,92.475 1093.981,91.269 1095.646,90.081 1097.311,88.911 1098.983,87.792 1100.648,86.752 
			1102.312,85.764 1103.978,84.81 1105.65,83.891 1107.315,82.98 1108.98,82.061 1110.646,81.134 1112.318,80.171 1113.983,79.156 
			1115.648,78.099 1117.313,77.109 1118.979,76.156 1120.651,75.168 1122.316,74.066 1123.98,72.879 1125.646,71.647 
			1127.318,70.39 1128.983,69.107 1130.647,67.798 1132.312,66.488 1133.978,65.162 1135.651,63.844 1137.315,62.526 
			1138.98,61.217 1140.646,59.926 1142.319,58.659 1143.983,57.429 1145.648,56.223 1147.313,55.061 1148.978,53.942 
			1150.651,52.885 1152.315,51.853 1153.98,50.838 1155.646,49.851 1157.318,48.879 1158.983,47.951 1160.648,47.059 
			1162.313,46.208 1163.987,45.376 1165.651,44.57 1167.316,43.798 1168.981,43.043 1170.646,42.315 1172.319,41.613 
			1173.983,40.937 1175.648,40.286 1177.312,39.653 1178.986,39.055 1180.651,38.475 1182.316,37.928 1183.98,37.399 
			1185.646,36.896 1187.318,36.419 1188.983,35.96 1190.648,35.535 1192.312,35.127 1193.986,34.746 1195.651,34.391 
			1197.316,34.053 1198.98,33.74 		"/>
	</g>
</g>
<g>
	<rect fill="#FFFFFF" width="450" height="441.329"/>
	<g>
		<defs>
			<rect id="SVGID_5_" y="7.456" width="434.497" height="433.249"/>
		</defs>
		<clipPath id="SVGID_6_">
			<use xlink:href="#SVGID_5_"  overflow="visible"/>
		</clipPath>
	</g>
	
		<line fill="none" stroke="#000000" stroke-width="1.06" stroke-linejoin="round" stroke-miterlimit="10" x1="45.381" y1="396.572" x2="45.381" y2="19.942"/>
	<text transform="matrix(1 0 0 1 34.4229 399.6855)" font-family="'Helvetica'" font-size="8.6705">0</text>
	<text transform="matrix(1 0 0 1 24.7812 324.3564)" font-family="'Helvetica'" font-size="8.6705">500</text>
	<text transform="matrix(1 0 0 1 19.9604 249.0264)" font-family="'Helvetica'" font-size="8.6705">1000</text>
	<text transform="matrix(1 0 0 1 19.9604 173.7061)" font-family="'Helvetica'" font-size="8.6705">1500</text>
	<text transform="matrix(1 0 0 1 19.9604 98.376)" font-family="'Helvetica'" font-size="8.6705">2000</text>
	<text transform="matrix(1 0 0 1 423.7461 23.0552)" font-family="'Helvetica'" font-size="8.6705">100%</text>
	<text transform="matrix(1 0 0 1 423.7471 60.6807)" font-family="'Helvetica'" font-size="8.6705">90%</text>
	<text transform="matrix(1 0 0 1 423.7471 98.3076)" font-family="'Helvetica'" font-size="8.6705">80%</text>
	<text transform="matrix(1 0 0 1 423.7471 135.9346)" font-family="'Helvetica'" font-size="8.6705">70%</text>
	<text transform="matrix(1 0 0 1 19.9604 23.0552)" font-family="'Helvetica'" font-size="8.6705">2500</text>
	
		<line fill="none" stroke="#000000" stroke-width="1.06" stroke-linejoin="round" stroke-miterlimit="10" x1="41.696" y1="396.572" x2="45.381" y2="396.572"/>
	
		<line fill="none" stroke="#000000" stroke-width="1.06" stroke-linejoin="round" stroke-miterlimit="10" x1="41.696" y1="321.243" x2="45.381" y2="321.243"/>
	
		<line fill="none" stroke="#000000" stroke-width="1.06" stroke-linejoin="round" stroke-miterlimit="10" x1="41.696" y1="245.914" x2="45.381" y2="245.914"/>
	
		<line fill="none" stroke="#000000" stroke-width="1.06" stroke-linejoin="round" stroke-miterlimit="10" x1="41.696" y1="170.592" x2="45.381" y2="170.592"/>
	
		<line fill="none" stroke="#000000" stroke-width="1.06" stroke-linejoin="round" stroke-miterlimit="10" x1="41.696" y1="95.263" x2="45.381" y2="95.263"/>
	
		<line fill="none" stroke="#000000" stroke-width="1.06" stroke-linejoin="round" stroke-miterlimit="10" x1="41.696" y1="19.942" x2="45.381" y2="19.942"/>
	
		<line fill="none" stroke="#000000" stroke-width="1.06" stroke-linejoin="round" stroke-miterlimit="10" x1="45.381" y1="396.572" x2="422.012" y2="396.572"/>
	
		<line fill="none" stroke="#000000" stroke-width="1.06" stroke-linejoin="round" stroke-miterlimit="10" x1="45.381" y1="400.257" x2="45.381" y2="396.572"/>
	
		<line fill="none" stroke="#000000" stroke-width="1.06" stroke-linejoin="round" stroke-miterlimit="10" x1="120.711" y1="400.257" x2="120.711" y2="396.572"/>
	
		<line fill="none" stroke="#000000" stroke-width="1.06" stroke-linejoin="round" stroke-miterlimit="10" x1="196.031" y1="400.257" x2="196.031" y2="396.572"/>
	
		<line fill="none" stroke="#000000" stroke-width="1.06" stroke-linejoin="round" stroke-miterlimit="10" x1="271.361" y1="400.257" x2="271.361" y2="396.572"/>
	
		<line fill="none" stroke="#000000" stroke-width="1.06" stroke-linejoin="round" stroke-miterlimit="10" x1="346.682" y1="400.257" x2="346.682" y2="396.572"/>
	
		<line fill="none" stroke="#000000" stroke-width="1.06" stroke-linejoin="round" stroke-miterlimit="10" x1="422.012" y1="400.257" x2="422.012" y2="396.572"/>
	<text transform="matrix(0.7071 -0.7071 0.7071 0.7071 46.3779 410.5225)" font-family="'Helvetica'" font-size="8.6692">0</text>
	<text transform="matrix(0.7071 -0.7071 0.7071 0.7071 114.8848 417.3369)" font-family="'Helvetica'" font-size="8.6692">500</text>
	<text transform="matrix(0.7071 -0.7071 0.7071 0.7071 186.7969 420.7539)" font-family="'Helvetica'" font-size="8.6692">1000</text>
	<text transform="matrix(0.7071 -0.7071 0.7071 0.7071 262.127 420.7539)" font-family="'Helvetica'" font-size="8.6692">1500</text>
	<text transform="matrix(0.7071 -0.7071 0.7071 0.7071 337.4561 420.7529)" font-family="'Helvetica'" font-size="8.6692">2000</text>
	<text transform="matrix(0.7071 -0.7071 0.7071 0.7071 412.7764 420.7529)" font-family="'Helvetica'" font-size="8.6692">2500</text>
	<text transform="matrix(1 0 0 1 154.8564 436.3359)"><tspan x="0" y="0" font-family="'Helvetica'" font-size="10.4046">Male Median </tspan><tspan x="62.458" y="0" font-family="'Helvetica'" font-size="10.4046">W</tspan><tspan x="71.977" y="0" font-family="'Helvetica'" font-size="10.4046">eekly </tspan><tspan x="99.156" y="0" font-family="'Helvetica'" font-size="10.4046">W</tspan><tspan x="108.571" y="0" font-family="'Helvetica'" font-size="10.4046">age (USD)</tspan></text>
	<text transform="matrix(1 0 0 1 271.3623 13.2148)" font-family="'Helvetica'" font-size="10.4046">Female’s wage as a percent of Male’s</text>
	<text transform="matrix(-6.123234e-17 -1 1 -6.123234e-17 16.8394 293.0117)"><tspan x="0" y="0" font-family="'Helvetica'" font-size="10.4046">F</tspan><tspan x="6.054" y="0" font-family="'Helvetica'" font-size="10.4046">emale Median </tspan><tspan x="74.298" y="0" font-family="'Helvetica'" font-size="10.4046">W</tspan><tspan x="83.817" y="0" font-family="'Helvetica'" font-size="10.4046">eekly </tspan><tspan x="110.997" y="0" font-family="'Helvetica'" font-size="10.4046">W</tspan><tspan x="120.411" y="0" font-family="'Helvetica'" font-size="10.4046">age (USD)</tspan></text>
	<text transform="matrix(1 0 0 1 58.8301 40.2236)" font-family="'Helvetica-Bold'" font-size="8.6705">Sector</text>
	<text transform="matrix(1 0 0 1 64.2925 53.2295)" fill="#66C2A5" font-family="'AdobePiStd'" font-size="5.1069">●</text>
	<text transform="matrix(1 0 0 1 64.2925 68.2119)" fill="#FC8D62" font-family="'AdobePiStd'" font-size="5.1069">●</text>
	<text transform="matrix(1 0 0 1 64.2925 83.1943)" fill="#8DA0CB" font-family="'AdobePiStd'" font-size="5.1069">●</text>
	<text transform="matrix(1 0 0 1 64.2925 98.1768)" fill="#E78AC3" font-family="'AdobePiStd'" font-size="5.1069">●</text>
	<text transform="matrix(1 0 0 1 64.2925 113.1592)" fill="#A6D854" font-family="'AdobePiStd'" font-size="5.1069">●</text>
	<text transform="matrix(1 0 0 1 75.6855 54.5732)"><tspan x="0" y="0" font-family="'Helvetica'" font-size="8.6705">Ente</tspan><tspan x="17.836" y="0" font-family="'Helvetica'" font-size="8.6705">r</tspan><tspan x="21.062" y="0" font-family="'Helvetica'" font-size="8.6705">tainment, Education and L</tspan><tspan x="121.806" y="0" font-family="'Helvetica'" font-size="8.6705">a</tspan><tspan x="126.455" y="0" font-family="'Helvetica'" font-size="8.6705">w</tspan></text>
	<text transform="matrix(1 0 0 1 75.6855 69.5557)" font-family="'Helvetica'" font-size="8.6705">Management, Business and Financial</text>
	<text transform="matrix(1 0 0 1 75.6855 84.5381)"><tspan x="0" y="0" font-family="'Helvetica'" font-size="8.6705">Production and </tspan><tspan x="60.736" y="0" font-family="'Helvetica'" font-size="8.6705" letter-spacing="-1">T</tspan><tspan x="65" y="0" font-family="'Helvetica'" font-size="8.6705">r</tspan><tspan x="67.801" y="0" font-family="'Helvetica'" font-size="8.6705">anspo</tspan><tspan x="91.425" y="0" font-family="'Helvetica'" font-size="8.6705">r</tspan><tspan x="94.65" y="0" font-family="'Helvetica'" font-size="8.6705">tation</tspan></text>
	<text transform="matrix(1 0 0 1 75.6855 99.5205)"><tspan x="0" y="0" font-family="'Helvetica'" font-size="8.6705">Scienc</tspan><tspan x="26.024" y="0" font-family="'Helvetica'" font-size="8.6705">e</tspan><tspan x="30.716" y="0" font-family="'Helvetica'" font-size="8.6705">, Computers and Healthcare</tspan></text>
	<text transform="matrix(1 0 0 1 75.6855 114.5029)"><tspan x="0" y="0" font-family="'Helvetica'" font-size="8.6705">Se</tspan><tspan x="10.605" y="0" font-family="'Helvetica'" font-size="8.6705">r</tspan><tspan x="13.744" y="0" font-family="'Helvetica'" font-size="8.6705">vic</tspan><tspan x="24.341" y="0" font-family="'Helvetica'" font-size="8.6705">e</tspan><tspan x="29.033" y="0" font-family="'Helvetica'" font-size="8.6705">, Sales and Office</tspan></text>
	<g>
		<defs>
			<rect id="SVGID_7_" x="45.381" y="19.942" width="376.63" height="376.63"/>
		</defs>
		<clipPath id="SVGID_8_">
			<use xlink:href="#SVGID_7_"  overflow="visible"/>
		</clipPath>
		<g clip-path="url(#SVGID_8_)">
			<text transform="matrix(1 0 0 1 188.1426 264.4082)" fill="#66C2A5" font-family="'AdobePiStd'" font-size="5.1069">●</text>
		</g>
		<g clip-path="url(#SVGID_8_)">
			<text transform="matrix(1 0 0 1 175.0327 276.6162)" fill="#66C2A5" font-family="'AdobePiStd'" font-size="5.1069">●</text>
		</g>
		<g clip-path="url(#SVGID_8_)">
			<text transform="matrix(1 0 0 1 200.7925 275.4111)" fill="#66C2A5" font-family="'AdobePiStd'" font-size="5.1069">●</text>
		</g>
		<g clip-path="url(#SVGID_8_)">
			<text transform="matrix(1 0 0 1 183.9199 263.957)" fill="#66C2A5" font-family="'AdobePiStd'" font-size="5.1069">●</text>
		</g>
		<g clip-path="url(#SVGID_8_)">
			<text transform="matrix(1 0 0 1 197.3242 257.7832)" fill="#66C2A5" font-family="'AdobePiStd'" font-size="5.1069">●</text>
		</g>
		<g clip-path="url(#SVGID_8_)">
			<text transform="matrix(1 0 0 1 327.1924 152.6279)" fill="#66C2A5" font-family="'AdobePiStd'" font-size="5.1069">●</text>
		</g>
		<g clip-path="url(#SVGID_8_)">
			<text transform="matrix(1 0 0 1 209.8359 287.0117)" fill="#66C2A5" font-family="'AdobePiStd'" font-size="5.1069">●</text>
		</g>
		<g clip-path="url(#SVGID_8_)">
			<text transform="matrix(1 0 0 1 176.541 275.8623)" fill="#66C2A5" font-family="'AdobePiStd'" font-size="5.1069">●</text>
		</g>
		<g clip-path="url(#SVGID_8_)">
			<text transform="matrix(1 0 0 1 247.9429 233.6787)" fill="#66C2A5" font-family="'AdobePiStd'" font-size="5.1069">●</text>
		</g>
		<g clip-path="url(#SVGID_8_)">
			<text transform="matrix(1 0 0 1 201.3994 249.3467)" fill="#66C2A5" font-family="'AdobePiStd'" font-size="5.1069">●</text>
		</g>
		<g clip-path="url(#SVGID_8_)">
			<text transform="matrix(1 0 0 1 179.2461 278.125)" fill="#66C2A5" font-family="'AdobePiStd'" font-size="5.1069">●</text>
		</g>
		<g clip-path="url(#SVGID_8_)">
			<text transform="matrix(1 0 0 1 189.0439 257.4795)" fill="#66C2A5" font-family="'AdobePiStd'" font-size="5.1069">●</text>
		</g>
		<g clip-path="url(#SVGID_8_)">
			<text transform="matrix(1 0 0 1 231.6772 254.3154)" fill="#FC8D62" font-family="'AdobePiStd'" font-size="5.1069">●</text>
		</g>
		<g clip-path="url(#SVGID_8_)">
			<text transform="matrix(1 0 0 1 221.8882 261.5469)" fill="#FC8D62" font-family="'AdobePiStd'" font-size="5.1069">●</text>
		</g>
		<g clip-path="url(#SVGID_8_)">
			<text transform="matrix(1 0 0 1 363.0439 177.7891)" fill="#FC8D62" font-family="'AdobePiStd'" font-size="5.1069">●</text>
		</g>
		<g clip-path="url(#SVGID_8_)">
			<text transform="matrix(1 0 0 1 205.6133 277.2139)" fill="#FC8D62" font-family="'AdobePiStd'" font-size="5.1069">●</text>
		</g>
		<g clip-path="url(#SVGID_8_)">
			<text transform="matrix(1 0 0 1 236.0469 248.4453)" fill="#FC8D62" font-family="'AdobePiStd'" font-size="5.1069">●</text>
		</g>
		<g clip-path="url(#SVGID_8_)">
			<text transform="matrix(1 0 0 1 283.6484 165.8848)" fill="#FC8D62" font-family="'AdobePiStd'" font-size="5.1069">●</text>
		</g>
		<g clip-path="url(#SVGID_8_)">
			<text transform="matrix(1 0 0 1 245.9922 273.4512)" fill="#FC8D62" font-family="'AdobePiStd'" font-size="5.1069">●</text>
		</g>
		<g clip-path="url(#SVGID_8_)">
			<text transform="matrix(1 0 0 1 274.1631 238.501)" fill="#FC8D62" font-family="'AdobePiStd'" font-size="5.1069">●</text>
		</g>
		<g clip-path="url(#SVGID_8_)">
			<text transform="matrix(1 0 0 1 269.9404 249.0439)" fill="#FC8D62" font-family="'AdobePiStd'" font-size="5.1069">●</text>
		</g>
		<g clip-path="url(#SVGID_8_)">
			<text transform="matrix(1 0 0 1 153.937 308.0986)" fill="#FC8D62" font-family="'AdobePiStd'" font-size="5.1069">●</text>
		</g>
		<g clip-path="url(#SVGID_8_)">
			<text transform="matrix(1 0 0 1 242.0732 251.9053)" fill="#FC8D62" font-family="'AdobePiStd'" font-size="5.1069">●</text>
		</g>
		<g clip-path="url(#SVGID_8_)">
			<text transform="matrix(1 0 0 1 267.5293 206.5576)" fill="#FC8D62" font-family="'AdobePiStd'" font-size="5.1069">●</text>
		</g>
		<g clip-path="url(#SVGID_8_)">
			<text transform="matrix(1 0 0 1 201.998 260.9482)" fill="#FC8D62" font-family="'AdobePiStd'" font-size="5.1069">●</text>
		</g>
		<g clip-path="url(#SVGID_8_)">
			<text transform="matrix(1 0 0 1 271.4492 221.4795)" fill="#FC8D62" font-family="'AdobePiStd'" font-size="5.1069">●</text>
		</g>
		<g clip-path="url(#SVGID_8_)">
			<text transform="matrix(1 0 0 1 255.1738 240.6074)" fill="#FC8D62" font-family="'AdobePiStd'" font-size="5.1069">●</text>
		</g>
		<g clip-path="url(#SVGID_8_)">
			<text transform="matrix(1 0 0 1 261.2002 243.3213)" fill="#FC8D62" font-family="'AdobePiStd'" font-size="5.1069">●</text>
		</g>
		<g clip-path="url(#SVGID_8_)">
			<text transform="matrix(1 0 0 1 293.4463 228.5557)" fill="#FC8D62" font-family="'AdobePiStd'" font-size="5.1069">●</text>
		</g>
		<g clip-path="url(#SVGID_8_)">
			<text transform="matrix(1 0 0 1 262.709 222.6855)" fill="#FC8D62" font-family="'AdobePiStd'" font-size="5.1069">●</text>
		</g>
		<g clip-path="url(#SVGID_8_)">
			<text transform="matrix(1 0 0 1 274.6133 256.5791)" fill="#FC8D62" font-family="'AdobePiStd'" font-size="5.1069">●</text>
		</g>
		<g clip-path="url(#SVGID_8_)">
			<text transform="matrix(1 0 0 1 224.2988 288.668)" fill="#FC8D62" font-family="'AdobePiStd'" font-size="5.1069">●</text>
		</g>
		<g clip-path="url(#SVGID_8_)">
			<text transform="matrix(1 0 0 1 213.4517 255.9717)" fill="#FC8D62" font-family="'AdobePiStd'" font-size="5.1069">●</text>
		</g>
		<g clip-path="url(#SVGID_8_)">
			<text transform="matrix(1 0 0 1 249.4517 243.7725)" fill="#FC8D62" font-family="'AdobePiStd'" font-size="5.1069">●</text>
		</g>
		<g clip-path="url(#SVGID_8_)">
			<text transform="matrix(1 0 0 1 227.3071 251.7578)" fill="#FC8D62" font-family="'AdobePiStd'" font-size="5.1069">●</text>
		</g>
		<g clip-path="url(#SVGID_8_)">
			<text transform="matrix(1 0 0 1 233.186 255.0693)" fill="#FC8D62" font-family="'AdobePiStd'" font-size="5.1069">●</text>
		</g>
		<g clip-path="url(#SVGID_8_)">
			<text transform="matrix(1 0 0 1 183.1655 270.4346)" fill="#FC8D62" font-family="'AdobePiStd'" font-size="5.1069">●</text>
		</g>
		<g clip-path="url(#SVGID_8_)">
			<text transform="matrix(1 0 0 1 114.3218 335.6709)" fill="#8DA0CB" font-family="'AdobePiStd'" font-size="5.1069">●</text>
		</g>
		<g clip-path="url(#SVGID_8_)">
			<text transform="matrix(1 0 0 1 140.5327 311.1162)" fill="#8DA0CB" font-family="'AdobePiStd'" font-size="5.1069">●</text>
		</g>
		<g clip-path="url(#SVGID_8_)">
			<text transform="matrix(1 0 0 1 120.9458 326.1777)" fill="#8DA0CB" font-family="'AdobePiStd'" font-size="5.1069">●</text>
		</g>
		<g clip-path="url(#SVGID_8_)">
			<text transform="matrix(1 0 0 1 150.625 321.3564)" fill="#8DA0CB" font-family="'AdobePiStd'" font-size="5.1069">●</text>
		</g>
		<g clip-path="url(#SVGID_8_)">
			<text transform="matrix(1 0 0 1 132.3999 330.7031)" fill="#8DA0CB" font-family="'AdobePiStd'" font-size="5.1069">●</text>
		</g>
		<g clip-path="url(#SVGID_8_)">
			<text transform="matrix(1 0 0 1 183.3218 298.1543)" fill="#8DA0CB" font-family="'AdobePiStd'" font-size="5.1069">●</text>
		</g>
		<g clip-path="url(#SVGID_8_)">
			<text transform="matrix(1 0 0 1 162.6772 316.8389)" fill="#8DA0CB" font-family="'AdobePiStd'" font-size="5.1069">●</text>
		</g>
		<g clip-path="url(#SVGID_8_)">
			<text transform="matrix(1 0 0 1 121.7002 335.6709)" fill="#8DA0CB" font-family="'AdobePiStd'" font-size="5.1069">●</text>
		</g>
		<g clip-path="url(#SVGID_8_)">
			<text transform="matrix(1 0 0 1 110.7061 340.1885)" fill="#8DA0CB" font-family="'AdobePiStd'" font-size="5.1069">●</text>
		</g>
		<g clip-path="url(#SVGID_8_)">
			<text transform="matrix(1 0 0 1 131.1943 320.4541)" fill="#8DA0CB" font-family="'AdobePiStd'" font-size="5.1069">●</text>
		</g>
		<g clip-path="url(#SVGID_8_)">
			<text transform="matrix(1 0 0 1 128.6279 326.1777)" fill="#8DA0CB" font-family="'AdobePiStd'" font-size="5.1069">●</text>
		</g>
		<g clip-path="url(#SVGID_8_)">
			<text transform="matrix(1 0 0 1 119.437 334.916)" fill="#8DA0CB" font-family="'AdobePiStd'" font-size="5.1069">●</text>
		</g>
		<g clip-path="url(#SVGID_8_)">
			<text transform="matrix(1 0 0 1 103.0234 338.5332)" fill="#8DA0CB" font-family="'AdobePiStd'" font-size="5.1069">●</text>
		</g>
		<g clip-path="url(#SVGID_8_)">
			<text transform="matrix(1 0 0 1 135.5645 325.5791)" fill="#8DA0CB" font-family="'AdobePiStd'" font-size="5.1069">●</text>
		</g>
		<g clip-path="url(#SVGID_8_)">
			<text transform="matrix(1 0 0 1 220.6821 269.8359)" fill="#E78AC3" font-family="'AdobePiStd'" font-size="5.1069">●</text>
		</g>
		<g clip-path="url(#SVGID_8_)">
			<text transform="matrix(1 0 0 1 177.1392 271.041)" fill="#E78AC3" font-family="'AdobePiStd'" font-size="5.1069">●</text>
		</g>
		<g clip-path="url(#SVGID_8_)">
			<text transform="matrix(1 0 0 1 218.8701 247.9941)" fill="#E78AC3" font-family="'AdobePiStd'" font-size="5.1069">●</text>
		</g>
		<g clip-path="url(#SVGID_8_)">
			<text transform="matrix(1 0 0 1 243.7285 211.8389)" fill="#E78AC3" font-family="'AdobePiStd'" font-size="5.1069">●</text>
		</g>
		<g clip-path="url(#SVGID_8_)">
			<text transform="matrix(1 0 0 1 178.3447 255.0693)" fill="#E78AC3" font-family="'AdobePiStd'" font-size="5.1069">●</text>
		</g>
		<g clip-path="url(#SVGID_8_)">
			<text transform="matrix(1 0 0 1 255.7812 225.998)" fill="#E78AC3" font-family="'AdobePiStd'" font-size="5.1069">●</text>
		</g>
		<g clip-path="url(#SVGID_8_)">
			<text transform="matrix(1 0 0 1 202.1455 253.1104)" fill="#E78AC3" font-family="'AdobePiStd'" font-size="5.1069">●</text>
		</g>
		<g clip-path="url(#SVGID_8_)">
			<text transform="matrix(1 0 0 1 157.4053 300.5732)" fill="#E78AC3" font-family="'AdobePiStd'" font-size="5.1069">●</text>
		</g>
		<g clip-path="url(#SVGID_8_)">
			<text transform="matrix(1 0 0 1 146.1074 303.1309)" fill="#E78AC3" font-family="'AdobePiStd'" font-size="5.1069">●</text>
		</g>
		<g clip-path="url(#SVGID_8_)">
			<text transform="matrix(1 0 0 1 209.3765 228.5557)" fill="#E78AC3" font-family="'AdobePiStd'" font-size="5.1069">●</text>
		</g>
		<g clip-path="url(#SVGID_8_)">
			<text transform="matrix(1 0 0 1 232.8818 198.5811)" fill="#E78AC3" font-family="'AdobePiStd'" font-size="5.1069">●</text>
		</g>
		<g clip-path="url(#SVGID_8_)">
			<text transform="matrix(1 0 0 1 344.3594 112.4053)" fill="#E78AC3" font-family="'AdobePiStd'" font-size="5.1069">●</text>
		</g>
		<g clip-path="url(#SVGID_8_)">
			<text transform="matrix(1 0 0 1 266.7754 222.5293)" fill="#E78AC3" font-family="'AdobePiStd'" font-size="5.1069">●</text>
		</g>
		<g clip-path="url(#SVGID_8_)">
			<text transform="matrix(1 0 0 1 272.6543 215.1514)" fill="#E78AC3" font-family="'AdobePiStd'" font-size="5.1069">●</text>
		</g>
		<g clip-path="url(#SVGID_8_)">
			<text transform="matrix(1 0 0 1 334.873 168.2959)" fill="#E78AC3" font-family="'AdobePiStd'" font-size="5.1069">●</text>
		</g>
		<g clip-path="url(#SVGID_8_)">
			<text transform="matrix(1 0 0 1 206.2202 242.5674)" fill="#E78AC3" font-family="'AdobePiStd'" font-size="5.1069">●</text>
		</g>
		<g clip-path="url(#SVGID_8_)">
			<text transform="matrix(1 0 0 1 188.8882 243.4678)" fill="#E78AC3" font-family="'AdobePiStd'" font-size="5.1069">●</text>
		</g>
		<g clip-path="url(#SVGID_8_)">
			<text transform="matrix(1 0 0 1 285.3047 189.2344)" fill="#E78AC3" font-family="'AdobePiStd'" font-size="5.1069">●</text>
		</g>
		<g clip-path="url(#SVGID_8_)">
			<text transform="matrix(1 0 0 1 188.1426 282.0352)" fill="#A6D854" font-family="'AdobePiStd'" font-size="5.1069">●</text>
		</g>
		<g clip-path="url(#SVGID_8_)">
			<text transform="matrix(1 0 0 1 152.1338 310.0586)" fill="#A6D854" font-family="'AdobePiStd'" font-size="5.1069">●</text>
		</g>
		<g clip-path="url(#SVGID_8_)">
			<text transform="matrix(1 0 0 1 132.6943 322.2666)" fill="#A6D854" font-family="'AdobePiStd'" font-size="5.1069">●</text>
		</g>
		<g clip-path="url(#SVGID_8_)">
			<text transform="matrix(1 0 0 1 141.8853 299.5156)" fill="#A6D854" font-family="'AdobePiStd'" font-size="5.1069">●</text>
		</g>
		<g clip-path="url(#SVGID_8_)">
			<text transform="matrix(1 0 0 1 105.2778 342.1484)" fill="#A6D854" font-family="'AdobePiStd'" font-size="5.1069">●</text>
		</g>
		<g clip-path="url(#SVGID_8_)">
			<text transform="matrix(1 0 0 1 133.8994 322.7178)" fill="#A6D854" font-family="'AdobePiStd'" font-size="5.1069">●</text>
		</g>
		<g clip-path="url(#SVGID_8_)">
			<text transform="matrix(1 0 0 1 171.8677 300.2695)" fill="#A6D854" font-family="'AdobePiStd'" font-size="5.1069">●</text>
		</g>
		<g clip-path="url(#SVGID_8_)">
			<text transform="matrix(1 0 0 1 104.5234 343.6562)" fill="#A6D854" font-family="'AdobePiStd'" font-size="5.1069">●</text>
		</g>
		<g clip-path="url(#SVGID_8_)">
			<text transform="matrix(1 0 0 1 137.9746 312.625)" fill="#A6D854" font-family="'AdobePiStd'" font-size="5.1069">●</text>
		</g>
		<g clip-path="url(#SVGID_8_)">
			<text transform="matrix(1 0 0 1 153.0352 304.0332)" fill="#A6D854" font-family="'AdobePiStd'" font-size="5.1069">●</text>
		</g>
		<g clip-path="url(#SVGID_8_)">
			<text transform="matrix(1 0 0 1 122.4546 329.3418)" fill="#A6D854" font-family="'AdobePiStd'" font-size="5.1069">●</text>
		</g>
		<g clip-path="url(#SVGID_8_)">
			<text transform="matrix(1 0 0 1 157.2578 324.8242)" fill="#A6D854" font-family="'AdobePiStd'" font-size="5.1069">●</text>
		</g>
		<g clip-path="url(#SVGID_8_)">
			<text transform="matrix(1 0 0 1 196.4229 280.6826)" fill="#A6D854" font-family="'AdobePiStd'" font-size="5.1069">●</text>
		</g>
		<g clip-path="url(#SVGID_8_)">
			<text transform="matrix(1 0 0 1 168.8589 286.709)" fill="#A6D854" font-family="'AdobePiStd'" font-size="5.1069">●</text>
		</g>
		<g clip-path="url(#SVGID_8_)">
			<text transform="matrix(1 0 0 1 157.709 308.0986)" fill="#A6D854" font-family="'AdobePiStd'" font-size="5.1069">●</text>
		</g>
		<g clip-path="url(#SVGID_8_)">
			<text transform="matrix(1 0 0 1 102.8677 341.8447)" fill="#A6D854" font-family="'AdobePiStd'" font-size="5.1069">●</text>
		</g>
		<g clip-path="url(#SVGID_8_)">
			<text transform="matrix(1 0 0 1 198.9893 298.1543)" fill="#A6D854" font-family="'AdobePiStd'" font-size="5.1069">●</text>
		</g>
		<g clip-path="url(#SVGID_8_)">
			<text transform="matrix(1 0 0 1 120.7983 335.3682)" fill="#A6D854" font-family="'AdobePiStd'" font-size="5.1069">●</text>
		</g>
		<g clip-path="url(#SVGID_8_)">
			<text transform="matrix(1 0 0 1 114.6162 339.2861)" fill="#A6D854" font-family="'AdobePiStd'" font-size="5.1069">●</text>
		</g>
		<g clip-path="url(#SVGID_8_)">
			<text transform="matrix(1 0 0 1 118.9863 331.1533)" fill="#A6D854" font-family="'AdobePiStd'" font-size="5.1069">●</text>
		</g>
		<g clip-path="url(#SVGID_8_)">
			<text transform="matrix(1 0 0 1 162.6772 301.1709)" fill="#A6D854" font-family="'AdobePiStd'" font-size="5.1069">●</text>
		</g>
		<g clip-path="url(#SVGID_8_)">
			<text transform="matrix(1 0 0 1 150.625 308.8535)" fill="#A6D854" font-family="'AdobePiStd'" font-size="5.1069">●</text>
		</g>
		<g clip-path="url(#SVGID_8_)">
			<text transform="matrix(1 0 0 1 111.7549 337.0244)" fill="#A6D854" font-family="'AdobePiStd'" font-size="5.1069">●</text>
		</g>
		<g clip-path="url(#SVGID_8_)">
			<text transform="matrix(1 0 0 1 186.1826 257.0303)" fill="#A6D854" font-family="'AdobePiStd'" font-size="5.1069">●</text>
		</g>
		<g clip-path="url(#SVGID_8_)">
			<text transform="matrix(1 0 0 1 196.1191 263.957)" fill="#A6D854" font-family="'AdobePiStd'" font-size="5.1069">●</text>
		</g>
		<g clip-path="url(#SVGID_8_)">
			<text transform="matrix(1 0 0 1 196.5791 263.957)" fill="#A6D854" font-family="'AdobePiStd'" font-size="5.1069">●</text>
		</g>
		<g clip-path="url(#SVGID_8_)">
			<text transform="matrix(1 0 0 1 181.3618 289.5693)" fill="#A6D854" font-family="'AdobePiStd'" font-size="5.1069">●</text>
		</g>
		<g clip-path="url(#SVGID_8_)">
			<text transform="matrix(1 0 0 1 192.8071 296.498)" fill="#A6D854" font-family="'AdobePiStd'" font-size="5.1069">●</text>
		</g>
		<g clip-path="url(#SVGID_8_)">
			<text transform="matrix(1 0 0 1 121.8472 320.0039)" fill="#A6D854" font-family="'AdobePiStd'" font-size="5.1069">●</text>
		</g>
		<g clip-path="url(#SVGID_8_)">
			<text transform="matrix(1 0 0 1 129.9893 323.9229)" fill="#A6D854" font-family="'AdobePiStd'" font-size="5.1069">●</text>
		</g>
		<g clip-path="url(#SVGID_8_)">
			<text transform="matrix(1 0 0 1 136.7695 328.1367)" fill="#A6D854" font-family="'AdobePiStd'" font-size="5.1069">●</text>
		</g>
		<g clip-path="url(#SVGID_8_)">
			<text transform="matrix(1 0 0 1 191.7578 305.2373)" fill="#A6D854" font-family="'AdobePiStd'" font-size="5.1069">●</text>
		</g>
		<g clip-path="url(#SVGID_8_)">
			<text transform="matrix(1 0 0 1 186.937 284.2979)" fill="#A6D854" font-family="'AdobePiStd'" font-size="5.1069">●</text>
		</g>
		<g clip-path="url(#SVGID_8_)">
			<text transform="matrix(1 0 0 1 196.8735 258.6846)" fill="#A6D854" font-family="'AdobePiStd'" font-size="5.1069">●</text>
		</g>
		<g clip-path="url(#SVGID_8_)">
			<text transform="matrix(1 0 0 1 157.4053 300.2695)" fill="#A6D854" font-family="'AdobePiStd'" font-size="5.1069">●</text>
		</g>
		<g clip-path="url(#SVGID_8_)">
			<text transform="matrix(1 0 0 1 234.5381 265.1631)" fill="#A6D854" font-family="'AdobePiStd'" font-size="5.1069">●</text>
		</g>
		<g clip-path="url(#SVGID_8_)">
			<text transform="matrix(1 0 0 1 125.3154 326.9307)" fill="#A6D854" font-family="'AdobePiStd'" font-size="5.1069">●</text>
		</g>
		<g clip-path="url(#SVGID_8_)">
			<text transform="matrix(1 0 0 1 129.3823 316.5352)" fill="#A6D854" font-family="'AdobePiStd'" font-size="5.1069">●</text>
		</g>
		<g clip-path="url(#SVGID_8_)">
			<text transform="matrix(1 0 0 1 116.8789 322.8652)" fill="#A6D854" font-family="'AdobePiStd'" font-size="5.1069">●</text>
		</g>
		<g clip-path="url(#SVGID_8_)">
			<text transform="matrix(1 0 0 1 113.5669 339.7373)" fill="#A6D854" font-family="'AdobePiStd'" font-size="5.1069">●</text>
		</g>
		
			<line clip-path="url(#SVGID_8_)" fill="none" stroke="#737373" stroke-width="1.06" stroke-linejoin="round" stroke-miterlimit="10" x1="45.381" y1="396.572" x2="422.012" y2="19.942"/>
		
			<line clip-path="url(#SVGID_8_)" fill="none" stroke="#8C8C8C" stroke-width="1.06" stroke-linejoin="round" stroke-miterlimit="10" x1="45.381" y1="396.572" x2="422.012" y2="57.606"/>
		
			<line clip-path="url(#SVGID_8_)" fill="none" stroke="#A6A6A6" stroke-width="1.06" stroke-linejoin="round" stroke-miterlimit="10" x1="45.381" y1="396.572" x2="422.012" y2="95.263"/>
		
			<line clip-path="url(#SVGID_8_)" fill="none" stroke="#BFBFBF" stroke-width="1.06" stroke-linejoin="round" stroke-miterlimit="10" x1="45.381" y1="396.572" x2="422.012" y2="132.928"/>
	</g>
</g>
</svg>
