<?xml version="1.0"?><svg width="640" height="480" xmlns="http://www.w3.org/2000/svg">
 <title>wave pattern</title>
 <metadata id="metadata18081">image/svg+xmlPublic Domainclker.comMohamed Ibrahimmap symbolsmap symbols</metadata>
 <g>
  <title>Layer 1</title>
  <path fill="#0000ff" fill-rule="nonzero" id="path6712" d="m251.640442,259.607025c-6.83786,8.057678 -16.061951,11.216644 -26.292511,11.216644c-12.987244,0 -24.807861,-6.446228 -31.593292,-18.630402c-6.731842,12.442017 -18.606018,18.630402 -31.752289,18.630402c-12.986664,0 -24.701843,-6.575195 -31.486694,-18.759323c-6.732422,12.570938 -18.606049,18.759323 -31.911285,18.759323c-9.594543,0 -18.394043,-2.643341 -25.020447,-9.798615l-5.035782,-43.835297c6.891441,11.087738 17.811012,18.242996 30.056229,18.242996c13.305237,0 25.178864,-7.928726 31.911285,-20.498932c6.784851,12.183456 18.500031,20.498932 31.486694,20.498932c13.146271,0 25.020447,-7.928726 31.752289,-20.370041c6.785431,12.183502 18.606049,20.370041 31.593292,20.370041c13.252258,0 24.967438,-8.315475 31.646301,-20.885666l-5.35379,45.059937z"/>
  <path fill="#0000ff" fill-rule="nonzero" d="m378.640442,259.005646c-6.83786,7.771301 -16.061951,10.818024 -26.292511,10.818024c-12.987244,0 -24.807861,-6.217133 -31.593292,-17.968292c-6.731842,11.999847 -18.606018,17.968292 -31.752289,17.968292c-12.986664,0 -24.701843,-6.341492 -31.486694,-18.092636c-6.732422,12.124191 -18.606049,18.092636 -31.911285,18.092636c-9.594543,0 -18.394043,-2.549408 -25.020447,-9.450378l-5.035782,-42.277435c6.891434,10.693665 17.810989,17.59465 30.056229,17.59465c13.305237,0 25.178864,-7.646957 31.911285,-19.770416c6.784851,11.750458 18.500031,19.770416 31.486694,19.770416c13.146271,0 25.020447,-7.646957 31.752289,-19.646103c6.785431,11.750488 18.606049,19.646103 31.593292,19.646103c13.252258,0 24.967438,-8.019958 31.646301,-20.143417l-5.35379,43.458557z" id="svg_1"/>
  <ellipse fill="#0000ff" cx="257" cy="244" id="svg_3" ry="11"/>
  <ellipse fill="#0000ff" cx="258" cy="245" id="svg_4" ry="5"/>
  <path fill="#0000ff" fill-rule="nonzero" d="m504.640442,258.806335c-6.83786,7.91449 -16.061951,11.017334 -26.292511,11.017334c-12.987244,0 -24.807861,-6.331696 -31.593292,-18.299347c-6.731842,12.220917 -18.606018,18.299347 -31.752289,18.299347c-12.986664,0 -24.701843,-6.458344 -31.486694,-18.42598c-6.732422,12.347549 -18.606049,18.42598 -31.911285,18.42598c-9.594543,0 -18.394043,-2.596375 -25.020447,-9.624512l-5.035767,-43.056351c6.891418,10.890701 17.810974,17.918823 30.056213,17.918823c13.305237,0 25.178864,-7.787842 31.911285,-20.134674c6.784851,11.966965 18.500031,20.134674 31.486694,20.134674c13.146271,0 25.020447,-7.787842 31.752289,-20.008072c6.785431,11.966995 18.606049,20.008072 31.593292,20.008072c13.252258,0 24.967438,-8.167709 31.646301,-20.514542l-5.35379,44.259247z" id="svg_5"/>
  <path fill="#007fff" fill-rule="nonzero" d="m253.640442,278.204956c-6.83786,7.628113 -16.061951,10.618713 -26.292511,10.618713c-12.987244,0 -24.807861,-6.1026 -31.593292,-17.637238c-6.731842,11.778748 -18.606018,17.637238 -31.752289,17.637238c-12.986664,0 -24.701843,-6.22467 -31.486694,-17.759308c-6.732422,11.900818 -18.606049,17.759308 -31.911285,17.759308c-9.594543,0 -18.394043,-2.502441 -25.020447,-9.276276l-5.035782,-41.498505c6.891441,10.496643 17.811012,17.270477 30.056229,17.270477c13.305237,0 25.178864,-7.506042 31.911285,-19.406158c6.784851,11.533966 18.500031,19.406158 31.486694,19.406158c13.146271,0 25.020447,-7.506042 31.752289,-19.284119c6.785431,11.533997 18.606049,19.284119 31.593292,19.284119c13.252258,0 24.967438,-7.872192 31.646301,-19.772278l-5.35379,42.657867z" id="svg_6"/>
  <path fill="#007fff" fill-rule="nonzero" d="m380.640442,278.404297c-6.83786,7.484924 -16.061951,10.419373 -26.292511,10.419373c-12.987244,0 -24.807861,-5.988068 -31.593292,-17.306183c-6.731842,11.557648 -18.606018,17.306183 -31.752289,17.306183c-12.986664,0 -24.701843,-6.107819 -31.486694,-17.425964c-6.732422,11.677429 -18.606049,17.425964 -31.911285,17.425964c-9.594543,0 -18.394043,-2.455475 -25.020447,-9.102142l-5.035782,-40.719604c6.891434,10.299652 17.810989,16.94632 30.056229,16.94632c13.305237,0 25.178864,-7.365173 31.911285,-19.041901c6.784851,11.317474 18.500031,19.041901 31.486694,19.041901c13.146271,0 25.020447,-7.365173 31.752289,-18.92218c6.785431,11.317535 18.606049,18.92218 31.593292,18.92218c13.252258,0 24.967438,-7.724426 31.646301,-19.401154l-5.35379,41.857208z" id="svg_7"/>
  <path fill="#007fff" fill-rule="nonzero" d="m506.640442,279.404297c-6.83783,7.484924 -16.061951,10.419373 -26.292511,10.419373c-12.987244,0 -24.807861,-5.988068 -31.593292,-17.306183c-6.731842,11.557648 -18.606018,17.306183 -31.752289,17.306183c-12.986664,0 -24.701843,-6.107819 -31.486694,-17.425964c-6.732422,11.677429 -18.606049,17.425964 -31.911285,17.425964c-9.594543,0 -18.394043,-2.455475 -25.020447,-9.102142l-5.035767,-40.719604c6.891418,10.299652 17.810974,16.94632 30.056213,16.94632c13.305237,0 25.178864,-7.365173 31.911285,-19.041901c6.784851,11.317474 18.500031,19.041901 31.486694,19.041901c13.146271,0 25.020447,-7.365173 31.752289,-18.92218c6.785431,11.317535 18.606049,18.92218 31.593292,18.92218c13.252289,0 24.967438,-7.724426 31.646332,-19.401154l-5.353821,41.857208z" id="svg_8"/>
  <path fill="#00ffff" fill-rule="nonzero" d="m254.640442,296.603607c-6.83786,7.341736 -16.061951,10.220062 -26.292511,10.220062c-12.987244,0 -24.807861,-5.873505 -31.593292,-16.975128c-6.731842,11.336578 -18.606018,16.975128 -31.752289,16.975128c-12.986664,0 -24.701843,-5.990967 -31.486694,-17.092621c-6.732422,11.454071 -18.606049,17.092621 -31.911285,17.092621c-9.594543,0 -18.394043,-2.408508 -25.020447,-8.92804l-5.035782,-39.940643c6.891441,10.1026 17.811012,16.622131 30.056229,16.622131c13.305237,0 25.178864,-7.224274 31.911285,-18.677643c6.784851,11.100983 18.500031,18.677643 31.486694,18.677643c13.146271,0 25.020447,-7.224274 31.752289,-18.560211c6.785431,11.101013 18.606049,18.560211 31.593292,18.560211c13.252258,0 24.967438,-7.57666 31.646301,-19.030029l-5.35379,41.056519z" id="svg_9"/>
  <path fill="#00ffff" fill-rule="nonzero" d="m381.640442,296.603607c-6.83786,7.341736 -16.061951,10.220062 -26.292511,10.220062c-12.987244,0 -24.807861,-5.873505 -31.593292,-16.975128c-6.731842,11.336578 -18.606018,16.975128 -31.752289,16.975128c-12.986664,0 -24.701843,-5.990967 -31.486694,-17.092621c-6.732422,11.454071 -18.606049,17.092621 -31.911285,17.092621c-9.594543,0 -18.394043,-2.408508 -25.020447,-8.92804l-5.035782,-39.940643c6.891434,10.1026 17.810989,16.622131 30.056229,16.622131c13.305237,0 25.178864,-7.224274 31.911285,-18.677643c6.784851,11.100983 18.500031,18.677643 31.486694,18.677643c13.146271,0 25.020447,-7.224274 31.752289,-18.560211c6.785431,11.101013 18.606049,18.560211 31.593292,18.560211c13.252258,0 24.967438,-7.57666 31.646301,-19.030029l-5.35379,41.056519z" id="svg_10"/>
  <path fill="#00ffff" fill-rule="nonzero" d="m507.640442,296.404297c-6.83783,7.484924 -16.061951,10.419373 -26.292511,10.419373c-12.987244,0 -24.807861,-5.988068 -31.593292,-17.306183c-6.731842,11.557648 -18.606018,17.306183 -31.752289,17.306183c-12.986664,0 -24.701843,-6.107819 -31.486694,-17.425964c-6.732422,11.677429 -18.606049,17.425964 -31.911285,17.425964c-9.594543,0 -18.394043,-2.455475 -25.020447,-9.102142l-5.035767,-40.719604c6.891418,10.299652 17.810974,16.94632 30.056213,16.94632c13.305237,0 25.178864,-7.365173 31.911285,-19.041901c6.784851,11.317474 18.500031,19.041901 31.486694,19.041901c13.146271,0 25.020447,-7.365173 31.752289,-18.92218c6.785431,11.317535 18.606049,18.92218 31.593292,18.92218c13.252289,0 24.967438,-7.724426 31.646332,-19.401154l-5.353821,41.857208z" id="svg_11"/>
  <path id="svg_2" fill="#00ffff" fill-rule="nonzero" d="m204.640442,421.603607c-6.83786,7.341736 -16.061951,10.220062 -26.292511,10.220062c-12.987244,0 -24.807861,-5.873505 -31.593292,-16.975128c-6.731842,11.336578 -18.606018,16.975128 -31.752289,16.975128c-12.986664,0 -24.701843,-5.990967 -31.486694,-17.092621c-6.732422,11.454071 -18.606049,17.092621 -31.911285,17.092621c-9.594543,0 -18.394043,-2.408508 -25.020447,-8.92804l-5.035782,-39.940643c6.891441,10.1026 17.811012,16.622131 30.056229,16.622131c13.305237,0 25.178864,-7.224274 31.911285,-18.677643c6.784851,11.100983 18.500031,18.677643 31.486694,18.677643c13.146271,0 25.020447,-7.224274 31.752289,-18.560211c6.785431,11.101013 18.606049,18.560211 31.593292,18.560211c13.252258,0 24.967438,-7.57666 31.646301,-19.030029l-5.35379,41.056519z"/>
  <path id="svg_12" fill="#007fff" fill-rule="nonzero" d="m403.640442,423.204956c-6.83786,7.628113 -16.061951,10.618713 -26.292511,10.618713c-12.987244,0 -24.807861,-6.1026 -31.593292,-17.637238c-6.731842,11.778748 -18.606018,17.637238 -31.752289,17.637238c-12.986664,0 -24.701843,-6.22467 -31.486694,-17.759308c-6.732422,11.900818 -18.606049,17.759308 -31.911285,17.759308c-9.594543,0 -18.394043,-2.502441 -25.020447,-9.276276l-5.035782,-41.498505c6.891434,10.496643 17.81102,17.270477 30.056229,17.270477c13.305237,0 25.178864,-7.506042 31.911285,-19.406158c6.784851,11.533966 18.500031,19.406158 31.486694,19.406158c13.146271,0 25.020447,-7.506042 31.752289,-19.284119c6.785431,11.533997 18.606049,19.284119 31.593292,19.284119c13.252258,0 24.967438,-7.872192 31.646301,-19.772278l-5.35379,42.657867z"/>
  <path id="svg_13" fill="#0000ff" fill-rule="nonzero" d="m604.640442,425.607025c-6.83783,8.057678 -16.061951,11.216644 -26.292542,11.216644c-12.987183,0 -24.807861,-6.446228 -31.593262,-18.630402c-6.731812,12.442017 -18.606018,18.630402 -31.752258,18.630402c-12.986694,0 -24.701874,-6.575195 -31.486725,-18.759338c-6.732422,12.570953 -18.606049,18.759338 -31.911285,18.759338c-9.594543,0 -18.394043,-2.643341 -25.020447,-9.798615l-5.035767,-43.835297c6.891418,11.087738 17.811005,18.242981 30.056213,18.242981c13.305237,0 25.178864,-7.928711 31.911285,-20.498901c6.784851,12.183441 18.500031,20.498901 31.486725,20.498901c13.14624,0 25.020447,-7.928711 31.752258,-20.370026c6.7854,12.183502 18.606079,20.370026 31.593262,20.370026c13.252319,0 24.967468,-8.31546 31.646362,-20.885651l-5.353821,45.059937z"/>
  <path id="svg_14" fill="#00ffff" fill-rule="nonzero" d="m478.640442,89.603607c-6.83786,7.341736 -16.061951,10.220062 -26.292511,10.220062c-12.987244,0 -24.807861,-5.873505 -31.593292,-16.975128c-6.731842,11.336578 -18.606018,16.975128 -31.752289,16.975128c-12.986664,0 -24.701843,-5.990967 -31.486694,-17.092621c-6.732422,11.454071 -18.606049,17.092621 -31.911285,17.092621c-9.594543,0 -18.394043,-2.408508 -25.020447,-8.92804l-5.035767,-39.940643c6.891418,10.1026 17.811005,16.622131 30.056213,16.622131c13.305237,0 25.178864,-7.224274 31.911285,-18.677643c6.784851,11.100983 18.500031,18.677643 31.486694,18.677643c13.146271,0 25.020447,-7.224274 31.752289,-18.560211c6.785431,11.101013 18.606049,18.560211 31.593292,18.560211c13.252258,0 24.967438,-7.57666 31.646301,-19.030029l-5.35379,41.056519z"/>
  <path id="svg_15" fill="#00ffff" fill-rule="nonzero" d="m351.640442,89.603607c-6.83786,7.341736 -16.061951,10.220062 -26.292511,10.220062c-12.987244,0 -24.807861,-5.873505 -31.593292,-16.975128c-6.731842,11.336578 -18.606018,16.975128 -31.752289,16.975128c-12.986664,0 -24.701843,-5.990967 -31.486694,-17.092621c-6.732422,11.454071 -18.606049,17.092621 -31.911285,17.092621c-9.594543,0 -18.394043,-2.408508 -25.020447,-8.92804l-5.035782,-39.940643c6.891434,10.1026 17.811005,16.622131 30.056229,16.622131c13.305237,0 25.178864,-7.224274 31.911285,-18.677643c6.784851,11.100983 18.500031,18.677643 31.486694,18.677643c13.146271,0 25.020447,-7.224274 31.752289,-18.560211c6.785431,11.101013 18.606049,18.560211 31.593292,18.560211c13.252258,0 24.967438,-7.57666 31.646301,-19.030029l-5.35379,41.056519z"/>
  <path id="svg_16" fill="#00ffff" fill-rule="nonzero" d="m224.640442,89.603607c-6.83786,7.341736 -16.061951,10.220062 -26.292511,10.220062c-12.987244,0 -24.807861,-5.873505 -31.593292,-16.975128c-6.731842,11.336578 -18.606018,16.975128 -31.752289,16.975128c-12.986664,0 -24.701843,-5.990967 -31.486694,-17.092621c-6.732422,11.454071 -18.606049,17.092621 -31.911285,17.092621c-9.594543,0 -18.394043,-2.408508 -25.020447,-8.92804l-5.035782,-39.940643c6.891441,10.1026 17.811012,16.622131 30.056229,16.622131c13.305237,0 25.178864,-7.224274 31.911285,-18.677643c6.784851,11.100983 18.500031,18.677643 31.486694,18.677643c13.146271,0 25.020447,-7.224274 31.752289,-18.560211c6.785431,11.101013 18.606049,18.560211 31.593292,18.560211c13.252258,0 24.967438,-7.57666 31.646301,-19.030029l-5.35379,41.056519z"/>
  <path id="svg_17" fill="#ffffff" fill-rule="nonzero" d="m225.640442,104.603607c-6.83786,7.341736 -16.061951,10.220062 -26.292511,10.220062c-12.987244,0 -24.807861,-5.873512 -31.593292,-16.975128c-6.731842,11.336578 -18.606018,16.975128 -31.752289,16.975128c-12.986664,0 -24.701843,-5.990967 -31.486687,-17.092621c-6.73243,11.454071 -18.606056,17.092621 -31.911293,17.092621c-9.594543,0 -18.394043,-2.408508 -25.020454,-8.92804l-5.035774,-39.940643c6.891434,10.1026 17.811005,16.622131 30.056229,16.622131c13.305237,0 25.178864,-7.224274 31.911293,-18.677643c6.784843,11.100983 18.500023,18.677643 31.486687,18.677643c13.146271,0 25.020447,-7.224274 31.752289,-18.560211c6.785431,11.101013 18.606049,18.560211 31.593292,18.560211c13.252258,0 24.967438,-7.57666 31.646301,-19.030029l-5.35379,41.056519z"/>
  <path id="svg_18" fill="#ffffff" fill-rule="nonzero" d="m350.640442,104.603607c-6.83786,7.341736 -16.061951,10.220062 -26.292511,10.220062c-12.987244,0 -24.807861,-5.873505 -31.593292,-16.975128c-6.731842,11.336578 -18.606018,16.975128 -31.752289,16.975128c-12.986664,0 -24.701843,-5.990967 -31.486694,-17.092621c-6.732422,11.454071 -18.606049,17.092621 -31.911285,17.092621c-9.594543,0 -18.394043,-2.408508 -25.020447,-8.92804l-5.035782,-39.940643c6.891434,10.1026 17.81102,16.622131 30.056229,16.622131c13.305237,0 25.178864,-7.224281 31.911285,-18.677635c6.784851,11.100975 18.500031,18.677635 31.486694,18.677635c13.146271,0 25.020447,-7.224281 31.752289,-18.560211c6.785431,11.101013 18.606049,18.560211 31.593292,18.560211c13.252258,0 24.967438,-7.57666 31.646301,-19.030029l-5.35379,41.056519z"/>
  <path id="svg_19" fill="#ffffff" fill-rule="nonzero" d="m477.640442,103.603607c-6.83786,7.341736 -16.061951,10.220062 -26.292511,10.220062c-12.987244,0 -24.807861,-5.873505 -31.593292,-16.975128c-6.731842,11.336578 -18.606018,16.975128 -31.752289,16.975128c-12.986664,0 -24.701843,-5.990967 -31.486694,-17.092621c-6.732422,11.454071 -18.606049,17.092621 -31.911285,17.092621c-9.594543,0 -18.394043,-2.408508 -25.020447,-8.92804l-5.035767,-39.940643c6.891418,10.1026 17.811005,16.622131 30.056213,16.622131c13.305237,0 25.178864,-7.224281 31.911285,-18.677635c6.784851,11.100975 18.500031,18.677635 31.486694,18.677635c13.146271,0 25.020447,-7.224281 31.752289,-18.560211c6.785431,11.101013 18.606049,18.560211 31.593292,18.560211c13.252258,0 24.967438,-7.57666 31.646301,-19.030029l-5.35379,41.056519z"/>
  <path id="svg_20" fill="#007fff" fill-rule="nonzero" d="m478.640442,118.204956c-6.83786,7.628113 -16.061951,10.618713 -26.292511,10.618713c-12.987244,0 -24.807861,-6.1026 -31.593292,-17.637238c-6.731842,11.778748 -18.606018,17.637238 -31.752289,17.637238c-12.986664,0 -24.701843,-6.22467 -31.486694,-17.759308c-6.732422,11.900818 -18.606049,17.759308 -31.911285,17.759308c-9.594543,0 -18.394043,-2.502441 -25.020447,-9.276276l-5.035767,-41.498505c6.891418,10.496643 17.811005,17.270477 30.056213,17.270477c13.305237,0 25.178864,-7.506042 31.911285,-19.406158c6.784851,11.533966 18.500031,19.406158 31.486694,19.406158c13.146271,0 25.020447,-7.506042 31.752289,-19.284119c6.785431,11.533997 18.606049,19.284119 31.593292,19.284119c13.252258,0 24.967438,-7.872192 31.646301,-19.772278l-5.35379,42.657867z"/>
  <path id="svg_21" fill="#007fff" fill-rule="nonzero" d="m351.640442,119.204956c-6.83786,7.628113 -16.061951,10.618713 -26.292511,10.618713c-12.987244,0 -24.807861,-6.1026 -31.593292,-17.637238c-6.731842,11.778748 -18.606018,17.637238 -31.752289,17.637238c-12.986664,0 -24.701843,-6.22467 -31.486694,-17.759308c-6.732422,11.900818 -18.606049,17.759308 -31.911285,17.759308c-9.594543,0 -18.394043,-2.502441 -25.020447,-9.276276l-5.035767,-41.498505c6.891418,10.496643 17.811005,17.270477 30.056213,17.270477c13.305237,0 25.178864,-7.506042 31.911285,-19.406158c6.784851,11.533966 18.500031,19.406158 31.486694,19.406158c13.146271,0 25.020447,-7.506042 31.752289,-19.284119c6.785431,11.533997 18.606049,19.284119 31.593292,19.284119c13.252258,0 24.967438,-7.872192 31.646301,-19.772278l-5.35379,42.657867z"/>
  <path id="svg_22" fill="#007fff" fill-rule="nonzero" d="m225.640442,119.204956c-6.83786,7.628113 -16.061951,10.618713 -26.292511,10.618713c-12.987244,0 -24.807861,-6.1026 -31.593292,-17.637238c-6.731842,11.778748 -18.606018,17.637238 -31.752289,17.637238c-12.986664,0 -24.701843,-6.22467 -31.486694,-17.759308c-6.732422,11.900818 -18.606049,17.759308 -31.911285,17.759308c-9.594543,0 -18.394043,-2.502441 -25.020447,-9.276276l-5.035767,-41.498505c6.891418,10.496643 17.811005,17.270477 30.056213,17.270477c13.305237,0 25.178864,-7.506042 31.911285,-19.406158c6.784851,11.533966 18.500031,19.406158 31.486694,19.406158c13.146271,0 25.020447,-7.506042 31.752289,-19.284119c6.785431,11.533997 18.606049,19.284119 31.593292,19.284119c13.252258,0 24.967438,-7.872192 31.646301,-19.772278l-5.35379,42.657867z"/>
  <path id="svg_23" fill="#ffffff" fill-rule="nonzero" d="m226.640442,136.204956c-6.83786,7.628113 -16.061951,10.618713 -26.292511,10.618713c-12.987244,0 -24.807861,-6.1026 -31.593292,-17.637238c-6.731842,11.778748 -18.606018,17.637238 -31.752289,17.637238c-12.986664,0 -24.701843,-6.22467 -31.486687,-17.759308c-6.73243,11.900818 -18.606056,17.759308 -31.911293,17.759308c-9.594543,0 -18.394043,-2.502441 -25.020454,-9.276276l-5.035755,-41.498505c6.891415,10.496643 17.811001,17.270477 30.05621,17.270477c13.305237,0 25.178864,-7.50605 31.911293,-19.406158c6.784843,11.533958 18.500023,19.406158 31.486687,19.406158c13.146271,0 25.020447,-7.50605 31.752289,-19.284119c6.785431,11.533989 18.606049,19.284119 31.593292,19.284119c13.252258,0 24.967438,-7.8722 31.646301,-19.772278l-5.35379,42.657867z"/>
  <path id="svg_24" fill="#ffffff" fill-rule="nonzero" d="m352.640442,135.204956c-6.83786,7.628113 -16.061951,10.618713 -26.292511,10.618713c-12.987244,0 -24.807861,-6.1026 -31.593292,-17.637238c-6.731842,11.778748 -18.606018,17.637238 -31.752289,17.637238c-12.986664,0 -24.701843,-6.22467 -31.486694,-17.759308c-6.732422,11.900818 -18.606049,17.759308 -31.911285,17.759308c-9.594543,0 -18.394043,-2.502441 -25.020447,-9.276276l-5.035751,-41.498505c6.891403,10.496643 17.810989,17.270477 30.056198,17.270477c13.305237,0 25.178864,-7.506042 31.911285,-19.406158c6.784851,11.533951 18.500031,19.406158 31.486694,19.406158c13.146271,0 25.020447,-7.506042 31.752289,-19.284119c6.785431,11.533997 18.606049,19.284119 31.593292,19.284119c13.252258,0 24.967438,-7.872208 31.646301,-19.772278l-5.35379,42.657867z"/>
  <path id="svg_25" fill="#ffffff" fill-rule="nonzero" d="m478.640442,133.204956c-6.83786,7.628113 -16.061951,10.618713 -26.292511,10.618713c-12.987244,0 -24.807861,-6.1026 -31.593292,-17.637238c-6.731842,11.778748 -18.606018,17.637238 -31.752289,17.637238c-12.986664,0 -24.701843,-6.22467 -31.486694,-17.759308c-6.732422,11.900818 -18.606049,17.759308 -31.911285,17.759308c-9.594543,0 -18.394043,-2.502441 -25.020447,-9.276276l-5.035767,-41.498505c6.891418,10.496643 17.811005,17.270477 30.056213,17.270477c13.305237,0 25.178864,-7.506042 31.911285,-19.406158c6.784851,11.533951 18.500031,19.406158 31.486694,19.406158c13.146271,0 25.020447,-7.506042 31.752289,-19.284119c6.785431,11.533997 18.606049,19.284119 31.593292,19.284119c13.252258,0 24.967438,-7.872208 31.646301,-19.772278l-5.35379,42.657867z"/>
  <path id="svg_26" fill="#0000ff" fill-rule="nonzero" d="m480.640442,150.607025c-6.83783,8.057678 -16.061951,11.216644 -26.292542,11.216644c-12.987183,0 -24.807861,-6.446228 -31.593262,-18.630402c-6.731812,12.442017 -18.606018,18.630402 -31.752258,18.630402c-12.986694,0 -24.701874,-6.575195 -31.486725,-18.759338c-6.732422,12.570953 -18.606049,18.759338 -31.911285,18.759338c-9.594543,0 -18.394043,-2.643341 -25.020447,-9.798615l-5.035767,-43.835297c6.891418,11.087738 17.811005,18.242981 30.056213,18.242981c13.305237,0 25.178864,-7.928711 31.911285,-20.498901c6.784851,12.183441 18.500031,20.498901 31.486725,20.498901c13.14624,0 25.020447,-7.928711 31.752258,-20.370026c6.7854,12.183502 18.606079,20.370026 31.593262,20.370026c13.252319,0 24.967468,-8.31546 31.646362,-20.885651l-5.353821,45.059937z"/>
  <path id="svg_27" fill="#0000ff" fill-rule="nonzero" d="m353.640442,149.607025c-6.83783,8.057678 -16.061951,11.216644 -26.292542,11.216644c-12.987183,0 -24.807861,-6.446228 -31.593262,-18.630402c-6.731812,12.442017 -18.606018,18.630402 -31.752258,18.630402c-12.986694,0 -24.701843,-6.575195 -31.486755,-18.759338c-6.732422,12.570953 -18.606018,18.759338 -31.911255,18.759338c-9.594543,0 -18.394043,-2.643341 -25.020447,-9.798615l-5.035767,-43.835297c6.891418,11.087738 17.811005,18.242981 30.056213,18.242981c13.305237,0 25.178833,-7.928711 31.911255,-20.498901c6.784912,12.183441 18.500061,20.498901 31.486755,20.498901c13.14624,0 25.020447,-7.928711 31.752258,-20.370026c6.7854,12.183502 18.606079,20.370026 31.593262,20.370026c13.252319,0 24.967468,-8.31546 31.646362,-20.885651l-5.353821,45.059937z"/>
  <path id="svg_28" fill="#0000ff" fill-rule="nonzero" d="m227.640442,149.607025c-6.83783,8.057678 -16.061951,11.216644 -26.292542,11.216644c-12.987183,0 -24.807861,-6.446228 -31.593262,-18.630402c-6.731812,12.442017 -18.606018,18.630402 -31.752258,18.630402c-12.986694,0 -24.701843,-6.575195 -31.486755,-18.759338c-6.732422,12.570953 -18.606018,18.759338 -31.911255,18.759338c-9.594543,0 -18.394043,-2.643341 -25.020447,-9.798615l-5.035767,-43.835297c6.891418,11.087738 17.811005,18.242981 30.056213,18.242981c13.305237,0 25.178833,-7.928711 31.911255,-20.498901c6.784912,12.183441 18.500061,20.498901 31.486755,20.498901c13.14624,0 25.020447,-7.928711 31.752258,-20.370026c6.7854,12.183502 18.606079,20.370026 31.593262,20.370026c13.252319,0 24.967468,-8.31546 31.646362,-20.885651l-5.353821,45.059937z"/>
  <path id="svg_29" fill="#ffffff" fill-rule="nonzero" d="m228.640442,164.607025c-6.83783,8.057678 -16.061951,11.216644 -26.292542,11.216644c-12.987183,0 -24.807861,-6.446228 -31.593262,-18.630402c-6.731812,12.442017 -18.606018,18.630402 -31.752258,18.630402c-12.986694,0 -24.701843,-6.575195 -31.486748,-18.759338c-6.73243,12.570953 -18.606026,18.759338 -31.911263,18.759338c-9.594543,0 -18.394043,-2.643341 -25.020454,-9.798615l-5.035751,-43.835297c6.891411,11.087738 17.810997,18.242981 30.056206,18.242981c13.305237,0 25.178833,-7.928711 31.911263,-20.498901c6.784904,12.183441 18.500053,20.498901 31.486748,20.498901c13.14624,0 25.020447,-7.928711 31.752258,-20.370026c6.7854,12.183517 18.606079,20.370026 31.593262,20.370026c13.252319,0 24.967468,-8.31546 31.646362,-20.885651l-5.353821,45.059937z"/>
  <path id="svg_30" fill="#ffffff" fill-rule="nonzero" d="m354.640442,165.607025c-6.83783,8.057678 -16.061951,11.216644 -26.292542,11.216644c-12.987183,0 -24.807861,-6.446228 -31.593262,-18.630402c-6.731812,12.442017 -18.606018,18.630402 -31.752258,18.630402c-12.986694,0 -24.701843,-6.575195 -31.486755,-18.759338c-6.732422,12.570953 -18.606018,18.759338 -31.911255,18.759338c-9.594543,0 -18.394043,-2.643341 -25.020447,-9.798615l-5.035767,-43.835297c6.891418,11.087738 17.811005,18.242981 30.056213,18.242981c13.305237,0 25.178833,-7.928711 31.911255,-20.498901c6.784912,12.183441 18.500061,20.498901 31.486755,20.498901c13.14624,0 25.020447,-7.928711 31.752258,-20.370026c6.7854,12.183517 18.606079,20.370026 31.593262,20.370026c13.252319,0 24.967468,-8.31546 31.646362,-20.885651l-5.353821,45.059937z"/>
  <path id="svg_31" fill="#ffffff" fill-rule="nonzero" d="m479.640442,165.607025c-6.83783,8.057678 -16.061951,11.216644 -26.292542,11.216644c-12.987183,0 -24.807861,-6.446228 -31.593262,-18.630402c-6.731812,12.442017 -18.606018,18.630402 -31.752258,18.630402c-12.986694,0 -24.701843,-6.575195 -31.486755,-18.759338c-6.732422,12.570953 -18.606018,18.759338 -31.911255,18.759338c-9.594543,0 -18.394043,-2.643341 -25.020447,-9.798615l-5.035767,-43.835297c6.891418,11.087738 17.811005,18.242981 30.056213,18.242981c13.305237,0 25.178833,-7.928711 31.911255,-20.498901c6.784912,12.183441 18.500061,20.498901 31.486755,20.498901c13.14624,0 25.020447,-7.928711 31.752258,-20.370026c6.7854,12.183517 18.606079,20.370026 31.593262,20.370026c13.252319,0 24.967468,-8.31546 31.646362,-20.885651l-5.353821,45.059937z"/>
 </g>
</svg>