<?xml version="1.0" encoding="utf-8"?>
<!-- Generator: Adobe Illustrator 16.0.0, SVG Export Plug-In . SVG Version: 6.00 Build 0)  -->
<!DOCTYPE svg PUBLIC "-//W3C//DTD SVG 1.1//EN" "http://www.w3.org/Graphics/SVG/1.1/DTD/svg11.dtd">
<svg version="1.1" id="Ebene_1" xmlns="http://www.w3.org/2000/svg" xmlns:xlink="http://www.w3.org/1999/xlink" x="0px" y="0px"
	 width="6400px" height="3120px" viewBox="0 0 6400 3120" enable-background="new 0 0 6400 3120" xml:space="preserve">
<g>
	<path fill="#9A0D16" d="M984.23,1327.319c0-87.164-4.041-175.344-8.094-262.495c17.227,3.039,33.436,5.06,49.656,5.06
		c16.207,0,32.435-2.021,49.662-5.06c-4.06,87.15-8.113,175.331-8.113,262.495c0,170.273,2.032,289.854,3.053,389.186
		c95.258,0,178.369,0,279.72-13.187c-3.041,10.147-5.073,20.279-5.073,30.412c0,10.134,2.033,20.266,5.073,30.411
		c-61.83-3.053-124.653-5.071-186.481-5.071c-62.843,0-124.666,2.021-187.496,5.071c4.053-87.163,8.094-175.346,8.094-262.508
		V1327.319L984.23,1327.319z"/>
	<path fill="#9A0D16" d="M1541.733,1440.824c0-47.624-1.013-104.39-2.033-161.143c14.188,3.038,29.395,5.072,42.582,5.072
		c13.167,0,27.354-2.034,41.542-5.072c-6.073,79.052-10.127,182.425-10.127,281.756c0,69.923,14.188,103.372,31.414,122.634
		c19.262,21.281,47.637,37.491,87.165,37.491c56.75,0,95.259-28.376,112.499-64.862c20.269-43.569,21.281-51.68,21.281-210.803
		c0-54.733,0-117.562-2.033-166.216c14.188,3.038,27.374,5.072,42.575,5.072c15.195,0,28.381-2.034,41.549-5.072
		c-6.075,105.408-7.094,200.67-7.094,308.11c0,59.791,1.019,119.583,4.054,176.35c-13.181-3.052-26.354-5.071-39.521-5.071
		c-13.188,0-26.354,2.02-39.528,5.071c2.021-29.395,2.021-58.788,2.021-87.163h-2.021c-34.468,62.828-94.258,97.295-158.101,97.295
		c-105.412,0-169.254-60.808-169.254-166.214C1538.7,1537.116,1541.733,1490.496,1541.733,1440.824z M1644.093,1061.772
		c28.375,0,51.694,23.318,51.694,51.694s-23.319,51.693-51.694,51.693s-51.684-23.317-51.684-51.693
		S1615.717,1061.772,1644.093,1061.772z M1843.755,1061.772c28.381,0,51.695,23.318,51.695,51.694s-23.313,51.693-51.695,51.693
		c-28.375,0-51.689-23.317-51.689-51.693S1815.38,1061.772,1843.755,1061.772z"/>
	<path fill="#9A0D16" d="M2392.143,1322.245c-94.259,0-136.82,60.811-136.82,166.216v86.147c0,60.809,2.021,131.763,8.102,189.532
		c-15.194-3.053-30.401-5.071-45.603-5.071c-15.208,0-30.415,2.021-45.608,5.071c6.081-57.771,8.101-128.725,8.101-189.532V1469.2
		c0-60.808-2.02-131.75-8.101-189.519c15.194,3.038,30.4,5.072,45.608,5.072c10.127,0,25.334-2.034,40.542-5.072
		c-2.032,27.357-3.04,53.714-3.04,81.087h2.021c37.508-57.771,89.185-91.219,162.16-91.219c74.998,0,162.161,36.487,162.161,176.349
		c0,57.77-4.054,118.578-4.054,187.498c0,44.6,0,87.162,2.033,130.745c-15.207-3.052-28.396-5.071-42.582-5.071
		c-14.188,0-27.354,2.021-41.542,5.071c2.021-73.992,7.094-147.972,7.094-226.021v-61.826
		C2502.615,1376.979,2459.033,1322.245,2392.143,1322.245z"/>
	<path fill="#9A0D16" d="M2800.672,1666.846c14.192,27.358,57.775,69.923,114.523,69.923c50.676,0,98.313-31.415,98.313-91.219
		c0-125.673-239.19-51.681-239.19-222.97c0-88.166,60.81-153.03,168.254-153.03c49.656,0,81.07,18.243,112.486,28.376
		c-11.136,19.261-22.288,56.753-24.321,71.958h-12.155c-10.146-32.435-43.581-62.845-89.194-62.845
		c-39.529,0-86.146,25.34-86.146,85.144c0,131.75,239.191,50.676,239.191,221.951c0,77.03-69.938,160.139-182.442,160.139
		c-61.81,0-102.353-17.228-130.731-33.448c8.101-17.228,19.248-53.714,19.248-73.979H2800.672z"/>
	<path fill="#9A0D16" d="M3357.135,1143.877h5.071c-4.059,50.676-6.08,100.334-8.11,149.993c14.188,0,60.809-1.018,107.424-3.038
		c-1,7.094-1,14.188-1,21.28c0,7.095,0,14.189,1,21.282c-35.469-2.02-83.09-2.02-107.424-2.02
		c-2.021,10.132-7.095,169.255-7.095,257.421c0,76.014,2.033,153.045,82.091,153.045c11.147,0,32.428-3.038,45.614-7.095v24.322
		c-23.313,8.109-52.709,15.203-78.051,15.203c-84.108,0-124.652-47.637-124.652-126.688c0-73.992,6.074-165.197,7.095-316.208
		c-20.269,0-42.563,0-68.916,2.02c1.014-8.111,2.032-15.205,2.032-23.303c0-7.094-1.02-13.187-2.032-20.279
		c30.407,2.035,52.709,3.039,66.896,3.039c-1.021-26.342-2.033-69.923-4.055-113.506L3357.135,1143.877z"/>
	<path fill="#9A0D16" d="M3853.791,1362.791c-7.096-8.112-29.395-16.225-49.664-16.225c-64.86,0-103.371,61.826-103.371,140.878
		c0,176.349,0,230.078,4.054,276.696c-13.181-3.052-27.367-5.071-40.541-5.071c-14.188,0-27.373,2.021-42.563,5.071
		c4.053-49.672,4.053-128.724,4.053-242.229v-32.433c0-52.71,0-122.634-4.053-209.798c15.189,3.038,28.375,5.073,42.563,5.073
		c13.174,0,27.36-2.035,40.541-5.073c-5.072,48.655-5.072,72.975-5.072,98.313l2.027,1.005
		c38.521-72.962,87.157-109.449,133.791-109.449c12.153,0,19.248,1.016,32.422,6.077c-7.092,16.222-7.092,54.73-7.092,82.09
		L3853.791,1362.791z"/>
	<path fill="#9A0D16" d="M4233.9,1269.55c117.57,0,246.283,67.9,246.283,252.362c0,184.459-128.713,252.36-246.283,252.36
		c-117.58,0-246.287-67.901-246.287-252.36C3987.613,1337.45,4116.32,1269.55,4233.9,1269.55z M4233.9,1741.842
		c119.578,0,157.086-106.424,157.086-219.93c0-113.52-37.508-219.932-157.086-219.932c-119.58,0-157.088,106.412-157.088,219.932
		C4076.813,1635.418,4114.32,1741.842,4233.9,1741.842z"/>
	<path fill="#9A0D16" d="M4749.84,1143.877h5.088c-4.067,50.676-6.102,100.334-8.108,149.993c14.188,0,60.791-1.018,107.426-3.038
		c-1.013,7.094-1.013,14.188-1.013,21.28c0,7.095,0,14.189,1.013,21.282c-35.467-2.02-83.123-2.02-107.426-2.02
		c-2.037,10.132-7.095,169.255-7.095,257.421c0,76.014,2.01,153.045,82.072,153.045c11.166,0,32.447-3.038,45.621-7.095v24.322
		c-23.32,8.109-52.715,15.203-78.037,15.203c-84.135,0-124.664-47.637-124.664-126.688c0-73.992,6.074-165.197,7.094-316.208
		c-20.27,0-42.567,0-68.912,2.02c0.996-8.111,2.01-15.205,2.01-23.303c0-7.094-1.014-13.187-2.01-20.279
		c30.383,2.035,52.687,3.039,66.871,3.039c-1.012-26.342-2.006-69.923-4.041-113.506L4749.84,1143.877z"/>
	<path fill="#9A0D16" d="M5022.523,1288.811c0-93.254-2.031-223.986-8.111-291.901c15.207,3.053,30.414,5.073,45.621,5.073
		c15.199,0,30.406-2.021,45.613-5.073c-6.078,67.916-8.113,198.647-8.113,286.828v77.032h2.035
		c37.482-57.77,89.17-91.219,162.146-91.219c75.01,0,162.148,36.488,162.148,176.349c0,57.77-4.041,118.578-4.041,187.498
		c0,44.601,0,87.162,2.033,130.745c-15.207-3.052-28.375-5.071-42.566-5.071c-14.189,0-27.383,2.021-41.576,5.071
		c2.039-73.992,7.1-147.972,7.1-226.02v-61.827c0-99.316-43.557-154.05-110.459-154.05c-94.258,0-136.819,60.811-136.819,166.217
		c0,77.031,2.035,207.762,8.112,275.679c-15.207-3.052-30.414-5.071-45.612-5.071c-15.207,0-30.414,2.021-45.621,5.071
		c6.08-67.917,8.11-198.647,8.11-291.888V1288.811L5022.523,1288.811z"/>
</g>
<g>
	<path fill="#4D4D4D" d="M2760.057,2481.757h-13.021l-34.705-46.164l-9.962,8.855v37.309H2691.3v-95.192h11.069v47.205
		l43.169-47.205h13.087l-38.285,41.346L2760.057,2481.757z"/>
	<path fill="#4D4D4D" d="M2785.947,2442.169v39.588h-11.069v-95.192h26.11c11.676,0,20.303,2.236,25.882,6.706
		c5.577,4.472,8.367,11.199,8.367,20.185c0,12.589-6.381,21.097-19.143,25.523l25.85,42.778h-13.088l-23.048-39.588H2785.947z
		 M2785.947,2432.663h15.17c7.813,0,13.543-1.551,17.189-4.655c3.646-3.103,5.469-7.758,5.469-13.967
		c0-6.293-1.855-10.83-5.567-13.607c-3.711-2.778-9.668-4.168-17.873-4.168h-14.39V2432.663z"/>
	<path fill="#4D4D4D" d="M2912.108,2481.757h-53.065v-95.192h53.065v9.832h-41.997v30.667h39.458v9.768h-39.458v35.029h41.997
		V2481.757z"/>
	<path fill="#4D4D4D" d="M2994.774,2481.757l-11.85-30.276h-38.156l-11.72,30.276h-11.198l37.634-95.583h9.312l37.438,95.583
		H2994.774z M2979.473,2441.519l-11.069-29.495c-1.433-3.733-2.909-8.312-4.427-13.739c-0.955,4.168-2.323,8.748-4.102,13.739
		l-11.199,29.495H2979.473z"/>
	<path fill="#4D4D4D" d="M3050.354,2481.757h-11.068v-85.36h-30.146v-9.832h71.361v9.831h-30.146V2481.757L3050.354,2481.757z"/>
	<path fill="#4D4D4D" d="M3096.559,2481.757v-95.192h11.069v95.192H3096.559z"/>
	<path fill="#4D4D4D" d="M3189.838,2386.565h11.916l-34.314,95.192h-10.938l-34.118-95.192h11.72l21.877,61.595
		c2.516,7.077,4.514,13.956,5.99,20.641c1.563-7.032,3.603-14.041,6.121-21.031L3189.838,2386.565z"/>
</g>
<g>
	<path fill="#4D4D4D" d="M1021.367,2856.995c0,8.12-2.945,14.452-8.835,18.995c-5.891,4.544-13.884,6.815-23.982,6.815
		c-10.939,0-19.353-1.408-25.243-4.228v-10.35c3.786,1.599,7.909,2.861,12.369,3.786c4.459,0.927,8.877,1.389,13.253,1.389
		c7.152,0,12.537-1.357,16.156-4.07c3.618-2.714,5.427-6.49,5.427-11.328c0-3.197-0.642-5.815-1.925-7.857
		c-1.284-2.04-3.43-3.923-6.437-5.647c-3.009-1.725-7.584-3.682-13.726-5.87c-8.583-3.07-14.716-6.709-18.396-10.917
		c-3.682-4.207-5.522-9.697-5.522-16.472c0-7.109,2.671-12.769,8.015-16.977c5.342-4.207,12.411-6.312,21.205-6.312
		c9.172,0,17.607,1.684,25.306,5.049l-3.344,9.34c-7.616-3.197-15.02-4.796-22.214-4.796c-5.68,0-10.119,1.22-13.316,3.66
		c-3.198,2.44-4.796,5.827-4.796,10.16c0,3.198,0.589,5.817,1.767,7.857c1.177,2.041,3.165,3.913,5.964,5.616
		c2.798,1.704,7.078,3.587,12.843,5.648c9.676,3.45,16.334,7.152,19.974,11.107
		C1019.546,2845.552,1021.367,2850.684,1021.367,2856.995z"/>
	<path fill="#4D4D4D" d="M1070.315,2881.544h-10.729v-82.735h-29.219v-9.53h69.167v9.529h-29.219V2881.544z"/>
	<path fill="#4D4D4D" d="M1125.828,2843.174v38.37h-10.729v-92.265h25.307c11.317,0,19.679,2.167,25.086,6.5
		c5.406,4.334,8.109,10.854,8.109,19.563c0,12.201-6.184,20.447-18.553,24.738l25.054,41.463h-12.685l-22.34-38.37H1125.828z
		 M1125.828,2833.96h14.704c7.573,0,13.126-1.503,16.661-4.512c3.534-3.008,5.301-7.521,5.301-13.537
		c0-6.101-1.798-10.497-5.396-13.19c-3.598-2.691-9.372-4.038-17.324-4.038h-13.947V2833.96L1125.828,2833.96z"/>
	<path fill="#4D4D4D" d="M1254.672,2881.544l-11.485-29.345h-36.982l-11.36,29.345h-10.854l36.477-92.644h9.025l36.288,92.644
		H1254.672z M1239.841,2842.543l-10.729-28.588c-1.389-3.618-2.819-8.057-4.291-13.316c-0.926,4.039-2.251,8.479-3.976,13.316
		l-10.854,28.588H1239.841z"/>
	<path fill="#4D4D4D" d="M1308.543,2881.544h-10.729v-82.735h-29.219v-9.53h69.167v9.529h-29.219V2881.544z"/>
	<path fill="#4D4D4D" d="M1404.76,2881.544h-51.434v-92.265h51.434v9.529h-40.705v29.724h38.243v9.467h-38.243v33.953h40.705
		V2881.544z"/>
	<path fill="#4D4D4D" d="M1467.466,2833.203h31.365v44.87c-4.882,1.558-9.845,2.735-14.895,3.534
		c-5.048,0.8-10.896,1.199-17.544,1.199c-13.969,0-24.844-4.154-32.628-12.464c-7.783-8.309-11.675-19.953-11.675-34.931
		c0-9.593,1.925-17.996,5.774-25.212c3.85-7.215,9.393-12.727,16.629-16.535c7.236-3.807,15.714-5.711,25.433-5.711
		c9.846,0,19.018,1.81,27.516,5.428l-4.165,9.466c-8.33-3.534-16.345-5.301-24.044-5.301c-11.233,0-20.006,3.345-26.317,10.034
		c-6.311,6.69-9.466,15.967-9.466,27.831c0,12.454,3.039,21.899,9.119,28.336c6.079,6.438,15.009,9.656,26.789,9.656
		c6.395,0,12.644-0.735,18.744-2.209v-28.399h-20.637L1467.466,2833.203L1467.466,2833.203z"/>
	<path fill="#4D4D4D" d="M1522.663,2881.544v-92.265h10.729v92.265H1522.663z"/>
	<path fill="#4D4D4D" d="M1612.443,2856.995c0,8.12-2.944,14.452-8.834,18.995c-5.891,4.544-13.884,6.815-23.982,6.815
		c-10.938,0-19.354-1.408-25.243-4.228v-10.35c3.786,1.599,7.909,2.861,12.369,3.786c4.459,0.927,8.877,1.389,13.254,1.389
		c7.151,0,12.537-1.357,16.155-4.07c3.618-2.714,5.428-6.49,5.428-11.328c0-3.197-0.642-5.815-1.925-7.857
		c-1.284-2.04-3.43-3.923-6.438-5.647c-3.009-1.725-7.584-3.682-13.726-5.87c-8.583-3.07-14.716-6.709-18.396-10.917
		c-3.683-4.207-5.522-9.697-5.522-16.472c0-7.109,2.671-12.769,8.015-16.977c5.343-4.207,12.411-6.312,21.204-6.312
		c9.172,0,17.607,1.684,25.307,5.049l-3.345,9.34c-7.615-3.197-15.02-4.796-22.214-4.796c-5.68,0-10.119,1.22-13.316,3.66
		s-4.796,5.827-4.796,10.16c0,3.198,0.589,5.817,1.767,7.857c1.178,2.041,3.165,3.913,5.964,5.616
		c2.798,1.704,7.078,3.587,12.843,5.648c9.677,3.45,16.335,7.152,19.974,11.107
		C1610.622,2845.552,1612.443,2850.684,1612.443,2856.995z"/>
	<path fill="#4D4D4D" d="M1672.499,2797.547c-10.141,0-18.145,3.376-24.013,10.129c-5.87,6.753-8.804,15.997-8.804,27.736
		c0,12.074,2.829,21.404,8.487,27.988c5.658,6.585,13.727,9.877,24.202,9.877c6.438,0,13.778-1.156,22.024-3.471v9.402
		c-6.395,2.398-14.283,3.598-23.665,3.598c-13.59,0-24.076-4.123-31.46-12.369s-11.075-19.963-11.075-35.151
		c0-9.508,1.776-17.839,5.332-24.991c3.556-7.151,8.687-12.664,15.398-16.535c6.71-3.87,14.61-5.806,23.697-5.806
		c9.677,0,18.133,1.768,25.37,5.301l-4.544,9.214C1686.467,2799.188,1679.483,2797.547,1672.499,2797.547z"/>
	<path fill="#4D4D4D" d="M1786.26,2881.544h-10.729v-43.419h-48.593v43.419h-10.729v-92.265h10.729v39.253h48.593v-39.253h10.729
		V2881.544z"/>
</g>
<g>
	<path fill="#4D4D4D" d="M4368.105,2087.595h-12.593l-51.863-79.645h-0.52c0.692,9.348,1.039,17.915,1.039,25.704v53.94h-10.19
		v-94.898h12.463l51.733,79.319h0.52c-0.088-1.168-0.282-4.921-0.585-11.262c-0.304-6.338-0.412-10.872-0.325-13.599v-54.459h10.321
		V2087.595z"/>
	<path fill="#4D4D4D" d="M4455.579,2087.595l-11.813-30.183h-38.038l-11.684,30.183h-11.165l37.52-95.288h9.281l37.323,95.288
		H4455.579z M4440.325,2047.481l-11.034-29.403c-1.429-3.722-2.899-8.286-4.414-13.697c-0.952,4.155-2.315,8.721-4.089,13.697
		l-11.165,29.403H4440.325z"/>
	<path fill="#4D4D4D" d="M4522.413,2001.2c-10.43,0-18.662,3.473-24.698,10.418c-6.037,6.946-9.056,16.454-9.056,28.528
		c0,12.419,2.91,22.016,8.729,28.787c5.82,6.772,14.119,10.158,24.894,10.158c6.621,0,14.172-1.189,22.653-3.569v9.671
		c-6.578,2.467-14.691,3.7-24.341,3.7c-13.979,0-24.764-4.24-32.357-12.723c-7.596-8.48-11.393-20.532-11.393-36.154
		c0-9.779,1.828-18.348,5.485-25.704c3.656-7.355,8.935-13.025,15.838-17.007c6.901-3.98,15.027-5.972,24.373-5.972
		c9.953,0,18.651,1.817,26.094,5.452l-4.673,9.478C4536.778,2002.888,4529.596,2001.2,4522.413,2001.2z"/>
	<path fill="#4D4D4D" d="M4639.421,2087.595h-11.035v-44.658h-49.98v44.658h-11.035v-94.898h11.035v40.374h49.98v-40.374h11.035
		V2087.595z"/>
	<path fill="#4D4D4D" d="M4739.228,2087.595h-11.035v-44.658h-49.98v44.658h-11.034v-94.898h11.034v40.374h49.98v-40.374h11.035
		V2087.595z"/>
	<path fill="#4D4D4D" d="M4826.638,2087.595l-11.813-30.183h-38.037l-11.685,30.183h-11.164l37.518-95.288h9.282l37.323,95.288
		H4826.638z M4811.384,2047.481l-11.035-29.403c-1.428-3.722-2.899-8.286-4.413-13.697c-0.953,4.155-2.316,8.721-4.09,13.697
		l-11.164,29.403H4811.384z"/>
	<path fill="#4D4D4D" d="M4852.837,2087.595v-94.898h11.035v84.902h41.867v9.996H4852.837z"/>
	<path fill="#4D4D4D" d="M4952.772,2087.595h-11.034v-85.097h-30.053v-9.802h71.142v9.801h-30.054L4952.772,2087.595
		L4952.772,2087.595z"/>
	<path fill="#4D4D4D" d="M4998.835,2087.595v-94.898h11.035v94.898H4998.835z"/>
	<path fill="#4D4D4D" d="M5079.364,2037.874h32.26v46.151c-5.02,1.602-10.125,2.813-15.318,3.635s-11.209,1.233-18.045,1.233
		c-14.368,0-25.554-4.272-33.56-12.82c-8.006-8.545-12.009-20.521-12.009-35.927c0-9.866,1.98-18.51,5.94-25.932
		c3.959-7.421,9.659-13.09,17.103-17.007c7.442-3.916,16.162-5.874,26.159-5.874c10.126,0,19.558,1.861,28.3,5.582l-4.283,9.736
		c-8.568-3.635-16.813-5.452-24.731-5.452c-11.554,0-20.576,3.44-27.067,10.321s-9.737,16.422-9.737,28.625
		c0,12.81,3.126,22.524,9.379,29.145c6.253,6.621,15.438,9.932,27.555,9.932c6.577,0,13.004-0.756,19.278-2.271v-29.21h-21.225
		v-9.867H5079.364z"/>
</g>
<rect x="2018.923" y="1945.076" fill="#9A0D16" width="2" height="1174.924"/>
<rect x="3841.927" y="1945.076" fill="#9A0D16" width="2.001" height="1174.924"/>
</svg>
