<?xml version="1.0" encoding="utf-8"?>
<!-- Generator: Adobe Illustrator 19.0.0, SVG Export Plug-In . SVG Version: 6.00 Build 0)  -->
<!DOCTYPE svg PUBLIC "-//W3C//DTD SVG 1.1//EN" "http://www.w3.org/Graphics/SVG/1.1/DTD/svg11.dtd">
<svg version="1.1" id="Layer_1" xmlns="http://www.w3.org/2000/svg" xmlns:xlink="http://www.w3.org/1999/xlink" x="0px" y="0px"
	 viewBox="0 0 288 288" style="enable-background:new 0 0 288 288;" xml:space="preserve">
<style type="text/css">
	.st0{fill:#3399D1;}
</style>
<path id="XMLID_54_" class="st0" d="M176.3,233.6c-0.6-1-1.9-1.3-2.9-0.8c-1.3,0.7-12.5,7.5-14.7,15.7c-1.7,6.2,2.1,12.7,8.3,14.3
	c6.2,1.7,12.6-2.1,14.3-8.3C183.5,246.1,176.6,234.1,176.3,233.6z M177.2,253.4c-1.1,4-5.1,6.3-9.1,5.3c-4-1.1-6.3-5.1-5.3-9.1
	c1.1-4.1,6.1-8.7,10.9-11.9C175.4,241.1,178.5,248.4,177.2,253.4z"/>
<g id="XMLID_31_">
	<path id="XMLID_5_" class="st0" d="M219.8,159.4c-18,0-32.6-14.6-32.6-32.6c0-18,14.6-32.6,32.6-32.6c18,0,32.6,14.6,32.6,32.6
		C252.4,144.8,237.8,159.4,219.8,159.4z M219.8,99.2c-15.2,0-27.5,12.4-27.5,27.5c0,15.2,12.4,27.5,27.5,27.5
		c15.2,0,27.5-12.4,27.5-27.5C247.3,111.6,235,99.2,219.8,99.2z"/>
	<g id="XMLID_3_">
		<path id="XMLID_6_" class="st0" d="M219.8,88.8c-1.4,0-2.5-1.1-2.5-2.5v-7.1c0-1.4,1.1-2.5,2.5-2.5s2.5,1.1,2.5,2.5v7.1
			C222.3,87.7,221.2,88.8,219.8,88.8z"/>
		<path id="XMLID_7_" class="st0" d="M266.3,129.3h-7.1c-1.4,0-2.5-1.1-2.5-2.5s1.1-2.5,2.5-2.5h7.1c1.4,0,2.5,1.1,2.5,2.5
			S267.7,129.3,266.3,129.3z"/>
		<path id="XMLID_9_" class="st0" d="M180.3,129.3h-7.1c-1.4,0-2.5-1.1-2.5-2.5s1.1-2.5,2.5-2.5h7.1c1.4,0,2.5,1.1,2.5,2.5
			S181.7,129.3,180.3,129.3z"/>
		<path id="XMLID_12_" class="st0" d="M219.8,175.8c-1.4,0-2.5-1.1-2.5-2.5v-7.1c0-1.4,1.1-2.5,2.5-2.5s2.5,1.1,2.5,2.5v7.1
			C222.3,174.7,221.2,175.8,219.8,175.8z"/>
	</g>
	<g id="XMLID_8_">
		<path id="XMLID_11_" class="st0" d="M248,100.5c-0.6,0-1.3-0.2-1.8-0.7c-1-1-1-2.6,0-3.6l5-5c1-1,2.6-1,3.6,0c1,1,1,2.6,0,3.6
			l-5,5C249.3,100.3,248.7,100.5,248,100.5z"/>
		<path id="XMLID_10_" class="st0" d="M252.3,162.1c-0.6,0-1.3-0.2-1.8-0.7l-5-5c-1-1-1-2.6,0-3.6c1-1,2.6-1,3.6,0l5,5
			c1,1,1,2.6,0,3.6C253.6,161.8,252.9,162.1,252.3,162.1z"/>
		<path id="XMLID_13_" class="st0" d="M191.4,101.2c-0.6,0-1.3-0.2-1.8-0.7l-5-5c-1-1-1-2.6,0-3.6c1-1,2.6-1,3.6,0l5,5
			c1,1,1,2.6,0,3.6C192.7,101,192.1,101.2,191.4,101.2z"/>
		<path id="XMLID_14_" class="st0" d="M186.5,162c-0.6,0-1.3-0.2-1.8-0.7c-1-1-1-2.6,0-3.6l5-5c1-1,2.6-1,3.6,0c1,1,1,2.6,0,3.6
			l-5,5C187.8,161.8,187.1,162,186.5,162z"/>
	</g>
</g>
<path id="XMLID_4_" class="st0" d="M164.8,39.2c-1.1,0-2.1-0.7-2.4-1.8c-1.1-3.6-0.8-6.7,0.8-9.1c2-3,5.4-3.7,6.4-3.9
	c4.8-1.5,3.7-6.2,3.5-6.7c-0.4-1.3,0.4-2.7,1.7-3.1c1.3-0.4,2.7,0.4,3.1,1.7c1.1,4,0.2,10.8-7.1,12.9c-0.1,0-0.3,0.1-0.4,0.1
	c0,0-2.1,0.3-3.1,1.8c-0.7,1.1-0.8,2.7-0.1,4.9c0.4,1.3-0.4,2.7-1.7,3.1C165.2,39.2,165,39.2,164.8,39.2z"/>
</svg>
