<?xml version="1.0" encoding="UTF-8" standalone="no"?>
<!-- Created by Bo Constantinsen (http://whatmusicreallyis.com/) with Inkscape (http://www.inkscape.org/) -->

<svg
   xmlns:dc="http://purl.org/dc/elements/1.1/"
   xmlns:cc="http://creativecommons.org/ns#"
   xmlns:rdf="http://www.w3.org/1999/02/22-rdf-syntax-ns#"
   xmlns:svg="http://www.w3.org/2000/svg"
   xmlns="http://www.w3.org/2000/svg"
   xmlns:sodipodi="http://sodipodi.sourceforge.net/DTD/sodipodi-0.dtd"
   xmlns:inkscape="http://www.inkscape.org/namespaces/inkscape"
   height="330"
   width="300"
   version="1.1"
   id="svg2"
   inkscape:version="0.48.4 r9939"
   sodipodi:docname="wmri_spherical_standing_wave.svg"
   inkscape:export-filename="C:\Dropbox\What Music Really Is WEB\bUILDING IT\wmri_spherical_standing_wave.png"
   inkscape:export-xdpi="180"
   inkscape:export-ydpi="180">
  <defs
     id="defs80" />
  <sodipodi:namedview
     pagecolor="#ffffff"
     bordercolor="#666666"
     borderopacity="1"
     objecttolerance="10"
     gridtolerance="10"
     guidetolerance="10"
     inkscape:pageopacity="0"
     inkscape:pageshadow="2"
     inkscape:window-width="1496"
     inkscape:window-height="877"
     id="namedview78"
     showgrid="false"
     inkscape:zoom="0.9999999999999972"
     inkscape:cx="191.3014159954188"
     inkscape:cy="149.4703607124509"
     inkscape:window-x="96"
     inkscape:window-y="-8"
     inkscape:window-maximized="1"
     inkscape:current-layer="svg2" />
  <metadata
     id="metadata4">
    <rdf:RDF>
      <cc:Work
         rdf:about="">
        <dc:format>image/svg+xml</dc:format>
        <dc:type
           rdf:resource="http://purl.org/dc/dcmitype/StillImage" />
        <dc:title />
      </cc:Work>
    </rdf:RDF>
  </metadata>
  <path
     inkscape:connector-curvature="0"
     d="m 149.9998,14.89151 c -74.61771,0 -135.1073,60.48959000000001 -135.1073,135.10729999999998 0,74.61771 60.48958999999999,135.1073000000001 135.1073,135.1073000000001"
     stroke-miterlimit="4"
     id="path6"
     style="fill:#ffffff;stroke:#000000;stroke-width:1;stroke-linecap:round;stroke-linejoin:miter;stroke-miterlimit:4;stroke-dasharray:none;stroke-dashoffset:0" />
  <path
     inkscape:connector-curvature="0"
     d="m 149.9998,19.61969 c -72.00645,1e-14 -130.37919999999999,58.37275000000002 -130.37919999999999,130.37919999999999 0,72.00645 58.37275000000003,130.3792 130.37919999999999,130.3792"
     stroke-miterlimit="4"
     id="path8"
     style="fill:#000000;stroke:none" />
  <path
     inkscape:connector-curvature="0"
     d="m 149.9998,24.80311 c -69.14374999999998,1e-14 -125.1958,56.05207 -125.1958,125.19579999999999 0,69.14375 56.05206999999999,125.1958 125.1958,125.1958"
     stroke-miterlimit="4"
     id="path10"
     style="fill:#ffffff;stroke:none" />
  <path
     inkscape:connector-curvature="0"
     d="M 149.9998,30.52945 C 84.01860999999999,30.52945 30.5303,84.01775999999999 30.5303,149.99895 c 0,65.98119 53.48831,119.4695 119.46949999999999,119.4695"
     stroke-miterlimit="4"
     id="path12"
     style="fill:#000000;stroke:none" />
  <path
     inkscape:connector-curvature="0"
     d="M 149.9999,36.93608 C 87.55691999999999,36.93608000000001 36.9369,87.55609999999998 36.9369,149.99908 36.9369,212.44206 87.55691999999999,263.06208 149.9999,263.06208"
     stroke-miterlimit="4"
     id="path14"
     style="fill:#ffffff;stroke:none" />
  <path
     inkscape:connector-curvature="0"
     d="m 150,44.19833 c -58.43219000000002,1e-14 -105.80079999999998,47.36863999999999 -105.80079999999998,105.8008 C 44.19920000000001,208.43132 91.56784,255.79993 150,255.79993"
     stroke-miterlimit="4"
     id="path16"
     style="fill:#000000;stroke:none" />
  <path
     inkscape:connector-curvature="0"
     d="M 149.9998,52.57961 C 96.19639999999998,52.57961 52.58014,96.19586999999998 52.58014,149.99927 c 0,53.8034 43.61626,97.41966 97.41965999999999,97.41966"
     stroke-miterlimit="4"
     id="path18"
     style="fill:#ffffff;stroke:none" />
  <path
     inkscape:connector-curvature="0"
     d="m 149.9996,62.49112 c -48.32945,7e-15 -87.50819999999994,39.17875 -87.50819999999994,87.50820000000001 0,48.32945 39.17874999999997,87.5082 87.50819999999994,87.5082"
     stroke-miterlimit="4"
     id="path20"
     style="fill:#000000;stroke:none" />
  <path
     inkscape:connector-curvature="0"
     d="M 149.9995,74.62412 C 108.37086,74.62412 74.62419000000001,108.37079 74.62419000000001,149.99943 74.62419000000001,191.62807 108.37086,225.37474 149.9995,225.37474"
     stroke-miterlimit="4"
     id="path22"
     style="fill:#ffffff;stroke:none" />
  <path
     inkscape:connector-curvature="0"
     d="m 149.9996,90.26764 c -32.98905,0 -59.73195000000001,26.7429 -59.73195000000001,59.73195000000001 0,32.98905 26.74290000000002,59.73195 59.73195000000001,59.73195"
     stroke-miterlimit="4"
     id="path24"
     style="fill:#000000;stroke:none" />
  <path
     inkscape:connector-curvature="0"
     d="m 149.9994,112.3122 c -20.8143,0 -37.68763,16.87332 -37.68763,37.68763 0,20.8143 16.87332,37.68763 37.68763,37.68763"
     stroke-miterlimit="4"
     id="path48"
     style="fill:#ffffff;stroke:none" />
  <path
     inkscape:connector-curvature="0"
     d="M 150.0002,14.89151 C 224.61791,14.89151 285.1075,75.3811 285.1075,149.99881 c 0,74.61771 -60.48959,135.1073000000001 -135.1073,135.1073000000001"
     stroke-miterlimit="4"
     id="path50"
     style="fill:#ffffff;stroke:#000000;stroke-width:1;stroke-linecap:round;stroke-linejoin:miter;stroke-miterlimit:4;stroke-dasharray:none;stroke-dashoffset:0" />
  <g
     style="stroke:#000000;stroke-linecap:round;stroke-linejoin:miter;stroke-miterlimit:4;stroke-dasharray:none;stroke-dashoffset:0"
     transform="matrix(-0.03125,0,0,0.0625,824.3271105047956,433.020613623418)"
     stroke-miterlimit="4"
     id="g52">
    <path
       inkscape:connector-curvature="0"
       d="m 1460.883,8633.960999999999 c 0,28.898800000001 -23.4271,52.3259 -52.3259,52.3259 -28.8988,0 -52.3259,-23.427100000001 -52.3259,-52.3259"
       transform="matrix(-2.529581234663727e-15,-41.312561,-41.312561,2.529581234663727e-15,378269.5054382394,53662.75231980068)"
       id="path54"
       style="fill:#ffffff;stroke-width:0.5477127433;stroke-miterlimit:4;stroke-dasharray:none" />
    <path
       inkscape:connector-curvature="0"
       d="m 1460.883,8633.960999999999 c 0,28.898800000001 -23.4271,52.3259 -52.3259,52.3259 -28.8988,0 -52.3259,-23.427100000001 -52.3259,-52.3259"
       transform="matrix(-2.441057992704334e-15,-39.866819,-39.866819,2.441057992704334e-15,365787.0254382396,51626.34331980067)"
       id="path56"
       style="fill:#000000;stroke:none" />
    <path
       inkscape:connector-curvature="0"
       d="m 1460.883,8633.960999999999 c 0,28.898800000001 -23.4271,52.3259 -52.3259,52.3259 -28.8988,0 -52.3259,-23.427100000001 -52.3259,-52.3259"
       transform="matrix(-2.344010694528206e-15,-38.281864,-38.281864,2.344010694528206e-15,352102.5854382396,49393.84431980067)"
       id="path58"
       style="fill:#ffffff;stroke:none" />
    <path
       inkscape:connector-curvature="0"
       d="m 1460.883,8633.960999999999 c 0,28.898800000001 -23.4271,52.3259 -52.3259,52.3259 -28.8988,0 -52.3259,-23.427100000001 -52.3259,-52.3259"
       transform="matrix(-2.236798367621223e-15,-36.530896,-36.530896,2.236798367621223e-15,336984.7954382395,46927.50631980066)"
       id="path60"
       style="fill:#000000;stroke:none" />
    <path
       inkscape:connector-curvature="0"
       d="m 1460.883,8633.960999999999 c 0,28.898800000001 -23.4271,52.3259 -52.3259,52.3259 -28.8988,0 -52.3259,-23.427100000001 -52.3259,-52.3259"
       transform="matrix(-2.116850930628618e-15,-34.571941,-34.571941,2.116850930628618e-15,320071.2554382394,44168.2083198007)"
       id="path62"
       style="fill:#ffffff;stroke:none" />
    <path
       inkscape:connector-curvature="0"
       d="m 1460.883,8633.960999999999 c 0,28.898800000001 -23.4271,52.3259 -52.3259,52.3259 -28.8988,0 -52.3259,-23.427100000001 -52.3259,-52.3259"
       transform="matrix(-1.980883254545625e-15,-32.351347,-32.351347,1.980883254545625e-15,300898.7354382395,41040.37631980067)"
       id="path64"
       style="fill:#000000;stroke-width:0.17485685649999999;stroke:none" />
    <path
       inkscape:connector-curvature="0"
       d="m 1460.883,8633.960999999999 c 0,28.898800000001 -23.4271,52.3259 -52.3259,52.3259 -28.8988,0 -52.3259,-23.427100000001 -52.3259,-52.3259"
       transform="matrix(-1.823964523118898e-15,-29.788585,-29.788585,1.823964523118898e-15,278771.9454382395,37430.58131980067)"
       id="path66"
       style="fill:#ffffff;stroke:none" />
    <path
       inkscape:connector-curvature="0"
       d="m 1460.883,8633.960999999999 c 0,28.898800000001 -23.4271,52.3259 -52.3259,52.3259 -28.8988,0 -52.3259,-23.427100000001 -52.3259,-52.3259"
       transform="matrix(-1.638394717747189e-15,-26.7579,-26.7579,1.638394717747189e-15,252605.1254382395,33161.68931980068)"
       id="path68"
       style="fill:#000000;stroke:none" />
    <path
       inkscape:connector-curvature="0"
       d="m 1460.883,8633.960999999999 c 0,28.898800000001 -23.4271,52.3259 -52.3259,52.3259 -28.8988,0 -52.3259,-23.427100000001 -52.3259,-52.3259"
       transform="matrix(-1.411233545550294e-15,-23.047954,-23.047954,1.411233545550294e-15,220573.5954382395,27936.02031980066)"
       id="path70"
       style="fill:#ffffff;stroke:none" />
    <path
       inkscape:connector-curvature="0"
       d="m 1460.883,8633.960999999999 c 0,28.898800000001 -23.4271,52.3259 -52.3259,52.3259 -28.8988,0 -52.3259,-23.427100000001 -52.3259,-52.3259"
       transform="matrix(-1.118346770658668e-15,-18.264592,-18.264592,1.118346770658668e-15,179274.2354382395,21198.38431980066)"
       id="path72"
       style="fill:#000000;stroke:none" />
    <path
       inkscape:connector-curvature="0"
       d="m 1460.883,8633.960999999999 c 0,28.898800000001 -23.4271,52.3259 -52.3259,52.3259 -28.8988,0 -52.3259,-23.427100000001 -52.3259,-52.3259"
       transform="matrix(-7.056162829326053e-16,-11.523969,-11.523969,7.056162829326053e-16,121075.9564382394,11703.83531980067)"
       id="path74"
       style="fill:#ffffff;stroke:none" />
    <path
       d="m 21578.46495411837,-6690.065731562302 c -1193.88343782683,0 -2161.71693562989,967.833497803105 -2161.71693562989,2161.7169356299 0,1193.883437826801 967.83349780313,2161.716935629905 2161.71693562989,2161.716935629905"
       id="path76"
       inkscape:connector-curvature="0"
       style="opacity:0.25000000000000000;fill:#7f7f7f;stroke-width:5.65685462949999970;stroke:none" />
  </g>
  <text
     style="font-size:32px;font-style:normal;font-variant:normal;font-weight:normal;font-stretch:normal;line-height:125%;letter-spacing:0px;word-spacing:0px;fill:#000000;font-family:Corbel;-inkscape-font-specification:Corbel"
     line-height="125%"
     y="315.17188"
     x="70.394531"
     xml:space="preserve"
     id="text7605"
     sodipodi:linespacing="125%"><tspan
       font-size="64px"
       font-style="oblique"
       y="315.17188"
       x="70.394531"
       id="tspan7607"
       style="font-size:16px;font-style:normal;fill:#000000;-inkscape-font-specification:Corbel">what<tspan
   style="font-size:8px;fill:none"
   id="tspan7637">.</tspan>music<tspan
   style="font-size:8px;fill:none"
   id="tspan7641">.</tspan>really<tspan
   style="font-size:8px;fill:none"
   id="tspan7645">.</tspan>is<tspan
   style="font-size:8px;fill:none"
   id="tspan7649">.</tspan>.com</tspan></text>
</svg>
