<?xml version="1.0" encoding="utf-8"?>
<!-- Generator: Adobe Illustrator 15.1.0, SVG Export Plug-In . SVG Version: 6.00 Build 0)  -->
<!DOCTYPE svg PUBLIC "-//W3C//DTD SVG 1.1//EN" "http://www.w3.org/Graphics/SVG/1.1/DTD/svg11.dtd">
<svg version="1.1" id="Layer_1" xmlns="http://www.w3.org/2000/svg" xmlns:xlink="http://www.w3.org/1999/xlink" x="0px" y="0px"
	 width="5000px" height="5000px" viewBox="0 0 5000 5000" style="enable-background:new 0 0 5000 5000;" xml:space="preserve">
<style type="text/css">
<![CDATA[
	.st0{display:inline;fill:#B1C3D2;}
	.st1{fill:#B1C3D2;}
	.st2{display:inline;fill:#537FA4;}
	.st3{fill:#FFFFFF;}
	.st4{display:inline;}
	.st5{display:inline;fill:#6D6E71;}
	.st6{display:none;fill:#B0C3D1;}
	.st7{display:none;}
]]>
</style>
<path class="st6" d="M2500.2,40.7c-1358.5,0-2460,1101.5-2460,2460c0,1358.8,1101.5,2460,2460,2460c1358.7,0,2460-1101.2,2460-2460
	C4960.2,1142.2,3858.8,40.7,2500.2,40.7z M3027.2,2501.6h-344.7c0,550.7,0,1229.1,0,1229.1h-510.8c0,0,0-671.5,0-1229.1h-242.9
	v-434.2h242.9v-281.1c0-201.2,95.5-515.6,515.5-515.6l378.4,1.5v421.6c0,0-230,0-274.6,0c-44.7,0-108.4,22.2-108.4,118.3v255.2
	h389.5L3027.2,2501.6z"/>
<path class="st6" d="M2500.2,40C1141.2,40,39.4,1141.8,39.4,2500.7c0,1359.2,1101.8,2460.7,2460.8,2460.7S4960.9,3860,4960.9,2500.7
	C4960.9,1141.8,3859.1,40,2500.2,40z M2754.3,3048.6c-152.6,0-296.2-82.3-345.3-176c0,0-82.2,325.6-99.4,388.4
	c-61.3,222.3-241.4,444.6-255.2,462.6c-9.8,12.6-31.4,8.7-33.6-8.1c-3.9-28.2-49.9-308.5,4.2-537.1
	c27.2-114.7,181.9-770.2,181.9-770.2s-45.2-90.1-45.2-223.5c0-209.7,121.5-365.9,272.8-365.9c128.6,0,190.4,96.4,190.4,212.1
	c0,129.2-82.2,322.6-124.7,501.6c-35.4,149.9,75.1,272.2,223,272.2c267.8,0,448.2-343.9,448.2-751.6
	c0-309.7-208.6-541.6-588.2-541.6c-428.6,0-695.8,319.9-695.8,677.1c0,123.2,36.3,210,93.3,277c26.1,30.9,29.7,43.6,20.3,79
	c-6.9,25.8-22.2,88.6-28.8,113.2c-9.3,36-38.4,48.7-70.7,35.4c-197.5-80.5-289.4-296.8-289.4-540.1
	c0-401.3,338.5-882.8,1010.2-882.8c539.6,0,894.8,390.5,894.8,809.8C3517,2634.4,3208.6,3048.6,2754.3,3048.6z"/>
<g class="st7">
	<path class="st5" d="M2478,2126c19.1,0,34.1-5.1,45.2-15.6c11.3-10.5,17-25.2,17-43.5v-373.5c0-15-5.7-27-17.1-36.3
		c-11.4-9.3-26.4-13.8-45-13.8c-17,0-30.9,4.5-41.7,13.8c-10.5,9.3-15.9,21.3-15.9,36.3v373.5c0,18.9,5.1,33.3,15,43.5
		C2445.3,2121.2,2459.5,2126,2478,2126z"/>
	<path class="st5" d="M2787.3,2816c-19.4,0-38.4,4.8-57.5,14.7c-18.6,9.9-36.5,24.6-53.3,43.2v-271.7h-125.8v844h125.8v-47.7
		c16.2,19.2,34.2,33,53.3,42c18.9,9.3,40.5,13.5,65,13.5c36.8,0,65.2-11.4,84.5-35.1c19.7-23.7,29.3-57.3,29.3-101.2v-345.6
		c0-51-10.2-89.8-31.1-116.5C2856.8,2829.2,2826.8,2816,2787.3,2816z M2780.4,3300.3c0,20.1-3.6,34.2-10.7,42.9
		c-7.2,9-18.3,13.5-33.6,13.5c-10.5,0-20.4-2.4-30-6.9c-9.6-4.2-19.5-12-29.6-21.9V2940c8.6-8.7,17-15,25.7-19.2
		c8.7-3.9,17.6-6,26.4-6c16.7,0,29.7,5.4,38.7,16.2c8.9,10.8,13.1,26.7,13.1,48V3300.3z"/>
	<polygon class="st5" points="1616.8,2725 1761.8,2725 1761.8,3446.2 1902,3446.2 1902,2725 2047.2,2725 2047.2,2602.2 
		1616.8,2602.2 	"/>
	<path class="st5" d="M2332.7,3296.4c-11.7,13.5-24.5,24.6-38.6,33.6c-14,8.7-25.7,12.9-34.7,12.9c-11.6,0-20.1-3-25.5-9.9
		c-5-6.6-7.7-17.1-7.7-31.8v-477.7h-124.5v520.6c0,37.2,7.4,64.6,21.8,83.2c14.7,18.9,36.2,27.9,65.2,27.9
		c23.3,0,47.4-6.3,72.2-19.8c24.9-13.2,48.8-32.4,71.8-57.6v68.5h124.5v-622.7h-124.5V3296.4z"/>
	<path class="st5" d="M2499.8,41.1C1141.5,41.1,40.1,1142.4,40.1,2500.7c0,1358.6,1101.3,2459.6,2459.6,2459.6
		c1358.5,0,2459.6-1101,2459.6-2459.6C4959.4,1142.4,3858.3,41.1,2499.8,41.1z M2796.4,1541.7h139.9v525.7c0,16.2,3.3,27.9,9,35.1
		c5.7,7.5,15.5,11.1,28.5,11.1c10.2,0,23.4-4.8,39.2-14.4c15.6-9.9,30-21.9,43.1-36.9v-520.6h140.2v685.8h-140.2v-76
		c-25.7,27.9-52.5,49.5-80.6,64c-27.9,14.4-54.9,22.2-81.2,22.2c-32.6,0-56.7-10.5-73.3-31.2c-16.4-20.1-24.6-50.7-24.6-91.6V1541.7
		z M2276.2,1698.5c0-53.1,18.9-95.5,56.4-126.7c37.7-31.5,88.6-47.1,152.2-47.1c57.9,0,105.4,16.5,142.6,49.5
		c36.8,33,55.2,76.3,55.2,128.2v354.3c0,58.8-18,104.5-54.2,138.1c-36.5,33.3-86.5,50.1-150.1,50.1c-61.3,0-110.3-17.4-147.1-51.9
		c-36.6-34.5-55.1-80.8-55.1-139V1698.5z M1894.6,1297.9l102.4,371.7h9.9l97.7-371.7h160.2l-183.6,544v385.5h-157.6v-368.4
		l-187.8-561.2H1894.6z M3729.6,3254.3c0,248-201.3,449.5-449.3,449.5H1719.1c-248.2,0-449.2-201.5-449.2-449.5v-361.2
		c0-248,201-449.5,449.2-449.5h1561.1c248,0,449.3,201.5,449.3,449.5V3254.3z"/>
	<path class="st5" d="M3162.9,2808.2c-55.7,0-100.9,16.8-136.2,50.7c-35.3,33.9-52.8,78.4-52.8,132.1v279.5
		c0,60,16.2,107.2,48,141.1c32,34.5,76,51.3,131.7,51.3c62,0,108.7-15.9,139.6-48c31.5-32.4,47-80.5,47-144.4v-31.8h-128.1v28.2
		c0,36.6-4.4,60.3-12.3,71.2c-8.3,10.8-22.7,16.2-43.4,16.2c-19.8,0-33.9-6.3-42.2-18.9c-8.1-12.9-12.2-35.7-12.2-68.5v-117.1h238.1
		V2991c0-59.1-15.3-104.2-45.9-135.7C3263.8,2823.8,3219.9,2808.2,3162.9,2808.2z M3212.1,3052.9h-110v-62.8
		c0-26.1,4.2-45,12.9-55.8c8.7-11.7,22.8-17.4,42.6-17.4c18.9,0,33,5.7,41.4,17.4c8.6,10.8,13.1,29.7,13.1,55.8V3052.9z"/>
</g>
<g class="st7">
	<circle class="st2" cx="2499.5" cy="2499.5" r="2417.9"/>
	<g class="st4">
		<path class="st3" d="M3426.5,988.3H1572.3c-322.1,0-584,261.9-584,584v617.1v1237.3c0,322.1,261.9,584,584,584h1854.2
			c322.1,0,584.2-261.9,584.2-584V2189.4v-617.1C4010.7,1250.2,3748.6,988.3,3426.5,988.3z M3594.1,1336.8l66.7-0.4v66.7v445.5
			l-510.4,1.7l-1.8-512.2L3594.1,1336.8z M2068.2,2189.4c96.8-134,253.8-221.7,431.3-221.7c177.5,0,334.5,87.8,431.3,221.7
			c63,87.3,100.7,194.4,100.7,310.1c0,293.2-238.9,531.8-532,531.8c-293.4,0-532-238.7-532-531.8
			C1967.5,2383.8,2005.2,2276.7,2068.2,2189.4z M3716.3,3426.7c0,159.8-130.1,289.6-289.9,289.6H1572.3
			c-159.8,0-289.6-129.9-289.6-289.6V2189.4h451.1c-39,95.8-60.8,200.5-60.8,310.1c0,455.7,370.8,826.4,826.4,826.4
			c455.7,0,826.4-370.8,826.4-826.4c0-109.6-22.1-214.3-61-310.1h451.3V3426.7z"/>
	</g>
	<circle class="st2" cx="2499.5" cy="2499.5" r="2417.9"/>
	<g class="st4">
		<path class="st3" d="M3426.5,988.3H1572.3c-322.1,0-584,261.9-584,584v617.1v1237.3c0,322.1,261.9,584,584,584h1854.2
			c322.1,0,584.2-261.9,584.2-584V2189.4v-617.1C4010.7,1250.2,3748.6,988.3,3426.5,988.3z M3594.1,1336.8l66.7-0.4v66.7v445.5
			l-510.4,1.7l-1.8-512.2L3594.1,1336.8z M2068.2,2189.4c96.8-134,253.8-221.7,431.3-221.7c177.5,0,334.5,87.8,431.3,221.7
			c63,87.3,100.7,194.4,100.7,310.1c0,293.2-238.9,531.8-532,531.8c-293.4,0-532-238.7-532-531.8
			C1967.5,2383.8,2005.2,2276.7,2068.2,2189.4z M3716.3,3426.7c0,159.8-130.1,289.6-289.9,289.6H1572.3
			c-159.8,0-289.6-129.9-289.6-289.6V2189.4h451.1c-39,95.8-60.8,200.5-60.8,310.1c0,455.7,370.8,826.4,826.4,826.4
			c455.7,0,826.4-370.8,826.4-826.4c0-109.6-22.1-214.3-61-310.1h451.3V3426.7z"/>
	</g>
	<circle class="st0" cx="2499.5" cy="2499.5" r="2417.9"/>
	<g class="st4">
		<path class="st3" d="M3426.5,988.3H1572.3c-322.1,0-584,261.9-584,584v617.1v1237.3c0,322.1,261.9,584,584,584h1854.2
			c322.1,0,584.2-261.9,584.2-584V2189.4v-617.1C4010.7,1250.2,3748.6,988.3,3426.5,988.3z M3594.1,1336.8l66.7-0.4v66.7v445.5
			l-510.4,1.7l-1.8-512.2L3594.1,1336.8z M2068.2,2189.4c96.8-134,253.8-221.7,431.3-221.7c177.5,0,334.5,87.8,431.3,221.7
			c63,87.3,100.7,194.4,100.7,310.1c0,293.2-238.9,531.8-532,531.8c-293.4,0-532-238.7-532-531.8
			C1967.5,2383.8,2005.2,2276.7,2068.2,2189.4z M3716.3,3426.7c0,159.8-130.1,289.6-289.9,289.6H1572.3
			c-159.8,0-289.6-129.9-289.6-289.6V2189.4h451.1c-39,95.8-60.8,200.5-60.8,310.1c0,455.7,370.8,826.4,826.4,826.4
			c455.7,0,826.4-370.8,826.4-826.4c0-109.6-22.1-214.3-61-310.1h451.3V3426.7z"/>
	</g>
</g>
<path class="st1" d="M2471,2005.9c25.2,0,45-6.7,59.7-20.6c14.9-13.9,22.4-33.3,22.4-57.5v-493.1c0-19.8-7.5-35.7-22.6-48
	c-15.1-12.3-34.9-18.2-59.5-18.2c-22.4,0-40.8,5.9-55.1,18.2c-13.9,12.3-21,28.1-21,48v493.1c0,25,6.7,44,19.8,57.5
	C2427.8,1999.6,2446.7,2005.9,2471,2005.9z"/>
<path class="st1" d="M2879.4,2916.9c-25.6,0-50.7,6.3-75.9,19.4c-24.6,13.1-48.2,32.5-70.4,57.1v-358.8H2567V3749h166.1v-63
	c21.4,25.4,45.2,43.6,70.4,55.5c25,12.3,53.5,17.8,85.8,17.8c48.6,0,86-15.1,111.6-46.4c26-31.3,38.7-75.7,38.7-133.6V3123
	c0-67.4-13.5-118.5-41-153.8C2971.1,2934.4,2931.5,2916.9,2879.4,2916.9z M2870.2,3556.3c0,26.6-4.8,45.2-14.1,56.7
	c-9.5,11.9-24.2,17.8-44.4,17.8c-13.9,0-27-3.2-39.6-9.1c-12.7-5.6-25.8-15.9-39-28.9v-512.2c11.3-11.5,22.4-19.8,33.9-25.4
	c11.5-5.2,23.2-7.9,34.9-7.9c22,0,39.2,7.1,51.1,21.4c11.7,14.3,17.2,35.3,17.2,63.4V3556.3z"/>
<polygon class="st1" points="1333.9,2796.8 1525.4,2796.8 1525.4,3749 1710.5,3749 1710.5,2796.8 1902.2,2796.8 1902.2,2634.7 
	1333.9,2634.7 "/>
<path class="st1" d="M2279.2,3551.2c-15.5,17.8-32.3,32.5-50.9,44.4c-18.4,11.5-33.9,17-45.8,17c-15.3,0-26.6-4-33.7-13.1
	c-6.5-8.7-10.1-22.6-10.1-42v-630.7h-164.3v687.4c0,49.2,9.7,85.2,28.7,109.8c19.4,25,47.8,36.9,86,36.9c30.7,0,62.6-8.3,95.3-26.2
	c32.9-17.4,64.4-42.8,94.7-76.1v90.4h164.3v-822.2h-164.3V3551.2z"/>
<path class="st1" d="M2499.8,82.5C1164.4,82.5,81.6,1165.3,81.6,2500.7c0,1335.7,1082.7,2418.2,2418.2,2418.2
	c1335.6,0,2418.2-1082.4,2418.2-2418.2C4918,1165.3,3835.4,82.5,2499.8,82.5z M2891.4,1234.5h184.7v694.1c0,21.4,4.4,36.9,11.9,46.4
	c7.5,9.9,20.4,14.7,37.7,14.7c13.5,0,30.9-6.3,51.7-19c20.6-13.1,39.6-28.9,56.9-48.8v-687.4h185.1v905.4h-185.1v-100.3
	c-33.9,36.9-69.4,65.4-106.4,84.4c-36.9,19-72.5,29.3-107.2,29.3c-43,0-74.9-13.9-96.7-41.2c-21.6-26.6-32.5-67-32.5-120.9V1234.5z
	 M2204.6,1441.4c0-70.2,25-126.1,74.5-167.3c49.8-41.6,116.9-62.2,201-62.2c76.5,0,139.1,21.8,188.3,65.4
	c48.6,43.6,72.9,100.7,72.9,169.3v467.8c0,77.7-23.8,138-71.6,182.4c-48.2,44-114.2,66.2-198.2,66.2c-80.9,0-145.7-23-194.2-68.6
	c-48.4-45.6-72.7-106.6-72.7-183.5V1441.4z M1700.8,912.6l135.2,490.8h13.1l129-490.8h211.5l-242.4,718.3v509h-208.1v-486.4
	l-248-740.9H1700.8z M4123.5,3495.7c0,327.4-265.8,593.4-593.2,593.4H1469.1c-327.6,0-593-266-593-593.4v-476.9
	c0-327.4,265.4-593.4,593-593.4h2061.2c327.4,0,593.2,266,593.2,593.4V3495.7z"/>
<path class="st1" d="M3375.3,2906.6c-73.5,0-133.2,22.2-179.8,67c-46.6,44.8-69.8,103.5-69.8,174.4v369.1
	c0,79.3,21.4,141.5,63.4,186.3c42.2,45.6,100.3,67.8,173.8,67.8c81.9,0,143.5-21,184.3-63.4c41.6-42.8,62-106.2,62-190.7v-42h-169.1
	v37.3c0,48.4-5.8,79.7-16.3,94c-10.9,14.3-29.9,21.4-57.3,21.4c-26.2,0-44.8-8.3-55.7-25c-10.7-17-16.1-47.2-16.1-90.4v-154.6h314.4
	V3148c0-78.1-20.2-137.6-60.7-179.2C3508.5,2927.2,3450.6,2906.6,3375.3,2906.6z M3440.3,3229.7H3295v-82.9c0-34.5,5.6-59.5,17-73.7
	c11.5-15.5,30.1-23,56.3-23c25,0,43.6,7.5,54.7,23c11.3,14.3,17.2,39.2,17.2,73.7V3229.7z"/>
</svg>
