<?xml version="1.0" encoding="utf-8"?>
<!-- Generator: Adobe Illustrator 16.0.4, SVG Export Plug-In . SVG Version: 6.00 Build 0)  -->
<!DOCTYPE svg PUBLIC "-//W3C//DTD SVG 1.1//EN" "http://www.w3.org/Graphics/SVG/1.1/DTD/svg11.dtd">
<svg version="1.1" id="Layer_1" xmlns="http://www.w3.org/2000/svg" xmlns:xlink="http://www.w3.org/1999/xlink" x="0px" y="0px"
	 width="645px" height="432px" viewBox="323.333 1476.75 645 432" enable-background="new 323.333 1476.75 645 432"
	 xml:space="preserve">
<g id="Layer_4">
	<rect x="271.458" y="1417.306" fill="#273138" width="757.462" height="526.474"/>
</g>
<g id="Layer_1_1_" display="none">
	<g display="inline">
		<path fill="#CFD7DC" d="M649.82,1743.608c0-43.205-44.831-24.157-48.779-48.547c-3.02-19.048,20.208-19.512,20.208-53.193
			c0-30.893-22.066-45.062-52.96-45.062c-30.894,0-52.961,14.17-52.961,45.062c0,33.913,22.997,34.378,20.209,53.193
			c-3.949,24.621-48.78,5.574-48.78,48.547v8.13h-3.717v157.487h160.275v-26.713c4.181-6.969,6.736-14.865,6.736-23.692v-115.212
			H649.82z"/>
		<path fill="#E62D28" d="M806.61,1744.305c0-43.204-44.831-24.157-48.779-48.547c-3.02-19.046,20.208-19.512,20.208-53.192
			c0-30.894-22.067-45.062-52.96-45.062c-30.893,0-52.96,14.169-52.96,45.062c0,33.913,22.996,34.378,20.209,53.192
			c-3.95,24.622-48.78,5.575-48.78,48.547v0.232l0,0v164.688h160.043v-32.519c2.323-5.343,3.484-11.15,3.484-17.189v-114.979h-0.464
			L806.61,1744.305L806.61,1744.305z"/>
		<path fill="#E62D28" d="M486.293,1742.214c0-43.205-44.831-24.157-48.779-48.547c-3.02-19.047,20.209-19.511,20.209-53.424
			c0-30.894-22.067-45.063-52.961-45.063c-30.893,0-52.96,14.17-52.96,45.063c0,33.913,22.996,34.378,20.208,53.424
			c-3.949,24.622-48.779,5.575-48.779,48.547v115.212c0,0.93,0,1.858,0.232,2.788v49.012h163.294v-49.243
			c0-0.931,0.232-1.858,0.232-2.556v-114.979h-0.697V1742.214z"/>
		<path fill="#CFD7DC" d="M917.873,1698.954c-3.02-19.047,20.209-19.511,20.209-53.192c0-30.894-22.067-45.062-52.96-45.062
			c-30.893,0-52.961,14.169-52.961,45.062c0,33.914,22.997,34.378,20.209,53.192c-3.948,24.622-48.779,5.575-48.779,48.548v115.212
			v46.456h163.295v-46.456v-115.212C966.886,1704.529,922.054,1723.576,917.873,1698.954z"/>
		<g>
			<g id="path11341">
				<path fill="#E62D28" d="M746.914,1539.664c-12.08,12.079-31.823,12.079-44.134,0c-12.079-12.078-12.079-31.822,0-44.134
					c12.078-12.078,31.822-12.078,44.134,0C759.225,1507.609,758.992,1527.354,746.914,1539.664z"/>
				<path fill="#AD1813" d="M724.847,1556.156c-10.453,0-19.976-3.949-27.177-11.149c-7.201-7.201-11.149-16.957-11.149-27.177
					c0-10.221,3.948-20.209,11.149-27.409c7.201-7.201,16.957-11.15,27.177-11.15c10.453,0,19.977,3.949,27.177,11.15
					c15.099,15.098,15.099,39.488,0,54.586C744.823,1552.208,735.067,1556.156,724.847,1556.156z M724.847,1493.904
					c-6.271,0-12.311,2.556-16.724,6.969c-4.414,4.414-6.969,10.453-6.969,16.725s2.555,12.312,6.969,16.725
					s10.453,6.968,16.724,6.968c6.272,0,12.312-2.555,16.725-6.968c9.291-9.291,9.291-24.39,0-33.682
					C737.158,1496.46,731.351,1493.904,724.847,1493.904z"/>
			</g>
			<g id="path11343">
				<path fill="#AD1813" d="M746.914,1495.53c12.078,12.079,12.078,31.823,0,44.134c-12.08,12.312-31.823,12.079-44.134,0l0,0"/>
				<path fill="#E62D28" d="M724.847,1556.156c-10.453,0-19.976-3.949-27.177-11.149l10.453-10.453
					c4.413,4.414,10.453,6.969,16.724,6.969c6.272,0,12.311-2.556,16.725-6.969c9.291-9.291,9.291-24.39,0-33.681l10.453-10.452
					c15.098,15.098,15.098,39.488,0,54.586C744.823,1552.208,735.067,1556.156,724.847,1556.156z"/>
			</g>
			<g id="path4345">
				<path fill="#FFFFFF" d="M740.177,1524.799c0-6.272-4.413-9.292-11.149-10.686l-5.11-1.161c-2.788-0.697-4.182-1.394-4.182-3.484
					c0-2.323,2.091-3.717,5.343-3.717c3.716,0,5.575,1.858,6.039,4.646h9.292c-0.697-7.897-6.271-10.917-11.614-12.078v-6.04h-7.2
					v5.807c-7.202,0.93-11.847,5.575-11.847,12.079c0,6.039,3.484,9.291,10.918,10.918l6.039,1.393
					c3.02,0.697,3.949,1.858,3.949,3.02c0,2.091-1.858,3.252-5.111,3.252c-4.414,0-7.201-1.858-7.897-5.109h-9.291
					c0.696,7.897,6.503,11.846,13.24,12.775v5.575h7.2v-5.575C735.764,1535.483,740.177,1531.07,740.177,1524.799"/>
			</g>
		</g>
		<g>
			<g id="path11341_1_">
				<path fill="#E62D28" d="M426.829,1539.664c-12.079,12.079-31.822,12.079-44.133,0c-12.079-12.078-12.079-31.822,0-44.134
					c12.079-12.078,31.823-12.078,44.133,0C439.14,1507.609,438.907,1527.354,426.829,1539.664z"/>
				<path fill="#AD1813" d="M404.762,1556.156c-10.453,0-19.977-3.949-27.177-11.149c-7.434-7.434-11.382-16.957-11.382-27.409
					c0-10.453,3.948-19.977,11.149-27.177c7.433-7.201,16.957-11.15,27.409-11.15s19.976,3.949,27.177,11.15
					c15.099,15.098,15.099,39.488,0,54.586C424.738,1552.208,414.982,1556.156,404.762,1556.156z M404.762,1493.904
					c-6.271,0-12.311,2.556-16.725,6.969c-4.413,4.414-6.968,10.453-6.968,16.725s2.555,12.312,6.968,16.725
					c4.414,4.413,10.453,6.968,16.725,6.968s12.311-2.555,16.724-6.968c9.292-9.291,9.292-24.39,0-33.682
					C417.073,1496.46,411.034,1493.904,404.762,1493.904z"/>
			</g>
			<g id="path11343_1_">
				<path fill="#AD1813" d="M426.829,1495.53c12.079,12.079,12.079,31.823,0,44.134c-12.079,12.312-31.822,12.079-44.133,0l0,0"/>
				<path fill="#E62D28" d="M404.762,1556.156c-10.453,0-19.977-3.949-27.177-11.149l10.453-10.453
					c4.414,4.414,10.453,6.969,16.725,6.969s12.311-2.556,16.724-6.969c9.292-9.291,9.292-24.39,0-33.681l10.453-10.452
					c15.099,15.098,15.099,39.488,0,54.586C424.738,1552.208,414.982,1556.156,404.762,1556.156z"/>
			</g>
			<g id="path4345_1_">
				<path fill="#FFFFFF" d="M420.093,1524.799c0-6.272-4.414-9.292-11.15-10.686l-5.11-1.161c-2.788-0.697-4.181-1.394-4.181-3.484
					c0-2.323,2.091-3.717,5.343-3.717c3.716,0,5.574,1.858,6.039,4.646h9.292c-0.697-7.897-6.272-10.917-11.614-12.078v-6.04h-7.201
					v5.807c-7.201,0.93-11.847,5.575-11.847,12.079c0,6.039,3.484,9.291,10.917,10.918l6.04,1.393
					c3.02,0.697,3.948,1.858,3.948,3.02c0,2.091-1.857,3.252-5.11,3.252c-4.414,0-7.201-1.858-7.897-5.109h-9.291
					c0.697,7.897,6.503,11.846,13.24,12.775v5.575h7.201v-5.575C415.447,1535.483,420.093,1531.07,420.093,1524.799"/>
			</g>
		</g>
	</g>
</g>
<g id="Layer_2" display="none">
	<polygon display="inline" fill="#455A65" points="454.127,1774.918 537.204,1911.856 646.117,1911.856 646.117,1896.463 
		612.077,1738.772 465.474,1737.417 	"/>
	<path display="inline" fill="#5F7C8A" d="M334.25,1586.253l19.112,79.766l56.285,76.367l92.137,67.776l46.749-12.651l34.041,42.021
		c0,0,20.878-15.362,34.494,8.134l29.048,50.606l14.071-24.4l-8.625-24.398l34.495-26.207l42.664,8.134
		c0,0,11.801-29.822,52.65-23.044l41.304,52.864c0,0,19.97-13.103,11.346-31.177c-8.169-18.072-23.147-36.146-23.147-36.146
		l49.927-86.752l-7.262-33.437l39.486-41.568l-11.347-19.43l29.501-36.147h18.156l31.317-31.176v-18.526
		c-14.07,21.688-42.665,28.015-60.819,5.423h-28.141c0-27.562,28.141-56.028,49.019-76.36l-582.76,119.53L334.25,1586.253z"/>
	<path display="inline" fill="#455A65" d="M962.924,1448.239H325.608l12.344,127.214l363.992,2.012l26.324-22.59l31.319,54.672
		l16.793,37.954l54.012-31.178l17.701-30.724h21.787c0,0,19.97-30.273,41.301-9.037h18.156l33.588-33.437v-18.524
		c-17.703,9.939-48.112,11.295-59.912-11.296l-31.771,18.072l27.231-40.664L962.924,1448.239z"/>
	<path display="inline" fill="#FFFFFF" d="M449.135,1742.838c0,8.586-3.631,17.17-9.532,23.045
		c-5.9,5.873-14.523,9.487-23.147,9.487c-8.624,0-16.793-3.614-23.147-9.487c-5.9-5.875-9.532-14.459-9.532-23.045
		c0-8.584,3.631-17.169,9.532-23.044c5.9-5.873,14.523-9.488,23.147-9.488s17.247,3.615,23.147,9.488
		C445.958,1726.121,449.135,1734.706,449.135,1742.838z"/>
	<path display="inline" fill="#FFFFFF" d="M849,1764.979c0,8.134-3.177,15.814-9.078,21.688c-5.901,5.873-13.616,9.036-21.787,9.036
		c-8.169,0-15.885-3.163-21.786-9.036c-5.9-5.874-9.078-13.555-9.078-21.688c0-8.133,3.178-15.815,9.078-21.688
		c5.901-5.875,13.617-9.037,21.786-9.037c8.17,0,15.886,3.162,21.787,9.037C845.823,1749.164,849,1756.846,849,1764.979z"/>
	<path display="inline" fill="#FFFFFF" d="M458.666,1670.996c0,3.614-1.361,6.777-4.084,9.488c-2.27,2.26-5.9,4.066-9.532,4.066
		s-6.808-1.355-9.531-4.066c-2.269-2.259-4.085-5.874-4.085-9.488c0-3.615,1.361-6.777,4.085-9.488
		c2.269-2.26,5.9-4.066,9.531-4.066s6.808,1.354,9.532,4.066C456.851,1664.219,458.666,1667.381,458.666,1670.996z"/>
	<path display="inline" fill="#FFFFFF" d="M478.638,1787.57c0,3.613-1.363,6.777-4.086,9.488c-2.269,2.26-5.9,4.066-9.531,4.066
		s-6.809-1.355-9.531-4.066c-2.27-2.258-4.085-5.875-4.085-9.488c0-3.615,1.362-6.777,4.085-9.489
		c2.269-2.259,5.9-4.065,9.531-4.065s6.809,1.354,9.531,4.065C477.275,1780.793,478.638,1784.407,478.638,1787.57z"/>
	<path display="inline" fill="#FFFFFF" d="M843.553,1703.979c0,4.067-1.816,7.682-4.539,10.844
		c-2.724,2.712-6.809,4.519-10.894,4.519c-4.084,0-7.715-1.807-10.893-4.519c-2.724-2.71-4.54-6.776-4.54-10.844
		c0-4.065,1.816-7.681,4.54-10.844c2.724-2.711,6.808-4.519,10.893-4.519c4.085,0,7.715,1.808,10.894,4.519
		C842.192,1695.848,843.553,1699.914,843.553,1703.979z"/>
	<path display="inline" fill="#FFFFFF" d="M621.608,1807.903c0,3.614-1.362,6.777-4.085,9.487c-2.269,2.26-5.9,4.066-9.531,4.066
		c-3.63,0-6.809-1.354-9.532-4.066c-2.269-2.258-4.084-5.873-4.084-9.487c0-3.616,1.361-6.778,4.084-9.489
		c2.27-2.259,5.901-4.066,9.532-4.066c3.631,0,6.808,1.355,9.531,4.066C620.247,1801.125,621.608,1804.287,621.608,1807.903z"/>
	<path display="inline" fill="#FFFFFF" d="M799.527,1820.556c0,3.613-1.362,6.776-4.085,9.486c-2.27,2.26-5.9,4.067-9.531,4.067
		c-3.631,0-6.808-1.355-9.531-4.067c-2.27-2.258-4.085-5.873-4.085-9.486c0-3.616,1.361-6.779,4.085-9.49
		c2.269-2.259,5.9-4.066,9.531-4.066c3.631,0,6.808,1.356,9.531,4.066C798.165,1813.777,799.527,1817.391,799.527,1820.556z"/>
	<path display="inline" fill="#FFFFFF" d="M829.029,1858.961c0,3.614-1.361,6.777-4.084,9.488c-2.269,2.26-5.901,4.067-9.532,4.067
		c-3.63,0-6.807-1.356-9.531-4.067c-2.27-2.259-4.085-5.874-4.085-9.488s1.362-6.777,4.085-9.488
		c2.27-2.261,5.901-4.066,9.531-4.066c3.631,0,6.809,1.355,9.532,4.066S829.029,1855.347,829.029,1858.961z"/>
	<path display="inline" fill="#FFFFFF" d="M669.265,1751.424c0,3.614-1.361,6.777-4.085,9.488c-2.269,2.259-5.901,4.066-9.532,4.066
		s-6.808-1.355-9.532-4.066c-2.269-2.26-4.084-5.874-4.084-9.488c0-3.615,1.362-6.778,4.085-9.489
		c2.269-2.259,5.9-4.066,9.531-4.066c3.63,0,6.809,1.355,9.531,4.066C667.903,1744.193,669.265,1747.809,669.265,1751.424z"/>
	<path display="inline" fill="#FFFFFF" d="M757.316,1648.856c0,3.615-1.361,6.777-4.085,9.488c-2.269,2.259-5.9,4.066-9.532,4.066
		c-3.63,0-6.808-1.354-9.531-4.066c-2.269-2.26-4.085-5.873-4.085-9.488c0-3.614,1.361-6.778,4.085-9.489
		c2.269-2.259,5.9-4.065,9.531-4.065c3.631,0,6.808,1.355,9.532,4.065C755.955,1642.078,757.316,1645.693,757.316,1648.856z"/>
</g>
<g id="Layer_3">
	<path fill="#E62D28" d="M638.583,1550.939c-4.816,8.944-13.761,15.138-23.395,17.89c-9.632,2.752-20.643,0.688-29.587-4.129
		c-8.945-5.504-15.826-13.761-18.578-23.395c-2.752-9.632-1.376-20.643,3.441-28.898c4.816-8.945,13.761-15.139,23.394-17.891
		c9.633-2.752,20.643-0.688,29.588,4.129c8.945,5.505,15.826,13.762,18.578,23.395
		C644.776,1531.673,643.4,1541.993,638.583,1550.939z"/>
	<path fill="#E62D28" d="M634.454,1478.002c30.275,17.202,41.285,55.047,24.083,84.635c-17.202,29.587-55.046,39.22-85.321,21.33
		c-30.276-17.201-40.597-55.046-24.083-84.634C566.335,1470.434,604.179,1460.801,634.454,1478.002z M644.087,1461.489
		c-39.22-22.707-89.45-10.321-111.468,28.211s-8.257,88.074,30.963,110.78c39.221,22.707,90.138,9.634,112.157-28.211
		C697.757,1533.737,683.996,1484.195,644.087,1461.489z"/>
	<path fill="#E62D28" d="M654.914,1444.316c50.373,28.62,68.688,91.585,40.068,140.812c-28.62,49.226-91.584,65.254-141.956,35.488
		c-50.372-28.619-67.544-91.584-40.069-140.812C541.578,1431.725,604.542,1415.696,654.914,1444.316z M670.941,1416.841
		c-65.254-37.778-148.825-17.172-185.459,46.938c-36.633,64.109-13.738,146.535,51.517,184.314
		c65.253,37.778,149.969,16.027,186.603-46.938C760.236,1537.047,737.34,1454.62,670.941,1416.841z"/>
	<path fill="#CFD7DC" d="M608.996,1521.352c-15.826,0-28.898,12.386-28.898,28.211l1.375,128.671v13.073l0.688,82.569l-49.541-17.89
		c-50.917-6.881-46.79,33.716-46.79,33.716l125.918,86.697l0.667,49.459h155.526l-0.688-42.578
		c40.597-10.321,39.908-53.671,39.908-53.671l-0.688-73.624l-0.689-69.495c0-14.45-13.073-25.459-26.146-25.459
		c-11.009,0-11.009,3.439-24.083,3.439c-13.074,0-15.138-8.944-28.211-8.944c-13.074,0-19.266,8.257-29.587,8.257
		c-11.009,0-15.826-10.321-29.587-10.321c-14.45,0-15.138,11.009-26.147,9.633c-0.688,0-0.688,0-1.376,0l-1.376-112.845
		C638.583,1534.425,625.509,1521.352,608.996,1521.352z"/>
</g>
</svg>