<?xml version="1.0" encoding="utf-8"?>
<!-- Generator: Adobe Illustrator 19.1.0, SVG Export Plug-In . SVG Version: 6.00 Build 0)  -->
<svg version="1.1" id="Ebene_1" xmlns="http://www.w3.org/2000/svg" xmlns:xlink="http://www.w3.org/1999/xlink" x="0px" y="0px"
	 viewBox="0 0 43 26" style="enable-background:new 0 0 43 26;" xml:space="preserve">
<style type="text/css">
	.st0{fill:#941B80;}
	.st1{fill:#FDC603;}
</style>
<g>
	<path class="st0" d="M20.0422363,12.1593504c0,0.0566635-0.0451298,0.1027966-0.1022949,0.1027966
		s-0.1022949-0.046133-0.1022949-0.1027966v-0.2567396c0-0.0566635,0.0451298-0.1027966,0.1022949-0.1027966
		s0.1022949,0.046133,0.1022949,0.1027966V12.1593504z M20.0422363,15.7522011c0-0.0566635-0.0451298-0.1027966-0.1022949-0.1027966
		s-0.1022949,0.046133-0.1022949,0.1027966v0.5134792c0,0.0566635,0.0451298,0.1027966,0.1022949,0.1027966
		s0.1022949-0.046133,0.1022949-0.1027966V15.7522011z M20.0422363,17.8056164c0-0.0566635-0.0451298-0.1027966-0.1022949-0.1027966
		s-0.1022949,0.046133-0.1022949,0.1027966v0.5134792c0,0.0566635,0.0451298,0.1027966,0.1022949,0.1027966
		s0.1022949-0.046133,0.1022949-0.1027966V17.8056164z M20.0422363,16.7791595c0-0.0566635-0.0451298-0.1027966-0.1022949-0.1027966
		s-0.1022949,0.046133-0.1022949,0.1027966v0.5129776c0,0.0566635,0.0451298,0.1027966,0.1022949,0.1027966
		s0.1022949-0.046133,0.1022949-0.1027966V16.7791595z M20.0422363,14.7257433c0-0.0566626-0.0451298-0.1027956-0.1022949-0.1027956
		s-0.1022949,0.046133-0.1022949,0.1027956v0.5129786c0,0.0566626,0.0451298,0.1027956,0.1022949,0.1027956
		s0.1022949-0.046133,0.1022949-0.1027956V14.7257433z M20.0422363,18.8320732c0-0.0566635-0.0451298-0.1027966-0.1022949-0.1027966
		s-0.1022949,0.046133-0.1022949,0.1027966v0.5134792c0,0.0566635,0.0451298,0.1027966,0.1022949,0.1027966
		s0.1022949-0.046133,0.1022949-0.1027966V18.8320732z M20.0422363,13.6987848c0-0.0566626-0.0451298-0.1027956-0.1022949-0.1027956
		s-0.1022949,0.046133-0.1022949,0.1027956v0.5134792c0,0.0566635,0.0451298,0.1027966,0.1022949,0.1027966
		s0.1022949-0.046133,0.1022949-0.1027966V13.6987848z M20.0422363,12.672328c0-0.0566635-0.0451298-0.1027956-0.1022949-0.1027956
		s-0.1022949,0.0461321-0.1022949,0.1027956v0.5134792c0,0.0566635,0.0451298,0.1027966,0.1022949,0.1027966
		s0.1022949-0.046133,0.1022949-0.1027966V12.672328z M19.9399414,19.7562351c-0.0571651,0-0.1022949,0.046133-0.1022949,0.1027966
		v0.2567406c0,0.0566635,0.0451298,0.1027946,0.1022949,0.1027946s0.1022949-0.0461311,0.1022949-0.1027946v-0.2567406
		C20.0422363,19.8023682,19.9971066,19.7562351,19.9399414,19.7562351z M19.9398785,20.6135178
		c-2.6296387,0-4.7583332,0.6992645-4.8888969,1.576292h9.7777309
		C24.6980858,21.3127823,22.5693913,20.6135178,19.9398785,20.6135178z M20.6326237,11.0000734
		c0.7972965-0.4319324,4.8976727-2.7986879,4.8976727-2.7986879l-0.3320827-0.2062817c0,0-3.7371407,1.4498014-4.9075756,1.4498014
		c-1.170433,0-0.8375378,0.2612524-4.3181267-1.2124929c-3.4805269-1.4736829-0.9215298,0.298172-0.9215298,0.298172
		s4.1900082,2.3888817,4.3697128,2.4694891C19.6004009,11.0807428,19.8353271,11.4320679,20.6326237,11.0000734z
		 M29.172699,24.0852051h-0.2089844v-0.0010376h-0.0019531v0.0010376h-0.2099609
		c-1.1210938,0-1.6990967-0.644165-1.9106445-1.2606201H12.5516663v-2.3447876c0-1.1051636,0.2406616-1.9937134,1.4120483-2.7373657
		c1.3007812-0.8253784,4.8128662-2.925415,4.8479614-2.9464722c0.15448-0.0927734,0.2497559-0.2602539,0.2497559-0.4407959
		v-1.1838989v-1.1838989c0-0.180542-0.0952759-0.3480225-0.2497559-0.4407959
		c-0.0350952-0.0210571-3.5462036-2.1206055-4.8479614-2.9459839c-1.1713867-0.7436523-1.4120483-1.6322021-1.4120483-2.7373657
		V3.1754761h14.7765503v2.6877441c0,1.1046753-0.2406616,1.9927368-1.4130859,2.7373657
		c-1.3007202,0.8253784-4.8118286,2.9249268-4.8469238,2.9459839c-0.15448,0.0927734-0.2497559,0.2602539-0.2497559,0.4407959
		v1.1838989v1.1838989c0,0.180542,0.0952759,0.3480225,0.2497559,0.4407959
		c0.0278931,0.0167236,2.2467651,1.3440552,3.8098755,2.3027344c-0.1843872-0.4118042-0.3147583-0.8673706-0.3703613-1.428772
		c-1.06427-0.6465454-2.1768188-1.3145142-2.6622925-1.6055908v-0.8930664v-0.8930664
		c0.8314209-0.4979248,3.5131226-2.1080933,4.6193237-2.8101196c1.6758423-1.0635376,1.8904419-2.4851685,1.8904419-3.6048584
		V3.1754761h1.2064819c0.4252319,0,0.7702026-0.3450317,0.7702026-0.7702637S29.986908,1.6350098,29.561676,1.6350098H10.3182068
		c-0.4252319,0-0.7702026,0.3449707-0.7702026,0.7702026s0.3449707,0.7702637,0.7702026,0.7702637h1.2064819v2.6877441
		c0,1.1196899,0.2145996,2.5418091,1.8894653,3.6048584c1.1071777,0.7025146,3.7888794,2.3121948,4.6203003,2.8101196v0.8930664
		v0.8930664c-0.8314209,0.4984131-3.5131226,2.1080933-4.6203003,2.8106079
		c-1.6748657,1.0630493-1.8894653,2.4851685-1.8894653,3.6048584v2.3447876h-1.2064819
		c-0.4252319,0-0.7702026,0.3449707-0.7702026,0.7702026s0.3449707,0.7702026,0.7702026,0.7702026H29.561676
		c0.3544312,0,0.6402588-0.2445679,0.7298584-0.5706177C29.9999084,23.9680176,29.6366272,24.0852051,29.172699,24.0852051z"/>
	<path class="st1" d="M28.9468079,10.4532471v0.0070801c-2.4259644,0.008606-4.4733276,2.0591431-4.4733276,4.4871826
		c0,2.1245117,0.7587891,2.9443359,2.0146484,4.3022461l0.2539062,0.2758789v2.8154297
		c0.0273438,0.7011719,0.5839844,1.7441406,2.0097656,1.7441406h0.2099609v-0.0010376h0.0019531v0.0010376h0.2089844
		c1.4267578,0,1.9833984-1.043457,2.0097656-1.7631836v-2.7963867l0.2529297-0.2749023
		c1.2578125-1.3583984,2.0166016-2.1782227,2.0166016-4.3032227C33.4519958,12.5144043,31.3804016,10.4532471,28.9468079,10.4532471
		z M29.172699,23.0852051h-0.1304932v-0.001709h-0.1774292v0.001709h-0.1129761c-0.8878784,0-0.99823-0.5992432-1.0095215-0.7612305
		h2.4379883C30.1609192,22.5314941,30.0298767,23.0852051,29.172699,23.0852051z M27.7420349,21.3239746v-1.4936523h2.4406738
		l0.0004272,1.4936523H27.7420349z M30.7019958,18.5715332l-0.2382202,0.2587891H29.462738v-3.6831055
		c0-0.2763672-0.2236328-0.5-0.5-0.5s-0.5,0.2236328-0.5,0.5v3.6831055h-1.0020142l-0.2382202-0.2592773
		c-1.2373047-1.3374023-1.7490234-1.890625-1.7490234-3.6235352c0-1.8874512,1.5916138-3.4814453,3.477478-3.4876709v0.0007324
		c1.8916016,0,3.5010376,1.5958252,3.5010376,3.4869385C32.4519958,16.6809082,31.9393005,17.2341309,30.7019958,18.5715332z"/>
</g>
</svg>
